<?xml version="1.0" encoding="utf-8"?>
<!-- Generator: Adobe Illustrator 23.0.1, SVG Export Plug-In . SVG Version: 6.00 Build 0)  -->
<svg version="1.1" baseProfile="tiny" id="icons" xmlns="http://www.w3.org/2000/svg" xmlns:xlink="http://www.w3.org/1999/xlink"
	 x="0px" y="0px" viewBox="0 0 24 24" xml:space="preserve">
<path d="M17.143,8.786H7.5L7.275,8.808C5.005,8.56,3,10.377,3,12.643v6.429h17.348L21,19.063v-6.42
	C21,10.516,19.27,8.786,17.143,8.786z"/>
<path fill="#50D3FB" d="M4.286,17.786h5.143v-5.143c0-1.418-1.154-2.571-2.571-2.571s-2.571,1.154-2.571,2.571L4.286,17.786
	L4.286,17.786z"/>
<path fill="#50D3FB" d="M19.714,17.786v-5.143c0-1.418-1.154-2.571-2.571-2.571H9.711c0.617,0.684,1.003,1.58,1.003,2.571v5.143
	H19.714z"/>
<path d="M17.119,12.269h-3.535V5.2h5.302c0.975,0,1.767,0.793,1.767,1.767s-0.793,1.767-1.767,1.767h-1.767V12.269z"/>
<path fill="#50D3FB" d="M19.801,6.946c0-0.354-0.289-0.643-0.643-0.643h-4.5v5.143h1.286V7.588h3.214
	C19.512,7.588,19.801,7.3,19.801,6.946z"/>
</svg>
