<?xml version="1.0" encoding="utf-8"?>
<!-- Generator: Adobe Illustrator 23.0.1, SVG Export Plug-In . SVG Version: 6.00 Build 0)  -->
<svg version="1.1" baseProfile="tiny" id="icons" xmlns="http://www.w3.org/2000/svg" xmlns:xlink="http://www.w3.org/1999/xlink"
	 x="0px" y="0px" viewBox="0 0 24 24" xml:space="preserve">
<path d="M12,3c-4.963,0-9,4.037-9,9s4.037,9,9,9s9-4.037,9-9S16.963,3,12,3L12,3z"/>
<path fill="#D8E0E4" d="M13.125,4.214V5.25h-2.25V4.214C7.06,4.762,4.125,8.034,4.125,12s2.935,7.238,6.75,7.786V18.75h2.25v1.036
	c3.815-0.547,6.75-3.819,6.75-7.786S16.94,4.762,13.125,4.214z"/>
<rect x="6.375" y="7.5" width="4.5" height="2.25"/>
<rect x="5.25" y="10.875" width="5.625" height="2.25"/>
<rect x="6.375" y="14.25" width="4.5" height="2.25"/>
<rect x="13.125" y="7.5" width="4.5" height="2.25"/>
<rect x="13.125" y="10.875" width="5.625" height="2.25"/>
<rect x="13.125" y="14.25" width="4.5" height="2.25"/>
</svg>
