<?xml version="1.0" encoding="utf-8"?>
<!-- Generated by IcoMoon.io -->
<!DOCTYPE svg PUBLIC "-//W3C//DTD SVG 1.1//EN" "http://www.w3.org/Graphics/SVG/1.1/DTD/svg11.dtd">
<svg version="1.1" xmlns="http://www.w3.org/2000/svg" xmlns:xlink="http://www.w3.org/1999/xlink" width="24" height="24" viewBox="0 0 24 24">
<path fill="#000" d="M7.031 23.995l-7.027-7.027v-9.937l7.027-7.027h9.937l7.027 7.027v9.937l-7.027 7.027z"></path>
<path fill="#fff" d="M7.081 23.876l-6.957-6.957v-9.839l6.957-6.957h9.839l6.957 6.957v9.839l-6.957 6.957z"></path>
<path fill="#c0111e" d="M7.298 23.352l-6.65-6.65v-9.404l6.65-6.65h9.404l6.65 6.65v9.404l-6.65 6.65z"></path>
<path fill="#fff" d="M1.831 13.72c0 0.071 0 0.132 0.010 0.193l0.020 0.183c0.142 1.269 1.127 2.111 2.253 2.111 1.208 0 2.212-0.984 2.212-2.273 0-0.883-0.457-1.857-1.218-2.466-0.244-0.183-0.497-0.345-0.771-0.497-0.487-0.264-1.116-0.436-1.116-1.137 0-0.457 0.406-0.863 0.883-0.863 0.457 0 0.883 0.406 0.893 0.863h1.127c0-1.096-0.924-2.009-1.989-2.009-1.137 0-2.060 0.913-2.060 2.060 0 0.578 0.274 1.147 0.66 1.502 0.457 0.416 1.127 0.558 1.624 0.954 0.325 0.264 0.578 0.619 0.71 1.025 0.051 0.183 0.091 0.365 0.091 0.558 0 0.67-0.477 1.116-1.066 1.116-0.284 0-0.538-0.101-0.751-0.304-0.193-0.183-0.335-0.436-0.325-1.015h-1.187z"></path>
<path fill="#fff" d="M10.955 8.97v-1.025h-4.060v1.025h1.451v7.094h1.147v-7.094z"></path>
<path fill="#fff" d="M13.939 7.763c-0.873 0-1.634 0.548-1.918 1.35-0.162 0.467-0.406 1.624-0.406 3.156 0 1.106 0.224 2.243 0.305 2.487 0.112 0.325 0.274 0.629 0.507 0.873l0.071 0.071c0.304 0.304 0.842 0.538 1.431 0.538 0.731 0 1.4-0.396 1.725-0.964 0.538-0.924 0.629-3.177 0.629-3.41 0-1.969-0.466-2.913-0.527-3.014-0.365-0.68-1.035-1.086-1.817-1.086zM13.928 8.91c0.244 0 0.477 0.092 0.64 0.254 0.173 0.162 0.396 0.446 0.518 1.563 0.051 0.365 0.071 0.731 0.071 1.096 0 1.137-0.204 2.142-0.336 2.507-0.193 0.558-0.528 0.761-0.913 0.761-0.345 0-0.599-0.152-0.761-0.426l-0.051-0.102c-0.041-0.081-0.365-1.014-0.365-2.384 0-1.198 0.223-2.244 0.345-2.558 0.183-0.518 0.507-0.71 0.852-0.71z"></path>
<path fill="#fff" d="M17.764 7.976v8.088h1.127v-3.552h1.411c0.944 0 1.868-0.792 1.868-2.284 0-1.106-0.649-2.212-1.766-2.253h-2.639zM18.902 9.103h1.36c0.355 0 0.761 0.314 0.761 1.096 0 0.863-0.315 1.126-0.832 1.187h-1.288v-2.283z"></path>
</svg>
