<?xml version="1.0" encoding="utf-8"?>
<!-- Generated by IcoMoon.io -->
<!DOCTYPE svg PUBLIC "-//W3C//DTD SVG 1.1//EN" "http://www.w3.org/Graphics/SVG/1.1/DTD/svg11.dtd">
<svg version="1.1" xmlns="http://www.w3.org/2000/svg" xmlns:xlink="http://www.w3.org/1999/xlink" width="24" height="24" viewBox="0 0 24 24">
<path fill="#fff" d="M1.517 0.020h20.965c0.83 0 1.498 0.668 1.498 1.498v20.965c0 0.83-0.668 1.498-1.498 1.498h-20.965c-0.83 0-1.498-0.668-1.498-1.498v-20.965c0-0.83 0.668-1.498 1.498-1.498z"></path>
<path fill="#000" d="M1.517 0.394h20.965c0.622 0 1.123 0.501 1.123 1.123v20.965c0 0.622-0.501 1.123-1.123 1.123h-20.965c-0.622 0-1.123-0.501-1.123-1.123v-20.965c0-0.622 0.501-1.123 1.123-1.123z"></path>
<path fill="#fff" d="M1.517 1.018h20.965c0.277 0 0.499 0.223 0.499 0.499v20.965c0 0.277-0.223 0.499-0.499 0.499h-20.965c-0.277 0-0.499-0.223-0.499-0.499v-20.965c0-0.277 0.223-0.499 0.499-0.499z"></path>
<path fill="#000" d="M8.008 13.68c0.001-4.417 0.002-4.813 0.007-4.853 0.022-0.164 0.057-0.283 0.119-0.414 0.173-0.367 0.512-0.63 0.901-0.7 0.099-0.018-0.041-0.017 2.738-0.017 2.087-0 2.611-0.001 2.609-0.005-0.001-0.003-0.017-0.059-0.036-0.126s-0.116-0.411-0.217-0.765c-0.114-0.401-0.185-0.658-0.189-0.682-0.008-0.047-0.006-0.144 0.004-0.189 0.040-0.188 0.17-0.34 0.338-0.395 0.134-0.044 0.28-0.028 0.4 0.044 0.018 0.011 1.084 0.765 2.369 1.675s2.358 1.67 2.386 1.69c0.028 0.019 0.051 0.036 0.051 0.038s-1.076 0.766-2.392 1.699c-1.676 1.188-2.404 1.702-2.43 1.716-0.075 0.039-0.142 0.056-0.227 0.056-0.139 0-0.258-0.051-0.356-0.153-0.076-0.078-0.124-0.172-0.141-0.276-0.009-0.052-0.006-0.142 0.007-0.197 0.008-0.036 0.337-1.21 0.375-1.339 0.009-0.030 0.026-0.091 0.039-0.134s0.023-0.082 0.024-0.084c0.001-0.004-0.336-0.005-1.719-0.004-1.64 0.001-1.722 0.001-1.748 0.008-0.107 0.026-0.184 0.069-0.257 0.141-0.080 0.079-0.13 0.175-0.148 0.282-0.005 0.030-0.006 0.445-0.006 3.913v3.88h-2.5l0.001-4.81z"></path>
<path fill="#c0111e" d="M12 1.517c-5.807 0-10.483 4.675-10.483 10.483s4.675 10.483 10.483 10.483c5.807 0 10.483-4.675 10.483-10.483s-4.675-10.483-10.483-10.483zM12 3.514c4.701 0 8.486 3.785 8.486 8.486s-3.785 8.486-8.486 8.486c-4.701 0-8.486-3.785-8.486-8.486s3.785-8.486 8.486-8.486z"></path>
<path fill="#c0111e" d="M4.941 6.353l1.412-1.412 12.707 12.707-1.412 1.412-12.707-12.707z"></path>
</svg>
