<?xml version="1.0" encoding="utf-8"?>
<!-- Generated by IcoMoon.io -->
<!DOCTYPE svg PUBLIC "-//W3C//DTD SVG 1.1//EN" "http://www.w3.org/Graphics/SVG/1.1/DTD/svg11.dtd">
<svg version="1.1" xmlns="http://www.w3.org/2000/svg" xmlns:xlink="http://www.w3.org/1999/xlink" width="24" height="24" viewBox="0 0 24 24">
<path fill="#fff" d="M23.936 22.444c0 0.821-0.671 1.492-1.492 1.492h-20.889c-0.821 0-1.492-0.671-1.492-1.492v-20.889c0-0.821 0.671-1.492 1.492-1.492h20.889c0.821 0 1.492 0.671 1.492 1.492v20.889z"></path>
<path fill="#000" d="M22.444 0.436h-20.889c-0.615 0-1.119 0.504-1.119 1.119v20.889c0 0.616 0.504 1.119 1.119 1.119h20.889c0.616 0 1.119-0.504 1.119-1.119v-20.889c0-0.615-0.504-1.119-1.119-1.119zM22.941 22.444c0 0.274-0.224 0.497-0.497 0.497h-20.889c-0.274 0-0.497-0.224-0.497-0.497v-20.889c0-0.273 0.224-0.497 0.497-0.497h20.889c0.274 0 0.497 0.224 0.497 0.497v20.889z"></path>
<path fill="#000" d="M11.999 4.788c-2.747 0-4.974 2.227-4.974 4.974v3.171l-1.469-0.441c-0.047-0.015-0.096-0.022-0.148-0.022-0.275 0-0.497 0.223-0.497 0.497 0 0.106 0.033 0.204 0.090 0.285l3.267 4.716 3.268-4.716c0.056-0.081 0.090-0.179 0.090-0.285 0-0.275-0.223-0.497-0.497-0.497-0.051 0-0.101 0.008-0.148 0.022l-1.469 0.441v-3.171c0-1.373 1.113-2.487 2.487-2.487s2.487 1.113 2.487 2.487v8.206h2.487v-8.206c0-2.747-2.227-4.974-4.974-4.974z"></path>
<path fill="#bf2033" d="M11.999 1.555c-5.768 0-10.445 4.676-10.445 10.444s4.676 10.444 10.445 10.444 10.444-4.676 10.444-10.444c0-5.768-4.676-10.444-10.444-10.444zM3.544 11.999c0-1.976 0.678-3.794 1.814-5.234l11.875 11.875c-1.44 1.136-3.258 1.814-5.234 1.814-4.67 0-8.455-3.785-8.455-8.455zM18.64 17.233l-11.875-11.875c1.44-1.136 3.258-1.814 5.234-1.814 4.67 0 8.455 3.785 8.455 8.455 0 1.976-0.678 3.794-1.814 5.234z"></path>
</svg>
