<?xml version="1.0" encoding="utf-8"?>
<!-- Generated by IcoMoon.io -->
<!DOCTYPE svg PUBLIC "-//W3C//DTD SVG 1.1//EN" "http://www.w3.org/Graphics/SVG/1.1/DTD/svg11.dtd">
<svg version="1.1" xmlns="http://www.w3.org/2000/svg" xmlns:xlink="http://www.w3.org/1999/xlink" width="24" height="24" viewBox="0 0 24 24">
<path fill="#fff" d="M2.465 22.726c0 0.678 0.549 1.195 1.228 1.195h16.607c0.678 0 1.227-0.517 1.227-1.195v-21.421c0-0.679-0.549-1.228-1.227-1.228h-16.607c-0.678 0-1.228 0.549-1.228 1.228v21.421z"></path>
<path fill="#000" d="M14.549 18.816h0.323l-1.357 3.167h-0.323l1.357-3.167zM15.422 18.816h0.614v1.002l0.129-0.097 0.258-0.13 0.162-0.032h0.323l0.13 0.032 0.097 0.065 0.129 0.065 0.097 0.129 0.065 0.097 0.065 0.129 0.065 0.161v1.745h-0.582v-1.422l-0.032-0.097-0.033-0.097-0.032-0.097-0.065-0.064-0.097-0.065-0.097-0.032h-0.194l-0.097 0.032-0.097 0.032-0.065 0.065-0.065 0.097-0.032 0.097-0.032 0.129v1.422h-0.614v-3.167zM8.475 19.624l-0.872 0.904 0.937 1.454h-0.743l-0.614-1.034-0.291 0.226v0.808h-0.614v-3.167h0.614v1.68l0.839-0.872h0.743zM10.801 19.624l0.129 0.064 0.097 0.097 0.097 0.097 0.097-0.097 0.097-0.097 0.129-0.064 0.129-0.065 0.162-0.033h0.129l0.259 0.065 0.129 0.065 0.097 0.065 0.097 0.097 0.097 0.13 0.065 0.097 0.032 0.162v1.777h-0.614v-1.615l-0.032-0.097-0.065-0.064-0.065-0.065-0.097-0.065h-0.194l-0.097 0.033-0.064 0.032-0.065 0.097-0.065 0.065-0.032 0.097v1.583h-0.646v-1.615l-0.032-0.097-0.065-0.064-0.097-0.065-0.065-0.065h-0.193l-0.097 0.033-0.065 0.032-0.097 0.097-0.033 0.065-0.032 0.097-0.032 0.097v1.487h-0.582v-2.358h0.549l0.032 0.161 0.162-0.097 0.129-0.064 0.161-0.065h0.42l0.129 0.065zM3.273 22.693c0 0.259 0.194 0.42 0.42 0.42h16.64c0.226 0 0.388-0.161 0.388-0.42v-21.421c0-0.226-0.162-0.388-0.388-0.388h-16.64c-0.226 0-0.42 0.161-0.42 0.388v21.421zM2.788 22.693v-21.421c0-0.485 0.42-0.872 0.904-0.872h16.64c0.485 0 0.872 0.388 0.872 0.872v21.421c0 0.517-0.388 0.905-0.872 0.905h-16.64c-0.484 0-0.904-0.387-0.904-0.905v0z"></path>
<path fill="#000" d="M11.432 2.471h0.354v2.355h-0.354v-2.355zM7.755 3.761c0 0 0 0.032 0.032 0.032h0.42v-0.032l-0.194-0.612c0-0.033-0.032-0.033-0.032-0.033s0 0.033-0.032 0.033l-0.194 0.58v0.032zM15.078 2.471h0.354v1.645c0.032 0.161 0.128 0.29 0.258 0.354 0.033 0.032 0.129 0.065 0.193 0.065 0.226 0 0.419-0.193 0.419-0.419v-1.645h0.355v1.677c0 0.29-0.193 0.58-0.516 0.71-0.097 0.032-0.193 0.032-0.291 0.032-0.484 0-0.773-0.451-0.773-0.71v-1.709zM9.336 4.826l0.613-1.194v-0.032l-0.549-1.129h0.387l0.355 0.678h0.032l0.323-0.678h0.419l-0.549 1.129v0.032l0.58 1.194h-0.419l-0.355-0.742h-0.032c0 0 0 0-0.033 0l-0.355 0.742h-0.419zM12.529 4.826v-2.355h0.356l0.547 1.322h0.033l0.516-1.322h0.387v2.355h-0.387v-1.258c-0.033 0-0.033 0.032-0.033 0.032l-0.516 1.226-0.483-1.258h-0.032c0 0-0.032 0-0.032 0.032v1.226h-0.356zM4.788 4.826v-2.355h0.387l0.516 1.322h0.032l0.516-1.322h0.387v2.355h-0.387v-1.258c-0.033 0-0.033 0.032-0.033 0.032l-0.516 1.226-0.484-1.258h-0.032c0 0-0.033 0-0.033 0.032v1.226h-0.355zM17.368 4.826v-2.355h0.387l0.516 1.322h0.065l0.516-1.322h0.354v2.355h-0.354v-1.226c0-0.032-0.032-0.032-0.032-0.032s0 0.032-0.032 0.032l-0.484 1.226-0.516-1.258c-0.032 0-0.032 0-0.032 0.032v1.226h-0.387zM6.981 4.826l0.806-2.355h0.387l0.806 2.355h-0.387l-0.226-0.646c0 0 0-0.032-0.033-0.032h-0.71c0 0 0 0.032-0.032 0.032l-0.226 0.646h-0.387z"></path>
<path fill="#000" d="M4.391 11.029v-0.955c0.443-0.020 0.753-0.049 0.93-0.089 0.282-0.062 0.512-0.187 0.689-0.374 0.121-0.128 0.213-0.299 0.276-0.512 0.036-0.128 0.054-0.223 0.054-0.285h1.166v7.135h-1.437v-4.92h-1.678zM9.264 14.547c0.2-0.476 0.672-0.979 1.417-1.511 0.646-0.463 1.064-0.794 1.255-0.994 0.292-0.312 0.438-0.653 0.438-1.023 0-0.302-0.084-0.553-0.251-0.753s-0.407-0.3-0.718-0.3c-0.426 0-0.717 0.159-0.871 0.477-0.089 0.184-0.141 0.476-0.157 0.876h-1.363c0.023-0.607 0.133-1.097 0.33-1.471 0.374-0.712 1.038-1.068 1.993-1.068 0.754 0 1.355 0.209 1.801 0.627s0.669 0.972 0.669 1.661c0 0.528-0.157 0.997-0.472 1.407-0.207 0.272-0.546 0.576-1.019 0.91l-0.561 0.399c-0.351 0.249-0.591 0.43-0.721 0.541s-0.239 0.241-0.327 0.389h3.115v1.235h-4.886c0.013-0.512 0.123-0.979 0.33-1.402v0zM16.172 14.333c0.134 0.435 0.41 0.652 0.827 0.652s0.69-0.217 0.819-0.652c0.13-0.435 0.194-1.062 0.194-1.882 0-0.859-0.065-1.496-0.194-1.909s-0.403-0.62-0.819-0.62c-0.417 0-0.692 0.207-0.827 0.62s-0.202 1.050-0.202 1.909c0 0.82 0.067 1.447 0.202 1.882v0zM18.91 9.725c0.366 0.64 0.549 1.548 0.549 2.726s-0.183 2.085-0.549 2.721c-0.366 0.636-1.003 0.955-1.912 0.955s-1.546-0.318-1.912-0.955c-0.366-0.636-0.549-1.543-0.549-2.721s0.183-2.086 0.549-2.726c0.366-0.64 1.003-0.959 1.912-0.959s1.546 0.32 1.912 0.959v0z"></path>
</svg>
