<?xml version="1.0" encoding="utf-8"?>
<!-- Generated by IcoMoon.io -->
<!DOCTYPE svg PUBLIC "-//W3C//DTD SVG 1.1//EN" "http://www.w3.org/Graphics/SVG/1.1/DTD/svg11.dtd">
<svg version="1.1" xmlns="http://www.w3.org/2000/svg" xmlns:xlink="http://www.w3.org/1999/xlink" width="24" height="24" viewBox="0 0 24 24">
<path fill="#fff" d="M0.088 0.882c0-0.439 0.356-0.795 0.795-0.795h22.237c0.439 0 0.795 0.356 0.795 0.795v22.237c0 0.439-0.356 0.795-0.795 0.795h-22.237c-0.439 0-0.795-0.356-0.795-0.795v-22.237z"></path>
<path fill="#000" d="M0.456 1.052c0-0.329 0.267-0.596 0.596-0.596h21.926c0.329 0 0.596 0.267 0.596 0.596v21.926c0 0.329-0.267 0.596-0.596 0.596h-21.926c-0.329 0-0.596-0.267-0.596-0.596v-21.926z"></path>
<path fill="#fff" d="M1.041 1.338c0-0.164 0.133-0.298 0.298-0.298h21.305c0.165 0 0.298 0.134 0.298 0.298v21.305c0 0.165-0.133 0.298-0.298 0.298h-21.305c-0.165 0-0.298-0.133-0.298-0.298v-21.305z"></path>
<path fill="#c0111e" d="M12.029 22.324c5.705 0 10.33-4.625 10.33-10.33s-4.625-10.33-10.33-10.33c-5.705 0-10.329 4.625-10.329 10.33s4.625 10.33 10.329 10.33z"></path>
<path fill="#fff" d="M18.369 17.101c1.122-1.393 1.795-3.164 1.795-5.092 0-4.484-3.635-8.12-8.12-8.12-1.983 0-3.692 0.603-5.102 1.784l11.428 11.427z"></path>
<path fill="#fff" d="M17.255 18.223l-11.411-11.411-0.033-0.019c-1.217 1.42-1.887 3.199-1.887 5.215 0 4.484 3.635 8.12 8.12 8.12 1.996 0 3.823-0.72 5.237-1.914l-0.026 0.009z"></path>
<path fill="#000" d="M9.186 10.341l-0.227 0.437c-0.243-0.083-0.48-0.168-0.745-0.198-1.035-0.091-2.008 0.377-2.55 1.246-0.599 0.948-0.52 2.231 0.14 3.126 0.618 0.811 1.558 1.182 2.521 1.042 1.005-0.118 1.9-0.935 2.166-1.886 0.333-1.103-0.072-2.302-0.978-3.004l0.058-0.169 0.99 0.786c0.019-0.007 0.021-0.028 0.017-0.047-0.444-0.421-0.903-0.87-1.316-1.287l-0.076-0.047zM7.881 11.29c0.091-0.002 0.187 0.007 0.279 0.017 0.178 0.027 0.369 0.079 0.536 0.151l-0.739 1.339c-0.099-0.001-0.239 0.037-0.326 0.128-0.152 0.159-0.191 0.316-0.146 0.536 0.057 0.167 0.219 0.297 0.39 0.32 0.197 0.015 0.363-0.078 0.466-0.245 0.080-0.117 0.031-0.271 0.047-0.408l0.792-1.351c0.61 0.478 0.84 1.309 0.646 2.067-0.144 0.698-0.859 1.316-1.549 1.426-0.804 0.129-1.605-0.221-2.026-0.937-0.402-0.633-0.353-1.584 0.064-2.195 0.371-0.527 0.933-0.838 1.566-0.85z"></path>
<path fill="#000" d="M11.764 7.692v0.527h-1.277c-0.284 0.099-0.138 0.36-0.251 0.585l-0.466-0.468c0.083-0.273 0.039-0.454 0.335-0.598l0.167-0.045h1.493z"></path>
<path fill="#000" d="M12.525 13.693c-0.019 0.14 0.030 0.284 0.102 0.397 0.114 0.167 0.292 0.303 0.5 0.307 0.068 0.087-0.136 0.114-0.091 0.239 0.061 0.216 0.285 0.049 0.428 0.072 0.042 0.008 0.091-0.042 0.061-0.084l-1.001-0.932z"></path>
<path fill="#000" d="M13.674 8.775c-0.057 0.030-0.107 0.097-0.111 0.169 0.015 0.065 0.034 0.131 0.087 0.169 0.265 0.095 0.55 0.148 0.85 0.163l0.029 0.029-0.087 0.163h-3.499l0.477 0.512h2.876l-0.798 2.084 0.326 0.349 0.862-2.317 0.559 0.908c-0.584 0.455-0.955 1.046-1.019 1.77 0.254 0.292 0.523 0.561 0.815 0.838l1.397-0.169c0.083 0.084 0.173 0.152 0.279 0.175 0.152 0.023 0.292-0.029 0.402-0.128 0.076-0.095 0.114-0.209 0.111-0.338-0.004-0.183-0.119-0.349-0.285-0.402l-0.955-1.485c0.163-0.064 0.322-0.129 0.501-0.151 0.648-0.076 1.299 0.119 1.758 0.635 0.542 0.58 0.742 1.506 0.419 2.241-0.33 0.743-1.155 1.295-1.985 1.258l0.547 0.541c0.884-0.121 1.713-0.831 2.020-1.665 0.326-0.959 0.136-2.003-0.536-2.765-0.675-0.732-1.667-1.047-2.649-0.763-0.152 0.042-0.291 0.102-0.448 0.163l-0.774-1.182 0.14-0.303c0.167-0.076 0.512 0.072 0.501-0.239-0.015-0.061-0.058-0.115-0.111-0.146-0.561 0.031-1.131-0.078-1.7-0.116zM15.566 11.54l0.856 1.356-1.618 0.291c-0.042-0.629 0.239-1.242 0.763-1.648z"></path>
</svg>
