<?xml version="1.0" encoding="utf-8"?>
<!-- Generated by IcoMoon.io -->
<!DOCTYPE svg PUBLIC "-//W3C//DTD SVG 1.1//EN" "http://www.w3.org/Graphics/SVG/1.1/DTD/svg11.dtd">
<svg version="1.1" xmlns="http://www.w3.org/2000/svg" xmlns:xlink="http://www.w3.org/1999/xlink" width="24" height="24" viewBox="0 0 24 24">
<path fill="#ffd520" d="M11.444 23.766c0.307 0.307 0.804 0.307 1.112 0l11.21-11.21c0.307-0.307 0.307-0.804 0-1.111l-11.21-11.21c-0.307-0.307-0.804-0.307-1.111 0l-11.21 11.21c-0.307 0.307-0.307 0.804 0 1.111l11.21 11.21z"></path>
<path fill="#000" d="M20.214 13.369l1.369 1.369 1.369-1.369-1.369-1.369z"></path>
<path fill="#000" d="M17.476 16.107l1.369 1.369 1.369-1.369-1.369-1.369z"></path>
<path fill="#000" d="M14.738 18.845l1.369 1.369 1.369-1.369-1.369-1.369z"></path>
<path fill="#000" d="M12 21.583l1.369 1.369 1.369-1.369-1.369-1.369z"></path>
<path fill="#000" d="M20.214 10.631l1.369 1.369 1.369-1.369-1.369-1.369z"></path>
<path fill="#000" d="M17.442 13.335l1.403 1.403 1.369-1.369-1.403-1.403z"></path>
<path fill="#000" d="M14.704 16.073l1.403 1.403 1.369-1.369-1.403-1.403z"></path>
<path fill="#000" d="M11.966 18.811l1.403 1.403 1.369-1.369-1.403-1.403z"></path>
<path fill="#000" d="M9.262 21.583l1.369 1.369 1.369-1.369-1.369-1.369z"></path>
<path fill="#000" d="M17.442 10.665l1.369 1.369 1.403-1.403-1.369-1.369z"></path>
<path fill="#000" d="M9.262 18.845l1.369 1.369 1.403-1.403-1.369-1.369z"></path>
<path fill="#000" d="M17.476 7.893l1.369 1.369 1.369-1.369-1.369-1.369z"></path>
<path fill="#000" d="M6.524 18.845l1.369 1.369 1.369-1.369-1.369-1.369z"></path>
<path fill="#000" d="M14.704 7.927l1.369 1.369 1.403-1.403-1.369-1.369z"></path>
<path fill="#000" d="M6.524 16.107l1.369 1.369 1.403-1.403-1.369-1.369z"></path>
<path fill="#000" d="M14.738 5.155l1.369 1.369 1.369-1.369-1.369-1.369z"></path>
<path fill="#000" d="M3.786 16.107l1.369 1.369 1.369-1.369-1.369-1.369z"></path>
<path fill="#000" d="M11.966 5.189l1.369 1.369 1.403-1.403-1.369-1.369z"></path>
<path fill="#000" d="M3.786 13.369l1.369 1.369 1.403-1.403-1.369-1.369z"></path>
<path fill="#000" d="M12 2.417l1.369 1.369 1.369-1.369-1.369-1.369z"></path>
<path fill="#000" d="M9.262 5.155l1.403 1.403 1.369-1.369-1.403-1.403z"></path>
<path fill="#000" d="M6.524 7.893l1.403 1.403 1.369-1.369-1.403-1.403z"></path>
<path fill="#000" d="M3.786 10.631l1.403 1.403 1.369-1.369-1.403-1.403z"></path>
<path fill="#000" d="M1.047 13.369l1.369 1.369 1.369-1.369-1.369-1.369z"></path>
<path fill="#000" d="M9.262 2.417l1.369 1.369 1.369-1.369-1.369-1.369z"></path>
<path fill="#000" d="M6.524 5.155l1.369 1.369 1.369-1.369-1.369-1.369z"></path>
<path fill="#000" d="M3.786 7.893l1.369 1.369 1.369-1.369-1.369-1.369z"></path>
<path fill="#000" d="M1.047 10.631l1.369 1.369 1.369-1.369-1.369-1.369z"></path>
<path fill="#000" d="M5.155 12l6.845-6.845 6.845 6.845-6.845 6.845zM5.292 12l6.708 6.708 6.708-6.708-6.708-6.708z"></path>
<path fill="#000" d="M16.068 12l-2.767-1.781c-0.134-0.090-0.316-0.054-0.406 0.081-0.056 0.084-0.063 0.187-0.027 0.275l0.27 0.694-4.432 0v1.465l4.432-0-0.27 0.694c-0.036 0.087-0.029 0.191 0.027 0.275 0.090 0.134 0.272 0.171 0.406 0.081z"></path>
</svg>
