<?xml version="1.0" encoding="utf-8"?>
<!-- Generated by IcoMoon.io -->
<!DOCTYPE svg PUBLIC "-//W3C//DTD SVG 1.1//EN" "http://www.w3.org/Graphics/SVG/1.1/DTD/svg11.dtd">
<svg version="1.1" xmlns="http://www.w3.org/2000/svg" xmlns:xlink="http://www.w3.org/1999/xlink" width="24" height="24" viewBox="0 0 24 24">
<path fill="#ffdb00" d="M23.643 11.136c0.477 0.477 0.477 1.25-0 1.727l-10.779 10.779c-0.477 0.477-1.25 0.477-1.727 0l-10.779-10.779c-0.477-0.477-0.477-1.25 0-1.727l10.779-10.779c0.477-0.477 1.25-0.477 1.727 0l10.779 10.779z"></path>
<path fill="#000" d="M0.545 12.634c-0.341-0.341-0.341-0.893 0-1.234l10.839-10.839c0.341-0.341 0.893-0.341 1.234 0l10.839 10.839c0.341 0.341 0.341 0.893 0 1.234l-10.839 10.839c-0.341 0.341-0.893 0.341-1.234 0l-10.839-10.839z"></path>
<path fill="#ffdb00" d="M0.862 12.304c-0.166-0.166-0.166-0.435 0-0.6l10.839-10.839c0.166-0.166 0.435-0.166 0.6 0l10.839 10.839c0.166 0.166 0.166 0.435 0 0.6l-10.839 10.838c-0.166 0.166-0.435 0.166-0.6 0l-10.839-10.838z"></path>
<path fill="#000" d="M16.91 16.241v-0.848h-1.241v0.848h1.241zM16.91 14.115v-0.866h-1.241v0.866h1.241zM16.91 11.98v-1.1l-1.318 0.378c0.033 0.213 0.055 0.451 0.066 0.722h1.251zM16.104 9.407l-0.81-1.338-0.883 1.172 0.048 0.045c0.271 0.256 0.489 0.485 0.661 0.73l0.984-0.609zM13.99 7.869h-1.097l-0.116 0.595c0.285 0.053 0.54 0.121 0.78 0.221l0.434-0.816zM12 7.688h-0.702l0.15 0.883c0.1-0.019 0.157-0.027 0.258-0.036 0.114-0.011 0.18-0.014 0.294-0.013 0.115-0.001 0.18 0.002 0.295 0.013 0.101 0.010 0.158 0.018 0.258 0.036l0.15-0.883h-0.702zM10.011 7.869l0.434 0.816c0.24-0.1 0.494-0.168 0.78-0.221l-0.116-0.595h-1.097zM7.897 9.407l0.984 0.609c0.172-0.245 0.39-0.474 0.661-0.73l0.048-0.045-0.883-1.172-0.81 1.338zM7.091 11.98h1.251c0.012-0.271 0.033-0.509 0.066-0.722l-1.318-0.378v1.1zM7.091 14.115h1.241v-0.866h-1.241v0.866zM7.091 15.181h1.241v-0.854h-1.241v0.854zM12 16.453h-5.121v-5.803l1.82-2.993h2.381v-0.172h1.841v0.172h2.381l1.82 2.993v5.803h-5.121zM7.091 16.241h1.241v-0.848h-1.241v0.848zM7.091 13.037h1.241v-0.534c0-0.108 0.001-0.211 0.003-0.31h-1.245v0.845zM7.132 10.671l1.315 0.377c0.070-0.335 0.174-0.607 0.32-0.854l-0.979-0.606-0.656 1.083zM8.826 7.874l0.926 1.229c0.165-0.134 0.33-0.241 0.5-0.328l-0.481-0.905-0.945 0.004zM15.175 7.874l-0.944-0.004-0.481 0.905c0.17 0.087 0.334 0.194 0.5 0.328l0.926-1.229zM16.869 10.671l-0.656-1.083-0.979 0.606c0.146 0.247 0.25 0.518 0.32 0.854l1.315-0.377zM16.91 13.037v-0.845h-1.245c0.002 0.099 0.003 0.203 0.003 0.31v0.534h1.241zM16.91 15.181v-0.854h-1.241v0.854h1.241zM12 9.095c0.809-0 1.333 0.196 1.943 0.728 0.671 0.585 0.954 1.159 1.008 2.047v4.371h0.505v-4.486c-0.066-0.951-0.348-1.553-1.035-2.214-0.537-0.516-0.963-0.739-1.694-0.883l-0.031 0.156c-0.144-0.038-0.227-0.054-0.374-0.073-0.125-0.015-0.196-0.020-0.321-0.021-0.126 0.001-0.197 0.006-0.321 0.021-0.147 0.018-0.231 0.035-0.374 0.073l-0.031-0.156c-0.731 0.145-1.157 0.367-1.694 0.883-0.687 0.66-0.969 1.263-1.035 2.214v4.486h0.505v-4.371c0.054-0.888 0.337-1.463 1.008-2.047 0.61-0.532 1.134-0.728 1.943-0.728z"></path>
</svg>
