<?xml version="1.0" encoding="utf-8"?>
<!-- Generated by IcoMoon.io -->
<!DOCTYPE svg PUBLIC "-//W3C//DTD SVG 1.1//EN" "http://www.w3.org/Graphics/SVG/1.1/DTD/svg11.dtd">
<svg version="1.1" xmlns="http://www.w3.org/2000/svg" xmlns:xlink="http://www.w3.org/1999/xlink" width="24" height="24" viewBox="0 0 24 24">
<path fill="#ffd520" d="M11.364 23.715l-11.079-11.079c-0.177-0.177-0.265-0.406-0.265-0.636s0.088-0.459 0.265-0.636l11.079-11.079c0.177-0.177 0.406-0.265 0.636-0.265s0.459 0.088 0.636 0.265l11.079 11.079c0.177 0.177 0.265 0.406 0.265 0.636s-0.088 0.459-0.265 0.636l-11.079 11.079c-0.177 0.177-0.406 0.265-0.636 0.265s-0.459-0.088-0.636-0.265z"></path>
<path fill="#000" d="M11.472 23.603c0.292 0.292 0.764 0.292 1.057 0l11.076-11.076c0.292-0.292 0.292-0.765 0-1.058l-11.075-11.075c-0.292-0.292-0.767-0.292-1.059 0l-11.075 11.075c-0.292 0.292-0.292 0.766 0 1.058l11.076 11.076z"></path>
<path fill="#ffd520" d="M11.716 23.357l-11.075-11.076c-0.156-0.156-0.156-0.41 0-0.567l11.076-11.076c0.156-0.156 0.411-0.156 0.567 0l11.076 11.076c0.156 0.157 0.156 0.411 0 0.567l-11.076 11.076c-0.156 0.157-0.41 0.157-0.567 0h-0.001z"></path>
<path fill="#000" d="M14.669 17.555h2.135v-4.462l-1.724-4.308v-3.948h-2.137v4.43l1.724 4.334 0.001 3.954z"></path>
<path fill="#000" d="M9.314 17.538v-3.953l1.724-4.335v-4.429h-2.136v3.948l-1.724 4.308v4.46h2.135z"></path>
</svg>
