<?xml version="1.0" encoding="utf-8"?>
<!-- Generated by IcoMoon.io -->
<!DOCTYPE svg PUBLIC "-//W3C//DTD SVG 1.1//EN" "http://www.w3.org/Graphics/SVG/1.1/DTD/svg11.dtd">
<svg version="1.1" xmlns="http://www.w3.org/2000/svg" xmlns:xlink="http://www.w3.org/1999/xlink" width="24" height="24" viewBox="0 0 24 24">
<path fill="#ef7b00" d="M11.178 23.589l-10.822-10.789-0.153-0.175-0.087-0.175-0.055-0.24-0.033-0.207 0.033-0.196 0.055-0.24 0.087-0.175 0.153-0.175 10.822-10.8 0.175-0.142 0.175-0.087 0.24-0.055 0.207-0.033 0.207 0.033 0.229 0.055 0.175 0.087 0.175 0.142 10.833 10.8 0.142 0.175 0.087 0.175 0.065 0.24 0.022 0.196-0.022 0.207-0.065 0.207-0.087 0.207-0.142 0.175-10.833 10.789-0.175 0.153-0.175 0.087-0.229 0.055-0.207 0.033-0.207-0.033-0.24-0.055-0.175-0.087-0.175-0.153z"></path>
<path fill="#000" d="M11.298 23.447l0.175 0.12 0.142 0.087 0.175 0.055h0.36l0.175-0.055 0.142-0.087 0.185-0.12 10.789-10.767 0.12-0.175 0.087-0.142 0.055-0.175v-0.36l-0.055-0.175-0.087-0.142-0.12-0.175-10.789-10.767-0.185-0.12-0.142-0.087-0.175-0.055h-0.36l-0.175 0.055-0.142 0.087-0.175 0.12-10.8 10.767-0.12 0.175-0.087 0.142-0.055 0.175v0.36l0.055 0.175 0.087 0.142 0.12 0.175 10.8 10.767z"></path>
<path fill="#ef7b00" d="M11.56 23.207l-10.822-10.789-0.065-0.087-0.055-0.087-0.033-0.12-0.022-0.12 0.022-0.109 0.033-0.12 0.055-0.087 0.065-0.087 10.822-10.8 0.175-0.109 0.24-0.065 0.109 0.033 0.12 0.033 0.175 0.109 10.833 10.8 0.109 0.175 0.033 0.12 0.033 0.109-0.065 0.24-0.109 0.175-10.833 10.789-0.087 0.065-0.087 0.055-0.12 0.033-0.109 0.033-0.24-0.065-0.087-0.055-0.087-0.065z"></path>
<path fill="#000" d="M10.502 14.676v0.087l8.88-1.058-0.033-0.316-8.051 1.167 6.676-1.844-0.065-0.295-6.698 2.051 6.971-3.076-0.153-0.327-7.527 3.611z"></path>
<path fill="#000" d="M4.851 13.825h4.593v0.851l0.022 0.033 0.033 0.022 0.065 0.033h0.611l0.065-0.033 0.055-0.055v-0.818h0.764l0.055-0.033 0.065-0.033 0.033-0.022v-0.709l-0.065-0.055-0.033-0.033h-0.087v-1.375l-0.262-0.24-0.502-1.789-0.382-0.087-0.349-0.055-0.349-0.065-0.393-0.055-0.349-0.033-0.327-0.022h-1.964l-0.36 0.022-0.316 0.033-0.36 0.055-0.382 0.065-0.349 0.055-0.382 0.087-0.502 1.789-0.262 0.24v1.375h-0.065l-0.055 0.033-0.033 0.055-0.022 0.033v0.676l0.022 0.022 0.065 0.033 0.055 0.033h0.764v0.818l0.033 0.033 0.033 0.022 0.055 0.033h0.622l0.055-0.033 0.033-0.022 0.022-0.033 0.033-0.055v-0.796z"></path>
<path fill="#ef7b00" d="M9.967 11.338h-5.673l0.207-1.56v-0.033l0.033-0.022 0.055-0.033h5.116l0.055 0.055v0.033l0.207 1.56z"></path>
<path fill="#000" d="M20.789 10.684h-0.022l-0.065-0.022h-0.109l-0.033 0.022-0.033 0.033-0.022 0.065-0.033 0.022-0.12 0.12-0.055 0.033-0.065 0.055-0.055 0.033-0.033 0.022-0.055 0.033v0.207l0.055 0.087 0.065 0.087 0.022 0.087 0.087 0.055 0.12 0.12 0.065 0.033h0.055l0.055-0.033 0.065-0.022 0.055-0.065 0.12-0.12 0.033-0.055 0.055-0.087 0.033-0.087 0.055-0.033 0.033-0.055 0.055-0.065 0.065-0.109-0.033-0.065-0.033-0.022-0.055-0.065-0.087-0.055-0.185-0.153z"></path>
<path fill="#000" d="M20.091 13.564l0.055 0.055 0.065 0.033h0.055l0.033 0.033 0.142-0.033h0.033l0.055-0.055 0.033-0.065 0.055-0.022 0.033-0.065 0.055-0.033 0.12-0.142 0.033-0.087v-0.295l-0.065-0.349-0.022-0.065-0.065-0.022h-0.109l-0.207 0.055-0.065-0.033h-0.055l-0.055 0.033-0.065 0.033-0.12 0.142v0.12l-0.022 0.12-0.033 0.087-0.055 0.055-0.033 0.153v0.109l0.055 0.065 0.033 0.022 0.12 0.153z"></path>
<path fill="#000" d="M17.058 11.044h0.087l0.087-0.033 0.065-0.033 0.087-0.022 0.175-0.175h0.055v-0.033l0.033-0.033v-0.055l-0.033-0.065v-0.055l-0.022-0.033-0.033-0.022-0.087-0.065h-0.087l-0.087-0.022-0.087-0.033h-0.24l-0.175 0.033h-0.065l-0.087 0.087v0.055l0.033 0.12v0.087l-0.033 0.033v0.055l0.033 0.033 0.033 0.022 0.022 0.065 0.033 0.022 0.207 0.065h0.087z"></path>
<path fill="#000" d="M19.033 13.095l0.022-0.033v-0.022l0.033-0.033-0.033-0.065 0.033-0.284v-0.087l-0.033-0.065-0.055-0.055h-0.087l-0.033-0.033h-0.055l-0.033-0.033h-0.055l-0.033 0.033-0.033 0.055-0.022 0.065-0.065 0.055-0.055 0.033-0.087 0.033-0.065 0.055-0.022 0.055-0.033 0.033v0.175l0.033 0.12 0.055 0.033h0.055l0.033 0.022h0.065l0.055 0.065 0.055 0.022h0.087l0.065 0.033 0.207-0.175z"></path>
<path fill="#000" d="M18.531 12.156l0.033-0.033h0.055l0.033-0.022 0.022-0.033 0.12-0.12 0.065-0.12 0.022-0.109 0.12-0.185 0.033-0.022v-0.12l-0.087-0.033h-0.033l-0.033-0.022-0.087-0.033-0.055 0.033-0.087 0.055-0.065 0.055-0.055 0.065-0.033 0.087-0.033 0.055-0.055 0.065-0.055 0.022-0.033 0.033-0.055 0.12v0.175l0.022 0.033h0.033l0.033 0.022h0.055l0.12 0.033z"></path>
<path fill="#000" d="M18.651 9.865h0.055l0.055-0.033 0.033-0.022h0.033l0.033-0.033h0.142l0.055-0.033 0.065-0.109v-0.153l-0.033-0.087-0.033-0.055-0.109-0.065-0.065-0.022h-0.175l-0.055 0.022-0.207 0.12-0.033 0.033h-0.033l-0.022 0.033-0.033 0.022v0.207l0.033 0.055 0.022 0.065 0.065 0.022 0.055 0.033h0.153z"></path>
<path fill="#000" d="M19.535 10.662v-0.087l-0.033-0.065-0.033-0.087-0.087-0.087-0.24-0.087h-0.284l-0.065 0.087-0.055 0.087v0.207l0.022 0.12 0.098 0.087 0.087 0.033h0.055l0.087 0.022h0.087l0.065-0.022h0.087l0.022-0.033 0.033-0.033 0.033-0.022 0.12-0.12z"></path>
<path fill="#000" d="M19.884 12.276l0.033-0.033 0.022-0.055 0.033-0.065 0.033-0.087-0.033-0.055v-0.087l-0.055-0.087-0.065-0.065-0.055-0.022-0.087-0.033-0.065 0.033h-0.022l-0.065 0.022-0.022 0.065-0.065 0.055v0.087l-0.087 0.087-0.055 0.065-0.065 0.055v0.12l0.065 0.109 0.087 0.033h0.087l0.055-0.033 0.087-0.055 0.12-0.033 0.12-0.022z"></path>
<path fill="#000" d="M21.498 12.418l0.033-0.055 0.033-0.087v-0.087l-0.033-0.12-0.033-0.087v-0.033l-0.055-0.055-0.065-0.033-0.087-0.055-0.087-0.033h-0.055v0.033h-0.033l-0.12 0.175-0.022 0.022-0.033 0.065-0.033 0.055v0.153l0.033 0.022 0.033 0.033 0.022 0.033v0.022l0.12 0.12 0.065 0.033 0.087 0.033h0.087l0.142-0.153z"></path>
</svg>
