<?xml version="1.0" encoding="utf-8"?>
<!-- Generated by IcoMoon.io -->
<!DOCTYPE svg PUBLIC "-//W3C//DTD SVG 1.1//EN" "http://www.w3.org/Graphics/SVG/1.1/DTD/svg11.dtd">
<svg version="1.1" xmlns="http://www.w3.org/2000/svg" xmlns:xlink="http://www.w3.org/1999/xlink" width="24" height="24" viewBox="0 0 24 24">
<path fill="#ffd93d" d="M23.651 11.154l0.15 0.199 0.199 0.398v0.448l-0.199 0.398-0.15 0.15-11.004 11.053-0.25 0.1-0.198 0.1h-0.398l-0.398-0.2-0.2-0.149-11.004-11.054-0.2-0.398v-0.448l0.2-0.398 0.149-0.199 10.855-10.855 0.2-0.149 0.199-0.1 0.2-0.050h0.398l0.198 0.050 0.25 0.1z"></path>
<path fill="#000" d="M23.601 11.502l0.050 0.149 0.049 0.199v0.299l-0.1 0.299-0.149 0.1-10.954 11.004-0.149 0.050-0.199 0.1h-0.299l-0.149-0.1-0.149-0.050-11.005-11.004-0.15-0.1-0.099-0.299v-0.299l0.049-0.199 0.050-0.149 0.149-0.099 11.004-11.005 0.299-0.1h0.299l0.199 0.050 0.149 0.050 0.1 0.1 10.855 10.905 0.149 0.1zM23.154 11.701l-10.905-10.905-0.099-0.050-0.15-0.050-0.149 0.050-0.1 0.050-10.905 10.905-0.1 0.149-0.050 0.149 0.050 0.149 11.104 11.104h0.299l11.104-11.104 0.049-0.149-0.049-0.149-0.1-0.149z"></path>
<path fill="#000" d="M12.947 6.473l1.693 0.498h0.149l0.099-0.050 0.050-0.149-0.050-0.149-2.937-4.183-2.938 4.033-0.050 0.149v0.1l0.149 0.1h0.15l1.693-0.349v0.647l-0.050 0.149v0.249l-0.249 0.498-0.1 0.249-0.149 0.199-0.548 0.548-0.149 0.1-0.149 0.149-0.299 0.398-0.15 0.249-0.050 0.199-0.099 0.249-0.050 0.199-0.050 0.249v0.647l0.050 0.349 0.1 0.349 0.149 0.349 0.199 0.299 0.249 0.299 0.249 0.249 0.349 0.149 2.291 1.046 0.149 0.050 0.198 0.2 0.15 0.249 0.1 0.249v0.299l-0.1 0.149-0.049 0.149-0.15 0.15-0.149 0.199-0.2 0.199-0.249 0.199-0.1 0.050-0.050 0.050-0.1 0.049-0.149 0.15-0.149 0.1-0.149 0.149-0.199 0.249-0.299 0.299-0.149 0.199-0.199 0.498-0.1 0.299v0.299l-0.050 0.349v1.046h2.041v-1.295l0.199-0.299 0.149-0.199 0.199-0.149 0.299-0.199 0.298-0.249 0.299-0.298 0.2-0.249 0.199-0.199 0.199-0.249 0.298-0.598 0.101-0.299 0.099-0.349v-0.697l-0.050-0.298-0.1-0.299-0.099-0.249-0.1-0.299-0.149-0.249-0.647-0.648-0.349-0.199-0.797-0.398-0.448-0.149-0.398-0.2-0.399-0.149-0.349-0.199-0.149-0.1-0.149-0.149-0.050-0.149v-0.199l0.050-0.199 0.448-0.598 0.299-0.299 0.249-0.299 0.299-0.349 0.198-0.349 0.25-0.448 0.149-0.498 0.1-0.548 0.050-0.647z"></path>
</svg>
