<?xml version="1.0" encoding="utf-8"?>
<!-- Generated by IcoMoon.io -->
<!DOCTYPE svg PUBLIC "-//W3C//DTD SVG 1.1//EN" "http://www.w3.org/Graphics/SVG/1.1/DTD/svg11.dtd">
<svg version="1.1" xmlns="http://www.w3.org/2000/svg" xmlns:xlink="http://www.w3.org/1999/xlink" width="24" height="24" viewBox="0 0 24 24">
<path fill="#ffd93d" d="M0.42 11.070l-0.27 0.36-0.090 0.45 0.045 0.225 0.045 0.18 0.27 0.36 10.8 10.755 0.18 0.135 0.18 0.090 0.225 0.090h0.45l0.225-0.090 0.18-0.090 0.18-0.135 10.845-10.755 0.135-0.18 0.18-0.36v-0.45l-0.090-0.225-0.090-0.18-0.135-0.18-10.845-10.71-0.18-0.135-0.18-0.135-0.45-0.090-0.45 0.090-0.18 0.090-0.225 0.18z"></path>
<path fill="#000" d="M0.645 11.25l10.755-10.665 0.18-0.135 0.135-0.090h0.135l0.18-0.045 0.18 0.045h0.136l0.135 0.090 0.135 0.135 10.845 10.665 0.135 0.18 0.090 0.27v0.315l-0.045 0.18-0.045 0.135-0.135 0.135-10.98 10.845-0.135 0.045-0.135 0.089h-0.36l-0.135-0.089-0.134-0.045-0.18-0.135-10.891-10.844-0.090-0.135-0.045-0.18v-0.315l0.045-0.135 0.090-0.135 0.135-0.181zM0.915 11.61l-0.090 0.135v0.27l0.090 0.135 10.845 10.755 0.135 0.090h0.315l0.090-0.090 10.845-10.755 0.090-0.135 0.045-0.135-0.045-0.135-0.090-0.135-10.935-10.845h-0.315l-0.135 0.090-10.845 10.755zM13.56 15.795v-0.18l-0.045-0.18-0.045-0.27-0.18-0.36-0.27-0.36-0.18-0.135-0.36-0.18-2.16-0.945-0.18-0.045-0.36-0.27-0.090-0.135-0.135-0.18-0.18-0.36-0.090-0.36-0.225-3.645-1.35 0.36-0.090 0.045h-0.135l-0.090-0.045-0.135-0.090-0.090-0.045-0.045-0.090-0.045-0.090v-0.361l0.045-0.090 2.833-4.23 3.060 3.96 0.045 0.045 0.045 0.135v0.225l-0.090 0.18-0.18 0.18h-0.18l-0.135 0.045-1.485-0.225 0.090 2.655 0.045 0.135 0.045 0.18 0.089 0.18 0.090 0.135 0.226 0.225 0.134 0.045 0.18 0.090 1.485 0.36 0.315 0.135 0.27 0.090 0.225 0.135 0.27 0.18 0.225 0.18 0.225 0.135 0.18 0.27 0.18 0.225 0.135 0.225 0.18 0.271 0.090 0.27 0.091 0.225 0.090 0.315v0.27l0.045 0.315 0.045 3.060h-2.565l0.135-2.61z"></path>
</svg>
