<?xml version="1.0" encoding="utf-8"?>
<!-- Generated by IcoMoon.io -->
<!DOCTYPE svg PUBLIC "-//W3C//DTD SVG 1.1//EN" "http://www.w3.org/Graphics/SVG/1.1/DTD/svg11.dtd">
<svg version="1.1" xmlns="http://www.w3.org/2000/svg" xmlns:xlink="http://www.w3.org/1999/xlink" width="24" height="24" viewBox="0 0 24 24">
<path fill="#ffd520" d="M12.56 23.758c-0.307 0.307-0.804 0.307-1.111 0l-11.206-11.206c-0.307-0.307-0.307-0.804 0-1.111l11.206-11.206c0.307-0.307 0.804-0.307 1.111 0l11.206 11.206c0.307 0.307 0.307 0.804 0 1.111l-11.206 11.206z"></path>
<path fill="#000" d="M3.793 13.364l-1.369 1.369-1.369-1.369 1.369-1.369z"></path>
<path fill="#000" d="M6.53 16.102l-1.369 1.369-1.369-1.369 1.369-1.369z"></path>
<path fill="#000" d="M9.267 18.839l-1.369 1.369-1.369-1.369 1.369-1.369z"></path>
<path fill="#000" d="M12.004 21.576l-1.369 1.369-1.369-1.369 1.369-1.369z"></path>
<path fill="#000" d="M3.793 10.627l-1.369 1.369-1.369-1.369 1.369-1.369z"></path>
<path fill="#000" d="M6.564 13.33l-1.403 1.403-1.369-1.369 1.403-1.403z"></path>
<path fill="#000" d="M9.301 16.067l-1.403 1.403-1.369-1.369 1.403-1.403z"></path>
<path fill="#000" d="M12.038 18.805l-1.403 1.403-1.369-1.369 1.403-1.403z"></path>
<path fill="#000" d="M14.741 21.576l-1.369 1.369-1.369-1.369 1.369-1.369z"></path>
<path fill="#000" d="M6.564 10.661l-1.369 1.369-1.403-1.403 1.369-1.369z"></path>
<path fill="#000" d="M14.741 18.839l-1.369 1.369-1.403-1.403 1.369-1.369z"></path>
<path fill="#000" d="M6.53 7.89l-1.369 1.369-1.369-1.369 1.369-1.369z"></path>
<path fill="#000" d="M17.479 18.839l-1.369 1.369-1.369-1.369 1.369-1.369z"></path>
<path fill="#000" d="M9.301 7.924l-1.369 1.369-1.403-1.403 1.369-1.369z"></path>
<path fill="#000" d="M17.479 16.102l-1.369 1.369-1.403-1.403 1.369-1.369z"></path>
<path fill="#000" d="M9.267 5.153l-1.369 1.369-1.369-1.369 1.369-1.369z"></path>
<path fill="#000" d="M20.216 16.102l-1.369 1.369-1.369-1.369 1.369-1.369z"></path>
<path fill="#000" d="M12.038 5.187l-1.369 1.369-1.403-1.403 1.369-1.369z"></path>
<path fill="#000" d="M20.216 13.364l-1.369 1.369-1.403-1.403 1.369-1.369z"></path>
<path fill="#000" d="M12.004 2.416l-1.369 1.369-1.369-1.369 1.369-1.369z"></path>
<path fill="#000" d="M14.741 5.153l-1.403 1.403-1.369-1.369 1.403-1.403z"></path>
<path fill="#000" d="M17.479 7.89l-1.403 1.403-1.369-1.369 1.403-1.403z"></path>
<path fill="#000" d="M20.216 10.627l-1.403 1.403-1.369-1.369 1.403-1.403z"></path>
<path fill="#000" d="M22.953 13.364l-1.369 1.369-1.369-1.369 1.369-1.369z"></path>
<path fill="#000" d="M14.741 2.416l-1.369 1.369-1.369-1.369 1.369-1.369z"></path>
<path fill="#000" d="M17.479 5.153l-1.369 1.369-1.369-1.369 1.369-1.369z"></path>
<path fill="#000" d="M20.216 7.89l-1.369 1.369-1.369-1.369 1.369-1.369z"></path>
<path fill="#000" d="M22.953 10.627l-1.369 1.369-1.369-1.369 1.369-1.369z"></path>
<path fill="#000" d="M18.847 11.996l-6.843-6.843-6.843 6.843 6.843 6.843 6.843-6.843zM18.71 11.996l-6.706 6.706-6.706-6.706 6.706-6.706 6.706 6.706z"></path>
<path fill="#000" d="M7.938 11.996l2.766-1.781c0.134-0.090 0.316-0.054 0.406 0.081 0.056 0.084 0.063 0.187 0.027 0.275l-0.27 0.693 4.43 0v1.464l-4.43-0 0.27 0.693c0.036 0.087 0.029 0.19-0.027 0.275-0.090 0.134-0.271 0.171-0.406 0.081l-2.766-1.781z"></path>
</svg>
