<?xml version="1.0" encoding="utf-8"?>
<!-- Generated by IcoMoon.io -->
<!DOCTYPE svg PUBLIC "-//W3C//DTD SVG 1.1//EN" "http://www.w3.org/Graphics/SVG/1.1/DTD/svg11.dtd">
<svg version="1.1" xmlns="http://www.w3.org/2000/svg" xmlns:xlink="http://www.w3.org/1999/xlink" width="24" height="24" viewBox="0 0 24 24">
<path fill="#ffd520" d="M12.777 0.322l10.898 10.899c0.205 0.204 0.324 0.488 0.324 0.778s-0.119 0.573-0.324 0.778l-10.898 10.899c-0.206 0.205-0.487 0.323-0.779 0.322-0.29-0.001-0.573-0.118-0.778-0.322l-10.898-10.899c-0.204-0.203-0.322-0.49-0.322-0.778s0.118-0.575 0.322-0.778l10.898-10.899c0.264-0.264 0.662-0.377 1.026-0.296 0.21 0.048 0.366 0.163 0.531 0.296z"></path>
<path fill="#000" d="M11.439 0.54l-10.898 10.898c-0.148 0.149-0.232 0.352-0.232 0.561s0.084 0.411 0.232 0.56l10.898 10.9c0.147 0.146 0.353 0.23 0.56 0.23s0.413-0.083 0.56-0.23l10.901-10.9c0.146-0.147 0.23-0.352 0.23-0.56s-0.084-0.413-0.23-0.561l-10.901-10.898c-0.148-0.148-0.351-0.232-0.56-0.232s-0.412 0.084-0.56 0.232z"></path>
<path fill="#ffd520" d="M12 23.19c-0.078-0.001-0.154-0.030-0.208-0.083l-10.9-10.9c-0.052-0.052-0.092-0.135-0.092-0.208 0-0.075 0.039-0.155 0.092-0.208l10.9-10.9c0.053-0.053 0.133-0.083 0.208-0.083 0.074 0 0.156 0.031 0.208 0.083l10.9 10.9c0.053 0.053 0.083 0.133 0.083 0.208 0 0.074-0.031 0.156-0.083 0.208l-10.9 10.9c-0.054 0.053-0.131 0.083-0.208 0.083v0z"></path>
<path fill="#000" d="M15.279 19.275v-5.068c-0.105-1.612-0.696-3.049-1.761-4.188l-1.508-1.689c0.411-0.269 0.908-0.482 1.334-0.74 0.169-0.115 0.229-0.307 0.201-0.48-0.028-0.165-0.144-0.292-0.311-0.332l-5.291-0.887 0.518 5.539c0.041 0.153 0.195 0.284 0.356 0.296 0.214 0.014 0.405-0.123 0.513-0.303 0.244-0.389 0.512-0.853 0.76-1.246 0.812 0.847 1.742 1.637 2.181 2.717 0.35 0.799 0.544 1.666 0.555 2.632l0.003 3.752 2.45-0.003z"></path>
</svg>
