<?xml version="1.0" encoding="utf-8"?>
<!-- Generated by IcoMoon.io -->
<!DOCTYPE svg PUBLIC "-//W3C//DTD SVG 1.1//EN" "http://www.w3.org/Graphics/SVG/1.1/DTD/svg11.dtd">
<svg version="1.1" xmlns="http://www.w3.org/2000/svg" xmlns:xlink="http://www.w3.org/1999/xlink" width="24" height="24" viewBox="0 0 24 24">
<path fill="#ffd520" d="M11.223 0.322l-10.899 10.9c-0.205 0.204-0.324 0.488-0.324 0.778s0.119 0.573 0.324 0.778l10.899 10.9c0.206 0.205 0.487 0.323 0.779 0.322 0.29-0.001 0.573-0.118 0.778-0.322l10.899-10.9c0.204-0.203 0.322-0.49 0.322-0.778s-0.118-0.575-0.322-0.778l-10.899-10.9c-0.264-0.264-0.662-0.377-1.026-0.296-0.21 0.048-0.366 0.163-0.531 0.296z"></path>
<path fill="#000" d="M12.562 0.54l10.899 10.899c0.148 0.149 0.232 0.352 0.232 0.561s-0.084 0.411-0.232 0.56l-10.899 10.901c-0.147 0.146-0.353 0.23-0.56 0.23s-0.413-0.083-0.56-0.23l-10.901-10.901c-0.146-0.147-0.23-0.352-0.23-0.56s0.084-0.413 0.23-0.561l10.901-10.899c0.148-0.148 0.351-0.232 0.56-0.232s0.412 0.084 0.56 0.232z"></path>
<path fill="#ffd520" d="M12.001 23.192c0.078-0.001 0.155-0.030 0.208-0.083l10.901-10.901c0.052-0.052 0.092-0.135 0.092-0.208 0-0.075-0.039-0.155-0.092-0.208l-10.901-10.901c-0.053-0.053-0.133-0.083-0.208-0.083-0.074 0-0.156 0.031-0.208 0.083l-10.901 10.901c-0.053 0.053-0.083 0.133-0.083 0.208 0 0.074 0.031 0.156 0.083 0.208l10.901 10.901c0.054 0.053 0.131 0.083 0.208 0.083z"></path>
<path fill="#000" d="M6.116 10.846c0.162 0.014 0.293 0.099 0.293 0.099h0.044c0.235-0.059 0.646 0.044 0.646 0.044l0.411-0.132c-0.088 0.117 0.147 0.132 0.147 0.132 0.44 0.132 0.631 0.762 0.631 0.762 0.161 0.132 0.499 0.835 0.499 0.835-0.073 0.117-0.014 0.337-0.014 0.337-0.044 0.249 0.822 0.704 0.822 0.704 0.073 0.044 0.157 0.271 0.157 0.271-0.048 0.040 0.028 0.474 0.028 0.474 0.049 0.255-0.097 0.697-0.097 0.697-0.014 0.146-0.089 0.315-0.089 0.315l-0.326 0.322c-0.217 0.112-0.046 0.172-0.046 0.172l0.613 0c0.073 0.007 0.114-0.107 0.114-0.107l0.009-0.338c0.127 0.056 0.102-0.137 0.102-0.137l0.047-0.791c0.096-0.388 0.35-0.485 0.35-0.485l0.143 0.414-0.023 0.543c0.068 0.213-0.048 0.349-0.048 0.349l-0.249 0.285c-0.109 0.063-0.011 0.117-0.011 0.117l0.562 0.002c0.058 0.005 0.095-0.065 0.095-0.065 0.040-0.114 0.002-0.345 0.002-0.345l0.065-0.067c0.139 0.087 0.068-0.244 0.068-0.244-0.109-0.246-0.037-0.681-0.037-0.681 0.222-0.465 0.315-1.13 0.315-1.13 0.458-0.159 2.095 0.287 2.095 0.287 0.286 0.086 0.565 0.408 0.565 0.408 0.16 0.177 0.293 0.014 0.293 0.014 0.121-0.18 0.19 0.018 0.19 0.018 0.13 0.175 0.247 0.038 0.247 0.038l0.37-0.203c0.175 0.146 0.116 0.353 0.116 0.353l-0.224 0.494c-0.112 0.092-0.143 0.413-0.143 0.413-0.043 0.143-0.217 0.259-0.217 0.259-0.105 0.019-0.319 0.249-0.319 0.249-0.191 0.144-0.030 0.162-0.030 0.162l0.739 0.004c0.099-0.017 0.158-0.356 0.158-0.356 0.025-0.263 0.161-0.226 0.161-0.226 0.174 0.032 0.145-0.28 0.145-0.28 0.007-0.529 0.32-1.029 0.32-1.029 0.116-0.283 0.155-0.074 0.155-0.074 0.098 0.054 0.278 0.63 0.278 0.63 0.146 0.323 0.112 0.673 0.112 0.673 0.065 0.242-0.078 0.346-0.078 0.346l-0.259 0.24c-0.186 0.1-0.012 0.131-0.012 0.131l0.599 0c0.102 0.010 0.093-0.050 0.093-0.050 0.025-0.263-0.067-0.317-0.067-0.317 0.155 0.074 0.052-0.231 0.052-0.231-0.141-0.823 0.156-1.766 0.156-1.766 0.105-0.328-0.038-0.372-0.038-0.372-0.198-0.387-0.134-0.896-0.134-0.896 0.093-0.359 0.182-0.203 0.182-0.203 0.117 0.159 0.213 0.698 0.213 0.698-0.010 0.559 0.264 1.086 0.264 1.086 0.191 0.46 0.189 0.033 0.189 0.033-0.104-0.452-0.012-0.796-0.012-0.796 0.033-0.188-0.239-0.421-0.239-0.421-0.341-0.592-0.212-1.169-0.212-1.169 0.141-0.693 0.014-1.059 0.014-1.059-0.118-0.306-0.397-0.465-0.397-0.465-0.598-0.367-1.682-0.133-1.682-0.133-0.56 0.152-1.78-0.039-1.78-0.039-0.772 0.058-1.866-0.062-1.866-0.062-1.159-0.362-1.347-0.247-1.347-0.247-0.966 0.231-1.413-0.018-1.413-0.018-0.228-0.081-0.039-0.21-0.039-0.21l0.203-0.175c0.081-0.086 0.022-0.207 0.022-0.207-0.088-0.029-0.294 0.059-0.294 0.059-0.161-0.044-0.325 0.091-0.325 0.091-0.178-0.378-0.453-0.34-0.453-0.34-0.205-0.029-0.69 0.146-0.69 0.146-0.337 0.103-0.484-0.044-0.484-0.044-0.073-0.176-0.22-0.073-0.22-0.073-0.073 0.103 0.044 0.205 0.044 0.205 0.147 0.176 0.367 0.161 0.367 0.161 0.191-0.088 0.425-0.058 0.425-0.058 0.205 0.015 0.088 0.264 0.088 0.264-0.147 0-0.161 0.161-0.161 0.161-0.073 0.147-0.293 0.235-0.293 0.235s-0.319 0.224-0.469 0.367l-0.249 0.161c-0.205 0.117-0.205 0.191-0.205 0.191-0.073 0.102 0.088 0.176 0.088 0.176 0.055 0.037 0.040 0.106 0.040 0.106l-0.011 0.103c0 0 0.073 0.198 0.161 0.205z"></path>
</svg>
