<?xml version="1.0" encoding="utf-8"?>
<!-- Generated by IcoMoon.io -->
<!DOCTYPE svg PUBLIC "-//W3C//DTD SVG 1.1//EN" "http://www.w3.org/Graphics/SVG/1.1/DTD/svg11.dtd">
<svg version="1.1" xmlns="http://www.w3.org/2000/svg" xmlns:xlink="http://www.w3.org/1999/xlink" width="24" height="24" viewBox="0 0 24 24">
<path fill="#ffd520" d="M11.223 0.322l-10.899 10.9c-0.205 0.204-0.324 0.488-0.324 0.778s0.119 0.573 0.324 0.778l10.899 10.9c0.206 0.205 0.487 0.323 0.779 0.322 0.29-0.001 0.573-0.118 0.778-0.322l10.899-10.9c0.204-0.203 0.322-0.49 0.322-0.778s-0.118-0.575-0.322-0.778l-10.899-10.9c-0.264-0.264-0.662-0.377-1.026-0.296-0.21 0.048-0.366 0.163-0.531 0.296z"></path>
<path fill="#000" d="M12.562 0.54l10.899 10.899c0.148 0.149 0.232 0.352 0.232 0.561s-0.084 0.411-0.232 0.56l-10.899 10.901c-0.147 0.146-0.353 0.23-0.56 0.23s-0.413-0.083-0.56-0.23l-10.901-10.901c-0.146-0.147-0.23-0.352-0.23-0.56s0.084-0.413 0.23-0.561l10.901-10.899c0.148-0.148 0.351-0.232 0.56-0.232s0.412 0.084 0.56 0.232z"></path>
<path fill="#ffd520" d="M12.001 23.192c0.078-0.001 0.155-0.030 0.208-0.083l10.901-10.901c0.052-0.052 0.092-0.135 0.092-0.208 0-0.075-0.039-0.155-0.092-0.208l-10.901-10.901c-0.053-0.053-0.133-0.083-0.208-0.083-0.074 0-0.156 0.031-0.208 0.083l-10.901 10.901c-0.053 0.053-0.083 0.133-0.083 0.208 0 0.074 0.031 0.156 0.083 0.208l10.901 10.901c0.054 0.053 0.131 0.083 0.208 0.083z"></path>
<path fill="#000" d="M11.998 5.21l-2.684 3.883c-0.059 0.203 0.048 0.396 0.183 0.46l0.177 0.044c0.463-0.116 0.902-0.289 1.364-0.405v2.934h-3.594v1.57h3.594v5.092h1.925v-5.092h3.594v-1.57h-3.594v-2.934c0.463 0.116 0.896 0.289 1.359 0.405l0.177-0.044c0.135-0.064 0.242-0.257 0.183-0.46l-2.684-3.883z"></path>
</svg>
