<?xml version="1.0" encoding="utf-8"?>
<!-- Generated by IcoMoon.io -->
<!DOCTYPE svg PUBLIC "-//W3C//DTD SVG 1.1//EN" "http://www.w3.org/Graphics/SVG/1.1/DTD/svg11.dtd">
<svg version="1.1" xmlns="http://www.w3.org/2000/svg" xmlns:xlink="http://www.w3.org/1999/xlink" width="24" height="24" viewBox="0 0 24 24">
<path fill="#fff" d="M3.061 22.925v-21.889c0-0.529 0.429-0.961 0.959-0.961h15.919c0.529 0 0.96 0.432 0.96 0.961v21.889c0 0.53-0.43 0.959-0.96 0.959h-15.919c-0.53 0-0.959-0.429-0.959-0.959z"></path>
<path fill="#000" d="M3.26 22.907c0 0.42 0.339 0.759 0.76 0.759h15.92c0.419 0 0.76-0.339 0.76-0.759v-21.89c0-0.419-0.341-0.76-0.76-0.76h-15.92c-0.42 0-0.76 0.341-0.76 0.76v21.89z"></path>
<path fill="#fff" d="M3.613 22.907v-21.89c0-0.224 0.182-0.407 0.407-0.407h15.92c0.224 0 0.407 0.183 0.407 0.407v21.89c0 0.225-0.183 0.407-0.407 0.407h-15.92c-0.225 0-0.407-0.182-0.407-0.407z"></path>
<path fill="#000" d="M16.693 15.963v0.979h2.39v-0.979h-2.39z"></path>
<path fill="#000" d="M13.748 15.963v0.979h2.39v-0.979h-2.39z"></path>
<path fill="#000" d="M10.802 15.963v0.979h2.39v-0.979h-2.39z"></path>
<path fill="#000" d="M7.839 15.963v0.979h2.39v-0.979h-2.39z"></path>
<path fill="#000" d="M4.893 15.963v0.979h2.39v-0.979h-2.39z"></path>
<path fill="#000" d="M9.278 13.804c-0.131 0.261-0.025 0.578 0.235 0.705 0.253 0.125 0.561 0.026 0.695-0.221l3.088-5.607 0.008-2.809 0.861 1.397-0.468 1.072c-0.091 0.204 0.001 0.443 0.205 0.533 0.207 0.094 0.452-0.005 0.538-0.217l0.696-1.595-1.773-2.491c-0.038-0.050-0.084-0.093-0.137-0.124-0.068-0.040-0.145-0.062-0.223-0.064l-1.371 0.058c-0.083 0.004-0.16 0.033-0.226 0.082-0.049 0.037-0.089 0.085-0.118 0.141l-1.327 2.106-1.173 0.976c-0.165 0.146-0.184 0.398-0.043 0.568 0.141 0.168 0.389 0.196 0.563 0.063l1.225-1.023 0.754-1.092-0.012 3.762-1.996 3.782z"></path>
<path fill="#000" d="M12.114 11.32l2.237 3.082c0.186 0.246 0.542 0.285 0.775 0.082 0.21-0.183 0.245-0.497 0.078-0.721l-1.913-2.644 0.001-1.986-1.178 2.186z"></path>
<path fill="#000" d="M12.099 1.987c-0.543 0-0.985 0.444-0.986 0.987 0.001 0.543 0.443 0.985 0.986 0.986 0.542 0 0.987-0.443 0.987-0.986s-0.446-0.987-0.987-0.987z"></path>
</svg>
