<?xml version="1.0" encoding="utf-8"?>
<!-- Generated by IcoMoon.io -->
<!DOCTYPE svg PUBLIC "-//W3C//DTD SVG 1.1//EN" "http://www.w3.org/Graphics/SVG/1.1/DTD/svg11.dtd">
<svg version="1.1" xmlns="http://www.w3.org/2000/svg" xmlns:xlink="http://www.w3.org/1999/xlink" width="24" height="24" viewBox="0 0 24 24">
<path fill="#ffd93d" d="M12.766 0.523l-0.172-0.129-0.215-0.086-0.172-0.086-0.258-0.043-0.172 0.043-0.215 0.086-0.172 0.086-0.215 0.129-10.832 10.746-0.129 0.172-0.086 0.172-0.129 0.215v0.43l0.129 0.172 0.086 0.215 0.129 0.172 10.832 10.746 0.215 0.172 0.172 0.086 0.215 0.086h0.43l0.172-0.086 0.215-0.086 0.172-0.172 10.876-10.746 0.129-0.172 0.086-0.215 0.086-0.172v-0.43l-0.086-0.215-0.086-0.172-0.129-0.172z"></path>
<path fill="#000" d="M23.512 11.57l0.086 0.172 0.043 0.129v0.344l-0.043 0.129-0.086 0.172-0.129 0.129-10.918 10.833-0.172 0.043-0.129 0.086h-0.344l-0.172-0.086-0.129-0.043-0.129-0.129-10.963-10.833-0.043-0.172-0.085-0.129v-0.344l0.086-0.129 0.043-0.172 0.13-0.129 10.961-10.789 0.129-0.086 0.172-0.043 0.129-0.043 0.215 0.043 0.129 0.043 0.172 0.086 0.128 0.129 10.919 10.789zM23.126 11.785l-10.875-10.746-0.129-0.086h-0.301l-0.129 0.086-10.832 10.747-0.086 0.129-0.043 0.129 0.043 0.172 0.086 0.129 10.961 10.832h0.301l0.129-0.129 10.875-10.703 0.043-0.129 0.043-0.172-0.086-0.258zM6.232 15.912h2.665l-0.043-0.301-0.043-0.559-0.086-0.515v-0.473l0.043-0.559 0.043-0.472 0.172-1.032 0.043-0.301 0.086-0.301 0.129-0.301 0.258-0.515 0.172-0.258 0.215-0.258 0.215-0.215 0.172-0.215 0.301-0.215 0.215-0.172 0.301-0.172 0.258-0.129 0.258-0.086 0.344-0.086h0.602l0.301 0.043 0.603 0.172 0.258 0.086 0.515 0.258 0.259 0.258 0.259 0.171 0.172 0.215 0.215 0.215 0.172 0.258 0.129 0.258 0.172 0.602-1.246 0.258-0.129 0.086h-0.086l-0.086 0.086-0.086 0.129-0.086 0.172v0.258l0.043 0.129 0.172 0.172 0.086 0.043 4.299 2.365 0.903-4.771v-0.259l-0.086-0.129-0.043-0.086-0.172-0.172h-0.086l-0.129-0.086h-0.129l-0.129 0.043-0.085 0.043-0.129 0.086-0.991 0.817-0.172-0.387-0.172-0.344-0.172-0.387-0.258-0.301-0.216-0.301-0.301-0.344-0.258-0.258-0.344-0.258-0.301-0.258-0.301-0.215-0.301-0.172-0.301-0.215-0.688-0.258-0.344-0.086-0.387-0.086h-0.344l-0.344-0.043h-0.387l-0.344 0.043-0.387 0.043-0.301 0.086-0.387 0.086-0.301 0.129-0.387 0.172-0.301 0.215-0.301 0.172-0.301 0.215-0.258 0.258-0.258 0.215-0.301 0.344-0.301 0.387-0.516 0.774-0.215 0.43-0.216 0.387-0.129 0.43-0.172 0.429-0.128 0.473-0.172 0.86-0.086 0.946v0.473l0.043 0.43 0.043 0.473 0.086 0.86z"></path>
</svg>
