<?xml version="1.0" encoding="utf-8"?>
<!-- Generated by IcoMoon.io -->
<!DOCTYPE svg PUBLIC "-//W3C//DTD SVG 1.1//EN" "http://www.w3.org/Graphics/SVG/1.1/DTD/svg11.dtd">
<svg version="1.1" xmlns="http://www.w3.org/2000/svg" xmlns:xlink="http://www.w3.org/1999/xlink" width="24" height="24" viewBox="0 0 24 24">
<path fill="#ffd520" d="M11.489 23.761c0.282 0.282 0.741 0.282 1.023 0l11.25-11.25c0.282-0.282 0.282-0.74-0-1.023l-11.25-11.25c-0.282-0.282-0.74-0.282-1.022 0l-11.25 11.25c-0.282 0.282-0.283 0.74-0 1.023l11.25 11.25z"></path>
<path fill="#000" d="M11.652 23.599c0.096 0.096 0.212 0.144 0.348 0.144s0.252-0.048 0.348-0.144l11.25-11.25c0.096-0.096 0.144-0.212 0.144-0.348s-0.048-0.252-0.144-0.348l-11.25-11.25c-0.096-0.096-0.212-0.144-0.348-0.144s-0.252 0.048-0.348 0.144l-11.25 11.25c-0.096 0.096-0.144 0.212-0.144 0.348s0.048 0.252 0.144 0.348l11.25 11.25z"></path>
<path fill="#ffd520" d="M11.898 23.353c0.028 0.028 0.062 0.042 0.102 0.042s0.074-0.014 0.102-0.042l11.25-11.25c0.028-0.028 0.042-0.062 0.042-0.102s-0.014-0.074-0.043-0.102l-11.25-11.25c-0.028-0.028-0.062-0.042-0.102-0.042s-0.074 0.014-0.102 0.042l-11.25 11.25c-0.028 0.028-0.042 0.063-0.043 0.102s0.014 0.074 0.042 0.102l11.25 11.25z"></path>
<path fill="#000" d="M12.849 10.679l2.713 3.895 2.761-3.873c0.115-0.155 0.109-0.368-0.013-0.517-0.114-0.139-0.304-0.19-0.471-0.127l-1.195 0.379-0.001-0.128c0.012-2.573-2.067-4.666-4.64-4.671s-4.661 2.081-4.659 4.654v6.734h2.119v-6.728c0.009-1.401 1.156-2.527 2.556-2.508 1.379 0.018 2.488 1.14 2.491 2.518l-0.001 0.121-1.198-0.387c-0.164-0.047-0.34 0.009-0.446 0.143-0.113 0.144-0.12 0.344-0.016 0.495z"></path>
</svg>
