<?xml version="1.0" encoding="utf-8"?>
<!-- Generated by IcoMoon.io -->
<!DOCTYPE svg PUBLIC "-//W3C//DTD SVG 1.1//EN" "http://www.w3.org/Graphics/SVG/1.1/DTD/svg11.dtd">
<svg version="1.1" xmlns="http://www.w3.org/2000/svg" xmlns:xlink="http://www.w3.org/1999/xlink" width="24" height="24" viewBox="0 0 24 24">
<path fill="#ffd93d" d="M23.652 11.172l0.149 0.198 0.199 0.398v0.447l-0.099 0.149-0.099 0.248-0.149 0.149-10.974 11.023-0.199 0.050-0.199 0.099h-0.447l-0.199-0.099-0.149-0.050-0.199-0.149-10.974-11.023-0.099-0.248-0.099-0.149v-0.447l0.199-0.398 0.149-0.198 10.825-10.825 0.199-0.149 0.149-0.099 0.199-0.050 0.248-0.050 0.397 0.099 0.199 0.099z"></path>
<path fill="#000" d="M23.603 11.52l0.099 0.298 0.049 0.199-0.149 0.446-0.149 0.099-10.924 10.974-0.298 0.099h-0.298l-0.298-0.099-10.974-10.974-0.149-0.099-0.149-0.446 0.049-0.199 0.099-0.298 10.974-10.974 0.149-0.099 0.149-0.050 0.149-0.099h0.298l0.149 0.099 0.149 0.050 0.149 0.099 10.924 10.974zM23.156 11.719l-10.924-10.974h-0.298l-0.149 0.099-10.825 10.874-0.099 0.149-0.050 0.149 0.050 0.149 10.923 10.924 0.149 0.099 0.149 0.050 0.149-0.050 11.024-11.023 0.049-0.149-0.049-0.149-0.099-0.149zM6.422 7.399l3.029 4.171 0.149 0.149h0.149l0.099 0.050h0.099l0.199-0.099 0.199-0.199v-0.050l0.050-0.149 0.099-1.44 0.943 0.397 0.348 0.149 0.298 0.149 0.596 0.397 0.298 0.248 0.249 0.248 0.198 0.298 0.199 0.199 0.149 0.298 0.298 0.894 0.050 0.298 0.050 0.397-0.149 3.873h2.532l0.050-4.121-0.050-0.347-0.099-0.348-0.050-0.398-0.149-0.298-0.149-0.397-0.149-0.348-0.595-0.894-0.249-0.298-0.595-0.596-0.298-0.248-0.298-0.199-0.348-0.248-0.397-0.149-0.348-0.199-0.348-0.149-0.397-0.149-0.993-0.298 0.894-1.241 0.099-0.199v-0.149l-0.149-0.298-0.099-0.099-0.198-0.099h-0.149l-0.099 0.050-4.966 1.44z"></path>
</svg>
