<svg xmlns="http://www.w3.org/2000/svg" width="24" height="24">
    <path d="M.899 6h22.185c.429.135.761.461.915.882v10.227c-.133.399-.445.687-.801.891H.893A1.45 1.45 0 0 1 0 17.103V6.921C.139 6.488.471 6.152.899 6zm-.137.395c-.351.157-.487.561-.459.921.005 3.163-.003 6.327.003 9.489-.048.501.401.937.897.897 7.197.003 14.397.003 21.594 0a.849.849 0 0 0 .906-.906c.003-3.197.003-6.396 0-9.593a.844.844 0 0 0-.897-.897c-7.122-.009-14.245.003-21.367-.006-.227.009-.467-.006-.677.093z"/>
    <path d="M11.901 7.011c.353.057.805.221.858.63l-.245.225c-.027.426-.267.813-.672.975.351.414.477.939.69 1.413.367.295 1.643.645.901 1.194-.543-.203-1.035-.529-1.512-.857a4.633 4.633 0 0 0-.543 1.074c.255.173.509.345.765.515.924-.265 1.925-.253 2.853-.011a79.945 79.945 0 0 1-.305-.731c-.277-.003-.975.087-.733-.384.327-.117.685-.045 1.026-.061.327.781.649 1.563.975 2.343.96-.255 2.035.348 2.271 1.32.318 1.068-.559 2.259-1.669 2.285-1.053.093-2.027-.891-1.926-1.941.015-.653.462-1.173.96-1.542-.792-.375-1.779-.061-2.652-.159-.276.351-.492.744-.707 1.135.373.228.39.671.451 1.056l.403-.396c-.054-.055-.159-.165-.213-.219.189-.333.345-.685.547-1.011.234.129.465.264.693.405-.179.321-.353.645-.501.981l-.311-.042c-.205.267-.453.569-.825.561-.989.027-1.979.003-2.967.009-.331.705-1.038 1.245-1.836 1.227-1.105.036-2.087-1.025-1.953-2.125.051-.828.695-1.512 1.467-1.751-.003-.065-.011-.195-.013-.261a1.144 1.144 0 0 1-.294-.555c.954-.033 1.932-.047 2.823.207-.217-.333-.307-.744-.085-1.101.474-.953.753-2.094 1.659-2.745-.669-.525-.015-1.473.617-1.659zm-5.738 8.282c.233.003.467.003.701.005.147-.267.179-.642.471-.795.582-.087 1.175-.013 1.761-.045-.311-.643-1.045-1.083-1.763-.888-.774.155-1.263.961-1.171 1.723zm9.968-1.582c.156.435.306.889.657 1.212.249.391-.409.769-.651.393a3.88 3.88 0 0 0-.427-1.425c-.45.337-.765.893-.639 1.467.114.801 1.001 1.353 1.771 1.115.843-.201 1.302-1.269.867-2.021-.285-.579-.963-.829-1.577-.743zm-5.043.053c-.223.207-.449.417-.594.687l.489.017c.135-.219.267-.438.401-.657l-.297-.047zM6.33 15.783c.569 1.011 2.125 1.011 2.695 0a96.845 96.845 0 0 0-2.695 0z"/>
    <path d="M15.639 11.875c.12-.45.573-.619.999-.551-.031.521-.579 1.207-.999.551z"/>
    <path fill="#fff" d="M.762 6.395c.21-.099.45-.085.677-.093 7.122.009 14.245-.003 21.367.006.498-.045.939.399.897.897.003 3.197.003 6.396 0 9.593a.849.849 0 0 1-.906.906c-7.197.003-14.397.003-21.594 0-.495.039-.945-.396-.897-.897C.3 13.645.307 10.482.303 7.318c-.027-.361.108-.765.459-.921zm11.139.616c-.633.187-1.287 1.134-.617 1.659-.906.651-1.185 1.793-1.659 2.745-.222.357-.132.769.085 1.101-.891-.255-1.869-.241-2.823-.207.043.211.147.399.294.555l.013.261c-.773.239-1.416.923-1.467 1.751-.133 1.101.849 2.161 1.953 2.125.798.017 1.505-.523 1.836-1.227.989-.006 1.979.019 2.967-.009.372.009.621-.294.825-.561l.311.042c.147-.336.321-.66.501-.981a17.15 17.15 0 0 0-.693-.405c-.201.327-.357.678-.547 1.011l.213.219-.403.396c-.061-.385-.078-.828-.451-1.056.215-.391.431-.783.707-1.135.873.099 1.86-.216 2.652.159-.498.369-.945.889-.96 1.542-.101 1.051.873 2.034 1.926 1.941 1.11-.025 1.987-1.217 1.669-2.285-.235-.972-1.311-1.575-2.271-1.32-.327-.781-.649-1.563-.975-2.343-.341.015-.699-.057-1.026.061-.243.471.456.381.733.384.101.245.201.489.305.731-.929-.243-1.929-.255-2.853.011-.257-.169-.511-.342-.765-.515.133-.381.315-.741.543-1.074.477.327.969.654 1.512.857.741-.549-.534-.899-.901-1.194-.213-.474-.339-.999-.69-1.413.405-.162.645-.549.672-.975l.245-.225c-.053-.409-.505-.573-.858-.63zm3.738 4.864c.421.657.969-.03.999-.551-.426-.069-.879.101-.999.551z"/>
    <path fill="#fff" d="M6.163 15.293c-.091-.762.397-1.569 1.171-1.723.717-.195 1.452.245 1.763.888-.587.031-1.179-.042-1.761.045-.293.153-.325.529-.471.795l-.701-.005zM16.131 13.711c.615-.087 1.291.165 1.577.743.435.753-.023 1.819-.867 2.021-.771.239-1.657-.315-1.771-1.115-.125-.575.189-1.131.639-1.467.231.449.383.924.427 1.425.241.375.9-.003.651-.393-.351-.323-.501-.777-.657-1.212zM11.088 13.764l.297.047-.401.657a77.169 77.169 0 0 1-.489-.017c.145-.271.371-.481.594-.687zM6.33 15.783a96.845 96.845 0 0 1 2.695 0c-.57 1.011-2.127 1.011-2.695 0z"/>
</svg>
