<svg xmlns="http://www.w3.org/2000/svg" width="24" height="24">
    <path fill="#030303" d="M7.621 0h9.087c.467.155.902.431 1.183.842v22.214c-.453.743-1.358.939-2.165.944H8.552c-.764-.003-1.581-.211-2.051-.864V.745C6.79.39 7.198.157 7.622-.001zm.427.582c-.552.059-1.176.447-1.185 1.057-.004 6.866-.002 13.731-.004 20.596-.01.691.732 1.103 1.347 1.111 2.639.005 5.278.005 7.916 0 .618-.004 1.36-.421 1.35-1.111.001-6.865.004-13.729.002-20.594C17.452.946 16.69.56 16.067.566c-2.673.007-5.348-.024-8.02.016z"/>
    <path fill="#030303" d="M12.193 2.669a86.592 86.592 0 0 1 3.221 5.426c-.691.05-1.384.019-2.075.028v8.279c.69.005 1.382-.013 2.07.037a170.446 170.446 0 0 1-3.177 5.476c-.308-.294-.499-.68-.713-1.042-.845-1.479-1.721-2.94-2.539-4.434.688-.049 1.38-.032 2.07-.037V8.123c-.692-.007-1.385.019-2.075-.032a85.23 85.23 0 0 1 3.219-5.422z"/>
    <path fill="#fff" d="M8.048.582c2.672-.04 5.347-.009 8.02-.016.623-.006 1.385.38 1.407 1.075.002 6.865-.001 13.729-.002 20.594.009.69-.732 1.107-1.35 1.111-2.638.005-5.277.005-7.916 0-.616-.009-1.358-.42-1.347-1.111.001-6.865 0-13.731.004-20.596.01-.611.633-.998 1.185-1.057zm4.145 2.087a85.704 85.704 0 0 0-3.219 5.422c.69.051 1.383.025 2.075.032v8.279c-.69.005-1.382-.012-2.07.037.817 1.494 1.694 2.955 2.539 4.434.214.362.404.749.713 1.042a170.446 170.446 0 0 0 3.177-5.476c-.688-.049-1.38-.031-2.07-.037V8.123c.691-.009 1.385.022 2.075-.028a86.592 86.592 0 0 0-3.221-5.426z"/>
</svg>
