<svg xmlns="http://www.w3.org/2000/svg" width="24" height="24">
    <path d="M.819 4h22.615c.401.112.708.425.831.82v14.346a1.235 1.235 0 0 1-.818.834H.83a1.233 1.233 0 0 1-.829-.819V4.83C.112 4.429.426 4.122.82 4zm-.038.255a.816.816 0 0 0-.563.804c-.002 4.628-.002 9.256 0 13.883-.026.454.384.871.84.841 7.383 0 14.766.001 22.149-.001.456.024.866-.384.841-.84.002-4.627.002-9.255 0-13.883.027-.457-.385-.868-.842-.844-7.331-.006-14.661.001-21.993-.004-.145.003-.293.001-.432.044z"/>
    <path d="M11.52 5.259h1.225c.004.537-.001 1.073.002 1.609.475-.28.954-.554 1.433-.826.165.281.329.562.487.846-.639.361-1.273.73-1.913 1.09-.019.985-.004 1.971-.009 2.956.854-.489 1.706-.983 2.56-1.471 0-.737-.001-1.475.001-2.212.325-.002.649-.002.973 0 .002.551-.001 1.101.002 1.651.463-.27.927-.54 1.393-.805.217.347.413.706.618 1.059-.464.269-.934.529-1.392.807.475.277.955.545 1.429.827-.163.278-.325.558-.487.837-.639-.371-1.279-.741-1.922-1.103-.857.483-1.705.981-2.558 1.47.851.495 1.706.984 2.558 1.479.641-.367 1.277-.745 1.922-1.105.167.276.325.557.487.834-.475.281-.961.545-1.434.828.465.268.933.532 1.395.809-.199.354-.407.704-.611 1.055-.464-.269-.926-.541-1.397-.8-.004.549.001 1.098-.002 1.647-.325.002-.649.002-.973 0-.002-.735-.001-1.471-.001-2.207-.847-.502-1.704-.986-2.559-1.474-.001.984-.007 1.969.004 2.953.645.355 1.28.728 1.915 1.101l-.486.837a80.539 80.539 0 0 0-1.433-.821c-.003.535.001 1.069-.002 1.603H11.52c-.004-.535.001-1.069-.002-1.603-.482.267-.958.545-1.434.821-.162-.278-.325-.557-.485-.837a80.377 80.377 0 0 1 1.914-1.101c.013-.984.005-1.969.005-2.953-.855.489-1.711.973-2.559 1.473 0 .735.001 1.472-.001 2.207-.325.002-.649.002-.973 0-.003-.549.002-1.098-.002-1.647-.47.26-.933.534-1.397.805-.203-.354-.412-.705-.611-1.061.462-.276.927-.543 1.395-.81-.474-.283-.959-.547-1.434-.827.163-.277.321-.558.487-.834.646.36 1.281.739 1.923 1.105.851-.495 1.706-.985 2.558-1.479-.851-.49-1.703-.982-2.558-1.466-.643.363-1.284.729-1.922 1.099-.163-.278-.325-.557-.487-.837.473-.282.955-.549 1.43-.828-.462-.274-.93-.537-1.394-.806.215-.341.379-.731.63-1.039.47.243.919.525 1.381.783.003-.55-.001-1.1.002-1.651.324-.002.649-.002.973 0 .002.738.001 1.475 0 2.212.855.489 1.707.982 2.561 1.471-.005-.985.011-1.971-.009-2.956-.64-.359-1.273-.729-1.913-1.09.159-.285.321-.566.487-.846.479.271.958.546 1.433.826.003-.536-.001-1.072.002-1.609z"/>
    <path fill="#fff" d="M.781 4.255c.139-.043.287-.041.432-.044 7.331.005 14.661-.002 21.993.004a.823.823 0 0 1 .842.844c.002 4.628.002 9.256 0 13.883a.82.82 0 0 1-.841.84c-7.383.002-14.765.001-22.149.001-.457.03-.866-.387-.84-.841-.002-4.627-.002-9.255 0-13.883a.82.82 0 0 1 .563-.804zM11.52 5.259c-.004.537.001 1.073-.002 1.609-.475-.28-.954-.554-1.433-.826-.165.281-.329.562-.487.846.639.36 1.273.73 1.913 1.09.02.985.004 1.971.009 2.956-.854-.489-1.706-.983-2.561-1.471.001-.737.002-1.474 0-2.212a78.895 78.895 0 0 0-.973 0c-.003.551.001 1.101-.002 1.651-.462-.259-.911-.541-1.381-.783-.251.308-.415.699-.63 1.039.464.269.932.532 1.394.806-.475.279-.957.546-1.43.828l.487.837c.639-.37 1.279-.736 1.922-1.099.855.484 1.706.976 2.558 1.466-.851.495-1.706.984-2.558 1.479-.641-.367-1.277-.745-1.923-1.105-.166.276-.324.557-.487.834.475.281.96.545 1.434.827-.467.267-.933.534-1.395.81.199.357.407.707.611 1.061.464-.271.927-.545 1.397-.805.005.549-.001 1.098.002 1.647.325.002.649.002.973 0 .002-.735.001-1.472.001-2.207.847-.501 1.704-.985 2.559-1.473 0 .985.009 1.969-.005 2.953-.645.355-1.28.728-1.914 1.101l.485.837c.476-.277.951-.554 1.434-.821.003.535-.001 1.069.002 1.603h1.225c.004-.535-.001-1.069.002-1.603.481.268.958.544 1.433.821.163-.278.325-.557.486-.837-.635-.373-1.27-.746-1.915-1.101-.011-.984-.005-1.969-.004-2.953.855.489 1.711.972 2.559 1.474 0 .735-.001 1.471.001 2.207.325.002.649.002.973 0 .003-.549-.001-1.098.002-1.647.471.259.933.531 1.397.8.204-.352.412-.701.611-1.055-.461-.277-.929-.541-1.395-.809.473-.283.959-.547 1.434-.828-.163-.277-.321-.558-.487-.834-.645.36-1.281.739-1.922 1.105-.851-.495-1.706-.985-2.558-1.479.852-.49 1.701-.987 2.558-1.47.644.363 1.283.733 1.922 1.103.163-.278.325-.558.487-.837-.473-.281-.954-.549-1.429-.827.458-.279.928-.539 1.392-.807-.205-.353-.401-.713-.618-1.059-.467.265-.93.535-1.393.805-.004-.551 0-1.101-.002-1.651a78.895 78.895 0 0 0-.973 0c-.002.737-.001 1.475-.001 2.212-.854.489-1.706.982-2.56 1.471.005-.985-.011-1.971.009-2.956.639-.359 1.273-.729 1.913-1.09a41.282 41.282 0 0 0-.487-.846c-.479.271-.958.546-1.433.826-.003-.536.001-1.072-.002-1.609H11.52z"/>
</svg>
