<svg xmlns="http://www.w3.org/2000/svg" width="24" height="24">
    <path fill="#231f20" d="M1.283 2.4h21.716c.41.167.772.454.976.854v17.691c-.181.26-.399.497-.675.655H.855c-.379-.318-.739-.694-.854-1.193V3.789C.155 3.132.619 2.577 1.284 2.4zm.046.334c-.634.178-.978.837-1.03 1.454C.295 9.43.302 14.671.295 19.913c-.031.85.742 1.622 1.592 1.59 6.834-.006 13.667.001 20.499-.003.734-.038 1.483-.609 1.488-1.389.001-5.341.003-10.682-.001-16.023-.007-.694-.588-1.347-1.286-1.39-6.766.001-13.533.002-20.299 0-.319.009-.646-.036-.959.037z"/>
    <path fill="#231f20" d="M1.429 2.934c6.98-.085 13.974-.009 20.958-.038.675-.068 1.254.548 1.291 1.19-.002 5.308 0 10.618-.001 15.926-.006.685-.606 1.284-1.29 1.29-6.834 0-13.667.002-20.5-.001-.74-.003-1.385-.648-1.388-1.388C.497 14.671.497 9.43.499 4.188c.007-.567.376-1.102.93-1.254zm-.236 1.252c.005 5.361-.004 10.722.004 16.083.114.11.225.22.334.334 6.953.007 13.906.001 20.858.003.162-.002.315-.061.469-.107.089-.223.23-.436.225-.685-.003-5.142.001-10.286-.002-15.428.016-.413-.234-.879-.692-.887-6.834-.01-13.668 0-20.502-.005a.633.633 0 0 0-.692.692z"/>
    <path fill="#231f20" d="M10.859 3.988c.19.003.381.003.572.001.23.273.245.602.016.882.551.041 1.004.391 1.47.652.184.543.106 1.12.11 1.682-.366.04-.386-.328-.495-.58.114.98.441 1.924.698 2.874-.177.139-.368.26-.542.402-.179-.674-.523-1.29-.699-1.966-.482.489-.398 1.23-.578 1.846a3.283 3.283 0 0 1-.638-.114c.2-.786.221-1.63.599-2.362.09-.173.065-.375.078-.563-.444.106-.834.35-1.231.565-.483-.499.478-.874.719-1.263-.002-.236.015-.471.015-.706.11-.126.22-.254.328-.383a1.953 1.953 0 0 1-.558-.286 2.44 2.44 0 0 1 .138-.681zm1.601 2.036c-.242.462.344.228 0 0zM12.869 10.89c.586-.18 1.278.198 1.416.803.25.562.115 1.208-.193 1.717-.446.592-1.468.586-1.879-.046-.528-.786-.368-2.182.657-2.473zm.419 2.439c.614-.408.542-1.292.217-1.864-1.134-.546-1.288 1.932-.217 1.864zM3.881 10.957c.526.012 1.054-.03 1.578.013.948.332 1.05 1.667.531 2.397-.544.589-1.406.318-2.11.374-.002-.928-.002-1.856 0-2.783zm.696.495c-.002.6-.003 1.2.001 1.8 1.062.27 1.463-1.257.666-1.8h-.667zM7.064 10.957c.63-.002 1.261-.003 1.89.001-.002.164-.002.33 0 .494l-1.294.003v.595l1.095.003c-.002.164-.002.33 0 .494l-1.095.003v.694c.432.001.862 0 1.294.003-.002.164-.002.33 0 .494-.63.004-1.261.003-1.89.001-.002-.928-.002-1.855 0-2.783zM9.45 10.958c.698-.003 1.394-.004 2.091 0-.002.163-.002.327.001.491-.233.004-.466.003-.698.007-.003.762.002 1.523-.002 2.285h-.694c-.004-.762.001-1.523-.002-2.285-.232-.004-.465-.003-.698-.007.003-.164.003-.328.001-.491zM15.122 10.955h.594c.064.762-.161 1.582.202 2.293.196-.003.392-.004.588-.002.413-.686.118-1.535.209-2.292.164.002.33.002.494 0-.018.716.046 1.439-.03 2.153-.144.993-1.882.993-2.026 0-.077-.714-.012-1.435-.031-2.152zM17.808 10.957c.585.02 1.176-.048 1.756.03.711.222.71 1.288.057 1.59.169.384.32.775.473 1.165-.223-.002-.444.001-.666 0a18.848 18.848 0 0 0-.434-1.099l-.589.005-.002 1.094h-.595c-.003-.928-.002-1.856 0-2.785zm.596.498v.695c.326.01.663.025.97-.111l.106-.23a15.393 15.393 0 0 1-.194-.358c-.294.003-.589-.001-.882.004zM9.11 15.189c.342-.182.646-.489 1.059-.471-.065.473-.203.931-.238 1.409 2.591.008 5.184-.001 7.777.004.002.63.002 1.258 0 1.888-2.591.005-5.184-.004-7.775.004.046.512.169 1.013.234 1.522-.489-.082-.871-.415-1.292-.649-.866-.538-1.79-.984-2.609-1.596.001-.116.002-.234.001-.35.942-.597 1.898-1.171 2.844-1.761z"/>
    <path fill="#f4901e" d="M1.329 2.734c.314-.073.64-.028.959-.037 6.766.002 13.533.001 20.299 0 .698.042 1.279.695 1.286 1.39.004 5.341.002 10.682.001 16.023-.005.78-.754 1.351-1.488 1.389-6.833.004-13.666-.003-20.499.003-.85.032-1.622-.74-1.592-1.59.007-5.242 0-10.483.004-15.725.052-.617.396-1.275 1.03-1.454zm.1.2c-.554.154-.923.687-.93 1.254-.002 5.242-.002 10.483 0 15.725.003.74.648 1.385 1.388 1.388 6.834.003 13.667.001 20.5.001.685-.005 1.284-.605 1.29-1.29.001-5.308-.001-10.618.001-15.926-.038-.642-.616-1.258-1.291-1.19-6.985.029-13.978-.046-20.958.038z"/>
    <path fill="#f4901e" d="M1.193 4.186a.635.635 0 0 1 .693-.693c6.834.005 13.668-.005 20.502.005.458.008.708.474.692.887.003 5.142-.001 10.286.002 15.428.005.249-.136.462-.225.685-.154.046-.306.106-.469.107-6.952-.002-13.905.004-20.858-.003-.109-.114-.22-.224-.334-.334-.008-5.361.001-10.722-.004-16.083zm9.666-.198a2.514 2.514 0 0 0-.138.681c.17.123.357.222.558.286-.109.13-.218.257-.328.383 0 .234-.017.47-.015.706-.242.39-1.202.764-.719 1.263.397-.215.788-.458 1.231-.565-.014.188.011.39-.078.563-.378.732-.399 1.576-.599 2.362.208.061.422.097.638.114.18-.617.095-1.358.578-1.846.176.675.52 1.291.699 1.966.174-.142.365-.262.542-.402-.258-.95-.584-1.894-.698-2.874.11.252.13.62.495.58-.004-.562.074-1.139-.11-1.682-.466-.261-.918-.611-1.47-.652.229-.279.215-.609-.016-.882-.191.002-.382.002-.572-.001zm2.01 6.902c-1.025.291-1.185 1.687-.657 2.473.411.633 1.433.638 1.879.046.309-.51.442-1.155.193-1.717-.138-.605-.83-.983-1.416-.803zm-8.988.067c-.002.927-.002 1.855 0 2.783.703-.057 1.566.215 2.11-.374.519-.73.417-2.064-.531-2.397-.526-.042-1.053-.001-1.578-.013zm3.183 0c-.002.928-.002 1.855 0 2.783.63.002 1.261.003 1.89-.001-.002-.164-.002-.33 0-.494-.432-.003-.862-.002-1.294-.003v-.694l1.095-.003c-.002-.164-.002-.33 0-.494l-1.095-.003v-.595l1.294-.003c-.002-.164-.002-.33 0-.494-.63-.004-1.261-.003-1.89-.001zm2.386.001c.002.163.002.327-.001.491.233.004.466.003.698.007.003.762-.002 1.523.002 2.285h.694c.004-.762-.001-1.523.002-2.285.232-.004.465-.003.698-.007a16.08 16.08 0 0 1-.001-.491c-.698-.004-1.394-.003-2.091 0zm5.672-.003c.019.716-.046 1.438.031 2.152.144.993 1.882.993 2.026 0 .077-.714.012-1.437.03-2.153-.164.002-.33.002-.494 0-.09.757.204 1.606-.209 2.292a23.05 23.05 0 0 0-.588.002c-.363-.71-.138-1.531-.202-2.293h-.594zm2.686.002c-.002.928-.003 1.856 0 2.785h.595l.002-1.094.589-.005c.154.362.302.728.434 1.099.222.001.442-.002.666 0-.152-.39-.303-.781-.473-1.165.654-.302.654-1.369-.057-1.59-.58-.078-1.171-.01-1.756-.03zM9.11 15.189c-.946.59-1.902 1.164-2.844 1.761.001.116 0 .234-.001.35.818.612 1.743 1.058 2.609 1.596.421.234.804.566 1.292.649-.065-.51-.188-1.01-.234-1.522 2.591-.008 5.184.001 7.775-.004.002-.63.002-1.258 0-1.888-2.593-.005-5.185.004-7.777-.004.036-.478.174-.936.238-1.409-.413-.017-.718.29-1.059.471z"/>
    <path fill="#f4901e" d="M12.46 6.024c.344.228-.242.462 0 0zM13.288 13.329c-1.071.068-.918-2.41.217-1.864.326.572.398 1.457-.217 1.864zM4.577 11.452h.667c.797.543.396 2.07-.666 1.8-.004-.6-.003-1.2-.001-1.8zM18.404 11.455c.294-.005.588-.001.882-.004.062.12.127.24.194.358-.027.058-.081.172-.106.23-.306.136-.644.122-.97.111v-.695z"/>
</svg>
