<svg xmlns="http://www.w3.org/2000/svg" width="24" height="24">
    <path fill="#080808" opacity=".96" d="M.725 5.872h22.359l.185.139A2646.95 2646.95 0 0 0 .55 6.01l.174-.138z"/>
    <path fill="#fff" d="M.551 6.01a2646.95 2646.95 0 0 1 22.719.001c.137.111.278.215.419.324.007 3.695.01 7.393-.001 11.087.02.49-.569.627-.954.61H1.064c-.385.017-.952-.134-.939-.612-.018-3.692.008-7.385-.012-11.079.148-.109.296-.217.439-.332zm.199.252c-.314.127-.479.468-.446.796.004 3.334-.006 6.669.004 10.003-.028.468.445.797.88.763 7.14.004 14.282.003 21.423.001.444.042.927-.292.901-.769.006-3.371.006-6.743 0-10.114.025-.477-.462-.802-.902-.767-7.1-.006-14.201.001-21.302-.004-.188.007-.385.008-.558.09z"/>
    <path fill="#fff" d="M1.004 6.668c7.121-.064 14.248-.005 21.372-.03.238.005.675-.033.664.318.011 3.362.011 6.725-.001 10.088.03.299-.328.326-.544.317-7.102-.007-14.203.003-21.305-.005-.19.013-.451-.082-.412-.318-.017-3.286.003-6.575-.008-9.862.001-.193-.02-.472.234-.507zm5.297 1.263c-.001.284-.011.569-.012.853-.174-.177-.35-.351-.523-.53-.235.226-.469.454-.699.686.401.414.809.821 1.209 1.237-.007.395-.011.789-.017 1.184-.345-.2-.688-.403-1.03-.608-.14-.557-.284-1.113-.426-1.668-.315.08-.631.162-.945.248l.182.72c-.244-.144-.491-.282-.735-.426a76.64 76.64 0 0 0-.494.837c.243.14.483.288.727.43-.239.064-.478.129-.718.191l.233.941c.562-.141 1.122-.285 1.684-.43.344.202.69.403 1.034.606-.349.193-.697.385-1.041.584-.559-.147-1.116-.302-1.675-.453l-.266.933c.239.068.478.136.717.206-.248.137-.491.28-.74.415.157.284.318.566.478.848.246-.14.496-.273.742-.413-.064.238-.131.476-.196.715.311.087.623.174.937.259.155-.55.317-1.097.461-1.649.346-.207.697-.403 1.052-.595-.004.392-.011.783-.012 1.173-.407.415-.828.815-1.24 1.226.226.232.454.463.682.693.176-.179.358-.35.533-.527-.001.284 0 .569-.004.853.325.004.65.006.974.005.001-.283.008-.566.01-.85.173.182.352.357.526.538.233-.227.464-.457.695-.688-.401-.414-.815-.818-1.209-1.24.012-.394.014-.786.021-1.18.345.199.688.401 1.028.608.136.556.28 1.109.421 1.662.317-.079.632-.158.948-.239-.062-.242-.12-.486-.18-.728.243.147.489.287.733.432l.496-.836c-.244-.141-.486-.289-.729-.432l.72-.19a87.086 87.086 0 0 0-.241-.946c-.565.138-1.125.293-1.691.432-.333-.203-.67-.402-1.006-.602.359-.184.685-.455 1.075-.564.547.119 1.079.305 1.624.434l.27-.939a76.015 76.015 0 0 1-.722-.199c.249-.14.495-.282.743-.421a87.282 87.282 0 0 0-.475-.846c-.248.139-.497.273-.745.412.064-.238.131-.475.196-.711-.313-.088-.626-.176-.939-.262-.159.555-.31 1.11-.472 1.663-.347.191-.691.388-1.038.581.003-.397.008-.794.014-1.191.411-.403.825-.803 1.235-1.208a44.632 44.632 0 0 0-.683-.693c-.175.174-.357.342-.532.515.004-.284.001-.569.006-.853-.325 0-.65-.001-.974-.005zm10.316 0c-.001.284-.011.567-.012.852-.174-.177-.352-.35-.525-.529-.234.227-.468.455-.699.686.401.413.807.821 1.208 1.233-.004.396-.008.793-.017 1.189-.342-.2-.682-.403-1.023-.603-.147-.557-.287-1.116-.432-1.674-.315.081-.63.164-.944.249l.18.717c-.244-.143-.489-.281-.731-.424-.17.278-.335.559-.495.844.243.138.484.283.726.424l-.718.193c.077.314.156.628.235.942.563-.144 1.125-.292 1.691-.429l1.015.601c-.358.184-.685.445-1.073.565-.552-.109-1.086-.296-1.633-.432-.09.31-.18.622-.267.934.239.066.478.134.718.203-.249.138-.493.281-.741.418.157.283.318.565.478.846.246-.139.496-.273.742-.412-.065.238-.131.476-.198.713.313.089.625.176.938.263.156-.553.315-1.107.466-1.661.346-.198.695-.393 1.045-.584-.065.486.183 1.132-.294 1.466-.322.307-.64.62-.959.931l.683.692c.177-.177.361-.347.538-.523-.005.284-.004.567-.008.852.325.004.65.006.976.006.001-.285.008-.57.01-.855.172.182.346.362.519.544.237-.225.469-.457.701-.686-.395-.41-.796-.815-1.198-1.217 0-.406.005-.81.01-1.215a40.1 40.1 0 0 0 1.02.602c.149.558.287 1.12.432 1.679l.948-.242c-.061-.243-.122-.486-.181-.728.243.148.489.287.733.434.166-.28.332-.558.496-.837-.244-.143-.484-.291-.729-.432l.721-.19c-.08-.317-.159-.633-.242-.948-.56.143-1.118.289-1.676.437-.34-.201-.682-.401-1.02-.606.342-.198.686-.392 1.029-.585.557.154 1.111.31 1.669.459.091-.313.182-.626.271-.939-.242-.066-.482-.136-.722-.203.249-.138.495-.281.743-.419-.157-.283-.315-.565-.475-.847-.248.14-.498.274-.745.414a83.5 83.5 0 0 1 .195-.715c-.313-.087-.626-.174-.94-.259l-.464 1.656c-.347.196-.695.394-1.043.587.001-.397.008-.794.014-1.191.412-.402.825-.803 1.236-1.207a49.626 49.626 0 0 0-.684-.693c-.175.173-.356.342-.532.513.004-.284.001-.567.006-.851-.325 0-.65-.001-.974-.005z"/>
    <path d="M.75 6.262c.174-.082.37-.083.558-.09 7.101.005 14.202-.003 21.302.004.44-.035.927.291.902.767.006 3.371.006 6.743 0 10.114.026.477-.457.81-.901.769-7.141.001-14.283.003-21.423-.001-.436.035-.908-.295-.88-.763-.01-3.334 0-6.669-.004-10.003-.033-.328.132-.669.446-.796zm.254.406c-.255.035-.233.314-.234.507.011 3.287-.008 6.576.008 9.862-.039.235.221.331.412.318 7.102.007 14.203-.003 21.305.005.215.01.573-.018.544-.317.012-3.363.012-6.726.001-10.088.011-.351-.426-.313-.664-.318-7.123.025-14.251-.035-21.372.03z"/>
    <path d="M0 6.438l.112-.095c.02 3.693-.006 7.386.012 11.079-.013.477.555.628.939.612h21.67c.386.017.974-.12.954-.61.011-3.694.008-7.391.001-11.087l.108.097v11.354c-.144.06-.371.148-.333.343H.478A1.021 1.021 0 0 0 0 17.788V6.441z"/>
    <path d="M6.301 7.931c.325.004.65.005.974.005-.005.284-.003.569-.006.853.175-.174.357-.342.532-.515.23.23.458.459.683.693-.411.404-.825.804-1.235 1.208-.006.397-.012.794-.014 1.191.346-.193.69-.389 1.038-.581.162-.553.313-1.109.472-1.663.313.086.626.174.939.262-.065.237-.132.473-.196.711.248-.139.497-.273.745-.412.159.281.318.563.475.846-.249.139-.495.281-.743.421l.722.199-.27.939c-.545-.13-1.077-.315-1.624-.434-.39.108-.716.379-1.075.564.337.2.674.399 1.006.602.565-.139 1.125-.294 1.691-.432.081.314.162.63.241.946l-.72.19c.244.143.486.291.729.432l-.496.836c-.244-.145-.49-.285-.733-.432.06.243.118.487.18.728-.317.081-.632.161-.948.239-.141-.553-.285-1.107-.421-1.662-.34-.207-.683-.41-1.028-.608-.007.394-.01.786-.021 1.18.394.422.808.826 1.209 1.24-.231.231-.462.461-.695.688-.174-.181-.353-.356-.526-.538-.001.283-.008.566-.01.85-.325.001-.65-.001-.974-.005.004-.284.003-.569.004-.853-.175.177-.357.349-.533.527l-.682-.693c.412-.411.833-.81 1.24-1.226.001-.39.008-.782.012-1.173-.354.191-.706.388-1.052.595-.144.552-.306 1.099-.461 1.649l-.937-.259c.065-.239.132-.477.196-.715-.246.14-.496.273-.742.413a70.717 70.717 0 0 1-.478-.848c.249-.136.493-.278.74-.415-.239-.07-.478-.138-.717-.206.088-.31.176-.622.266-.933.559.151 1.116.307 1.675.453.344-.2.692-.392 1.041-.584-.344-.202-.69-.403-1.034-.606-.562.145-1.122.289-1.684.43-.079-.313-.156-.627-.233-.941.241-.063.479-.127.718-.191-.244-.143-.484-.291-.727-.43.163-.281.327-.56.494-.837.244.144.491.282.735.426l-.182-.72c.314-.086.63-.168.945-.248.141.556.285 1.111.426 1.668.343.205.685.408 1.03.608.006-.395.01-.789.017-1.184-.4-.417-.808-.823-1.209-1.237.23-.232.463-.461.699-.686.174.179.35.352.523.53.001-.284.011-.569.012-.853zM16.617 7.931c.325.004.65.005.974.005-.005.283-.003.566-.006.851.176-.172.357-.34.532-.513.23.23.459.461.684.693-.412.403-.825.804-1.236 1.207-.006.397-.013.794-.014 1.191.349-.193.696-.39 1.043-.587l.464-1.656.94.259a83.5 83.5 0 0 0-.195.715c.246-.14.497-.274.745-.414.159.282.318.564.475.847-.249.138-.495.281-.743.419.241.068.481.137.722.203-.089.313-.18.626-.271.939-.558-.149-1.113-.306-1.669-.459-.343.194-.688.388-1.029.585.338.205.679.404 1.02.606.558-.148 1.116-.294 1.676-.437.082.315.162.632.242.948l-.721.19c.245.141.486.289.729.432-.164.28-.329.558-.496.837-.244-.148-.49-.287-.733-.434l.181.728-.948.242c-.145-.559-.283-1.121-.432-1.679a40.1 40.1 0 0 1-1.02-.602c-.005.404-.01.809-.01 1.215.402.402.803.808 1.198 1.217-.232.23-.464.462-.701.686-.173-.182-.347-.362-.519-.544-.001.285-.008.57-.01.855-.326 0-.651-.003-.976-.006.005-.284.004-.567.008-.852-.177.176-.361.346-.538.523-.227-.231-.454-.462-.683-.692.319-.311.637-.625.959-.931.477-.334.228-.98.294-1.466-.35.191-.699.387-1.045.584-.151.555-.31 1.108-.466 1.661-.313-.087-.625-.174-.938-.263l.198-.713c-.246.139-.496.273-.742.412a70.468 70.468 0 0 1-.478-.846c.249-.137.493-.28.741-.418a79.215 79.215 0 0 0-.718-.203c.087-.311.176-.623.267-.934.546.136 1.081.322 1.633.432.388-.12.715-.381 1.073-.565l-1.015-.601c-.565.138-1.128.285-1.691.429-.08-.314-.158-.628-.235-.942.239-.064.479-.127.718-.193-.242-.14-.483-.285-.726-.424.159-.284.325-.565.495-.844.242.143.487.281.731.424l-.18-.717c.314-.084.628-.168.944-.249.145.558.285 1.117.432 1.674.342.2.682.403 1.023.603.008-.396.013-.793.017-1.189-.401-.412-.807-.82-1.208-1.233.231-.231.464-.459.699-.686.173.179.351.351.525.529.001-.284.011-.567.012-.852z"/>
</svg>
