<svg xmlns="http://www.w3.org/2000/svg" width="24" height="24">
    <path opacity=".05" d="M0 4h.516c-.19.161-.363.343-.516.54V4z"/>
    <path d="M.516 4h22.817c.193.154.373.326.548.5v14.866c-.173.302-.448.584-.827.549-7.369.013-14.737 0-22.105.007-.409.049-.752-.19-.948-.531V4.54c.153-.197.326-.379.516-.54zm.003.276c-.259.116-.327.415-.311.675.003 4.7-.001 9.401.003 14.101-.044.356.251.703.62.659 7.407.005 14.813.005 22.219-.001.368.043.663-.303.619-.658 0-4.74.006-9.482-.003-14.223.041-.405-.359-.676-.732-.621-7.286-.003-14.573.003-21.859-.003-.184.011-.382-.012-.553.071z"/>
    <path d="M.999 4.546c7.149-.068 14.303-.007 21.455-.03.468-.077.941.3.873.793 0 4.461.006 8.922-.003 13.383.031.406-.349.746-.746.709-7.093.005-14.185.001-21.277.003-.413.055-.841-.275-.806-.711C.486 14.231.492 9.766.492 5.304c-.031-.332.171-.683.507-.758zm.122.233c-.319.106-.471.45-.438.769C.686 9.85.68 14.152.686 18.454a.677.677 0 0 0 .741.734c7.01-.003 14.02.005 21.031-.003.391.026.717-.344.677-.726.003-4.343.006-8.685-.001-13.028.033-.429-.389-.746-.794-.705-6.891-.006-13.783.003-20.673-.003-.181.005-.369-.003-.545.056z"/>
    <path d="M5.749 6.069c3.895.003 7.79-.003 11.685.003.672-.027.66.801.856 1.254.399.969.356 2.033.267 3.055-.664.049-1.33.019-1.995.027-.027-.701-.682-1.261-1.381-1.129-.587.044-.981.574-1.027 1.132-1.585-.006-3.168-.001-4.752-.003-.036-.655-.601-1.23-1.277-1.146-.631-.005-1.082.554-1.131 1.149-.554-.019-1.111.032-1.665-.029-.271-1.271.045-2.559.615-3.707l-.201-.157c.003-.149.005-.299.006-.449zm.471.523c-.229.596-.515 1.175-.66 1.799.681.015 1.363.018 2.044-.001a33.57 33.57 0 0 0 .006-1.795 9.484 9.484 0 0 0-1.39-.003zm1.689.003c-.011.598-.015 1.197.005 1.796.625.014 1.251.032 1.876-.017-.165-.601-.294-1.236-.595-1.781-.427-.048-.859-.021-1.286.003zm1.658.007c.157.587.317 1.179.536 1.747.557.11 1.155.069 1.721-.003-.179-.592-.353-1.188-.575-1.767-.561-.009-1.123-.027-1.681.023zm2.045-.004c.154.61.337 1.213.555 1.803.561-.003 1.123.018 1.683-.024-.159-.603-.291-1.243-.596-1.786a11.551 11.551 0 0 0-1.643.007zm2.059-.006c.142.61.341 1.206.537 1.801a20.9 20.9 0 0 0 1.698-.012 11.556 11.556 0 0 0-.542-1.745c-.541-.147-1.133-.041-1.693-.044zm2.092.009c.146.603.347 1.191.533 1.784.553-.032 1.199.151 1.697-.086-.137-.583-.349-1.146-.54-1.715-.563-.018-1.127-.031-1.689.017z"/>
    <path d="M7.923 9.54c.621-.228 1.323.377 1.18 1.026-.089.681-1.015 1.009-1.507.527-.529-.426-.334-1.38.327-1.552zM15.087 9.54c.62-.227 1.322.377 1.179 1.026-.089.681-1.015 1.009-1.507.527-.53-.426-.334-1.381.329-1.552zM9.363 15.908c0-1.316-.003-2.631 0-3.947 2.913-.001 5.827 0 8.74 0 .003 1.316-.003 2.631-.003 3.947-.319 0-.637 0-.954-.003l-.075.227.536.035.007.471c-.18.175-.361.351-.545.523-.1-.528-.368-1.09-.935-1.235-.807-.303-1.727.314-1.785 1.168-1.74.003-3.479-.003-5.218.003-.043-.855-.963-1.461-1.765-1.179-.545.13-.849.654-.93 1.174l-.623.003c.014-.781-.035-1.565.017-2.344.281-.646.654-1.247.981-1.869.762.003 1.525 0 2.288.001.003 1.085 0 2.171.003 3.256 1.737-.001 3.475.003 5.213-.003a17.34 17.34 0 0 0-.005-.228c-1.649-.003-3.298 0-4.947-.001zm-2.438-2.762c-.27.54-.542 1.079-.807 1.623l1.073.001c.163-.541.327-1.082.487-1.623l-.753-.001zm.545 1.623h1.147c.001-.541 0-1.081-.003-1.621l-.665-.001c-.163.54-.323 1.081-.48 1.623z"/>
    <path d="M7.445 16.115c.738-.267 1.626.462 1.373 1.244-.216.841-1.476 1.019-1.945.303-.421-.539-.077-1.392.572-1.547zM15.437 16.097c.731-.216 1.552.525 1.298 1.274-.228.845-1.507 1.002-1.958.265-.417-.565-.012-1.426.66-1.539z"/>
    <path fill="#fff" d="M.519 4.276c.171-.083.369-.061.553-.071 7.286.006 14.573 0 21.859.003.373-.055.773.216.732.621.009 4.741.003 9.483.003 14.223.044.355-.251.701-.619.658a14960 14960 0 0 1-22.219.001c-.369.044-.664-.303-.62-.659C.205 14.351.209 9.65.205 4.951c-.015-.259.053-.559.311-.675zm.48.27c-.337.075-.539.426-.507.758.001 4.462-.005 8.927.003 13.389-.035.436.393.765.806.711 7.093-.001 14.185.003 21.277-.003.397.037.777-.303.746-.709.009-4.461.003-8.922.003-13.383.068-.493-.405-.871-.873-.793-7.152.023-14.307-.038-21.455.03z"/>
    <path fill="#fff" d="M1.121 4.779c.175-.059.363-.051.545-.056 6.891.007 13.783-.003 20.673.003.405-.042.827.276.794.705.007 4.343.003 8.685.001 13.028.039.382-.287.752-.677.726-7.01.009-14.02.001-21.031.003-.413.05-.791-.32-.741-.734C.68 14.152.686 9.85.682 5.548c-.033-.319.119-.663.438-.769zm4.628 1.29c-.001.151-.003.3-.006.449l.201.157c-.569 1.149-.886 2.437-.615 3.707.553.061 1.111.009 1.665.029.049-.595.5-1.153 1.131-1.149.677-.083 1.242.491 1.277 1.146 1.585.001 3.168-.003 4.752.003.045-.557.439-1.088 1.027-1.132.7-.131 1.354.429 1.381 1.129.665-.009 1.331.021 1.995-.027.089-1.022.131-2.087-.267-3.055-.196-.453-.184-1.281-.856-1.254-3.895-.006-7.79 0-11.685-.003zM7.923 9.54c-.661.172-.856 1.126-.327 1.552.492.483 1.417.154 1.507-.527.143-.649-.559-1.254-1.18-1.026zm7.164 0c-.663.171-.859 1.126-.329 1.552.492.483 1.417.154 1.507-.527.143-.649-.559-1.253-1.179-1.026zm-5.724 6.368c1.649.001 3.298-.001 4.947.001l.005.228c-1.739.005-3.476.001-5.213.003-.003-1.085.001-2.171-.003-3.256-.763-.001-1.526.001-2.288-.001-.327.622-.701 1.223-.981 1.869-.051.779-.003 1.563-.017 2.344l.623-.003c.081-.519.386-1.043.93-1.174.803-.283 1.722.323 1.765 1.179 1.739-.007 3.478 0 5.218-.003.059-.854.978-1.471 1.785-1.168.567.145.835.707.935 1.235.184-.172.364-.347.545-.523l-.007-.471a90.47 90.47 0 0 1-.536-.035l.075-.227c.317.003.635.003.954.003.001-1.316.006-2.631.003-3.947-2.913 0-5.827-.001-8.74 0-.003 1.316 0 2.631 0 3.947zm-1.918.207c-.649.155-.993 1.009-.572 1.547.469.715 1.729.537 1.945-.303.253-.782-.635-1.511-1.373-1.244zm7.992-.018c-.672.113-1.077.974-.66 1.539.451.737 1.73.58 1.958-.265.254-.749-.567-1.49-1.298-1.274z"/>
    <path fill="#fff" d="M6.22 6.592a9.77 9.77 0 0 1 1.39.003 33.57 33.57 0 0 1-.006 1.795c-.681.019-1.363.017-2.044.001.146-.625.431-1.203.66-1.799zM7.909 6.595c.427-.024.859-.05 1.286-.003.301.546.43 1.181.595 1.781-.625.049-1.251.031-1.876.017a35.843 35.843 0 0 1-.005-1.796zM9.567 6.602c.559-.05 1.12-.032 1.681-.023.222.579.397 1.175.575 1.767-.566.071-1.164.112-1.721.003-.22-.569-.38-1.159-.536-1.747zM11.612 6.598a11.405 11.405 0 0 1 1.643-.007c.305.543.437 1.183.596 1.786-.561.042-1.123.021-1.683.024a17.456 17.456 0 0 1-.555-1.803zM13.671 6.592c.56.003 1.152-.103 1.693.044.229.563.405 1.151.542 1.745a20.9 20.9 0 0 1-1.698.012c-.196-.595-.395-1.191-.537-1.801zM15.763 6.601c.563-.048 1.127-.035 1.689-.017.191.569.403 1.132.54 1.715-.498.237-1.144.054-1.697.086-.185-.592-.387-1.181-.533-1.784zM6.925 13.146l.753.001c-.16.541-.325 1.082-.487 1.623l-1.073-.001c.265-.543.537-1.083.807-1.623zM7.47 14.769c.157-.542.317-1.083.48-1.623l.665.001c.003.541.003 1.081.003 1.621H7.471z"/>
</svg>
