<svg xmlns="http://www.w3.org/2000/svg" width="24" height="24">
    <path fill="#151515" opacity=".58" d="M2.138 5.302h2.686l-.145.018c-.896.081-1.803.104-2.699.015l.159-.033z"/>
    <path fill="#1f1f1f" opacity=".86" d="M4.824 5.302h17.163l.161.028c-.836.109-1.679.053-2.518.06-4.69-.025-9.38-.021-14.07.003-.295-.003-.588-.04-.881-.073l.145-.018z"/>
    <path fill="#030303" d="M0 6.042c.182-.937 1.307-.588 1.98-.707a14.15 14.15 0 0 0 2.699-.015c.293.032.587.07.881.073 4.69-.023 9.38-.027 14.07-.003.839-.007 1.682.049 2.518-.06.57.106 1.245-.107 1.735.268.306.409.191.967.279 1.444-.032.319-.075.636-.076.956.033 2.19.015 4.38.015 6.57.009.833-.078 1.672.061 2.5-.018.624-.013 1.617-.88 1.609-.319-.021-.638-.059-.957-.066-6.881 0-13.762.006-20.642-.003-.303.008-.604.054-.906.081A.9.9 0 0 1 0 18.065V6.041zm.787-.113c-.269.081-.296.397-.291.633C.5 10.245.49 13.927.501 17.609a.467.467 0 0 0 .504.507c7.333.008 14.667 0 22 .003.308.049.624-.181.59-.511.009-3.711.005-7.423.003-11.134.04-.3-.177-.625-.507-.568-7.434.015-14.872-.03-22.303.022z"/>
    <path fill="#030303" d="M6.501 14.615l.219.003-.001 1.789-.217.004c-.001-.599.001-1.197-.001-1.796zM2.287 15.156c-.05-.626.926-.7 1.191-.226l-.248.058a39.55 39.55 0 0 0-.21-.203c-.212.028-.558.056-.48.361.197.38.856.295.944.774.036.694-1.12.749-1.308.146l.235-.04.196.271c.265.042.681-.012.63-.377-.237-.349-.878-.283-.949-.762zM5.087 16.414c0-.6.002-1.201-.001-1.801l.235.01c-.002.231-.004.462-.015.693.237-.148.585-.285.8-.027.152.351.055.751.083 1.123l-.234-.008c-.005-.313.033-.631-.028-.939-.104-.232-.488-.137-.566.08-.076.277-.033.57-.041.855l-.233.015zM10.836 14.618l.229-.002c-.003.606.001 1.211-.003 1.816a13.72 13.72 0 0 1-.29-.078c-.161.046-.324.129-.495.092-.564-.159-.569-1.141 0-1.293.208-.069.395.074.57.164-.009-.233-.011-.467-.013-.699zm-.53.733c-.369.207-.287 1.029.223.941.526-.114.343-1.207-.223-.941zM16.572 15.278c.252-.29.43-.897.934-.57-.256.059-.525.137-.523.449.176.021.351.044.526.081-.161.064-.331.099-.5.136.02.344.018.691-.002 1.036a14.986 14.986 0 0 0-.212-.003c-.001-.344-.003-.688.003-1.033l-.227-.095zM18.982 16.409c.001-.598.002-1.197-.001-1.796l.218.005-.003.7c.237-.149.594-.292.807-.027.147.349.051.747.079 1.117a17.485 17.485 0 0 0-.229-.003c-.003-.294.02-.59-.016-.882-.036-.296-.498-.222-.578.017-.087.281-.056.579-.065.87l-.212-.001zM3.731 15.438c.214-.44.969-.394 1.103.092-.188-.058-.357-.159-.54-.229-.515.004-.558.896-.076.985.165.044.286-.09.411-.171l.207.031c-.184.237-.485.397-.786.281-.407-.121-.474-.651-.319-.989zM7.078 16.075c-.19-.439.171-1.026.676-.932.339.023.442.377.478.658-.34.015-.681.01-1.021.018.076.274.263.517.579.483a2.8 2.8 0 0 1 .41-.246c-.075.564-.975.513-1.121.02zm.157-.4c.268.004.539.005.808-.001-.099-.475-.689-.454-.808.001zM8.488 15.18l.226-.004c.008.333-.035.673.038.999.18.214.533.066.582-.185.056-.268.03-.544.033-.815l.218.004c-.003.427.009.855-.013 1.282-.089-.05-.177-.099-.263-.152-.222.154-.566.228-.749-.02-.131-.352-.051-.741-.071-1.108zM11.396 16.073c-.213-.461.22-1.077.737-.916.306.054.374.387.416.645-.338.013-.676.01-1.014.016.065.278.253.509.563.483.139-.112.296-.197.48-.193-.229.47-1.005.469-1.183-.035zm.154-.398c.269.005.537.005.805 0-.088-.488-.683-.445-.805 0zM12.839 15.126c.088.048.174.098.258.15.153-.066.313-.119.473-.164l.017.208c-.64-.066-.56.664-.545 1.089l-.215.002c.003-.429-.01-.857.013-1.285zM14.094 16.395c-.552-.167-.518-1.141.058-1.247.18-.05.341.066.5.131.078-.054.156-.106.236-.157.015.501.058 1.011-.027 1.507-.213.453-.938.407-1.184.002l.225-.021c.324.413.89.099.828-.392-.191.114-.402.253-.636.177zm.233-.082c.44-.162.509-.921-.007-1.014-.53.063-.501.921.007 1.014zM15.224 16.014c-.162-.465.282-1.019.78-.851.297.063.346.392.391.641-.339.012-.679.008-1.019.015.076.271.26.519.574.478.142-.091.29-.17.447-.232-.147.563-1.06.501-1.173-.052zm.173-.339c.27.005.54.005.81-.001-.103-.481-.683-.442-.81.001zM17.538 15.541c.134-.427.716-.531 1.034-.253.112.379.04.784.081 1.174a9.34 9.34 0 0 1-.283-.142c-.253.164-.704.224-.796-.149-.018-.46.585-.432.891-.569-.126-.546-.609-.186-.928-.061zm.267.64c.274.334.661-.074.636-.399-.227.078-.633.074-.636.399zM20.447 15.119c.084.053.169.108.251.164.185-.107.395-.184.589-.047-.19.102-.488.09-.587.314-.068.279-.033.57-.038.855l-.227.005c.003-.43-.009-.861.011-1.29z"/>
    <path fill="#fff" d="M.787 5.929c7.432-.051 14.869-.008 22.303-.022.33-.057.547.268.507.568.003 3.711.007 7.423-.003 11.134.035.329-.281.559-.59.511-7.334-.003-14.667.004-22-.003A.467.467 0 0 1 .5 17.61C.489 13.929.499 10.246.495 6.563c-.004-.236.023-.553.291-.633zm12.162 4.263c.1.719.159 1.443.239 2.165l-.76.003c.087-.445-.048-.88-.201-1.294-.382.003-.765-.002-1.148.005-.435-.408-.838-.847-1.265-1.263-.181-.199-.478-.116-.716-.137-1.034.025-2.073-.038-3.104.03-.628.383-1.121.969-1.754 1.349-.716.066-1.431.132-2.148.188-.071.253-.205.505-.191.774.116.322.322.603.449.921.169.015.339.028.508.035l.269.137.27-.387c-.114.351-.021.807.328.99.435.326 1.075-.012 1.196-.501l.096-.15c1.389.054 2.78.036 4.169.013l-.052-.097.069-.28c-.028.284.083.557.231.794.314.4.923.465 1.276.078.159-.188.31-.397.354-.645l.023.093c.37-.022.739-.052 1.11-.068a6.68 6.68 0 0 1 .123-.2c1.237-.007 2.476.002 3.714-.004.001-.77.701-1.466 1.488-1.349.741-.035 1.262.673 1.318 1.352.883-.016 1.768.023 2.649-.018.261-.361.169-.857.276-1.274.165-.954.103-1.919-.07-2.867-.06-.24-.011-.724-.372-.698-2.661-.006-5.321-.005-7.981 0-.323.721-.223 1.545-.393 2.307zm4.011 1.62c-.36.181-.622.574-.579.987-.021.71.847 1.288 1.484.929.562-.253.835-1.036.443-1.545-.262-.463-.885-.553-1.347-.372zM6.501 14.615c.002.599 0 1.197.001 1.796l.217-.004.001-1.789-.219-.003zm-4.214.541c.071.479.712.414.949.762.052.366-.364.42-.63.377l-.196-.271-.235.04c.189.603 1.345.549 1.308-.146-.088-.479-.747-.394-.944-.774-.078-.304.268-.332.48-.361l.21.203.248-.058c-.265-.474-1.24-.4-1.191.226zm2.8 1.258l.233-.015c.008-.285-.035-.578.041-.855.078-.217.463-.311.566-.08.061.308.023.627.028.939l.234.008c-.028-.372.069-.772-.083-1.123-.215-.258-.564-.121-.8.027.01-.231.013-.462.015-.693a18.459 18.459 0 0 0-.235-.01c.003.6.001 1.201.001 1.801zm5.749-1.796c.002.233.003.466.013.699-.175-.089-.362-.233-.57-.164-.569.152-.564 1.135 0 1.293.17.037.334-.046.495-.092l.29.078c.003-.606-.001-1.211.003-1.816l-.229.002zm5.736.66l.227.095c-.006.344-.004.688-.003 1.033l.212.003c.02-.345.022-.692.002-1.036.169-.037.339-.071.5-.136a5.806 5.806 0 0 0-.526-.081c-.002-.313.267-.39.523-.449-.505-.327-.683.281-.934.57zm2.41 1.131l.212.001c.008-.29-.022-.589.065-.87.08-.238.542-.313.578-.017.036.292.013.588.016.882l.229.003c-.028-.37.068-.767-.079-1.117-.213-.265-.57-.122-.807.027.002-.233.003-.467.003-.7a15.498 15.498 0 0 1-.218-.005c.003.598.002 1.197.001 1.796zm-15.251-.971c-.155.338-.088.868.319.989.301.116.602-.045.786-.281l-.207-.031c-.124.081-.246.215-.411.171-.482-.089-.439-.981.076-.985.183.07.352.171.54.229-.135-.486-.89-.531-1.103-.092zm3.347.637c.147.494 1.047.545 1.121-.02-.144.069-.28.153-.41.246-.315.035-.503-.209-.579-.483.34-.008.681-.003 1.021-.018-.035-.281-.138-.635-.478-.658-.505-.094-.866.493-.676.932zm1.41-.895c.02.368-.061.756.071 1.108.183.248.527.174.749.02.086.053.174.103.263.152.023-.427.011-.855.013-1.282l-.218-.004c-.003.271.023.548-.033.815-.048.251-.401.399-.582.185-.073-.327-.03-.666-.038-.999-.056.002-.169.003-.226.004zm2.908.893c.177.505.954.506 1.183.035-.185-.004-.341.081-.48.193-.31.025-.498-.205-.563-.483.338-.006.676-.003 1.014-.016-.042-.257-.109-.591-.416-.645-.516-.161-.951.455-.737.916zm1.443-.947c-.023.428-.01.856-.013 1.285l.215-.002c-.015-.425-.094-1.155.545-1.089l-.017-.208c-.16.046-.319.099-.473.164a6.652 6.652 0 0 0-.258-.15zm1.255 1.269c.233.076.445-.064.636-.177.063.49-.504.804-.828.392l-.225.021c.246.405.971.451 1.184-.002.085-.496.041-1.007.027-1.507a8.05 8.05 0 0 0-.236.157c-.159-.066-.319-.181-.5-.131-.576.106-.61 1.081-.058 1.247zm1.13-.381c.112.553 1.025.615 1.173.052a2.527 2.527 0 0 0-.447.232c-.314.04-.498-.208-.574-.478.339-.008.679-.003 1.019-.015-.045-.249-.094-.578-.391-.641-.498-.169-.942.386-.78.851zm2.314-.473c.319-.126.801-.485.928.061-.306.137-.91.109-.891.569.092.373.543.313.796.149.094.049.188.096.283.142-.041-.389.03-.794-.081-1.174-.318-.279-.9-.174-1.034.253zm2.909-.422c-.02.43-.008.86-.011 1.29l.227-.005c.005-.285-.03-.576.038-.855.099-.223.397-.212.587-.314-.194-.137-.404-.06-.589.047a9.798 9.798 0 0 0-.251-.164z"/>
    <path fill="#fff" d="M14.1 8.802a14.33 14.33 0 0 1 1.451-.005c.119 1.181.023 2.374.054 3.559-.506.004-1.012.002-1.517.002-.054-1.182-.073-2.375.013-3.556zM18.081 8.802c.925-.023 1.855-.047 2.78.013.02.475.018.951.003 1.425-.921.099-1.859.063-2.783.025a3.26 3.26 0 0 1 .002-1.464zM5.793 10.168c.354-.345.889-.143 1.328-.195.001.365.001.731-.003 1.095-.797-.007-1.594.012-2.39-.011.349-.303.705-.599 1.065-.89zM7.384 9.981c.508-.006 1.017-.003 1.526-.003.267.352.509.724.767 1.082-.737.007-1.475.017-2.212 0-.18-.314-.038-.727-.08-1.079zM7.235 15.675c.119-.455.709-.476.808-.001-.27.006-.539.005-.808.001zM10.306 15.351c.566-.265.75.827.223.941-.511.088-.592-.735-.223-.941zM11.55 15.675c.122-.445.718-.488.805 0-.268.005-.537.005-.805 0zM14.327 16.313c-.508-.094-.537-.951-.007-1.014.516.094.448.853.007 1.014zM15.397 15.675c.127-.443.708-.482.81-.001-.271.006-.541.006-.81.001zM17.805 16.181c.003-.324.41-.321.636-.399.025.324-.362.732-.636.399z"/>
    <path fill="#1f1917" d="M12.949 10.192c.17-.762.071-1.586.393-2.307 2.66-.005 5.32-.006 7.981 0 .361-.026.311.458.372.698.172.948.235 1.913.07 2.867-.106.417-.015.913-.276 1.274-.881.042-1.766.003-2.649.018-.056-.68-.578-1.387-1.318-1.352-.787-.117-1.487.579-1.488 1.349-1.239.006-2.477-.003-3.714.004-.041.066-.083.133-.123.2-.371.016-.74.046-1.11.068l-.023-.093c-.05-.98-1.616-1.185-1.861-.226l-.069.28c-1.312.041-2.625.003-3.937.021-.188-.424-.447-.951-.992-.931-.574-.086-.964.415-1.095.914l-.25-.009c-.169-.008-.339-.02-.508-.035-.127-.319-.333-.6-.449-.921-.013-.269.121-.52.191-.774a140.31 140.31 0 0 0 2.148-.188c.633-.38 1.126-.966 1.754-1.349 1.03-.068 2.07-.006 3.104-.03.238.021.535-.061.716.137.427.415.831.855 1.265 1.263.382-.007.765-.003 1.148-.005.153.414.288.848.201 1.294.253-.003.506-.003.76-.003-.081-.722-.139-1.447-.239-2.165zm1.151-1.39c-.085 1.181-.066 2.374-.013 3.556.506 0 1.011.003 1.517-.002-.03-1.185.065-2.378-.054-3.559a14.332 14.332 0 0 0-1.451.005zm3.981 0a3.274 3.274 0 0 0-.002 1.464c.925.037 1.862.073 2.783-.025.016-.474.018-.951-.003-1.425-.924-.061-1.854-.037-2.78-.013zM5.793 10.168c-.36.291-.716.587-1.065.89.796.023 1.593.004 2.39.011.003-.365.003-.731.003-1.095-.439.051-.974-.151-1.328.195zm1.591-.187c.042.352-.099.765.08 1.079.737.017 1.475.007 2.212 0-.258-.358-.5-.729-.767-1.082-.509-.001-1.017-.003-1.526.003z"/>
    <path fill="#1f1917" d="M16.96 11.812c.462-.181 1.085-.092 1.347.372.392.509.119 1.292-.443 1.545-.636.359-1.505-.219-1.484-.929-.042-.413.22-.807.579-.987zM3.397 12.719c.2-.356.645-.598 1.04-.409.365.137.504.536.483.898-.121.488-.761.827-1.196.501-.349-.183-.442-.64-.328-.99zM9.433 13.488c-.263-.517.042-1.264.678-1.242.665-.008.994.817.598 1.319-.353.387-.962.323-1.276-.078z"/>
    <path fill="#c2c2c0" d="M3.109 12.978c.131-.499.521-1 1.095-.914.546-.02.804.507.992.931 1.312-.018 2.625.02 3.937-.021l.052.097c-1.389.023-2.78.041-4.169-.013l-.096.15c.02-.362-.119-.762-.483-.898-.396-.19-.84.053-1.04.409l-.27.387-.269-.137.25.009z"/>
    <path fill="#cac8c7" d="M9.203 12.694c.245-.959 1.811-.754 1.861.226-.044.248-.195.458-.354.645.396-.502.066-1.328-.598-1.319-.636-.022-.942.724-.678 1.242-.147-.237-.258-.51-.231-.794z"/>
    <path fill="#1b1b1b" d="M.777 18.69c.303-.027.603-.073.906-.081 6.881.009 13.762.003 20.642.003.319.008.638.046.957.066l-.113.018-22.393-.008z"/>
</svg>
