<svg xmlns="http://www.w3.org/2000/svg" width="24" height="24">
    <path fill="#231f20" d="M.43 6h23.184a.867.867 0 0 1 .336.325V17.68a2.256 2.256 0 0 1-.37.32H.469a1.081 1.081 0 0 1-.468-.587V6.589c.062-.246.24-.433.43-.589zm.185.114a.812.812 0 0 0-.464.579c-.003 3.504 0 7.008-.002 10.511a.717.717 0 0 0 .695.696c7.487-.001 14.974.002 22.461-.001.297-.063.598-.32.595-.645V6.745c-.01-.317-.264-.641-.596-.647-7.419.002-14.839 0-22.259 0-.144.006-.291-.018-.431.015z"/>
    <path fill="#231f20" d="M.592 6.498c1.177-.001 2.355.001 3.533-.001 1.07 1.746 2.193 3.46 3.275 5.199.06.105.161.198.173.322-1.154 1.81-2.292 3.63-3.451 5.436a693.843 693.843 0 0 0-3.534 0c1.128-1.752 2.229-3.522 3.351-5.277.03-.075.133-.147.081-.234C2.887 10.122 1.71 8.327.591 6.497zM8.548 6.501c1.163-.007 2.327-.001 3.491-.003 1.155 1.794 2.285 3.606 3.433 5.406.052.085-.011.177-.056.251-1.105 1.771-2.244 3.522-3.341 5.298-1.178-.003-2.355.005-3.532-.004 1.133-1.828 2.295-3.639 3.45-5.452-.916-1.445-1.83-2.892-2.748-4.337-.228-.389-.513-.747-.698-1.158zM16.461 6.502c1.177-.009 2.354-.002 3.532-.004a431.768 431.768 0 0 0 3.469 5.476c-1.14 1.834-2.314 3.646-3.456 5.478h-3.534c1.137-1.836 2.322-3.642 3.453-5.481a433.563 433.563 0 0 1-3.463-5.469z"/>
    <path fill="#fff" d="M.615 6.114c.14-.033.288-.009.431-.015h22.259c.333.006.586.329.596.646v10.509c.003.324-.299.581-.595.645-7.487.003-14.974 0-22.461.001a.717.717 0 0 1-.695-.696C.151 13.7.148 10.196.152 6.693a.806.806 0 0 1 .464-.579zm-.023.384c1.119 1.83 2.296 3.624 3.429 5.446.052.087-.052.159-.081.234-1.122 1.755-2.223 3.525-3.351 5.277 1.178-.003 2.355-.003 3.534 0 1.16-1.806 2.298-3.626 3.451-5.436-.012-.124-.113-.217-.173-.322-1.083-1.739-2.205-3.453-3.275-5.199-1.177.002-2.355 0-3.533.001zm7.956.003c.184.413.47.77.698 1.158.917 1.445 1.831 2.892 2.748 4.337-1.155 1.813-2.317 3.624-3.45 5.452 1.177.009 2.354.002 3.532.004 1.097-1.776 2.235-3.527 3.341-5.298.045-.073.107-.166.056-.251-1.148-1.8-2.277-3.611-3.433-5.406-1.164.002-2.328-.004-3.49.003zm7.913.001a430.625 430.625 0 0 0 3.464 5.469c-1.131 1.839-2.316 3.645-3.453 5.481h3.534c1.143-1.832 2.317-3.645 3.456-5.478a431.768 431.768 0 0 1-3.469-5.476c-1.177.003-2.355-.005-3.532.004z"/>
</svg>
