<svg xmlns="http://www.w3.org/2000/svg" width="24" height="24">
    <path fill="#fff" d="M1.077 3.108c.182-.073.38-.082.574-.083 6.924.002 13.848-.001 20.772.002.824-.022 1.573.726 1.55 1.55v14.846c.023.824-.726 1.573-1.549 1.55-6.949.002-13.898.002-20.847 0-.823.022-1.573-.726-1.549-1.549-.002-4.949-.002-9.898 0-14.847-.017-.649.444-1.258 1.05-1.469zm.303.313C.809 3.513.37 4.068.4 4.645.402 9.573.396 14.502.402 19.43c-.005.646.6 1.205 1.242 1.171h20.711c.674.039 1.284-.572 1.245-1.245-.002-4.928.004-9.856-.002-14.785 0-.645-.598-1.209-1.243-1.171-6.991.014-13.985-.028-20.975.021z"/>
    <path fill="#fff" d="M1.455 4.02c6.939-.047 13.883-.005 20.825-.021.376-.056.754.256.719.646v14.711a.611.611 0 0 1-.644.644H1.645a.61.61 0 0 1-.644-.645V4.645a.606.606 0 0 1 .454-.625zm9.908 1.508c-1.64.147-3.518.826-4.219 2.446-.5 1.228.349 2.525 1.408 3.125 2.057 1.201 4.783 1.207 6.852.03.811-.487 1.549-1.286 1.593-2.275.056-.995-.629-1.86-1.426-2.376-1.233-.803-2.758-1.06-4.208-.949zM7 11.251v1.498a16670 16670 0 0 0 10.001 0v-1.498c-.569.055-1.216-.164-1.704.218-2.153 1.116-4.894 1.035-6.976-.209-.44-.026-.88-.002-1.32-.009zm.679 1.764c-.184.042-.185.256-.181.406.009.778-.008 1.556.007 2.334.011.308.385.241.594.248.225-.011.64.076.645-.262-.002-.86.028-1.724-.015-2.583-.23-.303-.718-.114-1.051-.143zm1.5 0c-.242.071-.167.372-.181.561.026.764-.043 1.537.035 2.295.273.249.735.105 1.079.103.315-.263-.002-.764.207-1.082.176-.136.425-.062.633-.077.381-.023.535.436.896.479.29.071.571-.074.767-.28.237-.278.633-.202.955-.187.463.211-.139 1.084.452 1.168.305-.047.792.155.964-.178.019-.889.037-1.785-.009-2.672-.254-.282-.729-.11-1.069-.126-.378.248.049.854-.284 1.134-.343.066-.782.108-1.034-.19-.283-.337-.838-.371-1.136-.037-.258.323-.712.304-1.077.227-.313-.28.056-.821-.239-1.111-.305-.086-.643-.042-.959-.029zm6.228.004c-.195.074-.152.313-.159.478.013.767-.015 1.535.014 2.301.061.289.426.182.638.205.209-.007.584.059.595-.248-.002-.869.034-1.744-.018-2.609-.254-.282-.729-.11-1.069-.126zM7 16.748c.001.165-.001.331-.002.497a2.202 2.202 0 0 1 2.001.005c.629.329 1.393.32 2.021-.008.629-.332 1.393-.305 2.018.023.631.327 1.392.289 2.015-.037.609-.316 1.34-.283 1.948.016-.002-.166-.002-.332-.002-.497-.347-.154-.722-.273-1.106-.244-.659.016-1.2.515-1.867.494-.562.034-1.04-.302-1.562-.442-.541-.147-1.098.011-1.588.246-.599.29-1.312.239-1.897-.061A2.169 2.169 0 0 0 7 16.747zm.003.998l-.003.5c.41-.182.863-.304 1.315-.221.571.095 1.063.491 1.659.473.723.043 1.306-.526 2.027-.497.72-.031 1.304.54 2.026.497.667.021 1.207-.478 1.868-.494.385-.032.758.095 1.107.242l-.003-.5a2.172 2.172 0 0 0-1.966-.009c-.63.332-1.4.345-2.033.014a2.171 2.171 0 0 0-1.999 0 2.17 2.17 0 0 1-1.981.008 2.196 2.196 0 0 0-2.017-.013z"/>
    <path d="M1.38 3.421c6.99-.049 13.984-.007 20.975-.021.645-.038 1.243.526 1.243 1.171.006 4.928.001 9.857.002 14.785.039.674-.572 1.284-1.245 1.245H1.645c-.642.034-1.246-.524-1.242-1.171C.397 14.502.402 9.574.401 4.645c-.031-.577.409-1.132.98-1.224zm.075.599a.605.605 0 0 0-.454.625v14.71a.61.61 0 0 0 .644.645h20.711c.354.03.674-.29.644-.644V4.646c.034-.39-.343-.702-.719-.646-6.942.016-13.886-.026-20.825.021z"/>
    <path d="M11.363 5.528c1.45-.112 2.975.146 4.208.949.796.516 1.481 1.382 1.426 2.376-.044.99-.782 1.789-1.593 2.275-2.069 1.177-4.795 1.171-6.852-.03-1.059-.599-1.908-1.896-1.408-3.125.7-1.62 2.579-2.299 4.219-2.446zm-.236.654c-1.036.14-2.1.509-2.833 1.285-.478.495-.696 1.261-.419 1.91.354.843 1.195 1.355 2.023 1.652 1.579.53 3.389.468 4.882-.295.742-.389 1.455-1.078 1.468-1.97.008-.809-.587-1.474-1.244-1.87-1.152-.694-2.557-.871-3.876-.713z"/>
    <path d="M7 11.251c.44.007.88-.017 1.32.009 2.082 1.244 4.823 1.325 6.977.209.487-.382 1.136-.163 1.704-.218v1.498h-10a374 374 0 0 0 0-1.498zM7.679 13.015c.333.028.821-.16 1.051.143.043.859.014 1.723.015 2.583-.005.338-.42.251-.645.263-.209-.007-.584.059-.594-.248-.016-.778.002-1.556-.007-2.334-.004-.15-.003-.364.181-.406zM9.179 13.015c.316-.014.653-.058.959.028.295.29-.075.831.239 1.111.365.076.819.096 1.077-.227.298-.335.853-.301 1.136.037.252.298.691.256 1.034.19.332-.28-.095-.886.284-1.134.341.016.816-.156 1.069.126.046.887.028 1.784.009 2.672-.172.334-.659.131-.964.178-.591-.085.011-.957-.452-1.168-.322-.015-.718-.091-.955.187-.195.206-.477.352-.767.28-.361-.043-.515-.502-.896-.479-.208.014-.457-.06-.633.077-.209.318.108.818-.207 1.081-.344.002-.806.146-1.079-.103-.078-.758-.008-1.531-.035-2.295.014-.189-.061-.491.181-.561zM15.407 13.019c.341.016.816-.156 1.069.126.052.866.016 1.741.018 2.609-.011.308-.386.241-.595.248-.212-.023-.577.084-.638-.205-.028-.766-.001-1.534-.014-2.301.008-.164-.036-.404.159-.478z"/>
    <path fill="#ec7c25" d="M11.127 6.182c1.319-.158 2.724.019 3.876.712.657.397 1.252 1.062 1.244 1.87-.013.892-.726 1.581-1.468 1.97-1.493.763-3.303.825-4.882.295-.827-.296-1.669-.809-2.023-1.652-.277-.649-.058-1.415.419-1.91.733-.777 1.797-1.145 2.833-1.285z"/>
    <path fill="#154889" d="M7 16.748a2.172 2.172 0 0 1 1.979-.007c.585.3 1.297.351 1.897.061.49-.236 1.047-.393 1.588-.246.523.14 1 .476 1.562.442.667.021 1.207-.478 1.867-.494.385-.029.759.089 1.106.244l.002.497c-.608-.299-1.34-.332-1.948-.016-.622.325-1.384.364-2.015.037-.625-.328-1.388-.355-2.017-.023A2.195 2.195 0 0 1 9 17.251a2.202 2.202 0 0 0-2.001-.005l.002-.497z"/>
    <path fill="#154889" d="M7.003 17.746a2.196 2.196 0 0 1 2.017.013 2.17 2.17 0 0 0 1.981-.008 2.171 2.171 0 0 1 1.999 0 2.2 2.2 0 0 0 2.033-.014 2.172 2.172 0 0 1 1.966.009l.003.5c-.349-.148-.721-.274-1.107-.242-.66.016-1.201.515-1.868.494-.722.043-1.306-.527-2.027-.497-.72-.03-1.303.54-2.027.497-.595.019-1.088-.378-1.659-.473-.452-.083-.904.038-1.315.221l.003-.5z"/>
</svg>
