<svg xmlns="http://www.w3.org/2000/svg" width="24" height="24">
    <path fill="#ffd033" d="M1.726 0h20.533C23.16.119 23.867.882 24 1.769v20.413c-.09.944-.895 1.712-1.826 1.818H1.842C.917 23.89.139 23.165 0 22.24V1.779C.122.896.833.129 1.726.001zm.242.329C.986.456.253 1.425.3 2.398.304 8.876.292 15.354.305 21.832c-.008 1.044.919 1.98 1.969 1.955 6.523.006 13.049.008 19.573-.001 1.085.017 2.011-.985 1.951-2.062.004-6.442.002-12.883.001-19.325.065-1.124-.932-2.176-2.071-2.099C15.142.318 8.552.26 1.968.329z"/>
    <path fill="#ffd033" d="M1.847 1.03C8.47.938 15.105 1.017 21.732.99c.667-.078 1.325.473 1.265 1.163.004 6.565.005 13.13 0 19.696.04.63-.522 1.183-1.147 1.158-6.566.006-13.133.006-19.699 0-.625.026-1.188-.528-1.147-1.158-.005-6.565-.004-13.13 0-19.696-.037-.517.329-1.026.844-1.123zm2.312 9.609c-.402.457-.176 1.109-.226 1.658 1.558.01 3.115-.001 4.673.005.008.868-.002 1.736.006 2.605.449.005.896.005 1.345.001.007-.869-.002-1.739.005-2.608l1.586-.002c.006-.398 0-.798-.002-1.196-.528-.004-1.056-.004-1.583-.002-.01-2.309.002-4.619-.006-6.928l-1.111-.005c-1.583 2.142-3.114 4.322-4.687 6.472zm9.591-6.257c-.282 1.915-.548 3.832-.815 5.749.448-.026 1.038.27 1.362-.158.967-1.124 3.001-1.024 3.81.234.618 1.039.39 2.504-.506 3.314-1.236.99-3.547.402-3.685-1.338a45.677 45.677 0 0 0-1.385.001c.083.792.355 1.616.997 2.131 1.321 1.074 3.335 1.111 4.783.275 1.6-1.104 2.132-3.604.982-5.203-1.109-1.532-3.481-1.871-4.996-.755.163-.985.298-1.975.461-2.96 1.511-.007 3.02.004 4.531-.005.005-.427.004-.856-.002-1.284-1.846-.008-3.691-.004-5.537-.001zM6.602 17.19c-.005 1.271-.004 2.54-.001 3.81l.748-.001c.006-1.03-.002-2.06.004-3.09.246 1.028.461 2.064.702 3.094l.779-.006c.234-1.028.457-2.058.701-3.084.013 1.03-.001 2.058.007 3.086h.749c.001-1.268.002-2.538-.001-3.808-.38-.002-.761-.002-1.142-.001-.236.996-.46 1.997-.688 2.995-.245-.995-.466-1.996-.7-2.993a63.763 63.763 0 0 0-1.157-.002zm4.44.001a604.82 604.82 0 0 0-.001 3.81l.809-.002c0-.448 0-.895.004-1.343.45-.011.908.023 1.35-.084 1.039-.241 1.026-2.044 0-2.3-.709-.154-1.442-.056-2.161-.08zm3.509-.001c-.004 1.28-.004 2.56 0 3.84h.806c.004-.569.002-1.139.002-1.709.49-.004.979-.004 1.468.001.002.569 0 1.138.004 1.708h.806c.005-1.28.004-2.561 0-3.841l-.808.001c0 .49-.001.978-.004 1.466-.488.006-.977.006-1.465.002-.001-.491-.001-.98-.004-1.47l-.806.001z"/>
    <path fill="#ffd033" d="M5.184 11.096c1.139-1.615 2.28-3.229 3.424-4.842.002 1.615.005 3.229-.001 4.844-1.141.001-2.281.005-3.422-.002zM11.854 17.849c.378.019.793-.059 1.141.125.294.248.239.876-.175.976-.317.072-.644.037-.966.04-.004-.38-.004-.76 0-1.14z"/>
    <path fill="#050505" d="M1.968.329C8.552.261 15.143.318 21.728.3c1.139-.077 2.136.974 2.071 2.099.001 6.442.002 12.883-.001 19.325.06 1.076-.866 2.078-1.951 2.062-6.524.01-13.05.007-19.573.001-1.05.025-1.978-.911-1.969-1.955C.292 15.354.304 8.876.3 2.398.253 1.425.986.456 1.968.329zm-.121.701c-.515.097-.881.606-.844 1.123-.004 6.565-.005 13.13 0 19.696-.041.63.522 1.184 1.147 1.158 6.566.006 13.133.006 19.699 0 .625.025 1.187-.528 1.147-1.158.005-6.565.004-13.13 0-19.696.06-.69-.598-1.241-1.265-1.163-6.628.026-13.262-.053-19.885.04z"/>
    <path fill="#231f20" d="M4.159 10.639c1.573-2.149 3.104-4.33 4.687-6.472.37.001.74.002 1.111.005.008 2.309-.004 4.619.006 6.928.527-.001 1.055-.001 1.583.002.002.398.008.798.002 1.196l-1.586.002c-.007.869.002 1.739-.005 2.608-.449.004-.896.004-1.345-.001-.008-.869.002-1.738-.006-2.605-1.558-.006-3.115.005-4.673-.005.049-.55-.176-1.201.226-1.658zm1.025.457c1.141.007 2.281.004 3.422.002.006-1.615.004-3.229.001-4.844a2238.415 2238.415 0 0 0-3.424 4.842zM13.75 4.382c1.846-.002 3.691-.007 5.537.001.006.428.007.857.002 1.284-1.511.008-3.02-.002-4.531.005-.163.985-.298 1.975-.461 2.96 1.514-1.116 3.887-.778 4.996.755 1.151 1.6.618 4.099-.982 5.203-1.448.836-3.462.799-4.783-.275-.642-.515-.914-1.339-.997-2.131.462-.007.924-.008 1.385-.001.138 1.74 2.449 2.328 3.685 1.338.896-.81 1.124-2.275.506-3.314-.809-1.258-2.843-1.358-3.81-.234-.324.428-.914.132-1.362.158.266-1.918.533-3.834.815-5.749zM6.602 17.19c.385-.001.77-.002 1.157.002.234.997.455 1.998.7 2.993.228-.998.451-1.999.688-2.995.382-.001.762-.001 1.142.001.004 1.27.002 2.539.001 3.808h-.749c-.008-1.028.006-2.057-.007-3.086-.244 1.026-.467 2.056-.701 3.084l-.779.006c-.241-1.03-.456-2.065-.702-3.094-.006 1.03.002 2.06-.004 3.09L6.6 21c-.002-1.27-.004-2.539.001-3.81zM11.042 17.191c.719.024 1.452-.073 2.161.08 1.026.257 1.039 2.059 0 2.3-.442.107-.9.073-1.35.084-.004.448-.004.895-.004 1.343L11.04 21c-.002-1.271-.004-2.54.001-3.81zm.812.658c-.004.38-.004.76 0 1.14.322-.002.649.032.966-.04.414-.1.469-.727.175-.976-.348-.184-.763-.106-1.141-.125zM14.551 17.19l.806-.001.004 1.47c.488.004.977.004 1.465-.002.002-.488.004-.977.004-1.466l.808-.001c.004 1.28.005 2.561 0 3.841h-.806c-.004-.57-.001-1.139-.004-1.708a79.805 79.805 0 0 0-1.468-.001c0 .57.001 1.14-.002 1.709h-.806c-.004-1.28-.004-2.56 0-3.84z"/>
</svg>
