<svg xmlns="http://www.w3.org/2000/svg" width="24" height="24">
    <path fill="#1a1919" d="M11.155 3h1.64l-.094.044c-.023.01-.047.019-.07.03 3.287.016 6.575.005 9.863.009.305.088.605.228.84.446.23.241.396.539.501.854v15.29c-.142.415-.383.827-.769 1.055-.213.115-.437.257-.69.227-4.652 0-9.303.005-13.954.009-2.248 0-4.496.006-6.743-.017-.784.049-1.463-.637-1.593-1.376V4.485C.215 3.763.855 3.083 1.623 3.1c.32-.027.641-.017.96-.022 2.906.009 5.813.007 8.72.002-.038-.021-.074-.042-.113-.062l-.034-.017zm-9.518.404c-.64.024-1.191.589-1.232 1.221-.001 4.89.001 9.779-.001 14.669-.041.718.608 1.385 1.33 1.359 6.826.001 13.651.002 20.476 0 .668.012 1.266-.561 1.313-1.22.001-4.872-.001-9.745.001-14.617.051-.591-.359-1.179-.922-1.354-.178-.062-.369-.065-.556-.064-6.803.005-13.607-.007-20.409.005z"/>
    <path fill="#1a1919" d="M1.496 3.646c.114-.024.232-.025.347-.025 6.789.001 13.577-.001 20.366.001.559-.011 1.054.479 1.082 1.03v14.751c-.029.56-.542 1.053-1.109 1.03H1.733c-.563.019-1.069-.472-1.099-1.027V4.65c.027-.472.394-.909.86-1.004zm.136.574a.507.507 0 0 0-.41.485V19.35c.004.227.181.45.411.484.124.02.251.011.377.013h19.926c.145-.002.295.011.436-.031a.52.52 0 0 0 .335-.466c.001-4.873-.001-9.745.001-14.617.009-.24-.175-.482-.416-.515-.118-.019-.237-.011-.355-.012H1.983c-.117.001-.235-.007-.35.014z"/>
    <path fill="#1a1919" d="M13.795 5.189c.355.023.743.154.938.473.252.344.308.835.089 1.208-.154.312-.492.482-.82.548-.167.007-.319-.094-.415-.224-.185-.211-.189-.518-.367-.733-.104-.112-.249-.17-.392-.215-.119-.036-.157-.19-.109-.295.169-.434.595-.777 1.075-.761zM15.053 7.18c.107-.107.274-.04.361.058a4.59 4.59 0 0 1 1.355 2.279c.19.707.29 1.437.296 2.168.331-.077.659-.164.991-.239.107-.035.213.046.232.151.027.155.032.312.055.467.687.107 1.37.326 1.939.734-.117.064-.236.127-.354.188a3.579 3.579 0 0 0-1.654-.374 4.2 4.2 0 0 0-1.942.548c.071.103.144.205.218.307.827-.421 1.867-.46 2.687-.002a2.83 2.83 0 0 1 1.373 1.567c.342.919.16 2.014-.471 2.768-.437.562-1.106.929-1.805 1.038-.851.122-1.757-.146-2.379-.745a2.86 2.86 0 0 1-.82-1.357c-.118.017-.235.042-.354.041-1.056-.009-2.111-.014-3.167-.024-.146 0-.308-.054-.368-.199-.64-1.46-1.282-2.92-1.921-4.38-.042-.118-.215-.134-.313-.08-.104.091-.109.243-.121.37.368.337.71.715.93 1.168.219.456.308.985.199 1.482-.216-.065-.289-.322-.3-.524-.041-.807-.47-1.564-1.109-2.051-.174.254-.352.506-.536.754.354.297.689.637.883 1.062a3.07 3.07 0 0 1 .082 2.588c-.441 1.052-1.511 1.811-2.654 1.852-1.3.1-2.593-.748-3.037-1.97-.408-1.036-.184-2.288.566-3.112.224-.278.512-.496.827-.661.905-.525 2.083-.503 2.989.011l.525-.788c-.24-.166-.514-.271-.788-.367-.654-.203-1.364-.122-2.001.105-.135.056-.344.014-.373-.151.022-.116.154-.152.248-.192.31-.106.628-.208.958-.217.757-.079 1.521.162 2.146.584.57-.821 1.138-1.643 1.707-2.464a.968.968 0 0 1 .748-.418c.857-.005 1.714.059 2.562.185.188-.437.41-.863.562-1.315.229-.398.69-.56 1.027-.846zm-3.757 2.544c-.119.076-.139.259-.29.295-.149.032-.266-.096-.344-.205-.058-.091-.182-.032-.229.04l-.739 1.063a1.982 1.982 0 0 1 1.627.054c.463.25.922.509 1.385.76.238.103.493.01.724-.062.635-.156 1.276-.297 1.928-.352-.323-.494-.644-.99-.968-1.483-.202.134-.406.265-.603.406a.23.23 0 0 1-.218.028c-.628-.181-1.256-.356-1.884-.537-.126-.032-.265-.058-.39-.005zm-1.269 3.04c.009.147.085.275.14.408l.728 1.666c.017.055.074.075.119.103.071-.049.043-.135.038-.207-.04-.381-.071-.763-.115-1.144a.298.298 0 0 1 .259-.308c.338-.053.682.011 1.022-.009.121-.041.023-.165-.021-.23-.09-.112-.133-.304-.305-.307l-1.654-.029a.408.408 0 0 0-.21.056zm-5.512 1.438a2.29 2.29 0 0 0-.446 2.316c.304.869 1.175 1.501 2.097 1.514a2.291 2.291 0 0 0 1.877-.879 2.288 2.288 0 0 0 .3-2.346c-.142-.361-.409-.654-.703-.899-.274.419-.541.845-.815 1.264.118.158.225.339.219.544.022.473-.443.899-.916.813-.537-.04-.893-.718-.603-1.179.173-.349.599-.496.965-.393.273-.421.552-.839.826-1.26-.904-.497-2.131-.282-2.8.505zm10.558.485a4.331 4.331 0 0 0-.212 1.52l.188-.028a3.002 3.002 0 0 1 .341-1.56c.178-.33.438-.606.715-.856-.063-.103-.128-.203-.191-.307-.38.325-.703.742-.842 1.229zm1.947-.522c.183.266.363.535.551.797.14.009.286-.051.431-.029.544.023 1.003.544.969 1.085 0 .262-.136.503-.307.693-.312.325-.842.4-1.236.184a1.164 1.164 0 0 1-.442-.444l-1.022.157c.107.403.393.725.701.991.607.497 1.519.584 2.204.197.272-.134.501-.34.68-.584.563-.725.528-1.837-.081-2.525-.57-.71-1.637-.925-2.448-.521zm-1.149 1.887c.335-.049.67-.1 1.006-.151.015-.232.121-.445.264-.623-.184-.278-.37-.553-.554-.83a2.045 2.045 0 0 0-.715 1.604zm-2.702-1.459c-.017.151-.035.302-.047.453.115.009.23.019.346.027a23.964 23.964 0 0 0-.298-.481z"/>
    <path fill="#1a1919" d="M8.569 9.976c.128-.044.242.065.335.139.349.303.304.959-.125 1.165-.074.046-.208.086-.254-.014-.187-.368-.224-.835-.036-1.211.015-.037.041-.069.082-.079z"/>
    <path fill="#393939" opacity=".22" d="M8.829 3.051c.787-.022 1.574-.011 2.361-.034-.214.043-.432.026-.648.033-.571 0-1.142.009-1.713.001z"/>
    <path fill="#626161" opacity=".84" d="M11.19 3.017c.038.019.075.041.113.062-2.906.005-5.813.007-8.72-.002 2.082-.027 4.164-.02 6.246-.026.571.008 1.142-.001 1.713-.001.216-.007.434.01.648-.033z"/>
    <path fill="#454444" opacity=".59" d="M12.631 3.074c.023-.01.047-.019.07-.03.279.02.559.007.84.011 2.835-.005 5.669.009 8.504.017.149.004.3-.016.449.01-3.287-.004-6.575.007-9.863-.009z"/>
    <path fill="#f9cc5f" d="M1.637 3.404c6.803-.013 13.606-.001 20.409-.005.186-.001.377.002.556.064.563.175.973.764.922 1.354l-.001 14.617c-.047.659-.646 1.232-1.313 1.22-6.825.002-13.651.002-20.476 0-.722.026-1.37-.641-1.33-1.359.002-4.89 0-9.779.001-14.669.041-.632.592-1.196 1.232-1.221zm-.141.242a1.115 1.115 0 0 0-.86 1.004v14.756c.03.555.535 1.045 1.099 1.027h20.449c.568.023 1.08-.47 1.109-1.03V4.652c-.028-.55-.523-1.041-1.082-1.03-6.789-.003-13.577 0-20.366-.002-.116.001-.234.001-.347.026z"/>
    <path fill="#f9cc5f" d="M1.632 4.22c.115-.019.233-.013.35-.013h19.954c.118.001.237-.007.355.012.242.033.426.274.416.515l-.001 14.617a.518.518 0 0 1-.335.466c-.141.043-.291.029-.436.031H2.009c-.125-.002-.252.008-.376-.013a.507.507 0 0 1-.411-.484V4.706a.508.508 0 0 1 .41-.485zm12.163.969c-.479-.016-.906.327-1.075.761-.048.105-.01.259.109.295.143.046.287.104.392.214.178.216.181.523.367.734.096.13.248.231.415.224.328-.065.666-.236.82-.548.219-.373.163-.865-.089-1.208-.195-.319-.583-.45-.938-.473zm1.258 1.991c-.338.287-.799.448-1.028.846-.152.452-.373.877-.562 1.315a16.901 16.901 0 0 0-2.562-.184.966.966 0 0 0-.748.418L8.446 12.04c-.625-.422-1.389-.662-2.146-.584-.33.01-.648.111-.958.218-.095.04-.227.076-.248.192.029.164.238.206.373.151.636-.227 1.347-.308 2.001-.105.274.095.548.201.788.367-.175.263-.349.525-.525.787-.905-.514-2.084-.536-2.989-.011a2.639 2.639 0 0 0-.827.661c-.751.823-.974 2.076-.566 3.112.444 1.223 1.738 2.069 3.037 1.97 1.142-.043 2.212-.802 2.654-1.852a3.067 3.067 0 0 0-.082-2.588c-.195-.425-.53-.765-.883-1.062.184-.247.361-.499.536-.754.639.487 1.069 1.244 1.109 2.051.011.202.084.458.3.524.11-.497.021-1.026-.199-1.482-.22-.452-.562-.831-.93-1.168.012-.128.017-.28.121-.37.098-.054.27-.037.313.08.639 1.46 1.281 2.92 1.921 4.38.06.145.223.199.368.199 1.056.01 2.111.015 3.167.024.119.001.236-.024.354-.041.143.515.422.997.821 1.357.622.599 1.528.867 2.379.745.699-.109 1.369-.476 1.805-1.038a2.85 2.85 0 0 0 .471-2.767 2.824 2.824 0 0 0-1.373-1.568c-.821-.457-1.86-.418-2.687.002l-.218-.307a4.202 4.202 0 0 1 1.943-.547 3.582 3.582 0 0 1 1.654.374c.118-.061.237-.124.354-.188-.57-.409-1.253-.627-1.939-.734-.023-.155-.027-.313-.055-.467-.019-.105-.126-.185-.232-.151-.331.075-.66.162-.991.239a8.675 8.675 0 0 0-.296-2.168 4.587 4.587 0 0 0-1.355-2.279c-.087-.099-.254-.166-.361-.058zM8.569 9.976c-.04.01-.067.043-.082.079-.188.376-.151.842.036 1.211.046.101.181.06.254.014.429-.206.474-.862.125-1.165-.092-.074-.205-.184-.334-.139z"/>
    <path fill="#f9cc5f" d="M11.296 9.724c.124-.053.264-.028.39.005.627.181 1.256.356 1.884.537a.23.23 0 0 0 .218-.028c.197-.141.401-.272.603-.406.324.493.644.99.967 1.484-.652.055-1.294.196-1.927.352-.231.073-.486.165-.724.062-.463-.25-.922-.509-1.385-.76a1.986 1.986 0 0 0-1.627-.054c.245-.355.493-.709.739-1.063.046-.073.17-.131.229-.04.077.11.195.238.344.206.151-.036.17-.219.289-.295zM10.027 12.764a.408.408 0 0 1 .21-.056l1.654.029c.172.002.216.195.305.307.044.065.142.189.021.23-.34.019-.684-.043-1.022.009a.295.295 0 0 0-.259.307c.043.381.075.763.115 1.144.005.072.034.158-.038.207-.045-.028-.101-.048-.119-.103l-.728-1.667c-.055-.133-.131-.261-.14-.408zM4.515 14.202c.669-.787 1.896-1.002 2.8-.505-.274.421-.553.838-.827 1.26-.365-.104-.791.044-.965.393-.289.461.066 1.138.603 1.179.473.085.938-.341.916-.813.006-.204-.101-.385-.219-.544.274-.419.54-.845.815-1.264.294.245.561.538.703.899a2.288 2.288 0 0 1-.3 2.346 2.29 2.29 0 0 1-1.877.879c-.922-.012-1.793-.643-2.097-1.514a2.29 2.29 0 0 1 .446-2.316zM15.073 14.687c.139-.487.462-.904.842-1.229.061.104.128.204.191.307-.277.249-.537.525-.715.856a2.992 2.992 0 0 0-.341 1.56l-.188.028a4.351 4.351 0 0 1 .212-1.52zM17.02 14.165c.811-.404 1.879-.188 2.448.521.609.688.643 1.799.081 2.525-.178.244-.408.45-.679.584-.686.387-1.598.3-2.204-.197-.308-.265-.595-.589-.7-.991l1.022-.157c.101.187.26.338.442.444.395.216.924.142 1.236-.184.171-.191.307-.431.307-.693.034-.541-.424-1.061-.969-1.085-.145-.022-.291.038-.431.029-.188-.263-.368-.531-.551-.797z"/>
    <path fill="#f9cc5f" d="M15.871 16.052a2.045 2.045 0 0 1 .715-1.604l.554.83a1.128 1.128 0 0 0-.264.623c-.335.051-.67.102-1.006.151zM13.169 14.593c.101.159.201.319.298.481l-.346-.027c.014-.152.03-.302.047-.453z"/>
</svg>
