<svg xmlns="http://www.w3.org/2000/svg" width="24" height="24">
    <path fill="#f4fcff" d="M0 6.24h.862l-.163.07c-.4.149-.61.539-.581.957-.017 2.893-.031 5.787-.035 8.681.011.607-.092 1.26.221 1.812H0V6.24z"/>
    <path fill="#97a4d4" d="M.862 6.24h23.084v.243c-.892-.203-1.812-.097-2.718-.108-4.166-.037-8.335.004-12.501.002-1.658-.021-3.316-.005-4.974-.008-1.018-.008-2.039.047-3.053-.061l.163-.07z"/>
    <path fill="#2540b1" d="M.118 7.266c-.028-.418.181-.808.581-.957 1.015.108 2.036.053 3.053.061.141.158.282.316.424.471-1.214 1.772-2.506 3.49-3.751 5.24 1.245 1.871 2.58 3.677 3.887 5.505 1.278.019 2.555-.001 3.833-.001-1.25-1.842-2.577-3.633-3.798-5.496 1.318-1.785 2.533-3.644 3.846-5.431.177-.096.353-.192.533-.279 4.166.001 8.335-.04 12.501-.002.906.011 1.826-.096 2.718.108v11.277H.303C-.01 17.21.092 16.557.082 15.95c.004-2.894.018-5.788.035-8.681zm11.539.026c-1.117 1.613-2.28 3.194-3.419 4.792 1.243 1.856 2.581 3.645 3.837 5.492 1.297 0 2.595.03 3.892-.012-1.245-1.865-2.656-3.616-3.878-5.496 1.28-1.833 2.695-3.575 3.895-5.461a251.315 251.315 0 0 0-3.58-.018c-.396-.005-.541.44-.747.703zm8.128-.439c-1.261 1.723-2.431 3.513-3.712 5.221 1.272 1.833 2.544 3.666 3.828 5.491a83.34 83.34 0 0 0 3.905-.004c-1.263-1.846-2.594-3.646-3.868-5.484 1.327-1.782 2.608-3.596 3.891-5.409-.989-.146-1.992-.043-2.989-.078-.357.026-.835-.111-1.055.263z"/>
    <path fill="#4a537c" d="M3.753 6.371c1.658.002 3.316-.013 4.974.008-.18.088-.356.184-.533.279a277.804 277.804 0 0 0-3.416-.006.82.82 0 0 0-.6.19 37.524 37.524 0 0 1-.424-.471z"/>
    <path fill="#fdfdfc" d="M4.177 6.842a.822.822 0 0 1 .6-.19c1.139-.004 2.278-.002 3.416.006-1.312 1.788-2.528 3.646-3.846 5.431 1.221 1.862 2.547 3.654 3.798 5.496-1.278 0-2.555.021-3.833.001-1.308-1.828-2.642-3.635-3.887-5.505 1.245-1.75 2.537-3.468 3.751-5.24zM11.657 7.292c.206-.263.351-.708.747-.703 1.193 0 2.387.001 3.58.018-1.2 1.886-2.615 3.628-3.895 5.461 1.222 1.88 2.633 3.631 3.878 5.496-1.297.041-2.595.012-3.892.012-1.256-1.847-2.594-3.636-3.837-5.492 1.139-1.597 2.302-3.179 3.419-4.792zM19.785 6.853c.22-.374.697-.237 1.055-.263.996.035 2-.069 2.989.078-1.283 1.813-2.564 3.627-3.891 5.409 1.273 1.838 2.604 3.638 3.868 5.484a83.34 83.34 0 0 1-3.905.004c-1.284-1.825-2.555-3.658-3.828-5.491 1.282-1.709 2.451-3.499 3.712-5.221z"/>
</svg>
