<svg xmlns="http://www.w3.org/2000/svg" width="24" height="24">
    <path fill="#1f1917" d="M0 0h24v24H0V0zm.488.481v23.038c7.676.004 15.354.004 23.03 0 .002-7.679.002-15.359 0-23.038C15.842.479 8.164.479.488.481z"/>
    <path fill="#1f1917" d="M10.286 1.714c1.142-.002 2.285-.002 3.427 0 .004 2.868.006 5.735-.001 8.603a5.866 5.866 0 0 1-1.705 4.088c-2.616 2.629-5.245 5.244-7.86 7.874a462.98 462.98 0 0 1-2.429-2.426c2.617-2.628 5.239-5.251 7.86-7.877a2.438 2.438 0 0 0 .706-1.768c.002-2.831-.004-5.663.002-8.495zM11.149 16.157c.57-.005 1.14-.005 1.71 0 .005 2.042.005 4.084 0 6.126-.57.004-1.14.004-1.71 0-.005-2.042-.005-4.085 0-6.126z"/>
    <path fill="#fff" d="M.488.481c7.676-.002 15.354-.002 23.03 0 .002 7.679.002 15.359 0 23.038-7.676.004-15.354.004-23.03 0V.481zm9.798 1.233c-.006 2.832 0 5.664-.002 8.495a2.43 2.43 0 0 1-.706 1.768c-2.621 2.626-5.243 5.249-7.86 7.877.805.812 1.618 1.62 2.429 2.426 2.615-2.63 5.244-5.245 7.86-7.874a5.867 5.867 0 0 0 1.705-4.088c.007-2.868.005-5.735.001-8.603a978.695 978.695 0 0 0-3.427 0zm.863 14.443c-.005 2.041-.005 4.084 0 6.126.57.004 1.14.004 1.71 0 .005-2.042.005-4.084 0-6.126-.57-.005-1.14-.005-1.71 0z"/>
</svg>
