<svg xmlns="http://www.w3.org/2000/svg" width="24" height="24">
    <path fill="#282828" opacity=".69" d="M.767 4.976h22.511l.164.115C15.833 5.089 8.224 5.12.616 5.075l.15-.1z"/>
    <path fill="#fff" d="M.061 5.693c.132-.248.316-.468.556-.617 7.608.044 15.217.013 22.826.016.179.116.331.269.465.435.008 4.285-.08 8.578.044 12.86-.139.198-.293.393-.5.524-7.624-.009-15.247-.008-22.87-.001a1.788 1.788 0 0 1-.484-.515C.109 14.162.185 9.921.061 5.694zm10.452 2.562c.641 1.526 1.29 3.049 1.935 4.573.265-.118.531-.234.797-.349-.091-1.11 1.434-1.918 2.13-.916.985-.425 1.97-.845 2.953-1.275-.114-1.117 1.386-1.919 2.122-.964.269-.109.527-.251.698-.495-.328-.514-.459-1.216-1.052-1.502-.435-.406-.585-1.057-1.112-1.382-.414.173-.827.351-1.24.526l-.522-1.153c-2.236.979-4.473 1.956-6.707 2.937zm-1.355.653c.578.772 1.125 1.567 1.727 2.32-.394-.879-.836-1.736-1.254-2.604-.159.094-.316.19-.473.284zm9.437 1.461c.13.524.733.618 1.189.539-1.694.637-3.331 1.427-4.993 2.145.795-.473.54-1.959-.499-1.733-1.136.186-1.006 2.038.236 1.874-1.736.688-3.439 1.464-5.142 2.23.379-.445.191-1.327-.498-1.23-.822.063-.934 1.405-.028 1.456a147.337 147.337 0 0 0-4.426 1.935c.404-.44.236-1.352-.473-1.268-.882.047-.959 1.509.018 1.479-.4.154-.872.26-1.134.628.009.312.366.257.567.167 5.878-2.572 11.756-5.145 17.639-7.709.193-.076.307-.257.437-.407-.592-.352-1.187.242-1.741.427.534-.328.874-1.153.322-1.624-.681-.579-1.756.287-1.473 1.091zM8.459 9.588l-.345.441c.846.531 1.67 1.095 2.523 1.614-.719-.692-1.454-1.367-2.178-2.055zm-.774 1.194l-.167.53c.952.191 1.896.42 2.852.594-.884-.4-1.79-.748-2.685-1.124zm-4.618 3.943c-.226.586-.234 1.352-.87 1.665.172.392.345.784.515 1.177.125-.052.25-.104.373-.157-.208-.985 1.165-1.745 1.709-.778 1.077-.475 2.148-.965 3.223-1.447-.118-.923 1.142-1.615 1.694-.74.193-.133.389-.265.585-.396l-.02-.372-.445-.351c-.669.183-1.329.394-1.996.584-.538-.222-1.075-.445-1.619-.653-1.052.483-2.101.974-3.148 1.469z"/>
    <path fill="#fff" d="M17.927 6.838c.318-.146.635-.294.954-.44.246.387.492.774.736 1.163-.378.186-.755.372-1.132.56a44.327 44.327 0 0 1-.557-1.283zM4.749 14.204c.495-.21.986-.428 1.484-.632.345.155.689.307 1.036.459-.742.32-1.477.656-2.223.968-.098-.265-.198-.53-.298-.795zM3.356 14.807c.365-.17.736-.327 1.105-.488.102.268.201.537.299.805-.49.218-.981.432-1.472.65.029-.322.05-.645.068-.968z"/>
    <path d="M10.513 8.255c2.234-.981 4.472-1.959 6.707-2.937l.522 1.153c.413-.175.826-.353 1.24-.526.527.325.677.976 1.112 1.382.593.286.724.988 1.052 1.502-.17.244-.428.385-.698.495-.736-.955-2.236-.153-2.122.964-.982.43-1.968.85-2.953 1.275-.697-1.002-2.221-.194-2.13.916-.266.115-.532.232-.797.349-.645-1.525-1.293-3.047-1.935-4.573zm7.414-1.417c.178.431.366.858.557 1.283l1.132-.56c-.244-.388-.49-.776-.736-1.163-.318.145-.635.293-.954.44zM9.158 8.908c.157-.095.314-.191.473-.284.418.868.86 1.726 1.254 2.604-.602-.753-1.149-1.548-1.727-2.32z"/>
    <path d="M18.595 10.369c-.282-.803.793-1.669 1.473-1.091.553.472.212 1.297-.322 1.624.555-.185 1.149-.779 1.741-.427-.13.15-.244.331-.437.407-5.882 2.563-11.761 5.137-17.639 7.709-.201.09-.557.145-.567-.167.263-.368.735-.474 1.134-.628-.978.03-.899-1.432-.018-1.479.709-.084.877.828.473 1.268a148.464 148.464 0 0 1 4.426-1.935c-.907-.052-.795-1.394.028-1.456.689-.097.877.784.498 1.23 1.703-.766 3.405-1.542 5.142-2.23-1.243.163-1.373-1.688-.236-1.874 1.04-.226 1.294 1.26.499 1.733 1.662-.718 3.299-1.507 4.993-2.145-.455.079-1.059-.015-1.189-.539zM8.459 9.588c.724.687 1.459 1.363 2.178 2.055-.852-.519-1.676-1.083-2.523-1.614l.345-.441zM7.685 10.782c.894.376 1.801.724 2.685 1.124-.956-.174-1.9-.403-2.852-.594l.167-.53z"/>
    <path d="M3.067 14.725c1.047-.495 2.097-.986 3.148-1.469.544.208 1.081.431 1.619.653.666-.19 1.327-.401 1.996-.584.149.116.298.234.445.351l.02.372c-.196.131-.392.263-.585.396-.553-.875-1.812-.184-1.694.74-1.075.482-2.146.971-3.223 1.447-.544-.966-1.916-.207-1.709.778-.124.053-.249.106-.373.157-.17-.393-.344-.786-.515-1.177.636-.313.645-1.079.87-1.665zm1.682-.521c.1.265.2.53.298.795.746-.312 1.48-.649 2.223-.968a87.842 87.842 0 0 1-1.036-.459c-.498.203-.989.421-1.484.632zm-1.393.603c-.018.323-.04.646-.068.968.491-.217.982-.431 1.472-.65a55.288 55.288 0 0 0-.299-.805c-.369.161-.74.317-1.105.488z"/>
    <path fill="#3a3a3a" opacity=".75" d="M23.908 5.525l.107.138v12.93l-.063-.208c-.125-4.282-.036-8.574-.044-12.86z"/>
    <path fill="#272727" opacity=".67" d="M0 5.487l.061.205c.124 4.228.048 8.469.037 12.701L0 18.24V5.485z"/>
    <path fill="#202020" opacity=".66" d="M.582 18.909c7.623-.007 15.246-.008 22.87.001l-.162.114H.739l-.156-.115z"/>
</svg>
