<svg xmlns="http://www.w3.org/2000/svg" width="24" height="24">
    <path fill="#fff" d="M1.067 5.561c.181-.073.377-.08.569-.082 6.867.001 13.735-.002 20.602.001.818-.022 1.558.721 1.537 1.537.002 3.322.002 6.644 0 9.965.021.816-.72 1.559-1.537 1.535H1.563c-.816.023-1.558-.719-1.536-1.535V7.018c-.016-.644.44-1.248 1.041-1.456zm.302.311c-.567.092-1.004.642-.973 1.215.002 3.3-.003 6.601.003 9.902-.004.641.596 1.193 1.232 1.16H22.17c.638.035 1.234-.518 1.232-1.16.004-3.326.004-6.652 0-9.977.001-.64-.593-1.198-1.232-1.16-6.934.014-13.87-.027-20.801.021z"/>
    <path fill="#fff" d="M1.443 6.466c6.881-.047 13.768-.005 20.653-.021.374-.057.748.254.714.64.001 3.277.002 6.552-.001 9.829a.605.605 0 0 1-.638.638c-6.847.002-13.694.002-20.54 0a.605.605 0 0 1-.638-.638V7.085a.6.6 0 0 1 .451-.62zm4.862 1.13c-.233.445-.369.939-.64 1.366-.235.293-.109.693-.137 1.036-.031.202.133.399.344.374.886.002 1.774.009 2.661-.004.207-.397.295-.876.599-1.209.453-.188.976-.044 1.458-.088-.317-.462-.458-1.015-.724-1.503-.086-.147-.274-.125-.419-.131-.943.005-1.886-.002-2.829.004-.123-.008-.258.037-.313.156zm2.799 1.753c-.28.527-.44 1.117-.76 1.623-.286.326-.13.787-.17 1.179-.041.237.112.515.379.491.999-.001 1.999.012 2.997-.007.186-.437.37-.875.569-1.307.086-.201.308-.309.52-.301.487-.003.975 0 1.463.002-.319-.52-.497-1.11-.771-1.653-.065-.149-.232-.207-.384-.198-1.144-.003-2.289.001-3.433-.002-.152-.004-.334.02-.411.171zM5.826 10.51c.019.252-.025.512.033.76.172.13.465.111.65.025.119-.237.031-.538.055-.8-.246-.002-.493-.014-.738.016zm6.698.639c-.305.043-.368.393-.483.624-.231.485-.39 1.01-.683 1.463-.342.375-.155.914-.204 1.369-.052.283.122.622.444.6 2.061.008 4.121.002 6.183.002.261.032.515-.186.493-.454-.02-.423.056-.863-.045-1.276-.471-.651-.677-1.442-1.047-2.147-.118-.21-.385-.196-.593-.194-1.354.012-2.71-.016-4.064.014zm-3.985 1.646c.01.297-.035.603.025.896.184.187.547.141.769.051.152-.279.037-.638.07-.947a41.377 41.377 0 0 0-.863 0zm8.296 2.582c.026.356-.063.738.05 1.079.235.171.652.153.901.017.139-.338.033-.736.063-1.098-.338.001-.675 0-1.013.002zm-5.255.002c.037.364-.086.772.074 1.108.252.121.614.121.867.001.164-.335.037-.745.075-1.109a57.236 57.236 0 0 0-1.015 0z"/>
    <path fill="#fff" d="M6.558 7.757a85.185 85.185 0 0 1 3.033-.002c.227.296.317.689.487 1.025-1.323.002-2.645.001-3.968.001.147-.343.293-.686.448-1.024zM9.393 9.557c1.207-.034 2.415-.016 3.622-.01.198.399.362.814.542 1.221-1.564.004-3.128.002-4.693.001.173-.405.347-.81.529-1.211zM12.599 11.587c1.301-.057 2.612-.005 3.916-.025.133.009.335-.04.382.133.198.431.381.87.57 1.305-1.835.002-3.669.003-5.504 0 .215-.469.386-.962.636-1.413z"/>
    <path d="M1.369 5.872c6.932-.049 13.868-.007 20.801-.021.639-.038 1.233.521 1.232 1.16.004 3.326.004 6.652 0 9.977.002.641-.593 1.195-1.232 1.16H1.631c-.636.033-1.235-.518-1.232-1.16-.006-3.301-.001-6.602-.003-9.902-.031-.573.406-1.123.973-1.215zm.074.594c-.278.059-.47.34-.451.62v9.829a.605.605 0 0 0 .638.638c6.847.002 13.694.002 20.54 0a.605.605 0 0 0 .638-.638c.002-3.277.002-6.552.001-9.829.034-.387-.341-.697-.714-.64-6.884.016-13.771-.026-20.653.021z"/>
    <path fill="#231f20" d="M6.305 7.596c.055-.12.19-.164.313-.156.943-.005 1.886.002 2.829-.004.145.005.333-.016.419.131.266.489.406 1.041.724 1.503-.481.044-1.005-.1-1.458.088-.305.333-.393.812-.599 1.209-.887.013-1.775.006-2.661.004-.211.026-.375-.172-.344-.374.029-.344-.098-.743.137-1.036.272-.426.407-.921.64-1.366zm.253.161c-.155.338-.301.681-.448 1.024 1.323 0 2.645.002 3.968-.001-.169-.336-.26-.73-.487-1.025a85.184 85.184 0 0 0-3.033.002z"/>
    <path fill="#231f20" d="M9.104 9.349c.077-.151.26-.176.411-.171 1.144.002 2.289-.002 3.433.002.152-.009.319.049.384.198.273.543.452 1.133.771 1.653-.488-.002-.976-.004-1.463-.002-.212-.009-.434.1-.52.301-.199.431-.383.869-.569 1.307-.999.019-1.999.006-2.997.007-.266.024-.42-.255-.379-.491.039-.392-.116-.853.17-1.179.321-.507.48-1.096.76-1.623zm.289.208c-.182.401-.356.807-.529 1.211 1.564.002 3.128.003 4.693-.001-.179-.407-.344-.822-.542-1.221-1.207-.006-2.416-.025-3.622.01zM5.826 10.51c.245-.03.491-.018.738-.016-.024.262.065.563-.055.8-.185.086-.477.106-.65-.025-.058-.248-.014-.508-.033-.76z"/>
    <path fill="#231f20" d="M12.524 11.149c1.354-.03 2.71-.002 4.064-.014.207-.002.475-.016.593.194.369.706.575 1.497 1.047 2.147.101.413.025.853.045 1.276.023.268-.231.487-.493.454-2.061 0-4.121.005-6.183-.002-.322.022-.496-.317-.444-.6.049-.455-.139-.994.204-1.369.294-.453.452-.977.683-1.463.115-.231.178-.581.483-.624zm.075.438c-.25.452-.421.944-.636 1.413 1.834.003 3.668.002 5.504 0-.189-.435-.372-.874-.57-1.305-.047-.173-.248-.124-.382-.133-1.305.02-2.615-.032-3.916.025zM8.539 12.795c.288-.003.575-.003.863 0-.033.309.082.669-.07.947-.221.089-.585.135-.769-.051-.06-.294-.015-.599-.025-.896zM16.835 15.377c.338-.002.675-.001 1.013-.002-.029.362.076.759-.063 1.098-.249.136-.665.154-.901-.017-.113-.341-.024-.723-.05-1.079zM11.58 15.379c.338-.003.677-.003 1.015 0-.038.364.088.775-.075 1.109a1.08 1.08 0 0 1-.867-.001c-.16-.336-.037-.744-.074-1.108z"/>
</svg>
