<svg xmlns="http://www.w3.org/2000/svg" width="24" height="24">
    <path fill="#231f20" d="M.85 2.4h22.734c.262.156.466.383.643.627v17.947c-.178.243-.383.47-.646.626H.848a2.174 2.174 0 0 1-.849-1.188V3.583c.129-.49.49-.85.85-1.183zm.695.136c-.712.149-1.269.839-1.246 1.57.003 5.262.003 10.526 0 15.788-.007.776.581 1.598 1.406 1.603 7.005.002 14.011.005 21.017-.001.748 0 1.399-.653 1.4-1.4.008-5.364-.002-10.728.005-16.092.036-.85-.767-1.587-1.608-1.508-6.99.033-13.988-.046-20.974.039z"/>
    <path fill="#231f20" d="M1.544 2.737c6.987-.083 13.985-.009 20.976-.037.691-.042 1.387.486 1.403 1.204.004 5.363-.004 10.727.004 16.09.031.698-.608 1.338-1.306 1.307-6.938-.009-13.878.003-20.814-.006-.714.023-1.289-.608-1.302-1.3C.501 14.732.507 9.469.502 4.205.5 3.571.883 2.866 1.545 2.735zm.001.673c-.11.113-.222.225-.334.334-.009 5.114-.001 10.228-.004 15.343-.001.463-.042.937.098 1.387.258.103.517.238.804.224 6.77-.008 13.542.002 20.312-.005.478.035.917-.303.893-.804.022-5.194 0-10.388.011-15.582.017-.388-.121-.914-.604-.896-7.058-.012-14.117-.007-21.174-.002z"/>
    <path fill="#231f20" d="M2.413 5.518c.724.047 1.522-.16 2.178.236.577.474.679 1.273.646 1.974.048.722-.246 1.567-.948 1.877-.619.083-1.25.01-1.874.033V5.517zm.703.803v2.614c.294.001.589-.001.885.002.708-.677.662-1.856.12-2.621-.334.005-.67.005-1.004.005zM6.031 5.516c.838-.001 1.676-.001 2.513.001v.803h-1.81v.904l1.206.002v.702l-1.206.002v1.004c.636.001 1.274-.001 1.91.001v.702c-.871.002-1.742.001-2.614.001V5.516zM8.846 5.518c.871-.002 1.742-.002 2.614 0v.702l-1.004.002c-.003 1.139.001 2.278-.002 3.417h-.702c-.003-1.139 0-2.278-.001-3.418-.302.003-.603-.003-.905-.001v-.702zM12.802 5.55c.562-.109 1.261-.098 1.598.45.494.878.494 1.987.168 2.926-.286.986-1.86 1.151-2.364.273-.401-.679-.385-1.496-.317-2.256.074-.563.361-1.166.916-1.392zm.403.695c-.791.426-.746 1.63-.412 2.358.105.466.863.517 1.019.067.281-.585.34-1.278.105-1.889-.058-.313-.387-.623-.712-.537zM15.582 5.516h.702c.027.959-.05 1.924.035 2.879.017.386.371.551.686.665.318-.189.65-.439.667-.846.051-.898.001-1.799.02-2.698h.702c-.022 1.026.05 2.056-.034 3.078-.081 1.01-1.39 1.47-2.18.946-.423-.236-.598-.745-.601-1.206 0-.939.003-1.878.003-2.818zM19.2 5.518c.808.051 1.768-.195 2.442.372.594.536.413 1.507-.226 1.923.202.62.458 1.219.698 1.826-.289.002-.577-.001-.865.001a15.23 15.23 0 0 0-.642-1.714l-.604.005v1.708H19.2c-.002-1.373-.001-2.747-.001-4.121zm.804.801v.917c.428.016.874-.035 1.216-.318-.006-.121-.012-.24-.016-.36l-.23-.234c-.324-.003-.646-.003-.97-.004zM11.902 10.439c.359-.029.726.014 1.01.259 2.184 1.553 4.476 2.966 6.626 4.558-2.268 1.614-4.608 3.128-6.901 4.706-.358.274-.787.078-1.084-.182-.071-.946.384-1.807.598-2.705-2.407.002-4.816.001-7.224.001-.002-1.239-.001-2.479-.001-3.718 2.407-.001 4.815-.002 7.222 0-.219-.851-.643-1.674-.591-2.574.117-.114.232-.228.345-.345z"/>
    <path fill="#f4901e" d="M1.545 2.536c6.986-.086 13.984-.006 20.974-.039.842-.079 1.645.658 1.608 1.508-.007 5.364.003 10.728-.005 16.092-.001.748-.653 1.4-1.4 1.4-7.006.006-14.012.003-21.017.001-.826-.005-1.414-.827-1.406-1.603.003-5.262.003-10.526 0-15.788-.023-.73.534-1.422 1.246-1.57zm-.001.201c-.662.13-1.046.836-1.043 1.47C.506 9.47.5 14.733.504 19.997c.014.691.589 1.323 1.302 1.3 6.937.009 13.876-.003 20.814.006.698.031 1.338-.608 1.306-1.307-.008-5.364 0-10.728-.004-16.091-.016-.718-.712-1.246-1.403-1.204-6.991.028-13.989-.046-20.976.038z"/>
    <path fill="#f4901e" d="M1.545 3.41c7.058-.005 14.117-.01 21.174.002.483-.019.622.508.604.896-.011 5.194.011 10.388-.011 15.582.024.501-.415.839-.893.804-6.77.007-13.542-.003-20.312.005-.287.014-.546-.121-.804-.224-.138-.45-.098-.924-.098-1.387.003-5.114-.005-10.228.004-15.343.113-.11.224-.222.334-.334zm.868 2.108v4.121c.624-.023 1.255.05 1.874-.033.702-.31.996-1.155.948-1.877.034-.702-.068-1.501-.646-1.974-.655-.396-1.454-.189-2.178-.236zm3.618-.002v4.122c.871 0 1.742.001 2.614-.001v-.702c-.636-.002-1.274 0-1.91-.001V7.93l1.206-.002v-.702l-1.206-.002V6.32h1.81v-.803c-.838-.002-1.674-.002-2.513-.001zm2.815.002v.702c.302-.002.603.004.905.001.001 1.14-.002 2.279.001 3.418h.702c.003-1.139-.001-2.278.002-3.417l1.004-.002v-.702c-.871-.002-1.742-.002-2.614 0zm3.956.032c-.555.226-.842.83-.916 1.392-.068.76-.085 1.576.317 2.256.505.878 2.078.714 2.364-.273.326-.938.326-2.048-.168-2.926-.337-.549-1.035-.559-1.598-.45zm2.78-.034c0 .939-.003 1.878-.003 2.818.003.462.178.97.601 1.206.79.524 2.1.063 2.18-.946.085-1.022.012-2.053.034-3.078h-.702c-.019.898.031 1.8-.02 2.698-.017.406-.35.657-.667.846-.316-.114-.67-.278-.686-.665-.085-.955-.008-1.92-.035-2.879h-.702zm3.618.002c0 1.373-.001 2.747.001 4.121h.803V7.931l.604-.005c.25.557.459 1.132.642 1.714.287-.002.576.001.865-.001-.239-.606-.495-1.206-.698-1.826.639-.416.82-1.387.226-1.923-.674-.567-1.634-.321-2.442-.372zm-7.298 4.921c-.113.117-.228.231-.345.345-.052.9.372 1.723.591 2.574-2.407-.002-4.815-.001-7.222 0 0 1.239-.001 2.479.001 3.718 2.407 0 4.816.001 7.224-.001-.214.898-.67 1.759-.598 2.705.297.259.726.456 1.084.182 2.293-1.578 4.633-3.092 6.901-4.706-2.149-1.592-4.441-3.005-6.626-4.558-.282-.246-.65-.289-1.01-.259z"/>
    <path fill="#f4901e" d="M13.205 6.245c.325-.086.654.224.712.537.235.611.176 1.304-.105 1.889-.156.45-.914.399-1.019-.067-.334-.729-.379-1.932.412-2.358zM3.116 6.321c.334 0 .67 0 1.004-.005.542.765.588 1.944-.12 2.621-.295-.003-.59-.001-.885-.002V6.321zM20.004 6.319c.324.001.646.001.97.004l.23.234c.004.12.01.239.016.36-.342.283-.788.334-1.216.318v-.917z"/>
</svg>
