<svg xmlns="http://www.w3.org/2000/svg" width="24" height="24">
    <path fill="#ffd033" d="M1.723 0h20.546c.895.127 1.596.883 1.73 1.765v20.431c-.1.936-.895 1.693-1.819 1.804H1.83c-.919-.118-1.69-.836-1.831-1.757V1.764C.132.888.834.131 1.722 0zm.246.33C.985.455.254 1.426.3 2.398.3 8.84.298 15.281.301 21.724c-.058 1.081.88 2.09 1.974 2.062 6.481.011 12.965.004 19.447.005 1.484.106 2.347-1.469 2.08-2.79-.005-6.2.002-12.401-.004-18.601.066-1.124-.931-2.176-2.069-2.099C15.142.32 8.552.26 1.969.331z"/>
    <path fill="#ffd033" d="M1.847 1.03C8.47.936 15.105 1.018 21.731.99c.667-.078 1.325.472 1.266 1.163.004 6.564.005 13.13-.001 19.694.041.631-.52 1.184-1.146 1.158-6.566.008-13.133.007-19.699 0-.626.028-1.188-.527-1.147-1.158-.005-6.564-.004-13.129 0-19.694-.036-.517.328-1.026.844-1.123zm3.425 3.882c-.8.689-1.079 1.78-1.111 2.797.444.002.889.002 1.333-.001.056-.716.196-1.553.863-1.962.78-.449 1.848-.464 2.596.064.901.628.821 2.243-.18 2.734-.592.308-1.284.276-1.931.247L6.841 9.96c.899-.02 1.918-.022 2.634.607.761.866.569 2.423-.444 3.02-.823.486-1.922.506-2.771.076-.74-.397-.862-1.301-.959-2.051-.47-.002-.942-.002-1.412.002.014 1.385.702 2.946 2.129 3.362 1.592.445 3.628.27 4.699-1.138 1.132-1.42.865-4.062-1.078-4.62 1.44-.613 1.684-2.585.898-3.799-.517-.78-1.474-1.122-2.37-1.201-.997-.088-2.108.004-2.894.694zm8.476-.532c-.281 1.918-.546 3.838-.816 5.756.449-.026 1.032.253 1.366-.163.838-.965 2.461-1.038 3.416-.211 1.423 1.204.7 4.117-1.273 4.207-1.169.212-2.413-.559-2.528-1.787a71.15 71.15 0 0 0-1.386.001c.092.791.355 1.618 1.001 2.132 1.32 1.074 3.336 1.111 4.783.275 1.74-1.188 2.215-4.072.644-5.587-1.196-1.214-3.282-1.37-4.66-.373.163-.985.304-1.974.462-2.959 1.511-.004 3.022.002 4.532-.002.001-.431.001-.86-.001-1.29-1.847.002-3.694.001-5.54.001zM6.601 17.189c-.002 1.28-.002 2.561 0 3.842.25-.001.498-.002.748-.001.006-1.038-.002-2.076.004-3.114.248 1.037.466 2.081.707 3.119.256-.004.512-.007.768-.013.235-1.037.461-2.077.707-3.112.012 1.04 0 2.081.007 3.121.25-.001.499-.004.749-.002V17.19l-1.148-.001c-.229 1.001-.455 2.002-.691 3-.232-.998-.463-1.998-.69-2.999-.386.001-.773-.001-1.159-.001zm4.44.001c-.002 1.27-.001 2.54-.001 3.81l.81-.001.002-1.343c.628-.034 1.4.109 1.877-.403.398-.601.334-1.676-.436-1.952-.731-.206-1.504-.076-2.252-.11zm3.509 0a2456.32 2456.32 0 0 0 0 3.839l.809.002.001-1.711 1.469.001.001 1.708.809.002c.002-1.28.002-2.562 0-3.842l-.809.001-.002 1.469c-.488.001-.978.002-1.466.001l-.002-1.471-.809.001z"/>
    <path fill="#ffd033" d="M11.851 17.845c.324.007.653-.013.972.054.485.096.472.942-.004 1.05-.318.07-.646.036-.968.044v-1.148z"/>
    <path fill="#050505" d="M1.969.33C8.552.259 15.143.319 21.729.3c1.138-.077 2.135.974 2.069 2.099.006 6.2-.001 12.401.004 18.601.268 1.321-.595 2.896-2.08 2.79-6.482-.001-12.966.006-19.447-.005-1.094.029-2.032-.98-1.974-2.062C.297 15.28.3 8.839.3 2.397.254 1.425.985.454 1.969.329zm-.122.7c-.516.097-.88.606-.844 1.123-.004 6.565-.005 13.13 0 19.694-.041.631.521 1.186 1.147 1.158 6.566.007 13.133.008 19.699 0 .626.026 1.187-.527 1.146-1.158.006-6.564.005-13.13.001-19.694.059-.691-.599-1.241-1.266-1.163-6.626.028-13.261-.054-19.884.04z"/>
    <path fill="#231f20" d="M5.272 4.912c.786-.69 1.897-.781 2.894-.694.896.079 1.853.421 2.37 1.201.786 1.214.542 3.186-.898 3.799 1.943.558 2.209 3.2 1.078 4.62-1.072 1.408-3.107 1.583-4.699 1.138-1.427-.416-2.114-1.978-2.129-3.362.47-.005.942-.005 1.412-.002.097.75.218 1.654.959 2.051.848.431 1.948.41 2.771-.076 1.013-.598 1.205-2.154.444-3.02-.716-.629-1.735-.628-2.634-.607l.001-1.169c.647.029 1.339.061 1.931-.247 1.001-.491 1.081-2.106.18-2.734-.748-.528-1.816-.512-2.596-.064-.667.409-.806 1.246-.863 1.962-.444.004-.889.004-1.333.001.032-1.018.311-2.108 1.111-2.797zM13.748 4.38c1.847 0 3.694.001 5.54-.001.002.43.002.859.001 1.29-1.511.005-3.022-.001-4.532.002-.158.985-.299 1.974-.462 2.959 1.378-.997 3.463-.841 4.66.373 1.571 1.516 1.096 4.399-.644 5.587-1.447.836-3.463.799-4.783-.275-.646-.515-.908-1.342-1.001-2.132a71.15 71.15 0 0 1 1.386-.001c.115 1.228 1.36 1.999 2.528 1.787 1.973-.09 2.696-3.004 1.273-4.207-.955-.827-2.579-.754-3.416.211-.334.416-.917.137-1.366.163.27-1.919.535-3.839.816-5.756zM6.601 17.189c.386 0 .773.002 1.159.001.227 1.001.458 2 .69 2.999.236-.998.462-1.999.691-3l1.148.001v3.839c-.25-.001-.499.001-.749.002-.007-1.04.005-2.081-.007-3.121-.246 1.034-.472 2.075-.707 3.112-.256.006-.512.01-.768.013-.241-1.038-.458-2.082-.707-3.119-.006 1.038.002 2.076-.004 3.114-.25-.001-.498 0-.748.001a1230.08 1230.08 0 0 1 0-3.842zM11.041 17.19c.749.035 1.522-.096 2.252.11.769.276.834 1.351.436 1.952-.476.512-1.249.37-1.877.403l-.002 1.343-.81.001c0-1.27-.001-2.54.001-3.81zm.81.655v1.148c.323-.008.65.025.968-.044.475-.108.488-.954.004-1.05-.319-.067-.648-.047-.972-.054zM14.55 17.19l.809-.001.002 1.471c.488.001.978 0 1.466-.001l.002-1.469.809-.001c.002 1.28.002 2.562 0 3.842l-.809-.002-.001-1.708-1.469-.001-.001 1.711-.809-.002V17.19z"/>
</svg>
