<svg xmlns="http://www.w3.org/2000/svg" width="24" height="24">
    <path fill="#231f20" d="M.781 9.283h22.452c.291.079.583.222.707.517v4.493c-.108.143-.219.284-.331.425H.511c-.29-.128-.434-.418-.511-.71v-3.861c.099-.396.364-.768.781-.863zm-.282.422c.594-.05 1.19-.021 1.785-.028h21.07l.272.272c.005 1.456-.011 2.913.008 4.37.087-.169.171-.348.153-.543-.007-1.159 0-2.316-.003-3.475a.785.785 0 0 0-.783-.782H1.099c-.215-.003-.409.103-.6.186zm-.186.838c.006 1.132-.001 2.263.002 3.394a.604.604 0 0 0 .623.623c7.355-.001 14.71-.002 22.063.001.181.005.353-.053.523-.108-7.489.065-15.004.006-22.503.03-.313.044-.665-.214-.628-.55.014-1.383-.028-2.767.024-4.149-.137.231-.104.502-.105.758zM.9 9.992l-.191.191c-.003 1.276.005 2.551-.004 3.827.178.069.357.155.552.155 7.196.002 14.392 0 21.588.002.173.011.321-.089.469-.161-.009-1.258.001-2.516-.003-3.775a.203.203 0 0 0-.239-.239H.901z"/>
    <path fill="#231f20" d="M2.126 10.702c.41.041.907-.135 1.243.173.347.413.239.985.256 1.481.025.387-.135.766-.42 1.025-.36-.004-.719-.002-1.079-.002v-2.676zm.395.471c-.001.604-.002 1.208 0 1.812l.36-.001.253-.262a2.84 2.84 0 0 0 0-1.365l-.172-.184h-.441zM4.095 10.701c.446-.001.892-.001 1.339.001v.471l-.866.001v.55l.551.002v.471l-.551.002v.787l.945.001v.392c-.473.002-.945.001-1.418.001v-2.678zM6.322 10.701l.437-.002c.241.887.474 1.778.664 2.677l-.47.005a3.983 3.983 0 0 0-.176-.716c-.152.002-.303.005-.454.005-.058.239-.121.476-.194.711-.156-.002-.312-.002-.468-.002.246-.886.416-1.791.661-2.678zm.136 1.215v.277l.217.008a10.318 10.318 0 0 1-.082-.426l-.135.141zM7.718 10.701c.358-.001.714.001 1.072-.001.551.448.553 1.264.453 1.909-.013.321-.227.565-.453.77l-1.072-.001V10.7zm.472.473c.001.61-.003 1.222.002 1.833.24-.02.564-.085.585-.383.072-.481.12-1.018-.143-1.453-.148.002-.296.002-.445.003zM11.026 10.701c.446-.001.892-.001 1.339.001v.471l-.866.001v.55l.551.002v.471l-.551.002v.787l.945.001v.392c-.473.002-.945.001-1.418.001v-2.678zM12.838 10.701l.44-.002c.228.462.395.952.659 1.396.006-.465 0-.93.002-1.395h.472c.001.892.002 1.785 0 2.677l-.382.003c-.28-.473-.467-.991-.713-1.48-.014.492-.002.985-.007 1.477h-.471v-2.678zM14.884 10.701c.358-.001.715.001 1.073-.001.141.159.339.295.377.519.158.721.224 1.614-.371 2.162-.359-.003-.719-.002-1.079-.002v-2.678zm.474.474c0 .611-.004 1.222.002 1.833.153-.031.306-.065.457-.105.215-.543.313-1.25-.079-1.736l-.38.007zM19.995 10.913l.224-.235c.722.386 1.362.904 2.033 1.37-.65.509-1.314 1.012-2.028 1.429l-.223-.209c.066-.223.124-.448.179-.674-.663-.007-1.325-.001-1.989-.003v-1.024c.681-.001 1.362 0 2.044 0-.081-.217-.157-.437-.241-.654z"/>
    <path fill="#fed14e" d="M.499 9.705c.191-.083.385-.189.6-.186h21.902a.785.785 0 0 1 .783.782c.003 1.159-.004 2.316.003 3.475.018.195-.065.374-.153.543-.019-1.457-.002-2.914-.008-4.37l-.272-.272H2.284c-.595.007-1.192-.022-1.785.028z"/>
    <path fill="#fdd04d" d="M.313 10.543c.001-.256-.032-.528.105-.758-.052 1.382-.01 2.766-.024 4.149-.038.336.314.594.628.55 7.499-.024 15.014.036 22.503-.03-.17.055-.342.113-.523.108-7.354-.002-14.709-.002-22.063-.001a.604.604 0 0 1-.623-.623c-.002-1.132.005-2.263-.002-3.394z"/>
    <path fill="#ffd24e" d="M.9 9.992h22.171a.203.203 0 0 1 .239.239c.004 1.258-.005 2.516.003 3.775-.149.072-.297.173-.469.161-7.196-.002-14.392.001-21.588-.002-.195 0-.374-.087-.552-.155.01-1.276.001-2.551.004-3.827l.191-.191zm1.226.71v2.676c.36.001.719-.002 1.079.002a1.28 1.28 0 0 0 .42-1.025c-.017-.495.091-1.068-.256-1.481-.336-.308-.834-.132-1.243-.173zm1.969-.001v2.678c.473 0 .945.001 1.418-.001v-.392l-.945-.001v-.787l.551-.002v-.471l-.551-.002v-.55l.866-.001v-.471c-.446-.002-.892-.002-1.339-.001zm2.227 0c-.245.887-.415 1.792-.661 2.678l.468.002c.072-.235.135-.473.194-.711l.454-.005c.079.232.139.472.176.716.157-.002.313-.002.47-.005-.19-.899-.423-1.79-.664-2.677l-.437.002zm1.396 0v2.678l1.072.001c.226-.206.439-.449.453-.77.1-.645.098-1.461-.453-1.909-.358.002-.714 0-1.072.001zm3.308 0v2.678c.473 0 .945.001 1.418-.001v-.392l-.945-.001v-.787l.551-.002v-.471l-.551-.002v-.55l.866-.001v-.471c-.446-.002-.892-.002-1.339-.001zm1.812 0v2.678h.471c.005-.492-.007-.985.007-1.477.247.489.433 1.007.713 1.48l.382-.003c.002-.892.001-1.785 0-2.677h-.472c-.002.465.004.93-.002 1.395-.264-.444-.431-.934-.659-1.396l-.44.002zm2.046 0v2.678c.36.001.72-.001 1.079.002.595-.548.529-1.441.371-2.162-.038-.224-.236-.36-.377-.519-.358.002-.715 0-1.073.001zm5.111.212c.084.217.16.436.241.654-.681 0-1.362-.001-2.044 0v1.024c.663.002 1.325-.004 1.989.003a14.22 14.22 0 0 1-.179.674l.223.209c.713-.417 1.378-.92 2.028-1.429-.671-.466-1.311-.984-2.033-1.37-.076.078-.15.156-.224.235z"/>
    <path fill="#ffd24e" d="M2.521 11.173h.441l.172.184a2.84 2.84 0 0 1 0 1.365l-.253.262-.36.001c-.002-.604-.001-1.208 0-1.812zM8.19 11.174l.445-.003c.262.435.215.972.143 1.453-.021.298-.345.362-.585.383-.005-.611-.002-1.222-.002-1.833zM15.358 11.175l.38-.007c.392.486.294 1.192.079 1.736a8.891 8.891 0 0 1-.457.105c-.006-.611-.002-1.222-.002-1.833zM6.458 11.916l.135-.141c.025.143.051.284.082.426l-.217-.008v-.277z"/>
</svg>
