<svg xmlns="http://www.w3.org/2000/svg" width="24" height="24">
    <path d="M.759 6h22.686c.292.168.552.393.738.675-.102 3.54-.08 7.088-.009 10.628-.117.306-.38.52-.644.697H.617a5.418 5.418 0 0 1-.618-.742V6.785a1.88 1.88 0 0 1 .759-.786zm.255.414c-.497.206-.708.771-.68 1.276.003 2.914-.003 5.828.003 8.74-.045.636.446 1.298 1.12 1.266 7.109.006 14.22.008 21.33 0 .671.03 1.16-.63 1.113-1.264.001-2.955.003-5.911-.001-8.866.038-.622-.448-1.258-1.102-1.236-7.034-.017-14.068.001-21.102-.009-.229.005-.465.007-.68.093z"/>
    <path d="M1.151 7.02c.195-.132.444-.097.666-.109 6.993.014 13.986-.011 20.979.012.417-.027.552.432.524.768-.003 2.914.005 5.828-.003 8.74.027.318-.157.705-.523.68-7.077.012-14.153.003-21.229.005a.53.53 0 0 1-.605-.56c-.024-2.913.001-5.828-.012-8.742.015-.269-.033-.603.205-.795zm.174.288c-.015 3.139-.011 6.279-.003 9.42 7.201.033 14.403.018 21.606.008.018-3.143.016-6.288 0-9.429-7.201-.009-14.403-.015-21.603.003z"/>
    <path d="M14.445 8.089l.445-.018a345.661 345.661 0 0 0-1.829 3.717c-.091.003-.273.008-.363.009.587-1.234 1.17-2.469 1.748-3.708zM15.643 8.082l.424-.009-1.697 3.461-.349.003c.531-1.156 1.086-2.302 1.622-3.456zM16.848 8.081l.412-.006c-.494 1.014-.995 2.022-1.488 3.035-.09-.003-.271-.006-.361-.008.495-1 .957-2.014 1.437-3.022zM18.016 8.084c.142-.003.285-.009.426-.014-.507 1.008-.994 2.028-1.498 3.037l-.355-.003c.483-1.003.96-2.01 1.427-3.022zM19.187 8.086c.147-.006.294-.012.441-.02-.558 1.104-1.092 2.22-1.643 3.326h-.346c.508-1.106 1.04-2.2 1.548-3.306zM20.38 8.088l.443-.016c-.554 1.095-1.081 2.202-1.628 3.302-.066.209-.297.246-.471.32.492-1.228 1.117-2.399 1.657-3.606zM7.29 8.16c.148.137.294.276.442.414.327-.001.654-.001.982-.011-.001.174-.003.351-.001.525a14.31 14.31 0 0 0-.544.087c-.746-.125-1.504-.033-2.256-.066-.001-.18-.003-.361-.003-.542.333.003.666.003 1 .003.125-.139.251-.276.38-.412zM6.097 11.639c-.457-.634-.438-1.469-.062-2.136-.256.703-.377 1.559.17 2.163.45.531 1.184.491 1.812.477a2.278 2.278 0 0 1-1.715-.253c-.86.52-1.203 1.503-1.191 2.466-.056-.988.081-2.129.986-2.718z"/>
    <path d="M6.258 9.902l.644.005-.029.28-.605-.001a13.68 13.68 0 0 1-.009-.284zM7.634 9.904c.211-.001.42-.003.631-.003l-.005.285c-.2 0-.401.001-.601.003a13.707 13.707 0 0 0-.026-.285zM8.803 9.777c.098.511.098 1.038.001 1.549a159.94 159.94 0 0 1-.001-1.549zM7.165 10.377l.314.019c-.003.177-.003.354-.005.531l-.306.022-.003-.572zM16.216 11.218c.036-.109.109-.329.144-.439l.141.439c1.36.078 2.505.986 3.29 2.041-.375-.162-.78-.228-1.143 0a35.994 35.994 0 0 0-.437-.284c-.308.318-.717.327-1.044.03-.153.084-.304.168-.455.254a38.837 38.837 0 0 1-.206-.108c-.039.989.115 2.008-.081 2.978-.408.609-1.302.168-1.311-.498l.477-.054.082.411c.165-.006.328-.012.494-.021.06-.933.006-1.869.036-2.802l-.204.09c-.149-.084-.3-.166-.448-.249-.336.3-.723.279-1.048-.027-.146.091-.289.184-.434.278-.366-.229-.768-.15-1.142.009.774-1.065 1.929-1.97 3.288-2.049zM6.934 11.271c.322.015.679-.03.931.219-.317.048-.636.06-.955.068l.024-.288zM8.165 11.844c.109-.08.217-.161.325-.243 1.494.936 1.332 3.575-.335 4.236-1.08.514-2.38-.129-2.881-1.154.393.342.762.745 1.272.912.951.38 2.123-.032 2.679-.874.561-1.047.028-2.43-1.059-2.879z"/>
    <path fill="#fff" d="M1.014 6.414c.214-.086.451-.089.68-.093 7.034.009 14.068-.009 21.102.009.654-.022 1.14.615 1.102 1.236.005 2.955.003 5.911.001 8.867.048.634-.442 1.294-1.113 1.264-7.11.008-14.22.006-21.33 0-.674.033-1.165-.629-1.12-1.266C.33 13.518.337 10.605.333 7.69c-.028-.505.183-1.071.68-1.276zm.137.606c-.237.192-.191.526-.205.795.014 2.914-.012 5.829.012 8.742a.53.53 0 0 0 .605.56c7.077-.003 14.153.008 21.229-.005.366.026.55-.363.523-.68.009-2.913 0-5.826.003-8.741.028-.336-.106-.795-.523-.768-6.993-.023-13.986.001-20.979-.012-.222.012-.471-.023-.666.109z"/>
    <path fill="#fff" d="M1.325 7.308c7.201-.017 14.403-.012 21.603-.003.016 3.142.018 6.286 0 9.429-7.203.011-14.405.026-21.606-.008-.009-3.141-.012-6.28.003-9.42zm13.12.781a545.285 545.285 0 0 1-1.748 3.708c.091-.001.273-.006.363-.009a345.661 345.661 0 0 1 1.829-3.717l-.445.018zm1.198-.007c-.536 1.154-1.091 2.3-1.622 3.456l.349-.003 1.697-3.461-.424.009zm1.205-.001c-.479 1.008-.942 2.022-1.437 3.022.09.001.271.005.361.008.492-1.014.994-2.022 1.488-3.035l-.412.006zm1.168.003a198.156 198.156 0 0 1-1.427 3.022l.355.003c.504-1.01.991-2.029 1.498-3.037l-.426.014zm1.171.002c-.508 1.107-1.04 2.201-1.548 3.306h.346c.55-1.107 1.085-2.222 1.643-3.326-.148.008-.294.014-.441.02zm1.193.002c-.54 1.207-1.165 2.378-1.657 3.606.174-.074.406-.111.471-.32.546-1.1 1.074-2.208 1.628-3.302l-.442.016zM7.29 8.16c-.129.136-.255.273-.38.412l-1-.003.003.542c.752.033 1.511-.06 2.256.066.18-.034.363-.062.544-.087-.001-.174 0-.351.001-.525-.327.009-.654.009-.982.011-.148-.138-.294-.277-.442-.414zm-1.193 3.479c-.904.589-1.041 1.729-.986 2.718-.012-.963.331-1.946 1.191-2.466.517.309 1.13.396 1.715.253-.628.014-1.362.054-1.812-.477-.546-.605-.426-1.461-.17-2.163-.376.666-.395 1.502.062 2.136zm.161-1.737c.003.071.008.212.009.284l.605.001.029-.28-.644-.005zm1.376.002l.026.285c.2-.003.401-.003.601-.003l.005-.285c-.211.001-.42.003-.631.003zm1.169-.127c-.001.516-.001 1.032.001 1.549a4.138 4.138 0 0 0-.001-1.549zm-1.638.6c.001.19.003.381.003.572l.306-.022.005-.531-.314-.02zm9.051.841c-1.36.079-2.514.983-3.288 2.049.375-.159.776-.237 1.142-.009.144-.093.288-.186.434-.278.325.306.713.327 1.049.027.149.082.3.165.448.249l.204-.09c-.03.933.024 1.869-.036 2.802a27.08 27.08 0 0 1-.493.021 59.702 59.702 0 0 1-.082-.411l-.477.054c.009.666.903 1.108 1.311.498.197-.969.042-1.989.081-2.978l.206.108c.15-.086.302-.169.455-.254.327.297.736.288 1.044-.03.145.093.291.188.436.284.363-.228.768-.162 1.143 0-.784-1.056-1.929-1.964-3.289-2.041l-.141-.439c-.035.111-.108.33-.144.439zm-9.282.053l-.024.288c.319-.009.639-.019.955-.068-.252-.249-.609-.205-.931-.219zm1.231.573c1.088.448 1.62 1.831 1.059 2.879-.556.843-1.728 1.254-2.679.874-.509-.168-.879-.571-1.272-.912.501 1.026 1.801 1.668 2.881 1.154 1.666-.662 1.828-3.3.334-4.236l-.325.243z"/>
</svg>
