<svg xmlns="http://www.w3.org/2000/svg" width="24" height="24">
    <path fill="#3d3d3d" d="M.855 5.879c6.45-.065 12.9-.006 19.35-.007l.037.199c.407.007.816-.019 1.219.053-.762.067-1.521-.061-2.284-.037-2.695.002-5.39.005-8.085-.001-.299.002-.588.093-.886.105-3.106.014-6.213-.005-9.319.01l.053-.035c.293-.044.59-.028.885-.027 2.071.001 4.141-.001 6.212.001.433.006.871.006 1.294-.095a2.457 2.457 0 0 0-.703-.093c-2.448.01-4.897-.008-7.346.004-.145-.005-.286-.043-.426-.076z"/>
    <path fill="#0c0c0c" d="M.416 6.019a.684.684 0 0 1 .44-.139c.14.033.281.071.426.076 2.449-.012 4.897.006 7.346-.004.238-.005.474.031.703.093-.424.102-.861.102-1.294.095-2.071-.002-4.141-.001-6.212-.001-.295-.001-.592-.017-.885.027-.158.008-.317.013-.475.019l-.049-.168z"/>
    <path fill="#202020" d="M20.205 5.872c.972-.001 1.945.005 2.917.001.431-.029.68.406.836.745V9.05c-.031.193-.063.388-.062.584.014 1.943-.006 3.886-.007 5.828.031.736-.009 1.471-.02 2.206-.135.267-.379.449-.633.593h-2.839c-.08-.019-.159-.041-.239-.058-.274-.275-.689-.103-1.03-.115-1.843.031-3.686-.035-5.528-.047 1.088-.038 2.179.004 3.268-.04 1.904.001 3.809.064 5.713.009.174.003.334-.067.483-.151.176-.075.325-.199.44-.352.052-.063.106-.124.159-.185-.068-.489-.031-.984-.039-1.476-.009-1.906.023-3.812.004-5.718-.016-.373.082-.783-.126-1.119-.022-.779.001-1.558-.005-2.337.021-.217-.193-.329-.345-.432-.534-.21-1.132-.017-1.689-.115-.403-.073-.812-.046-1.219-.053l-.037-.199zm3.463 1.02c-.05.284.027.568.006.853-.114.873.029 1.753-.027 2.629-.031.255.066.495.119.738.005.253-.131.487-.124.74-.008.238.122.454.122.691-.034.247-.131.486-.118.739.02 1.296-.021 2.594.021 3.889l.188.049c-.009-.625.098-1.266-.076-1.876-.051-.25.09-.484.1-.73.025-.255-.098-.49-.117-.74.016-.218.114-.421.114-.64-.003-1.474-.004-2.948.001-4.422-.09-.658.094-1.317-.011-1.975l-.198.056zM0 6.597a1.85 1.85 0 0 1 .416-.579l.049.168c.158-.007.317-.011.475-.019l-.1.067c-.112.074-.22.154-.33.23l-.147.101-.015.243-.264.114c-.003.217-.03.457.12.637l-.143.127.117.17c-.1.2-.142.422-.129.644.022.511-.037 1.025.047 1.533.059.328-.019.656-.049.982-.043.247.228.399.227.639.034.265-.245.434-.241.692-.017.262.272.426.241.692 0 .237-.245.395-.228.638.027 1.16-.019 2.322.017 3.483l.283.034v.147l-.344-.063V6.6z"/>
    <path fill="#545454" d="M10.205 6.193c.298-.013.587-.103.886-.105 2.695.006 5.39.003 8.085.001.763-.025 1.521.104 2.284.037.558.098 1.155-.095 1.689.115-6.878.021-13.757.011-20.636.017-.559-.008-1.118.021-1.675-.022l.047-.031c3.106-.016 6.213.003 9.319-.01z"/>
    <path fill="#b9b9b9" d="M.509 6.465c.111-.076.219-.157.33-.23.558.042 1.117.014 1.675.022 6.879-.006 13.758.005 20.636-.017.153.103.367.215.345.432.006.779-.017 1.558.005 2.337.012.291.041.58.038.872-.038 2.542.026 5.085-.036 7.626a1.09 1.09 0 0 1-.44.352l-.219-.005c-6.694-.041-13.389.014-20.084-.014-.548.006-1.097-.015-1.645.015a10.802 10.802 0 0 0-.18-.002.912.912 0 0 1-.426-.258c-.113-.256-.098-.539-.094-.812-.003-3.254.005-6.508-.001-9.762-.004-.19.04-.375.094-.556zm.27-.091c-.204.103-.224.346-.219.548.008 3.466-.006 6.934.008 10.4-.031.308.308.452.566.437 7.247.002 14.495-.001 21.742-.002.292.022.572-.236.554-.532.006-3.501.007-7.004-.015-10.505-.005-.242-.27-.398-.49-.4-7.263-.008-14.527.006-21.79.001-.119.007-.246 0-.355.053z"/>
    <path fill="#fff" d="M.779 6.374c.11-.053.236-.046.355-.053 7.263.005 14.527-.008 21.79-.001.221.002.485.158.49.4.022 3.501.021 7.003.015 10.505.018.297-.262.555-.554.532-7.247.001-14.495.003-21.742.002-.257.015-.596-.129-.566-.437-.014-3.466.001-6.934-.008-10.4-.005-.201.015-.446.219-.548zm8.376 1.011l.005.025c-.314.443-.399 1.036-.273 1.561.171.945 1.059 1.687 2.009 1.742.282.041.574-.06.844-.047.794.83 2 1.254 3.135 1.029a2.92 2.92 0 0 1 .689-.109l.057.089c.109.387.532.646.862.869-.128.227-.067.48.01.711l.176.042c-.054.098-.093.238.054.271.231.083.436.414.698.274.079-.209.03-.449.065-.67.061.213.006.433.009.649.142.164.367.013.51-.077.149-.117.481-.232.27-.448l.18-.039c.094-.235.227-.486.11-.74.178-.024.387-.1.52.068a2.576 2.576 0 0 0 2.608.539c.141-.038.351-.09.325-.282.006-1.727-.001-3.455.005-5.183-.006-.09.006-.195-.061-.266-.249-.137-.54-.09-.811-.094L10.059 7.3c-.302.003-.616-.038-.901.085zm-.779 3.394c.115.251.334.423.541.594-.111.101-.22.203-.328.308-.162-.201-.331-.402-.554-.538-.412.315-.748.714-1.137 1.054-.238.289.143.576.383.691-.201.256-.466.452-.673.704.098.213.26.389.477.483-.077.136-.165.35-.355.325a10.902 10.902 0 0 1-.535-.562c.044-.035.089-.069.135-.103l.013-.168c-.125-.13-.243-.279-.423-.334-.274.344-.647.594-.92.939.02.136.157.227.257.312l-.073-.032a2.6 2.6 0 0 0 .196.306c-.112.111-.225.22-.332.335.017-.275-.247-.553-.508-.572-.301.161-.504.46-.739.701.13.205.298.497.585.441.21-.093.343-.296.511-.445.138.241.435.592.734.393.293-.292.589-.582.887-.869.143.229.327.52.643.459-.103.112-.21.222-.286.355a.896.896 0 0 0 .42.407c.171.072.303-.093.416-.193.304-.31.64-.59.917-.926l.07-.011c.14.178.283.394.536.401-.365.255-.058.702.27.786.299-.184.594-.439.77-.747-.031-.235-.292-.39-.489-.499.091-.106.198-.213.206-.362l.012-.011c.159-.006.267-.128.373-.229.055.232.229.413.431.527.144-.008.244-.126.313-.241l-.073.027c.217-.291.645-.453.723-.824a8.383 8.383 0 0 1-.271-.261l-.226.004c-.22.238-.462.456-.69.687-.171-.156-.329-.325-.496-.484a9.925 9.925 0 0 1-.003-.174l-.08-.025c.071-.017.149-.046.186-.114.089-.027.234-.066.146-.183-.139-.185-.371-.523-.628-.323-.211.22-.466.404-.649.648-.017.234.234.333.343.505.024.178-.178.266-.278.383-.169.13-.277.349-.479.425-.19-.16-.34-.452-.637-.367.028-.315-.27-.474-.487-.632.114-.112.227-.225.338-.34.065.055.13.111.196.165l.033-.103a.429.429 0 0 0 .396.306c.21-.21.425-.416.63-.631-.11-.118-.221-.235-.332-.351-.268.014-.422.268-.595.441-.13-.2-.299-.368-.48-.522-.089-.055-.041-.171.026-.222.241-.232.489-.456.717-.701.103.183.236.365.432.455.203.041.338-.157.467-.281-.033.275.174.573.458.589.214-.132.365-.341.562-.495.181.328.505.536.708.848.102.163.378.357.484.091.058-.04.094-.101.134-.157.059.246.237.443.447.575.139-.017.235-.139.338-.222.293-.283.599-.554.875-.854.126-.149-.064-.313-.17-.41-.103-.076-.268-.234-.382-.094-.126.112-.241.236-.362.353-.11-.125-.225-.25-.379-.32a8.668 8.668 0 0 1-.058-.172c.277-.274-.04-.568-.28-.718-.288-.021-.414.318-.625.461-.166-.187-.305-.505-.596-.487-.22.128-.392.322-.577.494.087-.315-.239-.461-.429-.637.323-.273-.077-.584-.329-.709-.308.165-.538.444-.792.68zm5.974 1.388l-.157.005a.887.887 0 0 1-.268.219l-.012.068c.183.034.371.076.515.202-.002.083-.002.166-.003.25l-.24.002a10.6 10.6 0 0 1-.268-.251l-.197.001c.015.062.04.123.049.187-.185.139-.123.381-.116.579l.291.017-.152.081.002.169c.103.017.207.033.31.048.038.031.076.064.112.097l.165.009.058.129-.054.016c.252.041.508.035.762.02l-.309.257-.025.163c.151.027.304.049.458.065.068.04.127.094.187.145l-.005.205c-.067-.003-.134-.006-.2-.012a2.69 2.69 0 0 0-.273-.338c-.08.003-.159.005-.238.014-.177.299-.115.683.041.977.169.301.502.44.811.551.144-.228.07-.506.105-.759.142.217-.146.724.243.701.452-.011.586-.47.849-.741a6.67 6.67 0 0 0-.074-.399c.204-.219-.043-.413-.282-.343.079-.053.178-.116.144-.229-.19-.253-.528-.44-.849-.351-.015.22.043.443-.023.659-.023-.22-.026-.441-.031-.662l-.334-.016.254-.28-.089-.163c.09-.022.184-.038.27-.076a1.156 1.156 0 0 0-.189-1.043l-.071.044a3.77 3.77 0 0 1-.575-.364 8.63 8.63 0 0 1-.137.067c.065.165.07.342.064.517l-.24.13c-.114-.241.014-.499-.07-.738-.07.057-.141.113-.21.171zm-2.176 1.956l.008.196c-.335.341-.177.911.041 1.281.267.103.5.32.798.324.005-.245.004-.489.021-.733.154.219-.052.467.025.699.197.13.401-.077.584-.143.228-.078.294-.321.405-.508l-.02-.15a.667.667 0 0 0 .022-.412c.009-.521-.496-.859-.96-.937-.082.259.041.522-.014.783l-.024.033a1.705 1.705 0 0 1-.044-.042c-.005-.253.054-.522-.049-.761-.285.074-.523.258-.793.369zm6.615-.186l-.087.064c.012.231.042.465-.017.693-.314-.163-.087-.46-.121-.704-.299-.022-.536.202-.782.337.146.242.491.225.611.492-.285.097-.468-.139-.682-.275-.088.278-.178.64.053.874.15-.172.346-.302.582-.23-.087.236-.342.251-.554.292.049.351.467.438.757.51l.055-.143c-.141-.194-.133-.428.08-.564.059.246-.013.505.074.746.275-.092.621-.22.695-.533-.202-.069-.451-.085-.546-.31.124-.007.248-.011.373-.014l.034.041c.056.107.166.158.27.21.079-.289.126-.628-.01-.903-.226.138-.398.413-.705.299.12-.275.48-.24.636-.484-.238-.134-.469-.282-.717-.398z"/>
    <path fill="#343434" d="M.362 6.566l.147-.101a1.817 1.817 0 0 0-.094.556c.006 3.254-.002 6.508.001 9.762-.004.273-.019.556.094.812l-.245.319a1.94 1.94 0 0 1-.264-.478v-.161c.115.02.23.041.344.063v-.147c.029-.517-.021-1.029-.056-1.543.112-.621-.009-1.249.054-1.874.009-2.322-.002-4.644.005-6.966l.015-.243zM18.771 14.037c.162.162.405.182.589.311a4.57 4.57 0 0 1-.451.219c-.054-.175-.096-.353-.138-.531z"/>
    <path fill="#060606" d="M.083 6.922l.264-.114C.341 9.13.352 11.452.342 13.774c-.064.625.058 1.253-.054 1.874.035.513.085 1.026.056 1.543l-.283-.034c-.036-1.16.01-2.322-.017-3.483-.017-.243.228-.4.228-.638.031-.265-.258-.43-.241-.692-.004-.258.275-.426.241-.692.002-.239-.27-.391-.227-.639.03-.327.108-.654.049-.982C.009 9.523.068 9.009.047 8.498c-.013-.222.03-.444.129-.644l-.117-.17.143-.127c-.15-.179-.122-.419-.12-.637zM6.9 12.434c.255-.449.739-.719 1.075-1.109l.175.005c.072.071.145.143.219.212.031.195-.136.312-.258.434-.3.255-.567.545-.86.807-.116-.117-.232-.235-.351-.35z"/>
    <path fill="#030303" d="M23.668 6.892l.198-.056c.106.658-.079 1.317.011 1.975a814.709 814.709 0 0 0-.001 4.422c0 .219-.098.423-.114.64.019.249.142.485.117.74-.01.246-.151.481-.1.73.174.61.067 1.252.076 1.876l-.188-.049c-.042-1.295-.001-2.593-.021-3.889-.014-.254.084-.492.118-.739-.001-.236-.13-.452-.122-.691-.007-.254.129-.487.124-.74-.054-.244-.15-.483-.119-.738.056-.876-.087-1.756.027-2.629.02-.284-.056-.568-.006-.853zM9.005 7.927c.955-.093 1.918-.039 2.875.014.857.047 1.724-.163 2.57.045.803.165 1.597-.241 2.399-.055.545.18 1.149.172 1.696-.001.602-.109 1.211.02 1.814.045.481.025.949-.129 1.43-.104.021.266.022.532.003.798-.759-.028-1.521.055-2.276-.061-.819-.124-1.64.149-2.457.022-.532-.166-1.117-.189-1.65-.016-.585.148-1.173-.027-1.755-.087-.502-.064-.978.179-1.478.118-1.05-.067-2.099.055-3.15.034-.013-.233-.03-.465-.031-.698l.008-.054z"/>
    <path fill="#c7c7c7" d="M9.155 7.385c.285-.123.599-.082.901-.085l11.092-.001c.272.004.562-.043.811.094-4.268.005-8.537.022-12.805-.008z"/>
    <path fill="#a1a1a1" d="M9.155 7.385c4.267.031 8.537.014 12.805.008.067.071.055.176.061.266-.006 1.728.001 3.456-.005 5.183.026.191-.183.244-.325.282a2.573 2.573 0 0 1-2.608-.539c-.133-.167-.342-.092-.52-.068.254-.274.537-.025.76.15.695.512 1.685.655 2.478.291.176-.061.149-.266.154-.415-.02-1.364.005-2.728-.003-4.092-.009-.321.038-.649-.044-.964l-.101-.004c-4.21-.001-8.421.001-12.631.007l-.016-.08-.005-.025zM0 17.436c.067.169.152.333.264.478.15.13.316.246.5.322l.063.025H.579A2.067 2.067 0 0 1 0 17.633v-.197z"/>
    <path fill="#8a8a8a" d="M8.887 8.971c-.126-.524-.04-1.117.273-1.561l.016.08-.036.112c-.044.11-.095.215-.135.326l-.008.054c-.066.323-.07.656-.006.979.056.425.32.787.609 1.089a2.174 2.174 0 0 0 1.885.519c.335-.101.514.258.765.402.159.113.32.225.493.317.842.425 1.85.445 2.743.177l.077.121a2.929 2.929 0 0 0-.689.109c-1.134.224-2.341-.199-3.135-1.029-.27-.013-.561.089-.844.047-.951-.055-1.838-.797-2.009-1.742z"/>
    <path fill="#040404" d="M9.14 7.602l.036-.112c4.21-.006 8.421-.007 12.631-.007l-.025.308c-.503-.009-1.014.031-1.512-.057-.457-.157-.952-.151-1.425-.087-.461.158-.961.161-1.438.095-.471-.174-.986-.153-1.476-.097-.529.181-1.09.074-1.636.103-1.035.037-2.071-.078-3.105.014-.666.061-1.334-.017-2 .029l-.051-.19zM9.031 8.764c.671-.012 1.341.021 2.011.069.741.051 1.48-.097 2.221-.04.575.174 1.206.225 1.783.031.475-.079.978-.079 1.439.075.502.094 1.019.04 1.506-.101 1.267.047 2.535-.052 3.802-.023.031.405.001.81.014 1.215-.279.008-.563.003-.83-.09-.325-.116-.674-.085-1.012-.087-.355-.013-.674.213-1.033.16a16.758 16.758 0 0 0-1.707.009c-.634-.043-1.279.064-1.903-.085-.298-.074-.631.038-.903-.135-.17-.106-.374-.102-.567-.097-.361.014-.733-.04-1.083.079.322.153.69.047 1.024.15-.408.149-.849.056-1.273.094-.392.043-.742-.201-1.134-.167-.382.024-.784-.061-1.146.095a2.072 2.072 0 0 1-.642.134c-.29-.302-.553-.664-.609-1.089.013-.066.026-.131.041-.197z"/>
    <path fill="#232323" d="M21.808 7.483l.101.004c-.148.896.075 1.811-.088 2.706a7.14 7.14 0 0 1-.013-.203c-.013-.405.018-.81-.014-1.215-1.268-.029-2.536.071-3.802.023-.487.14-1.004.196-1.506.101-.461-.154-.964-.154-1.439-.075-.577.194-1.208.143-1.783-.031-.74-.057-1.48.091-2.221.04a22.125 22.125 0 0 0-2.011-.069 6.893 6.893 0 0 0-.041.197 2.5 2.5 0 0 1 .006-.979c.001.233.019.465.031.698 1.051.021 2.099-.101 3.15-.034.5.061.976-.183 1.478-.118.581.059 1.17.234 1.755.087.533-.173 1.118-.15 1.65.016.818.127 1.638-.146 2.457-.022.755.116 1.517.033 2.276.061a5.314 5.314 0 0 0-.003-.798c-.481-.024-.949.13-1.43.104-.604-.025-1.213-.154-1.814-.045a2.782 2.782 0 0 1-1.696.001c-.802-.185-1.595.22-2.399.055-.845-.209-1.713.002-2.57-.045-.957-.052-1.921-.106-2.875-.014.04-.111.091-.217.135-.326l.051.19c.666-.046 1.334.032 2-.029 1.034-.092 2.07.023 3.105-.014.546-.03 1.108.077 1.636-.103.49-.057 1.005-.077 1.476.097.477.066.978.063 1.438-.095.473-.064.968-.069 1.425.087.498.087 1.009.048 1.512.057l.025-.308zM18.047 11.552c.233-.198.554-.129.834-.136.92.035 1.843.053 2.763.006.275-.032.172.322.184.487-.013-.131-.035-.261-.055-.39-.21-.003-.42.001-.63.009l-.116.218c-.867.016-1.734.017-2.59.159-.057.049-.094.115-.138.174.492.084 1.043-.095 1.483.201.226.14.496.037.735-.011-.257-.039-.515-.071-.771-.125.292-.3.734-.188 1.106-.209.242-.02.478.05.666.204-.157.051-.315.099-.472.147.239.04.482.056.724.055.019-.117.04-.233.054-.351-.021.267.04.535.011.8-.389.399-.978.188-1.426.029-.39.033-.8.065-1.129-.198-.109-.114-.204-.261-.362-.308-.191-.009-.347.126-.509.209-.009.169-.019.337-.03.506-.237-.104-.51-.196-.755-.058a2.42 2.42 0 0 1-.511-.281c.335-.13.689-.193 1.036-.28-.462-.152-.926.03-1.315.279.014.071.037.141.058.211-.075.043-.147.091-.219.137-.047-.16-.044-.335-.118-.487-.112-.166-.29-.269-.442-.393.243-.011.485-.036.724-.078a26.013 26.013 0 0 1-.04-.275l.198-.148c-.454-.008-.908-.007-1.362-.017.022-.051.046-.101.069-.152.671.183 1.387-.049 2.047.178-.27.089-.558.088-.833.15.287.197.651.127.978.142.218.021.39-.128.59-.18.239-.031.485-.019.716-.1-.378-.1-.777-.017-1.154-.125zM12.539 15.374l.246-.07.03.306-.27-.021a15.278 15.278 0 0 1-.005-.214z"/>
    <path fill="#3c3c3c" d="M21.908 7.486c.082.315.035.643.044.964.008 1.364-.017 2.728.003 4.092-.005.149.022.354-.154.415-.793.365-1.783.222-2.478-.291l-.04-.045c.328.263.738.231 1.129.198.448.159 1.036.37 1.426-.029.029-.265-.032-.533-.011-.8l.003-.081c-.013-.165.091-.52-.184-.487-.92.047-1.843.029-2.763-.006-.28.006-.601-.063-.834.136.377.109.776.025 1.154.125-.231.08-.477.068-.716.1-.199.052-.372.201-.59.18-.327-.016-.691.054-.978-.142.275-.063.563-.062.833-.15-.66-.227-1.376.005-2.047-.178l-.069.152-.016.037-.057-.089a4.967 4.967 0 0 1-.077-.121c-.893.268-1.901.247-2.743-.177 1.245-.094 2.501-.039 3.741-.189a7.53 7.53 0 0 0-.561-.047c.006-.056.014-.113.022-.169.538-.045 1.087.055 1.613-.104a7.37 7.37 0 0 1 1.606.015 3.755 3.755 0 0 1-.533.127c.23.095.438.263.693.283.819.001 1.635.102 2.454.05.043-.246.062-.496.052-.747.001-.105-.005-.21-.008-.314.163-.895-.059-1.81.088-2.706z"/>
    <path fill="#575757" d="M23.501 9.008c.208.335.11.747.126 1.119.02 1.906-.013 3.811-.004 5.718.008.492-.03.987.039 1.476l-.159.185c.062-2.541-.002-5.085.036-7.626.004-.291-.026-.581-.038-.872zM23.897 9.634c-.001-.196.031-.39.062-.584v8.46l-.089.158c.011-.735.051-1.471.02-2.206.002-1.942.021-3.885.007-5.828z"/>
    <path fill="#181818" d="M12.77 9.743c.35-.118.722-.066 1.083-.079.193-.005.397-.009.567.097.272.173.605.061.903.135.624.149 1.269.042 1.903.085-1.107.303-2.245-.154-3.367.021-.811.163-1.641.119-2.463.134l.001.127c.76.012 1.523.021 2.279.085.154.028.309.053.464.077.055.026.108.054.162.083-.225.043-.452.08-.675.136.451.23.974.071 1.458.123.377.049.711-.184 1.085-.162.691.022 1.382-.014 2.072.002a.677.677 0 0 0 .44-.131c-.736-.218-1.528-.018-2.284-.127a39.728 39.728 0 0 1 2.237-.076c.331-.022.606.218.935.204.526-.003 1.052-.009 1.579-.007a1.25 1.25 0 0 0 .57-.123c-.747-.077-1.501-.018-2.249-.026-.242.013-.35-.246-.537-.352.359.053.678-.173 1.033-.16.338.002.687-.029 1.012.087.266.092.55.098.83.09.003.068.008.136.013.203.003.104.008.209.008.314-.013.133-.035.266-.055.398-.768.014-1.538.025-2.303-.041-.237-.035-.434-.224-.687-.191-.544.037-1.102-.066-1.626.125-1.246.067-2.499.01-3.746.105-.388.018-.779-.018-1.161.069-.25-.144-.43-.503-.765-.402-.67.129-1.383-.053-1.885-.519.218-.018.438-.049.642-.134.362-.157.764-.071 1.146-.095.391-.034.741.21 1.134.167.423-.038.864.055 1.273-.094-.335-.103-.702.003-1.024-.15z"/>
    <path fill="#2a2a2a" d="M11.396 10.137c.822-.015 1.651.029 2.463-.134 1.122-.175 2.26.282 3.367-.021.568-.04 1.138-.027 1.707-.009.188.105.296.364.537.352.749.007 1.503-.051 2.249.026a1.237 1.237 0 0 1-.57.123c-.526-.003-1.052.005-1.579.007-.33.014-.605-.227-.935-.204-.746.006-1.493.027-2.237.076.756.109 1.548-.09 2.284.127a.671.671 0 0 1-.44.131c-.691-.016-1.382.021-2.072-.002-.373-.022-.708.21-1.085.162-.484-.052-1.006.107-1.458-.123.222-.056.449-.093.675-.136a3.534 3.534 0 0 0-.162-.083c.734.045 1.471.033 2.206.02l-.003-.197c-.323.002-.658.022-.962-.112-.231-.125-.414.135-.639.145-.356.02-.72-.044-1.067.067-.756-.064-1.519-.073-2.279-.085l-.001-.127zM16.841 13.442c.121-.063.242-.127.362-.193.035.122.071.244.109.365a22.766 22.766 0 0 0-.368-.006l-.018-.027c-.029-.046-.056-.093-.084-.139z"/>
    <path fill="#414141" d="M14.743 10.282c.225-.009.407-.269.639-.145.304.134.639.114.962.112l.003.197c-.735.014-1.472.025-2.206-.02-.155-.024-.31-.05-.464-.077.347-.112.711-.047 1.067-.067z"/>
    <path fill="#c3c3c3" d="M8.376 10.779c.255-.236.484-.514.792-.68.252.125.652.436.329.709.189.176.516.322.429.637.185-.172.356-.366.577-.494.291-.017.43.299.596.487.211-.143.337-.482.625-.461.24.151.557.444.28.718l.058.172-.05-.029-.112-.113c.059-.103.128-.205.165-.32-.094-.162-.246-.277-.38-.404-.411.366-.834.724-1.195 1.141.043.045.086.09.131.134.071.066.146.13.219.194.207.19.303.476.553.625l.169-.098c-.106.266-.382.071-.484-.091-.203-.312-.527-.521-.708-.848-.197.154-.349.363-.562.495-.284-.015-.491-.314-.458-.589-.129.124-.264.322-.467.281-.196-.091-.328-.272-.432-.455-.228.245-.477.469-.717.701-.067.051-.115.167-.026.222.181.153.35.322.48.522a1.254 1.254 0 0 0-.099.236l-.033.103c-.066-.055-.13-.111-.196-.165-.112.115-.224.228-.338.34.217.158.514.318.487.632.296-.085.446.208.637.367.202-.076.31-.295.479-.425.099-.117.302-.205.278-.383-.109-.172-.36-.271-.343-.505.183-.244.438-.428.649-.648.257-.2.488.138.628.323.089.118-.056.157-.146.183a6.7 6.7 0 0 0 .079-.145 15.617 15.617 0 0 1-.367-.361c-.301.181-.531.447-.777.692l.344.363c.111-.048.22-.097.33-.148l.059.085c-.337.344-.708.652-1.043.998a.9.9 0 0 0 .379.386c.233-.284.519-.514.797-.751-.008.149-.115.256-.206.362.197.11.459.264.489.499-.176.308-.471.562-.77.747-.327-.085-.635-.531-.27-.786-.253-.007-.396-.223-.536-.401l-.07.011c-.276.337-.613.616-.917.926-.114.101-.246.265-.416.193a.887.887 0 0 1-.42-.407c.076-.133.183-.244.286-.355-.316.061-.5-.23-.643-.459-.298.287-.594.577-.887.869-.299.199-.596-.152-.734-.393-.169.149-.302.352-.511.445-.287.057-.455-.236-.585-.441.236-.241.439-.54.739-.701.261.019.525.297.508.572a9.53 9.53 0 0 1 .332-.335 2.648 2.648 0 0 1-.196-.306l.073.032c.056.027.112.052.169.078.257-.241.489-.509.769-.724.17.195.351.38.535.562.191.025.278-.189.355-.325a.937.937 0 0 1-.477-.483c.207-.251.472-.448.673-.704-.241-.115-.621-.402-.383-.691.389-.34.725-.739 1.137-1.054.223.136.392.337.554.538.108-.104.217-.207.328-.308-.207-.172-.426-.343-.541-.594zm.164-.024l.01.176c.119.113.249.224.423.226.193-.214.444-.377.587-.632-.152-.089-.289-.317-.482-.257-.191.149-.351.334-.539.487zm.828.307c-.252.258-.548.474-.774.756.073.139.201.323.353.349.344-.256.673-.568.913-.926-.134-.103-.323-.376-.491-.178zm.038 1.071c.119.103.224.29.39.295.388-.318.723-.701 1.105-1.029-.067-.167-.206-.285-.35-.386-.387.367-.805.707-1.145 1.12zm-2.506.301c.119.115.234.233.351.35.294-.262.56-.551.86-.807.122-.122.289-.238.258-.434-.075-.069-.147-.141-.219-.212a10.221 10.221 0 0 0-.175-.005c-.335.389-.82.659-1.075 1.109zm-.152 1.148c.058.176.21.285.355.386.304-.224.548-.515.822-.773l-.013-.172c-.071-.069-.141-.14-.211-.211l-.153.001c-.24.283-.548.497-.8.769zm-.103 1.213c.116.119.231.238.351.353.286-.277.568-.56.878-.811.037-.212-.164-.323-.295-.449-.335.273-.668.565-.933.908zm-1.558.4l.024.159c.086.073.17.147.254.222l.156-.002c.342-.377.722-.719 1.081-1.079-.059-.198-.225-.369-.442-.367-.352.362-.718.709-1.073 1.067zM7 15.549c.082.118.18.223.285.32l.159.005c.35-.368.739-.696 1.084-1.069a1.904 1.904 0 0 0-.385-.381c-.376.38-.773.739-1.144 1.125zm-3.062-.34c.065.177.21.321.39.379.234-.188.469-.386.647-.631-.126-.13-.254-.259-.384-.385-.226.203-.436.424-.653.637zm5.195.341c.104.139.235.355.433.32.202-.153.359-.358.559-.514l.015-.164c-.11-.112-.221-.221-.335-.328-.218.235-.475.434-.672.685z"/>
    <path fill="#272727" d="M8.54 10.755c.188-.153.349-.338.539-.487.193-.059.33.168.482.257-.143.255-.395.418-.587.632-.174-.002-.304-.113-.423-.226l-.01-.176z"/>
    <path fill="#2c2c2c" d="M21.773 10.904c.02-.132.043-.265.055-.398.01.25-.009.5-.052.747-.819.052-1.636-.049-2.454-.05-.255-.02-.463-.187-.693-.283.181-.03.359-.071.533-.127a7.435 7.435 0 0 0-1.606-.015c-.525.159-1.075.059-1.613.104l-.022.169c.187.01.375.022.561.047-1.239.15-2.496.094-3.741.189a4.396 4.396 0 0 1-.493-.317c.381-.087.774-.051 1.161-.069 1.247-.095 2.5-.038 3.746-.105.524-.191 1.083-.088 1.626-.125.253-.032.449.156.687.191.765.066 1.535.054 2.303.041zM15.832 13.972c.231.087.438.222.651.345l.022.053a.713.713 0 0 0-.623.46l-.03-.249c.099-.195.021-.41-.021-.608z"/>
    <path fill="#2f2f2f" d="M9.368 11.062c.167-.198.357.075.491.178-.241.358-.569.67-.913.926-.151-.025-.28-.21-.353-.349.226-.282.523-.498.774-.756z"/>
    <path fill="#898989" d="M11.684 11c.134.127.286.243.38.404-.037.115-.105.217-.165.32l.112.113.03.042-.211.005c-.27.265-.548.521-.793.809.123.102.248.2.375.296.139-.121.282-.237.418-.359-.047.067-.09.138-.136.207-.039.057-.076.118-.134.157l-.169.098c-.25-.149-.346-.435-.553-.625.317-.086.486-.389.727-.586.13-.137.321-.242.387-.425-.028-.248-.359-.38-.511-.142-.258.327-.778.509-.821.961-.045-.043-.088-.089-.131-.134.362-.416.784-.774 1.195-1.141z"/>
    <path fill="#262626" d="M9.406 12.133c.34-.413.759-.752 1.145-1.12.144.101.282.219.35.386-.381.328-.717.711-1.105 1.029-.166-.006-.272-.192-.39-.295zM9.125 13.477c.246-.245.476-.511.777-.692.121.122.242.243.367.361a6.7 6.7 0 0 1-.079.145c-.038.068-.115.097-.186.114l-.032.001-.135.227c.086.037.173.071.257.112l-.235.031-.059-.085c-.11.051-.219.1-.33.148-.115-.121-.231-.242-.344-.363zM12.835 14.794c.022-.114.046-.229.06-.344l.047.201.275-.047a.862.862 0 0 1 .005.534l-.217-.111-.133.22c-.031-.153.024-.386-.156-.459-.185.014-.314.174-.455.277l-.13-.299.133-.121c.066.027.131.054.198.079.122.033.248.049.373.069z"/>
    <path fill="#222" d="M11.441 11.313c.152-.237.484-.105.511.142-.066.183-.256.289-.387.425-.241.197-.41.501-.727.586-.073-.065-.147-.128-.219-.194.043-.452.563-.634.821-.961zM17.731 13.191c.133.101.272.194.426.259-.094.057-.183.12-.272.183l-.14-.026c-.014-.139-.018-.278-.014-.416z"/>
    <path fill="#101010" d="M21.144 11.529c.21-.009.419-.012.63-.009.02.13.042.259.055.39l-.003.081c-.014.118-.035.234-.054.351a4.174 4.174 0 0 1-.724-.055c.157-.049.315-.095.472-.147a.922.922 0 0 0-.666-.204c-.373.021-.814-.091-1.106.209.255.054.513.086.771.125-.238.047-.509.151-.735.011-.44-.296-.991-.117-1.483-.201.044-.059.081-.125.138-.174.856-.141 1.724-.143 2.59-.159l.116-.218zM15.635 11.638c.454.009.908.009 1.362.017l-.198.148.04.275a5.681 5.681 0 0 1-.724.078c-.186-.148-.328-.339-.48-.518zM10.582 14.086c.228-.231.47-.449.69-.687l.226-.004c.089.088.178.176.271.261-.078.371-.506.533-.723.824-.24.198-.67-.129-.464-.395zM6.645 14.795c.265-.344.598-.634.933-.908.13.126.332.237.295.449-.31.251-.591.534-.878.811-.12-.114-.235-.234-.351-.353zM7 15.549c.371-.386.767-.745 1.144-1.125.145.11.276.236.385.381-.345.373-.734.702-1.084 1.069a8.44 8.44 0 0 0-.159-.005 2.064 2.064 0 0 1-.285-.32z"/>
    <path fill="#7b7b7b" d="M15.62 11.674l.016-.037c.152.179.294.371.48.518.152.124.33.227.442.393.074.152.07.327.118.487.073-.046.145-.094.219-.137a3.8 3.8 0 0 1 .385-.005c.009.111.015.222.024.332l.13-.178.227.063-.033-.142c.245-.138.518-.046.755.058.011-.169.021-.337.03-.506.162-.082.318-.218.509-.209.158.048.254.195.362.308l.04.045c-.222-.175-.506-.424-.76-.15-.132.225-.08.502-.153.746-.194-.196-.432-.37-.724-.287.173.212.424.328.649.475a2.495 2.495 0 0 1-.769.378c.049-.261.134-.568-.11-.76-.085.21-.089.439-.04.658l-.059.107c-.143-.065-.29-.127-.413-.226.123.001.246.003.368.006-.038-.121-.073-.243-.109-.365-.121.066-.241.13-.362.193.028.046.055.093.084.139a8.784 8.784 0 0 1-.296-.138c.213-.133.507-.206.618-.453-.274-.129-.498.121-.699.268a4.627 4.627 0 0 1-.067-.715c-.329-.223-.753-.482-.862-.869zm2.111 1.517c-.004.139.001.278.014.416l.14.026c.089-.064.178-.126.272-.183a2.012 2.012 0 0 1-.426-.259z"/>
    <path fill="#ababab" d="M12.801 11.833c.114-.139.28.018.382.094.106.097.296.26.17.41-.276.299-.583.57-.875.854-.103.083-.199.205-.338.222-.21-.131-.388-.329-.447-.575.045-.068.089-.139.136-.207.129-.131.265-.256.405-.376a1.912 1.912 0 0 0-.194-.376l-.03-.042.05.029c.154.07.269.195.379.32.121-.118.235-.242.362-.353zm-.056.193c-.263.28-.55.535-.822.807-.203.187.11.366.222.503.416-.332.778-.724 1.162-1.091a3.941 3.941 0 0 0-.265-.338c-.111.008-.226.025-.297.119zM0 18.171c.061-.001.091.03.092.09H0v-.09z"/>
    <path fill="#252525" d="M11.036 12.694c.245-.289.523-.545.793-.809l.211-.005c.079.117.142.244.194.376a7.18 7.18 0 0 0-.405.376c-.137.123-.28.238-.418.359a9.544 9.544 0 0 1-.375-.296zM17.902 14.347c.165-.073.329-.151.495-.224-.01.275.01.594.317.698l.121-.263c.005.121.008.243.014.365a.901.901 0 0 0 .615-.167c.13.133.097.319.081.486l-.228-.029a1.229 1.229 0 0 1-.034-.041c-.068-.081-.138-.159-.207-.238-.112.063-.269.112-.228.273-.021.229.255.264.413.333l-.152.261c-.104.014-.209.028-.313.045.125-.247.029-.502-.112-.717-.276.151-.299.455-.279.738a3.003 3.003 0 0 1-.435-.325c.19-.046.362-.14.506-.273-.028-.103-.054-.207-.08-.309-.261.019-.467.182-.658.344-.003-.189-.002-.379.005-.568.201.115.423.186.652.212l.095-.248a2.788 2.788 0 0 0-.586-.352z"/>
    <path fill="#282828" d="M12.745 12.026c.071-.094.187-.112.297-.119.093.109.184.219.265.338-.384.367-.747.759-1.162 1.091-.112-.137-.425-.316-.222-.503.271-.272.559-.527.822-.807zM13.517 14.806c.142-.061.282-.125.424-.189.014.177.02.355.014.533a2.424 2.424 0 0 1-.438-.344z"/>
    <path fill="#3a3a3a" d="M14.35 12.167c.069-.058.139-.114.21-.171.084.239-.044.498.07.738l.24-.13a1.277 1.277 0 0 0-.064-.517 8.63 8.63 0 0 1 .137-.067c.176.143.375.255.575.364-.255.121-.56.207-.613.532.291.059.517-.124.725-.296.077.255.086.521-.031.765-.174-.203-.412-.337-.688-.282a.558.558 0 0 0 .541.428l.016.112c-.195.108-.386.223-.58.331-.044-.263.104-.667-.269-.724a1.39 1.39 0 0 0-.008.678l-.171.048a7.311 7.311 0 0 0-.058-.129l-.165-.009a4.84 4.84 0 0 0-.323-.262c.269-.049.561-.156.613-.464-.121-.004-.24-.006-.361-.006-.116.102-.24.193-.369.279-.001-.179.001-.358-.008-.537-.009-.064-.033-.125-.049-.187l.197-.001c.088.085.177.169.268.251l.24-.002.003-.25c-.144-.127-.332-.168-.515-.202l.012-.068a.86.86 0 0 0 .268-.219 4.05 4.05 0 0 1 .157-.005z"/>
    <path fill="#e2e2e2" d="M15.518 12.385l.071-.044c.234.295.294.686.189 1.043-.086.039-.179.054-.27.076l.089.163-.254.28.334.016c.005.221.007.442.031.662.067-.215.008-.439.023-.659.321-.089.659.098.849.351.034.113-.065.176-.144.229.239-.07.487.124.282.343l-.025.051c-.023-.113-.049-.225-.072-.338-.18.233-.448.346-.739.272a.714.714 0 0 1 .623-.46l-.022-.053c-.213-.123-.421-.258-.651-.345.041.198.12.413.021.608a6.306 6.306 0 0 1-.174.152 10.626 10.626 0 0 1-.114-.207c-.01-.189.021-.376.043-.562a2.997 2.997 0 0 0-.72.393c.129.044.26.086.383.144a6.308 6.308 0 0 1-.458-.065l.025-.163.309-.257c-.254.015-.51.021-.762-.02l.054-.016.171-.048a1.389 1.389 0 0 1 .008-.678c.373.057.225.461.269.724.194-.109.385-.223.58-.331a3.771 3.771 0 0 0-.016-.112.56.56 0 0 1-.541-.428c.275-.055.513.078.688.282.117-.245.109-.511.031-.765-.209.172-.434.355-.725.296.053-.326.358-.412.613-.532z"/>
    <path fill="#424242" d="M16.836 12.688c.389-.248.853-.431 1.315-.279-.347.086-.701.149-1.036.28.16.112.329.209.511.281l.033.142-.227-.063-.13.178-.024-.332a3.808 3.808 0 0 0-.385.005c-.022-.07-.045-.139-.058-.211zM14.888 14.357c.223-.16.461-.299.72-.393-.022.187-.053.374-.043.562-.005.11-.016.219-.034.327l-.076-.002.005-.205c-.061-.051-.119-.105-.187-.145-.124-.058-.255-.1-.383-.144z"/>
    <path fill="#f4f4f4" d="M16.481 12.544c.007.239.022.479.067.715.2-.148.424-.398.699-.268-.111.247-.404.32-.618.453.098.048.197.094.296.138l.018.027c.123.1.27.162.413.226l.059-.107a1.111 1.111 0 0 1 .04-.658c.244.193.158.499.11.76a2.54 2.54 0 0 0 .769-.378c-.224-.147-.475-.263-.649-.475.292-.083.53.091.724.287.074-.244.021-.521.153-.746.117.255-.016.506-.11.74l-.18.039c.211.217-.121.331-.27.448-.143.09-.368.241-.51.077-.004-.217.051-.435-.009-.649-.035.221.015.461-.065.67-.262.139-.466-.192-.698-.274-.147-.032-.108-.173-.054-.271l-.176-.042c-.077-.231-.138-.484-.01-.711zM12.174 14.123c.27-.111.508-.295.793-.369.103.239.045.509.049.761l-.119-.112c.005-.179.039-.355.053-.534a3.015 3.015 0 0 0-.722.345c.188.107.38.209.569.316l.003.189a9.468 9.468 0 0 1-.337.005 1.394 1.394 0 0 0-.346-.299c-.071.269-.074.55-.004.819.21-.133.428-.268.684-.286.017.343-.416.293-.56.531.222.153.461.279.716.367-.006-.246-.046-.498.049-.734.292.146.18.475.13.726.261-.08.646-.148.712-.457-.205-.094-.446-.147-.559-.364.264-.094.482.081.675.235l.078-.174.02.15c-.111.187-.177.429-.405.508-.183.067-.387.274-.584.143-.076-.232.13-.48-.025-.699-.018.244-.016.488-.021.733-.298-.004-.531-.221-.798-.324-.219-.37-.377-.94-.041-1.281l-.008-.196z"/>
    <path fill="#080808" d="M6.748 13.582c.253-.272.56-.486.8-.769l.153-.001c.069.071.14.141.211.211l.013.172c-.274.257-.519.549-.822.773-.146-.101-.297-.209-.355-.386z"/>
    <path fill="#2e2e2e" d="M8.187 13.23c.173-.173.327-.427.595-.441.112.116.222.233.332.351-.206.215-.42.421-.63.631a.428.428 0 0 1-.396-.306c.025-.082.058-.161.099-.236z"/>
    <path fill="#e6e6e6" d="M13.653 13.429c-.007-.198-.069-.441.116-.579.009.178.007.358.008.537.129-.085.253-.177.369-.279.121 0 .24.002.361.006-.052.308-.344.415-.613.464l.211.165a14.371 14.371 0 0 1-.31-.048 9.523 9.523 0 0 1-.002-.169l.152-.081-.291-.017z"/>
    <path fill="#1b1b1b" d="M5 14.169c.273-.345.646-.595.92-.939.18.055.297.204.423.334l-.013.168-.135.103c-.28.215-.512.483-.769.724-.057-.026-.113-.051-.169-.078-.1-.085-.237-.176-.257-.312zM3.938 15.209c.217-.213.427-.434.653-.637.13.126.258.255.384.385-.178.245-.413.443-.647.631a.62.62 0 0 1-.39-.379zM13.296 15.233c.105.061.215.113.327.16a17.04 17.04 0 0 0-.15.303c-.218-.06-.189-.284-.176-.463zM.264 17.914l.245-.319a.904.904 0 0 0 .426.258c.147.213.419.169.642.171 1.611-.014 3.221.007 4.831.005.438.003.879-.023 1.313.046 1.276.189 2.577-.034 3.851.136l-.051.003c-3.586.009-7.172.008-10.757.022a1.806 1.806 0 0 1-.5-.322z"/>
    <path fill="#a7a7a7" d="M9.971 13.405l.032-.001.08.025.003.174c.167.159.326.328.496.484-.206.266.224.593.464.395l.073-.027c-.068.115-.169.233-.313.241-.202-.115-.377-.295-.431-.527-.106.101-.214.223-.373.229.094-.115.221-.212.282-.351.037-.14-.097-.228-.191-.302-.085-.041-.172-.076-.257-.112l.135-.227z"/>
    <path fill="#0f0f0f" d="M9.858 13.775l.235-.031c.094.074.228.162.191.302-.061.139-.187.236-.282.351l-.012.011c-.278.237-.564.467-.797.751a.91.91 0 0 1-.379-.386c.335-.346.706-.654 1.043-.998z"/>
    <path fill="#fafafa" d="M13.098 13.741c.464.077.969.416.96.937-.03-.088-.063-.174-.095-.26-.181.191-.415.332-.688.27.134-.251.437-.29.64-.461-.244-.175-.505-.333-.8-.401.03.169.071.335.116.501l-.145.198c.054-.261-.069-.524.014-.783z"/>
    <path fill="#434343" d="M12.228 14.215c.224-.148.466-.263.722-.345-.014.178-.049.355-.053.534l-.002.046c-.014.116-.038.23-.06.344-.125-.02-.25-.037-.373-.069.112.001.224-.001.337-.005l-.003-.189c-.188-.107-.38-.209-.569-.316z"/>
    <path fill="#747474" d="M13.114 13.825c.296.068.557.226.8.401-.203.172-.506.21-.64.461.273.063.507-.079.688-.27.032.086.066.172.095.26a.667.667 0 0 1-.022.412l-.078.174c-.194-.154-.411-.329-.675-.235.114.218.354.271.559.364-.066.308-.451.377-.712.457.05-.251.162-.581-.13-.726-.094.236-.054.488-.049.734a2.974 2.974 0 0 1-.716-.367c.145-.237.577-.188.56-.531-.255.018-.473.153-.684.286-.069-.27-.067-.55.004-.819.129.082.25.179.346.299a5.83 5.83 0 0 1-.198-.079l-.133.121.13.299c.141-.103.27-.263.455-.277.18.073.125.305.156.459.044-.074.088-.148.133-.22l.217.111a.862.862 0 0 0-.005-.534l-.275.047c-.017-.067-.032-.134-.047-.201l.002-.046a12.224 12.224 0 0 0 .163.154l.024-.033.145-.198a6.065 6.065 0 0 1-.116-.501zm.197.217a2.599 2.599 0 0 0-.009.45c.097-.073.195-.143.294-.213-.03-.082-.059-.165-.09-.246l-.195.01zm.206.764c.131.131.28.246.438.344a5.27 5.27 0 0 0-.014-.533c-.141.064-.282.128-.424.189zm-.221.427c-.013.179-.041.403.176.463l.15-.303a2.825 2.825 0 0 1-.327-.16zm-.757.141l.005.214.27.021-.03-.306-.246.07z"/>
    <path fill="#909090" d="M18.789 13.937c.248.115.478.263.717.398-.156.244-.516.209-.636.484.307.114.479-.161.705-.299.136.274.09.614.01.903-.103-.052-.213-.103-.27-.21l.228.029c.015-.166.049-.353-.081-.486a.903.903 0 0 1-.615.167c-.005-.122-.008-.244-.014-.365l-.121.263c-.307-.103-.327-.422-.317-.698-.165.073-.329.151-.495.224.21.092.405.211.586.352l-.095.248a1.703 1.703 0 0 1-.652-.212c-.006.189-.007.379-.005.568.191-.162.397-.326.658-.344l.08.309a1.123 1.123 0 0 1-.506.273c.136.12.28.231.435.325-.02-.282.003-.586.279-.738.14.215.237.47.112.717.104-.017.209-.031.313-.045l.152-.261c-.158-.069-.434-.104-.413-.333-.04-.161.117-.21.228-.273.069.079.139.157.207.238-.125.003-.249.007-.373.014.095.226.344.241.546.31-.074.313-.421.441-.695.533-.086-.241-.014-.5-.074-.746-.213.136-.221.37-.08.564l-.055.143c-.29-.072-.709-.159-.757-.51.212-.041.467-.056.554-.292-.236-.072-.433.058-.582.23-.231-.234-.14-.596-.053-.874.214.137.397.372.682.275-.121-.267-.465-.25-.611-.492.246-.135.482-.359.782-.337.033.245-.194.542.121.704.059-.227.029-.462.017-.693l.087-.064zm-.018.1c.042.178.085.356.138.531.154-.065.305-.138.451-.219-.184-.13-.427-.15-.589-.311z"/>
    <path fill="#2b2b2b" d="M13.311 14.042l.195-.01.09.246c-.099.07-.197.141-.294.213a2.6 2.6 0 0 1 .009-.45zM15.844 15.297l.039-.262c.092.284.335.449.629.466-.203.153-.4.345-.671.35.044-.181.104-.38.004-.553z"/>
    <path fill="#141414" d="M5.087 15.195c.355-.358.721-.705 1.073-1.067.217-.002.383.17.442.367-.359.361-.739.702-1.081 1.079a8.114 8.114 0 0 1-.156.002 13.442 13.442 0 0 0-.254-.222l-.024-.159z"/>
    <path fill="#e1e1e1" d="M14.743 14.514c.079-.009.159-.011.238-.014.099.106.192.218.273.338l-.121-.013c-.111-.078-.213-.167-.316-.256a2.464 2.464 0 0 1-.056.393l.054.124c-.02.079-.04.158-.058.237.231-.165.456-.392.769-.34-.01.356-.342.492-.648.519.228.159.47.299.728.401-.017-.176-.045-.352-.049-.529.038-.076.078-.152.118-.227.056.049.112.098.167.149.101.174.04.373-.004.553.272-.004.468-.197.671-.35-.294-.017-.537-.182-.629-.466.294-.079.545.07.739.279.019-.14.044-.279.073-.417l.025-.051c.029.132.053.265.074.399-.262.271-.397.73-.849.741-.389.023-.101-.485-.243-.701-.034.253.039.532-.105.759-.308-.112-.642-.25-.811-.551-.157-.294-.219-.678-.041-.977z"/>
    <path fill="#292929" d="M15.531 14.852c.018-.108.029-.217.034-.327l.114.207c.058-.05.117-.1.174-.152l.03.249c.291.075.559-.039.739-.272.023.113.049.225.072.338a6.74 6.74 0 0 0-.073.417c-.194-.209-.445-.357-.739-.279l-.039.262c-.055-.051-.112-.1-.167-.149-.04.076-.08.151-.118.227-.007-.131-.02-.261-.031-.391-.313-.053-.538.174-.769.34l.058-.237-.054-.124a2.48 2.48 0 0 0 .056-.393c.102.089.205.178.316.256l.121.013c.067.005.133.009.2.012l.076.002z"/>
    <path fill="#111" d="M9.133 15.55c.197-.251.454-.451.672-.685.114.106.226.216.335.328l-.015.164c-.201.157-.357.362-.559.514-.198.035-.329-.182-.433-.32z"/>
    <path fill="#373637" d="M15.527 14.984c.012.13.024.26.031.391.004.177.031.353.049.529a3.61 3.61 0 0 1-.728-.401c.306-.027.638-.162.648-.519z"/>
    <path fill="#383838" d="M.935 17.853l.18.002c.906.117 1.825-.029 2.731.091 1.166.042 2.333.01 3.5.025 1.388.225 2.802.029 4.2.129.586.073 1.179.053 1.769.049.152.01.227-.138.316-.233 2.735-.039 5.472.001 8.208-.013.335.006.673.005 1.005-.049l.219.005c-.148.084-.309.154-.483.151-1.904.054-3.809-.009-5.713-.009-1.088.044-2.179.002-3.268.04 1.843.012 3.685.078 5.528.047.341.011.755-.16 1.03.115-2.861-.003-5.723.001-8.584.008-1.275-.171-2.576.053-3.851-.136-.434-.07-.875-.044-1.313-.046-1.611.003-3.221-.018-4.831-.005-.223-.003-.496.042-.642-.171z"/>
    <path fill="#4f4f4f" d="M1.115 17.854c.548-.03 1.097-.009 1.645-.015 6.694.028 13.39-.027 20.084.014a5.533 5.533 0 0 1-1.005.049c-2.736.013-5.473-.026-8.208.013-.089.094-.164.243-.316.233-.59.004-1.182.024-1.769-.049-1.398-.1-2.812.096-4.2-.129-1.167-.015-2.334.017-3.5-.025-.907-.119-1.826.026-2.731-.091zM.765 18.236c3.585-.014 7.171-.013 10.757-.022l-.096.047H.827l-.063-.025z"/>
    <path fill="#646464" d="M11.522 18.213l.051-.003c2.861-.008 5.723-.011 8.584-.008.08.018.159.04.239.058h-8.971l.096-.047z"/>
</svg>
