<svg xmlns="http://www.w3.org/2000/svg" width="24" height="24">
    <path opacity=".86" d="M2.076 1.714h19.668l.119.032c-.543.067-1.089.063-1.635.051-5.486-.001-10.971.001-16.457-.001-.526.003-1.059.042-1.579-.062l-.117-.02z"/>
    <path d="M.009 4.714c-.188-1.382.799-2.763 2.184-2.98.52.104 1.053.065 1.579.062 5.486.002 10.971 0 16.457.001.545.013 1.092.016 1.635-.051 1.071.189 1.929 1.071 2.137 2.131V20.11c-.199 1.113-1.125 2.004-2.24 2.176H2.264C.922 22.098-.13 20.819.008 19.457c.003-4.914.003-9.828.001-14.743zm2.335-1.677c-.614.108-1.081.707-1.046 1.329.002 5.118-.003 10.237.002 15.356-.008.706.648 1.315 1.35 1.273 6.262-.001 12.525.003 18.786-.002.681.01 1.288-.591 1.282-1.272.003-5.147.004-10.294-.001-15.441.006-.713-.661-1.32-1.369-1.268-6.334.018-12.673-.033-19.005.026z"/>
    <path d="M4.832 5.185c2.531-.07 5.07-.011 7.604-.03.911-.026 1.731.788 1.714 1.699.003 3.43.003 6.861 0 10.292.018.881-.746 1.683-1.628 1.702-2.462.009-4.924.003-7.387.003-.903.015-1.712-.796-1.693-1.701a5893.89 5893.89 0 0 1 0-10.3c-.009-.793.609-1.529 1.389-1.665zm5.911.939c-.713.165-1.257.857-1.241 1.59-.012.709.498 1.379 1.179 1.569a1.645 1.645 0 0 0 1.811-.653 1.639 1.639 0 0 0-.037-1.887 1.642 1.642 0 0 0-1.713-.618zm-3.684 5.743c-1.394.311-2.367 1.809-2.073 3.21.236 1.466 1.785 2.538 3.241 2.23 1.5-.233 2.583-1.848 2.22-3.326-.283-1.49-1.922-2.52-3.388-2.115z"/>
    <path d="M10.915 6.895c.612-.212 1.269.441 1.059 1.054-.147.607-1.007.825-1.425.358-.453-.42-.233-1.264.366-1.413zM14.832 7.435c.231-.002.463-.002.694.001.002 2.594.003 5.187 0 7.78-.231.002-.463.002-.693.001-.003-2.594-.003-5.187-.001-7.782zM16.208 7.938c.231-.002.463-.002.695.001-.002 2.426.009 4.852-.005 7.279l-.689-.001c-.003-2.427-.002-4.852-.001-7.279z"/>
    <path d="M17.583 9.001c.238-.002.476-.002.714 0 .002.428-.001.855 0 1.283.76.005 1.521-.001 2.281.003.002 1.428.002 2.856 0 4.284-.76.003-1.521-.003-2.281.003-.001.713.002 1.427 0 2.14-1.155.002-2.31.001-3.465 0v-.855c.917-.003 1.834.001 2.751-.002.003-2.285 0-4.57.001-6.855zM7.399 12.632c1.439-.311 2.763 1.318 2.154 2.662-.471 1.36-2.481 1.676-3.346.525-.976-1.079-.251-3.013 1.192-3.188z"/>
    <path fill="#fff" d="M2.344 3.037c6.332-.059 12.67-.008 19.005-.026.708-.052 1.375.555 1.369 1.268.005 5.147.004 10.294.001 15.441.006.681-.602 1.282-1.282 1.272-6.261.005-12.524.001-18.786.002-.702.042-1.358-.567-1.35-1.273-.004-5.119 0-10.238-.002-15.356-.035-.621.432-1.221 1.046-1.329zm2.488 2.148c-.78.135-1.399.872-1.389 1.665a5893.89 5893.89 0 0 0 0 10.3c-.019.904.789 1.715 1.693 1.701 2.463 0 4.925.006 7.387-.003.882-.02 1.646-.821 1.628-1.702.003-3.43.003-6.861 0-10.292.017-.911-.803-1.725-1.714-1.699-2.534.019-5.073-.04-7.604.03zm10 2.25c-.002 2.595-.003 5.188.001 7.782.231.001.462.001.693-.001.003-2.594.002-5.187 0-7.78a32.11 32.11 0 0 0-.694-.001zm1.376.503c-.001 2.427-.002 4.852.001 7.279l.689.001c.014-2.427.003-4.853.005-7.279a32.212 32.212 0 0 0-.695-.001zm1.375 1.063c-.001 2.285.002 4.57-.001 6.855-.916.003-1.833-.001-2.751.002v.855c1.155.001 2.31.002 3.465 0 .002-.713-.001-1.427 0-2.14.76-.005 1.521.001 2.281-.003.002-1.428.002-2.856 0-4.284-.76-.003-1.521.003-2.281-.003-.001-.428.002-.855 0-1.283a42.484 42.484 0 0 0-.714 0z"/>
    <path fill="#fff" d="M10.743 6.124a1.643 1.643 0 0 1 1.713.618c.41.538.424 1.334.037 1.887a1.646 1.646 0 0 1-1.811.653c-.681-.189-1.191-.86-1.179-1.569-.015-.733.528-1.425 1.241-1.59zm.172.771c-.599.148-.819.993-.366 1.413.417.466 1.277.249 1.425-.358.211-.614-.447-1.266-1.059-1.054zM7.059 11.867c1.467-.405 3.105.625 3.388 2.115.363 1.478-.72 3.093-2.22 3.326-1.455.308-3.005-.765-3.241-2.23-.295-1.401.679-2.899 2.073-3.21zm.34.765c-1.443.175-2.169 2.109-1.192 3.188.865 1.15 2.876.835 3.346-.525.609-1.344-.715-2.973-2.154-2.662z"/>
</svg>
