<svg xmlns="http://www.w3.org/2000/svg" width="24" height="24">
    <path fill="#f5faf8" d="M3.5 0h17.415v1.283C20.611.518 19.831.096 19.023.178 14.229.225 9.429.118 4.641.239c-.544.161-.887.66-1.14 1.136V-.001z"/>
    <path fill="#2440ae" d="M4.64.24C9.428.119 14.228.225 19.022.179c.808-.082 1.588.34 1.892 1.105v7.234c-.417 2.65-.086 5.349-.164 8.02-.089 2.311.105 4.635-.233 6.932-.173.26-.473.388-.738.531h-7.703c.357-.464.632-.986.768-1.559 2.479-3.435 4.933-6.888 7.422-10.316-2.68-3.754-5.371-7.504-7.993-11.298-.189-.288-.552-.26-.852-.312.258-.057.514-.121.768-.189C9.676.184 7.153.296 4.638.239z"/>
    <path fill="#364caa" d="M3.5 1.376C3.753.9 4.096.401 4.64.24c2.516.057 5.039-.056 7.551.088-.255.067-.511.132-.768.189.3.051.663.023.852.312C9.647.838 7.018.795 4.39.849l-.135.154a1.88 1.88 0 0 0-.5 1.4c-.105 5.93-.102 11.862-.08 17.792.025.764-.012 1.529-.174 2.277V1.375z"/>
    <path fill="#fff" d="M4.39.849C7.018.795 9.647.837 12.275.829c2.622 3.793 5.314 7.544 7.993 11.298-2.489 3.427-4.943 6.881-7.422 10.316-.239.315-.487.623-.73.935-2.666.009-5.331.006-7.996.004.029-.047.089-.143.12-.19 2.656-3.672 5.264-7.381 7.916-11.059-2.602-3.73-5.204-7.465-7.9-11.129L4.391.85z"/>
    <path fill="#223eac" d="M3.755 2.403a1.884 1.884 0 0 1 .5-1.4c2.696 3.664 5.298 7.399 7.9 11.129-2.652 3.678-5.26 7.387-7.916 11.059-.247-.186-.493-.375-.739-.562v-.157c.162-.748.199-1.513.174-2.277-.022-5.93-.025-11.862.08-17.792z"/>
    <path fill="#3e5189" d="M20.751 16.537c.078-2.671-.253-5.369.164-8.02V22.74c-.117.25-.246.496-.397.729.338-2.298.143-4.621.233-6.932z"/>
    <path fill="#384c9c" d="M12.115 23.377c.243-.312.492-.62.73-.935a4.14 4.14 0 0 1-.768 1.559H4.58a1.837 1.837 0 0 1-1.08-.932v-.439c.246.187.492.376.739.562a9.955 9.955 0 0 0-.12.19c2.665.001 5.33.004 7.996-.004z"/>
    <path fill="#f2fcf8" d="M20.518 23.469c.151-.233.28-.479.397-.729V24h-1.134c.265-.143.565-.271.738-.531z"/>
    <path fill="#f1fcfb" d="M3.5 23.068c.224.443.606.781 1.08.932H3.5v-.932z"/>
</svg>
