<svg xmlns="http://www.w3.org/2000/svg" width="24" height="24">
    <path fill="#fff" d="M0 4h23.805v.285c-6.482-.41-13.011-.059-19.512-.175-1.323.086-2.79-.312-3.988.429L0 4.844v-.843zM.952 4.87c7.481-.133 14.973-.113 22.459-.008.203 4.882.133 9.787.035 14.673-7.547.067-15.122.238-22.653-.086-.035-4.613.019-9.225-.027-13.834l.187-.745zM6.4 8.687a71.965 71.965 0 0 0 3.259 3.208c.659-.015 1.319-.027 1.979-.035-.847-.785-1.67-1.592-2.427-2.463 2.459-.031 4.917.012 7.375-.023a79.007 79.007 0 0 1 0-1.377c-2.478-.039-4.952.012-7.43-.027a74.232 74.232 0 0 0 2.474-2.482c-.644 0-1.284-.008-1.924-.015-1.139 1.034-2.193 2.154-3.305 3.215zm6.088 3.949c.819.812 1.639 1.615 2.455 2.427-2.474.023-4.952.015-7.43.004 0 .453-.004.909-.008 1.362 2.467.012 4.937-.012 7.407.012a85.795 85.795 0 0 1-2.396 2.505c.652-.004 1.303-.008 1.955-.004 1.108-1.034 2.17-2.115 3.239-3.188-1.034-1.007-2.065-2.013-3.052-3.063-.722-.027-1.444-.043-2.17-.055z"/>
    <path d="M.305 4.539c1.198-.741 2.665-.343 3.988-.429 6.501.117 13.03-.234 19.512.175V20H.308l.484-.55c7.532.324 15.107.152 22.653.086.097-4.886.168-9.791-.035-14.673-7.485-.105-14.977-.125-22.459.008l-.187.745a99.527 99.527 0 0 0-.461-1.077z"/>
    <path d="M6.4 8.687c1.112-1.061 2.166-2.181 3.305-3.215.64.008 1.28.015 1.924.015-.8.851-1.635 1.67-2.474 2.482 2.478.039 4.952-.012 7.43.027-.004.461-.004.917 0 1.377-2.459.035-4.917-.008-7.375.023.757.87 1.581 1.678 2.427 2.463-.659.008-1.319.019-1.979.035a71.957 71.957 0 0 1-3.259-3.208zM12.488 12.636c.726.012 1.448.027 2.17.055.987 1.05 2.017 2.057 3.052 3.063-1.069 1.073-2.131 2.154-3.239 3.188-.652-.004-1.303 0-1.955.004a85.737 85.737 0 0 0 2.396-2.505c-2.47-.023-4.941 0-7.407-.012.004-.453.008-.909.008-1.362 2.478.012 4.956.019 7.43-.004-.815-.812-1.635-1.615-2.455-2.427z"/>
    <path fill="#414347" d="M0 4.843l.305-.305c.117.269.347.808.461 1.077.047 4.609-.008 9.221.027 13.834l-.484.55H.001V4.842z"/>
</svg>
