<svg xmlns="http://www.w3.org/2000/svg" width="24" height="24">
    <path d="M1.435.451C1.819.376 2.212.404 2.6.399 9.067.401 15.534.4 22.001.4c.425-.008.9.065 1.19.409.37.437.396 1.045.409 1.591-.004 6.4-.006 12.801-.015 19.201-.016.583-.043 1.258-.503 1.682-.344.32-.843.319-1.283.319-6.703-.012-13.406.015-20.108-.014-.928.011-1.33-.992-1.286-1.783C.398 15.302.407 8.799.416 2.296.401 1.574.603.615 1.435.451zM1.33.636C.663.878.571 1.69.564 2.302.556 8.8.545 15.299.552 21.797c-.037.713.292 1.661 1.149 1.641 6.866.013 13.733.017 20.598-.002.848.003 1.166-.932 1.133-1.64.016-6.531.02-13.062.015-19.593.039-.715-.294-1.654-1.149-1.642C15.633.527 8.966.558 2.3.545c-.324.006-.658-.014-.97.091z"/>
    <path d="M1.634.942C8.456.89 15.283.935 22.107.92c.696-.068 1.082.678 1.038 1.283.003 6.532.003 13.063 0 19.595.03.565-.291 1.283-.942 1.277-6.802.009-13.604.007-20.406.001-.651.005-.976-.711-.942-1.278-.003-6.532-.003-13.064 0-19.596-.015-.513.213-1.153.779-1.26zm.085.584c-.276.134-.266.504-.278.767.002 6.505-.003 13.009.002 19.514-.001.277.076.738.452.68h20.209c.375.056.452-.403.452-.68.005-6.538.005-13.076 0-19.613-.001-.278-.074-.736-.45-.686-6.795.01-13.593-.027-20.387.018z"/>
    <path d="M9.954 3.155c1.319-.002 2.638-.003 3.957 0-.018 1.916.042 3.836-.032 5.75-.399 2.523-2.603 4.666-5.126 5.031-1.875.055-3.753.009-5.63.024-.009-1.32-.013-2.64-.019-3.959 1.667-.003 3.335.001 5.002-.002.894.009 1.728-.737 1.84-1.617.016-1.742 0-3.485.008-5.227zM10.954 14.919c.641.003 1.282-.001 1.923.002.007 1.972.013 3.945.018 5.918-.648.002-1.295.002-1.943 0-.001-1.974-.004-3.947.002-5.92z"/>
    <path fill="#fff" d="M1.33.636c.312-.105.646-.085.97-.091C8.966.558 15.633.527 22.298.561c.855-.012 1.188.927 1.149 1.642.005 6.531.001 13.062-.015 19.593.033.708-.285 1.643-1.133 1.64-6.865.019-13.732.015-20.598.002-.857.02-1.186-.928-1.149-1.641C.545 15.299.556 8.8.564 2.302.571 1.69.663.878 1.33.636zm.304.306c-.566.107-.794.747-.779 1.26-.003 6.532-.003 13.064 0 19.596-.034.567.291 1.283.942 1.278 6.802.006 13.604.008 20.406-.001.651.006.972-.712.942-1.277.003-6.532.003-13.063 0-19.595.044-.605-.342-1.351-1.038-1.283C15.283.935 8.456.89 1.634.942z"/>
    <path fill="#fff" d="M1.719 1.526c6.794-.045 13.592-.008 20.387-.018.376-.05.449.408.45.686.005 6.537.005 13.075 0 19.613 0 .277-.077.736-.452.68H1.895c-.376.058-.453-.403-.452-.68-.005-6.505 0-13.009-.002-19.514.012-.263.002-.633.278-.767zm8.235 1.629c-.008 1.742.008 3.485-.008 5.227-.112.88-.946 1.626-1.84 1.617-1.667.003-3.335-.001-5.002.002.006 1.319.01 2.639.019 3.959 1.877-.015 3.755.031 5.63-.024 2.523-.365 4.727-2.508 5.126-5.031.074-1.914.014-3.834.032-5.75-1.319-.003-2.638-.002-3.957 0zm1 11.764c-.006 1.973-.003 3.946-.002 5.92.648.002 1.295.002 1.943 0-.005-1.973-.011-3.946-.018-5.918-.641-.003-1.282.001-1.923-.002z"/>
</svg>
