<svg xmlns="http://www.w3.org/2000/svg" width="24" height="24">
    <path fill="#ffd033" d="M1.715 0h20.56c.889.13 1.583.878 1.726 1.752V22.21c-.108.926-.896 1.679-1.814 1.79H1.822c-.911-.124-1.673-.834-1.82-1.746V1.756C.139.886.836.135 1.717 0zm.254.329C.986.455.254 1.423.299 2.397.304 8.876.292 15.355.305 21.833c-.008 1.045.922 1.98 1.972 1.954 6.481.01 12.962.002 19.445.004.754.031 1.508-.386 1.85-1.064.3-.566.221-1.229.23-1.846-.001-6.12-.002-12.24 0-18.359.108-1.116-.808-2.24-1.956-2.218C15.221.312 8.592.263 1.969.329z"/>
    <path fill="#ffd033" d="M1.847 1.03C8.47.938 15.103 1.017 21.731.99c.666-.078 1.326.472 1.266 1.163.004 6.565.005 13.13 0 19.696.04.63-.522 1.183-1.147 1.157-6.566.007-13.133.007-19.699.001-.625.026-1.188-.528-1.147-1.158-.005-6.565-.004-13.13 0-19.696-.037-.517.329-1.026.844-1.123zm2.849 2.709c-1.652 1.37-2.027 3.984-.926 5.806 1.252 2.044 4.736 2.246 6.083.214-.114 1.171-.29 2.374-.875 3.415-.617 1.049-2.075 1.559-3.158.928-.671-.308-.899-1.074-.982-1.748a30.768 30.768 0 0 0-1.549-.01c.018.899.314 1.834 1.008 2.44.918.89 2.299.973 3.5.812 1.21-.209 2.166-1.145 2.689-2.216.928-1.948 1.092-4.184.822-6.301a5.724 5.724 0 0 0-.988-2.635c-1.264-1.716-3.949-1.898-5.624-.703zm11.666-.687c-1.261.157-2.299 1.098-2.788 2.24-.833 1.876-.862 3.991-.634 5.998.246 1.522.832 3.202 2.278 3.968 1.699.872 4.075.354 5.018-1.384 1.094-1.925 1.154-4.24.952-6.39-.175-1.326-.587-2.738-1.631-3.646-.878-.739-2.084-.929-3.196-.787zM6.601 17.19a982.99 982.99 0 0 0 .001 3.84l.745-.001c.008-1.034-.002-2.07.005-3.104.251 1.033.466 2.076.708 3.11l.767-.013c.235-1.033.457-2.07.706-3.101.016 1.037-.001 2.072.01 3.109l.748-.001v-3.838c-.383-.002-.766-.002-1.148 0-.23.996-.454 1.993-.689 2.989-.241-.994-.463-1.992-.692-2.988a74.628 74.628 0 0 0-1.159-.002zm4.441 0c-.005 1.271-.002 2.54-.001 3.811l.81-.002c-.001-.448 0-.895.001-1.343.628-.035 1.402.11 1.878-.403.397-.602.332-1.675-.437-1.952-.731-.206-1.504-.076-2.251-.11zm3.508 0c-.001 1.28-.002 2.56.001 3.839l.808.002.001-1.711c.49-.001.979-.001 1.469.002l.001 1.706.808.002c.004-1.282.004-2.562 0-3.842l-.808.002-.002 1.466c-.49.004-.978.004-1.466.001-.001-.49-.001-.98-.004-1.47l-.808.001z"/>
    <path fill="#ffd033" d="M16.475 4.487c.907-.259 2.038.026 2.472.929.714 1.564.731 3.335.65 5.022-.104 1.11-.223 2.356-1.054 3.188-.892.914-2.621.812-3.276-.332-.883-1.584-.853-3.492-.716-5.249.144-1.333.451-3.094 1.924-3.558zM11.852 17.848c.324.005.653-.017.972.05.482.1.469.94-.002 1.051-.318.072-.647.036-.97.041-.002-.38-.002-.762 0-1.142z"/>
    <path fill="#060606" d="M1.969.329C8.592.263 15.221.312 21.846.304c1.148-.023 2.064 1.102 1.956 2.218-.002 6.119-.001 12.239 0 18.359-.01.617.07 1.279-.23 1.846-.342.678-1.097 1.096-1.85 1.064-6.482-.001-12.964.006-19.445-.004-1.05.026-1.98-.908-1.972-1.954C.292 15.354.304 8.875.299 2.397.255 1.424.987.455 1.969.329zm-.122.701c-.515.097-.881.606-.844 1.123-.004 6.565-.005 13.13 0 19.696-.041.63.522 1.184 1.147 1.158 6.566.006 13.133.006 19.699-.001.625.026 1.187-.527 1.147-1.157.005-6.565.004-13.13 0-19.696.06-.691-.6-1.241-1.266-1.163-6.628.026-13.261-.053-19.884.04z"/>
    <path d="M4.696 3.739c1.675-1.195 4.361-1.013 5.624.703.545.774.881 1.696.988 2.635.27 2.117.106 4.354-.822 6.301-.523 1.072-1.48 2.008-2.689 2.216-1.201.161-2.582.078-3.5-.812-.694-.606-.99-1.541-1.008-2.44a30.768 30.768 0 0 1 1.549.01c.083.674.311 1.44.982 1.748 1.084.631 2.542.121 3.158-.928.584-1.042.761-2.244.875-3.415-1.346 2.033-4.831 1.83-6.083-.214-1.1-1.822-.726-4.435.926-5.806zm1.819.741c-1.843.5-2.212 3.018-1.304 4.472 1.044 1.434 3.748 1.05 4.252-.694.274-.998.258-2.19-.402-3.038-.592-.755-1.649-.955-2.545-.74zM16.362 3.052c1.111-.142 2.317.048 3.196.787 1.044.907 1.456 2.32 1.631 3.646.203 2.15.143 4.465-.952 6.39-.943 1.738-3.319 2.256-5.018 1.384-1.446-.767-2.032-2.447-2.278-3.968-.228-2.006-.199-4.122.634-5.998.488-1.142 1.526-2.083 2.788-2.24zm.113 1.435c-1.472.464-1.78 2.225-1.924 3.558-.137 1.757-.167 3.665.716 5.249.655 1.145 2.384 1.247 3.276.332.83-.833.949-2.078 1.054-3.188.08-1.687.064-3.458-.65-5.022-.434-.902-1.565-1.188-2.472-.929z"/>
    <path fill="#ffcf33" d="M6.515 4.48c.896-.215 1.954-.014 2.545.74.66.848.676 2.04.402 3.038-.504 1.744-3.208 2.128-4.252.694-.907-1.454-.539-3.972 1.304-4.472z"/>
    <path fill="#231f20" d="M6.601 17.19c.386-.001.773-.001 1.159.002.229.996.451 1.994.692 2.988.235-.996.458-1.993.689-2.989.383-.002.766-.002 1.148 0v3.838l-.748.001c-.011-1.037.006-2.072-.01-3.109-.248 1.031-.47 2.068-.706 3.101-.256.005-.511.01-.767.013-.242-1.034-.457-2.077-.708-3.11-.007 1.034.004 2.07-.005 3.104l-.745.001c-.004-1.279-.004-2.56-.001-3.84zM11.042 17.19c.748.035 1.52-.096 2.251.11.769.277.834 1.35.437 1.952-.476.514-1.25.368-1.878.403-.001.448-.002.895-.001 1.343l-.81.002c-.001-1.271-.004-2.54.001-3.811zm.81.658c-.002.38-.002.762 0 1.142.323-.005.652.031.97-.041.472-.112.485-.952.002-1.051-.319-.067-.648-.046-.972-.05zM14.55 17.19l.808-.001.004 1.47c.488.002.977.002 1.466-.001l.002-1.466.808-.002c.004 1.28.004 2.561 0 3.842l-.808-.002-.001-1.706c-.49-.004-.979-.004-1.469-.002l-.001 1.711-.808-.002c-.004-1.279-.002-2.558-.001-3.839z"/>
</svg>
