<svg xmlns="http://www.w3.org/2000/svg" width="24" height="24">
    <path d="M.882 6h22.223c.405.153.727.465.895.867V17.13c-.159.363-.449.637-.759.871H.874a1.6 1.6 0 0 1-.875-.881V6.901c.157-.411.475-.735.882-.9zm-.12.395c-.354.156-.485.561-.459.921.005 3.163-.003 6.327.005 9.489-.048.501.399.936.894.897 7.199.003 14.399.003 21.597 0a.848.848 0 0 0 .903-.903c.003-3.199.003-6.399-.001-9.597a.84.84 0 0 0-.897-.894c-7.122-.011-14.244.001-21.366-.007-.227.007-.465-.003-.677.093z"/>
    <path d="M11.987 7.397c.783-.663 1.745-.167 2.605 0l.319.951-.414.385c.321.792.637 1.585.954 2.379 1.201-.707 2.853-.573 3.853.425 1.119 1.026 1.308 2.875.414 4.104-1.017 1.569-3.459 1.825-4.779.497-1.362-1.212-1.29-3.539.087-4.713l-.151-.369c-.803.785-1.609 1.566-2.407 2.355.393.773-.255 1.677-1.115 1.541-.053.245-.108.489-.163.735a5.56 5.56 0 0 1-.921-.081c.219-.149.474-.199.732-.222l.117-.531a7.106 7.106 0 0 1-.483-.585l-.585-.001c-.237 1.765-2.082 3.097-3.831 2.667-1.879-.347-3.057-2.587-2.253-4.329.648-1.668 2.775-2.421 4.357-1.619.259-.426.523-.851.785-1.277a59.828 59.828 0 0 0-.27-.573l-.719-.127-.001-.468c.925.049 1.873-.111 2.783.096-.486.217-1.002.351-1.507.519.049.09.147.271.198.361l4.662-.001c-.253-.474-.513-1.117.234-1.26-.072-.175-.129-.359-.228-.521-.681-.205-1.415-.435-2.087-.078l-.186-.255zm-2.162 2.62c.48 1.013.965 2.023 1.449 3.033l.264-.057.189-.828c.307.001.615.003.921.012l.085.261c.639-.639 1.293-1.266 1.938-1.899l-.207-.523H9.825zm-1.068 1.227a3.421 3.421 0 0 1 1.317 2.421h.6c.057-.107.115-.213.174-.318-.492-1.031-.983-2.061-1.476-3.09-.207.327-.409.659-.615.987zm-3.698.654c-.942.858-1.105 2.409-.359 3.444.685 1.035 2.143 1.447 3.27.921.819-.351 1.377-1.139 1.563-1.997-.825.071-1.728-.199-2.483.237-.444.173-.911-.339-.762-.774.087-.413.627-.403.801-.756.329-.516.641-1.043.96-1.565-.989-.419-2.211-.279-2.991.491zm10.574-.295c.357.967 1.251 1.581 1.773 2.445.007.279-.363.385-.497.135-.582-.735-1.308-1.38-1.707-2.241-1.341 1.332-.767 3.883 1.073 4.415 1.807.691 3.867-1.08 3.465-2.967-.243-1.849-2.585-2.847-4.107-1.785zm-8.181 2.034c.702.063 1.409.017 2.112.021a3.027 3.027 0 0 0-1.067-1.974c-.318.653-.981 1.243-1.045 1.953zm4.485-1.241l-.141.621.264.063c.198-.186.397-.371.605-.547-.234-.087-.481-.113-.727-.138zm-.568 2.298c.593.087 1.113-.429.933-1.025-.42.211-.769.582-.933 1.025zm-.35-.427c-.097.551.555-.132 0 0z"/>
    <path fill="#fff" d="M.762 6.395c.211-.097.45-.087.677-.093 7.122.009 14.244-.003 21.366.007a.841.841 0 0 1 .897.894c.005 3.198.003 6.397.001 9.597a.848.848 0 0 1-.903.903c-7.199.003-14.399.003-21.597 0-.495.039-.942-.396-.894-.897-.009-3.162 0-6.325-.005-9.489-.025-.36.105-.765.459-.921zm11.225 1.002l.186.255c.672-.357 1.407-.127 2.087.078.099.162.156.345.228.521-.747.143-.487.786-.234 1.26l-4.662.001c-.051-.09-.149-.271-.198-.361.505-.167 1.021-.301 1.507-.519-.909-.207-1.857-.047-2.783-.096l.001.468.719.127.27.573c-.261.426-.525.851-.785 1.277-1.583-.803-3.709-.049-4.357 1.619-.803 1.743.375 3.983 2.253 4.329 1.749.429 3.594-.903 3.831-2.667l.585.001c.151.203.309.401.483.585l-.117.531c-.258.023-.513.073-.732.222.303.061.613.073.921.081.055-.245.111-.489.163-.735.861.135 1.509-.768 1.115-1.541.798-.789 1.605-1.571 2.407-2.355l.151.369c-1.377 1.175-1.449 3.501-.087 4.713 1.32 1.329 3.761 1.071 4.779-.497.894-1.229.705-3.078-.414-4.104-1.001-.997-2.652-1.131-3.853-.425-.317-.793-.633-1.587-.954-2.379l.414-.385c-.105-.318-.213-.633-.319-.951-.861-.167-1.823-.663-2.605 0z"/>
    <path fill="#fff" d="M9.825 10.017h4.639l.207.523c-.645.633-1.299 1.26-1.938 1.899-.021-.066-.065-.195-.085-.261a35.412 35.412 0 0 0-.921-.012l-.189.828-.264.057c-.483-1.011-.969-2.021-1.449-3.033zM8.757 11.244c.207-.329.408-.66.615-.987.493 1.029.984 2.059 1.476 3.09-.059.105-.117.211-.174.318h-.6a3.432 3.432 0 0 0-1.317-2.421zM5.059 11.898c.779-.769 2.001-.909 2.991-.491-.319.522-.631 1.049-.96 1.565-.174.353-.714.343-.801.756-.149.435.318.947.762.774.755-.435 1.659-.165 2.483-.237-.185.858-.744 1.647-1.563 1.997-1.127.527-2.585.115-3.27-.921-.747-1.035-.583-2.586.359-3.444zM15.633 11.603c1.523-1.062 3.865-.065 4.107 1.785.403 1.887-1.657 3.659-3.465 2.967-1.839-.531-2.413-3.083-1.073-4.415.399.861 1.125 1.506 1.707 2.241.135.251.504.144.497-.135-.523-.864-1.416-1.477-1.773-2.445z"/>
    <path fill="#fff" d="M7.452 13.637c.063-.711.727-1.301 1.045-1.953a3.031 3.031 0 0 1 1.067 1.974c-.703-.003-1.41.042-2.112-.021zM11.937 12.396c.246.025.493.051.727.138-.207.177-.407.361-.605.547l-.264-.063c.047-.207.093-.415.141-.621zM11.369 14.694c.163-.443.513-.813.933-1.025.181.597-.339 1.111-.933 1.025zM11.019 14.267c.555-.132-.097.551 0 0z"/>
</svg>
