<svg xmlns="http://www.w3.org/2000/svg" width="24" height="24">
    <path fill="#181818" opacity=".75" d="M2.254 0h18.611l.194.138C15.199.167 9.341.13 3.481.108a6.223 6.223 0 0 0-1.714.176C1.929.189 2.09.091 2.253 0z"/>
    <path fill="#fff" d="M1.768.284A6.18 6.18 0 0 1 3.482.108C9.342.13 15.2.167 21.06.138c1.23.092 2.322.946 2.686 2.129a.523.523 0 0 0 .136.527c.092 5.986.01 11.977.042 17.965.041.878-.19 1.772-.731 2.474a.527.527 0 0 0-.437.328c-.482.19-.985.367-1.511.359-6.163-.002-12.326 0-18.49-.001-1.114.01-2.125-.754-2.483-1.798-.221-.878-.139-1.787-.151-2.682C.12 14.079.122 8.718.12 3.358.113 2.77.246 2.194.391 1.629l.178-.378A.57.57 0 0 0 .9.826L.926.755c.202.037.346-.144.437-.296.136-.056.271-.115.406-.174zm.79.726c-1.19.278-1.69 1.6-1.61 2.711.01 5.681-.011 11.362.011 17.042-.06 1.141.817 2.317 2.03 2.244 6.126.01 12.252.036 18.377.014 1.104-.011 1.741-1.148 1.709-2.147.023-5.758.008-11.515.007-17.272.007-1.238-.852-2.651-2.203-2.676C15.16.914 9.439.914 3.719.9c-.389-.002-.784.001-1.16.109z"/>
    <path fill="#fff" d="M2.934 1.526c5.9-.09 11.809.011 17.713-.023 1.132-.097 1.861 1.087 1.849 2.1.006 5.717.008 11.435-.001 17.153.038.751-.352 1.734-1.247 1.687-6.124.005-12.25-.01-18.373-.031-.919.013-1.393-.97-1.337-1.776-.007-5.718-.005-11.436 0-17.154-.046-.869.444-1.865 1.396-1.956zm6.055 1.373c-.313.76-.583 1.538-.878 2.306-.449.139-.842.535-.791 1.036.098.595.352 1.151.509 1.732l-.505.005v.509c.254.004.509 0 .764.004.034.398-.106.889.208 1.208.33.359 1.001.22 1.153-.245.079-.314.042-.643.052-.965h4.933c.034.402-.108.899.215 1.217.335.352.998.206 1.147-.257.077-.313.041-.64.05-.96.258-.001.517 0 .776-.002a42.673 42.673 0 0 1 0-.506l-.509-.008c.16-.581.408-1.138.51-1.733.044-.488-.329-.894-.779-1.021-.306-.766-.581-1.543-.876-2.312-1.993-.006-3.986.006-5.98-.006zM3.37 13.801l.196.2c-.274.734-.576 1.46-.814 2.207-.065 1.116-.013 2.239-.032 3.359 1.04.002 2.081.001 3.121 0-.132-.755.457-1.555 1.249-1.528.792-.029 1.38.772 1.25 1.528h6.731c-.13-.755.458-1.555 1.249-1.528.792-.029 1.38.773 1.252 1.528 1.25.001 2.5.002 3.75 0-.013-1.109.029-2.219-.018-3.325-.359-.926-.805-1.819-1.202-2.731-.048-.197-.233-.268-.418-.24-5.244.005-10.488-.005-15.732.005-.322-.046-.431.317-.582.526zm3.379 4.463c-.821.229-1.002 1.452-.283 1.909.613.487 1.621.041 1.694-.732.144-.76-.689-1.448-1.411-1.177zm9.24-.002c-.832.223-1.013 1.462-.284 1.916.613.48 1.614.032 1.687-.737.142-.757-.682-1.444-1.403-1.18z"/>
    <path fill="#fff" d="M9.173 3.162c1.862-.006 3.724.004 5.586-.006.281.676.536 1.361.798 2.044a24.008 24.008 0 0 0-7.171.001c.257-.682.524-1.36.787-2.039zM7.969 5.692c.407-.3 1.057.038 1.028.547.014.497-.613.823-1.018.539-.391-.224-.398-.854-.011-1.086zM15.282 5.669c.41-.26 1.02.079.992.571.013.482-.584.809-.989.554-.432-.216-.433-.905-.004-1.126zM9.691 6.146c1.52-.002 3.042-.007 4.562.002-.052.727-.446 1.589-1.252 1.691a8.561 8.561 0 0 1-2.122-.011c-.772-.138-1.144-.973-1.189-1.682zM3.04 16.285c.34-.79.434-1.79 1.025-2.412-.322.794-.433 1.801-1.025 2.412zM4.367 13.946c.451-.004.904-.002 1.356-.002v2.286c-.732.002-1.464.004-2.196 0 .277-.762.562-1.522.84-2.284zM5.957 13.944h1.835v2.287H5.957c-.002-.763-.002-1.525 0-2.287zM8.015 13.944h1.956c.002.763.002 1.525 0 2.287H8.015c-.002-.762-.002-1.524 0-2.287zM10.206 13.944h1.834c.002.762.002 1.524.001 2.287h-1.835v-2.287zM12.264 13.944h1.946c.002.762.002 1.524 0 2.287h-1.946v-2.287zM14.434 13.944h1.931v2.287c-.644 0-1.288.004-1.931-.001v-2.286zM16.598 13.945c.61-.002 1.22-.002 1.83 0-.007.763.014 1.528-.013 2.291-.606-.007-1.212-.002-1.817-.006v-2.285zM18.649 13.945l1.373-.001c.337.761.67 1.523 1.002 2.286-.786.006-1.572-.004-2.358.007-.036-.763-.008-1.529-.017-2.292z"/>
    <path fill="#373737" opacity=".82" d="M.925.755c.043-.2.258-.274.437-.296-.091.152-.235.334-.437.296z"/>
    <path fill="#3a3a3a" opacity=".83" d="M.568 1.25c0-.204.128-.38.331-.425a.573.573 0 0 1-.331.425z"/>
    <path d="M2.558 1.01c.377-.108.772-.112 1.16-.109 5.72.014 11.441.014 17.16.026 1.351.025 2.21 1.438 2.203 2.676.001 5.756.016 11.514-.007 17.272.032.998-.605 2.136-1.709 2.147-6.125.022-12.251-.005-18.377-.014-1.213.073-2.09-1.103-2.03-2.244C.936 15.083.957 9.402.947 3.722c-.079-1.111.42-2.432 1.61-2.711zm.376.516c-.952.091-1.441 1.087-1.396 1.956-.005 5.718-.007 11.436 0 17.154-.056.806.418 1.789 1.337 1.776 6.124.022 12.25.036 18.373.031.895.047 1.285-.936 1.247-1.687.01-5.718.007-11.436.001-17.153.012-1.013-.718-2.197-1.849-2.1-5.904.034-11.813-.067-17.713.023z"/>
    <path d="M8.989 2.899c1.993.012 3.986 0 5.98.006.295.769.57 1.547.876 2.312.45.127.823.533.779 1.021-.102.595-.35 1.152-.51 1.733l.509.008v.506c-.259.002-.518.001-.776.002-.01.32.026.647-.05.96-.149.463-.812.608-1.147.257-.323-.318-.181-.815-.215-1.217H9.502c-.01.322.028.65-.052.965-.152.464-.823.604-1.153.245-.313-.319-.174-.81-.208-1.208-.256-.004-.51 0-.764-.004v-.509l.505-.005c-.157-.581-.41-1.136-.509-1.732-.052-.5.342-.896.791-1.036.295-.768.565-1.547.878-2.306zm.184.263c-.263.679-.53 1.357-.787 2.039a24.008 24.008 0 0 1 7.171-.001c-.262-.683-.517-1.368-.798-2.044-1.862.01-3.724 0-5.586.006zm-1.204 2.53c-.388.232-.38.862.011 1.086.404.284 1.032-.042 1.018-.539.029-.509-.622-.847-1.028-.547zm7.313-.023c-.43.221-.428.91.004 1.126.404.254 1.002-.072.989-.554.028-.492-.582-.832-.992-.571zm-5.591.477c.046.709.418 1.544 1.189 1.682a8.56 8.56 0 0 0 2.122.011c.805-.102 1.2-.964 1.252-1.691-1.52-.01-3.042-.005-4.562-.002zM3.37 13.801c.151-.209.26-.571.582-.526 5.244-.01 10.488 0 15.732-.005.185-.028.37.043.418.24.397.912.844 1.805 1.202 2.731.047 1.106.005 2.216.018 3.325-1.25.002-2.5.001-3.75 0 .128-.755-.46-1.556-1.252-1.528-.791-.028-1.379.773-1.249 1.528H8.34c.13-.756-.458-1.556-1.25-1.528-.792-.028-1.381.773-1.249 1.528-1.04.001-2.081.002-3.121 0 .019-1.12-.032-2.243.032-3.359.238-.746.54-1.472.814-2.207l-.196-.2zm-.33 2.484c.592-.611.703-1.618 1.025-2.412-.59.622-.685 1.622-1.025 2.412zm1.327-2.339c-.278.762-.563 1.522-.84 2.284.732.004 1.464.002 2.196 0v-2.286c-.452 0-.905-.001-1.356.002zm1.59-.002c-.002.762-.002 1.524 0 2.287h1.835v-2.287H5.957zm2.058 0c-.002.763-.002 1.525 0 2.287h1.956c.002-.762.002-1.524 0-2.287H8.015zm2.191 0v2.287h1.835c.001-.763.001-1.525-.001-2.287h-1.834zm2.058 0v2.287h1.946c.002-.763.002-1.525 0-2.287h-1.946zm2.17 0v2.286c.643.005 1.286.001 1.931.001v-2.287h-1.931zm2.164.001v2.285c.605.004 1.211-.001 1.817.006.028-.763.006-1.528.013-2.291-.61-.002-1.22-.002-1.83 0zm2.051 0c.008.763-.019 1.529.017 2.292.786-.011 1.572-.001 2.358-.007a385.82 385.82 0 0 0-1.002-2.286l-1.373.001z"/>
    <path d="M6.749 18.264c.722-.271 1.555.418 1.411 1.177-.073.773-1.081 1.219-1.694.732-.719-.457-.538-1.68.283-1.909zM15.989 18.262c.721-.264 1.544.422 1.403 1.18-.073.769-1.074 1.217-1.687.737-.728-.455-.547-1.693.284-1.916z"/>
    <path fill="#222" opacity=".9" d="M0 2.688c.082-.37.208-.728.39-1.06-.145.565-.278 1.141-.271 1.729.002 5.36 0 10.721.001 16.081.012.895-.07 1.804.151 2.682-.09-.175-.184-.347-.271-.522V2.687z"/>
    <path fill="#2d2d2d" opacity=".84" d="M23.744 2.267c.156.13.202.337.136.527a.522.522 0 0 1-.136-.527z"/>
    <path fill="#404040" opacity=".85" d="M22.754 23.561a.526.526 0 0 1 .437-.328.48.48 0 0 1-.437.328z"/>
</svg>
