<svg xmlns="http://www.w3.org/2000/svg" width="24" height="24">
    <path fill="#edae15" d="M1.24 5.872h21.57c.833.103 1.335.909 1.304 1.703.035 2.708.003 5.417.017 8.126-.007.653-.013 1.41-.526 1.892-.546.483-1.329.42-2.007.443-6.553-.009-13.103.016-19.654-.011-.875.067-1.823-.406-1.944-1.351V7.15a1.56 1.56 0 0 1 1.24-1.279zm.266.317c-.7-.003-1.211.606-1.197 1.285-.055 2.66-.006 5.322-.025 7.983.011.584-.032 1.218.277 1.741.291.448.89.489 1.373.507 6.638-.005 13.276.001 19.913-.003.516-.023 1.104 0 1.523-.353.422-.385.422-1.003.436-1.53-.001-2.627.005-5.254-.003-7.881-.025-.536-.029-1.226-.546-1.544-.581-.306-1.265-.235-1.9-.252-6.617.033-13.237-.058-19.85.046z"/>
    <path fill="#edae15" d="M1.249 6.64c.383-.098.784-.093 1.178-.101 6.471.003 12.942-.001 19.414.001.429.025.905-.01 1.283.232.308.346.263.852.287 1.283-.012 2.752.025 5.505-.018 8.257.047.601-.49 1.026-1.063.988-6.836.016-13.674.007-20.511.005-.547.054-1.137-.257-1.107-.873C.631 13.603.7 10.768.677 7.937c.019-.464-.005-1.171.571-1.297zm7.168 1.086C6.399 9.129 4.36 10.502 2.35 11.913c1.983 1.409 3.951 2.839 5.947 4.228.474.41 1.315.091 1.293-.564-.093-.688-.398-1.326-.575-1.995 4.34-.012 8.682.005 13.022-.009.009-1.1.006-2.201.003-3.3-4.345-.01-8.691.003-13.036-.006.205-.655.58-1.267.668-1.954.006-.636-.77-.966-1.256-.587z"/>
    <path fill="#231f20" d="M1.506 6.189c6.613-.104 13.233-.013 19.85-.046.635.017 1.319-.054 1.9.252.517.318.522 1.007.546 1.544.007 2.627.001 5.254.003 7.881-.013.526-.013 1.145-.436 1.53-.419.353-1.007.33-1.523.353-6.637.004-13.275-.003-19.913.003-.483-.018-1.081-.059-1.373-.507-.308-.523-.266-1.158-.277-1.741.018-2.661-.03-5.323.025-7.983-.013-.68.497-1.287 1.197-1.285zm-.257.451c-.577.126-.552.833-.571 1.297.023 2.831-.046 5.666.035 8.495-.03.615.559.926 1.107.873 6.837.003 13.675.011 20.511-.005.573.039 1.11-.387 1.063-.988.042-2.752.006-5.505.018-8.257-.025-.431.02-.937-.287-1.283-.377-.242-.853-.207-1.283-.232-6.472-.003-12.943.001-19.414-.001-.394.007-.795.003-1.178.101z"/>
    <path fill="#231f20" d="M8.417 7.726c.487-.378 1.262-.049 1.256.587-.088.687-.464 1.299-.668 1.954 4.345.009 8.691-.004 13.036.006.004 1.099.006 2.2-.003 3.3-4.34.013-8.682-.004-13.022.009.177.668.482 1.307.575 1.995.022.655-.819.974-1.293.564-1.996-1.388-3.964-2.819-5.947-4.228 2.01-1.411 4.049-2.785 6.067-4.187z"/>
</svg>
