<svg xmlns="http://www.w3.org/2000/svg" width="24" height="24">
    <path fill="#3b4050" opacity=".4" d="M5.526 6h15.191v.128c-1.572.056-3.145.016-4.718.025-3.561-.118-7.13.14-10.689-.074L5.526 6z"/>
    <path fill="#15171d" opacity=".14" d="M20.716 6h3.416v.342c-1.074-.417-2.286-.13-3.416-.213v-.128z"/>
    <path fill="#2440b1" d="M.029 6.269c1.744-.272 3.522-.102 5.28-.19 3.559.213 7.129-.045 10.689.074.027.053.084.157.112.209 1.179 1.933 2.547 3.747 3.857 5.595-1.213 1.933-2.689 3.697-3.837 5.67-2.616.312-5.245-.166-7.871.009a12.682 12.682 0 0 0-.157-.224l-.138.267c-1.283-.027-2.596.188-3.856-.114 1.309-1.87 2.613-3.742 3.918-5.615-1.266-1.691-2.429-3.453-3.663-5.166-.14-.171-.278-.396-.526-.398-1.232-.093-2.47.042-3.702-.049L.03 6.27zm8.095.107c1.201 1.932 2.664 3.693 3.954 5.569-1.236 1.837-2.553 3.62-3.87 5.4 1.206.467 2.623.104 3.914.194 1.245-1.895 2.63-3.695 3.888-5.58a342.942 342.942 0 0 1-3.822-5.367c-.18-.294-.554-.231-.846-.241-1.072.018-2.144.004-3.216.027z"/>
    <path fill="#2541ae" d="M15.998 6.153c1.573-.009 3.147.03 4.718-.025 1.13.083 2.342-.203 3.416.213v11.371c-.256.02-.51.041-.766.053-1.137-.12-2.295.136-3.413-.149 1.353-1.875 2.722-3.741 4.01-5.661-1.173-1.635-2.357-3.264-3.525-4.902-.213-.264-.385-.679-.78-.674-1.182-.018-2.364.008-3.547-.018l-.112-.208z"/>
    <path fill="#2442b0" d="M0 6.274l.029-.006.105.067c1.183 1.957 2.625 3.747 3.95 5.61-1.06 1.556-2.195 3.06-3.267 4.606-.271.241-.556.465-.816.72V6.273z"/>
    <path fill="#fefefd" d="M.135 6.336c1.232.091 2.47-.045 3.702.049.248.003.387.227.526.398 1.234 1.712 2.397 3.474 3.663 5.166-1.305 1.872-2.608 3.745-3.918 5.615-1.297-.027-2.595-.002-3.893-.013.19-.339.387-.674.602-.998 1.074-1.547 2.208-3.05 3.267-4.606-1.324-1.863-2.766-3.653-3.95-5.61zM8.124 6.376c1.072-.022 2.144-.008 3.216-.027.293.01.668-.053.846.241a325.881 325.881 0 0 0 3.822 5.367c-1.258 1.886-2.643 3.685-3.888 5.58-1.291-.09-2.709.273-3.914-.194 1.317-1.78 2.634-3.563 3.87-5.4-1.29-1.875-2.752-3.637-3.954-5.569z"/>
    <path fill="#fefefc" d="M16.11 6.361c1.183.027 2.365 0 3.547.018.396-.006.567.41.78.674 1.168 1.638 2.351 3.267 3.525 4.902-1.288 1.92-2.657 3.786-4.01 5.661-1.269-.081-2.554-.104-3.823.01 1.149-1.972 2.624-3.737 3.837-5.67-1.309-1.848-2.678-3.662-3.857-5.595z"/>
    <path fill="#4a5583" opacity=".98" d="M0 17.272c.26-.255.544-.479.816-.72-.215.324-.411.66-.602.998 1.297.012 2.595-.015 3.893.013 1.26.302 2.573.088 3.856.114l.138-.267.157.224c2.625-.176 5.255.303 7.871-.009 1.269-.114 2.554-.091 3.823-.011 1.118.285 2.276.029 3.413.149-1.194.085-2.39.108-3.585.104-5.847.002-11.692-.002-17.54-.002-.747-.004-1.5.046-2.241-.075v-.521z"/>
</svg>
