<svg xmlns="http://www.w3.org/2000/svg" width="24" height="24">
    <path fill="#2b2309" opacity=".9" d="M4.661.395C5.043.274 5.447.32 5.84.313c4.348.001 8.695.002 13.043-.001a.788.788 0 0 1 .658.264 1.632 1.632 0 0 0-.82-.182C14.073.412 9.425.38 4.777.41L4.66.394z"/>
    <path fill="#fc3" d="M4.778.411c4.648-.03 9.296.002 13.944-.016.285-.013.567.05.82.182.056.054.106.113.15.176.135.485.088.99.093 1.487 0 6.774-.001 13.546.001 20.32a6.397 6.397 0 0 1-.036.603 1.125 1.125 0 0 1-.451.425c-4.865.038-9.733.031-14.598.003a1.19 1.19 0 0 1-.45-.427c-.07-.733-.022-1.47-.036-2.205.009-6.708-.035-13.418.006-20.125L4.335.73a.727.727 0 0 0 .229-.236l.042-.067.173-.016zm.05.187c-.342.117-.5.496-.484.835 0 7.044-.002 14.088.001 21.131-.036.441.294.907.767.872 4.59.005 9.181.022 13.771.016.483.038.811-.442.773-.886V1.434c.042-.447-.295-.917-.773-.886C14.376.535 9.868.55 5.361.541c-.178.005-.362-.001-.533.057z"/>
    <path fill="#fc3" d="M4.991 1.005C9.565.938 14.148.996 18.725.975c.293-.058.546.157.496.462.006 7.014-.001 14.03.003 21.044.013.223-.042.572-.342.534-4.562.01-9.126-.01-13.689-.009-.271.051-.447-.191-.414-.443-.007-7.014.001-14.03-.004-21.044.007-.182-.003-.454.216-.514zm7.876 1.729l.01.433c.31.01.634-.038.934.066.207.188.22.498.31.749-1.235-.006-2.471.018-3.705-.01-.101-.112-.129-.27-.189-.405.348-.099.782-.068 1.028-.38-.658-.076-1.322-.018-1.983-.037l-.033.418.525.021c.299.605-.306 1.149-.463 1.712-1.109-.366-2.426.293-2.73 1.433-.386 1.167.455 2.525 1.669 2.706 1.11.23 2.246-.577 2.481-1.669.468-.036 1.06.136 1.395-.294.753-.858 1.497-1.726 2.286-2.551l.154.474c-.946.414-1.518 1.532-1.219 2.536.274 1.117 1.55 1.84 2.649 1.49 1.122-.294 1.825-1.596 1.443-2.694-.296-1.014-1.402-1.646-2.43-1.466-.233-.707-.386-1.447-.703-2.125-.264-.531-.948-.377-1.43-.406zm-1.25 9.584c.583.595 1.183 1.176 1.768 1.77-.804.032-1.618-.057-2.414.082-1.414.256-2.432 1.702-2.343 3.11.005 1.358 0 2.716.002 4.074.418 0 .835.001 1.253-.001.001-1.464-.007-2.929.002-4.393.029-.886.839-1.618 1.709-1.637.604-.006 1.209-.001 1.813.002-.591.606-1.199 1.195-1.794 1.797.518-.014 1.042.042 1.557-.024.823-.766 1.594-1.59 2.398-2.378-.795-.802-1.598-1.597-2.392-2.402-.52-.008-1.04-.006-1.559-.002z"/>
    <path fill="#fc3" d="M10.571 4.437c1.219 0 2.438.002 3.657 0-.868.943-1.734 1.89-2.602 2.832-.35-.944-.703-1.887-1.054-2.832zM10.124 4.611c.359.902.694 1.813 1.042 2.718l-.401.007a2.3 2.3 0 0 0-1.041-1.838l.4-.888zM7.042 6.808c.262-.842 1.226-1.308 2.061-1.074-.214.666-.746 1.286-.745 1.985.616.13 1.254.014 1.879.056-.239.798-1.082 1.374-1.915 1.2-.969-.144-1.623-1.248-1.28-2.167zM15.149 5.714c.848-.103 1.726.475 1.875 1.333.219.935-.537 1.942-1.498 1.982-.908.102-1.781-.679-1.79-1.59-.045-.67.381-1.275.949-1.591.201.52.314 1.071.534 1.583.071.268.484.096.394-.15-.11-.534-.324-1.041-.464-1.568z"/>
    <path fill="#fc3" d="M8.897 7.334c.21-.466.417-.934.634-1.398.451.325.73.838.767 1.392-.467.01-.934.004-1.401.006z"/>
    <path fill="#241d07" opacity=".75" d="M4.334.73c-.094-.123.103-.322.229-.236a.727.727 0 0 1-.229.236z"/>
    <path d="M4.828.598c.171-.058.354-.052.533-.057C9.868.55 14.376.535 18.883.548c.478-.031.815.438.773.886v21.132c.038.445-.29.925-.773.886-4.59.006-9.181-.011-13.771-.016-.474.035-.803-.431-.767-.872-.002-7.043-.001-14.087-.001-21.131-.016-.339.142-.718.484-.835zm.163.407c-.219.061-.209.332-.216.514.005 7.014-.003 14.03.004 21.044-.033.252.143.494.414.443 4.563-.002 9.126.018 13.689.009.301.038.355-.311.342-.534-.004-7.014.002-14.03-.003-21.044.05-.305-.203-.52-.496-.462-4.578.021-9.16-.038-13.734.03zM19.692.753c.087.133.155.281.143.444-.002 6.987-.002 13.975-.001 20.962-.011.334.054.687-.085 1.004.021-.201.034-.402.036-.603-.002-6.774-.001-13.546-.001-20.32-.005-.497.042-1.002-.093-1.487zM4.133 2.32c.022-.494-.073-1.006.087-1.486-.041 6.707.003 13.417-.006 20.125.014.735-.034 1.472.036 2.205a1.201 1.201 0 0 1-.089-.523c.029-6.774-.048-13.546-.029-20.321z"/>
    <path d="M12.867 2.734c.482.029 1.166-.126 1.43.406.317.678.47 1.418.703 2.125 1.028-.179 2.134.452 2.43 1.466.382 1.098-.322 2.401-1.443 2.694-1.098.35-2.374-.373-2.649-1.49-.298-1.004.273-2.122 1.219-2.536l-.154-.474c-.79.826-1.534 1.693-2.286 2.551-.335.43-.927.258-1.395.294-.234 1.092-1.37 1.898-2.481 1.669-1.214-.181-2.055-1.538-1.669-2.706.303-1.14 1.621-1.799 2.73-1.433.158-.563.762-1.107.463-1.712l-.525-.021.033-.418c.661.018 1.326-.039 1.983.037-.246.312-.68.281-1.028.38.06.134.088.293.189.405 1.234.027 2.47.004 3.705.01-.09-.25-.102-.561-.31-.749-.299-.105-.623-.057-.934-.066a61.134 61.134 0 0 1-.01-.433zm-2.296 1.703c.351.945.704 1.888 1.054 2.832.869-.942 1.734-1.889 2.602-2.832-1.219.002-2.438 0-3.657 0zm-.447.174l-.4.888a2.3 2.3 0 0 1 1.041 1.838l.401-.007c-.347-.906-.682-1.817-1.042-2.718zM7.042 6.808c-.343.919.311 2.023 1.28 2.167.834.174 1.676-.402 1.915-1.2-.625-.042-1.263.074-1.879-.056-.002-.699.531-1.318.745-1.985-.835-.234-1.799.232-2.061 1.074zm8.107-1.094c.14.527.354 1.034.464 1.568.09.246-.322.418-.394.15-.221-.512-.334-1.063-.534-1.583-.568.316-.994.922-.949 1.591.01.91.882 1.692 1.79 1.59.961-.041 1.717-1.047 1.498-1.982-.15-.858-1.027-1.436-1.875-1.333zm-6.252 1.62c.467-.002.934.004 1.401-.006a1.872 1.872 0 0 0-.767-1.392c-.217.463-.423.931-.634 1.398zM11.617 12.318a67.523 67.523 0 0 1 1.559.002c.794.805 1.597 1.599 2.392 2.402-.804.788-1.575 1.612-2.398 2.378-.515.066-1.038.01-1.557.024.595-.602 1.203-1.19 1.794-1.797-.604-.002-1.209-.007-1.813-.002-.87.019-1.68.751-1.709 1.637-.01 1.464-.002 2.929-.002 4.393-.418.002-.835.001-1.253.001-.002-1.358.002-2.716-.002-4.074-.089-1.408.929-2.854 2.343-3.11.796-.139 1.61-.05 2.414-.082-.585-.594-1.185-1.175-1.768-1.77zM4.7 23.591c4.866.028 9.734.034 14.598-.003-.306.143-.653.074-.978.086-4.214-.002-8.426-.001-12.64 0-.326-.012-.672.056-.98-.083z"/>
</svg>
