<svg xmlns="http://www.w3.org/2000/svg" width="24" height="24">
    <path fill="#fff" d="M1.078 3.108c.206-.083.43-.082.647-.083 6.9.002 13.799-.001 20.699.002.823-.022 1.571.726 1.549 1.549v14.848c.023.823-.726 1.571-1.549 1.549-6.949.002-13.898.002-20.847 0-.823.022-1.573-.726-1.549-1.549-.002-4.95-.002-9.899 0-14.848-.016-.649.444-1.258 1.051-1.468zm.302.313C.809 3.514.37 4.068.4 4.644.402 9.572.397 14.5.402 19.429c-.005.646.6 1.206 1.241 1.172 6.928-.002 13.857.003 20.785-.002.646.002 1.207-.598 1.171-1.242-.002-4.928.003-9.857-.002-14.785.001-.645-.598-1.208-1.242-1.171-6.992.014-13.986-.028-20.976.022z"/>
    <path fill="#fff" d="M1.454 4.02c6.941-.047 13.885-.005 20.827-.021.377-.056.753.256.718.646.002 4.904.002 9.807 0 14.711a.611.611 0 0 1-.644.644H1.644A.61.61 0 0 1 1 19.356V4.646a.605.605 0 0 1 .454-.625zm8.228.783c-.372.119-.519.521-.644.853-.238.707-.444 1.424-.661 2.136-1.354-.274-2.795.707-3.011 2.075-.286 1.351.71 2.788 2.071 3.003 1.28.266 2.65-.608 2.957-1.876.346-1.198-.329-2.558-1.475-3.036.058-.196.119-.391.183-.584.966.996 1.859 2.058 2.776 3.098.409.518 1.124.276 1.687.343.276 1.448 1.912 2.425 3.314 1.934 1.349-.39 2.155-1.995 1.654-3.311-.421-1.305-1.967-2.051-3.258-1.6-.242-.534-.484-1.067-.722-1.603.058-.161.116-.322.176-.483l.607-.013-.022-.506c-.731-.001-1.462-.003-2.193.001-.132-.03-.187.191-.057.227.344.141.72.176 1.079.268-.059.167-.117.332-.178.497-1.505.002-3.01.007-4.515.01.114-.304.104-.699.376-.913.355-.137.752-.062 1.124-.08.005-.173.008-.346.011-.52-.425.013-.863-.036-1.277.077zm5.554 8.852c-.56.542-1.129 1.077-1.684 1.625.002.302-.001.604.002.906.448-.416.884-.844 1.331-1.261-.015 1.354-.037 2.707-.052 4.061.265.008.53.013.796.017-.004-1.361-.012-2.72-.017-4.081l1.267 1.357c.002-.317.005-.635-.003-.952-.547-.557-1.091-1.117-1.64-1.673zm-6.676.287c.015 1.354.037 2.707.052 4.062-.445-.42-.886-.845-1.331-1.263-.002.307-.005.614.002.921.563.533 1.118 1.075 1.679 1.612.548-.554 1.088-1.116 1.637-1.667.013-.32.006-.639.006-.959-.423.451-.844.905-1.266 1.356.003-1.36.013-2.72.016-4.079-.265.004-.53.009-.796.017z"/>
    <path fill="#fff" d="M9.319 6.785c1.472-.007 2.944-.005 4.417-.009-.422 1.145-.849 2.288-1.276 3.432-1.048-1.14-2.095-2.281-3.14-3.423zM14.271 6.991c.166.361.327.724.492 1.086a2.648 2.648 0 0 0-1.249 2.204l-.496-.002c.415-1.097.833-2.193 1.253-3.288zM6.167 9.321c.397-.703 1.238-1.094 2.033-.98-.179.623-.412 1.232-.563 1.864-.113.283.349.526.471.226.259-.624.416-1.287.638-1.926 1.108.485 1.529 2.018.796 2.988-.672 1.024-2.294 1.137-3.103.218-.604-.622-.721-1.648-.272-2.389zM15.511 8.364c.735-.217 1.581.008 2.086.589.575.626.675 1.624.236 2.351a2.018 2.018 0 0 1-2.07.968c-.764-.119-1.407-.72-1.611-1.461.682-.01 1.366.035 2.047-.004.199.017.324-.197.233-.368-.287-.7-.618-1.382-.921-2.076z"/>
    <path fill="#fff" d="M14.084 10.283a2.061 2.061 0 0 1 .914-1.678c.256.56.509 1.121.76 1.684-.558.001-1.116-.005-1.674-.005z"/>
    <path d="M1.38 3.421c6.99-.049 13.984-.007 20.976-.022.644-.037 1.243.526 1.242 1.171.005 4.928.001 9.857.002 14.786.036.643-.525 1.244-1.171 1.242-6.928.005-13.857.001-20.785.002-.641.034-1.246-.525-1.241-1.172C.398 14.5.402 9.572.401 4.643c-.031-.576.409-1.13.98-1.223zm.074.599A.606.606 0 0 0 1 4.645v14.711a.61.61 0 0 0 .644.644h20.711c.354.03.674-.29.644-.644V4.646c.034-.389-.342-.702-.718-.646-6.941.016-13.886-.026-20.827.021z"/>
    <path d="M9.682 4.803c.415-.113.852-.064 1.277-.077l-.011.52c-.373.019-.769-.056-1.124.08-.272.214-.262.61-.376.913 1.505-.003 3.01-.009 4.515-.01.062-.165.12-.331.178-.497-.359-.091-.734-.127-1.079-.268-.13-.036-.075-.257.057-.227.731-.004 1.462-.002 2.193-.001l.022.505-.607.013c-.06.161-.119.322-.176.483.239.535.48 1.069.722 1.603 1.291-.452 2.837.295 3.258 1.6.502 1.316-.304 2.92-1.654 3.311-1.402.491-3.038-.486-3.314-1.934-.563-.067-1.278.175-1.687-.343-.916-1.04-1.81-2.102-2.776-3.098-.064.193-.125.389-.183.584 1.146.478 1.821 1.837 1.475 3.036-.307 1.268-1.677 2.142-2.957 1.876-1.361-.215-2.357-1.652-2.072-3.003.216-1.368 1.657-2.349 3.01-2.075.217-.712.423-1.429.661-2.136.125-.332.272-.734.644-.854zm-.363 1.982c1.045 1.142 2.092 2.283 3.14 3.423a748.27 748.27 0 0 0 1.276-3.432c-1.472.005-2.944.002-4.417.009zm4.952.206c-.419 1.095-.837 2.191-1.253 3.288l.496.002a2.648 2.648 0 0 1 1.249-2.204c-.165-.362-.326-.725-.492-1.086zm-8.104 2.33c-.449.742-.332 1.767.272 2.389.809.919 2.431.806 3.103-.218.732-.97.311-2.504-.796-2.988-.222.639-.38 1.302-.638 1.926-.122.3-.584.057-.471-.226.152-.631.384-1.24.563-1.864-.795-.114-1.636.277-2.033.98zm9.344-.957c.303.694.634 1.376.921 2.076.091.171-.034.385-.233.368-.681.039-1.365-.006-2.048.004.204.741.847 1.342 1.611 1.461a2.016 2.016 0 0 0 2.07-.967 2.017 2.017 0 0 0-.235-2.351c-.505-.581-1.351-.807-2.086-.589zm-1.427 1.919c.558 0 1.116.006 1.674.005a180.85 180.85 0 0 0-.76-1.684 2.063 2.063 0 0 0-.914 1.678zM15.236 13.655c.549.556 1.093 1.116 1.64 1.673.008.317.005.634.003.952l-1.267-1.358c.005 1.361.014 2.72.017 4.081-.265-.004-.53-.009-.796-.017.015-1.354.037-2.707.052-4.061-.447.417-.884.845-1.331 1.261-.003-.302 0-.604-.002-.906.555-.548 1.124-1.083 1.684-1.625zM8.56 13.942c.265-.008.53-.014.796-.017-.003 1.36-.013 2.72-.016 4.079l1.266-1.356c0 .32.007.639-.006.959-.55.551-1.09 1.113-1.637 1.667-.561-.536-1.116-1.078-1.679-1.612a28.283 28.283 0 0 1-.002-.921c.446.419.886.843 1.331 1.263-.016-1.354-.037-2.708-.053-4.062z"/>
</svg>
