<svg xmlns="http://www.w3.org/2000/svg" width="24" height="24">
    <path fill="#f3fbff" d="M4.333 0H19.44c.335.138.667.286.989.453.143.181.267.378.394.571v21.437c-.135.34-.281.675-.441 1.003l-.108.109c-.302.157-.611.299-.926.425H4.194l-.293-.079c-.285-.227-.571-.453-.852-.686l-.051-.115V1.615C3.033.822 3.551.168 4.331-.002zm-.812 1.955c-.048 6.696-.052 13.395-.072 20.093-.031.807.71 1.527 1.519 1.464 4.584.025 9.166-.014 13.75-.004.942.073 1.618-.872 1.579-1.747.018-6.422.029-12.848.066-19.27.163-.932-.47-2.031-1.503-1.985C14.627.5 10.393.528 6.161.551 5.1.326 3.625.669 3.521 1.956z"/>
    <path fill="#939799" opacity=".89" d="M19.441 0h.611c.131.147.257.299.379.453A12.228 12.228 0 0 0 19.442 0z"/>
    <path fill="#223eae" d="M3.521 1.955C3.625.668 5.1.326 6.161.55c1.9.546 3.987-.233 5.822.578-2.702 3.579-5.185 7.318-7.855 10.921 2.643 3.573 5.105 7.274 7.709 10.874 2.584-.001 5.168-.006 7.752-.02-2.581-3.608-5.137-7.239-7.715-10.851C14.085 8.94 16.24 5.79 18.535 2.74c.591-.185 1.211-.243 1.829-.251-.036 6.422-.048 12.848-.066 19.27.039.876-.637 1.82-1.579 1.747-4.584-.01-9.166.029-13.75.004-.808.063-1.549-.657-1.519-1.464.02-6.698.024-13.396.072-20.093z"/>
    <path fill="#3349ac" d="M6.161.55C10.393.528 14.627.499 18.86.505c1.033-.046 1.666 1.053 1.503 1.985-.618.008-1.238.066-1.829.251.39-.522.766-1.054 1.147-1.583-2.566-.025-5.135.069-7.698-.029-1.834-.811-3.921-.032-5.822-.578z"/>
    <path fill="#fff" d="M4.127 12.049c2.671-3.603 5.154-7.342 7.855-10.921 2.563.098 5.133.004 7.698.029-.38.529-.756 1.061-1.147 1.583-2.295 3.05-4.451 6.201-6.661 9.312 2.578 3.611 5.134 7.242 7.715 10.851-2.584.014-5.168.018-7.752.02-2.605-3.6-5.067-7.301-7.709-10.874z"/>
    <path fill="#808487" opacity=".89" d="M20.384 23.465c.16-.328.306-.664.441-1.003v.609c-.145.133-.295.261-.441.394z"/>
    <path fill="#90929a" opacity=".9" d="M3.051 23.235c.281.233.567.459.852.686-.394-.062-.761-.268-.852-.686z"/>
    <path fill="#9696a4" opacity=".89" d="M19.349 24c.316-.126.625-.268.926-.425-.131.14-.257.285-.389.425h-.538z"/>
</svg>
