<svg xmlns="http://www.w3.org/2000/svg" width="24" height="24">
    <path fill="#fff" d="M1.842 5.143h20.353c.847.232 1.699.795 1.951 1.671-.006 3.325-.084 6.652-.082 9.979.165 1.07-.973 1.943-1.978 1.851-6.634.181-13.271.042-19.906.089-.618.073-1.15-.335-1.556-.753-.478-.516-.373-1.272-.407-1.917-.097-2.914-.11-5.829-.17-8.742.045-1.028.826-1.896 1.795-2.178zm-.108.998c-.483.171-.806.67-.784 1.181-.002 3.119-.007 6.239.002 9.358-.019.649.566 1.246 1.221 1.206 6.642 0 13.285.002 19.927-.002.664.046 1.261-.547 1.241-1.207.011-3.117.006-6.236.002-9.353.041-.685-.571-1.294-1.254-1.262-6.554-.012-13.107.001-19.662-.006-.232.006-.471.003-.693.085z"/>
    <path fill="#fff" d="M6.702 8.187c.402-.003.803-.003 1.204.001.007 1.617-.003 3.233.006 4.851.806.002 1.612 0 2.418-.001-1.009 1.011-2.012 2.025-3.025 3.031-1.011-1.009-2.015-2.025-3.03-3.029.809-.003 1.617.003 2.423-.003.007-1.617-.001-3.233.003-4.85zM13.354 11.21c1.009-1.006 2.01-2.021 3.026-3.018 1.017.997 2.016 2.014 3.026 3.018-.807.005-1.614-.003-2.421.003-.007 1.619.002 3.238-.005 4.858-.401.003-.8.003-1.201 0-.012-1.62 0-3.241-.006-4.859-.806-.003-1.613.002-2.419-.002z"/>
    <path fill="#0c479d" d="M1.734 6.141c.222-.081.461-.079.693-.085 6.555.007 13.109-.006 19.662.006.682-.031 1.295.578 1.254 1.262.003 3.117.009 6.236-.002 9.353.021.66-.577 1.254-1.241 1.207-6.642.005-13.285.002-19.927.002-.655.04-1.241-.557-1.221-1.206-.01-3.119-.005-6.239-.002-9.358a1.214 1.214 0 0 1 .784-1.181zm4.968 2.046c-.005 1.617.003 3.233-.003 4.85-.807.007-1.615 0-2.423.003 1.016 1.005 2.019 2.021 3.03 3.029 1.012-1.007 2.016-2.021 3.025-3.031-.806.001-1.612.003-2.418.001-.01-1.618.001-3.234-.006-4.851a53.686 53.686 0 0 0-1.204-.001zm6.652 3.023c.806.005 1.613-.001 2.419.002.006 1.619-.006 3.239.006 4.859.401.003.8.003 1.201 0 .007-1.62-.002-3.239.005-4.858.807-.007 1.614.001 2.421-.003-1.01-1.005-2.009-2.022-3.026-3.018-1.016.998-2.017 2.012-3.026 3.018z"/>
</svg>
