<svg xmlns="http://www.w3.org/2000/svg" width="24" height="24">
    <path fill="#fff" d="M11.114 0h1.784c3.312.244 6.484 1.924 8.53 4.541 1.496 1.867 2.385 4.194 2.572 6.575v1.777c-.245 3.324-1.936 6.507-4.567 8.555-1.857 1.477-4.161 2.357-6.522 2.551h-1.807c-1.872-.155-3.712-.727-5.319-1.706-2.494-1.506-4.414-3.94-5.271-6.727C.24 14.704.09 13.81 0 12.912v-1.814c.189-2.365 1.07-4.674 2.55-6.533C4.599 1.932 7.786.238 11.114-.002zm.252.596c-1.986.102-3.94.747-5.604 1.837C3.194 4.094 1.35 6.827.782 9.834.153 13.02.97 16.456 2.98 19.007a11.44 11.44 0 0 0 7.051 4.247c1.87.325 3.822.182 5.62-.429 2.806-.934 5.203-3.014 6.534-5.654 1.556-3.019 1.648-6.74.243-9.832a11.463 11.463 0 0 0-6.129-5.923 11.376 11.376 0 0 0-4.934-.82z"/>
    <path fill="#fff" d="M15.863 5.552a3.8 3.8 0 0 1 3.008.934c.758.635 1.109 1.639 1.116 2.609.006 1.906.001 3.812.002 5.718.004.774-.161 1.575-.62 2.213-.775 1.054-2.135 1.633-3.433 1.477a3.785 3.785 0 0 1-2.473-1.311c-.54-.647-.743-1.505-.749-2.332V9.985c-.001-.688-.03-1.392.182-2.056.382-1.302 1.651-2.21 2.967-2.376zm.188 1.884c-.922.081-1.509 1.016-1.446 1.89-.002 1.782 0 3.564-.001 5.346-.003.402.053.818.256 1.172.561 1.012 2.196 1.073 2.875.158.276-.364.371-.834.365-1.283V9.283c.005-.531-.161-1.092-.57-1.451-.393-.363-.961-.466-1.478-.395zM4.989 6.771c.71-.711 1.69-1.164 2.699-1.194 1.347-.083 2.647.752 3.292 1.909.672 1.324.584 2.977-.107 4.277l-3.214 6.441c-.051.089-.079.199-.157.269-.696.009-1.392.003-2.088.003.886-1.787 1.782-3.57 2.67-5.355-1.231.424-2.703-.051-3.445-1.122-.473-.713-.574-1.599-.563-2.436.014-.987.215-2.048.913-2.792zm2.53.708a2.024 2.024 0 0 0-1.079.555c-.379.39-.472.959-.48 1.481.007.506.081 1.052.416 1.454.729.9 2.348.798 2.911-.231.344-.729.325-1.613.05-2.361-.27-.717-1.11-1.002-1.818-.898z"/>
    <path fill="#00f" d="M11.366.596a11.361 11.361 0 0 1 4.934.82 11.463 11.463 0 0 1 6.129 5.923c1.405 3.092 1.313 6.813-.243 9.832-1.331 2.64-3.728 4.72-6.534 5.654-1.798.611-3.75.754-5.62.429a11.45 11.45 0 0 1-7.051-4.247C.97 16.456.153 13.02.783 9.834c.568-3.007 2.411-5.74 4.98-7.401A11.361 11.361 0 0 1 11.367.596zm4.497 4.956c-1.316.165-2.585 1.073-2.967 2.376-.212.664-.183 1.369-.182 2.056v4.875c.006.827.21 1.685.749 2.332a3.785 3.785 0 0 0 2.473 1.311c1.298.157 2.657-.423 3.433-1.477.459-.637.624-1.439.62-2.213-.001-1.906.004-3.812-.002-5.718-.007-.969-.357-1.973-1.116-2.609a3.808 3.808 0 0 0-3.008-.934zM4.989 6.771c-.697.743-.899 1.805-.913 2.792-.011.837.09 1.723.563 2.436.742 1.072 2.213 1.546 3.445 1.122-.888 1.786-1.784 3.569-2.67 5.355.696 0 1.392.007 2.088-.003.078-.07.105-.18.157-.269l3.214-6.441c.691-1.3.779-2.953.107-4.277-.645-1.157-1.944-1.992-3.292-1.909-1.009.03-1.989.483-2.699 1.194z"/>
    <path fill="#00f" d="M16.051 7.436c.517-.071 1.086.032 1.478.395.409.359.575.92.57 1.451.002 1.812 0 3.624 0 5.436.006.449-.089.919-.365 1.283-.679.915-2.315.854-2.875-.158-.202-.354-.259-.77-.256-1.172 0-1.782-.001-3.564.001-5.346-.063-.874.525-1.809 1.446-1.89zM7.519 7.479c.709-.104 1.548.181 1.818.898.275.748.294 1.632-.05 2.361-.563 1.029-2.182 1.131-2.911.231-.336-.401-.41-.947-.416-1.454.008-.523.101-1.092.48-1.481a2.024 2.024 0 0 1 1.079-.555z"/>
</svg>
