<svg xmlns="http://www.w3.org/2000/svg" width="24" height="24">
    <path fill="#fff" d="M7.112.615a.994.994 0 0 1 .938-.6c2.817 0 5.634-.003 8.451.002.519-.015.942.477.924.981.002 7.334.001 14.668 0 22.003.02.499-.382.962-.884.999h-8.55c-.516-.024-.971-.475-.96-.997-.002-7.201 0-14.402-.001-21.603.004-.263-.03-.538.082-.784zm.317.434c-.001 4.42-.002 8.84 0 13.26 3.201-1.844 6.4-3.691 9.6-5.537V1.047c.019-.321-.239-.651-.576-.636-2.786-.003-5.572 0-8.358-.001-.352-.028-.684.283-.666.639zm-.001 17.693v4.209c-.02.358.312.672.667.645 2.786-.001 5.572.003 8.358-.002.339.014.597-.319.575-.642v-9.75l-9.601 5.539z"/>
    <path fill="#fff" d="M9.706 1.863c.245-.218.526-.401.87-.322V4.58a21.026 21.026 0 0 0-.435 0c-.001-.832.001-1.664-.001-2.496-.145.105-.29.21-.435.317v-.538zM11.615 1.569c.475-.142 1.014.233 1.043.728.015.484.005.969.005 1.453.006.438-.384.828-.82.828-.443.015-.855-.378-.843-.825-.003-.47-.005-.94.001-1.41a.835.835 0 0 1 .614-.775zm.104.403c-.21.05-.327.27-.305.474.013.474-.025.951.019 1.422.09.396.735.378.8-.024.03-.498.012-.999.009-1.497.001-.258-.282-.45-.524-.375zM13.714 1.566c.49-.139 1.032.27 1.035.779.006.47.004.939.001 1.409.006.432-.377.818-.807.825-.449.022-.869-.375-.855-.828-.002-.468-.004-.935.001-1.402 0-.364.277-.695.627-.783zm.103.404a.414.414 0 0 0-.314.426c.006.483-.018.967.012 1.449.065.402.71.42.8.024.044-.488.009-.982.018-1.473a.417.417 0 0 0-.516-.426zM11.128 5.628c.121.006.241.021.358.052a.736.736 0 0 1 .739.155c.312-.334.93-.217 1.063.23.077.383.018.78.035 1.168h-.313c-.013-.358.027-.72-.019-1.075-.075-.273-.513-.273-.589 0-.046.356-.007.717-.02 1.075h-.313c-.014-.358.027-.72-.021-1.075-.078-.27-.513-.274-.588 0-.046.356-.006.717-.019 1.075h-.313c-.001-.535-.002-1.07 0-1.605z"/>
    <path fill="#154889" d="M7.429 1.049c-.018-.355.315-.667.666-.639 2.787.001 5.572-.002 8.358.001.336-.015.595.315.576.636v7.725c-3.2 1.845-6.399 3.693-9.6 5.537-.003-4.421-.002-8.841 0-13.26zm2.277.814v.538c.144-.107.289-.212.435-.317.002.832 0 1.664.001 2.496.145-.001.29-.002.435 0V1.541c-.345-.079-.626.104-.87.322zm1.909-.294a.835.835 0 0 0-.614.775c-.006.47-.003.939-.001 1.41-.012.447.4.84.843.825.436 0 .827-.39.82-.828 0-.484.01-.969-.005-1.454-.029-.495-.568-.87-1.043-.728zm2.099-.003a.837.837 0 0 0-.627.783c-.005.468-.003.935-.001 1.402-.014.453.407.851.855.828.431-.007.813-.393.807-.825.003-.47.006-.939-.001-1.409-.002-.509-.544-.918-1.035-.779zm-2.586 4.062c-.002.535-.001 1.07 0 1.605h.313c.013-.358-.027-.72.019-1.075.075-.273.51-.27.588 0 .048.355.007.717.021 1.075h.313c.012-.358-.027-.72.02-1.075.075-.273.513-.273.589 0 .045.355.006.717.019 1.075h.313c-.018-.389.042-.785-.035-1.168-.133-.447-.751-.564-1.063-.23a.735.735 0 0 0-.739-.155 1.798 1.798 0 0 0-.358-.052z"/>
    <path fill="#154889" d="M11.719 1.972c.243-.075.525.117.524.375.003.498.02 1-.009 1.497-.065.402-.71.42-.8.024-.045-.471-.006-.948-.019-1.422-.021-.205.096-.425.305-.474zM13.817 1.97a.417.417 0 0 1 .516.426c-.009.49.026.984-.018 1.473-.09.396-.735.378-.8-.024-.031-.482-.007-.966-.012-1.449a.416.416 0 0 1 .314-.426zM7.428 18.742l9.602-5.539v9.75c.021.323-.236.656-.575.642-2.786.005-5.572.001-8.358.002-.355.027-.687-.288-.667-.645-.002-1.403 0-2.806 0-4.209z"/>
</svg>
