<svg xmlns="http://www.w3.org/2000/svg" width="24" height="24">
    <path fill="#035ca1" d="M0 0h14.995c-.003 3.499.003 6.996-.003 10.495-1.897-.003-3.794.004-5.691-.004-.001-1.444.001-2.889.004-4.333.005-.231-.017-.621-.34-.587-1.449-.035-2.901-.017-4.35-.009-.262-.039-.44.218-.407.459-.013 3.941.003 7.883-.008 11.824-.035.268.074.644.415.598 1.45.009 2.903.024 4.352-.008.331.041.335-.364.338-.594-.001-1.444-.005-2.886-.003-4.329 1.896-.006 3.793-.001 5.689-.003.006 3.496 0 6.993.003 10.489H.21c.039-.18-.032-.252-.212-.216V-.002zM18.005 0h6.123v24h-6.123V0z"/>
    <path fill="#fff" d="M14.995 0h3.01v24h-3.01c-.003-3.496.004-6.993-.003-10.489-1.897.001-3.794-.004-5.689.003-.003 1.443.001 2.885.003 4.329-.003.23-.006.635-.338.594-1.449.032-2.902.017-4.352.008-.34.046-.449-.33-.415-.598.01-3.941-.005-7.883.008-11.824-.033-.241.145-.498.407-.459 1.449-.008 2.901-.026 4.35.009.323-.035.345.356.34.587-.003 1.444-.005 2.889-.004 4.333 1.897.008 3.794.001 5.691.004.005-3.499 0-6.996.003-10.495zM4.513 5.824c-.104 4.115-.074 8.249-.015 12.366 1.5.022 2.999.015 4.5.004.056-4.12.08-8.254-.012-12.372a289.963 289.963 0 0 0-4.473.003z"/>
    <path fill="#da251d" d="M4.513 5.824c1.49-.014 2.981-.01 4.473-.003.091 4.119.068 8.252.012 12.372-1.5.012-2.999.018-4.5-.004-.059-4.117-.089-8.251.015-12.366z"/>
    <path fill="#d0e0ed" d="M0 23.784c.18-.036.25.036.212.216H0v-.216z"/>
</svg>
