<svg xmlns="http://www.w3.org/2000/svg" width="24" height="24">
    <path fill="#fff" d="M.836.138c.271-.118.574-.104.863-.109 7 .01 14-.009 20.999.01.767-.016 1.312.741 1.269 1.462.002 6.999.002 13.999 0 20.998.052.764-.568 1.528-1.369 1.467-7.065.005-14.131.004-21.196 0-.799.059-1.416-.705-1.369-1.467C.03 15.5.031 8.5.033 1.5.023.949.3.35.836.138zm.389.395C.75.631.455 1.126.498 1.594.502 8.565.494 15.537.502 22.508c-.03.539.451 1.02.989.989 7.006.005 14.012.005 21.017 0a.961.961 0 0 0 .989-.989c.006-7.005.006-14.011 0-21.016.036-.586-.52-1.06-1.09-.993C15.347.523 8.282.455 1.225.533z"/>
    <path fill="#fff" d="M3.894 3.894h16.212v16.212H3.894V3.894zm4.878 1.181c-.002 1.295-.003 2.591 0 3.886.355-.165.709-.333 1.065-.497.001-.963-.001-1.926.001-2.889-.356-.166-.71-.336-1.066-.5zM5.453 8.721c-.311 3.789 1.59 7.68 4.816 9.706 1.23.729 2.853.627 4.018-.186a513.46 513.46 0 0 0-2.66-2.226c-.548.376-1.419.368-1.747-.29a409.52 409.52 0 0 1-2.548-5.459c-.284-.675.275-1.324.904-1.504a803.19 803.19 0 0 0-.001-3.471c-1.53.407-2.725 1.838-2.782 3.43zm5.522 1.253c-.533.294-.624 1.115-.16 1.513.332.332.836.228 1.248.354.309.124.348.62.048.777-.457.241-1.001.069-1.413-.187-.109.132-.217.266-.322.401.613.425 1.547.626 2.161.105.543-.476.279-1.507-.45-1.616-.388-.079-1.115-.013-1.063-.605.182-.611.978-.36 1.396-.164.092-.14.18-.283.268-.426-.517-.261-1.173-.45-1.713-.152zm3.362-.135c-.649.071-1.099.723-1.028 1.356-.02.666-.098 1.525.604 1.889.635.4 1.576.016 1.747-.715.085-.487.051-.987.036-1.478-.032-.659-.719-1.168-1.359-1.052zm2.422.11c-.554.268-.682 1.1-.226 1.517.322.342.825.258 1.239.364.344.102.391.648.061.799-.46.226-.99.05-1.402-.199l-.311.405c.56.382 1.33.568 1.959.248.538-.274.653-1.07.235-1.497-.327-.366-.86-.267-1.286-.4-.334-.118-.356-.647-.027-.788.384-.165.804.009 1.167.154l.26-.428c-.506-.251-1.131-.436-1.669-.175zm-4.941 5.525c.988.835 1.983 1.66 2.975 2.491l.303-1.137a1272.76 1272.76 0 0 1-2.21-1.85c-.355.167-.711.333-1.068.496z"/>
    <path fill="#fff" d="M14.43 10.336c.422-.057.818.33.77.755-.04.499.163 1.154-.293 1.511-.433.348-1.14-.043-1.082-.593.01-.578-.202-1.555.605-1.673z"/>
    <path fill="#154889" d="M1.225.533C8.282.455 15.347.523 22.407.499c.57-.067 1.126.407 1.09.993.006 7.005.006 14.011 0 21.016a.961.961 0 0 1-.989.989c-7.005.005-14.011.005-21.017 0-.538.031-1.019-.45-.989-.989-.008-6.971 0-13.943-.004-20.914C.455 1.126.75.631 1.225.533zm2.669 3.361v16.212h16.212V3.894H3.894z"/>
    <path d="M8.772 5.075c.356.164.71.334 1.066.5-.002.963 0 1.926-.001 2.889-.356.164-.71.332-1.065.497-.003-1.295-.002-2.591 0-3.886z"/>
    <path d="M5.453 8.721c.057-1.592 1.252-3.023 2.782-3.43.003 1.157.003 2.314.001 3.471-.629.18-1.188.829-.904 1.504a409.52 409.52 0 0 0 2.548 5.459c.328.658 1.199.666 1.747.29a513.46 513.46 0 0 1 2.66 2.226c-1.165.813-2.788.915-4.018.186-3.226-2.026-5.127-5.917-4.816-9.706z"/>
    <path d="M11.818 15.474c.357-.163.713-.329 1.068-.496.736.618 1.473 1.234 2.21 1.85l-.303 1.137c-.992-.831-1.987-1.656-2.975-2.491z"/>
    <path fill="#0c0b09" d="M10.975 9.974c.54-.298 1.196-.109 1.713.152-.088.143-.176.286-.268.426-.418-.196-1.214-.447-1.396.164-.052.592.675.526 1.063.605.729.109.993 1.14.45 1.616-.614.521-1.548.32-2.161-.105.105-.135.213-.269.322-.401.412.256.956.428 1.413.187.3-.157.261-.653-.048-.777-.412-.126-.916-.022-1.248-.354-.464-.398-.373-1.219.16-1.513zM14.337 9.839c.64-.116 1.327.393 1.359 1.052.015.491.049.991-.036 1.478-.171.731-1.112 1.115-1.747.715-.702-.364-.624-1.223-.604-1.889-.071-.633.379-1.285 1.028-1.356zm.093.497c-.807.118-.595 1.095-.605 1.673-.058.55.649.941 1.082.593.456-.357.253-1.012.293-1.511.048-.425-.348-.812-.77-.755zM16.759 9.949c.538-.261 1.163-.076 1.669.175l-.26.428c-.363-.145-.783-.319-1.167-.154-.329.141-.307.67.027.788.426.133.959.034 1.286.4.418.427.303 1.223-.235 1.497-.629.32-1.399.134-1.959-.248l.311-.405c.412.249.942.425 1.402.199.33-.151.283-.697-.061-.799-.414-.106-.917-.022-1.239-.364-.456-.417-.328-1.249.226-1.517z"/>
</svg>
