<svg xmlns="http://www.w3.org/2000/svg" width="24" height="24">
    <path fill="#0379c1" d="M0 0h21.633c-.691.631-1.323 1.324-1.988 1.981-.71-.202-1.439-.913-2.189-.477-1.385.62-2.789 1.195-4.173 1.818l-.008.31.686.02c.003.895.003 1.791-.001 2.686-.446.003-.891.003-1.337.004-.01.914-.009 1.828-.004 2.743l-6.447 6.52a20.729 20.729 0 0 0-.774-.85c.26-.305.682-.655.497-1.104-.153-.577-.989-.794-1.375-.323-.304.336-.096.789.019 1.157-1.78.2-2.341 2.178-2.639 3.659.255.103.509.213.779.273.065-.776.131-1.587.731-2.165.029.854-.045 1.723-.389 2.515-.978 1.063-2.043 2.044-3.022 3.106V.001zm4.808 7.476l-.38.311c-.188.952.258 1.831.24 2.769.71.384.954-.352.821-.945 1.116.071 2.238.073 3.354-.001.005.318.01.636.019.954.264.087.783.197.8-.222.028-.932.657-2.036-.052-2.852-.401-.555-.057-1.593-.808-1.878a26.33 26.33 0 0 0-3.3.006c-.668.315-.485 1.254-.693 1.857zM22.679 3.243c.317-.322.645-.632.938-.975v21.733H2.173c1.102-1.081 2.169-2.2 3.259-3.292.277.751.546 1.504.827 2.253.53-.225 1.061-.448 1.556-.742a30.816 30.816 0 0 0-1.102-.174 10.379 10.379 0 0 0-.494-2.132c3.024-3.066 6.051-6.133 9.078-9.198 2.242-.004 4.483.003 6.725-.004.001-2.269-.005-4.538.003-6.808l.245-.248.42-.027-.011-.387zm-9.642 13.103c-.932.328-.923 1.505-1.629 2.082-.303.336-.863.44-.979.922l.303.158c.72-.292 1.328-.789 1.804-1.398-.153.668-.431 1.294-.772 1.886l.318.209c-.202.734-.373 1.477-.596 2.206-.301.065-.604.129-.897.226.425.163.868.267 1.317.332.239-.903.883-1.669.86-2.644 1.264-.295 1.856 1.009 2.789 1.566-.054.319-.111.638-.167.957.469-.163.954-.069 1.42.049.151-.918.411-1.819.803-2.664.48.8 1.354 1.089 2.201 1.329.05.262.101.523.163.783.206-.409.285-.862.366-1.309-.491-.227-1.038-.371-1.462-.723-.49-.489-.615-1.211-.703-1.869.388.225.686.563.894.956-.061.222-.123.443-.181.666.207.071.417.131.633.172.198-1.289-.558-2.865-2.05-2.737.384-.485.318-1.478-.477-1.407-.797.116-.634 1.1-.144 1.495a13.627 13.627 0 0 0-1.057 1.569 63.382 63.382 0 0 1-.595-.266c.148-.435.301-.868.452-1.301-.543-.521-1.093-1.265-1.924-1.228.795-.286.566-1.709-.303-1.638-.771.082-.827 1.136-.386 1.619z"/>
    <path fill="#0379c1" d="M14.631 4.325c.671-.004 1.342-.003 2.013 0l.001.688-.986.996c-.343-.01-.687-.017-1.03-.023l.001-1.661zM5.778 6.043c.915-.087 1.85-.086 2.765 0 .597.079.633.785.581 1.257-1.316-.06-2.632-.036-3.95-.011.008-.463.006-1.164.604-1.246zM5.007 7.814c.458-.14.675.628.212.738-.483.184-.698-.623-.212-.738zM9.109 7.823c.483-.167.696.643.198.754-.465.103-.651-.629-.198-.754zM5.659 8.345a5.43 5.43 0 0 1 3.004.001c-.997.074-2.006.075-3.004-.001zM6.539 8.705a27.21 27.21 0 0 1 3.009.003c-.415.349-1.011.115-1.505.179-.493-.065-1.093.172-1.504-.181zM6.541 9.137a23.327 23.327 0 0 1 3.003 0 5.265 5.265 0 0 1-3.003 0zM14.155 17.309c.28.146.557.295.834.447-.12.421-.296.829-.359 1.264.235.437.821.456 1.247.599.484.147.71-.435.997-.705-.157 1.197-.384 2.432-.79 3.562.023-.241.06-.479.1-.716-.534-.572-.918-1.301-1.64-1.671l.24-.269a5.346 5.346 0 0 1-.628-2.51z"/>
    <path fill="#e51636" d="M21.633 0h1.984v2.267c-.294.343-.622.654-.938.975l-.409.414-.245.248c-.448.452-.895.908-1.342 1.361l-.72.726c-.539.534-1.057 1.086-1.594 1.62-.163.12-.305.263-.423.428-.882.894-1.769 1.782-2.649 2.677-3.027 3.065-6.054 6.131-9.078 9.198-.262.266-.525.529-.788.794-1.09 1.093-2.157 2.211-3.259 3.292H-.001v-2.128c.979-1.062 2.044-2.043 3.022-3.106 1.071-1.033 2.1-2.108 3.151-3.161l6.447-6.52c1.014-1.025 2.029-2.051 3.041-3.077l.986-.996c1.001-1.01 1.999-2.022 3-3.032.665-.657 1.297-1.351 1.988-1.981z"/>
    <path fill="#fff" d="M17.456 1.504c.751-.435 1.48.276 2.189.477-1.001 1.01-1.999 2.022-3 3.032l-.001-.688c-.671-.003-1.342-.004-2.013 0l-.001 1.661c.343.006.687.013 1.03.023l-3.041 3.077c-.005-.915-.006-1.829.004-2.743.446-.001.891-.001 1.337-.004.004-.895.004-1.791.001-2.686a78.533 78.533 0 0 0-.686-.02l.008-.31c1.384-.623 2.788-1.197 4.173-1.818zM22.27 3.656l.409-.414.011.387-.42.027zM20.683 5.265c.447-.453.894-.909 1.342-1.361-.008 2.27-.001 4.54-.003 6.808-2.242.006-4.483 0-6.725.004.88-.895 1.767-1.783 2.649-2.677.271.123.546-.158.423-.428.537-.534 1.056-1.086 1.594-1.62.244.003.488.004.733.005l-.013-.731zM4.808 7.476c.208-.604.026-1.542.693-1.857a25.955 25.955 0 0 1 3.3-.006c.751.285.407 1.323.808 1.878.71.816.08 1.92.052 2.852-.018.419-.536.309-.8.222-.009-.318-.014-.636-.019-.954a25.71 25.71 0 0 1-3.354.001c.133.592-.111 1.329-.821.945.018-.938-.428-1.817-.24-2.769l.38-.311zm.97-1.433c-.597.082-.596.783-.604 1.246 1.317-.024 2.634-.049 3.95.011.052-.472.017-1.178-.581-1.257a14.763 14.763 0 0 0-2.765 0zm-.771 1.771c-.486.115-.271.922.212.738.463-.11.246-.878-.212-.738zm4.102.009c-.453.125-.267.858.198.754.498-.111.285-.922-.198-.754zm-3.45.522c.998.077 2.007.075 3.004.001a5.42 5.42 0 0 0-3.004-.001zm.88.36c.411.354 1.011.116 1.504.181.494-.064 1.09.17 1.505-.179a27.21 27.21 0 0 0-3.009-.003zm.002.432a5.265 5.265 0 0 0 3.003 0 23.327 23.327 0 0 0-3.003 0zM4.52 13.328c.386-.471 1.222-.254 1.375.323.185.449-.236.799-.497 1.104.264.277.525.559.774.85-1.051 1.053-2.08 2.128-3.151 3.161.345-.791.419-1.661.389-2.515-.6.578-.666 1.389-.731 2.165-.269-.06-.523-.17-.779-.273.297-1.481.859-3.458 2.639-3.659-.115-.368-.323-.821-.019-1.157zM13.037 16.346c-.442-.483-.386-1.537.386-1.619.868-.071 1.098 1.352.303 1.638.831-.037 1.381.707 1.924 1.228-.151.433-.304.866-.452 1.301l.595.266c.322-.544.663-1.075 1.057-1.569-.49-.394-.652-1.379.144-1.495.795-.071.862.922.477 1.407 1.492-.128 2.248 1.448 2.05 2.737a4.587 4.587 0 0 1-.633-.172c.059-.223.12-.444.181-.666a2.365 2.365 0 0 0-.894-.956c.088.657.213 1.38.703 1.869.424.351.97.495 1.462.723-.082.447-.161.9-.366 1.309a14.895 14.895 0 0 1-.163-.783c-.846-.24-1.721-.529-2.201-1.329a10.295 10.295 0 0 0-.803 2.664c-.466-.117-.951-.212-1.42-.049.056-.319.114-.638.167-.957-.933-.558-1.526-1.861-2.789-1.566.023.975-.622 1.741-.86 2.644a6.113 6.113 0 0 1-1.317-.332c.294-.097.596-.161.897-.226.223-.729.394-1.472.596-2.206l-.318-.209c.341-.591.619-1.218.772-1.886-.476.609-1.084 1.106-1.804 1.398-.075-.04-.226-.119-.303-.158.116-.481.677-.586.979-.922.706-.577.697-1.754 1.629-2.082zm1.118.963a5.346 5.346 0 0 0 .628 2.51l-.24.269c.723.37 1.107 1.099 1.64 1.671-.04.237-.077.475-.1.716.406-1.13.633-2.364.79-3.562-.287.269-.513.851-.997.705-.426-.143-1.012-.162-1.247-.599.063-.435.239-.843.359-1.264a44.51 44.51 0 0 0-.834-.447zM5.432 20.708l.788-.794c.244.689.4 1.407.494 2.132.369.052.737.107 1.102.174-.495.294-1.026.517-1.556.742-.281-.749-.55-1.503-.827-2.253z"/>
    <path fill="#0a7bc1" d="M19.963 5.991l.72-.726.013.731-.733-.005z"/>
    <path fill="#4390c6" d="M17.946 8.039c.117-.165.259-.308.423-.428a.321.321 0 0 1-.423.428z"/>
</svg>
