<svg xmlns="http://www.w3.org/2000/svg" width="24" height="24">
    <path fill="#fff" d="M11.097 0h1.83c1.77.159 3.516.669 5.053 1.569a12.068 12.068 0 0 1 5.378 6.477c.349.984.543 2.015.642 3.053v1.826c-.16 1.77-.669 3.517-1.57 5.055-1.537 2.7-4.161 4.757-7.155 5.592-.763.224-1.552.34-2.34.428h-1.861c-1.725-.154-3.423-.647-4.935-1.499-2.632-1.467-4.68-3.953-5.593-6.828-.292-.886-.449-1.81-.547-2.735v-1.866C.092 10.18.24 9.29.512 8.433A12.07 12.07 0 0 1 5.64 1.795C7.275.759 9.17.162 11.095 0zM8.922 1a11.433 11.433 0 0 0-6.563 4.876C.626 8.565.122 12.003 1 15.078a11.446 11.446 0 0 0 2.117 4.104l-.041.04c.56.576 1.127 1.144 1.703 1.703l.04-.041a11.441 11.441 0 0 0 4.104 2.115c3.26.936 6.925.302 9.679-1.68 2.471-1.736 4.196-4.491 4.672-7.473.535-3.169-.359-6.538-2.39-9.028l.041-.04a75.959 75.959 0 0 0-1.703-1.703l-.04.041C16.368.81 12.419-.009 8.922 1z"/>
    <path fill="#fff" d="M8.888 7.156c.781-.639 1.867-.856 2.84-.606.948.251 1.819.936 2.135 1.886-.48.482-.96.964-1.444 1.443.003-.508-.079-1.073-.479-1.43-.62-.571-1.763-.495-2.242.222-.216.314-.279.705-.277 1.079.001 1.042-.003 2.083.002 3.125-.543.546-1.088 1.089-1.633 1.634-.002-1.43 0-2.86-.001-4.29.003-.391-.016-.785.041-1.174.086-.736.455-1.446 1.057-1.889zM4.536 6.597c.066-.064.161-.052.244-.054.481.005.962-.004 1.443.004.005 3.175-.004 6.35.004 9.524-.474.48-.953.956-1.431 1.433l-.204-.003c-.005-3.069 0-6.139-.003-9.209-.518.373-1.03.755-1.548 1.128-.002-.578-.002-1.155 0-1.733.495-.369.998-.725 1.495-1.091zM17.446 8.272c.548-.586 1.132-1.139 1.695-1.711.6.18 1.154.522 1.57.992.48.549.674 1.293.677 2.01.002 1.609 0 3.218.001 4.828.002.535-.085 1.08-.328 1.561-.324.654-.937 1.125-1.601 1.4-1.282.523-2.868.111-3.723-.979-.468-.597-.613-1.38-.592-2.123-.001-1.229.004-2.459-.003-3.688.618-.614 1.22-1.245 1.855-1.84a2.168 2.168 0 0 0-.224.938c-.002 1.575-.002 3.15 0 4.726-.005.543.225 1.128.727 1.391.606.31 1.45.232 1.904-.308.277-.321.359-.759.36-1.172V9.749c.001-.424-.084-.875-.374-1.201-.472-.55-1.328-.593-1.944-.277zM12.414 13.288c.54-.54 1.077-1.082 1.62-1.618.009.907.002 1.813.004 2.72.002.571-.097 1.155-.378 1.658-.306.557-.827.966-1.393 1.237-1.1.513-2.476.335-3.412-.439l1.152-1.152c.412.278.95.326 1.42.188.473-.14.83-.562.927-1.04.103-.512.044-1.037.059-1.555z"/>
    <path fill="#00f" d="M8.922 1c3.497-1.009 7.446-.19 10.26 2.116-1.77 1.776-3.545 3.548-5.318 5.32-.316-.95-1.187-1.635-2.135-1.886-.973-.25-2.059-.033-2.84.606-.601.443-.971 1.153-1.057 1.889-.057.389-.038.782-.041 1.174 0 1.43-.001 2.859.001 4.29-.521.521-1.041 1.044-1.565 1.562-.008-3.174 0-6.349-.004-9.524-.481-.008-.962.001-1.443-.004-.083.002-.179-.01-.244.054-.497.366-1.001.721-1.495 1.091-.002.578-.002 1.155 0 1.733.518-.373 1.03-.755 1.548-1.128.003 3.069-.002 6.139.003 9.209l.204.003c-.56.559-1.118 1.121-1.68 1.678a11.438 11.438 0 0 1-2.117-4.104C.121 12.004.625 8.566 2.358 5.877c1.49-2.358 3.873-4.136 6.563-4.876zM19.141 6.561c.581-.581 1.161-1.163 1.743-1.742 2.031 2.49 2.925 5.858 2.39 9.028-.476 2.983-2.201 5.737-4.672 7.473-2.754 1.982-6.419 2.616-9.679 1.68a11.441 11.441 0 0 1-4.104-2.115c1.344-1.348 2.691-2.692 4.037-4.038a3.283 3.283 0 0 0 3.412.439c.565-.27 1.087-.68 1.393-1.237.281-.503.381-1.087.378-1.658-.002-.907.006-1.813-.004-2.72.366-.373.736-.741 1.107-1.108.007 1.229.001 2.459.003 3.688-.02.742.125 1.525.592 2.122.855 1.09 2.441 1.502 3.723.979.664-.275 1.276-.746 1.601-1.4.243-.481.33-1.027.328-1.561 0-1.609.001-3.218-.001-4.828-.003-.717-.197-1.461-.677-2.01a3.399 3.399 0 0 0-1.57-.992z"/>
    <path fill="#00f" d="M9.699 8.67c.48-.717 1.623-.794 2.242-.222.4.357.482.922.479 1.43-.997 1.001-1.996 1.999-2.995 2.996-.005-1.042-.001-2.084-.002-3.125-.003-.374.06-.765.277-1.079zM17.446 8.272c.617-.317 1.472-.274 1.944.277.29.326.375.777.374 1.201v4.548c-.001.413-.083.851-.36 1.172-.453.54-1.297.618-1.904.308-.501-.263-.732-.848-.727-1.391-.003-1.575-.002-3.15 0-4.726a2.154 2.154 0 0 1 .224-.938c.141-.159.29-.309.449-.45zM10.008 15.694c.802-.803 1.604-1.605 2.407-2.406-.015.518.044 1.043-.059 1.555-.097.478-.455.9-.927 1.04-.471.137-1.008.09-1.42-.188z"/>
    <path fill="red" d="M19.182 3.116l.04-.041a78.129 78.129 0 0 1 1.703 1.703l-.041.04c-.582.579-1.163 1.161-1.743 1.742-.563.572-1.147 1.125-1.695 1.711a5.296 5.296 0 0 0-.449.45c-.635.596-1.237 1.227-1.855 1.84-.371.367-.742.735-1.107 1.108-.544.535-1.081 1.078-1.62 1.618-.803.801-1.605 1.604-2.407 2.406-.385.383-.768.767-1.152 1.152-1.346 1.346-2.693 2.69-4.037 4.038l-.04.041a82.863 82.863 0 0 1-1.703-1.703l.041-.04c.563-.557 1.12-1.118 1.68-1.678.477-.478.956-.953 1.431-1.433.524-.518 1.043-1.041 1.565-1.562a628.93 628.93 0 0 0 1.633-1.634c.999-.998 1.999-1.995 2.995-2.996.483-.479.963-.961 1.444-1.443 1.774-1.772 3.548-3.544 5.318-5.32z"/>
</svg>
