<svg xmlns="http://www.w3.org/2000/svg" width="24" height="24">
    <path fill="#b1bfe7" d="M2.375 0h19.62c-.344.058-.689.122-1.038.139C14.683.143 8.407.101 2.133.207c.061-.051.182-.155.241-.207z"/>
    <path fill="#4052a0" d="M21.995 0h.074c.19.288.403.575.733.713V22.56c-.151.498-.099 1.102-.574 1.44H1.871c.068-.253-.22-.395-.371-.541V.856c.202-.226.412-.443.633-.649C8.407.101 14.683.143 20.957.139c.349-.017.694-.081 1.038-.139zM2.832.655c-.616.19-1.022.838-.977 1.474-.001 6.723-.014 13.444-.018 20.167-.047.805.707 1.539 1.508 1.495 5.824-.024 11.649-.037 17.473-.028.893.084 1.676-.726 1.619-1.608.003-6.721.034-13.446.023-20.169.041-.744-.591-1.466-1.352-1.451C15.425.517 9.74.529 4.057.535c-.41.003-.825.014-1.224.119z"/>
    <path fill="#4052a0" d="M2.402 1.985c-.026-.572.541-.998 1.084-.949 5.871-.021 11.744-.016 17.615-.009 1.024.045.936 1.294.878 2.026-2.079.014-4.157-.007-6.234.023-.003-.214.021-.439-.057-.646a.854.854 0 0 0-.464.08c-.001 2.124.108 4.262-.054 6.382-.187-2.211-.023-4.435-.133-6.65.778-.131 1.167.76 1.944.599 1.606-.07 3.218.085 4.817-.116-.064-.422-.036-.903-.315-1.253-.305-.233-.73-.179-1.092-.21-5.59.04-11.181-.058-16.769.026-.67-.084-1.091.493-1 1.12.038 5.573-.065 11.146-.072 16.718.902.01 1.808-.034 2.705.075-.932.297-1.936.095-2.897.107.04-5.773.026-11.55.045-17.323z"/>
    <path fill="#fbfdfe" d="M2.832.655C3.231.55 3.646.539 4.056.536 9.739.53 15.424.518 21.107.536c.761-.014 1.393.707 1.352 1.451.011 6.723-.02 13.447-.023 20.169.057.882-.726 1.691-1.619 1.608-5.824-.009-11.649.004-17.473.028-.801.044-1.555-.69-1.508-1.495.004-6.723.017-13.444.018-20.167-.045-.636.361-1.284.977-1.474zm-.43 1.33c-.02 5.773-.006 11.55-.045 17.323.961-.011 1.965.19 2.897-.107-.045-.797-.026-1.595-.021-2.393 1.005-.018 2.011.006 3.015-.031-.004-.861-.011-1.723.003-2.583 1.032-.017 2.065-.037 3.099-.021.001-.871.003-1.741.011-2.61.994-.004 1.988-.02 2.981-.02.011-.892.003-1.784.01-2.676.273.007.545.016.818.026.162-2.12.053-4.258.054-6.382a.855.855 0 0 1 .464-.08c.078.207.054.432.057.646 2.078-.03 4.155-.009 6.234-.023.058-.733.146-1.981-.878-2.026-5.871-.007-11.744-.013-17.615.009-.542-.05-1.109.376-1.084.949zm13.276 1.469c-.018 1.804-.009 3.609-.007 5.414.258.003.518.004.778.006.003-1.812.011-3.624-.004-5.436l-.767.017zm1.129-.014c-.023 1.805-.003 3.611-.017 5.416l.696.026c.041-1.815.037-3.63.017-5.445l-.696.003zm1.075-.002c.018 1.823-.028 3.648.017 5.473.24-.041.494-.033.723-.129.06-1.778.009-3.56.028-5.341l-.768-.003zm1.105.003c-.021 1.808.001 3.616-.013 5.422.236.003.47.006.704.007.009-1.806.009-3.614.009-5.422-.234-.001-.467-.004-.7-.007zm1.044.027c.016 1.801-.003 3.601.003 5.402l.831-.009c-.013-1.814.014-3.626-.004-5.439-.277.014-.554.028-.829.045zm1.132-.075c.018 1.826-.016 3.653.016 5.479l.807-.021c-.014-1.723.021-3.445-.01-5.166.021-.45-.534-.26-.812-.291zm-6.365 9.046c-2.237 1.994-4.551 3.9-6.767 5.918.743-.061 1.191-.711 1.727-1.145 1.716-1.505 3.448-2.992 5.156-4.507.277-.214.537-.538.92-.523 2.032-.037 4.066.013 6.099-.031l-.009-.307c-2.027.041-4.054-.01-6.082.034-.427-.017-.741.308-1.045.561zm.939.253c-2.491 1.876-4.614 4.222-7.176 6.01-1.748 1.493-3.457 3.032-5.208 4.522 5.773.077 11.551-.016 17.325.011.64.104 1.331-.383 1.248-1.074.101-3.168.026-6.339.051-9.508-2.078-.028-4.172-.097-6.241.038zM4.31 21.413c-.592.547-1.333.963-1.748 1.676a2.44 2.44 0 0 0 .817-.479c1.605-1.397 3.182-2.826 4.81-4.198a61.9 61.9 0 0 0-.422-.071C6.658 19.41 5.448 20.37 4.31 21.413z"/>
    <path fill="#2d47b8" d="M2.62 2.409c-.091-.628.329-1.204 1-1.12 5.588-.084 11.179.014 16.769-.026.362.031.787-.023 1.092.21.28.349.251.831.315 1.253-1.599.202-3.211.047-4.817.116-.777.16-1.166-.73-1.944-.599.111 2.215-.054 4.439.134 6.65-.273-.01-.545-.018-.818-.026-.007.892.001 1.784-.01 2.676-.993 0-1.987.016-2.981.02-.009.869-.01 1.74-.011 2.61-1.034-.016-2.066.004-3.099.021-.014.861-.007 1.723-.003 2.583-1.004.037-2.009.013-3.015.031-.004.798-.024 1.596.021 2.393-.898-.109-1.804-.065-2.705-.075.007-5.571.111-11.145.072-16.718zm4.448.359c-1.191.026-1.098 2.088.111 1.957 1.262.037 1.136-2.116-.111-1.957zm-.977 3.635c-.04 1.038.007 2.078-.048 3.116-.057.561.415 1 .375 1.556-.001 1.468-.023 2.937-.009 4.404-.053.341.27.516.481.713.224-.193.575-.356.521-.711.011-1.507-.026-3.015.016-4.522.568.416 1.126.845 1.674 1.287.04.47-.118 1.011.151 1.429.267.324.696-.001.702-.342.033-.528.125-1.091-.028-1.603-.481-.577-1.132-.978-1.679-1.488-.001-.548-.003-1.095.013-1.642.531.178 1.304.846 1.637.053-.506-.418-1.067-.761-1.625-1.103-.037-.669.197-1.619-.555-1.981-.65-.429-1.592.064-1.626.836z"/>
    <path fill="#fafdfa" d="M7.068 2.768c1.247-.159 1.373 1.994.111 1.957-1.209.131-1.302-1.931-.111-1.957z"/>
    <path fill="#344db3" d="M15.678 3.454l.767-.017c.016 1.812.007 3.624.004 5.436-.26-.001-.52-.003-.778-.006-.001-1.805-.011-3.61.007-5.413z"/>
    <path fill="#334db7" d="M16.807 3.44l.696-.003c.02 1.815.024 3.63-.017 5.445l-.696-.026c.014-1.805-.006-3.611.017-5.416z"/>
    <path fill="#364eaa" d="M17.882 3.438l.768.003c-.02 1.781.031 3.563-.028 5.341-.229.097-.483.088-.723.129-.045-1.825.001-3.65-.017-5.473z"/>
    <path fill="#364cb1" d="M18.987 3.441c.233.003.466.006.7.007 0 1.808 0 3.616-.009 5.422-.234-.001-.469-.004-.704-.007.014-1.806-.009-3.614.013-5.422z"/>
    <path fill="#374cb4" d="M20.031 3.468c.276-.017.552-.031.829-.045.018 1.813-.009 3.626.004 5.439l-.831.009c-.006-1.801.013-3.601-.003-5.402z"/>
    <path fill="#384fb5" d="M21.163 3.393c.278.031.834-.159.812.291.031 1.721-.004 3.444.01 5.166l-.807.021c-.031-1.826.003-3.653-.016-5.479z"/>
    <path fill="#fbfcfb" d="M6.091 6.403c.034-.773.976-1.265 1.626-.836.753.362.518 1.312.555 1.981.558.342 1.119.686 1.625 1.103-.334.794-1.106.125-1.637-.053-.016.547-.014 1.094-.013 1.642.547.51 1.197.912 1.679 1.488.153.513.061 1.075.028 1.603-.006.341-.435.666-.702.342-.268-.418-.111-.959-.151-1.429a45.314 45.314 0 0 0-1.674-1.287c-.041 1.507-.004 3.015-.016 4.522.054.355-.297.518-.521.711-.212-.197-.534-.372-.481-.713-.014-1.467.007-2.935.009-4.404.04-.557-.432-.996-.375-1.556.055-1.038.009-2.078.048-3.116z"/>
    <path fill="#475586" d="M14.798 12.439c.304-.253.618-.578 1.045-.561 2.028-.044 4.056.007 6.082-.034l.009.307c-2.034.044-4.067-.006-6.099.031-.383-.016-.643.308-.92.523-1.708 1.515-3.441 3.002-5.156 4.507-.535.433-.984 1.084-1.727 1.145 2.215-2.018 4.53-3.924 6.767-5.918zM4.31 21.413c1.138-1.042 2.347-2.002 3.457-3.072l.422.071c-1.627 1.372-3.205 2.8-4.81 4.198-.234.219-.52.366-.817.479.415-.713 1.156-1.129 1.748-1.676z"/>
    <path fill="#2a45b4" d="M15.737 12.692c2.069-.135 4.164-.067 6.241-.038-.026 3.168.05 6.339-.051 9.508.082.69-.608 1.177-1.248 1.074-5.774-.027-11.553.065-17.325-.011 1.751-1.49 3.459-3.029 5.208-4.522 2.562-1.788 4.685-4.134 7.176-6.01z"/>
    <path fill="#0d0d10" opacity=".06" d="M1.5 23.459c.151.146.439.288.371.541H1.5v-.541z"/>
</svg>
