<svg xmlns="http://www.w3.org/2000/svg" width="24" height="24">
    <path fill="#231f20" d="M.844 0h22.51c.313.17.561.429.779.705V23.36c-.141.249-.329.47-.56.64H23c.599-.148 1.084-.693 1.067-1.326 0-6.871-.001-13.742.001-20.613.001-.448.045-.933-.201-1.332-.231-.346-.634-.614-1.06-.598C15.669.136 8.531.133 1.394.132.786.123.288.688.203 1.257.199 8.418.204 15.58.201 22.741.2 23.353.686 23.866 1.267 24H.695c-.316-.229-.539-.562-.692-.917V1.05C.165.617.481.272.847.001z"/>
    <path fill="#fff" d="M.201 1.257C.286.689.785.123 1.392.132 8.53.133 15.668.136 22.805.131c.427-.016.829.253 1.06.598.247.399.203.884.201 1.332l-.001 20.613c.017.633-.468 1.177-1.067 1.326H1.263c-.58-.134-1.066-.648-1.066-1.259C.2 15.58.195 8.418.199 1.257zm.951-.701a.76.76 0 0 0-.554.703v21.615c.001.384.357.707.727.728 7.183-.002 14.365.001 21.547-.001.426.013.769-.39.795-.793 0-7.16.001-14.32-.001-21.48-.005-.394-.308-.798-.727-.795C15.757.532 8.575.536 1.393.531a.856.856 0 0 0-.242.026z"/>
    <path fill="#fff" d="M10.659 4.545c.504-.121 1.13.009 1.356.527.333.596-.026 1.45-.702 1.59-.739.255-1.552-.533-1.353-1.28a1.05 1.05 0 0 1 .699-.837zM11.116 7.128c.283-.379.78-.506 1.226-.386 1.224.534 2.39 1.192 3.613 1.729-.032 1.239.168 2.464.132 3.704-.304-.076-.622-.071-.926-.15-.053-.975-.238-1.937-.347-2.907a2.315 2.315 0 0 0-.737-.079c.203.683.54 1.34.565 2.063.098.461-.088.923-.072 1.385.609 2.123 1.346 4.212 1.929 6.342-.348.257-.681.535-1.017.806l-.101-.103c-.759-1.797-1.538-3.587-2.306-5.381-.269.365-.599.681-.891 1.029-.368 1.421-.808 2.824-1.174 4.246-.465-.109-.921-.252-1.385-.368.329-1.374.65-2.75.98-4.123.04-.212.084-.426.184-.619.401-.798.8-1.596 1.199-2.394.11-.164-.016-.338-.086-.488-.213-.406-.404-.824-.626-1.225-.231.307-.377.68-.642.959-.798.358-1.627.649-2.422 1.014-.149-.229-.41-.437-.431-.716.733-.61 1.55-1.121 2.312-1.699.152-.929.429-1.89 1.023-2.638z"/>
    <path fill="#036f51" d="M1.152.556A.856.856 0 0 1 1.394.53C8.576.535 15.758.531 22.94.532c.418-.003.721.401.727.795l.001 21.48c-.026.403-.369.806-.795.793-7.182.002-14.365-.001-21.547.001-.37-.021-.726-.344-.727-.728V1.258a.76.76 0 0 1 .554-.703zm9.507 3.989a1.046 1.046 0 0 0-.699.837c-.199.747.614 1.536 1.353 1.28.676-.14 1.035-.995.702-1.59-.225-.519-.852-.648-1.356-.527zm.457 2.583c-.594.748-.872 1.709-1.023 2.638-.761.578-1.579 1.09-2.312 1.699.021.279.282.487.431.716.795-.365 1.624-.656 2.422-1.014.265-.279.411-.652.642-.959.223.401.413.819.626 1.225.07.15.197.324.086.488-.399.798-.798 1.596-1.199 2.394-.1.193-.144.407-.184.619-.33 1.374-.651 2.75-.98 4.123.463.116.919.259 1.385.368.366-1.421.806-2.824 1.174-4.246.292-.348.622-.664.891-1.029.767 1.794 1.547 3.584 2.306 5.381l.101.103c.336-.272.669-.55 1.017-.806-.583-2.13-1.32-4.219-1.929-6.342-.016-.462.171-.923.072-1.385-.025-.723-.362-1.38-.565-2.063.249-.009.497.009.737.079.109.969.295 1.932.347 2.907.304.079.622.074.926.15.036-1.239-.164-2.464-.132-3.704-1.223-.537-2.389-1.195-3.613-1.729-.446-.12-.943.007-1.226.386z"/>
</svg>
