<svg xmlns="http://www.w3.org/2000/svg" width="24" height="24">
    <path fill="#fff" d="M11.108 0h1.8c3.308.248 6.476 1.927 8.52 4.542 1.494 1.865 2.383 4.189 2.571 6.568v1.795c-.154 1.777-.668 3.531-1.57 5.075-1.537 2.7-4.161 4.757-7.155 5.592-.768.225-1.562.344-2.356.428h-1.825c-1.709-.147-3.391-.631-4.892-1.465-2.618-1.439-4.668-3.884-5.608-6.722C.274 14.878.097 13.901 0 12.92v-1.831c.192-2.361 1.072-4.667 2.55-6.522C4.598 1.934 7.782.242 11.108 0zm.258.596c-1.987.102-3.94.747-5.604 1.836-2.626 1.697-4.492 4.517-5.017 7.6-.562 3.14.273 6.498 2.255 8.999a11.447 11.447 0 0 0 7.152 4.243 11.43 11.43 0 0 0 5.499-.45c2.805-.935 5.202-3.014 6.533-5.654 1.557-3.018 1.649-6.739.244-9.832a11.467 11.467 0 0 0-5.702-5.739A11.369 11.369 0 0 0 11.365.595z"/>
    <path fill="#fff" d="M7.474 9.39c.082-1.589 1.541-3.045 3.165-2.938a3.06 3.06 0 0 1 2.598 1.452c.825 1.198.677 3.13-.625 3.936 1.491.932 1.618 3.18.589 4.5-.966 1.253-2.885 1.616-4.245.812-.893-.482-1.418-1.445-1.548-2.429.54-.004 1.081-.002 1.622-.001.164.408.399.821.786 1.054.678.354 1.593.186 2.075-.418.403-.506.437-1.235.217-1.825-.215-.523-.742-.888-1.299-.945-.301-.029-.604 0-.905-.02-.003-.476-.002-.953 0-1.429.499-.008 1.037.042 1.487-.219.495-.269.774-.846.724-1.401-.016-.82-.808-1.506-1.619-1.442-.709.028-1.312.615-1.402 1.313h-1.62zM17.737 6.489c1.441-.255 3.077.595 3.502 2.037.189.592.146 1.221.15 1.833 0 1.375.002 2.75-.001 4.125-.004.737-.217 1.502-.728 2.051-.967 1.066-2.661 1.36-3.922.661-.661-.351-1.22-.931-1.432-1.661-.202-.611-.157-1.261-.16-1.894V9.562c.005-.723.201-1.473.688-2.025a3.277 3.277 0 0 1 1.904-1.048zm.283 1.602c-.711.058-1.232.729-1.239 1.42-.019 1.564-.002 3.128-.008 4.692-.008.396.041.813.267 1.15.538.82 1.941.809 2.466-.02.21-.319.26-.71.26-1.084-.001-1.516.001-3.033-.001-4.549-.001-.441-.114-.911-.442-1.225-.334-.341-.841-.448-1.301-.385zM3.039 7.687c.521-.379 1.038-.764 1.565-1.133.538-.023 1.079-.003 1.618-.009.002 3.653.002 7.305 0 10.958H4.591c-.003-3.07 0-6.141-.001-9.211-.518.375-1.032.755-1.55 1.131V7.688z"/>
    <path fill="#00f" d="M11.366.596A11.369 11.369 0 0 1 16.727 1.6a11.47 11.47 0 0 1 5.702 5.739c1.404 3.092 1.313 6.813-.244 9.832-1.331 2.64-3.727 4.719-6.533 5.654-1.76.598-3.666.748-5.499.45a11.44 11.44 0 0 1-7.152-4.243C1.019 16.531.184 13.173.746 10.033c.524-3.083 2.391-5.903 5.017-7.6A11.357 11.357 0 0 1 11.367.597zM7.474 9.39c.54.002 1.08.001 1.62 0 .09-.698.692-1.285 1.402-1.313.81-.064 1.602.622 1.619 1.442.05.555-.229 1.132-.724 1.401-.45.262-.988.211-1.487.219-.002.476-.002.952 0 1.429.301.02.604-.009.905.02.557.057 1.084.422 1.299.945.22.59.186 1.319-.217 1.825-.482.604-1.397.772-2.075.418-.387-.233-.622-.646-.786-1.054-.54-.001-1.081-.003-1.622.001.13.984.654 1.947 1.548 2.429 1.36.804 3.278.441 4.245-.812 1.029-1.319.902-3.567-.589-4.5 1.303-.805 1.45-2.738.625-3.936a3.057 3.057 0 0 0-2.598-1.452C9.014 6.345 7.555 7.801 7.474 9.39zm10.263-2.901a3.282 3.282 0 0 0-1.904 1.048c-.487.552-.683 1.302-.688 2.025v4.079c.004.633-.041 1.283.16 1.894.212.729.771 1.31 1.432 1.661 1.262.698 2.956.405 3.922-.661.511-.549.724-1.314.728-2.051.003-1.375 0-2.75.001-4.125-.004-.613.039-1.241-.15-1.833-.424-1.442-2.06-2.292-3.502-2.037zM3.039 7.687v1.735c.518-.375 1.032-.756 1.55-1.131.001 3.07-.001 6.141.001 9.211.544.002 1.088.001 1.631 0 .003-3.653.002-7.306 0-10.958-.54.006-1.08-.014-1.618.009-.527.369-1.044.754-1.565 1.133z"/>
    <path fill="#00f" d="M18.02 8.091c.46-.063.968.044 1.301.385.328.315.442.784.443 1.225.003 1.516 0 3.032.001 4.549 0 .374-.05.765-.26 1.084-.525.828-1.928.84-2.466.02-.226-.337-.275-.754-.267-1.15.006-1.564-.011-3.128.008-4.692.007-.691.528-1.362 1.239-1.42z"/>
</svg>
