<svg xmlns="http://www.w3.org/2000/svg" width="24" height="24">
    <path fill="#03559b" d="M10.697 0h2.576c4.597.524 8.761 3.811 10.154 8.248.278.794.396 1.629.573 2.448v2.578c-.524 4.596-3.811 8.759-8.248 10.153-.794.278-1.629.396-2.448.573h-2.578C6.13 23.476 1.967 20.187.573 15.752.295 14.958.177 14.123 0 13.304v-2.578c.17-.831.293-1.675.573-2.478C1.964 3.82 6.114.542 10.697 0zm5.258 5.68c-1.648.285-2.95 1.838-2.954 3.509-.004 1.965-.016 3.933.007 5.899.058 1.957 1.913 3.615 3.866 3.449 1.862-.053 3.472-1.732 3.466-3.592-.003-2.012.033-4.024-.018-6.034-.143-2.09-2.323-3.703-4.367-3.231zm-12.171.058c-.007 2.267-.005 4.534 0 6.802.76.007 1.518.004 2.278.003.581-.917 2.32-1.015 2.537.23-.133 1.049.388 2.347-.447 3.194-.8.764-2.168.291-2.445-.747a83.073 83.073 0 0 0-2.176 0c.155 1.75 1.684 3.246 3.451 3.294 1.616.134 3.223-1.003 3.614-2.58.554-1.827.458-4.118-.983-5.521-.982-.935-2.475-.846-3.653-.374-.007-.712-.007-1.425 0-2.137 1.536-.01 3.073.004 4.609-.007.008-.719.007-1.439 0-2.159-2.261-.005-4.522-.007-6.783.001z"/>
    <path fill="#03559b" d="M16.22 7.847c.885-.314 1.924.399 1.942 1.339.025 1.875.008 3.751.008 5.626.047.85-.72 1.633-1.577 1.559-.802-.015-1.465-.765-1.424-1.558-.004-1.829-.005-3.66.001-5.49-.025-.656.418-1.289 1.049-1.476z"/>
    <path fill="#fff" d="M15.955 5.68c2.043-.472 4.224 1.141 4.367 3.231.051 2.011.015 4.022.018 6.034.007 1.86-1.603 3.538-3.466 3.592-1.953.166-3.808-1.492-3.866-3.449-.023-1.965-.011-3.933-.007-5.899.004-1.672 1.306-3.224 2.954-3.509zm.265 2.167c-.631.187-1.074.82-1.049 1.476-.007 1.829-.005 3.66-.001 5.49-.041.793.621 1.543 1.424 1.558.857.074 1.624-.709 1.577-1.559 0-1.875.016-3.751-.008-5.626-.018-.939-1.057-1.653-1.942-1.339zM3.784 5.738c2.261-.008 4.522-.007 6.783-.001.007.72.008 1.44 0 2.159-1.536.011-3.073-.003-4.609.007-.007.712-.007 1.425 0 2.137 1.178-.472 2.672-.561 3.653.374 1.441 1.403 1.537 3.695.983 5.521-.391 1.577-1.998 2.714-3.614 2.58-1.766-.048-3.296-1.544-3.451-3.294a83.073 83.073 0 0 1 2.176 0c.277 1.038 1.646 1.511 2.445.747.835-.848.314-2.145.447-3.194-.217-1.245-1.956-1.148-2.537-.23-.76.001-1.518.004-2.278-.003-.005-2.268-.007-4.535 0-6.802z"/>
</svg>
