<svg xmlns="http://www.w3.org/2000/svg" width="24" height="24">
    <path fill="#fff" d="M11.096 0h1.833c1.769.16 3.515.669 5.051 1.569a12.067 12.067 0 0 1 5.378 6.478c.349.983.543 2.014.642 3.051v1.829c-.16 1.758-.663 3.494-1.553 5.025-1.535 2.713-4.168 4.784-7.172 5.621-.762.224-1.55.339-2.338.428h-1.864c-1.725-.155-3.422-.647-4.933-1.499-2.633-1.467-4.681-3.953-5.593-6.829-.292-.886-.449-1.808-.547-2.734V11.07c.109-1.099.325-2.191.714-3.228a12.099 12.099 0 0 1 5.58-6.428C7.772.609 9.422.144 11.096.001zM5.398 2.681C2.896 4.438 1.159 7.24.708 10.264c-.497 3.137.401 6.457 2.408 8.918l-.041.04c.56.576 1.128 1.144 1.703 1.704l.041-.041A11.417 11.417 0 0 0 8.923 23c3.249.932 6.899.306 9.65-1.659 2.486-1.735 4.223-4.499 4.701-7.494.535-3.169-.359-6.537-2.389-9.028l.041-.04a80.426 80.426 0 0 0-1.703-1.703l-.04.041A11.468 11.468 0 0 0 14.936.96C11.71.085 8.114.729 5.399 2.682z"/>
    <path fill="#fff" d="M12.652 6.369c1.047-.876 2.583-1.088 3.836-.558-.54.538-1.074 1.081-1.619 1.614-.833.009-1.514.746-1.558 1.56-.634.64-1.273 1.275-1.91 1.913.015-.758-.037-1.519.038-2.275.087-.873.509-1.718 1.213-2.254zM7.574 5.749c.061-.043.125-.094.205-.086a355.68 355.68 0 0 1 1.789.001c.004 2.355-.001 4.711.002 7.066-.63.63-1.258 1.261-1.89 1.889-.008-2.31 0-4.621-.004-6.932-.604.438-1.203.884-1.808 1.32a674.69 674.69 0 0 1 0-2.012c.566-.419 1.14-.827 1.706-1.246zM16.77 8.932l1.517-1.517c.284.562.39 1.196.389 1.821 0 1.89.002 3.78-.001 5.671-.002.885-.264 1.808-.895 2.453-1.031 1.094-2.73 1.47-4.125.907-.79-.323-1.513-.893-1.887-1.674-.353-.706-.38-1.513-.371-2.287a336.07 336.07 0 0 1 1.889-1.887c.011.751.002 1.502.005 2.253-.007.499.091 1.032.431 1.418.545.63 1.553.712 2.255.312.569-.326.824-1.007.81-1.637-.01-1.944.022-3.889-.017-5.833zM7.676 18.026c.63-.63 1.258-1.261 1.89-1.888.007.77.003 1.54.002 2.31-.63.002-1.26.002-1.89 0l-.001-.422z"/>
    <path fill="#00f" d="M5.398 2.681C8.113.728 11.709.084 14.935.959a11.46 11.46 0 0 1 4.247 2.157c-.895.901-1.796 1.797-2.693 2.696-1.253-.531-2.789-.318-3.836.558-.704.536-1.125 1.381-1.213 2.254-.075.756-.022 1.516-.038 2.275L9.57 12.731c-.003-2.355.001-4.711-.002-7.066-.596-.002-1.193-.002-1.789-.001-.08-.008-.144.043-.205.086-.566.419-1.14.827-1.706 1.246a674.69 674.69 0 0 0 0 2.012c.605-.436 1.204-.882 1.808-1.32.003 2.31-.005 4.621.004 6.932a2181.134 2181.134 0 0 1-4.563 4.563C1.109 16.722.211 13.403.709 10.265c.45-3.025 2.188-5.827 4.69-7.583zM18.288 7.414c.865-.866 1.73-1.732 2.597-2.595 2.03 2.49 2.925 5.858 2.389 9.028-.478 2.995-2.215 5.759-4.701 7.494-2.751 1.965-6.401 2.591-9.65 1.659a11.457 11.457 0 0 1-4.104-2.115c.95-.955 1.904-1.905 2.857-2.858l.001.422c.63.002 1.26.002 1.89 0 .001-.77.005-1.54-.002-2.31.609-.613 1.22-1.224 1.833-1.832-.009.773.017 1.58.371 2.287.374.781 1.096 1.351 1.887 1.674 1.395.562 3.094.187 4.125-.907.631-.646.893-1.568.895-2.453.003-1.89.001-3.78.001-5.671.001-.624-.105-1.259-.389-1.821z"/>
    <path fill="#00f" d="M13.312 8.985c.044-.814.724-1.551 1.558-1.56-.515.525-1.036 1.042-1.558 1.56zM13.287 12.419c1.158-1.166 2.322-2.325 3.484-3.487.039 1.944.007 3.889.017 5.833.014.63-.241 1.311-.81 1.637-.703.399-1.71.318-2.255-.312-.339-.386-.437-.919-.431-1.418-.003-.751.006-1.502-.005-2.253z"/>
    <path fill="red" d="M19.182 3.116l.04-.041a80.426 80.426 0 0 1 1.703 1.703l-.041.04c-.867.863-1.732 1.73-2.597 2.595L16.77 8.93c-1.162 1.162-2.326 2.321-3.484 3.487a336.07 336.07 0 0 0-1.889 1.887 452.27 452.27 0 0 0-1.833 1.832c-.632.627-1.26 1.259-1.89 1.888-.952.953-1.906 1.903-2.857 2.858l-.041.041a88.261 88.261 0 0 1-1.703-1.704l.041-.04c1.523-1.519 3.044-3.04 4.563-4.563.632-.627 1.26-1.259 1.89-1.889l1.832-1.832c.637-.637 1.276-1.273 1.91-1.913.522-.518 1.043-1.035 1.558-1.56.545-.533 1.079-1.076 1.619-1.614.898-.899 1.798-1.795 2.693-2.696z"/>
</svg>
