<svg xmlns="http://www.w3.org/2000/svg" width="24" height="24">
    <path fill="#231f20" d="M1.62 3.273h21.223c.53.154 1.033.424 1.386.857v15.963a3.52 3.52 0 0 1-.645.634H.853C.421 20.37.15 19.864 0 19.332V4.883a2.142 2.142 0 0 1 1.62-1.61zm.132.388C.921 3.78.38 4.524.345 5.332c-.002 4.56-.002 9.121 0 13.681.01.836.75 1.626 1.599 1.602 6.895-.007 13.791.001 20.685-.004.787-.006 1.478-.697 1.484-1.484.002-4.679.001-9.356.001-14.033-.056-.893-.961-1.569-1.835-1.481-6.841.038-13.692-.057-20.527.047z"/>
    <path fill="#fff" d="M1.752 3.661c6.835-.105 13.687-.009 20.527-.047.874-.087 1.779.588 1.835 1.481 0 4.677.001 9.354-.001 14.033-.006.787-.697 1.478-1.484 1.484-6.895.004-13.791-.004-20.685.004-.849.024-1.589-.766-1.599-1.602-.002-4.56-.002-9.121 0-13.681.034-.807.577-1.551 1.407-1.671zm-.112.344c-.536.162-.983.625-.95 1.214C.684 9.816.694 14.412.686 19.01c-.056.664.597 1.317 1.261 1.261 6.935-.008 13.87-.002 20.803-.002.532.012 1.035-.49 1.022-1.022-.002-4.716 0-9.433-.001-14.151.02-.767-.801-1.215-1.489-1.138-6.879.038-13.769-.057-20.641.047z"/>
    <path fill="#fff" d="M12.809 7.016c2.098-.311 4.185-.704 6.286-1.012-.51 2.075-1.18 4.11-1.666 6.191-.123.127-.247.252-.371.377l-.498.009c-.408-.474-.529-1.103-.839-1.635-1.756 1.406-3.323 3.041-5.072 4.451.505.337 1.03.641 1.529.986v.667c-.753.403-1.643.326-2.456.525-1.417.195-2.815.556-4.243.635.471-1.985 1.099-3.933 1.599-5.911.044-.272.256-.456.431-.65h.377c.481.421.628 1.059.884 1.617l.252-.002c1.577-1.529 3.235-2.977 4.901-4.409-.494-.252-.951-.569-1.424-.857-.386-.294-.157-.958.313-.983z"/>
    <path fill="#006f51" d="M1.64 4.005c6.871-.105 13.761-.009 20.641-.047.689-.077 1.509.371 1.489 1.138.001 4.717-.001 9.435.001 14.151.012.532-.49 1.035-1.022 1.022-6.934 0-13.868-.006-20.803.002-.664.056-1.317-.597-1.261-1.261.009-4.598-.001-9.195.004-13.791-.033-.589.413-1.052.95-1.214zm11.169 3.011c-.471.025-.7.689-.313.983.473.288.93.605 1.424.857-1.666 1.432-3.323 2.88-4.901 4.409l-.252.002c-.256-.558-.403-1.196-.884-1.617h-.377c-.175.194-.387.377-.431.65-.5 1.979-1.128 3.926-1.599 5.911 1.428-.079 2.826-.44 4.243-.635.813-.199 1.703-.121 2.456-.525v-.667c-.498-.345-1.023-.65-1.529-.986 1.749-1.41 3.316-3.045 5.072-4.451.31.532.432 1.161.839 1.635l.498-.009.371-.377c.486-2.081 1.156-4.116 1.666-6.191-2.1.308-4.188.7-6.286 1.012z"/>
</svg>
