<svg xmlns="http://www.w3.org/2000/svg" width="24" height="24">
    <path fill="#fff" d="M11.113 0H12.9c3.311.245 6.482 1.925 8.528 4.541 1.495 1.867 2.385 4.193 2.572 6.575v1.78c-.246 3.324-1.936 6.505-4.567 8.553-1.856 1.477-4.16 2.357-6.521 2.551h-1.809c-1.872-.156-3.712-.728-5.318-1.706-2.494-1.506-4.414-3.94-5.27-6.727-.274-.861-.424-1.755-.514-2.653v-1.816c.19-2.364 1.07-4.673 2.55-6.531C4.6 1.934 7.786.24 11.114 0zm.253.596c-1.987.102-3.94.747-5.604 1.836C3.182 4.1 1.334 6.85.775 9.871c-.615 3.175.203 6.593 2.205 9.135a11.44 11.44 0 0 0 7.172 4.268 11.43 11.43 0 0 0 5.499-.45c2.806-.934 5.203-3.014 6.534-5.654 1.557-3.019 1.649-6.739.244-9.832a11.469 11.469 0 0 0-5.701-5.739A11.373 11.373 0 0 0 11.366.595z"/>
    <path fill="#fff" d="M16.658 6.489a3.263 3.263 0 0 1 3.077 1.198c.424.56.578 1.278.57 1.97-.001 1.609.001 3.218-.001 4.827-.003.747-.223 1.523-.748 2.073-.969 1.047-2.647 1.333-3.898.641-.661-.348-1.221-.927-1.434-1.655-.205-.613-.156-1.266-.161-1.902 0-1.375-.001-2.75.001-4.125.01-.72.218-1.464.711-2.005a3.287 3.287 0 0 1 1.883-1.021zm.284 1.602c-.71.056-1.234.723-1.244 1.413-.02 1.566-.002 3.133-.009 4.699-.008.397.042.815.269 1.152.54.819 1.946.806 2.468-.026.207-.318.257-.707.256-1.079-.001-1.516.001-3.033-.001-4.55.001-.451-.121-.932-.465-1.247-.333-.323-.825-.423-1.275-.363zM5.615 6.598c.065-.064.159-.054.243-.056.482.003.965 0 1.447.002.001 3.653.001 7.305 0 10.957-.544.002-1.088.001-1.632 0-.002-3.07.001-6.141-.001-9.211-.518.376-1.032.755-1.549 1.131V7.685c.496-.365.997-.722 1.493-1.087zM9.307 7.686c.525-.378 1.041-.769 1.574-1.135.536-.018 1.074-.003 1.611-.007.002 3.653.005 7.305-.001 10.958h-1.632c-.002-3.07 0-6.141-.001-9.211-.518.376-1.033.756-1.55 1.132V7.686z"/>
    <path fill="#00f" d="M11.366.596A11.375 11.375 0 0 1 16.728 1.6a11.469 11.469 0 0 1 5.701 5.739c1.405 3.092 1.313 6.813-.244 9.832-1.331 2.64-3.727 4.72-6.534 5.654a11.455 11.455 0 0 1-5.499.45 11.448 11.448 0 0 1-7.172-4.268C.978 16.466.159 13.047.775 9.872c.56-3.022 2.408-5.771 4.987-7.439A11.357 11.357 0 0 1 11.366.597zm5.292 5.893a3.285 3.285 0 0 0-1.882 1.021c-.493.541-.701 1.286-.711 2.005-.002 1.375 0 2.75-.001 4.125.005.636-.044 1.289.161 1.902.213.728.773 1.307 1.434 1.655 1.252.692 2.929.406 3.898-.641.525-.551.744-1.326.748-2.073.003-1.609 0-3.218.001-4.827.008-.692-.146-1.41-.57-1.97a3.263 3.263 0 0 0-3.077-1.198zm-11.043.109c-.496.365-.997.722-1.493 1.087v1.736c.518-.375 1.032-.755 1.549-1.131.002 3.071-.001 6.141.001 9.211h1.632c.001-3.652.001-7.305 0-10.957-.482-.003-.965.001-1.447-.002-.084.002-.178-.008-.243.056zm3.692 1.088v1.737c.517-.376 1.032-.756 1.55-1.132.001 3.071-.001 6.141.001 9.211h1.632c.006-3.653.004-7.305.001-10.958-.537.004-1.075-.011-1.611.007-.533.366-1.049.757-1.574 1.135z"/>
    <path fill="#00f" d="M16.942 8.091c.449-.06.942.04 1.275.363.344.315.466.796.465 1.247.002 1.517 0 3.033.001 4.55.001.372-.049.761-.256 1.079-.523.832-1.928.846-2.468.026-.227-.337-.276-.756-.269-1.152.007-1.567-.011-3.134.009-4.699.01-.69.533-1.357 1.244-1.413z"/>
</svg>
