<svg xmlns="http://www.w3.org/2000/svg" width="24" height="24">
    <path fill="#fff" d="M4.5 0h14.978v.626l-.059-.119c-.129-.283-.403-.488-.724-.455C14.196.049 9.696.055 5.197.05 4.934.026 4.705.156 4.5.302v-.303zM5.3 7.876c-.037-.339.246-.669.597-.632a892.69 892.69 0 0 1 5.175.001c.342-.025.598.309.568.632.001 2.481.008 4.964.01 7.446l-.415.01c-.003.39-.003.779.003 1.168.431.003.864.008 1.295-.008.001-.217.002-.434-.002-.65-.617-.522-.416-1.438-.413-2.15.548-.561.639-1.408.995-2.089 1.428.002 2.855-.003 4.282.003.382.684.553 1.507 1.117 2.072.063.667.074 1.387-.27 1.987l-.259.061c-.001.229.001.457.01.687.071.107.14.215.208.324-4.225.021-8.451.007-12.676.007.243-.438.149-.944.159-1.421-.129-.009-.257-.018-.385-.025.007-2.474.001-4.949.003-7.422zm8.048 4.024c-.2.499-.392 1.002-.585 1.504a39.201 39.201 0 0 1 5.198 0 132.34 132.34 0 0 0-.762-1.504 823.901 823.901 0 0 0-3.851 0zm-6.692 3.412c0 .397.004.794.01 1.189 1.207.002 2.413.003 3.62 0a59.11 59.11 0 0 0-.009-1.191 437.057 437.057 0 0 0-3.621.002zm6.679.479c-.004.242-.005.484-.003.726 1.288.004 2.574.003 3.862.002a88.33 88.33 0 0 0 0-.728 992.793 992.793 0 0 0-3.859 0zM19.412 23.523l.067-.104V24H4.501v-.333c.183.187.431.3.696.281 4.5-.003 8.999.003 13.499-.003.308.025.562-.173.717-.422z"/>
    <path fill="#0371b3" d="M4.5.303c.205-.146.434-.276.697-.252C9.696.055 14.196.05 18.695.053c.321-.033.596.172.724.455-.062 1.027-.014 2.057-.028 3.084.013 6.644-.027 13.289.02 19.932-.154.249-.408.447-.717.422-4.5.006-8.999-.001-13.499.003a.889.889 0 0 1-.696-.281V.304zm.8 7.573c-.002 2.474.004 4.948-.003 7.422.129.007.257.016.385.025-.01.477.084.983-.159 1.421 4.225 0 8.451.014 12.676-.007a9.91 9.91 0 0 0-.208-.324c-.01-.23-.011-.458-.011-.687l.259-.061c.344-.601.333-1.32.27-1.987-.564-.564-.735-1.387-1.117-2.072-1.428-.006-2.855-.001-4.282-.003-.356.681-.447 1.528-.995 2.089-.003.712-.203 1.628.413 2.15.003.216.003.433.002.65-.431.016-.864.011-1.295.008a64.941 64.941 0 0 1-.003-1.168l.415-.01c-.002-2.482-.009-4.965-.01-7.446.03-.323-.227-.658-.568-.632-1.725-.007-3.45-.003-5.175-.001-.351-.037-.634.293-.597.632z"/>
    <path fill="#0371b3" d="M6.656 15.312c1.207-.007 2.414-.004 3.621-.002.007.398.01.794.009 1.191-1.207.003-2.413.002-3.62 0-.005-.396-.01-.793-.01-1.189z"/>
    <path fill="#79b4d7" d="M19.419.507l.059.119v22.793l-.067.104c-.047-6.643-.007-13.288-.02-19.932.014-1.027-.034-2.058.028-3.084z"/>
    <path fill="#106fb6" d="M13.348 11.9c1.283-.003 2.567-.003 3.851 0 .258.499.511 1.001.762 1.504a39.201 39.201 0 0 0-5.198 0c.193-.502.385-1.005.585-1.504zM13.335 15.791c1.287-.003 2.573-.002 3.859 0v.728c-1.288.001-2.574.003-3.862-.002-.003-.242-.002-.484.003-.726z"/>
</svg>
