<svg xmlns="http://www.w3.org/2000/svg" width="24" height="24">
    <path fill="#fff" d="M0 0h.901C.4.24.069.734 0 1.282V0zM23.42 0h.779v.761C24.004.448 23.751.17 23.42 0z"/>
    <path fill="#fff" d="M.199 1.525C.198.853.686.169 1.392.135 8.552.13 15.713.136 22.874.132c.582-.001 1.122.484 1.191 1.058.004 7.205-.001 14.411.002 21.617.015.604-.528 1.048-1.066 1.193H1.264c-.31-.126-.641-.281-.817-.582-.275-.415-.253-.935-.248-1.412.002-6.826 0-13.653.001-20.48zM1.287.622c-.371.103-.616.459-.622.837C.662 8.486.666 15.513.664 22.54c-.02.464.288.987.794.995 7.116 0 14.232.001 21.348-.001.394.001.783-.326.796-.727l-.001-21.482a.756.756 0 0 0-.727-.727C15.758.597 8.643.601 1.527.596a.838.838 0 0 0-.24.026z"/>
    <path fill="#fff" d="M11.79 4.142c.29-.057.686-.065.842.241.252.338.153.921-.264 1.073-.292.134-.689.092-.883-.187-.253-.359-.146-.976.304-1.126z"/>
    <path fill="#fff" d="M12.616 5.396l.109-.015c.733.97.86 2.253.701 3.422.34.226.697.499 1.134.443.881-.074 1.806-.178 2.659.128.788.281 1.378 1.165 1.152 2.006-.183.709.067 1.435.406 2.056-.539.084-.944-.331-1.207-.745l-.095.13c.213.398.404.845.805 1.091.033.887.154 1.777.427 2.624.082.092.206.127.312.185.017.269-.023.537-.138.782-.241-.283-.661-.39-.777-.772a1.938 1.938 0 0 1-.348-1.108c.024-.34-.196-.626-.223-.958-.582-.49-1.104-1.053-1.701-1.523-.27.482-.323 1.04-.365 1.579-.419.624-.89 1.266-.99 2.033-.104.056-.21.109-.316.161l.003.237c-.293.211-.658.124-.982.054l-.18-.189c.334-.386.811-.674.978-1.178.138-.497.376-.963.457-1.477.126-.527.034-1.068-.014-1.597-.899.484-1.95.406-2.934.465.035.941.4 1.861 1.092 2.512.18.295.451.53.582.853-.23.229-.46.458-.731.639a1.63 1.63 0 0 1-.136-.782c-.286-.347-.622-.637-.943-.947-.469-.702-.958-1.397-1.295-2.177-.356.285-.652.672-.703 1.138-.529.631-.967 1.39-1.058 2.221l-.17-.001c-.164.162-.295.361-.303.598-.354-.001-.708.002-1.062-.003.108-.501.656-.715.818-1.194.295-.792.832-1.505.896-2.368.053-.443.199-.911.031-1.347-.094-.251-.144-.515-.223-.771-.14-.291-.403-.492-.624-.719-.461.277-.911.568-1.353.874a.733.733 0 0 1-.942-.033c-.325-.195-.897-.319-.777-.824.231-.82.645-1.584.931-2.389-.137-.206-.145-.452-.134-.691l.211.1.096-.072c.175.126.32.283.445.458 1.164.082 2.296.427 3.436.669.154-.1.285-.231.433-.338.118.122.238.243.361.36-.027.051-.055.101-.081.152l.267.07c.33-.146.65-.321.886-.602a16.854 16.854 0 0 1 0-.318c-.306.221-.628.422-.908.677a3.934 3.934 0 0 1-.497-.433c.472-.481 1.035-.862 1.59-1.24.074-.576.218-1.14.348-1.705.229-.007.461-.06.647-.202zm-5.988 5.102c-.287.311-.739.406-.975.769l-.007.162c.453.234.828-.195 1.189-.406.134-.118.367-.169.42-.352a1.035 1.035 0 0 0-.627-.174zm-1.085 1.108c.189.16.42.201.624.046-.208-.017-.416-.028-.624-.046zM0 22.858c.078.461.314.888.717 1.142H0v-1.142zM23.629 24c.235-.203.457-.432.57-.727V24h-.57z"/>
    <path fill="#231f20" d="M.901 0H23.42c.331.17.584.448.779.761v22.511c-.113.295-.336.525-.57.727h-.628c.538-.145 1.082-.589 1.066-1.193-.003-7.205.002-14.411-.002-21.617C23.997.615 23.457.13 22.874.131 15.713.134 8.552.128 1.392.134.686.169.197.852.199 1.524.198 8.351.2 15.178.198 22.004c-.005.477-.027.997.248 1.412.176.302.507.457.817.582H.717c-.403-.254-.639-.681-.717-1.142V1.28A1.64 1.64 0 0 1 .901-.002z"/>
    <path fill="#006f51" d="M1.287.622a.838.838 0 0 1 .24-.026c7.116.005 14.231.001 21.347.002a.756.756 0 0 1 .727.727c.001 7.161-.001 14.322.001 21.482-.013.401-.402.728-.796.727l-21.348.001c-.506-.008-.814-.531-.794-.995C.666 15.513.663 8.486.665 1.459c.005-.378.251-.734.622-.837zm10.503 3.52c-.45.15-.558.767-.304 1.126.193.279.591.321.883.187.417-.152.516-.735.264-1.073-.156-.306-.552-.297-.842-.241zm.826 1.254c-.185.142-.418.195-.647.202-.13.565-.274 1.13-.348 1.705-.554.378-1.118.759-1.59 1.24.157.154.315.307.497.433.28-.255.602-.456.908-.677v.318c-.235.281-.555.456-.886.602a8.049 8.049 0 0 0-.267-.07l.081-.152a13.618 13.618 0 0 1-.361-.36c-.149.106-.279.238-.433.338-1.14-.242-2.272-.587-3.436-.669a1.917 1.917 0 0 0-.445-.458l-.096.072-.211-.1c-.011.239-.003.485.134.691-.287.805-.701 1.569-.931 2.389-.12.505.452.63.777.824a.736.736 0 0 0 .942.033c.441-.306.892-.597 1.353-.874.221.227.483.428.624.719.078.256.128.52.223.771.168.436.023.903-.031 1.347-.064.863-.6 1.576-.896 2.368-.162.479-.709.693-.818 1.194.354.005.708.002 1.062.003.009-.237.139-.437.303-.598l.17.001c.091-.831.529-1.59 1.058-2.221.051-.466.346-.854.703-1.138.337.78.826 1.475 1.295 2.177.322.31.658.6.943.947-.015.269.023.537.136.782.271-.181.501-.41.731-.639-.132-.323-.403-.558-.582-.853-.691-.652-1.057-1.571-1.092-2.512.984-.059 2.035.019 2.934-.465.048.529.14 1.07.014 1.597-.081.513-.319.979-.457 1.477-.167.504-.644.792-.978 1.178l.18.189c.324.07.689.158.982-.054l-.003-.237c.106-.052.212-.105.316-.161.1-.767.571-1.409.99-2.033.042-.539.095-1.097.365-1.579.598.47 1.119 1.033 1.701 1.523.027.332.247.618.223.958.001.402.12.778.348 1.108.116.382.536.489.777.772.114-.245.154-.513.138-.782-.106-.058-.23-.094-.312-.185-.274-.847-.395-1.737-.427-2.624-.401-.246-.592-.693-.805-1.091l.095-.13c.263.414.669.829 1.207.745-.338-.621-.589-1.348-.406-2.056.226-.84-.364-1.725-1.152-2.006-.853-.306-1.778-.203-2.659-.128-.437.057-.794-.217-1.134-.443.16-1.169.033-2.452-.701-3.422l-.109.015z"/>
    <path fill="#006f51" d="M6.628 10.498a1.03 1.03 0 0 1 .627.174c-.053.183-.286.234-.42.352-.362.21-.736.64-1.189.406l.007-.162c.237-.364.689-.458.975-.769zM5.543 11.606c.208.018.416.029.624.046-.204.156-.435.114-.624-.046z"/>
</svg>
