<svg xmlns="http://www.w3.org/2000/svg" width="24" height="24">
    <path fill="#6e6c6d" d="M9.96 0h.283l-.095.044-.086.039a.683.683 0 0 0-.478.679l-.001 22.532c-.028.343.229.637.556.707h-.302c-.161-.09-.253-.256-.338-.413V.527c.061-.237.255-.409.46-.526z"/>
    <path fill="#444142" d="M10.243 0h3.806a3.01 3.01 0 0 1-.676.059c-1.075-.016-2.15.01-3.225-.016l.095-.044z"/>
    <path fill="#c5c4c5" d="M14.049 0h.05a.733.733 0 0 1 .474.49v.127l-.056-.082c-.149-.253-.396-.466-.707-.446-1.249-.008-2.499.008-3.748-.006l.086-.039c1.075.026 2.15-.001 3.225.016.227.005.454-.013.676-.059z"/>
    <path fill="#fff" d="M9.583.761a.683.683 0 0 1 .478-.679c1.25.014 2.499-.002 3.748.006.311-.021.559.193.707.446.002 7.531.001 15.063.001 22.594.002.112.008.226.022.338-.118.25-.315.469-.593.535h-3.807c-.328-.07-.584-.364-.556-.707 0-7.51-.001-15.021.001-22.532zm.13-.001v17.205h4.669L14.383.763a.518.518 0 0 0-.517-.559C12.665.199 11.463.203 10.262.202a.521.521 0 0 0-.549.557zm0 17.35c.002 1.747-.003 3.493.002 5.24-.01.29.263.529.548.508 1.201 0 2.402.002 3.603-.002a.51.51 0 0 0 .515-.51c.005-1.745.001-3.491.002-5.236h-4.67z"/>
    <path fill="#fff" d="M10.091 1.548l.251.002c.078.227.154.454.241.678.094-.221.167-.451.244-.679l.252-.002c.002.666 0 1.331.001 1.997h-.253c-.002-.388.003-.776-.003-1.164-.082.236-.152.476-.239.71-.085-.237-.159-.477-.241-.715-.005.389-.002.779-.003 1.169h-.253c.001-.666-.002-1.332.002-1.997zM11.517 1.549l.252.001v1.996h-.253c0-.665-.001-1.331.001-1.997zM12.202 1.549h.252v1.767c.17.001.34-.001.511.001l.001.229-.763.001V1.551zM13.24 1.55l.735-.001v.26h-.483v.51l.322-.001.001.267-.323.001v.702c.171.001.342-.001.513.001l.001.256-.766.001V1.55zM12.084 4.657c.118-.191.372-.088.557-.113.001.607-.001 1.213.001 1.82l.285.002.001.431-.285.001c-.001.247-.001.494.001.741-.158.004-.316.001-.473.004v-.746l-1.49-.001c.011-.135-.004-.287.092-.397.439-.58.875-1.162 1.313-1.743zm-.766 1.707c.284.002.567.001.851.001-.001-.374.001-.748-.001-1.123l-.85 1.121zM10.778 10.879c.465-.614.927-1.229 1.391-1.845h.472c.002.606 0 1.212.001 1.818l.286.004v.429l-.285.002v.744h-.472l-.001-.745c-.497-.001-.994.002-1.491-.002.01-.14-.001-.295.1-.406zm.541-.027c.283.002.566.001.85.001-.001-.374.001-.748-.001-1.122-.285.373-.567.747-.849 1.121zM12.087 13.658c.119-.187.372-.085.555-.11l.001 1.821.285.001.001.431-.285.001-.001.747-.472-.001v-.747c-.497-.001-.995.002-1.492-.001.013-.136-.001-.289.095-.399.439-.58.877-1.162 1.314-1.744zm-.768 1.711l.85.001c-.001-.374.001-.748-.001-1.123-.284.373-.567.747-.849 1.121zM11.713 19.608c.559-.327 1.418-.037 1.535.634.098.911-.407 1.813-1.135 2.338l-.232-.396c.303-.248.555-.555.726-.909-.455.091-.995-.021-1.25-.442-.28-.412-.082-1.014.356-1.226zm.366.374c-.225.049-.436.283-.348.521.169.442.941.416 1.059-.05.047-.363-.407-.571-.711-.472zM10.443 22.052c.315-.162.537.364.217.49-.304.153-.542-.369-.217-.49z"/>
    <path fill="#006e51" d="M9.713.76a.521.521 0 0 1 .549-.557c1.201.001 2.403-.004 3.604.002a.519.519 0 0 1 .517.559c-.001 5.734.001 11.468-.001 17.202H9.713V.761zm.378.788c-.003.665-.001 1.331-.002 1.997h.253c.001-.389-.003-.779.003-1.169.082.237.155.478.241.715.088-.234.158-.474.239-.71.005.388.001.776.003 1.164h.253c-.001-.666.001-1.331-.001-1.997l-.252.002c-.077.227-.15.457-.244.679-.087-.224-.163-.451-.241-.678l-.251-.002zm1.426.001c-.002.665-.001 1.331-.001 1.997h.253V1.55l-.252-.001zm.685 0v1.996c.254.001.508 0 .763-.001l-.001-.229c-.17-.001-.34.001-.511-.001V1.547h-.252zm1.038.001v1.996c.255 0 .511.001.766-.001l-.001-.256c-.171-.001-.342.001-.513-.001v-.702l.323-.001-.001-.267-.322.001v-.51h.483v-.26c-.245-.001-.49-.001-.735.001zm-1.156 3.107c-.438.581-.874 1.162-1.313 1.743-.097.11-.081.262-.092.397l1.49.001v.746c.158-.003.316.001.473-.004l-.001-.741.285-.001-.001-.431-.285-.002-.001-1.82c-.185.025-.439-.079-.557.113zm-1.306 6.222c-.101.111-.09.266-.1.406.497.003.994.001 1.491.002 0 .248-.001.496.001.745h.472a92.256 92.256 0 0 1 0-.744l.285-.002a30.674 30.674 0 0 1 0-.429l-.286-.004c-.001-.606.002-1.212-.001-1.818h-.472c-.464.615-.926 1.231-1.391 1.845zm1.309 2.779l-1.314 1.744c-.096.11-.083.262-.095.399.497.003.994.001 1.492.001v.747l.472.001.001-.747.285-.001-.001-.431-.285-.001-.001-1.821c-.183.025-.436-.077-.555.11z"/>
    <path fill="#006e51" d="M11.318 6.364l.85-1.121c.002.374.001.748.001 1.123-.284-.001-.567.001-.851-.001zM11.319 10.852c.282-.374.564-.748.849-1.121.002.374.001.748.001 1.122-.284 0-.567.001-.85-.001zM11.319 15.369c.283-.374.565-.748.849-1.121.002.374.001.748.001 1.123l-.85-.001zM9.713 18.11h4.67c-.002 1.745.003 3.491-.002 5.236a.51.51 0 0 1-.515.51c-1.201.004-2.402.002-3.603.002-.284.02-.557-.218-.548-.508-.005-1.747-.001-3.493-.002-5.24zm2 1.498c-.437.212-.636.814-.356 1.226.255.421.795.533 1.25.442a2.696 2.696 0 0 1-.726.909l.232.396c.728-.526 1.233-1.427 1.135-2.338-.117-.671-.977-.961-1.535-.634zm-1.27 2.444c-.325.122-.087.644.217.49.32-.126.098-.652-.217-.49z"/>
    <path fill="#006e51" d="M12.079 19.982c.303-.099.758.109.711.472-.118.466-.89.492-1.059.05-.088-.239.123-.472.348-.521z"/>
    <path fill="#312d2e" d="M14.517.534l.056.082v22.946l-.033-.097a3.179 3.179 0 0 1-.022-.338c.001-7.531.002-15.063-.001-22.594z"/>
    <path fill="#8f8d8d" d="M13.946 24c.278-.066.476-.285.593-.535l.033.097v.099a.811.811 0 0 1-.359.339h-.267z"/>
</svg>
