<svg xmlns="http://www.w3.org/2000/svg" width="24" height="24">
    <path d="M0 0h24v24H0V0zm.125.125c-.008 7.916-.008 15.834 0 23.75 7.916.008 15.834.008 23.75 0 .008-7.916.008-15.834 0-23.75C15.959.117 8.041.117.125.125z"/>
    <path fill="#00408b" d="M.125.125c7.916-.008 15.834-.008 23.75 0 .008 7.916.008 15.834 0 23.75-7.916.008-15.834.008-23.75 0C.117 15.959.117 8.041.125.125zm1.713.404C1.05.695.456 1.466.482 2.269a14028.5 14028.5 0 0 0 0 19.462c-.04.961.823 1.831 1.788 1.784 6.486.007 12.973.007 19.459 0 .965.046 1.825-.823 1.787-1.784.006-6.487.006-12.974 0-19.46.044-1.015-.906-1.886-1.91-1.79C15.018.513 8.422.415 1.838.53z"/>
    <path fill="#00408b" d="M1.842.778c.221-.055.45-.056.676-.06 6.404.008 12.81-.004 19.214.006.834-.035 1.58.712 1.544 1.546.006 6.487.006 12.974 0 19.462.034.834-.71 1.579-1.544 1.546-6.488.006-12.976.006-19.464 0-.833.034-1.58-.71-1.544-1.544C.718 15.246.718 8.758.724 2.27.701 1.593 1.182.94 1.842.78zm5.974 1.82c-.004 1.092-.001 2.184-.001 3.277.946.006 1.891-.005 2.837.005v10.487c-3.073.007-6.146-.001-9.22.005-.007.727-.006 1.456-.001 2.184 3.073.005 6.146-.004 9.221.004.005 1.309-.004 2.62.004 3.929.944.005 1.889.005 2.834 0 .01-1.31-.006-2.621.007-3.931 3.065.005 6.131-.01 9.197.007.05-.727.008-1.457.024-2.185-3.073-.023-6.148-.001-9.222-.01-.01-3.496-.001-6.992-.004-10.488.944-.013 1.89.001 2.834-.007a397.49 397.49 0 0 0 0-3.276c-2.837-.004-5.674-.004-8.51 0z"/>
    <path fill="#fff" d="M1.838.529C8.421.414 15.018.512 21.606.48c1.004-.096 1.955.775 1.91 1.79.006 6.486.006 12.973 0 19.46.038.961-.822 1.83-1.787 1.784-6.486.007-12.973.007-19.459 0-.965.047-1.828-.823-1.788-1.784a14028.5 14028.5 0 0 1 0-19.462C.456 1.465 1.05.694 1.838.528zm.004.249c-.66.161-1.141.814-1.118 1.49-.006 6.488-.006 12.976 0 19.464-.036.834.712 1.578 1.544 1.544 6.488.006 12.976.006 19.464 0 .834.034 1.578-.712 1.544-1.546.006-6.487.006-12.974 0-19.462.036-.834-.71-1.58-1.544-1.546C15.328.712 8.922.724 2.518.716c-.226.004-.455.005-.676.06z"/>
    <path fill="#fff" d="M7.816 2.598c2.837-.004 5.674-.004 8.51 0a397.49 397.49 0 0 1 0 3.276c-.944.008-1.89-.006-2.834.007.002 3.496-.006 6.992.004 10.488 3.074.008 6.149-.013 9.222.01-.016.728.026 1.458-.024 2.185-3.066-.017-6.132-.002-9.197-.007-.013 1.31.002 2.621-.007 3.931-.946.005-1.89.005-2.834 0-.007-1.309.001-2.62-.004-3.929-3.074-.007-6.148.001-9.221-.004-.005-.728-.006-1.457.001-2.184 3.073-.006 6.146.002 9.22-.005V5.879c-.946-.01-1.891.001-2.837-.005 0-1.093-.002-2.185.001-3.277zm.444.328a190.39 190.39 0 0 0-.001 2.618c2.569.005 5.138.005 7.708.001.005-.874.006-1.747 0-2.62-2.569-.002-5.137-.002-7.706 0z"/>
    <path fill="#e41408" d="M8.26 2.926c2.569-.002 5.137-.002 7.706 0 .006.872.005 1.746 0 2.62-2.569.004-5.138.004-7.708-.001a190.39 190.39 0 0 1 .001-2.618z"/>
</svg>
