<svg xmlns="http://www.w3.org/2000/svg" width="24" height="24">
    <path fill="#4d4d4d" opacity=".8" d="M11.509.217c.065-.12.163-.17.296-.151-.045.137-.143.187-.296.151zM12.195.066a.272.272 0 0 1 .298.148c-.153.039-.253-.01-.298-.148z"/>
    <path fill="#fff" d="M11.805.066c.13.003.26.003.39 0 .045.138.145.187.298.148 2.983 1.034 5.636 2.968 7.565 5.465.023.162.122.3.274.364 1.895 2.629 3.009 5.817 3.108 9.059.006 1.5.003 3 .003 4.5-.013 1.612-1.226 3.11-2.796 3.471-2.059.432-4.154.683-6.252.817-1.552.027-3.104.015-4.655.007a44.44 44.44 0 0 1-6.306-.805c-1.606-.33-2.868-1.848-2.877-3.49.036-2.731-.205-5.509.532-8.176a.506.506 0 0 0 .154-.43c.01-.095.017-.191.022-.287.141-.045.19-.145.149-.299.522-1.561 1.302-3.027 2.253-4.367a.46.46 0 0 0 .275-.364 17.313 17.313 0 0 1 2.537-2.633.454.454 0 0 0 .358-.284A16.842 16.842 0 0 1 10.699.513c.138.033.245-.011.32-.132l.49-.164c.153.036.251-.014.296-.151zm.034.773a15.62 15.62 0 0 0-7.59 5.607 15.605 15.605 0 0 0-2.999 9.053c-.002 1.369-.01 2.738.003 4.106.029 1.324 1.058 2.53 2.347 2.806a42.58 42.58 0 0 0 16.884-.018c1.262-.295 2.238-1.491 2.263-2.788.013-1.368.006-2.737.003-4.105a15.632 15.632 0 0 0-3.213-9.339A15.622 15.622 0 0 0 12.161.839a.447.447 0 0 0-.322 0z"/>
    <path fill="#fff" d="M10.17 6.158c.457-.035.914-.068 1.371-.101l.034.329c-.35.028-.7.054-1.05.079.01.123.02.246.032.37.19-.012.381-.025.572-.036l.022.329-.572.044c.016.268.037.537.053.806l-.332.018c-.046-.613-.088-1.226-.13-1.838zM12.427 6.128c.667-.322 1.247.455 1.069 1.075-.016.528-.599.968-1.093.693-.606-.352-.595-1.436.024-1.768zm.114.319c-.336.273-.36.983.067 1.178.816.21.755-1.562-.067-1.178zM9.271 6.263l.322-.05c.083.612.16 1.226.223 1.841l-.321.033-.224-1.824zM14.165 6.178c.433.109 1.061-.013 1.31.449.168.315-.075.61-.3.809.068.26.137.52.207.779a39.31 39.31 0 0 1-.361-.049c-.067-.254-.131-.508-.197-.761a20.946 20.946 0 0 0-.485-.069c-.041.24-.068.482-.108.722l-.323-.05c.084-.61.169-1.22.257-1.83zm.215.839c.256-.01.606.181.796-.053.119-.416-.479-.348-.728-.423l-.068.476zM7.481 6.561l.317-.057c.101.51.199 1.02.299 1.53.344-.071.69-.135 1.035-.195l.046.278c-.451.086-.901.175-1.351.266-.117-.607-.24-1.213-.346-1.822zM16.198 6.489l.316.084c.173.458.346.916.524 1.371.1-.391.197-.784.296-1.175l.307.085c-.149.595-.296 1.192-.446 1.787a21.404 21.404 0 0 1-.27-.058c-.188-.48-.364-.965-.552-1.444-.107.407-.206.817-.311 1.226l-.311-.083c.147-.598.295-1.196.447-1.793zM5.904 7.098c-.009-.191.301-.262.404-.124.416.466.796.963 1.199 1.44l-.321.112-.322-.364c-.254.076-.507.154-.76.233l-.054.471a8.334 8.334 0 0 1-.341.103c.07-.623.111-1.25.195-1.871zm.305.271l-.068.663.492-.148-.424-.515zM18.223 7.025l.313.095c-.186.588-.38 1.173-.567 1.761l-.314-.095c.185-.589.377-1.175.568-1.761zM3.667 8.068c.134-.512.786-.66 1.214-.427a3.584 3.584 0 0 0-.1.286c-.261-.044-.649-.135-.773.186-.097.351.076.809.42.96.292.103.469-.191.62-.382l.316.046c-.137.325-.374.665-.762.683-.67.039-1.067-.771-.935-1.352zM18.272 8.959c.468-.478.934-.957 1.409-1.426l.308.112c.019.671.02 1.342.028 2.013l-.308-.111c-.014-.166-.025-.333-.037-.499-.247-.098-.492-.198-.739-.293-.109.11-.215.224-.323.334a33.827 33.827 0 0 1-.338-.13zm.921-.457l.481.195-.011-.672c-.157.158-.315.317-.47.477zM5.608 11.508c1.086-1.115 2.984-1.249 4.25-.367a2.864 2.864 0 0 1 1.239 2.458c-.046 2.583-1.455 5.066-3.564 6.534-.235-.411-.469-.824-.7-1.237.959-.738 1.744-1.694 2.226-2.807-1.339.329-2.929-.012-3.749-1.192-.76-1.005-.602-2.523.298-3.389zm1.731.645c-.654.188-1.225.889-.975 1.587.354.901 1.548 1.185 2.381.815.597-.209 1.082-.89.825-1.524-.349-.833-1.415-1.151-2.231-.878zM13.699 11.498c1.075-1.093 2.934-1.233 4.197-.386a2.862 2.862 0 0 1 1.282 2.487c-.046 2.583-1.456 5.064-3.563 6.535-.236-.412-.469-.825-.702-1.238.96-.737 1.744-1.694 2.227-2.807-1.337.328-2.923-.01-3.745-1.186-.767-1.009-.606-2.539.304-3.405zm1.737.649c-.669.184-1.256.908-.982 1.617.371.89 1.558 1.159 2.387.785.589-.213 1.062-.885.812-1.514-.344-.83-1.402-1.152-2.217-.888z"/>
    <path fill="#515151" opacity=".8" d="M10.699.513c.072-.126.179-.17.32-.132-.075.121-.182.165-.32.132z"/>
    <path fill="#006b54" d="M11.839.839a.447.447 0 0 1 .322 0 15.622 15.622 0 0 1 7.376 5.322A15.632 15.632 0 0 1 22.75 15.5c.003 1.368.01 2.737-.003 4.105-.025 1.297-1.001 2.493-2.263 2.788a42.58 42.58 0 0 1-16.884.018c-1.289-.276-2.318-1.482-2.347-2.806-.013-1.368-.005-2.737-.003-4.106a15.605 15.605 0 0 1 2.999-9.053 15.62 15.62 0 0 1 7.59-5.607zM10.17 6.158c.042.612.084 1.225.13 1.838l.332-.018c-.016-.269-.037-.538-.053-.806l.572-.044a36.323 36.323 0 0 1-.022-.329c-.191.011-.382.024-.572.036-.012-.124-.022-.247-.032-.37.35-.025.7-.051 1.05-.079a36.66 36.66 0 0 1-.034-.329c-.457.033-.914.066-1.371.101zm2.257-.03c-.619.332-.63 1.416-.024 1.768.494.275 1.077-.165 1.093-.693.178-.62-.402-1.397-1.069-1.075zm-3.156.135l.224 1.824.321-.033a56.71 56.71 0 0 0-.223-1.841l-.322.05zm4.894-.085c-.088.61-.173 1.22-.257 1.83l.323.05c.04-.24.067-.482.108-.722.161.021.323.044.485.069.066.253.13.507.197.761l.361.049a98.9 98.9 0 0 1-.207-.779c.225-.199.468-.494.3-.809-.249-.462-.877-.34-1.31-.449zm-6.684.383c.106.609.229 1.215.346 1.822.45-.091.9-.18 1.351-.266l-.046-.278c-.345.06-.691.124-1.035.195-.1-.51-.198-1.02-.299-1.53l-.317.057zm8.717-.072c-.152.597-.3 1.195-.447 1.793l.311.083c.105-.409.204-.819.311-1.226.188.479.364.964.552 1.444l.27.058c.15-.595.297-1.192.446-1.787l-.307-.085c-.099.391-.196.784-.296 1.175-.178-.455-.351-.913-.524-1.371l-.316-.084zm-10.294.609c-.084.621-.125 1.248-.195 1.871.114-.032.228-.066.341-.103l.054-.471c.253-.079.506-.157.76-.233l.322.364.321-.112c-.403-.477-.783-.974-1.199-1.44-.103-.138-.413-.067-.404.124zm12.319-.073c-.191.586-.383 1.172-.568 1.761l.314.095c.187-.588.381-1.173.567-1.761l-.313-.095zM3.667 8.068c-.132.581.265 1.391.935 1.352.388-.018.625-.358.762-.683a34.35 34.35 0 0 1-.316-.046c-.151.191-.328.485-.62.382-.344-.151-.517-.609-.42-.96.124-.321.512-.23.773-.186.029-.097.063-.192.1-.286-.428-.233-1.08-.085-1.214.427zm14.605.891l.338.13c.108-.11.214-.224.323-.334.247.095.492.195.739.293.012.166.023.333.037.499l.308.111c-.008-.671-.009-1.342-.028-2.013l-.308-.112c-.475.469-.941.948-1.409 1.426zM5.608 11.508c-.9.866-1.058 2.384-.298 3.389.82 1.18 2.41 1.521 3.749 1.192-.482 1.113-1.267 2.069-2.226 2.807.231.413.465.826.7 1.237 2.109-1.468 3.518-3.951 3.564-6.534a2.864 2.864 0 0 0-1.239-2.458c-1.266-.882-3.164-.748-4.25.367zm8.091-.01c-.91.866-1.071 2.396-.304 3.405.822 1.176 2.408 1.514 3.745 1.186-.483 1.113-1.267 2.07-2.227 2.807.233.413.466.826.702 1.238 2.107-1.471 3.517-3.952 3.563-6.535a2.862 2.862 0 0 0-1.282-2.487c-1.263-.847-3.122-.707-4.197.386z"/>
    <path fill="#006b54" d="M12.541 6.447c.822-.384.883 1.388.067 1.178-.427-.195-.403-.905-.067-1.178zM14.38 7.017l.068-.476c.249.075.847.007.728.423-.19.234-.54.043-.796.053zM6.209 7.369l.424.515-.492.148.068-.663zM19.193 8.502c.155-.16.313-.319.47-.477l.011.672-.481-.195zM7.339 12.153c.816-.273 1.882.045 2.231.878.257.634-.228 1.315-.825 1.524-.833.37-2.027.086-2.381-.815-.25-.698.321-1.399.975-1.587zM15.436 12.147c.815-.264 1.873.058 2.217.888.25.629-.223 1.301-.812 1.514-.829.374-2.016.105-2.387-.785-.274-.709.313-1.433.982-1.617z"/>
    <path fill="#4d4d4d" opacity=".78" d="M6.479 3.046a.395.395 0 0 1 .358-.284.454.454 0 0 1-.358.284z"/>
    <path fill="#444" opacity=".77" d="M3.667 6.043a.387.387 0 0 1 .275-.364.46.46 0 0 1-.275.364z"/>
    <path fill="#434343" opacity=".76" d="M20.058 5.679a.39.39 0 0 1 .274.364.457.457 0 0 1-.274-.364z"/>
    <path fill="#404040" opacity=".78" d="M1.265 10.709a.288.288 0 0 1 .149-.299c.041.154-.008.254-.149.299z"/>
    <path fill="#404040" opacity=".76" d="M1.089 11.426a.367.367 0 0 1 .154-.43.506.506 0 0 1-.154.43z"/>
    <path fill="#2f2f2f" opacity=".77" d="M9.74 23.897c1.551.008 3.103.02 4.655-.007l-.183.11H9.544l.196-.103z"/>
</svg>
