<svg xmlns="http://www.w3.org/2000/svg" width="24" height="24">
    <path fill="#00409b" opacity=".91" d="M3 0h.664l-.122.053c-.204.075-.352.241-.475.413L3 .593V0zM20.32 0H21v.562l-.069-.114c-.127-.167-.278-.326-.482-.395L20.32 0z"/>
    <path fill="#bdd0e8" d="M3.664 0H20.32l.129.053C15.335.163 10.216.064 5.1.103 4.58.115 4.06.085 3.542.053L3.664 0z"/>
    <path fill="#fff" d="M3.067.466c.123-.172.271-.338.475-.413C4.06.085 4.58.115 5.1.103c5.116-.039 10.235.06 15.349-.05.204.069.355.228.482.395-.072 7.282-.004 14.568-.033 21.852-.004.412.008.824.035 1.235a2.154 2.154 0 0 1-.377.392c-5.695-.041-11.394-.047-17.089.003a2.183 2.183 0 0 1-.393-.375c.06-7.284.004-14.57.028-21.855A15.38 15.38 0 0 0 3.067.466zm.476-.019c-.187.11-.164.364-.177.55.006 7.37-.002 14.74.004 22.11a.45.45 0 0 0 .523.517c5.405.002 10.809.002 16.214.001a.453.453 0 0 0 .528-.52c.002-7.403.001-14.807 0-22.21a.455.455 0 0 0-.529-.524C14.737.366 9.367.373 3.998.367c-.153.007-.316.004-.455.08z"/>
    <path fill="#fff" d="M6.009 1.264c2.002.001 4.004-.002 6.006.001.004.779 0 1.558.002 2.337 1.997 1.189 3.988 2.386 5.978 3.587l-.001 9.618c-1.995 1.195-3.991 2.389-5.978 3.597 0 .773.002 1.546-.001 2.32-2.002.003-4.004.001-6.006.001V1.264zm5.985 3.405c-.002.49-.002.981 0 1.472l.848-.001V4.669h-.848zm-.001 2.65c-.001.485-.001.97.001 1.455.283-.001.566 0 .849.001 0-.486-.001-.971.001-1.456h-.851zm2.951.326c-.323.198-.403.683-.149.968.301.384.946.217 1.168.69-.222.49-.817.325-1.179.104l-.256.31c.389.261.888.418 1.345.244.424-.137.619-.713.334-1.067-.274-.413-.911-.249-1.173-.672l.143-.267c.298-.095.603-.052.879.09l.247-.332c-.411-.223-.94-.332-1.359-.068zm-2.95 2.304c-.002.486-.002.973-.001 1.459h.85V9.95l-.849-.001zm3.04.893c-.648.293-.692 1.158-.524 1.757.14.605.925.894 1.429.538.507-.347.515-1.06.41-1.604-.098-.574-.784-.963-1.315-.691zm-3.041 1.745v1.466l.85-.001v-1.464l-.85-.001zm2.914 1.62c-.33.233-.35.768-.036 1.025.266.209.617.245.928.358l.143.236c-.17.516-.81.338-1.155.118-.088.104-.175.209-.261.315.415.276.964.429 1.435.202.383-.183.505-.728.23-1.056-.266-.376-.883-.224-1.118-.608.005-.507.678-.369.986-.221l.244-.324c-.42-.237-.977-.333-1.396-.045zm-2.914 1.023v1.453h.851c-.002-.484-.002-.968 0-1.452l-.851-.001zm.001 2.632c-.002.492-.002.984 0 1.477l.847-.001c.003-.492.002-.984.001-1.475l-.848-.001z"/>
    <path fill="#fff" d="M15.14 11.237c.657-.369.983.546.831 1.053.035.501-.645.831-.963.408-.238-.434-.274-1.116.132-1.461z"/>
    <path fill="#0046ac" d="M3.543.447c.139-.076.302-.073.455-.08C9.367.373 14.737.366 20.106.371a.455.455 0 0 1 .529.524c.001 7.403.002 14.807 0 22.21a.453.453 0 0 1-.528.52c-5.405.001-10.809.001-16.214-.001a.45.45 0 0 1-.523-.517c-.006-7.37.002-14.74-.004-22.11.013-.186-.01-.44.177-.55zm2.466.817v21.461c2.002 0 4.004.002 6.006-.001.003-.774.001-1.547.001-2.32 1.987-1.208 3.983-2.402 5.978-3.597l.001-9.618c-1.99-1.201-3.981-2.398-5.978-3.587-.002-.779.002-1.558-.002-2.337-2.002-.003-4.004 0-6.006-.001z"/>
    <path fill="#afc5e4" d="M3 .593l.067-.127c.029.41.039.822.035 1.234-.024 7.285.032 14.571-.028 21.855L3 23.441V.593z"/>
    <path fill="#c2d2eb" d="M20.931.448L21 .562v22.846l-.067.127a16.41 16.41 0 0 1-.035-1.235c.029-7.284-.039-14.57.033-21.852z"/>
    <path d="M11.994 4.669h.848V6.14l-.848.001c-.002-.491-.002-.982 0-1.472zM11.993 7.319h.851c-.002.485-.001.97-.001 1.456-.283-.001-.566-.002-.849-.001-.002-.485-.002-.97-.001-1.455zM14.944 7.645c.419-.264.948-.155 1.359.068l-.247.332a1.138 1.138 0 0 0-.879-.09l-.143.267c.262.423.899.259 1.173.672.285.354.09.93-.334 1.067-.457.174-.956.017-1.345-.244l.256-.31c.362.221.957.386 1.179-.104-.222-.473-.867-.306-1.168-.69-.254-.285-.174-.77.149-.968zM11.994 9.949l.849.001v1.458h-.85c-.001-.486-.001-.973.001-1.459zM15.034 10.842c.531-.272 1.217.117 1.315.691.105.544.097 1.257-.41 1.604-.504.356-1.289.067-1.429-.538-.168-.599-.124-1.464.524-1.757zm.106.395c-.406.345-.37 1.027-.132 1.461.318.423.998.093.963-.408.152-.507-.174-1.422-.831-1.053zM11.993 12.587l.85.001v1.464l-.85.001v-1.466zM14.907 14.207c.419-.288.976-.192 1.396.045l-.244.324c-.308-.148-.981-.286-.986.221.235.384.852.232 1.118.608.275.328.153.873-.23 1.056-.471.227-1.02.074-1.435-.202.086-.106.173-.211.261-.315.345.22.985.398 1.155-.118l-.143-.236c-.311-.113-.662-.149-.928-.358-.314-.257-.294-.792.036-1.025zM11.993 15.23l.851.001c-.002.484-.002.968 0 1.452h-.851V15.23zM11.994 17.862l.848.001c.001.491.002.983-.001 1.475l-.847.001c-.002-.493-.002-.985 0-1.477z"/>
    <path fill="#003e99" opacity=".9" d="M3 23.441l.074.114c.114.141.247.266.393.375l.126.07H3v-.559zM20.933 23.535l.067-.127V24h-.558l.114-.073c.142-.114.268-.246.377-.392z"/>
    <path fill="#afc4e4" d="M3.467 23.93c5.695-.05 11.394-.044 17.089-.003l-.114.073H3.593l-.126-.07z"/>
</svg>
