<svg xmlns="http://www.w3.org/2000/svg" width="24" height="24">
    <path fill="#fff" d="M.835.138c.271-.119.575-.103.864-.108 7 .009 14-.01 20.999.009.766-.016 1.312.741 1.27 1.463v20.997c.051.764-.57 1.528-1.37 1.467-7.066.004-14.131.004-21.196 0-.799.059-1.416-.706-1.37-1.467a73486 73486 0 0 1 0-20.998C.023.95.3.351.835.138zm.39.395C.75.632.454 1.125.498 1.593.502 8.565.495 15.537.502 22.509c-.03.538.451 1.019.989.988 7.006.005 14.012.005 21.017 0a.961.961 0 0 0 .989-.989c.006-7.005.006-14.011.001-21.016.035-.585-.522-1.061-1.092-.993C15.346.523 8.281.456 1.225.533z"/>
    <path fill="#fff" d="M3.894 3.894h16.212v16.212H3.894V3.894zm3.024 2.328c-.49.253-.063.964.376.967.908.026 1.817-.028 2.723.028-.232.465-.972.125-1.281.521-.284.356-.49.769-.791 1.111-.356.249-.813.293-1.188.507-.097.458-.054.948-.022 1.414.286.169.65.051.967.083.057-.515.448-1.008.998-1.011.581-.045 1.031.463 1.086 1.011 1.274-.003 2.548.008 3.823-.006.045-.552.512-1.056 1.091-1.004.553.009.935.509.991 1.025.562.003 1.07-.264 1.598-.417-.031-1.49.074-2.99-.054-4.473-.847-.01-1.694-.002-2.541-.003-.476.034-.814-.433-1.289-.409-1.702 0-3.405.004-5.107-.002-.547-.049-.932.42-1.38.658zm1.426 3.926c-.54.274-.543 1.137-.003 1.413.491.31 1.205-.079 1.213-.66.065-.615-.686-1.082-1.21-.753zm5.901 0c-.539.275-.542 1.135-.004 1.412.491.311 1.207-.078 1.215-.659.065-.615-.688-1.083-1.211-.753zm-5.267 3.139c-.168.695-.27 1.407-.384 2.112.051.663.261 1.306.373 1.961H7.495v.353h4.275c.073-.461.427-.911.93-.892.505-.021.862.429.932.892.824-.006 1.648.016 2.472-.014.134-.986.548-1.985.273-2.981-.123-.483-.106-1.015-.314-1.467-2.186-.059-4.377-.004-6.565-.027-.17.017-.37-.036-.52.063zm3.551 3.733c-.911.182-.536 1.681.363 1.388.885-.199.516-1.651-.363-1.388z"/>
    <path fill="#fff" d="M8.339 5.985a23.738 23.738 0 0 1 1.623 0c.002.264.002.529-.007.793-.536.014-1.073.014-1.609 0a19.06 19.06 0 0 1-.007-.793zM11.394 7.207a29.847 29.847 0 0 1 1.82-.004c.013 1.079.009 2.158.002 3.236-.608.011-1.216.014-1.823-.002-.005-1.077-.007-2.154.001-3.23zM14.043 7.205a24.037 24.037 0 0 1 1.611 0c.013.4.012.8.001 1.2-.537.013-1.075.013-1.612.001a20.909 20.909 0 0 1 0-1.201zM8.935 7.818c.318-.127.689-.038 1.028-.04.003.371.004.743-.007 1.114-.593.04-1.188.08-1.783.067.237-.39.469-.789.762-1.141zM9.747 13.954a35.605 35.605 0 0 1 1.601 0c.012 1.132.013 2.265 0 3.397a30.52 30.52 0 0 1-1.601 0 147.949 147.949 0 0 1 0-3.397zM13.339 13.954a75.081 75.081 0 0 1 2.226-.001c.014.385.013.77.001 1.154-.743.01-1.485.011-2.228 0-.011-.384-.012-.769.001-1.153z"/>
    <path fill="#154889" d="M1.225.533C8.281.456 15.346.523 22.406.499c.57-.068 1.127.408 1.092.993.005 7.005.005 14.011-.001 21.016a.961.961 0 0 1-.989.989c-7.005.005-14.011.005-21.017 0-.538.031-1.019-.45-.989-.988-.007-6.972 0-13.944-.004-20.916-.044-.468.252-.961.727-1.06zm2.669 3.361v16.212h16.212V3.894H3.894z"/>
    <path d="M6.918 6.222c.448-.238.833-.707 1.38-.658 1.702.006 3.405.002 5.107.002.475-.024.813.443 1.289.409.847.001 1.694-.007 2.541.003.128 1.483.023 2.983.054 4.473-.528.153-1.036.42-1.598.417-.056-.516-.438-1.016-.991-1.025-.579-.052-1.046.452-1.091 1.004-1.275.014-2.549.003-3.823.006-.055-.548-.505-1.056-1.086-1.011-.55.003-.941.496-.998 1.011-.317-.032-.681.086-.967-.083-.032-.466-.075-.956.022-1.414.375-.214.832-.258 1.188-.507.301-.342.507-.755.791-1.111.309-.396 1.049-.056 1.281-.521-.906-.056-1.815-.002-2.723-.028-.439-.003-.866-.714-.376-.967zm1.421-.237c-.002.264-.002.529.007.793.536.014 1.073.014 1.609 0 .009-.264.009-.529.007-.793a23.738 23.738 0 0 0-1.623 0zm3.055 1.222a267.506 267.506 0 0 0-.001 3.23c.607.016 1.215.013 1.823.002.007-1.078.011-2.157-.002-3.236a29.847 29.847 0 0 0-1.82.004zm2.649-.002c-.012.4-.011.8 0 1.201.537.012 1.075.012 1.612-.001.011-.4.012-.8-.001-1.2a24.037 24.037 0 0 0-1.611 0zm-5.108.613c-.293.352-.525.751-.762 1.141.595.013 1.19-.027 1.783-.067.011-.371.01-.743.007-1.114-.339.002-.71-.087-1.028.04z"/>
    <path d="M8.344 10.148c.524-.329 1.275.138 1.21.753-.008.581-.722.97-1.213.66-.54-.276-.537-1.139.003-1.413zM14.245 10.148c.523-.33 1.276.138 1.211.753-.008.581-.724.97-1.215.659-.538-.277-.535-1.137.004-1.412zM8.978 13.287c.15-.099.35-.046.52-.063 2.188.023 4.379-.032 6.565.027.208.452.191.984.314 1.467.275.996-.139 1.995-.273 2.981-.824.03-1.648.008-2.472.014-.07-.463-.427-.913-.932-.892-.503-.019-.857.431-.93.892H7.495v-.353h1.472c-.112-.655-.322-1.298-.373-1.961.114-.705.216-1.417.384-2.112zm.769.667a147.949 147.949 0 0 0 0 3.397 30.52 30.52 0 0 0 1.601 0c.013-1.132.012-2.265 0-3.397a35.605 35.605 0 0 0-1.601 0zm3.592 0c-.013.384-.012.769-.001 1.153.743.011 1.485.01 2.228 0 .012-.384.013-.769-.001-1.154a75.081 75.081 0 0 0-2.226.001z"/>
    <path d="M12.529 17.02c.879-.263 1.248 1.189.363 1.388-.899.293-1.274-1.206-.363-1.388z"/>
</svg>
