<svg xmlns="http://www.w3.org/2000/svg" width="24" height="24">
    <path fill="#fff" d="M1.206 0h21.638l.112.095C17.368-.02 11.773.078 6.183.045 4.526.072 2.865-.011 1.211.091L1.207 0zM23.024.145zM1.368.29C8.341.181 15.329.273 22.307.244c.805-.061 1.575.632 1.567 1.444.008 6.873 0 13.747.005 20.621.065.808-.63 1.584-1.447 1.571-6.873.01-13.745.001-20.618.005-.859.07-1.634-.72-1.57-1.575C.24 15.477.24 8.645.244 1.813.204 1.123.695.452 1.368.291zm.123.486C1.03.88.715 1.346.744 1.81.742 8.644.743 15.478.743 22.312c-.052.59.475 1.124 1.067 1.078 6.834.002 13.668.001 20.502 0 .594.051 1.125-.485 1.073-1.078.001-6.834.002-13.668 0-20.502.056-.65-.572-1.165-1.199-1.073C15.289.767 8.385.69 1.491.776zM23.907.821L24 .868v.218l-.093-.265zM0 1.28l.072-.128C.047 8.42.007 15.693.091 22.958L0 22.805V1.28z"/>
    <path fill="#fff" d="M18.223 6.72c.762-.187 1.664.018 2.148.672.554.73.65 1.679.747 2.56a26.014 26.014 0 0 1-.006 4.342c-.09.846-.199 1.752-.738 2.445-.783 1.03-2.595.981-3.301-.115-.548-.821-.61-1.841-.691-2.795-.08-1.698-.115-3.425.235-5.098.173-.863.68-1.8 1.606-2.01zm.377 1.339c-.545.213-.662.878-.754 1.388a27.166 27.166 0 0 0-.047 5.093c.109.585.241 1.492.979 1.554.685-.086.806-.921.924-1.472a24.11 24.11 0 0 0-.035-5.303c-.086-.543-.358-1.411-1.067-1.261zM2.909 6.789c.485-.002.97-.002 1.455 0v10.664c-.485.002-.97.002-1.455 0V6.789zM5.847 6.772c.463-.011.926-.011 1.388.012.584 1.87 1.154 3.747 1.778 5.604.016-1.874-.002-3.747.01-5.619.458-.004.918-.002 1.376.002l.001 10.588c-.428.008-.855.008-1.282-.008-.621-1.995-1.223-3.996-1.885-5.977-.015 1.996.002 3.993-.008 5.989-.459.002-.919.002-1.377-.005V6.773zM11.925 6.779c1.344-.021 2.688-.019 4.032-.001-.002.451-.002.903.002 1.354-.882.032-1.766.007-2.648.015-.007.954-.006 1.908-.001 2.861.53 0 1.059 0 1.589.002.002.458.002.916 0 1.376-.53.002-1.059.002-1.588.001-.008 1.657-.002 3.314-.004 4.971-.462.012-.924.011-1.384-.012.013-3.522.006-7.044.002-10.566zM.823 23.904l.246.096H.863l-.04-.096z"/>
    <path fill="#373334" d="M.072 1.152C.291.666.664.208 1.21.091 2.865-.011 4.525.072 6.182.045c5.59.033 11.185-.065 16.773.05l.069.051.285.058c.201.204.401.408.598.617l.093.265v21.953l-.095.264c-.222.239-.445.476-.685.697H1.068a63.937 63.937 0 0 1-.246-.096 24.7 24.7 0 0 1-.617-.592l-.073-.281-.042-.074C.005 15.692.045 8.419.071 1.151zM1.368.29C.695.451.204 1.123.244 1.812.24 8.644.24 15.476.244 22.309c-.064.855.71 1.645 1.57 1.575 6.873-.004 13.745.005 20.618-.005.817.013 1.513-.762 1.447-1.571-.005-6.874.004-13.748-.005-20.621.007-.812-.762-1.504-1.567-1.444C15.329.272 8.341.18 1.368.289z"/>
    <path fill="#005595" d="M1.491.776C8.384.69 15.289.768 22.186.737c.627-.092 1.255.423 1.199 1.073.002 6.834.001 13.668 0 20.502.052.593-.479 1.128-1.073 1.078-6.834.001-13.668.002-20.502 0-.592.046-1.119-.487-1.067-1.078 0-6.834-.001-13.668.001-20.502-.029-.464.286-.93.747-1.034zM18.223 6.72c-.926.21-1.433 1.147-1.606 2.01-.35 1.673-.315 3.4-.235 5.098.081.954.143 1.975.691 2.795.705 1.096 2.518 1.145 3.301.115.539-.693.648-1.599.738-2.445.124-1.442.124-2.898.006-4.342-.097-.881-.193-1.83-.747-2.56-.484-.653-1.385-.858-2.148-.672zm-15.314.069v10.664c.485.002.97.002 1.455 0V6.789c-.485-.002-.97-.002-1.455 0zm2.938-.017v10.585c.458.007.918.007 1.377.005.011-1.996-.006-3.993.008-5.989.662 1.981 1.264 3.982 1.885 5.977.428.017.855.017 1.282.008L10.398 6.77a70.127 70.127 0 0 0-1.376-.002c-.012 1.873.006 3.745-.01 5.619-.624-1.857-1.194-3.733-1.778-5.604a18.891 18.891 0 0 0-1.388-.012zm6.078.007c.004 3.522.011 7.044-.002 10.566.461.023.922.024 1.384.012.001-1.657-.005-3.314.004-4.971.528.001 1.058.001 1.588-.001.002-.459.002-.918 0-1.376-.53-.002-1.059-.002-1.589-.002-.005-.953-.006-1.907.001-2.861.882-.007 1.766.017 2.648-.015a76.39 76.39 0 0 1-.002-1.354 142.614 142.614 0 0 0-4.032.001z"/>
    <path fill="#005595" d="M18.6 8.059c.709-.15.981.718 1.067 1.261a24.11 24.11 0 0 1 .035 5.303c-.118.55-.239 1.385-.924 1.472-.738-.062-.87-.968-.979-1.554a27.25 27.25 0 0 1 .047-5.093c.092-.51.208-1.175.754-1.388z"/>
    <path fill="#e0e0e0" d="M.133 23.032l.073.281-.073-.281z"/>
    <path fill="#d8d8d8" d="M23.905 23.303c.023-.065.07-.198.095-.264v.218l-.095.046z"/>
</svg>
