<svg xmlns="http://www.w3.org/2000/svg" width="24" height="24">
    <path fill="#d40000" d="M11.028 0h1.916c4.214.367 8.149 3.029 9.916 6.893.634 1.3.941 2.722 1.14 4.145v1.89c-.287 2.731-1.409 5.395-3.341 7.37-2.004 2.123-4.801 3.39-7.688 3.702h-1.916c-4.145-.377-8.033-2.952-9.834-6.728-.68-1.343-1.016-2.824-1.22-4.306v-1.904C.191 9.629.504 8.2 1.139 6.893 2.902 3.035 6.826.381 11.029 0zm-.293 2.483c-3.583.428-6.768 3.078-7.856 6.516-.9 2.704-.514 5.803 1.048 8.191 1.847 2.921 5.357 4.686 8.804 4.38 3.592-.232 6.902-2.69 8.196-6.043 1.066-2.66.848-5.792-.582-8.276-1.849-3.346-5.825-5.32-9.61-4.768z"/>
    <path fill="#fff" d="M10.735 2.483c3.785-.552 7.76 1.422 9.61 4.768 1.43 2.484 1.648 5.616.582 8.276-1.294 3.353-4.604 5.812-8.196 6.043-3.448.306-6.958-1.459-8.804-4.38-1.561-2.388-1.948-5.488-1.048-8.191 1.088-3.438 4.273-6.088 7.856-6.516zM8.642 4.72c-.004 4.852-.004 9.702-.001 14.552.803-.001 1.606.001 2.408-.001.007-1.968-.001-3.935.005-5.903 1.132-.034 2.278.088 3.398-.119 2.168-.469 3.678-2.822 3.22-4.992-.318-1.884-2.044-3.356-3.926-3.503-1.7-.072-3.403-.017-5.104-.035z"/>
    <path fill="#fff" d="M11.054 6.929c1.208.076 2.564-.254 3.638.461 1.091.718 1.135 2.527.055 3.275-1.076.764-2.467.403-3.695.487-.001-1.408-.002-2.815.001-4.223z"/>
    <path d="M8.642 4.72c1.7.018 3.403-.037 5.104.035 1.883.146 3.608 1.619 3.926 3.503.458 2.17-1.051 4.523-3.22 4.992-1.121.206-2.267.085-3.398.119-.006 1.968.002 3.935-.005 5.903-.803.002-1.606 0-2.408.001-.002-4.85-.002-9.701.001-14.552zm2.412 2.209c-.004 1.408-.002 2.815-.001 4.223 1.228-.084 2.618.277 3.695-.487 1.08-.748 1.036-2.557-.055-3.275-1.074-.715-2.43-.385-3.638-.461z"/>
</svg>
