<svg xmlns="http://www.w3.org/2000/svg" width="24" height="24">
    <path fill="#04559b" d="M0 3h23.953v18H0V3zm11.531 1.902c-1.423.419-.625 2.753.773 2.179 1.429-.419.626-2.758-.772-2.179zm-.913 2.762c-.431.295-.419.879-.337 1.338.19 1.094.271 2.203.414 3.304.065.443.193.992.677 1.15 1.258.35 2.648-.091 3.877.186.569 1.244.679 2.681 1.187 3.962.252.479.833.599 1.328.598-.57-1.325-.988-2.714-1.18-4.146-.11-.575-.182-1.354-.835-1.566-.98-.288-2.014-.128-3.016-.095-.04-.309-.078-.616-.116-.925 1.115-.014 2.23.014 3.346-.016-.632-1.305-2.316-.736-3.457-.795-.118-.796-.191-1.601-.322-2.395-.106-.682-1.027-1.028-1.566-.598zm-3.456 7.383c-.051 2.367 2.53 4.266 4.779 3.573 1.909-.47 3.21-2.57 2.702-4.487l-.958-.003c.419 1.331-.251 2.87-1.54 3.421-1.502.779-3.535-.153-3.936-1.793-.433-1.443.468-3.074 1.91-3.498l-.116-.931c-1.628.452-2.911 1.99-2.839 3.718z"/>
    <path fill="#fff" d="M11.531 4.902c1.399-.58 2.201 1.759.773 2.179-1.397.574-2.195-1.759-.772-2.179zM10.618 7.664c.539-.43 1.46-.083 1.566.598.13.795.204 1.599.322 2.396 1.141.059 2.824-.51 3.457.795-1.115.03-2.231.002-3.347.016l.116.925c1.002-.032 2.037-.193 3.016.095.653.212.726.991.835 1.566.193 1.432.611 2.821 1.181 4.146-.495.002-1.076-.119-1.328-.598-.508-1.279-.618-2.717-1.187-3.961-1.23-.277-2.619.164-3.877-.186-.485-.157-.612-.706-.677-1.15-.143-1.101-.224-2.209-.414-3.304-.082-.459-.094-1.043.338-1.338z"/>
    <path fill="#fff" d="M7.162 15.047c-.072-1.728 1.211-3.265 2.839-3.718.04.31.078.621.116.931-1.442.424-2.343 2.055-1.909 3.498.401 1.639 2.434 2.572 3.936 1.793 1.29-.551 1.961-2.09 1.54-3.422l.958.003c.508 1.918-.792 4.018-2.702 4.487-2.249.693-4.83-1.206-4.779-3.573z"/>
</svg>
