<svg xmlns="http://www.w3.org/2000/svg" width="24" height="24">
    <path fill="#5462ad" d="M.053.593A10.8 10.8 0 0 0 .609.058l.113.039c.763.328 1.606.224 2.413.223C9.567.313 16 .33 22.433.31c.49.006.965.133 1.428.283-.011 6.837-.004 13.675-.006 20.512-.001.824-.07 1.659.122 2.469l.072.355-.478-.07c-1.453-.242-2.931-.078-4.395-.124-6.175.045-12.353-.09-18.525.072-.181-.437-.333-.894-.336-1.371.012-6.433.001-12.866.006-19.3C.32 2.327.433 1.479.095.714L.052.593zm.601.395C.498 1.569.579 2.18.566 2.774.567 9.328.571 15.88.564 22.433c-.013.494.084 1.225.755 1.129 6.756.029 13.514-.002 20.27.014.585.014 1.175.005 1.749-.122l.164.01.029-.273a2.79 2.79 0 0 0 .164-.879c-.01-6.312 0-12.625-.005-18.936-.007-.857.057-1.721-.1-2.57l-.15-.001c-.314-.151-.654-.256-1.006-.246C15.519.573 8.603.558 1.688.566 1.33.603.793.562.654.987z"/>
    <path fill="#0e238b" d="M.722.096C8.309.025 15.901.08 23.489.068c.175.181.353.358.535.532-.03 7.657.065 15.319-.048 22.974-.192-.809-.123-1.645-.122-2.469.002-6.837-.005-13.675.006-20.512-.463-.151-.938-.277-1.428-.283C15.999.329 9.566.312 3.134.32 2.327.321 1.484.425.721.097zM.096.714c.338.765.224 1.612.226 2.422-.005 6.434.006 12.867-.006 19.3.004.478.156.935.336 1.371 6.171-.163 12.35-.028 18.525-.072 1.464.046 2.942-.118 4.395.124-7.65.107-15.308.018-22.962.045a19 19 0 0 0-.541-.521C.081 15.827.027 8.269.097.714z"/>
    <path fill="#0e238b" d="M1.261 1.802c-.021-.193-.006-.408.174-.523 6.595-.033 13.194-.005 19.791-.018.486-.002.976-.025 1.459.049.095.054.189.112.28.176-.164 1.065-.099 2.144-.105 3.218-.005 5.508.005 11.016-.006 16.523.004.461.048.92.106 1.377a5.343 5.343 0 0 1-.241.235c-1.054-.15-2.12-.094-3.182-.098H4.582c-1.032.001-2.071-.051-3.096.104a3.155 3.155 0 0 1-.177-.281C1.2 15.649 1.302 8.719 1.261 1.802zm.636.097c-.273.697-.051 1.471-.1 2.201-.066 6.016.07 12.034-.045 18.051.461.039.921.068 1.383.064 6.388-.039 12.778.031 19.165-.034.055-5.584.005-11.17.023-16.754-.023-1.23.058-2.464-.051-3.692-6.419-.084-12.839.007-19.258-.045-.374.022-.802-.03-1.118.209z"/>
    <path fill="#b9bfdd" d="M.654.988C.793.563 1.329.604 1.688.567 8.603.559 15.519.574 22.434.56c.352-.01.692.095 1.006.246C17.114.811 10.789.807 4.463.81 3.264.82 2.061.755.865.884.736 6.818.847 12.759.81 18.695c.041 1.55-.096 3.107.087 4.649 7.476.188 14.963-.034 22.441.112-.574.127-1.164.136-1.749.122-6.756-.017-13.514.014-20.27-.014-.671.096-.768-.634-.755-1.129.007-6.554.004-13.106.002-19.659C.579 2.181.498 1.571.654.99z"/>
    <path fill="#fcfcfd" d="M.865.883C2.06.754 3.264.819 4.463.809 10.789.807 17.114.81 23.44.805l.15.001c-.146 1.416-.049 2.839-.07 4.258.008 6.042-.016 12.086.011 18.127l-.029.273-.164-.01c-7.477-.146-14.964.076-22.441-.112-.183-1.543-.046-3.099-.087-4.649C.847 12.757.736 6.816.865.882zm.514.224c1.255.21 2.54.123 3.807.147 5.759-.013 11.519.023 17.276-.021l.223.076c-.484-.075-.973-.052-1.459-.049-6.597.013-13.196-.014-19.791.018-.18.116-.194.33-.174.523.041 6.917-.06 13.846.048 20.762a8.828 8.828 0 0 0-.066-.14c.023-6.347-.001-12.698.013-19.046-.01-.667.016-1.348-.15-2-.129.659-.099 1.331-.093 1.998.005 6.27-.006 12.542.004 18.812-.058.638.566 1.031 1.147.943 6.718-.022 13.436.002 20.153-.012.517.04.978-.397.923-.923.002-6.755.005-13.514-.001-20.269.041-.522-.412-.954-.929-.912-6.311-.01-12.622.001-18.933-.005-.667-.006-1.34-.037-1.998.095z"/>
    <path fill="#b2b9da" d="M1.379 1.107c.658-.133 1.331-.101 1.998-.095 6.311.006 12.622-.005 18.933.005.516-.042.97.39.929.912.006 6.755.004 13.514.001 20.269.055.526-.405.962-.923.923-6.716.014-13.435-.01-20.153.012-.581.088-1.205-.305-1.147-.943-.01-6.27.001-12.542-.004-18.812-.006-.667-.036-1.34.093-1.998.165.651.14 1.333.15 2-.014 6.347.01 12.698-.013 19.046.017.035.051.105.066.14.054.096.113.191.177.281.343.075.693.115 1.044.123 5.87-.013 11.739-.002 17.609-.006.86-.011 1.735.086 2.578-.123.083-.076.163-.154.241-.235.197-.806.115-1.641.121-2.463V4.103c-.007-.872.076-1.756-.116-2.615a3.279 3.279 0 0 0-.28-.176 19.547 19.547 0 0 0-.223-.076c-5.758.043-11.518.007-17.276.021-1.268-.024-2.552.063-3.807-.147z"/>
    <path fill="#c1c6e0" d="M23.589.807c.157.849.093 1.713.1 2.57.005 6.311-.005 12.624.005 18.936 0 .3-.069.595-.164.879-.027-6.041-.002-12.084-.011-18.127.021-1.419-.076-2.843.07-4.258z"/>
    <path fill="#5c6ab1" d="M22.965 1.486c.192.859.109 1.743.116 2.615v16.04c-.006.821.076 1.657-.121 2.463a11.556 11.556 0 0 1-.106-1.377c.011-5.507.001-11.015.006-16.523.006-1.073-.059-2.153.105-3.218z"/>
    <path fill="#1a2d91" d="M1.897 1.899c.316-.239.744-.187 1.118-.209 6.419.052 12.839-.04 19.258.045.109 1.228.028 2.462.051 3.692-.018 5.584.033 11.17-.023 16.754-6.387.065-12.777-.005-19.165.034a14.85 14.85 0 0 1-1.383-.064c.115-6.017-.022-12.035.045-18.051.049-.73-.172-1.504.1-2.201zm1.057 6.872l-.011.452c2.992 2.964 5.967 5.946 8.946 8.921.295.356.598-.185.816-.375 2.869-2.849 5.731-5.707 8.598-8.558l-.012-.416c-.747-.615-1.387-1.342-2.08-2.014l-.418.022c-2.094 2.065-4.169 4.15-6.248 6.23-.176.233-.473.193-.73.21-1.182-1.374-2.535-2.591-3.797-3.891-.892-.857-1.71-1.798-2.683-2.569l-.394.025A17.277 17.277 0 0 1 2.955 8.77z"/>
    <path fill="#fefefe" d="M2.954 8.771A17.277 17.277 0 0 0 4.94 6.809l.394-.025c.973.771 1.791 1.711 2.683 2.569 1.261 1.3 2.615 2.517 3.797 3.891.257-.017.554.023.73-.21 2.079-2.08 4.155-4.166 6.248-6.23l.419-.022c.693.672 1.334 1.399 2.08 2.014l.012.416c-2.867 2.851-5.729 5.709-8.598 8.558-.218.191-.521.731-.816.375-2.979-2.975-5.954-5.957-8.946-8.921l.011-.452z"/>
    <path fill="#5a68b0" d="M1.487 22.845c1.025-.154 2.064-.103 3.096-.104h14.955c1.061.004 2.127-.052 3.182.098-.843.209-1.719.112-2.579.123-5.87.004-11.739-.007-17.609.006a5.462 5.462 0 0 1-1.044-.123z"/>
</svg>
