<svg xmlns="http://www.w3.org/2000/svg" width="24" height="24">
    <path fill="#fff" d="M11.113 0H12.9c3.311.245 6.482 1.925 8.528 4.541 1.495 1.867 2.385 4.193 2.572 6.574v1.781c-.246 3.324-1.936 6.505-4.567 8.553-1.858 1.478-4.163 2.359-6.525 2.551h-1.805c-1.872-.156-3.712-.728-5.318-1.706-2.494-1.506-4.414-3.94-5.27-6.727-.274-.862-.425-1.758-.514-2.657v-1.812c.189-2.364 1.07-4.673 2.55-6.531C4.6 1.934 7.786.241 11.113 0zm.253.596c-1.986.102-3.94.747-5.603 1.836C3.184 4.099 1.336 6.849.776 9.871c-.615 3.175.203 6.594 2.206 9.135a11.448 11.448 0 0 0 7.172 4.268 11.43 11.43 0 0 0 5.499-.45c2.805-.935 5.202-3.014 6.533-5.654 1.557-3.019 1.649-6.74.244-9.832a11.469 11.469 0 0 0-5.701-5.739A11.375 11.375 0 0 0 11.367.595z"/>
    <path fill="#fff" d="M6.059 5.913c.712-.362 1.546-.416 2.323-.274 1.466.266 2.685 1.54 2.89 3.015.109.779.007 1.601-.369 2.298-.182.349-.443.646-.686.954-1.233 1.548-2.468 3.094-3.7 4.642 1.598.003 3.197-.002 4.796.002.002.627.001 1.253 0 1.88H4.019c-.002-.551 0-1.102-.002-1.653-.013-.141.116-.232.188-.337 1.61-2.015 3.224-4.027 4.83-6.046.552-.67.527-1.717-.047-2.366-.585-.749-1.809-.745-2.48-.116-.395.343-.577.866-.609 1.377H4.018c-.045-1.4.794-2.755 2.04-3.377zM12.872 5.663h6.815c.002.628.001 1.256 0 1.883l-5.036.001v2.765c.989-.767 2.439-.883 3.533-.275.978.512 1.61 1.575 1.692 2.664.086.968.103 1.951-.036 2.916-.194 1.256-1.169 2.293-2.338 2.728-1.171.392-2.488.107-3.494-.576-.88-.557-1.283-1.609-1.375-2.607.626-.007 1.252-.004 1.878-.001.103.484.337.975.779 1.234.52.297 1.163.302 1.732.158.397-.098.738-.412.814-.822.244-1.075.361-2.244-.035-3.297a1.21 1.21 0 0 0-.803-.791c-.517-.146-1.11-.165-1.589.11-.339.19-.585.506-.774.84-.588 0-1.176.002-1.763 0v-6.93z"/>
    <path fill="#00f" d="M11.366.596A11.375 11.375 0 0 1 16.728 1.6a11.469 11.469 0 0 1 5.701 5.739c1.404 3.092 1.313 6.813-.244 9.832-1.331 2.64-3.727 4.719-6.533 5.654-1.76.598-3.667.748-5.499.45a11.448 11.448 0 0 1-7.172-4.268C.978 16.465.16 13.047.775 9.872c.56-3.022 2.408-5.771 4.987-7.439A11.356 11.356 0 0 1 11.365.597zM6.059 5.913c-1.247.622-2.086 1.977-2.04 3.377H5.9c.032-.51.214-1.034.609-1.377.671-.629 1.895-.633 2.48.116.574.649.599 1.696.047 2.366-1.605 2.019-3.219 4.031-4.83 6.046-.072.105-.201.196-.188.337.001.551 0 1.102.002 1.653h7.294c.001-.627.002-1.253 0-1.88-1.599-.005-3.198 0-4.796-.002 1.232-1.548 2.467-3.094 3.7-4.642.242-.308.503-.605.686-.954.376-.697.478-1.519.369-2.298-.205-1.475-1.424-2.749-2.89-3.015-.776-.142-1.611-.088-2.323.274zm6.813-.25v6.93c.588.002 1.176.001 1.763 0 .189-.333.435-.649.774-.84.479-.276 1.072-.256 1.589-.11.382.107.679.418.802.791.396 1.053.278 2.222.035 3.297-.075.41-.417.724-.814.822-.568.144-1.211.139-1.732-.158-.442-.258-.676-.75-.779-1.234-.626-.002-1.252-.005-1.878.001.092.998.495 2.05 1.375 2.607 1.005.683 2.323.968 3.494.576 1.17-.435 2.144-1.472 2.338-2.728.139-.965.122-1.948.036-2.916-.082-1.09-.713-2.152-1.692-2.664-1.094-.608-2.544-.493-3.533.275V7.547l5.036-.001c.001-.628.002-1.256 0-1.883h-6.815z"/>
</svg>
