<svg xmlns="http://www.w3.org/2000/svg" width="24" height="24">
    <path fill="#003f9b" opacity=".91" d="M0 0h.657l-.11.047C.335.16.137.321.055.556L0 .682V0zM23.321 0H24v.657l-.05-.108a.874.874 0 0 0-.504-.495L23.321 0zM23.939 23.506L24 23.38V24h-.636c.237-.103.449-.264.575-.494z"/>
    <path fill="#e7edf6" d="M.657 0h22.664l.125.054c-.981.079-1.964.033-2.946.043H2.6C1.915.106 1.23.114.547.047L.657 0z"/>
    <path fill="#fff" d="M.055.556C.137.321.335.16.547.047 1.23.114 1.915.106 2.6.097h17.9c.982-.01 1.965.036 2.946-.043a.874.874 0 0 1 .504.495c-.095 1.315-.028 2.634-.047 3.951.024 6.335-.048 12.673.036 19.006-.126.23-.338.391-.575.494H.67a1.055 1.055 0 0 1-.624-.545c.092-.916.043-1.837.052-2.755C.1 14.634.097 8.567.099 2.5A21.37 21.37 0 0 0 .055.556zM.729.443C.475.489.404.773.424.994c.004 7.37-.002 14.739.003 22.109a.424.424 0 0 0 .469.476c7.402.006 14.806.005 22.209.001a.428.428 0 0 0 .472-.476c.003-7.402.004-14.805 0-22.208.048-.326-.279-.525-.571-.475C15.581.438 8.152.394.729.443z"/>
    <path fill="#fff" d="M6.178 5.557a25.237 25.237 0 0 1 11.8.081c.471 1.825.924 3.654 1.401 5.477.665.34 1.147 1.025 1.142 1.786.008 1.421.021 2.844-.008 4.265a41.891 41.891 0 0 0-1.228-.003c-.025.768.095 1.563-.199 2.297a2.803 2.803 0 0 1-1.721-.011c-.282-.734-.199-1.521-.208-2.288H6.847c-.012.768.079 1.556-.208 2.289a2.791 2.791 0 0 1-1.722.007c-.289-.734-.176-1.527-.197-2.295a168.1 168.1 0 0 0-1.23-.001c.003-1.456-.016-2.912.009-4.367.012-.724.503-1.354 1.128-1.678.529-1.85 1.035-3.706 1.551-5.559zm.217 3.547c.485.091.97.181 1.453.282.109-.548.562-1.049 1.151-1.046.61-.057 1.196.45 1.243 1.057.044.621-.267 1.218-.701 1.645-.994 1.009-1.967 2.038-2.953 3.055 0 .423-.001.845.002 1.268 1.715-.004 3.429.005 5.144-.004-.002-.458-.001-.915-.002-1.372-.999-.005-1.998 0-2.998-.003.65-.667 1.304-1.33 1.942-2.009.738-.773 1.204-1.891.984-2.964-.203-1.024-1.065-1.877-2.09-2.071-1.426-.325-2.953.72-3.175 2.162zm8.416-.21c-.005.639 0 1.279-.003 1.918-.642.003-1.283.001-1.925.001-.001.431-.002.861.001 1.292.642.005 1.283-.004 1.925.007v1.901h1.279v-1.905c.635-.003 1.27 0 1.906-.002.017-.431.013-.861.01-1.292-.638-.002-1.277.001-1.916-.002-.002-.639.001-1.278-.002-1.918-.425-.002-.85-.001-1.275 0z"/>
    <path fill="#0046ac" d="M.729.443C8.152.394 15.581.438 23.006.421c.292-.05.619.149.571.475.004 7.403.003 14.806 0 22.208a.428.428 0 0 1-.472.476c-7.403.004-14.807.005-22.209-.001a.424.424 0 0 1-.469-.476C.422 15.733.428 8.364.424.994.404.773.475.489.729.443zm5.449 5.114c-.516 1.853-1.022 3.709-1.551 5.559-.625.324-1.116.954-1.128 1.678-.025 1.455-.006 2.911-.009 4.367.41-.001.82-.001 1.23.001.021.768-.092 1.561.197 2.295a2.791 2.791 0 0 0 1.722-.007c.287-.733.196-1.521.208-2.289h10.31c.009.767-.074 1.554.208 2.288.554.192 1.163.18 1.721.011.294-.734.174-1.529.199-2.297.409-.004.819-.005 1.228.003.029-1.421.016-2.844.008-4.265.005-.761-.477-1.446-1.142-1.786-.477-1.823-.93-3.652-1.401-5.477a25.237 25.237 0 0 0-11.8-.081z"/>
    <path fill="#dee7f2" d="M0 .682L.055.556C.1 1.203.113 1.852.099 2.5.097 8.567.1 14.634.098 20.7c-.009.918.04 1.839-.052 2.755L0 23.345V.682z"/>
    <path fill="#e7ecf6" d="M23.95.549l.05.108V23.38l-.061.126c-.084-6.333-.012-12.671-.036-19.006.019-1.317-.048-2.636.047-3.951z"/>
    <path d="M6.395 9.104c.222-1.442 1.749-2.487 3.175-2.162 1.025.194 1.887 1.047 2.09 2.071.22 1.073-.246 2.191-.984 2.964-.638.679-1.292 1.342-1.942 2.009 1 .003 1.999-.002 2.998.003.001.457 0 .914.002 1.372-1.715.009-3.429 0-5.144.004-.003-.423-.002-.845-.002-1.268.986-1.017 1.959-2.046 2.953-3.055.434-.427.745-1.024.701-1.645-.047-.607-.633-1.114-1.243-1.057-.589-.003-1.042.498-1.151 1.046-.483-.101-.968-.191-1.453-.282zM14.811 8.894c.425-.001.85-.002 1.275 0 .003.64 0 1.279.002 1.918.639.003 1.278 0 1.916.002.003.431.007.861-.01 1.292-.636.002-1.271-.001-1.906.002v1.905h-1.279v-1.901c-.642-.011-1.283-.002-1.925-.007-.003-.431-.002-.861-.001-1.292.642 0 1.283.002 1.925-.001.003-.639-.002-1.279.003-1.918z"/>
    <path fill="#0042a3" opacity=".95" d="M0 23.345l.046.11c.121.265.353.449.624.545H0v-.655z"/>
</svg>
