<svg xmlns="http://www.w3.org/2000/svg" width="24" height="24">
    <path fill="#fff" d="M11.111 0h1.792c3.31.246 6.48 1.925 8.526 4.541 1.496 1.867 2.385 4.193 2.572 6.575v1.782c-.247 3.323-1.937 6.503-4.567 8.551-1.856 1.477-4.159 2.357-6.52 2.551h-1.813c-1.871-.156-3.71-.728-5.316-1.706-2.494-1.506-4.415-3.94-5.271-6.728C.24 14.705.09 13.811 0 12.914v-1.819c.19-2.363 1.071-4.672 2.55-6.528C4.598 1.934 7.784.241 11.11 0zm.255.596c-1.987.102-3.94.747-5.604 1.836-2.626 1.697-4.492 4.516-5.017 7.6-.562 3.14.272 6.498 2.255 8.999 1.84 2.375 4.653 3.967 7.639 4.311 1.681.2 3.408.027 5.012-.518 2.806-.934 5.203-3.014 6.533-5.654 1.557-3.019 1.649-6.74.244-9.832a11.46 11.46 0 0 0-6.161-5.936 11.378 11.378 0 0 0-4.901-.807z"/>
    <path fill="#fff" d="M15.815 5.551c1.607-.219 3.377.722 3.9 2.295.15.446.209.919.208 1.388v4.734c-.005.711.045 1.44-.172 2.128-.401 1.406-1.828 2.354-3.253 2.422a3.778 3.778 0 0 1-3.133-1.367c-.515-.642-.713-1.482-.712-2.292 0-1.906-.001-3.812.001-5.719.005-.838.237-1.705.801-2.344a3.798 3.798 0 0 1 2.359-1.245zm.189 1.882a1.593 1.593 0 0 0-1.101.624c-.273.361-.364.825-.363 1.27v5.391c0 .434.08.887.336 1.247.641.92 2.225.907 2.846-.029.242-.356.318-.795.319-1.219V9.373c.001-.382-.053-.774-.237-1.113-.328-.647-1.106-.939-1.799-.829zM6.059 5.913c.712-.362 1.546-.416 2.323-.274 1.503.273 2.744 1.605 2.904 3.126a3.71 3.71 0 0 1-.943 2.984c-1.275 1.6-2.552 3.199-3.826 4.8 1.598.003 3.197-.002 4.796.002.002.627.001 1.253 0 1.88H4.02c-.002-.551 0-1.102-.002-1.652-.014-.142.116-.232.188-.337 1.61-2.015 3.225-4.027 4.83-6.046.543-.66.53-1.69-.026-2.34-.576-.773-1.822-.78-2.501-.142-.395.343-.577.866-.609 1.377-.627.001-1.253.002-1.88 0-.046-1.4.793-2.755 2.04-3.377z"/>
    <path fill="#00f" d="M11.366.596c1.666-.097 3.353.18 4.901.807a11.464 11.464 0 0 1 6.161 5.936c1.405 3.092 1.313 6.813-.244 9.832-1.331 2.64-3.727 4.719-6.533 5.654a11.44 11.44 0 0 1-5.012.518C7.654 22.998 4.841 21.407 3 19.032 1.018 16.531.183 13.173.745 10.033c.524-3.084 2.391-5.903 5.017-7.6A11.357 11.357 0 0 1 11.366.597zm4.449 4.955a3.795 3.795 0 0 0-2.359 1.245c-.563.639-.795 1.507-.801 2.344-.002 1.906-.001 3.812-.001 5.719-.001.81.197 1.65.712 2.292a3.778 3.778 0 0 0 3.133 1.367c1.425-.068 2.851-1.016 3.253-2.422.217-.688.167-1.417.172-2.128V9.234c0-.469-.058-.942-.208-1.388-.524-1.573-2.293-2.514-3.9-2.295zm-9.756.362c-1.247.622-2.086 1.977-2.04 3.377.627.002 1.253.001 1.88 0 .032-.51.214-1.034.609-1.377.679-.638 1.925-.631 2.501.142.556.649.57 1.679.026 2.34-1.605 2.019-3.219 4.031-4.83 6.046-.072.105-.202.196-.188.337.002.551 0 1.102.002 1.652h7.293c.001-.627.002-1.253 0-1.88-1.599-.005-3.198 0-4.796-.002 1.274-1.601 2.551-3.2 3.826-4.8a3.71 3.71 0 0 0 .943-2.984c-.16-1.52-1.401-2.853-2.904-3.126-.777-.142-1.611-.088-2.323.274z"/>
    <path fill="#00f" d="M16.004 7.433c.693-.111 1.471.182 1.799.829.184.339.239.731.237 1.113v5.344c0 .423-.077.863-.319 1.219-.622.935-2.205.948-2.846.029-.256-.36-.336-.814-.336-1.247V9.329c0-.445.09-.909.363-1.27a1.59 1.59 0 0 1 1.101-.624z"/>
</svg>
