<svg xmlns="http://www.w3.org/2000/svg" width="24" height="24">
    <path fill="#c0111e" d="M11.1 0h1.774c1.427.175 2.852.473 4.158 1.094C20.96 2.846 23.663 6.849 24 11.116v1.732c-.334 4.595-3.462 8.851-7.818 10.404-1.055.401-2.17.595-3.283.748h-1.774c-1.423-.174-2.846-.478-4.148-1.097C3.049 21.153.341 17.155 0 12.888V11.14C.32 6.862 3.035 2.849 6.967 1.095 8.264.477 9.683.182 11.1.001zm-.131 2.339a9.708 9.708 0 0 0-6.256 3.217C2.045 8.502 1.52 13.124 3.439 16.602c1.721 3.292 5.461 5.372 9.167 5.09 3.698-.179 7.141-2.698 8.447-6.16 1.09-2.777.817-6.053-.752-8.594-1.877-3.172-5.675-5.028-9.331-4.6z"/>
    <path fill="#fff" d="M10.969 2.339c3.656-.428 7.454 1.428 9.331 4.6 1.57 2.542 1.842 5.818.752 8.594-1.306 3.462-4.748 5.981-8.447 6.16-3.706.282-7.446-1.799-9.167-5.09-1.919-3.478-1.393-8.1 1.274-11.046a9.705 9.705 0 0 1 6.256-3.217zM5.185 6.016l.001 8.232a4.083 4.083 0 0 1-.317.271c-.008.404-.01.809-.002 1.213.276.175.574.311.883.416.035.518-.067 1.057.065 1.562.325.488 1.026.185 1.514.266.853.029.535-1.088.601-1.621 1.039.781 2.554.79 3.592-.001.078.515-.193 1.217.283 1.586.523.066 1.061.05 1.586.01.564-.4.211-1.217.308-1.8.295-.134.668-.194.871-.469-.005-.482.199-1.134-.3-1.439-.01-2.742-.001-5.484-.005-8.227H5.183zm11.673 5.198c-.618.247-.248 1.326.402 1.051.65-.239.253-1.357-.402-1.051zm.943 1.094c-.871-.232-1.158.905-1.784 1.27-.04.538.611.341.826.702-.272.868-.906 1.7-.638 2.648.059.366-.037 1.148.553 1.034.524-.119.239-.722.173-1.073-.221-.636.238-1.207.445-1.777.331.85.562 1.741.938 2.57.202.401.827.163.739-.265-.308-1.133-.708-2.244-1.046-3.37.292-.096.598-.125.904-.116.076-.174.154-.347.233-.518-.26-.486-.53-.967-.797-1.45-.182.114-.362.232-.545.344z"/>
    <path fill="#fff" d="M10.133 6.716c1.145-.01 2.291-.002 3.437-.004v7.574c-1.146-.001-2.292.005-3.437-.004V6.715z"/>
    <path d="M5.185 6.016h9.082c.004 2.743-.005 5.485.005 8.227.499.305.295.956.3 1.439-.203.275-.576.335-.871.469-.097.583.256 1.4-.308 1.8-.526.041-1.063.056-1.586-.01-.476-.37-.205-1.072-.283-1.586-1.038.791-2.552.782-3.592.001-.066.533.252 1.65-.601 1.621-.488-.082-1.189.222-1.514-.266-.132-.505-.03-1.044-.065-1.562a4.144 4.144 0 0 1-.883-.416 32.7 32.7 0 0 1 .002-1.213c.11-.085.215-.175.317-.271l-.001-8.232zm4.948.7v7.567c1.145.008 2.291.002 3.437.004V6.713c-1.146.001-2.292-.006-3.437.004zM16.858 11.214c.655-.306 1.052.812.402 1.051-.65.275-1.02-.804-.402-1.051z"/>
    <path d="M17.801 12.308c.182-.113.362-.23.545-.344.266.482.536.964.797 1.45-.079.172-.157.344-.233.518a2.658 2.658 0 0 0-.904.116c.338 1.126.738 2.237 1.046 3.37.088.428-.538.666-.739.265-.377-.829-.607-1.721-.938-2.57-.208.57-.666 1.141-.445 1.777.066.35.352.954-.173 1.073-.59.114-.494-.668-.553-1.034-.268-.948.366-1.781.638-2.648-.215-.361-.865-.164-.826-.702.626-.365.913-1.501 1.784-1.27z"/>
</svg>
