<svg xmlns="http://www.w3.org/2000/svg" width="24" height="24">
    <path fill="#03408b" d="M4 0h16.125v24H4V0zm4.426 1.994c-.002 4.554 0 9.108-.001 13.661.753.002 1.505.002 2.257 0 .003-1.313-.002-2.628.002-3.941 1.18-.007 2.362.005 3.542-.005.899-.071 1.606-.78 2.001-1.547.848-1.508.79-3.314.651-4.984-.184-1.659-1.638-3.332-3.41-3.187-1.681.005-3.361 0-5.042.002zm4.141 16.489c.029.552.153 1.096.181 1.649-1.814.015-3.629 0-5.443.008-.002.54-.002 1.081 0 1.621 1.814.009 3.629-.01 5.444.01-.032.554-.156 1.099-.181 1.653.001.241.32.307.479.159 1.456-.88 2.915-1.755 4.371-2.635-1.458-.873-2.905-1.764-4.369-2.628-.161-.149-.487-.084-.482.163z"/>
    <path fill="#03408b" d="M10.686 4.438c1.045.032 2.104-.068 3.141.082 1.028.368.947 1.62.959 2.511.031.832-.133 1.945-1.043 2.252-1.013.103-2.039.051-3.058.074-.001-1.639-.001-3.278.001-4.918z"/>
    <path fill="#fff" d="M8.426 1.994c1.681-.002 3.361.003 5.042-.002 1.772-.145 3.226 1.527 3.41 3.187.14 1.67.198 3.475-.651 4.984-.395.767-1.102 1.476-2.001 1.547-1.18.009-2.362-.003-3.542.005-.004 1.313.001 2.628-.002 3.941-.753.002-1.505.002-2.257 0 .001-4.553-.001-9.107.001-13.661zm2.26 2.444c-.002 1.64-.002 3.279-.001 4.918 1.019-.023 2.045.029 3.058-.074.909-.307 1.073-1.419 1.043-2.252-.012-.891.069-2.142-.959-2.511-1.037-.15-2.095-.05-3.141-.082zM12.567 18.483c-.005-.247.321-.312.482-.163 1.463.863 2.911 1.755 4.369 2.628-1.456.88-2.915 1.755-4.371 2.635-.159.147-.478.082-.479-.159.025-.554.149-1.099.181-1.653-1.815-.021-3.63-.001-5.444-.01a218.97 218.97 0 0 1 0-1.621c1.814-.008 3.629.008 5.443-.008-.028-.553-.152-1.097-.181-1.649z"/>
</svg>
