<svg xmlns="http://www.w3.org/2000/svg" width="24" height="24">
    <path fill="#1e1e1e" opacity=".84" d="M10.805 0h2.375c1.685.332 3.517.628 4.88 1.744-3.227-1.846-7.236-2.113-10.682-.725C8.381.331 9.653.277 10.805 0z"/>
    <path fill="#fff" d="M7.378 1.019c3.446-1.388 7.456-1.121 10.682.725l.096.056c.472.356.949.707 1.448 1.026a21.15 21.15 0 0 1 1.58 1.589c.078.22.211.415.41.542l.041.035c2.034 2.924 2.806 6.728 1.807 10.176-.262 1.016-.731 1.957-1.192 2.894l-.054.09c-.356.47-.702.949-1.021 1.447-.67.728-1.369 1.433-2.162 2.028a6.151 6.151 0 0 0-.871.574 2.32 2.32 0 0 1-.082.054c-3.106 1.754-6.971 2.156-10.312.834-.625-.232-1.202-.569-1.812-.835l-.08-.053a6.225 6.225 0 0 0-.872-.575c-.793-.595-1.488-1.302-2.161-2.027a23.067 23.067 0 0 0-1.021-1.45l-.053-.086c-1.775-3.132-2.161-7.042-.803-10.4.353-.95.896-1.807 1.418-2.67a.46.46 0 0 1 .041-.036c.198-.127.331-.323.409-.544a22.731 22.731 0 0 1 1.58-1.586c.5-.319.979-.672 1.453-1.028.499-.28 1.009-.539 1.529-.78zm3.464-.245c-3.689.338-7.103 2.66-8.818 5.938-1.819 3.37-1.735 7.673.222 10.967 1.937 3.385 5.731 5.606 9.635 5.61 3.75.074 7.445-1.894 9.506-5.022a11.297 11.297 0 0 0 1.757-8.07c-.486-3.15-2.4-6.034-5.095-7.728C15.931 1.105 13.344.515 10.842.775z"/>
    <path fill="#fff" d="M5.866 7.193c-.001-.497.496-.851.967-.8 3.445.001 6.893-.006 10.338.004.498-.035.937.419.892.914-.006 1.219.024 2.441-.019 3.66-4.057.037-8.125.073-12.179-.018-.01-1.253-.018-2.507.001-3.76zM5.867 11.257c4.051-.094 8.118-.06 12.173-.017.031 1.247.06 2.5-.014 3.743l-.518.036c-.024.866.042 1.735-.031 2.599-.472.172-1.019.054-1.518.047-.037-.605-.017-1.211-.022-1.817l-.379-.002c-.023.612.041 1.229-.048 1.838-.5.018-1.002.024-1.501-.012-.043-.606-.02-1.214-.023-1.82-1.349-.007-2.698-.004-4.046-.002-.022.586.04 1.176-.031 1.759-.457.193-1.025.056-1.522.058-.031-.605-.016-1.21-.017-1.814a45.774 45.774 0 0 1-.38-.01c-.022.612.034 1.228-.043 1.837-.497.025-.995.024-1.49.001-.088-.882-.018-1.77-.04-2.654l-.538-.058c-.042-1.236-.022-2.474-.011-3.712zm1.367 2.185v1.112c.628.01 1.255.006 1.883.004.002-.373.002-.745 0-1.117-.628-.001-1.255-.004-1.883.001zm.733 1.577c.013.127.026.256.041.383l.364-.019a47.403 47.403 0 0 1-.006-.38l-.398.017zm1.97-.009l.001.38c1.342.006 2.683-.002 4.026.004l.035-.377c-1.354-.019-2.708-.006-4.062-.007zm5.616-.014l-.004.4.398-.006-.005-.384a50.75 50.75 0 0 1-.39-.01z"/>
    <path fill="#00f" d="M10.842.774c2.502-.259 5.089.33 7.207 1.694 2.695 1.694 4.609 4.578 5.095 7.728a11.297 11.297 0 0 1-1.757 8.07c-2.062 3.128-5.756 5.096-9.506 5.022-3.904-.004-7.698-2.225-9.635-5.61C.289 14.384.205 10.081 2.024 6.711 3.739 3.434 7.153 1.112 10.842.773zM5.866 7.193a162.507 162.507 0 0 0-.001 3.76c4.054.091 8.122.055 12.179.018.043-1.219.013-2.441.019-3.66.046-.496-.394-.949-.892-.914-3.445-.01-6.893-.002-10.338-.004-.472-.05-.968.304-.967.8zm.001 4.064c-.011 1.237-.031 2.476.011 3.712l.538.058c.022.884-.048 1.772.04 2.654.496.023.994.024 1.49-.001.077-.61.022-1.225.043-1.837l.38.01c.001.605-.014 1.21.017 1.814.497-.001 1.064.136 1.522-.058.071-.583.01-1.174.031-1.759 1.349-.001 2.698-.005 4.046.002.002.606-.02 1.214.023 1.82.499.036 1.001.03 1.501.012.089-.61.025-1.226.048-1.838l.379.002c.005.606-.016 1.212.022 1.817.499.007 1.046.125 1.518-.047.073-.864.007-1.733.031-2.599.173-.011.346-.023.518-.036.074-1.243.046-2.496.014-3.743-4.055-.043-8.122-.077-12.173.017z"/>
    <path fill="#00f" d="M7.234 13.442c.628-.005 1.255-.002 1.883-.001.002.372.002.744 0 1.117-.628.002-1.255.006-1.883-.004v-1.112zM7.967 15.019l.398-.017.006.38-.364.019a49.74 49.74 0 0 1-.041-.383zM9.937 15.01c1.354.001 2.708-.012 4.062.007l-.035.377c-1.343-.006-2.684.002-4.026-.004l-.001-.38z"/>
    <path fill="#242424" opacity=".82" d="M4.396 2.827a2.778 2.778 0 0 1 1.453-1.028 23.36 23.36 0 0 1-1.453 1.028z"/>
    <path fill="#252525" opacity=".82" d="M18.156 1.8c.58.173 1.093.538 1.448 1.026-.499-.319-.977-.67-1.448-1.026z"/>
    <path fill="#323232" opacity=".91" d="M2.406 4.957c-.049-.272.163-.479.409-.544a1.046 1.046 0 0 1-.409.544z"/>
    <path fill="#333" opacity=".91" d="M21.185 4.415c.246.062.458.27.41.542a1.041 1.041 0 0 1-.41-.542z"/>
    <path fill="#1d1d1d" opacity=".82" d="M0 10.818c.358-2.059.905-4.262 2.365-5.825-.522.863-1.066 1.72-1.418 2.67-1.358 3.359-.972 7.268.803 10.4C.638 16.703.332 14.878 0 13.197v-2.38z"/>
    <path fill="#1e1e1e" opacity=".83" d="M21.636 4.992C23.093 6.55 23.639 8.747 24 10.799v2.386c-.324 1.686-.635 3.515-1.748 4.878.461-.937.93-1.878 1.192-2.894.998-3.448.227-7.252-1.807-10.176z"/>
    <path fill="#1616ff" d="M15.553 14.996l.39.01.005.384-.398.006.004-.4z"/>
    <path fill="#212121" opacity=".8" d="M1.802 18.15c.358.472.702.953 1.021 1.45a2.777 2.777 0 0 1-1.021-1.45z"/>
    <path fill="#222" opacity=".8" d="M21.176 19.6c.319-.498.665-.977 1.021-1.447a2.776 2.776 0 0 1-1.021 1.447z"/>
    <path fill="#111" opacity=".75" d="M4.985 21.626c.306.167.599.359.872.575a1.268 1.268 0 0 1-.872-.575zM18.143 22.201c.274-.216.565-.407.871-.574a1.268 1.268 0 0 1-.871.574z"/>
    <path fill="#1b1b1b" opacity=".82" d="M5.938 22.254c.61.266 1.187.604 1.812.835 3.341 1.322 7.206.92 10.312-.834-1.36 1.108-3.179 1.418-4.858 1.745h-2.393c-1.685-.323-3.509-.637-4.873-1.746z"/>
</svg>
