<svg xmlns="http://www.w3.org/2000/svg" width="24" height="24">
    <path fill="#bebfc1" d="M1.36 0h21.26l.002.084c-6.744.017-13.487 0-20.231.008a4.655 4.655 0 0 1-.882-.066L1.36 0z"/>
    <path fill="#606267" d="M.019 1.411C.19.704.769.11 1.509.026c.291.051.587.073.882.066C9.135.084 15.878.101 22.622.084c.614-.018 1.066.491 1.378.96v22.094c-.243.326-.497.661-.86.863H1.045c-.485-.253-.919-.664-1-1.229.071-.507.041-1.019.041-1.528v-18.3c.006-.511.03-1.027-.068-1.532zM1.322.324C.655.488.213 1.169.253 1.842.25 8.462.255 15.082.25 21.701c.011.428-.044.877.118 1.285.25.611.917.951 1.56.914 6.776 0 13.553.003 20.329-.001.858.055 1.655-.675 1.616-1.547.008-6.84.005-13.68.002-20.52.045-.799-.619-1.566-1.434-1.56C15.575.26 8.708.273 1.841.266c-.174.006-.349.009-.518.057z"/>
    <path fill="#fff" d="M1.322.324c.168-.048.344-.051.518-.057 6.867.007 13.734-.006 20.6.006.816-.006 1.48.76 1.434 1.56.003 6.84.006 13.68-.002 20.52.04.872-.758 1.602-1.616 1.547-6.776.004-13.553.001-20.329.001-.643.037-1.309-.303-1.56-.914-.162-.407-.107-.857-.118-1.285.005-6.62 0-13.24.003-19.859C.212 1.17.654.489 1.321.325zm.183.46c-.476.094-.807.571-.769 1.049-.001 6.84-.003 13.679.001 20.518-.04.56.448 1.067 1.011 1.041 6.835.011 13.67 0 20.505.006.602.073 1.172-.439 1.126-1.05.002-6.837 0-13.673.001-20.509.067-.623-.509-1.162-1.124-1.087C15.34.775 8.419.711 1.506.784z"/>
    <path fill="#fff" d="M2.131 7.047c.527-.002 1.054-.003 1.581-.001.005 1.68-.006 3.36.006 5.04 5.565-.001 11.131.001 16.696-.001V9.184h1.58l.001 6.833h-1.581v-1.754c-5.568.002-11.136 0-16.703.001.005.584.002 1.169.003 1.754-.527-.002-1.054 0-1.581-.003-.001-2.989.001-5.979-.001-8.968z"/>
    <path fill="#fff" d="M5.271 9.05c.769-.224 1.605.455 1.557 1.251.035 1.013-1.321 1.628-2.061.938-.798-.593-.471-2.001.504-2.188zM8.1 9.942c.403-.408.996-.538 1.55-.547 2.485-.007 4.969-.028 7.454-.04.673-.001 1.412.105 1.918.591.447.408.583 1.022.717 1.586-4.078.004-8.157.005-12.236 0 .069-.564.18-1.171.597-1.59z"/>
    <path fill="#005598" d="M1.505.784C8.418.71 15.339.775 22.255.752c.614-.075 1.191.463 1.124 1.087-.001 6.836.001 13.672-.001 20.509.046.611-.523 1.123-1.126 1.05-6.835-.006-13.67.006-20.505-.006-.563.026-1.05-.481-1.011-1.041C.732 15.512.734 8.673.735 1.833c-.039-.478.292-.955.769-1.049zm.626 6.263c.002 2.989 0 5.979.001 8.968.527.003 1.054.001 1.581.003-.001-.585.002-1.17-.003-1.754 5.568-.001 11.136.001 16.703-.001v1.754h1.581l-.001-6.833h-1.58v2.901c-5.565.002-11.131 0-16.696.001-.011-1.68-.001-3.36-.006-5.04-.527-.002-1.054-.001-1.581.001zm3.14 2.003c-.975.188-1.302 1.595-.504 2.188.739.69 2.096.075 2.061-.938.048-.795-.788-1.475-1.557-1.251zm2.829.892c-.417.418-.528 1.026-.597 1.59 4.079.005 8.158.004 12.236 0-.134-.565-.27-1.178-.717-1.586-.507-.486-1.245-.592-1.918-.591-2.485.012-4.969.033-7.454.04-.554.009-1.148.139-1.55.547z"/>
    <path fill="#a4a6a7" d="M0 1.265l.019.145c.098.505.074 1.021.068 1.532v18.3c0 .509.029 1.022-.041 1.528L0 22.916V1.265z"/>
</svg>
