<svg xmlns="http://www.w3.org/2000/svg" width="24" height="24">
    <path fill="#f0c900" d="M7.571.121c.254-.137.551-.11.83-.111l8.049.001a.934.934 0 0 1 .852.488c.165.289.124.633.128.951v21.1c-.003.33.039.69-.144.984-.144.258-.417.414-.702.465H7.93c-.315-.051-.617-.227-.772-.513-.17-.282-.126-.624-.131-.938v-21.5A1.01 1.01 0 0 1 7.57.119zm.244.097c-.37.086-.663.444-.654.828-.002 7.268.002 14.536-.002 21.804-.068.489.334.99.837.982 2.802.002 5.605.002 8.407 0 .46.008.865-.421.838-.88L17.24 1.046c.017-.449-.381-.879-.839-.849-2.862.015-5.727-.028-8.587.021z"/>
    <path fill="#f0c900" d="M7.566 1.147c-.018-.273.191-.56.48-.548 2.769-.005 5.539-.004 8.308 0 .292-.015.51.27.49.546.002 1.93-.002 3.861-.004 5.793-3.091 1.791-6.188 3.575-9.282 5.362.003-3.718.003-7.436.007-11.154zm1.675 1.339h.41c-.023-.313.305-.585.602-.441.249.103.315.449.141.648-.357.46-.72.913-1.081 1.371-.116.139-.05.335-.063.5.554.001 1.107.002 1.661 0v-.415c-.381-.003-.763.001-1.145-.002.338-.438.703-.855 1.026-1.304.293-.448.009-1.104-.507-1.221-.53-.158-1.086.324-1.043.866zm2.826-.863c-.338.096-.604.417-.603.773-.005.469-.003.939-.001 1.408-.011.461.432.861.887.817a.84.84 0 0 0 .772-.822c0-.483.009-.966-.005-1.449-.029-.498-.573-.876-1.05-.726zm2.098-.003c-.342.091-.615.416-.615.776a94.28 94.28 0 0 0-.001 1.407c-.011.448.407.841.851.819.43-.006.814-.389.808-.822 0-.484.009-.969-.005-1.453-.03-.493-.564-.868-1.038-.728zm-3.04 4.035v1.578l.317.001c.014-.357-.024-.717.021-1.071.069-.273.51-.276.585-.006.05.356.008.718.022 1.076h.317c.014-.359-.027-.72.021-1.077.074-.268.51-.267.585 0 .049.356.008.718.022 1.077h.318c-.017-.411.039-.829-.031-1.234-.126-.423-.714-.462-.994-.17a.614.614 0 0 0-.86-.026 7.371 7.371 0 0 1-.01-.153 16.33 16.33 0 0 1-.313.003z"/>
    <path fill="#f0c900" d="M12.216 2.016a.416.416 0 0 1 .492.432c-.006.483.019.968-.014 1.449-.072.405-.727.408-.801.002-.033-.482-.007-.966-.014-1.449a.412.412 0 0 1 .338-.433zM14.269 2.022c.262-.081.549.149.525.423-.01.492.027.987-.02 1.476-.1.393-.742.363-.799-.04-.026-.477-.006-.957-.011-1.436a.414.414 0 0 1 .305-.424zM7.561 15.624c3.093-1.782 6.185-3.567 9.277-5.351v3.314c-3.09 1.79-6.188 3.569-9.279 5.357 0-1.107-.008-2.213.003-3.319zM7.564 22.164c3.09-1.762 6.185-3.514 9.277-5.272 0 2.004.005 4.009.004 6.013.026.3-.249.551-.541.528-2.736.002-5.472 0-8.208.001-.231.019-.475-.126-.514-.365-.039-.3-.01-.604-.018-.906z"/>
    <path d="M7.815.218c2.86-.05 5.726-.007 8.587-.021.459-.029.855.4.839.849.002 7.302 0 14.604.001 21.906.027.459-.378.888-.838.88-2.802.002-5.604.002-8.407 0-.504.009-.906-.492-.837-.982.003-7.269 0-14.537.002-21.804-.01-.384.283-.742.654-.828zm-.249.929c-.005 3.717-.003 7.436-.007 11.154 3.094-1.788 6.191-3.571 9.282-5.362.002-1.931.006-3.862.004-5.793.019-.277-.198-.561-.491-.546-2.769-.003-5.539-.005-8.308 0-.29-.012-.498.274-.48.548zm-.005 14.477c-.01 1.107-.003 2.213-.003 3.319 3.092-1.788 6.189-3.567 9.279-5.356v-3.314c-3.092 1.785-6.184 3.569-9.277 5.351zm.003 6.54c.008.302-.021.606.018.906.039.239.283.384.514.365 2.736 0 5.472.001 8.208-.001.293.023.567-.228.541-.528.001-2.004-.003-4.008-.004-6.013-3.092 1.758-6.187 3.51-9.277 5.272z"/>
    <path d="M9.241 2.486c-.042-.543.513-1.024 1.043-.866.516.117.8.773.507 1.221-.324.448-.689.866-1.026 1.304.381.003.764 0 1.145.002v.415H9.25c.013-.165-.053-.36.063-.5.36-.457.724-.91 1.081-1.371.175-.198.108-.544-.141-.648-.297-.144-.625.129-.602.441h-.41zM12.067 1.623c.477-.15 1.022.228 1.05.726.014.483.005.966.005 1.449a.84.84 0 0 1-.772.822c-.456.043-.898-.357-.887-.817-.003-.47-.003-.939.001-1.408 0-.357.266-.678.603-.773zm.149.393a.413.413 0 0 0-.338.433c.007.483-.019.968.014 1.449.075.405.73.404.801-.002.033-.482.008-.966.014-1.449a.417.417 0 0 0-.492-.432zM14.165 1.62c.474-.141 1.009.234 1.038.728.014.484.005.969.005 1.453.006.433-.378.816-.808.822-.444.022-.862-.372-.851-.819a94.26 94.26 0 0 1 .001-1.407c0-.36.273-.684.615-.776zm.104.402a.414.414 0 0 0-.305.424c.005.478-.015.958.011 1.435.057.404.699.434.799.041.047-.489.009-.985.02-1.476.025-.275-.262-.504-.525-.423zM11.125 5.655c.105 0 .208-.002.313-.003l.01.153a.613.613 0 0 1 .86.026c.279-.293.867-.253.994.17.07.405.015.824.031 1.235h-.318c-.014-.359.027-.721-.022-1.077-.075-.267-.511-.268-.585 0-.048.356-.007.718-.021 1.077h-.317c-.015-.358.027-.72-.022-1.076-.075-.27-.517-.267-.585.006-.045.354-.006.714-.021 1.071l-.317-.001V5.658z"/>
</svg>
