<svg xmlns="http://www.w3.org/2000/svg" width="24" height="24">
    <path fill="#0379c1" d="M0 0h24v24H0V0zm9.374 2.435a843.852 843.852 0 0 0-.93 4.74c.852.004 1.703.005 2.556-.001.053-1.58.104-3.16.149-4.74a87.52 87.52 0 0 0-1.775.001zm3.592-.001c.04 1.581.095 3.162.148 4.742.851.005 1.702.004 2.554-.001-.305-1.58-.615-3.16-.93-4.739a80.515 80.515 0 0 0-1.772-.001zM1.383 8.368c-.006.514-.006 1.026.001 1.54.741.143 1.814-.344 2.299.415.16.712.023 1.461.074 2.187.489.008.978.008 1.467 0 .179-.706.287-1.43.484-2.131.09-.33.448-.49.767-.474 3.682-.008 7.365 0 11.046-.004.354-.026.785.101.886.486.196.698.305 1.419.48 2.122.49.008.981.008 1.471.001.048-.729-.087-1.48.073-2.194.492-.751 1.557-.269 2.298-.41.009-.514.009-1.026.001-1.54-7.116-.006-14.231-.006-21.347 0zm6.27 2.835c-.682 3.399-1.347 6.802-2.013 10.205 1.64.009 3.281.006 4.922.001.109-3.402.213-6.804.314-10.207a432.555 432.555 0 0 0-3.222.001zm5.585-.002c.101 3.403.205 6.807.315 10.208 1.641.005 3.281.008 4.922-.001-.667-3.403-1.334-6.806-2.013-10.207h-3.224z"/>
    <path fill="#fff" d="M9.374 2.435a80.788 80.788 0 0 1 1.775-.001A937.54 937.54 0 0 1 11 7.174c-.852.006-1.703.005-2.556.001.305-1.581.616-3.162.93-4.74zM12.966 2.434c.59-.005 1.182-.006 1.772.001.315 1.579.625 3.159.93 4.739-.852.005-1.703.006-2.554.001-.053-1.58-.108-3.16-.148-4.742zM1.383 8.368c7.116-.006 14.231-.006 21.347 0 .008.514.008 1.026-.001 1.54-.741.141-1.806-.341-2.298.41-.16.714-.025 1.465-.073 2.194-.49.006-.981.006-1.471-.001-.175-.703-.284-1.424-.48-2.122-.101-.385-.532-.512-.886-.486-3.682.004-7.365-.004-11.046.004-.319-.017-.677.144-.767.474-.197.702-.305 1.426-.484 2.131-.489.008-.978.008-1.467 0-.051-.726.086-1.475-.074-2.187-.485-.759-1.558-.272-2.299-.415a52.705 52.705 0 0 1-.001-1.54z"/>
    <path fill="#fff" d="M7.653 11.203c1.074-.005 2.148-.004 3.222-.001a4313.94 4313.94 0 0 1-.314 10.207c-1.641.005-3.282.008-4.922-.001.667-3.403 1.331-6.806 2.013-10.205zM13.238 11.201h3.224c.68 3.402 1.347 6.804 2.013 10.207-1.641.009-3.281.006-4.922.001-.11-3.402-.214-6.806-.315-10.208z"/>
</svg>
