<svg xmlns="http://www.w3.org/2000/svg" width="24" height="24">
    <path fill="#dbdadb" d="M1.496 2.4h20.782l.129.085c-6.687.014-13.376-.002-20.063.008a6.14 6.14 0 0 1-.678-.043l-.17-.05z"/>
    <path fill="#231f20" d="M1.166 2.572c.165-.047.332-.087.499-.122.225.027.452.041.678.043 6.687-.01 13.376.006 20.063-.008l.043.026c.094.094.194.105.305.034.495.206.89.588 1.074 1.096-.095.122-.077.211.058.265v16.462a1.954 1.954 0 0 1-1.242 1.234H1.346l-.2-.066c-.526-.203-.898-.667-1.09-1.185.09-.117.07-.214-.056-.291V3.918c.133-.538.484-.989.961-1.266l.206-.078zm.307.141A1.701 1.701 0 0 0 .204 4.378v15.334a1.69 1.69 0 0 0 .938 1.56c.426.22.919.168 1.382.172 6.28-.002 12.56-.002 18.839 0 .486-.006 1.007.055 1.451-.186.571-.286.933-.915.91-1.551 0-4.898-.001-9.794.001-14.691-.006-.486.054-1.006-.19-1.45a1.689 1.689 0 0 0-1.541-.906c-6.46-.001-12.921.001-19.382-.001-.379.006-.766-.029-1.14.054z"/>
    <path fill="#fff" d="M22.45 2.51c.109-.062.211-.051.305.034-.11.071-.211.06-.305-.034zM1.473 2.713c.374-.083.761-.048 1.14-.054 6.462.002 12.922 0 19.382.001a1.687 1.687 0 0 1 1.541.906c.243.443.183.963.19 1.45-.002 4.897-.001 9.794-.001 14.691a1.69 1.69 0 0 1-.91 1.551c-.444.242-.966.18-1.451.186-6.279-.002-12.559-.002-18.839 0-.462-.005-.955.048-1.382-.172a1.688 1.688 0 0 1-.938-1.56V4.378c-.023-.761.53-1.487 1.269-1.665zm.086.355c-.584.136-1.012.713-.99 1.31v15.334c-.045.726.593 1.394 1.323 1.364 6.49.006 12.98-.001 19.47.002.454-.011.951.066 1.358-.185.413-.239.655-.712.638-1.186.002-5.078-.002-10.157.002-15.234.074-.73-.525-1.45-1.271-1.442-6.671-.014-13.345.001-20.017-.008a2.392 2.392 0 0 0-.514.045zM23.83 3.639l.058.038v.227c-.134-.054-.154-.142-.058-.265z"/>
    <path fill="#fff" d="M1.648 3.781c.136-.049.283-.048.426-.053 6.641.008 13.283-.003 19.925.005.361-.03.68.286.654.648.005 5.109.004 10.22.001 15.33a.62.62 0 0 1-.655.661c-6.672.005-13.343.001-20.016.002-.379.047-.74-.271-.705-.66-.006-5.082 0-10.163-.003-15.246-.02-.276.097-.587.375-.687zm2.054 2.322c.001 3.95-.004 7.9.002 11.85.718-.002 1.435-.002 2.154.001.014-1.553.002-3.106.006-4.658 1.391-.02 2.783.044 4.172-.038 1.972-.165 3.47-2.231 3.089-4.158-.252-1.658-1.811-2.946-3.471-2.984-1.983-.03-3.968-.005-5.951-.013zm12.664 2.298c-.23-.006-.401.302-.219.468.29.226.642.351.965.523l-3.574 3.345c.454.483.908.969 1.36 1.454 1.19-1.108 2.374-2.223 3.566-3.329.15.309.269.638.46.925.117.234.486.114.503-.13.245-1.236.463-2.478.697-3.718-1.252.154-2.507.297-3.757.462zm-8.08 7.181c-.339.789-.67 1.58-1 2.374.151.001.304.002.456.006l.24-.56c.341 0 .682-.001 1.024-.004l.242.562.45-.008c-.327-.788-.658-1.574-.984-2.362l-.429-.007zm1.816.004c-.001.791-.004 1.583.002 2.374l.419-.002c.002-.311.002-.622.005-.932l.629.001c.127.312.257.624.389.934.155-.002.309-.005.464-.006-.135-.322-.27-.646-.411-.966.297-.27.516-.727.234-1.089-.411-.524-1.163-.246-1.73-.314zm2.384.004c.002.789.002 1.578.001 2.366.139.001.278.002.418.005-.081-.478.106-.909.455-1.231.333.439.349 1.382 1.089 1.244-.248-.542-.518-1.073-.779-1.608l.623-.776c-.184-.001-.366 0-.549.001-.268.343-.546.678-.826 1.011-.006-.339-.006-.678-.006-1.017l-.425.006zm2.336-.002c.002.79.002 1.579 0 2.369l.424.002c.002-.791.002-1.583 0-2.374l-.424.002zm1.034-.004c-.002.79-.002 1.581-.002 2.373h.415c.002-.536-.002-1.073.002-1.609.362.478.68.989 1.036 1.471.09.157.29.134.442.171.034-.801.009-1.602.017-2.402h-.407c-.002.513.002 1.026-.005 1.538-.373-.502-.723-1.022-1.08-1.535-.14-.002-.279-.006-.419-.007zM19.29 18c.649.027 1.026-.634.957-1.22-.283-.002-.566-.002-.849-.008-.002.139-.002.278-.005.418.142.01.285.021.428.034-.185.286-.598.503-.882.214-.309-.39-.305-1.09.114-1.4.27-.194.543.048.73.234l.41-.155c-.232-.362-.631-.668-1.086-.554-1.157.252-1.061 2.426.183 2.437z"/>
    <path fill="#fff" d="M5.864 8.224c1.14 0 2.28-.002 3.42-.001.468.001.961.11 1.317.431.566.494.618 1.464.094 2.006-.36.382-.902.514-1.41.514-1.14.002-2.28 0-3.42 0v-2.95zM10.523 16.01c.272.005.548-.021.818.03.245.046.27.444.034.524-.275.07-.563.034-.844.042l-.008-.596zM8.168 16.974c.11-.264.22-.528.333-.79l.328.794-.661-.004z"/>
    <path fill="#dcdbdb" d="M.961 2.65l.206-.078-.206.078z"/>
    <path fill="#006e51" d="M1.559 3.068c.169-.038.342-.042.514-.045 6.672.009 13.346-.006 20.017.008.746-.007 1.345.713 1.271 1.442-.005 5.078 0 10.156-.002 15.234.018.474-.225.947-.638 1.186-.406.25-.904.174-1.358.185-6.49-.004-12.981.002-19.47-.002-.73.03-1.368-.638-1.323-1.364V4.378c-.022-.597.406-1.174.99-1.31zm.089.713c-.278.1-.395.411-.375.687.003 5.082-.002 10.164.003 15.246-.035.389.326.706.705.66 6.672-.002 13.343.002 20.016-.002a.618.618 0 0 0 .655-.661c.002-5.109.004-10.22-.001-15.33a.616.616 0 0 0-.654-.648c-6.642-.008-13.284.003-19.925-.005-.142.006-.29.005-.426.053z"/>
    <path fill="#006e51" d="M3.702 6.103c1.983.008 3.968-.018 5.951.013 1.66.038 3.219 1.325 3.471 2.984.382 1.927-1.117 3.994-3.089 4.158-1.388.082-2.781.018-4.172.038-.004 1.553.008 3.106-.006 4.658a220.94 220.94 0 0 0-2.154-.001c-.006-3.95-.001-7.9-.002-11.85zm2.162 2.121v2.95c1.14 0 2.28.002 3.42 0 .508.001 1.051-.133 1.41-.514.524-.542.472-1.513-.094-2.006-.356-.321-.849-.43-1.317-.431-1.14-.001-2.28.001-3.42.001zM16.366 8.401c1.25-.165 2.505-.307 3.757-.462-.234 1.239-.452 2.482-.697 3.718-.016.243-.386.364-.503.13-.191-.287-.309-.616-.46-.925-1.192 1.106-2.376 2.221-3.566 3.329-.453-.485-.906-.971-1.36-1.454 1.19-1.116 2.382-2.23 3.574-3.345-.322-.171-.675-.297-.965-.523-.182-.166-.012-.474.219-.468z"/>
    <path fill="#006e51" d="M8.286 15.582l.429.007c.326.788.657 1.574.984 2.362l-.45.008c-.082-.187-.162-.375-.242-.562-.342.002-.683.004-1.024.004l-.24.56-.456-.006c.329-.794.661-1.585 1-2.374zm-.118 1.392l.661.004-.328-.794c-.113.262-.222.526-.333.79zM10.102 15.586c.568.068 1.32-.21 1.73.314.282.362.062.819-.234 1.089.142.32.276.642.411.966l-.464.006a73.928 73.928 0 0 1-.389-.934l-.629-.001c-.002.31-.002.621-.005.932l-.419.002c-.006-.79-.002-1.582-.002-2.374zm.421.424l.008.596c.28-.009.569.028.844-.042.236-.079.211-.478-.034-.524-.27-.05-.546-.026-.818-.03zM12.486 15.59l.425-.006c.001.339 0 .678.006 1.017.28-.333.559-.668.826-1.011.183-.001.365-.002.549-.001-.207.258-.414.518-.623.776.262.535.531 1.066.779 1.608-.74.138-.756-.805-1.089-1.244-.35.322-.536.753-.455 1.231l-.418-.005c.001-.789.002-1.578-.001-2.366zM14.822 15.588l.424-.002c.002.791.002 1.583 0 2.374l-.424-.002c.002-.79.002-1.579 0-2.369zM15.856 15.584l.419.007c.357.514.706 1.033 1.08 1.535.006-.513.002-1.026.005-1.538h.407c-.008.801.017 1.602-.017 2.402-.152-.038-.351-.014-.442-.171-.356-.482-.674-.993-1.036-1.471-.005.536-.001 1.073-.002 1.609h-.415c0-.791-.001-1.582.002-2.373zM19.29 18c-1.244-.011-1.339-2.184-.183-2.437.455-.114.854.192 1.086.554-.136.051-.272.104-.41.155-.186-.186-.46-.429-.73-.234-.419.31-.424 1.01-.114 1.4.284.289.697.072.882-.214-.143-.013-.286-.023-.428-.034.002-.14.002-.279.005-.418.283.006.566.006.849.008.07.586-.307 1.246-.956 1.22z"/>
    <path fill="#d7d6d6" d="M0 20.058c.126.077.145.174.056.291L0 20.306v-.248z"/>
    <path fill="#d8d8d8" d="M1.146 21.534l.2.066h-.163l-.037-.066z"/>
</svg>
