<svg xmlns="http://www.w3.org/2000/svg" width="24" height="24">
    <path fill="#0066b3" d="M1.516 0h20.96c.33.095.637.263.877.51-.433-.209-.895-.394-1.385-.383C15.282.132 8.595.122 1.909.132.945.09.083.943.135 1.91.128 8.595.137 15.282.13 21.967c-.024.624.234 1.279.78 1.616.544.368 1.23.272 1.85.283 6.443-.007 12.886 0 19.328-.004.967.052 1.819-.81 1.775-1.774.007-6.685-.002-13.37.005-20.054.013-.491-.167-.954-.378-1.387.227.229.389.511.509.809v21.01A2.09 2.09 0 0 1 22.485 24H1.474a2.136 2.136 0 0 1-1.475-1.522V1.458C.222.749.785.178 1.515 0z"/>
    <path fill="#0066b3" d="M1.711.988C2.13.872 2.57.918 3 .91 9.24.916 15.479.909 21.719.915c.695-.06 1.351.529 1.316 1.235.01 6.526.001 13.052.004 19.578.07.73-.581 1.396-1.315 1.321-6.523-.002-13.046.002-19.568-.002-.718.048-1.32-.623-1.25-1.327 0-6.479.002-12.958 0-19.438-.044-.548.264-1.123.806-1.294zM6.815 2.45c-.002 5.065-.002 10.13 0 15.196.666.002 1.331.002 1.997 0 .004-5.065.002-10.13 0-15.196-.665-.005-1.331-.005-1.997 0zm4.865.111c-.355.154-.466.563-.443.919.007 4.04-.006 8.081.006 12.121a.799.799 0 0 0 .872.852c1.763.005 3.527.006 5.291 0 .478.048.896-.373.857-.85.008-4.081.006-8.165.001-12.247.062-.551-.463-.959-.984-.886-1.864.059-3.755-.115-5.6.09zm2.907 16.001c.4.071 1.118.674 1.315.15-.346-.241-1.062-.706-1.315-.15zm4.272-.304l-.173.388a37.17 37.17 0 0 0-1.566.019l-.047.316c.545.043 1.093.046 1.64.031l.041.298c-.418.037-.899-.09-1.277.088-.164.45-.077.988-.049 1.466.38.234.883.068 1.313.114l.001.319c-.546.133-1.508-.328-1.752.331.559.038 1.12.032 1.68.024.078.22.076.551.385.551.132-.155.155-.362.212-.55.56.006 1.121.011 1.681-.018-.199-.667-1.199-.205-1.742-.341l.008-.316c.444.011.889-.001 1.331-.05.022-.528.018-1.056-.024-1.583a23.45 23.45 0 0 0-1.325-.043l.029-.289c.542-.005 1.091.044 1.63-.042-.017-.625-1.108-.209-1.573-.312l-.164-.372-.259-.029zm-10.513.167c-.232.29-.962.56-.649.994.422-.152.767-.492 1.003-.865.12-.22-.254-.33-.354-.128zm4.23.026c-.19.679-.09 1.453-.05 2.164.404.124.835.049 1.252.059.01.15.02.3.032.45a11.95 11.95 0 0 0-.296-.437c-.056.367.114.685.326.967-.17.042-.34.084-.51.128l.097.326c1.026.218.756-1.064.778-1.698-.163-.06-.328-.114-.486-.186-.034-.253.374-.221.52-.352a4.295 4.295 0 0 0-.601-.324c.202-.092.395-.198.592-.299a4.428 4.428 0 0 0-.509-.271l.012-.185.506-.076c-.234-.605-1.147-.239-1.662-.268zm-9.68.261c.485.203 1.04.056 1.553.097.004.52.002 1.04-.002 1.561-.54.131-1.596-.342-1.73.368.577.03 1.156.023 1.733.024.005.431-.029.865.04 1.292.697.286.356-.892.433-1.294.564 0 1.128.002 1.691-.016.001-.09.002-.269.004-.358a29.868 29.868 0 0 0-1.693-.018c-.004-.521-.004-1.04-.001-1.561.444-.114 1.547.292 1.518-.32-.935-.151-1.895-.019-2.838-.07-.242.037-.761-.098-.706.293zm6.146-.268c.022.122.018.254.079.366a18.65 18.65 0 0 0 1.921.011c.205.001.318-.142.198-.328-.722-.138-1.468-.035-2.198-.049zm-5.915.698c.175.334.337.68.587.966.599-.066-.092-1.434-.587-.966zm2.263.902c.51.209.638-.559.866-.877-.516-.433-.779.5-.866.877zm8.907-.947l-.031.353c.253.012.508.022.761.031l.006.781c-.221.01-.44.02-.661.032l-.005.343.664.028.001.932c-.28.053-.95-.11-.782.377.673.038 1.369.101 2.034-.034.084-.45-.515-.295-.781-.342l-.002-.937.665-.011c.061-.432-.359-.389-.668-.402.004-.257.005-.512.007-.769l.728-.024-.011-.364a18.43 18.43 0 0 0-1.924.005zm-5.965.389c-.286.408-.878.702-.805 1.266.155-.072.307-.146.46-.221-.013.54-.014 1.08.018 1.619l.385-.083c.164-.811-.197-1.721.293-2.452.131-.259-.236-.373-.35-.13zm.565.074c-.001.086-.002.259-.004.344.478.024.955.028 1.433.026.007.58.008 1.16-.012 1.74-.257.006-.514.013-.77.022l.036.376c.377.002.778.078 1.135-.073.166-.672.055-1.373.084-2.057l.638-.031c0-.119-.002-.239-.004-.359-.845-.016-1.692-.03-2.537.012zm3.587 1.282c-.023.31-.377 1.14.091 1.064.054-.318.397-1.133-.091-1.064zm.334-.065c.064.371-.149.941.283 1.139-.06-.373.216-1.015-.283-1.139zm.656.93a3.664 3.664 0 0 0-.152-1.009c-.22.295-.229.839.152 1.009z"/>
    <path fill="#0066b3" d="M11.653 2.744c.382-.016.778-.074 1.151.038.07.575-.79.254-1.139.313l-.012-.352zM16.705 2.774c.364-.028 1.096-.262 1.187.223-.319.158-1.267.328-1.187-.223zM11.629 6.834c2.002-.889 4.308-.847 6.316-.001-.383.643-.774 1.283-1.16 1.925a20.26 20.26 0 0 0-4.031-.001c-.367-.644-.746-1.283-1.124-1.922zM11.614 7.516c.373.566.768 1.128 1.057 1.742.05.982.043 1.974.005 2.956-.29.514-.709.944-1.067 1.411-.03-2.035-.038-4.074.005-6.109zM16.849 9.258c.289-.614.684-1.176 1.057-1.742.043 2.035.035 4.074.005 6.11-.358-.468-.776-.898-1.067-1.411a32.765 32.765 0 0 1 .005-2.957zM12.744 12.635c1.331.138 2.672.132 4.004.006.407.528.817 1.052 1.205 1.594-2.105.379-4.273.349-6.38 0 .379-.541.767-1.076 1.171-1.6zM12.961 18.762l.33.004.022.284a50.49 50.49 0 0 0-.389.01l.037-.298zM17.837 19.656l.905.001.001.31-.907.001.001-.312zM17.843 20.294l.896.002c.001.086.002.257.004.342h-.91l.01-.344zM19.216 20.296l.906.004.006.336-.919.002.007-.342z"/>
    <path fill="#fff" d="M.136 1.91C.083.943.946.09 1.91.132c6.686-.01 13.373 0 20.059-.005.49-.011.952.174 1.385.383.049.043.095.089.138.138.211.433.391.896.378 1.387-.007 6.684.002 13.369-.005 20.054.044.964-.808 1.825-1.775 1.774-6.443.004-12.886-.004-19.328.004-.62-.011-1.307.085-1.85-.283-.546-.337-.804-.992-.78-1.616C.139 15.283.13 8.596.137 1.911zM1.711.988c-.542.17-.851.745-.806 1.294.002 6.48 0 12.959 0 19.438-.07.704.533 1.375 1.25 1.327 6.522.005 13.045 0 19.568.002.734.074 1.385-.592 1.315-1.321-.002-6.526.006-13.052-.004-19.578.035-.706-.622-1.295-1.316-1.235C15.478.909 9.239.916 2.999.91c-.43.008-.87-.038-1.289.078z"/>
    <path fill="#fff" d="M6.815 2.45c.666-.005 1.332-.005 1.997 0 .002 5.065.004 10.13 0 15.196-.666.002-1.331.002-1.997 0-.002-5.065-.002-10.13 0-15.196zM11.68 2.561c1.846-.205 3.737-.031 5.6-.09.521-.073 1.046.335.984.886.005 4.082.007 8.166-.001 12.247a.797.797 0 0 1-.857.85c-1.764.006-3.528.005-5.291 0a.798.798 0 0 1-.872-.852c-.012-4.04.001-8.081-.006-12.121-.023-.356.088-.766.443-.919zm-.027.183l.012.352c.349-.059 1.208.262 1.139-.313-.373-.113-.769-.054-1.151-.038zm5.052.03c-.08.551.868.382 1.187.223-.091-.485-.823-.251-1.187-.223zm-5.076 4.06c.378.64.757 1.278 1.124 1.922a20.26 20.26 0 0 1 4.031.001c.386-.642.778-1.282 1.16-1.925-2.008-.846-4.314-.888-6.316.001zm-.015.682a170.424 170.424 0 0 0-.005 6.109c.358-.467.776-.898 1.067-1.411.038-.982.046-1.974-.005-2.956-.289-.614-.684-1.176-1.057-1.742zm5.235 1.742c-.05.982-.043 1.974-.005 2.957.29.514.709.943 1.067 1.411.03-2.036.038-4.075-.005-6.11-.373.566-.768 1.128-1.057 1.742zm-4.105 3.377a41.745 41.745 0 0 0-1.171 1.6c2.107.349 4.276.379 6.38 0-.388-.541-.798-1.066-1.205-1.594a20.292 20.292 0 0 1-4.004-.006zM14.587 18.562c.253-.556.97-.091 1.315.15-.197.524-.916-.079-1.315-.15zM18.859 18.258l.259.029.164.372c.466.103 1.556-.313 1.573.312-.539.086-1.087.037-1.63.042l-.029.289c.442.006.883.012 1.325.043.042.527.046 1.055.024 1.583a9.862 9.862 0 0 1-1.331.05l-.008.316c.544.136 1.543-.326 1.742.341-.56.029-1.121.024-1.681.018-.058.187-.08.395-.212.55-.31 0-.307-.331-.385-.551a20.46 20.46 0 0 1-1.68-.024c.244-.659 1.206-.198 1.752-.331l-.001-.319c-.43-.046-.932.12-1.313-.114-.028-.479-.115-1.016.049-1.466.378-.178.859-.05 1.277-.088l-.041-.298c-.547.014-1.096.012-1.64-.031l.047-.316a37.17 37.17 0 0 1 1.566-.019l.173-.388zm-1.022 1.398l-.001.312.907-.001-.001-.31-.905-.001zm1.371-.002l-.005.317c.349-.046.892.18.997-.299a29.837 29.837 0 0 0-.992-.018zm-1.365.64l-.01.344h.91l-.004-.342-.896-.002zm1.373.002l-.007.342.919-.002-.006-.336a273.62 273.62 0 0 1-.906-.004zM8.346 18.425c.1-.202.474-.091.354.128-.236.373-.581.713-1.003.865-.313-.433.418-.703.649-.994zM12.576 18.451c.515.029 1.428-.337 1.662.268l-.506.076a5.933 5.933 0 0 1-.012.185c.175.08.346.169.509.271-.197.101-.39.206-.592.299.208.095.412.197.601.324-.145.131-.553.098-.52.352.158.072.323.126.486.186-.022.634.248 1.916-.778 1.698l-.097-.326c.17-.044.34-.086.51-.128-.212-.282-.383-.6-.326-.967.102.143.2.289.296.437-.012-.15-.023-.3-.032-.45-.416-.01-.847.065-1.252-.059-.04-.71-.139-1.484.05-2.164zm.385.311l-.037.298.389-.01a32.1 32.1 0 0 1-.022-.284l-.33-.004zm.018.676c-.142.18.173.36.293.194.139-.179-.175-.364-.293-.194zm0 .627c-.029.659.668-.248 0 0zM2.896 18.712c-.055-.391.463-.256.706-.293.943.05 1.903-.082 2.838.07.029.612-1.074.206-1.518.32-.002.521-.002 1.04.001 1.561a29.868 29.868 0 0 1 1.693.018l-.004.358c-.563.018-1.127.016-1.691.016-.077.402.264 1.579-.433 1.294-.068-.427-.035-.862-.04-1.292-.577-.001-1.156.006-1.733-.024.134-.71 1.19-.238 1.73-.368.005-.521.006-1.042.002-1.561-.512-.041-1.068.106-1.553-.097zM9.042 18.444c.731.014 1.476-.089 2.198.049.12.186.007.329-.198.328-.64.024-1.283.031-1.921-.011-.061-.112-.058-.244-.079-.366z"/>
    <path fill="#fff" d="M3.127 19.142c.494-.468 1.186.9.587.966-.25-.286-.412-.632-.587-.966zM5.39 20.044c.088-.377.35-1.31.866-.877-.228.318-.356 1.086-.866.877zM14.297 19.097a18.43 18.43 0 0 1 1.924-.005l.011.364-.728.024-.007.769c.31.013.73-.03.668.402l-.665.011.002.937c.266.047.865-.108.781.342-.665.134-1.361.072-2.034.034-.168-.487.503-.324.782-.377l-.001-.932c-.222-.008-.443-.018-.664-.028l.005-.343c.221-.012.44-.023.661-.032l-.006-.781c-.253-.01-.508-.019-.761-.031l.031-.353zM8.332 19.486c.114-.244.481-.13.35.13-.49.731-.128 1.64-.293 2.452l-.385.083a19.423 19.423 0 0 1-.018-1.619c-.152.074-.305.149-.46.221-.073-.564.52-.858.805-1.266zM8.897 19.56c.845-.042 1.692-.028 2.537-.012.001.12.004.24.004.359-.212.011-.426.022-.638.031-.029.684.082 1.385-.084 2.057-.358.151-.758.076-1.135.073l-.036-.376c.257-.008.514-.016.77-.022.02-.58.019-1.16.012-1.74-.478.001-.955-.002-1.433-.026l.004-.344zM12.484 20.842c.488-.068.145.746.091 1.064-.468.076-.114-.755-.091-1.064z"/>
    <path fill="#1472b9" d="M12.979 19.438c.118-.169.432.016.293.194-.12.166-.434-.014-.293-.194z"/>
    <path fill="#0e6eb7" d="M19.208 19.654c.331.002.661.005.992.018-.106.479-.648.253-.997.299l.005-.317z"/>
    <path fill="#0c6db6" d="M12.979 20.065c.668-.248-.029.659 0 0z"/>
    <path fill="#f4f8fc" d="M12.818 20.777c.499.124.223.766.283 1.139-.432-.198-.22-.768-.283-1.139z"/>
    <path fill="#ebf3f9" d="M13.474 21.707c-.382-.17-.372-.714-.152-1.009.102.326.144.668.152 1.009z"/>
</svg>
