<svg xmlns="http://www.w3.org/2000/svg" width="24" height="24">
    <path fill="#0e518d" d="M.919 0h22.135c.444.149.782.492.946.926v22.12a1.535 1.535 0 0 1-.928.954H.957c-.45-.14-.788-.488-.958-.923V.951a1.53 1.53 0 0 1 .919-.952zm.437.632c-.534.17-.839.743-.797 1.285.005 6.762-.005 13.525.005 20.287-.035.667.558 1.272 1.229 1.225 6.805.002 13.609.002 20.413 0 .672.046 1.262-.559 1.23-1.225.007-6.803.007-13.607 0-20.41.032-.668-.56-1.27-1.231-1.231C15.484.552 8.761.565 2.039.556c-.228.006-.462.005-.683.076z"/>
    <path fill="#0e518d" d="M1.481 1.231c.174-.077.371-.065.556-.074 6.724.012 13.447-.008 20.17.01.412-.035.686.367.634.748v20.172c.052.377-.221.785-.632.742-6.804.007-13.61.006-20.414.001-.412.043-.685-.366-.632-.743V1.916c-.01-.262.058-.566.32-.684zM3.6 3.6v16.8h16.8V3.6H3.6z"/>
    <path fill="#f7fbf5" d="M1.356.632c.221-.071.455-.07.683-.076 6.722.01 13.445-.004 20.166.007.671-.038 1.264.563 1.231 1.231.007 6.803.007 13.607 0 20.41.032.666-.558 1.271-1.23 1.225-6.804.002-13.608.002-20.413 0-.671.047-1.264-.558-1.229-1.225-.01-6.762 0-13.525-.005-20.287C.517 1.375.822.802 1.356.632zm.125.599c-.263.118-.33.422-.32.684v20.171c-.053.377.221.786.632.743 6.804.005 13.61.006 20.414-.001.412.043.684-.365.632-.742V1.914c.053-.38-.222-.782-.634-.748-6.722-.018-13.446.002-20.17-.01-.185.01-.382-.002-.556.074z"/>
    <path fill="#f7fbf5" d="M3.6 3.6h16.8v16.8H3.6V3.6zm3.463 6.097c.671.467 1.354.918 2.018 1.396-1.22.006-2.442.004-3.662.001.08.69-.266 1.318-.347 1.988-.036.614-.002 1.23-.012 1.846h1.172l.119-.456h3.973l.121.456h3.24l.121-.456h3.971l.125.458c.389-.002.779-.004 1.169-.002-.004-.54.01-1.079.001-1.618-.004-.757-.455-1.447-.358-2.214l-8.74-.001c.67-.475 1.351-.932 2.028-1.398-.82-.574-1.646-1.138-2.477-1.697-.818.569-1.651 1.118-2.464 1.697zm-.39 5.076c-.065.782.955 1.039 1.296.349.251-.002.503-.001.754.001.341.691 1.354.43 1.292-.349a186.15 186.15 0 0 0-3.342-.001zm7.445 0c-.07.784.955 1.039 1.295.348.251-.001.502 0 .754.002.341.692 1.351.428 1.294-.349a177.29 177.29 0 0 0-3.342-.001z"/>
    <path fill="#f7fbf5" d="M9.528 8.39c.64.432 1.278.864 1.906 1.312-.632.439-1.272.869-1.906 1.308-.626-.444-1.267-.868-1.896-1.309.625-.448 1.266-.872 1.896-1.31zM5.688 11.538l1.056-.002v1.488H5.302l.386-1.486zM7.021 11.537h1.788l.001 1.486c-.596.002-1.193.002-1.788.001l-.001-1.487zM9.085 11.537h1.788l-.001 1.487c-.595.001-1.192.001-1.787-.001v-1.486zM11.149 11.537h1.834c.002.496.001.991 0 1.487h-1.832c-.002-.496-.002-.991-.001-1.487zM13.259 11.537h1.788v1.486c-.595.002-1.192.002-1.788.001v-1.487zM15.325 11.537h1.788l-.001 1.487h-1.788c-.001-.496-.001-.991.001-1.487zM17.388 11.537h1.055c.13.496.259.991.386 1.487h-1.44c-.002-.496-.002-.991-.001-1.487z"/>
    <path fill="#2a2d2f" d="M7.063 9.697C7.875 9.119 8.708 8.569 9.527 8c.83.559 1.657 1.123 2.477 1.697-.677.466-1.358.923-2.028 1.398l8.74.001c-.097.767.354 1.457.358 2.214.008.539-.005 1.078-.001 1.618-.39-.001-.78 0-1.169.002l-.125-.458h-3.971l-.121.456h-3.24l-.121-.456H6.353l-.119.456H5.062c.01-.616-.024-1.231.012-1.846.08-.671.427-1.298.347-1.988 1.22.002 2.442.005 3.662-.001-.665-.478-1.348-.929-2.018-1.396zM9.528 8.39c-.63.438-1.271.863-1.896 1.31.629.442 1.27.865 1.896 1.309.634-.439 1.273-.869 1.906-1.308a89.314 89.314 0 0 0-1.906-1.312zm-3.84 3.148l-.386 1.486h1.442v-1.488l-1.056.002zm1.333-.001l.001 1.487c.595.001 1.192.001 1.788-.001l-.001-1.486H7.021zm2.064 0v1.486c.595.002 1.192.002 1.787.001l.001-1.487H9.085zm2.064 0c-.001.496-.001.991.001 1.487h1.832c.001-.496.002-.991 0-1.487h-1.834zm2.11 0v1.487c.596.001 1.193.001 1.788-.001v-1.486h-1.788zm2.066 0c-.002.496-.002.991-.001 1.487h1.788l.001-1.487h-1.788zm2.063 0c-.001.496-.001.991.001 1.487h1.44c-.127-.496-.257-.991-.386-1.487h-1.055z"/>
    <path fill="#2a2d2f" d="M6.673 14.773c1.115-.008 2.228-.01 3.342.001.061.779-.952 1.04-1.292.349a37.902 37.902 0 0 0-.754-.001c-.341.69-1.361.433-1.296-.349zM14.118 14.773c1.114-.008 2.228-.011 3.342.001.058.778-.953 1.042-1.294.349-.252-.002-.503-.004-.754-.002-.34.691-1.364.436-1.295-.348z"/>
</svg>
