<svg xmlns="http://www.w3.org/2000/svg" width="24" height="24">
    <path fill="#fff" d="M11.102 0h1.815c1.773.156 3.523.668 5.063 1.569a12.068 12.068 0 0 1 5.378 6.477c.349.985.545 2.019.642 3.058v1.809c-.157 1.774-.668 3.525-1.57 5.066-1.537 2.7-4.162 4.758-7.155 5.593-.766.224-1.557.341-2.348.428h-1.841c-1.729-.151-3.431-.646-4.945-1.499-2.632-1.467-4.68-3.953-5.593-6.828-.292-.889-.451-1.815-.547-2.745v-1.846c.097-.982.274-1.96.593-2.895a12.068 12.068 0 0 1 5.048-6.391C7.279.76 9.176.161 11.103.001zM5.398 2.68C2.869 4.456 1.122 7.299.694 10.361c-.465 3.108.435 6.384 2.422 8.82l-.043.04c.562.576 1.131 1.144 1.705 1.706l.042-.043a11.417 11.417 0 0 0 4.104 2.115c3.26.935 6.924.301 9.678-1.68 2.471-1.736 4.196-4.49 4.672-7.473.535-3.169-.358-6.537-2.389-9.027l.043-.041a101.514 101.514 0 0 0-1.705-1.705l-.041.042A11.45 11.45 0 0 0 14.934.958C11.708.083 8.112.728 5.398 2.68z"/>
    <path fill="#fff" d="M10.01 6.54c.885-.21 1.873-.063 2.619.471.521.373.937.897 1.161 1.5-.493.491-.983.986-1.478 1.475.144-.638-.114-1.35-.666-1.71-.51-.306-1.207-.259-1.681.098-.41.289-.606.787-.638 1.273-.541 0-1.082.005-1.623-.002-.049-1.4.95-2.754 2.307-3.104zM3.04 7.688c.519-.38 1.037-.765 1.565-1.133.537-.027 1.078-.003 1.617-.011.006 3.177-.001 6.354.003 9.531-.475.477-.952.953-1.428 1.429l-.206-.001c-.004-3.07 0-6.14-.002-9.21-.518.374-1.031.756-1.549 1.13V7.689zM17.44 8.276c.552-.585 1.135-1.14 1.7-1.714a3.408 3.408 0 0 1 1.572.991c.48.549.674 1.293.676 2.01.002 1.609 0 3.218.001 4.828.002.535-.085 1.08-.328 1.561-.324.654-.937 1.125-1.601 1.4-1.282.523-2.868.111-3.723-.979-.468-.597-.613-1.38-.593-2.123 0-1.23.003-2.46-.002-3.69.621-.614 1.224-1.245 1.859-1.844a2.13 2.13 0 0 0-.227.946c-.001 1.587-.004 3.173.001 4.76.001.532.236 1.098.725 1.355.606.311 1.451.233 1.904-.307.277-.322.359-.759.36-1.172V9.749c.001-.424-.084-.875-.375-1.2-.473-.552-1.333-.595-1.95-.273zM8.218 17.483c.544-.542 1.083-1.089 1.631-1.627 1.373.016 2.747-.001 4.12.009.004.539.003 1.078.001 1.617-1.917.003-3.834.002-5.752 0z"/>
    <path fill="#00f" d="M5.398 2.68C8.112.728 11.708.084 14.934.958a11.434 11.434 0 0 1 4.248 2.157c-1.794 1.802-3.595 3.596-5.392 5.395a3.257 3.257 0 0 0-1.161-1.5c-.747-.534-1.734-.681-2.619-.471-1.357.349-2.356 1.704-2.307 3.104.541.007 1.082.003 1.623.002.032-.487.228-.984.637-1.273.474-.356 1.171-.404 1.681-.098.552.36.81 1.072.666 1.71-2.026 2.032-4.057 4.06-6.087 6.089-.004-3.177.002-6.354-.003-9.531-.539.008-1.08-.015-1.617.011-.528.368-1.045.753-1.565 1.133V9.42c.518-.375 1.031-.757 1.549-1.13.003 3.07-.002 6.14.002 9.21l.206.001c-.561.559-1.117 1.122-1.681 1.678-1.987-2.435-2.888-5.711-2.422-8.82.428-3.062 2.175-5.905 4.704-7.681zM19.14 6.562c.582-.58 1.161-1.164 1.745-1.742 2.031 2.49 2.924 5.858 2.389 9.027-.476 2.983-2.201 5.737-4.672 7.473-2.753 1.981-6.418 2.615-9.678 1.68a11.417 11.417 0 0 1-4.104-2.115c1.13-1.136 2.265-2.267 3.398-3.401 1.918.001 3.835.002 5.752 0 .002-.539.003-1.078-.001-1.617-1.373-.01-2.747.008-4.12-.009 1.76-1.77 3.528-3.532 5.293-5.297.005 1.23.001 2.46.002 3.69-.02.742.125 1.525.593 2.122.855 1.09 2.441 1.502 3.723.979.664-.274 1.276-.746 1.601-1.4.243-.481.33-1.027.328-1.561 0-1.609.001-3.218-.001-4.828-.003-.717-.197-1.46-.676-2.01a3.395 3.395 0 0 0-1.572-.991z"/>
    <path fill="#00f" d="M17.44 8.276c.617-.322 1.477-.279 1.95.273.291.325.376.776.375 1.2v4.549c-.001.413-.083.85-.36 1.172-.453.541-1.298.619-1.904.307-.489-.257-.723-.824-.725-1.355-.006-1.587-.003-3.173-.001-4.76a2.13 2.13 0 0 1 .227-.946c.139-.154.285-.301.439-.44z"/>
    <path fill="red" d="M19.182 3.115l.041-.042c.574.562 1.144 1.13 1.705 1.705l-.043.041c-.585.578-1.163 1.162-1.745 1.742-.564.573-1.148 1.129-1.7 1.714-.154.139-.3.286-.439.44-.634.599-1.238 1.23-1.859 1.844-1.765 1.765-3.533 3.527-5.293 5.297-.548.537-1.087 1.085-1.631 1.627-1.133 1.133-2.268 2.265-3.398 3.401l-.042.043a114.269 114.269 0 0 1-1.705-1.706l.043-.04c.564-.555 1.12-1.119 1.681-1.678.476-.476.953-.952 1.428-1.429 2.03-2.029 4.061-4.056 6.087-6.089.495-.489.985-.984 1.478-1.475 1.797-1.799 3.598-3.593 5.392-5.395z"/>
</svg>
