<svg xmlns="http://www.w3.org/2000/svg" width="24" height="24">
    <path fill="#0303cc" d="M0 4.216h23.853v15.568H0V4.216zm9.198 1.829c-.216.479-.35 1.014-.721 1.408-.014.357-.011.714-.005 1.071.118.114.236.23.355.342.003.252.009.506.014.76.198-.006.397-.003.595.006.015-.276.01-.554.021-.83h2.947c.01.275.004.551.016.827a9.11 9.11 0 0 1 .596-.001c.006-.255.014-.51.016-.765.118-.11.236-.224.353-.335.231-.925-.413-1.618-.713-2.43-1.12-.298-2.329-.189-3.475-.053zm8.039 2.27a85.936 85.936 0 0 1-.018-.498h-.796c.005.38-.006.76.001 1.138-.263.206-.514.426-.774.632.009 1.376-.004 2.752.008 4.128 1.353-.003 2.707.001 4.059-.001.006-1.123 0-2.248.004-3.371.599-.003 1.197-.003 1.795 0 .004 1.123-.001 2.248.001 3.371h.73c.006-1.374-.005-2.75.006-4.124-1.102-.882-2.225-1.736-3.336-2.606-.564.439-1.12.887-1.68 1.331zM4.563 7.282c-1.011.355-.4 2.004.601 1.612 1.096-.315.455-2.098-.601-1.612zm-1.408 3.102c-.771.558-.512 1.592-.606 2.408.746-.04.42-1.088.658-1.596l.56-.314c.107 2.556-.671 5.047-1.879 7.274.13.102.26.207.388.314.436-.63.86-1.268 1.295-1.898.544-.723.69-1.641 1.026-2.462.668 1.465 1.319 2.936 1.976 4.407.188 0 .376.003.562.008a763.283 763.283 0 0 0-1.425-4.84c-.374-.919-.004-1.901.048-2.846.686.49 1.354 1.003 2.033 1.503l.245-.271c-.92-.943-1.797-1.937-2.777-2.816-.92-.498-1.506.632-2.103 1.13zm9.069 1.416c-.762.172-.45 1.428.313 1.199.804-.152.461-1.455-.313-1.199zm1.948.51c.942 2.609 3.087 4.865 5.757 5.705l.087-.373c-2.581-.831-4.567-3.023-5.54-5.513l-.304.181zm-2.761 2.063c-.163.311-.73.628-.381.987.344-.31.679-.628 1.024-.935.529 1.325-.191 2.752-.232 4.119h.372c.263-.785.509-1.576.772-2.36.294.89 1.12 1.233 1.976 1.374.053-.121.104-.241.154-.361-.388-.18-.774-.36-1.164-.533-.322-.854-.616-1.731-.585-2.656.339.167.56.475.776.771l.263-.145c-.318-.725-.984-1.229-1.731-1.445-.629.047-.848.788-1.244 1.184zm-1.572 2.825c-.886.216-.494 1.666.385 1.392.93-.187.516-1.71-.385-1.392z"/>
    <path fill="#0303cc" d="M9.335 6.246a10.415 10.415 0 0 1 3.187-.003c.126.32.256.64.38.962a19.245 19.245 0 0 0-3.943.003c.122-.321.25-.642.376-.962zM8.731 7.524c.283-.003.569.001.854.001.04.204.084.405.133.606-.333.011-.667-.01-1-.008.008-.2.011-.4.012-.6zM12.272 7.528c.287.001.574-.01.861-.004-.003.202 0 .404.008.605-.333.001-.666.005-.997.003.047-.201.089-.403.128-.604zM16.422 10.344c.855-.003 1.71-.003 2.565 0v2.559c-.855.003-1.71.003-2.565 0v-2.559z"/>
    <path fill="#fff" d="M9.198 6.045c1.146-.137 2.355-.245 3.475.053.3.812.944 1.506.713 2.43l-.353.335c-.003.255-.01.51-.016.765a9.87 9.87 0 0 0-.596.001c-.012-.276-.006-.553-.016-.827H9.458c-.011.276-.006.554-.021.83a7.871 7.871 0 0 0-.595-.006c-.005-.254-.011-.507-.014-.76-.119-.113-.237-.228-.355-.342-.006-.357-.009-.714.005-1.071.37-.393.505-.928.721-1.408zm.137.201c-.126.32-.254.64-.376.962a19.316 19.316 0 0 1 3.943-.003c-.125-.321-.254-.642-.38-.962a10.352 10.352 0 0 0-3.187.003zm-.604 1.278c-.001.2-.005.4-.012.6.333-.003.667.019 1 .008a13.919 13.919 0 0 1-.133-.606c-.285 0-.57-.004-.854-.001zm3.541.004c-.039.201-.082.403-.128.604.331.003.664-.001.997-.003-.008-.201-.01-.403-.008-.605-.287-.006-.574.005-.861.004zM17.237 8.315c.56-.443 1.116-.891 1.68-1.331 1.111.87 2.233 1.725 3.336 2.606-.011 1.374 0 2.75-.006 4.124h-.73c-.003-1.123.003-2.248-.001-3.371-.599-.003-1.197-.003-1.795 0-.004 1.123.003 2.248-.004 3.371-1.352.003-2.706-.001-4.059.001-.011-1.376.001-2.752-.008-4.128.261-.207.512-.427.774-.632-.008-.379.004-.758-.001-1.138h.796c.004.125.012.374.018.498zm-.815 2.029v2.559c.855.003 1.71.003 2.565 0v-2.559c-.855-.003-1.71-.003-2.565 0zM4.563 7.282c1.056-.486 1.698 1.297.601 1.612-1.002.392-1.612-1.256-.601-1.612z"/>
    <path fill="#fff" d="M3.155 10.384c.597-.498 1.182-1.628 2.103-1.13.981.879 1.857 1.873 2.777 2.816l-.245.271c-.678-.499-1.347-1.013-2.033-1.503-.051.945-.422 1.927-.048 2.846.482 1.612.954 3.225 1.425 4.84a21.004 21.004 0 0 0-.562-.008c-.656-1.47-1.308-2.942-1.976-4.407-.337.821-.482 1.739-1.026 2.462-.436.63-.86 1.268-1.295 1.898a16.143 16.143 0 0 0-.388-.314c1.209-2.227 1.986-4.718 1.879-7.274l-.56.314c-.237.507.088 1.555-.658 1.596.094-.816-.165-1.849.606-2.408zM12.224 11.8c.773-.256 1.116 1.047.313 1.199-.762.228-1.075-1.027-.313-1.199zM14.172 12.31l.304-.181c.973 2.49 2.959 4.681 5.54 5.513l-.087.373c-2.67-.84-4.816-3.096-5.757-5.705zM11.411 14.373c.396-.396.615-1.138 1.244-1.184.747.216 1.413.721 1.731 1.445-.066.035-.198.108-.263.145-.216-.296-.437-.604-.776-.771-.031.925.263 1.803.585 2.656.389.172.776.353 1.164.533-.05.121-.102.241-.154.361-.856-.142-1.683-.485-1.976-1.374-.263.785-.51 1.576-.772 2.36h-.372c.042-1.367.761-2.794.232-4.119-.345.307-.68.625-1.024.935-.349-.359.219-.675.381-.987zM9.839 17.198c.902-.318 1.315 1.205.385 1.392-.879.274-1.272-1.177-.385-1.392z"/>
</svg>
