<svg xmlns="http://www.w3.org/2000/svg" width="24" height="24">
    <path fill="#0066b3" d="M1.59.184C8.387.125 15.189.173 21.988.159c.878-.052 1.642.746 1.571 1.621 0 6.773.007 13.548-.004 20.323.044.85-.72 1.593-1.565 1.547-6.739-.001-13.479.012-20.218-.006-.916.005-1.579-.907-1.46-1.782.008-6.694 0-13.388.004-20.082C.263 1.023.823.271 1.591.184zm-.006.235C.941.506.499 1.149.546 1.778.547 8.553.541 15.328.55 22.103c-.044.732.618 1.366 1.345 1.314 6.697.006 13.397.007 20.095 0 .724.048 1.376-.587 1.335-1.314.011-6.775.004-13.55.004-20.325.068-.751-.582-1.44-1.339-1.388C15.189.404 8.384.347 1.585.419z"/>
    <path fill="#0066b3" d="M1.578.76C8.337.666 15.108.748 21.871.72c.614-.087 1.19.428 1.122 1.055 0 6.773.006 13.548-.002 20.322a.946.946 0 0 1-1.004.989c-6.697.007-13.395.006-20.091 0A.95.95 0 0 1 .88 22.1C.866 15.365.88 8.629.873 1.892.83 1.416 1.065.858 1.579.761zm.609 1.521v2.566l.51.001V2.279l-.51.001zm7.165.001v2.564l.503.002V2.279l-.503.002zm11.881 0v2.564l.503.002V2.279l-.503.002zm-5.578.493c-.838 1.328-1.612 2.696-2.436 4.032-.204.354-.466.765-.316 1.189.694.365 1.277-.514 1.861-.803.007 2.323-.014 4.644 0 6.967.595.01 1.192.011 1.788.008.025-2.318.007-4.637.001-6.955.485.328.921.778 1.505.92.524-.037.423-.68.213-.993-.863-1.459-1.717-2.926-2.616-4.365zM2.189 7.161l-.001 2.558.51.001V7.16l-.509.001zm7.163 0v2.557l.503.002V7.16l-.503.001zm11.881 0v2.557l.503.002V7.16l-.503.001zM2.189 12.048l-.001 2.566h.51v-2.568l-.509.001zm7.163.001v2.565h.503v-2.566l-.503.001zm11.881 0v2.565h.503v-2.566l-.503.001zm-7.083 4.664c.005 1.091.006 2.181 0 3.273 2.746.012 5.491.006 8.237.002.008-1.093.008-2.186.001-3.279-2.747-.005-5.493-.013-8.238.004zm-3.87 1.004c-.315.555-.794 1.038-.973 1.656.036.566-.29 1.631.607 1.542.169-.46.43-1.042 1.018-1.002.581-.052.876.52 1.023.987 1.066-.005 2.131.007 3.197-.005.07-.236.14-.474.206-.712-1.065-.046-2.131-.007-3.197-.034-.043-.822-.056-1.646-.075-2.468a19.429 19.429 0 0 0-1.806.034zm.451 2.399c-.516.139-.726.851-.361 1.245.337.438 1.106.32 1.299-.2.289-.562-.346-1.267-.937-1.046zm5.23-.007c-.533.126-.757.863-.375 1.261.345.436 1.114.303 1.297-.221.264-.555-.336-1.236-.922-1.04zm3.806.015c-.956.283-.424 1.852.516 1.465.941-.292.412-1.834-.516-1.465zm1.776-.022c-.519.106-.791.798-.444 1.214.298.462 1.08.403 1.305-.101.33-.545-.251-1.293-.86-1.113zm-4.643.115c.115.247.247.486.393.716.026-.247.048-.494.064-.743l-.457.026z"/>
    <path fill="#0066b3" d="M9.81 19.174c.176-.56.602-1.133 1.259-1.066.006.362.007.726 0 1.09-.419.005-.84.006-1.259-.024z"/>
    <path fill="#fff" d="M1.584.419C8.382.348 15.188.405 21.989.39c.757-.052 1.407.637 1.339 1.388 0 6.775.007 13.55-.004 20.325.04.727-.612 1.362-1.335 1.314-6.697.007-13.397.006-20.095 0-.727.052-1.389-.582-1.345-1.314C.541 15.328.547 8.553.545 1.778.499 1.148.941.506 1.583.419zM1.578.76c-.513.097-.749.655-.706 1.131.007 6.737-.007 13.472.007 20.208a.95.95 0 0 0 1.016.986c6.696.006 13.394.007 20.091 0a.946.946 0 0 0 1.004-.989c.008-6.773.002-13.548.002-20.322.069-.627-.507-1.142-1.122-1.055C15.107.748 8.336.666 1.577.759z"/>
    <path fill="#fff" d="M2.187 2.281l.51-.001v2.569l-.51-.001V2.282zM9.352 2.282l.503-.002v2.569l-.503-.002V2.283zM21.233 2.282l.503-.002v2.569l-.503-.002V2.283zM15.655 2.775c.899 1.439 1.754 2.906 2.616 4.365.21.314.311.956-.213.993-.585-.141-1.021-.592-1.505-.92.006 2.318.024 4.637-.001 6.955-.596.002-1.193.001-1.788-.008-.014-2.323.007-4.644 0-6.967-.583.289-1.167 1.168-1.861.803-.15-.424.112-.835.316-1.189.823-1.337 1.598-2.704 2.436-4.032zM2.189 7.161l.509-.001v2.56l-.51-.001.001-2.558zM9.352 7.161l.503-.001v2.56l-.503-.002V7.161zM21.233 7.161l.503-.001v2.56l-.503-.002V7.161zM2.189 12.048l.509-.001v2.568h-.51l.001-2.566zM9.352 12.049l.503-.001v2.566h-.503v-2.565zM21.233 12.049l.503-.001v2.566h-.503v-2.565zM10.28 17.717a18.76 18.76 0 0 1 1.806-.034c.019.822.032 1.646.075 2.468 1.066.027 2.133-.012 3.197.034-.065.238-.135.475-.206.712-1.066.012-2.131 0-3.197.005-.147-.467-.442-1.04-1.023-.987-.588-.04-.85.542-1.018 1.002-.897.089-.571-.977-.607-1.542.179-.618.658-1.101.973-1.656zm-.47 1.457c.419.03.84.029 1.259.024.007-.364.006-.727 0-1.09-.657-.068-1.084.506-1.259 1.066z"/>
    <path fill="#fff" d="M10.731 20.116c.592-.221 1.226.484.937 1.046-.192.519-.961.638-1.299.2-.365-.394-.154-1.106.361-1.245z"/>
    <path fill="#fdffff" d="M14.15 16.713c2.746-.017 5.491-.008 8.238-.004.007 1.093.007 2.186-.001 3.279-2.746.004-5.491.01-8.237-.002.006-1.092.005-2.183 0-3.273zM15.961 20.109c.586-.196 1.186.485.922 1.04-.183.524-.953.657-1.297.221-.381-.398-.158-1.135.375-1.261z"/>
    <path fill="#fdffff" d="M19.767 20.124c.928-.37 1.457 1.173.516 1.465-.94.387-1.472-1.182-.516-1.465z"/>
    <path fill="#fdffff" d="M21.543 20.102c.61-.179 1.19.568.86 1.113-.225.504-1.006.563-1.305.101-.347-.416-.075-1.109.444-1.214z"/>
    <path fill="#dceaf4" d="M16.9 20.217l.457-.026c-.017.248-.038.495-.064.743a6.296 6.296 0 0 1-.393-.716z"/>
</svg>
