<svg xmlns="http://www.w3.org/2000/svg" width="24" height="24">
    <path fill="#176c95" d="M0 0h24v24H0V0zm8.574.306c-.014 3.315.004 6.629-.009 9.945-2.72.011-5.44-.001-8.159.005.005 1.174.031 2.35.041 3.525 2.705.023 5.411.034 8.117.043.015 3.287-.005 6.574.01 9.86l3.553.001c.034-3.287 0-6.576.018-9.864 2.486-.008 4.97.011 7.455-.009.005 1.061-.008 2.122.006 3.181 1.155.008 2.309.011 3.465-.001.005-3.368.005-6.737 0-10.104-1.155-.018-2.309-.01-3.465-.004-.014 1.123-.001 2.248-.006 3.371-2.486-.006-4.971.005-7.457-.005-.013-3.314.013-6.629-.013-9.943C10.944.304 9.758.306 8.573.306z"/>
    <path fill="#fff" d="M8.574.306c1.185 0 2.371-.001 3.557.001.026 3.314 0 6.629.013 9.943 2.486.01 4.971-.001 7.457.005v3.557c-2.486.02-4.97.001-7.455.009-.018 3.289.017 6.577-.018 9.864l-3.553-.001c-.015-3.286.005-6.573-.01-9.86-2.705-.009-5.411-.02-8.117-.043-.01-1.174-.036-2.35-.041-3.525 2.719-.006 5.438.006 8.159-.005.013-3.315-.005-6.629.009-9.945z"/>
    <path fill="#cc0303" d="M19.606 6.885c1.155-.006 2.309-.014 3.465.004.005 3.368.005 6.737 0 10.104-1.155.013-2.309.009-3.465.001-.014-1.06-.001-2.12-.006-3.181v-3.557c.005-1.123-.008-2.248.006-3.371z"/>
</svg>
