<svg xmlns="http://www.w3.org/2000/svg" width="24" height="24">
    <path fill="#d2dded" d="M5.5 0h.119c.055.091-.042.173-.119.203V0z"/>
    <path fill="#0c479d" d="M5.619 0h13.15v24H5.5V.203c.077-.03.174-.112.119-.203zm6.353 1.051c-.002.544 0 1.088-.001 1.631-.927.005-1.853-.006-2.779.004a.543.543 0 0 0-.571.571c-.004 1.309-.004 2.62 0 3.929a.545.545 0 0 0 .571.571c.926.007 1.853-.001 2.779.003.001.543.001 1.086-.001 1.629-.874.002-1.75.002-2.625 0a269.03 269.03 0 0 0 0 2.541c.724-.002 1.449-.001 2.173-.001v10.15h1.45v-10.15a524.66 524.66 0 0 1 2.173.001c.004-.847.004-1.694 0-2.541-.875.002-1.75.002-2.625 0-.002-.543-.001-1.086-.001-1.629.927-.004 1.853.005 2.78-.003a.545.545 0 0 0 .57-.571c.005-1.309.005-2.619.001-3.928a.545.545 0 0 0-.571-.571c-.926-.009-1.853.001-2.779-.004-.001-.544.001-1.088-.001-1.631a48.96 48.96 0 0 1-.542 0z"/>
    <path fill="#0c479d" d="M9.083 2.877c2.044-.037 4.092-.004 6.137-.016.239-.033.492.14.464.4.005 1.306.005 2.612 0 3.918a.362.362 0 0 1-.394.392c-2.032.004-4.063.004-6.094 0a.36.36 0 0 1-.394-.392c-.008-1.281-.001-2.564-.004-3.845-.018-.194.069-.427.285-.458zm2.108.758c-.038.442-.26.831-.41 1.239-.565-.3-1.346-.07-1.656.491-.349.584-.05 1.427.595 1.65.558.237 1.202-.072 1.516-.553.265-.513.073-1.149-.349-1.516l.063-.153c.42.36.837.724 1.253 1.089-.062.299.13.539.428.579.001.115-.006.231-.014.347.114-.007.227-.017.34-.03a6.756 6.756 0 0 1-.244-.32c.076-.117.152-.234.224-.353l.184-.024c.105.601.672 1.093 1.296 1.009.665-.051 1.117-.73 1.076-1.36-.105-.794-1.044-1.238-1.75-.902-.11-.192-.221-.384-.335-.574.088-.268.351-.374.582-.493-.289-.28-.762-.112-1.127-.123.138.172.341.262.536.352l-.112.262c-.7.009-1.402-.001-2.103.006.085-.215.111-.445.16-.669.144-.204.427-.038.631-.051-.175-.268-.727-.264-.782.099z"/>
    <path fill="#0c479d" d="M11.098 4.385c.705-.001 1.412-.002 2.117 0-.218.457-.361.956-.658 1.37l-.098-.181.088-.241a19.494 19.494 0 0 0-.342 0c.087.153.156.315.188.489-.471-.299-.851-.715-1.282-1.064-.154-.08-.028-.247-.015-.372zM13.353 4.413c.091.16.184.319.274.48-.388.262-.502.713-.637 1.131a6.944 6.944 0 0 1-.232-.282c.2-.442.393-.887.595-1.329zM9.189 5.73c.115-.663.943-.977 1.497-.619-.131.344-.234.764-.657.843.484.183.633-.435.768-.763.503.465.376 1.389-.281 1.639-.682.326-1.52-.369-1.328-1.1zM13.868 5.039c.486-.205 1.115-.007 1.317.5.286.586-.183 1.355-.837 1.362-.504.047-.927-.353-1.038-.823.375-.056.755-.021 1.13-.054-.144-.348-.421-.634-.572-.985z"/>
    <path fill="#0c479d" d="M13.3 5.941c.033-.328.187-.629.446-.836.156.256.305.516.449.779a22.27 22.27 0 0 1-.895.057z"/>
    <path fill="#fff" d="M11.972 1.051h.542c.002.544 0 1.088.001 1.631.927.005 1.853-.006 2.779.004a.545.545 0 0 1 .571.571c.004 1.309.004 2.619-.001 3.928a.544.544 0 0 1-.57.571c-.927.008-1.853-.001-2.78.003-.001.543-.001 1.086.001 1.629.874.002 1.75.002 2.625 0 .004.847.004 1.694 0 2.541-.724-.002-1.449-.001-2.173-.001v10.15h-1.45v-10.15a524.66 524.66 0 0 0-2.173.001 269.03 269.03 0 0 1 0-2.541c.875.002 1.75.002 2.625 0 .002-.543.001-1.086.001-1.629-.927-.004-1.853.004-2.779-.003a.544.544 0 0 1-.571-.571c-.004-1.309-.004-2.62 0-3.929a.544.544 0 0 1 .571-.571c.926-.009 1.853.001 2.779-.004.001-.544-.001-1.088.001-1.631zM9.083 2.877c-.216.03-.303.264-.285.458.003 1.281-.004 2.564.004 3.845a.361.361 0 0 0 .394.392c2.031.004 4.063.004 6.094 0a.363.363 0 0 0 .394-.392c.005-1.306.005-2.612 0-3.918.028-.26-.225-.434-.464-.4-2.045.012-4.093-.021-6.137.016zm.44 6.696c.002.724.002 1.447 0 2.171 1.813.004 3.628.004 5.441 0a392.77 392.77 0 0 1 0-2.171c-1.813-.004-3.628-.004-5.441 0z"/>
    <path fill="#fff" d="M11.191 3.635c.056-.363.607-.368.782-.099-.204.014-.487-.152-.631.051-.049.224-.075.454-.16.669.701-.007 1.402.003 2.103-.006l.112-.262c-.195-.089-.398-.18-.536-.352.365.011.838-.157 1.127.123-.231.119-.493.225-.582.493.114.19.225.381.335.574.706-.336 1.645.108 1.75.902.041.63-.411 1.309-1.076 1.36-.624.083-1.191-.408-1.296-1.009l-.184.024c-.073.119-.148.236-.224.353.078.109.16.215.244.32a7.663 7.663 0 0 1-.34.03c.008-.115.015-.231.014-.347-.298-.039-.489-.279-.428-.579-.415-.365-.833-.729-1.253-1.089l-.063.153c.421.367.613 1.004.349 1.516-.314.481-.958.79-1.516.553-.645-.223-.944-1.066-.595-1.65.31-.56 1.091-.791 1.656-.491.151-.408.373-.798.41-1.239zm-.093.75c-.013.125-.14.291.015.372.431.349.811.765 1.282 1.064a1.565 1.565 0 0 0-.188-.489h.342l-.088.241.098.181c.297-.414.44-.913.658-1.37-.705-.002-1.412-.001-2.117 0zm2.255.028c-.202.442-.395.887-.595 1.329.075.096.152.19.232.282.136-.418.249-.869.637-1.131-.09-.161-.183-.32-.274-.48zM9.189 5.73c-.193.731.645 1.425 1.328 1.1.656-.25.784-1.174.281-1.639-.135.328-.284.947-.768.763.423-.079.526-.5.657-.843-.554-.357-1.383-.044-1.497.619zm4.679-.691c.151.352.428.637.572.985-.375.033-.755-.002-1.13.054.111.47.534.87 1.038.823.653-.007 1.123-.776.837-1.362-.202-.507-.832-.705-1.317-.5zm-.568.902c.299-.013.597-.032.895-.057a20.124 20.124 0 0 0-.449-.779 1.215 1.215 0 0 0-.446.836z"/>
    <path fill="#ce252c" d="M9.523 9.573c1.813-.004 3.628-.004 5.441 0a392.77 392.77 0 0 0 0 2.171c-1.813.004-3.628.004-5.441 0 .002-.724.002-1.447 0-2.171z"/>
</svg>
