<svg xmlns="http://www.w3.org/2000/svg" width="24" height="24">
    <path fill="#fff" d="M11.107 0h1.8c3.308.248 6.476 1.927 8.52 4.541 1.495 1.865 2.383 4.19 2.572 6.569v1.794c-.154 1.778-.668 3.532-1.57 5.075-1.537 2.7-4.161 4.758-7.155 5.592-.77.225-1.564.345-2.36.428h-1.822c-1.709-.147-3.391-.631-4.892-1.464-2.596-1.428-4.634-3.843-5.585-6.652-.333-.957-.518-1.959-.617-2.966v-1.828C.19 8.728 1.07 6.422 2.548 4.566 4.596 1.934 7.78.242 11.105-.001zm.259.596c-1.987.102-3.94.747-5.604 1.836C3.182 4.1 1.334 6.85.775 9.871c-.618 3.186.209 6.616 2.226 9.16 1.84 2.375 4.653 3.967 7.638 4.311 1.681.2 3.408.027 5.012-.518a11.457 11.457 0 0 0 6.533-5.654c1.557-3.019 1.649-6.74.244-9.832a11.459 11.459 0 0 0-6.162-5.936 11.376 11.376 0 0 0-4.901-.807z"/>
    <path fill="#fff" d="M15.814 5.551c1.608-.22 3.378.721 3.901 2.295.15.446.209.919.208 1.389v4.734c-.005.711.045 1.44-.172 2.128-.401 1.406-1.828 2.354-3.253 2.422a3.78 3.78 0 0 1-3.133-1.366c-.515-.642-.714-1.483-.712-2.293 0-1.906-.002-3.812 0-5.718.005-.838.238-1.705.801-2.344a3.795 3.795 0 0 1 2.358-1.245zm.19 1.882a1.593 1.593 0 0 0-1.101.624c-.273.361-.364.825-.364 1.27v5.391c0 .434.08.887.335 1.248.641.92 2.225.906 2.847-.029.242-.355.318-.795.319-1.219V9.374c.002-.393-.057-.798-.254-1.143-.337-.628-1.101-.906-1.783-.798zM7.92 5.663h2.097c-1.426 3.032-2.859 6.061-4.287 9.092h3.22c.002-1.219-.002-2.437.002-3.656h1.882c.002 1.218 0 2.437.001 3.655.339.002.678-.001 1.018.001.001.593.002 1.186 0 1.78-.339.002-.678-.001-1.017.001-.002.628.001 1.255-.001 1.882H8.953c-.002-.628.001-1.256-.001-1.883l-5.289-.001c.012-.599-.029-1.203.02-1.798 1.41-3.026 2.822-6.052 4.238-9.076z"/>
    <path fill="#00f" d="M11.366.596c1.666-.097 3.353.18 4.901.807a11.466 11.466 0 0 1 6.162 5.936c1.405 3.092 1.313 6.813-.244 9.832-1.331 2.64-3.727 4.719-6.533 5.654a11.44 11.44 0 0 1-5.012.518c-2.985-.345-5.798-1.936-7.638-4.311C.984 16.488.158 13.057.776 9.872c.56-3.022 2.408-5.771 4.988-7.439A11.357 11.357 0 0 1 11.368.597zm4.448 4.955a3.8 3.8 0 0 0-2.358 1.245c-.563.639-.795 1.507-.801 2.344-.002 1.906-.001 3.812 0 5.718-.002.81.197 1.65.712 2.293a3.775 3.775 0 0 0 3.133 1.366c1.425-.067 2.851-1.016 3.253-2.422.217-.688.167-1.417.172-2.128V9.233c0-.47-.058-.943-.208-1.389-.524-1.574-2.294-2.515-3.901-2.295zm-7.894.112c-1.416 3.024-2.828 6.05-4.238 9.076-.049.594-.008 1.199-.02 1.798l5.289.001c.002.628-.001 1.256.001 1.883h1.883c.002-.628 0-1.255.001-1.883.339-.002.678 0 1.017-.001.002-.593.001-1.187 0-1.78-.339-.002-.679 0-1.018-.001-.002-1.218.001-2.437-.001-3.655-.627-.002-1.255-.001-1.882 0-.004 1.219 0 2.437-.002 3.656H5.73c1.427-3.031 2.86-6.06 4.287-9.092-.699-.002-1.398-.001-2.097 0z"/>
    <path fill="#00f" d="M16.004 7.433c.682-.107 1.446.17 1.783.798.197.345.255.75.254 1.143v5.344c0 .423-.077.863-.319 1.219-.622.935-2.206.949-2.847.029-.255-.36-.335-.814-.335-1.248V9.327c0-.444.091-.908.364-1.27a1.59 1.59 0 0 1 1.101-.624z"/>
</svg>
