<svg xmlns="http://www.w3.org/2000/svg" width="24" height="24">
    <path fill="#035595" d="M.159 12.377C-.319 6.611 4.187.936 9.931.163c2.153-.199 4.419-.137 6.433.726 3.864 1.624 6.626 5.394 7.168 9.531-.051.857-.049 1.716.006 2.571-.308 1.941-.938 3.857-2.1 5.46-2.422 3.461-6.821 5.439-11.016 4.886C4.969 22.75.299 17.905.158 12.378zm9.102-6.694c-.354 1.361.574 2.573 1.717 3.182-.868.583-1.894.816-2.929.847 1.254.613 2.784.804 4.061.148 1.622-.735 2.67-2.672 2.124-4.416-.225-.752-.915-1.185-1.528-1.598.87-.471 1.845-.654 2.816-.786-2.325-1.32-5.704-.077-6.262 2.621zm-5.072 6.54c-.002.78-.041 1.569.118 2.338.12-.383.212-.771.296-1.162.204.006.409.009.615.015.069.39.146.78.244 1.164.236-.771.165-1.581.159-2.372l-.317.002c-.008.287-.013.572-.019.859l-.748.013-.028-.872-.321.015zm2.015-.217c-.075.662-.18 1.357.015 2.006.255.463.99.461 1.243-.002.191-.645.086-1.335.024-1.993-.343.563-.262 1.236-.296 1.864-.139.056-.418.171-.557.229-.184-.696-.126-1.442-.429-2.104zm1.866.159c-.024.803-.071 1.618.139 2.404.124-.426.223-.855.332-1.284.293.401.57.814.887 1.196a19.447 19.447 0 0 0-.24-1.043c.113-.264.225-.529.336-.795-.375-.418-.93-.45-1.453-.478zm1.774.011c-.013.786-.043 1.577.088 2.357.148-.426.262-.861.381-1.294.293.424.566.862.87 1.279-.045-.36-.111-.716-.188-1.071.634-.896-.308-1.438-1.151-1.271zm1.892-.168c-.156.849-.216 1.749.073 2.578.178-.836.324-1.781-.073-2.578zm1.089.264c-.563.442-.561 1.476-.051 1.959.437.362.885-.079 1.221-.349-.369.038-.739.088-1.108.135-.133-.506-.15-1.035.066-1.521.324.075.649.146.977.212-.259-.326-.662-.726-1.104-.437zm1.296 2.235c.246-.234.486-.474.722-.718l.321-.024c.246.255.493.504.752.746-.238-.756-.3-1.854-.906-2.327-.598.467-.658 1.575-.889 2.323zm2.156-2.479c-.069.763-.06 1.532-.056 2.299l.332-.004.004-1.395c.309.534.617 1.071.977 1.575.143-.756.135-1.526.126-2.291l-.336.008.002 1.29c-.313-.518-.632-1.037-1.048-1.481zm1.875.189c0 .716 0 1.432.009 2.149.51-.024 1.026-.062 1.504-.259-.45-.086-.902-.148-1.354-.221a5.18 5.18 0 0 1 .866-.671c-.294-.103-.591-.202-.881-.313.334-.277.759-.366 1.174-.454l-.124-.232c-.398.002-.795.002-1.194.002zm-14.61 3.475v2.166c.514-.028 1.039-.023 1.521-.232a39.52 39.52 0 0 0-1.331-.253 5.63 5.63 0 0 1 .874-.75c-.186-.021-.555-.064-.741-.084.006-.101.013-.304.019-.405a9.413 9.413 0 0 0 1.106-.289 14.275 14.275 0 0 0-1.447-.152zm1.504-.156c.131.848.405 1.667.746 2.453a8.428 8.428 0 0 0 .784-2.451c-.368.388-.553.894-.776 1.369-.214-.476-.381-.988-.754-1.371zm1.695 2.453c.244-.234.473-.484.694-.739.144.006.289.011.433.019.208.248.42.489.643.724a11.996 11.996 0 0 0-.838-2.471c-.478.748-.741 1.607-.932 2.467zm2.055-1.303c-.231.998.99 1.607 1.545.688-1.059.508-1.427-.454-1.08-1.337.366.03.733.056 1.099.081-.549-.746-1.682-.388-1.564.568zm1.886-.97c.022.6-.073 1.228.109 1.811.287.506 1.161.414 1.283-.167.112-.608.114-1.262-.163-1.826-.141.741-.017 1.556-.465 2.211-.546-.542-.42-1.324-.435-2.018a17.961 17.961 0 0 0-.328-.011zm1.768 2.271c.225-.234.437-.478.643-.729l.452-.006c.208.253.424.501.654.735-.167-.784-.396-1.562-.746-2.284-.748.332-.731 1.547-1.003 2.284zm1.727-2.25c.216.126.433.249.651.373.002.572 0 1.144.002 1.718h.336c.002-.572-.002-1.144 0-1.716l.66-.373a32.34 32.34 0 0 0-1.648-.002zm1.77-.013v2.104h.366v-2.107l-.366.004zm1.177.058c-.553.533-.559 1.894.321 2.089 1.267.017 1.003-2.726-.321-2.089zm1.617-.229c-.047.819-.069 1.644.047 2.458.287-.467.262-1.02.277-1.547.3.54.615 1.074 1.027 1.539.062-.759.054-1.521.051-2.282l-.334.004c0 .437.002.876.004 1.313-.307-.527-.606-1.074-1.072-1.485zm-11.083 3.63c-.006.714-.004 1.429-.002 2.145l.302.017c.026-.367.056-.735.092-1.101.354.399.649.848.992 1.256-.066-.343-.141-.682-.216-1.024.592-.926-.296-1.464-1.168-1.294zm2.338.013c-.831.281-.836 1.836-.026 2.152 1.239.227 1.262-2.332.026-2.152zm1.404 1.682c.129.604 1.093.647 1.303.077.169-.638.067-1.311-.06-1.944-.332.718.038 1.663-.662 2.207-.409-.664-.274-1.463-.394-2.198-.306.568-.315 1.239-.188 1.858zm1.614-1.646c.831.407.501 1.374.563 2.102l.328-.002c0-.578 0-1.153-.011-1.731l.699-.317a13.424 13.424 0 0 0-1.579-.052zm1.693-.049c-.006.726-.006 1.453.002 2.179.521-.023 1.044-.058 1.556-.172a10.34 10.34 0 0 0-1.243-.268l-.021-.405c.293-.09.583-.18.874-.272a46.94 46.94 0 0 0-.881-.27c.011-.098.037-.289.049-.386.364-.037.726-.081 1.088-.139-.446-.221-.938-.234-1.423-.266z"/>
    <path fill="#035595" d="M8.383 12.551c.161.002.48.008.639.009l.122.422-.742.128a52.17 52.17 0 0 0-.019-.559zM10.206 12.431c.291.144.576.3.849.474-.289.081-.581.156-.872.231l.022-.705zM17.259 16.114c.765-.424.821 1.052.384 1.448-.694-.032-.637-.994-.384-1.448zM8.002 19.429c.793.251.951.568.006.746l-.006-.746zM9.975 19.551c.735-.159.688 1.071.339 1.477-.729.099-.72-1.08-.339-1.477z"/>
    <path fill="#fff" d="M9.261 5.683c.559-2.698 3.938-3.941 6.262-2.621-.971.131-1.946.315-2.816.786.613.412 1.303.846 1.528 1.598.546 1.744-.503 3.681-2.124 4.416-1.277.656-2.807.465-4.061-.148 1.035-.032 2.061-.264 2.929-.848-1.144-.609-2.072-1.821-1.717-3.182zM18.741 15.553c.467.411.765.958 1.072 1.485-.002-.437-.004-.876-.004-1.313l.334-.004c.004.761.011 1.523-.051 2.282-.413-.465-.727-.999-1.027-1.539-.015.527.009 1.08-.277 1.547-.116-.814-.094-1.639-.047-2.458z"/>
    <path fill="#324a5c" opacity=".48" d="M23.533 10.419l.092.351v1.873l-.086.347a21.205 21.205 0 0 1-.006-2.571z"/>
    <path fill="#fdfdfe" d="M4.189 12.223l.321-.015.028.872c.249-.006.499-.009.748-.013.006-.287.011-.572.019-.859l.317-.002c.006.791.077 1.601-.159 2.372a16.47 16.47 0 0 1-.244-1.164c-.206-.006-.411-.009-.615-.015-.084.392-.176.78-.296 1.163-.159-.769-.12-1.558-.118-2.338zM6.204 12.006c.304.662.246 1.408.429 2.104l.557-.229c.034-.628-.047-1.301.296-1.864.062.658.167 1.348-.024 1.993-.253.463-.988.465-1.243.002-.195-.649-.09-1.344-.015-2.006zM8.07 12.165c.523.028 1.078.06 1.453.478-.111.266-.223.531-.336.795.088.345.171.692.24 1.043-.317-.383-.594-.795-.887-1.196-.109.429-.208.859-.332 1.284-.21-.786-.163-1.601-.139-2.404zm.313.386c.006.139.015.42.019.559.248-.041.495-.084.742-.128l-.122-.422c-.159-.002-.478-.008-.639-.009zM9.844 12.176c.844-.167 1.785.375 1.151 1.271.077.354.142.711.188 1.071-.304-.416-.578-.855-.87-1.279-.118.433-.232.868-.381 1.294-.131-.78-.101-1.571-.088-2.357zm.362.255l-.022.705c.291-.075.583-.15.872-.231a9.277 9.277 0 0 0-.849-.474zM11.736 12.008c.398.797.251 1.742.073 2.578-.289-.829-.229-1.729-.073-2.578zM12.825 12.272c.443-.289.846.111 1.104.437a35.326 35.326 0 0 1-.977-.212c-.216.486-.199 1.014-.066 1.521.369-.047.739-.098 1.108-.135-.336.27-.784.711-1.221.349-.51-.484-.512-1.517.051-1.959zM16.277 12.028c.416.444.735.964 1.048 1.481l-.002-1.29.336-.008c.009.765.017 1.536-.126 2.291-.36-.504-.668-1.041-.977-1.575l-.004 1.395-.332.004c-.004-.767-.013-1.536.056-2.299zM18.152 12.217c.399 0 .797 0 1.194-.002l.124.232c-.414.088-.84.176-1.174.454.291.111.587.21.881.313a5.18 5.18 0 0 0-.866.671c.452.073.904.135 1.354.221-.478.197-.994.234-1.504.259-.009-.716-.009-1.432-.009-2.149zM3.542 15.692c.486.03.969.073 1.447.152-.362.124-.733.21-1.106.289-.006.101-.013.304-.019.405.186.021.555.064.741.084a5.676 5.676 0 0 0-.874.75c.446.075.889.163 1.331.253-.482.21-1.007.204-1.521.232v-2.166zM5.046 15.536c.373.383.54.894.754 1.371.223-.474.409-.981.776-1.369a8.398 8.398 0 0 1-.784 2.451c-.341-.786-.615-1.605-.746-2.453zM8.796 16.686c-.118-.956 1.014-1.314 1.564-.568a67.649 67.649 0 0 1-1.099-.081c-.347.883.021 1.845 1.08 1.337-.555.919-1.776.309-1.545-.688zM10.682 15.716l.328.011c.015.694-.111 1.476.435 2.018.448-.654.324-1.47.465-2.211.277.564.276 1.219.163 1.826-.122.581-.996.673-1.283.167-.182-.583-.086-1.211-.109-1.811zM14.177 15.737a32.339 32.339 0 0 1 1.648.002l-.66.373c-.002.572.002 1.144 0 1.716h-.336c-.002-.574 0-1.146-.002-1.717-.218-.124-.435-.247-.651-.373zM17.124 15.782c1.324-.637 1.588 2.106.321 2.089-.879-.195-.874-1.556-.321-2.089zm.135.332c-.253.454-.309 1.416.384 1.448.437-.396.381-1.871-.384-1.448zM7.658 19.183c.872-.171 1.761.367 1.168 1.294.075.341.15.681.216 1.024-.343-.409-.637-.857-.992-1.256-.036.366-.066.733-.092 1.101l-.302-.017c-.002-.716-.004-1.431.002-2.145zm.344.246l.006.746c.945-.178.788-.495-.006-.746zM9.996 19.196c1.236-.18 1.213 2.379-.026 2.152-.81-.317-.804-1.871.026-2.152zm-.021.355c-.381.398-.39 1.577.339 1.477.349-.407.396-1.637-.339-1.477zM11.4 20.878c-.127-.619-.118-1.29.188-1.858.12.735-.015 1.534.394 2.198.699-.544.33-1.489.662-2.207.128.634.229 1.307.06 1.944-.21.57-1.174.527-1.303-.077zM13.014 19.232a13.424 13.424 0 0 1 1.579.052l-.699.317c.011.577.011 1.153.011 1.731l-.328.002c-.062-.727.268-1.695-.563-2.102zM14.707 19.183c.486.032.977.045 1.423.266-.362.058-.724.101-1.088.139-.011.098-.037.289-.049.386.294.086.589.178.881.27-.291.092-.581.182-.874.272l.021.405c.418.069.836.148 1.243.268-.512.114-1.035.15-1.556.172-.008-.726-.008-1.453-.002-2.179z"/>
    <path fill="#a4c2d9" d="M14.121 14.507c.231-.748.291-1.856.889-2.323.606.473.668 1.571.906 2.327a20.347 20.347 0 0 1-.752-.746l-.321.024a24.44 24.44 0 0 1-.722.718z"/>
    <path fill="#e9f0f5" d="M6.741 17.989c.191-.861.454-1.719.932-2.467.362.793.656 1.618.838 2.471a15.24 15.24 0 0 1-.643-.724c-.144-.008-.289-.013-.433-.019-.221.255-.45.504-.694.739z"/>
    <path fill="#e3ecf3" d="M12.45 17.987c.272-.737.255-1.952 1.003-2.284.351.722.579 1.5.746 2.284a10.828 10.828 0 0 1-.654-.735l-.452.006c-.206.251-.418.495-.643.729z"/>
    <path fill="#e9f0f6" d="M15.947 15.724l.366-.004v2.107h-.366v-2.104z"/>
</svg>
