<svg xmlns="http://www.w3.org/2000/svg" width="24" height="24">
    <path fill="#fff" d="M0 0h.585A8.177 8.177 0 0 0 0 .649V0zM6.107 1.076c.613-.312 1.325.348 1.161.986-.071.566-.783.924-1.261.587-.572-.343-.516-1.307.099-1.573z"/>
    <path fill="#fff" d="M6.206 3.12c.983-.645 1.787.415 2.364 1.08.67.507.541 1.474.381 2.181-.466.356-.612-.364-.534-.701.154-.64-.441-.995-.832-1.375-.005.578-.003 1.156-.003 1.734H5.899c0-.475 0-.95-.003-1.425-.508.655-.957 1.359-1.492 1.995-.262.373-.77-.169-.458-.461C4.698 5.143 5.32 4.01 6.205 3.12zM15.025 5.227c.435-.155.911-.061 1.363-.081v.333c-.351-.001-.702.001-1.053-.004.043.261.076.524.09.787 1.022-.014 2.045-.008 3.068-.004.09-.152.182-.303.275-.453a50.16 50.16 0 0 1-.506-.283c.45-.027.902-.028 1.354-.019-.004.201-.008.403-.01.604l-.517-.179-.205.306c.133.259.268.517.404.775.808-.279 1.804-.035 2.237.739.548.897-.043 2.159-1.045 2.392-.874.253-1.796-.295-2.095-1.129-.391.004-.796.095-1.179-.01-.566-.89-1.514-1.412-2.284-2.103l-.213.323c.853.689.831 2.132-.129 2.71-1.026.745-2.63-.062-2.643-1.33-.063-1.248 1.397-2.084 2.494-1.56.215-.357.436-.711.649-1.068-.039-.245-.222-.512-.054-.745zm.046 1.361c.661.543 1.329 1.077 1.991 1.618.139-.054.279-.106.419-.159l.832-1.459H15.07zm3.613.034c-.286.498-.569.999-.857 1.497l.524.048c.165-.363.386-.695.658-.986-.108-.187-.215-.373-.325-.559zm-6.396 1.787c-.163 1.061 1.159 1.87 2.044 1.288.81-.434.849-1.588.209-2.192-.262.391-.502.797-.667 1.24-.174.254-.586.072-.579-.222.382-.351.733-.733.957-1.208-.823-.317-1.886.16-1.964 1.094zm7.171-1.104c.155.292.311.582.472.871.27.102.693.335.39.655-.517.145-1.065.098-1.594.163.305.595.975 1.041 1.655.839.852-.174 1.31-1.27.81-1.99-.352-.599-1.114-.715-1.734-.538zm-.756.867c.294.026.588.049.883.07a60.42 60.42 0 0 0-.427-.748c-.161.221-.311.448-.455.679z"/>
    <path fill="#fff" d="M5.906 6.267c.557-.005 1.115-.004 1.672-.005-.085 1.679.498 3.289 1.31 4.73.315.368-.128 1.009-.56.688-.845-1.293-1.352-2.763-1.585-4.288l-.614 1.2c-.511.899-.36 1.986-.659 2.95-.151.404-.815.219-.763-.2.039-.662.188-1.314.266-1.973.095-1.108 1.165-1.93.933-3.102zM11.359 14.844a316.81 316.81 0 0 1 2.388 0v8.267h-2.394c.001-2.755-.009-5.511.005-8.267zM0 23.066c.262.452.69.777 1.186.934H0v-.934zM22.788 24a2.5 2.5 0 0 0 1.083-.697V24h-1.083z"/>
    <path fill="#0303ff" d="M.585 0h22.968c-.088.185.13.413.319.326v22.977a2.503 2.503 0 0 1-1.083.697H1.186A2.095 2.095 0 0 1 0 23.066V.649C.186.424.375.203.585 0zm5.522 1.076c-.615.266-.671 1.23-.099 1.573.477.337 1.19-.021 1.261-.587.164-.637-.548-1.298-1.161-.986zm.099 2.044c-.885.89-1.507 2.023-2.259 3.028-.312.292.196.834.458.461.534-.636.983-1.339 1.492-1.995.003.475.003.95.003 1.425h1.683c0-.578-.003-1.156.003-1.734.391.381.986.735.832 1.375-.077.337.068 1.057.534.701.16-.707.289-1.674-.381-2.181-.577-.665-1.381-1.725-2.364-1.08zm8.819 2.107c-.168.232.015.499.054.745-.213.357-.434.711-.649 1.068-1.097-.524-2.557.312-2.494 1.56.013 1.268 1.617 2.075 2.643 1.33.96-.578.982-2.021.129-2.71l.213-.323c.77.692 1.717 1.213 2.284 2.103.383.106.788.014 1.179.01.299.834 1.222 1.382 2.095 1.129 1.003-.234 1.594-1.495 1.045-2.392-.434-.774-1.43-1.018-2.237-.739-.135-.258-.271-.516-.404-.775l.205-.306.517.179.01-.604a16.98 16.98 0 0 0-1.354.019c.168.094.337.19.506.283-.093.15-.185.301-.275.453-1.023-.004-2.046-.01-3.068.004a7.463 7.463 0 0 0-.09-.787c.351.005.702.003 1.053.004v-.333c-.452.021-.928-.074-1.363.081zm-9.119 1.04c.232 1.172-.837 1.994-.933 3.102-.077.659-.227 1.311-.266 1.973-.053.419.612.604.763.2.299-.964.148-2.05.659-2.95l.614-1.2c.232 1.525.739 2.995 1.585 4.288.432.321.875-.32.56-.688-.812-1.441-1.395-3.052-1.31-4.73-.557.001-1.115 0-1.672.005zm3.148 6.586v1.992c.768.001 1.535.003 2.305-.001-.014 2.756-.004 5.512-.005 8.267h2.394v-8.267c.765.004 1.53.003 2.295.001v-1.992H9.055z"/>
    <path fill="#0303ff" d="M15.071 6.588h3.243c-.277.488-.555.973-.832 1.459-.141.053-.28.105-.419.159-.662-.541-1.33-1.075-1.991-1.618zM18.684 6.622c.11.186.217.372.325.559a3.64 3.64 0 0 0-.658.986l-.524-.048c.288-.498.57-.999.857-1.497zM12.288 8.409c.077-.934 1.141-1.412 1.964-1.094-.225.475-.575.857-.957 1.208-.006.294.405.476.579.222.165-.443.405-.849.667-1.24.64.604.601 1.759-.209 2.192-.885.582-2.206-.227-2.044-1.288zM19.459 7.305c.621-.177 1.382-.061 1.734.538.499.72.041 1.815-.81 1.99-.68.203-1.351-.244-1.655-.839.529-.065 1.076-.018 1.594-.163.303-.32-.12-.554-.39-.655a48.795 48.795 0 0 1-.472-.871z"/>
    <path fill="#0303ff" d="M18.703 8.172c.145-.231.294-.458.455-.679.145.248.286.498.427.748a53.316 53.316 0 0 1-.883-.07z"/>
    <path fill="#f1f1ff" d="M23.552 0h.319v.326c-.188.086-.406-.142-.319-.326z"/>
    <path fill="#ff0303" d="M9.054 12.853h6.988v1.992c-.765.001-1.53.003-2.295-.001a316.81 316.81 0 0 0-2.388 0c-.769.004-1.537.003-2.305.001v-1.992z"/>
</svg>
