<svg xmlns="http://www.w3.org/2000/svg" width="24" height="24">
    <path fill="#fffffe" d="M2.504.068c6.195-.034 12.39-.033 18.586 0C14.895.065 8.699.064 2.504.068zM1.382.244c.154-.013.309-.009.464-.009h20.197c.271-.001.553-.007.808.102.488.193.85.688.88 1.211 0 6.954-.001 13.909.001 20.864.046.758-.633 1.466-1.395 1.449-6.941.002-13.882.001-20.822 0-.717.023-1.369-.592-1.412-1.301L.102 1.735C.04 1.005.649.291 1.382.244zm-.001.291C.814.576.352 1.136.388 1.698c.002 6.942 0 13.883.001 20.825.025.451.358.865.786 1.004.28.07.57.046.856.05 6.757-.001 13.515.002 20.272-.001.58.023 1.11-.474 1.142-1.049V1.585c-.024-.579-.555-1.087-1.14-1.062C15.449.519 8.592.523 1.736.521c-.118-.001-.237 0-.354.015z"/>
    <path fill="#fffffe" d="M1.415 1.156a.983.983 0 0 1 .172-.016c6.906.002 13.812-.001 20.718.002.266-.009.517.211.521.48l.001 20.829c.01.292-.271.535-.558.505-6.906 0-13.813.001-20.72-.001a.51.51 0 0 1-.539-.505V1.658a.499.499 0 0 1 .407-.503zM13.789 3.53c-.332.021-.641.181-.887.4-.425.431-.565 1.057-.562 1.645-.017.502.155.995.425 1.414.517.747 1.715.831 2.345.182.418-.445.561-1.075.558-1.67.025-.524-.176-1.035-.477-1.456-.332-.408-.886-.596-1.402-.515zm-5.55.049v3.962h.694c.002-.908-.001-1.815.001-2.722.632.906 1.259 1.815 1.891 2.722h.611V3.579a77.067 77.067 0 0 0-.68 0c-.002.87.001 1.74-.002 2.61-.609-.869-1.213-1.741-1.822-2.61h-.694zM5.558 9.897v.555l.903.001.001 3.407h.625l.001-3.406c.306-.001.611.001.917-.001v-.555H5.558zm3.017 0v2.547a1.88 1.88 0 0 0 .217.884c.405.631 1.359.795 1.948.328.379-.243.512-.713.532-1.139.003-.873.001-1.746.001-2.619a65.104 65.104 0 0 0-.625 0c.001.861-.001 1.722.001 2.583a.944.944 0 0 1-.223.604c-.192.21-.513.243-.772.157-.284-.114-.437-.428-.452-.72V9.899a65.313 65.313 0 0 0-.626 0zm3.63 0v3.962h.625c.002-.575-.001-1.149.001-1.724h.75c.215.574.425 1.15.64 1.724h.68c-.229-.616-.463-1.23-.692-1.847.649-.306.808-1.247.316-1.762a1.133 1.133 0 0 0-.861-.345c-.486-.02-.973-.005-1.459-.009zm3.351 0c.001 1.321-.001 2.642.001 3.963l.624-.001c.002-.894 0-1.788.001-2.682.507.893 1.01 1.788 1.516 2.681h.556V9.896a65.313 65.313 0 0 0-.626 0c-.001.842.001 1.684-.001 2.526-.485-.841-.962-1.686-1.447-2.527l-.624.001zM4.005 16.196c-.377.021-.762.235-.915.592-.487.897-.445 2.029.006 2.93.324.567 1.103.705 1.663.436.332-.162.516-.507.639-.838.244-.813.223-1.72-.138-2.495a1.19 1.19 0 0 0-1.256-.625zm2.415.056v3.962h.625c.001-.893-.001-1.786.001-2.679.508.891 1.009 1.787 1.516 2.679h.555v-3.963h-.625c-.002.843.001 1.686-.001 2.528-.484-.842-.962-1.687-1.447-2.528h-.625zm5.61 0v3.962h.625c.001-.575-.001-1.149.001-1.724a93.5 93.5 0 0 1 .749 0c.218.575.422 1.154.645 1.726.225-.004.45-.001.676-.002-.23-.617-.464-1.231-.694-1.848.508-.246.755-.909.523-1.424a1.05 1.05 0 0 0-.933-.673c-.53-.036-1.062-.011-1.593-.018zm3.351 0v3.962h2.461v-.639c-.611-.001-1.223.001-1.834-.001v-1.083c.385-.002.769 0 1.154-.001v-.639c-.384-.001-.769.001-1.153-.001v-.973c.57-.001 1.14.001 1.71-.001v-.624h-2.336zm3.116 0v3.963c.48-.001.961.005 1.441-.003.455-.013.788-.386 1-.752a3.098 3.098 0 0 0 .016-2.453c-.172-.314-.413-.658-.789-.727-.554-.051-1.111-.019-1.667-.027z"/>
    <path fill="#fffffe" d="M13.899 4.232c.313-.05.658.074.823.356.325.574.311 1.31.034 1.899-.271.527-1.119.55-1.435.058a1.964 1.964 0 0 1-.078-1.832c.112-.261.368-.466.656-.481zM12.83 10.523c.291 0 .581-.007.871.004.313-.005.597.346.466.648-.084.161-.24.305-.43.311-.302.018-.604.005-.906.008-.003-.324-.001-.648-.001-.972zM3.961 16.847c.262-.07.582.009.721.257.312.599.316 1.318.125 1.955a.894.894 0 0 1-.34.51c-.275.142-.669.077-.829-.206-.309-.593-.318-1.307-.135-1.94.065-.24.208-.496.457-.577zM12.656 16.878c.298.003.597-.008.895.008.196.002.36.152.444.319.121.292-.143.628-.443.638-.298.017-.597.005-.896.008v-.973zM19.122 16.878c.277.007.556-.019.832.017.258.038.402.288.483.511a2.763 2.763 0 0 1-.014 1.652c-.096.214-.238.464-.495.498-.267.038-.537.013-.806.019v-2.697zM1.015 23.975c.048-.034.087-.026.118.025h-.101l-.017-.025z"/>
    <path fill="#1a1919" d="M0 1.101C.233.611.668.17 1.22.077c.428-.011.856-.006 1.285-.009C8.7.064 14.895.065 21.091.068c.416-.001.832.006 1.248.004.737-.046 1.41.555 1.551 1.262v21.458c-.052.03-.06.069-.025.117-.184.477-.544.89-1.032 1.067-.049-.035-.089-.027-.12.024H1.134c-.031-.051-.07-.059-.118-.025a1.743 1.743 0 0 1-1.015-1V1.101zM1.382.244C.649.291.041 1.005.102 1.735L.103 22.56c.042.71.695 1.324 1.412 1.301 6.941.001 13.882.002 20.822 0 .761.017 1.44-.691 1.395-1.449-.002-6.955 0-13.91-.001-20.864a1.428 1.428 0 0 0-.88-1.211c-.254-.109-.536-.103-.808-.102H1.846c-.155 0-.309-.004-.464.009z"/>
    <path fill="#1a1919" d="M1.381.535c.118-.016.236-.016.354-.015C8.592.522 15.448.518 22.304.522c.585-.025 1.117.484 1.14 1.062v20.942c-.032.575-.561 1.072-1.142 1.049-6.757.003-13.515 0-20.272.001-.285-.004-.576.02-.856-.05a1.159 1.159 0 0 1-.786-1.004C.387 15.58.389 8.639.387 1.697.35 1.135.813.575 1.38.534zm.034.621a.499.499 0 0 0-.407.503v20.792a.51.51 0 0 0 .539.505c6.907.002 13.814 0 20.72.001.288.03.568-.213.558-.505l-.001-20.829c-.003-.27-.255-.49-.521-.48-6.906-.003-13.812 0-20.718-.002a.903.903 0 0 0-.172.016z"/>
    <path fill="#1a1919" d="M13.789 3.53c.515-.08 1.07.107 1.402.515.302.421.502.932.477 1.456.003.595-.14 1.225-.558 1.67-.63.649-1.828.565-2.345-.182-.27-.418-.442-.912-.425-1.414-.003-.587.137-1.214.562-1.645.246-.219.555-.378.887-.4zm.11.702c-.288.015-.544.22-.656.481a1.961 1.961 0 0 0 .078 1.832c.316.492 1.165.469 1.435-.058.277-.59.292-1.325-.034-1.899-.165-.281-.51-.406-.823-.356zM8.239 3.579h.694c.609.869 1.213 1.742 1.822 2.61.003-.87 0-1.74.002-2.61h.68v3.962a62.22 62.22 0 0 1-.611 0c-.631-.906-1.259-1.816-1.891-2.722-.003.907 0 1.814-.001 2.722H8.24V3.579zM5.558 9.897h2.447v.555c-.306.002-.611 0-.917.001l-.001 3.406h-.625l-.001-3.407c-.301-.001-.602.001-.903-.001v-.555zM8.575 9.897h.626v2.623c.014.292.168.606.452.72.259.086.58.054.772-.157a.937.937 0 0 0 .223-.604c-.003-.861 0-1.722-.001-2.583h.625c0 .873.002 1.746-.001 2.619-.02.425-.154.896-.532 1.139-.589.467-1.543.303-1.948-.328a1.874 1.874 0 0 1-.217-.884V9.895zM12.205 9.897c.486.004.973-.011 1.459.009.321-.008.64.108.861.345.492.514.333 1.456-.316 1.762.229.616.463 1.231.692 1.847h-.68c-.215-.574-.425-1.15-.64-1.724h-.75c-.003.575.001 1.149-.001 1.724h-.625V9.898zm.625.626c0 .324-.001.648.001.972.302-.004.604.009.906-.008.19-.006.346-.15.43-.311.131-.302-.153-.653-.466-.648-.29-.011-.581-.004-.871-.004zM15.556 9.897l.624-.001c.485.841.962 1.686 1.447 2.527.002-.842 0-1.684.001-2.526h.626v3.962h-.556c-.506-.894-1.009-1.788-1.516-2.681-.001.894.001 1.788-.001 2.682l-.624.001c-.002-1.321 0-2.642-.001-3.963zM4.005 16.196a1.19 1.19 0 0 1 1.256.625c.361.775.381 1.683.138 2.495-.123.332-.307.676-.639.838-.56.269-1.34.131-1.663-.436-.452-.902-.493-2.033-.006-2.93.152-.357.538-.572.915-.592zm-.044.651c-.25.081-.392.337-.457.577-.182.633-.174 1.347.135 1.94.16.283.553.348.829.206a.894.894 0 0 0 .34-.51c.191-.637.186-1.356-.125-1.955-.14-.248-.459-.327-.721-.257zM6.42 16.252h.625c.484.841.963 1.686 1.447 2.528.002-.843 0-1.686.001-2.528h.625v3.963h-.555c-.507-.892-1.008-1.788-1.516-2.679-.003.893 0 1.786-.001 2.679h-.625v-3.962zM12.03 16.252c.531.007 1.063-.018 1.593.018.408.012.792.289.933.673.232.516-.015 1.179-.523 1.424.23.616.464 1.231.694 1.848-.225.001-.45-.002-.676.002-.223-.572-.428-1.152-.645-1.726a93.5 93.5 0 0 0-.749 0c-.002.575 0 1.149-.001 1.724h-.625v-3.962zm.626.626v.973c.298-.003.597.01.896-.008.301-.01.564-.346.443-.638-.084-.167-.248-.317-.444-.319-.298-.016-.597-.005-.895-.008zM15.381 16.252h2.336v.624c-.57.002-1.139 0-1.71.001v.973l1.153.001v.639c-.385.001-.769-.001-1.154.001v1.083c.611.002 1.223 0 1.834.001v.639h-2.461v-3.962zM18.497 16.252c.555.008 1.112-.024 1.667.027.376.069.617.414.789.727a3.094 3.094 0 0 1-.016 2.453c-.212.366-.545.739-1 .752-.48.008-.96.001-1.441.003v-3.963zm.625.626v2.697c.268-.006.539.019.806-.019.257-.034.399-.284.495-.498.181-.53.172-1.117.014-1.652-.08-.223-.225-.473-.483-.511-.276-.037-.555-.01-.832-.017z"/>
    <path fill="#b0b0b0" opacity=".97" d="M23.864 22.909c-.035-.048-.027-.087.025-.117v.101l-.025.016z"/>
    <path fill="#bbb" opacity=".96" d="M22.712 24c.031-.051.072-.059.12-.024l-.017.024h-.103z"/>
</svg>
