<svg xmlns="http://www.w3.org/2000/svg" width="24" height="24">
    <path fill="#0c479d" d="M10.741 0h.966c.003 3.643-.008 7.284.006 10.926a513.967 513.967 0 0 1-3.133 3.132c-.151-.435-.521-.88-.276-1.352.152-.321.141-.818-.328-.781-.674-.001-.431.822-.338 1.23-.19-.061-.381-.119-.57-.179-.214-.961-.357-1.933-.489-2.907-.019-.463-.477-.657-.8-.89.204-.523.515-1.074.366-1.65-.262-.452-1.046-.277-1.133.223-.072.453.085.899.137 1.346-.492.227-1.12.418-1.205 1.043-.212.996-.787 2.084-.388 3.086.214-.792.348-1.615.746-2.346-.236 1.573.097 3.142.081 4.719l-.297.281c.185.275.381.543.59.801.448-1.241.227-2.597.492-3.877.265 1.081.173 2.195.206 3.294.217-.182.427-.37.632-.565-.28-1.512.262-3.054.148-4.586.312.93.659 1.849 1.026 2.759.036.436-.201.841-.326 1.248.117.163.234.326.347.493-1.457 1.445-2.897 2.906-4.359 4.345-1.59-1.828-2.507-4.151-2.843-6.534v-2.501c.466-3.99 2.952-7.697 6.572-9.486C7.868.591 9.303.242 10.74.002zM12.302 0h.945c2.387.332 4.714 1.252 6.545 2.843-2.486 2.512-4.995 5.001-7.493 7.503.01-3.449.003-6.897.004-10.346zM12.297 13.07c2.951-2.957 5.899-5.915 8.863-8.858 1.587 1.827 2.506 4.15 2.84 6.532v2.501c-.235 1.443-.587 2.883-1.27 4.185-1.787 3.615-5.486 6.097-9.471 6.572h-.957c-.003-3.644.009-7.288-.005-10.93zm4.432-3.471c-.126.665-.37 1.294-.637 1.915-.895-.421-2.129-.034-2.493.92-.355.827.094 1.876.938 2.186 1.044.443 2.439-.426 2.37-1.588.04-.643-.49-1.084-.702-1.643.698.441 1.275 1.043 1.901 1.577-.135.654.76.747.667 1.359.143-.008.288-.015.431-.021a66.87 66.87 0 0 1-.347-.519c.177-.172.27-.516.561-.502.239.626.634 1.286 1.354 1.412 1.106.297 2.134-.726 2.117-1.805-.071-1.227-1.486-1.905-2.561-1.437-.147-.28-.325-.547-.426-.849.133-.39.573-.533.845-.81a5.05 5.05 0 0 0-1.708-.018c.277.185.565.354.855.516-.129.111-.199.345-.396.333-.938.032-1.877-.008-2.815.013.141-.35.058-.819.347-1.092.267.003.534.01.801.022-.311-.234-.884-.401-1.102.032z"/>
    <path fill="#0c479d" d="M16.551 10.828c1.017-.014 2.034-.005 3.052-.005-.335.672-.528 1.428-1.014 2.017a9.733 9.733 0 0 1-.057-.658l-.347.017c.077.235.151.472.215.712-.706-.51-1.324-1.126-1.992-1.683.048-.133.097-.266.143-.4zM19.782 10.879c.137.215.271.432.409.648-.495.421-.781 1.009-.853 1.65-.139-.123-.277-.246-.418-.366.292-.643.575-1.288.862-1.932zM13.782 12.775c.164-.974 1.351-1.383 2.17-.929-.159.551-.44 1.055-.946 1.357.706.009.892-.702 1.112-1.225.675.681.552 1.963-.369 2.354-.983.512-2.241-.484-1.968-1.557zM20.53 11.734c.694-.201 1.561-.008 1.879.702.476.871-.249 2.07-1.248 2.027-.72.036-1.253-.557-1.448-1.199.525-.053 1.054-.048 1.581-.052-.05-.529-.591-.951-.764-1.479z"/>
    <path fill="#0c479d" d="M19.694 13.076a2.15 2.15 0 0 1 .654-1.222c.228.372.446.75.659 1.129-.437.039-.875.071-1.314.093zM4.21 21.159c2.492-2.512 5-5.005 7.501-7.507-.009 3.449-.003 6.899-.004 10.348h-.954c-2.386-.33-4.712-1.252-6.543-2.841z"/>
    <path fill="#fff" d="M11.707 0h.595c-.001 3.449.006 6.897-.004 10.346-.195.194-.391.386-.585.581-.014-3.643-.004-7.284-.006-10.926zM5.013 7.751c.086-.501.871-.675 1.133-.223.148.577-.163 1.128-.366 1.65.323.234.781.427.8.89.132.974.275 1.946.489 2.907.19.061.381.119.57.179-.093-.408-.335-1.231.338-1.23.468-.037.48.459.328.781-.245.472.125.917.276 1.352-.465.458-.917.928-1.379 1.388-.114-.166-.23-.33-.347-.493.125-.406.363-.812.326-1.248a49.866 49.866 0 0 1-1.026-2.759c.114 1.532-.428 3.074-.148 4.586-.205.195-.415.383-.632.565-.034-1.099.058-2.213-.206-3.294-.265 1.28-.044 2.636-.492 3.877a11.224 11.224 0 0 1-.59-.801l.297-.281c.015-1.577-.317-3.146-.081-4.719-.397.73-.532 1.554-.746 2.346-.399-1.003.177-2.09.388-3.086.085-.625.714-.815 1.205-1.043-.052-.446-.209-.893-.137-1.346zM16.729 9.599c.218-.434.791-.266 1.102-.032a23.792 23.792 0 0 0-.801-.022c-.289.272-.206.742-.347 1.092.938-.021 1.877.019 2.815-.013.197.012.267-.222.396-.333-.29-.163-.578-.332-.855-.516a5.05 5.05 0 0 1 1.708.018c-.272.277-.712.421-.845.81.101.302.279.569.426.849 1.075-.467 2.49.21 2.561 1.437.017 1.079-1.012 2.102-2.117 1.805-.72-.125-1.115-.786-1.354-1.412-.292-.014-.385.33-.561.502.115.174.231.347.347.519-.143.005-.288.013-.431.021.093-.612-.803-.705-.667-1.359-.626-.534-1.203-1.135-1.901-1.577.212.559.742 1 .702 1.643.068 1.163-1.326 2.031-2.37 1.588-.844-.31-1.293-1.359-.938-2.186.364-.954 1.597-1.341 2.493-.92.267-.621.511-1.25.637-1.915zm-.178 1.229c-.046.134-.095.267-.143.4.668.556 1.286 1.173 1.992 1.683a14.26 14.26 0 0 0-.215-.712l.347-.017c.012.219.03.439.057.658.486-.588.679-1.345 1.014-2.017-1.018 0-2.035-.009-3.052.005zm3.231.051c-.286.644-.57 1.289-.862 1.932.141.12.279.244.418.366.072-.641.357-1.23.853-1.65-.138-.215-.272-.432-.409-.648zm-6 1.896c-.274 1.074.985 2.07 1.968 1.557.921-.391 1.044-1.672.369-2.354-.221.523-.406 1.234-1.112 1.225.506-.302.787-.806.946-1.357-.819-.454-2.006-.045-2.17.929zm6.748-1.041c.173.528.714.95.764 1.479-.526.004-1.055-.001-1.581.052.195.641.728 1.235 1.448 1.199.999.043 1.724-1.156 1.248-2.027-.317-.71-1.185-.903-1.879-.702zm-.836 1.342c.439-.022.876-.054 1.314-.093a34.562 34.562 0 0 0-.659-1.129c-.35.325-.574.751-.654 1.222zM11.711 13.652l.586-.582c.014 3.643.003 7.286.005 10.93h-.595c.001-3.449-.005-6.899.004-10.348z"/>
    <path fill="#ce252c" d="M19.791 2.843c.488.425.945.881 1.369 1.369-2.964 2.943-5.912 5.901-8.863 8.858l-.586.582c-2.501 2.502-5.009 4.995-7.501 7.507a13.91 13.91 0 0 1-1.368-1.368c1.462-1.439 2.902-2.899 4.359-4.345.462-.461.915-.93 1.379-1.388a513.967 513.967 0 0 0 3.133-3.132c.194-.195.39-.387.585-.581 2.498-2.502 5.006-4.991 7.493-7.503z"/>
</svg>
