<svg xmlns="http://www.w3.org/2000/svg" width="24" height="24">
    <path fill="#0e518d" d="M11.027 0h1.916c4.088.365 7.926 2.872 9.756 6.566.728 1.385 1.088 2.922 1.301 4.463v1.91c-.367 4.09-2.872 7.931-6.57 9.76-1.384.73-2.921 1.088-4.46 1.301h-1.909c-4.12-.367-7.984-2.91-9.8-6.646-.704-1.363-1.051-2.87-1.26-4.38v-1.919C.2 9.533.553 8.017 1.26 6.645 3.072 2.917 6.92.38 11.028-.001zm-.455 3.251c-.768.874-.409 2.309.589 2.842l-.002.881c-1.06.53-2.468.886-2.902 2.128-.749 1.526-.989 3.246-.929 4.932 2.21-2.182 4.42-4.367 6.623-6.556-.377-.176-.773-.311-1.144-.499-.096-.264-.032-.562-.046-.839.956-.475 1.435-1.757.82-2.683-.598-1.075-2.272-1.193-3.01-.205zm3.389 4.224c.326.166.65.338.971.518-2.45 2.453-4.982 4.84-7.368 7.348 1.064-.346 2.116-.774 3.238-.914 2.044-.335 4.091.305 5.926 1.165-.056.36-.115.719-.178 1.078.988.5 1.936 1.074 2.849 1.699.21-.277.416-.556.62-.836a22.704 22.704 0 0 0-3.29-1.943c.299-2.411.119-5.004-1.217-7.1-.16-.203-.378-.347-.577-.508.882-.874 1.766-1.744 2.647-2.618-.241-.252-.486-.5-.734-.745-.964.95-1.926 1.902-2.886 2.857zm-9.976 9.871c.218.268.438.533.662.796a24.205 24.205 0 0 1 2.928-1.621 20.304 20.304 0 0 1-.256-2.472 797.398 797.398 0 0 0-3.335 3.298zm3.594-.826c.332 1.742.937 3.456 1.93 4.936h1.645a13.48 13.48 0 0 1-1.505-4.573c1.574-.005 3.149-.004 4.723-.001-.232 1.613-.796 3.161-1.601 4.573.582.002 1.163 0 1.745.002 1.025-1.417 1.661-3.085 2.029-4.786-1.423-.682-2.947-1.272-4.546-1.286-1.541.007-3.025.521-4.421 1.135z"/>
    <path fill="#f7fbf5" d="M10.572 3.251c.738-.988 2.412-.87 3.01.205.616.926.137 2.208-.82 2.683.013.277-.05.575.046.839.371.188.767.323 1.144.499a2730.246 2730.246 0 0 1-6.623 6.556c-.06-1.686.18-3.406.929-4.932.433-1.242 1.842-1.597 2.902-2.128l.002-.881c-.998-.533-1.357-1.968-.589-2.842zM13.961 7.475c.96-.955 1.922-1.907 2.886-2.857.248.245.493.493.734.745-.881.875-1.765 1.745-2.647 2.618.199.161.418.305.577.508 1.336 2.096 1.516 4.69 1.217 7.1a22.704 22.704 0 0 1 3.29 1.943c-.204.281-.41.559-.62.836a25.188 25.188 0 0 0-2.849-1.699c.062-.359.121-.718.178-1.078-1.835-.86-3.882-1.5-5.926-1.165-1.122.14-2.173.569-3.238.914 2.386-2.508 4.918-4.895 7.368-7.348-.32-.18-.644-.353-.971-.518zM3.985 17.346a797.398 797.398 0 0 1 3.335-3.298c.035.828.12 1.654.256 2.472a24.205 24.205 0 0 0-2.928 1.621 45.747 45.747 0 0 1-.662-.796z"/>
    <path fill="#f7fbf5" d="M7.579 16.52c1.396-.614 2.88-1.128 4.421-1.135 1.598.014 3.122.605 4.546 1.286-.368 1.7-1.004 3.368-2.029 4.786-.582-.002-1.163 0-1.745-.002.805-1.412 1.369-2.96 1.601-4.573-1.574-.002-3.149-.004-4.723.001.215 1.603.74 3.15 1.505 4.573H9.51c-.992-1.48-1.597-3.193-1.93-4.936z"/>
</svg>
