<svg xmlns="http://www.w3.org/2000/svg" width="24" height="24">
    <path fill="#f2f7fa" d="M0 3.273h.38c-.068.196-.148.413-.346.514L0 3.714v-.441z"/>
    <path fill="#03559b" d="M.38 3.273h23.892v17.455H.364c-.063-.201-.137-.423-.332-.535.162-.628.095-1.281.105-1.92a4035.31 4035.31 0 0 1 0-12.545C.126 5.08.198 4.42.033 3.788c.198-.101.279-.318.346-.514zm7.878 2.524C5.921 7.851 3.604 9.929 1.282 12c2.324 2.068 4.643 4.143 6.964 6.213.435.468 1.271.038 1.122-.589-.279-1.214-.649-2.406-.952-3.615 2.668-.004 5.336-.004 8.003 0-.304 1.215-.679 2.412-.956 3.633-.129.612.682 1.031 1.113.581 2.328-2.071 4.649-4.151 6.977-6.221-2.325-2.074-4.644-4.155-6.983-6.212-.432-.454-1.241-.016-1.106.591.281 1.217.652 2.411.955 3.62-2.668.006-5.336.006-8.003 0 .303-1.211.675-2.407.955-3.625.132-.611-.686-1.039-1.113-.58z"/>
    <path fill="#508bbb" d="M0 3.713l.034.073c.165.633.093 1.292.104 1.94a4035.31 4035.31 0 0 0 0 12.545c-.009.639.057 1.292-.105 1.92L0 20.264V3.711z"/>
    <path fill="#fff" d="M8.258 5.797c.427-.46 1.245-.031 1.113.58-.279 1.217-.652 2.414-.955 3.625 2.668.006 5.336.006 8.003 0-.303-1.209-.673-2.404-.955-3.62-.135-.607.673-1.044 1.106-.591 2.339 2.057 4.658 4.137 6.983 6.212-2.329 2.07-4.65 4.15-6.977 6.221-.431.45-1.242.031-1.113-.581.277-1.22.652-2.417.956-3.633-2.668-.004-5.335-.004-8.003 0 .303 1.209.673 2.401.952 3.615.148.628-.687 1.057-1.122.589-2.321-2.07-4.641-4.144-6.964-6.213 2.322-2.071 4.639-4.15 6.976-6.203z"/>
    <path fill="#ecf2f8" d="M0 20.266l.033-.073c.195.112.268.332.332.535H.001v-.461z"/>
</svg>
