<svg xmlns="http://www.w3.org/2000/svg" width="24" height="24">
    <path fill="#fff" d="M2.5 0h.683A.97.97 0 0 0 2.5.627V0zM20.891 0h.758v24h-.637a.957.957 0 0 0 .593-.943l.001-21.812c.08-.52-.164-1.116-.715-1.245z"/>
    <path fill="#fff" d="M3.241.523c.079-.027.164-.028.246-.03C9.211.496 14.936.491 20.661.496c.261-.015.458.24.429.489-.001 7.373.002 14.745-.002 22.118a.432.432 0 0 1-.471.446H3.444a.432.432 0 0 1-.471-.446C2.969 15.731 2.972 8.358 2.971.986c-.016-.191.082-.395.269-.462zm1.776 2.471c-.317.087-.61.328-.679.659-.093.374.107.801.469.947.346.135.716.196 1.07.307.146.046.318.107.38.261.069.177-.058.362-.22.432-.468.213-1.067.095-1.397-.307-.16.121-.32.242-.479.365.558.708 1.696.853 2.409.302.441-.337.401-1.083-.045-1.399-.424-.284-.958-.285-1.422-.467-.227-.078-.219-.423-.003-.51.394-.17.88-.053 1.182.246.148-.131.298-.261.444-.393-.43-.452-1.118-.606-1.71-.442zm2.538-.031v3.295h.611c.002-.429-.001-.859.001-1.288.405-.009.813.018 1.217-.017.503-.055.903-.541.865-1.045-.016-.504-.47-.91-.961-.936-.577-.022-1.155-.005-1.733-.009zm3.263 0v3.295h2.521a38.81 38.81 0 0 0 0-.591h-1.911v-.902c.337-.001.673.001 1.01-.001v-.599c-.337-.002-.673 0-1.01-.001v-.611h1.845v-.591h-2.458zm3.198 0l.001 3.295h2.512l.001-.59-1.9-.001a135.3 135.3 0 0 1 0-.901h1.008v-.601H14.63a62.017 62.017 0 0 1 0-.61c.615-.002 1.23.001 1.845-.001v-.589c-.82-.002-1.639-.001-2.459 0zm3.188 0l.001 3.294c.38 0 .761.003 1.141-.001.562-.01 1.121-.327 1.377-.835a1.94 1.94 0 0 0 .103-1.362c-.179-.624-.798-1.061-1.436-1.09-.395-.016-.79-.005-1.186-.007zM6.01 7.9v3.295h2.457v-.505H6.601V7.901a38.81 38.81 0 0 0-.591 0zm3.026 0l.001 3.295.59.001V7.9h-.591zm1.45 0v3.296h.579a444 444 0 0 0 0-1.999c.323.663.635 1.332.955 1.996.329-.657.636-1.325.963-1.983.007.662 0 1.323.003 1.984h.58l.001-3.295a55.489 55.489 0 0 0-.577 0c-.317.654-.65 1.301-.967 1.956-.32-.65-.642-1.299-.957-1.951-.193-.01-.387-.004-.581-.005zm3.939 0v3.295h.59l.001-3.294a38.81 38.81 0 0 0-.591 0zm1.159 0v.59c.315.001.629-.001.944.001.001.901-.001 1.802.001 2.704h.579c.002-.902 0-1.803.001-2.704.315-.002.629 0 .944-.001V7.9h-2.469zM4.302 12.848c.013.483.024.965.022 1.448 1.554.002 3.108 0 4.661.001-1.072 1.498-1.842 3.235-2.111 5.065-.084.568-.094 1.144-.116 1.717.492.002.984.003 1.476-.001.003-1.268.225-2.54.732-3.706.472-1.129 1.063-2.254 2.012-3.056.003-.489.001-.979.001-1.468H4.301zm9.182.022c-.085 1.273-.173 2.546-.252 3.82.485.122.968.261 1.456.37.796-.301 1.698-.436 2.521-.166.824.284 1.132 1.438.614 2.121-.251.329-.652.507-1.05.583-1.041.177-2.136-.06-3.035-.608-.252.413-.508.824-.761 1.236 1.002.605 2.169.963 3.346.902a3.796 3.796 0 0 0 2.046-.665 2.75 2.75 0 0 0 1.081-1.583c.195-.833.025-1.759-.51-2.435-.498-.639-1.268-1.034-2.063-1.146-.707-.103-1.419.013-2.11.165.028-.384.058-.767.082-1.151 1.341-.013 2.683-.005 4.025-.005.011-.48.014-.96.027-1.44h-5.418z"/>
    <path fill="#fff" d="M8.168 3.554c.395.015.796-.036 1.186.032.356.074.396.632.046.745-.4.1-.823.024-1.232.048v-.826zM17.818 3.554c.502-.043 1.137.014 1.377.535.207.475.127 1.154-.365 1.423-.299.206-.672.151-1.013.155V3.554zM2.5 23.415a.983.983 0 0 0 .543.585H2.5v-.585z"/>
    <path fill="#040404" d="M3.183 0h17.708c.551.129.795.725.715 1.245l-.001 21.812a.959.959 0 0 1-.593.943H3.043a.989.989 0 0 1-.543-.585V.627A.97.97 0 0 1 3.183 0zm.058.523c-.187.067-.286.271-.269.462.001 7.372-.002 14.745.002 22.117a.432.432 0 0 0 .471.446h17.173a.432.432 0 0 0 .471-.446c.004-7.373.001-14.745.002-22.118.028-.249-.169-.503-.429-.489C14.938.49 9.213.495 3.488.492c-.082.002-.167.003-.246.03z"/>
    <path fill="#040404" d="M5.017 2.994c.593-.164 1.281-.01 1.71.442-.147.133-.296.262-.444.393-.302-.298-.789-.415-1.182-.246-.216.087-.224.433.003.51.464.182.998.183 1.422.467.446.316.486 1.062.045 1.399-.713.551-1.851.406-2.409-.302.158-.123.319-.244.479-.364.33.402.93.52 1.397.307.161-.07.289-.255.22-.432-.062-.155-.234-.215-.38-.261-.354-.11-.724-.171-1.07-.307-.362-.146-.562-.573-.469-.947.07-.332.362-.573.679-.659zM7.555 2.963c.577.005 1.156-.012 1.733.009.491.026.945.432.961.936.038.504-.362.99-.865 1.045-.404.036-.811.008-1.217.017-.002.429.001.859-.001 1.288h-.611V2.963zm.613.591v.826c.409-.024.832.052 1.232-.048.351-.113.311-.671-.046-.745-.39-.068-.791-.017-1.186-.032zM10.818 2.963h2.458v.591h-1.845a62.22 62.22 0 0 0 0 .611c.337.001.673-.001 1.01.001v.599c-.337.002-.673 0-1.01.001v.902h1.911v.591H10.82V2.964zM14.016 2.963h2.459v.589c-.615.002-1.23-.001-1.845.001v.61h1.008v.601H14.63v.901l1.9.001-.001.59h-2.512l-.001-3.295zM17.204 2.963c.395.002.791-.009 1.186.007.638.028 1.257.466 1.436 1.09.125.446.103.943-.103 1.362-.255.507-.815.825-1.377.835-.38.004-.761.001-1.141.001l-.001-3.294zm.614.591v2.113c.341-.005.714.05 1.013-.155.492-.269.572-.948.365-1.423-.24-.52-.875-.577-1.377-.535zM6.01 7.9h.591v2.789h1.866v.505H6.01V7.899zM9.036 7.9h.591v3.296l-.59-.001L9.036 7.9zM10.486 7.9c.194.001.388-.005.581.005.315.653.637 1.302.957 1.951.317-.654.65-1.301.967-1.956.192-.002.384-.001.577 0l-.001 3.295h-.58c-.003-.661.003-1.323-.003-1.984-.327.658-.634 1.326-.963 1.983-.321-.665-.632-1.333-.955-1.996a444 444 0 0 1 0 1.999h-.579V7.901zM14.425 7.9h.591l-.001 3.294h-.59V7.899zM15.584 7.9h2.469v.59c-.315.001-.629-.001-.944.001-.001.901.001 1.802-.001 2.704h-.579c-.002-.901 0-1.802-.001-2.704-.315-.003-.629 0-.944-.001a58.017 58.017 0 0 1 0-.59zM4.302 12.848h6.678c0 .489.002.979-.001 1.468-.949.802-1.54 1.927-2.012 3.056-.507 1.166-.729 2.438-.732 3.706-.492.004-.984.003-1.476.001.022-.573.032-1.149.116-1.717.269-1.83 1.038-3.567 2.111-5.065-1.554-.001-3.108.001-4.661-.001.001-.483-.009-.966-.022-1.448z"/>
    <path fill="#030303" d="M13.484 12.87h5.418c-.014.48-.017.96-.027 1.44-1.342 0-2.684-.009-4.025.005-.024.384-.054.767-.082 1.151.69-.152 1.403-.268 2.11-.165.795.112 1.565.507 2.063 1.146.535.676.705 1.602.51 2.435a2.753 2.753 0 0 1-1.081 1.583c-.596.42-1.321.638-2.046.665-1.177.06-2.344-.298-3.346-.902.253-.412.509-.823.761-1.236.899.548 1.994.785 3.035.608.398-.076.799-.254 1.05-.583.518-.683.21-1.837-.614-2.121-.823-.27-1.725-.134-2.521.166-.488-.109-.971-.248-1.456-.37.079-1.273.168-2.546.252-3.82z"/>
</svg>
