<svg xmlns="http://www.w3.org/2000/svg" width="24" height="24">
    <path fill="#fff" d="M.91 0h22.177c.445.103.81.467.913.912v22.173a1.236 1.236 0 0 1-.912.915H.914A1.24 1.24 0 0 1 0 23.09V.912C.103.467.466.104.91 0zm.656.587C1.008.647.559 1.171.575 1.73c0 6.862-.003 13.723.002 20.584-.001.665.649 1.191 1.298 1.111 6.798-.002 13.596 0 20.394-.001.621.021 1.176-.534 1.155-1.155V1.73a1.15 1.15 0 0 0-.67-1.053c-.255-.122-.543-.104-.817-.103H2.062c-.165.002-.332-.007-.496.013z"/>
    <path fill="#fff" d="M10.478 4.005c.514-.678 1.703-.592 2.082.185-.167.098-.335.196-.504.291-.122-.171-.277-.348-.498-.375a.687.687 0 0 0-.751.423c-.201.488-.19 1.135.199 1.529.353.336 1.056.115 1.025-.415-.181-.001-.361 0-.542-.003v-.525c.372 0 .743.003 1.115-.002-.002.413.037.869-.227 1.22-.473.644-1.582.549-1.993-.118-.406-.662-.386-1.589.095-2.208zM4.661 3.614c.181.001.362.001.543 0 .439.683.889 1.358 1.317 2.048-.005-.683.002-1.365-.004-2.048.186.003.372.003.558 0-.005 1.035-.002 2.071-.001 3.106H6.57c-.451-.7-.924-1.388-1.357-2.1.015.7.004 1.401.007 2.1h-.557c-.003-1.035 0-2.07-.002-3.105zM8.351 3.615h.572c-.002 1.035 0 2.069-.001 3.104-.19.001-.381.002-.57-.002V3.615zM13.74 3.612c.188.004.375.003.563 0 .002.413 0 .827.001 1.24.44-.006.881.013 1.32-.01-.016-.41.014-.821-.017-1.23.186.002.372.001.558.001v3.102c-.183.004-.366.002-.549.003.009-.44 0-.88.005-1.32-.439-.027-.878-.007-1.318-.012-.001.443.001.887-.001 1.331h-.561c0-1.035.004-2.071-.002-3.106zM17.215 3.598c.767-.002 1.534-.001 2.301-.001.001.181.001.362 0 .543l-.865.001v2.577c-.188.002-.375.001-.563 0l-.001-2.578c-.291 0-.581.002-.872-.001a48.78 48.78 0 0 1 0-.541zM3.391 11.713c.495-1.288 1.77-2.179 3.126-2.325 1.026-.114 2.137.069 2.957.731 1.329 1.05 1.486 3.222.415 4.505-.851 1.007-2.154 1.421-3.172 2.216-.553.42-1.035.976-1.222 1.658 1.728.002 3.457 0 5.185.001v1.833H3.232c-.006-.955.17-1.92.586-2.784.607-1.289 1.724-2.264 2.949-2.951.593-.336 1.255-.632 1.656-1.21.386-.54.346-1.372-.163-1.822-.514-.457-1.282-.487-1.915-.301-.592.171-1.025.669-1.256 1.223-.565-.259-1.133-.516-1.697-.775zM13.965 9.563h6.147v1.818l-4.399.001-.162 2.238c1.425-.757 3.44-.549 4.478.76.912 1.18.991 2.91.297 4.213-.399.739-1.084 1.302-1.862 1.604-.89.354-1.875.385-2.814.254-.836-.122-1.67-.413-2.323-.964.354-.496.711-.99 1.069-1.483a3.757 3.757 0 0 0 2.385.708c.811-.001 1.677-.436 1.964-1.232.274-.753.16-1.775-.57-2.232-.859-.491-2.039-.262-2.681.484-.616-.263-1.236-.519-1.852-.782.107-1.795.211-3.591.325-5.386z"/>
    <path d="M1.566.587c.165-.02.331-.011.496-.013h19.875c.274 0 .563-.019.817.103.407.178.677.61.67 1.053v20.539c.021.621-.534 1.176-1.155 1.155-6.798.002-13.597-.001-20.394.001-.649.08-1.299-.446-1.298-1.111C.572 15.453.575 8.591.575 1.73c-.016-.559.433-1.084.991-1.143zm8.912 3.418c-.481.62-.501 1.546-.095 2.208.411.667 1.521.762 1.993.118.264-.351.225-.806.227-1.22-.372.005-.743.002-1.115.002v.525c.181.003.361.002.542.003.031.53-.672.751-1.025.415-.389-.393-.4-1.04-.199-1.529a.687.687 0 0 1 .751-.423c.221.027.376.205.498.375.169-.094.337-.193.504-.291-.38-.777-1.568-.863-2.082-.185zm-5.817-.391c.002 1.035-.001 2.07.002 3.105h.557c-.003-.7.009-1.401-.007-2.1.433.712.906 1.4 1.357 2.1h.504c0-1.035-.004-2.071.001-3.106-.186.004-.372.003-.558 0 .006.683-.001 1.365.004 2.048-.428-.689-.878-1.365-1.317-2.047-.181.001-.362.001-.543 0zm3.69.001v3.102c.19.004.38.003.57.002.002-1.035 0-2.069.001-3.104H8.35zm5.389-.003c.006 1.035.002 2.071.002 3.106h.561c.002-.443 0-.887.001-1.331.439.006.879-.015 1.318.012-.005.44.004.88-.005 1.32.183-.001.366 0 .549-.003V3.614c-.186 0-.372.001-.558-.001.031.409.001.82.017 1.23-.44.023-.88.004-1.32.01-.002-.413.001-.827-.001-1.24a17.61 17.61 0 0 1-.563 0zm3.475-.014v.541c.291.003.581 0 .872.001l.001 2.578h.563V4.141l.865-.001c.001-.181.001-.362 0-.543-.767 0-1.534-.001-2.301.001zM3.391 11.713c.565.26 1.132.516 1.697.775.231-.554.665-1.052 1.256-1.223.633-.185 1.401-.156 1.915.301.509.45.549 1.282.163 1.822-.401.577-1.063.874-1.656 1.21-1.225.687-2.341 1.662-2.949 2.951-.416.864-.592 1.83-.586 2.784h7.448V18.5c-1.729-.002-3.457 0-5.185-.001.187-.682.668-1.238 1.222-1.658 1.018-.795 2.321-1.209 3.172-2.216 1.071-1.283.914-3.455-.415-4.505-.82-.662-1.931-.845-2.957-.731-1.356.145-2.631 1.037-3.126 2.325zm10.574-2.15c-.114 1.795-.218 3.591-.325 5.386.616.263 1.236.519 1.852.782.643-.746 1.822-.975 2.681-.484.73.457.844 1.478.57 2.232-.287.796-1.152 1.231-1.964 1.232a3.77 3.77 0 0 1-2.385-.708c-.359.493-.715.987-1.069 1.483.652.551 1.486.842 2.323.964.939.131 1.924.1 2.814-.254.778-.302 1.463-.865 1.862-1.604.694-1.303.615-3.033-.297-4.213-1.038-1.309-3.052-1.517-4.478-.76l.162-2.238 4.399-.001V9.562h-6.147z"/>
</svg>
