<svg xmlns="http://www.w3.org/2000/svg" width="24" height="24">
    <path fill="#fff" d="M.907 0h22.185c.442.105.803.466.909.909v22.18a1.243 1.243 0 0 1-.909.911H.911a1.245 1.245 0 0 1-.91-.907V.908C.106.466.466.106.908 0zm.659.587C1.008.647.559 1.171.575 1.73v20.538c-.023.641.567 1.201 1.204 1.156 6.83-.001 13.66.001 20.49-.001.621.021 1.177-.534 1.155-1.155V1.73c.021-.621-.534-1.177-1.155-1.155H2.063c-.165.001-.331-.008-.496.012z"/>
    <path fill="#fff" d="M2.08 1.192c.149-.024.301-.015.451-.017 6.407.001 12.815-.001 19.223.001.57-.007 1.076.5 1.069 1.069v19.508c.006.57-.5 1.075-1.069 1.07-6.502.002-13.005.002-19.508 0-.57.006-1.077-.499-1.069-1.07V2.245c-.004-.51.398-.981.903-1.054zm10.945 2.787c-.458.612-.477 1.498-.142 2.17.297.601 1.128.788 1.688.454.222-.134.375-.354.481-.586a32.492 32.492 0 0 0-.518-.199c-.163.375-.689.547-.99.231-.394-.454-.394-1.188-.094-1.691.257-.404.897-.312 1.096.104a45.5 45.5 0 0 0 .503-.228c-.309-.793-1.519-.918-2.023-.254zm6.785-.153c-.329.292-.333.871.007 1.156.341.304.839.311 1.199.579.235.174.123.576-.154.632-.364.123-.758-.1-.9-.444-.174.063-.348.127-.52.194.234.808 1.345 1.076 1.972.562.396-.326.412-1.018.009-1.345-.33-.284-.783-.331-1.153-.54-.179-.091-.172-.381.01-.465.283-.136.673-.041.809.257.169-.055.337-.11.504-.171-.203-.742-1.256-.887-1.782-.415zM2.215 3.598c-.002.18-.002.36 0 .541.29.003.581 0 .871.001.002.859-.001 1.718.001 2.578h.563c.001-.859-.001-1.718.001-2.577.288-.001.576.001.864-.001a48.96 48.96 0 0 0 0-.542c-.767-.001-1.534-.002-2.301 0zm3.386 3.099c.187.003.375.003.562.001.005-.399 0-.798.002-1.197.202-.001.404-.002.605.001.197.399.39.8.591 1.196.21 0 .419.002.629-.002-.199-.42-.409-.834-.608-1.253.583-.201.788-.975.461-1.473-.172-.27-.506-.378-.811-.381-.477-.003-.953-.001-1.43-.001a644.393 644.393 0 0 0 0 3.109zm3.498-3.083v1.918c.003.353.097.739.382.973.417.324 1.032.334 1.497.112.363-.183.535-.6.544-.989.007-.672-.002-1.344.004-2.017-.188.002-.375.002-.562 0-.003.641.003 1.282-.002 1.922-.008.224-.054.495-.274.608a.917.917 0 0 1-.752 0c-.22-.113-.268-.384-.269-.608-.003-.64 0-1.28-.001-1.92l-.568.001zm7.038 0c.003 1.035 0 2.07.002 3.104.188.002.375.002.563 0 .013-.293-.02-.591.015-.88.165-.22.349-.426.518-.644.27.509.54 1.017.812 1.524.218.001.436.001.655-.001-.362-.666-.724-1.331-1.088-1.996.288-.375.592-.736.881-1.11-.222.004-.444.003-.666.003-.372.478-.749.952-1.125 1.427l-.001-1.429c-.188.002-.377.002-.566 0zM5.112 9.755c-.765.376-1.359 1.057-1.683 1.841.576.225 1.154.446 1.73.67.2-.369.473-.717.855-.909a1.937 1.937 0 0 1 1.708-.001c.601.325.757 1.147.5 1.741-.193.446-.671.708-1.143.736-.378.017-.758 0-1.137.009-.002.601-.001 1.203 0 1.805.768.024 1.649-.127 2.29.401.718.604.646 1.935-.197 2.396-.68.37-1.56.367-2.24-.002-.457-.253-.782-.685-1.002-1.15-.577.231-1.154.46-1.73.693.313.798.863 1.516 1.604 1.961.841.515 1.866.651 2.834.542.802-.089 1.607-.38 2.198-.944.813-.766 1.099-1.988.862-3.06-.191-.823-.834-1.485-1.603-1.803.508-.296.925-.758 1.127-1.314.401-1.063.108-2.352-.74-3.116-1.121-1.034-2.893-1.141-4.233-.495zm8.767-.192c-.118 1.794-.216 3.59-.329 5.384.618.265 1.239.525 1.859.785.671-.784 1.963-1.006 2.81-.39.951.822.684 2.603-.467 3.119-1.114.503-2.47.238-3.445-.457-.359.489-.709.986-1.068 1.475.597.524 1.37.803 2.142.943 1.004.167 2.067.15 3.022-.235.767-.304 1.44-.862 1.836-1.591.702-1.315.617-3.07-.322-4.249-1.047-1.28-3.036-1.477-4.45-.729l.161-2.235c1.466-.003 2.933 0 4.399-.001V9.564h-6.148z"/>
    <path fill="#fff" d="M6.165 4.122c.315.009.633-.022.946.017.392.053.412.715.03.799-.322.046-.652.009-.977.021v-.837z"/>
    <path d="M1.566.587c.165-.02.331-.011.496-.012h20.206c.622-.022 1.177.534 1.155 1.155v20.538c.021.621-.534 1.176-1.155 1.155-6.83.002-13.66 0-20.49.001-.637.045-1.227-.516-1.204-1.156V1.73c-.016-.559.433-1.084.991-1.143zm.514.605a1.084 1.084 0 0 0-.903 1.054v19.508c-.007.57.5 1.075 1.069 1.07 6.502.002 13.005.002 19.508 0 .57.006 1.075-.5 1.069-1.07V2.246c.007-.57-.499-1.076-1.069-1.069-6.407-.002-12.815 0-19.223-.001-.15.001-.302-.008-.451.017z"/>
    <path d="M13.025 3.979c.504-.664 1.714-.539 2.023.254-.167.077-.334.154-.503.228-.199-.416-.839-.507-1.096-.104-.3.503-.3 1.237.094 1.691.301.316.827.144.99-.231.173.065.346.131.518.199-.105.232-.259.453-.481.586-.56.333-1.391.147-1.688-.454-.335-.672-.316-1.558.142-2.17zM19.81 3.826c.526-.473 1.579-.328 1.782.415a14.93 14.93 0 0 1-.504.171c-.136-.299-.526-.394-.809-.257-.182.084-.189.374-.01.465.369.21.822.256 1.153.54.403.327.387 1.019-.009 1.345-.627.514-1.738.246-1.972-.562.172-.067.346-.131.52-.194.142.344.536.567.9.444.278-.056.39-.458.154-.632-.36-.268-.857-.276-1.199-.579-.34-.285-.336-.865-.007-1.156zM2.215 3.598c.767-.002 1.534-.001 2.301 0v.542c-.288.002-.577 0-.864.001-.002.859 0 1.718-.001 2.577-.188.002-.375.002-.563 0-.002-.859 0-1.718-.001-2.578-.291-.001-.581.002-.871-.001a48.78 48.78 0 0 1 0-.541zM5.601 6.697a644.393 644.393 0 0 1 0-3.109c.477 0 .953-.002 1.43.001.306.003.64.112.811.381.327.498.122 1.272-.461 1.473.199.419.409.834.608 1.253-.21.004-.419.002-.629.002-.201-.397-.394-.797-.591-1.196a30.516 30.516 0 0 0-.605-.001c-.002.399.003.798-.002 1.197-.187.002-.375.002-.562-.001zm.564-2.575v.837c.325-.012.654.025.977-.021.381-.084.362-.746-.03-.799-.313-.039-.631-.008-.946-.017zM9.099 3.614l.568-.001c.001.64-.002 1.28.001 1.92 0 .224.049.495.269.608a.917.917 0 0 0 .752 0c.22-.113.266-.383.274-.608.005-.641 0-1.282.002-1.922.187.002.374.002.562 0-.007.672.002 1.344-.004 2.017-.009.39-.181.806-.544.989-.465.222-1.08.212-1.497-.112-.285-.234-.379-.62-.382-.973V3.614zM16.137 3.614h.566l.001 1.429c.376-.475.754-.949 1.125-1.427.222 0 .444.001.666-.003-.289.374-.593.735-.881 1.11.364.665.726 1.33 1.088 1.996a47.67 47.67 0 0 1-.655.001c-.272-.507-.542-1.016-.812-1.524-.169.218-.353.423-.518.644-.035.29-.002.587-.015.88-.188.002-.375.002-.563 0-.001-1.035.001-2.07-.002-3.104zM5.112 9.755c1.341-.646 3.112-.539 4.233.495.848.764 1.141 2.053.74 3.116-.202.556-.619 1.018-1.127 1.314.769.318 1.412.98 1.603 1.803.237 1.072-.049 2.294-.862 3.06-.591.564-1.396.855-2.198.944-.968.109-1.993-.027-2.834-.542-.741-.444-1.291-1.162-1.604-1.961.576-.232 1.154-.462 1.73-.693.219.465.545.898 1.002 1.15.681.369 1.56.372 2.24.002.844-.461.915-1.792.197-2.396-.641-.528-1.522-.377-2.29-.401v-1.805c.379-.009.758.008 1.137-.009.472-.028.95-.29 1.143-.736.256-.594.101-1.417-.5-1.741a1.94 1.94 0 0 0-1.708.001c-.382.192-.656.54-.855.909-.577-.224-1.154-.445-1.73-.67.324-.784.918-1.464 1.683-1.841zM13.879 9.563h6.148v1.818c-1.466.002-2.933-.001-4.399.001-.054.745-.109 1.49-.161 2.235 1.414-.748 3.403-.551 4.45.729.939 1.179 1.024 2.934.322 4.249-.396.729-1.069 1.287-1.836 1.591-.954.385-2.018.402-3.022.235-.772-.14-1.545-.42-2.142-.943.359-.489.709-.986 1.068-1.475.975.695 2.331.96 3.445.457 1.151-.516 1.418-2.297.467-3.119-.848-.616-2.139-.394-2.81.39-.62-.26-1.241-.519-1.859-.785.112-1.794.21-3.59.329-5.384z"/>
</svg>
