<svg xmlns="http://www.w3.org/2000/svg" width="24" height="24">
    <path fill="#1a1919" d="M2.5.924c.189-.363.473-.742.891-.84C9.134.044 14.879.077 20.622.07c.358-.036.64.246.858.492.193.194.151.487.186.735.033.846.021 1.693.051 2.539v19.2c-.161.411-.435.781-.848.964H3.306a1.831 1.831 0 0 1-.806-.844V.924zM3.568.178c-.513.052-.935.529-.967 1.036v21.654c.033.579.568 1.076 1.153 1.046 5.379.004 10.759 0 16.138.002.296-.004.596.02.887-.047.475-.141.833-.628.802-1.126-.002-7.177 0-14.353-.001-21.53C21.551.628 21.008.129 20.42.16 14.893.156 9.365.16 3.838.158c-.09 0-.18.008-.27.02z"/>
    <path fill="#1a1919" d="M3.486.424C3.654.383 3.828.386 4 .388 9.473.389 14.945.387 20.417.389c.479-.025.92.388.932.865v21.574c-.016.474-.456.882-.932.858-5.554.001-11.107.002-16.66 0a.915.915 0 0 1-.928-.857V1.255a.915.915 0 0 1 .656-.829zm.121.485a.4.4 0 0 0-.279.386v21.489c-.008.245.232.429.467.405 5.543-.001 11.085.002 16.628-.002.222.013.435-.173.429-.4V1.294c.009-.229-.206-.423-.431-.408C14.88.884 9.338.886 3.797.885a.673.673 0 0 0-.19.023z"/>
    <path fill="#1a1919" d="M13.951 2.256a1.654 1.654 0 0 1 1.481.5c.756.941.743 2.388.013 3.34-.549.632-1.6.717-2.251.197-.75-.615-.909-1.716-.697-2.62.131-.711.705-1.363 1.453-1.417zm.077.761c-.223.02-.417.166-.55.339-.397.633-.394 1.496-.011 2.135.342.529 1.258.5 1.543-.072.294-.634.308-1.423-.044-2.037-.19-.316-.59-.439-.939-.365zM8.014 2.306c.25.011.511-.026.754.017.654.924 1.296 1.859 1.946 2.786.001-.934-.001-1.869.001-2.803.243-.001.486-.002.73 0v4.251c-.219 0-.439.002-.658-.001-.676-.974-1.35-1.949-2.028-2.921-.002.974.001 1.948-.002 2.921h-.744V2.304zM6.674 8.383H8.65v.448c-.247.002-.494-.001-.741.002-.002.917.001 1.835-.002 2.752h-.503c-.003-.917 0-1.835-.002-2.753-.243-.002-.486.001-.73-.001a33.451 33.451 0 0 1 0-.448zM9.113 8.383c.169.003.34-.011.508.009-.009.689 0 1.378-.004 2.068a.758.758 0 0 0 .175.492.58.58 0 0 0 .821 0 .762.762 0 0 0 .175-.492c-.003-.69.002-1.38-.003-2.071.169-.013.338-.005.507-.006 0 .707.002 1.414-.001 2.12-.018.329-.113.693-.397.892a1.113 1.113 0 0 1-1.426-.036c-.255-.203-.334-.547-.354-.856-.003-.707-.001-1.414-.001-2.12zM12.047 8.403c.368-.048.772-.01 1.154-.018.358-.015.732.178.87.519.214.422.016.981-.405 1.189.184.498.375.994.559 1.492-.184 0-.367.002-.551-.001-.172-.464-.342-.93-.518-1.393l-.603.001c-.003.464 0 .929-.002 1.393h-.506c.002-1.061-.003-2.121.002-3.182zm.505.485c-.001.262-.002.524 0 .786.242-.002.484.008.725-.006.268-.006.492-.344.321-.578-.237-.337-.703-.156-1.047-.202zM14.755 8.383c.168-.002.336-.002.505 0 .39.68.777 1.363 1.168 2.042.002-.681-.001-1.361.001-2.042.168-.002.336-.002.504 0 .001 1.067.002 2.135 0 3.202l-.446.001c-.413-.718-.812-1.443-1.226-2.16-.005.72 0 1.44-.002 2.16h-.505V8.384zM10.215 13.473c.403-.1.859.024 1.091.384.298.51.35 1.134.266 1.71-.063.424-.229.896-.636 1.101-.451.183-1.052.088-1.312-.36-.373-.73-.405-1.651-.01-2.38a.812.812 0 0 1 .602-.456zm.04.529c-.192.096-.279.32-.329.518-.124.497-.11 1.052.141 1.508.192.303.715.27.854-.067.243-.546.254-1.211-.01-1.754-.117-.236-.425-.299-.656-.206zM12.305 13.498c.166-.002.332.001.498-.003.4.675.777 1.363 1.173 2.039.005-.679 0-1.357.003-2.036.168-.001.336-.002.505.001V16.7a9.773 9.773 0 0 1-.453-.002c-.405-.722-.812-1.443-1.221-2.162-.002.722 0 1.443-.001 2.164h-.505v-3.201zM8.275 18.501c.43.004.861-.015 1.291.014a.852.852 0 0 1 .751.545c.189.419-.015.949-.423 1.153.187.496.375.992.559 1.49-.182.002-.364 0-.547.001-.177-.463-.344-.93-.52-1.393-.202-.001-.404-.002-.606 0-.002.464 0 .928-.001 1.392l-.504.001c-.003-1.068-.001-2.135-.001-3.203zm.506.506c-.002.262-.002.523 0 .785.341-.044.794.13 1.037-.189.184-.229-.033-.576-.303-.591-.244-.013-.49-.004-.734-.005zM10.984 18.501h1.888v.506c-.461.001-.921-.001-1.382.001-.001.262-.002.523 0 .785.311.002.621-.001.932.001v.516c-.311.002-.622-.001-.933.002-.003.289.004.578-.004.867.495.02.991.002 1.486.009v.516c-.663.001-1.326.002-1.989 0v-3.202zM13.501 18.501c.465.011.934-.03 1.397.033.326.103.535.422.648.728a2.514 2.514 0 0 1-.069 1.822c-.169.302-.444.606-.816.617-.386.007-.772 0-1.159.003-.006-1.068-.002-2.136-.002-3.204zm.506.506a527.56 527.56 0 0 0 0 2.179c.25-.011.511.034.752-.045.237-.134.333-.419.375-.674.056-.429.052-.913-.197-1.284-.222-.281-.624-.146-.93-.176z"/>
    <path fill="#fffffe" d="M3.568.178c.09-.012.18-.019.27-.02C9.365.16 14.893.156 20.42.16c.588-.031 1.131.469 1.16 1.053.001 7.176-.001 14.353.001 21.53.03.498-.327.985-.802 1.126-.291.066-.591.043-.887.047-5.379-.001-10.759.002-16.138-.002-.585.029-1.12-.468-1.153-1.046V1.214c.032-.507.454-.984.967-1.036zm-.082.246a.913.913 0 0 0-.656.829v21.574c.015.472.453.88.928.857 5.553.002 11.106.002 16.66 0 .476.024.916-.384.932-.858V1.252c-.012-.476-.454-.89-.932-.865C14.946.385 9.473.387 4.001.386a2.106 2.106 0 0 0-.514.036z"/>
    <path fill="#fffffe" d="M3.607.909a.755.755 0 0 1 .19-.023C9.338.887 14.88.885 20.421.887c.226-.015.44.179.431.408v21.493c.006.227-.207.412-.429.4-5.543.004-11.085.001-16.628.002-.235.024-.475-.16-.467-.405V1.296A.4.4 0 0 1 3.607.91zm10.344 1.347c-.748.055-1.322.706-1.453 1.417-.212.903-.053 2.004.697 2.62.651.52 1.702.435 2.251-.197.729-.952.742-2.399-.013-3.34a1.658 1.658 0 0 0-1.481-.5zm-5.937.05v4.252h.744c.002-.974 0-1.948.002-2.921.678.972 1.352 1.947 2.028 2.921.219.002.438.001.658.001V2.308a44.409 44.409 0 0 0-.73 0c-.002.934 0 1.869-.001 2.803-.651-.927-1.292-1.862-1.946-2.786-.243-.043-.504-.006-.754-.017zm-1.34 6.077c-.002.15-.002.299 0 .448.243.002.486 0 .73.001.002.918-.001 1.835.002 2.753h.503c.003-.917 0-1.835.002-2.752.247-.003.494 0 .741-.002v-.448c-.659-.002-1.318-.001-1.976 0zm2.439 0c0 .707-.002 1.414.001 2.12.019.309.099.654.354.856a1.113 1.113 0 0 0 1.426.036c.284-.199.379-.564.397-.892.003-.707.001-1.413.001-2.12-.169.001-.339-.007-.507.006.005.69 0 1.38.003 2.071a.758.758 0 0 1-.175.492.578.578 0 0 1-.821 0 .758.758 0 0 1-.175-.492c.004-.69-.004-1.379.004-2.068-.169-.02-.339-.006-.508-.009zm2.934.02c-.006 1.061-.001 2.121-.002 3.182h.506c.002-.464-.002-.929.002-1.393l.603-.001c.176.463.345.928.518 1.393.184.003.367.002.551.001-.184-.498-.374-.994-.559-1.492.421-.208.619-.767.405-1.189-.138-.341-.512-.533-.87-.519-.382.008-.786-.03-1.154.018zm2.708-.02a1708.8 1708.8 0 0 0 0 3.202h.505c.002-.72-.003-1.44.002-2.16.414.717.813 1.443 1.226 2.16l.446-.001c.002-1.067.001-2.135 0-3.202a42.336 42.336 0 0 0-.504 0c-.002.681 0 1.361-.001 2.042-.391-.679-.778-1.362-1.168-2.042a21.253 21.253 0 0 0-.505 0zm-4.54 5.09a.81.81 0 0 0-.602.456c-.395.729-.363 1.65.01 2.38.26.448.861.543 1.312.36.407-.205.573-.677.636-1.101.084-.576.032-1.2-.266-1.71-.231-.36-.688-.484-1.091-.384zm2.09.025v3.201h.505c.001-.721-.001-1.443.001-2.164.409.72.816 1.44 1.221 2.162.151.004.302.003.453.002v-3.201a28.355 28.355 0 0 0-.505-.001c-.003.679.002 1.358-.003 2.036-.396-.677-.774-1.365-1.173-2.039-.166.004-.332.001-.498.003zm-4.03 5.003c0 1.067-.002 2.135.001 3.203l.504-.001c.001-.464-.001-.928.001-1.392.202-.002.404-.002.606 0 .176.463.343.93.52 1.393.182 0 .364.001.547-.001-.184-.497-.372-.994-.559-1.49.407-.204.612-.734.423-1.153a.852.852 0 0 0-.751-.545c-.43-.029-.861-.009-1.291-.014zm2.709 0v3.202c.663.002 1.326.002 1.989 0v-.516c-.495-.007-.992.011-1.486-.009.007-.289.001-.578.004-.867.311-.003.622 0 .933-.002v-.516c-.311-.002-.621.001-.932-.001-.002-.262-.001-.523 0-.785.461-.002.921 0 1.382-.001V18.5h-1.888zm2.517 0c0 1.068-.004 2.136.002 3.204.386-.004.773.004 1.159-.003.372-.011.647-.315.816-.617.256-.568.267-1.234.069-1.822-.114-.306-.323-.625-.648-.728-.463-.063-.932-.022-1.397-.033z"/>
    <path fill="#fffffe" d="M14.028 3.017c.349-.074.75.049.939.365.352.615.338 1.403.044 2.037-.285.572-1.201.601-1.543.072-.384-.639-.387-1.502.011-2.135.133-.173.327-.319.55-.339zM12.552 8.888c.344.045.81-.135 1.047.202.17.234-.054.571-.321.578-.241.014-.483.004-.725.006a51.484 51.484 0 0 1 0-.786zM10.255 14.002c.231-.093.539-.031.656.206.264.542.253 1.207.01 1.754-.139.337-.662.37-.854.067-.252-.456-.266-1.011-.141-1.508.05-.198.137-.422.329-.518zM8.781 19.007c.244.002.49-.008.734.005.27.015.488.362.303.591-.244.319-.697.145-1.037.189a51.353 51.353 0 0 1 0-.785zM14.007 19.007c.306.031.708-.104.93.176.249.372.253.855.197 1.284-.042.255-.137.54-.375.674-.242.078-.502.033-.752.045a527.56 527.56 0 0 1 0-2.179z"/>
</svg>
