<svg xmlns="http://www.w3.org/2000/svg" width="24" height="24">
    <path d="M2.002 0h19.992c.502.147.835.655.829 1.169.002 7.205 0 14.41.001 21.615.021.529-.311 1.062-.828 1.217H2.007c-.502-.147-.837-.654-.83-1.168V1.17C1.17.657 1.503.152 2.002.001zm.753 1.957c-.46.393-.484 1.193-.022 1.593.459.41 1.119.437 1.622.769.316.191.268.72-.072.859-.511.242-1.131-.063-1.335-.571-.239.088-.479.174-.716.267.325 1.169 2.014 1.508 2.824.655.424-.474.406-1.31-.095-1.724-.447-.389-1.061-.458-1.568-.73-.246-.113-.282-.48-.051-.627.382-.219.964-.096 1.148.331.231-.076.462-.152.692-.231-.257-1.026-1.699-1.223-2.428-.592zm3.643-.31c-.004 1.419-.002 2.838 0 4.258.258.003.516.001.773.001V4.313c.431-.01.864.023 1.294-.023.489-.06.936-.408 1.075-.886.239-.682-.14-1.554-.884-1.697-.743-.126-1.507-.033-2.258-.059zm4.075.005c-.005 1.417-.002 2.835-.001 4.252.974.003 1.948.001 2.922 0 0-.246.002-.491-.003-.737-.715-.007-1.43 0-2.144-.003V4.077l1.24-.001c0-.245.003-.491-.003-.736-.413-.005-.825 0-1.237-.002V2.39c.672-.001 1.343.001 2.016-.001 0-.246.002-.492-.002-.737-.929-.005-1.858-.004-2.786 0zm3.922.002c-.007 1.417-.001 2.835-.003 4.252h2.92c.002-.247.003-.493-.001-.739-.714-.002-1.428 0-2.142-.001V4.079l1.236-.001c0-.246.001-.491-.001-.737-.412-.003-.824 0-1.235-.001v-.948c.671-.002 1.342.003 2.013-.003.004-.245.004-.491 0-.736-.93-.003-1.859-.005-2.789.001zm3.915-.003a603.22 603.22 0 0 0 0 4.254c.806-.041 1.684.146 2.422-.27.731-.411 1.018-1.32.935-2.116-.048-.683-.418-1.378-1.063-1.665-.72-.322-1.53-.166-2.294-.203zM4.233 6.567c-.002 1.416-.001 2.832 0 4.248h2.813v-.743c-.679-.002-1.358 0-2.037-.001-.002-1.168.001-2.337-.002-3.505a49.795 49.795 0 0 0-.773 0zm3.691-.007v4.255c.257.002.515.001.772 0V6.56a99.33 99.33 0 0 0-.772 0zm2.032 0v4.254c.258.002.516.001.774.001-.002-.85.008-1.7-.006-2.549.387.887.781 1.772 1.174 2.657.389-.891.808-1.769 1.17-2.67-.015.854-.005 1.709-.007 2.563h.77V6.56h-.744c-.398.9-.799 1.799-1.186 2.704-.377-.908-.783-1.803-1.175-2.704h-.77zm5.137 0v4.256h.77V6.561a99.074 99.074 0 0 0-.771 0zm1.762-.003V7.3h1.192c.002 1.172 0 2.344.001 3.515h.772V7.3h1.193v-.743h-3.159zM5.676 13.366c-.628.357-1.13.945-1.341 1.641.378.173.758.341 1.138.511.129-.38.321-.756.641-1.011.457-.372 1.078-.468 1.65-.425.577.04 1.17.315 1.464.832.361.614.228 1.433-.235 1.957-.652.761-1.597 1.159-2.401 1.725-.75.517-1.435 1.163-1.866 1.975-.38.705-.543 1.511-.539 2.308h6.646v-1.24c-1.724-.002-3.448.001-5.172-.001.135-.646.553-1.194 1.052-1.61 1.062-.899 2.46-1.361 3.373-2.443.786-.907.873-2.313.283-3.343-.386-.67-1.095-1.102-1.839-1.26-.956-.197-1.998-.106-2.854.387zm10.142-.448a2.82 2.82 0 0 0-1.624.76c-.558.535-.89 1.261-1.093 1.997-.276 1.049-.333 2.147-.242 3.225.083.893.275 1.796.719 2.584.334.6.85 1.113 1.495 1.367 1.079.412 2.428.265 3.271-.569.633-.609.978-1.454 1.172-2.296a9.53 9.53 0 0 0 .1-3.515c-.143-.893-.424-1.796-1-2.508-.649-.839-1.77-1.194-2.8-1.045z"/>
    <path d="M7.172 2.391c.413.014.83-.03 1.24.025.532.12.525.998.001 1.126-.409.056-.828.011-1.24.024V2.39zM19.082 2.391c.415.025.874-.083 1.248.151.411.265.555.79.547 1.254.002.461-.162.976-.578 1.223-.367.223-.811.125-1.216.146V2.39zM15.859 14.125c.442-.09.928-.048 1.317.194.381.232.637.622.804 1.028.292.721.377 1.507.404 2.28.019.822-.02 1.656-.231 2.455-.14.511-.359 1.027-.763 1.385-.503.448-1.275.513-1.877.241-.516-.24-.842-.75-1.027-1.27-.3-.838-.358-1.74-.345-2.624.008-.832.096-1.682.415-2.458.229-.569.68-1.098 1.303-1.23z"/>
    <path fill="#fff" d="M2.755 1.957c.729-.631 2.171-.434 2.428.592-.23.079-.461.155-.692.231-.184-.427-.765-.551-1.148-.331-.231.148-.195.514.051.627.508.272 1.122.342 1.568.73.501.414.519 1.249.095 1.724-.81.853-2.499.513-2.824-.655.237-.092.477-.179.716-.267.204.508.824.813 1.335.571.339-.139.388-.668.072-.859-.503-.331-1.163-.359-1.622-.769-.462-.4-.439-1.2.022-1.593zM6.398 1.647c.751.026 1.515-.067 2.258.059.744.143 1.123 1.015.884 1.697-.139.479-.585.827-1.075.886-.429.046-.863.013-1.294.023v1.593c-.258 0-.516.002-.773-.001-.002-1.419-.003-2.838 0-4.258zm.774.744v1.176c.413-.014.832.031 1.24-.024.524-.128.531-1.006-.001-1.126-.41-.055-.827-.012-1.24-.025zM10.473 1.652a323.41 323.41 0 0 1 2.786 0c.005.246.002.492.002.737-.672.002-1.344 0-2.016.001v.948c.412.002.825-.002 1.237.002.006.245.002.491.003.736l-1.24.001v1.087c.714.003 1.429-.003 2.144.003.005.246.002.491.003.737-.974.001-1.948.002-2.922 0-.001-1.418-.004-2.835.001-4.253zM14.395 1.654c.93-.007 1.859-.004 2.789-.001.004.245.004.491 0 .736-.671.006-1.343 0-2.013.003v.948c.412.002.823-.001 1.235.001.002.246.001.491.001.737l-1.236.001v1.087c.714.002 1.428-.001 2.142.001.004.246.003.493.001.739h-2.92c.001-1.417-.004-2.835.003-4.252zM18.31 1.651c.763.036 1.573-.12 2.294.203.645.287 1.015.982 1.063 1.665.083.796-.203 1.706-.935 2.116-.738.416-1.616.229-2.422.27a670.243 670.243 0 0 1 0-4.254zm.772.74v2.775c.405-.021.849.076 1.216-.146.417-.248.581-.762.578-1.223.008-.465-.136-.99-.547-1.254-.374-.234-.833-.126-1.248-.151zM4.233 6.567c.258-.002.516-.002.773 0 .003 1.168 0 2.337.002 3.505.679.001 1.358-.001 2.037.001v.743H4.232V6.568zM7.924 6.56h.772v4.255h-.772V6.56zM9.956 6.56h.77c.392.901.798 1.796 1.175 2.704.387-.905.788-1.803 1.186-2.704h.744v4.256h-.77c.002-.854-.009-1.709.007-2.563-.362.902-.781 1.78-1.17 2.67-.393-.885-.787-1.77-1.174-2.657.014.849.004 1.699.006 2.549-.258 0-.516.001-.774-.001V6.56zM15.093 6.56h.771v4.255h-.77V6.559zM16.855 6.557h3.159V7.3h-1.193v3.515h-.772c-.002-1.171 0-2.343-.001-3.515h-1.192a92.008 92.008 0 0 1 0-.743zM5.676 13.366c.855-.493 1.898-.584 2.854-.387.745.158 1.454.591 1.839 1.26.59 1.03.503 2.436-.283 3.343-.914 1.082-2.311 1.544-3.373 2.443-.499.416-.916.964-1.052 1.61 1.724.003 3.448 0 5.172.001v1.24H4.187c-.004-.796.159-1.603.539-2.308.431-.811 1.116-1.458 1.866-1.975.804-.566 1.749-.964 2.401-1.725.464-.524.597-1.343.235-1.957-.295-.517-.888-.792-1.464-.832-.572-.043-1.193.053-1.65.425-.32.255-.512.63-.641 1.011-.379-.17-.76-.337-1.138-.511.21-.696.713-1.283 1.341-1.641zM15.818 12.918c1.03-.149 2.151.207 2.8 1.045.576.713.857 1.615 1 2.508a9.553 9.553 0 0 1-.1 3.515c-.194.842-.539 1.687-1.172 2.296-.844.833-2.193.981-3.271.569-.645-.254-1.162-.767-1.495-1.367-.444-.788-.636-1.691-.719-2.584-.091-1.078-.034-2.176.242-3.225.203-.736.535-1.462 1.093-1.997a2.811 2.811 0 0 1 1.624-.76zm.041 1.207c-.623.132-1.074.661-1.303 1.23-.319.776-.406 1.626-.415 2.458-.013.884.045 1.786.345 2.624.186.52.511 1.03 1.027 1.27.602.272 1.374.207 1.877-.241.405-.358.623-.874.763-1.385.211-.799.25-1.633.231-2.455-.026-.773-.112-1.558-.404-2.28-.167-.405-.423-.795-.804-1.028-.389-.242-.875-.285-1.317-.194z"/>
</svg>
