<svg xmlns="http://www.w3.org/2000/svg" width="24" height="24">
    <path fill="#03408b" d="M10.551 0h2.891c.551.2 1.153.21 1.711.396 4.049 1.062 7.39 4.404 8.452 8.452.185.555.193 1.154.396 1.703v2.891c-.201.551-.21 1.153-.396 1.711-1.062 4.049-4.404 7.39-8.452 8.452-.555.185-1.154.193-1.701.396H10.56c-.552-.2-1.153-.21-1.711-.396-4.049-1.062-7.39-4.404-8.454-8.452-.184-.556-.192-1.154-.394-1.701v-2.891c.2-.552.21-1.153.396-1.712C1.459 4.8 4.8 1.459 8.848.397c.556-.185 1.156-.192 1.704-.396zm-.845 4.096c-1.225.601-1.755 1.974-2.141 3.196-.676 2.352-.737 4.855-.389 7.267.245 1.376.589 2.785 1.401 3.946.404.567 1.004 1.107 1.746 1.079 1.077-.003 2.153.015 3.23-.009.96-.086 1.557-.979 1.984-1.748.863-1.785 1.136-3.792 1.176-5.755.017-2.143-.235-4.347-1.164-6.302-.436-.88-1.195-1.826-2.279-1.779-1.185.048-2.399-.121-3.564.105z"/>
    <path fill="#030303" d="M9.706 4.096c1.165-.225 2.379-.056 3.564-.105 1.085-.047 1.844.9 2.279 1.779.929 1.955 1.181 4.159 1.164 6.302-.04 1.963-.312 3.97-1.176 5.755-.428.77-1.024 1.663-1.984 1.748-1.077.024-2.153.007-3.23.009-.741.028-1.342-.512-1.746-1.079-.813-1.161-1.156-2.57-1.401-3.946-.349-2.412-.287-4.915.389-7.267.386-1.223.916-2.596 2.141-3.196zm.082.338l.06.236-.228-.094c-.119.052-.229.123-.343.189-.51.516-.881 1.161-1.124 1.842l.379-.094.032.166c-.18.039-.449.027-.358.295l.198-.007-.079.135c-.147.072-.312.119-.429.241-.122.695-.648 1.663-.264 2.218l-.093.239.448-.02-.164.363c-.194-.21-.359.056-.465.192-.102.817-.062 1.644-.06 2.466.068-.001.204-.004.272-.007l-.044.307a6.56 6.56 0 0 1 .479-.182c-.109.206-.287.367-.385.581l-.141.086-.114-.074c.102.937.252 1.874.534 2.777a.71.71 0 0 0 .464.005c.152-.184.298-.374.44-.564-.253.278-.446.653-.347 1.027.233.102.574.004.748.225-.33-.054-.731-.079-.957-.349a5.071 5.071 0 0 0-.146.37l.072.015c.19.609.53 1.177.963 1.646.099.13.256.189.4.257l-.001.09c.152.102.323.17.501.205.711.011 1.52.188 2.179-.079l.41.125.267-.3.048.274c.245-.019.495.034.737-.023.716-.192 1.195-.841 1.512-1.471l-.064-.106c.287.007.335-.251.366-.477.245-.682.508-1.377.585-2.098-.194-.339-.501-.61-.644-.968.308.076.381.626.768.383-.007-.754.492-1.747-.064-2.334l.316-.157c.013-.182-.189-.217-.311-.291.469-.251.169-.822.216-1.238-.105-.362.083-.886-.271-1.12-.658.45-.137-.235.064-.488-.127-.716-.252-1.468-.589-2.117-.402.149-.326.807-.727.881.231-.46.497-.897.547-1.421-.369-.776-.886-1.609-1.766-1.857l-.109.17a.338.338 0 0 0-.597-.008l-.076-.149c-.573-.119-1.035.339-1.357.75l-.109-.103c.165-.24.484-.375.562-.668-.713.055-1.447-.086-2.144.107z"/>
    <path fill="#030303" d="M10.655 5.964l.245.031.025.241-.284.012.013-.284zM9.434 6.524a1.66 1.66 0 0 1 .971-.307c-.162.256-.656.329-.971.307zM10.973 6.457c.35.326.39.898.607 1.327.287-.156.333-.536.523-.782l.201.03-.042.206-.024.114c.719.201.87 1.015 1.03 1.64.366 1.844.371 3.769.001 5.613-.158.617-.319 1.432-1.034 1.617l.028.129.046.21-.205.023c-.185-.268-.255-.631-.53-.827-.17.322-.208.752-.518.972.07-.461.428-.838.472-1.301a15.038 15.038 0 0 1-.401-1.748c-.095.048-.286.142-.379.19.083-.181.232-.316.337-.484-.019-.485-.068-.971-.087-1.457l-.013-.264c.043-.522.083-1.044.111-1.567-.24-.314-.53-.585-.786-.884l.095-.111c.257.228.416.606.731.744.09-.606.268-1.192.409-1.785-.164-.544-.456-1.047-.573-1.605zM13.479 6.764c.05.295.31.429.558.542-.278-.078-.678-.157-.558-.542zM14.165 7.655c.252.176.048.641.41.768a18.82 18.82 0 0 1-.276-.182c-.036-.197-.059-.398-.134-.586zM14.534 8.735c.152.278.196.601.298.898-.161-.272-.196-.601-.298-.898zM8.769 9.34c.178-.249.606-.113.843-.299-.223.169-.546.335-.843.299zM14.812 9.958c.165.265.056.568.117.858l-.137.011c.048-.284.165-.594.02-.869zM8.628 10.895c.26-.001.378.365.68.316.038.091.084.176.145.253-.278-.184-.662-.282-.825-.57zM14.935 11.039h.03c.005.522.012 1.046.005 1.569-.103-.5-.012-1.051-.035-1.569zM8.054 12.551c.184-.245.518-.3.774-.449l-.272.409.544-.129c-.154.272-.515.256-.737.45l.08-.351a52.91 52.91 0 0 0-.389.07zM14.804 12.787l.115-.001c-.068.271.106.648-.119.847.137-.267.058-.564.004-.846zM14.533 14.863c.113-.294.137-.623.299-.896-.113.294-.127.631-.299.896zM9.731 14.427c.613-.067-.208.66 0 0zM9.027 15.64a2.24 2.24 0 0 1 .708-.712c-.283.185-.523.43-.708.712zM14.291 15.359c.093-.063.186-.125.28-.186l-.231.204c.047.168.084.337.111.508l-.32.036.225-.2-.066-.362zM13.538 16.615c.149-.13.315-.237.487-.334-.091.225-.493.244-.554.562.017-.056.051-.17.067-.228zM10.742 17.197c.611.219-.362.438 0 0z"/>
    <path fill="#fff" d="M9.788 4.434c.697-.193 1.431-.052 2.144-.107-.078.292-.397.428-.562.668l.109.103c.322-.41.784-.869 1.357-.75l.076.149c.264.441.205.98.147 1.468-.101.519-.74.595-.956 1.038-.19.245-.236.626-.523.782-.217-.429-.257-1.002-.607-1.327.117.558.409 1.061.573 1.605-.141.593-.319 1.179-.409 1.785-.315-.138-.473-.516-.731-.744l-.095.111c.256.299.546.57.786.884a54.466 54.466 0 0 1-.111 1.567c-.408-.023-1.295.168-1.126-.522.186-.681-.189-1.578.473-2.054-.282-.774.075-1.574.323-2.328.05-.32.595-.318.465-.704-.093-.308.131-.555.294-.788-.017-.105-.076-.165-.18-.18-.151.206-.229.488-.453.634-.278-.378-.555-.767-.933-1.054l-.06-.236zM13.508 4.505l.109-.17c.88.248 1.397 1.081 1.766 1.857-.05.524-.316.961-.547 1.421.401-.074.324-.732.727-.881.337.649.461 1.401.589 2.117-.201.253-.723.939-.064.488.354.233.166.758.271 1.12-.047.416.253.987-.216 1.238-.307.06-.625.099-.936.051.091-.636-.334-1.527.359-1.916-.067-.324-.354-.036-.51.054-.005-.774-.489-1.504-.147-2.269-.129.074-.251.157-.379.229-.174-.593-.589-1.149-1.183-1.368-.012-.646-.186-1.386.162-1.971z"/>
    <path fill="#fff" d="M8.153 6.607c.243-.681.614-1.326 1.124-1.842.496.282.774.81 1.145 1.223-.64.13-1.276.299-1.889.526l-.379.094zM8.565 6.68c.233-.046.467-.098.705-.113-.225.235-.599.22-.865.401l-.198.007c-.091-.268.178-.256.358-.295zM8.463 7.145c.656-.224 1.314-.449 1.996-.574-.135.619-.436 1.201-.465 1.845-.578-.274-1.031-.849-1.531-1.271zM12.263 7.239c.606-.814 1.409-.023 1.711.625.888 2.206.924 4.71.315 6.992-.174.741-.607 1.381-1.175 1.88-.343.067-.614-.174-.85-.385l-.028-.129c.715-.185.876-1 1.034-1.617.37-1.844.365-3.769-.001-5.613-.16-.625-.311-1.439-1.03-1.64l.024-.114zM7.897 7.345c.31.295.601.622.977.834.105-.019.21-.035.316-.051.18.123.327.287.48.441l-.323-.036.083.28c-.542.311-1.372.279-1.731.782.296-.044.582-.139.874-.204-.178.177-.538.181-.585.457.627-.08 1.193-.39 1.794-.574.031.67-.19 1.321-.145 1.994a12.452 12.452 0 0 1-1.413-1.091c-.436.064.139.402.232.569-.272-.111-.489-.337-.782-.396.288.627 1.122.796 1.482 1.384.04.185.157.263.349.233-.121.142-.299.247-.35.438.165-.046.329-.094.492-.145-.048.611.087 1.205.141 1.809l-.504-.032c.119.138.255.263.382.394a7.266 7.266 0 0 1-.963-.46c.13.007.39.017.522.024-.322-.363-.827-.566-1.293-.685.078.311.456.342.67.531-.355.011-.63-.302-.983-.341.098-.213.276-.374.385-.581a6.738 6.738 0 0 0-.479.182c.011-.076.034-.229.044-.307-.068.003-.204.005-.272.007-.001-.822-.042-1.649.06-2.466.106-.135.271-.402.465-.192l.164-.363-.448.02.093-.239c-.383-.555.142-1.523.264-2.218zm.157 5.206l.389-.07-.08.351c.223-.194.583-.178.737-.45l-.544.129.272-.409c-.256.149-.59.204-.774.449z"/>
    <path fill="#fff" d="M9.951 11.981c.345-.072.699-.042 1.047-.052.019.487.068.972.087 1.457-.105.168-.253.303-.337.484l.379-.19c.095.591.236 1.172.401 1.748-.044.463-.402.839-.472 1.301.31-.22.347-.65.518-.972.275.196.345.559.53.827.137.303.463.432.704.636.072.578-.05 1.169.083 1.743l-.267.3-.41-.125c-.755-.569-1.47-1.464-1.07-2.455-.145.098-.27.221-.405.331-.237-.559-.394-1.148-.531-1.738-.121-.555.361-.956.594-1.398-.299-.038-.424.306-.636.456-.434-.629-.223-1.612-.216-2.353zM15.254 12.042c.29-.088.649-.138.882.101.556.587.058 1.581.064 2.334-.387.243-.46-.307-.768-.383.142.358.449.629.644.968-.076.721-.339 1.416-.585 2.098l-.306-.02c-.248-.307-.231-.928-.63-1.018.197.503.409 1.004.57 1.515l.064.106c-.318.63-.796 1.279-1.512 1.471-.193-.039-.39-.071-.571-.149-.103-.599-.063-1.22-.031-1.826.731-.119.972-.838 1.507-1.201.114-.735.383-1.435.469-2.172l.278.115c-.224-.623-.181-1.298-.075-1.939zM7.366 13.512l.114.074c.676.418 1.402.751 2.125 1.079-.607.499-1.106 1.113-1.705 1.624-.282-.902-.432-1.84-.534-2.777zM8.619 16.559c.206-.547.853-1.142 1.372-1.377.082.613.294 1.195.46 1.787-.611-.135-1.211-.323-1.831-.41zM8.173 17.019c.721.098 1.409.355 2.128.453-.377.408-.767.806-1.165 1.193a4.396 4.396 0 0 1-.963-1.646zM9.536 18.922c.491-.326.75-.91 1.254-1.208.274.54.645 1.018 1.035 1.478-.595.047-1.192.017-1.789.025a1.366 1.366 0 0 1-.501-.205l.001-.09z"/>
    <path fill="#eaeaea" d="M12.912 4.497a.338.338 0 0 1 .597.008c-.349.585-.174 1.325-.162 1.971.594.219 1.008.775 1.183 1.368.129-.072.251-.156.379-.229-.342.764.142 1.495.147 2.269.156-.09.442-.378.51-.054-.693.389-.268 1.28-.359 1.916.311.048.629.009.936-.051.122.074.324.109.311.291l-.316.157c-.233-.239-.593-.189-.882-.101-.106.641-.149 1.315.075 1.939l-.278-.115c-.086.737-.355 1.437-.469 2.172-.535.363-.776 1.082-1.507 1.201-.032.606-.072 1.227.031 1.826.181.078.378.11.571.149-.243.056-.492.004-.737.023l-.048-.274c-.133-.574-.011-1.165-.083-1.743-.241-.204-.567-.333-.704-.636l.205-.023-.046-.21c.236.21.507.452.85.385.567-.499 1-1.138 1.175-1.88.609-2.282.573-4.787-.315-6.992-.302-.648-1.105-1.439-1.711-.625l.042-.206-.201-.03c.216-.442.855-.519.956-1.038.058-.488.117-1.027-.147-1.468zm.567 2.267c-.121.385.28.464.558.542-.248-.113-.508-.247-.558-.542zm.686.891c.075.188.098.389.134.586.091.062.184.122.276.182-.362-.127-.158-.593-.41-.768zm.369 1.08c.102.298.137.626.298.898-.102-.298-.146-.621-.298-.898zm.278 1.223c.145.275.028.585-.02.869l.137-.011c-.06-.29.048-.593-.117-.858zm.123 1.081c.023.518-.068 1.069.035 1.569.007-.523 0-1.047-.005-1.569h-.03zm-.131 1.748c.054.282.133.579-.004.846.225-.2.051-.577.119-.847l-.115.001zm-.271 2.076c.172-.264.186-.602.299-.896-.162.272-.186.602-.299.896zm-.242.496l.066.362-.225.2.32-.036a4.378 4.378 0 0 0-.111-.508l.231-.204c-.094.062-.188.123-.28.186zm-.753 1.256c-.016.058-.05.172-.067.228.06-.318.463-.337.554-.562a2.897 2.897 0 0 0-.487.334z"/>
    <path fill="#a8a8a8" d="M9.277 4.765c.114-.066.224-.137.343-.189l.228.094c.378.287.656.676.933 1.054.224-.146.302-.428.453-.634.103.015.162.075.18.18-.162.233-.386.48-.294.788.13.386-.416.383-.465.704-.248.754-.605 1.554-.323 2.328-.662.476-.287 1.373-.473 2.054-.169.689.719.499 1.126.522l.013.264c-.349.011-.703-.02-1.047.052-.007.741-.219 1.724.216 2.353.212-.15.337-.493.636-.456-.233.442-.715.843-.594 1.398.137.59.294 1.179.531 1.738.135-.11.26-.233.405-.331-.4.991.315 1.886 1.07 2.455-.658.267-1.468.09-2.179.079.597-.008 1.193.021 1.789-.025-.39-.46-.762-.937-1.035-1.478-.504.298-.763.882-1.254 1.208-.143-.068-.3-.127-.4-.257.398-.387.788-.786 1.165-1.193-.719-.098-1.406-.355-2.128-.453l-.072-.015a5.57 5.57 0 0 1 .146-.37c.227.27.627.295.957.349-.174-.221-.515-.123-.748-.225-.099-.374.094-.75.347-1.027-.142.19-.288.381-.44.564-.143.058-.319.04-.464-.005.599-.511 1.098-1.125 1.705-1.624-.723-.329-1.449-.661-2.125-1.079l.141-.086c.353.039.627.351.983.341-.215-.189-.593-.22-.67-.531.465.119.971.322 1.293.685l-.522-.024c.307.18.633.327.963.46-.127-.131-.263-.256-.382-.394l.504.032c-.054-.603-.189-1.197-.141-1.809-.164.051-.327.099-.492.145.051-.192.229-.296.35-.438-.192.03-.308-.048-.349-.233-.359-.587-1.193-.756-1.482-1.384.292.059.51.284.782.396-.093-.166-.668-.504-.232-.569.446.394.914.764 1.413 1.091-.046-.673.176-1.323.145-1.994-.601.184-1.166.493-1.794.574.047-.276.406-.28.585-.457-.292.064-.578.16-.874.204.359-.503 1.189-.471 1.731-.782l-.083-.28.323.036c-.153-.154-.3-.318-.48-.441-.106.016-.212.032-.316.051-.377-.212-.668-.539-.977-.834.117-.122.282-.169.429-.241l.079-.135c.265-.181.64-.166.865-.401-.239.015-.472.067-.705.113l-.032-.166c.613-.227 1.25-.396 1.889-.526-.371-.413-.649-.941-1.145-1.223zm1.378 1.199l-.013.284.284-.012-.025-.241-.245-.031zm-1.221.56c.315.021.808-.051.971-.307a1.66 1.66 0 0 0-.971.307zm-.971.621c.5.422.953.998 1.531 1.271.03-.644.33-1.225.465-1.845-.682.125-1.341.35-1.996.574zm.339.412c-.669-.071.06.688 0 0zM8.769 9.34c.298.036.621-.13.843-.299-.237.186-.665.05-.843.299zm-.141 1.555c.162.288.547.386.825.57a1.114 1.114 0 0 1-.145-.253c-.302.048-.42-.318-.68-.316zm1.103 3.532c-.208.66.613-.067 0 0zm-.704 1.213c.185-.282.425-.527.708-.712a2.24 2.24 0 0 0-.708.712zm-.408.919c.621.087 1.22.275 1.831.41-.166-.593-.378-1.175-.46-1.787-.519.235-1.165.83-1.372 1.377zm.923.398c.101.264.59.299.869.292-.204-.233-.613-.122-.869-.292zm1.2.24c-.362.438.611.219 0 0z"/>
    <path fill="#525252" d="M14.556 16.122c.4.09.382.711.63 1.018l.306.02c-.031.227-.079.484-.366.477-.161-.511-.373-1.012-.57-1.515z"/>
</svg>
