<svg xmlns="http://www.w3.org/2000/svg" width="24" height="24">
    <path fill="#d8261d" d="M10.619 0h2.739c5.226.62 9.794 4.862 10.538 10.112a26.345 26.345 0 0 0 .011 3.543c-.625 5.336-5.243 9.722-10.539 10.345h-2.712c-4.921-.587-9.315-4.379-10.365-9.258-.518-2.89.005-5.832 1.159-8.503.054-.103.11-.205.172-.304a6.781 6.781 0 0 0 1.103-1.583C4.645 1.917 7.585.46 10.62 0zm.262 2.506c-3.265.416-6.186 2.637-7.502 5.646-.944 2.17-1.09 4.695-.351 6.947 1.376 4.484 6.461 7.691 11.085 6.478 3.381-.993 6.064-3.838 7.109-7.171 1.693-6.046-4.077-12.793-10.341-11.9z"/>
    <path fill="#feffff" d="M10.881 2.506c6.264-.893 12.033 5.854 10.341 11.9-1.046 3.333-3.729 6.178-7.109 7.171-4.624 1.213-9.708-1.995-11.085-6.478-.739-2.252-.593-4.778.351-6.947 1.316-3.009 4.237-5.229 7.502-5.646zm3.017 2.216c.01 1.338.06 2.678.073 4.016.005.769.116 1.613.703 2.17.421.477 1.148.78 1.232 1.478.046.946 0 1.895.013 2.84-.375-.297-1.467-.927-1.389-.008.626 1.036 1.502 1.906 2.2 2.897.73-.965 1.534-1.871 2.243-2.85.051-.925-1.008-.346-1.421-.06.06-1.09.221-2.176.227-3.268-.173-1.221-1.794-1.403-2.028-2.583-.358-1.543-.188-3.133-.119-4.697-.579.003-1.155.027-1.732.064zm-4.899 2.55c-.153.162-.021.404-.016.596.513.135.943-.205 1.373-.423-.008.966.008 1.933-.014 2.899-2.845 1.537-4.091 4.873-4.037 7.971.536.006 1.071.005 1.605.005.046-1.74.358-3.568 1.467-4.97.642-.973 1.732-1.464 2.608-2.182-.01-1.249-.01-2.497-.011-3.746.388.272 1.37.914 1.4.051-.599-1.022-1.494-1.861-2.211-2.808-.739.855-1.451 1.731-2.165 2.608zm1.71 7.238c-.087 1.286-.011 2.581-.035 3.87.935-.008 1.868-.019 2.801-.021-.013-1.279.062-2.565-.041-3.84-.369-1.243-2.341-1.245-2.724-.01zM1.621 5.935c.321-.558.695-1.086 1.103-1.583a6.781 6.781 0 0 1-1.103 1.583zM0 10.763c.246-1.57.655-3.137 1.45-4.525C.296 8.91-.227 11.852.291 14.741c-.108-.478-.194-.96-.291-1.442v-2.537z"/>
    <path fill="#0a0b0d" d="M13.898 4.722c.577-.037 1.154-.06 1.732-.064-.068 1.564-.238 3.153.119 4.697.234 1.179 1.855 1.362 2.028 2.583-.006 1.092-.167 2.177-.227 3.268.413-.286 1.472-.865 1.421.06-.709.979-1.513 1.885-2.243 2.85-.698-.992-1.574-1.861-2.2-2.897-.078-.919 1.014-.289 1.389.008-.013-.946.033-1.895-.013-2.84-.084-.698-.811-1.001-1.232-1.478-.586-.556-.698-1.4-.703-2.17-.013-1.338-.064-2.678-.073-4.016z"/>
    <path fill="#0b0b0c" d="M8.999 7.272c.714-.877 1.426-1.753 2.165-2.608.717.947 1.612 1.787 2.211 2.808-.03.863-1.012.221-1.4-.051.002 1.249.002 2.497.011 3.746-.876.718-1.966 1.21-2.608 2.182-1.109 1.402-1.421 3.23-1.467 4.97-.534 0-1.07.002-1.605-.005-.054-3.098 1.192-6.434 4.037-7.971.022-.966.006-1.933.014-2.899-.431.218-.86.558-1.373.423-.005-.192-.137-.434.016-.596zM10.709 14.51c.383-1.235 2.355-1.233 2.724.01.103 1.275.029 2.561.041 3.84-.933.002-1.866.013-2.801.021.024-1.289-.052-2.584.035-3.87z"/>
    <path fill="#a17f80" opacity=".85" d="M23.895 10.112l.105.272v3.519l-.094-.248a26.344 26.344 0 0 1-.011-3.543z"/>
</svg>
