<svg xmlns="http://www.w3.org/2000/svg" width="24" height="24">
    <path d="M0 0h10.987C9.081.198 7.201.788 5.585 1.831A12.057 12.057 0 0 0 .427 8.724C.208 9.466.1 10.232 0 10.997V-.001zM13.002 0H24v10.988c-.227-2.29-1.063-4.529-2.49-6.343C19.714 2.31 17.034.671 14.13.164 13.756.09 13.376.065 13.001 0z"/>
    <path d="M11.408 1.195c1.729-.097 3.483.23 5.06.947 2.69 1.208 4.833 3.567 5.774 6.362.943 2.73.725 5.836-.598 8.404-1.334 2.643-3.8 4.687-6.65 5.492a10.84 10.84 0 0 1-5.506.125c-2.867-.668-5.412-2.576-6.87-5.132-1.452-2.494-1.826-5.58-1.029-8.352.79-2.831 2.799-5.289 5.409-6.638a10.774 10.774 0 0 1 4.41-1.208zM7.065 7.25c-1.006.696-1.223 2.023-1.247 3.162H6.93c.023-.612.074-1.266.425-1.788.544-.728 1.844-.732 2.345.05.319.477.357 1.081.302 1.637-.04.366-.17.769-.506.965-.474.268-1.037.283-1.568.295v1.205c.59.002 1.254-.061 1.747.332.535.42.633 1.161.605 1.797-.015.715-.308 1.518-1.005 1.827-.673.278-1.588.189-2.047-.429-.369-.503-.428-1.147-.484-1.749l-1.103.001c.067 1.138.292 2.463 1.305 3.153 1.136.692 2.808.531 3.681-.518.579-.662.788-1.562.8-2.423-.002-.559-.059-1.138-.312-1.644-.228-.458-.643-.8-1.105-1.004.782-.397 1.171-1.288 1.163-2.135.023-.87-.171-1.809-.806-2.445-.854-.835-2.31-.908-3.303-.288zm7.763-.342c-.867.177-1.467.952-1.777 1.736-.439 1.206-.547 2.503-.555 3.778 0 1.101.062 2.213.348 3.281.192.69.487 1.388 1.027 1.879.803.737 2.18.715 2.953-.055.509-.491.791-1.163.979-1.833.283-1.049.346-2.143.345-3.225-.006-1.077-.08-2.163-.367-3.205-.178-.627-.423-1.264-.883-1.741-.518-.559-1.335-.776-2.072-.615z"/>
    <path d="M15.114 8.141c.416-.081.858.092 1.118.424.339.417.487.952.596 1.469.197 1.017.205 2.06.184 3.092-.032.82-.09 1.65-.318 2.443-.125.407-.299.823-.63 1.106-.397.345-1.046.371-1.451.026-.401-.339-.578-.861-.708-1.353-.262-1.095-.277-2.229-.263-3.348.031-.885.088-1.784.364-2.632.172-.532.507-1.124 1.109-1.226zM0 13.013c.103.761.208 1.525.427 2.263.835 2.995 2.896 5.615 5.592 7.157 1.52.884 3.237 1.387 4.98 1.567h-11V13.013zM22.464 17.92c.87-1.501 1.355-3.201 1.536-4.92v11H13.011c.761-.105 1.526-.208 2.265-.428 3.016-.841 5.655-2.924 7.189-5.651z"/>
    <path fill="red" d="M10.987 0h2.015c.375.065.755.09 1.129.164 2.904.508 5.584 2.146 7.38 4.481 1.427 1.815 2.262 4.053 2.49 6.343v2.011c-.18 1.72-.665 3.419-1.536 4.92-1.533 2.728-4.173 4.81-7.189 5.651-.738.221-1.503.324-2.265.428H11c-1.743-.18-3.46-.683-4.98-1.567-2.696-1.543-4.757-4.163-5.592-7.157-.219-.738-.324-1.502-.427-2.263v-2.015c.1-.765.208-1.531.427-2.273A12.053 12.053 0 0 1 5.586 1.83C7.202.786 9.081.197 10.988-.001zm.421 1.195a10.805 10.805 0 0 0-4.41 1.208c-2.61 1.349-4.62 3.807-5.409 6.638-.797 2.772-.423 5.858 1.029 8.352 1.458 2.556 4.002 4.464 6.87 5.132a10.84 10.84 0 0 0 5.506-.125c2.85-.806 5.317-2.849 6.65-5.492 1.323-2.568 1.541-5.674.598-8.404-.941-2.795-3.084-5.154-5.774-6.362a10.808 10.808 0 0 0-5.06-.947z"/>
    <path fill="#fff" d="M7.065 7.25c.994-.62 2.45-.548 3.303.288.635.636.829 1.575.806 2.445.009.848-.381 1.738-1.162 2.135.462.204.877.546 1.105 1.004.253.507.31 1.085.312 1.644-.012.861-.221 1.761-.8 2.423-.873 1.049-2.545 1.21-3.681.518-1.013-.69-1.238-2.016-1.305-3.153l1.103-.001c.056.602.114 1.245.484 1.749.459.618 1.373.708 2.047.429.697-.308.99-1.111 1.005-1.827.028-.637-.07-1.377-.605-1.797-.493-.393-1.157-.33-1.747-.332V11.57c.53-.012 1.094-.027 1.568-.295.336-.196.466-.599.506-.965.055-.555.017-1.16-.302-1.637-.501-.781-1.801-.778-2.345-.05-.352.522-.402 1.176-.425 1.788-.37.002-.741.001-1.112 0 .023-1.139.24-2.466 1.247-3.162zM14.828 6.908c.737-.161 1.553.055 2.072.615.459.477.705 1.114.883 1.741.286 1.042.36 2.129.367 3.205.001 1.082-.062 2.176-.345 3.225-.188.669-.471 1.342-.979 1.833-.773.771-2.15.792-2.953.055-.54-.491-.835-1.188-1.027-1.879-.286-1.068-.348-2.181-.348-3.281.008-1.275.116-2.572.555-3.778.31-.785.909-1.56 1.777-1.736zm.286 1.233c-.602.102-.937.694-1.109 1.226-.276.848-.333 1.747-.364 2.632-.014 1.119.001 2.254.263 3.348.13.493.307 1.014.708 1.353.405.345 1.054.32 1.451-.026.331-.283.506-.699.63-1.106.229-.793.286-1.622.318-2.443.021-1.033.013-2.075-.184-3.092-.109-.518-.256-1.052-.596-1.469a1.163 1.163 0 0 0-1.118-.424z"/>
</svg>
