<svg xmlns="http://www.w3.org/2000/svg" width="24" height="24">
    <path fill="#f2f2f2" d="M5.99 0h12.026l-.05.03c-3.974.007-7.948.008-11.922 0L5.989.001z"/>
    <path fill="#fff" d="M5.667.062c.043-.041.104-.043.158-.026a.15.15 0 0 1-.158.026zM18.221.036c.05-.013.123-.026.154.029a.176.176 0 0 1-.154-.029zM5.727.152c.143-.024.288-.029.433-.028 3.965.002 7.931-.003 11.896.003 1.039.004 1.936.964 1.885 1.999-.001 6.617.003 13.235-.002 19.852.019 1.013-.869 1.927-1.883 1.932-4.01.005-8.021.002-12.032.001-1.01.008-1.913-.887-1.91-1.897-.003-6.652-.002-13.305-.001-19.957C4.1 1.141 4.822.291 5.728.153zm.1.442c-.699.099-1.27.753-1.263 1.461-.002 6.641-.001 13.283 0 19.924-.009.777.681 1.481 1.46 1.479 3.977.003 7.953 0 11.93.002.805.038 1.544-.676 1.533-1.481.002-6.641.002-13.282 0-19.924.01-.78-.686-1.48-1.466-1.479-3.931-.005-7.862 0-11.793-.002-.134 0-.268.001-.401.02z"/>
    <path fill="#fff" d="M5.862 1.179c.155-.03.313-.024.469-.024 3.874.001 7.748-.001 11.622.001a.93.93 0 0 1 .863.521c.107.213.092.457.092.688v19.269c-.001.236.02.483-.081.704a.923.923 0 0 1-.873.541c-3.965 0-7.931.001-11.896-.001-.498.013-.933-.438-.914-.933-.003-6.607-.001-13.214-.001-19.821-.023-.435.289-.859.72-.945zm.952 1.428c-.212.58-.21 1.288.137 1.815.38.538 1.318.381 1.52-.244-.127-.059-.258-.11-.388-.161-.103.232-.38.38-.624.274-.269-.126-.333-.456-.356-.724-.012-.329-.014-.706.215-.969.219-.24.651-.135.76.165.134-.053.269-.106.4-.167-.132-.266-.366-.502-.673-.54a.865.865 0 0 0-.992.551zm5.388-.566c-.507-.028-.838.457-.899.91-.081.502-.056 1.068.252 1.494.322.432 1.073.397 1.348-.069.293-.494.301-1.121.141-1.661-.101-.374-.435-.699-.842-.674zm1.695.142c-.369.253-.362.896.031 1.125.276.145.592.205.854.376.175.109.187.381.026.508-.274.261-.788.118-.875-.257l-.389.125c.046.129.1.259.19.364.346.433 1.097.431 1.443 0 .265-.318.217-.869-.139-1.101-.267-.168-.595-.203-.864-.367-.153-.083-.159-.314-.024-.416.228-.135.577-.095.706.159l.397-.122c-.2-.534-.901-.683-1.358-.394zm2.042.02c-.341.263-.324.873.052 1.1.273.15.592.205.855.376.171.105.196.371.044.503-.269.273-.8.134-.885-.247-.13.04-.261.081-.389.125.047.134.102.269.2.375.348.42 1.082.418 1.428-.003.266-.315.227-.858-.12-1.1-.271-.178-.611-.211-.886-.38-.155-.087-.148-.33-.001-.421.23-.123.566-.079.693.17.13-.04.261-.082.39-.125-.196-.548-.932-.687-1.381-.373zm-6.88-.135c.001.884-.001 1.768.001 2.652l.423.001c.002-.389-.001-.778.001-1.167.168-.001.337-.002.505.001.143.388.281.779.428 1.166h.445c-.146-.416-.305-.827-.452-1.243.23-.127.418-.357.417-.631.031-.388-.297-.762-.688-.775-.36-.009-.72-.002-1.08-.003zm-.69 4.295c-.428.051-.677.474-.747.863-.087.497-.069 1.052.214 1.487.277.427.964.468 1.295.084.253-.297.324-.704.327-1.083-.002-.374-.067-.772-.304-1.073-.182-.233-.499-.323-.784-.278zm1.673.016c.002.884 0 1.768.001 2.652l.423.001c.002-.585-.001-1.17.002-1.755.325.583.644 1.169.968 1.753.135.002.271.002.407.002V6.379l-.424-.001c0 .582.001 1.165-.001 1.747-.322-.583-.639-1.168-.966-1.748h-.409zm2.439.001c.002.884-.001 1.768.002 2.652h1.644c0-.141.001-.281-.001-.421-.407-.001-.813.001-1.22-.001l-.001-2.229a30.105 30.105 0 0 0-.425 0zm1.805-.001c.304.505.627 1 .924 1.509.014.381.001.763.006 1.144h.424c.001-.359-.001-.718 0-1.078-.005-.061.029-.112.058-.162.291-.47.58-.941.869-1.412-.165-.002-.329-.001-.494-.001-.217.348-.429.699-.646 1.048-.225-.345-.425-.709-.664-1.045-.159-.01-.318 0-.477-.004zm-3.827 4.3c-.331.044-.565.331-.665.632-.169.547-.163 1.186.133 1.689.263.453.982.502 1.316.105.251-.293.318-.696.323-1.07.002-.379-.065-.782-.307-1.086-.189-.234-.51-.324-.8-.269zm1.695.012v2.652h.421c.002-.586-.002-1.172.002-1.757.323.582.637 1.17.968 1.747.133.024.271.006.406.01v-2.651a29.822 29.822 0 0 0-.423 0v1.746c-.322-.581-.641-1.164-.963-1.745a18.77 18.77 0 0 0-.411-.001zm-5.32 4.726a2.117 2.117 0 0 0 .017 1.857c.26.502 1.059.553 1.381.09.238-.29.207-.683.203-1.035h-.894v.423c.161.001.322 0 .482.002-.017.243-.18.522-.456.504-.309 0-.448-.334-.485-.593-.041-.387-.063-.851.219-1.157.235-.228.615-.056.7.233.129-.051.256-.104.385-.153-.068-.192-.177-.38-.354-.489-.397-.245-.992-.117-1.198.319zm2.187 2.237l.422.001V16.49c.169-.001.339-.003.508.003.139.388.281.776.425 1.162.149 0 .298 0 .447.002-.146-.418-.312-.829-.451-1.25a.73.73 0 0 0 .407-.773.734.734 0 0 0-.677-.626c-.36-.013-.72-.002-1.081-.005v2.652zm2.254-2.652v2.652h1.645v-.421c-.407-.002-.814.001-1.221-.002v-.742h.807c.001-.141.001-.283-.001-.423-.269-.002-.537.001-.806-.002a67.629 67.629 0 0 1 0-.637h1.168l-.001-.424h-1.591zm2.096 2.652h1.645l-.001-.421c-.407-.004-.814.004-1.222-.004.003-.247 0-.493.002-.74h.807l-.001-.423c-.269-.002-.538.001-.807-.001v-.638h1.168l-.001-.423c-.53-.003-1.061.001-1.592-.002v2.653zm2.098-2.652c0 .884-.001 1.768.001 2.652l.424.001c0-.585-.002-1.169.001-1.754.326.583.643 1.171.969 1.754l.405-.001v-2.652a29.963 29.963 0 0 0-.424 0c-.001.581.002 1.162-.002 1.742-.303-.544-.602-1.09-.901-1.635-.071-.195-.319-.076-.473-.107zm-3.673 3.665c-.794.088-1.474.756-1.575 1.548a1.826 1.826 0 0 0 .733 1.736 1.828 1.828 0 0 0 1.973.11c.715-.393 1.087-1.297.852-2.08-.222-.847-1.115-1.442-1.983-1.314zM4.036 1.757a.176.176 0 0 1 .021-.159.141.141 0 0 1-.021.159z"/>
    <path fill="#fff" d="M12.1 2.479c.303-.091.528.206.575.471.072.389.086.829-.123 1.179-.133.232-.498.261-.66.046-.221-.289-.216-.681-.192-1.028.031-.258.117-.589.4-.669zM9.484 2.493c.238.01.481-.024.716.02.268.082.262.515-.004.597-.234.042-.475.009-.712.019a67.416 67.416 0 0 1 0-.636zM8.367 6.805a.408.408 0 0 1 .465.123c.187.241.204.563.2.856-.011.261-.048.55-.242.743a.406.406 0 0 1-.603-.061c-.206-.297-.202-.683-.172-1.029.03-.24.109-.529.353-.633zM10.625 11.089c.356.003.485.41.507.704.022.334.023.706-.18.989-.147.221-.517.215-.66-.008-.194-.288-.197-.658-.172-.993.026-.29.153-.688.505-.692zM9.443 15.427c.236.009.476-.022.71.02.272.074.275.503.014.595-.236.052-.482.011-.722.024-.002-.213-.001-.425-.001-.638zM4.038 22.283c.028.043.057.104.02.152-.046-.037-.031-.103-.02-.152zM4.082 22.459c.033.033.036.071.007.112-.033-.038-.036-.075-.007-.112zM18.433 23.958c.034-.038.072-.043.116-.015a.094.094 0 0 1-.116.015zM5.676 23.979c.044-.044.112-.024.145.021h-.13l-.015-.021zM18.224 24c.049-.039.133-.075.183-.016l-.016.016h-.167z"/>
    <path fill="#2b2e34" d="M5.825.036l.219-.007c3.974.008 7.948.008 11.922 0l.255.007a.17.17 0 0 0 .154.029c.807.111 1.471.792 1.636 1.581V22.39c-.153.731-.729 1.376-1.463 1.552-.044-.028-.083-.023-.116.015l-.026.026c-.05-.059-.133-.023-.183.016H5.821c-.034-.045-.102-.065-.145-.021a2.026 2.026 0 0 1-1.587-1.407c.028-.041.026-.079-.007-.112l-.023-.024c.037-.048.008-.109-.02-.152a.611.611 0 0 0-.01-.041c.013-6.796.001-13.594.006-20.39l.001-.094a.14.14 0 0 0 .021-.159l.05-.153.02-.082c.181-.55.626-.995 1.165-1.201L5.373.14l.124-.05c.043.027.082.023.118-.013l.052-.013a.152.152 0 0 0 .158-.026zm-.098.116C4.822.29 4.1 1.14 4.112 2.056c-.001 6.652-.003 13.305.001 19.957-.003 1.01.901 1.906 1.91 1.897 4.01.001 8.021.004 12.032-.001 1.014-.005 1.902-.919 1.883-1.932.004-6.617.001-13.235.002-19.852.051-1.035-.845-1.995-1.885-1.999-3.965-.005-7.931 0-11.896-.003a2.61 2.61 0 0 0-.433.028z"/>
    <path fill="#2b2e34" d="M5.827.594c.133-.019.267-.021.401-.02 3.931.002 7.862-.002 11.793.002.78-.002 1.476.698 1.466 1.479.002 6.641.002 13.283 0 19.924.011.806-.728 1.52-1.533 1.481-3.977-.002-7.953.002-11.93-.002-.779.001-1.469-.702-1.46-1.479-.001-6.641-.002-13.283 0-19.924-.007-.708.564-1.362 1.263-1.461zm.035.585c-.43.086-.743.51-.72.945 0 6.607-.002 13.214.001 19.821-.018.495.416.946.914.933 3.965.002 7.931.001 11.896.001a.923.923 0 0 0 .873-.541c.101-.22.08-.468.081-.704V2.365c0-.231.015-.476-.092-.688a.928.928 0 0 0-.863-.521c-3.874-.002-7.748 0-11.622-.001-.157 0-.315-.005-.469.024z"/>
    <path fill="#2b2e34" d="M6.814 2.607a.865.865 0 0 1 .992-.551c.307.038.541.274.673.54-.131.061-.266.113-.4.167-.109-.3-.541-.405-.76-.165-.229.263-.227.64-.215.969.023.268.086.598.356.724.244.106.52-.042.624-.274.13.051.261.101.388.161-.202.625-1.141.782-1.52.244-.347-.528-.349-1.236-.137-1.815zM12.202 2.041c.407-.024.741.301.842.674.16.54.152 1.167-.141 1.661-.275.466-1.026.501-1.348.069-.308-.426-.333-.992-.252-1.494.061-.453.392-.938.899-.91zm-.102.438c-.284.081-.37.411-.4.669-.024.346-.029.738.192 1.028.162.215.527.186.66-.046.209-.351.195-.79.123-1.179-.047-.265-.273-.562-.575-.471zM13.897 2.183c.456-.288 1.158-.14 1.358.394l-.397.122c-.129-.254-.478-.294-.706-.159-.135.102-.129.333.024.416.268.163.597.199.864.367.356.232.404.783.139 1.101-.347.431-1.097.433-1.443 0a1.141 1.141 0 0 1-.19-.364l.389-.125c.087.375.6.518.875.257.161-.127.149-.399-.026-.508-.262-.171-.579-.231-.854-.376-.393-.228-.4-.872-.031-1.125zM15.939 2.203c.449-.314 1.184-.175 1.381.373-.129.044-.26.085-.39.125-.127-.25-.463-.294-.693-.17-.148.091-.155.333.001.421.275.17.615.203.886.38.347.242.386.785.12 1.1-.346.421-1.081.423-1.428.003a1.078 1.078 0 0 1-.2-.375c.129-.044.259-.085.389-.125.085.381.616.52.885.247.152-.132.128-.398-.044-.503-.263-.171-.582-.226-.855-.376-.375-.227-.393-.836-.052-1.1zM9.059 2.068c.36.002.72-.005 1.08.003a.74.74 0 0 1 .688.775c.001.274-.186.504-.417.631.147.416.305.827.452 1.243h-.445c-.147-.387-.285-.778-.428-1.166a21.253 21.253 0 0 0-.505-.001c-.002.389.001.778-.001 1.167-.141.001-.282.001-.423-.001-.002-.884 0-1.768-.001-2.652zm.425.425v.636c.237-.01.478.023.712-.019.265-.082.272-.515.004-.597-.235-.044-.478-.01-.716-.02zM8.369 6.363c.285-.045.602.045.784.278.238.301.302.699.304 1.073-.003.379-.074.787-.327 1.083-.33.384-1.018.343-1.295-.084-.282-.435-.301-.991-.214-1.487.071-.389.319-.812.747-.863zm-.002.442c-.243.104-.323.393-.353.633-.029.346-.034.731.172 1.029.13.195.438.227.603.061.194-.193.231-.482.242-.743.004-.293-.013-.615-.2-.856a.407.407 0 0 0-.465-.123zM10.042 6.379h.409c.327.58.644 1.165.966 1.748.002-.583.001-1.165.001-1.747l.424.001v2.653c-.136 0-.271 0-.407-.002-.324-.584-.643-1.17-.968-1.753-.003.585 0 1.17-.002 1.755l-.423-.001c-.001-.884.001-1.768-.001-2.652zM12.481 6.38h.425l.001 2.229c.407.002.813 0 1.22.001l.001.421h-1.644c-.003-.884 0-1.768-.002-2.652zM14.286 6.379c.159.004.319-.006.477.004.239.335.439.699.664 1.045.216-.349.429-.7.646-1.048.165 0 .329-.001.494.001-.289.471-.578.942-.869 1.412-.029.049-.063.101-.058.162 0 .359.001.718 0 1.078h-.424c-.005-.381.008-.763-.006-1.144-.296-.509-.619-1.004-.924-1.509zM10.459 10.679c.29-.055.611.035.8.269.242.304.309.707.307 1.086-.005.374-.072.777-.323 1.07-.333.397-1.053.348-1.316-.105-.297-.503-.302-1.142-.133-1.689.1-.301.334-.588.665-.632zm.166.41c-.352.004-.479.403-.505.692-.025.334-.022.704.172.993.143.223.513.23.66.008.202-.284.202-.656.18-.989-.022-.293-.152-.7-.507-.704zM12.154 10.691c.137-.001.274-.001.411.001.322.581.64 1.164.963 1.745v-1.746h.423v2.651c-.135-.004-.272.014-.406-.01-.331-.577-.645-1.165-.968-1.747-.005.586 0 1.172-.002 1.757h-.421V10.69zM6.834 15.417c.206-.436.801-.565 1.198-.319.177.109.286.297.354.489-.129.049-.256.102-.385.153-.084-.289-.465-.461-.7-.233-.282.306-.261.771-.219 1.157.036.26.176.594.485.593.276.019.439-.261.456-.504-.161-.002-.322-.001-.482-.002a29.822 29.822 0 0 1 0-.423h.894c.005.351.036.744-.203 1.035-.321.463-1.121.412-1.381-.09a2.117 2.117 0 0 1-.017-1.857zM9.021 17.654v-2.652c.36.003.721-.007 1.081.005a.734.734 0 0 1 .677.626.728.728 0 0 1-.407.773c.139.421.304.832.451 1.25-.149-.002-.298-.002-.447-.002a89.115 89.115 0 0 1-.425-1.162c-.169-.006-.339-.004-.508-.003v1.165l-.422-.001zm.422-2.227c0 .213-.001.425.001.638.24-.013.487.028.722-.024.261-.092.258-.52-.014-.595-.233-.042-.473-.011-.71-.02zM11.275 15.002h1.591l.001.424h-1.168v.637c.269.003.537 0 .806.002.002.141.001.282.001.423h-.807v.742c.407.003.814 0 1.221.002v.421h-1.645v-2.652zM13.371 17.654v-2.653c.53.003 1.061-.001 1.592.002l.001.423h-1.168v.638c.269.002.538-.001.807.001l.001.423h-.807c-.001.247.001.493-.002.74.407.008.815 0 1.222.004l.001.421h-1.645zM15.469 15.002c.155.032.403-.088.473.107.299.545.598 1.091.901 1.635.003-.581 0-1.162.002-1.742h.424v2.652l-.405.001c-.326-.583-.643-1.171-.969-1.754-.004.585-.002 1.169-.001 1.754l-.424-.001c-.002-.884-.001-1.768-.001-2.652z"/>
    <path fill="#c6c7c8" d="M5.497.089c.036-.032.075-.036.118-.013-.036.036-.076.04-.118.013z"/>
    <path fill="#d8d8d9" d="M5.292.162l.081-.023-.081.023zM4.107 1.445z"/>
    <path fill="#a3a5a7" d="M4 1.851h.035c-.005 6.797.007 13.594-.006 20.39L4 22.188V1.85z"/>
    <path fill="#00694f" d="M11.796 18.667c.868-.128 1.762.467 1.983 1.314.235.783-.137 1.687-.852 2.08a1.83 1.83 0 0 1-1.973-.11 1.826 1.826 0 0 1-.733-1.736c.101-.792.781-1.46 1.575-1.548z"/>
</svg>
