<svg xmlns="http://www.w3.org/2000/svg" width="24" height="24">
    <path fill="#fff" d="M3.128 0h17.739c.491.15.759.684.751 1.172v21.656c.008.488-.26 1.02-.75 1.172H3.132c-.492-.149-.761-.683-.751-1.172V1.172C2.371.684 2.639.153 3.128 0zm.501.592c-.47.097-.75.593-.764 1.045v20.727c.007.505.379 1.067.929 1.061h16.412c.55.006.92-.555.929-1.061V1.637c-.008-.505-.379-1.067-.928-1.061L3.842.575c-.071 0-.143.003-.213.017z"/>
    <path fill="#fff" d="M4.049 1.195a.967.967 0 0 1 .215-.02H19.5c.218 0 .453-.022.649.097.355.203.517.629.513 1.022-.001 6.487.001 12.973-.001 19.459.005.495-.332 1.065-.875 1.07H4.215c-.543-.005-.881-.575-.875-1.07V2.245c.002-.443.25-.939.709-1.051zm1.209 1.813c-.32.292-.324.865.008 1.15.334.293.809.317 1.173.556.238.141.193.535-.062.63-.374.168-.813-.058-.964-.423-.171.067-.346.125-.516.198.225.796 1.305 1.073 1.938.588.406-.307.455-.978.087-1.334-.33-.321-.814-.363-1.2-.584-.163-.087-.177-.336-.023-.438.281-.18.7-.066.845.238.165-.058.332-.113.498-.168-.186-.757-1.263-.907-1.785-.415zm2.676-.233c-.008 1.041.001 2.082-.005 3.123.187-.003.374-.002.56-.001.007-.391 0-.781.004-1.172.442-.028.93.089 1.33-.157.506-.303.593-1.082.195-1.507-.213-.221-.533-.291-.829-.29-.419.002-.837-.005-1.255.004zm2.958.003c-.01 1.04-.001 2.079-.004 3.119.71-.002 1.42.002 2.13-.002.004-.18.005-.36-.001-.54-.521-.008-1.042.001-1.563-.004v-.785c.301-.002.602.002.904-.002.007-.178.005-.355.003-.532-.303-.003-.605 0-.907-.001V3.32c.489-.003.979.002 1.468-.003.004-.18.005-.36-.001-.539-.676-.004-1.352-.006-2.028 0zm2.854.001c-.008 1.04.001 2.08-.005 3.12.71-.006 1.419.003 2.129-.005.008-.18.007-.36.001-.539-.522-.006-1.044 0-1.566-.003-.002-.262-.001-.524 0-.786l.903-.001c.013-.178.008-.355.007-.533-.303-.002-.607 0-.91-.001v-.712c.49-.004.98.005 1.47-.004.006-.18.005-.359 0-.538-.676-.003-1.353-.007-2.029.001zm2.842-.004c-.003 1.041-.005 2.082.001 3.122.654-.032 1.415.136 1.956-.336.649-.603.658-1.772.048-2.406-.537-.516-1.332-.356-2.005-.381zM6.353 7.419c-.008 1.038-.003 2.076-.002 3.114.682.002 1.363.001 2.045 0 .002-.182.002-.363 0-.545-.494-.006-.987 0-1.48-.003-.004-.855.005-1.711-.004-2.566a12.975 12.975 0 0 0-.558 0zm2.685-.001c-.003 1.038-.001 2.077-.001 3.115.188.001.376.002.565-.002.003-1.038.004-2.076 0-3.114a8.807 8.807 0 0 0-.563.001zm1.479 0c-.008 1.038-.002 2.077-.003 3.116.188.002.375.002.562 0 .002-.629.006-1.257-.003-1.886.265.663.568 1.311.854 1.965.284-.653.596-1.296.85-1.961-.013.627-.003 1.255-.006 1.882.188.001.376.002.564-.001.004-1.039.006-2.077-.001-3.116-.18-.003-.359-.003-.538 0-.292.663-.592 1.323-.866 1.994-.258-.673-.573-1.323-.849-1.989-.188-.012-.376-.007-.564-.003zm3.737-.003c-.001 1.04.001 2.08-.001 3.12.185-.002.37-.001.555-.001-.001-1.04.001-2.079-.001-3.119a20.388 20.388 0 0 0-.553 0zm1.275-.005c-.004.181-.004.363 0 .544.29.005.58 0 .87.002.002.859 0 1.718.002 2.577.187.001.375.002.562-.001.003-.859-.001-1.717.002-2.576.288-.002.576 0 .864-.001.002-.182.002-.364-.001-.546-.766-.002-1.532-.003-2.298 0zM5.204 11.552c-.196.063-.424.212-.415.444.001 2.893-.001 5.785.001 8.677.038.317.411.453.691.454h13.038c.281-.001.653-.137.691-.454.003-2.892 0-5.784.001-8.677.001-.282-.3-.433-.542-.472-.152-.031-.31-.063-.466-.039-.399.03-.803.033-1.202-.002h-.063a7.322 7.322 0 0 1-1.203 0l-.063-.001a7.107 7.107 0 0 1-1.203 0l-.031-.013-.032.011a7.453 7.453 0 0 1-1.241.002h-.03c-.833.035-1.674.035-2.508 0h-.064a7.2 7.2 0 0 1-1.202 0l-.032-.013-.032.012a6.981 6.981 0 0 1-1.201.001l-.032-.013-.032.011c-.412.037-.83.034-1.241.002h-.03c-.412.033-.83.033-1.242 0-.11-.024-.215.024-.313.068z"/>
    <path fill="#fff" d="M8.492 3.319c.325.026.671-.06.982.052.32.161.262.732-.102.796-.293.022-.586.005-.879.009v-.858zM17.147 3.319c.357.01.79-.076 1.052.233.348.442.347 1.161-.031 1.585-.263.282-.675.209-1.02.215-.002-.678 0-1.355-.001-2.033z"/>
    <path d="M3.629.592a1.17 1.17 0 0 1 .213-.017l16.365.001c.549-.007.92.555.928 1.061v20.727c-.009.505-.379 1.067-.929 1.061H3.794c-.55.006-.922-.555-.929-1.061V1.637c.013-.453.294-.948.764-1.045zm.42.603c-.459.112-.707.607-.709 1.051v19.508c-.006.495.332 1.065.875 1.07h15.571c.543-.005.88-.575.875-1.07.002-6.486 0-12.973.001-19.459.004-.393-.158-.819-.513-1.022-.195-.119-.43-.098-.649-.097H4.264a.967.967 0 0 0-.215.02z"/>
    <path d="M5.258 3.008c.522-.492 1.599-.342 1.785.415-.166.056-.332.11-.498.168-.145-.304-.564-.418-.845-.238-.154.102-.14.352.023.438.386.221.87.263 1.2.584.368.355.319 1.027-.087 1.334-.633.484-1.713.208-1.938-.588.17-.073.345-.131.516-.198.151.365.59.591.964.423.255-.095.3-.489.062-.63-.364-.24-.839-.263-1.173-.556-.332-.285-.328-.858-.008-1.15zM7.934 2.775c.418-.008.836-.002 1.255-.004.296 0 .616.069.829.29.397.425.311 1.204-.195 1.507-.4.246-.887.128-1.33.157-.004.391.003.781-.004 1.172-.187-.001-.373-.002-.56.001.007-1.041-.003-2.082.005-3.123zm.558.544v.858c.293-.004.587.013.879-.009.364-.065.422-.636.102-.796-.311-.112-.657-.026-.982-.052zM10.892 2.778c.676-.007 1.352-.005 2.028 0 .006.18.005.36.001.539-.489.005-.979 0-1.468.003v.711c.302.002.605-.001.907.001.001.177.003.354-.003.532-.301.004-.602 0-.904.002a68.47 68.47 0 0 0 0 .785c.521.005 1.043-.004 1.563.004.006.18.005.36.001.54-.71.004-1.42 0-2.13.002.003-1.04-.006-2.079.004-3.119zM13.746 2.779c.676-.008 1.352-.004 2.029-.001.005.179.006.358 0 .538-.49.009-.98 0-1.47.004a84.49 84.49 0 0 0 0 .712c.304.002.607-.001.91.001.001.178.006.355-.007.533l-.903.001v.786c.522.003 1.044-.003 1.566.003.005.18.006.36-.001.539-.709.008-1.419-.001-2.129.005.006-1.04-.003-2.08.005-3.12zM16.588 2.775c.673.024 1.468-.135 2.005.381.609.633.6 1.802-.048 2.406-.541.473-1.301.304-1.956.336a361.01 361.01 0 0 1-.001-3.122zm.559.544c0 .678-.001 1.355.001 2.033.345-.007.756.067 1.02-.215.379-.424.379-1.142.031-1.585-.262-.309-.695-.223-1.052-.233zM6.353 7.419c.186-.004.372-.004.558 0 .009.855 0 1.71.004 2.566.494.004.987-.003 1.48.003.002.182.002.363 0 .545-.682.001-1.363.002-2.045 0-.001-1.038-.005-2.076.002-3.114zM9.038 7.418c.188-.007.375-.006.563-.001a359.15 359.15 0 0 1 0 3.114c-.188.005-.376.003-.565.002 0-1.039-.002-2.077.001-3.115zM10.517 7.418c.188-.004.376-.009.564.003.276.666.591 1.316.849 1.989.274-.671.574-1.33.866-1.994.179-.002.359-.003.538 0 .007 1.039.005 2.078.001 3.116-.188.003-.376.002-.564.001.002-.628-.007-1.255.006-1.882-.255.665-.567 1.307-.85 1.961-.286-.654-.589-1.302-.854-1.965.008.629.005 1.257.003 1.886-.188.002-.375.002-.562 0 0-1.039-.005-2.077.003-3.116zM14.254 7.415c.184-.002.368-.002.553 0 .002 1.04 0 2.079.001 3.119-.185 0-.37-.001-.555.001.002-1.04 0-2.08.001-3.12zM15.529 7.41c.766-.004 1.532-.002 2.298 0 .003.182.003.364.001.546-.288.002-.576-.001-.864.001-.003.859.001 1.717-.002 2.576-.188.003-.375.002-.562.001-.002-.859 0-1.718-.002-2.577-.29-.002-.58.002-.87-.002a16.442 16.442 0 0 1 0-.544zM5.517 11.484c.412.034.83.034 1.242 0a.618.618 0 0 0-.484.471c-.061.347.326.679.66.567a.514.514 0 0 0 .331-.658c-.074-.205-.272-.332-.476-.38.412.032.83.036 1.241-.002-.232.054-.44.232-.483.473-.061.346.323.675.656.567.283-.079.457-.432.318-.698-.078-.177-.254-.277-.427-.34.398.033.803.034 1.201-.001-.23.058-.436.237-.477.478-.055.343.324.668.655.563.275-.075.45-.409.331-.674-.075-.191-.259-.304-.444-.366a7.2 7.2 0 0 0 1.202 0c-.228.059-.432.24-.471.48-.053.34.321.662.649.562a.515.515 0 0 0 .348-.648c-.07-.204-.262-.335-.462-.393.833.035 1.674.035 2.508 0-.367.056-.648.529-.383.841.206.308.713.279.866-.063.183-.335-.107-.726-.453-.777.412.032.83.036 1.241-.002-.231.055-.437.233-.481.473-.063.359.352.697.69.555.265-.095.413-.432.283-.687-.079-.177-.255-.277-.429-.34.399.033.804.033 1.203 0-.231.055-.435.238-.476.478-.057.355.35.686.686.552.258-.09.413-.41.3-.665-.076-.189-.259-.306-.447-.364.398.032.804.033 1.203 0-.228.059-.431.241-.469.48-.053.339.319.66.647.562a.514.514 0 0 0 .349-.65c-.069-.205-.263-.335-.464-.392.398.035.803.032 1.202.002-.248.066-.47.287-.466.555.004.392.531.666.835.39.346-.261.172-.792-.2-.931.099.007.198.015.297.025.242.038.544.19.542.472-.001 2.893.002 5.785-.001 8.677-.038.317-.41.453-.691.454H5.481c-.281-.001-.653-.137-.691-.454-.002-2.892 0-5.784-.001-8.677-.008-.232.219-.382.415-.444l.088-.022c-.119.121-.263.244-.29.423-.064.351.33.686.666.567a.517.517 0 0 0 .339-.611c-.06-.226-.271-.375-.49-.425zm4.949 1.328c-.346.101-.521.601-.226.854.224.263.681.194.821-.12.205-.366-.197-.857-.595-.734zm2.534.009c-.338.118-.489.614-.191.855.23.26.688.174.817-.144.194-.374-.232-.861-.626-.711zm-3.702 1.263c-.228.009-.412.203-.472.413-.09.35.3.696.638.595a.514.514 0 0 0 .373-.556c-.042-.25-.281-.465-.54-.452zm3.843 0c-.244.005-.444.218-.49.447-.058.345.327.664.656.559a.515.515 0 0 0 .362-.428c.039-.296-.233-.584-.528-.578zm1.266 0c-.241.009-.437.22-.483.447-.057.342.322.66.649.561a.513.513 0 0 0 .368-.427c.041-.299-.237-.591-.534-.58zm1.266 0c-.241.012-.435.225-.478.453-.051.338.321.649.645.555a.512.512 0 0 0 .374-.557c-.042-.25-.283-.465-.541-.451zm1.265.001c-.378.022-.636.543-.352.829.203.266.648.256.822-.036.241-.33-.079-.826-.47-.793zm-9.05 1.3c-.323.117-.479.589-.197.83.231.274.711.19.837-.143.183-.375-.253-.841-.64-.687zm10.175.008a.585.585 0 0 0-.323.423c-.045.331.314.636.633.552a.513.513 0 0 0 .39-.478c.013-.34-.378-.644-.7-.497zm-11.44 1.263c-.327.113-.487.589-.204.832.233.276.721.187.841-.153.169-.373-.255-.824-.637-.679zm11.443.009a.586.586 0 0 0-.324.417c-.053.337.316.649.641.557a.51.51 0 0 0 .378-.435c.047-.354-.359-.69-.695-.54zm-12.707 1.26c-.333.108-.499.59-.213.836.228.268.698.194.832-.131.191-.372-.229-.844-.619-.705zm7.641.003a.586.586 0 0 0-.345.399c-.077.344.3.676.632.586a.512.512 0 0 0 .383-.449c.035-.339-.343-.66-.67-.537zm5.107-.005a.579.579 0 0 0-.361.406c-.075.337.285.663.613.589a.511.511 0 0 0 .402-.448c.038-.335-.326-.655-.653-.547zM5.403 19.186a.568.568 0 0 0-.405.453c-.035.268.192.509.444.557a.51.51 0 0 0 .572-.414c.068-.335-.279-.675-.611-.597zm8.908.003c-.344.087-.535.573-.256.833.223.277.703.217.842-.113.191-.36-.2-.826-.586-.72zm1.267.002a.573.573 0 0 0-.385.452c-.033.273.204.518.464.557a.512.512 0 0 0 .554-.422c.064-.339-.299-.683-.633-.586zm1.267.001c-.332.095-.518.564-.25.823.218.278.695.23.842-.094.207-.364-.199-.851-.592-.729z"/>
    <path fill="#ccc" d="M5.204 11.552c.097-.044.203-.092.313-.068.219.05.43.199.49.425a.517.517 0 0 1-.339.611c-.336.119-.73-.217-.666-.567.027-.179.171-.301.29-.423l-.088.022zM6.759 11.484h.03c.204.048.403.175.476.38a.514.514 0 0 1-.331.658c-.334.112-.721-.219-.66-.567.044-.239.251-.421.484-.471zM8.03 11.482l.032-.011.032.013c.173.063.349.164.427.34.139.266-.035.619-.318.698-.333.108-.718-.221-.656-.567.044-.24.252-.419.483-.473zM9.296 11.483l.032-.012.032.013c.186.062.37.175.444.366.118.265-.057.599-.331.674-.33.105-.71-.219-.655-.563.041-.241.247-.42.477-.478zM10.562 11.484h.064c.2.058.392.188.462.393.096.264-.079.578-.348.648-.329.1-.702-.221-.649-.562.039-.239.243-.42.471-.48zM13.134 11.484h.03c.346.052.637.442.453.777-.153.342-.66.371-.866.063-.266-.312.015-.785.383-.841zM14.405 11.482l.032-.011.031.013c.174.063.35.163.429.34.13.255-.018.592-.283.687-.338.142-.754-.196-.69-.555.044-.24.25-.418.481-.473zM15.672 11.484l.063.001c.188.058.371.175.447.364.113.255-.042.574-.3.665-.336.134-.743-.197-.686-.552.041-.24.245-.422.476-.478zM16.938 11.484h.063c.2.058.394.188.464.392.097.265-.079.58-.349.65-.328.098-.7-.223-.647-.562.038-.239.241-.42.469-.48zM18.203 11.486c.156-.024.314.007.466.039a7.43 7.43 0 0 0-.297-.025c.372.139.546.67.2.931-.304.277-.831.003-.835-.39-.004-.268.218-.489.466-.555zM10.466 12.812c.397-.123.8.368.595.734-.14.314-.597.383-.821.12-.295-.253-.12-.753.226-.854zM13 12.821c.395-.15.82.337.626.711-.129.318-.588.404-.817.144-.298-.241-.147-.737.191-.855zM9.298 14.084c.259-.013.497.202.54.452a.514.514 0 0 1-.373.556c-.338.1-.728-.245-.638-.595.06-.21.243-.404.472-.413zM13.141 14.084c.294-.006.567.282.528.578a.515.515 0 0 1-.362.428c-.329.105-.714-.214-.656-.559.046-.229.246-.442.49-.447zM14.407 14.084c.298-.01.575.281.534.58a.515.515 0 0 1-.368.427c-.328.099-.706-.218-.649-.561.046-.227.242-.438.483-.447zM15.673 14.084c.258-.014.499.201.541.451a.511.511 0 0 1-.374.557c-.324.093-.696-.217-.645-.555.044-.228.237-.441.478-.453zM16.938 14.085c.391-.033.711.463.47.793-.174.292-.619.301-.822.036-.283-.286-.026-.807.352-.829zM7.888 15.385c.387-.154.823.311.64.687-.127.333-.606.417-.837.143-.281-.241-.126-.713.197-.83zM18.063 15.393c.322-.146.713.157.7.497a.513.513 0 0 1-.39.478c-.32.084-.678-.221-.633-.552a.585.585 0 0 1 .323-.423zM6.623 16.656c.382-.145.806.306.637.679-.12.34-.608.429-.841.153-.282-.244-.123-.72.204-.832zM18.066 16.665c.336-.15.742.186.695.54a.514.514 0 0 1-.378.435c-.324.091-.694-.22-.641-.557.032-.18.16-.34.324-.417zM5.359 17.925c.39-.139.81.333.619.705-.134.324-.604.399-.832.131-.286-.246-.12-.728.213-.836zM13 17.928c.328-.123.705.197.67.537a.514.514 0 0 1-.383.449c-.332.09-.709-.242-.632-.586a.582.582 0 0 1 .345-.399zM18.107 17.923c.327-.107.691.212.653.547a.511.511 0 0 1-.402.448c-.328.074-.687-.252-.613-.589a.579.579 0 0 1 .361-.406zM5.403 19.186c.332-.078.679.262.611.597a.51.51 0 0 1-.572.414c-.252-.049-.479-.29-.444-.557a.566.566 0 0 1 .405-.453zM14.311 19.189c.386-.106.777.36.586.72-.139.33-.619.39-.842.113-.279-.26-.088-.746.256-.833zM15.578 19.191c.334-.096.697.248.633.586a.512.512 0 0 1-.554.422c-.26-.038-.497-.284-.464-.557a.574.574 0 0 1 .385-.452zM16.845 19.192c.394-.122.799.365.592.729-.148.324-.624.372-.842.094-.269-.259-.082-.728.25-.823z"/>
</svg>
