<svg xmlns="http://www.w3.org/2000/svg" width="24" height="24">
    <path d="M3.488 0h17.213c.469.135.84.492.999.953v22.089a1.494 1.494 0 0 1-.953.958H3.474a1.524 1.524 0 0 1-.974-.978V1.004C2.645.526 3.015.155 3.488 0zm.052.156c-.53.09-.93.603-.911 1.136-.003 7.138-.002 14.277 0 21.415-.036.632.53 1.205 1.164 1.172 5.538.002 11.076.001 16.614 0 .638.04 1.213-.534 1.18-1.17.003-7.139.003-14.278-.001-21.417.033-.68-.614-1.237-1.279-1.166C14.719.147 9.126.087 3.54.156z"/>
    <path d="M3.43.43c.181-.071.379-.067.57-.072C9.467.364 14.934.355 20.401.363c.516-.033.985.42.952.939.002 7.135.002 14.27-.001 21.405.034.515-.434.982-.952.939-5.533.001-11.068.002-16.601 0-.514.035-.974-.433-.936-.945-.003-7.134-.003-14.268 0-21.402A.89.89 0 0 1 3.43.43zm.11.498c-.165.098-.189.295-.182.469.003 7.102-.004 14.204.003 21.306-.03.244.187.48.436.442 5.535.003 11.07.002 16.606.001.255.042.48-.194.453-.445.002-7.134.003-14.268-.001-21.402a.41.41 0 0 0-.452-.436C14.935.855 9.467.865 3.999.858c-.151.016-.328-.025-.459.07z"/>
    <path d="M6.704 3.01c.659-.249 1.452.045 1.699.726-.179.056-.357.11-.537.163-.25-.331-.736-.447-1.092-.22-.229.166-.169.548.08.662.47.237 1.057.269 1.428.679.52.604.276 1.709-.513 1.951-.77.284-1.614-.196-1.926-.918.197-.079.395-.156.594-.231.186.351.541.65.964.579.419-.026.676-.583.4-.909-.405-.424-1.086-.381-1.5-.793-.509-.486-.311-1.515.403-1.689zM8.871 3.001c.82-.002 1.64-.001 2.46 0l.002.556c-.306.004-.613.004-.919.004-.003 1.14.001 2.28-.002 3.42h-.628c-.004-1.14 0-2.28-.002-3.42a33.132 33.132 0 0 0-.892.005c-.01-.188-.016-.376-.019-.565zM12.933 3.002h.633c.452 1.327.913 2.65 1.364 3.977-.224.001-.448 0-.672-.001-.127-.372-.257-.744-.385-1.115a51.836 51.836 0 0 0-1.247 0c-.128.372-.258.743-.385 1.115-.224.001-.448.002-.672.001.451-1.327.911-2.651 1.364-3.977zm.323 1.109c-.137.368-.271.737-.402 1.107.264.002.527.002.791.001a35.419 35.419 0 0 0-.389-1.108zM14.959 3.001L15.708 3c.324.503.631 1.017.952 1.522.327-.504.642-1.016.968-1.521L18.363 3c-.444.74-.919 1.464-1.345 2.214-.08.581-.01 1.179-.034 1.766h-.629c-.015-.577.025-1.157-.017-1.732-.433-.764-.925-1.495-1.379-2.247zM9.958 10.016l.641-.001c.002 1.328.001 2.655 0 3.982h-.641c-.001-1.327-.002-2.654 0-3.981zM11.555 10.014l.625-.001c.491.838.961 1.689 1.451 2.528.007-.842.001-1.685.003-2.527h.625v3.978l-.553.002c-.509-.892-1.005-1.792-1.519-2.681-.006.894-.001 1.787-.003 2.68h-.629a1759.16 1759.16 0 0 1 0-3.979zM5.713 17.031l.631.004c0 1.131-.005 2.263.002 3.394h1.835v.583c-.823.002-1.646.002-2.468 0-.002-1.327-.002-2.654 0-3.981zM9.796 17.022c.204.003.408.004.612.004.466 1.324.916 2.653 1.37 3.98h-.668c-.131-.37-.259-.742-.391-1.112-.414-.002-.827-.001-1.241 0-.132.37-.26.742-.391 1.112h-.668c.458-1.328.899-2.663 1.377-3.984zm-.093 2.231h.791a48.482 48.482 0 0 0-.387-1.109c-.14.368-.273.738-.404 1.109zM12.377 17.028l.62-.004c.498.841.968 1.699 1.458 2.545.003-.848-.003-1.696.003-2.543l.622.001v3.98l-.553-.002c-.508-.893-1.008-1.792-1.519-2.683-.004.895.001 1.789-.002 2.684h-.629c-.002-1.326-.002-2.652 0-3.978zM16.036 17.033c.781-.002 1.563-.001 2.344-.001v.631c-.571.002-1.142-.001-1.713.002-.002.323-.002.646 0 .97l1.152.001.001.643-1.152.001c-.004.364-.005.728.003 1.092.611-.003 1.222-.003 1.832-.001v.641c-.822.001-1.645.003-2.467-.001-.002-1.326-.002-2.652 0-3.978z"/>
    <path fill="#fff" d="M3.54.156C9.126.087 14.719.147 20.307.126c.665-.071 1.312.486 1.279 1.166.004 7.139.004 14.278.001 21.417.033.636-.542 1.21-1.18 1.17-5.538.001-11.076.002-16.614 0-.634.033-1.2-.54-1.164-1.172-.002-7.138-.003-14.277 0-21.415C2.61.759 3.01.246 3.54.156zM3.43.43a.89.89 0 0 0-.567.869c-.003 7.134-.003 14.268 0 21.402-.038.512.422.98.936.945 5.533.002 11.068.001 16.601 0 .518.043.986-.424.952-.939.003-7.135.003-14.27.001-21.405.033-.519-.436-.972-.952-.939C14.934.355 9.467.364 4 .358c-.191.005-.389.001-.57.072z"/>
    <path fill="#fff" d="M3.54.928c.131-.095.308-.054.459-.07C9.467.865 14.935.855 20.403.863a.41.41 0 0 1 .452.436c.004 7.134.003 14.268.001 21.402.027.251-.198.487-.453.445-5.536.001-11.071.002-16.606-.001-.249.038-.466-.198-.436-.442-.007-7.102 0-14.204-.003-21.306-.007-.174.017-.371.182-.469zM6.704 3.01c-.714.174-.912 1.203-.403 1.689.414.412 1.095.369 1.5.793.276.326.019.883-.4.909-.423.071-.778-.228-.964-.579-.199.075-.397.152-.594.231.312.722 1.156 1.202 1.926.918.789-.242 1.033-1.347.513-1.951-.371-.41-.958-.442-1.428-.679-.249-.114-.309-.496-.08-.662.356-.227.842-.111 1.092.22.18-.053.358-.107.537-.163-.247-.681-1.04-.975-1.699-.726zm2.167-.009c.003.189.009.377.019.565.297-.006.594-.007.892-.005.002 1.14-.002 2.28.002 3.42h.628c.003-1.14-.001-2.28.002-3.42.306 0 .613 0 .919-.004l-.002-.556c-.82-.001-1.64-.002-2.46 0zm4.062.001c-.453 1.326-.913 2.65-1.364 3.977.224.001.448 0 .672-.001.127-.372.257-.743.385-1.115.416-.005.831-.005 1.247 0 .128.371.258.743.385 1.115.224.001.448.002.672.001-.451-1.327-.912-2.65-1.364-3.977a66.782 66.782 0 0 0-.633 0zm2.026-.001c.454.752.946 1.483 1.379 2.247.042.575.002 1.155.017 1.732h.629c.024-.587-.046-1.185.034-1.766.426-.75.901-1.474 1.345-2.214l-.735.001c-.326.505-.641 1.017-.968 1.521-.321-.505-.628-1.019-.952-1.522l-.749.001zm-5.001 7.015c-.002 1.327-.001 2.654 0 3.981h.641c.001-1.327.002-2.654 0-3.982l-.641.001zm1.597-.002a1759.16 1759.16 0 0 0 0 3.979h.629c.002-.893-.003-1.786.003-2.68.514.889 1.01 1.789 1.519 2.681l.553-.002v-3.978h-.625c-.002.842.004 1.685-.003 2.527-.49-.839-.96-1.69-1.451-2.528l-.625.001zm-5.842 7.017c-.002 1.327-.002 2.654 0 3.981.822.002 1.645.002 2.468 0v-.583H6.346c-.007-1.131-.002-2.263-.002-3.394l-.631-.004zm4.083-.009c-.478 1.321-.919 2.656-1.377 3.984h.668c.131-.37.259-.742.391-1.112.414-.001.827-.002 1.241 0 .132.37.26.742.391 1.112h.668c-.454-1.327-.904-2.656-1.37-3.98-.204 0-.408-.001-.612-.004zm2.581.006c-.002 1.326-.002 2.652 0 3.978h.629c.003-.895-.002-1.789.002-2.684.511.891 1.011 1.79 1.519 2.683l.553.002v-3.98l-.622-.001c-.006.847 0 1.695-.003 2.543-.49-.846-.96-1.704-1.458-2.545l-.62.004zm3.659.005c-.002 1.326-.002 2.652 0 3.978.822.004 1.645.002 2.467.001v-.641c-.61-.002-1.221-.002-1.832.001a33.127 33.127 0 0 1-.003-1.092l1.152-.001-.001-.643-1.152-.001a78.409 78.409 0 0 1 0-.97c.571-.003 1.142 0 1.713-.002v-.631c-.781 0-1.563-.001-2.344.001z"/>
    <path fill="#fff" d="M13.256 4.111c.137.366.264.737.389 1.108a69.52 69.52 0 0 1-.791-.001c.131-.37.265-.739.402-1.107zM9.703 19.253c.131-.371.264-.741.404-1.109.134.368.262.738.387 1.109h-.791z"/>
</svg>
