<svg xmlns="http://www.w3.org/2000/svg" width="24" height="24">
    <path fill="#fff" d="M.909 0h22.179c.444.104.807.467.911.911v22.176a1.24 1.24 0 0 1-.911.914H.911a1.24 1.24 0 0 1-.912-.909V.912C.103.468.465.106.908.001zm.657.587C1.008.647.559 1.171.575 1.73v20.539c-.021.621.535 1.176 1.155 1.155h20.539c.621.021 1.176-.534 1.155-1.155V1.73c.021-.621-.534-1.177-1.155-1.155H2.109c-.181.002-.363-.009-.543.012z"/>
    <path fill="#fff" d="M2.08 1.192c.15-.024.301-.015.451-.017 6.408.001 12.816-.001 19.223.001.57-.006 1.075.5 1.069 1.069v19.508c.006.57-.499 1.074-1.069 1.069-6.502.002-13.005.002-19.508 0-.57.006-1.076-.499-1.069-1.069V2.245a1.085 1.085 0 0 1 .903-1.054zm10.945 2.787c-.458.612-.477 1.498-.142 2.17.297.602 1.128.788 1.688.454.223-.134.375-.354.481-.586a29.282 29.282 0 0 0-.519-.199c-.163.375-.689.547-.99.231-.394-.454-.394-1.188-.094-1.692.258-.403.897-.311 1.096.104.168-.075.336-.151.503-.229-.311-.792-1.52-.918-2.024-.254zm6.835-.197c-.362.271-.403.869-.068 1.178.34.325.855.328 1.224.602.235.174.123.576-.154.632-.365.123-.759-.1-.901-.444-.174.063-.347.127-.52.193.233.808 1.344 1.077 1.971.563.397-.326.412-1.019.009-1.346-.33-.284-.783-.331-1.153-.54-.179-.092-.171-.382.011-.466.283-.135.672-.041.809.258.169-.055.337-.111.504-.171-.196-.722-1.192-.874-1.732-.459zM2.215 3.598c-.002.18-.002.361 0 .541.29.003.581 0 .871.001l.001 2.578h.563c.001-.859-.001-1.718.001-2.577.288-.001.576.001.864-.001a48.96 48.96 0 0 0 0-.542c-.767-.001-1.534-.002-2.301 0zm3.386 3.099c.188.002.375.002.562 0 .005-.399 0-.798.002-1.197.202-.001.403-.002.605.001.197.398.391.799.592 1.196.21 0 .419.002.629-.002-.199-.42-.408-.834-.608-1.253.583-.201.788-.975.461-1.473-.172-.27-.506-.378-.811-.381-.477-.003-.953-.001-1.431 0-.001 1.036-.002 2.072 0 3.109zm3.498-3.083v1.919c.003.353.097.739.382.973.416.324 1.031.334 1.497.112.363-.183.535-.599.544-.989.007-.672-.002-1.345.004-2.017-.188.002-.375.002-.562 0-.002.641.003 1.282-.002 1.923-.008.224-.054.494-.274.607a.917.917 0 0 1-.752 0c-.219-.113-.268-.384-.268-.608-.003-.64 0-1.28-.001-1.92a53.77 53.77 0 0 1-.568 0zm7.038 0c.003 1.035 0 2.07.002 3.104.188.002.376.002.564 0 .012-.293-.021-.59.015-.88.164-.221.349-.426.517-.644.27.509.54 1.017.812 1.524h.655l-1.088-1.997c.289-.374.592-.736.882-1.109-.222.004-.444.003-.666.003-.372.479-.75.952-1.126 1.428V3.614c-.189.002-.377.002-.566 0zM3.84 9.563c-.114 1.795-.219 3.591-.325 5.386.616.264 1.236.519 1.852.783.644-.746 1.822-.976 2.682-.485.73.457.844 1.478.571 2.232-.287.796-1.153 1.231-1.964 1.232a3.77 3.77 0 0 1-2.385-.708c-.359.493-.715.987-1.07 1.483.653.551 1.488.843 2.325.965.951.133 1.949.098 2.847-.268.765-.305 1.435-.863 1.829-1.591.694-1.303.615-3.034-.298-4.213-1.038-1.308-3.052-1.517-4.478-.76l.162-2.238 4.4-.001V9.562H3.841zm10.068 0c-.11 1.796-.218 3.592-.323 5.387.617.262 1.235.52 1.852.781.643-.749 1.828-.976 2.686-.48.733.465.841 1.498.555 2.254-.301.796-1.178 1.216-1.992 1.207a3.766 3.766 0 0 1-2.347-.709c-.358.493-.714.988-1.07 1.483.658.556 1.5.848 2.343.968.923.126 1.891.095 2.768-.247.781-.298 1.472-.856 1.877-1.594.71-1.313.63-3.069-.302-4.254-1.044-1.291-3.045-1.492-4.462-.738.056-.746.105-1.493.164-2.239 1.466-.001 2.932.001 4.399-.001.002-.606.001-1.211 0-1.817a6301.7 6301.7 0 0 0-6.149 0z"/>
    <path fill="#fff" d="M6.165 4.122c.315.01.633-.022.946.017.392.053.412.714.03.799-.322.047-.652.009-.977.021v-.837z"/>
    <path d="M1.566.587c.18-.022.362-.01.543-.012h20.16c.621-.022 1.176.534 1.155 1.155v20.539c.021.621-.534 1.176-1.155 1.155H1.73c-.621.021-1.177-.534-1.155-1.155V1.73c-.016-.56.433-1.084.991-1.143zm.514.605a1.086 1.086 0 0 0-.903 1.054v19.508c-.007.57.499 1.075 1.069 1.069 6.503.002 13.006.002 19.508 0 .57.005 1.075-.5 1.069-1.069V2.246c.006-.57-.499-1.075-1.069-1.069-6.407-.003-12.815 0-19.223-.001-.15.001-.302-.008-.451.017z"/>
    <path d="M13.025 3.979c.504-.664 1.713-.538 2.024.254-.167.077-.335.154-.503.229-.199-.415-.839-.507-1.096-.104-.3.503-.3 1.237.094 1.692.302.316.827.144.99-.231.173.066.347.131.519.199-.107.232-.259.452-.481.586-.56.333-1.391.148-1.688-.454-.335-.672-.316-1.559.142-2.17zM19.86 3.782c.541-.415 1.536-.263 1.732.459-.167.06-.336.116-.504.171-.136-.299-.526-.393-.809-.258-.182.084-.19.374-.011.466.369.21.822.256 1.153.54.403.327.387 1.02-.009 1.346-.627.514-1.738.245-1.971-.563.173-.066.346-.13.52-.193.142.344.537.567.901.444.277-.057.389-.458.154-.632-.368-.274-.884-.277-1.224-.602-.335-.308-.294-.907.068-1.178zM2.215 3.598c.767-.002 1.534-.001 2.301 0v.542c-.288.002-.577 0-.864.001-.002.859 0 1.718-.001 2.577-.188.002-.375.001-.563 0L3.087 4.14c-.291 0-.581.002-.871-.001a48.78 48.78 0 0 1 0-.541zM5.601 6.697a644.393 644.393 0 0 1 0-3.109c.477 0 .954-.003 1.431 0 .306.003.64.112.811.381.327.498.122 1.272-.461 1.473.2.419.409.833.608 1.253-.21.004-.419.002-.629.002-.201-.397-.394-.798-.592-1.196-.202-.003-.403-.002-.605-.001-.002.399.003.798-.002 1.197-.187.002-.374.002-.562 0zm.564-2.575v.837c.325-.012.654.026.977-.021.381-.084.362-.746-.03-.799-.313-.039-.631-.007-.946-.017zM9.099 3.614h.568c.001.64-.002 1.281.001 1.92 0 .224.049.495.268.608a.913.913 0 0 0 .752 0c.22-.113.266-.383.274-.607.005-.641 0-1.282.002-1.923.187.002.374.002.562 0-.007.672.002 1.345-.004 2.017-.009.39-.181.805-.544.989-.465.221-1.08.212-1.497-.112-.285-.234-.379-.619-.382-.973V3.614zM16.137 3.614h.566v1.429c.376-.475.754-.949 1.126-1.428.222 0 .443.001.666-.003-.29.373-.593.735-.882 1.109.364.665.726 1.331 1.088 1.997-.218.002-.436.001-.655 0-.272-.507-.542-1.016-.812-1.524-.169.218-.354.423-.518.644-.036.29-.003.588-.015.88-.188.002-.376.002-.564 0-.002-1.035.001-2.07-.002-3.104zM3.84 9.563h6.147v1.818l-4.4.001-.162 2.238c1.425-.757 3.439-.548 4.478.76.913 1.179.991 2.91.298 4.213-.393.728-1.064 1.286-1.829 1.591-.898.366-1.896.4-2.847.268-.837-.122-1.671-.413-2.325-.965.354-.496.711-.99 1.07-1.483a3.763 3.763 0 0 0 2.385.708c.811-.001 1.677-.436 1.964-1.232.273-.754.159-1.775-.571-2.232-.859-.491-2.038-.261-2.682.485-.616-.264-1.236-.519-1.852-.783.106-1.795.211-3.591.325-5.386zM13.908 9.563a6301.7 6301.7 0 0 1 6.149 0v1.817c-1.466.002-2.933 0-4.399.001-.059.746-.108 1.493-.164 2.239 1.418-.755 3.418-.553 4.462.738.933 1.185 1.013 2.942.302 4.254-.405.737-1.096 1.296-1.877 1.594-.877.342-1.844.373-2.768.247-.843-.12-1.686-.412-2.343-.968.355-.495.712-.99 1.07-1.483a3.764 3.764 0 0 0 2.347.709c.814.008 1.691-.412 1.992-1.207.286-.756.178-1.789-.555-2.254-.858-.495-2.044-.268-2.686.48-.617-.261-1.236-.519-1.852-.781.105-1.796.213-3.592.323-5.387z"/>
</svg>
