<svg xmlns="http://www.w3.org/2000/svg" width="24" height="24">
    <path fill="#c31926" d="M11.015 0h1.936c4.212.371 8.143 3.031 9.91 6.893.632 1.295.937 2.713 1.14 4.13v1.913c-.288 2.7-1.386 5.334-3.282 7.301-2.005 2.155-4.823 3.444-7.733 3.763H11.05c-4.112-.378-7.973-2.914-9.788-6.647C.559 15.992.211 14.487.001 12.98v-1.926c.17-1.152.367-2.311.81-3.395C2.121 4.227 5.1 1.477 8.64.479c.775-.236 1.58-.337 2.376-.48zm-.408 2.099C7.613 2.494 4.866 4.345 3.36 6.96c-1.933 3.236-1.786 7.571.376 10.662 2.159 3.252 6.335 4.987 10.163 4.195 3.556-.656 6.613-3.401 7.654-6.863.889-2.831.431-6.048-1.235-8.506-2.052-3.155-5.99-4.915-9.71-4.35z"/>
    <path fill="#fff" d="M10.607 2.099c3.72-.565 7.658 1.195 9.71 4.35 1.666 2.458 2.124 5.675 1.235 8.506-1.04 3.462-4.098 6.206-7.654 6.863-3.828.792-8.004-.943-10.163-4.195-2.161-3.091-2.309-7.426-.376-10.662C4.865 4.346 7.612 2.495 10.606 2.1zM6.083 8.004c-1.034 1.033-.726 3.046.702 3.562-1.667.619-2.05 3-.882 4.249 1.16 1.236 3.346 1.339 4.625.235 1.388-1.194 1.165-3.863-.684-4.48 1.531-.606 1.702-2.882.394-3.808-1.206-.826-3.082-.806-4.154.241zm9.075-.761c-1.592.198-2.311 1.892-2.428 3.308-.126 1.619-.196 3.361.542 4.854.851 1.649 3.462 1.895 4.58.408.846-1.158.908-2.671.912-4.052-.036-1.229-.151-2.557-.91-3.578-.61-.822-1.721-1.114-2.698-.94z"/>
    <path fill="#fff" d="M7.846 8.704c.755-.332 1.717.278 1.577 1.136.029.821-.935 1.271-1.622.955-.853-.341-.827-1.789.046-2.092zM15.283 8.792c.422-.232 1.013-.062 1.218.382.413.835.343 1.801.377 2.706-.026.956.036 1.962-.329 2.867-.227.61-1.138.755-1.531.234-.379-.55-.414-1.246-.454-1.89-.034-1.042-.056-2.093.097-3.126.077-.436.198-.946.622-1.172zM7.84 12.413c1.014-.418 2.021.62 1.786 1.632.01.827-.834 1.532-1.644 1.255-1.235-.35-1.309-2.41-.142-2.887z"/>
    <path d="M6.083 8.004c1.073-1.048 2.948-1.067 4.154-.241 1.308.925 1.138 3.202-.394 3.808 1.849.617 2.072 3.286.684 4.48-1.279 1.104-3.464 1.001-4.625-.235-1.168-1.249-.785-3.63.882-4.249-1.428-.516-1.736-2.528-.702-3.562zm1.763.7c-.872.302-.899 1.751-.046 2.092.688.316 1.651-.134 1.622-.955.14-.858-.822-1.469-1.577-1.136zm-.006 3.709c-1.168.478-1.093 2.537.142 2.887.81.277 1.654-.428 1.644-1.255.235-1.012-.772-2.05-1.786-1.632zM15.158 7.243c.977-.174 2.088.118 2.698.94.758 1.021.874 2.35.91 3.578-.004 1.381-.066 2.894-.912 4.052-1.118 1.487-3.73 1.241-4.58-.408-.738-1.493-.668-3.235-.542-4.854.116-1.416.835-3.11 2.428-3.308zm.125 1.549c-.424.227-.545.737-.622 1.172-.154 1.033-.131 2.084-.097 3.126.04.644.074 1.34.454 1.89.394.521 1.304.376 1.531-.234.365-.905.302-1.91.329-2.867-.034-.905.036-1.871-.377-2.706-.205-.444-.796-.613-1.218-.382z"/>
</svg>
