<svg xmlns="http://www.w3.org/2000/svg" width="24" height="24">
    <path fill="#d40000" d="M10.969 0h2.032c.756.146 1.526.23 2.266.454 3.701 1.007 6.794 3.931 8.05 7.55.362.956.502 1.972.684 2.972v2.012c-.311 2.707-1.42 5.35-3.341 7.309-1.991 2.112-4.765 3.366-7.628 3.702H11c-4.153-.407-8.041-3.006-9.818-6.809C.53 15.887.22 14.455.001 13.026v-2.023c.181-1.102.356-2.215.776-3.257 1.316-3.535 4.4-6.361 8.053-7.32.7-.206 1.428-.278 2.14-.427zm-.231 2.484c-3.584.426-6.77 3.077-7.859 6.515-.9 2.705-.514 5.804 1.049 8.192 1.847 2.918 5.354 4.685 8.802 4.379 3.592-.23 6.904-2.69 8.198-6.043 1.064-2.66.848-5.794-.583-8.276-1.849-3.344-5.824-5.32-9.607-4.766z"/>
    <path fill="#fff" d="M10.738 2.484c3.784-.553 7.758 1.422 9.607 4.766 1.432 2.483 1.648 5.616.583 8.276-1.295 3.353-4.607 5.813-8.198 6.043-3.448.306-6.955-1.46-8.802-4.379-1.562-2.388-1.949-5.488-1.049-8.192 1.088-3.438 4.274-6.089 7.859-6.515zm-5.202 8.074c.401-.286.828-.551 1.316-.653.781 5.028 5.46 9.043 10.547 9.059a317.7 317.7 0 0 0-.001-2.183c-4.048-.043-7.776-3.239-8.386-7.25.498-.058.99.037 1.465.18-1.066-1.277-2.13-2.555-3.205-3.823-.586 1.554-1.156 3.114-1.736 4.67z"/>
    <path d="M5.536 10.558c.581-1.556 1.151-3.116 1.736-4.67 1.075 1.268 2.14 2.546 3.205 3.823-.475-.143-.967-.238-1.465-.18.61 4.012 4.338 7.207 8.386 7.25.004.727.004 1.456.001 2.183-5.087-.016-9.766-4.031-10.547-9.059-.488.102-.916.367-1.316.653z"/>
</svg>
