<svg xmlns="http://www.w3.org/2000/svg" width="24" height="24">
    <path fill="#fff" d="M11.096 0h1.834c1.769.16 3.514.669 5.05 1.569a12.068 12.068 0 0 1 5.378 6.477c.349.983.543 2.015.642 3.052v1.83c-.161 1.769-.67 3.515-1.57 5.052-1.538 2.7-4.162 4.757-7.155 5.592-.762.224-1.55.339-2.337.428h-1.866c-1.724-.155-3.421-.647-4.931-1.499-2.633-1.468-4.68-3.954-5.593-6.829-.292-.886-.449-1.808-.547-2.734v-1.87c.093-.891.241-1.78.513-2.636.84-2.732 2.7-5.131 5.129-6.637C7.278.759 9.173.162 11.097 0zm.27.596a11.347 11.347 0 0 0-5.574 1.817C3.206 4.072 1.35 6.818.781 9.838c-.627 3.184.19 6.617 2.2 9.167a11.445 11.445 0 0 0 7.423 4.306c3.22.47 6.617-.526 9.065-2.673 2.293-1.966 3.75-4.876 3.928-7.893.127-1.87-.219-3.77-.999-5.474a11.464 11.464 0 0 0-6.131-5.87 11.378 11.378 0 0 0-4.902-.807z"/>
    <path fill="#fff" d="M11.062 1.22c2.432-.221 4.932.42 6.958 1.786-.843.85-1.689 1.697-2.54 2.539-1.314-.158-2.693.42-3.468 1.497-.527.743-.644 1.688-.606 2.576-.606.62-1.224 1.228-1.837 1.841-.004-1.931.004-3.862-.004-5.794-.623.003-1.248-.022-1.869.011-.621.42-1.221.876-1.827 1.319-.006.669-.002 1.339-.002 2.008.609-.429 1.201-.883 1.808-1.314.004 1.88-.006 3.76.005 5.64-1.536 1.58-3.115 3.127-4.673 4.689-1.655-2.445-2.228-5.583-1.552-8.455.65-2.887 2.557-5.455 5.121-6.928a10.737 10.737 0 0 1 4.485-1.416zM16.188 5.69c.78-.772 1.551-1.553 2.33-2.325.077.058.155.115.234.171-.744.772-1.511 1.523-2.272 2.28l-.292-.127zM17.053 6.101c.722-.722 1.442-1.446 2.167-2.165.073.067.144.135.216.203-.715.713-1.425 1.433-2.145 2.14l-.238-.179zM17.758 6.668c.701-.701 1.402-1.403 2.104-2.103.068.071.136.144.202.218-.701.706-1.406 1.409-2.11 2.111l-.196-.226zM20.451 5.246c.064.076.126.155.185.236-.731.737-1.469 1.469-2.201 2.205a11.793 11.793 0 0 1-.154-.26c.716-.734 1.45-1.45 2.17-2.18zM18.599 8.381c.79-.807 1.594-1.602 2.394-2.399 1.655 2.444 2.227 5.582 1.55 8.454-.65 2.887-2.557 5.455-5.12 6.929a10.82 10.82 0 0 1-11.441-.372c.848-.855 1.698-1.708 2.555-2.554l.025.001c.334.017.668.012 1.003.006.003-.34.011-.681-.01-1.02.621-.643 1.262-1.266 1.891-1.9.087.536.262 1.066.584 1.509.759 1.028 2.077 1.602 3.349 1.475a3.794 3.794 0 0 0 2.535-1.3c.676-.785.805-1.868.763-2.865V9.283a4.32 4.32 0 0 0-.078-.901zM14.39 7.507c.16-.043.324-.061.487-.089a88.307 88.307 0 0 1-1.561 1.56c.026-.167.052-.334.1-.496.308-.339.637-.664.974-.975zM13.286 9.866c.789-.787 1.575-1.577 2.365-2.363l.295.124c-.881.888-1.77 1.769-2.652 2.656l-.008-.394v-.022zM16.397 8.028c.059.082.116.165.172.249-1.088 1.094-2.183 2.182-3.272 3.276-.004-.125-.008-.25-.016-.375l-.001-.024c1.031-1.05 2.08-2.083 3.118-3.126zM13.286 12.416c1.159-1.164 2.322-2.325 3.485-3.486l.019.397c-1.155 1.158-2.31 2.317-3.47 3.468a2.314 2.314 0 0 1-.034-.38z"/>
    <path fill="#fff" d="M13.282 13.694c1.163-1.172 2.332-2.337 3.501-3.503.011 1.509.001 3.018.005 4.528.009.513-.124 1.06-.494 1.434-.734.745-2.186.647-2.729-.28-.392-.651-.234-1.436-.282-2.154l-.001-.024zM9.56 12.325c.603-.611 1.21-1.216 1.82-1.821.014.126.023.253.031.38-.606.619-1.222 1.229-1.837 1.839-.005-.133-.008-.266-.015-.398zM9.564 13.591c.603-.61 1.213-1.213 1.817-1.821.015.134.022.269.02.405-.608.608-1.217 1.216-1.824 1.825-.006-.136-.009-.273-.012-.409zM11.383 13.042c.014.134.019.269.019.405-.607.609-1.217 1.214-1.822 1.824-.01-.126-.022-.252-.029-.378.59-.634 1.224-1.23 1.831-1.85zM3.366 18.518c1.43-1.438 2.869-2.867 4.299-4.304.008.128.017.255.029.382a397.094 397.094 0 0 1-4.155 4.156 10.092 10.092 0 0 0-.173-.234zM11.387 14.318c.011.132.015.264.017.396-.607.609-1.213 1.219-1.825 1.823a15.71 15.71 0 0 0-.027-.379c.601-.623 1.219-1.231 1.835-1.84zM3.937 19.218c1.239-1.247 2.488-2.485 3.727-3.732.009.127.019.253.033.38-1.173 1.201-2.372 2.379-3.558 3.569a6.91 6.91 0 0 1-.202-.217zM7.67 16.755l.011.409c-.962.971-1.93 1.935-2.898 2.9a6.942 6.942 0 0 1-.217-.203c1.033-1.037 2.07-2.07 3.104-3.106zM5.248 20.45c.81-.806 1.617-1.616 2.426-2.424.001.136.003.272.008.408-.728.739-1.464 1.47-2.199 2.202a4.264 4.264 0 0 1-.235-.186z"/>
    <path d="M11.366.596c1.666-.097 3.354.18 4.902.807a11.464 11.464 0 0 1 6.131 5.87 11.366 11.366 0 0 1 .999 5.474c-.179 3.017-1.635 5.927-3.928 7.893-2.448 2.146-5.845 3.143-9.065 2.673a11.443 11.443 0 0 1-7.423-4.306C.972 16.457.155 13.024.782 9.84c.569-3.02 2.425-5.766 5.011-7.425A11.347 11.347 0 0 1 11.367.598zm-.304.624c-1.575.133-3.12.62-4.485 1.416-2.565 1.472-4.471 4.041-5.121 6.928-.676 2.873-.104 6.011 1.552 8.455 1.558-1.562 3.137-3.109 4.673-4.689.649-.602 1.258-1.248 1.889-1.87.613-.613 1.23-1.222 1.837-1.841a744.979 744.979 0 0 0 4.074-4.073c.851-.841 1.697-1.689 2.54-2.539a10.805 10.805 0 0 0-6.958-1.786zm5.126 4.47c-.594.611-1.216 1.196-1.799 1.817-.337.311-.665.637-.974.975-.697.65-1.347 1.353-2.038 2.011l.001.011c-.609.604-1.217 1.21-1.82 1.821-.636.625-1.261 1.262-1.895 1.889-1.431 1.437-2.869 2.866-4.299 4.304.059.077.117.155.173.234a407.02 407.02 0 0 0 4.155-4.156c.64-.607 1.245-1.25 1.881-1.861v-.01c.615-.61 1.23-1.221 1.837-1.839.639-.63 1.279-1.265 1.905-1.906a88.307 88.307 0 0 0 1.561-1.56c.54-.527 1.073-1.064 1.604-1.602.761-.757 1.528-1.508 2.272-2.28a10.019 10.019 0 0 1-.234-.171c-.78.772-1.55 1.553-2.33 2.325zm.865.411c-.468.466-.936.933-1.401 1.402-.79.786-1.576 1.576-2.365 2.363v.022c-.656.603-1.266 1.259-1.905 1.882-.604.608-1.214 1.211-1.817 1.821-.637.629-1.264 1.266-1.9 1.895-1.239 1.247-2.488 2.485-3.727 3.732.066.074.134.146.203.217 1.185-1.19 2.385-2.368 3.558-3.569.638-.609 1.251-1.246 1.879-1.866.607-.609 1.216-1.217 1.824-1.825.631-.63 1.261-1.263 1.894-1.892.882-.887 1.771-1.768 2.652-2.656.45-.447.901-.893 1.343-1.347.721-.707 1.431-1.427 2.145-2.14-.072-.068-.143-.136-.216-.203-.725.719-1.445 1.443-2.167 2.165zm.705.567l-1.361 1.36c-1.038 1.043-2.087 2.076-3.118 3.126l.001.024c-.663.585-1.26 1.248-1.897 1.864-.607.62-1.241 1.216-1.831 1.85-.645.601-1.252 1.245-1.882 1.863-1.034 1.037-2.071 2.07-3.104 3.106.071.068.143.136.217.203.968-.965 1.936-1.929 2.898-2.9.638-.626 1.264-1.265 1.9-1.893.605-.61 1.215-1.215 1.822-1.824.632-.63 1.261-1.264 1.895-1.893 1.089-1.094 2.184-2.182 3.272-3.276.463-.459.924-.922 1.384-1.384.704-.703 1.409-1.405 2.11-2.111a6.946 6.946 0 0 0-.202-.218c-.703.7-1.403 1.402-2.104 2.103zm2.693-1.422c-.72.73-1.455 1.446-2.17 2.18-.51.494-1.007 1.001-1.509 1.504-1.163 1.161-2.325 2.321-3.485 3.486-.637.627-1.261 1.267-1.9 1.891l.001.011c-.616.609-1.234 1.217-1.835 1.84-.637.611-1.251 1.246-1.878 1.867-.809.808-1.615 1.618-2.426 2.424a4.8 4.8 0 0 0 .235.186c.735-.733 1.471-1.463 2.199-2.202.639-.621 1.257-1.265 1.898-1.884v-.011c.612-.604 1.217-1.214 1.825-1.823.643-.632 1.269-1.281 1.918-1.906l-.002-.013c1.161-1.152 2.315-2.31 3.47-3.468.551-.544 1.095-1.095 1.644-1.641.732-.736 1.47-1.467 2.201-2.205a4.17 4.17 0 0 0-.185-.236zm-1.852 3.135c-.613.595-1.213 1.205-1.816 1.81-1.169 1.166-2.338 2.332-3.501 3.503l.001.024c-.639.57-1.221 1.208-1.836 1.807-.63.634-1.271 1.257-1.891 1.9-.335.333-.695.649-.992 1.015l-.025-.001c-.857.847-1.708 1.699-2.555 2.554a10.82 10.82 0 0 0 11.441.372c2.564-1.474 4.47-4.042 5.12-6.929.677-2.872.105-6.01-1.55-8.454-.801.797-1.604 1.592-2.394 2.399z"/>
    <path fill="gray" d="M12.012 7.042c.775-1.078 2.154-1.656 3.468-1.497a782.214 782.214 0 0 1-4.074 4.073c-.038-.889.079-1.833.606-2.576zM5.869 6.996c.606-.442 1.206-.899 1.827-1.319.621-.033 1.247-.008 1.869-.011.007 1.931 0 3.863.004 5.794-.631.622-1.24 1.268-1.889 1.87-.01-1.88-.001-3.76-.005-5.64-.607.432-1.199.885-1.808 1.314 0-.669-.004-1.339.002-2.008zM14.39 7.507c.583-.621 1.205-1.206 1.799-1.817.097.042.195.083.292.127-.53.538-1.064 1.075-1.604 1.602-.163.028-.327.046-.487.089zM15.652 7.502c.465-.469.933-.935 1.401-1.402l.238.179c-.442.454-.893.9-1.343 1.347l-.295-.124zM16.397 8.028l1.361-1.36.196.226c-.46.462-.921.924-1.384 1.384a10.973 10.973 0 0 0-.172-.249zM16.771 8.93c.502-.502.999-1.01 1.509-1.504l.154.26c-.549.546-1.094 1.097-1.644 1.641a50.31 50.31 0 0 0-.019-.397zM16.783 10.191c.604-.605 1.203-1.215 1.816-1.81.063.296.078.599.078.901v5.062c.043.997-.086 2.08-.763 2.865a3.794 3.794 0 0 1-2.535 1.3c-1.271.127-2.589-.447-3.349-1.475-.322-.442-.497-.973-.584-1.509.615-.599 1.197-1.237 1.836-1.807.048.719-.11 1.504.282 2.154.543.927 1.995 1.025 2.729.28.37-.375.503-.921.494-1.434-.004-1.509.006-3.018-.005-4.528zM11.378 10.493c.691-.658 1.34-1.361 2.038-2.011a3.486 3.486 0 0 0-.1.496 136.93 136.93 0 0 1-1.905 1.906 7.995 7.995 0 0 0-.031-.38l-.001-.011zM11.381 11.77c.639-.623 1.249-1.279 1.905-1.882l.008.394-1.894 1.892a3.052 3.052 0 0 0-.02-.405zM11.383 13.042c.637-.615 1.235-1.279 1.898-1.864.008.125.013.25.016.375-.633.629-1.262 1.262-1.895 1.893 0-.135-.005-.27-.019-.405zM7.665 14.214c.634-.627 1.259-1.264 1.895-1.889l.015.398v.01c-.635.612-1.241 1.255-1.881 1.861a12.038 12.038 0 0 1-.029-.382zM11.386 14.307c.639-.624 1.263-1.265 1.9-1.891.002.127.01.254.034.38l.002.013c-.649.625-1.275 1.274-1.918 1.906a5.244 5.244 0 0 0-.017-.396l-.001-.011zM7.664 15.486c.636-.629 1.264-1.267 1.9-1.895.003.136.006.273.012.409-.629.619-1.241 1.256-1.879 1.866a9.737 9.737 0 0 1-.033-.38zM7.67 16.755c.631-.617 1.237-1.261 1.883-1.863.007.126.018.252.029.378-.636.628-1.261 1.268-1.9 1.893l-.011-.409zM7.673 18.025c.628-.621 1.241-1.256 1.878-1.867.011.126.019.252.027.379v.011c-.641.619-1.259 1.263-1.898 1.884a13.88 13.88 0 0 1-.008-.408zM8.563 18.44c.297-.366.658-.682.992-1.015.022.34.013.681.01 1.02-.334.006-.668.012-1.003-.006z"/>
</svg>
