<svg xmlns="http://www.w3.org/2000/svg" width="24" height="24">
    <path fill="#fff" d="M10.771 0h2.454c1.939.307 3.876.896 5.492 2.044 2.923 1.915 4.806 5.173 5.282 8.61v2.696c-.478 3.436-2.36 6.691-5.282 8.606-1.616 1.148-3.554 1.738-5.495 2.044h-2.448c-.87-.192-1.76-.307-2.599-.62-3.517-1.147-6.408-4.038-7.555-7.555-.314-.838-.427-1.729-.62-2.598v-2.448c.192-.87.306-1.764.62-2.603C1.767 4.659 4.658 1.768 8.174.621c.838-.314 1.729-.426 2.597-.62zm.076.656c-4.211.38-8.035 3.337-9.5 7.297-1.082 2.834-.97 6.107.322 8.855a11.473 11.473 0 0 0 6.45 5.914c2.852 1.034 6.126.881 8.854-.455 2.677-1.288 4.81-3.664 5.791-6.469 1.025-2.869.828-6.148-.54-8.87-2.017-4.18-6.757-6.81-11.376-6.271z"/>
    <path fill="#fff" d="M3.865 7.465c1.68-2.971 5.089-4.837 8.497-4.666 3.626.079 7.072 2.484 8.372 5.873 1.038 2.59.779 5.65-.679 8.028-1.25 2.086-3.349 3.612-5.695 4.226-.004-1.072 0-2.142.001-3.214.538.002 1.074 0 1.612-.005-.84-1.46-1.676-2.922-2.522-4.38l-2.678 4.392c.541.002 1.081.005 1.621.004.002 1.16-.007 2.322-.002 3.484-3.566.176-7.128-1.859-8.736-5.054-1.403-2.683-1.325-6.076.21-8.688zM9.32 4.228l.017 6.239c-.592-.005-1.183-.001-1.775 0 .947 1.456 1.878 2.922 2.826 4.378.853-1.448 1.687-2.909 2.545-4.355-.544-.001-1.087-.002-1.631 0 .002-2.088-.002-4.175.004-6.262H9.32z"/>
    <path fill="#da251d" d="M10.847.656c4.619-.539 9.359 2.092 11.376 6.271 1.368 2.723 1.565 6.001.54 8.87-.982 2.806-3.114 5.182-5.791 6.469-2.728 1.336-6.001 1.489-8.854.455a11.466 11.466 0 0 1-6.45-5.914c-1.291-2.748-1.404-6.02-.322-8.855 1.465-3.96 5.29-6.917 9.5-7.297zM3.865 7.465c-1.535 2.612-1.613 6.005-.21 8.688 1.608 3.196 5.17 5.231 8.736 5.054-.005-1.162.005-2.323.002-3.484-.54.001-1.08-.001-1.621-.004.893-1.464 1.787-2.928 2.678-4.392.846 1.458 1.682 2.92 2.522 4.38-.538.005-1.074.007-1.612.005-.001 1.072-.005 2.142-.001 3.214 2.346-.614 4.445-2.141 5.695-4.226 1.458-2.378 1.717-5.438.679-8.028-1.301-3.389-4.746-5.794-8.372-5.873-3.408-.172-6.817 1.694-8.497 4.666z"/>
    <path fill="#1f1a17" d="M9.32 4.228h1.986c-.006 2.087-.001 4.174-.004 6.262.544-.002 1.087-.001 1.631 0-.858 1.446-1.692 2.906-2.545 4.355-.948-1.456-1.879-2.922-2.826-4.378.592-.001 1.183-.005 1.775 0L9.32 4.228z"/>
</svg>
