<svg xmlns="http://www.w3.org/2000/svg" width="24" height="24">
    <path fill="#e20a16" d="M11.106 0h1.513c4.525.223 8.772 3.186 10.468 7.397.494 1.138.731 2.362.913 3.582v2.093c-.215 1.446-.548 2.89-1.212 4.201-1.776 3.737-5.593 6.284-9.68 6.727h-2.185c-1.289-.21-2.584-.473-3.776-1.024C3.067 21.214.23 17.05.001 12.621V11.39C.225 7.05 2.949 2.954 6.907 1.138c1.316-.641 2.761-.935 4.2-1.139zM8.249 2.737C4.781 4.104 2.26 7.554 2.035 11.279c-.32 3.743 1.708 7.542 4.975 9.384 1.31-2.275 2.618-4.552 3.941-6.82.139-.251.281-.5.42-.751l-.179.086c.257-.218.438-.512.589-.81.17-.272.334-.548.498-.824 1.567-2.742 3.157-5.471 4.732-8.208-2.633-1.511-5.95-1.752-8.762-.599zm10.393 1.779c-.352.596-.683 1.206-1.05 1.794-.17.323-.385.654-.343 1.038-.025-.053-.078-.157-.103-.209a32.743 32.743 0 0 0-1.122 1.939l.227-.132c-.716.649-1.058 1.624-1.555 2.441-1.984 3.352-3.905 6.742-5.858 10.111 2.606.863 5.569.623 7.969-.725 2.345-1.267 4.128-3.52 4.836-6.089 1.043-3.601-.18-7.705-3-10.169z"/>
    <path fill="#fff" d="M8.249 2.737c2.813-1.153 6.13-.912 8.762.599-1.574 2.737-3.164 5.466-4.732 8.208-.32-.96-1.303-1.601-2.316-1.382-.205-.504-.469-1.001-.488-1.555l.436-.161.004-.403a24.709 24.709 0 0 0-1.678.006l-.05.282c.29.061.582.12.874.179l-.088.314c-1.123-.013-2.246.028-3.368-.018-.023-.733.497-1.147 1.212-1.04l.041-.377c-.472-.061-1.151-.197-1.412.325-.312.792-.535 1.618-.808 2.424-1.074-.166-2.191.623-2.227 1.742-.128 1.109.932 2.122 2.03 1.99 1.079-.054 1.894-1.184 1.667-2.227-.089-.6-.557-1.027-1.021-1.366l.164-.468c.702.803 1.393 1.615 2.106 2.408.298.359.812.198 1.217.238.287 1.018 1.357 1.604 2.378 1.388-1.322 2.268-2.63 4.544-3.941 6.82-3.268-1.842-5.296-5.641-4.975-9.384.224-3.725 2.746-7.175 6.214-8.542zM18.642 4.516c2.82 2.464 4.043 6.568 3 10.169-.708 2.569-2.491 4.822-4.836 6.089-2.4 1.348-5.363 1.588-7.969.725 1.954-3.37 3.875-6.76 5.858-10.111-.096.57-.056 1.315.67 1.378.074-.792.121-1.586.182-2.38.262-.078.523-.156.786-.23-.102.551-.21 1.102-.313 1.652l2.083.001c.08-.25.162-.499.244-.748.496.865 1.591.82 2.447 1.032.061-.93-1.196-.91-1.429-1.692-.362-.671-.446-1.558-1.091-2.034-.721-.428-1.409.27-2.023.58l-.227.132c.354-.658.724-1.308 1.122-1.939.025.052.078.156.103.209.137.455.64.744 1.098.584.596-.167.809-1.012.358-1.436-.282-.328-.739-.246-1.112-.186.367-.588.698-1.198 1.05-1.794zm-3.659 12.646c-.088.466.349.744.746.814.468-1.406.914-2.82 1.38-4.229a8.63 8.63 0 0 1 1.549 3.245c.082.587.64.954 1.213.845-.118-.637-.263-1.267-.394-1.901-.184-1.333-1.074-2.404-1.621-3.599-.647-.002-1.294 0-1.94-.002-.31 1.609-.653 3.214-.934 4.828z"/>
    <path fill="#fff" d="M5.458 9.318c1.105-.03 2.212-.007 3.318-.013-.338.87-.671 1.742-1.008 2.612-.77-.866-1.556-1.718-2.31-2.599zM9.182 9.548c.112.263.22.526.329.79-.748.324-.743 1.262-1.261 1.71.26-.851.625-1.666.932-2.5zM2.9 12.229c-.175-.919.682-1.72 1.582-1.631-.149.541-.389 1.057-.488 1.61.092.172.241.29.398.106.251-.493.353-1.048.554-1.561.749.457.991 1.568.336 2.21-.714.842-2.256.353-2.382-.734zM10.138 10.607c.992-.154 1.91.764 1.644 1.762-.151.298-.332.592-.589.81-.77.522-1.776.074-2.134-.724.614-.013 1.236.032 1.843-.083a11.786 11.786 0 0 1-.764-1.765z"/>
    <path fill="#fff" d="M9.001 11.956c.076-.457.308-.863.662-1.162.172.386.325.781.479 1.175-.38 0-.761.001-1.141-.013z"/>
    <path d="M17.592 6.31c.373-.06.83-.142 1.112.186.451.425.239 1.27-.358 1.436-.458.16-.961-.13-1.098-.584-.042-.384.173-.715.343-1.038zM5.444 7.714c.262-.522.941-.386 1.412-.325a48.22 48.22 0 0 0-.041.377c-.715-.107-1.235.307-1.212 1.04 1.122.046 2.245.005 3.368.018l.088-.314c-.292-.059-.583-.118-.874-.179l.05-.282a24.704 24.704 0 0 1 1.678-.006l-.004.403-.436.161c.019.554.283 1.051.488 1.555 1.013-.218 1.996.422 2.316 1.382-.164.276-.328.552-.498.824.266-.997-.652-1.915-1.644-1.762.205.608.463 1.199.764 1.765-.607.115-1.229.07-1.843.083.358.798 1.363 1.246 2.134.724l.179-.086c-.139.251-.281.5-.42.751-1.021.216-2.092-.371-2.378-1.388-.404-.04-.919.121-1.217-.238-.713-.793-1.404-1.606-2.106-2.408l-.164.468c.464.338.932.766 1.021 1.366.227 1.043-.588 2.173-1.667 2.227-1.098.132-2.159-.881-2.03-1.99.036-1.12 1.153-1.908 2.227-1.742.272-.806.496-1.632.808-2.424zm.014 1.604c.754.881 1.54 1.733 2.31 2.599.337-.87.67-1.742 1.008-2.612-1.106.006-2.213-.017-3.318.013zm3.724.23c-.307.834-.672 1.649-.932 2.5.518-.448.514-1.386 1.261-1.71-.109-.264-.217-.527-.329-.79zM2.9 12.229c.126 1.087 1.668 1.577 2.382.734.655-.642.413-1.753-.336-2.21-.202.514-.304 1.068-.554 1.561-.157.185-.306.066-.398-.106.1-.553.34-1.069.488-1.61-.9-.089-1.757.712-1.582 1.631zm6.101-.273c.38.014.761.013 1.141.013-.154-.394-.307-.788-.479-1.175a1.917 1.917 0 0 0-.662 1.162zM16.25 8.946c.614-.31 1.302-1.008 2.023-.58.644.476.728 1.363 1.091 2.034.233.782 1.49.762 1.429 1.692-.856-.212-1.951-.167-2.447-1.032-.082.248-.163.498-.244.748l-2.083-.001c.103-.551.211-1.102.313-1.652-.263.074-.524.152-.786.23-.061.793-.108 1.588-.182 2.38-.726-.062-.766-.808-.67-1.378.497-.817.839-1.792 1.555-2.441z"/>
    <path d="M14.983 17.162c.281-1.614.624-3.218.934-4.828.647.002 1.294 0 1.94.002.547 1.195 1.438 2.266 1.621 3.599.131.634.276 1.264.394 1.901-.574.109-1.132-.258-1.213-.845a8.652 8.652 0 0 0-1.549-3.245c-.466 1.409-.912 2.822-1.38 4.229-.397-.07-.834-.348-.746-.814z"/>
</svg>
