<svg xmlns="http://www.w3.org/2000/svg" width="24" height="24">
    <path fill="#d40000" d="M11.004 0h1.958c1.452.205 2.906.52 4.229 1.174 3.808 1.784 6.416 5.675 6.809 9.84v1.934c-.193 1.394-.492 2.788-1.1 4.064-1.74 3.894-5.682 6.58-9.904 6.988h-1.96c-1.328-.19-2.659-.462-3.884-1.026C3.173 21.266.401 17.28 0 12.99v-1.948c.373-4.177 2.993-8.082 6.809-9.87C8.122.522 9.564.213 11.004 0zm-.269 2.484c-3.583.426-6.767 3.078-7.856 6.515-.9 2.704-.514 5.804 1.048 8.191 1.847 2.921 5.357 4.686 8.806 4.38 3.59-.232 6.902-2.69 8.195-6.043 1.066-2.66.85-5.792-.582-8.276-1.849-3.344-5.825-5.32-9.61-4.766z"/>
    <path fill="#fff" d="M10.735 2.484c3.785-.553 7.76 1.422 9.61 4.766 1.432 2.484 1.648 5.616.582 8.276-1.292 3.353-4.604 5.812-8.195 6.043-3.449.306-6.959-1.459-8.806-4.38-1.561-2.387-1.948-5.488-1.048-8.191 1.09-3.437 4.273-6.089 7.856-6.515zM5.106 7.04c-.006 1.931-.018 3.863.006 5.795.54.008 1.08.01 1.619-.006.011-.482.005-.965.013-1.447.347-.21.179-.655.221-.985 1.402.064 2.804.112 4.206.184.38-.034.262.446.371.674a1.8 1.8 0 0 0 .916 0c.109-.227-.007-.71.372-.674 1.403-.071 2.806-.121 4.21-.184.001.263.004.526.008.788.438.403.118 1.11.221 1.644.54.016 1.08.014 1.62.006.024-1.932.012-3.864.006-5.795a31.479 31.479 0 0 0-1.626.002c-.008.491-.01.98-.004 1.471l-.226.154.004.816c-1.433-.077-2.87-.086-4.3-.212l-.056-.659a5.098 5.098 0 0 0-1.374 0l-.056.659c-1.429.126-2.866.134-4.298.212 0-.271.001-.542.004-.814l-.226-.157c.006-.49.005-.979-.004-1.47a29.38 29.38 0 0 0-1.626-.002zm2.922 9.869c-.331.367-.158.894-.196 1.338l3.137.001v1.192h1.198l-.001-1.19.716-.002v-1.094l-.716-.002c.002-1.236 0-2.473.001-3.71l-1.517-.001c-.88 1.153-1.744 2.317-2.622 3.47zm5.754-1.998l-.001 1.079-.494.004.001.636.493.004c.026.769-.06 1.547.049 2.311.166.572.857.522 1.321.427-.023-.221-.046-.44-.067-.66a2.34 2.34 0 0 1-.672-.082c-.004-.666-.004-1.333-.002-1.999l.732.004.014-.641-.746-.002c0-.45 0-.9-.004-1.35l-.624.27z"/>
    <path fill="#fff" d="M9.17 17.15a265.87 265.87 0 0 1 1.796-2.422c.006.808.001 1.615.002 2.423-.599 0-1.199.002-1.799-.001z"/>
    <path d="M5.106 7.04a31.479 31.479 0 0 1 1.626.002c.008.491.01.98.004 1.47l.226.157c-.002.271-.004.542-.004.814 1.433-.078 2.869-.086 4.298-.212l.056-.659a5.098 5.098 0 0 1 1.374 0l.056.659c1.429.126 2.867.136 4.3.212-.001-.272-.001-.544-.004-.816l.226-.154c-.006-.491-.005-.98.004-1.471a29.38 29.38 0 0 1 1.626-.002c.006 1.931.018 3.863-.006 5.795-.54.008-1.08.01-1.62-.006-.103-.534.217-1.241-.221-1.644a51.886 51.886 0 0 1-.008-.788c-1.404.062-2.807.113-4.21.184-.379-.036-.263.448-.372.674a1.8 1.8 0 0 1-.916 0c-.109-.228.01-.708-.371-.674-1.402-.072-2.804-.12-4.206-.184-.042.33.126.775-.221.985-.008.482-.002.965-.013 1.447-.539.016-1.079.014-1.619.006-.024-1.932-.012-3.864-.006-5.795zM8.028 16.909c.878-1.153 1.742-2.317 2.622-3.47l1.517.001c-.001 1.237.001 2.474-.001 3.71l.716.002v1.094l-.716.002.001 1.19h-1.198v-1.192l-3.137-.001c.037-.444-.136-.971.196-1.338zm1.142.241c.6.004 1.2.001 1.799.001-.001-.808.004-1.615-.002-2.423-.605.803-1.201 1.612-1.796 2.422zM13.782 14.911l.624-.27c.004.45.004.9.004 1.35l.746.002-.014.641-.732-.004c-.001.666-.001 1.333.002 1.999.218.062.445.084.672.082l.067.66c-.464.095-1.156.145-1.321-.427-.109-.764-.023-1.542-.049-2.311l-.493-.004-.001-.636.494-.004.001-1.079z"/>
</svg>
