<svg xmlns="http://www.w3.org/2000/svg" width="24" height="24">
    <path fill="#ffd600" d="M11.378 0h1.237c2.151.134 4.259.821 6.057 2.012-2.235 2.228-4.461 4.466-6.699 6.692-.05-.588.179-1.563-.615-1.734-1.817-.071-3.643-.011-5.464-.029-.44-.046-.879.299-.846.761-.008 1.935-.002 3.871-.002 5.806.702.022 1.403.014 2.105.023l-.382.376c-.224.012-.447.041-.671.067l.005.603-.276.277c-.044-.305.086-.697-.148-.94-.211-.017-.606-.104-.637.199-.045.511-.003 1.025-.011 1.537-1.003 1.006-2.01 2.009-3.013 3.015C.822 16.874.147 14.766 0 12.622v-1.234c.139-1.955.69-3.892 1.715-5.57C3.715 2.433 7.457.203 11.378 0zM11.955 9.787c2.443-2.447 4.894-4.884 7.329-7.338.147.118.294.235.442.351-2.595 2.576-5.17 5.171-7.761 7.75l-.01-.763zM11.947 11.663c2.785-2.781 5.561-5.571 8.352-8.346.127.131.254.26.389.383-2.905 2.902-5.802 5.812-8.712 8.71-.011-.249-.02-.498-.029-.747zM14.757 10.733c2.151-2.157 4.308-4.308 6.462-6.462.11.157.224.31.342.461-1.995 1.997-3.992 3.993-5.989 5.989-.272.003-.543.009-.815.012zM16.659 10.691c1.78-1.782 3.561-3.564 5.343-5.344A12.456 12.456 0 0 1 24 11.37v1.253c-.205 3.869-2.379 7.571-5.697 9.584-1.705 1.063-3.678 1.658-5.679 1.793h-1.236a12.451 12.451 0 0 1-6.034-2.004c1.929-1.926 3.851-3.86 5.786-5.781.252.062.513.078.773.078.011-.29.02-.58.019-.87.445-.456.898-.903 1.348-1.354.083.643.297 1.26.377 1.904.017.378.589.467.765.153.092-.26.072-.542.093-.812 1.468 0 2.936-.004 4.405.002.013.262-.001.532.075.786.138.29.659.286.745-.038.174-1.003.647-2.029.356-3.052-.574-.601-.499-1.555-1.067-2.14-.755-.254-1.584-.12-2.37-.181zM11.613 13.875c.831-.831 1.659-1.665 2.496-2.49-.156.358-.245.739-.339 1.117-.585.623-1.2 1.216-1.802 1.823l-.077-.296a38.487 38.487 0 0 0-.278-.154zM7.046 14.701c.39-.396.782-.789 1.178-1.178.254.005.507.008.761.011-.396.393-.789.787-1.183 1.182l-.756-.015zM8.937 14.677c.381-.387.766-.771 1.153-1.152.248.011.497.02.746.029-.398.386-.787.783-1.176 1.177l-.723-.054zM10.893 14.594l.32-.318.015.789-.316.315-.019-.786zM4.287 21.2c1.922-1.923 3.842-3.848 5.769-5.766.04.231.078.461.115.692-1.816 1.807-3.622 3.624-5.437 5.431l-.447-.357zM3.325 20.296c1.55-1.568 3.115-3.121 4.673-4.681.181.079.363.156.545.233-1.599 1.619-3.236 3.201-4.813 4.842a30.021 30.021 0 0 0-.405-.394zM5.786 15.965c.098-.094.192-.193.286-.29l.096.673c-1.119 1.126-2.247 2.243-3.365 3.37l-.346-.436c1.009-.992 1.995-2.006 3.008-2.994a.25.25 0 0 0 .321-.323z"/>
    <path fill="#171a1b" d="M18.672 2.012c.212.134.415.282.612.437-2.435 2.454-4.886 4.891-7.329 7.338-1.243 1.246-2.492 2.486-3.731 3.736-.396.389-.788.782-1.178 1.178-.325.324-.656.642-.974.974-.094.097-.188.196-.286.29a2.333 2.333 0 0 0-.321.323c-1.013.988-1.999 2.002-3.008 2.994a8.104 8.104 0 0 1-.439-.617c1.003-1.006 2.01-2.009 3.013-3.015.266-.265.532-.53.796-.796l.276-.277c.224-.221.447-.444.666-.67l.382-.376c1.608-1.609 3.22-3.213 4.822-4.827 2.238-2.226 4.464-4.464 6.699-6.692zM19.726 2.8c.202.159.395.331.573.517-2.791 2.775-5.567 5.565-8.352 8.346-.619.621-1.241 1.238-1.857 1.862-.387.381-.772.765-1.153 1.152-.313.312-.627.624-.939.938-1.558 1.56-3.123 3.113-4.673 4.681a5.71 5.71 0 0 1-.522-.578c1.118-1.127 2.246-2.244 3.365-3.37a251.42 251.42 0 0 1 1.634-1.632c.394-.395.787-.789 1.183-1.182.99-.998 1.991-1.985 2.98-2.984 2.591-2.579 5.166-5.174 7.761-7.75zM20.688 3.7c.194.173.383.355.531.571-2.154 2.154-4.311 4.305-6.462 6.462-.217.217-.437.43-.648.652-.837.825-1.665 1.659-2.496 2.49l-.4.401-.32.318c-.28.279-.559.56-.837.84-1.927 1.918-3.847 3.843-5.769 5.766a8.149 8.149 0 0 1-.557-.51c1.577-1.641 3.214-3.223 4.813-4.842l1.117-1.117c.389-.394.778-.791 1.176-1.177.382-.379.761-.762 1.14-1.144 2.91-2.898 5.807-5.808 8.712-8.71zM21.561 4.732c.157.198.309.4.441.615-1.782 1.78-3.563 3.562-5.343 5.344-1.128 1.125-2.253 2.252-3.379 3.378-.45.451-.903.898-1.348 1.354-.266.261-.53.526-.792.792-1.935 1.921-3.857 3.855-5.786 5.781a7.296 7.296 0 0 1-.62-.439c1.815-1.807 3.621-3.624 5.437-5.431.247-.249.493-.498.741-.746l.316-.315c.248-.246.494-.493.74-.74.602-.607 1.217-1.2 1.802-1.823.618-.576 1.202-1.187 1.802-1.781 1.997-1.996 3.994-3.992 5.989-5.989z"/>
    <path fill="#ccc" d="M5.048 7.702c-.033-.462.406-.807.846-.761 1.821.018 3.647-.042 5.464.029.794.171.565 1.146.615 1.734-1.602 1.614-3.214 3.218-4.822 4.827-.702-.009-1.403-.001-2.105-.023 0-1.935-.006-3.871.002-5.806zM8.224 13.523c1.239-1.25 2.488-2.49 3.731-3.736l.01.763c-.989.999-1.99 1.986-2.98 2.984a96.55 96.55 0 0 1-.761-.011zM14.109 11.385c.211-.222.431-.435.648-.652.272-.003.543-.009.815-.012-.6.594-1.184 1.205-1.802 1.781.094-.378.183-.759.339-1.117zM13.28 14.069c1.126-1.126 2.251-2.253 3.379-3.378.786.061 1.615-.073 2.37.181.568.585.493 1.539 1.067 2.14.291 1.023-.182 2.049-.356 3.052-.086.324-.607.328-.745.038-.076-.254-.062-.524-.075-.786-1.469-.006-2.937-.002-4.405-.002-.021.27-.001.552-.093.812-.176.314-.748.225-.765-.153-.08-.644-.294-1.261-.377-1.904zM10.09 13.525c.616-.624 1.238-1.241 1.857-1.862.009.249.018.498.029.747-.379.382-.758.765-1.14 1.144-.249-.009-.498-.018-.746-.029zM5.042 14.113c.031-.303.426-.216.637-.199.234.243.104.635.148.94-.264.266-.53.531-.796.796.008-.512-.034-1.026.011-1.537z"/>
    <path fill="#ced0c3" d="M6.098 13.974c.224-.026.447-.055.671-.067-.219.226-.442.449-.666.67l-.005-.603z"/>
    <path fill="#ccd1d1" d="M11.213 14.276l.4-.401.278.154.077.296c-.246.247-.492.494-.74.74l-.015-.789zM10.056 15.434c.278-.28.557-.561.837-.84l.019.786c-.248.248-.494.497-.741.746a55.427 55.427 0 0 0-.115-.692zM6.072 15.675c.318-.332.649-.65.974-.974l.756.015a251.42 251.42 0 0 0-1.634 1.632l-.096-.673zM7.998 15.615c.312-.314.626-.626.939-.938l.723.054-1.117 1.117c-.182-.077-.364-.154-.545-.233zM11.14 16.215c.262-.266.526-.531.792-.792.001.29-.008.58-.019.87-.26 0-.521-.016-.773-.078z"/>
    <path fill="#c2c2c2" d="M5.465 16.288c.096-.118.204-.226.321-.323a.25.25 0 0 1-.321.323z"/>
</svg>
