<svg xmlns="http://www.w3.org/2000/svg" width="24" height="24">
    <path d="M10.98 0h2.031c.144.026.289.049.435.063 3.149.358 6.108 2.051 8.043 4.556 1.438 1.817 2.28 4.064 2.51 6.362v2.029c-.183 1.716-.667 3.412-1.536 4.911-1.534 2.728-4.173 4.811-7.189 5.651-.736.22-1.499.322-2.257.428h-2.029c-1.74-.182-3.454-.685-4.97-1.567C3.322 20.89 1.261 18.27.426 15.275c-.219-.736-.323-1.498-.427-2.256v-2.032c.102-.761.208-1.525.427-2.263a12.053 12.053 0 0 1 5.158-6.893C7.198.788 9.075.2 10.979 0zM9.253.538a11.741 11.741 0 0 0-4.591 2.245C2.284 4.663.678 7.493.311 10.505c-.42 3.18.535 6.507 2.585 8.974 1.078-1.286 2.168-2.564 3.231-3.86.519-.588 1.012-1.2 1.519-1.798 1.097-1.308 2.198-2.613 3.291-3.925.513-.608 1.035-1.218 1.533-1.831 1.78-2.103 3.547-4.218 5.316-6.33C15.231.271 12.114-.149 9.254.538zM18.9 7.143c-.351.425-.709.844-1.061 1.268-.805.96-1.613 1.916-2.414 2.88-.509.594-1.006 1.198-1.511 1.795-.487.585-.983 1.163-1.465 1.753-.513.596-1.013 1.204-1.52 1.805l-4.715 5.62c2.664 1.53 5.941 1.919 8.899 1.104a11.747 11.747 0 0 0 4.199-2.13c2.392-1.881 4.007-4.721 4.376-7.743a11.788 11.788 0 0 0-2.583-8.973c-.74.87-1.468 1.751-2.206 2.622z"/>
    <path fill="#fff" d="M9.253.538c2.859-.687 5.977-.267 8.532 1.197-1.769 2.112-3.536 4.227-5.316 6.33-.033-.576-.005-1.153-.016-1.729-.465-.004-.93-.003-1.395-.002-.098-.008-.173.061-.244.119-.432.373-.875.734-1.31 1.103-.011.619-.006 1.239-.002 1.859.484-.39.946-.806 1.43-1.196.008.559 0 1.118.004 1.677-1.093 1.312-2.194 2.617-3.291 3.925-.012-2.495.001-4.991-.007-7.486-.469-.001-.938-.004-1.406 0-.098-.006-.168.068-.239.123-.43.372-.873.73-1.304 1.101-.01.62-.005 1.24-.002 1.86.485-.395.955-.808 1.437-1.207.002 2.469-.001 4.938.002 7.407-1.063 1.297-2.153 2.574-3.231 3.86C.845 17.012-.111 13.685.31 10.505c.367-3.012 1.973-5.842 4.351-7.722A11.734 11.734 0 0 1 9.252.538zM18.9 7.143c.738-.871 1.466-1.752 2.206-2.622a11.793 11.793 0 0 1 2.583 8.973c-.369 3.023-1.984 5.863-4.376 7.743a11.747 11.747 0 0 1-4.199 2.13c-2.958.814-6.235.426-8.899-1.104l4.715-5.62c.014.48-.001.96.008 1.44.504.006 1.009.005 1.514 0 .002-1.081.007-2.163-.002-3.245.482-.59.978-1.167 1.465-1.753.011.622-.006 1.245.009 1.868.022.725.208 1.472.665 2.05.503.619 1.244 1.077 2.054 1.113 1.235.096 2.433-.765 2.839-1.917.189-.518.238-1.074.231-1.622-.002-1.704.003-3.408-.002-5.112-.005-.835-.246-1.691-.81-2.323z"/>
    <path fill="#fff" d="M17.839 8.41c.263.359.366.807.364 1.247.002 1.656.001 3.312 0 4.967 0 .471-.087.976-.41 1.339-.485.574-1.488.57-1.968-.008-.315-.364-.399-.864-.399-1.331-.001-1.111.001-2.223-.001-3.335.8-.964 1.609-1.92 2.414-2.88z"/>
    <path fill="gray" d="M5.994 6.459c.07-.055.141-.129.239-.123.468-.004.938-.001 1.406 0 .008 2.496-.006 4.991.007 7.486-.508.598-1 1.21-1.519 1.798-.003-2.469 0-4.938-.002-7.407-.482.399-.952.811-1.437 1.207-.003-.62-.008-1.24.002-1.86.431-.371.874-.728 1.304-1.101zM10.814 6.453c.07-.057.145-.127.244-.119.465-.001.93-.002 1.395.002.012.576-.016 1.153.016 1.729-.499.614-1.02 1.223-1.533 1.831-.003-.559.004-1.118-.004-1.677-.484.39-.946.806-1.43 1.196-.003-.62-.009-1.239.002-1.859.435-.37.877-.731 1.31-1.103zM17.839 8.41c.352-.424.71-.843 1.061-1.268.564.632.805 1.488.81 2.323.006 1.704 0 3.408.002 5.112.007.548-.041 1.104-.231 1.622-.406 1.151-1.604 2.012-2.839 1.917-.81-.036-1.552-.495-2.054-1.113-.457-.578-.643-1.325-.665-2.05-.015-.623.001-1.246-.009-1.868.505-.598 1.002-1.201 1.511-1.795.002 1.111 0 2.223.001 3.335 0 .467.084.967.399 1.331.48.577 1.483.582 1.968.008.323-.363.41-.868.41-1.339 0-1.656.002-3.312 0-4.967.001-.44-.101-.888-.364-1.247zM10.93 16.643c.508-.6 1.007-1.208 1.52-1.805.009 1.081.004 2.163.002 3.245-.505.004-1.01.005-1.514 0-.01-.48.006-.96-.008-1.44z"/>
</svg>
