<svg xmlns="http://www.w3.org/2000/svg" width="24" height="24">
    <path fill="#fff" d="M11.092 0h1.846c1.755.162 3.486.664 5.013 1.552a12.078 12.078 0 0 1 5.407 6.494c.349.982.542 2.012.642 3.047v1.844c-.163 1.755-.664 3.487-1.553 5.014-1.535 2.714-4.168 4.784-7.172 5.621-.76.224-1.546.337-2.331.428h-1.881c-1.721-.157-3.415-.648-4.923-1.499-2.633-1.467-4.681-3.953-5.593-6.829-.291-.884-.448-1.804-.547-2.727v-1.884c.094-.876.237-1.75.503-2.592.835-2.747 2.7-5.16 5.139-6.673C7.276.761 9.169.164 11.092.001zm.274.596a11.34 11.34 0 0 0-5.574 1.817C3.206 4.073 1.35 6.819.781 9.84c-.627 3.184.19 6.616 2.2 9.166a11.447 11.447 0 0 0 7.424 4.306c3.22.47 6.616-.526 9.064-2.672 2.293-1.966 3.75-4.876 3.928-7.893.127-1.87-.219-3.77-.999-5.475a11.462 11.462 0 0 0-6.131-5.869 11.38 11.38 0 0 0-4.902-.807z"/>
    <path fill="#fff" d="M11.063 1.22c2.431-.221 4.931.42 6.956 1.785-1.603 1.617-3.218 3.222-4.827 4.832-.719-1.162-2.241-1.645-3.527-1.267-1.195.39-2.125 1.552-2.186 2.817.538.004 1.076.008 1.614-.002.106-.896 1.081-1.541 1.942-1.244.435.129.777.471.982.867-1.925 1.932-3.85 3.864-5.787 5.783-.01-2.747 0-5.494-.005-8.242-.497-.017-.994-.004-1.491-.008-.133-.013-.235.079-.335.151-.449.336-.91.654-1.357.993a99.76 99.76 0 0 0 .001 1.73c.519-.369 1.026-.755 1.545-1.123.012 2.707-.017 5.415.015 8.122-.522.544-1.06 1.073-1.597 1.602-1.654-2.445-2.227-5.582-1.55-8.454.65-2.886 2.557-5.455 5.121-6.927a10.737 10.737 0 0 1 4.486-1.416zM13.5 8.383c1.671-1.674 3.344-3.346 5.018-5.017l.235.172c-1.701 1.728-3.428 3.433-5.14 5.151l-.113-.306zM13.738 9.418c1.824-1.83 3.653-3.657 5.482-5.482l.216.203c-.821.825-1.646 1.646-2.468 2.47-1.131 1.01-2.111 2.171-3.215 3.211l-.015-.402zM17.976 6.452c.626-.632 1.256-1.26 1.887-1.888.068.071.135.144.201.218-.561.557-1.11 1.13-1.684 1.672-.135.001-.27-.006-.404-.003zM20.45 5.247c.065.075.128.154.186.236-.395.397-.79.794-1.188 1.187-.1-.038-.199-.077-.297-.117.429-.44.87-.867 1.3-1.306zM20.012 6.963c.325-.329.648-.66.983-.979 1.654 2.444 2.225 5.581 1.548 8.453a10.816 10.816 0 0 1-12.98 8.105 10.723 10.723 0 0 1-3.577-1.547c1.181-1.2 2.376-2.387 3.57-3.574 1.423.468 3.147-.122 3.889-1.446a3.534 3.534 0 0 0 .266-2.714c.474-.477.949-.954 1.428-1.427.013.899-.001 1.799.007 2.698.015.695.21 1.411.675 1.944.603.681 1.499 1.102 2.412 1.098.943.022 1.875-.409 2.493-1.116.488-.567.669-1.334.662-2.068-.005-1.671.01-3.343-.007-5.014-.017-.97-.521-1.923-1.37-2.414zM17.527 8.221c.151-.053.306-.106.468-.099-.383.388-.766.775-1.157 1.155-.001-.181.066-.351.135-.516a2.49 2.49 0 0 1 .554-.54z"/>
    <path fill="#fff" d="M16.768 10.211c.681-.693 1.368-1.38 2.06-2.061.571.223.93.808.93 1.413.016 1.546.002 3.093.008 4.64.004.421-.053.871-.319 1.214-.46.611-1.406.697-2.033.308-.446-.282-.64-.827-.638-1.335-.008-1.393.006-2.786-.007-4.178zM15.128 9.295c.014.135.02.27.02.405-.768.769-1.536 1.538-2.305 2.305a35.422 35.422 0 0 0-.242-.169c.444-.347.774-.809 1.182-1.194.449-.449.899-.897 1.346-1.347zM10.788 11.098c.429-.435.86-.869 1.297-1.296a1.25 1.25 0 0 1-.083.468 4.372 4.372 0 0 1-.744.733c-.153.048-.31.087-.47.095zM15.131 10.572c.009.131.014.263.018.395-.564.571-1.135 1.136-1.702 1.705l-.182-.232c.615-.629 1.241-1.248 1.865-1.868zM6.222 15.66c1.216-1.221 2.438-2.436 3.653-3.657.017.126.029.253.037.38-1.217 1.234-2.447 2.447-3.67 3.672a4.003 4.003 0 0 1-.02-.395zM8.448 14.703c.717-.71 1.425-1.43 2.145-2.139.121.015.242.033.361.058-.713.699-1.402 1.432-2.131 2.109a6.754 6.754 0 0 1-.375-.028zM11.557 12.868c.078.062.156.126.233.19-.784.787-1.572 1.568-2.354 2.357a1.067 1.067 0 0 1-.182-.246c.77-.765 1.535-1.534 2.303-2.301zM9.881 15.827c.743-.759 1.499-1.507 2.252-2.257.027.113.051.228.074.343l-2 2a13.135 13.135 0 0 1-.327-.086zM11.13 15.851c.333-.347.67-.691 1.022-1.018-.12.487-.533.907-1.022 1.018zM6.224 16.928c.461-.461.922-.921 1.382-1.383.045.093.091.186.139.278-.492.51-1.001 1.002-1.498 1.507a2.715 2.715 0 0 1-.022-.403zM8.044 16.379c.07.071.139.144.208.216-1.156 1.157-2.311 2.315-3.47 3.468a8.352 8.352 0 0 1-.217-.202c1.158-1.163 2.322-2.319 3.479-3.482zM5.248 20.449c1.157-1.149 2.304-2.308 3.462-3.456l.253.163a1902.42 1902.42 0 0 1-3.48 3.479 3.252 3.252 0 0 1-.235-.186zM3.366 18.518c.397-.406.806-.8 1.2-1.208l.039.185c.063.005.126.009.188.015-.414.414-.83.827-1.242 1.244a2.997 2.997 0 0 1-.186-.235zM5.671 17.498c.132 0 .264.006.396.011-.644.64-1.283 1.286-1.928 1.925a8.352 8.352 0 0 1-.202-.217c.578-.572 1.141-1.165 1.734-1.719z"/>
    <path d="M11.366.596c1.666-.097 3.354.18 4.902.807a11.466 11.466 0 0 1 6.131 5.869 11.37 11.37 0 0 1 .999 5.475c-.179 3.017-1.635 5.927-3.928 7.893-2.448 2.146-5.844 3.143-9.064 2.672a11.434 11.434 0 0 1-7.424-4.306C.972 16.456.155 13.024.782 9.84c.569-3.021 2.425-5.767 5.011-7.427A11.34 11.34 0 0 1 11.367.596zm-.303.624c-1.575.133-3.12.62-4.486 1.416-2.564 1.472-4.471 4.041-5.121 6.927-.677 2.872-.104 6.01 1.55 8.454.537-.529 1.075-1.058 1.597-1.602a71.05 71.05 0 0 0 1.625-1.623c1.937-1.919 3.862-3.852 5.787-5.783.397-.385.785-.78 1.176-1.172 1.61-1.61 3.225-3.215 4.827-4.832a10.806 10.806 0 0 0-6.956-1.785zM13.5 8.383c-.472.472-.952.943-1.415 1.419-.437.428-.868.861-1.297 1.296h-.009c-.298.305-.601.605-.904.905-1.215 1.222-2.437 2.437-3.653 3.657-.554.547-1.099 1.105-1.656 1.649-.395.408-.803.802-1.2 1.208.058.082.12.16.186.235.412-.417.828-.83 1.242-1.244.483-.481.96-.968 1.449-1.443l-.001-.011c1.223-1.225 2.453-2.438 3.67-3.672.448-.459.941-.885 1.346-1.38a4.41 4.41 0 0 0 .744-.733c.565-.495 1.071-1.058 1.611-1.582 1.712-1.718 3.439-3.423 5.14-5.151a12.824 12.824 0 0 1-.235-.172A4747.007 4747.007 0 0 0 13.5 8.381zm.238 1.035a717.573 717.573 0 0 0-3.145 3.146c-.72.709-1.428 1.429-2.145 2.139-.28.282-.561.563-.842.843-.459.462-.921.922-1.382 1.383-.182.191-.385.364-.552.57-.593.555-1.156 1.147-1.734 1.719.066.074.134.146.202.217.645-.639 1.284-1.285 1.928-1.925.061-.058.121-.117.179-.179.497-.505 1.006-.997 1.498-1.507.363-.36.74-.71 1.079-1.093.729-.678 1.418-1.41 2.131-2.109.934-.928 1.856-1.869 2.799-2.789V9.82c1.104-1.04 2.085-2.202 3.215-3.211.822-.824 1.647-1.645 2.468-2.47l-.216-.203a2833.362 2833.362 0 0 0-5.482 5.482zm4.238-2.966c-.952.944-1.896 1.897-2.847 2.843-.447.45-.897.898-1.346 1.347-.407.385-.738.847-1.182 1.194-.359.332-.694.69-1.044 1.032-.768.766-1.533 1.536-2.303 2.301-.401.405-.805.808-1.21 1.21-1.157 1.163-2.321 2.319-3.479 3.482.072.068.144.136.218.202 1.159-1.154 2.314-2.311 3.47-3.468.397-.391.787-.789 1.184-1.18.782-.788 1.57-1.57 2.354-2.357.352-.351.703-.701 1.053-1.053.769-.767 1.537-1.536 2.305-2.305 1.076-1.083 2.169-2.15 3.232-3.245.574-.543 1.123-1.115 1.684-1.672a8.365 8.365 0 0 0-.201-.218c-.63.628-1.261 1.256-1.887 1.888zm2.474-1.205c-.43.439-.871.867-1.3 1.306l-.008-.003c-.524.57-1.133 1.071-1.616 1.671a2.533 2.533 0 0 0-.554.54c-.647.563-1.218 1.213-1.842 1.802v.009c-.624.62-1.25 1.239-1.865 1.868-.384.37-.759.75-1.133 1.13-.754.749-1.509 1.497-2.252 2.257-.398.381-.784.775-1.171 1.167-1.158 1.148-2.304 2.307-3.462 3.456.075.065.154.127.235.186a1902.42 1902.42 0 0 0 3.48-3.479c.417-.413.829-.83 1.245-1.243.666-.668 1.333-1.333 2-2l1.241-1.241c.566-.569 1.137-1.133 1.702-1.705.563-.561 1.136-1.125 1.688-1.691.391-.38.774-.767 1.157-1.155h.011c.474-.49.965-.964 1.441-1.451.398-.393.794-.79 1.188-1.187a2.837 2.837 0 0 0-.186-.236zm-.438 1.716c-.398.393-.796.785-1.184 1.187-.692.681-1.38 1.368-2.06 2.061-.549.534-1.088 1.08-1.628 1.624-.479.473-.954.95-1.428 1.427-.519.524-1.056 1.037-1.56 1.571-.352.327-.689.671-1.022 1.018l-.023.005c-.508.53-1.041 1.036-1.551 1.565-1.194 1.187-2.389 2.374-3.57 3.574a10.702 10.702 0 0 0 3.577 1.547 10.82 10.82 0 0 0 7.86-1.177c2.563-1.474 4.47-4.042 5.12-6.928.677-2.871.105-6.009-1.548-8.452-.335.319-.658.65-.983.979z"/>
    <path fill="gray" d="M15.128 9.295c.951-.945 1.895-1.898 2.847-2.843.135-.003.269.004.404.003-1.063 1.095-2.156 2.162-3.232 3.245 0-.135-.006-.27-.02-.405zM9.664 6.57c1.286-.379 2.809.105 3.527 1.267-.39.393-.779.787-1.176 1.172-.205-.397-.547-.738-.982-.867-.861-.298-1.836.348-1.942 1.244-.538.009-1.076.006-1.614.002.061-1.265.991-2.427 2.186-2.817zM19.142 6.55l.008.003c.098.04.197.079.297.117-.477.487-.968.961-1.441 1.451h-.011c-.162-.007-.317.046-.468.099.482-.6 1.092-1.101 1.616-1.671zM4.398 6.694c.1-.072.202-.164.335-.151.496.004.994-.009 1.491.008.004 2.747-.006 5.495.005 8.242a71.05 71.05 0 0 1-1.625 1.623c-.031-2.707-.002-5.415-.015-8.122-.52.368-1.027.754-1.545 1.123a90.7 90.7 0 0 1-.001-1.73c.447-.339.908-.657 1.357-.993zM18.828 8.15c.388-.402.787-.794 1.184-1.187.848.491 1.352 1.444 1.37 2.414.017 1.671.002 3.343.007 5.014.008.734-.174 1.501-.662 2.068-.618.707-1.55 1.138-2.493 1.116a3.258 3.258 0 0 1-2.412-1.098c-.465-.533-.66-1.249-.675-1.944-.008-.899.006-1.799-.007-2.698.54-.543 1.079-1.089 1.628-1.624.013 1.393-.001 2.786.007 4.178-.001.509.193 1.053.638 1.335.628.389 1.574.303 2.033-.308.267-.343.323-.793.319-1.214-.006-1.547.008-3.094-.008-4.64 0-.605-.359-1.19-.93-1.413zM12.085 9.802c.463-.476.944-.947 1.415-1.419l.113.306c-.54.523-1.046 1.086-1.611 1.582a1.25 1.25 0 0 0 .083-.468zM15.131 10.563c.624-.589 1.195-1.239 1.842-1.802-.069.165-.137.334-.135.516-.552.566-1.125 1.13-1.688 1.691a10.34 10.34 0 0 0-.018-.395v-.009zM10.593 12.564c1.044-1.052 2.094-2.1 3.145-3.146l.015.402v.013c-.943.919-1.865 1.86-2.799 2.789a4.929 4.929 0 0 0-.361-.058zM10.788 11.098c.16-.008.317-.046.47-.095-.405.495-.898.921-1.346 1.38a5.368 5.368 0 0 0-.037-.38c.303-.3.606-.6.904-.905h.009zM11.557 12.868c.35-.342.685-.7 1.044-1.032l.242.169c-.35.352-.701.703-1.053 1.053a13.809 13.809 0 0 0-.233-.19zM12.133 13.57c.374-.381.749-.76 1.133-1.13l.182.232-1.241 1.241a9.96 9.96 0 0 0-.074-.343zM12.152 14.833c.503-.534 1.041-1.048 1.56-1.571a3.535 3.535 0 0 1-.266 2.714c-.742 1.324-2.467 1.914-3.889 1.446.51-.529 1.043-1.035 1.551-1.565l.023-.005a1.419 1.419 0 0 0 1.022-1.018zM7.605 15.546c.281-.28.563-.561.842-.843.125.012.25.023.375.028-.338.383-.715.733-1.079 1.093a10.287 10.287 0 0 1-.139-.278zM8.044 16.379c.405-.402.809-.805 1.21-1.21.049.09.11.173.182.246-.398.391-.788.789-1.184 1.18-.069-.072-.138-.145-.208-.216zM4.566 17.31c.557-.544 1.102-1.102 1.656-1.649.001.132.006.263.02.395l.001.011c-.489.474-.966.962-1.449 1.443l-.188-.015-.039-.185zM8.709 16.994c.388-.391.773-.786 1.171-1.167.108.03.217.059.327.086-.416.413-.828.831-1.245 1.243l-.253-.163zM5.671 17.498c.167-.206.37-.379.552-.57-.002.135.005.269.022.403-.058.061-.118.12-.179.179-.132-.005-.264-.011-.396-.011z"/>
</svg>
