<svg xmlns="http://www.w3.org/2000/svg" width="24" height="24">
    <path opacity=".22" d="M2.5 0h.254c.056.144-.109.31-.254.257V0zM21.413 0h.287v.261c-.165.06-.251-.136-.287-.261z"/>
    <path d="M2.754 0h18.659c.036.125.122.321.287.261V23.72c-.114.059-.255.133-.259.28H2.787a.618.618 0 0 0-.287-.282V.257c.145.053.31-.113.254-.257zm.071.205c-.181.095-.158.319-.168.491.005 7.57-.002 15.139.004 22.708a.372.372 0 0 0 .435.435c6.003.002 12.006.002 18.008 0a.373.373 0 0 0 .435-.435c.003-7.602.003-15.205 0-22.808a.372.372 0 0 0-.435-.435C15.135.157 9.165.163 3.196.158a1.133 1.133 0 0 0-.371.047z"/>
    <path d="M9.086 7.298c.043-.594 1.03-.604 1.19-.073.133.346-.051.695-.152 1.022.294.16.665.182.92.401.284.481.614.948.811 1.474-.126.48-.439.888-.701 1.302.092.3.217.589.334.88l-.349.03c.107 1.121.37 2.227.796 3.271l-.252.186c.317.04.669.077.876.355-.345.124-.719.204-1.078.091a10.25 10.25 0 0 1-.455.099c-.482-1.046-.426-2.247-.873-3.311a12.85 12.85 0 0 0-.153 3.14l-.259.115.111.36c-.42.188-.859.305-1.323.241-.007-.352.362-.427.605-.572a82.21 82.21 0 0 0-.33-.142c.242-1.255.104-2.54.254-3.803l-.257-.12c.01-.255.02-.511.034-.766-.421-.415-.97-.744-1.238-1.285.379-.794.832-1.743 1.817-1.862-.158-.326-.423-.644-.328-1.033zm1.584 2.214c.059.301.133.599.217.893l.246-.397a16.662 16.662 0 0 0-.463-.496zm-2.227.591c.12.145.245.287.373.425.026-.286.041-.573.042-.861-.141.143-.279.289-.415.436zM13.828 8.123c.291-.41 1.01-.299 1.192.159.098.261.142.538.202.81l-.214.231c.86.119 1.153 1.059 1.24 1.798-.06.394-.254.753-.378 1.129.21.206.416.416.616.632-.164.165-.295.357-.331.592-.357.112-.719.213-1.078.321.363.301.411.77.334 1.209-.092.537.479.94.307 1.478a.723.723 0 0 1-.606-.686c-.021-.7-.616-1.231-.598-1.935l-.19-.084c.337.673-.171 1.433.196 2.096.253.425-.257 1.128-.724 1.045-.182-.419.324-.811.127-1.23-.226-.645-.323-1.32-.417-1.993l-.543-.202c.118-.501.299-.983.466-1.469-.254-.341-.504-.686-.754-1.03.132-.691.372-1.555 1.21-1.624-.324-.331-.319-.881-.057-1.247zm1.444 2.242c-.033.412 0 .835.173 1.216.232-.409.108-.87-.173-1.216zm-1.728.94c.053-.278.078-.561.067-.844-.137.259-.392.611-.067.844z"/>
    <path fill="#fff" d="M2.825.205c.121-.036.244-.052.371-.047C9.165.163 15.135.157 21.104.161a.372.372 0 0 1 .435.435c.003 7.603.003 15.206 0 22.808a.373.373 0 0 1-.435.435c-6.002.002-12.005.002-18.008 0a.372.372 0 0 1-.435-.435c-.006-7.569.001-15.138-.004-22.708.01-.172-.013-.396.168-.491zm.429.543c-.002 7.499-.002 14.998.001 22.497 5.897.003 11.793.003 17.69 0 .003-7.499.003-14.998.001-22.497C15.049.745 9.151.745 3.254.748z"/>
    <path fill="#fff" d="M7.007 6.388c3.393-.002 6.787-.002 10.18 0 .002 3.739.002 7.478 0 11.217-3.393.003-6.787.002-10.18 0-.002-3.739-.002-7.478 0-11.217zm2.079.91c-.095.389.17.707.328 1.033-.985.119-1.438 1.068-1.817 1.862.268.541.817.87 1.238 1.285-.014.255-.024.511-.034.766l.257.12c-.15 1.263-.012 2.548-.254 3.803l.33.142c-.243.145-.612.22-.605.572.464.064.903-.053 1.323-.241l-.111-.36.259-.115a12.85 12.85 0 0 1 .153-3.14c.447 1.064.391 2.265.873 3.311.152-.03.304-.062.455-.099.359.113.733.033 1.078-.091-.207-.278-.559-.315-.876-.355l.252-.186a11.573 11.573 0 0 1-.796-3.271l.349-.03c-.117-.291-.242-.58-.334-.88.262-.414.575-.822.701-1.302-.197-.526-.527-.993-.811-1.474-.255-.219-.626-.241-.92-.401.101-.327.285-.676.152-1.022-.16-.531-1.147-.521-1.19.073zm4.742.825c-.262.366-.267.916.057 1.247-.838.069-1.078.933-1.21 1.624.25.344.5.689.754 1.03-.167.486-.348.968-.466 1.469l.543.202c.094.673.191 1.348.417 1.993.197.419-.309.811-.127 1.23.467.083.977-.62.724-1.045-.367-.663.141-1.423-.196-2.096l.19.084c-.018.704.577 1.235.598 1.935a.723.723 0 0 0 .606.686c.172-.538-.399-.941-.307-1.478.077-.439.029-.908-.334-1.209.359-.108.721-.209 1.078-.321.036-.235.167-.427.331-.592-.2-.216-.406-.426-.616-.632.124-.376.318-.735.378-1.129-.087-.739-.38-1.679-1.24-1.798l.214-.231c-.06-.272-.104-.549-.202-.81-.182-.458-.901-.569-1.192-.159z"/>
    <path fill="#fff" d="M10.67 9.512c.158.162.312.328.463.496l-.246.397a10.855 10.855 0 0 1-.217-.893zM15.272 10.365c.281.346.405.807.173 1.216-.173-.381-.206-.804-.173-1.216zM13.544 11.305c-.325-.233-.07-.585.067-.844.011.283-.014.566-.067.844z"/>
    <path fill="#176fc1" d="M3.254.748c5.897-.003 11.795-.003 17.692 0 .002 7.499.002 14.998-.001 22.497-5.897.003-11.793.003-17.69 0-.003-7.499-.003-14.998-.001-22.497zm3.753 5.64c-.002 3.739-.002 7.478 0 11.217 3.393.002 6.787.003 10.18 0 .002-3.739.002-7.478 0-11.217-3.393-.002-6.787-.002-10.18 0z"/>
    <path fill="#f2f2f2" d="M8.443 10.103c.136-.147.274-.293.415-.436a9.886 9.886 0 0 1-.042.861c-.128-.138-.253-.28-.373-.425z"/>
    <path opacity=".14" d="M2.5 23.718a.618.618 0 0 1 .287.282H2.5v-.282zM21.441 24c.004-.147.145-.221.259-.28V24h-.259z"/>
</svg>
