<svg xmlns="http://www.w3.org/2000/svg" width="24" height="24">
    <path fill="#dbdbdb" opacity=".86" d="M1.318 2.4h.143l-.174.064.03-.064z"/>
    <path fill="#231f20" d="M1.462 2.4h21.31l.174.064c.446.179.863.449 1.135.854v17.673c-.18.21-.37.414-.568.609h-.634c.623-.193 1.122-.769 1.124-1.434-.002-5.337-.002-10.674-.001-16.01-.009-.674-.51-1.345-1.194-1.45-.422-.098-.858-.061-1.286-.065-6.535.001-13.07-.001-19.605.001-.818-.021-1.626.59-1.674 1.435C.241 9.439.238 14.801.245 20.163c.001.674.498 1.213 1.104 1.438H.731c-.333-.302-.561-.698-.73-1.11V3.714a.201.201 0 0 0 .014-.025c.25-.562.686-1.022 1.274-1.225l.174-.064z"/>
    <path fill="#231f20" d="M1.707 2.909c.255-.043.515-.029.773-.03 6.615.006 13.23-.006 19.846.006.727-.03 1.41.527 1.434 1.271.002 5.309-.002 10.618.002 15.927.022.599-.458 1.154-1.032 1.273-7.018.009-14.036.002-21.054.003C.972 21.357.48 20.66.479 20.002.485 14.747.476 9.491.483 4.235c.003-.663.55-1.297 1.225-1.326zM1.2 4.316v15.691c-.007.2.114.37.182.55.325.128.678.076 1.018.083 6.696 0 13.391-.001 20.087.001a.51.51 0 0 0 .554-.554c-.002-5.285-.002-10.57 0-15.854.026-.222-.135-.394-.258-.557-7.038.011-14.075-.002-21.112.006-.342-.006-.474.344-.47.634z"/>
    <path fill="#231f20" d="M2.24 5.68c.257 0 .514 0 .772-.002.291.23.384.605.35.962-.038.509.133 1.113-.259 1.525a35.468 35.468 0 0 0-.863-.005V5.68zm.403.373a83.523 83.523 0 0 0 0 1.734c.11-.028.233-.036.308-.133.022-.466.01-.933.006-1.398.008-.162-.201-.172-.314-.203zM3.76 5.68h.96v.4h-.56v.559l.4.002v.398l-.4.002v.719h.64v.4H3.76V5.68zM5.299 5.669c.236.002.474.018.699.094.039.16.075.321.106.483-.19-.013-.447.057-.492-.203-.35.407-.269 1.045-.176 1.546-.01.151.116.23.23.297.007-.122.014-.245.019-.366h.394v.442c-.094.094-.188.19-.281.286-.27.011-.682-.016-.709-.364-.141-.723-.234-1.581.209-2.215zM6.748 5.678c.171.001.343 0 .515-.002.497.566.361 1.4.265 2.082-.018.446-.601.644-.907.34-.338-.472-.191-1.081-.222-1.622a.957.957 0 0 1 .35-.799zm.051.796c.035.474-.127 1.013.202 1.414.306-.508.235-1.15.091-1.7-.161-.306-.323.11-.294.286zM7.92 5.682l.399-.007c.126.342.247.686.397 1.018.011-.338.002-.676.004-1.014h.32v2.478l-.319.009c-.17-.382-.238-.799-.39-1.188-.025.394-.007.788-.011 1.182h-.4V5.682zM9.28 5.68h1.04v.398l-.32.003v2.078h-.4V6.081l-.32-.003V5.68zM10.89 5.678l.371.002c.147.83.346 1.65.514 2.476l-.408.008c-.081-.277-.043-.743-.466-.66-.034.22-.085.437-.119.657l-.4-.003c.163-.828.309-1.661.508-2.48zm.163 1.236c-.174.298.29.082 0 0zM12 5.68h.374c.065.242.113.506.294.693.073-.233.149-.465.23-.694l.382.002V8.16h-.4c-.002-.366.009-.734-.006-1.099-.082.224-.169.447-.261.668-.066-.198-.128-.396-.202-.59-.022.34-.009.681-.01 1.022h-.4v-2.48zM13.68 5.68h.4v2.48h-.4V5.68zM14.56 5.68h.374c.094.346.204.687.339 1.019.015-.339.005-.679.006-1.019h.4v2.479l-.379.002c-.147-.39-.257-.794-.414-1.181-.018.393-.004.786-.007 1.179h-.32v-2.48zM16.41 5.678l.371.002c.162.83.314 1.664.506 2.487-.47.14-.519-.309-.574-.651l-.294.004c-.034.214-.083.426-.117.64l-.398-.001c.115-.837.31-1.661.506-2.482zm.185 1.221c-.302.266.24.24 0 0zM17.36 5.68h.96v.398l-.32.003v2.078h-.4V6.083l-.241-.008.001-.396zM18.56 5.68h.4v2.48h-.4V5.68zM19.541 5.764c.323-.166.886-.118.905.335.106.702.265 1.604-.314 2.142l-.424.001a1.007 1.007 0 0 1-.35-.881c.037-.535-.114-1.114.183-1.598zm.328.316c-.208.393-.073.858-.111 1.282.007.158-.002.498.216.479.246-.558.217-1.202-.001-1.762l-.104.001zM20.88 5.681l.377-.002c.103.289.216.574.34.855.009-.285.003-.57.003-.854h.4v2.478c-.107.002-.214.006-.319.009-.146-.363-.246-.743-.394-1.106-.018.366-.005.733-.007 1.099h-.4V5.681zM5.678 11.439c.006-.529.187-1.262.807-1.348.574-.156 1.07.4 1.056.946l-.576.003-.007-.21a17.655 17.655 0 0 1-.196-.191l-.244-.001-.268.273c-.081.68-.234 1.54.341 2.052l.172-.004.198-.195v-.285l.573.001c.02.377-.138.723-.438.949a1.549 1.549 0 0 1-.819.001c-.667-.418-.604-1.306-.598-1.991zM8.08 10.16h1.6v.48H8.64v.72h.64v.56h-.64v.96h1.12v.56H8.08v-3.28zM10.24 10.162l.557-.005c.266.581.518 1.169.798 1.743.014-.58.002-1.16.006-1.74h.48v3.28h-.366c-.327-.622-.56-1.288-.912-1.897-.006.632.001 1.265-.002 1.897h-.56v-3.278zM12.48 10.16h1.68v.48h-.56v2.8h-.56v-2.8h-.56v-.48zM14.56 10.16h1.52v.48h-1.04v.72h.72v.56h-.72v.96h1.2v.56h-1.68v-3.28zM16.72 10.16c.427.008.856-.018 1.282.01.746.216.754 1.346.141 1.725.16.51.339 1.017.44 1.542-.187.003-.374.004-.562.004a17.662 17.662 0 0 0-.44-1.522l-.302.002v1.519h-.56v-3.28zm.56.473v.726l.624.002.196-.327c-.124-.346-.486-.442-.82-.401zM11.766 15.15c.119-.185.394-.134.554-.03.894.577 1.753 1.203 2.639 1.79v.098c-.84.587-1.72 1.118-2.542 1.731-.178.136-.498.247-.651.03-.062-.383.143-.734.254-1.088-.914-.004-1.826-.001-2.74-.002v-1.52c.906 0 1.812-.001 2.718.001-.115-.325-.292-.655-.232-1.01z"/>
    <path fill="#fff" d="M22.771 2.4h.144l.03.064a33.19 33.19 0 0 0-.174-.064zM.242 4.076c.048-.845.856-1.456 1.674-1.435 6.534-.002 13.07 0 19.605-.001.429.004.865-.034 1.286.065.684.106 1.186.777 1.194 1.45-.002 5.337-.002 10.674.001 16.01-.002.666-.501 1.242-1.124 1.434H1.348c-.606-.226-1.103-.765-1.104-1.438C.238 14.799.241 9.437.242 4.075zm1.465-1.167c-.675.03-1.222.663-1.225 1.326C.475 9.491.484 14.747.478 20.002c.001.658.493 1.355 1.197 1.357 7.018-.001 14.037.006 21.054-.003.574-.119 1.054-.674 1.032-1.273-.004-5.309 0-10.618-.002-15.927-.024-.744-.707-1.301-1.434-1.271-6.615-.012-13.23 0-19.846-.006-.258.002-.518-.013-.773.03zM0 3.699l.014-.01L0 3.714V3.7z"/>
    <path fill="#fff" d="M1.2 4.316c-.004-.29.129-.64.47-.634 7.037-.009 14.074.005 21.112-.006.123.163.285.334.258.557-.002 5.285-.002 10.57 0 15.854a.51.51 0 0 1-.554.554c-6.696-.002-13.391-.001-20.087-.001-.34-.007-.694.045-1.018-.083-.068-.18-.189-.35-.182-.55V4.316zM2.24 5.68v2.48c.288-.001.575-.002.863.005.392-.412.221-1.016.259-1.525.034-.358-.059-.733-.35-.962-.258.002-.515.002-.772.002zm1.52 0v2.48H4.8v-.4h-.64v-.719l.4-.002v-.398l-.4-.002V6.08h.56v-.4h-.96zm1.539-.011c-.443.634-.35 1.492-.209 2.215.027.348.439.375.709.364.093-.097.186-.192.281-.286V7.52h-.394l-.019.366c-.114-.066-.24-.146-.23-.297-.093-.502-.174-1.139.176-1.546.045.26.302.19.492.203a7.996 7.996 0 0 0-.106-.483 2.206 2.206 0 0 0-.699-.094zm1.449.009a.964.964 0 0 0-.35.799c.031.541-.115 1.15.222 1.622.306.304.89.106.907-.34.096-.682.232-1.516-.265-2.082-.172.002-.344.002-.515.002zm1.172.004V8.16h.4c.004-.394-.014-.788.011-1.182.152.389.219.806.39 1.188l.319-.009V5.679h-.32c-.002.338.007.676-.004 1.014-.15-.333-.271-.677-.397-1.018l-.399.007zm1.36-.002v.398l.32.003v2.078h.4V6.081l.32-.003V5.68H9.28zm1.61-.002c-.199.819-.345 1.652-.508 2.48l.4.003c.034-.22.085-.437.119-.657.423-.083.386.383.466.66l.408-.008c-.169-.826-.367-1.646-.514-2.476l-.371-.002zM12 5.68v2.48h.4c.002-.341-.011-.682.01-1.022.074.194.137.393.202.59.092-.221.178-.444.261-.668.015.366.004.733.006 1.099h.4V5.68l-.382-.002c-.081.23-.157.462-.23.694-.182-.187-.23-.45-.294-.693h-.374zm1.68 0v2.48h.4V5.68h-.4zm.88 0v2.48h.32c.003-.393-.01-.786.007-1.179.157.386.266.79.414 1.181l.379-.002V5.681h-.4c-.002.34.009.68-.006 1.019a8.754 8.754 0 0 1-.339-1.019h-.374zm1.85-.002c-.196.821-.39 1.645-.506 2.482l.398.001c.034-.214.082-.426.117-.64l.294-.004c.055.342.104.791.574.651-.192-.823-.344-1.657-.506-2.487a46.131 46.131 0 0 0-.371-.002zm.95.002l-.001.396.241.008V8.16h.4V6.082l.32-.003v-.398h-.96zm1.2 0v2.48h.4V5.68h-.4zm.981.084c-.297.483-.146 1.062-.183 1.598-.03.333.088.667.35.881l.424-.001c.578-.538.42-1.44.314-2.142-.019-.454-.582-.501-.905-.335zm1.339-.083V8.16h.4c.002-.366-.01-.734.007-1.099.148.362.247.742.394 1.106L22 8.158V5.68h-.4c0 .285.006.57-.003.854a12.564 12.564 0 0 1-.34-.855l-.377.002zM5.678 11.439c-.006.686-.069 1.573.598 1.991.271.074.547.072.819-.001.301-.226.458-.572.438-.949l-.573-.001v.285l-.198.195-.172.004c-.575-.512-.422-1.372-.341-2.052l.268-.273.244.001.196.191.007.21.576-.003c.014-.546-.482-1.102-1.056-.946-.62.086-.801.819-.807 1.348zM8.08 10.16v3.28h1.68v-.56H8.64v-.96h.64v-.56h-.64v-.72h1.04v-.48h-1.6zm2.16.002v3.278h.56c.002-.632-.004-1.265.002-1.897.352.609.585 1.275.912 1.897h.366v-3.28h-.48c-.004.58.008 1.16-.006 1.74-.279-.574-.532-1.162-.798-1.743l-.557.005zm2.24-.002v.48h.56v2.8h.56v-2.8h.56v-.48h-1.68zm2.08 0v3.28h1.68v-.56h-1.2v-.96h.72v-.56h-.72v-.72h1.04v-.48h-1.52zm2.16 0v3.28h.56v-1.519l.302-.002c.175.498.31 1.01.44 1.522.187 0 .374-.001.562-.004-.101-.526-.28-1.032-.44-1.542.614-.379.605-1.509-.141-1.725-.426-.027-.855-.002-1.282-.01zm-4.954 4.99c-.06.355.117.686.232 1.01-.906-.002-1.812-.001-2.718-.001v1.52c.914.001 1.826-.002 2.74.002-.111.354-.316.705-.254 1.088.154.218.474.106.651-.03.822-.613 1.702-1.144 2.542-1.731v-.098c-.886-.587-1.746-1.214-2.639-1.79-.16-.104-.434-.155-.554.03z"/>
    <path fill="#fff" d="M2.643 6.053c.114.031.322.042.314.203.003.466.015.933-.006 1.398-.075.097-.198.105-.308.133a83.523 83.523 0 0 1 0-1.734zM6.799 6.474c-.03-.176.133-.591.294-.286.144.55.215 1.192-.091 1.7-.33-.402-.167-.941-.202-1.414zM19.869 6.08l.104-.001c.218.56.247 1.204.001 1.762-.218.018-.209-.322-.216-.479.038-.425-.097-.89.111-1.282zM11.053 6.914c.29.082-.174.298 0 0zM16.595 6.899c.24.24-.302.266 0 0zM17.28 10.633c.334-.042.696.054.82.401l-.196.327-.624-.002v-.726z"/>
</svg>
