<svg xmlns="http://www.w3.org/2000/svg" width="24" height="24">
    <path fill="#e20a16" d="M11.095 0h1.529c4.523.226 8.768 3.187 10.463 7.397.497 1.134.725 2.354.913 3.571v2.114c-.424 4.067-2.942 7.872-6.647 9.66-1.314.695-2.778 1.018-4.232 1.258h-2.207c-4.004-.433-7.758-2.879-9.575-6.502C.547 15.992.139 14.314 0 12.626v-1.241C.233 6.641 3.497 2.222 8.004.688c.997-.361 2.048-.52 3.091-.689zm-.655 2.132c-3.596.526-6.758 3.197-7.898 6.644a10.05 10.05 0 0 0 .342 7.327c1.072-.602 2.132-1.22 3.193-1.841a67.29 67.29 0 0 0 1.451-.836l.406-.233c.882-.518 1.788-1.001 2.652-1.549a47.234 47.234 0 0 0 2.714-1.573c.283-.097.526-.282.773-.448a33.18 33.18 0 0 0 2.519-1.456l.12-.017c1.116-.7 2.282-1.319 3.412-1.997-2.141-3.017-6.032-4.643-9.683-4.022zm7.668 7.523c-.265.103-.5.268-.722.442a6.586 6.586 0 0 0-.139.017 4.09 4.09 0 0 1-.295.197c-.761.438-1.537.853-2.273 1.332a68.146 68.146 0 0 0-3.719 2.156c-2.382 1.294-4.711 2.704-7.068 4.05 2.047 2.876 5.686 4.52 9.199 4.099 3.785-.37 7.189-3.112 8.382-6.719a10.042 10.042 0 0 0-.346-7.331c-1.009.581-2.028 1.146-3.019 1.757z"/>
    <path fill="#fff" d="M10.44 2.132c3.65-.62 7.542 1.006 9.683 4.022-1.129.678-2.296 1.297-3.412 1.997-.197-.574-.403-1.145-.608-1.716.696-.382.83-1.34.439-1.984-.476-.569-1.312-.446-1.97-.402.005 1.387-.004 2.773.005 4.159l.587-.002c.002-.587.001-1.172.004-1.758l.306-.002c.212.592.418 1.187.628 1.78.163-.018.326-.037.491-.058a33.18 33.18 0 0 1-2.519 1.456c-.995.184-1.928-.284-2.918-.178-.367.006-.696.226-1.068.198-1.805-.01-3.608-.001-5.413-.006-.436-.006-.863.085-1.28.198l.16.368c-.559 1.103-.697 2.4-.342 3.587l2.234.001c-.012-1.336 1.895-1.78 2.489-.599l-.406.233c-.257-.37-.756-.629-1.177-.356-.437.234-.457.786-.274 1.193a229.6 229.6 0 0 1-3.193 1.841 10.051 10.051 0 0 1-.342-7.327c1.14-3.448 4.302-6.119 7.898-6.644zM7.207 4.057l.001.59c.236.002.474-.001.71.002.004 1.189-.001 2.377.002 3.566l.59-.001c.004-1.188-.002-2.376.002-3.565.236-.002.474 0 .71-.004v-.589c-.672-.002-1.344-.002-2.017 0zm2.904.051c-.409.168-.636.613-.599 1.044.036.812-.077 1.642.065 2.443.272.89 1.686.833 1.886-.076.09-.824.025-1.661.037-2.49.041-.696-.766-1.219-1.39-.922zm1.962-.054c.024 1.165-.056 2.338.041 3.498.218.917 1.675.886 1.852-.04.08-1.147.012-2.303.034-3.454l-.59-.004c-.011 1.084.017 2.167-.012 3.25.008.432-.714.454-.719.017-.043-1.068.012-2.14-.023-3.209-.145-.13-.398-.024-.582-.059z"/>
    <path fill="#fff" d="M10.465 4.618a.4.4 0 0 1 .44.416c.01.758.024 1.52-.007 2.279-.025.445-.764.439-.78-.007-.028-.756-.016-1.514-.006-2.272a.397.397 0 0 1 .353-.416zM15.168 5.869c-.006-.414-.006-.828.013-1.242.449-.065 1.1.043.973.652.102.605-.559.652-.986.59zM18.108 9.655c.991-.611 2.01-1.176 3.019-1.757a10.047 10.047 0 0 1 .346 7.331c-1.193 3.607-4.597 6.349-8.382 6.719-3.514.421-7.152-1.223-9.199-4.099 2.357-1.346 4.686-2.756 7.068-4.05 1.168-.016 2.335-.004 3.503-.005.05-.7.628-1.351 1.366-1.285.686.014 1.157.638 1.222 1.28 1.318.026 2.636.005 3.947-.16-.055-1.11.191-2.297-.362-3.322l.184-.374c-.847-.397-1.804-.295-2.71-.278zm-2.598 3.341c-.553.158-.75.942-.322 1.334.389.425 1.182.234 1.332-.324.22-.588-.421-1.225-1.01-1.01zM3.874 10.116c.408-.03.955-.181 1.283.107.05 1.021.048 2.056.001 3.077-.356.216-1.045.235-1.392-.02.036-1.037-.179-2.195.108-3.163zM5.501 10.099c.455-.037.911-.034 1.367-.017.078.512.065 1.036.011 1.549-.46.002-.919.005-1.378-.011a9.1 9.1 0 0 1 0-1.522zM7.228 10.104c.997-.061 2-.034 2.999-.014a9.97 9.97 0 0 1 0 1.536c-1 .004-2 .024-3-.011a9.648 9.648 0 0 1 .001-1.511zM10.568 10.103c.91-.066 1.82-.013 2.731-.031a47.234 47.234 0 0 1-2.714 1.573 7.293 7.293 0 0 1-.017-1.542z"/>
    <path fill="#fff" d="M17.246 10.114l.139-.017c.841-.053 1.687-.022 2.531-.014.208.503.479.99.541 1.538-1.067.019-2.135.016-3.203.002a21.723 21.723 0 0 1-.008-1.51zM14.678 11.642c.736-.479 1.512-.894 2.273-1.332.002.434.001.871-.014 1.306-.752.036-1.506-.002-2.258.026z"/>
    <path d="M7.207 4.057c.673-.002 1.345-.002 2.017 0v.589c-.236.004-.474.001-.71.004-.005 1.189.001 2.377-.002 3.565l-.59.001c-.004-1.189.001-2.377-.002-3.566-.236-.004-.474 0-.71-.002l-.001-.59zM10.111 4.108c.624-.298 1.43.226 1.39.922-.012.829.053 1.666-.037 2.49-.2.908-1.614.966-1.886.076-.142-.802-.029-1.631-.065-2.443-.037-.431.19-.876.599-1.044zm.354.51a.398.398 0 0 0-.353.416c-.01.757-.022 1.516.006 2.272.016.446.755.452.78.007.031-.758.017-1.52.007-2.279a.4.4 0 0 0-.44-.416zM12.073 4.054c.184.035.437-.071.582.059.035 1.069-.02 2.141.023 3.209.005.437.727.415.719-.017.029-1.082.001-2.166.012-3.25l.59.004c-.022 1.151.047 2.306-.034 3.454-.176.925-1.633.956-1.852.04-.097-1.16-.017-2.333-.041-3.498zM14.572 4.05c.659-.044 1.494-.167 1.97.402.391.643.257 1.602-.439 1.984.205.571.412 1.142.608 1.716l-.12.017a43.6 43.6 0 0 1-.491.058c-.21-.593-.415-1.188-.628-1.78l-.306.002c-.002.586-.001 1.171-.004 1.758l-.587.002c-.008-1.386 0-2.772-.005-4.159zm.596 1.819c.427.061 1.088.014.986-.59.127-.608-.524-.716-.973-.652-.019.414-.019.828-.013 1.242zM10.086 9.644c.372.028.701-.192 1.068-.198.99-.107 1.924.361 2.918.178-.247.166-.49.35-.773.448-.911.018-1.822-.035-2.731.031a7.227 7.227 0 0 0 .017 1.542c-.864.548-1.77 1.031-2.652 1.549-.594-1.181-2.501-.737-2.489.599l-2.234-.001c-.355-1.187-.217-2.484.342-3.587l-.16-.368c.418-.113.845-.204 1.28-.198 1.805.005 3.608-.004 5.413.006zm-6.212.472c-.287.968-.072 2.126-.108 3.163.347.256 1.036.236 1.392.02a32.554 32.554 0 0 0-.001-3.077c-.328-.288-.875-.137-1.283-.107zm1.627-.017a9.1 9.1 0 0 0 0 1.522c.458.016.918.013 1.378.011a6.084 6.084 0 0 0-.011-1.549c-.456-.017-.912-.02-1.367.017zm1.727.005a9.528 9.528 0 0 0-.001 1.511c1 .035 2 .014 3 .011a9.97 9.97 0 0 0 0-1.536c-.998-.019-2.002-.047-2.999.014zM17.386 10.097c.222-.174.457-.338.722-.442.906-.017 1.862-.119 2.71.278l-.184.374c.553 1.025.307 2.212.362 3.322-1.31.164-2.629.186-3.947.16-.065-.642-.535-1.266-1.222-1.28-.738-.066-1.315.586-1.366 1.285-1.168.001-2.335-.011-3.503.005a68.146 68.146 0 0 1 3.719-2.156c.752-.029 1.506.01 2.258-.026.016-.434.017-.871.014-1.306a4.09 4.09 0 0 0 .295-.197c-.012.503-.014 1.007.008 1.51 1.068.013 2.136.017 3.203-.002-.062-.548-.334-1.036-.541-1.538-.844-.007-1.69-.038-2.531.014z"/>
    <path d="M6.35 13.07c.421-.272.92-.013 1.177.356-.48.284-.964.564-1.451.836-.184-.407-.163-.959.274-1.193zM15.51 12.996c.589-.215 1.23.422 1.01 1.01-.15.558-.943.749-1.332.324-.428-.392-.232-1.176.322-1.334z"/>
</svg>
