<svg xmlns="http://www.w3.org/2000/svg" width="24" height="24">
    <path fill="#ec1d24" d="M11.08 0h1.543c4.586.22 8.876 3.272 10.531 7.561.456 1.085.654 2.249.846 3.403v2.038c-.385 4.04-2.854 7.832-6.499 9.664-1.382.745-2.922 1.115-4.466 1.334h-2.028c-4.013-.385-7.782-2.821-9.629-6.426C.56 16.052.14 14.347 0 12.632v-1.256c.139-1.747.575-3.482 1.418-5.027C3.289 2.76 7.068.356 11.079 0zm-.112 2.461c-3.611.342-6.862 2.94-8.027 6.368-.9 2.552-.656 5.484.677 7.842 1.674 3.068 5.126 5.054 8.623 4.93 3.863-.043 7.51-2.683 8.788-6.324.967-2.632.701-5.686-.726-8.101-1.83-3.228-5.648-5.162-9.335-4.715z"/>
    <path fill="#fff" d="M10.968 2.461c3.686-.448 7.505 1.487 9.335 4.715 1.427 2.416 1.693 5.47.726 8.101-1.278 3.641-4.925 6.281-8.788 6.324-3.497.125-6.949-1.861-8.623-4.93-1.333-2.358-1.577-5.29-.677-7.842 1.165-3.428 4.416-6.026 8.027-6.368zm5.166 4.936c-1.008.127-1.957.722-2.431 1.633-.656 1.256-.68 2.734-.547 4.112.133 1.272.732 2.633 1.967 3.175 1.218.511 2.72.485 3.859-.217 1.186-.778 1.578-2.275 1.626-3.614.049-1.41-.076-2.982-1.051-4.087-.844-.948-2.22-1.169-3.422-1.002zM3.766 13.242c-.13.546-.02 1.142-.054 1.708 1.607.006 3.212-.001 4.819.005.005.505 0 1.01.004 1.517.608.001 1.216.002 1.824-.001.005-.505 0-1.01.002-1.516.366-.002.732-.004 1.098-.004.002-.565.004-1.129 0-1.693l-1.097-.002c-.006-1.908.002-3.817-.004-5.725-.776-.004-1.553-.002-2.329-.001-1.424 1.901-2.855 3.8-4.264 5.713z"/>
    <path fill="#fff" d="M16.235 9.154c.884-.355 1.958.148 2.24 1.06.396 1.224.416 2.641-.115 3.828-.475 1.076-2.12 1.242-2.818.305-.653-.916-.632-2.122-.538-3.194.086-.792.415-1.704 1.23-1.998zM5.761 13.254c.92-1.249 1.844-2.494 2.771-3.738.001 1.246.002 2.492-.001 3.738-.923.004-1.846.004-2.77 0z"/>
    <path d="M16.134 7.397c1.202-.167 2.579.054 3.422 1.002.976 1.105 1.1 2.677 1.051 4.087-.048 1.339-.44 2.837-1.626 3.614-1.139.702-2.641.728-3.859.217-1.235-.542-1.834-1.903-1.967-3.175-.133-1.379-.109-2.856.547-4.112.474-.911 1.423-1.506 2.431-1.633zm.101 1.757c-.815.294-1.144 1.206-1.23 1.998-.095 1.073-.115 2.279.538 3.194.697.937 2.342.772 2.818-.305.532-1.187.511-2.604.115-3.828-.282-.912-1.356-1.415-2.24-1.06zM3.766 13.242C5.175 11.329 6.605 9.43 8.03 7.529c.776-.001 1.553-.002 2.329.001.006 1.908-.002 3.817.004 5.725l1.097.002c.004.564.002 1.128 0 1.693-.366 0-.732.001-1.098.004-.002.505.002 1.01-.002 1.516-.608.004-1.216.002-1.824.001-.004-.506.001-1.012-.004-1.517-1.607-.006-3.212.001-4.819-.005.034-.565-.076-1.162.054-1.708zm1.995.012c.924.004 1.847.004 2.77 0 .004-1.246.002-2.492.001-3.738-.926 1.244-1.85 2.489-2.771 3.738z"/>
</svg>
