<svg xmlns="http://www.w3.org/2000/svg" width="24" height="24">
    <path fill="#0e518d" d="M10.745 0h2.486c2.194.305 4.342 1.089 6.096 2.466-.845.851-1.693 1.697-2.541 2.545-1.656.003-3.313-.004-4.967.003.229 1.782-.604 3.487-.881 5.229-2.02.001-4.042-.001-6.063-.003-.264.011-.692.001-.717.359-.063 1.287-.007 2.581-.022 3.87.43.017.885.021 1.232-.274.691-.505 1.61-.454 2.371-.146-.08.076-.158.156-.236.233-.861-.307-1.907-.124-2.471.637-.502.588-.496 1.414-.282 2.119-.758.766-1.522 1.524-2.285 2.285-1.37-1.746-2.148-3.884-2.462-6.067V10.77c.187-1.058.382-2.123.79-3.124C2.352 3.493 6.363.501 10.748 0zM21.178 4.233c1.565 1.803 2.459 4.091 2.822 6.431v2.649c-.521 4.435-3.6 8.471-7.829 9.976-.909.352-1.873.516-2.823.711h-2.644c-2.358-.347-4.658-1.251-6.471-2.823 1.073-1.04 2.098-2.132 3.191-3.154.491-.216.866-.6 1.085-1.088.518-.571 1.081-1.101 1.622-1.651.729-.004 1.458-.005 2.188-.004-.113-.81-.065-1.642.228-2.409.305-.336.646-.634.997-.92-.764 1.007-1.13 2.353-.732 3.583.465 1.619 2.123 2.792 3.811 2.651 1.891-.07 3.524-1.787 3.508-3.678.063-1.705-1.203-3.328-2.867-3.696-1.166-.311-2.388.078-3.342.764.278-.343.571-.674.897-.973 1.531-.597 3.33-.219 4.514.913.161-.16.322-.319.484-.477-.464-.547-1.004-1.033-1.431-1.61-.099-.779-.008-1.572-.038-2.356.943-.945 1.892-1.884 2.83-2.835z"/>
    <path fill="#0e518d" d="M12.621 5.97c1.071-.005 2.142.008 3.212-.008-1.387 1.377-2.753 2.773-4.154 4.135.305-1.378.621-2.753.942-4.127zM15.997 9.423a367 367 0 0 1 1.394-1.396c-.003.465-.008.931-.009 1.398-.462-.001-.923.001-1.385-.001zM16.006 12.327c1.174-.241 2.409.678 2.513 1.871.173 1.189-.829 2.38-2.033 2.396-1.113.09-2.173-.835-2.247-1.945-.135-1.08.7-2.153 1.767-2.322zm.127.512c-.79.109-1.428.868-1.371 1.669.012.832.758 1.563 1.59 1.56.901.04 1.714-.794 1.648-1.696-.008-.932-.952-1.701-1.867-1.534z"/>
    <path fill="#c1121c" d="M19.327 2.466a12.58 12.58 0 0 1 1.851 1.767c-.938.951-1.887 1.89-2.83 2.835l-.957.959c-.465.464-.93.93-1.394 1.396-.396.388-.782.786-1.178 1.176a9.08 9.08 0 0 0-.897.973 33.59 33.59 0 0 1-.378.377 9.042 9.042 0 0 0-.997.92l-2.416 2.413c-.541.55-1.104 1.08-1.622 1.651-.38.344-.742.707-1.085 1.088-1.093 1.022-2.118 2.114-3.191 3.154a12.626 12.626 0 0 1-1.771-1.854c.764-.761 1.527-1.519 2.285-2.285A51.854 51.854 0 0 1 7.5 14.28c.078-.078.156-.157.236-.233 1.316-1.315 2.648-2.616 3.943-3.951 1.4-1.362 2.767-2.759 4.154-4.135l.952-.951c.848-.848 1.696-1.695 2.541-2.545z"/>
    <path fill="#f7fbf5" d="M11.818 5.014c1.655-.007 3.311 0 4.967-.003-.318.316-.636.634-.952.951-1.071.016-2.142.003-3.212.008a385.02 385.02 0 0 0-.942 4.127c-1.295 1.335-2.627 2.636-3.943 3.951-.761-.307-1.68-.359-2.371.146-.347.295-.802.291-1.232.274.016-1.29-.041-2.583.022-3.87.025-.357.454-.348.717-.359 2.022.001 4.043.004 6.063.003.277-1.742 1.11-3.447.881-5.229zM17.391 8.027l.957-.959c.03.785-.061 1.577.038 2.356.427.578.967 1.063 1.431 1.61-.162.158-.323.318-.484.477-1.184-1.131-2.983-1.51-4.514-.913.396-.39.782-.789 1.178-1.176.462.003.923 0 1.385.001.001-.467.007-.932.009-1.398z"/>
    <path fill="#f7fbf5" d="M13.923 11.573c.953-.686 2.176-1.075 3.342-.764 1.664.368 2.93 1.991 2.867 3.696.016 1.891-1.617 3.608-3.508 3.678-1.688.141-3.345-1.031-3.811-2.651-.398-1.23-.032-2.575.732-3.583.128-.125.253-.251.378-.377zm2.083.754c-1.067.169-1.902 1.242-1.767 2.322.074 1.11 1.134 2.035 2.247 1.945 1.204-.016 2.206-1.207 2.033-2.396-.104-1.193-1.34-2.113-2.513-1.871z"/>
    <path fill="#f7fbf5" d="M16.133 12.839c.915-.167 1.859.601 1.867 1.534.066.902-.748 1.735-1.648 1.696-.832.003-1.578-.728-1.59-1.56-.057-.802.582-1.56 1.371-1.669zM10.131 15.284l2.416-2.413c-.293.767-.342 1.6-.228 2.409-.729-.001-1.458 0-2.188.004zM5.029 14.918c.564-.761 1.61-.944 2.471-.637a51.854 51.854 0 0 0-2.753 2.756c-.214-.705-.22-1.531.282-2.119zM7.424 18.022a15.05 15.05 0 0 1 1.085-1.088 2.122 2.122 0 0 1-1.085 1.088z"/>
</svg>
