<svg xmlns="http://www.w3.org/2000/svg" width="24" height="24">
    <path fill="#fff" d="M.908 0h22.181c.444.104.806.466.911.91v22.177a1.242 1.242 0 0 1-.91.913H.912A1.243 1.243 0 0 1 0 23.092V.91C.104.467.466.105.908 0zm.658.587C1.008.647.559 1.171.575 1.73v20.539c-.023.64.567 1.2 1.204 1.156 6.83-.001 13.66.001 20.49-.001.621.021 1.177-.534 1.155-1.155V1.73a1.15 1.15 0 0 0-.67-1.053c-.254-.122-.542-.104-.817-.103H2.109c-.181.002-.363-.009-.544.012z"/>
    <path fill="#fff" d="M10.478 4.006c.514-.678 1.703-.593 2.082.184-.167.098-.335.196-.504.291-.205-.417-.822-.527-1.122-.156-.347.48-.35 1.218.023 1.685.331.393 1.107.193 1.074-.368-.181-.001-.361 0-.542-.003v-.525c.372 0 .743.003 1.115-.002-.002.413.037.869-.227 1.22-.472.645-1.582.549-1.993-.118-.406-.662-.386-1.588.095-2.208zM4.661 3.614c.181.001.362.001.543 0 .439.682.888 1.358 1.317 2.047-.004-.683.002-1.365-.003-2.048.186.003.372.003.558 0-.005 1.035-.002 2.071-.001 3.106h-.504c-.45-.701-.923-1.388-1.356-2.1.015.7.003 1.4.006 2.1h-.557c-.002-1.035 0-2.07-.002-3.105zM8.351 3.615h.572c-.002 1.035 0 2.069-.001 3.104-.191.001-.381.002-.571-.002V3.615zM13.74 3.612c.188.004.375.003.563 0 .002.413 0 .827.001 1.24h1.301c.026-.412.023-.828.001-1.24.187.002.373.002.559.001v3.102c-.183.003-.366.002-.549.003.009-.44 0-.88.005-1.32-.439-.027-.878-.007-1.318-.012-.001.443.001.887-.001 1.331h-.561c0-1.035.004-2.071-.002-3.106zM17.215 3.598c.767-.002 1.534-.001 2.301 0 .001.181.001.362 0 .543l-.865.001v2.577h-.563l-.001-2.578c-.291 0-.581.001-.872-.001a48.96 48.96 0 0 1 0-.542zM15.953 9.392c.795-.096 1.636-.006 2.341.394.683.38 1.185 1.024 1.501 1.73.484 1.075.619 2.269.63 3.437-.015 1.107-.144 2.233-.574 3.262-.297.715-.769 1.38-1.432 1.796-1.298.784-3.144.688-4.274-.36-1.123-1.075-1.447-2.702-1.524-4.195-.051-1.617.122-3.354 1.074-4.715a3.257 3.257 0 0 1 2.258-1.349zm.24 1.798c-.495.084-.895.451-1.123.885-.376.709-.479 1.523-.528 2.314-.035.854-.001 1.72.205 2.552.139.525.354 1.065.778 1.425.619.534 1.666.449 2.182-.19.552-.668.697-1.564.778-2.4.068-1.242.064-2.565-.512-3.7-.315-.651-1.066-1.047-1.78-.885zM2.79 9.547h7.34l.001 1.706c.02.143-.109.23-.184.332-.938 1.141-1.606 2.482-2.082 3.875a16.28 16.28 0 0 0-.867 4.874l-1.904-.001c.013-1.734.25-3.48.844-5.115.486-1.372 1.211-2.648 2.046-3.836-1.732-.002-3.464 0-5.195-.001V9.547z"/>
    <path d="M1.566.587c.18-.022.362-.01.544-.012h19.828c.274 0 .563-.019.817.103.407.178.677.61.67 1.053V22.27c.021.621-.534 1.176-1.155 1.155-6.83.002-13.66 0-20.49.001-.637.044-1.227-.516-1.204-1.156V1.731C.56 1.172 1.009.647 1.567.588zm8.912 3.419c-.481.62-.501 1.545-.095 2.208.411.667 1.521.762 1.993.118.264-.351.225-.806.227-1.22-.372.005-.743.002-1.115.002v.525l.542.003c.033.562-.742.762-1.074.368-.374-.467-.37-1.204-.023-1.685.3-.372.917-.261 1.122.156.169-.095.337-.193.504-.291-.379-.777-1.568-.862-2.082-.184zm-5.817-.392c.002 1.035 0 2.07.002 3.105h.557c-.003-.7.009-1.4-.006-2.1.433.712.906 1.399 1.356 2.1h.504c0-1.035-.004-2.071.001-3.106-.186.004-.372.003-.558 0 .006.683 0 1.365.003 2.048-.428-.689-.877-1.365-1.317-2.047-.181.001-.362.001-.543 0zm3.69.001v3.102c.19.004.38.003.571.002.001-1.035-.001-2.069.001-3.104h-.572zm5.389-.003c.006 1.035.002 2.071.002 3.106h.561c.002-.443 0-.887.001-1.331.439.006.879-.015 1.318.012-.005.44.004.88-.005 1.32.183-.001.366 0 .549-.003V3.614a34.7 34.7 0 0 1-.559-.001c.022.412.025.828-.001 1.24h-1.301c-.002-.413.001-.827-.001-1.24a17.61 17.61 0 0 1-.563 0zm3.475-.014v.542c.291.002.581 0 .872.001l.001 2.578h.563V4.142l.865-.001c.001-.181.001-.362 0-.543h-2.301zm-1.262 5.794c-.9.106-1.737.608-2.258 1.349-.952 1.361-1.125 3.098-1.074 4.715.077 1.493.402 3.12 1.524 4.195 1.13 1.048 2.976 1.143 4.274.36.664-.416 1.135-1.081 1.432-1.796.43-1.029.56-2.155.574-3.262-.012-1.168-.147-2.362-.63-3.437-.315-.706-.817-1.35-1.501-1.73-.705-.4-1.547-.49-2.341-.394zM2.79 9.547v1.834c1.732.001 3.464-.001 5.195.001-.834 1.188-1.56 2.464-2.046 3.836-.594 1.635-.832 3.381-.844 5.115l1.904.001a16.28 16.28 0 0 1 .867-4.874c.476-1.393 1.144-2.734 2.082-3.875.075-.102.204-.19.184-.332-.002-.569 0-1.138-.001-1.706h-7.34z"/>
    <path d="M16.193 11.19c.714-.162 1.466.234 1.78.885.576 1.135.58 2.458.512 3.7-.08.837-.225 1.733-.778 2.4-.516.639-1.563.725-2.182.19-.424-.361-.639-.9-.778-1.425-.207-.832-.24-1.698-.205-2.552.049-.79.151-1.605.528-2.314.228-.434.629-.8 1.123-.885z"/>
</svg>
