<svg xmlns="http://www.w3.org/2000/svg" width="24" height="24">
    <path fill="#035ca1" d="M10.528 0h2.948c3.912.56 7.586 3.004 9.287 6.619.661 1.214.983 2.563 1.237 3.91v2.948c-.561 3.912-3.004 7.585-6.618 9.286-1.215.661-2.564.983-3.912 1.237h-2.949c-3.91-.561-7.583-3.004-9.284-6.619C.576 16.167.254 14.818 0 13.471v-2.948C.257 9.178.577 7.831 1.237 6.62 2.938 3.003 6.615.558 10.528.001zM7.09 9.834c-1.472.36-2.974.597-4.451.939-.601.132-.669.858-.73 1.36-.092.712.181 1.726 1.04 1.766.337-.648.621-1.463 1.406-1.683 1.383-.688 3.262.397 3.226 1.977 2.719.177 5.516.16 8.265.221.068-1.713 2.204-2.705 3.559-1.684.426.229.473 1.043.957 1.022.498-.756.83-1.65.949-2.546-.132-.992-.581-1.926-.994-2.828-.394-.41-.583-1.262-1.274-1.174-2.761.025-5.526-.048-8.286-.039-1.287.786-2.389 1.865-3.666 2.669zm-2.075 2.639c-.881.126-1.585.974-1.532 1.865-.01.986.91 1.857 1.897 1.777.99.014 1.848-.927 1.766-1.91.001-1.068-1.087-1.934-2.13-1.731zm12.408.401c-.898.308-1.439 1.378-1.123 2.279.272.97 1.443 1.561 2.378 1.177.92-.306 1.465-1.418 1.113-2.327-.294-.95-1.446-1.498-2.368-1.128z"/>
    <path fill="#035ca1" d="M8.022 10.577c1.008-.906 1.972-1.872 3.025-2.723 2.571.026 5.15.079 7.726.114a72 72 0 0 1 .888 1.549c-.182.337-.268.757-.541 1.028-3.698.04-7.399.022-11.098.032zM5 13.408c.658-.312 1.437.383 1.265 1.074-.098.709-1.061 1.066-1.577.561-.546-.451-.346-1.408.312-1.636zM17.699 13.709c.6-.308 1.383.246 1.309.912.033.723-.866 1.201-1.459.81-.636-.374-.546-1.466.15-1.721z"/>
    <path fill="#fff" d="M7.09 9.834c1.277-.804 2.379-1.883 3.666-2.669 2.76-.01 5.524.063 8.286.039.691-.088.88.764 1.274 1.174.414.902.862 1.836.994 2.828a6.161 6.161 0 0 1-.949 2.546c-.484.021-.531-.793-.957-1.022-1.354-1.021-3.491-.029-3.559 1.684-2.749-.061-5.546-.044-8.265-.221.036-1.579-1.843-2.665-3.226-1.977-.785.219-1.069 1.034-1.406 1.683-.859-.04-1.132-1.054-1.04-1.766.061-.502.128-1.228.73-1.36 1.477-.342 2.979-.579 4.451-.939zm.932.743c3.699-.01 7.4.008 11.098-.032.273-.27.359-.691.541-1.028-.29-.52-.586-1.036-.888-1.549-2.575-.036-5.154-.088-7.726-.114-1.052.851-2.017 1.817-3.025 2.723z"/>
    <path fill="#fff" d="M5.015 12.473c1.043-.203 2.131.663 2.13 1.731.083.983-.775 1.924-1.766 1.91-.986.08-1.906-.79-1.897-1.777-.052-.891.651-1.739 1.532-1.865zM5 13.408c-.658.228-.858 1.185-.312 1.636.516.505 1.479.148 1.577-.561.172-.691-.607-1.386-1.265-1.074zM17.423 12.874c.923-.37 2.074.178 2.368 1.128.352.909-.193 2.021-1.113 2.327-.935.385-2.106-.207-2.378-1.177-.316-.901.225-1.971 1.123-2.279zm.276.835c-.697.255-.786 1.348-.15 1.721.593.392 1.492-.087 1.459-.81.074-.666-.709-1.219-1.309-.912z"/>
</svg>
