<svg xmlns="http://www.w3.org/2000/svg" width="24" height="24">
    <path d="M10.981 0h2.027c.208.05.422.053.632.087 3.077.405 5.954 2.078 7.849 4.532 1.439 1.817 2.28 4.065 2.51 6.363v2.025c-.185 1.74-.679 3.459-1.57 4.973-1.8 3.177-5.12 5.441-8.744 5.926-.222.037-.45.039-.668.094h-2.025c-1.74-.181-3.456-.684-4.974-1.567-2.662-1.524-4.707-4.098-5.56-7.048-.238-.77-.351-1.57-.459-2.366v-2.028c.102-.762.208-1.527.427-2.266a12.05 12.05 0 0 1 5.13-6.875C7.176.795 9.066.201 10.98 0zM4.738 2.724C2.33 4.593.697 7.432.317 10.458c-.438 3.195.521 6.541 2.578 9.024.694-.826 1.393-1.65 2.079-2.482.481-.561.955-1.129 1.426-1.697a350.24 350.24 0 0 0 2.069-2.466h.002c.439-.525.885-1.045 1.318-1.575 1.028-1.23 2.087-2.45 3.084-3.696.634-.699 1.224-1.442 1.833-2.165 1.04-1.215 2.05-2.46 3.096-3.669C16.159.822 14.303.278 12.42.225a11.723 11.723 0 0 0-7.682 2.499zm14.455 4.079v.03c-.198.166-.36.381-.505.593l-.023.002c-.641.758-1.277 1.52-1.915 2.28-.87 1.042-1.751 2.075-2.614 3.123-.927 1.104-1.882 2.199-2.773 3.326a80.278 80.278 0 0 0-2.467 2.936c-.915 1.031-1.787 2.115-2.68 3.172 2.665 1.527 5.94 1.917 8.897 1.102a11.724 11.724 0 0 0 4.174-2.111c2.315-1.81 3.91-4.516 4.353-7.422.533-3.279-.411-6.758-2.535-9.313-.64.758-1.281 1.516-1.912 2.281z"/>
    <path fill="#fff" d="M4.738 2.724A11.725 11.725 0 0 1 12.42.225c1.883.054 3.738.597 5.382 1.507-1.046 1.209-2.056 2.453-3.096 3.669-.608.013-1.216-.001-1.824.007-.03.718-.01 1.439-.009 2.158-.998 1.246-2.056 2.467-3.084 3.696a2.601 2.601 0 0 0-2.028-.131c.811-1.911 1.648-3.81 2.456-5.722-.647-.001-1.295-.012-1.942.005-1.033 2.35-2.04 4.713-3.062 7.067-.662 1.395-.771 3.065-.24 4.519-.686.833-1.385 1.656-2.079 2.482C.838 17-.122 13.653.316 10.458c.38-3.027 2.014-5.865 4.421-7.734zM19.193 6.803c.631-.765 1.272-1.523 1.912-2.281 2.124 2.555 3.068 6.034 2.535 9.313-.443 2.906-2.039 5.612-4.353 7.422a11.732 11.732 0 0 1-4.174 2.111c-2.957.815-6.232.424-8.897-1.102.893-1.056 1.765-2.14 2.68-3.172.583-.166 1.103-.507 1.537-.925.535-.534.819-1.274.93-2.011.891-1.127 1.846-2.221 2.773-3.326.123.001.247.011.37-.003.24-.472.596-.946 1.139-1.073.63-.14 1.456.033 1.716.697.47 1.165.351 2.471.13 3.679-.053.421-.335.814-.75.939-.589.18-1.315.15-1.785-.293-.332-.309-.466-.757-.569-1.184a52.875 52.875 0 0 0-1.736 0c.072.882.317 1.8.926 2.469.847.863 2.15 1.348 3.343 1.014 1.328-.428 2.279-1.721 2.431-3.091a15.644 15.644 0 0 0-.001-3.238c-.129-1.41-1.131-2.837-2.602-3.04.638-.76 1.274-1.522 1.915-2.28l.023-.002c.169 0 .338.008.508-.002a5.547 5.547 0 0 0-.002-.591v-.03z"/>
    <path fill="#fff" d="M6.911 13.286c.382-.433 1.006-.579 1.558-.449-.686.825-1.376 1.647-2.069 2.466-.026-.695.023-1.474.511-2.017z"/>
    <path fill="gray" d="M8.275 5.414c.646-.017 1.295-.007 1.942-.005-.809 1.912-1.645 3.811-2.456 5.722a2.601 2.601 0 0 1 2.028.131c-.433.53-.878 1.05-1.318 1.575h-.002c-.552-.131-1.176.015-1.558.449-.488.543-.537 1.322-.511 2.017-.472.569-.945 1.136-1.426 1.697-.532-1.454-.422-3.124.24-4.519 1.023-2.355 2.03-4.717 3.062-7.067zM12.883 5.408c.608-.008 1.216.006 1.824-.007-.609.723-1.199 1.465-1.833 2.165-.001-.719-.021-1.44.009-2.158zM18.688 7.426c.146-.213.308-.428.505-.593.009.196.015.394.002.591-.169.011-.338.003-.508.002zM14.136 12.831c.862-1.048 1.743-2.081 2.614-3.123 1.472.203 2.473 1.63 2.602 3.04.11 1.074.115 2.163.001 3.238-.152 1.37-1.104 2.663-2.431 3.091-1.193.334-2.496-.151-3.343-1.014-.609-.669-.855-1.588-.926-2.469.578-.01 1.157-.009 1.736 0 .103.427.237.875.569 1.184.469.443 1.195.473 1.785.293.415-.125.697-.518.75-.939.221-1.208.34-2.513-.13-3.679-.26-.663-1.086-.837-1.716-.697-.543.127-.9.602-1.139 1.073-.123.014-.247.005-.37.003zM8.896 19.093a80.278 80.278 0 0 1 2.467-2.936c-.111.737-.395 1.477-.93 2.011-.434.418-.955.758-1.538.925z"/>
</svg>
