<svg xmlns="http://www.w3.org/2000/svg" width="24" height="24">
    <path fill="#0366b3" d="M10.689 0h2.533c4.043.46 7.801 3.003 9.567 6.691.65 1.272.982 2.671 1.21 4.072v2.457c-.459 4.045-3.003 7.803-6.693 9.569-1.27.65-2.669.982-4.07 1.21h-2.521c-1.415-.241-2.832-.579-4.114-1.248-3.5-1.717-6.01-5.237-6.535-9.097a21.106 21.106 0 0 0-.003-3.288C.58 6.499 3.094 2.968 6.6 1.247c1.273-.665 2.68-1 4.087-1.248zm1.413 1.409c-.854 1.41-1.69 2.833-2.511 4.263-.202.305-.376 1 .192.985.566-.155.977-.623 1.461-.935.004 1.645.007 3.29-.001 4.933-.72-.719-1.405-1.473-2.134-2.182-.438.363-.854.75-1.243 1.165 1.114 1.307 2.44 2.433 3.46 3.814-1.625-1.337-3.801-1.449-5.81-1.376.321-.494.807-.917.942-1.509-.078-.515-.686-.322-.986-.141a205.43 205.43 0 0 0-4.274 2.521c1.359.857 2.763 1.643 4.145 2.465.329.173.934.496 1.111-.025-.085-.625-.623-1.057-.94-1.573 1.6.008 3.58-.287 4.692 1.165 1.663 2.165.833 5.044 1.055 7.553.565.022 1.13.021 1.694.008.102-1.616-.175-3.275.313-4.848.29-1.034.944-2.039 1.971-2.455 1.113-.458 2.348-.239 3.518-.284-.316.489-.772.909-.942 1.478.014.57.697.373 1.007.176 1.423-.827 2.853-1.65 4.255-2.516a195.58 195.58 0 0 0-4.257-2.516c-.309-.196-.974-.389-1.006.17.166.57.622.99.937 1.48-1.99-.06-4.209-.01-5.778 1.398.008-2.967-.003-5.935.005-8.902.527.313.968.925 1.62.927.467-.23.121-.797-.04-1.122-.82-1.371-1.589-2.774-2.455-4.117z"/>
    <path fill="#fff" d="M12.102 1.409c.866 1.342 1.634 2.746 2.455 4.117.162.325.507.892.04 1.122-.652-.003-1.093-.614-1.62-.927-.008 2.967.003 5.935-.005 8.902 1.569-1.409 3.788-1.458 5.778-1.398-.314-.49-.771-.91-.937-1.48.031-.558.697-.365 1.006-.17a195.58 195.58 0 0 1 4.257 2.516c-1.402.866-2.832 1.689-4.255 2.516-.31.197-.993.394-1.007-.176.17-.569.626-.989.942-1.478-1.17.046-2.405-.173-3.518.284-1.027.416-1.681 1.42-1.971 2.455-.488 1.573-.211 3.232-.313 4.848-.565.013-1.13.014-1.694-.008-.222-2.51.608-5.388-1.055-7.553-1.111-1.452-3.091-1.157-4.692-1.165.317.517.856.948.94 1.573-.177.52-.783.198-1.111.025-1.383-.822-2.786-1.608-4.145-2.465 1.414-.857 2.84-1.698 4.274-2.521.3-.181.908-.374.986.141-.134.592-.621 1.015-.942 1.509 2.009-.073 4.184.039 5.81 1.376-1.02-1.381-2.347-2.507-3.46-3.814.389-.415.805-.802 1.243-1.165.729.71 1.414 1.463 2.134 2.182.008-1.643.005-3.288.001-4.933-.484.312-.895.78-1.461.935-.567.016-.394-.68-.192-.985.82-1.43 1.657-2.853 2.511-4.263z"/>
    <path fill="#93b2ca" opacity=".89" d="M0 10.607l.065-.24c.089 1.093.085 2.195.003 3.288L0 13.416v-2.81z"/>
</svg>
