<svg xmlns="http://www.w3.org/2000/svg" width="24" height="24">
    <path fill="#030303" d="M.868 7.944h22.46l-.128.073C15.714 8.031 8.228 8 .741 8.033l.126-.089zM.846 8.344c.24-.05.488-.026.731-.031 7.112.002 14.225 0 21.337.001.386-.044.765.28.747.675.007 1.982.002 3.965.002 5.947.033.38-.294.737-.679.719-7.311.003-14.622.003-21.934 0-.385.019-.713-.339-.681-.72-.002-1.956 0-3.912-.001-5.869-.028-.312.166-.639.476-.722zm15.833.803c.058.373.215.721.312 1.085-4.986.002-9.971.001-14.957.001v3.504c4.986.001 9.972-.001 14.957.001-.098.35-.238.689-.309 1.047-.059.391.439.691.76.457l5.22-3.256a903.746 903.746 0 0 0-5.207-3.246c-.308-.235-.797.024-.776.409z"/>
    <path fill="#030303" d="M0 8.651l.071.131c.014 2.076-.007 4.153.01 6.23.001.51.459.951.969.937 7.086.007 14.173 0 21.26.003.304 0 .608.01.91-.026-.473.09-.958.05-1.436.053l-18.93-.001c-.687.005-1.374-.025-2.058.036a1.221 1.221 0 0 1-.796-.8V8.652z"/>
    <path fill="#030303" d="M3.26 10.684c.384-.171.91-.077 1.112.321.294.573.285 1.288.041 1.876-.173.437-.722.597-1.134.415-.415-.207-.524-.719-.567-1.14-.017-.518.048-1.189.548-1.473zm.295.363c-.452.165-.426.783-.406 1.182.01.352.24.85.673.679.392-.28.365-.856.316-1.286-.028-.291-.232-.675-.584-.575zM4.928 10.649l.421-.001c.326.564.642 1.134.969 1.698.004-.566.001-1.132.002-1.698h.419c-.001.89.001 1.78-.001 2.67l-.373-.001c-.337-.601-.674-1.203-1.014-1.801-.003.6 0 1.201-.001 1.802h-.422v-2.669zM7.125 10.651a411.34 411.34 0 0 1 1.571 0l-.001.425-1.147.001v.65h.772l.001.432-.774.001v.73l1.231.001-.001.431H7.126c-.005-.89-.001-1.781-.001-2.671zM10.108 10.648h.43c.07.462.131.926.207 1.387.117-.46.224-.923.336-1.385l.412-.002c.116.463.223.929.344 1.391.073-.463.138-.926.208-1.39l.427-.001c-.131.891-.259 1.782-.392 2.673-.125-.007-.251-.001-.376-.007-.136-.567-.274-1.133-.415-1.698-.143.566-.274 1.134-.414 1.701l-.364.004c-.147-.889-.266-1.782-.401-2.673zM13.336 10.651c.141-.004.283.001.425-.005.305.89.613 1.779.914 2.671l-.449.001c-.088-.249-.172-.498-.261-.746h-.83c-.09.248-.173.498-.262.746l-.449-.001c.301-.889.611-1.776.91-2.666zm.22.742c-.092.249-.181.497-.27.747h.53c-.086-.249-.172-.498-.26-.747zM14.234 10.648c.168.001.336-.002.504 0 .215.342.425.687.636 1.031.216-.343.43-.687.647-1.03.165-.002.33.001.495-.001-.3.506-.634.993-.91 1.512-.036.384-.004.771-.014 1.157h-.422c-.011-.385.02-.772-.014-1.156-.28-.52-.62-1.006-.922-1.514z"/>
    <path fill="#fff" d="M.071 8.782c.094-.345.355-.599.67-.75 7.486-.033 14.972-.001 22.459-.016.342.096.599.352.747.669.014 2.175.031 4.351-.008 6.525-.008.058-.02.117-.034.174-.171.238-.387.473-.684.54-.303.037-.607.026-.91.026-7.086-.003-14.173.004-21.26-.003a.967.967 0 0 1-.969-.937c-.017-2.076.004-4.153-.01-6.23zm.775-.438c-.31.083-.504.409-.476.722.001 1.957-.001 3.913.001 5.869-.031.381.296.738.681.72 7.311.003 14.622.003 21.934 0 .385.018.712-.339.679-.719 0-1.982.004-3.965-.002-5.947.018-.395-.361-.719-.747-.675-7.112-.001-14.225.001-21.337-.001-.243.005-.491-.02-.731.031z"/>
    <path fill="#fff" d="M16.679 9.147c-.021-.385.468-.644.776-.409a903.746 903.746 0 0 1 5.207 3.246l-5.22 3.256c-.321.234-.819-.066-.76-.457.071-.358.21-.696.309-1.047l-14.957-.001v-3.504c4.986 0 9.971.001 14.957-.001-.097-.364-.254-.712-.312-1.085zM3.26 10.684c-.5.284-.566.955-.548 1.473.043.422.152.934.567 1.14.412.182.961.022 1.134-.415.245-.589.253-1.303-.041-1.876-.202-.398-.729-.493-1.112-.321zm1.668-.035v2.669h.422c.001-.601-.001-1.202.001-1.802.34.599.677 1.2 1.014 1.801l.373.001c.002-.89 0-1.78.001-2.67H6.32c-.001.566.002 1.132-.002 1.698-.327-.564-.643-1.134-.969-1.698l-.421.001zm2.197.002c0 .89-.004 1.781.001 2.671h1.651l.001-.431-1.231-.001v-.73l.774-.001-.001-.432h-.772a70.417 70.417 0 0 1 0-.65l1.147-.001.001-.425a411.34 411.34 0 0 0-1.571 0zm2.983-.003c.135.891.254 1.784.401 2.673l.364-.004c.14-.567.271-1.135.414-1.701.141.566.28 1.132.415 1.698.125.006.251 0 .376.007.133-.891.261-1.782.392-2.673l-.427.001c-.07.463-.135.927-.208 1.39-.121-.463-.227-.928-.344-1.391l-.412.002c-.111.462-.219.925-.336 1.385-.075-.461-.137-.925-.207-1.387h-.43zm3.228.003c-.3.89-.609 1.777-.91 2.666l.449.001c.089-.248.172-.498.262-.746h.83c.089.248.173.497.261.746.149.001.299-.001.449-.001-.301-.892-.609-1.781-.914-2.671-.142.006-.284.001-.425.005zm.898-.003c.303.508.643.994.922 1.514.034.384.003.771.014 1.156h.422c.01-.386-.022-.774.014-1.157.276-.519.61-1.007.91-1.512-.165.001-.331-.001-.495.001-.217.342-.431.687-.647 1.03-.212-.344-.422-.689-.636-1.031-.168-.002-.337.001-.504 0z"/>
    <path fill="#fff" d="M3.555 11.047c.352-.101.555.283.584.575.049.43.076 1.006-.316 1.286-.433.171-.663-.328-.673-.679-.02-.399-.046-1.016.406-1.182zM13.556 11.393c.088.249.174.497.26.747h-.53c.089-.249.178-.498.27-.747z"/>
    <path fill="#040404" d="M23.947 8.686l.09.125v6.404l-.098-.004c.04-2.174.023-4.35.008-6.525z"/>
    <path fill="#0e0e0e" opacity=".66" d="M23.22 15.925c.297-.068.513-.302.684-.54-.035.369-.399.536-.694.672H.908l-.112-.043c.684-.061 1.372-.031 2.058-.036l18.93.001c.479-.004.963.037 1.436-.053z"/>
</svg>
