<svg xmlns="http://www.w3.org/2000/svg" width="24" height="24">
    <path fill="#fff" d="M4.9 0h14.237l.063.037c-.405-.045-.813-.028-1.219-.031C13.869.005 9.756.007 5.644.005a5.084 5.084 0 0 0-.799.043L4.9-.001zM19.274.061a.145.145 0 0 1 .177.023c-.064.041-.123.033-.177-.023zM4.985.174c.235-.037.473-.027.71-.028 4.354.001 8.708-.001 13.062.001 1.143-.027 2.18.989 2.176 2.133.004 6.481.002 12.961.001 19.442.012.962-.698 1.863-1.626 2.1-.331.093-.677.069-1.017.073H5.435c-1.172.074-2.274-.942-2.275-2.12-.005-6.48-.001-12.961-.002-19.441-.019-1.037.81-1.993 1.826-2.158zm.11.479c-.809.106-1.461.866-1.446 1.681-.002 6.461-.001 12.923 0 19.385-.012.875.755 1.673 1.633 1.681 4.509.003 9.018.002 13.527 0 .859-.012 1.622-.769 1.633-1.63.003-6.496.002-12.992.001-19.488-.001-.903-.836-1.687-1.736-1.647C14.17.647 9.631.612 5.095.653z"/>
    <path fill="#fff" d="M5.139 1.31c.081-.016.163-.019.245-.021 4.458.001 8.916-.001 13.374.001.552-.008 1.046.486 1.029 1.039.002 6.465.001 12.929 0 19.394.006.544-.481 1.032-1.026 1.023-4.478-.001-8.955.002-13.433-.001-.565.012-1.056-.516-1.026-1.076-.001-6.447-.002-12.894.001-19.34a1.049 1.049 0 0 1 .836-1.019zm2.906 1.04c-.233.472-.23 1.075.042 1.531.281.443 1.053.334 1.194-.179l-.297-.114c-.117.264-.517.33-.657.051-.16-.363-.174-.827.043-1.17.18-.207.498-.109.629.103.094-.047.189-.093.286-.135-.19-.504-.987-.566-1.239-.088zm3.94-.306c-.252.043-.41.274-.475.504-.13.431-.117.927.108 1.324.229.404.923.377 1.111-.052a1.735 1.735 0 0 0-.003-1.469c-.13-.273-.459-.385-.741-.307zm1.412.164c-.171.217-.17.585.062.761.213.178.519.177.727.359.155.16.052.45-.163.488-.222.049-.431-.099-.529-.291l-.306.11c.149.38.592.624.989.485.44-.123.557-.767.226-1.062-.203-.178-.492-.183-.717-.32-.121-.073-.125-.281.01-.342a.41.41 0 0 1 .53.129c.094-.027.188-.055.282-.086-.146-.458-.789-.548-1.112-.233zm1.831-.141c-.374.088-.473.639-.194.881.202.195.514.189.729.361.182.142.091.469-.136.503-.23.063-.429-.104-.542-.288l-.299.117c.164.397.655.651 1.057.448.381-.154.46-.713.19-1.001-.192-.191-.476-.213-.71-.327-.133-.052-.183-.259-.058-.346.181-.13.436-.055.569.111.092-.027.183-.057.274-.087-.124-.354-.541-.502-.88-.372zM9.73 2.062a235.3 235.3 0 0 0 .001 2.058l.32.001c.005-.299-.001-.598.003-.897.13-.002.26-.001.39.004.116.295.222.595.333.892l.352.003c-.114-.319-.239-.634-.354-.953.383-.205.42-.81.032-1.028-.336-.15-.721-.055-1.078-.08zM9.189 5.16c-.264.104-.372.394-.427.651-.076.39-.044.822.164 1.167.243.399.935.348 1.113-.087.201-.458.203-1.019-.025-1.466-.15-.297-.532-.377-.826-.264zm1.445-.008c-.003.685-.002 1.37-.001 2.054.107.002.215.002.322.003.005-.46-.005-.921.005-1.381.274.456.517.931.795 1.385.093-.003.186-.004.279-.005.002-.685.002-1.37 0-2.055a11.521 11.521 0 0 0-.322.001c-.004.434.005.867-.004 1.301-.257-.43-.497-.869-.749-1.301-.108-.001-.216-.002-.324-.001zm2.965 0c.231.394.496.77.714 1.171.017.294.001.588.007.882.108.002.216.002.323.001.006-.294-.01-.588.007-.882.219-.4.477-.78.711-1.173l-.377-.002c-.181.256-.322.538-.513.787-.164-.262-.319-.53-.49-.788l-.382.004zm-1.08 0c0 .685-.002 1.37.001 2.055.426.003.852.002 1.278.001l-.002-.3c-.316-.002-.633.002-.949-.002-.003-.585-.001-1.17-.001-1.755l-.327.001zm-1.566 3.074c-.2.037-.354.201-.426.385-.183.441-.17.964.036 1.395.197.43.906.452 1.121.028.235-.453.23-1.02.027-1.483-.129-.284-.467-.405-.758-.325zm1.356.016c-.001.685-.003 1.37.001 2.055.108.001.217.002.326.001.001-.459-.005-.917.003-1.375.273.454.516.924.79 1.377l.283-.001c-.002-.685-.001-1.371-.001-2.056l-.323-.002c-.003.436 0 .872-.002 1.308-.259-.432-.499-.875-.755-1.308l-.322.001zm-4.381 3.091v7.551c2.746.001 5.492.002 8.237-.001.002-2.517.002-5.033 0-7.55-2.746-.002-5.492-.001-8.237-.001zm-.37 8.724c-.245.273-.129.754.224.873.245.105.705.16.621.531-.127.363-.646.216-.762-.086a2.104 2.104 0 0 0-.302.128c.169.365.595.612.993.471.419-.124.553-.716.261-1.026-.195-.209-.503-.21-.739-.348-.136-.069-.142-.286-.001-.352.185-.106.41-.021.54.131l.265-.08c-.133-.457-.78-.555-1.099-.243zm2.495.108a1.685 1.685 0 0 0-.027 1.523c.208.437.92.429 1.148.015.13-.229.079-.503.085-.754a40.485 40.485 0 0 0-.697 0c-.001.107 0 .214.001.322.125.002.251.001.376.002.097.383-.514.571-.656.216-.126-.362-.14-.8.053-1.14.162-.239.527-.143.629.104.103-.04.205-.081.305-.126-.161-.514-.933-.612-1.217-.161zm-.966-.25c.002.686-.001 1.372.002 2.058.11.002.22.002.331.003-.003-.687.002-1.373-.002-2.06-.11-.001-.22-.002-.33-.001zm2.626 0c-.003.687-.002 1.374-.001 2.06h.322c.002-.463-.001-.926.001-1.389.265.458.524.921.783 1.383.098.005.196.007.295.008 0-.687.004-1.374-.002-2.061l-.324-.001c-.001.437-.001.874.001 1.311-.255-.428-.49-.869-.748-1.294-.104-.036-.219-.012-.327-.017zm2.409.001c-.227.689-.475 1.371-.702 2.06l.346-.002c.068-.194.127-.392.21-.581.21.003.42.001.63.003.078.19.135.388.209.579l.346.001c-.24-.686-.469-1.375-.712-2.06a11.797 11.797 0 0 0-.326.001zm1.347-.003c.003.687-.003 1.374.003 2.061.426.002.852.002 1.278 0l-.003-.303c-.318-.003-.635.002-.953-.002-.004-.585.002-1.169-.002-1.753a17.472 17.472 0 0 0-.323-.003zM3 1.938l.035.061C3 8.088 3.03 14.179 3.02 20.269c.007.614-.02 1.229.022 1.842L3 22.044V1.939z"/>
    <path fill="#fff" d="M10.053 2.385c.182.005.369-.022.547.023.196.064.217.369.022.452-.18.065-.38.021-.569.032a17.138 17.138 0 0 1-.001-.507zM11.989 2.403c.163-.108.407-.024.475.159.144.35.135.775-.036 1.114-.131.235-.514.173-.582-.082-.125-.379-.158-.886.143-1.192zM9.34 5.466c.247-.103.446.133.481.356.061.35.082.797-.204 1.056-.258.143-.506-.113-.527-.364-.047-.345-.087-.839.251-1.047zM10.996 8.566c.173-.087.395.018.449.201.127.345.128.754-.043 1.083-.13.247-.528.177-.588-.089-.115-.379-.166-.927.181-1.196zM12.611 12.156c.327-.092.641.284.497.59-.107.31-.577.36-.753.087-.181-.236-.039-.624.256-.676zM12.071 13.166c.175-.064.402-.138.554.016.301.289.38.72.498 1.103.3.197.6.393.894.597l-.14.211c-.406-.183-.964-.158-1.199-.593-.07.227-.137.455-.196.685.17.33.382.64.53.981.145.534.286 1.069.431 1.603-.164.06-.327.122-.492.177-.166-.479-.317-.965-.477-1.447-.063-.224-.278-.348-.415-.523-.273.697-.538 1.396-.81 2.093-.123-.088-.245-.176-.37-.261.168-.754.38-1.499.541-2.254-.124-.518.008-1.05.186-1.538-.101.016-.202.034-.303.052-.047.366-.071.736-.117 1.102l-.272.045c-.001-.458-.002-.916 0-1.375.368-.253.739-.51 1.156-.675zM14.289 20.493c.074.188.137.38.203.571-.136.002-.271.002-.407 0 .064-.192.135-.381.204-.571zM3.06 22.183c.057.052.066.11.028.176-.051-.052-.061-.11-.028-.176zM20.55 23.221c-.024-.096.069-.165.145-.2a.352.352 0 0 1-.145.2zM19.23 24c.04-.073.093-.085.16-.037l-.02.037h-.139z"/>
    <path fill="#c6c7c8" d="M4.643.091c.048-.055.106-.064.173-.028-.051.054-.109.063-.173.028z"/>
    <path fill="#2b2e34" d="M4.816.063l.029-.014C5.11.014 5.377 0 5.644.006l12.337.001c.406.003.814-.015 1.219.031l.074.024c.053.057.112.064.177.023.77.237 1.383.901 1.588 1.677V22.3c-.081.256-.176.51-.345.722-.075.035-.169.103-.145.2-.304.351-.695.652-1.16.742-.066-.048-.12-.036-.16.037H4.807c-.8-.205-1.516-.826-1.72-1.641.038-.066.028-.124-.028-.176a1.99 1.99 0 0 0-.018-.074c-.042-.613-.015-1.228-.022-1.842.01-6.09-.02-12.18.015-18.27.06-.835.697-1.556 1.455-1.862l.124-.017.03-.028c.064.035.121.026.173-.028zm.169.111C3.969.34 3.14 1.296 3.159 2.332c.001 6.481-.003 12.961.002 19.441.001 1.178 1.103 2.194 2.275 2.12h12.856c.34-.003.686.02 1.017-.073.928-.237 1.637-1.138 1.626-2.1.001-6.481.003-12.961-.001-19.442.004-1.144-1.033-2.16-2.176-2.133L5.696.144c-.237.001-.475-.009-.71.028z"/>
    <path fill="#2b2e34" d="M5.095.653C9.631.612 14.17.647 18.707.635c.9-.04 1.735.744 1.736 1.647.001 6.496.002 12.992-.001 19.488-.011.861-.774 1.617-1.633 1.63-4.509.002-9.018.003-13.527 0-.878-.008-1.645-.806-1.633-1.681-.001-6.462-.002-12.923 0-19.385-.015-.815.637-1.575 1.446-1.681zm.044.657a1.05 1.05 0 0 0-.836 1.019c-.003 6.447-.002 12.894-.001 19.34-.03.56.461 1.088 1.026 1.076 4.478.003 8.955.001 13.433.001.545.008 1.032-.479 1.026-1.023.001-6.464.002-12.929 0-19.394.017-.553-.477-1.047-1.029-1.039-4.458-.002-8.916 0-13.374-.001a1.439 1.439 0 0 0-.245.021z"/>
    <path fill="#2b2e34" d="M8.045 2.35c.252-.478 1.049-.417 1.239.088a5.747 5.747 0 0 0-.286.135c-.131-.212-.448-.309-.629-.103-.217.343-.203.807-.043 1.17.14.279.54.213.657-.051l.297.114c-.142.513-.913.622-1.194.179-.272-.456-.275-1.059-.042-1.531zM11.985 2.044c.282-.077.612.034.741.307.219.452.219 1.016.003 1.469-.188.43-.882.456-1.111.052-.225-.398-.238-.893-.108-1.324.066-.23.223-.461.475-.504zm.004.359c-.3.305-.267.812-.143 1.192.068.255.451.317.582.082.171-.34.179-.764.036-1.114-.068-.183-.313-.267-.475-.159zM13.397 2.208c.323-.316.966-.225 1.112.233-.094.03-.188.059-.282.086a.41.41 0 0 0-.53-.129c-.135.06-.132.269-.01.342.225.136.514.142.717.32.331.295.214.938-.226 1.062-.397.139-.84-.104-.989-.485.102-.038.204-.075.306-.11.097.192.306.34.529.291.215-.038.318-.328.163-.488-.208-.182-.515-.181-.727-.359-.232-.176-.232-.544-.062-.761zM15.228 2.067c.338-.13.755.019.88.372-.091.031-.182.06-.274.087-.132-.166-.387-.242-.569-.111-.125.087-.075.294.058.346.234.114.518.136.71.327.27.288.191.846-.19 1.001-.403.203-.893-.051-1.057-.448l.299-.117c.112.184.312.351.542.288.227-.034.318-.361.136-.503-.215-.172-.527-.166-.729-.361-.278-.242-.18-.794.194-.881zM9.73 2.062c.357.025.742-.07 1.078.08.388.219.351.824-.032 1.028.115.319.24.633.354.953l-.352-.003c-.111-.297-.218-.596-.333-.892a7.245 7.245 0 0 0-.39-.004c-.004.299.002.598-.003.897-.107.001-.214 0-.32-.001a235.3 235.3 0 0 1-.001-2.058zm.323.323c-.002.169-.002.338.001.507.188-.011.388.033.569-.032.194-.083.174-.388-.022-.452-.178-.045-.365-.018-.547-.023zM9.189 5.16c.293-.113.675-.033.826.264.228.447.226 1.009.025 1.466-.178.435-.87.486-1.113.087-.208-.345-.24-.777-.164-1.167.054-.257.162-.547.427-.651zm.151.306c-.337.208-.298.702-.251 1.047.021.251.269.507.527.364.286-.259.265-.706.204-1.056-.034-.223-.234-.459-.481-.356zM10.634 5.152c.108-.001.216-.001.324.001.252.432.492.871.749 1.301.009-.434.001-.867.004-1.301l.322-.001c.002.685.002 1.37 0 2.055a12.98 12.98 0 0 0-.279.005c-.278-.454-.521-.929-.795-1.385-.009.46 0 .921-.005 1.381-.108-.001-.215-.001-.322-.003-.001-.685-.002-1.37.001-2.054zM13.599 5.152l.382-.004c.171.258.326.526.49.788.19-.249.332-.531.513-.787l.377.002c-.234.393-.491.772-.711 1.173-.017.294-.001.588-.007.882a8.688 8.688 0 0 1-.323-.001c-.006-.294.01-.588-.007-.882-.218-.402-.483-.777-.714-1.171zM12.519 5.152l.327-.001c.001.585-.002 1.17.001 1.755.316.003.633-.001.949.002l.002.3c-.426.001-.852.002-1.278-.001-.003-.685-.001-1.37-.001-2.055zM10.953 8.226c.291-.08.63.041.758.325.203.463.208 1.03-.027 1.483-.216.424-.924.402-1.121-.028a1.737 1.737 0 0 1-.036-1.395c.072-.184.226-.348.426-.385zm.043.34c-.347.268-.297.816-.181 1.196.06.265.459.335.588.089.171-.33.169-.739.043-1.083-.054-.183-.277-.288-.449-.201zM12.309 8.242l.322-.001c.257.433.496.877.755 1.308.002-.436-.002-.872.002-1.308l.323.002c0 .685-.001 1.371.001 2.056-.094 0-.189-.001-.283.001-.274-.453-.517-.923-.79-1.377-.008.458-.002.916-.003 1.375-.109.001-.218 0-.326-.001-.004-.685-.002-1.371-.001-2.055zM7.928 11.333c2.746 0 5.492-.001 8.237.001.002 2.517.002 5.033 0 7.55-2.746.002-5.492.001-8.237.001v-7.551zm4.683.823c-.295.053-.437.44-.256.676.175.273.646.223.753-.087.144-.306-.17-.682-.497-.59zm-.54 1.01c-.417.165-.788.422-1.156.675-.002.458-.001.916 0 1.375.09-.015.181-.031.272-.045.047-.366.07-.736.117-1.102.101-.018.202-.036.303-.052-.178.488-.311 1.02-.186 1.538-.161.755-.373 1.5-.541 2.254.124.086.247.174.37.261.272-.697.537-1.396.81-2.093.137.175.352.299.415.523.16.482.31.968.477 1.447.165-.055.328-.118.492-.177-.145-.534-.286-1.069-.431-1.603-.148-.341-.36-.651-.53-.981.059-.23.125-.458.196-.685.235.435.793.41 1.199.593l.14-.212c-.294-.204-.595-.4-.894-.597-.117-.383-.197-.814-.498-1.103-.152-.154-.379-.08-.554-.016zM7.558 20.057c.319-.312.966-.214 1.099.243l-.265.08c-.13-.152-.355-.237-.54-.131-.141.066-.135.283.001.352.236.137.544.139.739.348.292.31.159.902-.261 1.026-.398.142-.824-.105-.993-.471.097-.05.197-.094.302-.128.116.302.635.449.762.086.084-.372-.376-.427-.621-.531-.352-.119-.469-.6-.224-.873zM10.053 20.165c.284-.452 1.056-.353 1.217.161a7.257 7.257 0 0 1-.305.126c-.102-.247-.467-.344-.629-.104-.193.341-.179.779-.053 1.14.142.355.753.167.656-.216-.125-.002-.251-.001-.376-.002l-.001-.322c.232-.002.465-.002.697 0-.006.251.045.525-.085.754-.229.414-.94.422-1.148-.015a1.688 1.688 0 0 1 .027-1.523zM9.087 19.915c.11-.001.22 0 .33.001.004.687-.001 1.373.002 2.06-.11-.001-.221-.001-.331-.003-.002-.686.001-1.373-.002-2.058zM11.713 19.915c.108.005.223-.019.327.017.258.426.493.866.748 1.294-.002-.437-.001-.874-.001-1.311.108-.001.216-.001.324.001.006.687.002 1.374.002 2.061a7.26 7.26 0 0 1-.295-.008c-.259-.462-.517-.925-.783-1.383-.002.463.001.926-.001 1.389h-.322c-.001-.686-.002-1.373.001-2.06zM14.122 19.916c.108-.002.217-.002.326-.001.243.685.472 1.374.712 2.06l-.346-.001c-.074-.191-.132-.389-.209-.579-.21-.002-.42.001-.63-.003-.083.189-.142.387-.21.581l-.346.002c.227-.689.476-1.371.702-2.06zm.167.577c-.069.19-.14.379-.204.571.136.002.271.002.407 0-.065-.191-.129-.383-.203-.571zM15.469 19.913l.323.003c.004.584-.002 1.168.002 1.753.318.004.635-.001.953.002l.003.303c-.426.002-.852.002-1.278 0-.005-.687.001-1.374-.003-2.061z"/>
    <path fill="#d8d8d9" d="M4.489.136l.124-.017-.124.017z"/>
</svg>
