<svg xmlns="http://www.w3.org/2000/svg" width="24" height="24">
    <path fill="#0c479d" d="M10.717 0h2.546c2.378.339 4.698 1.251 6.523 2.838-1.133 1.149-2.281 2.284-3.421 3.427-.509-.74-.89-1.569-.965-2.474-.082-.78-1.294-1.064-1.667-.351-.223.613-.129 1.319.103 1.919.277.022.552.059.827.107-.106.728-.511 1.377-.753 2.069a2.24 2.24 0 0 0-2.183.536c-.556.742-1.028 1.546-1.586 2.288.278-1.666 1.727-3.343.835-5.036-.768 1.39-1.491 2.807-2.273 4.19-1.82.145-3.549 1.214-4.403 2.841.839.995 2.087 1.503 3.288 1.912-.271.363-.479.801-.856 1.064-1.036.37-2.159-.176-2.911-.886-.293-.235-.473-.725-.909-.695-.383.033-.577.493-.38.81.548 1.349 2.101 1.829 3.395 2.143-1.028 1.03-2.053 2.061-3.087 3.085-1.585-1.82-2.491-4.133-2.838-6.502v-2.546C.205 9.707.376 8.66.779 7.68 2.325 3.515 6.334.52 10.718.001zM17.155 8.224a891.147 891.147 0 0 1 4.01-4.007c1.582 1.82 2.49 4.132 2.836 6.5v2.547c-.509 4.393-3.51 8.41-7.68 9.959-.972.402-2.013.569-3.037.777h-2.547c-2.375-.339-4.696-1.251-6.519-2.837 1.45-1.458 2.906-2.913 4.362-4.366.728-.027 1.458.03 2.185-.033l.145-.334c-.247-.421-.656-.7-1.115-.848.333-.335.665-.67 1.002-1 .918-.025 1.837-.018 2.755-.047-.694.741-.342 2.091.717 2.221 1.852.082 3.713.009 5.568.035.725.05 1.58-.37 1.658-1.163.121-.741-.51-1.33-1.191-1.458-.014-.891.018-1.782-.01-2.671-.007-.443-.408-.823-.849-.82-.74-.029-1.48-.001-2.221-.005a3.067 3.067 0 0 0-.067-2.45z"/>
    <path fill="#0c479d" d="M12.04 8.516c.544-.593 1.333-.034 1.947.12-.107.1-.214.198-.317.303-.811-.077-1.092.809-1.414 1.372-.407.481-.856.925-1.304 1.367a6.553 6.553 0 0 1-.638-.642 47.113 47.113 0 0 1 1.726-2.52zM12.982 12.398c.449-.45.891-.909 1.359-1.341-.013.45-.008.9-.018 1.35a6.987 6.987 0 0 1-1.341-.009z"/>
    <path fill="#ce252c" d="M19.786 2.838c.498.419.961.88 1.379 1.379a891.147 891.147 0 0 0-4.01 4.007c-.95.933-1.881 1.885-2.813 2.833-.468.432-.91.891-1.359 1.341-.734.724-1.46 1.456-2.187 2.185-.337.33-.669.665-1.002 1-.407.403-.809.81-1.214 1.214a1632.372 1632.372 0 0 0-4.362 4.366c-.5-.417-.961-.879-1.379-1.377 1.034-1.024 2.06-2.054 3.087-3.085 1.679-1.671 3.35-3.35 5.027-5.023a20.77 20.77 0 0 0 1.304-1.367c.52-.404.957-.9 1.414-1.372.103-.104.21-.202.317-.303.8-.783 1.583-1.581 2.377-2.371 1.14-1.143 2.288-2.277 3.421-3.427z"/>
    <path fill="#fff" d="M13.732 3.44c.373-.713 1.585-.429 1.667.351.076.905.457 1.735.965 2.474-.793.79-1.577 1.589-2.377 2.371-.614-.154-1.403-.713-1.947-.12a47.709 47.709 0 0 0-1.726 2.52c.197.228.411.442.638.642-1.677 1.673-3.348 3.352-5.027 5.023-1.294-.314-2.847-.794-3.395-2.143-.197-.317-.004-.777.38-.81.436-.03.616.46.909.695.753.71 1.876 1.256 2.911.886.377-.263.584-.702.856-1.064-1.201-.41-2.45-.917-3.288-1.912.854-1.627 2.584-2.696 4.403-2.841.783-1.383 1.505-2.799 2.273-4.19.892 1.693-.557 3.37-.835 5.036.558-.742 1.03-1.546 1.586-2.288a2.237 2.237 0 0 1 2.183-.536c.241-.691.647-1.341.753-2.069a8.906 8.906 0 0 0-.827-.107c-.232-.6-.326-1.306-.103-1.919zM14.341 11.057c.933-.948 1.864-1.9 2.813-2.833.36.773.387 1.659.067 2.45.741.004 1.482-.023 2.221.005.441-.003.843.377.849.82.029.89-.004 1.78.01 2.671.681.128 1.312.717 1.191 1.458-.078.793-.933 1.213-1.658 1.163-1.855-.026-3.716.047-5.568-.035-1.059-.13-1.411-1.48-.717-2.221-.918.029-1.837.022-2.755.047.728-.729 1.453-1.461 2.187-2.185.446.042.895.053 1.341.009.01-.45.005-.9.018-1.35z"/>
    <path fill="#fff" d="M12.257 10.311c.322-.563.603-1.449 1.414-1.372-.457.472-.893.968-1.414 1.372zM8.579 16.797c.406-.404.807-.811 1.214-1.214.459.147.869.427 1.115.848l-.145.334c-.727.063-1.457.005-2.185.033z"/>
</svg>
