<svg xmlns="http://www.w3.org/2000/svg" width="24" height="24">
    <path fill="#ef2c30" d="M11.731 0h.42c3.257.078 6.479 1.475 8.671 3.899 1.92 2.14 3.124 4.973 3.122 7.864.139 4.217-2.21 8.41-5.868 10.511-3.642 2.227-8.508 2.208-12.162.016C2.357 20.237.135 16.234-.001 12.16v-.414C.156 7.522 2.572 3.393 6.348 1.421A12.979 12.979 0 0 1 11.73.001zm-.871 2.974c-2.407.275-4.702 1.597-6.114 3.572-2.4 3.01-2.426 7.607-.151 10.692 2.192 3.204 6.577 4.643 10.243 3.368 1.903-.635 3.614-1.878 4.71-3.569 2.161-3.101 2.053-7.614-.34-10.559-1.864-2.582-5.209-3.925-8.348-3.505z"/>
    <path fill="#fff" d="M10.86 2.974c3.139-.42 6.485.923 8.348 3.505 2.393 2.945 2.501 7.458.34 10.559-1.096 1.691-2.807 2.934-4.71 3.569-3.666 1.274-8.051-.164-10.243-3.368-2.275-3.085-2.249-7.682.151-10.692 1.412-1.975 3.707-3.298 6.114-3.572zM8.543 8.299c-1.798 1.223-3.578 2.471-5.366 3.709 1.786 1.232 3.565 2.473 5.346 3.712.325.287.946.108.978-.352-.118-.661-.384-1.286-.559-1.934 3.814-.005 7.627 0 11.441-.002v-2.84c-3.814 0-7.627.004-11.44-.001.173-.656.451-1.286.558-1.957-.061-.428-.638-.596-.958-.334z"/>
    <path d="M8.543 8.299c.319-.263.896-.095.958.334-.107.671-.385 1.301-.558 1.957 3.812.005 7.626.001 11.44.001v2.84c-3.814.002-7.627-.002-11.441.002.175.648.442 1.273.559 1.934-.032.46-.653.638-.978.352-1.781-1.238-3.56-2.479-5.346-3.712 1.788-1.238 3.569-2.486 5.366-3.709z"/>
</svg>
