<svg xmlns="http://www.w3.org/2000/svg" width="24" height="24">
    <path d="M10.969 0h2.055c.392.072.791.097 1.182.178 2.875.522 5.523 2.153 7.304 4.467 1.425 1.81 2.256 4.042 2.49 6.325v2.054c-.188 1.711-.668 3.403-1.536 4.898-1.534 2.728-4.173 4.811-7.19 5.651-.732.219-1.491.32-2.244.428h-2.054c-1.735-.187-3.444-.687-4.957-1.567-2.696-1.544-4.757-4.163-5.592-7.158-.218-.732-.32-1.49-.427-2.244v-2.055c.105-.756.209-1.516.427-2.25a12.058 12.058 0 0 1 5.129-6.876C7.174.799 9.058.206 10.969.001zM9.218.547a11.738 11.738 0 0 0-4.557 2.237C2.283 4.664.676 7.494.309 10.507c-.421 3.181.538 6.507 2.586 8.977.74-.885 1.485-1.766 2.222-2.653.513-.61 1.039-1.222 1.538-1.837 1.763-2.08 3.509-4.176 5.263-6.264.353-.419.707-.839 1.057-1.26 1.602-1.911 3.212-3.815 4.804-5.733C15.217.264 12.084-.148 9.217.549zM19.322 6.64l-1.124 1.342c-.591.704-1.183 1.407-1.772 2.113v.023c-.533.577-1.014 1.202-1.53 1.796-.436.527-.882 1.045-1.315 1.575-.482.569-.967 1.138-1.437 1.715-.303.346-.599.7-.888 1.058-.493.567-.971 1.154-1.458 1.73-1.195 1.424-2.393 2.847-3.585 4.274 2.555 1.463 5.672 1.885 8.531 1.196a11.734 11.734 0 0 0 4.566-2.224c2.392-1.881 4.007-4.721 4.376-7.744a11.794 11.794 0 0 0-2.584-8.975c-.595.706-1.187 1.415-1.782 2.122z"/>
    <path fill="#fff" d="M9.218.547c2.867-.697 6-.285 8.562 1.188-1.592 1.918-3.203 3.822-4.804 5.733-.375-.561-.93-1.019-1.595-1.179-.715-.187-1.522-.105-2.128.34a3.603 3.603 0 0 0-1.454 2.714c.502-.002 1.004.015 1.506-.009.075-.641.519-1.272 1.185-1.38.591-.106 1.144.28 1.428.776-1.754 2.088-3.5 4.184-5.263 6.264a5.39 5.39 0 0 1-.022-.696V6.339c-.414-.01-.829.001-1.243-.006-.116.002-.25-.015-.34.076-.454.383-.909.765-1.365 1.146-.014.619-.008 1.238-.003 1.857.487-.383.945-.804 1.43-1.191.011 2.87 0 5.74.006 8.61-.737.887-1.482 1.768-2.222 2.653C.848 17.014-.111 13.688.31 10.507c.367-3.012 1.973-5.843 4.352-7.723A11.738 11.738 0 0 1 9.219.547zM19.322 6.64c.595-.706 1.187-1.415 1.782-2.122a11.793 11.793 0 0 1 2.584 8.975c-.369 3.023-1.984 5.863-4.376 7.744a11.72 11.72 0 0 1-4.566 2.224c-2.859.689-5.976.267-8.531-1.196 1.192-1.427 2.389-2.85 3.585-4.274a2.902 2.902 0 0 0 2.343-.268c1.414-.84 1.871-2.723 1.44-4.235.433-.529.879-1.048 1.315-1.575.045.684.008 1.371.021 2.055-.004.808-.032 1.65.302 2.406a2.959 2.959 0 0 0 2.057 1.696c1.015.226 2.082-.229 2.729-1.019.517-.62.705-1.447.712-2.239.002-1.75.001-3.501 0-5.251-.001-.764-.163-1.56-.628-2.183-.208-.292-.495-.511-.767-.739z"/>
    <path fill="#fff" d="M16.426 10.095c.589-.705 1.181-1.409 1.772-2.113.678.189 1.005.922 1.006 1.577.014 1.657.001 3.315.006 4.972 0 .495-.065 1.032-.401 1.419-.476.582-1.479.589-1.967.018-.313-.351-.405-.838-.409-1.295-.007-1.519.007-3.038-.007-4.557v-.023zM11.258 16.261c.289-.358.585-.712.888-1.058-.113.461-.435.889-.888 1.058z"/>
    <path fill="gray" d="M9.254 6.628c.606-.445 1.413-.526 2.128-.34.665.16 1.22.619 1.595 1.179-.351.422-.704.841-1.058 1.26-.284-.496-.837-.882-1.428-.776-.666.108-1.11.74-1.185 1.38-.502.024-1.004.007-1.506.009a3.606 3.606 0 0 1 1.454-2.714zM5.051 6.408c.09-.091.224-.075.34-.076.414.007.829-.004 1.243.006v7.959a5.39 5.39 0 0 0 .022.696c-.499.616-1.024 1.227-1.537 1.837-.006-2.87.006-5.74-.006-8.61-.485.386-.942.807-1.43 1.191-.005-.619-.011-1.238.003-1.857.456-.381.911-.762 1.365-1.146zM18.198 7.982c.374-.448.75-.893 1.124-1.342.272.228.559.447.767.739.465.623.626 1.418.628 2.183 0 1.75.002 3.501 0 5.251-.007.792-.194 1.619-.712 2.239-.646.789-1.714 1.245-2.729 1.019a2.96 2.96 0 0 1-2.057-1.696c-.334-.756-.306-1.598-.302-2.406-.012-.685.025-1.372-.021-2.055.515-.594.997-1.22 1.53-1.796.014 1.519 0 3.038.007 4.557.003.457.096.944.409 1.295.487.571 1.491.563 1.967-.018.337-.388.402-.925.401-1.419-.005-1.657.008-3.315-.006-4.972-.001-.655-.329-1.388-1.006-1.577zM12.146 15.203c.469-.578.954-1.147 1.437-1.715.431 1.512-.025 3.395-1.44 4.235a2.902 2.902 0 0 1-2.343.268c.487-.576.965-1.162 1.458-1.73.453-.169.774-.597.888-1.058z"/>
</svg>
