<svg xmlns="http://www.w3.org/2000/svg" width="24" height="24">
    <path fill="#fff" d="M2.5 0h18.882v.872c-.058-.316-.259-.612-.559-.743-.228-.112-.486-.084-.732-.086H3.399A.971.971 0 0 0 2.5.666V0z"/>
    <path fill="#fff" d="M3.328.617c.138-.023.28-.014.419-.015C9.282.603 14.818.601 20.353.603c.245-.028.484.172.468.425.003 7.357.001 14.715.001 22.073a.414.414 0 0 1-.427.456c-5.65.004-11.301.001-16.951.001-.232.018-.452-.18-.438-.416V1.029a.4.4 0 0 1 .323-.413zm1.054 2.984c-.179.335-.116.797.186 1.042.385.328.952.25 1.355.539.234.203.065.583-.203.66-.466.197-.985-.039-1.266-.429-.151.096-.3.199-.448.301.47.647 1.437.965 2.143.517.531-.316.596-1.171.092-1.54-.395-.223-.868-.25-1.273-.449-.194-.089-.187-.388-.012-.492.397-.231.892-.037 1.19.269.138-.117.277-.233.414-.351-.336-.373-.845-.618-1.354-.566-.332.024-.67.197-.825.501zm6.549-.483c-.002 1.093-.001 2.187 0 3.28h2.397a50.05 50.05 0 0 0 0-.548c-.606-.002-1.211.001-1.817-.001v-.934c.322-.002.644 0 .966-.001a52.08 52.08 0 0 0 0-.559c-.322-.001-.644.001-.966-.001a78.433 78.433 0 0 1 0-.686c.591-.002 1.182 0 1.773-.001a50.05 50.05 0 0 0 0-.548H10.93zm-3.463.001a1802.92 1802.92 0 0 0 0 3.289h.57c.001-.433-.001-.866.001-1.299.535-.042 1.133.123 1.608-.198.483-.318.548-1.083.141-1.488-.218-.221-.536-.302-.838-.302-.494-.005-.988-.001-1.482-.002zm6.506 0a1802.92 1802.92 0 0 0 0 3.289h2.397v-.557c-.606-.003-1.211 0-1.817-.001v-.935c.322-.001.645.001.967-.001v-.558c-.322-.001-.644.001-.966-.001a76.389 76.389 0 0 1 0-.677c.591-.001 1.182.001 1.773-.001v-.558h-2.354zm3.053 0a1802.92 1802.92 0 0 0 0 3.289c.649-.018 1.378.106 1.937-.311.831-.594.848-1.985.068-2.628-.557-.476-1.332-.323-2.005-.351zM5.909 8.054v3.279h2.386v-.548H6.479c-.002-.91 0-1.82-.001-2.73a54.15 54.15 0 0 0-.57 0zm2.979 0v3.279h.569V8.055a53.96 53.96 0 0 0-.569 0zm1.44 0v3.28h.557c.003-.666 0-1.332.001-1.998.3.652.596 1.305.898 1.957.322-.652.628-1.313.95-1.965.003.669-.001 1.338.002 2.006h.557c-.002-1.093.02-2.186.011-3.279a57.429 57.429 0 0 0-.587 0c-.306.649-.614 1.297-.923 1.945-.307-.648-.612-1.297-.92-1.945a50.234 50.234 0 0 0-.549 0zm3.85 0v3.279h.569V8.055a53.96 53.96 0 0 0-.569 0zm1.204.001v.536c.297.002.594-.001.891.001.002.914-.001 1.827.001 2.741h.58c.002-.914-.001-1.828.001-2.741.301-.002.601 0 .902-.001v-.537h-2.376zm-.045 5.005a3.016 3.016 0 0 0-1.965.997c-.564.632-.863 1.458-.983 2.287-.216 1.468.041 3.125 1.124 4.213 1.018 1.064 2.814 1.21 4.004.351 1.151-.819 1.59-2.305 1.586-3.661.007-1.32-.375-2.772-1.475-3.601-.648-.49-1.491-.671-2.291-.587zM4.939 14.329c.289.337.575.675.867 1.009.538-.464 1.198-.812 1.916-.868.622-.052 1.312-.017 1.831.37.372.265.491.885.137 1.212-.301.247-.695.328-1.058.444-.818.244-1.629.595-2.257 1.188-.965.891-1.409 2.218-1.413 3.51h6.215v-1.375H6.636c.076-.538.506-.903.875-1.256.862-.748 2.121-.72 3.009-1.427.748-.634.946-1.801.463-2.652-.429-.779-1.3-1.205-2.153-1.329-1.394-.228-2.835.26-3.891 1.175z"/>
    <path fill="#fff" d="M8.038 3.689c.334 0 .668-.004 1.002.001.235 0 .489.182.469.437-.004.244-.243.405-.471.409-.333.006-.667.001-1 .001v-.848zM17.587 3.689c.434-.014.961-.028 1.253.358.31.437.336 1.128-.059 1.523-.321.297-.788.277-1.194.268V3.69zM15.508 14.478c.522-.068 1.083.098 1.442.492.509.537.67 1.304.709 2.021.034.851-.087 1.784-.669 2.447-.51.601-1.447.754-2.132.376-.435-.239-.728-.673-.888-1.133-.217-.629-.25-1.309-.183-1.967.066-.589.243-1.192.635-1.649.27-.325.666-.539 1.085-.586zM20.896 24c.256-.149.427-.414.486-.702V24h-.486zM2.5 23.499c.085.21.239.387.435.501H2.5v-.501z"/>
    <path fill="#231f20" d="M2.5.666a.973.973 0 0 1 .899-.623h16.692c.245.002.504-.026.732.086.3.131.501.427.559.743v22.427c-.059.288-.23.552-.486.702H2.936a1.022 1.022 0 0 1-.435-.501V.666zm.828-.049a.4.4 0 0 0-.323.413v22.113c-.015.236.206.435.438.416 5.65 0 11.301.003 16.951-.001a.415.415 0 0 0 .427-.456c0-7.358.002-14.715-.001-22.073.016-.253-.222-.453-.468-.425C14.817.602 9.281.604 3.746.603c-.14.001-.281-.008-.419.015z"/>
    <path fill="#231f20" d="M4.382 3.601c.155-.304.493-.477.825-.501.509-.051 1.018.193 1.354.566-.137.118-.276.234-.414.351-.298-.306-.792-.5-1.19-.269-.175.105-.182.403.012.492.405.2.878.226 1.273.449.504.369.439 1.224-.092 1.54-.706.449-1.673.13-2.143-.517.148-.102.297-.204.448-.301.281.39.8.626 1.266.429.267-.077.437-.457.203-.66-.403-.289-.97-.211-1.355-.539-.302-.244-.365-.706-.186-1.042zM10.931 3.118h2.354v.548c-.591.002-1.182-.001-1.773.001v.686c.322.002.644 0 .966.001v.559c-.322.002-.644-.001-.966.001v.934c.606.003 1.212 0 1.817.001v.548h-2.397v-3.28zM7.468 3.119c.494 0 .988-.003 1.482.002.302 0 .62.081.838.302.406.405.342 1.17-.141 1.488-.475.321-1.074.156-1.608.198-.002.433 0 .866-.001 1.299h-.57V3.119zm.57.57v.848c.333 0 .667.005 1-.001.227-.003.466-.164.471-.409.02-.255-.234-.436-.469-.437-.334-.006-.668-.001-1.002-.001zM13.974 3.119h2.354v.558c-.591.002-1.182 0-1.773.001v.677c.322.002.644 0 .966.001v.558c-.322.002-.645 0-.967.001v.935c.606.002 1.212-.001 1.817.001v.557c-.799.002-1.598.001-2.397 0a1802.92 1802.92 0 0 1 0-3.289zM17.027 3.119c.672.027 1.447-.125 2.005.351.78.643.763 2.034-.068 2.628-.559.416-1.288.292-1.937.311a1802.92 1802.92 0 0 1 0-3.289zm.56.57v2.148c.407.009.873.029 1.194-.268.394-.394.368-1.086.059-1.523-.292-.386-.818-.372-1.253-.358zM5.909 8.054h.57c.001.91-.001 1.82.001 2.73h1.816v.548H5.91V8.053zM8.888 8.054h.569v3.278c-.19.002-.38.002-.569 0V8.053zM10.328 8.054h.549c.307.648.612 1.297.92 1.945.309-.648.616-1.296.923-1.945.196-.002.391-.001.587 0 .009 1.093-.013 2.186-.011 3.279h-.557c-.003-.669.001-1.338-.002-2.006-.323.652-.628 1.313-.95 1.965-.302-.651-.598-1.305-.898-1.957-.002.666.001 1.332-.001 1.998h-.557c-.002-1.093-.001-2.186 0-3.28zM14.178 8.054h.569v3.278c-.19.002-.38.002-.569 0V8.053zM15.382 8.055c.792-.002 1.584-.001 2.376 0v.537c-.301.002-.601-.001-.902.001-.002.914.001 1.827-.001 2.741h-.58c-.002-.914.001-1.828-.001-2.741-.297-.002-.594.001-.891-.001a47.883 47.883 0 0 1 0-.536zM15.337 13.06c.8-.084 1.643.096 2.291.587 1.1.828 1.482 2.281 1.475 3.601.003 1.357-.435 2.842-1.586 3.661-1.19.859-2.985.712-4.004-.351-1.083-1.088-1.34-2.746-1.124-4.213.12-.829.419-1.655.983-2.287a3.016 3.016 0 0 1 1.965-.997zm.171 1.418a1.67 1.67 0 0 0-1.085.586c-.393.457-.569 1.06-.635 1.649-.067.658-.034 1.338.183 1.967.16.46.453.895.888 1.133.685.378 1.622.225 2.132-.376.582-.663.702-1.596.669-2.447-.039-.717-.2-1.483-.709-2.021-.36-.394-.92-.56-1.442-.492zM4.939 14.329c1.056-.915 2.498-1.403 3.891-1.175.853.124 1.723.55 2.153 1.329.483.851.286 2.018-.463 2.652-.887.707-2.147.678-3.009 1.427-.369.353-.799.719-.875 1.256h4.541v1.375H4.962c.003-1.292.448-2.619 1.413-3.51.628-.593 1.439-.944 2.257-1.188.363-.117.757-.197 1.058-.444.354-.326.234-.947-.137-1.212-.519-.387-1.209-.422-1.831-.37-.717.057-1.377.405-1.916.868-.291-.335-.578-.673-.867-1.009z"/>
</svg>
