<svg xmlns="http://www.w3.org/2000/svg" width="24" height="24">
    <path d="M3.481 0h17.23c.569.168 1.035.68 1.01 1.296.013 7.068-.002 14.137.007 21.205.067.662-.36 1.36-1.05 1.454l-.204-.094-.017-.008c.584-.062 1.122-.533 1.099-1.151.012-7.101.001-14.202.005-21.303.066-.655-.491-1.275-1.158-1.235C14.902.155 9.4.162 3.898.161 3.253.098 2.632.636 2.665 1.296c-.009 7.225-.001 14.451-.004 21.677l-.161-.187V1.001C2.647.528 3.016.163 3.481 0z"/>
    <path d="M3.535.449C9.121.365 14.717.438 20.307.413c.513-.069 1.027.349.999.88.008 7.104.002 14.208.003 21.312.057.511-.382 1.002-.902.961-5.538 0-11.077.002-16.615 0-.512.029-.936-.457-.88-.958-.001-7.072.001-14.144-.001-21.215-.038-.41.212-.844.624-.944zm.082.465c-.202.066-.244.297-.237.482-.001 7.069-.002 14.139 0 21.208-.036.248.137.526.412.493 5.538.006 11.078.003 16.616.001.28.037.475-.234.433-.495 0-7.102.007-14.206-.004-21.308.034-.357-.357-.453-.636-.417C14.674.905 9.14.833 3.617.914z"/>
    <path d="M5.757 3.22h.66l.001 1.671c.409-.555.815-1.113 1.224-1.669.272-.002.543-.002.816-.002-.406.555-.813 1.109-1.214 1.667.472.859.951 1.713 1.423 2.572-.251.001-.503.001-.754.003-.372-.658-.734-1.322-1.104-1.981-.593.506-.343 1.303-.392 1.979h-.66V3.22zM9.465 3.227h2.446v.666h-1.784v1.054l1.363.001v.66l-1.364.001v1.19c.639.002 1.278 0 1.918.002v.659c-.86.002-1.719.002-2.579 0V3.227zM12.84 3.227l2.447-.001v.667h-1.785v1.054h1.364v.661l-1.364.001V6.8h1.918l-.001.661H12.84V3.227zM16.218 3.22c.59.01 1.181-.022 1.77.015.587.044 1.075.578 1.075 1.165.029.592-.469 1.15-1.057 1.197-.375.024-.751.006-1.126.009l-.001 1.854h-.661V3.22zm.662.668v1.05c.401-.015.813.05 1.207-.041.405-.165.399-.815-.015-.965-.39-.09-.796-.031-1.192-.044zM13.242 9.36c-.13-.413.461-.733.774-.471 1.397 1.004 2.766 2.045 4.158 3.055a517.318 517.318 0 0 1-4.156 3.07c-.295.257-.843 0-.787-.398.123-.506.336-.986.492-1.482-2.553-.002-5.107.001-7.661-.001a927.48 927.48 0 0 1 0-2.359c2.554-.002 5.107.001 7.661-.002-.152-.473-.346-.933-.481-1.412zM10.439 16.941c.623-.903 2.164-.606 2.429.456l-.615.211c-.165-.588-1.048-.769-1.327-.18-.284.751-.327 1.669.05 2.392.427.6 1.386.128 1.285-.574-.251-.006-.503-.006-.755-.007l.001-.693h1.391c.016.666.091 1.487-.528 1.927-.663.546-1.791.26-2.085-.555-.339-.948-.354-2.089.154-2.977zM13.893 16.462h.668c.001.567.002 1.135 0 1.703.502.005 1.005.003 1.507.003l.001-1.706h.669c.002 1.412.001 2.823 0 4.235a74.594 74.594 0 0 0-.669 0l-.001-1.85c-.502 0-1.004-.001-1.506.001v1.848l-.67.001c0-1.412-.002-2.824.001-4.235zM4.567 16.461c.764.076 1.639-.206 2.314.256.712.509.544 1.662-.217 2.039.251.644.496 1.29.74 1.937h-.705c-.239-.618-.473-1.237-.715-1.854l-.755.001v1.853h-.662c0-1.411-.001-2.822 0-4.232zm.662.667v1.051c.374-.013.758.046 1.125-.042.424-.152.414-.838-.018-.973-.363-.075-.739-.026-1.107-.036zM8.401 16.462h.66c.003 1.411 0 2.823.002 4.234l-.662.001v-4.235zM17.535 16.462h2.579v.666l-.961.002c0 1.189.001 2.378-.001 3.567h-.661c-.001-1.19.001-2.379-.001-3.568l-.955-.001a73.926 73.926 0 0 1 0-.666z"/>
    <path fill="#fff" d="M2.665 1.296C2.632.636 3.253.098 3.898.161 9.4.162 14.902.155 20.403.164c.667-.04 1.224.58 1.158 1.235-.004 7.101.007 14.202-.005 21.303.023.618-.515 1.089-1.099 1.151-5.601-.073-11.209-.015-16.812-.024-.473-.067-.814-.429-.984-.856.003-7.226-.005-14.452.004-21.677zm.87-.847c-.412.1-.662.534-.624.944.002 7.071 0 14.143.001 21.215-.056.501.368.987.88.958 5.538.002 11.077 0 16.615 0 .52.041.959-.45.902-.961-.001-7.104.005-14.208-.003-21.312.028-.531-.486-.949-.999-.88C14.717.438 9.121.365 3.535.449z"/>
    <path fill="#fff" d="M3.617.914C9.14.833 14.674.905 20.201.878c.279-.036.67.06.636.417.011 7.102.004 14.206.004 21.308.042.261-.153.532-.433.495-5.538.002-11.078.005-16.616-.001-.275.033-.448-.245-.412-.493-.002-7.069-.001-14.139 0-21.208-.007-.185.035-.416.237-.482zm2.14 2.306v4.24h.66c.049-.676-.201-1.473.392-1.979.37.659.732 1.323 1.104 1.981.251-.002.503-.002.754-.003-.472-.859-.951-1.713-1.423-2.572.401-.558.808-1.112 1.214-1.667-.273 0-.544 0-.816.002-.409.556-.815 1.114-1.224 1.669L6.417 3.22h-.66zm3.708.007V7.46c.86.002 1.719.002 2.579 0v-.659c-.64-.002-1.279 0-1.918-.002v-1.19l1.364-.001v-.66l-1.363-.001V3.893h1.784v-.666H9.465zm3.375 0v4.234h2.579l.001-.661h-1.918V5.609l1.364-.001v-.661h-1.364V3.893h1.785v-.667l-2.447.001zm3.378-.007v4.24h.661l.001-1.854c.375-.003.751.015 1.126-.009.588-.047 1.086-.605 1.057-1.197 0-.587-.488-1.121-1.075-1.165-.589-.037-1.18-.005-1.77-.015zm-2.976 6.14c.135.479.329.939.481 1.412-2.554.003-5.107 0-7.661.002a927.48 927.48 0 0 0 0 2.359c2.554.002 5.108-.001 7.661.001-.156.496-.369.976-.492 1.482-.056.398.492.655.787.398a517.318 517.318 0 0 0 4.156-3.07c-1.392-1.01-2.761-2.051-4.158-3.055-.313-.262-.904.058-.774.471zm-2.803 7.581c-.508.888-.493 2.029-.154 2.977.294.815 1.422 1.101 2.085.555.619-.44.544-1.261.528-1.927h-1.391l-.001.693c.252.001.504.001.755.007.101.702-.858 1.174-1.285.574-.377-.723-.334-1.641-.05-2.392.279-.589 1.162-.408 1.327.18l.615-.211c-.265-1.062-1.806-1.359-2.429-.456zm3.454-.479c-.003 1.411-.001 2.823-.001 4.235l.67-.001v-1.848c.502-.002 1.004-.001 1.506-.001l.001 1.85h.669c.001-1.412.002-2.823 0-4.235h-.669l-.001 1.706c-.502 0-1.005.002-1.507-.003.002-.568.001-1.136 0-1.703h-.668zm-9.326-.001c-.001 1.41 0 2.821 0 4.232h.662V18.84l.755-.001c.242.617.476 1.236.715 1.854h.705c-.244-.647-.489-1.293-.74-1.937.761-.377.929-1.53.217-2.039-.675-.462-1.55-.18-2.314-.256zm3.834.001v4.235l.662-.001c-.002-1.411.001-2.823-.002-4.234h-.66zm9.134 0v.666l.955.001c.002 1.189 0 2.378.001 3.568h.661c.002-1.189.001-2.378.001-3.567l.961-.002v-.666h-2.579z"/>
    <path fill="#fff" d="M16.88 3.888c.396.013.802-.046 1.192.044.414.15.42.8.015.965-.394.091-.806.026-1.207.041v-1.05zM5.229 17.128c.368.01.744-.039 1.107.036.432.135.442.821.018.973-.367.088-.751.029-1.125.042v-1.051z"/>
    <path fill="#020202" opacity=".87" d="M2.5 22.786l.161.187c.17.427.511.789.984.856.146.036.296.042.445.042 5.461.012 10.924.029 16.384-.01l.204.094-.163.045H3.581a1.5 1.5 0 0 1-1.081-.966v-.248z"/>
</svg>
