<svg xmlns="http://www.w3.org/2000/svg" width="24" height="24">
    <path fill="#fff" d="M3.128 0h17.741c.489.151.757.683.749 1.171v21.658c.008.488-.259 1.018-.748 1.171H3.132c-.49-.151-.759-.683-.75-1.17V1.171c-.009-.488.259-1.016.746-1.17zm.501.592c-.47.097-.75.592-.764 1.044-.002 6.893 0 13.787-.001 20.68 0 .402.195.827.56 1.02.2.11.435.087.654.089l16.127-.001c.55.007.921-.555.929-1.06.003-6.894 0-13.787.001-20.681 0-.402-.195-.827-.561-1.021-.215-.117-.466-.084-.7-.088-5.345 0-10.69.001-16.035 0a1.234 1.234 0 0 0-.211.017z"/>
    <path fill="#fff" d="M4.049 1.196c.069-.017.142-.019.213-.021h15.476c.564-.028.931.559.922 1.071.002 6.503.002 13.006 0 19.509.005.494-.331 1.064-.874 1.069H4.213c-.543-.004-.88-.574-.874-1.069-.002-6.487 0-12.974-.001-19.461-.012-.458.233-.982.71-1.098zm1.185 1.835c-.306.306-.289.878.057 1.148.334.274.793.301 1.148.536.237.141.193.533-.06.63-.375.169-.814-.057-.966-.422-.172.066-.345.127-.517.196.225.797 1.305 1.074 1.939.59.406-.306.456-.978.088-1.333-.33-.322-.815-.363-1.2-.585-.162-.087-.176-.335-.023-.437a.608.608 0 0 1 .847.237c.165-.058.332-.113.498-.168-.193-.767-1.297-.913-1.81-.391zm2.699-.256c-.007 1.042.001 2.083-.005 3.124.187-.003.374-.002.561-.001.005-.391 0-.782.003-1.172.443-.028.93.089 1.33-.157.506-.303.593-1.082.195-1.507-.212-.221-.532-.29-.828-.29-.419.001-.838-.003-1.257.003zm2.959.003c-.009 1.04-.001 2.08-.004 3.12.71-.002 1.42.001 2.13-.002.003-.18.003-.36-.001-.54-.521-.006-1.043 0-1.564-.003v-.787c.301-.001.603.001.905-.001.005-.178.005-.355.003-.533l-.908-.001v-.712c.489 0 .979.001 1.469-.001.003-.18.004-.36 0-.54-.677-.004-1.353-.005-2.03 0zm2.853 0c-.006 1.04.002 2.08-.004 3.12.71-.006 1.419.001 2.129-.003.007-.18.007-.36.002-.541-.523-.005-1.045 0-1.567-.002v-.787c.302-.001.604.001.906-.001.006-.177.006-.355.004-.532h-.911V3.32l1.468-.001c.008-.18.007-.361.002-.542-.677-.002-1.353-.005-2.03.002zm2.842-.003a541.495 541.495 0 0 0 0 3.122c.655-.032 1.416.137 1.957-.336.648-.603.658-1.772.048-2.406-.536-.516-1.333-.356-2.005-.381zM6.353 7.419c-.006 1.038-.002 2.077-.002 3.114.682.002 1.364.001 2.046 0v-.546c-.494-.004-.987 0-1.48-.002-.003-.855.003-1.711-.003-2.567a17.423 17.423 0 0 0-.56 0zm2.685-.001c-.003 1.038-.001 2.077-.001 3.116.188.001.377.002.566-.001.003-1.039.003-2.077 0-3.116a11.783 11.783 0 0 0-.564.001zm1.478-.001c-.007 1.039-.002 2.078-.003 3.117h.563c0-.627.006-1.253-.004-1.88.269.66.571 1.306.852 1.962.285-.655.597-1.299.854-1.966-.016.628-.004 1.256-.008 1.884.188.001.376.001.565-.001.003-1.039.005-2.078 0-3.117a24.39 24.39 0 0 0-.541 0c-.286.667-.599 1.322-.861 1.998-.264-.675-.574-1.331-.857-1.998a13.065 13.065 0 0 0-.56.001zm3.738-.002v3.12c.185-.002.37-.001.555-.001l-.001-3.119a25.577 25.577 0 0 0-.554 0zm1.274-.005c-.003.181-.003.363 0 .545.291.003.581 0 .871.002l.001 2.577h.563c.002-.859 0-1.718.001-2.577l.865-.001c0-.182.001-.364-.001-.546-.766-.001-1.533-.003-2.299 0zM5.33 11.526c-.241.038-.542.189-.541.47.001 2.893-.002 5.785.001 8.677.037.318.41.453.69.454h13.039c.28-.001.654-.136.69-.454.004-2.892.001-5.785.002-8.677-.001-.295-.323-.444-.577-.476-.543-.045-1.091.019-1.633-.034h-.063a7.682 7.682 0 0 1-1.204 0h-.062c-.4.033-.805.031-1.204.001l-.062-.002c-1.68.035-3.366.033-5.047.001l-.062-.001c-.4.033-.804.031-1.204.002l-.062-.002a7.897 7.897 0 0 1-1.24.001h-.033c-.474.053-.954-.016-1.428.04z"/>
    <path fill="#fff" d="M8.492 3.319c.305.015.618-.032.919.025.364.105.361.712-.003.814-.302.044-.611.009-.916.02V3.32zM17.147 3.318c.357.01.79-.075 1.052.233.349.442.348 1.161-.031 1.585-.264.282-.675.208-1.02.215l-.001-2.034z"/>
    <path d="M3.629.592c.069-.013.141-.016.211-.017 5.345.001 10.69 0 16.035 0 .234.004.486-.029.7.088.366.194.56.619.561 1.021-.001 6.893.001 13.787-.001 20.681-.008.505-.379 1.066-.929 1.06l-16.127.001c-.219-.001-.454.022-.654-.089-.365-.194-.56-.619-.56-1.02.001-6.893-.001-13.787.001-20.68.013-.452.294-.947.764-1.044zm.42.604c-.477.116-.722.64-.71 1.098.001 6.487-.001 12.974.001 19.461-.006.495.331 1.065.874 1.069h15.573c.543-.005.879-.575.874-1.069.002-6.503.002-13.006 0-19.509.009-.511-.359-1.098-.922-1.071H4.263a.945.945 0 0 0-.213.021z"/>
    <path d="M5.234 3.031c.513-.521 1.617-.375 1.81.391-.166.054-.333.11-.498.168a.608.608 0 0 0-.847-.237c-.153.102-.139.351.023.437.386.222.871.263 1.2.585.368.355.319 1.028-.088 1.333-.634.485-1.713.207-1.939-.59.171-.069.345-.13.517-.196.152.365.592.591.966.422.253-.097.298-.489.06-.63-.355-.234-.814-.262-1.148-.536-.346-.27-.363-.842-.057-1.148zM7.933 2.775c.419-.006.838-.001 1.257-.003.296 0 .615.069.828.29.397.425.311 1.204-.195 1.507-.401.245-.888.129-1.33.157-.002.39.002.781-.003 1.172-.187-.001-.374-.002-.561.001.006-1.041-.002-2.083.005-3.124zm.559.544v.858c.305-.01.614.024.916-.02.364-.102.367-.709.003-.814-.3-.057-.614-.01-.919-.025zM10.892 2.778c.676-.006 1.353-.004 2.03 0 .004.18.004.36 0 .54-.49.003-.979.001-1.469.001v.712l.908.001c.002.178.002.355-.003.533-.301.002-.603 0-.905.001v.787c.521.002 1.043-.003 1.564.003.004.18.004.36.001.54-.71.003-1.42 0-2.13.002.003-1.04-.005-2.08.004-3.12zM13.745 2.778c.676-.007 1.353-.004 2.03-.002.005.18.006.361-.002.542l-1.468.001v.712h.911c.002.178.002.355-.004.532-.302.003-.604 0-.906.001v.787c.522.002 1.044-.003 1.567.002.005.18.005.361-.002.541-.71.005-1.419-.002-2.129.003.006-1.04-.002-2.08.004-3.12zM16.587 2.775c.673.025 1.469-.135 2.005.381.61.633.6 1.802-.048 2.406-.541.473-1.301.304-1.957.336a464.139 464.139 0 0 1 0-3.122zm.56.543l.001 2.034c.345-.007.756.067 1.02-.215.379-.424.38-1.143.031-1.585-.262-.309-.695-.223-1.052-.233zM6.353 7.419c.187-.003.373-.003.56 0 .007.855 0 1.711.003 2.567.493.002.987-.002 1.48.002v.546H6.35c0-1.038-.004-2.076.002-3.114zM9.038 7.418c.188-.006.376-.006.564-.001.004 1.039.003 2.077 0 3.116-.188.003-.377.002-.566.001 0-1.039-.002-2.077.001-3.116zM10.516 7.417c.187-.005.374-.004.56-.001.283.667.592 1.323.857 1.998.262-.676.575-1.332.861-1.998.18-.002.36-.002.541 0 .005 1.039.004 2.078 0 3.117a35.45 35.45 0 0 1-.565.001c.004-.628-.009-1.256.008-1.884-.257.667-.568 1.311-.854 1.966-.281-.655-.584-1.301-.852-1.962.01.627.004 1.253.004 1.88h-.563c.001-1.039-.004-2.078.003-3.117zM14.254 7.415c.185-.001.369-.002.554 0 .002 1.04 0 2.079.001 3.119-.186 0-.371-.001-.555.001.002-1.04 0-2.08 0-3.12zM15.528 7.41c.766-.003 1.533-.002 2.299 0 .002.182.002.364.001.546l-.865.001c-.001.859.001 1.718-.001 2.577-.188.002-.375.001-.563 0l-.001-2.577c-.29-.001-.58.001-.871-.002a24.753 24.753 0 0 1 0-.545zM5.33 11.526c.473-.056.953.014 1.428-.04-.233.05-.441.231-.483.472-.06.347.327.676.66.564a.514.514 0 0 0 .331-.658c-.073-.204-.271-.33-.475-.379.412.031.829.033 1.24-.001-.233.051-.442.232-.484.473-.059.345.325.673.657.565.27-.076.444-.403.332-.666-.072-.192-.255-.31-.442-.37.4.03.804.031 1.204-.002-.232.055-.438.237-.478.478-.054.343.325.667.656.561.274-.076.448-.409.33-.674-.075-.19-.258-.307-.446-.364 1.68.031 3.367.034 5.047-.001-.232.052-.439.233-.482.473-.058.345.323.672.655.565.273-.075.444-.403.333-.667-.072-.192-.256-.31-.443-.37.399.03.804.031 1.204-.001-.232.055-.437.238-.477.478-.053.339.316.659.644.564.268-.068.447-.378.355-.643-.066-.207-.261-.339-.46-.399.399.031.804.032 1.204 0-.228.058-.433.24-.47.48-.052.34.32.659.648.561a.514.514 0 0 0 .349-.647c-.068-.206-.263-.337-.464-.393.542.053 1.09-.011 1.633.034.254.032.576.181.577.476-.001 2.892.002 5.785-.002 8.677-.036.318-.41.453-.69.454H5.482c-.28-.001-.653-.136-.69-.454-.003-2.892 0-5.785-.001-8.677-.001-.28.3-.432.541-.47zm.03 1.291a.587.587 0 0 0-.354.403c-.084.353.31.703.652.592a.518.518 0 0 0 .363-.452c.033-.335-.333-.658-.66-.543zm5.108-.005c-.348.1-.523.602-.227.855.224.263.68.194.82-.119.205-.366-.195-.857-.593-.735zm2.533.009c-.238.093-.414.371-.338.626.057.189.23.336.42.379a.512.512 0 0 0 .583-.432c.06-.349-.325-.701-.666-.573zm5.108-.007a.58.58 0 0 0-.367.434c-.06.348.331.677.665.562a.52.52 0 0 0 .355-.45c.03-.332-.326-.651-.652-.546zM5.493 14.083c-.384.004-.662.526-.383.822.205.28.673.265.841-.045.216-.325-.085-.788-.458-.777zm5.069.002c-.379.022-.637.544-.352.83.21.278.681.248.84-.067.207-.333-.113-.793-.488-.763zm2.578-.001c-.243.006-.444.219-.489.449-.045.268.178.513.428.569a.51.51 0 0 0 .584-.404c.066-.307-.216-.622-.524-.615zm3.796.001c-.377.023-.633.543-.351.829.203.266.649.256.822-.036.241-.331-.08-.827-.472-.793zm1.267 0c-.386.03-.632.573-.324.848.222.27.69.21.833-.109.185-.337-.141-.776-.509-.74zm-11.62 1.314a.59.59 0 0 0-.308.399c-.063.346.323.67.653.564a.513.513 0 0 0 .367-.478c.01-.344-.391-.644-.712-.486zm1.306-.014a.579.579 0 0 0-.342.414c-.063.343.318.665.647.565a.518.518 0 0 0 .372-.437c.041-.345-.345-.672-.677-.542zm1.266.002a.583.583 0 0 0-.336.417c-.057.341.32.659.647.561a.516.516 0 0 0 .375-.474c.011-.335-.365-.635-.686-.503zm3.804.012a.592.592 0 0 0-.307.399c-.063.345.322.668.652.564a.511.511 0 0 0 .368-.472c.014-.346-.39-.652-.713-.492zm2.572-.011a.584.584 0 0 0-.335.418c-.056.34.32.656.646.56a.516.516 0 0 0 .377-.475c.011-.335-.367-.636-.688-.503zm2.533.005a.584.584 0 0 0-.323.422c-.046.332.314.638.634.553a.513.513 0 0 0 .389-.478c.013-.34-.377-.643-.699-.498zm-12.707 1.26c-.334.109-.498.594-.209.839.227.262.69.19.826-.128.198-.372-.224-.851-.617-.711zm5.066.01c-.31.122-.462.571-.197.815.227.28.713.209.846-.127.19-.381-.258-.858-.649-.689zm2.576-.007a.584.584 0 0 0-.346.408c-.07.35.323.68.656.571a.511.511 0 0 0 .36-.437c.04-.342-.341-.667-.671-.542zm1.267.002a.584.584 0 0 0-.341.411c-.065.345.319.67.65.568a.513.513 0 0 0 .368-.443c.036-.343-.348-.665-.677-.536zm3.8.007c-.204.096-.362.325-.323.556.034.213.222.378.426.427a.51.51 0 0 0 .591-.444c.046-.353-.359-.688-.694-.539zM5.36 17.925a.581.581 0 0 0-.355.405c-.076.346.307.68.64.582a.512.512 0 0 0 .375-.442c.038-.338-.333-.659-.66-.544zm5.107-.005a.566.566 0 0 0-.378.463c-.024.256.19.481.428.537a.511.511 0 0 0 .589-.41c.071-.345-.3-.694-.639-.59zm2.534.008a.573.573 0 0 0-.353.446c-.03.264.194.498.441.548a.51.51 0 0 0 .577-.419c.067-.351-.323-.703-.665-.576zm5.107-.006a.578.578 0 0 0-.362.407c-.075.336.284.661.612.589a.513.513 0 0 0 .403-.449c.037-.335-.326-.653-.652-.547zM6.671 19.187a.57.57 0 0 0-.4.452c-.042.337.328.642.65.545a.51.51 0 0 0 .366-.403c.068-.336-.284-.677-.616-.594zm1.266.002a.57.57 0 0 0-.394.453c-.033.263.187.499.433.553a.513.513 0 0 0 .579-.386c.092-.344-.275-.712-.618-.62zm1.267.001c-.341.089-.531.57-.255.83.221.277.699.222.841-.105.2-.36-.197-.837-.586-.725zm5.109-.001a.574.574 0 0 0-.385.412c-.077.345.301.68.636.585a.513.513 0 0 0 .376-.415c.058-.335-.296-.671-.627-.582zm1.266.002c-.34.09-.529.57-.254.829.221.276.698.222.841-.104.2-.361-.198-.838-.587-.726zm1.267.001a.58.58 0 0 0-.375.42c-.066.338.298.659.625.578a.512.512 0 0 0 .387-.41c.067-.342-.3-.69-.637-.588z"/>
    <path fill="#ccc" d="M6.758 11.486h.033c.203.048.402.174.475.379a.514.514 0 0 1-.331.658c-.333.112-.72-.217-.66-.564.042-.24.25-.422.483-.472zM8.031 11.484l.062.002c.187.06.371.179.443.37.112.263-.061.59-.332.666-.332.108-.716-.219-.657-.565.042-.241.251-.423.484-.473zM9.297 11.484l.062.001c.188.057.371.174.446.364.118.265-.056.598-.33.674-.33.105-.71-.218-.656-.561.04-.241.247-.423.478-.478zM14.406 11.484l.062.002c.187.06.371.178.443.37.111.264-.06.593-.333.667-.332.107-.713-.221-.655-.565.043-.24.249-.422.482-.473zM15.672 11.485h.062c.2.06.394.192.46.399.092.264-.087.575-.355.643-.328.095-.697-.225-.644-.564.039-.24.245-.423.477-.478zM16.938 11.485h.063c.201.056.396.187.464.393a.514.514 0 0 1-.349.647c-.328.098-.7-.221-.648-.561.038-.24.242-.421.47-.48zM5.36 12.817c.327-.115.693.208.66.543a.518.518 0 0 1-.363.452c-.341.111-.735-.239-.652-.592a.59.59 0 0 1 .354-.403zM10.468 12.812c.397-.122.798.37.593.735-.14.313-.597.382-.82.119-.296-.253-.12-.754.227-.855zM13.001 12.821c.34-.128.726.225.666.573-.033.27-.312.485-.583.432a.58.58 0 0 1-.42-.379c-.076-.255.1-.533.338-.626zM18.109 12.814c.326-.105.683.214.652.546a.52.52 0 0 1-.355.45c-.333.115-.724-.214-.665-.562a.583.583 0 0 1 .367-.434zM5.493 14.083c.374-.011.674.451.458.777-.168.31-.636.325-.841.045-.279-.295-.001-.817.383-.822zM10.562 14.085c.375-.03.696.429.488.763-.16.315-.63.345-.84.067-.285-.286-.027-.808.352-.83zM13.14 14.084c.308-.008.59.308.524.615a.51.51 0 0 1-.584.404c-.25-.056-.474-.301-.428-.569.045-.23.246-.443.489-.449zM16.936 14.085c.391-.034.713.462.472.793-.173.292-.619.301-.822.036-.283-.285-.027-.805.351-.829zM18.203 14.085c.368-.036.694.403.509.74-.143.319-.611.379-.833.109-.308-.276-.062-.819.324-.848zM6.583 15.399c.321-.158.722.142.712.486a.511.511 0 0 1-.367.478c-.33.106-.717-.218-.653-.564a.586.586 0 0 1 .308-.399zM7.889 15.385c.333-.13.718.197.677.542a.518.518 0 0 1-.372.437c-.329.1-.71-.222-.647-.565a.58.58 0 0 1 .342-.414zM9.155 15.387c.322-.132.697.169.686.503a.515.515 0 0 1-.375.474c-.327.097-.704-.22-.647-.561a.585.585 0 0 1 .336-.417zM12.959 15.399c.323-.16.727.146.713.492a.515.515 0 0 1-.368.472c-.33.104-.714-.219-.652-.564a.59.59 0 0 1 .307-.399zM15.531 15.388c.321-.133.699.168.688.503a.516.516 0 0 1-.377.475c-.326.096-.702-.22-.646-.56a.588.588 0 0 1 .335-.418zM18.064 15.393c.322-.145.713.158.699.498a.513.513 0 0 1-.389.478c-.32.084-.68-.221-.634-.553a.582.582 0 0 1 .323-.422zM5.357 16.653c.393-.141.816.339.617.711-.136.318-.599.39-.826.128-.289-.245-.126-.73.209-.839zM10.423 16.663c.391-.169.839.308.649.689-.133.336-.619.407-.846.127-.264-.244-.113-.693.197-.815zM12.999 16.656c.33-.124.711.201.671.542a.513.513 0 0 1-.36.437c-.334.109-.727-.221-.656-.571a.584.584 0 0 1 .346-.408zM14.266 16.658c.33-.129.713.193.677.536a.513.513 0 0 1-.368.443c-.331.102-.715-.223-.65-.568a.583.583 0 0 1 .341-.411zM18.066 16.665c.335-.15.74.185.694.539a.51.51 0 0 1-.591.444c-.204-.048-.392-.214-.426-.427-.039-.231.119-.46.323-.556zM5.36 17.925c.327-.114.699.206.66.544a.51.51 0 0 1-.375.442c-.334.098-.717-.236-.64-.582a.583.583 0 0 1 .355-.405zM10.467 17.92c.339-.104.71.246.639.59a.511.511 0 0 1-.589.41c-.239-.056-.453-.281-.428-.537a.568.568 0 0 1 .378-.463zM13.001 17.928c.341-.127.732.225.665.576a.51.51 0 0 1-.577.419c-.247-.05-.471-.284-.441-.548a.573.573 0 0 1 .353-.446zM18.108 17.922c.327-.106.689.212.652.547a.512.512 0 0 1-.403.449c-.328.073-.686-.253-.612-.589a.578.578 0 0 1 .362-.407zM6.671 19.187c.333-.082.684.259.616.594a.51.51 0 0 1-.366.403c-.322.097-.692-.209-.65-.545a.568.568 0 0 1 .4-.452zM7.937 19.189c.344-.092.71.276.618.62a.512.512 0 0 1-.579.386c-.246-.054-.466-.29-.433-.553a.565.565 0 0 1 .394-.453zM9.204 19.19c.389-.112.786.365.586.725-.142.326-.621.381-.841.105-.276-.26-.085-.741.255-.83zM14.313 19.189c.331-.089.685.248.627.582a.513.513 0 0 1-.376.415c-.334.094-.712-.24-.636-.585a.574.574 0 0 1 .385-.412zM15.579 19.191c.39-.112.787.364.587.726-.144.325-.621.38-.841.104-.275-.26-.086-.739.254-.829zM16.846 19.192c.337-.102.704.246.637.588a.512.512 0 0 1-.387.41c-.327.081-.691-.24-.625-.578a.58.58 0 0 1 .375-.42z"/>
</svg>
