<svg xmlns="http://www.w3.org/2000/svg" width="24" height="24">
    <path fill="#c0111e" d="M10.655 0h2.676c4.779.562 9.089 4.136 10.273 8.835a16.1 16.1 0 0 1-.001 6.331c-1.18 4.695-5.482 8.26-10.253 8.834h-2.671c-4.652-.555-8.844-3.938-10.173-8.459-.227-.72-.339-1.468-.505-2.203v-2.653c.16-.744.275-1.5.505-2.228C1.833 3.943 6.015.569 10.656 0zM5.71 4.681c1.06 1.077 2.108 2.182 3.225 3.195l.121-.025-.054.081c1.478 1.529 2.957 3.089 4.552 4.501l-.117-.248c.498.925 1.372 1.547 2.069 2.309.728.673 1.362 1.478 2.146 2.068.208.262.435.508.671.745.279.294.567.58.867.854 3.156-3.622 2.922-9.601-.567-12.924C15.296 1.763 9.336 1.542 5.71 4.68zm-.535 14.142c3.332 3.43 9.262 3.642 12.858.5-.67-.68-1.306-1.432-2.058-2.009-.815-.827-1.554-1.78-2.523-2.425-.527-.829-1.295-1.506-2.036-2.129l-.078.056.021-.113c-.248-.392-.631-.673-.94-1.013a64.917 64.917 0 0 0-1.528-1.532c-.271-.244-.494-.547-.807-.742l-.085.052.029-.119C6.951 8.124 5.713 7.029 4.587 5.84c-3.232 3.608-2.943 9.675.587 12.985z"/>
    <path fill="#fff" d="M5.71 4.681c3.625-3.138 9.586-2.918 12.913.557 3.488 3.322 3.723 9.301.567 12.924-.3-.273-.587-.56-.867-.854.431-.006.861-.007 1.292-.01l-.021-.734c-.647-.001-1.295.014-1.942-.001-.784-.59-1.418-1.395-2.146-2.068-.698-.762-1.571-1.384-2.069-2.309-.687-1.204-1.407-2.392-2.096-3.596.449.162.908.301 1.342.501.913.515.942 2.354 2.242 2.089 1.803-.06 3.607 0 5.408-.031-.001-.087-.006-.261-.008-.347-1.732-.006-3.463-.001-5.195-.001a14.737 14.737 0 0 0-1.538-2.485 19.496 19.496 0 0 0-2.858-1.154c-.589.148-1.122.456-1.679.691l-.121.025C7.818 6.865 6.77 5.76 5.709 4.683zm2.835.783c-.659.227-.836 1.185-.297 1.628.516.498 1.492.177 1.593-.539.174-.709-.627-1.384-1.296-1.09zM5.175 18.823c-3.53-3.31-3.819-9.377-.587-12.985 1.126 1.189 2.364 2.284 3.441 3.509L8 9.466c-.098.176-.193.353-.289.529-.709.021-1.42-.027-2.128.021-.382-.018-.632.445-.463.769.215.251.562.368.716.677.96 1.707 1.952 3.395 2.902 5.107-1.264-.08-2.757.339-3.74-.705.063.744.621 1.434 1.409 1.434 3.188.036 6.38 0 9.568.015.752.578 1.388 1.33 2.058 2.009-3.596 3.142-9.526 2.93-12.858-.5zM23.604 8.835c.17.603.25 1.225.396 1.832v2.957l-.042-.218c-.109.587-.186 1.183-.356 1.76.426-2.093.414-4.236.001-6.331z"/>
    <path fill="#fff" d="M8.891 10.157c.515.505 1.03 1.01 1.528 1.532-.36.646-.802 1.247-1.111 1.921-.12 1.017.025 2.053-.075 3.074-1.141-1.818-2.147-3.72-3.229-5.574.755-.035 1.521.068 2.269-.052.324-.181.424-.603.618-.901zM11.339 12.815l.078-.056c.741.624 1.508 1.3 2.036 2.129.311.565.636 1.123.952 1.687-1.263.003-2.527 0-3.79.001.015-1.3-.253-2.721.724-3.762z"/>
    <path fill="#030303" d="M8.545 5.464c.67-.294 1.471.381 1.296 1.09-.102.716-1.077 1.037-1.593.539-.539-.444-.361-1.401.297-1.628zM9.056 7.852c.557-.234 1.09-.543 1.679-.691.975.31 1.945.693 2.858 1.154.583.776 1.118 1.606 1.538 2.485 1.732 0 3.463-.004 5.195.001l.008.347c-1.801.031-3.606-.029-5.408.031-1.3.265-1.33-1.574-2.242-2.089-.434-.2-.893-.339-1.342-.501.689 1.204 1.409 2.392 2.096 3.596l.117.248c-1.595-1.412-3.074-2.972-4.552-4.501l.054-.081zM8 9.466l.085-.052c.313.195.536.498.807.742-.194.299-.294.72-.618.901-.748.12-1.514.017-2.269.052 1.081 1.854 2.087 3.756 3.229 5.574.1-1.021-.045-2.057.075-3.074.308-.674.751-1.275 1.111-1.921.31.34.692.621.94 1.013l-.021.113c-.977 1.041-.709 2.461-.724 3.762 1.263-.001 2.527.001 3.79-.001-.315-.564-.64-1.122-.952-1.687.968.645 1.708 1.598 2.523 2.425-3.188-.015-6.38.021-9.568-.015-.788 0-1.347-.691-1.409-1.434.982 1.044 2.475.625 3.74.705-.95-1.712-1.942-3.4-2.902-5.107-.153-.308-.501-.426-.716-.677-.169-.324.081-.787.463-.769.707-.047 1.419 0 2.128-.021.096-.176.191-.353.289-.529zM17.651 16.563c.647.015 1.295 0 1.942.001l.021.734c-.431.003-.861.004-1.292.01a8.934 8.934 0 0 1-.671-.745z"/>
</svg>
