<svg xmlns="http://www.w3.org/2000/svg" width="24" height="24">
    <path fill="#0072bb" d="M1.45 0h21.065c.47.137.94.377 1.17.833-.468-.354-.967-.754-1.594-.703C15.364.126 8.637.128 1.909.13.981.063.101.848.137 1.791.127 8.558.135 15.326.133 22.093c-.041.568.28 1.046.617 1.468l.104.143c-.445-.246-.7-.702-.854-1.169V1.479C.156.749.734.187 1.45.002z"/>
    <path fill="#0072bb" d="M.917 1.804c-.041-.538.479-.958.996-.892C8.759.925 15.611.889 22.452.925c-.528.032-1.2-.204-1.602.246l-2.755 2.783c-.78-.594-1.742-.949-2.729-.929-3.107-.002-6.214-.004-9.32.001-.006 4.368.006 8.736-.005 13.105-1.631 1.646-3.259 3.295-4.892 4.939-.386.35-.206.923-.222 1.38C.897 15.573.922 8.685.917 1.803zM19.535 6.164c1.175-1.156 2.348-2.312 3.529-3.461-.007 6.461 0 12.922-.004 19.381.054.49-.34.992-.852.96-6.623.008-13.247.001-19.871.004 1.225-1.228 2.47-2.436 3.707-3.652-.001.638-.001 1.276.002 1.913a438.5 438.5 0 0 0 3.804-.001c.002-1.882.002-3.763 0-5.645.542-.534 1.086-1.068 1.63-1.601 1.456-.018 2.912.042 4.366-.031 2.047-.156 3.782-2.009 3.804-4.061-.014-1.268.1-2.55-.115-3.806z"/>
    <path fill="#0072bb" d="M9.854 5.971c1.438.002 2.875-.02 4.312.008.514-.007.953.277 1.318.612A4800.267 4800.267 0 0 1 11 11.121l-1.145-.002a981.554 981.554 0 0 1 0-5.148zM14.552 11.076a19.2 19.2 0 0 1 1.222-1.199 1.829 1.829 0 0 1-1.222 1.199z"/>
    <path fill="#fff" d="M.137 1.79C.101.847.982.062 1.909.129c6.727-.002 13.454-.004 20.182 0 .626-.05 1.126.349 1.594.703.074.4.162.798.17 1.206-.004 6.68-.001 13.362-.002 20.042.018.49-.228.925-.413 1.362-.436.184-.87.425-1.358.407-6.721-.002-13.442-.001-20.162-.001-.408.004-.797-.133-1.169-.289-.337-.421-.658-.9-.617-1.468C.135 15.324.128 8.556.138 1.789zm.78.014c.005 6.882-.02 13.77.01 20.647.18.622.877.654 1.411.598 6.624-.002 13.248.005 19.871-.004.512.032.906-.47.852-.96.004-6.46-.004-12.92.004-19.381.011-.623.158-1.546-.612-1.778C15.612.89 8.76.926 1.914.913c-.517-.066-1.037.354-.996.892z"/>
    <path fill="#fff" d="M6.046 3.026c3.107-.005 6.214-.004 9.32-.001.986-.02 1.949.335 2.729.929l-2.611 2.638c-.365-.335-.804-.619-1.318-.612-1.436-.029-2.874-.006-4.312-.008a981.554 981.554 0 0 0 0 5.148l1.145.002c-1.651 1.67-3.306 3.34-4.958 5.01.011-4.369-.001-8.737.005-13.105zM15.774 9.877C17 8.613 18.283 7.404 19.535 6.164c.215 1.256.101 2.538.115 3.806-.022 2.052-1.757 3.905-3.804 4.061-1.453.073-2.91.013-4.366.031 1.028-.991 2.022-2.018 3.072-2.987a1.831 1.831 0 0 0 1.222-1.199zM6.044 19.397c1.268-1.246 2.537-2.49 3.806-3.733.002 1.882.002 3.763 0 5.645a438.5 438.5 0 0 1-3.804.001 203.24 203.24 0 0 1-.002-1.913z"/>
    <path fill="#0a6eae" opacity=".92" d="M23.684.833c.119.198.22.406.316.616V22.43c-.085.385-.265.748-.56 1.014.185-.437.431-.872.413-1.362.001-6.68-.001-13.362.002-20.042-.008-.408-.096-.806-.17-1.206z"/>
    <path fill="#e52629" d="M20.85 1.171c.402-.45 1.074-.214 1.602-.246.77.233.623 1.156.612 1.778-1.181 1.148-2.354 2.305-3.529 3.461-1.252 1.24-2.534 2.449-3.761 3.713a19.2 19.2 0 0 0-1.222 1.199c-1.05.968-2.044 1.996-3.072 2.987l-1.63 1.601c-1.27 1.243-2.538 2.488-3.806 3.733-1.237 1.216-2.482 2.424-3.707 3.652-.534.056-1.231.024-1.411-.598.016-.457-.164-1.03.222-1.38 1.633-1.644 3.262-3.293 4.892-4.939 1.652-1.67 3.307-3.34 4.958-5.01 1.495-1.508 2.99-3.019 4.484-4.53l2.611-2.638c.919-.926 1.837-1.855 2.755-2.783z"/>
    <path fill="#0d69a4" opacity=".85" d="M22.081 23.85c.488.018.923-.223 1.358-.407a1.934 1.934 0 0 1-.984.557H1.559c-.246-.071-.498-.145-.706-.298l-.104-.143c.372.156.761.293 1.169.289 6.72 0 13.441-.001 20.162.001z"/>
</svg>
