<svg xmlns="http://www.w3.org/2000/svg" width="24" height="24">
    <path fill="#fff" d="M6.28 0h11.823l.077.038C14.243-.009 10.305.029 6.367.019L6.279 0zM6.474.142C10.242.107 14.012.137 17.781.127c.834-.036 1.591.703 1.572 1.538.001 6.908.002 13.816-.001 20.724.009.85-.784 1.578-1.628 1.517-3.525-.003-7.051-.001-10.577-.001-.358-.001-.733.029-1.069-.121a1.553 1.553 0 0 1-.945-1.448c.002-6.89 0-13.78.001-20.671C5.122.916 5.728.223 6.474.142zm.054.54a.994.994 0 0 0-.85.982c-.002 6.765.001 13.53-.001 20.295.003.292-.033.606.115.871.172.338.549.546.926.531h11.063c.376.012.752-.199.92-.539.145-.264.11-.575.113-.863V2.093c-.004-.305.036-.635-.126-.91-.181-.345-.577-.54-.96-.516C13.995.678 10.261.65 6.529.681z"/>
    <path fill="#fff" d="M19.419 1.119l.024.029v.192c-.069-.048-.115-.17-.024-.221zM6.267 1.663c-.006-.239.216-.423.447-.409 3.688-.002 7.376-.002 11.064 0 .228-.012.454.169.439.407.008 1.225.002 2.45.003 3.675-3.985 0-7.97.002-11.955-.001.001-1.224-.006-2.448.003-3.672zm4.15.051c-.168.284.339.46.173.745a4.283 4.283 0 0 0-.246-.179c-.012.192.209.39.359.207.195-.293-.25-.482-.186-.763l.223.152c.048-.194-.207-.346-.322-.162zm2.805.011c-.074.246-.088.536.017.775.131.134.309.015.342-.141l-.111-.045-.112.163c-.108-.228-.077-.484-.045-.724.085.023.169.046.255.067-.019-.171-.262-.273-.346-.093zm1.19-.094c-.278.117-.185.528-.155.77.028.226.369.185.361-.038.024-.231.113-.69-.206-.732zm.404.075c-.181.285.326.464.173.754-.083-.061-.165-.122-.251-.179-.014.193.214.391.36.201.187-.292-.247-.475-.194-.757l.239.146c.02-.183-.203-.339-.328-.165zm.479-.006c-.19.286.319.467.172.759-.084-.061-.166-.123-.252-.18-.023.201.228.395.364.192.163-.285-.231-.462-.208-.734.091.04.181.082.273.12-.031-.161-.217-.324-.35-.157zm.443-.089v.913h.161v-.913h-.161zm.951.088c-.092.222-.076.479-.033.711.018.158.241.197.33.075.032-.124.023-.254.027-.381l-.176.004c.032.121.115.271-.024.36-.117-.225-.074-.49-.028-.729.079.029.158.058.238.085-.022-.164-.216-.272-.336-.126zm-5.896-.027c.27.218.069.603.155.898.273-.199-.106-.714.248-.881a.593.593 0 0 0-.403-.017zm.428.905c.113-.049.141-.169.177-.274l.119.001c.031.109.063.225.175.277-.038-.33-.118-.654-.194-.978-.239.249-.191.654-.277.975zm.604-.944c-.005.303-.002.605-.002.907l.111-.001c.001-.155.004-.31.019-.464.089.164.061.407.249.5a6.43 6.43 0 0 0-.075-.437c.188-.251.028-.586-.302-.506zm.425.02c.047.054.094.107.143.159l-.001.729.114-.001c.032-.3-.103-.659.141-.896a6.588 6.588 0 0 0-.398.009zm1.562.943c.024-.172.025-.347.044-.52.057.149.097.303.133.457l.117.012a51.527 51.527 0 0 1-.082-.418c.198-.242.023-.576-.3-.496.037.317-.099.686.087.964zm2.272-.991c-.027.311-.011.623-.015.935h.113c0-.17 0-.339.004-.508.078.186.095.412.256.552a8.01 8.01 0 0 0 .004-.98c-.163.088-.084.294-.112.441-.07-.153-.09-.35-.25-.44zm-8.722.435v2.577h2.04V2.04h-2.04zm3.007.591v.161h6.658v-.161h-6.658zm1.421.366c.041.316.058.636.127.948.129-.143.113-.349.155-.525.034.176.062.354.114.526.168-.293.116-.657.167-.981-.163.064-.126.259-.159.398-.035-.14-.034-.301-.148-.405-.037.139-.065.28-.096.42-.017-.126-.031-.253-.045-.379l-.116-.002zm1.107.062a3.027 3.027 0 0 1-.086.242l.068.076c.012.196-.078.488.174.56-.053-.213-.088-.436-.019-.65a6.64 6.64 0 0 1-.06-.313l-.077.086zm.629 0c.042.292-.097.64.09.891.033-.217.016-.439.055-.655.122.204-.016.468.144.656.046-.23.043-.47-.007-.699l-.168-.038-.004-.235-.111.079zm.925-.061c.006.316-.02.633.021.947.145-.116.078-.316.094-.475l.13-.013.009-.101-.14-.019-.003-.219.234-.005-.003-.114h-.342zm-2.019.415l.228-.069c-.106.115-.299.216-.238.405.015.173.198.15.324.152-.015-.211.047-.445-.057-.639-.119-.106-.253.017-.256.151zm.773.464c.137.112.223-.083.25-.192-.07.037-.139.076-.206.118a2.044 2.044 0 0 1 .008-.482l.121.137.075-.142c-.345-.303-.433.373-.248.561zm1.692-.644c-.154.164-.134.457-.024.641.335.15.365-.714.024-.641zm.347.005c-.001.214 0 .428-.002.643l.111.027c.004-.164.007-.329.012-.493.049-.056.097-.112.142-.171l-.263-.005zm-3.035.896c.058.318.096.641.186.952.18-.289.164-.659.221-.987-.193.104-.139.36-.198.539-.033-.163-.063-.328-.093-.492l-.117-.012zm.914.065v.838l.113.004c.009-.2-.038-.415.065-.598.031.198.028.398.028.598l.112-.003a3.064 3.064 0 0 0-.037-.649l-.169-.024.001-.242a7.52 7.52 0 0 0-.114.076zm.469-.062c-.055.249.249-.055 0 0zm.623.057v.846l.113-.002v-.914a6.928 6.928 0 0 1-.113.07zm-1.498.701c.021.199.275.194.307.001-.063.01-.126.02-.188.032l-.035-.142.238-.019c-.029-.134-.013-.299-.124-.397-.265-.02-.229.351-.198.525zm1.154-.48c-.086.19-.115.477.053.63.149.055.205-.125.179-.238l-.156.156a3.185 3.185 0 0 1-.02-.458l.221.071c-.031-.121-.148-.3-.276-.161zm.599.508c.04.182.288.152.285-.037l-.181.042-.023-.147.232-.01c-.035-.134.004-.371-.172-.408-.225.063-.173.382-.141.559zm.384-.499c-.104.191.142.337.169.521l-.207-.049.043.157c.391.031.228-.395.048-.557l.228-.015c-.078-.063-.201-.186-.281-.057zm-1.277-.041v.654l.112.003.001-.657h-.113z"/>
    <path fill="#fff" d="M11.928 1.755l.177.032c-.015.106-.042.212-.143.269a5.131 5.131 0 0 1-.034-.301zM7.907 2.915c.169-.096.329-.229.528-.253.159.071.159.28.255.408.103.095.219.174.316.276a1.147 1.147 0 0 1-.511-.169l-.046.209c.178.268.254.582.324.892l-.168.057c-.078-.238-.133-.491-.29-.693-.108.241-.196.49-.293.736l-.128-.093c.139-.438.185-.89.225-1.344-.13.14-.065.358-.195.495a3.93 3.93 0 0 1-.017-.52zM6.235 5.638h11.973v7.034H6.235V5.638zm1.463.157c.068.146.124.303.248.412-.038-.16-.11-.308-.18-.454l-.068.042zm.631-.05v.43h.107v-.43h-.107zm.529.463c.149-.123.215-.311.24-.497a1.277 1.277 0 0 0-.24.497zm-1.893-.342c.105.142.232.268.374.374a.557.557 0 0 0-.374-.374zm2.514.357a.883.883 0 0 0 .386-.388.943.943 0 0 0-.386.388zm2.633-.344c-.237.173-.158.561-.104.812.095.214.384.063.354-.14.017-.218.088-.707-.251-.672zm1.017-.002c-.061.048-.024.162.049.176.117-.012.061-.237-.049-.176zm1.133.055c-.199.286.299.469.172.768-.087-.06-.173-.121-.263-.177-.002.181.196.38.354.214.203-.285-.212-.482-.186-.758.086.041.173.082.26.121-.017-.163-.201-.322-.337-.168zm1.393-.058c.003.321-.022.643.02.962.136-.14.077-.346.112-.519.083.166.06.405.242.506a5.38 5.38 0 0 0-.072-.455c.199-.246.012-.57-.302-.494zm-4.222-.001c-.002.306-.001.612 0 .918.129-.017.339.016.354-.166.068-.291.098-.84-.354-.752zm1.207.953c.02-.187.017-.375.019-.562.068.197.115.407.244.576-.002-.32.137-.735-.071-.995a5.237 5.237 0 0 0-.018.469c-.068-.168-.096-.367-.256-.477.022.321-.122.723.083.989zm.667-.944c.232.243.103.598.134.898l.114.002c0-.249.002-.498-.003-.747l.166-.093c-.128-.063-.272-.061-.411-.06zm1.309.01c.047.054.095.108.144.161l-.001.727.114.001c-.001-.245-.002-.489.003-.733a5.54 5.54 0 0 0 .151-.157 4.355 4.355 0 0 0-.412.002zm.438.926c.111-.053.143-.166.172-.275h.117c.032.11.069.222.182.274-.083-.324-.048-.717-.275-.979a7.425 7.425 0 0 0-.197.98zm1.02-.929c.047.054.096.106.146.158l.001.734.114-.001c-.001-.243.001-.486-.001-.729.052-.051.103-.104.151-.159a4.044 4.044 0 0 0-.412-.003zm-8.712.393v2.577h2.04V6.282h-2.04zm-.54.415c.127.133.302.201.477.244a.83.83 0 0 0-.477-.244zm2.704.246c.181-.045.358-.121.497-.248-.185.033-.369.104-.497.248zm1.917-.071v.161h5.047v-.161h-5.047zm.867.339c-.187.205.265.084 0 0zm3.443.005c-.212.134.211.134 0 0zm-4.576.022c.006.316-.019.634.021.949.143-.118.079-.317.093-.476l.126-.014.02-.098-.146-.024-.003-.217.234-.006-.003-.114h-.341zm.395.003c-.038.216.213-.056 0 0zm1.292.047a80.09 80.09 0 0 0-.001.849l.112-.001c.006-.201-.034-.416.065-.601.038.218.013.441.056.659.15-.201.078-.468.052-.697l-.174-.045.003-.224-.113.061zm1.007.033c-.075.243-.08.523.01.762.149.168.366-.003.331-.198-.076.053-.15.109-.223.164-.074-.227-.06-.467-.026-.699.089.018.178.037.267.053-.043-.156-.277-.271-.358-.084zm-7.045.142v.107h.43v-.107h-.43zm2.738 0v.107h.43v-.107h-.43zm2.01-.032c-.03.251-.032.507.004.758.14-.202.156-.566-.004-.758zm.242.051c.032.229-.086.518.089.703.035-.219-.002-.447.075-.659.091.213-.04.484.13.664.04-.238.034-.483-.015-.719l-.279.011zm.453-.004a72.6 72.6 0 0 0 0 .66l.113-.005V7.48l-.113-.003zm.271.015c-.176.193.142.354.128.56l-.168-.069-.013.144c.099.01.248.037.278-.095.042-.179-.132-.314-.194-.468l.199.063c-.035-.089-.124-.238-.23-.136zm1.742-.014c.031.231-.086.52.09.707.026-.175.025-.353.028-.529.048-.057.096-.115.142-.173a7.514 7.514 0 0 0-.26-.004zm.399-.006c-.155.163-.136.459-.022.642.333.144.363-.713.022-.642zm.346.029c-.135.186.113.349.158.524l-.237-.006c.059.105.198.187.288.067.112-.188-.086-.347-.168-.5.075.004.15.008.226.01-.07-.063-.174-.205-.267-.095zm.324.002c-.113.191.116.344.165.518l-.245.003c.069.09.202.182.296.066.121-.186-.085-.355-.172-.504l.222.015c-.071-.082-.158-.207-.266-.098zm.347-.037c-.005.241-.017.483.018.722.174-.185.06-.467.093-.693a17.86 17.86 0 0 1-.111-.028zm.256.016c.002.235-.011.47.022.703.18-.171.034-.453.138-.661.101.21-.04.488.136.662a1.942 1.942 0 0 0-.018-.717l-.278.013zm.643.711a1.334 1.334 0 0 0-.075.297c.327-.232.133-.688.184-1.023-.427-.104-.439.614-.11.726zm-9.794.197c.186-.023.375-.09.494-.242a1.38 1.38 0 0 0-.494.242zm2.727-.239c.122.149.31.216.496.241a1.267 1.267 0 0 0-.496-.241zm2.665.224v.913h.161v-.913h-.161zm.331.006c-.072.295-.002.595-.018.894l.111.004c.002-.203-.009-.41.039-.609l-.039-.129.067-.176-.16.015zm.71.07c-.154.282.3.446.201.732-.097-.043-.187-.098-.282-.145.016.181.231.366.373.179.171-.279-.215-.465-.206-.727.094.026.185.063.277.095-.034-.165-.245-.315-.362-.133zm.46-.016a6.511 6.511 0 0 1-.059.241c.108.192-.083.606.236.611a.838.838 0 0 1-.034-.613 7.063 7.063 0 0 1-.06-.317l-.084.078zm1.002-.004l-.011.195a10.96 10.96 0 0 0-.314-.005c-.001.22-.001.439.001.659l.112-.005c0-.177.001-.355.009-.532l.196-.027c.031.191-.104.577.199.569a.768.768 0 0 1-.028-.614 5.36 5.36 0 0 1-.068-.305l-.095.064zm.854-.005l-.005.177-.159.03a.893.893 0 0 0 .018.659c.086-.008.172-.015.258-.02-.002-.301-.001-.602-.001-.904l-.111.059zm-1.605.228l-.003.134.214-.055c-.131.108-.325.236-.233.435.031.148.202.1.312.117-.02-.236.081-.536-.139-.704l-.152.072zm1.299.599l-.041-.13a7.457 7.457 0 0 1-.136.05l-.032-.147.236-.017c-.033-.139.005-.372-.178-.411-.272.11-.227.828.152.654zm-8.275-.003c.169-.076.293-.219.397-.369-.176.067-.303.211-.397.369zm.5-.325c.001.169-.001.337.016.505a1.08 1.08 0 0 0 .054-.433 9.55 9.55 0 0 0 .128-.086l-.198.013zm.252-.053a3.017 3.017 0 0 0-.024.503l.167-.004a13.758 13.758 0 0 0-.092-.126 1.181 1.181 0 0 0-.05-.374zm.154.546l.147-.162.116.157a2.574 2.574 0 0 0-.113-.542c-.071.176-.108.362-.15.547zm.455-.145l-.187-.003.149.141c.142-.135.021-.292-.067-.416l.18.003-.156-.113c-.131.133.006.267.081.387zm.106-.399c.001.184-.001.368.011.552.025-.083.047-.166.071-.249.041.072.078.148.114.223.001-.172-.005-.345.001-.517a3.246 3.246 0 0 1-.118.186c-.025-.066-.052-.13-.079-.195zm.267.038v.483h.107v-.483h-.107zm.192-.038c-.015.145-.022.29-.029.436.072.02.144.041.215.063-.001-.169.002-.338-.009-.506-.024.07-.046.14-.066.21a3.076 3.076 0 0 0-.112-.203zm.325.53l.129-.065.008-.177-.171-.011a.907.907 0 0 1 .186-.205c-.28-.123-.239.306-.151.459zm.252-.526a.95.95 0 0 0 .394.383.91.91 0 0 0-.394-.383zm-2.112.571v2.362h2.04V9.45h-2.04zm4.081.107v.161h5.047v-.161h-5.047zm-.943.48c.051.056.104.111.158.164.004.261.002.523.003.784l.124.002c.04-.319-.113-.705.148-.956a6.947 6.947 0 0 0-.433.005zm.513.003v.966h.161v-.966h-.161zm.341-.045c-.021.329-.007.659-.011.989l.126.002v-.538l.112.317c.035-.106.069-.213.105-.319.002.18.002.36.002.54l.125-.001c-.005-.33.011-.661-.013-.991-.15.07-.17.244-.223.382-.052-.139-.059-.325-.223-.381zm.653.036v.955h.362l.003-.123a18.884 18.884 0 0 0-.239-.002l-.001-.317.206-.061c-.067-.034-.136-.065-.204-.096l-.002-.23.239-.002v-.125l-.363.002zm.827-.011c.008.339-.024.681.028 1.019.159-.139.071-.372.118-.555.067.162.101.335.141.505l.123-.005c-.032-.145-.063-.29-.092-.435.217-.255.024-.616-.317-.528zm.549.01v.956l.362.001.006-.122-.242-.005-.005-.307.214-.082-.215-.083c.003-.077.004-.155.006-.232l.238-.001-.001-.124h-.363zm.501.004v.951l.123.003c.001-.167.002-.335.009-.501l.105.278c.034-.103.068-.205.105-.307.003.193 0 .387.031.578.213-.284.049-.705.091-1.043-.149.07-.176.238-.232.375l-.104-.338-.126.004zm.785-.009c-.066.319-.13.638-.197.957l.121.009.062-.249.156.006.048.235.128.006c-.061-.317-.129-.632-.192-.949l-.127-.015zm.425.015v.966h.161v-.966h-.161zm.344-.045c-.021.329-.006.659-.011.988l.125.004c0-.179 0-.357.002-.536.057.176.112.352.166.528l.115.014c.005-.321.002-.642.003-.964h-.124c0 .163-.001.326-.004.489-.084-.176-.068-.436-.272-.523zm.569.045v.966h.161v-.966h-.161zm.346-.006l.001.951.123.003c.001-.164.003-.329.01-.492.077.183.098.399.247.544.056-.334.023-.673.031-1.01h-.123c0 .164 0 .328-.004.492a14.77 14.77 0 0 1-.157-.492l-.127.004zm.621.121c-.049.261-.113.613.09.819.278.115.303-.256.283-.44l-.213.009c.07.124.108.256.006.379-.121-.242-.097-.521-.039-.776.091.026.181.05.273.072-.045-.194-.326-.286-.4-.062zM10.35 11.31l.176.11c-.003.269-.001.537-.001.806h.125c0-.268.002-.537-.002-.805l.178-.111a.778.778 0 0 0-.475 0zm1.378-.04c0 .319-.001.638.001.957l.123-.002.002-.413c.157-.039.2-.18-.004-.19l.003-.227.239-.001-.001-.124h-.363zm.472.017c-.055.249.249-.054 0 0zm.757-.02c-.174.22.271.068 0 0zm.571.068l.001.891h.125c0-.191 0-.382.002-.572l.091-.01.004.583.122-.001c.001-.234.018-.472-.042-.701l-.181.003.005-.268-.127.075zm.939.018c-.085.254-.097.559.009.808.147.189.37-.011.355-.201a5.127 5.127 0 0 0-.249.166 1.364 1.364 0 0 1-.003-.739c.09.024.181.047.273.067-.063-.154-.272-.287-.386-.101zm1.97-.066c-.055.248.25-.054 0 0zm-3.259.272c-.144.198.122.366.177.546l-.201-.056a9.238 9.238 0 0 0-.018.165c.102.012.252.042.294-.086.075-.186-.119-.324-.198-.47l.232.017c-.053-.099-.176-.232-.285-.115zm2.512.045c-.067.195.16.328.197.508a12.28 12.28 0 0 1-.205-.065l-.004.164c.132.04.253.001.331-.117l.027.135c.099-.008.245.02.284-.104.072-.19-.131-.329-.202-.486l.183.055.005-.15c-.085-.011-.204-.061-.256.04-.101.199.144.346.196.524-.295.038-.336-.302-.481-.479l.194.068a10.105 10.105 0 0 1-.022-.172c-.086.003-.208-.027-.247.078zm-4.768-.058c-.14.168-.178.688.13.685.215-.136.21-.795-.13-.685zm1.259-.018l.001.699.124.001.001-.7h-.126zm.263-.006c-.001.23.001.46-.003.69l.123.024c.004-.214-.004-.43.028-.642.127.185.054.421.071.631l.121.003c-.006-.281.124-.825-.34-.706zm.472.01l.001.693.124.003c.002-.234.001-.468.001-.702a5.227 5.227 0 0 1-.125.006zm2.041.693l.124.003c.01-.24-.063-.519.146-.696a23.788 23.788 0 0 0-.267-.007c-.003.234-.002.467-.002.7zm.374-.664c-.11.183-.117.471.016.643.387.165.365-.859-.016-.643zm1.087-.033c.048.236-.118.585.112.74.023-.246.012-.494.014-.74h-.126zm.263-.006l-.001.704.125-.002c-.002-.21-.007-.421.023-.63.127.18.056.413.069.618l.123.025c-.005-.283.129-.834-.339-.715zm.68.756c-.039.105-.086.21-.084.325.362-.227.142-.72.201-1.07l-.265-.013c-.117.239-.177.661.148.758zm-9.492-.353c.029.17.038.341.064.512.033-.168.036-.34.057-.51a4.964 4.964 0 0 0-.121-.002zm.184-.006c.006.161.008.322.009.483h.106v-.483h-.115zm.169-.011c-.002.177-.004.354.003.531.036-.089.069-.179.103-.269.035.089.07.179.107.267.012-.181.012-.363.007-.544l-.099.135-.121-.12zm.314.029v.448l.201-.009-.135-.074c.006-.097.01-.193.007-.289l.122-.083-.195.007zm.223-.05c-.006.188-.009.378.017.565.022-.079.042-.158.06-.238.037.081.076.162.119.24.014-.203.117-.556-.196-.568z"/>
    <path fill="#fff" d="M12.102 6.651c-.017-.235-.09-.514.088-.708.079.228.076.472.042.708l-.13-.001zM12.96 10.146l.143.025.002.223-.146.027.001-.274zM6.235 12.94h11.973v3.866H6.235V12.94zm1.43.397c.058.099.119.196.177.295l-.206-.013c.076.047.155.088.239.118a.545.545 0 0 0-.099-.34l.097-.154c-.07.03-.139.061-.208.093zm.254-.076c.028.167.043.337.084.501.029-.165.04-.332.061-.498.094.14.074.314.086.474a4.47 4.47 0 0 0 .34-.089l.114.09c-.035-.177-.07-.355-.128-.526-.064.14-.07.302-.144.436-.157.011-.075-.196-.106-.295l.122-.094c-.144.002-.287.003-.431 0zm.733-.013c-.002.156-.002.311-.001.467l.172.002c.034-.134.045-.271.042-.409a17.021 17.021 0 0 0-.213-.061zm.25-.021c.046.173.083.348.113.525.026-.177.065-.352.125-.52l-.126.14-.111-.144zm-1.54.572v2.577h2.04v-2.577h-2.04zm3.857.516c-.002.307-.002.613.001.92.119-.024.311.025.344-.136.077-.297.119-.869-.345-.784zm.623.038c-.14.242-.151.627.016.859.273.128.323-.262.308-.447.023-.188-.06-.576-.324-.412zm.499-.069c-.025.312-.009.626-.013.939l.114.001.001-.523c.058.17.114.34.17.511l.098.027c.008-.303.004-.607.004-.911l-.113-.003-.002.43c-.074-.164-.09-.372-.259-.471zm.575.05c-.084.276.267-.004 0 0zm.166.031c.298.202.06.622.177.918.157-.242.058-.546.079-.817a9.65 9.65 0 0 0 .178-.082.542.542 0 0 0-.434-.019zm1.011-.014c-.13.241-.108.552-.033.807.129.188.401.02.32-.186-.07.057-.139.116-.208.175a1.512 1.512 0 0 1-.014-.717c.086.025.172.05.259.073-.049-.13-.186-.261-.324-.152zm.397-.036c-.002.3 0 .599-.002.899l.108.021c.004-.159.008-.318.023-.476.062.148.1.303.137.459l.114.011c-.049-.21-.106-.428-.003-.632.062-.238-.201-.295-.379-.282zm.616.022c-.171.234-.159.615-.018.862.239.162.345-.196.323-.377.014-.19-.014-.603-.304-.485zm.499.025c-.201.259.191.46.208.718l-.097.043a3.232 3.232 0 0 0-.205-.166c-.026.197.209.396.356.207.168-.287-.213-.478-.216-.752.09.046.178.094.267.141-.005-.161-.163-.331-.314-.191zm.455.292c.101.151.253.302.182.5-.084-.066-.167-.134-.255-.196-.016.182.165.38.334.232.172-.225-.056-.47-.195-.643a6.8 6.8 0 0 0 .042-.133c.073.049.147.099.222.147-.03-.097-.037-.245-.17-.249-.175-.015-.26.217-.159.342zM6.274 17.112h11.94c-.001 1.743.002 3.485-.002 5.228a.402.402 0 0 1-.429.424c-3.69.002-7.38.001-11.071.001a.406.406 0 0 1-.439-.426c-.003-1.742-.001-3.484-.001-5.226zm2.593.495c-.003.302-.002.603-.001.905l.128-.001-.001-.38c.186.008.426-.071.373-.306-.022-.255-.319-.213-.5-.22zm.625.006c.006.248-.021.498.016.744.06.22.411.22.47 0 .037-.246.011-.497.015-.744a5.379 5.379 0 0 1-.127.002c-.006.239.02.48-.015.717-.041.09-.152.088-.21.017-.043-.242-.013-.49-.02-.733l-.129-.002zm.744.078c-.267.315.591.495.145.728a.852.852 0 0 0-.252-.207c.03.131.081.303.242.314.223.03.366-.274.213-.433-.099-.126-.374-.206-.2-.387.093.055.187.108.285.155-.015-.214-.288-.368-.433-.17zm.562-.079c-.002.3-.003.6.001.9l.127-.001.001-.406.244-.002.002.408.128.001c0-.3.001-.6-.001-.9l-.129.001-.001.366-.244-.002v-.365l-.128-.001zm1.144-.003c-.001.302-.002.605.001.907.307.091.657-.161.428-.474.2-.321-.14-.512-.429-.434zm.654.007c.011.252-.027.509.023.757.076.21.416.193.466-.026.034-.244.009-.492.013-.737l-.129.006c-.003.23.017.462-.01.692-.004.125-.216.122-.221-.002-.028-.231-.007-.464-.013-.696l-.129.006zm.581.016a.68.68 0 0 0 .209.132c.004.25.002.499.003.748l.128-.002.001-.741c.074-.042.147-.085.217-.134a1.94 1.94 0 0 0-.559-.004zm.563-.018a4.388 4.388 0 0 0-.005.117l.165.008c-.002.258-.002.516-.001.774l.129-.001c0-.258.001-.517-.001-.775l.165-.006v-.119c-.151 0-.301 0-.452.002zm.723.003c-.236.193-.209.603-.061.845.184.185.431-.046.414-.258.042-.23-.012-.703-.353-.586zm.54-.006a90 90 0 0 0-.001.9h.128c0-.192-.001-.384.005-.576.094.183.18.37.263.559l.103.032c.007-.304.003-.609.004-.913l-.128-.002c-.001.172-.002.345-.005.517-.084-.17-.162-.342-.24-.514l-.129-.004zm1.087 1.24H7.797l-.001.418h8.293c.004.104-.159.331.015.338.282-.166.566-.343.812-.558-.268-.182-.527-.381-.812-.535-.173.005-.011.234-.015.337zm-6.251.751v.118l.164.005c0 .259-.001.518.001.777l.129-.004-.001-.772.159-.007.013-.113c-.155-.004-.311-.004-.466-.004zm.711.014c-.251.214-.229 1.007.228.87.256-.213.231-1.016-.228-.87zm1.1.032c-.163.216-.147.552-.02.782.163.2.44.012.418-.214-.09.061-.173.13-.255.201-.179-.192-.196-.542-.01-.732.083.07.168.138.257.201.021-.208-.217-.406-.39-.237zm.568-.051l-.001.9.128.004c.001-.153.002-.306.008-.459.188.07.175.294.235.453l.132.008a62.774 62.774 0 0 1-.115-.41c.068-.104.162-.228.095-.357-.082-.187-.321-.122-.483-.139zm.798.011c-.229.202-.215.634-.032.863.529.249.566-1.026.032-.863zm.558.134c-.115.277.38.322.304.573-.104.186-.255-.074-.38-.112.037.115.065.275.208.303.213.064.395-.211.274-.389-.096-.123-.237-.205-.323-.338l.133-.067c.082.049.166.093.253.132-.017-.25-.377-.37-.47-.104zm.617-.024c-.142.284.319.332.309.574-.096.216-.273-.037-.394-.091-.009.242.297.436.463.215.181-.249-.114-.454-.299-.574.034-.048.068-.095.103-.141.09.051.179.103.274.145-.011-.239-.345-.368-.456-.128zm-4.678 1.427l-.001.901h.129c0-.163 0-.325.002-.488.056.159.108.319.162.479.059-.159.111-.321.168-.48l.001.489h.129c-.001-.309.003-.618-.003-.927-.226.069-.207.351-.293.532-.055-.164-.108-.328-.161-.492l-.135-.015zm1.897.903h.122c-.002-.313.011-.627-.011-.939-.23.248-.061.633-.111.939zm1.292-.903c0 .303-.001.605.001.908.144-.019.351.042.433-.117a.854.854 0 0 0 .012-.66c-.072-.178-.296-.112-.446-.132zm1.076.013c-.055.249.249-.056 0 0zm-3.539.359c.088-.005.176-.012.264-.02l.053.099c-.164-.01-.366.082-.316.278.031.213.271.178.427.176-.007-.191.026-.389-.028-.575-.091-.162-.325-.106-.4.042zm.578-.123c.002.3.001.6.001.901l.12-.047.011-.171c.352.04.397-.405.262-.634-.099-.109-.265-.037-.394-.049zm1.017-.01c-.359.156-.123.94.27.582l-.069-.128-.164.124a31.819 31.819 0 0 0-.093-.185l.36-.012c-.015-.169-.068-.449-.303-.381zm1.533.012c.033.228-.093.524.096.701.029-.193.027-.39.033-.585h.159l-.005-.129c-.094.005-.188.01-.282.013zm.393-.006a36.3 36.3 0 0 0 0 .66l.126-.004a70.851 70.851 0 0 1 0-.652l-.126-.004zm.226.004c.07.221.141.442.215.661l.101-.014c.069-.217.14-.434.207-.652l-.133.006c-.042.143-.085.285-.13.427-.047-.144-.092-.288-.137-.432l-.123.004zm.656.585c.119.163.328.05.404-.093a.537.537 0 0 0-.281.054l-.067-.168.355-.005c-.024-.158-.047-.423-.271-.39-.247.064-.236.417-.14.601z"/>
    <path fill="#fff" d="M12.068 17.735c.086.008.171.018.257.03-.007.151-.1.234-.249.241l-.008-.27zM10.554 20.279c-.052-.209-.063-.477.136-.614.128.199.163.47.052.683-.057.091-.176.016-.188-.069zM10.95 21.534l.137-.052c.083.171.095.388-.074.511a1.069 1.069 0 0 1-.063-.459z"/>
    <path fill="#231f20" d="M6.073.108a3.82 3.82 0 0 1 .294-.089c3.937.01 7.876-.028 11.813.019l.038.018c.049.063.108.075.178.035l.133.081.129.025c.184.132.348.289.496.461l.075.112c.066.115.126.234.191.349-.091.051-.045.173.024.221v21.385c-.079.03-.091.082-.038.156l-.033.038a5.684 5.684 0 0 0-.01.13 1.787 1.787 0 0 1-.469.611 4.397 4.397 0 0 1-.115.07l-.173.133-.13.015a7.46 7.46 0 0 1-.152.086c-.07-.052-.127-.04-.172.035H6.342c-.043-.075-.099-.088-.168-.038l-.038-.033a6.157 6.157 0 0 0-.13-.01 1.826 1.826 0 0 1-.919-.973c.043-.067.037-.127-.021-.183a2.105 2.105 0 0 0-.027-.072c-.004-6.812 0-13.624-.002-20.436-.001-.31-.006-.621.024-.93l.006-.038c.056-.056.063-.117.02-.182l.085-.135L5.2.841l.139-.194a1.87 1.87 0 0 0 .307-.309 5.02 5.02 0 0 1 .301-.197l.127-.033zm.401.034c-.746.081-1.352.774-1.34 1.523-.001 6.89.001 13.78-.001 20.671a1.552 1.552 0 0 0 .945 1.448c.336.15.711.12 1.069.121 3.526.001 7.051-.002 10.577.001.845.061 1.637-.667 1.628-1.517.002-6.908.001-13.816.001-20.724.019-.835-.738-1.574-1.572-1.538-3.769.01-7.539-.02-11.307.015z"/>
    <path fill="#231f20" d="M6.528.682C10.26.651 13.995.679 17.727.668c.383-.024.779.171.96.516.162.275.122.605.126.91V21.96c-.003.289.032.599-.113.863-.168.34-.543.551-.92.539H6.717a1.007 1.007 0 0 1-.926-.531c-.149-.266-.112-.58-.115-.871.002-6.765-.001-13.53.001-20.295a.994.994 0 0 1 .85-.982zm-.261.981c-.01 1.224-.003 2.448-.003 3.672 3.985.003 7.97.001 11.955.001-.001-1.225.005-2.45-.003-3.675.015-.238-.212-.419-.439-.407-3.688-.002-7.376-.002-11.064 0-.23-.014-.453.17-.447.409zm-.032 3.975v7.034h11.973V5.638H6.235zm0 7.302v3.866h11.973V12.94H6.235zm.039 4.172c0 1.742-.002 3.484.001 5.226-.02.242.199.45.439.426 3.69.001 7.38.001 11.071-.001a.402.402 0 0 0 .429-.424c.004-1.743.001-3.485.002-5.228H6.276z"/>
    <path fill="#231f20" d="M10.417 1.714c.115-.184.37-.033.322.162l-.223-.152c-.063.281.381.47.186.763-.15.183-.371-.015-.359-.207.085.056.165.118.246.179.166-.285-.34-.461-.173-.745zM13.222 1.725c.084-.179.327-.077.346.093a5.99 5.99 0 0 1-.255-.067c-.032.241-.063.497.045.724l.112-.163.111.045c-.033.156-.211.275-.342.141-.105-.239-.091-.528-.017-.775zM14.412 1.631c.318.042.229.5.206.732.009.223-.333.264-.361.038-.03-.242-.123-.653.155-.77zm-.018.821c.231-.147.113-.524.054-.751-.16.215-.121.509-.054.751zM14.816 1.706c.125-.174.348-.018.328.165a13.79 13.79 0 0 1-.239-.146c-.053.282.381.465.194.757-.147.19-.374-.009-.36-.201.086.057.168.119.251.179.152-.29-.354-.469-.173-.754zM15.295 1.7c.133-.167.319-.003.35.157a8.348 8.348 0 0 1-.273-.12c-.024.272.371.449.208.734-.136.202-.387.009-.364-.192.086.057.168.119.252.18.147-.293-.362-.474-.172-.759zM15.738 1.611h.161v.913h-.161v-.913zM16.689 1.699c.119-.146.314-.038.336.126a9.591 9.591 0 0 1-.238-.085c-.046.238-.089.504.028.729.139-.089.056-.239.024-.36l.176-.004c-.005.127.005.257-.027.381-.089.121-.312.083-.33-.075-.043-.232-.06-.489.033-.711zM10.793 1.672a.6.6 0 0 1 .403.017c-.354.166.025.682-.248.881-.086-.294.115-.68-.155-.898zM11.221 2.577c.086-.321.038-.726.277-.975.076.323.156.648.194.978-.112-.052-.144-.168-.175-.277l-.119-.001c-.036.106-.063.225-.177.274zm.242-.567c-.072.025-.093.178-.005.194.077-.021.09-.177.005-.194zM11.825 1.633c.33-.079.49.255.302.506.029.145.056.29.075.437-.188-.093-.161-.336-.249-.5a5.127 5.127 0 0 0-.019.464l-.111.001c0-.302-.003-.605.002-.907zm.103.122c.009.1.02.201.034.301.101-.057.128-.163.143-.269a60.617 60.617 0 0 1-.177-.032zM12.25 1.653c.132-.007.265-.01.398-.009-.244.237-.109.596-.141.896l-.114.001c0-.243-.001-.486.001-.729a5.397 5.397 0 0 1-.143-.159zM13.812 2.596c-.186-.278-.05-.648-.087-.964.322-.079.498.255.3.496.026.14.054.279.082.418l-.117-.012a3.418 3.418 0 0 0-.133-.457c-.019.173-.02.347-.044.52zm.031-.871a6.49 6.49 0 0 0-.002.312c.205-.021.19-.275.002-.312zM16.084 1.605c.16.091.18.287.25.44.027-.147-.052-.354.112-.441.017.326.02.654-.004.98-.161-.14-.178-.366-.256-.552-.004.169-.004.339-.004.508h-.113c.004-.312-.013-.624.015-.935zM7.362 2.04h2.04v2.577h-2.04V2.04zm1.087.32c-.166.077-.025.353.133.263.194-.068.038-.377-.133-.263zm-.542.555a3.93 3.93 0 0 0 .017.52c.13-.137.065-.355.195-.495-.04.455-.087.907-.225 1.344l.128.093c.097-.246.185-.495.293-.736.157.202.212.455.29.693l.168-.057c-.07-.31-.146-.623-.324-.892l.046-.209c.155.096.33.154.511.169-.097-.102-.213-.181-.316-.276-.096-.127-.095-.337-.255-.408-.199.024-.359.157-.528.253zM10.369 2.631h6.658v.161h-6.658v-.161zM11.79 2.997l.116.002c.015.126.028.253.045.379.031-.14.059-.281.096-.42.114.104.113.265.148.405.033-.139-.003-.334.159-.398-.051.324.001.688-.167.981-.053-.172-.081-.35-.114-.526-.042.176-.026.382-.155.525-.069-.311-.086-.632-.127-.948zM12.897 3.059l.077-.086c.018.105.037.209.06.313-.069.214-.034.438.019.65-.252-.072-.163-.364-.174-.56l-.068-.076c.032-.079.061-.16.086-.242zM13.526 3.059l.111-.079.004.235.168.038c.05.229.053.469.007.699-.161-.188-.023-.452-.144-.656-.039.216-.023.438-.055.655-.186-.251-.048-.6-.09-.891zM14.451 2.998h.342l.003.114-.234.005.003.219.14.019-.009.101-.13.013c-.016.159.051.359-.094.475-.041-.314-.016-.631-.021-.947zM12.432 3.413c.003-.135.137-.258.256-.151.104.194.043.428.057.639-.126-.003-.309.021-.324-.152-.061-.188.132-.289.238-.405l-.228.069zm.119.185c-.049.052-.047.173.033.194.103-.014.077-.255-.033-.194zM13.205 3.877c-.185-.188-.097-.864.248-.561l-.075.142-.121-.137a2.1 2.1 0 0 0-.008.482c.067-.042.135-.082.206-.118-.026.109-.112.304-.25.192zM14.897 3.233c.341-.072.311.791-.024.641-.111-.184-.13-.477.024-.641zm.049.597c.088-.166.075-.356.031-.532-.101.162-.07.356-.031.532zM15.244 3.238l.263.005a3.299 3.299 0 0 1-.142.171c-.005.164-.008.329-.012.493l-.111-.027c.002-.214.002-.428.002-.643zM12.209 4.134l.117.012c.03.164.06.329.093.492.059-.179.004-.434.198-.539-.057.329-.041.698-.221.987-.091-.311-.128-.635-.186-.952zM13.123 4.199a7.52 7.52 0 0 0 .114-.076l-.001.242.169.024c.043.213.04.432.037.649l-.112.003c0-.2.002-.4-.028-.598-.103.183-.056.398-.065.598l-.113-.004v-.838zM14.215 4.194l.113-.07v.914a4.259 4.259 0 0 1-.113.002v-.846zM12.717 4.895c-.031-.174-.067-.546.198-.525.111.099.095.263.124.397l-.238.019.035.142c.063-.012.126-.023.188-.032-.032.193-.286.198-.307-.001zm.145-.374c-.195.153.2.145 0 0zM13.871 4.415c.128-.139.245.04.276.161l-.221-.071c-.003.153.001.306.02.458l.156-.156c.026.113-.03.293-.179.238-.168-.153-.139-.44-.053-.63zM14.47 4.923c-.032-.177-.085-.496.141-.559.176.037.137.273.172.408l-.232.01.023.147c.06-.015.121-.028.181-.042.003.19-.244.219-.285.037zm.099-.404c-.071.052 0 .201.083.136.07-.052-.002-.2-.083-.136zM14.854 4.424c.08-.129.203-.006.281.057l-.228.015c.18.162.343.588-.048.557l-.043-.157.207.049c-.026-.184-.272-.331-.169-.521zM13.577 4.383h.113l-.001.657-.112-.003v-.654zM7.698 5.795l.068-.042c.07.147.142.294.18.454-.124-.109-.18-.267-.248-.412zM8.329 5.745h.107v.43h-.107v-.43zM12.112 5.879c.338-.035.267.454.251.672.03.203-.259.354-.354.14-.055-.252-.133-.639.104-.812zm-.01.772l.13.001c.033-.236.037-.48-.042-.708-.177.193-.104.473-.088.708zM14.262 5.932c.136-.155.32.004.337.168a7.693 7.693 0 0 1-.26-.121c-.025.276.389.473.186.758-.158.166-.355-.032-.354-.214.09.056.176.118.263.177.127-.299-.371-.482-.172-.768zM15.655 5.874c.314-.076.501.248.302.494.028.151.056.302.072.455-.182-.101-.158-.339-.242-.506-.034.173.024.379-.112.519-.042-.319-.018-.642-.02-.962zm.118.091a6.49 6.49 0 0 0-.002.312c.203-.022.191-.277.002-.312zM11.433 5.873c.452-.089.421.461.354.752-.015.182-.224.15-.354.166-.001-.306-.002-.612 0-.918zm.117.094c-.008.243-.007.486-.001.729.239-.117.228-.605.001-.729zM12.64 6.826c-.205-.266-.061-.668-.083-.989.159.11.188.309.256.477.002-.157.004-.314.018-.469.208.26.07.675.071.995-.128-.169-.176-.379-.244-.576-.002.187.001.375-.019.562zM13.307 5.882c.14-.001.283-.003.411.06l-.166.093c.005.249.003.498.003.747a4.26 4.26 0 0 0-.114-.002c-.031-.3.098-.654-.134-.898zM14.616 5.892c.137-.006.274-.008.412-.002-.049.054-.1.106-.151.157-.004.244-.003.489-.003.733l-.114-.001c0-.242-.001-.485.001-.727a7.21 7.21 0 0 1-.144-.161zM15.054 6.818c.04-.331.113-.658.197-.98.227.262.192.655.275.979-.113-.052-.15-.164-.182-.274h-.117c-.029.109-.061.223-.172.275zm.214-.547c-.132.228.209.094 0 0zM7.362 6.282h2.04v2.577h-2.04V6.282zm1.011.106c-.042.337-.01.679-.075 1.013-.028-.287-.018-.576-.027-.864l-.153.001c-.009.288-.003.577-.034.864-.083-.223.064-.579-.192-.696.008.503-.17 1.057.096 1.517.035.159.011.324.006.485.231-.001.462-.001.693.001-.01-.208-.092-.471.105-.619.257-.219.413-.522.54-.828-.271-.005-.372.275-.527.445-.05-.376-.017-.758-.07-1.132l-.138-.071c-.016.308 0 .617-.036.925-.12-.332.112-.814-.186-1.039zM11.443 6.872h5.047v.161h-5.047v-.161zM11.177 7.238h.341l.003.114-.234.006.003.217.146.024-.02.098-.126.014c-.013.159.05.358-.093.476-.041-.315-.016-.632-.021-.949zM12.864 7.288l.113-.061-.003.224.174.045c.026.229.099.496-.052.697-.042-.217-.018-.441-.056-.659-.099.186-.059.4-.065.601l-.112.001c-.001-.283-.002-.566.001-.849zM13.871 7.321c.082-.187.315-.072.358.084l-.267-.053c-.034.232-.047.472.026.699.074-.055.148-.111.223-.164.035.194-.181.366-.331.198a1.204 1.204 0 0 1-.01-.762zM6.826 7.463h.43v.107h-.43v-.107zM9.564 7.463h.43v.107h-.43v-.107zM11.816 7.482l.279-.011c.048.236.055.481.015.719-.17-.179-.039-.451-.13-.664-.077.212-.039.44-.075.659-.175-.185-.056-.474-.089-.703zM12.269 7.478l.113.003v.653l-.113.005a72.6 72.6 0 0 1 0-.66zM12.54 7.493c.106-.102.195.047.23.136l-.199-.063c.062.154.236.288.194.468-.031.132-.179.105-.278.095l.013-.144.168.069c.014-.206-.304-.367-.128-.56zM14.282 7.479c.086 0 .173.001.26.004-.046.059-.094.116-.142.173-.003.177-.002.354-.028.529-.177-.187-.059-.476-.09-.707zM14.681 7.473c.341-.071.311.786-.022.642-.114-.183-.133-.478.022-.642zm.048.065c-.046.176-.06.367.032.531.038-.176.064-.368-.032-.531z"/>
    <path fill="#231f20" d="M15.027 7.502c.093-.11.197.032.267.095a16.352 16.352 0 0 1-.226-.01c.082.154.28.312.168.5-.09.12-.23.038-.288-.067l.237.006c-.045-.175-.294-.338-.158-.524z"/>
    <path fill="#231f20" d="M15.351 7.504c.108-.109.195.016.266.098l-.222-.015c.088.149.294.318.172.504-.094.117-.227.025-.296-.066.081-.002.163-.003.245-.003-.049-.174-.279-.327-.165-.518zM15.698 7.467l.111.028c-.033.227.081.508-.093.693-.035-.239-.023-.481-.018-.722zM15.954 7.483l.278-.013c.051.235.055.479.018.717-.176-.174-.034-.452-.136-.662-.104.208.042.49-.138.661-.033-.233-.02-.468-.022-.703zM16.597 8.194c-.329-.112-.318-.83.11-.726-.051.336.143.791-.184 1.023.011-.103.041-.201.075-.297zm-.05-.106a.752.752 0 0 0 .001-.554.673.673 0 0 0-.001.554zM12.195 8.376h.161v.913h-.161v-.913zM12.526 8.382l.16-.015-.067.176.039.129c-.048.199-.038.405-.039.609l-.111-.004c.016-.299-.055-.6.018-.894zM13.236 8.452c.117-.181.329-.032.362.133-.092-.032-.183-.068-.277-.095-.009.261.377.448.206.727-.142.187-.358.002-.373-.179.095.047.186.102.282.145.099-.286-.355-.449-.201-.732zM13.696 8.436l.084-.078c.018.106.037.212.06.317a.838.838 0 0 0 .034.613c-.319-.005-.127-.419-.236-.611.021-.08.04-.161.059-.241zM14.698 8.432a7.66 7.66 0 0 0 .094-.064c.02.102.042.204.068.305-.078.2-.065.42.028.614-.302.008-.168-.379-.199-.569l-.196.027c-.009.177-.009.355-.009.532l-.112.005c-.002-.22-.002-.439-.001-.659.105 0 .209.002.314.005l.011-.195zM15.552 8.427l.111-.059c0 .301-.001.602.001.904a7.463 7.463 0 0 0-.258.02.893.893 0 0 1-.018-.659l.159-.03.005-.177zm-.074.261c-.038.174-.038.355.005.529.09-.162.104-.373-.005-.529zM13.947 8.655l.152-.072c.22.168.118.468.139.704-.11-.017-.281.031-.312-.117-.092-.2.102-.327.233-.435l-.214.055.003-.134zm.16.566c.008-.099.011-.199.009-.298-.125.07-.114.217-.009.298z"/>
    <path fill="#231f20" d="M15.246 9.254c-.379.173-.424-.544-.152-.654.183.04.145.272.178.411l-.236.017.032.147.136-.05.041.13zm-.187-.495c-.075.052-.002.2.081.133.071-.051 0-.201-.081-.133zM7.471 8.926l.198-.013a9.55 9.55 0 0 0-.128.086 1.08 1.08 0 0 1-.054.433c-.017-.168-.015-.337-.016-.505zM8.332 9.274c-.075-.12-.212-.253-.081-.387L8.407 9l-.18-.003c.088.124.208.28.067.416l-.149-.141.187.003zM8.438 8.875c.027.064.054.129.079.195.042-.06.079-.123.118-.186-.006.172-.001.345-.001.517a3.9 3.9 0 0 0-.114-.223c-.024.083-.046.166-.071.249-.012-.184-.01-.368-.011-.552zM8.705 8.913h.107v.483h-.107v-.483zM7.362 9.45h2.04v2.362h-2.04V9.45zm.797.323c-.003.586-.004 1.173.001 1.759l.125.001c.005-.587.004-1.174.001-1.761l-.126.001zm.318.03c.002.569 0 1.138.001 1.707.256.031.527.076.776-.011.039-.565.007-1.136.013-1.703a2.583 2.583 0 0 0-.79.007zM11.443 9.557h5.047v.161h-5.047v-.161z"/>
    <path fill="#231f20" d="M8.606 9.893l.535.001c.002.231.002.463.001.695h-.536a53.67 53.67 0 0 1 .001-.695zM10.5 10.037c.144-.007.288-.007.433-.005-.261.251-.108.637-.148.956a5.128 5.128 0 0 0-.124-.002c-.001-.261.001-.523-.003-.784a4.873 4.873 0 0 1-.158-.164zM11.013 10.04h.161v.966h-.161v-.966zM11.354 9.995c.164.056.171.242.223.381.053-.139.072-.312.223-.382.024.33.008.661.013.991l-.125.001c0-.18.001-.36-.002-.54-.036.106-.07.213-.105.319l-.112-.317v.538l-.126-.002c.004-.33-.01-.66.011-.989zM12.007 10.031l.363-.002v.125l-.239.002.002.23c.068.031.137.062.204.096l-.206.061.001.317.239.002-.003.123h-.362v-.955zM12.834 10.02c.341-.088.534.273.317.528.03.146.06.29.092.435l-.123.005c-.039-.17-.074-.343-.141-.505-.046.183.041.416-.118.555-.052-.337-.021-.679-.028-1.019zm.126.126l-.001.274.146-.027-.002-.223-.143-.025zM13.383 10.03h.363l.001.124-.238.001c-.002.077-.003.155-.006.232l.215.083-.214.082.005.307.242.005a5.237 5.237 0 0 0-.006.122l-.362-.001v-.956zM13.884 10.034l.126-.004.104.338c.057-.137.083-.305.232-.375-.041.338.122.76-.091 1.043-.031-.191-.028-.386-.031-.578-.037.101-.07.204-.105.307a15.733 15.733 0 0 0-.105-.278c-.006.167-.008.335-.009.501l-.123-.003v-.951zM14.669 10.025l.127.015c.062.317.13.632.192.949a5.48 5.48 0 0 0-.128-.006l-.048-.235a8.13 8.13 0 0 1-.156-.006l-.062.249-.121-.009.197-.957zm.065.414c-.072.026-.092.179-.004.195.079-.021.088-.177.004-.195zM15.094 10.04h.161v.966h-.161v-.966zM15.438 9.995c.205.088.188.347.272.524.003-.163.004-.326.004-.489h.124c-.001.322.002.643-.003.964a4.507 4.507 0 0 0-.115-.014 29.498 29.498 0 0 0-.166-.528c-.002.179-.002.357-.002.536l-.125-.004c.005-.33-.01-.659.011-.988zM16.007 10.04h.161v.966h-.161v-.966zM16.353 10.034l.127-.004c.05.165.101.33.157.492.004-.164.004-.328.004-.492h.123c-.008.337.025.676-.031 1.01-.149-.144-.17-.361-.247-.544-.008.164-.009.328-.01.492l-.123-.003c.001-.317.001-.634-.001-.951zM16.974 10.155c.074-.224.355-.132.4.062a4.972 4.972 0 0 1-.273-.072c-.058.255-.082.534.039.776.103-.123.064-.255-.006-.379l.213-.009c.02.184-.005.555-.283.44-.202-.207-.139-.558-.09-.819zM8.606 10.703h.535c.003.237.003.474-.001.71-.178-.001-.355 0-.533.001a56.17 56.17 0 0 1-.001-.711zM11.728 11.27h.363l.001.124-.239.001-.003.227c.204.009.161.15.004.19-.002.138-.002.276-.002.413l-.123.002-.001-.957zM13.528 11.335l.127-.075-.005.268.181-.003c.06.229.043.467.042.701l-.122.001-.004-.583-.091.01c-.002.191-.002.382-.002.572h-.125l-.001-.891zM14.467 11.353c.114-.186.323-.053.386.101a6.04 6.04 0 0 1-.273-.067c-.062.242-.071.498.003.739.082-.057.164-.114.249-.166.015.191-.208.39-.355.201-.106-.249-.094-.554-.009-.808zM13.178 11.559c.11-.117.232.016.285.115a18.086 18.086 0 0 1-.232-.017c.079.147.273.285.198.47-.041.129-.192.098-.294.086l.018-.165.201.056c-.055-.179-.321-.348-.177-.546zM15.69 11.604c.039-.105.161-.075.247-.078l.022.172a11.053 11.053 0 0 0-.194-.068c.144.177.186.517.481.479-.052-.178-.297-.325-.196-.524.052-.101.171-.05.256-.04l-.005.15-.183-.055c.071.157.274.296.202.486-.039.123-.185.096-.284.104l-.027-.135a.277.277 0 0 1-.331.117l.004-.164.205.065c-.037-.181-.264-.313-.197-.508zM10.922 11.546c.34-.11.345.549.13.685-.308.003-.27-.518-.13-.685zm.057.065c-.028.172-.027.348.003.52a.425.425 0 0 0-.003-.52zM12.444 11.522c.464-.119.334.425.34.706l-.121-.003c-.017-.209.056-.446-.071-.631-.032.213-.024.428-.028.642l-.123-.024c.003-.23.002-.46.003-.69zM12.916 11.532l.125-.006c.001.234.001.468-.001.702a5.13 5.13 0 0 0-.124-.003l-.001-.693zM14.957 12.225c0-.234-.001-.467.002-.7l.267.007c-.209.177-.135.456-.146.696l-.124-.003z"/>
    <path fill="#231f20" d="M15.331 11.561c.381-.215.403.808.016.643-.133-.172-.126-.46-.016-.643zm.128.584a1.447 1.447 0 0 0 0-.541.488.488 0 0 0 0 .541zM16.681 11.522c.469-.119.335.432.339.715l-.123-.025c-.013-.205.059-.438-.069-.618-.03.209-.025.42-.023.63l-.125.002c0-.235-.001-.469.001-.704zM17.361 12.278c-.325-.097-.265-.519-.148-.758l.265.013c-.059.35.161.843-.201 1.07-.002-.115.045-.22.084-.325zm-.06-.117c.076-.176.057-.369.032-.553-.143.151-.089.377-.032.553zM7.869 11.925l.121.002c-.021.17-.025.342-.057.51-.026-.17-.035-.342-.064-.512zM8.053 11.919h.115v.483h-.106a15.562 15.562 0 0 0-.009-.483zM8.536 11.937l.195-.007-.122.083a3.09 3.09 0 0 1-.007.289c.045.024.09.048.135.074l-.201.009v-.448zM7.665 13.337c.069-.032.139-.063.208-.093l-.097.154a.543.543 0 0 1 .099.34 1.264 1.264 0 0 1-.239-.118l.206.013c-.059-.099-.119-.196-.177-.295zM8.902 13.227l.111.144.126-.14c-.06.169-.099.343-.125.52a5.835 5.835 0 0 0-.113-.525zM7.362 13.799h2.04v2.577h-2.04v-2.577zm1.021.17c-.073.325-.011.666-.085.992-.048-.301.032-.619-.071-.911-.243.197-.054.625-.142.912-.09-.203.068-.644-.184-.673-.056.387-.052.786-.047 1.176.14.244.186.517.135.795.232-.004.465-.004.697.002-.006-.203-.093-.464.096-.612.263-.223.429-.532.548-.85-.264.02-.37.28-.525.453-.043-.387-.034-.776-.064-1.164a6.49 6.49 0 0 0-.139-.01c-.023.295-.008.592-.04.886-.071-.325-.009-.663-.07-.988a4.136 4.136 0 0 0-.108-.006zM11.219 14.315c.464-.085.422.487.345.784-.033.161-.225.112-.344.136a56.428 56.428 0 0 1-.001-.92zm.124.094a5.39 5.39 0 0 0 .001.73c.225-.126.22-.6-.001-.73zM11.842 14.353c.264-.164.347.224.324.412.015.185-.035.575-.308.447-.167-.232-.156-.617-.016-.859zm.086.032a1.16 1.16 0 0 0 .004.786.691.691 0 0 0-.004-.786zM12.341 14.284c.169.099.185.307.259.471.002-.143.002-.287.002-.43l.113.003c-.001.303.004.607-.004.911l-.098-.027a30.571 30.571 0 0 0-.17-.511l-.001.523-.114-.001c.004-.313-.012-.627.013-.939zM13.082 14.365a.546.546 0 0 1 .434.019 9.65 9.65 0 0 0-.178.082c-.021.271.078.575-.079.817-.118-.295.121-.716-.177-.918zM14.093 14.351c.138-.109.274.022.324.152-.087-.023-.173-.048-.259-.073-.048.237-.053.483.014.717.069-.059.137-.118.208-.175.081.207-.191.374-.32.186-.075-.255-.097-.566.033-.807zM14.49 14.315c.178-.013.441.045.379.282-.104.203-.046.422.003.632a4.393 4.393 0 0 0-.114-.011 2.92 2.92 0 0 0-.137-.459c-.016.158-.019.317-.023.476l-.108-.021c.002-.3 0-.599.002-.899zm.108.096c.008.108.019.216.034.324.17-.07.169-.303-.034-.324zM15.106 14.337c.29-.119.318.295.304.485.022.181-.084.539-.323.377-.141-.246-.153-.628.018-.862zm.05.065c-.056.254-.092.539.046.774.098-.233.172-.589-.046-.774zM15.605 14.362c.151-.14.308.031.314.191l-.267-.141c.003.274.384.464.216.752-.147.189-.382-.01-.356-.207.07.052.138.108.205.166l.097-.043c-.017-.258-.409-.459-.208-.718zM16.06 14.654c-.1-.125-.016-.357.159-.342.133.004.141.152.17.249a6.555 6.555 0 0 1-.222-.147 6.8 6.8 0 0 1-.042.133c.139.173.368.418.195.643-.169.148-.35-.05-.334-.232.088.062.17.13.255.196.071-.198-.081-.35-.182-.5zM8.867 17.607c.181.006.478-.035.5.22.053.235-.187.313-.373.306l.001.38-.128.001c-.002-.302-.002-.603.001-.905zm.133.114c-.003.097-.004.193-.005.29.307.047.307-.329.005-.29zM9.492 17.613l.129.002c.007.244-.023.492.02.733.058.071.169.073.21-.017.035-.237.009-.478.015-.717l.127-.002c-.004.248.023.498-.015.744-.059.22-.41.22-.47 0-.038-.246-.01-.496-.016-.744zM10.236 17.691c.145-.199.418-.045.433.17a3.41 3.41 0 0 1-.285-.155c-.174.181.101.261.2.387.152.159.01.463-.213.433-.162-.011-.213-.183-.242-.314.1.048.178.126.252.207.446-.232-.412-.413-.145-.728zM11.942 17.609c.289-.078.629.113.429.434.228.312-.122.564-.428.474a91.406 91.406 0 0 1-.001-.907zm.126.126l.008.27c.149-.007.242-.089.249-.241-.085-.012-.171-.021-.257-.03zm.006.344a11.87 11.87 0 0 0-.001.327c.314.038.301-.354.001-.327zM12.596 17.616l.129-.006c.006.231-.015.465.013.696.004.123.216.126.221.002.027-.229.007-.461.01-.692l.129-.006c-.004.245.021.493-.013.737-.05.219-.39.236-.466.026-.05-.248-.012-.505-.023-.757zM13.177 17.632c.185-.026.374-.025.559.004a3.01 3.01 0 0 1-.217.134l-.001.741a5.464 5.464 0 0 1-.128.002c-.002-.249.001-.498-.003-.748a.68.68 0 0 1-.209-.132zM14.463 17.617c.341-.117.395.356.353.586.017.213-.23.443-.414.258-.148-.241-.174-.652.061-.845zm.092.835a.576.576 0 0 0 .001-.777.608.608 0 0 0-.001.777zM15.003 17.611l.129.004c.078.172.156.345.24.514.004-.172.005-.345.005-.517l.128.002c-.001.304.003.608-.004.913l-.103-.032a10.532 10.532 0 0 0-.263-.559c-.005.192-.005.384-.005.576h-.128a90 90 0 0 1 .001-.9zM16.09 18.851c.004-.104-.158-.332.015-.337.285.155.544.353.812.535-.246.215-.53.392-.812.558-.174-.006-.011-.234-.015-.338H7.797l.001-.418h8.293zM9.839 19.602c.155-.001.311 0 .466.004l-.013.113-.159.007.001.772-.129.004c-.002-.259-.001-.519-.001-.777a8.978 8.978 0 0 0-.164-.005v-.118zM10.55 19.616c.459-.146.484.658.228.87-.456.136-.479-.656-.228-.87zm.004.663c.012.085.131.161.188.069.112-.213.076-.484-.052-.683-.2.136-.188.405-.136.614zM11.65 19.648c.173-.17.412.029.39.237a3.854 3.854 0 0 1-.257-.201c-.186.191-.17.541.01.732.082-.071.165-.14.255-.201.021.227-.255.414-.418.214-.126-.23-.142-.566.02-.782zM12.218 19.597c.162.017.401-.048.483.139.067.129-.027.253-.095.357l.115.41-.132-.008c-.06-.159-.047-.383-.235-.453-.006.152-.008.306-.008.459l-.128-.004c.001-.3-.001-.6.001-.9zm.132.11l-.002.266c.302.037.299-.289.002-.266zM13.016 19.608c.534-.163.497 1.112-.032.863-.183-.229-.197-.661.032-.863zm.055.116c-.13.173-.171.59.076.674.164-.158.187-.674-.076-.674z"/>
    <path fill="#231f20" d="M13.574 19.742c.092-.266.453-.147.47.104a2.43 2.43 0 0 1-.253-.132l-.133.067c.086.133.227.215.323.338.12.178-.062.453-.274.389-.143-.028-.171-.188-.208-.303.125.038.276.297.38.112.076-.251-.42-.296-.304-.573zM14.191 19.718c.111-.24.445-.112.456.128-.095-.042-.184-.094-.274-.145a7.273 7.273 0 0 0-.103.141c.184.12.48.326.299.575-.166.221-.472.026-.463-.215.121.054.298.307.394.091.01-.242-.451-.29-.309-.574zM9.513 21.145l.135.015c.052.164.106.328.161.492.086-.181.067-.463.293-.532.005.309.002.618.003.927h-.129l-.001-.489c-.057.159-.11.321-.168.48-.054-.16-.106-.321-.162-.479-.002.163-.002.325-.002.488h-.129c0-.301-.001-.601.001-.901zM11.41 22.048c.05-.306-.119-.692.111-.939.021.312.009.626.011.939h-.122zM12.702 21.145c.15.02.374-.046.446.132a.854.854 0 0 1-.012.66c-.083.158-.289.097-.433.117l-.001-.908zm.133.103c-.005.231-.004.463-.001.696.354-.001.353-.688.001-.696zM10.239 21.517c.075-.148.309-.204.4-.042.054.186.021.384.028.575-.157.002-.397.037-.427-.176-.05-.196.152-.288.316-.278a8.906 8.906 0 0 0-.053-.099 7.811 7.811 0 0 1-.264.02zm.167.405c.153.107.127-.113.15-.208-.122-.013-.276.099-.15.208zM10.817 21.394c.128.012.294-.06.394.049.135.229.09.673-.262.634l-.011.171-.12.047c-.001-.301.001-.601-.001-.901zm.133.14c-.008.156.004.312.063.459.169-.123.157-.34.074-.511l-.137.052zM11.834 21.384c.235-.068.288.213.303.381-.12.003-.241.007-.36.012l.093.185.164-.124.069.128c-.392.358-.628-.426-.27-.582zm.037.12c-.109.022-.06.187.043.151.111-.017.056-.187-.043-.151zM13.367 21.396l.282-.013.005.129h-.159c-.006.195-.004.391-.033.585-.189-.177-.062-.472-.096-.701zM13.76 21.39l.126.004v.652l-.126.004a36.3 36.3 0 0 1 0-.66zM13.986 21.394l.123-.004c.045.144.09.288.137.432.045-.142.089-.284.13-.427l.133-.006c-.068.217-.139.434-.207.652a3.499 3.499 0 0 1-.101.014c-.075-.219-.145-.44-.215-.661zM14.642 21.979c-.096-.185-.107-.537.14-.601.224-.033.247.232.271.39l-.355.005.067.168a.527.527 0 0 1 .281-.054c-.076.143-.285.256-.404.093zm.144-.474c-.11.022-.058.187.045.15.112-.018.053-.186-.045-.15z"/>
    <path fill="#b8b6b7" d="M5 1.355l.06-.031c-.03.309-.025.62-.024.93.002 6.812-.002 13.624.002 20.436L5 22.603V1.354zM8.759 11.887c.312.011.21.364.196.568a3.567 3.567 0 0 1-.119-.24c-.018.08-.038.159-.06.238a3.44 3.44 0 0 1-.017-.565z"/>
    <path fill="#fefefe" d="M13.843 1.725c.188.037.202.29-.002.312a6.49 6.49 0 0 1 .002-.312zM15.773 5.965c.189.035.201.29-.002.312a6.49 6.49 0 0 1 .002-.312z"/>
    <path fill="#f5f5f5" d="M14.946 3.83c-.039-.176-.07-.37.031-.532.044.176.056.366-.031.532z"/>
    <path fill="#4e4b4c" d="M13.592 4.137c.249-.055-.055.249 0 0z"/>
    <path fill="#282526" d="M16.074 5.889c.137-.005.275-.005.412.003a3.252 3.252 0 0 1-.151.159l.001.729-.114.001-.001-.734a5.353 5.353 0 0 1-.146-.158z"/>
    <path fill="#f4901d" d="M8.373 6.388c.299.225.066.708.186 1.039.036-.307.02-.616.036-.925l.138.071c.054.374.02.757.07 1.132.155-.17.256-.45.527-.445-.127.307-.283.609-.54.828-.197.148-.115.411-.105.619l-.693-.001c.005-.161.029-.326-.006-.485-.266-.46-.088-1.014-.096-1.517.257.117.11.472.192.696.032-.287.025-.576.034-.864l.153-.001c.01.288-.001.577.027.864.065-.334.033-.676.075-1.013zM8.477 9.803c.261-.046.528-.042.79-.007-.006.567.026 1.137-.013 1.703-.249.088-.521.042-.776.011-.001-.569.001-1.138-.001-1.707zm.129.09l-.001.695h.536c.001-.231.001-.463-.001-.695l-.535-.001zm0 .81c-.001.237-.001.474.001.711l.533-.001c.003-.237.003-.474.001-.71h-.535zM8.383 13.969l.108.006c.061.326-.002.663.07.988.032-.295.017-.592.04-.886l.139.01c.03.388.021.777.064 1.164.155-.173.261-.433.525-.453-.119.318-.285.627-.548.85-.189.148-.102.409-.096.612a20.237 20.237 0 0 0-.697-.002 1.153 1.153 0 0 0-.135-.795c-.005-.39-.009-.789.047-1.176.252.029.094.47.184.673.088-.287-.101-.715.142-.912.103.292.023.61.071.911.075-.326.012-.666.085-.992z"/>
    <path fill="#f6f5f5" d="M14.729 7.538c.097.163.07.355.032.531-.092-.164-.078-.355-.032-.531z"/>
    <path fill="#efefef" d="M16.547 8.088a.677.677 0 0 1 .001-.554.757.757 0 0 1-.001.554z"/>
    <path fill="#f7f7f7" d="M15.478 8.688c.108.156.095.367.005.529a1.181 1.181 0 0 1-.005-.529z"/>
    <path fill="#464343" d="M7.723 8.873c.043.12.047.248.05.374l.092.126a9.305 9.305 0 0 0-.167.004 3.017 3.017 0 0 1 .024-.503zM7.877 9.419c.042-.184.079-.37.15-.547.059.176.092.358.113.542l-.116-.157-.147.162zM9.222 9.405c-.088-.153-.128-.582.151-.459a.907.907 0 0 0-.186.205l.171.011-.008.177-.129.065zM8.222 11.908l.121.12.099-.135c.005.181.005.362-.007.544-.037-.089-.072-.178-.107-.267-.033.09-.067.18-.103.269-.006-.177-.004-.354-.003-.531z"/>
    <path fill="#555152" d="M8.897 8.875c.039.067.076.135.112.203.02-.07.042-.141.066-.21.011.169.008.338.009.506a5.295 5.295 0 0 0-.215-.063c.007-.146.014-.291.029-.436z"/>
    <path fill="#f18e1d" d="M8.159 9.773l.126-.001c.004.587.004 1.174-.001 1.761l-.125-.001c-.004-.586-.004-1.173-.001-1.759z"/>
    <path fill="#262223" d="M10.35 11.31a.778.778 0 0 1 .475 0l-.178.111c.003.268.002.537.002.805h-.125c0-.269-.002-.537.001-.806a16.933 16.933 0 0 1-.176-.11zM10.798 17.612l.128.001v.365l.244.002.001-.366.129-.001.001.9-.128-.001a55.49 55.49 0 0 1-.002-.408l-.244.002-.001.406-.127.001c-.003-.3-.002-.6-.001-.9z"/>
    <path fill="#332f30" d="M12.2 11.287c.249-.054-.055.249 0 0zM12.916 14.334c.267-.004-.084.276 0 0z"/>
    <path fill="#393536" d="M16.437 11.287c.25-.054-.055.248 0 0z"/>
    <path fill="#282425" d="M12.181 11.528h.126l-.001.7-.124-.001-.001-.699z"/>
    <path fill="#292526" d="M16.418 11.528h.126c-.002.246.009.494-.014.74-.23-.156-.063-.505-.112-.74z"/>
    <path fill="#565354" d="M7.919 13.261c.143.003.287.002.431 0l-.122.094c.031.099-.051.306.106.295.074-.134.08-.296.144-.436.058.171.093.349.128.526l-.114-.09a4.995 4.995 0 0 1-.34.089c-.012-.161.008-.334-.086-.474-.021.165-.032.333-.061.498-.041-.165-.056-.335-.084-.501z"/>
    <path fill="#3d3a3a" d="M8.652 13.248c.071.019.142.04.213.061l-.188.032a.72.72 0 0 0 .146.377c-.057-.002-.114-.002-.172-.002-.001-.156-.001-.311.001-.467z"/>
    <path fill="#979596" d="M8.677 13.34l.188-.032a1.61 1.61 0 0 1-.042.409.72.72 0 0 1-.146-.377z"/>
    <path fill="#272324" d="M13.74 17.614c.15-.002.301-.002.452-.002v.119l-.165.006c.002.258.001.517.001.775l-.129.001c-.001-.258-.001-.516.001-.774l-.165-.008a4.78 4.78 0 0 0 .005-.117z"/>
    <path fill="#f2f2f2" d="M11.871 21.504c.099-.035.154.134.043.151-.104.036-.152-.129-.043-.151z"/>
    <path fill="#f0f0f0" d="M14.786 21.505c.098-.037.157.132.045.15-.103.038-.155-.128-.045-.15z"/>
    <path fill="#bdbcbc" d="M19.405 22.881c-.054-.074-.041-.126.038-.156v.135l-.038.021z"/>
    <path fill="#ddd" d="M19.362 23.049z"/>
    <path fill="#d1d0d1" d="M18.475 23.879l.13-.015-.13.015z"/>
    <path fill="#dedddd" d="M6.005 23.919z"/>
    <path fill="#cac9c9" d="M6.172 23.962c.069-.05.125-.038.168.038h-.145l-.023-.038z"/>
    <path fill="#d0cfcf" d="M18.15 24c.045-.075.103-.086.172-.035l-.025.035h-.147z"/>
</svg>
