<svg xmlns="http://www.w3.org/2000/svg" width="24" height="24">
    <path fill="#c8031a" d="M10.757 0h2.445c4.345.467 8.329 3.396 9.937 7.478.442 1.05.662 2.17.86 3.287v2.439c-.47 4.342-3.391 8.326-7.47 9.936-1.051.441-2.172.664-3.289.86h-2.458c-4.036-.455-7.785-2.992-9.561-6.664-.655-1.278-.992-2.685-1.222-4.094v-2.456c.187-1.127.414-2.259.86-3.316C2.461 3.399 6.431.491 10.756 0zm.319 2.783c-1.302.15-2.621.451-3.726 1.188-1.997.912-3.317 2.816-4.214 4.752-.806 1.92-.798 4.12-.186 6.093 1.308 4.429 6.285 7.517 10.826 6.355 4.747-.86 8.343-5.953 7.291-10.717-.714-4.591-5.349-8.239-9.992-7.672z"/>
    <path fill="#fff" d="M11.076 2.783c4.643-.567 9.278 3.081 9.992 7.672 1.052 4.764-2.544 9.857-7.291 10.717-4.541 1.161-9.518-1.926-10.826-6.355-.612-1.973-.62-4.173.186-6.093.896-1.936 2.217-3.84 4.214-4.752 1.105-.737 2.423-1.038 3.726-1.188zM9.997 6.955l-.013.697c-1.146-.019-2.299-.07-3.377.383l.134.322c-.231.549-.433 1.11-.649 1.666-.877.515-.274 1.864-.987 2.561l.182.301c.367-.004.734-.006 1.1-.016-.069.728.512 1.253 1.169 1.415.758-.135 1.284-.62 1.325-1.415 1.915.009 3.831.019 5.747-.005-.066.759.533 1.27 1.222 1.406.689-.148 1.414-.564 1.265-1.388l.422-.006.008-.339c.428-.167.852-.341 1.275-.524l.027-.611c-2.868.003-5.737 0-8.606 0l-.001-.244c2.867-.004 5.734.005 8.6-.004-.006-1.398-.009-2.796.001-4.193-2.947.01-5.895.018-8.842-.005zm-1.836 8.58c0 .237-.001.475-.003.712.196-.166.389-.332.586-.496-.009 1.123.006 2.247-.014 3.37h.595c-.03-1.317-.006-2.632-.012-3.949-.431-.06-.813.114-1.153.362zm2.396.688l.501-.01c.141-.252.375-.419.614-.57.274.147.627.323.554.699-.287 1.059-1.683 1.606-1.657 2.784.749-.006 1.498-.005 2.248-.001l-.016-.572c-.509.006-1.017.006-1.526.008.528-.621.991-1.297 1.55-1.894.009-.662-.323-1.62-1.149-1.498-.654-.145-1.123.45-1.12 1.055zm4.327-.807l.018.906-.379.042.006.333.368.008c-.003.69-.003 1.379-.009 2.069l.331.345.615.005-.004-.533a18.632 18.632 0 0 1-.471-.091c-.004-.602-.001-1.204-.005-1.806l.455.014.04-.353-.498-.019c.004-.304.009-.606.017-.909a78.459 78.459 0 0 0-.485-.01z"/>
    <path fill="#fff" d="M7.127 8.22c.73.021 1.461.008 2.191.009-.013.62-.008 1.239-.005 1.859-.925.01-1.851-.008-2.778.012.191-.629.385-1.256.592-1.88z"/>
    <path fill="#030303" d="M9.997 6.955c2.947.023 5.895.016 8.842.005-.01 1.397-.008 2.794-.001 4.193-2.866.009-5.733 0-8.6.004l.001.244c2.87 0 5.738.003 8.606 0l-.027.611c-.423.183-.847.357-1.275.524-.003.084-.006.254-.008.339l-.422.006c.149.824-.576 1.24-1.265 1.388-.689-.136-1.288-.647-1.222-1.406-1.916.025-3.832.014-5.747.005-.04.795-.567 1.28-1.325 1.415-.656-.162-1.238-.688-1.169-1.415-.366.009-.733.012-1.1.016a48.195 48.195 0 0 0-.182-.301c.714-.697.11-2.046.987-2.561.215-.555.418-1.117.649-1.666l-.134-.322c1.078-.453 2.231-.402 3.377-.383l.013-.697zM7.127 8.22a81.914 81.914 0 0 0-.592 1.88c.926-.019 1.853-.001 2.778-.012-.003-.62-.008-1.239.005-1.859-.73-.001-1.461.012-2.191-.009zM8.161 15.535c.34-.248.723-.422 1.153-.362.005 1.317-.018 2.632.012 3.949h-.595c.021-1.123.005-2.247.014-3.37-.197.163-.39.33-.586.496l.003-.712z"/>
    <path fill="#040404" d="M10.557 16.223c-.004-.605.466-1.2 1.12-1.055.826-.122 1.158.837 1.149 1.498-.559.597-1.022 1.273-1.55 1.894.509-.001 1.017-.001 1.526-.008l.016.572c-.75-.004-1.5-.005-2.248.001-.026-1.178 1.37-1.725 1.657-2.784.073-.376-.28-.553-.554-.699-.239.15-.472.318-.614.57a42.28 42.28 0 0 1-.501.01zM14.884 15.416l.485.01c-.008.304-.013.606-.017.909l.498.019-.04.353c-.114-.004-.341-.012-.455-.014.004.602.001 1.204.005 1.806.157.032.313.062.471.091l.004.533-.615-.005-.331-.345c.006-.69.006-1.379.009-2.069l-.368-.008-.006-.333.379-.042-.018-.906z"/>
</svg>
