<svg xmlns="http://www.w3.org/2000/svg" width="24" height="24">
    <path fill="#fff" d="M2.5 0h.815A1.012 1.012 0 0 0 2.5.753V0zM20.569 0h.822v.825A1.009 1.009 0 0 0 20.569 0zM3.369.573c.138-.023.279-.014.419-.015C9.314.559 14.839.557 20.364.559c.245-.028.483.172.467.425.003 7.344.001 14.689.001 22.033a.415.415 0 0 1-.426.456c-5.641.004-11.281.001-16.922.001-.231.018-.451-.18-.437-.416V.986a.399.399 0 0 1 .322-.413zm1.052 2.978c-.179.334-.116.796.185 1.039.385.328.951.25 1.353.538.234.203.065.582-.202.659-.466.196-.983-.039-1.264-.429-.152.096-.3.198-.448.3.469.646 1.434.964 2.139.516.53-.315.594-1.168.091-1.537-.394-.223-.866-.249-1.27-.449-.22-.102-.172-.447.045-.524.397-.176.844.009 1.131.302.138-.117.277-.233.413-.351-.336-.372-.844-.616-1.352-.565-.331.024-.668.197-.823.5zm6.538-.481c-.002 1.091-.001 2.183 0 3.274h2.393v-.547c-.604-.002-1.209.001-1.814-.001v-.932c.322-.002.643 0 .965-.001v-.558h-.963c-.005-.229-.002-.458-.002-.687.59-.002 1.18.001 1.77-.001V3.07h-2.349zm-3.457 0v3.284h.569c.001-.432-.001-.865.001-1.297.534-.042 1.131.123 1.605-.197.483-.318.547-1.082.141-1.486-.218-.22-.535-.301-.836-.301-.493-.005-.986-.001-1.479-.002zm6.494.001v3.283h2.393v-.556c-.604-.003-1.209.001-1.814-.001v-.933c.322-.001.644.001.965-.001v-.557c-.322-.001-.643.001-.965-.001V3.63c.59-.001 1.18.001 1.77-.001v-.557h-2.35zm3.048 0v3.283c.657-.018 1.4.107 1.958-.328.805-.604.814-1.969.043-2.605-.556-.475-1.33-.323-2.001-.35zM5.945 7.997v3.273h2.382v-.547c-.604-.002-1.209 0-1.813-.001-.002-.908 0-1.817-.001-2.725a53.96 53.96 0 0 0-.569 0zm2.974 0c-.002 1.091-.001 2.182 0 3.273h.568V7.998a53.77 53.77 0 0 0-.568 0zm1.438-.001v3.274h.556c.003-.665 0-1.329.001-1.994.3.651.596 1.304.897 1.956.318-.654.626-1.312.948-1.965.003.668-.001 1.335.002 2.003h.556c-.002-1.091.021-2.182.011-3.273a38.156 38.156 0 0 0-.586.001c-.305.648-.613 1.294-.921 1.941-.307-.647-.611-1.295-.918-1.942a50.05 50.05 0 0 0-.548 0zm3.843.001c-.002 1.091-.001 2.182 0 3.273h.568V7.998a53.77 53.77 0 0 0-.568 0zm1.202 0v.535c.296.002.593-.001.89.001.002.912-.001 1.824.001 2.736h.579c.002-.912-.001-1.824.001-2.736.3-.002.6 0 .9-.001v-.536h-2.372zm-.689 4.782c-.965.095-1.841.699-2.315 1.537-.525.895-.681 1.959-.644 2.983.043 1.029.374 2.081 1.08 2.851 1.005 1.159 2.892 1.35 4.122.444 1.071-.775 1.519-2.143 1.556-3.418.045-1.301-.257-2.73-1.253-3.642-.678-.623-1.643-.867-2.546-.755zm-6.869.157c-.313.471-.771.865-1.34.972v1.109c.354.002.708 0 1.062.001.002 2.047-.001 4.093.001 6.139h1.416c.001-2.74.001-5.481 0-8.222-.38.001-.759-.002-1.138.002z"/>
    <path fill="#fff" d="M8.072 3.639c.333 0 .667-.004.999.001.235 0 .489.181.468.436-.004.243-.243.404-.47.407-.332.006-.665.001-.998.001v-.846zM17.603 3.64c.434-.014.96-.028 1.251.357.309.436.335 1.127-.058 1.52-.321.297-.786.276-1.192.267V3.639zM14.967 14.184c.48-.052.987.092 1.338.431.526.504.71 1.257.763 1.96.057.908-.062 1.917-.703 2.613-.592.645-1.701.716-2.359.134-.527-.458-.738-1.17-.802-1.843-.07-.835.009-1.726.454-2.455.277-.461.768-.796 1.309-.84zM20.698 24c.358-.102.618-.419.693-.777V24h-.693zM2.5 23.265a1 1 0 0 0 .678.735H2.5v-.735z"/>
    <path fill="#231f20" d="M3.315 0h17.254c.416.067.755.41.822.825v22.398c-.075.359-.335.675-.693.777H3.178a.998.998 0 0 1-.678-.735V.752c.092-.387.423-.69.815-.753zm.054.573a.399.399 0 0 0-.322.413v22.072c-.015.236.206.434.437.416 5.641 0 11.281.003 16.922-.001a.415.415 0 0 0 .426-.456c0-7.344.002-14.689-.001-22.033.016-.252-.222-.453-.467-.425-5.525-.002-11.05 0-16.576-.001-.14.001-.28-.008-.419.015z"/>
    <path fill="#231f20" d="M4.421 3.551c.155-.304.492-.477.823-.5.508-.051 1.016.193 1.352.565-.137.119-.275.234-.413.351-.287-.292-.735-.477-1.131-.302-.217.077-.264.422-.045.524.404.2.877.226 1.27.449.502.369.438 1.222-.091 1.537-.705.448-1.67.13-2.139-.516.148-.101.296-.204.448-.3.28.389.798.625 1.264.429.267-.077.436-.457.202-.659-.402-.289-.968-.211-1.353-.538-.302-.244-.364-.705-.185-1.039zM10.959 3.07h2.349v.547c-.59.002-1.18-.001-1.77.001 0 .229-.003.458.002.687h.963v.558c-.322.002-.643-.001-.965.001v.932c.605.003 1.209-.001 1.814.001v.547h-2.393V3.07zM7.502 3.07c.493 0 .986-.003 1.479.002.302 0 .618.081.836.301.406.404.342 1.168-.141 1.486-.474.32-1.072.156-1.605.197-.002.432 0 .865-.001 1.297a53.96 53.96 0 0 1-.569 0V3.069zm.57.569v.846c.333 0 .665.005.998-.001.227-.003.466-.164.47-.407.02-.255-.233-.436-.468-.436-.333-.006-.666-.001-.999-.001zM13.996 3.071h2.35v.557c-.59.002-1.18 0-1.77.001v.675c.322.002.643 0 .965.001v.557c-.322.002-.644 0-.965.001v.933c.605.002 1.209-.001 1.814.001v.556c-.798.002-1.595.001-2.393 0V3.07zM17.044 3.071c.671.027 1.445-.125 2.001.35.77.636.762 2.001-.043 2.605-.558.435-1.301.31-1.958.328V3.071zm.559.569v2.145c.406.009.872.029 1.192-.267.394-.394.368-1.084.058-1.52-.291-.385-.817-.371-1.251-.357zM5.945 7.997h.569c.001.908-.001 1.817.001 2.725.604.001 1.209-.001 1.813.001v.547H5.946V7.997zM8.919 7.997h.568v3.272c-.189.002-.379.001-.568 0V7.996zM10.357 7.996h.548c.307.647.611 1.295.918 1.942.308-.647.616-1.293.921-1.941.195-.002.39-.002.586-.001.009 1.091-.013 2.182-.011 3.273h-.556c-.003-.668.001-1.335-.002-2.003-.322.652-.63 1.31-.948 1.965-.301-.651-.597-1.304-.897-1.956-.002.665.001 1.329-.001 1.994h-.556c-.002-1.091-.001-2.182 0-3.274zM14.2 7.997h.568v3.272c-.189.002-.379.001-.568 0V7.996zM15.402 7.997c.791-.002 1.581-.001 2.372 0v.536c-.3.002-.6-.001-.9.001-.002.912.001 1.824-.001 2.736h-.579c-.002-.912.001-1.824-.001-2.736-.297-.002-.593.001-.89-.001a47.704 47.704 0 0 1 0-.535zM14.713 12.779c.903-.112 1.867.133 2.546.755.996.912 1.298 2.341 1.253 3.642-.037 1.276-.486 2.643-1.556 3.418-1.23.906-3.117.715-4.122-.444-.706-.77-1.037-1.822-1.08-2.851-.037-1.024.119-2.088.644-2.983.475-.838 1.351-1.443 2.315-1.537zm.254 1.405c-.541.045-1.032.38-1.309.84-.446.729-.525 1.62-.454 2.455.064.673.275 1.385.802 1.843.658.582 1.766.511 2.359-.134.641-.696.76-1.705.703-2.613-.053-.704-.237-1.456-.763-1.96-.351-.339-.858-.483-1.338-.431zM7.844 12.936c.38-.004.759-.001 1.138-.002.001 2.74.001 5.481 0 8.222H7.566c-.002-2.046.001-4.092-.001-6.139-.354-.001-.708.001-1.062-.001a204.98 204.98 0 0 1 0-1.109c.569-.107 1.028-.5 1.34-.972z"/>
</svg>
