<svg xmlns="http://www.w3.org/2000/svg" width="24" height="24">
    <path d="M10.835 0h2.309c1.702.335 3.541.641 4.931 1.751-3.691-2.152-8.46-2.153-12.15 0C7.306.642 9.141.342 10.835 0zM22.248 5.927c1.105 1.387 1.416 3.216 1.752 4.914v2.297c-.275 1.17-.342 2.449-1.02 3.476 1.4-3.443 1.128-7.468-.732-10.687zM14.083 7.356c.172-.575 1.088-.594 1.272-.02.176.404-.125.793-.487.947.966.011.655 1.152.696 1.777 1.446-.107 2.852 1.091 2.827 2.572l-.259.058c.595 1.579-.725 3.44-2.413 3.376-1.669.047-2.963-1.783-2.399-3.349l-.235-.118c.053-.247.066-.502.097-.752-.16.494-.21 1.026-.438 1.495-.274.252-.766.002-.685-.379.1-.644.305-1.268.442-1.906.161-.786 1.158-.604 1.744-.814l-.194-.533c-.45.197-.868.47-1.337.62-.419.11-.652-.583-.268-.768.77-.45 1.548-.904 2.368-1.26-.466-.028-.925-.456-.73-.946zm1.204 5.416c-.661.342-.517 1.444.202 1.62.672.223 1.36-.53 1.076-1.175-.168-.533-.826-.61-1.278-.445z"/>
    <path d="M5.819 10.025c2.082.012 4.165.012 6.248 0-.007.949.078 1.903-.016 2.85-1.313-.049-2.63.058-3.94-.035.18.076.362.236.569.161 1.104-.148 2.222-.032 3.332-.071l.131.702c-.97 0-1.94.014-2.911-.004l-.461-.458c.684.726.636 2.029-.247 2.568-.862.614-2.201.084-2.43-.942-.244-.824.3-1.682 1.08-1.964l-1.338-.002c-.011-.935-.016-1.87-.018-2.804zM7.49 13.85c-.719.184-.336 1.339.344 1.066.686-.187.322-1.312-.344-1.066zM4.992 21.628c1.04.659 2.114 1.289 3.298 1.656 3.046 1.031 6.461.68 9.308-.776-1.266.961-2.918 1.169-4.434 1.493h-2.309c-2.074-.361-4.278-.916-5.863-2.372z"/>
    <path fill="#fff" d="M5.924 1.751c3.69-2.153 8.459-2.152 12.15 0 .316.212.634.42.953.628.132.199.317.354.541.439l.048.025c.511.517 1.022 1.036 1.544 1.543l.025.037c.08.229.228.425.436.554.206.318.414.635.626.949 1.86 3.22 2.132 7.244.732 10.687l-.058.12c-.209.35-.388.716-.54 1.094l-.066.112a.637.637 0 0 0-.281.455l-.067.115c-.293.34-.56.7-.791 1.085a1.22 1.22 0 0 1-.032.037c-.487.455-.949.936-1.412 1.415l-.126.118a7.35 7.35 0 0 0-1.096.81l-.13.053a.787.787 0 0 0-.442.28l-.342.2c-2.848 1.457-6.263 1.807-9.308.776-1.183-.367-2.257-.997-3.298-1.656a7.765 7.765 0 0 0-.03-.034 1.043 1.043 0 0 0-.545-.409l-.031-.026a64.345 64.345 0 0 0-1.547-1.544l-.025-.034a1.028 1.028 0 0 0-.431-.556 48.106 48.106 0 0 0-.631-.96 13.925 13.925 0 0 0-.677-1.328l-.056-.124a12.725 12.725 0 0 1-.355-8.278l.071-.196c.316-.745.656-1.478 1.012-2.206.216-.32.426-.643.632-.97a.59.59 0 0 0 .329-.436l.13-.138c.52-.514 1.037-1.028 1.546-1.55l.038-.026c.23-.078.425-.229.553-.437.318-.208.636-.415.95-.626zm5.17-1.315C7.109.701 3.392 3.215 1.631 6.792c-1.79 3.504-1.61 7.92.475 11.258 2.024 3.36 5.849 5.538 9.774 5.55 3.859.067 7.668-1.961 9.781-5.188 1.67-2.484 2.299-5.63 1.736-8.569-.577-3.152-2.543-6.016-5.27-7.697C16.049.838 13.539.243 11.094.435z"/>
    <path fill="#fff" d="M10.484 3.533c4.094-.821 8.488 1.817 9.695 5.809 1.336 3.848-.545 8.435-4.174 10.266-3.403 1.873-7.997 1.008-10.49-1.967-2.63-2.908-2.818-7.642-.434-10.753a8.607 8.607 0 0 1 5.404-3.355zm3.599 3.823c-.196.49.264.918.73.946-.82.356-1.597.81-2.368 1.26-.384.185-.151.878.268.768.469-.15.887-.424 1.337-.62.065.178.13.354.194.533-.586.21-1.583.028-1.744.814-.137.637-.342 1.261-.442 1.906-.08.382.412.631.685.379.228-.469.278-1.001.438-1.495-.031.251-.044.505-.097.752l.235.118c-.564 1.566.73 3.396 2.399 3.349 1.688.065 3.008-1.796 2.413-3.376l.259-.058c.025-1.481-1.381-2.678-2.827-2.572-.041-.625.27-1.766-.696-1.777.362-.154.664-.542.487-.947-.184-.574-1.1-.554-1.272.02zm-8.264 2.669c.002.935.007 1.87.018 2.804l1.338.002c-.78.282-1.324 1.14-1.08 1.964.229 1.026 1.568 1.556 2.43.942.883-.539.931-1.842.247-2.568l.461.458c.971.018 1.942.004 2.911.004l-.131-.702c-1.11.038-2.228-.077-3.332.071-.206.076-.389-.085-.569-.161 1.309.092 2.627-.014 3.94.035.094-.947.008-1.901.016-2.85-2.083.012-4.166.012-6.248 0z"/>
    <path fill="#fff" d="M15.287 12.772c.452-.164 1.11-.088 1.278.445.283.644-.404 1.398-1.076 1.175-.719-.176-.863-1.278-.202-1.62zM7.49 13.85c.666-.246 1.031.878.344 1.066-.68.274-1.063-.882-.344-1.066z"/>
    <path fill="#d40000" d="M11.094.436c2.446-.192 4.955.403 7.033 1.711 2.728 1.681 4.693 4.544 5.27 7.697.563 2.939-.066 6.085-1.736 8.569-2.113 3.227-5.922 5.255-9.781 5.188-3.925-.012-7.75-2.19-9.774-5.55C.02 14.713-.16 10.297 1.631 6.793 3.393 3.216 7.109.702 11.094.437zm-.61 3.097A8.607 8.607 0 0 0 5.08 6.888C2.697 10 2.884 14.734 5.514 17.641c2.494 2.975 7.087 3.84 10.49 1.967 3.629-1.831 5.509-6.418 4.174-10.266-1.207-3.992-5.6-6.63-9.695-5.809z"/>
    <path fill="#323232" opacity=".91" d="M4.421 2.814a.559.559 0 0 1 .553-.437 1.033 1.033 0 0 1-.553.437z"/>
    <path fill="#303030" opacity=".9" d="M19.027 2.378c.252.019.526.155.541.439a1.132 1.132 0 0 1-.541-.439z"/>
    <path fill="#323232" opacity=".88" d="M2.837 4.391a3.779 3.779 0 0 1 1.546-1.55c-.509.522-1.026 1.037-1.546 1.55z"/>
    <path fill="#313131" opacity=".87" d="M19.616 2.843a3.74 3.74 0 0 1 1.544 1.543c-.522-.508-1.033-1.026-1.544-1.543z"/>
    <path fill="#2f2f2f" opacity=".9" d="M21.186 4.423c.264.06.437.286.436.554a1.059 1.059 0 0 1-.436-.554z"/>
    <path fill="#252525" opacity=".88" d="M2.378 4.964a.44.44 0 0 1 .329-.436.589.589 0 0 1-.329.436z"/>
    <path fill="#212121" opacity=".82" d="M.734 8.14a4.11 4.11 0 0 1 1.012-2.206c-.355.727-.696 1.46-1.012 2.206z"/>
    <path fill="#1a1a1a" opacity=".84" d="M0 10.824c.215-.829.191-1.746.664-2.489a12.725 12.725 0 0 0 .355 8.278C.33 15.611.271 14.343 0 13.192v-2.368z"/>
    <path fill="#212121" opacity=".83" d="M1.075 16.736c.251.43.473.875.677 1.328-.386-.343-.606-.822-.677-1.328z"/>
    <path fill="#212121" opacity=".84" d="M22.382 17.828c.152-.378.331-.744.54-1.094-.043.422-.218.812-.54 1.094z"/>
    <path fill="#2c2c2c" opacity=".91" d="M22.036 18.395a.634.634 0 0 1 .281-.455.39.39 0 0 1-.281.455z"/>
    <path fill="#232323" opacity=".82" d="M21.178 19.595c.23-.385.498-.745.791-1.085-.13.446-.406.827-.791 1.085z"/>
    <path fill="#2b2b2b" opacity=".87" d="M2.383 19.025c.206.128.355.325.431.556a.555.555 0 0 1-.431-.556z"/>
    <path fill="#2a2a2a" opacity=".85" d="M2.839 19.614a68.248 68.248 0 0 1 1.547 1.544 3.76 3.76 0 0 1-1.547-1.544z"/>
    <path fill="#2c2c2c" opacity=".86" d="M19.733 21.047c.463-.479.925-.96 1.412-1.415a3.282 3.282 0 0 1-1.412 1.415z"/>
    <path fill="#282828" opacity=".87" d="M4.417 21.185c.221.077.416.211.545.409-.272.049-.479-.164-.545-.409z"/>
    <path fill="#222" opacity=".82" d="M18.511 21.974a7.35 7.35 0 0 1 1.096-.81c-.262.39-.647.673-1.096.81z"/>
    <path fill="#2a2a2a" opacity=".91" d="M17.94 22.307a.794.794 0 0 1 .442-.28c.006.23-.253.308-.442.28z"/>
</svg>
