<svg xmlns="http://www.w3.org/2000/svg" width="24" height="24">
    <path fill="#0303cc" d="M10.689 0h2.605c2.05.317 4.067 1.005 5.744 2.25a1031.664 1031.664 0 0 1-3.915 3.913c-.39-.271-.991-.408-1.313.039-.321.359-.102.825.085 1.186a15.28 15.28 0 0 1-.126.131 74.485 74.485 0 0 1-1.153-1.098c.15-.241.303-.525.122-.797-.362-.724-.607-1.527-1.12-2.164-1.054-1.199-3.43-.228-3.256 1.391.083.615-.31 1.631.535 1.823-.563.556-.922 1.289-1.085 2.058-.068.26.177.522.442.468 1.279.014 2.557.001 3.836 0l-.847.841-.022-.661h-.866a61.853 61.853 0 0 0-.003 1.553l-.253.256c-.004-.606-.001-1.212-.007-1.818-.292.001-.585.001-.877.003.009.883-.043 1.768.047 2.649-2.33 2.344-4.673 4.678-7.011 7.015-1.245-1.672-1.928-3.684-2.252-5.726v-2.607c.197-.974.361-1.962.727-2.892 1.51-4.22 5.54-7.276 9.962-7.814zm-.814.846c-1.137.382-.405 2.243.698 1.708 1.096-.404.382-2.19-.698-1.708z"/>
    <path fill="#0303cc" d="M9.229 6.472c.159-.699-.245-1.629.219-2.186.043.656.03 1.315.017 1.972l-.236.214zM11.019 4.244c.462.763 1.103 1.605.952 2.543.358.48.849.842 1.268 1.264l-.599.601a5.41 5.41 0 0 0-1.65-2.393c-.012-.671-.028-1.346.029-2.014zM21.677 4.863c1.284 1.693 1.995 3.742 2.323 5.824v2.607c-.527 4.429-3.59 8.468-7.812 9.979-.925.365-1.908.525-2.875.727h-2.607c-2.09-.321-4.146-1.037-5.843-2.324.307-.3.612-.602.917-.905.801 1.087 2.526 1.294 3.475.287 1.026-.946.824-2.683-.26-3.503.165-.173.337-.341.508-.51.774.669 1.553 1.332 2.337 1.988-.282.772.358 1.429 1.137 1.187l-.045.417.55-.016-.299-.446c.29-.03.58-.064.87-.09.366 1.201 1.756 1.959 2.951 1.507 1.3-.41 1.955-2.083 1.256-3.26-.555-1.068-1.933-1.456-3.01-.98-.231-.369-.462-.737-.685-1.11a4.28 4.28 0 0 1 .209-.431c.203-.025.405-.046.61-.064-.003-.241-.005-.481-.009-.721-.555.143-1.128.29-1.588.648.22.039.441.079.662.115l-.275.464c-1.29.003-2.581.004-3.871-.001 1.428-1.452 2.885-2.873 4.316-4.323.022.31.223.775.605.556.358-.323.126-.914.188-1.347 2.093-2.088 4.182-4.18 6.268-6.275z"/>
    <path fill="#fff" d="M9.875.846c1.079-.483 1.794 1.304.698 1.708-1.103.535-1.835-1.326-.698-1.708z"/>
    <path fill="#fff" d="M8.362 4.852c-.173-1.62 2.202-2.59 3.256-1.391.513.637.758 1.44 1.12 2.164.181.273.028.556-.122.797.38.371.765.736 1.153 1.098-.176.178-.353.355-.53.531-.42-.422-.91-.784-1.268-1.264.151-.938-.49-1.78-.952-2.543-.056.669-.041 1.343-.029 2.014a5.415 5.415 0 0 1 1.65 2.393c-.182.184-.369.365-.55.55-1.279.001-2.557.014-3.836 0-.265.054-.51-.209-.442-.468.163-.769.522-1.502 1.085-2.058-.845-.191-.452-1.208-.535-1.823zm.867 1.62c.059-.052.177-.16.236-.214.013-.657.026-1.317-.017-1.972-.464.557-.06 1.487-.219 2.186zM13.81 6.203c.321-.447.923-.311 1.313-.039-.405.412-.817.817-1.228 1.225-.188-.361-.407-.826-.085-1.186zM9.216 9.374c.292-.001.585-.001.877-.003.005.606.003 1.212.007 1.818-.278.279-.557.556-.837.834-.09-.881-.038-1.767-.047-2.649zM10.355 9.381h.866l.022.661c-.296.298-.591.597-.89.892a57.435 57.435 0 0 1 .003-1.553zM14.618 11.929c.264-.264.53-.526.792-.791-.062.433.17 1.024-.188 1.347-.382.219-.582-.247-.605-.556zM13.786 15.673c.46-.358 1.033-.505 1.588-.648.004.24.007.48.009.721a17.49 17.49 0 0 0-.61.064c-.077.14-.147.283-.209.431.223.372.454.741.685 1.11 1.077-.476 2.455-.088 3.01.98.699 1.178.043 2.85-1.256 3.26-1.195.452-2.585-.306-2.951-1.507-.29.026-.58.06-.87.09l.299.446-.55.016c.01-.104.033-.312.045-.417-.779.243-1.419-.414-1.137-1.187a191.556 191.556 0 0 1-2.337-1.988l.253-.248c.851.71 1.641 1.496 2.544 2.139a9.78 9.78 0 0 0-.39-.737c.168-.009.337-.011.505-.004.008.193.014.388.026.581l.42.021c.393-.734.767-1.479 1.148-2.22-1.342-.005-2.682.007-4.024-.007l.316-.319c1.29.005 2.581.004 3.871.001.092-.155.182-.31.275-.464-.222-.037-.442-.076-.662-.115zm.571.85c-.401.775-.8 1.551-1.237 2.308.311.018.619.05.927.09.164-.567.51-1.052.977-1.407a39.012 39.012 0 0 0-.668-.991zm1.116 1.111c.319.564.618 1.158 1.102 1.601.235.172.071.559-.198.576-.637.113-1.288.136-1.928.231.271.753.993 1.344 1.815 1.313 1.183.026 2.181-1.226 1.861-2.375-.24-1.144-1.588-1.798-2.652-1.346zm-1.091 1.275c.505.052 1.012.09 1.519.126a36.49 36.49 0 0 0-.738-1.218 2.296 2.296 0 0 0-.78 1.092zM8.727 17.845c.089-.098.178-.194.269-.29 1.083.82 1.285 2.557.26 3.503-.95 1.007-2.674.8-3.475-.287l.243-.243c.586.732 1.662 1.117 2.518.615 1.255-.603 1.391-2.565.186-3.298z"/>
    <path fill="#fff" d="M7.78 18.826c.258-.324.557-.611.864-.888-.3.573-.607 1.145-.749 1.782-.312.282-.622-.102-.619-.428l.176-.148c.201-.012.311-.118.328-.319z"/>
    <path fill="#cc0303" d="M19.037 2.25a12.246 12.246 0 0 1 2.64 2.612 2060.13 2060.13 0 0 1-6.268 6.275c-.262.265-.529.527-.792.791-1.431 1.449-2.888 2.871-4.316 4.323l-.316.319-.229.227-.253.248c-.17.169-.342.337-.508.51-.09.096-.18.191-.269.29-.021.022-.062.07-.083.093a7.549 7.549 0 0 0-.864.888.411.411 0 0 0-.328.319l-.176.148c-.435.392-.838.82-1.254 1.235l-.243.243c-.304.303-.61.605-.917.905a12.227 12.227 0 0 1-2.611-2.637c2.338-2.337 4.681-4.671 7.011-7.015.279-.278.559-.555.837-.834l.253-.256c.299-.295.594-.594.89-.892l.847-.841c.181-.185.367-.366.55-.55l.599-.601a88.473 88.473 0 0 0 .656-.662c.41-.408.822-.813 1.228-1.225 1.309-1.301 2.612-2.606 3.915-3.913z"/>
    <path fill="#0303ff" d="M9.756 16.797l.229-.227c1.342.013 2.682.001 4.024.007-.38.741-.754 1.486-1.148 2.22l-.42-.021c-.012-.193-.018-.388-.026-.581a5.317 5.317 0 0 0-.505.004c.142.239.269.487.39.737-.904-.643-1.693-1.43-2.544-2.139zM14.357 16.523c.228.327.449.658.668.991a2.718 2.718 0 0 0-.977 1.407 12.477 12.477 0 0 0-.927-.09c.437-.757.835-1.533 1.237-2.308zM15.473 17.634c1.064-.452 2.412.202 2.652 1.346.32 1.149-.678 2.401-1.861 2.375-.822.031-1.544-.56-1.815-1.313.64-.094 1.29-.118 1.928-.231.269-.017.433-.404.198-.576-.484-.443-.783-1.037-1.102-1.601z"/>
    <path fill="#0303ff" d="M14.382 18.909c.144-.438.42-.81.78-1.092.254.401.5.807.738 1.218a42.976 42.976 0 0 1-1.519-.126zM8.644 17.938c.021-.024.062-.071.083-.093 1.205.733 1.069 2.695-.186 3.298-.856.502-1.932.117-2.518-.615.416-.416.818-.843 1.254-1.235-.003.325.307.709.619.428.142-.637.449-1.209.749-1.782z"/>
    <path fill="#0303ff" d="M7.452 19.145a.413.413 0 0 1 .328-.319c-.017.201-.127.307-.328.319z"/>
</svg>
