<svg xmlns="http://www.w3.org/2000/svg" width="24" height="24">
    <path fill="#037863" d="M10.723 0h2.525c1.456.23 2.906.594 4.216 1.287 3.591 1.791 6.058 5.47 6.535 9.435v2.526c-.23 1.456-.594 2.906-1.287 4.216-1.791 3.591-5.47 6.058-9.434 6.535h-2.61c-1.463-.247-2.92-.616-4.233-1.325-3.52-1.791-5.945-5.408-6.436-9.31v-2.711c.504-3.938 2.965-7.586 6.535-9.367C7.836.596 9.276.238 10.722-.001zm.121 2.326c-3.05.403-5.825 2.38-7.231 5.112-1.576 2.964-1.42 6.75.391 9.576 2.42 4.012 7.923 5.695 12.166 3.694 4.209-1.785 6.669-6.797 5.436-11.215-1.093-4.665-6.031-7.957-10.762-7.167z"/>
    <path fill="#fff" d="M10.844 2.326c4.73-.79 9.668 2.502 10.762 7.167 1.233 4.418-1.227 9.43-5.436 11.215-4.243 2.001-9.746.318-12.166-3.694-1.811-2.826-1.967-6.612-.391-9.576 1.406-2.732 4.181-4.709 7.231-5.112zm2.12 1.415c-.934.276-1.125 1.674-.305 2.196.709.558 1.865.061 1.97-.827.183-.896-.819-1.718-1.664-1.369zm-2.682 3.567c-1.297.337-1.643 1.683-2.142 2.749-.327.007-.653.004-.98.007l-.004.444c.69-.136 1.359.246 2.026.088l-.016.55-.496.071c.165.159.334.315.503.47l-.009.467c-.684 1.091-.141 2.541-.315 3.776l-.487.001c-.034-.604.081-1.231-.061-1.819-.261-.223-.684-.077-1.008-.129l.001.366.67.006c.08.758-.412 2.281.888 1.992.014 1.122-.034 2.247.02 3.367.02.504.851.511.873.003.058-1.126.004-2.258.024-3.386.109-.001.328-.001.437-.003.013.56-.037 1.123.028 1.68.224.373.758.143 1.12.209v-.352l-.721-.004c-.077-.741.395-2.21-.865-1.951-.04-1.417.153-2.862-.271-4.225.172-.151.342-.304.508-.462l-.491-.078.01-.618h1.973c.017 2.972-.031 5.949.023 8.92.058.851 1.454.853 1.494-.01.051-2.276.004-4.557.023-6.835l.463-.001c.02 2.279-.034 4.561.026 6.838.051.855 1.444.869 1.487 0 .05-2.967.006-5.936.021-8.903.571-.013 1.145.038 1.713-.03.554-.134.68-.893.29-1.274-.696-.866-1.324-1.795-2.068-2.619-1.589-.098-3.313-.298-4.688.693z"/>
    <path fill="#fff" d="M9.966 8.839c.489-.331 1.045-.548 1.558-.838.004.693.003 1.387.001 2.08l-2.12.001c.185-.415.311-.862.561-1.244zM15.052 8.512c.226.291.45.581.672.875a50.98 50.98 0 0 1-.676.004c.001-.293.001-.587.004-.879z"/>
    <path fill="#030303" d="M12.964 3.741c.845-.349 1.848.473 1.664 1.369-.105.888-1.261 1.385-1.97.827-.819-.521-.629-1.92.305-2.196zM10.282 7.308c1.375-.991 3.099-.791 4.688-.693.744.824 1.372 1.752 2.068 2.619.391.381.264 1.14-.29 1.274-.568.068-1.142.017-1.713.03-.016 2.967.028 5.936-.021 8.903-.043.869-1.436.855-1.487 0-.06-2.276-.006-4.559-.026-6.838l-.463.001c-.018 2.278.028 4.559-.023 6.835-.04.863-1.436.861-1.494.01-.054-2.971-.006-5.947-.023-8.92H9.525l-.01.618.491.078a18.4 18.4 0 0 1-.508.462c.425 1.363.231 2.808.271 4.225 1.26-.258.788 1.21.865 1.951l.721.004v.352c-.362-.065-.896.165-1.12-.209-.065-.557-.016-1.12-.028-1.68-.109.001-.328.001-.437.003-.02 1.128.034 2.259-.024 3.386-.023.508-.853.501-.873-.003-.054-1.12-.006-2.245-.02-3.367-1.299.288-.808-1.234-.888-1.992l-.67-.006-.001-.366c.324.053.747-.094 1.008.129.142.588.027 1.216.061 1.819l.487-.001c.175-1.236-.369-2.685.315-3.776l.009-.467a27.942 27.942 0 0 1-.503-.47l.496-.071c.004-.183.01-.366.016-.55-.667.158-1.336-.224-2.027-.088l.004-.444c.327-.003.653 0 .98-.007.498-1.066.845-2.413 2.142-2.749zm-.316 1.531c-.25.382-.376.829-.561 1.244l2.12-.001c.001-.693.003-1.387-.001-2.08-.513.29-1.069.507-1.558.838zm5.086-.327c-.003.293-.003.586-.004.879.224 0 .45-.001.676-.004a81.153 81.153 0 0 0-.672-.875z"/>
</svg>
