<svg xmlns="http://www.w3.org/2000/svg" width="24" height="24">
    <path fill="#bcbec0" d="M3.038 0H21.1c.268.136.476.361.6.634v22.715a1.278 1.278 0 0 1-.611.652H3.103a1.27 1.27 0 0 1-.604-.6V.598c.119-.247.321-.436.538-.597zM2.92.953l.001 17.095c-.008.44-.021.882.048 1.319-.074.15-.017.329-.021.49-.052.142.002.301.007.448-.033.156-.022.316-.029.474l.057-.063c-.077.165-.047.355-.058.531.01.147.019.294.031.442-.073.135.005.304 0 .451-.041.152-.012.313-.009.469-.034.154-.009.314-.008.471.007.132.036.261.06.392.248.042.496.085.748.086 5.698-.022 11.396.012 17.092-.017.441.03.434-.48.425-.789-.04-6.049.05-12.103-.045-18.15l-.093.094c.174-.146.11-.391.127-.587l-.103.105c.158-.144.1-.362.084-.546.035-.154.006-.313.007-.468.055-.149.002-.316-.001-.47.012-.151.014-.301.009-.453l-.105.107c.157-.156.111-.395.12-.595l-.026-.438-.083.088c.16-.138.094-.36.085-.541a3.775 3.775 0 0 0-.059-.379c-.62-.133-1.255-.065-1.883-.078-5.28 0-10.561-.003-15.841.002-.305-.04-.592.19-.54.511z"/>
    <path fill="#bcbec0" d="M7.121 19.203c.166-.173.331-.345.498-.516.543.115 1.107.006 1.647.125-.086.946-.975 1.565-1.394 2.379.459.003.918.006 1.378.014v.491c-.701.014-1.402.015-2.101-.003.076-.973.95-1.596 1.395-2.41a12.765 12.765 0 0 1-1.423-.08zM10.7 19.535c.819-.153 1.385.778 1.128 1.498-.131.66-.999.924-1.521.541-.747-.497-.553-1.914.393-2.039zm-.1.577c-.472.323-.225 1.316.41 1.163.669-.248.346-1.597-.41-1.163zM12.557 19.579c.552.156 1.278-.3 1.674.272.213.588.074 1.24.095 1.855l-.566-.02a16.66 16.66 0 0 0-.024-1.627c-.217.019-.597-.092-.638.218-.065.471-.017.949-.034 1.424h-.507a45.447 45.447 0 0 1 0-2.121zM15.811 19.534c.724-.134 1.236.642 1.119 1.3-.45.138-.952.012-1.421.087.231.693 1.063.012 1.385.573-.402.279-.952.427-1.404.175-.832-.458-.676-2 .321-2.135zm-.283.882c.283.013.566.018.851.015-.068-.528-.728-.49-.851-.015z"/>
    <path fill="#fff" d="M2.92.953c-.053-.321.234-.551.54-.511C8.74.437 14.021.44 19.301.44c.628.012 1.262-.056 1.883.078-1.143 1.171-2.276 2.351-3.414 3.528-1.946-1.946-4.909-2.795-7.583-2.118-3.009.686-5.458 3.273-5.991 6.31-.542 2.672.46 5.497 2.392 7.381-1.207 1.248-2.418 2.492-3.618 3.747-.069-.437-.056-.879-.048-1.319L2.921.952zM18.016 4.235c1.078-1.11 2.149-2.225 3.226-3.337.009.181.075.403-.085.541-.997 1.034-1.995 2.067-2.993 3.099l-.147-.303zM21.264 1.788c-.009.201.037.439-.12.595-.853.876-1.701 1.759-2.551 2.639l-.183-.286c.954-.979 1.894-1.974 2.854-2.948zM18.787 5.274c.816-.849 1.641-1.691 2.453-2.544.003.155.056.322.001.47-.767.798-1.54 1.592-2.308 2.388l-.146-.314z"/>
    <path fill="#fff" d="M10.36 4.021c2.082-.661 4.43-.009 5.985 1.495-.42.437-.84.874-1.262 1.308-.568.023-1.188.082-1.628.484-.61.518-.798 1.341-.871 2.102l-.947.979c-.209-.012-.42-.021-.629-.032-.02-1.141-.005-2.283-.005-3.425-.424-.01-.85-.011-1.274.003-.794 1.001-1.574 2.013-2.374 3.01-.344.379-.222.923-.231 1.387.939.024 1.878-.003 2.818.015l.084.705c-.662.698-1.335 1.386-2.004 2.078-1.586-1.533-2.321-3.92-1.669-6.054.533-1.919 2.097-3.499 4.008-4.055zM19.091 5.889c.712-.742 1.431-1.478 2.144-2.22.015.184.074.402-.084.546-.633.651-1.263 1.304-1.893 1.956l-.166-.282zM19.437 6.436c.564-.578 1.12-1.165 1.689-1.74l.093-.094c.095 6.047.005 12.101.045 18.15.009.309.015.819-.425.789-5.696.03-11.394-.005-17.092.017-.252-.001-.5-.044-.748-.086 1.377-1.421 2.747-2.848 4.122-4.269.471.059.948.074 1.423.08-.444.814-1.319 1.436-1.395 2.41.7.018 1.401.017 2.101.003v-.491a90.57 90.57 0 0 0-1.378-.014c.419-.814 1.308-1.433 1.394-2.379-.54-.119-1.104-.01-1.647-.125.489-.508.978-1.016 1.469-1.522 3.211 1.37 7.218.27 9.319-2.507 1.834-2.286 2.17-5.548 1.03-8.222zM10.7 19.535c-.946.125-1.14 1.542-.393 2.039.521.383 1.39.119 1.521-.541.257-.72-.309-1.65-1.128-1.498zm1.857.044a45.447 45.447 0 0 0 0 2.121h.507c.016-.474-.032-.952.034-1.424.041-.31.421-.199.638-.218.041.541.036 1.085.024 1.627l.566.02c-.021-.614.118-1.267-.095-1.855-.396-.571-1.122-.116-1.674-.272zm3.254-.045c-.996.135-1.153 1.677-.321 2.135.452.252 1.002.105 1.404-.175-.323-.562-1.154.12-1.385-.573.468-.076.971.051 1.421-.087.117-.658-.396-1.434-1.119-1.3zM15.497 6.842c.362-.37.722-.742 1.083-1.114l.136.312-.977 1.01c-.082-.069-.161-.139-.242-.208zM13.643 9.68c1.081-1.14 2.212-2.225 3.266-3.389l.224.244c-1.181 1.162-2.287 2.393-3.448 3.574l-.041-.429zM16.486 7.661c.267-.276.533-.554.8-.829l.118.345c-.235.24-.468.481-.7.724l-.218-.239zM9.977 15.325c2.528-2.634 5.097-5.224 7.603-7.876l.124.331c-2.496 2.526-4.921 5.118-7.4 7.664l-.327-.119zM13.699 8.722c.313-.335.633-.664.955-.991l.278.157c-.38.392-.759.782-1.135 1.179l-.099-.346z"/>
    <path fill="#fff" d="M16.985 8.985c.278-.294.56-.587.842-.876.564 2.025-.012 4.324-1.512 5.804-1.423 1.456-3.643 2.13-5.62 1.587 1.005-1.044 2.013-2.087 3.019-3.13.83.315 1.897.359 2.567-.313.785-.8.851-2.021.704-3.072zM8.315 10.357a44.652 44.652 0 0 1 1.643-2.116c.01.706.002 1.412.007 2.118-.549.013-1.1.016-1.649-.002zM13.693 10.557c.66-.692 1.33-1.375 1.989-2.069l.213.245c-.661.694-1.334 1.378-1.995 2.074l-.207-.25zM8.302 14.301c1.396-1.467 2.855-2.872 4.216-4.373l.108.348c-1.373 1.404-2.724 2.825-4.088 4.236a44.81 44.81 0 0 1-.236-.211z"/>
    <path fill="#fff" d="M14.497 11.563c.466-.491.937-.976 1.407-1.462.133.798-.537 1.722-1.407 1.462zM8.813 14.682c1.281-1.327 2.562-2.652 3.841-3.981l.13.34c-1.239 1.284-2.479 2.571-3.72 3.853l-.251-.212zM9.373 15.03c1.167-1.21 2.336-2.417 3.5-3.629l.215.239a1648.453 1648.453 0 0 1-3.441 3.563l-.275-.173zM6.824 15.834l.303.137c-1.386 1.45-2.791 2.881-4.173 4.333-.005-.147-.059-.306-.007-.448 1.286-1.346 2.585-2.68 3.876-4.022zM2.982 20.716c1.47-1.504 2.922-3.027 4.387-4.536l.233.231c-1.562 1.61-3.108 3.234-4.678 4.836.011-.176-.019-.366.058-.531zM2.955 21.688c1.631-1.71 3.281-3.401 4.919-5.105l.31.136c-1.741 1.809-3.492 3.608-5.229 5.42.005-.147-.073-.316 0-.451zM2.946 22.609c1.847-1.922 3.701-3.837 5.554-5.753l.273.179c-1.944 2.015-3.891 4.029-5.834 6.046-.001-.157-.026-.318.008-.471zM10.6 20.112c.756-.435 1.079.915.41 1.163-.635.154-.882-.84-.41-1.163zM15.528 20.416c.123-.474.782-.513.851.015-.284.003-.567-.002-.851-.015z"/>
    <path d="M17.769 4.046c1.138-1.177 2.27-2.357 3.414-3.528.025.126.046.252.059.379-1.076 1.112-2.148 2.227-3.226 3.337-.477.499-.958.995-1.435 1.494-.361.372-.721.744-1.083 1.114-.284.294-.563.592-.843.889a46.96 46.96 0 0 0-.955.991c-.395.401-.79.802-1.181 1.207-1.361 1.5-2.82 2.906-4.216 4.373-.492.512-.986 1.021-1.478 1.533-1.291 1.342-2.59 2.676-3.876 4.022.004-.16-.053-.34.021-.49 1.2-1.255 2.412-2.499 3.618-3.747.478-.497.958-.993 1.435-1.49.669-.692 1.342-1.38 2.004-2.078.54-.551 1.076-1.107 1.611-1.663l.947-.979c.835-.86 1.666-1.724 2.499-2.586.422-.434.842-.871 1.262-1.308l1.424-1.47zM21.156 1.439l.083-.088.026.438c-.96.974-1.9 1.969-2.854 2.948-.499.519-.999 1.038-1.501 1.554-1.054 1.164-2.185 2.249-3.266 3.389l-.989 1.021c-1.279 1.329-2.56 2.654-3.841 3.981-.482.498-.963.998-1.444 1.498-1.465 1.509-2.917 3.032-4.387 4.536l-.057.063c.007-.158-.004-.319.029-.474 1.382-1.452 2.787-2.884 4.173-4.333.472-.484.941-.972 1.411-1.459 1.363-1.411 2.715-2.833 4.088-4.236.389-.405.782-.805 1.172-1.209.375-.396.755-.787 1.135-1.179.269-.278.537-.56.806-.838l.977-1.01c.481-.502.965-1 1.446-1.502.998-1.032 1.996-2.065 2.993-3.099zM21.144 2.384l.105-.107c.006.152.003.302-.009.453-.812.853-1.637 1.695-2.453 2.544-.501.518-1 1.039-1.501 1.557l-.8.829c-.267.276-.538.551-.804.828-.66.694-1.329 1.377-1.989 2.069l-.82.844c-1.164 1.212-2.333 2.419-3.5 3.629l-1.499 1.553c-1.638 1.704-3.288 3.396-4.919 5.105-.012-.148-.021-.295-.031-.442 1.57-1.601 3.116-3.226 4.678-4.836l1.461-1.517c1.241-1.283 2.481-2.569 3.72-3.853l.9-.932c1.162-1.181 2.268-2.412 3.448-3.574l1.461-1.512c.85-.88 1.697-1.763 2.551-2.639zM18.933 5.588c.768-.796 1.541-1.59 2.308-2.388-.001.155.028.314-.007.468-.712.742-1.431 1.478-2.144 2.22-.505.519-1.006 1.042-1.51 1.561-2.507 2.652-5.076 5.242-7.603 7.876a528.4 528.4 0 0 0-1.477 1.53c-1.853 1.916-3.707 3.831-5.554 5.753-.003-.156-.033-.318.009-.469 1.738-1.812 3.488-3.612 5.229-5.42.488-.506.977-1.009 1.463-1.517 1.149-1.186 2.295-2.373 3.441-3.563.27-.279.542-.555.812-.833.66-.696 1.333-1.38 1.995-2.074l.809-.833c.232-.243.465-.484.7-.724.508-.531 1.02-1.058 1.529-1.588zM21.15 4.214l.103-.105c-.016.196.047.441-.127.587-.568.574-1.124 1.162-1.689 1.74-.536.559-1.073 1.115-1.61 1.672-.282.29-.564.583-.842.876-.361.372-.724.741-1.081 1.116-.47.486-.942.972-1.407 1.462-.262.267-.523.536-.782.806-1.006 1.043-2.014 2.085-3.019 3.13-.537.554-1.071 1.11-1.607 1.666-.491.506-.98 1.014-1.469 1.522l-.498.516C5.746 20.623 4.376 22.05 3 23.471c-.025-.131-.054-.26-.06-.392 1.943-2.017 3.89-4.031 5.834-6.046.511-.53 1.023-1.058 1.532-1.59 2.479-2.546 4.904-5.138 7.4-7.664.516-.538 1.036-1.072 1.552-1.61.63-.653 1.26-1.306 1.893-1.956z"/>
    <path fill="#a8aaab" d="M10.186 1.929c2.674-.677 5.637.172 7.583 2.118-.474.491-.948.98-1.424 1.47-1.554-1.503-3.902-2.156-5.985-1.495-1.911.556-3.475 2.136-4.008 4.055-.652 2.134.084 4.521 1.669 6.054-.477.497-.957.993-1.435 1.49-1.932-1.884-2.935-4.71-2.392-7.381.534-3.037 2.983-5.624 5.991-6.31zM16.58 5.728c.477-.499.958-.995 1.435-1.494l.147.303c-.481.502-.965 1-1.446 1.502l-.136-.312zM16.909 6.291c.502-.516 1.002-1.035 1.501-1.554l.183.286-1.461 1.512-.224-.244zM17.286 6.831c.501-.518 1-1.039 1.501-1.557l.146.314c-.509.53-1.021 1.057-1.529 1.588l-.118-.345zM17.581 7.45c.504-.519 1.005-1.042 1.51-1.561l.166.282c-.516.538-1.036 1.072-1.552 1.61l-.124-.331zM17.827 8.108l1.61-1.672c1.14 2.675.804 5.937-1.03 8.222-2.1 2.776-6.108 3.876-9.319 2.507.536-.556 1.07-1.112 1.607-1.666 1.977.543 4.197-.131 5.62-1.587 1.5-1.48 2.076-3.78 1.512-5.804z"/>
    <path fill="#a8aaab" d="M13.455 7.308c.44-.402 1.06-.461 1.628-.484-.833.862-1.664 1.726-2.499 2.586.073-.761.261-1.584.871-2.102zM14.655 7.731c.28-.297.559-.595.843-.889.081.069.16.139.242.208-.27.278-.538.56-.806.838l-.278-.157zM9.73 6.935c.424-.013.85-.012 1.274-.003 0 1.142-.015 2.284.005 3.425.209.011.42.02.629.032-.535.556-1.07 1.112-1.611 1.663-.03-.234-.058-.469-.084-.705-.94-.018-1.879.009-2.818-.015.01-.465-.112-1.008.231-1.387.8-.996 1.58-2.008 2.374-3.01zm-1.415 3.422c.549.018 1.1.015 1.649.002-.005-.706.003-1.412-.007-2.118a44.8 44.8 0 0 0-1.643 2.116zM15.682 8.488c.267-.276.538-.551.804-.828l.218.239c-.269.278-.54.554-.809.833l-.213-.245zM12.519 9.928c.391-.405.786-.805 1.181-1.207l.099.346c-.39.403-.783.804-1.172 1.209l-.108-.348zM15.904 10.101c.357-.375.72-.745 1.081-1.116.147 1.051.082 2.272-.704 3.072-.67.672-1.737.628-2.567.313.259-.271.52-.54.782-.806.871.26 1.541-.664 1.407-1.462zM12.654 10.701l.989-1.021.041.429-.9.932-.13-.34zM12.873 11.401l.82-.844.207.25c-.27.278-.542.554-.812.833l-.215-.239zM6.824 15.834c.492-.512.987-1.021 1.478-1.533l.236.211c-.47.487-.939.975-1.411 1.459l-.303-.137zM7.369 16.18l1.444-1.498.251.212-1.461 1.517a50.098 50.098 0 0 0-.233-.231zM7.874 16.583l1.499-1.553.275.173c-.486.508-.975 1.011-1.463 1.517a74.316 74.316 0 0 0-.31-.136zM8.5 16.856c.492-.511.983-1.021 1.477-1.53l.327.119c-.509.532-1.021 1.06-1.532 1.59a31.598 31.598 0 0 1-.273-.179z"/>
</svg>
