<svg xmlns="http://www.w3.org/2000/svg" width="24" height="24">
    <path fill="#035ca1" d="M10.532 0h2.936c2.615.431 5.213 1.516 7.024 3.507 1.991 1.811 3.077 4.41 3.507 7.026v2.936c-.431 2.615-1.516 5.213-3.507 7.023-1.811 1.992-4.41 3.078-7.026 3.508h-2.939c-2.614-.433-5.213-1.516-7.022-3.507-1.991-1.811-3.077-4.41-3.507-7.027v-2.935c.431-2.615 1.517-5.214 3.508-7.024C5.316 1.516 7.915.43 10.53 0zM6.826 12.216c-.645-.704-1.264-1.431-1.899-2.143-.691 2.662-1.334 5.338-2.004 8.005 2.577-.669 5.145-1.374 7.715-2.07-.62-.661-1.279-1.287-1.89-1.957 1.151-1.201 2.303-2.404 3.466-3.596-.582-.689-1.207-1.34-1.815-2.005-1.203 1.245-2.363 2.529-3.574 3.765zm5.44-1.775c1.171 1.192 2.311 2.413 3.479 3.608-.62.664-1.271 1.297-1.889 1.963 2.572.694 5.142 1.393 7.717 2.075-.674-2.671-1.315-5.35-2.005-8.016-.628.719-1.264 1.431-1.892 2.151-1.217-1.235-2.372-2.53-3.587-3.768-.619.652-1.203 1.336-1.823 1.987z"/>
    <path fill="#fff" d="M6.826 12.216c1.21-1.237 2.371-2.521 3.574-3.765.609.665 1.233 1.317 1.815 2.005-1.163 1.192-2.315 2.395-3.466 3.596.611.67 1.27 1.296 1.89 1.957-2.57.695-5.138 1.401-7.715 2.07.67-2.668 1.313-5.343 2.004-8.005.635.712 1.254 1.439 1.899 2.143zM12.266 10.441c.62-.65 1.204-1.335 1.823-1.987 1.214 1.238 2.37 2.532 3.587 3.768.628-.72 1.264-1.432 1.892-2.151.69 2.666 1.331 5.344 2.005 8.016-2.574-.682-5.145-1.381-7.717-2.075.618-.666 1.268-1.3 1.889-1.963-1.169-1.195-2.308-2.416-3.479-3.608z"/>
</svg>
