<svg xmlns="http://www.w3.org/2000/svg" width="24" height="24">
    <path fill="#fff" d="M2.5 0h.978c-.448.073-.829.474-.818.938v22.038c-.009.501.45.938.947.928h16.918c.494.007.934-.432.935-.925V.935c.005-.459-.368-.861-.814-.936h.899v24H2.499v-24z"/>
    <path fill="#fff" d="M3.536.569c.138-.022.278-.013.416-.014C9.448.556 14.944.554 20.439.556c.243-.028.481.171.465.422.003 7.305.001 14.611.001 21.916a.412.412 0 0 1-.424.454c-5.611.004-11.221.001-16.832.001-.23.018-.449-.18-.434-.414V.982a.398.398 0 0 1 .32-.412zm1.38 2.615c-.471.249-.589.972-.194 1.341.375.374.975.28 1.39.578.223.19.08.555-.17.643-.467.219-1.003-.018-1.288-.414-.15.096-.297.197-.444.298.466.643 1.426.959 2.128.513.527-.313.591-1.162.091-1.529-.392-.222-.861-.248-1.263-.446-.219-.102-.172-.445.044-.521.395-.175.84.01 1.126.3.137-.116.275-.231.411-.349-.437-.498-1.224-.755-1.829-.413zm6.168-.131c-.002 1.086-.001 2.171 0 3.257l2.379-.001c.001-.181.001-.362 0-.543-.601-.003-1.203.001-1.804-.002v-.927c.32-.002.64 0 .96-.001v-.555h-.958c-.004-.227-.002-.455-.002-.682.587-.002 1.174.001 1.761-.001v-.544h-2.337zm-3.438.001V6.32h.566V5.03c.531-.041 1.126.122 1.597-.196.48-.316.544-1.076.14-1.478-.217-.219-.532-.299-.831-.299-.491-.005-.981-.002-1.472-.002zm6.459 0V6.32h2.381v-.553c-.602-.003-1.203.001-1.805-.002v-.928c.32-.001.64.001.96-.001v-.554c-.32-.002-.64.001-.96-.001a75.04 75.04 0 0 1 0-.671c.587-.001 1.174.001 1.76-.001v-.554h-2.337zm3.032 0V6.32c.644-.018 1.368.105 1.923-.308.825-.59.843-1.971.067-2.61-.553-.472-1.323-.321-1.99-.348zm-11.039 4.9v3.256h2.369c.002-.181.002-.363 0-.544-.601-.002-1.202 0-1.803-.001-.002-.904 0-1.807-.001-2.711-.189-.002-.377-.001-.566 0zm2.958 0c-.002 1.085-.001 2.171 0 3.256h.565V7.955a53.205 53.205 0 0 0-.565 0zm1.431 0c-.001 1.086-.002 2.171 0 3.257h.553c.003-.661-.001-1.322.002-1.983.298.647.591 1.296.891 1.943.318-.649.622-1.304.943-1.952.004.664-.001 1.328.002 1.992h.553c-.002-1.086.02-2.171.011-3.256a28.325 28.325 0 0 0-.583.001c-.303.644-.609 1.287-.915 1.93-.307-.642-.608-1.288-.913-1.931a49.323 49.323 0 0 0-.544 0zm3.822 0c-.002 1.085-.001 2.171 0 3.256h.565V7.955a53.205 53.205 0 0 0-.565 0zm1.195.001v.533c.295.002.59-.001.885.001.002.907-.001 1.815.001 2.722h.576c.002-.907-.001-1.815.001-2.722.299-.002.597 0 .896-.001v-.533h-2.359zm-7.608 4.771c-.311.472-.772.861-1.339.971 0 .367-.002.734 0 1.101.352 0 .704-.002 1.056 0v6.105c.473.002.946 0 1.419.001.002-2.726 0-5.452 0-8.178H7.895zm4.717.043c-.095 1.315-.19 2.63-.283 3.945.423.131.841.282 1.268.399.698-.243 1.428-.542 2.183-.419.648.102 1.213.659 1.249 1.327.092.79-.574 1.478-1.324 1.596-1.047.167-2.081-.208-3.033-.604l-.662 1.253c1.039.455 2.156.811 3.304.77.723-.017 1.455-.237 2.025-.691.61-.469 1-1.21 1.041-1.979.108-1.254-.72-2.516-1.923-2.898-.87-.276-1.816-.119-2.665.161.023-.498.052-.995.071-1.493 1.305-.005 2.61 0 3.914-.003-.001-.455.015-.91.022-1.365h-5.186z"/>
    <path fill="#fff" d="M8.213 3.62c.331 0 .663-.004.994.001.234 0 .487.18.466.434-.005.243-.243.402-.468.405-.33.006-.661.001-.992.001v-.842zM17.693 3.621c.431-.014.954-.028 1.244.355.308.433.334 1.121-.058 1.512-.319.295-.782.275-1.186.266-.001-.711-.001-1.422 0-2.134z"/>
    <path fill="#231f20" d="M3.478 0h17.17c.446.075.819.476.814.936V22.98c-.001.492-.442.931-.935.925H3.609c-.497.011-.956-.426-.947-.928V.939c-.012-.464.37-.866.818-.938zm.058.569a.396.396 0 0 0-.32.412v21.953c-.015.234.204.432.434.414 5.611 0 11.221.003 16.832-.001a.413.413 0 0 0 .424-.454c0-7.305.002-14.611-.001-21.916.016-.251-.221-.45-.465-.422C14.944.553 9.449.555 3.953.554c-.139.001-.279-.008-.416.014z"/>
    <path fill="#231f20" d="M4.916 3.184c.605-.343 1.392-.085 1.829.413-.136.118-.274.233-.411.349-.286-.29-.731-.475-1.126-.3-.216.076-.263.42-.044.521.402.198.871.225 1.263.446.5.367.436 1.215-.091 1.529-.702.445-1.662.13-2.128-.513.147-.101.294-.202.444-.298.285.396.821.633 1.288.414.25-.088.394-.453.17-.643-.414-.298-1.014-.205-1.39-.578-.395-.368-.277-1.091.194-1.341zM11.084 3.053h2.337v.544c-.587.002-1.174-.001-1.761.001 0 .228-.002.455.002.682h.958v.555c-.32.002-.64-.001-.96.001v.927c.601.003 1.203-.001 1.804.002v.543l-2.379.001c-.001-1.086-.002-2.171 0-3.257zM7.646 3.054c.49 0 .981-.003 1.472.002.3 0 .615.081.831.299.404.402.34 1.162-.14 1.478-.471.319-1.066.155-1.597.196-.002.43 0 .86 0 1.29h-.566V3.053zm.567.566v.842c.331 0 .662.005.992-.001.225-.003.464-.162.468-.405.021-.254-.232-.434-.466-.434-.331-.005-.662-.001-.994-.001zM14.105 3.054c.779-.002 1.558-.001 2.337 0v.554c-.587.002-1.174 0-1.76.001a75.04 75.04 0 0 0 0 .671c.32.002.64 0 .96.001v.554c-.32.002-.64 0-.96.001v.928c.602.003 1.203-.001 1.805.002v.553c-.794.002-1.587.001-2.381 0V3.053zM17.137 3.054c.667.027 1.437-.124 1.99.348.775.639.758 2.02-.067 2.61-.554.413-1.278.29-1.923.308V3.054zm.556.567c-.001.711-.001 1.422 0 2.134.404.008.867.029 1.186-.266.392-.392.366-1.079.058-1.512-.289-.383-.812-.369-1.244-.355zM6.098 7.954h.566c.001.904-.001 1.807.001 2.711.601 0 1.202-.001 1.803.001v.544H6.099V7.954zM9.056 7.954h.565v3.255c-.188.002-.377.002-.565 0V7.953zM10.487 7.954h.544c.305.643.607 1.288.913 1.931.306-.643.612-1.285.915-1.93.194-.003.389-.002.583-.001.009 1.086-.013 2.171-.011 3.256h-.553c-.003-.664.002-1.328-.002-1.992-.321.647-.625 1.302-.943 1.952-.3-.647-.593-1.296-.891-1.943-.003.661.001 1.322-.002 1.983h-.553c-.002-1.086-.001-2.171 0-3.257zM14.309 7.954h.565v3.255c-.188.002-.377.002-.565 0-.001-1.085-.002-2.171 0-3.256zM15.504 7.955c.787-.002 1.573-.001 2.359 0v.533c-.299.002-.597-.001-.896.001-.002.907.001 1.815-.001 2.722h-.576c-.002-.907.001-1.815-.001-2.722-.295-.002-.59.001-.885-.001v-.533zM7.896 12.726h1.137c0 2.726.002 5.452 0 8.178-.473-.001-.946.001-1.419-.001v-6.105c-.352-.002-.704 0-1.056 0-.002-.367 0-.734 0-1.101.567-.11 1.027-.498 1.339-.971zM12.613 12.769h5.186c-.007.455-.023.91-.022 1.365-1.305.003-2.61-.002-3.914.003-.019.498-.048.995-.071 1.493.849-.28 1.795-.436 2.665-.161 1.202.382 2.03 1.643 1.923 2.898a2.712 2.712 0 0 1-1.041 1.979c-.571.454-1.302.674-2.025.691-1.147.041-2.264-.315-3.304-.77l.662-1.253c.953.396 1.987.771 3.033.604.75-.119 1.416-.807 1.324-1.596-.035-.668-.6-1.225-1.249-1.327-.755-.123-1.485.176-2.183.419-.427-.117-.845-.269-1.268-.399.093-1.315.188-2.63.283-3.945z"/>
</svg>
