<svg xmlns="http://www.w3.org/2000/svg" width="24" height="24">
    <path fill="#e20a16" d="M11.098 0h1.524c4.524.224 8.77 3.186 10.465 7.397.494 1.135.728 2.357.913 3.575v2.105c-.42 4.069-2.941 7.877-6.647 9.666-1.315.694-2.777 1.02-4.232 1.258H10.92c-1.288-.211-2.582-.473-3.774-1.024C3.067 21.215.23 17.053 0 12.625V11.39C.226 7.05 2.948 2.955 6.906 1.14 8.22.499 9.662.208 11.098.001zm-5.98 4.759c-2.801 2.596-3.845 6.865-2.579 10.465.662 1.957 1.956 3.683 3.623 4.901 1.144-1.968 2.275-3.943 3.416-5.914.574-.998 1.156-1.993 1.724-2.995.384-.655.77-1.309 1.129-1.98.174-.27.336-.548.496-.828 1.062-1.841 2.129-3.68 3.186-5.524-3.604-1.658-8.155-.904-10.996 1.874zm10.121 3.648l-.25.432.019.062c-.535.726-.924 1.546-1.39 2.316-.568 1.002-1.183 1.979-1.704 3.006-1.387 2.268-2.674 4.607-4.018 6.904a10.07 10.07 0 0 0 6.696.54c3.622-.937 6.553-4.069 7.229-7.752.776-3.745-.852-7.825-3.972-10.03-.874 1.506-1.742 3.014-2.611 4.522z"/>
    <path fill="#fff" d="M5.118 4.759c2.84-2.778 7.392-3.533 10.996-1.874-1.057 1.843-2.124 3.683-3.186 5.524-2.272 0-4.543-.002-6.815.001-.806-.007-1.579.26-2.294.608l.178.43a9.14 9.14 0 0 0-.59 3.85c-.163.27-.204.583-.211.893.395.024.791.028 1.187.03.132-.42.156-.9.437-1.256a11.574 11.574 0 0 1 1.786-.008c.289.352.313.839.444 1.26.844 0 1.687.004 2.531-.004-1.141 1.97-2.273 3.946-3.416 5.914-1.667-1.218-2.96-2.944-3.623-4.901-1.266-3.6-.222-7.87 2.579-10.465zm.325 8.496c-.709.169-.966 1.159-.433 1.654.49.552 1.494.284 1.662-.428.24-.712-.521-1.463-1.229-1.225zM15.239 8.407c.869-1.507 1.738-3.016 2.611-4.522 3.12 2.204 4.748 6.284 3.972 10.03-.676 3.683-3.607 6.815-7.229 7.752a10.07 10.07 0 0 1-6.696-.54c1.344-2.297 2.63-4.636 4.018-6.904.824-.022 1.65-.001 2.474-.008.172-.437.077-1.289.721-1.289.509-.012 1.031-.059 1.531.06.248.36.277.817.391 1.229 1.186-.058 2.401.124 3.568-.094.335-1.432.112-2.947-.094-4.388-.124-.485-.16-1.295-.82-1.315-1.482-.028-2.966 0-4.448-.011zm.164 4.854c-.724.191-.94 1.229-.359 1.697.53.517 1.519.172 1.63-.556.178-.706-.592-1.386-1.271-1.141z"/>
    <path fill="#fff" d="M10.046 8.972c.769-.023 1.765-.325 2.386.264-.359.671-.745 1.325-1.129 1.98-.484-.059-1.486.259-1.446-.526.066-.551-.196-1.283.19-1.718zM15.757 8.934c.648-.032 1.308-.056 1.954.016.42.264.205.841.262 1.25-.031.329.108.898-.334.994-.636.041-1.278.042-1.913-.001-.448-.236-.23-.827-.284-1.231.035-.336-.118-.907.316-1.027zM18.522 8.938c.545-.036 1.499-.214 1.592.554.029.524.386 1.12.118 1.612-.506.216-1.096.094-1.633.096-.524-.078-.292-.755-.348-1.12.061-.364-.168-.971.271-1.142zM13.619 11.218c.466-.77.854-1.59 1.39-2.316.226.707.216 1.494.061 2.213-.461.179-.97.082-1.451.103zM4.722 9.301c.734-.151 1.498-.062 2.243-.065.516-.007.378.626.401.964-.038.328.12.858-.298.989-.913.059-1.835.023-2.75.019-.338.035-.502-.37-.365-.64.146-.464.218-1.109.769-1.267zM7.841 9.278c.564-.025 1.804-.37 1.727.553-.018 1.147.035 2.299-.026 3.445-.062.432-.589.324-.901.346-.324-.036-.874.124-.972-.31-.054-1.075-.001-2.155-.024-3.232.02-.271-.071-.625.197-.803z"/>
    <path d="M3.818 9.018c.715-.348 1.488-.616 2.294-.608 2.272-.004 4.543-.001 6.815-.001-.16.28-.322.558-.496.828-.62-.589-1.616-.287-2.386-.264-.385.436-.124 1.168-.19 1.718-.04.785.962.467 1.446.526-.569 1.002-1.151 1.997-1.724 2.995-.844.007-1.687.004-2.531.004-.131-.421-.155-.908-.444-1.26a11.701 11.701 0 0 0-1.786.008c-.281.356-.305.836-.437 1.256a21.348 21.348 0 0 1-1.187-.03c.007-.31.048-.623.211-.893a9.172 9.172 0 0 1 .59-3.85l-.178-.43zm.904.283c-.551.158-.623.803-.769 1.267-.137.27.026.674.365.64.916.004 1.837.04 2.75-.019.418-.131.259-.661.298-.989-.023-.337.115-.971-.401-.964-.745.002-1.508-.086-2.243.065zm3.119-.023c-.268.178-.176.532-.197.803.023 1.076-.03 2.156.024 3.232.098.433.648.274.972.31.312-.022.839.086.901-.346.061-1.146.008-2.298.026-3.445.077-.923-1.163-.578-1.727-.553zM15.239 8.407c1.482.011 2.966-.017 4.448.011.66.02.696.83.82 1.315.205 1.441.428 2.957.094 4.388-1.166.217-2.382.036-3.568.094-.114-.412-.143-.869-.391-1.229-.5-.119-1.022-.072-1.531-.06-.644 0-.55.852-.721 1.289-.824.007-1.65-.013-2.474.008.521-1.027 1.136-2.004 1.704-3.006.481-.022.99.076 1.451-.103.155-.719.164-1.506-.061-2.213l-.019-.062.25-.432zm.518.527c-.433.12-.281.691-.316 1.027.054.404-.163.995.284 1.231.635.043 1.277.042 1.913.001.442-.096.302-.665.334-.994-.056-.409.158-.986-.262-1.25-.646-.072-1.306-.048-1.954-.016zm2.765.004c-.439.172-.21.779-.271 1.142.056.365-.176 1.042.348 1.12.538-.002 1.127.12 1.633-.096.269-.492-.089-1.087-.118-1.612-.094-.768-1.048-.59-1.592-.554z"/>
    <path d="M5.443 13.255c.708-.238 1.469.514 1.229 1.225-.168.713-1.172.98-1.662.428-.533-.494-.276-1.484.433-1.654zM15.403 13.261c.679-.245 1.448.436 1.271 1.141-.11.727-1.099 1.073-1.63.556-.581-.468-.365-1.506.359-1.697z"/>
</svg>
