<svg xmlns="http://www.w3.org/2000/svg" width="24" height="24">
    <path fill="#ff3319" d="M11.105 0h1.513c4.526.217 8.771 3.188 10.469 7.397.497 1.14.722 2.368.913 3.589v2.004c-.377 4.01-2.807 7.78-6.407 9.628-1.415.774-2.995 1.168-4.583 1.382h-1.991c-4.199-.388-8.122-3.05-9.88-6.905-.636-1.288-.923-2.701-1.14-4.109v-1.933c.382-4.181 2.996-8.095 6.822-9.876C8.159.509 9.631.198 11.104 0zM6.653 4.034c1.81 2.111 3.542 4.313 5.4 6.366.126.206.274.4.433.582.64.763 1.271 1.532 1.926 2.284.236.31.491.605.748.898.134.164.27.329.408.493l.388.455c.298.37.601.736.92 1.087.139.176.28.35.422.524.541.64 1.079 1.282 1.615 1.924 2.071-2.087 3.037-5.185 2.582-8.084-.362-2.494-1.772-4.805-3.802-6.294-3.15-2.381-7.795-2.485-11.041-.234zM2.496 13.32c.335 2.537 1.753 4.895 3.811 6.409 3.155 2.394 7.799 2.497 11.053.239-1.36-1.624-2.719-3.247-4.085-4.866a16.804 16.804 0 0 0-.39-.451 65.969 65.969 0 0 0-1.572-1.88l-.34-.419-.335-.388a85.145 85.145 0 0 0-.385-.46C8.538 9.445 6.808 7.399 5.089 5.342c-2.027 2.077-3.011 5.105-2.594 7.978z"/>
    <path fill="#fff" d="M6.653 4.034c3.246-2.251 7.891-2.147 11.041.234 2.029 1.489 3.439 3.8 3.802 6.294.455 2.899-.511 5.998-2.582 8.084a411.17 411.17 0 0 0-1.615-1.924c1.478-.889 1.234-3.304-.388-3.888l.655-.179c.22-.906-.11-1.87.25-2.749.424-1.126.779-2.274 1.153-3.415-1.595-.421-3.241-.367-4.855-.08.331 1.321.635 2.658 1.141 3.926.276 1.07-.179 2.105-.842 2.928-.655-.751-1.286-1.52-1.926-2.284.078-.19.16-.377.242-.563-.226-.006-.451-.008-.676-.019-1.858-2.053-3.59-4.255-5.4-6.366zM2.496 13.32c-.416-2.873.568-5.9 2.594-7.978 1.718 2.057 3.449 4.103 5.164 6.162-.868-.001-1.736.004-2.604-.004.085-.386.176-.772.276-1.154l.695-.007.013-.486c-.379.002-.757.012-1.136.025-.226.998-.456 1.996-.684 2.994-.713-.137-1.544-.048-2.036.545-.817.784-.814 2.254.028 3.017.654.695 1.834.77 2.58.182.902-.653 1.114-2.068.43-2.95-.202-.274-.545-.482-.534-.863a54.06 54.06 0 0 1 2.316 1.733c-.157.727.428 1.298 1.147 1.22l-.268.287-.002.316c.3.004.6.005.901.006v-.376l-.368-.127-.091-.278c.102-.157.202-.316.299-.476.688-.01 1.374-.001 2.062-.006 1.366 1.619 2.725 3.242 4.085 4.866-3.254 2.258-7.898 2.155-11.053-.239-2.058-1.514-3.476-3.872-3.811-6.409z"/>
    <path fill="#fff" d="M7.56 11.934c1.026.002 2.053.018 3.079.03l.335.388c-.325.504-.233 1.684-.973 1.601l.305-.238.005-.259c-.306-.002-.612-.005-.918-.004v.294l.419.104c.025.095.076.284.1.379-.848-.584-1.65-1.232-2.479-1.842.047-.15.09-.301.128-.454zM11.314 12.77c.534.617 1.06 1.243 1.572 1.88-.545.01-1.09.007-1.634.006a22.342 22.342 0 0 0-.404-.598c.157-.43.314-.858.467-1.289zM4.958 14.551c.167-.742.952-1.24 1.692-1.008-.04.552-.25 1.052-.754 1.327l.334.379c.36-.427.844-.798.893-1.4.691.709.478 2.04-.469 2.402-.989.42-1.998-.749-1.696-1.7zM15.16 14.164c.324-.517.953-.877 1.561-.636 1.134.418 1.158 2.081.155 2.671a24.343 24.343 0 0 1-.92-1.087c.095-.002.283-.007.378-.011.022-.148.046-.295.073-.443l-.839-.001a44.297 44.297 0 0 1-.408-.493zM10.348 14.332c.617-.074.792.85.2 1.031-.686.203-.92-.976-.2-1.031z"/>
    <path d="M14.113 6.412c1.614-.287 3.26-.341 4.855.08-.374 1.141-.73 2.29-1.153 3.415-.36.88-.03 1.843-.25 2.749l-.655.179c1.621.584 1.866 2.999.388 3.888a34.53 34.53 0 0 1-.422-.524c1.003-.59.979-2.254-.155-2.671-.608-.241-1.237.119-1.561.636a17.351 17.351 0 0 1-.748-.898c.664-.823 1.118-1.858.842-2.928-.506-1.268-.81-2.605-1.141-3.926zM7.498 9.878c.379-.013.757-.023 1.136-.025-.005.162-.01.324-.013.486l-.695.007c-.1.383-.191.768-.276 1.154.868.007 1.736.002 2.604.004.13.152.257.306.385.46-1.026-.012-2.053-.028-3.079-.03a9 9 0 0 1-.128.454c.829.61 1.631 1.258 2.479 1.842a26.484 26.484 0 0 0-.1-.379l-.419-.104v-.294c.306-.001.612.001.918.004l-.005.259-.305.238c.74.083.648-1.097.973-1.601l.34.419c-.152.431-.31.859-.467 1.289.138.197.272.396.404.598.545.001 1.09.004 1.634-.006.132.148.263.299.39.451-.688.005-1.374-.004-2.062.006-.097.161-.197.319-.299.476l.091.278.368.127v.376a90.007 90.007 0 0 1-.901-.006l.002-.316.268-.287c-.719.078-1.304-.493-1.147-1.22a54.06 54.06 0 0 0-2.316-1.733c-.011.38.332.589.534.863.684.882.473 2.297-.43 2.95-.746.588-1.926.512-2.58-.182-.841-.763-.845-2.233-.028-3.017.492-.593 1.324-.682 2.036-.545.228-.998.458-1.996.684-2.994zm-2.54 4.673c-.302.952.707 2.12 1.696 1.7.947-.362 1.16-1.693.469-2.402-.049.602-.533.973-.893 1.4l-.334-.379c.504-.275.714-.775.754-1.327-.74-.232-1.525.266-1.692 1.008zm5.39-.219c-.72.055-.486 1.234.2 1.031.592-.181.416-1.105-.2-1.031zM12.053 10.4c.224.011.45.013.676.019-.083.186-.164.373-.242.563a4.224 4.224 0 0 1-.433-.582z"/>
    <path d="M15.568 14.657l.839.001a9.73 9.73 0 0 0-.073.443c-.095.004-.283.008-.378.011l-.388-.455z"/>
</svg>
