<svg xmlns="http://www.w3.org/2000/svg" width="24" height="24">
    <path fill="#df032b" d="M10.018 0h3.975c4.995.936 9.08 5.021 10.006 10.018v3.975c-.936 4.99-5.011 9.077-10.006 10.006H9.982C5.001 23.063.921 18.983-.001 13.997V9.984C.945 4.999 5.027.926 10.017-.001zm.504 2.45c-3.652.575-6.796 3.484-7.675 7.074-.749 2.87-.057 6.074 1.839 8.36 2.172 2.759 5.945 4.125 9.379 3.36 3.505-.699 6.468-3.531 7.319-7.005.865-3.203-.143-6.796-2.507-9.115-2.136-2.174-5.351-3.208-8.355-2.673z"/>
    <path fill="#df032b" d="M8.379 6.734c.806-.76 2.015-.432 3.013-.499.107.326.23.644.352.962-.832.014-1.697-.128-2.505.126-.661.556-.689 1.49-.815 2.284.542-.067 1.081-.143 1.621-.216-.19.753-.349 1.516-.492 2.281.159-1.141-1.435-1.861-1.939-.699-.402 1.2 1.119 1.611 1.901.958.209.145.418.288.63.432.214-1.034.463-2.074.981-3.006-.273 1.644-.815 3.227-1.129 4.862l-1.017-.086c-.005.558-.012 1.119-.019 1.68a5.2 5.2 0 0 1-1.469.017c-.007-.613-.01-1.224-.01-1.837-.23-.154-.461-.311-.694-.466.195-1.278-.658-3.198.82-3.89.271-.96.285-2.017.77-2.904zM13.561 6.221c.879.024 2.003-.154 2.554.727.418.815.459 1.763.665 2.645 1.48.706.68 2.6.834 3.897-.927.378-.63 1.39-.72 2.177-.295.466-.886.147-1.321.157l-.021-1.711c-.487.057-.974.116-1.461.185a36.028 36.028 0 0 1-.627-1.72c.375.045.989.221 1.226-.147-.404-.181-.865-.078-1.293-.086l-.102-.518c.397.055 1.124.28 1.345-.112-.413-.223-.917-.097-1.347.014.024-.537.078-1.074.133-1.611.582.475 1.131.993 1.616 1.568.38.758 1.542.806 1.785-.09.314-1.012-.965-1.504-1.711-.993a3.017 3.017 0 0 1-.865-1.238c.525.093 1.048.185 1.575.276.114-.834.074-1.901-.751-2.367-.672-.157-1.371-.076-2.055-.076l.542-.977z"/>
    <path fill="#fff" d="M10.522 2.45c3.004-.535 6.219.499 8.355 2.673 2.364 2.319 3.372 5.912 2.507 9.115-.851 3.474-3.814 6.307-7.319 7.005-3.434.765-7.207-.601-9.379-3.36-1.896-2.286-2.588-5.489-1.839-8.36.879-3.59 4.023-6.499 7.675-7.074zm.87 3.785c-.998.067-2.208-.261-3.013.499-.485.886-.499 1.944-.77 2.904-1.478.691-.625 2.611-.82 3.89.233.154.463.311.694.466 0 .613.002 1.224.01 1.837.49.062.981.062 1.469-.017.007-.561.014-1.122.019-1.68l1.017.086c-.223.96-.972 1.663-1.495 2.467l.544.839c.772-1.079 1.69-2.06 2.364-3.203.44-.007.879-.019 1.321-.038.694 1.114.684 2.469.958 3.714.288.002.577.005.865.01-.119-1.238.076-2.547-.463-3.709.487-.069.974-.128 1.461-.185l.021 1.711c.435-.01 1.027.309 1.321-.157.09-.787-.207-1.799.72-2.177-.154-1.297.646-3.191-.834-3.897-.207-.882-.247-1.83-.665-2.645-.551-.882-1.675-.703-2.554-.727-.116-1.312-2.191-1.366-2.17.014z"/>
    <path fill="#fff" d="M9.239 7.324c.808-.254 1.673-.112 2.505-.126.425.012.851.012 1.276 0 .684 0 1.383-.081 2.055.076.825.466.865 1.533.751 2.367-.528-.09-1.05-.183-1.575-.276-.273-.872-.893-1.763-1.906-1.766-1.131-.133-1.939.834-2.3 1.792-.539.074-1.079.15-1.621.216.126-.794.154-1.728.815-2.284zM7.613 10.973c.504-1.162 2.098-.442 1.939.699l-.038.259c-.782.653-2.303.242-1.901-.958zM15.115 10.603c.746-.511 2.025-.019 1.711.993-.242.896-1.404.848-1.785.09a34.3 34.3 0 0 0 .775-.478l-.701-.606z"/>
    <path d="M11.392 6.235c-.021-1.381 2.053-1.326 2.17-.014l-.542.977c-.425.012-.851.012-1.276 0-.121-.318-.245-.637-.352-.962zM10.044 9.391c.361-.958 1.169-1.925 2.3-1.792 1.012.002 1.632.893 1.906 1.766.183.478.473.908.865 1.238l.701.606c-.257.164-.513.321-.775.478a12.157 12.157 0 0 0-1.616-1.568 28.198 28.198 0 0 0-.133 1.611l.002.097.102.518.067.233c.192.58.406 1.152.627 1.72.539 1.162.345 2.471.463 3.709-.288-.005-.577-.007-.865-.01-.273-1.245-.264-2.6-.958-3.714-.24-.44-.485-.877-.727-1.316-.195.454-.385.91-.594 1.354-.675 1.143-1.592 2.124-2.364 3.203-.183-.28-.364-.558-.544-.839.523-.803 1.271-1.507 1.495-2.467.314-1.635.855-3.217 1.129-4.862-.518.931-.768 1.972-.981 3.006l-.63-.432.038-.259c.143-.765.302-1.528.492-2.281z"/>
    <path fill="#f3a2b2" d="M13.293 11.729c.43-.112.934-.238 1.347-.014-.221.392-.948.166-1.345.112l-.002-.097z"/>
    <path fill="#e7b6be" d="M13.397 12.345c.428.007.889-.095 1.293.086-.238.368-.851.192-1.226.147l-.067-.233z"/>
    <path fill="#c90e2e" d="M11.411 14.322c.209-.444.399-.901.594-1.354.242.44.487.877.727 1.316-.442.019-.882.031-1.321.038z"/>
</svg>
