<svg xmlns="http://www.w3.org/2000/svg" width="24" height="24">
    <path fill="#080808" opacity=".3" d="M4.855 0h16.311l-.087.022c-.268.061-.544.024-.816.031-4.684.006-9.368-.014-14.053 0C5.727.046 5.244.07 4.762.037l.093-.036z"/>
    <path fill="#1a1919" d="M2 1.013c.181-.502.639-.984 1.207-.965.518-.004 1.037.007 1.555-.012.482.034.965.009 1.448.016 4.684-.014 9.368.006 14.053 0 .272-.007.548.029.816-.031.401.235.807.543.921 1.021v22.012c-.103.413-.417.733-.774.946H2.774c-.356-.21-.665-.529-.775-.937V1.013zM3.017.184a1.272 1.272 0 0 0-.938 1.185v21.368c.001.517.369 1.009.857 1.174.242.072.498.069.748.067 5.649-.003 11.297.003 16.946-.003.675.033 1.294-.563 1.293-1.235V1.364C21.917.696 21.301.107 20.63.139 14.982.134 9.333.14 3.684.136a2.98 2.98 0 0 0-.667.046z"/>
    <path fill="#1a1919" d="M3.227.439c.238-.038.48-.022.72-.024h16.158c.278.002.563-.018.834.061.409.142.715.561.707.997-.002 7.071.001 14.142-.001 21.213a1.07 1.07 0 0 1-.701.951c-.271.087-.559.061-.839.064H3.894c-.28-.003-.568.023-.84-.065a1.072 1.072 0 0 1-.698-.95c-.002-7.071.001-14.142-.001-21.214-.008-.489.381-.968.872-1.033zm.104.525c-.268.028-.464.296-.442.559.002 7.038-.001 14.075.002 21.113-.012.306.281.558.581.531h17.057c.301.028.595-.224.583-.532.001-7.055.002-14.111-.001-21.165.008-.331-.323-.558-.634-.523C14.762.959 9.044.926 3.331.963z"/>
    <path fill="#1a1919" d="M11.176 3.968c.385-.151.782.325.572.679-.283.478-.597.937-.891 1.409 1.165.304 2.391.597 3.346 1.372 1.296.929 2.243 2.329 2.656 3.866.363 1.561.196 3.174.245 4.761-.809 0-1.618.001-2.427-.001-.006-1.107.011-2.215-.008-3.322-.122-1.379-.846-2.723-1.982-3.528-.691-.532-1.573-.686-2.395-.907.012.526.066 1.052.057 1.577-.037.392-.551.552-.824.288C8.3 8.723 7.077 7.282 5.853 5.841c1.775-.625 3.547-1.257 5.324-1.875zM6.861 17.334a1.21 1.21 0 0 1 1.341.673c.414.979.419 2.197-.214 3.086-.533.593-1.673.482-2.033-.253-.427-.905-.46-2.021.022-2.913.152-.343.513-.573.884-.593zm.055.645c-.274.029-.425.304-.504.538-.199.652-.201 1.393.117 2.007.164.309.589.362.876.206a1.07 1.07 0 0 0 .333-.572c.169-.626.16-1.327-.147-1.911-.129-.235-.424-.327-.676-.269zM9.355 17.381l.633-.001c.491.853.975 1.709 1.466 2.562.003-.854 0-1.708.002-2.562h.634l-.001 4.017c-.186 0-.373 0-.559.002-.518-.902-1.022-1.813-1.539-2.715-.004.905 0 1.809-.002 2.714-.212.001-.424.002-.636-.005.006-1.337.001-2.675.003-4.013zM13.034 17.381h.634c.001 1.142-.001 2.284.001 3.425l1.859.001v.592c-.832 0-1.663.001-2.494-.001.001-1.339-.001-2.678.001-4.017zM14.994 17.381c.254-.001.508-.001.762.001.323.513.625 1.038.964 1.54.322-.515.643-1.029.967-1.542l.744.001c-.456.757-.935 1.501-1.382 2.263-.032.583-.003 1.17-.013 1.755-.212.001-.423.001-.634-.001-.002-.553.002-1.107-.001-1.661.006-.081-.038-.149-.077-.215-.446-.712-.888-1.427-1.331-2.141z"/>
    <path fill="#fffffe" d="M3.017.184a2.98 2.98 0 0 1 .667-.046C9.332.141 14.981.135 20.63.141c.672-.033 1.287.556 1.293 1.225v21.376c.001.672-.618 1.268-1.293 1.235-5.648.005-11.297 0-16.946.003-.251.002-.506.004-.748-.067-.488-.165-.856-.657-.857-1.174V1.371c.006-.54.413-1.057.938-1.185zm.21.255c-.491.065-.879.544-.872 1.033.002 7.072-.001 14.143.001 21.214.012.416.306.812.698.95.272.087.56.062.84.065h16.211c.28-.003.568.023.839-.064.394-.137.689-.534.701-.951.002-7.071-.001-14.142.001-21.213a1.073 1.073 0 0 0-.707-.997c-.271-.079-.556-.059-.834-.061H3.947c-.24.003-.482-.014-.72.024z"/>
    <path fill="#fffffe" d="M3.331.964C9.045.927 14.762.959 20.477.948c.311-.036.642.192.634.523.003 7.055.002 14.111.001 21.165.012.308-.282.56-.583.532H3.472c-.301.027-.593-.225-.581-.531-.003-7.038.001-14.075-.002-21.113-.022-.263.174-.531.442-.559zm7.845 3.004c-1.777.618-3.549 1.25-5.324 1.875 1.224 1.441 2.447 2.882 3.672 4.321.273.264.787.104.824-.288.009-.525-.045-1.052-.057-1.577.822.221 1.705.375 2.395.907 1.136.805 1.861 2.148 1.982 3.528.019 1.107.002 2.215.008 3.322l2.427.001c-.049-1.587.118-3.2-.245-4.761-.414-1.537-1.36-2.937-2.656-3.866-.955-.775-2.181-1.068-3.346-1.372.293-.472.608-.931.891-1.409.21-.354-.187-.831-.572-.679zM6.861 17.334c-.371.02-.732.25-.884.593-.482.892-.449 2.007-.022 2.913.359.735 1.499.846 2.033.253.634-.888.628-2.107.214-3.086a1.212 1.212 0 0 0-1.341-.673zm2.494.047c-.002 1.337.003 2.675-.003 4.013.212.007.424.006.636.005.002-.905-.002-1.809.002-2.714.517.903 1.021 1.813 1.539 2.715.186-.002.373-.002.559-.002l.001-4.017a66.993 66.993 0 0 0-.634 0c-.002.854.001 1.708-.002 2.562-.491-.853-.976-1.709-1.466-2.562l-.633.001zm3.679 0l-.001 4.017c.832.002 1.663.001 2.494.001a58.41 58.41 0 0 0 0-.592c-.62-.001-1.239.001-1.859-.001l-.001-3.425a66.993 66.993 0 0 0-.634 0zm1.96 0c.443.714.885 1.429 1.331 2.141.039.066.083.135.077.215.003.554-.001 1.107.001 1.661l.634.001c.011-.585-.018-1.172.013-1.755.446-.762.925-1.506 1.382-2.263l-.744-.001c-.324.513-.646 1.027-.967 1.542-.339-.502-.642-1.027-.964-1.54a64.517 64.517 0 0 0-.762-.001z"/>
    <path fill="#fffffe" d="M6.916 17.979c.252-.058.547.034.676.269.307.583.316 1.284.147 1.911a1.07 1.07 0 0 1-.333.572c-.287.156-.713.103-.876-.206-.318-.615-.316-1.356-.117-2.007.079-.235.23-.509.504-.538z"/>
</svg>
