<svg xmlns="http://www.w3.org/2000/svg" width="24" height="24">
    <path fill="#fff" d="M.906 0h22.188c.441.107.8.466.907.907v22.185a1.248 1.248 0 0 1-.907.908H.909a1.247 1.247 0 0 1-.907-.906V.905C.109.465.467.106.908-.001zm.66.587c-.558.06-1.007.584-.991 1.144v20.538c-.025.661.6 1.222 1.253 1.157 6.814-.002 13.627 0 20.441-.001.621.022 1.177-.534 1.155-1.155V1.732a1.147 1.147 0 0 0-.67-1.053c-.255-.123-.543-.104-.817-.103H2.062c-.165.001-.332-.008-.496.012z"/>
    <path fill="#fff" d="M2.08 1.192c.15-.024.301-.016.451-.017 6.407.001 12.815-.001 19.222.001.57-.007 1.077.5 1.07 1.07v19.507c.007.57-.5 1.076-1.07 1.07-6.502.002-13.005.002-19.507 0-.57.006-1.077-.5-1.07-1.07V2.246c-.004-.51.398-.982.903-1.055zm10.945 2.787c-.458.612-.477 1.498-.142 2.17.297.602 1.128.788 1.688.454.223-.134.375-.354.481-.586-.173-.068-.345-.133-.518-.199-.164.375-.689.547-.991.231-.394-.454-.394-1.188-.094-1.691.258-.404.898-.312 1.096.104a45.5 45.5 0 0 0 .503-.228c-.309-.793-1.52-.918-2.024-.254zm6.835-.197c-.363.271-.403.869-.068 1.178.34.325.855.328 1.223.602.236.174.123.577-.155.633-.365.123-.759-.102-.901-.446-.173.068-.352.123-.519.202.245.801 1.345 1.068 1.973.555.396-.326.412-1.018.009-1.346-.33-.284-.783-.33-1.153-.54-.179-.091-.172-.381.01-.465.284-.137.673-.041.811.257.168-.056.337-.111.503-.172-.199-.721-1.192-.874-1.732-.458zM2.215 3.598c-.002.18-.002.361-.001.541.291.002.581 0 .872.001l.001 2.578h.563V4.141l.865-.001a48.96 48.96 0 0 0 0-.542c-.767-.001-1.534-.002-2.301 0zm3.386 3.099c.187.002.375.002.562 0 .005-.399.001-.798.002-1.197.202-.001.404-.002.606.001.196.399.39.799.591 1.196.21 0 .419.002.629-.002-.2-.42-.408-.834-.608-1.253.584-.201.788-.975.461-1.473-.172-.269-.506-.377-.811-.381-.477-.003-.953-.001-1.431-.001-.001 1.036-.002 2.073 0 3.109zm3.498-3.083v1.918c.003.354.097.74.382.974.416.324 1.031.334 1.497.112.363-.184.535-.6.544-.989.007-.672-.002-1.344.004-2.017-.188.002-.375.002-.562 0-.003.641.003 1.282-.002 1.922-.008.224-.054.495-.274.608a.921.921 0 0 1-.752 0c-.22-.113-.268-.385-.269-.609-.003-.64 0-1.28-.001-1.92a53.77 53.77 0 0 1-.568 0zm7.038 0c.003 1.035 0 2.07.001 3.105h.564c.013-.293-.022-.592.015-.882.164-.221.349-.425.517-.643.269.509.54 1.017.812 1.524.218.001.436.001.655-.001-.362-.665-.724-1.331-1.089-1.995.288-.375.593-.736.882-1.11-.222.004-.444.003-.666.003-.371.479-.749.952-1.125 1.427-.002-.477 0-.953-.001-1.429-.189.002-.377.002-.566 0zM5.189 11.282c-1.05.998-1.661 2.391-1.846 3.815-.124.979-.141 1.998.173 2.944.242.746.709 1.433 1.369 1.869.695.469 1.553.637 2.38.607.889-.026 1.793-.303 2.474-.889 1.464-1.237 1.503-3.697.232-5.082-1.108-1.184-3.122-1.387-4.441-.444a3.986 3.986 0 0 1 1.255-1.834c.735-.606 1.658-.946 2.591-1.09.007-.602.002-1.204.002-1.807-1.53.243-3.058.821-4.189 1.911zm8.746-1.719l-.323 5.387 1.854.781c.639-.743 1.809-.972 2.668-.491.744.455.86 1.492.579 2.252-.294.797-1.166 1.225-1.98 1.22-.843.045-1.679-.225-2.367-.708-.354.495-.714.988-1.068 1.484.665.558 1.514.851 2.364.969.968.13 1.987.084 2.893-.31.756-.321 1.41-.897 1.785-1.632.665-1.326.556-3.07-.41-4.224-1.064-1.232-3.017-1.41-4.411-.667.07-.746.102-1.496.172-2.242 1.465-.003 2.93.002 4.395-.003.005-.605.002-1.21.001-1.815-2.051-.003-4.102-.001-6.154-.001z"/>
    <path fill="#fff" d="M6.165 4.122c.315.009.633-.022.946.017.393.053.412.715.03.799-.322.046-.652.009-.976.021v-.837zM6.718 15.346c.703-.103 1.522.076 1.953.684.511.732.372 1.908-.424 2.385a2.337 2.337 0 0 1-2.295.008c-.802-.465-.954-1.637-.454-2.376.274-.405.745-.636 1.22-.702z"/>
    <path d="M1.566.587c.165-.02.331-.011.496-.012h19.875c.274-.001.562-.02.817.103.407.178.677.61.67 1.053v20.538c.021.621-.534 1.177-1.155 1.155-6.814.002-13.627-.001-20.441.001-.653.066-1.278-.496-1.253-1.157V1.73c-.016-.56.433-1.084.991-1.144zm.514.605a1.084 1.084 0 0 0-.903 1.055v19.507c-.007.57.5 1.076 1.07 1.07 6.502.002 13.005.002 19.507 0 .57.006 1.076-.5 1.07-1.07V2.247c.007-.57-.499-1.077-1.07-1.07-6.407-.003-12.815 0-19.222-.001-.15.001-.302-.007-.451.017z"/>
    <path d="M13.025 3.979c.504-.664 1.714-.539 2.024.254-.167.077-.335.154-.503.228-.199-.416-.839-.507-1.096-.104-.3.503-.3 1.237.094 1.691.302.316.827.144.991-.231.173.066.346.131.518.199-.106.232-.259.453-.481.586-.56.333-1.391.148-1.688-.454-.335-.672-.316-1.558.142-2.17zM19.86 3.782c.541-.415 1.534-.262 1.733.458-.167.061-.335.116-.503.172-.138-.299-.527-.395-.811-.257-.181.084-.189.374-.01.465.369.21.822.256 1.153.54.403.328.387 1.02-.009 1.346-.627.514-1.728.246-1.973-.555.168-.08.346-.134.519-.202.143.344.536.569.901.446.277-.056.39-.459.155-.633-.368-.274-.884-.278-1.223-.602-.335-.308-.294-.907.068-1.178zM2.215 3.598c.767-.002 1.534-.001 2.301 0v.542l-.865.001v2.577c-.188.002-.375.001-.563 0L3.087 4.14c-.291 0-.581.001-.872-.001a32.52 32.52 0 0 1 .001-.541zM5.601 6.697a644.393 644.393 0 0 1 0-3.109c.477 0 .954-.002 1.431.001.306.003.639.112.811.381.327.499.122 1.273-.461 1.473.2.419.409.834.608 1.253-.21.004-.419.002-.629.002-.2-.397-.394-.797-.591-1.196a20.403 20.403 0 0 0-.606-.001c-.001.399.003.798-.002 1.197-.187.002-.375.002-.562 0zm.564-2.575v.837c.325-.012.654.025.976-.021.382-.084.363-.746-.03-.799-.313-.039-.631-.008-.946-.017zM9.099 3.614h.568c.001.64-.002 1.28.001 1.92 0 .225.049.496.269.609a.921.921 0 0 0 .752 0c.22-.113.266-.383.274-.608.005-.641 0-1.282.002-1.922.187.002.374.002.562 0-.007.672.002 1.344-.004 2.017-.009.39-.181.805-.544.989-.465.222-1.08.212-1.497-.112-.285-.234-.379-.62-.382-.974V3.615zM16.137 3.614h.566c.001.476-.001.953.001 1.429.375-.475.753-.949 1.125-1.427.222 0 .444 0 .666-.003-.289.374-.593.735-.882 1.11.365.664.727 1.33 1.089 1.995a47.67 47.67 0 0 1-.655.001 318.8 318.8 0 0 1-.812-1.524c-.168.217-.353.422-.517.643-.037.29-.003.588-.015.882h-.564c-.001-1.035.002-2.07-.001-3.105zM5.189 11.282c1.131-1.09 2.659-1.668 4.189-1.911 0 .602.004 1.205-.002 1.807-.934.144-1.857.484-2.591 1.09a3.986 3.986 0 0 0-1.255 1.834c1.319-.943 3.333-.74 4.441.444 1.272 1.385 1.233 3.846-.232 5.082-.681.586-1.585.863-2.474.889-.827.03-1.686-.139-2.38-.607-.66-.436-1.127-1.123-1.369-1.869-.314-.946-.298-1.965-.173-2.944.186-1.424.796-2.818 1.846-3.815zm1.529 4.064c-.475.066-.946.297-1.22.702-.5.738-.348 1.91.454 2.376a2.34 2.34 0 0 0 2.295-.008c.795-.477.935-1.652.424-2.385-.431-.608-1.25-.787-1.953-.684zM13.935 9.563c2.052 0 4.103-.002 6.154.001.001.605.004 1.21-.001 1.815-1.465.006-2.931 0-4.395.003-.07.746-.102 1.495-.172 2.242 1.394-.744 3.347-.565 4.411.667.966 1.154 1.074 2.898.41 4.224-.375.735-1.029 1.311-1.785 1.632-.906.395-1.925.441-2.893.31-.851-.118-1.7-.411-2.364-.969.354-.496.713-.988 1.068-1.484.688.482 1.523.752 2.367.708.813.005 1.686-.423 1.98-1.22.281-.759.165-1.797-.579-2.252-.858-.48-2.029-.252-2.668.491l-1.854-.781.323-5.387z"/>
</svg>
