<svg xmlns="http://www.w3.org/2000/svg" width="24" height="24">
    <path fill="#fff" d="M3.125 0h17.746c.488.154.756.684.747 1.172v21.656c.009.488-.258 1.016-.745 1.172H3.13c-.489-.154-.757-.684-.748-1.172V1.172C2.372.684 2.639.157 3.125 0zm.504.592c-.487.102-.77.625-.765 1.094v20.629c-.001.403.195.828.56 1.022.215.117.466.085.701.089 5.36-.001 10.721.001 16.081-.001.568.005.941-.589.93-1.11V1.686c0-.403-.195-.829-.56-1.023-.215-.117-.466-.084-.701-.088H4.172c-.181.002-.364-.013-.543.016z"/>
    <path fill="#fff" d="M4.049 1.196c.07-.016.143-.019.215-.021h15.189c.233.003.486-.029.696.097.355.203.517.629.513 1.022-.001 6.486.002 12.973-.001 19.459.006.495-.331 1.065-.875 1.07-5.19.002-10.381.002-15.571 0-.544-.004-.882-.575-.875-1.07-.003-6.486 0-12.973-.001-19.459-.012-.458.233-.983.711-1.099zm1.185 1.835c-.306.306-.289.879.057 1.148.335.274.794.301 1.148.536.238.141.192.534-.062.63-.374.168-.811-.059-.964-.422-.173.065-.346.128-.518.195.227.797 1.306 1.075 1.94.59.406-.306.456-.979.087-1.334-.329-.321-.814-.363-1.199-.584-.163-.087-.177-.336-.023-.438a.612.612 0 0 1 .848.237c.166-.057.332-.113.499-.167-.198-.765-1.297-.913-1.812-.391zm2.699-.256c-.006 1.041.002 2.083-.004 3.124.187-.003.374-.002.561-.001.004-.391.001-.782.002-1.173.443-.027.93.089 1.331-.156.506-.303.593-1.083.195-1.507-.213-.221-.533-.29-.829-.29-.419 0-.837-.003-1.256.003zm2.958.002c-.008 1.04 0 2.08-.004 3.12.71-.002 1.42.001 2.13-.001.003-.18.003-.361 0-.541-.522-.005-1.043-.001-1.565-.003l.001-.787h.905c.003-.178.005-.356.003-.533l-.908-.001v-.713h1.469c.003-.18.003-.36 0-.541-.677-.003-1.353-.004-2.03 0zm2.854.001c-.006 1.04.002 2.081-.004 3.121.71-.006 1.42.002 2.13-.004.005-.18.005-.36 0-.54-.522-.004-1.045-.001-1.568-.002v-.787h.906c.005-.178.008-.356.005-.533h-.911V3.32c.49-.002.981.004 1.471-.003.004-.18.004-.36 0-.539-.677-.003-1.354-.005-2.031.001zm2.842-.003c-.002 1.041-.003 2.082.001 3.123.655-.033 1.415.137 1.957-.336.655-.61.66-1.804.024-2.428-.54-.491-1.318-.332-1.981-.359zM6.352 7.419c-.005 1.038-.002 2.077-.002 3.115h2.046v-.547c-.494-.003-.988 0-1.481-.001-.002-.856.003-1.711-.002-2.567a17.486 17.486 0 0 0-.561 0zm2.686-.001c-.002 1.039 0 2.078-.001 3.117.188.001.377 0 .566-.002.003-1.039.003-2.077 0-3.116a11.825 11.825 0 0 0-.565.001zm1.478 0c-.006 1.039-.001 2.078-.002 3.116h.563c.001-.624.006-1.247-.003-1.871.275.654.568 1.301.853 1.951.285-.653.593-1.296.852-1.959-.015.626-.003 1.252-.007 1.879.188.001.377.001.565-.001.002-1.039.004-2.078-.001-3.118a48.6 48.6 0 0 0-.54 0c-.287.666-.596 1.322-.863 1.996-.263-.673-.574-1.326-.853-1.993a8.838 8.838 0 0 0-.564-.001zm3.738-.003c0 1.04.001 2.081-.001 3.121.185-.002.37-.002.556 0l-.001-3.12a51.153 51.153 0 0 0-.554 0zm1.274-.005c-.003.181-.002.363 0 .545.29.002.581.001.871.001v2.578l.563-.001.001-2.577h.865c.001-.182.001-.365-.001-.547-.766 0-1.533-.002-2.299.001zm-10.33 4.145c-.196.06-.417.212-.409.441v8.632c-.002.344.399.501.692.499h13.038c.293.001.694-.155.692-.499v-8.632c.001-.281-.3-.434-.542-.471-.153-.03-.311-.063-.467-.037-.398.027-.801.03-1.199-.002h-.065c-.399.031-.802.03-1.201 0l-.065-.001a7.893 7.893 0 0 1-1.266-.001 7.897 7.897 0 0 1-1.24 0h-.032a31.73 31.73 0 0 1-2.506.001h-.065c-.398.032-.802.03-1.201.001l-.065-.001a7.893 7.893 0 0 1-1.266-.001 7.778 7.778 0 0 1-1.24 0h-.032a7.897 7.897 0 0 1-1.24 0c-.112-.022-.219.029-.32.07z"/>
    <path fill="#fff" d="M8.491 3.319c.293.009.59-.02.881.014.394.073.417.717.036.825-.303.045-.612.009-.917.02v-.859zM17.147 3.318c.366.008.818-.075 1.074.259.332.461.324 1.201-.1 1.604-.269.236-.646.16-.973.172V3.319z"/>
    <path d="M3.629.592c.179-.029.362-.014.543-.016h15.703c.234.004.486-.029.701.088.366.194.56.62.56 1.023v20.629c.011.521-.361 1.115-.93 1.11-5.361.002-10.721 0-16.081.001-.235-.004-.486.028-.701-.089-.365-.194-.561-.62-.56-1.022V1.687c-.005-.469.278-.992.765-1.094zm.42.604c-.478.116-.723.641-.711 1.099.001 6.486-.002 12.973.001 19.459-.007.495.331 1.066.875 1.07 5.19.002 10.38.002 15.571 0 .543-.004.881-.575.875-1.07.003-6.486 0-12.973.001-19.459.004-.393-.158-.82-.513-1.022-.21-.127-.463-.095-.696-.098H4.263c-.072.002-.144.004-.215.021z"/>
    <path d="M5.234 3.031c.515-.522 1.614-.375 1.812.391-.167.054-.333.111-.499.167a.612.612 0 0 0-.848-.237c-.154.102-.14.352.023.438.385.221.87.263 1.199.584.369.354.32 1.028-.087 1.334-.634.485-1.713.207-1.94-.59.172-.067.345-.131.518-.195.152.363.59.59.964.422.255-.095.3-.489.062-.63-.354-.235-.813-.262-1.148-.536-.346-.27-.363-.842-.057-1.148zM7.933 2.775c.419-.006.837-.002 1.256-.003.296 0 .616.069.829.29.398.424.311 1.204-.195 1.507-.4.245-.888.129-1.331.156-.001.391.002.782-.002 1.173-.187-.001-.374-.002-.561.001.006-1.042-.002-2.083.004-3.124zm.558.544v.859c.305-.011.615.025.917-.02.381-.108.358-.752-.036-.825-.292-.034-.588-.005-.881-.014zM10.891 2.777c.677-.005 1.353-.003 2.03 0 .004.18.004.36 0 .541-.489.002-.979.001-1.469 0v.713l.908.001c.002.178 0 .355-.003.533h-.905l-.001.787c.522.002 1.043-.002 1.565.003.003.18.004.36 0 .541-.71.003-1.42 0-2.13.001.003-1.04-.004-2.08.004-3.12zM13.745 2.778c.677-.006 1.354-.004 2.031-.001.003.18.004.359 0 .539-.49.007-.981.001-1.471.003v.713h.911c.003.178 0 .356-.005.533h-.906v.787c.523.001 1.045-.002 1.568.002.004.18.004.36 0 .54-.71.006-1.42-.002-2.13.004.006-1.04-.002-2.081.004-3.121zM16.587 2.775c.664.027 1.441-.133 1.981.359.637.624.631 1.818-.024 2.428-.541.473-1.302.303-1.957.336a541.842 541.842 0 0 1-.001-3.123zm.56.543v2.034c.327-.011.704.064.973-.172.425-.402.433-1.142.1-1.604-.255-.333-.708-.251-1.074-.259zM6.352 7.419c.187-.003.374-.003.561 0 .005.856 0 1.711.002 2.567.494.001.987-.002 1.481.001v.547H6.35c0-1.038-.003-2.077.002-3.115zM9.038 7.418c.188-.005.376-.005.565-.001.003 1.039.003 2.077 0 3.116-.188.002-.377.003-.566.002 0-1.039-.001-2.078.001-3.117zM10.516 7.418c.188-.006.376-.005.564.001.278.667.59 1.32.853 1.993.267-.674.576-1.33.862-1.996h.54c.005 1.039.003 2.078.001 3.118a35.47 35.47 0 0 1-.565.001c.004-.626-.008-1.253.007-1.879-.259.663-.567 1.306-.852 1.959-.285-.65-.578-1.297-.853-1.951.009.624.005 1.247.003 1.871h-.563c.001-1.039-.004-2.077.002-3.116zM14.254 7.415h.554l.001 3.12a51.523 51.523 0 0 0-.556 0c.002-1.04.001-2.081.001-3.121zM15.528 7.41c.766-.003 1.533-.001 2.299-.001.002.182.002.365.001.547h-.865l-.001 2.577-.563.001V7.956l-.871-.001a24.753 24.753 0 0 1 0-.545zM5.518 11.485c.412.032.828.033 1.24 0-.232.052-.441.231-.483.471-.063.347.326.679.659.567a.514.514 0 0 0 .331-.658c-.072-.205-.272-.33-.475-.379.412.032.828.033 1.24 0-.232.052-.441.231-.483.471-.062.346.323.676.656.568.271-.076.444-.403.332-.666-.071-.191-.254-.308-.44-.369.399.028.802.031 1.201-.002-.23.055-.436.235-.477.475-.057.344.324.669.655.563.275-.075.448-.409.331-.674-.075-.189-.257-.306-.444-.364.399.03.803.031 1.201-.001-.228.059-.432.239-.47.478-.053.34.32.662.648.562a.514.514 0 0 0 .348-.649c-.069-.204-.262-.334-.462-.39.834.031 1.673.033 2.506-.001-.231.052-.439.231-.481.471-.063.348.327.68.661.566.269-.078.434-.401.327-.662-.075-.202-.272-.326-.475-.374.412.032.828.033 1.24 0-.231.053-.438.232-.48.471-.061.345.321.675.653.569.274-.074.445-.403.334-.668-.072-.191-.255-.308-.442-.368.399.028.802.03 1.201-.002-.23.056-.435.237-.475.476-.059.355.35.687.686.552.258-.09.412-.409.3-.664-.075-.189-.258-.306-.446-.363.399.03.802.031 1.201 0-.227.059-.431.239-.468.478-.056.353.349.682.683.551a.513.513 0 0 0 .313-.638c-.068-.205-.262-.334-.462-.39.398.032.801.029 1.199.002-.226.061-.427.245-.461.484-.047.348.346.669.677.545a.513.513 0 0 0 .319-.643c-.054-.174-.219-.274-.356-.377.096.008.192.017.288.028.243.037.544.19.542.471v8.632c.001.344-.4.5-.692.499H5.48c-.293.002-.694-.155-.692-.499v-8.632c-.007-.229.213-.381.409-.441l.086-.031c-.107.131-.256.25-.282.428-.066.351.33.686.666.567a.515.515 0 0 0 .326-.651c-.072-.206-.272-.335-.476-.384zm-.159 1.333a.586.586 0 0 0-.352.401c-.082.341.281.68.615.602a.518.518 0 0 0 .399-.462c.032-.336-.334-.658-.662-.542zm7.641.003a.589.589 0 0 0-.343.397c-.085.351.303.701.644.597a.517.517 0 0 0 .37-.458c.03-.337-.343-.659-.671-.535zm-7.505 1.262c-.385.003-.663.526-.384.822.205.28.673.265.841-.045.215-.326-.084-.787-.457-.777zm1.271 0c-.396.003-.67.555-.364.842.218.275.69.226.838-.094.185-.326-.113-.758-.474-.748zm1.266 0c-.241.008-.44.219-.486.447-.059.344.324.662.652.56a.514.514 0 0 0 .367-.551.552.552 0 0 0-.533-.457zm1.266.001c-.228.01-.412.203-.472.413-.09.35.3.696.638.595a.514.514 0 0 0 .373-.556c-.042-.251-.281-.465-.539-.453zm3.843-.001c-.395.004-.667.554-.363.841.217.276.69.229.839-.092.185-.327-.114-.759-.476-.749zm1.266.001c-.24.009-.437.219-.483.447-.059.343.322.661.649.561a.513.513 0 0 0 .368-.426c.041-.3-.236-.591-.534-.581zm1.266 0c-.24.013-.435.225-.478.453-.052.338.32.65.645.556a.513.513 0 0 0 .374-.558c-.042-.25-.283-.464-.54-.451zm1.266.001c-.238.016-.431.228-.471.456-.041.273.194.521.452.565a.511.511 0 0 0 .566-.433c.048-.306-.241-.609-.547-.588zm-6.518 1.305a.575.575 0 0 0-.333.455c-.019.261.207.488.453.532a.51.51 0 0 0 .569-.439c.053-.354-.351-.695-.689-.548zm7.641.004c-.227.106-.392.386-.299.634.089.233.359.408.61.341a.513.513 0 0 0 .39-.478c.013-.34-.379-.644-.701-.497zm-7.64 1.269c-.309.122-.46.571-.196.814.227.281.715.21.847-.128.189-.382-.26-.857-.65-.687zm7.644.002a.58.58 0 0 0-.328.451c-.021.267.214.501.468.537a.512.512 0 0 0 .555-.449c.046-.354-.359-.69-.695-.54zm-12.708 1.26a.584.584 0 0 0-.353.403c-.078.347.306.68.64.583a.512.512 0 0 0 .375-.442c.038-.338-.334-.659-.662-.544zm5.107-.005a.576.576 0 0 0-.372.423c-.053.281.192.545.461.582a.512.512 0 0 0 .551-.413c.073-.346-.3-.697-.64-.592zm2.535.008c-.325.112-.486.582-.21.828.224.27.694.205.833-.118.202-.374-.229-.86-.623-.71zm5.107-.005a.58.58 0 0 0-.361.407c-.075.337.285.662.613.588a.511.511 0 0 0 .402-.448c.037-.336-.326-.655-.654-.547zM6.669 19.187c-.352.082-.546.579-.259.84.225.274.703.208.839-.12.186-.358-.197-.817-.58-.719zm1.267.002c-.346.086-.538.575-.257.834.223.276.702.214.841-.114.193-.359-.199-.825-.584-.72zm1.267.002a.571.571 0 0 0-.386.45c-.035.274.204.522.465.558a.512.512 0 0 0 .545-.384c.098-.348-.276-.724-.624-.624zm5.108-.002a.577.577 0 0 0-.383.409c-.077.333.272.66.599.596a.513.513 0 0 0 .412-.421c.06-.337-.296-.674-.628-.584zm1.267.002c-.339.092-.527.57-.253.829.221.277.698.222.842-.104.2-.362-.2-.839-.589-.725zm1.267.001c-.333.095-.518.564-.25.823.218.278.695.23.842-.094.206-.365-.199-.851-.592-.729z"/>
    <path fill="#ccc" d="M5.198 11.555c.101-.042.208-.093.32-.07.204.049.404.178.476.384a.515.515 0 0 1-.326.651c-.335.119-.731-.216-.666-.567.026-.179.175-.297.282-.428l-.086.031zM6.758 11.484h.032c.203.049.403.174.475.379a.514.514 0 0 1-.331.658c-.333.112-.722-.219-.659-.567.042-.24.251-.419.483-.471zM8.03 11.484l.065.003c.186.061.369.179.44.369.112.263-.061.59-.332.666-.333.109-.718-.221-.656-.568.042-.24.251-.419.483-.471zM9.296 11.485l.065.001c.187.058.37.174.444.364.117.265-.056.598-.331.674-.331.105-.712-.219-.655-.563.04-.24.247-.42.477-.475zM10.561 11.485h.065c.199.057.393.187.462.39.096.264-.079.579-.348.649-.329.1-.702-.222-.648-.562.038-.239.242-.42.47-.478zM13.133 11.484h.032c.202.048.399.172.475.374a.513.513 0 0 1-.327.662c-.334.113-.724-.218-.661-.566.042-.24.25-.419.481-.471zM14.405 11.484l.065.003c.187.06.37.178.442.368.111.265-.06.594-.334.668-.332.106-.714-.224-.653-.569.043-.239.249-.418.48-.471zM15.671 11.485l.065.001c.188.058.371.174.446.363.112.255-.042.574-.3.664-.336.135-.744-.197-.686-.552.039-.24.245-.42.475-.476zM16.937 11.486h.065c.2.056.394.186.462.39a.513.513 0 0 1-.313.638c-.334.132-.739-.197-.683-.551.037-.239.241-.419.468-.478zM18.201 11.488c.156-.026.314.007.467.037a7.011 7.011 0 0 0-.288-.028c.137.103.302.202.356.377a.513.513 0 0 1-.319.643c-.33.124-.724-.197-.677-.545.034-.239.234-.423.461-.484zM5.359 12.818c.328-.116.694.206.662.542a.518.518 0 0 1-.399.462c-.334.078-.697-.262-.615-.602a.584.584 0 0 1 .352-.401zM13 12.821c.328-.124.7.198.671.535a.518.518 0 0 1-.37.458c-.341.105-.729-.246-.644-.597A.589.589 0 0 1 13 12.82zM5.495 14.083c.373-.01.672.451.457.777-.168.31-.636.325-.841.045-.279-.296-.001-.819.384-.822zM6.766 14.083c.361-.01.659.422.474.748-.148.321-.62.369-.838.094-.306-.287-.032-.84.364-.842zM8.032 14.083a.55.55 0 0 1 .533.457.515.515 0 0 1-.367.551c-.328.102-.711-.217-.652-.56.046-.228.244-.439.486-.447zM9.298 14.084c.258-.012.497.202.539.453a.514.514 0 0 1-.373.556c-.338.1-.728-.245-.638-.595.06-.211.244-.403.472-.413zM13.141 14.083c.361-.011.661.422.476.749-.149.321-.622.368-.839.092-.304-.287-.031-.837.363-.841zM14.407 14.084c.298-.01.576.282.534.581a.513.513 0 0 1-.368.426c-.328.1-.708-.218-.649-.561.046-.227.242-.438.483-.447zM15.673 14.084c.258-.013.498.201.54.451a.514.514 0 0 1-.374.558c-.325.094-.697-.218-.645-.556.043-.228.238-.44.478-.453zM16.939 14.085c.305-.021.595.282.547.588a.512.512 0 0 1-.566.433c-.258-.045-.493-.293-.452-.565.04-.228.233-.439.471-.456zM10.421 15.39c.337-.147.742.194.689.548a.51.51 0 0 1-.569.439c-.246-.044-.472-.271-.453-.532a.575.575 0 0 1 .333-.455zM18.062 15.394c.322-.147.714.157.701.497a.513.513 0 0 1-.39.478c-.251.067-.521-.107-.61-.341-.094-.248.071-.528.299-.634zM10.422 16.663c.39-.17.839.305.65.687-.132.337-.62.409-.847.128-.264-.243-.113-.692.196-.814zM18.066 16.665c.336-.15.741.186.695.54a.512.512 0 0 1-.555.449c-.254-.036-.489-.27-.468-.537a.574.574 0 0 1 .328-.451zM5.358 17.925c.328-.115.7.206.662.544a.512.512 0 0 1-.375.442c-.334.097-.718-.236-.64-.583a.582.582 0 0 1 .353-.403zM10.465 17.92c.341-.105.713.246.64.592a.512.512 0 0 1-.551.413c-.269-.038-.514-.301-.461-.582a.574.574 0 0 1 .372-.423zM13 17.928c.395-.15.825.336.623.71-.139.322-.609.387-.833.118-.277-.246-.116-.716.21-.828zM18.107 17.923c.328-.107.691.212.654.547a.511.511 0 0 1-.402.448c-.328.074-.687-.252-.613-.588a.58.58 0 0 1 .361-.407zM6.669 19.187c.383-.098.766.361.58.719-.136.328-.615.395-.839.12-.287-.26-.092-.758.259-.84zM7.936 19.189c.385-.105.777.361.584.72-.139.328-.618.39-.841.114-.281-.259-.089-.748.257-.834zM9.203 19.191c.348-.1.722.276.624.624a.51.51 0 0 1-.545.384c-.261-.037-.5-.285-.465-.558a.567.567 0 0 1 .386-.45zM14.311 19.189c.332-.09.688.247.628.584a.513.513 0 0 1-.412.421c-.326.063-.675-.263-.599-.596a.576.576 0 0 1 .383-.409zM15.578 19.191c.39-.114.789.363.589.725-.144.326-.621.381-.842.104-.275-.259-.086-.737.253-.829zM16.845 19.192c.394-.122.799.364.592.729-.148.324-.624.372-.842.094-.269-.259-.083-.728.25-.823z"/>
</svg>
