<svg xmlns="http://www.w3.org/2000/svg" width="24" height="24">
    <path fill="#c0111e" d="M11.002 0h1.974c4.141.374 8.026 2.946 9.812 6.727.676 1.337 1.003 2.809 1.212 4.284v1.949c-.301 2.777-1.457 5.485-3.451 7.469-1.986 2.056-4.73 3.253-7.55 3.571h-1.974c-2.773-.305-5.474-1.459-7.454-3.451-2.057-1.986-3.257-4.734-3.57-7.556v-1.961C.2 9.55.535 8.07 1.211 6.726 2.994 2.951 6.87.385 11.003 0zM7.798 3.239c-3.022 1.417-5.177 4.495-5.467 7.82-.248 2.465.499 5 2.03 6.946 1.363-1.331 2.694-2.694 4.05-4.031 0 1.084.002 2.168-.001 3.252a81.877 81.877 0 0 0-2.416 2.408c2.341 1.86 5.562 2.538 8.452 1.764a9.769 9.769 0 0 0 6.108-4.8c1.837-3.317 1.446-7.682-.932-10.631-.962.792-1.876 1.644-2.873 2.395-.05-.738-.248-1.477-.641-2.108.648-.617 1.274-1.256 1.901-1.896-2.834-2.261-6.955-2.722-10.211-1.12z"/>
    <path fill="#094ca1" d="M7.798 3.239c3.256-1.602 7.376-1.141 10.211 1.12a75.519 75.519 0 0 1-1.901 1.896c-.655-1.075-1.898-1.68-3.139-1.692-1.518-.022-3.036-.01-4.554-.006-.008 3.139 0 6.278-.004 9.418-1.356 1.337-2.687 2.7-4.05 4.031a9.761 9.761 0 0 1-2.03-6.946c.29-3.325 2.446-6.403 5.467-7.82zM16.748 8.363c.997-.751 1.91-1.603 2.873-2.395 2.378 2.948 2.77 7.314.932 10.631a9.769 9.769 0 0 1-6.108 4.8c-2.89.774-6.11.096-8.452-1.764a80.671 80.671 0 0 1 2.416-2.408c.005.737-.001 1.475.002 2.212.71.005 1.42.005 2.13 0 .006-2.177-.006-4.354.005-6.529 1.667-.083 3.599.337 4.976-.865 1.039-.9 1.295-2.371 1.225-3.68z"/>
    <path fill="#094ca1" d="M10.547 6.642c.919.032 1.853-.086 2.761.08 1.852.473 1.849 3.739-.07 4.097-.892.1-1.794.02-2.69.043a424.012 424.012 0 0 1-.001-4.22z"/>
    <path fill="#fff" d="M8.414 4.556c1.518-.004 3.036-.016 4.554.006 1.241.012 2.484.617 3.139 1.692.392.631.59 1.37.641 2.108.07 1.309-.186 2.78-1.225 3.68-1.378 1.202-3.31.782-4.976.865-.011 2.176.001 4.352-.005 6.529-.71.005-1.42.005-2.13 0-.004-.737.002-1.475-.002-2.212.004-1.084.001-2.168.001-3.252.004-3.139-.005-6.278.004-9.418zm2.133 2.086c-.006 1.406-.007 2.814.001 4.22.896-.023 1.799.056 2.69-.043 1.919-.358 1.921-3.624.07-4.097-.908-.167-1.842-.048-2.761-.08z"/>
</svg>
