<svg xmlns="http://www.w3.org/2000/svg" width="24" height="24">
    <path fill="#e20a16" d="M11.111 0h1.507c4.525.223 8.773 3.186 10.469 7.397.497 1.139.73 2.364.913 3.586v2.084c-.415 4.073-2.939 7.885-6.647 9.676-1.319.696-2.785 1.021-4.246 1.258h-2.179c-4.01-.426-7.77-2.875-9.589-6.502C.546 15.992.138 14.312 0 12.621v-1.228C.229 6.615 3.54 2.165 8.092.659 9.069.315 10.094.162 11.111 0zM7.922 2.879c-3.46 1.502-5.868 5.11-5.91 8.884-.145 3.84 2.176 7.616 5.651 9.245.883-2.416 1.763-4.831 2.639-7.249.461-1.256.92-2.513 1.373-3.773.934-2.557 1.871-5.114 2.79-7.676-2.165-.534-4.507-.35-6.542.57zm8.432.115c-.833 2.306-1.697 4.603-2.504 6.919l-.028.001c-.442 1.29-.934 2.561-1.385 3.847a1710.2 1710.2 0 0 0-2.891 7.943c2.278.568 4.759.332 6.863-.724 3.406-1.628 5.69-5.32 5.596-9.1.001-3.721-2.294-7.296-5.651-8.887z"/>
    <path fill="#fff" d="M7.922 2.879c2.035-.92 4.378-1.104 6.542-.57-.919 2.562-1.856 5.119-2.79 7.676-.176.001-.353.004-.528.008-.41-.611-.817-1.223-1.229-1.832-1.175-.002-2.35-.001-3.524-.001.647.511.469 1.343.475 2.063h-1.3c.005-.688-.029-1.378.04-2.063l-.732-.002c.083.685.047 1.375.049 2.063-.419.048-.995-.145-1.283.257-.086.973-.011 1.957-.034 2.934.196-.005.392-.006.589-.004.356-.908 1.282-1.592 2.281-1.47.986.065 1.766.884 1.963 1.824.619-.004 1.24 0 1.859-.004-.876 2.418-1.756 4.834-2.639 7.249-3.475-1.628-5.796-5.405-5.651-9.245.042-3.774 2.45-7.381 5.91-8.884zM5.796 12.4c-.846.216-1.424 1.145-1.242 2 .146.923 1.118 1.608 2.038 1.416 1.009-.157 1.714-1.309 1.356-2.276-.262-.878-1.278-1.409-2.152-1.14zM16.354 2.994c3.356 1.591 5.652 5.166 5.651 8.887.095 3.78-2.19 7.471-5.596 9.1-2.104 1.056-4.585 1.291-6.863.724a1710.2 1710.2 0 0 1 2.891-7.943c.259-.002.518-.002.778-.005.246-1.766 2.681-2.464 3.816-1.085.072-.164.142-.329.211-.493 1.051-.38 2.108-.743 3.166-1.103-.26-.443-.524-.882-.786-1.324-1.924.055-3.848.094-5.772.161.808-2.316 1.672-4.613 2.504-6.919zm-1.44 9.4c-.857.209-1.45 1.142-1.265 2.008.149.93 1.135 1.616 2.06 1.411.997-.169 1.686-1.308 1.337-2.266-.256-.875-1.261-1.408-2.132-1.153z"/>
    <path fill="#fff" d="M8.216 9.272h1.319c.002.44.001.88-.001 1.319l-1.315.001c-.004-.44-.005-.88-.002-1.32zM5.812 13.253c.623-.394 1.517.181 1.423.91-.029.697-.913 1.139-1.483.725-.589-.359-.559-1.325.06-1.634zm.345.566c-.354.161-.061.725.269.521.302-.18.058-.66-.269-.521zM14.926 13.243c.623-.374 1.495.198 1.405.916-.023.726-.972 1.162-1.532.692-.552-.384-.482-1.319.127-1.608zm.348.571c-.338.115-.155.66.18.554.367-.101.187-.692-.18-.554z"/>
    <path d="M4.877 8.158l.732.002c-.068.685-.035 1.375-.04 2.063h1.3c-.006-.72.172-1.552-.475-2.063 1.175 0 2.35-.001 3.524.001.412.61.818 1.222 1.229 1.832.175-.005.352-.007.528-.008-.452 1.26-.912 2.516-1.373 3.773-.619.004-1.24 0-1.859.004-.197-.94-.977-1.759-1.963-1.824-1-.122-1.925.562-2.281 1.47a16.49 16.49 0 0 0-.589.004c.023-.977-.053-1.961.034-2.934.288-.402.864-.209 1.283-.257-.002-.688.034-1.378-.049-2.063zm3.339 1.114c-.002.44-.001.88.002 1.32l1.315-.001c.002-.439.004-.878.001-1.319H8.215zM13.849 9.913c1.924-.067 3.848-.106 5.772-.161.262.442.526.881.786 1.324-1.057.36-2.114.722-3.166 1.103-.07.164-.139.329-.211.493-1.135-1.379-3.57-.682-3.816 1.085-.259.002-.518.002-.778.005.451-1.286.943-2.557 1.385-3.847l.028-.001z"/>
    <path d="M5.796 12.4c.874-.269 1.89.262 2.152 1.14.358.967-.347 2.119-1.356 2.276-.919.192-1.891-.493-2.038-1.416-.182-.856.396-1.784 1.242-2zm.016.853c-.619.31-.649 1.276-.06 1.634.57.414 1.454-.028 1.483-.725.094-.728-.8-1.303-1.423-.91zM14.914 12.394c.871-.254 1.877.278 2.132 1.153.349.958-.34 2.096-1.337 2.266-.925.205-1.912-.481-2.06-1.411-.185-.865.408-1.799 1.265-2.008zm.012.849c-.61.289-.679 1.224-.127 1.608.56.469 1.51.034 1.532-.692.09-.718-.782-1.29-1.405-.916z"/>
    <path d="M6.157 13.819c.326-.139.571.341.269.521-.33.204-.623-.36-.269-.521zM15.274 13.814c.367-.138.547.454.18.554-.335.106-.518-.439-.18-.554z"/>
</svg>
