<svg xmlns="http://www.w3.org/2000/svg" width="24" height="24">
    <path fill="#43534f" opacity=".43" d="M11.693 0h.605l.058.028c-.24.008-.48.009-.719.001l.056-.03z"/>
    <path fill="#036249" d="M4.823 2.469C6.763.964 9.187.117 11.637.03c.24.008.48.007.719-.001 1.552.059 3.111.365 4.53 1.011a11.811 11.811 0 0 1 3.803 2.69c.949.989 1.775 2.117 2.316 3.382.57 1.304.906 2.702 1.033 4.117v1.61a12.656 12.656 0 0 1-1.273 4.569c-.817 1.564-1.954 2.974-3.35 4.058a11.95 11.95 0 0 1-4.864 2.275c-.993.263-2.027.23-3.045.225-.812.012-1.618-.124-2.4-.337a10.518 10.518 0 0 1-2.433-.914c-2.029-1.003-3.719-2.629-4.905-4.547a12.5 12.5 0 0 1-1.427-3.585A12.04 12.04 0 0 1 .706 8.15c.742-2.262 2.247-4.228 4.117-5.681zm6.397.101a9.408 9.408 0 0 0-6.458 3.409 8.877 8.877 0 0 0-1.709 3.074 9.404 9.404 0 0 0 .194 6.457c.452 1.222 1.235 2.292 2.133 3.224a9.612 9.612 0 0 0 3.54 2.229c1.733.596 3.64.7 5.418.247 1.632-.388 3.138-1.253 4.339-2.419.895-.917 1.681-1.968 2.146-3.171.466-1.146.728-2.38.716-3.619.012-1.431-.348-2.85-.953-4.142-.469-.969-1.137-1.829-1.883-2.599-1.942-1.935-4.751-2.95-7.483-2.689z"/>
    <path fill="#fffffe" d="M11.22 2.57c2.731-.261 5.54.754 7.483 2.689.746.771 1.414 1.631 1.883 2.599.605 1.292.965 2.71.953 4.142.013 1.239-.25 2.473-.716 3.619-.464 1.203-1.251 2.255-2.146 3.171-1.2 1.167-2.707 2.031-4.339 2.419-1.778.453-3.685.349-5.418-.247a9.624 9.624 0 0 1-3.54-2.229c-.898-.932-1.68-2.002-2.133-3.224a9.398 9.398 0 0 1-.194-6.457 8.886 8.886 0 0 1 1.709-3.074 9.408 9.408 0 0 1 6.458-3.409zM4.565 6.678v10.783h1.551c.002-1.627-.001-3.254.002-4.881h2.951c.002 1.627-.001 3.253.001 4.88h1.551V6.678c-.517-.002-1.034-.001-1.551 0-.002 1.462 0 2.925-.001 4.388-.984.002-1.967 0-2.951.001-.001-1.463.001-2.926-.001-4.389h-1.55zm8.016 0v10.783h1.551c.003-2.014-.002-4.028.002-6.043.673 2.012 1.331 4.027 2.004 6.039.67-2.012 1.331-4.027 2.003-6.038.004 2.014-.001 4.028.002 6.042h1.551V6.679c-.516-.002-1.033-.001-1.55-.001-.674 2.012-1.325 4.032-2.009 6.039-.67-2.012-1.333-4.027-2.002-6.039-.517 0-1.034-.002-1.551 0z"/>
    <path fill="#1a1919" d="M4.565 6.678c.517-.002 1.034-.001 1.55 0 .002 1.463 0 2.926.001 4.389.984 0 1.967.001 2.951-.001.001-1.462-.001-2.925.001-4.388a267.29 267.29 0 0 1 1.551 0V17.46H9.068c-.002-1.627 0-3.253-.001-4.88H6.116c-.002 1.627.001 3.254-.002 4.881H4.563V6.678zM12.581 6.678c.517-.002 1.034-.001 1.551 0 .669 2.013 1.332 4.027 2.002 6.039.684-2.008 1.336-4.028 2.009-6.039.517 0 1.034-.002 1.55.001v10.782h-1.551c-.003-2.014.002-4.028-.002-6.042-.672 2.011-1.333 4.026-2.003 6.038-.673-2.012-1.331-4.027-2.004-6.039-.004 2.014 0 4.028-.002 6.043H12.58V6.678z"/>
</svg>
