<svg xmlns="http://www.w3.org/2000/svg" width="24" height="24">
    <path fill="#c0111e" d="M10.961 0h2.06c.846.161 1.706.263 2.528.53 3.486 1.046 6.404 3.788 7.67 7.2.419 1.037.592 2.143.78 3.238v2.042c-.401 4.061-2.878 7.882-6.568 9.691-1.361.727-2.88 1.063-4.393 1.298h-2.062c-.91-.166-1.832-.29-2.711-.593-3.466-1.105-6.336-3.887-7.552-7.314-.378-.984-.533-2.028-.715-3.06v-2.05c.181-1.102.36-2.213.778-3.253C2.042 4.316 4.962 1.574 8.449.528c.816-.266 1.672-.365 2.51-.529zm.006 2.339a9.707 9.707 0 0 0-6.252 3.217c-2.689 2.968-3.2 7.638-1.234 11.123 1.738 3.251 5.453 5.294 9.13 5.012 3.698-.18 7.139-2.699 8.443-6.162 1.099-2.803.809-6.114-.799-8.665-1.89-3.13-5.66-4.949-9.288-4.525z"/>
    <path fill="#fff" d="M10.967 2.339c3.628-.424 7.398 1.396 9.288 4.525 1.608 2.551 1.898 5.862.799 8.665-1.304 3.463-4.745 5.982-8.443 6.162-3.677.282-7.392-1.762-9.13-5.012-1.967-3.485-1.456-8.155 1.234-11.123a9.703 9.703 0 0 1 6.252-3.217zm1.154 4.541c-.007 2.341-.002 4.682-.002 7.022l-.259.253c-.103.631-.04 1.297.712 1.399.095.492-.185 1.138.24 1.51.449.1.932.054 1.391.023.403-.353.188-.956.25-1.423.834.704 2.082.715 2.91-.006.065.467-.145 1.06.24 1.424.458.048.934.065 1.39-.006.438-.366.168-1.016.246-1.511.24-.11.478-.226.714-.344.016-.354.016-.708.006-1.061l-.26-.263c.002-2.339.004-4.678-.001-7.016l-7.574-.001zm-6.708 5.497c-1.03 1.051-1.578 2.614-1.278 4.072-.133.58.576.852 1.001.576.278-.187.184-.559.211-.841 1.337.031 2.675.047 4.012-.01-.242.697.556 1.284 1.1.773.502-1.561.007-3.378-1.141-4.553-.551-.353-1.26-.152-1.878-.21-.668.059-1.417-.143-2.027.193z"/>
    <path fill="#fff" d="M5.68 12.532c1.086-.126 2.209-.074 3.305-.028.467.469.732 1.12 1.062 1.692a215.21 215.21 0 0 0-5.39-.005c.325-.559.604-1.166 1.024-1.66zM4.322 14.902a19.53 19.53 0 0 1 1.055.004c.089.613-.694.289-1.052.354l-.002-.358zM9.35 14.9c.348-.006.696-.007 1.044.008l.005.322c-.349.025-.698.042-1.049.056V14.9zM6.643 15.006c.472-.01.944-.008 1.416-.002.019.221.04.44.062.661a39.907 39.907 0 0 0-1.508-.005c.01-.218.019-.437.03-.654z"/>
    <path d="M12.121 6.88l7.574.001c.005 2.339.004 4.678.001 7.016l.26.263c.01.353.01.707-.006 1.061a21.27 21.27 0 0 1-.714.344c-.078.494.192 1.145-.246 1.511-.456.071-.931.054-1.39.006-.385-.365-.175-.958-.24-1.424-.828.721-2.076.71-2.91.006-.061.467.154 1.07-.25 1.423-.458.031-.942.077-1.391-.023-.425-.372-.145-1.018-.24-1.51-.751-.102-.815-.768-.712-1.399l.259-.253c0-2.34-.005-4.681.002-7.022zM5.413 12.377c.61-.336 1.358-.134 2.027-.193.618.058 1.327-.143 1.878.21 1.148 1.175 1.643 2.992 1.141 4.553-.545.511-1.343-.076-1.1-.773-1.337.056-2.675.041-4.012.01-.028.282.067.654-.211.841-.425.276-1.134.004-1.001-.576-.3-1.458.248-3.02 1.278-4.072zm.267.155c-.42.493-.698 1.1-1.024 1.66 1.796-.016 3.594-.025 5.39.005-.33-.572-.595-1.223-1.062-1.692-1.096-.047-2.219-.098-3.305.028zm-1.358 2.37l.002.358c.359-.065 1.141.259 1.052-.354a19.53 19.53 0 0 0-1.055-.004zM9.35 14.9v.386c.35-.014.7-.031 1.049-.056l-.005-.322A16.52 16.52 0 0 0 9.35 14.9zm-2.707.106c-.011.217-.02.436-.03.654a39.893 39.893 0 0 1 1.508.005c-.023-.221-.043-.44-.062-.661a44.56 44.56 0 0 0-1.416.002zm-2.329.326l.002.318c.434.008.869.006 1.303.018l-.346-.336c-.32 0-.64-.002-.96 0zm4.822.324c.416.002.834.002 1.252.005-.004-.12-.006-.241-.008-.362-.431.061-.989-.107-1.243.358z"/>
    <path fill="#f8f8f8" d="M4.314 15.332c.32-.002.64 0 .96 0l.346.336c-.434-.012-.869-.01-1.303-.018a33.71 33.71 0 0 1-.002-.318z"/>
    <path fill="#f5f5f5" d="M9.136 15.656c.254-.464.812-.296 1.243-.358l.008.362c-.418-.002-.835-.002-1.252-.005z"/>
</svg>
