<svg xmlns="http://www.w3.org/2000/svg" width="24" height="24">
    <path fill="#c0111e" d="M10.966 0h2.052c.847.16 1.709.263 2.532.53 3.486 1.046 6.404 3.788 7.672 7.2.418 1.038.592 2.146.779 3.242v2.032c-.398 4.063-2.876 7.888-6.568 9.697-1.362.728-2.884 1.064-4.398 1.298h-2.052c-4.06-.402-7.876-2.881-9.688-6.566C.574 16.065.226 14.547 0 13.029v-2.041c.182-1.134.373-2.276.811-3.344C2.093 4.271 4.993 1.567 8.45.529 9.267.264 10.124.162 10.965 0zM6.144 4.228c1.7 1.715 3.414 3.415 5.119 5.125.49.49.974.985 1.476 1.464.214.228.434.448.661.662.646.67 1.31 1.319 1.967 1.978 1.466 1.464 2.929 2.933 4.398 4.394 1.747-2.305 2.369-5.404 1.663-8.207a9.717 9.717 0 0 0-4.147-5.81c-3.32-2.195-7.978-2.028-11.137.394zM4.236 6.137c-1.77 2.334-2.387 5.479-1.639 8.309.632 2.503 2.323 4.71 4.567 5.984 3.282 1.927 7.68 1.649 10.694-.673-1.709-1.705-3.413-3.415-5.122-5.119-.767-.773-1.541-1.541-2.309-2.312-2.066-2.062-4.126-4.128-6.192-6.188z"/>
    <path fill="#fff" d="M6.144 4.228c3.16-2.422 7.817-2.588 11.137-.394a9.717 9.717 0 0 1 4.147 5.81c.706 2.803.084 5.902-1.663 8.207-1.469-1.462-2.932-2.93-4.398-4.394.486-.136.997-.368 1.175-.883.574-1.416.433-2.982.462-4.476.424-.001.848-.001 1.272-.005-.786-1.325-1.577-2.646-2.368-3.968a546.468 546.468 0 0 0-2.371 3.968c.432.002.863.004 1.295.004-.025.817.097 1.672-.198 2.453-.194.527-.739.766-1.234.93a15.283 15.283 0 0 1-.661-.662c.006-2.299.002-4.597.001-6.895a182.78 182.78 0 0 0-1.481 0c0 1.811-.007 3.622.004 5.431-1.705-1.71-3.419-3.41-5.119-5.125zM4.236 6.137c2.066 2.06 4.126 4.127 6.192 6.188-1.001.442-2.126.871-2.77 1.805-.961 1.752-.587 3.83-.634 5.741.838.002 1.675.002 2.514 0-.036-1.2-.181-2.412.005-3.606.132-.853 1.007-1.249 1.711-1.559.008 1.79-.001 3.582.005 5.372h1.481c.001-1.814.007-3.628-.004-5.441 1.709 1.704 3.413 3.414 5.122 5.119-3.014 2.322-7.412 2.6-10.694.673-2.244-1.274-3.935-3.481-4.567-5.984-.748-2.83-.131-5.975 1.639-8.309z"/>
    <path d="M11.26 3.922c.493-.002.988-.002 1.481 0 .001 2.298.005 4.596-.001 6.895-.502-.479-.986-.974-1.476-1.464-.011-1.81-.004-3.62-.004-5.431zM13.537 8.093c.786-1.326 1.574-2.65 2.371-3.968.791 1.322 1.582 2.644 2.368 3.968-.424.004-.848.004-1.272.005-.029 1.494.112 3.06-.462 4.476-.178.515-.689.748-1.175.883-.656-.659-1.321-1.308-1.967-1.978.494-.164 1.039-.403 1.234-.93.295-.781.173-1.636.198-2.453-.432 0-.863-.001-1.295-.004zM7.658 14.13c.643-.934 1.769-1.363 2.77-1.805.768.772 1.542 1.54 2.309 2.312.011 1.813.005 3.626.004 5.441H11.26c-.006-1.79.004-3.582-.005-5.372-.704.31-1.579.706-1.711 1.559-.186 1.194-.041 2.406-.005 3.606-.839.002-1.676.002-2.514 0 .047-1.91-.328-3.989.634-5.741z"/>
</svg>
