<svg xmlns="http://www.w3.org/2000/svg" width="24" height="24">
    <path fill="#231f20" d="M4.281 0h15.518c.536.102 1.01.481 1.201.996v22.092a1.67 1.67 0 0 1-.915.912H3.99A1.658 1.658 0 0 1 3 22.757V1.322C3.11.672 3.624.113 4.281 0zm.039.135c-.654.112-1.185.707-1.201 1.374-.002 7.007.001 14.015-.001 21.021-.006.733.621 1.392 1.351 1.43H19.61c.739-.039 1.4-.72 1.351-1.471-.003-7.034.001-14.068-.002-21.101-.069-.643-.626-1.2-1.268-1.268C14.617.117 9.543.12 4.469.118c-.05 0-.1.006-.149.016z"/>
    <path fill="#231f20" d="M4.36.413a.747.747 0 0 1 .149-.016c4.967 0 9.935.002 14.902-.001.394-.024.817.132 1.047.465.192.25.244.579.225.887 0 6.927-.002 13.855.001 20.782-.003.377-.191.757-.516.956-.261.193-.604.205-.915.197H4.59a1.208 1.208 0 0 1-.943-.449c-.23-.3-.258-.697-.249-1.061V1.948c-.01-.352.007-.728.201-1.035.181-.253.447-.455.762-.499zm.082.675a.525.525 0 0 0-.369.5v20.905c-.001.26.208.507.473.515h14.986a.491.491 0 0 0 .475-.475c-.001-7.022.002-14.044-.001-21.066a.51.51 0 0 0-.474-.393c-4.981-.001-9.962.002-14.944-.001a.42.42 0 0 0-.146.016z"/>
    <path fill="#231f20" d="M4.907 10.808h.358v.834h.477v-.834h.318v2.066h-.318v-.914h-.477v.914h-.358v-2.066zM6.457 10.808h.993v.318h-.636v.477h.397v.318h-.397v.596h.715v.358H6.456v-2.066zM7.808 10.808c.342.016.711-.067 1.019.128.23.27.242.768-.114.936.094.335.188.671.296 1.002h-.355c-.075-.321-.184-.633-.26-.954h-.228v.954h-.358v-2.066zm.358.317v.478c.178.003.495.046.496-.215.002-.259-.301-.288-.496-.263zM9.278 10.808h.993v.318h-.675v.477h.437v.318h-.437v.596h.755v.358H9.278v-2.066zM8.299 15.385c2.305-2.036 5.618-2.925 8.609-2.147-.002.729 0 1.459-.001 2.188-.917-.339-1.881-.579-2.861-.606-1.734-.054-3.466.494-4.905 1.452.482.195.975.364 1.45.576.29.154.163.657-.165.665-1.335.163-2.665.388-4.001.531.22-1.197.432-2.396.649-3.594.043-.206.034-.446.186-.61.186-.112.505-.075.572.163.173.454.324.917.465 1.382zM16.162 16.384a.585.585 0 0 1 .497.115c.285.395.286.919.211 1.381-.033.24-.154.509-.4.592-.178.005-.397.05-.529-.103-.238-.265-.225-.636-.265-.966.041-.369.053-.89.485-1.018zm-.169 1.061c.038.244.033.523.207.716h.183c.243-.269.223-.655.197-.992-.044-.184-.068-.414-.268-.493-.298.128-.29.496-.319.769zM14.444 16.411h1.033v.318h-.358v1.709h-.318v-1.709h-.358v-.318zM10.562 20.329c-.161-.319.091-.766.463-.742.318-.062.58.261.564.559h-.322l-.005-.103-.142-.146c-.148.003-.311.103-.293.268.203.229.552.313.678.615.208.327.01.817-.371.902-.392.109-.76-.277-.709-.662h.311a.378.378 0 0 0 .238.36c.056-.02.112-.037.169-.052.11-.107.176-.282.068-.414-.188-.224-.529-.297-.65-.584zM18.192 20.369c-.2-.338.095-.857.505-.782.299-.021.525.275.48.56-.137.002-.349.04-.334-.164a.658.658 0 0 0-.242-.087l-.144.15v.169c.317.207.776.432.718.885.053.41-.457.739-.811.53-.242-.108-.314-.37-.354-.609.154-.006.418-.05.372.189.072.068.15.127.232.181.147-.076.319-.223.238-.407-.149-.273-.514-.339-.661-.615zM4.907 19.629c.274.01.552-.021.823.015.368.099.386.563.292.861-.128.313-.518.288-.797.277v.875h-.318v-2.026zm.318.318v.517c.183.008.384.022.519-.128l-.002-.252-.137-.137h-.379zM6.298 19.629h.993v.318h-.636v.437h.397v.318h-.397v.636h.715v.318H6.297V19.63zM7.649 19.629h.817c.41.292.334.834.337 1.273.007.308-.151.681-.481.748-.224.017-.449.001-.673.006V19.63zm.358.318v1.39l.257.001a.442.442 0 0 0 .221-.437c-.026-.322.091-.7-.168-.956l-.31.002zM9.159 19.629h.993v.318h-.636v.437h.397v.318h-.397v.636h.715v.318H9.158V19.63zM11.702 19.629h1.073v.278h-.358v1.748h-.318v-1.748h-.397v-.278zM13.013 19.629c.265.005.53-.01.795.006.453.101.498.849.087 1.034.086.331.201.653.281.985l-.329.004c-.111-.313-.184-.639-.284-.957l-.231.002v.953h-.318V19.63zm.318.318v.437c.159.002.323.014.476-.041.023-.083.039-.168.049-.254a6.603 6.603 0 0 1-.147-.142h-.378zM14.483 19.629h.318v2.026h-.318v-2.026zM15.527 19.629h.337c.149.679.334 1.35.497 2.026-.105 0-.211.007-.315-.003-.116-.158-.068-.39-.184-.548-.125-.011-.25-.004-.374-.004a4.438 4.438 0 0 1-.137.557c-.107-.001-.215-.001-.322-.003.149-.679.334-1.349.498-2.025zm.116.809c-.012.115-.035.229-.055.343l.213.001a2.325 2.325 0 0 1-.096-.412l-.062.068zM16.589 19.63l.313-.001c.197.356.336.74.519 1.103.007-.368.001-.735.003-1.103h.318v2.026l-.266.001c-.165-.43-.385-.836-.567-1.258-.003.419 0 .839-.001 1.258h-.318V19.63z"/>
    <path fill="#fff" d="M4.32.135a.68.68 0 0 1 .149-.016C9.543.121 14.617.118 19.691.121c.643.069 1.2.626 1.268 1.268.003 7.034-.001 14.067.002 21.101.049.751-.612 1.432-1.351 1.471H4.469c-.729-.038-1.357-.698-1.351-1.43.002-7.007 0-14.014.001-21.021C3.135.843 3.666.248 4.32.136zm.04.278c-.314.044-.581.246-.762.499-.194.306-.21.683-.201 1.035v20.225c-.009.364.019.761.249 1.061.225.284.582.451.943.449h14.663c.312.008.654-.004.915-.197.325-.199.513-.579.516-.956-.002-6.927-.001-13.854-.001-20.782.019-.308-.033-.637-.225-.887-.23-.333-.653-.489-1.047-.465-4.967.002-9.935.001-14.902.001a.755.755 0 0 0-.149.016z"/>
    <path fill="#fff" d="M4.442 1.088a.42.42 0 0 1 .146-.016c4.981.003 9.962 0 14.944.001a.51.51 0 0 1 .474.393c.003 7.022 0 14.044.001 21.066a.491.491 0 0 1-.475.475H4.546c-.265-.008-.474-.255-.473-.515V1.587a.526.526 0 0 1 .369-.5zm3.699.953c-.495.048-.801.648-.552 1.077 1.268 2.203 2.541 4.403 3.814 6.602.19.321.6.415.936.296.215-.096.347-.304.451-.505 1.225-2.138 2.457-4.272 3.679-6.412.261-.485-.173-1.106-.713-1.07-2.538.004-5.079-.019-7.616.012zm-3.234 8.767v2.066h.358v-.914h.477v.914h.318v-2.066h-.318v.834h-.477v-.834h-.358zm1.55 0v2.066H7.53v-.358h-.715v-.596h.397v-.318h-.397v-.477h.636v-.318h-.993zm1.351 0v2.066h.358v-.954h.228c.075.321.184.633.26.954h.355c-.107-.331-.201-.667-.296-1.002.356-.168.344-.666.114-.936-.308-.194-.677-.111-1.019-.128zm1.47 0v2.066h1.073v-.358h-.755v-.596h.437v-.318h-.437v-.477h.675v-.318h-.993zm-.979 4.577a20.951 20.951 0 0 0-.465-1.382c-.067-.238-.386-.275-.572-.163-.152.163-.143.404-.186.61-.217 1.198-.429 2.397-.649 3.594 1.336-.143 2.665-.369 4.001-.531.327-.008.455-.511.165-.665-.475-.213-.968-.381-1.45-.576 1.438-.958 3.171-1.506 4.905-1.452.98.027 1.943.267 2.861.606.002-.729-.001-1.459.001-2.188-2.992-.778-6.304.111-8.609 2.147zm7.863.999c-.432.128-.444.649-.485 1.018.04.33.027.702.265.966.132.153.351.108.529.103.246-.083.367-.352.4-.592.075-.462.074-.986-.211-1.381a.59.59 0 0 0-.497-.115zm-1.718.027v.318h.358v1.709h.318v-1.709h.358v-.318h-1.033zm-3.882 3.918c.12.287.461.36.65.584.108.133.042.308-.068.414a2.532 2.532 0 0 0-.169.052.378.378 0 0 1-.238-.36h-.311c-.051.385.317.771.709.662.381-.085.579-.574.371-.902-.126-.302-.474-.386-.678-.615-.018-.165.145-.265.293-.268.046.049.094.098.142.146l.005.103h.322c.015-.298-.246-.621-.564-.559-.372-.023-.624.424-.463.742zm7.63.04c.147.277.512.342.661.615.081.184-.091.331-.238.407a1.64 1.64 0 0 1-.232-.181c.046-.24-.218-.195-.372-.189.04.239.112.501.354.609.354.209.864-.12.811-.53.057-.453-.402-.677-.718-.885v-.169l.144-.15a.658.658 0 0 1 .242.087c-.015.203.197.166.334.164.045-.285-.181-.581-.48-.56-.409-.075-.705.445-.505.782zm-13.285-.74v2.026h.318v-.875c.279.012.67.037.797-.277.094-.298.075-.762-.292-.861-.271-.036-.549-.004-.823-.015zm1.391 0v2.026h1.073v-.318h-.715v-.636h.397v-.318h-.397v-.437h.636v-.318h-.993zm1.351 0v2.026c.224-.005.449.011.673-.006.329-.067.488-.44.481-.748-.003-.438.073-.98-.337-1.273-.272.001-.544 0-.817 0zm1.51 0v2.026h1.073v-.318h-.715v-.636h.397v-.318h-.397v-.437h.636v-.318H9.16zm2.543 0v.278h.397v1.748h.318v-1.748h.358v-.278h-1.073zm1.311 0v2.026h.318v-.953l.231-.002c.1.317.173.643.284.957l.329-.004c-.079-.332-.194-.654-.281-.985.411-.185.366-.933-.087-1.034-.264-.015-.53 0-.795-.006zm1.47 0v2.026h.318v-2.026h-.318zm1.044 0c-.164.675-.348 1.346-.498 2.025.107.002.215.002.322.003.055-.183.105-.369.137-.557.124 0 .25-.007.374.004.116.158.068.39.184.548.105.01.21.004.315.003-.163-.676-.349-1.347-.497-2.026h-.337zm1.062.001v2.026h.318c.001-.419-.002-.839.001-1.258.182.423.402.829.567 1.258l.266-.001v-2.026h-.318c-.002.368.004.735-.003 1.103-.183-.363-.322-.747-.519-1.103l-.313.001z"/>
    <path fill="#fff" d="M9.849 3.312c1.384-.033 2.773-.003 4.159-.015.246-.017.548.119.555.399-.038.24-.201.43-.315.638-.6 1.066-1.222 2.119-1.822 3.185-.116.325-.588.371-.746.057-.643-1.107-1.282-2.216-1.922-3.325-.11-.197-.284-.393-.242-.637.01-.174.178-.272.333-.301zm.779.662c.136.306.31.603.239.954h.16c-.065-.348.094-.65.237-.954l-.198-.002c-.04.088-.075.177-.11.267a1.189 1.189 0 0 1-.131-.265l-.196.001zm.717 0v.954h.158v-.954h-.158zm.317 0v.954h.517V4.73h-.318v-.237l.159-.003v-.155l-.159-.004v-.197l.278-.001v-.158h-.477zm.636 0v.954h.477V4.73h-.318v-.755h-.158zm.596 0v.957c.172-.002.421.01.49-.188.072-.251.086-.563-.1-.771-.13.002-.26.002-.391.002z"/>
    <path fill="#fff" d="M13.053 4.133l.155-.003a.95.95 0 0 1 0 .601l-.155-.003a59.004 59.004 0 0 1 0-.595zM8.166 11.125c.195-.025.498.005.496.263-.001.261-.318.218-.496.215v-.478zM15.993 17.445c.029-.273.021-.641.319-.769.201.079.225.31.268.493.025.337.046.722-.197.992H16.2c-.175-.193-.169-.472-.207-.716zM5.225 19.947h.379l.137.137.002.252c-.134.15-.336.135-.519.128v-.517zM8.007 19.947l.31-.002c.259.255.142.633.168.956a.446.446 0 0 1-.221.437l-.257-.001v-1.39zM13.331 19.947h.378c.048.048.097.095.147.142-.01.086-.026.171-.049.254-.153.054-.317.043-.476.041v-.437zM15.643 20.438l.062-.068c.019.14.052.278.096.412l-.213-.001c.019-.114.043-.228.055-.343z"/>
    <path fill="#bf2e1a" d="M8.141 2.041c2.537-.031 5.078-.008 7.616-.012.54-.036.974.585.713 1.07-1.223 2.139-2.454 4.274-3.679 6.412-.105.201-.236.409-.451.505-.337.119-.746.025-.936-.296-1.274-2.199-2.546-4.4-3.814-6.602-.249-.429.057-1.029.552-1.077zm1.708 1.271c-.155.029-.323.127-.333.301-.043.244.132.439.242.637.641 1.109 1.279 2.218 1.922 3.325.158.314.63.269.746-.057.6-1.066 1.222-2.119 1.822-3.185.113-.207.277-.398.315-.638-.007-.28-.31-.416-.555-.399-1.386.013-2.775-.018-4.159.015z"/>
    <path fill="#bf2e1a" d="M10.628 3.974l.196-.001c.033.093.074.184.131.265.035-.09.071-.179.11-.267l.198.002c-.143.303-.302.606-.237.954h-.16c.071-.351-.103-.647-.239-.954zM11.345 3.974h.158v.954h-.158v-.954zM11.662 3.974h.477v.158l-.278.001v.197l.159.004v.155l-.159.003v.237h.318v.198h-.517v-.954zM12.298 3.974h.158v.755h.318v.198h-.477v-.954zM12.894 3.974c.13 0 .26 0 .391-.002.186.207.172.52.1.771-.07.198-.319.186-.49.188v-.957zm.159.159v.595l.155.003a.95.95 0 0 0 0-.601l-.155.003z"/>
</svg>
