<svg xmlns="http://www.w3.org/2000/svg" width="24" height="24">
    <path fill="#080808" opacity=".3" d="M4.856 0H21.17l-.094.025c-.356.052-.717.022-1.075.028-4.579.006-9.158-.014-13.737 0C5.763.046 5.26.073 4.76.033L4.856 0z"/>
    <path fill="#1a1919" d="M2 .999C2.188.523 2.609.056 3.155.05 3.69.039 4.225.061 4.76.032c.5.04 1.003.013 1.504.02 4.579-.014 9.158.006 13.737 0 .358-.006.719.024 1.075-.028.407.223.801.541.925 1.008v22.034c-.111.404-.419.714-.765.933H2.769c-.347-.216-.652-.526-.767-.927V.999zM3.018.184a1.273 1.273 0 0 0-.939 1.185v21.368c.001.518.369 1.011.858 1.174.242.072.497.069.747.067 5.648-.003 11.297.003 16.946-.003.675.033 1.294-.563 1.293-1.235V1.364C21.917.696 21.301.107 20.63.139 14.999.134 9.368.139 3.737.136 3.496.134 3.254.13 3.018.182z"/>
    <path fill="#1a1919" d="M3.227.439c.238-.037.481-.022.721-.024h16.105c.296.003.598-.023.886.061.41.142.715.562.707.998-.002 7.071.001 14.141-.001 21.211-.013.472-.388.92-.86.991-.225.038-.454.023-.68.025H3.894c-.227-.002-.455.013-.679-.025-.489-.075-.873-.554-.859-1.045.002-7.052.001-14.105 0-21.157-.008-.49.38-.969.871-1.035zm.104.525c-.269.029-.464.297-.442.561.002 7.037-.002 14.074.002 21.111-.012.308.281.56.583.532h17.054c.303.028.597-.224.585-.533.003-7.036-.001-14.073.002-21.11.033-.324-.264-.601-.582-.575C15.005.946 9.477.95 3.949.948c-.206.003-.413-.014-.617.016z"/>
    <path fill="#1a1919" d="M6.859 17.334a1.211 1.211 0 0 1 1.359.711c.36.892.395 1.964-.086 2.819-.387.824-1.746.798-2.16.008-.447-.909-.482-2.043.004-2.946.153-.342.512-.572.882-.592zm.057.645c-.274.03-.425.304-.503.539-.199.651-.201 1.392.117 2.006.163.309.589.364.876.205.188-.153.291-.383.345-.613.156-.615.143-1.298-.159-1.868-.129-.235-.425-.327-.676-.269zM9.355 17.381h.633c.489.852.972 1.708 1.465 2.558.005-.853 0-1.705.003-2.558l.634.001V21.4a34.845 34.845 0 0 0-.56.001c-.518-.899-1.017-1.81-1.537-2.708-.007.902-.001 1.804-.003 2.706-.206-.017-.438.04-.628-.028-.015-1.329-.002-2.659-.006-3.989zM13.034 17.381l.634.001c0 1.142-.001 2.284.001 3.425l1.86.001c0 .197.001.395-.001.592-.832-.002-1.663.002-2.495-.002.002-1.339-.001-2.678.001-4.017zM14.994 17.381c.255 0 .509-.002.764.002.317.517.634 1.034.958 1.547.323-.517.646-1.034.972-1.549l.745.001c-.439.716-.879 1.432-1.321 2.146a.414.414 0 0 0-.075.259c0 .537.002 1.075.001 1.612-.212-.001-.424.001-.635-.002l.002-1.611a.415.415 0 0 0-.078-.264c-.446-.713-.888-1.427-1.332-2.142z"/>
    <path fill="#fffffe" d="M3.018.184c.236-.053.478-.048.719-.046C9.368.141 14.999.136 20.63.141c.672-.033 1.287.556 1.293 1.225v21.376c.001.672-.618 1.268-1.293 1.235-5.648.005-11.297 0-16.946.003-.25.002-.505.004-.747-.067-.489-.164-.857-.656-.858-1.174V1.371c.006-.54.413-1.057.939-1.185zm.209.255c-.491.065-.879.545-.871 1.035.001 7.052.002 14.105 0 21.157-.013.491.37.97.859 1.045.224.038.453.023.679.025h16.211c.226-.002.455.013.68-.025.472-.071.847-.519.86-.991.002-7.071-.001-14.141.001-21.211a1.073 1.073 0 0 0-.707-.998c-.288-.083-.591-.057-.886-.061H3.948c-.24.002-.482-.013-.721.024z"/>
    <path fill="#fffffe" d="M3.331.964c.204-.03.411-.013.617-.016C9.476.95 15.004.946 20.532.95c.318-.026.615.251.582.575-.002 7.037.001 14.074-.002 21.11.013.309-.282.562-.585.533H3.473c-.302.028-.595-.224-.583-.532-.003-7.037.001-14.074-.002-21.111-.022-.263.173-.532.442-.561zM10.2 2.72c-.214-.001-.343.184-.522.264-.427.099-.694.48-1.052.703l-.098.189c-.226.205-.442.443-.546.735-.081.224-.318.381-.279.644-.139.149-.293.313-.292.532-.099 1.431.047 2.874-.113 4.301l-.473.098c-.193.014-.308-.152-.454-.244-.247-.099-.505.013-.719.136-.159.41.226.651.296 1.017.204.105.225.343.335.52.268.339.418.755.704 1.084.164.263.373.502.478.797l.163.08c.256.623.774 1.096 1.056 1.71.24.055.585.147.637-.188l.17-.08c.091-.307.362-.515.44-.828l.179-.077c.044-.314.302-.522.4-.813l.174-.096a2.22 2.22 0 0 1 .596-.928c.136-.619.84-1.056.659-1.745-.328-.048-.66-.091-.992-.059-.335.036-.71-.017-.993.206a1.456 1.456 0 0 1-.082-.466c.008-.842-.002-1.684.006-2.526-.066-.596.358-1.106.267-1.702a5.34 5.34 0 0 0 .054-.166l.165-.076c.109-.248.363-.389.588-.516.484-.081.983-.043 1.472-.032.027.081.056.161.084.241.449.064.777.41 1.06.736.102.237.222.464.374.674.105.566.075 1.169.323 1.705.001.057.004.115.008.173-.047.952-.015 1.907.033 2.859.003.446.165.871.181 1.316.069 1.099.05 2.201.056 3.302l.125.012.177.005.12-.008c.264-.001.527.003.791.003.31.002.621.006.93-.004l.015.067.018-.072.281.017c-.001-.491.005-.982-.019-1.472.048-.44.009-.883.011-1.324.02-.36-.214-.662-.265-1.01a2.083 2.083 0 0 1-.002-.079c.064-1.049.011-2.103-.011-3.154.005-.247-.138-.455-.209-.682-.109-.486.015-.999-.115-1.482-.119-.224-.245-.447-.282-.702.022-.123.003-.244-.099-.325-.186-.151-.129-.429-.295-.592-.192-.183-.173-.521-.455-.616l-.075-.221-.202-.075-.078-.232-.207-.068a36.62 36.62 0 0 1-.097-.211l-.223-.078c-.114-.251-.407-.293-.592-.471-.095-.089-.225-.117-.346-.151a13.304 13.304 0 0 1-.1-.208 20.02 20.02 0 0 0-.247.004l-.045-.002c-.241-.143-.461-.363-.761-.357a24.161 24.161 0 0 0-2.085.009zM6.859 17.334a1.044 1.044 0 0 0-.882.592c-.486.903-.451 2.036-.004 2.946.414.791 1.773.816 2.16-.008.481-.855.446-1.927.086-2.819-.213-.527-.805-.828-1.359-.711zm2.496.047c.004 1.33-.009 2.661.006 3.989.19.068.422.012.628.028.002-.902-.004-1.804.003-2.706.521.898 1.019 1.809 1.537 2.708.187-.002.373-.002.56-.001v-4.018l-.634-.001c-.003.853.002 1.705-.003 2.558-.493-.85-.975-1.706-1.465-2.558h-.633zm3.679 0c-.002 1.339.001 2.678-.001 4.017.832.004 1.663 0 2.495.002l.001-.592-1.86-.001-.001-3.425-.634-.001zm1.96 0c.444.714.886 1.429 1.332 2.142a.41.41 0 0 1 .078.264l-.002 1.611c.212.002.423.001.635.002.001-.537-.001-1.075-.001-1.612a.412.412 0 0 1 .075-.259c.442-.714.882-1.43 1.321-2.146l-.745-.001c-.326.515-.649 1.032-.972 1.549-.324-.513-.641-1.03-.958-1.547-.255-.004-.509-.002-.764-.002z"/>
    <path fill="#fffffe" d="M6.916 17.979c.252-.058.547.034.676.269.302.57.315 1.253.159 1.868-.055.231-.157.461-.345.613-.286.158-.713.104-.876-.205-.318-.614-.316-1.355-.117-2.006.078-.235.229-.509.503-.539z"/>
    <path fill="#b3b7b6" d="M10.2 2.72a23.767 23.767 0 0 1 2.085-.009c.3-.006.52.214.761.357-.241-.005-.536.012-.641-.258a6.522 6.522 0 0 0-.522-.03c-.444-.019-.888.018-1.332.017-.379-.073-.585.369-.981.29l-.081.185c-.791.419-1.328 1.201-1.607 2.034-.194.334-.184.724-.194 1.096-.182 1.117-.117 2.26-.086 3.387.008.167-.031.341-.172.445l.002-.051c-.009-1.185-.009-2.369.001-3.554-.007-.477.309-.891.269-1.375-.038-.264.199-.42.279-.644.105-.292.32-.53.546-.735l.098-.189c.358-.223.625-.604 1.052-.703.179-.08.308-.265.522-.264z"/>
    <path fill="#596362" d="M9.571 3.087c.396.079.601-.363.981-.29-.293.325-.783.307-1.093.612-.43.408-1.104.744-1.112 1.417l-.221.094c-.034.284-.049.577-.166.843-.235.501-.172 1.07-.193 1.607-.032 1.047.058 2.102-.053 3.145-.313.045-.656.099-.938-.082-.208-.139-.459-.136-.697-.097.101.164.152.348.176.538a.89.89 0 0 1-.337-.601 9.16 9.16 0 0 1 .877-.019l.042.003c.144.097.283.231.463.251.228-.112.429-.338.398-.61-.022-1.164.01-2.329-.009-3.493.01-.372 0-.762.194-1.096.278-.834.816-1.615 1.607-2.034l.081-.185z"/>
    <path fill="#192524" d="M10.552 2.797c.444.001.887-.037 1.332-.017.2.106.391.239.614.293.488.111.875.448 1.295.699a.568.568 0 0 1-.081.139c.31.138.587.344.795.614-.313.054-.568-.127-.833-.252-.248-.108-.462.089-.616.259.215.172.524.267.612.555-.261.02-.522.033-.783.024-.404-.017-.747-.285-1.152-.284-.258-.002-.469.163-.693.268l-.198.002c-.4-.034-.661.327-.892.596-.196.376-.44.762-.437 1.202-.023 1.106.046 2.211.019 3.316 0 .226-.033.546.253.613.116.037.238.048.358.05.352.035.686-.084 1.019-.178.157-.058.379.015.38.206-.258.582-.678 1.085-.889 1.686-.437.659-.866 1.324-1.293 1.989a1.02 1.02 0 0 1-.587.104c-.052-.217-.123-.437-.275-.607-.331-.386-.515-.872-.856-1.252-.176-.169-.257-.398-.016-.551.167.222.322.453.476.684.157.245.474.322.626.573.101.118.156.311.319.355.119-.038.221-.115.325-.182l-.08-.314c.157-.218.312-.438.471-.656a25.677 25.677 0 0 1-.107-.243.517.517 0 0 0-.002-.646c.275-.083.56-.119.841-.175a.428.428 0 0 0-.06-.232c-.301-.021-.607.025-.903-.036-.207-.125-.383-.299-.608-.395-.054-.508.295-.936.299-1.428-.155-.456-.377-.894-.488-1.365-.011-.264.167-.488.213-.743.084-.335-.056-.695.088-1.018.093-.205.157-.42.224-.635.072-.231.332-.312.466-.497.064-.148.069-.315.133-.464.189-.119.43-.132.61-.272.194-.136.298-.356.393-.565-.227-.113-.437-.292-.695-.323-.245.02-.324.293-.428.473l-.385.113a.997.997 0 0 1-.399.417c-.334.183-.611.487-.715.857-.052.289.047.597-.086.874-.116-.536-.009-1.102.19-1.604.008-.673.682-1.009 1.112-1.417.309-.305.799-.287 1.093-.612z"/>
    <path fill="#616b6a" d="M11.883 2.779c.174.003.348.013.522.03.105.27.4.253.641.258l.045.002c.015.071.031.141.045.212.427.032.694.382 1.027.599.632.421 1.103 1.041 1.472 1.696.159.287.222.629.465.865-.005.163.003.326.011.488-.004.113-.014.226-.018.339-.196-.802-.506-1.598-.987-2.275-.395-.448-.801-.907-1.314-1.224-.421-.251-.807-.588-1.295-.699-.224-.053-.414-.186-.614-.293z"/>
    <path fill="#aeb3b1" d="M13.092 3.069l.247-.004.1.208c.122.034.252.062.346.151.185.178.478.219.592.471l.223.078.097.211.207.068.078.232.202.075.075.221c.282.095.263.433.455.616.165.163.108.441.295.592.102.081.122.202.099.325l-.007.13c-.244-.236-.306-.578-.465-.865-.368-.655-.839-1.276-1.472-1.696-.334-.218-.601-.568-1.027-.599l-.045-.212z"/>
    <path fill="#232e35" d="M9.742 4.168c.104-.181.183-.453.428-.473.258.032.468.21.695.323-.095.209-.199.429-.393.565-.18.139-.421.152-.61.272-.063.149-.069.315-.133.464-.134.185-.394.266-.466.497-.067.215-.132.429-.224.635-.145.323-.005.684-.088 1.018-.045.255-.224.478-.213.743.111.472.333.909.488 1.365-.005.493-.354.921-.299 1.428.225.096.402.271.608.395.296.061.603.015.903.036a.426.426 0 0 1 .06.232c-.281.056-.566.092-.841.175a.52.52 0 0 1 .002.646l.107.243c-.158.218-.313.438-.471.656l.08.314c-.105.066-.206.143-.325.182-.163-.044-.218-.236-.319-.355-.152-.251-.468-.328-.626-.573a14.133 14.133 0 0 0-.476-.684c-.241.152-.16.382.016.551.341.379.525.865.856 1.252.152.17.223.389.275.607.203.024.405-.011.587-.104-.095.146-.192.291-.288.435-.561-.337-.707-1.024-1.138-1.481-.572-.879-1.214-1.717-1.681-2.659a1.35 1.35 0 0 0-.176-.538c.237-.039.489-.043.697.097.282.182.625.127.938.082.111-1.043.021-2.097.053-3.145.021-.537-.042-1.106.193-1.607.117-.266.132-.558.166-.843l.221-.094c-.199.502-.306 1.068-.19 1.604.133-.277.034-.585.086-.874.105-.37.381-.674.715-.857a.997.997 0 0 0 .399-.417l.385-.113z"/>
    <path fill="#1e2734" d="M13.793 3.771c.513.317.918.775 1.314 1.224.481.677.791 1.473.987 2.275l.001.043c-.041.697.156 1.376.265 2.059-.021.521.024 1.04.023 1.561-.046.829.021 1.659.027 2.489.002.248.053.492.113.732.121.488.093.994.105 1.492-.095-.331-.205-.658-.296-.991-.275.165-.447.44-.651.678-.127-.065-.255-.13-.381-.196-.232.157-.272.429-.246.689.214.053.428.107.643.159l.061.224c-.263 0-.527-.004-.791-.003l-.013-.238c.033-1.037-.02-2.073-.017-3.109.058-.865-.027-1.731-.024-2.596.016-.395-.176-.755-.202-1.145-.036-.461-.041-.923-.052-1.384-.001-.393-.216-.736-.288-1.114-.031-.183-.166-.316-.295-.436a.65.65 0 0 0-.297-.432c-.302-.207-.561-.476-.891-.641.261.009.523-.004.783-.024-.088-.288-.397-.384-.612-.555.154-.169.367-.367.616-.259.265.125.52.306.833.252a2.057 2.057 0 0 0-.795-.614.568.568 0 0 0 .081-.139z"/>
    <path fill="#5c6860" d="M11.043 5.095c.224-.105.434-.269.693-.268.405-.002.748.266 1.152.284.33.164.589.434.891.641a.652.652 0 0 1 .297.432l-.041.187c-.273-.565-.85-.89-1.362-1.208-.531-.132-1.088-.038-1.629-.067z"/>
    <path fill="#656b69" d="M9.954 5.693c.231-.269.492-.63.892-.596-.324.222-.672.448-.824.828-.295.462-.244 1.027-.252 1.549.008 1.102-.006 2.203.017 3.305l.003.046c-.285-.067-.253-.387-.253-.613.027-1.106-.042-2.211-.019-3.316-.003-.44.241-.826.437-1.202z"/>
    <path fill="#a4aaa9" d="M10.845 5.096l.198-.002c.542.029 1.099-.064 1.629.067.512.318 1.089.643 1.362 1.208.077.187.189.362.236.561-.001.135-.012.27-.018.405-.185-.514-.345-1.073-.778-1.442-.331-.258-.638-.579-1.049-.704-.489-.011-.988-.048-1.472.032-.225.127-.478.268-.588.516l-.165.076a4.594 4.594 0 0 1-.054.166c-.143.364-.365.716-.323 1.126.032 1.224-.073 2.457.058 3.675l-.096-.004c-.023-1.102-.009-2.203-.017-3.305.008-.523-.043-1.087.252-1.549.153-.38.501-.606.824-.828z"/>
    <path fill="#dadddb" d="M12.425 5.192c.412.124.719.445 1.049.704.433.369.593.927.778 1.442.007.111.015.222.021.334.009.292-.008.584-.007.876-.248-.536-.218-1.138-.323-1.705a3.438 3.438 0 0 1-.374-.674c-.283-.326-.611-.672-1.06-.736l-.084-.241z"/>
    <path fill="#e2e4e3" d="M7.41 5.787c-.001-.219.153-.382.292-.532.041.484-.276.897-.269 1.375-.01 1.185-.01 2.369-.001 3.554-.203.007-.406.015-.608.002l.473-.098c.161-1.427.014-2.87.113-4.301z"/>
    <path fill="#c6c9c6" d="M9.824 7.108c-.042-.41.179-.762.323-1.126.091.596-.333 1.106-.267 1.702-.008.842.002 1.684-.006 2.526-.004.159.034.315.082.466.283-.223.657-.171.993-.206.332-.032.664.011.992.059.181.689-.523 1.126-.659 1.745a2.21 2.21 0 0 0-.596.928l-.174.096c-.098.291-.356.499-.4.813l-.179.077c-.078.313-.349.521-.44.828a8.843 8.843 0 0 0-.17.08c-.052.335-.397.243-.637.188-.282-.614-.8-1.087-1.056-1.71l-.163-.08c-.105-.295-.314-.535-.478-.797-.285-.328-.435-.745-.704-1.084-.111-.177-.131-.415-.335-.52-.071-.366-.456-.607-.296-1.017.214-.123.472-.235.719-.136.146.093.262.258.454.244.203.013.406.006.608-.002l-.002.051c-.196.035-.396.024-.594.02l-.042-.003c-.282-.016-.572-.129-.851-.046-.122.115-.067.309-.014.446.634 1.163 1.378 2.258 2.131 3.346.353.408.495.992 1.008 1.248.198-.234.384-.481.52-.757.244-.226.349-.552.555-.807.274-.324.409-.737.685-1.061.168-.291.423-.546.49-.884l.004-.018c.262-.172.337-.494.489-.75.123-.177-.026-.432-.231-.447-.229-.023-.459-.001-.688.001-.375-.041-.622.375-1.012.261-.131-1.218-.027-2.451-.058-3.675z"/>
    <path fill="#3f4a4b" d="M14.075 6.183c.129.121.265.253.295.436.072.378.287.722.288 1.114.011.462.015.924.052 1.384.026.389.218.75.202 1.145-.003.865.082 1.731.024 2.596-.025-.443-.022-.89-.103-1.327-.21-1.006-.139-2.039-.215-3.058.023-.699-.297-1.341-.371-2.028l-.212-.074.041-.187z"/>
    <path fill="#c5c9ca" d="M16.108 6.312c.037.255.163.478.282.702.13.483.005.995.115 1.482.071.227.214.435.209.682.022 1.051.074 2.105.011 3.154-.053-.818.008-1.646-.134-2.456-.154-.582-.167-1.187-.211-1.784-.003-.076-.004-.153-.006-.229a1.242 1.242 0 0 0-.261-.932c-.008-.163-.016-.326-.011-.488l.007-.13z"/>
    <path fill="#626b6c" d="M14.035 6.371l.212.074c.074.687.394 1.328.371 2.028.076 1.019.005 2.053.215 3.058.081.437.077.884.103 1.327-.003 1.036.05 2.073.017 3.109-.106-1.228.014-2.476-.225-3.694-.155-1.279-.049-2.578-.198-3.858-.113-.49-.22-.981-.259-1.484-.047-.199-.159-.374-.236-.561z"/>
    <path fill="#8f9696" d="M7.603 9.79c-.031-1.127-.096-2.27.086-3.387.019 1.164-.013 2.329.009 3.493.031.272-.17.498-.398.61-.18-.021-.319-.154-.463-.251.197.004.398.015.594-.02.141-.104.18-.278.172-.445z"/>
    <path fill="#8e9493" d="M14.271 6.932c.039.503.146.994.259 1.484.149 1.28.043 2.579.198 3.858.239 1.218.119 2.466.225 3.694l.013.238-.12.008c-.05-.527-.009-1.056-.056-1.583-.191-1.589-.177-3.192-.239-4.789.029-.739-.272-1.435-.277-2.172a18.133 18.133 0 0 0-.021-.334c.006-.135.017-.27.018-.405z"/>
    <path fill="#8f9496" d="M16.112 6.93c.208.267.305.593.261.932-.092-.184-.199-.359-.278-.549l-.001-.043c.004-.113.014-.226.018-.339z"/>
    <path fill="#565d63" d="M16.095 7.313c.079.189.186.365.278.549l.006.229c-.001.427.003.854-.02 1.281-.109-.683-.306-1.362-.265-2.059z"/>
    <path fill="#b8bdbb" d="M14.274 7.671c.005.737.306 1.433.277 2.172.063 1.597.049 3.2.239 4.789.047.526.006 1.056.056 1.583l-.177-.005c-.048-1.737-.078-3.475-.155-5.211-.072-.761-.199-1.515-.239-2.279a2.003 2.003 0 0 1-.008-.173c-.001-.292.017-.584.007-.876z"/>
    <path fill="#929896" d="M16.379 8.091c.044.597.057 1.202.211 1.784.142.811.081 1.638.134 2.456l.002.079c.002.604-.003 1.211.046 1.813a.99.99 0 0 0 .208.521c.024.49.018.981.019 1.472l-.281-.017c.081-.342.017-.695.015-1.042-.025-1.141-.062-2.282-.097-3.423a4.452 4.452 0 0 0-.102-.679c-.116-.555-.077-1.127-.176-1.685.023-.427.019-.854.02-1.281z"/>
    <path fill="#dee1df" d="M14.275 8.719c.04.764.167 1.518.239 2.279.077 1.736.107 3.474.155 5.211a55.003 55.003 0 0 1-.125-.012c-.006-1.101.014-2.203-.056-3.302-.016-.445-.177-.87-.181-1.316-.047-.952-.08-1.908-.033-2.859z"/>
    <path fill="#656c6e" d="M16.359 9.372c.099.557.06 1.129.176 1.685.046.224.092.449.102.679.036 1.141.072 2.282.097 3.423.002.346.066.699-.015 1.042l-.018.072c.018-.951-.059-1.9-.073-2.851.039-.842-.271-1.646-.246-2.489.001-.521-.044-1.04-.023-1.561z"/>
    <path fill="#778079" d="M5.945 10.206c.279-.083.569.031.851.046a9.16 9.16 0 0 0-.877.019.895.895 0 0 0 .337.601c.467.942 1.108 1.78 1.681 2.659.431.457.577 1.144 1.138 1.481.097-.144.194-.289.288-.435.427-.665.856-1.33 1.293-1.989.242-.268.406-.596.663-.852-.067.337-.322.593-.49.884-.276.324-.411.737-.685 1.061-.206.256-.311.581-.555.807a3.768 3.768 0 0 1-.52.757c-.514-.256-.656-.84-1.008-1.248-.753-1.088-1.497-2.183-2.131-3.346-.053-.136-.108-.331.014-.446z"/>
    <path fill="#909690" d="M9.882 10.783c.391.114.637-.302 1.012-.261.229-.002.459-.023.688-.001.205.016.354.271.231.447-.153.256-.227.578-.489.75.006-.204.162-.342.248-.512.071-.207.031-.43.022-.644-.266-.008-.557-.068-.8.074a1.753 1.753 0 0 1-.648.237 1.234 1.234 0 0 1-.358-.05l-.003-.046.096.004z"/>
    <path fill="#475247" d="M10.795 10.637c.243-.142.534-.082.8-.074.009.214.049.437-.022.644-.087.17-.243.307-.248.512l-.004.018c-.257.255-.421.584-.663.852.211-.601.631-1.105.889-1.686-.001-.191-.223-.264-.38-.206-.333.094-.667.213-1.019.178.232-.028.447-.123.648-.237z"/>
    <path fill="#3f474b" d="M16.383 10.932c-.025.843.285 1.647.246 2.489.014.951.091 1.899.073 2.851l-.015-.067c-.043-.184-.051-.373-.059-.561-.012-.498.016-1.004-.105-1.492a3.083 3.083 0 0 1-.113-.732c-.007-.829-.073-1.659-.027-2.489z"/>
    <path fill="#cbcecc" d="M16.726 12.41c.052.348.285.65.265 1.01-.001.442.037.884-.011 1.324a.973.973 0 0 1-.208-.521c-.049-.603-.045-1.209-.046-1.813z"/>
    <path fill="#192820" d="M15.681 15.332c.203-.238.375-.514.651-.678.092.332.202.659.296.991.008.188.016.377.059.561-.309.01-.62.006-.93.004a18.62 18.62 0 0 1-.061-.224l-.643-.159c-.026-.261.014-.532.246-.689.126.066.254.131.381.196z"/>
</svg>
