<svg xmlns="http://www.w3.org/2000/svg" width="24" height="24">
    <path fill="#fff" d="M11.094 0h1.838c1.768.161 3.512.67 5.048 1.569a12.068 12.068 0 0 1 5.378 6.477c.349.983.543 2.013.642 3.05v1.835c-.161 1.757-.664 3.491-1.553 5.02-1.535 2.714-4.168 4.784-7.172 5.621-.761.224-1.548.338-2.335.428h-1.871c-1.723-.156-3.419-.648-4.929-1.499-2.632-1.467-4.68-3.953-5.593-6.828-.292-.885-.448-1.807-.547-2.731v-1.875c.094-.89.241-1.778.513-2.633.84-2.733 2.7-5.131 5.128-6.638C7.276.761 9.17.164 11.094.001zm.272.596c-2.155.11-4.272.862-6.022 2.123A11.446 11.446 0 0 0 .762 9.94c-.593 3.166.237 6.566 2.239 9.091a11.442 11.442 0 0 0 7.403 4.281c3.22.47 6.617-.526 9.065-2.673 2.293-1.965 3.75-4.876 3.928-7.893.127-1.87-.219-3.77-.999-5.474a11.462 11.462 0 0 0-6.131-5.869 11.378 11.378 0 0 0-4.902-.807z"/>
    <path fill="#fff" d="M7.03 2.387a10.832 10.832 0 0 1 7.286-.959c1.32.285 2.582.826 3.703 1.578-.84.852-1.692 1.692-2.535 2.541-.045.04-.086.095-.15.105-1.245.299-2.355 1.311-2.581 2.602-.928.97-1.892 1.916-2.85 2.86-.316-.023-.632-.015-.948-.01-.009.317-.005.634.003.952-.888.917-1.799 1.82-2.711 2.715-.171-.011-.341-.012-.511-.027 1.422-3.027 2.861-6.046 4.275-9.077-.696-.007-1.392-.005-2.087-.001-1.391 2.946-2.756 5.903-4.141 8.851-.057.122-.128.247-.122.387.003.544-.004 1.088.004 1.632.273.007.547-.005.819.009-.491.493-.981.987-1.477 1.475C1.248 15.427.719 12.052 1.59 9.043c.792-2.843 2.815-5.31 5.44-6.655zM16.363 5.517c.72-.715 1.434-1.437 2.156-2.151l.234.173c-.659.679-1.334 1.345-2.007 2.011l-.383-.033zM17.458 5.692c.591-.581 1.171-1.174 1.762-1.755.073.066.144.134.216.203-.563.562-1.121 1.131-1.692 1.686-.095-.046-.19-.09-.285-.134zM18.315 6.111c.516-.515 1.029-1.032 1.547-1.545.069.07.136.143.201.218-.498.503-1 1.003-1.501 1.503l-.247-.175zM20.451 5.247c.065.075.126.155.184.235-.471.477-.946.949-1.42 1.422l-.199-.217c.475-.483.959-.958 1.435-1.44zM19.543 7.433c.48-.488.963-.972 1.451-1.451 1.655 2.444 2.227 5.582 1.549 8.454a10.816 10.816 0 0 1-12.98 8.106 10.722 10.722 0 0 1-3.58-1.549c.984-.994 1.976-1.981 2.967-2.969 0 .132.001.264.005.396.626.004 1.252.005 1.878 0 .01-.626-.003-1.252.006-1.877.338-.013.675.002 1.013-.007.006-.468.008-.936-.003-1.403.259-.279.535-.542.805-.811-.017.773.014 1.58.37 2.285.377.778 1.1 1.345 1.89 1.665 1.398.558 3.096.177 4.124-.922.624-.645.883-1.562.885-2.443.002-1.89 0-3.78.001-5.671 0-.617-.1-1.246-.381-1.801zM15.662 7.501c.159-.043.323-.061.487-.081-.516.529-1.041 1.049-1.565 1.568a1.594 1.594 0 0 1 .06-.455c.315-.364.673-.696 1.019-1.032zM14.52 9.923c.787-.823 1.603-1.624 2.415-2.422.087.05.174.1.261.152-.882.883-1.766 1.763-2.646 2.647-.01-.126-.022-.251-.03-.377zM14.521 11.191c1.035-1.063 2.094-2.103 3.143-3.153l.16.255c-1.089 1.095-2.182 2.185-3.275 3.277a15.705 15.705 0 0 0-.028-.379z"/>
    <path fill="#fff" d="M14.525 12.457c1.152-1.177 2.326-2.333 3.491-3.499.056 1.762.009 3.528.024 5.292.008.562.022 1.171-.301 1.66-.607.961-2.218.987-2.865.057-.227-.32-.318-.717-.332-1.104-.018-.802.015-1.604-.018-2.405zM10.815 11.063c.611-.606 1.218-1.216 1.826-1.825.009.127.019.254.024.381-.587.629-1.218 1.221-1.819 1.838a10.499 10.499 0 0 0-.031-.395zM10.832 12.325c.599-.609 1.208-1.208 1.81-1.815.009.126.019.251.025.377-.581.634-1.22 1.227-1.822 1.845-.007-.136-.01-.272-.013-.407zM12.645 11.78c.008.135.012.27.015.405-.6.609-1.21 1.209-1.812 1.817a11.85 11.85 0 0 0-.033-.379c.596-.628 1.222-1.227 1.83-1.844zM7.135 14.745c.603-.6 1.204-1.201 1.804-1.804.009.127.019.254.023.381-.465.499-.957.98-1.449 1.453a9.667 9.667 0 0 0-.379-.03zM12.645 13.054c.007.134.012.267.016.4-.433.439-.868.877-1.309 1.308l-.403-.013 1.696-1.696zM8.407 14.744c.179-.176.356-.354.533-.533.01.126.017.251.022.377l.001.031a4.46 4.46 0 0 1-.178.158c-.126-.014-.252-.024-.378-.034zM3.366 18.518c.657-.664 1.319-1.322 1.98-1.982.133 0 .265.004.397.016-.733.735-1.458 1.48-2.207 2.197a6.601 6.601 0 0 0-.171-.232zM3.938 19.218c.89-.896 1.785-1.787 2.678-2.68.135-.001.27.004.405.019-.961.958-1.919 1.92-2.88 2.878a5.894 5.894 0 0 1-.202-.217zM7.887 16.538a2.63 2.63 0 0 1 .406.02c-1.172 1.166-2.337 2.34-3.51 3.505a6.91 6.91 0 0 1-.217-.202c1.105-1.11 2.214-2.215 3.321-3.322zM8.944 16.759c.006.133.01.265.014.398a949.845 949.845 0 0 1-3.476 3.478 6.626 6.626 0 0 0-.232-.172c1.216-1.248 2.46-2.471 3.693-3.704z"/>
    <path d="M11.366.596c1.666-.097 3.354.18 4.902.807a11.466 11.466 0 0 1 6.131 5.869 11.366 11.366 0 0 1 .999 5.474c-.179 3.017-1.635 5.928-3.928 7.893-2.448 2.146-5.845 3.143-9.065 2.673a11.442 11.442 0 0 1-7.403-4.281C1 16.506.17 13.106.763 9.94a11.446 11.446 0 0 1 4.582-7.221A11.359 11.359 0 0 1 11.367.596zM7.03 2.387C4.405 3.732 2.382 6.199 1.59 9.042c-.871 3.008-.341 6.383 1.417 8.977.496-.488.986-.982 1.477-1.475.589-.591 1.188-1.171 1.764-1.774.912-.895 1.823-1.798 2.711-2.715.329-.299.64-.618.945-.941.958-.944 1.922-1.89 2.85-2.86.751-.7 1.457-1.449 2.19-2.169.129-.145.301-.257.39-.433.064-.01.104-.066.15-.105.843-.849 1.695-1.689 2.535-2.541a10.762 10.762 0 0 0-3.703-1.578 10.831 10.831 0 0 0-7.286.959zm9.333 3.13c-1.239 1.242-2.48 2.482-3.721 3.721-.608.609-1.215 1.219-1.826 1.825-.623.628-1.25 1.253-1.876 1.878-.6.602-1.201 1.204-1.804 1.804-.594.599-1.194 1.192-1.788 1.792-.661.66-1.324 1.319-1.98 1.982.058.076.115.153.171.232.75-.717 1.475-1.462 2.207-2.197l.011.001c.577-.601 1.186-1.172 1.758-1.778a38.18 38.18 0 0 0 1.449-1.453c.645-.603 1.252-1.247 1.884-1.864.601-.617 1.232-1.209 1.819-1.838 1.376-1.339 2.723-2.71 4.08-4.069.673-.666 1.348-1.332 2.007-2.011l-.234-.173c-.722.714-1.435 1.436-2.156 2.151zm1.095.175c-.593.608-1.209 1.195-1.795 1.809-.346.336-.704.668-1.019 1.032-.69.632-1.33 1.323-2.002 1.976-.601.607-1.211 1.206-1.81 1.815-.635.624-1.26 1.26-1.892 1.887-.177.179-.354.357-.533.533-.595.6-1.195 1.195-1.791 1.793-.892.893-1.788 1.784-2.678 2.68.065.074.133.146.202.217.962-.957 1.919-1.92 2.88-2.878.585-.595 1.19-1.173 1.765-1.779.06-.051.12-.104.178-.158l-.001-.031c.651-.592 1.251-1.243 1.883-1.857.602-.619 1.241-1.212 1.822-1.845.661-.606 1.27-1.268 1.917-1.89v-.009c.525-.519 1.05-1.039 1.565-1.568.535-.524 1.069-1.058 1.594-1.595.571-.555 1.129-1.124 1.692-1.686a8.238 8.238 0 0 0-.216-.203c-.591.582-1.171 1.174-1.762 1.755zm.857.419c-.458.465-.931.915-1.379 1.39-.813.799-1.628 1.6-2.415 2.422-.643.6-1.248 1.241-1.876 1.857-.607.617-1.234 1.216-1.83 1.844-.989.958-1.95 1.945-2.928 2.915-1.107 1.108-2.216 2.213-3.321 3.323.071.069.143.136.217.202 1.173-1.165 2.338-2.339 3.51-3.505.851-.853 1.702-1.706 2.556-2.556.601-.608 1.211-1.208 1.812-1.817.634-.625 1.259-1.26 1.891-1.886.88-.885 1.764-1.765 2.646-2.647.455-.456.912-.909 1.365-1.366.502-.5 1.004-.999 1.501-1.503a4.15 4.15 0 0 0-.201-.218c-.518.513-1.032 1.03-1.547 1.545zm2.136-.864c-.476.482-.96.957-1.435 1.44-.454.447-.904.898-1.352 1.351-1.049 1.05-2.108 2.09-3.143 3.153-.638.608-1.249 1.244-1.876 1.863l-1.696 1.696c-.669.666-1.332 1.338-2.005 2v.009c-1.233 1.233-2.477 2.456-3.693 3.704.078.055.155.112.232.172a949.845 949.845 0 0 0 3.476-3.478 300.32 300.32 0 0 0 2.394-2.395c.442-.431.877-.869 1.309-1.308.635-.62 1.252-1.258 1.888-1.877v-.007a1264.8 1264.8 0 0 0 3.275-3.277c.466-.46.929-.924 1.391-1.389.474-.473.95-.945 1.42-1.422a3.226 3.226 0 0 0-.184-.235zm-.908 2.186c-.514.504-1.02 1.014-1.527 1.525-1.164 1.166-2.339 2.322-3.491 3.499-.634.61-1.249 1.241-1.871 1.864-.27.269-.546.532-.805.811-.975.954-1.934 1.927-2.899 2.892-.991.988-1.982 1.975-2.967 2.969a10.701 10.701 0 0 0 3.58 1.549 10.82 10.82 0 0 0 7.86-1.177c2.564-1.473 4.471-4.042 5.12-6.929.677-2.872.105-6.01-1.549-8.454-.488.48-.972.963-1.451 1.451z"/>
    <path fill="gray" d="M12.642 9.238c1.241-1.239 2.482-2.48 3.721-3.721l.383.033c-1.357 1.359-2.705 2.73-4.08 4.069-.005-.127-.015-.254-.024-.381zM7.924 5.665c.696-.004 1.392-.006 2.087.001-1.414 3.03-2.852 6.05-4.275 9.077.17.015.341.016.511.027-.576.603-1.176 1.184-1.764 1.774-.273-.014-.546-.002-.819-.009-.008-.544-.001-1.088-.004-1.632-.006-.14.065-.264.122-.387 1.385-2.948 2.75-5.906 4.141-8.851zM12.754 8.254c.226-1.29 1.335-2.303 2.581-2.602-.09.176-.262.288-.39.433-.733.72-1.44 1.469-2.19 2.169zM15.662 7.501c.586-.615 1.202-1.201 1.795-1.809.095.044.191.088.285.134-.525.537-1.059 1.071-1.594 1.595-.163.02-.327.038-.487.081zM16.936 7.5c.448-.474.921-.925 1.379-1.39l.247.175c-.453.457-.91.911-1.365 1.366a11.12 11.12 0 0 0-.261-.152zM17.664 8.038c.448-.453.898-.904 1.352-1.351l.199.217c-.462.465-.924.929-1.391 1.389l-.16-.255zM18.015 8.958c.507-.51 1.013-1.021 1.527-1.525.281.555.382 1.184.381 1.801 0 1.89.001 3.781-.001 5.671-.003.881-.262 1.798-.885 2.443-1.028 1.099-2.726 1.48-4.124.922-.79-.32-1.513-.887-1.89-1.665-.356-.705-.387-1.512-.37-2.285.622-.623 1.237-1.253 1.871-1.864.033.801 0 1.604.018 2.405.014.387.105.784.332 1.104.647.93 2.257.905 2.865-.057.323-.489.308-1.098.301-1.66-.015-1.763.032-3.529-.024-5.292zM12.642 10.509c.672-.653 1.312-1.344 2.002-1.976a1.594 1.594 0 0 0-.06.455v.009c-.647.621-1.256 1.284-1.917 1.89a11.729 11.729 0 0 0-.025-.377zM12.645 11.78c.628-.616 1.233-1.257 1.876-1.857.008.126.02.251.03.377-.632.626-1.257 1.26-1.891 1.886-.003-.135-.008-.27-.015-.405zM8.939 12.941c.626-.625 1.253-1.25 1.876-1.878.013.131.022.262.031.395-.632.617-1.239 1.261-1.884 1.864-.004-.127-.014-.254-.023-.381zM8.956 11.104c.316-.005.632-.013.948.01-.305.323-.617.642-.945.941a17.774 17.774 0 0 1-.003-.952zM12.645 13.054c.627-.619 1.238-1.255 1.876-1.863.011.126.02.252.028.379v.007c-.636.619-1.253 1.257-1.888 1.877-.005-.134-.009-.267-.016-.4zM8.94 14.212c.632-.627 1.257-1.262 1.892-1.887.003.135.006.271.013.407-.632.614-1.232 1.265-1.883 1.857a9.415 9.415 0 0 0-.022-.377zM7.887 16.538c.978-.97 1.939-1.957 2.928-2.915.014.126.024.252.033.379-.854.85-1.705 1.703-2.556 2.556a2.754 2.754 0 0 0-.406-.02zM5.347 16.536c.594-.599 1.194-1.192 1.788-1.792.126.009.253.018.379.03-.572.607-1.181 1.178-1.758 1.778l-.011-.001a4.398 4.398 0 0 0-.398-.016zM6.615 16.538c.596-.599 1.196-1.193 1.791-1.793.126.009.252.02.378.034-.575.606-1.179 1.184-1.765 1.779a3.23 3.23 0 0 0-.405-.019zM8.944 16.75c.673-.662 1.336-1.334 2.005-2l.403.013c-.793.803-1.592 1.6-2.394 2.395a26.45 26.45 0 0 0-.014-.398v-.009zM8.95 18.024c.965-.965 1.924-1.937 2.899-2.892.012.467.009.936.003 1.403-.338.009-.676-.007-1.013.007-.009.625.004 1.251-.006 1.877-.626.005-1.252.004-1.878 0-.003-.132-.004-.264-.005-.396z"/>
</svg>
