<svg xmlns="http://www.w3.org/2000/svg" width="24" height="24">
    <path fill="#fff" d="M.913 0h22.172c.447.1.814.467.915.915v22.167a1.23 1.23 0 0 1-.915.918H.916a1.233 1.233 0 0 1-.917-.912V.915C.1.468.465.103.912 0zm.653.587C1.008.647.56 1.171.576 1.73v20.54c-.021.62.534 1.176 1.155 1.155h20.54c.621.021 1.175-.534 1.155-1.155V1.73c.021-.621-.534-1.176-1.155-1.155H2.111c-.181.002-.363-.009-.544.012z"/>
    <path fill="#fff" d="M10.478 4.005c.514-.678 1.703-.592 2.082.185-.167.098-.335.196-.504.291-.201-.404-.788-.525-1.099-.181-.375.476-.378 1.236 0 1.71.331.393 1.109.193 1.073-.368-.18-.001-.361 0-.541-.003l-.001-.525c.372 0 .743.003 1.116-.002-.002.413.037.869-.228 1.22-.473.644-1.582.549-1.993-.118-.406-.662-.386-1.589.095-2.208zM4.662 3.614c.181.001.362.001.543 0 .439.683.891 1.359 1.318 2.05-.006-.683.002-1.367-.004-2.051.186.003.372.003.558 0-.005 1.035-.002 2.071-.001 3.106h-.503c-.452-.701-.925-1.389-1.358-2.102.016.7.004 1.401.007 2.101h-.558c-.002-1.035 0-2.07-.001-3.104zM8.351 3.615h.572c-.002 1.035 0 2.069-.001 3.104-.19.001-.38.002-.57-.002-.002-1.034-.001-2.068 0-3.102zM13.74 3.612c.188.004.375.003.563 0 .002.413 0 .827.001 1.24h1.305c.014-.412.03-.828-.01-1.239h.566v3.102c-.183.004-.366.002-.548.003.009-.44 0-.879.006-1.319-.439-.03-.879-.007-1.318-.013-.002.443.001.887-.001 1.331h-.561c0-1.035.004-2.071-.002-3.106zM17.215 3.598c.767-.002 1.534-.001 2.301 0v.542l-.865.001v2.577c-.188.002-.375.001-.563 0l-.001-2.577c-.291-.001-.581.001-.871-.001a32.64 32.64 0 0 1 0-.542zM5.112 9.755c1.341-.646 3.112-.539 4.233.495.848.764 1.141 2.052.74 3.116-.202.556-.619 1.018-1.127 1.314.746.309 1.375.939 1.585 1.731.245.984.037 2.101-.615 2.89-.541.652-1.357 1.021-2.181 1.152-1.03.162-2.141.052-3.049-.491-.755-.443-1.316-1.17-1.634-1.979.577-.232 1.154-.462 1.732-.692.222.476.561.917 1.031 1.167.677.351 1.54.351 2.211-.015.843-.462.915-1.792.196-2.396-.641-.529-1.522-.376-2.29-.401v-1.805c.379-.009.759.008 1.138-.009.471-.029.948-.29 1.141-.735.257-.594.101-1.417-.5-1.742-.524-.269-1.183-.258-1.709.001-.382.193-.655.54-.855.909-.577-.224-1.154-.445-1.73-.669.324-.784.917-1.465 1.683-1.841zM13.879 9.563h6.148v1.818l-4.4.001c-.055.745-.108 1.491-.161 2.236 1.414-.749 3.404-.551 4.451.729.939 1.179 1.024 2.934.322 4.249-.401.74-1.089 1.303-1.87 1.605-.887.35-1.868.381-2.803.251-.838-.122-1.673-.414-2.326-.966.353-.496.71-.99 1.069-1.482.975.695 2.331.96 3.445.457 1.15-.516 1.418-2.297.467-3.119-.848-.617-2.14-.393-2.812.39-.619-.262-1.24-.52-1.858-.785.113-1.794.21-3.59.329-5.384z"/>
    <path d="M1.566.587c.18-.022.363-.01.544-.012h20.16c.621-.022 1.175.534 1.155 1.155v20.54c.021.62-.534 1.175-1.155 1.155H1.73c-.621.021-1.176-.534-1.155-1.155V1.73c-.016-.559.433-1.083.99-1.143zm8.912 3.418c-.481.62-.501 1.546-.095 2.208.411.667 1.521.762 1.993.118.264-.351.225-.806.228-1.22-.372.005-.744.002-1.116.002l.001.525c.18.003.36.002.541.003.035.562-.742.762-1.073.368-.378-.474-.375-1.234 0-1.71.311-.345.898-.223 1.099.181.169-.094.337-.193.504-.291-.38-.777-1.568-.863-2.082-.185zm-5.816-.391c.001 1.035-.001 2.07.001 3.104.186.002.372.001.558 0-.003-.7.009-1.401-.007-2.101.433.713.906 1.401 1.357 2.102h.503c0-1.035-.004-2.071.001-3.106-.186.004-.372.003-.558 0 .006.683-.001 1.367.004 2.051-.427-.691-.878-1.366-1.318-2.05-.181.001-.362.001-.543 0zm3.689.001v3.102c.19.004.38.003.57.002.002-1.035 0-2.069.001-3.104H8.35zm5.389-.003c.006 1.035.002 2.071.002 3.106h.561c.002-.443 0-.887.001-1.331.439.006.879-.016 1.318.013-.006.44.004.879-.006 1.319.183-.001.366 0 .548-.003.002-1.034.001-2.068 0-3.102h-.566c.039.411.024.827.01 1.239h-1.305c-.002-.413.001-.827-.001-1.24a17.61 17.61 0 0 1-.563 0zm3.475-.014c-.002.181-.002.361 0 .542.29.003.581 0 .871.001l.001 2.577h.563V4.141l.865-.001a48.96 48.96 0 0 0 0-.542c-.767-.001-1.534-.002-2.301 0zM5.112 9.755c-.766.376-1.359 1.057-1.683 1.841.576.224 1.154.446 1.73.669.2-.369.473-.717.855-.909a1.94 1.94 0 0 1 1.709-.001c.601.325.757 1.148.5 1.742-.193.445-.67.707-1.141.735-.379.017-.759 0-1.138.009-.002.601-.001 1.203 0 1.805.768.025 1.649-.128 2.29.401.718.604.646 1.934-.196 2.396a2.41 2.41 0 0 1-2.211.015c-.471-.25-.809-.691-1.031-1.167l-1.732.692c.317.809.879 1.536 1.634 1.979.908.543 2.019.653 3.049.491.825-.131 1.64-.5 2.181-1.152.653-.788.86-1.905.615-2.89-.21-.792-.839-1.422-1.585-1.731a2.558 2.558 0 0 0 1.127-1.314c.401-1.064.108-2.352-.74-3.116-1.121-1.034-2.893-1.141-4.233-.495zm8.767-.192c-.119 1.794-.216 3.59-.329 5.384.617.265 1.238.523 1.858.785.672-.783 1.964-1.007 2.812-.39.951.822.683 2.602-.467 3.119-1.115.504-2.47.239-3.445-.457-.359.492-.716.986-1.069 1.482.653.552 1.489.844 2.326.966.935.13 1.916.099 2.803-.251.781-.301 1.469-.864 1.87-1.605.702-1.315.617-3.069-.322-4.249-1.047-1.28-3.037-1.477-4.451-.729.053-.746.106-1.491.161-2.236l4.4-.001V9.563h-6.148z"/>
</svg>
