<svg xmlns="http://www.w3.org/2000/svg" width="24" height="24">
    <path d="M2.004 0h19.987c.521.15.854.687.833 1.216-.001 7.205.001 14.41-.001 21.615.006.514-.328 1.019-.828 1.168H2.01c-.503-.145-.839-.653-.833-1.168V1.167c-.007-.514.327-1.02.827-1.169zm.751 1.957c-.46.393-.484 1.193-.022 1.593.459.41 1.119.437 1.622.769.316.191.268.72-.072.859-.511.241-1.131-.063-1.335-.57-.239.088-.479.174-.716.266.327 1.18 2.049 1.515 2.847.63.4-.478.375-1.291-.118-1.698-.375-.317-.862-.439-1.313-.607-.158-.064-.33-.136-.422-.287-.105-.175-.006-.42.177-.499.384-.164.913-.042 1.087.367.231-.076.462-.151.692-.231-.256-1.026-1.699-1.223-2.428-.592zm3.644-.31c-.004 1.419-.003 2.838-.001 4.258.258.003.516.001.773.001V4.313c.431-.011.864.023 1.294-.023.49-.06.937-.408 1.075-.887.239-.682-.141-1.554-.885-1.696-.743-.125-1.506-.033-2.257-.059zm4.074.005c-.006 1.417-.002 2.835-.001 4.252.974.003 1.948.002 2.922 0 0-.246.003-.491-.003-.737-.715-.007-1.43 0-2.144-.003V4.077l1.24-.001c0-.245.003-.49-.002-.735-.413-.006-.825 0-1.238-.003V2.39c.672-.002 1.343.001 2.015-.001 0-.245.003-.491-.002-.736-.929-.006-1.858-.004-2.786-.001zm3.922.002c-.007 1.417-.001 2.835-.003 4.252h2.92c.002-.246.004-.493-.001-.739-.713-.002-1.427.001-2.141-.001V4.079l1.236-.001c0-.246.002-.491-.001-.737-.412-.003-.823 0-1.234-.002v-.948c.671-.003 1.342.003 2.013-.003.004-.245.004-.491 0-.736-.929-.003-1.859-.005-2.788.001zm3.915-.003a603.22 603.22 0 0 0 0 4.254c.806-.041 1.684.146 2.422-.27.732-.411 1.018-1.321.935-2.117-.049-.683-.418-1.378-1.064-1.665-.72-.322-1.53-.166-2.293-.202zM4.233 6.567c-.002 1.416-.001 2.832 0 4.247.938.002 1.875.001 2.813.001v-.743c-.679-.002-1.358 0-2.037-.001-.002-1.168.001-2.336-.002-3.504a49.795 49.795 0 0 0-.773 0zm3.691-.007v4.255c.257.002.515.001.772 0V6.56a99.33 99.33 0 0 0-.772 0zm2.032 0v4.254c.257.002.515.001.773 0-.003-.852.01-1.703-.008-2.555.385.891.781 1.776 1.176 2.663.389-.891.809-1.77 1.17-2.672-.016.855-.005 1.71-.007 2.565h.77V6.56h-.744c-.395.906-.811 1.802-1.184 2.717-.372-.914-.785-1.811-1.177-2.717h-.77zm5.137 0v4.256h.77V6.561a98.817 98.817 0 0 0-.77 0zm1.763-.003V7.3h1.192c.002 1.172-.001 2.343.001 3.515h.772c.001-1.171-.001-2.343.001-3.514.398-.002.795 0 1.193-.001v-.743a1662.16 1662.16 0 0 0-3.158 0zM5.112 13.069c-.198 1.66-.39 3.32-.58 4.981.412.146.824.292 1.237.431.728-.776 1.984-1.034 2.947-.572 1.153.596 1.313 2.344.44 3.247-.593.653-1.542.831-2.384.703-.688-.073-1.316-.412-1.824-.87-.254.328-.51.652-.76.983.803.791 1.979 1.084 3.078 1.092 1.075.044 2.194-.345 2.92-1.159 1.127-1.219 1.151-3.313-.01-4.518-1.103-1.153-3.059-1.205-4.321-.287l.367-2.846c1.392-.002 2.783.001 4.175-.001 0-.394.002-.789 0-1.183H5.113zm8.714 0c-.196 1.66-.389 3.32-.58 4.98.412.146.825.293 1.24.432.727-.777 1.987-1.034 2.948-.57 1.149.598 1.308 2.34.438 3.243-.574.633-1.488.825-2.309.715-.715-.06-1.376-.402-1.901-.88-.253.327-.51.652-.759.982.804.793 1.981 1.086 3.082 1.094 1.064.042 2.17-.338 2.896-1.136 1.145-1.216 1.178-3.326.011-4.538-1.102-1.155-3.058-1.207-4.322-.291.124-.949.239-1.9.371-2.848 1.39.005 2.781.002 4.17.002 0-.394.002-.788-.001-1.183-1.762-.002-3.523-.001-5.284 0z"/>
    <path d="M7.172 2.391c.413.013.831-.03 1.24.025.531.12.524.998 0 1.126-.409.056-.828.011-1.24.024V2.39zM19.082 2.391c.415.024.874-.084 1.248.15.411.265.555.79.547 1.254.002.461-.162.976-.578 1.223-.367.223-.811.125-1.216.146V2.389z"/>
    <path fill="#fff" d="M2.755 1.957c.729-.631 2.172-.434 2.428.592-.23.079-.461.155-.692.231-.175-.409-.704-.53-1.087-.367-.182.078-.282.324-.177.499.093.15.264.223.422.287.45.168.938.29 1.313.607.493.406.518 1.22.118 1.698-.797.885-2.52.551-2.847-.63.237-.092.477-.179.716-.266.204.507.824.812 1.335.57.339-.138.388-.668.072-.859-.503-.332-1.163-.36-1.622-.769-.462-.4-.439-1.2.022-1.593zM6.399 1.647c.751.026 1.513-.067 2.257.059.744.142 1.124 1.015.885 1.696-.139.479-.585.828-1.075.887-.429.046-.863.012-1.294.023v1.593c-.258 0-.516.002-.773-.001-.002-1.419-.003-2.838.001-4.258zm.773.744v1.176c.413-.014.832.031 1.24-.024.524-.128.531-1.006 0-1.126-.41-.055-.827-.012-1.24-.025zM10.473 1.652c.929-.003 1.857-.005 2.786.001.005.246.002.491.002.736-.672.002-1.343 0-2.015.001v.948c.413.003.825-.003 1.238.003.005.245.002.49.002.735l-1.24.001v1.087c.714.003 1.429-.004 2.144.003.006.246.002.491.003.737-.974.001-1.948.002-2.922 0-.001-1.418-.004-2.835.001-4.253zM14.395 1.654c.93-.007 1.859-.004 2.788-.001.004.245.004.491 0 .736-.671.006-1.343 0-2.013.003v.948c.411.002.823-.001 1.234.002.003.246.001.491.001.737l-1.236.001v1.087c.713.002 1.427-.001 2.141.001.005.246.003.493.001.739-.974.002-1.947.001-2.92 0 .001-1.417-.004-2.835.003-4.252zM18.31 1.651c.763.036 1.573-.12 2.293.202.645.287 1.015.982 1.064 1.665.083.796-.203 1.707-.935 2.117-.739.416-1.616.229-2.422.27a670.243 670.243 0 0 1 0-4.254zm.772.74v2.775c.405-.021.849.076 1.216-.146.417-.247.581-.762.578-1.223.008-.464-.136-.99-.547-1.254-.374-.234-.833-.127-1.248-.15zM4.233 6.567c.258-.002.516-.002.773 0 .003 1.168 0 2.336.002 3.504.679.001 1.358-.001 2.037.001v.743c-.938 0-1.875.001-2.813-.001-.001-1.416-.002-2.832 0-4.247zM7.924 6.56h.772v4.255h-.772V6.56zM9.956 6.56h.77c.392.906.805 1.803 1.177 2.717.373-.915.789-1.812 1.184-2.717h.744v4.255h-.77c.002-.855-.009-1.71.007-2.565-.361.902-.781 1.781-1.17 2.672-.394-.887-.79-1.772-1.176-2.663.017.852.005 1.703.008 2.555h-.773c-.002-1.418-.002-2.836 0-4.254zM15.093 6.56h.77v4.255h-.77V6.559zM16.856 6.557h3.158V7.3c-.398.001-.795-.001-1.193.001-.002 1.171 0 2.343-.001 3.514h-.772c-.002-1.172.001-2.343-.001-3.515h-1.192a92.009 92.009 0 0 1 0-.743zM5.112 13.069h5.284c.002.394.001.789 0 1.183-1.392.002-2.783 0-4.175.001l-.367 2.846c1.262-.918 3.218-.865 4.321.287 1.161 1.205 1.137 3.299.01 4.518-.726.814-1.845 1.202-2.92 1.159-1.099-.008-2.274-.301-3.078-1.092.249-.33.506-.655.76-.983.508.458 1.136.798 1.824.87.842.128 1.791-.05 2.384-.703.874-.903.713-2.651-.44-3.247-.963-.462-2.22-.204-2.947.572-.414-.14-.826-.285-1.237-.431.191-1.661.382-3.321.58-4.981zM13.826 13.069h5.284c.003.394.001.788.001 1.183-1.39 0-2.78.003-4.17-.002-.132.948-.247 1.899-.371 2.848 1.264-.916 3.22-.864 4.322.291 1.167 1.212 1.133 3.322-.011 4.538-.726.798-1.832 1.178-2.896 1.136-1.101-.008-2.278-.301-3.082-1.094.25-.33.506-.654.759-.982.525.478 1.186.819 1.901.88.821.111 1.735-.082 2.309-.715.87-.902.712-2.645-.438-3.243-.962-.464-2.221-.207-2.948.57a67.289 67.289 0 0 1-1.24-.432c.191-1.66.384-3.32.58-4.98z"/>
</svg>
