<svg xmlns="http://www.w3.org/2000/svg" width="24" height="24">
    <path fill="#fff" d="M5.665 0h.151c-.044.078-.103.091-.175.04L5.665 0zM4.761.761c.36-.398.898-.576 1.423-.594 3.964.002 7.93-.002 11.894.002.898.023 1.713.704 1.903 1.581v20.67a2.024 2.024 0 0 1-1.704 1.579H5.862c-.511-.121-1.036-.361-1.317-.828-.315-.4-.349-.926-.378-1.414V2.408c.015-.592.139-1.23.594-1.649zm1.223-.18c-.391.058-.791.21-1.046.527-.344.359-.393.886-.378 1.359.002 6.355.001 12.71.001 19.065-.011.375.006.755.118 1.116.186.514.692.885 1.226.958 4.095.002 8.19-.001 12.285.001.772-.013 1.46-.74 1.402-1.515-.004-6.711-.001-13.422-.002-20.134-.016-.537-.371-1.063-.88-1.25-.325-.125-.681-.156-1.027-.151C13.784.574 9.882.53 5.985.579z"/>
    <path fill="#fff" d="M9.215 1.065c2.992.001 5.983-.001 8.975.001.561.026.956.585.951 1.119l-.001 6.563H9.215V1.066zm3.477.673v2.748h.449V3.252h.673v1.234h.393V1.738h-.393v1.121h-.673V1.738h-.449zm2.074 0v2.748h.393V3.197l.326-.002c.123.43.255.857.362 1.291.15-.001.301-.001.451-.003-.099-.444-.241-.877-.366-1.314.432-.207.45-.83.214-1.19-.361-.377-.92-.204-1.379-.241zM9.664 5.383v2.748h.393V6.958a.69.69 0 0 0 .767-.414c.062-.383.054-.827-.271-1.097a3.436 3.436 0 0 0-.888-.064zm1.694 0c-.204.913-.353 1.839-.576 2.748h.438c.025-.247.098-.486.144-.729l.371-.001c.061.215.091.437.137.654.086.146.3.048.441.077-.193-.916-.362-1.839-.579-2.75l-.376.001zm1.109.001v2.747h.393c.006-.426-.015-.853.013-1.279.257.365.246.86.384 1.28l.401-.004c-.056-.458-.218-.898-.245-1.36.368-.327.338-1.027-.063-1.321a3.312 3.312 0 0 0-.883-.064zm1.402-.001v2.748h.393c.03-.403-.077-.829.083-1.211.174.386.196.827.38 1.204.131.013.262.007.393.007-.119-.606-.308-1.196-.47-1.79.165-.315.324-.633.477-.954l-.465-.006c-.137.255-.257.518-.397.772-.004-.257-.001-.513-.001-.77h-.393zm1.458 0v2.748h.393V5.383h-.393zm.785.001v2.747h.393c.003-.463-.007-.926.004-1.39.169.458.322.922.463 1.39h.373V5.383h-.393c-.003.407.006.813-.003 1.22-.164-.401-.299-.813-.444-1.221l-.394.003zm1.724.153c-.182.305-.228.674-.211 1.024.003.507-.053 1.063.243 1.508.276.148.675.177.861-.124.162-.357.035-.777.075-1.16h-.561l-.001.389.169.007c-.022.208.098.525-.184.585l-.143-.162c-.076-.604-.155-1.261.101-1.832l.16.003c.03.057.061.113.09.17l.379-.002c.098-.544-.658-.757-.979-.406zM5.389 3.699c.024-.76.614-1.518 1.414-1.515.518-.064 1.087.146 1.362.606.442.615.372 1.604-.279 2.05-.355.299-.813.491-1.069.894-.242.332-.43.707-.528 1.107H8.43v.785c-1.013-.001-2.027.001-3.039-.001.058-1.146.451-2.38 1.436-3.059.273-.228.642-.375.801-.713.136-.454-.307-.948-.772-.881-.335.067-.661.362-.625.73-.28 0-.561.001-.842-.002z"/>
    <path fill="#fff" d="M15.159 2.186c.22.012.491-.057.659.127a.48.48 0 0 1 0 .365c-.169.183-.439.115-.659.127v-.619zM10.056 5.833l.28-.004c.121.176.124.388.115.594l-.14.138h-.255v-.728zM12.86 5.833l.333-.003c.061.183.066.376.065.567-.131.045-.262.088-.395.13-.004-.231-.003-.462-.003-.693zM11.538 6.519c.051.159.088.323.102.49l-.19-.001c.034-.163.062-.326.087-.49zM5.065 9.084H19.14c0 4.318-.001 8.637.001 12.956.012.51-.372 1.016-.893 1.063H5.961c-.53-.03-.909-.553-.896-1.063l.001-12.956zm2.994 1.98c-.201.322-.192.772-.025 1.105-.225.383-.224.876-.034 1.271.226.393.89.295 1.001-.141.089-.385.089-.821-.113-1.174l.094-.089c.09-.404.071-.896-.294-1.162-.219-.001-.497-.03-.629.188zm1.785.047c-.019.11-.044.22-.071.329h.426c.034-.066.068-.132.104-.198.293.04.188.356.202.565l-.136.137-.201.002v.391l.257-.001.126.133c.011.124.024.249.044.373a4.92 4.92 0 0 0-.044.32l-.168.16a4.859 4.859 0 0 1-.197-.257l-.426.002c.058.147.09.311.195.435.237.293.773.246.943-.097.148-.352.121-.741.044-1.106l-.145-.141a1.32 1.32 0 0 0 .026-1.093c-.237-.299-.755-.247-.98.048zm1.874-.231a8.434 8.434 0 0 1-.191.139c-.319.495-.225 1.099-.239 1.655-.007.278.052.567.213.797.214.304.744.269.911-.066.206-.439.167-.934.169-1.405a1.857 1.857 0 0 0-.19-.936c-.143-.232-.441-.187-.673-.184zm1.996.054c-.149.902-.345 1.796-.533 2.689l.401.004c.073-.241.121-.488.18-.732l.374.001c.042.244.098.485.14.729h.441c-.228-.889-.37-1.798-.579-2.692h-.424zm1.277.001v2.691h.393c.003-.463-.007-.926.004-1.389.114.281.193.576.303.859.128-.297.191-.615.302-.917.019.482.002.965.008 1.447h.393v-2.692h-.43c-.081.292-.191.575-.269.868a7.04 7.04 0 0 0-.312-.87l-.391.002zm-5.582.56l-.138.138-.001.171.142.149c.217.043.359-.099.316-.316l-.149-.142-.171.001zm0 1.066l-.138.138v.171l.141.149c.217.043.359-.099.316-.316l-.149-.142-.171.001zm-1.467 2.653c-.412.163-.472.662-.467 1.048.024.547-.103 1.175.27 1.636.244.196.667.136.832-.14.194-.311.195-.694.19-1.047-.006-.426.045-.892-.19-1.272a.549.549 0 0 0-.635-.225zm3.385.541l.378.002c.068-.064.134-.13.209-.187.222.167.196.485.049.693l-.224-.002v.367c.488.038.481.664.279.983a8.01 8.01 0 0 0-.155-.002 8.361 8.361 0 0 1-.158-.226l-.371.001c-.074.562.727.859 1.058.431.198-.421.215-.973-.034-1.377.139-.32.175-.716.011-1.031-.298-.431-1.069-.19-1.041.348zm1.942-.541c-.238.079-.324.345-.385.563-.109.615-.139 1.264.05 1.866.126.427.823.515 1.012.099.215-.345.135-.76.147-1.144-.011-.387.06-.804-.131-1.16-.142-.236-.444-.295-.693-.224zm-7.082.038v.392l.28.001v2.299h.393v-2.299h.393v-.393H6.188zm3.433 0c-.095.445-.067.9-.069 1.351.22.006.436-.036.653-.062.195.302.032.707-.107 1.01-.135.062-.278.034-.413-.006l-.214.313c.264.214.675.196.933-.019.23-.266.264-.63.307-.963.029-.449-.292-.879-.777-.793.007-.149.027-.298.07-.441.205.002.409.002.614.002v-.393h-.996zm5.371.001v2.691h.393c0-.369.001-.737-.001-1.106.263-.05.612-.068.716-.368.163-.4.113-1.009-.339-1.199-.253-.043-.513-.01-.768-.018zm1.514 0v2.691h.393c.003-.426-.007-.852.004-1.277.103.248.173.508.265.76.146-.253.175-.551.284-.819.019.445.003.89.008 1.335h.393v-2.691l-.379-.001c-.102.275-.184.556-.285.832-.132-.265-.199-.556-.304-.832l-.379.001zm-5.545.609c-.027.108-.056.215-.081.324l.243.141.234-.135c.062-.274-.158-.376-.396-.33zm-.001 1.064a.464.464 0 0 0-.006.384l.173.077.229-.13c.062-.275-.158-.376-.396-.331zm-2.205 2.518c-.618.464-1.293.849-1.905 1.322.652.426 1.284.883 1.929 1.319.104.082.295.114.376-.012.033-.265-.076-.519-.158-.765l6.16.001c-.091.244-.211.498-.159.765.08.127.27.093.373.012.645-.437 1.277-.894 1.93-1.319-.601-.466-1.265-.841-1.871-1.299-.117-.087-.327-.211-.432-.045-.052.263.081.509.125.763-2.043.006-4.086.001-6.129.003.09-.244.211-.498.159-.765-.091-.153-.288-.058-.398.023z"/>
    <path fill="#fff" d="M8.316 11.398l.206-.158c.095.217.08.455.077.686l-.115.095-.166-.155-.002-.468zM11.85 11.268l.172-.001c.228.622.248 1.353-.002 1.969l-.169-.001c-.232-.394-.16-.86-.169-1.294a1.397 1.397 0 0 1 .169-.675zM13.819 12.506c.049-.163.091-.328.141-.491.022.163.05.326.085.487l-.225.003zM8.433 13.29c-.244-.234-.272-.79.092-.902.198.228.147.56.074.828l-.166.074zM7.935 15.777c.063-.064.126-.129.187-.194l.131.139c.089.616.264 1.336-.108 1.887l-.163-.075c-.172-.568-.141-1.178-.048-1.757zM13.442 15.596c.209.012.246.368.26.552-.043.486.125 1.041-.186 1.466-.376-.132-.219-.648-.316-.957.048-.349-.03-.795.242-1.06zM15.385 15.627c.112.023.223.049.335.074.053.173.061.354.059.534a9.307 9.307 0 0 0-.142.139c-.085 0-.17-.001-.255 0 0-.249-.001-.497.002-.746zM4 22.261l.044.124L4 22.363v-.103z"/>
    <path fill="#231f20" d="M5.816 0h12.585l.122.045c.601.164 1.095.574 1.459 1.069v.636C19.791.872 18.977.192 18.079.169 14.115.166 10.149.17 6.185.167 5.66.185 5.122.363 4.762.761c-.455.418-.579 1.057-.594 1.649v19.349c.029.488.063 1.014.378 1.414.281.467.806.707 1.317.828h-.635a2.241 2.241 0 0 1-1.184-1.615L4 22.262V1.917c.077-.045.09-.105.038-.178A2.35 2.35 0 0 1 5.641.042c.072.052.131.038.175-.04zM18.278 24a2.025 2.025 0 0 0 1.704-1.579v.588c-.25.401-.592.742-.994.991h-.71z"/>
    <path fill="#ebebeb" opacity=".92" d="M18.401 0h.101l.021.045A6.008 6.008 0 0 0 18.401 0z"/>
    <path fill="#036f51" d="M5.984.581C9.881.532 13.783.576 17.682.559c.346-.006.701.026 1.027.151.51.187.865.713.88 1.25.001 6.712-.003 13.423.002 20.134.058.774-.63 1.502-1.402 1.515-4.095-.002-8.19.001-12.285-.001-.534-.073-1.04-.444-1.226-.958-.112-.361-.129-.741-.118-1.116.001-6.356.002-12.71-.001-19.065-.015-.473.034-1 .378-1.359.255-.316.655-.468 1.046-.527zm3.231.484v7.682h9.925c0-2.187-.001-4.376.001-6.563.004-.533-.39-1.093-.951-1.119-2.992-.002-5.983 0-8.975-.001zM5.389 3.699c.281.003.561.002.842.002-.036-.368.29-.662.625-.73.464-.066.907.428.772.881-.159.338-.529.484-.801.713-.985.679-1.378 1.913-1.436 3.059 1.013.002 2.026.001 3.039.001V6.84H6.289c.098-.4.286-.775.528-1.107.256-.403.714-.595 1.069-.894.651-.446.721-1.436.279-2.05-.275-.46-.844-.67-1.362-.606-.8-.003-1.39.755-1.414 1.515zm-.324 5.385c0 4.318.001 8.637-.001 12.956-.013.51.365 1.033.896 1.063h12.287c.521-.047.905-.553.893-1.063l-.001-12.956H5.064z"/>
    <path fill="#036f51" d="M12.692 1.738h.449v1.121h.673V1.738h.393v2.748h-.393V3.252h-.673v1.234h-.449V1.738zM14.766 1.738c.459.038 1.019-.136 1.379.241.236.359.218.982-.214 1.19.126.437.267.87.366 1.314-.15.003-.301.003-.451.003-.107-.434-.239-.861-.362-1.291l-.326.002v1.289h-.393V1.738zm.393.448v.619c.22-.012.49.057.659-.127a.48.48 0 0 0 0-.365c-.168-.184-.439-.116-.659-.127zM9.664 5.383c.298-.01.597-.003.888.064.325.27.333.714.271 1.097a.689.689 0 0 1-.767.414v1.173h-.393V5.383zm.392.45v.728h.255l.14-.138c.01-.206.006-.418-.115-.594l-.28.004zM11.358 5.383l.376-.001c.218.911.386 1.834.579 2.75-.141-.029-.355.07-.441-.077-.047-.218-.076-.44-.137-.654l-.371.001c-.046.243-.119.482-.144.729h-.438c.224-.909.373-1.834.576-2.748zm.18 1.136c-.026.164-.054.327-.087.49l.19.001a2.213 2.213 0 0 0-.102-.49zM12.467 5.384c.296-.01.593-.005.883.064.401.294.432.994.063 1.321.027.462.19.902.245 1.36l-.401.004c-.139-.42-.127-.915-.384-1.28-.028.426-.007.852-.013 1.279h-.393V5.385zm.393.449c0 .231-.001.462.003.693.132-.041.264-.085.395-.13a1.749 1.749 0 0 0-.065-.567l-.333.003zM13.869 5.383h.393c.001.257-.003.513.001.77.14-.253.26-.517.397-.772.155.001.31.002.465.006-.154.321-.312.639-.477.954.162.595.352 1.185.47 1.79-.131 0-.262.006-.393-.007-.184-.377-.206-.819-.38-1.204-.16.382-.053.809-.083 1.211h-.393V5.383zM15.327 5.383h.393v2.748h-.393V5.383zM16.112 5.384l.394-.003c.145.408.28.82.444 1.221.008-.407 0-.813.003-1.22h.393V8.13h-.373a24.598 24.598 0 0 0-.463-1.39c-.012.463-.001.926-.004 1.39h-.393V5.383zM17.836 5.537c.321-.351 1.077-.139.979.406l-.379.002-.09-.17-.16-.003c-.256.571-.178 1.227-.101 1.832l.143.162c.282-.059.161-.377.184-.585l-.169-.007.001-.389h.561c-.039.382.087.802-.075 1.16-.186.302-.584.273-.861.124-.297-.445-.24-1.001-.243-1.508-.016-.35.03-.719.211-1.024zM8.059 11.064c.132-.219.41-.19.629-.188.364.266.384.758.294 1.162a3.951 3.951 0 0 0-.094.089c.202.353.202.788.113 1.174-.111.436-.775.534-1.001.141-.19-.395-.192-.888.034-1.271-.167-.334-.177-.783.025-1.105zm.257.334l.002.468.166.155.115-.095c.003-.23.019-.469-.077-.686l-.206.158zm.117 1.892l.166-.074c.073-.268.124-.6-.074-.828-.364.112-.336.668-.092.902zM9.844 11.111c.224-.294.743-.347.98-.048a1.32 1.32 0 0 1-.026 1.093l.145.141c.077.366.104.754-.044 1.106-.17.343-.706.39-.943.097-.105-.123-.137-.288-.195-.435l.426-.002c.062.088.129.173.197.257l.168-.16c.012-.107.026-.214.044-.32a5.194 5.194 0 0 1-.044-.373l-.126-.133-.257.001v-.391l.201-.002.136-.137c-.014-.209.091-.525-.202-.565l-.104.198h-.426c.027-.109.052-.218.071-.329zM11.718 10.88c.232-.003.53-.048.673.184.146.288.205.615.19.936-.002.471.037.966-.169 1.405-.167.335-.696.37-.911.066-.161-.23-.22-.52-.213-.797.014-.556-.08-1.161.239-1.655.064-.045.128-.091.191-.139zm.132.388a1.397 1.397 0 0 0-.169.675c.01.434-.062.9.169 1.294l.169.001c.25-.616.23-1.347.002-1.969l-.172.001zM13.714 10.934h.424c.21.894.352 1.803.579 2.692h-.441c-.042-.244-.098-.485-.14-.729l-.374-.001c-.059.244-.107.491-.18.732a53.609 53.609 0 0 1-.401-.004c.188-.894.385-1.788.533-2.689zm.105 1.572l.225-.003a7.289 7.289 0 0 1-.085-.487c-.05.163-.091.327-.141.491zM14.991 10.935l.391-.002c.12.284.23.572.312.87.079-.293.188-.576.269-.868h.43v2.692H16c-.006-.482.011-.965-.008-1.447-.11.303-.173.621-.302.917-.11-.283-.189-.578-.303-.859-.012.463-.001.926-.004 1.389h-.393v-2.691zM9.409 11.495l.171-.001.149.142c.043.217-.099.359-.316.316l-.142-.149.001-.171.138-.138zM9.409 12.561l.171-.001.149.142c.043.217-.099.359-.316.316l-.141-.149v-.171l.138-.138zM7.942 15.214a.548.548 0 0 1 .635.225c.236.38.184.846.19 1.272.004.354.004.737-.19 1.047-.165.276-.588.336-.832.14-.373-.461-.247-1.089-.27-1.636-.005-.386.056-.885.467-1.048zm-.007.563c-.093.579-.124 1.189.048 1.757l.163.075c.371-.552.197-1.271.108-1.887l-.131-.139-.187.194zM11.327 15.755c-.028-.538.743-.779 1.041-.348.164.315.128.711-.011 1.031.249.404.232.957.034 1.377-.331.428-1.132.131-1.058-.431l.371-.001c.05.076.104.151.158.226l.155.002c.202-.319.209-.945-.279-.983v-.367l.224.002c.147-.208.173-.526-.049-.693-.075.057-.141.122-.209.187l-.378-.002zM13.269 15.214c.25-.071.551-.012.693.224.191.356.119.773.131 1.16-.012.384.068.799-.147 1.144-.189.416-.885.327-1.012-.099-.19-.602-.159-1.251-.05-1.866.062-.218.147-.484.385-.563zm.173.382c-.273.265-.194.712-.242 1.06.097.309-.059.825.316.957.311-.425.144-.98.186-1.466-.015-.184-.052-.539-.26-.552zM6.187 15.252h1.065v.393h-.393v2.299h-.393v-2.299l-.28-.001v-.392zM9.62 15.252h.996v.393c-.205 0-.409 0-.614-.002a1.887 1.887 0 0 0-.07.441c.485-.086.806.344.777.793-.043.334-.076.698-.307.963-.258.215-.669.232-.933.019.072-.104.144-.208.214-.313.136.04.278.067.413.006.139-.303.302-.709.107-1.01-.217.026-.433.068-.653.062.002-.451-.026-.907.069-1.351zM14.991 15.253c.256.008.515-.025.768.018.452.19.502.799.339 1.199-.103.299-.453.317-.716.368l.001 1.106h-.393v-2.691zm.394.374c-.003.249-.002.497-.002.746.085-.001.169 0 .255 0l.142-.139a1.75 1.75 0 0 0-.059-.534c-.112-.025-.224-.051-.335-.074zM16.505 15.253l.379-.001c.105.276.172.566.304.832.1-.275.183-.557.285-.832l.379.001v2.691h-.393c-.005-.445.011-.89-.008-1.335-.109.268-.138.565-.284.819-.093-.252-.162-.513-.265-.76-.011.425-.001.851-.004 1.277h-.393v-2.691z"/>
    <path fill="#036f51" d="M10.96 15.862c.238-.046.458.056.396.33a17.81 17.81 0 0 0-.234.135l-.243-.141c.026-.109.054-.216.081-.324zM10.959 16.926c.238-.044.459.057.396.331l-.229.13-.173-.077a.468.468 0 0 1 .006-.384zM8.754 19.444c.11-.081.307-.176.398-.023.053.267-.068.521-.159.765 2.043-.002 4.086.003 6.129-.003-.044-.253-.177-.5-.125-.763.105-.166.315-.041.432.045.606.458 1.271.833 1.871 1.299-.652.426-1.284.883-1.93 1.319-.103.081-.294.116-.373-.012-.052-.267.068-.521.159-.765-2.053 0-4.106.001-6.16-.001.082.246.191.501.158.765-.081.127-.272.094-.376.012-.645-.437-1.277-.894-1.929-1.319.612-.473 1.287-.857 1.905-1.322z"/>
    <path fill="#f8f8f8" opacity=".97" d="M4 1.762l.038-.025c.052.073.039.133-.038.178v-.154z"/>
</svg>
