<svg xmlns="http://www.w3.org/2000/svg" width="24" height="24">
    <path fill="#fff" d="M3.126 0h17.745c.489.153.757.684.747 1.172v21.656c.009.487-.259 1.017-.746 1.172H3.131c-.49-.152-.758-.684-.749-1.172V1.173C2.372.685 2.64.157 3.126.001zm.503.592c-.47.097-.751.593-.764 1.045-.002 6.892 0 13.785-.001 20.678-.001.403.195.828.56 1.023.2.109.435.087.654.088l16.128-.001c.549.006.92-.555.928-1.061.003-6.892 0-13.785.001-20.678 0-.403-.195-.829-.561-1.023-.215-.117-.466-.084-.7-.088H3.841a1.17 1.17 0 0 0-.213.017z"/>
    <path fill="#fff" d="M4.049 1.195a.967.967 0 0 1 .215-.02h15.189c.233.003.486-.03.696.097.355.203.517.629.513 1.022-.001 6.486.001 12.973-.001 19.459.006.495-.332 1.065-.875 1.07H4.216c-.544-.004-.882-.575-.876-1.07V2.246c.001-.444.25-.94.71-1.051zm1.185 1.836c-.306.306-.289.879.057 1.148.342.283.821.299 1.174.557.225.161.14.551-.121.622-.371.142-.783-.083-.931-.436-.172.066-.345.127-.517.195.223.798 1.305 1.075 1.938.591.407-.306.456-.979.088-1.334-.33-.321-.814-.363-1.2-.584-.162-.087-.177-.336-.022-.438a.609.609 0 0 1 .847.238c.165-.058.331-.113.498-.168-.194-.766-1.297-.912-1.81-.391zm2.699-.256c-.007 1.041.001 2.083-.005 3.124.187-.003.374-.002.561-.001.005-.391 0-.781.003-1.172.443-.028.93.089 1.33-.157.507-.302.593-1.082.196-1.507-.213-.221-.533-.29-.83-.29-.419.001-.837-.004-1.255.003zm2.959.003c-.008 1.04-.001 2.079-.004 3.119.71-.002 1.42.002 2.13-.002.003-.18.004-.36-.001-.54-.521-.007-1.043 0-1.564-.004v-.786c.301 0 .603.001.904-.001.005-.178.004-.355.003-.532-.303-.002-.606 0-.908-.001v-.712c.49-.002.979.002 1.469-.002.003-.18.004-.36 0-.54-.677-.004-1.353-.005-2.03.001zm2.853 0c-.007 1.04.002 2.08-.004 3.12.71-.006 1.42.003 2.13-.005.006-.18.005-.36.001-.539-.522-.006-1.045 0-1.567-.003v-.787h.904c.009-.178.008-.355.006-.533-.304-.002-.607 0-.911-.001v-.712c.49-.003.981.005 1.47-.004.004-.179.004-.359 0-.538-.677-.003-1.353-.005-2.03.001zm2.842-.003c-.002 1.041-.004 2.082.001 3.122.655-.032 1.415.136 1.956-.336.648-.603.658-1.773.048-2.406-.536-.516-1.333-.356-2.005-.381zM6.353 7.419c-.006 1.038-.002 2.076-.002 3.114.682.002 1.364.001 2.046.001v-.546c-.494-.005-.987 0-1.48-.002-.003-.855.003-1.711-.003-2.566a13.068 13.068 0 0 0-.56 0zm2.685-.001c-.003 1.039-.001 2.078-.001 3.117.188 0 .376.001.565-.002.003-1.039.004-2.077 0-3.116a11.783 11.783 0 0 0-.564.001zm1.478 0c-.007 1.039-.002 2.078-.002 3.116h.563c.002-.624.005-1.248-.003-1.873.275.655.567 1.302.854 1.951.283-.652.593-1.295.85-1.958-.014.626-.003 1.253-.006 1.879.188.001.376.001.564-.001.003-1.039.005-2.078-.001-3.117a32.28 32.28 0 0 0-.539 0c-.29.665-.595 1.323-.864 1.996-.26-.674-.575-1.325-.85-1.992a8.188 8.188 0 0 0-.565-.002zm3.738-.003c-.001 1.041.001 2.081-.001 3.121.185-.002.37-.001.555 0-.001-1.04.001-2.08-.001-3.12a34 34 0 0 0-.553-.001zm1.274-.005c-.003.181-.003.363 0 .544.29.003.58 0 .87.002l.001 2.577h.563c.003-.859 0-1.717.001-2.577h.865c.001-.182.001-.365-.001-.547-.766-.001-1.532-.003-2.299.001zM5.197 11.554c-.195.063-.417.213-.409.442.001 2.892-.002 5.784.001 8.677.037.318.41.453.691.454h13.038c.28-.001.653-.136.69-.454.004-2.892.001-5.785.002-8.677-.001-.296-.324-.444-.577-.477-.543-.045-1.091.018-1.633-.034h-.064a7.656 7.656 0 0 1-1.202 0l-.063-.001a7.669 7.669 0 0 1-1.203.001l-.063-.002a71.1 71.1 0 0 1-3.78.001h-.063a7.656 7.656 0 0 1-1.202.001l-.064-.001a7.656 7.656 0 0 1-1.202.002l-.063-.002c-.412.033-.83.033-1.242 0h-.03a7.91 7.91 0 0 1-1.241 0c-.112-.023-.22.027-.32.069z"/>
    <path fill="#fff" d="M8.492 3.319c.293.008.59-.019.881.013.393.074.416.717.036.825-.303.044-.612.009-.917.019v-.858zM17.147 3.318c.356.01.79-.075 1.052.234.348.442.347 1.16-.031 1.584-.264.282-.675.209-1.02.216V3.318z"/>
    <path d="M3.629.592a1.17 1.17 0 0 1 .213-.017h16.033c.234.004.486-.029.7.088.366.194.561.62.561 1.023-.001 6.893.001 13.785-.001 20.678-.008.505-.379 1.067-.928 1.061l-16.128.001c-.219-.001-.454.021-.654-.088-.365-.195-.561-.62-.56-1.023.001-6.892-.001-13.785.001-20.678.013-.453.294-.948.764-1.045zm.42.603c-.46.112-.708.607-.71 1.051v19.507c-.007.495.332 1.066.876 1.07h15.57c.543-.004.881-.575.875-1.07.002-6.486 0-12.973.001-19.459.004-.393-.158-.82-.513-1.022-.21-.127-.462-.094-.696-.097H4.263a.967.967 0 0 0-.215.02z"/>
    <path d="M5.234 3.031c.514-.521 1.617-.375 1.81.391-.166.055-.332.11-.498.168a.609.609 0 0 0-.847-.238c-.154.102-.14.352.023.438.386.221.87.263 1.2.584.368.355.319 1.028-.088 1.334-.633.485-1.715.208-1.938-.591.171-.068.345-.13.517-.195.148.352.56.577.931.436.261-.071.347-.461.121-.622-.353-.258-.832-.274-1.174-.557-.346-.27-.363-.843-.057-1.148zM7.933 2.775c.418-.007.836-.002 1.255-.003.296 0 .617.069.83.29.397.425.311 1.205-.196 1.507-.4.245-.887.129-1.33.157-.002.391.002.781-.003 1.172-.187-.001-.374-.002-.561.001.006-1.041-.002-2.083.005-3.124zm.559.544v.858c.305-.01.614.025.917-.019.381-.108.358-.752-.036-.825-.292-.032-.588-.005-.881-.013zM10.892 2.778c.676-.006 1.353-.005 2.03-.001.004.18.004.36 0 .54-.49.004-.979 0-1.469.002v.712c.303.002.606-.001.908.001.001.178.001.355-.003.532-.301.002-.603 0-.904.001-.002.262-.001.524 0 .786.521.004 1.042-.003 1.564.004.005.18.004.36.001.54-.71.004-1.42 0-2.13.002.003-1.04-.005-2.079.004-3.119zM13.745 2.778c.677-.007 1.353-.004 2.03-.001.004.18.004.359 0 .538-.49.009-.98.001-1.47.004v.712c.304.001.607-.001.911.001.001.178.003.355-.006.533h-.904v.787c.522.002 1.045-.003 1.567.003.004.18.005.36-.001.539-.71.007-1.42-.001-2.13.005.006-1.04-.002-2.08.004-3.12zM16.587 2.775c.673.025 1.469-.135 2.005.381.61.633.6 1.802-.048 2.406-.541.473-1.301.304-1.956.336a464.16 464.16 0 0 1-.001-3.122zm.56.543v2.034c.345-.007.757.067 1.02-.216.378-.424.379-1.142.031-1.584-.262-.309-.696-.224-1.052-.234zM6.353 7.419c.187-.004.373-.004.56 0 .007.855 0 1.711.003 2.566.494.003.987-.002 1.48.002.002.182.001.364 0 .546-.682 0-1.364.001-2.046-.001 0-1.038-.004-2.076.002-3.114zM9.038 7.418c.188-.005.376-.005.564-.001.004 1.039.003 2.077 0 3.116-.188.003-.376.002-.565.002 0-1.039-.002-2.078.001-3.117zM10.516 7.418c.188-.005.376-.007.565.002.276.667.591 1.318.85 1.992.269-.673.575-1.332.864-1.996.18-.001.359-.002.539 0 .006 1.039.004 2.078.001 3.117-.188.003-.376.002-.564.001.003-.626-.008-1.253.006-1.879-.258.663-.567 1.305-.85 1.958-.287-.649-.579-1.297-.854-1.951.008.624.005 1.249.003 1.873h-.563c0-1.039-.005-2.078.002-3.116zM14.254 7.415a34 34 0 0 1 .553.001c.002 1.04 0 2.079.001 3.12h-.555c.002-1.04 0-2.08.001-3.121zM15.528 7.41c.766-.004 1.533-.002 2.299-.001.003.182.002.364.001.547h-.865c-.002.859.001 1.718-.001 2.577-.188.002-.375.001-.563 0l-.001-2.577c-.29-.001-.58.001-.87-.002a16.442 16.442 0 0 1 0-.544zM5.518 11.485a7.91 7.91 0 0 0 1.241 0c-.233.05-.44.23-.484.47-.062.347.326.679.66.567a.513.513 0 0 0 .331-.657c-.073-.206-.272-.331-.476-.38.412.033.83.033 1.242 0-.232.051-.44.231-.484.471-.062.346.323.676.656.568.271-.076.444-.403.332-.667-.072-.191-.255-.308-.441-.37.399.03.803.032 1.202-.002-.231.055-.436.236-.477.475-.057.344.324.669.654.564.275-.075.449-.409.331-.674-.075-.189-.257-.306-.445-.364.399.031.803.031 1.202-.001-.228.059-.432.24-.471.478-.053.34.32.662.649.562a.516.516 0 0 0 .348-.649c-.069-.204-.262-.334-.463-.391a71.1 71.1 0 0 0 3.78-.001c-.232.052-.438.232-.481.471-.061.345.321.675.653.569.274-.074.445-.403.334-.668-.072-.192-.255-.309-.442-.37.399.03.803.031 1.203-.001-.231.055-.435.237-.476.476-.058.355.35.687.686.552.258-.09.413-.409.3-.664-.075-.189-.259-.306-.447-.363a7.78 7.78 0 0 0 1.202 0c-.228.059-.431.24-.469.478-.056.353.348.682.683.551a.514.514 0 0 0 .313-.639c-.069-.205-.263-.334-.463-.39.542.053 1.09-.01 1.633.034.253.032.576.181.577.477-.001 2.892.002 5.785-.002 8.677-.037.317-.41.453-.69.454H5.481c-.281-.001-.653-.136-.691-.454-.003-2.892 0-5.784-.001-8.677-.008-.23.214-.38.409-.443l.087-.023c-.112.125-.256.245-.282.421-.066.351.33.686.666.567a.514.514 0 0 0 .326-.651c-.073-.206-.271-.336-.477-.384zm-.159 1.333a.587.587 0 0 0-.353.402c-.081.34.282.68.615.602a.518.518 0 0 0 .399-.462c.032-.335-.334-.658-.661-.542zm7.641.003a.59.59 0 0 0-.344.397c-.084.351.304.701.645.597a.518.518 0 0 0 .37-.458c.03-.337-.343-.659-.671-.535zm5.108-.006a.58.58 0 0 0-.366.434c-.055.335.304.653.63.57a.517.517 0 0 0 .39-.458c.031-.333-.327-.653-.654-.546zM5.495 14.083c-.384.003-.664.526-.384.822.205.28.673.265.841-.045.215-.325-.084-.787-.457-.777zm1.271 0c-.244.004-.446.217-.492.448-.047.269.177.515.428.571a.51.51 0 0 0 .585-.413c.06-.304-.217-.61-.521-.606zm1.266.001c-.242.008-.44.218-.486.447-.059.344.324.662.652.56a.514.514 0 0 0 .367-.551c-.039-.25-.276-.464-.533-.456zm1.267 0c-.229.01-.412.203-.473.413-.09.351.3.697.639.596a.514.514 0 0 0 .372-.556c-.043-.25-.281-.464-.539-.452zm3.842-.001c-.395.004-.668.554-.363.841.217.276.69.229.839-.092.185-.327-.114-.759-.476-.749zm3.798.002c-.239.016-.431.228-.471.456-.041.273.194.521.452.565a.512.512 0 0 0 .566-.432c.049-.306-.241-.609-.547-.589zm1.265 0c-.227.019-.408.217-.459.431-.07.34.3.668.63.579a.512.512 0 0 0 .383-.421c.05-.309-.245-.615-.554-.589zm-7.783 1.305a.575.575 0 0 0-.333.455c-.019.261.207.488.453.532a.512.512 0 0 0 .569-.439c.054-.354-.351-.695-.689-.548zm2.536.01c-.216.111-.373.376-.288.619.084.232.346.409.595.353a.511.511 0 0 0 .407-.481c.015-.346-.391-.652-.714-.491zm2.572-.011a.584.584 0 0 0-.333.414c-.059.341.319.66.646.563a.515.515 0 0 0 .376-.474c.012-.336-.367-.637-.689-.503zm2.534.004c-.227.106-.393.386-.299.634.089.233.359.407.609.341a.512.512 0 0 0 .39-.478c.013-.34-.378-.644-.7-.497zm-7.641 1.27a.575.575 0 0 0-.334.449c-.023.269.212.506.469.542a.511.511 0 0 0 .554-.45c.047-.351-.353-.685-.688-.541zm2.575-.007a.583.583 0 0 0-.344.405c-.073.351.322.683.657.573a.512.512 0 0 0 .359-.434c.042-.343-.34-.67-.672-.544zm1.268.002a.583.583 0 0 0-.339.407c-.068.347.318.675.65.571a.51.51 0 0 0 .367-.441c.038-.344-.347-.669-.678-.538zm3.801.007a.586.586 0 0 0-.324.417c-.053.337.316.649.641.558a.51.51 0 0 0 .378-.435c.046-.354-.359-.69-.695-.54zm-12.708 1.26a.572.572 0 0 0-.36.449c-.03.266.197.503.448.549a.51.51 0 0 0 .568-.408c.077-.352-.311-.711-.655-.59zm5.107-.005c-.333.097-.517.57-.244.826.219.273.689.223.837-.096.211-.366-.197-.855-.593-.73zm2.535.008a.572.572 0 0 0-.352.444c-.031.264.192.498.438.549a.51.51 0 0 0 .579-.415c.069-.352-.323-.706-.665-.578zm5.107-.005c-.325.102-.504.563-.24.818.216.275.685.233.839-.083.22-.368-.197-.869-.598-.735zM6.669 19.187a.573.573 0 0 0-.39.405c-.082.338.276.671.606.6a.512.512 0 0 0 .402-.413c.067-.336-.286-.677-.619-.593zm1.266.002c-.345.086-.538.575-.256.835.223.276.702.214.84-.114.193-.359-.2-.825-.585-.72zm1.268.002c-.34.09-.529.57-.254.83.221.276.698.221.841-.105.201-.361-.198-.838-.587-.725zm5.108-.002a.577.577 0 0 0-.383.409c-.076.333.273.66.599.596a.514.514 0 0 0 .412-.421c.06-.337-.296-.674-.628-.584zm1.267.002a.573.573 0 0 0-.385.451c-.033.273.203.519.464.557a.512.512 0 0 0 .555-.421c.064-.339-.299-.683-.633-.587zm1.267.001c-.332.095-.518.564-.25.823.218.278.696.23.843-.095.206-.365-.199-.85-.593-.728z"/>
    <path fill="#ccc" d="M5.197 11.554c.1-.043.208-.093.32-.069.205.048.404.178.477.384a.515.515 0 0 1-.326.651c-.336.119-.731-.216-.666-.567.026-.177.17-.297.282-.421l-.087.023zM6.758 11.485h.03c.204.049.404.174.476.38a.513.513 0 0 1-.331.657c-.334.112-.721-.219-.66-.567.044-.24.251-.42.484-.47zM8.031 11.484l.063.002c.187.061.369.179.441.37.112.263-.061.591-.332.667-.332.109-.718-.222-.656-.568.044-.24.251-.42.484-.471zM9.296 11.484l.064.001c.188.058.37.175.445.364.118.265-.056.599-.331.674-.33.105-.711-.22-.654-.564.041-.24.247-.42.477-.475zM10.562 11.485h.063c.2.057.393.187.463.391.096.264-.079.578-.348.649-.329.1-.702-.222-.649-.563.039-.239.242-.42.471-.478zM14.406 11.484l.063.002c.187.06.37.178.443.37.111.264-.06.593-.334.667-.332.106-.714-.224-.653-.569.044-.239.25-.419.481-.471zM15.672 11.485l.063.001c.188.058.371.174.447.363.113.255-.042.574-.3.664-.336.135-.744-.197-.686-.552.04-.24.245-.421.476-.476zM16.937 11.485h.064c.2.056.394.186.463.39a.514.514 0 0 1-.313.639c-.334.131-.738-.198-.683-.551.038-.239.241-.42.469-.478zM5.359 12.818c.328-.116.694.207.661.542a.518.518 0 0 1-.399.462c-.333.078-.697-.262-.615-.602a.589.589 0 0 1 .353-.402zM13 12.821c.328-.124.7.198.671.535a.518.518 0 0 1-.37.458c-.341.105-.729-.246-.645-.597A.59.59 0 0 1 13 12.82zM18.108 12.815c.327-.107.685.213.654.546a.517.517 0 0 1-.39.458c-.326.083-.685-.236-.63-.57a.584.584 0 0 1 .366-.434zM5.495 14.083c.373-.01.672.451.457.777-.168.31-.636.325-.841.045-.28-.295 0-.819.384-.822zM6.766 14.083c.304-.004.581.301.521.606a.51.51 0 0 1-.585.413c-.251-.056-.476-.302-.428-.571.046-.231.248-.443.492-.448zM8.032 14.084c.257-.008.494.206.533.456a.514.514 0 0 1-.367.551c-.328.102-.711-.217-.652-.56.046-.228.244-.439.486-.447zM9.299 14.084c.258-.012.496.202.539.452a.515.515 0 0 1-.372.556c-.339.101-.729-.245-.639-.596.06-.21.244-.403.473-.413zM13.141 14.083c.361-.011.66.422.476.749-.149.321-.622.368-.839.092-.304-.287-.031-.837.363-.841zM16.939 14.085c.306-.021.595.283.547.589a.51.51 0 0 1-.566.432c-.258-.045-.493-.293-.452-.565.04-.227.232-.439.471-.456zM18.204 14.085c.308-.025.604.28.554.589a.512.512 0 0 1-.383.421c-.33.088-.7-.239-.63-.579.051-.214.232-.412.459-.431zM10.421 15.39c.337-.147.742.194.689.548a.511.511 0 0 1-.569.439c-.246-.045-.472-.271-.453-.532a.575.575 0 0 1 .333-.455zM12.957 15.4c.323-.161.729.145.714.491a.51.51 0 0 1-.407.481c-.249.055-.511-.122-.595-.353-.085-.243.072-.508.288-.619zM15.529 15.389c.322-.134.701.167.689.503a.516.516 0 0 1-.376.474c-.327.097-.705-.221-.646-.563a.584.584 0 0 1 .333-.414zM18.063 15.393c.322-.146.713.157.7.497a.513.513 0 0 1-.39.478c-.251.067-.52-.107-.609-.341-.094-.248.072-.528.299-.634zM10.422 16.663c.335-.144.735.19.688.541a.512.512 0 0 1-.554.45c-.256-.036-.492-.273-.469-.542a.579.579 0 0 1 .334-.449zM12.997 16.656c.331-.126.713.201.672.544a.512.512 0 0 1-.359.434c-.335.11-.729-.222-.657-.573a.58.58 0 0 1 .344-.405zM14.265 16.658c.331-.131.717.194.678.538a.513.513 0 0 1-.367.441c-.332.103-.718-.225-.65-.571a.585.585 0 0 1 .339-.407zM18.066 16.665c.336-.15.741.186.695.54a.512.512 0 0 1-.378.435c-.324.091-.694-.22-.641-.558a.589.589 0 0 1 .324-.417zM5.358 17.925c.344-.121.733.237.655.59a.51.51 0 0 1-.568.408c-.251-.047-.479-.283-.448-.549a.576.576 0 0 1 .36-.449zM10.465 17.92c.396-.125.804.364.593.73-.148.319-.618.369-.837.096-.273-.256-.09-.729.244-.826zM13 17.928c.342-.128.735.225.665.578a.51.51 0 0 1-.579.415c-.247-.051-.469-.285-.438-.549a.57.57 0 0 1 .352-.444zM18.107 17.923c.401-.134.818.367.598.735-.153.317-.623.359-.839.083-.264-.256-.085-.717.24-.818zM6.669 19.187c.333-.084.685.257.619.593a.513.513 0 0 1-.402.413c-.33.071-.688-.262-.606-.6a.571.571 0 0 1 .39-.405zM7.935 19.189c.385-.105.777.361.585.72-.139.328-.617.39-.84.114-.282-.26-.09-.749.256-.835zM9.203 19.191c.389-.113.788.364.587.725-.142.326-.62.381-.841.105-.276-.259-.087-.74.254-.83zM14.311 19.189c.332-.09.689.247.628.584a.513.513 0 0 1-.412.421c-.326.063-.675-.263-.599-.596a.575.575 0 0 1 .383-.409zM15.578 19.191c.335-.097.697.248.633.587a.51.51 0 0 1-.555.421c-.26-.038-.497-.285-.464-.557a.573.573 0 0 1 .385-.451zM16.845 19.192c.393-.122.799.364.592.728-.147.325-.624.373-.843.095-.268-.259-.082-.728.25-.823z"/>
</svg>
