<svg xmlns="http://www.w3.org/2000/svg" width="24" height="24">
    <path fill="#ce252c" d="M.463 9.238c1.158-4.482 5.14-8.09 9.727-8.749a51.844 51.844 0 0 1 3.614.005c4.724.662 8.785 4.468 9.841 9.108.098.336.094.702.254 1.016-.1.298-.049.628.1.9v1.843c-.367 1.688-.733 3.424-1.646 4.919-1.613 2.843-4.444 4.818-7.55 5.72H9.432c-.275-.07-.551-.139-.832-.191C4.243 22.515.889 18.597.145 14.132c-.03-.388-.048-.779-.145-1.156v-1.458a.837.837 0 0 0 .103-.757c.185-.49.198-1.026.36-1.524zm5.232-3.582c.757.792 1.644 1.454 2.464 2.182.403.449.901.976 1.469 1.163-.097.154.185.389.332.304l.013.12c.15.182.336.346.564.419.563.486 1.126.973 1.711 1.432l-.014.047c.172.161.342.4.586.425.083.09.17.175.264.253.49.478 1.013 1.018 1.62 1.312l.2.197c.246.328.572.652.974.766.038.055.115.166.155.221.06.061.124.122.199.168l.055-.008c1.112.907 2.202 1.882 3.36 2.71 1.421-1.993 1.736-4.547 1.366-6.918-.569-2.794-2.543-5.23-5.122-6.427C12.585 2.424 8.33 3.098 5.695 5.66zM4.36 7.225c-2.218 3.228-2.059 7.933.582 10.874 1.896 2.418 5.112 3.695 8.147 3.32 1.967-.209 3.847-1.114 5.27-2.482.025-.186-.197-.271-.302-.388-1.348-1.046-2.561-2.299-4.019-3.184-.194-.251-.368-.523-.624-.719a5.095 5.095 0 0 0-1.045-.87l-.084.262c-.16-.802-1.182-1.162-1.724-1.75-.101-.248-.395-.44-.65-.53a2.629 2.629 0 0 0-.258-.259c-.071-.185-.264-.277-.439-.335-.538-.492-1.116-.938-1.67-1.411-.118-.191-.296-.398-.528-.43a3.808 3.808 0 0 0-.311-.284 1.01 1.01 0 0 0-.58-.478c-.608-.41-1.112-1.026-1.764-1.338z"/>
    <path fill="#fff" d="M5.695 5.656c2.635-2.562 6.89-3.236 10.196-1.638 2.579 1.198 4.553 3.634 5.122 6.427.371 2.371.055 4.925-1.366 6.918-1.158-.828-2.248-1.802-3.36-2.71.786-.097 1.583-.005 2.374-.049.139-1.303.508-2.615.271-3.928-.092-.668-.161-1.34-.271-2.005-1.774-.152-3.626-.005-5.429-.072-.403-.217-.752-.526-1.162-.73-1.303-.041-2.609.025-3.912-.032-.82-.727-1.706-1.39-2.464-2.182zM4.36 7.225c.652.312 1.156.928 1.764 1.338-.059.15-.127.298-.188.446.256.017.512.007.768.031.108.09.214.184.311.284a2.47 2.47 0 0 0-.508.056c-.641.857-1.225 1.759-1.841 2.636-.065.854-.038 1.732-.013 2.592.163.007.325.008.487.001.086-.799.863-1.513 1.688-1.27.611.116.937.701 1.032 1.267.59.01 1.183.002 1.775.002.035-1.036 0-2.074.017-3.11.09.082.179.166.258.259.018.95-.018 1.902.017 2.851 1.162.025 2.328-.048 3.487.037.256.196.43.468.624.719 1.458.884 2.671 2.137 4.019 3.184.106.116.328.202.302.388-1.423 1.368-3.304 2.273-5.27 2.482-3.035.374-6.251-.902-8.147-3.32-2.641-2.941-2.8-7.646-.582-10.874zm1.795 6.388c-.613.21-.93 1.001-.563 1.558.415.786 1.801.608 1.958-.284.265-.79-.646-1.577-1.396-1.273z"/>
    <path fill="#fff" d="M10.532 9.35a36.505 36.505 0 0 1 1.751-.001c-.002.64.062 1.294-.035 1.925-.586-.458-1.148-.946-1.711-1.432a5.047 5.047 0 0 1-.005-.492zM14.69 9.374c1.148-.073 2.314-.016 3.468-.028.022.614 0 1.23.013 1.846-1.14.101-2.323.02-3.48.04-.007-.619-.005-1.238-.001-1.858zM6.672 9.785c.275-.095.583-.024.87-.03.554.473 1.133.919 1.67 1.411.004.28.011.56-.007.841-1.339.024-2.681.032-4.02.029.487-.756.985-1.505 1.487-2.251zM23.9 10.618l.1.028v.872a1.143 1.143 0 0 1-.1-.9zM0 10.77l.103-.008a.84.84 0 0 1-.103.757v-.749zM10.543 14.124c-.023-.61-.046-1.226.017-1.834.542.588 1.565.948 1.724 1.75l-.028.086c-.571.002-1.144.006-1.714-.002zM0 12.977c.097.377.115.768.145 1.156L0 14.053v-1.075zM14.704 13.31c.7-.082 1.325.464 1.469 1.128l-.139.055c-.04-.055-.116-.166-.155-.221a1.553 1.553 0 0 0-.974-.766l-.2-.197zM8.6 23.809c.281.052.557.121.832.191h-.701a10.841 10.841 0 0 0-.131-.191z"/>
    <path fill="#1f1917" d="M8.159 7.837c1.303.058 2.609-.008 3.912.032.409.204.758.512 1.162.73 1.802.067 3.655-.08 5.429.072.11.665.179 1.337.271 2.005.236 1.313-.132 2.624-.271 3.928-.791.044-1.588-.048-2.374.049l-.055.008a1.042 1.042 0 0 1-.199-.168l.139-.055c-.144-.664-.769-1.21-1.469-1.128-.607-.294-1.13-.834-1.62-1.312 1.865.006 3.738.056 5.6-.025.086-.288-.262-.222-.438-.236-1.808.008-3.617-.006-5.426.008-.244-.025-.414-.264-.586-.425l.014-.047c.097-.631.032-1.285.035-1.925a37.857 37.857 0 0 0-1.751.001c-.006.164-.005.328.005.492-.228-.073-.414-.236-.564-.419l-.013-.12a24.493 24.493 0 0 0-.05-.264l-.282-.04c-.568-.187-1.066-.714-1.469-1.163zm6.531 1.537c-.004.619-.006 1.238.001 1.858 1.157-.019 2.34.061 3.48-.04-.013-.616.008-1.231-.013-1.846-1.154.012-2.32-.046-3.468.028zM6.506 9.382a2.47 2.47 0 0 1 .508-.056c.232.031.41.239.528.43-.287.006-.595-.065-.87.03-.502.746-1 1.495-1.487 2.251 1.339.004 2.681-.005 4.02-.029.018-.281.011-.562.007-.841.175.058.368.15.439.335-.017 1.037.018 2.075-.017 3.11-.592 0-1.184.007-1.775-.002-.095-.566-.421-1.151-1.032-1.267-.826-.244-1.602.47-1.688 1.27a5.65 5.65 0 0 1-.487-.001c-.025-.86-.052-1.738.013-2.592.616-.877 1.2-1.78 1.841-2.636z"/>
    <path fill="#1f1917" d="M6.155 13.613c.75-.304 1.661.484 1.396 1.273-.157.893-1.543 1.07-1.958.284-.367-.557-.05-1.348.563-1.558z"/>
    <path fill="#37201f" d="M6.124 8.563c.247.073.455.254.58.478-.256-.024-.512-.014-.768-.031.061-.149.13-.296.188-.446z"/>
    <path fill="#b0aaaa" d="M9.628 9l.282.04.05.264c-.148.085-.43-.15-.332-.304z"/>
    <path fill="#1d1614" d="M9.91 11.76c.256.09.55.282.65.53-.062.607-.04 1.224-.017 1.834.57.008 1.142.005 1.714.002l.028-.086.084-.262c.384.241.738.535 1.045.87-1.159-.085-2.326-.012-3.487-.037-.035-.949.001-1.901-.017-2.851zM14.904 13.507c.416.116.773.379.974.766-.402-.114-.728-.438-.974-.766z"/>
    <path fill="#f0efef" d="M12.82 11.746c1.81-.014 3.618 0 5.426-.008.176.014.524-.052.438.236-1.862.082-3.736.031-5.6.025a2.742 2.742 0 0 1-.264-.253z"/>
</svg>
