<svg xmlns="http://www.w3.org/2000/svg" width="24" height="24">
    <path fill="#96989a" d="M1.316 0h21.366l.002.056C15.532.056 8.38.058 1.228.055l.088-.056z"/>
    <path fill="#c6c7c8" d="M1.015.077a.15.15 0 0 1 .182-.003c-.065.066-.126.067-.182.003z"/>
    <path fill="#383b41" d="M1.197.074l.032-.018c7.152.003 14.304.001 21.456.001.582.015 1.052.513 1.258 1.025v21.831a6.282 6.282 0 0 0-.042.127c-.159.432-.52.822-.983.918L22.79 24H1.2c-.591-.132-1.052-.62-1.199-1.2V1.249l.071-.151.011-.14C.252.537.616.261 1.016.076c.056.064.117.063.182-.003zM.965.277A1.448 1.448 0 0 0 .12 1.6C.117 4.617.119 7.636.119 10.654v11.744a1.457 1.457 0 0 0 .777 1.338c.339.186.736.163 1.109.162 6.797-.002 13.594.001 20.39-.002a1.443 1.443 0 0 0 1.309-.769c.188-.346.168-.751.166-1.131l-.001-11.341c-.002-3.018.003-6.037-.002-9.055a1.448 1.448 0 0 0-.8-1.301c-.367-.187-.79-.15-1.187-.153H2.119C1.733.15 1.326.113.964.278z"/>
    <path fill="#ffcf59" d="M.965.277C1.326.111 1.734.149 2.12.145h19.761c.398.003.821-.034 1.187.153.487.234.806.762.8 1.301.006 3.019.001 6.037.002 9.055h-.339l.001-8.997c.012-.384-.163-.774-.49-.986-.339-.235-.772-.18-1.16-.185C15.123.489 8.364.485 1.605.488A1.117 1.117 0 0 0 .64.982c-.219.315-.179.717-.182 1.08.004 2.864.001 5.728.002 8.592H.12C.121 7.636.118 4.618.121 1.6.112 1.044.455.5.966.277z"/>
    <path fill="#ffcf59" d="M1.056 1.604c-.013-.322.294-.558.603-.523h20.682a.534.534 0 0 1 .591.579c.002 2.997 0 5.995.001 8.993H1.052c.003-3.017-.005-6.033.004-9.05zm.866.347l.001.396.573.001c0 .697-.001 1.392.001 2.089l.396.001.001-2.09.573-.001-.001-.396H1.923zm1.916 0c.005.573-.01 1.147.005 1.72.007.44.417.814.855.792.428.007.822-.365.825-.797.013-.571.001-1.143.004-1.714l-.394-.001c-.014.597.031 1.198-.021 1.792-.085.432-.801.414-.86-.023-.041-.588-.005-1.179-.017-1.769h-.398zm2.287 0c0 .829-.001 1.658.001 2.487l.396.001c-.001-.366.001-.732.001-1.097.156.007.321-.024.471.027.16.347.261.718.406 1.072l.413-.005c-.132-.387-.28-.768-.418-1.152.45-.233.534-.923.094-1.208-.411-.234-.914-.083-1.364-.125zm2.12 0c0 .829-.001 1.658.001 2.487l.394.001c.001-.547-.005-1.094.003-1.641.305.544.604 1.092.904 1.64l.384.001c0-.829.001-1.658-.001-2.487l-.398-.002c0 .541.005 1.082-.003 1.623-.309-.536-.6-1.083-.902-1.623l-.383.001zm2.288 0c.001.829-.001 1.658.001 2.487l.397.001-.001-2.489-.397.001zm.993-.001c.002.829.001 1.659.001 2.489h.396c.003-.547 0-1.094.002-1.641.311.545.601 1.1.913 1.644l.375-.005V1.952l-.398-.001v1.63c-.306-.541-.602-1.087-.903-1.63l-.386-.001zm2.503.281c-.347.523-.344 1.249-.08 1.807.215.471.935.578 1.27.182.25-.278.243-.672.238-1.022l-.839-.002-.001.397c.158.001.316.002.474.005-.069.204-.167.476-.429.469-.333.014-.454-.361-.483-.631-.025-.35-.035-.78.245-1.038.239-.186.522.009.639.235a15.3 15.3 0 0 1 .354-.14c-.167-.592-1.027-.772-1.387-.262zm6.007.808c.025.258.127.499.194.748-.883.006-1.766-.007-2.648.006-.186-.019-.28.167-.262.328-.001 1.083-.001 2.167.001 3.25.365.002.73.001 1.095.001l-.002-2.218c.002-.102.009-.28.154-.262.554-.022 1.11-.002 1.664-.007-.066.242-.163.477-.193.727.002.172.235.215.345.109.686-.456 1.364-.924 2.045-1.387-.676-.457-1.352-.914-2.025-1.374-.112-.101-.338-.1-.368.078zM2.268 6.304c.206.827.412 1.654.604 2.484l.34.001c.195-.829.401-1.656.603-2.484l-.357-.001c-.141.563-.269 1.13-.417 1.691-.141-.564-.274-1.128-.416-1.691l-.357-.001zm1.895 0l.001 2.488c.422 0 .845-.001 1.268.001l-.001-.352c-.305.002-.611-.001-.916 0-.011-.266.005-.533 0-.8.183.001.366-.001.549.003a13.554 13.554 0 0 1-.011-.349c-.18 0-.36-.001-.541.002 0-.215 0-.43-.002-.646.307.002.614-.002.92.001l.001-.347-1.268-.001zm1.689-.001c.002.829 0 1.658.002 2.487l.347-.002V7.643l.698.001v1.145l.347.001c-.001-.828.001-1.656-.001-2.484l-.348-.002c.003.33 0 .661.001.991l-.698.002c.002-.33 0-.661-.001-.991l-.347-.002zm1.942.001V8.79l.347-.002c0-.828.002-1.655-.001-2.483l-.345-.001zm1.193.105c-.437.447-.37 1.16-.282 1.729.052.36.343.731.743.671.35-.021.522-.371.597-.67-.119-.001-.237-.002-.355-.001-.058.225-.327.473-.518.219-.253-.481-.247-1.114-.012-1.601.153-.249.441-.072.533.133.118.001.237.001.355-.001-.077-.474-.654-.812-1.06-.48zm1.542-.104c.001.828-.001 1.656.001 2.484l1.27.001v-.348c-.307.002-.613-.001-.92 0-.001-.712.001-1.425-.001-2.137l-.351.001zm1.618-.001v2.489c.424-.002.848 0 1.272-.001 0-.117-.002-.234-.005-.352-.306.003-.612.001-.919.001-.001-.266-.001-.532 0-.798h.548v-.347l-.548-.001c0-.215 0-.43-.002-.645.309.003.617 0 .925.001l-.002-.347-1.269-.001zm1.694.764c.124.449.757.452.887.896.073.206-.026.535-.292.503-.23.018-.345-.2-.39-.391a19.298 19.298 0 0 0-.341-.003c-.001.482.461.875.937.718.609-.173.597-1.116.085-1.404-.199-.166-.613-.264-.549-.592.125-.269.519-.18.615.071l.333-.001c-.06-.308-.289-.605-.633-.582-.427-.061-.776.386-.652.786z"/>
    <path fill="#ffcf59" d="M6.522 2.35c.225.002.454-.024.676.023.244.071.249.464.01.545-.225.053-.458.024-.686.028V2.35z"/>
    <path fill="#2b2e34" d="M.639.982c.206-.323.587-.502.965-.494C8.363.485 15.122.489 21.881.486c.389.005.822-.05 1.16.185.327.211.502.602.49.986l-.001 8.997c.001 3.78-.001 7.561.001 11.341-.005.32.033.662-.12.957-.191.4-.638.632-1.074.608-6.911-.002-13.823.001-20.735-.001-.391.009-.784-.186-.984-.528-.208-.325-.157-.727-.162-1.093.002-3.761 0-7.522.001-11.284C.456 7.79.459 4.926.455 2.062c.003-.364-.037-.765.182-1.08zm.417.622c-.009 3.016-.001 6.033-.004 9.05.001 3.914-.002 7.828.002 11.741-.023.307.23.592.545.565 6.934.003 13.868.004 20.802 0a.515.515 0 0 0 .531-.563c.002-3.914 0-7.829.001-11.743-.001-2.998.001-5.996-.001-8.993a.534.534 0 0 0-.591-.579H1.659c-.308-.035-.616.2-.603.523z"/>
    <path fill="#2b2e34" d="M1.922 1.951h1.543l.001.396-.573.001c0 .697.001 1.393-.001 2.09l-.396-.001c-.002-.697-.001-1.392-.001-2.089l-.573-.001-.001-.396zM3.838 1.951h.398c.012.589-.025 1.181.017 1.769.06.437.776.455.86.023.052-.595.007-1.195.021-1.792l.394.001c-.003.572.009 1.143-.004 1.714-.003.431-.398.804-.825.797-.438.023-.848-.352-.855-.792-.015-.573 0-1.147-.005-1.72zM6.125 1.951c.45.042.953-.109 1.364.125.44.285.355.975-.094 1.208.138.384.285.766.418 1.152l-.413.005c-.144-.354-.245-.726-.406-1.072-.15-.051-.315-.02-.471-.027l-.001 1.097-.396-.001-.001-2.487zm.397.399v.596c.229-.004.462.025.686-.028.239-.081.234-.474-.01-.545-.222-.048-.451-.021-.676-.023zM8.245 1.951l.383-.001c.301.541.592 1.087.902 1.623.008-.541.003-1.082.003-1.623l.398.002c.002.829.001 1.658.001 2.487l-.384-.001c-.3-.548-.599-1.096-.904-1.64-.008.547-.003 1.094-.003 1.641l-.394-.001-.001-2.487zM10.533 1.951l.397-.001c.001.83-.001 1.659.001 2.489l-.397-.001c-.002-.829 0-1.658-.001-2.487zM11.526 1.95l.386.001c.301.543.597 1.089.903 1.63v-1.63l.398.001v2.485l-.375.005c-.312-.544-.602-1.099-.913-1.644-.002.547.001 1.094-.002 1.641h-.396c-.001-.829.001-1.659-.001-2.489zM14.029 2.231c.36-.51 1.22-.33 1.387.262l-.354.14c-.116-.227-.4-.421-.639-.235-.28.258-.27.688-.245 1.038.029.269.15.645.483.631.262.007.36-.265.429-.469-.159-.003-.316-.003-.474-.005l.001-.397.839.002c.006.35.013.745-.238 1.022-.335.396-1.055.289-1.27-.182-.265-.558-.267-1.284.08-1.807zM20.036 3.039c.03-.179.257-.179.368-.078.674.46 1.35.918 2.025 1.374-.682.462-1.36.931-2.045 1.387-.111.105-.344.063-.345-.109.03-.25.127-.486.193-.727-.554.005-1.11-.015-1.664.007-.145-.017-.152.16-.154.262l.002 2.218c-.365-.001-.73.001-1.095-.001l-.001-3.25c-.018-.161.076-.347.262-.328.882-.013 1.765.001 2.648-.006-.068-.249-.169-.49-.194-.748zM2.268 6.304l.357.001c.143.563.276 1.128.416 1.691.148-.561.276-1.128.417-1.691l.357.001c-.202.828-.408 1.654-.603 2.484l-.34-.001c-.192-.83-.399-1.657-.604-2.484zM4.163 6.304l1.268.001-.001.347c-.306-.002-.613.001-.92-.001.002.215.002.43.002.646.18-.003.36-.002.541-.002.002.116.006.233.011.349-.183-.003-.366-.002-.549-.003.005.267-.011.533 0 .8.305-.001.611.002.916 0l.001.352c-.423-.002-.845-.001-1.268-.001-.001-.829.001-1.659-.001-2.488zM5.852 6.303l.347.002c.001.33.002.661.001.992l.698-.002c-.001-.33.002-.661-.001-.991l.348.002.001 2.484-.347-.001V7.644l-.698-.001v1.145l-.347.002c-.002-.829.001-1.658-.002-2.487zM7.794 6.304l.345.001c.003.828.001 1.655.001 2.483l-.347.002V6.304zM8.987 6.409c.406-.332.983.006 1.06.48l-.355.001c-.092-.205-.38-.381-.533-.133-.235.487-.241 1.12.012 1.601.191.253.46.006.518-.219.119-.001.237 0 .355.001-.075.299-.247.648-.597.67-.4.06-.691-.31-.743-.671-.088-.569-.155-1.282.282-1.729zM10.529 6.305l.351-.001.001 2.137c.306-.001.613.002.92 0v.348l-1.27-.001c-.002-.828-.001-1.656-.001-2.484zM12.147 6.304c.423 0 .846-.001 1.269.001l.002.347c-.308-.001-.616.002-.925-.001.002.215.002.43.002.645l.548.001v.347h-.548c-.001.266-.001.532 0 .798.306-.001.612.002.919-.001.003.117.005.234.005.352-.424.001-.848-.001-1.272.001V6.305zM13.841 7.068c-.124-.4.225-.848.652-.786.344-.023.573.274.633.582l-.333.001c-.096-.251-.49-.34-.615-.071-.064.328.35.427.549.592.511.289.524 1.231-.085 1.404-.476.156-.938-.236-.937-.718l.341.003c.045.191.159.409.39.391.266.032.365-.297.292-.503-.13-.444-.762-.447-.887-.896zM18.979 12.28c.443-.211 1.004.179.958.667-.005.508-.645.839-1.061.544-.46-.264-.392-1.025.103-1.21zM18.604 15.611c.203-.668.324-1.579 1.042-1.884.932.055 1.694.703 2.453 1.189.001.729-.002 1.458.001 2.186a22.507 22.507 0 0 0-.44-.077c-.058-.58-.113-1.16-.174-1.74-.165-.033-.33-.065-.494-.101.263.727.493 1.518.325 2.294a.64.64 0 0 0 .004.325c.285 1.136.552 2.277.837 3.413-.2.14-.399.281-.597.422-.418-1.114-.854-2.22-1.278-3.331-.228.28-.569.491-.67.856-.247.759-.494 1.518-.744 2.276-.26-.093-.523-.18-.78-.282.177-.721.383-1.434.569-2.153.139-.723.64-1.293.939-1.949-.059-.375-.207-.731-.302-1.099-.15.177-.251.431-.496.494-.467.155-.937.301-1.402.462a6.648 6.648 0 0 0-.235-.341c.48-.321.96-.642 1.442-.961zM11.76 16.034l1.539.001.001.398-.573-.001-.001 2.094a10.404 10.404 0 0 0-.395-.004c.002-.697.001-1.392.001-2.088l-.572-.002-.001-.397zM14.226 16.062c.497-.205 1.016.19 1.102.684.104.491.1 1.053-.191 1.483-.274.415-.963.423-1.249.018-.271-.381-.297-.882-.236-1.331.052-.345.217-.734.574-.855zm.109.387c-.396.306-.347.919-.232 1.355.054.315.492.472.699.207.242-.376.23-.877.096-1.29-.062-.235-.339-.392-.564-.273z"/>
    <path fill="#d8d8d9" d="M.071 1.098zM23.9 23.04l.042-.127v.104l-.042.023z"/>
    <path fill="#fff" d="M.119 10.654h.34C.458 14.416.46 18.177.458 21.938c.005.367-.046.768.162 1.093.2.341.593.537.984.528 6.912.002 13.824-.001 20.735.001.436.025.883-.207 1.074-.608.152-.295.115-.637.12-.957-.002-3.78 0-7.561-.001-11.341h.339c.001 3.78-.001 7.561.001 11.341.002.38.022.785-.166 1.131-.244.48-.773.785-1.309.769-6.797.003-13.594-.001-20.39.002-.373.002-.77.024-1.109-.162a1.457 1.457 0 0 1-.777-1.338V10.653z"/>
    <path fill="#fff" d="M1.052 10.654h21.881c-.001 3.914.001 7.828-.001 11.743a.515.515 0 0 1-.531.563c-6.934.004-13.868.003-20.802 0-.316.027-.569-.258-.545-.565-.003-3.913-.001-7.827-.002-11.741zm17.927 1.626c-.494.185-.562.946-.103 1.21.416.296 1.056-.036 1.061-.544.046-.488-.516-.878-.958-.667zm-.375 3.331c-.482.318-.962.64-1.442.961.082.111.16.225.235.341.465-.161.935-.307 1.402-.462.245-.062.347-.317.496-.494.095.368.243.725.302 1.099-.299.655-.8 1.226-.939 1.949-.186.718-.392 1.431-.569 2.153.257.101.52.188.78.282.25-.758.497-1.517.744-2.276.101-.365.442-.576.67-.856.424 1.111.86 2.217 1.278 3.331l.597-.422c-.285-1.136-.552-2.277-.837-3.413a.64.64 0 0 1-.004-.325c.168-.776-.062-1.567-.325-2.294.164.036.329.068.494.101.061.58.115 1.16.174 1.74.147.024.293.049.44.077-.003-.729 0-1.458-.001-2.186-.758-.485-1.521-1.134-2.453-1.189-.718.305-.839 1.215-1.042 1.884zM2.028 13.89c-.197.085-.231.347-.108.509 1.261 2.18 2.518 4.362 3.782 6.541.123.236.486.194.584-.042 1.254-2.183 2.516-4.362 3.764-6.548.156-.22-.047-.532-.309-.497-2.445-.005-4.89.009-7.335-.001-.127.003-.258-.004-.379.038zm9.732 2.144l.001.397.572.002c-.001.696.001 1.392-.001 2.088.132-.001.263 0 .395.004l.001-2.094.573.001-.001-.398c-.513-.001-1.026.001-1.539-.001zm2.466.028c-.357.121-.522.509-.574.855-.061.449-.035.95.236 1.331.286.405.975.396 1.249-.018.292-.43.296-.992.191-1.483-.086-.494-.605-.89-1.102-.684z"/>
    <path fill="#fff" d="M4.311 15.193c1.041-.072 2.093-.014 3.138-.033.262-.049.507.253.347.487-.504.886-1.019 1.766-1.528 2.649-.101.238-.464.245-.573.01-.509-.867-1.005-1.742-1.51-2.612-.12-.163-.077-.431.127-.501zm.456.267c.133.248.23.518.206.804l.097.003c-.032-.299.091-.571.195-.842-.125.072-.195.196-.258.321l-.104-.265a7.646 7.646 0 0 1-.136-.022zm.636.009v.792l.111.005-.001-.793-.11-.004zm.278-.003l.001.797h.395l-.001-.11-.282-.001a21.171 21.171 0 0 1-.002-.251l.221-.03c-.072-.041-.144-.084-.215-.126l-.01-.152c.112-.01.224-.02.336-.034-.117-.119-.29-.08-.44-.092zm.532.806c.157-.005.314-.017.467-.058-.119-.029-.239-.052-.359-.078.002-.238.006-.475-.01-.713-.209.221-.055.573-.098.849zm.528-.815c-.001.274-.001.548.002.821.595.153.591-.969-.002-.821z"/>
    <path fill="#fff" d="M6.858 15.542c.29.069.294.585-.001.647a9.305 9.305 0 0 1 .001-.647zM14.335 16.449c.225-.12.502.038.564.273.134.413.146.914-.096 1.29-.207.265-.646.108-.699-.207-.115-.436-.164-1.049.232-1.355z"/>
    <path fill="#cf3113" d="M2.028 13.89c.121-.042.252-.035.379-.038 2.445.009 4.89-.004 7.335.001.262-.035.465.277.309.497-1.249 2.186-2.511 4.365-3.764 6.548-.098.236-.462.278-.584.042-1.264-2.178-2.521-4.361-3.782-6.541-.123-.162-.089-.424.108-.509zm2.283 1.303c-.203.07-.247.339-.127.501.505.87 1.001 1.745 1.51 2.612.109.235.472.228.573-.01.509-.883 1.024-1.763 1.528-2.649.161-.234-.084-.536-.347-.487-1.045.019-2.097-.039-3.138.033z"/>
    <path fill="#cf3113" d="M4.767 15.46l.136.022.104.265c.062-.125.132-.25.258-.321-.104.271-.227.543-.195.842l-.097-.003c.025-.286-.072-.556-.206-.804zM5.403 15.469l.11.004.001.793-.111-.005v-.792zM5.681 15.466c.15.012.323-.027.44.092a7.643 7.643 0 0 1-.336.034l.01.152c.072.042.143.085.215.126l-.221.03.002.251.282.001.001.11h-.395l-.001-.797zM6.213 16.272c.043-.276-.111-.628.098-.849.016.237.011.475.01.713.12.026.24.049.359.078-.152.042-.31.053-.467.058zM6.741 15.457c.592-.148.597.974.002.821-.002-.274-.002-.548-.002-.821zm.117.085a9.304 9.304 0 0 0-.001.647c.294-.062.291-.578.001-.647z"/>
    <path fill="#dedfdf" d="M22.789 24l.128-.042-.023.042h-.105z"/>
</svg>
