<svg xmlns="http://www.w3.org/2000/svg" width="24" height="24">
    <path fill="#040404" d="M3.574 0h17.079c.483.149.866.515 1.047.985v21.977c-.095.156-.195.309-.294.463.084-.335.195-.668.186-1.018-.006-7.006.003-14.012-.005-21.018.04-.695-.585-1.306-1.277-1.259a9980.93 9980.93 0 0 0-16.416 0C3.203.089 2.587.702 2.63 1.394c-.002 7.071-.005 14.142.002 21.212-.027.571.394 1.037.905 1.226l.163.086c-.601.011-1.023-.474-1.2-1.002V1.084A1.563 1.563 0 0 1 3.574 0z"/>
    <path fill="#040404" d="M3.531.435c.184-.055.378-.054.568-.057C9.501.384 14.903.375 20.305.382c.562-.047 1.075.449 1.03 1.015.002 7.069.005 14.138-.001 21.206.031.552-.476 1.035-1.025.985-5.472 0-10.945.001-16.418-.001-.542.044-1.038-.437-1.007-.981-.005-7.07-.003-14.141-.001-21.211-.023-.418.243-.837.648-.96zm.094.474c-.231.095-.275.367-.266.588.005 7.035-.005 14.072.005 21.107a.475.475 0 0 0 .528.505c5.472.005 10.944.004 16.416.001a.483.483 0 0 0 .547-.509c.007-7.067.003-14.134.001-21.201a.496.496 0 0 0-.551-.542C14.903.848 9.501.859 4.099.852 3.94.858 3.775.85 3.625.909z"/>
    <path fill="#040404" d="M4.472 3.23c.146.015.299.004.44.052.225.556.381 1.138.59 1.701.205-.578.4-1.158.602-1.737.146-.001.292-.001.437.001.002 1.055.001 2.11.001 3.165-.149.002-.297.003-.446.001-.001-.569.003-1.138-.003-1.707-.2.565-.384 1.137-.585 1.702-.208-.568-.392-1.145-.597-1.714-.005.573-.001 1.146-.002 1.719h-.438c0-1.061-.002-2.122.001-3.183zM7.663 3.241c.146-.003.293-.003.44-.002.269 1.057.532 2.116.797 3.174-.152.001-.303.001-.455-.001-.077-.295-.153-.591-.232-.885l-.638.001-.22.884c-.153.001-.305.003-.457.001.254-1.058.51-2.115.765-3.172zm.223 1.015c-.07.271-.138.543-.203.815l.416.003c-.07-.273-.138-.547-.213-.818zM9.279 3.233c.16-.002.321-.001.481 0 .14.323.278.646.419.968.138-.324.274-.65.418-.972.16.003.32.001.481.006-.221.518-.441 1.035-.66 1.553.233.542.467 1.082.697 1.625h-.482c-.149-.348-.3-.695-.455-1.04-.152.346-.301.693-.45 1.041-.161 0-.322 0-.483-.002.227-.543.462-1.083.691-1.625-.218-.519-.438-1.036-.657-1.554zM11.549 3.237h.461v3.18c-.154.001-.307.002-.461 0v-3.18zM12.623 3.246c.147-.002.295-.001.442.001.198.58.393 1.162.589 1.742.203-.58.401-1.163.604-1.743.146-.001.291-.001.437.001l.001 3.166c-.15.001-.299.001-.447-.001-.002-.567.001-1.135-.003-1.703-.202.567-.388 1.14-.586 1.708-.202-.577-.396-1.157-.597-1.734l-.001 1.73c-.147.001-.293.002-.439 0V3.246zM15.288 3.234l.439-.004c.023.844-.033 1.691.026 2.532.083.432.806.37.816-.074.041-.817.003-1.637.017-2.455.149-.002.299-.002.449.001-.029.883.059 1.775-.044 2.652-.204.791-1.472.804-1.665.001-.088-.879-.014-1.769-.038-2.653zM17.634 3.247c.146-.002.293-.002.439-.001.201.58.394 1.162.593 1.743.202-.58.4-1.161.601-1.741.146-.003.291-.004.437-.002.003 1.056.001 2.111.001 3.167-.148.002-.297.001-.445 0-.002-.569.001-1.138-.002-1.706-.202.567-.388 1.141-.588 1.709-.201-.575-.394-1.154-.596-1.729-.001.575.001 1.15-.001 1.726a32.12 32.12 0 0 1-.439 0V3.247z"/>
    <path fill="#fff" d="M2.63 1.394C2.587.702 3.203.089 3.894.13a9980.93 9980.93 0 0 1 16.416 0c.692-.047 1.317.564 1.277 1.259.008 7.006-.001 14.012.005 21.018.009.35-.102.683-.186 1.018-.259.139-.501.326-.792.395-5.692.004-11.385-.021-17.077.012-.511-.189-.932-.655-.905-1.226-.007-7.07-.004-14.141-.002-21.212zm.901-.959c-.405.123-.671.542-.648.96-.002 7.07-.004 14.141.001 21.211-.031.544.465 1.025 1.007.981 5.473.002 10.946.001 16.418.001.549.05 1.056-.433 1.025-.985.006-7.068.003-14.137.001-21.206.045-.566-.468-1.062-1.03-1.015C14.903.375 9.501.384 4.099.378c-.19.003-.384.002-.568.057z"/>
    <path fill="#fff" d="M3.625.909c.15-.059.315-.051.474-.057C9.501.859 14.903.848 20.305.858a.496.496 0 0 1 .551.542c.002 7.067.006 14.134-.001 21.201a.483.483 0 0 1-.547.509c-5.472.003-10.944.004-16.416-.001a.475.475 0 0 1-.528-.505c-.01-7.035 0-14.072-.005-21.107-.009-.221.035-.493.266-.588zm.847 2.321c-.003 1.061-.001 2.122-.001 3.183h.438c.001-.573-.003-1.146.002-1.719.205.569.389 1.146.597 1.714.201-.565.385-1.137.585-1.702.006.569.002 1.138.003 1.707.149.002.297.001.446-.001 0-1.055.001-2.11-.001-3.165a21.203 21.203 0 0 0-.437-.001c-.202.579-.397 1.159-.602 1.737-.209-.563-.365-1.145-.59-1.701-.141-.048-.294-.037-.44-.052zm3.191.011c-.255 1.057-.511 2.114-.765 3.172.152.002.304 0 .457-.001l.22-.884.638-.001c.079.294.155.59.232.885.152.002.303.002.455.001-.265-1.058-.528-2.117-.797-3.174a16.116 16.116 0 0 0-.44.002zm1.616-.008c.219.518.439 1.035.657 1.554-.229.542-.464 1.082-.691 1.625.161.002.322.002.483.002.149-.348.298-.695.45-1.041.155.345.306.692.455 1.04h.482c-.23-.543-.464-1.083-.697-1.625.219-.518.439-1.035.66-1.553-.161-.005-.321-.003-.481-.006-.144.322-.28.648-.418.972-.141-.322-.279-.645-.419-.968-.16-.001-.321-.002-.481 0zm2.27.004v3.18c.154.002.307.001.461 0v-3.18a35.42 35.42 0 0 0-.461 0zm1.074.009v3.167c.146.002.292.001.439 0l.001-1.73c.201.577.395 1.157.597 1.734.198-.568.384-1.141.586-1.708.004.568.001 1.136.003 1.703.148.002.297.002.447.001l-.001-3.166a21.22 21.22 0 0 0-.437-.001c-.203.58-.401 1.163-.604 1.743-.196-.58-.391-1.162-.589-1.742a16.281 16.281 0 0 0-.442-.001zm2.665-.012c.024.884-.05 1.774.038 2.653.193.803 1.461.79 1.665-.001.103-.877.015-1.769.044-2.652-.15-.003-.3-.003-.449-.001-.014.818.024 1.638-.017 2.455-.01.444-.733.506-.816.074-.059-.841-.003-1.688-.026-2.532l-.439.004zm2.346.013v3.166h.439c.002-.576 0-1.151.001-1.726.202.575.395 1.154.596 1.729.2-.568.386-1.142.588-1.709.003.568 0 1.137.002 1.706.148.001.297.002.445 0 0-1.056.002-2.111-.001-3.167a12.733 12.733 0 0 0-.437.002c-.201.58-.399 1.161-.601 1.741-.199-.581-.392-1.163-.593-1.743a21.414 21.414 0 0 0-.439.001zm-1.391 6.125c-.709.131-1.253.712-1.498 1.368-.443 1.163-.535 2.425-.518 3.66-.006 1.347.074 2.758.688 3.983.609 1.264 2.569 1.433 3.451.381.44-.522.613-1.204.752-1.857.27-1.453.271-2.948.103-4.414-.142-.902-.304-1.877-.936-2.581-.512-.553-1.33-.67-2.042-.54zm-6.752.414c-.801.66-.995 1.748-1.036 2.73.454.002.91.011 1.363-.034.002-.452.031-.959.359-1.305.384-.432 1.189-.311 1.422.224.238.508.241 1.166-.05 1.654-.273.429-.825.414-1.27.483.002.44.002.881-.001 1.321.5.066 1.111.065 1.418.543.471.783.34 2.228-.701 2.459-.931.139-1.318-.933-1.258-1.686-.469.003-.938.002-1.407.002.029.795.13 1.633.58 2.312.75 1.147 2.566 1.273 3.553.378 1.253-1.255 1.445-3.753-.06-4.889 1.015-.901 1.049-2.534.365-3.64-.661-1.072-2.302-1.325-3.277-.552zm-3.353-.323c-.082.47-.184.986-.57 1.309-.397.386-.979.384-1.492.458-.003.434-.008.869.045 1.3.575-.007 1.15-.004 1.725-.003-.001 2.251.002 4.502-.001 6.753.492.002.984.006 1.476-.008-.003-3.27 0-6.54-.001-9.81a77.62 77.62 0 0 1-1.182.001z"/>
    <path fill="#fff" d="M7.886 4.256c.075.271.143.545.213.818l-.416-.003c.065-.272.133-.544.203-.815zM16.534 10.95c.514-.165.987.258 1.074.747.299 1.242.234 2.538.212 3.806-.085.694-.046 1.46-.45 2.065-.332.489-1.139.333-1.329-.206-.506-1.539-.349-3.206-.276-4.799.084-.579.135-1.369.769-1.613z"/>
    <path fill="#020202" d="M16.243 9.372c.712-.13 1.53-.013 2.042.54.632.704.794 1.679.936 2.581.168 1.466.167 2.961-.103 4.414-.139.653-.312 1.335-.752 1.857-.882 1.052-2.842.883-3.451-.381-.614-1.225-.694-2.636-.688-3.983-.017-1.235.075-2.497.518-3.66.245-.656.789-1.237 1.498-1.368zm.291 1.578c-.634.244-.685 1.034-.769 1.613-.073 1.593-.23 3.26.276 4.799.19.539.997.695 1.329.206.404-.605.365-1.371.45-2.065.022-1.268.087-2.564-.212-3.806-.087-.489-.56-.912-1.074-.747zM9.491 9.786c.975-.773 2.616-.52 3.277.552.684 1.106.65 2.739-.365 3.64 1.505 1.136 1.313 3.634.06 4.889-.987.895-2.803.769-3.553-.378-.45-.679-.551-1.517-.58-2.312.469 0 .938.001 1.407-.002-.06.753.327 1.825 1.258 1.686 1.041-.231 1.172-1.676.701-2.459-.307-.478-.918-.477-1.418-.543.003-.44.003-.881.001-1.321.445-.069.997-.054 1.27-.483.291-.488.288-1.146.05-1.654-.233-.535-1.038-.656-1.422-.224-.328.346-.357.853-.359 1.305-.453.045-.909.036-1.363.034.041-.982.235-2.07 1.036-2.73zM6.138 9.463c.394.003.788.002 1.182-.001.001 3.27-.002 6.54.001 9.81-.492.014-.984.01-1.476.008.003-2.251 0-4.502.001-6.753-.575-.001-1.15-.004-1.725.003-.053-.431-.048-.866-.045-1.3.513-.074 1.095-.072 1.492-.458.386-.323.488-.839.57-1.309z"/>
    <path fill="#060606" opacity=".76" d="M20.614 23.82c.291-.069.533-.256.792-.395-.183.284-.466.48-.789.575H3.496l.204-.082c4.631-.088 9.267-.012 13.9-.038 1.004-.028 2.016.069 3.014-.06z"/>
    <path fill="#767676" d="M3.537 23.832c5.692-.033 11.385-.008 17.077-.012-.998.129-2.01.032-3.014.06-4.633.026-9.269-.05-13.9.038l-.163-.086z"/>
</svg>
