<svg xmlns="http://www.w3.org/2000/svg" width="24" height="24">
    <path fill="#c0111e" d="M.5 10.394C1.262 4.865 6.391.183 12.046.377c5.617-.29 10.914 4.266 11.708 9.787.288 2.05.13 4.184-.612 6.127-1.092 2.934-3.429 5.373-6.308 6.6-2.617 1.134-5.649 1.235-8.36.379-4.126-1.337-7.303-5.098-7.973-9.378v-3.498zm5.626-5.457c.732.662 1.337 1.567 2.191 2.032l-.089.071c.739.745 1.481 1.486 2.22 2.229 1.622 1.63 3.249 3.255 4.878 4.878.211.208.421.418.631.627l.335.344c.149.157.286.342.488.435.359.446.773.843 1.205 1.219.079.183.267.283.415.404.242.362.603.626.899.943 1.955-2.292 2.684-5.552 1.882-8.457-.8-3.089-3.307-5.652-6.374-6.532-2.959-.895-6.318-.185-8.68 1.806zm-3.27 6.276c-.397 3.619 1.574 7.334 4.769 9.066 3.291 1.885 7.703 1.447 10.568-1.037-.212-.214-.423-.427-.637-.638l-.299-.275c-.179-.183-.323-.426-.567-.525a18.057 18.057 0 0 0-.396-.474c-.361-.346-.706-.708-1.074-1.045a28.065 28.065 0 0 1-.292-.308l-.302-.294.053-.126-.245.076.092-.066a23.06 23.06 0 0 0-.53-.508c-.483-.452-.906-.972-1.428-1.38-.394-.525-.903-.944-1.353-1.418l-.054.087c-.019-.065-.06-.192-.08-.257-.8-.713-1.515-1.517-2.297-2.249-.473-.474-.955-.941-1.416-1.426l-.207-.196c-.414-.333-.701-.914-1.248-1.021l.192-.057c-.363-.357-.728-.713-1.086-1.074-1.216 1.448-1.994 3.262-2.163 5.148z"/>
    <path fill="#fff" d="M6.126 4.937c2.362-1.99 5.72-2.701 8.68-1.806 3.067.88 5.573 3.443 6.374 6.532.803 2.905.074 6.164-1.882 8.457-.295-.317-.657-.581-.899-.943.043-1.146-.944-2.162-2.108-2.058l-.335-.344a2.622 2.622 0 0 1 2.305.734 41.087 41.087 0 0 1-.003-.993l-.878-.746c-.636.014-1.271.025-1.906.046l-.147.332a1602.433 1602.433 0 0 1-4.878-4.878c1.265.001 2.53-.005 3.795.003.065-.761.751-1.439 1.544-1.263.623.085.984.675 1.081 1.249.854-.007 1.707-.011 2.56-.015a15.19 15.19 0 0 1-.574-2.094c-.796-.111-1.614-.074-2.399-.24-.577-.47-1.032-1.074-1.571-1.588h-4.738c-.616.542-1.198 1.124-1.828 1.648-.854-.465-1.458-1.37-2.191-2.032zm9.134 3.397c-.719.188-.932 1.241-.327 1.683.541.508 1.526.109 1.589-.623.121-.678-.616-1.294-1.262-1.061z"/>
    <path fill="#fff" d="M8.815 6.932c.468-.435.944-.858 1.417-1.286l1.974.001.001 1.287c-1.131 0-2.262.005-3.393-.002zM12.619 5.639c.515 0 1.029-.001 1.544.002.16.429.323.857.487 1.286h-2.031V5.639zM2.856 11.213c.17-1.886.948-3.7 2.163-5.148.358.361.722.718 1.086 1.074l-.192.057c-.266.037-.532.079-.797.119-.074.655-.213 1.311-.154 1.974.548 0 1.096.008 1.644.008.087-.404.278-.772.555-1.08l.207.196c-.431.404-.594 1.148-.098 1.571.438.443 1.116.246 1.515-.145.782.732 1.497 1.536 2.297 2.249-.223.241-.439.49-.651.743a22.17 22.17 0 0 0-1.227-.272c-.104.332-.079.675.022 1.003l.445.041c-.343.518-.686 1.038-1.026 1.56-.8-.274-1.871-.194-2.296.648-.871 1.008-.3 2.755 1.008 3.031 1.272.37 2.486-.851 2.44-2.088-.052-.543-.396-.993-.775-1.361.336-.499.667-1.003 1.025-1.486.139.198.274.397.425.588l-.392.217c.175.749.341 1.502.514 2.253.063.412.398.763.787.886 1.154.065 2.312.058 3.468.098.567.902 1.795 1.21 2.711.653.214.212.426.425.637.638-2.865 2.484-7.277 2.922-10.568 1.037-3.196-1.732-5.167-5.446-4.769-9.066z"/>
    <path fill="#fff" d="M11.161 12.346l.054-.087c.449.474.959.893 1.353 1.418-.649-.436-1.417-.503-2.148-.242.249-.362.513-.713.74-1.089zM11.097 14.966c.966.025 1.934.235 2.898.092.179.166.355.336.53.508l-.092.066c-.354.251-.675.546-1.008.824-.777-.497-1.555-.989-2.329-1.49zM16.779 15.554c.593.175 1.025.634 1.205 1.219a9.772 9.772 0 0 1-1.205-1.219zM6.478 16.863c.071-.85.995-1.355 1.783-1.135-.182.335-.413.653-.8.758-.599.29-.25 1.291.398 1.198.614-.028.787-.796.43-1.22.121-.172.242-.344.365-.515.709.601.629 1.863-.245 2.263-.892.511-2.1-.338-1.931-1.348zM14.625 15.682l.302.294a5.024 5.024 0 0 0-.326 1.115l-.392-.007c.053-.489.203-.96.415-1.403z"/>
    <path fill="#fff" d="M10.87 16.529c.245-.286.49-.573.752-.845-.205.44-.454.874-.499 1.368.318.182.637.438 1.029.391.96-.067 1.956.046 2.875-.3.055-.289.12-.575.192-.859.368.337.713.698 1.074 1.045-.145.062-.29.126-.434.189.272.108.55.199.83.285.245.1.388.342.567.525-.777.315-1.677.055-2.105-.678-.98.272-2.003.091-3.002.117-.465.042-.834-.273-1.208-.496a93.06 93.06 0 0 1-.072-.742zM7.678 16.574c.325-.113.677.232.572.558-.075.322-.524.452-.754.211-.258-.222-.142-.685.182-.769z"/>
    <path fill="#030303" d="M10.145 5.321h4.738c.539.514.994 1.118 1.571 1.588.785.166 1.603.129 2.399.24.135.713.338 1.408.574 2.094-.852.003-1.706.008-2.56.015-.097-.574-.458-1.164-1.081-1.249-.794-.175-1.48.503-1.544 1.263-1.265-.008-2.53-.002-3.795-.003-.739-.743-1.481-1.484-2.22-2.229l.089-.071c.631-.524 1.212-1.106 1.828-1.648zm-1.33 1.611c1.131.007 2.262.002 3.393.002l-.001-1.287-1.974-.001c-.473.428-.95.851-1.417 1.286zm3.804-1.293v1.288h2.031c-.164-.429-.327-.857-.487-1.286-.515-.003-1.029-.002-1.544-.002zM5.115 7.315c.265-.04.531-.082.797-.119.547.108.833.688 1.248 1.021a2.358 2.358 0 0 0-.555 1.08c-.548 0-1.096-.008-1.644-.008-.059-.663.08-1.319.154-1.974z"/>
    <path fill="#030303" d="M15.26 8.334c.646-.233 1.383.383 1.262 1.061-.063.731-1.048 1.131-1.589.623-.605-.443-.392-1.495.327-1.683zM7.269 9.985c-.496-.423-.333-1.167.098-1.571.461.486.943.952 1.416 1.426-.398.391-1.077.588-1.515.145zM11.08 12.089c.02.065.061.192.08.257-.228.376-.491.727-.74 1.089.73-.26 1.499-.194 2.148.242.522.408.944.928 1.428 1.38-.965.144-1.932-.067-2.898-.092.773.5 1.552.993 2.329 1.49.333-.278.653-.573 1.008-.824l.245-.076-.053.126a4.317 4.317 0 0 0-.415 1.403l.392.007c.069-.383.171-.758.326-1.115.096.103.194.206.292.308-.072.284-.137.571-.192.859-.919.346-1.915.233-2.875.3-.392.048-.711-.208-1.029-.391.045-.494.294-.927.499-1.368-.262.272-.507.558-.752.845l.072.742c.374.223.743.538 1.208.496 1-.026 2.022.155 3.002-.117.428.734 1.328.993 2.105.678l.299.275c-.916.557-2.144.249-2.711-.653-1.156-.041-2.314-.034-3.468-.098-.388-.123-.723-.474-.787-.886-.173-.751-.338-1.503-.514-2.253.13-.074.262-.146.392-.217-.151-.19-.285-.389-.425-.588-.358.483-.688.987-1.025 1.486.379.368.723.817.775 1.361.046 1.236-1.167 2.458-2.44 2.088-1.308-.275-1.878-2.023-1.008-3.031.425-.841 1.495-.922 2.296-.648.34-.522.683-1.042 1.026-1.56l-.445-.041c-.101-.328-.126-.671-.022-1.003.411.082.822.166 1.227.272.212-.252.428-.502.651-.743zm-4.602 4.774c-.169 1.01 1.039 1.859 1.931 1.348.874-.4.953-1.662.245-2.263l-.365.515c.357.425.183 1.192-.43 1.22-.649.093-.997-.908-.398-1.198.387-.105.618-.423.8-.758-.788-.22-1.712.285-1.783 1.135zm1.2-.289c-.324.084-.44.547-.182.769.23.241.679.111.754-.211.105-.326-.247-.671-.572-.558zM15.473 13.816c.635-.022 1.27-.033 1.906-.046l.878.746c-.001.331-.002.662.003.993a2.625 2.625 0 0 0-2.305-.734c-.209-.209-.42-.419-.631-.627l.147-.332z"/>
    <path fill="#030303" d="M16.291 15.119c1.164-.104 2.151.912 2.108 2.058-.148-.121-.336-.221-.415-.404-.18-.585-.611-1.044-1.205-1.219-.202-.093-.338-.277-.488-.435zM15.86 17.518c.144-.063.289-.127.434-.189.135.156.267.314.396.474-.28-.086-.558-.178-.83-.285z"/>
</svg>
