<svg xmlns="http://www.w3.org/2000/svg" width="24" height="24">
    <path fill="#0c479d" d="M10.723 0h1.242c.004 3.638-.01 7.276.008 10.912-.447.449-.891.899-1.338 1.345a2.18 2.18 0 0 0-2.517-.787 13.677 13.677 0 0 1-.646-1.894c-.196-.462-.762-.19-1.118-.125.303.052.61.072.913.128.142.331.187.695.284 1.041-1.089-.142-2.339.318-3.308-.3.308-.194.622-.377.921-.583-.573-.08-1.153-.039-1.726.031.3.261.603.518.912.767-.167.299-.33.599-.497.896-.879-.29-1.987-.069-2.409.831-.613 1.153.518 2.742 1.823 2.485.81-.063 1.24-.814 1.534-1.477.207.14.382.318.552.5-.116.19-.235.381-.353.57l.442.008.009-.479c.172-.094.344-.185.517-.278.19-1.071 1.307-1.576 2.062-2.221-.304.612-.836 1.196-.71 1.933.03.593.543.959.952 1.313-1.765 1.778-3.549 3.535-5.307 5.319C1.328 18.109.376 15.769 0 13.364v-2.71c.256-1.392.59-2.787 1.252-4.049C3.027 2.974 6.734.486 10.723 0zM12.566 0h.702c2.443.343 4.818 1.311 6.668 2.966-2.468 2.443-4.912 4.91-7.373 7.36.01-3.442.004-6.884.004-10.327zM18.301 7.347a262.513 262.513 0 0 1 2.983-2.987c1.513 1.797 2.38 4.054 2.716 6.364v2.54c-.48 3.993-2.97 7.707-6.605 9.483-1.282.67-2.699 1.011-4.114 1.253h-.713c-.005-3.639.01-7.278-.008-10.917 1.547-1.559 3.103-3.11 4.659-4.66.005.222.009.445.012.667-.467.207-1.066.386-1.169.967-.258 1.037-.758 2.131-.453 3.207.254-.84.433-1.705.814-2.5-.363 1.754.364 3.573-.173 5.29.196.224.386.454.579.681.344-1.286.205-2.637.457-3.939.247 1.103.173 2.237.188 3.359.235-.232.674-.423.586-.822-.064-1.449.277-2.881.207-4.33.357.939.716 1.878 1.057 2.823-.039.383-.189.743-.304 1.11.31.459.381 1.028.235 1.557l.377.106c.053-.48.093-.963.168-1.44.198.447.363.908.578 1.349.005-.74.022-1.477.112-2.211.163.292.338.579.522.86a7.285 7.285 0 0 0-.702-2.033c.102-.303.27-.605.239-.933-.136-.361-.664-.318-.884-.057-.021.352.056.699.117 1.043l-.562-.17a26.983 26.983 0 0 1-.506-2.919c-.031-.473-.485-.7-.81-.965a3.44 3.44 0 0 0 .399-1.773z"/>
    <path fill="#0c479d" d="M4.586 10.809c1.027.001 2.053-.005 3.08.005l.151.406c-.681.562-1.304 1.192-2.027 1.702.077-.243.153-.487.244-.724a44.896 44.896 0 0 1-.373-.013 9.64 9.64 0 0 1-.053.677c-.471-.613-.691-1.364-1.021-2.053zM3.994 11.517c.138-.217.273-.434.411-.65.288.65.577 1.3.869 1.949-.132.121-.262.245-.389.372-.124-.638-.39-1.239-.891-1.671zM1.792 12.356c.355-.667 1.187-.807 1.861-.622-.196.524-.711.955-.783 1.49.536.008 1.073.005 1.61.055-.213.646-.746 1.256-1.483 1.212-1.043.039-1.767-1.26-1.205-2.134zM8.251 11.829c.792-.361 1.717-.113 2.168.643l-1.951 1.95a1.62 1.62 0 0 1-.385-2.455c.224.547.468 1.161 1.114 1.307a3.363 3.363 0 0 1-.946-1.445z"/>
    <path fill="#0c479d" d="M3.835 11.85c.343.337.574.764.659 1.239a42.379 42.379 0 0 1-1.329-.095c.218-.385.438-.768.67-1.144zM4.36 21.284c2.528-2.546 5.071-5.078 7.607-7.615-.008 3.443-.001 6.887-.003 10.33h-1.23c-2.314-.33-4.574-1.201-6.374-2.716z"/>
    <path fill="#fff" d="M11.965 0h.601c0 3.442.007 6.884-.004 10.327l-.59.586c-.018-3.637-.004-7.274-.008-10.912zM17.219 8.422c.357-.361.72-.719 1.083-1.075a3.442 3.442 0 0 1-.399 1.773c.325.265.779.492.81.965.123.981.277 1.957.506 2.919.188.056.374.112.562.17-.061-.344-.138-.691-.117-1.043.22-.261.749-.304.884.057.031.327-.137.63-.239.933.329.64.574 1.324.702 2.033-.184-.28-.359-.567-.522-.86-.09.734-.107 1.471-.112 2.211-.215-.441-.38-.901-.578-1.349-.076.477-.115.96-.168 1.44a33.99 33.99 0 0 1-.377-.106 1.874 1.874 0 0 0-.235-1.557c.115-.367.265-.727.304-1.11-.34-.944-.699-1.883-1.057-2.823.069 1.449-.271 2.881-.207 4.33.089.399-.351.59-.586.822-.014-1.122.059-2.255-.188-3.359-.252 1.302-.112 2.653-.457 3.939-.193-.227-.383-.457-.579-.681.537-1.718-.189-3.536.173-5.29-.381.796-.56 1.66-.814 2.5-.305-1.076.194-2.17.453-3.207.103-.58.702-.759 1.169-.967a74.185 74.185 0 0 0-.012-.667zM6.353 9.451c.356-.065.922-.337 1.118.125.172.646.381 1.281.646 1.894a2.177 2.177 0 0 1 2.517.787l-.215.215c-.451-.757-1.376-1.004-2.168-.643.188.557.506 1.053.946 1.445-.646-.146-.89-.76-1.114-1.307a1.62 1.62 0 0 0 .385 2.455c-.067.064-.13.129-.196.194-.41-.355-.922-.72-.952-1.313-.127-.737.406-1.321.71-1.933-.755.646-1.872 1.15-2.062 2.221l-.517.278c-.003.159-.007.318-.009.479L5 14.34c.119-.189.237-.38.353-.57a3.318 3.318 0 0 0-.552-.5c-.293.663-.724 1.414-1.534 1.477-1.306.257-2.437-1.332-1.823-2.485.423-.9 1.53-1.12 2.409-.831.167-.297.33-.597.497-.896a31.608 31.608 0 0 1-.912-.767c.573-.07 1.153-.111 1.726-.031-.299.206-.613.389-.921.583.969.618 2.219.158 3.308.3-.098-.346-.142-.71-.284-1.041-.303-.056-.61-.076-.913-.128zm-1.767 1.358c.33.689.55 1.44 1.021 2.053a9.64 9.64 0 0 0 .053-.677l.373.013c-.091.237-.167.481-.244.724.723-.51 1.346-1.14 2.027-1.702a24.32 24.32 0 0 1-.151-.406c-1.027-.01-2.053-.004-3.08-.005zm-.592.708c.501.432.767 1.033.891 1.671.127-.127.257-.25.389-.372-.292-.648-.58-1.299-.869-1.949-.138.215-.273.433-.411.65zm-2.202.839c-.562.874.162 2.173 1.205 2.134.737.044 1.27-.566 1.483-1.212-.536-.05-1.073-.047-1.61-.055.072-.535.587-.965.783-1.49-.674-.185-1.507-.044-1.861.622zm2.043-.506c-.232.376-.453.759-.67 1.144.443.039.886.07 1.329.095a2.295 2.295 0 0 0-.659-1.239zM11.967 13.67l.592-.587c.018 3.639.003 7.278.008 10.917h-.603c.001-3.443-.005-6.887.003-10.33z"/>
    <path fill="#ce252c" d="M12.562 10.327c2.461-2.451 4.906-4.917 7.373-7.36.488.427.939.893 1.349 1.394a262.513 262.513 0 0 0-2.983 2.987 1279.314 1279.314 0 0 0-5.742 5.735l-.592.587c-2.536 2.537-5.079 5.069-7.607 7.615a11.863 11.863 0 0 1-1.396-1.349c1.758-1.784 3.543-3.541 5.307-5.319.065-.065.129-.13.196-.194l1.951-1.95.215-.215c.447-.446.891-.896 1.338-1.345l.59-.586z"/>
</svg>
