<svg xmlns="http://www.w3.org/2000/svg" width="24" height="24">
    <path fill="#03559b" d="M10.657 0h2.661c1.146.222 2.303.447 3.375.925 3.966 1.626 6.769 5.508 7.307 9.732v2.662c-.222 1.144-.448 2.301-.927 3.372-1.626 3.966-5.506 6.77-9.73 7.308h-2.662c-1.146-.222-2.301-.448-3.372-.927C3.343 21.446.539 17.566.001 13.34v-2.659C.525 6.446 3.337 2.554 7.309.924 8.373.447 9.523.228 10.658-.001zm.076 3.945c-1.816.191-3.679.885-4.897 2.297-.839.952-1.161 2.368-.653 3.554.673 1.6 2.29 2.561 3.887 3.051 2.368.671 5.036.488 7.193-.746 1.176-.684 2.238-1.799 2.381-3.209.153-1.303-.583-2.55-1.58-3.336-1.766-1.398-4.129-1.83-6.33-1.611zm-5.796 8.396c-.007.757-.007 1.514 0 2.271 4.575.007 9.152.006 13.727 0 .007-.757.007-1.514 0-2.271-.658.028-1.336-.078-1.98.051-2.947 1.727-6.842 1.723-9.786-.007-.642-.112-1.31-.022-1.962-.044zm.916 2.717c-.01 1.371-.006 2.743-.001 4.113.53.008 1.06.01 1.59 0 0-1.371.006-2.741-.003-4.112a76.226 76.226 0 0 0-1.586-.001zm2.057.002c-.003 1.371-.006 2.741.001 4.112.529.007 1.057.007 1.587-.001.008-.567.001-1.136.006-1.704.469-.012.938-.015 1.405.004.379.706 1.396.72 1.773.004.47-.026.943-.021 1.415-.008.004.567-.001 1.135.006 1.704.529.008 1.057.008 1.584 0 .007-1.369.007-2.74 0-4.111a52.275 52.275 0 0 0-1.584 0c-.007.57-.001 1.139-.004 1.708-.469.008-.938.011-1.405 0-.373-.732-1.416-.72-1.792.001-.465.008-.931.006-1.396.001-.007-.572.003-1.142-.01-1.713a76.227 76.227 0 0 0-1.586.003zm8.25 4.103c.53.021 1.06.018 1.59.01.006-1.372.004-2.743.001-4.113a76.226 76.226 0 0 0-1.586-.001c-.014 1.368-.003 2.737-.006 4.105z"/>
    <path fill="#fff" d="M10.733 3.945c2.202-.219 4.564.212 6.33 1.611.997.787 1.733 2.034 1.58 3.336-.143 1.409-1.204 2.525-2.381 3.209-2.157 1.235-4.825 1.418-7.193.746-1.597-.49-3.214-1.451-3.887-3.051-.508-1.186-.186-2.603.653-3.554 1.218-1.412 3.081-2.106 4.897-2.297zm-3.38 4.612c1.482 1.486 2.965 2.969 4.448 4.453l4.448-4.45A406.066 406.066 0 0 0 11.8 4.107a582.917 582.917 0 0 0-4.446 4.45z"/>
    <path fill="#fff" d="M4.937 12.341c.652.022 1.319-.068 1.962.044 2.944 1.73 6.839 1.734 9.786.007.644-.129 1.322-.024 1.98-.051.007.757.007 1.514 0 2.271-4.575.006-9.152.007-13.727 0-.007-.757-.007-1.514 0-2.271zM5.853 15.058a93.165 93.165 0 0 1 1.586.001c.008 1.371.003 2.741.003 4.112-.53.01-1.06.008-1.59 0-.004-1.371-.008-2.743.001-4.113zM7.91 15.06a76.227 76.227 0 0 1 1.586-.003c.012.572.003 1.142.01 1.713.465.004.931.007 1.396-.001.376-.721 1.419-.734 1.792-.001.468.011.936.008 1.405 0 .003-.569-.003-1.138.004-1.708a52.275 52.275 0 0 1 1.584 0c.007 1.371.007 2.741 0 4.111-.527.008-1.056.008-1.584 0-.007-.569-.001-1.136-.006-1.704a17.566 17.566 0 0 0-1.415.008c-.377.716-1.394.702-1.773-.004a20.567 20.567 0 0 0-1.405-.004c-.004.567.003 1.136-.006 1.704-.53.008-1.059.008-1.587.001-.007-1.371-.004-2.741-.001-4.112zM16.16 19.163c.003-1.368-.008-2.737.006-4.105a93.165 93.165 0 0 1 1.586.001c.003 1.371.004 2.741-.001 4.113-.53.008-1.06.011-1.59-.01z"/>
    <path fill="#ff6903" d="M7.353 8.557a582.933 582.933 0 0 1 4.446-4.45 397.422 397.422 0 0 1 4.449 4.453L11.8 13.01c-1.483-1.484-2.966-2.967-4.448-4.453z"/>
</svg>
