<svg xmlns="http://www.w3.org/2000/svg" width="24" height="24">
    <path fill="red" d="M11.027 0h1.912c1.462.199 2.924.517 4.255 1.175 3.812 1.788 6.427 5.689 6.806 9.864v1.578c-.15 2.248-.887 4.463-2.201 6.301-2.008 2.894-5.341 4.729-8.827 5.082H11.06c-4.057-.368-7.876-2.836-9.72-6.491C.589 16.103.21 14.537 0 12.966v-1.9c.361-4.187 2.986-8.101 6.806-9.893C8.126.52 9.577.207 11.026-.001zm-.057 2.462c-3.359.308-6.445 2.54-7.794 5.629-1.262 2.777-1.081 6.156.485 8.774 1.776 3.096 5.387 5.012 8.948 4.723 3.696-.217 7.105-2.789 8.345-6.275.964-2.599.724-5.611-.652-8.018-1.795-3.271-5.623-5.255-9.332-4.834z"/>
    <path fill="#fff" d="M10.97 2.462c3.709-.421 7.537 1.562 9.332 4.834 1.375 2.407 1.615 5.419.652 8.018-1.24 3.486-4.649 6.058-8.345 6.275-3.562.289-7.172-1.627-8.948-4.723-1.566-2.618-1.747-5.998-.485-8.774 1.349-3.089 4.435-5.321 7.794-5.629zm-5.107 3.85l.001.797c.244-.032.566.037.655-.269.263-.007.526-.008.79-.01-.487 1.16-.978 2.32-1.462 3.481h.589c.464-1.343 1.326-2.58 1.505-3.998-.692-.002-1.385-.001-2.078-.001zm3.293.084c-1.049.479-.512 1.835-.643 2.729-.173.87.906 1.552 1.603 1 .713-.646.277-1.732.398-2.572.143-.748-.623-1.498-1.358-1.157zm5.304.628c-.336.286-.442.749-.596 1.144.395-.157.5-.593.703-.923.732-.007 1.466-.043 2.196.011.212.292.326.641.515.947-1.206-.06-2.606-.384-3.686.274.296.044.596.073.882.169-.272.048-.548.062-.824.078l.001.194c.276.016.551.03.824.077-.295.109-.611.136-.914.206 1.421.096 2.869.106 4.289-.011-.31-.065-.632-.071-.928-.191.306-.064.648-.026.911-.226-.301-.061-.613-.067-.905-.173.281-.053.568-.07.852-.089a5.211 5.211 0 0 0-.403-.34c-.052-.466-.198-1.229-.803-1.198-.702.011-1.42-.068-2.113.049zm-.93 2.352l-.008.277c1.466.018 2.94.066 4.404-.029-.118-.181-.278-.349-.516-.295-1.292.049-2.592-.046-3.88.047zm.253.384l.008.544c.234.004.467.006.701.005.008-.181.018-.364.025-.545-.245-.002-.49-.004-.734-.004zm3.048.002c.008.182.018.365.029.546.229.002.458.002.688.001l.024-.548-.74.001zm-3.601 2.123l.001 3.868h4.886v-3.868a24.566 24.566 0 0 0-4.888 0zm-7.254 1.851c0 .667-.002 1.334.002 2.003.43.042 1.117-.482 1.325.115-.006.426.229 1.183-.343 1.322-.416.082-.509-.367-.568-.67-.182.004-.365.007-.546.012.052.377.146.803.509 1.004.575.41 1.493-.029 1.514-.74 0-.514.144-1.172-.308-1.546-.287-.258-.69-.186-1.037-.131.005-.292.006-.583.007-.875h1.273v-.496H5.975zm3.299-.02c-1.205.398-.631 1.914-.76 2.854-.167 1.026 1.36 1.537 1.85.637.305-.77.083-1.644.145-2.455.065-.653-.598-1.236-1.236-1.036zm3.95 2.263l.01.397c1.627-.002 3.256 0 4.883-.001l.001-.398c-1.631 0-3.263-.005-4.894.002zm.178.563c-.012.378-.012.757-.001 1.136.167-.004.334-.006.5-.011.006-.374.006-.749-.002-1.124l-.497-.001zm.659.005c-.008.373-.008.748-.002 1.121.164.005.329.007.493.011l.025-.473c.373.001.754.001 1.108.137.342-.139.714-.134 1.076-.137l.022.469.498-.006c.005-.374.004-.749-.007-1.123-.163-.002-.326-.002-.49-.002a678.7 678.7 0 0 0-.024.46c-.359-.005-.725.001-1.069-.119-.36.115-.739.115-1.114.118l-.026-.463-.49.008zm3.38-.004c-.012.377-.012.755-.001 1.132.167 0 .334-.002.5-.007.005-.376.005-.751-.004-1.126l-.496.001z"/>
    <path fill="#fff" d="M9.286 6.877c.308-.184.702.084.666.433-.006.748.067 1.508-.046 2.248-.192.502-.961.19-.835-.311.103-.769-.247-1.722.215-2.37zM15.088 8.598c.39-.007.78-.007 1.171-.004l.018.4c-.395.016-.79.016-1.183.013l-.006-.409zM9.4 14.197c.276-.089.563.154.548.437.008.749.055 1.508-.03 2.254-.101.433-.805.346-.83-.086-.04-.721-.023-1.447-.01-2.17a.422.422 0 0 1 .322-.434z"/>
    <path d="M5.863 6.312c.694 0 1.386-.001 2.078.001-.179 1.418-1.04 2.656-1.505 3.998h-.589c.484-1.162.974-2.321 1.462-3.481-.264.001-.527.002-.79.01-.089.306-.412.236-.655.269l-.001-.797zM9.156 6.396c.736-.341 1.501.409 1.358 1.157-.121.84.314 1.926-.398 2.572-.697.552-1.776-.13-1.603-1 .131-.894-.406-2.25.643-2.729zm.13.481c-.462.648-.112 1.601-.215 2.37-.126.5.643.812.835.311.113-.739.04-1.5.046-2.248.036-.349-.358-.617-.666-.433zM14.46 7.024c.694-.118 1.411-.038 2.113-.049.605-.031.751.732.803 1.198.139.106.275.22.403.34-.284.019-.571.036-.852.089.292.106.604.112.905.173-.263.199-.605.162-.911.226.295.12.618.126.928.191-1.42.116-2.868.107-4.289.011.304-.071.619-.097.914-.206-.274-.047-.548-.061-.824-.077l-.001-.194c.276-.016.552-.03.824-.078-.286-.096-.586-.125-.882-.169 1.08-.658 2.48-.334 3.686-.274-.188-.306-.302-.655-.515-.947-.73-.054-1.464-.018-2.196-.011-.203.33-.308.766-.703.923.155-.395.26-.858.596-1.144zm.628 1.574l.006.409c.394.002.788.002 1.183-.013l-.018-.4a38.082 38.082 0 0 0-1.171.004zM13.783 9.76c.245 0 .49.001.734.004-.007.181-.017.364-.025.545-.234.001-.467-.001-.701-.005a48.979 48.979 0 0 1-.008-.544zM16.831 9.762l.74-.001-.024.548a52.62 52.62 0 0 1-.688-.001c-.011-.181-.02-.364-.029-.546zM13.23 11.885a24.566 24.566 0 0 1 4.888 0v3.868h-4.886l-.001-3.868zM5.976 13.736h1.829v.496H6.532c-.001.292-.002.583-.007.875.347-.055.75-.127 1.037.131.452.373.308 1.032.308 1.546-.022.712-.94 1.151-1.514.74-.362-.202-.457-.628-.509-1.004.181-.005.364-.008.546-.012.059.302.151.751.568.67.572-.139.337-.896.343-1.322-.208-.598-.895-.073-1.325-.115-.005-.668-.002-1.336-.002-2.003zM9.275 13.716c.638-.2 1.301.383 1.236 1.036-.062.811.16 1.685-.145 2.455-.491.9-2.017.389-1.85-.637.128-.94-.445-2.455.76-2.854zm.125.481a.424.424 0 0 0-.322.434c-.013.722-.03 1.448.01 2.17.025.432.73.52.83.086.085-.745.038-1.505.03-2.254.014-.283-.272-.526-.548-.437zM13.225 15.979c1.631-.007 3.263-.002 4.894-.002l-.001.398c-1.627.001-3.256-.001-4.883.001l-.01-.397zM13.403 16.542l.497.001c.008.376.008.75.002 1.124-.167.005-.334.007-.5.011-.011-.379-.011-.758.001-1.136zM14.062 16.547c.163-.004.326-.006.49-.008.01.155.018.31.026.463.374-.002.754-.002 1.114-.118.344.12.71.114 1.069.119l.024-.46c.163 0 .326 0 .49.002.011.374.012.749.007 1.123l-.498.006-.022-.469c-.362.002-.734-.002-1.076.137-.354-.136-.734-.136-1.108-.137l-.025.473c-.164-.004-.329-.006-.493-.011-.006-.373-.006-.748.002-1.121zM17.442 16.543l.496-.001c.008.374.008.75.004 1.126a16.72 16.72 0 0 1-.5.007c-.011-.377-.011-.755.001-1.132z"/>
    <path fill="#020202" d="M13.53 9.376c1.288-.092 2.587.002 3.88-.047.238-.054.398.114.516.295-1.464.095-2.938.047-4.404.029l.008-.277z"/>
</svg>
