<svg xmlns="http://www.w3.org/2000/svg" width="24" height="24">
    <path fill="#c0111e" d="M10.98 0h2.021c1.38.208 2.766.486 4.033 1.096C20.927 2.83 23.598 6.773 24 10.989v2c-.175 1.079-.352 2.168-.75 3.193-1.2 3.298-3.934 5.984-7.248 7.134-.961.353-1.976.512-2.982.684h-2.021c-1.013-.167-2.034-.329-3.001-.683-3.317-1.15-6.05-3.838-7.25-7.136-.396-1.016-.57-2.096-.748-3.167v-2.01C.388 6.84 2.99 2.94 6.805 1.17 8.111.518 9.547.216 10.98 0zm-.012 2.339a9.7 9.7 0 0 0-6.253 3.217c-2.69 2.968-3.2 7.638-1.234 11.124 1.738 3.25 5.452 5.293 9.128 5.011 3.698-.18 7.14-2.699 8.444-6.161 1.099-2.803.809-6.115-.799-8.665-1.89-3.13-5.659-4.95-9.287-4.526z"/>
    <path fill="#fff" d="M10.968 2.339c3.628-.424 7.397 1.397 9.287 4.526 1.608 2.55 1.898 5.862.799 8.665-1.304 3.462-4.746 5.981-8.444 6.161-3.677.282-7.391-1.762-9.128-5.011-1.967-3.486-1.457-8.156 1.234-11.124a9.7 9.7 0 0 1 6.253-3.217zM5.686 13.603c-.458-.073-.918-.166-1.385-.146.03.221.082.444.216.629.764 1.193 1.513 2.396 2.273 3.592.756-1.193 1.502-2.394 2.267-3.582.134-.191.186-.42.228-.644-.469-.011-.931.078-1.392.152l-.001-7.291H5.688l-.001 7.291zm5.486-7.291l-.001 7.291c-.457-.073-.917-.16-1.382-.158.022.206.066.416.185.593.772 1.211 1.534 2.428 2.302 3.641.788-1.254 1.584-2.504 2.37-3.76.119-.148.065-.336.065-.506-.446.052-.889.119-1.332.192V6.313h-2.206zm6.04.002c-.76 1.196-1.507 2.399-2.269 3.593-.11.191-.277.402-.162.632.448.04.888-.083 1.328-.144v7.284h2.204c.002-2.428 0-4.855.001-7.283.454.071.91.167 1.372.148a1.195 1.195 0 0 0-.2-.63c-.766-1.195-1.512-2.402-2.274-3.6z"/>
    <path d="M5.686 13.603l.001-7.291h2.204l.001 7.291c.461-.074.923-.163 1.392-.152-.042.224-.094.454-.228.644-.764 1.188-1.511 2.389-2.267 3.582-.76-1.195-1.508-2.399-2.273-3.592-.134-.185-.186-.408-.216-.629.467-.019.926.073 1.385.146zM11.172 6.312h2.206v7.292c.443-.073.886-.14 1.332-.192 0 .17.054.359-.065.506-.786 1.255-1.582 2.506-2.37 3.76-.768-1.213-1.53-2.43-2.302-3.641-.119-.176-.163-.386-.185-.593.466-.001.925.085 1.382.158l.001-7.291zM17.212 6.314c.762 1.198 1.508 2.405 2.274 3.6.13.185.19.406.2.63-.462.019-.918-.077-1.372-.148-.001 2.428.001 4.855-.001 7.283h-2.204v-7.284c-.44.061-.881.184-1.328.144-.115-.23.052-.442.162-.632.762-1.194 1.51-2.396 2.269-3.593z"/>
</svg>
