<svg xmlns="http://www.w3.org/2000/svg" width="24" height="24">
    <path d="M10.834 0h2.314c1.7.336 3.538.641 4.925 1.75-3.69-2.15-8.455-2.152-12.145 0C7.308.641 9.142.342 10.835 0zM22.249 5.929c1.104 1.386 1.414 3.214 1.751 4.909v2.304c-.276 1.169-.343 2.447-1.021 3.474 1.4-3.443 1.13-7.468-.73-10.687zM8.148 6.089c.581-.002 1.162.001 1.744-.005.024 2.364.001 4.729.011 7.093.496-.156.974-.374 1.488-.467.314.106.311.521.143.752-.764 1.358-1.513 2.725-2.286 4.078-.07.199-.325.264-.421.049-.796-1.376-1.558-2.774-2.336-4.16-.149-.221-.136-.572.121-.708.535.047 1.025.305 1.535.458.002-2.364-.001-4.727.002-7.091zM4.996 21.629c1.064.678 2.168 1.316 3.383 1.685 3.024.995 6.397.635 9.218-.805-1.266.96-2.917 1.166-4.43 1.492h-2.315c-2.071-.364-4.273-.914-5.856-2.371z"/>
    <path fill="#fff" d="M5.927 1.75c3.69-2.152 8.455-2.15 12.145 0 .318.214.638.424.96.631.128.198.31.353.533.434l.049.028a250.04 250.04 0 0 0 1.544 1.546l.026.049c.083.221.235.403.432.533.208.322.419.641.632.959 1.86 3.22 2.13 7.244.73 10.687l-.056.118a7.994 7.994 0 0 0-.54 1.094l-.07.114a.737.737 0 0 0-.284.436l-.054.134a7.066 7.066 0 0 0-.796 1.081 1.22 1.22 0 0 1-.032.037c-.487.454-.949.935-1.411 1.415l-.131.121a7.45 7.45 0 0 0-1.094.806l-.119.064a.664.664 0 0 0-.455.272c-.114.065-.227.132-.34.199-2.821 1.44-6.194 1.8-9.218.805-1.214-.368-2.318-1.007-3.383-1.685a.555.555 0 0 1-.032-.035 1.051 1.051 0 0 0-.54-.408.442.442 0 0 1-.035-.025c-.505-.528-1.028-1.038-1.552-1.549l-.023-.035a1.024 1.024 0 0 0-.426-.548c-.21-.324-.422-.646-.638-.966a14.12 14.12 0 0 0-.674-1.327l-.056-.122a12.726 12.726 0 0 1-.356-8.274l.072-.2c.316-.744.655-1.477 1.01-2.203.216-.32.427-.644.635-.972a.575.575 0 0 0 .325-.432l.133-.143c.521-.511 1.034-1.03 1.548-1.547l.049-.026c.223-.083.404-.238.534-.436.32-.208.64-.416.958-.63zM11.094.436C7.109.701 3.392 3.216 1.63 6.794c-1.789 3.504-1.609 7.919.476 11.257 2.024 3.36 5.849 5.538 9.774 5.55 3.859.067 7.667-1.961 9.78-5.188 1.649-2.453 2.286-5.55 1.758-8.455-.551-3.198-2.531-6.11-5.291-7.812C16.047.839 13.538.244 11.094.436z"/>
    <path fill="#fff" d="M10.484 3.533c4.062-.814 8.423 1.774 9.666 5.72 1.366 3.805-.425 8.377-3.988 10.27-3.392 1.961-8.048 1.158-10.592-1.818-2.68-2.903-2.891-7.682-.49-10.817a8.61 8.61 0 0 1 5.404-3.355zM8.148 6.089c-.004 2.364 0 4.727-.002 7.091-.51-.154-1-.412-1.535-.458-.257.136-.27.487-.121.708.779 1.386 1.541 2.784 2.336 4.16.096.215.352.15.421-.049.773-1.352 1.522-2.719 2.286-4.078.168-.232.172-.647-.143-.752-.514.092-.992.311-1.488.467-.01-2.364.013-4.729-.011-7.093-.582.006-1.163.002-1.744.005zm4.872 3.684c-.186.391-.718.953-.229 1.324.538-.023 1.028-.307 1.543-.449.007 2.359 0 4.718.004 7.078.583.005 1.168.004 1.751.002.007-2.36-.001-4.721.005-7.08.505.15.99.402 1.519.456.4-.216.172-.702-.014-.984-.81-1.348-1.468-2.795-2.366-4.085-.904 1.123-1.448 2.51-2.212 3.738z"/>
    <path fill="#d40000" d="M11.094.436c2.444-.192 4.954.403 7.033 1.71 2.76 1.702 4.74 4.614 5.291 7.812.528 2.905-.109 6.002-1.758 8.455-2.113 3.227-5.921 5.255-9.78 5.188-3.925-.012-7.75-2.19-9.774-5.55C.02 14.713-.16 10.298 1.63 6.794 3.393 3.217 7.109.702 11.094.436zm-.61 3.097A8.61 8.61 0 0 0 5.08 6.888c-2.401 3.134-2.19 7.914.49 10.817 2.544 2.976 7.2 3.779 10.592 1.818 3.563-1.892 5.353-6.464 3.988-10.27-1.243-3.947-5.604-6.534-9.666-5.72z"/>
    <path fill="#d40000" d="M13.02 9.773c.763-1.228 1.308-2.615 2.212-3.738.899 1.29 1.556 2.737 2.366 4.085.186.282.414.768.014.984-.529-.054-1.014-.306-1.519-.456-.006 2.359.002 4.72-.005 7.08-.583.001-1.168.002-1.751-.002-.004-2.359.004-4.718-.004-7.078-.515.142-1.006.426-1.543.449-.488-.371.043-.932.229-1.324z"/>
    <path fill="#323232" opacity=".91" d="M4.435 2.815c.01-.284.283-.419.534-.436-.13.198-.311.353-.534.436z"/>
    <path fill="#303030" opacity=".9" d="M19.032 2.381c.25.017.523.15.533.434a1.083 1.083 0 0 1-.533-.434z"/>
    <path fill="#323232" opacity=".88" d="M2.838 4.388a3.741 3.741 0 0 1 1.548-1.547c-.514.517-1.027 1.036-1.548 1.547z"/>
    <path fill="#313131" opacity=".87" d="M19.614 2.843c.653.34 1.205.894 1.544 1.546a204.605 204.605 0 0 1-1.544-1.546z"/>
    <path fill="#2f2f2f" opacity=".9" d="M21.185 4.438c.284.008.419.282.432.533a1.103 1.103 0 0 1-.432-.533z"/>
    <path fill="#252525" opacity=".88" d="M2.38 4.963a.43.43 0 0 1 .325-.432.575.575 0 0 1-.325.432z"/>
    <path fill="#212121" opacity=".82" d="M.734 8.138a4.106 4.106 0 0 1 1.01-2.203 44.643 44.643 0 0 0-1.01 2.203z"/>
    <path fill="#1a1a1a" opacity=".84" d="M0 10.822c.214-.828.192-1.741.662-2.483a12.733 12.733 0 0 0 .356 8.274C.33 15.612.27 14.345-.001 13.194v-2.372z"/>
    <path fill="#212121" opacity=".83" d="M1.075 16.735c.25.43.472.874.674 1.327-.385-.343-.602-.821-.674-1.327z"/>
    <path fill="#212121" opacity=".84" d="M22.382 17.828c.154-.378.331-.745.54-1.094a1.65 1.65 0 0 1-.54 1.094z"/>
    <path fill="#2c2c2c" opacity=".91" d="M22.028 18.378a.745.745 0 0 1 .284-.436c.023.186-.054.443-.284.436z"/>
    <path fill="#232323" opacity=".82" d="M21.179 19.594a7 7 0 0 1 .796-1.081 2.003 2.003 0 0 1-.796 1.081z"/>
    <path fill="#2b2b2b" opacity=".87" d="M2.388 19.028c.203.128.35.32.426.548a.53.53 0 0 1-.426-.548z"/>
    <path fill="#2a2a2a" opacity=".85" d="M2.837 19.612c.523.511 1.046 1.021 1.552 1.549a3.779 3.779 0 0 1-1.552-1.549z"/>
    <path fill="#2c2c2c" opacity=".86" d="M19.735 21.046c.462-.48.924-.961 1.411-1.415-.314.596-.804 1.112-1.411 1.415z"/>
    <path fill="#282828" opacity=".87" d="M4.423 21.186c.218.077.412.212.54.408-.272.053-.479-.162-.54-.408z"/>
    <path fill="#222" opacity=".82" d="M18.51 21.973c.34-.301.706-.571 1.094-.806a2.027 2.027 0 0 1-1.094.806z"/>
    <path fill="#2a2a2a" opacity=".91" d="M17.936 22.309a.664.664 0 0 1 .455-.272.371.371 0 0 1-.455.272z"/>
</svg>
