<svg xmlns="http://www.w3.org/2000/svg" width="24" height="24">
    <path fill="#e20a16" d="M11.104 0h1.514c4.525.223 8.773 3.185 10.469 7.397.498 1.138.727 2.362.913 3.581v2.084c-.419 4.201-3.101 8.11-6.977 9.841-1.228.599-2.574.871-3.911 1.097h-2.177c-4.013-.422-7.775-2.874-9.596-6.5C.546 15.992.138 14.312 0 12.62v-1.225C.229 6.648 3.496 2.223 8.004.69c1.001-.362 2.054-.521 3.1-.689zM8.166 2.772a10.029 10.029 0 0 0-5.173 4.902c-1.679 3.404-1.168 7.742 1.272 10.655 1.247-1.25 2.502-2.492 3.742-3.75l.002 2.828a189.74 189.74 0 0 1-2.33 2.332c2.722 2.285 6.698 2.904 9.991 1.573a10.072 10.072 0 0 0 5.314-4.903c1.73-3.416 1.211-7.783-1.22-10.733-.851.827-1.686 1.669-2.519 2.514a4.018 4.018 0 0 0-1.44-1.412c.853-.832 1.697-1.674 2.528-2.527-2.785-2.299-6.841-2.89-10.166-1.478z"/>
    <path fill="#e20a16" d="M13.83 8.772c.752.023 1.404.631 1.442 1.391-.468.452-.928.916-1.385 1.381-.935-.02-1.87.007-2.804-.019.904-.929 1.826-1.841 2.747-2.753zM10.484 14.076c.29-.002.581-.004.872-.004-.295.289-.588.582-.876.877 0-.292.001-.582.004-.874z"/>
    <path fill="#fff" d="M8.166 2.772c3.325-1.411 7.381-.821 10.166 1.478-.832.853-1.675 1.696-2.528 2.527a4.285 4.285 0 0 0-2.12-.535c-1.891-.005-3.782-.002-5.675 0-.004 2.779.001 5.557-.002 8.336-1.24 1.258-2.495 2.5-3.742 3.75-2.44-2.912-2.951-7.25-1.272-10.655a10.029 10.029 0 0 1 5.173-4.902zM17.244 8.19c.833-.845 1.668-1.687 2.519-2.514 2.431 2.95 2.951 7.316 1.22 10.733a10.069 10.069 0 0 1-5.314 4.903c-3.293 1.331-7.27.712-9.991-1.573.782-.77 1.561-1.547 2.33-2.332-.001.41-.001.821.001 1.231.823.004 1.645.004 2.467 0 .006-1.23 0-2.46.004-3.689.288-.295.581-.588.876-.877.895-.01 1.79.018 2.686-.013 1.554-.064 3.006-1.145 3.517-2.612a3.893 3.893 0 0 0-.316-3.257z"/>
    <path fill="#fff" d="M10.481 8.777c1.116-.005 2.233.006 3.349-.005-.92.912-1.843 1.824-2.747 2.753-.2.006-.402.011-.602.013-.002-.92-.001-1.841 0-2.761zM13.888 11.544c.457-.466.917-.929 1.385-1.381a1.495 1.495 0 0 1-1.385 1.381z"/>
    <path d="M8.009 6.242c1.892-.002 3.784-.005 5.675 0a4.285 4.285 0 0 1 2.12.535 4.026 4.026 0 0 1 1.44 1.412c.572.972.7 2.194.316 3.257-.511 1.468-1.963 2.549-3.517 2.612-.895.031-1.79.004-2.686.013-.292 0-.582.001-.872.004-.002.292-.004.582-.004.874-.004 1.229.002 2.459-.004 3.689-.822.004-1.644.004-2.467 0-.002-.41-.002-.821-.001-1.231l-.002-2.828c.004-2.779-.001-5.557.002-8.336zm2.472 2.535c-.001.92-.002 1.841 0 2.761.2-.002.402-.007.602-.013.935.026 1.87-.001 2.804.019a1.497 1.497 0 0 0 1.385-1.381c-.038-.76-.69-1.368-1.442-1.391-1.116.011-2.233 0-3.349.005z"/>
</svg>
