<svg xmlns="http://www.w3.org/2000/svg" width="24" height="24">
    <path fill="#ec1c24" d="M11.207 2.092c3.724-.419 7.556 1.477 9.53 4.651 1.511 2.344 1.958 5.33 1.219 8.017-.857 3.23-3.425 5.936-6.606 6.96-2.672.896-5.716.581-8.15-.84-2.675-1.528-4.584-4.33-4.981-7.39-.329-2.37.223-4.85 1.54-6.848 1.634-2.531 4.445-4.266 7.448-4.55zm.119 2.758c-2.887.319-5.431 2.53-6.182 5.33-.682 2.383-.025 5.081 1.666 6.893 1.598 1.78 4.1 2.686 6.469 2.322 3.785-.484 6.744-4.274 6.232-8.069-.343-3.929-4.273-7.062-8.184-6.476z"/>
    <path fill="#fff" d="M11.326 4.85c3.911-.586 7.841 2.548 8.184 6.476.512 3.794-2.447 7.585-6.232 8.069-2.369.364-4.871-.542-6.469-2.322-1.691-1.812-2.347-4.51-1.666-6.893.751-2.801 3.295-5.011 6.182-5.33zm.889.662c-.853 2.216-1.709 4.434-2.544 6.658.421.006.844.002 1.265.006.002 2.172-.002 4.345.002 6.517.856-.001 1.712.008 2.568-.005.018-2.171-.001-4.342.01-6.512.418-.004.836 0 1.254-.007-.853-2.219-1.691-4.442-2.555-6.656z"/>
    <path fill="#231f20" d="M12.215 5.512c.864 2.214 1.702 4.438 2.555 6.656-.418.007-.836.004-1.254.007-.011 2.171.008 4.342-.01 6.512-.856.013-1.712.004-2.568.005-.005-2.172 0-4.345-.002-6.517-.421-.004-.844 0-1.265-.006.835-2.224 1.691-4.441 2.544-6.658z"/>
</svg>
