<svg xmlns="http://www.w3.org/2000/svg" width="24" height="24">
    <path fill="#035ca1" d="M10.537 0h2.926c4.116.55 7.896 3.263 9.543 7.101.518 1.083.765 2.265.993 3.437v2.926c-.55 4.116-3.263 7.896-7.101 9.543-1.083.518-2.265.765-3.437.993h-2.928c-4.114-.55-7.896-3.263-9.542-7.102-.518-1.083-.765-2.263-.993-3.436v-2.926C.226 9.365.474 8.184.991 7.1 2.638 3.261 6.419.548 10.535-.001zM7.764 7.875c.048.544 1.024.644.748 1.257-.301.659-.65 1.297-.937 1.962-1.427-.68-3.294-.304-4.219 1.013-1.083 1.378-.789 3.562.613 4.61 1.463 1.25 3.914.814 4.895-.829.957-1.403.514-3.365-.739-4.434.091-.13.183-.261.276-.39 1.268.833 2.35 1.913 3.531 2.861.595.647 1.543.373 2.319.459.297 1.874 2.263 3.304 4.134 2.786 1.953-.416 3.132-2.755 2.29-4.572-.708-1.744-2.924-2.529-4.597-1.689-.444-.699-1.224-1.455-.593-2.295.489.114 1.077-.408.585-.813-.741-.131-1.509-.045-2.259-.041-.439-.023-.361.497-.392.789.46.028.92.034 1.379.041l-.248.532c-1.818.013-3.636-.005-5.452.003.191-.849-1.03-1.093-.713-1.912.675-.008 1.352.016 2.022-.07l.025-.427c-.691-.02-1.387-.064-2.076.012-.521.076-.663.705-.59 1.147z"/>
    <path fill="#035ca1" d="M9.015 9.772c1.79-.013 3.58-.025 5.37-.03-.606 1.241-1.216 2.481-1.823 3.722-1.307-1.032-2.62-2.057-3.917-3.101.121-.198.244-.394.37-.59zM14.879 10.28c.198.339.394.68.591 1.02a4.012 4.012 0 0 0-1.244 2.428c-.332-.004-.663-.007-.996-.009l1.648-3.438zM16.414 11.428c1.288-.553 2.928-.044 3.548 1.241.808 1.456-.11 3.482-1.741 3.825-1.484.4-3.032-.659-3.33-2.137.971-.029 1.945.034 2.913-.074l.168-.39c-.439-.871-1.067-1.627-1.559-2.465zM5.279 11.505c.686-.249 1.416-.076 2.079.162-.261.513-.481 1.049-.792 1.535-.265.412-.963.566-.834 1.166.215.005.431.011.647.015.687-.638 1.075-1.5 1.5-2.316.546.565.93 1.321.857 2.124 0 1.384-1.265 2.579-2.636 2.568-1.219.033-2.38-.867-2.643-2.059-.357-1.329.499-2.823 1.822-3.194z"/>
    <path fill="#035ca1" d="M14.873 13.673c.102-.695.43-1.329.914-1.835.416.602.823 1.211 1.205 1.835-.707.004-1.413.005-2.119 0z"/>
    <path fill="#fff" d="M7.764 7.875c-.073-.442.069-1.071.59-1.147.69-.076 1.386-.032 2.076-.012l-.025.427c-.67.086-1.347.062-2.022.07-.317.819.904 1.063.713 1.912 1.817-.008 3.634.011 5.452-.003l.248-.532c-.459-.007-.919-.013-1.379-.041.032-.292-.046-.812.392-.789.75-.004 1.518-.09 2.259.041.492.404-.095.927-.585.813-.631.841.149 1.596.593 2.295 1.673-.839 3.889-.054 4.597 1.689.842 1.817-.337 4.156-2.29 4.572-1.871.518-3.837-.912-4.134-2.786-.776-.086-1.724.188-2.319-.459-1.181-.948-2.263-2.029-3.531-2.861-.093.129-.184.26-.276.39 1.253 1.069 1.696 3.031.739 4.434-.981 1.643-3.433 2.079-4.895.829-1.402-1.049-1.696-3.233-.613-4.61.926-1.317 2.792-1.693 4.219-1.013.288-.666.636-1.303.937-1.962.276-.613-.7-.713-.748-1.257zm1.251 1.897c-.126.196-.249.392-.37.59 1.297 1.045 2.61 2.07 3.917 3.101.607-1.241 1.217-2.481 1.823-3.722-1.79.005-3.58.017-5.37.03zm5.864.508l-1.648 3.438.996.009a4.015 4.015 0 0 1 1.244-2.428c-.198-.339-.394-.68-.591-1.02zm1.535 1.148c.492.838 1.12 1.594 1.559 2.465l-.168.39c-.968.109-1.943.045-2.913.074.297 1.478 1.846 2.538 3.33 2.137 1.631-.343 2.549-2.37 1.741-3.825-.621-1.285-2.261-1.794-3.548-1.241zm-11.135.077c-1.323.371-2.179 1.866-1.822 3.194.263 1.192 1.424 2.092 2.643 2.059 1.371.011 2.636-1.184 2.636-2.568.073-.804-.31-1.559-.857-2.124-.424.817-.813 1.679-1.5 2.316a69.025 69.025 0 0 1-.647-.015c-.129-.599.569-.753.834-1.166.31-.487.53-1.022.792-1.535-.663-.237-1.394-.411-2.079-.162zm9.594 2.168c.705.005 1.412.004 2.119 0a39.146 39.146 0 0 0-1.205-1.835 3.37 3.37 0 0 0-.914 1.835z"/>
</svg>
