<svg xmlns="http://www.w3.org/2000/svg" width="24" height="24">
    <path d="M2.004 0h19.987c.503.145.838.654.832 1.168.002 7.205 0 14.411.001 21.616.021.529-.312 1.063-.83 1.216H2.01c-.504-.144-.839-.653-.833-1.168V1.168C1.17.654 1.504.149 2.004 0zm.751 1.957c-.46.393-.484 1.193-.021 1.593.459.41 1.119.437 1.622.769.316.191.268.72-.072.859-.511.241-1.131-.063-1.335-.57-.239.088-.479.174-.716.266.327 1.18 2.049 1.515 2.846.63.401-.478.375-1.291-.117-1.698-.375-.317-.863-.439-1.314-.608-.158-.063-.329-.136-.422-.286-.105-.175-.006-.42.177-.499.384-.164.913-.042 1.087.367.231-.076.462-.151.692-.231-.256-1.026-1.699-1.223-2.428-.592zm3.644-.31c-.004 1.419-.003 2.838-.001 4.258.258.003.516.001.773.001V4.313c.431-.011.864.023 1.294-.023.489-.06.937-.408 1.075-.887.239-.682-.141-1.554-.885-1.696-.743-.125-1.506-.033-2.257-.059zm4.074.005c-.006 1.417-.002 2.835-.001 4.252.974.003 1.948.002 2.922 0 0-.246.003-.491-.003-.737-.715-.007-1.43 0-2.144-.003V4.077l1.24-.001c0-.245.002-.49-.001-.735-.413-.008-.826-.001-1.238-.004v-.948c.672-.002 1.343.001 2.015-.001 0-.245.003-.491-.002-.736-.929-.006-1.858-.004-2.786-.001zm3.922.002c-.007 1.417-.001 2.835-.003 4.252h2.92c.002-.246.003-.492-.001-.739-.713-.002-1.427.001-2.141-.001V4.079l1.236-.001c0-.246.002-.491-.001-.737-.412-.003-.824 0-1.235-.002v-.948c.671-.003 1.342.003 2.013-.003.005-.245.005-.491 0-.736a259.1 259.1 0 0 0-2.788.001zm3.915-.003a603.22 603.22 0 0 0 0 4.254c.806-.041 1.684.146 2.422-.27.732-.411 1.018-1.321.935-2.117-.049-.683-.418-1.378-1.064-1.665-.72-.322-1.53-.166-2.293-.202zM4.233 6.567c-.002 1.416-.001 2.832 0 4.247.937.002 1.875.001 2.812 0v-.742c-.679-.002-1.358 0-2.037-.001-.002-1.168.001-2.336-.002-3.504a49.795 49.795 0 0 0-.773 0zm3.691-.007v4.255c.258.002.515.001.772 0V6.56a99.33 99.33 0 0 0-.772 0zm2.032 0c-.002 1.418-.002 2.836 0 4.254.258.002.516.001.773 0-.003-.852.01-1.705-.008-2.557.384.892.783 1.778 1.176 2.666.389-.892.81-1.77 1.17-2.674-.017.855-.004 1.71-.008 2.565h.771V6.559h-.744c-.394.908-.815 1.804-1.184 2.722-.368-.917-.786-1.815-1.177-2.722h-.77zm5.137 0v4.256h.771V6.561a99.074 99.074 0 0 0-.771 0zm1.763-.003V7.3h1.192c.002 1.172-.001 2.343.001 3.515h.772c.001-1.171-.001-2.343.001-3.514.398-.002.795 0 1.193-.001v-.743a1662.16 1662.16 0 0 0-3.158 0zM5.12 13.98c-.553.718-.66 1.759-.241 2.565.208.405.553.729.949.948-.45.207-.85.528-1.135.935-.748 1.053-.654 2.615.214 3.571.643.728 1.635 1.085 2.593 1.065 1.002.024 2.048-.363 2.69-1.154.738-.888.852-2.232.294-3.239a2.82 2.82 0 0 0-1.302-1.178 2.24 2.24 0 0 0 1.219-2.074c-.004-.962-.635-1.856-1.508-2.238-1.245-.563-2.916-.326-3.773.798zm10.698-1.062a2.815 2.815 0 0 0-1.623.76c-.558.536-.89 1.262-1.093 1.998-.276 1.049-.333 2.147-.242 3.225.083.893.275 1.795.719 2.583.334.6.85 1.113 1.495 1.366 1.079.412 2.428.265 3.272-.569.642-.618.988-1.477 1.18-2.332.25-1.14.269-2.326.093-3.478-.143-.893-.424-1.796-1-2.509-.65-.838-1.77-1.194-2.8-1.045z"/>
    <path d="M7.172 2.391c.413.013.831-.03 1.24.025.531.12.525.998.001 1.126-.409.056-.828.011-1.241.024-.002-.392-.001-.784 0-1.176zM19.082 2.391c.415.024.875-.084 1.248.15.411.265.555.79.547 1.254.002.461-.162.976-.578 1.224-.367.223-.811.125-1.216.146V2.39zM7.049 14.131c.543-.115 1.164-.038 1.595.337.604.512.639 1.561.038 2.091-.626.55-1.665.564-2.308.036-.549-.453-.608-1.328-.207-1.896.205-.295.535-.487.882-.567zM15.86 14.125c.442-.09.928-.048 1.317.194.381.232.637.622.803 1.028.292.722.377 1.507.404 2.28.019.823-.02 1.656-.231 2.455-.14.511-.359 1.027-.763 1.385-.503.448-1.275.513-1.877.241-.516-.24-.842-.75-1.027-1.269-.3-.839-.358-1.74-.345-2.624.008-.832.096-1.682.415-2.459.229-.569.681-1.098 1.304-1.23zM7.285 18.069c.728-.082 1.509.231 1.918.852.542.789.382 2.008-.418 2.566-.727.499-1.766.51-2.507.035-.822-.534-1.005-1.753-.491-2.559.317-.518.897-.846 1.498-.894z"/>
    <path fill="#fff" d="M2.755 1.957c.729-.631 2.172-.434 2.428.592-.23.079-.461.155-.692.231-.175-.409-.703-.53-1.087-.367-.182.078-.282.324-.177.499.093.15.264.223.422.286.451.168.938.291 1.314.608.492.406.518 1.22.117 1.698-.797.885-2.519.551-2.846-.63.237-.092.477-.179.716-.266.204.507.824.812 1.335.57.339-.139.388-.668.072-.859-.502-.332-1.162-.36-1.622-.769-.463-.4-.439-1.2.021-1.593zM6.399 1.647c.751.026 1.513-.067 2.257.059.744.142 1.124 1.015.885 1.696-.139.479-.586.828-1.075.887-.429.046-.863.012-1.294.023v1.593c-.258 0-.516.002-.773-.001-.002-1.419-.003-2.838.001-4.258zm.773.744v1.176c.413-.014.832.031 1.241-.024.524-.128.53-1.006-.001-1.126-.41-.055-.827-.012-1.24-.025zM10.473 1.652c.929-.003 1.858-.005 2.786.001.005.246.002.491.002.736-.672.002-1.343 0-2.015.001v.948c.413.003.825-.004 1.238.004.003.245.001.489.001.735l-1.24.001v1.087c.714.003 1.429-.004 2.144.003.006.246.002.491.003.737-.974.001-1.948.002-2.922 0-.001-1.418-.004-2.835.001-4.253zM14.395 1.654c.93-.007 1.859-.004 2.788-.001.004.245.005.491 0 .736-.671.006-1.342 0-2.013.003v.948c.411.002.823-.001 1.235.002.003.246.001.491.001.737l-1.236.001v1.087c.713.002 1.427-.001 2.141.001.005.247.003.493.001.739-.974.002-1.947.001-2.92 0 .001-1.417-.004-2.835.003-4.252zM18.31 1.651c.763.036 1.573-.12 2.293.202.645.286 1.015.982 1.064 1.665.083.796-.203 1.707-.935 2.117-.739.416-1.616.229-2.422.27a670.243 670.243 0 0 1 0-4.254zm.772.74v2.775c.405-.021.849.076 1.216-.146.417-.247.581-.763.578-1.224.008-.464-.136-.989-.547-1.254-.373-.234-.833-.127-1.248-.15zM4.233 6.567c.258-.002.516-.002.773 0 .003 1.168 0 2.336.002 3.504.679.001 1.358-.001 2.037.001v.742H4.233c-.001-1.416-.002-2.832 0-4.247zM7.924 6.56h.772v4.255h-.772V6.56zM9.956 6.56h.77c.391.908.809 1.805 1.177 2.722.368-.918.789-1.815 1.184-2.722h.744v4.255h-.771c.003-.855-.009-1.71.008-2.565-.361.904-.781 1.782-1.17 2.674-.393-.889-.792-1.774-1.176-2.666.018.852.005 1.705.008 2.558h-.773c-.002-1.418-.002-2.836 0-4.254zM15.093 6.56h.771v4.255h-.771V6.559zM16.856 6.557h3.158V7.3c-.398.001-.795-.001-1.193.001-.002 1.171 0 2.343-.001 3.514h-.772c-.002-1.172.001-2.343-.001-3.515h-1.192a92.009 92.009 0 0 1 0-.743zM5.12 13.98c.857-1.124 2.528-1.361 3.773-.798.873.382 1.504 1.276 1.508 2.238a2.24 2.24 0 0 1-1.219 2.074 2.814 2.814 0 0 1 1.302 1.178c.558 1.007.444 2.351-.294 3.239-.642.791-1.688 1.177-2.69 1.154-.958.021-1.95-.337-2.593-1.065-.869-.957-.962-2.518-.214-3.571a2.822 2.822 0 0 1 1.135-.935 2.318 2.318 0 0 1-.949-.948c-.419-.807-.312-1.848.241-2.565zm1.929.151c-.347.08-.676.272-.882.567-.402.567-.342 1.442.207 1.896.643.528 1.682.515 2.308-.036.6-.529.566-1.578-.038-2.091-.431-.375-1.051-.451-1.595-.337zm.236 3.938c-.6.049-1.181.376-1.498.894-.514.806-.331 2.025.491 2.559.742.475 1.78.464 2.507-.035.8-.558.96-1.777.418-2.566-.409-.622-1.19-.935-1.918-.852zM15.818 12.918c1.03-.15 2.151.207 2.8 1.045.576.713.858 1.616 1 2.509a9.526 9.526 0 0 1-.093 3.478c-.192.855-.538 1.714-1.18 2.332-.844.833-2.193.981-3.272.569-.645-.254-1.161-.767-1.495-1.366-.444-.788-.636-1.69-.719-2.583-.091-1.078-.034-2.176.242-3.225.203-.736.535-1.462 1.093-1.998a2.809 2.809 0 0 1 1.623-.76zm.042 1.207c-.623.131-1.074.661-1.304 1.23-.319.776-.406 1.626-.415 2.459-.013.884.045 1.785.345 2.624.186.519.512 1.029 1.027 1.269.602.272 1.374.207 1.877-.241.405-.358.623-.874.763-1.385.211-.799.25-1.632.231-2.455-.026-.773-.112-1.558-.404-2.28-.167-.405-.423-.795-.803-1.028-.389-.242-.875-.285-1.317-.194z"/>
</svg>
