<svg xmlns="http://www.w3.org/2000/svg" width="24" height="24">
    <path fill="#ed1c23" d="M10.741 0h2.509c5.039.532 9.529 4.464 10.506 9.468.122 1.361.111 2.728.181 4.089-.489 3.899-3.027 7.452-6.546 9.193-1.288.669-2.708 1.012-4.131 1.25h-2.501c-4.417-.494-8.454-3.527-9.997-7.718-.386-.969-.572-2-.762-3.022v-2.5c.18-.997.359-2.001.727-2.95C2.244 3.578 6.297.506 10.741-.001zM6.614 5.099c.269.271.539.543.81.813-.123.665-.087 1.343-.071 2.016.716.093 1.477-.083 2.164.113 1.659 1.572 3.237 3.233 4.871 4.833-.35.792-.738 1.572-1.293 2.244l-.846-.847c.346-.237.791-.678.418-1.098-.476-.386-1.167-.156-1.734-.219-.624-.652-1.314-1.243-1.891-1.938-.855-1.306-1.511-2.737-2.397-4.025-.308.265-.519.611-.721.957-.359-.362-.72-.723-1.085-1.081-2.054 2.711-2.291 6.641-.543 9.565 1.212 2.09 3.322 3.645 5.694 4.131 2.418.538 5.035-.054 7.019-1.528a32.367 32.367 0 0 0-1.057-1.039c.502-.013 1.124.143 1.516-.264.346-.431.189-1.032.231-1.541.359.357.717.715 1.077 1.07 2.056-2.711 2.29-6.645.538-9.566-1.174-2.03-3.203-3.548-5.491-4.073-2.466-.595-5.178-.047-7.209 1.477z"/>
    <path fill="#ed1c23" d="M16.127 15.082l.334.037.004.569a183.77 183.77 0 0 1-.338-.606zM14.931 15.601c.291.462.443 1.144 1.081 1.233-.268.228-.357.553-.349.896-.702-.511-.876-1.3-.732-2.129z"/>
    <path fill="#fff" d="M6.614 5.099c2.031-1.524 4.744-2.072 7.209-1.477 2.289.526 4.317 2.043 5.491 4.073 1.752 2.921 1.519 6.855-.538 9.566-.359-.355-.717-.713-1.077-1.07-.042.509.115 1.11-.231 1.541-.392.407-1.014.25-1.516.264.362.337.711.686 1.057 1.039-1.984 1.474-4.601 2.066-7.019 1.528-2.372-.487-4.483-2.041-5.694-4.131-1.748-2.923-1.511-6.854.543-9.565.365.358.725.719 1.085 1.081.202-.346.413-.692.721-.957.887 1.288 1.542 2.719 2.397 4.025.577.695 1.267 1.287 1.891 1.938.567.063 1.258-.167 1.734.219.372.42-.072.86-.418 1.098l.846.847c.555-.671.943-1.452 1.293-2.244-1.634-1.6-3.212-3.26-4.871-4.833-.687-.195-1.448-.02-2.164-.113-.016-.673-.052-1.351.071-2.016-.271-.27-.542-.542-.81-.813zm6.141-.751c-.089.733.531 1.321.674 2.021-1.9.07-3.805.012-5.706.031v1.172c1.903.016 3.807-.031 5.709.025-.143.729-.835 1.35-.632 2.125 1.75-.73 3.31-1.845 4.984-2.734-1.323-.772-2.661-1.521-3.987-2.291-.321-.173-.657-.401-1.041-.349zm-8.434 7.189c-.184.325-.386.665-.383 1.052.707.224 1.395-.679 2-.563.178 1.85.021 3.742.076 5.609h1.169c.021-1.86-.039-3.723.028-5.58.686-.157 1.268.669 1.997.595.118-.357-.106-.687-.264-.99-.787-1.36-1.565-2.725-2.349-4.087-.762 1.318-1.51 2.645-2.274 3.963zm10.407 1.486c-.378.812-.778 1.617-1.342 2.319.035.08.109.24.146.32.174-.097.349-.194.525-.289.005.686-.037 1.376.012 2.06-.043.271.416.43.452.113.146-1.015-.071-2.059.102-3.07.1-.475.761-1.134.105-1.453zm2.144.08c-.039.384-.054.771-.064 1.157-.615-.001-1.231-.007-1.848.02l-.031.445c.628.035 1.256.029 1.886.024.009.79.011 1.579 0 2.369-.298.077-.879-.029-.787.443.384.13.973.224 1.237-.16.156-.867.031-1.763.068-2.641.275-.009.552-.017.829-.03l-.012-.45c-.269-.009-.539-.017-.808-.024a24.978 24.978 0 0 0-.042-1.095l-.428-.056zm-8.513.598c-.135 1.066.169 2.218-.361 3.213-.108.251-.379.83.138.687.919-1.039.664-2.53.711-3.803.466-.02.932-.02 1.399-.017l-.113.346c-1.043-.195-1.091.944-.858 1.651.265.289.717.172 1.066.231 0 .374.001.748.008 1.121-.279.033-.99.113-.624.521.341.049.83.143 1.056-.191.14-.467.059-.968.076-1.448.353-.066.829.064 1.085-.248.106-.46.15-.995-.039-1.436-.362-.262-.862-.13-1.283-.178l.136-.37c.569-.115 1.546.327 1.767-.412-1.112-.101-2.231-.037-3.346-.054-.3.007-.758.003-.818.387zm7.768 1.381l.338.606-.004-.569-.334-.037zm-.804.135c-.034.46.257.879.536 1.22.731-.056.066-1.498-.536-1.22zm-.392.384c-.144.829.03 1.617.732 2.129-.008-.342.081-.668.349-.896-.637-.089-.79-.771-1.081-1.233zm-5.428.697c-.262.283-.641.555-.683.965.517.458 1.546-1.285.683-.965zm1.81.01c-.012.468.407.818.758 1.065.647-.203-.391-1.385-.758-1.065z"/>
    <path fill="#fff" d="M9.544 14.824c.589-.378 1.536-.39 2.122 0-.706.063-1.416.058-2.122 0zM9.681 15.284c.623 0 1.247-.001 1.87.001l-.035.262c-.609.009-1.216.008-1.824.001a24.378 24.378 0 0 1-.01-.265z"/>
    <path fill="#0366b3" d="M12.755 4.348c.384-.052.72.176 1.041.349 1.326.77 2.664 1.519 3.987 2.291-1.673.889-3.234 2.004-4.984 2.734-.203-.775.489-1.395.632-2.125-1.902-.056-3.806-.009-5.709-.025V6.4c1.902-.02 3.806.038 5.706-.031-.143-.7-.763-1.288-.674-2.021zM4.321 11.537c.765-1.318 1.512-2.645 2.274-3.963.784 1.361 1.562 2.727 2.349 4.087.157.303.382.633.264.99-.729.073-1.311-.753-1.997-.595-.067 1.857-.007 3.721-.028 5.58H6.014c-.055-1.868.102-3.759-.076-5.609-.605-.117-1.293.787-2 .563-.003-.387.199-.727.383-1.052zM14.728 13.023c.656.319-.005.978-.105 1.453-.173 1.011.043 2.055-.102 3.07-.037.317-.496.159-.452-.113-.049-.685-.007-1.374-.012-2.06-.176.094-.35.191-.525.289l-.146-.32c.564-.702.964-1.507 1.342-2.319z"/>
    <path fill="#0366b3" d="M16.872 13.103l.428.056c.024.365.034.731.042 1.095.269.007.539.014.808.024l.012.45c-.277.013-.553.021-.829.03-.037.879.088 1.774-.068 2.641-.264.384-.852.29-1.237.16-.092-.472.489-.366.787-.443a93.54 93.54 0 0 0 0-2.369c-.63.005-1.258.012-1.886-.024l.031-.445c.616-.026 1.233-.021 1.848-.02.01-.386.025-.772.064-1.157zM8.359 13.701c.06-.384.518-.38.818-.387 1.115.017 2.233-.047 3.346.054-.22.738-1.197.296-1.767.412-.046.123-.092.247-.136.37.421.049.921-.084 1.283.178.189.441.146.976.039 1.436-.256.312-.732.182-1.085.248-.017.48.064.981-.076 1.448-.226.334-.715.24-1.056.191-.366-.408.345-.488.624-.521a59.907 59.907 0 0 1-.008-1.121c-.349-.059-.801.058-1.066-.231-.233-.707-.185-1.847.858-1.651l.113-.346a28.346 28.346 0 0 0-1.399.017c-.047 1.273.209 2.765-.711 3.803-.517.143-.245-.437-.138-.687.53-.995.226-2.147.361-3.213zm1.185 1.123c.706.058 1.416.063 2.122 0-.586-.39-1.533-.378-2.122 0zm.137.46l.01.265c.609.007 1.216.008 1.824-.001l.035-.262c-.623-.003-1.247-.001-1.87-.001z"/>
    <path fill="#0366b3" d="M15.323 15.217c.602-.278 1.267 1.163.536 1.22-.279-.341-.57-.759-.536-1.22zM9.503 16.298c.863-.32-.167 1.423-.683.965.042-.41.421-.682.683-.965zM11.313 16.308c.367-.32 1.405.862.758 1.065-.351-.247-.77-.597-.758-1.065z"/>
    <path fill="#d48b8d" opacity=".86" d="M23.756 9.468c.089.39.164.782.244 1.172v3.157l-.063-.24c-.07-1.361-.059-2.728-.181-4.089z"/>
</svg>
