<svg xmlns="http://www.w3.org/2000/svg" width="24" height="24">
    <path fill="#1e1b1b" opacity=".97" d="M3.003 0h18.224c.502.165.905.546 1.051 1.06-.086.864-.025 1.734-.043 2.601.023 6.458-.048 12.919.036 19.375-.095.193-.188.405-.399.497.132-.266.268-.543.25-.849.001-7.122.003-14.244-.001-21.367.041-.65-.564-1.197-1.199-1.167C15.087.144 9.251.147 3.416.148 2.768.093 2.11.647 2.154 1.317c-.001 7.153-.004 14.307.002 21.461-.031.722.72 1.146 1.364 1.139 5.767.001 11.534.002 17.3-.001.382.004.728-.167 1.039-.372-.082.222-.281.351-.481.457H2.983c-.449-.168-.832-.496-.983-.962V1.006C2.163.532 2.551.191 3.003.001z"/>
    <path fill="#fbf8f8" d="M2.154 1.317C2.11.647 2.768.093 3.416.148 9.251.147 15.087.144 20.922.15c.635-.029 1.24.518 1.199 1.167.004 7.123.002 14.245.001 21.367.018.306-.118.583-.25.849a.106.106 0 0 0-.012.01c-.311.205-.657.376-1.039.372-5.766.003-11.533.002-17.3.001-.644.007-1.394-.417-1.364-1.139-.006-7.153-.003-14.307-.002-21.461zm.328-.393c-.173.381-.11.806-.118 1.211.003 6.542.001 13.084.001 19.627.012.447-.062.913.108 1.341.19.288.477.565.849.544 5.832.005 11.664 0 17.497.003.149 0 .299-.02.446-.044.352-.163.615-.531.605-.924-.002-7.123.001-14.245-.001-21.369a1.016 1.016 0 0 0-.296-.67c-.282-.273-.699-.265-1.065-.261C14.812.386 9.116.38 3.42.384a1.02 1.02 0 0 0-.939.54z"/>
    <path fill="#b80a00" d="M2.482.924c.178-.35.55-.548.939-.54C9.117.38 14.813.386 20.509.382c.366-.004.783-.011 1.065.261-.961-.114-1.93-.057-2.895-.068C13.559.577 8.439.571 3.32.577c-.485-.065-.78.406-.735.842.002 6.713.002 13.426 0 20.14.011.496-.058 1.005.061 1.493.149.388.609.48.979.475 5.323-.012 10.646 0 15.969-.007.558-.011 1.121-.019 1.672.087a2.904 2.904 0 0 1-.446.044c-5.832-.003-11.664.002-17.497-.003-.372.021-.659-.256-.849-.544.006-7.393-.012-14.786.009-22.18z"/>
    <path fill="#b80a00" d="M6.601 15.902l.231.009c.522 1.119.946 2.283 1.493 3.388.025-1.131-.005-2.263.015-3.394l.226.004c.01 1.31 0 2.621.005 3.932l-.268.015c-.512-1.136-.973-2.294-1.482-3.431-.016 1.142.003 2.285-.009 3.428l-.244-.005c.015-1.315-.051-2.637.034-3.947z"/>
    <path fill="#bd1c13" d="M2.584 1.42c-.045-.436.25-.907.735-.842 5.119-.006 10.239 0 15.359-.002.965.011 1.934-.046 2.895.068.184.173.278.422.296.67.002 7.124-.001 14.246.001 21.369.01.394-.253.762-.605.924-.551-.107-1.114-.099-1.672-.087-5.323.007-10.646-.005-15.969.007-.37.005-.83-.086-.979-.475-.119-.488-.05-.997-.061-1.493.002-6.714.002-13.427 0-20.14zm.3-.107c-.001 7.126.002 14.252-.001 21.376-.019.232.197.484.437.464 5.866.005 11.731.003 17.595.002.203.034.344-.107.451-.258.008-7.194.002-14.388.003-21.582.015-.242-.2-.487-.454-.446C15.056.867 9.197.866 3.338.869c-.256-.04-.446.215-.455.444zm-.116-.211c-.047 7.297-.04 14.6-.004 21.897.091-.475.049-.96.052-1.44V2.339c0-.412.036-.829-.048-1.237z"/>
    <path fill="#fff" d="M2.884 1.313c.008-.23.198-.484.455-.444 5.859-.003 11.718-.002 17.577 0 .253-.041.469.204.454.446-.001 7.194.005 14.388-.003 21.582-.107.152-.247.292-.451.258-5.865.001-11.729.003-17.595-.002-.24.02-.457-.232-.437-.464.003-7.125 0-14.251.001-21.376zm10.748 1.18c-.743.065-1.096.863-1.214 1.507-.158.972-.146 2.091.47 2.912.421.568 1.369.508 1.731-.095.565-.855.548-1.963.38-2.937-.128-.664-.59-1.455-1.367-1.387zM9.458 7.204l.265-.01c.051-1.321-.006-2.645.028-3.968.577 1.321 1.127 2.654 1.707 3.973l.32-.001c.008-1.531.006-3.062.001-4.593l-.276-.008c-.015 1.342.008 2.685-.011 4.027-.593-1.335-1.136-2.693-1.744-4.02a23.59 23.59 0 0 1-.265-.019c-.067 1.535-.014 3.08-.026 4.619zM4.476 9.913c-.776.041-.981 1.045-.704 1.637.193.454.741.488 1.12.711.397.249.392.827.194 1.201-.243.413-.927.351-1.114-.083-.173-.204.01-.699-.381-.608.01.393.087.832.401 1.103.427.352 1.177.179 1.356-.362.131-.403.148-.876-.039-1.264-.202-.378-.667-.425-1.013-.606-.583-.221-.53-1.195.041-1.397.312-.097.643.096.745.397.073.183-.003.529.302.435.018-.526-.286-1.22-.908-1.163zm4.462.002c-.64.011-.97.685-1.08 1.232-.153.946-.179 2.221.715 2.816.958.423 1.552-.754 1.552-1.55.086-.9-.028-2.399-1.187-2.498zm9.653.879a4.122 4.122 0 0 0 .063 2.561c.163.448.643.827 1.136.67.356-.073.533-.417.701-.702-.002.209-.002.42 0 .629l.199-.002c.002-.675.001-1.352-.001-2.027a48.422 48.422 0 0 0-1.078.001l.001.304c.286.008.572.001.857.008-.015.504-.074 1.131-.557 1.412-.36.234-.827-.01-.989-.37-.352-.702-.316-1.536-.123-2.278.097-.41.433-.834.9-.77.458.062.646.547.749.939.057-.008.172-.023.229-.032-.083-.521-.355-1.147-.948-1.218-.551-.088-.998.382-1.139.875zm-12.916-.78v.309c.269.003.54 0 .811.009.008 1.206-.002 2.413.004 3.62l.229.001c.012-1.209-.008-2.42.01-3.629.268-.001.538.012.806-.013l-.004-.278c-.615-.051-1.238-.009-1.856-.019zm4.975-.005c-.067 1.309-.015 2.631-.026 3.945l.24-.002c.011-.577-.002-1.153.005-1.73.439-.012.989.062 1.295-.329.316-.469.308-1.149.005-1.621-.384-.424-1.018-.204-1.518-.262zm2.153.003c-.005 1.313-.003 2.626-.001 3.94l.225.003c.01-.577-.001-1.154.004-1.732.455-.012 1.033.063 1.329-.368.275-.46.265-1.08.006-1.543-.371-.478-1.047-.247-1.563-.3zm2.259-.003c-.009 1.313-.002 2.625-.003 3.938l.23.005c-.001-1.315.007-2.63-.004-3.946a16.36 16.36 0 0 1-.223.003zm.898-.005c-.013 1.316-.004 2.632-.004 3.947l.23.005c.014-1.142-.011-2.285.012-3.427.509 1.133.972 2.286 1.475 3.421l.271.005c.007-1.311-.004-2.622.006-3.933a18.57 18.57 0 0 0-.235-.018c-.014 1.148.006 2.296-.009 3.444-.52-1.137-.969-2.305-1.497-3.438a20.52 20.52 0 0 1-.248-.006zm-11.253 5.9c-.349 1.314-.676 2.634-1.012 3.952.503-.02.336-.845.545-1.223.389-.013.779-.014 1.167 0 .107.396.189.796.286 1.195l.254.035c-.324-1.315-.647-2.632-.979-3.945l-.261-.013zm1.894-.002c-.084 1.31-.018 2.632-.034 3.947l.244.005c.012-1.143-.007-2.286.009-3.428.508 1.137.97 2.295 1.482 3.431l.268-.015c-.005-1.311.005-2.622-.005-3.932l-.226-.004c-.02 1.131.01 2.263-.015 3.394-.547-1.105-.971-2.27-1.493-3.388l-.231-.009zm2.617-.005c.205.774.603 1.487.858 2.247.034.568-.003 1.14.015 1.709l.232-.002c.023-.58-.039-1.165.028-1.741.277-.743.621-1.46.9-2.203h-.261c-.277.621-.514 1.259-.774 1.887-.281-.613-.494-1.255-.758-1.875l-.241-.023zm2.443.015a.646.646 0 0 0-.001.312c.264.001.528-.001.792.005.002 1.208-.006 2.415.003 3.622h.243c.008-1.207.001-2.414.003-3.621.262-.007.526-.006.789-.006a.519.519 0 0 0 0-.312 278.77 278.77 0 0 0-1.829 0zm6.982.01c.006 1.309-.004 2.618.005 3.926.577.002 1.154.015 1.731-.007l-.002-.294c-.491-.013-.983.004-1.476-.007-.012-.523-.004-1.045-.006-1.568.436-.012.874.006 1.31-.009l.018-.301c-.441-.019-.884-.001-1.325-.009-.007-.475-.002-.95-.002-1.424.483-.014.967.005 1.45-.009v-.305c-.567-.003-1.136-.016-1.703.007zm-4.417.025c.004 1.301 0 2.601.003 3.902l.224.005c.003-1.315.007-2.63-.002-3.945l-.225.038zm1.165-.035a470.892 470.892 0 0 0 0 3.942l.248-.004c.021-1.132-.023-2.265.022-3.397.297 1.113.527 2.244.82 3.358l.178.074c.376-1.106.546-2.288.867-3.416.053 1.126.002 2.254.025 3.38l.242.005c.006-1.315.005-2.63 0-3.944l-.36-.001c-.278 1.152-.544 2.306-.824 3.459-.309-1.147-.557-2.311-.852-3.461l-.367.004z"/>
    <path fill="#fff" d="M13.52 2.88c.591-.155 1.042.398 1.165.914.217.898.238 1.928-.247 2.744-.273.496-1.038.552-1.372.091-.488-.646-.48-1.517-.419-2.287.076-.561.259-1.279.873-1.461zM8.646 10.305c.363-.206.826.011.996.368.326.624.304 1.373.201 2.051-.074.471-.381 1.037-.926 1.021-.663-.098-.854-.871-.887-1.437-.024-.688-.022-1.576.616-2.003zM10.868 10.33c.408.011 1.011-.131 1.214.341.11.383.137.952-.278 1.164-.302.089-.624.044-.936.048-.003-.518-.001-1.035-.001-1.553zM13.03 11.881c.002-.519-.007-1.037.006-1.556.387.028.897-.117 1.166.249.179.355.174.831-.069 1.153-.304.258-.739.134-1.103.154zM4.83 16.276c.171.669.349 1.338.48 2.017-.324-.003-.648.001-.972-.009.149-.672.299-1.346.492-2.007z"/>
    <path fill="#dfa19f" d="M2.364 2.136c.008-.405-.055-.83.118-1.211-.021 7.393-.003 14.786-.009 22.18-.17-.428-.096-.894-.108-1.341 0-6.543.002-13.085-.001-19.627z"/>
    <path fill="#bc0000" d="M2.768 1.102c.083.408.048.825.048 1.237v19.22c-.003.48.039.965-.052 1.44-.036-7.297-.043-14.6.004-21.897z"/>
    <path opacity=".42" d="M22.277 1.06l.062.128v21.718l-.069.13c-.083-6.456-.012-12.917-.036-19.375.017-.867-.044-1.737.043-2.601z"/>
    <path fill="#bc1500" d="M13.632 2.493c.777-.068 1.239.723 1.367 1.387.168.974.185 2.082-.38 2.937-.362.603-1.31.663-1.731.095-.616-.821-.627-1.939-.47-2.912.118-.644.471-1.442 1.214-1.507zm-.112.387c-.613.182-.796.9-.873 1.461-.061.77-.069 1.641.419 2.287.334.462 1.099.406 1.372-.091.485-.816.464-1.846.247-2.744-.123-.517-.575-1.069-1.165-.914z"/>
    <path fill="#ba1000" d="M9.458 7.204c.012-1.539-.041-3.084.026-4.619l.265.019c.608 1.327 1.151 2.685 1.744 4.02.019-1.342-.004-2.685.011-4.027l.276.008c.005 1.531.007 3.062-.001 4.593l-.32.001c-.581-1.319-1.131-2.652-1.707-3.973-.035 1.323.022 2.647-.028 3.968l-.265.01zM14.226 15.947l.225-.038c.009 1.315.005 2.63.002 3.945l-.224-.005c-.003-1.301.001-2.601-.003-3.902z"/>
    <path fill="#bb1500" d="M4.476 9.913c.622-.057.926.638.908 1.163-.305.094-.229-.252-.302-.435-.103-.301-.433-.493-.745-.397-.571.202-.623 1.177-.041 1.397.346.181.811.228 1.013.606.187.388.17.861.039 1.264-.179.541-.928.714-1.356.362-.313-.272-.391-.711-.401-1.103.392-.091.208.404.381.608.186.434.871.496 1.114.083.197-.374.202-.952-.194-1.201-.378-.223-.926-.257-1.12-.711-.278-.592-.072-1.597.704-1.637z"/>
    <path fill="#bb1400" d="M8.938 9.915c1.158.099 1.273 1.598 1.187 2.498 0 .796-.594 1.973-1.552 1.55-.894-.595-.867-1.87-.715-2.816.11-.546.44-1.22 1.08-1.232zm-.292.39c-.639.427-.641 1.315-.616 2.003.033.566.224 1.339.887 1.437.545.016.852-.55.926-1.021.103-.678.125-1.427-.201-2.051-.17-.357-.633-.575-.996-.368zM5.675 10.014c.618.01 1.241-.032 1.856.019l.004.278c-.268.025-.538.012-.806.013-.018 1.209.002 2.42-.01 3.629l-.229-.001c-.006-1.207.004-2.414-.004-3.62-.271-.009-.541-.006-.811-.009v-.309zM10.65 10.009c.5.058 1.134-.162 1.518.262.303.472.311 1.152-.005 1.621-.305.392-.855.317-1.295.329-.007.577.006 1.153-.005 1.73l-.24.002c.011-1.314-.041-2.636.026-3.945zm.218.321c0 .518-.002 1.035.001 1.553.311-.004.634.042.936-.048.415-.213.387-.781.278-1.164-.203-.472-.806-.329-1.214-.341zM12.803 10.012c.516.053 1.192-.178 1.563.3.259.463.268 1.083-.006 1.543-.296.431-.875.356-1.329.368-.005.578.006 1.155-.004 1.732l-.225-.003c-.002-1.314-.004-2.627.001-3.94zm.227 1.869c.364-.019.799.105 1.103-.154.243-.322.248-.798.069-1.153-.269-.366-.779-.221-1.166-.249-.013.519-.004 1.037-.006 1.556zM15.96 10.004l.248.006c.528 1.133.977 2.301 1.497 3.438.015-1.148-.005-2.296.009-3.444l.235.018c-.01 1.311.001 2.622-.006 3.933l-.271-.005c-.502-1.135-.965-2.288-1.475-3.421-.023 1.142.002 2.285-.012 3.427a17.27 17.27 0 0 1-.23-.005c0-1.315-.009-2.631.004-3.947zM4.707 15.904l.261.013c.333 1.313.655 2.63.979 3.945a11.06 11.06 0 0 1-.254-.035c-.097-.399-.179-.799-.286-1.195a16.819 16.819 0 0 0-1.167 0c-.209.378-.042 1.203-.545 1.223.336-1.318.663-2.638 1.012-3.952zm.123.372a31.392 31.392 0 0 0-.492 2.007c.324.01.648.006.972.009-.131-.678-.309-1.347-.48-2.017zM11.661 15.912c.61-.002 1.219-.002 1.829 0a.519.519 0 0 1 0 .312c-.263 0-.527-.001-.789.006-.002 1.207.005 2.414-.003 3.621h-.243c-.009-1.207-.001-2.414-.003-3.622-.264-.006-.528-.004-.792-.005a.646.646 0 0 1 .001-.312z"/>
    <path fill="#bb1300" d="M18.591 10.794c.141-.492.588-.963 1.139-.875.593.071.864.698.948 1.218-.057.008-.172.023-.229.032-.104-.392-.292-.877-.749-.939-.467-.064-.803.36-.9.77-.193.742-.229 1.576.123 2.278.163.36.629.604.989.37.483-.281.542-.907.557-1.412-.286-.007-.572 0-.857-.008l-.001-.304c.359-.005.719-.004 1.078-.001.002.675.003 1.352.001 2.027l-.199.002a32.97 32.97 0 0 1 0-.629c-.168.285-.345.628-.701.702-.493.157-.973-.222-1.136-.67a4.122 4.122 0 0 1-.063-2.561zM18.643 15.922c.567-.023 1.136-.01 1.703-.007v.305c-.483.014-.967-.005-1.45.009 0 .474-.005.949.002 1.424.441.008.884-.01 1.325.009l-.018.301c-.436.015-.874-.003-1.31.009.002.523-.006 1.045.006 1.568.492.011.984-.006 1.476.007l.002.294c-.577.022-1.154.009-1.731.007-.009-1.309.001-2.618-.005-3.926z"/>
    <path fill="#b80b00" d="M15.062 10.009l.223-.003c.011 1.316.003 2.631.004 3.946l-.23-.005c.001-1.313-.006-2.625.003-3.938z"/>
    <path fill="#bd1901" d="M9.218 15.897l.241.023c.263.62.477 1.262.758 1.875.26-.628.497-1.266.774-1.887h.261c-.279.742-.623 1.459-.9 2.203-.067.576-.005 1.161-.028 1.741l-.232.002c-.018-.569.018-1.141-.015-1.709-.255-.761-.653-1.474-.858-2.247z"/>
    <path fill="#bd1a00" d="M15.391 15.912l.367-.004c.295 1.15.543 2.314.852 3.461.28-1.152.546-2.306.824-3.459l.36.001a471.37 471.37 0 0 1 0 3.944l-.242-.005c-.023-1.127.027-2.255-.025-3.38-.321 1.128-.491 2.309-.867 3.416l-.178-.074c-.293-1.114-.523-2.245-.82-3.358-.046 1.132-.001 2.265-.022 3.397l-.248.004a470.892 470.892 0 0 1 0-3.942z"/>
</svg>
