<svg xmlns="http://www.w3.org/2000/svg" width="24" height="24">
    <path fill="#0066b3" d="M1.582 5.143h20.666c.782.172 1.4.782 1.603 1.554v10.589a2.15 2.15 0 0 1-1.556 1.572H1.577A2.161 2.161 0 0 1 0 17.283V6.748c.17-.793.803-1.409 1.582-1.604zm-.115.745c-.525.182-.838.737-.805 1.279.002 3.262-.01 6.523.005 9.785-.023.717.65 1.318 1.358 1.245 6.64-.005 13.28.005 19.921-.003.676.031 1.264-.579 1.247-1.247.01-3.297.01-6.596 0-9.892.022-.723-.657-1.317-1.368-1.251-6.559-.003-13.119.002-19.678-.002-.228.006-.462.012-.68.087z"/>
    <path fill="#0066b3" d="M1.714 6.163c6.663-.082 13.334-.01 19.999-.037.559-.074 1.176.315 1.151.923.017 3.262.003 6.526.006 9.789.055.533-.375 1.055-.925 1.028-6.641.012-13.284.001-19.925.005-.531.057-1.05-.374-1.025-.922C.982 13.687.993 10.424.99 7.162c-.037-.452.258-.928.724-.998zm13.249 1.025c-.404 1.747-.8 3.498-1.208 5.245-1.103-.114-2.234.653-2.405 1.771-.254 1.218.766 2.479 2.005 2.499 1.23.087 2.339-1.078 2.206-2.301-.043-.794-.601-1.444-1.273-1.815a84.38 84.38 0 0 1 .358-1.566c.447.853.909 1.697 1.333 2.562-.161.443-.125.919-.122 1.382l1.601.003c.038-.165.078-.328.117-.493.217.508.277 1.102.678 1.513.643.746 1.827.943 2.664.414.948-.537 1.334-1.847.805-2.805-.427-.877-1.454-1.291-2.39-1.133-.198-.571-.403-1.14-.601-1.711l.499-1.073c.247-.005.493-.005.739-.01l-.001-.965c-.833-.002-1.663-.002-2.496 0v.969l1.154.003c-.091.187-.179.373-.269.561H14.82c.194-.835.384-1.67.577-2.505l1.239-.002c.006-.181.006-.362.003-.545-.559-.003-1.12-.003-1.679 0zM1.809 12.013c1.298 1.422 2.401 3.042 3.843 4.317.724-.915-.241-2.029-.447-2.98 1.911-.009 3.823.007 5.735-.009.011-.894.013-1.787-.001-2.682-1.911-.018-3.823 0-5.734-.01.204-.949 1.172-2.059.446-2.972-1.443 1.281-2.565 2.891-3.842 4.335z"/>
    <path fill="#0066b3" d="M15.146 10.787h2.959c-.467.99-.928 1.982-1.4 2.968-.526-.986-1.04-1.978-1.559-2.968zM17.334 13.684c.377-.727.7-1.481 1.064-2.214.149.402.291.806.426 1.214-.503.302-.815.795-1.085 1.3-.183-.017-.28-.187-.404-.299zM11.931 15.025c-.357-1.058.622-2.141 1.697-2.055-.104.486-.217.97-.327 1.455.177.043.354.082.532.117.109-.471.215-.942.333-1.41.875.503 1.169 1.798.411 2.532-.765.886-2.36.485-2.646-.639zM19.523 12.987c.81-.094 1.667.396 1.846 1.22.282 1.003-.661 2.085-1.695 1.939-.807-.061-1.361-.797-1.456-1.558.621-.018 1.243-.009 1.863-.012l-.017-.478c-.311-.294-.416-.718-.541-1.111z"/>
    <path fill="#0066b3" d="M18.347 13.953a5.27 5.27 0 0 1 .657-.759l.283.783a36.737 36.737 0 0 1-.94-.024z"/>
    <path fill="#fff" d="M1.467 5.888c.218-.075.452-.081.68-.087 6.559.005 13.119-.001 19.678.002.711-.066 1.389.529 1.368 1.251.01 3.296.01 6.595 0 9.892.017.668-.571 1.278-1.247 1.247-6.64.009-13.28-.001-19.921.003-.709.073-1.381-.529-1.358-1.245-.014-3.262-.002-6.523-.005-9.785-.033-.543.28-1.097.805-1.279zm.247.275c-.466.07-.761.546-.724.998.002 3.263-.009 6.526.005 9.787-.025.547.494.979 1.025.922 6.641-.003 13.284.007 19.925-.005.55.027.98-.495.925-1.028-.002-3.263.011-6.527-.006-9.789.025-.608-.591-.997-1.151-.923-6.665.027-13.336-.045-19.999.037z"/>
    <path fill="#fff" d="M14.963 7.188c.559-.003 1.12-.003 1.679 0 .002.182.002.364-.003.545l-1.239.002c-.193.835-.383 1.67-.577 2.505h3.537l.269-.561-1.154-.003v-.969c.833-.002 1.663-.002 2.496 0l.001.965c-.247.005-.493.005-.739.01-.167.358-.334.715-.499 1.073.198.571.403 1.14.601 1.711.936-.159 1.963.257 2.39 1.133.53.958.143 2.268-.805 2.805-.837.53-2.021.333-2.664-.414-.402-.411-.462-1.005-.678-1.513-.039.165-.079.328-.117.493l-1.601-.003c-.003-.463-.039-.938.122-1.382-.425-.865-.886-1.709-1.333-2.562a82.575 82.575 0 0 0-.358 1.566c.671.371 1.23 1.021 1.273 1.815.133 1.222-.977 2.387-2.206 2.301-1.239-.02-2.259-1.282-2.005-2.499.172-1.119 1.302-1.885 2.405-1.771.408-1.747.804-3.498 1.208-5.245zm.183 3.599c.519.99 1.033 1.982 1.559 2.968.472-.986.933-1.978 1.4-2.968h-2.959zm2.188 2.897c.124.112.221.283.404.299.27-.505.582-.998 1.085-1.3a36.31 36.31 0 0 0-.426-1.214c-.364.733-.687 1.487-1.064 2.214zm-5.403 1.341c.286 1.125 1.882 1.525 2.646.639.757-.733.464-2.029-.411-2.532-.118.467-.224.938-.333 1.41a12.321 12.321 0 0 1-.532-.117c.11-.485.223-.969.327-1.455-1.074-.086-2.054.997-1.697 2.055zm7.592-2.038c.125.394.23.817.541 1.111l.017.478c-.62.003-1.242-.006-1.863.012.095.761.649 1.497 1.456 1.558 1.034.146 1.976-.936 1.695-1.939-.179-.824-1.037-1.314-1.846-1.22zm-1.176.966c.313.013.626.019.94.024-.094-.261-.187-.523-.283-.783a5.325 5.325 0 0 0-.657.759zM1.809 12.013c1.277-1.444 2.399-3.054 3.842-4.335.726.913-.242 2.022-.446 2.972 1.91.01 3.822-.009 5.734.01.014.894.012 1.787.001 2.682-1.911.015-3.823 0-5.735.009.206.951 1.171 2.066.447 2.98-1.443-1.275-2.546-2.895-3.843-4.317z"/>
</svg>
