<svg xmlns="http://www.w3.org/2000/svg" width="24" height="24">
    <path fill="#a2a59d" d="M8.82 0h6.428l.11.056C13.14.084 10.918.09 8.7.054l.12-.053z"/>
    <path fill="#85904f" d="M8.137.539c.108-.235.33-.391.564-.486 2.218.037 4.44.031 6.658.002.296.134.543.366.697.653v22.677c-.146.257-.36.478-.624.615H8.729a6.234 6.234 0 0 1-.361-.192c.616.127 1.249.118 1.874.11 1.579-.003 3.157-.002 4.736.002.407.029.837-.206.945-.615.094-.453.037-.921.046-1.381.002-6.727-.005-13.453.003-20.179-.019-.429.09-.932-.212-1.288-.271-.326-.729-.331-1.117-.337-1.826.017-3.653-.006-5.479.01-.42-.028-.752.24-1.036.512L8.135.54z"/>
    <path fill="#c0d642" d="M8.13.641c.284-.272.615-.54 1.036-.512 1.826-.016 3.653.007 5.479-.01.388.006.846.012 1.117.337.301.356.193.86.212 1.288-.008 6.726-.001 13.452-.003 20.179-.01.46.047.928-.046 1.381-.108.409-.538.644-.945.615a934.572 934.572 0 0 0-4.736-.002c-.625.008-1.258.017-1.874-.11-.112-.098-.187-.229-.281-.343l.009-.213c.027-7.536-.039-15.074.033-22.611zm1.529.361c-.07.399.457.394.62.656-.007.338-.365.159-.529.045l-.184.065c.154.161.33.38.585.316.306-.034.447-.437.248-.662-.143-.128-.335-.179-.506-.257-.012-.039-.037-.116-.048-.155l.159-.076c.151.029.303.057.455.082-.126-.35-.719-.418-.801-.012zm.86-.226c.114.085.24.149.37.207.004.363.002.725.007 1.088l.203.004c.002-.369.002-.737 0-1.106.139-.04.293-.069.363-.213a4.635 4.635 0 0 0-.942.02zM11.927.76c-.149.44-.3.879-.438 1.323l.213-.023.149-.365h.355c.086.178.174.37.382.43-.114-.473-.294-.925-.446-1.386l-.215.022zm.672.017c.114.086.243.148.376.202.003.365.002.73.006 1.095l.203.003c.002-.365.002-.732.002-1.097.135-.051.272-.105.367-.219a4.218 4.218 0 0 0-.953.016zm1.083-.03c.002.44.002.881.001 1.321.274.002.549.003.823.002a15.94 15.94 0 0 0-.022-.217l-.594-.003.002-.345.406-.033-.033-.182-.379-.025.016-.306c.212-.032.531.076.617-.195a9.732 9.732 0 0 0-.837-.017zm-3.256 1.812c-.003.444-.002.889-.001 1.333.276.002.551.001.826-.001l-.025-.196-.594-.001c-.002-.372-.002-.745-.001-1.117l-.206-.018zm1.343.03c-.14.439-.297.872-.441 1.31l.215-.01.153-.371.378.008c.077.176.154.377.37.419-.119-.474-.301-.929-.456-1.392l-.218.036zm.774-.075c.121.465-.037 1.102.353 1.44.077-.285.142-.572.218-.857.086.264.158.532.228.801l.178-.007c.062-.439.13-.878.192-1.316l-.196-.012c-.042.189-.083.378-.135.565-.06-.186-.115-.373-.167-.561l-.194.015c-.054.208-.107.416-.163.624-.076-.238 0-.615-.313-.691zM9.188 4.432c-.311.081-.473.411-.455.714V19.6c-.042.386.281.751.672.736 1.748.012 3.498.004 5.246.003a.677.677 0 0 0 .724-.735c.002-4.821 0-9.642.001-14.462a.678.678 0 0 0-.727-.744c-1.82.019-3.647-.048-5.461.034zm1.145 16.344c.007.38.069.759.172 1.125.081-.165.144-.338.194-.514.033.177.079.352.166.512.098-.364.164-.737.179-1.114a1.12 1.12 0 0 0-.207.41 7.53 7.53 0 0 0-.171-.415 9.893 9.893 0 0 0-.133.513c-.037-.182-.079-.369-.199-.517zm.976 1.127a5.006 5.006 0 0 0-.001-1.128c-.183.329-.184.799.001 1.128zm.164-1.068c.269.269.176.664.189 1.005l.142-.002c.006-.342-.077-.734.192-1.002-.174.001-.349 0-.523-.002zm.677-.059c-.046.354-.034.711-.024 1.066h.116c.039-.19-.022-.484.251-.502.027.194.047.395.159.563.048-.353.035-.71.028-1.065l-.135-.003-.018.418-.223-.02c-.039-.156-.051-.326-.154-.457zm.776-.001c-.041.375-.041.756.002 1.131a1.213 1.213 0 0 0-.002-1.131zm.35.012c.012.366-.128.792.094 1.117.027-.231.036-.463.04-.695.11.239.231.474.384.688.032-.373.042-.75-.004-1.123-.129.157-.125.362-.144.554-.095-.198-.199-.398-.37-.541zm-4.243 1.594c-.195.242-.188.667.003.91.197.171.372-.054.45-.223-.127.049-.253.099-.379.151a2.155 2.155 0 0 1-.058-.746c.153.043.305.087.458.127-.106-.149-.274-.393-.475-.219zm.62-.068c-.003.361-.016.724.027 1.084.143-.169.124-.399.162-.604.091.157.164.323.228.492l.125.081c-.092-.276-.072-.557-.005-.833-.035-.254-.358-.169-.537-.221zm.862.039c-.189.218-.184.545-.101.807.046.241.442.24.484-.003.11-.294.076-.949-.383-.804zm.691.037c-.19.277.148.463.317.628l-.107.207c-.119-.076-.238-.15-.36-.222.063.23.294.483.522.257.215-.3-.189-.532-.325-.767.149.027.299.056.449.081-.105-.172-.301-.352-.497-.184zm.676.012c-.257.359.475.487.228.846a38.2 38.2 0 0 0-.35-.252c.011.255.26.464.492.276.218-.315-.179-.542-.333-.778.151.024.301.051.452.074-.11-.162-.306-.359-.489-.166zm.547-.119c.02.376.087.749.184 1.114.091-.154.135-.328.166-.502.055.172.119.34.194.506a4.19 4.19 0 0 0 .167-1.128c-.114.148-.154.33-.198.507a9.488 9.488 0 0 0-.132-.502c-.061.139-.118.28-.173.423-.045-.15-.087-.307-.208-.416zm1.084-.009c-.124.36-.213.732-.273 1.107.107-.116.211-.236.316-.354.098.123.197.246.3.365-.079-.38-.105-.796-.342-1.119zm.49 1.073c.195-.012.39-.033.58-.083a8.187 8.187 0 0 0-.436-.086c-.001-.302.003-.605-.027-.905-.241.298-.081.722-.118 1.075zm.666-1.078c-.04.355-.027.713-.022 1.069h.137l.047-.461c.103.187.208.376.37.521-.113-.371-.277-.754-.056-1.123-.107.108-.21.22-.309.336a1.87 1.87 0 0 0-.168-.342z"/>
    <path fill="#c0d642" d="M12.029 1.137l.144.342-.262-.003.118-.339zM9.793 22.431c.308.03.336.293.033.355l-.033-.355zM10.594 22.497c.255-.13.356.753-.025.709-.067-.224-.141-.511.025-.709z"/>
    <path fill="#909489" d="M8 .806c.044-.09.09-.179.137-.267L8.13.641c-.072 7.536-.006 15.074-.033 22.611l-.096.002V.805z"/>
    <path fill="#2b2e34" d="M9.659 1.002c.082-.405.675-.337.801.012a17.32 17.32 0 0 1-.455-.082l-.159.076.048.155c.171.078.363.13.506.257.198.225.057.628-.248.662-.255.065-.43-.154-.585-.316l.184-.065c.164.115.522.293.529-.045-.164-.262-.69-.257-.62-.656zM11.927.76l.215-.022c.152.461.332.913.446 1.386-.208-.06-.296-.252-.382-.43h-.355l-.149.365-.213.023c.138-.443.289-.883.438-1.323zm.102.377l-.118.339.262.003c-.047-.115-.096-.228-.144-.342zM13.682.747c.279-.004.559-.003.837.017-.086.271-.405.164-.617.195a31.34 31.34 0 0 0-.016.306l.379.025.033.182-.406.033-.002.345.594.003.022.217c-.274.001-.549 0-.823-.002.001-.44.001-.881-.001-1.321zM10.426 2.559l.206.018c-.001.372-.001.745.001 1.117l.594.001.025.196a75.84 75.84 0 0 1-.826.001c-.002-.444-.002-.889.001-1.333zM11.769 2.589c.055-.008.164-.027.218-.036.155.463.337.918.456 1.392-.216-.042-.292-.243-.37-.419l-.378-.008-.153.371-.215.01c.144-.438.301-.87.441-1.31zm.095.376c-.04.119-.078.238-.117.358l.297-.007-.18-.351zM12.543 2.514c.313.076.238.453.313.691.056-.208.109-.415.163-.624l.194-.015c.052.188.107.375.167.561.051-.187.093-.376.135-.565l.196.012c-.062.438-.13.877-.192 1.316l-.178.007c-.07-.268-.141-.536-.228-.801-.076.285-.14.572-.218.857-.39-.338-.232-.975-.353-1.44zM9.188 4.432c1.815-.082 3.642-.015 5.461-.034a.679.679 0 0 1 .727.744c-.001 4.821.001 9.642-.001 14.462a.677.677 0 0 1-.724.735c-1.748.001-3.498.008-5.246-.003-.391.015-.713-.35-.672-.736V5.146c-.017-.303.144-.634.455-.714zm.009.174c-.211.088-.313.32-.298.539 0 4.819-.003 9.639.002 14.458-.036.295.202.582.506.567 1.748.012 3.496.002 5.244.005a.52.52 0 0 0 .558-.57c-.001-4.847.007-9.696-.004-14.542.024-.344-.334-.541-.639-.502-1.788.031-3.588-.058-5.368.044z"/>
    <path fill="#2b2e34" d="M11.267 11.724c.252-.022.506-.021.757.012-.101.051-.2.107-.305.152-.002.272-.002.546-.002.818l-.153-.007c-.002-.27-.002-.539-.005-.808a2.33 2.33 0 0 1-.291-.167zM12.262 11.736c.647-.3.72 1.121.068.961-.34-.158-.328-.737-.068-.961zm.147.845c.318-.133.273-.637-.009-.791-.187.216-.252.606.009.791zM12.434 13.576c.218-.146.551-.022.605.238.123.332-.321.676-.606.458-.257-.141-.249-.554.002-.696zM10.661 14.467c.177-.346.779-.167.722.223-.003.259-.281.334-.478.404-.191-.14-.399-.384-.244-.627z"/>
    <path fill="#2b2e34" d="M12.145 15.58c.153-.478.204-1.144.8-1.275.482.296.834.889.834 1.453l.155.078c.047.189.096.377.145.566-.208.058-.415.12-.622.183-.013.339-.061.678-.045 1.017.144.43.384.822.571 1.235-.11.051-.219.104-.329.156-.307-.587-.68-1.149-.808-1.811-.301.544-.25 1.181-.335 1.777a43.3 43.3 0 0 0-.358-.034c.073-.689-.009-1.409.249-2.068.187-.375.164-.784.028-1.17-.184.115-.389.189-.583.284.044.215.115.424.165.638-.17.042-.34.086-.511.127l.2.621-.218.091c.131.417.268.831.392 1.25l-.19.064c-.191-.434-.375-.871-.565-1.305l-.208-.023c-.174.449-.341.902-.512 1.354l-.193-.087c.125-.424.232-.854.35-1.28l-.098-.147c.114-.399.334-.785.299-1.211-.164.298-.453.533-.801.564.171-.313.536-.499.577-.882.048-.372.291-.694.695-.693.285.129.422.404.533.678.125-.051.252-.101.378-.15zm1.119-.329c.041.24.081.481.145.716.046-.111.091-.223.135-.334-.093-.128-.185-.257-.28-.382zm-1.843.663c-.06.062-.075.231.037.244.132-.025.113-.342-.037-.244zM10.333 20.776c.12.148.162.335.199.517.04-.172.084-.344.133-.513.061.136.118.275.171.415a1.12 1.12 0 0 1 .207-.41 5.057 5.057 0 0 1-.179 1.114 1.707 1.707 0 0 1-.166-.512 2.901 2.901 0 0 1-.194.514 4.514 4.514 0 0 1-.172-1.125zM11.309 21.903a1.224 1.224 0 0 1-.001-1.128c.042.375.043.753.001 1.128zM11.473 20.835c.174.002.349.002.523.002-.269.267-.186.659-.192 1.002l-.142.002c-.013-.341.08-.736-.189-1.005zM12.926 20.775c.185.325.189.806.002 1.131a5.215 5.215 0 0 1-.002-1.131zM13.276 20.787c.17.144.275.343.37.541.018-.192.015-.397.144-.554.046.373.037.75.004 1.123a4.17 4.17 0 0 1-.384-.688 6.73 6.73 0 0 1-.04.695c-.222-.325-.082-.751-.094-1.117zM9.033 22.381c.201-.174.369.071.475.219-.154-.04-.306-.084-.458-.127-.02.25-.009.502.058.746.125-.052.252-.102.379-.151-.078.169-.253.394-.45.223-.191-.243-.198-.669-.003-.91zM9.653 22.313c.179.051.502-.033.537.221-.067.276-.087.557.005.833l-.125-.081a3.487 3.487 0 0 0-.228-.492c-.038.204-.019.434-.162.604-.042-.36-.03-.722-.027-1.084zm.14.118l.033.355c.302-.061.275-.325-.033-.355zM10.515 22.352c.459-.145.492.51.383.804-.042.243-.438.244-.484.003-.082-.262-.088-.589.101-.807zm.079.145c-.166.198-.092.485-.025.709.381.044.28-.839.025-.709zM11.206 22.389c.197-.168.393.012.497.184-.15-.025-.3-.054-.449-.081.135.234.54.467.325.766-.228.227-.459-.027-.522-.257.121.071.241.146.36.222.027-.051.081-.154.107-.207-.169-.164-.507-.351-.317-.628zM11.882 22.401c.183-.193.38.004.489.166-.15-.023-.301-.05-.452-.074.154.236.551.463.333.778-.233.189-.482-.021-.492-.276.117.082.233.167.35.252.247-.359-.485-.487-.228-.846zM12.429 22.282c.12.109.163.266.208.416.055-.143.111-.284.173-.423.049.166.092.334.132.502.044-.177.085-.359.198-.507a4.19 4.19 0 0 1-.167 1.128 4.252 4.252 0 0 1-.194-.506 1.508 1.508 0 0 1-.166.502 5.538 5.538 0 0 1-.184-1.114zM13.513 22.273c.237.323.263.738.342 1.119-.103-.12-.202-.242-.3-.365-.105.118-.208.238-.316.354.061-.375.149-.747.273-1.107zM14.003 23.346c.037-.353-.123-.776.118-1.075.03.301.026.603.027.905.145.026.291.053.436.086-.19.05-.385.071-.58.083z"/>
    <path fill="#2d3034" d="M10.519.776c.312-.042.628-.042.942-.02-.07.144-.224.173-.363.213.002.369.002.737 0 1.106l-.203-.004c-.005-.363-.002-.725-.007-1.088a1.916 1.916 0 0 1-.37-.207z"/>
    <path fill="#2f3234" d="M12.599.777c.316-.043.636-.045.953-.016-.095.115-.233.169-.367.219 0 .365.001.732-.002 1.097l-.203-.003c-.003-.365-.002-.73-.006-1.095a1.603 1.603 0 0 1-.376-.202z"/>
    <path fill="#9cae3f" d="M11.864 2.965c.061.116.12.233.18.351l-.297.007c.039-.12.077-.239.117-.358z"/>
    <path fill="#fff" d="M9.197 4.606c1.78-.102 3.58-.013 5.368-.044.306-.04.664.158.639.502.011 4.847.003 9.695.004 14.542a.52.52 0 0 1-.558.57c-1.748-.003-3.496.007-5.244-.005-.304.015-.541-.272-.506-.567-.005-4.819-.002-9.639-.002-14.458-.015-.219.087-.451.298-.539zm.244 1.158c-.281.101-.355.48-.182.709.805 1.384 1.595 2.775 2.408 4.155.16.311.644.316.801-.002.809-1.387 1.605-2.782 2.402-4.176.243-.331-.074-.801-.471-.725-1.652.027-3.315-.056-4.959.039zm1.826 5.96c.093.063.19.118.291.167.002.269.002.538.005.808l.153.007c0-.272 0-.546.002-.818.105-.045.203-.1.305-.152a3.548 3.548 0 0 0-.757-.012zm.995.012c-.26.224-.272.803.068.961.652.16.579-1.261-.068-.961zm.172 1.84c-.251.142-.259.555-.002.696.286.218.729-.125.606-.458-.054-.261-.386-.384-.605-.238zm-1.773.891c-.155.243.053.487.244.627.198-.071.475-.145.478-.404.056-.389-.546-.569-.722-.223zm1.484 1.113l-.378.15c-.111-.275-.248-.55-.533-.678-.404-.002-.647.321-.695.693-.042.383-.406.569-.577.882.347-.031.636-.266.801-.564.035.426-.185.812-.299 1.211l.098.147c-.119.426-.226.855-.35 1.28l.193.087c.17-.452.337-.904.512-1.354l.208.023c.189.434.374.871.565 1.305l.19-.064c-.124-.419-.261-.833-.392-1.25l.218-.091-.2-.621.511-.127c-.051-.214-.121-.423-.165-.638.194-.095.399-.169.583-.284.136.386.159.796-.028 1.17-.258.659-.176 1.379-.249 2.068l.358.034c.085-.596.034-1.233.335-1.777.128.662.501 1.224.808 1.811.11-.052.219-.105.329-.156-.188-.413-.428-.805-.571-1.235-.016-.34.032-.678.045-1.017.207-.062.414-.125.622-.183-.049-.189-.098-.378-.145-.566a11.236 11.236 0 0 1-.155-.078c0-.564-.351-1.157-.834-1.453-.595.13-.647.797-.8 1.275z"/>
    <path fill="#fff" d="M10.525 6.608c.853-.148 1.753-.019 2.624-.066.211-.031.644.028.491.334-.385.74-.834 1.447-1.234 2.18-.104.167-.229.458-.47.309-.484-.723-.876-1.507-1.333-2.25-.07-.145-.251-.381-.078-.507zm.683.325c.058.219.108.442.149.665.052-.231.111-.461.184-.687-.059.071-.116.144-.174.216-.053-.065-.105-.13-.159-.194zm.464.074c-.061.144-.096.414.027.513.051-.144.092-.415-.027-.513zm.172-.027l.002.565.357.013c-.1-.05-.201-.099-.302-.146l.1-.194-.094-.133.272-.091-.336-.013zm.419-.089c-.029.222-.03.445-.029.668l.378-.003-.264-.126a2.578 2.578 0 0 0-.085-.538zm.358.057c.002.218.01.437.022.655.331-.05.338-.371.271-.629l-.292-.026z"/>
    <path fill="#fff" d="M12.765 7.103c.13-.001.136.306.009.312-.071-.081-.082-.229-.009-.312zM12.409 12.581c-.262-.184-.196-.575-.009-.791.282.154.327.658.009.791zM13.264 15.251c.095.125.187.254.28.382a23.33 23.33 0 0 1-.135.334 7.261 7.261 0 0 1-.145-.716zM11.421 15.914c.15-.098.169.219.037.244-.112-.013-.097-.182-.037-.244z"/>
    <path fill="#cf3113" d="M9.441 5.764c1.644-.096 3.308-.012 4.959-.039.397-.076.714.394.471.725-.797 1.394-1.594 2.789-2.402 4.176-.157.318-.641.313-.801.002-.813-1.379-1.604-2.771-2.408-4.155-.174-.229-.099-.608.182-.709zm1.084.844c-.173.126.008.362.078.507.457.742.849 1.526 1.333 2.25.241.149.366-.142.47-.309.4-.732.849-1.44 1.234-2.18.153-.306-.28-.365-.491-.334-.871.046-1.771-.082-2.624.066z"/>
    <path fill="#cf3113" d="M11.208 6.933c.053.065.105.13.159.194l.174-.216a8.586 8.586 0 0 0-.184.687 8.868 8.868 0 0 0-.149-.665zM11.844 6.98l.336.013-.272.091.094.133-.1.194c.101.047.202.096.302.146l-.357-.013-.002-.565zM12.621 6.948l.292.026c.067.258.06.58-.271.629a15.918 15.918 0 0 1-.022-.655zm.144.155c-.073.083-.062.231.009.312.127-.006.121-.313-.009-.312z"/>
    <path fill="#db6650" d="M11.672 7.007c.119.098.077.369.027.513-.122-.099-.087-.37-.027-.513z"/>
    <path fill="#d75339" d="M12.263 6.891c.051.175.071.357.085.538l.264.126c-.125.002-.252.002-.378.003a4.97 4.97 0 0 1 .029-.668z"/>
    <path fill="#353935" d="M12.15 20.776c.103.131.115.301.154.457l.223.02.018-.418.135.003c.007.355.02.713-.028 1.065-.112-.168-.131-.37-.159-.563-.272.017-.212.311-.251.502h-.116c-.01-.355-.022-.713.024-1.066z"/>
    <path fill="#343835" d="M14.669 22.268c.069.107.122.223.168.342.099-.116.202-.228.309-.336-.22.369-.056.752.056 1.123-.162-.144-.267-.334-.37-.521-.017.153-.032.306-.047.461h-.137c-.005-.356-.018-.714.022-1.069z"/>
</svg>
