<svg xmlns="http://www.w3.org/2000/svg" width="24" height="24">
    <path fill="#fff" d="M.914 0h22.171c.448.101.814.468.915.916v22.167a1.23 1.23 0 0 1-.915.917H.916A1.234 1.234 0 0 1 0 23.086V.914A1.23 1.23 0 0 1 .914 0zm.652.587C1.008.647.56 1.171.575 1.73v20.54c-.021.621.535 1.176 1.155 1.155h20.539c.621.021 1.176-.534 1.155-1.155V1.73c.021-.621-.534-1.177-1.155-1.155H2.062c-.165.001-.332-.008-.496.012z"/>
    <path fill="#fff" d="M2.08 1.192c.149-.024.301-.015.451-.017 6.408.001 12.816-.001 19.223.001.57-.006 1.074.499 1.068 1.069v19.509c.006.569-.499 1.074-1.068 1.069-6.503.002-13.006.002-19.509 0-.569.005-1.075-.499-1.068-1.069V2.245c-.003-.509.398-.98.903-1.053zm10.945 2.787c-.458.612-.477 1.498-.142 2.17.297.602 1.128.788 1.688.454.223-.134.375-.354.481-.586a29.282 29.282 0 0 0-.519-.199c-.163.375-.689.547-.99.231-.395-.454-.394-1.189-.093-1.693.258-.403.897-.31 1.096.105.168-.075.336-.152.503-.23-.313-.79-1.52-.917-2.025-.253zm6.861-.218c-.384.263-.44.882-.095 1.199.34.325.856.328 1.224.603.234.173.123.573-.152.631-.365.124-.761-.099-.904-.444-.171.062-.341.128-.512.187.212.818 1.341 1.082 1.964.57.397-.326.413-1.019.01-1.346-.322-.275-.758-.331-1.124-.523-.186-.075-.218-.359-.045-.466.28-.163.696-.068.835.24.169-.054.337-.11.505-.17-.192-.712-1.159-.868-1.705-.481zM2.215 3.598c-.002.181-.002.361 0 .542.291.003.581 0 .871.001l.001 2.577h.563l.001-2.577.865-.001a48.96 48.96 0 0 0 0-.542c-.767-.001-1.534-.002-2.301 0zm3.387 3.099c.187.002.374.002.562 0 .005-.399 0-.798.002-1.197.202-.001.403-.002.604 0 .198.398.391.8.592 1.197.21.001.419.002.629-.002-.2-.419-.408-.834-.608-1.253.583-.201.788-.975.462-1.473-.172-.27-.506-.378-.811-.382-.477-.003-.954-.001-1.431 0-.001 1.036-.003 2.072.001 3.109zm3.497-3.083v1.921c.003.353.098.738.383.971.416.323 1.031.334 1.496.112.363-.183.535-.599.544-.989.007-.672-.002-1.345.004-2.017-.188.002-.375.002-.562 0l-.001 1.876c-.007.227-.034.503-.246.636a.909.909 0 0 1-.75.033c-.225-.091-.298-.354-.299-.576-.008-.656-.001-1.312-.003-1.968h-.568zm7.038 0c.003 1.035-.001 2.07.002 3.105h.563c.011-.292-.019-.588.013-.878.165-.221.35-.427.519-.645.27.509.54 1.017.812 1.525.218 0 .436.001.655-.001l-1.088-1.998c.29-.373.592-.735.882-1.108-.222.004-.443.003-.665.003-.373.478-.75.953-1.126 1.428v-1.43c-.189.002-.377.002-.566 0zm.288 5.783c-1.063.127-1.998.831-2.494 1.768-.795 1.478-.898 3.224-.762 4.867.142 1.428.584 2.988 1.797 3.876 1.393.968 3.543.81 4.669-.506.533-.607.847-1.374 1.04-2.151.264-1.109.309-2.262.208-3.394-.09-.915-.293-1.836-.731-2.652-.337-.631-.848-1.183-1.497-1.498-.686-.339-1.478-.407-2.229-.31zm-12.98.166l-.323 5.387c.617.262 1.236.521 1.853.781.645-.75 1.834-.977 2.692-.476.726.466.833 1.492.551 2.244-.298.796-1.172 1.219-1.986 1.213a3.776 3.776 0 0 1-2.355-.709c-.358.494-.714.988-1.07 1.484.658.553 1.496.846 2.338.966.95.131 1.948.094 2.844-.274.754-.304 1.415-.853 1.808-1.568.714-1.32.629-3.089-.32-4.273-1.05-1.273-3.037-1.467-4.447-.714.062-.747.103-1.495.168-2.241 1.465-.002 2.931.002 4.397-.002.003-.606.002-1.211.001-1.816-2.05-.002-4.101-.001-6.151 0z"/>
    <path fill="#fff" d="M6.165 4.122c.315.01.633-.022.946.017.392.052.413.713.032.799-.323.047-.653.009-.979.021v-.837zM16.708 11.189c.5-.095 1.052.039 1.414.407.474.477.667 1.153.784 1.797.158.989.159 2.004.014 2.994-.118.682-.309 1.404-.816 1.905-.602.605-1.714.557-2.254-.108-.601-.728-.721-1.713-.797-2.621-.035-1.079-.015-2.198.394-3.214.215-.548.653-1.062 1.261-1.16z"/>
    <path d="M1.566.587c.165-.021.331-.011.496-.012h20.207c.621-.022 1.176.534 1.155 1.155v20.54c.02.62-.535 1.176-1.155 1.155H1.73c-.62.021-1.176-.534-1.155-1.155V1.73C.56 1.171 1.008.647 1.566.587zm.514.605a1.085 1.085 0 0 0-.903 1.053v19.509c-.007.57.499 1.074 1.068 1.069 6.503.002 13.006.002 19.509 0 .569.005 1.074-.5 1.068-1.069V2.245c.006-.57-.499-1.075-1.068-1.069-6.408-.003-12.816 0-19.223-.001-.15.001-.302-.007-.451.017z"/>
    <path d="M13.025 3.979c.505-.665 1.712-.538 2.025.253-.167.078-.335.154-.503.23-.199-.415-.838-.508-1.096-.105-.301.503-.301 1.238.093 1.693.302.316.827.144.99-.231.173.066.347.131.519.199-.107.232-.259.452-.481.586-.56.333-1.391.148-1.688-.454-.335-.672-.316-1.558.142-2.17zM19.886 3.761c.546-.387 1.514-.231 1.705.481-.167.06-.336.116-.505.17-.139-.308-.555-.402-.835-.24-.172.107-.141.391.045.466.366.191.802.248 1.124.523.403.328.387 1.02-.01 1.346-.623.512-1.752.247-1.964-.57.172-.06.341-.125.512-.187.143.345.539.568.904.444.275-.058.386-.458.152-.631-.368-.275-.884-.277-1.224-.603-.345-.317-.289-.936.095-1.199zM2.215 3.598c.767-.002 1.534-.001 2.301 0v.542l-.865.001-.001 2.577c-.188.002-.375.001-.563 0l-.001-2.577c-.291-.001-.581.001-.871-.001a48.96 48.96 0 0 1 0-.542zM5.602 6.697c-.004-1.036-.002-2.072-.001-3.109.477 0 .954-.002 1.431 0 .306.003.64.112.811.382.327.498.121 1.272-.462 1.473.201.419.409.834.608 1.253-.21.004-.419.003-.629.002-.201-.397-.394-.798-.592-1.197a30.402 30.402 0 0 0-.604 0c-.002.399.003.798-.002 1.197-.188.002-.375.002-.562 0zm.563-2.575v.837c.326-.012.656.027.979-.021.38-.086.36-.747-.032-.799-.313-.039-.631-.007-.946-.017zM9.099 3.614h.568c.002.656-.005 1.313.003 1.968.001.222.074.485.299.576a.91.91 0 0 0 .75-.033c.211-.134.239-.409.246-.636l.001-1.876c.187.002.374.002.562 0-.007.672.002 1.345-.004 2.017-.009.39-.181.805-.544.989-.465.222-1.08.211-1.496-.112-.285-.233-.38-.618-.383-.971V3.615zM16.137 3.614h.566v1.43c.376-.476.754-.95 1.126-1.428.222 0 .443.001.665-.003-.29.373-.592.735-.882 1.108L18.7 6.719c-.218.002-.436.001-.655.001a445.12 445.12 0 0 1-.812-1.525c-.169.218-.355.424-.519.645-.032.29-.002.586-.013.878a35.22 35.22 0 0 1-.563 0c-.003-1.035.001-2.07-.002-3.105zM16.425 9.397c.751-.097 1.543-.029 2.229.31.648.315 1.16.867 1.497 1.498.438.816.641 1.736.731 2.652.101 1.133.056 2.286-.208 3.394-.192.777-.507 1.544-1.04 2.151-1.125 1.315-3.276 1.473-4.669.506-1.213-.888-1.655-2.448-1.797-3.876-.135-1.643-.032-3.388.762-4.867.496-.937 1.431-1.642 2.494-1.768zm.283 1.792c-.607.098-1.046.613-1.261 1.16-.409 1.016-.428 2.135-.394 3.214.075.908.196 1.893.797 2.621.54.666 1.652.713 2.254.108.507-.502.697-1.223.816-1.905a9.886 9.886 0 0 0-.014-2.994c-.117-.644-.31-1.32-.784-1.797-.362-.368-.914-.502-1.414-.407zM3.445 9.563h6.151c.001.606.002 1.211-.001 1.816-1.466.004-2.932 0-4.397.002-.065.746-.106 1.494-.168 2.241 1.41-.753 3.397-.558 4.447.714.949 1.185 1.034 2.953.32 4.273-.393.715-1.054 1.265-1.808 1.568-.896.368-1.894.405-2.844.274-.842-.12-1.68-.413-2.338-.966.356-.495.712-.99 1.07-1.484.682.485 1.516.75 2.355.709.814.007 1.688-.417 1.986-1.213.282-.753.175-1.778-.551-2.244-.858-.501-2.048-.274-2.692.476-.618-.26-1.237-.519-1.853-.781l.323-5.387z"/>
</svg>
