<svg xmlns="http://www.w3.org/2000/svg" width="24" height="24">
    <path fill="#e5312b" d="M11.088.301c3.923-.365 7.943 1.435 10.314 4.573 2.422 3.119 3.103 7.483 1.74 11.189-1.249 3.564-4.318 6.433-7.976 7.391a11.65 11.65 0 0 1-8.454-.877c-3.244-1.628-5.61-4.848-6.223-8.422-.674-3.589.464-7.447 2.953-10.116C5.405 1.895 8.192.541 11.088.301zm0 2.879c-2.719.28-5.264 1.882-6.679 4.222-1.973 3.1-1.699 7.404.631 10.238 1.933 2.45 5.207 3.754 8.294 3.282 2.911-.379 5.56-2.314 6.823-4.963 1.156-2.336 1.189-5.18.108-7.552-1.511-3.48-5.413-5.7-9.178-5.227z"/>
    <path fill="#fff" d="M11.088 3.18c3.764-.473 7.667 1.747 9.178 5.227 1.081 2.371 1.048 5.215-.108 7.552-1.264 2.65-3.912 4.584-6.823 4.963-3.088.472-6.361-.832-8.294-3.282-2.33-2.834-2.604-7.139-.631-10.238 1.415-2.34 3.96-3.942 6.679-4.222zm2.708 4.399a8.572 8.572 0 0 0-.592 6.57c.185.42.373 1.091.952 1.033 1.568-.08 3.35-.75 4.038-2.27.419-1.288.107-2.801-.733-3.854-.954-.972-2.342-1.363-3.665-1.478zm-2.479.976c-1.433.443-2.876.896-4.236 1.534-.431.144-.215.905.236.751 1.327-.33 2.609-.835 3.894-1.301.317-.166.902-.301.816-.768-.06-.347-.461-.281-.71-.216zm.123 1.563a28.144 28.144 0 0 0-4.303 1.464c-.532.162-.044 1.064.401.769 1.448-.499 2.922-.949 4.325-1.565.461-.281.037-.94-.422-.668zm-4.329 2.994c-.467.151-.127.652.095.87 1.322-.446 2.647-.889 3.953-1.385.295-.13.641-.224.834-.503.08-.334-.28-.61-.587-.462-1.464.384-2.912.864-4.295 1.48zm4.573.02a29.562 29.562 0 0 0-4.434 1.439c-.354.067-.462.59-.137.763.5.079.984-.143 1.456-.276 1.087-.377 2.208-.686 3.234-1.212.385-.102.306-.83-.119-.714zm-.23 1.576c-1.316.326-2.596.798-3.864 1.276-.263.121-.727.271-.577.649.047.36.467.312.719.222 1.256-.388 2.504-.809 3.718-1.316.264-.132.686-.263.61-.64-.048-.278-.401-.232-.605-.191z"/>
    <path d="M13.796 7.579c1.322.115 2.711.506 3.665 1.478.84 1.054 1.152 2.567.733 3.854-.688 1.52-2.47 2.19-4.038 2.27-.578.058-.767-.613-.952-1.033a8.567 8.567 0 0 1 .592-6.57zM11.317 8.555c.25-.065.65-.131.71.216.086.467-.499.602-.816.768-1.285.466-2.567.971-3.894 1.301-.451.154-.667-.607-.236-.751 1.36-.637 2.803-1.091 4.236-1.534zM11.44 10.118c.46-.271.883.388.422.668-1.403.616-2.876 1.066-4.325 1.565-.445.295-.932-.607-.401-.769a28.144 28.144 0 0 1 4.303-1.464zM7.111 13.112c1.382-.616 2.831-1.096 4.295-1.48.307-.148.667.128.587.462-.193.278-.539.373-.834.503-1.306.496-2.63.938-3.953 1.385-.222-.218-.562-.719-.095-.87zM11.684 13.132c.425-.116.504.612.119.714-1.026.526-2.147.835-3.234 1.212-.472.133-.955.355-1.456.276-.325-.173-.217-.696.137-.763a29.562 29.562 0 0 1 4.434-1.439zM11.454 14.708c.204-.041.557-.088.605.191.077.377-.346.508-.61.64-1.213.508-2.461.929-3.718 1.316-.252.09-.672.138-.719-.222-.15-.378.314-.528.577-.649 1.268-.478 2.548-.949 3.864-1.276z"/>
</svg>
