<svg xmlns="http://www.w3.org/2000/svg" width="24" height="24">
    <path fill="#231f20" d="M5.401 0h13.405a2.18 2.18 0 0 1 1.287 1.405V22.59A2.213 2.213 0 0 1 18.689 24H5.462a2.186 2.186 0 0 1-1.463-1.757V1.698C4.133.94 4.651.237 5.4-.001zm.407.079c-.899.147-1.616.972-1.64 1.882v20.024c.022.924.749 1.79 1.678 1.903 4.133.003 8.266-.001 12.399.002.949-.071 1.756-.954 1.737-1.907-.004-6.711-.001-13.422-.001-20.134-.056-.953-.904-1.747-1.849-1.792H6.015c-.07 0-.14.008-.208.022z"/>
    <path fill="#fff" d="M5.808.079a.967.967 0 0 1 .208-.022h12.117c.945.045 1.793.839 1.849 1.792 0 6.712-.003 13.423.001 20.134.019.953-.788 1.836-1.737 1.907-4.133-.003-8.267.002-12.399-.002-.929-.112-1.656-.979-1.678-1.903V1.961c.024-.91.741-1.734 1.64-1.882zm-.049.39c-.661.155-1.179.75-1.199 1.435l.001 20.136c.004.712.579 1.37 1.287 1.454 4.151.002 8.303.002 12.454 0 .649-.075 1.211-.637 1.286-1.285.003-6.787-.001-13.574.002-20.361-.026-.732-.667-1.373-1.4-1.4H6.356c-.199.004-.4-.019-.596.021z"/>
    <path fill="#fff" d="M5.983 1.03c3.747-.047 7.501-.007 11.251-.02.397.016.812-.058 1.192.092.37.136.612.525.603.915-.002 6.675.001 13.35-.002 20.024a.956.956 0 0 1-.949.896c-4.021-.003-8.042.001-12.062-.002-.539-.013-.902-.557-.894-1.061.002-6.6-.004-13.2.003-19.8-.011-.504.333-.996.858-1.042zm3.106 2.683c.229.261.572.393.798.656.146.189.01.412-.116.567l-.329.001a.876.876 0 0 1-.194-.45c-.147 0-.294 0-.442.002-.006.441.319.929.801.9.5.033.873-.522.757-.982-.081-.453-.521-.7-.879-.921-.129-.102-.094-.27-.047-.405.127-.022.253-.047.38-.07.052.099.102.199.15.299.148-.001.296-.001.445-.004-.058-.368-.324-.791-.75-.731-.58-.072-.913.71-.575 1.139zM5.57 2.636v2.692h.449V4.094h.319c.07.42.234.817.317 1.234h.478c-.117-.427-.251-.849-.372-1.275.5-.31.517-1.207-.088-1.396-.364-.051-.736-.007-1.103-.021zm1.738 0v2.692h1.458v-.393H7.757v-.841h.561v-.449h-.561v-.617h.897v-.393H7.308zm3.253 0v2.692h1.458v-.393H11.01v-.841h.561v-.449h-.561v-.617h.897v-.393h-1.346zm1.626 0v2.692h.449V4.095l.327-.001c.13.409.216.83.356 1.235l.455-.004a99.013 99.013 0 0 1-.369-1.288c.513-.273.478-1.157-.058-1.382-.384-.048-.774-.005-1.161-.019zm1.559-.002c.275.885.459 1.797.698 2.693h.361c.196-.905.463-1.793.681-2.694-.157.034-.437-.091-.485.122-.113.5-.278.986-.375 1.489-.135-.494-.249-.993-.376-1.489-.053-.219-.343-.085-.505-.121zm1.861.002v2.692h1.402v-.393h-.953v-.841h.561v-.449h-.561v-.617h.841v-.393h-1.29zm1.627 0v2.692c.33-.013.664.029.991-.021.38-.104.497-.529.536-.874.096-.425.026-.862-.077-1.279-.063-.22-.203-.453-.441-.51-.335-.024-.672-.001-1.008-.008zm-.818 4.283c-.187.47-.242.996-.149 1.494.031.301.089.643.344.838.222.163.505.107.761.115.495-.263.433-.874.422-1.347h-.728v.392l.29.001c.022.239-.053.484-.289.585-.44-.199-.399-.743-.396-1.146-.008-.342.027-.855.476-.866.082.099.165.2.239.306l.43-.004c-.064-.241-.136-.529-.393-.633-.339-.195-.802-.061-1.007.265zM6.411 6.617v2.748h.449V8.189c.344.013.775.022.99-.301.163-.427.141-1.106-.391-1.249-.345-.052-.699-.008-1.047-.021zm2.194-.001c-.244.912-.46 1.832-.695 2.747l.449.002c.06-.244.12-.488.19-.73l.506-.001c.1.233.107.501.229.722.132.014.264.01.396.011-.164-.928-.461-1.827-.65-2.751h-.424zm1.283.001v2.748h.449V8.076l.27-.001c.137.426.265.855.367 1.29l.446-.002c-.067-.451-.246-.876-.356-1.318.518-.279.492-1.26-.128-1.407-.345-.05-.699-.007-1.047-.021zm1.794 0v2.748h.449c.001-.432-.069-.896.211-1.265.155.421.298.847.46 1.266.158-.001.315-.002.473-.006-.211-.59-.427-1.178-.627-1.772.18-.326.389-.636.554-.971l-.507-.002c-.204.322-.377.663-.564.995-.002-.331 0-.662-.001-.993h-.449zm1.851 0v2.748h.393V6.617h-.393zm.841 0v2.748h.449c.002-.538-.003-1.076.002-1.614.273.527.487 1.082.75 1.614h.313V6.617h-.393c-.002.501.003 1.001-.002 1.502-.252-.49-.459-1.002-.692-1.502h-.428zm-5.755 4.001c-.368.048-.598.409-.583.762.003 2.208-.001 4.415.002 6.622-.003.352.308.694.67.672 2.264-.004 4.528.001 6.792-.002a.64.64 0 0 0 .613-.67c-.004-2.245.001-4.489-.002-6.733.013-.435-.445-.706-.839-.673-2.218.019-4.439-.026-6.654.022zm.665 8.68c-.64.435-1.295.849-1.919 1.308-.016.114.128.157.199.222.581.366 1.128.784 1.708 1.153.111.069.303.11.385-.019.047-.262-.076-.51-.128-.762 1.693-.008 3.387-.001 5.08-.003-.079.248-.192.499-.178.764.1.128.313.1.433.013.585-.386 1.148-.804 1.742-1.178.061-.056.174-.082.183-.175a86.938 86.938 0 0 0-1.968-1.33c-.112-.07-.303-.11-.387.02-.043.269.098.516.178.764-1.694-.001-3.388.004-5.083-.003.052-.252.175-.5.128-.763-.08-.127-.27-.092-.373-.011z"/>
    <path fill="#fff" d="M6.019 3.021c.214.02.536-.033.639.209.073.113-.004.244-.021.363a2.38 2.38 0 0 1-.619.055v-.627zM12.636 3.025c.241-.016.493-.004.675.177l-.002.306a8.848 8.848 0 0 0-.137.137h-.536v-.62zM17.683 3.019c.237-.016.526.048.598.31.14.441.082.925.011 1.375-.151.179-.383.235-.608.246-.003-.644-.001-1.287-.001-1.931zM6.86 7.066l.5-.003a.439.439 0 0 1 0 .677l-.5-.003v-.672zM10.336 7.066l.5-.003c.07.126.243.263.141.416-.103.242-.426.19-.64.21v-.623zM8.794 7.587c.054.199.104.398.156.597l-.302.004c.058-.199.104-.399.146-.601zM11.176 12.446c-.031-.517.775-.612.95-.164.177.321-.085.67-.399.764.026.287.077.572.072.861h1.228v.505h-1.178v.224c.542-.001 1.084.001 1.627-.001.239.523.441 1.063.691 1.581.182-.043.351-.123.524-.193.056.144.112.287.159.434-.332.133-.67.251-1.002.385-.23-.573-.474-1.14-.73-1.701h-1.706c-.127-.893-.113-1.8-.236-2.694z"/>
    <path fill="#fff" d="M10.142 15.949c-.179-.813.314-1.636 1.035-2 .054.197.063.401.059.605-.312.255-.592.608-.569 1.034-.062.769.773 1.446 1.511 1.225.468-.104.849-.511.927-.985l.075-.09c.098.264.424.554.221.839-.307.51-.903.818-1.494.81-.835.043-1.623-.621-1.765-1.439z"/>
    <path fill="#006f51" d="M5.759.469c.196-.04.398-.017.596-.021h11.834c.733.026 1.374.667 1.4 1.4-.002 6.787.001 13.574-.002 20.361-.075.648-.637 1.211-1.286 1.285-4.151.002-8.303.002-12.454 0-.708-.084-1.283-.742-1.287-1.454-.001-6.712.001-13.424-.001-20.136.02-.685.538-1.28 1.199-1.435zm.224.561c-.525.046-.869.539-.858 1.042-.008 6.6-.001 13.2-.003 19.8-.008.504.356 1.048.894 1.061 4.02.003 8.041-.001 12.062.002.49.01.931-.406.949-.896.003-6.675 0-13.349.002-20.024.009-.39-.233-.779-.603-.915-.38-.15-.795-.076-1.192-.092-3.75.013-7.503-.027-11.251.02z"/>
    <path fill="#006f51" d="M9.089 3.713c-.339-.429-.006-1.211.575-1.139.426-.061.692.363.75.731-.149.003-.297.003-.445.004a9.27 9.27 0 0 0-.15-.299l-.38.07c-.048.135-.082.303.047.405.358.221.799.469.879.921.116.46-.257 1.014-.757.982-.482.029-.806-.459-.801-.9.147-.002.294-.002.442-.002.017.168.091.32.194.45l.329-.001c.126-.155.261-.378.116-.567-.226-.263-.569-.395-.798-.656zM5.57 2.636c.367.014.739-.03 1.103.021.605.189.588 1.087.088 1.396.121.426.255.848.372 1.275h-.478c-.084-.417-.248-.814-.317-1.234h-.319v1.234H5.57V2.636zm.449.385v.627c.207.002.417-.003.619-.055.016-.119.094-.25.021-.363-.104-.241-.425-.188-.639-.209zM7.308 2.636h1.346v.393h-.897v.617h.561v.449h-.561v.841h1.009v.393H7.308V2.637zM10.561 2.636h1.346v.393h-.897v.617h.561v.449h-.561v.841h1.009v.393h-1.458V2.637zM12.187 2.636c.386.014.777-.029 1.161.019.536.224.571 1.109.058 1.382.12.43.243.859.369 1.288l-.455.004c-.14-.405-.227-.827-.356-1.235l-.327.001v1.233h-.449V2.636zm.449.389v.62h.536l.137-.137.002-.306c-.182-.181-.434-.193-.675-.177zM13.746 2.634c.161.036.452-.098.505.121.127.496.241.995.376 1.489.096-.504.262-.99.375-1.489.048-.214.328-.088.485-.122-.218.901-.484 1.789-.681 2.694h-.361c-.239-.896-.423-1.807-.698-2.693zM15.607 2.636h1.29v.393h-.841v.617h.561v.449h-.561v.841h.953v.393h-1.402V2.637zM17.234 2.636c.336.007.673-.016 1.008.008.238.057.378.289.441.51.103.416.174.853.077 1.279-.039.345-.156.77-.536.874-.326.05-.661.008-.991.021V2.636zm.449.383c0 .644-.002 1.287.001 1.931.225-.011.456-.067.608-.246.072-.45.129-.934-.011-1.375-.072-.262-.362-.326-.598-.31zM16.416 6.919c.205-.326.667-.46 1.007-.265.257.104.329.392.393.633a62.22 62.22 0 0 1-.43.004 4.184 4.184 0 0 0-.239-.306c-.449.011-.484.524-.476.866-.003.403-.043.948.396 1.146.236-.1.311-.345.289-.585l-.29-.001v-.392h.728c.011.473.073 1.084-.422 1.347-.256-.008-.539.048-.761-.115-.255-.195-.313-.537-.344-.838a2.722 2.722 0 0 1 .149-1.494zM6.411 6.617c.348.013.702-.03 1.047.021.533.144.555.823.391 1.249-.215.322-.647.313-.99.301v1.176H6.41V6.616zm.449.449v.672l.5.003a.439.439 0 0 0 0-.677l-.5.003zM8.605 6.616h.424c.188.924.486 1.823.65 2.751-.132-.001-.265.003-.396-.011-.122-.221-.129-.489-.229-.722l-.506.001c-.07.241-.13.486-.19.73l-.449-.002c.235-.915.45-1.834.695-2.747zm.189.971a7.734 7.734 0 0 1-.146.601l.302-.004c-.052-.199-.102-.399-.156-.597zM9.888 6.617c.348.013.702-.03 1.047.021.62.147.647 1.128.128 1.407.11.442.289.867.356 1.318l-.446.002c-.102-.435-.23-.865-.367-1.29l-.27.001v1.289h-.449V6.617zm.448.449v.623c.214-.02.537.033.64-.21.103-.153-.071-.29-.141-.416l-.5.003zM11.682 6.617h.449c.001.331-.001.662.001.993.187-.332.359-.673.564-.995l.507.002c-.165.335-.374.644-.554.971.2.594.416 1.182.627 1.772a18.65 18.65 0 0 1-.473.006c-.162-.419-.304-.845-.46-1.266-.28.369-.211.833-.211 1.265h-.449V6.617zM13.533 6.617h.393v2.748h-.393V6.617zM14.374 6.617h.428c.233.5.44 1.012.692 1.502.004-.5 0-1.001.002-1.502h.393v2.748h-.313c-.264-.532-.478-1.087-.75-1.614-.004.538 0 1.076-.002 1.614h-.449V6.617zM9.284 19.298c.103-.081.293-.116.373.011.047.263-.076.511-.128.763 1.695.007 3.389.002 5.083.003-.08-.248-.22-.496-.178-.764.084-.13.275-.09.387-.02.663.432 1.317.88 1.968 1.33-.009.093-.122.119-.183.175-.593.374-1.156.792-1.742 1.178-.12.087-.333.116-.433-.013-.015-.265.099-.516.178-.764-1.693.002-3.386-.004-5.08.003.052.252.175.5.128.762-.082.13-.274.088-.385.019-.58-.369-1.127-.787-1.708-1.153-.071-.065-.215-.108-.199-.222.624-.459 1.279-.873 1.919-1.308z"/>
    <path fill="#005596" d="M8.619 10.618c2.215-.048 4.436-.004 6.654-.022.394-.033.852.238.839.673.003 2.244-.002 4.489.002 6.733.022.344-.266.667-.613.67-2.264.003-4.529-.002-6.792.002-.362.022-.672-.32-.67-.672-.003-2.208.001-4.415-.002-6.622-.015-.353.215-.714.583-.762zm2.557 1.828c.123.894.109 1.802.236 2.694h1.706c.255.561.499 1.129.73 1.701.332-.134.67-.251 1.002-.385-.047-.147-.103-.29-.159-.434-.173.07-.342.15-.524.193-.25-.518-.451-1.058-.691-1.581l-1.627.001v-.224h1.178v-.505h-1.228c.004-.289-.046-.574-.072-.861.314-.094.576-.443.399-.764-.176-.447-.981-.353-.95.164zm-1.034 3.503c.142.818.93 1.481 1.765 1.439.592.008 1.188-.3 1.494-.81.203-.285-.123-.575-.221-.839l-.075.09c-.078.473-.459.88-.927.985-.738.221-1.573-.455-1.511-1.225-.023-.426.257-.779.569-1.034a2.194 2.194 0 0 0-.059-.605c-.721.364-1.214 1.187-1.035 2z"/>
</svg>
