<svg xmlns="http://www.w3.org/2000/svg" width="24" height="24">
    <path fill="#cd1e05" d="M11.042 0h1.89c3.852.344 7.498 2.568 9.428 5.94.913 1.52 1.396 3.251 1.64 4.996v2.275c-.391 3.442-2.235 6.709-5.1 8.687-1.526 1.093-3.317 1.766-5.156 2.102H10.26c-4.572-.705-8.576-4.186-9.802-8.661-.225-.748-.319-1.526-.458-2.293v-1.995c.181-1.317.447-2.636.999-3.853C2.288 4.212 4.849 1.809 7.912.714 8.915.324 9.985.169 11.042 0zM8.443 3.848c-.816.349-1.558.846-2.258 1.387 4.243 4.212 8.438 8.471 12.692 12.672 1.489-1.676 2.239-3.973 2.125-6.207-.095-2.753-1.593-5.391-3.843-6.962-2.49-1.777-5.918-2.13-8.716-.89zM5.137 6.283c-1.493 1.828-2.315 4.215-2.091 6.58.233 3.376 2.597 6.45 5.739 7.658 2.993 1.187 6.599.57 9.029-1.542-4.216-4.242-8.457-8.458-12.677-12.696z"/>
    <path fill="#fff" d="M8.443 3.848c2.798-1.24 6.226-.887 8.716.89 2.25 1.571 3.748 4.209 3.843 6.962.114 2.234-.636 4.531-2.125 6.207-4.254-4.201-8.449-8.46-12.692-12.672.7-.541 1.442-1.038 2.258-1.387zm5.27 3.519c-.531-.011-1.113.211-1.312.744-.324.725.301 1.638 1.099 1.576.805.04 1.419-.913 1.043-1.631-.114-.35-.629-.449-.573-.859.734.468 1.048 1.685 2.055 1.566.168.503.617.936 1.175.911.769.029 1.396-.841 1.085-1.558-.211-.601-.903-.843-1.491-.729a5.327 5.327 0 0 1-.311-.819l.39-.126a12.436 12.436 0 0 0-.05-.183c-.371 0-.744-.012-1.114.034.212.085.43.154.644.232-.612.411-1.479.091-2.192.187.049-.385.359-.508.711-.463a17.866 17.866 0 0 0-.01-.226c-.868-.215-.967.75-1.149 1.344zM5.137 6.283c4.22 4.238 8.461 8.454 12.677 12.696-2.43 2.112-6.036 2.729-9.029 1.542-3.142-1.208-5.506-4.282-5.739-7.658-.224-2.365.598-4.752 2.091-6.58zm.547 4.295l-.342.016c.039.19.084.379.141.566-.073.195-.148.389-.222.584-.618-.114-1.289.399-1.167 1.057.079.705 1.04 1.034 1.538.53.483-.42.306-1.178-.185-1.512.089-.196.174-.393.266-.588.2.567.275 1.179.529 1.725.46.128.95.034 1.422.062-.092-.481.085-.939.398-1.3l-1.035.003c-.097.183-.195.365-.295.545a30.683 30.683 0 0 1-.529-.028c-.062-.256-.128-.511-.179-.769.311-.019.623-.021.934-.04.075-.67-.852-.283-1.239-.388l.185-.217c.138-.052.27-.117.393-.199a14.736 14.736 0 0 0-.515-.057c.081-.362.227-.702.397-1.031-.351.23-.386.673-.495 1.041zm1.444.97c.367.013.733.01 1.1.011l.084.278c-.301.259-.558.649-.422 1.063.136.597.928.886 1.414.51.493-.315.518-1.11.052-1.46-.266-.265-.702-.1-.968-.357.188-.022.377-.041.565-.059-.058-.211-.198-.408-.447-.356-.479.05-1.163-.215-1.378.37zm1.032 4.35l-.429.002a3.279 3.279 0 0 1-.183.665 3.15 3.15 0 0 0-1.002.352c-.071.343-.259.704-.104 1.05.179.552.883.842 1.394.557.413-.247.642-.719.748-1.172.158.245.456.483.291.804.811.005 1.671.139 2.403-.299.168.425.531.81 1.023.778.487.03.751-.418 1.069-.702-.001-.208 0-.415.002-.623a18.987 18.987 0 0 0-.461-.559l.161-.311c-.91-.112-1.829-.138-2.734-.286l-.157-.255c-.601.001-1.201.003-1.801-.001.189-.332.393-.655.63-.955l.401-.042a2.12 2.12 0 0 0-.305-.23c-.471.258-.68.789-.946 1.227z"/>
    <path fill="#fff" d="M14.128 6.956c.665-.002 1.331-.006 1.997-.004-.192.511-.382 1.023-.581 1.531-.469-.511-.951-1.012-1.416-1.527zM15.806 8.58c.141-.523.365-1.019.567-1.521l.21.45c-.432.238-.406.812-.777 1.071zM12.585 8.702c-.128-.61.451-1.108 1.03-1.082-.055.367-.368.761-.125 1.114.171-.332.274-.691.396-1.042.521.305.704 1.092.216 1.511-.486.49-1.413.176-1.517-.501zM16.922 7.631c.514-.092 1.121.206 1.166.77.116.6-.506 1.157-1.089 1.001-.345-.056-.558-.353-.72-.634.371-.012.743-.002 1.113-.036-.139-.374-.314-.733-.47-1.101z"/>
    <path fill="#fff" d="M16.245 8.518c.069-.296.22-.561.434-.776.126.259.246.521.366.783-.267-.001-.534-.002-.8-.007zM4.4 12.507c.076-.348.445-.468.759-.487-.142.336-.722.694-.161.974.363-.163.215-.59.307-.893.363.24.448.809.057 1.064-.431.35-1.132-.131-.962-.658zM8.635 12.012c.374.016.812.25.756.685.012.53-.738.787-1.07.384-.299-.291-.138-.731.116-.989.106.237.098.496.118.749a.3.3 0 0 0 .505-.141c-.09-.254-.346-.42-.425-.688zM8.325 16.444c.123-.065.382.118.168.192-.196.122-.517-.142-.168-.192zM8.796 16.921c.355-.022.26.423.267.646-.113-.201-.339-.394-.267-.646zM7.179 18.024c-.41-.23-.175-.772.227-.833-.192.283-.403.726.119.704.055-.191.108-.383.167-.572.325.352-.073.937-.513.701zM12.056 17.265c.285-.078.574.032.618.35a3.881 3.881 0 0 1-.618-.35zM11.81 17.548l.217-.098.042.425c.211-.024.421-.053.632-.07-.252.467-.918.263-.891-.257z"/>
    <path d="M13.713 7.367c.182-.594.281-1.559 1.149-1.344l.01.226c-.352-.045-.662.078-.711.463.713-.096 1.58.224 2.192-.187-.214-.078-.432-.147-.644-.232.37-.046.743-.034 1.114-.034l.05.183-.39.126c.076.283.19.553.311.819.588-.114 1.28.128 1.491.729.311.717-.316 1.587-1.085 1.558-.558.025-1.007-.408-1.175-.911-1.007.119-1.321-1.098-2.055-1.566-.056.41.459.509.573.859.376.718-.238 1.671-1.043 1.631-.798.062-1.423-.851-1.099-1.576.199-.533.781-.755 1.312-.744zm.415-.411c.465.515.947 1.016 1.416 1.527.199-.508.389-1.02.581-1.531-.666-.002-1.332.002-1.997.004zm1.678 1.624c.371-.259.345-.833.777-1.071l-.21-.45c-.202.502-.426.998-.567 1.521zm-3.221.122c.104.677 1.031.991 1.517.501.488-.419.305-1.206-.216-1.511-.122.351-.225.71-.396 1.042-.243-.353.07-.747.125-1.114-.579-.026-1.158.472-1.03 1.082zm4.337-1.071c.156.368.331.727.47 1.101-.37.034-.742.024-1.113.036.162.281.375.578.72.634.583.156 1.205-.401 1.089-1.001-.045-.564-.652-.862-1.166-.77zm-.677.887c.266.005.533.006.8.007-.12-.262-.24-.524-.366-.783-.214.215-.365.48-.434.776z"/>
    <path fill="#050505" d="M5.684 10.578c.109-.368.144-.811.495-1.041-.17.329-.316.669-.397 1.031.172.016.344.035.515.057a1.935 1.935 0 0 1-.393.199l-.185.217c.387.105 1.314-.282 1.239.388-.311.019-.623.021-.934.04.051.258.117.513.179.769.176.011.352.02.529.028.1-.18.198-.362.295-.545l1.035-.003c-.313.361-.49.819-.398 1.3-.472-.028-.962.066-1.422-.062-.254-.546-.329-1.158-.529-1.725-.092.195-.177.392-.266.588.491.334.668 1.092.185 1.512-.498.504-1.459.175-1.538-.53-.122-.658.549-1.171 1.167-1.057.074-.195.149-.389.222-.584a6.238 6.238 0 0 1-.141-.566l.342-.016zM4.4 12.507c-.17.527.531 1.008.962.658.391-.255.306-.824-.057-1.064-.092.303.056.73-.307.893-.561-.28.019-.638.161-.974-.314.019-.683.139-.759.487z"/>
    <path fill="#040404" d="M7.128 11.548c.215-.585.899-.32 1.378-.37.249-.052.389.145.447.356a27.04 27.04 0 0 0-.565.059c.266.257.702.092.968.357.466.35.441 1.145-.052 1.46-.486.376-1.278.087-1.414-.51-.136-.414.121-.804.422-1.063l-.084-.278c-.367-.001-.733.002-1.1-.011zm1.507.464c.079.268.335.434.425.688a.3.3 0 0 1-.505.141c-.02-.253-.012-.512-.118-.749-.254.258-.415.698-.116.989.332.403 1.082.146 1.07-.384.056-.435-.382-.669-.756-.685zM8.16 15.898c.266-.438.475-.969.946-1.227.108.067.21.144.305.23l-.401.042c-.237.3-.441.623-.63.955.6.004 1.2.002 1.801.001l.157.255c.905.148 1.824.174 2.734.286l-.161.311c.158.182.31.371.461.559-.002.208-.003.415-.002.623-.318.284-.582.732-1.069.702-.492.032-.855-.353-1.023-.778-.732.438-1.592.304-2.403.299.165-.321-.133-.559-.291-.804-.106.453-.335.925-.748 1.172-.511.285-1.215-.005-1.394-.557-.155-.346.033-.707.104-1.05a3.15 3.15 0 0 1 1.002-.352c.081-.216.149-.437.183-.665l.429-.002zm.165.546c-.349.05-.028.314.168.192.214-.074-.045-.257-.168-.192zm.471.477c-.072.252.154.445.267.646-.007-.223.088-.668-.267-.646zm-1.617 1.103c.44.236.838-.349.513-.701-.059.189-.112.381-.167.572-.522.022-.311-.421-.119-.704-.402.061-.637.603-.227.833zm4.877-.759c.195.135.402.253.618.35-.044-.318-.333-.428-.618-.35zm-.246.283c-.027.52.639.724.891.257-.211.017-.421.046-.632.07l-.042-.425-.217.098z"/>
</svg>
