<svg xmlns="http://www.w3.org/2000/svg" width="24" height="24">
    <path d="M0 0h11.002C9.078.195 7.184.793 5.557 1.85A12.054 12.054 0 0 0 .428 8.724c-.22.746-.33 1.516-.427 2.286V0zM12.989 0H24v11.003c-.223-2.306-1.069-4.56-2.51-6.384C19.694 2.298 17.023.67 14.13.164c-.377-.074-.762-.1-1.141-.164z"/>
    <path d="M11.409 1.195c1.729-.097 3.482.23 5.059.947 2.69 1.208 4.833 3.567 5.774 6.362.943 2.73.725 5.835-.598 8.404-1.334 2.643-3.8 4.687-6.651 5.492-1.784.513-3.7.56-5.505.125-2.867-.668-5.412-2.576-6.87-5.132-1.452-2.494-1.826-5.58-1.029-8.352.79-2.831 2.799-5.289 5.409-6.638a10.778 10.778 0 0 1 4.41-1.208zm-4.541 6.33c-.822.825-.973 2.062-1.009 3.172.371 0 .742.002 1.113-.001.028-.668.119-1.362.462-1.949.454-.729 1.575-.864 2.21-.298.795.685.892 1.938.42 2.834-.28.545-.786.913-1.278 1.252-.954.679-1.974 1.372-2.537 2.434-.431.871-.552 1.862-.573 2.823 1.918-.004 3.835.004 5.753-.004a70.33 70.33 0 0 0-.001-1.378c-1.5-.008-3.001 0-4.502-.004.064-.89.669-1.619 1.386-2.095.861-.626 1.865-1.118 2.485-2.017.675-.929.832-2.163.561-3.262-.23-.964-.954-1.852-1.942-2.089-.87-.197-1.886-.062-2.546.583zm7.96-.617c-.867.177-1.466.952-1.777 1.736-.439 1.206-.547 2.504-.555 3.778 0 1.101.063 2.213.349 3.281.192.69.487 1.388 1.027 1.879.802.737 2.18.715 2.953-.055.509-.49.791-1.163.979-1.833.283-1.049.346-2.143.345-3.225-.006-1.077-.08-2.163-.367-3.205-.178-.627-.423-1.264-.883-1.741-.518-.559-1.335-.776-2.072-.615z"/>
    <path d="M15.114 8.141c.416-.081.858.092 1.118.424.331.406.479.925.588 1.429.205 1.03.213 2.086.192 3.132-.032.821-.09 1.65-.318 2.443-.125.407-.299.824-.63 1.106-.397.345-1.046.37-1.452.025-.401-.34-.577-.861-.707-1.353-.262-1.095-.277-2.229-.263-3.348.031-.885.088-1.784.364-2.632.172-.532.507-1.124 1.109-1.226zM0 12.998c.103.804.221 1.609.459 2.386.854 2.95 2.898 5.524 5.561 7.048 1.523.885 3.245 1.392 4.994 1.567H.001V12.997zM22.447 17.95c.882-1.513 1.375-3.228 1.553-4.964V24H12.997c.766-.101 1.536-.207 2.279-.428 3.004-.838 5.636-2.908 7.171-5.621z"/>
    <path fill="red" d="M11.002 0h1.987c.379.063.764.09 1.141.164 2.893.506 5.565 2.134 7.36 4.455 1.441 1.823 2.287 4.078 2.51 6.384v1.983c-.177 1.736-.671 3.451-1.553 4.964-1.536 2.713-4.167 4.784-7.171 5.621-.743.221-1.513.327-2.279.428h-1.984c-1.748-.175-3.47-.682-4.994-1.567-2.663-1.524-4.707-4.098-5.561-7.048-.238-.777-.356-1.582-.459-2.386V11.01c.098-.77.207-1.54.427-2.286A12.05 12.05 0 0 1 5.555 1.85C7.182.793 9.077.194 11 0zm.407 1.195a10.805 10.805 0 0 0-4.41 1.208C4.389 3.752 2.38 6.21 1.59 9.041c-.797 2.772-.423 5.858 1.029 8.352 1.458 2.556 4.003 4.464 6.87 5.132 1.805.435 3.721.388 5.505-.125 2.85-.805 5.317-2.849 6.651-5.492 1.322-2.568 1.54-5.674.598-8.404-.941-2.796-3.084-5.154-5.774-6.362a10.806 10.806 0 0 0-5.059-.947z"/>
    <path fill="#fff" d="M6.868 7.525c.66-.645 1.676-.78 2.546-.583.988.237 1.712 1.125 1.942 2.089.27 1.1.114 2.334-.561 3.262-.62.899-1.624 1.391-2.485 2.017-.717.477-1.321 1.206-1.386 2.095 1.5.005 3.001-.004 4.502.004.007.459.004.918.001 1.378-1.918.008-3.835 0-5.753.004.021-.961.143-1.952.573-2.823.563-1.062 1.583-1.755 2.537-2.434.492-.339.998-.706 1.278-1.252.472-.896.375-2.149-.42-2.834-.635-.566-1.756-.431-2.21.298-.343.586-.434 1.281-.462 1.949-.371.004-.742.001-1.113.001.036-1.11.187-2.346 1.009-3.172zM14.828 6.908c.737-.161 1.553.055 2.072.615.459.477.705 1.114.883 1.741.286 1.042.36 2.129.367 3.205.001 1.082-.062 2.176-.345 3.225-.188.669-.471 1.342-.979 1.833-.773.771-2.151.792-2.953.055-.54-.491-.835-1.188-1.027-1.879-.286-1.068-.348-2.18-.349-3.281.008-1.275.116-2.572.555-3.778.31-.785.909-1.56 1.777-1.736zm.286 1.233c-.602.102-.937.694-1.109 1.226-.276.848-.333 1.747-.364 2.632-.014 1.119.001 2.254.263 3.348.13.493.307 1.013.707 1.353.405.345 1.055.32 1.452-.025.331-.283.506-.699.63-1.106.229-.793.286-1.622.318-2.443.021-1.046.013-2.102-.192-3.132-.109-.504-.257-1.023-.588-1.429a1.163 1.163 0 0 0-1.118-.424z"/>
</svg>
