<svg xmlns="http://www.w3.org/2000/svg" width="24" height="24">
    <path fill="#353233" opacity=".95" d="M5.739 0H18.46c.846.211 1.51.898 1.688 1.752-.115 5.146-.017 10.299-.05 15.448.026 1.682-.057 3.368.049 5.048A2.317 2.317 0 0 1 18.475 24H5.739a2.302 2.302 0 0 1-1.687-1.751c.115-5.147.017-10.3.05-15.449-.026-1.682.057-3.368-.049-5.048A2.354 2.354 0 0 1 5.739 0zm.002.162C4.854.332 4.148 1.19 4.193 2.1v19.801c-.063 1.039.863 1.986 1.898 1.975 4.006.003 8.012.003 12.018 0 1.035.011 1.96-.936 1.898-1.975V2.099c.051-.939-.696-1.824-1.624-1.952C17.725.076 17.06.131 16.4.115 12.848.146 9.288.052 5.741.162z"/>
    <path fill="#fff" d="M5.741.162C9.288.052 12.848.146 16.4.115c.66.016 1.325-.039 1.983.032.928.128 1.675 1.013 1.624 1.952v19.802c.062 1.039-.863 1.986-1.898 1.975-4.006.003-8.012.003-12.018 0-1.035.011-1.961-.936-1.898-1.975a65346.6 65346.6 0 0 1 0-19.801C4.148 1.19 4.854.332 5.741.162zm-.105.483c-.606.196-1.028.813-1.013 1.447-.003 6.605-.003 13.211 0 19.816-.027.802.672 1.531 1.476 1.529 3.967.008 7.934 0 11.901.004.84.05 1.603-.693 1.577-1.532.006-6.571-.001-13.143.003-19.714.07-.838-.629-1.64-1.481-1.635C14.233.541 10.366.563 6.5.55c-.289.002-.586.001-.864.095z"/>
    <path fill="#fff" d="M5.941 1.165c3.951-.075 7.909-.007 11.863-.034.584-.088 1.224.325 1.189.959.011 6.572 0 13.145.005 19.717.061.563-.417 1.097-.991 1.052-3.938.002-7.876.002-11.814 0-.527.039-1.013-.418-.986-.95-.01-6.571 0-13.144-.005-19.716-.038-.463.258-.956.739-1.028zm3.483 1.542v3.978c.187.003.374.003.561.001.007-.868-.013-1.737.014-2.605.417.86.785 1.742 1.186 2.609l.42-.005c.003-1.326.001-2.651.001-3.977a20.982 20.982 0 0 0-.561-.001c-.005.781.005 1.563-.007 2.344-.366-.774-.699-1.563-1.052-2.343a21.065 21.065 0 0 0-.562-.001zm3.718.038c-.495.296-.615.929-.672 1.459-.046.728-.046 1.524.356 2.163.375.603 1.412.489 1.654-.18.372-.906.369-1.98.033-2.897-.173-.563-.86-.803-1.371-.545zm-7.38 6.068c.099.588 1.186.665.912 1.351-.235.404-.676.08-.739-.266l-.366.021c.1.396.348.866.831.806.7-.017.936-1.025.393-1.416-.214-.259-.86-.408-.615-.828.208-.263.476-.001.626.177l.338.002c-.116-.262-.225-.598-.55-.654-.472-.148-.953.338-.83.807zm1.48-.782l-.006.345.488.011.001 2.295h.384l.001-2.296.489-.009-.007-.347c-.45-.001-.9-.001-1.35.001zm2.079 0c-.706.528-.611 1.689-.268 2.413.403.626 1.296.126 1.273-.529.144-.705.064-2.18-1.005-1.884zm1.483-.007c-.001.886-.002 1.772.001 2.658l.379-.002V9.53c.329-.038.761.047.979-.268.236-.366.165-.975-.262-1.168-.353-.113-.732-.058-1.097-.07zm1.758-.001c-.004.886-.002 1.771-.001 2.657l.38.001c0-.384.001-.768-.002-1.151.319-.039.721.044.954-.232.28-.37.198-1.049-.276-1.218-.343-.09-.704-.047-1.055-.057zm1.756.006c-.002.884-.001 1.769 0 2.653l.371.001c.002-.885.002-1.77 0-2.655l-.371.001zm.862-.005c-.005.884-.001 1.769-.003 2.653l.379.007c.005-.579-.004-1.159.011-1.738.403.569.426 1.476 1.088 1.804.03-.908.007-1.816.014-2.724h-.378c-.004.522.001 1.044-.007 1.566-.251-.516-.485-1.04-.722-1.562l-.382-.006zm2.262.122c-.465.519-.367 1.318-.255 1.955.065.507.699.817 1.12.504.368-.286.258-.806.285-1.212l-.688.001-.005.363.329.023a13.02 13.02 0 0 1-.114.589c-.221-.025-.517-.051-.563-.323-.101-.514-.175-1.119.101-1.591.22-.245.481.024.634.197l.34-.01c-.103-.53-.735-.888-1.184-.496zm-6.914 3.895c-.741.289-.798 1.402-.314 1.944.519.525 1.53.171 1.574-.581.231-.755-.428-1.694-1.26-1.363zm1.597-.024c-.002.727-.001 1.455-.001 2.183h.284c.004-.292 0-.584.005-.876l.336.01c.227.288.457.574.683.864l.374.002c-.248-.305-.497-.61-.748-.911.277-.211.542-.547.371-.91-.236-.486-.87-.327-1.304-.362zM6.066 16.3c-.026.532.642.484.985.657.292.068.213.517-.063.552-.439.166-.719-.26-1.012-.496 0 .572.619.864 1.11.671.351-.078.531-.57.259-.826-.276-.207-.646-.205-.947-.363-.188-.118-.075-.432.129-.463.377-.133.643.231.898.439.061-.785-1.255-.921-1.359-.171zm3.449-.457c-.25.619-.489 1.242-.729 1.865l.261-.025.193-.545h.793l.198.558.272.006c-.241-.62-.482-1.24-.728-1.857a22.536 22.536 0 0 0-.26-.002zm1.188-.001c-.006.619-.002 1.239-.003 1.858h.231c0-.498-.003-.995.005-1.493.331.494.651.996.977 1.493h.264c-.105-.627.232-1.435-.2-1.935-.047.528-.021 1.058-.031 1.587-.335-.497-.656-1.004-.986-1.506l-.257-.004zm1.901 0c-.003.621-.001 1.242-.002 1.864.362-.014.742.029 1.085-.109.492-.247.537-.958.304-1.398-.301-.455-.923-.329-1.387-.357zm1.813 0c-.004.62-.002 1.24-.002 1.86l.243-.004c-.002-.617-.001-1.234-.001-1.85l-.24-.006zm.686 0c-.005.619-.002 1.239-.003 1.858h.231c0-.498-.003-.995.004-1.493.331.494.652.995.978 1.493h.264c-.105-.626.232-1.436-.201-1.935-.045.528-.02 1.058-.03 1.587-.336-.497-.656-1.005-.986-1.506l-.257-.004zm2.254 1.8c.32.173.677.048.977-.103.069.075.14.148.211.222.015-.346.015-.692.015-1.038-.278.002-.555.003-.833.009l.043.188c.208.007.416.015.624.029-.104.304-.319.645-.695.579-.759-.055-.792-1.363-.069-1.502.388-.103.634.292.933.458-.064-.5-.581-.794-1.051-.652-.772.218-.873 1.459-.155 1.81zm-9.798-1.795l.001.201h.617V17.7h.241v-1.652h.617l.001-.201H7.559zm-.623 4.766c.541.373 1.086.743 1.623 1.123.158.095.327.261.523.158-.022-.267-.102-.523-.165-.782 2.105.003 4.211.002 6.316 0-.059.287-.135.571-.171.863.805-.3 1.432-.924 2.16-1.363-.723-.449-1.371-1.027-2.156-1.369.04.292.1.581.161.87-2.102.001-4.204-.001-6.306.001a3.08 3.08 0 0 0 .135-.883c-.75.39-1.414.921-2.12 1.382z"/>
    <path fill="#fff" d="M13.434 3.232c.527-.18.7.489.741.877.034.669.133 1.482-.341 2.024-.536.298-.788-.431-.809-.842-.022-.675-.168-1.577.409-2.059zM9.425 8.406c.296-.187.51.17.532.427.064.482.119 1.049-.185 1.463-.287.206-.529-.142-.544-.407-.06-.485-.139-1.079.197-1.483zM11.183 8.375c.283.029.777-.005.735.419.021.414-.453.35-.729.383-.004-.268-.005-.535-.006-.802zM12.941 8.378c.284.02.769-.002.735.412.021.413-.454.36-.732.385a105.87 105.87 0 0 1-.003-.797zM10.739 12.239c.982-.16 1.082 1.678.156 1.749-.883.016-.949-1.557-.156-1.749zM12.413 12.243c.297.024.831.002.767.446.001.409-.474.4-.766.433a32.195 32.195 0 0 1-.001-.879zM9.319 16.935c.107-.291.211-.583.322-.872.106.29.21.581.314.872-.212.002-.424.002-.636 0zM12.848 17.507c-.003-.492-.004-.984.002-1.477.3.042.684-.034.903.227.181.294.175.701.004.998-.198.301-.602.22-.909.252z"/>
    <path fill="#bf2f37" d="M5.636.645C5.914.551 6.211.552 6.5.55c3.866.013 7.733-.009 11.599.01.852-.005 1.551.797 1.481 1.635-.004 6.571.003 13.143-.003 19.714.026.839-.737 1.582-1.577 1.532-3.967-.004-7.934.004-11.901-.004-.804.002-1.503-.727-1.476-1.529-.003-6.605-.003-13.211 0-19.816C4.608 1.458 5.03.841 5.636.645zm.305.52c-.481.072-.777.565-.739 1.028.005 6.572-.005 13.145.005 19.716-.027.532.459.989.986.95 3.938.002 7.876.002 11.814 0 .574.045 1.052-.489.991-1.052-.005-6.572.006-13.145-.005-19.717.035-.634-.605-1.047-1.189-.959-3.954.027-7.912-.041-11.863.034z"/>
    <path fill="#bf2f37" d="M9.424 2.707c.187-.002.374-.002.562.001.353.78.686 1.569 1.052 2.343.012-.781.002-1.563.007-2.344.187-.002.374-.002.561.001 0 1.326.002 2.651-.001 3.977l-.42.005c-.401-.867-.769-1.749-1.186-2.609-.027.868-.007 1.737-.014 2.605-.187.002-.374.002-.561-.001V2.707zM13.142 2.745c.511-.258 1.198-.018 1.371.545.336.917.339 1.991-.033 2.897-.242.669-1.279.783-1.654.18-.402-.639-.402-1.435-.356-2.163.057-.53.177-1.163.672-1.459zm.292.487c-.577.482-.431 1.384-.409 2.059.021.411.273 1.14.809.842.474-.542.375-1.355.341-2.024-.041-.388-.214-1.057-.741-.877zM5.762 8.813c-.123-.469.358-.955.83-.807.325.056.434.392.55.654l-.338-.002c-.15-.178-.418-.44-.626-.177-.245.42.401.569.615.828.543.391.307 1.399-.393 1.416-.483.06-.731-.41-.831-.806l.366-.021c.063.346.504.67.739.266.274-.686-.813-.763-.912-1.351zM7.242 8.031c.45-.002.9-.002 1.35-.001l.007.347-.489.009-.001 2.296h-.384l-.001-2.295-.488-.011.006-.345zM9.321 8.031c1.069-.296 1.149 1.179 1.005 1.884.023.655-.87 1.155-1.273.529-.343-.724-.438-1.885.268-2.413zm.104.375c-.336.404-.257.998-.197 1.483.015.265.257.613.544.407.304-.414.249-.981.185-1.463-.022-.257-.236-.614-.532-.427zM10.804 8.024c.365.012.744-.043 1.097.07.427.193.498.802.262 1.168-.218.315-.65.23-.979.268v1.15l-.379.002c-.003-.886-.002-1.772-.001-2.658zm.379.351c.001.267.002.534.006.802.276-.033.75.031.729-.383.042-.424-.452-.39-.735-.419zM12.562 8.023c.351.01.712-.033 1.055.057.474.169.556.848.276 1.218-.233.276-.635.193-.954.232.003.383.002.767.002 1.151l-.38-.001c-.001-.886-.003-1.771.001-2.657zm.379.355c0 .266.001.531.003.797.278-.025.753.028.732-.385.034-.414-.451-.392-.735-.412zM14.318 8.029l.371-.001c.002.885.002 1.77 0 2.655l-.371-.001c-.001-.884-.002-1.769 0-2.653zM15.18 8.024l.382.006c.237.522.471 1.046.722 1.562.008-.522.003-1.044.007-1.566h.378c-.007.908.016 1.816-.014 2.724-.662-.328-.685-1.235-1.088-1.804-.015.579-.006 1.159-.011 1.738l-.379-.007c.002-.884-.002-1.769.003-2.653zM17.442 8.146c.449-.392 1.081-.034 1.184.496l-.34.01c-.153-.173-.414-.442-.634-.197-.276.472-.202 1.077-.101 1.591.046.272.342.298.563.323.043-.195.08-.392.114-.589a36.345 36.345 0 0 0-.329-.023l.005-.363.688-.001c-.027.406.083.926-.285 1.212-.421.313-1.055.003-1.12-.504-.112-.637-.21-1.436.255-1.955zM6.936 20.613c.706-.461 1.37-.992 2.12-1.382.004.3-.053.595-.135.883 2.102-.002 4.204 0 6.306-.001a12.315 12.315 0 0 1-.161-.87c.785.342 1.433.92 2.156 1.369-.728.439-1.355 1.063-2.16 1.363.036-.292.112-.576.171-.863-2.105.002-4.211.003-6.316 0 .063.259.143.515.165.782-.196.103-.365-.063-.523-.158-.537-.38-1.082-.75-1.623-1.123z"/>
    <path fill="#0c0a0b" opacity=".36" d="M4 1.92l.053-.168c.106 1.68.023 3.366.049 5.048-.033 5.149.065 10.302-.05 15.449L4 22.081V1.92zM20.148 1.752l.052.168v20.159l-.053.169c-.106-1.68-.023-3.366-.049-5.048.033-5.149-.065-10.302.05-15.448z"/>
    <path fill="#b51a00" d="M10.528 12.041c.832-.331 1.491.608 1.26 1.363-.044.752-1.055 1.106-1.574.581-.484-.542-.427-1.655.314-1.944zm.211.198c-.793.192-.727 1.765.156 1.749.926-.071.826-1.909-.156-1.749zM12.125 12.017c.434.035 1.068-.124 1.304.362.171.363-.094.699-.371.91.251.301.5.606.748.911l-.374-.002c-.226-.29-.456-.576-.683-.864a37.682 37.682 0 0 1-.336-.01c-.005.292-.001.584-.005.876h-.284c0-.728-.001-1.456.001-2.183zm.288.226c-.004.293-.003.586.001.879.292-.033.767-.024.766-.433.064-.444-.47-.422-.767-.446zM6.066 16.3c.104-.75 1.42-.614 1.359.171-.255-.208-.521-.572-.898-.439-.204.031-.317.345-.129.463.301.158.671.156.947.363.272.256.092.748-.259.826-.491.193-1.11-.099-1.11-.671.293.236.573.662 1.012.496.276-.035.355-.484.063-.552-.343-.173-1.011-.125-.985-.657zM9.515 15.843l.26.002c.246.617.487 1.237.728 1.857l-.272-.006-.198-.558H9.24l-.193.545-.261.025c.24-.623.479-1.246.729-1.865zm-.196 1.092c.212.002.424.002.636 0-.104-.291-.208-.582-.314-.872-.111.289-.215.581-.322.872zM10.703 15.842l.257.004c.33.502.651 1.009.986 1.506.01-.529-.016-1.059.031-1.587.432.5.095 1.308.2 1.935h-.264c-.326-.497-.646-.999-.977-1.493-.008.498-.005.995-.005 1.493H10.7c.001-.619-.003-1.239.003-1.858zM12.604 15.842c.464.028 1.086-.098 1.387.357.233.44.188 1.151-.304 1.398-.343.138-.723.095-1.085.109.001-.622-.001-1.243.002-1.864zm.244 1.665c.307-.032.711.049.909-.252a1.01 1.01 0 0 0-.004-.998c-.219-.261-.603-.185-.903-.227-.006.493-.005.985-.002 1.477zM14.417 15.842l.24.006c0 .616-.001 1.233.001 1.85l-.243.004c0-.62-.002-1.24.002-1.86zM15.103 15.842l.257.004c.33.501.65 1.009.986 1.506.01-.529-.015-1.059.03-1.587.433.499.096 1.309.201 1.935h-.264c-.326-.498-.647-.999-.978-1.493-.007.498-.004.995-.004 1.493H15.1c.001-.619-.002-1.239.003-1.858zM17.357 17.642c-.718-.351-.617-1.592.155-1.81.47-.142.987.152 1.051.652-.299-.166-.545-.561-.933-.458-.723.139-.69 1.447.069 1.502.376.066.591-.275.695-.579a18.603 18.603 0 0 0-.624-.029l-.043-.188c.278-.006.555-.007.833-.009 0 .346 0 .692-.015 1.038-.071-.074-.142-.147-.211-.222-.3.151-.657.276-.977.103zM7.559 15.847h1.477l-.001.201h-.617V17.7h-.241v-1.652H7.56l-.001-.201z"/>
</svg>
