<svg xmlns="http://www.w3.org/2000/svg" width="24" height="24">
    <path fill="#c62363" d="M10.578 0h2.838c3.594.517 7.011 2.562 8.854 5.737.136.62.515 1.144.73 1.736 1.4 3.439 1.081 7.525-.865 10.692-.287.528-.754.954-.925 1.542l-.029.034c-.59.353-1.07.881-1.452 1.449l-.047.051c-.322-.061-.669.17-.64.518-1.624 1.235-3.597 1.898-5.587 2.242h-2.884c-4.28-.58-8.186-3.493-9.746-7.553-.417-.967-.584-2.011-.824-3.029v-2.814C.24 9.538.425 8.452.869 7.444 2.454 3.431 6.338.585 10.579.001zM5.772 3.666c.796.85 1.639 1.655 2.453 2.486a71.064 71.064 0 0 0-1.665.007c-.016.432-.018.865-.001 1.298 1.002.016 2.006 0 3.009.007.382.442.795.859 1.24 1.241-.645.865-1.668 1.367-2.697 1.616-1.403-1.586-2.974-3.042-4.462-4.556-1.785 2.312-2.463 5.416-1.866 8.27.743 3.802 3.833 7.01 7.604 7.895 2.931.723 6.18.094 8.586-1.746-1.804-1.822-3.601-3.654-5.432-5.451 0-.224.007-.448.013-.67 1.18-.013 2.359 0 3.54-.006 1.324 1.333 2.637 2.678 3.975 3.998 3.06-3.859 2.59-9.918-.938-13.33C15.731 1.15 9.698.68 5.774 3.665z"/>
    <path fill="#c62363" d="M9.263 11.393c.941-.369 1.838-.907 2.476-1.706.994 1.016 2.028 1.99 2.985 3.04-1.383.022-2.766.012-4.149.013-.439-.448-.882-.89-1.313-1.346z"/>
    <path fill="#fff" d="M5.772 3.666C9.695.681 15.729 1.15 19.129 4.726c3.528 3.413 3.998 9.471.938 13.33-1.338-1.32-2.65-2.665-3.975-3.998.667 0 1.336.007 2.005-.006.004-.436.004-.872.001-1.308-1.124-.015-2.249.012-3.373-.018-.957-1.049-1.992-2.024-2.985-3.04l.086-.098c1.389 1.681 3.678 2.362 5.797 2.295.007-.446.007-.893.001-1.339-1.586.045-3.287-.331-4.46-1.462-.448-.413-.642-1.016-.641-1.613 1.531-.015 3.06.001 4.591-.007.003-.436.003-.871-.003-1.305-2.962-.006-5.924.001-8.886-.004-.814-.831-1.657-1.636-2.453-2.486zM1.781 14.036c-.597-2.854.08-5.958 1.866-8.27 1.488 1.513 3.059 2.969 4.462 4.556-.675.152-1.368.183-2.058.186-.003.458-.003.915.001 1.373a8.38 8.38 0 0 0 3.211-.487c.43.457.874.899 1.313 1.346-1.665.004-3.331-.003-4.996.003-.004.438-.004.875.001 1.313 1.847.01 3.692-.001 5.539.006.01 1.417-.003 2.832.004 4.248.471.007.942.007 1.412-.001.007-1.191.001-2.382.001-3.574 1.831 1.797 3.628 3.629 5.432 5.451-2.406 1.84-5.655 2.469-8.586 1.746-3.771-.885-6.86-4.093-7.604-7.895z"/>
    <path fill="#fff" d="M22.269 5.737c.938 1.481 1.428 3.184 1.731 4.897v2.697c-.361 2.315-1.218 4.607-2.791 6.376.171-.588.638-1.014.925-1.542 1.946-3.167 2.265-7.253.865-10.692-.215-.591-.594-1.115-.73-1.736zM9.566 7.465a82.721 82.721 0 0 1 1.575.003c-.018.433-.094.869-.335 1.238a11.812 11.812 0 0 1-1.24-1.241zM19.728 21.189c.382-.568.862-1.096 1.452-1.449a7.783 7.783 0 0 1-1.452 1.449zM19.042 21.758c-.029-.348.318-.58.64-.518-.181.209-.411.366-.64.518z"/>
    <path fill="#030303" d="M6.559 6.16a71.11 71.11 0 0 1 1.665-.007c2.962.006 5.924-.001 8.886.004.006.435.006.869.003 1.305-1.531.009-3.06-.007-4.591.007-.001.597.193 1.2.641 1.613 1.174 1.131 2.874 1.507 4.46 1.462.006.446.006.893-.001 1.339-2.119.067-4.408-.613-5.797-2.295l-.086.098c-.638.799-1.535 1.338-2.476 1.706a8.374 8.374 0 0 1-3.211.487 89.77 89.77 0 0 1-.001-1.373c.689-.003 1.383-.034 2.058-.186 1.029-.249 2.052-.751 2.697-1.616.241-.369.318-.805.335-1.238a82.706 82.706 0 0 0-1.575-.003c-1.002-.007-2.006.009-3.009-.007-.016-.433-.015-.866.001-1.298zM5.58 12.742c1.665-.006 3.331.001 4.996-.003 1.383-.001 2.766.009 4.149-.013 1.124.029 2.249.003 3.373.018.003.436.003.872-.001 1.308-.669.013-1.338.006-2.005.006-1.181.006-2.36-.007-3.54.006-.006.222-.013.446-.013.67 0 1.191.006 2.382-.001 3.574-.47.009-.941.009-1.412.001-.007-1.417.006-2.832-.004-4.248-1.847-.007-3.692.004-5.539-.006a52.244 52.244 0 0 1-.001-1.313z"/>
</svg>
