<svg xmlns="http://www.w3.org/2000/svg" width="24" height="24">
    <path fill="#035ca1" d="M.5 0h23.111v24h-4.364c.005-5.333.014-10.667.015-16 .014-1.643-.507-3.335-1.643-4.549-2.639-2.852-7.892-2.394-9.972.895-1.004 1.482-.97 3.335-.938 5.05.058 1.958.024 3.917.028 5.877-.954.023-1.907-.001-2.862.011 1.416 2.527 2.834 5.051 4.263 7.571 1.542-2.523 3.058-5.063 4.584-7.594-.957-.017-1.916.006-2.874-.011-.019-2.5-.004-5.002-.008-7.503-.004-1.123.471-2.312 1.457-2.918 1.213-.787 2.959-.565 3.934.503.676.709.914 1.713.91 2.668.01 5.333.019 10.667.032 16H.501V0z"/>
    <path fill="#fff" d="M7.647 4.347C9.727 1.058 14.98.6 17.619 3.452c1.137 1.214 1.657 2.905 1.643 4.549-.001 5.333-.01 10.667-.015 16h-3.074c-.013-5.333-.022-10.667-.032-16 .004-.955-.235-1.959-.91-2.668-.975-1.068-2.721-1.29-3.934-.503-.985.606-1.46 1.796-1.457 2.918.004 2.502-.011 5.003.008 7.503.957.018 1.916-.005 2.874.011-1.526 2.531-3.043 5.07-4.584 7.594a1649.822 1649.822 0 0 1-4.263-7.571c.955-.013 1.909.011 2.862-.011-.004-1.959.03-3.919-.028-5.877-.032-1.716-.066-3.568.938-5.05z"/>
</svg>
