<svg xmlns="http://www.w3.org/2000/svg" width="24" height="24">
    <path d="M0 0h10.98c-.206.038-.413.062-.621.087C7.215.499 4.283 2.24 2.386 4.778 1.02 6.568.22 8.753-.001 10.987V0zM13.013 0H24v10.981c-.229-2.276-1.056-4.502-2.469-6.31C19.634 2.19 16.74.493 13.641.088c-.21-.026-.419-.051-.627-.088z"/>
    <path d="M11.408 1.195a10.813 10.813 0 0 1 5.345 1.081 10.863 10.863 0 0 1 5.501 6.262c.929 2.722.707 5.812-.609 8.37-1.268 2.507-3.549 4.479-6.218 5.358-1.916.641-4.012.73-5.974.251-2.864-.678-5.401-2.594-6.851-5.153C.987 14.576.733 11.055 1.92 8.061A10.862 10.862 0 0 1 7.629 2.1a10.78 10.78 0 0 1 3.78-.906zM6.363 7.62c-.117.479-.211 1-.554 1.377-.383.337-.915.378-1.393.478-.004.289-.003.578 0 .867.542.004 1.084 0 1.627.002v6.591h.953c.001-3.104-.001-6.209.001-9.313a22.332 22.332 0 0 0-.634-.001zm4.186.399c-.77.629-.941 1.693-.96 2.631h.954c.022-.457.059-.929.26-1.348.358-.78 1.613-.869 2.093-.167.288.407.324.935.277 1.417-.033.324-.154.683-.46.846-.403.213-.873.226-1.318.235v1.036c.513.001 1.093-.049 1.517.298.354.283.48.755.498 1.19.022.518-.049 1.08-.383 1.498-.45.574-1.351.638-1.949.271-.554-.388-.648-1.127-.683-1.752-.319-.004-.638-.001-.957-.001.056.982.26 2.131 1.147 2.71.833.482 1.975.456 2.761-.113.974-.73 1.181-2.085.982-3.216a1.9 1.9 0 0 0-1.129-1.449c.502-.271.845-.783.934-1.342.155-.972-.026-2.131-.859-2.759-.785-.554-1.95-.555-2.726.015zm6.994-.414c-.948.047-1.598.914-1.858 1.753-.459 1.536-.467 3.173-.298 4.755.124.886.332 1.822.942 2.511.627.714 1.822.795 2.552.197.442-.359.707-.884.884-1.414.309-.961.374-1.98.376-2.983-.007-1.04-.08-2.095-.413-3.087-.178-.517-.436-1.036-.885-1.369-.366-.286-.843-.402-1.302-.361z"/>
    <path d="M17.551 8.7a.996.996 0 0 1 .944.367c.342.433.466.988.555 1.521.166 1.195.156 2.413.012 3.61-.096.606-.212 1.267-.654 1.727-.329.334-.91.383-1.279.088-.301-.243-.459-.614-.57-.975-.224-.772-.266-1.582-.281-2.382-.003-.964.016-1.948.301-2.877.149-.468.437-1 .972-1.08zM0 13.02c.104.758.209 1.52.427 2.256.835 2.995 2.896 5.615 5.592 7.158 1.516.882 3.229 1.384 4.969 1.567H0v-10.98zM23.912 13.64c.026-.21.05-.42.088-.629V24H13.019c2.233-.224 4.414-1.023 6.204-2.388 2.536-1.897 4.277-4.828 4.689-7.972z"/>
    <path fill="red" d="M10.98 0h2.033c.208.037.418.061.627.088 3.099.405 5.994 2.103 7.89 4.583 1.414 1.808 2.241 4.034 2.469 6.31v2.03c-.038.209-.062.419-.088.629-.412 3.144-2.153 6.075-4.689 7.972-1.79 1.365-3.971 2.164-6.204 2.388h-2.03c-1.74-.183-3.453-.685-4.969-1.567C3.323 20.89 1.262 18.27.427 15.275.208 14.539.104 13.778 0 13.019v-2.033c.221-2.235 1.021-4.419 2.387-6.209C4.283 2.239 7.215.498 10.36.086c.207-.025.415-.05.621-.087zm.428 1.195a10.786 10.786 0 0 0-3.78.906 10.862 10.862 0 0 0-5.709 5.961c-1.187 2.994-.933 6.515.682 9.303 1.45 2.559 3.987 4.475 6.851 5.153 1.962.48 4.058.39 5.974-.251 2.669-.879 4.951-2.851 6.218-5.358 1.317-2.558 1.538-5.648.609-8.37a10.864 10.864 0 0 0-5.501-6.262 10.816 10.816 0 0 0-5.345-1.081z"/>
    <path fill="#fff" d="M6.363 7.62c.211-.002.423-.001.634.001-.002 3.105 0 6.209-.001 9.313h-.953v-6.591c-.542-.001-1.085.002-1.627-.002a50.114 50.114 0 0 1 0-.867c.478-.1 1.01-.141 1.393-.478.343-.377.437-.898.554-1.377zM10.549 8.019c.776-.57 1.941-.569 2.726-.015.832.628 1.013 1.786.859 2.759a1.867 1.867 0 0 1-.934 1.343c.595.251 1.033.81 1.129 1.449.199 1.131-.008 2.485-.982 3.216-.786.569-1.928.595-2.761.113-.887-.579-1.091-1.729-1.147-2.71.319 0 .638-.002.957.001.035.624.129 1.364.683 1.752.598.367 1.499.303 1.949-.271.334-.418.405-.98.383-1.498-.018-.435-.143-.907-.498-1.19-.425-.347-1.005-.296-1.517-.298v-1.036c.445-.009.915-.022 1.318-.235.307-.162.427-.521.46-.846.047-.482.011-1.01-.277-1.417-.481-.702-1.736-.613-2.093.167-.202.419-.238.891-.26 1.348H9.59c.02-.938.19-2.002.96-2.631zM17.543 7.605c.458-.041.936.075 1.302.361.449.333.707.852.885 1.369.333.992.406 2.048.413 3.087-.003 1.003-.067 2.022-.376 2.983-.177.53-.442 1.056-.884 1.414-.73.598-1.926.517-2.552-.197-.61-.688-.818-1.624-.942-2.511-.169-1.582-.161-3.219.298-4.755.26-.839.91-1.705 1.858-1.753zm.008 1.095c-.535.08-.823.612-.972 1.08-.285.929-.304 1.913-.301 2.877.015.799.057 1.61.281 2.382.111.36.269.731.57.975.368.295.95.246 1.279-.088.442-.46.558-1.121.654-1.727a14.116 14.116 0 0 0-.012-3.61c-.089-.533-.213-1.088-.555-1.521a.994.994 0 0 0-.944-.367z"/>
</svg>
