<svg xmlns="http://www.w3.org/2000/svg" width="24" height="24">
    <path fill="#fff" d="M.907 0h22.185c.442.105.803.466.909.908v22.181a1.245 1.245 0 0 1-.908.911H.911a1.247 1.247 0 0 1-.91-.907V.908C.106.466.466.106.908 0zm.66.587C1.008.646.559 1.171.576 1.731v20.538c-.023.641.567 1.201 1.204 1.156 6.83-.001 13.66.001 20.49-.001.621.021 1.176-.534 1.155-1.155V1.731a1.147 1.147 0 0 0-.67-1.053c-.255-.122-.542-.104-.817-.103H2.063c-.165.001-.331-.008-.496.012z"/>
    <path fill="#fff" d="M10.478 4.006c.514-.678 1.703-.593 2.082.185-.168.097-.335.196-.504.29-.209-.43-.855-.527-1.143-.13-.323.483-.325 1.2.044 1.658.331.394 1.108.194 1.073-.368-.18 0-.361 0-.541-.003l-.001-.525c.372 0 .743.003 1.116-.002-.003.413.037.869-.228 1.22-.473.645-1.582.549-1.994-.118-.405-.662-.386-1.589.095-2.208zM4.662 3.614h.542c.44.681.888 1.358 1.317 2.045-.003-.682.002-1.364-.003-2.046.186.003.372.003.558 0-.005 1.035-.002 2.071-.001 3.106h-.504c-.451-.7-.923-1.388-1.356-2.099.015.699.003 1.399.006 2.099h-.557c-.003-1.035 0-2.07-.001-3.105zM8.351 3.615h.572c-.002 1.035 0 2.07-.001 3.104-.19.001-.38.002-.57-.002-.002-1.034-.001-2.068 0-3.102zM13.74 3.612c.188.004.375.003.563 0 .003.413 0 .827.001 1.24.433.001.865-.001 1.298.001.034-.412.024-.829.005-1.241.186.002.373.001.559.001v3.102c-.183.004-.366.003-.549.003.009-.44 0-.88.005-1.32-.438-.029-.878-.007-1.318-.013-.002.443.001.887-.001 1.331h-.561c0-1.035.004-2.071-.002-3.106zM17.215 3.598h2.301c.001.181.001.362 0 .543l-.864.001c-.002.859 0 1.718-.001 2.577-.188.002-.375.001-.563 0l-.001-2.578c-.291 0-.581.001-.871-.001a32.64 32.64 0 0 1 0-.542zM16.797 9.392c.795-.096 1.636-.006 2.342.394.683.379 1.185 1.024 1.501 1.73.484 1.075.619 2.269.63 3.437-.015 1.107-.144 2.233-.574 3.262-.297.715-.769 1.38-1.433 1.796-1.298.784-3.143.688-4.274-.359-1.123-1.076-1.447-2.702-1.524-4.196-.051-1.617.122-3.353 1.074-4.715a3.255 3.255 0 0 1 2.257-1.349zm.24 1.798c-.495.084-.896.451-1.124.885-.376.709-.479 1.523-.528 2.314-.035.854-.001 1.719.206 2.552.139.525.354 1.065.778 1.425.619.534 1.666.449 2.182-.191.552-.668.697-1.563.778-2.4.068-1.242.064-2.565-.511-3.7-.315-.651-1.066-1.048-1.78-.885zM7.274 9.544h2.058c.002 2.251 0 4.502.001 6.753.45.001.899-.002 1.349.001 0 .579.003 1.158-.001 1.737-.449.005-.898 0-1.348.003-.001.765.001 1.53-.001 2.296H7.474c0-.764-.002-1.528.001-2.291-1.894-.012-3.788-.001-5.683-.006.015-.407-.031-.826.022-1.225 1.815-2.426 3.64-4.844 5.459-7.267zm-2.998 6.753c1.065-.002 2.131.001 3.197-.002v-4.3c-1.067 1.433-2.131 2.868-3.197 4.302z"/>
    <path d="M1.567.587c.165-.02.33-.011.496-.012h19.875c.274-.001.562-.02.817.103.407.178.677.61.67 1.053v20.538c.021.621-.534 1.177-1.155 1.155-6.83.002-13.66 0-20.49.001-.637.045-1.228-.516-1.204-1.156V1.731c-.016-.56.433-1.085.991-1.144zm8.911 3.419c-.481.619-.501 1.545-.095 2.208.411.667 1.521.762 1.994.118.264-.351.225-.806.228-1.22-.372.005-.744.002-1.116.002l.001.525c.18.002.36.002.541.003.035.562-.742.762-1.073.368-.368-.459-.366-1.175-.044-1.658.288-.397.934-.3 1.143.13.169-.094.336-.193.504-.29-.379-.778-1.568-.863-2.082-.185zm-5.816-.392c.002 1.035-.001 2.07.001 3.105h.557c-.003-.7.009-1.4-.006-2.099.434.711.905 1.399 1.356 2.099h.504c0-1.035-.004-2.071.001-3.106-.186.004-.372.003-.558 0 .005.682 0 1.364.003 2.046-.429-.688-.877-1.364-1.317-2.045a48.96 48.96 0 0 1-.542 0zm3.689.001v3.102c.19.004.38.003.57.002.002-1.035 0-2.07.001-3.104H8.35zm5.389-.003c.006 1.035.002 2.071.002 3.106h.561c.002-.443 0-.887.001-1.331.439.006.879-.016 1.318.013-.005.44.004.88-.005 1.32.183 0 .366 0 .549-.003V3.615c-.186 0-.373.001-.559-.001.02.412.029.83-.005 1.241-.433-.003-.865 0-1.298-.001-.002-.413.001-.827-.001-1.24a17.61 17.61 0 0 1-.563 0zm3.475-.014c-.002.18-.002.361 0 .542.29.002.581 0 .871.001l.001 2.578h.563c.001-.859-.001-1.718.001-2.577l.864-.001c.001-.181.001-.362 0-.543h-2.301zm-.418 5.794c-.9.106-1.737.608-2.258 1.349-.952 1.361-1.125 3.098-1.074 4.715.077 1.493.402 3.12 1.524 4.196 1.13 1.047 2.976 1.143 4.274.359.664-.416 1.136-1.081 1.433-1.796.43-1.029.56-2.155.574-3.262-.012-1.168-.147-2.362-.63-3.437-.315-.706-.817-1.35-1.501-1.73-.705-.4-1.547-.49-2.342-.394zm-9.523.152c-1.819 2.423-3.645 4.842-5.459 7.267-.053.399-.007.818-.022 1.225 1.894.004 3.788-.007 5.683.006-.003.764-.001 1.528-.001 2.291h1.858c.002-.765 0-1.53.001-2.296.45-.002.899.002 1.348-.003.005-.579.002-1.158.001-1.737-.45-.004-.899 0-1.349-.001-.002-2.251 0-4.502-.001-6.753H7.275z"/>
    <path d="M17.037 11.19c.714-.162 1.466.234 1.78.885.575 1.134.58 2.458.511 3.7-.08.837-.225 1.732-.778 2.4-.516.639-1.563.725-2.182.191-.424-.361-.639-.9-.778-1.425-.207-.832-.24-1.698-.206-2.552.049-.791.152-1.605.528-2.314.228-.434.629-.801 1.124-.885zM4.276 16.297c1.065-1.434 2.13-2.869 3.197-4.302v4.3c-1.066.003-2.132 0-3.197.002z"/>
</svg>
