<svg xmlns="http://www.w3.org/2000/svg" width="24" height="24">
    <path fill="#fff" d="M10.579 0h2.853c1.081.217 2.17.433 3.18.898-1.533-.394-3.07-.88-4.676-.822-1.154-.043-2.272.273-3.408.406.658-.263 1.373-.296 2.051-.483zM16.768.961c.399.117.773.301 1.11.545a2.41 2.41 0 0 1-1.11-.545zM10.841 1.962c4-.483 8.166 1.582 10.177 5.078 1.554 2.607 1.832 5.92.743 8.752-1.147 3.07-3.85 5.481-7.012 6.32-2.643.72-5.559.376-7.947-.973-2.697-1.495-4.677-4.244-5.156-7.299a10.154 10.154 0 0 1 1.639-7.384c1.7-2.507 4.538-4.201 7.556-4.494zM7.349 7.473c-.29 1.067-.59 2.131-.877 3.199-.458.053-.903.382-.913.877-.015.894.005 1.79.01 2.686-.001.65.67 1.105 1.284 1.03 3.549-.083 7.1-.05 10.649-.102.568-.004 1.15-.46 1.106-1.064-.003-.893-.011-1.785-.022-2.677.034-.51-.463-.828-.905-.913-.415-1.163-.764-2.35-1.192-3.509-.126-.422-.573-.627-.987-.608-2.292-.009-4.584 0-6.876-.005-.632-.062-1.137.517-1.276 1.086zm8.292 8.077c.027.678-.037 1.365.072 2.037.34.825 1.789.876 2.105.003.083-.676.011-1.36.034-2.038-.738-.003-1.474-.001-2.212-.001zm-9.265.103c.032.649-.013 1.302.058 1.948.259.924 1.879.988 2.141.029.058-.657.006-1.318.024-1.976l-2.223-.001zM19.199 2.368a.757.757 0 0 1 .443.32c-.221.097-.396-.13-.443-.32zM19.929 2.975c.451.262.814.649 1.101 1.081a5.475 5.475 0 0 1-1.101-1.081z"/>
    <path fill="#fff" d="M8.098 7.721a.625.625 0 0 1 .665-.535c2.161-.01 4.324-.024 6.486-.024.284-.028.574.13.648.417.33.99.62 1.992.933 2.988-3.158.039-6.317.042-9.476.123.199-1.001.488-1.982.743-2.969zM16.556 11.355c1.38-.287 1.726 2.001.339 2.156-1.39.295-1.736-2.02-.339-2.156zM7.156 11.488c.743-.262 1.571.441 1.415 1.215-.09.801-1.158 1.208-1.764.679-.676-.493-.457-1.675.349-1.895z"/>
    <path fill="#da251d" d="M8.528.483C9.665.35 10.782.033 11.936.077c1.605-.058 3.143.428 4.676.822l.156.063c.316.277.698.461 1.11.545.47.239.91.532 1.321.862.047.19.222.417.443.32.093.099.19.193.287.287.317.408.682.777 1.101 1.081 1.667 1.778 2.593 4.13 2.97 6.514v2.851c-.358 2.295-1.243 4.522-2.758 6.301-1.919 2.38-4.825 3.832-7.823 4.278h-2.836c-2.296-.357-4.524-1.242-6.305-2.758C1.898 19.324.447 16.418 0 13.42v-2.837C.59 5.944 3.97 1.723 8.528.484zm2.313 1.479c-3.017.293-5.855 1.987-7.556 4.494-1.468 2.13-2.074 4.833-1.639 7.384.479 3.055 2.458 5.804 5.156 7.299 2.387 1.349 5.304 1.693 7.947.973 3.162-.839 5.865-3.25 7.012-6.32 1.09-2.832.811-6.145-.743-8.752-2.01-3.496-6.177-5.561-10.177-5.078z"/>
    <path fill="#1f1a17" d="M7.349 7.473c.14-.569.644-1.148 1.276-1.086 2.292.005 4.584-.004 6.876.005.414-.019.861.187.987.608.428 1.158.777 2.345 1.192 3.509.442.085.94.403.905.913.01.891.019 1.784.022 2.677.044.604-.538 1.06-1.106 1.064-3.549.052-7.1.019-10.649.102-.613.075-1.285-.38-1.284-1.03-.005-.895-.025-1.792-.01-2.686.01-.495.455-.824.913-.877.287-1.068.588-2.132.877-3.199zm.749.248c-.255.987-.543 1.968-.743 2.969 3.158-.081 6.317-.084 9.476-.123-.314-.996-.603-1.997-.933-2.988-.074-.287-.363-.444-.648-.417-2.163 0-4.325.014-6.486.024a.624.624 0 0 0-.665.535zm8.458 3.634c-1.397.136-1.051 2.451.339 2.156 1.387-.155 1.041-2.443-.339-2.156zm-9.4.133c-.806.22-1.025 1.402-.349 1.895.606.528 1.674.122 1.764-.679.156-.775-.672-1.477-1.415-1.215zM15.641 15.55c.738 0 1.474-.001 2.212.001-.023.678.048 1.363-.034 2.038-.316.874-1.765.823-2.105-.003-.109-.672-.046-1.359-.072-2.037zM6.376 15.653l2.223.001c-.018.658.034 1.319-.024 1.976-.262.959-1.882.895-2.141-.029-.071-.646-.027-1.299-.058-1.948z"/>
</svg>
