<svg xmlns="http://www.w3.org/2000/svg" width="24" height="24">
    <path fill="#231f20" d="M1.006 6h21.936c.38.045.71.277.899.607v10.942a1.81 1.81 0 0 1-.453.45H.552a1.215 1.215 0 0 1-.553-.732V6.833a1.223 1.223 0 0 1 1.006-.832zm-.193.23c-.363.13-.664.48-.655.879.003 3.332 0 6.664.001 9.996a.967.967 0 0 0 .896.843h21.837a.956.956 0 0 0 .896-.896c.002-3.314-.001-6.628.001-9.942.011-.421-.343-.801-.738-.895-7.349-.006-14.698.002-22.048-.003a.612.612 0 0 0-.191.02z"/>
    <path fill="#231f20" d="M.812 6.389c.035-.005.102-.015.137-.018h22.05c.366.015.615.397.631.738v9.943a.759.759 0 0 1-.738.737H1.055a.76.76 0 0 1-.738-.738c-.002-3.314.002-6.628-.002-9.942-.008-.311.19-.632.497-.72zm.102.351c-.106.119-.246.246-.228.421v9.785a.69.69 0 0 0 .165.423c7.329-.004 14.658-.002 21.986-.002.108.002.212-.027.315-.054.028-.103.057-.207.054-.315-.002-3.359 0-6.717 0-10.075-.061-.06-.122-.12-.182-.182H.913z"/>
    <path fill="#231f20" d="M4.567 8.823c.295-.174.54-.465.897-.511.066.069.135.138.203.205-.044.315-.186.604-.238.916 4.363.003 8.725.003 13.089 0-.057-.35-.316-.697-.172-1.053.107-.024.23-.099.332-.021.869.558 1.713 1.156 2.571 1.731v.052c-.906.585-1.767 1.254-2.703 1.788a4.887 4.887 0 0 1-.268-.184c.023-.324.156-.624.24-.933-4.364-.005-8.727-.003-13.09 0 .078.312.206.612.24.933a5.139 5.139 0 0 1-.27.185c-.497-.219-.903-.592-1.361-.877-.446-.309-.939-.594-1.341-.936.576-.462 1.248-.868 1.87-1.293zM9.746 12.521c.704-.171 1.51.24 1.706.952.273.758-.296 1.672-1.088 1.787-.782.195-1.639-.464-1.66-1.269-.099-.667.399-1.317 1.042-1.47zm-.35.921c-.312.381-.096.986.332 1.174.51.318 1.242-.152 1.219-.739.016-.463-.414-.812-.852-.836-.264.061-.569.133-.699.4zM13.024 12.522c.89-.243 1.85.528 1.767 1.452-.048.649-.585 1.234-1.237 1.304-.885.156-1.761-.741-1.572-1.621.061-.549.51-1.013 1.042-1.134zm-.498 1.3c-.063.593.653 1.101 1.182.813.432-.155.668-.736.409-1.131-.12-.297-.447-.427-.744-.462-.419.022-.831.34-.849.779zM6.079 12.555h.528v2.115h1.797v.582H6.078v-2.696zM15.33 12.555h.582v1.079c.371-.333.657-.744 1.027-1.079h.793c-.315.284-.565.626-.867.92.339.592.725 1.161 1.029 1.771-.212.008-.423.006-.635.006a84.562 84.562 0 0 1-.781-1.335c-.188.189-.375.38-.567.564v.77h-.582v-2.696z"/>
    <path fill="#fff" d="M.813 6.23a.58.58 0 0 1 .19-.02c7.35.006 14.699-.003 22.048.003.395.093.749.474.738.895-.003 3.314 0 6.628-.002 9.942a.956.956 0 0 1-.896.896H1.054a.965.965 0 0 1-.896-.843c0-3.332.002-6.663-.001-9.996-.009-.399.292-.748.655-.879zm-.001.159c-.306.089-.504.409-.496.72.003 3.313 0 6.627.002 9.942a.76.76 0 0 0 .738.738h21.837a.76.76 0 0 0 .738-.737V7.109c-.017-.341-.265-.723-.631-.738H.95l-.136.018z"/>
    <path fill="#fff" d="M.914 6.74c7.37.002 14.741 0 22.111 0 .06.062.12.122.182.182v10.075c.002.108-.027.211-.054.315-.103.028-.207.057-.315.054-7.329 0-14.658-.003-21.986.002a.69.69 0 0 1-.165-.423V7.161c-.018-.176.121-.302.228-.421zm3.653 2.083c-.623.426-1.294.831-1.871 1.293.403.343.896.627 1.341.936.459.285.864.657 1.361.877.091-.059.182-.12.27-.185-.034-.321-.162-.621-.24-.933 4.364-.003 8.727-.004 13.09 0-.084.31-.217.609-.24.933.087.064.177.126.268.184.935-.534 1.796-1.203 2.703-1.788v-.052c-.858-.575-1.701-1.173-2.571-1.731-.102-.077-.225-.002-.332.021-.144.355.115.702.172 1.053-4.364.003-8.726.003-13.089 0 .052-.312.194-.602.238-.916a7.84 7.84 0 0 1-.203-.205c-.357.046-.601.336-.897.511zm5.179 3.698c-.644.152-1.142.803-1.042 1.47.021.805.878 1.465 1.66 1.269.792-.114 1.361-1.028 1.088-1.787-.195-.712-1.002-1.124-1.706-.953zm3.278.001c-.531.121-.981.585-1.042 1.134-.189.881.688 1.778 1.572 1.622.652-.071 1.189-.654 1.237-1.304.082-.924-.877-1.695-1.767-1.452zm-6.945.033v2.696h2.326v-.582H6.608v-2.115H6.08zm9.251 0v2.696h.582v-.77c.192-.185.379-.375.567-.564.257.447.516.893.781 1.335.211 0 .423.003.634-.006-.304-.61-.691-1.179-1.029-1.771.303-.294.553-.636.867-.92h-.793c-.369.335-.656.746-1.027 1.079v-1.079h-.582z"/>
    <path fill="#fff" d="M9.396 13.442c.129-.267.435-.34.699-.401.438.024.868.372.852.836.024.587-.708 1.056-1.219.739-.427-.188-.644-.793-.332-1.174zM12.526 13.822c.017-.439.43-.757.849-.779.297.034.624.165.744.462.258.396.022.977-.41 1.131-.53.288-1.245-.22-1.182-.813z"/>
</svg>
