<svg xmlns="http://www.w3.org/2000/svg" width="24" height="24">
    <path fill="#ec1c24" d="M11.092 0h2.07c3.753.406 7.292 2.559 9.217 5.83 1.798 2.938 2.208 6.673 1.087 9.932-1.206 3.623-4.24 6.575-7.901 7.664-3.236 1.002-6.892.508-9.748-1.313C2.232 19.899-.036 15.703.182 11.48.316 6.904 3.367 2.612 7.602.903 8.71.414 9.907.211 11.093.001zm.034 3.151c-4.275.432-7.846 4.329-7.859 8.633-.185 4.505 3.587 8.694 8.076 9.023 4.537.509 8.986-3.072 9.564-7.577.441-2.848-.666-5.85-2.791-7.783-1.856-1.721-4.47-2.596-6.989-2.295z"/>
    <path fill="#fff" d="M11.126 3.151c2.519-.301 5.133.575 6.989 2.295 2.125 1.933 3.232 4.935 2.791 7.783-.577 4.505-5.027 8.086-9.564 7.577-4.489-.329-8.26-4.518-8.076-9.023.013-4.304 3.584-8.201 7.859-8.633zm-1.73 1.072c.803.829 1.629 1.638 2.425 2.477.842-.815 1.642-1.671 2.473-2.497-1.593-.447-3.306-.416-4.897.02zM7.108 9.815c.417.115.835.225 1.255.327.18-.343.294-.78.666-.967.301-.07.579.281.448.56-.191.554-.784.784-1.299.934-.003.415-.003.829-.003 1.242.452.052 1.087-.02 1.325.47.122.38.032 1.046-.484 1.04-.468-.02-.519-.591-.66-.928-.473.087-.94.207-1.404.332.131 1.223 1.254 2.192 2.505 1.891 1.715-.183 2.266-2.74.723-3.569 1.114-.88.929-2.915-.484-3.366-1.303-.391-2.479.79-2.588 2.035zm4.392.236c-.006 1.465-.003 2.929-.001 4.396.41.003.819.004 1.228.004.06-1.03-.047-2.068.054-3.095.154-.451.912-.34.94.132.057.986-.006 1.974.029 2.961.42.001.839 0 1.26-.004.02-.98-.025-1.961.019-2.94.022-.481.841-.669.967-.147.099 1.023.013 2.057.042 3.084.413.009.828.01 1.242.001-.025-1.159.058-2.327-.041-3.481-.311-1.193-1.919-1.367-2.781-.681-.847-.804-1.965.039-2.957-.231zm-2.111 9.674a9.502 9.502 0 0 0 4.895.02 95.093 95.093 0 0 0-2.458-2.502c-.816.823-1.645 1.633-2.436 2.481z"/>
    <path fill="#231f20" d="M9.396 4.223c1.591-.436 3.305-.467 4.897-.02-.831.826-1.631 1.683-2.473 2.497-.796-.839-1.622-1.648-2.425-2.477zM7.108 9.815C7.217 8.57 8.392 7.389 9.696 7.78c1.414.451 1.599 2.486.484 3.366 1.543.829.992 3.386-.723 3.569-1.251.301-2.374-.668-2.505-1.891.464-.125.931-.244 1.404-.332.141.337.192.908.66.928.516.006.607-.66.484-1.04-.239-.49-.873-.417-1.325-.47 0-.413 0-.828.003-1.242.515-.15 1.108-.38 1.299-.934.131-.279-.147-.63-.448-.56-.372.188-.486.624-.666.967-.42-.102-.838-.212-1.255-.327zM11.5 10.051c.992.271 2.111-.573 2.957.231.863-.687 2.47-.512 2.781.681.099 1.153.016 2.321.041 3.481-.415.009-.829.007-1.242-.001-.029-1.027.057-2.061-.042-3.084-.127-.522-.945-.335-.967.147-.044.979.001 1.959-.019 2.94-.42.004-.839.006-1.26.004-.035-.988.028-1.975-.029-2.961-.028-.473-.785-.583-.94-.132-.1 1.027.006 2.065-.054 3.095-.409 0-.817-.001-1.228-.004-.001-1.466-.004-2.931.001-4.396zM9.389 19.725c.791-.848 1.62-1.658 2.436-2.481a93.546 93.546 0 0 1 2.458 2.502 9.524 9.524 0 0 1-4.895-.02z"/>
</svg>
