<svg xmlns="http://www.w3.org/2000/svg" width="24" height="24">
    <path fill="#fff" d="M11.091 0h1.848c1.754.162 3.485.664 5.012 1.552a12.078 12.078 0 0 1 5.407 6.494c.349.982.542 2.011.642 3.046v1.845c-.163 1.754-.665 3.487-1.553 5.013-1.535 2.714-4.167 4.784-7.172 5.621-.76.224-1.545.337-2.33.428h-1.883c-1.72-.158-3.414-.648-4.921-1.499-2.633-1.468-4.681-3.954-5.593-6.829-.291-.883-.447-1.803-.547-2.726v-1.887c.094-.875.237-1.749.503-2.591.835-2.747 2.7-5.16 5.139-6.673C7.277.759 9.169.163 11.092-.001zm.275.596c-2.156.11-4.272.862-6.022 2.123a11.446 11.446 0 0 0-4.582 7.22c-.594 3.166.236 6.567 2.239 9.092a11.442 11.442 0 0 0 7.404 4.281c3.22.47 6.616-.526 9.064-2.672 2.294-1.966 3.75-4.876 3.929-7.893.127-1.87-.219-3.77-.999-5.475a11.462 11.462 0 0 0-6.131-5.869 11.363 11.363 0 0 0-4.902-.807z"/>
    <path fill="#fff" d="M11.062 1.22c2.431-.22 4.93.419 6.954 1.784-.826.849-1.675 1.677-2.509 2.52-.053.048-.099.114-.174.129-1.245.3-2.353 1.311-2.579 2.6-.745.791-1.532 1.552-2.305 2.318.36-1.021.801-2.014 1.171-3.031.035-.622.01-1.25.012-1.875-2.424-.006-4.848-.005-7.272 0a458.558 458.558 0 0 0 0 3.709c.626.005 1.252.006 1.878-.001.008-.608-.001-1.216.004-1.824 1.093-.006 2.186-.004 3.279-.001-.835 2.161-1.716 4.305-2.541 6.471-.04.078-.109.137-.169.2-1.271 1.263-2.53 2.54-3.807 3.798C1.35 15.573.778 12.435 1.455 9.564c.65-2.886 2.557-5.455 5.121-6.927a10.733 10.733 0 0 1 4.485-1.416zM16.368 5.514c.715-.717 1.431-1.434 2.149-2.148.077.058.155.114.234.169-.653.687-1.335 1.348-2.007 2.017l-.377-.037zM17.459 5.69c.591-.58 1.17-1.172 1.76-1.754.073.067.145.135.216.203-.564.563-1.122 1.135-1.695 1.689a10.392 10.392 0 0 0-.281-.137zM18.315 6.11c.516-.515 1.029-1.033 1.547-1.545.068.071.135.143.201.218-.498.504-1 1.004-1.502 1.504l-.246-.176zM19.015 6.688c.481-.481.954-.974 1.45-1.44.054.08.112.158.17.234-.472.475-.945.948-1.42 1.42l-.2-.215zM19.542 7.435c.48-.488.961-.975 1.453-1.45 1.654 2.444 2.225 5.581 1.548 8.452a10.816 10.816 0 0 1-12.98 8.105 10.723 10.723 0 0 1-3.577-1.547c2.213-2.233 4.442-4.451 6.667-6.673-.016.773.015 1.58.371 2.285.377.778 1.1 1.344 1.89 1.664 1.398.558 3.097.177 4.125-.922.623-.645.883-1.561.885-2.443.002-1.875 0-3.75.001-5.625.004-.631-.091-1.279-.382-1.846zM15.662 7.501c.158-.042.32-.065.483-.077-.513.526-1.035 1.044-1.558 1.56a1.276 1.276 0 0 1 .057-.45c.313-.366.673-.697 1.019-1.034zM14.52 9.924c.788-.824 1.604-1.627 2.419-2.426.086.052.171.105.255.158-.882.878-1.762 1.758-2.64 2.64a9.224 9.224 0 0 1-.034-.373zM14.52 11.193c1.035-1.064 2.095-2.104 3.144-3.154l.16.255a1009.68 1009.68 0 0 1-3.273 3.272c-.01-.124-.02-.249-.032-.373z"/>
    <path fill="#fff" d="M14.524 12.459a319.723 319.723 0 0 1 3.493-3.495c.052 1.761.008 3.525.023 5.286.008.562.022 1.171-.301 1.66-.607.962-2.218.986-2.865.057-.227-.32-.318-.717-.332-1.104-.019-.801.017-1.603-.018-2.403zM9.848 12.048c.915-.948 1.862-1.869 2.792-2.805.011.124.022.249.027.374-.984 1.02-2 2.017-3.007 3.016.017-.208.119-.393.188-.586zM9.012 14.16c1.188-1.234 2.423-2.427 3.627-3.648.012.124.023.248.029.374-1.256 1.305-2.562 2.579-3.846 3.862.024-.207.123-.393.19-.587zM12.641 11.783c.011.134.016.268.02.403-1.558 1.56-3.114 3.122-4.679 4.675.032-.193.117-.371.177-.555.023-.062.071-.109.115-.156 1.456-1.455 2.911-2.91 4.366-4.367zM12.645 13.057c.003.132.012.264.018.396-2.39 2.397-4.785 4.789-7.179 7.181a2.516 2.516 0 0 1-.236-.187c2.471-2.459 4.928-4.931 7.397-7.391zM3.366 18.518c.982-.984 1.963-1.97 2.951-2.948-.012.18-.098.342-.147.513-.04.113-.143.186-.221.272-.807.795-1.594 1.614-2.412 2.396a4.98 4.98 0 0 0-.171-.233zM3.938 19.218c.511-.513 1.02-1.029 1.538-1.535.001.181-.093.342-.142.512-.347.452-.803.823-1.195 1.239a6.88 6.88 0 0 1-.201-.217zM4.566 19.862c.491-.482.963-.993 1.471-1.451.125.005.25.015.375.028-.546.539-1.083 1.086-1.629 1.624a8.319 8.319 0 0 1-.217-.201z"/>
    <path d="M11.366.596c1.666-.097 3.354.18 4.902.807a11.466 11.466 0 0 1 6.131 5.869 11.368 11.368 0 0 1 .999 5.475c-.179 3.017-1.635 5.927-3.929 7.893-2.447 2.146-5.844 3.143-9.064 2.672a11.442 11.442 0 0 1-7.404-4.281C.998 16.505.168 13.105.762 9.939a11.444 11.444 0 0 1 4.582-7.22A11.364 11.364 0 0 1 11.366.596zm-.304.624c-1.575.133-3.12.62-4.485 1.416-2.565 1.472-4.471 4.041-5.121 6.927-.677 2.872-.105 6.009 1.549 8.453 1.277-1.258 2.536-2.535 3.807-3.798.06-.063.129-.121.169-.2.192-.136.34-.32.51-.48.984-.99 1.984-1.971 2.958-2.968.773-.766 1.56-1.527 2.305-2.318.743-.691 1.441-1.433 2.167-2.145.135-.153.316-.271.412-.456.075-.015.12-.082.174-.129.833-.843 1.682-1.67 2.509-2.52a10.806 10.806 0 0 0-6.954-1.784zm5.306 4.294h-.008a593.685 593.685 0 0 1-3.722 3.722l.001.008c-.93.935-1.877 1.856-2.792 2.805-1.189 1.159-2.362 2.35-3.531 3.521-.988.978-1.969 1.964-2.951 2.948.059.076.116.154.171.233.818-.782 1.605-1.601 2.412-2.396.078-.086.181-.159.221-.272a.551.551 0 0 0 .202-.15c1.091-1.103 2.206-2.195 3.288-3.299 1.008-.999 2.023-1.996 3.008-3.016 1.376-1.338 2.722-2.708 4.079-4.066.672-.669 1.354-1.33 2.007-2.017a4.974 4.974 0 0 1-.234-.169c-.718.714-1.434 1.432-2.149 2.148zm1.091.176c-.594.609-1.21 1.196-1.797 1.811-.345.337-.705.668-1.019 1.034-.693.631-1.331 1.325-2.005 1.977-1.203 1.221-2.439 2.414-3.627 3.648-1.195 1.154-2.368 2.352-3.536 3.523-.518.506-1.027 1.021-1.538 1.535.065.074.133.146.201.217.393-.417.848-.787 1.195-1.239a.666.666 0 0 0 .197-.149c1.093-1.102 2.206-2.197 3.291-3.3 1.284-1.283 2.59-2.557 3.846-3.862.662-.606 1.271-1.27 1.92-1.892v-.009c.523-.517 1.045-1.035 1.558-1.56l.014-.001c.519-.54 1.064-1.054 1.581-1.596.574-.554 1.131-1.125 1.695-1.689a10.314 10.314 0 0 0-.216-.202c-.59.582-1.17 1.174-1.76 1.754zm.856.42c-.457.465-.93.913-1.376 1.388-.815.799-1.632 1.602-2.419 2.426-.645.6-1.249 1.243-1.879 1.859L8.275 16.15c-.044.047-.092.094-.115.156-.203.122-.343.32-.517.477-.532.546-1.094 1.065-1.606 1.628-.508.458-.98.969-1.471 1.451.071.068.143.135.217.201.547-.538 1.084-1.086 1.629-1.624.519-.529 1.057-1.048 1.57-1.578 1.565-1.553 3.12-3.116 4.679-4.675.634-.627 1.26-1.261 1.893-1.889.878-.882 1.758-1.762 2.64-2.64.453-.459.913-.911 1.367-1.37.502-.5 1.004-1 1.502-1.504a5.893 5.893 0 0 0-.201-.218c-.518.512-1.031 1.03-1.547 1.545zm.7.578c-.454.446-.904.897-1.351 1.35-1.049 1.05-2.109 2.091-3.144 3.154-.637.608-1.252 1.242-1.875 1.864-2.47 2.46-4.926 4.932-7.397 7.391.074.068.154.128.236.187 2.395-2.392 4.79-4.784 7.179-7.181.635-.62 1.251-1.26 1.89-1.877l-.001-.01a1009.68 1009.68 0 0 0 3.273-3.272c.466-.461.929-.925 1.391-1.39.474-.472.948-.945 1.42-1.42a5.342 5.342 0 0 1-.17-.234c-.496.466-.968.958-1.45 1.44zm.527.747c-.516.499-1.012 1.016-1.526 1.516l.001.013a311.08 311.08 0 0 0-3.493 3.495c-.635.61-1.25 1.24-1.872 1.863-2.224 2.222-4.454 4.44-6.667 6.673a10.702 10.702 0 0 0 3.577 1.547 10.82 10.82 0 0 0 7.86-1.177c2.563-1.474 4.47-4.042 5.12-6.928.677-2.871.106-6.008-1.548-8.452-.492.476-.974.962-1.453 1.45z"/>
    <path fill="gray" d="M16.361 5.513h.008c.125.014.251.025.377.037-1.357 1.358-2.703 2.729-4.079 4.066a7.74 7.74 0 0 0-.027-.374l-.001-.008a567.873 567.873 0 0 0 3.722-3.722zM4.361 5.666c2.424-.005 4.848-.006 7.272 0-.002.624.023 1.252-.012 1.875-.371 1.017-.811 2.01-1.171 3.031-.974.997-1.974 1.977-2.958 2.968-.17.16-.318.345-.51.48.825-2.165 1.705-4.309 2.541-6.471-1.093-.002-2.186-.005-3.279.001-.005.608.005 1.216-.004 1.824-.626.007-1.252.006-1.878.001a458.558 458.558 0 0 1 0-3.709zM12.755 8.253c.226-1.29 1.335-2.301 2.579-2.6-.096.184-.277.302-.412.456-.726.711-1.424 1.453-2.167 2.145zM15.662 7.501c.587-.615 1.203-1.202 1.797-1.811.094.045.188.09.281.137-.517.541-1.062 1.056-1.581 1.596l-.014.001a2.715 2.715 0 0 0-.483.077zM16.939 7.498c.446-.475.919-.923 1.376-1.388l.246.176c-.454.459-.914.911-1.367 1.37a10.894 10.894 0 0 0-.255-.158zM17.664 8.039c.447-.453.897-.904 1.351-1.35l.2.215c-.462.465-.925.93-1.391 1.39l-.16-.255zM18.016 8.951c.514-.5 1.011-1.017 1.526-1.516.29.568.385 1.215.382 1.846-.001 1.875.001 3.75-.001 5.625-.003.881-.262 1.797-.885 2.443-1.028 1.099-2.727 1.48-4.125.922-.789-.32-1.512-.886-1.89-1.664-.356-.705-.387-1.511-.371-2.285.622-.623 1.237-1.253 1.872-1.863.035.801 0 1.603.018 2.403.014.387.105.784.332 1.104.647.93 2.257.905 2.865-.057.323-.489.308-1.098.301-1.66-.015-1.762.03-3.525-.023-5.286l-.001-.013zM12.638 10.512c.674-.652 1.313-1.346 2.005-1.977-.039.146-.07.297-.057.45v.009c-.649.622-1.258 1.286-1.92 1.892a7.842 7.842 0 0 0-.029-.374zM12.641 11.783c.63-.615 1.234-1.259 1.879-1.859.008.125.021.248.034.373-.633.627-1.259 1.262-1.893 1.889a6.752 6.752 0 0 0-.02-.403zM12.645 13.057c.623-.622 1.238-1.256 1.875-1.864.012.124.022.248.032.373l.001.01c-.638.617-1.254 1.257-1.89 1.877-.006-.132-.015-.264-.018-.396zM6.316 15.57c1.169-1.171 2.342-2.362 3.531-3.521-.07.193-.172.378-.188.586-1.081 1.104-2.197 2.196-3.288 3.299a.546.546 0 0 1-.202.15c.049-.171.135-.333.147-.513zM5.475 17.683c1.168-1.171 2.341-2.369 3.536-3.523-.067.194-.166.381-.19.587-1.085 1.102-2.198 2.197-3.291 3.3a.67.67 0 0 1-.197.149c.049-.17.143-.331.142-.512zM7.643 16.783c.174-.157.314-.355.517-.477-.06.185-.145.362-.177.555-.513.53-1.051 1.049-1.57 1.578a5.91 5.91 0 0 0-.375-.028c.512-.563 1.074-1.082 1.606-1.628z"/>
</svg>
