<svg xmlns="http://www.w3.org/2000/svg" width="24" height="24">
    <path d="M0 0h11.003C9.079.194 7.184.793 5.556 1.85 3.062 3.425 1.183 5.949.407 8.796.199 9.52.095 10.266 0 11.011V0zM12.988 0H24v11.004c-.208-2.106-.92-4.172-2.152-5.901-1.695-2.43-4.315-4.2-7.212-4.838-.542-.13-1.098-.187-1.649-.266z"/>
    <path d="M11.409 1.195a10.809 10.809 0 0 1 5.092.962c2.675 1.213 4.805 3.564 5.742 6.348.942 2.73.724 5.835-.598 8.404-1.268 2.507-3.55 4.479-6.219 5.358a10.832 10.832 0 0 1-12.824-4.902C.981 14.567.73 11.03 1.933 8.03a10.856 10.856 0 0 1 5.996-6.055 10.793 10.793 0 0 1 3.481-.779zM6.586 6.86c-.214 1.988-.43 3.975-.643 5.962h1.013c.249-.353.518-.731.931-.904.613-.243 1.386-.109 1.829.397.552.607.671 1.473.645 2.264-.023.705-.219 1.468-.78 1.939-.614.504-1.636.497-2.185-.103-.347-.377-.503-.879-.616-1.367H5.666c.132 1.015.494 2.108 1.396 2.691.964.548 2.294.53 3.155-.213.775-.658 1.173-1.667 1.263-2.663.095-.99.002-2.042-.5-2.919-.37-.656-.995-1.203-1.753-1.335a2.346 2.346 0 0 0-2.062.565c.12-.974.212-1.95.334-2.923 1.187-.001 2.375.001 3.562-.001.001-.463.002-.926-.001-1.389-1.491-.002-2.982 0-4.473 0zm8.242.048c-.867.177-1.467.952-1.777 1.736-.439 1.206-.547 2.504-.555 3.778 0 1.101.062 2.213.348 3.281.189.68.478 1.365 1.003 1.856.667.633 1.751.729 2.546.289.735-.42 1.132-1.229 1.369-2.01.312-1.061.383-2.176.387-3.277-.002-1.107-.073-2.226-.367-3.299-.178-.627-.423-1.264-.882-1.741-.518-.559-1.335-.776-2.072-.615z"/>
    <path d="M15.114 8.141c.623-.134 1.186.335 1.405.888.489 1.155.495 2.441.5 3.675-.011.899-.058 1.806-.274 2.682-.122.46-.293.939-.656 1.268-.395.365-1.063.401-1.477.048-.391-.33-.568-.836-.698-1.316-.272-1.105-.286-2.253-.273-3.386.031-.885.088-1.784.364-2.632.172-.533.507-1.125 1.109-1.227zM0 12.997c.102.792.217 1.585.448 2.351.854 2.987 2.928 5.592 5.631 7.118 1.509.865 3.209 1.36 4.935 1.533H0V12.996zM23.912 13.642c.027-.219.052-.439.088-.657V24H12.996c2.274-.218 4.495-1.045 6.306-2.448 2.494-1.897 4.201-4.8 4.61-7.91z"/>
    <path fill="red" d="M11.003 0h1.985c.551.079 1.106.136 1.649.266 2.896.637 5.517 2.407 7.212 4.838 1.231 1.729 1.944 3.795 2.152 5.901v1.981c-.037.218-.061.437-.088.657-.409 3.11-2.116 6.013-4.61 7.91-1.811 1.403-4.032 2.23-6.306 2.448h-1.982c-1.726-.173-3.426-.668-4.935-1.533-2.703-1.526-4.777-4.131-5.631-7.118-.232-.766-.346-1.56-.448-2.351v-1.986c.095-.745.199-1.492.407-2.215.777-2.847 2.655-5.371 5.149-6.946C7.184.795 9.08.196 11.004.002zm.406 1.195a10.767 10.767 0 0 0-3.481.779 10.856 10.856 0 0 0-5.996 6.055c-1.202 3-.952 6.538.669 9.335 1.456 2.57 4.008 4.491 6.887 5.161a10.84 10.84 0 0 0 5.937-.259c2.669-.879 4.951-2.851 6.219-5.358 1.322-2.568 1.54-5.674.598-8.404-.938-2.784-3.067-5.135-5.742-6.348a10.819 10.819 0 0 0-5.092-.962z"/>
    <path fill="#fff" d="M6.586 6.86h4.473c.003.463.002.926.001 1.389-1.188.002-2.375 0-3.563.001-.122.973-.214 1.95-.334 2.923a2.352 2.352 0 0 1 2.062-.565c.758.132 1.383.678 1.753 1.335.502.877.595 1.929.5 2.919-.09.996-.488 2.005-1.263 2.663-.861.742-2.19.761-3.155.213-.902-.583-1.264-1.676-1.396-2.691h1.114c.113.488.27.99.616 1.367.549.6 1.572.607 2.185.103.561-.472.757-1.234.78-1.939.026-.79-.093-1.657-.645-2.264-.443-.506-1.216-.64-1.829-.397-.412.173-.682.55-.931.904H5.941c.213-1.988.429-3.975.643-5.962zM14.828 6.908c.737-.161 1.554.055 2.072.615.459.478.705 1.114.882 1.741.294 1.072.365 2.191.367 3.299-.004 1.101-.075 2.216-.387 3.277-.237.781-.634 1.589-1.369 2.01-.795.44-1.879.344-2.546-.289-.525-.491-.813-1.176-1.003-1.856-.286-1.068-.348-2.181-.348-3.281.008-1.275.116-2.572.555-3.778.31-.785.909-1.56 1.777-1.736zm.286 1.233c-.602.102-.937.694-1.109 1.227-.276.848-.333 1.747-.364 2.632-.014 1.133.001 2.28.273 3.386.13.48.307.985.698 1.316.414.353 1.082.317 1.477-.048.362-.328.533-.807.656-1.268.216-.876.263-1.784.274-2.682-.006-1.234-.011-2.52-.5-3.675-.218-.553-.781-1.022-1.405-.888z"/>
</svg>
