<svg xmlns="http://www.w3.org/2000/svg" width="24" height="24">
    <path fill="#ea1c03" d="M10.738 0h2.506c4.35.493 8.335 3.436 9.924 7.538.432 1.022.626 2.117.832 3.201v2.505c-.493 4.35-3.435 8.335-7.538 9.923-1.022.434-2.117.627-3.2.834h-2.506c-4.35-.493-8.335-3.436-9.924-7.538-.434-1.022-.626-2.117-.832-3.2v-2.506c.201-1.09.399-2.191.834-3.219C2.42 3.441 6.397.504 10.739.001zM6.862 5.361c.828.688 1.419 1.649 2.293 2.258-.117.876-.586 1.631-.862 2.457-1.031-1.021-2.037-2.067-3.094-3.061-1.621 2.297-2.132 5.348-1.108 7.996.826 2.351 2.787 4.208 5.092 5.098 2.622.932 5.675.471 7.917-1.172a139.168 139.168 0 0 0-3.081-3.066 29.79 29.79 0 0 1 .006-1.303c.492-.005.982-.005 1.472-.001.045-.143.084-.289.12-.435 1.003 1.092 2.097 2.103 3.135 3.163a8.071 8.071 0 0 0 1.795-4.908c.15-3.165-1.644-6.379-4.497-7.799-2.855-1.586-6.652-1.311-9.188.773z"/>
    <path fill="#ea1c03" d="M9.079 10.932c-.105-.924.446-1.721.746-2.555.141.163.279.329.423.488.089.092.181.181.275.266.239.205.468.422.663.67-.141.641-.212 1.388-.026 1.999.694.063 1.394.004 2.09.022.217.213.434.427.644.645-1.09.004-2.181.008-3.271 0a148.937 148.937 0 0 1-1.545-1.534z"/>
    <path fill="#ea1c03" d="M11.85 10.437l.084.077c.215.21.434.418.641.637-.244.001-.486-.004-.73-.003l.005-.712z"/>
    <path fill="#fff" d="M6.862 5.361c2.537-2.084 6.333-2.359 9.188-.773 2.853 1.419 4.646 4.634 4.497 7.799a8.069 8.069 0 0 1-1.795 4.908c-1.039-1.059-2.133-2.071-3.135-3.163l-.13-.208-.191-.075a19.293 19.293 0 0 1-.67-.672c.493-.001.986-.003 1.48 0 0 .441.001.883.008 1.324.266.003.533.004.8.005.013-.677.01-1.355.004-2.032-1.008-.013-2.015 0-3.023-.009-.21-.218-.427-.432-.644-.645.85-.001 1.699.006 2.55-.005.03-.657.017-1.314.012-1.97-1.542-.043-3.086.043-4.626-.045a4.882 4.882 0 0 0-.663-.67c2.095-.015 4.191.009 6.286-.012-.001-.228-.003-.455 0-.683-1.035-.018-2.068 0-3.102-.009a1.342 1.342 0 0 1 .248-.81 7.58 7.58 0 0 0-1.021-.057c-.001.289-.009.577-.01.866-.874.009-1.748-.005-2.622.008l-.054.431c-.145-.159-.283-.325-.423-.488l.329-.218a6.013 6.013 0 0 0-.999-.539c-.874-.609-1.465-1.57-2.293-2.258zM5.199 7.015c1.057.994 2.063 2.04 3.094 3.061-.328.724-.934 1.267-1.368 1.926.206.175.415.347.622.523.266-.325.525-.657.785-.988.018 1.943.001 3.888.008 5.831l.741-.004c.004-2.145.006-4.288-.001-6.432.51.516 1.027 1.026 1.545 1.534-.277-.001-.556.01-.834.017a71.45 71.45 0 0 0 .001 2.018c.267.003.534.005.801.005.005-.443.006-.885.008-1.328.245.001.49-.001.737-.001.228.23.455.459.679.693a59.57 59.57 0 0 0-.732.014c-.003.225-.005.449-.006.674.634.083 1.508-.245 1.898.436.075.506.018 1.021.022 1.53-.533.196-1.112.094-1.663.048.081.259.159.521.209.79.644-.032 1.352.141 1.943-.19.466-.263.306-.863.332-1.299 1.044 1.004 2.07 2.03 3.081 3.066-2.243 1.643-5.295 2.103-7.917 1.172-2.305-.89-4.266-2.747-5.092-5.098C3.069 12.365 3.58 9.314 5.2 7.017z"/>
    <path fill="#030303" d="M9.155 7.619c.351.146.681.332.999.539l-.329.218c-.299.834-.85 1.631-.746 2.555.008 2.145.005 4.288.001 6.432l-.741.004c-.006-1.943.01-3.888-.008-5.831a53.97 53.97 0 0 1-.785.988c-.206-.175-.415-.347-.622-.523.434-.659 1.04-1.203 1.368-1.926.276-.826.745-1.581.862-2.457zM12.934 7.56c.341-.005.681.015 1.021.057a1.351 1.351 0 0 0-.248.81c1.034.009 2.067-.009 3.102.009-.003.227-.001.454 0 .683-2.095.021-4.191-.004-6.286.012a5.737 5.737 0 0 1-.275-.266l.054-.431c.874-.013 1.748.001 2.622-.008.001-.289.009-.577.01-.866zM11.16 11.799c-.186-.61-.115-1.357.026-1.999 1.539.088 3.084.003 4.626.045.005.657.018 1.314-.012 1.97-.85.012-1.699.004-2.55.005-.697-.018-1.396.041-2.09-.022zm.69-1.362c-.003.237-.004.475-.005.712.244-.001.486.004.73.003.813.008 1.626.006 2.439.001l.006-.644c-1.028-.004-2.058-.012-3.086.005l-.084-.077zM9.79 12.483c.277-.006.556-.018.834-.017 1.09.008 2.181.004 3.271 0 1.008.009 2.015-.004 3.023.009.006.677.009 1.355-.004 2.032a212.02 212.02 0 0 1-.8-.005 97.394 97.394 0 0 1-.008-1.324c-.494-.003-.987-.001-1.48 0-1.097-.003-2.194 0-3.289-.001-.246 0-.492.003-.737.001-.001.443-.003.885-.008 1.328-.267 0-.534-.003-.801-.005-.01-.674-.01-1.346-.001-2.018z"/>
    <path fill="#030303" d="M11.284 13.884c.244-.006.488-.012.732-.014 1.094-.001 2.187.023 3.28-.019l.191.075.13.208a7.166 7.166 0 0 1-.12.435c-.49-.004-.981-.004-1.472.001-.012.435-.014.868-.006 1.303-.026.436.134 1.036-.332 1.299-.591.33-1.299.157-1.943.19a6.959 6.959 0 0 0-.209-.79c.551.046 1.13.148 1.663-.048-.004-.51.053-1.025-.022-1.53-.39-.681-1.265-.354-1.898-.436.001-.225.004-.449.006-.674z"/>
    <path fill="#fcfcfc" d="M11.934 10.515c1.028-.017 2.058-.009 3.086-.005-.003.214-.004.428-.006.644-.813.005-1.626.006-2.439-.001-.208-.219-.426-.427-.641-.637z"/>
    <path fill="#e91c03" d="M11.337 13.177c1.095.001 2.192-.001 3.289.001.218.227.439.454.67.672-1.093.043-2.186.018-3.28.019-.223-.234-.45-.463-.679-.693z"/>
</svg>
