<svg xmlns="http://www.w3.org/2000/svg" width="24" height="24">
    <path d="M10.84 0h2.303c1.698.34 3.563.635 4.932 1.759-3.683-2.166-8.468-2.167-12.15.001C7.287.636 9.149.345 10.84 0zM22.24 5.927c1.118 1.368 1.421 3.223 1.76 4.918v2.292c-.284 1.166-.33 2.468-1.028 3.482 1.412-3.439 1.144-7.481-.732-10.692zM10.535 8.222c-.223-.922.944-1.416 1.624-.942.443.239.463.773.413 1.213-.596.457-1.213.889-1.82 1.331a6.398 6.398 0 0 1-.08-.431c.239-.188.484-.368.73-.547.013-.24.01-.48-.001-.72-.287.04-.575.079-.864.096z"/>
    <path d="M12.295 8.938c.222-.173.571-.116.71.134.49.672.998 1.331 1.474 2.014.199.27-.005.574-.293.649.128.241.378.062.554.011.768-.331 1.592-.496 2.396-.712-.001.244 0 .488.004.732.922.526 1.447 1.7 1.069 2.718-.386 1.248-1.939 1.939-3.125 1.385-.787-.316-1.324-1.091-1.423-1.924-.821.132-1.637.287-2.455.432-.205-.152-.41-.305-.613-.46-.08 1.217-1.223 2.219-2.437 2.14-1.26-.028-2.366-1.224-2.214-2.494.095-1.297 1.421-2.272 2.689-2.064-.08-.156-.158-.312-.235-.469.187-.05.376-.098.564-.145-.043-.848.942-.53 1.47-.595.646-.41 1.228-.925 1.865-1.352zm-1.593 2.278c.137.286.263.576.376.871.528-.329 1.127-.518 1.681-.796a26.727 26.727 0 0 0-.966-.779c-.365.232-.674.56-1.091.703zm-2.747 1.307c-.623.132-1.106.763-1.01 1.404.083.77.946 1.322 1.682 1.084.697-.178 1.18-1.02.856-1.693-.21-.604-.917-.953-1.528-.794zm7.688.015c-.595.15-1.043.761-.959 1.378.074.756.9 1.312 1.631 1.111.676-.149 1.172-.898.966-1.574-.167-.69-.966-1.127-1.638-.914zM4.984 21.622c.737.444 1.458.923 2.254 1.261 3.281 1.468 7.184 1.272 10.36-.379-1.254.971-2.924 1.169-4.438 1.496h-2.303c-2.076-.361-4.291-.92-5.873-2.378z"/>
    <path fill="#fff" d="M5.924 1.76c3.682-2.168 8.467-2.167 12.15-.001.318.2.63.409.947.614.128.204.326.349.547.443l.044.023c.51.522 1.028 1.037 1.547 1.552l.025.04c.096.22.23.427.443.551.2.317.412.628.612.946 1.876 3.211 2.144 7.253.732 10.692l-.058.114a9.74 9.74 0 0 0-.54 1.094 3.941 3.941 0 0 1-.066.109.957.957 0 0 0-.283.452l-.06.12a7.74 7.74 0 0 0-.791 1.085l-.032.035c-.485.458-.943.943-1.415 1.415-.041.038-.08.078-.12.118a7.5 7.5 0 0 0-1.099.81l-.119.053a1.002 1.002 0 0 0-.454.281c-.114.065-.227.131-.338.199-3.175 1.651-7.079 1.847-10.36.379-.796-.338-1.517-.817-2.254-1.261l-.02-.025c-.124-.202-.325-.328-.54-.415a.68.68 0 0 0-.028-.019c-.512-.526-1.036-1.04-1.559-1.554a.591.591 0 0 0-.019-.036 1.142 1.142 0 0 0-.434-.548c-.206-.322-.42-.637-.624-.959a23.05 23.05 0 0 0-.674-1.331l-.059-.119a12.596 12.596 0 0 1-.356-8.28l.072-.194c.305-.751.647-1.483 1.013-2.206.202-.325.415-.642.624-.964a.712.712 0 0 0 .336-.446l.125-.13c.514-.521 1.038-1.033 1.548-1.556a1.94 1.94 0 0 0 .046-.024c.22-.094.419-.238.547-.443.314-.204.626-.413.944-.612zm5.17-1.324a11.566 11.566 0 0 0-6.545 2.666C1.853 5.342.269 8.85.408 12.358c.08 3.847 2.252 7.555 5.546 9.535 2.184 1.34 4.818 1.937 7.366 1.631 3.437-.378 6.647-2.395 8.48-5.326 1.548-2.417 2.128-5.419 1.618-8.24-.552-3.198-2.53-6.11-5.291-7.812C16.047.839 13.538.244 11.094.436z"/>
    <path fill="#fff" d="M10.484 3.534c4.127-.83 8.552 1.86 9.724 5.898 1.327 3.948-.732 8.624-4.523 10.334-3.39 1.69-7.817.732-10.224-2.188-2.582-2.911-2.744-7.601-.38-10.691 1.289-1.751 3.258-2.984 5.404-3.354zm.051 4.688c.289-.017.577-.056.864-.096.011.24.014.48.001.72-.246.179-.491.359-.73.547.022.144.049.288.08.431.607-.442 1.224-.874 1.82-1.331.05-.44.03-.974-.413-1.213-.679-.474-1.847.02-1.624.942zm1.76.716c-.637.427-1.219.942-1.865 1.352-.528.065-1.513-.253-1.47.595-.188.047-.377.095-.564.145.077.157.155.313.235.469-1.268-.208-2.594.767-2.689 2.064-.152 1.27.954 2.466 2.214 2.494 1.214.079 2.357-.923 2.437-2.14.203.155.408.307.613.46.818-.145 1.634-.3 2.455-.432.1.833.636 1.608 1.423 1.924 1.186.554 2.738-.137 3.125-1.385.378-1.018-.148-2.192-1.069-2.718-.004-.244-.005-.488-.004-.732-.804.216-1.628.38-2.396.712-.176.052-.426.23-.554-.011.288-.076.492-.379.293-.649-.475-.683-.984-1.342-1.474-2.014-.139-.251-.488-.307-.71-.134z"/>
    <path fill="#fff" d="M10.702 11.216c.416-.143.726-.472 1.091-.703.329.251.649.512.966.779-.554.277-1.153.467-1.681.796a11.544 11.544 0 0 0-.376-.871zM7.955 12.523c.611-.158 1.318.191 1.528.794.324.673-.158 1.516-.856 1.693-.737.239-1.6-.313-1.682-1.084-.096-.641.388-1.272 1.01-1.404zM15.643 12.538c.672-.212 1.471.224 1.638.914.206.677-.29 1.426-.966 1.574-.731.2-1.556-.355-1.631-1.111-.084-.617.364-1.228.959-1.378z"/>
    <path fill="#d40000" d="M11.094.436c2.444-.192 4.954.403 7.033 1.71 2.761 1.702 4.739 4.614 5.291 7.812.51 2.821-.07 5.824-1.618 8.24-1.834 2.93-5.044 4.948-8.48 5.326-2.548.306-5.182-.29-7.366-1.631C2.66 19.913.488 16.205.408 12.358.269 8.85 1.853 5.343 4.549 3.102A11.56 11.56 0 0 1 11.094.436zm-.61 3.098c-2.146.37-4.115 1.603-5.404 3.354-2.364 3.09-2.202 7.78.38 10.691 2.407 2.92 6.834 3.877 10.224 2.188 3.791-1.71 5.85-6.386 4.523-10.334-1.171-4.038-5.597-6.728-9.724-5.898z"/>
    <path fill="#323232" opacity=".91" d="M4.433 2.815c.03-.274.289-.436.547-.443a1.178 1.178 0 0 1-.547.443z"/>
    <path fill="#303030" opacity=".9" d="M19.021 2.374c.257.008.517.169.547.443a1.174 1.174 0 0 1-.547-.443z"/>
    <path fill="#323232" opacity=".88" d="M2.839 4.396A3.655 3.655 0 0 1 4.387 2.84c-.51.523-1.034 1.036-1.548 1.556z"/>
    <path fill="#313131" opacity=".87" d="M19.613 2.839a3.682 3.682 0 0 1 1.547 1.552c-.518-.515-1.037-1.03-1.547-1.552z"/>
    <path fill="#2f2f2f" opacity=".9" d="M21.185 4.43c.27.043.438.287.443.551-.212-.124-.347-.331-.443-.551z"/>
    <path fill="#252525" opacity=".88" d="M2.378 4.972a.437.437 0 0 1 .336-.446.71.71 0 0 1-.336.446z"/>
    <path fill="#212121" opacity=".82" d="M.742 8.141c.085-.797.457-1.627 1.013-2.206A28.918 28.918 0 0 0 .742 8.141z"/>
    <path fill="#1a1a1a" opacity=".84" d="M0 10.824c.234-.821.169-1.765.67-2.489a12.602 12.602 0 0 0 .356 8.28C.319 15.63.282 14.339 0 13.193v-2.369z"/>
    <path fill="#212121" opacity=".83" d="M1.085 16.734c.239.437.466.88.674 1.331-.396-.319-.631-.828-.674-1.331z"/>
    <path fill="#212121" opacity=".84" d="M22.374 17.827c.157-.376.337-.742.54-1.094-.014.42-.203.835-.54 1.094z"/>
    <path fill="#2c2c2c" opacity=".91" d="M22.025 18.389a.948.948 0 0 1 .283-.452c.037.194-.053.45-.283.452z"/>
    <path fill="#232323" opacity=".82" d="M21.174 19.594a7.74 7.74 0 0 1 .791-1.085 1.795 1.795 0 0 1-.791 1.085z"/>
    <path fill="#2b2b2b" opacity=".87" d="M2.383 19.024c.203.128.344.326.434.548-.277-.028-.426-.293-.434-.548z"/>
    <path fill="#2a2a2a" opacity=".85" d="M2.837 19.608c.523.514 1.046 1.028 1.559 1.554a3.676 3.676 0 0 1-1.559-1.554z"/>
    <path fill="#2c2c2c" opacity=".86" d="M19.727 21.043c.472-.472.93-.956 1.415-1.415-.296.596-.806 1.133-1.415 1.415z"/>
    <path fill="#282828" opacity=".87" d="M4.423 21.181c.215.088.416.214.54.415a.493.493 0 0 1-.54-.415z"/>
    <path fill="#222" opacity=".82" d="M18.508 21.971a7.5 7.5 0 0 1 1.099-.81 1.875 1.875 0 0 1-1.099.81z"/>
    <path fill="#2a2a2a" opacity=".91" d="M17.935 22.304c.122-.134.28-.228.454-.281-.001.232-.259.325-.454.281z"/>
</svg>
