<svg xmlns="http://www.w3.org/2000/svg" width="24" height="24">
    <path d="M0 0h10.986C9.08.199 7.201.788 5.585 1.831 3.098 3.392 1.218 5.895.427 8.724.208 9.465.101 10.23 0 10.994V0zM13.005 0H24v10.989c-.227-2.29-1.063-4.529-2.49-6.344C19.747 2.354 17.133.732 14.291.194 13.866.103 13.433.072 13.005 0z"/>
    <path d="M11.408 1.195c1.729-.097 3.483.23 5.059.947 2.69 1.208 4.834 3.567 5.775 6.362.943 2.73.725 5.836-.598 8.404-1.334 2.643-3.8 4.687-6.65 5.492a10.84 10.84 0 0 1-5.506.125c-2.867-.668-5.411-2.576-6.869-5.132C1.167 14.9.793 11.813 1.59 9.042c.79-2.831 2.799-5.289 5.409-6.638a10.774 10.774 0 0 1 4.41-1.208zm1.904 5.665c-.222 1.987-.429 3.975-.647 5.962.337.003.673 0 1.009.002.248-.351.514-.726.922-.9.621-.252 1.409-.114 1.854.405.552.619.664 1.497.631 2.295-.029.716-.247 1.495-.842 1.946-.613.446-1.573.428-2.107-.138-.359-.376-.523-.887-.633-1.383h-1.111c.071.477.158.96.366 1.4.274.724.874 1.358 1.64 1.551.809.232 1.746.145 2.426-.381.823-.629 1.259-1.653 1.365-2.663.115-1.055.021-2.188-.547-3.11-.387-.644-1.036-1.156-1.795-1.253a2.322 2.322 0 0 0-1.961.59c.112-.977.218-1.954.327-2.931l3.57-.001c.003-.46-.005-.921.005-1.381-1.49-.021-2.982-.003-4.473-.008zm-7.498.022c.004.465.002.929.001 1.394 1.537 0 3.074-.001 4.611.001C9.584 9.806 8.788 11.365 8.171 13c-.578 1.55-.965 3.164-1.255 4.79.396.003.791 0 1.187.001.257-1.761.655-3.507 1.281-5.175.579-1.573 1.34-3.073 2.189-4.516.047-.399.01-.813.017-1.217-1.925-.002-3.85-.001-5.775 0z"/>
    <path d="M0 13.014c.104.76.208 1.524.427 2.262.835 2.995 2.896 5.614 5.592 7.157 1.518.883 3.234 1.387 4.976 1.567H-.001V13.014zM23.805 14.291c.09-.425.122-.86.195-1.288v10.996H13.009c2.269-.223 4.485-1.047 6.293-2.448 2.317-1.765 3.961-4.396 4.504-7.26z"/>
    <path fill="red" d="M10.986 0h2.02c.428.072.861.103 1.286.194 2.843.538 5.456 2.16 7.219 4.451 1.427 1.815 2.263 4.054 2.49 6.344v2.015c-.073.428-.104.863-.195 1.288-.543 2.865-2.187 5.495-4.504 7.26-1.807 1.402-4.023 2.225-6.293 2.448h-2.013c-1.742-.18-3.458-.684-4.976-1.567C3.324 20.89 1.263 18.27.428 15.276c-.219-.738-.324-1.501-.427-2.262v-2.02c.101-.764.208-1.529.427-2.27a12.06 12.06 0 0 1 5.158-6.893C7.202.788 9.081.198 10.987 0zm.422 1.195a10.805 10.805 0 0 0-4.41 1.208C4.388 3.752 2.379 6.21 1.589 9.041c-.797 2.772-.423 5.858 1.029 8.351a10.829 10.829 0 0 0 12.375 5.007c2.85-.805 5.317-2.849 6.65-5.492 1.323-2.568 1.541-5.674.598-8.404-.941-2.795-3.084-5.154-5.775-6.362a10.804 10.804 0 0 0-5.059-.947z"/>
    <path fill="#fff" d="M13.312 6.86c1.491.005 2.983-.012 4.473.008-.009.46-.001.921-.005 1.381l-3.57.001c-.109.977-.215 1.954-.327 2.931a2.318 2.318 0 0 1 1.961-.59c.759.097 1.408.609 1.795 1.252.569.922.663 2.055.547 3.11-.106 1.01-.542 2.034-1.365 2.663-.68.526-1.617.612-2.426.381-.765-.192-1.366-.826-1.64-1.551-.209-.439-.295-.922-.366-1.4H13.5c.11.496.274 1.007.633 1.383.534.566 1.493.584 2.107.138.596-.45.814-1.23.842-1.946.033-.798-.08-1.676-.631-2.295-.445-.519-1.233-.657-1.854-.405-.409.175-.675.55-.923.9-.337-.002-.673.001-1.009-.002.218-1.987.425-3.975.647-5.962zM5.814 6.882h5.775c-.007.405.03.818-.017 1.217-.849 1.443-1.61 2.943-2.189 4.516-.626 1.668-1.024 3.414-1.281 5.175-.396-.001-.791.001-1.187-.001.291-1.626.678-3.24 1.255-4.79.617-1.635 1.413-3.195 2.255-4.723-1.537-.002-3.074-.001-4.611-.001.001-.465.003-.929-.001-1.394z"/>
</svg>
