<svg xmlns="http://www.w3.org/2000/svg" width="24" height="24">
    <path fill="#c31927" d="M10.957 0h2.064c4.559.425 8.754 3.57 10.264 7.918.371.979.532 2.017.715 3.042v2.059c-.184 1.093-.37 2.196-.779 3.233-1.21 3.233-3.888 5.875-7.141 7.03-.98.371-2.018.536-3.046.719h-2.052c-1.033-.182-2.077-.346-3.062-.718-3.254-1.156-5.932-3.798-7.144-7.03C.369 15.226.188 14.131 0 13.048v-2.074C.182 9.882.364 8.78.776 7.747 2.33 3.488 6.468.432 10.957 0zM5.748 4.207c1.314 1.464 2.779 2.8 4.152 4.214 1.656 1.62 3.24 3.316 4.944 4.885l-.06-.204c.095.296.316.527.53.742 1.498 1.474 2.966 2.975 4.464 4.446 2.176-2.663 2.82-6.469 1.624-9.695-.818-2.299-2.527-4.255-4.674-5.41-3.428-1.883-7.969-1.49-10.98 1.021zM2.695 15.671a10.063 10.063 0 0 0 5.057 5.382c3.409 1.642 7.71 1.093 10.61-1.332-.704-.7-1.382-1.426-2.12-2.089.014.065.044.194.06.258-.272-.674-.904-1.091-1.379-1.612-.563-.516-1.022-1.156-1.686-1.552a6.312 6.312 0 0 0-.15-.296c-.552-.529-1.08-1.084-1.632-1.613-.548-.527-1.034-1.127-1.644-1.584l-.088.017.036-.068c-.222-.376-.565-.662-.916-.913l-.08.02.037-.073C7.361 8.631 5.775 7.17 4.28 5.634c-2.291 2.737-2.92 6.727-1.585 10.037z"/>
    <path fill="#fff" d="M5.748 4.207c3.011-2.512 7.552-2.904 10.98-1.021 2.147 1.154 3.856 3.11 4.674 5.41 1.196 3.226.552 7.032-1.624 9.695-1.498-1.471-2.966-2.972-4.464-4.446-.215-.215-.436-.445-.53-.742-.337-.712.106-1.445.034-2.179-.022-.822-.47-1.537-.769-2.279l.966.143c.124 1.082.246 2.166.368 3.248l.954.047c-.028-1.315-.056-2.63-.088-3.947-1.423-.661-2.773-1.514-4.252-2.042-1.177.031-1.792 1.344-2.098 2.328-1.373-1.415-2.838-2.75-4.152-4.214zm4.729-.683c-.922.133-1.343 1.39-.696 2.056.552.686 1.758.486 2.07-.334.426-.863-.437-1.949-1.374-1.722zM2.695 15.671c-1.334-3.31-.706-7.3 1.585-10.037C5.775 7.17 7.362 8.63 8.8 10.216l-.037.073c-.532.33-1.038.696-1.564 1.036l.474.799c.682-.293 1.367-.58 2.05-.874l.088-.017c.61.457 1.096 1.057 1.644 1.584-1.24 2.101-1.619 4.529-2.298 6.839.462.126.92.258 1.381.39.367-1.238.744-2.474 1.104-3.715.18-.818.938-1.291 1.445-1.901.053.097.102.197.15.296.821 1.918 1.615 3.847 2.426 5.77.379-.314.756-.631 1.136-.942-.172-.553-.349-1.104-.498-1.664a10.756 10.756 0 0 1-.06-.258c.738.664 1.416 1.39 2.12 2.089-2.9 2.425-7.201 2.974-10.61 1.332a10.066 10.066 0 0 1-5.057-5.382z"/>
    <path d="M10.477 3.524c.937-.227 1.8.859 1.374 1.722-.312.82-1.518 1.02-2.07.334-.647-.666-.226-1.922.696-2.056zM9.9 8.422c.306-.984.92-2.297 2.098-2.328 1.478.528 2.828 1.381 4.252 2.042.031 1.316.06 2.632.088 3.947l-.954-.047a3584.43 3584.43 0 0 0-.368-3.248l-.966-.143c.299.742.748 1.457.769 2.279.072.734-.371 1.468-.034 2.179l.06.204c-1.704-1.57-3.288-3.265-4.944-4.885zM7.2 11.324c.526-.34 1.032-.706 1.564-1.036l.08-.02c.35.251.694.538.916.913l-.036.068c-.683.294-1.368.581-2.05.874l-.474-.799zM11.455 12.817c.552.529 1.08 1.084 1.632 1.613-.506.61-1.265 1.082-1.445 1.901-.36 1.241-.737 2.477-1.104 3.715-.461-.132-.919-.264-1.381-.39.679-2.31 1.058-4.738 2.298-6.839zM13.237 14.726c.664.396 1.123 1.036 1.686 1.552.475.521 1.106.937 1.379 1.612.149.56.326 1.111.498 1.664-.38.311-.757.628-1.136.942-.811-1.922-1.606-3.852-2.426-5.77z"/>
</svg>
