<svg xmlns="http://www.w3.org/2000/svg" width="24" height="24">
    <path fill="#fff" d="M.912 0h22.175c.446.102.811.468.913.914v22.17a1.233 1.233 0 0 1-.914.915H.914A1.235 1.235 0 0 1 0 23.087V.911C.102.466.467.101.912-.001zm.654.587C1.008.647.559 1.171.575 1.73v20.539c-.022.64.566 1.199 1.203 1.155 6.831-.001 13.661.001 20.491-.001.621.021 1.176-.534 1.155-1.155V1.729a1.15 1.15 0 0 0-.67-1.053c-.255-.122-.543-.104-.817-.103H2.062c-.165.001-.332-.007-.496.013z"/>
    <path fill="#fff" d="M2.08 1.192c.149-.024.301-.016.452-.017 6.407.001 12.815-.001 19.223.001.57-.006 1.075.5 1.069 1.069v19.509c.006.569-.499 1.074-1.068 1.068-6.503.002-13.006.002-19.509 0-.569.006-1.075-.499-1.068-1.068V2.245a1.085 1.085 0 0 1 .903-1.054zm10.945 2.787c-.458.612-.477 1.498-.142 2.17.297.602 1.128.788 1.688.455.223-.133.374-.354.482-.586a36.767 36.767 0 0 0-.519-.199c-.164.375-.689.547-.991.23-.395-.454-.394-1.189-.093-1.692.258-.403.897-.31 1.096.105.168-.075.336-.152.503-.23-.314-.79-1.52-.917-2.025-.253zm6.835-.197c-.362.271-.403.869-.068 1.178.34.325.855.328 1.224.603.234.173.123.574-.153.632-.365.123-.759-.1-.902-.444-.174.063-.348.127-.52.195.236.806 1.344 1.075 1.972.561.397-.326.412-1.019.009-1.346-.323-.275-.758-.331-1.124-.522-.185-.075-.218-.359-.046-.466.281-.164.697-.068.837.239.169-.054.337-.111.504-.17-.196-.722-1.192-.875-1.732-.459zM2.215 3.598c-.002.18-.002.361 0 .542.291.002.581 0 .871.001l.001 2.578h.563V4.142l.865-.001c.001-.181.001-.362 0-.543H2.214zm3.387 3.099c.187.002.374.002.562 0 .004-.399 0-.798.002-1.197h.604c.198.398.391.799.592 1.197.21.001.42.002.629-.002-.2-.419-.408-.834-.608-1.252.583-.202.788-.975.462-1.474-.172-.27-.506-.378-.812-.381-.477-.003-.954-.001-1.431 0-.001 1.036-.003 2.073.001 3.109zm3.497-3.083v1.92c.003.354.098.739.382.972.417.324 1.031.334 1.497.112.363-.183.535-.599.544-.989.007-.672-.002-1.345.004-2.017-.188.003-.375.002-.562 0l-.001 1.875c-.007.228-.034.503-.246.638a.907.907 0 0 1-.749.032c-.225-.091-.297-.355-.299-.576-.008-.656-.001-1.312-.003-1.968h-.568zm7.038 0c.004 1.035 0 2.07.002 3.105h.564c.012-.293-.02-.59.015-.88.163-.222.35-.427.518-.645.269.509.54 1.018.812 1.525.218 0 .437.001.655-.001L17.614 4.72c.29-.373.592-.735.882-1.108-.222.004-.443.003-.666.003-.372.479-.75.953-1.126 1.429v-1.43c-.189.002-.377.002-.566 0zM8.873 9.563l-.324 5.387c.618.262 1.236.521 1.854.782.639-.743 1.81-.972 2.668-.492.744.455.86 1.492.579 2.252-.294.797-1.166 1.225-1.98 1.22a3.778 3.778 0 0 1-2.363-.709c-.359.494-.714.989-1.071 1.484.663.558 1.511.851 2.361.969.969.131 1.989.085 2.896-.309.757-.322 1.41-.897 1.785-1.633.665-1.326.556-3.07-.41-4.224-1.064-1.231-3.018-1.41-4.41-.666.07-.746.102-1.496.172-2.242 1.465-.002 2.931.002 4.395-.002.006-.605.003-1.211.001-1.816-2.051-.002-4.102-.001-6.153 0z"/>
    <path fill="#fff" d="M6.165 4.122c.315.01.633-.022.946.018.392.053.413.714.031.799-.323.047-.652.009-.978.021v-.837z"/>
    <path d="M1.566.587c.165-.02.331-.011.496-.013h19.875c.274 0 .563-.019.817.103.407.178.677.61.67 1.053v20.539c.021.621-.534 1.176-1.155 1.155-6.831.002-13.661 0-20.491.001-.637.044-1.225-.516-1.203-1.155V1.731c-.016-.56.433-1.084.991-1.143zm.514.605a1.086 1.086 0 0 0-.903 1.054v19.509c-.007.57.499 1.074 1.068 1.068 6.503.002 13.006.002 19.509 0 .569.006 1.074-.499 1.068-1.068V2.246c.007-.57-.499-1.075-1.069-1.069-6.407-.003-12.815 0-19.223-.001-.151.001-.303-.008-.452.017z"/>
    <path d="M13.025 3.979c.505-.665 1.711-.537 2.025.253-.167.078-.335.154-.503.23-.2-.415-.838-.508-1.096-.105-.301.503-.301 1.238.093 1.692.302.317.827.144.991-.23.173.065.346.13.519.199-.108.232-.259.453-.482.586-.56.333-1.391.147-1.688-.455-.335-.672-.316-1.558.142-2.17zM19.86 3.782c.541-.415 1.536-.262 1.732.459-.167.06-.336.116-.504.17-.141-.307-.556-.403-.837-.239-.172.107-.139.39.046.466.366.191.802.247 1.124.522.403.327.387 1.02-.009 1.346-.627.514-1.735.245-1.972-.561.172-.068.346-.132.52-.195.143.344.538.567.902.444.276-.058.388-.458.153-.632-.368-.275-.884-.277-1.224-.603-.335-.308-.294-.906.068-1.178zM2.215 3.598h2.301c.001.181.001.362 0 .543l-.865.001v2.577c-.188.002-.375.001-.563 0l-.001-2.578c-.291 0-.581.001-.871-.001a48.96 48.96 0 0 1 0-.542zM5.602 6.697c-.004-1.036-.002-2.072-.001-3.109.477 0 .954-.003 1.431 0 .306.003.64.112.812.381.327.499.121 1.272-.462 1.474.201.419.409.833.608 1.253-.21.004-.419.003-.629.002-.2-.397-.394-.798-.592-1.197a30.402 30.402 0 0 0-.604 0c-.001.399.002.798-.002 1.197-.188.002-.375.002-.562 0zm.563-2.575v.837c.325-.011.655.026.978-.021.381-.085.361-.746-.031-.799-.313-.039-.631-.007-.946-.018zM9.099 3.614h.568c.002.656-.005 1.312.003 1.968.002.221.074.485.299.576a.91.91 0 0 0 .749-.032c.212-.134.24-.41.246-.638l.001-1.875c.187.002.374.003.562 0-.007.672.002 1.345-.004 2.017-.009.39-.181.805-.544.989-.465.222-1.08.212-1.497-.112-.285-.233-.379-.618-.382-.972v-1.92zM16.137 3.614c.189.002.377.001.566 0v1.43c.375-.476.754-.95 1.126-1.429.222 0 .444.001.666-.003-.29.373-.592.735-.882 1.108l1.089 1.998c-.218.002-.437.001-.655.001-.272-.508-.543-1.016-.812-1.525-.168.218-.355.423-.518.645-.035.29-.003.587-.015.88h-.564c-.002-1.035.002-2.07-.002-3.105zM8.873 9.563c2.051 0 4.102-.002 6.153 0 .001.605.004 1.211-.001 1.816-1.465.005-2.93 0-4.395.002-.07.747-.102 1.496-.172 2.242 1.393-.745 3.346-.566 4.41.666.966 1.154 1.075 2.898.41 4.224-.375.735-1.029 1.311-1.785 1.633-.907.395-1.927.44-2.896.309-.849-.118-1.697-.411-2.361-.969.356-.495.712-.99 1.071-1.484a3.782 3.782 0 0 0 2.363.709c.814.005 1.686-.423 1.98-1.22.281-.76.165-1.798-.579-2.252-.858-.48-2.029-.252-2.668.492-.618-.261-1.236-.52-1.854-.782l.324-5.387z"/>
</svg>
