<svg xmlns="http://www.w3.org/2000/svg" width="24" height="24">
    <path fill="#080808" d="M.966 2.4h22.048c.215.07.409.191.55.37-.257-.146-.533-.288-.837-.278H1.273c-.303-.01-.579.13-.835.277a1.19 1.19 0 0 1 .529-.368zM.435 21.23c.257.146.534.287.838.278h21.454c.304.009.58-.133.837-.278-.141.17-.323.296-.53.37H.986a1.139 1.139 0 0 1-.55-.37z"/>
    <path fill="#fff" d="M.438 2.768c.256-.146.532-.286.835-.277h21.454c.304-.01.58.132.837.278l.083.084c.01.13.082.246.2.304.015.086.029.17.042.256.034 5.742.036 11.487-.001 17.229l-.05.198a.384.384 0 0 0-.192.307 3.248 3.248 0 0 0-.083.083c-.257.146-.533.287-.837.278H1.272c-.304.009-.581-.133-.838-.278l-.083-.084a.368.368 0 0 0-.199-.305c-.015-.085-.03-.17-.043-.255C.076 14.844.075 9.099.111 3.357L.16 3.16a.386.386 0 0 0 .192-.307l.086-.086zm.632-.006c-.427.068-.746.484-.727.913-.002 5.55-.002 11.1 0 16.65-.029.506.426.958.931.932 7.15.004 14.302.004 21.452 0 .505.025.958-.426.93-.932.003-5.55.003-11.101 0-16.652.032-.542-.481-.991-1.011-.934-7.191.016-14.385-.029-21.574.023z"/>
    <path fill="#fff" d="M1.058 3.286a.764.764 0 0 1 .301-.043c7.121.004 14.242-.002 21.362.002.244-.028.46.19.433.434.003 5.548.003 11.095 0 16.643a.398.398 0 0 1-.433.433c-7.147.003-14.295.003-21.443 0a.4.4 0 0 1-.434-.433C.839 14.801.845 9.28.842 3.76c-.011-.181.034-.392.216-.474zm7.124 2.3c.292.502.945.452 1.422.64.479.278.222 1.074-.323 1.034-.388.084-.714-.117-.924-.428l-.009-.25a8.71 8.71 0 0 1-.323.011c.027.904 1.193 1.111 1.828.696.345-.228.38-.75.17-1.078-.367-.318-.873-.368-1.316-.519-.375-.105-.386-.721-.043-.874.438-.204 1.146-.066 1.153.521l.256-.009c.009-.531-.522-.926-1.034-.826-.579-.091-1.122.531-.856 1.082zm3.13-.92c-.416.262-.426.97.025 1.202.433.327 1.276.106 1.414.768.024.889-1.534.828-1.538-.033a28.26 28.26 0 0 0-.287-.04c-.047.914 1.119 1.133 1.76.758.43-.26.472-1.047-.016-1.268-.359-.185-.764-.243-1.14-.382-.278-.102-.274-.472-.178-.702.315-.336.882-.281 1.233-.024l.105.395.26-.012c-.002-.822-1.066-1.042-1.638-.661zm8.097-.056c-.918.534-.951 2.039-.148 2.684.514.29 1.3.291 1.675-.222a7.09 7.09 0 0 0 .14-.01c.002.129.006.257.012.385l.15-.056c.035-.475.005-.953.014-1.429-.406-.002-.81-.003-1.215.002l-.006.198c.328.026.658.018.986.025-.017.335-.114.71-.418.898-.454.362-1.162.171-1.441-.315a1.867 1.867 0 0 1 .087-1.684c.342-.437 1.051-.454 1.477-.132.146.174.19.487.483.45-.036-.873-1.134-1.08-1.798-.792zM2.507 4.547c-.009.953-.001 1.906-.005 2.86l.281.005c.002-.41.001-.82.002-1.23.44-.026.911.028 1.325-.15.567-.266.531-1.218-.07-1.422-.501-.123-1.022-.054-1.533-.063zM4.86 7.409l.296-.006c.101-.287.197-.576.267-.872.448-.015.896-.002 1.344-.012.125.289.217.59.314.888l.281.004c-.309-.946-.737-1.851-1.032-2.802l-.329-.083c-.418.946-.77 1.92-1.141 2.884zm9.183-2.801c.008.933.002 1.866.003 2.798l.29-.002c-.04-.962.078-1.94-.062-2.891l-.231.096zm1.435-.025c.015.942.003 1.883.006 2.825l.306-.003c.004-.826-.012-1.651.01-2.477a38.852 38.852 0 0 0 1.654 2.493l.337-.029c-.002-.932-.005-1.865.002-2.797l-.311-.032c-.01.811.009 1.623-.01 2.434-.479-.57-.842-1.234-1.27-1.845-.196-.242-.325-.758-.723-.569zm-9.016 5.651c.03.974-.057 1.954.046 2.922.578-.02 1.158.013 1.736-.016l.056-.216c-.49-.131-1.002-.038-1.502-.066-.018-.879.013-1.758-.016-2.638-.107.01-.214.014-.321.014zm3.523.032c-.338.979-.816 1.918-1.086 2.914.466-.049.401-.644.594-.962.445.017.894-.036 1.335.039.158.299.102.894.538.91-.251-.992-.736-1.912-1.041-2.891l-.341-.009zm2.222.004c.051.97-.102 1.973.08 2.922l.228-.138c0-.8-.012-1.6.007-2.4.554.851 1.085 1.724 1.697 2.534.101-.049.306-.068.286-.222.007-.894-.002-1.788.003-2.682a33.907 33.907 0 0 0-.304-.025c-.008.814.003 1.628-.006 2.442-.623-.756-1.11-1.622-1.661-2.434l-.33.005zm3.335-.005c.003.962-.014 1.926.01 2.888.642-.003 1.285-.002 1.928 0l.029-.238c-.562-.01-1.123-.002-1.685-.006-.005-.377-.003-.753-.002-1.13.514-.033 1.046.074 1.547-.078-.38-.334-1.016-.077-1.498-.147-.085-.342-.042-.697-.046-1.046.546-.002 1.093.001 1.638-.002l.014-.234c-.645-.018-1.29-.006-1.934-.007zM5.469 15.954c-.315.982-.834 1.895-1.07 2.902l.239-.036c.114-.286.221-.574.31-.868.439-.013.878-.007 1.318-.005.128.292.229.595.334.896l.282-.006c-.382-.962-.699-1.954-1.143-2.889l-.27.006zm2.25-.001c-.008.962-.006 1.923-.002 2.885l.254.004c.041-.454-.061-.947.052-1.378.51-.116 1.097-.016 1.637-.048.038.473-.058.96.061 1.424l.234.002c-.005-.954.019-1.91-.011-2.862l-.226-.057c-.078.413-.047.833-.05 1.25-.564-.002-1.129.014-1.693-.011.005-.403.006-.807-.004-1.21l-.25.001zm3.309-.001c-.022.962-.006 1.924-.009 2.886.655.006 1.31.005 1.965.001l.002-.231c-.558-.005-1.115-.001-1.672-.002-.002-.38-.002-.761 0-1.141.485-.001.969.001 1.454-.002l-.002-.227c-.482-.002-.965-.001-1.447-.001a32.145 32.145 0 0 1-.002-1.03c.54-.002 1.08.004 1.621-.003l-.009-.248c-.634-.005-1.267-.003-1.9-.002zm3.742.001c-.314.989-.859 1.906-1.071 2.922.398-.091.397-.618.565-.93.426-.004.851 0 1.277-.003.142.29.266.588.364.897l.254.002c-.318-.979-.728-1.928-1.098-2.89a28.23 28.23 0 0 1-.29.002zm2.221-.03c-.016.984-.011 1.969-.004 2.953.547.004 1.185.161 1.67-.151.538-.204.692-.846.671-1.364-.009-.48-.13-1.112-.663-1.266-.446-.381-1.13-.074-1.674-.172z"/>
    <path fill="#fff" d="M2.83 4.832c.294-.12.666-.03.984.006.489.038.536.832.118 1.01-.346.155-.734.092-1.102.108-.044-.366-.105-.774-.001-1.124zM6.098 4.856c.226.457.407.934.542 1.426-.35.006-.7.006-1.05 0 .102-.498.353-.945.507-1.426zM9.603 11.967c.158-.493.332-.98.555-1.448.154.49.356.963.524 1.449-.36-.041-.73.114-1.079-.001zM17.249 16.21c.447.002.91-.054 1.343.086.688.508.676 1.71-.018 2.208-.422.163-.886.09-1.326.095.002-.796.001-1.593.001-2.39zM14.907 16.239c.194.484.43.967.525 1.482-.342-.002-.684-.002-1.026-.002a8.439 8.439 0 0 1 .501-1.481zM5.622 16.234c.151.505.439.963.532 1.486-.344 0-.689-.001-1.034.002a6.758 6.758 0 0 1 .502-1.488z"/>
    <path fill="#060606" d="M1.07 2.762c7.19-.052 14.383-.007 21.574-.023.53-.057 1.043.393 1.011.934.003 5.551.003 11.102 0 16.652.028.506-.425.957-.93.932-7.15.004-14.302.004-21.452 0-.506.026-.96-.426-.931-.932-.002-5.55-.002-11.101 0-16.65-.019-.429.3-.845.727-.913zm-.012.524c-.182.082-.227.293-.216.474C.845 9.281.84 14.802.844 20.322a.399.399 0 0 0 .434.433c7.148.003 14.296.003 21.443 0 .244.028.46-.19.433-.433.003-5.548.003-11.095 0-16.643a.399.399 0 0 0-.433-.434c-7.121-.004-14.242.002-21.362-.002a.764.764 0 0 0-.301.043z"/>
    <path fill="#292929" opacity=".9" d="M.16 3.161a.29.29 0 0 1 .192-.307.386.386 0 0 1-.192.307z"/>
    <path fill="#282828" opacity=".89" d="M23.647 2.854a.309.309 0 0 1 .2.304.364.364 0 0 1-.2-.304zM.153 20.842c.118.059.19.174.199.305a.309.309 0 0 1-.199-.305z"/>
    <path fill="#060606" d="M0 3.415l.111-.058C.075 9.099.077 14.844.109 20.586l-.11.073V3.415zM23.89 3.414l.11-.072v17.242l-.111.058c.037-5.742.034-11.487.001-17.229z"/>
    <path fill="#080808" d="M8.182 5.586c-.266-.55.277-1.173.856-1.082.512-.1 1.042.294 1.034.826l-.256.009c-.007-.586-.715-.725-1.153-.521-.342.154-.332.77.043.874.443.151.949.202 1.316.519.21.328.175.85-.17 1.078-.635.415-1.801.208-1.828-.696.108-.002.215-.006.323-.011l.009.25c.21.311.536.512.924.428.546.039.802-.757.323-1.034-.477-.188-1.13-.138-1.422-.64zM11.312 4.666c.572-.382 1.636-.161 1.638.661l-.26.012c-.034-.132-.07-.264-.105-.395-.35-.257-.918-.312-1.233.024-.096.23-.101.601.178.702.376.139.781.198 1.14.382.488.221.446 1.008.016 1.268-.641.375-1.807.157-1.76-.758l.287.04c.004.861 1.562.922 1.538.033-.138-.662-.982-.441-1.414-.768-.45-.232-.441-.939-.025-1.202zM19.409 4.61c.664-.288 1.762-.081 1.798.792-.294.038-.337-.275-.483-.45-.426-.322-1.134-.305-1.477.132a1.867 1.867 0 0 0-.087 1.684c.279.486.987.678 1.441.315.304-.188.401-.562.418-.898-.329-.006-.658.001-.986-.025l.006-.198c.405-.005.81-.004 1.215-.002-.01.476.021.954-.014 1.429l-.15.056c-.006-.128-.01-.256-.012-.385a7.09 7.09 0 0 1-.14.01c-.375.514-1.162.513-1.675.222-.803-.645-.77-2.15.148-2.684zM15.478 4.583c.398-.189.527.327.723.569.427.611.79 1.275 1.27 1.845.019-.81 0-1.622.01-2.434l.311.032c-.006.932-.004 1.865-.002 2.797l-.337.029a38.028 38.028 0 0 1-1.654-2.493c-.022.826-.006 1.651-.01 2.477l-.306.003c-.003-.942.009-1.883-.006-2.825z"/>
    <path fill="#0b0b0b" d="M2.507 4.547c.51.01 1.032-.06 1.533.063.602.203.638 1.156.07 1.422-.414.178-.885.124-1.325.15-.002.41 0 .82-.002 1.23l-.281-.005c.004-.954-.004-1.907.005-2.86zm.323.285c-.104.35-.043.758.001 1.124.367-.016.755.047 1.102-.108.418-.178.37-.972-.118-1.01-.318-.035-.69-.126-.984-.006z"/>
    <path fill="#070707" d="M4.86 7.409c.371-.964.723-1.938 1.141-2.884l.329.083c.295.951.723 1.856 1.032 2.802l-.281-.004c-.097-.298-.189-.599-.314-.888-.448.01-.896-.003-1.344.012-.07.296-.166.585-.267.872l-.296.006zm1.238-2.553c-.154.482-.406.928-.507 1.426.35.006.7.006 1.05 0a7.946 7.946 0 0 0-.542-1.426zM9.985 10.266c.114.002.227.006.341.009.305.979.79 1.899 1.041 2.891-.437-.015-.38-.61-.538-.91-.442-.075-.89-.022-1.335-.039-.194.318-.129.914-.594.962.27-.996.748-1.934 1.086-2.914zm-.382 1.701c.349.115.719-.04 1.079.001-.168-.486-.37-.958-.524-1.449a11.37 11.37 0 0 0-.555 1.448zM14.77 15.953l.29-.002c.37.962.78 1.911 1.098 2.89l-.254-.002a6.58 6.58 0 0 0-.364-.897c-.426.003-.851-.001-1.277.003-.168.311-.167.838-.565.93.212-1.016.757-1.934 1.071-2.922zm.137.286a8.439 8.439 0 0 0-.501 1.481c.342 0 .684-.001 1.026.002-.094-.515-.33-.998-.525-1.482z"/>
    <path fill="#030303" d="M14.043 4.608l.231-.096c.14.951.022 1.929.062 2.891a28.23 28.23 0 0 1-.29.002c-.001-.932.005-1.865-.003-2.798zM6.462 10.234l.225.139c.03.855-.033 1.711.034 2.564a14.34 14.34 0 0 0 1.579-.014l-.056.216c-.578.029-1.158-.004-1.736.016-.103-.967-.017-1.948-.046-2.922z"/>
    <path fill="#737373" d="M6.462 10.234c.107.001.214-.004.321-.014.029.879-.002 1.758.016 2.638.5.028 1.012-.066 1.502.066-.526.04-1.053.031-1.579.014-.067-.853-.005-1.709-.034-2.564l-.225-.139z"/>
    <path fill="#090909" d="M12.207 10.27l.33-.005c.55.813 1.038 1.678 1.661 2.434.01-.814-.002-1.628.006-2.442l.304.025c-.005.894.004 1.788-.003 2.682.019.154-.186.174-.286.222-.612-.81-1.143-1.682-1.697-2.534-.019.8-.007 1.6-.007 2.4l-.228.138c-.182-.949-.029-1.951-.08-2.922zM5.469 15.954c.09-.002.179-.005.27-.006.444.934.762 1.927 1.143 2.889l-.282.006c-.105-.301-.206-.604-.334-.896-.44-.002-.879-.008-1.318.005-.089.294-.196.582-.31.868l-.239.036c.237-1.006.755-1.919 1.07-2.902zm.153.28a6.81 6.81 0 0 0-.502 1.488c.345-.002.69-.002 1.034-.002-.093-.523-.381-.982-.532-1.486z"/>
    <path fill="#0a0a0a" d="M15.542 10.265c.645.001 1.29-.01 1.934.007l-.014.234c-.546.003-1.092 0-1.638.002.003.349-.039.703.046 1.046.482.07 1.118-.187 1.498.147-.502.151-1.033.045-1.547.078-.001.377-.002.753.002 1.13.562.005 1.123-.004 1.685.006l-.029.238c-.643-.002-1.286-.003-1.928 0-.024-.962-.006-1.926-.01-2.888zM7.719 15.953l.25-.001c.01.403.009.807.004 1.21.564.026 1.129.009 1.693.011.003-.418-.028-.838.05-1.25l.226.057c.03.953.006 1.909.011 2.862l-.234-.002c-.118-.464-.023-.951-.061-1.424-.54.032-1.126-.068-1.637.048-.113.43-.011.923-.052 1.378l-.254-.004c-.005-.962-.006-1.923.002-2.885z"/>
    <path fill="#0f0f0f" d="M11.028 15.952c.633-.002 1.266-.003 1.9.002l.009.248c-.541.007-1.081.002-1.621.003-.004.344-.005.687.002 1.03.482 0 .965-.001 1.447.001l.002.227c-.485.002-.969.001-1.454.002-.002.38-.002.761 0 1.141.557.002 1.114-.002 1.672.002a17.79 17.79 0 0 0-.002.231c-.655.004-1.31.005-1.965-.001.003-.962-.013-1.925.009-2.886z"/>
    <path fill="#979797" d="M16.991 15.923c.543.098 1.227-.209 1.674.172a6.428 6.428 0 0 0-1.602-.116c-.043.938-.034 1.88-.006 2.819.534.029 1.07.003 1.6-.074-.485.312-1.122.155-1.67.151-.007-.984-.012-1.969.004-2.953z"/>
    <path fill="#010101" d="M17.062 15.979a6.425 6.425 0 0 1 1.602.116c.533.154.654.786.663 1.266.021.518-.134 1.16-.671 1.364a8.158 8.158 0 0 1-1.6.074 36.803 36.803 0 0 1 .006-2.819zm.187.231c0 .797.001 1.594-.001 2.39.441-.005.905.068 1.326-.095.694-.498.706-1.7.018-2.208-.433-.141-.896-.085-1.343-.086z"/>
    <path fill="#272727" opacity=".89" d="M23.647 21.147a.384.384 0 0 1 .192-.307.291.291 0 0 1-.192.307z"/>
</svg>
