<svg xmlns="http://www.w3.org/2000/svg" width="24" height="24">
    <path d="M2.006 0h19.983c.505.143.839.653.834 1.168.002 7.206 0 14.411.001 21.617.021.529-.312 1.065-.832 1.215H2.012c-.505-.143-.841-.653-.835-1.168V1.168C1.17.654 1.505.147 2.006 0zm.749 1.957c-.46.393-.484 1.193-.022 1.593.467.419 1.147.435 1.65.79.303.211.217.738-.131.853-.509.215-1.102-.09-1.303-.585-.239.088-.479.173-.716.266.312 1.103 1.816 1.465 2.682.791.562-.436.6-1.402.046-1.86-.447-.388-1.06-.458-1.568-.73-.246-.113-.283-.479-.052-.627.383-.22.965-.097 1.148.331.231-.075.462-.151.692-.231-.255-1.026-1.699-1.223-2.428-.592zm3.644-.31c-.004 1.419-.003 2.838-.001 4.258.258.003.516.001.773.001V4.313c.431-.011.865.023 1.294-.023.489-.06.936-.409 1.075-.888.239-.682-.142-1.554-.886-1.696-.743-.125-1.505-.033-2.256-.059zm4.074.005c-.006 1.417-.002 2.835-.001 4.252.974.003 1.948.002 2.922 0 0-.246.003-.491-.003-.737-.715-.007-1.43 0-2.144-.003V4.077l1.24-.001c0-.245.003-.49-.002-.735-.413-.007-.825 0-1.238-.004v-.948c.672-.002 1.343.001 2.015-.001 0-.245.003-.491-.002-.736-.929-.006-1.858-.004-2.786-.001zm3.922.002c-.007 1.417-.001 2.835-.003 4.252h2.92c.002-.246.003-.492-.001-.739-.713-.002-1.427.001-2.141-.001V4.079l1.236-.001c0-.246.002-.491-.001-.736-.412-.004-.824 0-1.235-.002v-.948c.671-.003 1.342.003 2.013-.003.005-.245.005-.491 0-.736-.93-.003-1.859-.006-2.788.001zm3.915-.003a603.22 603.22 0 0 0 0 4.254c.806-.041 1.684.146 2.422-.27.717-.402 1.008-1.287.939-2.07-.038-.687-.393-1.396-1.037-1.697-.726-.341-1.551-.18-2.324-.216zM4.233 6.567c-.002 1.416-.001 2.832 0 4.247.938.002 1.875.001 2.812 0v-.742c-.679-.002-1.358 0-2.037-.001-.002-1.168.001-2.336-.002-3.504a49.795 49.795 0 0 0-.773 0zm3.691-.007v4.255c.258.002.515.001.772 0V6.56a99.33 99.33 0 0 0-.772 0zm2.032 0c-.002 1.418-.002 2.836 0 4.254.258.002.516.001.773 0-.003-.853.011-1.707-.009-2.56.384.893.783 1.779 1.177 2.669.389-.892.81-1.77 1.171-2.674-.017.855-.005 1.711-.008 2.566h.77V6.56a92.256 92.256 0 0 0-.744 0c-.395.905-.81 1.802-1.184 2.716-.372-.914-.785-1.811-1.177-2.716h-.77zm5.137 0v4.255h.77V6.56a98.817 98.817 0 0 0-.77 0zm1.763-.003V7.3h1.192c.002 1.172-.001 2.343.001 3.515h.772c.001-1.171-.001-2.343.001-3.514.398-.002.795 0 1.193-.001v-.743a1662.16 1662.16 0 0 0-3.158 0zm-10.72 8.158c-1.008 1.029-1.619 2.421-1.752 3.851-.092.988-.005 2.033.479 2.918a2.935 2.935 0 0 0 1.575 1.377c1.24.44 2.765.199 3.684-.784 1.13-1.167 1.15-3.207.04-4.394-1.055-1.19-3.09-1.272-4.266-.224.45-1.727 1.975-3.042 3.686-3.446v-1.13c-1.294.255-2.527.878-3.446 1.831zm7.51-1.646c-.198 1.66-.39 3.321-.581 4.981.412.145.823.292 1.237.431.727-.776 1.984-1.033 2.946-.572 1.154.596 1.315 2.346.44 3.249-.585.642-1.517.825-2.349.705-.699-.067-1.342-.407-1.858-.875-.254.328-.511.652-.76.983.803.79 1.978 1.083 3.076 1.092 1.075.044 2.194-.345 2.921-1.158 1.128-1.219 1.153-3.315-.01-4.52-1.102-1.152-3.06-1.205-4.321-.285l.367-2.847c1.392-.003 2.784 0 4.176-.002 0-.394.001-.789-.001-1.183h-5.283z"/>
    <path d="M7.172 2.391c.413.014.831-.03 1.241.025.531.121.524.998 0 1.126-.409.056-.828.01-1.241.024-.002-.392-.001-.784 0-1.176zM19.082 2.391c.415.024.874-.084 1.248.15.411.265.555.79.547 1.254.002.461-.161.976-.578 1.224-.367.223-.811.125-1.216.146V2.39zM7.19 17.972c.699-.132 1.499.006 2.006.536.719.774.698 2.154-.101 2.866-.799.683-2.123.659-2.889-.064-.646-.614-.735-1.672-.312-2.434.265-.48.764-.802 1.296-.904z"/>
    <path fill="#fff" d="M2.755 1.957c.728-.631 2.172-.434 2.428.592-.23.079-.461.155-.692.231-.183-.428-.765-.551-1.148-.331-.231.148-.194.514.052.627.508.272 1.121.342 1.568.73.554.458.516 1.424-.046 1.86-.866.674-2.37.312-2.682-.791.237-.093.477-.179.716-.266.201.495.794.8 1.303.585.348-.115.435-.641.131-.853-.503-.354-1.182-.371-1.65-.79-.462-.4-.439-1.2.022-1.593zM6.399 1.647c.751.026 1.513-.067 2.256.059.744.142 1.125 1.014.886 1.696-.139.479-.585.828-1.075.888-.429.046-.863.012-1.294.023v1.593c-.258 0-.516.002-.773-.001-.002-1.419-.003-2.838.001-4.258zm.773.744v1.176c.413-.014.832.031 1.241-.024.523-.128.53-1.005 0-1.126-.41-.055-.828-.011-1.241-.025zM10.473 1.652c.929-.003 1.858-.005 2.786.001.005.246.002.491.002.736-.672.002-1.343 0-2.015.001v.948c.413.003.825-.003 1.238.004.005.245.002.49.002.735l-1.24.001v1.087c.714.003 1.429-.004 2.144.003.006.246.002.491.003.737-.974.001-1.948.002-2.922 0-.001-1.418-.004-2.835.001-4.253zM14.395 1.654c.93-.007 1.859-.004 2.788-.001.004.245.005.491 0 .736-.671.006-1.342 0-2.013.003v.948c.411.002.823-.001 1.235.002.003.245.001.491.001.736l-1.236.001v1.087c.713.002 1.427-.001 2.141.001.005.247.003.493.001.739-.974.002-1.947.001-2.92 0 .001-1.417-.004-2.835.003-4.252zM18.31 1.651c.773.037 1.598-.125 2.324.216.644.301.999 1.01 1.037 1.697.069.783-.222 1.668-.939 2.07-.738.416-1.616.229-2.422.27a670.243 670.243 0 0 1 0-4.254zm.772.74v2.775c.405-.021.849.077 1.216-.146.417-.247.581-.763.578-1.224.008-.464-.136-.989-.547-1.254-.374-.234-.833-.127-1.248-.15zM4.233 6.567c.258-.002.516-.002.773 0 .003 1.168 0 2.336.002 3.504.679.001 1.358-.001 2.037.001v.742H4.233c-.001-1.416-.002-2.832 0-4.247zM7.924 6.56h.772v4.255h-.772V6.56zM9.956 6.56h.77c.392.906.804 1.803 1.177 2.716.374-.914.789-1.811 1.184-2.716h.744v4.255h-.77c.003-.855-.01-1.711.008-2.566-.361.904-.782 1.782-1.171 2.674-.393-.889-.793-1.775-1.177-2.669.02.853.006 1.707.009 2.56-.258 0-.516.002-.773 0-.002-1.418-.002-2.836 0-4.254zM15.093 6.56h.77v4.255h-.77V6.56zM16.856 6.557h3.158V7.3c-.398.001-.795-.001-1.193.001-.002 1.171 0 2.343-.001 3.514h-.772c-.002-1.172.001-2.343-.001-3.515h-1.192a92.009 92.009 0 0 1 0-.743zM6.136 14.715c.919-.953 2.152-1.577 3.446-1.831v1.13c-1.711.404-3.235 1.718-3.686 3.446 1.176-1.049 3.211-.967 4.266.224 1.11 1.187 1.09 3.227-.04 4.394-.919.983-2.444 1.223-3.684.784a2.935 2.935 0 0 1-1.575-1.377c-.483-.885-.571-1.929-.479-2.918.134-1.431.744-2.822 1.752-3.851zm1.054 3.257c-.533.103-1.031.424-1.296.904-.423.762-.334 1.821.312 2.434.766.723 2.091.747 2.889.064.798-.712.82-2.092.101-2.866-.508-.531-1.307-.668-2.006-.536zM13.646 13.069h5.283c.002.394.001.789.001 1.183-1.392.002-2.784-.001-4.176.002l-.367 2.847c1.261-.92 3.218-.867 4.321.285 1.163 1.205 1.138 3.3.01 4.52-.727.813-1.846 1.201-2.921 1.158-1.098-.009-2.273-.301-3.076-1.092.249-.331.507-.656.76-.983.515.467 1.158.807 1.858.875.832.12 1.764-.063 2.349-.705.875-.903.714-2.653-.44-3.249-.962-.461-2.219-.203-2.946.572-.414-.139-.825-.285-1.237-.431.191-1.661.383-3.322.581-4.981z"/>
</svg>
