<svg xmlns="http://www.w3.org/2000/svg" width="24" height="24">
    <path fill="#ef2c30" d="M11.821 0h.352c2.31.083 4.612.743 6.521 2.068 2.712 1.85 4.596 4.867 5.099 8.11.803 4.807-1.741 9.965-6.025 12.278-2.401 1.308-5.231 1.789-7.927 1.306-2.69-.518-5.237-1.925-6.996-4.043-1.756-2.068-2.744-4.724-2.844-7.43v-.574c.108-1.89.506-3.791 1.468-5.442C3.447 2.504 7.573.038 11.823.001zM6.476 4.765c1.108 1.072 2.147 2.239 3.305 3.244.118.156.244.305.383.443.518.474.948 1.063 1.529 1.459 1.126 1.288 2.392 2.461 3.613 3.66l.208.274.101-.061.208.319c.252.275.517.538.78.802l.072-.037c.101.136.209.266.322.392.102.056.205.11.31.164.08.157.112.376.305.438.14.121.287.235.433.35.09.346.42.522.683.724l-.002.091.48.472c2.57-3.281 2.425-8.298-.314-11.431-1.427-1.61-3.412-2.789-5.562-3.061-2.41-.418-4.924.276-6.851 1.759zM5.292 18.032l.007.106c1.092 1.225 2.557 2.072 4.11 2.573 2.742.803 5.816.233 8.084-1.504-.352-.371-.721-.724-1.078-1.09l-.089.001-.166-.163a3.668 3.668 0 0 0-.388-.41l-.013-.065c-.088-.043-.262-.128-.349-.172l.109-.084c-.26-.268-.526-.53-.804-.78l-.385-.246.107-.055c-.239-.265-.503-.509-.82-.678-.34-.475-.784-.896-1.229-1.273-.254-.385-.592-.7-.922-1.016l-.096.056c-.103-.146-.2-.295-.301-.442-.881-.912-1.788-1.799-2.684-2.695-1.199-1.214-2.41-2.416-3.616-3.622-2.629 3.295-2.492 8.563.521 11.558z"/>
    <path fill="#fff" d="M6.476 4.765c1.927-1.483 4.441-2.177 6.851-1.759 2.15.272 4.135 1.451 5.562 3.061 2.74 3.133 2.885 8.15.314 11.431l-.48-.472.002-.091c.035-1.889.036-3.778.005-5.666-.976-.038-1.952-.02-2.928-.001-.031-.306.077-.665-.094-.936-.668-.577-.578-1.544-.845-2.321-1.694-.008-3.389 0-5.083-.002-1.158-1.004-2.197-2.172-3.305-3.244zM5.292 18.032c-3.013-2.995-3.15-8.263-.521-11.558 1.206 1.206 2.417 2.407 3.616 3.622-.334.313-.258.774-.266 1.186-.948-.008-1.896-.01-2.844-.005.011 2.252-.023 4.505.016 6.756z"/>
    <path fill="#fff" d="M10.164 8.452c1.432-.006 2.863-.005 4.295-.001.137.486.272.973.402 1.462-1.056-.002-2.112.004-3.168-.001-.581-.396-1.01-.985-1.529-1.459zM16.956 11.81a2.08 2.08 0 0 1 1.505-.389c-.013.282.04.584-.079.85-.527.23-.958-.3-1.426-.461zM15.782 12.436c.6-.514 1.29-.163 1.836.236-.408.229-.827.438-1.25.635.134.112.271.221.407.332-.143-.006-.284-.014-.426-.022-.104-.156-.211-.313-.364-.427l.186-.004c.079-.173-.198-.242-.324-.246l.138.25-.34-.028c.125.125.25.248.376.371-.137.082-.272.166-.407.25l-.101.061c-.053-.068-.156-.205-.208-.274.016-.258.058-.515.09-.772l.184.017-.121-.218.324-.162zM17.789 12.518l.533.013c-.037.143-.089.28-.235.344l.354.256c.008.251.013.502.012.752-.122.073-.245.143-.366.216a12.802 12.802 0 0 1-1.134-.588c.38-.168.748-.37 1.082-.617-.14-.084-.2-.228-.246-.377zM5.508 13.028c.529-.101.986.205 1.415.469-.248.152-.492.312-.732.478.049.02.148.062.197.084a1.75 1.75 0 0 0-.322.48 6.776 6.776 0 0 1-.566-.313l.302-.072c-.414-.251-.41-.707-.294-1.126zM10.954 13.478l.419-.246.096-.056c.33.317.667.631.922 1.016-.263.431-.673.193-.925-.101l.194-.097c-.236-.172-.472-.343-.706-.516zM6.39 14.351c.342-.191.666-.448 1.058-.521.366.136.684.372 1.044.522-.361.188-.704.419-1.091.553-.385-.071-.702-.329-1.012-.554zM9.39 14.358c.353-.166.666-.439 1.048-.529.39.076.71.332 1.05.523-.246.176-.497.348-.748.52l.25.028c-.217.174-.406.443-.714.432-.046-.091-.09-.184-.136-.276l.25-.095c-.292-.264-.653-.426-1-.602zM15.822 14.102c.608-.46 1.241-.103 1.789.254-.308.178-.62.348-.937.51l-.072.037c-.263-.264-.528-.527-.78-.802zM5.443 14.8c.212-.056.426-.11.641-.162.254.227.541.41.844.562-.228.152-.455.307-.68.463l.139.139c-.101.142-.203.283-.307.422-.74-.073-.638-.888-.636-1.424zm.349 1.046c.026.395.361-.187 0 0zM7.934 15.272c.28-.257.604-.469.967-.584.407.052.73.35 1.066.563-.347.166-.671.408-1.05.49-.343-.119-.656-.31-.983-.468zM10.934 15.235c.353-.191.672-.484 1.07-.566.354.119.691.318.943.595-.311.155-.61.335-.884.547l.241.08-.132.278c-.21.006-.386-.104-.547-.227a4.462 4.462 0 0 1-1.187.69c-.344-.144-.688-.305-.972-.552.299-.229.607-.464.973-.572.317.107.58.35.925.379-.1-.16-.24-.282-.392-.389l.228-.017-.266-.247zM16.996 15.259c.442-.266.914-.739 1.466-.485 0 .382.08.85-.341 1.04-.271-.133-.546-.257-.816-.391-.104-.054-.208-.108-.31-.164zM6.389 16.135c.299-.227.589-.481.946-.616.364.085.767.293 1.002.56-.202.269-.588.389-.883.56a49.102 49.102 0 0 0-1.064-.505zM12.505 16.086c.325-.283.715-.468 1.114-.62.317.169.581.413.82.678l-.107.055c-.338.175-.686.329-1.037.476.13.121.26.241.388.365a5.841 5.841 0 0 1-.77-.378c.048-.047.143-.14.19-.188l-.596-.388zM6.004 17.502c-.757.018-.785-1.14-.04-1.171.324.216.652.425.979.636-.331.143-.66.304-.94.535zM7.93 16.912c.314-.188.616-.414.967-.533.385.086.703.348 1.05.526-.419.194-.72.542-.866.978-.19-.064-.372-.145-.556-.224-.058-.068-.114-.137-.17-.205.044-.026.134-.079.18-.104l-.605-.437zm.874.63c.139.419.461-.257 0 0zM10.912 16.91c.359-.196.725-.378 1.096-.551.325.158.641.336.944.533-.262.307-.659.5-1.049.571-.344-.157-.658-.376-.991-.553zM14.717 16.445c.278.25.544.512.804.78l-.109.084c-.503.31-1-.149-1.459-.323.256-.179.511-.359.764-.541zM6.343 17.872a4.07 4.07 0 0 1 1.1-.671c.294.186.6.364.947.425l.062.244c-.69.199-1.416.145-2.11.002zM9.352 17.864a7.929 7.929 0 0 1 1.087-.678c.389.19.748.431 1.092.691a4.93 4.93 0 0 1-2.179-.013zM12.438 17.882c.31-.294.679-.514 1.072-.679.388.25.852.304 1.282.45-.51-.074.023.478 0 0 .132.018.264.034.396.048l-.07.185c-.894.011-1.793.235-2.68-.004zM5.299 18.138c3.676-.035 7.351.002 11.028-.019l.089-.001c.356.366.726.719 1.078 1.09-2.268 1.736-5.342 2.306-8.084 1.504-1.553-.5-3.018-1.348-4.11-2.573z"/>
    <path d="M9.781 8.009c1.694.002 3.389-.006 5.083.002.266.776.176 1.744.845 2.321.17.271.062.63.094.936-.002.389-.002.779-.02 1.168l-.324.162.121.218-.184-.017c-.032.257-.074.514-.09.772-1.222-1.199-2.488-2.372-3.613-3.66 1.056.005 2.112-.001 3.168.001-.13-.488-.265-.976-.402-1.462a614.903 614.903 0 0 0-4.295.001 4.138 4.138 0 0 1-.383-.443zM8.12 11.281c.008-.412-.067-.872.266-1.186.896.896 1.804 1.783 2.684 2.695-.466 0-.932.001-1.398-.006-.035.313-.067.626-.1.941l-.943-.001c.014-.528.02-1.132-.534-1.391.014-.307.019-.614.022-.922l.002-.131zM16.22 11.765c.184-.023.367-.047.552-.066-.136.024-.271.048-.407.07l-.124.163-.022-.167zM5.542 12.751c-.011-.12-.02-.239-.036-.358.048.409.485.364.751.2-.02.052-.044.102-.064.154-.217.002-.434.004-.652.004zM15.847 12.941c.126.004.403.073.324.246l-.186.004-.138-.25zM17.61 15.862l.34.167c.161-.049.322-.096.484-.142-.128.11-.256.222-.39.325-.146-.115-.293-.229-.433-.35zM7.268 16.819c.604-.55-.019.852 0 0zM15.774 17.545c.136.13.272.262.388.41-.228-.008-.456-.012-.682-.037l.371.001-.077-.374zM5.809 17.885c.076-.074.151-.148.228-.221l.035.275c-.18-.018-.361-.034-.539-.066l.276.012zM14.791 17.653c-.51-.074.023.478 0 0z"/>
    <path fill="#bfbfbf" d="M5.276 11.276c.948-.005 1.896-.004 2.844.005l-.002.131c-.887.193-1.805-.012-2.702-.01.022.33.041.662.09.991.016.119.025.238.036.358a4.36 4.36 0 0 1-.034.277c-.116.419-.12.875.294 1.126l-.302.072c.182.116.374.215.566.313l.018.098c-.215.052-.428.106-.641.162-.002.536-.104 1.351.636 1.424l-.115.107c-.745.031-.718 1.189.04 1.171l.034.162c-.077.073-.152.146-.228.221l-.276-.012c.178.032.359.048.539.066.091-.019.181-.044.271-.067.694.143 1.42.197 2.11-.002a17.382 17.382 0 0 1-.062-.244l.134.032c.184.079.366.161.556.224.091-.005.181-.011.271-.018a4.93 4.93 0 0 0 2.179.013c.302.008.605-.005.907.005.887.239 1.786.014 2.68.004.121.008.241.022.362.032.226.025.454.029.682.037l.166.163c-3.677.022-7.352-.016-11.028.019a3.536 3.536 0 0 1-.007-.106c-.038-2.251-.005-4.504-.016-6.756z"/>
    <path fill="#e4e4e4" d="M15.803 11.268c.976-.019 1.952-.037 2.928.001.031 1.889.03 3.778-.005 5.666-.263-.202-.593-.378-.683-.724.134-.103.262-.215.39-.325-.162.046-.323.092-.484.142a108.49 108.49 0 0 0-.34-.167c-.193-.062-.224-.281-.305-.438.27.134.545.258.816.391.421-.191.341-.659.341-1.04-.552-.254-1.025.218-1.466.485a5.727 5.727 0 0 1-.322-.392c.317-.162.629-.332.937-.51-.548-.358-1.181-.714-1.789-.254l-.208-.319c.134-.084.27-.168.407-.25a32.774 32.774 0 0 1-.376-.371l.34.028c.152.114.259.271.364.427.142.007.283.016.426.022l-.407-.332c.424-.197.842-.406 1.25-.635-.546-.4-1.236-.75-1.836-.236.018-.389.018-.779.02-1.168zm1.153.542c.468.161.899.691 1.426.461.119-.265.066-.568.079-.85a2.08 2.08 0 0 0-1.505.389zm-.736-.045l.022.167.124-.163c.136-.022.271-.046.407-.07-.185.019-.368.043-.552.066zm1.569.753c.046.149.106.293.246.377a5.705 5.705 0 0 1-1.082.617c.368.212.745.413 1.134.588.121-.073.244-.143.366-.216.001-.251-.004-.502-.012-.752l-.354-.256c.146-.065.198-.202.235-.344l-.533-.013z"/>
    <path fill="#f8f8f8" d="M5.416 11.402c.898-.002 1.816.203 2.702.01-.002.307-.007.614-.022.922.554.259.548.863.534 1.391l.943.001c.032-.314.065-.628.1-.941.466.007.932.006 1.398.006.101.146.198.295.301.442l-.419.246c.234.173.469.344.706.516l-.194.097c.252.294.662.532.925.101.445.377.889.798 1.229 1.273-.398.152-.788.337-1.114.62l.596.388c-.047.048-.142.142-.19.188.248.144.504.272.77.378-.127-.124-.258-.244-.388-.365.35-.148.698-.301 1.037-.476l.385.246c-.253.182-.509.362-.764.541.46.174.956.632 1.459.323.088.043.262.128.349.172l.013.065.077.374-.371-.001c-.121-.011-.241-.024-.362-.032l.07-.185c-.132-.014-.264-.03-.396-.048-.43-.146-.894-.2-1.282-.45a3.56 3.56 0 0 0-1.072.679c-.302-.01-.605.004-.907-.005a6.638 6.638 0 0 0-1.092-.691c-.383.192-.74.427-1.087.678-.09.007-.18.013-.271.018a1.63 1.63 0 0 1 .866-.978c-.347-.178-.665-.439-1.05-.526-.352.119-.653.344-.967.533l.605.437a7.718 7.718 0 0 0-.18.104l.17.205-.134-.032c-.347-.061-.653-.239-.947-.425a4.044 4.044 0 0 0-1.1.671c-.09.023-.18.048-.271.067l-.035-.275a9.332 9.332 0 0 0-.034-.162c.28-.232.608-.392.94-.535-.328-.211-.655-.42-.979-.636l.115-.107c.104-.139.206-.281.307-.422l-.139-.139c.226-.156.452-.311.68-.463a3.854 3.854 0 0 1-.844-.562l-.018-.098c.073-.181.194-.335.322-.48a8.31 8.31 0 0 0-.197-.084 16.7 16.7 0 0 1 .732-.478c-.428-.264-.886-.57-1.415-.469a6.54 6.54 0 0 0 .034-.277c.217 0 .434-.001.652-.004.019-.052.043-.102.064-.154-.266.163-.703.209-.751-.2-.049-.329-.068-.661-.09-.991zm.974 2.949c.31.226.626.484 1.012.554.386-.134.73-.365 1.091-.553-.36-.15-.678-.386-1.044-.522-.392.073-.716.33-1.058.521zm3 .007c.347.176.708.338 1 .602l-.25.095c.046.092.09.185.136.276.308.011.497-.258.714-.432l-.25-.028c.251-.172.502-.343.748-.52-.34-.191-.66-.448-1.05-.523-.382.09-.695.364-1.048.529zm-1.456.914c.326.158.64.349.983.468.379-.082.703-.324 1.05-.49-.336-.212-.659-.511-1.066-.563a2.615 2.615 0 0 0-.967.584zm3-.037l.266.247-.228.017c.152.107.293.229.392.389-.346-.029-.608-.272-.925-.379-.366.108-.674.343-.973.572.284.247.628.408.972.552a4.462 4.462 0 0 0 1.187-.69c.161.122.337.233.547.227l.132-.278-.241-.08c.275-.212.574-.392.884-.547a2.239 2.239 0 0 0-.943-.595c-.398.083-.718.376-1.07.566zm-4.545.9c.356.164.712.332 1.064.505.295-.172.682-.292.883-.56-.235-.268-.638-.475-1.002-.56-.356.134-.647.389-.946.616zm4.523.775c.334.178.647.396.991.553.39-.071.787-.264 1.049-.571a9.031 9.031 0 0 0-.944-.533c-.371.173-.737.355-1.096.551zm-3.644-.091c-.019.852.604-.55 0 0z"/>
    <path fill="#4f4f4f" d="M5.792 15.846c.361-.187.026.395 0 0z"/>
    <path fill="#5f5f5f" d="M8.804 17.542c.461-.257.139.419 0 0z"/>
</svg>
