<svg xmlns="http://www.w3.org/2000/svg" width="24" height="24">
    <path fill="#a3a5a7" d="M1.357 0h21.438l.183.094c-6.199.07-12.401.01-18.603.03C3.306.1 2.234.183 1.169.07L1.358 0z"/>
    <path fill="#2b2e34" d="M.031 1.321C.125.711.555.199 1.168.07 2.233.182 3.305.1 4.374.124c6.201-.02 12.404.04 18.603-.03.44.198.804.543 1.023.972v22.141a1.748 1.748 0 0 1-.815.792H.919a1.733 1.733 0 0 1-.839-.924C.005 15.824.104 8.57.031 1.32zm10.515-.144c-3.522.459-6.721 2.768-8.304 5.943C.877 9.772.685 12.995 1.71 15.795c1.306 3.702 4.73 6.549 8.615 7.136 3.961.675 8.185-1.065 10.551-4.305 2.633-3.435 2.901-8.455.642-12.149-2.161-3.753-6.684-5.955-10.973-5.3z"/>
    <path fill="#2b2e34" d="M11.469 8.201c.522-1.656 2.384-2.697 4.074-2.351 1.475.27 2.771 1.529 2.9 3.052.109.906-.3 1.781-.888 2.45.97.773 1.537 2.035 1.325 3.276-.261 2.109-2.393 3.775-4.506 3.462-1.857-.214-3.444-1.854-3.555-3.727-.129-1.161.486-2.271 1.344-3.014-.753-.844-1.07-2.065-.694-3.149zm2.817-.41c-.668.181-1.248.885-1.059 1.596.468 1.426 2.993 1.369 3.301-.134.102-1.141-1.269-1.812-2.243-1.462zm.006 4.639c-.843.169-1.625.916-1.556 1.822.036 1.184 1.235 2.109 2.388 1.938 1.154-.085 2.161-1.26 1.859-2.421-.32-1.094-1.647-1.602-2.69-1.339zM5.176 6.779c.614-.038 1.152-.351 1.561-.796l1.465.005c.003 3.981 0 7.962.001 11.944a206.94 206.94 0 0 0-1.93 0c-.001-3.228.001-6.454-.001-9.68-.364-.001-.729-.003-1.094-.003.001-.49.001-.98-.003-1.47z"/>
    <path fill="#fff" d="M10.546 1.177c4.289-.655 8.811 1.548 10.973 5.3 2.259 3.694 1.99 8.714-.642 12.149-2.366 3.24-6.59 4.98-10.551 4.305-3.885-.588-7.309-3.434-8.615-7.136-1.025-2.8-.833-6.022.532-8.675 1.583-3.175 4.781-5.484 8.304-5.943zm.923 7.024c-.376 1.084-.059 2.305.694 3.149-.858.742-1.473 1.852-1.344 3.014.111 1.874 1.698 3.514 3.555 3.727 2.114.312 4.245-1.354 4.506-3.462.213-1.241-.355-2.504-1.325-3.276.588-.669.996-1.544.888-2.45-.129-1.524-1.425-2.783-2.9-3.053-1.69-.346-3.551.695-4.074 2.351zM5.176 6.779c.004.49.004.98.003 1.47.365 0 .73.001 1.094.003.003 3.226 0 6.453.001 9.68a206.94 206.94 0 0 1 1.93 0c-.001-3.981.001-7.962-.001-11.944a357.71 357.71 0 0 0-1.465-.005c-.409.445-.948.759-1.561.796zM0 1.145l.031.176C.103 8.571.005 15.825.08 23.076L0 22.899V1.145z"/>
    <path fill="#fff" d="M14.286 7.791c.974-.35 2.345.321 2.243 1.462-.309 1.503-2.834 1.56-3.301.134-.189-.711.391-1.415 1.059-1.596zM14.292 12.43c1.043-.264 2.37.245 2.69 1.339.303 1.161-.705 2.336-1.859 2.421-1.152.171-2.351-.754-2.388-1.938-.069-.906.714-1.654 1.556-1.822z"/>
</svg>
