<svg xmlns="http://www.w3.org/2000/svg" width="24" height="24">
    <path d="M10.989 0h2.012c1.731.18 3.442.671 4.95 1.552 2.714 1.536 4.783 4.168 5.621 7.173.22.739.323 1.504.428 2.265v2.009c-.181 1.731-.672 3.442-1.553 4.951-1.541 2.724-4.188 4.8-7.207 5.632-.727.215-1.481.315-2.229.418h-2.01c-1.721-.178-3.417-.669-4.922-1.533-2.692-1.52-4.76-4.11-5.62-7.082C.221 14.612.107 13.81 0 13.011v-2.013c.1-.765.208-1.532.427-2.274a12.048 12.048 0 0 1 5.13-6.874C7.18.794 9.071.199 10.989 0zM8.096.878c-1.2.422-2.33 1.042-3.332 1.825C2.433 4.504.819 7.21.365 10.124c-.546 3.291.394 6.791 2.531 9.354.695-.823 1.391-1.646 2.077-2.477.481-.561.955-1.129 1.426-1.697.694-.818 1.384-1.641 2.069-2.466h.003c.439-.525.885-1.045 1.317-1.575 1.037-1.221 2.06-2.454 3.093-3.679.051-.065.107-.127.136-.206.339-.311.603-.701.911-1.045.111-.147.266-.267.331-.444.115-.076.199-.19.289-.292 1.076-1.289 2.162-2.57 3.234-3.861C14.879.067 11.247-.238 8.094.879zm10.849 6.219c-.45.528-.897 1.06-1.339 1.595-1.048 1.238-2.086 2.485-3.131 3.726-.022.035-.066.064-.063.11-.612.655-1.172 1.376-1.755 2.063-.432.519-.894 1.025-1.294 1.564a84.317 84.317 0 0 0-2.469 2.939c-.912 1.032-1.785 2.112-2.675 3.168 2.67 1.541 5.966 1.92 8.931 1.095a11.72 11.72 0 0 0 4.136-2.1c2.314-1.81 3.91-4.515 4.353-7.421.532-3.278-.409-6.76-2.536-9.312-.724.855-1.444 1.713-2.16 2.574z"/>
    <path fill="#fff" d="M8.096.878c3.152-1.117 6.785-.812 9.688.857-1.072 1.291-2.159 2.572-3.234 3.861-.09.103-.174.216-.289.292a3.055 3.055 0 0 0-1.242 1.489c-.029.078-.086.141-.136.206-1.034 1.224-2.056 2.458-3.093 3.679a2.595 2.595 0 0 0-2.029-.131c.812-1.911 1.648-3.811 2.457-5.723-.647-.001-1.295-.012-1.941.005-1.034 2.35-2.04 4.713-3.063 7.067-.662 1.395-.77 3.065-.24 4.519-.686.831-1.381 1.654-2.077 2.477C.759 16.913-.18 13.413.366 10.122.82 7.209 2.434 4.503 4.765 2.701A11.762 11.762 0 0 1 8.097.876zM18.945 7.097c.715-.861 1.435-1.719 2.16-2.574 2.127 2.552 3.068 6.034 2.536 9.312-.443 2.906-2.039 5.611-4.353 7.421a11.729 11.729 0 0 1-4.136 2.1c-2.965.825-6.261.446-8.931-1.095.89-1.056 1.763-2.136 2.675-3.168.583-.167 1.105-.508 1.539-.926.536-.535.819-1.275.93-2.013.399-.54.862-1.045 1.294-1.564-.006.959.007 1.969.478 2.834.309.586.808 1.06 1.379 1.388.921.525 2.114.53 3.038.008.603-.343 1.127-.848 1.436-1.475.325-.652.431-1.39.43-2.112V9.28c.001-.75-.12-1.516-.473-2.184z"/>
    <path fill="#fff" d="M17.606 8.692c.032.242.067.485.063.73v5.719c-.004.542-.103 1.122-.47 1.543-.546.662-1.676.688-2.259.063-.397-.411-.517-1.004-.52-1.557-.007-.888.008-1.776-.007-2.663-.003-.046.042-.075.063-.11 1.045-1.241 2.083-2.488 3.131-3.726zM6.911 13.286c.382-.433 1.005-.58 1.557-.448-.685.825-1.375 1.647-2.069 2.466-.024-.695.023-1.475.512-2.018z"/>
    <path fill="gray" d="M8.276 5.414c.646-.017 1.294-.007 1.941-.005-.809 1.912-1.645 3.812-2.457 5.723a2.595 2.595 0 0 1 2.029.131c-.433.53-.878 1.05-1.317 1.575h-.003c-.551-.132-1.175.015-1.557.448-.489.543-.537 1.323-.512 2.018-.471.569-.945 1.137-1.426 1.697-.53-1.455-.422-3.124.24-4.519 1.023-2.355 2.029-4.717 3.063-7.067zM13.018 7.378a3.055 3.055 0 0 1 1.242-1.489c-.065.177-.22.297-.331.444-.308.344-.571.734-.911 1.045zM17.606 8.692c.442-.535.889-1.067 1.339-1.595.354.668.474 1.435.473 2.184v5.953c.001.722-.105 1.46-.43 2.112-.308.627-.833 1.132-1.436 1.475a3.135 3.135 0 0 1-3.038-.008c-.571-.328-1.07-.802-1.379-1.388-.471-.865-.484-1.875-.478-2.834.583-.687 1.143-1.409 1.755-2.063.015.887 0 1.776.007 2.663.004.553.124 1.146.52 1.557.583.624 1.714.599 2.259-.063.367-.421.466-1.001.47-1.543V9.423c.004-.245-.031-.488-.063-.73zM8.895 19.094a86.593 86.593 0 0 1 2.469-2.939c-.111.738-.394 1.478-.93 2.013-.435.418-.956.759-1.539.926z"/>
</svg>
