<svg xmlns="http://www.w3.org/2000/svg" width="24" height="24">
    <path fill="#c50000" d="M11.131 0h1.693c2.342.239 4.656 1.026 6.515 2.498C21.986 4.49 23.631 7.629 24 10.9v2.153c-.396 4.084-2.924 7.915-6.644 9.702-1.326.685-2.79 1.031-4.259 1.244h-2.154c-1.391-.203-2.783-.509-4.051-1.135C2.997 21.099.348 17.108 0 12.873V11.18c.196-1.584.552-3.166 1.295-4.59C3.121 2.854 7.011.343 11.131 0zm-.043 2.338a9.731 9.731 0 0 0-6.628 3.56c-2.54 3.049-2.875 7.692-.799 11.074 1.793 3.085 5.389 4.993 8.95 4.732 3.672-.18 7.085-2.665 8.418-6.084 1.134-2.797.864-6.118-.733-8.681-1.865-3.124-5.591-4.978-9.208-4.601z"/>
    <path fill="#fff" d="M11.088 2.338c3.617-.377 7.343 1.477 9.208 4.601 1.597 2.563 1.867 5.884.733 8.681-1.333 3.419-4.746 5.904-8.418 6.084-3.56.262-7.157-1.646-8.95-4.732C1.585 13.59 1.92 8.948 4.46 5.898a9.731 9.731 0 0 1 6.628-3.56zM9.959 6.577c-1.367.838-2.699 1.732-4.051 2.592 1.328.848 2.646 1.715 3.978 2.558.258.228.685.006.68-.328-.085-.408-.283-.782-.416-1.176 2.092-.013 4.056 1.577 4.427 3.643.179 1.2.053 2.42.091 3.629h2.117c-.028-1.237.07-2.483-.077-3.714-.403-3.169-3.364-5.726-6.558-5.67.128-.353.286-.695.392-1.055.126-.322-.294-.679-.583-.48z"/>
    <path d="M9.959 6.577c.289-.199.709.158.583.48-.107.36-.264.702-.392 1.055 3.194-.056 6.155 2.501 6.558 5.67.146 1.231.049 2.477.077 3.714h-2.117c-.038-1.208.088-2.429-.091-3.629-.371-2.066-2.335-3.656-4.427-3.643.133.394.331.768.416 1.176.005.334-.422.556-.68.328-1.332-.844-2.65-1.71-3.978-2.558 1.352-.86 2.684-1.754 4.051-2.592z"/>
</svg>
