<svg xmlns="http://www.w3.org/2000/svg" width="24" height="24">
    <path fill="#fff" d="M2.5 0h.814A1.011 1.011 0 0 0 2.5.751V0zM20.533 0h.824v.825A1.006 1.006 0 0 0 20.533 0zM3.368.572c.138-.023.279-.014.418-.015C9.301.558 14.817.556 20.333.558c.244-.027.482.172.466.424.003 7.331.001 14.662.001 21.994a.413.413 0 0 1-.425.455c-5.631.004-11.261.001-16.891.001-.231.018-.451-.18-.436-.415V.984a.398.398 0 0 1 .321-.412zm1.05 2.973c-.178.334-.117.795.186 1.038.382.329.949.249 1.35.539.224.19.081.556-.171.645-.469.219-1.007-.018-1.293-.416-.15.096-.298.198-.445.299.468.645 1.431.962 2.136.515.529-.315.593-1.167.091-1.534-.393-.222-.864-.249-1.268-.448-.217-.102-.171-.447.045-.523.396-.175.842.01 1.13.3.138-.116.276-.231.412-.349-.336-.372-.842-.615-1.35-.564-.33.024-.667.196-.821.499zm6.526-.481c-.002 1.089-.001 2.179 0 3.268h2.388v-.545c-.603-.003-1.207.001-1.811-.002v-.93c.321-.002.642 0 .963-.001v-.557c-.321-.003-.643.006-.964-.005.002-.227 0-.453.001-.68.589-.002 1.178.001 1.767-.001v-.546h-2.345zm-3.451.001v3.278h.568c.001-.432-.001-.863.001-1.295.533-.042 1.13.123 1.602-.198.481-.317.546-1.08.141-1.483-.217-.219-.534-.3-.835-.3-.492-.005-.984-.001-1.476-.002zm6.482 0v3.277h2.389v-.555c-.603-.003-1.207.001-1.811-.002v-.931c.321-.001.642.001.963-.001v-.556c-.321-.001-.642.001-.963-.001v-.674c.589-.001 1.178.001 1.767-.001v-.556h-2.346zm3.043 0v3.277c.656-.018 1.398.107 1.954-.327.804-.603.812-1.966.043-2.601-.555-.474-1.327-.322-1.997-.349zM5.939 7.983v3.267h2.377c.002-.182.002-.364 0-.546-.603-.002-1.206 0-1.809-.001-.002-.907 0-1.814-.001-2.721a53.77 53.77 0 0 0-.568 0zm2.969-.001c-.002 1.089-.001 2.178 0 3.267h.567V7.982a53.582 53.582 0 0 0-.567 0zm1.436 0c-.001 1.089-.002 2.179 0 3.268h.555c.003-.663 0-1.327.001-1.99.3.65.594 1.302.895 1.951.318-.652.625-1.309.946-1.96.004.666-.001 1.333.002 1.999h.555c-.002-1.089.021-2.178.011-3.267-.195-.001-.39-.001-.585.001-.305.646-.612 1.292-.919 1.937-.306-.645-.61-1.293-.916-1.938a49.686 49.686 0 0 0-.546 0zm3.835 0c-.002 1.089-.001 2.178 0 3.267h.567V7.982a53.582 53.582 0 0 0-.567 0zm1.2.001c0 .178-.001.356 0 .534.296.002.592-.001.888.001.002.91-.001 1.821.001 2.731h.578c.002-.911-.001-1.821.001-2.731.3-.002.599 0 .899-.001v-.535h-2.367zm-10.341 6.24c.333.316.674.623 1.007.938.609-.555 1.437-.903 2.269-.744.357.062.728.205.949.506.247.322.161.873-.218 1.056-.359.189-.777.107-1.166.126v1.413c.56-.015 1.198.002 1.62.425.333.315.392.861.144 1.243-.251.394-.705.604-1.148.696-.642.126-1.338.066-1.913-.26-.31-.167-.57-.406-.823-.647l-1.081.885c1.116 1.295 3.036 1.853 4.649 1.239.768-.285 1.455-.876 1.718-1.668.337-.95-.07-2.059-.902-2.611.544-.596.802-1.474.498-2.245-.264-.732-.947-1.244-1.678-1.452-1.388-.416-2.9.135-3.925 1.1zm8.261-1.044c-.095 1.318-.193 2.636-.282 3.954.424.132.843.282 1.27.4.596-.205 1.2-.453 1.842-.446.474-.015.96.18 1.269.544.38.441.451 1.118.162 1.625-.269.487-.813.766-1.353.821-.989.079-1.95-.257-2.846-.638-.221.42-.445.838-.664 1.259 1.001.439 2.071.789 3.177.773.794.011 1.607-.223 2.223-.736.6-.486.97-1.238.995-2.009.078-1.257-.774-2.499-1.984-2.859-.861-.254-1.789-.098-2.625.179.027-.503.048-1.005.077-1.508h3.915c.017-.453.025-.906.024-1.359h-5.197z"/>
    <path fill="#fff" d="M8.062 3.633c.333 0 .666-.004.998.001.234 0 .487.18.467.435-.004.243-.243.404-.469.407-.332.006-.664.001-.996.001v-.845zM17.576 3.633c.433-.014.958-.028 1.248.356.309.435.335 1.125-.058 1.518-.32.296-.785.276-1.19.267a763.98 763.98 0 0 1 0-2.141zM20.82 23.895c.286-.132.471-.417.537-.719V24H2.5v-.777a.97.97 0 0 0 .942.766h16.629c.251-.001.518.025.749-.095z"/>
    <path fill="#231f20" d="M3.314 0h17.219c.417.065.757.408.824.825v22.351c-.066.302-.251.587-.537.719-.231.12-.498.094-.749.095H3.442a.97.97 0 0 1-.942-.766V.751c.092-.386.423-.688.814-.751zm.054.572a.396.396 0 0 0-.321.412v22.033c-.015.236.205.434.436.415 5.63 0 11.261.003 16.891-.001a.413.413 0 0 0 .425-.455c0-7.332.002-14.663-.001-21.994.016-.252-.222-.451-.466-.424C14.816.556 9.301.558 3.785.557c-.139.001-.28-.008-.418.015z"/>
    <path fill="#231f20" d="M4.418 3.545c.154-.303.491-.476.821-.499.508-.051 1.014.192 1.35.564-.136.118-.274.234-.412.349-.288-.29-.734-.475-1.13-.3-.216.077-.262.421-.045.523.404.199.875.225 1.268.448.501.368.438 1.219-.091 1.534-.704.447-1.667.13-2.136-.515.147-.101.295-.202.445-.299.287.398.824.635 1.293.416.251-.089.395-.454.171-.645-.401-.29-.967-.21-1.35-.539-.303-.243-.363-.704-.186-1.038zM10.944 3.064h2.345v.546c-.589.002-1.178-.001-1.767.001l-.001.68c.321.011.643.002.964.005v.557c-.321.002-.642-.001-.963.001v.93c.604.003 1.207-.001 1.811.002v.545h-2.388c-.001-1.089-.002-2.178 0-3.268zM7.493 3.065c.492 0 .984-.003 1.476.002.301 0 .618.081.835.3.405.403.341 1.166-.141 1.483-.473.32-1.07.156-1.602.198-.002.432 0 .863-.001 1.295a53.77 53.77 0 0 1-.568 0V3.065zm.569.568v.845c.332 0 .664.005.996-.001.226-.003.465-.164.469-.407.02-.255-.233-.435-.467-.435-.333-.006-.666-.001-.998-.001zM13.975 3.065h2.346v.556c-.589.002-1.178 0-1.767.001v.674c.321.002.642 0 .963.001v.556c-.321.002-.642 0-.963.001v.931c.604.003 1.207-.001 1.811.002v.555c-.796.002-1.593.001-2.389 0V3.065zM17.018 3.065c.67.027 1.442-.125 1.997.349.769.634.761 1.998-.043 2.601-.557.435-1.299.31-1.954.327V3.065zm.558.568a763.98 763.98 0 0 0 0 2.141c.405.008.87.029 1.19-.267.393-.393.367-1.082.058-1.518-.291-.384-.816-.37-1.248-.356zM5.939 7.983h.568c.001.907-.001 1.814.001 2.721.603.001 1.206-.001 1.809.001v.546H5.94V7.984zM8.908 7.982h.567v3.267c-.189.002-.378.002-.567 0V7.982zM10.344 7.982h.546c.306.645.61 1.293.916 1.938.308-.645.615-1.291.919-1.937.195-.002.39-.002.585-.001.009 1.089-.013 2.178-.011 3.267h-.555c-.003-.666.002-1.333-.002-1.999-.321.651-.628 1.308-.946 1.96-.301-.649-.596-1.301-.895-1.951-.002.663.001 1.327-.001 1.99h-.555c-.002-1.089-.001-2.178 0-3.268zM14.179 7.982h.567v3.267c-.189.002-.378.002-.567 0V7.982zM15.379 7.983c.789-.002 1.578-.001 2.367 0v.535c-.3.002-.599-.001-.899.001-.002.91.001 1.821-.001 2.731h-.578c-.002-.911.001-1.821-.001-2.731-.296-.002-.592.001-.888-.001a47.526 47.526 0 0 1 0-.534zM5.038 14.223c1.026-.965 2.538-1.516 3.925-1.1.732.208 1.414.72 1.678 1.452.305.771.046 1.649-.498 2.245.831.552 1.239 1.661.902 2.611-.263.792-.949 1.383-1.718 1.668-1.613.613-3.534.056-4.649-1.239l1.081-.885c.252.241.513.48.823.647.575.327 1.272.386 1.913.26.444-.093.897-.302 1.148-.696a1.002 1.002 0 0 0-.144-1.243c-.422-.423-1.061-.441-1.62-.425-.002-.471-.001-.942 0-1.413.389-.019.807.063 1.166-.126.379-.183.465-.733.218-1.056-.222-.301-.592-.444-.949-.506-.832-.159-1.66.189-2.269.744-.333-.315-.675-.622-1.007-.938zM13.299 13.179h5.197c.001.453-.007.906-.024 1.359h-3.915c-.029.503-.049 1.005-.077 1.508.836-.277 1.764-.433 2.625-.179 1.209.36 2.061 1.602 1.984 2.859a2.734 2.734 0 0 1-.995 2.009c-.616.513-1.429.747-2.223.736-1.105.016-2.176-.334-3.177-.773.219-.421.443-.84.664-1.259.897.381 1.857.717 2.846.638.541-.054 1.084-.334 1.353-.821a1.448 1.448 0 0 0-.162-1.625 1.607 1.607 0 0 0-1.269-.544c-.642-.007-1.246.24-1.842.446-.427-.118-.846-.269-1.27-.4.09-1.318.187-2.636.282-3.954z"/>
</svg>
