<svg xmlns="http://www.w3.org/2000/svg" width="24" height="24">
    <path fill="#ea1c03" d="M10.653 0h2.672c4.265.528 8.176 3.382 9.787 7.392.451 1.04.669 2.156.889 3.26v2.673c-.529 4.265-3.382 8.174-7.392 9.785-1.04.451-2.156.669-3.26.889h-2.673c-4.265-.528-8.174-3.382-9.785-7.394-.451-1.038-.669-2.154-.889-3.259v-2.672c.213-1.113.435-2.237.889-3.283C2.499 3.386 6.399.539 10.654-.001zM6.208 4.79C7.95 6.298 9.5 8.014 11.166 9.606l.13-.036c-.61.295-.721 1.177-.236 1.635.444.455 1.214.357 1.605-.117 2.319 2.172 4.512 4.475 6.801 6.68.836-1.119 1.46-2.4 1.761-3.768.8-3.555-.723-7.6-3.859-9.535-3.282-2.316-8.011-2.156-11.16.325zM4.446 6.506c-3.009 3.857-2.209 10.131 1.9 12.883 3.227 2.493 8.06 2.508 11.303.04-1.239-.99-2.273-2.203-3.432-3.28.058-.416.113-.834.162-1.252a70.795 70.795 0 0 1-1.666-.207c-2.717-2.767-5.545-5.423-8.267-8.185z"/>
    <path fill="#fff" d="M6.208 4.79c3.149-2.481 7.878-2.641 11.16-.325 3.136 1.934 4.658 5.98 3.859 9.535-.301 1.368-.925 2.649-1.761 3.768-2.289-2.205-4.482-4.508-6.801-6.68.383-.613-.003-1.235-.374-1.735.828.438 1.479 1.113 1.966 1.906l.431.029a39.53 39.53 0 0 1-.474-.324c.087-.129.176-.256.266-.382l1.988-.001c.059-1.015 1.19-1.653 2.052-1.05-.241-.846.364-1.593 1.193-1.706l-.004-.755c-.778.02-1.561-.058-2.335.046-.581.156-.687.834-.795 1.336a2.7 2.7 0 0 0-1.499 1.764h-.758c.28-.645.36-1.47 1.041-1.838l-.338-.134a11.89 11.89 0 0 1-.548.166c.022.12.045.239.069.357-.685-.036-1.375.03-2.059-.046-.412-.402.307-.643.574-.839-.671-.085-1.144.533-.691 1.092l-.202.46c-.292.026-.587.049-.87.136l-.13.036C9.502 8.014 7.953 6.298 6.21 4.79zm11.036 4.784c-.64.286-.76 1.281-.185 1.694.564.505 1.574.16 1.689-.594.204-.818-.785-1.521-1.504-1.1zM4.446 6.506c2.722 2.761 5.55 5.417 8.267 8.185-.921-.114-1.84-.246-2.761-.354-.084.639-.173 1.278-.256 1.917-.189-.013-.38-.026-.57-.042.15-1.259-1.186-1.817-2.101-2.307a17.489 17.489 0 0 1-.24-.567c-.286.088-.557.22-.815.372l.364.638.541.003c-.121.8-.664 1.389-1.459 1.556.672.067 1.345.132 2.013.239.069.431.171.856.282 1.278-.184.126-.367.252-.552.376.298-.035.59-.101.886-.134a43.29 43.29 0 0 1-.127-1.437l.549.027c.23.408.568.732.941 1.008-.111.158-.221.314-.331.473.266-.155.528-.317.788-.48-.295-.296-.591-.59-.883-.888.69.043 1.373.147 2.057.243.113.961 1.342 1.129 1.684.218.457.058.912.123 1.369.187.036-.289.087-.575.124-.865 1.16 1.077 2.193 2.29 3.432 3.28-3.243 2.468-8.076 2.452-11.303-.04-4.109-2.753-4.908-9.026-1.9-12.883z"/>
    <path fill="#030303" d="M16.577 8.452c.108-.502.214-1.18.795-1.336.773-.104 1.557-.026 2.335-.046l.004.755c-.828.113-1.434.86-1.193 1.706-.862-.603-1.992.035-2.052 1.05l-1.988.001c-.09.126-.179.253-.266.382.158.108.315.217.474.324l-.431-.029c-.487-.792-1.138-1.467-1.966-1.906.372.5.758 1.122.374 1.735-.39.474-1.161.573-1.605.117-.486-.458-.374-1.34.236-1.635.283-.087.578-.11.87-.136l.202-.46c-.453-.558.02-1.177.691-1.092-.267.195-.986.437-.574.839.684.077 1.373.01 2.059.046a10.705 10.705 0 0 1-.069-.357c.184-.051.366-.107.548-.166l.338.134c-.681.367-.76 1.193-1.041 1.838h.758a2.7 2.7 0 0 1 1.499-1.764zm-4.178.638c.474.457.999.86 1.561 1.2a.787.787 0 0 0-.429-.487c.13-.02.257-.048.382-.091l.214.474.473-1.243c-.732.043-1.499-.124-2.2.147zm-1.058.685c-.286.344-.5.896-.098 1.246.364.395.908.173 1.272-.093a1.295 1.295 0 0 0-.267-1.162c-.098.223-.195.445-.283.671a3.76 3.76 0 0 1-.168-.166c.085-.185.171-.37.253-.558-.237.016-.473.043-.708.062z"/>
    <path fill="#030303" d="M17.244 9.574c.719-.421 1.707.282 1.504 1.1-.114.755-1.125 1.099-1.689.594-.575-.413-.455-1.408.185-1.694zm.296.156c-.512.111-.797.797-.432 1.206.37.564 1.376.298 1.385-.387.084-.52-.463-.953-.953-.818z"/>
    <path fill="#030303" d="M17.62 10.369c.577-.127-.129.577 0 0zM5.97 13.709c.259-.152.529-.283.815-.372.077.189.156.379.24.567.915.49 2.251 1.048 2.101 2.307.189.016.38.029.57.042.082-.639.172-1.278.256-1.917.921.108 1.84.24 2.761.354.554.074 1.109.146 1.666.207-.049.418-.104.836-.162 1.252-.038.289-.088.575-.124.865-.457-.064-.912-.129-1.369-.187-.343.911-1.572.743-1.684-.218-.684-.095-1.368-.2-2.057-.243.292.298.588.591.883.888-.26.163-.522.325-.788.48.11-.159.22-.315.331-.473-.373-.276-.711-.6-.941-1.008l-.549-.027c.032.48.08.959.127 1.437-.296.033-.588.1-.886.134.185-.124.369-.25.552-.376a13.3 13.3 0 0 1-.282-1.278c-.668-.107-1.34-.172-2.013-.239.795-.166 1.337-.756 1.459-1.556l-.541-.003-.364-.638zm.71 2.203c.273.014.545.036.818.055.087-.187.175-.372.263-.557l-.577-.438a38.39 38.39 0 0 0-.505.94zm1.58-.115c-.451.519.651.168 0 0zm3.334.4c-.636.321-.098 1.362.538 1.022.714-.302.121-1.43-.538-1.022z"/>
    <path fill="#fefefe" d="M12.399 9.09c.701-.272 1.469-.104 2.2-.147l-.473 1.243-.214-.474a2.167 2.167 0 0 1-.382.091.787.787 0 0 1 .429.487 8.855 8.855 0 0 1-1.561-1.2zM11.341 9.775c.236-.019.471-.046.708-.062-.082.188-.168.373-.253.558l-.455-.496zM8.26 15.797c.651.168-.451.519 0 0z"/>
    <path fill="#fcfcfc" d="M17.54 9.73c.49-.134 1.037.298.953.818-.009.685-1.015.951-1.385.387-.364-.409-.08-1.094.432-1.206zm.08.639c-.129.577.577-.127 0 0zM6.68 15.912c.163-.317.333-.629.505-.94l.577.438c-.088.185-.176.37-.263.557-.273-.019-.545-.04-.818-.055z"/>
    <path fill="#e71c03" d="M11.242 11.021c-.402-.35-.188-.902.098-1.246l.455.496c.053.056.11.113.168.166.182.166.366.328.551.492-.364.266-.908.487-1.272.093z"/>
    <path fill="#fefdfd" d="M12.247 9.766c.28.331.364.742.267 1.162-.185-.163-.369-.325-.551-.492.088-.226.185-.448.283-.671z"/>
    <path fill="#fdfdfd" d="M11.594 16.197c.659-.408 1.252.72.538 1.022-.636.34-1.174-.701-.538-1.022z"/>
</svg>
