<svg xmlns="http://www.w3.org/2000/svg" width="24" height="24">
    <path fill="#fff" d="M11.1 0h1.824c1.771.158 3.518.669 5.057 1.569a12.068 12.068 0 0 1 5.378 6.477c.349.984.544 2.017.642 3.055v1.82c-.159 1.771-.669 3.52-1.57 5.059-1.537 2.7-4.162 4.757-7.155 5.592-.764.224-1.553.34-2.343.428h-1.854c-1.726-.153-3.426-.647-4.938-1.499-2.632-1.467-4.68-3.953-5.593-6.829-.292-.887-.45-1.812-.547-2.738v-1.859c.098-.967.269-1.931.581-2.854a12.076 12.076 0 0 1 5.06-6.426C7.278.759 9.174.161 11.1 0zm.266.596c-2.156.11-4.272.862-6.022 2.123A11.444 11.444 0 0 0 .762 9.942c-.593 3.166.237 6.565 2.239 9.09a11.438 11.438 0 0 0 7.402 4.28c3.221.471 6.618-.526 9.066-2.672 2.293-1.965 3.75-4.876 3.928-7.893.127-1.87-.219-3.77-.999-5.474a11.469 11.469 0 0 0-6.13-5.87 11.38 11.38 0 0 0-4.902-.807z"/>
    <path fill="#fff" d="M11.062 1.22c2.433-.221 4.934.42 6.96 1.787-.893.889-1.775 1.789-2.677 2.668-.801-.026-1.604-.009-2.405-.009-.002.803-.011 1.606.006 2.409-1.036 1.057-2.09 2.097-3.137 3.143a3.118 3.118 0 0 0-2.38-.211c.88-1.783 1.775-3.558 2.653-5.341-.699-.001-1.399-.011-2.098.005-1.115 2.221-2.22 4.447-3.333 6.67-.687 1.278-.785 2.889-.18 4.216-.486.49-.974.977-1.463 1.463C1.353 15.576.78 12.437 1.456 9.564c.65-2.887 2.557-5.456 5.122-6.928a10.747 10.747 0 0 1 4.485-1.416zM16.226 5.654c.766-.761 1.525-1.529 2.293-2.288.078.059.156.117.235.174-.706.721-1.419 1.437-2.143 2.14a9.818 9.818 0 0 0-.385-.026zM17.498 5.653c.576-.57 1.145-1.147 1.721-1.717.073.067.145.134.216.203-.518.514-1.025 1.04-1.553 1.544a9.921 9.921 0 0 0-.384-.03zM18.769 5.661c.36-.369.728-.731 1.093-1.095.069.071.136.143.202.218-.293.297-.586.593-.885.884-.136-.003-.273-.008-.41-.006zM20.452 5.246c.063.077.125.155.184.235-.289.296-.585.585-.876.88-.004-.127-.007-.255-.012-.382l-.001-.024c.232-.239.471-.471.705-.709zM19.75 7.223c.412-.417.827-.83 1.243-1.243 1.656 2.444 2.228 5.583 1.551 8.455A10.818 10.818 0 0 1 5.98 20.991c.864-.845 1.694-1.74 2.583-2.55.635-.123 1.217-.446 1.716-.85.572-.473.912-1.181 1.035-1.904.01-.049.054-.08.085-.116.995-.99 1.983-1.989 2.981-2.977l.319-.004c.283-.513.755-.968 1.361-1.033.551-.05 1.206.012 1.583.468.263.362.369.812.434 1.248.097.85.012 1.716-.203 2.542-.108.42-.504.695-.915.769-.608.121-1.313.086-1.805-.332-.33-.274-.476-.69-.588-1.09-.622-.004-1.244-.004-1.866 0 .078.856.373 1.74 1.02 2.335 1.075.92 2.661 1.32 4.004.789.799-.359 1.515-.965 1.892-1.767.404-.817.379-1.755.388-2.645-.025-.821-.022-1.689-.414-2.435a3.223 3.223 0 0 0-2.312-1.748c.723-.712 1.427-1.448 2.162-2.145.105-.002.209 0 .314.001-.001-.1-.002-.2-.005-.3l-.001-.024zM14.715 8.439c.297-.3.595-.599.895-.896.136.002.273.008.41.007-.427.437-.863.865-1.294 1.299a14.093 14.093 0 0 1-.011-.411zM14.708 9.735a67.992 67.992 0 0 1 2.199-2.197c.128.003.257.011.386.018-.857.853-1.709 1.712-2.567 2.564-.003-.128-.014-.256-.018-.384zM16.002 9.704c.719-.727 1.439-1.454 2.171-2.168.129.008.259.014.389.019-.701.701-1.397 1.41-2.107 2.101-.15.023-.302.031-.453.047zM10.32 11.561c.871-.867 1.735-1.741 2.61-2.604.006.128.013.255.015.383-.778.818-1.597 1.603-2.391 2.408a21.363 21.363 0 0 1-.234-.188zM10.922 12.232c.667-.671 1.338-1.338 2.006-2.008.007.128.012.256.016.384l.001.027c-.627.618-1.246 1.243-1.868 1.866l-.155-.268zM12.934 11.497c-.001.136.005.272.008.409-.522.528-1.051 1.049-1.573 1.577a6.144 6.144 0 0 0-.086-.33c.541-.56 1.097-1.107 1.651-1.655z"/>
    <path fill="#fff" d="M6.394 13.146c.471-.569 1.302-.717 1.984-.496-.797.797-1.587 1.601-2.394 2.388-.06-.645-.016-1.368.41-1.891zM11.424 14.284c.555-.574 1.125-1.134 1.692-1.697.128.005.257.013.385.027-.681.69-1.369 1.374-2.055 2.058-.003-.13-.013-.259-.021-.388zM6.152 15.727c.926-.922 1.847-1.85 2.774-2.771.067.073.133.147.198.221-.945.942-1.884 1.891-2.834 2.829a10.31 10.31 0 0 1-.138-.279zM6.726 16.429c.893-.899 1.792-1.793 2.687-2.69.032.105.065.21.091.315-.814.85-1.663 1.672-2.493 2.507a18.82 18.82 0 0 1-.285-.133zM9.516 14.916c-.011.154-.021.308-.054.459-.409.423-.819.854-1.256 1.246-.15.027-.301.038-.452.057.583-.592 1.17-1.18 1.762-1.762zM3.365 18.519c.472-.48.951-.951 1.425-1.429l.195.225c-.477.482-.959.959-1.437 1.44a10.536 10.536 0 0 1-.183-.235zM3.937 19.218c.491-.498.989-.989 1.481-1.485.081.06.161.121.241.183-.506.506-1.012 1.013-1.52 1.519a6.942 6.942 0 0 1-.203-.217zM4.566 19.86c.546-.546 1.09-1.095 1.64-1.637l.286.136c-.573.565-1.136 1.14-1.71 1.704a6.942 6.942 0 0 1-.217-.203zM5.249 20.449c.653-.643 1.29-1.302 1.949-1.938l.346.064c-.687.687-1.372 1.376-2.062 2.059a2.807 2.807 0 0 1-.234-.186z"/>
    <path d="M11.366.596c1.666-.097 3.354.18 4.902.807a11.462 11.462 0 0 1 6.13 5.87 11.366 11.366 0 0 1 .999 5.474c-.179 3.017-1.635 5.927-3.928 7.893-2.448 2.146-5.845 3.143-9.066 2.672a11.443 11.443 0 0 1-7.402-4.28C.999 16.507.169 13.108.762 9.942a11.449 11.449 0 0 1 4.582-7.223A11.367 11.367 0 0 1 11.366.596zm-.304.624c-1.575.134-3.12.62-4.485 1.416-2.565 1.472-4.472 4.042-5.122 6.928-.676 2.873-.103 6.012 1.552 8.456.489-.486.977-.973 1.463-1.463.504-.505 1.022-1.008 1.513-1.52.807-.787 1.598-1.591 2.394-2.388.48-.474.957-.952 1.431-1.431 1.047-1.046 2.1-2.087 3.137-3.143a159.66 159.66 0 0 0 2.399-2.4c.902-.879 1.784-1.779 2.677-2.668a10.807 10.807 0 0 0-6.96-1.787zm5.164 4.434c-1.098 1.099-2.193 2.2-3.297 3.293v.009c-.875.863-1.739 1.737-2.61 2.604-.464.466-.932.928-1.394 1.396-.927.921-1.848 1.849-2.774 2.771-.453.456-.908.908-1.362 1.363-.474.478-.953.949-1.425 1.429.06.079.121.158.183.235.479-.481.96-.958 1.437-1.44.439-.432.868-.872 1.308-1.302l-.003-.006c.95-.938 1.889-1.887 2.834-2.829l1.43-1.429c.794-.806 1.613-1.59 2.391-2.408a258.17 258.17 0 0 0 3.666-3.66c.724-.703 1.437-1.419 2.143-2.14a47.894 47.894 0 0 1-.235-.174c-.767.759-1.526 1.528-2.293 2.288zm1.272-.001c-.627.632-1.26 1.259-1.888 1.891a108 108 0 0 0-.895.896c-.597.593-1.19 1.19-1.786 1.784-.668.67-1.339 1.337-2.006 2.008-.504.502-1.006 1.005-1.509 1.508-.896.897-1.794 1.791-2.687 2.69-.438.432-.87.87-1.307 1.304-.492.496-.99.987-1.481 1.485.066.074.134.146.203.217.508-.506 1.013-1.013 1.52-1.519.451-.451.904-.9 1.351-1.354.831-.835 1.68-1.657 2.493-2.507.54-.501 1.045-1.041 1.573-1.555.622-.622 1.242-1.248 1.868-1.866l-.001-.027c.615-.561 1.184-1.175 1.781-1.757.431-.434.868-.862 1.294-1.299.623-.618 1.252-1.236 1.862-1.868.529-.503 1.035-1.03 1.553-1.544a10.36 10.36 0 0 0-.216-.203c-.577.569-1.145 1.147-1.721 1.717zm1.271.008c-.621.622-1.261 1.234-1.861 1.877a71.179 71.179 0 0 0-2.199 2.197c-.608.568-1.187 1.173-1.775 1.761-.554.548-1.11 1.095-1.651 1.655-.597.579-1.185 1.173-1.767 1.764-.592.582-1.18 1.17-1.762 1.762-.52.509-1.035 1.027-1.547 1.545-.55.542-1.094 1.091-1.64 1.637.071.069.143.137.217.203.573-.564 1.137-1.139 1.71-1.704.565-.585 1.166-1.137 1.713-1.738.437-.392.847-.823 1.256-1.246.648-.618 1.268-1.266 1.907-1.893.522-.528 1.051-1.049 1.573-1.577.596-.593 1.193-1.188 1.785-1.785.859-.852 1.71-1.71 2.567-2.564.627-.631 1.26-1.256 1.885-1.89.299-.291.592-.587.885-.884a5.21 5.21 0 0 0-.202-.218c-.365.365-.733.726-1.093 1.095zm1.683-.415c-.233.238-.473.47-.705.709l.001.024c-.549.491-1.056 1.033-1.575 1.557a158.48 158.48 0 0 0-2.171 2.168c-.965.953-1.928 1.92-2.886 2.884-.567.563-1.137 1.123-1.692 1.697a526.431 526.431 0 0 0-4.227 4.227c-.659.636-1.296 1.295-1.949 1.938.075.066.152.128.234.186.69-.683 1.375-1.373 2.062-2.059l.009.001c1.288-1.311 2.6-2.599 3.893-3.904.687-.684 1.375-1.368 2.055-2.058l.012.001c.972-.995 1.972-1.963 2.942-2.959.711-.691 1.406-1.4 2.107-2.101h.007c.394-.402.794-.796 1.191-1.194.29-.295.587-.584.876-.88a5.133 5.133 0 0 0-.184-.235zm-.702 1.977l.001.024a1.48 1.48 0 0 0-.309.298c-.735.697-1.439 1.433-2.162 2.145-.966.968-1.937 1.931-2.899 2.903-.998.988-1.986 1.986-2.981 2.977-.03.036-.075.067-.085.116-.139.087-.244.215-.36.329-.79.813-1.631 1.585-2.391 2.425-.889.81-1.718 1.705-2.583 2.55a10.819 10.819 0 0 0 16.564-6.556c.677-2.873.105-6.011-1.551-8.455-.415.413-.831.826-1.243 1.243z"/>
    <path fill="gray" d="M12.929 8.947c1.103-1.093 2.199-2.195 3.297-3.293.128.007.257.015.385.026a258.17 258.17 0 0 1-3.666 3.66c-.002-.128-.009-.255-.015-.383v-.009zM15.61 7.544c.627-.632 1.26-1.259 1.888-1.891.128.008.256.017.384.03-.61.633-1.239 1.25-1.862 1.868-.137 0-.273-.005-.41-.007zM16.907 7.538c.6-.644 1.241-1.255 1.861-1.877.136-.002.273.003.41.006-.624.634-1.258 1.259-1.885 1.89-.129-.007-.258-.015-.386-.018zM7.983 5.67c.699-.016 1.399-.007 2.098-.005-.878 1.784-1.772 3.559-2.653 5.341a3.117 3.117 0 0 1 2.38.211c-.474.48-.951.957-1.431 1.431-.682-.221-1.514-.072-1.984.496-.427.524-.47 1.246-.41 1.891-.491.512-1.009 1.015-1.513 1.52-.605-1.328-.507-2.938.18-4.216 1.112-2.223 2.218-4.449 3.333-6.67zM12.94 5.666c.801 0 1.604-.016 2.405.009a159.66 159.66 0 0 1-2.399 2.4c-.017-.803-.008-1.606-.006-2.409zM18.173 7.536c.519-.524 1.026-1.066 1.575-1.557l.012.382c-.397.398-.797.793-1.191 1.194h-.007c-.13-.006-.26-.011-.389-.019zM12.929 10.223c.596-.594 1.189-1.191 1.786-1.784.002.137.005.274.011.411-.597.582-1.165 1.196-1.781 1.757-.005-.128-.009-.256-.016-.384zM13.116 12.587c.958-.964 1.92-1.931 2.886-2.884.151-.015.303-.024.453-.047-.97.996-1.97 1.964-2.942 2.959l-.012-.001a5.49 5.49 0 0 0-.385-.027zM14.38 12.595c.962-.972 1.934-1.935 2.899-2.903a3.223 3.223 0 0 1 2.312 1.748c.392.746.389 1.614.414 2.435-.008.889.016 1.827-.388 2.645-.377.803-1.093 1.409-1.892 1.767-1.343.53-2.928.131-4.004-.789-.647-.595-.943-1.479-1.02-2.335.622-.004 1.244-.004 1.866 0 .112.399.259.816.588 1.09.492.418 1.197.453 1.805.332.41-.075.807-.35.915-.769.215-.826.3-1.692.203-2.542-.065-.436-.171-.886-.434-1.248-.377-.456-1.032-.518-1.583-.468-.606.065-1.078.52-1.361 1.033l-.319.004zM12.934 11.497c.587-.588 1.166-1.193 1.775-1.761.004.128.015.256.018.384a333.78 333.78 0 0 1-1.785 1.785c-.003-.136-.008-.272-.008-.409zM8.926 12.957c.462-.468.93-.93 1.394-1.396l.234.188-1.43 1.429a13.607 13.607 0 0 0-.198-.221zM9.413 13.74c.503-.503 1.005-1.006 1.509-1.508l.155.268c-.528.515-1.033 1.054-1.573 1.555a6.688 6.688 0 0 0-.091-.315zM9.516 14.916c.582-.591 1.17-1.185 1.767-1.764.032.109.06.22.086.33-.64.627-1.259 1.275-1.907 1.893.033-.151.043-.306.054-.459zM7.198 18.511a526.431 526.431 0 0 1 4.227-4.227c.008.129.018.258.021.388-1.293 1.305-2.605 2.594-3.893 3.904l-.009-.001-.346-.064zM4.79 17.09c.454-.454.909-.907 1.362-1.363.045.093.091.187.138.279l.003.006c-.44.43-.87.87-1.308 1.302l-.195-.225zM10.954 16.017c.116-.114.221-.242.36-.329-.123.723-.463 1.431-1.035 1.904-.499.404-1.081.727-1.716.85.76-.84 1.6-1.612 2.391-2.425zM5.418 17.733c.437-.433.869-.871 1.307-1.304l.285.133c-.448.454-.9.903-1.351 1.354l-.241-.183zM6.206 18.223c.513-.518 1.027-1.037 1.547-1.545.15-.018.302-.03.452-.057-.547.601-1.148 1.153-1.713 1.738l-.286-.136z"/>
    <path fill="#8b8b8b" d="M19.441 7.546c.09-.112.191-.216.309-.298l.005.3c-.105-.001-.21-.003-.314-.001z"/>
</svg>
