<svg xmlns="http://www.w3.org/2000/svg" width="24" height="24">
    <path fill="#ed1c24" d="M11.955 1.333h.461c.357.111.702.315.877.658 3.623 6.248 7.252 12.493 10.87 18.744.402.713-.068 1.643-.824 1.868-7.379-.043-14.763-.039-22.142-.002C.578 22.542.122 22.026 0 21.438v-.452c.059-.17.127-.338.218-.493C3.814 14.457 7.407 8.419 11.001 2.381c.244-.404.469-.888.954-1.047zM3.737 19.85c5.615.003 11.23.005 16.845-.001A5405.31 5405.31 0 0 0 12.16 5.265 6197.015 6197.015 0 0 0 3.737 19.85z"/>
    <path fill="#fff" d="M3.737 19.85c2.801-4.866 5.609-9.727 8.423-14.585a5405.31 5405.31 0 0 1 8.422 14.584c-5.615.006-11.23.004-16.845.001zm5.449-5.634c-.273.3-.516.628-.828.891.084.105.156.237.3.264l.249.095c-.952.704-.968 2.312-.032 3.037.924.943 2.677.558 3.193-.628a2.04 2.04 0 0 0 .259-.436l.261.068.086-.364c.459-.044.925-.05 1.382.02.014.189.116.344.244.476.042.298-.064.724.307.852.184.39.627.577 1.04.545.662-.053 1.178-.77.986-1.414l-.132-.528c.138-.032.275-.063.413-.089.007-.664.004-1.328.004-1.991.016-.129-.099-.224-.192-.289-1.166-.02-2.334.004-3.5-.012-.259-.928-.564-1.88-.54-2.849-1.163.004-2.325.001-3.488.001-.021.783.002 1.567-.012 2.35z"/>
    <path fill="#2a2d2f" d="M9.186 14.216c.013-.783-.01-1.567.012-2.35 1.163 0 2.325.003 3.488-.001-.024.969.282 1.921.54 2.849 1.166.016 2.334-.009 3.5.012.093.065.208.16.192.289 0 .663.004 1.327-.004 1.991-.364.045-.676-.138-.98-.308-.655-.225-1.368.177-1.647.783a7.55 7.55 0 0 1-.139-.399c-.545-.015-1.09.001-1.635 0 .023-1.017-.702-2.06-1.724-2.262-.734-.199-1.593.006-2.132.552-.145-.027-.217-.159-.3-.264.311-.263.555-.59.828-.891zm.469-1.818c0 .619-.002 1.236.001 1.855.725.029 1.452-.005 2.177.019.122.142.24.287.35.439.198.01.396.012.596.009-.077-.79-.327-1.551-.498-2.324a52.25 52.25 0 0 0-2.626.003z"/>
    <path fill="#2a2d2f" d="M8.908 15.466c.712-.653 1.943-.682 2.636.013.718.548.844 1.594.524 2.396-.516 1.186-2.269 1.571-3.193.628-.936-.725-.92-2.333.032-3.037zm.988.401c-.771.232-1.146 1.289-.542 1.889.552.78 1.881.395 2.033-.508.242-.826-.7-1.67-1.491-1.381z"/>
    <path fill="#2a2d2f" d="M9.893 16.197c.675-.358 1.557.504 1.132 1.158-.248.682-1.39.652-1.608-.033-.145-.42-.005-1.005.476-1.125zM14.607 18.492c-.379-.584-.023-1.508.685-1.615.572-.161 1.123.233 1.34.746.192.644-.324 1.361-.986 1.414-.413.032-.856-.155-1.04-.545zm.708-.962c-.202.137-.364.452-.156.653.192.319.787.248.848-.14.146-.378-.378-.735-.692-.514z"/>
    <path fill="#f7fbf5" d="M9.655 12.398a53.465 53.465 0 0 1 2.626-.003c.171.773.42 1.534.498 2.324a9.114 9.114 0 0 1-.596-.009 6.731 6.731 0 0 0-.35-.439c-.725-.024-1.452.011-2.177-.019-.003-.619-.001-1.236-.001-1.855zM15.315 17.53c.314-.221.837.136.692.514-.061.388-.656.459-.848.14-.207-.201-.045-.516.156-.653z"/>
    <path fill="#d5d7d4" d="M8.659 15.371c.539-.546 1.397-.751 2.132-.552 1.022.203 1.748 1.245 1.724 2.262.545.001 1.09-.015 1.635 0 .043.133.088.268.139.399.279-.606.992-1.008 1.647-.783.303.171.615.354.98.308a9.465 9.465 0 0 0-.413.089l.132.528c-.218-.513-.769-.907-1.34-.746-.708.107-1.064 1.031-.685 1.615-.371-.128-.265-.554-.307-.852-.128-.132-.229-.287-.244-.476a5.706 5.706 0 0 0-1.382-.02l-.086.364-.261-.068a2.065 2.065 0 0 1-.259.436c.319-.803.194-1.849-.524-2.396-.693-.695-1.924-.667-2.636-.013a25.34 25.34 0 0 0-.249-.095z"/>
    <path fill="#f2f4f0" d="M9.896 15.867c.791-.289 1.732.556 1.491 1.381-.152.902-1.481 1.288-2.033.508-.604-.6-.228-1.657.542-1.889zm-.003.33c-.482.12-.621.706-.476 1.125.218.685 1.36.715 1.608.033.426-.654-.457-1.516-1.132-1.158z"/>
    <path fill="#2f0607" opacity=".2" d="M1.197 22.601c7.38-.037 14.764-.041 22.142.002l-.123.064H1.32l-.124-.066z"/>
</svg>
