<svg xmlns="http://www.w3.org/2000/svg" width="24" height="24">
    <path fill="#ec1d24" d="M11.773 1.333h.59c.457.152.887.426 1.12.86 3.426 5.937 6.844 11.879 10.27 17.816.129.23.247.465.352.708v.704a1.823 1.823 0 0 1-1.287 1.245H1.315C.665 22.517.177 21.995 0 21.363v-.58c.205-.542.521-1.03.806-1.531l9.829-17.053c.234-.443.671-.721 1.138-.867zM2.535 20.534c6.352.004 12.704.004 19.054 0-3.171-5.51-6.342-11.021-9.528-16.524a7760.82 7760.82 0 0 0-9.526 16.524z"/>
    <path fill="#fff" d="M2.535 20.534C5.704 15.021 8.88 9.514 12.061 4.01c3.186 5.503 6.356 11.014 9.528 16.524-6.35.004-12.702.004-19.054 0zm7.543-11.991c.667 1.14 1.292 2.305 1.997 3.42.654-1.141 1.317-2.276 1.968-3.42a655.053 655.053 0 0 0-3.965 0zm-1.532 3.884c-.482.82-1.452 1.462-1.486 2.462.545.028 1.09.012 1.633.017l.011.516c.197-.003.394-.004.592-.004l.007-.499c.128-.011.257-.021.385-.033a16.896 16.896 0 0 1-.003-.504l-.387-.041c.003-.637.003-1.274 0-1.91-.251 0-.501-.004-.752-.004zm3.877.491c-.402.688-1.22 1.22-1.238 2.065.448.004.897.003 1.345.001l.03.443c.162-.006.323-.01.484-.01L13.05 15l.316-.029.004-.42-.323-.033c.004-.532.001-1.066 0-1.598-.209 0-.417-.001-.626-.003zm1.841.708c-.004.6-.003 1.202-.003 1.802.153-.004.306-.004.46 0 .006-.389-.024-.782.021-1.169.064-.257.48-.308.546-.027.047.397.017.799.024 1.199.15-.004.302-.006.454-.004.085-.431-.257-1.293.356-1.388.453.264.146.948.234 1.388l.451.001c-.011-.475.051-.957-.038-1.426-.179-.461-.757-.456-1.138-.27-.439-.175-.912-.02-1.367-.106zm-3.871 1.347c-.292.223.065.717.356.489.358-.209-.041-.755-.356-.49zm1.314 2.028c-.13.229-.264.456-.39.687.18-.004.358-.006.538-.007.126-.228.26-.452.388-.678-.179.003-.356.001-.535-.001zm3.854 0c-.132.228-.265.456-.39.687.177-.004.356-.007.534-.008.125-.227.257-.452.385-.677-.176.003-.352.001-.528-.001zm.71 0c-.134.229-.268.458-.393.692.527.155.735-.298.918-.691-.175.003-.351.001-.525-.001zm-8.354.16l-.132.276-.352.132c.004.085.016.257.021.342l.397.016v1.721c.164-.004.328-.004.492-.001.001-.834.004-1.667-.003-2.501-.141.013-.284.02-.426.016zm2.118-.007c-.4.686-1.221 1.212-1.239 2.055.451.004.901.004 1.354.001.004.146.011.292.018.437.163-.003.325-.004.489 0l.008-.416.314-.04.006-.4-.324-.047c.004-.529.003-1.06.003-1.588l-.628-.003zm3.056.519c-.234.613-.184 1.464.379 1.883.602.402 1.5-.132 1.348-.868-.014-.695-.836-.901-1.365-.612.064-.468.585-.667.904-.289.139-.074.366-.082.365-.284-.363-.596-1.396-.485-1.629.172zm-1.47.338l-.006.427c.287.003.572.003.86 0a20.167 20.167 0 0 1-.004-.426l-.849-.001z"/>
    <path fill="#fff" d="M7.745 14.364c.312-.422.628-.843.951-1.256.004.42.004.839.001 1.259-.317 0-.636.001-.952-.003zM11.761 14.533c.254-.351.515-.697.781-1.037.006.346.004.693.001 1.039l-.782-.001zM9.371 18.766c.258-.349.516-.697.786-1.036.007.349.006.698-.014 1.046-.257-.001-.514-.008-.772-.01zM13.886 18.383c.518-.068.602.834.068.853-.51.054-.573-.812-.068-.853z"/>
    <path fill="#1a1a1a" d="M10.078 8.543c1.322-.004 2.644-.004 3.965 0-.651 1.144-1.314 2.279-1.968 3.42-.705-1.116-1.331-2.28-1.997-3.42zM8.546 12.427c.251.001.501.004.752.004.003.636.003 1.273 0 1.91l.387.041c-.003.169-.001.336.003.504-.128.011-.257.021-.385.033-.004.166-.004.332-.007.499-.197 0-.394.001-.592.004l-.011-.516c-.544-.004-1.088.011-1.633-.017.034-1 1.004-1.642 1.486-2.462zm-.801 1.937c.317.004.636.003.952.003.003-.42.003-.839-.001-1.259-.323.413-.639.834-.951 1.256zM12.423 12.918c.209.001.417.003.626.003.001.532.004 1.066 0 1.598l.323.033-.004.42-.316.029-.006.417c-.162 0-.323.004-.484.01-.011-.147-.02-.295-.03-.443-.448.001-.897.003-1.345-.001.018-.845.836-1.376 1.238-2.065zm-.662 1.615l.782.001c.003-.346.004-.693-.001-1.039-.267.341-.527.687-.781 1.037zM14.264 13.626c.454.085.928-.068 1.367.106.38-.186.959-.192 1.138.27.089.468.028.951.038 1.426l-.451-.001c-.088-.44.22-1.124-.234-1.388-.612.095-.27.957-.356 1.388-.152-.001-.304 0-.454.004-.007-.4.023-.802-.024-1.199-.067-.282-.482-.23-.546.027-.046.387-.016.78-.021 1.169a8.818 8.818 0 0 0-.46 0c0-.6-.003-1.202.003-1.802zM10.393 14.973c.315-.265.714.281.356.489-.291.228-.647-.267-.356-.49zM11.707 17.001c.179.003.356.004.535.001-.129.227-.261.451-.388.678-.18.001-.358.004-.538.007.126-.231.26-.458.39-.687zM15.561 17.001c.176.003.352.004.528.001-.128.226-.26.451-.385.677-.179.001-.356.004-.534.008.125-.231.26-.46.39-.687zM16.271 17.001c.175.003.351.004.525.001-.183.393-.392.845-.918.691.125-.234.26-.463.393-.692zM7.917 17.161a3.57 3.57 0 0 0 .426-.016c.006.834.004 1.667.003 2.501a10.088 10.088 0 0 0-.492.001v-1.721l-.397-.016a19.605 19.605 0 0 1-.021-.342c.117-.044.235-.087.352-.132l.132-.276zM10.035 17.154c.209 0 .419.001.628.003 0 .529.003 1.06-.003 1.588l.324.047-.006.4-.314.04-.008.416a11.435 11.435 0 0 0-.49 0 32.58 32.58 0 0 1-.018-.437c-.452.003-.903.003-1.354-.001.018-.843.839-1.369 1.239-2.055zm-.664 1.612c.258.001.515.008.772.01.02-.348.021-.697.014-1.046-.27.34-.528.687-.786 1.036zM13.091 17.673c.234-.657 1.267-.766 1.629-.172.001.203-.227.211-.365.284-.319-.377-.84-.18-.904.289.529-.289 1.351-.084 1.365.612.153.735-.746 1.269-1.348.868-.563-.419-.612-1.269-.379-1.883zm.795.71c-.505.041-.441.908.068.853.532-.02.45-.922-.068-.853zM11.621 18.011l.849.001c0 .141.003.284.004.426a41.09 41.09 0 0 1-.86 0c.004-.142.004-.284.006-.427z"/>
</svg>
