<svg xmlns="http://www.w3.org/2000/svg" width="24" height="24">
    <path fill="#231f20" d="M11.574.538c.618-.085 1.211.22 1.631.654 3.312 3.169 6.636 6.328 9.94 9.504.737.67.7 1.916-.023 2.581-3.199 3.205-6.404 6.403-9.607 9.604-.68.694-1.9.728-2.594.036C7.55 19.689 4.17 16.469.799 13.241c-.762-.69-.67-1.974.09-2.629C4.008 7.49 7.131 4.37 10.25 1.247c.354-.366.803-.668 1.325-.709zm-.371.361c-.352.131-.625.398-.887.656-3.091 3.107-6.205 6.193-9.292 9.305-.614.56-.667 1.62-.037 2.189 3.377 3.224 6.749 6.455 10.127 9.677.617.618 1.697.538 2.273-.096l9.544-9.544c.614-.566.658-1.63.022-2.196-3.324-3.196-6.668-6.372-10-9.56-.438-.47-1.142-.673-1.75-.431z"/>
    <path fill="#231f20" d="M11.437 1.243c.635-.137 1.28.139 1.717.598 3.09 2.951 6.182 5.902 9.268 8.858.728.636.738 1.854.036 2.514-2.999 3.005-6.008 6-9.008 9.005-.671.679-1.874.692-2.538-.005-3.146-3.017-6.305-6.02-9.45-9.037-.682-.641-.632-1.805.032-2.441C4.38 7.821 7.3 4.939 10.192 2.03c.343-.355.74-.704 1.246-.787zm.129.364c-.516.061-.884.462-1.23.809-2.854 2.868-5.725 5.718-8.572 8.591-.523.492-.566 1.399-.037 1.903 3.146 3.014 6.301 6.023 9.451 9.035.55.576 1.544.529 2.07-.055 2.981-2.98 5.959-5.963 8.938-8.942.558-.518.552-1.482-.031-1.978-3.079-2.963-6.178-5.904-9.263-8.861-.342-.349-.828-.587-1.326-.502z"/>
    <path fill="#231f20" d="M9.036 8.746c3.018-.002 6.036-.002 9.053 0 .004 1.495.004 2.99 0 4.486-.871-.004-1.745.02-2.615-.035.631.108 1.094.797.808 1.406-.268.721-1.372.805-1.741.13-.427-.631.085-1.482.814-1.534-2.105.058-4.212.037-6.317.022a953.603 953.603 0 0 1-.001-4.475zm6.235 5.187c-.354.112-.16.688.199.572.386-.107.172-.749-.199-.572z"/>
    <path fill="#231f20" d="M6.587 10.152c.784 0 1.567-.001 2.352.001.005 1.038-.002 2.076.004 3.114 1.927.038 3.858.036 5.785-.004-.266.282-.43.632-.482 1.016-1.841 0-3.683-.001-5.525.001-.07-.217-.14-.433-.212-.648.203.68-.124 1.602-.948 1.57-.978.036-1.338-1.44-.46-1.862.412-.314.844.097 1.266.025-.77-.611-1.912-.054-1.948.912a7.964 7.964 0 0 0-.557-.005c.018-.715-.043-1.434.025-2.148.176-.676.474-1.313.7-1.973zm.302.649c-.114.34-.234.678-.348 1.019.626.006 1.253.005 1.88.004-.001-.344.005-.688.002-1.031a56.106 56.106 0 0 0-1.535.008zm.581 3.131c-.355.114-.158.692.202.574.379-.113.167-.75-.202-.574zM16.004 13.273c.697.025 1.394.012 2.09.014-.01.164-.012.33-.005.494-.522.174-1.044.352-1.565.527-.058-.397-.218-.764-.521-1.036z"/>
    <path fill="#fff100" d="M11.203.899c.607-.242 1.312-.04 1.75.431 3.331 3.188 6.676 6.365 10 9.56.636.566.593 1.63-.022 2.196-3.181 3.181-6.364 6.362-9.544 9.544-.576.634-1.656.714-2.273.096-3.378-3.222-6.75-6.452-10.127-9.677-.63-.569-.577-1.628.037-2.189 3.086-3.112 6.2-6.198 9.292-9.305.262-.258.535-.526.887-.656zm.234.344c-.505.083-.902.432-1.246.787-2.892 2.909-5.812 5.791-8.698 8.705-.665.636-.714 1.8-.032 2.441 3.145 3.017 6.304 6.02 9.45 9.037.664.697 1.867.684 2.538.005 3-3.005 6.01-6 9.008-9.005.702-.66.692-1.878-.036-2.514-3.085-2.957-6.178-5.908-9.268-8.858-.437-.458-1.082-.734-1.717-.598z"/>
    <path fill="#fff100" d="M11.566 1.607c.498-.085.984.152 1.326.502 3.085 2.957 6.184 5.898 9.263 8.861.583.496.589 1.459.031 1.978-2.978 2.98-5.957 5.963-8.938 8.942-.526.584-1.52.631-2.07.055-3.15-3.012-6.305-6.02-9.451-9.035-.529-.504-.486-1.411.037-1.903 2.846-2.873 5.718-5.723 8.572-8.591.346-.347.714-.748 1.23-.809zm-2.53 7.139c-.002 1.492-.002 2.983.001 4.475 2.105.016 4.212.036 6.317-.022-.728.052-1.241.902-.814 1.534.37.676 1.474.592 1.741-.13.287-.61-.176-1.298-.808-1.406.87.055 1.744.031 2.615.035.004-1.495.004-2.99 0-4.486-3.017-.002-6.035-.002-9.053 0zm-2.449 1.406c-.226.66-.523 1.297-.7 1.973-.068.714-.007 1.433-.025 2.148.185-.005.371-.004.557.005.036-.966 1.177-1.523 1.948-.912-.422.072-.854-.34-1.266-.025-.878.422-.518 1.898.46 1.862.824.032 1.151-.889.948-1.57.072.215.143.431.212.648 1.842-.002 3.684-.001 5.525-.001a1.83 1.83 0 0 1 .482-1.016c-1.927.04-3.858.042-5.785.004-.006-1.038.001-2.076-.004-3.114-.785-.002-1.568-.001-2.352-.001zm9.417 3.121c.302.271.463.638.521 1.036.521-.175 1.043-.353 1.565-.527a4.789 4.789 0 0 1 .005-.494c-.696-.002-1.393.011-2.09-.014z"/>
    <path fill="#fff100" d="M6.889 10.801a52.366 52.366 0 0 1 1.535-.008c.002.343-.004.686-.002 1.031-.628.001-1.254.002-1.88-.004.114-.341.234-.679.348-1.019zM7.47 13.932c.368-.176.581.461.202.574-.36.119-.557-.46-.202-.574zM15.271 13.933c.371-.176.586.466.199.572-.359.115-.553-.461-.199-.572z"/>
</svg>
