<svg xmlns="http://www.w3.org/2000/svg" width="24" height="24">
    <path fill="#4c4c4c" opacity=".82" d="M11.55 1.333h.995c.139.096.274.196.406.3a2.269 2.269 0 0 0-1.794 0c.128-.104.26-.204.393-.3z"/>
    <path fill="#fff" d="M11.157 1.634a2.269 2.269 0 0 1 1.794 0c1.084 1.084 1.609 2.6 2.451 3.869a.544.544 0 0 0 .288.478c1.372 2.422 2.78 4.825 4.166 7.239a.556.556 0 0 0 .289.478c1.027 1.831 2.093 3.637 3.14 5.456l.141.261c.22.352.42.715.596 1.09-.025.491-.071.982-.248 1.444-.405.281-.819.639-1.347.6-6.875 0-13.751-.004-20.627.003-.388.008-.764-.104-1.113-.268a2.42 2.42 0 0 1-.309-.323c-.515-.812-.18-1.744.264-2.496 1.23-2.121 2.465-4.24 3.675-6.373a.544.544 0 0 0 .287-.478c1.96-3.397 3.924-6.792 5.881-10.19.175-.3.402-.572.673-.789zm.695.095c-.456.059-.82.387-1.029.782C7.417 8.427 3.993 14.335.587 20.251c-.562.812.099 2.066 1.09 2.036 6.917.004 13.836.004 20.751 0 .694.016 1.3-.623 1.298-1.305.014-.451-.264-.829-.471-1.204-3.342-5.78-6.674-11.564-10.014-17.341a1.355 1.355 0 0 0-1.388-.708z"/>
    <path fill="#fff" d="M11.961 4.015c.261-.078.426.172.534.365 3.006 5.231 6.042 10.446 9.041 15.682.235.308-.089.694-.439.612-6.068-.006-12.139.011-18.207-.01-.5.016-.436-.58-.19-.845 2.994-5.168 5.974-10.345 8.963-15.516.078-.112.152-.257.299-.288zm-2.842 6.204c-.443.959-.579 2.083-1.327 2.879-.206.5-.092 1.077-.104 1.609.021.405-.047 1.09.556 1.015 2.621.027 5.263.155 7.876-.077.096-1.005.457-2.279-.366-3.066-.436-.729-.59-1.584-.941-2.354a36.175 36.175 0 0 0-5.692-.006zm-.904 5.763c.007.399-.025.803.047 1.196.106.578 1.02.746 1.318.238.224-.443.136-.959.158-1.436-.508 0-1.016-.003-1.524 0zm5.973 0c.006.414-.031.837.058 1.246.15.558 1.066.684 1.327.15.193-.437.121-.932.136-1.397h-1.521zm-9.714 1.63c-.49.869-.986 1.736-1.479 2.604 5.978.001 11.956.003 17.933-.001-.485-.867-.995-1.723-1.46-2.601-.844-.018-1.689-.004-2.532-.008-.037.958-.893 1.773-1.87 1.625-.867-.031-1.251-.907-1.476-1.616H9.871c-.106.582-.352 1.21-.932 1.464-1.057.549-2.344-.311-2.387-1.464l-2.076-.001z"/>
    <path fill="#fff" d="M9.558 10.869c1.386-.159 2.787-.092 4.179-.068 1.012-.118.959 1.196 1.287 1.852a57.479 57.479 0 0 1-6.129-.004c.192-.603.397-1.203.663-1.779z"/>
    <path fill="red" d="M11.852 1.729c.556-.091 1.128.211 1.388.708 3.341 5.778 6.672 11.562 10.014 17.341.207.375.485.753.471 1.204.001.682-.604 1.321-1.298 1.305-6.916.004-13.834.004-20.751 0-.991.03-1.652-1.223-1.09-2.036 3.405-5.916 6.829-11.824 10.236-17.74.209-.396.573-.724 1.029-.782zm.109 2.286c-.147.031-.22.176-.299.288-2.988 5.172-5.969 10.348-8.963 15.516-.246.265-.309.86.19.845 6.068.02 12.139.004 18.207.01.349.082.674-.305.439-.612C18.536 14.826 15.5 9.611 12.494 4.38c-.108-.193-.272-.444-.534-.365z"/>
    <path fill="#525252" opacity=".85" d="M15.401 5.502a.51.51 0 0 1 .288.478.544.544 0 0 1-.288-.478z"/>
    <path d="M9.119 10.219a36.175 36.175 0 0 1 5.692.006c.351.77.505 1.625.941 2.354.823.787.463 2.061.366 3.066-2.612.231-5.254.104-7.876.077-.603.075-.534-.61-.556-1.015.012-.532-.102-1.108.104-1.609.748-.796.884-1.92 1.327-2.879zm.439.65a15.451 15.451 0 0 0-.663 1.779 56.7 56.7 0 0 0 6.129.004c-.328-.657-.276-1.971-1.287-1.852-1.392-.023-2.793-.091-4.179.068zM8.215 15.982c.508-.003 1.015 0 1.524 0-.021.476.067.993-.158 1.436-.299.508-1.212.339-1.318-.238-.072-.394-.04-.798-.047-1.196zM14.188 15.982h1.521c-.016.464.057.959-.136 1.397-.261.532-1.176.407-1.327-.15-.089-.409-.052-.832-.058-1.246z"/>
    <path d="M4.474 17.612l2.076.001c.042 1.154 1.33 2.014 2.387 1.464.581-.254.827-.883.932-1.464h3.719c.224.71.609 1.585 1.476 1.616.978.148 1.833-.667 1.87-1.625.844.004 1.689-.01 2.532.008.467.878.975 1.734 1.46 2.601-5.977.004-11.955.003-17.933.001.493-.868.989-1.734 1.479-2.604z"/>
    <path fill="#545454" opacity=".86" d="M4.317 13.092a.506.506 0 0 1 .287-.478.546.546 0 0 1-.287.478z"/>
    <path fill="#4c4c4c" opacity=".82" d="M19.856 13.22a.504.504 0 0 1 .289.478.554.554 0 0 1-.289-.478z"/>
    <path fill="#8c8c8c" d="M23.284 19.155l.141.261-.141-.261z"/>
    <path fill="#4f4f4f" opacity=".81" d="M0 20.51c.148-.386.388-.724.643-1.045-.444.752-.779 1.684-.264 2.496-.128-.152-.253-.305-.379-.458v-.993z"/>
    <path fill="#4f4f4f" opacity=".84" d="M24.022 20.506l.084-.204v1.138a6.363 6.363 0 0 1-.332.51c.177-.461.223-.954.248-1.444z"/>
    <path fill="#636363" opacity=".98" d="M22.428 22.549c.528.038.941-.319 1.347-.6-.224.334-.561.565-.928.717H1.257a4.661 4.661 0 0 1-.568-.382c.348.164.724.276 1.113.268 6.876-.007 13.752-.003 20.627-.003z"/>
</svg>
