<svg xmlns="http://www.w3.org/2000/svg" width="24" height="24">
    <path fill="#231f20" d="M12.158 1.126c.666-.162 1.374.108 1.83.604 3.102 3.1 6.206 6.197 9.299 9.305.676.635.739 1.814.055 2.467-3.307 3.175-6.63 6.334-9.938 9.508-.678.685-1.879.664-2.551-.018-3.161-3.162-6.326-6.319-9.481-9.487-.668-.659-.65-1.847.055-2.473 3.206-3.074 6.421-6.142 9.632-9.211.311-.305.659-.605 1.099-.694zm.13.25c-.419.06-.744.353-1.037.635-3.206 3.072-6.43 6.13-9.63 9.208-.605.528-.623 1.538-.054 2.1 3.155 3.161 6.314 6.319 9.474 9.476.568.582 1.595.608 2.168.02 3.293-3.149 6.589-6.295 9.884-9.442.624-.548.602-1.594-.001-2.148-3.088-3.112-6.196-6.202-9.293-9.304-.379-.413-.952-.653-1.512-.546z"/>
    <path fill="#231f20" d="M11.924 1.864c.697-.275 1.517-.026 2.009.521 2.9 2.903 5.809 5.798 8.701 8.708.659.631.68 1.794-.004 2.416-3.088 2.953-6.182 5.9-9.269 8.855-.653.656-1.808.628-2.452-.026-2.944-2.941-5.884-5.885-8.826-8.826-.674-.628-.689-1.799-.004-2.425 2.998-2.884 6.014-5.748 9.022-8.621.247-.233.497-.482.822-.601zm.227.325c-.342.095-.593.364-.845.596-2.98 2.862-5.984 5.698-8.954 8.568-.574.511-.51 1.468.059 1.957 2.928 2.912 5.843 5.839 8.767 8.755.5.511 1.4.541 1.913.032 3.09-2.953 6.179-5.909 9.27-8.86.571-.506.503-1.454-.055-1.943a5027.751 5027.751 0 0 0-8.636-8.645c-.379-.407-.971-.641-1.518-.462z"/>
    <path fill="#231f20" d="M13.037 6.679c.361-.124.844.226.63.617-.296.526-.712.972-1.038 1.478 1.232.58 2.488 1.337 3.143 2.58 1.012 2.026.708 4.366.809 6.552-.872.006-1.742.041-2.614.035-.043-1.798.187-3.709-.592-5.39-.352-.752-1.054-1.268-1.811-1.565-.028.575.037 1.153-.038 1.724-.076.389-.674.508-.82.1-.869-1.642-1.748-3.281-2.593-4.936 1.639-.408 3.282-.803 4.924-1.195z"/>
    <path fill="#fff100" d="M12.288 1.376c.56-.107 1.133.133 1.512.546 3.097 3.102 6.205 6.192 9.293 9.304.604.554.625 1.6.001 2.148-3.295 3.146-6.592 6.293-9.884 9.442-.574.588-1.601.562-2.168-.02-3.16-3.157-6.319-6.316-9.474-9.476-.569-.562-.551-1.572.054-2.1 3.2-3.078 6.424-6.136 9.63-9.208.293-.282.618-.575 1.037-.635zm-.364.488c-.325.119-.575.368-.822.601-3.007 2.873-6.024 5.737-9.022 8.621-.685.626-.671 1.798.004 2.425 2.942 2.941 5.882 5.885 8.826 8.826.643.654 1.799.683 2.452.026 3.086-2.954 6.181-5.902 9.269-8.855.684-.622.662-1.784.004-2.416-2.892-2.91-5.801-5.806-8.701-8.708-.492-.547-1.312-.796-2.009-.521z"/>
    <path fill="#fff100" d="M12.151 2.189c.547-.179 1.139.055 1.518.462 2.882 2.878 5.761 5.76 8.636 8.645.558.488.626 1.436.055 1.943-3.091 2.951-6.18 5.906-9.27 8.86-.512.509-1.412.479-1.913-.032-2.924-2.916-5.839-5.843-8.767-8.755-.569-.49-.632-1.446-.059-1.957 2.97-2.87 5.975-5.706 8.954-8.568.252-.233.503-.502.845-.596zm.886 4.49c-1.642.392-3.284.787-4.924 1.195.845 1.655 1.724 3.294 2.593 4.936.145.408.744.289.82-.1.076-.571.011-1.15.038-1.724.757.296 1.459.812 1.811 1.565.779 1.681.548 3.593.592 5.39.871.006 1.741-.029 2.614-.035-.101-2.186.203-4.526-.809-6.552-.655-1.243-1.91-2-3.143-2.58.326-.506.742-.953 1.038-1.478.214-.391-.269-.74-.63-.617z"/>
</svg>
