<svg xmlns="http://www.w3.org/2000/svg" width="24" height="24">
    <path fill="#bb9c17" opacity=".73" d="M11.798 0h.382c.247.12.475.276.67.47 3.57 3.589 7.159 7.16 10.733 10.745.431.368.455 1.092.036 1.477-3.641 3.643-7.283 7.286-10.927 10.925-.356.396-1.045.418-1.409.02-3.502-3.498-7-7.001-10.505-10.495-.295-.286-.606-.571-.778-.953v-.39c.163-.485.572-.81.919-1.16l9.66-9.66c.373-.364.709-.802 1.219-.979zm.009.292c-.287.074-.469.326-.676.52C7.596 4.358 4.049 7.891.513 11.437a.714.714 0 0 0-.026 1.045c3.635 3.641 7.276 7.276 10.912 10.915.266.331.822.361 1.102.031 3.644-3.641 7.285-7.285 10.927-10.927.33-.278.298-.832-.028-1.103-3.594-3.606-7.201-7.2-10.798-10.805-.203-.206-.496-.389-.796-.301z"/>
    <path d="M11.807.292c.3-.088.593.095.796.301 3.596 3.605 7.204 7.199 10.798 10.805.325.271.358.824.028 1.103-3.642 3.642-7.283 7.286-10.927 10.927-.28.33-.835.3-1.102-.031-3.636-3.64-7.277-7.274-10.912-10.915a.714.714 0 0 1 .026-1.045C4.049 7.891 7.596 4.358 11.132.812c.206-.193.389-.445.676-.52zm.001.358C8.117 4.232 4.52 7.922.863 11.544c-.242.18-.36.547-.079.754 3.618 3.619 7.238 7.237 10.854 10.859.179.242.523.203.692-.026 3.617-3.624 7.243-7.237 10.855-10.864.245-.194.133-.524-.077-.691C19.548 8.014 15.98 4.46 12.422.895c-.158-.158-.371-.373-.614-.244z"/>
    <path d="M4.337 9.407C5.4 8.959 6.435 8.41 7.529 8.055c.431.308-.136.818-.224 1.195 1.762.463 3.134 2.108 3.196 3.941.024 1.793 0 3.587.01 5.381-.498.008-.995.006-1.493.005-.011-1.752.008-3.505-.008-5.256-.019-1.182-.877-2.263-2.003-2.598-.068.361.289 1.108-.275 1.157-.853-.76-1.597-1.649-2.394-2.472zM16.634 9.256c-.079-.364-.706-.961-.182-1.2 1.066.382 2.09.892 3.132 1.344a49.21 49.21 0 0 1-2.329 2.461c-.61.059-.265-.78-.318-1.135-1.123.329-1.986 1.408-2.006 2.585-.022 1.756.013 3.512-.016 5.268-.492-.004-.985-.001-1.477-.004a344.07 344.07 0 0 1 .001-5.376c.056-1.83 1.428-3.492 3.196-3.943zM11.804 13.846l.302-.014c.088 1.577.034 3.168.028 4.748a36.153 36.153 0 0 1-.334-.01c0-1.574-.008-3.15.004-4.724z"/>
    <path fill="#ffd520" d="M11.808.65c.244-.13.456.085.614.244 3.558 3.565 7.126 7.12 10.686 10.681.21.167.322.497.077.691-3.612 3.626-7.238 7.24-10.855 10.864-.169.229-.514.269-.692.026-3.616-3.622-7.236-7.24-10.854-10.859-.281-.206-.163-.574.079-.754C4.521 7.921 8.117 4.231 11.808.649zM4.337 9.407c.797.823 1.541 1.712 2.394 2.472.564-.049.206-.796.275-1.157 1.126.335 1.984 1.416 2.003 2.598.017 1.751-.002 3.504.008 5.256.498.001.995.004 1.493-.005-.01-1.794.014-3.588-.01-5.381-.061-1.832-1.434-3.478-3.196-3.941.089-.377.655-.887.224-1.195-1.094.355-2.129.905-3.192 1.352zm12.297-.151c-1.768.451-3.139 2.113-3.196 3.943a344.07 344.07 0 0 0-.001 5.376c.492.002.985 0 1.477.004.029-1.756-.006-3.512.016-5.268.02-1.177.883-2.256 2.006-2.585.053.355-.292 1.194.318 1.135A48.754 48.754 0 0 0 19.583 9.4c-1.042-.452-2.066-.962-3.132-1.344-.523.239.103.836.182 1.2zm-4.83 4.59c-.012 1.574-.004 3.15-.004 4.724l.334.01c.006-1.58.06-3.172-.028-4.748l-.302.014z"/>
</svg>
