<svg xmlns="http://www.w3.org/2000/svg" width="24" height="24">
    <path fill="#282828" opacity=".84" d="M11.677 1.333h.849c.163.123.314.257.468.39-.538-.338-1.223-.353-1.751.018.137-.144.284-.277.436-.409z"/>
    <path fill="#fff" d="M11.243 1.742c.529-.371 1.213-.356 1.751-.018l.076.063c.02.184.096.424.314.45.004.037.014.114.02.151.004.194.143.342.28.463.071.124.144.247.217.37.012.2.117.38.3.47l.044.163c.027.186.15.334.283.46.073.124.147.249.222.371a.655.655 0 0 0 .271.48c.07.12.143.24.214.36a.63.63 0 0 0 .273.48l.089.136c.013.193.11.367.267.483.071.123.144.244.218.366a.666.666 0 0 0 .27.48c.071.123.144.244.218.364a.633.633 0 0 0 .273.479l.22.38c.03.182.103.42.317.452l.022.156c.004.193.146.34.28.463l.22.376a.647.647 0 0 0 .273.479l.218.376c.031.183.104.42.319.452l.022.159c.006.193.146.34.28.463l.22.374a.657.657 0 0 0 .271.48l.214.361a.61.61 0 0 0 .279.477c.02.036.06.103.081.137a.661.661 0 0 0 .269.483c.071.123.144.244.218.366a.659.659 0 0 0 .27.479c.071.123.144.244.218.367a.622.622 0 0 0 .273.477l.22.38c.03.183.102.42.317.453.004.039.016.116.02.156.004.193.146.34.28.462l.22.376a.648.648 0 0 0 .274.479c.073.124.146.251.218.377.031.183.103.422.319.453.004.04.016.119.022.157.006.193.144.34.279.464.069.117.142.236.214.353.252.45.436.937.443 1.458-.157.373-.443.662-.77.89-7.473.044-14.947.009-22.42.018-.364-.156-.633-.45-.843-.777-.083-.569.137-1.1.406-1.587.074-.119.146-.237.216-.357.134-.123.274-.27.28-.463.004-.039.016-.116.02-.156.216-.033.287-.271.317-.453.074-.127.148-.254.22-.382a.64.64 0 0 0 .274-.48l.216-.363a.66.66 0 0 0 .27-.48c.076-.124.148-.247.22-.372.133-.124.257-.273.284-.458l.044-.161a.551.551 0 0 0 .297-.47c.073-.12.144-.241.216-.363a.652.652 0 0 0 .27-.479c.076-.124.148-.25.222-.374.133-.123.273-.27.279-.463l.022-.157c.216-.033.287-.27.319-.453l.218-.377a.647.647 0 0 0 .274-.479l.218-.366a.662.662 0 0 0 .268-.484l.089-.13c.196-.203.338-.447.413-.719.016-.033.047-.1.064-.132a.611.611 0 0 0 .281-.477c.073-.121.144-.241.214-.363a.661.661 0 0 0 .271-.479l.218-.367a.665.665 0 0 0 .269-.481 10 10 0 0 1 .083-.137.624.624 0 0 0 .277-.479c.071-.12.144-.24.214-.361a.657.657 0 0 0 .27-.479l.22-.366a.662.662 0 0 0 .267-.484l.09-.131c.196-.203.337-.449.413-.719l.069-.127a.636.636 0 0 0 .276-.479c.073-.121.146-.243.218-.366a.656.656 0 0 0 .268-.483l.089-.131c.196-.203.34-.446.413-.719.016-.031.046-.096.06-.127a.597.597 0 0 0 .28-.48c.137-.213.258-.439.42-.634zm.546.116c-.258.087-.4.337-.534.556C7.724 8.537 4.179 14.65.649 20.77c-.394.531.003 1.4.684 1.369 7.191.004 14.384.006 21.576 0 .731.028 1.08-.914.641-1.447-3.556-6.143-7.1-12.292-10.66-18.433a.865.865 0 0 0-1.1-.4z"/>
    <path fill="#fff" d="M3.879 19.82c2.743-4.754 5.489-9.507 8.241-14.254 2.753 4.748 5.498 9.5 8.243 14.254-5.494.003-10.989.003-16.484 0zm6.104-7.77c-.777.271-.294 1.537.468 1.227.84-.244.327-1.606-.468-1.227zm4.504 1.802c-.631.462-1.15 1.054-1.732 1.573.154-.974-.823-1.37-1.403-1.937-.418-.5-1.119-.107-1.5.24-.511.629-1.12 1.186-1.55 1.877a42.695 42.695 0 0 0-.557-.351c-.223.363-.444.726-.664 1.092.502.302 1.006.603 1.508.906.22-.361.437-.724.654-1.084-.17-.092-.327-.204-.498-.296.484-.284.77-.784 1.156-1.174.084.193.153.391.237.584-.144.196-.33.376-.412.611.022.994-.643 1.817-.852 2.76 0 .22.267.416.462.283.556-.764.471-1.927 1.228-2.57.662.751.854 1.782 1.441 2.584.167-.044.39-.063.427-.276-.252-.723-.66-1.378-.949-2.086.09-.74-.422-1.444-.086-2.201.233.224.623.384.601.764-.009.34.1.839.554.673.584.127.986-.298 1.396-.64.44.511-.11.964-.307 1.437.043.047.126.142.167.189-.209.58-.434 1.156-.617 1.744-.132.264.256.58.45.314.26-.663.414-1.363.637-2.039.174-.007.348-.014.521-.023.271.593.396 1.236.6 1.85.044.273.506.306.52.013-.138-.59-.348-1.163-.523-1.742l.113-.297c-.289-.547-.44-1.146-.268-1.757l.227.18c.039.251.084.5.123.75.07.033.209.096.277.129l-.213.136c.033.18.063.36.094.54.346-.15.693-.296 1.044-.436-.117-.138-.237-.273-.354-.411a6.608 6.608 0 0 1-.246.022c.187-.989-.692-1.431-1.403-1.85.153-.043.307-.086.46-.131l.222.098.05-.199c.148.052.297.1.447.147a7.838 7.838 0 0 0-.401-.332l.171-.146c-.38-.201-.534-.843-1.067-.668-.533.123-.591.839-.187 1.149z"/>
    <path fill="#d40000" d="M11.789 1.858a.864.864 0 0 1 1.1.4c3.56 6.14 7.106 12.29 10.66 18.433.439.533.09 1.476-.641 1.447-7.191.006-14.384.004-21.576 0-.683.031-1.079-.837-.684-1.369 3.53-6.121 7.076-12.234 10.606-18.356.134-.218.276-.468.534-.556zM3.879 19.82c5.494.003 10.989.003 16.484 0-2.744-4.754-5.49-9.507-8.243-14.254A7749.63 7749.63 0 0 0 3.879 19.82z"/>
    <path fill="#353535" opacity=".88" d="M13.07 1.787c.151.104.316.249.314.45-.218-.026-.293-.266-.314-.45z"/>
    <path fill="#2c2c2c" opacity=".86" d="M10.542 2.856a.455.455 0 0 1 .28-.48.597.597 0 0 1-.28.48z"/>
    <path fill="#2a2a2a" opacity=".85" d="M13.404 2.388c.228.017.286.276.28.463-.137-.121-.276-.269-.28-.463zM9.218 5.16a.43.43 0 0 1 .276-.479.635.635 0 0 1-.276.479z"/>
    <path fill="#2d2d2d" opacity=".84" d="M10.068 3.702c-.022-.308.12-.597.413-.719a1.666 1.666 0 0 1-.413.719z"/>
    <path fill="#2f2f2f" opacity=".87" d="M13.9 3.22c.19.081.304.264.3.47a.552.552 0 0 1-.3-.47z"/>
    <path fill="#252525" opacity=".84" d="M9.711 4.316a.425.425 0 0 1 .268-.483.65.65 0 0 1-.268.483z"/>
    <path fill="#232323" opacity=".83" d="M14.244 3.853c.234.004.306.268.283.46-.132-.124-.256-.274-.283-.46z"/>
    <path fill="#292929" opacity=".85" d="M14.748 4.684c.2.074.309.271.271.48a.652.652 0 0 1-.271-.48z"/>
    <path fill="#2b2b2b" opacity=".82" d="M8.736 6.006c-.024-.309.119-.597.413-.719-.076.27-.218.516-.413.719z"/>
    <path fill="#2e2e2e" opacity=".87" d="M15.234 5.524a.433.433 0 0 1 .273.48.635.635 0 0 1-.273-.48z"/>
    <path fill="#242424" opacity=".83" d="M8.38 6.62a.424.424 0 0 1 .267-.484.654.654 0 0 1-.267.484z"/>
    <path fill="#222" opacity=".82" d="M15.596 6.14a.425.425 0 0 1 .267.483.659.659 0 0 1-.267-.483z"/>
    <path fill="#282828" opacity=".85" d="M7.89 7.466a.418.418 0 0 1 .27-.479.659.659 0 0 1-.27.479z"/>
    <path fill="#272727" opacity=".84" d="M16.08 6.988a.417.417 0 0 1 .27.48.666.666 0 0 1-.27-.48z"/>
    <path fill="#2e2e2e" opacity=".86" d="M7.397 8.306a.437.437 0 0 1 .277-.479.625.625 0 0 1-.277.479z"/>
    <path fill="#2c2c2c" opacity=".86" d="M16.569 7.833c.199.074.307.27.273.479a.634.634 0 0 1-.273-.479z"/>
    <path fill="#222" opacity=".82" d="M7.046 8.924a.419.419 0 0 1 .269-.481.662.662 0 0 1-.269.481z"/>
    <path fill="#323232" opacity=".87" d="M17.06 8.691c.16.098.32.247.317.452-.214-.031-.287-.27-.317-.452z"/>
    <path fill="#282828" opacity=".84" d="M6.556 9.77a.42.42 0 0 1 .271-.479.663.663 0 0 1-.271.479z"/>
    <path fill="#252525" opacity=".83" d="M17.4 9.3c.228.016.289.276.28.463-.134-.123-.276-.27-.28-.463z"/>
    <path fill="#2d2d2d" opacity=".85" d="M6.06 10.61a.442.442 0 0 1 .281-.477.611.611 0 0 1-.281.477z"/>
    <path fill="#2a2a2a" opacity=".85" d="M17.9 10.138c.2.073.308.27.273.479a.646.646 0 0 1-.273-.479z"/>
    <path fill="#2e2e2e" opacity=".83" d="M5.583 11.46c-.023-.309.12-.597.413-.719a1.698 1.698 0 0 1-.413.719z"/>
    <path fill="#313131" opacity=".87" d="M18.391 10.993c.161.098.32.249.319.452-.214-.031-.287-.269-.319-.452z"/>
    <path fill="#262626" opacity=".84" d="M5.227 12.074a.426.426 0 0 1 .268-.484.654.654 0 0 1-.268.484z"/>
    <path fill="#252525" opacity=".82" d="M18.732 11.604c.229.016.29.276.28.463-.134-.123-.274-.27-.28-.463z"/>
    <path d="M9.983 12.05c.796-.38 1.308.982.468 1.227-.763.31-1.244-.956-.468-1.227z"/>
    <path d="M14.487 13.852c-.404-.31-.347-1.027.187-1.149.532-.174.686.467 1.067.668a8.184 8.184 0 0 0-.171.146c.137.107.27.217.401.332a9.73 9.73 0 0 1-.447-.147l-.05.199a10.729 10.729 0 0 0-.222-.098c-.153.044-.307.089-.46.131.71.418 1.589.86 1.403 1.85.083-.006.164-.013.246-.022.116.138.236.273.354.411-.35.14-.698.286-1.044.436l-.094-.54.213-.136-.277-.129c-.039-.25-.084-.5-.123-.75l-.227-.18c-.172.612-.02 1.211.268 1.757l-.113.297c.174.58.384 1.151.523 1.742-.014.292-.476.26-.52-.013-.204-.614-.329-1.257-.6-1.85-.173.009-.347.016-.521.023-.223.676-.377 1.376-.637 2.039-.194.267-.582-.05-.45-.314.183-.589.409-1.164.617-1.744a14.147 14.147 0 0 0-.167-.189c.196-.473.747-.926.307-1.437-.411.342-.812.767-1.396.64-.454.166-.563-.333-.554-.673.022-.38-.369-.54-.601-.764-.336.757.176 1.46.086 2.201.29.708.697 1.364.949 2.086-.036.212-.26.23-.427.276-.587-.803-.78-1.833-1.441-2.584-.756.643-.673 1.806-1.228 2.57-.196.133-.462-.062-.462-.283.21-.943.874-1.766.852-2.76.083-.236.268-.414.412-.611-.084-.193-.154-.391-.237-.584-.387.39-.673.891-1.156 1.174.171.091.329.204.498.296l-.654 1.084c-.502-.303-1.006-.604-1.508-.906.22-.366.441-.73.664-1.092.187.116.372.233.557.351.43-.692 1.039-1.249 1.55-1.877.38-.347 1.081-.74 1.5-.24.58.567 1.556.963 1.403 1.937.582-.519 1.1-1.111 1.732-1.573z"/>
    <path fill="#2b2b2b" opacity=".85" d="M4.734 12.919a.424.424 0 0 1 .274-.479.648.648 0 0 1-.274.479z"/>
    <path fill="#2a2a2a" opacity=".84" d="M19.233 12.441a.42.42 0 0 1 .271.48.654.654 0 0 1-.271-.48z"/>
    <path fill="#313131" opacity=".87" d="M4.197 13.749c-.001-.204.157-.354.319-.453-.031.183-.103.42-.319.453z"/>
    <path fill="#303030" opacity=".86" d="M19.719 13.283a.44.44 0 0 1 .279.477.617.617 0 0 1-.279-.477z"/>
    <path fill="#252525" opacity=".82" d="M3.897 14.37c-.01-.188.05-.447.279-.463-.006.193-.146.34-.279.463z"/>
    <path fill="#232323" opacity=".82" d="M20.079 13.897a.424.424 0 0 1 .269.483.664.664 0 0 1-.269-.483z"/>
    <path fill="#2a2a2a" opacity=".84" d="M3.404 15.223a.42.42 0 0 1 .27-.479.653.653 0 0 1-.27.479z"/>
    <path fill="#292929" opacity=".84" d="M20.566 14.746c.2.071.309.27.27.479a.657.657 0 0 1-.27-.479zM2.073 17.527a.42.42 0 0 1 .27-.48.66.66 0 0 1-.27.48z"/>
    <path fill="#2f2f2f" opacity=".86" d="M2.892 16.056a.486.486 0 0 1 .297-.47.548.548 0 0 1-.297.47z"/>
    <path fill="#2e2e2e" opacity=".85" d="M21.054 15.591c.197.074.307.27.273.477a.63.63 0 0 1-.273-.477zM1.583 18.37a.43.43 0 0 1 .274-.48.64.64 0 0 1-.274.48z"/>
    <path fill="#232323" opacity=".82" d="M2.564 16.676c-.022-.191.05-.454.284-.458-.028.186-.151.333-.284.458z"/>
    <path fill="#333" opacity=".87" d="M21.547 16.449c.16.1.319.249.317.453-.216-.033-.287-.27-.317-.453zM1.044 19.204c-.001-.204.157-.356.317-.453-.03.182-.102.42-.317.453z"/>
    <path fill="#272727" opacity=".83" d="M21.884 17.057c.229.014.289.276.28.462-.134-.121-.276-.269-.28-.462zM.744 19.823c-.01-.188.051-.447.28-.463-.006.193-.146.34-.28.463z"/>
    <path fill="#2c2c2c" opacity=".85" d="M22.386 17.894c.199.073.308.27.274.479a.647.647 0 0 1-.274-.479z"/>
    <path fill="#323232" opacity=".87" d="M22.877 18.75c.161.1.32.249.319.453-.216-.031-.287-.27-.319-.453z"/>
    <path fill="#262626" opacity=".82" d="M23.218 19.361c.229.016.289.276.279.464-.134-.124-.273-.271-.279-.464z"/>
    <path fill="#1e1e1e" opacity=".79" d="M0 20.947c.124-.289.323-.533.529-.766-.269.486-.489 1.018-.406 1.587L0 21.602v-.654z"/>
    <path fill="#1d1d1d" opacity=".78" d="M23.711 20.178c.204.234.404.476.531.76v.896l-.089-.197c-.006-.521-.19-1.009-.443-1.458z"/>
    <path fill="#111" opacity=".94" d="M.964 22.544c7.473-.01 14.947.026 22.42-.018l-.167.14H.858l.107-.123z"/>
</svg>
