<svg xmlns="http://www.w3.org/2000/svg" width="24" height="24">
    <path fill="#caa819" opacity=".79" d="M11.809 0h.365c.355.216.643.52.931.815 3.242 3.238 6.482 6.479 9.722 9.719.404.413.851.792 1.172 1.278v.359c-.245.406-.607.718-.938 1.05-3.182 3.178-6.36 6.361-9.544 9.538-.442.416-.828.895-1.33 1.242h-.359c-.367-.25-.665-.581-.977-.892-3.223-3.217-6.449-6.432-9.673-9.648-.403-.412-.845-.792-1.18-1.265v-.366c.253-.436.642-.763.992-1.117 3.26-3.26 6.521-6.518 9.781-9.779.323-.335.649-.671 1.036-.934zm-.111.308C7.932 4.018 4.223 7.788.472 11.514c-.262.199-.392.611-.109.853 3.733 3.742 7.477 7.476 11.213 11.216.193.245.575.305.791.053 3.744-3.731 7.476-7.476 11.218-11.212a.539.539 0 0 0 .001-.851c-3.719-3.72-7.44-7.439-11.158-11.16-.178-.205-.509-.294-.73-.106z"/>
    <path d="M11.698.308c.221-.188.552-.1.73.106 3.718 3.721 7.439 7.44 11.158 11.16a.54.54 0 0 1-.001.851c-3.742 3.736-7.474 7.481-11.218 11.212-.216.252-.598.192-.791-.053-3.736-3.74-7.48-7.475-11.213-11.216-.283-.242-.152-.654.109-.853C4.223 7.789 7.932 4.02 11.698.309zm.12.328C8.044 4.423 4.232 8.177.49 11.996c2.848 2.88 5.724 5.732 8.587 8.598.012-1.426-.013-2.851.012-4.276.011-.758.709-1.404 1.463-1.379 3.286-.011 6.572.001 9.858-.005.216.031.341-.162.479-.289.869-.889 1.762-1.756 2.626-2.65-3.696-3.78-7.478-7.478-11.196-11.239-.125-.137-.348-.362-.5-.121z"/>
    <path d="M10.484 5.936a62.8 62.8 0 0 1 2.17.004l-.016.331c-.709.008-1.418.002-2.128.004-.01-.113-.018-.226-.026-.338zM14.538 5.932c.714-.002 1.427-.001 2.14-.001.002.085.007.256.011.341-.719.006-1.438.007-2.156-.001l.006-.338zM8.605 7.872c-.136-.402-.698-1.219.034-1.336 1.033.604 2.051 1.367 2.966 2.096-.816.701-1.805 1.301-2.692 1.957-.233.25-.696.086-.67-.269.102-.342.278-.655.418-.982-1.484-.01-2.863 1.178-3.035 2.658-.059.755-.008 1.514-.025 2.272-.502.005-1.004.005-1.506.001.038-1.08-.132-2.197.222-3.242.566-1.832 2.38-3.134 4.288-3.156zM10.481 11.348l.038-.344c3.748.014 7.495-.004 11.244.008l-.046.352c-3.745-.028-7.492.004-11.237-.016zM10.507 13.168c.887-.461 1.784-.901 2.684-1.339.896.439 1.793.88 2.68 1.34-.889.457-1.793.886-2.68 1.344-.893-.452-1.794-.889-2.684-1.345zm.877-.015c.582.343 1.204.612 1.804.922.606-.304 1.219-.594 1.818-.912-.6-.308-1.205-.608-1.813-.9-.611.281-1.207.592-1.808.89z"/>
    <path fill="#ffd520" d="M11.818.636c.152-.241.376-.016.5.121 3.718 3.761 7.5 7.459 11.196 11.239-.864.894-1.757 1.76-2.626 2.65-.138.127-.263.32-.479.289-3.286.006-6.572-.006-9.858.005-.754-.025-1.452.62-1.463 1.379-.025 1.424 0 2.85-.012 4.276-2.863-2.866-5.74-5.718-8.587-8.598C4.231 8.177 8.043 4.424 11.817.637zm-1.334 5.3l.026.338c.709-.001 1.418.005 2.128-.004l.016-.331a62.795 62.795 0 0 0-2.17-.004zm4.054-.004l-.006.338c.719.008 1.438.007 2.156.001-.004-.085-.008-.256-.011-.341-.713 0-1.426-.001-2.14.001zm-5.933 1.94c-1.908.022-3.721 1.324-4.288 3.156-.354 1.045-.184 2.162-.222 3.242.502.004 1.004.004 1.506-.001.017-.757-.034-1.517.025-2.272.172-1.48 1.55-2.668 3.035-2.658-.139.326-.316.64-.418.982-.026.355.437.518.67.269.887-.656 1.876-1.256 2.692-1.957-.916-.73-1.933-1.493-2.966-2.096-.732.116-.169.934-.034 1.336zm1.876 3.476c3.745.019 7.492-.012 11.237.016l.046-.352c-3.749-.012-7.496.006-11.244-.008l-.038.344zm.026 1.82c.89.456 1.792.893 2.684 1.345.887-.458 1.79-.887 2.68-1.344-.887-.461-1.783-.901-2.68-1.34-.9.438-1.798.878-2.684 1.339z"/>
    <path fill="#ffd520" d="M11.384 13.153c.601-.299 1.198-.61 1.808-.89.608.292 1.213.592 1.813.9-.599.318-1.212.608-1.818.912-.6-.31-1.222-.578-1.804-.922z"/>
</svg>
