<svg xmlns="http://www.w3.org/2000/svg" width="24" height="24">
    <path fill="#c31926" d="M11.884 1.333h.427c.44.13.854.383 1.07.801 3.394 5.858 6.774 11.724 10.166 17.586.257.436.521.873.694 1.351v.372c-.133.59-.572 1.077-1.166 1.223H1.182c-.594-.126-1.028-.609-1.183-1.183v-.389a4.72 4.72 0 0 1 .334-.756C3.844 14.271 7.345 8.196 10.859 2.129c.209-.404.607-.649 1.024-.796zm.012 1.456C8.335 8.976 4.718 15.135 1.203 21.348c.156.058.317.104.487.093 6.996-.007 13.99 0 20.986-.004.124-.01.246-.041.361-.094-3.498-6.186-7.106-12.311-10.643-18.476-.079-.263-.391-.409-.498-.077z"/>
    <path fill="#fff" d="M11.896 2.789c.107-.331.42-.186.498.077 3.537 6.164 7.144 12.291 10.643 18.476a1.065 1.065 0 0 1-.361.094c-6.996.004-13.99-.004-20.986.004a1.193 1.193 0 0 1-.487-.093C4.719 15.134 8.335 8.975 11.896 2.788zm-.874 3.498c.028.647-.039 1.3.036 1.943.303.85 1.286 1.284 1.479 2.196.104.348-.131.664-.373.886-.986.869-2.252 1.46-2.984 2.591-.496.737-.407 1.733.014 2.483.383.683 1.036 1.144 1.52 1.747.534.662.233 1.567.316 2.342.364-.364.724-.729 1.091-1.089.366.361.732.723 1.093 1.09-.02-.754.052-1.513-.04-2.262-.34-1.147-1.521-1.744-2.047-2.782a.808.808 0 0 1 .116-.916c1.018-1.2 2.624-1.853 3.369-3.291.447-1.07-.279-2.146-1.016-2.876-.591-.53-.306-1.366-.39-2.053-.311-.414-.727-.74-1.084-1.116-.369.366-.744.724-1.097 1.106z"/>
    <path d="M11.022 6.287c.353-.38.729-.74 1.097-1.106.356.376.772.7 1.084 1.116.084.687-.201 1.524.39 2.053.737.731 1.463 1.806 1.016 2.876-.744 1.437-2.35 2.091-3.369 3.291a.81.81 0 0 0-.116.916c.526 1.037 1.707 1.636 2.047 2.782.092.749.02 1.508.04 2.262-.361-.367-.727-.729-1.093-1.09-.366.36-.727.724-1.091 1.089-.083-.774.22-1.68-.316-2.342-.484-.603-1.137-1.064-1.52-1.747-.422-.749-.51-1.746-.014-2.483.732-1.132 1.999-1.723 2.984-2.591.243-.222.477-.538.373-.886-.193-.911-1.176-1.347-1.479-2.196-.074-.644-.007-1.296-.036-1.943z"/>
</svg>
