<svg xmlns="http://www.w3.org/2000/svg" width="24" height="24">
    <path fill="#030303" d="M11.425.572c.17-.115.353-.428.583-.251 1.258.839 2.271 1.984 3.363 3.021 2.826 2.873 5.769 5.652 8.4 8.702-1.332 1.784-3.001 3.281-4.536 4.887-2.251 2.224-4.439 4.519-6.826 6.601-.46.445-1.077.019-1.42-.355-3.271-3.146-6.468-6.369-9.639-9.614-.416-.487-.98-.885-1.223-1.496.256-.637.857-1.049 1.291-1.563C4.706 7.147 7.996 3.787 11.425.572zm.109.252C7.914 4.433 4.297 8.048.684 11.663c-.29.201-.244.588.023.786 3.591 3.595 7.196 7.176 10.786 10.77.183.254.59.313.795.053 3.369-3.365 6.739-6.731 10.111-10.095.353-.357.738-.686 1.018-1.105-.159-.353-.443-.614-.716-.877-3.462-3.451-6.914-6.913-10.38-10.361-.199-.27-.588-.296-.788-.011z"/>
    <path fill="#030303" d="M12.948 5.934c.48-.127 1.064-.072 1.416.315.536.633.423 1.822-.389 2.172-.381.136-.83.141-1.2-.03-.941-.48-.872-2.148.174-2.457z"/>
    <path fill="#030303" d="M17.353 8.281c.294.007.587.035.877.091-.165.715-.317 1.435-.565 2.126-.932.038-1.85-.163-2.78-.156.091 2.692.316 5.378.416 8.069a68.306 68.306 0 0 1-.784-.008c-.327-1.3-.588-2.617-.951-3.906-.263 1.294-.396 2.61-.624 3.912-.292.003-.583.001-.873-.004-.046-2.704.003-5.407-.024-8.111-1.136-.228-2.271-.462-3.407-.689a18.954 18.954 0 0 1-.005-.754h6.022c.808.06 1.569.392 2.373.488.108-.353.22-.704.325-1.058zM5.745 8.854c.915-.008 1.829-.008 2.744 0 .011 1.138.007 2.277.004 3.414-.917.014-1.833.014-2.75 0-.003-1.138-.005-2.277.001-3.414z"/>
    <path fill="#ffdb03" d="M11.534.824c.199-.285.588-.259.788.011 3.466 3.448 6.918 6.91 10.38 10.361.273.263.557.525.716.877-.281.419-.666.748-1.018 1.105-3.372 3.364-6.742 6.729-10.111 10.095-.205.26-.612.201-.795-.053C7.903 19.625 4.298 16.044.708 12.45c-.267-.198-.313-.586-.023-.786 3.614-3.615 7.23-7.23 10.85-10.839zm1.414 5.11c-1.045.309-1.115 1.977-.174 2.457.37.171.819.165 1.2.03.812-.35.925-1.539.389-2.172-.351-.386-.936-.442-1.416-.315zm4.405 2.347c-.106.354-.217.705-.325 1.058-.804-.096-1.565-.428-2.373-.488a6044.08 6044.08 0 0 0-6.022 0c-.003.251-.001.503.005.754 1.136.226 2.271.461 3.407.689.027 2.704-.022 5.407.024 8.111.29.005.582.007.873.004.228-1.302.361-2.618.624-3.912.362 1.289.624 2.606.951 3.906.262.004.522.007.784.008-.1-2.692-.325-5.378-.416-8.069.93-.007 1.848.194 2.78.156.248-.692.4-1.412.565-2.126a5.281 5.281 0 0 0-.877-.091zm-11.608.573a388.526 388.526 0 0 0-.001 3.414c.917.014 1.833.014 2.75 0 .003-1.138.007-2.277-.004-3.414-.915-.008-1.829-.008-2.744 0z"/>
</svg>
