<svg xmlns="http://www.w3.org/2000/svg" width="24" height="24">
    <path fill="#d5bb0e" opacity=".84" d="M11.707 0h.569c.276.133.536.305.756.521 3.239 3.244 6.48 6.485 9.722 9.725.446.457.964.87 1.246 1.458v.569c-.125.251-.277.49-.475.689-3.284 3.277-6.563 6.56-9.844 9.841-.439.427-.833.93-1.4 1.198h-.532a2.468 2.468 0 0 1-.708-.478c-3.277-3.284-6.559-6.563-9.84-9.844-.426-.44-.925-.833-1.201-1.394v-.546c.248-.586.756-.986 1.189-1.429C4.451 7.05 7.713 3.79 10.97.526c.217-.212.469-.384.737-.526zm-.023.31c-.21.085-.377.242-.536.397C7.633 4.235 4.104 7.749.588 11.274c-.403.354-.454 1.014-.046 1.386 3.595 3.602 7.195 7.204 10.799 10.799.372.41 1.033.36 1.382-.053 3.578-3.583 7.165-7.159 10.739-10.745.408-.374.358-1.034-.048-1.39C19.878 7.725 16.329 4.187 12.79.643c-.276-.294-.708-.514-1.106-.334z"/>
    <path fill="#030303" d="M11.684.31c.398-.18.83.04 1.106.334 3.539 3.545 7.087 7.082 10.624 10.628.406.355.456 1.015.048 1.39-3.574 3.586-7.16 7.162-10.739 10.745-.349.413-1.01.463-1.382.053A6467.584 6467.584 0 0 1 .542 12.661c-.408-.372-.358-1.032.046-1.386C4.104 7.749 7.633 4.236 11.148.708c.16-.155.326-.312.536-.397zm.124.458C8.201 4.232 4.722 7.843 1.154 11.354c-.263.235-.636.641-.287.973 3.568 3.594 7.162 7.166 10.74 10.751a.497.497 0 0 0 .787.001c3.56-3.563 7.124-7.123 10.684-10.686a.503.503 0 0 0 .004-.791c-3.512-3.529-7.044-7.04-10.558-10.57-.182-.181-.444-.424-.716-.265z"/>
    <path fill="#030303" d="M11.188 4.498c.371.518.16 1.194.136 1.78.294.008.589.007.883-.002.067-.406.12-.829.353-1.18.035.336.032.674.025 1.012.217-.142.439-.278.671-.397-.001.43-.376.66-.686.876l.047.433c.624-.173.943-.757 1.346-1.206.09.834-.709 1.334-1.366 1.63-.478.635-1.021 1.286-1.799 1.553-.498.139-1.022.072-1.532.091.314.539.612 1.087.917 1.631.646.04 1.285.17 1.933.14 1.1-.026 2.143-.546 3.256-.412 1.183.09 2.2 1.235 2.002 2.436-.65.552-.856 1.452-1.517 2.01-.506.521.595.979.204 1.511-.32.294-.841.35-1.02.793-.347.713-.979 1.24-1.271 1.981-.102.254-.432.146-.642.205.04-.834.792-1.332 1.093-2.058-.53.35-1.039.737-1.624.995.181.516-.1 1.015-.181 1.518-.227.012-.452.017-.679.016.823-.985-.064-2.082-.347-3.086-.887-.096-1.588-.69-2.368-1.063-.4-.21-.96-.515-.87-1.05.264-.438.821-.554 1.25-.772-.552-.858-1.09-1.735-1.363-2.729-.248-1.004-2.028-.071-1.92-1.3.638-.473 1.387-.791 2.123-1.082-.421-.268-.98-.427-1.104-.986l.457.433c-.005-.372.008-.75.145-1.102.034.293.048.588.074.883.103-.305.187-.617.323-.911.05.354-.016.738.138 1.07.31.238.709.114 1.015-.059-.508-.544-.643-1.676.206-1.96-.184.486-.563 1.469.218 1.591 1.22-.588 1.363-2.044 1.472-3.234zm.046 2.155c-.5.809-1.171 1.468-1.951 2.003.52.007 1.121.124 1.573-.196.173-.526-.061-1.393.659-1.591-.138.443-.295.887-.313 1.357.523-.368 1.152-.848.998-1.576-.322.004-.644.005-.966.002zm.482 8.066c-.192.26-.013.6.023.888.012.515.869.84.353 1.328.073.306.158.61.25.912.848-.563 1.718-1.09 2.578-1.634-.558-.481-.866-1.147-1.087-1.835-.679.254-1.398.322-2.116.341zm-2.632.165c.566.523 1.235.958 1.99 1.148-.155-.454-.227-.99-.577-1.338-.478-.025-.947.107-1.412.19z"/>
    <path fill="#fee011" d="M11.808.768c.272-.158.534.084.716.265 3.514 3.529 7.045 7.04 10.558 10.57a.502.502 0 0 1-.004.791c-3.559 3.563-7.123 7.123-10.684 10.686a.497.497 0 0 1-.787-.001C8.029 19.495 4.435 15.922.867 12.328c-.349-.332.024-.738.287-.973C4.722 7.844 8.2 4.233 11.808.769zm-.62 3.73c-.109 1.19-.252 2.646-1.472 3.234-.781-.122-.402-1.105-.218-1.591-.85.283-.714 1.416-.206 1.96-.306.173-.706.296-1.015.059-.154-.332-.088-.716-.138-1.07-.136.294-.22.606-.323.911-.026-.295-.041-.59-.074-.883-.137.352-.15.73-.145 1.102l-.457-.433c.124.559.683.719 1.104.986-.736.292-1.484.61-2.123 1.082-.108 1.229 1.672.295 1.92 1.3.274.994.811 1.871 1.363 2.729-.43.217-.986.334-1.25.772-.09.535.47.84.87 1.05.78.373 1.481.967 2.368 1.063.283 1.004 1.17 2.101.347 3.086.227.001.452-.004.679-.016.082-.503.362-1.002.181-1.518.584-.258 1.093-.644 1.624-.995-.301.726-1.054 1.224-1.093 2.058.21-.059.54.049.642-.205.292-.742.924-1.268 1.271-1.981.179-.443.7-.499 1.02-.793.391-.532-.71-.99-.204-1.511.661-.558.866-1.458 1.517-2.01.198-1.201-.818-2.346-2.002-2.436-1.112-.134-2.155.385-3.256.412-.648.03-1.288-.101-1.933-.14-.305-.544-.602-1.092-.917-1.631.51-.019 1.034.048 1.532-.091.778-.266 1.321-.918 1.799-1.553.656-.295 1.456-.796 1.366-1.63-.403.449-.722 1.033-1.346 1.206l-.047-.433c.311-.216.685-.446.686-.876a7.63 7.63 0 0 0-.671.397c.007-.337.01-.676-.025-1.012-.233.35-.286.774-.353 1.18-.294.01-.589.011-.883.002.024-.586.235-1.261-.136-1.78z"/>
    <path fill="#fee011" d="M11.234 6.653c.322.002.644.001.966-.002.154.727-.475 1.207-.998 1.576.018-.47.175-.914.313-1.357-.72.198-.486 1.066-.659 1.591-.452.319-1.054.203-1.573.196.78-.535 1.451-1.194 1.951-2.003zM11.716 14.719c.718-.019 1.436-.086 2.116-.341.221.688.529 1.354 1.087 1.835-.859.545-1.729 1.072-2.578 1.634a17.083 17.083 0 0 1-.25-.912c.516-.488-.341-.814-.353-1.328-.036-.288-.215-.628-.023-.888zM9.084 14.884c.466-.083.935-.215 1.412-.19.35.348.422.884.577 1.338-.755-.191-1.423-.625-1.99-1.148z"/>
</svg>
