<svg xmlns="http://www.w3.org/2000/svg" width="24" height="24">
    <path d="M.217 1.784h23.565c-.003 6.794.009 13.587-.006 20.38-.139-.182-.243-.388-.358-.585-3.808-6.59-7.608-13.184-11.419-19.772C8.189 8.395 4.388 14.989.581 21.579c-.115.197-.218.403-.358.585C.208 15.371.22 8.577.216 1.784z"/>
    <path d="M3.772 20.152C6.515 15.403 9.254 10.651 12 5.904c2.747 4.747 5.486 9.499 8.228 14.248H3.771zm8.622-9.155a.768.768 0 0 0 .169 1.512.775.775 0 0 0 .769-.698c.065-.497-.454-.949-.937-.815zm-3.447 1.421c-.194.367-.392.732-.581 1.102-.171.338-.006.771.322.944.075-.131.145-.265.217-.398.157.128.311.259.47.386.06-.109.117-.219.174-.329-.159-.127-.313-.26-.472-.387.156-.291.31-.584.465-.876a47 47 0 0 1 .751 0c-.368.693-.734 1.388-1.103 2.081.42.227.844.446 1.264.672.24-.443.468-.893.712-1.335-.019.374-.049.747-.071 1.121-.106-.085-.211-.173-.315-.26-.06.109-.117.218-.175.328.152.132.312.255.463.388-.09.424.226.898.68.883.004-.104.01-.209.013-.313.541.444 1.08.892 1.62 1.337.107-.06.206-.133.293-.218-.624-.523-1.252-1.041-1.877-1.562.041-.86.114-1.719.16-2.579.01-.232.07-.471-.004-.697a.812.812 0 0 0-.75-.578c-.594-.007-1.189-.004-1.783-.001a.517.517 0 0 0-.473.291zm.167 2.67c-.63 1.19-1.262 2.379-1.89 3.571-.208.387-.021.894.362 1.092.66-1.237 1.311-2.478 1.97-3.715.266.42.554.829.804 1.259.034.563.047 1.126.069 1.689.02.432.43.794.862.752-.038-.9-.06-1.803-.109-2.702-.199-.355-.44-.685-.654-1.031-.077-.108-.128-.249-.259-.303-.387-.201-.771-.407-1.156-.61zm5.951 1.246c-.611.14-.878.781-1.292 1.188-.174.275-.508.311-.767.455-.405.453-.79.926-1.183 1.39-.148.136-.026.404.175.372 1.986.002 3.973.004 5.959-.001.181.014.288-.227.163-.355-.676-.886-1.358-1.768-2.036-2.653a1.029 1.029 0 0 0-1.018-.396z"/>
    <path fill="red" d="M.582 21.579C4.389 14.989 8.19 8.395 12 1.807c3.811 6.588 7.611 13.182 11.419 19.772.115.197.218.403.358.585l.021.029c-.228-.032-.458-.023-.688-.022H.891c-.229-.001-.46-.01-.688.022l.021-.029c.139-.182.242-.388.358-.585zm3.19-1.427h16.457c-2.743-4.749-5.482-9.501-8.228-14.248-2.746 4.747-5.485 9.499-8.228 14.248z"/>
    <path fill="#fff" d="M12.394 10.997c.483-.134 1.002.318.937.815a.774.774 0 0 1-.769.698.768.768 0 1 1-.169-1.512z"/>
    <path fill="#fff" d="M8.947 12.418a.517.517 0 0 1 .473-.291c.594-.002 1.189-.006 1.783.001a.814.814 0 0 1 .75.578c.075.226.015.465.004.697-.046.86-.119 1.718-.16 2.579.625.522 1.253 1.039 1.877 1.562a1.387 1.387 0 0 1-.293.218c-.54-.445-1.079-.893-1.62-1.337-.003.104-.009.209-.013.313-.453.015-.77-.459-.68-.883-.151-.133-.311-.256-.463-.388l.175-.328c.104.088.209.175.315.26.022-.374.052-.747.071-1.121-.244.441-.472.891-.712 1.335-.42-.226-.844-.445-1.264-.672.369-.693.735-1.388 1.103-2.081a94 94 0 0 0-.751 0c-.154.292-.308.585-.465.876.159.127.313.26.472.387-.057.11-.114.22-.174.329-.158-.127-.313-.258-.47-.386-.072.133-.142.266-.217.398-.328-.173-.493-.606-.322-.944.188-.37.387-.735.581-1.102z"/>
    <path fill="#fff" d="M9.114 15.088c.386.203.769.41 1.156.61.131.054.182.195.259.303.214.346.455.676.654 1.031.049.899.07 1.802.109 2.702-.432.042-.842-.32-.862-.752-.022-.563-.036-1.127-.069-1.689-.25-.429-.538-.838-.804-1.259-.66 1.237-1.31 2.479-1.97 3.715-.382-.197-.57-.705-.362-1.092.627-1.192 1.26-2.381 1.89-3.571zM15.065 16.334a1.03 1.03 0 0 1 1.018.396c.678.885 1.36 1.766 2.036 2.653.126.128.018.369-.163.355-1.986.005-3.973.003-5.959.001-.202.032-.323-.235-.175-.372.393-.464.778-.937 1.183-1.39.259-.144.593-.18.767-.455.414-.407.681-1.048 1.292-1.188z"/>
    <path opacity=".93" d="M.203 22.193c.228-.032.458-.023.688-.022H23.11c.23-.001.46-.01.688.022-.18.044-.365.025-.547.027H.751c-.182-.002-.368.017-.547-.027z"/>
</svg>
