<svg xmlns="http://www.w3.org/2000/svg" width="24" height="24">
    <path fill="#c0111e" d="M11.929 1.333h.516c.805.13 1.503.642 1.9 1.347 3.381 5.548 6.631 11.175 9.94 16.767v2.02c-.332.505-.797.898-1.316 1.199H1.457C.825 22.301.221 21.803 0 21.078v-.659c.068-.411.068-.853.277-1.225 3.284-5.532 6.494-11.109 9.852-16.597.376-.671 1.062-1.093 1.799-1.265zM2.336 20.444c6.582.008 13.165.008 19.748 0-3.274-5.592-6.56-11.18-9.874-16.75-3.316 5.57-6.6 11.157-9.874 16.75z"/>
    <path fill="#fff" d="M2.336 20.444c3.274-5.592 6.558-11.18 9.874-16.75 3.314 5.571 6.6 11.157 9.874 16.75-6.582.008-13.165.008-19.748 0zm6.213-6.627c-.015 2.015-.007 4.032-.004 6.047.477-.389.906-.837 1.393-1.216.553.28.964.84 1.472 1.22.02-2.017-.028-4.035.023-6.049.108-.828 1.446-.827 1.552.001.055 1.593-.001 3.19.027 4.785.484.417.948.856 1.44 1.265.467-.426.94-.845 1.417-1.259.01-1.644.024-3.287-.007-4.93-.084-2.06-2.178-3.693-4.196-3.332-1.689.218-3.1 1.752-3.116 3.467z"/>
    <path fill="#030303" d="M8.549 13.817c.016-1.715 1.428-3.25 3.116-3.467 2.018-.361 4.112 1.273 4.196 3.332.031 1.643.016 3.286.007 4.93-.477.413-.95.833-1.417 1.259-.491-.409-.956-.848-1.44-1.265-.028-1.594.028-3.192-.027-4.785-.106-.828-1.445-.829-1.552-.002-.051 2.014-.003 4.032-.023 6.049-.508-.38-.919-.94-1.472-1.22-.487.379-.915.827-1.393 1.216-.003-2.015-.011-4.032.004-6.047z"/>
</svg>
