<svg xmlns="http://www.w3.org/2000/svg" width="24" height="24">
    <path fill="#fad607" d="M11.658 0h.608a2.5 2.5 0 0 1 .697.472c3.278 3.283 6.56 6.563 9.841 9.842.437.448.954.85 1.195 1.447v.42a2.475 2.475 0 0 1-.54.835 7344.935 7344.935 0 0 0-10.445 10.442 2.88 2.88 0 0 1-.791.541h-.424c-.277-.115-.55-.256-.763-.472C7.516 20.004 3.993 16.482.47 12.961a2.967 2.967 0 0 1-.472-.666v-.608c.281-.586.8-.989 1.243-1.445C4.482 7.001 7.726 3.763 10.962.518c.205-.204.443-.373.694-.52zm-.083.422C7.883 3.96 4.327 7.653.683 11.246.22 11.6.15 12.314.619 12.696 4.178 16.26 7.74 19.823 11.305 23.38a.9.9 0 0 0 1.374-.014c3.562-3.562 7.126-7.123 10.686-10.686a.888.888 0 0 0-.005-1.352L12.674.642c-.27-.299-.74-.462-1.099-.218z"/>
    <path fill="#010102" d="M11.575.422c.359-.244.829-.08 1.099.218L23.36 11.326a.888.888 0 0 1 .005 1.352c-3.56 3.563-7.124 7.124-10.686 10.686a.9.9 0 0 1-1.374.014C7.74 19.821 4.178 16.258.619 12.694c-.469-.382-.4-1.096.064-1.45C4.327 7.651 7.883 3.958 11.575.42zm.34.333c-.17.044-.29.188-.419.299C7.984 4.586 4.451 8.098.935 11.626a.463.463 0 0 0 .011.742c3.539 3.544 7.086 7.081 10.622 10.627.192.266.58.335.791.049 3.563-3.562 7.126-7.123 10.686-10.686a.45.45 0 0 0 .005-.722c-3.538-3.545-7.086-7.08-10.621-10.627-.142-.127-.301-.302-.514-.253z"/>
    <path fill="#ffdb00" d="M11.915.755c.212-.049.372.126.514.253 3.535 3.547 7.084 7.082 10.621 10.627a.45.45 0 0 1-.005.722c-3.56 3.563-7.123 7.124-10.686 10.686-.211.286-.599.217-.791-.049C8.032 19.448 4.484 15.91.946 12.367a.464.464 0 0 1-.011-.742c3.516-3.528 7.049-7.04 10.561-10.572.128-.11.248-.254.419-.299zM9.199 7.543c-.761.431-1.027 1.302-.874 2.13l-.37.022c-.008.54.096 1.07.174 1.602-.328.004-.656.006-.984.011-.239.385-.482.767-.724 1.148.245.389.485.78.721 1.174l-.69.013-.004.796c-.221.001-.443.002-.664.005v.408l.516-.001c-.097.454-.022 1.055.539 1.136.641.09.919-.614.762-1.139l.587.004c.103.618.596 1.252 1.29 1.127.604-.079.871-.67.979-1.198.496.217.397.985.984 1.124.775.356 1.458-.398 1.544-1.123.474.202.368.913.888 1.086.736.418 1.531-.263 1.598-1.013.223-.002.446-.006.671-.01-.188.494.041 1.175.653 1.148.581-.034.758-.664.636-1.145l.974.007.017-.409c-.353-.006-.706-.007-1.058-.01l-.001-1.769c-.317 0-.635-.002-.952-.006l.001-1.182c.582-.004 1.164.001 1.747-.011l-.012-.576c-1.118-.004-2.236.002-3.354-.005l-.088.415-.344-.004-.042-.41c-1.198.006-2.395 0-3.593.004l-.089.408c-.564-.001-1.129 0-1.693-.002.083-.496.205-.984.257-1.484l-.278-.265c.176-.299.31-.664.63-.84.402-.052.79.244 1.193.102.462-.144.899-.361 1.367-.491.425.25.875.619 1.402.511.42-.108.806-.319 1.232-.408.286.35.785.582 1.212.337.74-.49.666-1.757-.161-2.124-.578-.422-1.208.456-1.762-.043-.578-.422-1.288-.066-1.926-.083-.655-.172-1.192-.799-1.918-.664-.719.205-.998 1.018-.996 1.696z"/>
    <path fill="#010002" d="M9.199 7.543c-.002-.678.277-1.49.996-1.696.726-.136 1.262.492 1.918.664.638.017 1.348-.34 1.926.083.553.499 1.183-.379 1.762.043.827.367.901 1.634.161 2.124-.427.245-.926.013-1.212-.337-.426.089-.812.3-1.232.408-.527.108-.977-.262-1.402-.511-.468.13-.905.347-1.367.491-.403.142-.791-.154-1.193-.102-.32.176-.454.541-.63.84l.278.265c-.052.5-.174.989-.257 1.484.564.002 1.129.001 1.693.002l.089-.408c1.198-.004 2.395.002 3.593-.004l.042.41.344.004.088-.415c1.118.007 2.236.001 3.354.005l.012.576c-.583.012-1.165.007-1.747.011l-.001 1.182c.317.004.635.006.952.006l.001 1.769c.353.002.706.004 1.058.01l-.017.409c-.325-.004-.65-.005-.974-.007.122.481-.055 1.111-.636 1.145-.612.026-.841-.654-.653-1.148l-.671.01c-.067.75-.863 1.43-1.598 1.013-.52-.173-.414-.884-.888-1.086-.086.725-.769 1.48-1.544 1.123-.587-.139-.488-.907-.984-1.124-.108.528-.376 1.118-.979 1.198-.694.125-1.187-.509-1.29-1.127l-.587-.004c.157.524-.121 1.229-.762 1.139-.56-.082-.636-.683-.539-1.136l-.516.001v-.408l.664-.005.004-.796c.229-.005.46-.01.69-.013a61.514 61.514 0 0 0-.721-1.174c.241-.382.485-.763.724-1.148.328-.005.656-.007.984-.011-.078-.532-.182-1.062-.174-1.602a43.3 43.3 0 0 0 .37-.022c-.154-.828.113-1.699.874-2.13z"/>
</svg>
