<svg xmlns="http://www.w3.org/2000/svg" width="24" height="24">
    <path d="M11.923.407c.366-.055.661.208.905.444 3.492 3.509 7.004 6.998 10.496 10.507.376.331.406.965.022 1.302-3.559 3.564-7.122 7.123-10.684 10.685-.335.385-.982.374-1.315-.007C7.803 19.799 4.263 16.256.723 12.716c-.408-.337-.445-.991-.032-1.34C4.206 7.849 7.737 4.338 11.25.809c.193-.174.398-.383.673-.401zm-1.035 1.361c-3.156 3.164-6.323 6.317-9.481 9.479a6.647 6.647 0 0 0-.665.757c.138.208.283.414.461.593 3.442 3.439 6.883 6.877 10.32 10.321.204.26.599.451.841.124 3.528-3.511 7.037-7.043 10.565-10.554.275-.204.403-.589.094-.83-3.426-3.454-6.886-6.875-10.314-10.325a4.873 4.873 0 0 0-.707-.582c-.409.296-.762.658-1.114 1.018z"/>
    <path d="M10.656 3.942c.824-.419 1.782-.485 2.612-.043-.024.283-.438.308-.62.487.24.088.479.175.718.266-.208.109-.419.211-.613.342.064.248.418.287.614.425-.239.094-.479.185-.718.276.216.142.485.227.646.439-.15.145-.595.118-.54.384.196.097.402.17.605.252-.234.128-.473.245-.71.365.233.166.469.323.703.486-.302.018-.606.025-.908.029-.127.31-.248.623-.401.922a4.38 4.38 0 0 1-.475-.923 36.844 36.844 0 0 1-.882-.019c.23-.173.468-.338.695-.518-.238-.094-.475-.182-.712-.276.234-.144.474-.278.706-.426-.235-.096-.473-.187-.709-.282.232-.143.468-.278.7-.421-.238-.103-.478-.202-.715-.301.176-.155.62-.145.611-.431-.197-.113-.407-.2-.61-.3.238-.101.476-.2.713-.304-.233-.146-.474-.282-.708-.428zM7.51 16.25c1.483-2.245 2.976-4.483 4.476-6.718-.217 1.361-.56 2.7-.767 4.06-.041.254.248.311.437.25 1.902-.402 3.796-.847 5.701-1.235-1.752 2.491-3.484 4.999-5.273 7.463.541-1.774 1.384-3.458 1.811-5.262-.544-.042-1.062.14-1.583.264-1.6.397-3.202.787-4.802 1.178z"/>
    <path fill="#ffef00" d="M10.888 1.768c.352-.36.704-.721 1.114-1.018.252.174.492.364.707.582 3.428 3.45 6.888 6.871 10.314 10.325.31.241.181.626-.094.83-3.528 3.511-7.037 7.043-10.565 10.554-.242.328-.637.137-.841-.124-3.437-3.444-6.878-6.882-10.32-10.321a3.818 3.818 0 0 1-.461-.593c.203-.269.424-.522.665-.757 3.158-3.162 6.325-6.314 9.481-9.479zm-.232 2.174c.234.146.475.282.708.428-.236.103-.475.203-.713.304.203.1.413.187.61.3.01.286-.434.276-.611.431.238.1.478.198.715.301-.232.143-.468.278-.7.421.236.095.474.186.709.282-.232.148-.472.282-.706.426.236.094.474.182.712.276-.227.18-.464.346-.695.518.293.011.587.016.882.019.13.322.274.638.475.923.152-.299.274-.612.401-.922.302-.004.606-.011.908-.029-.234-.163-.47-.32-.703-.486.238-.12.476-.236.71-.365-.203-.082-.409-.155-.605-.252-.055-.266.39-.239.54-.384-.161-.212-.43-.298-.646-.439.239-.091.479-.182.718-.276-.197-.138-.551-.176-.614-.425.194-.131.406-.233.613-.342a47.686 47.686 0 0 0-.718-.266c.182-.179.596-.204.62-.487-.83-.442-1.788-.376-2.612.043zM7.51 16.25c1.601-.391 3.203-.781 4.802-1.178.521-.124 1.039-.306 1.583-.264-.427 1.804-1.27 3.488-1.811 5.262 1.789-2.464 3.521-4.972 5.273-7.463-1.906.388-3.799.833-5.701 1.235-.188.061-.478.005-.437-.25.206-1.36.55-2.699.767-4.06-1.5 2.234-2.993 4.472-4.476 6.718z"/>
</svg>
