<svg xmlns="http://www.w3.org/2000/svg" width="24" height="24">
    <path fill="#231f20" d="M11.684.767c.592-.078 1.164.204 1.566.624 3.253 3.107 6.514 6.208 9.756 9.325.731.658.692 1.894-.026 2.546-3.14 3.137-6.276 6.28-9.42 9.413-.666.671-1.859.695-2.527.016-3.311-3.17-6.634-6.328-9.941-9.502-.713-.671-.62-1.888.088-2.527 3.056-3.065 6.122-6.12 9.182-9.181.352-.368.798-.682 1.322-.714zm.108.259c-.622.008-1.081.466-1.481.886-2.974 2.987-5.969 5.953-8.94 8.942-.606.539-.696 1.572-.089 2.144 3.31 3.167 6.625 6.331 9.935 9.499.57.574 1.582.556 2.148-.013 3.148-3.132 6.28-6.278 9.424-9.413.611-.553.656-1.607.025-2.162-3.242-3.119-6.502-6.22-9.752-9.33-.331-.341-.784-.58-1.27-.553z"/>
    <path fill="#231f20" d="M11.435 1.483c.607-.164 1.274.04 1.709.487 3.055 2.908 6.102 5.822 9.148 8.74.707.604.752 1.778.091 2.432-2.953 2.965-5.918 5.921-8.879 8.88-.642.644-1.78.67-2.432.029-3.103-2.976-6.222-5.939-9.322-8.918-.67-.643-.587-1.804.086-2.414 2.856-2.864 5.722-5.72 8.581-8.581.283-.292.613-.56 1.018-.654zm.12.361c-.407.088-.709.394-.994.676-2.814 2.826-5.64 5.64-8.453 8.467-.56.487-.607 1.441-.037 1.94 3.092 2.948 6.178 5.904 9.269 8.855.534.52 1.462.458 1.957-.085 2.918-2.922 5.844-5.836 8.762-8.758.529-.49.568-1.41.02-1.902-3.034-2.926-6.091-5.826-9.134-8.741-.353-.37-.882-.588-1.391-.452z"/>
    <path fill="#231f20" d="M8.771 6.091c.47-.03.942-.032 1.412.002.016 2.341-.007 4.682.002 7.025.508.03 1.291-.534 1.606-.032-.738 1.631-1.494 3.263-2.314 4.854-.839-1.585-1.578-3.232-2.324-4.862.31-.485 1.099.068 1.608.041.011-2.342-.01-4.685.01-7.027zM12.503 10.47c.726-1.474 1.38-2.984 2.141-4.441.694 1.098 1.139 2.345 1.734 3.502.188.515.604.977.58 1.546-.536.006-1.052-.164-1.579-.245-.012 2.344.014 4.687-.013 7.031-.469.016-.94.019-1.408-.005-.017-2.341.005-4.681-.001-7.021-.493.061-.974.238-1.472.239-.239-.128-.06-.426.019-.605z"/>
    <path fill="#fff100" d="M11.792 1.026c.486-.026.938.212 1.27.553 3.251 3.11 6.51 6.211 9.752 9.33.631.556.586 1.609-.025 2.162-3.144 3.134-6.276 6.281-9.424 9.413-.566.569-1.578.587-2.148.013-3.31-3.168-6.625-6.332-9.935-9.499-.607-.572-.517-1.606.089-2.144 2.971-2.989 5.966-5.956 8.94-8.942.4-.42.859-.877 1.481-.886zm-.357.457c-.404.094-.734.362-1.018.654-2.86 2.861-5.725 5.717-8.581 8.581-.673.611-.756 1.771-.086 2.414 3.1 2.98 6.218 5.942 9.322 8.918.653.641 1.79.616 2.432-.029 2.96-2.959 5.926-5.915 8.879-8.88.661-.654.616-1.829-.091-2.432a3977.356 3977.356 0 0 0-9.148-8.74c-.434-.448-1.102-.652-1.709-.487z"/>
    <path fill="#fff100" d="M11.555 1.844c.509-.136 1.038.083 1.391.452 3.043 2.915 6.101 5.815 9.134 8.741.547.492.509 1.412-.02 1.902-2.918 2.922-5.844 5.836-8.762 8.758-.496.544-1.423.605-1.957.085-3.091-2.951-6.176-5.906-9.269-8.855-.57-.499-.523-1.453.037-1.94C4.922 8.16 7.748 5.346 10.562 2.52c.284-.282.587-.588.994-.676zM8.771 6.091c-.019 2.342.001 4.685-.01 7.027-.509.028-1.298-.526-1.608-.041.746 1.631 1.486 3.277 2.324 4.862.82-1.591 1.576-3.223 2.314-4.854-.314-.502-1.098.062-1.606.032-.01-2.342.013-4.684-.002-7.025-.47-.035-.942-.032-1.412-.002zm3.732 4.379c-.079.179-.258.476-.019.605.498-.001.979-.178 1.472-.239.006 2.34-.016 4.68.001 7.021.468.024.938.02 1.408.005.028-2.344.001-4.687.013-7.031.527.08 1.043.251 1.579.245.024-.569-.391-1.031-.58-1.546-.595-1.157-1.04-2.404-1.734-3.502-.761 1.457-1.415 2.968-2.141 4.441z"/>
</svg>
