<svg xmlns="http://www.w3.org/2000/svg" width="24" height="24">
    <path fill="#231f20" d="M11.57.772c.589-.082 1.165.192 1.572.605 3.154 3.007 6.298 6.024 9.452 9.029.938.638 1.176 2.086.283 2.867-3.146 3.138-6.277 6.293-9.428 9.425-.702.689-1.93.654-2.594-.073-3.265-3.136-6.544-6.258-9.815-9.388-.718-.637-.703-1.842-.018-2.497 3.043-3.074 6.118-6.121 9.172-9.187.37-.384.824-.734 1.376-.78zm-.364.363c-.379.144-.66.45-.942.728C7.271 4.87 4.259 7.858 1.27 10.869c-.624.552-.676 1.613-.041 2.177l9.887 9.442c.584.611 1.638.563 2.207-.044a6436.92 6436.92 0 0 0 9.42-9.422c.586-.562.578-1.585-.035-2.124-3.242-3.119-6.506-6.217-9.756-9.328-.437-.47-1.138-.682-1.746-.434z"/>
    <path fill="#231f20" d="M11.322 1.494c.637-.187 1.325.053 1.775.524 3.03 2.892 6.061 5.783 9.088 8.678.718.608.773 1.796.096 2.456-2.939 2.945-5.88 5.888-8.822 8.83-.643.684-1.824.732-2.492.058-3.085-2.957-6.185-5.902-9.27-8.86-.7-.635-.649-1.82.038-2.446 2.837-2.844 5.676-5.686 8.516-8.527.305-.302.641-.61 1.072-.714zm.121.359c-.347.078-.619.323-.865.564C7.723 5.284 4.848 8.131 2 11.004c-.539.488-.588 1.409-.04 1.909 3.088 2.957 6.181 5.906 9.274 8.857.526.534 1.453.485 1.954-.059 2.923-2.917 5.844-5.839 8.766-8.759.575-.517.563-1.49-.036-1.984-3.02-2.903-6.058-5.788-9.084-8.683-.354-.367-.886-.576-1.391-.433z"/>
    <path fill="#231f20" d="M9.19 5.824c.162-.256.47-.372.764-.36 1.202-.006 2.405.022 3.607.012.356.006.806-.011 1.025.331.54.838.852 1.8 1.396 2.635-.524.054-1.166-.184-1.584.236.505.046 1.013.035 1.519.037l-.001.461c-.497-.001-.994-.019-1.489.018.392.401 1.013.161 1.511.227l-.197.382.414.132c.007.241.042.635-.307.631-2.203.026-4.409-.032-6.613-.022-.474-.01-.995.139-1.43-.118-.224-.299.016-.612.312-.72a34.972 34.972 0 0 0-.142-.342c.498-.055 1.114.18 1.513-.212-.497-.046-.996-.034-1.494-.034-.001-.148-.004-.295-.006-.443.503.007 1.006.02 1.508-.016-.384-.47-1.046-.217-1.57-.286.59-.761.77-1.736 1.264-2.551zm-.161 1.761c1.93-.157 3.871-.08 5.801.042-.368-.514-.448-1.536-1.26-1.489a48.897 48.897 0 0 0-3.382-.018c-.782-.041-.829.961-1.159 1.465zm1.785.861c-.014.271-.028.544-.038.816.784.055 1.568.047 2.353.03-.023-.272.2-.78-.204-.834-.702-.047-1.408-.023-2.111-.012zM8.182 10.654a85.83 85.83 0 0 1 1.522-.024c-.043.323.102.728-.138.991-.407.07-.841.094-1.242-.018-.24-.244-.095-.642-.142-.949zM14.185 10.674a54.853 54.853 0 0 1 1.518.006c-.064.314.115.784-.188.985-.398.068-.83.09-1.22-.036-.192-.274-.078-.641-.109-.955zM7.818 13.793c-.088-1.007 1.08-1.399 1.834-1.693-.43.419-1.201.848-1.007 1.561.626 1.046 2.25 1.211 2.573 2.495.091.985-.772 1.685-1.409 2.306-.307-.484-.607-.971-.917-1.452.289-.133.895-.234.732-.678-.463-.935-1.573-1.472-1.806-2.539zM12.738 13.673c.005-.953 1.102-1.32 1.834-1.603-.418.412-1.228.871-.98 1.574.65 1.026 2.252 1.198 2.567 2.482.071.979-.775 1.676-1.417 2.291-.305-.481-.602-.968-.911-1.447.275-.143.823-.202.75-.622-.428-1.009-1.662-1.534-1.842-2.675z"/>
    <path fill="#fff100" d="M11.206 1.135c.608-.247 1.309-.036 1.746.434 3.25 3.11 6.514 6.209 9.756 9.328.613.539.62 1.562.035 2.124a6436.92 6436.92 0 0 1-9.42 9.422c-.569.607-1.622.655-2.207.044l-9.887-9.442c-.635-.564-.583-1.625.041-2.177 2.989-3.011 6.001-5.999 8.994-9.006.282-.278.563-.584.942-.728zm.116.359c-.431.104-.767.412-1.072.714-2.84 2.842-5.68 5.683-8.516 8.527-.688.625-.738 1.811-.038 2.446 3.085 2.958 6.185 5.903 9.27 8.86.668.674 1.849.626 2.492-.058 2.942-2.941 5.884-5.885 8.822-8.83.677-.66.622-1.848-.096-2.456-3.026-2.896-6.058-5.786-9.088-8.678-.45-.472-1.138-.712-1.775-.524z"/>
    <path fill="#fff100" d="M11.443 1.853c.505-.143 1.037.066 1.391.433 3.026 2.896 6.064 5.78 9.084 8.683.599.493.611 1.466.036 1.984-2.922 2.92-5.843 5.842-8.766 8.759-.5.544-1.428.593-1.954.059-3.092-2.951-6.186-5.9-9.274-8.857-.548-.5-.499-1.421.04-1.909 2.848-2.873 5.723-5.72 8.578-8.587.246-.241.518-.486.865-.564zM9.19 5.824c-.493.815-.673 1.79-1.264 2.551.523.068 1.186-.185 1.57.286-.503.036-1.006.023-1.508.016.002.148.005.295.006.443.498 0 .997-.012 1.494.034-.4.392-1.015.157-1.513.212l.142.342c-.296.108-.536.421-.312.72.436.257.956.108 1.43.118 2.204-.011 4.41.048 6.613.022.349.004.314-.39.307-.631l-.414-.132c.066-.127.132-.253.197-.382-.498-.066-1.118.174-1.511-.227.496-.037.992-.019 1.489-.018l.001-.461c-.506-.002-1.014.008-1.519-.037.418-.42 1.06-.182 1.584-.236-.544-.835-.856-1.798-1.396-2.635-.218-.342-.668-.325-1.025-.331-1.202.01-2.405-.018-3.607-.012-.294-.012-.602.104-.764.36zm-1.008 4.83c.047.307-.098.706.142.949.401.112.835.088 1.242.018.24-.263.095-.668.138-.991a85.83 85.83 0 0 0-1.522.024zm6.003.02c.031.314-.083.682.109.955.39.126.822.104 1.22.036.304-.202.125-.671.188-.985a54.853 54.853 0 0 0-1.518-.006zm-6.367 3.119c.233 1.067 1.343 1.604 1.806 2.539.163.444-.443.545-.732.678.31.481.61.968.917 1.452.637-.622 1.5-1.321 1.409-2.306-.323-1.284-1.946-1.448-2.573-2.495-.194-.713.577-1.142 1.007-1.561-.754.294-1.921.686-1.834 1.693zm4.92-.12c.18 1.141 1.414 1.666 1.842 2.675.073.42-.475.479-.75.622.308.479.606.966.911 1.447.642-.614 1.488-1.312 1.417-2.291-.314-1.284-1.916-1.456-2.567-2.482-.247-.703.563-1.163.98-1.574-.732.283-1.829.65-1.834 1.603z"/>
    <path fill="#fff100" d="M9.029 7.585c.33-.504.377-1.506 1.159-1.465a48.897 48.897 0 0 1 3.382.018c.812-.047.892.976 1.26 1.489-1.93-.122-3.871-.199-5.801-.042zM10.814 8.446c.703-.011 1.409-.035 2.111.012.404.054.181.562.204.834-.785.017-1.57.025-2.353-.03.011-.272.024-.545.038-.816z"/>
</svg>
