<svg xmlns="http://www.w3.org/2000/svg" width="24" height="24">
    <path fill="#ed171f" d="M11.857 1.758c2.285 3.914 4.53 7.851 6.814 11.765-.758.099-1.524.013-2.285.057-1.482-2.624-3.011-5.222-4.517-7.832a340.31 340.31 0 0 0-4.521 7.833c-.776-.024-1.551.003-2.326-.019 2.293-3.927 4.55-7.875 6.836-11.805zM9.759 17.457c.167-.026.339-.024.507.003.318.054.641.067.963.059 3.247-.014 6.495.013 9.742-.031.928 1.592 1.838 3.194 2.772 4.781v.016H0v-.061c.923-1.567 1.822-3.148 2.736-4.721 2.34-.037 4.689.091 7.023-.046zm-6.31 2.831c5.595-.015 11.19-.002 16.785-.007-.463-.941-1.032-1.828-1.551-2.74-.501-.014-1.005-.039-1.504.028l-.023-.04c-3.537.014-7.076-.011-10.613.016-.497-.02-.993-.022-1.491-.011-.56.902-1.074 1.833-1.603 2.754z"/>
    <path fill="#fa5052" d="M7.347 13.582a338.2 338.2 0 0 1 4.521-7.833c1.506 2.61 3.035 5.208 4.517 7.832a28.23 28.23 0 0 1-1.512.006 240.533 240.533 0 0 0-3.02-5.234c-1.007 1.742-2.036 3.473-3.009 5.234-.499.008-.999.012-1.497-.004zM3.449 20.288c.529-.921 1.043-1.852 1.603-2.754.497-.011.993-.009 1.491.011-.245.477-.529.932-.793 1.398 4.07-.001 8.139.009 12.209-.004-.252-.461-.525-.91-.78-1.37.499-.067 1.003-.042 1.504-.028.519.912 1.088 1.799 1.551 2.74-5.595.005-11.189-.008-16.785.007z"/>
    <path fill="#fff" d="M11.854 8.353a249.058 249.058 0 0 1 3.02 5.234c-2.009-.004-4.019-.004-6.029 0 .974-1.761 2.002-3.492 3.009-5.234zM6.113 13.749c1.167-.247 1.85 1.275 1.334 2.189-.237.596-.979.933-1.569.645-1.131-.535-1.024-2.538.235-2.835zm.09.521c-.829.258-.764 1.802.14 1.887 1.053-.046.952-2.066-.14-1.887zM8.185 13.756l.53-.001c.003.963-.003 1.925.003 2.888-.176.006-.351.009-.526.015-.016-.968-.003-1.935-.007-2.902zM14.068 13.749l.529.013c-.006.501-.003 1.004-.003 1.506l.724-.73c.243-.002.488-.002.732.002-.285.302-.58.593-.869.891.28.407.567.809.843 1.22-.663.224-.917-.406-1.227-.843-.287.193-.193.551-.204.843h-.525c0-.967-.003-1.935.001-2.901zM12.234 14.715c.347-.291.849-.255 1.226-.044-.093.139-.187.276-.282.413-.34-.134-.795.021-.826.427-.066.332.236.715.589.628.289-.12.384.202.519.385-.346.178-.777.246-1.121.026-.646-.365-.702-1.398-.105-1.835zM9.252 14.54c.185-.003.369-.004.555-.008.176.446.33.898.502 1.345.167-.446.328-.893.495-1.34.186 0 .372 0 .558.002-.369.972-.687 1.965-1.096 2.921a1.658 1.658 0 0 0-.507-.003c.057-.357.357-.712.173-1.075-.231-.613-.454-1.227-.68-1.843zM17.203 16.655c-.863-.294-.891-1.742-.048-2.077.256-.112.533-.026.784.057.161-.141.382-.09.578-.101v2.122c-.196-.003-.402.012-.581-.084-.233.079-.488.172-.733.083zm.224-1.624c-.499.197-.429 1.12.137 1.153.667-.039.557-1.34-.137-1.153zM6.543 17.545c3.537-.027 7.076-.003 10.613-.016l.023.04c.255.459.528.909.78 1.37-4.07.013-8.139.003-12.209.004.264-.466.548-.921.793-1.398z"/>
    <path d="M18.671 13.523c.785 1.311 1.537 2.642 2.3 3.965-3.247.044-6.495.017-9.742.031a5.006 5.006 0 0 1-.963-.059c.409-.956.728-1.949 1.096-2.921-.186-.002-.372-.002-.558-.002-.166.447-.327.894-.495 1.34-.172-.447-.327-.899-.502-1.345l-.555.008c.225.615.449 1.23.68 1.843.184.363-.116.718-.173 1.075-2.333.137-4.683.009-7.023.046.761-1.314 1.507-2.637 2.285-3.94.775.022 1.551-.005 2.326.019.499.016.999.012 1.497.004 2.01-.004 4.02-.004 6.029 0a28.23 28.23 0 0 0 1.512-.006c.761-.045 1.527.041 2.285-.057zm-12.558.226c-1.259.297-1.365 2.3-.235 2.835.59.288 1.331-.05 1.569-.645.516-.915-.166-2.436-1.334-2.189zm2.072.007c.003.968-.009 1.935.007 2.902.175-.006.351-.009.526-.015-.007-.963-.001-1.925-.003-2.888l-.53.001zm5.883-.007c-.003.967-.001 1.935-.001 2.901h.525c.011-.292-.083-.651.204-.843.31.436.565 1.066 1.227.843-.276-.411-.563-.813-.843-1.22.289-.297.585-.589.869-.891a44.684 44.684 0 0 0-.732-.002l-.724.73c.001-.502-.003-1.005.003-1.506-.177-.003-.352-.009-.529-.013zm-1.834.966c-.597.437-.542 1.47.105 1.835.345.22.775.153 1.121-.026-.135-.183-.231-.505-.519-.385-.353.087-.655-.297-.589-.628.031-.405.486-.561.826-.427.095-.137.189-.274.282-.413-.377-.212-.879-.247-1.226.044zm4.969 1.94c.245.089.5-.004.733-.083.179.096.385.081.581.084v-2.122c-.195.011-.417-.039-.578.101-.251-.082-.528-.169-.784-.057-.843.335-.815 1.783.048 2.077z"/>
    <path d="M6.203 14.27c1.092-.179 1.193 1.84.14 1.887-.903-.085-.969-1.629-.14-1.887zM17.427 15.031c.694-.187.804 1.113.137 1.153-.567-.033-.636-.956-.137-1.153z"/>
</svg>
