<svg xmlns="http://www.w3.org/2000/svg" width="24" height="24">
    <path fill="#c0111e" d="M11.347 1.333h1.468c.581.242 1.092.655 1.396 1.213a1073.067 1073.067 0 0 1 9.698 16.474c.778 1.18.271 3.058-1.146 3.456-1.341.185-2.707.089-4.056.19H5.047c-1.277-.124-2.579-.005-3.84-.259-.63-.09-.924-.709-1.206-1.202v-1.676c3.14-5.681 6.53-11.225 9.836-16.812.319-.628.838-1.148 1.511-1.385zm.497 2.59C8.631 9.386 5.396 14.837 2.2 20.311c6.584.005 13.169.007 19.753 0a4015.956 4015.956 0 0 0-9.813-16.66c-.18-.063-.208.172-.295.272z"/>
    <path fill="#fff" d="M11.844 3.923c.087-.1.116-.335.295-.272a4151.764 4151.764 0 0 1 9.813 16.66c-6.584.007-13.169.005-19.753 0C5.395 14.837 8.63 9.387 11.843 3.923zm-.685 5.857c.428.811 1.736.817 2.017 1.748-.052 1.402.144 2.836-.116 4.219-.564.668-1.465 1.027-1.996 1.738-.116.759-.023 1.543-.048 2.312.42.003.84.003 1.26-.001.035-.595-.063-1.206.048-1.788.513-.451 1.088-.825 1.596-1.278.461-.54.53-1.295.526-1.976-.015-1.156.019-2.316-.015-3.471-.184-1.046-1.227-1.544-2.036-2.054.007-.537 0-1.072.008-1.609-.204-.221-.42-.431-.643-.633-1.005.587-.537 1.844-.603 2.796zm-.11 2.344c-.031.864-.028 1.73-.007 2.594.259.4.879.343 1.244.087.016-.888.013-1.778.001-2.668-.379-.272-.849-.25-1.238-.013z"/>
    <path fill="#030303" d="M11.159 9.78c.066-.951-.403-2.21.603-2.796.223.203.439.412.643.633-.008.537-.002 1.072-.008 1.609.811.51 1.853 1.008 2.036 2.054.034 1.156 0 2.315.015 3.471.004.682-.064 1.437-.526 1.976-.508.453-1.084.828-1.596 1.278-.111.582-.013 1.194-.048 1.788-.42.004-.84.004-1.26.001.026-.769-.067-1.552.048-2.312.53-.711 1.432-1.069 1.996-1.738.259-1.382.063-2.816.116-4.219-.28-.932-1.588-.938-2.017-1.748z"/>
    <path fill="#030303" d="M11.049 12.124c.389-.236.86-.259 1.238.013.012.89.015 1.78-.002 2.668-.365.256-.985.313-1.244-.087-.021-.864-.024-1.73.007-2.594z"/>
</svg>
