<svg xmlns="http://www.w3.org/2000/svg" width="24" height="24">
    <path fill="#181818" opacity=".76" d="M11.127 1.86c.439-.615 1.577-.617 2.012.003a1.617 1.617 0 0 0-2.012-.003z"/>
    <path fill="#fff" d="M11.127 1.86a1.617 1.617 0 0 1 2.012.003c.108.095.19.218.25.348a.81.81 0 0 0 .168.284l.112.192a.758.758 0 0 0 .161.279c.076.095.141.199.184.313.032.107.09.203.164.286l.114.191a.777.777 0 0 0 .161.278c.075.096.14.201.184.314a.794.794 0 0 0 .164.288l.112.188a.79.79 0 0 0 .161.279c.075.097.14.203.186.316a.782.782 0 0 0 .164.29c.076.1.146.207.19.324.032.107.09.203.164.286l.113.191a.766.766 0 0 0 .161.279c.075.095.14.199.184.313.033.107.09.204.164.287l.113.189a.787.787 0 0 0 .16.279c.075.097.14.201.185.316a.79.79 0 0 0 .165.288c.076.1.146.208.19.326.032.107.09.202.164.284l.111.19a.787.787 0 0 0 .162.28c.075.096.14.2.185.315.032.107.09.203.164.286l.113.19a.77.77 0 0 0 .161.28c.074.096.14.2.185.315a.774.774 0 0 0 .164.288c.077.1.147.207.191.326a.73.73 0 0 0 .164.284l.112.191a.759.759 0 0 0 .162.28c.075.095.141.199.184.314.032.107.09.203.164.285l.114.192a.79.79 0 0 0 .161.279c.075.095.14.2.184.314a.798.798 0 0 0 .164.287l.112.188a.79.79 0 0 0 .161.279c.075.097.14.202.186.316a.77.77 0 0 0 .164.289c.077.1.146.207.19.325.032.107.09.203.164.285l.113.192a.762.762 0 0 0 .161.278c.075.096.14.2.184.314.032.107.09.204.164.287l.113.189a.787.787 0 0 0 .16.279c.075.097.14.201.185.316a.79.79 0 0 0 .165.288c.076.1.145.208.19.326.031.106.09.202.164.284l.112.191a.759.759 0 0 0 .162.28c.075.095.14.199.184.314.032.107.09.203.164.286l.114.19a.793.793 0 0 0 .159.281c.147.199.272.418.364.648.067.383.037.777-.099 1.142a.723.723 0 0 1-.131.174c-.11.099-.214.203-.312.314a.642.642 0 0 1-.148.117 2.486 2.486 0 0 1-.877.162c-6.638-.002-13.276-.001-19.915-.001-.563-.007-1.146.061-1.68-.161-.057-.028-.103-.074-.148-.117a3.662 3.662 0 0 0-.311-.312.752.752 0 0 1-.123-.159 2.152 2.152 0 0 1-.107-1.162 2.96 2.96 0 0 1 .363-.644.825.825 0 0 0 .159-.281l.113-.191a.79.79 0 0 0 .165-.286c.044-.113.108-.217.183-.312a.798.798 0 0 0 .16-.278l.114-.193a.762.762 0 0 0 .164-.285 1.31 1.31 0 0 1 .191-.325.776.776 0 0 0 .165-.29c.044-.114.11-.218.185-.315a.821.821 0 0 0 .161-.279l.112-.19a.77.77 0 0 0 .164-.287c.044-.113.109-.217.184-.312a.796.796 0 0 0 .161-.279l.114-.192a.774.774 0 0 0 .164-.286c.045-.117.114-.225.19-.324a.794.794 0 0 0 .165-.289c.045-.115.111-.22.185-.316a.833.833 0 0 0 .162-.279l.111-.188a.784.784 0 0 0 .164-.287c.044-.114.109-.218.184-.314a.792.792 0 0 0 .161-.278l.113-.191a.774.774 0 0 0 .164-.286c.045-.117.114-.224.189-.324a.794.794 0 0 0 .165-.291c.045-.115.111-.22.187-.317a.838.838 0 0 0 .161-.279l.11-.186a.786.786 0 0 0 .165-.289c.044-.113.11-.217.184-.313a.805.805 0 0 0 .161-.279l.114-.192a.788.788 0 0 0 .164-.286c.044-.113.108-.216.182-.311a.805.805 0 0 0 .161-.279l.114-.193a.762.762 0 0 0 .164-.285c.045-.118.115-.226.191-.326a.772.772 0 0 0 .165-.289c.045-.114.11-.218.185-.315a.821.821 0 0 0 .161-.279l.112-.189a.798.798 0 0 0 .164-.287c.044-.114.109-.217.184-.313a.796.796 0 0 0 .161-.279l.113-.192a.762.762 0 0 0 .164-.285c.044-.118.113-.226.19-.325a.794.794 0 0 0 .165-.289c.045-.115.111-.22.185-.316a.828.828 0 0 0 .162-.28l.111-.187a.802.802 0 0 0 .164-.288c.044-.114.109-.218.184-.314a.792.792 0 0 0 .161-.278c.028-.048.084-.144.113-.191a.774.774 0 0 0 .164-.286c.045-.117.114-.224.189-.324a.794.794 0 0 0 .165-.291 1.29 1.29 0 0 1 .187-.318c.072-.081.127-.173.17-.273a.763.763 0 0 1 .164-.215zm.979-.04a1.147 1.147 0 0 0-.975.603C7.722 8.288 4.317 14.155.908 20.019c-.2.35-.471.711-.417 1.14.042.592.606 1.065 1.195 1.024 6.993-.003 13.986.003 20.978-.003.838.03 1.42-1.007.956-1.708-3.492-6.018-6.988-12.033-10.484-18.048a1.147 1.147 0 0 0-1.03-.603z"/>
    <path fill="#fff" d="M3.588 19.916C6.432 15.008 9.292 10.111 12.13 5.2c2.852 4.904 5.701 9.81 8.549 14.716-5.697.003-11.395.003-17.092 0zm5.304-6.934c-.407.055-.42.554-.198.812.679.844 1.753 1.269 2.469 2.053-.884-.386-1.581-1.083-2.384-1.603.313.988 1.334 1.458 2.18 1.913.244.088.212.373.233.583a4.951 4.951 0 0 0-1.045.268 1.99 1.99 0 0 1-.811-.484c-.162-.226-.468.041-.435.255.104.173.329.191.492.282-.227.1-.513.045-.678.263.132.226.372.232.596.157.106.266-.391.332-.226.624.158.348.55.089.604-.188.667.123 1.316-.083 1.924-.333.351.175.776.14 1.102.362a3.174 3.174 0 0 0-.366.298l.26.204-.114.317.268.092a.703.703 0 0 0 .087.353 3.696 3.696 0 0 1 1.096-.553c.922-.322 1.772-.81 2.601-1.318.195-.197-.128-.399-.251-.535.371.052.98-.148.784-.627-.756-.899-1.74-1.594-2.781-2.112-.672-.146-1.272-.493-1.889-.781-.432-.222-.92-.392-1.214-.804-.801-.013-1.52.395-2.302.501z"/>
    <path fill="#fff" d="M9.685 13.688c-.004-.306.338-.393.58-.42-.279.241-.316.597-.128.91-.18-.129-.459-.226-.452-.491zM10.491 13.29c.17.151.44.304.374.575-.016.287-.364.276-.565.34.267-.243.347-.588.191-.916zM11.151 13.301c.325.068.568.305.823.5a21.913 21.913 0 0 0 2.909 1.979c.183.108.39.212.459.431-1.053-.444-1.979-1.146-2.912-1.796-.444-.349-.945-.649-1.279-1.114zM14.872 14.727c-.163-.116.107-.232.11-.098.117.767.892 1.124 1.36 1.658.067.059.031.157.028.233-.472-.625-1.39-.93-1.498-1.793zM10.878 14.983c.69.099.907.888 1.34 1.334.3.452.931.456 1.356.188.187-.146.394-.042.573.058-.586-.012-1.192.511-1.753.108-.576-.497-.88-1.244-1.516-1.689zM13.364 17.182c.867-.238 1.795-.542 2.691-.268-1.052.108-2.238.029-3.14.679.356.706 1.241.193 1.832.392-.393.156-.828.089-1.241.13-.297.023-.685-.162-.676-.502.017-.272.314-.366.533-.43z"/>
    <path fill="#c00" d="M12.106 1.82c.423-.016.83.232 1.03.603 3.495 6.015 6.992 12.03 10.484 18.048.464.701-.118 1.739-.956 1.708-6.992.005-13.985 0-20.978.003-.588.041-1.153-.432-1.195-1.024-.054-.428.217-.789.417-1.14C4.317 14.154 7.722 8.287 11.131 2.422c.192-.354.569-.597.975-.603zM3.588 19.916c5.697.003 11.395.003 17.092 0-2.848-4.907-5.698-9.812-8.549-14.716-2.838 4.911-5.698 9.809-8.542 14.716z"/>
    <path fill="#1b1b1b" opacity=".79" d="M10.794 2.348c-.126-.1.025-.345.17-.273-.043.1-.098.192-.17.273z"/>
    <path fill="#323232" opacity=".89" d="M13.389 2.212c.147-.066.279.183.168.284a.828.828 0 0 1-.168-.284zM18.814 11.544c.146-.064.276.184.164.284a.732.732 0 0 1-.164-.284z"/>
    <path fill="#252525" opacity=".84" d="M10.442 2.957c-.113-.1.018-.345.165-.291a.832.832 0 0 1-.165.291zM17.49 9.264c.146-.063.284.183.162.28a.787.787 0 0 1-.162-.28zM5.02 12.291c-.113-.101.018-.346.165-.291a.832.832 0 0 1-.165.291zM22.913 18.598c.146-.063.284.183.162.28a.759.759 0 0 1-.162-.28z"/>
    <path fill="#262626" opacity=".85" d="M13.669 2.688c.146-.063.284.183.161.279a.758.758 0 0 1-.161-.279zM19.091 12.02c.146-.063.283.183.162.28a.759.759 0 0 1-.162-.28z"/>
    <path fill="#2e2e2e" opacity=".87" d="M10.088 3.567c-.113-.1.018-.348.164-.286a.786.786 0 0 1-.164.286z"/>
    <path fill="#2f2f2f" opacity=".88" d="M14.014 3.28c.147-.061.276.187.164.286a.774.774 0 0 1-.164-.286zM15.614 6.035c.147-.061.276.186.164.286a.76.76 0 0 1-.164-.286zM21.036 15.368c.147-.062.276.186.164.285a.749.749 0 0 1-.164-.285z"/>
    <path fill="#222" opacity=".83" d="M9.814 4.036c-.124-.095.015-.341.161-.278a.792.792 0 0 1-.161.278zM4.392 13.37c-.124-.096.015-.342.161-.278a.792.792 0 0 1-.161.278z"/>
    <path fill="#222" opacity=".84" d="M14.292 3.757c.145-.063.284.183.161.278a.777.777 0 0 1-.161-.278zM19.714 13.091c.146-.063.284.183.161.279a.79.79 0 0 1-.161-.279z"/>
    <path fill="#2a2a2a" opacity=".86" d="M9.466 4.638c-.114-.1.017-.347.164-.288a.833.833 0 0 1-.164.288zM18.46 10.93c.147-.058.276.188.164.288a.774.774 0 0 1-.164-.288zM4.044 13.971c-.113-.1.018-.347.164-.287a.804.804 0 0 1-.164.287z"/>
    <path fill="#2b2b2b" opacity=".86" d="M14.636 4.349c.147-.059.277.188.164.288a.766.766 0 0 1-.164-.288zM20.059 13.684c.147-.06.277.187.164.287a.77.77 0 0 1-.164-.287z"/>
    <path fill="#1f1f1f" opacity=".82" d="M9.193 5.105c-.124-.096.015-.343.162-.28a.828.828 0 0 1-.162.28zM3.771 14.438c-.124-.097.015-.343.162-.279a.833.833 0 0 1-.162.279z"/>
    <path fill="#202020" opacity=".82" d="M14.913 4.825c.146-.063.284.183.161.279a.79.79 0 0 1-.161-.279zM7.593 7.86c-.125-.096.014-.342.161-.279a.821.821 0 0 1-.161.279zM20.335 14.158c.146-.063.284.183.161.279a.79.79 0 0 1-.161-.279zM2.171 17.194c-.125-.096.014-.342.161-.279a.821.821 0 0 1-.161.279z"/>
    <path fill="#262626" opacity=".85" d="M8.843 5.71c-.113-.101.018-.346.165-.289a.824.824 0 0 1-.165.289zM3.42 15.044c-.113-.101.018-.346.165-.289a.824.824 0 0 1-.165.289z"/>
    <path fill="#272727" opacity=".85" d="M15.26 5.42c.147-.056.277.188.164.29a.748.748 0 0 1-.164-.29zM20.682 14.754c.146-.056.276.188.164.289a.744.744 0 0 1-.164-.289z"/>
    <path fill="#2e2e2e" opacity=".88" d="M8.488 6.321c-.113-.1.018-.348.164-.285a.773.773 0 0 1-.164.285zM19.436 12.613c.147-.062.276.186.164.285a.762.762 0 0 1-.164-.285zM3.067 15.654c-.113-.1.017-.348.164-.286a.758.758 0 0 1-.164.286z"/>
    <path fill="#232323" opacity=".84" d="M8.214 6.792c-.125-.096.015-.342.161-.279a.796.796 0 0 1-.161.279zM2.792 16.125c-.125-.096.015-.342.161-.279a.796.796 0 0 1-.161.279z"/>
    <path fill="#242424" opacity=".84" d="M15.892 6.512c.146-.063.285.183.161.279a.766.766 0 0 1-.161-.279zM6.613 9.548c-.124-.096.015-.342.161-.279a.805.805 0 0 1-.161.279zM21.314 15.845c.145-.064.284.182.161.278a.762.762 0 0 1-.161-.278zM1.192 18.88c-.125-.095.014-.341.16-.278a.798.798 0 0 1-.16.278z"/>
    <path fill="#2a2a2a" opacity=".87" d="M7.866 7.392c-.113-.1.017-.348.164-.287a.82.82 0 0 1-.164.287zM2.444 16.724c-.113-.1.018-.348.164-.287a.79.79 0 0 1-.164.287z"/>
    <path fill="#2b2b2b" opacity=".87" d="M16.236 7.104c.147-.06.276.187.164.287a.756.756 0 0 1-.164-.287zM21.659 16.437c.147-.06.276.187.164.287a.756.756 0 0 1-.164-.287z"/>
    <path fill="#202020" opacity=".82" d="M16.514 7.58c.145-.063.284.183.16.279a.787.787 0 0 1-.16-.279zM21.936 16.914c.145-.063.284.183.16.279a.787.787 0 0 1-.16-.279z"/>
    <path fill="#282828" opacity=".85" d="M7.243 8.464c-.113-.1.018-.346.165-.289a.8.8 0 0 1-.165.289zM1.82 17.798c-.113-.101.018-.347.165-.29a.813.813 0 0 1-.165.29z"/>
    <path fill="#282828" opacity=".86" d="M16.859 8.175c.147-.057.277.188.165.288a.763.763 0 0 1-.165-.288zM22.281 17.508c.147-.057.277.188.165.288a.763.763 0 0 1-.165-.288z"/>
    <path fill="#2f2f2f" opacity=".88" d="M6.888 9.076c-.112-.1.017-.348.164-.285a.747.747 0 0 1-.164.285zM1.466 18.409c-.112-.1.018-.348.164-.285a.747.747 0 0 1-.164.285z"/>
    <path fill="#303030" opacity=".89" d="M17.214 8.789c.147-.063.276.185.164.284a.745.745 0 0 1-.164-.284zM22.636 18.123c.146-.064.276.184.164.284a.74.74 0 0 1-.164-.284z"/>
    <path fill="#2c2c2c" opacity=".87" d="M6.267 10.145c-.114-.1.018-.348.164-.286a.8.8 0 0 1-.164.286zM.844 19.478c-.112-.1.018-.348.165-.286a.802.802 0 0 1-.165.286z"/>
    <path fill="#2d2d2d" opacity=".87" d="M17.836 9.859c.147-.061.276.186.164.286a.76.76 0 0 1-.164-.286zM4.666 12.9c-.113-.1.017-.348.164-.286a.786.786 0 0 1-.164.286zM23.259 19.192c.146-.061.276.186.164.286a.774.774 0 0 1-.164-.286z"/>
    <path fill="#212121" opacity=".82" d="M5.992 10.616c-.124-.096.015-.342.161-.279a.805.805 0 0 1-.161.279zM.572 19.95c-.125-.096.012-.343.159-.281a.825.825 0 0 1-.159.281z"/>
    <path fill="#212121" opacity=".83" d="M18.114 10.335c.146-.062.284.184.161.28a.77.77 0 0 1-.161-.28zM23.536 19.668c.146-.062.284.185.159.281a.793.793 0 0 1-.159-.281z"/>
    <path fill="#292929" opacity=".86" d="M5.643 11.218c-.113-.1.018-.347.165-.289a.824.824 0 0 1-.165.289z"/>
    <path fill="#1d1d1d" opacity=".81" d="M5.372 11.683c-.125-.096.015-.343.161-.279a.838.838 0 0 1-.161.279z"/>
    <path fill="#040404" d="M8.892 12.982c.782-.107 1.501-.515 2.302-.501.294.412.782.581 1.214.804.617.288 1.217.636 1.889.781 1.041.518 2.026 1.213 2.781 2.112.196.478-.413.679-.784.627.123.136.445.338.251.535-.828.508-1.679.996-2.601 1.318-.39.13-.768.301-1.096.553a.703.703 0 0 1-.087-.353l-.268-.092c.037-.107.076-.212.114-.317-.086-.069-.172-.138-.26-.204.113-.109.238-.205.366-.298-.326-.221-.751-.187-1.102-.362-.608.251-1.257.456-1.924.333-.053.277-.445.536-.604.188-.165-.292.332-.358.226-.624-.225.075-.465.068-.596-.157.165-.218.452-.164.678-.263-.163-.091-.388-.108-.492-.282-.033-.214.273-.481.435-.255.229.223.503.391.811.484.336-.133.69-.212 1.045-.268-.02-.21.012-.495-.233-.583-.845-.455-1.867-.924-2.18-1.913.803.52 1.5 1.217 2.384 1.603-.716-.784-1.79-1.21-2.469-2.053-.221-.259-.209-.757.198-.812zm.793.706c-.006.265.273.362.452.491-.188-.313-.151-.669.128-.91-.243.027-.585.114-.58.42zm.806-.398c.156.328.076.673-.191.916.202-.065.549-.053.565-.34.066-.271-.204-.424-.374-.575zm.66.011c.334.465.836.764 1.279 1.114.933.651 1.859 1.353 2.912 1.796-.068-.219-.276-.324-.459-.431a21.818 21.818 0 0 1-2.909-1.979c-.255-.196-.498-.432-.823-.5zm3.721 1.426c.108.863 1.026 1.168 1.498 1.793.004-.076.039-.174-.028-.233-.468-.533-1.243-.891-1.36-1.658-.004-.134-.273-.018-.11.098zm-3.994.256c.636.444.94 1.192 1.516 1.689.561.403 1.167-.121 1.753-.108-.18-.1-.387-.204-.573-.058-.425.268-1.056.263-1.356-.188-.434-.446-.651-1.236-1.34-1.334zm2.486 2.199c-.22.064-.516.158-.533.43-.01.34.379.525.676.502.412-.041.848.027 1.241-.13-.591-.199-1.476.314-1.832-.392.901-.65 2.088-.571 3.14-.679-.896-.274-1.824.03-2.691.268zM.898 22.345c.534.222 1.117.154 1.68.161 6.638 0 13.276-.001 19.915.001.3.005.596-.06.877-.162-.204.217-.511.234-.788.239H1.686c-.276-.005-.584-.022-.788-.239z"/>
    <path fill="#161616" opacity=".84" d="M.316 21.756c-.279-.293-.335-.828-.107-1.162-.069.39-.038.792.107 1.162zM24.059 20.597c.225.324.173.853-.099 1.142.136-.365.165-.759.099-1.142z"/>
    <path fill="#242424" opacity=".8" d="M.438 21.916c.11.098.214.202.311.312-.16.064-.376-.152-.311-.312z"/>
    <path fill="#252525" opacity=".8" d="M23.517 22.228c.098-.111.202-.215.312-.314.066.161-.152.377-.312.314z"/>
</svg>
