<svg xmlns="http://www.w3.org/2000/svg" width="24" height="24">
    <path fill="#ffde00" d="M11.825 0h.356c.386.104.751.293 1.028.587 3.42 3.424 6.842 6.844 10.265 10.265.228.226.395.502.526.793v.71c-.115.3-.276.584-.506.811-3.224 3.218-6.443 6.442-9.666 9.661-.443.432-.84.949-1.439 1.172h-.72a2.256 2.256 0 0 1-.752-.47c-3.44-3.442-6.88-6.887-10.328-10.321-.298-.275-.485-.642-.588-1.031v-.31c.096-.373.265-.731.55-.998C3.97 7.448 7.397 4.035 10.813.61c.274-.294.63-.493 1.013-.611zm-.265.406c-.211.091-.379.252-.544.408C7.58 4.26 4.132 7.695.697 11.142c-.526.468-.492 1.349.041 1.799 3.484 3.479 6.961 6.962 10.448 10.438.454.482 1.28.451 1.715-.041 3.481-3.476 6.959-6.958 10.439-10.435.518-.461.505-1.331-.017-1.783-3.46-3.461-6.914-6.926-10.378-10.384-.343-.377-.91-.538-1.386-.33z"/>
    <path fill="#ffde00" d="M11.92.757c.308-.058.572.142.775.347 3.44 3.443 6.882 6.884 10.319 10.331.347.289.37.856.019 1.152L12.586 23.032c-.295.349-.863.331-1.15-.019C7.955 19.529 4.468 16.051.99 12.565c-.325-.288-.305-.827.018-1.108C4.441 8.006 7.894 4.574 11.327 1.124c.17-.157.35-.341.593-.366zM8.681 5.918c-.565.095-.866.827-.526 1.291.323.541 1.232.468 1.462-.121.307-.588-.296-1.337-.936-1.17zm.175 2.22c-.418.539-.676 1.187-1.031 1.77-.61.017-1.219-.018-1.829.014-.377-.031-.618.486-.36.756.175.143.416.221.522.436.854 1.502 1.72 3.001 2.568 4.507-1.086-.077-2.417.323-3.233-.626-.012.724.619 1.315 1.338 1.272 3.781.01 7.564.005 11.346.002a22.698 22.698 0 0 0-.012-.641c-1.204.01-2.407-.005-3.611.008.104-.259.216-.556.024-.805-1.192-2.05-2.408-4.087-3.596-6.14.437.162.895.28 1.307.5.492.533.71 1.312 1.277 1.76 1.745-.068 3.494-.011 5.242-.038a32.111 32.111 0 0 0-.01-.305c-1.513-.004-3.028.001-4.541-.001-.187-.536-.541-.986-.833-1.466-.521-1.154-1.964-1.208-2.978-1.728-.528.245-1.093.419-1.59.725z"/>
    <path fill="#ffde00" d="M8.387 10.793c.372-.449.581-1.008.871-1.51.348.632.69 1.268 1.037 1.902-.349.626-.766 1.218-1.082 1.861-.097.883.029 1.78-.066 2.665-1.002-1.573-1.864-3.235-2.807-4.844.679-.053 1.385.091 2.047-.074zM11.377 11.717c.806 1.277 1.517 2.615 2.275 3.92-1.099.005-2.198.004-3.299.001.023-.752-.052-1.513.032-2.261.298-.571.665-1.104.991-1.661z"/>
    <path d="M11.56.406c.476-.208 1.043-.047 1.386.33 3.463 3.457 6.918 6.923 10.378 10.384.522.452.535 1.322.017 1.783-3.48 3.478-6.958 6.959-10.439 10.435-.434.492-1.261.523-1.715.041C7.7 19.904 4.222 16.42.739 12.941c-.533-.45-.566-1.331-.041-1.799C4.132 7.694 7.581 4.26 11.017.814c.164-.156.332-.317.544-.408zm.36.351c-.242.025-.422.209-.593.366-3.433 3.45-6.886 6.882-10.319 10.333-.323.281-.343.82-.018 1.108 3.478 3.486 6.965 6.965 10.446 10.448.287.35.854.368 1.15.019 3.484-3.481 6.965-6.964 10.447-10.445.35-.296.328-.863-.019-1.152-3.437-3.446-6.878-6.888-10.319-10.331-.203-.205-.467-.404-.775-.347z"/>
    <path d="M8.681 5.918c.64-.167 1.243.582.936 1.17-.229.589-1.139.662-1.462.121-.341-.464-.04-1.196.526-1.291zM8.856 8.138c.497-.306 1.062-.48 1.59-.725 1.014.52 2.458.574 2.978 1.728.292.48.646.93.833 1.466 1.513.002 3.028-.002 4.541.001l.01.305c-1.747.028-3.497-.03-5.242.038-.566-.449-.785-1.228-1.277-1.76-.412-.221-.87-.338-1.307-.5 1.188 2.053 2.405 4.091 3.596 6.14.192.25.08.546-.024.805 1.204-.013 2.407.001 3.611-.008.007.212.011.426.012.641-3.782.002-7.565.007-11.346-.002-.719.043-1.35-.548-1.338-1.272.816.949 2.147.55 3.233.626-.848-1.506-1.714-3.005-2.568-4.507-.106-.215-.347-.293-.522-.436-.258-.27-.017-.787.36-.756.61-.032 1.219.002 1.829-.014.355-.583.613-1.231 1.031-1.77zm-.469 2.655c-.662.166-1.368.022-2.047.074.943 1.609 1.805 3.271 2.807 4.844.095-.886-.031-1.782.066-2.665.317-.643.733-1.235 1.082-1.861-.347-.634-.689-1.27-1.037-1.902-.29.502-.499 1.061-.871 1.51zm2.99.924c-.326.557-.694 1.09-.991 1.661-.084.748-.01 1.508-.032 2.261 1.1.002 2.2.004 3.299-.001-.758-1.306-1.469-2.644-2.275-3.92z"/>
</svg>
