<svg xmlns="http://www.w3.org/2000/svg" width="24" height="24">
    <path fill="#c4a319" opacity=".77" d="M0 1.333h23.644v.088c-7.848.009-15.697-.013-23.545.011C.083 8.51.081 15.588.1 22.667H0V1.334z"/>
    <path fill="#7a650e" opacity=".48" d="M23.644 1.333h.09v21.333h-.089c-.001-7.082.001-14.164-.001-21.245v-.088z"/>
    <path fill="#ffd520" d="M.099 1.432c7.848-.024 15.697-.002 23.545-.011.002 7.082 0 14.164.001 21.245H.1C.081 15.588.083 8.51.099 1.431zm.318.319C.413 8.588.416 15.426.416 22.264c7.624.007 15.249.001 22.873.003.007-6.839.004-13.677.002-20.516-7.625-.002-15.249-.003-22.874.001z"/>
    <path fill="#ffd520" d="M.811 2.144c7.362-.001 14.724-.003 22.087.001 0 6.575.002 13.149-.001 19.724-7.362.005-14.724.003-22.086.001-.003-6.575-.002-13.151 0-19.726zm6.85 1.588c-.002 3.675-.002 7.35 0 11.025.431.004.861.004 1.292 0 .002-3.676.002-7.35 0-11.025a69.554 69.554 0 0 0-1.292 0zm4.482-.002c0 1.176-.011 2.353.005 3.53.876.651 1.745 1.312 2.609 1.979.001 1.839-.001 3.677.001 5.516.429.002.86.003 1.29-.001l-.001-6.279c-.864-.675-1.741-1.332-2.604-2.009-.001-.912.002-1.824-.002-2.736a70.31 70.31 0 0 0-1.299 0zm-.037 4.842c-.003.601-.003 1.202 0 1.803.283.002.566.002.85 0 .002-.601.003-1.202-.001-1.802a80.09 80.09 0 0 0-.849-.001zm-.001 2.191a360.4 360.4 0 0 0 0 1.801c.284.003.567.003.851-.001.002-.6.001-1.2.001-1.8a40.33 40.33 0 0 0-.852 0zm.001 2.19c-.003.6-.002 1.201-.001 1.801.284.003.567.003.852 0 0-.601.001-1.201-.001-1.801a40.14 40.14 0 0 0-.85 0zm-2.212 4.151c-1.373.408-1.42 2.628-.122 3.169.702.309 1.444-.273 1.656-.932.425-.989-.332-2.52-1.534-2.237zm3.82-.007c-1.409.38-1.459 2.659-.13 3.185.895.348 1.72-.595 1.739-1.438.108-.887-.627-1.972-1.609-1.747zm-10.469.057a2.391 2.391 0 0 1-.439.396c-.002.196-.002.392-.001.588.123.004.245.01.368.015-.002.706-.004 1.412 0 2.119h.631c.002-1.044.002-2.087 0-3.13-.187.001-.373.004-.559.012zm2.172-.008c-.044.5-.096.999-.125 1.501.362.128.74.266 1.112.091.443-.194.929.347.631.748-.387.431-1.038.172-1.498.007-.107.185-.211.372-.31.561.588.28 1.313.448 1.932.167.588-.266.82-1.078.457-1.614-.323-.56-1.082-.664-1.644-.441l.041-.383c.511-.001 1.021.003 1.532-.001v-.637c-.709-.002-1.418-.003-2.127.001zm12.863.844c-.225-.092-.469-.074-.707-.071a307.33 307.33 0 0 0 0 2.352l.644.001c.013-.504-.019-1.009.013-1.511.047-.33.633-.334.676.005.035.5 0 1.004.014 1.506h.64c.013-.503-.021-1.008.012-1.51.038-.348.627-.34.676.002.04.501.001 1.006.018 1.508h.636c-.041-.624.101-1.279-.092-1.881-.244-.595-1.007-.594-1.472-.27-.305-.234-.707-.311-1.057-.131z"/>
    <path fill="#ffd520" d="M9.991 17.729c1.137-.227 1.234 1.966.144 2.004-.85-.204-.894-1.636-.144-2.004zM13.806 17.719c1.143-.177 1.189 2.052.07 2.007-.81-.268-.833-1.662-.07-2.007z"/>
    <path d="M.417 1.751c7.625-.004 15.249-.003 22.874-.001.002 6.839.005 13.677-.002 20.516-7.624-.002-15.249.004-22.873-.003 0-6.838-.003-13.676.001-20.513zm.394.393C.809 8.719.808 15.295.811 21.87c7.363.002 14.724.004 22.086-.001.003-6.575.001-13.149.001-19.724-7.363-.004-14.725-.002-22.087-.001z"/>
    <path d="M7.661 3.732c.431-.004.861-.004 1.292 0 .002 3.675.002 7.349 0 11.025-.431.004-.861.004-1.292 0-.002-3.675-.002-7.35 0-11.025zM12.143 3.73a70.31 70.31 0 0 1 1.299 0c.004.912.001 1.824.002 2.736.862.676 1.74 1.334 2.604 2.009l.001 6.279c-.43.004-.86.003-1.29.001-.002-1.839 0-3.677-.001-5.516a173.486 173.486 0 0 0-2.609-1.979c-.016-1.177-.005-2.354-.005-3.53z"/>
    <path d="M12.106 8.572c.283-.001.566-.001.849.001.004.6.003 1.201.001 1.802-.284.002-.567.002-.85 0-.003-.601-.003-1.202 0-1.803zM12.105 10.763c.284-.003.567-.003.852 0 0 .6.001 1.2-.001 1.8-.284.004-.567.004-.851.001a360.4 360.4 0 0 1 0-1.801zM12.106 12.953c.283-.003.566-.003.85 0 .002.6.001 1.2.001 1.801a40.33 40.33 0 0 1-.852 0c-.001-.6-.002-1.201.001-1.801zM9.894 17.104c1.203-.283 1.959 1.248 1.534 2.237-.212.659-.954 1.241-1.656.932-1.298-.541-1.252-2.761.122-3.169zm.097.625c-.75.368-.706 1.8.144 2.004 1.09-.037.993-2.23-.144-2.004zM13.714 17.097c.982-.226 1.717.86 1.609 1.747-.019.844-.844 1.786-1.739 1.438-1.329-.526-1.279-2.804.13-3.185zm.092.622c-.763.345-.74 1.74.07 2.007 1.119.045 1.073-2.184-.07-2.007zM3.245 17.154c.186-.007.372-.011.559-.012.002 1.043.002 2.086 0 3.13h-.631c-.004-.707-.002-1.413 0-2.119-.123-.005-.245-.011-.368-.015-.001-.196-.001-.392.001-.588.161-.115.31-.245.439-.396zM5.417 17.146c.709-.004 1.418-.003 2.127-.001v.637c-.511.004-1.021 0-1.532.001l-.041.383c.563-.223 1.322-.119 1.644.441.363.536.131 1.348-.457 1.614-.619.281-1.343.113-1.932-.167.1-.189.204-.376.31-.561.46.165 1.111.424 1.498-.007.298-.402-.188-.942-.631-.748-.372.175-.75.037-1.112-.091.029-.502.081-1.002.125-1.501zM18.28 17.99c.35-.18.752-.103 1.057.131.465-.324 1.228-.324 1.472.27.194.602.052 1.257.092 1.881h-.636c-.017-.502.022-1.007-.018-1.508-.049-.341-.637-.349-.676-.002-.033.502.002 1.007-.012 1.51h-.64c-.014-.502.02-1.005-.014-1.506-.044-.34-.629-.335-.676-.005-.032.502 0 1.007-.013 1.511l-.644-.001a307.33 307.33 0 0 1 0-2.352c.237-.003.482-.02.707.071z"/>
</svg>
