<svg xmlns="http://www.w3.org/2000/svg" width="24" height="24">
    <path fill="#ef2b2f" d="M11.019 2.057c.455-.779 1.684-.758 2.103.045.813 1.341 1.555 2.728 2.345 4.082 2.05 4.263 4.697 8.227 6.956 12.388.442.842 1.156 1.595 1.28 2.568.01.848-.918 1.085-1.602 1.038-6.863-.03-13.725.012-20.587-.019-.636.075-.93-.543-1.252-.97.223-.555.415-1.12.636-1.675 3.39-5.808 6.715-11.661 10.12-17.459zM2.428 20.493c6.415.017 12.83.005 19.248.005-3.244-5.508-6.408-11.061-9.604-16.595C8.78 9.385 5.68 14.983 2.428 20.491z"/>
    <path fill="#fff" d="M2.428 20.493C5.68 14.985 8.78 9.386 12.072 3.905c3.196 5.533 6.36 11.085 9.604 16.595-6.417 0-12.832.012-19.248-.005zm6.527-7.738c-.467.187-.915.435-1.198.865.882.088 1.659-.682 2.539-.308-.72.695-1.377 1.808-.63 2.737 1.019 1.168 2.148 2.579 3.812 2.712-.328.621-1.067.35-1.587.655.265.035.533.063.802.082l.05.435c.364-.005.728-.01 1.092-.013.158-.423.337-.838.49-1.263 1.419-.398 2.685-1.196 4.179-1.335-2.263-.92-3.676-3.693-6.413-3.488.267-1.032-.348-2.581-1.613-2.395-.859-.038-.781 1.139-1.52 1.316z"/>
    <path fill="#fff" d="M12.943 19.688c.355-.375.69-.77 1.065-1.124-.108.555-.303 1.352-1.065 1.124z"/>
    <path fill="#9a0002" opacity=".65" d="M15.467 6.185c.876 1.328 1.676 2.705 2.442 4.097 2.004 3.592 4.219 7.076 6.092 10.735v.259c-.257.621-.781 1.181-1.51 1.115-6.865.023-13.732-.015-20.596.01-.621.023-1.379-.124-1.623-.783-.343-.77.236-1.485.628-2.101-.221.555-.413 1.12-.636 1.675.322.427.615 1.044 1.252.97 6.861.03 13.724-.012 20.587.019.684.048 1.612-.19 1.602-1.038-.124-.973-.838-1.725-1.28-2.568-2.259-4.162-4.907-8.125-6.956-12.388z"/>
    <path fill="#201e1c" d="M8.955 12.755c.739-.177.661-1.355 1.52-1.316 1.265-.187 1.88 1.362 1.613 2.395 2.737-.205 4.15 2.568 6.413 3.488-1.493.139-2.76.937-4.179 1.335-.152.425-.332.84-.49 1.263l-1.092.013-.05-.435a14.23 14.23 0 0 1-.802-.082c.52-.305 1.259-.035 1.587-.655-1.663-.133-2.792-1.545-3.812-2.712-.747-.93-.09-2.042.63-2.737-.88-.373-1.657.396-2.539.308.284-.43.732-.678 1.198-.865zm3.988 6.933c.762.228.956-.57 1.065-1.124-.375.355-.71.748-1.065 1.124z"/>
</svg>
