<svg xmlns="http://www.w3.org/2000/svg" width="24" height="24">
    <path fill="#fcdc0f" d="M11.836 0h.325c.242.181.463.389.674.605C16.543 4.355 20.318 8.041 24 11.817v.378c-3.9 3.966-7.841 7.9-11.802 11.806h-.37A990.993 990.993 0 0 1 0 12.182v-.326c.608-.738 1.337-1.367 1.997-2.058C5.284 6.54 8.514 3.223 11.836.001zM.59 12.006c3.8 3.805 7.604 7.609 11.412 11.408 3.82-3.79 7.62-7.601 11.419-11.411-3.804-3.806-7.603-7.62-11.419-11.414C8.199 4.395 4.392 8.197.59 12.006z"/>
    <path fill="#fcdc0f" d="M11.55 1.836c.479-.236 1.048-.031 1.385.349 2.998 3.004 6.006 5.996 8.996 9.005.454.422.46 1.201.005 1.625a7842.619 7842.619 0 0 1-9.121 9.12c-.424.457-1.201.452-1.621-.007a7844.339 7844.339 0 0 1-9.122-9.121c-.473-.445-.421-1.255.062-1.672 2.876-2.884 5.762-5.759 8.639-8.642.242-.235.468-.506.778-.656zM5.456 15.002c4.362.006 8.724.016 13.085-.005a17.343 17.343 0 0 0-.445-.455c-1.092-.013-2.188.032-3.278-.024-.01-.301.032-.655-.284-.812-.218.146-.475.196-.732.227-.035.202-.064.404-.094.607l-.407.006a931.243 931.243 0 0 1-2.465-7.04c.431-.272.251-.896-.278-.833l-.192-.464c-1.735 2.86-3.266 5.869-4.909 8.794zm6.437-6.934c.037.139.077.277.116.416l.349.005c-.072-.122-.145-.245-.216-.368l-.25-.053zm-.108.9c-.179.878 1.319.577.745-.137-.434-.061-.798-.114-.842-.662-.214.259-.092.564.097.799zm1.083 1.74c.118.174.17.482.444.433.01-.295-.13-.488-.444-.433zm-.402.338l.221.47c.202-.21.124-.778-.221-.47zm.765.292c-.581.042-.488.967.086.902.596-.032.503-.983-.086-.902z"/>
    <path d="M.59 12.006C4.392 8.197 8.199 4.396 12.002.589c3.816 3.794 7.615 7.608 11.419 11.414-3.799 3.81-7.6 7.621-11.419 11.411A8767.544 8767.544 0 0 1 .59 12.006zm10.96-10.17c-.31.15-.535.421-.778.656-2.876 2.884-5.762 5.759-8.639 8.642-.484.416-.535 1.226-.062 1.672 3.038 3.042 6.079 6.084 9.122 9.121.42.46 1.198.464 1.621.007 3.043-3.037 6.083-6.078 9.121-9.12.455-.424.449-1.202-.005-1.625-2.99-3.008-5.999-6.001-8.996-9.005-.337-.38-.906-.586-1.385-.349z"/>
    <path d="M5.456 15.002c1.643-2.924 3.174-5.934 4.909-8.794.064.155.127.31.192.464.529-.064.709.56.278.833a901.33 901.33 0 0 0 2.465 7.04l.407-.006c.03-.203.059-.406.094-.607.257-.031.514-.08.732-.227.317.157.275.511.284.812 1.091.056 2.186.011 3.278.024.151.149.3.301.445.455-4.361.02-8.723.011-13.085.005z"/>
    <path d="M11.893 8.068l.25.053c.071.124.144.246.216.368l-.349-.005c-.04-.139-.079-.277-.116-.416z"/>
    <path d="M11.785 8.968c-.19-.235-.311-.54-.097-.799.044.548.408.601.842.662.574.714-.924 1.015-.745.137zM12.868 10.708c.314-.055.454.138.444.433-.274.049-.326-.259-.444-.433zM12.466 11.046c.344-.307.422.26.221.47l-.221-.47zM13.231 11.338c.589-.08.683.87.086.902-.575.065-.667-.86-.086-.902z"/>
</svg>
