<svg xmlns="http://www.w3.org/2000/svg" width="24" height="24">
    <path fill="#ffd033" d="M11.75 0h.5c.499.172.832.596 1.196.953l9.66 9.66c.317.307.63.619.893.976v.848c-.242.4-.601.707-.928 1.036-3.218 3.221-6.44 6.439-9.66 9.661-.3.311-.602.624-.964.866h-.827c-.389-.235-.686-.582-1.004-.899l-9.719-9.72c-.335-.334-.713-.649-.899-1.097v-.499c.182-.47.58-.793.925-1.141 3.2-3.198 6.398-6.4 9.599-9.599.383-.377.733-.805 1.226-1.045zm-.076.392C7.944 3.972 4.343 7.702.662 11.34c-.398.305-.488.941-.089 1.282 3.62 3.623 7.244 7.243 10.865 10.866.319.366.917.336 1.222-.031 3.616-3.624 7.242-7.236 10.855-10.862.362-.33.283-.929-.083-1.223C19.851 7.791 16.273 4.207 12.688.63c-.245-.286-.668-.419-1.014-.236z"/>
    <path fill="#ffd033" d="M11.921.754c.216-.08.382.11.526.239 3.539 3.542 7.082 7.079 10.62 10.624.192.161.384.463.142.674-3.611 3.626-7.237 7.24-10.854 10.86-.149.198-.456.238-.614.029C8.117 19.563 4.498 15.939.877 12.319c-.337-.293.042-.644.269-.854C4.748 7.907 8.27 4.255 11.922.755zm-1.788 6.129c.305.474.754.836 1.1 1.279-2.569 1.32-5.176 2.563-7.754 3.86.168.355.342.707.52 1.057 1.356-.672 2.712-1.346 4.073-2.009-.856 2.119-.314 4.466-.462 6.688.786.019 1.573.008 2.359.006.029-1.637-.04-3.276.041-4.912.15-1.386 1.436-2.204 2.568-2.783.169.49.264 1.006.481 1.477.173.314.691.257.824-.066a623.278 623.278 0 0 0 2.562-5.185c-1.924.008-3.846-.013-5.768-.001-.317-.025-.65.254-.544.588z"/>
    <path d="M11.674.392c.346-.182.769-.049 1.014.236 3.584 3.577 7.163 7.162 10.744 10.742.366.294.445.893.083 1.223-3.613 3.626-7.24 7.238-10.855 10.862-.305.367-.902.397-1.222.031C7.818 19.863 4.194 16.243.573 12.62c-.4-.341-.31-.977.089-1.282C4.344 7.701 7.945 3.97 11.674.39zm.247.362c-3.652 3.5-7.174 7.152-10.776 10.71-.227.21-.606.562-.269.854 3.62 3.62 7.24 7.244 10.864 10.861.158.209.466.169.614-.029 3.617-3.62 7.243-7.234 10.854-10.86.242-.211.05-.514-.142-.674-3.538-3.545-7.081-7.081-10.62-10.624-.144-.128-.31-.319-.526-.239z"/>
    <path d="M10.133 6.883c-.107-.334.227-.613.544-.588 1.922-.012 3.845.01 5.768.001a608.216 608.216 0 0 1-2.562 5.185c-.133.323-.652.38-.824.066-.217-.472-.312-.988-.481-1.477-1.132.578-2.418 1.397-2.568 2.783-.08 1.636-.012 3.275-.041 4.912-.786.002-1.573.013-2.359-.006.148-2.221-.394-4.568.462-6.688-1.361.662-2.717 1.337-4.073 2.009-.178-.35-.352-.702-.52-1.057 2.579-1.297 5.185-2.54 7.754-3.86-.347-.443-.796-.805-1.1-1.279z"/>
</svg>
