<svg xmlns="http://www.w3.org/2000/svg" width="24" height="24">
    <path fill="#d5bb0e" opacity=".84" d="M11.711 0h.554c.283.131.546.305.766.526 3.256 3.266 6.52 6.522 9.779 9.784.43.439.931.838 1.19 1.411v.529c-.12.262-.274.509-.479.71-3.306 3.295-6.601 6.6-9.902 9.899-.421.409-.798.893-1.348 1.141h-.517a2.31 2.31 0 0 1-.718-.475c-3.295-3.306-6.599-6.602-9.898-9.904-.408-.418-.882-.793-1.139-1.332v-.559c.232-.559.712-.944 1.126-1.364 3.282-3.281 6.563-6.56 9.841-9.844.217-.215.472-.385.744-.522zm-.028.307c-.341.146-.576.449-.838.698C7.429 4.431 4.001 7.846.586 11.271c-.408.353-.456 1.016-.049 1.39 3.576 3.586 7.162 7.162 10.739 10.745.348.414 1.013.462 1.384.052 3.602-3.595 7.201-7.195 10.798-10.796.407-.371.359-1.034-.046-1.387C19.873 7.73 16.327 4.193 12.79.648c-.275-.296-.707-.512-1.106-.34z"/>
    <path d="M11.683.307c.4-.173.832.043 1.106.34 3.538 3.545 7.084 7.082 10.622 10.627.404.353.452 1.016.046 1.387a8454.536 8454.536 0 0 1-10.798 10.796c-.371.41-1.036.362-1.384-.052C7.698 19.822 4.112 16.246.536 12.66c-.407-.373-.359-1.037.049-1.39C4 7.845 7.427 4.43 10.844 1.004c.262-.25.497-.552.838-.698zm.119.456C8.162 4.275 4.637 7.919 1.033 11.474c-.252.2-.462.594-.168.858 3.57 3.59 7.162 7.163 10.739 10.748a.5.5 0 0 0 .791-.001c3.56-3.563 7.123-7.124 10.684-10.687a.505.505 0 0 0 .004-.79c-3.512-3.529-7.043-7.04-10.558-10.567-.184-.188-.442-.419-.722-.272z"/>
    <path d="M13.645 7.883c.664-.436 1.462-.572 2.243-.578-.188.082-.377.16-.565.24.535.49.503 1.346 1.223 1.672-.035.276-.113.695-.47.682-.439-.09-.846-.317-1.301-.354-.362.556-1.217.731-1.236 1.494-.023.64-.515 1.043-1.006 1.367-.132 1.168-.762 2.531.032 3.584a16.8 16.8 0 0 1-.626.064c-.331-.582.02-1.241-.217-1.84-.215.706-.427 1.574.18 2.148-.25.034-.502.031-.751-.005-.188-1.188.211-2.383-.056-3.572-1.177.046-2.334.559-3.488.062a2.126 2.126 0 0 1-.739.646c-.011.086-.034.26-.044.348l-.172-.283-.168.355-.121-.5c-.676.763-.008 1.865.577 2.479-.215.053-.446.15-.662.044-.451-.577-.349-1.408-.852-1.966-.26.534-.142 1.13-.08 1.694.163.162.322.329.472.503a19.92 19.92 0 0 1-.596.047 3.185 3.185 0 0 0-.34-.515c.014-.678-.104-1.345-.169-2.017-.092-.452.436-.696.5-1.094-.163-.544-.253-1.106-.15-1.673.066-.215-.226-.245-.347-.34a4.93 4.93 0 0 0-.272-.59c-.151 1.41.253 2.827-.065 4.217l-.113-.307a35.6 35.6 0 0 1-.154.533 7.281 7.281 0 0 1 .065-2.074c.155-1.076-.121-2.161.02-3.234.062-.649.871-.606 1.321-.846.827-.476 1.771-.114 2.632.044 1.124.271 2.254-.125 3.376-.2.709-.03 1.49.208 2.122-.234zM18.233 12.479c.252-.546.69-1.116 1.376-.92.086.367.209.724.358 1.07-.182.036-.366.066-.55.1-.475 1.15-1.249 2.328-.874 3.626-.449-.272-.23-.869-.348-1.297-.274.433-.181.948-.066 1.415-.644-.302-.194-1.188-.515-1.728a5.192 5.192 0 0 1-1.306-.035c-.32.452-.547.988-.278 1.528l-.292-.042c-.049-.287-.088-.575-.14-.86-.233.341-.042.751-.017 1.123-.523-.283-.445-1.091-.348-1.6.312-.564-.449-1.16-.012-1.678.72-.928 2.138-.115 3.011-.702z"/>
    <path fill="#fee011" d="M11.802.763c.281-.146.539.084.722.272 3.515 3.527 7.045 7.038 10.558 10.567a.505.505 0 0 1-.004.79c-3.56 3.563-7.123 7.124-10.684 10.687a.5.5 0 0 1-.791.001C8.026 19.494 4.434 15.922.864 12.332c-.294-.264-.084-.658.168-.858C4.636 7.918 8.161 4.275 11.801.763zm1.843 7.12c-.631.442-1.412.204-2.122.234-1.122.076-2.251.472-3.376.2-.86-.158-1.805-.521-2.632-.044-.45.24-1.259.197-1.321.846-.142 1.073.134 2.158-.02 3.234a7.28 7.28 0 0 0-.065 2.074c.053-.178.103-.355.154-.533.037.103.074.205.113.307.318-1.39-.086-2.807.065-4.217.106.188.192.389.272.59.121.095.413.125.347.34-.103.566-.013 1.129.15 1.673-.065.398-.593.642-.5 1.094.065.672.184 1.339.169 2.017.132.16.241.334.34.515.199-.013.397-.028.596-.047a8.613 8.613 0 0 0-.472-.503c-.061-.564-.18-1.16.08-1.694.503.558.401 1.388.852 1.966.216.106.448.008.662-.044-.586-.614-1.253-1.716-.577-2.479.041.167.082.332.121.5l.168-.355.172.283.044-.348c.296-.152.544-.377.739-.646 1.154.497 2.311-.017 3.488-.062.268 1.189-.132 2.384.056 3.572.25.036.502.038.751.005-.607-.574-.395-1.442-.18-2.148.238.599-.114 1.258.217 1.84.209-.017.418-.038.626-.064-.794-1.054-.164-2.417-.032-3.584.491-.324.983-.727 1.006-1.367.019-.763.874-.938 1.236-1.494.455.037.862.264 1.301.354.358.013.436-.406.47-.682-.72-.325-.688-1.182-1.223-1.672.188-.08.377-.158.565-.24-.781.006-1.579.143-2.243.578zm4.588 4.596c-.872.587-2.291-.226-3.011.702-.437.517.324 1.114.012 1.678-.097.509-.175 1.316.348 1.6-.025-.372-.216-.782.017-1.123.053.286.091.574.14.86l.292.042c-.269-.54-.042-1.075.278-1.528.432.066.871.079 1.306.035.32.54-.13 1.426.515 1.728-.115-.467-.208-.982.066-1.415.118.428-.101 1.025.348 1.297-.376-1.298.398-2.477.874-3.626.184-.034.367-.064.55-.1a6.526 6.526 0 0 1-.358-1.07c-.686-.196-1.124.374-1.376.92z"/>
</svg>
