<svg xmlns="http://www.w3.org/2000/svg" width="24" height="24">
    <path fill="#9e9c9b" d="M11.59 1.333h.919l.123.071c-.508.049-1.023.092-1.506.271.144-.127.302-.239.464-.343z"/>
    <path fill="#fff" d="M11.126 1.676c.483-.18.997-.223 1.506-.271.3.182.582.404.756.714 3.64 6.19 7.196 12.431 10.856 18.61v.797c-.163.458-.451.886-.93 1.053-1.83-.071-3.664-.02-5.496-.033-5.596.049-11.196-.076-16.79.026a1.95 1.95 0 0 1-1-1.02.58.58 0 0 0 .004-.787C3.525 14.682 7.036 8.609 10.54 2.532c.18-.296.33-.618.587-.857zm.677.32c-.404.14-.561.58-.771.914C7.622 8.837 4.196 14.754.782 20.679c-.411.564.092 1.424.786 1.34 7.076.009 14.154.023 21.23.017.866.04 1.07-1.07.542-1.609-3.489-5.972-6.957-11.956-10.437-17.933-.194-.404-.66-.653-1.1-.497z"/>
    <path fill="#fff" d="M11.516 5.091c.123-.231.298-.426.48-.611.319.384.576.813.827 1.243l8.026 13.187c.27.454.606.883.734 1.404-.324.044-.65.076-.976.074-5.698-.026-11.399.027-17.096-.046-.167-.001-.303-.11-.444-.182 2.784-5.04 5.65-10.036 8.449-15.069zm-1.056 5.856c-.094.434-.044.883-.058 1.323-.738 0-1.477.004-2.216.001.007.656.012 1.311.014 1.969.732-.001 1.464-.006 2.197-.016.092 1.7.026 3.404.067 5.107.516-.43 1.031-.862 1.551-1.287.551.411 1.093.834 1.636 1.257.007-.747-.004-1.493-.009-2.239.753-.003 1.506.001 2.26-.004l-.001-1.884c-.757-.007-1.516.006-2.274.004a864.21 864.21 0 0 1-.023-4.26c-.536-.436-1.071-.869-1.604-1.306-.503.456-1.068.846-1.54 1.336z"/>
    <path fill="#da251d" d="M11.803 1.996c.439-.156.906.092 1.1.497 3.48 5.977 6.949 11.961 10.437 17.933.529.538.324 1.649-.542 1.609-7.076.006-14.154-.009-21.23-.017-.693.084-1.196-.776-.786-1.34 3.413-5.924 6.84-11.841 10.25-17.769.21-.333.366-.774.771-.914zm-.287 3.095C8.717 10.124 5.852 15.12 3.067 20.16c.14.071.276.18.444.182 5.697.073 11.397.02 17.096.046.326.003.652-.03.976-.074-.129-.523-.464-.95-.734-1.404-2.674-4.396-5.35-8.79-8.026-13.187-.251-.429-.508-.858-.827-1.243-.182.186-.357.38-.48.611z"/>
    <path fill="#1f1a17" d="M10.46 10.947c.473-.49 1.037-.88 1.54-1.336.533.436 1.069.87 1.604 1.306.004 1.42.011 2.839.023 4.26.757.001 1.516-.012 2.274-.004l.001 1.884c-.754.006-1.507.003-2.26.004.004.746.016 1.492.009 2.239-.543-.423-1.084-.846-1.636-1.257-.52.426-1.036.857-1.551 1.287-.041-1.702.026-3.406-.067-5.107-.733.01-1.466.014-2.197.016-.003-.657-.007-1.313-.014-1.969.738.003 1.477-.001 2.216-.001.013-.44-.036-.889.058-1.323z"/>
    <path fill="#999796" d="M0 20.816l.031-.05a.581.581 0 0 1-.004.787L0 21.507v-.691z"/>
    <path fill="#a5a3a2" d="M1.027 22.572c5.596-.1 11.194.023 16.79-.026 1.831.013 3.666-.039 5.496.033l-.173.087H1.209l-.182-.094z"/>
</svg>
