<svg xmlns="http://www.w3.org/2000/svg" width="24" height="24">
    <path fill="#ec1d24" d="M11.855 1.333h.454c.484.102.94.374 1.185.815 3.477 6.007 6.948 12.019 10.425 18.027.102.184.184.378.259.575v.618a1.722 1.722 0 0 1-1.331 1.299H1.362C.673 22.549.14 21.983 0 21.307v-.452c.068-.232.149-.462.271-.671C3.747 14.177 7.218 8.166 10.695 2.16c.236-.44.687-.708 1.16-.826zM2.54 20.532c6.372.003 12.745.004 19.117-.001-3.184-5.508-6.366-11.019-9.559-16.523A9324.366 9324.366 0 0 0 2.54 20.532z"/>
    <path fill="#ec1d24" d="M11.675 7.595a1.811 1.811 0 0 1 1.855.654c.472.599.494 1.503.046 2.121a1.798 1.798 0 0 1-1.842.739c-.82-.151-1.46-.941-1.438-1.775-.013-.807.591-1.566 1.379-1.739z"/>
    <path fill="#fff" d="M2.54 20.532c3.182-5.51 6.365-11.02 9.558-16.524 3.193 5.504 6.375 11.014 9.559 16.523-6.372.004-12.745.004-19.117.001zm9.224-13.296c-1.009.132-1.828 1.073-1.804 2.093.001 2.878-.005 5.756.003 8.635.014 1.105 1.026 2.064 2.127 2.036 1.109.036 2.133-.93 2.144-2.043.007-2.905.007-5.811 0-8.715-.01-1.236-1.262-2.236-2.469-2.007z"/>
    <path d="M11.764 7.236c1.207-.228 2.46.771 2.469 2.007.007 2.904.007 5.81 0 8.715-.011 1.113-1.035 2.079-2.144 2.043-1.101.028-2.113-.932-2.127-2.036-.008-2.878-.002-5.756-.003-8.635-.024-1.02.796-1.961 1.804-2.093zm-.089.359c-.788.172-1.392.932-1.379 1.739-.022.834.619 1.624 1.438 1.775a1.798 1.798 0 0 0 1.842-.739c.448-.618.426-1.522-.046-2.121a1.81 1.81 0 0 0-1.855-.654zm-.005 4.259c-.754.173-1.346.876-1.372 1.652-.055.767.446 1.524 1.167 1.785a1.807 1.807 0 0 0 2.07-.604c.471-.601.484-1.504.036-2.122a1.815 1.815 0 0 0-1.901-.712zm-.001 4.261c-.756.174-1.348.881-1.372 1.659a1.803 1.803 0 0 0 1.178 1.78c.761.3 1.697-.016 2.132-.706a1.806 1.806 0 0 0-.071-2.068 1.818 1.818 0 0 0-1.867-.664z"/>
    <path fill="#ffd421" d="M11.67 11.854c.702-.18 1.49.117 1.901.712.448.618.435 1.521-.036 2.122a1.81 1.81 0 0 1-2.07.604c-.721-.26-1.222-1.018-1.167-1.785.027-.776.619-1.479 1.372-1.652z"/>
    <path fill="#4d9523" d="M11.669 16.115a1.818 1.818 0 0 1 1.867.664c.454.584.485 1.454.071 2.068-.435.69-1.371 1.006-2.132.706a1.802 1.802 0 0 1 .194-3.439z"/>
</svg>
