<svg xmlns="http://www.w3.org/2000/svg" width="24" height="24">
    <path fill="#ec1d24" d="M11.773 1.333h.593a2.02 2.02 0 0 1 1.252 1.086c3.477 6.109 7.074 12.154 10.487 18.297v.707a1.826 1.826 0 0 1-1.286 1.244H1.312c-.648-.15-1.135-.671-1.313-1.301v-.585c.094-.234.197-.464.321-.684C3.76 14.132 7.195 8.166 10.635 2.201c.231-.444.671-.721 1.138-.867zM2.536 20.534c6.35.004 12.702.004 19.053-.001-3.171-5.509-6.342-11.02-9.528-16.521a5995.226 5995.226 0 0 0-9.525 16.522z"/>
    <path fill="#fff" d="M2.536 20.534c3.166-5.513 6.342-11.02 9.525-16.522 3.186 5.5 6.356 11.012 9.528 16.521-6.35.006-12.702.006-19.053.001zm7.72-9.916c.001 1.179.004 2.357 0 3.536-.87.004-1.74-.001-2.61.004 0 .602-.004 1.204.004 1.807.868.001 1.736-.001 2.604.001.007 1.287 0 2.576.004 3.864 1.202.003 2.404.003 3.606-.001.006-1.288-.003-2.577.004-3.865.87-.004 1.741.013 2.613-.008-.007-.599-.001-1.199-.004-1.798-.87-.003-1.74.001-2.61-.003-.004-1.18.003-2.361-.004-3.541-.6-.599-1.195-1.203-1.802-1.794-.611.59-1.209 1.195-1.807 1.798z"/>
    <path fill="#030303" d="M10.256 10.618c.598-.604 1.196-1.208 1.807-1.798.607.59 1.202 1.195 1.802 1.794.006 1.18-.001 2.361.004 3.541.869.004 1.74 0 2.61.003.004.599-.003 1.199.004 1.798-.871.021-1.743.004-2.613.008-.007 1.288.001 2.577-.004 3.865-1.202.004-2.404.004-3.606.001-.004-1.288.004-2.577-.004-3.864-.869-.003-1.737 0-2.604-.001-.007-.603-.004-1.205-.004-1.807.87-.004 1.74.001 2.61-.004.004-1.179.001-2.357 0-3.536z"/>
</svg>
