<svg xmlns="http://www.w3.org/2000/svg" width="24" height="24">
    <path fill="#e4c90f" opacity=".9" d="M11.678 0h.564c.257.128.5.287.706.49 3.497 3.504 6.998 7.003 10.501 10.502.528.431.638 1.292.125 1.78-3.572 3.588-7.16 7.163-10.738 10.746-.432.497-1.261.529-1.714.046-3.326-3.316-6.642-6.642-9.965-9.961-.414-.418-.876-.804-1.158-1.33v-.619c.28-.575.79-.977 1.226-1.426 3.24-3.242 6.484-6.48 9.719-9.725.212-.21.462-.378.733-.503zm-.006.278c-.245.091-.428.286-.613.461C7.568 4.249 4.052 7.735.566 11.249c-.412.362-.426 1.026-.006 1.388 3.556 3.565 7.115 7.128 10.675 10.687.368.409 1.06.452 1.428.02 3.558-3.562 7.121-7.121 10.678-10.684.426-.377.414-1.066-.008-1.441C19.846 7.708 16.332 4.223 12.844.713c-.298-.307-.726-.594-1.171-.436z"/>
    <path d="M11.672.278c.445-.158.874.128 1.171.436 3.488 3.51 7.002 6.995 10.489 10.506.422.376.434 1.064.008 1.441-3.557 3.563-7.12 7.122-10.678 10.684-.368.432-1.06.389-1.428-.02-3.56-3.559-7.12-7.122-10.675-10.687-.42-.362-.406-1.026.006-1.388 3.486-3.514 7.002-7 10.493-10.51.185-.175.368-.37.613-.461zm.13.484c-.3.168-.517.443-.762.677C7.685 4.805 4.316 8.158.964 11.525c-.278.221-.329.623-.031.852 3.538 3.546 7.082 7.086 10.624 10.628.253.336.696.204.912-.097 3.493-3.508 7.001-7 10.499-10.501.318-.242.274-.67-.025-.906-3.479-3.481-6.966-6.956-10.441-10.442-.185-.17-.42-.43-.698-.296z"/>
    <path d="M12.409 2.698c.847-.248 1.175 1.164.308 1.319-.846.236-1.159-1.164-.308-1.319z"/>
    <path d="M10.3 5.887c.508-.688.778-1.673 1.697-1.919.708.16 1.117.754 1.178 1.454-.006.529.504.664.907.816-.056.142-.113.283-.168.425-.368-.144-.74-.28-1.111-.419-.074.35-.232.683-.274 1.039.131.74.569 1.424.51 2.197-.014.552-.037 1.104-.055 1.657l-.694-.005c-.091-.835.157-1.781-.39-2.501-.27.971-1.003 1.698-1.52 2.537l-.542-.385c.319-.569.708-1.098.997-1.684.044-.671-.054-1.357.146-2.014-.226-.401-.454-.8-.682-1.2zm.782-.104c-.186.04-.2.383-.008.424.175-.04.192-.385.008-.424zM12.456 12.616c.461.044 1.009-.13 1.406.164.32.354-.161.707-.3 1.025.128.517.374.996.55 1.499.998-.32 2.185.31 2.292 1.392.222 1.237-1.201 2.312-2.332 1.764-1.13-.433-1.344-2.041-.472-2.836l-.101-.487c-.503.653-1.192 1.214-1.337 2.068-.323.583-.883.116-1.27-.031-.224.782-.912 1.475-1.776 1.405-1.091-.005-1.916-1.223-1.525-2.238.275-.882 1.284-1.318 2.147-1.081.178-.584.804-1.38.05-1.813a77.555 77.555 0 0 1-.073-.508 18.764 18.764 0 0 1 1.775.017c-.191.306-.481.52-.762.734.631.024 1.265.01 1.897.02.204-.186.415-.364.624-.545-.27-.018-.54-.03-.809-.041l.014-.509zm-1.397 1.664c.246.666.47 1.34.733 2 .576-.481 1.01-1.1 1.526-1.64-.45-.732-1.532-.2-2.26-.36zm-.545.449l-.257.818c.268.3.478.643.618 1.02l.298-.065c-.185-.604-.427-1.187-.659-1.774zm-2.281 2.835c.553.847 1.876.51 2.135-.414-.497-.025-1.028.084-1.486-.167.206-.42.421-.836.611-1.264-1.009-.227-1.921.989-1.26 1.844zm6.167-1.807c.222.391.461.772.671 1.169-.143.097-.286.192-.431.286-.257-.377-.502-.762-.761-1.138-.439.553-.4 1.462.253 1.835.724.492 1.816-.112 1.781-.989.026-.785-.784-1.318-1.513-1.163zm-4.397.292l-.286.515.624-.017a25.537 25.537 0 0 0-.338-.498z"/>
    <path fill="#fee011" d="M11.802.762c.278-.133.514.126.698.296 3.475 3.486 6.962 6.961 10.441 10.442.299.236.343.664.025.906-3.498 3.502-7.006 6.994-10.499 10.501-.216.301-.659.433-.912.097C8.014 19.462 4.469 15.922.931 12.376c-.298-.229-.247-.631.031-.852 3.353-3.367 6.721-6.72 10.076-10.086.245-.234.462-.509.762-.677zm.607 1.936c-.851.155-.538 1.555.308 1.319.866-.155.539-1.567-.308-1.319zM10.3 5.887c.228.4.456.799.682 1.2-.2.656-.102 1.343-.146 2.014-.289.586-.678 1.115-.997 1.684l.542.385c.517-.839 1.25-1.566 1.52-2.537.547.72.299 1.666.39 2.501.232.001.462.002.694.005.018-.553.041-1.105.055-1.657.059-.773-.379-1.457-.51-2.197.042-.356.199-.689.274-1.039.371.139.743.275 1.111.419.055-.142.112-.283.168-.425-.403-.152-.913-.287-.907-.816-.061-.701-.47-1.295-1.178-1.454-.919.246-1.189 1.231-1.697 1.919zm2.156 6.729l-.014.509c.269.011.539.023.809.041-.209.181-.42.359-.624.545-.632-.011-1.266.004-1.897-.02.281-.215.571-.428.762-.734a18.76 18.76 0 0 0-1.775-.017l.073.508c.754.433.127 1.229-.05 1.813-.863-.236-1.872.199-2.147 1.081-.391 1.015.434 2.233 1.525 2.238.864.07 1.552-.623 1.776-1.405.386.148.947.614 1.27.031.145-.853.834-1.415 1.337-2.068l.101.487c-.872.794-.659 2.402.472 2.836 1.13.548 2.554-.527 2.332-1.764-.107-1.082-1.294-1.712-2.292-1.392-.175-.503-.421-.982-.55-1.499.139-.318.62-.671.3-1.025-.397-.294-.946-.12-1.406-.164z"/>
    <path fill="#fee011" d="M11.082 5.783c.184.038.167.384-.008.424-.192-.041-.178-.384.008-.424zM11.059 14.28c.727.16 1.81-.372 2.26.36-.516.54-.95 1.159-1.526 1.64-.263-.66-.487-1.334-.733-2zM10.514 14.729c.232.587.474 1.17.659 1.774l-.298.065c-.14-.377-.35-.72-.618-1.02.085-.274.17-.546.257-.818zM8.233 17.564c-.661-.856.251-2.071 1.26-1.844-.19.427-.404.844-.611 1.264.457.251.989.142 1.486.167-.259.924-1.582 1.261-2.135.414zM14.4 15.757c.73-.155 1.54.378 1.513 1.163.035.877-1.057 1.481-1.781.989-.653-.373-.692-1.282-.253-1.835.259.376.504.761.761 1.138.145-.094.288-.188.431-.286-.21-.397-.449-.778-.671-1.169z"/>
    <path fill="#fee011" d="M10.003 16.049c.115.164.227.33.338.498l-.624.017.286-.515z"/>
</svg>
