<svg xmlns="http://www.w3.org/2000/svg" width="24" height="24">
    <path fill="#ec1d24" d="M11.78 1.333h.565c.468.142.904.42 1.139.86 3.426 5.937 6.844 11.879 10.27 17.816.13.231.248.47.352.715v.682a1.797 1.797 0 0 1-1.294 1.26H1.327c-.658-.143-1.154-.673-1.326-1.311v-.556c.196-.549.518-1.04.806-1.545C4.084 13.57 7.359 7.883 10.637 2.2c.234-.444.674-.724 1.142-.866zM2.535 20.534c6.352.004 12.704.004 19.054 0A7761.675 7761.675 0 0 0 12.061 4.01a7760.82 7760.82 0 0 0-9.526 16.524z"/>
    <path fill="#fff" d="M2.535 20.534C5.704 15.022 8.88 9.514 12.061 4.01c3.184 5.503 6.356 11.014 9.528 16.524-6.35.004-12.702.004-19.054 0zm1.146-.641c3.748 0 7.496.007 11.244-.004-.19-1.384-1.548-2.056-2.265-3.135.068-.376.036-.786-.243-1.074-.467-.511-.407-1.253-.667-1.86-.243-.581-.528-1.201-.377-1.844.064-1.286-1.22-2.127-1.116-3.409-2.194 3.773-4.382 7.551-6.577 11.324zm7.165-9.93c.115.237.246.484.491.612.346-.182.386-.536.1-.798-.197.06-.396.122-.59.186zm1.034 1.615c.18-.196.396-.373.518-.616.001-.306-.348-.412-.573-.522a.644.644 0 0 0 .055 1.138zm.494 1.21c.052.787.358 1.887 1.359 1.812.447-.244.724-.748 1.188-1.005a5.052 5.052 0 0 1-.37-1.384c-.356-.261-.812-.289-1.196-.489-.389.288-.756.633-.98 1.067zm-.67-.823a6.154 6.154 0 0 1-.172.345 9.8 9.8 0 0 1 .263.345c.19-.147.24-.377.25-.604a4.852 4.852 0 0 1-.341-.085zm3.856 3.444c.405.284 1.148.616 1.481.077.379-.468-.025-1.064-.397-1.392-.724.001-1.361.549-1.084 1.315zm-2.549-.339c-.214.376.078.708.36.932.332-.146.748-.435.544-.856-.036-.46-.851-.58-.904-.077zm3.273 1.085c-.502.396-.991.98-.934 1.666.095.575.668.864 1.087 1.188.43.372 1.008.084 1.511.14.292-.302.667-.562.82-.969.104-.609-.077-1.276-.501-1.728-.539-.448-1.335-.501-1.984-.295zm-2.237 1.387c.221.452.916.268 1.074-.149-.192-.294-.403-.62-.788-.657-.299.121-.498.524-.285.806z"/>
    <path d="M3.681 19.893c2.195-3.773 4.384-7.551 6.577-11.324-.104 1.281 1.18 2.123 1.116 3.409-.15.644.135 1.263.377 1.844.26.606.2 1.348.667 1.86.278.288.311.698.243 1.074.717 1.079 2.075 1.751 2.265 3.135-3.748.011-7.497.004-11.244.004z"/>
    <path d="M10.846 9.963c.196-.064.393-.125.59-.186.285.261.246.616-.1.798-.244-.129-.376-.375-.491-.612zM11.88 11.578a.644.644 0 0 1-.055-1.138c.226.109.575.216.573.522-.122.243-.338.42-.518.616zM12.374 12.788c.224-.434.59-.779.98-1.067.386.2.84.228 1.196.489.065.475.173.945.37 1.384-.463.257-.74.762-1.188 1.005-1.002.076-1.308-1.025-1.359-1.812zM11.704 11.965c.112.033.227.061.341.085-.01.227-.059.457-.25.604a9.52 9.52 0 0 0-.263-.345c.06-.113.118-.229.172-.345zM15.56 15.409c-.277-.765.36-1.314 1.084-1.315.372.328.776.924.397 1.392-.334.539-1.076.207-1.481-.077zM13.011 15.07c.053-.502.868-.383.904.077.205.42-.211.71-.544.856-.282-.224-.575-.556-.36-.932zM16.284 16.155c.648-.206 1.445-.153 1.984.295.424.453.605 1.12.501 1.728-.155.407-.528.667-.82.969-.504-.057-1.081.233-1.511-.14-.42-.323-.992-.612-1.087-1.188-.057-.686.431-1.269.934-1.666zM14.047 17.542c-.212-.282-.013-.686.285-.806.386.036.596.363.788.657-.158.417-.852.602-1.074.149z"/>
</svg>
