<svg xmlns="http://www.w3.org/2000/svg" width="24" height="24">
    <path fill="#ec1d24" d="M11.845 1.333h.46c.482.109.937.383 1.178.826 3.468 5.987 6.924 11.98 10.392 17.967.127.221.224.459.303.701v.464a1.736 1.736 0 0 1-1.335 1.375h-21.5C.687 22.548.164 22.029 0 21.389v-.626c.073-.203.156-.401.26-.588L10.65 2.203c.242-.459.7-.754 1.196-.869zM2.52 20.532c6.373.004 12.747.003 19.119 0-3.184-5.509-6.366-11.02-9.559-16.524-3.193 5.504-6.374 11.015-9.56 16.524z"/>
    <path fill="#fff" d="M2.52 20.532c3.186-5.509 6.367-11.02 9.56-16.524 3.193 5.505 6.375 11.015 9.559 16.524-6.372.003-12.746.004-19.119 0zM9.803 9.286c-.188.317-.372.638-.557.957.636.431.833 1.298.785 2.012-.428.681-1.418.168-2.083.301-.396.684-.788 1.37-1.183 2.053.697.01 1.395.035 2.087.116l.007.368c-.798.024-1.597.038-2.396.062-.092.158-.184.317-.274.476.907-.009 1.813-.025 2.72-.016l.001.442H5.946l-.241.427a85.548 85.548 0 0 1 3.204.04v.382a39.882 39.882 0 0 1-3.508.144c-.188.292-.359.595-.531.897 1.571.036 3.142-.062 4.705-.22-.002.62.007 1.24-.006 1.86.5.313 1.143.269 1.657.014.14-.873-.119-1.866.424-2.617.126-.944.03-1.909.054-2.86.025-.432-.306-.761-.681-.909a62.549 62.549 0 0 1-.554-2.804c-.077-.445-.352-.819-.668-1.127zm4.493 3.361c.117.076.238.148.363.214.081-.062.162-.124.244-.184-.012-.108-.022-.218-.033-.327-.133-.03-.267-.062-.399-.094-.057.131-.116.26-.174.391zm1.379-.152c.021.187.052.372.086.557l.228.026.374-.356c-.194-.179-.412-.393-.689-.227zm-.147 1.22c-.061.14-.124.28-.189.419.17.46.876.352.863-.138a1.353 1.353 0 0 1-.351-.38l-.323.099zm-1.222.137c-.78 1.571-1.596 3.124-2.346 4.708.98-1.465 1.892-2.977 2.842-4.463-.164-.083-.33-.164-.496-.245zm.988 1.544a2.91 2.91 0 0 1-.122.538c.26.358.721.38 1.027.066-.046-.09-.092-.179-.14-.268l.073-.354c-.279-.083-.571-.13-.838.018zm2.099-.06c-.122.169-.236.348-.276.556.162.112.316.234.467.362.185-.146.506-.224.49-.515-.062-.174-.198-.307-.31-.449l-.37.046zm-5.192 3.374c1.13-.597 2.24-1.229 3.363-1.84a31.86 31.86 0 0 0-.334-.46c-1.01.765-2.031 1.517-3.028 2.3zm5.514-1.531c-.436.071-.355.6-.137.856.223-.064.451-.107.679-.148-.09-.274-.101-.916-.542-.708zm-5.59 1.743c1.7-.085 3.39-.324 5.088-.452l-.072-.556c-1.676.318-3.341.685-5.016 1.009zm7.031-.561c-.031.162-.06.33.025.481.218-.091.529.139.674-.088-.047-.217-.236-.368-.354-.548-.115.053-.229.106-.345.156z"/>
    <path fill="#fff" d="M9.978 13.804c.598-.22 1.276.423 1.038 1.029-.178.616-1.093.749-1.456.231-.349-.423-.105-1.122.418-1.26z"/>
    <path fill="#030303" d="M9.803 9.286c.316.308.591.682.668 1.127.168.937.343 1.874.554 2.804.375.148.706.477.681.909-.024.951.072 1.916-.054 2.86-.543.751-.284 1.744-.424 2.617-.514.255-1.156.299-1.657-.014.013-.62.004-1.24.006-1.86-1.563.157-3.134.256-4.705.22.172-.302.342-.604.531-.897a39.898 39.898 0 0 0 3.508-.144 24.321 24.321 0 0 1 0-.382 85.574 85.574 0 0 0-3.204-.04l.241-.427h2.964l-.001-.442c-.907-.009-1.813.007-2.72.016.09-.159.182-.318.274-.476.798-.024 1.597-.038 2.396-.062a45.166 45.166 0 0 1-.007-.368 19.919 19.919 0 0 0-2.087-.116c.396-.684.788-1.37 1.183-2.053.665-.133 1.655.38 2.083-.301.048-.714-.149-1.58-.785-2.012.186-.319.369-.64.557-.957zm.175 4.518c-.523.139-.767.837-.418 1.26.363.518 1.278.385 1.456-.231.237-.606-.44-1.249-1.038-1.029zM14.296 12.647c.059-.131.117-.26.174-.391.132.032.266.064.399.094.011.109.021.219.033.327-.082.06-.163.122-.244.184a5.078 5.078 0 0 1-.363-.214zM15.675 12.495c.276-.166.495.048.689.227a62.86 62.86 0 0 1-.374.356l-.228-.026a7.572 7.572 0 0 1-.086-.557zM15.528 13.715l.323-.099c.094.146.208.278.351.38.012.49-.693.598-.863.138.065-.139.128-.278.189-.419zM14.306 13.852l.496.245c-.949 1.486-1.861 2.998-2.842 4.463.749-1.585 1.565-3.138 2.346-4.708zM15.294 15.396c.268-.148.559-.1.838-.018l-.073.354.14.268c-.306.315-.766.292-1.027-.066a2.91 2.91 0 0 0 .122-.538zM17.393 15.336l.37-.046c.112.142.248.275.31.449.016.291-.305.369-.49.515a5.823 5.823 0 0 0-.467-.362c.041-.208.155-.387.276-.556zM12.201 18.71c.997-.782 2.019-1.534 3.028-2.3.113.152.223.305.334.46-1.123.611-2.233 1.243-3.363 1.84zM17.715 17.179c.441-.208.452.434.542.708-.228.042-.456.084-.679.148-.218-.256-.299-.785.137-.856zM12.125 18.922c1.675-.324 3.34-.691 5.016-1.009l.072.556c-1.698.129-3.388.367-5.088.452zM19.156 18.361c.116-.05.23-.102.345-.156.118.18.307.332.354.548-.145.227-.456-.003-.674.088-.085-.151-.056-.319-.025-.481z"/>
</svg>
