<svg xmlns="http://www.w3.org/2000/svg" width="24" height="24">
    <path fill="#c0111e" d="M10.11 2.556c.832-1.398 3.065-1.407 3.896 0 3.416 5.545 6.657 11.198 9.978 16.802v1.988c-.376.589-.946 1.016-1.566 1.321H1.692c-.721-.373-1.453-.892-1.691-1.712v-.599c.079-.448.056-.94.321-1.331C3.59 13.538 6.758 7.991 10.111 2.556zm1.72 1.597C8.657 9.549 5.46 14.933 2.306 20.34c6.502.006 13.003.006 19.505 0a3712.622 3712.622 0 0 0-9.694-16.457c-.173-.057-.2.173-.286.27z"/>
    <path fill="#fff" d="M11.83 4.153c.086-.097.113-.327.286-.27A3712.622 3712.622 0 0 1 21.81 20.34c-6.502.006-13.003.006-19.505 0C5.46 14.933 8.656 9.549 11.829 4.153zm2.399 6.969c-.71.64-1.427 1.274-2.132 1.919-.004.619-.003 1.237-.001 1.856.433-.408.857-.827 1.289-1.235.008 1.867-.001 3.732.005 5.6.564.003 1.126.004 1.69-.001.004-1.866-.002-3.732.003-5.597.435.407.857.826 1.291 1.234.003-.619.003-1.236 0-1.853-.71-.645-1.42-1.292-2.144-1.922zm-6.209 1.27c-.308.532-.619 1.065-.921 1.602.58-.151 1.164-.292 1.748-.437a710.183 710.183 0 0 0-2.804 4.856c.483.286.972.564 1.459.839.937-1.612 1.869-3.228 2.8-4.844.165.572.33 1.146.499 1.718.314-.521.6-1.056.925-1.57-.265-.934-.589-1.848-.888-2.772-.94.195-1.883.384-2.817.608z"/>
    <path fill="#030303" d="M14.229 11.122c.724.629 1.434 1.276 2.144 1.922.003.618.003 1.235 0 1.853-.433-.408-.856-.827-1.291-1.234-.004 1.866.002 3.732-.003 5.597-.564.005-1.126.004-1.69.002-.006-1.867.003-3.732-.005-5.6-.432.408-.856.827-1.289 1.235-.002-.619-.003-1.237.002-1.856.705-.645 1.421-1.278 2.132-1.919zM8.02 12.392c.934-.224 1.876-.413 2.817-.608.298.924.623 1.838.888 2.772-.324.514-.611 1.05-.925 1.57-.168-.572-.332-1.146-.499-1.718-.93 1.617-1.863 3.232-2.8 4.844a80.98 80.98 0 0 1-1.459-.839 630.465 630.465 0 0 1 2.804-4.856c-.583.146-1.167.286-1.748.437.302-.537.612-1.069.921-1.602z"/>
</svg>
