<svg xmlns="http://www.w3.org/2000/svg" width="24" height="24">
    <path fill="#231f20" d="M12.167 1.141c.656-.128 1.334.148 1.777.634 3.102 3.1 6.209 6.196 9.3 9.306.672.641.713 1.824.026 2.47-3.312 3.169-6.634 6.329-9.943 9.502-.695.696-1.924.635-2.585-.077l-9.414-9.421c-.67-.655-.677-1.843.026-2.477 3.182-3.056 6.379-6.101 9.568-9.152.354-.341.736-.71 1.244-.784zm.339.24c-.468-.016-.888.235-1.206.56-3.23 3.089-6.469 6.172-9.695 9.265-.642.529-.68 1.577-.086 2.155 3.139 3.14 6.274 6.286 9.418 9.42.56.613 1.61.67 2.203.073 3.314-3.164 6.63-6.328 9.941-9.496.578-.548.542-1.547-.03-2.087-3.067-3.094-6.161-6.162-9.235-9.248-.338-.365-.796-.65-1.309-.643z"/>
    <path fill="#231f20" d="M12.034 1.842c.638-.176 1.344.054 1.794.529 2.905 2.896 5.806 5.796 8.702 8.7.673.613.757 1.778.083 2.422-3.107 2.975-6.22 5.942-9.326 8.917-.673.662-1.853.595-2.486-.089-2.939-2.941-5.88-5.88-8.814-8.826-.661-.648-.62-1.823.083-2.425 2.962-2.839 5.929-5.672 8.896-8.507.311-.298.637-.617 1.069-.721zm.117.36c-.347.078-.606.338-.857.572-2.982 2.858-5.98 5.699-8.956 8.563-.587.485-.589 1.446-.031 1.954 2.939 2.942 5.882 5.881 8.826 8.819.496.496 1.379.522 1.886.03 3.092-2.948 6.178-5.905 9.269-8.854.575-.498.529-1.456-.031-1.948-2.87-2.888-5.758-5.762-8.635-8.645-.366-.398-.931-.64-1.471-.492z"/>
    <path fill="#231f20" d="M13.968 4.45a272.127 272.127 0 0 1 3.098 4.355c-.659-.09-1.31-.218-1.967-.32-.007 1.213.008 2.428.006 3.641.017.644-.326 1.313-.931 1.578-.799.377-1.69.06-2.53.17-.428.008-.977.232-.992.73a80.803 80.803 0 0 0-.115 3.906c-.731.023-1.462.047-2.192.043-.001-1.543.01-3.086.023-4.628.007-.835.3-1.774 1.081-2.194.932-.499 2.023-.289 3.032-.359.208-.029.566-.068.529-.356a45.61 45.61 0 0 0-.116-2.561c-.701.065-1.397.179-2.098.241 1.04-1.427 2.114-2.83 3.172-4.246z"/>
    <path fill="#fff100" d="M12.506 1.381c.514-.007.971.278 1.309.643 3.074 3.086 6.168 6.155 9.235 9.248.572.54.608 1.538.03 2.087-3.311 3.168-6.626 6.331-9.941 9.496-.593.596-1.643.54-2.203-.073-3.144-3.134-6.278-6.28-9.418-9.42-.594-.578-.556-1.626.086-2.155 3.226-3.094 6.464-6.176 9.695-9.265.318-.325.738-.576 1.206-.56zm-.472.461c-.432.104-.758.424-1.069.721-2.966 2.834-5.934 5.668-8.896 8.507-.703.602-.744 1.777-.083 2.425 2.934 2.946 5.875 5.885 8.814 8.826.634.684 1.813.751 2.486.089 3.107-2.975 6.22-5.942 9.326-8.917.674-.643.59-1.808-.083-2.422a4461.104 4461.104 0 0 0-8.702-8.7c-.45-.475-1.156-.706-1.794-.529z"/>
    <path fill="#fff100" d="M12.151 2.202c.54-.148 1.105.094 1.471.492 2.878 2.882 5.765 5.756 8.635 8.645.56.492.606 1.45.031 1.948-3.091 2.948-6.176 5.905-9.269 8.854-.508.492-1.391.466-1.886-.03a7338.5 7338.5 0 0 1-8.826-8.819c-.558-.508-.556-1.469.031-1.954 2.976-2.864 5.974-5.705 8.956-8.563.251-.234.51-.494.857-.572zm1.817 2.248c-1.057 1.416-2.131 2.819-3.172 4.246.701-.062 1.397-.176 2.098-.241.067.852.097 1.706.116 2.561.037.288-.322.328-.529.356-1.009.07-2.1-.14-3.032.359-.781.42-1.074 1.358-1.081 2.194a509.802 509.802 0 0 0-.023 4.628c.731.004 1.462-.02 2.192-.043.004-1.302.049-2.605.115-3.906.016-.498.564-.721.992-.73.84-.11 1.73.206 2.53-.17.605-.265.948-.934.931-1.578.002-1.213-.013-2.428-.006-3.641.656.102 1.308.23 1.967.32a283.423 283.423 0 0 0-3.098-4.355z"/>
</svg>
