<svg xmlns="http://www.w3.org/2000/svg" width="24" height="24">
    <path fill="#c0111e" d="M10.983 1.714h1.985c.477.313.9.715 1.179 1.217a1204.334 1204.334 0 0 1 9.285 15.838c.687 1.071.376 2.79-.905 3.258-1.034.302-2.142.134-3.206.258H4.637c-1.066-.123-2.175.045-3.212-.258-1.281-.469-1.587-2.185-.905-3.258C3.56 13.495 6.637 8.238 9.757 3.011c.296-.525.692-1.001 1.224-1.298zM2.397 19.998c6.387.008 12.775.008 19.162 0a2600.28 2600.28 0 0 0-9.581-16.253 2385.527 2385.527 0 0 0-9.581 16.253z"/>
    <path fill="#fff" d="M2.397 19.998C5.574 14.57 8.76 9.148 11.978 3.745a2524.525 2524.525 0 0 1 9.581 16.253c-6.387.008-12.775.008-19.162 0zM11.059 7.67c-.007 1.061 0 2.121-.004 3.181l.629.494c.199-.165.399-.329.599-.496-.005-1.059.002-2.118-.004-3.177a82.668 82.668 0 0 0-1.22-.002zm1.773.539c-.008 1.083.028 2.168-.022 3.249-.003.501-.479.781-.793 1.101-.984.921-2.349 1.679-2.589 3.131-.13 1.263-.035 2.541-.057 3.81.393.002.788.002 1.181 0 .055-1.254-.095-2.524.083-3.766.637-1.557 2.599-2.075 3.263-3.622.237-1.194.082-2.428.13-3.639.06-.399-.386-.564-.617-.803a19.76 19.76 0 0 0-.579.54zm-1.681 7.844c-.01 1.144-.003 2.289-.005 3.435.406.005.813.005 1.22.005.015-1.144.005-2.29.005-3.435a28.932 28.932 0 0 0-.627-.481c-.196.158-.394.318-.592.475z"/>
    <path fill="#040404" d="M11.059 7.67c.406-.003.813-.003 1.22.002.005 1.059-.002 2.118.004 3.177l-.599.496-.629-.494c.004-1.059-.003-2.12.004-3.181z"/>
    <path fill="#040404" d="M12.832 8.209c.189-.185.383-.363.579-.54.231.239.677.405.617.803-.048 1.211.107 2.445-.13 3.639-.664 1.547-2.626 2.065-3.263 3.622-.178 1.242-.028 2.513-.083 3.766-.393.002-.788.002-1.181 0 .022-1.268-.073-2.547.057-3.81.239-1.452 1.604-2.21 2.589-3.131.314-.319.79-.599.793-1.101.051-1.082.015-2.167.022-3.249z"/>
    <path fill="#040404" d="M11.151 16.053l.592-.475c.213.156.421.318.627.481 0 1.144.009 2.29-.005 3.435-.406 0-.813 0-1.22-.005.003-1.146-.005-2.29.005-3.435z"/>
</svg>
