<svg xmlns="http://www.w3.org/2000/svg" width="24" height="24">
    <path fill="#d5bb0e" opacity=".84" d="M11.706 0h.564c.278.134.54.307.76.526 3.236 3.245 6.48 6.484 9.721 9.725.448.458.97.872 1.249 1.466v.538a2.528 2.528 0 0 1-.478.703c-3.284 3.277-6.563 6.562-9.844 9.841-.442.428-.835.932-1.403 1.201h-.527a2.458 2.458 0 0 1-.712-.475c-3.276-3.284-6.559-6.563-9.84-9.844-.426-.437-.92-.83-1.198-1.387v-.569c.264-.605.797-1.018 1.246-1.48 3.22-3.221 6.444-6.438 9.659-9.664a3.13 3.13 0 0 1 .802-.582zm-.023.308c-.21.084-.376.241-.536.395C7.632 4.232 4.102 7.746.586 11.273c-.406.354-.455 1.013-.048 1.387a5501.52 5501.52 0 0 0 10.804 10.802c.373.408 1.033.352 1.38-.06 3.577-3.583 7.163-7.158 10.736-10.744.407-.372.356-1.031-.046-1.384C19.874 7.728 16.327 4.19 12.788.646c-.275-.294-.706-.515-1.105-.338z"/>
    <path d="M11.683.308c.4-.176.83.044 1.105.338 3.539 3.545 7.086 7.082 10.624 10.628.402.353.452 1.012.046 1.384-3.574 3.586-7.159 7.16-10.736 10.744-.347.412-1.007.468-1.38.06A6112.8 6112.8 0 0 1 .538 12.66c-.407-.374-.358-1.033.048-1.387C4.102 7.746 7.632 4.233 11.147.703c.161-.154.326-.311.536-.395zm.124.456C8.16 4.269 4.638 7.921 1.033 11.475c-.293.218-.452.66-.113.918 3.559 3.564 7.123 7.124 10.684 10.686a.501.501 0 0 0 .79 0c3.562-3.562 7.126-7.123 10.685-10.688a.502.502 0 0 0 .002-.787c-3.51-3.53-7.043-7.042-10.556-10.57-.185-.181-.442-.421-.718-.27z"/>
    <path d="M8.981 8.503c.385-.371.748-.896 1.339-.904.47-.029.838.304 1.156.605.66.636 1.682.726 2.272 1.453.282.364.698.578 1.16.59.256-.7-.13-1.544.38-2.152.167-.283.452-.637.82-.444.686.314 1.582.006 2.129.623-.511.356-1.094.588-1.661.839-.109.834-.241 1.874-1.05 2.332-.761.263-1.646.185-2.332.667-.322.214-.28.632-.244.966.092.798.14 1.602.244 2.399.031.487.577.618.907.862-.372.034-.745.04-1.117.032-.383-1.088-.546-2.236-.896-3.331-.312.9-.581 1.836-.586 2.796.199.096.398.193.595.295-.298.272-.718.185-1.084.202.064-1.399.157-2.807.544-4.16-.828.071-1.688.059-2.4-.43-.246.882-.869 1.759-.566 2.705.198.606.466 1.306 1.121 1.537l.08.398c-.392-.01-1.021.208-1.124-.342-.17-.78-.64-1.43-.992-2.129.168-.482.546-.946.288-1.477-.773.854-1.151 2.131-.728 3.234.275.252.738.283.916.674-.407.018-.814.018-1.22.018-.401-.6-.184-1.343-.43-1.991-.169-.404.066-.805.211-1.177.26-.589.206-1.26.088-1.877-.266.27-.196.676-.289 1.014-.176-.743-.17-1.637.32-2.262.662-.592 1.483-.979 2.15-1.566z"/>
    <path fill="#fee011" d="M11.807.764c.276-.151.533.089.718.27 3.514 3.528 7.046 7.039 10.556 10.57a.502.502 0 0 1-.002.787c-3.559 3.565-7.123 7.127-10.685 10.688a.501.501 0 0 1-.79 0C8.044 19.517 4.48 15.957.92 12.393c-.34-.258-.18-.7.113-.918C4.638 7.921 8.16 4.269 11.807.764zM8.981 8.503c-.667.587-1.488.974-2.15 1.566-.491.625-.497 1.519-.32 2.262.094-.338.023-.744.289-1.014.119.617.173 1.288-.088 1.877-.145.372-.38.773-.211 1.177.246.648.029 1.391.43 1.991.407 0 .814 0 1.22-.018-.178-.391-.641-.422-.916-.674-.422-1.103-.044-2.38.728-3.234.258.532-.12.995-.288 1.477.353.698.822 1.349.992 2.129.103.55.732.332 1.124.342l-.08-.398c-.655-.232-.923-.931-1.121-1.537-.302-.946.32-1.823.566-2.705.712.488 1.572.5 2.4.43-.386 1.354-.48 2.761-.544 4.16.366-.017.786.071 1.084-.202a23.471 23.471 0 0 0-.595-.295c.005-.96.274-1.896.586-2.796.35 1.096.514 2.243.896 3.331.372.007.745.001 1.117-.032-.33-.244-.876-.374-.907-.862-.103-.797-.151-1.601-.244-2.399-.036-.334-.078-.752.244-.966.685-.482 1.571-.404 2.332-.667.809-.457.941-1.498 1.05-2.332.566-.251 1.15-.482 1.661-.839-.547-.617-1.442-.308-2.129-.623-.367-.193-.653.161-.82.444-.51.607-.125 1.452-.38 2.152a1.505 1.505 0 0 1-1.16-.59c-.589-.727-1.612-.817-2.272-1.453-.318-.301-.685-.634-1.156-.605-.592.007-.954.533-1.339.904z"/>
</svg>
