<svg xmlns="http://www.w3.org/2000/svg" width="24" height="24">
    <path fill="#f5c704" opacity=".96" d="M11.699 0h.599c.27.136.522.308.736.523 2.874 2.887 5.76 5.764 8.639 8.645.787.796 1.656 1.52 2.328 2.422v.788a4.024 4.024 0 0 1-.571.73c-3.108 3.092-6.202 6.199-9.305 9.296-.554.55-1.075 1.139-1.711 1.596h-.768a3.938 3.938 0 0 1-.751-.571C7.48 20.003 4.057 16.585.635 13.165a7.63 7.63 0 0 1-.634-.755v-.75c.323-.582.851-1.002 1.308-1.472C4.529 6.966 7.753 3.75 10.968.523c.215-.212.466-.383.732-.523zm-.029.379c-.455.248-.773.676-1.144 1.027C7.344 4.584 4.171 7.771.982 10.942c-.508.389-1.015 1.147-.436 1.71 3.524 3.554 7.082 7.079 10.613 10.628.349.46 1.07.638 1.495.174 3.588-3.571 7.163-7.159 10.745-10.738.433-.366.41-1.056-.023-1.412-3.544-3.538-7.084-7.08-10.622-10.622-.272-.286-.7-.493-1.085-.304z"/>
    <path d="M11.67.379c.385-.19.812.018 1.085.304 3.539 3.542 7.079 7.085 10.622 10.622.433.356.456 1.046.023 1.412-3.582 3.578-7.157 7.166-10.745 10.738-.425.464-1.146.286-1.495-.174-3.53-3.55-7.088-7.074-10.613-10.628-.58-.563-.072-1.321.436-1.71 3.188-3.172 6.361-6.359 9.544-9.536.371-.352.689-.779 1.144-1.027zm.121.471C8.145 4.41 4.573 8.05.961 11.646c-.336.241-.169.638.107.845 3.529 3.511 7.045 7.038 10.568 10.555.19.248.538.254.728.004 3.562-3.562 7.127-7.121 10.686-10.685.252-.19.239-.535-.01-.721C19.502 8.1 15.958 4.563 12.42 1.02c-.157-.164-.415-.359-.63-.17z"/>
    <path d="M11.345 5.371c-.277-.923 1.602-.92 1.307-.002.332.029.666.062.998.09.008.392.01.784.007 1.176 1.098.073 2.197.143 3.294.242-.215.756-.316 1.549-.619 2.278-.842.33-1.789.283-2.676.436v.908c1.097.094 2.197.154 3.294.246-.224.77-.292 1.601-.656 2.322-.852.264-1.764.248-2.638.412-.001.296-.002.592-.001.888 1.094.1 2.192.168 3.289.244-.176.79-.364 1.577-.602 2.351-.886.187-1.79.257-2.686.388-.001.391.002.781-.004 1.171l-.793-.002-.046.66c-.54.007-1.078.044-1.618.049l-.056-.709-.791.002c.001-.39 0-.779.004-1.169-.896-.132-1.802-.204-2.689-.391a30.191 30.191 0 0 1-.602-2.35c1.097-.077 2.195-.143 3.29-.242l-.002-.893c-.876-.158-1.788-.142-2.639-.413-.36-.721-.431-1.548-.654-2.317 1.076-.11 2.162-.114 3.235-.258.112-.281.043-.6.065-.896-.876-.13-1.78-.14-2.632-.392-.384-.709-.431-1.553-.668-2.32 1.097-.103 2.196-.168 3.294-.245-.001-.391.001-.782-.002-1.174l.997-.089zm.209 1.621c-.734.282-.962 1.336-.391 1.885.587.654 1.82.331 1.978-.546.246-.874-.761-1.742-1.586-1.339zm.126 3.861c-.535.136-.908.701-.833 1.247.061.692.838 1.223 1.502.984.63-.187 1-.947.734-1.554-.206-.547-.848-.838-1.404-.677zm-.126 3.941c-.736.28-.962 1.337-.395 1.888.582.648 1.807.342 1.978-.527.264-.881-.748-1.765-1.583-1.361z"/>
    <path fill="#ffd005" d="M11.791.85c.215-.188.473.006.63.17 3.538 3.542 7.082 7.08 10.62 10.624.248.186.262.532.01.721-3.559 3.564-7.124 7.123-10.686 10.685a.447.447 0 0 1-.728-.004c-3.523-3.517-7.039-7.044-10.568-10.555-.276-.206-.443-.604-.107-.845C4.574 8.05 8.146 4.41 11.792.85zm-.446 4.521l-.997.089c.004.391.001.782.002 1.174-1.098.077-2.197.142-3.294.245.238.767.284 1.61.668 2.32.852.252 1.756.263 2.632.392-.022.296.047.616-.065.896-1.073.144-2.159.148-3.235.258.223.769.294 1.596.654 2.317.851.271 1.763.254 2.639.413l.002.893c-1.096.1-2.194.166-3.29.242.175.79.365 1.576.602 2.35.887.187 1.793.259 2.689.391-.004.39-.002.779-.004 1.169l.791-.002.056.709c.54-.005 1.078-.042 1.618-.049.014-.221.03-.44.046-.66l.793.002c.006-.39.002-.78.004-1.171.895-.131 1.8-.2 2.686-.388.239-.774.426-1.561.602-2.351-1.097-.076-2.195-.144-3.289-.244-.001-.296 0-.592.001-.888.874-.163 1.786-.148 2.638-.412.365-.721.432-1.552.656-2.322-1.097-.092-2.197-.152-3.294-.246a137.41 137.41 0 0 1 0-.908c.887-.152 1.834-.106 2.676-.436.304-.728.404-1.522.619-2.278-1.097-.1-2.196-.169-3.294-.242.002-.392.001-.784-.007-1.176-.332-.028-.666-.061-.998-.09.295-.918-1.584-.92-1.307.002z"/>
    <path fill="#ed1c24" d="M11.554 6.992c.826-.403 1.832.466 1.586 1.339-.157.877-1.391 1.2-1.978.546-.571-.55-.343-1.603.391-1.885z"/>
    <path fill="#f7931d" d="M11.68 10.853c.556-.161 1.198.13 1.404.677.265.607-.104 1.367-.734 1.554-.665.239-1.441-.292-1.502-.984-.076-.546.298-1.111.833-1.247z"/>
    <path fill="#00a650" d="M11.554 14.794c.835-.404 1.847.48 1.583 1.361-.17.869-1.396 1.175-1.978.527-.568-.551-.341-1.608.395-1.888z"/>
</svg>
