<svg xmlns="http://www.w3.org/2000/svg" width="24" height="24">
    <path fill="#ffd520" d="M0 2.4h24v19.2H0V2.4zm.402.402C.4 8.941.4 15.082.4 21.221c7.759.004 15.517.002 23.275 0 .002-6.139.005-12.28-.002-18.42-7.758 0-15.514-.002-23.273.002z"/>
    <path fill="#ffd520" d="M.804 3.204c7.49-.005 14.982-.002 22.473-.002.002 5.873.004 11.746-.002 17.618-7.49-.002-14.982.005-22.472-.004C.801 14.945.8 9.074.805 3.202zm1.082 4.723c.128.692.996.092 1.438.062.006 3.792-.002 7.584.005 11.376.57.004 1.138.004 1.709.002-.085-1.62.05-3.323.985-4.706.858-1.178 1.862-2.279 3.094-3.076.242.377.228 1.396.871 1.163.521-1.217.862-2.506 1.286-3.761-1.241-.011-2.481-.052-3.722-.032-.216-.04-.327.144-.45.283.257.393.66.643 1.006.948-1.192.732-2.334 1.63-3.065 2.844a770.359 770.359 0 0 1 0-5.042c.44.029 1.315.634 1.442-.062-.694-1.116-1.524-2.148-2.302-3.209-.775 1.062-1.606 2.093-2.299 3.209zm10.412 2.338c.271.309.623.532.931.801-1.138.874-1.854 2.261-1.874 3.698-.017 1.526-.005 3.051-.005 4.578.54.005 1.08.004 1.622 0 .01-1.41-.011-2.821.008-4.231.016-.996.435-2.032 1.307-2.574.257.4.242 1.464.905 1.231.581-1.257.909-2.635 1.366-3.948-1.32-.021-2.642-.054-3.96-.03-.252-.043-.472.274-.3.475zm6.48 1.639c-1.103.85-1.821 2.177-1.87 3.574-.032 1.287-.008 2.576-.012 3.864.54.005 1.08.005 1.62 0 .011-1.13-.01-2.261.01-3.391.021-.986.424-2.05 1.314-2.562.235.391.287 1.581.948 1.164.507-1.27.886-2.59 1.314-3.891-1.366-.017-2.735-.072-4.099-.017-.618.485.478.922.775 1.26z"/>
    <path d="M.402 2.802C8.16 2.8 15.916 2.8 23.675 2.8c.006 6.14.004 12.281.002 18.42-7.758.002-15.516.004-23.275 0C.402 15.081.4 8.94.404 2.801zm.402.402C.799 9.076.802 14.946.802 20.818c7.49.008 14.982.001 22.473.004.005-5.873.002-11.746.002-17.618-7.49-.002-14.982-.003-22.472.002z"/>
    <path d="M1.886 7.927C2.58 6.811 3.41 5.781 4.185 4.718c.778 1.061 1.606 2.093 2.302 3.209-.127.696-1.002.09-1.442.062a770.359 770.359 0 0 0 0 5.042c.731-1.214 1.873-2.112 3.065-2.844-.346-.305-.749-.555-1.006-.948.122-.139.234-.323.45-.283 1.241-.019 2.48.022 3.721.032-.423 1.254-.766 2.544-1.286 3.761-.643.233-.629-.786-.871-1.163-1.231.797-2.236 1.898-3.094 3.076-.934 1.382-1.07 3.085-.985 4.706-.57.002-1.138.002-1.709-.002-.007-3.792.002-7.584-.005-11.376-.443.03-1.31.63-1.439-.062zM12.298 10.265c-.172-.202.048-.518.3-.475 1.318-.024 2.64.01 3.96.03-.458 1.313-.786 2.691-1.366 3.948-.663.233-.648-.832-.905-1.231-.871.542-1.291 1.578-1.307 2.574-.019 1.41.002 2.822-.008 4.231-.542.004-1.082.005-1.622 0 0-1.526-.012-3.052.005-4.578.02-1.438.735-2.825 1.874-3.698-.308-.269-.66-.492-.931-.801zM18.778 11.904c-.298-.338-1.394-.775-.775-1.26 1.365-.055 2.734 0 4.099.017-.428 1.301-.806 2.622-1.314 3.891-.661.417-.713-.773-.948-1.164-.89.512-1.294 1.576-1.314 2.562-.019 1.13.002 2.261-.01 3.391-.54.005-1.08.005-1.62 0 .004-1.288-.021-2.577.012-3.864.05-1.397.767-2.724 1.87-3.574z"/>
</svg>
