<svg xmlns="http://www.w3.org/2000/svg" width="24" height="24">
    <path fill="#c31926" d="M11.588 1.714h.591c.496.154.863.538 1.096.991 3.484 5.985 7.056 11.921 10.507 17.925v.597a1.807 1.807 0 0 1-1.041 1.059H1.064a1.797 1.797 0 0 1-1.065-1.031v-.609C3.433 14.628 7.024 8.697 10.506 2.705c.231-.448.593-.829 1.081-.991zm.223 1.205C8.304 8.749 4.905 14.651 1.43 20.505c-.088.195-.428.568-.013.579 6.9.032 13.804.001 20.706.015.176.005.632-.019.401-.285-3.429-5.877-6.9-11.732-10.339-17.603-.1-.129-.166-.369-.374-.291z"/>
    <path fill="#c31926" d="M10.513 13.402a180.98 180.98 0 0 1 2.757 0c.627.678 1.369 1.265 1.929 1.996.061.911.003 1.827.022 2.739-.663.667-1.336 1.323-1.994 1.996a15.882 15.882 0 0 0-2.671 0c-.657-.673-1.332-1.329-1.994-1.995.021-.913-.038-1.829.022-2.739.56-.731 1.299-1.319 1.929-1.996zm-1.414 2.537c-.328.764 1.131.854.764 1.561-.261.334-.534-.043-.673-.279-.069.005-.207.012-.276.015.095.338.279.759.703.722.633.015.879-.908.368-1.25-.3-.212-.923-.618-.303-.869.189.147.399.267.624.347-.001-.673-.992-.918-1.206-.248zm3.186-.39c-.696.345-.583 1.355-.405 1.986.165.639 1.132.497 1.179-.138.16-.639.183-1.974-.776-1.848zm-1.966.036c.036.27.271.304.495.338-.009.666-.005 1.333-.003 1.999.086-.003.255-.01.34-.015-.005-.673-.001-1.346-.003-2.019l.43-.015.001-.302c-.42-.001-.839-.003-1.259.015zm3.193-.02c-.003.783-.003 1.569-.001 2.352l.335.001c.003-.337.003-.675.01-1.011.447.05 1.049-.121.973-.686.03-.719-.817-.681-1.317-.657z"/>
    <path fill="#c31926" d="M12.284 15.9c.522-.19.531.578.531.918.036.316-.15 1.072-.565.715-.237-.494-.249-1.154.034-1.633zM13.851 15.865c.239.049.649.005.648.354.045.393-.391.319-.649.374-.001-.243-.001-.485.001-.728z"/>
    <path fill="#fff" d="M11.811 2.919c.207-.079.273.163.374.291 3.439 5.871 6.911 11.726 10.339 17.603.231.267-.225.291-.401.285-6.902-.015-13.805.016-20.706-.015-.415-.01-.075-.384.013-.579C4.905 14.65 8.303 8.748 11.811 2.918zm-2.904 7.488c.201.201.403.399.601.602.654-.657 1.311-1.311 1.965-1.967-.001 1.002.003 2.006-.003 3.009l.856.001c-.007-.998-.003-1.995-.003-2.993.651.649 1.301 1.299 1.949 1.95.199-.203.401-.401.602-.602-1.001-.997-2.001-1.993-2.985-3.006-.98 1.014-1.983 2.009-2.982 3.006zm1.404 2.817c-.675.633-1.351 1.278-1.959 1.972-.102.733-.001 1.477-.043 2.214.016.399-.093.891.269 1.173.623.566 1.158 1.231 1.818 1.753.956.111 1.941.063 2.907.027.569-.303.93-.894 1.422-1.308.277-.317.758-.568.742-1.045.01-.943-.005-1.886-.005-2.829-.676-.639-1.293-1.341-1.99-1.957a10.593 10.593 0 0 0-3.16 0z"/>
    <path fill="#fff" d="M9.099 15.939c.214-.67 1.204-.426 1.206.248a2.26 2.26 0 0 1-.624-.347c-.62.251.003.657.303.869.512.343.267 1.265-.368 1.25-.423.038-.608-.384-.703-.722.069-.003.207-.01.276-.015.139.237.411.614.673.279.368-.707-1.092-.798-.764-1.561zM12.285 15.549c.958-.126.936 1.208.776 1.848-.048.635-1.014.777-1.179.138-.178-.63-.291-1.641.405-1.986zm-.001.351c-.283.479-.273 1.139-.034 1.633.415.358.601-.399.565-.715 0-.34-.009-1.108-.531-.918zM10.319 15.585c.42-.016.839-.015 1.259-.015l-.001.302-.43.015c.003.673-.001 1.346.003 2.019-.085.003-.255.01-.34.015-.001-.666-.005-1.333.003-1.999-.224-.033-.459-.068-.495-.338zM13.512 15.565c.501-.025 1.347-.063 1.317.657.076.565-.525.736-.973.686-.009.337-.009.675-.01 1.011l-.335-.001c-.001-.783-.003-1.569.001-2.352zm.339.3c-.003.243-.003.485-.001.728.258-.055.694.021.649-.374.001-.35-.409-.306-.648-.354zM10.556 20.133a15.882 15.882 0 0 1 2.671 0l.174.028a9.698 9.698 0 0 1-3.018 0l.174-.028z"/>
    <path d="M8.907 10.407c1-.997 2.002-1.992 2.982-3.006a241.646 241.646 0 0 0 2.985 3.006c-.201.201-.403.399-.602.602a895.799 895.799 0 0 0-1.949-1.95c-.001.998-.005 1.995.003 2.993l-.856-.001c.006-1.002.001-2.006.003-3.009-.653.657-1.311 1.311-1.965 1.967-.197-.203-.399-.401-.601-.602z"/>
    <path fill="#9d9d9d" d="M10.311 13.224a10.593 10.593 0 0 1 3.16 0 51.22 51.22 0 0 1-3.16 0z"/>
    <path fill="#d4cccd" d="M8.352 15.196c.608-.694 1.284-1.34 1.959-1.972a51.22 51.22 0 0 0 3.16 0c.697.616 1.314 1.319 1.99 1.957 0 .943.015 1.886.005 2.829.015.477-.465.728-.742 1.045-.492.414-.853 1.005-1.422 1.308-.964.037-1.95.085-2.907-.027-.66-.522-1.195-1.186-1.818-1.753-.362-.283-.252-.774-.269-1.173.042-.737-.059-1.482.043-2.214zm2.161-1.794c-.629.678-1.369 1.265-1.929 1.996-.061.911-.003 1.827-.022 2.739.663.667 1.338 1.323 1.994 1.995l-.174.028a9.698 9.698 0 0 0 3.018 0l-.174-.028c.657-.673 1.332-1.329 1.994-1.996-.021-.912.038-1.827-.022-2.739-.56-.731-1.301-1.319-1.929-1.996a180.98 180.98 0 0 0-2.757 0z"/>
</svg>
