<svg xmlns="http://www.w3.org/2000/svg" width="24" height="24">
    <path fill="#ffd033" d="M11.732 0h.48a2.4 2.4 0 0 1 .668.434c3.341 3.341 6.68 6.683 10.026 10.02.41.418.902.8 1.093 1.38v.29c-.098.275-.234.54-.443.746A8971.662 8971.662 0 0 0 12.87 23.556c-.202.2-.454.337-.715.443h-.283c-.58-.15-.947-.642-1.354-1.039-3.18-3.18-6.355-6.365-9.538-9.542-.364-.355-.754-.702-.982-1.166v-.476c.214-.551.69-.918 1.088-1.328C4.187 7.35 7.288 4.25 10.387 1.15 10.808.738 11.19.264 11.73 0zm-.154.425C7.905 3.985 4.332 7.657.693 11.256c-.388.302-.556.919-.162 1.289 3.616 3.629 7.24 7.249 10.861 10.871.31.356.907.349 1.212-.01l10.801-10.802c.395-.334.343-.961-.043-1.279-3.563-3.56-7.128-7.118-10.688-10.681-.264-.307-.74-.472-1.096-.218z"/>
    <path fill="#ffd033" d="M11.91.75c.216-.055.372.134.517.26 3.536 3.545 7.084 7.08 10.62 10.626.204.161.275.474.047.65-3.575 3.588-7.164 7.163-10.741 10.75-.156.206-.47.292-.65.062C8.098 19.503 4.499 15.899.901 12.297c-.238-.18-.168-.5.044-.667C4.481 8.084 8.029 4.548 11.567 1.002c.104-.094.209-.199.343-.252zM3.82 9.349c2.694.006 5.389.002 8.084.002.071.27.146.54.22.811-.458.145-.974.182-1.374.464-.248.467-.095 1.032-.126 1.541-.26.068-.516.152-.774.226.115.503.257.998.378 1.499a.658.658 0 0 0-.187.469c.323-.082.646-.158.966-.245.169.192.355.366.552.53-2.579-.034-5.159-.01-7.738-.012 2.718 2.73 5.452 5.447 8.173 8.173 2.722-2.728 5.452-5.446 8.172-8.174-2.72.002-5.44-.014-8.16.01.374-.185.576-.545.624-.949.124-.044.248-.089.374-.132l-.016-.322c.852-.209 1.696-.451 2.545-.673.134.497.599.942 1.146.776.551-.131.713-.746.613-1.241.324-.089.646-.186.971-.27-.328-1.246-.668-2.486-.996-3.73-1.177.221-2.362.412-3.518.726a1.047 1.047 0 0 1-.521-.025 8.605 8.605 0 0 0-.296.24 19.19 19.19 0 0 0-.367-.336c-.072.156-.15.308-.226.462l-.337-.014c-.022-2.662-.001-5.322-.011-7.984-2.726 2.723-5.454 5.446-8.172 8.177z"/>
    <path fill="#ffd033" d="M10.98 10.784c.318-.089.636-.182.96-.248.095.354.188.708.276 1.063-.394.107-.788.211-1.188.293a18.584 18.584 0 0 1-.048-1.108z"/>
    <path d="M11.578.425c.355-.253.832-.089 1.096.218 3.56 3.563 7.126 7.121 10.688 10.681.386.318.438.946.043 1.279L12.604 23.405c-.305.359-.902.366-1.212.01C7.77 19.793 4.146 16.173.531 12.544c-.394-.37-.226-.986.162-1.289C4.333 7.656 7.905 3.984 11.578.424zm.332.325c-.134.053-.239.158-.343.252C8.028 4.548 4.481 8.084.945 11.63c-.212.167-.282.487-.044.667 3.599 3.602 7.198 7.206 10.802 10.801.18.229.494.144.65-.062 3.577-3.587 7.166-7.162 10.741-10.75.228-.176.157-.49-.047-.65-3.536-3.546-7.084-7.081-10.62-10.626-.145-.126-.301-.316-.517-.26z"/>
    <path d="M3.82 9.349c2.718-2.731 5.446-5.454 8.172-8.177.01 2.662-.011 5.322.011 7.984l.337.014c.076-.154.154-.306.226-.462.124.11.246.222.367.336.097-.082.196-.162.296-.24.169.044.349.07.521.025 1.157-.314 2.341-.505 3.518-.726.328 1.243.668 2.484.996 3.73-.325.084-.647.181-.971.27.1.494-.062 1.11-.613 1.241-.547.166-1.012-.28-1.146-.776-.85.222-1.693.464-2.545.673l.016.322c-.126.043-.251.088-.374.132-.048.404-.25.764-.624.949 2.72-.024 5.44-.007 8.16-.01-2.72 2.729-5.45 5.447-8.172 8.174-2.722-2.726-5.455-5.443-8.173-8.173 2.579.002 5.159-.022 7.738.012a4.938 4.938 0 0 1-.552-.53c-.32.086-.643.163-.966.245 0-.179.062-.34.187-.469-.121-.5-.263-.996-.378-1.499.258-.073.514-.157.774-.226.031-.509-.122-1.074.126-1.541.4-.282.916-.319 1.374-.464-.073-.271-.149-.541-.22-.811-2.695 0-5.39.004-8.084-.002zm7.16 1.435c.007.37.019.739.048 1.108.4-.082.794-.186 1.188-.293a57.219 57.219 0 0 0-.276-1.063c-.324.066-.642.16-.96.248z"/>
</svg>
