<svg xmlns="http://www.w3.org/2000/svg" width="24" height="24">
    <path fill="#ef7c23" d="M11.717 0h.522c.258.128.505.283.712.486 3.278 3.283 6.56 6.563 9.841 9.842.431.437.916.84 1.208 1.39v.527c-.253.553-.738.937-1.154 1.361-3.061 3.059-6.121 6.12-9.18 9.18-.438.43-.838.918-1.386 1.214h-.533a2.839 2.839 0 0 1-.691-.492c-3.256-3.265-6.522-6.521-9.781-9.784-.446-.46-.962-.871-1.274-1.444v-.534c.27-.574.776-.973 1.208-1.418C4.471 7.069 7.732 3.81 10.99.547c.217-.212.464-.394.727-.547zm-.045.389c-.347.202-.6.523-.886.798C7.386 4.59 3.977 7.983.585 11.391a.812.812 0 0 0 .008 1.213l10.801 10.804a.806.806 0 0 0 1.211.002c3.599-3.602 7.199-7.205 10.8-10.805a.812.812 0 0 0 .008-1.214C19.86 7.822 16.289 4.27 12.733.703c-.262-.284-.682-.526-1.062-.313z"/>
    <path fill="#ef7c23" d="M10.958 1.717c.336-.323.628-.707 1.042-.937.264.145.476.362.685.575 3.508 3.564 7.118 7.033 10.574 10.644-3.578 3.692-7.268 7.279-10.882 10.938-.172.24-.505.337-.695.059C8.11 19.41 4.519 15.839.949 12.251c-.256-.19-.082-.475.104-.635 3.304-3.296 6.601-6.6 9.904-9.899zm-.711 7.074a7.407 7.407 0 0 0 1.138-.152c.04.557-.044 1.141.136 1.679.413.695 1.327.808 1.836 1.409.443.458.535 1.186.23 1.744-.443.984-1.78 1.122-2.182 2.131-.164.67-.048 1.37-.078 2.052.373.002.748.002 1.122.002.012-.652-.151-1.445.378-1.946.648-.59 1.418-1.088 1.866-1.865.401-.868.376-1.976-.244-2.738-.476-.641-1.219-.978-1.921-1.309-.005-.395-.004-.79-.002-1.184.352.03.852.324 1.114 0-.452-1.057-1.076-2.044-1.685-3.02-.656 1.008-1.366 2.039-1.708 3.199zm5.676-3.198c-.613 1.028-1.337 2.035-1.687 3.188.385-.01.768-.058 1.145-.142.05.574-.06 1.187.166 1.73.466.684 1.416.791 1.897 1.465.402.484.412 1.204.09 1.732-.476.889-1.69 1.046-2.11 1.979-.199.683-.067 1.409-.097 2.11h1.12c.008-.67-.151-1.492.42-1.988.655-.578 1.42-1.085 1.85-1.867.348-.818.353-1.83-.179-2.573-.47-.701-1.247-1.092-2.002-1.411a27.016 27.016 0 0 1-.012-1.208c.355.031.836.329 1.12.012a18.65 18.65 0 0 0-1.721-3.026zm-7.984.126c-.617.97-1.238 1.961-1.673 3.024.194.383.768.038 1.12.02.041.568-.053 1.168.148 1.71.44.706 1.397.806 1.888 1.466.433.49.443 1.241.103 1.783-.496.905-1.784 1.051-2.135 2.063-.133.655-.04 1.333-.061 1.998l1.12-.001c.011-.66-.149-1.469.407-1.966.65-.581 1.416-1.082 1.852-1.861.367-.833.365-1.876-.192-2.628-.472-.685-1.243-1.054-1.979-1.385a39.674 39.674 0 0 1-.01-1.195c.372.092.752.143 1.135.15-.386-1.144-1.087-2.159-1.722-3.179z"/>
    <path d="M11.672.389c.38-.212.8.029 1.062.313 3.556 3.568 7.127 7.12 10.68 10.688a.812.812 0 0 1-.008 1.214c-3.601 3.6-7.201 7.202-10.8 10.805a.806.806 0 0 1-1.211-.002L.594 12.603a.812.812 0 0 1-.008-1.213c3.392-3.408 6.802-6.8 10.201-10.204.286-.275.539-.596.886-.798zm-.714 1.328c-3.302 3.299-6.6 6.602-9.904 9.899-.186.16-.36.445-.104.635 3.57 3.588 7.16 7.159 10.733 10.745.19.278.523.181.695-.059 3.613-3.659 7.303-7.246 10.882-10.938-3.456-3.611-7.067-7.08-10.574-10.644-.209-.212-.421-.43-.685-.575-.414.23-.706.614-1.042.937z"/>
    <path d="M10.247 8.791c.342-1.16 1.051-2.191 1.708-3.199.608.977 1.232 1.963 1.685 3.02-.262.324-.762.03-1.114 0-.001.395-.002.79.002 1.184.702.331 1.445.668 1.921 1.309.619.762.644 1.871.244 2.738-.448.776-1.218 1.274-1.866 1.865-.529.502-.366 1.295-.378 1.946-.374 0-.749 0-1.122-.002.03-.682-.086-1.382.078-2.052.402-1.009 1.739-1.147 2.182-2.131a1.51 1.51 0 0 0-.23-1.744c-.509-.601-1.423-.714-1.836-1.409-.18-.538-.096-1.122-.136-1.679a7.407 7.407 0 0 1-1.138.152z"/>
    <path d="M15.923 5.593c.662.952 1.248 1.97 1.721 3.026-.283.317-.764.019-1.12-.012-.004.403-.002.806.012 1.208.755.319 1.531.71 2.002 1.411.532.743.527 1.754.179 2.573-.431.782-1.195 1.289-1.85 1.867-.571.497-.412 1.319-.42 1.988h-1.12c.03-.701-.102-1.427.097-2.11.42-.932 1.633-1.09 2.11-1.979.322-.528.312-1.248-.09-1.732-.481-.674-1.432-.781-1.897-1.465-.226-.544-.115-1.157-.166-1.73-.377.084-.76.132-1.145.142.35-1.153 1.074-2.16 1.687-3.188zM7.939 5.719c.635 1.02 1.336 2.035 1.722 3.179a5.114 5.114 0 0 1-1.135-.15c-.001.398-.001.797.01 1.195.736.331 1.507.7 1.979 1.385.557.752.559 1.795.192 2.628-.436.779-1.201 1.28-1.852 1.861-.556.497-.396 1.306-.407 1.966l-1.12.001c.022-.665-.072-1.343.061-1.998.35-1.012 1.639-1.158 2.135-2.063.34-.542.33-1.294-.103-1.783-.491-.66-1.447-.761-1.888-1.466-.2-.542-.107-1.142-.148-1.71-.352.018-.925.362-1.12-.02.434-1.063 1.056-2.054 1.673-3.024z"/>
</svg>
