<svg xmlns="http://www.w3.org/2000/svg" width="24" height="24">
    <path fill="#ab5702" opacity=".71" d="M11.869 0h.359c.551.185.93.64 1.327 1.038 3.343 3.331 6.693 6.655 10.056 9.965.246.234.425.529.51.857v.263c-.159.63-.716 1.011-1.145 1.452a5487.748 5487.748 0 0 0-9.975 9.918c-.24.246-.548.412-.877.505h-.221c-.271-.093-.535-.222-.743-.426-3.181-3.171-6.392-6.312-9.572-9.483-.535-.55-1.123-1.052-1.588-1.666v-.862c.292-.382.617-.738.971-1.064C4.12 7.375 7.26 4.243 10.419 1.129c.443-.422.835-.954 1.45-1.131zm-.139.283c-.267.11-.478.316-.685.51C7.533 4.278 4.021 7.763.515 11.254c-.415.361-.463 1.043-.029 1.411 3.583 3.571 7.183 7.129 10.765 10.701.387.462 1.135.481 1.534.024 3.61-3.587 7.218-7.175 10.819-10.77.438-.374.317-1.061-.095-1.405-3.53-3.504-7.066-7-10.589-10.511-.303-.309-.742-.602-1.19-.422z"/>
    <path fill="#030303" d="M11.73.283c.449-.18.888.113 1.19.422 3.523 3.511 7.059 7.007 10.589 10.511.412.344.533 1.031.095 1.405-3.601 3.595-7.21 7.183-10.819 10.77-.399.457-1.147.438-1.534-.024-3.582-3.572-7.182-7.13-10.765-10.701-.434-.368-.386-1.05.029-1.411C4.021 7.764 7.533 4.279 11.045.794c.207-.194.418-.4.685-.51zm.014.361C8.082 4.175 4.514 7.81.881 11.375c-.323.25-.533.739-.16 1.049 3.629 3.607 7.28 7.194 10.911 10.799.182.226.56.236.761.028 3.637-3.601 7.288-7.19 10.922-10.795.322-.267.268-.743-.045-.99C19.697 7.921 16.119 4.379 12.547.835c-.194-.217-.535-.388-.803-.191z"/>
    <path fill="#030303" d="M11.936 7.741c1.761-.294 3.523-.579 5.288-.844-.303 1.815-.578 3.636-.903 5.446-.036.416-.655.503-.848.159-.297-.435-.52-.917-.794-1.366-2.252 2.205-4.472 4.441-6.716 6.652a159.731 159.731 0 0 1-1.751-1.741c2.213-2.224 4.454-4.421 6.663-6.648-.475-.323-1.02-.545-1.462-.915-.252-.351.171-.733.522-.743z"/>
    <path fill="#ef7b03" d="M11.744.644c.268-.198.609-.027.803.191 3.572 3.545 7.149 7.087 10.723 10.631.312.247.367.724.045.99-3.634 3.605-7.284 7.194-10.922 10.795-.201.209-.579.198-.761-.028C8.001 19.618 4.35 16.031.721 12.424c-.373-.31-.163-.8.16-1.049C4.514 7.81 8.082 4.175 11.744.644zm.192 7.097c-.351.01-.774.392-.522.743.441.37.987.592 1.462.915-2.209 2.226-4.45 4.424-6.663 6.648a159.68 159.68 0 0 0 1.751 1.741c2.244-2.212 4.465-4.448 6.716-6.652.274.45.497.931.794 1.366.193.344.812.257.848-.159.326-1.81.601-3.631.903-5.446-1.766.265-3.528.55-5.288.844z"/>
</svg>
