<svg xmlns="http://www.w3.org/2000/svg" width="24" height="24">
    <path fill="#cd1e00" d="M11.926 1.333h.371c.492.209.736.7.98 1.142 3.641 6.372 7.342 12.711 10.964 19.092v.494c-.171.182-.34.364-.531.526-1.519-.09-3.04-.022-4.56-.043-6.204.026-12.41-.051-18.611.039-.197-.164-.369-.356-.54-.546v-.42c3.686-6.53 7.484-12.999 11.196-19.514.169-.319.416-.591.73-.772zM3.813 20.062c5.549.006 11.097.001 16.644.003-2.771-4.811-5.538-9.624-8.316-14.431-2.813 4.788-5.56 9.616-8.33 14.429z"/>
    <path fill="#fff" d="M3.813 20.062c2.77-4.813 5.516-9.641 8.33-14.429 2.777 4.807 5.544 9.62 8.316 14.431-5.548-.001-11.096.004-16.644-.003zm7.013-9.353c-1.02.54.183 2.308 1.081 1.676.623-.636-.217-2.023-1.081-1.676zm-2.28 2.545c.94.724 1.346 1.927 2.127 2.804.036-.134.092-.284-.02-.403-.5-.756-1.014-1.502-1.514-2.258.702-.001 1.403-.003 2.104.003.348.52.697 1.039 1.037 1.564-.549.411-1.187.724-1.664 1.222-.08.734-.036 1.484-.026 2.223-.003.422.656.514.782.117.116-.569-.058-1.174.089-1.729.596-.464 1.244-.862 1.852-1.311.431.596.776 1.26 1.269 1.806.751.097 1.519.043 2.276.033.449.018.513-.724.071-.789-.561-.068-1.129-.014-1.692-.027-.698-1.036-1.397-2.073-2.091-3.111.276-.003.551-.001.828-.004.35.471.617 1.009 1.018 1.44.236.124.422-.106.593-.233.414.003.829.004 1.243-.028-.356-.377-.907-.169-1.359-.211-.56-.576-.769-1.823-1.773-1.657-1.618.014-3.236-.011-4.853.011-.284-.076-.563.369-.298.536zm7.138 5.705c-.241.284-.636.213-.964.256.149.516.884.41 1.19.093.763-.754 1.494-1.54 2.253-2.3-.073-.123-.146-.244-.217-.366-.76.766-1.502 1.55-2.262 2.316zm-7.427-.528c-.123.564.369 1.136.947 1.089 1.5.011 3-.001 4.5.003l.001-.476c-1.54-.006-3.081.013-4.622-.007-.436.06-.464-.537-.827-.607z"/>
    <path d="M10.826 10.709c.864-.348 1.704 1.039 1.081 1.676-.898.633-2.1-1.136-1.081-1.676z"/>
    <path d="M8.546 13.254c-.264-.167.013-.611.298-.536 1.617-.022 3.236.004 4.853-.011 1.004-.166 1.213 1.081 1.773 1.657.452.043 1.004-.166 1.359.211-.413.031-.828.03-1.243.028-.171.127-.357.357-.593.233-.401-.431-.668-.969-1.018-1.44-.276.003-.551.001-.828.004.693 1.039 1.393 2.076 2.091 3.111.564.012 1.131-.041 1.692.027.441.066.377.807-.071.789-.757.01-1.524.064-2.276-.033-.493-.546-.837-1.211-1.269-1.806-.609.45-1.256.847-1.852 1.311-.147.554.027 1.16-.089 1.729-.126.396-.784.304-.782-.117-.011-.74-.054-1.489.026-2.223.477-.497 1.116-.811 1.664-1.222-.34-.526-.69-1.044-1.037-1.564-.702-.004-1.403-.004-2.104-.003.5.756 1.013 1.503 1.514 2.258.111.117.056.268.02.403-.782-.877-1.188-2.08-2.127-2.804z"/>
    <path d="M15.684 18.959c.76-.766 1.502-1.55 2.262-2.316.071.123.144.244.217.366-.759.759-1.491 1.546-2.253 2.3-.307.316-1.041.423-1.19-.093.329-.043.724.029.964-.256zM8.257 18.431c.363.07.39.667.827.607 1.54.02 3.081.001 4.622.007l-.001.476c-1.5-.004-3.001.009-4.5-.003-.578.047-1.069-.524-.947-1.089z"/>
    <path fill="#7b1200" opacity=".6" d="M.54 22.584c6.201-.09 12.407-.013 18.611-.039 1.52.02 3.041-.047 4.56.043l-.142.079H.686l-.147-.083z"/>
</svg>
