<svg xmlns="http://www.w3.org/2000/svg" width="24" height="24">
    <path fill="#ec1d24" d="M11.849 1.38h.224a1.66 1.66 0 0 1 1.356.865c3.334 5.78 6.665 11.564 9.998 17.346.216.382.47.752.572 1.187v.469a1.641 1.641 0 0 1-1.367 1.373H1.385c-.588-.095-1.12-.512-1.297-1.087-.163-.464-.071-.985.187-1.397C3.714 14.172 7.15 8.204 10.589 2.24c.25-.473.736-.784 1.259-.86zM2.52 20.5c6.326.001 12.652.001 18.978-.001-3.161-5.486-6.32-10.974-9.488-16.457C8.841 9.525 5.68 15.012 2.52 20.5z"/>
    <path fill="#fff" d="M2.52 20.5c3.16-5.488 6.32-10.975 9.49-16.458 3.168 5.483 6.328 10.97 9.488 16.457-6.326.002-12.652.002-18.978.001zm13.844-5.624c0 .376-.002.751.004 1.127-.474-.302-1.193-.281-1.544.197-.379.536-.396 1.308-.064 1.871.336.514 1.081.55 1.58.268.134.238.485.064.71.112v-3.574h-.686zm-9.465 3.582h.703v-1.496l1.442-.001.002-.668c-.481-.006-.962-.002-1.444-.004l-.001-.721 1.58-.001v-.671H6.897c-.001 1.188-.002 2.376 0 3.563zm3.359-2.59c-.737.258-.886 1.205-.682 1.867.204.755 1.234 1.051 1.84.588.593-.434.666-1.327.331-1.943-.278-.514-.955-.712-1.489-.512zm2.293.008v2.575h.686c.014-.503-.028-1.008.022-1.51.053-.379.466-.469.786-.44l-.001-.674c-.293.006-.588.078-.8.294l-.004-.244-.689-.001z"/>
    <path fill="#fff" d="M15.643 16.435c.302-.103.686.092.71.428.031.366.084.96-.403 1.032-.824.184-.99-1.218-.307-1.46zM10.459 16.494c.274-.202.702-.035.744.31.078.384.091 1.015-.396 1.121-.71.032-.791-1.064-.348-1.43z"/>
    <path d="M16.364 14.876h.686v3.574c-.226-.048-.576.126-.71-.112-.499.282-1.244.246-1.58-.268-.332-.563-.316-1.334.064-1.871.352-.478 1.07-.499 1.544-.197-.006-.376-.004-.751-.004-1.127zm-.721 1.559c-.683.242-.517 1.644.307 1.46.487-.072.434-.666.403-1.032-.024-.336-.408-.532-.71-.428zM6.899 18.458c-.002-1.187-.001-2.375 0-3.563h2.284v.671l-1.58.001.001.721c.481.001.962-.002 1.444.004l-.002.668-1.442.001v1.496h-.703zM10.258 15.868c.534-.199 1.211-.001 1.489.512.335.616.262 1.508-.331 1.943-.606.463-1.636.167-1.84-.588-.204-.662-.055-1.609.682-1.867zm.201.626c-.443.366-.362 1.463.348 1.43.487-.106.474-.737.396-1.121-.042-.344-.47-.511-.744-.31zM12.551 15.876l.689.001.004.244c.212-.216.508-.288.8-.294l.001.674c-.32-.029-.733.061-.786.44-.049.502-.007 1.007-.022 1.51h-.686v-2.575z"/>
</svg>
