<svg xmlns="http://www.w3.org/2000/svg" width="24" height="24">
    <path fill="#cc0e0c" d="M10.869 2.253c.428-.844 1.916-.997 2.324-.05 3.588 6.018 7.026 12.124 10.567 18.171a.788.788 0 0 1 .124.498c-.01.267-.01.533-.004.8-.004.279-.204.498-.331.731-7.606.014-15.214-.014-22.822.014-.39-.492-.617-1.159-.44-1.778 3.641-6.06 6.996-12.292 10.582-18.387zm1.334 1.649c-3.23 5.567-6.43 11.154-9.643 16.732 6.371.014 12.74.01 19.111.003-3.157-5.578-6.307-11.16-9.469-16.734z"/>
    <path fill="#fff" d="M12.203 3.902c3.163 5.574 6.311 11.156 9.469 16.734-6.371.007-12.74.012-19.111-.003 3.212-5.578 6.412-11.164 9.643-16.732zm-.51 2.814c-.42.234-.213 1.071.302.976.456.029.58-.454.578-.816-.274-.093-.607-.397-.88-.16zm.058 1.275a15.864 15.864 0 0 0-1.554 2.184c.697-.093 1.071-.703 1.487-1.189.007.346.01.692.01 1.037.354-.001.708-.003 1.062-.009.001-.457 0-.916-.001-1.372l.497.324c0 .4.004.8.034 1.199.588-.253.78-1.106.229-1.5-.446-.434-1.111-1.22-1.764-.676zm-.013 2.229c-.514.964-1.044 1.923-1.633 2.841.11-.437.311-.844.502-1.251l-.372-.001c-.262.649-.476 1.313-.723 1.967.433.004.866.006 1.297 0 .056-.297.116-.593.176-.887l-.346.15c.668-.713 1.026-1.64 1.561-2.444.651.96 1.266 1.974 1.209 3.183.431.004.863.004 1.294-.004-.204-.582-.462-1.151-.553-1.766-.013.458-.236.843-.596 1.117.113-.25.46-.489.306-.793-.342-.734-.852-1.378-1.196-2.114a57.29 57.29 0 0 1-.927.001zm-2.924 1.584c-.424.656-.836 1.32-1.257 1.977.431 0 .864-.001 1.296-.004.287-.657.588-1.309.873-1.966a34.585 34.585 0 0 0-.911-.007zm5.862.006c.271.662.589 1.306.864 1.966.369.004.737.003 1.106-.003-.353-.656-.713-1.307-1.054-1.969-.306-.001-.611 0-.916.004zm-3.062.008c-.003.656-.084 1.307-.163 1.956.437.007.876.007 1.311-.001-.119-.652-.1-1.317-.199-1.971-.317 0-.634.004-.95.016zm-.998 4.608c-1.113-.252-1.986 1.079-1.413 2.016.494 1.138 2.47.427 2.367-.724.01-.59-.481-.987-.777-1.44.623.427 1.044 1.071 1.557 1.616.217-.003.436-.004.653-.006.22.554.633 1.15 1.306 1.117 1.14.241 1.708-1.452.976-2.167-.332-.384-.864-.414-1.336-.409-.124-.319-.251-.636-.377-.953.173-.076.348-.154.52-.233-.364-.03-.727-.036-1.092-.049.16.108.317.22.476.332-.823.119-1.66.086-2.487.031.18-.319.504-.411.849-.399l-.04-.329c-.94-.087-.983.94-1.18 1.596zm-6.3 3.424c.609.044 1.229.102 1.834.001.244-.324.376-.716.546-1.08H5.047a61.81 61.81 0 0 0-.731 1.079zm4.033-1.094c-.09.364-.212.72-.3 1.086.609.073 1.22.057 1.833.057l.004-.62c-.462-.316-.949-.612-1.537-.524zm3.354.013c-.001.377-.003.753 0 1.13l1.551-.001c.004-.351.001-.703-.01-1.054-.51-.081-1.027-.076-1.542-.074zm3.119.487c.098.216.199.43.3.644.524.003 1.049.001 1.57-.063-.164-.367-.356-.72-.513-1.09-.523-.056-.971.184-1.357.508zm2.927-.482c.2.378.397.772.7 1.081.508.086 1.026.028 1.538.039a31.58 31.58 0 0 0-.794-1.124c-.481 0-.963-.001-1.444.004z"/>
    <path fill="#fff" d="M10.96 15.94c.76-.01 1.521-.011 2.281.001-.224.589-.447 1.178-.7 1.756-.523-.59-1.067-1.161-1.582-1.757zM12.964 17.446c.183-.49.329-.991.477-1.491l.327.646a2.733 2.733 0 0 0-.804.844zM9.384 18.131c-.388-.732.304-1.449 1.024-1.513-.047.466-.17.924-.164 1.396.24-.393.403-.823.586-1.243.257.256.596.526.54.934.039.996-1.61 1.378-1.984.426zM14.148 16.636c.65 0 1.404.428 1.289 1.173-.084 1.089-1.896 1.207-2.069.1.403-.018.804-.02 1.209-.024a24.83 24.83 0 0 1-.428-1.249z"/>
    <path fill="#fff" d="M13.378 17.724c.111-.32.246-.633.401-.933.184.31.367.622.54.938-.314.003-.628.001-.942-.004zM.727 22.418c7.607-.029 15.216 0 22.822-.014-7.64.041-15.283.007-22.924.018l.102-.004z"/>
    <path fill="#26252c" d="M11.693 6.716c.273-.237.606.067.88.16.003.361-.123.844-.578.816-.516.096-.723-.742-.302-.976zM11.751 7.991c.652-.544 1.317.243 1.764.676.55.394.359 1.246-.229 1.5-.03-.399-.034-.799-.034-1.199l-.497-.324c.001.457.003.916.001 1.372-.354.006-.708.007-1.062.009 0-.346-.003-.692-.01-1.037-.416.486-.79 1.096-1.487 1.189.447-.772.984-1.5 1.554-2.184zM11.738 10.22c.309.001.618.001.927-.001.344.736.854 1.38 1.196 2.114.156.304-.193.543-.306.793.359-.276.582-.66.596-1.117.091.614.349 1.184.553 1.766-.431.007-.863.007-1.294.004.057-1.209-.557-2.223-1.209-3.183-.536.804-.893 1.732-1.561 2.444l.346-.15c-.06.294-.12.59-.176.887-.431.006-.864.004-1.297 0 .246-.654.46-1.319.723-1.967l.372.001c-.19.407-.391.813-.502 1.251.589-.919 1.119-1.877 1.633-2.841zM8.814 11.804c.304-.001.607.001.911.007-.284.657-.586 1.309-.873 1.966-.431.003-.864.004-1.296.004.422-.657.833-1.321 1.257-1.977zM14.676 11.81c.304-.004.61-.006.916-.004.342.662.702 1.313 1.054 1.969-.369.004-.737.006-1.106.003-.276-.66-.593-1.304-.864-1.966z"/>
    <path fill="#26252c" d="M11.614 11.818c.316-.011.633-.016.95-.016.098.653.08 1.319.199 1.971-.436.009-.874.009-1.311.001.079-.65.16-1.3.163-1.956zM4.316 19.85c.239-.363.484-.721.731-1.079h1.649c-.17.364-.3.756-.546 1.08-.604.1-1.226.044-1.834-.001zM8.349 18.756c.588-.089 1.076.207 1.537.524-.003.206-.004.412-.004.62-.612 0-1.224.016-1.833-.057.089-.366.211-.721.3-1.086zM11.703 18.769c.516-.003 1.031-.007 1.542.074.011.351.013.703.01 1.054l-1.551.001c-.003-.377-.001-.753 0-1.13zM14.822 19.256c.387-.324.836-.564 1.357-.508.156.37.348.723.513 1.09-.521.064-1.046.066-1.57.063a33.958 33.958 0 0 1-.3-.644zM17.749 18.774c.481-.004.963-.004 1.444-.004.273.369.537.743.794 1.124-.513-.011-1.03.047-1.538-.039-.302-.309-.5-.703-.7-1.081z"/>
    <path fill="#201f26" d="M10.616 16.426c.197-.656.241-1.683 1.18-1.596l.04.329c-.344-.012-.669.08-.849.399.827.054 1.664.087 2.487-.031a19.3 19.3 0 0 0-.476-.332c.364.012.729.018 1.092.049-.172.079-.347.156-.52.233.126.316.252.634.377.953.471-.006 1.004.024 1.336.409.732.716.164 2.409-.976 2.167-.673.033-1.084-.564-1.306-1.117l-.653.006c-.513-.544-.934-1.189-1.557-1.616.296.453.787.85.777 1.44.103 1.151-1.873 1.863-2.367.724-.572-.937.3-2.268 1.413-2.016zm.344-.486c.516.596 1.06 1.167 1.582 1.757.252-.578.476-1.167.7-1.756a78.837 78.837 0 0 0-2.281-.001zm2.004 1.506c.211-.333.474-.628.804-.844a386.93 386.93 0 0 0-.327-.646c-.149.5-.294 1.001-.477 1.491zm-3.58.685c.374.953 2.023.571 1.984-.426.056-.409-.283-.679-.54-.934-.183.42-.346.85-.586 1.243-.004-.471.117-.93.164-1.396-.72.064-1.412.78-1.024 1.513zm4.764-1.495c.132.42.274.836.428 1.249-.404.004-.806.006-1.209.024.173 1.108 1.986.989 2.069-.1.116-.746-.639-1.173-1.289-1.173zm-.77 1.088c.314.006.628.007.942.004a31.174 31.174 0 0 0-.54-.938c-.156.3-.29.613-.401.933z"/>
    <path fill="#e68684" d="M23.884 20.873c.218.079.218.724-.004.8-.006-.267-.006-.533.004-.8z"/>
</svg>
