<svg xmlns="http://www.w3.org/2000/svg" width="24" height="24">
    <path fill="#c6a519" opacity=".78" d="M11.797 0h.45c.503.275.876.718 1.277 1.116l9.299 9.301c.404.409.841.793 1.177 1.265v.685c-3.229 3.401-6.625 6.65-9.919 9.994-.566.544-1.085 1.141-1.694 1.639h-.706c-3.43-3.257-6.707-6.682-10.076-10.003-.538-.568-1.152-1.066-1.604-1.709v-.476c.24-.474.659-.814 1.025-1.187l9.54-9.54C10.955.701 11.314.27 11.798 0zm-.11.275C7.933 3.876 4.313 7.631.607 11.287c-.382.29-.596.887-.193 1.256 3.677 3.683 7.36 7.364 11.038 11.047.284.331.823.359 1.114.02l11.042-11.048c.348-.288.316-.824-.014-1.111C19.96 7.802 16.311 4.168 12.674.523c-.239-.27-.647-.451-.986-.248z"/>
    <path d="M11.687.275c.34-.203.748-.022.986.248 3.637 3.646 7.286 7.279 10.92 10.928.33.287.362.823.014 1.111L12.565 23.61c-.29.338-.829.311-1.114-.02C7.773 19.907 4.09 16.226.413 12.543c-.403-.37-.188-.966.193-1.256C4.312 7.631 7.932 3.876 11.686.275zm.337.253c-.184 0-.307.155-.437.262C7.97 4.412 4.345 8.027.731 11.651c-.239.178-.272.53-.023.715 3.661 3.661 7.322 7.326 10.987 10.984.186.244.522.194.696-.035l10.924-10.924c.271-.197.244-.569-.016-.761C19.7 8.025 16.093 4.429 12.497.822c-.142-.116-.274-.293-.473-.294z"/>
    <path d="M11.772 7.704c.511-.796 1.078-1.554 1.624-2.327.528.768 1.079 1.52 1.589 2.302l-.138.238c-.287-.047-.563-.146-.848-.202.006 1.364-.007 2.73.007 4.094.738-1.067 1.714-1.976 2.87-2.572-.179-.27-.553-.494-.475-.859.95-.028 1.891.286 2.837.395-.445.829-.882 1.664-1.351 2.48-.422-.09-.353-.61-.472-.932-1.962.997-3.317 3.083-3.402 5.285-.025 1.03-.004 2.06-.01 3.09h-1.234c0-.992.004-1.984.001-2.976-.034-2.243-1.406-4.385-3.401-5.398-.126.292-.038.937-.482.878-.494-.781-.89-1.621-1.34-2.429.892-.138 1.778-.322 2.674-.428.469.191-.161.653-.31.895 1.148.592 2.113 1.493 2.855 2.545.011-1.361.002-2.723.005-4.084-.329.056-.733.343-.998.004zM5.003 12.71c.846-.38 1.686-.782 2.556-1.105.388.214-.068.664-.148.968 1.358.385 2.458 1.598 2.566 3.026.053 1.031.006 2.065.014 3.097-.401-.002-.802-.002-1.201-.001-.016-.994.03-1.988-.022-2.981-.066-.91-.756-1.664-1.598-1.955.004.302.011.605.02.907-.287.11-.475-.149-.652-.325-.506-.55-1.027-1.086-1.536-1.632z"/>
    <path d="M11.204 13.926l.348-.007c.002 1.594.005 3.188-.001 4.782l-.346-.007c.001-1.589.002-3.179-.001-4.768z"/>
    <path fill="#ffd520" d="M12.024.528c.199.001.331.178.473.294 3.596 3.607 7.204 7.204 10.802 10.808.259.192.287.564.016.761L12.391 23.315c-.174.229-.51.278-.696.035C8.03 19.692 4.369 16.028.708 12.366c-.25-.185-.216-.538.023-.715C4.345 8.027 7.971 4.411 11.587.79c.13-.107.253-.262.437-.262zm-.252 7.176c.265.34.67.053.998-.004-.002 1.361.006 2.723-.005 4.084-.742-1.052-1.706-1.954-2.855-2.545.149-.242.779-.704.31-.895-.895.107-1.782.29-2.674.428.45.808.846 1.648 1.34 2.429.444.059.356-.587.482-.878 1.994 1.013 3.367 3.155 3.401 5.398.002.992-.001 1.984-.001 2.976h1.234c.006-1.03-.016-2.06.01-3.09.085-2.202 1.44-4.288 3.402-5.285.119.323.049.842.472.932.469-.816.906-1.651 1.351-2.48-.946-.109-1.886-.422-2.837-.395-.078.365.296.589.475.859-1.157.595-2.132 1.505-2.87 2.572-.014-1.364-.001-2.73-.007-4.094.286.055.562.155.848.202l.138-.238c-.51-.781-1.061-1.534-1.589-2.302-.546.773-1.112 1.531-1.624 2.327zM5.003 12.71c.509.546 1.03 1.082 1.536 1.632.176.176.365.436.652.325-.01-.302-.017-.605-.02-.907.842.29 1.532 1.045 1.598 1.955.052.992.006 1.987.022 2.981.4-.001.8-.001 1.201.001-.008-1.032.038-2.066-.014-3.097-.108-1.428-1.207-2.641-2.566-3.026.079-.305.535-.755.148-.968-.87.323-1.71.725-2.556 1.105zm6.201 1.216c.004 1.589.002 3.179.001 4.768l.346.007c.006-1.594.004-3.188.001-4.782l-.348.007z"/>
</svg>
