<svg xmlns="http://www.w3.org/2000/svg" width="24" height="24">
    <path fill="#030304" d="M6.089 5.686c1.894-1.858 3.715-3.805 5.784-5.47 1.726 1.329 3.198 2.945 4.758 4.456 2.349 2.432 4.874 4.714 7.038 7.315-.828 1.077-1.818 2.014-2.755 2.993-2.569 2.601-5.144 5.194-7.773 7.733a9.931 9.931 0 0 1-1.292 1.077c-.858-.58-1.548-1.356-2.296-2.062-2.846-2.815-5.689-5.637-8.476-8.512a9.346 9.346 0 0 1-1.002-1.2c1.804-2.287 4.003-4.228 6.012-6.33zM11.471.821C7.867 4.406 4.271 8.002.68 11.602c-.333.232-.177.63.085.845 3.581 3.566 7.15 7.149 10.741 10.704.332.371.748 0 .988-.274 3.58-3.653 7.288-7.184 10.816-10.884-.363-.52-.825-.957-1.277-1.4-3.239-3.232-6.475-6.469-9.713-9.701-.216-.268-.616-.399-.849-.073z"/>
    <path fill="#030304" d="M14.213 9.243c.347-.809.93-1.482 1.497-2.144.499.698 1.103 1.336 1.441 2.136-.286.023-.572.039-.858.053-.004 2.267.001 4.532-.004 6.798h-1.164c-.007-2.267 0-4.534-.003-6.802a30.761 30.761 0 0 1-.91-.04z"/>
    <path fill="#ffdb03" d="M11.471.821c.233-.326.634-.196.849.073 3.239 3.232 6.475 6.469 9.713 9.701.452.442.914.879 1.277 1.4-3.529 3.7-7.236 7.231-10.816 10.884-.24.274-.657.644-.988.274-3.591-3.556-7.16-7.138-10.741-10.704-.262-.216-.418-.613-.085-.845C4.271 8.004 7.867 4.408 11.471.823zm-4.809 8.42c.279.018.56.031.839.043.004 2.269 0 4.54.003 6.809l1.184.001c.004-2.271-.001-4.54.003-6.81.298-.011.597-.026.894-.049-.341-.796-.934-1.44-1.437-2.134-.562.661-1.137 1.335-1.484 2.14zm7.551.002c.303.019.607.031.91.04.003 2.268-.004 4.536.003 6.802h1.164c.005-2.267 0-4.532.004-6.798.286-.013.572-.03.858-.053-.338-.8-.942-1.437-1.441-2.136-.566.662-1.15 1.335-1.497 2.144zM10.13 7.396c-.004.669-.058 1.342.012 2.008.34.035.684.013 1.022.062.183 2.199.07 4.413.116 6.619.396.001.793.001 1.189.003.009-2.237-.001-4.472.005-6.709.376 0 .754 0 1.131.003.035-.661.034-1.324-.004-1.985a669.711 669.711 0 0 0-3.472 0z"/>
    <path fill="#030303" d="M6.662 9.241c.348-.805.922-1.479 1.484-2.14.503.694 1.096 1.339 1.437 2.134-.297.023-.596.038-.894.049-.004 2.271.001 4.54-.003 6.81l-1.184-.001c-.003-2.269.001-4.54-.003-6.809-.279-.012-.56-.026-.839-.043zM11.316 9.382l1.158-.004c-.007 2.237.004 4.472-.005 6.709-.396-.001-.793-.001-1.189-.003-.011-2.234.073-4.468.036-6.702z"/>
    <path fill="#c0111e" d="M10.13 7.396c1.158-.003 2.315-.003 3.472 0 .038.661.039 1.324.004 1.985-.378-.003-.755-.003-1.131-.003l-1.158.004c.036 2.234-.047 4.468-.036 6.702-.046-2.206.067-4.42-.116-6.619-.338-.049-.682-.027-1.022-.062-.07-.666-.016-1.339-.012-2.008z"/>
</svg>
