<svg xmlns="http://www.w3.org/2000/svg" width="24" height="24">
    <path fill="#ec1d24" d="M11.836 1.333h.499c.495.116.949.413 1.193.869l9.868 17.068c.273.481.581.945.782 1.462v.66a1.762 1.762 0 0 1-1.315 1.274H1.339c-.67-.135-1.185-.68-1.339-1.338v-.5c.164-.539.485-1.004.759-1.488l9.9-17.124c.238-.456.687-.755 1.177-.883zM2.537 20.532c6.374.002 12.748.002 19.122-.001-3.187-5.508-6.369-11.02-9.561-16.526-3.192 5.506-6.375 11.017-9.561 16.527z"/>
    <path fill="#fff" d="M2.537 20.532c3.186-5.51 6.369-11.021 9.561-16.527 3.192 5.506 6.374 11.018 9.561 16.526-6.374.003-12.748.003-19.122.001zm11.171-10.121a66.571 66.571 0 0 1-.553 2.8c-.833.265-.7 1.215-.687 1.9.062.793-.204 1.697.334 2.375.097.702.089 1.419.149 2.126.508.219 1.184.329 1.639-.046.028-.612.001-1.226.011-1.838 1.563.16 3.135.255 4.708.221a53.62 53.62 0 0 0-.525-.895 42.555 42.555 0 0 1-3.516-.146v-.383a83.539 83.539 0 0 1 3.205-.039l-.241-.428c-.988.001-1.974-.001-2.962.001a65.72 65.72 0 0 1-.004-.444c.908-.006 1.815.006 2.724.019l-.275-.479c-.799-.022-1.598-.039-2.397-.06l.01-.372a21.997 21.997 0 0 1 2.086-.114c-.397-.684-.789-1.371-1.185-2.055-.604-.034-1.22.116-1.817-.006-.496-.252-.248-.884-.144-1.296.065-.421.328-.765.663-1.012-.188-.318-.37-.64-.559-.957-.309.315-.589.683-.665 1.128zm-4.45 2.254l.266.195c.122-.068.242-.137.361-.208-.064-.138-.126-.276-.188-.414-.236.049-.458.148-.438.428zm-1.449.052c.125.121.252.24.377.36l.235-.028c.031-.189.062-.379.083-.569-.28-.124-.495.06-.694.236zm.529.902a4.422 4.422 0 0 1-.38.407c.077.47.681.545.884.117-.065-.142-.131-.284-.193-.428l-.312-.096zm1.037.479c.94 1.465 1.833 2.963 2.808 4.404-.73-1.569-1.545-3.098-2.31-4.65-.167.081-.332.163-.498.246zm-2.969 1.193c-.108.143-.23.28-.302.446-.014.289.305.369.487.518.158-.131.319-.257.483-.38a3.537 3.537 0 0 0-.279-.54c-.13-.016-.26-.03-.388-.044zm1.63.085l.086.361c-.052.089-.101.18-.151.269.236.142.531.361.789.133.354-.118.136-.494.126-.758-.276-.113-.57-.082-.851-.005zm.576 1.494c1.117.604 2.219 1.239 3.345 1.827-.989-.78-2.007-1.523-3.007-2.288-.114.153-.226.307-.338.461zm-2.695 1.015c.236.046.471.092.704.148.169-.281.286-.779-.157-.855-.443-.207-.449.436-.547.707zm1.119.027l-.073.558c1.696.127 3.384.367 5.082.45-1.672-.324-3.336-.687-5.009-1.008zm-2.677.918c.224.012.448-.004.672 0 .012-.154.012-.308.009-.462-.124-.052-.246-.108-.368-.163-.105.199-.396.38-.313.625z"/>
    <path fill="#fff" d="M13.71 13.801c.596-.211 1.265.429 1.029 1.033-.177.61-1.082.748-1.45.239-.359-.425-.112-1.138.42-1.272z"/>
    <path fill="#040404" d="M13.708 10.411c.076-.445.356-.813.665-1.128.189.317.372.639.559.957-.335.247-.598.591-.663 1.012-.104.412-.352 1.044.144 1.296.596.122 1.212-.028 1.817.006.396.684.788 1.371 1.185 2.055-.697.009-1.394.039-2.086.114l-.01.372c.799.021 1.598.038 2.397.06l.275.479c-.908-.012-1.816-.025-2.724-.019l.004.444c.988-.002 1.974 0 2.962-.001l.241.428a85.627 85.627 0 0 0-3.205.039v.383c1.169.104 2.343.139 3.516.146.179.297.353.595.525.895-1.572.034-3.145-.061-4.708-.221-.01.612.018 1.227-.011 1.838-.455.375-1.132.265-1.639.046-.06-.708-.052-1.424-.149-2.126-.539-.678-.272-1.582-.334-2.375-.012-.685-.146-1.636.687-1.9.209-.928.384-1.864.553-2.8zm.002 3.39c-.532.134-.78.847-.42 1.272.368.508 1.273.371 1.45-.239.236-.604-.433-1.244-1.029-1.033zM9.258 12.665c-.02-.28.203-.379.438-.428.062.138.124.276.188.414-.119.071-.239.14-.361.208a61.33 61.33 0 0 0-.266-.195zM7.809 12.717c.199-.176.414-.36.694-.236-.02.19-.052.38-.083.569l-.235.028c-.125-.12-.252-.239-.377-.36zM8.338 13.619l.312.096c.062.144.128.286.193.428a.462.462 0 0 1-.884-.117c.135-.128.261-.264.38-.407zM9.375 14.098c.165-.084.331-.165.498-.246.765 1.552 1.58 3.081 2.31 4.65-.975-1.441-1.868-2.939-2.808-4.404zM6.406 15.291c.129.013.259.028.388.044.107.172.204.352.279.54-.164.124-.324.25-.483.38-.182-.149-.501-.229-.487-.518.072-.166.194-.303.302-.446zM8.036 15.376c.281-.076.574-.108.851.005.01.264.228.64-.126.758-.259.228-.554.009-.789-.133l.151-.269c-.029-.121-.059-.241-.086-.361zM8.612 16.87c.112-.155.224-.308.338-.461 1 .765 2.018 1.508 3.007 2.288-1.126-.588-2.228-1.223-3.345-1.827zM5.917 17.885c.098-.27.104-.914.547-.707.444.076.326.574.157.855-.233-.057-.468-.102-.704-.148zM7.036 17.912c1.673.321 3.337.684 5.009 1.008-1.698-.083-3.386-.323-5.082-.45l.073-.558zM4.359 18.83c-.084-.245.208-.426.313-.625.122.055.244.11.368.163.004.154.003.308-.009.462-.224-.004-.448.012-.672 0z"/>
</svg>
