<svg xmlns="http://www.w3.org/2000/svg" width="24" height="24">
    <path fill="#dcb71b" opacity=".86" d="M11.81 0h.408c.551.27.937.756 1.366 1.176 3.04 3.041 6.079 6.082 9.119 9.121.45.449.922.882 1.297 1.398v.589c-.283.487-.721.85-1.111 1.246l-9.18 9.18c-.445.445-.87.918-1.381 1.29h-.602c-.48-.295-.845-.732-1.242-1.123l-9.179-9.182c-.452-.456-.941-.883-1.304-1.417v-.454c.248-.541.726-.914 1.132-1.331C4.474 7.151 7.816 3.811 11.153.468A2.73 2.73 0 0 1 11.812 0zm-.118.302C7.941 3.897 4.326 7.652.621 11.301c-.367.282-.566.859-.182 1.216 3.65 3.671 7.319 7.327 10.976 10.991.298.37.883.38 1.188.012l10.916-10.919c.372-.305.354-.888-.008-1.192C19.893 7.786 16.269 4.171 12.65.55c-.234-.263-.625-.437-.958-.248z"/>
    <path d="M11.692.302c.332-.188.724-.014.958.248 3.619 3.62 7.243 7.236 10.861 10.859.362.304.38.887.008 1.192L12.603 23.52a.776.776 0 0 1-1.188-.012C7.757 19.844 4.089 16.188.439 12.517c-.384-.356-.185-.934.182-1.216C4.327 7.652 7.941 3.897 11.692.302zm.114.333C8.139 4.207 4.559 7.878.918 11.481c-.251.21-.529.596-.18.862 3.634 3.646 7.278 7.282 10.916 10.922.179.24.522.26.703.012 3.641-3.637 7.28-7.278 10.918-10.92.293-.209.181-.577-.066-.768C19.631 8.007 16.049 4.43 12.473.847c-.17-.168-.428-.402-.667-.211z"/>
    <path d="M7.724 6.061a248.536 248.536 0 0 1 2.567 3.581c.204.21.076.622-.232.622-.451-.047-.878-.216-1.318-.322-.176 1.934 1.128 3.644 2.429 4.942-.227.214-.454.427-.679.643-.688-.632-1.256-1.379-1.747-2.171-.012 1.21.001 2.419-.005 3.629a666 666 0 0 0-1.999 0c-.005-2.351.001-4.7-.006-7.05-.446.107-.881.274-1.338.331-.335.005-.457-.444-.229-.66.841-1.189 1.706-2.363 2.557-3.545zM11.537 10.718c2.306-.176 4.63-.031 6.943-.078.8.013 1.619-.071 2.401.151.073.887.664 1.652.438 2.585-.684 0-1.368-.002-2.052.002-.007-.425-.169-.968-.685-.967-.54-.054-.8.502-.788.964-1.199.002-2.399-.001-3.599.002-.008-.442-.221-1.009-.755-.974-.512-.018-.719.517-.726.947-.41.002-.82.002-1.229.001-.076-.881.149-1.754.052-2.633zm1.613.477c.108.222.22.44.335.659a31.97 31.97 0 0 0 1.832-.001c-.101-.227-.197-.454-.31-.674-.619-.001-1.238-.013-1.858.017zm2.307-.013a38.42 38.42 0 0 0 0 .679c.287.001.572 0 .859-.004 0-.224-.002-.449-.006-.673a30.319 30.319 0 0 0-.853-.002zm.96.022c.121.222.245.442.37.661.607-.004 1.214.011 1.82-.023-.187-1.067-1.43-.576-2.19-.638zm2.177-.004c.118.222.233.446.356.665.611-.002 1.223.013 1.832-.025-.202-1.057-1.426-.572-2.189-.64zm-6.854.09l-.112.894.857.001.004-.896-.749.001zm.924.004c-.01.302-.01.605-.01.907l.368-.064c.072-.338-.173-.595-.359-.844z"/>
    <path d="M13.122 12.62c.575-.436 1.247.523.66.923-.581.479-1.297-.53-.66-.923zM18.26 12.594c.661-.408 1.211.738.506 1.014-.626.317-1.133-.704-.506-1.014z"/>
    <path fill="#ffd520" d="M11.806.635c.239-.191.497.043.667.211 3.576 3.583 7.158 7.16 10.736 10.742.247.191.359.559.066.768-3.637 3.642-7.277 7.283-10.918 10.92-.181.248-.524.228-.703-.012C8.016 19.623 4.371 15.987.738 12.342c-.349-.265-.071-.652.18-.862C4.559 7.878 8.138 4.207 11.806.634zM7.724 6.061c-.851 1.182-1.716 2.356-2.557 3.545-.228.216-.106.665.229.66.457-.058.892-.224 1.338-.331.007 2.35.001 4.699.006 7.05a666 666 0 0 1 1.999 0c.006-1.21-.007-2.419.005-3.629.491.792 1.06 1.538 1.747 2.171.226-.216.452-.43.679-.643-1.301-1.297-2.605-3.007-2.429-4.942.439.106.866.275 1.318.322.307 0 .436-.412.232-.622a254.224 254.224 0 0 0-2.567-3.581zm3.813 4.657c.097.878-.127 1.752-.052 2.633.409.001.818.001 1.229-.001.007-.43.214-.965.726-.947.534-.035.746.533.755.974 1.2-.004 2.4 0 3.599-.002-.012-.462.248-1.018.788-.964.516-.001.678.542.685.967.684-.005 1.368-.002 2.052-.002.226-.932-.365-1.698-.438-2.585-.782-.222-1.601-.138-2.401-.151-2.314.047-4.637-.098-6.943.078zm1.585 1.902c-.637.392.079 1.402.66.923.587-.4-.085-1.358-.66-.923zm5.138-.026c-.626.31-.12 1.331.506 1.014.704-.276.155-1.422-.506-1.014z"/>
    <path fill="#ffd520" d="M13.15 11.195c.619-.03 1.238-.018 1.858-.017.113.221.209.448.31.674-.611.019-1.222.017-1.832.001a22.624 22.624 0 0 1-.335-.659zM15.457 11.182c.284-.002.569-.002.853.002.004.224.006.449.006.673-.287.004-.572.005-.859.004a38.42 38.42 0 0 1 0-.679zM16.417 11.204c.76.062 2.003-.428 2.19.638-.606.034-1.213.019-1.82.023-.125-.22-.248-.439-.37-.661zM18.594 11.2c.763.067 1.987-.418 2.189.64-.61.038-1.222.023-1.832.025-.124-.218-.239-.443-.356-.665zM11.74 11.29l.749-.001-.004.896-.857-.001.112-.894zM12.664 11.294c.186.248.431.505.359.844l-.368.064c0-.302 0-.605.01-.907z"/>
</svg>
