<svg xmlns="http://www.w3.org/2000/svg" width="24" height="24">
    <path fill="#ea1c04" d="M11.304 1.714h1.107c2.824 4.485 5.342 9.154 7.991 13.743 1.101 2.021 2.359 3.964 3.311 6.063v.124a3.601 3.601 0 0 1-.623.641H.423c-.077-.229-.242-.413-.424-.564v-.174c1.88-3.707 4.05-7.26 6.083-10.884 1.734-2.985 3.255-6.105 5.222-8.949zM2.65 20.475c6.154.004 12.31.006 18.465 0-3.107-5.36-6.159-10.751-9.272-16.108-3.156 5.32-6.045 10.785-9.195 16.108z"/>
    <path fill="#fff" d="M2.65 20.475C5.798 15.15 8.689 9.686 11.845 4.367c3.113 5.357 6.165 10.749 9.272 16.108-6.156.006-12.311.004-18.465 0zm6.815-8.305c-.019.507.053 1.022-.049 1.521-.208-.02-.41-.079-.611-.129a8.524 8.524 0 0 1-.364 2.12c.169.045.336.087.504.131.189-.537.257-1.104.291-1.67-.189-.276.513-.471.236-.021-.019 1.539 0 3.077-.009 4.617l.555.039c.069-2.21-.129-4.444.101-6.639l-.654.03zm2.012.149c.004.68-.006 1.36.007 2.042 1.009-.013 2.017-.007 3.024-.004.013-.679.004-1.357.007-2.036-1.013-.006-2.025-.003-3.039-.002zm-1.296 1.404c.126.366.231.739.333 1.113.146-.07.291-.139.439-.207-.113-.367-.23-.733-.369-1.09l-.403.184zm.736.975c-.009.477-.009.956-.004 1.433 1.404-.002 2.807.003 4.211-.003.002-.476.002-.951-.006-1.427-1.401-.01-2.801-.004-4.202-.003zm.316 1.749l.002.424c.176.007.353.015.53.021.18.371.43.703.722.994-.561.17-1.137.272-1.713.367.448.855 1.539.105 2.223-.069.549.26 1.137.418 1.725.56l.418-.435c-.55-.081-1.114-.159-1.613-.423.443-.347.829-.771 1.039-1.3-1.054-.326-2.231-.054-3.333-.141z"/>
    <path fill="#fff" d="M11.976 12.735a15.058 15.058 0 0 1 2.004-.017l.017.392c-.673.009-1.346.007-2.019.002l-.003-.375zM11.972 13.607a57.07 57.07 0 0 1 2.027.003 38.71 38.71 0 0 1-.009.336c-.667.007-1.333.006-2 .002l-.019-.34zM13.87 15.105l.731.004c0 .21 0 .422-.002.632l-.726.002-.004-.637zM12.279 16.887a31.67 31.67 0 0 1 1.51.004c-.223.3-.507.546-.814.757a3.252 3.252 0 0 1-.696-.761z"/>
    <path fill="#040404" d="M9.465 12.17l.654-.03c-.23 2.194-.033 4.429-.101 6.639l-.555-.039c.009-1.54-.01-3.079.009-4.617.277-.45-.424-.255-.236.021-.034.566-.103 1.133-.291 1.67-.169-.045-.336-.087-.504-.131.207-.688.336-1.4.364-2.12.201.05.403.109.611.129.101-.5.03-1.014.049-1.521zM11.477 12.319c1.013-.002 2.025-.004 3.039.002-.003.679.006 1.357-.007 2.036-1.007-.003-2.016-.009-3.024.004-.013-.681-.003-1.361-.007-2.042zm.499.416l.003.375c.673.006 1.346.007 2.019-.002l-.017-.392a15.057 15.057 0 0 0-2.004.017zm-.004.872l.019.34c.667.004 1.333.006 2-.002l.009-.336a54.788 54.788 0 0 0-2.027-.003zM10.917 14.698c1.4-.002 2.8-.007 4.202.003.007.476.007.951.006 1.427-1.404.006-2.807.002-4.211.003-.004-.477-.004-.956.004-1.433zm.53.416l.003.633c.521.144.752-.16.615-.65l-.617.017zm1.144-.007l.003.636c.25 0 .499 0 .748.002v-.637h-.752zm1.279-.002l.004.637.726-.002c.002-.21.002-.422.002-.632l-.731-.004zM11.233 16.447c1.101.087 2.278-.184 3.333.141-.21.529-.596.953-1.039 1.3.499.264 1.063.341 1.613.423-.14.144-.28.29-.418.435-.589-.141-1.177-.3-1.725-.56-.684.173-1.774.924-2.223.069.576-.096 1.151-.197 1.713-.367a3.703 3.703 0 0 1-.722-.994l-.53-.021-.002-.424zm1.046.44c.193.287.422.549.696.761.307-.212.591-.457.814-.757a29.231 29.231 0 0 0-1.51-.004z"/>
    <path fill="#050505" d="M10.181 13.723l.403-.184c.139.357.255.723.369 1.09-.147.069-.293.137-.439.207a16.962 16.962 0 0 0-.333-1.113z"/>
    <path fill="#fefefe" d="M11.447 15.114l.617-.017c.137.49-.093.795-.615.65a67.102 67.102 0 0 1-.003-.633zM12.591 15.107h.752v.637c-.25-.002-.499-.002-.748-.002a67.578 67.578 0 0 1-.003-.636z"/>
    <path fill="#0b0100" opacity=".05" d="M0 21.722c.183.152.347.336.424.564H0v-.564z"/>
</svg>
