<svg xmlns="http://www.w3.org/2000/svg" width="24" height="24">
    <path fill="#ffd033" d="M11.754 0h.492c.244.096.476.222.66.412l10.021 10.022c.368.376.769.725 1.073 1.159v.841c-.206.356-.518.63-.808.918l-9.66 9.66c-.349.343-.67.725-1.088.988h-.818c-.346-.198-.611-.499-.887-.779l-9.9-9.9c-.317-.314-.671-.613-.839-1.04v-.49c.174-.478.582-.794.924-1.146 3.221-3.22 6.442-6.44 9.66-9.661.364-.358.698-.763 1.17-.984zm-.082.391C7.944 3.973 4.341 7.703.661 11.34c-.4.302-.49.942-.089 1.282 3.62 3.623 7.244 7.243 10.864 10.866.319.366.919.337 1.224-.032 3.614-3.623 7.241-7.236 10.854-10.861.361-.329.284-.929-.083-1.223C19.85 7.791 16.272 4.208 12.687.631c-.244-.288-.668-.419-1.015-.239z"/>
    <path fill="#ffd033" d="M11.921.754c.248-.085.424.156.588.299 3.534 3.545 7.084 7.075 10.614 10.624.185.146.294.437.086.616-3.613 3.624-7.237 7.238-10.854 10.859-.148.199-.46.239-.617.029C8.115 19.563 4.496 15.94.876 12.32c-.31-.257-.017-.605.209-.793C4.707 7.949 8.25 4.277 11.921.756zM7.652 6.296c.768 1.745 1.678 3.432 2.506 5.152.124.364.712.428.868.06.202-.463.282-.967.47-1.436 1.118.583 2.396 1.388 2.554 2.764.088 1.638.016 3.282.041 4.922.786.022 1.572.01 2.358.007.011-1.441.005-2.884.011-4.325.002-.816-.134-1.637-.478-2.381 1.354.68 2.722 1.336 4.074 2.021.188-.347.361-.702.526-1.061-2.581-1.291-5.185-2.537-7.751-3.858.341-.422.745-.79 1.074-1.22.182-.378-.229-.697-.582-.649-1.89-.002-3.78.01-5.67.005z"/>
    <path d="M11.672.391c.347-.18.772-.049 1.015.239 3.584 3.577 7.163 7.16 10.744 10.741.367.294.444.894.083 1.223-3.613 3.625-7.24 7.238-10.854 10.861-.305.37-.905.398-1.224.032C7.817 19.864 4.193 16.244.572 12.621c-.401-.34-.311-.979.089-1.282C4.341 7.702 7.944 3.972 11.672.39zm.249.363C8.25 4.275 4.707 7.947 1.085 11.525c-.226.188-.518.536-.209.793 3.62 3.62 7.24 7.243 10.862 10.861.157.21.469.17.617-.029 3.617-3.62 7.241-7.235 10.854-10.859.208-.179.098-.469-.086-.616-3.53-3.548-7.08-7.079-10.614-10.624-.164-.143-.34-.384-.588-.299z"/>
    <path d="M7.652 6.296c1.89.005 3.78-.007 5.67-.005.353-.048.764.271.582.649-.329.431-.733.798-1.074 1.22 2.566 1.321 5.17 2.567 7.751 3.858-.164.359-.337.714-.526 1.061-1.352-.685-2.72-1.34-4.074-2.021.343.744.48 1.565.478 2.381-.006 1.441 0 2.884-.011 4.325-.786.002-1.572.014-2.358-.007-.025-1.64.047-3.284-.041-4.922-.157-1.375-1.435-2.18-2.554-2.764-.188.469-.269.973-.47 1.436-.156.368-.744.304-.868-.06-.828-1.72-1.738-3.407-2.506-5.152z"/>
</svg>
