<svg xmlns="http://www.w3.org/2000/svg" width="24" height="24">
    <path fill="#d5bb0e" opacity=".84" d="M11.701 0h.576c.275.138.533.31.752.526 3.217 3.224 6.44 6.443 9.661 9.665.464.479 1.009.907 1.309 1.519v.554c-.127.252-.28.493-.479.694-3.283 3.278-6.562 6.56-9.842 9.841-.439.428-.835.924-1.396 1.201h-.544a2.605 2.605 0 0 1-.701-.475c-3.278-3.283-6.559-6.563-9.841-9.844-.426-.434-.914-.83-1.198-1.381v-.582c.286-.624.84-1.05 1.306-1.532 3.2-3.2 6.403-6.398 9.599-9.604.234-.234.504-.428.797-.582zm-.018.308c-.209.085-.376.241-.536.395C7.632 4.232 4.102 7.745.586 11.273a.958.958 0 0 0 .007 1.448c3.584 3.578 7.159 7.168 10.747 10.74.374.409 1.033.353 1.381-.059 3.559-3.562 7.12-7.122 10.681-10.681a.958.958 0 0 0 .01-1.446C19.874 7.729 16.327 4.191 12.79.647c-.276-.293-.707-.515-1.106-.338z"/>
    <path d="M11.683.308c.4-.176.83.046 1.106.338 3.538 3.545 7.085 7.082 10.622 10.628a.958.958 0 0 1-.01 1.446c-3.562 3.559-7.122 7.12-10.681 10.681-.348.412-1.007.468-1.381.059C7.751 19.888 4.176 16.298.592 12.72a.958.958 0 0 1-.007-1.448C4.101 7.744 7.631 4.232 11.146.702c.161-.154.328-.31.536-.395zm.123.459C8.158 4.27 4.638 7.923 1.034 11.476c-.292.221-.451.659-.112.918 3.558 3.564 7.122 7.124 10.684 10.686.23.3.642.218.852-.059 3.535-3.547 7.084-7.082 10.62-10.628.295-.232.221-.641-.053-.853L12.461.976c-.168-.164-.416-.35-.655-.209z"/>
    <path d="M13.388 5.672c-.162-.602.592-.966 1.087-.823.385.269.769.54 1.186.761-.377.058-.754.104-1.129.157-.268 1.111.745 1.922.818 2.982.242 2.188-1.454 4.482-3.676 4.734-.733.505-.877 1.59-.535 2.372.298.719.449 1.559 1 2.131.637.173 1.376-.07 1.942.383l-.641.384c-.677-.074-1.342-.214-2.015-.312-.19-.991-.388-2.017-.967-2.866-.412-.566-.211-1.288-.361-1.927-.91 1.217-1.025 2.834-.808 4.291.691.019 1.415.026 2.02.41-.221.11-.444.217-.662.331-.677-.097-1.339-.275-2.02-.353-.025-1.136.056-2.275-.044-3.41-.095-.52.275-.948.42-1.421-.413-.174-.847-.281-1.279-.392-.68.324-1.457.383-2.201.39a4.728 4.728 0 0 1 .923-2.732c.985-.972 2.185-1.921 3.637-1.949 1.072-.05 1.969.658 2.998.81.343.062.629-.221.661-.547.122-1.146-.118-2.29-.353-3.404z"/>
    <path fill="#fee011" d="M11.806.767c.239-.142.487.044.655.209L23.025 11.54c.274.212.348.622.053.853-3.536 3.546-7.085 7.081-10.62 10.628-.21.277-.622.359-.852.059C8.044 19.518 4.48 15.958.922 12.394c-.34-.259-.18-.697.112-.918C4.639 7.923 8.158 4.27 11.806.767zm1.582 4.905c.235 1.115.475 2.258.353 3.404-.032.326-.318.61-.661.547-1.028-.152-1.926-.86-2.998-.81-1.452.028-2.652.977-3.637 1.949a4.736 4.736 0 0 0-.923 2.732c.744-.007 1.52-.066 2.201-.39.432.112.866.218 1.279.392-.145.473-.515.901-.42 1.421.101 1.135.019 2.274.044 3.41.68.078 1.343.256 2.02.353.218-.114.442-.221.662-.331-.605-.384-1.328-.391-2.02-.41-.217-1.457-.102-3.074.808-4.291.15.64-.05 1.361.361 1.927.58.848.778 1.874.967 2.866.673.098 1.338.238 2.015.312l.641-.384c-.565-.452-1.304-.21-1.942-.383-.551-.572-.702-1.412-1-2.131-.342-.782-.198-1.867.535-2.372 2.221-.252 3.918-2.546 3.676-4.734-.073-1.06-1.086-1.871-.818-2.982.376-.053.752-.1 1.129-.157-.416-.221-.8-.492-1.186-.761-.496-.143-1.249.221-1.087.823z"/>
</svg>
