<svg xmlns="http://www.w3.org/2000/svg" width="24" height="24">
    <path fill="#232922" d="M11.23 1.813c.556-.3 1.432-.173 1.702.453 2.909 5.105 5.793 10.225 8.724 15.316.726 1.276 1.493 2.534 2.063 3.891v.225a4.613 4.613 0 0 1-.616.828c-2.25-.044-4.502 0-6.752.035-2.404-.07-4.826-.1-7.223.104H.66c-.948-.609-.161-1.731.158-2.478C3.739 14.688 6.963 9.353 9.919 3.875a.83.83 0 0 0 .449-.759c.257-.451.458-.961.86-1.304zM2.608 20.819c6.196-.085 12.391-.046 18.586-.14-3.1-5.419-6.161-10.86-9.308-16.252-3.079 5.47-6.222 10.907-9.277 16.392z"/>
    <path fill="#f9e733" d="M9.921 3.877c.037-.304.17-.604.449-.759a.83.83 0 0 1-.449.759zM2.608 20.819c3.055-5.485 6.198-10.922 9.277-16.392 3.147 5.391 6.208 10.834 9.308 16.252-6.194.094-12.389.055-18.586.14zm8.514-7.97l.188.18c-.072-.035-.215-.101-.286-.136-.759.332-1.452.807-1.988 1.444-.003.063-.011.191-.013.255l-.517-.033c.007.258.021.516.04.772-.749 1.055.057 2.248.452 3.264.297.246.719.233 1.08.308-.106.163-.207.327-.308.492.297.765 1.326.488 1.848.121 1.001-.62 1.368-1.79 1.588-2.868.267.088.534.178.8.27l.082.47c.429.022.886.109 1.298-.058.428-.592.47-1.344.332-2.039-.451-.774-.691-1.716-1.41-2.302-.931-.642-2.169-.486-3.184-.141z"/>
    <path fill="#fefefe" d="M11.122 12.849c1.014-.345 2.252-.5 3.184.141.719.587.959 1.528 1.41 2.302-.118.115-.237.229-.354.348l-.484-.051c-.325.42-.67.836-.875 1.331a53.648 53.648 0 0 0-.8-.27c.112-.156.231-.306.35-.457-.127-.651.188-1.443-.348-1.962-.532-.671-1.196-1.268-2.085-1.383z"/>
    <path fill="#fefefe" d="M9.035 14.338c.537-.637 1.229-1.111 1.988-1.444.072.035.215.101.286.136.235.134.467.27.697.412.044.605.57 1.036.631 1.625-.115.968-.499 1.94-1.179 2.651-.467.389-1.082.624-1.383 1.189-.361-.076-.783-.063-1.08-.308-.396-1.016-1.201-2.21-.452-3.264.227-.197.516-.396.477-.74.003-.064.011-.192.013-.255zm1.929.818c.011.215.024.428.037.643.216.081.434.16.651.242.75-.506-.028-1.26-.688-.884zm-2.128 1.876l.022.497.315-.012v-.457l-.337-.028zm1.059.409c.244.227.706.601.926.145-.163-.209-.348-.398-.528-.592l-.398.448zm-.557 1.093c.363.501.717-.349 0 0z"/>
    <path fill="#242526" d="M11.122 12.849c.889.115 1.553.712 2.085 1.383.536.519.22 1.311.348 1.962-.119.15-.239.301-.35.457-.22 1.078-.587 2.248-1.588 2.868-.522.367-1.551.644-1.848-.121.1-.165.202-.33.308-.492.301-.565.916-.8 1.383-1.189.68-.712 1.064-1.683 1.179-2.651-.061-.589-.587-1.019-.631-1.625a26.59 26.59 0 0 0-.697-.412l-.188-.18zM8.836 17.032l.337.028v.457l-.315.012-.022-.497z"/>
    <path fill="#242526" d="M9.895 17.441l.398-.448c.18.194.365.383.528.592-.22.457-.684.082-.926-.145z"/>
    <path fill="#35342f" d="M8.503 14.56l.517.033c.039.345-.251.543-.477.74-.02-.257-.033-.515-.04-.772z"/>
    <path fill="#303030" d="M10.964 15.156c.66-.376 1.438.379.688.884-.216-.082-.434-.161-.651-.242-.013-.215-.027-.428-.037-.643z"/>
    <path fill="#252423" d="M15.362 15.64c.116-.118.236-.233.354-.348.139.695.097 1.447-.332 2.039-.412.167-.868.081-1.298.058l-.082-.47c.204-.495.549-.911.875-1.331l.484.051z"/>
    <path fill="#5b5251" d="M9.338 18.534c.717-.349.363.501 0 0z"/>
    <path fill="#6f6816" d="M9.129 22.667c2.397-.204 4.82-.174 7.223-.104l.233.104H9.129z"/>
    <path fill="#ada83d" d="M16.352 22.563c2.25-.035 4.502-.077 6.752-.035l-.141.139h-6.378l-.233-.104z"/>
</svg>
