<svg xmlns="http://www.w3.org/2000/svg" width="24" height="24">
    <path fill="#d5bb0e" opacity=".84" d="M11.705 0h.571c.277.134.536.307.755.526 3.256 3.265 6.52 6.522 9.779 9.784.43.438.925.836 1.19 1.404v.55a2.53 2.53 0 0 1-.479.697c-3.305 3.295-6.601 6.6-9.902 9.899-.42.409-.797.887-1.338 1.141h-.54a2.408 2.408 0 0 1-.703-.475c-3.296-3.305-6.6-6.602-9.899-9.902-.407-.416-.877-.793-1.139-1.326v-.576c.252-.578.757-.974 1.186-1.415 3.262-3.26 6.523-6.52 9.781-9.784a3.01 3.01 0 0 1 .738-.522zm-.023.307c-.34.146-.575.448-.836.698C7.43 4.431 4.002 7.846.586 11.271c-.406.353-.455 1.016-.049 1.388 3.576 3.586 7.163 7.162 10.74 10.746.348.414 1.014.462 1.385.052 3.601-3.595 7.2-7.195 10.796-10.796.407-.371.359-1.034-.046-1.387C19.873 7.729 16.327 4.192 12.79.647c-.275-.296-.707-.514-1.108-.34z"/>
    <path d="M11.682.307c.401-.174.833.043 1.108.34 3.538 3.545 7.084 7.082 10.622 10.627.404.353.452 1.016.046 1.387a9989.802 9989.802 0 0 1-10.796 10.796c-.371.41-1.037.362-1.385-.052C7.7 19.821 4.113 16.245.537 12.659c-.406-.372-.356-1.036.049-1.388 3.416-3.425 6.844-6.84 10.26-10.266.262-.251.497-.552.836-.698zm.119.457C8.163 4.276 4.636 7.918 1.035 11.474c-.253.2-.463.594-.17.857 3.571 3.592 7.163 7.163 10.739 10.75a.503.503 0 0 0 .792-.001c3.56-3.563 7.123-7.123 10.684-10.686a.506.506 0 0 0 .004-.791c-3.512-3.529-7.043-7.04-10.556-10.567-.184-.19-.444-.42-.725-.271z"/>
    <path d="M15.272 5.408c.433.034.901.088 1.238.394.404.28.413.834.752 1.169.468.517.998 1.037 1.106 1.763-.688.232-.77 1.229-.175 1.609-.311-.468-.491-1.307.241-1.474.169.222.428.422.434.725.097.533-.5.719-.775 1.061a4.363 4.363 0 0 0-1.152-.047c.342.047.686.07 1.03.107-.215.184-.433.362-.635.559-.562.164-1.144.304-1.73.209l-.433-.403c-.06.444-.338.959-.857.914.167.138.335.275.504.41.115.346.274.682.304 1.051.235.116.472.23.706.348-.023.062-.068.186-.092.247.32.276.632.564.895.896.464-.212 1.048-.55 1.446-.04-.479.088-.954.2-1.442.204.576.376 1.644-.089 1.772.824-.371-.362-.868.284-1.128-.343a48.023 48.023 0 0 0-.655-.046c.256.152.654.197.708.553l-.259.023c.029.254-.002.511-.161.722l-.078-.396-.284.217a16.262 16.262 0 0 1-.02-.826c-.158.181-.325.356-.485.538-.127.007-.256.014-.383.023.073-.215.155-.427.241-.636-.232.037-.463.149-.7.116-.606-.494-1.426-.607-2.036-1.098-.269-.23-.463-.553-.805-.69-.149-.494-.31-.988-.406-1.496-.15-.743.454-1.484.097-2.207-.019.742-.257 1.45-.28 2.19-.617.5-1.498.076-2.208.322a4.59 4.59 0 0 1-2.456-.779c.425.368.085.692-.323.839-.002.331.013.69-.164.985-.418.356-.985.36-1.502.406.264.017.528.018.793.02a2.289 2.289 0 0 1-.442 1.134l-.248-.342c-.15.187-.292.38-.431.576-.061-.205-.122-.41-.179-.616l-.186.264c-.119-.509.258-.87.605-1.17-.236-.31-.542-.614-.581-1.021.142-.649.772-1.162.634-1.873l.175-.266c-.164-1.291.443-2.512 1.255-3.462.902-.307 1.589-1.135 2.606-1.091 1.153.352 2.378.594 3.578.854a7.06 7.06 0 0 1-.235.83c.142.142.061.326.028.493l.217.019-.125.3.307-.058-.15.53.341-.263-.005.487.236-.095.072.367.362-.384.056.384c.157-.194.314-.388.476-.578-.037.235-.077.469-.119.704l.224-.222.114.491a1.93 1.93 0 0 0 .377-1.147c-.103.251-.205.503-.317.75-.059-.322-.091-.653-.222-.955-.137.162-.272.324-.403.491a54.293 54.293 0 0 0-.078-.392l-.224.341-.218-.277c-.084-.397-.41-.93.084-1.192.462-.47 1.103-.167 1.643-.067.149-.371-.319-.473-.581-.534-.726-.223-1.235.476-1.799.796.092-.283.163-.574.181-.872.637-.673 1.768-.482 2.48-.052.383.644-.244 1.136-.776 1.382.535-.037 1.134-.322 1.056-.953.12-.808-.888-.859-1.441-.96.509-.287.983-.686 1.008-1.318zm-9.174 5.223c.091.473.311.961.725 1.231-.203-.43-.496-.814-.725-1.231z"/>
    <path d="M10.698 12.966c.4-.05.799-.109 1.182-.236.094.346.221.688.24 1.049-.359.174-.731.324-1.074.53l-.244-.236c-.132.157-.262.317-.392.475-.024-.472.371-.696.743-.862-.216-.196-.348-.455-.455-.72z"/>
    <path fill="#fee011" d="M11.801.764c.281-.149.541.082.725.271 3.514 3.527 7.044 7.038 10.556 10.567a.506.506 0 0 1-.004.791c-3.56 3.563-7.123 7.123-10.684 10.686a.503.503 0 0 1-.792.001C8.026 19.493 4.434 15.922.863 12.33c-.293-.263-.083-.656.17-.857C4.634 7.917 8.161 4.275 11.799.763zm3.471 4.644c-.025.631-.499 1.031-1.008 1.318.553.101 1.561.152 1.441.96.078.631-.521.916-1.056.953.533-.246 1.159-.738.776-1.382-.713-.431-1.843-.622-2.48.052a3.506 3.506 0 0 1-.181.872c.564-.319 1.073-1.019 1.799-.796.262.061.73.163.581.534-.54-.1-1.181-.403-1.643.067-.494.262-.168.794-.084 1.192l.218.277.224-.341.078.392c.131-.167.266-.329.403-.491.131.302.163.634.222.955.112-.247.214-.499.317-.75a1.927 1.927 0 0 1-.377 1.147l-.114-.491-.224.222c.042-.235.082-.469.119-.704-.162.191-.319.384-.476.578l-.056-.384-.362.384-.072-.367-.236.095.005-.487-.341.263.15-.53-.307.058.125-.3-.217-.019c.034-.167.114-.352-.028-.493.095-.272.174-.55.235-.83-1.2-.26-2.425-.503-3.578-.854-1.018-.044-1.704.784-2.606 1.091-.812.95-1.42 2.171-1.255 3.462l-.175.266c.138.712-.492 1.224-.634 1.873.038.407.344.712.581 1.021-.347.3-.724.661-.605 1.17l.186-.264c.056.205.118.41.179.616.139-.196.281-.389.431-.576.083.113.166.227.248.342.247-.335.398-.72.442-1.134a14.963 14.963 0 0 1-.793-.02c.517-.046 1.085-.049 1.502-.406.178-.295.162-.654.164-.985.408-.146.748-.47.323-.839.724.48 1.584.768 2.456.779.71-.246 1.591.179 2.208-.322.023-.74.26-1.448.28-2.19.356.722-.247 1.464-.097 2.207.096.509.257 1.002.406 1.496.342.137.536.46.805.69.611.491 1.43.604 2.036 1.098.236.032.468-.079.7-.116-.086.209-.168.421-.241.636l.383-.023c.16-.181.326-.356.485-.538-.001.275.008.551.02.826.071-.054.214-.162.284-.217l.078.396c.158-.211.19-.468.161-.722l.259-.023c-.054-.356-.452-.401-.708-.553.218.013.437.029.655.046.26.628.757-.019 1.128.343-.128-.913-1.196-.449-1.772-.824.488-.004.964-.116 1.442-.204-.398-.51-.982-.173-1.446.04a6.706 6.706 0 0 0-.895-.896c.024-.061.07-.185.092-.247-.234-.118-.47-.232-.706-.348-.03-.37-.188-.706-.304-1.051a50.01 50.01 0 0 1-.504-.41c.518.044.797-.47.857-.914l.433.403c.587.095 1.169-.044 1.73-.209.202-.197.42-.376.635-.559-.343-.037-.688-.06-1.03-.107.384-.044.77-.011 1.152.047.275-.342.872-.528.775-1.061-.006-.302-.265-.503-.434-.725-.732.167-.552 1.006-.241 1.474-.595-.38-.512-1.378.175-1.609-.108-.726-.638-1.246-1.106-1.763-.34-.335-.348-.889-.752-1.169-.337-.306-.805-.36-1.238-.394zm-4.574 7.558c.107.265.239.524.455.72-.372.166-.767.39-.743.862.131-.158.26-.318.392-.475.06.059.182.178.244.236.343-.206.715-.356 1.074-.53-.019-.361-.146-.703-.24-1.049-.383.127-.782.186-1.182.236z"/>
    <path fill="#fee011" d="M6.098 10.631c.229.418.522.802.725 1.231-.414-.27-.634-.758-.725-1.231z"/>
</svg>
