<svg xmlns="http://www.w3.org/2000/svg" width="24" height="24">
    <path fill="#ffd033" d="M11.742 0h.458c.253.098.492.238.682.436 3.541 3.54 7.08 7.082 10.626 10.619.232.215.391.492.492.79v.27c-.089.282-.223.554-.444.757-3.586 3.578-7.164 7.164-10.747 10.745-.182.185-.424.292-.662.384h-.263c-.254-.082-.512-.181-.701-.378C7.679 20.125 4.187 16.615.681 13.121c-.274-.253-.528-.533-.68-.878v-.454c.156-.487.564-.809.908-1.16C4.13 7.411 7.349 4.191 10.57.971c.361-.355.695-.763 1.172-.97zm-.167.422C7.887 4.009 4.287 7.694.633 11.318c-.366.294-.462.889-.104 1.229 3.618 3.624 7.24 7.246 10.861 10.868.284.33.847.361 1.154.047 3.623-3.616 7.238-7.241 10.861-10.858.395-.331.343-.966-.044-1.28C19.777 7.746 16.196 4.162 12.61.584c-.253-.286-.71-.383-1.036-.162z"/>
    <path fill="#ffd033" d="M11.91.75c.218-.056.376.13.517.262 3.538 3.544 7.082 7.08 10.619 10.624.209.155.278.481.05.654L12.29 23.097a.378.378 0 0 1-.587.006C8.099 19.504 4.499 15.901.898 12.299c-.238-.175-.17-.509.046-.668C4.482 8.086 8.028 4.547 11.566 1.004c.107-.092.202-.214.343-.253zM9.876 6.509C8.44 7.455 7.03 8.44 5.605 9.403c1.378.985 2.796 1.914 4.188 2.879.245.236.684.059.692-.281-.102-.504-.283-.988-.409-1.486 2.774-.023 5.552.029 8.324-.025-.03-.725.04-1.456-.036-2.176-2.762.01-5.525.006-8.287.002.116-.457.271-.905.385-1.362.128-.323-.312-.656-.587-.446zm3.649 5.609c.115.451.268.893.384 1.344-2.772.007-5.543-.001-8.314.004-.012.731-.004 1.46-.005 2.191 2.772.019 5.545 0 8.318.01-.124.502-.314.988-.412 1.496.026.329.457.504.698.27 1.396-.962 2.801-1.912 4.194-2.876-1.421-.965-2.833-1.944-4.268-2.888-.274-.236-.737.121-.596.45z"/>
    <path d="M11.575.422c.325-.221.782-.124 1.036.162 3.586 3.578 7.166 7.162 10.751 10.74.388.314.439.949.044 1.28-3.623 3.617-7.238 7.242-10.861 10.858-.307.314-.87.283-1.154-.047C7.769 19.792 4.148 16.171.53 12.547c-.358-.34-.262-.935.104-1.229C4.288 7.694 7.888 4.009 11.576.422zm.335.328c-.142.04-.236.161-.343.253C8.028 4.547 4.482 8.085.945 11.63c-.216.16-.283.493-.046.668C4.5 15.899 8.1 19.503 11.704 23.102c.145.187.444.18.587-.006l10.806-10.807c.228-.173.158-.499-.05-.654-3.536-3.544-7.081-7.08-10.619-10.624-.142-.132-.299-.318-.517-.262z"/>
    <path d="M9.876 6.509c.275-.21.715.124.587.446-.114.457-.269.905-.385 1.362 2.762.004 5.525.007 8.287-.002.076.72.006 1.451.036 2.176-2.772.054-5.55.002-8.324.025.126.498.307.982.409 1.486-.008.34-.448.517-.692.281-1.392-.965-2.81-1.894-4.188-2.879C7.03 8.44 8.44 7.455 9.877 6.51z"/>
    <path d="M13.525 12.118c-.14-.329.323-.686.596-.45 1.435.944 2.848 1.924 4.268 2.888-1.393.965-2.798 1.914-4.194 2.876-.241.234-.672.059-.698-.27.097-.509.288-.995.412-1.496-2.773-.01-5.546.01-8.318-.01.001-.731-.007-1.46.005-2.191 2.771-.005 5.542.004 8.314-.004-.116-.451-.269-.893-.384-1.344z"/>
</svg>
