<svg xmlns="http://www.w3.org/2000/svg" width="24" height="24">
    <path fill="#231f20" d="M11.201.408c.672-.198 1.415.035 1.892.536 3.376 3.224 6.756 6.445 10.126 9.676.752.673.726 1.951-.017 2.622-3.244 3.235-6.474 6.486-9.72 9.72-.691.702-1.93.74-2.63.03C7.438 19.724 4.02 16.459.603 13.195c-.732-.674-.673-1.921.041-2.587 3.136-3.145 6.282-6.281 9.421-9.424.323-.329.678-.66 1.136-.776zm.123.256c-.43.1-.762.41-1.064.714C7.126 4.524 3.974 7.653.846 10.805.23 11.364.178 12.424.799 13c3.416 3.26 6.829 6.524 10.242 9.788.592.605 1.655.577 2.239-.023 3.247-3.235 6.482-6.482 9.728-9.719.624-.575.659-1.655.013-2.227-3.366-3.234-6.749-6.45-10.122-9.676-.401-.414-1.008-.631-1.576-.48z"/>
    <path fill="#231f20" d="M11.194 1.112c.647-.211 1.379-.001 1.846.486 3.154 3.006 6.305 6.016 9.451 9.029.745.638.755 1.879.046 2.548-3.037 3.043-6.079 6.082-9.121 9.121-.682.688-1.902.691-2.574-.013-3.182-3.059-6.388-6.095-9.569-9.155-.674-.647-.625-1.813.04-2.45 2.868-2.894 5.761-5.764 8.638-8.65.367-.36.728-.775 1.244-.916zm.118.369c-.34.095-.602.344-.848.583C7.53 5.01 4.578 7.939 1.648 10.889c-.584.51-.641 1.5-.044 2.023 3.17 3.031 6.343 6.061 9.515 9.091.551.582 1.55.545 2.083-.043l9.059-9.06c.557-.526.548-1.498-.044-1.993-3.121-2.999-6.258-5.983-9.386-8.976-.379-.408-.972-.619-1.517-.45z"/>
    <path fill="#231f20" d="M11.622 5.845c.078-.301.188-.829.589-.788.318.248.412.682.443 1.064.065 1.307.124 2.615.197 3.922.305.08.608.168.911.256.042-.397.071-.817.295-1.162.448.16.236.876.32 1.271 1.316.698 2.632 1.4 3.943 2.105.288.148.157.497-.044.656a502.93 502.93 0 0 0-5.531-1.536c-.03 1.475-.131 2.953-.112 4.427.462.883 1.014 1.721 1.494 2.596-.866.004-1.732-.186-2.603-.073-.572-.013-1.123.258-1.694.172.461-.923 1.096-1.756 1.525-2.689.078-1.476.094-2.956.143-4.434-1.802.506-3.595 1.043-5.396 1.55-.244.071-.552.118-.733-.109-.076-.325.27-.48.499-.611 1.333-.684 2.66-1.376 3.997-2.052.085-.4-.127-1.097.316-1.278.228.346.257.767.3 1.166.302-.086.606-.172.91-.252.096-1.399.116-2.803.232-4.2z"/>
    <path fill="#fff100" d="M11.324.664c.568-.151 1.175.066 1.576.48 3.373 3.226 6.756 6.442 10.122 9.676.646.572.611 1.652-.013 2.227-3.246 3.236-6.481 6.484-9.728 9.719-.584.6-1.648.628-2.239.023C7.629 19.525 4.216 16.261.8 13.001c-.622-.576-.569-1.636.047-2.195 3.128-3.152 6.28-6.281 9.414-9.427.302-.304.635-.614 1.064-.714zm-.13.448c-.516.14-.877.556-1.244.916-2.876 2.886-5.77 5.755-8.638 8.65-.665.637-.714 1.804-.04 2.45 3.181 3.06 6.386 6.096 9.569 9.155.672.704 1.892.701 2.574.013 3.042-3.04 6.084-6.078 9.121-9.121.709-.668.7-1.909-.046-2.548a5754.126 5754.126 0 0 0-9.451-9.029c-.467-.487-1.199-.697-1.846-.486z"/>
    <path fill="#fff100" d="M11.312 1.481c.545-.169 1.138.042 1.517.45 3.128 2.993 6.265 5.977 9.386 8.976.593.496.601 1.468.044 1.993-3.019 3.02-6.038 6.041-9.059 9.06-.533.588-1.532.625-2.083.043l-9.515-9.091c-.596-.523-.54-1.513.044-2.023 2.93-2.95 5.882-5.879 8.816-8.825.246-.239.509-.488.848-.583zm.31 4.364c-.115 1.397-.136 2.801-.232 4.2-.304.08-.607.166-.91.252-.043-.4-.072-.821-.3-1.166-.443.181-.23.878-.316 1.278-1.337.676-2.664 1.368-3.997 2.052-.229.131-.575.286-.499.611.181.227.49.18.733.109 1.801-.508 3.594-1.044 5.396-1.55-.049 1.478-.065 2.958-.143 4.434-.43.934-1.064 1.766-1.525 2.689.571.086 1.122-.185 1.694-.172.871-.113 1.736.077 2.603.073-.48-.875-1.032-1.712-1.494-2.596-.019-1.474.082-2.952.112-4.427 1.847.5 3.69 1.015 5.531 1.536.202-.16.332-.509.044-.656a1057.96 1057.96 0 0 0-3.943-2.105c-.084-.395.127-1.111-.32-1.271-.224.344-.253.764-.295 1.162a39.533 39.533 0 0 0-.911-.256c-.073-1.307-.132-2.615-.197-3.922-.031-.383-.125-.816-.443-1.064-.401-.041-.511.487-.589.788z"/>
</svg>
