<svg xmlns="http://www.w3.org/2000/svg" width="24" height="24">
    <path fill="#ecc12f" opacity=".93" d="M11.723 0h.522c.26.122.504.281.708.485 3.277 3.283 6.562 6.56 9.841 9.841.428.442.925.838 1.206 1.397v.52c-.228.536-.696.901-1.092 1.307-3.101 3.098-6.2 6.198-9.3 9.298-.42.409-.797.886-1.332 1.153h-.524c-.534-.229-.894-.698-1.3-1.092l-9.3-9.3C.743 13.191.27 12.813 0 12.282v-.536c.246-.556.734-.935 1.146-1.36 3.301-3.299 6.602-6.599 9.901-9.9a2.92 2.92 0 0 1 .676-.485zm.194.286c-.306.02-.523.263-.732.458C7.649 4.29 4.1 7.823.566 11.37c-.374.323-.377.936.007 1.254 3.457 3.463 6.926 6.916 10.375 10.387.305.286.589.704 1.051.707.491-.01.781-.468 1.108-.769 3.434-3.448 6.881-6.883 10.319-10.326.38-.319.378-.929.006-1.254C19.88 7.801 16.308 4.252 12.752.687c-.22-.223-.499-.451-.835-.401z"/>
    <path d="M11.917.286c.336-.05.616.178.835.401 3.556 3.565 7.128 7.115 10.68 10.682.372.325.374.935-.006 1.254-3.438 3.443-6.884 6.878-10.319 10.326-.326.301-.617.76-1.108.769-.462-.002-.746-.421-1.051-.707C7.499 19.539 4.03 16.087.573 12.624a.833.833 0 0 1-.007-1.254C4.1 7.823 7.648 4.29 11.185.744c.209-.196.426-.438.732-.458zm-.007.462c-.347.202-.594.528-.882.8-3.319 3.32-6.638 6.642-9.961 9.959-.23.193-.491.544-.178.794 3.582 3.582 7.168 7.163 10.747 10.748.163.216.48.298.664.055 3.55-3.532 7.075-7.088 10.631-10.614.233-.188.491-.545.178-.792-3.524-3.558-7.085-7.081-10.616-10.633-.167-.138-.334-.377-.582-.318z"/>
    <path d="M10.187 8.362c.884-.054 1.75.335 2.641.239 1.126-.12 2.299-.216 3.395.136 1.175.516 1.92 1.758 2.014 3.014.083 1.043-.133 2.092.034 3.126-.485.775-1.477.908-2.32.762.164-.19.341-.37.524-.541-.274-.308-.54-.624-.793-.949-.234.194-.472.384-.715.566.029.32.018.644-.074.954-.803-.016-1.604.014-2.406-.022.161-.406.547-.595.929-.742-.484-.457-1.193-.958-.906-1.726a45.446 45.446 0 0 0-.509-.346 9.308 9.308 0 0 1-.635 2.134c-.385.965-1.646.418-2.436.536.184-.386.592-.45.958-.559.065-.666.119-1.333.234-1.993l-.306-.143c.106.808-.816.948-1.37 1.205-.005.24-.01.479-.017.719-.713-.077-1.558-.77-1.123-1.54.388-.385.702-.824.504-1.399-.478-.066-.949-.174-1.429-.215-.269-.29-.517-.598-.75-.917.319-.149.757-.27.752-.704.001-.472.458-.766.432-1.243.11-.481.725-.274.863.085.821-.299 1.714-.08 2.51-.438z"/>
    <path fill="#ffd033" d="M11.91.748c.248-.059.415.18.582.318 3.532 3.552 7.092 7.075 10.616 10.633.313.247.055.604-.178.792-3.556 3.526-7.081 7.082-10.631 10.614-.184.242-.5.161-.664-.055C8.055 19.464 4.47 15.884.888 12.302c-.313-.251-.053-.601.178-.794 3.323-3.317 6.642-6.638 9.961-9.959.288-.272.535-.599.882-.8zm-1.723 7.614c-.797.358-1.69.139-2.51.438-.138-.359-.752-.566-.863-.085.026.478-.431.772-.432 1.243.005.434-.433.556-.752.704.233.319.481.626.75.917.48.041.952.149 1.429.215.198.575-.116 1.014-.504 1.399-.434.769.41 1.463 1.123 1.54.007-.24.012-.479.017-.719.554-.257 1.476-.397 1.37-1.205l.306.143c-.115.66-.169 1.327-.234 1.993-.366.109-.774.173-.958.559.79-.119 2.051.428 2.436-.536A9.308 9.308 0 0 0 12 12.834c.17.114.34.229.509.346-.287.768.422 1.268.906 1.726-.382.146-.768.336-.929.742.802.036 1.603.006 2.406.022.092-.31.103-.634.074-.954.244-.182.481-.372.715-.566.253.325.52.641.793.949-.184.172-.36.352-.524.541.842.146 1.835.013 2.32-.762-.167-1.034.049-2.083-.034-3.126-.094-1.256-.839-2.498-2.014-3.014-1.096-.352-2.269-.256-3.395-.136-.892.096-1.757-.293-2.641-.239z"/>
</svg>
