<svg xmlns="http://www.w3.org/2000/svg" width="24" height="24">
    <path fill="#ce252c" d="M11.668 1.333h.545c.613.121 1.184.476 1.479 1.039 3.128 5.428 6.254 10.857 9.38 16.285.326.577.705 1.132.897 1.772v.494a2.15 2.15 0 0 1-1.728 1.742H1.758a2.138 2.138 0 0 1-1.759-1.673v-.56c.091-.304.207-.602.365-.876C3.67 13.83 6.966 8.097 10.267 2.369c.279-.545.826-.876 1.4-1.038zM2.476 20.398c6.337.013 12.673.012 19.008 0A3249.6 3249.6 0 0 0 11.98 3.892a3293.766 3293.766 0 0 0-9.504 16.506z"/>
    <path fill="#ffd100" d="M2.476 20.398A3293.766 3293.766 0 0 1 11.98 3.892a3249.6 3249.6 0 0 1 9.504 16.506c-6.335.012-12.672.013-19.008 0zm7.725-10.282c-.013 1.044.004 2.088-.008 3.132-.791.012-1.582-.003-2.373.006-.007.496-.006.991-.001 1.487.791.01 1.583-.004 2.375.006.011 1.537-.004 3.073.006 4.608 1.188.006 2.375.006 3.564.001.013-1.724-.016-3.445.017-5.168 1.339 1.314 2.65 2.657 3.985 3.975.35-.348.699-.698 1.043-1.052-1.66-1.684-3.348-3.34-5.003-5.028-.1-.643-.004-1.314-.044-1.967a80.969 80.969 0 0 0-1.782-1.783 87.962 87.962 0 0 0-1.78 1.782z"/>
    <path d="M10.201 10.116a85.45 85.45 0 0 1 1.78-1.782 78.838 78.838 0 0 1 1.782 1.783c.038.653-.058 1.324.044 1.967 1.655 1.687 3.342 3.344 5.003 5.028-.344.355-.692.703-1.043 1.052-1.335-1.318-2.646-2.662-3.985-3.975-.032 1.723-.004 3.444-.017 5.168a470.42 470.42 0 0 1-3.564-.001c-.01-1.535.004-3.072-.006-4.608-.792-.011-1.584.004-2.375-.006-.004-.496-.006-.991.001-1.487.791-.008 1.582.006 2.373-.006.013-1.044-.004-2.088.008-3.132z"/>
</svg>
