<svg xmlns="http://www.w3.org/2000/svg" width="24" height="24">
    <path fill="#c31926" d="M11.869 1.333h.464c.464.143.876.44 1.097.879l9.942 17.204c.309.538.649 1.063.87 1.647v.396c-.146.578-.573 1.052-1.156 1.206H1.169c-.583-.138-1.007-.607-1.17-1.172v-.412a5.52 5.52 0 0 1 .334-.744l10.48-18.134c.217-.424.612-.713 1.054-.87zm.178 1.257c-.406.542-.689 1.164-1.044 1.738-3.262 5.683-6.588 11.33-9.811 17.036.484.117.983.071 1.476.074h18.909c.491-.004.99.049 1.471-.077-3.487-6.164-7.084-12.268-10.604-18.413-.111-.133-.173-.412-.396-.356z"/>
    <path fill="#fff" d="M12.047 2.59c.222-.056.284.223.396.356 3.521 6.146 7.117 12.249 10.604 18.413-.481.126-.98.073-1.471.077H2.667c-.492-.003-.991.044-1.476-.074 3.223-5.706 6.549-11.353 9.811-17.036.356-.574.639-1.196 1.044-1.738zM11.041 6.3c-.06.51.047 1.034-.063 1.54-.236.534-.737.884-1.047 1.371-.452.669-.634 1.631-.132 2.324.803 1.176 2.129 1.828 3.091 2.85.237.247.42.606.263.948-.479 1.106-1.74 1.696-2.084 2.88-.093.749-.02 1.509-.04 2.263.363-.364.726-.729 1.091-1.09.364.363.732.724 1.093 1.09.063-.85-.239-1.883.477-2.538.836-.817 1.827-1.751 1.706-3.037-.143-1.397-1.476-2.182-2.497-2.947-.449-.369-1.084-.667-1.213-1.283.01-1.054 1.173-1.524 1.494-2.437.067-.641.043-1.291.02-1.934-.306-.42-.726-.74-1.08-1.117-.354.378-.771.7-1.077 1.119z"/>
    <path d="M11.041 6.3c.307-.418.724-.74 1.077-1.119.354.377.774.698 1.08 1.117.023.644.047 1.293-.02 1.934-.321.914-1.484 1.383-1.494 2.437.13.616.764.914 1.213 1.283 1.02.764 2.354 1.549 2.497 2.947.121 1.286-.87 2.22-1.706 3.037-.716.656-.414 1.689-.477 2.538-.361-.366-.729-.727-1.093-1.09-.364.361-.729.724-1.091 1.09.02-.754-.053-1.514.04-2.263.344-1.184 1.606-1.774 2.084-2.88.156-.342-.026-.7-.263-.948-.963-1.022-2.289-1.674-3.091-2.85-.502-.693-.32-1.656.132-2.324.31-.486.812-.836 1.047-1.371.11-.506.003-1.029.063-1.54z"/>
</svg>
