<svg xmlns="http://www.w3.org/2000/svg" width="24" height="24">
    <path fill="#ffd520" d="M11.791 0h.391c.466.258.802.679 1.187 1.036-.46.455-.914.913-1.374 1.368-.46-.455-.914-.913-1.373-1.368.38-.355.719-.764 1.169-1.036z"/>
    <path fill="#ffd520" d="M7.879 3.78c.469-.449.93-.907 1.378-1.378.456.463.916.923 1.373 1.384a80.38 80.38 0 0 1 1.366-1.373c.463.45.913.913 1.368 1.372l1.372-1.382c.448.47.908.928 1.378 1.378-.467.45-.924.908-1.375 1.373.452.456.907.911 1.363 1.364.46-.457.919-.912 1.37-1.378.449.469.908.929 1.376 1.378-.466.45-.922.91-1.376 1.37.454.456.908.912 1.367 1.363.46-.455.918-.912 1.372-1.373.446.467.905.924 1.37 1.373-.46.457-.92.914-1.376 1.376.46.45.916.905 1.367 1.363-.451.458-.91.911-1.364 1.368.457.458.918.913 1.37 1.376-.464.446-.92.901-1.367 1.367-.455-.462-.913-.918-1.372-1.375-.458.455-.916.911-1.369 1.37.46.456.916.913 1.375 1.369-.466.449-.924.907-1.374 1.373-.451-.463-.91-.919-1.368-1.375a88.03 88.03 0 0 0-1.364 1.369c.455.458.911.916 1.37 1.369-.468.451-.928.911-1.378 1.379-.45-.466-.906-.925-1.367-1.38-.458.455-.911.917-1.368 1.374-.456-.457-.91-.917-1.364-1.375-.464.454-.917.918-1.374 1.376a48.075 48.075 0 0 0-1.373-1.374c.458-.454.916-.91 1.369-1.369a88.03 88.03 0 0 0-1.363-1.37c-.458.457-.918.912-1.369 1.376a49.447 49.447 0 0 0-1.374-1.374c.461-.454.917-.913 1.378-1.368-.456-.458-.913-.916-1.37-1.372-.458.458-.918.914-1.37 1.378a45.644 45.644 0 0 0-1.374-1.374c.46-.456.916-.914 1.375-1.369-.456-.455-.914-.908-1.366-1.368.45-.462.906-.918 1.369-1.367-.462-.456-.917-.919-1.382-1.37.469-.449.929-.91 1.376-1.379.452.463.911.92 1.372 1.375.458-.451.912-.907 1.366-1.362-.454-.463-.91-.923-1.379-1.37.47-.45.931-.91 1.381-1.381.449.468.91.924 1.37 1.38.455-.454.91-.907 1.361-1.364A59.291 59.291 0 0 0 7.881 3.78zm1.389 1.379c.451.452.906.902 1.356 1.355-.449.463-.907.917-1.366 1.37-.455-.45-.9-.91-1.362-1.352a29.2 29.2 0 0 0-1.363 1.363c.449.456.907.901 1.355 1.358-.454.46-.906.919-1.373 1.366-.45-.457-.901-.913-1.362-1.358-.434.444-.9.857-1.309 1.324.317.542.893.924 1.309 1.405-.449.457-.907.905-1.357 1.361.438.469.894.92 1.36 1.361.467-.438.91-.901 1.366-1.349.461.451.914.908 1.37 1.364-.451.457-.914.901-1.355 1.367.442.464.894.918 1.36 1.358.461-.446.905-.907 1.366-1.352.457.449.901.908 1.364 1.35-.439.475-.919.911-1.356 1.388.454.454.896.918 1.369 1.351.451-.454.902-.906 1.357-1.356.455.45.905.905 1.358 1.356.469-.437.919-.893 1.361-1.357-.436-.469-.898-.913-1.352-1.364.451-.46.91-.914 1.366-1.369.462.446.906.908 1.368 1.354.464-.44.917-.895 1.36-1.357-.442-.467-.905-.911-1.355-1.368.456-.456.908-.916 1.37-1.366.455.45.899.912 1.366 1.35.464-.442.919-.894 1.36-1.36-.451-.456-.908-.905-1.358-1.361.427-.454.902-.862 1.309-1.334-.314-.533-.889-.924-1.31-1.396-.464.446-.911.913-1.375 1.36-.449-.46-.908-.908-1.36-1.367.449-.456.906-.904 1.356-1.357-.438-.47-.893-.924-1.362-1.363-.463.442-.908.901-1.363 1.351-.458-.454-.917-.908-1.367-1.369.449-.455.911-.898 1.35-1.362a25.298 25.298 0 0 0-1.364-1.357c-.455.45-.905.904-1.357 1.355l-1.348-1.35c-.492.419-.932.893-1.38 1.358z"/>
    <path fill="#ffd520" d="M5.302 11.989a1455.94 1455.94 0 0 1 6.694-6.69 1319.61 1319.61 0 0 1 6.694 6.691 1837.095 1837.095 0 0 1-6.694 6.695c-2.233-2.23-4.469-4.457-6.694-6.696zm7.956-3.815c-.473.792-1.109 1.504-1.476 2.348.224.287.62-.024.912-.056-.018.486.058.984-.044 1.463-.18.314-.599.202-.896.239-.784-.053-1.548.594-1.576 1.388-.024.752-.001 1.506-.006 2.26l1.127-.001c.038-.768-.066-1.552.05-2.31.464-.445 1.285-.016 1.787-.486.872-.551.68-1.676.689-2.552.292.031.692.346.913.055-.366-.844-.995-1.562-1.48-2.347zM0 11.808c.262-.466.684-.804 1.042-1.189.457.456.917.911 1.367 1.373-.452.46-.911.913-1.366 1.37-.359-.37-.738-.722-1.043-1.14v-.414zM21.582 11.992c.451-.462.911-.917 1.368-1.373.362.385.776.73 1.05 1.188v.353c-.253.478-.69.811-1.051 1.201-.456-.456-.913-.911-1.367-1.369zM10.626 22.944c.455-.456.91-.914 1.37-1.367.458.454.913.911 1.37 1.367-.376.364-.73.755-1.16 1.056h-.373c-.482-.251-.814-.695-1.207-1.056z"/>
    <path d="M9.257 2.402c.44-.47.898-.925 1.366-1.367.458.455.913.913 1.373 1.368.46-.455.914-.913 1.374-1.368.468.443.925.896 1.366 1.367-.457.461-.913.923-1.372 1.382-.455-.458-.905-.922-1.368-1.372-.462.45-.914.912-1.366 1.373-.457-.461-.917-.92-1.373-1.384zM6.522 5.137c.44-.463.893-.916 1.357-1.357.466.449.923.908 1.374 1.373-.451.457-.906.911-1.361 1.364-.461-.456-.922-.912-1.37-1.38z"/>
    <path d="M9.268 5.159c.448-.466.888-.94 1.38-1.358l1.348 1.35c.452-.451.902-.905 1.357-1.355.475.431.923.89 1.364 1.357-.439.464-.901.907-1.35 1.362.45.461.908.916 1.367 1.369.455-.45.9-.91 1.363-1.351.469.439.924.893 1.362 1.363-.45.454-.907.901-1.356 1.357.451.458.911.907 1.36 1.367.464-.446.911-.913 1.375-1.36.421.472.996.863 1.31 1.396-.407.473-.882.881-1.309 1.334.45.456.907.905 1.358 1.361-.44.466-.895.918-1.36 1.36-.467-.438-.911-.9-1.366-1.35-.462.45-.914.91-1.37 1.366.45.457.913.901 1.355 1.368a39.55 39.55 0 0 1-1.36 1.357c-.462-.445-.906-.907-1.368-1.354-.456.455-.914.91-1.366 1.369.455.451.917.895 1.352 1.364-.442.464-.892.92-1.361 1.357-.454-.451-.904-.906-1.358-1.356-.455.45-.906.902-1.357 1.356-.473-.433-.916-.898-1.369-1.351.437-.478.917-.913 1.356-1.388-.463-.442-.907-.901-1.364-1.35-.461.445-.905.906-1.366 1.352-.466-.44-.918-.894-1.36-1.358.44-.466.904-.91 1.355-1.367-.456-.456-.91-.913-1.37-1.364-.456.448-.899.911-1.366 1.349-.466-.44-.922-.892-1.36-1.361.45-.456.908-.904 1.357-1.361-.416-.481-.992-.863-1.309-1.405.409-.467.875-.88 1.309-1.324.461.445.912.901 1.362 1.358.467-.446.919-.906 1.373-1.366-.448-.457-.906-.902-1.355-1.358a29.2 29.2 0 0 1 1.363-1.363c.462.443.907.902 1.362 1.352.458-.454.917-.907 1.366-1.37-.45-.452-.905-.902-1.356-1.355zm-3.966 6.83c2.225 2.239 4.46 4.466 6.694 6.696 2.236-2.227 4.47-4.457 6.694-6.695-2.224-2.238-4.454-4.47-6.694-6.691a1507.921 1507.921 0 0 0-6.694 6.69z"/>
    <path d="M14.737 5.153c.451-.464.908-.923 1.375-1.373.463.443.917.895 1.358 1.36-.451.466-.911.92-1.37 1.378a292.1 292.1 0 0 1-1.363-1.364zM3.782 7.876c.442-.464.894-.916 1.358-1.357.469.448.925.907 1.379 1.37-.454.455-.907.911-1.366 1.362-.461-.455-.919-.912-1.372-1.375zM17.471 7.888c.455-.461.911-.92 1.376-1.37.466.442.92.895 1.362 1.361-.454.461-.912.918-1.372 1.373-.458-.451-.913-.907-1.367-1.363zM13.258 8.174c.485.785 1.114 1.504 1.48 2.347-.221.29-.622-.024-.913-.055-.008.876.184 2.002-.689 2.552-.502.47-1.322.041-1.787.486-.116.758-.012 1.542-.05 2.31l-1.127.001c.005-.754-.018-1.507.006-2.26.028-.794.792-1.441 1.576-1.388.298-.037.716.076.896-.239.102-.479.026-.977.044-1.463-.292.032-.688.343-.912.056.367-.845 1.003-1.556 1.476-2.348zM21.58 9.251c.47.442.928.899 1.37 1.368-.457.456-.917.911-1.368 1.373.454.458.911.913 1.367 1.369-.446.469-.905.926-1.373 1.374-.452-.463-.913-.918-1.37-1.376.455-.457.913-.91 1.364-1.368-.451-.458-.907-.913-1.367-1.363.456-.462.917-.919 1.376-1.376zM1.042 10.619a31.9 31.9 0 0 1 1.364-1.364c.466.451.92.914 1.382 1.37-.463.449-.919.905-1.369 1.367.451.46.91.913 1.366 1.368-.46.455-.916.913-1.375 1.369-.469-.443-.923-.9-1.367-1.367.455-.457.913-.911 1.366-1.37-.45-.462-.91-.917-1.367-1.373zM3.784 16.103c.452-.463.912-.919 1.37-1.378.457.456.914.913 1.37 1.372-.461.455-.917.914-1.378 1.368-.466-.443-.92-.898-1.363-1.362zM17.468 16.097c.454-.46.911-.916 1.369-1.37.458.457.917.913 1.372 1.375-.445.466-.9.92-1.366 1.364-.46-.456-.916-.913-1.375-1.369zM6.521 18.839c.451-.464.911-.919 1.369-1.376.458.454.916.907 1.363 1.37-.454.46-.911.916-1.369 1.369a39.813 39.813 0 0 1-1.363-1.363zM14.737 18.833c.449-.462.906-.917 1.364-1.369.458.456.917.912 1.368 1.375a40.71 40.71 0 0 1-1.362 1.363c-.46-.454-.916-.911-1.37-1.369zM9.257 21.576c.457-.458.91-.923 1.374-1.376.455.458.908.918 1.364 1.375.457-.457.91-.919 1.368-1.374.461.455.917.914 1.367 1.38-.442.468-.898.92-1.363 1.363-.457-.456-.912-.913-1.37-1.367-.461.452-.916.911-1.37 1.367a33.962 33.962 0 0 1-1.369-1.368z"/>
</svg>
