<svg xmlns="http://www.w3.org/2000/svg" width="24" height="24">
    <path fill="#c0111e" d="M10.18 2.581c.718-1.405 3.07-1.469 3.813-.046 3.165 4.941 6.052 10.053 9.029 15.108.55 1.018 1.37 2.044 1.224 3.27-.104.844-.801 1.445-1.548 1.754H1.562c-.756-.304-1.38-.923-1.563-1.734v-.748c.184-.772.611-1.445 1-2.125a962.393 962.393 0 0 1 9.18-15.477zm1.724 1.592C8.708 9.601 5.496 15.02 2.317 20.458c6.544.005 13.088.005 19.632 0a4352.133 4352.133 0 0 0-9.755-16.56c-.179-.061-.204.175-.291.275z"/>
    <path fill="#fff" d="M11.904 4.173c.086-.1.112-.336.291-.275 3.26 5.515 6.517 11.03 9.755 16.56-6.544.005-13.088.005-19.632 0C5.497 15.02 8.709 9.6 11.905 4.173zm.545 3.043c-.224.197-.44.404-.64.624.003.534.002 1.069.004 1.603-.787.494-1.76.962-2.011 1.942-.06 1.135-.005 2.276-.027 3.413-.013.722.035 1.524.52 2.101.514.444 1.078.828 1.595 1.269.099.58.01 1.186.043 1.775.418.007.835.005 1.252.001-.025-.763.067-1.541-.048-2.294-.529-.704-1.42-1.065-1.982-1.724-.259-1.373-.06-2.8-.116-4.195.278-.928 1.581-.933 2.006-1.742-.069-.944.398-2.189-.596-2.773zm-.524 5.125a70.46 70.46 0 0 0 0 2.641c.359.271.976.311 1.237-.083.012-.856.029-1.715-.012-2.571-.38-.245-.856-.267-1.226.012z"/>
    <path fill="#030303" d="M12.449 7.216c.995.584.526 1.829.596 2.773-.426.81-1.728.814-2.006 1.742.056 1.395-.142 2.821.116 4.195.563.659 1.453 1.02 1.982 1.724.115.754.023 1.532.048 2.294-.418.004-.835.005-1.252-.001-.033-.589.056-1.195-.043-1.775-.516-.441-1.081-.825-1.595-1.269-.485-.578-.533-1.38-.52-2.101.021-1.138-.033-2.278.027-3.413.251-.981 1.224-1.448 2.011-1.942-.003-.533-.002-1.068-.004-1.603.2-.22.416-.427.64-.624z"/>
    <path fill="#030303" d="M11.925 12.341c.369-.278.845-.258 1.226-.012.041.856.024 1.715.012 2.571-.261.394-.879.354-1.237.083a70.46 70.46 0 0 1 0-2.641z"/>
</svg>
