<svg xmlns="http://www.w3.org/2000/svg" width="24" height="24">
    <path fill="#231f20" d="M11.686 1.134c.595-.107 1.206.128 1.62.559 3.276 3.126 6.553 6.251 9.818 9.388.754.678.664 1.95-.09 2.593-3.122 3.116-6.245 6.235-9.365 9.355-.661.67-1.847.694-2.518.026-3.31-3.174-6.634-6.332-9.944-9.505-.69-.644-.649-1.83.026-2.471 3.073-3.089 6.161-6.164 9.239-9.248.326-.341.732-.636 1.213-.697zm.217.25c-.456.013-.869.253-1.177.578-3.097 3.106-6.209 6.198-9.3 9.31-.572.539-.612 1.541-.029 2.087l9.943 9.503c.594.592 1.64.532 2.198-.08 3.106-3.095 6.198-6.205 9.306-9.299.649-.544.737-1.63.089-2.21-3.241-3.121-6.506-6.216-9.756-9.329-.331-.343-.784-.596-1.274-.559z"/>
    <path fill="#231f20" d="M11.554 1.836c.611-.167 1.274.049 1.71.496 3.054 2.909 6.102 5.824 9.146 8.741.7.605.737 1.77.083 2.42-2.93 2.948-5.879 5.88-8.814 8.825-.632.685-1.812.757-2.486.095-3.107-2.975-6.223-5.941-9.328-8.918-.678-.644-.594-1.811.082-2.425 2.836-2.845 5.68-5.682 8.52-8.522.302-.313.65-.612 1.087-.71zm.12.358c-.38.078-.674.352-.941.617-2.834 2.846-5.686 5.677-8.515 8.528-.563.491-.606 1.451-.03 1.949 3.095 2.947 6.178 5.906 9.271 8.855.532.517 1.453.445 1.946-.09 2.921-2.923 5.845-5.843 8.766-8.765.55-.509.553-1.463-.03-1.949-3.019-2.899-6.05-5.789-9.078-8.682-.35-.372-.878-.59-1.39-.463z"/>
    <path fill="#231f20" d="M9.359 11.038c1.195-.797 2.707-1.106 4.11-.756 1.21.286 2.15 1.151 3.263 1.657.955.468 2.014.673 3.067.763.008.606.006 1.211.002 1.816-5.082.004-10.163.005-15.245 0a91.61 91.61 0 0 1 .002-1.816c1.726-.083 3.373-.71 4.8-1.664z"/>
    <path fill="#fff100" d="M11.903 1.384c.491-.037.943.216 1.274.559 3.25 3.113 6.515 6.208 9.756 9.329.648.581.56 1.667-.089 2.21-3.108 3.094-6.2 6.204-9.306 9.299-.558.612-1.604.672-2.198.08l-9.943-9.503c-.583-.546-.544-1.548.029-2.087 3.091-3.112 6.203-6.204 9.3-9.31.308-.325.721-.565 1.177-.578zm-.349.452c-.437.098-.785.397-1.087.71-2.84 2.84-5.684 5.677-8.52 8.522-.676.614-.76 1.781-.082 2.425 3.104 2.977 6.221 5.944 9.328 8.918.674.662 1.854.59 2.486-.095 2.935-2.945 5.884-5.876 8.814-8.825.654-.65.617-1.816-.083-2.42a4203.338 4203.338 0 0 0-9.146-8.741c-.436-.446-1.099-.662-1.71-.496z"/>
    <path fill="#fff100" d="M11.674 2.194c.511-.127 1.039.091 1.39.463 3.028 2.893 6.059 5.783 9.078 8.682.583.486.58 1.44.03 1.949-2.921 2.922-5.845 5.842-8.766 8.765-.493.535-1.415.607-1.946.09-3.094-2.948-6.176-5.908-9.271-8.855-.576-.498-.533-1.458.03-1.949 2.83-2.851 5.681-5.682 8.515-8.528.266-.265.56-.539.941-.617zm-2.315 8.844c-1.427.954-3.074 1.582-4.8 1.664a91.61 91.61 0 0 0-.002 1.816c5.082.005 10.163.004 15.245 0 .004-.605.006-1.21-.002-1.816-1.054-.09-2.112-.295-3.067-.763-1.112-.506-2.053-1.372-3.263-1.657-1.403-.35-2.915-.041-4.11.756z"/>
</svg>
