<svg xmlns="http://www.w3.org/2000/svg" width="24" height="24">
    <path fill="#d4b11a" opacity=".83" d="M11.786 0h.396c.401.248.72.598 1.048.931 3.22 3.22 6.44 6.439 9.659 9.66.389.392.815.756 1.111 1.229v.318c-.223.432-.607.74-.942 1.08l-9.66 9.66c-.392.386-.757.808-1.214 1.122h-.353c-.421-.226-.727-.599-1.061-.929-3.221-3.221-6.442-6.439-9.661-9.66C.73 13.022.31 12.667 0 12.217v-.428c.257-.421.638-.74.98-1.088l9.78-9.78c.322-.329.637-.67 1.026-.92zm.023.292C8.023 3.936 4.362 7.725.618 11.418c-.254.215-.566.613-.223.902 3.734 3.748 7.483 7.484 11.224 11.228.19.251.566.24.754-.007 3.724-3.722 7.447-7.446 11.168-11.17.287-.216.215-.619-.049-.82L12.448.509c-.163-.158-.402-.365-.638-.218z"/>
    <path d="M11.809.292c.236-.146.475.06.638.218l11.044 11.042c.264.2.336.604.049.82-3.721 3.724-7.445 7.447-11.168 11.17a.474.474 0 0 1-.754.007C7.878 19.805 4.129 16.068.394 12.321c-.343-.289-.031-.688.223-.902C4.361 7.725 8.022 3.937 11.808.293zM.552 11.996c3.806 3.82 7.607 7.65 11.444 11.438a3735.1 3735.1 0 0 0 11.43-11.438c-3.78-3.84-7.602-7.644-11.43-11.437C8.148 4.334 4.339 8.159.552 11.996z"/>
    <path d="M8.545 5.478A29.792 29.792 0 0 1 10.1 7.69c-.054.494-.646.068-.948.09.023 3.583-.011 7.166.02 10.75-.404.058-.812.028-1.219.029-.011-.946.004-1.892-.008-2.838-.019-.928-.719-1.728-1.582-2.01-.043.306.216.864-.234.947-.643-.652-1.259-1.327-1.892-1.986.823-.373 1.644-.76 2.49-1.076.44.151-.05.664-.122.955.485.142.934.38 1.34.679.005-1.828.008-3.654.004-5.482-.286.03-.864.4-.93-.066.473-.758 1.025-1.464 1.526-2.203zM13.978 8.647c-.085-.271-.592-.91-.076-.947.838.331 1.661.706 2.48 1.081-.638.656-1.235 1.358-1.906 1.981-.481.055-.215-.624-.241-.896-.948.221-1.639 1.165-1.634 2.128-.012 2.189 0 4.378-.012 6.566h-1.188a572.41 572.41 0 0 1-.006-6.682c.026-1.501 1.148-2.84 2.582-3.232zM17.372 12.545c-.077-.288-.566-.82-.107-.954.829.323 1.637.702 2.449 1.066a28.702 28.702 0 0 1-1.854 1.967c-.476.02-.199-.629-.258-.923-.865.292-1.536 1.096-1.58 2.018-.024.946.002 1.891-.011 2.837-.392.007-.786.007-1.178 0 .002-.983-.025-1.967.004-2.948.076-1.432 1.154-2.706 2.536-3.062zM10.096 13.88l.35-.018c-.002 1.568.022 3.137-.013 4.705l-.328-.006c-.013-1.56.006-3.121-.01-4.681z"/>
    <path d="M13.54 13.867l.314-.014c.07 1.566.014 3.139.026 4.709l-.322.007c-.048-1.566-.011-3.134-.019-4.702z"/>
    <path fill="#ffd520" d="M.552 11.996A995.17 995.17 0 0 1 11.996.559c3.828 3.793 7.65 7.597 11.43 11.437-3.803 3.82-7.61 7.636-11.43 11.438C8.158 19.646 4.358 15.815.552 11.996zm7.993-6.518c-.502.739-1.054 1.445-1.526 2.203.066.466.644.096.93.066.005 1.828.001 3.654-.004 5.482a4.313 4.313 0 0 0-1.34-.679c.072-.292.563-.804.122-.955-.846.317-1.667.703-2.49 1.076.634.659 1.249 1.334 1.892 1.986.45-.083.191-.641.234-.947.863.282 1.562 1.082 1.582 2.01.012.946-.002 1.892.008 2.838.407-.001.815.029 1.219-.029-.031-3.583.002-7.166-.02-10.75.302-.022.894.404.948-.09a30.4 30.4 0 0 0-1.555-2.212zm5.433 3.169c-1.434.391-2.556 1.73-2.582 3.232-.01 2.227-.01 4.454.006 6.682h1.188c.012-2.189 0-4.378.012-6.566-.005-.962.686-1.907 1.634-2.128.026.272-.24.952.241.896.671-.623 1.267-1.325 1.906-1.981-.82-.376-1.643-.75-2.48-1.081-.516.037-.01.676.076.947zm3.394 3.898c-1.381.356-2.46 1.631-2.536 3.062-.029.982-.001 1.966-.004 2.948.392.007.786.007 1.178 0 .013-.946-.013-1.891.011-2.837.044-.923.715-1.727 1.58-2.018.059.294-.218.943.258.923a28.473 28.473 0 0 0 1.854-1.967c-.812-.364-1.62-.743-2.449-1.066-.46.134.03.666.107.954zm-7.276 1.335c.016 1.56-.004 3.121.01 4.681l.328.006c.035-1.568.011-3.137.013-4.705a38.99 38.99 0 0 0-.35.018zm3.444-.013c.008 1.567-.029 3.136.019 4.702l.322-.007c-.012-1.57.043-3.143-.026-4.709l-.314.014z"/>
</svg>
