<svg xmlns="http://www.w3.org/2000/svg" width="24" height="24">
    <path d="M11.442 1.854c.742-.245 1.643.091 2.01.79 3.247 5.621 6.493 11.242 9.742 16.861.264.464.588.94.582 1.495.02.887-.773 1.704-1.668 1.679-6.738.002-13.476.001-20.214.001-.945.068-1.791-.813-1.746-1.746.028-.494.314-.916.551-1.333C3.961 13.96 7.219 8.317 10.48 2.677c.217-.371.547-.689.962-.823zm.094.19c-.423.128-.745.467-.949.848-3.291 5.705-6.59 11.406-9.883 17.11-.235.414-.44.903-.288 1.383.164.65.816 1.103 1.475 1.101 6.739 0 13.478.004 20.216-.002.812.005 1.528-.769 1.464-1.577-.026-.413-.267-.763-.465-1.112-3.286-5.683-6.569-11.369-9.855-17.052-.319-.591-1.075-.896-1.715-.699z"/>
    <path d="M13.44 10.446c.314-.04.52.339.71.548-.269.496-.625.944-.872 1.451-.145.727-.198 1.472-.349 2.198-.478.578-.992 1.129-1.504 1.678-.706.306-1.596.174-2.222.685-.296.213-.61.4-.916.599a3.935 3.935 0 0 1-.731-.632c.194-.262.415-.501.637-.738-.62-.583.255-1.564.901-.998.803-.897 1.609-1.792 2.417-2.685-.546-.608.234-1.513.907-1.009.348-.359.647-.767 1.022-1.097zm-2.189 4.355c.225.2.451.4.676.602.239-.28.521-.526.725-.833.046-.46.034-.924.057-1.385-.49.535-.972 1.077-1.458 1.616zm-1.193 1.33c.406.004.812.003 1.218.001l.569-.638c-.22-.206-.444-.408-.668-.608-.375.413-.75.826-1.119 1.245zM6.964 18.413c2.879-.001 5.757-.001 8.636.001l-.001.446c-2.879-.002-5.758.003-8.637-.002l.002-.445z"/>
    <path fill="#fff" d="M11.536 2.044c.64-.197 1.396.108 1.715.699 3.286 5.683 6.569 11.369 9.855 17.052.198.349.439.699.465 1.112.064.808-.652 1.582-1.464 1.577-6.738.006-13.477.002-20.216.002-.659.002-1.311-.451-1.475-1.101-.152-.48.053-.969.288-1.383 3.293-5.704 6.592-11.405 9.883-17.11.204-.381.526-.72.949-.848zm.196.395c-.307.079-.58.279-.728.562C7.755 8.65 4.5 14.296 1.248 19.944c-.154.283-.356.549-.434.867-.117.621.437 1.291 1.081 1.243 6.734-.002 13.469.002 20.203-.003.662.027 1.21-.711 1.002-1.337-.105-.307-.293-.576-.45-.858-3.245-5.622-6.491-11.244-9.734-16.866-.224-.409-.716-.703-1.184-.551z"/>
    <path fill="#fff" d="M4.253 19.61c2.581-4.481 5.161-8.962 7.755-13.435 2.597 4.476 5.188 8.955 7.775 13.436-5.177.004-10.353.005-15.53-.001zm9.187-9.164c-.375.33-.674.738-1.022 1.097-.673-.504-1.453.401-.907 1.009-.808.893-1.614 1.788-2.417 2.685-.646-.566-1.521.415-.901.998a8.448 8.448 0 0 0-.637.738c.22.236.459.456.731.632.306-.199.62-.386.916-.599.626-.511 1.516-.379 2.222-.685.512-.549 1.026-1.1 1.504-1.678.151-.726.204-1.471.349-2.198.247-.507.603-.955.872-1.451-.19-.209-.396-.588-.71-.548zm-6.476 7.967l-.002.445c2.879.005 5.758 0 8.637.002l.001-.446c-2.879-.002-5.757-.002-8.636-.001z"/>
    <path fill="#fff" d="M11.251 14.801c.486-.539.968-1.081 1.458-1.616-.023.461-.011.925-.057 1.385-.204.307-.486.553-.725.833-.225-.202-.451-.402-.676-.602zM10.058 16.131c.369-.419.744-.832 1.119-1.245.224.2.448.402.668.608l-.569.638a82.42 82.42 0 0 1-1.218-.001z"/>
    <path fill="#d9261c" d="M11.732 2.439c.468-.152.96.142 1.184.551 3.243 5.622 6.489 11.244 9.734 16.866.157.282.345.551.45.858.208.626-.34 1.364-1.002 1.337-6.734.005-13.469.001-20.203.003-.644.048-1.198-.622-1.081-1.243.078-.318.28-.584.434-.867C4.5 14.296 7.755 8.65 11.004 3.001c.148-.283.421-.483.728-.562zM4.253 19.61c5.177.006 10.353.005 15.53.001-2.587-4.481-5.178-8.96-7.775-13.436-2.594 4.473-5.174 8.954-7.755 13.435z"/>
</svg>
