<svg xmlns="http://www.w3.org/2000/svg" width="24" height="24">
    <path fill="#e20a16" d="M11.92 1.333h.496c.236.174.436.393.583.647 3.787 6.588 7.605 13.156 11.382 19.748v.474a9.766 9.766 0 0 1-.431.384c-7.836-.066-15.676-.059-23.512-.004-.152-.124-.295-.26-.437-.395v-.4c3.673-6.494 7.46-12.925 11.163-19.404.207-.38.455-.74.757-1.051zM3.154 20.526c6.03.006 12.062.004 18.094.001-3.016-5.225-6.028-10.45-9.05-15.669a8709.144 8709.144 0 0 0-9.044 15.668z"/>
    <path fill="#fff" d="M3.154 20.526c3.007-5.228 6.026-10.447 9.044-15.668 3.022 5.22 6.035 10.444 9.05 15.669-6.032.004-12.064.004-18.094-.001zM9.89 9.965v5.039h4.617V9.965H9.89zm.077 5.269c-.053.551.552-.24 0 0zm.491.118c-.177.35.256.294.472.356.088-.172.172-.348.252-.523-.245.032-.503.043-.724.167zm2.73-.097c.022.404.368-.196 0 0zm.676.092c-.122.362.276.564.542.685.068-.255.079-.518.04-.778-.195.02-.393.038-.583.092zm-1.356-.013c-.213.044-.151.401.072.327.223-.036.148-.404-.072-.327zm-1.271.518c.381.164.812.189.98-.259-.356-.243-.862-.224-.98.259zm1.524-.032c.337.216.841.5 1.063-.01-.341-.196-.748-.296-1.063.01zm-2.734-.062c-.308.236.132.899.345.455.232-.224-.065-.604-.345-.455zm.718.214c-.152.272.127.604.388.394.401-.196-.135-.546-.388-.394zm1.36.088c.05.244.185.446.388.588.423-.406.151-.873-.388-.588zm1.939.164c-.463.129-.069.685.283.538.462-.094.078-.707-.283-.538zm-2.544.141c-.257.224.116.604.35.361.327-.204-.083-.608-.35-.361zm1.46.112c-.094.308.308.282.499.342l.063-.417c-.189-.023-.404-.061-.562.075zm-3.052.125c-.161.118 0 .453.188.309.161-.118-.001-.455-.188-.309zm.411.525c.218-.053.617-.101.503-.427-.34-.199-.513.116-.503.427zm1.619-.078c.269.09.633.468.893.276.189-.538-.631-.613-.893-.276zm-1.008.557c.292-.057.558-.189.758-.413-.352-.46-.847-.09-.758.413zm2.888-.436c.089.321.42.428.699.273.067-.443-.441-.268-.699-.273zm-.634.025c-.081.193-.065.485.22.373.385-.111.075-.643-.22-.373zm-3.157.265c-.263.302.252.433.459.529.083-.151.166-.303.246-.457-.203-.1-.546-.345-.705-.072zm1.63.334c-.02.341.311.488.598.493.027-.227.189-.496.027-.703-.17-.262-.693-.135-.626.21zm1.622.561c.204.012.41.019.614.02.052-.218.128-.44.078-.667-.433-.135-.588.329-.692.646zm-2.538-.421c.063.168.132.332.204.499.489-.246.335-.857-.204-.499zm1.767.512c.37.109.748-.308.476-.626-.368-.029-.441.338-.476.626zm1.619.176c.096-.001.292-.004.388-.007 0-.191.001-.384-.02-.574-.352-.04-.351.335-.368.581zm-4.105.227c.434.102.478-.459.37-.749-.466.024-.558.374-.37.749zm1.495-.445c-.229.045-.161.44.081.345.242-.044.162-.433-.081-.345zm-1.035.353c.072.288.64.662.574.129.085-.404-.377-.22-.574-.129zm1.514.299c.255-.061.493-.168.484-.476-.265.045-.439.207-.484.476zm.847-.273l.053.352c.092-.019.279-.055.372-.072a26.943 26.943 0 0 0-.02-.411c-.137.042-.272.085-.406.131zm.721.307c.178-.081.354-.166.528-.256-.345-.292-.572-.214-.528.256zm-2.287.147c.158.199.275.516.591.43a4.34 4.34 0 0 0-.076-.653c-.173.069-.344.145-.515.223zm-1.231-.059c-.329.267.145.443.36.532.045-.234.001-.729-.36-.532zm3.897-.067c-.024.18-.046.361-.067.542.388.04.695-.127.572-.548-.17 0-.337.003-.505.006zm-1.85.537c.388.057.59-.108.503-.508a1.255 1.255 0 0 0-.503.508zm1.121-.34c-.332.017-.02.49.177.319.344-.076.085-.518-.177-.319zm-2.325.072c-.209.024-.217.406.03.315.226-.017.217-.395-.03-.315z"/>
    <path fill="#fff" d="M12.036 10.461h.325v1.353h-.325v-1.353zM12.036 12.738h.325v1.352h-.325v-1.352z"/>
    <path d="M9.89 9.965h4.617v5.039H9.89V9.965zm2.146.496v1.353h.325v-1.353h-.325zm0 2.277v1.352h.325v-1.352h-.325zM9.967 15.234c.552-.24-.053.551 0 0zM10.458 15.352c.22-.124.479-.135.724-.167-.081.175-.164.351-.252.523-.216-.062-.649-.006-.472-.356zM13.864 15.347c.19-.055.388-.072.583-.092.039.26.028.523-.04.778-.267-.121-.664-.323-.542-.685zM12.508 15.334c.22-.076.295.292.072.327-.223.075-.285-.283-.072-.327zM11.237 15.852c.118-.483.624-.501.98-.259-.168.447-.598.422-.98.259zM12.761 15.82c.315-.306.722-.206 1.063-.01-.222.509-.726.226-1.063.01zM10.027 15.758c.28-.148.577.23.345.455-.213.444-.652-.218-.345-.455zM10.745 15.972c.253-.152.79.197.388.394-.262.211-.541-.122-.388-.394zM12.105 16.06c.539-.284.811.183.388.588a.937.937 0 0 1-.388-.588zM14.044 16.224c.361-.17.745.444.283.538-.352.148-.746-.408-.283-.538zM11.5 16.365c.267-.247.676.156.35.361-.234.244-.607-.137-.35-.361zM12.96 16.477c.158-.135.373-.098.562-.075l-.063.417c-.191-.061-.593-.034-.499-.342zM10.319 17.127c-.01-.311.164-.626.503-.427.114.325-.285.373-.503.427zM11.938 17.049c.262-.338 1.083-.262.893.276-.26.193-.624-.185-.893-.276zM10.93 17.606c-.089-.503.406-.873.758-.413-.2.224-.467.356-.758.413zM13.818 17.17c.257.004.765-.17.699.273-.278.155-.61.047-.699-.273zM10.027 17.46c.158-.273.502-.028.705.072-.081.154-.164.306-.246.457-.207-.096-.722-.227-.459-.529zM11.657 17.794c-.068-.345.456-.472.626-.21.162.207 0 .476-.027.703-.288-.006-.618-.152-.598-.493zM13.279 18.355c.105-.317.26-.781.692-.646.05.227-.027.449-.078.667-.204-.003-.41-.009-.614-.02zM10.741 17.934c.54-.358.693.252.204.499a10.662 10.662 0 0 1-.204-.499zM12.508 18.446c.034-.288.108-.654.476-.626.272.317-.106.735-.476.626zM14.127 18.622c.017-.246.016-.621.368-.581.02.19.02.383.02.574-.096.003-.292.006-.388.007zM10.022 18.849c-.189-.375-.096-.725.37-.749.108.292.065.852-.37.749zM11.517 18.404c.243-.088.322.301.081.345-.242.095-.309-.3-.081-.345zM10.482 18.757c.197-.09.66-.275.574.129.066.532-.502.158-.574-.129zM11.996 19.056c.045-.268.22-.43.484-.476.01.308-.229.414-.484.476zM12.843 18.783c.134-.045.269-.089.406-.131l.02.411-.372.072c-.019-.117-.036-.236-.053-.352zM13.564 19.09c-.044-.47.183-.548.528-.256-.174.09-.35.175-.528.256zM11.277 19.237c.171-.078.341-.154.515-.223.038.216.072.433.076.653-.317.086-.433-.232-.591-.43zM10.046 19.178c.361-.197.404.298.36.532-.214-.089-.689-.265-.36-.532zM13.943 19.111c.168-.004.335-.006.505-.006.124.422-.184.588-.572.548.02-.181.043-.362.067-.542zM13.214 19.308c.262-.199.521.244.177.319-.197.171-.508-.302-.177-.319z"/>
    <path fill="#1e1e1e" d="M13.188 15.255c.368-.196.022.404 0 0z"/>
    <path fill="#080808" d="M9.908 16.602c.187-.145.348.191.188.309-.188.144-.348-.191-.188-.309z"/>
    <path fill="#101010" d="M13.184 17.195c.295-.269.606.262.22.373-.285.112-.301-.18-.22-.373zM12.093 19.648a1.25 1.25 0 0 1 .503-.508c.086.4-.116.565-.503.508z"/>
    <path fill="#262626" d="M10.889 19.38c.247-.081.256.298.03.315-.247.092-.239-.29-.03-.315z"/>
    <path fill="#120102" opacity=".08" d="M0 22.188c.142.134.285.27.437.395l.118.084h-.556v-.479z"/>
    <path fill="#190102" opacity=".11" d="M23.949 22.586c.148-.122.29-.253.431-.384v.465h-.538l.106-.081z"/>
    <path fill="#c20813" opacity=".86" d="M.437 22.582c7.836-.055 15.676-.062 23.512.004l-.106.081H.556l-.118-.084z"/>
</svg>
