<svg xmlns="http://www.w3.org/2000/svg" width="24" height="24">
    <path fill="#ce252c" d="M11.662 1.333h.565c.606.128 1.172.479 1.465 1.039 3.128 5.427 6.254 10.856 9.38 16.284.324.575.7 1.13.897 1.766v.523a2.17 2.17 0 0 1-1.718 1.721H1.734A2.158 2.158 0 0 1 0 21.003v-.588c.175-.616.541-1.146.852-1.699 3.14-5.448 6.277-10.898 9.418-16.347.278-.544.822-.873 1.393-1.038zM2.48 20.396c6.334.016 12.668.013 19.003.001a2490.39 2490.39 0 0 0-9.501-16.496 2404.133 2404.133 0 0 0-9.5 16.495z"/>
    <path fill="#ffd100" d="M2.48 20.396c3.145-5.511 6.314-11.01 9.5-16.495a2471.665 2471.665 0 0 1 9.501 16.496c-6.334.012-12.668.014-19.003-.001zm7.416-9.528c-.008 1.056-.004 2.113-.001 3.169.034.371-.343.577-.532.845-1.036.007-2.071-.004-3.107.004-.004.496-.004.994.003 1.49.79.004 1.579-.001 2.368.003-.292.966-.206 1.981-.214 2.976 1.189.007 2.378.006 3.567 0 .013-.537-.018-1.074.014-1.61.036-.689.627-1.284 1.31-1.346.544-.047 1.092-.01 1.637-.02.609-.585 1.198-1.19 1.796-1.788-.581-.604-1.181-1.189-1.774-1.783-1.202-.027-2.458-.076-3.579.438-.01-.794.001-1.586-.006-2.378a56.318 56.318 0 0 0-1.482 0z"/>
    <path d="M9.896 10.868c.494-.006.988-.007 1.482 0 .007.792-.004 1.584.006 2.378 1.121-.514 2.377-.465 3.579-.438.592.595 1.193 1.18 1.774 1.783-.596.598-1.187 1.204-1.796 1.788-.545.011-1.093-.027-1.637.02-.684.061-1.274.657-1.31 1.346-.032.536-.001 1.073-.014 1.61-1.189.006-2.378.007-3.567 0 .008-.995-.076-2.01.214-2.976-.79-.004-1.579.003-2.368-.003a74.006 74.006 0 0 1-.003-1.49c1.036-.008 2.071.003 3.107-.004.189-.268.565-.475.532-.845-.003-1.056-.007-2.113.001-3.169z"/>
</svg>
