<svg xmlns="http://www.w3.org/2000/svg" width="24" height="24">
    <path fill="#fff" d="M0 .48h24.092v23.04h-5.716a3.858 3.858 0 0 0-.23-.043c-1.712-.042-3.429.039-5.139-.04.322-.042.552-.284.763-.507 3.024-3.025 6.048-6.05 9.074-9.073.237-.224.476-.481.534-.815.065-.346-.108-.687-.345-.929-3.164-3.166-6.329-6.331-9.495-9.495-.38-.391-1.077-.391-1.457.001-3.174 3.175-6.349 6.347-9.521 9.523-.419.386-.434 1.079-.02 1.474 3.169 3.18 6.348 6.348 9.519 9.526.15.152.341.26.552.295-1.325.073-2.656.012-3.984.032-.457.022-.924-.054-1.373.053H0V.482z"/>
    <path fill="#1a1919" d="M12.081 2.617c.38-.391 1.077-.392 1.457-.001 3.166 3.164 6.331 6.329 9.495 9.495.237.242.41.584.345.929-.058.333-.297.59-.534.815-3.025 3.024-6.049 6.048-9.073 9.074-.211.223-.442.464-.763.507a3.737 3.737 0 0 0-.396-.001 1.027 1.027 0 0 1-.552-.295c-3.172-3.178-6.35-6.347-9.519-9.526-.414-.396-.398-1.089.02-1.474 3.172-3.177 6.348-6.348 9.521-9.523zm.506-.122a.886.886 0 0 0-.431.251c-3.163 3.167-6.331 6.329-9.493 9.496a.883.883 0 0 0-.02 1.27c3.169 3.179 6.348 6.348 9.519 9.525.332.36.963.36 1.296.001 3.172-3.176 6.35-6.346 9.519-9.524a.877.877 0 0 0 .005-1.244c-3.168-3.18-6.348-6.348-9.518-9.524a.907.907 0 0 0-.876-.251z"/>
    <path fill="#1a1919" d="M12.751 2.655a.71.71 0 0 1 .582.221l9.468 9.469c.169.169.298.41.248.655-.05.276-.276.462-.464.649l-9.258 9.258a.719.719 0 0 1-1.034-.001l-9.469-9.469c-.181-.178-.315-.439-.244-.696.061-.255.272-.428.448-.606l9.257-9.258a.702.702 0 0 1 .465-.222zm-.105.426c-3.195 3.15-6.349 6.345-9.531 9.51-.175.13-.228.397-.046.546 3.163 3.167 6.332 6.331 9.496 9.498a.343.343 0 0 0 .487.001c3.164-3.167 6.333-6.331 9.497-9.498a.324.324 0 0 0 .005-.492c-3.163-3.168-6.332-6.331-9.496-9.498a.338.338 0 0 0-.413-.066z"/>
    <path fill="#1a1919" d="M11.074 6.842c.108-.124.219-.245.334-.363.234.002.469-.001.705.003.001.067.004.134.01.202-.248.037-.568-.099-.751.124.256.278.026.617-.035.924.846-.004 1.692.013 2.537-.009l.057-.102c-.248-.078-.538-.1-.72-.304.536-.156 1.13-.119 1.687-.109-.09.264-.371.362-.62.405-.021.101-.134.213-.051.309.179.233.369.458.554.687.681-.38 1.6-.33 2.181.211.324.328.584.756.601 1.228.081.942-.705 1.884-1.659 1.924-.859.108-1.699-.516-1.928-1.334-.24.056-.539.026-.687.261.029.144.059.288.091.431.074.028.15.06.156.151a6.153 6.153 0 0 1-.428.019.322.322 0 0 1 .096-.172 3.51 3.51 0 0 0-.107-.415c-.19-.053-.226-.226-.26-.392-.585-.67-1.172-1.339-1.77-1.999l-.073.215c.36.349.698.791.702 1.315.062.824-.52 1.638-1.309 1.864-.417.091-.876.094-1.268-.094-.71-.326-1.175-1.141-1.048-1.922a1.915 1.915 0 0 1 1.138-1.428 2.003 2.003 0 0 1 1.513.076c.168-.48.352-.954.515-1.436-.056-.09-.108-.182-.161-.274zm.132 1.222c.003.083.022.161.087.217.548.6 1.072 1.221 1.628 1.814.002-.132-.069-.239-.143-.342.149.009.386-.09.407.132.172-.62.399-1.224.591-1.838-.857.008-1.716-.016-2.571.016zm2.153 2.33c.192-.017.383-.036.575-.06-.096-.588.193-1.15.593-1.561-.144-.189-.301-.369-.453-.551-.244.722-.477 1.447-.714 2.172zm1.61-1.508c.333.386.556.893.989 1.176-.013.093-.015.226-.128.254-.508.039-1.003.173-1.505.261.188.679.914 1.164 1.616 1.044.715-.064 1.294-.754 1.279-1.463.011-.419-.21-.81-.504-1.093-.468-.423-1.197-.462-1.746-.18zm-6.328.498c-.466.639-.225 1.604.428 2.017.613.417 1.55.272 1.976-.348.476-.571.374-1.461-.165-1.955-.134.389-.41.704-.716.969-.103.08-.122.269-.274.268-.147.012-.251-.172-.168-.292.42-.256.777-.658.897-1.143-.653-.385-1.59-.183-1.977.484zm5.633.876c.416-.061.83-.132 1.246-.202-.26-.341-.519-.682-.785-1.019-.356.299-.468.773-.461 1.22zM12.117 12.656c.469-.161.88.448.574.829-.199.304-.714.282-.892-.031-.197-.283-.027-.736.318-.799zM12.229 14.073c.134-.283.538-.369.803-.226.564.278 1.133.547 1.694.828.018.617.042 1.236.058 1.852-.131-.039-.286-.038-.397-.12-.083-.48-.14-.964-.212-1.446a9.487 9.487 0 0 0-.409-.048c.128.458.349.909.295 1.397-.007.146-.073.294-.031.439.333 1.057.676 2.113 1.004 3.171-.179.136-.348.286-.538.407-.401-.925-.8-1.852-1.203-2.776-.182.225-.46.399-.521.699-.183.665-.371 1.331-.561 1.994a37.396 37.396 0 0 1-.675-.194c.18-.745.354-1.491.541-2.234.209-.497.485-.966.702-1.459-.11-.293-.284-.562-.404-.852-.169.193-.222.514-.493.591-.365.139-.726.288-1.091.429a10.01 10.01 0 0 1-.205-.343c.391-.277.783-.551 1.17-.831.055-.457.231-.89.473-1.279z"/>
    <path fill="#f9cc5f" d="M12.587 2.495a.902.902 0 0 1 .876.251c3.171 3.176 6.35 6.345 9.518 9.524a.876.876 0 0 1-.005 1.244c-3.169 3.179-6.348 6.348-9.519 9.524-.333.36-.964.359-1.296-.001-3.172-3.176-6.35-6.346-9.519-9.525a.883.883 0 0 1 .02-1.27c3.162-3.167 6.33-6.329 9.493-9.496a.903.903 0 0 1 .431-.251zm.164.16a.702.702 0 0 0-.465.222l-9.257 9.258c-.177.178-.387.35-.448.606-.071.258.062.519.244.696l9.469 9.469a.719.719 0 0 0 1.034.001l9.258-9.258c.187-.188.414-.373.464-.649.051-.245-.078-.486-.248-.655l-9.468-9.469a.717.717 0 0 0-.582-.221z"/>
    <path fill="#f9cc5f" d="M12.646 3.081c.132-.081.309-.043.413.066 3.164 3.167 6.333 6.33 9.496 9.498a.325.325 0 0 1-.005.492c-3.164 3.167-6.333 6.331-9.497 9.498a.343.343 0 0 1-.487-.001c-3.164-3.167-6.333-6.331-9.496-9.498-.182-.149-.13-.418.046-.546 3.181-3.165 6.337-6.36 9.531-9.51zm-1.572 3.761c.054.091.106.183.161.274-.162.482-.347.956-.515 1.436a1.999 1.999 0 0 0-1.513-.076 1.92 1.92 0 0 0-1.138 1.428c-.128.78.337 1.595 1.048 1.922.391.188.852.185 1.268.094.789-.228 1.372-1.042 1.309-1.864-.004-.524-.342-.966-.702-1.315l.073-.215c.597.66 1.186 1.329 1.77 1.999.035.166.07.339.26.392.043.136.08.274.107.415a.322.322 0 0 0-.096.172c.143-.001.286-.009.428-.019-.007-.09-.083-.123-.156-.151a16.527 16.527 0 0 1-.091-.431c.15-.235.447-.206.687-.261.228.818 1.068 1.442 1.928 1.334.954-.039 1.74-.982 1.659-1.924-.017-.471-.277-.9-.601-1.228-.581-.541-1.5-.591-2.181-.211-.185-.228-.375-.453-.554-.687-.084-.096.03-.209.051-.309.25-.043.53-.141.62-.405-.557-.01-1.151-.047-1.687.109.182.204.473.228.72.304l-.057.102c-.845.022-1.692.004-2.537.009.06-.307.291-.645.035-.924.182-.223.503-.085.751-.124a2.704 2.704 0 0 1-.01-.202c-.235-.003-.469-.001-.705-.003a7.177 7.177 0 0 0-.334.363zm1.043 5.814c-.345.062-.515.516-.318.799.178.313.693.334.892.031.306-.38-.104-.991-.574-.829zm.112 1.417a3.127 3.127 0 0 0-.473 1.279c-.387.281-.78.555-1.17.831.066.115.134.229.205.343.365-.141.726-.29 1.091-.429.272-.078.324-.398.493-.591.119.291.294.56.404.852-.217.493-.492.962-.702 1.459-.188.742-.362 1.489-.541 2.234.224.067.449.131.675.194.19-.664.377-1.329.561-1.994.061-.3.339-.474.521-.699.403.924.803 1.85 1.203 2.776.189-.121.359-.271.538-.407-.328-1.058-.671-2.114-1.004-3.171-.041-.145.025-.293.031-.439.055-.487-.167-.939-.295-1.397.136.013.273.03.409.048.073.481.13.966.212 1.446.111.082.267.081.397.12-.015-.617-.04-1.235-.058-1.852-.563-.28-1.132-.549-1.694-.828-.265-.143-.668-.058-.803.226z"/>
    <path fill="#f9cc5f" d="M11.206 8.064c.856-.033 1.715-.009 2.571-.016-.191.614-.42 1.218-.591 1.838-.021-.222-.259-.123-.407-.132.074.102.145.21.143.342-.556-.593-1.08-1.214-1.628-1.814-.065-.056-.085-.134-.087-.217zM13.359 10.394c.237-.725.47-1.45.714-2.172.152.182.309.361.453.551-.4.411-.689.972-.593 1.561-.191.023-.383.042-.575.06zM14.969 8.886c.549-.281 1.279-.244 1.746.18.294.283.515.675.504 1.093.015.709-.564 1.398-1.279 1.463-.701.118-1.428-.366-1.616-1.044.501-.087.996-.222 1.505-.261.112-.029.114-.161.128-.254-.434-.283-.656-.79-.989-1.176zM8.641 9.384c.387-.666 1.324-.869 1.977-.484-.12.486-.475.887-.897 1.143-.082.12.021.303.168.292.152.001.171-.188.274-.268.306-.265.582-.58.716-.969.54.493.641 1.383.165 1.955-.424.619-1.362.764-1.976.348-.653-.413-.894-1.378-.428-2.017z"/>
    <path fill="#f9cc5f" d="M14.274 10.26c-.007-.446.105-.921.461-1.22.265.337.525.678.785 1.019-.415.069-.829.14-1.246.202z"/>
    <path fill="#8d8d8d" d="M12.611 23.436c.132-.007.264-.007.396.001 1.71.08 3.427-.002 5.139.04.077.012.154.027.23.043H7.253c.449-.107.916-.031 1.373-.053 1.328-.02 2.659.041 3.984-.032z"/>
</svg>
