<svg xmlns="http://www.w3.org/2000/svg" width="24" height="24">
    <path fill="#282828" opacity=".84" d="M11.674 1.333h.85c.156.121.306.252.454.382a1.587 1.587 0 0 0-1.708.004c.124-.138.26-.267.404-.387z"/>
    <path fill="#fff" d="M11.27 1.72a1.581 1.581 0 0 1 1.708-.004c.026.02.074.06.098.081.022.174.092.414.306.423l.022.186c-.004.189.142.329.283.433.07.132.143.264.217.396a.53.53 0 0 0 .31.452l.036.178c.009.189.143.333.296.428.064.14.131.281.19.424.039.176.14.327.286.433.071.127.143.256.216.383.01.196.11.37.283.466.02.037.057.111.076.149.011.196.116.37.29.463.06.137.124.273.18.411.04.178.149.331.307.424.06.14.124.279.182.42a.705.705 0 0 0 .291.43c.073.137.146.276.22.412.034.171.104.407.316.417l.022.191c-.006.193.148.331.298.426.063.143.13.284.189.429.039.176.14.329.29.43.069.131.14.262.211.391a.532.532 0 0 0 .311.451l.036.178c.009.188.143.332.296.427.064.142.13.281.189.424.039.176.14.329.287.433.07.131.142.26.213.39a.527.527 0 0 0 .311.451l.036.18c.009.188.143.332.296.427.063.14.13.281.189.424.039.174.14.327.286.433l.22.389a.573.573 0 0 0 .277.467l.213.399c.034.171.103.407.316.417.004.049.016.144.02.193-.004.191.149.33.3.424.063.143.13.284.188.429a.703.703 0 0 0 .292.43c.069.131.14.262.211.394a.53.53 0 0 0 .311.451l.036.174c.01.186.136.33.276.439.077.129.156.258.236.387.239.44.386.92.456 1.414-.2.364-.469.696-.828.913-7.454.06-14.913-.043-22.364.051a2.263 2.263 0 0 1-.894-.858c-.028-.54.156-1.051.412-1.517l.236-.393c.136-.109.281-.247.277-.436.004-.047.016-.143.022-.191.212-.01.281-.246.316-.417l.216-.403a.576.576 0 0 0 .277-.468l.216-.384a.735.735 0 0 0 .287-.433c.058-.143.124-.284.188-.426.153-.094.289-.237.298-.427l.036-.178a.534.534 0 0 0 .31-.452c.071-.13.143-.26.212-.389a.716.716 0 0 0 .289-.433c.06-.143.124-.284.188-.424.153-.094.289-.239.297-.427l.034-.178a.53.53 0 0 0 .311-.45c.071-.132.143-.263.212-.394a.714.714 0 0 0 .291-.43c.056-.138.119-.274.178-.41a.546.546 0 0 0 .291-.464l.096-.156c.177-.194.343-.409.399-.67l.052-.173a.54.54 0 0 0 .302-.457l.214-.389a.727.727 0 0 0 .287-.433c.06-.143.124-.283.188-.424.153-.094.287-.237.297-.427.01-.044.027-.133.036-.178a.532.532 0 0 0 .31-.452l.213-.389a.727.727 0 0 0 .287-.433c.057-.138.12-.273.18-.409a.545.545 0 0 0 .289-.466c.024-.036.07-.11.093-.147a1.55 1.55 0 0 0 .404-.694l.068-.16a.675.675 0 0 0 .3-.428c.056-.138.119-.274.178-.41a.545.545 0 0 0 .291-.464l.096-.156c.177-.194.343-.409.399-.671l.051-.169a.517.517 0 0 0 .292-.463c.144-.226.277-.46.456-.663zm.518.138c-.254.091-.397.338-.533.556C7.725 8.535 4.178 14.648.649 20.77c-.39.532 0 1.397.684 1.366 7.193.007 14.387.009 21.578-.001.683.03 1.07-.831.683-1.364-3.544-6.149-7.104-12.29-10.653-18.436-.196-.429-.704-.676-1.151-.477z"/>
    <path fill="#fff" d="M3.877 19.822c2.746-4.754 5.49-9.508 8.243-14.257 2.753 4.749 5.497 9.503 8.244 14.257H3.878zm8.886-9.36c-.396.111-.498.696-.164.934.309.273.857.044.877-.37.052-.377-.359-.697-.714-.564zm.464 1.312a76.718 76.718 0 0 0-1.953 1.916c-.2.149-.074.399-.054.599-.571-.142-1.262.07-.826.744-.569.84-.889 1.88-1.677 2.547.106.102.216.203.353.262.297-.696.696-1.34 1.08-1.99.603.49 1.211.972 1.809 1.469-.228.989.857.74 1.462.683.256 1.45 2.498 1.578 3 .227.597-1.223-.72-2.618-1.99-2.207.017.06.049.18.064.241.657-.133 1.424.111 1.69.772.397.814-.251 1.863-1.15 1.892-.604.076-1.057-.382-1.42-.794.473-.35 1.25.076 1.582-.48-.547-.69-.947-1.476-1.407-2.222.068-.107.137-.212.206-.317.207-.087.452-.187.514-.43a8.757 8.757 0 0 0-1.037.06c.227-.153.57-.191.713-.444-.007-.756-.111-1.511-.183-2.264-.013-.356-.551-.564-.773-.262zm-5.833 5.802c-.058 1.14 1.297 2 2.304 1.454 1.023-.45 1.213-1.953.36-2.667-.151.401.297.692.284 1.089.136.977-.994 1.804-1.883 1.364-.917-.351-1.1-1.731-.294-2.3.406-.387 1.004-.166 1.468-.403-1-.492-2.286.353-2.24 1.46z"/>
    <path fill="#fff" d="M11.41 14.471c.474-.431.963-.847 1.439-1.276l.284.748c-.513.453-1.849.557-1.524 1.46-.4-.003-.799-.001-1.199-.003.07-.127.142-.252.213-.378a29.828 29.828 0 0 1-.216-.534c.334-.014.669-.017 1.004-.017zM12.216 15.284c.364-.199.75-.353 1.129-.519.154.096.324.163.479.256-.079.126-.156.253-.234.38-.458-.012-.938.064-1.373-.117zM10.193 15.611c.516-.036 1.033-.023 1.549-.022.268.588.527 1.18.841 1.747-.949-.316-1.613-1.13-2.39-1.724zM12.477 15.589h.996c-.183.316-.369.629-.556.943a61.66 61.66 0 0 1-.441-.943zM12.911 17.329c.117-.618.412-1.17.764-1.684.347.569.694 1.136 1.036 1.707-.372-.023-.743-.049-1.116-.064.126-.266.269-.521.423-.772-.047-.037-.14-.116-.188-.154-.313.349-.289 1.029-.919.969z"/>
    <path fill="#d40000" d="M11.788 1.858c.447-.197.956.049 1.151.477 3.549 6.147 7.109 12.287 10.653 18.436.388.532 0 1.394-.683 1.364-7.191.01-14.386.009-21.578.001-.684.031-1.074-.834-.684-1.366C4.176 14.647 7.723 8.534 11.253 2.414c.136-.218.279-.466.533-.556zM3.877 19.822h16.486c-2.747-4.754-5.491-9.508-8.244-14.257-2.753 4.749-5.497 9.503-8.243 14.257z"/>
    <path fill="#353535" opacity=".88" d="M13.076 1.796c.159.084.316.227.306.423-.213-.009-.284-.249-.306-.423z"/>
    <path fill="#2c2c2c" opacity=".86" d="M10.523 2.846a.48.48 0 0 1 .292-.463.518.518 0 0 1-.292.463z"/>
    <path fill="#2a2a2a" opacity=".85" d="M13.404 2.404c.222.001.289.252.283.433-.14-.104-.287-.244-.283-.433zM9.209 5.143c-.011-.186.07-.441.3-.428a.675.675 0 0 1-.3.428z"/>
    <path fill="#2d2d2d" opacity=".84" d="M10.073 3.686c-.006-.279.081-.613.399-.671-.056.263-.222.477-.399.671z"/>
    <path fill="#2f2f2f" opacity=".87" d="M13.903 3.234a.472.472 0 0 1 .31.452.53.53 0 0 1-.31-.452z"/>
    <path fill="#252525" opacity=".84" d="M9.686 4.306a.46.46 0 0 1 .291-.464.545.545 0 0 1-.291.464z"/>
    <path fill="#232323" opacity=".83" d="M14.249 3.864c.222 0 .294.246.296.428-.153-.094-.287-.239-.296-.428z"/>
    <path fill="#292929" opacity=".85" d="M14.734 4.716c.231-.014.31.246.286.433a.722.722 0 0 1-.286-.433z"/>
    <path fill="#2b2b2b" opacity=".82" d="M8.737 5.997c-.033-.302.111-.586.404-.694-.071.264-.21.502-.404.694z"/>
    <path fill="#2e2e2e" opacity=".87" d="M15.236 5.532a.442.442 0 0 1 .283.466.556.556 0 0 1-.283-.466z"/>
    <path fill="#242424" opacity=".83" d="M8.356 6.61a.46.46 0 0 1 .289-.466.548.548 0 0 1-.289.466z"/>
    <path fill="#222" opacity=".82" d="M15.594 6.147a.448.448 0 0 1 .29.463.556.556 0 0 1-.29-.463z"/>
    <path fill="#282828" opacity=".85" d="M7.887 7.451c-.024-.187.056-.447.287-.433a.727.727 0 0 1-.287.433z"/>
    <path fill="#272727" opacity=".84" d="M16.064 7.02c.228-.012.313.237.307.424a.659.659 0 0 1-.307-.424z"/>
    <path fill="#2e2e2e" opacity=".86" d="M7.364 8.292a.47.47 0 0 1 .31-.452.532.532 0 0 1-.31.452z"/>
    <path fill="#2c2c2c" opacity=".86" d="M16.553 7.866c.23-.014.311.244.291.43a.705.705 0 0 1-.291-.43z"/>
    <path fill="#222" opacity=".82" d="M7.03 8.897c.001-.18.076-.427.297-.427-.01.189-.144.332-.297.427z"/>
    <path fill="#323232" opacity=".87" d="M17.063 8.708c.164.076.327.217.316.417-.211-.01-.281-.246-.316-.417z"/>
    <path fill="#282828" opacity=".84" d="M6.556 9.754c-.024-.187.056-.447.287-.433a.727.727 0 0 1-.287.433z"/>
    <path fill="#252525" opacity=".83" d="M17.4 9.316c.218.004.29.246.298.426-.15-.094-.304-.233-.298-.426z"/>
    <path fill="#2d2d2d" opacity=".85" d="M6.039 10.6a.461.461 0 0 1 .302-.457.536.536 0 0 1-.302.457z"/>
    <path fill="#2a2a2a" opacity=".85" d="M17.887 10.171c.23-.014.31.244.29.43a.701.701 0 0 1-.29-.43z"/>
    <path d="M12.763 10.462c.356-.132.766.188.714.564-.02.413-.569.643-.877.37-.334-.239-.231-.823.164-.934zM13.227 11.774c.222-.303.76-.094.773.262.071.753.176 1.508.183 2.264-.143.253-.486.292-.713.444a8.364 8.364 0 0 1 1.037-.06c-.062.244-.307.343-.514.43l-.206.317c.46.746.86 1.532 1.407 2.222-.332.556-1.109.13-1.582.48.363.412.816.87 1.42.794.9-.029 1.548-1.077 1.15-1.892-.266-.66-1.033-.906-1.69-.772l-.064-.241c1.27-.411 2.588.984 1.99 2.207-.502 1.351-2.744 1.223-3-.227-.604.057-1.69.307-1.462-.683-.597-.497-1.206-.98-1.809-1.469-.384.651-.783 1.294-1.08 1.99a1.244 1.244 0 0 1-.353-.262c.789-.667 1.109-1.707 1.677-2.547-.436-.674.254-.886.826-.744-.02-.2-.146-.45.054-.599.64-.65 1.29-1.291 1.953-1.916zm-1.817 2.697c-.334 0-.669.003-1.004.017.07.178.142.356.216.534-.071.126-.143.251-.213.378.4.001.799 0 1.199.003-.324-.903 1.012-1.007 1.524-1.46l-.284-.748c-.476.429-.964.844-1.439 1.276zm.806.813c.436.182.916.106 1.373.117.077-.127.156-.254.234-.38-.156-.093-.324-.16-.479-.256-.378.166-.764.32-1.129.519zm-2.023.327c.777.596 1.441 1.41 2.39 1.724-.314-.566-.573-1.159-.841-1.747-.516-.001-1.034-.013-1.549.022zm2.284-.022c.144.316.291.629.441.943.187-.314.372-.628.556-.943h-.996zm.434 1.74c.63.06.606-.62.919-.969.047.039.14.116.188.154a8.263 8.263 0 0 0-.423.772c.373.016.744.041 1.116.064-.342-.571-.69-1.138-1.036-1.707-.351.516-.646 1.067-.764 1.684z"/>
    <path d="M7.394 17.576c-.046-1.108 1.24-1.953 2.24-1.46-.463.236-1.062.016-1.468.403-.804.569-.623 1.948.294 2.3.889.439 2.018-.388 1.883-1.364.012-.396-.436-.687-.284-1.089.853.714.663 2.217-.36 2.667-1.007.546-2.363-.314-2.304-1.454z"/>
    <path fill="#2e2e2e" opacity=".83" d="M5.588 11.444c-.006-.279.081-.613.399-.67-.056.262-.222.476-.399.67z"/>
    <path fill="#313131" opacity=".87" d="M18.388 10.993a.467.467 0 0 1 .311.451.533.533 0 0 1-.311-.451z"/>
    <path fill="#262626" opacity=".84" d="M5.201 12.063a.46.46 0 0 1 .291-.464.548.548 0 0 1-.291.464z"/>
    <path fill="#252525" opacity=".82" d="M18.734 11.622c.22 0 .294.246.296.427-.153-.094-.287-.239-.296-.427z"/>
    <path fill="#2b2b2b" opacity=".85" d="M4.732 12.903c-.02-.187.06-.444.291-.43a.714.714 0 0 1-.291.43z"/>
    <path fill="#2a2a2a" opacity=".84" d="M19.22 12.473c.23-.013.31.246.287.433a.713.713 0 0 1-.287-.433z"/>
    <path fill="#313131" opacity=".87" d="M4.209 13.747a.47.47 0 0 1 .311-.45.53.53 0 0 1-.311.45z"/>
    <path fill="#303030" opacity=".86" d="M19.72 13.296a.473.473 0 0 1 .311.451.526.526 0 0 1-.311-.451z"/>
    <path fill="#252525" opacity=".82" d="M3.877 14.351c.003-.182.076-.427.297-.427-.009.188-.144.332-.297.427z"/>
    <path fill="#232323" opacity=".82" d="M20.067 13.926c.222-.001.294.244.296.427-.153-.094-.287-.239-.296-.427z"/>
    <path fill="#2a2a2a" opacity=".84" d="M3.401 15.209c-.023-.187.057-.446.289-.433a.712.712 0 0 1-.289.433z"/>
    <path fill="#292929" opacity=".84" d="M20.551 14.777c.231-.016.311.244.286.433a.729.729 0 0 1-.286-.433zM2.07 17.513c-.026-.187.054-.447.287-.433a.743.743 0 0 1-.287.433z"/>
    <path fill="#2f2f2f" opacity=".86" d="M2.879 16.05a.47.47 0 0 1 .31-.452.532.532 0 0 1-.31.452z"/>
    <path fill="#2e2e2e" opacity=".85" d="M21.057 15.599c.196.07.304.262.277.467a.568.568 0 0 1-.277-.467zM1.577 18.364a.431.431 0 0 1 .277-.468.578.578 0 0 1-.277.468z"/>
    <path fill="#232323" opacity=".82" d="M2.546 16.654c.003-.18.076-.427.298-.427-.01.189-.146.332-.298.427z"/>
    <path fill="#333" opacity=".87" d="M21.548 16.464c.164.076.327.218.316.417-.212-.01-.281-.246-.316-.417zM1.046 19.184c-.012-.199.15-.34.316-.417-.034.171-.103.407-.316.417z"/>
    <path fill="#272727" opacity=".83" d="M21.884 17.074c.22.003.291.244.3.424-.15-.094-.304-.233-.3-.424zM.747 19.812c-.012-.182.053-.436.277-.436.004.189-.142.327-.277.436z"/>
    <path fill="#2c2c2c" opacity=".85" d="M22.371 17.927c.23-.014.311.244.292.43a.703.703 0 0 1-.292-.43z"/>
    <path fill="#323232" opacity=".87" d="M22.874 18.751a.467.467 0 0 1 .311.451.532.532 0 0 1-.311-.451z"/>
    <path fill="#262626" opacity=".82" d="M23.22 19.377c.226 0 .294.256.276.439-.14-.109-.266-.253-.276-.439z"/>
    <path fill="#1e1e1e" opacity=".79" d="M0 20.9c.156-.243.336-.468.511-.696-.257.467-.44.978-.412 1.517l-.1-.156v-.666z"/>
    <path fill="#1d1d1d" opacity=".78" d="M23.731 20.203c.178.236.356.47.511.721v.916l-.056-.222a4.18 4.18 0 0 0-.456-1.414z"/>
    <path fill="#111" opacity=".94" d="M.994 22.58c7.452-.093 14.91.009 22.364-.051l-.197.137H.797l.197-.086z"/>
</svg>
