<svg xmlns="http://www.w3.org/2000/svg" width="24" height="24">
    <path fill="#bfa017" opacity=".75" d="M11.796 0h.418c.319.202.594.462.857.731 3.626 3.667 7.342 7.25 10.93 10.952v.559c-3.704 3.847-7.568 7.548-11.329 11.344a.83.83 0 0 1-1.315-.016C7.587 19.762 3.731 16.036.001 12.192v-.404c.311-.486.754-.864 1.156-1.271 3.006-2.995 6.01-5.992 9.017-8.986.53-.521 1.031-1.078 1.624-1.531zm.126.277c-.163.064-.292.188-.418.305-3.66 3.661-7.337 7.307-11 10.966-.271.209-.312.595-.028.814C4.179 16.06 7.9 19.74 11.606 23.436a.516.516 0 0 0 .817.024c3.709-3.69 7.414-7.386 11.123-11.078.263-.194.295-.589.035-.803C19.904 7.896 16.199 4.241 12.516.564c-.167-.139-.352-.354-.594-.286z"/>
    <path d="M11.922.277c.242-.068.427.146.594.286 3.683 3.677 7.388 7.332 11.065 11.015.26.214.228.608-.035.803-3.709 3.692-7.414 7.388-11.123 11.078a.516.516 0 0 1-.817-.024C7.9 19.739 4.179 16.06.476 12.361c-.284-.218-.244-.605.028-.814 3.664-3.659 7.34-7.304 11-10.966.126-.116.254-.241.418-.305zM.564 11.974c3.816 3.803 7.627 7.61 11.453 11.402 3.842-3.78 7.646-7.6 11.465-11.405A1298.595 1298.595 0 0 0 12.018.557C8.192 4.355 4.357 8.145.564 11.974z"/>
    <path d="M9.539 4.627c.271-.403.838-.095 1.232-.084-.203.374-.635.218-.976.22.247.244.422.545.476.892.978-.004 1.956.011 2.933 0 .192.026.334-.098.469-.212-.265-.155-.536-.299-.802-.452a11.349 11.349 0 0 1 1.72-.017c-.2.265-.456.479-.733.66.179.323.36.644.544.965 1.028-.374 2.292.148 2.612 1.223.424 1.159-.539 2.524-1.771 2.516-1.031.071-1.898-.793-2.032-1.781-.31-.036-.668.022-.918-.206-.808-.65-1.574-1.352-2.401-1.979-.096.467.529.553.707.911.802 1.019.209 2.676-1.04 2.984-1.224.402-2.605-.713-2.46-1.993.049-1.19 1.314-2.032 2.447-1.744.122-.332.272-.659.337-1.008-.04-.328-.568-.53-.344-.894zm.482 1.36c.805.733 1.651 1.42 2.48 2.125.296-.71.59-1.421.882-2.134-1.121.001-2.242-.014-3.362.008zm3.687.067c-.302.713-.601 1.427-.896 2.142l.404.005a2.459 2.459 0 0 1 .902-1.439 72.04 72.04 0 0 1-.41-.708zM7.501 8.567c.064 1.193 1.679 1.814 2.537.992.835-.677.607-2.068-.324-2.546-.314.499-.226 1.458-.893 1.583.139-.583.38-1.133.583-1.694-.992-.209-2.036.626-1.903 1.666zm7.125-1.611c.275.515.617.996.805 1.553-.606.042-1.213.02-1.82.034.139.809.88 1.506 1.73 1.384 1.026-.071 1.709-1.318 1.193-2.216-.337-.704-1.192-.938-1.908-.754zM13.62 8.185c.445.008.89.008 1.337.005-.212-.361-.428-.72-.654-1.073-.31.298-.545.661-.683 1.068z"/>
    <path d="M11.688 10.483c.516-.39 1.129.498.536.798-.499.331-1.073-.467-.536-.798z"/>
    <path d="M7.499 10.886l.216.349.272.078.1-.446c.083.161.166.323.247.485.758-.013 1.331.512 1.813 1.031.65-.632 1.604-.853 2.485-.917.284-.028.304.331.35.53.088.593.294 1.192.164 1.794.62-.024 1.331-.041 1.83.389.48.419.449 1.115.784 1.622.485.839 1.087 1.794.804 2.802-.774-.792-1.476-1.639-1.817-2.712-.16.286-.616.637-.301.97.432.418.478 1.033.746 1.543.13.263.3.584-.025.782.035.128.07.257.103.388-.282.014-.564.026-.846.036.353-.556.611-1.302.064-1.836-.726.118-.808 1.142-.829 1.754-.359-.152-.644-.509-.578-.914.178-.419.629-.661.772-1.094-.17-.396-.479-.712-.692-1.084a59.26 59.26 0 0 1-.506-.2c-.804.329-1.686.384-2.506.073-.089.946.031 1.918.431 2.785-.192.08-.377.178-.389.413-.254 0-.508-.004-.762-.01.287-.301.744-.65.538-1.127-.27-.662-.468-1.357-.815-1.986-.467.295-1.205 0-1.489.565.356.335.551.794.6 1.278-1.087-.043-1.396-1.934-.371-2.303.924-.761.304-2.095.344-3.104-.396.103-.778.263-1.087.538-.134-.133-.44-.262-.308-.496.289-.636.355-1.345.659-1.976zm2.727 1.667c.167.269.317.548.473.824.378-.058.755-.119 1.132-.18l-.199-1.051c-.454.18-.898.451-1.405.407z"/>
    <path fill="#ffd520" d="M.564 11.974C4.357 8.145 8.192 4.355 12.018.557a1340.97 1340.97 0 0 1 11.464 11.414c-3.818 3.805-7.622 7.625-11.465 11.405-3.826-3.792-7.637-7.6-11.453-11.402zm8.975-7.347c-.223.364.305.566.344.894-.065.349-.215.676-.337 1.008-1.133-.288-2.398.553-2.447 1.744-.145 1.28 1.236 2.395 2.46 1.993 1.249-.308 1.842-1.966 1.04-2.984-.178-.358-.803-.444-.707-.911.827.626 1.594 1.328 2.401 1.979.25.228.608.17.918.206.133.988 1.001 1.852 2.032 1.781 1.232.007 2.195-1.357 1.771-2.516-.32-1.075-1.584-1.597-2.612-1.223-.184-.32-.365-.642-.544-.965.277-.181.533-.395.733-.66a11.35 11.35 0 0 0-1.72.017c.265.154.536.298.802.452-.136.114-.277.239-.469.212-.977.011-1.955-.004-2.933 0a1.599 1.599 0 0 0-.476-.892c.341-.001.773.155.976-.22-.395-.011-.961-.319-1.232.084zm2.149 5.856c-.536.331.037 1.129.536.798.593-.3-.02-1.188-.536-.798zm-4.189.403c-.304.631-.37 1.34-.659 1.976-.132.234.174.362.308.496.31-.275.691-.434 1.087-.538-.041 1.009.58 2.344-.344 3.104-1.025.368-.716 2.26.371 2.303-.049-.484-.244-.943-.6-1.278.284-.565 1.022-.27 1.489-.565.347.629.545 1.324.815 1.986.206.476-.251.826-.538 1.127.254.006.508.01.762.01.012-.235.197-.332.389-.413-.4-.868-.52-1.84-.431-2.785.82.311 1.702.256 2.506-.073.168.067.336.134.506.2.214.372.522.688.692 1.084-.143.433-.594.676-.772 1.094-.066.406.22.762.578.914.022-.612.103-1.637.829-1.754.547.534.289 1.28-.064 1.836.282-.01.564-.022.846-.036a36.304 36.304 0 0 0-.103-.388c.325-.198.155-.52.025-.782-.269-.51-.314-1.126-.746-1.543-.314-.332.142-.684.301-.97.341 1.073 1.043 1.92 1.817 2.712.283-1.008-.319-1.963-.804-2.802-.335-.508-.304-1.204-.784-1.622-.499-.43-1.21-.413-1.83-.389.13-.602-.077-1.201-.164-1.794-.047-.199-.066-.558-.35-.53-.881.064-1.835.284-2.485.917-.482-.518-1.055-1.044-1.813-1.031l-.247-.485c-.024.112-.074.335-.1.446l-.272-.078-.216-.349z"/>
    <path fill="#ffd520" d="M10.021 5.987c1.121-.023 2.242-.007 3.362-.008a398.44 398.44 0 0 1-.882 2.134c-.829-.706-1.675-1.392-2.48-2.125zM13.708 6.054c.136.236.272.473.41.708a2.446 2.446 0 0 0-.902 1.439l-.404-.005c.295-.715.594-1.429.896-2.142zM7.501 8.567c-.133-1.039.911-1.874 1.903-1.666-.203.562-.444 1.111-.583 1.694.667-.125.578-1.084.893-1.583.931.479 1.159 1.87.324 2.546-.858.822-2.473.2-2.537-.992zM14.626 6.956c.716-.185 1.571.049 1.908.754.516.899-.167 2.146-1.193 2.216-.851.122-1.591-.575-1.73-1.384.607-.013 1.214.008 1.82-.034-.188-.557-.53-1.038-.805-1.553z"/>
    <path fill="#ffd520" d="M13.62 8.185c.138-.407.373-.77.683-1.068.226.353.442.712.654 1.073-.446.004-.892.004-1.337-.005zM10.226 12.553c.508.044.952-.227 1.405-.407l.199 1.051c-.377.061-.754.122-1.132.18-.156-.276-.306-.556-.473-.824z"/>
</svg>
