<svg xmlns="http://www.w3.org/2000/svg" width="24" height="24">
    <path fill="#dcb71b" opacity=".86" d="M11.804 0h.418c.254.139.494.306.702.51 3.174 3.187 6.359 6.365 9.539 9.547.524.532 1.084 1.033 1.537 1.63v.601c-.304.505-.762.886-1.17 1.301-2.982 2.98-5.959 5.962-8.94 8.941-.506.5-.985 1.034-1.552 1.47h-.614c-.502-.314-.883-.773-1.301-1.183l-8.999-9.002C.936 13.321.408 12.856 0 12.287v-.469c.271-.559.768-.949 1.192-1.386 3.3-3.301 6.604-6.599 9.899-9.905.21-.21.451-.386.714-.527zm-.11.304C7.938 3.896 4.328 7.654.62 11.302c-.365.284-.565.858-.181 1.214 3.648 3.673 7.318 7.328 10.975 10.992a.778.778 0 0 0 1.187.012c3.64-3.638 7.279-7.279 10.918-10.92.408-.332.324-.944-.066-1.253C19.849 7.751 16.251 4.148 12.648.549c-.235-.257-.623-.438-.954-.246z"/>
    <path d="M11.694.304c.331-.192.719-.011.954.246 3.602 3.599 7.201 7.201 10.805 10.798.39.308.474.92.066 1.253-3.638 3.641-7.278 7.282-10.918 10.92a.778.778 0 0 1-1.187-.012C7.756 19.845 4.087 16.19.439 12.517c-.384-.356-.184-.93.181-1.214C4.328 7.655 7.938 3.897 11.694.305zm.114.332C8.1 4.247 4.475 7.954.802 11.603c-.526.392.028.871.352 1.165 3.508 3.492 6.998 7.002 10.504 10.498.208.283.574.215.764-.046 3.613-3.626 7.241-7.24 10.854-10.865.292-.209.178-.575-.066-.767C19.633 8.006 16.05 4.429 12.474.846c-.172-.166-.426-.4-.665-.21z"/>
    <path d="M13.633 9.846c.811-1.309 1.786-2.52 2.665-3.786.852 1.178 1.715 2.35 2.554 3.538.204.208.146.617-.17.665-.478-.029-.929-.22-1.392-.331-.004 2.351-.001 4.702-.004 7.052h-2c-.001-1.217 0-2.434.002-3.65a10.346 10.346 0 0 1-1.747 2.196c-.228-.216-.456-.43-.685-.644 1.301-1.3 2.602-3.008 2.431-4.945-.509.044-1.529.742-1.654-.094zM3.17 10.78c2.003-.301 4.049-.065 6.07-.139 1.081.03 2.171-.078 3.245.082-.083.877.124 1.75.058 2.629-.406 0-.811 0-1.217.002-.029-.434-.238-.988-.766-.95-.524-.017-.709.542-.728.971-1.2.005-2.399 0-3.599.002a14.31 14.31 0 0 0-.152-.769c-.101.347.046.872-.392 1.013-.474.209-.976-.391-.688-.821.202-.365.661-.184.992-.281-.646-.358-1.328.154-1.243.862-.682-.007-1.363-.002-2.045-.005-.197-.929.335-1.715.466-2.596zm.093 1c.738.096 1.937.41 2.185-.577-.737.079-1.951-.431-2.185.577zm2.486-.601c-.118.215-.229.433-.338.653.769-.04 1.961.404 2.202-.631-.62-.038-1.243-.025-1.864-.022zm1.966.005c-.005.224-.007.449-.006.673.286.005.571.006.858.005.002-.228.002-.455 0-.682a34.546 34.546 0 0 0-.852.004zm1.299-.001a17.5 17.5 0 0 0-.312.667c.612.02 1.224.018 1.836.007.115-.22.226-.442.332-.665a32.82 32.82 0 0 0-1.856-.01zm2.524.105l.001.896.86-.001c-.037-.299-.076-.596-.114-.895a93.25 93.25 0 0 0-.748 0zm-.19.987c.02-.332.024-.666.016-1-.286.311-.605.817-.016 1z"/>
    <path d="M10.252 12.63c.316-.254.836-.036.892.36.09.409-.361.792-.75.634-.419-.126-.511-.755-.142-.994z"/>
    <path fill="#ffd520" d="M11.808.636c.239-.19.493.044.665.21 3.576 3.583 7.159 7.16 10.736 10.742.244.192.358.558.066.767-3.613 3.625-7.241 7.238-10.854 10.865-.191.26-.557.329-.764.046C8.152 19.77 4.661 16.26 1.153 12.768c-.324-.294-.877-.773-.352-1.165C4.474 7.954 8.099 4.247 11.807.636zm1.825 9.21c.125.835 1.145.138 1.654.094.17 1.937-1.13 3.646-2.431 4.945.229.215.457.428.685.644a10.315 10.315 0 0 0 1.747-2.196c-.002 1.217-.004 2.434-.002 3.65h2c.002-2.351 0-4.702.004-7.052.463.112.914.302 1.392.331.317-.048.374-.457.17-.665-.839-1.188-1.702-2.359-2.554-3.538-.88 1.266-1.854 2.477-2.665 3.786zM3.17 10.78c-.131.881-.662 1.667-.466 2.596.682.002 1.363-.002 2.045.005-.085-.708.598-1.219 1.243-.862-.331.097-.791-.084-.992.281-.288.43.214 1.03.688.821.438-.14.292-.666.392-1.013.059.254.108.512.152.769 1.2-.002 2.399.002 3.599-.002.019-.428.204-.988.728-.971.528-.037.737.516.766.95.406-.002.811-.002 1.217-.002.066-.88-.14-1.752-.058-2.629-1.074-.16-2.164-.052-3.245-.082-2.021.074-4.067-.162-6.07.139zm7.082 1.85c-.37.239-.277.868.142.994.389.158.84-.224.75-.634-.055-.396-.576-.614-.892-.36z"/>
    <path fill="#ffd520" d="M3.263 11.78c.234-1.008 1.448-.498 2.185-.577-.248.988-1.447.673-2.185.577zM5.749 11.179c.62-.004 1.243-.017 1.864.022-.241 1.036-1.433.592-2.202.631.109-.22.221-.438.338-.653zM7.715 11.184c.283-.005.568-.006.852-.004.002.227.002.454 0 .682-.287.001-.572 0-.858-.005-.001-.224.001-.449.006-.673zM9.014 11.183a31.046 31.046 0 0 1 1.856.01c-.107.223-.217.445-.332.665-.612.011-1.224.013-1.836-.007a17.5 17.5 0 0 1 .312-.667zM11.538 11.288h.748c.038.299.077.596.114.895l-.86.001-.001-.896zM11.348 12.275c-.589-.182-.27-.689.016-1 .008.334.005.667-.016 1z"/>
</svg>
