<svg xmlns="http://www.w3.org/2000/svg" width="24" height="24">
    <path fill="#c31926" d="M11.606 1.714h.547c.48.129.855.477 1.075.915 3.501 6.015 7.105 11.974 10.555 18.018v.553c-.16.513-.559.908-1.063 1.084H1.095a1.676 1.676 0 0 1-1.094-1.051v-.577C3.425 14.629 7.026 8.698 10.51 2.704c.227-.458.593-.845 1.096-.992zm.086 1.348C8.179 9.042 4.636 15.006 1.157 21.005c.35.144.734.083 1.102.093h19.263c.366-.01.75.056 1.097-.095-3.464-5.973-6.997-11.907-10.486-17.864-.061-.216-.35-.35-.441-.077z"/>
    <path fill="#fff" d="M11.692 3.062c.092-.273.381-.139.441.077 3.49 5.957 7.023 11.891 10.486 17.864-.347.151-.731.085-1.097.095H2.259c-.369-.009-.753.051-1.102-.093C4.636 15.006 8.18 9.042 11.692 3.062zM8.175 13.109c-.15.387-.3.774-.447 1.161 3.375 1.278 6.737 2.589 10.113 3.866-.079.202-.154.405-.232.608.82-.126 1.634-.294 2.452-.432-.509-.655-1.018-1.311-1.535-1.959-.076.202-.153.405-.228.608-3.377-1.277-6.734-2.61-10.123-3.853zm-1.963 1.897c-1.092 1.898-2.168 3.804-3.255 5.703 5.969-.003 11.938 0 17.907-.001a2739.02 2739.02 0 0 0-14.652-5.702z"/>
    <path d="M8.175 13.109c3.389 1.243 6.746 2.576 10.123 3.853.075-.203.153-.405.228-.608a183.83 183.83 0 0 1 1.535 1.959c-.818.138-1.631.306-2.452.432.077-.203.153-.405.232-.608-3.376-1.277-6.739-2.588-10.113-3.866.147-.387.297-.774.447-1.161zM6.212 15.006c4.89 1.887 9.774 3.786 14.652 5.702-5.969.001-11.938-.001-17.907.001 1.088-1.899 2.164-3.805 3.255-5.703z"/>
</svg>
