<svg xmlns="http://www.w3.org/2000/svg" width="24" height="24">
    <path fill="#ea1c03" d="M11.774 1.333h.756c.31.257.567.573.757.929 3.524 6.419 7.356 12.668 10.803 19.129v.695c-.216.179-.402.461-.717.438-1.917.084-3.838.065-5.756.142H.723a35.68 35.68 0 0 1-.724-.874v-.097c1.248-2.493 2.716-4.865 4.068-7.3 1.938-3.668 4.075-7.223 6.189-10.788.488-.771.89-1.605 1.516-2.276zM2.835 20.618c6.21.004 12.421.006 18.633 0a1205.467 1205.467 0 0 1-9.317-16.302 1050.388 1050.388 0 0 0-9.316 16.302z"/>
    <path fill="#fff" d="M2.835 20.618a1046.907 1046.907 0 0 1 9.316-16.302c3.06 5.458 6.172 10.89 9.317 16.302-6.212.006-12.423.004-18.633 0zm8.589-11.639c-1.95 3.303-3.808 6.663-5.757 9.967 1.878.004 3.756 0 5.632.002.03-1.317-.071-2.644.05-3.956.14-.812 1.422-.817 1.596-.021.099 1.322.014 2.654.042 3.98 1.844-.004 3.691-.003 5.535-.002-1.872-3.225-3.743-6.452-5.505-9.736-.228-.67-1.23-.922-1.594-.234z"/>
    <path fill="#030303" d="M11.424 8.979c.363-.688 1.365-.436 1.594.234 1.762 3.284 3.633 6.512 5.505 9.736a1458.87 1458.87 0 0 0-5.535.002c-.028-1.326.057-2.659-.042-3.98-.174-.796-1.457-.789-1.596.021-.121 1.312-.019 2.638-.05 3.956-1.876-.002-3.755.003-5.632-.002 1.949-3.305 3.806-6.664 5.757-9.967z"/>
</svg>
