<svg xmlns="http://www.w3.org/2000/svg" width="24" height="24">
    <path fill="#f6d300" opacity=".96" d="M11.708 0h.539c.263.118.514.264.72.468 3.278 3.282 6.56 6.563 9.841 9.842.442.454.973.86 1.192 1.48v.336c-.103.305-.25.6-.484.828-3.5 3.5-7.004 7-10.5 10.504a2.299 2.299 0 0 1-.859.542h-.329c-.646-.191-1.055-.745-1.517-1.193-3.262-3.259-6.518-6.524-9.784-9.78a2.74 2.74 0 0 1-.528-.751v-.542c.224-.599.749-.99 1.178-1.435 3.26-3.26 6.524-6.518 9.78-9.784.216-.217.473-.386.75-.515zm-.133.421C7.889 3.965 4.328 7.653.685 11.247c-.426.33-.547 1.001-.12 1.384 3.574 3.589 7.162 7.164 10.741 10.747a.903.903 0 0 0 1.374-.011c3.562-3.563 7.126-7.123 10.686-10.687.414-.346.408-1.012-.004-1.357C19.8 7.76 16.236 4.2 12.675.637c-.27-.301-.74-.444-1.1-.216z"/>
    <path d="M11.575.421c.36-.228.83-.085 1.1.216C16.237 4.2 19.801 7.76 23.362 11.323c.412.346.418 1.012.004 1.357-3.56 3.564-7.124 7.124-10.686 10.687a.903.903 0 0 1-1.374.011C7.726 19.795 4.138 16.22.565 12.631c-.427-.383-.306-1.054.12-1.384C4.328 7.653 7.889 3.964 11.575.421zm.339.329c-.17.05-.292.19-.42.304C7.98 4.583 4.448 8.096.933 11.625c-.252.193-.238.553.01.745 3.562 3.564 7.122 7.13 10.69 10.687.191.244.541.221.728-.014 3.564-3.559 7.127-7.121 10.685-10.686a.454.454 0 0 0 .007-.721c-3.534-3.55-7.085-7.082-10.621-10.63-.143-.127-.305-.302-.517-.256z"/>
    <path d="M3.82 9.206c1.258.034 2.566-.16 3.79.108.311.709.414 1.492.642 2.231.13.619.443 1.247.283 1.89-.19.778-.05 1.584-.124 2.374-.296.01-.593.014-.889.014-.034-.53-.025-1.062-.03-1.592-1.222-.032-2.443-.006-3.665-.016v-2.782c1.357-.098 2.718-.052 4.076-.044a26.211 26.211 0 0 0-.467-1.916c-1.2-.061-2.402-.041-3.604-.023l-.013-.244zM14.923 9.282c1.295-.205 2.634-.055 3.943-.017l.004.244c-1.277-.043-2.557-.108-3.834-.028-.199.824-.409 1.649-.545 2.486 1.459-.034 2.92-.055 4.378.028l-.002.565c-1 0-1.999-.001-2.998.001l-.001.932c.997.002 1.996.004 2.993 0 .007.397.008.796.008 1.193-1.264.004-2.528-.001-3.793.002-.004.379-.007.758-.035 1.135-.324 0-.648-.004-.972-.018-.068-.755.066-1.528-.114-2.272-.233-.764.253-1.486.362-2.23.223-.661.233-1.445.606-2.023zm-.497 3.335c-.863.628.721 1.333 1.034.558.176-.598-.628-.745-1.034-.558zM9.318 10.613c-.527-.692.359-1.154.928-1.31.422.356.409.902.349 1.404-.424-.059-.848-.128-1.277-.094z"/>
    <path d="M15.788 9.466c.223.208.444.418.666.628l.394-.599c.007.217.014.434.023.65.226-.199.446-.402.671-.604l-.227.673c.539.002 1.078-.004 1.618.008-.509.16-1.025.298-1.536.446.359.361.727.713 1.073 1.087-.5-.259-.979-.557-1.465-.84-.072.278-.144.557-.221.833-.071-.25-.139-.499-.208-.75-.151.216-.3.433-.452.648.018-.196.037-.39.058-.586-.468.11-.936.221-1.41.3.371-.209.756-.389 1.138-.575-.344-.112-.691-.22-1.033-.338.367-.01.733-.01 1.1-.011a83.144 83.144 0 0 1-.187-.972zM11.192 10.382c.234-.264.496-.503.773-.722.26.176.548.305.846.407-.029.289-.06.577-.088.866-.323.304-.641.616-.995.886-.145-.491-.301-.98-.536-1.436zM9.666 11.809c.078-.257.127-.554.379-.704-.194 1.074-.606 2.094-.852 3.156.761-.866 1.316-1.907 2.153-2.705-.516 1.266-1.652 2.186-2.309 3.389.571-.258 1.038-.694 1.612-.947-.355.619-1.115.827-1.592 1.337.91.077 1.871-.41 2.731-.089-.839.174-1.698.222-2.548.324-.238.066-.416-.116-.601-.23.331-1.18.695-2.351 1.027-3.53z"/>
    <path d="M11.299 12.703c.355.082.716.134 1.075.193-.03.562-.46.983-.598 1.516-.433-.246-.818-.588-1.024-1.051.188-.214.37-.433.546-.658zM11.908 14.56c.503-.04 1.003-.104 1.506-.154.01.431.052.862.214 1.265a4.35 4.35 0 0 0-1.579.092c-.137-.388-.132-.799-.14-1.204z"/>
    <path fill="#ffdb00" d="M11.914.75c.212-.047.374.128.517.256 3.536 3.547 7.087 7.08 10.621 10.63a.454.454 0 0 1-.007.721A8970.823 8970.823 0 0 1 12.36 23.043c-.187.235-.538.258-.728.014C8.064 19.5 4.504 15.934.942 12.37c-.247-.192-.262-.552-.01-.745C4.447 8.096 7.98 4.583 11.493 1.054c.128-.114.25-.253.42-.304zM3.82 9.206l.013.244c1.201-.018 2.404-.038 3.604.023.172.635.343 1.271.467 1.916-1.358-.007-2.719-.054-4.076.044v2.782c1.222.01 2.443-.017 3.665.016.005.53-.004 1.062.03 1.592.296 0 .593-.005.889-.014.073-.79-.066-1.596.124-2.374.16-.643-.154-1.271-.283-1.89-.228-.739-.331-1.522-.642-2.231-1.224-.268-2.532-.074-3.79-.108zm11.103.076c-.373.578-.383 1.362-.606 2.023-.109.744-.595 1.465-.362 2.23.18.744.046 1.517.114 2.272.324.014.648.018.972.018.028-.377.031-.756.035-1.135 1.265-.004 2.53.001 3.793-.002 0-.397-.001-.796-.008-1.193-.997.004-1.996.002-2.993 0l.001-.932c.998-.002 1.998-.001 2.998-.001l.002-.565c-1.458-.083-2.918-.061-4.378-.028.136-.838.346-1.662.545-2.486 1.277-.08 2.557-.016 3.834.028l-.004-.244c-1.309-.038-2.648-.188-3.943.017zm-5.605 1.331c.428-.035.853.035 1.277.094.06-.502.073-1.048-.349-1.404-.569.156-1.454.618-.928 1.31zm6.47-1.147c.06.324.124.648.187.972-.367.001-.733.001-1.1.011.342.119.689.227 1.033.338-.382.186-.767.366-1.138.575.474-.079.942-.19 1.41-.3-.02.196-.04.39-.058.586.152-.215.301-.432.452-.648.068.251.137.5.208.75.077-.276.149-.554.221-.833.486.283.965.581 1.465.84-.346-.374-.714-.726-1.073-1.087.511-.149 1.027-.287 1.536-.446-.54-.012-1.079-.006-1.618-.008l.227-.673c-.224.202-.445.404-.671.604l-.023-.65-.394.599c-.222-.21-.443-.42-.666-.628zm-4.596.916c.235.456.391.946.536 1.436.354-.27.672-.582.995-.886.028-.289.059-.577.088-.866a3.51 3.51 0 0 1-.846-.407c-.277.22-.539.458-.773.722zm-1.526 1.427c-.332 1.18-.696 2.351-1.027 3.53.185.114.364.296.601.23.85-.102 1.709-.15 2.548-.324-.86-.322-1.822.166-2.731.089.478-.51 1.237-.718 1.592-1.337-.574.253-1.04.689-1.612.947.656-1.202 1.793-2.123 2.309-3.389-.836.798-1.392 1.838-2.153 2.705.246-1.062.658-2.082.852-3.156-.252.15-.301.448-.379.704zm1.633.894c-.176.224-.358.444-.546.658.205.463.59.805 1.024 1.051.138-.533.568-.954.598-1.516-.359-.059-.72-.112-1.075-.193zm.609 1.857c.008.404.004.816.14 1.204a4.35 4.35 0 0 1 1.579-.092c-.162-.403-.204-.834-.214-1.265-.503.049-1.003.114-1.506.154z"/>
    <path fill="#ffdb00" d="M14.426 12.617c.407-.187 1.211-.04 1.034.558-.313.775-1.897.07-1.034-.558z"/>
</svg>
