<svg xmlns="http://www.w3.org/2000/svg" width="24" height="24">
    <path fill="#ec1d24" d="M11.773 1.333h.575c.498.148.938.468 1.18.932 3.406 5.916 6.816 11.831 10.226 17.744.13.233.248.471.352.717v.684a1.818 1.818 0 0 1-1.288 1.255H1.321c-.652-.149-1.141-.67-1.32-1.305v-.562c.104-.268.223-.532.364-.782C3.794 14.079 7.211 8.134 10.638 2.197c.237-.439.671-.718 1.137-.866zm-9.24 19.201c6.353.004 12.705.004 19.058 0-3.175-5.509-6.346-11.022-9.53-16.527-3.18 5.506-6.358 11.015-9.528 16.527z"/>
    <path fill="#fff" d="M2.533 20.534a9684.15 9684.15 0 0 1 9.528-16.527c3.184 5.505 6.356 11.018 9.53 16.527-6.353.004-12.705.004-19.058 0zm7.351-9.943c.212.518.817.603 1.29.74-.875.611-.592 1.667-.387 2.544-.079.786-.658 1.446-.724 2.246l-.641.414c-.235-.214-.525-.336-.82-.437-.42-.16-.422-.809-.898-.884-.329-.07-.804-.201-1.006.165-.948 1.5-1.797 3.061-2.694 4.595 2.092-.011 4.181.02 6.271-.016-.237-.983-.538-1.949-.803-2.924.463-.38 1.037-.527 1.584-.738.02-.081.064-.243.084-.322.323-.193.641-.394.959-.594-.564 1.276-.334 2.699-.499 4.047-.341.13-.813.105-.985.492.721.051 1.445.037 2.166.01.092-1.05.454-2.106.253-3.158.349-.562.748-1.097 1.013-1.708.289.665.464 1.381.816 2.016.636.622 1.406 1.094 2.032 1.724.233.402-.117.817-.311 1.154.986.211 1.233-.908 1.66-1.533-.968-.467-1.333-1.632-2.3-2.085-.268-.992-.389-2.028-.736-3.004.201.006.403.029.603.052.096-.152.403-.311.248-.515-.563-.646-.214-1.672-.841-2.295-1.023-.669-2.437-.711-3.38.126-.078-.532-.272-1.192-.871-1.33-.681-.22-1.396.563-1.083 1.213z"/>
    <path fill="#fff" d="M13.85 11.143c.299.038.829-.183.922.233.123.562.437 1.122.334 1.708-.433-.637-.84-1.292-1.256-1.94zM11.712 13.092c.342.265.686.552.9.937-.092.823-.995 1.059-1.578 1.466.475-.711.758-1.538.677-2.402z"/>
    <path d="M9.884 10.591c-.314-.651.402-1.433 1.083-1.213.599.138.793.798.871 1.33.944-.837 2.357-.796 3.38-.126.627.623.278 1.649.841 2.295.155.204-.152.363-.248.515a7.176 7.176 0 0 0-.603-.052c.348.975.468 2.012.736 3.004.968.453 1.333 1.619 2.3 2.085-.428.624-.675 1.744-1.66 1.533.194-.336.544-.752.311-1.154-.626-.63-1.397-1.103-2.032-1.724-.352-.636-.527-1.351-.816-2.016-.267.611-.664 1.146-1.013 1.708.201 1.052-.162 2.108-.253 3.158-.721.028-1.445.041-2.166-.01.172-.387.644-.362.985-.492.165-1.348-.065-2.772.499-4.047-.318.2-.636.402-.959.594-.02.079-.064.241-.084.322-.546.211-1.121.356-1.584.738.265.975.565 1.94.803 2.924-2.09.036-4.18.004-6.271.016.897-1.533 1.747-3.094 2.694-4.595.203-.366.677-.235 1.006-.165.476.075.477.724.898.884.295.101.586.223.82.437.213-.138.427-.277.641-.414.065-.8.644-1.46.724-2.246-.205-.877-.488-1.933.387-2.544-.473-.138-1.077-.221-1.29-.74zm3.966.552c.416.648.823 1.303 1.256 1.94.104-.586-.211-1.146-.334-1.708-.092-.416-.623-.194-.922-.233zm-2.138 1.949c.081.864-.203 1.691-.677 2.402.583-.407 1.485-.643 1.578-1.466-.214-.385-.558-.671-.9-.937z"/>
</svg>
