<svg xmlns="http://www.w3.org/2000/svg" width="24" height="24">
    <path fill="#ec1c24" d="M10.616 2.299c.174-.314.413-.636.766-.753.483-.012.971-.027 1.452.008.487.237.704.77.978 1.204 3.294 5.713 6.596 11.421 9.886 17.136.159.258.269.543.428.802v.605c-.143.68-.703 1.198-1.366 1.366H1.21a2.242 2.242 0 0 1-1.211-1.22v-.706c.12-.166.176-.366.272-.546C3.725 14.234 7.154 8.256 10.615 2.299zM2.534 20.521c6.35.009 12.7.007 19.05.001C18.415 15.02 15.24 9.52 12.068 4.02c-3.194 5.492-6.355 11.002-9.534 16.5z"/>
    <path fill="#fff" d="M2.534 20.521c3.18-5.499 6.34-11.01 9.534-16.5 3.172 5.5 6.348 10.999 9.516 16.502-6.349.006-12.7.008-19.05-.001zM12.731 13.2c-.097.64-.172 1.283-.273 1.923-.14-.28-.268-.564-.412-.843-.73-.087-1.455-.196-2.184-.285-.045.28-.06.564-.115.842-.116.136-.305.194-.452.296-.325-.518-.624-1.053-.963-1.563-.22-.268-.553-.056-.766.101-.292.227-.765.339-.83.758-.072.628-.116 1.258-.183 1.886-.017.154-.033.319.05.459.2.356.404.709.604 1.065l.259-.15c-.175-.454-.026-1.019.399-1.279.427-.291 1.043-.178 1.358.225.101-.066.304-.095.218-.259a1.04 1.04 0 0 1 .637-1.256c.408-.157.881 0 1.15.336l.215-.102c-.093-.101-.187-.202-.279-.304.107.012.213.027.32.039.232.499.454 1.002.689 1.5.448.063.895.134 1.344.196-.515.002-1.064-.014-1.526.248-.588.343-1.176.684-1.757 1.037a3.168 3.168 0 0 1-1.751.587c-1.158.012-2.317.002-3.476.004-.001.39-.001.78.001 1.17 4.741-.002 9.483.003 14.224-.002.001-.386-.002-.772.001-1.158-.57-.012-1.142.029-1.71-.023-1.437-.223-2.457-1.41-3.82-1.818.883.102 1.758.26 2.637.384.053-.532.539-.991 1.085-.943.614.008 1.072.636.97 1.227.172.024.344.052.516.079.152-.714-.273-1.484-.951-1.745-.583-.244-1.287-.083-1.728.364l-.272-.009c.115-.854.237-1.708.345-2.564.012-.193-.205-.266-.36-.29-.975-.148-1.95-.3-2.925-.444-.182-.035-.27.161-.289.309zm-2.553 2.08c-.561.14-.795.9-.42 1.338.287.379.904.419 1.24.084a.846.846 0 0 0 .116-1.087.845.845 0 0 0-.937-.333zm-1.934 1.158c-.588.093-.879.873-.506 1.333.351.521 1.245.409 1.456-.184.276-.589-.318-1.31-.95-1.149zm8.84.054c-.468.155-.7.752-.46 1.182.2.423.778.583 1.174.34.397-.217.54-.773.301-1.157a.85.85 0 0 0-1.015-.365z"/>
    <path fill="#fff" d="M7.188 14.668c.219-.255.566-.357.839-.546.192.33.382.66.578.988-.515.299-1.028.602-1.548.892.052-.444.045-.897.132-1.334z"/>
    <path fill="#231f20" d="M12.731 13.2c.019-.148.107-.344.289-.309.975.145 1.95.296 2.925.444.155.024.372.097.36.29-.108.855-.23 1.709-.345 2.564l.272.009c.441-.446 1.145-.609 1.728-.364.678.262 1.103 1.032.951 1.745-.172-.027-.344-.055-.516-.079.101-.591-.356-1.219-.97-1.227-.546-.048-1.032.412-1.085.943-.88-.124-1.756-.282-2.637-.384 1.364.408 2.383 1.595 3.82 1.818.568.052 1.14.011 1.71.023-.002.386 0 .772-.001 1.158-4.741.004-9.484 0-14.224.002a152.1 152.1 0 0 1-.001-1.17c1.158-.003 2.316.007 3.476-.004a3.16 3.16 0 0 0 1.751-.587c.58-.354 1.17-.694 1.757-1.037.463-.262 1.012-.246 1.526-.248-.449-.062-.896-.133-1.344-.196-.235-.498-.458-1.001-.689-1.5-.107-.012-.213-.027-.32-.039.092.102.186.204.279.304l-.215.102c-.268-.336-.742-.493-1.15-.336a1.039 1.039 0 0 0-.637 1.256c.086.163-.116.193-.218.259-.316-.403-.932-.516-1.358-.225-.424.26-.574.824-.399 1.279l-.259.15c-.2-.356-.404-.709-.604-1.065-.083-.14-.067-.305-.05-.459.067-.628.111-1.259.183-1.886.065-.42.539-.531.83-.758.214-.157.547-.369.766-.101.339.509.637 1.044.963 1.563.147-.101.336-.16.452-.296.055-.278.069-.563.115-.842.729.088 1.455.197 2.184.285.143.278.272.563.412.843.1-.639.176-1.283.273-1.923zm-5.543 1.468c-.086.436-.08.891-.132 1.334.52-.291 1.034-.594 1.548-.892-.196-.328-.386-.658-.578-.988-.273.188-.62.291-.839.546z"/>
    <path fill="#231f20" d="M10.178 15.28a.847.847 0 0 1 .937.333.848.848 0 0 1-.116 1.087c-.336.336-.952.295-1.24-.084-.375-.436-.141-1.197.42-1.338zm.15.55c-.161.052-.231.268-.136.406.087.165.353.168.445.004.156-.194-.079-.507-.309-.411zM8.244 16.438c.632-.161 1.226.56.95 1.149-.211.593-1.105.705-1.456.184-.373-.46-.082-1.24.506-1.333zm.154.561c-.236 0-.357.339-.154.475.18.145.411 0 .472-.194-.055-.134-.148-.299-.318-.281zM17.084 16.492a.852.852 0 0 1 1.015.365c.238.384.096.94-.301 1.157-.396.243-.973.083-1.174-.34-.24-.43-.007-1.028.46-1.182zm.155.556c-.166.088-.192.342-.036.453.138.122.37.047.428-.122.098-.219-.192-.474-.392-.332z"/>
    <path fill="#fffeff" d="M10.328 15.83c.23-.097.466.217.309.411-.092.163-.357.161-.445-.004-.095-.139-.025-.354.136-.406zM8.398 16.999c.172-.018.264.147.318.281-.061.194-.292.34-.472.194-.204-.136-.081-.475.154-.475zM17.239 17.048c.2-.142.489.113.392.332-.059.169-.29.243-.428.122-.156-.111-.13-.364.036-.453z"/>
</svg>
