<svg xmlns="http://www.w3.org/2000/svg" width="24" height="24">
    <path fill="#e8bd2e" opacity=".91" d="M11.724 0h.524c.49.19.821.61 1.186.966l9.6 9.6c.354.359.76.689.966 1.163v.51c-.169.472-.571.785-.911 1.13l-9.721 9.719c-.338.338-.654.721-1.106.912h-.515c-.457-.186-.775-.574-1.115-.912l-9.661-9.66c-.352-.36-.763-.684-.971-1.157v-.52c.176-.464.566-.784.906-1.126l9.661-9.66c.356-.354.69-.752 1.157-.966zm.196.287c-.277.018-.487.215-.672.401C7.689 4.248 4.124 7.805.568 11.37c-.34.299-.391.872-.052 1.19 3.617 3.625 7.242 7.242 10.859 10.867a.828.828 0 0 0 1.249.001c3.618-3.625 7.244-7.242 10.861-10.868.337-.319.286-.892-.052-1.192C19.876 7.804 16.311 4.247 12.752.686c-.215-.228-.499-.448-.833-.4z"/>
    <path d="M11.92.287c.334-.048.618.172.833.4 3.559 3.562 7.124 7.118 10.681 10.682.337.3.389.872.052 1.192-3.617 3.626-7.243 7.243-10.861 10.868a.828.828 0 0 1-1.249-.001C7.759 19.803 4.134 16.186.517 12.561c-.34-.318-.288-.892.052-1.19C4.125 7.806 7.69 4.249 11.249.689c.185-.186.395-.383.672-.401zm-.012.459c-.132.059-.233.164-.337.26C8.032 4.55 4.486 8.088.947 11.631c-.215.16-.293.492-.055.671l10.807 10.805a.384.384 0 0 0 .604.001c3.602-3.601 7.204-7.205 10.807-10.806.239-.18.158-.51-.056-.671-3.54-3.542-7.084-7.081-10.622-10.625-.144-.131-.304-.322-.523-.26z"/>
    <path d="M11.614 2.796l.722.004c.005.488.006.977-.002 1.465a19.8 19.8 0 0 1-.731-.011c.001-.486-.007-.972.011-1.458zM11.608 5.366h.728c.005.487.005.976.001 1.463l-.731.001c-.006-.488-.006-.977.001-1.464zM8.296 5.734a154.72 154.72 0 0 1 2.596 3.546c.218.23.01.649-.301.623-.436-.076-.848-.251-1.277-.358.059 1.102-.035 2.302-.809 3.162-.995 1.05-2.041 2.053-3.059 3.082-.47-.476-.947-.948-1.418-1.426.964-1 1.973-1.957 2.936-2.957.456-.51.308-1.238.328-1.861-.427.107-.838.282-1.273.358-.3.025-.516-.373-.313-.606.848-1.198 1.724-2.377 2.591-3.563zM15.634 5.735c.87 1.175 1.736 2.353 2.586 3.542.23.242.005.701-.331.634-.424-.08-.823-.25-1.24-.358-.012 2.876.002 5.753-.007 8.629-.668.002-1.337.002-2.004 0-.019-2.876.001-5.754-.011-8.63-.52.064-1.517.791-1.673-.067.815-1.297 1.795-2.496 2.68-3.75zM11.606 7.93h.731c.004.488.004.976-.001 1.463-.242.002-.486.001-.728 0a54.884 54.884 0 0 1-.001-1.463zM11.614 10.53c.24-.002.481-.002.722-.001.004 3.421.004 6.841 0 10.261-.244.002-.486.001-.728 0-.008-2.422-.004-4.844-.002-7.266-.961 1.783-2.659 2.984-4.003 4.458l-.52-.511c.979-1.043 2.023-2.022 3.014-3.054 1.016-1.015 1.488-2.471 1.517-3.887z"/>
    <path fill="#fecf33" d="M11.908.746c.22-.061.379.13.523.26 3.539 3.544 7.082 7.082 10.622 10.625.215.161.295.491.056.671-3.604 3.601-7.205 7.205-10.807 10.806a.384.384 0 0 1-.604-.001L.891 12.302c-.238-.179-.16-.511.055-.671C4.485 8.089 8.031 4.55 11.57 1.006c.104-.096.205-.202.337-.26zm-.294 2.05c-.018.486-.01.972-.011 1.458.244.008.487.011.731.011.008-.488.007-.977.002-1.465a173.77 173.77 0 0 1-.722-.004zm-.006 2.57c-.007.487-.007.976-.001 1.464l.731-.001c.004-.487.004-.976-.001-1.463a88.331 88.331 0 0 0-.728 0zm-3.312.368C7.43 6.92 6.554 8.099 5.705 9.297c-.203.233.013.631.313.606.436-.076.846-.251 1.273-.358-.019.623.128 1.351-.328 1.861-.964 1-1.973 1.957-2.936 2.957.472.478.948.949 1.418 1.426 1.018-1.028 2.064-2.032 3.059-3.082.774-.86.868-2.06.809-3.162.428.107.841.282 1.277.358.311.026.52-.392.301-.623a154.72 154.72 0 0 0-2.596-3.546zm7.338.001c-.884 1.254-1.865 2.453-2.68 3.75.156.858 1.153.131 1.673.067.012 2.876-.008 5.754.011 8.63.667.002 1.336.002 2.004 0 .01-2.876-.005-5.753.007-8.629.416.108.816.277 1.24.358.336.067.562-.391.331-.634a256.468 256.468 0 0 0-2.586-3.542zM11.606 7.93c-.006.487-.006.976.001 1.463.242.001.486.002.728 0 .005-.487.005-.974.001-1.463a89.06 89.06 0 0 0-.731 0zm.008 2.6c-.029 1.416-.5 2.872-1.517 3.887-.991 1.032-2.035 2.011-3.014 3.054l.52.511c1.344-1.474 3.042-2.675 4.003-4.458-.001 2.422-.006 4.844.002 7.266.242.001.485.002.728 0 .004-3.42.004-6.84 0-10.261a57.894 57.894 0 0 0-.722.001z"/>
</svg>
