<svg xmlns="http://www.w3.org/2000/svg" width="24" height="24">
    <path fill="#ef7c23" d="M11.718 0h.517c.259.128.508.283.715.486 3.257 3.264 6.521 6.522 9.781 9.784.449.458.961.875 1.268 1.45v.522c-.13.257-.287.5-.49.704-3.268 3.253-6.523 6.521-9.786 9.779-.46.449-.872.965-1.446 1.276h-.529a2.918 2.918 0 0 1-.694-.491c-3.256-3.266-6.522-6.522-9.78-9.785-.449-.46-.964-.872-1.276-1.446v-.529c.27-.575.774-.977 1.21-1.421 3.26-3.26 6.522-6.518 9.78-9.781a3.77 3.77 0 0 1 .728-.547zm-.044.389c-.371.218-.64.565-.946.859C7.348 4.63 3.959 8.003.586 11.39a.814.814 0 0 0 .008 1.214l10.801 10.802a.806.806 0 0 0 1.211.002c3.6-3.602 7.199-7.205 10.8-10.806a.81.81 0 0 0 .008-1.213C19.861 7.82 16.29 4.268 12.734.701c-.263-.283-.68-.526-1.061-.313z"/>
    <path fill="#ef7c23" d="M10.958 1.717c.336-.323.628-.707 1.042-.936.265.142.475.362.685.574C16.193 4.92 19.803 8.389 23.262 12c-3.581 3.69-7.27 7.278-10.884 10.937-.172.24-.504.337-.695.059C8.109 19.409 4.52 15.838.949 12.25c-.312-.254.028-.565.223-.757 3.27-3.25 6.522-6.518 9.786-9.775zM7.793 6.714c-.199.118-.382.557 0 .51 1.025-.067 2.04-.258 3.064-.362-.001.647.001 1.292.004 1.939.761-.001 1.52-.002 2.281.001.006-.649.007-1.3.004-1.95 1.056.1 2.106.323 3.164.349.304-.116-.013-.425-.16-.551-1.39-1.243-2.724-2.55-4.145-3.757-1.433 1.24-2.803 2.552-4.212 3.821zM5.11 10.702c-.004.967-.002 1.933 0 2.9.55-.016 1.242.115 1.628-.384.43-.622.443-1.559-.031-2.162-.39-.474-1.06-.335-1.597-.354zm2.496.003c.004.966-.01 1.932.01 2.898.592-.002 1.183-.005 1.775-.004v-.454c-.44-.002-.882-.002-1.324-.002v-.812l.838-.006.001-.449c-.281-.004-.563-.006-.844-.008l.002-.714c.409-.001.817-.002 1.226-.005a65.133 65.133 0 0 0-.004-.444c-.56-.002-1.121-.001-1.681 0zm2.071-.001l-.016.392c.221.007.442.012.664.018.002.829 0 1.658.002 2.488h.464c.002-.829 0-1.658.002-2.486l.656-.019a51.32 51.32 0 0 1-.014-.392H9.676zm2.714 0c-.838.422-.733 1.614-.508 2.377.301.877 1.718.67 1.795-.245.284-.88-.035-2.542-1.288-2.132zm1.917.001c.029.764-.074 1.54.056 2.296.224.84 1.544.875 1.824.059.16-.773.036-1.574.07-2.358-.114.001-.341.002-.454.004-.018.7.035 1.402-.022 2.099-.053.518-.91.534-.994.026-.073-.707-.005-1.421-.032-2.131l-.449.006zm2.533 0c.005.97-.012 1.938.012 2.908.112-.005.335-.014.445-.02l.004-1.267.548.008c.155.425.316.846.474 1.268l.474-.006-.473-1.297c.307-.301.574-.762.308-1.18-.378-.608-1.198-.372-1.793-.414zm-8.652 4.311l.018.263.254.164c-.014.748-.008 1.495-.005 2.243l.45-.011c-.001-.964.006-1.928-.005-2.892-.24.072-.476.15-.713.233zm3.698.012c-.012.884-.006 1.768-.005 2.652l.455.001c.01-.358.048-.718.211-1.042.138.343.256.694.372 1.045l.504-.007c-.168-.496-.328-.994-.497-1.489.146-.226.292-.451.437-.678l-.504.001a79.01 79.01 0 0 1-.493.649c-.001-.44 0-.881-.004-1.321-.16.062-.318.125-.476.188zm1.813.488c-.002.721-.004 1.442-.001 2.164h.481c.112-.594-.347-1.638.493-1.805.067.598.061 1.199.05 1.799l.466.014c.072-.625-.21-1.391.301-1.882.443.521.19 1.253.25 1.873h.482c-.05-.634.161-1.348-.174-1.922-.222-.376-.667-.211-.995-.107-.431-.174-.9-.127-1.354-.134z"/>
    <path fill="#ef7c23" d="M12.641 11.092c.803-.031.719 1.11.601 1.654-.036.616-.996.594-.998-.024.005-.524-.229-1.387.397-1.63zM5.561 11.13c1.394-.31 1.41 2.34.006 2.04-.008-.679-.007-1.36-.006-2.04zM17.3 11.142c.344.042.96-.127 1 .38.006.503-.672.307-1 .36v-.74z"/>
    <path d="M11.674.389c.38-.212.798.03 1.061.313 3.556 3.568 7.127 7.12 10.68 10.688a.81.81 0 0 1-.008 1.213c-3.601 3.601-7.2 7.204-10.8 10.806a.806.806 0 0 1-1.211-.002L.595 12.605a.814.814 0 0 1-.008-1.214C3.96 8.003 7.349 4.63 10.729 1.249c.306-.294.575-.641.946-.859zm-.716 1.328c-3.264 3.257-6.516 6.526-9.786 9.775-.196.192-.535.503-.223.757 3.571 3.588 7.16 7.159 10.734 10.746.191.278.523.181.695-.059 3.614-3.659 7.303-7.247 10.884-10.937-3.458-3.611-7.069-7.08-10.577-10.645-.21-.211-.42-.432-.685-.574-.414.229-.706.613-1.042.936z"/>
    <path d="M7.793 6.714c1.409-1.268 2.779-2.581 4.212-3.821C13.426 4.1 14.76 5.407 16.15 6.65c.146.126.463.434.16.551-1.058-.026-2.108-.25-3.164-.349.004.65.002 1.301-.004 1.95-.761-.004-1.52-.002-2.281-.001-.002-.647-.005-1.292-.004-1.939-1.024.104-2.039.295-3.064.362-.382.047-.199-.392 0-.51zM5.11 10.702c.538.019 1.207-.12 1.597.354.474.604.461 1.541.031 2.162-.386.499-1.079.368-1.628.384-.002-.967-.004-1.933 0-2.9zm.451.428c-.001.68-.002 1.361.006 2.04 1.404.3 1.388-2.35-.006-2.04zM7.606 10.705c.56-.001 1.121-.002 1.681 0l.004.444-1.226.005-.002.714.844.008-.001.449-.838.006v.812c.442 0 .883 0 1.324.002v.454c-.592-.001-1.183.001-1.775.004-.019-.966-.006-1.932-.01-2.898zM9.677 10.704h1.759l.014.392-.656.019c-.002.828 0 1.657-.002 2.486h-.464c-.002-.829 0-1.658-.002-2.488-.222-.006-.443-.011-.664-.018l.016-.392zM12.391 10.704c1.253-.409 1.572 1.253 1.288 2.132-.077.914-1.494 1.122-1.795.245-.226-.763-.33-1.955.508-2.377zm.25.388c-.626.242-.392 1.105-.397 1.63.002.618.962.64.998.024.118-.544.202-1.685-.601-1.654zM14.308 10.705l.449-.006c.028.71-.041 1.424.032 2.131.084.508.941.492.994-.026.056-.697.004-1.399.022-2.099l.454-.004c-.034.784.09 1.585-.07 2.358-.28.816-1.6.781-1.824-.059-.131-.756-.028-1.531-.056-2.296zM16.841 10.705c.595.042 1.415-.194 1.793.414.265.418-.001.878-.308 1.18.157.433.314.865.473 1.297a74.91 74.91 0 0 1-.474.006c-.158-.422-.319-.844-.474-1.268l-.548-.008-.004 1.267c-.11.006-.334.016-.445.02-.024-.97-.007-1.938-.012-2.908zm.459.437v.74c.328-.053 1.006.143 1-.36-.04-.508-.655-.338-1-.38zM8.189 15.016c.236-.083.473-.161.713-.233.011.964.004 1.928.005 2.892l-.45.011c-.004-.748-.01-1.495.005-2.243l-.254-.164-.018-.263zM11.887 15.028c.158-.064.317-.126.476-.188.004.44.002.881.004 1.321.166-.215.33-.432.493-.649l.504-.001c-.145.227-.29.452-.437.678.169.496.329.994.497 1.489l-.504.007a17.278 17.278 0 0 0-.372-1.045c-.163.324-.202.684-.211 1.042l-.455-.001c-.001-.884-.007-1.768.005-2.652zM13.7 15.516c.454.007.923-.04 1.354.134.328-.104.773-.269.995.107.335.575.124 1.289.174 1.922h-.482c-.06-.62.193-1.352-.25-1.873-.511.491-.229 1.256-.301 1.882a70.37 70.37 0 0 0-.466-.014c.011-.6.017-1.201-.05-1.799-.84.167-.382 1.211-.493 1.805H13.7c-.002-.721-.001-1.442.001-2.164z"/>
</svg>
