<svg xmlns="http://www.w3.org/2000/svg" width="24" height="24">
    <path fill="#ef2b2f" d="M11.697 1.333h1.244c3.611 6.6 7.447 13.099 11.346 19.538v.597c-1.464.942-3.269.692-4.92.772-6.321-.006-12.639-.118-18.96-.171.161-1.191.624-2.31 1.214-3.351C4.805 12.824 8.215 7.054 11.697 1.333zM2.475 20.677c6.466.039 12.932.02 19.397.01-3.19-5.619-6.472-11.182-9.666-16.797-3.312 5.553-6.501 11.185-9.732 16.788z"/>
    <path fill="#fff" d="M2.475 20.677c3.229-5.603 6.42-11.235 9.732-16.788 3.194 5.616 6.476 11.179 9.666 16.797-6.466.01-12.932.029-19.397-.01zm6.935-9.914c.322.18.646.361.972.539-.128 1.424-1.132 2.412-2.127 3.322-.108 1.329.528 2.692.955 3.955-.043-1.208-.368-2.38-.667-3.541.923-.673 1.743-1.464 2.498-2.314 1.191 1.835.574 3.981.4 5.989l-.955.699c1.08.013 2.163.01 3.243-.006.069-1.72.112-3.45-.141-5.159.411-.141.817-.285 1.224-.436-.213 1.648-.453 3.301-.151 4.956-.19.161-.568.489-.758.653.285 0 .86.004 1.146.006.21-.752.161-1.697.892-2.172.089.492.164.988.233 1.487l-.532.683 1.083.013c.118-.758-.171-1.753.611-2.235-.502-2.205-.991-4.559-2.767-6.134a6.405 6.405 0 0 0-.663-1.375c-.197.155-.594.456-.791.607-.006.378-.006.755-.004 1.132.229.062.686.187.912.25.079.781.155 1.592-.285 2.288-.627-1.244-1.276-2.576-2.566-3.262l-.492-1.293c-.807.052-1.247.551-1.27 1.352zm-.19 8.07c-.506.988 1.086.056 0 0z"/>
    <path fill="#201e1c" d="M9.41 10.763c.023-.801.463-1.3 1.27-1.352l.492 1.293c1.29.686 1.94 2.019 2.566 3.262.44-.696.364-1.507.285-2.288a684.17 684.17 0 0 1-.912-.25c-.004-.378-.004-.755.004-1.132.197-.151.594-.453.791-.607.276.433.499.892.663 1.375 1.776 1.575 2.265 3.929 2.767 6.134-.781.483-.492 1.477-.611 2.235l-1.083-.013c.132-.171.397-.512.532-.683a36.235 36.235 0 0 0-.233-1.487c-.732.476-.683 1.421-.892 2.172-.285-.004-.86-.006-1.146-.006.19-.164.568-.492.758-.653-.302-1.654-.062-3.308.151-4.956-.407.151-.814.295-1.224.436.252 1.71.21 3.44.141 5.159-1.08.016-2.163.02-3.243.006l.955-.699c.174-2.009.791-4.155-.4-5.989-.755.85-1.575 1.641-2.498 2.314.299 1.162.624 2.333.667 3.541-.427-1.264-1.063-2.626-.955-3.955.995-.909 1.999-1.897 2.127-3.322a70.66 70.66 0 0 1-.972-.539zm3.308 5.809c-.243.935-.473 1.871-.699 2.81 1.293-.341.679-1.841.699-2.81z"/>
    <path fill="#ededed" d="M12.718 16.572c-.02.968.594 2.468-.699 2.81.227-.939.456-1.874.699-2.81z"/>
    <path fill="#575553" d="M9.22 18.833c1.086.056-.506.988 0 0z"/>
</svg>
