<svg xmlns="http://www.w3.org/2000/svg" width="24" height="24">
    <path fill="#ec1d24" d="M11.768 1.333h.598c.49.156.924.474 1.163.934 3.406 5.916 6.814 11.829 10.224 17.744.13.23.247.467.352.71v.705a1.844 1.844 0 0 1-1.283 1.24H1.31c-.646-.155-1.129-.67-1.311-1.3v-.582c.106-.263.224-.521.364-.768 3.428-5.937 6.846-11.88 10.273-17.819.236-.436.668-.717 1.132-.866zM2.531 20.534c6.354.004 12.708.004 19.06 0-3.173-5.51-6.347-11.022-9.53-16.528a15766.81 15766.81 0 0 0-9.53 16.528z"/>
    <path fill="#fff" d="M2.531 20.534c3.173-5.512 6.349-11.021 9.53-16.528 3.183 5.506 6.356 11.018 9.53 16.528-6.353.004-12.706.004-19.06 0zm9.611-11c-.25.038-.5.065-.749.094-.04-.319-.078-.639-.136-.955-.135.255-.139.545-.153.826a6.904 6.904 0 0 0-.517-.383c.169.346.424.636.619.966-.511-.038-.787-.487-1.138-.79-.092.802.905.91 1.276 1.435.545.694 1.332 1.3 2.269 1.172-.199.372-.397.742-.609 1.107-.605-.007-1.21.197-1.809.034-1.104-.228-2.411-.59-3.372.22-.529.302-.721 1.272-.047 1.509.187.431.504.775.803 1.127.301.389-.324.728-.173 1.11.804.348 1.142 1.216 1.648 1.876.016.404.382.548.732.581-.177-.653-.66-1.139-.996-1.706.497.201.875.59 1.338.847-.057.147-.113.294-.172.44.167.255.294.534.389.824.113-.025.228-.05.342-.071-.26-.826-.038-1.714.39-2.439.935-.071 1.623-.776 2.455-1.128.289-.589-.681-.651-1.028-.893.605-.568 1.002-1.337 1.298-2.103.366-.14.748-.233 1.144-.213.115-.18.221-.365.323-.555-.592-.281-1.104-.702-1.728-.917.345-.207.691-.444.837-.839-.085.033-.257.096-.341.128l-.091-.396c-.058.199-.108.4-.158.602-.06-.258-.111-.521-.24-.757.087.494-.196 1.087-.772.796.477-.492.356-1.365-.295-1.636.126.356.542.781.234 1.151-.18.252-.497.014-.657-.141-.602-.573-.708-1.432-.817-2.211-.294.37-.119.867-.1 1.293z"/>
    <path fill="#fff" d="M11.472 9.944c.238-.031.48-.047.719-.076.396.577.892 1.071 1.423 1.524-.297.007-.661.122-.905-.104-.188-.45-.274-.972-.699-1.277.067.335.205.65.311.972-.556-.016-.676-.629-.85-1.039zM10.056 15.573a6.544 6.544 0 0 0 1.747.348c-.042.277-.087.555-.139.83-.14.075-.272.163-.409.244.075.16.145.323.205.491a9.731 9.731 0 0 1-.182.648c-.661-.498-1.497-.741-2.072-1.356a1.48 1.48 0 0 0 .85-1.205zM12.159 16.812c.19-.335.305-.852.738-.939.352.06.692.167 1.042.237-.561.309-1.151.566-1.779.701z"/>
    <path d="M12.142 9.534c-.02-.427-.194-.924.1-1.293.109.779.216 1.636.817 2.211.16.156.476.393.657.141.308-.37-.108-.796-.234-1.151.652.271.772 1.145.295 1.636.576.292.86-.301.772-.796.129.236.18.499.24.757.05-.201.1-.403.158-.602l.091.396.341-.128c-.147.394-.493.632-.837.839.624.214 1.137.636 1.728.917a9.317 9.317 0 0 1-.323.555c-.396-.02-.778.074-1.144.213-.297.766-.693 1.535-1.298 2.103.348.243 1.317.304 1.028.893-.832.352-1.52 1.057-2.455 1.128-.429.725-.65 1.614-.39 2.439a9.408 9.408 0 0 0-.342.071 3.416 3.416 0 0 0-.389-.824l.172-.44c-.463-.257-.841-.646-1.338-.847.336.566.819 1.052.996 1.706-.351-.033-.717-.177-.732-.581-.505-.66-.844-1.527-1.648-1.876-.15-.382.475-.721.173-1.11-.299-.352-.616-.695-.803-1.127-.674-.237-.482-1.206.047-1.509.962-.81 2.268-.447 3.372-.22.599.164 1.204-.041 1.809-.034.211-.364.41-.735.609-1.107-.938.128-1.724-.477-2.269-1.172-.372-.524-1.369-.633-1.276-1.435.351.304.627.752 1.138.79-.194-.332-.45-.62-.619-.966.18.118.349.25.517.383.014-.281.018-.57.153-.826.058.316.096.636.136.955.25-.029.5-.055.749-.094zm-.67.41c.173.41.292 1.023.85 1.039-.106-.323-.244-.637-.311-.972.426.306.511.828.699 1.277.244.226.609.111.905.104-.532-.452-1.027-.946-1.423-1.524-.24.029-.481.044-.719.076zm-1.416 5.629a1.477 1.477 0 0 1-.85 1.205c.575.615 1.41.858 2.072 1.356.07-.213.126-.431.182-.648a5.709 5.709 0 0 0-.205-.491c.136-.081.268-.169.409-.244.052-.276.096-.553.139-.83a6.544 6.544 0 0 1-1.747-.348zm2.103 1.239c.628-.135 1.219-.392 1.779-.701-.349-.07-.69-.177-1.042-.237-.433.087-.548.604-.738.939z"/>
</svg>
