<svg xmlns="http://www.w3.org/2000/svg" width="24" height="24">
    <path fill="#d9a718" opacity=".9" d="M11.615 0h.566c.252.108.49.254.685.449 3.497 3.506 6.997 7.009 10.498 10.513.546.44.625 1.325.083 1.801l-10.676 10.69c-.427.478-1.237.49-1.674.018-3.364-3.359-6.728-6.716-10.091-10.076-.37-.371-.794-.715-1.006-1.21v-.551c.228-.535.698-.895 1.092-1.302C4.372 7.051 7.66 3.779 10.936.496c.2-.198.433-.36.679-.496zm.194.293c-.271.031-.491.211-.679.395C7.63 4.191 4.126 7.69.626 11.194c-.388.34-.456.973-.074 1.346 3.504 3.532 7.043 7.031 10.548 10.561.347.445 1.052.601 1.459.148 3.568-3.558 7.133-7.121 10.69-10.688.424-.38.331-1.057-.082-1.406C19.709 7.692 16.248 4.232 12.788.771c-.256-.263-.586-.538-.979-.478z"/>
    <path d="M11.809.293c.394-.06.724.215.979.478 3.46 3.461 6.92 6.92 10.379 10.384.413.349.505 1.026.082 1.406-3.557 3.568-7.122 7.13-10.69 10.688-.407.454-1.112.298-1.459-.148-3.505-3.53-7.044-7.03-10.548-10.561-.382-.373-.313-1.007.074-1.346C4.125 7.69 7.629 4.191 11.13.688c.188-.184.408-.364.679-.395zm-.002.585C8.239 4.347 4.757 7.915 1.222 11.421c-.163.18-.533.446-.265.695 3.448 3.473 6.924 6.92 10.376 10.39.229.242.588.689.886.271 3.538-3.544 7.084-7.08 10.619-10.624.239-.184.095-.43-.088-.583-3.498-3.505-7.003-7.003-10.501-10.506-.125-.104-.259-.283-.442-.186z"/>
    <path d="M10.343 5.836l.462-.004c.006.373.006.746 0 1.12l-.46.001a59.415 59.415 0 0 1-.002-1.117zM13.45 5.832h.461c.005.374.005.748-.001 1.122h-.458a38.15 38.15 0 0 1-.001-1.122zM10.342 8.348l.463-.005c.006.467.006.934 0 1.4l-.461-.001c-.002-.466-.004-.93-.002-1.394zM13.45 8.345h.461c.005.466.005.932 0 1.399a35.42 35.42 0 0 0-.461 0 65.242 65.242 0 0 1 0-1.399z"/>
    <path fill="#f1ba1b" d="M11.807.878c.182-.097.317.082.442.186 3.498 3.503 7.003 7.001 10.501 10.506.182.154.326.4.088.583-3.535 3.544-7.081 7.08-10.619 10.624-.298.418-.656-.029-.886-.271-3.452-3.469-6.929-6.917-10.376-10.39-.268-.248.102-.515.265-.695C4.757 7.915 8.24 4.347 11.807.878zm-4.222 4.98c-.004 4.08-.004 8.159 0 12.238.583.005 1.165.005 1.747 0 .004-4.079.004-8.158 0-12.236a59.847 59.847 0 0 0-1.747-.001zm2.758-.022c-.002.372-.001.745.002 1.117l.46-.001c.006-.373.006-.746 0-1.12l-.462.004zm1.754.003c-.023 1.488.023 2.978-.02 4.465-.496 1.008-1.218 1.906-1.72 2.91-.035 1.626-.008 3.256-.012 4.883l.454.001c.037-1.589-.024-3.181.029-4.769.51-.973 1.172-1.865 1.699-2.828.08-1.538.001-3.086.038-4.628a73.587 73.587 0 0 0-.468-.034zm1.353-.007c-.005.374-.005.748.001 1.122h.458c.006-.374.006-.748.001-1.122h-.461zm1.443.019c-.012 1.523.011 3.046-.011 4.568-.884.804-1.783 1.594-2.672 2.392-.173.168-.397.352-.356.623.001 1.553-.005 3.107.005 4.66.606.005 1.212.004 1.818.002.01-1.391-.001-2.783.005-4.174.893-.829 1.812-1.63 2.717-2.446.199-.166.344-.406.32-.673-.002-1.65.004-3.301-.005-4.951a84.94 84.94 0 0 0-1.82-.001zm-4.551 2.497c-.001.464 0 .929.002 1.394l.461.001c.006-.467.006-.934 0-1.4l-.463.005zm3.108-.003c-.005.466-.005.932 0 1.399h.461c.005-.467.005-.934 0-1.399h-.461z"/>
    <path fill="#1f1a17" d="M7.585 5.858a63.587 63.587 0 0 1 1.747.001c.004 4.079.004 8.158 0 12.236-.582.005-1.164.005-1.747 0-.004-4.079-.004-8.158 0-12.238zM12.097 5.839l.468.034c-.037 1.542.042 3.09-.038 4.628-.527.964-1.189 1.855-1.699 2.828-.053 1.588.008 3.18-.029 4.769l-.454-.001c.004-1.627-.023-3.257.012-4.883.502-1.004 1.224-1.902 1.72-2.91.043-1.487-.002-2.977.02-4.465z"/>
    <path fill="#1f1a17" d="M14.893 5.851a84.94 84.94 0 0 1 1.82.001c.008 1.65.002 3.301.005 4.951.024.268-.121.508-.32.673-.905.816-1.824 1.616-2.717 2.446-.006 1.391.005 2.783-.005 4.174-.606.001-1.212.002-1.818-.002-.01-1.553-.004-3.107-.005-4.66-.041-.271.184-.455.356-.623.889-.798 1.788-1.588 2.672-2.392.022-1.523-.001-3.046.011-4.568z"/>
</svg>
