<svg xmlns="http://www.w3.org/2000/svg" width="24" height="24">
    <path fill="#ffdb00" d="M11.723 0h.511c.295.124.571.294.796.526 3.478 3.486 6.962 6.965 10.445 10.446.23.227.397.508.526.804v.407c-.115.282-.258.559-.476.776-3.502 3.5-7.006 7-10.504 10.505a2.65 2.65 0 0 1-.8.536h-.425a2.407 2.407 0 0 1-.82-.53C7.479 19.964 3.974 16.464.47 12.963a2.777 2.777 0 0 1-.469-.695v-.51c.222-.606.75-1.004 1.184-1.453 3.26-3.26 6.524-6.52 9.781-9.784.218-.218.479-.388.757-.521zm-.148.409C7.903 3.93 4.364 7.607.738 11.18c-.443.34-.628 1.036-.167 1.444 3.575 3.588 7.166 7.162 10.746 10.746.322.386.95.433 1.296.053 3.59-3.575 7.165-7.165 10.753-10.744a.9.9 0 0 0 .007-1.366C19.839 7.763 16.291 4.227 12.754.681c-.287-.323-.782-.533-1.18-.272z"/>
    <path fill="#ffdb00" d="M11.915.751c.211-.048.374.125.518.25 3.5 3.503 7.003 7.002 10.508 10.5.271.209.433.618.104.86-3.559 3.563-7.122 7.127-10.685 10.687a.458.458 0 0 1-.727.007C8.068 19.495 4.51 15.926.946 12.364c-.294-.215-.216-.602.047-.804C4.352 8.196 7.719 4.841 11.074 1.475c.269-.252.499-.568.84-.725zm-.952 4.701c-2.502.359-4.676 2.296-5.341 4.732-.632 2.182-.042 4.667 1.524 6.316a6.63 6.63 0 0 0 5.341 2.099c2.142-.149 4.163-1.414 5.23-3.278 1.111-1.872 1.193-4.301.222-6.248-1.214-2.558-4.182-4.103-6.976-3.619z"/>
    <path d="M11.575.409c.397-.26.893-.05 1.18.272 3.536 3.546 7.085 7.082 10.619 10.632a.9.9 0 0 1-.007 1.366c-3.588 3.578-7.163 7.169-10.753 10.744-.346.38-.974.334-1.296-.053-3.58-3.584-7.171-7.158-10.746-10.746-.461-.408-.276-1.104.167-1.444C4.365 7.606 7.904 3.93 11.576.409zm.34.342c-.341.157-.571.473-.84.725C7.72 4.842 4.353 8.197.994 11.561c-.263.202-.341.589-.047.804 3.564 3.562 7.122 7.13 10.687 10.691.19.24.541.23.727-.007 3.563-3.56 7.126-7.124 10.685-10.687.329-.242.167-.652-.104-.86-3.505-3.498-7.008-6.997-10.508-10.5-.144-.125-.307-.298-.518-.25z"/>
    <path d="M10.963 5.452c2.794-.484 5.761 1.061 6.976 3.619.971 1.948.889 4.376-.222 6.248-1.067 1.865-3.088 3.13-5.23 3.278a6.63 6.63 0 0 1-5.341-2.099c-1.566-1.649-2.156-4.134-1.524-6.316.665-2.436 2.839-4.373 5.341-4.732zM8.69 7.972c-.232.655 1.141.625.751 1.237-.331.277-.592-.244-.859-.391-.061.636.816.958 1.138.406.47-.736-1.442-.889-.506-1.432.176.157.356.311.547.45.041-.625-.858-.88-1.07-.27zm1.358-.347c-.002.618-.001 1.237-.001 1.855h.247l-.001-.683c.39-.008.955-.115.883-.636-.007-.596-.713-.524-1.128-.536zm1.387.017v1.843c.42-.004.852.034 1.252-.124-.33-.079-.668-.096-1.007-.11l.005-.606c.299-.024.599-.055.892-.126a5.093 5.093 0 0 0-.9-.149c.004-.176.006-.353.008-.529l.796-.001-.002-.199-1.043.001zm1.379-.008c-.002.617-.001 1.234-.001 1.849.408.001.817.005 1.22-.061-.289-.194-.644-.148-.973-.164v-.641l.733-.004.01-.199-.743-.01v-.541c.317-.014.638-.042.932-.174-.39-.054-.786-.054-1.178-.055zm1.351-.018a79.215 79.215 0 0 0-.004 1.888c.612.091 1.264-.292 1.136-.984.101-.682-.558-.973-1.133-.904zm-5.889 3.536c-.443.391-.468 1.214-.086 1.655.354.324.826.043.985-.335-.25.077-.481.28-.752.251-.352-.407-.331-1.184.133-1.51.182.145.366.289.553.427-.018-.409-.46-.756-.833-.488zm1.515-.101c-.181.63-.368 1.258-.536 1.891l.262-.04.143-.55.475.001.143.552.262.032c-.168-.625-.355-1.246-.53-1.87l-.217-.018zm.901.025c-.004.617-.005 1.234.002 1.852l.208.001c.007-.392.007-.785.035-1.177.103.431.18.869.325 1.289.179-.425.246-.883.365-1.326.019.404.013.81.016 1.216l.212-.007c.004-.616.004-1.231 0-1.847l-.33.001c-.08.397-.158.794-.252 1.188a36.844 36.844 0 0 1-.251-1.188l-.33-.001zm1.433-.001c-.002.617-.001 1.232 0 1.849.406-.013.842.065 1.213-.145a7.51 7.51 0 0 0-.97-.071l.001-.618c.29-.017.586-.038.848-.174a9.674 9.674 0 0 0-.848-.076c0-.179-.001-.356-.004-.534.311-.017.623-.04.929-.096-.362-.184-.778-.127-1.17-.136zm1.347-.012c-.006.629-.008 1.259.006 1.888l.239-.059.001-.773.282.017c.12.252.242.503.364.755l.274.07c-.116-.263-.236-.523-.356-.784.192-.24.433-.559.233-.87-.248-.304-.697-.197-1.042-.244zm1.294 1.883l.262-.046.139-.544.47-.008.152.558.259.035c-.19-.668-.354-1.346-.602-1.997-.392.598-.469 1.331-.68 2.002zm-5.454 3.568c.157-.227.282-.472.395-.722l.385.001c.096.253.205.509.422.684-.131-.715-.283-1.453-.654-2.087-.234.69-.527 1.386-.548 2.124zm1.405-2.006c.011.666-.062 1.339.073 1.997.176-.317.18-.682.227-1.031.373.256.468.749.853.992a7.17 7.17 0 0 0-.344-.86c.161-.218.401-.469.275-.764-.173-.424-.725-.276-1.084-.334zm1.408.019l-.001 1.841h1.097v-.208h-.848l-.004-.64c.283-.016.568-.038.85-.077-.264-.137-.559-.157-.85-.173l.004-.542.798-.002.008-.193a74.15 74.15 0 0 0-1.054-.006zm1.826-.039c-.234.643-.43 1.306-.541 1.981.227-.164.322-.427.424-.676l.386-.001c.1.248.196.51.431.665-.202-.635-.192-1.566-.7-1.969z"/>
    <path d="M10.3 7.814c.2.032.401.067.6.103.001.19 0 .378-.005.566a17.42 17.42 0 0 1-.601.091c.001-.254.002-.508.006-.761zM14.429 7.765c.826.092.854 1.519-.005 1.567a13.43 13.43 0 0 1 .005-1.567zM13.716 11.234c.228.094.685.038.618.402-.001.318-.39.248-.598.34a20.354 20.354 0 0 1-.02-.742zM9.71 12.143c.062-.224.126-.448.191-.671.06.223.119.448.176.671H9.71zM15.223 12.14c.06-.223.121-.448.184-.671l.182.676-.366-.005zM10.956 15.397c.006-.242.013-.484.025-.726.24.08.655.084.604.444-.048.301-.412.212-.629.282zM9.71 15.588c.062-.221.125-.443.191-.664l.178.67a45.16 45.16 0 0 1-.368-.006zM14.016 14.992c.073.194.14.391.209.587l-.384.019.175-.606z"/>
    <path fill="#fcdd09" d="M8.69 7.972c.212-.61 1.111-.355 1.07.27a7.142 7.142 0 0 1-.547-.45c-.936.542.977.696.506 1.432-.322.552-1.199.23-1.138-.406.268.148.528.668.859.391.39-.612-.983-.582-.751-1.237zM10.048 7.625c.415.012 1.121-.06 1.128.536.072.521-.493.628-.883.636l.001.683h-.247c0-.618-.001-1.237.001-1.855zm.252.189c-.004.253-.005.506-.006.761.2-.028.402-.058.601-.091.005-.188.006-.377.005-.566-.199-.036-.4-.071-.6-.103zM11.435 7.642l1.043-.001.002.199-.796.001-.008.529c.302.03.606.065.9.149a5.719 5.719 0 0 1-.892.126c-.001.202-.002.404-.005.606.338.014.677.031 1.007.11-.4.157-.832.12-1.252.124V7.642zM12.814 7.634c.392.001.788.001 1.178.055-.294.132-.616.16-.932.174v.541c.248.002.496.006.743.01l-.01.199-.733.004v.641c.329.017.684-.03.973.164-.403.066-.812.062-1.22.061 0-.616-.001-1.232.001-1.849zM14.165 7.616c.575-.07 1.234.222 1.133.904.127.692-.524 1.075-1.136.984a74.265 74.265 0 0 1 .004-1.888zm.264.149a13.884 13.884 0 0 0-.005 1.567c.859-.048.83-1.475.005-1.567zM8.276 11.152c.373-.268.815.079.833.488a18.93 18.93 0 0 1-.553-.427c-.464.325-.485 1.103-.133 1.51.271.029.503-.174.752-.251-.16.378-.631.659-.985.335-.382-.44-.356-1.264.086-1.655zM9.791 11.051l.217.018c.175.624.362 1.244.53 1.87l-.262-.032-.143-.552-.475-.001-.143.55-.262.04c.168-.634.355-1.261.536-1.891zm-.081 1.092h.367c-.058-.223-.116-.448-.176-.671-.065.223-.128.446-.191.671zM12.125 11.075c.392.008.808-.048 1.17.136a7.404 7.404 0 0 1-.929.096c.002.178.004.355.004.534.283.014.566.036.848.076-.263.136-.558.157-.848.174l-.001.618c.324.007.648.022.97.071-.371.21-.808.132-1.213.145-.001-.617-.002-1.232 0-1.849zM13.472 11.063c.344.047.793-.06 1.042.244.2.311-.041.63-.233.87.12.26.24.521.356.784l-.274-.07c-.121-.252-.244-.503-.364-.755a26.653 26.653 0 0 0-.282-.017l-.001.773-.239.059a59.414 59.414 0 0 1-.006-1.888zm.244.171c.004.247.008.494.02.742.208-.091.596-.022.598-.34.067-.364-.39-.308-.618-.402zM14.766 12.946c.211-.671.288-1.404.68-2.002.248.65.413 1.328.602 1.997l-.259-.035c-.052-.186-.102-.372-.152-.558l-.47.008c-.047.181-.094.362-.139.544l-.262.046zm.457-.806l.366.005-.182-.676c-.062.223-.124.448-.184.671zM9.312 16.514c.022-.738.314-1.434.548-2.124.371.634.523 1.372.654 2.087-.217-.175-.326-.431-.422-.684l-.385-.001a4.471 4.471 0 0 1-.395.722zm.398-.926l.368.006-.178-.67c-.066.221-.128.443-.191.664zM10.717 14.508c.359.058.911-.09 1.084.334.126.295-.114.546-.275.764.13.281.252.565.344.86-.385-.244-.48-.737-.853-.992-.047.349-.05.714-.227 1.031-.136-.658-.062-1.331-.073-1.997zm.239.889c.217-.07.581.019.629-.282.052-.36-.364-.364-.604-.444-.012.242-.019.484-.025.726zM12.125 14.527c.35 0 .702.001 1.054.006l-.008.193-.798.002-.004.542c.29.016.586.036.85.173-.282.038-.566.061-.85.077l.004.64h.848v.208h-1.097l.001-1.841zM13.951 14.488c.508.403.498 1.334.7 1.969-.235-.155-.331-.416-.431-.665l-.386.001c-.102.248-.197.511-.424.676.112-.676.307-1.338.541-1.981zm.065.504c-.059.202-.118.404-.175.606l.384-.019a25.65 25.65 0 0 0-.209-.587z"/>
    <path fill="#f5d709" d="M10.692 11.076l.33.001c.079.397.158.794.251 1.188.094-.394.172-.791.252-1.188l.33-.001c.004.616.004 1.231 0 1.847l-.212.007c-.002-.406.004-.811-.016-1.216-.119.443-.186.901-.365 1.326-.145-.42-.222-.858-.325-1.289-.028.392-.028.785-.035 1.177l-.208-.001c-.007-.618-.006-1.235-.002-1.852z"/>
</svg>
