<svg xmlns="http://www.w3.org/2000/svg" width="24" height="24">
    <path fill="#c7a619" opacity=".78" d="M11.795 0h.47a6.21 6.21 0 0 1 1.016.878C16.834 4.5 20.5 8.017 23.999 11.689v.62c-.302.463-.722.83-1.11 1.22-3.14 3.139-6.278 6.281-9.416 9.425-.365.365-.712.758-1.146 1.045h-.64c-3.167-3.004-6.188-6.164-9.298-9.23-.791-.832-1.674-1.578-2.39-2.477v-.49c.265-.49.701-.847 1.085-1.238l9.42-9.42c.41-.402.785-.856 1.29-1.145zm-.109.276C7.934 3.877 4.314 7.632.609 11.287c-.379.294-.593.892-.186 1.259 3.673 3.683 7.36 7.354 11.038 11.03.28.332.809.366 1.096.024 3.683-3.679 7.366-7.361 11.045-11.044.337-.287.306-.812-.013-1.099C19.96 7.803 16.309 4.172 12.676.523c-.241-.27-.65-.451-.989-.247z"/>
    <path d="M11.686.276c.338-.204.748-.023.989.247 3.632 3.649 7.284 7.28 10.913 10.934.319.287.35.812.013 1.099A16429.36 16429.36 0 0 1 12.556 23.6c-.287.342-.816.308-1.096-.024-3.678-3.677-7.364-7.348-11.038-11.03-.407-.367-.193-.965.186-1.259C4.314 7.632 7.933 3.877 11.685.276zm.241.258c-.157.068-.28.194-.403.31C7.932 4.451 4.326 8.044.735 11.652c-.24.184-.268.529-.012.714 3.659 3.658 7.315 7.319 10.978 10.972.181.234.508.192.679-.029 3.647-3.64 7.283-7.291 10.927-10.932.222-.169.27-.497.037-.679C19.74 8.061 16.103 4.456 12.496.824c-.158-.136-.332-.36-.569-.289z"/>
    <path d="M8.126 9.09c.602-.842 1.188-1.697 1.805-2.528.634.979 1.42 1.877 1.954 2.909-.224.485-.822.037-1.196-.006-.004 3.079.002 6.16-.004 9.239H9.147c-.005-.754.007-1.507-.001-2.261-.002-1.27-.937-2.43-2.123-2.826-.06.36.28 1.177-.295 1.168-.858-.769-1.602-1.664-2.407-2.489 1.075-.478 2.154-.952 3.244-1.399.366.392-.109.854-.232 1.26.671.178 1.278.522 1.812.96.004-1.225.005-2.45-.001-3.676-.34.07-.68.271-1.032.212-.234-.132-.114-.404.016-.563zM16.712 9.292c-.077-.372-.686-1.009-.154-1.217 1.075.389 2.106.904 3.155 1.361-.787.857-1.571 1.728-2.422 2.52-.541-.101-.208-.815-.265-1.198-1.092.367-1.975 1.375-2.018 2.551-.026 1.798-.001 3.596-.011 5.395-.505 0-1.01 0-1.514-.002.008-1.796-.01-3.594.008-5.39.036-1.862 1.429-3.553 3.221-4.02zM11.858 13.921l.336.013a841.289 841.289 0 0 0 0 4.766l-.336.012a637.87 637.87 0 0 1 0-4.792z"/>
    <path fill="#ffd520" d="M11.927.534c.236-.071.41.154.569.289 3.607 3.632 7.244 7.237 10.848 10.874.233.182.185.51-.037.679-3.644 3.641-7.28 7.292-10.927 10.932-.172.221-.498.263-.679.029C8.039 19.684 4.382 16.023.723 12.365c-.256-.185-.228-.53.012-.714C4.327 8.043 7.933 4.45 11.524.843c.124-.115.246-.241.403-.31zM8.126 9.09c-.13.158-.25.431-.016.563.352.059.692-.143 1.032-.212.006 1.225.005 2.45.001 3.676-.534-.438-1.141-.782-1.812-.96.122-.406.598-.868.232-1.26-1.09.448-2.168.922-3.244 1.399.805.824 1.549 1.72 2.407 2.489.575.01.235-.808.295-1.168 1.186.396 2.12 1.556 2.123 2.826.008.754-.004 1.507.001 2.261h1.538c.006-3.079 0-6.16.004-9.239.374.043.972.491 1.196.006-.534-1.032-1.32-1.93-1.954-2.909-.617.832-1.202 1.686-1.805 2.528zm8.586.202c-1.792.467-3.185 2.158-3.221 4.02-.018 1.796 0 3.594-.008 5.39.504.002 1.009.002 1.514.002.01-1.799-.016-3.598.011-5.395.043-1.176.926-2.184 2.018-2.551.058.383-.276 1.097.265 1.198.851-.792 1.634-1.663 2.422-2.52-1.049-.457-2.08-.972-3.155-1.361-.533.208.077.845.154 1.217zm-4.854 4.629a637.87 637.87 0 0 0 0 4.792l.336-.012a841.289 841.289 0 0 1 0-4.766l-.336-.013z"/>
</svg>
