<svg xmlns="http://www.w3.org/2000/svg" width="24" height="24">
    <path fill="#ffd520" d="M0 2.4h24v19.2H0V2.4zm.362.401c-.001 6.14-.002 12.28.001 18.42 7.758.002 15.516.002 23.274 0 .003-6.14.002-12.28.001-18.42H.362z"/>
    <path fill="#ffd520" d="M.764 3.202c7.49-.002 14.982-.002 22.473 0 .002 5.872.002 11.745 0 17.618-7.491.002-14.982.002-22.473 0-.002-5.873-.002-11.746 0-17.618zm19.09 1.514c-.756 1.017-1.517 2.031-2.236 3.074-.15.178-.015.488.224.482.394-.054.767-.198 1.154-.283.003 1.684.002 3.368.001 5.052-.726-1.223-1.876-2.126-3.076-2.854.288-.257.612-.473.886-.745.167-.185 0-.502-.243-.483-1.267-.017-2.535 0-3.802.035.394 1.202.77 2.41 1.2 3.599.059.248.423.294.54.066.169-.346.271-.719.418-1.074 1.151.733 2.074 1.756 2.92 2.814.742 1.071 1.193 2.368 1.158 3.679-.001.429-.002.858 0 1.288.571.005 1.142.003 1.713.002.004-3.793-.002-7.586.002-11.379.378.084.745.22 1.129.281.234.026.395-.269.262-.455-.721-1.054-1.49-2.074-2.25-3.1zM7.482 9.822c.412 1.279.814 2.563 1.275 3.826.085.222.413.25.539.049.189-.366.291-.771.454-1.15.891.519 1.288 1.587 1.31 2.576.016 1.406.002 2.814.007 4.22.541.002 1.082.002 1.624 0-.004-1.517.009-3.033-.006-4.55-.024-1.438-.714-2.862-1.883-3.716.305-.271.646-.502.934-.791.155-.184.007-.49-.227-.494-1.342-.022-2.685.007-4.026.03zm-5.548.836c.412 1.274.81 2.555 1.27 3.813.078.254.467.266.57.025.166-.362.276-.748.433-1.114.867.522 1.277 1.557 1.306 2.534.021 1.142.001 2.286.01 3.429.541 0 1.082.001 1.622-.001-.002-1.246.01-2.493-.006-3.739-.03-1.43-.722-2.84-1.883-3.687.302-.267.639-.494.926-.778.178-.194.003-.534-.256-.512-1.33-.017-2.661.01-3.99.031z"/>
    <path d="M.362 2.801h23.276c.001 6.14.002 12.28-.001 18.42-7.758.002-15.516.002-23.274 0C.36 15.081.361 8.941.362 2.801zm.402.401C.762 9.074.762 14.947.764 20.82c7.491.002 14.982.002 22.473 0 .002-5.873.002-11.746 0-17.618C15.746 3.2 8.255 3.2.764 3.202z"/>
    <path d="M19.854 4.716c.76 1.026 1.53 2.046 2.25 3.1.134.186-.028.482-.262.455-.384-.061-.75-.197-1.129-.281-.005 3.793.002 7.586-.002 11.379-.571.002-1.142.003-1.713-.002-.002-.43-.001-.859 0-1.288.034-1.311-.417-2.608-1.158-3.679-.846-1.058-1.769-2.082-2.92-2.814-.146.355-.249.729-.418 1.074-.117.227-.481.182-.54-.066-.43-1.189-.806-2.398-1.2-3.599 1.266-.035 2.534-.052 3.802-.035.243-.019.41.298.243.483-.274.272-.598.488-.886.745 1.2.728 2.35 1.63 3.076 2.854.001-1.684.002-3.368-.001-5.052-.387.085-.761.23-1.154.283-.239.006-.374-.305-.224-.482.719-1.043 1.48-2.058 2.236-3.074zM7.482 9.822c1.342-.022 2.685-.052 4.026-.03.234.004.382.31.227.494-.288.289-.629.52-.934.791 1.169.854 1.859 2.278 1.883 3.716.015 1.517.002 3.033.006 4.55-.542.002-1.083.002-1.624 0-.006-1.406.009-2.814-.007-4.22-.022-.989-.419-2.057-1.31-2.576-.162.378-.265.783-.454 1.15-.126.201-.454.173-.539-.049-.462-1.262-.863-2.546-1.275-3.826zM1.934 10.658c1.33-.021 2.66-.048 3.99-.031.259-.022.434.318.256.512-.286.283-.624.51-.926.778 1.161.847 1.853 2.258 1.883 3.687.017 1.246.005 2.493.006 3.739-.541.002-1.082.001-1.622.001-.009-1.143.011-2.286-.01-3.429-.029-.977-.438-2.011-1.306-2.534-.157.366-.266.753-.433 1.114-.102.241-.492.23-.57-.025-.461-1.258-.858-2.538-1.27-3.813z"/>
</svg>
