<svg xmlns="http://www.w3.org/2000/svg" width="24" height="24">
    <path fill="#231f20" d="M11.568.772c.59-.08 1.169.188 1.574.606 3.253 3.108 6.509 6.212 9.755 9.326.776.68.701 1.984-.079 2.632-3.13 3.114-6.238 6.25-9.368 9.362-.68.662-1.866.665-2.533-.018-3.289-3.151-6.583-6.296-9.876-9.444-.719-.635-.703-1.844-.018-2.498 3.046-3.073 6.116-6.121 9.172-9.186.368-.386.823-.733 1.374-.78zm-.365.364c-.325.12-.577.37-.82.607-3.034 3.047-6.084 6.076-9.114 9.126-.625.55-.676 1.615-.04 2.178 3.295 3.145 6.589 6.293 9.884 9.439.583.612 1.64.565 2.209-.043 3.14-3.138 6.282-6.278 9.419-9.421.584-.56.578-1.588-.036-2.126-3.264-3.137-6.544-6.258-9.818-9.383a1.567 1.567 0 0 0-1.685-.377z"/>
    <path fill="#231f20" d="M11.321 1.495c.606-.175 1.273.022 1.712.467 3.055 2.906 6.103 5.82 9.15 8.735.72.607.774 1.799.096 2.458-2.962 2.96-5.914 5.933-8.884 8.884-.696.694-1.921.625-2.557-.114-3.019-2.903-6.056-5.786-9.083-8.681-.721-.605-.749-1.794-.078-2.447 2.809-2.83 5.634-5.646 8.452-8.467.344-.342.702-.719 1.192-.834zm.121.358c-.377.084-.661.362-.924.625C7.681 5.322 4.83 8.152 2 11.004c-.54.486-.588 1.41-.04 1.91 3.086 2.954 6.18 5.904 9.271 8.855.502.509 1.391.498 1.894-.001 2.95-2.93 5.884-5.878 8.827-8.814.577-.516.565-1.494-.036-1.986-3.019-2.902-6.056-5.786-9.082-8.681-.353-.371-.888-.576-1.393-.434z"/>
    <path fill="#231f20" d="M13.001 4.24c1.012-.197 1.229 1.493.199 1.56-.982.149-1.172-1.459-.199-1.56zM13.08 6.235c.34-.343.995-.384 1.204.121.311.814.366 1.7.576 2.543.035.293.235.74-.138.898-.787.398-1.63.677-2.436 1.036a5.3 5.3 0 0 1 .178.382c.52.004 1.04.005 1.56-.001l.26-.467c-.212-.019-.426-.037-.637-.065.355-.454 1.006-.474 1.504-.698.085.245.076.499.04.752-.186.006-.373.01-.559.014-.497.556.242 1.073.475 1.572 1.098-.517 2.536-.037 3.035 1.085.613 1.183-.083 2.772-1.355 3.148-1.201.425-2.593-.362-2.909-1.584-.587.037-1.168.162-1.757.154-.492-.095-.539-.684-.398-1.074-.857-.739-1.717-1.471-2.576-2.207l-.372.652c.962.667 1.33 2.069.679 3.074-.586 1.025-2.023 1.424-3.042.816-1.123-.589-1.522-2.172-.808-3.222.577-.953 1.861-1.291 2.866-.847.288-.554.623-1.086.881-1.655-.019-.31-.269-.613-.119-.923.38-.346.943-.252 1.416-.264-.199-.233-.395-.601-.09-.841.832-.809 1.662-1.622 2.524-2.398zm-1.992 3.169l-.016.421c-.515.01-1.042-.035-1.542.116.072.247.151.493.246.734-.091.18-.184.359-.276.539.576.002 1.151 0 1.726.002-.101-.342-.403-.823-.029-1.102.671-.394 1.424-.626 2.128-.958a42.77 42.77 0 0 0-.575-1.249c-.562.49-1.096 1.012-1.662 1.495zM9.342 11.56c.931.74 1.759 1.636 2.768 2.262.554.4 1.148.005 1.747.065a2.803 2.803 0 0 1 .959-1.432c-.2-.304-.403-.606-.613-.904-.242.456-.478.914-.726 1.368l-.161-.347a36.3 36.3 0 0 1 .527-1.018c-.412-.004-.823-.005-1.235-.004.22.562.526 1.088.698 1.667.13.575-.788.79-1.02.3-.329-.638-.566-1.32-.888-1.962-.686.007-1.372.002-2.057.004zm-3.646 2.182c-.418 1.052.318 2.327 1.42 2.532 1.009.242 2.089-.51 2.266-1.519.156-.736-.185-1.506-.781-1.945-.229.412-.488.808-.696 1.231-.104.229.029.572-.247.707-.283.119-.582-.164-.492-.454.571-.414.794-1.1 1.133-1.688-.998-.421-2.255.096-2.602 1.136zm9.592-1.134c.348.553.644 1.15 1.116 1.61.184.164.023.523-.217.528-.642.101-1.294.115-1.934.216.294.791 1.078 1.405 1.945 1.34 1.172-.038 2.095-1.31 1.735-2.437-.286-1.106-1.603-1.711-2.645-1.258zm-1.08 1.308c.515.046 1.031.078 1.548.108-.247-.416-.499-.83-.761-1.238-.37.292-.642.683-.787 1.13z"/>
    <path fill="#fff100" d="M11.203 1.136a1.567 1.567 0 0 1 1.685.377c3.275 3.125 6.554 6.246 9.818 9.383.614.539.62 1.566.036 2.126a9295.831 9295.831 0 0 1-9.419 9.421c-.569.608-1.626.655-2.209.043-3.295-3.146-6.589-6.294-9.884-9.439-.636-.563-.586-1.628.04-2.178 3.03-3.05 6.08-6.079 9.114-9.126.242-.238.494-.487.82-.607zm.118.359c-.49.115-.847.492-1.192.834-2.818 2.821-5.642 5.638-8.452 8.467-.671.653-.643 1.842.078 2.447 3.026 2.894 6.064 5.778 9.083 8.681.636.739 1.861.808 2.557.114 2.97-2.951 5.922-5.923 8.884-8.884.678-.659.624-1.85-.096-2.458a4715.986 4715.986 0 0 0-9.15-8.735c-.439-.445-1.106-.642-1.712-.467z"/>
    <path fill="#fff100" d="M11.442 1.853c.505-.142 1.04.064 1.393.434 3.025 2.894 6.062 5.779 9.082 8.681.601.492.613 1.47.036 1.986-2.944 2.936-5.878 5.884-8.827 8.814-.503.499-1.392.51-1.894.001-3.091-2.951-6.185-5.9-9.271-8.855-.548-.5-.5-1.424.04-1.91 2.83-2.852 5.681-5.682 8.518-8.526.263-.263.547-.541.924-.625zm1.559 2.387c-.973.101-.782 1.709.199 1.56 1.03-.067.812-1.757-.199-1.56zm.079 1.995c-.862.775-1.692 1.589-2.524 2.398-.305.24-.109.608.09.841-.473.012-1.036-.082-1.416.264-.15.31.1.613.119.923-.258.569-.593 1.1-.881 1.655-1.004-.444-2.288-.106-2.866.847-.714 1.05-.316 2.633.808 3.222 1.019.608 2.456.209 3.042-.816.65-1.006.283-2.407-.679-3.074.125-.217.248-.434.372-.652.859.736 1.72 1.468 2.576 2.207-.14.39-.094.979.398 1.074.589.008 1.17-.116 1.757-.154.316 1.222 1.708 2.009 2.909 1.584 1.272-.376 1.968-1.964 1.355-3.148-.499-1.122-1.937-1.602-3.035-1.085-.233-.499-.972-1.016-.475-1.572.186-.005.373-.008.559-.014.036-.253.046-.508-.04-.752-.498.224-1.148.245-1.504.698.211.028.425.046.637.065l-.26.467c-.52.006-1.04.005-1.56.001a5.3 5.3 0 0 0-.178-.382c.806-.359 1.649-.637 2.436-1.036.373-.157.173-.605.138-.898-.21-.842-.265-1.729-.576-2.543-.209-.505-.864-.464-1.204-.121z"/>
    <path fill="#fff100" d="M11.088 9.404c.566-.484 1.1-1.006 1.662-1.495.198.413.39.829.575 1.249-.703.331-1.457.564-2.128.958-.374.278-.072.76.029 1.102-.575-.002-1.15 0-1.726-.002.092-.18.185-.359.276-.539a8.428 8.428 0 0 1-.246-.734c.5-.151 1.027-.107 1.542-.116l.016-.421zM9.342 11.56c.685-.001 1.37.004 2.057-.004.322.642.559 1.324.888 1.962.232.49 1.15.275 1.02-.3-.173-.578-.479-1.105-.698-1.667.412-.001.823 0 1.235.004-.18.337-.358.674-.527 1.018l.161.347c.248-.454.484-.912.726-1.368.21.298.413.6.613.904a2.8 2.8 0 0 0-.959 1.432c-.599-.06-1.193.335-1.747-.065-1.009-.626-1.837-1.522-2.768-2.262zM5.696 13.742c.347-1.04 1.603-1.558 2.602-1.136-.338.588-.562 1.274-1.133 1.688-.09.289.209.572.492.454.276-.134.143-.478.247-.707.208-.424.467-.82.696-1.231.596.439.937 1.21.781 1.945-.176 1.009-1.256 1.762-2.266 1.519-1.102-.205-1.837-1.48-1.42-2.532zM15.288 12.608c1.042-.454 2.359.151 2.645 1.258.36 1.127-.563 2.399-1.735 2.437-.868.065-1.651-.55-1.945-1.34.641-.101 1.292-.115 1.934-.216.24-.005.401-.364.217-.528-.472-.461-.768-1.057-1.116-1.61z"/>
    <path fill="#fff100" d="M14.208 13.916c.145-.448.418-.839.787-1.13.262.408.514.822.761 1.238a49.856 49.856 0 0 1-1.548-.108z"/>
</svg>
