<svg xmlns="http://www.w3.org/2000/svg" width="24" height="24">
    <path fill="#231f20" d="M11.683 1.136a1.824 1.824 0 0 1 1.844.452c3.296 3.146 6.598 6.288 9.883 9.445.703.652.664 1.86-.035 2.501-3.139 3.142-6.278 6.283-9.421 9.421-.659.671-1.837.713-2.519.053l-9.941-9.504c-.716-.647-.67-1.859.025-2.504 2.989-3.01 6.001-5.999 8.993-9.007.343-.34.692-.714 1.17-.857zm.121.246c-.368.097-.658.36-.92.622-3.054 3.066-6.122 6.12-9.173 9.19-.595.545-.631 1.574-.025 2.124 3.314 3.166 6.629 6.334 9.946 9.497.572.563 1.576.516 2.129-.05 3.146-3.136 6.282-6.282 9.426-9.421.62-.565.619-1.636-.029-2.182-3.245-3.116-6.505-6.216-9.757-9.326-.403-.425-1.027-.63-1.596-.452z"/>
    <path fill="#231f20" d="M12.168 1.726c.52-.037 1.024.197 1.382.564 3.052 2.909 6.103 5.819 9.148 8.736.678.602.715 1.744.079 2.39-2.93 2.95-5.881 5.88-8.814 8.827-.629.686-1.805.779-2.486.12-3.107-2.975-6.224-5.94-9.331-8.915-.664-.628-.623-1.772.03-2.393C5.03 8.189 7.893 5.332 10.75 2.47c.373-.396.852-.737 1.418-.745zm-.481.495c-.262.114-.467.32-.668.517C8.187 5.587 5.329 8.41 2.5 11.263c-.55.48-.629 1.406-.083 1.92 3.082 2.959 6.182 5.902 9.268 8.857.533.564 1.5.5 2.009-.062 2.918-2.926 5.843-5.845 8.764-8.768.532-.503.532-1.434-.032-1.913-3.04-2.922-6.095-5.828-9.14-8.744-.401-.425-1.06-.584-1.597-.331z"/>
    <path fill="#231f20" d="M11.664 5.012c1.066-.008 2.132-.005 3.198-.002.004 4.9.001 9.8.001 14.7-1.067.002-2.134.006-3.2-.002-.005-1.915.005-3.832-.005-5.747-1.916-.006-3.834.008-5.752-.007-.002-1.062-.002-2.125.001-3.187 1.916-.016 3.834-.001 5.75-.007.01-1.915-.001-3.832.006-5.747z"/>
    <path fill="#fff100" d="M11.804 1.382c.569-.178 1.193.028 1.596.452 3.252 3.11 6.512 6.21 9.757 9.326.648.546.649 1.616.029 2.182-3.144 3.139-6.28 6.286-9.426 9.421-.553.566-1.556.613-2.129.05C8.314 19.65 5 16.482 1.685 13.316c-.606-.55-.57-1.579.025-2.124 3.05-3.07 6.119-6.124 9.173-9.19.263-.262.552-.524.92-.622zm.364.344c-.566.008-1.045.349-1.418.745-2.857 2.862-5.72 5.719-8.574 8.585-.653.62-.694 1.765-.03 2.393 3.107 2.975 6.224 5.94 9.331 8.915.682.659 1.858.566 2.486-.12 2.933-2.947 5.884-5.878 8.814-8.827.636-.647.599-1.788-.079-2.39a4715.404 4715.404 0 0 0-9.148-8.736c-.359-.367-.863-.601-1.382-.564z"/>
    <path fill="#fff100" d="M11.687 2.221c.538-.253 1.196-.094 1.597.331 3.046 2.916 6.101 5.822 9.14 8.744.564.479.564 1.41.032 1.913-2.921 2.923-5.845 5.843-8.764 8.768-.509.563-1.476.626-2.009.062-3.085-2.956-6.186-5.898-9.268-8.857-.546-.514-.467-1.44.083-1.92 2.828-2.852 5.687-5.676 8.519-8.525.202-.197.407-.403.668-.517zm-.023 2.791c-.007 1.915.004 3.832-.006 5.747-1.916.006-3.834-.008-5.75.007a483.667 483.667 0 0 0-.001 3.187c1.918.016 3.835.001 5.752.007.01 1.915 0 3.832.005 5.747 1.067.008 2.134.005 3.2.002 0-4.9.002-9.8-.001-14.7-1.066-.002-2.132-.006-3.198.002z"/>
</svg>
