<svg xmlns="http://www.w3.org/2000/svg" width="24" height="24">
    <path fill="#ecca00" opacity=".93" d="M11.716 0h.526c.268.113.524.257.731.463 3.502 3.5 7.002 7.004 10.506 10.504.236.228.402.515.522.818v.335c-.095.311-.242.611-.482.835-3.523 3.518-7.043 7.039-10.562 10.562-.222.23-.511.379-.811.482h-.265c-.316-.086-.618-.229-.845-.468-3.522-3.522-7.04-7.048-10.567-10.565a2.335 2.335 0 0 1-.467-.698v-.534c.184-.554.66-.919 1.052-1.322 3.301-3.301 6.604-6.599 9.9-9.904.217-.218.481-.386.763-.509zm.205.298c-.276.012-.497.194-.684.378C7.699 4.22 4.155 7.755.619 11.301c-.395.326-.442.974-.044 1.319 3.582 3.582 7.165 7.163 10.746 10.746.316.384.949.42 1.286.046 3.604-3.599 7.205-7.201 10.805-10.802.377-.338.336-.971-.043-1.291-3.535-3.547-7.08-7.085-10.618-10.63-.217-.224-.502-.428-.83-.39z"/>
    <path d="M11.921.298c.329-.038.613.166.83.39 3.538 3.545 7.082 7.082 10.618 10.63.379.32.42.953.043 1.291-3.6 3.601-7.201 7.204-10.805 10.802-.337.374-.971.338-1.286-.046C7.74 19.782 4.157 16.201.575 12.619c-.397-.344-.35-.992.044-1.319C4.154 7.754 7.699 4.219 11.237.675c.187-.184.408-.366.684-.378zm-.105.48C8.194 4.269 4.69 7.893 1.106 11.427c-.247.206-.545.596-.218.876 3.578 3.588 7.166 7.168 10.745 10.753a.456.456 0 0 0 .722-.014c3.56-3.563 7.122-7.124 10.684-10.686a.459.459 0 0 0 .02-.726c-3.532-3.553-7.087-7.082-10.625-10.628-.156-.157-.385-.356-.618-.223z"/>
    <path d="M5.704 8.267c.57-.581 1.148-1.154 1.728-1.726.803.066 1.608.103 2.408.19.509.06 1.128.367 1.148.948.014 1.626.01 3.253.008 4.88.64-.271 1.079.496.578.944.305.395.484.863.704 1.306l.377-.238c.196-.51.098-1.212.618-1.536.323-.241.637-.534 1.055-.588-.426-.284-.401-1.171.19-1.206.612.056.649.877.247 1.219.958.36.85 1.75 1.925 2.024-.046.095-.092.188-.14.282-.563-.115-1.05-.432-1.421-.866.11.481.305.935.562 1.355-.194.595.146 1.193.265 1.774.226.055.45.113.673.179a10.35 10.35 0 0 1-1.046.281c-.052-.713-.606-1.27-.566-1.999-.815-.031-1.404.541-1.948 1.067-.218.182-.002.46.031.682l-.284-.038a14.189 14.189 0 0 1-.386-.637c.389-.379.749-.792 1.193-1.11l-.121-.234c.3-.63.481-1.313.515-2.012-.703.191-.83.929-.96 1.544-.292.172-.554.385-.835.574-.343-.04-.425-.491-.635-.722-.137.887.306 1.714.372 2.588.196.052.391.102.586.157-.325.1-.655.182-.986.26-.168-.482-.11-1.163-.589-1.458-.018.445-.013.892-.018 1.338l-.848.001c-.004-.295.026-.601-.085-.882a8.947 8.947 0 0 0-.046.881h-.866c-.002-.456-.002-.912-.005-1.367-1.039-.001-2.078-.002-3.118.001-.836-.816-1.675-1.634-2.478-2.482-.098-.94-.013-1.901-.043-2.848-.049-.282.176-.473.338-.664l.085.395c.452-.005.905-.004 1.357-.005.114-.708-.283-1.601.322-2.14.024.713.005 1.426.013 2.138 1.052-.006 2.106.02 3.158-.01.158-.69.022-1.498.064-2.234-1.032-.008-2.064.005-3.095-.007zm3.42.007c-.002.749-.004 1.498.001 2.246l1.582-.001c.008-.748.005-1.496.002-2.244a83.748 83.748 0 0 0-1.585-.001z"/>
    <path fill="#ffdb00" d="M11.816.778c.233-.133.462.066.618.223 3.538 3.546 7.093 7.075 10.625 10.628a.46.46 0 0 1-.02.726L12.355 23.041a.456.456 0 0 1-.722.014C8.055 19.469 4.467 15.89.888 12.302c-.326-.28-.029-.67.218-.876C4.69 7.892 8.194 4.268 11.816.777zM5.704 8.267c1.031.012 2.063-.001 3.095.007-.042.737.095 1.544-.064 2.234-1.052.03-2.106.004-3.158.01-.008-.713.011-1.426-.013-2.138-.605.539-.208 1.432-.322 2.14-.452.001-.905 0-1.357.005a45.806 45.806 0 0 1-.085-.395c-.162.191-.388.382-.338.664.03.947-.055 1.908.043 2.848a90.61 90.61 0 0 0 2.478 2.482c1.039-.004 2.078-.002 3.118-.001.002.455.002.911.005 1.367h.866c.005-.294.012-.588.046-.881.112.281.082.587.085.882l.848-.001c.005-.446 0-.893.018-1.338.479.295.421.976.589 1.458.331-.078.661-.161.986-.26-.194-.055-.39-.106-.586-.157-.066-.875-.509-1.702-.372-2.588.21.232.292.683.635.722.281-.188.544-.402.835-.574.13-.616.257-1.354.96-1.544a5.279 5.279 0 0 1-.515 2.012l.121.234c-.444.318-.804.731-1.193 1.11.124.216.252.428.386.637l.284.038c-.034-.222-.25-.499-.031-.682.544-.526 1.133-1.098 1.948-1.067-.04.73.515 1.286.566 1.999.353-.076.702-.168 1.046-.281a14.508 14.508 0 0 0-.673-.179c-.119-.581-.46-1.178-.265-1.774a4.563 4.563 0 0 1-.562-1.355c.371.434.858.751 1.421.866.048-.094.095-.187.14-.282-1.075-.275-.967-1.664-1.925-2.024.402-.342.365-1.163-.247-1.219-.59.035-.616.922-.19 1.206-.418.054-.732.347-1.055.588-.52.324-.422 1.026-.618 1.536l-.377.238c-.221-.443-.4-.911-.704-1.306.5-.449.061-1.216-.578-.944.001-1.627.006-3.254-.008-4.88-.02-.581-.64-.888-1.148-.948-.8-.086-1.606-.124-2.408-.19a140.6 140.6 0 0 0-1.728 1.726z"/>
    <path fill="#ffdb00" d="M9.124 8.274a83.748 83.748 0 0 1 1.585.001c.002.748.006 1.496-.002 2.244l-1.582.001c-.005-.749-.004-1.498-.001-2.246z"/>
</svg>
