<svg xmlns="http://www.w3.org/2000/svg" width="24" height="24">
    <path fill="#32291e" d="M10.739.247c.292-.265.777-.226 1.059.036.958.813 1.86 1.688 2.794 2.528 1.05.965 2.117 1.911 3.13 2.915-.054.086-.225.195-.107.298.183.148.381.28.521.474.068.106.26.184.212.332-2.265-2.048-4.5-4.127-6.752-6.188-.106-.096-.24-.173-.388-.156-.242-.003-.385.218-.528.379C9.525 2.187 8.395 3.532 7.235 4.85 5.57 6.787 3.86 8.684 2.202 10.626c-.477.567-.978 1.115-1.462 1.676-.183.197-.183.539.025.719 3.65 3.437 7.323 6.85 10.972 10.288.128.126.312.229.497.176.208-.063.333-.256.48-.403 2.892-3.29 5.761-6.6 8.723-9.828-.035.352-.396.532-.59.795-.185.264-.424.478-.658.695-.09.065-.093.172-.081.271-.107.036-.246.058-.294.175-.02.133.091.221.206.257-1.669 1.87-3.333 3.743-4.988 5.625-.703.794-1.391 1.6-2.117 2.371-.174.169-.339.369-.57.46-.2.023-.437.057-.606-.081-.301-.211-.571-.461-.841-.71-1.788-1.669-3.568-3.347-5.356-5.017-1.648-1.543-3.3-3.082-4.921-4.654-.224-.212-.463-.476-.423-.81-.014-.308.216-.536.399-.754C2.22 9.98 3.877 8.111 5.511 6.224c1.488-1.73 2.987-3.449 4.476-5.178.244-.273.476-.559.751-.802z"/>
    <path fill="#bd8603" d="M10.68.865c.143-.161.286-.382.528-.379.148-.017.283.06.388.156 2.251 2.061 4.487 4.141 6.752 6.188a943.58 943.58 0 0 1 4.571 4.146c.176.182.148.496-.023.673-.483.538-.989 1.056-1.458 1.607-2.962 3.227-5.832 6.538-8.723 9.828-.147.147-.272.34-.48.403-.185.053-.369-.05-.497-.176-3.65-3.438-7.323-6.85-10.972-10.288-.208-.18-.208-.522-.025-.719.484-.562.985-1.109 1.462-1.676 1.658-1.942 3.368-3.84 5.033-5.776 1.161-1.318 2.29-2.663 3.445-3.985zm3.918 5.437a1.262 1.262 0 0 0-.5.367c-.068.076.039.155.07.224l-.145.043c-.24-.258-.608-.241-.924-.321-.417-.101-.854-.001-1.236.174a3.474 3.474 0 0 1-.146-.008l-.019-.068c-.48-.223-1.159-.396-1.591.019-.04.247-.264.391-.265.649l.062.12c-.195.167-.235.563.056.65.143.035.172.174.199.299.086-.021.174-.041.263-.046l.015.244c-.67.52-1.485.806-2.2 1.256-.498.234-.825.693-1.147 1.12-.3.385-.542.814-.707 1.274-.274.729-.559 1.494-.475 2.287.07.502.51.825.877 1.121l-.19.089c-.315.019-.675-.058-.945.15a.42.42 0 0 1 .005.357c.296.184.645.153.972.213-.071.1-.141.205-.15.33.134.036.271.056.41.066.018.072-.021.187.068.218.416-.005.815-.155 1.232-.148.313-.035.63-.022.943-.062 1.558.131 3.12-.068 4.67-.229l.129-.05c.084.19.114.405.243.573.037-.268.174-.483.422-.596.107.153.193.32.245.5l.077-.009c.041-.235.01-.507.225-.668.137.084.206.232.273.372.048-.081.088-.17.073-.267.02-.072.048-.143.057-.217a.906.906 0 0 0 .263-.083c.523-.074 1.065-.037 1.57-.219.023-.153.052-.308.017-.461.187-.099.398-.128.603-.166l-.019-.075c-.495.001-.991.046-1.486.032-.086-.008-.163-.05-.24-.084-.405-.43-.89-.857-1.009-1.465-.176-.774-.492-1.508-.863-2.207a.41.41 0 0 1-.078-.349c.078-.518.234-1.029.308-1.551-.044-.423.13-.83.069-1.254.131-.091.286-.089.432-.039l.027-.141c.215-.023.341-.215.473-.363.114-.125.065-.312.15-.45.097-.139-.07-.278-.08-.42-.016-.196-.079-.406-.236-.535a1.272 1.272 0 0 0-.844-.192z"/>
    <path fill="#362e26" d="M17.615 6.025c-.118-.103.052-.212.107-.298.119.11.226.233.307.375.14.039.273.099.377.206 1.308 1.183 2.624 2.357 3.924 3.549.362.352.768.672 1.052 1.094.201.41-.038.848-.287 1.175-.213.212-.447.402-.674.598-.393.405-.702.883-1.117 1.267-.418.494-.85.977-1.283 1.457-.115-.036-.226-.124-.206-.257.048-.117.187-.139.294-.175-.013-.099-.009-.206.081-.271.234-.218.474-.432.658-.695.194-.263.555-.443.59-.795.469-.551.975-1.068 1.458-1.607.171-.176.199-.49.023-.673a943.58 943.58 0 0 0-4.571-4.146c.048-.148-.144-.226-.212-.332-.14-.194-.338-.326-.521-.474z"/>
    <path fill="#2c271f" d="M14.598 6.302c.29-.033.6.03.844.192.156.129.22.339.236.535.01.142.178.281.08.42-.085.138-.036.325-.15.45-.132.148-.258.34-.473.363l-.027.141c-.146-.05-.301-.052-.432.039.061.423-.113.83-.069 1.254-.074.523-.229 1.033-.308 1.551-.182.378-.463.706-.589 1.114.264-.221.331-.576.547-.832l.12.067c.371.7.687 1.433.863 2.207.118.607.604 1.035 1.009 1.465.07.083.168.137.28.125.41-.009.821-.007 1.231-.006-.13.03-.259.07-.384.116-.012.157-.027.314-.046.47a3.581 3.581 0 0 1-.832.161c-.232.023-.48-.01-.692.107a.906.906 0 0 1-.263.083c-.143-.545-.572-.935-.884-1.382-.484-.605-.862-1.283-1.291-1.925-.166-.244-.283-.537-.54-.704.093.199.232.371.352.554-.241-.02-.327-.266-.387-.463-.007-.099.092-.2.012-.291-.207-.331-.515-.587-.701-.934-.16-.313-.546-.456-.631-.815.382-.035.595.315.788.582.281.268.457.623.752.878.226.206.347.492.439.777a.993.993 0 0 0 .205-.445c.044-.219.204-.384.314-.571.265-.424.267-.942.416-1.407.094-.271-.299-.221-.463-.237-.306-.017-.164.366-.225.551-.074.161.036.307.107.445-.262.104-.705.294-.881-.031-.088-.125-.212-.217-.317-.326.168-.297-.042-.617-.056-.926-.009-.272-.333-.12-.502-.139-.053-.195-.23-.305-.381-.419-.099-.108-.331-.263-.161-.408.221-.143.507-.207.769-.191.245.025.279.296.337.484.14-.057.271-.143.42-.177.155.008.304.065.458.089.01-.157-.085-.383.094-.474.299-.155.703-.122.931.144.01-.188.165-.3.274-.434l.114.078c.319-.103.623-.342.693-.684a2.042 2.042 0 0 0-.155-.835c-.106-.243-.413-.154-.622-.181-.236-.044-.435.165-.51.366.12.24.207.507.177.78-.025.109-.178.21-.253.083-.089-.212-.02-.493-.215-.658-.211-.136-.416-.318-.685-.304-.426-.018-.923-.165-1.302.091-.075.272.025.639-.271.807.083-.288.124-.585.1-.885.382-.175.819-.275 1.236-.174.317.08.684.064.924.321.264.194.246.544.296.834.117-.292.017-.625-.15-.877-.031-.068-.138-.148-.07-.224.134-.157.306-.293.5-.367zm-1.022 2.434c.233-.094.474-.171.728-.173l-.029-.072c-.228-.067-.721-.092-.699.245zm-2.029.03l-.011.081c.11.088.266.183.388.057.154-.146.364-.159.564-.14-.25-.303-.637-.062-.942.002zm2.296-.002c-.147.041-.209.239-.12.36.079.103.225.084.34.079.18-.008.259-.272.125-.384-.089-.09-.231-.069-.345-.055zm-1.911.374c.043.34.678.25.56-.094-.144-.197-.488-.143-.56.094zm.771.073c-.035.359-.001.735.14 1.07.099.24.418.197.619.132l.083.049a1.416 1.416 0 0 1-.837.097c.21.293.778.197.904-.144l-.054-.201c.041-.347.209-.747-.027-1.06-.19-.253-.725-.303-.828.056zm-1.112 1.24c.092.218.326.32.453.514.424.558.892 1.086 1.272 1.676-.12-.548-.59-.899-.896-1.339-.262-.294-.478-.652-.828-.851zm1.432.505c.178.064.372.03.55-.015.078-.019.085-.099.07-.164-.2.084-.424.089-.62.179zm1.956 4.257c.189-.098.398-.12.607-.092-.129-.219-.538-.14-.607.092z"/>
    <path fill="#262522" d="M10.106 6.73c.432-.415 1.111-.241 1.591-.019l.019.068c.091.274.08.57-.011.842l.057.05c.296-.168.196-.536.271-.807.379-.256.876-.109 1.302-.091.269-.014.474.168.685.304.195.165.126.446.215.658.074.126.228.026.253-.083.03-.272-.057-.54-.177-.78.074-.201.274-.41.51-.366.209.027.516-.062.622.181.104.263.168.552.155.835-.069.342-.373.581-.693.684a5.631 5.631 0 0 1-.114-.078c-.109.134-.263.245-.274.434-.227-.265-.632-.299-.931-.144-.178.091-.084.317-.094.474-.154-.024-.302-.081-.458-.089-.149.034-.28.12-.42.177-.057-.189-.092-.46-.337-.484a1.305 1.305 0 0 0-.769.191c-.17.145.062.3.161.408-.076.088-.214.19-.169.325.064.116.088.257.178.357.13.073.289.031.431.029-.018-.098-.033-.197-.059-.293.169.019.493-.132.502.139.014.309.224.629.056.926.105.109.228.201.317.326.175.324.619.135.881.031-.071-.137-.181-.284-.107-.445.062-.185-.081-.569.225-.551.163.016.556-.034.463.237-.149.465-.151.983-.416 1.407-.11.187-.27.351-.314.571a.967.967 0 0 1-.205.445c-.093-.285-.214-.571-.439-.777-.294-.254-.47-.61-.752-.878-.193-.266-.406-.617-.788-.582.085.36.471.502.631.815.185.347.494.603.701.934.08.091-.019.193-.012.291.06.197.146.443.387.463.358.543.635 1.137 1.03 1.654.373.536.814 1.026 1.141 1.593.01.114.014.229.019.345-.24-.133-.43.049-.546.248-.231-.229-.524-.068-.696.144-.317-.495-.201-1.257-.796-1.557-.364-.586-1.023-.857-1.575-1.225-.673-.458-1.146-1.146-1.521-1.857-.145-.267-.195-.581-.378-.828.026.152.075.299.122.446.012.19.035.378.079.563-.709-.071-1.539.076-1.946.726a.75.75 0 0 0-.033.026c-.197.041-.287.228-.257.417.348.01.412-.402.685-.528.216-.108.417-.276.666-.29.265-.011.534-.13.793-.007.423.188.707.59.885 1.006.152.369.168.902-.229 1.123-.182.077-.434.229-.281.457l.139-.037c-.108.113-.199.247-.204.409-.034.222-.141.531.094.679.21.081.421-.108.314-.322a2.04 2.04 0 0 1 .048-.046c.066.105.108.235.212.311.225.101.395-.159.622-.12.203.017.08-.264.188-.348.25-.078.517-.022.773-.059.294-.019.601-.137.889-.04.19.222.163.54.167.814-.097-.018-.2-.059-.298-.021-.441.148-.911.135-1.366.202-.648-.048-1.293.079-1.941.051-.876-.065-1.758.012-2.626.13.316-.344.646-.68.991-.993.271-.053.551.118.83.074.142-.036.244-.149.333-.257l.036-.043c-.376.045-.763.161-1.134.013-.529-.227-1.087.182-1.623-.015-.367-.296-.807-.619-.877-1.121-.083-.792.201-1.558.475-2.287.165-.46.407-.889.707-1.274.322-.427.649-.886 1.147-1.12.715-.451 1.53-.736 2.2-1.256a9.98 9.98 0 0 1-.015-.244 1.478 1.478 0 0 0-.263.046c-.027-.125-.056-.264-.199-.299-.291-.088-.251-.484-.056-.65l-.062-.12c0-.257.225-.402.265-.649zm.467 1.843c.068.255-.005.56.194.767.274.253.233.734.596.915-.098-.231-.282-.421-.332-.673-.022-.167-.202-.219-.288-.341-.072-.219.032-.499-.169-.669z"/>
    <path fill="#b4944e" d="M11.716 6.78l.146.008c.023.3-.017.597-.1.885l-.057-.05c.091-.272.102-.568.011-.842z"/>
    <path fill="#a08d4f" d="M14.168 6.892c.167.251.267.585.15.877-.049-.29-.032-.64-.296-.834l.145-.043z"/>
    <path fill="#b78e2b" d="M13.576 8.736c-.022-.337.471-.312.699-.245l.029.072c-.254.002-.495.079-.728.173z"/>
    <path fill="#7d6e57" d="M10.573 8.573c.201.169.097.449.169.669.087.122.267.174.288.341.05.252.234.442.332.673-.362-.182-.322-.662-.596-.915-.198-.207-.126-.512-.193-.767z"/>
    <path fill="#b68418" d="M11.547 8.766c.304-.064.692-.305.942-.002-.2-.019-.41-.006-.564.14-.122.126-.279.031-.388-.057l.011-.081z"/>
    <path fill="#b98809" d="M13.843 8.764c.114-.014.255-.035.345.055.134.112.055.376-.125.384-.115.006-.26.024-.34-.079-.089-.121-.027-.319.12-.36z"/>
    <path fill="#b6860a" d="M11.932 9.138c.072-.238.416-.291.56-.094.118.345-.517.434-.56.094z"/>
    <path fill="#bd8704" d="M12.703 9.211c.103-.359.639-.309.828-.056.236.313.067.713.027 1.06-.029.067-.063.133-.096.198-.201.066-.52.108-.619-.132a2.219 2.219 0 0 1-.14-1.07z"/>
    <path fill="#403e37" d="M11.501 9.42c-.045-.135.093-.237.169-.325.151.114.328.224.381.419.025.096.041.195.059.293-.142.002-.301.044-.431-.029-.09-.1-.114-.241-.178-.357z"/>
    <path fill="#af8b2b" d="M13.558 10.215l.054.201c-.126.341-.694.437-.904.144.285.052.571.021.837-.097l-.083-.049c.033-.065.067-.131.096-.198z"/>
    <path fill="#ad8d40" d="M11.591 10.451c.35.199.566.557.828.851.306.44.776.791.896 1.339-.379-.591-.847-1.118-1.272-1.676-.127-.194-.361-.296-.453-.514zM14.979 15.213c.07-.232.478-.311.607-.092a1.009 1.009 0 0 0-.607.092z"/>
    <path fill="#b38f3e" d="M13.023 10.956c.196-.09.42-.095.62-.179.015.065.008.145-.07.164-.178.045-.372.079-.55.015z"/>
    <path fill="#ab8c3f" d="M13.71 12.362c.126-.408.407-.736.589-1.114a.41.41 0 0 0 .078.349l-.12-.067c-.216.256-.283.611-.547.832zM6.784 15.704c.536.197 1.093-.212 1.623.015.371.148.758.031 1.134-.013l-.036.043c-.131.014-.243.083-.356.144-.495.09-.951-.276-1.444-.142-.366.095-.74.051-1.112.043l.19-.089z"/>
    <path fill="#b68e32" d="M9.857 11.385c.184.248.233.561.378.828.375.71.848 1.399 1.521 1.857.552.367 1.21.639 1.575 1.225.144.233.403.41.43.702.025.221.086.435.168.641l-.129.05c-.142-.356-.06-.802-.35-1.09-.225-.229-.342-.555-.629-.724-.587-.379-1.221-.698-1.723-1.194.043.153.096.305.112.465.044.495-.362.983-.857 1.028.148-.145.36-.195.509-.337.277-.334.273-.834.062-1.201-.195-.353-.395-.75-.768-.943-.55-.228-1.192-.074-1.678.237-.245.141-.378.401-.581.589.042-.132.102-.258.181-.372l.033-.026c.229-.169.432-.379.7-.49.44-.188.942-.178 1.404-.087-.085-.235-.157-.475-.236-.712-.046-.147-.096-.294-.122-.446z"/>
    <path fill="#4d2e04" d="M9.979 11.832c.08.237.151.477.236.712-.463-.092-.964-.102-1.404.087-.267.111-.471.321-.7.49.407-.649 1.237-.797 1.946-.726a3.453 3.453 0 0 1-.079-.563z"/>
    <path fill="#b38f40" d="M12.826 12.314c.257.166.374.46.54.704.43.642.807 1.32 1.291 1.925.312.447.741.838.884 1.382-.009.074-.037.145-.057.217a1.322 1.322 0 0 0-.136-.428c-.327-.566-.768-1.057-1.141-1.593-.396-.517-.673-1.111-1.03-1.654-.12-.183-.259-.354-.352-.554z"/>
    <path fill="#2a261e" d="M8.478 12.929c.486-.311 1.128-.465 1.678-.237.373.192.574.59.768.943.21.367.215.867-.062 1.201-.149.141-.361.192-.509.337.495-.045.9-.533.857-1.028-.016-.159-.069-.312-.112-.465.502.497 1.136.815 1.723 1.194.287.169.404.495.629.724.29.287.208.734.35 1.09-1.55.161-3.112.36-4.67.229-.313.04-.629.027-.943.062-.416-.007-.816.143-1.232.148-.088-.031-.05-.147-.068-.218a2.111 2.111 0 0 1-.41-.066c.009-.126.079-.23.15-.33-.327-.06-.676-.029-.972-.213a.42.42 0 0 0-.005-.357c.27-.208.629-.13.945-.15.372.008.746.052 1.112-.043.492-.134.949.232 1.444.142.113-.061.225-.13.356-.144-.089.109-.192.222-.333.257-.279.044-.559-.127-.83-.074-.345.313-.675.65-.991.993.868-.118 1.75-.194 2.626-.13.648.027 1.293-.099 1.941-.051.455-.067.925-.054 1.366-.202.098-.038.2.003.298.021-.004-.273.023-.592-.167-.814-.288-.097-.596.021-.889.04-.256.037-.523-.019-.773.059-.108.084.015.365-.188.348-.227-.038-.397.222-.622.12-.103-.075-.145-.205-.212-.311l-.048.047c.106.214-.104.403-.314.322-.235-.148-.128-.457-.094-.679.006-.162.097-.296.204-.409l-.139.037c-.153-.227.099-.379.281-.457.397-.221.381-.755.229-1.123-.178-.416-.461-.818-.885-1.006-.259-.123-.527-.004-.793.007-.25.015-.451.182-.666.29-.273.126-.337.538-.685.528-.03-.189.06-.377.257-.417-.079.114-.139.24-.181.372.202-.188.335-.448.581-.589zm2.175 2.369c-.12.11-.283.234-.271.416.089.03.178.059.267.086a3.207 3.207 0 0 0-.29.084.282.282 0 0 0 .197.414c-.045-.165-.051-.346.085-.472.289-.015.257.312.448.431.034-.146.081-.293.192-.401.136.038.162.18.203.294.092-.071.108-.183.11-.292-.141-.059-.293-.073-.441-.101a4.63 4.63 0 0 0 .675-.054c-.008-.141-.068-.285-.198-.354-.292-.193-.657-.104-.977-.052zm1.313.375a1.243 1.243 0 0 0-.002.061c.426-.015.851-.062 1.274-.108.05-.001.076-.029.079-.083-.453.016-.9.101-1.351.13z"/>
    <path fill="#b88509" d="M10.653 15.298c.32-.052.685-.141.977.052.13.069.19.212.198.354a4.62 4.62 0 0 1-.675.054c.148.028.3.043.441.101-.002.109-.018.221-.11.292-.041-.114-.068-.256-.203-.294-.111.107-.158.255-.192.401-.191-.119-.159-.446-.448-.431-.136.125-.13.306-.085.472a.282.282 0 0 1-.197-.414c.096-.032.192-.06.29-.084a7.562 7.562 0 0 1-.267-.086c-.013-.182.15-.306.271-.416z"/>
    <path fill="#592f03" d="M16.249 15.269c.077.033.155.076.24.084.495.014.991-.031 1.486-.032l.019.075c-.205.038-.416.067-.603.166.036.153.007.309-.017.461-.506.182-1.047.145-1.57.219.212-.117.46-.084.692-.107a3.52 3.52 0 0 0 .832-.161c.019-.157.035-.313.046-.47a3.26 3.26 0 0 1 .384-.116c-.41-.001-.821-.003-1.231.006a.321.321 0 0 1-.28-.125z"/>
    <path fill="#4e2605" d="M13.331 15.295c.594.3.479 1.061.796 1.557.172-.211.465-.373.696-.144.116-.199.306-.381.546-.248-.006-.115-.009-.23-.019-.345.069.134.116.278.136.428.015.096-.025.186-.073.267-.067-.14-.135-.288-.273-.372-.214.161-.184.433-.225.668l-.077.009a1.71 1.71 0 0 0-.245-.5c-.248.113-.385.328-.422.596-.129-.168-.159-.383-.243-.573a2.536 2.536 0 0 1-.168-.641c-.027-.292-.286-.469-.43-.702z"/>
    <path fill="#8b7643" d="M11.966 15.673c.451-.029.898-.114 1.351-.13-.003.054-.029.081-.079.083-.424.046-.848.093-1.274.108l.002-.061z"/>
</svg>
