<svg xmlns="http://www.w3.org/2000/svg" width="24" height="24">
    <path fill="#ffd033" d="M11.738 0h.461c.248.107.488.242.682.434 3.361 3.361 6.72 6.722 10.086 10.079.394.398.862.769 1.033 1.327v.272c-.151.583-.649.949-1.048 1.36l-9.48 9.481c-.402.392-.764.87-1.324 1.046h-.264c-.56-.13-.918-.596-1.306-.979-3.18-3.181-6.355-6.365-9.538-9.542-.38-.388-.827-.739-1.042-1.254v-.438c.191-.533.646-.888 1.028-1.278l9.421-9.419c.402-.394.768-.846 1.289-1.09zm-.159.422C7.906 3.984 4.332 7.657.693 11.256c-.389.301-.554.92-.162 1.29 3.616 3.626 7.24 7.247 10.86 10.87.31.356.91.349 1.214-.01l10.8-10.802c.396-.332.343-.962-.044-1.279-3.562-3.56-7.127-7.118-10.687-10.681-.263-.308-.738-.47-1.094-.221z"/>
    <path fill="#ffd033" d="M11.911.75c.216-.055.372.134.516.26 3.536 3.545 7.084 7.081 10.62 10.626.204.16.275.475.048.65-3.6 3.606-7.204 7.21-10.808 10.81-.174.224-.493.157-.646-.053C8.063 19.459 4.477 15.881.9 12.297c-.236-.179-.169-.502.044-.667C4.48 8.084 8.028 4.548 11.566 1.002c.106-.094.208-.204.344-.252zM7.57 5.894c-.002.995-.03 1.992.01 2.984.39.596.948 1.068 1.326 1.672.042.966 0 1.934.018 2.902-.428.574-.973 1.066-1.346 1.673-.038.977-.004 1.955-.013 2.933.097-.001.292-.002.389-.004.018-.848-.025-1.699.017-2.546.589-.832 1.35-1.536 1.967-2.348.052-.772.047-1.555.002-2.327-.612-.817-1.364-1.528-1.967-2.351-.052-.792.007-1.588-.019-2.382.048-.234-.251-.168-.383-.205zm4.212.027c-.007.846-.005 1.693-.001 2.54.143-.016.288-.02.432-.017-.007-.841.001-1.681-.006-2.522l-.425-.001zm4.252-.001c-.02.852.026 1.706-.018 2.557-.596.823-1.349 1.529-1.96 2.342-.056.776-.067 1.577.005 2.351.608.817 1.386 1.512 1.956 2.351.041.844-.002 1.69.017 2.533l.389.002c-.025-1 .056-2.011-.037-3.002-.412-.556-.894-1.055-1.322-1.598.016-.97-.024-1.939.017-2.906.379-.605.941-1.075 1.328-1.673.042-.984.001-1.97.016-2.956l-.39-.001zm-4.252 4.806c-.006.846-.008 1.692.001 2.538.142-.004.282-.005.424-.006.005-.844.005-1.687 0-2.53l-.425-.002zm0 4.806c-.007.845-.006 1.69 0 2.534l.425-.001c.005-.844.005-1.687 0-2.531l-.425-.002z"/>
    <path d="M11.579.422c.356-.25.832-.088 1.094.221 3.56 3.563 7.126 7.121 10.687 10.681.388.317.44.947.044 1.279l-10.8 10.802c-.305.359-.905.366-1.214.01-3.62-3.623-7.244-7.243-10.86-10.87-.392-.37-.227-.989.162-1.29C4.332 7.656 7.905 3.983 11.578.421zm.332.328c-.137.048-.239.158-.344.252C8.028 4.548 4.481 8.084.945 11.63c-.214.166-.281.488-.044.667 3.577 3.584 7.163 7.162 10.741 10.746.152.21.472.277.646.053 3.605-3.6 7.208-7.204 10.808-10.81.227-.175.156-.491-.048-.65-3.536-3.545-7.084-7.081-10.62-10.626-.144-.126-.3-.316-.516-.26z"/>
    <path d="M7.57 5.894c.132.037.431-.029.383.205.026.794-.032 1.59.019 2.382.602.823 1.355 1.534 1.967 2.351.044.772.049 1.555-.002 2.327-.617.812-1.378 1.517-1.967 2.348-.042.847.001 1.698-.017 2.546-.097.001-.292.002-.389.004.01-.978-.025-1.956.013-2.933.373-.607.918-1.099 1.346-1.673-.018-.967.024-1.936-.018-2.902-.378-.604-.936-1.075-1.326-1.672-.04-.992-.012-1.99-.01-2.984zM16.034 5.92l.39.001c-.014.985.026 1.972-.016 2.956-.388.598-.949 1.068-1.328 1.673-.041.967-.001 1.937-.017 2.906.428.544.911 1.043 1.322 1.598.094.991.012 2.003.037 3.002a50.443 50.443 0 0 0-.389-.002c-.019-.844.024-1.69-.017-2.533-.57-.839-1.348-1.534-1.956-2.351a14.417 14.417 0 0 1-.005-2.351c.611-.814 1.363-1.519 1.96-2.342.044-.851-.002-1.705.018-2.557z"/>
    <path fill="#030201" d="M11.782 5.921l.425.001c.007.841-.001 1.681.006 2.522a3.115 3.115 0 0 0-.432.017c-.004-.847-.006-1.694.001-2.54zM11.782 10.726l.425.002c.005.842.005 1.686 0 2.53-.142.001-.282.002-.424.006a134.2 134.2 0 0 1-.001-2.538zM11.782 15.532l.425.002c.005.844.005 1.687 0 2.531l-.425.001c-.006-.845-.007-1.69 0-2.534z"/>
</svg>
