<svg xmlns="http://www.w3.org/2000/svg" width="24" height="24">
    <path fill="#4c4c4c" opacity=".82" d="M11.551 1.333h.989c.135.092.267.189.396.289a2.344 2.344 0 0 0-1.767.001c.124-.1.251-.197.38-.291z"/>
    <path fill="#fff" d="M11.171 1.624a2.34 2.34 0 0 1 1.767-.001c.504.373.775.954 1.08 1.483 2.107 3.654 4.219 7.305 6.324 10.958.003.2.108.38.287.473.863 1.551 1.773 3.076 2.652 4.618l.146.26c.214.353.419.714.6 1.084-.028.493-.078.986-.252 1.452-.404.281-.82.636-1.348.599-6.875 0-13.749-.004-20.623.003a2.59 2.59 0 0 1-1.1-.257 3.614 3.614 0 0 1-.336-.342c-.491-.806-.176-1.724.263-2.469 1.236-2.127 2.476-4.254 3.688-6.396a.526.526 0 0 0 .285-.473c1.957-3.397 3.922-6.793 5.879-10.19.177-.306.41-.581.687-.802zm.681.108c-.457.053-.82.386-1.029.78C7.417 8.428 3.993 14.333.589 20.252c-.563.812.098 2.066 1.09 2.036 6.916.004 13.834.004 20.75 0 .694.016 1.3-.623 1.298-1.307.013-.45-.264-.828-.471-1.203C19.914 14 16.582 8.216 13.242 2.437c-.26-.494-.832-.802-1.388-.704z"/>
    <path fill="#fff" d="M11.96 4.015c.263-.079.426.172.535.365 3.006 5.231 6.042 10.445 9.039 15.679.236.308-.087.697-.439.613-6.068-.004-12.137.012-18.205-.008-.5.016-.435-.579-.19-.845 2.994-5.168 5.973-10.345 8.963-15.516.078-.112.152-.255.298-.289zm.692 2.577c-.068.139-.108.294-.025.437.484 1.212.974 2.425 1.455 3.639-1.351.003-2.701.004-4.052 0 .461-1.156.918-2.313 1.388-3.465.065-.19.197-.41.036-.599-1.867 4.438-3.589 8.94-5.4 13.403h5.889c0-.393.001-.786.004-1.178l.214-.001c.004.393.004.786.004 1.179h5.888c-1.812-4.467-3.535-8.973-5.404-13.415z"/>
    <path fill="#fff" d="M11.943 16.503l.224.001c-.001.39-.001.781-.006 1.172-.053-.001-.16-.001-.213-.003-.004-.39-.004-.781-.004-1.172z"/>
    <path fill="red" d="M11.852 1.732c.556-.098 1.128.21 1.388.704C16.581 8.216 19.912 14 23.254 19.777c.207.375.484.753.471 1.203.001.684-.604 1.322-1.298 1.307-6.916.004-13.834.004-20.75 0-.992.03-1.652-1.225-1.09-2.036 3.404-5.918 6.828-11.824 10.234-17.74.209-.394.572-.727 1.029-.78zm.108 2.283c-.146.034-.22.177-.298.289C8.673 9.475 5.693 14.652 2.699 19.82c-.244.267-.309.86.19.845 6.068.02 12.137.004 18.205.008.352.084.675-.305.439-.613-2.997-5.235-6.034-10.449-9.039-15.679-.109-.193-.272-.444-.535-.365z"/>
    <path d="M12.652 6.592c1.868 4.442 3.592 8.948 5.404 13.415h-5.888c0-.393-.001-.786-.004-1.179l-.214.001c-.004.392-.004.785-.004 1.178H6.057c1.811-4.463 3.532-8.964 5.4-13.403.162.189.029.409-.036.599-.47 1.152-.927 2.309-1.388 3.465 1.351.004 2.701.003 4.052 0-.481-1.213-.971-2.426-1.455-3.639-.084-.143-.042-.299.025-.437zm-.718 5.228a57.92 57.92 0 0 0 0 1.179c.06 0 .179.001.238.003V11.82l-.238.001zm.005 2.329c.085.387-.244 1.083.231 1.225.007-.409.004-.817.004-1.226l-.235.001zm.004 2.354c.001.39.001.781.004 1.172.053.001.16.001.213.003.004-.392.004-.782.006-1.172l-.224-.001z"/>
    <path fill="#e3e3e3" d="M11.934 11.82l.238-.001v1.182l-.238-.003a57.92 57.92 0 0 1 0-1.179z"/>
    <path fill="#545454" opacity=".86" d="M4.318 13.088a.494.494 0 0 1 .285-.473.536.536 0 0 1-.285.473z"/>
    <path fill="#e2e2e2" d="M11.939 14.149l.235-.001c0 .409.004.817-.004 1.226-.476-.142-.146-.837-.231-1.225z"/>
    <path fill="#4f4f4f" opacity=".84" d="M20.341 14.063a.49.49 0 0 1 .287.473.532.532 0 0 1-.287-.473z"/>
    <path fill="#8c8c8c" d="M23.28 19.153l.146.26c-.036-.065-.108-.196-.146-.26z"/>
    <path fill="#4f4f4f" opacity=".81" d="M0 20.5c.155-.372.385-.702.63-1.017-.439.745-.753 1.663-.263 2.469-.123-.147-.244-.295-.368-.441v-1.012z"/>
    <path fill="#4f4f4f" opacity=".84" d="M24.026 20.499l.079-.209v1.158c-.101.172-.212.34-.332.502.173-.467.224-.959.252-1.452z"/>
    <path fill="#636363" opacity=".98" d="M22.427 22.549c.527.036.944-.318 1.348-.599a2.248 2.248 0 0 1-.901.716H1.243a5.2 5.2 0 0 1-.538-.372c.345.158.717.261 1.1.257 6.874-.007 13.748-.003 20.623-.003z"/>
</svg>
