<svg xmlns="http://www.w3.org/2000/svg" width="24" height="24">
    <path fill="#231f20" d="M12.407.776c.62-.092 1.243.181 1.667.629 3.101 3.101 6.205 6.197 9.298 9.305.69.642.742 1.844.037 2.496-3.312 3.169-6.628 6.336-9.941 9.504-.703.695-1.938.618-2.596-.102-3.132-3.148-6.283-6.278-9.414-9.426-.655-.65-.652-1.819.035-2.447 3.222-3.098 6.462-6.18 9.691-9.271.334-.336.738-.635 1.223-.688zm-.256.336c-.305.104-.545.328-.776.544-3.206 3.073-6.427 6.131-9.631 9.208-.625.523-.673 1.552-.096 2.126 3.136 3.145 6.281 6.282 9.419 9.425.552.619 1.609.7 2.207.101 3.314-3.163 6.629-6.328 9.941-9.494.598-.554.557-1.574-.035-2.118-3.089-3.113-6.199-6.203-9.296-9.307-.427-.472-1.121-.697-1.732-.484z"/>
    <path fill="#231f20" d="M12.161 1.496c.666-.198 1.397.062 1.856.565 2.902 2.899 5.806 5.795 8.698 8.704.65.617.697 1.756.04 2.386-3.104 2.976-6.221 5.941-9.329 8.914-.659.642-1.801.598-2.436-.056L2.172 13.19c-.69-.642-.68-1.84.034-2.461 2.96-2.839 5.933-5.668 8.898-8.502.31-.295.63-.617 1.057-.73zm.121.36c-.343.084-.602.34-.851.575-2.981 2.86-5.982 5.699-8.956 8.564-.569.482-.58 1.418-.04 1.925 2.944 2.939 5.882 5.884 8.826 8.821.49.509 1.378.551 1.892.058 3.094-2.947 6.182-5.902 9.272-8.851.558-.486.554-1.412.02-1.914-2.888-2.912-5.801-5.802-8.698-8.706-.366-.397-.935-.625-1.468-.472z"/>
    <path fill="#231f20" d="M6.762 9.57a240.48 240.48 0 0 1 3.785-5.035c1.254 1.674 2.51 3.348 3.737 5.044-.812-.154-1.618-.341-2.431-.488.155 1.283.317 2.621 1.003 3.745.53.888 1.502 1.462 1.841 2.473.456 1.314.409 2.74.32 4.109-.874-.032-1.746-.098-2.62-.125.024-1.184-.026-2.426-.599-3.493-.56-1.079-1.648-1.77-2.176-2.87-.578-1.184-.613-2.544-.566-3.835-.767.148-1.525.338-2.294.476z"/>
    <path fill="#fff100" d="M12.151 1.112c.611-.214 1.304.012 1.732.484 3.097 3.104 6.208 6.194 9.296 9.307.592.544.632 1.564.035 2.118-3.312 3.167-6.626 6.331-9.941 9.494-.598.599-1.655.518-2.207-.101-3.138-3.143-6.283-6.28-9.419-9.425-.577-.575-.529-1.603.096-2.126 3.204-3.077 6.425-6.134 9.631-9.208.232-.216.472-.439.776-.544zm.01.384c-.427.113-.748.434-1.057.73-2.965 2.834-5.938 5.663-8.898 8.502-.714.622-.724 1.819-.034 2.461l8.818 8.819c.635.654 1.777.698 2.436.056 3.108-2.972 6.224-5.938 9.329-8.914.658-.63.611-1.769-.04-2.386-2.892-2.909-5.796-5.804-8.698-8.704-.46-.503-1.19-.763-1.856-.565z"/>
    <path fill="#fff100" d="M12.282 1.856c.533-.154 1.102.074 1.468.472 2.897 2.904 5.809 5.794 8.698 8.706.534.502.538 1.428-.02 1.914-3.09 2.95-6.179 5.904-9.272 8.851-.515.493-1.403.451-1.892-.058-2.944-2.938-5.882-5.882-8.826-8.821-.54-.506-.529-1.442.04-1.925 2.974-2.866 5.975-5.705 8.956-8.564.248-.235.508-.491.851-.575zM6.762 9.57c.769-.138 1.528-.329 2.294-.476-.047 1.291-.012 2.651.566 3.835.528 1.1 1.615 1.792 2.176 2.87.572 1.067.623 2.309.599 3.493.874.026 1.746.092 2.62.125.089-1.369.136-2.795-.32-4.109-.338-1.012-1.31-1.585-1.841-2.473-.686-1.124-.848-2.462-1.003-3.745.814.148 1.619.335 2.431.488-1.226-1.696-2.483-3.37-3.737-5.044a243.136 243.136 0 0 0-3.785 5.035z"/>
</svg>
