<svg xmlns="http://www.w3.org/2000/svg" width="24" height="24">
    <path fill="#fcdc0f" d="M11.843 0h.308c.247.179.473.385.684.604C16.542 4.358 20.323 8.04 24 11.822v.366a952.67 952.67 0 0 1-11.804 11.813h-.359A835.258 835.258 0 0 1 0 12.176v-.313c.449-.581 1.013-1.056 1.518-1.585C4.968 6.862 8.352 3.373 11.843.001zM.588 12.008c3.81 3.8 7.607 7.614 11.42 11.41 3.811-3.798 7.612-7.607 11.418-11.41C19.624 8.196 15.814 4.393 12.008.586 8.2 4.391 4.392 8.196.588 12.008z"/>
    <path fill="#fcdc0f" d="M11.554 1.835c.478-.234 1.044-.029 1.381.35 2.998 3.002 6.006 5.996 8.998 9.005.452.422.458 1.2.005 1.624-3.04 3.043-6.079 6.085-9.124 9.122-.422.455-1.199.451-1.619-.007-3.044-3.038-6.085-6.08-9.125-9.124-.473-.444-.421-1.254.064-1.67 2.876-2.882 5.761-5.759 8.639-8.642.244-.236.469-.509.781-.658zM6.998 9.046c-1.613.217-2.813 1.906-2.477 3.502.229 1.374 1.523 2.471 2.918 2.459 3.04.002 6.08.004 9.12 0 1.433.004 2.76-1.145 2.951-2.567.31-1.73-1.192-3.474-2.947-3.428-3.188.018-6.38-.05-9.565.035z"/>
    <path fill="#fcdc0f" d="M11.563 9.896c1.487-.379 2.978 1.164 2.539 2.636-.239 1.025-1.306 1.766-2.351 1.619-1.057-.106-1.932-1.088-1.901-2.153-.02-.991.744-1.915 1.712-2.102z"/>
    <path d="M.588 12.008C4.392 8.197 8.201 4.392 12.008.586c3.806 3.806 7.616 7.609 11.418 11.422-3.806 3.803-7.607 7.612-11.418 11.41-3.814-3.796-7.61-7.609-11.42-11.41zM11.554 1.835c-.312.149-.538.421-.781.658-2.878 2.884-5.762 5.76-8.639 8.642-.485.416-.536 1.226-.064 1.67 3.04 3.043 6.08 6.085 9.125 9.124.42.458 1.196.462 1.619.007 3.044-3.037 6.084-6.079 9.124-9.122.454-.424.448-1.201-.005-1.624-2.992-3.008-6-6.002-8.998-9.005-.337-.379-.904-.584-1.381-.35z"/>
    <path d="M6.998 9.046c3.185-.085 6.377-.017 9.565-.035 1.756-.046 3.257 1.698 2.947 3.428-.191 1.422-1.518 2.57-2.951 2.567-3.04.004-6.08.002-9.12 0-1.396.012-2.689-1.085-2.918-2.459-.336-1.596.864-3.284 2.477-3.502zm.006.855c-.959.197-1.71 1.115-1.69 2.098-.031 1.056.83 2.033 1.877 2.149 1.04.16 2.111-.564 2.365-1.582.473-1.489-1.048-3.067-2.552-2.665zm4.559-.005c-.968.187-1.733 1.111-1.712 2.102-.031 1.064.844 2.047 1.901 2.153 1.045.148 2.112-.594 2.351-1.619.439-1.472-1.052-3.016-2.539-2.636zm4.558-.004c-1.024.185-1.816 1.192-1.732 2.234.032 1.027.901 1.936 1.922 2.028 1.043.136 2.098-.611 2.329-1.633.425-1.462-1.043-2.989-2.52-2.629z"/>
    <path fill="#0ca64d" d="M7.004 9.901c1.505-.402 3.025 1.176 2.552 2.665-.254 1.018-1.325 1.741-2.365 1.582-1.046-.116-1.908-1.093-1.877-2.149-.02-.983.731-1.901 1.69-2.098z"/>
    <path fill="#ed1c23" d="M16.121 9.892c1.477-.36 2.945 1.168 2.52 2.629-.232 1.022-1.286 1.769-2.329 1.633-1.021-.092-1.89-1.001-1.922-2.028-.084-1.043.708-2.05 1.732-2.234z"/>
</svg>
