<svg xmlns="http://www.w3.org/2000/svg" width="24" height="24">
    <path fill="#ec1d24" d="M11.766 1.333h.553c.48.135.924.422 1.154.876 3.436 5.963 6.873 11.925 10.31 17.886.128.23.234.471.323.719v.523a1.911 1.911 0 0 1-1.219 1.328H1.235a1.884 1.884 0 0 1-1.236-1.283v-.627c.2-.502.489-.961.758-1.427 3.288-5.712 6.577-11.422 9.868-17.134.229-.446.67-.724 1.14-.863zm.229 2.798C8.837 9.609 5.671 15.083 2.524 20.568c6.348.003 12.695.003 19.044 0A9287.536 9287.536 0 0 0 12.11 4.142l-.115-.012z"/>
    <path fill="#fff" d="M11.995 4.131c.028.003.085.01.115.012 3.156 5.473 6.313 10.947 9.458 16.426-6.348.003-12.695.003-19.044 0C5.671 15.084 8.837 9.61 11.995 4.132zm-.815 4.404c.023 1.188.085 2.38-.065 3.562-.148.609-.658 1.017-1.056 1.466-1.124 1.222-2.303 2.388-3.463 3.576.58.607 1.188 1.188 1.761 1.802.921-.918 1.816-1.866 2.754-2.769.012 1.234-.004 2.468-.001 3.702.845.004 1.69-.001 2.535.004.003-3.779.017-7.557.02-11.334-.828.001-1.656-.017-2.485-.008z"/>
    <path d="M11.18 8.535c.829-.008 1.657.01 2.485.008-.004 3.777-.018 7.556-.02 11.334-.845-.004-1.69.001-2.535-.004-.004-1.234.013-2.468.001-3.702-.938.903-1.833 1.85-2.754 2.769-.572-.615-1.181-1.195-1.761-1.802 1.159-1.188 2.34-2.354 3.463-3.576.397-.448.908-.857 1.056-1.466.15-1.182.088-2.374.065-3.562z"/>
</svg>
