<svg xmlns="http://www.w3.org/2000/svg" width="24" height="24">
    <path fill="#fbdf0a" d="M11.662 0h.602c.253.125.499.271.701.472 3.254 3.266 6.521 6.522 9.779 9.785.454.462.984.878 1.256 1.483v.445c-.131.306-.299.599-.54.832-3.247 3.234-6.482 6.481-9.725 9.719-.467.458-.89.991-1.502 1.265h-.438c-.275-.118-.545-.258-.758-.472-3.276-3.284-6.56-6.562-9.84-9.844-.428-.437-.923-.832-1.196-1.392v-.604c.269-.559.757-.953 1.184-1.385l9.121-9.12C10.731.759 11.127.29 11.662 0zm-.089.42C7.883 3.959 4.324 7.65.683 11.245c-.467.353-.536 1.072-.064 1.453 3.558 3.564 7.12 7.126 10.684 10.684.331.389.97.433 1.316.041 3.588-3.574 7.165-7.16 10.746-10.741a.89.89 0 0 0-.005-1.358C19.798 7.764 16.238 4.201 12.675.64c-.269-.304-.743-.466-1.103-.22z"/>
    <path fill="#000101" d="M11.573.42c.36-.246.834-.084 1.103.22 3.563 3.56 7.123 7.123 10.685 10.684a.89.89 0 0 1 .005 1.358c-3.581 3.581-7.158 7.168-10.746 10.741-.347.392-.985.348-1.316-.041C7.74 19.824 4.178 16.262.62 12.698c-.473-.382-.403-1.1.064-1.453C4.325 7.65 7.884 3.959 11.574.42zm.339.336c-.32.122-.526.436-.774.662A6925.6 6925.6 0 0 1 .996 11.558c-.228.175-.362.529-.108.745 3.575 3.589 7.163 7.166 10.745 10.75a.455.455 0 0 0 .726-.008c3.562-3.563 7.126-7.123 10.686-10.688a.45.45 0 0 0 .005-.721C19.512 8.092 15.964 4.557 12.43 1.01c-.14-.132-.302-.302-.517-.253z"/>
    <path fill="#ffdb00" d="M11.912.756c.215-.049.377.121.517.253 3.534 3.547 7.082 7.082 10.62 10.626a.45.45 0 0 1-.005.721c-3.56 3.565-7.124 7.126-10.686 10.688a.454.454 0 0 1-.726.008c-3.582-3.583-7.17-7.16-10.745-10.75-.254-.216-.12-.57.108-.745a6925.6 6925.6 0 0 0 10.142-10.14c.248-.227.454-.54.774-.662zM3.36 12.232a511.976 511.976 0 0 1 5.195 5.122c2.566-.007 5.131.005 7.697-.006l-.018-.332c-1.12-.024-2.243.049-3.358-.038-.877-1.416-1.606-2.93-2.432-4.381-.21-.272-.028-.589.094-.854.545-1.142 1.042-2.306 1.598-3.443.101-.229.265-.49.108-.733-.458-1.006-.907-2.016-1.378-3.017C8.36 7.107 5.87 9.681 3.36 12.234zm10.124-2.585c-.56.054-.865.809-.484 1.229.328.462 1.114.344 1.306-.182.232-.517-.264-1.153-.822-1.046zm.956 2.889c-.54.04-.884.74-.552 1.182.289.484 1.087.443 1.319-.074.301-.505-.194-1.202-.767-1.108zm.72 2.759c-.497.05-.846.658-.583 1.1.236.551 1.118.559 1.36.007.305-.509-.202-1.211-.776-1.108z"/>
    <path d="M3.36 12.232c2.51-2.552 5-5.126 7.506-7.684.47 1.001.919 2.011 1.378 3.017.157.244-.007.504-.108.733-.557 1.136-1.054 2.3-1.598 3.443-.121.265-.304.582-.094.854.827 1.451 1.555 2.965 2.432 4.381 1.115.088 2.238.014 3.358.038l.018.332c-2.566.011-5.131-.001-7.697.006C6.839 15.629 5.1 13.93 3.36 12.23z"/>
    <path d="M13.484 9.647c.558-.107 1.054.529.822 1.046-.192.527-.978.644-1.306.182-.382-.42-.077-1.175.484-1.229zM14.44 12.536c.572-.095 1.068.602.767 1.108-.232.517-1.03.558-1.319.074-.332-.442.012-1.142.552-1.182zM15.16 15.295c.575-.103 1.081.599.776 1.108-.241.552-1.123.544-1.36-.007-.263-.443.086-1.05.583-1.1z"/>
</svg>
