<svg xmlns="http://www.w3.org/2000/svg" width="24" height="24">
    <path fill="#e20a16" d="M11.976 1.333h.404c.239.134.441.327.572.569 3.802 6.612 7.636 13.207 11.428 19.824v.437c-.137.148-.272.299-.42.437-6.276-.125-12.561-.019-18.842-.053-1.564.026-3.131-.059-4.692.05-.152-.14-.29-.295-.428-.449v-.367c3.754-6.62 7.611-13.185 11.389-19.793.138-.266.354-.476.587-.657zM3.154 20.526c6.03.006 12.061.004 18.092 0a9777.392 9777.392 0 0 0-9.048-15.668c-3.02 5.22-6.036 10.44-9.044 15.668z"/>
    <path fill="#e20a16" d="M8.3 12.907c2.515-.057 5.036-.012 7.553-.022.275-.068.5.22.298.445-1.233 2.14-2.471 4.28-3.708 6.42a.256.256 0 0 1-.493-.004c-1.225-2.111-2.438-4.23-3.666-6.34-.095-.158-.21-.388.016-.499zm1.78 1.188a709.176 709.176 0 0 0 2.119 3.666c.707-1.22 1.417-2.441 2.116-3.666a747.303 747.303 0 0 0-4.235 0z"/>
    <path fill="#fff" d="M3.154 20.526c3.007-5.228 6.025-10.447 9.044-15.668a9777.392 9777.392 0 0 1 9.048 15.668c-6.03.004-12.061.006-18.092 0zM8.3 12.907c-.226.109-.111.34-.016.499 1.228 2.11 2.441 4.228 3.666 6.34.078.25.41.255.493.004 1.236-2.14 2.475-4.279 3.708-6.42.203-.224-.023-.513-.298-.445-2.517.01-5.038-.036-7.553.022z"/>
    <path fill="#fff" d="M10.08 14.095c1.412-.004 2.823-.004 4.235 0-.7 1.225-1.409 2.445-2.116 3.666a741.313 741.313 0 0 1-2.119-3.666z"/>
    <path fill="#120102" opacity=".08" d="M0 22.15c.138.154.276.308.428.449l.148.068h-.577v-.516z"/>
    <path fill="#190102" opacity=".11" d="M23.962 22.602c.148-.139.283-.289.42-.437v.502h-.556l.137-.065z"/>
    <path fill="#c20813" opacity=".86" d="M.428 22.598c1.562-.108 3.128-.024 4.692-.05 6.281.036 12.564-.072 18.842.053l-.137.065H.576l-.148-.068z"/>
</svg>
