<?xml version="1.0" encoding="utf-8"?>
<!-- Generated by IcoMoon.io -->
<!DOCTYPE svg PUBLIC "-//W3C//DTD SVG 1.1//EN" "http://www.w3.org/Graphics/SVG/1.1/DTD/svg11.dtd">
<svg version="1.1" xmlns="http://www.w3.org/2000/svg" xmlns:xlink="http://www.w3.org/1999/xlink" width="69" height="24" viewBox="0 0 69 24">
<path fill="#fff" d="M63.717 0.102h-58.908c-2.619 0-4.75 2.131-4.75 4.75v14.339c0 2.619 2.131 4.75 4.75 4.75h58.908c1.265 0 2.457-0.495 3.356-1.394s1.394-2.091 1.394-3.356v-14.339c0-2.619-2.131-4.75-4.75-4.75z"></path>
<path fill="#201b17" d="M63.717 0.044h-58.908c-2.652 0-4.809 2.157-4.809 4.809v14.339c0 2.652 2.157 4.809 4.809 4.809h58.908c1.281 0 2.487-0.501 3.398-1.411s1.411-2.117 1.411-3.398v-14.339c-0-2.652-2.157-4.809-4.809-4.809zM68.467 19.191c0 1.265-0.495 2.457-1.394 3.356s-2.091 1.394-3.356 1.394h-58.908c-2.619 0-4.75-2.131-4.75-4.75v-14.339c0-2.619 2.131-4.75 4.75-4.75h58.908c2.619 0 4.75 2.131 4.75 4.75v14.339z"></path>
<path fill="#006f53" d="M63.694 1.865l0.328 0.016c0.355 0.045 0.657 0.131 0.984 0.278l0.254 0.138c0.383 0.246 0.67 0.519 0.933 0.89l0.15 0.247c0.187 0.365 0.293 0.705 0.345 1.112l0.016 0.328-0.004 14.47-0.030 0.3c-0.072 0.402-0.194 0.735-0.398 1.089-0.162 0.252-0.333 0.459-0.549 0.666l-0.223 0.184c-0.33 0.235-0.648 0.389-1.038 0.5-0.199 0.046-0.386 0.075-0.59 0.090l-59.368-0.012c-0.355-0.045-0.657-0.131-0.984-0.279l-0.254-0.138c-0.383-0.246-0.67-0.52-0.933-0.89l-0.15-0.247c-0.187-0.365-0.293-0.705-0.345-1.112l-0.016-0.328 0.004-14.47 0.031-0.3c0.072-0.402 0.194-0.735 0.398-1.089 0.162-0.252 0.333-0.459 0.549-0.666l0.223-0.184c0.33-0.235 0.649-0.389 1.038-0.5 0.199-0.046 0.386-0.075 0.59-0.090z"></path>
<path fill="#fff" d="M22.608 18.008v-6.64l-2.19 6.64-2.208-6.64v6.64h-1.695v-11.832h1.695l2.208 6.64 2.19-6.64h1.713v11.832h-1.713z"></path>
<path fill="#fff" d="M31.844 18.008l-0.83-3.232h-2.543l-0.777 3.232h-1.713l2.949-11.832h1.66l2.949 11.832h-1.695zM29.725 9.707l-0.83 3.408h1.695l-0.865-3.408z"></path>
<path fill="#fff" d="M35.164 18.008v-11.832h1.66v11.832h-1.66z"></path>
<path fill="#fff" d="M44.789 18.008l-3.656-7.929v7.929h-1.695v-11.832h1.695l3.25 7.1v-7.1h1.695v11.832h-1.289z"></path>
<path fill="#fff" d="M5.995 18.008v-8.92h4.193v1.251h-2.915v2.25h1.851v1.225h-1.851v2.942h3.262v1.251h-4.54z"></path>
<path fill="#fff" d="M54.618 18.167c-1.571 0-2.503-1.318-2.503-2.782h1.251c0 0.746 0.373 1.531 1.251 1.531 0.693 0 1.252-0.626 1.252-1.345 0-0.506-0.187-0.879-0.719-1.291-0.186-0.186 0.32 0.16-1.504-1.065-0.719-0.493-1.092-1.185-1.092-1.97 0-1.278 0.998-2.316 2.277-2.316 1.265 0 2.223 0.972 2.263 2.316h-1.225c-0.027-0.626-0.466-1.025-1.039-1.025-0.586 0-1.052 0.439-1.052 1.025 0 0.439 0.186 0.692 0.839 1.065 1.718 0.998 2.476 1.97 2.476 3.262 0 1.438-1.105 2.596-2.476 2.596z"></path>
<path fill="#fff" d="M60.822 10.273v7.735h-1.291v-7.735h-1.624v-1.185h4.54v1.185h-1.624z"></path>
</svg>
