<?xml version="1.0" encoding="utf-8"?>
<!-- Generated by IcoMoon.io -->
<!DOCTYPE svg PUBLIC "-//W3C//DTD SVG 1.1//EN" "http://www.w3.org/Graphics/SVG/1.1/DTD/svg11.dtd">
<svg version="1.1" xmlns="http://www.w3.org/2000/svg" xmlns:xlink="http://www.w3.org/1999/xlink" width="24" height="24" viewBox="0 0 24 24">
<path fill="#fff" d="M1.52 1.485c-0.383 0-0.747 0.15-1.018 0.421-0.296 0.297-0.445 0.703-0.419 1.121 0.014 0.216 0.089 0.418 0.196 0.605l10.497 18.183c0.245 0.424 0.737 0.667 1.219 0.667s0.974-0.243 1.219-0.667l10.497-18.183c0.107-0.187 0.181-0.388 0.196-0.605 0.026-0.418-0.123-0.824-0.419-1.121-0.271-0.271-0.636-0.421-1.018-0.421z"></path>
<path fill="#af1e2d" d="M1.535 2.023c-0.415 0.001-0.807 0.312-0.885 0.722-0.040 0.213-0.003 0.427 0.105 0.615l10.505 18.183c0.093 0.16 0.246 0.28 0.419 0.344 0.1 0.036 0.207 0.055 0.316 0.058 0.109-0.002 0.216-0.021 0.316-0.058 0.173-0.063 0.326-0.184 0.419-0.344l10.505-18.183c0.108-0.188 0.145-0.401 0.105-0.615-0.079-0.41-0.47-0.721-0.885-0.722z"></path>
<path fill="#fff" d="M7.774 5.617c-0.413 0-0.799 0.295-0.878 0.707-0.041 0.214-0.019 0.424 0.090 0.615l4.227 7.337c0.168 0.29 0.441 0.471 0.783 0.469 0.342 0.002 0.615-0.179 0.783-0.469l4.227-7.337c0.109-0.191 0.132-0.401 0.090-0.615-0.079-0.412-0.465-0.707-0.878-0.707z"></path>
<path fill="#af1e2d" d="M9.372 7.192l-0.346-0.772h-0.336l0.528 1.181v0.999h0.308v-0.999l0.527-1.181h-0.336l-0.346 0.772z"></path>
<path fill="#af1e2d" d="M11.493 7.578h0.463v-0.306h-0.463v-0.545h0.751v-0.307h-1.056v2.18h1.090v-0.304h-0.785v-0.718z"></path>
<path fill="#af1e2d" d="M12.953 6.42h-0.306v2.18h1.091v-0.289h-0.785v-1.891z"></path>
<path fill="#af1e2d" d="M14.932 8.053c-0.035 0.141-0.159 0.243-0.306 0.243h-0.215v-1.569h0.223c0.134 0 0.257 0.090 0.294 0.219 0.051 0.18 0.062 0.378 0.063 0.563 0 0.181-0.014 0.367-0.059 0.543zM15.257 7.024c-0.031-0.181-0.093-0.353-0.242-0.47-0.107-0.085-0.243-0.133-0.381-0.133h-0.528v2.18h0.528c0.149-0.009 0.265-0.039 0.386-0.135 0.201-0.16 0.237-0.404 0.263-0.643 0.030-0.265 0.020-0.536-0.026-0.799z"></path>
<path fill="#af1e2d" d="M10.423 8.6h0.304v-2.18h-0.304v2.18z"></path>
</svg>
