<?xml version="1.0" encoding="utf-8"?>
<!-- Generated by IcoMoon.io -->
<!DOCTYPE svg PUBLIC "-//W3C//DTD SVG 1.1//EN" "http://www.w3.org/Graphics/SVG/1.1/DTD/svg11.dtd">
<svg version="1.1" xmlns="http://www.w3.org/2000/svg" xmlns:xlink="http://www.w3.org/1999/xlink" width="24" height="24" viewBox="0 0 24 24">
<path fill="#000" d="M16.969 23.995l7.027-7.027v-9.937l-7.027-7.027h-9.937l-7.027 7.027v9.937l7.027 7.027z"></path>
<path fill="#fff" d="M16.919 23.876l6.957-6.957v-9.839l-6.957-6.957h-9.839l-6.957 6.957v9.839l6.957 6.957z"></path>
<path fill="#af1e2d" d="M7.327 23.283l-6.609-6.609v-9.347l6.609-6.609h9.347l6.609 6.609v9.347l-6.609 6.609z"></path>
<path fill="#fff" d="M20.775 10.263c0 0.721-0.361 1.138-1.027 1.138h-1.166v-2.249h1.166c0.611 0 1.027 0.444 1.027 1.111zM21.885 10.263c0-1.333-0.833-2.221-2.082-2.221h-2.36v7.913h1.138v-3.471h1.222c1.333 0 2.082-0.777 2.082-2.221zM15.11 11.984c0 0.916-0.055 1.388-0.25 2.027-0.194 0.666-0.5 0.972-0.971 0.972-0.5 0-0.806-0.306-0.999-0.972-0.167-0.638-0.25-1.138-0.25-1.999 0-0.888 0.055-1.416 0.25-2.027 0.194-0.666 0.499-0.972 0.999-0.972 0.472 0 0.777 0.306 0.971 1 0.167 0.583 0.25 1.083 0.25 1.972zM16.193 11.984c0-1.194-0.111-1.944-0.444-2.721-0.389-0.971-0.944-1.36-1.86-1.36s-1.472 0.389-1.888 1.333c-0.333 0.749-0.445 1.554-0.445 2.749 0 1.222 0.112 1.971 0.445 2.748 0.389 0.944 0.944 1.365 1.888 1.365 0.888 0 1.471-0.421 1.86-1.365 0.333-0.749 0.444-1.527 0.444-2.748zM10.945 9.096v-1.055h-4.026v1.055h1.444v6.858h1.138v-6.858h1.444zM6.53 13.789c0-1.138-0.666-1.999-2.193-2.887-0.583-0.333-0.749-0.556-0.749-0.944 0-0.527 0.416-0.916 0.944-0.916 0.5 0 0.888 0.361 0.916 0.916h1.083c-0.028-1.194-0.888-2.054-1.999-2.054-1.138 0-2.027 0.916-2.027 2.054 0 0.694 0.333 1.305 0.972 1.749 1.611 1.083 1.166 0.777 1.333 0.944 0.472 0.361 0.638 0.694 0.638 1.138 0 0.639-0.5 1.194-1.11 1.194-0.777 0-1.111-0.694-1.111-1.361h-1.111c0 1.305 0.833 2.476 2.221 2.476 1.222 0 2.193-1.032 2.193-2.309z"></path>
</svg>
