<?xml version="1.0" encoding="utf-8"?>
<!-- Generated by IcoMoon.io -->
<!DOCTYPE svg PUBLIC "-//W3C//DTD SVG 1.1//EN" "http://www.w3.org/Graphics/SVG/1.1/DTD/svg11.dtd">
<svg version="1.1" xmlns="http://www.w3.org/2000/svg" xmlns:xlink="http://www.w3.org/1999/xlink" width="24" height="24" viewBox="0 0 24 24">
<path fill="#fff" d="M20.346 23.924c0.807 0 1.272-0.489 1.272-1.247v-21.322c0-0.758-0.465-1.247-1.272-1.247h-16.725c-0.807 0-1.272 0.489-1.272 1.247v21.322c0 0.758 0.465 1.247 1.272 1.247h16.725z"></path>
<path fill="#231f20" d="M20.346 23.386h-16.725c-0.44 0-0.734-0.269-0.734-0.709v-21.322c0-0.44 0.293-0.709 0.734-0.709h16.725c0.44 0 0.734 0.269 0.734 0.709v21.322c0 0.44-0.293 0.709-0.734 0.709zM20.591 1.355c0-0.147-0.098-0.22-0.245-0.22h-16.725c-0.147 0-0.245 0.073-0.245 0.22v21.322c0 0.147 0.098 0.22 0.245 0.22h16.725c0.147 0 0.245-0.073 0.245-0.22zM5.207 16.206h1.362c0.672 0 1.164 0.468 1.164 1.105 0 0.427-0.164 0.702-0.585 0.971l0.661 1.819h-0.643l-0.632-1.707-0.731 0.006v1.702h-0.596zM6.622 17.779h0.082c0.234 0 0.421-0.216 0.421-0.491 0-0.257-0.199-0.479-0.433-0.479h-0.889v0.977zM15.788 3.428h1.555c0.602 0 1.058 0.479 1.058 1.094 0 0.602-0.474 1.099-1.053 1.099h-0.947v1.702h-0.614zM17.308 4.995c0.327-0.006 0.491-0.164 0.491-0.497 0-0.275-0.187-0.468-0.456-0.468h-0.941v0.976zM6.313 3.428h0.596v1.567l1.263-1.567h0.76l-1.181 1.509 1.228 2.386h-0.684l-0.965-1.854-0.421 0.515v1.339h-0.596zM9.694 3.428h2.245v0.608h-1.637v0.971h1.123v0.614h-1.123v1.082h1.772v0.62h-2.38zM12.784 3.428h2.245v0.608h-1.637v0.971h1.123v0.614h-1.123v1.082h1.772v0.62h-2.38zM8.598 16.206h0.596v3.894h-0.596zM12.63 18.188v0.737c0 0.713-0.544 1.257-1.251 1.257-0.427 0-0.825-0.216-1.035-0.573-0.211-0.363-0.304-0.789-0.304-1.433 0-0.737 0.135-1.292 0.386-1.608 0.205-0.263 0.596-0.439 0.965-0.439 0.538 0 1.018 0.357 1.187 0.871l-0.573 0.181c-0.088-0.275-0.345-0.462-0.632-0.462-0.491 0-0.748 0.485-0.748 1.392 0 0.977 0.251 1.485 0.731 1.485 0.386 0 0.643-0.269 0.643-0.661v-0.134h-0.637v-0.614zM13.705 16.206h0.602v1.573h1.409v-1.573h0.602v3.894h-0.602v-1.696h-1.403v1.696h-0.608zM17.877 16.756h-0.877v-0.55h2.374v0.55h-0.877v3.345h-0.62zM14.32 13.165h-8.265v-2.299h8.265l-0.391-1.198c-0.098-0.269 0-0.489 0.196-0.611 0.147-0.098 0.367-0.098 0.587 0.049l4.181 2.91-4.181 2.885c-0.22 0.171-0.44 0.171-0.587 0.073-0.196-0.147-0.293-0.367-0.196-0.611l0.391-1.198z"></path>
</svg>
