<?xml version="1.0" encoding="utf-8"?>
<!-- Generated by IcoMoon.io -->
<!DOCTYPE svg PUBLIC "-//W3C//DTD SVG 1.1//EN" "http://www.w3.org/Graphics/SVG/1.1/DTD/svg11.dtd">
<svg version="1.1" xmlns="http://www.w3.org/2000/svg" xmlns:xlink="http://www.w3.org/1999/xlink" width="24" height="24" viewBox="0 0 24 24">
<path fill="#fff" d="M3.647 0.066h16.705c0.657 0 1.193 0.536 1.193 1.193v21.481c0 0.657-0.536 1.193-1.193 1.193h-16.705c-0.657 0-1.193-0.536-1.193-1.193v-21.481c-0-0.649 0.544-1.193 1.193-1.193z"></path>
<path fill="#221e1f" d="M3.647 0v0.133h16.705c0.621 0 1.127 0.506 1.127 1.127v21.481c0 0.621-0.506 1.127-1.127 1.127h-16.705c-0.621 0-1.127-0.506-1.127-1.127v-21.481c0-0.611 0.516-1.127 1.127-1.127v-0.133c-0.683 0-1.26 0.577-1.26 1.26v21.481c0 0.695 0.565 1.26 1.26 1.26h16.705c0.335 0 0.651-0.131 0.89-0.37s0.37-0.555 0.37-0.89v-21.481c0-0.695-0.565-1.26-1.26-1.26h-16.706z"></path>
<path fill="#221e1f" d="M3.651 0.365h16.699c0.492 0.001 0.897 0.408 0.899 0.899v21.473c-0.002 0.492-0.407 0.897-0.899 0.899h-16.699c-0.491-0.002-0.897-0.407-0.898-0.899v-21.473c0.001-0.491 0.408-0.898 0.898-0.899z"></path>
<path fill="#fff" d="M3.658 0.862h16.685c0.224-0.003 0.412 0.183 0.408 0.408v21.461c0.004 0.224-0.184 0.412-0.408 0.408h-16.685c-0.225 0.004-0.411-0.184-0.408-0.408v-21.46c-0.003-0.225 0.183-0.411 0.408-0.408z"></path>
<path fill="#231f20" d="M10.964 5.856l-1.154-2.167v2.167h-0.535v-3.234h0.535l1.026 1.94v-1.94h0.535v3.234h-0.407z"></path>
<path fill="#231f20" d="M14.514 5.358c-0.184 0.381-0.457 0.555-0.875 0.555-0.446 0-0.708-0.174-0.892-0.555-0.156-0.319-0.212-0.627-0.212-1.125 0-0.488 0.056-0.816 0.212-1.125 0.195-0.386 0.457-0.545 0.892-0.545 0.429 0 0.691 0.159 0.875 0.555 0.156 0.319 0.212 0.627 0.212 1.115 0 0.497-0.056 0.816-0.212 1.125zM14.096 3.428c-0.095-0.285-0.234-0.41-0.457-0.41-0.24 0-0.385 0.126-0.474 0.401-0.089 0.246-0.117 0.463-0.117 0.825 0 0.352 0.039 0.555 0.117 0.816 0.089 0.275 0.234 0.401 0.474 0.401 0.223 0 0.362-0.126 0.457-0.401 0.089-0.261 0.117-0.454 0.117-0.825 0-0.362-0.039-0.57-0.117-0.806z"></path>
<path fill="#231f20" d="M8.148 8v2.804h-0.541v-2.804h-0.68v-0.429h1.901v0.429h-0.68z"></path>
<path fill="#231f20" d="M11.292 10.409c-0.184 0.261-0.535 0.454-0.892 0.454-0.368 0-0.73-0.183-0.914-0.454-0.106-0.174-0.145-0.309-0.145-0.57v-2.268h0.535v2.326c0 0.304 0.212 0.512 0.524 0.512 0.29 0 0.502-0.207 0.502-0.512v-2.326h0.535v2.268c0 0.261-0.039 0.396-0.145 0.57z"></path>
<path fill="#231f20" d="M13.795 10.805l-0.496-1.52h-0.513v1.52h-0.535v-3.234h1.115c0.586 0 0.981 0.343 0.981 0.864 0 0.386-0.184 0.666-0.535 0.782l0.535 1.588h-0.552zM13.338 8.025h-0.552v0.816h0.552c0.312 0 0.485-0.145 0.485-0.405 0-0.251-0.195-0.41-0.485-0.41z"></path>
<path fill="#231f20" d="M16.666 10.805l-1.154-2.167v2.167h-0.535v-3.234h0.535l1.026 1.94v-1.94h0.535v3.234h-0.407z"></path>
<path fill="#231f20" d="M6.858 15.364c-0.184 0.381-0.457 0.555-0.875 0.555-0.446 0-0.708-0.174-0.892-0.555-0.156-0.318-0.212-0.627-0.212-1.124 0-0.488 0.056-0.816 0.212-1.125 0.195-0.386 0.457-0.545 0.892-0.545 0.429 0 0.691 0.159 0.875 0.555 0.156 0.319 0.212 0.627 0.212 1.115 0 0.497-0.056 0.816-0.212 1.124zM6.44 13.434c-0.095-0.285-0.234-0.41-0.457-0.41-0.24 0-0.385 0.126-0.474 0.401-0.089 0.246-0.117 0.463-0.117 0.825 0 0.352 0.039 0.555 0.117 0.816 0.089 0.275 0.234 0.401 0.474 0.401 0.223 0 0.362-0.126 0.457-0.401 0.089-0.261 0.117-0.454 0.117-0.825-0-0.362-0.039-0.57-0.117-0.806z"></path>
<path fill="#231f20" d="M9.506 15.862l-1.154-2.167v2.167h-0.535v-3.234h0.535l1.026 1.94v-1.94h0.535v3.234h-0.407z"></path>
<path fill="#bf2f37" d="M13.313 15.862l-0.496-1.52h-0.513v1.52h-0.535v-3.234h1.115c0.586 0 0.981 0.343 0.981 0.864 0 0.386-0.184 0.666-0.535 0.782l0.535 1.588h-0.552zM12.856 13.082h-0.552v0.816h0.552c0.312 0 0.485-0.145 0.485-0.405 0-0.251-0.195-0.41-0.485-0.41z"></path>
<path fill="#bf2f37" d="M14.495 15.862v-3.234h1.756v0.454h-1.221v0.816h0.775v0.444h-0.775v1.067h1.366v0.454h-1.901z"></path>
<path fill="#bf2f37" d="M18.586 15.712c-0.134 0.106-0.318 0.15-0.524 0.15h-1.037v-3.234h0.953c0.318 0 0.474 0.034 0.608 0.126 0.223 0.135 0.379 0.386 0.446 0.714 0.050 0.237 0.089 0.521 0.089 0.772 0 0.748-0.173 1.226-0.535 1.472zM18.492 13.41c-0.089-0.227-0.246-0.328-0.485-0.328h-0.446v2.326h0.446c0.318 0 0.485-0.217 0.541-0.464 0.022-0.207 0.050-0.434 0.050-0.681 0-0.367-0.039-0.719-0.106-0.854z"></path>
<path fill="#231f20" d="M6.969 20.921l-0.262-0.883h-0.803l-0.245 0.883h-0.541l0.931-3.234h0.524l0.931 3.234h-0.535zM6.3 18.653l-0.262 0.931h0.535l-0.273-0.931z"></path>
<path fill="#231f20" d="M9.562 20.921l-0.496-1.521h-0.513v1.521h-0.535v-3.234h1.115c0.586 0 0.981 0.343 0.981 0.864 0 0.387-0.184 0.666-0.535 0.782l0.535 1.588h-0.552zM9.105 18.141h-0.552v0.816h0.552c0.312 0 0.485-0.145 0.485-0.406 0-0.251-0.195-0.41-0.485-0.41z"></path>
<path fill="#231f20" d="M12.288 20.921l-0.496-1.521h-0.513v1.521h-0.535v-3.234h1.115c0.586 0 0.981 0.343 0.981 0.864 0 0.387-0.184 0.666-0.535 0.782l0.535 1.588h-0.552zM11.83 18.141h-0.552v0.816h0.552c0.312 0 0.485-0.145 0.485-0.406 0-0.251-0.195-0.41-0.485-0.41z"></path>
<path fill="#231f20" d="M15.381 20.424c-0.184 0.381-0.457 0.555-0.875 0.555-0.446 0-0.708-0.174-0.892-0.555-0.156-0.318-0.212-0.628-0.212-1.125 0-0.488 0.056-0.816 0.212-1.125 0.195-0.386 0.457-0.546 0.892-0.546 0.429 0 0.691 0.16 0.875 0.555 0.156 0.318 0.212 0.627 0.212 1.115 0 0.497-0.056 0.816-0.212 1.125zM14.963 18.493c-0.095-0.285-0.234-0.41-0.457-0.41-0.24 0-0.385 0.126-0.474 0.401-0.089 0.246-0.117 0.463-0.117 0.825 0 0.352 0.039 0.555 0.117 0.816 0.089 0.275 0.234 0.401 0.474 0.401 0.223 0 0.362-0.126 0.457-0.401 0.089-0.261 0.117-0.454 0.117-0.825 0-0.362-0.039-0.57-0.117-0.806z"></path>
<path fill="#231f20" d="M18.28 20.921h-0.457l-0.357-1.689-0.351 1.689h-0.474l-0.591-3.234h0.524l0.318 1.723 0.363-1.723h0.423l0.351 1.723 0.329-1.723h0.524l-0.602 3.234z"></path>
</svg>
