<?xml version="1.0" encoding="utf-8"?>
<!-- Generated by IcoMoon.io -->
<!DOCTYPE svg PUBLIC "-//W3C//DTD SVG 1.1//EN" "http://www.w3.org/Graphics/SVG/1.1/DTD/svg11.dtd">
<svg version="1.1" xmlns="http://www.w3.org/2000/svg" xmlns:xlink="http://www.w3.org/1999/xlink" width="24" height="24" viewBox="0 0 24 24">
<path fill="#fff" d="M21.771 23.924c1.641 0 2.204-0.563 2.204-2.204v-19.441c0-1.641-0.563-2.204-2.204-2.204h-19.441c-1.641 0-2.204 0.563-2.204 2.204v19.441c0 1.641 0.563 2.204 2.204 2.204h19.441z"></path>
<path fill="#231f20" d="M21.771 23.386c1.249 0 1.665-0.416 1.665-1.665v-19.441c0-1.249-0.416-1.665-1.665-1.665h-19.441c-1.249 0-1.665 0.416-1.665 1.665v19.441c0 1.249 0.416 1.665 1.665 1.665zM22.947 2.279v19.441c0 0.881-0.294 1.175-1.175 1.175h-19.441c-0.882 0-1.175-0.294-1.175-1.175v-19.441c0-0.882 0.294-1.175 1.175-1.175h19.441c0.882 0 1.175 0.294 1.175 1.175z"></path>
<path fill="#231f20" d="M8.32 6.932l2.476 2.487v-1.383h2.848c1.097 0 1.804 0.482 1.804 1.531s-0.619 1.565-1.769 1.565h-1.177l2.232 2.241c1.931-0.334 3.261-1.533 3.261-3.858 0-2.563-1.928-3.819-4.263-3.819h-5.413zM12.224 13.472c-1.339-1.341-2.735-2.737-3.904-3.908v8.174h2.476v-4.266h1.428z"></path>
<path fill="#e22526" d="M12.1 21.99c5.52 0 9.965-4.445 9.965-9.965s-4.445-9.965-9.965-9.965c-5.52 0-9.965 4.445-9.965 9.965s4.445 9.965 9.965 9.965zM12.1 3.574c4.641 0 8.427 3.786 8.427 8.427 0 2.198-0.708 3.835-1.881 5.3l-11.822-11.871c1.441-1.148 3.273-1.856 5.276-1.856zM5.505 6.749c0 0 11.822 11.822 11.822 11.846-1.417 1.148-3.248 1.832-5.227 1.832-4.641 0-8.427-3.786-8.427-8.427 0-2.174 0.684-3.786 1.832-5.251z"></path>
</svg>
