<?xml version="1.0" encoding="utf-8"?>
<!-- Generated by IcoMoon.io -->
<!DOCTYPE svg PUBLIC "-//W3C//DTD SVG 1.1//EN" "http://www.w3.org/Graphics/SVG/1.1/DTD/svg11.dtd">
<svg version="1.1" xmlns="http://www.w3.org/2000/svg" xmlns:xlink="http://www.w3.org/1999/xlink" width="48" height="24" viewBox="0 0 48 24">
<path fill="#fff" d="M47.655 20.913c0 1.634-1.337 2.971-2.971 2.971h-41.594c-1.634 0-2.971-1.337-2.971-2.971v-17.826c0-1.634 1.337-2.971 2.971-2.971h41.594c1.634 0 2.971 1.337 2.971 2.971v17.826z"></path>
<path fill="#000" d="M44.684 0.859h-41.594c-1.226 0-2.228 1.003-2.228 2.228v17.826c0 1.226 1.003 2.228 2.228 2.228h41.594c1.226 0 2.228-1.003 2.228-2.228v-17.826c0-1.226-1.003-2.228-2.228-2.228zM45.675 20.913c0 0.545-0.446 0.99-0.99 0.99h-41.594c-0.545 0-0.99-0.446-0.99-0.99v-17.826c0-0.545 0.446-0.99 0.99-0.99h41.594c0.545 0 0.99 0.446 0.99 0.99v17.826z"></path>
<path fill="#000" d="M5.26 7.614c-0.692 0-1.115-0.587-1.115-1.238h0.557c0 0.334 0.17 0.681 0.557 0.681 0.305 0 0.557-0.276 0.557-0.598 0-0.469-0.405-0.628-0.986-1.039-0.352-0.252-0.487-0.528-0.487-0.88 0-0.569 0.44-1.027 1.015-1.027 0.552 0 0.986 0.434 0.998 1.027h-0.54c-0.018-0.276-0.211-0.458-0.458-0.458-0.264 0-0.475 0.194-0.475 0.458 0 0.2 0.082 0.305 0.376 0.475 0.763 0.44 1.097 0.874 1.097 1.444 0 0.64-0.487 1.156-1.097 1.156z"></path>
<path fill="#000" d="M7.033 3.583h0.557v3.961h-0.557v-3.961z"></path>
<path fill="#000" d="M10.113 7.362c-0.147 0.117-0.334 0.182-0.557 0.182h-1.097v-3.961h1.015c0.334 0 0.499 0.047 0.64 0.153 0.235 0.17 0.399 0.475 0.475 0.874 0.053 0.293 0.094 0.64 0.094 0.945 0 0.921-0.188 1.496-0.569 1.807zM10.019 4.539c-0.106-0.276-0.264-0.399-0.516-0.399h-0.475v2.846h0.475c0.335 0 0.522-0.258 0.569-0.569 0.035-0.246 0.053-0.528 0.053-0.833 0-0.446-0.047-0.874-0.106-1.044z"></path>
<path fill="#000" d="M11.474 7.544v-3.961h1.866v0.557h-1.297v0.997h0.821v0.546h-0.821v1.303h1.449v0.557h-2.019z"></path>
<path fill="#000" d="M16.21 7.544h-0.487l-0.376-2.071-0.375 2.071h-0.499l-0.628-3.961h0.557l0.334 2.112 0.387-2.112h0.446l0.376 2.112 0.346-2.112h0.557l-0.64 3.961z"></path>
<path fill="#000" d="M19.044 7.544l-0.276-1.085h-0.851l-0.264 1.085h-0.569l0.986-3.961h0.557l0.986 3.961h-0.569zM18.334 4.762l-0.276 1.144h0.569l-0.293-1.144z"></path>
<path fill="#000" d="M20.17 7.544v-3.961h0.569v3.433h1.449v0.528h-2.019z"></path>
<path fill="#000" d="M24.366 7.544l-0.692-1.931-0.364 0.663v1.268h-0.569v-3.961h0.569v1.584l0.904-1.584h0.657l-0.821 1.391 0.915 2.57h-0.598z"></path>
<path fill="#000" d="M28.648 7.614c-0.845 0-1.22-0.681-1.22-2.142 0-1.279 0.399-1.96 1.179-1.96 0.657 0 0.998 0.587 1.027 1.126h-0.569c-0.053-0.387-0.205-0.569-0.469-0.569-0.458 0-0.628 0.358-0.628 1.391 0 1.138 0.194 1.596 0.681 1.596 0.334 0 0.417-0.276 0.417-0.569h0.569c-0.012 0.651-0.428 1.127-0.986 1.127z"></path>
<path fill="#000" d="M30.426 7.544v-3.961h0.569v3.433h1.449v0.528h-2.019z"></path>
<path fill="#000" d="M35.015 6.933c-0.199 0.469-0.487 0.681-0.927 0.681-0.475 0-0.751-0.211-0.945-0.681-0.164-0.393-0.223-0.763-0.223-1.379 0-0.598 0.053-0.997 0.223-1.373 0.205-0.475 0.487-0.669 0.945-0.669s0.728 0.199 0.927 0.681c0.164 0.393 0.223 0.763 0.223 1.361 0 0.616-0.059 0.997-0.223 1.379zM34.575 4.569c-0.1-0.346-0.252-0.499-0.487-0.499-0.252 0-0.399 0.153-0.505 0.487-0.088 0.305-0.123 0.569-0.123 1.015 0 0.428 0.035 0.681 0.123 0.997 0.094 0.335 0.252 0.487 0.505 0.487 0.235 0 0.387-0.153 0.487-0.487 0.094-0.317 0.123-0.557 0.123-1.015 0-0.44-0.041-0.692-0.123-0.986z"></path>
<path fill="#000" d="M36.945 7.614c-0.692 0-1.115-0.587-1.115-1.238h0.557c0 0.334 0.17 0.681 0.557 0.681 0.305 0 0.557-0.276 0.557-0.598 0-0.469-0.405-0.628-0.986-1.039-0.352-0.252-0.487-0.528-0.487-0.88 0-0.569 0.44-1.027 1.015-1.027 0.552 0 0.986 0.434 0.997 1.027h-0.54c-0.018-0.276-0.211-0.458-0.458-0.458-0.264 0-0.475 0.194-0.475 0.458 0 0.2 0.082 0.305 0.376 0.475 0.763 0.44 1.097 0.874 1.097 1.444 0 0.64-0.487 1.156-1.097 1.156z"></path>
<path fill="#000" d="M38.717 7.544v-3.961h1.866v0.557h-1.297v0.997h0.821v0.546h-0.821v1.303h1.449v0.557h-2.019z"></path>
<path fill="#000" d="M43.059 7.362c-0.147 0.117-0.334 0.182-0.557 0.182h-1.097v-3.961h1.015c0.334 0 0.499 0.047 0.64 0.153 0.235 0.17 0.399 0.475 0.475 0.874 0.053 0.293 0.094 0.64 0.094 0.945 0 0.921-0.188 1.496-0.569 1.807zM42.966 4.539c-0.106-0.276-0.264-0.399-0.516-0.399h-0.475v2.846h0.475c0.334 0 0.522-0.258 0.569-0.569 0.035-0.246 0.053-0.528 0.053-0.833 0-0.446-0.047-0.874-0.106-1.044z"></path>
<path fill="#000" d="M8.105 19.931c-0.188 0.323-0.569 0.557-0.945 0.557-0.387 0-0.78-0.223-0.974-0.557-0.111-0.205-0.152-0.375-0.152-0.692v-2.781h0.569v2.846c0 0.376 0.223 0.628 0.557 0.628 0.305 0 0.528-0.252 0.528-0.628v-2.846h0.569v2.781c0 0.317-0.035 0.487-0.153 0.692z"></path>
<path fill="#000" d="M10.041 20.488c-0.692 0-1.115-0.587-1.115-1.238h0.557c0 0.334 0.17 0.681 0.557 0.681 0.305 0 0.557-0.276 0.557-0.598 0-0.469-0.405-0.628-0.986-1.039-0.352-0.252-0.487-0.528-0.487-0.88 0-0.569 0.44-1.027 1.015-1.027 0.552 0 0.986 0.434 0.997 1.027h-0.54c-0.018-0.276-0.211-0.458-0.458-0.458-0.264 0-0.475 0.194-0.475 0.458 0 0.2 0.082 0.305 0.376 0.475 0.763 0.44 1.097 0.874 1.097 1.444 0 0.64-0.487 1.156-1.097 1.156z"></path>
<path fill="#000" d="M11.813 20.418v-3.961h1.866v0.557h-1.297v0.997h0.821v0.546h-0.821v1.303h1.449v0.557h-2.019z"></path>
<path fill="#000" d="M18.744 19.808c-0.199 0.469-0.487 0.681-0.927 0.681-0.475 0-0.751-0.211-0.945-0.681-0.164-0.393-0.223-0.763-0.223-1.379 0-0.598 0.053-0.997 0.223-1.373 0.205-0.475 0.487-0.669 0.945-0.669s0.728 0.199 0.927 0.681c0.164 0.393 0.223 0.763 0.223 1.361 0 0.616-0.059 0.997-0.223 1.379zM18.304 17.443c-0.1-0.346-0.252-0.499-0.487-0.499-0.252 0-0.399 0.153-0.505 0.487-0.088 0.305-0.123 0.569-0.123 1.015 0 0.428 0.035 0.681 0.123 0.998 0.094 0.334 0.252 0.487 0.505 0.487 0.235 0 0.387-0.152 0.487-0.487 0.094-0.317 0.123-0.557 0.123-1.015 0-0.44-0.041-0.692-0.123-0.986z"></path>
<path fill="#000" d="M20.739 16.985v3.433h-0.575v-3.433h-0.722v-0.528h2.019v0.528h-0.722z"></path>
<path fill="#000" d="M23.667 20.418v-1.796h-1.085v1.796h-0.569v-3.961h0.569v1.614h1.085v-1.614h0.569v3.961h-0.569z"></path>
<path fill="#000" d="M25.105 20.418v-3.961h1.866v0.557h-1.297v0.997h0.821v0.546h-0.821v1.303h1.449v0.557h-2.019z"></path>
<path fill="#000" d="M29.435 20.418l-0.528-1.86h-0.546v1.86h-0.569v-3.961h1.185c0.622 0 1.039 0.417 1.039 1.056 0 0.475-0.194 0.821-0.569 0.956l0.569 1.948h-0.581zM28.948 17.015h-0.587v0.997h0.587c0.334 0 0.51-0.182 0.51-0.499 0-0.305-0.205-0.499-0.51-0.499z"></path>
<path fill="#000" d="M33.509 20.488c-0.692 0-1.115-0.587-1.115-1.238h0.557c0 0.334 0.17 0.681 0.557 0.681 0.305 0 0.557-0.276 0.557-0.598 0-0.469-0.405-0.628-0.986-1.039-0.352-0.252-0.487-0.528-0.487-0.88 0-0.569 0.44-1.027 1.015-1.027 0.552 0 0.986 0.434 0.997 1.027h-0.54c-0.018-0.276-0.211-0.458-0.458-0.458-0.264 0-0.475 0.194-0.475 0.458 0 0.2 0.082 0.305 0.376 0.475 0.763 0.44 1.097 0.874 1.097 1.444 0 0.64-0.487 1.156-1.097 1.156z"></path>
<path fill="#000" d="M35.281 16.457h0.557v3.961h-0.557v-3.961z"></path>
<path fill="#000" d="M38.361 20.236c-0.147 0.117-0.334 0.182-0.557 0.182h-1.097v-3.961h1.015c0.334 0 0.499 0.047 0.64 0.153 0.235 0.17 0.399 0.475 0.475 0.874 0.053 0.293 0.094 0.64 0.094 0.945 0 0.921-0.188 1.496-0.569 1.807zM38.267 17.414c-0.106-0.276-0.264-0.399-0.516-0.399h-0.475v2.846h0.475c0.335 0 0.522-0.258 0.569-0.569 0.035-0.246 0.053-0.528 0.053-0.833 0-0.446-0.047-0.874-0.106-1.044z"></path>
<path fill="#000" d="M39.723 20.418v-3.961h1.866v0.557h-1.297v0.997h0.821v0.546h-0.821v1.303h1.449v0.557h-2.019z"></path>
<path fill="#000" d="M38.848 13.589l-0.247 0.842c-0.049 0.176-0.071 0.307 0.023 0.443 0.131 0.195 0.399 0.245 0.594 0.113l4.41-2.985-4.41-2.988c-0.195-0.132-0.462-0.082-0.594 0.113-0.088 0.131-0.072 0.264-0.032 0.425l0.256 0.866h-29.921l0.255-0.866c0.041-0.16 0.057-0.294-0.032-0.425-0.132-0.194-0.399-0.245-0.593-0.113l-4.412 2.988 4.412 2.985c0.194 0.132 0.461 0.081 0.593-0.113 0.092-0.136 0.072-0.266 0.023-0.443l-0.246-0.842h29.921z"></path>
</svg>
