<?xml version="1.0" encoding="utf-8"?>
<!-- Generated by IcoMoon.io -->
<!DOCTYPE svg PUBLIC "-//W3C//DTD SVG 1.1//EN" "http://www.w3.org/Graphics/SVG/1.1/DTD/svg11.dtd">
<svg version="1.1" xmlns="http://www.w3.org/2000/svg" xmlns:xlink="http://www.w3.org/1999/xlink" width="24" height="24" viewBox="0 0 24 24">
<path fill="#ffd033" d="M23.656 11.167l-10.823-10.824c-0.459-0.458-1.208-0.458-1.666 0l-10.824 10.824c-0.458 0.458-0.458 1.207 0 1.665l10.824 10.824c0.458 0.458 1.207 0.458 1.666 0l10.823-10.824c0.458-0.458 0.458-1.207 0-1.665z"></path>
<path fill="#000" d="M23.396 11.339l-10.735-10.735c-0.364-0.363-0.958-0.363-1.321 0l-10.735 10.735c-0.363 0.363-0.363 0.958 0 1.321l10.735 10.735c0.363 0.363 0.957 0.363 1.321 0l10.735-10.735c0.363-0.363 0.363-0.958 0-1.321z"></path>
<path fill="#ffd033" d="M23.060 11.67l-10.73-10.73c-0.182-0.182-0.479-0.182-0.661 0l-10.729 10.73c-0.182 0.182-0.182 0.479 0 0.66l10.729 10.73c0.182 0.182 0.479 0.182 0.661 0l10.73-10.73c0.182-0.182 0.182-0.479 0-0.66z"></path>
<path fill="#000" d="M16.414 6.111h-2.944v4.416h-2.943v2.944h2.943v4.416h2.944v-11.775z"></path>
<path fill="#000" d="M6.122 10.526h-2.943v2.944h2.943v-2.944z"></path>
<path fill="#000" d="M9.322 6.123v0.761h0.787v0.795h-0.787v0.787h0.787v0.787h-0.787v0.769h0.787v0.795h-0.787l-0.009 0.787h0.795v0.795h-0.795l0.009 0.787h0.787v0.778h-0.795l0.009 0.795h0.787v0.778h-0.795l0.009 0.787h0.787v0.778h-0.795l0.009 0.795-0.38-0.009v-0.787h-1.176l-0.009 0.795-0.38-0.009v-0.787h-0.795v-0.778l0.795-0.009v-0.778h-0.795v-0.778h0.795v-0.795h-0.795v-0.778l0.795-0.009v-0.778h-0.795v-0.795h0.795v-0.787h-0.795v-0.795h0.795v-0.769h-0.795v-0.787h0.795v-0.787h-0.795v-0.795h0.795v-0.761h0.389v0.761h1.167v-0.761h0.389zM8.942 7.679h-1.176v0.795h1.176v-0.795zM8.942 9.253h-1.176v0.769h1.176v-0.769zM8.942 10.818h-1.176v0.787h1.176v-0.787zM8.942 12.4h-1.176v0.778h1.176v-0.778zM8.942 13.965h-1.176v0.795h1.176v-0.795zM8.942 15.538h-1.176v0.778h1.176v-0.778z"></path>
</svg>
