<?xml version="1.0" encoding="utf-8"?>
<!-- Generated by IcoMoon.io -->
<!DOCTYPE svg PUBLIC "-//W3C//DTD SVG 1.1//EN" "http://www.w3.org/Graphics/SVG/1.1/DTD/svg11.dtd">
<svg version="1.1" xmlns="http://www.w3.org/2000/svg" xmlns:xlink="http://www.w3.org/1999/xlink" width="24" height="24" viewBox="0 0 24 24">
<path fill="#ffd033" d="M23.671 12.778c0.43-0.43 0.43-1.126 0-1.556l-10.893-10.893c-0.43-0.43-1.126-0.43-1.556 0l-10.893 10.893c-0.43 0.43-0.43 1.126 0 1.556l10.893 10.893c0.43 0.43 1.126 0.43 1.556 0z"></path>
<path fill="#000" d="M11.429 23.463c0.315 0.315 0.827 0.315 1.141 0l10.893-10.893c0.315-0.315 0.315-0.827 0-1.141l-10.893-10.893c-0.315-0.315-0.827-0.315-1.141 0l-10.893 10.893c-0.315 0.315-0.315 0.827 0 1.141z"></path>
<path fill="#ffd033" d="M11.741 23.152c0.143 0.143 0.376 0.143 0.519 0l10.893-10.893c0.143-0.143 0.143-0.376 0-0.519l-10.893-10.893c-0.143-0.143-0.376-0.143-0.519 0l-10.893 10.893c-0.143 0.143-0.143 0.376 0 0.519z"></path>
<path fill="#000" d="M7.445 5.991l4.555-4.294 4.555 4.294c0.036 0.034 0.058 0.081 0.058 0.134 0 0.102-0.083 0.184-0.184 0.184-0.008 0-0.015-0.001-0.022-0.001l-2.93-0.367v2.398h-2.952v-2.398l-2.93 0.367c-0.007 0.001-0.015 0.001-0.022 0.001-0.102 0-0.184-0.083-0.184-0.185 0-0.053 0.022-0.101 0.058-0.134z"></path>
<path fill="#fff" d="M17.579 10.134c0.204 0 0.398 0.080 0.542 0.224 0.158 0.158 0.237 0.374 0.223 0.597-0.008 0.115-0.047 0.222-0.104 0.322l-5.591 9.684c-0.131 0.226-0.393 0.355-0.649 0.355s-0.519-0.13-0.649-0.355l-5.591-9.684c-0.057-0.099-0.097-0.207-0.104-0.322-0.014-0.223 0.065-0.439 0.223-0.597 0.145-0.144 0.339-0.224 0.542-0.224z"></path>
<path fill="#c4122e" d="M17.571 10.42c0.221 0.001 0.43 0.166 0.472 0.385 0.021 0.114 0.002 0.227-0.056 0.327l-5.595 9.684c-0.049 0.085-0.131 0.149-0.223 0.183-0.053 0.019-0.111 0.029-0.168 0.031-0.058-0.001-0.115-0.011-0.168-0.031-0.092-0.034-0.174-0.098-0.223-0.183l-5.595-9.684c-0.058-0.1-0.077-0.214-0.056-0.327 0.042-0.219 0.25-0.384 0.472-0.385z"></path>
<path fill="#fff" d="M14.248 12.335c0.22 0 0.426 0.157 0.468 0.377 0.022 0.114 0.010 0.226-0.048 0.327l-2.251 3.908c-0.089 0.155-0.235 0.251-0.417 0.25-0.182 0.001-0.327-0.095-0.417-0.25l-2.251-3.908c-0.058-0.102-0.070-0.213-0.048-0.327 0.042-0.22 0.248-0.377 0.468-0.377z"></path>
</svg>
