<?xml version="1.0" encoding="utf-8"?>
<!-- Generated by IcoMoon.io -->
<!DOCTYPE svg PUBLIC "-//W3C//DTD SVG 1.1//EN" "http://www.w3.org/Graphics/SVG/1.1/DTD/svg11.dtd">
<svg version="1.1" xmlns="http://www.w3.org/2000/svg" xmlns:xlink="http://www.w3.org/1999/xlink" width="24" height="24" viewBox="0 0 24 24">
<path fill="#f47216" d="M23.569 12.785c0.269-0.269 0.391-0.513 0.391-0.782s-0.122-0.538-0.391-0.807l-10.729-10.729c-0.269-0.269-0.538-0.391-0.807-0.391s-0.538 0.122-0.807 0.391l-10.729 10.729c-0.269 0.269-0.391 0.538-0.391 0.807s0.122 0.513 0.391 0.782l10.729 10.729c0.269 0.269 0.538 0.391 0.807 0.391s0.513-0.122 0.782-0.391l10.754-10.729z"></path>
<path fill="#231f20" d="M23.325 12.565c0.171-0.196 0.269-0.367 0.269-0.562s-0.098-0.367-0.269-0.562l-10.729-10.729c-0.195-0.171-0.367-0.269-0.562-0.269s-0.367 0.098-0.562 0.269l-10.729 10.729c-0.171 0.195-0.269 0.367-0.269 0.562s0.098 0.367 0.269 0.562l10.729 10.729c0.195 0.171 0.367 0.269 0.562 0.269s0.367-0.098 0.562-0.269zM23.032 11.734c0.098 0.098 0.147 0.171 0.147 0.269s-0.049 0.171-0.147 0.269l-10.729 10.729c-0.098 0.098-0.171 0.147-0.269 0.147s-0.171-0.049-0.269-0.147l-10.729-10.729c-0.098-0.098-0.147-0.171-0.147-0.269s0.049-0.171 0.147-0.269l10.729-10.729c0.098-0.098 0.171-0.147 0.269-0.147s0.171 0.049 0.269 0.147l10.729 10.729z"></path>
<path fill="#231f20" d="M10.474 12.64l3.27 2.699-1.174 2.653h3.519l3.422-3.471-3.104-0.929c-0.929-0.269-1.809 0.489-1.466 1.393l0.391 1.027-3.104-2.566-0.866-6.499c-0.22 0.049-0.244 0.049-0.416 0.049-0.733 0-1.026-0.342-1.222-0.513l-2.805 3.035 1.178 1.069-0.269 0.635v6.77h0.88l0.44-4.741 0.953 1.662v3.079h0.929v-3.788zM10.86 10.048l0.489 2.664-0.953-0.782zM8.068 9.466l0.774-0.775-0.408 1.1zM10.979 6.633c0.758 0 1.393-0.636 1.393-1.393s-0.636-1.393-1.393-1.393-1.393 0.635-1.393 1.393c0 0.758 0.635 1.393 1.393 1.393z"></path>
</svg>
