<?xml version="1.0" encoding="utf-8"?>
<!-- Generated by IcoMoon.io -->
<!DOCTYPE svg PUBLIC "-//W3C//DTD SVG 1.1//EN" "http://www.w3.org/Graphics/SVG/1.1/DTD/svg11.dtd">
<svg version="1.1" xmlns="http://www.w3.org/2000/svg" xmlns:xlink="http://www.w3.org/1999/xlink" width="24" height="24" viewBox="0 0 24 24">
<path fill="#fecf33" d="M0.342 11.17l10.828-10.828c0.456-0.456 1.203-0.456 1.659 0l10.828 10.828c0.456 0.456 0.456 1.203 0 1.659l-10.828 10.828c-0.456 0.457-1.203 0.457-1.659 0l-10.828-10.828c-0.456-0.456-0.456-1.203 0-1.659z"></path>
<path fill="#000" d="M0.657 11.272l10.615-10.615c0.401-0.4 1.056-0.4 1.457 0l10.615 10.615c0.401 0.401 0.401 1.056 0 1.456l-10.615 10.615c-0.401 0.4-1.056 0.4-1.457 0l-10.615-10.615c-0.4-0.4-0.4-1.056 0-1.456z"></path>
<path fill="#fecf33" d="M1.072 11.551l10.479-10.479c0.247-0.247 0.651-0.247 0.898 0l10.479 10.479c0.247 0.247 0.247 0.651 0 0.898l-10.479 10.479c-0.247 0.247-0.651 0.247-0.898 0l-10.479-10.479c-0.247-0.247-0.247-0.651 0-0.898z"></path>
<path fill="#000" d="M6.115 13.483v-2.953h4.43v-4.43h2.953v4.43h4.43v2.953h-4.43v4.43h-2.953v-4.43h-4.43z"></path>
</svg>
