<?xml version="1.0" encoding="utf-8"?>
<!-- Generated by IcoMoon.io -->
<!DOCTYPE svg PUBLIC "-//W3C//DTD SVG 1.1//EN" "http://www.w3.org/Graphics/SVG/1.1/DTD/svg11.dtd">
<svg version="1.1" xmlns="http://www.w3.org/2000/svg" xmlns:xlink="http://www.w3.org/1999/xlink" width="24" height="24" viewBox="0 0 24 24">
<path fill="#fecf33" d="M0.342 11.17l10.828-10.828c0.456-0.456 1.203-0.456 1.659 0l10.828 10.828c0.456 0.456 0.456 1.203 0 1.659l-10.828 10.828c-0.456 0.457-1.203 0.457-1.659 0l-10.828-10.828c-0.456-0.456-0.456-1.203 0-1.659z"></path>
<path fill="#000" d="M0.657 11.272l10.615-10.615c0.401-0.4 1.056-0.4 1.457 0l10.615 10.615c0.401 0.401 0.401 1.056 0 1.456l-10.615 10.615c-0.401 0.4-1.056 0.4-1.457 0l-10.615-10.615c-0.4-0.4-0.4-1.056 0-1.456z"></path>
<path fill="#fecf33" d="M1.072 11.551l10.479-10.479c0.247-0.247 0.651-0.247 0.898 0l10.479 10.479c0.247 0.247 0.247 0.651 0 0.898l-10.479 10.479c-0.247 0.247-0.651 0.247-0.898 0l-10.479-10.479c-0.247-0.247-0.247-0.651 0-0.898z"></path>
<path fill="#000" d="M16.178 7.105c-0.936-0.66-2.124-1.128-3.288-1.224-1.752-0.156-3.54 0.456-4.872 1.62l-0.6-0.816c-0.072-0.096-0.144-0.168-0.264-0.168-0.18-0.012-0.336 0.132-0.336 0.3l-0.18 4.044 3.816-1.344c0.168-0.048 0.252-0.24 0.192-0.408-0.036-0.12-0.12-0.168-0.252-0.216l-0.948-0.336c0.924-0.72 2.136-1.056 3.3-0.96 0.876 0.084 1.764 0.432 2.448 0.948l0.984-1.44z"></path>
<path fill="#000" d="M5.87 11.701c-0.096 1.14 0.108 2.388 0.612 3.444 0.768 1.608 2.196 2.844 3.876 3.396l-0.396 0.924c-0.048 0.12-0.072 0.216-0.012 0.324 0.084 0.156 0.276 0.216 0.432 0.132l3.564-1.896-3.084-2.616c-0.132-0.108-0.336-0.096-0.456 0.048-0.072 0.096-0.072 0.192-0.048 0.324l0.18 0.996c-1.080-0.444-1.992-1.308-2.496-2.376-0.384-0.792-0.516-1.74-0.432-2.568l-1.74-0.132z"></path>
<path fill="#000" d="M15.026 18.264c1.032-0.48 2.016-1.296 2.676-2.256 1.008-1.464 1.356-3.324 0.984-5.040l1.008-0.12c0.12-0.024 0.216-0.048 0.288-0.156 0.084-0.144 0.036-0.348-0.108-0.444l-3.432-2.136-0.708 3.972c-0.036 0.18 0.084 0.348 0.264 0.372 0.12 0.024 0.204-0.036 0.312-0.12l0.768-0.636c0.156 1.14-0.132 2.364-0.804 3.336-0.492 0.72-1.236 1.32-2.016 1.668l0.768 1.56z"></path>
</svg>
