<?xml version="1.0" encoding="utf-8"?>
<!-- Generated by IcoMoon.io -->
<!DOCTYPE svg PUBLIC "-//W3C//DTD SVG 1.1//EN" "http://www.w3.org/Graphics/SVG/1.1/DTD/svg11.dtd">
<svg version="1.1" xmlns="http://www.w3.org/2000/svg" xmlns:xlink="http://www.w3.org/1999/xlink" width="24" height="24" viewBox="0 0 24 24">
<path fill="#ffd033" d="M0.318 11.221l10.9-10.9c0.429-0.429 1.128-0.429 1.557 0l10.9 10.9c0.429 0.429 0.429 1.128 0 1.557l-10.9 10.9c-0.429 0.429-1.128 0.429-1.557 0l-10.9-10.9c-0.423-0.423-0.424-1.134 0-1.557z"></path>
<path fill="#000" d="M0.537 11.435l10.894-10.894c0.309-0.309 0.821-0.308 1.13 0l10.894 10.894c0.309 0.309 0.308 0.82 0 1.13l-10.894 10.894c-0.309 0.308-0.82 0.309-1.13 0l-10.894-10.894c-0.308-0.31-0.309-0.821 0-1.13z"></path>
<path fill="#ffd033" d="M0.843 11.734l10.887-10.887c0.144-0.149 0.388-0.149 0.532 0l10.886 10.887c0.149 0.144 0.149 0.389 0 0.532l-10.886 10.886c-0.144 0.149-0.389 0.149-0.532 0l-10.887-10.886c-0.149-0.144-0.149-0.389 0-0.532z"></path>
<path fill="#000" d="M18.317 9.055h-0.66l0.108 1.356h0.444l0.108-1.356z"></path>
<path fill="#000" d="M19.289 9.055h-0.672l0.108 1.356h0.456l0.108-1.356z"></path>
<path fill="#000" d="M10.193 14.923v-0.828h-2.364c0.036-0.204 0.060-0.312 0.12-0.456 0.168-0.492 0.552-1.032 0.924-1.296l0.228-0.168 0.204-0.144 0.215-0.132c0.061-0.060 0.121-0.108 0.18-0.144 0.336-0.312 0.492-0.684 0.492-1.152 0-0.912-0.72-1.656-1.632-1.656-0.924 0-1.62 0.72-1.644 1.656h0.828c0-0.456 0.372-0.828 0.816-0.828 0.456 0 0.828 0.372 0.828 0.828 0 0.288-0.096 0.432-0.492 0.696-0.48 0.336-0.6 0.432-0.744 0.552-0.396 0.36-0.696 0.84-0.948 1.464-0.192 0.516-0.252 0.804-0.288 1.608h3.276zM5.921 14.923v-5.88h-0.552c-0.132 0.252-0.336 0.396-0.66 0.42v0.636h0.372v4.824h0.84z"></path>
<path fill="#000" d="M12.029 9.055h-0.648l0.108 1.356h0.444l0.096-1.356z"></path>
<path fill="#000" d="M13.409 8.467h-2.928v-2.412l-2.604 0.54c-0.084 0.024-0.12 0.036-0.155 0.036-0.168 0-0.336-0.168-0.336-0.348 0-0.072 0-0.12 0.084-0.192l4.476-3.984 4.452 3.996c0.072 0.060 0.084 0.12 0.072 0.192 0 0.18-0.156 0.336-0.337 0.336-0.023 0-0.036 0-0.096-0.012l-2.628-0.6v2.448z"></path>
<path fill="#000" d="M13.409 15.535h-2.928v2.412l-2.604-0.552c-0.084-0.012-0.12-0.024-0.155-0.024-0.168 0-0.336 0.168-0.336 0.337 0 0.071 0 0.131 0.084 0.204l4.476 3.984 4.452-3.996c0.072-0.060 0.084-0.12 0.072-0.192 0-0.18-0.156-0.348-0.337-0.348-0.023 0-0.036 0.012-0.096 0.024l-2.628 0.6v-2.448z"></path>
<path fill="#000" d="M12.989 11.731h-2.052v0.78h2.052v-0.78z"></path>
<path fill="#000" d="M16.481 13.147c0 0.624-0.336 1.056-0.828 1.056-0.504 0-0.828-0.48-0.828-1.14 0-0.552 0.324-0.996 0.828-0.996 0.492 0 0.828 0.456 0.828 1.080zM17.297 13.147c0-1.116-0.636-1.872-1.644-1.872-0.108 0-0.228 0-0.372 0.024 0.204-0.552 0.744-1.26 1.236-1.632l-0.48-0.66c-1.272 0.996-2.016 2.484-2.016 3.888 0 1.344 0.552 2.136 1.632 2.136 1.008 0 1.644-0.768 1.644-1.884z"></path>
</svg>
