<?xml version="1.0" encoding="utf-8"?>
<!-- Generated by IcoMoon.io -->
<!DOCTYPE svg PUBLIC "-//W3C//DTD SVG 1.1//EN" "http://www.w3.org/Graphics/SVG/1.1/DTD/svg11.dtd">
<svg version="1.1" xmlns="http://www.w3.org/2000/svg" xmlns:xlink="http://www.w3.org/1999/xlink" width="24" height="24" viewBox="0 0 24 24">
<path fill="#ffd033" d="M23.68 11.223l-10.903-10.902c-0.428-0.427-1.127-0.427-1.555 0l-10.902 10.902c-0.427 0.427-0.427 1.127 0 1.555l10.902 10.902c0.428 0.427 1.127 0.427 1.555 0l10.903-10.902c0.427-0.428 0.427-1.127 0-1.555z"></path>
<path fill="#000" d="M23.472 11.43l-10.903-10.902c-0.313-0.313-0.826-0.313-1.139 0l-10.902 10.902c-0.313 0.313-0.313 0.826 0 1.139l10.902 10.902c0.313 0.313 0.826 0.313 1.139 0l10.903-10.902c0.313-0.313 0.313-0.826 0-1.139z"></path>
<path fill="#ffd033" d="M23.16 11.742l-10.902-10.902c-0.142-0.142-0.374-0.142-0.517 0l-10.902 10.902c-0.142 0.142-0.142 0.375 0 0.516l10.902 10.902c0.143 0.142 0.375 0.142 0.517 0l10.902-10.902c0.143-0.142 0.143-0.374 0-0.516z"></path>
<path fill="#000" d="M8.629 8.905v0.414c0 1.105 0.518 2.196 1.402 2.866l3.451 2.614c0.277 0.21 0.443 0.531 0.443 0.878v2.529h2.543v-2.529c0-0.663-0.18-1.324-0.529-1.889-0.215-0.349-0.485-0.678-0.813-0.927l-3.511-2.663c-0.167-0.127-0.304-0.294-0.379-0.49-0.048-0.126-0.074-0.262-0.074-0.398v-0.443l1.684 0.485c0.027 0.007 0.053 0.010 0.079 0.014 0.119 0.016 0.234-0.016 0.333-0.084 0.106-0.074 0.181-0.187 0.204-0.313 0.026-0.139 0.001-0.27-0.081-0.384l-3.48-4.893-3.169 4.904c-0.051 0.079-0.081 0.178-0.081 0.272 0 0.239 0.178 0.447 0.409 0.496 0.085 0.018 0.166 0.005 0.246-0.021l1.322-0.435z"></path>
</svg>
