<!-- Generated by IcoMoon.io -->
<svg version="1.1" xmlns="http://www.w3.org/2000/svg" width="36" height="24" viewBox="0 0 36 24">
<title>complementary--when-rainy--g3</title>
<path fill="#000" d="M1.245 0h33.882c0.619 0.156 1.097 0.638 1.271 1.248v21.475c-0.155 0.619-0.637 1.095-1.243 1.277h-33.888c-0.613-0.162-1.091-0.639-1.267-1.247v-21.484c0.154-0.619 0.637-1.094 1.245-1.269M1.174 0.382c-0.511 0.154-0.87 0.67-0.846 1.202-0.003 6.943-0.005 13.888 0 20.832-0.036 0.678 0.573 1.3 1.256 1.256 11.078 0.001 22.154 0.005 33.231-0.001 0.68 0.035 1.29-0.574 1.255-1.255 0.006-6.944 0.005-13.888 0.001-20.832 0.039-0.685-0.576-1.296-1.258-1.261-10.998-0.011-21.996 0.001-32.994-0.007-0.216 0.005-0.436 0.005-0.645 0.066z"></path>
<path fill="#000" d="M1.973 4.43c0.493-0.003 0.985-0.003 1.478 0.001 0.495 1.63 3.358 1.666 3.821-0.001 0.475-0.003 0.95-0.002 1.425-0.001 0.014 1.065 0.75 2.155 1.884 2.212 1.483 0.26 2.861-0.824 3.266-2.212 0.491-0.001 0.983-0.001 1.475 0-0.009 1.786 0.273 3.817 1.685 5.068 1.627 1.291 4.305 0.98 5.575-0.678 0.969-1.243 1.331-2.846 1.415-4.391 0.483-0.001 0.967-0.001 1.45 0 0.010 1.102 0.141 2.351 0.975 3.161 0.828 0.725 2.444 0.695 2.961-0.39 0.424-0.861 0.328-1.851 0.279-2.779 0.47-0.001 0.94-0.001 1.409 0.001 0.107 1.164 2.241 1.155 2.383 0.008 0.48-0.003 0.961-0.002 1.442 0-0.052 0.634-0.285 1.281-0.791 1.691-0.82 0.696-2.011 0.707-2.999 0.427-0.155 0.837-0.472 1.695-1.147 2.252-1.553 1.282-4.176 0.828-5.188-0.926-0.572 1.468-1.613 2.832-3.107 3.44-1.704 0.673-3.783 0.588-5.31-0.479-1.297-0.919-1.994-2.448-2.299-3.966-1.666 1.761-5.091 1.74-6.301-0.531-1.882 1.537-5.444 0.719-5.779-1.907z"></path>
<path fill="#000" d="M11.307 12.703c0.834-1.672 1.512-3.434 2.45-5.047 0.175 0.533 0.367 1.061 0.614 1.566-0.619 1.347-1.26 2.683-1.887 4.025-0.389-0.189-0.784-0.366-1.177-0.545z"></path>
<path fill="#000" d="M10.665 8.582c0.503 0.017 1.005-0.032 1.499-0.129-0.775 1.617-1.528 3.245-2.294 4.866-0.392-0.183-0.785-0.367-1.178-0.547 0.657-1.397 1.311-2.796 1.973-4.19z"></path>
<path fill="#000" d="M22.187 11.609c1.152-0.614 2.038-1.611 2.668-2.741-0.772 1.68-1.571 3.349-2.357 5.022-0.391-0.182-0.783-0.366-1.177-0.543 0.303-0.571 0.499-1.209 0.866-1.738z"></path>
<path fill="#000" d="M25.727 9.463c0.388 0.201 0.801 0.348 1.224 0.457-0.63 1.33-1.252 2.663-1.88 3.994-0.39-0.19-0.781-0.374-1.177-0.552 0.61-1.3 1.226-2.598 1.834-3.899z"></path>
<path fill="#000" d="M28.069 9.987c0.57-0.045 1.127-0.193 1.642-0.444-0.712 1.478-1.398 2.968-2.1 4.451-0.389-0.191-0.781-0.374-1.176-0.554 0.545-1.151 1.076-2.309 1.633-3.453z"></path>
<path fill="#000" d="M15.040 10.237c0.303 0.345 0.635 0.662 0.994 0.947-0.456 0.96-0.905 1.922-1.358 2.883-0.39-0.19-0.783-0.372-1.175-0.556 0.512-1.092 1.028-2.182 1.539-3.275z"></path>
<path fill="#000" d="M16.937 11.71c0.408 0.158 0.828 0.288 1.255 0.388-0.546 1.153-1.089 2.309-1.631 3.466-0.389-0.191-0.783-0.374-1.175-0.56 0.515-1.099 1.034-2.196 1.551-3.294z"></path>
<path fill="#000" d="M19.267 12.209c0.504-0.006 1.005-0.051 1.501-0.133-0.493 1.020-0.966 2.050-1.453 3.073-0.391-0.183-0.783-0.366-1.176-0.545 0.375-0.798 0.752-1.597 1.127-2.395z"></path>
<path fill="#000" d="M11.012 13.329c0.396 0.173 0.789 0.35 1.175 0.544-0.928 1.979-1.861 3.957-2.79 5.935-0.396-0.175-0.788-0.357-1.181-0.538 0.932-1.98 1.863-3.962 2.796-5.941z"></path>
<path fill="#000" d="M8.378 13.434c0.397 0.175 0.789 0.358 1.177 0.552-0.915 1.945-1.829 3.889-2.746 5.833-0.391-0.187-0.784-0.37-1.177-0.549 0.915-1.945 1.83-3.89 2.746-5.835z"></path>
<path fill="#000" d="M20.932 14.173c0.392 0.181 0.784 0.367 1.174 0.555-0.801 1.703-1.603 3.407-2.405 5.108-0.39-0.185-0.783-0.369-1.176-0.546 0.802-1.706 1.603-3.413 2.407-5.117z"></path>
<path fill="#000" d="M23.502 14.198c0.395 0.175 0.786 0.357 1.176 0.544-0.8 1.708-1.604 3.415-2.407 5.122-0.389-0.191-0.78-0.379-1.174-0.561 0.803-1.7 1.603-3.403 2.405-5.105z"></path>
<path fill="#000" d="M13.108 14.351c0.396 0.177 0.788 0.361 1.181 0.546-0.771 1.633-1.538 3.269-2.308 4.903-0.394-0.181-0.786-0.365-1.181-0.545 0.768-1.636 1.538-3.27 2.308-4.905z"></path>
<path fill="#000" d="M23.688 19.276c0.785-1.667 1.569-3.335 2.357-5.001 0.396 0.172 0.788 0.354 1.177 0.54-0.785 1.672-1.572 3.342-2.357 5.013-0.391-0.187-0.784-0.37-1.177-0.552z"></path>
<path fill="#000" d="M17.8 15.332c0.392 0.179 0.785 0.362 1.174 0.548-0.623 1.325-1.244 2.651-1.869 3.974-0.39-0.19-0.78-0.378-1.175-0.557 0.624-1.321 1.244-2.645 1.87-3.965z"></path>
<path fill="#000" d="M15.139 15.532c0.395 0.179 0.786 0.362 1.176 0.549-0.588 1.256-1.181 2.509-1.77 3.764-0.39-0.19-0.784-0.372-1.176-0.554 0.588-1.253 1.178-2.507 1.77-3.759z"></path>
<path fill="#fff" d="M1.174 0.382c0.209-0.061 0.429-0.061 0.645-0.066 10.998 0.008 21.996-0.005 32.994 0.007 0.682-0.034 1.297 0.577 1.258 1.261 0.003 6.944 0.005 13.888-0.001 20.832 0.035 0.68-0.574 1.29-1.255 1.255-11.078 0.006-22.154 0.002-33.231 0.001-0.682 0.044-1.292-0.578-1.256-1.256-0.005-6.944-0.003-13.889 0-20.832-0.024-0.532 0.336-1.049 0.846-1.202M1.973 4.43c0.336 2.626 3.897 3.444 5.779 1.907 1.21 2.271 4.635 2.292 6.301 0.531 0.305 1.518 1.002 3.047 2.299 3.966 1.526 1.067 3.606 1.152 5.31 0.479 1.495-0.607 2.535-1.971 3.107-3.44 1.012 1.754 3.635 2.208 5.188 0.926 0.675-0.557 0.992-1.415 1.147-2.252 0.988 0.281 2.179 0.27 2.999-0.427 0.505-0.411 0.738-1.058 0.791-1.691-0.481-0.002-0.962-0.003-1.442 0-0.142 1.147-2.276 1.156-2.383-0.008-0.47-0.002-0.94-0.002-1.409-0.001 0.049 0.928 0.146 1.918-0.279 2.779-0.516 1.085-2.133 1.115-2.961 0.39-0.834-0.81-0.965-2.059-0.975-3.161-0.483-0.001-0.967-0.001-1.45 0-0.084 1.545-0.446 3.147-1.415 4.391-1.269 1.658-3.948 1.969-5.575 0.678-1.412-1.251-1.694-3.283-1.685-5.068-0.493-0.001-0.984-0.001-1.475 0-0.405 1.389-1.782 2.473-3.266 2.212-1.134-0.057-1.87-1.148-1.884-2.212-0.475-0.001-0.95-0.002-1.425 0.001-0.463 1.667-3.326 1.631-3.821 0.001-0.493-0.005-0.985-0.005-1.478-0.001M11.307 12.703c0.394 0.179 0.788 0.356 1.177 0.545 0.627-1.342 1.268-2.679 1.887-4.025-0.247-0.505-0.439-1.033-0.614-1.566-0.938 1.613-1.616 3.375-2.45 5.047M10.665 8.582c-0.662 1.395-1.316 2.794-1.973 4.19 0.394 0.18 0.786 0.364 1.178 0.547 0.767-1.621 1.52-3.249 2.294-4.866-0.494 0.097-0.996 0.146-1.499 0.129M22.187 11.609c-0.366 0.529-0.563 1.167-0.866 1.738 0.395 0.176 0.786 0.361 1.177 0.543 0.786-1.673 1.584-3.342 2.357-5.022-0.63 1.131-1.516 2.127-2.668 2.741M25.727 9.463c-0.607 1.301-1.224 2.599-1.834 3.899 0.396 0.177 0.787 0.362 1.177 0.552 0.628-1.331 1.25-2.664 1.88-3.994-0.423-0.109-0.836-0.256-1.224-0.457M28.069 9.987c-0.557 1.144-1.089 2.302-1.633 3.453 0.395 0.18 0.787 0.363 1.176 0.554 0.702-1.483 1.388-2.973 2.1-4.451-0.515 0.25-1.073 0.398-1.642 0.444M15.040 10.237c-0.511 1.093-1.027 2.183-1.539 3.275 0.392 0.184 0.785 0.366 1.175 0.556 0.453-0.961 0.902-1.923 1.358-2.883-0.359-0.285-0.692-0.603-0.994-0.947M16.937 11.71c-0.518 1.098-1.036 2.195-1.551 3.294 0.392 0.185 0.786 0.369 1.175 0.56 0.543-1.157 1.085-2.312 1.631-3.466-0.427-0.1-0.846-0.23-1.255-0.388M19.267 12.209c-0.375 0.798-0.752 1.597-1.127 2.395 0.394 0.179 0.785 0.362 1.176 0.545 0.487-1.024 0.96-2.053 1.453-3.073-0.496 0.082-0.998 0.127-1.501 0.133M11.012 13.329c-0.933 1.979-1.864 3.961-2.796 5.941 0.392 0.181 0.785 0.363 1.181 0.538 0.929-1.978 1.862-3.956 2.79-5.935-0.386-0.193-0.779-0.371-1.175-0.544M8.378 13.434c-0.916 1.945-1.831 3.89-2.746 5.835 0.394 0.18 0.786 0.363 1.177 0.549 0.917-1.944 1.831-3.888 2.746-5.833-0.388-0.193-0.78-0.377-1.177-0.552M20.932 14.173c-0.804 1.704-1.605 3.411-2.407 5.117 0.394 0.177 0.786 0.361 1.176 0.546 0.802-1.702 1.604-3.405 2.405-5.108-0.39-0.188-0.781-0.374-1.174-0.555M23.502 14.198c-0.802 1.702-1.602 3.404-2.405 5.105 0.394 0.182 0.785 0.37 1.174 0.561 0.803-1.707 1.607-3.413 2.407-5.122-0.39-0.187-0.781-0.369-1.176-0.544M13.108 14.351c-0.77 1.635-1.54 3.269-2.308 4.905 0.395 0.18 0.787 0.364 1.181 0.545 0.77-1.635 1.537-3.27 2.308-4.903-0.392-0.185-0.785-0.369-1.181-0.546M23.688 19.276c0.394 0.182 0.786 0.365 1.177 0.552 0.785-1.671 1.572-3.341 2.357-5.013-0.389-0.187-0.781-0.369-1.177-0.54-0.788 1.666-1.572 3.334-2.357 5.001M17.8 15.332c-0.626 1.321-1.245 2.645-1.87 3.965 0.395 0.18 0.785 0.367 1.175 0.557 0.624-1.323 1.245-2.649 1.869-3.974-0.389-0.187-0.781-0.37-1.174-0.548M15.139 15.532c-0.591 1.252-1.182 2.506-1.77 3.759 0.392 0.182 0.786 0.364 1.176 0.554 0.589-1.255 1.182-2.508 1.77-3.764-0.39-0.188-0.781-0.371-1.176-0.549z"></path>
</svg>
