<!-- Generated by IcoMoon.io -->
<svg version="1.1" xmlns="http://www.w3.org/2000/svg" width="18" height="24" viewBox="0 0 18 24">
<title>complementary--chevron-left--g1</title>
<path fill="#edae15" d="M0.265 0.829c-0.054-0.396 0.28-0.758 0.683-0.708 5.164-0.004 10.327 0.001 15.491-0.002 0.482-0.008 0.971-0.026 1.441 0.101v23.513c-0.226 0.091-0.463 0.155-0.708 0.15-5.407-0.010-10.817 0.007-16.225-0.008-0.392 0.029-0.743-0.302-0.682-0.703-0.001-7.447-0.001-14.894 0-22.342M9.161 0.845c-2.756 3.812-5.528 7.613-8.282 11.425 2.717 3.653 5.423 7.313 8.156 10.952 2.731-0.006 5.464 0.004 8.195-0.005-2.63-3.659-5.297-7.292-7.933-10.946 2.735-3.816 5.497-7.614 8.233-11.43-2.79 0.001-5.579-0.007-8.369 0.004z"></path>
<path fill="#231f20" d="M9.161 0.845c2.79-0.011 5.579-0.002 8.369-0.004-2.736 3.816-5.498 7.614-8.233 11.43 2.636 3.654 5.303 7.288 7.933 10.946-2.731 0.008-5.464-0.001-8.195 0.005-2.734-3.64-5.44-7.3-8.156-10.952 2.754-3.812 5.526-7.613 8.282-11.425z"></path>
</svg>
