<!-- Generated by IcoMoon.io -->
<svg version="1.1" xmlns="http://www.w3.org/2000/svg" width="46" height="24" viewBox="0 0 46 24">
<title>complementary--when-rainy--g1</title>
<path fill="#3d3d3d" d="M1.639 0.269c12.362-0.124 24.725-0.011 37.088-0.014 0.023 0.128 0.046 0.254 0.070 0.382 0.78 0.014 1.564-0.037 2.336 0.102-1.461 0.129-2.915-0.117-4.377-0.070-5.166 0.004-10.331 0.010-15.497-0.002-0.574 0.004-1.127 0.178-1.699 0.202-5.954 0.026-11.908-0.010-17.862 0.020l0.101-0.068c0.562-0.084 1.131-0.053 1.697-0.052 3.969 0.001 7.937-0.002 11.906 0.002 0.83 0.011 1.669 0.011 2.48-0.183-0.438-0.12-0.891-0.188-1.347-0.179-4.692 0.019-9.386-0.016-14.079 0.007-0.278-0.009-0.548-0.082-0.816-0.146z"></path>
<path fill="#0c0c0c" d="M0.797 0.536c0.243-0.181 0.539-0.281 0.843-0.266 0.268 0.064 0.539 0.137 0.816 0.146 4.693-0.023 9.386 0.012 14.079-0.007 0.456-0.009 0.909 0.059 1.347 0.179-0.812 0.195-1.651 0.195-2.48 0.183-3.969-0.004-7.937-0.001-11.906-0.002-0.566-0.001-1.135-0.032-1.697 0.052-0.302 0.016-0.607 0.024-0.91 0.037-0.023-0.080-0.070-0.242-0.093-0.322z"></path>
<path fill="#202020" d="M38.727 0.255c1.863-0.002 3.728 0.010 5.591 0.001 0.827-0.055 1.304 0.779 1.603 1.428v4.662c-0.060 0.37-0.121 0.743-0.119 1.119 0.026 3.724-0.011 7.448-0.014 11.17 0.060 1.41-0.017 2.82-0.038 4.228-0.259 0.512-0.726 0.861-1.214 1.137h-5.442c-0.154-0.036-0.305-0.078-0.459-0.112-0.526-0.527-1.321-0.198-1.974-0.22-3.533 0.060-7.064-0.068-10.596-0.091 2.086-0.073 4.176 0.008 6.263-0.077 3.65 0.001 7.301 0.122 10.95 0.018 0.333 0.006 0.641-0.129 0.925-0.29 0.338-0.144 0.623-0.382 0.843-0.674 0.1-0.12 0.203-0.237 0.305-0.355-0.13-0.938-0.059-1.886-0.074-2.829-0.018-3.654 0.044-7.306 0.007-10.959-0.030-0.714 0.158-1.501-0.241-2.145-0.043-1.493 0.001-2.987-0.010-4.48 0.041-0.416-0.369-0.631-0.662-0.828-1.024-0.403-2.169-0.032-3.238-0.22-0.772-0.139-1.556-0.088-2.336-0.102-0.024-0.128-0.047-0.254-0.070-0.382M45.363 2.21c-0.095 0.544 0.051 1.089 0.012 1.634-0.218 1.673 0.056 3.359-0.052 5.038-0.060 0.489 0.126 0.949 0.229 1.415 0.009 0.485-0.251 0.933-0.238 1.419-0.015 0.456 0.233 0.871 0.234 1.324-0.066 0.473-0.252 0.931-0.227 1.416 0.038 2.484-0.041 4.971 0.040 7.454 0.119 0.031 0.24 0.063 0.36 0.094-0.017-1.197 0.187-2.427-0.146-3.596-0.098-0.479 0.172-0.928 0.192-1.4 0.048-0.489-0.187-0.94-0.224-1.418 0.030-0.417 0.218-0.807 0.218-1.227-0.005-2.825-0.007-5.65 0.002-8.475-0.173-1.261 0.181-2.524-0.022-3.785-0.127 0.036-0.253 0.072-0.379 0.107z"></path>
<path fill="#202020" d="M0 1.645c0.203-0.409 0.45-0.805 0.797-1.109 0.023 0.080 0.070 0.242 0.093 0.322 0.303-0.013 0.608-0.021 0.91-0.037l-0.191 0.129c-0.214 0.142-0.421 0.296-0.633 0.441-0.094 0.064-0.188 0.129-0.282 0.193-0.010 0.155-0.022 0.31-0.028 0.466-0.169 0.073-0.337 0.146-0.506 0.218-0.005 0.416-0.058 0.876 0.23 1.22-0.092 0.081-0.183 0.163-0.275 0.244 0.075 0.109 0.149 0.216 0.224 0.325-0.191 0.383-0.272 0.808-0.248 1.234 0.042 0.98-0.071 1.965 0.091 2.939 0.114 0.629-0.036 1.257-0.093 1.883-0.083 0.474 0.437 0.764 0.435 1.224 0.066 0.508-0.469 0.831-0.462 1.326-0.032 0.502 0.522 0.817 0.462 1.326 0 0.455-0.47 0.757-0.437 1.222 0.052 2.224-0.037 4.45 0.032 6.675 0.181 0.022 0.362 0.043 0.543 0.066 0 0.093 0 0.187 0 0.281-0.22-0.041-0.44-0.081-0.66-0.12v-20.465z"></path>
<path fill="#545454" d="M19.56 0.869c0.572-0.025 1.125-0.198 1.699-0.202 5.166 0.012 10.331 0.006 15.497 0.002 1.462-0.047 2.916 0.199 4.377 0.070 1.070 0.188 2.214-0.183 3.238 0.22-13.183 0.041-26.368 0.021-39.552 0.032-1.071-0.015-2.142 0.040-3.211-0.042l0.090-0.060c5.954-0.030 11.908 0.006 17.862-0.020z"></path>
<path fill="#b9b9b9" d="M0.975 1.391c0.212-0.146 0.419-0.3 0.633-0.441 1.069 0.081 2.14 0.026 3.211 0.042 13.184-0.011 26.369 0.009 39.552-0.032 0.294 0.197 0.703 0.412 0.662 0.828 0.011 1.493-0.032 2.987 0.010 4.48 0.023 0.557 0.079 1.112 0.072 1.671-0.072 4.872 0.049 9.746-0.069 14.617-0.22 0.292-0.505 0.53-0.843 0.674-0.14-0.004-0.28-0.006-0.419-0.009-12.831-0.078-25.663 0.026-38.494-0.027-1.051 0.011-2.103-0.028-3.153 0.029-0.087-0.001-0.259-0.003-0.345-0.004-0.314-0.083-0.594-0.26-0.816-0.495-0.216-0.49-0.187-1.034-0.18-1.556-0.005-6.237 0.009-12.474-0.002-18.711-0.008-0.364 0.077-0.719 0.18-1.065M1.494 1.217c-0.391 0.197-0.429 0.664-0.42 1.051 0.016 6.644-0.012 13.29 0.015 19.934-0.059 0.59 0.591 0.866 1.085 0.837 13.891 0.003 27.782-0.001 41.673-0.003 0.559 0.043 1.097-0.452 1.062-1.020 0.011-6.711 0.013-13.425-0.029-20.134-0.010-0.464-0.517-0.763-0.94-0.766-13.921-0.015-27.844 0.011-41.765 0.001-0.228 0.013-0.471 0-0.68 0.101z"></path>
<path fill="#fff" d="M1.494 1.217c0.21-0.101 0.453-0.088 0.68-0.101 13.921 0.010 27.844-0.016 41.765-0.001 0.423 0.003 0.93 0.302 0.94 0.766 0.043 6.71 0.041 13.423 0.029 20.134 0.035 0.569-0.503 1.063-1.062 1.020-13.891 0.002-27.782 0.006-41.673 0.003-0.493 0.028-1.143-0.248-1.085-0.837-0.027-6.644 0.001-13.29-0.015-19.934-0.009-0.386 0.029-0.854 0.42-1.051M17.548 3.154l0.009 0.048c-0.602 0.85-0.765 1.986-0.524 2.991 0.328 1.811 2.029 3.233 3.85 3.338 0.54 0.079 1.1-0.115 1.617-0.091 1.521 1.591 3.833 2.403 6.008 1.973 0.432-0.111 0.872-0.204 1.32-0.209 0.027 0.043 0.082 0.129 0.11 0.171 0.208 0.742 1.020 1.238 1.652 1.666-0.245 0.435-0.129 0.92 0.020 1.363 0.112 0.026 0.225 0.053 0.338 0.080-0.104 0.187-0.179 0.456 0.103 0.519 0.443 0.159 0.835 0.793 1.337 0.526 0.152-0.4 0.057-0.861 0.124-1.284 0.116 0.409 0.011 0.829 0.018 1.243 0.272 0.315 0.704 0.025 0.978-0.147 0.285-0.224 0.922-0.444 0.518-0.859 0.114-0.024 0.229-0.050 0.345-0.074 0.18-0.45 0.435-0.931 0.211-1.418 0.342-0.046 0.742-0.191 0.997 0.13 1.307 1.236 3.313 1.655 4.999 1.033 0.271-0.072 0.672-0.173 0.622-0.54 0.011-3.311-0.002-6.623 0.009-9.934-0.012-0.173 0.011-0.373-0.117-0.51-0.478-0.263-1.035-0.173-1.555-0.18-7.087 0.001-14.173 0.001-21.26 0.001-0.578 0.005-1.181-0.073-1.727 0.163M16.054 9.659c0.22 0.481 0.641 0.81 1.037 1.139-0.213 0.194-0.421 0.39-0.628 0.591-0.31-0.386-0.634-0.771-1.062-1.032-0.79 0.603-1.433 1.368-2.179 2.020-0.456 0.553 0.274 1.104 0.735 1.324-0.386 0.491-0.893 0.867-1.29 1.349 0.187 0.408 0.498 0.746 0.915 0.925-0.148 0.26-0.316 0.671-0.681 0.623-0.352-0.349-0.699-0.705-1.025-1.078 0.085-0.067 0.171-0.132 0.258-0.197 0.007-0.080 0.018-0.242 0.025-0.322-0.24-0.249-0.465-0.535-0.81-0.64-0.525 0.66-1.241 1.138-1.764 1.799 0.039 0.26 0.301 0.436 0.493 0.598l-0.14-0.062c0.11 0.204 0.238 0.399 0.375 0.586-0.215 0.212-0.431 0.422-0.636 0.643 0.032-0.527-0.474-1.060-0.974-1.097-0.576 0.309-0.966 0.882-1.417 1.344 0.249 0.393 0.572 0.953 1.122 0.845 0.402-0.179 0.657-0.567 0.98-0.852 0.264 0.462 0.834 1.135 1.407 0.753 0.562-0.559 1.129-1.115 1.701-1.665 0.274 0.439 0.626 0.996 1.232 0.88-0.198 0.214-0.403 0.426-0.549 0.68 0.174 0.334 0.457 0.627 0.805 0.78 0.328 0.138 0.58-0.178 0.798-0.37 0.583-0.594 1.227-1.13 1.757-1.775 0.033-0.006 0.1-0.016 0.134-0.021 0.268 0.341 0.542 0.755 1.027 0.768-0.7 0.489-0.111 1.346 0.517 1.507 0.574-0.352 1.139-0.841 1.476-1.431-0.059-0.451-0.56-0.747-0.938-0.957 0.175-0.204 0.379-0.409 0.395-0.694 0.006-0.006 0.017-0.016 0.023-0.022 0.305-0.012 0.511-0.246 0.715-0.439 0.105 0.445 0.439 0.791 0.827 1.011 0.276-0.016 0.468-0.242 0.599-0.462l-0.14 0.051c0.416-0.557 1.236-0.869 1.385-1.58-0.178-0.163-0.35-0.331-0.52-0.5-0.145 0.001-0.289 0.004-0.433 0.007-0.422 0.456-0.885 0.874-1.323 1.316-0.327-0.299-0.63-0.623-0.951-0.928-0.002-0.083-0.005-0.249-0.006-0.333-0.039-0.012-0.115-0.036-0.153-0.047 0.136-0.032 0.285-0.088 0.357-0.218 0.171-0.051 0.449-0.126 0.279-0.351-0.267-0.355-0.711-1.003-1.204-0.62-0.404 0.421-0.893 0.774-1.243 1.242-0.032 0.448 0.449 0.638 0.658 0.968 0.046 0.341-0.342 0.51-0.532 0.734-0.323 0.249-0.53 0.669-0.918 0.814-0.365-0.306-0.652-0.867-1.22-0.704 0.053-0.603-0.518-0.908-0.934-1.211 0.218-0.214 0.435-0.432 0.648-0.652 0.125 0.106 0.249 0.212 0.375 0.317 0.016-0.050 0.047-0.149 0.063-0.198 0.086 0.336 0.416 0.573 0.759 0.587 0.403-0.403 0.814-0.798 1.208-1.21-0.211-0.226-0.423-0.45-0.637-0.673-0.514 0.026-0.809 0.513-1.14 0.845-0.25-0.383-0.574-0.706-0.92-1-0.17-0.106-0.078-0.328 0.050-0.426 0.461-0.444 0.937-0.874 1.375-1.343 0.198 0.351 0.452 0.699 0.828 0.873 0.389 0.079 0.648-0.3 0.895-0.538-0.064 0.527 0.333 1.099 0.877 1.128 0.41-0.253 0.7-0.654 1.078-0.949 0.346 0.628 0.968 1.028 1.357 1.626 0.195 0.312 0.725 0.685 0.928 0.175 0.111-0.076 0.181-0.193 0.256-0.301 0.113 0.471 0.454 0.85 0.856 1.103 0.266-0.032 0.45-0.266 0.647-0.425 0.561-0.543 1.149-1.062 1.678-1.636 0.242-0.286-0.123-0.6-0.326-0.785-0.197-0.146-0.514-0.449-0.733-0.181-0.242 0.214-0.461 0.452-0.693 0.677-0.21-0.24-0.431-0.479-0.726-0.614-0.038-0.11-0.075-0.219-0.111-0.329 0.531-0.525-0.076-1.088-0.536-1.377-0.552-0.040-0.793 0.609-1.197 0.884-0.318-0.359-0.584-0.967-1.142-0.934-0.422 0.245-0.751 0.617-1.106 0.947 0.167-0.603-0.459-0.883-0.822-1.221 0.619-0.523-0.148-1.12-0.631-1.359-0.591 0.317-1.031 0.851-1.518 1.303M27.505 12.321c-0.101 0.003-0.201 0.006-0.3 0.010-0.139 0.177-0.319 0.31-0.514 0.419-0.006 0.032-0.017 0.097-0.023 0.13 0.351 0.066 0.711 0.145 0.987 0.388-0.003 0.16-0.004 0.319-0.005 0.479-0.154 0-0.307 0.001-0.46 0.003-0.174-0.158-0.345-0.318-0.513-0.482-0.094 0-0.283 0.001-0.378 0.001 0.029 0.119 0.076 0.235 0.093 0.358-0.354 0.266-0.236 0.731-0.222 1.11 0.185 0.011 0.37 0.022 0.557 0.033-0.097 0.051-0.195 0.103-0.291 0.155 0.001 0.081 0.003 0.243 0.004 0.324 0.197 0.033 0.396 0.063 0.595 0.092 0.073 0.060 0.145 0.122 0.215 0.186 0.105 0.006 0.211 0.011 0.316 0.018 0.028 0.061 0.084 0.185 0.111 0.248l-0.104 0.030c0.483 0.078 0.974 0.067 1.461 0.039-0.197 0.163-0.395 0.328-0.592 0.493-0.011 0.077-0.036 0.234-0.047 0.313 0.29 0.052 0.583 0.093 0.878 0.124 0.131 0.077 0.243 0.18 0.359 0.278-0.002 0.098-0.007 0.295-0.009 0.393-0.129-0.005-0.256-0.012-0.384-0.023-0.156-0.231-0.334-0.445-0.523-0.648-0.153 0.006-0.305 0.009-0.457 0.026-0.34 0.574-0.221 1.309 0.079 1.873 0.323 0.577 0.963 0.844 1.554 1.057 0.276-0.437 0.135-0.97 0.201-1.455 0.273 0.415-0.279 1.388 0.466 1.344 0.867-0.021 1.124-0.901 1.627-1.42-0.040-0.257-0.087-0.511-0.142-0.764 0.391-0.419-0.083-0.792-0.541-0.657 0.152-0.101 0.342-0.222 0.276-0.438-0.364-0.485-1.012-0.843-1.627-0.672-0.028 0.421 0.083 0.85-0.044 1.263-0.044-0.421-0.049-0.846-0.059-1.269-0.214-0.011-0.427-0.021-0.641-0.031 0.163-0.178 0.325-0.357 0.487-0.537-0.057-0.104-0.113-0.209-0.17-0.312 0.173-0.043 0.352-0.073 0.517-0.146 0.2-0.686 0.085-1.435-0.363-2-0.034 0.021-0.102 0.062-0.136 0.084-0.383-0.209-0.763-0.423-1.102-0.698-0.065 0.032-0.197 0.097-0.262 0.129 0.125 0.317 0.135 0.656 0.123 0.99-0.154 0.083-0.307 0.167-0.46 0.25-0.218-0.461 0.026-0.956-0.134-1.415-0.135 0.109-0.27 0.216-0.403 0.327M23.334 16.070c0.005 0.125 0.010 0.25 0.015 0.376-0.643 0.654-0.339 1.746 0.079 2.456 0.512 0.197 0.958 0.614 1.529 0.621 0.010-0.469 0.007-0.937 0.041-1.404 0.296 0.42-0.099 0.895 0.047 1.34 0.378 0.25 0.768-0.147 1.12-0.275 0.437-0.15 0.563-0.615 0.776-0.973-0.009-0.072-0.028-0.215-0.038-0.287 0.105-0.248 0.103-0.532 0.042-0.79 0.018-0.998-0.951-1.647-1.84-1.795-0.158 0.497 0.078 1.001-0.026 1.501l-0.046 0.063c-0.021-0.020-0.063-0.060-0.085-0.080-0.009-0.484 0.104-1.001-0.094-1.459-0.546 0.141-1.002 0.495-1.519 0.707M36.013 15.713c-0.042 0.030-0.125 0.092-0.166 0.122 0.023 0.442 0.081 0.892-0.032 1.328-0.602-0.312-0.166-0.882-0.231-1.35-0.574-0.042-1.027 0.387-1.499 0.646 0.28 0.463 0.941 0.432 1.172 0.943-0.546 0.185-0.897-0.266-1.307-0.528-0.168 0.533-0.341 1.227 0.101 1.676 0.287-0.329 0.663-0.578 1.116-0.44-0.166 0.453-0.656 0.482-1.062 0.56 0.093 0.673 0.896 0.84 1.451 0.978 0.026-0.069 0.078-0.207 0.105-0.275-0.271-0.371-0.255-0.821 0.153-1.081 0.113 0.471-0.024 0.968 0.141 1.43 0.527-0.177 1.191-0.422 1.333-1.022-0.387-0.132-0.865-0.162-1.047-0.594 0.237-0.013 0.475-0.021 0.714-0.026 0.016 0.020 0.049 0.060 0.066 0.079 0.108 0.205 0.319 0.302 0.517 0.402 0.152-0.553 0.241-1.204-0.020-1.73-0.433 0.264-0.763 0.792-1.351 0.573 0.23-0.527 0.92-0.46 1.219-0.927-0.456-0.257-0.898-0.541-1.374-0.762z"></path>
<path fill="#343434" d="M0.694 1.584c0.094-0.064 0.188-0.129 0.282-0.193-0.103 0.346-0.188 0.701-0.18 1.065 0.011 6.236-0.003 12.473 0.002 18.711-0.008 0.523-0.037 1.066 0.18 1.556-0.158 0.203-0.315 0.407-0.47 0.612-0.214-0.278-0.378-0.591-0.506-0.916v-0.309c0.22 0.039 0.44 0.079 0.66 0.12 0-0.094 0-0.188 0-0.281 0.055-0.99-0.040-1.973-0.108-2.957 0.214-1.191-0.018-2.394 0.104-3.592 0.018-4.45-0.004-8.901 0.009-13.351 0.007-0.156 0.018-0.311 0.028-0.466z"></path>
<path fill="#343434" d="M35.977 15.905c0.31 0.31 0.777 0.349 1.129 0.597-0.281 0.156-0.569 0.297-0.865 0.42-0.103-0.335-0.184-0.677-0.265-1.018z"></path>
<path fill="#060606" d="M0.159 2.268c0.169-0.073 0.337-0.146 0.506-0.218-0.012 4.45 0.009 8.901-0.009 13.351-0.122 1.198 0.111 2.401-0.104 3.592 0.068 0.984 0.163 1.966 0.108 2.957-0.181-0.023-0.362-0.044-0.543-0.066-0.069-2.224 0.020-4.45-0.032-6.675-0.032-0.465 0.437-0.766 0.437-1.222 0.060-0.508-0.494-0.824-0.462-1.326-0.007-0.494 0.528-0.817 0.462-1.326 0.003-0.459-0.518-0.749-0.435-1.224 0.057-0.626 0.207-1.254 0.093-1.883-0.162-0.973-0.049-1.959-0.091-2.939-0.025-0.426 0.057-0.851 0.248-1.234-0.075-0.109-0.149-0.216-0.224-0.325 0.092-0.081 0.183-0.163 0.275-0.244-0.287-0.344-0.234-0.804-0.23-1.22z"></path>
<path fill="#060606" d="M13.225 12.831c0.489-0.861 1.416-1.379 2.060-2.125 0.084 0.003 0.251 0.008 0.335 0.010 0.138 0.137 0.277 0.274 0.42 0.407 0.059 0.374-0.261 0.598-0.494 0.831-0.575 0.489-1.086 1.044-1.649 1.546-0.223-0.224-0.444-0.45-0.672-0.67z"></path>
<path fill="#030303" d="M45.363 2.21c0.126-0.035 0.252-0.071 0.379-0.107 0.203 1.261-0.151 2.524 0.022 3.785-0.009 2.824-0.007 5.649-0.002 8.475 0 0.42-0.188 0.811-0.218 1.227 0.037 0.478 0.272 0.93 0.224 1.418-0.020 0.472-0.29 0.921-0.192 1.4 0.333 1.169 0.129 2.399 0.146 3.596-0.12-0.031-0.241-0.063-0.36-0.094-0.080-2.483-0.002-4.97-0.040-7.454-0.026-0.486 0.161-0.943 0.227-1.416-0.001-0.453-0.249-0.867-0.234-1.324-0.013-0.487 0.247-0.934 0.238-1.419-0.103-0.467-0.288-0.926-0.229-1.415 0.108-1.679-0.166-3.365 0.052-5.038 0.039-0.545-0.108-1.089-0.012-1.634z"></path>
<path fill="#030303" d="M17.26 4.194c1.83-0.179 3.677-0.074 5.511 0.026 1.642 0.090 3.305-0.313 4.926 0.087 1.54 0.317 3.060-0.461 4.598-0.106 1.045 0.345 2.203 0.329 3.251-0.002 1.153-0.209 2.321 0.038 3.477 0.086 0.921 0.048 1.818-0.247 2.74-0.2 0.041 0.509 0.043 1.020 0.006 1.53-1.454-0.054-2.916 0.105-4.363-0.117-1.57-0.237-3.143 0.286-4.709 0.043-1.019-0.318-2.14-0.362-3.162-0.031-1.121 0.283-2.249-0.052-3.363-0.166-0.963-0.123-1.875 0.344-2.833 0.227-2.013-0.129-4.023 0.106-6.037 0.065-0.024-0.446-0.058-0.891-0.060-1.337l0.016-0.103z"></path>
<path fill="#c7c7c7" d="M17.548 3.154c0.546-0.235 1.149-0.158 1.727-0.163 7.087 0 14.173 0 21.26-0.001 0.521 0.007 1.077-0.083 1.555 0.18-8.181 0.009-16.363 0.043-24.542-0.016z"></path>
<path fill="#a1a1a1" d="M17.548 3.154c8.179 0.060 16.362 0.026 24.542 0.016 0.129 0.137 0.105 0.337 0.117 0.51-0.011 3.312 0.002 6.624-0.009 9.934 0.050 0.367-0.351 0.468-0.622 0.54-1.687 0.623-3.693 0.203-4.999-1.033-0.255-0.321-0.655-0.177-0.997-0.13 0.487-0.525 1.030-0.048 1.456 0.287 1.332 0.982 3.229 1.256 4.749 0.557 0.337-0.116 0.286-0.509 0.295-0.795-0.038-2.614 0.009-5.229-0.006-7.843-0.017-0.615 0.073-1.244-0.084-1.848-0.048-0.002-0.145-0.006-0.193-0.007-8.070-0.001-16.14 0.002-24.21 0.013-0.008-0.038-0.023-0.114-0.030-0.153l-0.009-0.048z"></path>
<path fill="#a1a1a1" d="M0 22.419c0.129 0.324 0.292 0.638 0.506 0.916 0.287 0.25 0.605 0.471 0.959 0.617l0.12 0.048h-0.476c-0.439-0.329-0.839-0.721-1.109-1.203v-0.378z"></path>
<path fill="#8a8a8a" d="M17.033 6.194c-0.241-1.005-0.077-2.141 0.524-2.991 0.008 0.039 0.023 0.115 0.030 0.153-0.017 0.054-0.052 0.162-0.069 0.214-0.084 0.21-0.182 0.412-0.259 0.625l-0.016 0.103c-0.126 0.619-0.134 1.258-0.012 1.877 0.108 0.814 0.613 1.509 1.168 2.087 0.963 0.893 2.329 1.243 3.613 0.995 0.642-0.194 0.986 0.495 1.466 0.771 0.304 0.217 0.613 0.431 0.944 0.608 1.614 0.814 3.545 0.852 5.257 0.339 0.049 0.077 0.098 0.153 0.148 0.231-0.448 0.005-0.888 0.097-1.32 0.209-2.174 0.43-4.486-0.382-6.008-1.973-0.517-0.025-1.076 0.17-1.617 0.091-1.822-0.105-3.523-1.527-3.85-3.338z"></path>
<path fill="#040404" d="M17.519 3.57c0.017-0.053 0.052-0.161 0.069-0.214 8.069-0.011 16.14-0.014 24.21-0.013-0.016 0.197-0.032 0.394-0.047 0.591-0.965-0.017-1.944 0.059-2.898-0.109-0.875-0.3-1.825-0.289-2.731-0.166-0.883 0.302-1.842 0.309-2.756 0.182-0.902-0.333-1.89-0.294-2.829-0.185-1.013 0.346-2.090 0.141-3.136 0.197-1.984 0.071-3.969-0.15-5.951 0.026-1.277 0.117-2.557-0.032-3.833 0.056-0.032-0.121-0.065-0.243-0.097-0.365z"></path>
<path fill="#040404" d="M17.31 5.797c1.286-0.023 2.571 0.041 3.854 0.133 1.421 0.097 2.837-0.185 4.257-0.077 1.102 0.334 2.311 0.431 3.418 0.060 0.911-0.151 1.875-0.152 2.758 0.144 0.963 0.181 1.953 0.076 2.887-0.194 2.428 0.091 4.858-0.1 7.288-0.045 0.060 0.776 0.002 1.552 0.026 2.328-0.535 0.016-1.080 0.005-1.59-0.172-0.623-0.222-1.291-0.163-1.939-0.166-0.681-0.025-1.292 0.408-1.98 0.306-1.089-0.034-2.184-0.059-3.271 0.018-1.215-0.083-2.452 0.123-3.648-0.163-0.571-0.142-1.21 0.073-1.731-0.259-0.326-0.203-0.717-0.196-1.087-0.185-0.692 0.026-1.404-0.076-2.075 0.151 0.618 0.293 1.322 0.090 1.963 0.288-0.782 0.285-1.628 0.107-2.439 0.18-0.752 0.083-1.423-0.386-2.173-0.32-0.732 0.046-1.502-0.117-2.197 0.182-0.39 0.164-0.813 0.222-1.23 0.257-0.555-0.578-1.060-1.273-1.168-2.087 0.025-0.127 0.050-0.252 0.078-0.378z"></path>
<path fill="#232323" d="M41.798 3.342c0.048 0.001 0.145 0.005 0.193 0.007-0.283 1.718 0.144 3.471-0.169 5.187-0.009-0.13-0.019-0.26-0.025-0.39-0.024-0.776 0.035-1.552-0.026-2.328-2.43-0.055-4.86 0.136-7.288 0.045-0.934 0.269-1.924 0.375-2.887 0.194-0.883-0.296-1.847-0.295-2.758-0.144-1.106 0.371-2.316 0.274-3.418-0.060-1.419-0.109-2.836 0.174-4.257 0.077-1.283-0.093-2.568-0.156-3.854-0.133-0.028 0.126-0.054 0.251-0.078 0.378-0.122-0.62-0.113-1.259 0.012-1.877 0.002 0.446 0.036 0.891 0.060 1.337 2.014 0.041 4.024-0.194 6.037-0.065 0.958 0.117 1.87-0.35 2.833-0.227 1.114 0.114 2.242 0.449 3.363 0.166 1.021-0.331 2.143-0.287 3.162 0.031 1.567 0.244 3.139-0.28 4.709-0.043 1.447 0.222 2.908 0.063 4.363 0.117 0.037-0.509 0.035-1.020-0.006-1.53-0.922-0.046-1.819 0.249-2.74 0.2-1.157-0.048-2.324-0.295-3.477-0.086-1.048 0.331-2.206 0.347-3.251 0.002-1.538-0.355-3.058 0.422-4.598 0.106-1.62-0.4-3.283 0.003-4.926-0.087-1.834-0.099-3.681-0.204-5.511-0.026 0.077-0.213 0.175-0.415 0.259-0.625 0.032 0.122 0.065 0.244 0.097 0.365 1.277-0.088 2.557 0.061 3.833-0.056 1.981-0.176 3.967 0.045 5.951-0.026 1.046-0.057 2.123 0.148 3.136-0.197 0.939-0.109 1.927-0.147 2.829 0.185 0.915 0.127 1.874 0.12 2.756-0.182 0.906-0.123 1.856-0.133 2.731 0.166 0.954 0.167 1.933 0.092 2.898 0.109 0.015-0.197 0.031-0.394 0.047-0.591z"></path>
<path fill="#232323" d="M34.591 11.142c0.447-0.38 1.061-0.248 1.598-0.26 1.764 0.067 3.532 0.102 5.296 0.011 0.527-0.061 0.33 0.618 0.353 0.934-0.025-0.251-0.067-0.5-0.106-0.748-0.403-0.005-0.805 0.001-1.207 0.018-0.075 0.139-0.148 0.279-0.222 0.418-1.661 0.030-3.324 0.033-4.965 0.304-0.109 0.094-0.18 0.22-0.265 0.334 0.943 0.161 2-0.182 2.843 0.386 0.433 0.268 0.951 0.070 1.408-0.021-0.493-0.075-0.988-0.136-1.477-0.239 0.559-0.575 1.406-0.36 2.12-0.401 0.463-0.038 0.917 0.095 1.277 0.391-0.3 0.098-0.603 0.189-0.904 0.282 0.458 0.077 0.923 0.107 1.388 0.105 0.037-0.224 0.077-0.447 0.104-0.673-0.040 0.511 0.077 1.025 0.022 1.534-0.746 0.764-1.874 0.36-2.733 0.055-0.748 0.063-1.534 0.124-2.163-0.38-0.208-0.218-0.391-0.5-0.694-0.591-0.366-0.017-0.666 0.242-0.976 0.4-0.018 0.323-0.036 0.645-0.058 0.969-0.455-0.199-0.978-0.375-1.448-0.111-0.349-0.137-0.674-0.323-0.98-0.538 0.642-0.25 1.32-0.37 1.985-0.536-0.886-0.292-1.775 0.058-2.521 0.534 0.026 0.137 0.071 0.27 0.112 0.404-0.144 0.082-0.282 0.174-0.42 0.263-0.091-0.307-0.085-0.642-0.226-0.933-0.214-0.318-0.556-0.515-0.847-0.753 0.465-0.021 0.929-0.069 1.388-0.149-0.026-0.176-0.051-0.351-0.077-0.527 0.126-0.094 0.252-0.19 0.379-0.284-0.87-0.015-1.74-0.014-2.611-0.032 0.043-0.097 0.088-0.194 0.132-0.291 1.286 0.351 2.659-0.094 3.924 0.341-0.517 0.17-1.069 0.168-1.597 0.288 0.55 0.377 1.247 0.243 1.874 0.273 0.417 0.040 0.748-0.245 1.13-0.345 0.458-0.060 0.93-0.037 1.372-0.191-0.725-0.192-1.489-0.032-2.212-0.24z"></path>
<path fill="#232323" d="M24.033 18.467c0.157-0.045 0.314-0.091 0.471-0.135 0.020 0.195 0.039 0.39 0.058 0.586-0.173-0.013-0.345-0.026-0.518-0.041-0.004-0.137-0.007-0.274-0.010-0.41z"></path>
<path fill="#3c3c3c" d="M41.991 3.349c0.157 0.604 0.067 1.233 0.084 1.848 0.015 2.614-0.032 5.229 0.006 7.843-0.009 0.285 0.043 0.678-0.295 0.795-1.52 0.699-3.417 0.425-4.749-0.557l-0.077-0.087c0.629 0.504 1.414 0.443 2.163 0.38 0.859 0.305 1.986 0.71 2.733-0.055 0.056-0.508-0.061-1.022-0.022-1.534 0.002-0.039 0.005-0.116 0.006-0.155-0.024-0.317 0.174-0.996-0.353-0.934-1.764 0.091-3.532 0.056-5.296-0.011-0.537 0.012-1.151-0.12-1.598 0.26 0.723 0.208 1.487 0.048 2.212 0.24-0.442 0.154-0.914 0.13-1.372 0.191-0.382 0.1-0.713 0.385-1.13 0.345-0.626-0.030-1.324 0.104-1.874-0.273 0.528-0.12 1.080-0.118 1.597-0.288-1.265-0.436-2.638 0.010-3.924-0.341-0.044 0.097-0.089 0.194-0.132 0.291l-0.030 0.070c-0.027-0.043-0.082-0.129-0.11-0.171-0.050-0.077-0.099-0.154-0.148-0.231-1.712 0.513-3.643 0.474-5.257-0.339 2.386-0.181 4.794-0.075 7.17-0.363-0.357-0.046-0.716-0.070-1.075-0.090 0.012-0.108 0.026-0.216 0.042-0.324 1.031-0.086 2.083 0.105 3.091-0.199 1.019-0.111 2.061-0.084 3.079 0.028-0.334 0.107-0.677 0.185-1.022 0.243 0.44 0.183 0.839 0.504 1.328 0.542 1.569 0.002 3.133 0.195 4.704 0.095 0.082-0.472 0.118-0.951 0.099-1.431 0.001-0.201-0.009-0.402-0.015-0.602 0.313-1.716-0.114-3.47 0.169-5.187z"></path>
<path fill="#575757" d="M45.043 6.266c0.399 0.643 0.211 1.431 0.241 2.145 0.038 3.653-0.025 7.305-0.007 10.959 0.015 0.943-0.057 1.891 0.074 2.829-0.102 0.118-0.205 0.235-0.305 0.355 0.118-4.871-0.003-9.746 0.069-14.617 0.008-0.558-0.049-1.114-0.072-1.671z"></path>
<path fill="#575757" d="M45.802 7.465c-0.002-0.376 0.060-0.748 0.119-1.119v16.215c-0.043 0.076-0.129 0.227-0.171 0.302 0.021-1.408 0.097-2.819 0.038-4.228 0.003-3.723 0.041-7.447 0.014-11.17z"></path>
<path fill="#181818" d="M24.475 7.675c0.671-0.227 1.383-0.126 2.075-0.151 0.369-0.010 0.761-0.018 1.087 0.185 0.521 0.332 1.16 0.117 1.731 0.259 1.196 0.286 2.433 0.080 3.648 0.163-2.122 0.581-4.302-0.296-6.454 0.041-1.555 0.312-3.146 0.229-4.721 0.257 0 0.061 0.001 0.182 0.001 0.244 1.457 0.023 2.92 0.040 4.369 0.163 0.296 0.053 0.592 0.102 0.89 0.148 0.105 0.050 0.207 0.104 0.31 0.159-0.432 0.083-0.866 0.153-1.293 0.261 0.865 0.441 1.867 0.137 2.794 0.236 0.722 0.093 1.363-0.353 2.079-0.31 1.324 0.043 2.648-0.026 3.971 0.004 0.303 0.021 0.597-0.074 0.844-0.251-1.411-0.417-2.928-0.035-4.378-0.244 1.426-0.093 2.858-0.132 4.288-0.145 0.634-0.043 1.161 0.418 1.793 0.391 1.008-0.005 2.017-0.018 3.026-0.013 0.378 0.012 0.751-0.074 1.092-0.235-1.431-0.147-2.876-0.035-4.311-0.049-0.463 0.024-0.67-0.471-1.030-0.674 0.689 0.102 1.299-0.331 1.98-0.306 0.648 0.004 1.316-0.056 1.939 0.166 0.51 0.177 1.055 0.188 1.59 0.172 0.006 0.13 0.016 0.26 0.025 0.39 0.006 0.2 0.016 0.401 0.015 0.602-0.024 0.255-0.067 0.509-0.106 0.763-1.472 0.026-2.947 0.048-4.414-0.078-0.455-0.068-0.832-0.429-1.316-0.367-1.042 0.071-2.113-0.127-3.117 0.239-2.389 0.129-4.79 0.019-7.179 0.201-0.743 0.035-1.494-0.034-2.225 0.132-0.48-0.276-0.824-0.965-1.466-0.771-1.284 0.248-2.65-0.102-3.613-0.995 0.418-0.035 0.84-0.093 1.23-0.257 0.694-0.3 1.465-0.136 2.197-0.182 0.75-0.066 1.421 0.403 2.173 0.32 0.811-0.073 1.656 0.106 2.439-0.18-0.642-0.198-1.346 0.005-1.963-0.288z"></path>
<path fill="#2a2a2a" d="M21.842 8.429c1.575-0.028 3.165 0.055 4.721-0.257 2.151-0.336 4.331 0.54 6.454-0.041 1.088-0.077 2.182-0.052 3.271-0.018 0.36 0.202 0.567 0.697 1.030 0.674 1.435 0.014 2.88-0.098 4.311 0.049-0.341 0.162-0.714 0.248-1.092 0.235-1.008-0.005-2.017 0.009-3.026 0.013-0.632 0.026-1.159-0.435-1.793-0.391-1.43 0.012-2.862 0.052-4.288 0.145 1.449 0.209 2.967-0.173 4.378 0.244-0.247 0.178-0.54 0.272-0.844 0.251-1.324-0.030-2.648 0.040-3.971-0.004-0.715-0.043-1.357 0.403-2.079 0.31-0.927-0.099-1.929 0.205-2.794-0.236 0.426-0.108 0.861-0.178 1.293-0.261-0.103-0.055-0.205-0.109-0.31-0.159 1.407 0.086 2.82 0.064 4.228 0.039-0.002-0.127-0.004-0.252-0.006-0.378-0.62 0.004-1.261 0.043-1.843-0.214-0.443-0.239-0.793 0.259-1.224 0.277-0.682 0.038-1.38-0.085-2.046 0.129-1.449-0.123-2.912-0.14-4.369-0.163 0-0.061-0.001-0.182-0.001-0.244z"></path>
<path fill="#2a2a2a" d="M32.278 14.764c0.232-0.121 0.463-0.244 0.694-0.369 0.068 0.234 0.136 0.468 0.208 0.7-0.235-0.006-0.471-0.009-0.706-0.011l-0.035-0.052c-0.055-0.089-0.108-0.179-0.161-0.267z"></path>
<path fill="#414141" d="M28.258 8.707c0.431-0.018 0.78-0.516 1.224-0.277 0.582 0.257 1.224 0.218 1.843 0.214 0.002 0.126 0.004 0.251 0.006 0.378-1.409 0.026-2.821 0.047-4.228-0.039-0.298-0.046-0.594-0.095-0.89-0.148 0.665-0.214 1.363-0.091 2.046-0.129z"></path>
<path fill="#c3c3c3" d="M16.054 9.659c0.488-0.452 0.927-0.986 1.518-1.303 0.483 0.239 1.25 0.835 0.631 1.359 0.363 0.338 0.989 0.618 0.822 1.221 0.354-0.33 0.683-0.702 1.106-0.947 0.558-0.033 0.824 0.574 1.142 0.934 0.404-0.275 0.645-0.924 1.197-0.884 0.46 0.289 1.067 0.851 0.536 1.377 0.037 0.11 0.074 0.219 0.111 0.329l-0.096-0.056c-0.072-0.072-0.144-0.144-0.214-0.216 0.114-0.198 0.246-0.392 0.316-0.613-0.18-0.31-0.472-0.531-0.729-0.775-0.788 0.701-1.598 1.387-2.29 2.186 0.082 0.086 0.164 0.173 0.251 0.256 0.137 0.127 0.279 0.249 0.419 0.372 0.396 0.364 0.58 0.912 1.060 1.197 0.109-0.062 0.217-0.124 0.324-0.188-0.203 0.51-0.733 0.137-0.928-0.175-0.389-0.598-1.011-0.998-1.357-1.626-0.378 0.295-0.668 0.695-1.078 0.949-0.544-0.029-0.941-0.601-0.877-1.128-0.247 0.237-0.506 0.617-0.895 0.538-0.376-0.174-0.629-0.522-0.828-0.873-0.437 0.469-0.914 0.899-1.375 1.343-0.129 0.098-0.22 0.32-0.050 0.426 0.347 0.294 0.67 0.617 0.92 1-0.078 0.144-0.141 0.295-0.189 0.452-0.016 0.049-0.047 0.148-0.063 0.198-0.126-0.106-0.25-0.212-0.375-0.317-0.214 0.22-0.43 0.437-0.648 0.652 0.416 0.303 0.986 0.609 0.934 1.211 0.568-0.163 0.855 0.398 1.22 0.704 0.388-0.145 0.595-0.565 0.918-0.814 0.19-0.224 0.578-0.393 0.532-0.734-0.209-0.33-0.69-0.52-0.658-0.968 0.351-0.468 0.839-0.82 1.243-1.242 0.493-0.383 0.936 0.265 1.204 0.62 0.17 0.226-0.108 0.3-0.279 0.351 0.051-0.092 0.101-0.184 0.151-0.277-0.239-0.226-0.471-0.458-0.703-0.692-0.576 0.346-1.018 0.857-1.489 1.326 0.218 0.232 0.44 0.463 0.66 0.695 0.212-0.092 0.422-0.186 0.632-0.283 0.038 0.054 0.076 0.108 0.113 0.162-0.645 0.66-1.357 1.25-1.999 1.913 0.163 0.315 0.411 0.574 0.726 0.74 0.446-0.544 0.995-0.985 1.527-1.44-0.016 0.285-0.22 0.49-0.395 0.694 0.378 0.21 0.88 0.506 0.938 0.957-0.337 0.59-0.902 1.078-1.476 1.431-0.627-0.162-1.217-1.018-0.517-1.507-0.485-0.013-0.759-0.427-1.027-0.768-0.034 0.005-0.101 0.015-0.134 0.021-0.529 0.645-1.174 1.181-1.757 1.775-0.218 0.193-0.471 0.508-0.798 0.37-0.348-0.152-0.631-0.445-0.805-0.78 0.146-0.254 0.351-0.467 0.549-0.68-0.606 0.116-0.958-0.44-1.232-0.88-0.572 0.55-1.139 1.106-1.701 1.665-0.573 0.382-1.143-0.291-1.407-0.753-0.323 0.285-0.578 0.674-0.98 0.852-0.55 0.109-0.873-0.452-1.122-0.845 0.452-0.462 0.841-1.035 1.417-1.344 0.5 0.037 1.006 0.57 0.974 1.097 0.205-0.221 0.42-0.432 0.636-0.643-0.137-0.187-0.266-0.382-0.375-0.586l0.14 0.062c0.108 0.051 0.215 0.1 0.324 0.149 0.492-0.461 0.937-0.975 1.474-1.387 0.326 0.373 0.673 0.729 1.025 1.078 0.366 0.048 0.533-0.363 0.681-0.623-0.417-0.18-0.728-0.517-0.915-0.925 0.397-0.482 0.904-0.858 1.29-1.349-0.461-0.22-1.191-0.771-0.735-1.324 0.746-0.652 1.389-1.417 2.179-2.020 0.428 0.261 0.752 0.645 1.062 1.032 0.207-0.2 0.416-0.397 0.628-0.591-0.397-0.329-0.817-0.658-1.037-1.139M16.369 9.613c0.006 0.085 0.015 0.253 0.020 0.338 0.228 0.216 0.477 0.43 0.811 0.434 0.369-0.411 0.851-0.723 1.126-1.212-0.291-0.171-0.554-0.608-0.923-0.493-0.366 0.286-0.673 0.641-1.034 0.934M17.956 10.202c-0.483 0.494-1.051 0.909-1.484 1.449 0.14 0.266 0.386 0.62 0.676 0.668 0.66-0.49 1.289-1.089 1.75-1.775-0.256-0.197-0.62-0.72-0.941-0.341M18.029 12.255c0.228 0.198 0.43 0.555 0.748 0.566 0.743-0.609 1.385-1.344 2.117-1.973-0.129-0.32-0.394-0.546-0.67-0.739-0.741 0.704-1.543 1.355-2.195 2.146M13.225 12.831c0.228 0.22 0.449 0.446 0.672 0.67 0.563-0.502 1.073-1.057 1.649-1.546 0.233-0.233 0.553-0.457 0.494-0.831-0.143-0.133-0.282-0.27-0.42-0.407-0.084-0.003-0.251-0.008-0.335-0.010-0.643 0.746-1.571 1.264-2.060 2.125M12.933 15.033c0.111 0.338 0.403 0.546 0.681 0.739 0.582-0.43 1.051-0.988 1.576-1.482-0.006-0.082-0.019-0.247-0.025-0.329-0.136-0.133-0.271-0.268-0.404-0.404-0.074 0-0.22 0.002-0.294 0.002-0.46 0.543-1.051 0.953-1.534 1.474M12.737 17.357c0.222 0.228 0.442 0.456 0.672 0.676 0.549-0.531 1.088-1.074 1.682-1.555 0.071-0.407-0.315-0.62-0.565-0.861-0.643 0.524-1.281 1.082-1.789 1.74M9.75 18.123c0.011 0.076 0.034 0.229 0.046 0.305 0.164 0.139 0.326 0.282 0.487 0.425 0.075 0 0.224-0.002 0.299-0.003 0.656-0.723 1.383-1.379 2.072-2.069-0.113-0.379-0.432-0.707-0.848-0.704-0.674 0.694-1.376 1.359-2.056 2.046M13.417 18.803c0.158 0.226 0.345 0.427 0.546 0.614 0.077 0.002 0.229 0.007 0.305 0.009 0.671-0.705 1.416-1.334 2.078-2.049-0.208-0.279-0.46-0.521-0.737-0.73-0.721 0.729-1.482 1.417-2.192 2.156M7.548 18.151c0.124 0.34 0.402 0.616 0.748 0.727 0.449-0.36 0.899-0.74 1.24-1.209-0.241-0.25-0.486-0.497-0.736-0.738-0.433 0.39-0.836 0.813-1.252 1.221M17.505 18.805c0.199 0.266 0.451 0.681 0.83 0.614 0.388-0.293 0.688-0.686 1.072-0.986 0.007-0.078 0.021-0.235 0.028-0.314-0.21-0.214-0.424-0.424-0.643-0.628-0.417 0.45-0.91 0.831-1.288 1.313z"></path>
<path fill="#272727" d="M16.369 9.613c0.361-0.293 0.668-0.647 1.034-0.934 0.369-0.114 0.632 0.322 0.923 0.493-0.275 0.489-0.758 0.801-1.126 1.212-0.334-0.004-0.583-0.217-0.811-0.434-0.005-0.085-0.014-0.253-0.020-0.338z"></path>
<path fill="#2c2c2c" d="M41.731 9.9c0.039-0.253 0.082-0.507 0.106-0.763 0.019 0.479-0.017 0.958-0.099 1.431-1.57 0.099-3.135-0.094-4.704-0.095-0.489-0.039-0.887-0.359-1.328-0.542 0.346-0.058 0.688-0.136 1.022-0.243-1.019-0.112-2.061-0.139-3.079-0.028-1.007 0.304-2.060 0.113-3.091 0.199-0.015 0.108-0.029 0.216-0.042 0.324 0.359 0.020 0.718 0.043 1.075 0.090-2.375 0.288-4.784 0.181-7.17 0.363-0.331-0.177-0.64-0.39-0.944-0.608 0.731-0.166 1.483-0.097 2.225-0.132 2.39-0.182 4.791-0.072 7.179-0.201 1.004-0.366 2.075-0.168 3.117-0.239 0.484-0.062 0.861 0.299 1.316 0.367 1.467 0.127 2.942 0.104 4.414 0.078z"></path>
<path fill="#2c2c2c" d="M30.345 15.78c0.442 0.167 0.84 0.426 1.248 0.662 0.010 0.026 0.033 0.076 0.043 0.101-0.544 0.049-1 0.364-1.194 0.881-0.020-0.16-0.039-0.319-0.058-0.478 0.19-0.374 0.040-0.786-0.040-1.166z"></path>
<path fill="#2f2f2f" d="M17.956 10.202c0.321-0.379 0.685 0.144 0.941 0.341-0.461 0.687-1.090 1.285-1.75 1.775-0.289-0.048-0.536-0.403-0.676-0.668 0.434-0.54 1.002-0.954 1.484-1.449z"></path>
<path fill="#898989" d="M22.394 10.083c0.256 0.244 0.549 0.465 0.729 0.775-0.070 0.221-0.201 0.415-0.316 0.613 0.071 0.073 0.143 0.145 0.214 0.216l0.057 0.081c-0.135 0.004-0.27 0.008-0.404 0.010-0.517 0.507-1.051 0.999-1.52 1.551 0.236 0.195 0.475 0.384 0.719 0.567 0.266-0.231 0.54-0.454 0.801-0.689-0.090 0.129-0.173 0.265-0.26 0.396-0.075 0.109-0.146 0.226-0.256 0.301-0.107 0.064-0.215 0.126-0.324 0.188-0.48-0.285-0.664-0.833-1.060-1.197 0.608-0.164 0.932-0.746 1.394-1.124 0.25-0.263 0.616-0.464 0.742-0.815-0.053-0.475-0.688-0.729-0.98-0.273-0.494 0.626-1.492 0.975-1.574 1.841-0.087-0.083-0.169-0.17-0.251-0.256 0.693-0.798 1.502-1.484 2.29-2.186z"></path>
<path fill="#262626" d="M18.029 12.255c0.652-0.791 1.454-1.442 2.195-2.146 0.276 0.193 0.54 0.419 0.67 0.739-0.731 0.629-1.374 1.363-2.117 1.973-0.318-0.011-0.521-0.368-0.748-0.566z"></path>
<path fill="#262626" d="M17.489 14.83c0.471-0.469 0.913-0.98 1.489-1.326 0.231 0.233 0.464 0.466 0.703 0.692-0.050 0.093-0.1 0.185-0.151 0.277-0.072 0.13-0.221 0.186-0.357 0.218l-0.061 0.002c-0.086 0.146-0.173 0.29-0.259 0.436 0.164 0.070 0.332 0.137 0.493 0.215-0.15 0.020-0.3 0.040-0.451 0.060-0.038-0.054-0.076-0.108-0.113-0.162-0.21 0.097-0.42 0.192-0.632 0.283-0.22-0.232-0.442-0.463-0.66-0.695z"></path>
<path fill="#262626" d="M24.601 17.356c0.043-0.219 0.088-0.438 0.115-0.66 0.028 0.129 0.059 0.257 0.091 0.386 0.176-0.030 0.352-0.060 0.528-0.091 0.123 0.334 0.103 0.686 0.009 1.023-0.139-0.070-0.278-0.141-0.416-0.212-0.086 0.14-0.171 0.281-0.255 0.422-0.060-0.294 0.046-0.739-0.299-0.879-0.354 0.027-0.601 0.334-0.872 0.531-0.083-0.192-0.166-0.384-0.249-0.574 0.085-0.077 0.169-0.154 0.254-0.231 0.126 0.052 0.251 0.103 0.38 0.151 0.234 0.063 0.475 0.094 0.714 0.133z"></path>
<path fill="#222" d="M21.929 10.684c0.292-0.455 0.927-0.202 0.98 0.273-0.126 0.351-0.491 0.553-0.742 0.815-0.462 0.378-0.786 0.96-1.394 1.124-0.14-0.124-0.282-0.246-0.419-0.372 0.082-0.866 1.080-1.215 1.574-1.841z"></path>
<path fill="#222" d="M33.984 14.282c0.254 0.194 0.522 0.371 0.817 0.497-0.18 0.11-0.351 0.23-0.522 0.351-0.067-0.012-0.201-0.038-0.268-0.050-0.026-0.266-0.034-0.532-0.027-0.798z"></path>
<path fill="#101010" d="M40.526 11.098c0.402-0.017 0.804-0.023 1.207-0.018 0.039 0.249 0.081 0.497 0.106 0.748-0.001 0.039-0.004 0.116-0.006 0.155-0.026 0.226-0.067 0.449-0.104 0.673-0.465 0.002-0.93-0.027-1.388-0.105 0.301-0.093 0.604-0.183 0.904-0.282-0.359-0.296-0.814-0.429-1.277-0.391-0.714 0.041-1.561-0.175-2.12 0.401 0.489 0.103 0.984 0.164 1.477 0.239-0.457 0.091-0.975 0.289-1.408 0.021-0.843-0.568-1.9-0.225-2.843-0.386 0.085-0.113 0.156-0.24 0.265-0.334 1.641-0.271 3.304-0.274 4.965-0.304 0.074-0.139 0.147-0.279 0.222-0.418z"></path>
<path fill="#101010" d="M29.968 11.306c0.87 0.018 1.74 0.017 2.611 0.032-0.127 0.094-0.253 0.19-0.379 0.284 0.026 0.176 0.050 0.351 0.077 0.527-0.459 0.080-0.923 0.129-1.388 0.149-0.356-0.283-0.628-0.65-0.92-0.993z"></path>
<path fill="#101010" d="M20.282 15.999c0.437-0.442 0.9-0.86 1.323-1.316 0.144-0.003 0.288-0.006 0.433-0.007 0.17 0.169 0.342 0.337 0.52 0.5-0.149 0.711-0.969 1.022-1.385 1.58-0.46 0.38-1.284-0.248-0.89-0.757z"></path>
<path fill="#101010" d="M12.737 17.357c0.507-0.659 1.146-1.216 1.789-1.74 0.25 0.241 0.636 0.454 0.565 0.861-0.594 0.481-1.133 1.024-1.682 1.555-0.23-0.219-0.45-0.448-0.672-0.676z"></path>
<path fill="#101010" d="M13.417 18.803c0.711-0.739 1.471-1.427 2.192-2.156 0.277 0.21 0.529 0.452 0.737 0.73-0.661 0.715-1.407 1.345-2.078 2.049-0.077-0.003-0.229-0.008-0.305-0.009-0.201-0.187-0.388-0.388-0.546-0.614z"></path>
<path fill="#7b7b7b" d="M29.938 11.376l0.030-0.070c0.292 0.343 0.564 0.711 0.92 0.993 0.291 0.238 0.632 0.435 0.847 0.753 0.141 0.291 0.135 0.626 0.226 0.933 0.139-0.089 0.277-0.18 0.42-0.263 0.246-0.020 0.491-0.015 0.737-0.009 0.017 0.213 0.028 0.425 0.046 0.637 0.083-0.113 0.166-0.227 0.249-0.341 0.145 0.041 0.289 0.080 0.435 0.121-0.016-0.068-0.048-0.204-0.064-0.272 0.47-0.265 0.992-0.089 1.448 0.111 0.022-0.323 0.040-0.645 0.058-0.969 0.31-0.158 0.61-0.417 0.976-0.4 0.302 0.092 0.486 0.373 0.694 0.591l0.077 0.087c-0.426-0.335-0.969-0.813-1.456-0.287-0.253 0.432-0.153 0.962-0.294 1.43-0.371-0.376-0.828-0.71-1.387-0.55 0.332 0.406 0.813 0.628 1.243 0.91-0.454 0.31-0.938 0.584-1.474 0.725 0.093-0.5 0.256-1.088-0.211-1.456-0.162 0.403-0.171 0.841-0.077 1.262-0.028 0.051-0.085 0.154-0.114 0.205-0.274-0.124-0.556-0.243-0.792-0.434 0.235 0.002 0.471 0.006 0.706 0.011-0.072-0.232-0.14-0.466-0.208-0.7-0.231 0.126-0.461 0.249-0.694 0.369 0.053 0.089 0.106 0.179 0.161 0.267-0.19-0.085-0.38-0.173-0.567-0.265 0.409-0.255 0.971-0.394 1.184-0.868-0.526-0.248-0.955 0.231-1.339 0.514-0.086-0.452-0.114-0.911-0.128-1.37-0.631-0.428-1.444-0.924-1.652-1.666M33.984 14.282c-0.007 0.266 0.001 0.533 0.027 0.798 0.067 0.012 0.201 0.038 0.268 0.050 0.17-0.122 0.342-0.242 0.522-0.351-0.296-0.126-0.563-0.303-0.817-0.497z"></path>
<path fill="#ababab" d="M24.536 11.68c0.219-0.267 0.537 0.035 0.733 0.181 0.203 0.185 0.568 0.499 0.326 0.785-0.529 0.574-1.117 1.092-1.678 1.636-0.197 0.16-0.381 0.393-0.647 0.425-0.403-0.252-0.743-0.631-0.856-1.103 0.087-0.131 0.17-0.266 0.26-0.396 0.248-0.251 0.508-0.49 0.776-0.72-0.099-0.252-0.219-0.496-0.371-0.72l-0.057-0.081 0.096 0.056c0.295 0.135 0.516 0.374 0.726 0.614 0.231-0.226 0.451-0.463 0.693-0.677M24.428 12.049c-0.505 0.537-1.055 1.026-1.575 1.547-0.389 0.358 0.211 0.701 0.426 0.964 0.797-0.636 1.491-1.388 2.227-2.091-0.156-0.228-0.33-0.439-0.508-0.648-0.212 0.015-0.433 0.047-0.57 0.229z"></path>
<path fill="#ababab" d="M0 23.827c0.116-0.001 0.175 0.057 0.176 0.173h-0.176v-0.173z"></path>
<path fill="#252525" d="M21.153 13.33c0.47-0.553 1.003-1.044 1.52-1.551 0.134-0.003 0.269-0.007 0.404-0.010 0.152 0.224 0.272 0.468 0.371 0.72-0.267 0.23-0.528 0.469-0.776 0.72-0.262 0.235-0.536 0.457-0.801 0.689-0.244-0.183-0.483-0.372-0.719-0.567z"></path>
<path fill="#252525" d="M34.313 16.498c0.317-0.14 0.631-0.289 0.949-0.429-0.019 0.528 0.019 1.139 0.607 1.337 0.077-0.168 0.154-0.336 0.231-0.504 0.010 0.232 0.016 0.466 0.026 0.699 0.423 0.049 0.831-0.082 1.178-0.32 0.25 0.254 0.185 0.612 0.156 0.932-0.146-0.018-0.292-0.037-0.437-0.055-0.017-0.020-0.050-0.060-0.066-0.079-0.13-0.155-0.265-0.305-0.397-0.456-0.214 0.12-0.515 0.215-0.437 0.523-0.040 0.439 0.488 0.506 0.791 0.639-0.098 0.165-0.195 0.333-0.291 0.5-0.2 0.026-0.401 0.054-0.6 0.086 0.24-0.474 0.056-0.962-0.214-1.374-0.529 0.289-0.573 0.873-0.534 1.414-0.299-0.18-0.574-0.393-0.834-0.623 0.365-0.088 0.694-0.269 0.969-0.524-0.053-0.198-0.104-0.396-0.154-0.593-0.501 0.036-0.896 0.349-1.261 0.66-0.005-0.363-0.003-0.726 0.009-1.089 0.385 0.22 0.81 0.357 1.25 0.407 0.060-0.159 0.122-0.317 0.183-0.475-0.346-0.269-0.721-0.498-1.123-0.675z"></path>
<path fill="#282828" d="M24.428 12.049c0.137-0.181 0.358-0.214 0.57-0.229 0.179 0.209 0.352 0.42 0.508 0.648-0.736 0.703-1.431 1.455-2.227 2.091-0.215-0.263-0.815-0.606-0.426-0.964 0.52-0.521 1.071-1.010 1.575-1.547z"></path>
<path fill="#282828" d="M25.908 17.379c0.272-0.117 0.541-0.239 0.812-0.362 0.026 0.34 0.038 0.68 0.027 1.021-0.303-0.188-0.587-0.407-0.839-0.66z"></path>
<path fill="#3a3a3a" d="M27.505 12.321c0.132-0.111 0.267-0.218 0.403-0.327 0.161 0.459-0.084 0.954 0.134 1.415 0.153-0.083 0.306-0.167 0.46-0.25 0.012-0.334 0.002-0.674-0.123-0.99 0.065-0.032 0.197-0.097 0.262-0.129 0.338 0.275 0.719 0.489 1.102 0.698-0.489 0.231-1.074 0.396-1.175 1.020 0.558 0.113 0.99-0.238 1.39-0.567 0.148 0.489 0.164 0.999-0.060 1.467-0.334-0.389-0.79-0.645-1.318-0.54 0.136 0.485 0.523 0.814 1.037 0.821 0.010 0.071 0.020 0.143 0.030 0.214-0.373 0.207-0.739 0.427-1.111 0.635-0.085-0.505 0.199-1.278-0.516-1.388-0.121 0.425-0.11 0.871-0.015 1.3-0.11 0.031-0.218 0.060-0.327 0.092-0.027-0.062-0.083-0.186-0.111-0.248-0.105-0.007-0.211-0.012-0.316-0.018-0.071-0.064-0.143-0.127-0.215-0.186-0.134-0.109-0.269-0.214-0.404-0.317 0.515-0.094 1.076-0.299 1.175-0.89-0.231-0.008-0.46-0.011-0.691-0.011-0.222 0.195-0.46 0.37-0.707 0.534-0.002-0.343 0.002-0.687-0.016-1.029-0.017-0.123-0.063-0.239-0.093-0.358 0.094 0 0.283-0.001 0.378-0.001 0.168 0.163 0.339 0.324 0.513 0.482 0.153-0.002 0.306-0.003 0.46-0.003 0.001-0.16 0.002-0.319 0.005-0.479-0.276-0.244-0.636-0.322-0.987-0.388 0.006-0.033 0.017-0.098 0.023-0.13 0.195-0.109 0.375-0.242 0.514-0.419 0.099-0.005 0.199-0.008 0.3-0.010z"></path>
<path fill="#e2e2e2" d="M29.742 12.738c0.034-0.022 0.102-0.063 0.136-0.084 0.448 0.565 0.563 1.314 0.363 2-0.164 0.074-0.344 0.104-0.517 0.146 0.057 0.103 0.113 0.208 0.17 0.312-0.162 0.18-0.323 0.359-0.487 0.537 0.214 0.010 0.427 0.020 0.641 0.031 0.009 0.423 0.014 0.848 0.059 1.269 0.128-0.413 0.016-0.842 0.044-1.263 0.615-0.171 1.263 0.187 1.627 0.672 0.066 0.216-0.124 0.337-0.276 0.438 0.458-0.135 0.933 0.238 0.541 0.657l-0.047 0.098c-0.044-0.216-0.094-0.432-0.138-0.648-0.345 0.447-0.859 0.664-1.416 0.522 0.195-0.517 0.65-0.831 1.194-0.881-0.010-0.026-0.033-0.076-0.043-0.101-0.408-0.236-0.806-0.495-1.248-0.662 0.079 0.38 0.23 0.792 0.040 1.166-0.109 0.1-0.221 0.195-0.333 0.291-0.075-0.132-0.147-0.264-0.218-0.397-0.019-0.362 0.040-0.72 0.083-1.078-0.496 0.18-0.952 0.447-1.38 0.754 0.248 0.085 0.498 0.164 0.735 0.276-0.295-0.031-0.588-0.072-0.878-0.124 0.011-0.078 0.036-0.235 0.047-0.313 0.197-0.165 0.395-0.33 0.592-0.493-0.487 0.028-0.978 0.040-1.461-0.039l0.104-0.030c0.109-0.032 0.217-0.060 0.327-0.092-0.094-0.429-0.106-0.875 0.015-1.3 0.715 0.11 0.431 0.883 0.516 1.388 0.372-0.208 0.738-0.428 1.111-0.635-0.010-0.072-0.020-0.144-0.030-0.214-0.513-0.007-0.9-0.336-1.037-0.821 0.528-0.106 0.984 0.15 1.318 0.54 0.224-0.469 0.208-0.979 0.060-1.467-0.4 0.329-0.831 0.68-1.39 0.567 0.101-0.625 0.686-0.79 1.175-1.020z"></path>
<path fill="#424242" d="M32.269 13.318c0.746-0.476 1.635-0.826 2.521-0.534-0.665 0.165-1.344 0.285-1.985 0.536 0.306 0.214 0.631 0.401 0.98 0.538 0.016 0.068 0.048 0.204 0.064 0.272-0.146-0.041-0.29-0.080-0.435-0.121-0.083 0.114-0.166 0.228-0.249 0.341-0.018-0.212-0.029-0.424-0.046-0.637-0.246-0.006-0.491-0.010-0.737 0.009-0.042-0.134-0.086-0.267-0.112-0.404z"></path>
<path fill="#424242" d="M28.536 16.517c0.428-0.307 0.884-0.574 1.38-0.754-0.043 0.358-0.102 0.716-0.083 1.078-0.010 0.21-0.031 0.419-0.066 0.626-0.036-0.001-0.109-0.002-0.146-0.003 0.002-0.098 0.007-0.295 0.009-0.393-0.116-0.097-0.228-0.201-0.359-0.278-0.237-0.111-0.488-0.191-0.735-0.276z"></path>
<path fill="#f4f4f4" d="M31.589 13.042c0.013 0.459 0.042 0.918 0.128 1.37 0.384-0.283 0.813-0.762 1.339-0.514-0.213 0.474-0.775 0.613-1.184 0.868 0.187 0.092 0.377 0.18 0.567 0.265l0.035 0.052c0.236 0.191 0.518 0.31 0.792 0.434 0.029-0.051 0.086-0.154 0.114-0.205-0.094-0.421-0.084-0.859 0.077-1.262 0.467 0.369 0.303 0.956 0.211 1.456 0.536-0.141 1.020-0.415 1.474-0.725-0.43-0.282-0.911-0.504-1.243-0.91 0.559-0.16 1.016 0.174 1.387 0.55 0.141-0.468 0.041-0.998 0.294-1.43 0.224 0.488-0.031 0.969-0.211 1.418-0.116 0.024-0.231 0.050-0.345 0.074 0.404 0.415-0.232 0.635-0.518 0.859-0.274 0.172-0.706 0.462-0.978 0.147-0.007-0.415 0.098-0.834-0.018-1.243-0.067 0.423 0.028 0.884-0.124 1.284-0.502 0.266-0.894-0.368-1.337-0.526-0.282-0.062-0.207-0.332-0.103-0.519-0.113-0.027-0.226-0.054-0.338-0.080-0.148-0.442-0.265-0.928-0.020-1.363z"></path>
<path fill="#f4f4f4" d="M23.334 16.070c0.518-0.212 0.973-0.566 1.519-0.707 0.198 0.458 0.086 0.975 0.094 1.459-0.077-0.072-0.152-0.144-0.229-0.215 0.009-0.343 0.075-0.681 0.101-1.023-0.489 0.159-0.954 0.379-1.383 0.662 0.361 0.206 0.729 0.4 1.090 0.606 0.001 0.121 0.003 0.242 0.005 0.363-0.215 0.007-0.431 0.010-0.645 0.009-0.184-0.23-0.416-0.416-0.663-0.573-0.137 0.515-0.141 1.054-0.008 1.57 0.403-0.254 0.821-0.513 1.311-0.548 0.033 0.657-0.797 0.562-1.073 1.018 0.425 0.293 0.883 0.535 1.372 0.704-0.011-0.471-0.089-0.954 0.093-1.406 0.559 0.279 0.345 0.91 0.249 1.392 0.501-0.153 1.238-0.283 1.364-0.875-0.393-0.18-0.854-0.282-1.072-0.698 0.506-0.18 0.923 0.155 1.294 0.451 0.051-0.111 0.102-0.222 0.15-0.334 0.009 0.072 0.028 0.215 0.038 0.287-0.213 0.358-0.339 0.823-0.776 0.973-0.351 0.128-0.742 0.525-1.12 0.275-0.146-0.445 0.249-0.92-0.047-1.34-0.034 0.467-0.030 0.935-0.041 1.404-0.571-0.007-1.017-0.424-1.529-0.621-0.419-0.71-0.722-1.802-0.079-2.456-0.005-0.126-0.010-0.251-0.015-0.376z"></path>
<path fill="#080808" d="M12.933 15.033c0.484-0.521 1.074-0.931 1.534-1.474 0.074 0 0.22-0.002 0.294-0.002 0.133 0.136 0.268 0.271 0.404 0.404 0.006 0.082 0.019 0.247 0.025 0.329-0.525 0.493-0.994 1.052-1.576 1.482-0.279-0.193-0.57-0.401-0.681-0.739z"></path>
<path fill="#2e2e2e" d="M15.691 14.358c0.332-0.332 0.626-0.819 1.14-0.845 0.214 0.223 0.426 0.447 0.637 0.673-0.394 0.412-0.805 0.807-1.208 1.21-0.343-0.014-0.673-0.25-0.759-0.587 0.048-0.157 0.111-0.308 0.189-0.452z"></path>
<path fill="#e6e6e6" d="M26.169 14.738c-0.014-0.379-0.132-0.845 0.222-1.11 0.018 0.342 0.014 0.686 0.016 1.029 0.247-0.163 0.485-0.339 0.707-0.534 0.231 0 0.46 0.004 0.691 0.011-0.099 0.591-0.66 0.796-1.175 0.89 0.135 0.104 0.27 0.209 0.404 0.317-0.199-0.028-0.398-0.059-0.595-0.092-0.001-0.081-0.003-0.243-0.004-0.324 0.096-0.052 0.194-0.104 0.291-0.155-0.186-0.011-0.371-0.022-0.557-0.033z"></path>
<path fill="#1b1b1b" d="M9.584 16.158c0.523-0.661 1.239-1.14 1.764-1.799 0.345 0.105 0.57 0.391 0.81 0.64-0.007 0.080-0.018 0.242-0.025 0.322-0.087 0.065-0.173 0.13-0.258 0.197-0.537 0.412-0.982 0.926-1.474 1.387-0.109-0.049-0.216-0.098-0.324-0.149-0.192-0.163-0.454-0.338-0.493-0.598z"></path>
<path fill="#1b1b1b" d="M7.548 18.151c0.416-0.408 0.819-0.831 1.252-1.221 0.25 0.241 0.495 0.488 0.736 0.738-0.341 0.47-0.791 0.849-1.24 1.209-0.347-0.111-0.625-0.386-0.748-0.727z"></path>
<path fill="#1b1b1b" d="M25.484 18.197c0.201 0.117 0.412 0.217 0.626 0.307-0.097 0.193-0.193 0.386-0.288 0.58-0.417-0.115-0.362-0.544-0.338-0.887z"></path>
<path fill="#1b1b1b" d="M0.506 23.335c0.155-0.205 0.312-0.409 0.47-0.612 0.222 0.235 0.503 0.412 0.816 0.495 0.282 0.408 0.803 0.323 1.231 0.328 3.087-0.026 6.173 0.013 9.26 0.009 0.839 0.005 1.684-0.045 2.516 0.089 2.445 0.362 4.94-0.066 7.382 0.261l-0.098 0.006c-6.873 0.018-13.746 0.015-20.618 0.043-0.354-0.146-0.672-0.367-0.959-0.617z"></path>
<path fill="#a7a7a7" d="M19.111 14.693l0.061-0.002c0.038 0.011 0.114 0.035 0.153 0.047 0.001 0.083 0.004 0.249 0.006 0.333 0.32 0.305 0.624 0.629 0.951 0.928-0.394 0.509 0.43 1.137 0.89 0.757l0.14-0.051c-0.131 0.22-0.323 0.446-0.599 0.462-0.387-0.22-0.722-0.566-0.827-1.011-0.204 0.194-0.41 0.427-0.715 0.439 0.181-0.22 0.423-0.406 0.54-0.672 0.071-0.269-0.186-0.437-0.366-0.579-0.162-0.078-0.329-0.146-0.493-0.215 0.086-0.146 0.173-0.29 0.259-0.436z"></path>
<path fill="#0f0f0f" d="M18.895 15.403c0.15-0.020 0.3-0.040 0.451-0.060 0.18 0.142 0.437 0.31 0.366 0.579-0.117 0.266-0.359 0.452-0.54 0.672-0.006 0.006-0.017 0.016-0.023 0.022-0.532 0.455-1.081 0.896-1.527 1.44-0.315-0.166-0.562-0.425-0.726-0.74 0.643-0.663 1.354-1.254 1.999-1.913z"></path>
<path fill="#fafafa" d="M25.105 15.337c0.889 0.148 1.858 0.797 1.84 1.795-0.057-0.168-0.121-0.333-0.183-0.498-0.347 0.366-0.795 0.637-1.319 0.517 0.257-0.482 0.837-0.555 1.227-0.884-0.467-0.335-0.968-0.639-1.534-0.769 0.058 0.324 0.137 0.643 0.222 0.961-0.093 0.127-0.186 0.253-0.278 0.38 0.104-0.501-0.132-1.004 0.026-1.501z"></path>
<path fill="#434343" d="M23.437 16.245c0.429-0.283 0.894-0.504 1.383-0.662-0.026 0.342-0.093 0.68-0.101 1.023l-0.003 0.089c-0.027 0.222-0.072 0.441-0.115 0.66-0.239-0.039-0.48-0.070-0.714-0.133 0.214 0.002 0.43-0.002 0.645-0.009-0.002-0.121-0.004-0.242-0.005-0.363-0.361-0.206-0.729-0.4-1.090-0.606z"></path>
<path fill="#747474" d="M25.135 15.498c0.567 0.13 1.068 0.434 1.534 0.769-0.39 0.33-0.97 0.403-1.227 0.884 0.524 0.12 0.972-0.151 1.319-0.517 0.062 0.165 0.127 0.33 0.183 0.498 0.061 0.258 0.063 0.542-0.042 0.79-0.048 0.112-0.099 0.223-0.15 0.334-0.371-0.296-0.788-0.631-1.294-0.451 0.218 0.417 0.679 0.519 1.072 0.698-0.127 0.591-0.864 0.722-1.364 0.875 0.096-0.482 0.311-1.113-0.249-1.392-0.181 0.452-0.104 0.935-0.093 1.406-0.489-0.169-0.947-0.411-1.372-0.704 0.277-0.455 1.106-0.361 1.073-1.018-0.489 0.035-0.907 0.294-1.311 0.548-0.133-0.517-0.129-1.055 0.008-1.57 0.248 0.157 0.479 0.343 0.663 0.573-0.129-0.048-0.254-0.099-0.38-0.151-0.085 0.077-0.169 0.153-0.254 0.231 0.083 0.191 0.166 0.383 0.249 0.574 0.271-0.197 0.518-0.504 0.872-0.531 0.345 0.14 0.239 0.585 0.299 0.879 0.084-0.142 0.169-0.283 0.255-0.422 0.138 0.071 0.277 0.142 0.416 0.212 0.094-0.337 0.114-0.69-0.009-1.023-0.176 0.031-0.352 0.060-0.528 0.091-0.032-0.129-0.062-0.257-0.091-0.386l0.003-0.089c0.077 0.072 0.152 0.144 0.229 0.215 0.022 0.020 0.064 0.060 0.085 0.080l0.046-0.063c0.092-0.127 0.185-0.253 0.278-0.38-0.085-0.317-0.164-0.637-0.222-0.961M25.513 15.913c-0.032 0.286-0.034 0.574-0.017 0.863 0.186-0.139 0.373-0.275 0.563-0.409-0.057-0.158-0.114-0.316-0.172-0.472-0.125 0.006-0.249 0.012-0.374 0.019M25.908 17.379c0.252 0.252 0.536 0.471 0.839 0.66 0.010-0.341-0.002-0.681-0.027-1.021-0.27 0.123-0.54 0.245-0.812 0.362M25.484 18.197c-0.024 0.343-0.078 0.772 0.338 0.887 0.095-0.194 0.191-0.387 0.288-0.58-0.214-0.090-0.425-0.19-0.626-0.307M24.033 18.467c0.004 0.136 0.007 0.273 0.010 0.41 0.173 0.014 0.345 0.027 0.518 0.041-0.019-0.196-0.038-0.391-0.058-0.586-0.157 0.044-0.314 0.090-0.471 0.135z"></path>
<path fill="#909090" d="M36.013 15.713c0.476 0.22 0.917 0.505 1.374 0.762-0.299 0.467-0.989 0.4-1.219 0.927 0.589 0.219 0.918-0.309 1.351-0.573 0.261 0.526 0.172 1.177 0.020 1.73-0.197-0.099-0.409-0.197-0.517-0.402 0.146 0.018 0.291 0.037 0.437 0.055 0.029-0.319 0.094-0.677-0.156-0.932-0.348 0.238-0.755 0.369-1.178 0.32-0.009-0.233-0.015-0.467-0.026-0.699-0.077 0.167-0.154 0.335-0.231 0.504-0.588-0.198-0.626-0.809-0.607-1.337-0.317 0.14-0.631 0.289-0.949 0.429 0.402 0.177 0.777 0.405 1.123 0.675-0.061 0.159-0.123 0.317-0.183 0.475-0.44-0.050-0.866-0.187-1.25-0.407-0.011 0.363-0.013 0.726-0.009 1.089 0.366-0.311 0.761-0.624 1.261-0.66 0.050 0.197 0.101 0.395 0.154 0.593-0.275 0.255-0.605 0.437-0.969 0.524 0.261 0.23 0.536 0.443 0.834 0.623-0.039-0.54 0.005-1.124 0.534-1.414 0.269 0.412 0.454 0.9 0.214 1.374 0.199-0.032 0.4-0.060 0.6-0.086 0.096-0.167 0.193-0.334 0.291-0.5-0.303-0.133-0.831-0.199-0.791-0.639-0.077-0.308 0.224-0.403 0.437-0.523 0.132 0.151 0.266 0.301 0.397 0.456-0.239 0.006-0.477 0.013-0.714 0.026 0.182 0.433 0.66 0.462 1.047 0.594-0.142 0.6-0.806 0.846-1.333 1.022-0.164-0.462-0.027-0.958-0.141-1.43-0.408 0.26-0.424 0.71-0.153 1.081-0.026 0.068-0.078 0.206-0.105 0.275-0.556-0.138-1.359-0.305-1.451-0.978 0.406-0.078 0.896-0.108 1.062-0.56-0.453-0.138-0.829 0.111-1.116 0.44-0.442-0.449-0.269-1.143-0.101-1.676 0.41 0.262 0.761 0.713 1.307 0.528-0.231-0.511-0.892-0.48-1.172-0.943 0.471-0.259 0.924-0.688 1.499-0.646 0.064 0.469-0.371 1.038 0.231 1.35 0.113-0.436 0.055-0.885 0.032-1.328 0.042-0.030 0.125-0.092 0.166-0.122M35.977 15.905c0.080 0.341 0.162 0.682 0.265 1.018 0.296-0.124 0.584-0.265 0.865-0.42-0.352-0.249-0.819-0.287-1.129-0.597z"></path>
<path fill="#2b2b2b" d="M25.513 15.913c0.125-0.007 0.249-0.013 0.374-0.019 0.058 0.157 0.115 0.315 0.172 0.472-0.19 0.134-0.377 0.27-0.563 0.409-0.017-0.288-0.015-0.576 0.017-0.863z"></path>
<path fill="#2b2b2b" d="M30.368 18.32c0.025-0.168 0.049-0.335 0.074-0.503 0.177 0.545 0.643 0.86 1.206 0.893-0.39 0.293-0.766 0.662-1.287 0.67 0.085-0.346 0.2-0.728 0.008-1.060z"></path>
<path fill="#141414" d="M9.75 18.123c0.68-0.687 1.382-1.352 2.056-2.046 0.416-0.003 0.734 0.325 0.848 0.704-0.689 0.691-1.416 1.346-2.072 2.069-0.075 0.001-0.224 0.003-0.299 0.003-0.161-0.144-0.322-0.286-0.487-0.425-0.012-0.077-0.035-0.23-0.046-0.305z"></path>
<path fill="#e1e1e1" d="M28.258 16.819c0.152-0.018 0.304-0.021 0.457-0.026 0.19 0.203 0.368 0.418 0.523 0.648-0.058-0.007-0.173-0.019-0.231-0.025-0.213-0.15-0.409-0.321-0.605-0.491-0.017 0.254-0.050 0.506-0.107 0.754 0.034 0.079 0.069 0.159 0.104 0.238-0.038 0.151-0.076 0.302-0.111 0.454 0.442-0.317 0.874-0.752 1.473-0.651-0.019 0.683-0.656 0.943-1.242 0.994 0.437 0.304 0.9 0.574 1.396 0.769-0.033-0.337-0.087-0.674-0.094-1.013 0.072-0.146 0.149-0.291 0.226-0.436 0.107 0.094 0.215 0.188 0.32 0.286 0.193 0.333 0.077 0.714-0.008 1.060 0.521-0.008 0.897-0.377 1.287-0.67-0.563-0.033-1.029-0.348-1.206-0.893 0.563-0.151 1.045 0.134 1.416 0.534 0.037-0.268 0.084-0.535 0.139-0.8l0.047-0.098c0.055 0.253 0.102 0.507 0.142 0.764-0.503 0.519-0.76 1.399-1.627 1.42-0.745 0.044-0.193-0.929-0.466-1.344-0.066 0.485 0.075 1.019-0.201 1.455-0.591-0.214-1.231-0.48-1.554-1.057-0.3-0.564-0.42-1.299-0.079-1.873z"></path>
<path fill="#292929" d="M29.768 17.466c0.035-0.207 0.056-0.416 0.066-0.626 0.071 0.133 0.144 0.265 0.218 0.397 0.111-0.096 0.224-0.191 0.333-0.291 0.019 0.159 0.038 0.318 0.058 0.478 0.557 0.143 1.071-0.075 1.416-0.522 0.044 0.216 0.094 0.432 0.138 0.648-0.055 0.266-0.102 0.532-0.139 0.8-0.371-0.4-0.853-0.685-1.416-0.534-0.025 0.167-0.049 0.334-0.074 0.503-0.105-0.098-0.214-0.192-0.32-0.286-0.077 0.145-0.154 0.289-0.226 0.436-0.014-0.251-0.038-0.501-0.060-0.75-0.599-0.101-1.031 0.334-1.473 0.651 0.036-0.151 0.074-0.302 0.111-0.454-0.035-0.079-0.070-0.159-0.104-0.238 0.057-0.248 0.090-0.5 0.107-0.754 0.196 0.17 0.392 0.341 0.605 0.491 0.059 0.006 0.174 0.018 0.231 0.025 0.128 0.010 0.255 0.018 0.384 0.023 0.037 0.001 0.11 0.002 0.146 0.003z"></path>
<path fill="#111" d="M17.505 18.805c0.378-0.482 0.871-0.864 1.288-1.313 0.218 0.204 0.433 0.414 0.643 0.628-0.008 0.078-0.022 0.235-0.028 0.314-0.385 0.3-0.684 0.693-1.072 0.986-0.379 0.067-0.63-0.349-0.83-0.614z"></path>
<path fill="#373637" d="M29.761 17.719c0.023 0.249 0.046 0.499 0.060 0.75 0.007 0.339 0.060 0.676 0.094 1.013-0.496-0.196-0.958-0.465-1.396-0.769 0.586-0.051 1.223-0.311 1.242-0.994z"></path>
<path fill="#383838" d="M1.792 23.218c0.086 0.001 0.258 0.003 0.345 0.004 1.736 0.224 3.497-0.055 5.235 0.174 2.234 0.080 4.472 0.020 6.708 0.048 2.661 0.431 5.371 0.056 8.050 0.247 1.124 0.14 2.26 0.101 3.39 0.094 0.291 0.020 0.435-0.265 0.606-0.446 5.243-0.074 10.488 0.001 15.732-0.024 0.643 0.011 1.29 0.010 1.927-0.094 0.139 0.003 0.279 0.005 0.419 0.009-0.284 0.161-0.592 0.296-0.925 0.29-3.649 0.104-7.3-0.017-10.95-0.018-2.086 0.084-4.176 0.004-6.263 0.077 3.532 0.023 7.063 0.15 10.596 0.091 0.653 0.022 1.448-0.307 1.974 0.22-5.484-0.005-10.969 0.001-16.453 0.016-2.443-0.327-4.937 0.101-7.382-0.261-0.832-0.134-1.677-0.084-2.516-0.089-3.087 0.005-6.173-0.035-9.26-0.009-0.428-0.005-0.95 0.080-1.231-0.328z"></path>
<path fill="#4f4f4f" d="M2.137 23.221c1.050-0.058 2.102-0.018 3.153-0.029 12.831 0.053 25.664-0.051 38.494 0.027-0.637 0.105-1.283 0.106-1.927 0.094-5.244 0.025-10.489-0.050-15.732 0.024-0.171 0.181-0.315 0.466-0.606 0.446-1.13 0.008-2.266 0.046-3.39-0.094-2.68-0.191-5.39 0.184-8.050-0.247-2.236-0.028-4.474 0.032-6.708-0.048-1.738-0.229-3.499 0.050-5.235-0.174z"></path>
<path fill="#4f4f4f" d="M1.466 23.952c6.872-0.027 13.745-0.025 20.618-0.043l-0.184 0.091h-20.314l-0.12-0.048z"></path>
<path fill="#646464" d="M22.084 23.909l0.098-0.006c5.484-0.015 10.969-0.021 16.453-0.016 0.154 0.034 0.305 0.077 0.459 0.112h-17.195l0.184-0.091z"></path>
</svg>
