<svg xmlns="http://www.w3.org/2000/svg" width="24" height="24">
    <path d="M1.461 4h21.117a2.067 2.067 0 0 1 1.482 1.461v13.055a2.105 2.105 0 0 1-1.459 1.483H1.478a2.104 2.104 0 0 1-1.479-1.461V5.478c.177-.724.748-1.279 1.461-1.479zm.033.44C.82 4.567.351 5.241.401 5.914c.003 4.096-.006 8.194.006 12.29-.018.742.646 1.409 1.389 1.391 6.783.011 13.566.001 20.349.005.785.066 1.527-.604 1.509-1.395.009-4.136.009-8.272 0-12.408.028-.855-.811-1.499-1.63-1.404-6.843.034-13.691-.063-20.529.048z"/>
    <path d="M11.335 5.221c.238-.26.613-.225.931-.23 1.486.011 2.971-.006 4.457.007a.783.783 0 0 1 .633.286c.827.942 1.629 1.907 2.452 2.852.667.643.065 1.579.023 2.351-.005.503-.345.879-.846.941-.171-.9-.96-1.665-1.903-1.645-1.037-.036-1.908.883-1.95 1.896-2.245-.009-4.489-.003-6.735-.003-.034-1.039-.961-1.972-2.021-1.89-.883.017-1.597.716-1.817 1.541-.797-.238-.504-1.185-.569-1.802-.063-.414.203-.859.645-.887 1.198-.171 2.397-.349 3.597-.501.243-.027.485-.113.649-.303.821-.87 1.621-1.757 2.454-2.613zm.385.398c-.613.551-1.157 1.184-1.708 1.797-.262.255-.035.749.327.724 2.249.009 4.501.013 6.75-.003.649-.03.549-.791.435-1.231-.117-.471-.018-1.283-.679-1.34-1.705.015-3.436-.088-5.126.052z"/>
    <path d="M5.939 10.192c.805-.307 1.785.179 2.026 1.005.272.779-.194 1.699-.971 1.957-.839.332-1.868-.231-2.057-1.108-.206-.758.262-1.605 1.002-1.854zm.24.593c-.665.175-.876 1.132-.353 1.573.498.507 1.464.189 1.561-.515.153-.664-.568-1.297-1.209-1.059zM16.526 10.198c.8-.314 1.781.157 2.034.977.289.787-.185 1.729-.978 1.984-.803.307-1.781-.196-2.017-1.017-.261-.772.195-1.682.961-1.944zm.24.592c-.689.191-.861 1.211-.277 1.621.532.453 1.452.076 1.507-.621.112-.657-.61-1.24-1.231-1.001zM2.707 14.755c.214.001.429.001.645-.003-.007.378.005.755.006 1.133.679-.225.957-1.002 1.646-1.217.046.178.101.354.166.526-.398.194-.668.55-.984.847.667.365.815 1.174 1.289 1.717-.261-.003-.522-.003-.783-.003-.345-.555-.539-1.415-1.337-1.435-.006.479-.003.957-.003 1.437a13.87 13.87 0 0 0-.645 0v-3.001zM6.52 14.754c.175.003.351.001.527-.003.021.075.061.224.083.299.525-.658 1.627-.425 1.949.313.303.754.257 1.802-.487 2.285-.439.311-1.033.25-1.435-.094.009.495.007.989.007 1.483-.215-.003-.429-.001-.645.001l.001-4.285zm1.323.489c-.825.129-.745 1.105-.64 1.726.278.391.971.525 1.221.034.35-.565.259-1.751-.581-1.76zM11.109 14.751c.785-.335 1.729.219 1.849 1.054.265.919-.345 2.147-1.412 2.053-1.553-.052-1.801-2.569-.437-3.107zm.251.494c-.733.413-.687 1.896.203 2.083 1.185-.013 1.035-2.446-.203-2.083zM14.406 14.753l.653.009c.243.499.493.996.743 1.494.248-.501.501-1 .749-1.5.215.001.429 0 .645-.003.093 1.001.181 2.002.269 3.003a19.69 19.69 0 0 0-.643.001c-.053-.693-.105-1.386-.163-2.077-.29.563-.57 1.131-.858 1.695-.287-.564-.569-1.132-.859-1.695-.057.692-.108 1.385-.161 2.077a15.407 15.407 0 0 0-.645-.001l.268-3.003zM18.59 16.03c-.003-.777.734-1.439 1.503-1.367.841.064 1.477 1.002 1.226 1.808-.687 0-1.374-.005-2.061.006.035.797 1.086 1.067 1.511.402.169.103.337.205.507.305-.337.365-.769.746-1.307.67-.894-.047-1.518-.969-1.379-1.825zm.669-.1c.492.005.984.007 1.476-.005-.057-.926-1.464-.953-1.476.005z"/>
    <path fill="#fff" d="M1.494 4.44c6.838-.111 13.687-.015 20.529-.048.819-.095 1.658.549 1.63 1.404.009 4.136.009 8.272 0 12.408.018.791-.724 1.461-1.509 1.395-6.783-.003-13.566.006-20.349-.005-.743.018-1.407-.649-1.389-1.391C.394 14.107.403 10.009.4 5.913.351 5.24.82 4.567 1.493 4.439zm9.841.781c-.833.855-1.634 1.743-2.454 2.613-.163.19-.405.277-.649.303-1.201.153-2.399.331-3.597.501-.441.028-.707.473-.645.887.065.617-.227 1.564.569 1.802.219-.825.933-1.524 1.817-1.541 1.06-.082 1.987.851 2.021 1.89 2.245 0 4.489-.006 6.735.003.042-1.013.913-1.932 1.95-1.896.943-.021 1.732.745 1.903 1.645a.928.928 0 0 0 .846-.941c.042-.771.643-1.708-.023-2.351-.823-.945-1.625-1.911-2.452-2.852a.781.781 0 0 0-.633-.286c-1.486-.013-2.971.003-4.457-.007-.317.005-.693-.03-.931.23zm-5.396 4.971c-.74.249-1.208 1.096-1.002 1.854.189.877 1.219 1.44 2.057 1.108.777-.259 1.243-1.179.971-1.957-.241-.825-1.221-1.311-2.026-1.005zm10.587.006c-.766.262-1.222 1.172-.961 1.944.237.821 1.214 1.323 2.017 1.017.793-.255 1.267-1.197.978-1.984-.253-.819-1.234-1.291-2.034-.977zM2.707 14.755v3.001c.215-.005.429-.005.645 0 0-.48-.003-.959.003-1.437.797.021.991.881 1.337 1.435.261 0 .522 0 .783.003-.474-.543-.623-1.352-1.289-1.717.317-.297.586-.653.984-.847a5.093 5.093 0 0 1-.166-.526c-.689.215-.967.993-1.646 1.217-.001-.378-.013-.755-.006-1.133-.215.003-.431.003-.645.003zm3.813-.001l-.001 4.285c.215-.003.429-.003.645-.001 0-.495.003-.989-.007-1.483.402.344.996.405 1.435.094.745-.483.791-1.53.487-2.285-.323-.737-1.425-.971-1.949-.313l-.083-.299c-.175.003-.351.005-.527.003zm4.589-.003c-1.364.538-1.117 3.055.437 3.107 1.067.094 1.677-1.135 1.412-2.053-.12-.835-1.065-1.389-1.849-1.054zm3.297.002l-.268 3.003c.215-.003.429-.003.645.001.053-.693.105-1.386.161-2.077.29.563.571 1.131.859 1.695.287-.564.568-1.132.858-1.695.058.692.109 1.385.163 2.077.214-.005.429-.005.643-.001-.089-1.001-.177-2.002-.269-3.003-.215.003-.429.005-.645.003-.248.501-.501.999-.749 1.5-.25-.498-.501-.995-.743-1.494-.218-.003-.435-.007-.653-.009zm4.184 1.277c-.139.855.485 1.778 1.379 1.825.538.076.969-.305 1.307-.67-.169-.101-.338-.202-.507-.305-.425.665-1.476.395-1.511-.402.687-.011 1.374-.006 2.061-.006.251-.806-.385-1.745-1.226-1.808-.769-.072-1.506.589-1.503 1.367z"/>
    <path fill="#fff" d="M11.72 5.619c1.69-.139 3.421-.037 5.126-.052.661.058.562.869.679 1.34.113.439.213 1.201-.435 1.231a660.33 660.33 0 0 1-6.75.003c-.362.025-.589-.469-.327-.724.551-.613 1.095-1.246 1.708-1.797zM6.179 10.785c.641-.238 1.362.395 1.209 1.059-.097.704-1.063 1.021-1.561.515-.523-.441-.313-1.398.353-1.573zM16.766 10.79c.621-.239 1.343.344 1.231 1.001-.055.697-.975 1.074-1.507.621-.585-.41-.413-1.431.277-1.621zM7.843 15.243c.84.009.931 1.195.581 1.76-.25.491-.943.357-1.221-.034-.105-.621-.185-1.597.64-1.726zM11.36 15.245c1.238-.363 1.388 2.069.203 2.083-.89-.187-.936-1.67-.203-2.083zM19.259 15.93c.012-.957 1.419-.931 1.476-.005a45.39 45.39 0 0 1-1.476.005z"/>
</svg>
