<!-- Generated by IcoMoon.io -->
<svg version="1.1" xmlns="http://www.w3.org/2000/svg" width="50" height="24" viewBox="0 0 50 24">
<title>complementary--snowmobiles--g1</title>
<path fill="#030303" d="M1.481 0h46.695c0.776 0.506 1.307 1.294 1.611 2.157v19.361c-0.493 0.945-1.21 1.736-1.958 2.482h-36.153c-3.038-0.186-6.089-0.11-9.128-0.286-1.348-0.061-2.050-1.399-2.548-2.474v-18.715c0.232-0.97 0.72-1.871 1.481-2.525M2.625 0.814c-1.088 0.546-1.519 1.849-1.496 3-0.018 5.29-0.049 10.578-0.051 15.866-0.069 1.422 0.863 3.169 2.479 3.069 14.224 0.041 28.45 0.112 42.674 0.143 1.586 0.13 2.553-1.547 2.515-2.954 0.036-5.372 0.049-10.744 0.059-16.116 0.051-1.356-0.781-3.023-2.311-3.041-14.050-0.061-28.103-0.1-42.156-0.158-0.569 0.020-1.174-0.046-1.713 0.191z"></path>
<path fill="#030303" d="M26.62 5.089c-0.585-1.256-0.202-3.475 1.455-3.577 1.404 0.005 2.089 1.611 1.593 2.798 2.211 1.94 3.769 4.912 3.582 7.905 1.708 0.12 3.503-0.049 5.066 0.794 0.909 1.443-0.299 3.434 0.814 4.8 0.62 0.937 0.299 2.134 0.184 3.174-3.61 0.694-7.335 0.299-10.994 0.332-1.394 0.087-2.824-0.383-3.682-1.529-2.071-0.454-4.195-0.723-6.268-1.195-0.705 0.342 0.082 0.937 0.503 1.098 1.259 0.871 2.972 0.184 4.21 1.126-2.671 0.86-5.515 0.539-8.27 0.506-2.117-0.273-5.004-0.756-5.497-3.26 1.009 0.649 1.902 1.588 3.186 1.647 1.486 0.008 2.962-0.271 4.448-0.314-0.061-0.37-0.125-0.738-0.207-1.1-1.667-0.153-3.38-0.401-4.82-1.325 1.172-3.756 4.662-6.414 8.308-7.432 0.513-1.534 0.523-3.322 1.619-4.621 0.465 1.833-0.38 3.666 0.033 5.5 0.222-1.060 0.414-2.198 1.32-2.911 1.174-0.232 2.254 0.14 3.347 0.495 1.093-0.393 1.417-1.841 1.435-2.898-0.454 0.003-0.911-0.003-1.366-0.010M23.4 8.625c-0.368 1.58-1.215 3.074-0.934 4.754 0.319 0.207 0.633 0.419 0.945 0.636 0.454-0.947 0.628-2.035 1.238-2.895 1.126-0.957 2.745-0.342 4.034-0.878-0.919-0.914-2.403-0.253-3.457-0.996-0.117 0.105-0.357 0.317-0.475 0.421-0.46-0.337-0.911-0.679-1.351-1.042M26.178 12.725c-0.217 0.878-0.814 1.568-1.22 2.354 0.026 0.643 0.843 0.59 1.294 0.477 0.628-0.7 0.784-1.672 0.973-2.561-0.35-0.089-0.697-0.181-1.047-0.271z"></path>
<path fill="#fff" d="M2.625 0.814c0.539-0.237 1.144-0.171 1.713-0.191 14.053 0.059 28.106 0.097 42.156 0.158 1.529 0.018 2.362 1.685 2.311 3.041-0.010 5.372-0.023 10.744-0.059 16.116 0.038 1.407-0.929 3.084-2.515 2.954-14.224-0.031-28.45-0.102-42.674-0.143-1.616 0.1-2.548-1.647-2.479-3.069 0.003-5.288 0.033-10.575 0.051-15.866-0.023-1.151 0.409-2.454 1.496-3M26.62 5.089c0.454 0.008 0.911 0.013 1.366 0.010-0.018 1.057-0.342 2.505-1.435 2.898-1.093-0.355-2.173-0.728-3.347-0.495-0.906 0.712-1.098 1.851-1.32 2.911-0.414-1.833 0.431-3.666-0.033-5.5-1.095 1.3-1.106 3.087-1.619 4.621-3.646 1.019-7.136 3.677-8.308 7.432 1.44 0.924 3.153 1.172 4.82 1.325 0.082 0.363 0.146 0.73 0.207 1.1-1.486 0.043-2.962 0.322-4.448 0.314-1.284-0.059-2.178-0.998-3.186-1.647 0.493 2.505 3.38 2.987 5.497 3.26 2.755 0.033 5.599 0.355 8.27-0.506-1.238-0.942-2.951-0.255-4.21-1.126-0.421-0.161-1.208-0.756-0.503-1.098 2.073 0.472 4.197 0.74 6.268 1.195 0.858 1.146 2.288 1.616 3.682 1.529 3.659-0.033 7.384 0.363 10.994-0.332 0.115-1.039 0.437-2.237-0.184-3.174-1.113-1.366 0.094-3.357-0.814-4.8-1.563-0.843-3.357-0.674-5.066-0.794 0.186-2.992-1.371-5.964-3.582-7.905 0.495-1.187-0.189-2.793-1.593-2.798-1.657 0.102-2.040 2.321-1.455 3.577z"></path>
<path fill="#fff" d="M23.4 8.625c0.439 0.363 0.891 0.705 1.351 1.042 0.117-0.105 0.357-0.317 0.475-0.421 1.054 0.743 2.538 0.082 3.457 0.996-1.289 0.536-2.908-0.079-4.034 0.878-0.61 0.86-0.784 1.948-1.238 2.895-0.311-0.217-0.626-0.429-0.945-0.636-0.281-1.68 0.567-3.174 0.934-4.754z"></path>
<path fill="#fff" d="M26.178 12.725c0.35 0.089 0.697 0.181 1.047 0.271-0.189 0.889-0.345 1.861-0.973 2.561-0.452 0.112-1.269 0.166-1.294-0.477 0.406-0.786 1.003-1.476 1.22-2.354z"></path>
</svg>
