<!-- Generated by IcoMoon.io -->
<svg version="1.1" xmlns="http://www.w3.org/2000/svg" width="37" height="24" viewBox="0 0 37 24">
<title>complementary--trucks--g2</title>
<path fill="#ed171f" d="M0 0h36.97c0.001 7.957 0.039 15.918-0.019 23.874-0.605 0.060-1.214 0.042-1.821 0.035-11.71-0.007-23.42 0.007-35.13-0.007v-23.901M1.95 1.942c-0.016 6.698-0.015 13.397 0 20.095 11.064 0.015 22.129 0.015 33.193 0.001 0.015-6.699 0.015-13.398 0-20.096-11.064-0.015-22.129-0.015-33.193 0z"></path>
<path fill="#c31219" opacity="0.83" d="M36.97 0h0.131v24h-37.101v-0.099c11.71 0.014 23.42 0 35.13 0.007 0.608 0.007 1.216 0.026 1.821-0.035 0.058-7.956 0.020-15.917 0.019-23.874z"></path>
<path fill="#feb82f" d="M1.95 1.942c11.064-0.015 22.129-0.015 33.193 0 0.015 6.698 0.015 13.397 0 20.096-11.064 0.014-22.129 0.014-33.193-0.001-0.015-6.698-0.016-13.397 0-20.095M12.95 6.14c-0.015 1.973 0.002 3.948-0.008 5.921-0.269 0.006-0.539 0.006-0.809 0.001-0.014-0.885 0.010-1.77-0.009-2.655 0.008-0.336-0.3-0.626-0.635-0.605-1.358-0.012-2.717-0.009-4.074-0.001-0.659-0.014-1.268 0.449-1.475 1.068-0.415 1.129-0.852 2.253-1.251 3.389-0.070 1.183-0.006 2.376-0.030 3.562-0.079 0.988 1.235 0.457 1.825 0.584-0.319 1.413 0.864 2.928 2.332 2.855 1.44 0.027 2.577-1.463 2.262-2.852 2.944-0.001 5.888 0.003 8.831-0.002-0.314 1.379 0.807 2.861 2.239 2.843 1.469 0.088 2.681-1.421 2.351-2.842 0.373 0 0.747 0 1.12 0.001-0.307 1.408 0.864 2.905 2.323 2.842 1.443 0.038 2.594-1.45 2.278-2.842 0.729-0.108 1.949 0.357 2.237-0.602 0.053-3.515 0.002-7.037 0.013-10.554 0.053-0.466-0.336-0.919-0.814-0.89-5.955-0.007-11.912-0.005-17.868-0.001-0.436-0.035-0.852 0.337-0.837 0.781z"></path>
<path fill="#feb82f" d="M6.754 10.359c1.466-0.002 2.93-0.005 4.395 0.001 0.006 0.83 0.005 1.66 0 2.49-1.775 0.006-3.551 0.005-5.326 0.001 0.306-0.832 0.613-1.665 0.931-2.493z"></path>
<path fill="#000" d="M12.95 6.14c-0.015-0.444 0.401-0.816 0.837-0.781 5.956-0.003 11.913-0.006 17.868 0.001 0.478-0.029 0.867 0.424 0.814 0.89-0.010 3.518 0.041 7.039-0.013 10.554-0.288 0.959-1.507 0.494-2.237 0.602 0.315 1.391-0.835 2.88-2.278 2.842-1.46 0.064-2.631-1.434-2.323-2.842-0.373-0.001-0.747-0.001-1.12-0.001 0.329 1.42-0.882 2.93-2.351 2.842-1.432 0.019-2.553-1.464-2.239-2.843-2.944 0.006-5.888 0.001-8.831 0.002 0.315 1.389-0.822 2.879-2.262 2.852-1.468 0.073-2.65-1.441-2.332-2.855-0.59-0.128-1.904 0.403-1.825-0.584 0.024-1.186-0.039-2.379 0.030-3.562 0.399-1.136 0.836-2.26 1.251-3.389 0.206-0.619 0.816-1.082 1.475-1.068 1.358-0.008 2.717-0.010 4.074 0.001 0.335-0.021 0.643 0.269 0.635 0.605 0.020 0.885-0.005 1.77 0.009 2.655 0.27 0.005 0.54 0.005 0.809-0.001 0.010-1.973-0.007-3.948 0.008-5.921M6.754 10.359c-0.318 0.828-0.625 1.66-0.931 2.493 1.775 0.003 3.551 0.005 5.326-0.001 0.005-0.83 0.006-1.66 0-2.49-1.466-0.006-2.93-0.003-4.395-0.001z"></path>
</svg>
