<svg xmlns="http://www.w3.org/2000/svg" width="24" height="24">
    <path fill="#1f1917" d="M0 0h24v24H0V0zm.48.48v23.04h23.032V.48H.48z"/>
    <path fill="#1f1917" d="M7.798 4.13c.25-.019.498-.04.748-.06.071 1.513.146 3.026.208 4.541l-.353.02c-.204-1.5-.403-3-.602-4.501zM9.754 4.102l.739.125c-.319 1.472-.644 2.944-.962 4.417a21.596 21.596 0 0 0-.354-.02c.176-1.51.385-3.014.577-4.522zM5.98 4.655c.233-.09.466-.178.701-.262.46 1.446.93 2.888 1.373 4.339l-.335.116C7.143 7.449 6.557 6.052 5.98 4.654z"/>
    <path fill="#1f1917" d="M1.718 8.618a22.35 22.35 0 0 1 3.965-2.086c1.28 1.734 2.159 3.709 3.186 5.594.263.536.616 1.036.774 1.618.125-.79-.44-1.549-.418-2.345.166-.708.371-1.408.55-2.112 3.252-.336 6.521-.209 9.784-.234.871-.013 1.733.127 2.594.233a24.01 24.01 0 0 1 0 4.486c-2.69.353-5.408.151-8.113.204-1.441.047-2.874-.151-4.313-.205.674 1.187 1.16 2.466 1.728 3.704-.571.503-1.11 1.043-1.692 1.534-.739.242-1.519.365-2.276.552-1.854-2.812-3.319-5.846-4.908-8.808-.338-.69-.571-1.424-.86-2.135zm1.31 1.959c.272.222.546.442.818.662.842-.598 1.771-1.063 2.73-1.442l-.052-1.086a8.473 8.473 0 0 0-3.497 1.866zm10.224-1.263c.845.565 1.858.54 2.83.5l-.001-.534c-.942.016-1.888-.04-2.828.034zm3.217-.033l-.001.534c.653.001 1.306.005 1.96-.004.182-.178.368-.353.553-.53-.838-.002-1.674-.001-2.512 0zm-9.305.065c-.084.252-.168.504-.254.755.3.581.606 1.157.91 1.735l.516-.281c-.386-.738-.776-1.476-1.171-2.209zm5.694.18a9.69 9.69 0 0 0-.006 3.988c.416-.163.835-.318 1.25-.484-.17-1.016-.188-2.058-.001-3.072-.412-.15-.824-.3-1.243-.432zm5.984.426c.13 1.025.128 2.063.001 3.089.332.146.664.298.992.454a8.65 8.65 0 0 0-.022-3.962c-.328.132-.65.274-.972.42zM3.203 11.434c.385.74.78 1.477 1.166 2.216l.468-.253c-.3-.575-.6-1.15-.911-1.718l-.724-.245zM8 12.163c.408.9.884 1.789 1.793 2.273-.336-.886-.854-1.69-1.278-2.534-.172.086-.343.174-.515.262zm5.253 1.571c.941.072 1.885.018 2.828.034l-.001-.582c-.976-.044-2.004-.067-2.827.548zm3.216-.548l-.001.582h2.503c-.516-.925-1.643-.491-2.502-.582zm-11.914.8c.438.844.856 1.7 1.348 2.514.108-1.02-.397-1.903-.882-2.752-.156.078-.311.157-.466.238zm1.506 1.45c.066.433.133.865.205 1.298a9.801 9.801 0 0 0 3.526-1.86c-.332-.296-.668-.59-1.008-.878a9.13 9.13 0 0 1-2.723 1.44z"/>
    <path fill="#1f1917" d="M12.518 14.893l.199-.296c1.3.774 2.61 1.53 3.901 2.32-.136.209-.27.418-.406.625-1.231-.883-2.466-1.762-3.695-2.648zM11.969 15.42l.271-.222c1.057 1.08 2.116 2.156 3.167 3.241l-.558.506c-.954-1.181-1.933-2.34-2.88-3.526zM11.354 15.81l.308-.19c.754 1.316 1.49 2.644 2.234 3.965l-.667.337c-.629-1.369-1.236-2.748-1.876-4.112z"/>
    <path fill="#fff" d="M.48.48h23.032v23.04H.48V.48zm7.318 3.65c.199 1.501.398 3.001.602 4.501.088-.005.264-.016.353-.02-.061-1.514-.137-3.028-.208-4.541-.25.02-.498.041-.748.06zm1.956-.028c-.192 1.507-.401 3.012-.577 4.522l.354.02c.318-1.474.643-2.945.962-4.417l-.739-.125zm-3.774.553c.577 1.398 1.163 2.795 1.739 4.194l.335-.116c-.443-1.451-.913-2.893-1.373-4.339-.235.084-.468.172-.701.262zM1.718 8.618c.289.71.522 1.445.86 2.135 1.589 2.962 3.054 5.996 4.908 8.808.757-.187 1.537-.31 2.276-.552.582-.491 1.121-1.031 1.692-1.534-.568-1.238-1.054-2.518-1.728-3.704 1.439.054 2.872.252 4.313.205 2.705-.053 5.423.149 8.113-.204a24.01 24.01 0 0 0 0-4.486c-.862-.106-1.723-.246-2.594-.233-3.263.025-6.532-.102-9.784.234-.179.704-.384 1.404-.55 2.112-.023.796.542 1.555.418 2.345-.158-.582-.511-1.081-.774-1.618-1.027-1.885-1.906-3.86-3.186-5.594a22.284 22.284 0 0 0-3.965 2.086zm10.8 6.275c1.229.887 2.464 1.765 3.695 2.648l.406-.625c-1.291-.79-2.602-1.546-3.901-2.32l-.199.296zm-.549.527c.947 1.186 1.926 2.345 2.88 3.526l.558-.506c-1.051-1.085-2.11-2.161-3.167-3.241l-.271.222zm-.615.39c.64 1.364 1.247 2.743 1.876 4.112.222-.113.444-.226.667-.337-.744-1.321-1.481-2.648-2.234-3.965l-.308.19z"/>
    <path fill="#fff" d="M3.028 10.577a8.467 8.467 0 0 1 3.497-1.866l.052 1.086c-.959.379-1.888.845-2.73 1.442-.272-.221-.546-.44-.818-.662zM13.252 9.314c.941-.073 1.886-.018 2.828-.034l.001.534c-.972.04-1.985.065-2.83-.5zM16.469 9.281c.838-.001 1.674-.002 2.512 0-.185.178-.371.353-.553.53-.654.008-1.307.005-1.96.004l.001-.534zM7.164 9.346c.395.733.785 1.471 1.171 2.209l-.516.281c-.304-.578-.61-1.154-.91-1.735.086-.251.17-.503.254-.755zM12.858 9.526c.419.132.832.282 1.243.432-.187 1.014-.169 2.056.001 3.072-.415.166-.834.32-1.25.484a9.69 9.69 0 0 1 .006-3.988zM18.842 9.952c.322-.146.644-.288.972-.42a8.65 8.65 0 0 1 .022 3.962c-.329-.156-.66-.307-.992-.454a12.472 12.472 0 0 0-.001-3.089zM3.203 11.434l.724.245c.311.569.611 1.144.911 1.718l-.468.253c-.386-.739-.781-1.476-1.166-2.216zM8 12.163l.515-.262c.424.845.942 1.649 1.278 2.534-.908-.484-1.385-1.373-1.793-2.273zM13.253 13.734c.823-.616 1.852-.593 2.827-.548l.001.582c-.943-.016-1.888.038-2.828-.034zM16.469 13.186c.859.091 1.986-.343 2.502.582h-2.503l.001-.582zM4.555 13.986c.155-.08.31-.16.466-.238.485.848.99 1.732.882 2.752-.492-.814-.91-1.67-1.348-2.514zM6.061 15.436a9.13 9.13 0 0 0 2.723-1.44c.34.288.676.582 1.008.878a9.793 9.793 0 0 1-3.526 1.86 97.125 97.125 0 0 1-.205-1.298z"/>
</svg>
