<svg xmlns="http://www.w3.org/2000/svg" width="24" height="24">
    <path fill="#f0c900" d="M4.871 0h14.237c.433.092.769.418.892.84v22.308a1.199 1.199 0 0 1-.832.852H4.846A1.204 1.204 0 0 1 4 23.131V.892c.094-.441.439-.779.871-.892zM4.73.325c-.339.142-.506.519-.476.872.004 7.236-.002 14.472.003 21.707-.036.466.384.879.847.847 4.597.004 9.195.003 13.793 0 .464.033.888-.379.851-.847.003-7.269.004-14.539 0-21.809.033-.461-.383-.871-.843-.839C14.37.248 9.834.258 5.299.251c-.19.006-.39-.004-.569.074z"/>
    <path fill="#f0c900" d="M4.838.719c.135-.085.306-.055.458-.068 4.536.008 9.073-.005 13.608.006.298-.033.492.267.446.538-.003 7.237.005 14.474-.004 21.71.03.252-.2.47-.448.446-4.598.004-9.198.005-13.797-.001a.407.407 0 0 1-.442-.444c-.008-7.237 0-14.475-.004-21.712-.005-.175.02-.372.183-.475zm1.031 2.35c-.003 1.331-.005 2.663.001 3.994 2.757-.009 5.515.002 8.272-.005.002-1.33.004-2.66-.001-3.99-2.757-.002-5.515-.003-8.272.001zm8.846 1c-.005 1.092.003 2.184-.003 3.276-1.718.002-3.436.005-5.154-.002.263.277.426.625.474 1.005 1.696-.003 3.392.001 5.089-.002.03-.781.791-1.45 1.576-1.253.634.11.974.724 1.072 1.308.168-.081.411-.159.365-.397-.026-.773.133-1.593-.215-2.318-.209-.465-.306-.988-.585-1.418-.86-.15-1.747-.125-2.619-.199zM5.87 7.349c-.001.229-.004.458-.014.686.487.224 1.015.372 1.555.31a1.78 1.78 0 0 1 .473-1.005c-.671.015-1.343 0-2.014.009zm2.847 0c-.766-.036-1.282.939-.822 1.552.377.62 1.401.56 1.709-.095.362-.626-.166-1.491-.887-1.457zm7.701 0c-.764-.033-1.275.94-.818 1.551.376.619 1.399.563 1.708-.091.365-.628-.166-1.498-.89-1.46zm-4.391 6.295c-.392.367-.765.754-1.143 1.135.855.004 1.711-.004 2.567.004-1.646 1.667-3.311 3.316-4.96 4.98.292.297.586.592.884.882 1.673-1.658 3.333-3.329 5.005-4.988.006.871-.003 1.743.005 2.614.367-.369.756-.719 1.099-1.11.07-1.165.013-2.343.027-3.513-1.161-.005-2.323.003-3.484-.004z"/>
    <path fill="#f0c900" d="M15.714 4.567c.508.03 1.016.057 1.523.099.166.514.497 1.006.501 1.555-.676-.063-1.35-.152-2.024-.23-.003-.475-.003-.95 0-1.424z"/>
    <path d="M4.73.325c.179-.078.379-.068.569-.074C9.834.258 14.37.248 18.905.256c.46-.032.876.378.843.839.004 7.27.003 14.54 0 21.809.037.468-.387.88-.851.847-4.598.003-9.196.004-13.793 0-.463.032-.883-.381-.847-.847-.005-7.235.001-14.471-.003-21.707-.03-.353.137-.73.476-.872zm.108.394c-.163.103-.188.3-.183.475.004 7.237-.004 14.475.004 21.712a.407.407 0 0 0 .442.444c4.599.006 9.199.005 13.797.001.248.024.478-.194.448-.446.009-7.236.001-14.473.004-21.71.046-.271-.148-.571-.446-.538C14.369.646 9.832.659 5.296.651c-.152.013-.323-.017-.458.068z"/>
    <path d="M5.869 3.069c2.757-.004 5.515-.003 8.272-.001.005 1.33.003 2.66.001 3.99-2.757.007-5.515-.004-8.272.005a590.818 590.818 0 0 1-.001-3.994z"/>
    <path d="M14.715 4.069c.872.074 1.759.049 2.619.199.279.43.376.953.585 1.418.348.725.189 1.545.215 2.318.046.238-.197.316-.365.397-.098-.584-.438-1.198-1.072-1.308-.785-.197-1.546.472-1.576 1.253-1.697.003-3.393-.001-5.089.002a1.771 1.771 0 0 0-.474-1.005c1.718.007 3.436.004 5.154.002.006-1.092-.002-2.184.003-3.276zm.999.498c-.003.474-.003.949 0 1.424.674.078 1.348.167 2.024.23-.004-.549-.335-1.041-.501-1.555-.507-.042-1.015-.069-1.523-.099zM5.87 7.349c.671-.009 1.343.006 2.014-.009a1.78 1.78 0 0 0-.473 1.005c-.54.062-1.068-.086-1.555-.31.01-.228.013-.457.014-.686zM8.717 7.349c.721-.034 1.249.831.887 1.457-.308.655-1.332.715-1.709.095-.46-.613.056-1.588.822-1.552z"/>
    <path d="M16.418 7.349c.724-.038 1.255.832.89 1.46-.309.654-1.332.71-1.708.091-.457-.611.054-1.584.818-1.551zM12.027 13.644c1.161.007 2.323-.001 3.484.004-.014 1.17.043 2.348-.027 3.513-.343.391-.732.741-1.099 1.11-.008-.871.001-1.743-.005-2.614-1.672 1.659-3.332 3.33-5.005 4.988-.298-.29-.592-.585-.884-.882 1.649-1.664 3.314-3.313 4.96-4.98-.856-.008-1.712 0-2.567-.004.378-.381.751-.768 1.143-1.135z"/>
</svg>
