<!-- Generated by IcoMoon.io -->
<svg version="1.1" xmlns="http://www.w3.org/2000/svg" width="48" height="24" viewBox="0 0 48 24">
<title>complementary--camera--g1</title>
<path fill="#000" d="M2.911 0h42.142c1.435 0.372 2.544 1.493 2.947 2.911v18.139c-0.384 1.423-1.49 2.539-2.902 2.95h-42.158c-1.426-0.379-2.53-1.5-2.94-2.909v-18.151c0.377-1.428 1.49-2.544 2.911-2.94M2.981 0.878c-1.337 0.259-2.278 1.601-2.179 2.94 0.005 5.534-0.014 11.066 0.007 16.598-0.026 1.478 1.289 2.81 2.774 2.774 13.531 0.022 27.065 0.002 40.598 0.010 1.562 0.132 3.038-1.207 3.007-2.784 0.019-5.611 0.019-11.225 0-16.836 0.048-1.697-1.62-2.99-3.254-2.798-13.649 0.067-27.314-0.125-40.954 0.096z"></path>
<path fill="#000" d="M33.763 2.040c0.614 0.754 1.020 1.639 1.471 2.494 0.696-0.278 1.387-0.571 2.11-0.787-0.235 0.583-0.504 1.15-0.775 1.716 0.67 0.166 1.339 0.336 1.999 0.547-0.506 0.286-1.027 0.542-1.548 0.799 0.228 0.571 0.446 1.147 0.631 1.735-0.737-0.305-1.43-0.696-2.107-1.111-0.343 0.583-0.689 1.164-1.032 1.747 0.593 0.401 1.198 0.787 1.788 1.195-0.010 3.185 0.022 6.374-0.012 9.559 0.036 0.919-0.792 1.706-1.704 1.656-7.615 0.019-15.233 0.010-22.848 0.005-0.682 0.091-1.315-0.482-1.229-1.181-0.014-3.29-0.012-6.581-0.002-9.871-0.062-0.854 0.6-1.716 1.483-1.738 4.301-0.091 8.609 0.094 12.905-0.034 1.267-0.754 2.64-1.37 4.14-1.421-0.005-0.449-0.010-0.9-0.010-1.351 0.816 0 1.63 0 2.446 0 0.062 0.487-0.067 1.049 0.274 1.459 0.557-0.367 1.003-0.869 1.464-1.342-0.706-0.322-1.421-0.631-2.074-1.049 0.83-0.223 1.697-0.163 2.549-0.156 0.005-0.958-0.041-1.92 0.082-2.873M34.066 3.154c-0.007 0.71-0.007 1.423-0.029 2.134-0.564 0.007-1.128 0.010-1.692 0.012 0.492 0.23 0.984 0.458 1.471 0.698-0.398 0.432-0.806 0.854-1.212 1.279 0.629-0.101 1.26-0.204 1.891-0.293 0.024 0.463 0.036 0.926 0.053 1.392 0.286-0.475 0.574-0.95 0.869-1.421 0.538 0.295 1.070 0.598 1.606 0.898-0.158-0.41-0.322-0.818-0.48-1.226 0.348-0.18 0.698-0.353 1.051-0.526-0.518-0.125-1.032-0.257-1.546-0.401 0.199-0.454 0.41-0.902 0.622-1.349-0.533 0.216-1.066 0.434-1.598 0.65-0.341-0.614-0.667-1.234-1.006-1.848M32.304 7.706c0.619 0.415 1.236 0.83 1.858 1.241 0.002-0.516-0.002-1.030-0.007-1.546-0.617 0.098-1.234 0.202-1.85 0.305M28.898 7.778c-2.563 0.062-4.973 1.81-5.856 4.214-1.423 3.439 0.744 7.726 4.344 8.642 3.79 1.222 8.107-1.793 8.321-5.753 0.446-3.792-3.002-7.392-6.809-7.104M13.277 10.416c-0.713 0.089-1.603 0.991-0.787 1.579 1.145 0.768 3.293 0.847 4.003-0.511-0.266-1.339-2.155-1.325-3.216-1.068z"></path>
<path fill="#000" d="M27.686 8.513c3.223-0.919 6.85 1.394 7.38 4.697 0.734 3.331-1.922 6.85-5.316 7.085-3.19 0.391-6.331-2.21-6.545-5.414-0.331-2.849 1.697-5.71 4.481-6.367M27.917 9.691c-2.318 0.581-3.929 3.077-3.473 5.429 0.35 2.458 2.856 4.322 5.309 3.967 2.657-0.262 4.711-3.022 4.135-5.647-0.425-2.669-3.374-4.536-5.971-3.749z"></path>
<path fill="#000" d="M28.152 10.406c2.662-0.811 5.53 1.74 5.030 4.476-0.24 2.083-2.299 3.715-4.382 3.478-1.908-0.151-3.547-1.8-3.66-3.713-0.197-1.901 1.159-3.797 3.012-4.241M28.152 11.59c-1.855 0.607-2.522 3.218-1.186 4.644 1.375 1.742 4.466 1.070 5.004-1.078 0.761-2.186-1.678-4.486-3.818-3.566z"></path>
<path fill="#000" d="M12.581 11.484c0.936-0.826 2.568-0.864 3.48 0.017-1.090 0.554-2.398 0.55-3.48-0.017z"></path>
<path fill="#000" d="M28.387 12.298c1.368-0.583 3.031 0.576 2.957 2.057 0.046 1.55-1.829 2.676-3.17 1.891-1.634-0.744-1.483-3.379 0.214-3.948z"></path>
<path fill="#fff" d="M2.981 0.878c13.639-0.221 27.305-0.029 40.954-0.096 1.634-0.192 3.302 1.102 3.254 2.798 0.019 5.611 0.019 11.225 0 16.836 0.031 1.577-1.445 2.916-3.007 2.784-13.534-0.007-27.067 0.012-40.598-0.010-1.486 0.036-2.801-1.296-2.774-2.774-0.022-5.532-0.002-11.064-0.007-16.598-0.098-1.339 0.842-2.681 2.179-2.94M33.763 2.040c-0.122 0.953-0.077 1.915-0.082 2.873-0.852-0.007-1.718-0.067-2.549 0.156 0.653 0.418 1.368 0.727 2.074 1.049-0.461 0.473-0.907 0.974-1.464 1.342-0.341-0.41-0.211-0.972-0.274-1.459-0.816 0-1.63 0-2.446 0 0 0.451 0.005 0.902 0.010 1.351-1.5 0.050-2.873 0.667-4.14 1.421-4.296 0.127-8.604-0.058-12.905 0.034-0.883 0.022-1.546 0.883-1.483 1.738-0.010 3.29-0.012 6.581 0.002 9.871-0.086 0.698 0.547 1.272 1.229 1.181 7.615 0.005 15.233 0.014 22.848-0.005 0.912 0.050 1.74-0.737 1.704-1.656 0.034-3.185 0.002-6.374 0.012-9.559-0.59-0.408-1.195-0.794-1.788-1.195 0.343-0.583 0.689-1.164 1.032-1.747 0.677 0.415 1.37 0.806 2.107 1.111-0.185-0.588-0.403-1.164-0.631-1.735 0.521-0.257 1.042-0.514 1.548-0.799-0.66-0.211-1.33-0.382-1.999-0.547 0.271-0.566 0.54-1.133 0.775-1.716-0.722 0.216-1.414 0.509-2.11 0.787-0.451-0.854-0.857-1.74-1.471-2.494z"></path>
<path fill="#fff" d="M34.066 3.154c0.338 0.614 0.665 1.234 1.006 1.848 0.533-0.216 1.066-0.434 1.598-0.65-0.211 0.446-0.422 0.895-0.622 1.349 0.514 0.144 1.027 0.276 1.546 0.401-0.353 0.173-0.703 0.346-1.051 0.526 0.158 0.408 0.322 0.816 0.48 1.226-0.535-0.3-1.068-0.602-1.606-0.898-0.295 0.47-0.583 0.946-0.869 1.421-0.017-0.466-0.029-0.929-0.053-1.392-0.631 0.089-1.262 0.192-1.891 0.293 0.406-0.425 0.814-0.847 1.212-1.279-0.487-0.24-0.979-0.468-1.471-0.698 0.564-0.002 1.128-0.005 1.692-0.012 0.022-0.71 0.022-1.423 0.029-2.134z"></path>
<path fill="#fff" d="M32.304 7.706c0.617-0.103 1.234-0.206 1.85-0.305 0.005 0.516 0.010 1.030 0.007 1.546-0.622-0.41-1.238-0.826-1.858-1.241z"></path>
<path fill="#fff" d="M28.898 7.778c3.806-0.288 7.255 3.312 6.809 7.104-0.214 3.96-4.531 6.974-8.321 5.753-3.6-0.917-5.767-5.203-4.344-8.642 0.883-2.405 3.293-4.152 5.856-4.214M27.686 8.513c-2.784 0.658-4.812 3.518-4.481 6.367 0.214 3.204 3.355 5.806 6.545 5.414 3.394-0.235 6.050-3.754 5.316-7.085-0.53-3.302-4.157-5.616-7.38-4.697z"></path>
<path fill="#fff" d="M27.917 9.691c2.597-0.787 5.546 1.080 5.971 3.749 0.576 2.626-1.478 5.386-4.135 5.647-2.453 0.355-4.958-1.51-5.309-3.967-0.456-2.352 1.154-4.848 3.473-5.429M28.152 10.406c-1.853 0.444-3.209 2.34-3.012 4.241 0.113 1.913 1.752 3.562 3.66 3.713 2.083 0.238 4.142-1.394 4.382-3.478 0.499-2.736-2.369-5.287-5.030-4.476z"></path>
<path fill="#fff" d="M13.277 10.416c1.061-0.257 2.95-0.271 3.216 1.068-0.71 1.358-2.858 1.279-4.003 0.511-0.816-0.588 0.074-1.49 0.787-1.579M12.581 11.484c1.082 0.566 2.39 0.571 3.48 0.017-0.912-0.881-2.544-0.842-3.48-0.017z"></path>
<path fill="#fff" d="M28.152 11.59c2.141-0.919 4.579 1.38 3.818 3.566-0.538 2.148-3.629 2.82-5.004 1.078-1.337-1.426-0.67-4.037 1.186-4.644M28.387 12.298c-1.697 0.569-1.848 3.204-0.214 3.948 1.342 0.785 3.216-0.341 3.17-1.891 0.074-1.481-1.589-2.64-2.957-2.057z"></path>
</svg>
