<!-- Generated by IcoMoon.io -->
<svg version="1.1" xmlns="http://www.w3.org/2000/svg" width="36" height="24" viewBox="0 0 36 24">
<title>complementary--two-way-traffic--g2</title>
<path fill="#fff" d="M0 0h35.707v0.427c-9.723-0.615-19.516-0.088-29.268-0.263-1.984 0.129-4.185-0.468-5.982 0.644l-0.457 0.457v-1.264z"></path>
<path fill="#fff" d="M1.428 1.305c11.221-0.199 22.46-0.17 33.688-0.012 0.304 7.323 0.199 14.681 0.053 22.010-11.321 0.1-22.683 0.357-33.98-0.129-0.053-6.919 0.029-13.838-0.041-20.751 0.070-0.281 0.211-0.837 0.281-1.118M9.6 7.030c1.58 1.657 3.208 3.26 4.888 4.812 0.989-0.023 1.979-0.041 2.968-0.053-1.27-1.177-2.505-2.388-3.641-3.694 3.688-0.047 7.376 0.018 11.063-0.035-0.006-0.691-0.006-1.376 0-2.066-3.717-0.059-7.428 0.018-11.145-0.041 1.259-1.218 2.511-2.447 3.711-3.723-0.966 0-1.926-0.012-2.886-0.023-1.709 1.551-3.29 3.231-4.958 4.823M18.732 12.954c1.229 1.218 2.459 2.423 3.682 3.641-3.711 0.035-7.428 0.023-11.145 0.006 0 0.679-0.006 1.364-0.012 2.043 3.7 0.018 7.405-0.018 11.11 0.018-1.165 1.282-2.377 2.523-3.594 3.758 0.978-0.006 1.955-0.012 2.933-0.006 1.662-1.551 3.255-3.173 4.859-4.782-1.551-1.51-3.097-3.020-4.578-4.595-1.083-0.041-2.166-0.064-3.255-0.082z"></path>
<path fill="#000" d="M0.457 0.808c1.797-1.112 3.998-0.515 5.982-0.644 9.752 0.176 19.545-0.351 29.268 0.263v23.573h-35.245c0.181-0.205 0.544-0.62 0.726-0.825 11.298 0.486 22.66 0.228 33.98 0.129 0.146-7.329 0.252-14.687-0.053-22.010-11.227-0.158-22.466-0.187-33.688 0.012-0.070 0.281-0.211 0.837-0.281 1.118-0.17-0.404-0.515-1.212-0.691-1.616z"></path>
<path fill="#000" d="M9.6 7.030c1.668-1.592 3.249-3.272 4.958-4.823 0.96 0.012 1.92 0.023 2.886 0.023-1.2 1.276-2.453 2.505-3.711 3.723 3.717 0.059 7.428-0.018 11.145 0.041-0.006 0.691-0.006 1.376 0 2.066-3.688 0.053-7.376-0.012-11.063 0.035 1.136 1.305 2.371 2.517 3.641 3.694-0.989 0.012-1.979 0.029-2.968 0.053-1.68-1.551-3.307-3.155-4.888-4.812z"></path>
<path fill="#000" d="M18.732 12.954c1.089 0.018 2.172 0.041 3.255 0.082 1.481 1.575 3.026 3.085 4.578 4.595-1.604 1.61-3.196 3.231-4.859 4.782-0.978-0.006-1.955 0-2.933 0.006 1.218-1.235 2.429-2.476 3.594-3.758-3.705-0.035-7.411 0-11.11-0.018 0.006-0.679 0.012-1.364 0.012-2.043 3.717 0.018 7.434 0.029 11.145-0.006-1.223-1.218-2.453-2.423-3.682-3.641z"></path>
<path fill="#414347" d="M0 1.264l0.457-0.457c0.176 0.404 0.521 1.212 0.691 1.616 0.070 6.913-0.012 13.832 0.041 20.751-0.181 0.205-0.544 0.62-0.726 0.825h-0.462v-22.736z"></path>
</svg>
