<svg xmlns="http://www.w3.org/2000/svg" width="24" height="24">
    <path fill="#231f20" d="M1.375 5.872h21.444a1.82 1.82 0 0 1 1.372 1.113v10.117a1.937 1.937 0 0 1-1.033 1.025H1.026c-.501-.19-.844-.632-1.026-1.122V7.068c.212-.611.718-1.105 1.375-1.196zm.097.268C.849 6.224.257 6.733.241 7.391c-.002 3.099-.002 6.199 0 9.298.02.731.746 1.271 1.438 1.281 6.97-.007 13.941.002 20.912-.004.824-.02 1.455-.799 1.439-1.597-.003-2.913.003-5.825-.003-8.737-.009-.779-.656-1.474-1.435-1.519-6.945-.003-13.889.001-20.833-.002a1.724 1.724 0 0 0-.287.029z"/>
    <path fill="#231f20" d="M1.312 6.38c.279-.055.567-.021.851-.027l20.59-.001c.581.04 1.095.614 1.04 1.202-.007 3.045-.002 6.091-.003 9.136-.034.524-.513 1.003-1.037 1.038H1.437c-.603-.033-1.048-.613-1.034-1.199-.008-2.966 0-5.932-.004-8.897-.015-.555.329-1.158.913-1.251zm.239.479c-.326.051-.606.356-.592.691.003 2.993.003 5.987 0 8.979-.017.421.4.735.799.716 6.916-.003 13.833.008 20.748-.006.498.006.801-.407.794-.878.02-2.883.004-5.767.008-8.651.023-.51-.457-.931-.957-.879-6.932.021-13.87-.034-20.8.027z"/>
    <path fill="#231f20" d="M8.203 12.041c2.595-.002 5.19-.002 7.784 0l.192.192c.004 1.373-.004 2.746.004 4.119a1.327 1.327 0 0 1-.482.096c-2.5-.007-4.999.001-7.499-.003a17.378 17.378 0 0 0-.192-.192c-.002-1.34-.002-2.679 0-4.019l.192-.192zm3.521.747c-.61.148-1.048.735-1.15 1.337-.044.867.711 1.672 1.583 1.665.401-.066.805-.212 1.082-.524.61-.657.472-1.843-.325-2.286-.338-.265-.786-.26-1.19-.192z"/>
    <path fill="#ffd24e" d="M1.472 6.14c.094-.018.19-.027.287-.029 6.944.003 13.888-.001 20.833.002.779.045 1.427.739 1.435 1.519.007 2.912 0 5.824.003 8.737.016.799-.616 1.577-1.439 1.597-6.97.006-13.941-.003-20.912.004-.693-.01-1.419-.55-1.438-1.281-.002-3.099-.002-6.199 0-9.298.016-.657.608-1.166 1.231-1.251zm-.16.24c-.583.094-.927.696-.913 1.251.004 2.966-.004 5.932.004 8.897-.014.586.431 1.166 1.034 1.199h21.316c.524-.035 1.003-.513 1.037-1.038.001-3.045-.005-6.091.003-9.136.055-.587-.459-1.162-1.04-1.202l-20.59.001c-.283.006-.571-.027-.851.027z"/>
    <path fill="#ffd24e" d="M1.551 6.859c6.929-.061 13.867-.007 20.8-.027.5-.051.98.369.957.879-.004 2.884.012 5.768-.008 8.651.007.47-.296.883-.794.878-6.915.014-13.832.003-20.748.006-.4.019-.816-.295-.799-.716.003-2.992.003-5.986 0-8.979-.014-.335.266-.641.592-.691zm10.385.776c-.002.775-.002 1.548 0 2.323h.319c.002-.775.002-1.548 0-2.323h-.319zm-2.845.771l-.135.318c.643.421 1.202.955 1.831 1.395l.223-.25c-.644-.482-1.239-1.035-1.919-1.462zm4.556 1.105c-.202.147-.486.363-.268.627.639-.435 1.224-.944 1.843-1.407a11.912 11.912 0 0 1-.003-.189l-.154-.131c-.485.351-.928.755-1.419 1.099zm-2.799.767l-.195.195v1.212l.195.196c.894-.056 1.82.117 2.692-.095-.073-.486.138-1.077-.11-1.496-.859-.029-1.721-.003-2.582-.011zm-2.756.067l-.003.313c.739.159 1.478.325 2.209.517l.135-.307c-.778-.186-1.551-.41-2.342-.522zm5.761.51l.008.322c.748-.169 1.489-.363 2.24-.52l-.003-.313c-.758.109-1.503.324-2.245.51zm-5.65 1.186l-.192.192c-.002 1.34-.002 2.679 0 4.019l.192.192c2.5.004 4.999-.003 7.499.003.166.007.326-.043.482-.096-.008-1.373 0-2.746-.004-4.119a17.378 17.378 0 0 1-.192-.192c-2.595-.002-5.19-.002-7.784 0z"/>
    <path fill="#ffd24e" d="M11.724 12.788c.404-.068.852-.073 1.19.192.797.443.935 1.629.325 2.286-.277.311-.681.458-1.082.524-.872.007-1.627-.799-1.583-1.665.102-.602.54-1.189 1.15-1.337z"/>
    <path fill="#060606" d="M11.936 7.635h.319c.002.775.002 1.548 0 2.323h-.319c-.002-.775-.002-1.548 0-2.323zM9.091 8.406c.68.428 1.275.981 1.919 1.462l-.223.25c-.63-.44-1.188-.973-1.831-1.395l.135-.318zM13.647 9.511c.49-.345.934-.748 1.419-1.099l.154.131.003.189c-.619.463-1.204.972-1.843 1.407-.218-.265.066-.481.268-.627zM10.848 10.278c.86.009 1.722-.017 2.582.011.248.418.038 1.009.11 1.496-.872.212-1.798.039-2.692.095l-.195-.196v-1.212l.195-.195zM8.092 10.345c.79.112 1.565.335 2.342.522l-.135.307a50.534 50.534 0 0 0-2.209-.517l.003-.313zM13.853 10.855c.742-.186 1.486-.401 2.245-.51l.003.313c-.751.157-1.492.351-2.24.52l-.008-.322z"/>
</svg>
