<svg xmlns="http://www.w3.org/2000/svg" width="24" height="24">
    <path fill="#edae15" d="M3.265.829c-.054-.396.28-.758.683-.708C9.112.117 14.275.122 19.439.119c.482-.008.971-.026 1.441.101v23.513a1.803 1.803 0 0 1-.708.15c-5.407-.01-10.817.007-16.225-.008-.392.029-.743-.302-.682-.703V.83zm8.896.016C9.405 4.657 6.633 8.458 3.879 12.27c2.717 3.653 5.423 7.313 8.156 10.952 2.731-.006 5.464.004 8.195-.005-2.63-3.659-5.297-7.292-7.933-10.946 2.735-3.816 5.497-7.614 8.233-11.43-2.79.001-5.579-.007-8.369.004z"/>
    <path fill="#231f20" d="M12.161.845C14.951.834 17.74.843 20.53.841c-2.736 3.816-5.498 7.614-8.233 11.43 2.636 3.654 5.303 7.288 7.933 10.946-2.731.008-5.464-.001-8.195.005-2.734-3.64-5.44-7.3-8.156-10.952C6.633 8.458 9.405 4.657 12.161.845z"/>
</svg>
