<!-- Generated by IcoMoon.io -->
<svg version="1.1" xmlns="http://www.w3.org/2000/svg" width="24" height="24" viewBox="0 0 24 24">
<title>complementary--priority-route-at-intersection--g1</title>
<path fill="#373737" opacity="0.89" d="M0.758 0h22.735l0.128 0.125c-7.668-0.005-15.336-0.010-23.002 0.002l0.139-0.127z"></path>
<path fill="#fff" d="M0.095 0.882c0.119-0.287 0.301-0.539 0.524-0.755 7.667-0.012 15.335-0.007 23.002-0.002 0.175 0.195 0.35 0.392 0.497 0.61 0.021 7.458-0.022 14.918 0.022 22.375-0.116 0.321-0.353 0.566-0.623 0.762-7.598-0.004-15.194-0.001-22.792-0.001-0.244-0.189-0.453-0.413-0.613-0.678 0.005-7.436 0.039-14.875-0.017-22.31M0.878 0.499c-0.48 0.232-0.617 0.822-0.61 1.31 0.004 6.834-0.005 13.669 0.005 20.503-0.007 0.539 0.299 1.251 0.933 1.225 7.276 0.002 14.554 0.002 21.832 0 0.636 0.033 0.939-0.687 0.936-1.225 0.012-6.834 0.002-13.669 0.005-20.503 0.029-0.579-0.246-1.387-0.943-1.37-7.194-0.010-14.388 0.002-21.582-0.006-0.193 0.006-0.394-0.007-0.576 0.065z"></path>
<path fill="#fff" d="M1.022 1.029c0.158-0.11 0.371-0.048 0.552-0.070 7.115 0.008 14.232-0.001 21.348 0.004 0.467-0.063 0.533 0.52 0.53 0.856 0 6.788 0.001 13.577 0 20.365 0.004 0.333-0.075 0.907-0.536 0.832-7.196-0.001-14.393-0.001-21.589 0-0.458 0.072-0.536-0.499-0.53-0.832-0.001-6.789 0-13.577-0.001-20.365 0.008-0.273 0.022-0.583 0.227-0.789M11.479 2.092c0 2.088 0 4.178 0 6.267 0.861 0.001 1.722 0 2.583 0 0.001-2.088 0.001-4.178 0-6.267-0.862 0.001-1.722 0-2.583 0M2.326 9.576c0.001 1.347 0 2.693 0 4.040 1.612 0.006 3.223-0.011 4.834 0.008 0.976 0.017 2.018 0.261 2.719 0.983 0.672 0.682 0.899 1.673 0.904 2.604 0.007 1.538-0.001 3.076 0.004 4.616 1.348 0 2.695 0 4.042-0.001-0.147-2.704 0.465-5.596-0.779-8.122-1.144-2.438-3.747-4.002-6.407-4.107-1.772-0.045-3.544-0.010-5.316-0.021M16.121 10.949c-0.002 0.842-0.002 1.686 0 2.53 2.155-0.001 4.312 0 6.467-0.001 0.002-0.842 0-1.685 0.002-2.527-2.156-0.001-4.313 0.001-6.469-0.001z"></path>
<path fill="#000" d="M0.878 0.499c0.182-0.073 0.383-0.059 0.576-0.065 7.194 0.008 14.388-0.004 21.582 0.006 0.697-0.017 0.972 0.79 0.943 1.37-0.002 6.834 0.007 13.669-0.005 20.503 0.004 0.538-0.299 1.258-0.936 1.225-7.278 0.002-14.555 0.002-21.832 0-0.634 0.025-0.941-0.686-0.933-1.225-0.010-6.834-0.001-13.669-0.005-20.503-0.007-0.488 0.13-1.079 0.61-1.31M1.022 1.029c-0.205 0.206-0.218 0.516-0.227 0.789 0.001 6.788 0 13.576 0.001 20.365-0.006 0.332 0.072 0.903 0.53 0.832 7.196-0.001 14.393-0.001 21.589 0 0.461 0.075 0.539-0.498 0.536-0.832 0.001-6.788 0-13.577 0-20.365 0.004-0.336-0.063-0.919-0.53-0.856-7.116-0.005-14.233 0.005-21.348-0.004-0.181 0.022-0.394-0.040-0.552 0.070z"></path>
<path fill="#000" d="M11.479 2.092c0.861 0 1.721 0.001 2.583 0 0.001 2.088 0.001 4.178 0 6.267-0.861 0-1.722 0.001-2.583 0 0-2.088 0-4.178 0-6.267z"></path>
<path fill="#000" d="M2.326 9.576c1.772 0.011 3.544-0.024 5.316 0.021 2.661 0.104 5.263 1.669 6.407 4.107 1.245 2.526 0.633 5.418 0.779 8.122-1.348 0.001-2.695 0.001-4.042 0.001-0.005-1.539 0.004-3.078-0.004-4.616-0.005-0.931-0.233-1.921-0.904-2.604-0.701-0.722-1.743-0.966-2.719-0.983-1.611-0.019-3.222-0.002-4.834-0.008 0-1.347 0.001-2.693 0-4.040z"></path>
<path fill="#000" d="M16.121 10.949c2.156 0.002 4.313 0 6.469 0.001-0.002 0.842 0 1.685-0.002 2.527-2.155 0.001-4.312 0-6.467 0.001-0.002-0.844-0.002-1.687 0-2.53z"></path>
<path fill="#2c2c2c" opacity="0.89" d="M0 0.699l0.095 0.183c0.056 7.435 0.022 14.874 0.017 22.31l-0.112-0.173v-22.32z"></path>
<path fill="#343434" opacity="0.89" d="M24.118 0.735l0.125 0.16v22.387l-0.103-0.172c-0.044-7.457-0.001-14.916-0.022-22.375z"></path>
<path fill="#161616" opacity="0.76" d="M0.725 23.87c7.598 0 15.194-0.002 22.792 0.001l-0.168 0.128h-22.482l-0.141-0.13z"></path>
</svg>
