<!-- Generated by IcoMoon.io -->
<svg version="1.1" xmlns="http://www.w3.org/2000/svg" width="44" height="24" viewBox="0 0 44 24">
<title>complementary--playground--g1</title>
<path fill="#fff" d="M1.957 0.198c0.375-0.151 0.783-0.15 1.18-0.153 12.544 0.004 25.088-0.003 37.634 0.004 1.499-0.042 2.857 1.32 2.817 2.817 0.003 6.089 0.003 12.179 0 18.267 0.040 1.497-1.32 2.857-2.817 2.819-12.634 0.003-25.268 0.003-37.902 0-1.497 0.038-2.862-1.321-2.819-2.819-0.001-6.090-0.003-12.179 0-18.267-0.030-1.181 0.806-2.287 1.908-2.669M2.51 0.766c-1.038 0.168-1.838 1.174-1.784 2.223 0.004 6.052-0.005 12.105 0.004 18.157-0.007 1.175 1.092 2.189 2.26 2.127 12.551 0 25.103 0 37.655 0 1.17 0.065 2.264-0.952 2.258-2.127 0.008-6.097 0.008-12.195 0-18.292 0-1.173-1.087-2.195-2.258-2.127-12.71 0.026-25.428-0.050-38.135 0.040z"></path>
<path fill="#fff" d="M2.645 1.855c12.616-0.086 25.244-0.010 37.863-0.038 0.685-0.102 1.372 0.465 1.309 1.174 0.001 6.005 0.001 12.012 0 18.019 0.053 0.644-0.528 1.226-1.171 1.171-12.552 0.001-25.105 0.001-37.655 0-0.644 0.055-1.227-0.526-1.171-1.171-0.001-6.007-0.001-12.012 0-18.019-0.035-0.513 0.318-1.025 0.826-1.136M28.402 3.867c-0.987 0.192-1.67 1.282-1.4 2.255 0.217 0.986 1.331 1.64 2.299 1.34 0.97-0.241 1.585-1.355 1.28-2.306-0.243-0.915-1.26-1.515-2.179-1.29M27.71 8.26c-1.375 1.377-2.757 2.748-4.125 4.132 0.476 0.401 1.212 0.503 1.715 0.090 0.807-0.638 1.585-1.316 2.384-1.964 0.154 3.229 0.278 6.46 0.439 9.687 0.629-0.085 1.215-0.58 1.226-1.246 0.035-1.33-0.014-2.662 0.023-3.993 0.43-0.116 0.858-0.24 1.287-0.36 0.352 0.374 0.488 1.147 1.107 1.113 1.375-0.003 2.748 0.004 4.122-0.004-0.050-0.607-0.483-1.2-1.117-1.272-0.871-0.098-1.75-0.132-2.624-0.213-0.374-1.484-0.746-2.969-1.113-4.454 0.432-0.005 0.866-0.004 1.298-0.003 0.457 0.949 1.075 2.455 2.42 1.875-0.49-0.974-0.944-1.97-1.48-2.921-0.91-0.372-1.94-0.447-2.894-0.719-0.803 0.476-1.795 0.597-2.671 0.251M16.399 16.537c-0.855 0.228-1.466 1.121-1.34 2.002 0.089 0.959 1.027 1.733 1.987 1.632 1.006-0.050 1.829-1.035 1.699-2.035-0.074-1.11-1.285-1.935-2.345-1.6z"></path>
<path fill="#000" d="M2.51 0.766c12.708-0.090 25.425-0.014 38.135-0.040 1.171-0.068 2.258 0.955 2.258 2.127 0.008 6.097 0.008 12.195 0 18.292 0.005 1.175-1.088 2.193-2.258 2.127-12.552 0-25.105 0-37.655 0-1.167 0.061-2.266-0.952-2.26-2.127-0.010-6.052 0-12.105-0.004-18.157-0.055-1.049 0.746-2.055 1.784-2.223M2.645 1.855c-0.509 0.11-0.862 0.623-0.826 1.136-0.001 6.007-0.001 12.012 0 18.019-0.056 0.645 0.528 1.226 1.171 1.171 12.551 0.001 25.103 0.001 37.655 0 0.644 0.055 1.225-0.528 1.171-1.171 0.001-6.007 0.001-12.014 0-18.019 0.063-0.709-0.625-1.276-1.309-1.174-12.619 0.029-25.246-0.048-37.863 0.038z"></path>
<path fill="#000" d="M28.402 3.867c0.919-0.225 1.936 0.375 2.179 1.29 0.304 0.95-0.311 2.065-1.28 2.306-0.968 0.3-2.082-0.355-2.299-1.34-0.27-0.974 0.413-2.063 1.4-2.255z"></path>
<path fill="#000" d="M27.71 8.26c0.877 0.346 1.868 0.225 2.671-0.251 0.953 0.271 1.984 0.346 2.894 0.719 0.536 0.95 0.99 1.947 1.48 2.921-1.346 0.58-1.964-0.926-2.42-1.875-0.432-0.001-0.866-0.003-1.298 0.003 0.367 1.485 0.739 2.97 1.113 4.454 0.874 0.080 1.752 0.115 2.624 0.213 0.634 0.072 1.066 0.665 1.117 1.272-1.375 0.008-2.748 0.001-4.122 0.004-0.619 0.034-0.755-0.739-1.107-1.113-0.43 0.12-0.858 0.244-1.287 0.36-0.037 1.331 0.012 2.663-0.023 3.993-0.011 0.667-0.597 1.162-1.226 1.246-0.161-3.228-0.285-6.458-0.439-9.687-0.799 0.648-1.576 1.325-2.384 1.964-0.503 0.413-1.24 0.311-1.715-0.090 1.368-1.384 2.75-2.755 4.125-4.132z"></path>
<path fill="#000" d="M16.399 16.537c1.061-0.335 2.272 0.49 2.345 1.6 0.13 1-0.693 1.984-1.699 2.035-0.96 0.101-1.898-0.674-1.987-1.632-0.125-0.881 0.485-1.774 1.34-2.002z"></path>
</svg>
