<!-- Generated by IcoMoon.io -->
<svg version="1.1" xmlns="http://www.w3.org/2000/svg" width="48" height="24" viewBox="0 0 48 24">
<title>complementary--one-direction-right--g1</title>
<path fill="#edae15" d="M2.94 0h42.36c1.62 0.23 2.626 1.802 2.573 3.362 0.046 5.758 0.055 11.522-0.005 17.28 0.062 1.69-1.154 3.12-2.822 3.358h-41.674c-1.692-0.079-3.139-1.382-3.101-3.125-0.106-5.762-0.038-11.532-0.034-17.294-0.094-1.666 0.938-3.389 2.702-3.581M3.216 0.626c-1.483-0.014-2.45 1.349-2.383 2.746-0.041 5.736-0.062 11.479 0.012 17.215-0.070 1.488 1.018 2.851 2.573 2.789 13.26 0.062 26.525 0.007 39.787 0.026 1.097-0.043 2.354 0.046 3.257-0.701 0.835-0.761 0.838-1.985 0.862-3.026-0.002-5.196 0.010-10.392-0.005-15.586-0.048-1.020-0.050-2.268-0.931-2.959-1.085-0.691-2.441-0.559-3.667-0.595-13.166 0.065-26.342-0.115-39.504 0.091z"></path>
<path fill="#edae15" d="M2.712 1.517c0.758-0.194 1.55-0.182 2.326-0.197 12.802 0.005 25.601-0.002 38.4 0.002 0.852 0.048 1.79-0.019 2.542 0.458 0.65 0.758 0.518 1.85 0.566 2.779-0.041 5.429 0.074 10.865-0.058 16.291 0.041 1.243-1.238 1.85-2.323 1.766-13.524-0.010-27.053 0.026-40.577-0.019-1.157 0.115-2.054-0.804-1.968-1.951-0.096-5.518-0.014-11.042-0.041-16.562 0.036-0.917-0.010-2.318 1.133-2.568M29.328 4.802c0.168 1.366 0.924 2.582 1.325 3.888-8.592 0.024-17.184-0.007-25.776 0.014-0.012 2.177-0.014 4.351 0.002 6.528 8.582 0.031 17.167-0.014 25.75 0.022-0.336 1.327-0.958 2.587-1.133 3.95-0.046 1.306 1.634 1.91 2.568 1.102 3.936-2.746 7.826-5.556 11.731-8.345-3.941-2.832-7.992-5.508-11.969-8.29-0.96-0.742-2.477-0.118-2.498 1.13z"></path>
<path fill="#231f20" d="M3.216 0.626c13.162-0.206 26.338-0.026 39.504-0.091 1.226 0.036 2.582-0.096 3.667 0.595 0.881 0.691 0.883 1.939 0.931 2.959 0.014 5.194 0.002 10.39 0.005 15.586-0.024 1.042-0.026 2.266-0.862 3.026-0.902 0.746-2.16 0.658-3.257 0.701-13.262-0.019-26.527 0.036-39.787-0.026-1.555 0.062-2.642-1.301-2.573-2.789-0.074-5.736-0.053-11.479-0.012-17.215-0.067-1.397 0.9-2.76 2.383-2.746M2.712 1.517c-1.142 0.25-1.097 1.651-1.133 2.568 0.026 5.52-0.055 11.045 0.041 16.562-0.086 1.147 0.811 2.066 1.968 1.951 13.524 0.046 27.053 0.010 40.577 0.019 1.085 0.084 2.364-0.523 2.323-1.766 0.132-5.426 0.017-10.862 0.058-16.291-0.048-0.929 0.084-2.021-0.566-2.779-0.751-0.478-1.69-0.41-2.542-0.458-12.799-0.005-25.598 0.002-38.4-0.002-0.775 0.014-1.567 0.002-2.326 0.197z"></path>
<path fill="#231f20" d="M29.328 4.802c0.022-1.248 1.538-1.872 2.498-1.13 3.977 2.782 8.028 5.458 11.969 8.29-3.905 2.789-7.795 5.599-11.731 8.345-0.934 0.809-2.614 0.204-2.568-1.102 0.175-1.363 0.797-2.623 1.133-3.95-8.582-0.036-17.167 0.010-25.75-0.022-0.017-2.177-0.014-4.351-0.002-6.528 8.592-0.022 17.184 0.010 25.776-0.014-0.401-1.306-1.157-2.522-1.325-3.888z"></path>
</svg>
