<svg xmlns="http://www.w3.org/2000/svg" width="24" height="24">
    <path fill="#ffd033" d="M1.688 0h20.608c.87.143 1.546.871 1.704 1.727v20.519c-.13.898-.884 1.618-1.772 1.754H1.792c-.89-.14-1.63-.832-1.792-1.723V1.727C.155.879.829.151 1.688 0zm.284.328C.989.454.255 1.422.299 2.396c.005 6.48-.007 12.96.006 19.44-.008 1.045.924 1.979 1.974 1.951 6.521.006 13.042.008 19.562-.001 1.252.029 2.148-1.24 1.962-2.425-.011-6.359.008-12.72-.008-19.079.012-1.085-.976-2.054-2.066-1.981C15.143.318 8.555.263 1.972.329z"/>
    <path fill="#ffd033" d="M1.847 1.03C8.47.938 15.103 1.017 21.73.99c.667-.079 1.327.472 1.267 1.163.004 6.565.004 13.13 0 19.696.04.629-.522 1.183-1.147 1.158-6.566.006-13.133.006-19.699 0-.625.026-1.188-.528-1.147-1.158-.005-6.565-.004-13.13 0-19.696-.037-.518.33-1.026.844-1.123zm2.39 5.37c-.587 1.27.214 2.705 1.464 3.162-.816.305-1.554.967-1.709 1.856-.257 1.138.419 2.323 1.444 2.825 1.674.824 4.154.604 5.182-1.116.766-1.331.038-3.145-1.444-3.565 1.213-.442 2.053-1.814 1.507-3.072C9.573 4.067 5.42 4.024 4.237 6.4zm11.765-1.676c-.985.126-1.832.803-2.314 1.651-.695 1.182-.821 2.605-.742 3.948.071 1.224.436 2.486 1.291 3.398 1.295 1.367 3.77 1.301 4.978-.149 1.038-1.219 1.278-2.906 1.182-4.454-.053-1.256-.442-2.549-1.315-3.481-.779-.817-1.99-1.11-3.08-.913zm-9.4 12.466c-.005 1.28-.004 2.561 0 3.84l.745-.001c.013-1.027-.013-2.054.014-3.082.242 1.028.46 2.062.698 3.09.257-.007.515-.014.773-.024.227-1.025.445-2.051.7-3.068.018 1.028-.002 2.057.01 3.085l.746-.001c.004-1.279.002-2.558 0-3.838-.382-.002-.764-.002-1.147 0-.23.99-.449 1.982-.685 2.971-.256-.984-.463-1.98-.696-2.97a63.857 63.857 0 0 0-1.158-.002zm4.44 0c-.005 1.271-.002 2.54-.001 3.811l.81-.004c-.001-.446-.001-.894.002-1.342.449-.011.906.02 1.346-.084 1.044-.236 1.031-2.047.002-2.303-.709-.152-1.441-.053-2.16-.079zm3.509.001a818.348 818.348 0 0 0 0 3.838l.806.002c.004-.57.001-1.14.004-1.71.488-.004.977-.004 1.466.001.004.569 0 1.138.004 1.706l.806.002c.004-1.282.005-2.562 0-3.842l-.808.002-.002 1.465c-.49.006-.978.006-1.466.001-.001-.49-.001-.979-.004-1.469l-.806.002z"/>
    <path fill="#ffd033" d="M16.356 6.406c.775-.212 1.458.416 1.702 1.103.438 1.226.454 2.588.152 3.847-.162.712-.604 1.529-1.406 1.62-.688.091-1.264-.445-1.488-1.052-.475-1.163-.43-2.476-.252-3.696.157-.733.499-1.596 1.292-1.822zM11.854 17.849c.324.004.653-.018.972.049.481.102.468.938-.002 1.051-.318.073-.647.037-.97.04-.005-.38-.005-.76 0-1.14z"/>
    <path fill="#060606" d="M1.972.328C8.555.262 15.143.317 21.729.3c1.091-.073 2.078.896 2.066 1.981.017 6.359-.002 12.72.008 19.079.186 1.186-.71 2.454-1.962 2.425-6.521.01-13.042.007-19.562.001-1.05.028-1.982-.906-1.974-1.951-.013-6.48-.001-12.96-.006-19.44C.255 1.422.989.453 1.972.327zm-.125.702c-.514.097-.881.605-.844 1.123-.004 6.565-.005 13.13 0 19.696-.041.63.522 1.184 1.147 1.158 6.566.006 13.133.006 19.699 0 .625.025 1.187-.529 1.147-1.158.004-6.565.004-13.13 0-19.696.06-.691-.6-1.242-1.267-1.163-6.626.026-13.26-.053-19.883.04z"/>
    <path d="M4.237 6.4c1.183-2.376 5.336-2.333 6.444.09.546 1.258-.294 2.63-1.507 3.072 1.482.42 2.209 2.234 1.444 3.565-1.027 1.72-3.508 1.94-5.182 1.116-1.025-.502-1.7-1.687-1.444-2.825.155-.889.893-1.552 1.709-1.856C4.451 9.105 3.65 7.67 4.237 6.4zm2.645-.226c-.769.21-1.148 1.178-.76 1.866.594 1.11 2.671.866 2.765-.479.158-1.063-1.088-1.768-2.005-1.387zm-.008 4.298c-.998.22-1.309 1.639-.58 2.31.833.858 2.695.408 2.672-.91.13-1.099-1.159-1.75-2.093-1.4zM16.002 4.724c1.091-.197 2.302.096 3.08.913.874.932 1.262 2.225 1.315 3.481.096 1.548-.144 3.235-1.182 4.454-1.207 1.45-3.683 1.516-4.978.149-.856-.912-1.22-2.174-1.291-3.398-.079-1.343.047-2.766.742-3.948.481-.848 1.328-1.525 2.314-1.651zm.354 1.682c-.793.226-1.135 1.088-1.292 1.822-.178 1.22-.223 2.533.252 3.696.224.607.8 1.144 1.488 1.052.803-.091 1.244-.908 1.406-1.62.301-1.259.286-2.621-.152-3.847-.244-.686-.926-1.315-1.702-1.103z"/>
    <path fill="#ffcf33" d="M6.882 6.174c.917-.38 2.164.324 2.005 1.387-.094 1.345-2.171 1.589-2.765.479-.389-.688-.01-1.656.76-1.866zM6.874 10.472c.934-.349 2.222.301 2.093 1.4.023 1.318-1.84 1.768-2.672.91-.73-.671-.419-2.09.58-2.31z"/>
    <path fill="#231f20" d="M6.602 17.19c.386-.002.772-.001 1.158.002.233.99.44 1.986.696 2.97.236-.989.455-1.981.685-2.971.383-.002.766-.002 1.147 0 .002 1.279.004 2.558 0 3.838l-.746.001c-.012-1.028.008-2.057-.01-3.085-.254 1.018-.473 2.044-.7 3.068-.258.01-.516.017-.773.024-.239-1.028-.456-2.062-.698-3.09-.028 1.027-.001 2.054-.014 3.082l-.745.001c-.004-1.279-.005-2.56 0-3.84zM11.042 17.19c.719.026 1.451-.073 2.16.079 1.028.256 1.042 2.066-.002 2.303-.44.104-.898.073-1.346.084-.004.448-.004.895-.002 1.342l-.81.004c-.001-1.271-.004-2.54.001-3.811zm.812.659c-.005.38-.005.76 0 1.14.323-.002.652.034.97-.04.47-.113.484-.949.002-1.051-.319-.067-.648-.046-.972-.049zM14.551 17.191l.806-.002.004 1.469c.488.005.977.005 1.466-.001l.002-1.465.808-.002c.005 1.28.004 2.561 0 3.842l-.806-.002c-.004-.569 0-1.138-.004-1.706-.49-.005-.978-.005-1.466-.001-.002.57 0 1.14-.004 1.71l-.806-.002c-.004-1.279-.002-2.558 0-3.838z"/>
</svg>
