<!-- Generated by IcoMoon.io -->
<svg version="1.1" xmlns="http://www.w3.org/2000/svg" width="48" height="24" viewBox="0 0 48 24">
<title>complementary--when-rainy--g2</title>
<path fill="#000" d="M2.921 0h42.098c1.457 0.348 2.582 1.488 2.981 2.923v18.094c-0.362 1.447-1.488 2.58-2.918 2.983h-42.106c-1.45-0.358-2.57-1.495-2.976-2.923v-18.103c0.355-1.452 1.486-2.582 2.921-2.974M2.981 0.878c-1.334 0.259-2.278 1.601-2.179 2.94 0.005 5.532-0.014 11.066 0.007 16.598-0.026 1.478 1.289 2.81 2.774 2.774 13.531 0.022 27.065 0.002 40.598 0.010 1.562 0.132 3.038-1.21 3.007-2.784 0.019-5.611 0.019-11.222 0-16.834 0.048-1.697-1.618-2.993-3.25-2.801-13.651 0.067-27.317-0.125-40.958 0.096z"></path>
<path fill="#000" d="M22.025 7.687c1.639-3.355 5.628-5.35 9.286-4.43 2.306 0.47 4.565 2.098 5.071 4.502 0.71 3.463-2.28 6.986-5.707 7.301-5.681 0.835-11.503 0.444-17.141-0.528-2.047-0.194-3.66-2.513-2.722-4.452 0.612-1.531 2.534-2.009 3.95-1.337 0.718-1.454 1.985-2.892 3.715-2.99 1.454-0.118 2.734 0.806 3.547 1.934M22.598 9.636c-0.139 0.535-0.108 1.15-0.514 1.577-0.281-1.831-1.246-4.159-3.365-4.334-2.093 0.192-3.163 2.45-3.425 4.308-0.538-0.866-1.308-1.992-2.503-1.519-1.766 0.595-1.229 3.427 0.538 3.626 4.793 0.996 9.751 1.306 14.635 0.943 1.798-0.199 3.799-0.194 5.268-1.409 1.759-1.322 2.731-3.886 1.625-5.921-1.181-2.215-3.967-2.904-6.298-2.662-2.887 0.257-5.357 2.585-5.962 5.39z"></path>
<path fill="#000" d="M13.5 16.114c0.35-0.002 0.698-0.002 1.049-0.002-0.502 1.128-0.998 2.256-1.505 3.382-0.348-0.005-0.696-0.005-1.042-0.007 0.497-1.126 0.996-2.249 1.498-3.372z"></path>
<path fill="#000" d="M22.481 16.13c0.355-0.012 0.71-0.022 1.066-0.031-0.492 1.135-0.996 2.263-1.502 3.391-0.346-0.002-0.694-0.005-1.039-0.007 0.49-1.118 0.994-2.23 1.476-3.353z"></path>
<path fill="#000" d="M31.5 16.114c0.35-0.002 0.698-0.002 1.049-0.002-0.502 1.128-0.998 2.254-1.505 3.379-0.348-0.002-0.696-0.002-1.042-0.005 0.497-1.126 0.996-2.249 1.498-3.372z"></path>
<path fill="#000" d="M18 17.616c0.35 0 0.701 0 1.051 0.002-0.502 1.123-1.003 2.246-1.5 3.374-0.35-0.002-0.701-0.002-1.049-0.002 0.494-1.128 0.996-2.251 1.498-3.374z"></path>
<path fill="#000" d="M25.505 20.99c0.492-1.128 0.996-2.249 1.495-3.372 0.262-0.002 0.785-0.002 1.046-0.002-0.494 1.126-1.001 2.246-1.49 3.374-0.35 0-0.701 0-1.051 0z"></path>
<path fill="#fff" d="M2.981 0.878c13.642-0.221 27.307-0.029 40.958-0.096 1.632-0.192 3.298 1.104 3.25 2.801 0.019 5.611 0.019 11.222 0 16.834 0.031 1.574-1.445 2.916-3.007 2.784-13.534-0.007-27.067 0.012-40.598-0.010-1.486 0.036-2.801-1.296-2.774-2.774-0.022-5.532-0.002-11.066-0.007-16.598-0.098-1.339 0.845-2.681 2.179-2.94M22.025 7.687c-0.814-1.128-2.093-2.052-3.547-1.934-1.73 0.098-2.998 1.536-3.715 2.99-1.416-0.672-3.338-0.194-3.95 1.337-0.938 1.939 0.674 4.258 2.722 4.452 5.638 0.972 11.46 1.363 17.141 0.528 3.427-0.314 6.418-3.838 5.707-7.301-0.506-2.405-2.765-4.032-5.071-4.502-3.658-0.919-7.646 1.075-9.286 4.43M13.5 16.114c-0.502 1.123-1.001 2.246-1.498 3.372 0.346 0.002 0.694 0.002 1.042 0.007 0.506-1.126 1.003-2.254 1.505-3.382-0.35 0-0.698 0-1.049 0.002M22.481 16.13c-0.482 1.123-0.986 2.234-1.476 3.353 0.346 0.002 0.694 0.005 1.039 0.007 0.506-1.128 1.010-2.256 1.502-3.391-0.355 0.010-0.71 0.019-1.066 0.031M31.5 16.114c-0.502 1.123-1.001 2.246-1.498 3.372 0.346 0.002 0.694 0.002 1.042 0.005 0.506-1.126 1.003-2.251 1.505-3.379-0.35 0-0.698 0-1.049 0.002M18 17.616c-0.502 1.123-1.003 2.246-1.498 3.374 0.348 0 0.698 0 1.049 0.002 0.497-1.128 0.998-2.251 1.5-3.374-0.35-0.002-0.701-0.002-1.051-0.002M25.505 20.99c0.35 0 0.701 0 1.051 0 0.49-1.128 0.996-2.249 1.49-3.374-0.262 0-0.785 0-1.046 0.002-0.499 1.123-1.003 2.244-1.495 3.372z"></path>
<path fill="#fff" d="M22.598 9.636c0.605-2.806 3.074-5.134 5.962-5.39 2.33-0.242 5.117 0.446 6.298 2.662 1.106 2.035 0.134 4.598-1.625 5.921-1.469 1.214-3.47 1.21-5.268 1.409-4.884 0.362-9.842 0.053-14.635-0.943-1.766-0.199-2.304-3.031-0.538-3.626 1.195-0.473 1.966 0.653 2.503 1.519 0.262-1.858 1.332-4.116 3.425-4.308 2.119 0.175 3.084 2.503 3.365 4.334 0.406-0.427 0.374-1.042 0.514-1.577z"></path>
</svg>
