<!-- Generated by IcoMoon.io -->
<svg version="1.1" xmlns="http://www.w3.org/2000/svg" width="49" height="24" viewBox="0 0 49 24">
<title>complementary--working-days--g1</title>
<path fill="#93918f" d="M2.131 0h44.706l0.328 0.269c-13.273-0.056-26.544-0.010-39.818-0.024-1.959 0.032-3.931-0.125-5.875 0.186 0.216-0.152 0.433-0.294 0.659-0.431z"></path>
<path fill="#fff" d="M1.472 0.431c1.944-0.311 3.916-0.154 5.875-0.186 13.273 0.015 26.544-0.032 39.818 0.024 0.073 0.020 0.22 0.056 0.294 0.076 0.264 0.495 0.718 0.842 1.163 1.168 0.076 0.157 0.223 0.473 0.296 0.629-0.022 6.568-0.027 13.139 0.005 19.709-0.076 0.157-0.223 0.47-0.296 0.627-0.465 0.311-0.867 0.703-1.178 1.166-0.152 0.073-0.458 0.22-0.612 0.291-13.976-0.105-27.96-0.015-41.939-0.044-1.134-0.064-2.358 0.23-3.409-0.318-0.382-0.323-0.74-0.676-1.058-1.060-0.169-0.372-0.326-0.762-0.309-1.178 0.015-6.223 0.017-12.448 0-18.671-0.020-0.414 0.137-0.806 0.306-1.176 0.318-0.38 0.678-0.722 1.043-1.058M2.050 0.845c-0.901 0.389-1.452 1.362-1.393 2.331 0.012 5.968-0.010 11.934 0.010 17.902-0.007 1.305 1.232 2.383 2.515 2.3 14.204 0.002 28.411-0.002 42.617 0.002 1.303 0.115 2.62-0.98 2.589-2.317 0.010-6.042 0.010-12.086 0-18.127 0.034-1.34-1.286-2.432-2.589-2.317-14.123 0-28.247 0.005-42.37-0.002-0.465 0.010-0.953 0.010-1.379 0.228z"></path>
<path fill="#fff" d="M2.554 1.384c14.327-0.169 28.675-0.017 43.011-0.076 0.994-0.159 2.17 0.529 2.123 1.626 0.012 6.044 0.012 12.088 0 18.132 0.042 0.975-0.948 1.727-1.878 1.621-14.214-0.002-28.43 0.005-42.647-0.002-0.906 0.076-1.829-0.678-1.805-1.614-0.022-5.963 0-11.929-0.010-17.892-0.088-0.791 0.438-1.582 1.205-1.795M18.042 5.552c-1.266 0.931-1.425 2.62-2.072 3.95 0.348 0.306 0.696 0.612 1.043 0.923 0.624-0.713 1.232-1.44 1.859-2.148 1.396 1.273 2.758 2.584 4.097 3.916-2.346 2.14-4.658 4.32-7.004 6.46 0.544 0.553 1.095 1.095 1.656 1.631 2.282-2.219 4.599-4.398 6.896-6.6 2.356 2.14 4.589 4.411 6.916 6.585 0.568-0.527 1.119-1.068 1.653-1.629-2.336-2.148-4.67-4.3-6.992-6.463 1.332-1.325 2.728-2.584 4.070-3.899 0.644 0.705 1.273 1.423 1.896 2.15 0.338-0.306 0.678-0.607 1.021-0.911-0.404-1.056-0.757-2.136-1.264-3.144-0.855-0.982-1.91-1.773-2.87-2.647-0.624 0.59-1.249 1.178-1.871 1.771 0.482 0.514 0.967 1.024 1.447 1.538-1.315 1.256-2.669 2.469-4.007 3.703-1.308-1.242-2.642-2.454-3.97-3.673 0.458-0.527 0.931-1.038 1.418-1.536-0.61-0.62-1.239-1.222-1.878-1.815-0.671 0.622-1.347 1.242-2.045 1.837z"></path>
<path fill="#1f1a17" d="M47.459 0.345c0.642 0.039 1.063 0.566 1.163 1.168-0.446-0.326-0.899-0.673-1.163-1.168z"></path>
<path fill="#1f1a17" d="M0 2.084c0.137-0.203 0.279-0.402 0.429-0.595-0.169 0.37-0.326 0.762-0.306 1.176 0.017 6.223 0.015 12.448 0 18.671-0.017 0.416 0.14 0.806 0.309 1.178-0.152-0.198-0.294-0.402-0.431-0.612v-19.817z"></path>
<path fill="#1f1a17" d="M48.918 2.143l0.061-0.365v20.429l-0.056-0.355c-0.032-6.571-0.027-13.141-0.005-19.709z"></path>
<path fill="#1f1a17" d="M18.042 5.552c0.698-0.595 1.374-1.215 2.045-1.837 0.639 0.593 1.269 1.195 1.878 1.815-0.487 0.497-0.96 1.009-1.418 1.536 1.327 1.22 2.662 2.432 3.97 3.673 1.337-1.234 2.691-2.447 4.007-3.703-0.48-0.514-0.965-1.024-1.447-1.538 0.622-0.593 1.247-1.18 1.871-1.771 0.96 0.874 2.016 1.665 2.87 2.647 0.507 1.009 0.86 2.089 1.264 3.144-0.343 0.304-0.683 0.605-1.021 0.911-0.622-0.727-1.251-1.445-1.896-2.15-1.342 1.315-2.738 2.574-4.070 3.899 2.322 2.162 4.656 4.315 6.992 6.463-0.534 0.561-1.085 1.102-1.653 1.629-2.327-2.175-4.56-4.445-6.916-6.585-2.297 2.202-4.614 4.381-6.896 6.6-0.561-0.536-1.112-1.078-1.656-1.631 2.346-2.14 4.658-4.32 7.004-6.46-1.34-1.332-2.701-2.642-4.097-3.916-0.627 0.708-1.234 1.435-1.859 2.148-0.348-0.311-0.696-0.617-1.043-0.923 0.647-1.33 0.806-3.020 2.072-3.95z"></path>
<path fill="#1f1a17" d="M47.449 23.645c0.311-0.463 0.713-0.855 1.178-1.166-0.069 0.637-0.541 1.107-1.178 1.166z"></path>
<path fill="#1f1a17" d="M1.489 23.574c1.051 0.549 2.275 0.255 3.409 0.318 13.979 0.029 27.962-0.061 41.939 0.044l0.362 0.064h-45.118c-0.201-0.137-0.399-0.279-0.593-0.426z"></path>
<path fill="#1c1714" d="M2.050 0.845c0.426-0.218 0.913-0.218 1.379-0.228 14.123 0.007 28.247 0.002 42.37 0.002 1.303-0.115 2.623 0.977 2.589 2.317 0.010 6.042 0.010 12.086 0 18.127 0.032 1.337-1.286 2.432-2.589 2.317-14.207-0.005-28.413 0-42.617-0.002-1.283 0.083-2.522-0.994-2.515-2.3-0.020-5.968 0.002-11.934-0.010-17.902-0.059-0.97 0.492-1.942 1.393-2.331M2.554 1.384c-0.767 0.213-1.293 1.004-1.205 1.795 0.010 5.963-0.012 11.929 0.010 17.892-0.024 0.936 0.899 1.69 1.805 1.614 14.216 0.007 28.433 0 42.647 0.002 0.931 0.105 1.92-0.647 1.878-1.621 0.012-6.044 0.012-12.088 0-18.132 0.047-1.097-1.129-1.785-2.123-1.626-14.336 0.059-28.685-0.093-43.011 0.076z"></path>
</svg>
