<svg xmlns="http://www.w3.org/2000/svg" width="24" height="24">
    <path fill="#fff" d="M1.068 5.563c.204-.08.426-.082.643-.083 6.842.003 13.685-.002 20.528.002.818-.022 1.557.719 1.537 1.537v9.964c.021.817-.72 1.557-1.537 1.537-6.891.002-13.783.002-20.674 0-.817.021-1.561-.719-1.538-1.537V7.019c-.016-.644.44-1.248 1.041-1.456zm.301.31c-.567.09-1.002.64-.973 1.211.002 3.301-.004 6.602.003 9.903-.004.642.595 1.194 1.231 1.161l20.541-.001c.638.035 1.234-.518 1.231-1.16.007-3.3.001-6.602.003-9.903.035-.665-.566-1.274-1.234-1.233-6.934.014-13.87-.03-20.802.022z"/>
    <path fill="#fff" d="M1.443 6.467c6.881-.05 13.769-.006 20.653-.022.374-.055.746.253.712.64.002 3.275.002 6.553 0 9.829a.604.604 0 0 1-.638.638c-6.847.002-13.694.002-20.539 0a.603.603 0 0 1-.638-.638 8050.77 8050.77 0 0 1 0-9.829c-.019-.279.172-.56.45-.618zm2.969.796c-.533.177-.609.991-.117 1.264.419.289 1.061-.033 1.081-.542.066-.501-.501-.926-.963-.722zm-.504 2.028c-.736.667-.736 1.841-.26 2.657-.465.524-.723 1.19-.832 1.875 1.225.008 2.449.012 3.673.022a3.41 3.41 0 0 0-1.281-2.356c.004-.521-.019-1.041.008-1.561.26.302.391.688.585 1.031.109.26.32.526.218.821-.064.166.045.321.166.425.419.385.839.769 1.256 1.155-.058 1.085-.129 2.17-.182 3.255-.024.206.258.178.387.137.121-.536.113-1.096.186-1.642.111.006.221.009.333.008.086.479.168.958.257 1.436.159.031.32.011.469-.053l-.257-1.526.389-.002c-.09-.463-.184-.925-.272-1.387.272.319.536.646.811.963.176-.123.283-.376.127-.559-.366-.456-.744-.902-1.115-1.354-.319.07-.661.156-.981.041-.45-.147-.735-.55-1.102-.825.246-.253.097-.604-.041-.871-.258-.465-.481-.949-.753-1.406-.355-.599-1.27-.776-1.787-.285zm13.593.151c.581.725 1.166 1.446 1.747 2.17-2.585.002-5.171-.001-7.756.002 0 .323-.004.647-.004.971 2.586.002 5.173-.001 7.759.002-.583.726-1.168 1.45-1.751 2.175.411.002.821 0 1.232.001.753-.886 1.505-1.775 2.258-2.662-.748-.887-1.5-1.773-2.252-2.659-.411.001-.821-.001-1.232.001zm-9.816 1.695c-.484.165-.534.914-.076 1.142.379.235.927-.058.943-.503.055-.448-.454-.824-.867-.638zm-3.67 2.882c.005.718.014 1.436.019 2.155a.602.602 0 0 0 .513.013c-.003-.723 0-1.445-.002-2.168a46.817 46.817 0 0 0-.53 0zm.732 0c.01.841.006 1.682.022 2.522-.035.321.543.323.505 0 .01-.841 0-1.682.004-2.523l-.531.001z"/>
    <path fill="#fff" d="M3.905 9.99l.178.014c.023.491.007.984.012 1.477a8.39 8.39 0 0 0-.181.193 3.157 3.157 0 0 1-.01-1.684z"/>
    <path d="M1.369 5.873c6.932-.051 13.868-.008 20.802-.022.668-.04 1.27.567 1.234 1.233-.002 3.301.004 6.603-.003 9.903.003.642-.593 1.196-1.231 1.16l-20.541.001c-.636.033-1.235-.519-1.231-1.161-.007-3.301-.001-6.602-.003-9.903-.029-.572.406-1.121.973-1.211zm.074.594c-.278.058-.469.339-.45.618a8050.77 8050.77 0 0 0 0 9.829.604.604 0 0 0 .638.638c6.846.002 13.693.002 20.539 0a.604.604 0 0 0 .638-.638c.002-3.275.002-6.553 0-9.829.033-.387-.339-.695-.712-.64-6.884.016-13.772-.027-20.653.022z"/>
    <path d="M4.412 7.263c.463-.204 1.029.221.963.722-.02.509-.661.83-1.081.542-.491-.273-.416-1.087.117-1.264zM3.908 9.291c.517-.491 1.432-.314 1.787.285.272.457.495.941.753 1.406.137.267.287.618.041.871.367.275.652.677 1.102.825.32.115.662.029.981-.041.372.452.75.898 1.115 1.354.156.183.05.436-.127.559-.275-.317-.538-.644-.811-.963.088.463.182.925.272 1.387l-.389.002.257 1.526a.802.802 0 0 1-.469.053c-.089-.478-.171-.957-.257-1.436a4.64 4.64 0 0 1-.333-.008c-.073.545-.065 1.105-.186 1.642-.129.041-.411.069-.387-.137.053-1.085.123-2.17.182-3.255-.417-.386-.837-.77-1.256-1.155-.121-.104-.23-.258-.166-.425.102-.295-.109-.562-.218-.821-.194-.344-.325-.73-.585-1.031-.027.52-.004 1.041-.008 1.561a3.414 3.414 0 0 1 1.281 2.356c-1.225-.01-2.449-.014-3.673-.022.109-.685.368-1.352.832-1.875-.476-.817-.476-1.991.26-2.657zm-.003.699a3.147 3.147 0 0 0 .01 1.684c.059-.065.12-.129.181-.193-.005-.493.011-.986-.012-1.477l-.178-.014zM17.501 9.442c.411-.002.821 0 1.232-.001.751.886 1.503 1.771 2.252 2.659l-2.258 2.662c-.411-.001-.821.002-1.232-.001.583-.725 1.168-1.449 1.751-2.175-2.586-.002-5.173 0-7.759-.002.001-.323.004-.647.004-.971 2.585-.002 5.171.001 7.756-.002-.581-.724-1.166-1.445-1.747-2.17z"/>
    <path d="M7.685 11.137c.412-.185.922.19.867.638-.015.446-.564.739-.943.503-.458-.227-.409-.976.076-1.142zM4.015 14.019h.53c.002.722-.002 1.444.002 2.168a.599.599 0 0 1-.513-.013c-.005-.718-.014-1.437-.019-2.155zM4.747 14.019l.531-.001c-.004.841.007 1.683-.004 2.523.038.323-.541.321-.505 0-.016-.841-.013-1.682-.022-2.522z"/>
</svg>
