<!-- Generated by IcoMoon.io -->
<svg version="1.1" xmlns="http://www.w3.org/2000/svg" width="36" height="24" viewBox="0 0 36 24">
<title>complementary--camera--g2</title>
<path fill="#231f20" d="M1.294 0h33.675c0.414 0.167 0.818 0.413 1.031 0.82v22.554c-0.171 0.224-0.355 0.438-0.564 0.626h-34.701c-0.39-0.301-0.645-0.74-0.736-1.222v-21.388c0.129-0.673 0.616-1.234 1.294-1.39M1.323 0.293c-0.671 0.177-1.073 0.847-1.064 1.517 0.002 6.851 0.002 13.702 0 20.554-0.007 0.699 0.442 1.5 1.201 1.551 11.085 0 22.17 0 33.255 0 0.63-0.060 1.178-0.654 1.199-1.29 0.003-6.967-0.002-13.934 0.003-20.902 0.008-0.716-0.546-1.437-1.292-1.463-10.996-0.002-21.992 0.003-32.988-0.003-0.107-0.005-0.212 0.007-0.313 0.036z"></path>
<path fill="#231f20" d="M0.515 1.464c-0.047-0.595 0.578-1.016 1.12-1.032 10.997-0.002 21.995 0 32.992-0.001 0.603 0.038 1.104 0.603 1.113 1.203 0.003 6.908-0.002 13.817 0.003 20.726 0.008 0.249-0.058 0.49-0.102 0.734-0.195 0.337-0.515 0.644-0.927 0.646-11.114-0.002-22.229 0.004-33.342-0.003-0.397-0.083-0.768-0.454-0.851-0.851-0.009-7.14 0.003-14.282-0.005-21.423M1.208 1.719c0.002 7.011 0 14.022 0.001 21.033 0.1 0.098 0.2 0.199 0.299 0.299 11.053 0 22.105 0 33.158 0 0.098-0.1 0.198-0.2 0.299-0.299 0.002-7.12-0.003-14.239 0.003-21.357-0.178-0.129-0.362-0.299-0.599-0.273-10.854 0.002-21.709 0.001-32.563 0-0.337-0.037-0.634 0.26-0.597 0.597z"></path>
<path fill="#231f20" d="M17.957 2.072c0.065 0 0.194 0 0.259 0 0 0.777 0 1.554 0 2.331-0.065 0-0.194 0-0.259 0 0-0.777 0-1.554 0-2.331z"></path>
<path fill="#231f20" d="M15.15 2.841c0.597 0.444 1.162 0.931 1.771 1.357 0 0.043-0.001 0.129-0.001 0.173-0.042 0.037-0.129 0.112-0.171 0.15-0.62-0.469-1.249-0.928-1.826-1.449 0.076-0.076 0.151-0.153 0.226-0.231z"></path>
<path fill="#231f20" d="M19.212 4.302c0.578-0.523 1.221-0.969 1.827-1.458 0.074 0.091 0.15 0.181 0.224 0.272-0.571 0.458-1.172 0.882-1.716 1.374-0.044 0-0.133 0.002-0.177 0.002-0.040-0.047-0.118-0.142-0.158-0.189z"></path>
<path fill="#231f20" d="M16.874 4.662c0.872 0.047 1.766-0.102 2.624 0.086 0.113 0.505 0.218 1.092-0.074 1.556-0.919-0.054-1.861 0.108-2.763-0.093 0.003-0.445 0.002-0.891 0.002-1.336 0.071-0.071 0.142-0.142 0.212-0.212z"></path>
<path fill="#231f20" d="M14.197 4.73c0.737 0.222 1.501 0.338 2.236 0.562-0.033 0.102-0.066 0.205-0.103 0.306-0.76-0.179-1.518-0.371-2.282-0.534 0.050-0.111 0.099-0.222 0.149-0.333z"></path>
<path fill="#231f20" d="M19.746 5.282c0.786-0.174 1.561-0.398 2.35-0.557 0.002 0.115 0.003 0.23 0.005 0.344-0.751 0.14-1.481 0.377-2.233 0.519-0.041-0.103-0.082-0.205-0.123-0.306z"></path>
<path fill="#231f20" d="M14.159 6.473c2.605 0.004 5.21 0.001 7.816 0.002 0.071 0.071 0.141 0.142 0.212 0.212 0.001 1.339-0.003 2.678 0.002 4.017-0.162 0.078-0.323 0.188-0.511 0.174-2.162 0.001-4.323-0.002-6.483 0.001-0.37-0.005-0.753 0.039-1.109-0.087-0.21-0.99-0.049-2.017-0.099-3.022 0.022-0.435-0.096-0.914 0.174-1.297M17.725 7.196c-0.581 0.121-0.978 0.654-1.12 1.205-0.213 1.026 0.941 2.069 1.934 1.689 0.824-0.237 1.302-1.247 0.944-2.029-0.313-0.637-1.041-1.083-1.758-0.866z"></path>
<path fill="#231f20" d="M6.561 13.036c0.546 0 1.094 0 1.64 0 0 0.173 0 0.345 0 0.518-0.173 0-0.345 0-0.518 0 0 0.863 0 1.727 0 2.59-0.173 0-0.345 0-0.518 0 0-0.863 0-1.727 0-2.59-0.201 0-0.403 0-0.604 0 0-0.173 0-0.345 0-0.518z"></path>
<path fill="#231f20" d="M8.547 13.037c0.591 0.012 1.38-0.144 1.727 0.477-0.004 0.406 0.105 0.963-0.37 1.153 0.123 0.494 0.326 0.966 0.393 1.474-0.171 0.002-0.343 0.003-0.515 0.004-0.13-0.462-0.268-0.921-0.399-1.382-0.106 0-0.212 0-0.319 0 0 0.46 0 0.921 0 1.381-0.173 0-0.345 0-0.518 0 0-1.036 0-2.071 0-3.107M9.065 13.554c0 0.235 0 0.47 0.001 0.704 0.234-0.007 0.468-0.033 0.691-0.104-0.001-0.129-0.002-0.258-0.002-0.388-0.071-0.071-0.142-0.142-0.212-0.212-0.16 0-0.319 0-0.478 0z"></path>
<path fill="#231f20" d="M11.245 13.036c0.161 0 0.321-0.001 0.483-0.001 0.294 1.031 0.511 2.082 0.803 3.114-0.17-0.003-0.339 0.003-0.509-0.016-0.203-0.234-0.1-0.609-0.305-0.841-0.16-0.019-0.32-0.016-0.48-0.021-0.089 0.286-0.165 0.576-0.212 0.872-0.171 0-0.343-0.001-0.514-0.003 0.164-1.051 0.498-2.069 0.733-3.105M11.416 14.443c-0.023 0.137-0.052 0.273-0.087 0.407 0.11-0.001 0.22-0.002 0.331-0.002-0.049-0.181-0.088-0.365-0.118-0.549-0.032 0.035-0.094 0.107-0.125 0.143z"></path>
<path fill="#231f20" d="M12.863 13.036c0.518 0 1.036 0 1.554 0 0 0.173 0 0.345 0 0.518-0.345 0-0.691 0-1.036 0 0 0.231 0 0.46 0 0.691 0.201 0 0.402 0 0.604 0 0 0.173 0 0.345 0 0.518-0.202 0-0.403 0-0.604 0 0 0.46 0 0.921 0 1.381-0.173 0-0.345 0-0.518 0 0-1.036 0-2.072 0-3.108z"></path>
<path fill="#231f20" d="M14.763 13.036c0.546 0 1.094 0 1.64 0 0 0.173 0 0.345 0 0.518-0.374 0-0.748 0-1.122 0 0 0.231 0 0.46 0 0.691 0.201 0 0.402 0 0.604 0 0 0.173 0 0.345 0 0.518-0.202 0-0.403 0-0.604 0 0 0.46 0 0.921 0 1.381-0.173 0-0.345 0-0.518 0 0-1.036 0-2.072 0-3.108z"></path>
<path fill="#231f20" d="M16.748 13.036c0.173 0 0.345 0 0.518 0 0 1.036 0 2.072 0 3.108-0.173 0-0.345 0-0.518 0 0-1.036 0-2.072 0-3.108z"></path>
<path fill="#231f20" d="M18.336 13.035c0.237 0.001 0.473 0.001 0.71 0 0.276 0.245 0.532 0.553 0.482 0.949-0.169 0.001-0.338 0.002-0.506 0.002-0.041-0.145-0.085-0.288-0.13-0.432-0.138-0.001-0.277-0.002-0.415-0.003-0.281 0.41-0.147 0.923-0.175 1.387-0.018 0.336 0.101 0.681 0.439 0.805 0.084-0.079 0.167-0.159 0.252-0.237 0.001-0.056 0.003-0.17 0.003-0.226 0.177 0 0.355 0 0.532 0.002 0.115 0.717-0.751 1.207-1.32 0.776-0.534-0.468-0.419-1.263-0.425-1.904-0.021-0.445 0.225-0.841 0.553-1.12z"></path>
<path fill="#231f20" d="M21.583 13.036c0.173 0 0.345 0 0.518 0 0 0.863 0 1.727 0 2.59 0.345 0 0.691 0 1.036 0 0 0.173 0 0.345 0 0.518-0.518 0-1.036 0-1.554 0 0-1.036 0-2.072 0-3.108z"></path>
<path fill="#231f20" d="M23.939 13.029c0.177 0.038 0.453-0.083 0.546 0.123 0.247 0.996 0.495 1.993 0.746 2.988-0.175 0.003-0.35 0.003-0.525 0.005-0.087-0.289-0.157-0.584-0.267-0.867-0.168 0.001-0.335 0.001-0.502 0.002-0.071 0.288-0.148 0.576-0.218 0.864-0.174-0.001-0.346-0.003-0.519-0.004 0.206-1.046 0.534-2.065 0.739-3.111M24.057 14.843c0.074 0.002 0.222 0.006 0.296 0.008-0.054-0.193-0.099-0.389-0.143-0.584-0.064 0.188-0.117 0.38-0.153 0.576z"></path>
<path fill="#231f20" d="M25.278 13.038c0.172-0.001 0.344-0.002 0.516-0.003 0.071 0.432 0.166 0.86 0.205 1.296h0.060c0.039-0.436 0.134-0.864 0.205-1.295 0.136-0.001 0.272-0.001 0.407-0.001 0.094 0.368 0.151 0.746 0.196 1.123 0.035 0 0.107 0 0.143 0-0.004-0.378 0.095-0.746 0.112-1.122 0.171 0 0.342 0 0.513 0.001-0.071 1.044-0.325 2.069-0.459 3.107-0.162 0-0.325 0-0.486 0-0.015-0.434-0.111-0.862-0.238-1.275-0.066 0.426-0.125 0.855-0.224 1.275-0.162 0-0.325 0-0.488 0-0.099-1.042-0.314-2.070-0.463-3.106z"></path>
<path fill="#231f20" d="M28.437 13.035c0.233 0.001 0.466 0.001 0.699 0 0.303 0.184 0.483 0.508 0.503 0.859-0.173 0.003-0.344 0.005-0.517 0.007-0.047-0.117-0.097-0.232-0.143-0.348-0.092 0-0.185 0.001-0.276 0.001-0.072 0.071-0.142 0.142-0.213 0.212 0 0.049-0.001 0.148-0.001 0.197 0.421 0.286 0.973 0.538 1.096 1.083 0.218 0.656-0.521 1.434-1.173 1.093-0.455-0.091-0.529-0.577-0.627-0.951 0.289-0.022 0.658-0.040 0.654 0.351 0.108 0.066 0.218 0.131 0.326 0.197 0.11-0.108 0.218-0.216 0.329-0.324 0-0.089 0-0.179 0.001-0.269-0.334-0.463-1.054-0.603-1.125-1.241-0.078-0.372 0.237-0.633 0.467-0.869z"></path>
<path fill="#231f20" d="M3.54 18.044c0.527 0.033 1.132-0.136 1.574 0.24 0.312 0.384 0.266 0.941 0.001 1.335-0.303 0.22-0.693 0.254-1.057 0.245 0 0.429 0 0.858 0 1.287-0.173 0-0.345 0-0.518 0 0-1.036 0-2.071 0-3.107M4.058 18.547c-0.001 0.268-0.001 0.536 0 0.805 0.224-0.009 0.449-0.029 0.663-0.098 0.033-0.12 0.068-0.24 0.107-0.357-0.037-0.085-0.073-0.168-0.108-0.253-0.214-0.068-0.439-0.088-0.662-0.097z"></path>
<path fill="#231f20" d="M5.612 18.043c0.173 0 0.345 0 0.518 0 0 0.403 0 0.805 0 1.209 0.259 0 0.518 0 0.777 0 0-0.403 0-0.805 0-1.209 0.173 0 0.345 0 0.518 0 0 1.036 0 2.072 0 3.108-0.173 0-0.345 0-0.518 0 0-0.46 0-0.921 0-1.381-0.259 0-0.518 0-0.777 0 0 0.46 0 0.921 0 1.381-0.173 0-0.345 0-0.518 0 0-1.036 0-2.072 0-3.108z"></path>
<path fill="#231f20" d="M8.083 18.536c0.108-0.521 0.704-0.572 1.13-0.464 0.351 0.113 0.426 0.535 0.527 0.843 0.015 0.699 0.142 1.484-0.311 2.083-0.306 0.251-0.753 0.171-1.104 0.069-0.504-0.723-0.489-1.721-0.242-2.531M8.846 18.496c-0.048 0.022-0.146 0.066-0.194 0.089-0.295 0.614-0.295 1.412 0 2.025 0.048 0.022 0.145 0.066 0.194 0.089 0.066-0.029 0.131-0.058 0.198-0.086 0.298-0.615 0.298-1.416 0-2.031-0.066-0.028-0.132-0.058-0.198-0.086z"></path>
<path fill="#231f20" d="M10.101 18.043c0.518 0 1.036 0 1.554 0 0 0.173 0 0.345 0 0.518-0.173 0-0.345 0-0.518 0 0 0.863 0 1.727 0 2.59-0.173 0-0.345 0-0.518 0 0-0.863 0-1.727 0-2.59-0.173 0-0.345 0-0.518 0 0-0.173 0-0.345 0-0.518z"></path>
<path fill="#231f20" d="M12.458 18.041c0.27 0.002 0.541 0.002 0.812 0 0.761 0.807 0.761 2.304 0 3.111-0.271-0.002-0.541-0.003-0.812 0-0.454-0.383-0.484-1.010-0.545-1.556 0.060-0.546 0.091-1.172 0.545-1.556M12.691 20.637c0.102-0.002 0.205-0.003 0.307-0.003 0.066-0.068 0.13-0.135 0.197-0.202 0.148-0.657 0.221-1.437-0.267-1.976-0.709 0.442-0.575 1.526-0.237 2.182z"></path>
<path fill="#231f20" d="M15.799 18.043c0.489 0 0.978 0 1.468 0 0 0.173 0 0.345 0 0.518-0.317 0-0.633 0-0.95 0 0 0.23 0 0.46 0 0.691 0.201 0 0.402 0 0.604 0 0 0.173 0 0.345 0 0.518-0.202 0-0.403 0-0.604 0 0 0.287 0 0.576 0 0.863 0.374 0 0.748 0 1.122 0 0 0.173 0 0.345 0 0.518-0.546 0-1.094 0-1.64 0 0-1.036 0-2.072 0-3.108z"></path>
<path fill="#231f20" d="M17.871 18.043c0.161 0 0.322 0 0.483 0 0.266 0.5 0.442 1.041 0.724 1.532 0.006-0.51-0.001-1.021 0.002-1.532 0.173 0 0.345 0 0.518 0 0 1.036 0 2.072 0 3.108-0.135 0-0.269 0-0.403 0.001-0.231-0.614-0.554-1.184-0.804-1.788-0.005 0.596 0 1.191-0.002 1.787-0.173 0-0.345 0-0.518 0 0-1.036 0-2.072 0-3.108z"></path>
<path fill="#231f20" d="M20.201 18.043c0.518 0 1.036 0 1.554 0 0 0.173 0 0.345 0 0.518-0.345 0-0.691 0-1.036 0 0 0.23 0 0.46 0 0.691 0.201 0 0.402 0 0.604 0 0 0.173 0 0.345 0 0.518-0.202 0-0.403 0-0.604 0 0 0.46 0 0.921 0 1.381-0.173 0-0.345 0-0.518 0 0-1.036 0-2.072 0-3.108z"></path>
<path fill="#231f20" d="M22.558 18.041c0.321 0.029 0.689-0.085 0.97 0.116 0.503 0.667 0.464 1.588 0.268 2.359-0.040 0.273-0.256 0.451-0.435 0.637-0.352-0.014-0.863 0.098-1.032-0.313-0.354-0.493-0.198-1.114-0.231-1.677-0.030-0.423 0.148-0.839 0.46-1.122M22.784 20.635c0.114 0 0.228 0.001 0.342 0.003 0.413-0.616 0.442-1.633-0.108-2.177-0.715 0.453-0.492 1.502-0.234 2.175z"></path>
<path fill="#231f20" d="M24.432 18.044c0.54 0.033 1.182-0.145 1.613 0.28 0.193 0.414 0.245 1.109-0.243 1.343 0.103 0.501 0.345 0.968 0.377 1.481-0.172 0.002-0.344 0.003-0.515 0.003-0.11-0.466-0.251-0.925-0.383-1.384-0.111 0.001-0.221 0.002-0.331 0.003 0 0.46 0 0.92 0 1.38-0.173 0-0.345 0-0.518 0 0-1.036 0-2.071 0-3.107M24.951 18.547c-0.001 0.239-0.001 0.479 0 0.718 0.233-0.007 0.467-0.033 0.691-0.104-0.001-0.17-0.001-0.34 0-0.509-0.224-0.072-0.458-0.098-0.691-0.104z"></path>
<path fill="#231f20" d="M26.818 18.352c0.157-0.384 0.645-0.327 0.981-0.3 0.387 0.074 0.491 0.517 0.546 0.849-0.173 0.003-0.344 0.005-0.517 0.007-0.045-0.107-0.090-0.213-0.135-0.319-0.054-0.028-0.161-0.084-0.214-0.111-0.185 0.111-0.369 0.271-0.368 0.506 0.015 0.559-0.113 1.164 0.204 1.664 0.264 0.032 0.514-0.054 0.524-0.361 0.168 0.001 0.337 0.002 0.506 0.005-0.034 0.252-0.112 0.503-0.268 0.707-0.251 0.229-0.616 0.136-0.924 0.155-0.404-0.252-0.582-0.749-0.565-1.209 0.006-0.537-0.072-1.113 0.231-1.592z"></path>
<path fill="#231f20" d="M28.835 18.043c0.518 0 1.036 0 1.554 0 0 0.173 0 0.345 0 0.518-0.345 0-0.691 0-1.036 0 0 0.23 0 0.46 0 0.691 0.201 0 0.402 0 0.604 0 0 0.173 0 0.345 0 0.518-0.202 0-0.403 0-0.604 0 0 0.287 0 0.576 0 0.863 0.374 0 0.748 0 1.122 0 0 0.173 0 0.345 0 0.518-0.546 0-1.094 0-1.64 0 0-1.036 0-2.072 0-3.108z"></path>
<path fill="#231f20" d="M30.906 18.044c0.483 0.043 1.096-0.165 1.45 0.276 0.35 0.46 0.268 1.080 0.28 1.623 0.023 0.479-0.187 1.058-0.693 1.197-0.344 0.028-0.691 0.005-1.037 0.009 0-1.035 0-2.071 0-3.106M31.424 18.563c0 0.69 0 1.379 0 2.069 0.139 0.001 0.278 0.003 0.418 0.005 0.129-0.178 0.299-0.363 0.274-0.6-0.028-0.501 0.138-1.090-0.274-1.479-0.14 0.002-0.279 0.003-0.418 0.005z"></path>
<path fill="#fff" d="M1.323 0.293c0.102-0.029 0.206-0.041 0.313-0.036 10.996 0.006 21.992 0.001 32.988 0.003 0.745 0.027 1.299 0.748 1.292 1.463-0.004 6.968 0.001 13.935-0.003 20.902-0.021 0.635-0.569 1.23-1.199 1.29-11.085 0-22.17 0-33.255 0-0.759-0.050-1.208-0.851-1.201-1.551 0.002-6.851 0.002-13.702 0-20.554-0.009-0.67 0.394-1.34 1.064-1.517M0.515 1.464c0.008 7.141-0.003 14.283 0.005 21.423 0.083 0.397 0.454 0.768 0.851 0.851 11.113 0.007 22.228 0.001 33.342 0.003 0.412-0.002 0.732-0.309 0.927-0.646 0.044-0.243 0.11-0.485 0.102-0.734-0.004-6.909 0.001-13.818-0.003-20.726-0.009-0.6-0.509-1.165-1.113-1.203-10.998 0.001-21.995-0.001-32.992 0.001-0.541 0.016-1.167 0.437-1.12 1.032z"></path>
<path fill="#fff" d="M1.208 1.719c-0.037-0.338 0.26-0.635 0.597-0.597 10.854 0.001 21.709 0.002 32.563 0 0.237-0.026 0.421 0.144 0.599 0.273-0.006 7.119-0.001 14.238-0.003 21.357-0.101 0.098-0.2 0.199-0.299 0.299-11.053 0-22.105 0-33.158 0-0.098-0.1-0.199-0.2-0.299-0.299-0.001-7.011 0.001-14.022-0.001-21.033M17.957 2.072c0 0.777 0 1.554 0 2.331 0.065 0 0.194 0 0.259 0 0-0.777 0-1.554 0-2.331-0.065 0-0.194 0-0.259 0M15.15 2.841c-0.075 0.078-0.15 0.155-0.226 0.231 0.577 0.521 1.206 0.981 1.826 1.449 0.042-0.038 0.129-0.113 0.171-0.15 0-0.043 0.001-0.129 0.001-0.173-0.609-0.426-1.175-0.913-1.771-1.357M19.212 4.302c0.040 0.047 0.118 0.142 0.158 0.189 0.044 0 0.133-0.002 0.177-0.002 0.544-0.491 1.146-0.915 1.716-1.374-0.074-0.091-0.15-0.181-0.224-0.272-0.606 0.489-1.249 0.935-1.827 1.458M16.874 4.662c-0.071 0.071-0.142 0.142-0.212 0.212 0 0.445 0.001 0.891-0.002 1.336 0.902 0.201 1.845 0.039 2.763 0.093 0.292-0.464 0.187-1.051 0.074-1.556-0.857-0.188-1.752-0.039-2.624-0.086M14.197 4.73c-0.049 0.111-0.098 0.223-0.148 0.333 0.764 0.163 1.522 0.356 2.282 0.534 0.036-0.101 0.070-0.204 0.103-0.306-0.735-0.224-1.499-0.34-2.236-0.562M19.746 5.282c0.041 0.102 0.082 0.204 0.123 0.306 0.752-0.142 1.481-0.379 2.233-0.519-0.002-0.115-0.003-0.23-0.005-0.344-0.789 0.159-1.564 0.382-2.35 0.557M14.159 6.473c-0.269 0.382-0.152 0.862-0.174 1.297 0.050 1.005-0.111 2.031 0.099 3.022 0.357 0.126 0.739 0.082 1.109 0.087 2.161-0.003 4.322 0 6.483-0.001 0.188 0.015 0.349-0.096 0.511-0.174-0.004-1.339-0.001-2.678-0.002-4.017-0.072-0.071-0.142-0.142-0.212-0.212-2.605-0.001-5.21 0.003-7.816-0.002M6.561 13.036c0 0.173 0 0.345 0 0.518 0.201 0 0.403 0 0.604 0 0 0.863 0 1.727 0 2.59 0.173 0 0.345 0 0.518 0 0-0.863 0-1.727 0-2.59 0.173 0 0.345 0 0.518 0 0-0.173 0-0.345 0-0.518-0.546 0-1.094 0-1.64 0M8.547 13.037c0 1.036 0 2.071 0 3.107 0.173 0 0.345 0 0.518 0 0-0.46 0-0.921 0-1.381 0.106 0 0.212 0 0.319 0 0.131 0.461 0.269 0.92 0.399 1.382 0.172-0.001 0.344-0.003 0.515-0.004-0.066-0.508-0.27-0.98-0.393-1.474 0.476-0.19 0.366-0.748 0.37-1.153-0.347-0.621-1.137-0.464-1.727-0.477M11.245 13.036c-0.235 1.037-0.569 2.055-0.733 3.105 0.171 0.002 0.343 0.003 0.514 0.003 0.047-0.296 0.123-0.586 0.212-0.872 0.16 0.004 0.32 0.002 0.48 0.021 0.205 0.232 0.102 0.607 0.305 0.841 0.169 0.018 0.338 0.013 0.509 0.016-0.292-1.032-0.509-2.083-0.803-3.114-0.161 0-0.322 0.001-0.483 0.001M12.863 13.036c0 1.036 0 2.072 0 3.108 0.173 0 0.345 0 0.518 0 0-0.46 0-0.921 0-1.381 0.201 0 0.402 0 0.604 0 0-0.173 0-0.345 0-0.518-0.202 0-0.403 0-0.604 0 0-0.231 0-0.46 0-0.691 0.345 0 0.691 0 1.036 0 0-0.173 0-0.345 0-0.518-0.518 0-1.036 0-1.554 0M14.763 13.036c0 1.036 0 2.072 0 3.108 0.173 0 0.345 0 0.518 0 0-0.46 0-0.921 0-1.381 0.201 0 0.402 0 0.604 0 0-0.173 0-0.345 0-0.518-0.202 0-0.403 0-0.604 0 0-0.231 0-0.46 0-0.691 0.374 0 0.749 0 1.122 0 0-0.173 0-0.345 0-0.518-0.546 0-1.094 0-1.64 0M16.748 13.036c0 1.036 0 2.072 0 3.108 0.173 0 0.345 0 0.518 0 0-1.036 0-2.072 0-3.108-0.173 0-0.345 0-0.518 0M18.336 13.035c-0.328 0.279-0.574 0.675-0.553 1.12 0.006 0.641-0.109 1.436 0.425 1.904 0.569 0.431 1.435-0.059 1.32-0.776-0.177-0.002-0.355-0.002-0.532-0.002-0.001 0.056-0.003 0.17-0.003 0.226-0.085 0.079-0.168 0.158-0.252 0.237-0.338-0.124-0.458-0.47-0.439-0.805 0.029-0.464-0.105-0.977 0.175-1.387 0.138 0.001 0.277 0.002 0.415 0.003 0.045 0.143 0.090 0.287 0.13 0.432 0.168 0 0.337-0.001 0.506-0.002 0.050-0.396-0.205-0.704-0.482-0.949-0.237 0.001-0.473 0.001-0.71 0M21.583 13.036c0 1.036 0 2.072 0 3.108 0.518 0 1.036 0 1.554 0 0-0.173 0-0.345 0-0.518-0.345 0-0.691 0-1.036 0 0-0.863 0-1.727 0-2.59-0.173 0-0.345 0-0.518 0M23.939 13.029c-0.205 1.046-0.533 2.065-0.739 3.111 0.173 0.002 0.345 0.003 0.519 0.004 0.070-0.288 0.147-0.576 0.218-0.864 0.167-0.001 0.334-0.001 0.502-0.002 0.11 0.282 0.18 0.578 0.267 0.867 0.175-0.002 0.35-0.003 0.525-0.005-0.251-0.995-0.499-1.992-0.746-2.988-0.092-0.206-0.369-0.085-0.546-0.123M25.278 13.038c0.149 1.036 0.363 2.064 0.463 3.106 0.162 0 0.325 0 0.488 0 0.098-0.42 0.158-0.849 0.224-1.275 0.128 0.414 0.224 0.841 0.238 1.275 0.161 0 0.324 0 0.486 0 0.135-1.038 0.389-2.063 0.459-3.107-0.171-0.001-0.342-0.001-0.513-0.001-0.017 0.376-0.117 0.744-0.112 1.122-0.036 0-0.108 0-0.143 0-0.045-0.377-0.102-0.755-0.196-1.123-0.136 0-0.272 0-0.407 0.001-0.071 0.431-0.166 0.859-0.205 1.295h-0.060c-0.039-0.436-0.134-0.864-0.205-1.296-0.173 0.001-0.344 0.002-0.516 0.003M28.437 13.035c-0.231 0.237-0.545 0.497-0.467 0.869 0.071 0.637 0.791 0.778 1.125 1.241-0.001 0.090-0.001 0.18-0.001 0.269-0.111 0.108-0.219 0.216-0.329 0.324-0.109-0.066-0.218-0.13-0.326-0.197 0.003-0.391-0.365-0.374-0.654-0.351 0.098 0.374 0.172 0.86 0.627 0.951 0.653 0.341 1.392-0.437 1.173-1.093-0.123-0.546-0.674-0.798-1.096-1.083 0-0.049 0.001-0.148 0.001-0.197 0.071-0.071 0.142-0.142 0.213-0.212 0.092 0 0.184-0.001 0.276-0.001 0.047 0.116 0.096 0.231 0.143 0.348 0.173-0.002 0.344-0.003 0.517-0.007-0.021-0.351-0.2-0.675-0.503-0.859-0.233 0.001-0.466 0.001-0.699 0M3.54 18.044c0 1.036 0 2.071 0 3.107 0.173 0 0.345 0 0.518 0 0-0.429 0-0.858 0-1.287 0.363 0.009 0.754-0.025 1.057-0.245 0.265-0.394 0.311-0.951-0.001-1.335-0.442-0.376-1.046-0.207-1.574-0.24M5.612 18.043c0 1.036 0 2.072 0 3.108 0.173 0 0.345 0 0.518 0 0-0.46 0-0.921 0-1.381 0.259 0 0.518 0 0.777 0 0 0.46 0 0.921 0 1.381 0.173 0 0.345 0 0.518 0 0-1.036 0-2.072 0-3.108-0.173 0-0.345 0-0.518 0 0 0.403 0 0.805 0 1.209-0.259 0-0.518 0-0.777 0 0-0.403 0-0.805 0-1.209-0.173 0-0.345 0-0.518 0M8.083 18.536c-0.248 0.81-0.262 1.808 0.242 2.531 0.351 0.102 0.799 0.182 1.104-0.069 0.452-0.599 0.325-1.384 0.311-2.083-0.101-0.308-0.176-0.73-0.527-0.843-0.426-0.108-1.022-0.057-1.13 0.464M10.101 18.043c0 0.173 0 0.345 0 0.518 0.173 0 0.345 0 0.518 0 0 0.863 0 1.727 0 2.59 0.173 0 0.345 0 0.518 0 0-0.863 0-1.727 0-2.59 0.173 0 0.345 0 0.518 0 0-0.173 0-0.345 0-0.518-0.518 0-1.036 0-1.554 0M12.458 18.041c-0.454 0.383-0.484 1.010-0.545 1.556 0.060 0.546 0.091 1.172 0.545 1.556 0.271-0.003 0.541-0.002 0.812 0 0.761-0.807 0.761-2.304 0-3.111-0.271 0.002-0.542 0.002-0.812 0M15.799 18.043c0 1.036 0 2.072 0 3.108 0.546 0 1.094 0 1.64 0 0-0.173 0-0.345 0-0.518-0.374 0-0.748 0-1.122 0 0-0.287 0-0.576 0-0.863 0.201 0 0.402 0 0.604 0 0-0.173 0-0.345 0-0.518-0.202 0-0.403 0-0.604 0 0-0.231 0-0.461 0-0.691 0.317 0 0.633 0 0.95 0 0-0.173 0-0.345 0-0.518-0.489 0-0.978 0-1.468 0M17.871 18.043c0 1.036 0 2.072 0 3.108 0.173 0 0.345 0 0.518 0 0.002-0.596-0.003-1.191 0.002-1.787 0.249 0.604 0.573 1.174 0.804 1.788 0.134-0.001 0.269-0.001 0.403-0.001 0-1.036 0-2.072 0-3.108-0.173 0-0.345 0-0.518 0-0.003 0.511 0.004 1.022-0.002 1.532-0.282-0.491-0.458-1.033-0.724-1.532-0.161 0-0.322 0-0.483 0M20.201 18.043c0 1.036 0 2.072 0 3.108 0.173 0 0.345 0 0.518 0 0-0.46 0-0.921 0-1.381 0.201 0 0.402 0 0.604 0 0-0.173 0-0.345 0-0.518-0.202 0-0.403 0-0.604 0 0-0.231 0-0.461 0-0.691 0.345 0 0.691 0 1.036 0 0-0.173 0-0.345 0-0.518-0.518 0-1.036 0-1.554 0M22.558 18.041c-0.313 0.283-0.49 0.699-0.46 1.122 0.034 0.564-0.123 1.184 0.231 1.677 0.168 0.411 0.679 0.299 1.032 0.313 0.18-0.186 0.395-0.364 0.435-0.637 0.196-0.772 0.236-1.692-0.268-2.359-0.281-0.201-0.649-0.087-0.97-0.116M24.432 18.044c0 1.036 0 2.071 0 3.107 0.173 0 0.345 0 0.518 0 0-0.46 0-0.92 0-1.38 0.11-0.001 0.22-0.002 0.331-0.003 0.132 0.459 0.274 0.918 0.383 1.384 0.171-0.001 0.343-0.002 0.515-0.003-0.032-0.514-0.275-0.981-0.377-1.481 0.489-0.235 0.436-0.93 0.243-1.343-0.431-0.425-1.072-0.247-1.613-0.28M26.818 18.352c-0.302 0.479-0.224 1.055-0.231 1.592-0.016 0.46 0.161 0.957 0.565 1.209 0.308-0.019 0.673 0.074 0.924-0.155 0.156-0.204 0.235-0.455 0.268-0.707-0.169-0.003-0.338-0.004-0.506-0.005-0.010 0.306-0.26 0.393-0.524 0.361-0.317-0.501-0.189-1.106-0.204-1.664-0.002-0.235 0.183-0.395 0.368-0.506 0.054 0.028 0.161 0.084 0.214 0.111 0.045 0.106 0.090 0.212 0.135 0.319 0.173-0.002 0.344-0.003 0.517-0.007-0.055-0.331-0.16-0.774-0.546-0.849-0.336-0.028-0.824-0.085-0.981 0.3M28.835 18.043c0 1.036 0 2.072 0 3.108 0.546 0 1.094 0 1.64 0 0-0.173 0-0.345 0-0.518-0.375 0-0.748 0-1.122 0 0-0.287 0-0.576 0-0.863 0.201 0 0.402 0 0.604 0 0-0.173 0-0.345 0-0.518-0.202 0-0.403 0-0.604 0 0-0.231 0-0.461 0-0.691 0.345 0 0.691 0 1.036 0 0-0.173 0-0.345 0-0.518-0.518 0-1.036 0-1.554 0M30.906 18.044c0 1.035 0 2.071 0 3.106 0.345-0.004 0.692 0.019 1.037-0.009 0.506-0.14 0.717-0.718 0.693-1.197-0.011-0.543 0.070-1.163-0.28-1.623-0.354-0.441-0.967-0.233-1.45-0.276z"></path>
<path fill="#fff" d="M17.725 7.196c0.717-0.218 1.445 0.229 1.758 0.866 0.358 0.781-0.12 1.792-0.944 2.029-0.993 0.38-2.147-0.664-1.934-1.689 0.142-0.551 0.539-1.084 1.12-1.205z"></path>
<path fill="#fff" d="M9.065 13.554c0.16 0 0.319 0 0.478 0 0.071 0.071 0.142 0.142 0.212 0.212 0 0.129 0.001 0.258 0.002 0.388-0.224 0.072-0.458 0.098-0.691 0.104-0.001-0.235-0.001-0.47-0.001-0.704z"></path>
<path fill="#fff" d="M11.416 14.443c0.031-0.036 0.093-0.108 0.125-0.143 0.030 0.184 0.069 0.368 0.118 0.549-0.111 0-0.221 0.001-0.331 0.002 0.035-0.135 0.064-0.27 0.087-0.407z"></path>
<path fill="#fff" d="M24.057 14.843c0.036-0.196 0.089-0.388 0.153-0.576 0.044 0.195 0.089 0.391 0.143 0.584-0.074-0.002-0.222-0.006-0.296-0.008z"></path>
<path fill="#fff" d="M8.846 18.496c0.066 0.029 0.131 0.058 0.198 0.086 0.298 0.615 0.298 1.416 0 2.031-0.066 0.029-0.132 0.057-0.198 0.086-0.049-0.022-0.146-0.066-0.194-0.089-0.295-0.614-0.295-1.412 0-2.025 0.048-0.022 0.146-0.066 0.194-0.089z"></path>
<path fill="#fff" d="M12.691 20.637c-0.338-0.655-0.471-1.74 0.237-2.182 0.488 0.54 0.414 1.319 0.267 1.976-0.066 0.067-0.131 0.134-0.197 0.202-0.103 0.001-0.205 0.002-0.307 0.003z"></path>
<path fill="#fff" d="M22.784 20.635c-0.258-0.673-0.481-1.721 0.234-2.175 0.55 0.545 0.521 1.562 0.108 2.177-0.114-0.002-0.228-0.003-0.342-0.003z"></path>
<path fill="#fff" d="M4.058 18.547c0.224 0.009 0.448 0.029 0.662 0.097 0.035 0.085 0.071 0.168 0.108 0.253-0.039 0.117-0.074 0.237-0.107 0.357-0.214 0.069-0.439 0.089-0.663 0.098-0.001-0.269-0.001-0.537 0-0.805z"></path>
<path fill="#fff" d="M24.951 18.547c0.233 0.007 0.467 0.033 0.691 0.104-0.001 0.169-0.001 0.339 0 0.509-0.224 0.072-0.458 0.098-0.691 0.104-0.001-0.239-0.001-0.479 0-0.718z"></path>
<path fill="#fff" d="M31.424 18.563c0.139-0.002 0.278-0.003 0.418-0.005 0.412 0.389 0.245 0.978 0.274 1.479 0.025 0.237-0.145 0.422-0.274 0.6-0.14-0.003-0.279-0.004-0.418-0.005 0-0.69 0-1.379 0-2.069z"></path>
</svg>
