<!-- Generated by IcoMoon.io -->
<svg version="1.1" xmlns="http://www.w3.org/2000/svg" width="13" height="24" viewBox="0 0 13 24">
<title>complementary--including-bicycles-and-motorcycles--g1</title>
<path fill="#fff" d="M1.032 0.125c0.178-0.081 0.376-0.091 0.568-0.096 3.334 0.001 6.667 0.001 10.001 0 0.837-0.037 1.608 0.733 1.571 1.572 0.002 6.932 0.002 13.865 0 20.798 0.036 0.838-0.733 1.61-1.572 1.571-3.333 0-6.667 0-10 0-0.839 0.040-1.605-0.735-1.572-1.571-0.001-6.933-0.001-13.866 0-20.798-0.028-0.644 0.42-1.24 1.004-1.476M1.327 0.436c-0.567 0.117-0.966 0.685-0.927 1.256-0.001 6.872-0.001 13.744 0 20.616-0.053 0.667 0.515 1.302 1.191 1.287 3.339 0.008 6.679 0.008 10.018 0 0.678 0.017 1.243-0.621 1.191-1.288 0.001-6.871 0.001-13.743 0-20.615 0.059-0.71-0.579-1.355-1.292-1.292-3.393 0.023-6.791-0.048-10.181 0.036z"></path>
<path fill="#fff" d="M1.425 1.030c3.357-0.069 6.724-0.011 10.085-0.029 0.392-0.051 0.74 0.297 0.689 0.689 0.002 6.873 0.002 13.747 0 20.62 0.051 0.392-0.298 0.739-0.689 0.689-3.273 0.002-6.547 0.002-9.82 0-0.391 0.050-0.74-0.298-0.689-0.689-0.001-6.874-0.001-13.747 0-20.62-0.024-0.283 0.134-0.59 0.424-0.66M8.921 3.36c0 0.933 0 1.867 0 2.8 0.133 0 0.267 0 0.4 0.001 0.012-0.444-0.028-0.891 0.021-1.333 0.073-0.371 0.667-0.39 0.753-0.016 0.060 0.446 0.014 0.899 0.026 1.348 0.133 0 0.266 0 0.399 0-0.026-0.539 0.068-1.095-0.060-1.624-0.187-0.464-0.797-0.49-1.147-0.195 0.010-0.327 0.010-0.654 0.008-0.981-0.133 0-0.267 0-0.4 0M2.759 4.379c0.087 0.073 0.173 0.147 0.26 0.22 0.266-0.063 0.539-0.082 0.81-0.045 0.026 0.132 0.049 0.265 0.068 0.398-0.29 0.017-0.593-0.029-0.873 0.065-0.358 0.151-0.46 0.669-0.189 0.946 0.253 0.277 0.671 0.218 0.991 0.111 0.146 0.046 0.295 0.084 0.443 0.122-0.003-0.549 0.057-1.108-0.031-1.652-0.237-0.573-1.070-0.516-1.479-0.165M7.57 4.175c-0.842 0.235-0.879 1.628-0.080 1.941 0.362 0.168 0.752-0.002 1.046-0.226-0.091-0.087-0.182-0.174-0.272-0.261-0.149 0.059-0.293 0.139-0.454 0.155-0.632-0.021-0.672-1.125-0.075-1.24 0.189-0.028 0.359 0.085 0.531 0.144 0.090-0.088 0.179-0.177 0.269-0.265-0.278-0.193-0.62-0.371-0.965-0.248M4.87 5.733c0.14 0.456 0.71 0.55 1.080 0.316 0.154 0.058 0.313 0.107 0.473 0.15 0.013-0.679 0.003-1.358 0.006-2.036-0.099-0.002-0.299-0.004-0.399-0.006-0.012 0.445 0.028 0.893-0.023 1.336-0.073 0.355-0.623 0.387-0.745 0.049-0.076-0.455-0.016-0.921-0.032-1.38-0.1-0.001-0.299-0.003-0.399-0.005 0.018 0.525-0.052 1.058 0.039 1.576M4.733 8.53c-0.222 0.561-0.366 1.15-0.549 1.725-0.776-0.122-1.617 0.266-1.93 1.005-0.438 0.89 0.087 2.067 1.033 2.35 0.912 0.332 2.008-0.271 2.219-1.216 0.232-0.818-0.249-1.689-0.998-2.041 0.046-0.14 0.091-0.281 0.137-0.421 0.653 0.722 1.304 1.447 1.955 2.17 0.245 0.335 0.702 0.18 1.054 0.21 0.203 0.888 1.12 1.552 2.032 1.356 1.036-0.158 1.711-1.373 1.292-2.336-0.31-0.851-1.306-1.271-2.157-1.034-0.161-0.367-0.326-0.733-0.489-1.099 0.042-0.114 0.084-0.229 0.125-0.343 0.131-0.002 0.262-0.004 0.393-0.005 0-0.086 0-0.258 0-0.344-0.543 0.010-1.088-0.033-1.628 0.039 0.244 0.202 0.57 0.23 0.866 0.306-0.041 0.115-0.081 0.229-0.121 0.344-1.035 0.007-2.070 0.005-3.105 0.001 0.033-0.585 0.51-0.813 1.046-0.695 0-0.086 0-0.259-0.001-0.345-0.406 0.005-0.967-0.078-1.174 0.373M4.704 15.999c-0.252 0.476-0.412 0.995-0.622 1.49-0.665-0.118-1.406 0.139-1.752 0.743-0.494 0.76-0.149 1.894 0.682 2.256 0.805 0.407 1.89-0.045 2.171-0.902 0.275-0.714-0.078-1.526-0.695-1.935 0.073-0.18 0.146-0.359 0.22-0.539 0.448 0.614 0.843 1.268 1.322 1.858 0.481 0.548 1.265 0.432 1.916 0.434 0.175 0.584 0.639 1.095 1.257 1.202 0.884 0.207 1.828-0.505 1.889-1.406 0.107-0.898-0.685-1.772-1.592-1.736-0.804-0.015-1.484 0.66-1.588 1.437-0.429 0-0.878 0.127-1.295 0-0.398-0.19-0.232-0.656-0.211-0.993-0.141-0.313-0.364-0.581-0.561-0.859-0.224-0.343-0.699-0.153-1.035-0.206 0.093-0.218 0.166-0.447 0.294-0.648 0.281-0.1 0.587-0.043 0.878-0.057 0-0.146 0-0.293 0.001-0.439-0.428 0.027-1-0.126-1.279 0.3M7.711 16.999c0.184 0.281 0.509 0.413 0.777 0.597 0.675-0.437 1.501-0.285 2.259-0.309 0-0.147 0-0.293 0-0.44-0.817-0.002-1.634 0.002-2.45-0.003-0.202 0.012-0.457-0.048-0.586 0.155z"></path>
<path fill="#fff" d="M3.047 5.499c0.129-0.346 0.581-0.171 0.861-0.213 0.156 0.559-0.791 0.729-0.861 0.213z"></path>
<path fill="#fff" d="M4.765 9.548c1.022-0.002 2.043-0.001 3.064-0.001-0.299 0.801-0.598 1.601-0.9 2.4-0.723-0.798-1.441-1.6-2.164-2.399z"></path>
<path fill="#fff" d="M8.158 9.663c0.117 0.259 0.234 0.52 0.351 0.78-0.521 0.337-0.853 0.903-0.889 1.524-0.109 0-0.217 0-0.325 0.001 0.284-0.77 0.574-1.537 0.863-2.305z"></path>
<path fill="#fff" d="M2.488 12.291c-0.262-0.938 0.645-1.861 1.589-1.709-0.132 0.477-0.318 0.939-0.418 1.424 0.076 0.165 0.176 0.187 0.298 0.066 0.194-0.444 0.291-0.924 0.453-1.38 0.851 0.4 1.090 1.652 0.364 2.283-0.709 0.729-2.093 0.314-2.286-0.684z"></path>
<path fill="#fff" d="M8.971 10.619c0.67-0.153 1.435 0.171 1.68 0.836 0.343 0.777-0.211 1.761-1.051 1.873-0.703 0.143-1.374-0.355-1.592-1.008 0.551-0.028 1.109 0.045 1.654-0.070-0.188-0.561-0.468-1.084-0.691-1.631z"></path>
<path fill="#fff" d="M7.962 11.963c0.043-0.483 0.292-0.915 0.682-1.201 0.188 0.398 0.364 0.802 0.544 1.204-0.409 0.001-0.817 0.003-1.226-0.003z"></path>
<path fill="#fff" d="M2.554 19.2c-0.127-0.766 0.614-1.395 1.349-1.309-0.143 0.419-0.33 0.823-0.466 1.245 0.614 0.417 0.631-0.725 0.891-1.066 0.614 0.447 0.691 1.457 0.038 1.902-0.651 0.527-1.741 0.062-1.812-0.772z"></path>
<path fill="#fff" d="M8.353 18.869c0.152-0.736 1.026-1.22 1.702-0.825 0.758 0.366 0.797 1.562 0.064 1.976-0.616 0.415-1.457 0.055-1.724-0.602 0.49-0.020 0.98-0.010 1.47-0.011 0-0.207 0-0.414 0-0.62-0.504 0.028-1.007 0.064-1.512 0.082z"></path>
<path fill="#000" d="M1.327 0.436c3.39-0.084 6.788-0.013 10.181-0.036 0.713-0.063 1.351 0.582 1.292 1.292 0.001 6.872 0.001 13.744 0 20.615 0.052 0.667-0.513 1.305-1.191 1.288-3.339 0.008-6.679 0.008-10.018 0-0.676 0.015-1.244-0.62-1.191-1.287-0.001-6.872-0.001-13.744 0-20.616-0.039-0.571 0.36-1.139 0.927-1.256M1.425 1.030c-0.29 0.070-0.448 0.377-0.424 0.66-0.001 6.873-0.001 13.746 0 20.62-0.051 0.391 0.298 0.739 0.689 0.689 3.273 0.002 6.547 0.002 9.82 0 0.391 0.050 0.74-0.297 0.689-0.689 0.002-6.873 0.002-13.747 0-20.62 0.051-0.392-0.297-0.74-0.689-0.689-3.361 0.018-6.728-0.040-10.085 0.029z"></path>
<path fill="#000" d="M8.921 3.36c0.133 0 0.267 0 0.4 0 0.002 0.327 0.002 0.654-0.008 0.981 0.35-0.295 0.96-0.269 1.147 0.195 0.128 0.529 0.034 1.085 0.060 1.624-0.133 0-0.266 0-0.399 0-0.012-0.449 0.034-0.902-0.026-1.348-0.086-0.374-0.68-0.355-0.753 0.016-0.049 0.442-0.009 0.889-0.021 1.333-0.133-0.001-0.267-0.001-0.4-0.001 0-0.933 0-1.867 0-2.8z"></path>
<path fill="#000" d="M2.759 4.379c0.409-0.351 1.242-0.408 1.479 0.165 0.088 0.544 0.028 1.103 0.031 1.652-0.148-0.038-0.297-0.076-0.443-0.122-0.32 0.107-0.738 0.166-0.991-0.111-0.271-0.277-0.169-0.795 0.189-0.946 0.28-0.094 0.583-0.048 0.873-0.065-0.019-0.133-0.042-0.266-0.068-0.398-0.271-0.037-0.544-0.018-0.81 0.045-0.087-0.073-0.173-0.147-0.26-0.22M3.047 5.499c0.070 0.516 1.017 0.346 0.861-0.213-0.28 0.042-0.732-0.133-0.861 0.213z"></path>
<path fill="#000" d="M7.57 4.175c0.345-0.123 0.687 0.055 0.965 0.248-0.090 0.088-0.179 0.177-0.269 0.265-0.172-0.059-0.342-0.172-0.531-0.144-0.597 0.115-0.557 1.219 0.075 1.24 0.161-0.016 0.305-0.096 0.454-0.155 0.090 0.087 0.181 0.174 0.272 0.261-0.294 0.224-0.684 0.394-1.046 0.226-0.799-0.313-0.762-1.706 0.080-1.941z"></path>
<path fill="#000" d="M4.87 5.733c-0.091-0.518-0.021-1.051-0.039-1.576 0.1 0.002 0.299 0.004 0.399 0.005 0.016 0.459-0.044 0.925 0.032 1.38 0.122 0.338 0.672 0.306 0.745-0.049 0.051-0.443 0.011-0.891 0.023-1.336 0.1 0.002 0.3 0.004 0.399 0.006-0.003 0.678 0.007 1.357-0.006 2.036-0.16-0.043-0.319-0.092-0.473-0.15-0.37 0.234-0.94 0.14-1.080-0.316z"></path>
<path fill="#000" d="M4.733 8.53c0.207-0.451 0.768-0.368 1.174-0.373 0.001 0.086 0.001 0.259 0.001 0.345-0.536-0.118-1.013 0.11-1.046 0.695 1.035 0.004 2.070 0.006 3.105-0.001 0.040-0.115 0.080-0.229 0.121-0.344-0.296-0.076-0.622-0.104-0.866-0.306 0.54-0.072 1.085-0.029 1.628-0.039 0 0.086 0 0.258 0 0.344-0.131 0.001-0.262 0.003-0.393 0.005-0.041 0.114-0.083 0.229-0.125 0.343 0.163 0.366 0.328 0.732 0.489 1.099 0.851-0.237 1.847 0.183 2.157 1.034 0.419 0.963-0.256 2.178-1.292 2.336-0.912 0.196-1.829-0.468-2.032-1.356-0.352-0.030-0.809 0.125-1.054-0.21-0.651-0.723-1.302-1.448-1.955-2.17-0.046 0.14-0.091 0.281-0.137 0.421 0.749 0.352 1.23 1.223 0.998 2.041-0.211 0.945-1.307 1.548-2.219 1.216-0.946-0.283-1.471-1.46-1.033-2.35 0.313-0.739 1.154-1.127 1.93-1.005 0.183-0.575 0.327-1.164 0.549-1.725M4.765 9.548c0.723 0.799 1.441 1.601 2.164 2.399 0.302-0.799 0.601-1.599 0.9-2.4-1.021 0-2.042-0.001-3.064 0.001M8.158 9.663c-0.289 0.768-0.579 1.535-0.863 2.305 0.108-0.001 0.216-0.001 0.325-0.001 0.036-0.621 0.368-1.187 0.889-1.524-0.117-0.26-0.234-0.521-0.351-0.78M2.488 12.291c0.193 0.998 1.577 1.413 2.286 0.684 0.726-0.631 0.487-1.883-0.364-2.283-0.162 0.456-0.259 0.936-0.453 1.38-0.122 0.121-0.222 0.099-0.298-0.066 0.1-0.485 0.286-0.947 0.418-1.424-0.944-0.152-1.851 0.771-1.589 1.709M8.971 10.619c0.223 0.547 0.503 1.070 0.691 1.631-0.545 0.115-1.103 0.042-1.654 0.070 0.218 0.653 0.889 1.151 1.592 1.008 0.84-0.112 1.394-1.096 1.051-1.873-0.245-0.665-1.010-0.989-1.68-0.836M7.962 11.963c0.409 0.006 0.817 0.004 1.226 0.003-0.18-0.402-0.356-0.806-0.544-1.204-0.39 0.286-0.639 0.718-0.682 1.201z"></path>
<path fill="#000" d="M4.704 15.999c0.279-0.426 0.851-0.273 1.279-0.3-0.001 0.146-0.001 0.293-0.001 0.439-0.291 0.014-0.597-0.043-0.878 0.057-0.128 0.201-0.201 0.43-0.294 0.648 0.336 0.053 0.811-0.137 1.035 0.206 0.197 0.278 0.42 0.546 0.561 0.859-0.021 0.337-0.187 0.803 0.211 0.993 0.417 0.127 0.866 0 1.295 0 0.104-0.777 0.784-1.452 1.588-1.437 0.907-0.036 1.699 0.838 1.592 1.736-0.061 0.901-1.005 1.613-1.889 1.406-0.618-0.107-1.082-0.618-1.257-1.202-0.651-0.002-1.435 0.114-1.916-0.434-0.479-0.59-0.874-1.244-1.322-1.858-0.074 0.18-0.147 0.359-0.22 0.539 0.617 0.409 0.97 1.221 0.695 1.935-0.281 0.857-1.366 1.309-2.171 0.902-0.831-0.362-1.176-1.496-0.682-2.256 0.346-0.604 1.087-0.861 1.752-0.743 0.21-0.495 0.37-1.014 0.622-1.49M2.554 19.2c0.071 0.834 1.161 1.299 1.812 0.772 0.653-0.445 0.576-1.455-0.038-1.902-0.26 0.341-0.277 1.483-0.891 1.066 0.136-0.422 0.323-0.826 0.466-1.245-0.735-0.086-1.476 0.543-1.349 1.309M8.353 18.869c0.505-0.018 1.008-0.054 1.512-0.082 0 0.206 0 0.413 0 0.62-0.49 0.001-0.98-0.009-1.47 0.011 0.267 0.657 1.108 1.017 1.724 0.602 0.733-0.414 0.694-1.61-0.064-1.976-0.676-0.395-1.55 0.089-1.702 0.825z"></path>
<path fill="#000" d="M7.711 16.999c0.129-0.203 0.384-0.143 0.586-0.155 0.816 0.005 1.633 0.001 2.45 0.003 0 0.147 0 0.293 0 0.44-0.758 0.024-1.584-0.128-2.259 0.309-0.268-0.184-0.593-0.316-0.777-0.597z"></path>
</svg>
