<!-- Generated by IcoMoon.io -->
<svg version="1.1" xmlns="http://www.w3.org/2000/svg" width="48" height="24" viewBox="0 0 48 24">
<title>complementary--both-directions--g1</title>
<path fill="#edae15" d="M1.492 0h44.607c0.703 0.24 1.212 0.806 1.426 1.514v20.645c-0.185 1.005-1.095 1.687-2.108 1.602-14.433 0-28.869 0.014-43.302-0.007-1.041 0.062-2.039-0.784-1.939-1.868-0.014-6.668-0.014-13.34 0-20.008-0.086-0.882 0.563-1.549 1.316-1.877M1.728 0.561c-0.798 0.173-1.148 1.057-1.076 1.801 0.012 6.425-0.010 12.853 0.010 19.278-0.067 0.817 0.625 1.644 1.471 1.585 14.424 0.010 28.85 0 43.274 0.005 0.891 0.109 1.663-0.73 1.602-1.597 0.010-6.501 0.012-13.003-0.002-19.502 0.069-0.986-0.863-1.823-1.834-1.663-14.478 0.074-28.973-0.109-43.442 0.093z"></path>
<path fill="#edae15" d="M1.725 1.428c0.675-0.19 1.385-0.112 2.077-0.124 13.863 0.021 27.728-0.019 41.591 0.019 0.632-0.086 0.886 0.506 0.817 1.043-0.010 6.421 0.019 12.844-0.014 19.262 0.102 0.637-0.509 0.879-1.038 0.825-14.184 0.002-28.37-0.002-42.556 0.002-0.523 0.069-1.229-0.19-1.133-0.829-0.026-6.342 0.005-12.687-0.017-19.029 0.029-0.397-0.052-0.867 0.273-1.169M16.087 3.705c-3.966 2.688-7.891 5.444-11.829 8.177 3.888 2.771 7.749 5.579 11.672 8.298 0.943 0.81 2.602 0.128 2.512-1.16-0.195-1.331-0.784-2.564-1.117-3.861 4.479-0.012 8.961-0.017 13.442 0.002-0.33 1.371-1.031 2.666-1.114 4.085 0.109 1.245 1.72 1.659 2.595 0.882 3.883-2.718 7.73-5.489 11.584-8.246-3.8-2.654-7.621-5.282-11.425-7.93-0.718-0.539-1.965-0.924-2.573-0.026-0.946 1.535 0.637 3.156 0.958 4.679-4.496 0.014-8.992 0.014-13.488 0 0.392-1.293 1.181-2.488 1.295-3.847-0.057-1.255-1.571-1.758-2.512-1.053z"></path>
<path fill="#231f20" d="M1.728 0.561c14.469-0.202 28.964-0.019 43.442-0.093 0.972-0.159 1.903 0.677 1.834 1.663 0.014 6.499 0.012 13 0.002 19.502 0.062 0.867-0.71 1.706-1.602 1.597-14.424-0.005-28.85 0.005-43.274-0.005-0.846 0.059-1.537-0.768-1.471-1.585-0.019-6.425 0.002-12.853-0.010-19.278-0.071-0.744 0.278-1.628 1.076-1.801M1.725 1.428c-0.326 0.302-0.245 0.772-0.273 1.169 0.021 6.342-0.010 12.687 0.017 19.029-0.095 0.639 0.611 0.898 1.133 0.829 14.186-0.005 28.372 0 42.556-0.002 0.53 0.055 1.141-0.188 1.038-0.825 0.033-6.418 0.005-12.841 0.014-19.262 0.069-0.537-0.185-1.129-0.817-1.043-13.863-0.038-27.728 0.002-41.591-0.019-0.691 0.012-1.402-0.067-2.077 0.124z"></path>
<path fill="#231f20" d="M16.087 3.705c0.941-0.706 2.455-0.202 2.512 1.053-0.114 1.359-0.903 2.554-1.295 3.847 4.496 0.014 8.992 0.014 13.488 0-0.321-1.523-1.903-3.144-0.958-4.679 0.608-0.898 1.856-0.513 2.573 0.026 3.804 2.647 7.625 5.275 11.425 7.93-3.854 2.756-7.701 5.527-11.584 8.246-0.874 0.777-2.486 0.364-2.595-0.882 0.083-1.419 0.784-2.714 1.114-4.085-4.482-0.019-8.963-0.014-13.442-0.002 0.333 1.297 0.922 2.531 1.117 3.861 0.090 1.288-1.568 1.97-2.512 1.16-3.923-2.718-7.785-5.527-11.672-8.298 3.937-2.733 7.863-5.489 11.829-8.177z"></path>
</svg>
