<!-- Generated by IcoMoon.io -->
<svg version="1.1" xmlns="http://www.w3.org/2000/svg" width="18" height="24" viewBox="0 0 18 24">
<title>complementary--chevron-left--g2</title>
<path fill="#f3fbff" d="M1.333 0h15.107c0.335 0.138 0.667 0.286 0.989 0.453 0.143 0.181 0.267 0.378 0.394 0.571v21.437c-0.135 0.34-0.281 0.675-0.441 1.003-0.027 0.027-0.081 0.081-0.108 0.109-0.302 0.157-0.611 0.299-0.926 0.425h-15.154c-0.073-0.020-0.22-0.059-0.293-0.079-0.285-0.227-0.571-0.453-0.852-0.686l-0.051-0.115v-21.503c0.035-0.793 0.553-1.447 1.333-1.617M0.521 1.955c-0.048 6.696-0.052 13.395-0.072 20.093-0.031 0.807 0.71 1.527 1.519 1.464 4.584 0.025 9.166-0.014 13.75-0.004 0.942 0.073 1.618-0.872 1.579-1.747 0.018-6.422 0.029-12.848 0.066-19.27 0.163-0.932-0.47-2.031-1.503-1.985-4.233-0.006-8.467 0.022-12.699 0.045-1.061-0.225-2.536 0.118-2.64 1.405z"></path>
<path fill="#939799" opacity="0.89" d="M16.441 0h0.611c0.131 0.147 0.257 0.299 0.379 0.453-0.323-0.167-0.654-0.316-0.989-0.453z"></path>
<path fill="#223eae" d="M0.521 1.955c0.104-1.287 1.579-1.629 2.64-1.405 1.9 0.546 3.987-0.233 5.822 0.578-2.702 3.579-5.185 7.318-7.855 10.921 2.643 3.573 5.105 7.274 7.709 10.874 2.584-0.001 5.168-0.006 7.752-0.020-2.581-3.608-5.137-7.239-7.715-10.851 2.211-3.112 4.366-6.262 6.661-9.312 0.591-0.185 1.211-0.243 1.829-0.251-0.036 6.422-0.048 12.848-0.066 19.27 0.039 0.876-0.637 1.82-1.579 1.747-4.584-0.010-9.166 0.029-13.75 0.004-0.808 0.063-1.549-0.657-1.519-1.464 0.020-6.698 0.024-13.396 0.072-20.093z"></path>
<path fill="#3349ac" d="M3.161 0.55c4.232-0.022 8.466-0.051 12.699-0.045 1.033-0.046 1.666 1.053 1.503 1.985-0.618 0.008-1.238 0.066-1.829 0.251 0.39-0.522 0.766-1.054 1.147-1.583-2.566-0.025-5.135 0.069-7.698-0.029-1.834-0.811-3.921-0.032-5.822-0.578z"></path>
<path fill="#fff" d="M1.127 12.049c2.671-3.603 5.154-7.342 7.855-10.921 2.563 0.098 5.133 0.004 7.698 0.029-0.38 0.529-0.756 1.061-1.147 1.583-2.295 3.050-4.451 6.201-6.661 9.312 2.578 3.611 5.134 7.242 7.715 10.851-2.584 0.014-5.168 0.018-7.752 0.020-2.605-3.6-5.067-7.301-7.709-10.874z"></path>
<path fill="#808487" opacity="0.89" d="M17.384 23.465c0.16-0.328 0.306-0.664 0.441-1.003v0.609c-0.145 0.133-0.295 0.261-0.441 0.394z"></path>
<path fill="#90929a" opacity="0.9" d="M0.051 23.235c0.281 0.233 0.567 0.459 0.852 0.686-0.394-0.062-0.761-0.268-0.852-0.686z"></path>
<path fill="#9696a4" opacity="0.89" d="M16.349 24c0.316-0.126 0.625-0.268 0.926-0.425-0.131 0.14-0.257 0.285-0.389 0.425h-0.538z"></path>
</svg>
