<!-- Generated by IcoMoon.io -->
<svg version="1.1" xmlns="http://www.w3.org/2000/svg" width="11" height="24" viewBox="0 0 11 24">
<title>complementary--two-way-traffic--g4</title>
<path fill="#030303" d="M1.121 0h9.087c0.467 0.155 0.902 0.431 1.183 0.842v22.214c-0.453 0.743-1.358 0.939-2.165 0.944h-7.174c-0.764-0.003-1.581-0.211-2.051-0.864v-22.391c0.289-0.355 0.697-0.588 1.121-0.746M1.548 0.582c-0.552 0.059-1.176 0.447-1.185 1.057-0.004 6.866-0.002 13.731-0.004 20.596-0.010 0.691 0.732 1.103 1.347 1.111 2.639 0.005 5.278 0.005 7.916 0 0.618-0.004 1.36-0.421 1.35-1.111 0.001-6.865 0.004-13.729 0.002-20.594-0.022-0.695-0.784-1.081-1.407-1.075-2.673 0.007-5.348-0.024-8.020 0.016z"></path>
<path fill="#030303" d="M5.693 2.669c1.138 1.768 2.215 3.58 3.221 5.426-0.691 0.050-1.384 0.019-2.075 0.028-0.001 2.759-0.001 5.519 0 8.279 0.69 0.005 1.382-0.013 2.070 0.037-1.027 1.843-2.082 3.672-3.177 5.476-0.308-0.294-0.499-0.68-0.713-1.042-0.845-1.479-1.721-2.94-2.539-4.434 0.688-0.049 1.38-0.032 2.070-0.037 0.001-2.759 0.001-5.519 0-8.279-0.692-0.007-1.385 0.019-2.075-0.032 1-1.848 2.085-3.653 3.219-5.422z"></path>
<path fill="#fff" d="M1.548 0.582c2.672-0.040 5.347-0.009 8.020-0.016 0.623-0.006 1.385 0.38 1.407 1.075 0.002 6.865-0.001 13.729-0.002 20.594 0.009 0.69-0.732 1.107-1.35 1.111-2.638 0.005-5.277 0.005-7.916 0-0.616-0.009-1.358-0.42-1.347-1.111 0.001-6.865 0-13.731 0.004-20.596 0.010-0.611 0.633-0.998 1.185-1.057M5.693 2.669c-1.134 1.769-2.218 3.574-3.219 5.422 0.69 0.051 1.383 0.025 2.075 0.032 0.001 2.76 0.001 5.519 0 8.279-0.69 0.005-1.382-0.012-2.070 0.037 0.817 1.494 1.694 2.955 2.539 4.434 0.214 0.362 0.404 0.749 0.713 1.042 1.095-1.804 2.15-3.633 3.177-5.476-0.688-0.049-1.38-0.031-2.070-0.037-0.001-2.76-0.001-5.519 0-8.279 0.691-0.009 1.385 0.022 2.075-0.028-1.006-1.846-2.083-3.658-3.221-5.426z"></path>
</svg>
