<!-- Generated by IcoMoon.io -->
<svg version="1.1" xmlns="http://www.w3.org/2000/svg" width="44" height="24" viewBox="0 0 44 24">
<title>complementary--roundabout-go-right--g1</title>
<path fill="#fff" d="M1.955 0.199c0.374-0.153 0.784-0.151 1.181-0.154 12.544 0.004 25.088-0.003 37.634 0.004 1.497-0.041 2.858 1.32 2.816 2.817 0.003 6.090 0.003 12.179 0 18.267 0.041 1.497-1.32 2.857-2.817 2.817-12.634 0.004-25.268 0.004-37.902 0-1.495 0.040-2.86-1.319-2.817-2.816-0.001-6.090-0.001-12.179 0-18.269-0.030-1.18 0.805-2.287 1.906-2.667M2.513 0.765c-1.040 0.169-1.842 1.177-1.786 2.227 0.003 6.052-0.005 12.104 0.004 18.155-0.005 1.175 1.095 2.189 2.261 2.126 12.551 0 25.102 0 37.653 0 1.17 0.065 2.264-0.95 2.26-2.126 0.008-6.098 0.008-12.196 0-18.295 0-1.173-1.088-2.194-2.26-2.126-12.71 0.026-25.425-0.050-38.131 0.038z"></path>
<path fill="#fff" d="M2.645 1.855c12.616-0.086 25.242-0.011 37.861-0.038 0.685-0.104 1.373 0.465 1.31 1.174 0.001 6.007 0.001 12.012 0 18.019 0.055 0.644-0.528 1.226-1.171 1.171-12.552 0.001-25.105 0.001-37.655 0-0.644 0.055-1.229-0.526-1.171-1.171-0.001-6.007-0.001-12.012 0-18.019-0.035-0.513 0.319-1.025 0.826-1.136M24.198 3.794c1.058 1.1 2.185 2.137 3.195 3.281-2.356 0.059-4.714 0.046-7.070 0.035-0.158-0.86-0.183-1.825-0.558-2.665-0.545 0.194-1.092 0.385-1.638 0.574 0.622 1.589 0.492 3.46-0.412 4.916-0.968 1.63-2.817 2.656-4.707 2.662-0.004 2.532 0.001 5.066-0.004 7.598 0.603 0.018 1.205 0.033 1.807-0.008-0.016-2.020 0.007-4.040-0.012-6.061 2.495-0.655 4.571-2.677 5.221-5.183 2.461-0.026 4.924-0.026 7.385 0.001-1.004 1.128-2.114 2.157-3.161 3.244 0.734 0.005 1.467 0.004 2.202 0.001 1.395-1.394 2.789-2.787 4.182-4.184-1.396-1.406-2.804-2.802-4.197-4.21-0.745-0.011-1.489-0.007-2.234-0.003z"></path>
<path fill="#000" d="M2.513 0.765c12.706-0.089 25.421-0.012 38.131-0.038 1.171-0.068 2.26 0.953 2.26 2.126 0.008 6.098 0.008 12.196 0 18.295 0.004 1.175-1.090 2.191-2.26 2.126-12.551 0-25.102 0-37.653 0-1.166 0.063-2.266-0.95-2.261-2.126-0.010-6.052-0.001-12.104-0.004-18.155-0.056-1.050 0.746-2.058 1.786-2.227M2.645 1.855c-0.507 0.11-0.862 0.623-0.826 1.136-0.001 6.007-0.001 12.012 0 18.019-0.057 0.645 0.528 1.226 1.171 1.171 12.551 0.001 25.103 0.001 37.655 0 0.644 0.055 1.226-0.528 1.171-1.171 0.001-6.007 0.001-12.012 0-18.019 0.063-0.709-0.626-1.278-1.31-1.174-12.619 0.027-25.245-0.048-37.861 0.038z"></path>
<path fill="#000" d="M24.198 3.794c0.745-0.004 1.489-0.008 2.234 0.003 1.394 1.407 2.801 2.804 4.197 4.21-1.394 1.396-2.787 2.79-4.182 4.184-0.735 0.003-1.469 0.004-2.202-0.001 1.047-1.087 2.157-2.116 3.161-3.244-2.461-0.027-4.924-0.027-7.385-0.001-0.65 2.506-2.726 4.529-5.221 5.183 0.019 2.021-0.004 4.042 0.012 6.061-0.601 0.041-1.204 0.026-1.807 0.008 0.005-2.532 0-5.066 0.004-7.598 1.89-0.005 3.739-1.032 4.707-2.662 0.904-1.456 1.034-3.327 0.412-4.916 0.545-0.19 1.092-0.38 1.638-0.574 0.375 0.84 0.4 1.804 0.558 2.665 2.356 0.011 4.714 0.023 7.070-0.035-1.010-1.144-2.137-2.18-3.195-3.281z"></path>
</svg>
