<!-- Generated by IcoMoon.io -->
<svg version="1.1" xmlns="http://www.w3.org/2000/svg" width="24" height="24" viewBox="0 0 24 24">
<title>complementary--vehicles-or-buses--g1</title>
<path fill="#181818" opacity="0.75" d="M2.254 0h18.611l0.194 0.138c-5.86 0.029-11.718-0.008-17.578-0.030-0.576-0.013-1.154 0.030-1.714 0.176 0.162-0.095 0.323-0.193 0.486-0.284z"></path>
<path fill="#fff" d="M1.768 0.284c0.559-0.146 1.138-0.19 1.714-0.176 5.86 0.022 11.718 0.059 17.578 0.030 1.23 0.092 2.322 0.946 2.686 2.129-0.049 0.188-0.012 0.391 0.136 0.527 0.092 5.986 0.010 11.977 0.042 17.965 0.041 0.878-0.19 1.772-0.731 2.474-0.197 0.022-0.362 0.143-0.437 0.328-0.482 0.19-0.985 0.367-1.511 0.359-6.163-0.002-12.326 0-18.49-0.001-1.114 0.010-2.125-0.754-2.483-1.798-0.221-0.878-0.139-1.787-0.151-2.682-0.001-5.36 0.001-10.721-0.001-16.081-0.007-0.588 0.126-1.164 0.271-1.729 0.059-0.126 0.119-0.252 0.178-0.378 0.175-0.079 0.298-0.235 0.331-0.425 0.006-0.018 0.020-0.053 0.026-0.071 0.202 0.037 0.346-0.144 0.437-0.296 0.136-0.056 0.271-0.115 0.406-0.174M2.558 1.010c-1.19 0.278-1.69 1.6-1.61 2.711 0.010 5.681-0.011 11.362 0.011 17.042-0.060 1.141 0.817 2.317 2.030 2.244 6.126 0.010 12.252 0.036 18.377 0.014 1.104-0.011 1.741-1.148 1.709-2.147 0.023-5.758 0.008-11.515 0.007-17.272 0.007-1.238-0.852-2.651-2.203-2.676-5.719-0.012-11.44-0.012-17.16-0.026-0.389-0.002-0.784 0.001-1.16 0.109z"></path>
<path fill="#fff" d="M2.934 1.526c5.9-0.090 11.809 0.011 17.713-0.023 1.132-0.097 1.861 1.087 1.849 2.1 0.006 5.717 0.008 11.435-0.001 17.153 0.038 0.751-0.352 1.734-1.247 1.687-6.124 0.005-12.25-0.010-18.373-0.031-0.919 0.013-1.393-0.97-1.337-1.776-0.007-5.718-0.005-11.436 0-17.154-0.046-0.869 0.444-1.865 1.396-1.956M8.989 2.899c-0.313 0.76-0.583 1.538-0.878 2.306-0.449 0.139-0.842 0.535-0.791 1.036 0.098 0.595 0.352 1.151 0.509 1.732-0.168 0.001-0.337 0.004-0.505 0.005 0 0.17 0 0.34 0 0.509 0.254 0.004 0.509 0 0.764 0.004 0.034 0.398-0.106 0.889 0.208 1.208 0.33 0.359 1.001 0.22 1.153-0.245 0.079-0.314 0.042-0.643 0.052-0.965 1.644-0.001 3.288-0.001 4.933 0 0.034 0.402-0.108 0.899 0.215 1.217 0.335 0.352 0.998 0.206 1.147-0.257 0.077-0.313 0.041-0.64 0.050-0.96 0.258-0.001 0.517 0 0.776-0.002-0.001-0.169-0.001-0.338 0-0.506-0.17-0.002-0.34-0.006-0.509-0.008 0.16-0.581 0.408-1.138 0.51-1.733 0.044-0.488-0.329-0.894-0.779-1.021-0.306-0.766-0.581-1.543-0.876-2.312-1.993-0.006-3.986 0.006-5.98-0.006M3.37 13.801c0.049 0.050 0.146 0.15 0.196 0.2-0.274 0.734-0.576 1.46-0.814 2.207-0.065 1.116-0.013 2.239-0.032 3.359 1.040 0.002 2.081 0.001 3.121 0-0.132-0.755 0.457-1.555 1.249-1.528 0.792-0.029 1.38 0.772 1.25 1.528 2.244 0.001 4.487 0.001 6.731 0-0.13-0.755 0.458-1.555 1.249-1.528 0.792-0.029 1.38 0.773 1.252 1.528 1.25 0.001 2.5 0.002 3.75 0-0.013-1.109 0.029-2.219-0.018-3.325-0.359-0.926-0.805-1.819-1.202-2.731-0.048-0.197-0.233-0.268-0.418-0.24-5.244 0.005-10.488-0.005-15.732 0.005-0.322-0.046-0.431 0.317-0.582 0.526M6.749 18.264c-0.821 0.229-1.002 1.452-0.283 1.909 0.613 0.487 1.621 0.041 1.694-0.732 0.144-0.76-0.689-1.448-1.411-1.177M15.989 18.262c-0.832 0.223-1.013 1.462-0.284 1.916 0.613 0.48 1.614 0.032 1.687-0.737 0.142-0.757-0.682-1.444-1.403-1.18z"></path>
<path fill="#fff" d="M9.173 3.162c1.862-0.006 3.724 0.004 5.586-0.006 0.281 0.676 0.536 1.361 0.798 2.044-2.374-0.358-4.798-0.359-7.171 0.001 0.257-0.682 0.524-1.36 0.787-2.039z"></path>
<path fill="#fff" d="M7.969 5.692c0.407-0.3 1.057 0.038 1.028 0.547 0.014 0.497-0.613 0.823-1.018 0.539-0.391-0.224-0.398-0.854-0.011-1.086z"></path>
<path fill="#fff" d="M15.282 5.669c0.41-0.26 1.020 0.079 0.992 0.571 0.013 0.482-0.584 0.809-0.989 0.554-0.432-0.216-0.433-0.905-0.004-1.126z"></path>
<path fill="#fff" d="M9.691 6.146c1.52-0.002 3.042-0.007 4.562 0.002-0.052 0.727-0.446 1.589-1.252 1.691-0.703 0.079-1.421 0.086-2.122-0.011-0.772-0.138-1.144-0.973-1.189-1.682z"></path>
<path fill="#fff" d="M3.040 16.285c0.34-0.79 0.434-1.79 1.025-2.412-0.322 0.794-0.433 1.801-1.025 2.412z"></path>
<path fill="#fff" d="M4.367 13.946c0.451-0.004 0.904-0.002 1.356-0.002 0 0.762 0 1.524 0 2.286-0.732 0.002-1.464 0.004-2.196 0 0.277-0.762 0.562-1.522 0.84-2.284z"></path>
<path fill="#fff" d="M5.957 13.944c0.612 0 1.223 0 1.835 0 0.001 0.762 0.001 1.525 0 2.287-0.612 0.001-1.223 0.001-1.835 0-0.002-0.763-0.002-1.525 0-2.287z"></path>
<path fill="#fff" d="M8.015 13.944c0.652 0 1.304 0 1.956 0 0.002 0.763 0.002 1.525 0 2.287-0.652 0.001-1.304 0.001-1.956 0-0.002-0.762-0.002-1.524 0-2.287z"></path>
<path fill="#fff" d="M10.206 13.944c0.611 0 1.223 0 1.834 0 0.002 0.762 0.002 1.524 0.001 2.287-0.612 0.001-1.224 0.001-1.835 0-0.001-0.762-0.001-1.525 0-2.287z"></path>
<path fill="#fff" d="M12.264 13.944c0.649 0 1.297 0 1.946 0 0.002 0.762 0.002 1.524 0 2.287-0.648 0.001-1.297 0.001-1.946 0 0-0.762 0-1.525 0-2.287z"></path>
<path fill="#fff" d="M14.434 13.944c0.643 0 1.286 0 1.931 0 0.001 0.763 0.001 1.525 0 2.287-0.644 0-1.288 0.004-1.931-0.001 0-0.762 0-1.524 0-2.286z"></path>
<path fill="#fff" d="M16.598 13.945c0.61-0.002 1.22-0.002 1.83 0-0.007 0.763 0.014 1.528-0.013 2.291-0.606-0.007-1.212-0.002-1.817-0.006 0-0.762 0-1.523 0-2.285z"></path>
<path fill="#fff" d="M18.649 13.945c0.457-0.001 0.916-0.001 1.373-0.001 0.337 0.761 0.67 1.523 1.002 2.286-0.786 0.006-1.572-0.004-2.358 0.007-0.036-0.763-0.008-1.529-0.017-2.292z"></path>
<path fill="#373737" opacity="0.82" d="M0.925 0.755c0.043-0.2 0.258-0.274 0.437-0.296-0.091 0.152-0.235 0.334-0.437 0.296z"></path>
<path fill="#3a3a3a" opacity="0.83" d="M0.568 1.25c0-0.204 0.128-0.38 0.331-0.425-0.034 0.19-0.156 0.346-0.331 0.425z"></path>
<path fill="#000" d="M2.558 1.010c0.377-0.108 0.772-0.112 1.16-0.109 5.72 0.014 11.441 0.014 17.16 0.026 1.351 0.025 2.21 1.438 2.203 2.676 0.001 5.756 0.016 11.514-0.007 17.272 0.032 0.998-0.605 2.136-1.709 2.147-6.125 0.022-12.251-0.005-18.377-0.014-1.213 0.073-2.090-1.103-2.030-2.244-0.022-5.681-0.001-11.362-0.011-17.042-0.079-1.111 0.42-2.432 1.61-2.711M2.934 1.526c-0.952 0.091-1.441 1.087-1.396 1.956-0.005 5.718-0.007 11.436 0 17.154-0.056 0.806 0.418 1.789 1.337 1.776 6.124 0.022 12.25 0.036 18.373 0.031 0.895 0.047 1.285-0.936 1.247-1.687 0.010-5.718 0.007-11.436 0.001-17.153 0.012-1.013-0.718-2.197-1.849-2.1-5.904 0.034-11.813-0.067-17.713 0.023z"></path>
<path fill="#000" d="M8.989 2.899c1.993 0.012 3.986 0 5.98 0.006 0.295 0.769 0.57 1.547 0.876 2.312 0.45 0.127 0.823 0.533 0.779 1.021-0.102 0.595-0.35 1.152-0.51 1.733 0.169 0.002 0.338 0.006 0.509 0.008-0.001 0.168-0.001 0.337 0 0.506-0.259 0.002-0.518 0.001-0.776 0.002-0.010 0.32 0.026 0.647-0.050 0.96-0.149 0.463-0.812 0.608-1.147 0.257-0.323-0.318-0.181-0.815-0.215-1.217-1.645-0.001-3.289-0.001-4.933 0-0.010 0.322 0.028 0.65-0.052 0.965-0.152 0.464-0.823 0.604-1.153 0.245-0.313-0.319-0.174-0.81-0.208-1.208-0.256-0.004-0.51 0-0.764-0.004 0-0.169 0-0.338 0-0.509 0.168-0.001 0.337-0.004 0.505-0.005-0.157-0.581-0.41-1.136-0.509-1.732-0.052-0.5 0.342-0.896 0.791-1.036 0.295-0.768 0.565-1.547 0.878-2.306M9.173 3.162c-0.263 0.679-0.53 1.357-0.787 2.039 2.374-0.36 4.798-0.359 7.171-0.001-0.262-0.683-0.517-1.368-0.798-2.044-1.862 0.010-3.724 0-5.586 0.006M7.969 5.692c-0.388 0.232-0.38 0.862 0.011 1.086 0.404 0.284 1.032-0.042 1.018-0.539 0.029-0.509-0.622-0.847-1.028-0.547M15.282 5.669c-0.43 0.221-0.428 0.91 0.004 1.126 0.404 0.254 1.002-0.072 0.989-0.554 0.028-0.492-0.582-0.832-0.992-0.571M9.691 6.146c0.046 0.709 0.418 1.544 1.189 1.682 0.701 0.097 1.418 0.090 2.122 0.011 0.805-0.102 1.2-0.964 1.252-1.691-1.52-0.010-3.042-0.005-4.562-0.002z"></path>
<path fill="#000" d="M3.37 13.801c0.151-0.209 0.26-0.571 0.582-0.526 5.244-0.010 10.488 0 15.732-0.005 0.185-0.028 0.37 0.043 0.418 0.24 0.397 0.912 0.844 1.805 1.202 2.731 0.047 1.106 0.005 2.216 0.018 3.325-1.25 0.002-2.5 0.001-3.75 0 0.128-0.755-0.46-1.556-1.252-1.528-0.791-0.028-1.379 0.773-1.249 1.528-2.244 0.001-4.487 0.001-6.731 0 0.13-0.756-0.458-1.556-1.25-1.528-0.792-0.028-1.381 0.773-1.249 1.528-1.040 0.001-2.081 0.002-3.121 0 0.019-1.12-0.032-2.243 0.032-3.359 0.238-0.746 0.54-1.472 0.814-2.207-0.049-0.050-0.146-0.15-0.196-0.2M3.040 16.285c0.592-0.611 0.703-1.618 1.025-2.412-0.59 0.622-0.685 1.622-1.025 2.412M4.367 13.946c-0.278 0.762-0.563 1.522-0.84 2.284 0.732 0.004 1.464 0.002 2.196 0 0-0.762 0-1.524 0-2.286-0.452 0-0.905-0.001-1.356 0.002M5.957 13.944c-0.002 0.762-0.002 1.524 0 2.287 0.612 0.001 1.223 0.001 1.835 0 0.001-0.762 0.001-1.525 0-2.287-0.612 0-1.223 0-1.835 0M8.015 13.944c-0.002 0.763-0.002 1.525 0 2.287 0.652 0.001 1.304 0.001 1.956 0 0.002-0.762 0.002-1.524 0-2.287-0.652 0-1.304 0-1.956 0M10.206 13.944c-0.001 0.762-0.001 1.525 0 2.287 0.611 0.001 1.223 0.001 1.835 0 0.001-0.763 0.001-1.525-0.001-2.287-0.611 0-1.223 0-1.834 0M12.264 13.944c0 0.762 0 1.525 0 2.287 0.649 0.001 1.298 0.001 1.946 0 0.002-0.763 0.002-1.525 0-2.287-0.649 0-1.297 0-1.946 0M14.434 13.944c0 0.762 0 1.524 0 2.286 0.643 0.005 1.286 0.001 1.931 0.001 0.001-0.762 0.001-1.524 0-2.287-0.644 0-1.288 0-1.931 0M16.598 13.945c0 0.762 0 1.523 0 2.285 0.605 0.004 1.211-0.001 1.817 0.006 0.028-0.763 0.006-1.528 0.013-2.291-0.61-0.002-1.22-0.002-1.83 0M18.649 13.945c0.008 0.763-0.019 1.529 0.017 2.292 0.786-0.011 1.572-0.001 2.358-0.007-0.332-0.763-0.665-1.525-1.002-2.286-0.457 0-0.916 0-1.373 0.001z"></path>
<path fill="#000" d="M6.749 18.264c0.722-0.271 1.555 0.418 1.411 1.177-0.073 0.773-1.081 1.219-1.694 0.732-0.719-0.457-0.538-1.68 0.283-1.909z"></path>
<path fill="#000" d="M15.989 18.262c0.721-0.264 1.544 0.422 1.403 1.18-0.073 0.769-1.074 1.217-1.687 0.737-0.728-0.455-0.547-1.693 0.284-1.916z"></path>
<path fill="#222" opacity="0.9" d="M0 2.688c0.082-0.37 0.208-0.728 0.39-1.060-0.145 0.565-0.278 1.141-0.271 1.729 0.002 5.36 0 10.721 0.001 16.081 0.012 0.895-0.070 1.804 0.151 2.682-0.090-0.175-0.184-0.347-0.271-0.522v-18.911z"></path>
<path fill="#2d2d2d" opacity="0.84" d="M23.744 2.267c0.156 0.13 0.202 0.337 0.136 0.527-0.148-0.136-0.185-0.338-0.136-0.527z"></path>
<path fill="#404040" opacity="0.85" d="M22.754 23.561c0.074-0.185 0.24-0.306 0.437-0.328-0.065 0.192-0.235 0.318-0.437 0.328z"></path>
</svg>
