<!-- Generated by IcoMoon.io -->
<svg version="1.1" xmlns="http://www.w3.org/2000/svg" width="18" height="24" viewBox="0 0 18 24">
<title>complementary--chevron-right--g1</title>
<path fill="#edae15" d="M0.145 0.833c-0.058-0.396 0.285-0.766 0.687-0.713 5.514 0.001 11.029-0.002 16.543 0.002 0.385-0.035 0.687 0.34 0.638 0.709 0.001 7.486 0.001 14.97 0 22.456 0.049 0.329-0.181 0.567-0.447 0.712h-16.947c-0.291-0.122-0.525-0.376-0.474-0.71 0-7.486 0-14.97 0-22.456M0.768 0.848c2.747 3.834 5.521 7.649 8.269 11.484-2.645 3.676-5.328 7.325-7.973 11.003 2.75 0 5.501 0.016 8.252-0.008 2.732-3.66 5.466-7.322 8.179-10.997-2.771-3.833-5.543-7.664-8.335-11.481-2.797-0.006-5.595-0.006-8.392 0z"></path>
<path fill="#231f20" d="M0.768 0.848c2.797-0.006 5.595-0.006 8.392 0 2.792 3.817 5.563 7.649 8.335 11.481-2.714 3.675-5.448 7.336-8.179 10.997-2.751 0.024-5.502 0.008-8.252 0.008 2.645-3.677 5.328-7.327 7.973-11.003-2.747-3.835-5.521-7.65-8.269-11.484z"></path>
</svg>
