<svg xmlns="http://www.w3.org/2000/svg" width="24" height="24">
    <path fill="#edae15" d="M1.47 6h21.18c.81.115 1.313.901 1.287 1.681.023 2.879.027 5.761-.003 8.64A1.631 1.631 0 0 1 22.523 18H1.686C.84 17.961.117 17.309.135 16.437.082 13.556.116 10.671.118 7.79c-.047-.833.469-1.695 1.351-1.791zm.138.313C.867 6.306.383 6.988.417 7.686a425.76 425.76 0 0 0 .006 8.607c-.035.744.509 1.425 1.287 1.395 6.63.031 13.263.003 19.893.013.549-.021 1.177.023 1.629-.351.417-.381.419-.993.431-1.513-.001-2.598.005-5.196-.003-7.793-.024-.51-.025-1.134-.465-1.479-.543-.345-1.221-.279-1.833-.297-6.583.033-13.171-.057-19.752.045z"/>
    <path fill="#edae15" d="M1.356 6.759c.379-.097.775-.091 1.163-.099 6.401.003 12.801-.001 19.2.001.426.024.895-.009 1.271.229.325.379.259.925.283 1.389-.021 2.715.037 5.433-.029 8.145.021.621-.619.925-1.161.883-6.762-.005-13.527.013-20.289-.009-.579.057-1.027-.402-.984-.975-.048-2.759-.007-5.521-.021-8.281.018-.459-.005-1.159.567-1.284zm13.308 1.642c.084.683.462 1.291.663 1.944-4.296.012-8.592-.003-12.888.007-.006 1.089-.007 2.175.001 3.264 4.291.015 8.583-.007 12.875.011-.168.663-.479 1.293-.567 1.975-.023.653.817.955 1.284.551 1.968-1.373 3.913-2.778 5.865-4.173-1.971-1.416-3.996-2.754-5.985-4.145-.48-.371-1.239-.059-1.249.565z"/>
    <path fill="#231f20" d="M1.608 6.313C8.189 6.21 14.777 6.3 21.36 6.268c.613.018 1.291-.048 1.833.297.441.345.441.969.465 1.479.007 2.597.001 5.195.003 7.793-.012.521-.013 1.133-.431 1.513-.451.373-1.08.329-1.629.351-6.631-.009-13.263.018-19.893-.013-.777.031-1.321-.651-1.287-1.395a425.76 425.76 0 0 1-.006-8.607c-.033-.699.45-1.38 1.191-1.373zm-.252.446c-.571.125-.549.825-.567 1.284.013 2.76-.027 5.523.021 8.281-.043.573.405 1.033.984.975 6.762.023 13.527.005 20.289.009.543.042 1.182-.261 1.161-.883.066-2.713.009-5.431.029-8.145-.024-.465.042-1.011-.283-1.389-.375-.239-.845-.205-1.271-.229-6.399-.003-12.799.001-19.2-.001-.387.007-.783.001-1.163.099z"/>
    <path fill="#231f20" d="M14.664 8.401c.011-.624.769-.936 1.249-.565 1.989 1.391 4.014 2.729 5.985 4.145-1.953 1.395-3.897 2.799-5.865 4.173-.467.405-1.307.102-1.284-.551.087-.681.399-1.311.567-1.975-4.291-.018-8.583.005-12.875-.011a236.752 236.752 0 0 1-.001-3.264c4.296-.011 8.592.005 12.888-.007-.201-.653-.579-1.261-.663-1.944z"/>
</svg>
