<!-- Generated by IcoMoon.io -->
<svg version="1.1" xmlns="http://www.w3.org/2000/svg" width="24" height="24" viewBox="0 0 24 24">
<title>complementary--maximum-speed-limit-50--g1</title>
<path fill="#ffd033" d="M1.708 0h20.575c0.881 0.137 1.567 0.874 1.717 1.741v20.479c-0.115 0.916-0.884 1.649-1.788 1.78h-20.401c-0.904-0.13-1.655-0.832-1.811-1.735v-20.518c0.144-0.865 0.833-1.604 1.708-1.747M1.97 0.33c-0.984 0.122-1.715 1.094-1.67 2.066 0.001 6.443-0.002 12.886 0.001 19.328-0.056 1.082 0.881 2.090 1.975 2.060 6.481 0.011 12.962 0.002 19.444 0.005 0.725 0.026 1.451-0.35 1.808-0.986 0.344-0.58 0.265-1.279 0.274-1.924-0.002-5.92-0.004-11.84 0-17.76 0.006-0.689 0.052-1.459-0.414-2.026-0.4-0.568-1.102-0.838-1.781-0.797-6.546 0.025-13.094-0.041-19.637 0.032z"></path>
<path fill="#ffd033" d="M1.847 1.031c6.623-0.095 13.256-0.013 19.883-0.041 0.668-0.077 1.326 0.47 1.267 1.163 0.004 6.565 0.005 13.13-0.001 19.696 0.041 0.631-0.52 1.183-1.146 1.157-6.527 0.012-13.054 0.001-19.58 0.006-0.662 0.068-1.313-0.479-1.265-1.163-0.007-6.565-0.006-13.132-0.001-19.696-0.035-0.517 0.329-1.027 0.844-1.122M15.528 4.262c-1.654 0.239-2.554 1.907-2.807 3.41-0.319 2.027-0.356 4.294 0.752 6.101 1.064 1.759 3.895 1.901 5.18 0.326 0.967-1.182 1.207-2.776 1.248-4.258 0.016-1.526-0.102-3.188-1.056-4.451-0.755-1.004-2.123-1.338-3.318-1.129M5.233 4.38c-0.266 1.92-0.545 3.838-0.81 5.759 0.384 0.020 0.767 0.048 1.15 0.065 0.793-1.108 2.498-1.352 3.56-0.499 1.168 0.92 1.022 2.882-0.050 3.82-1.24 0.99-3.539 0.396-3.679-1.343-0.462-0.001-0.924-0.002-1.386 0.002 0.098 0.702 0.284 1.439 0.804 1.955 1.235 1.198 3.239 1.296 4.746 0.589 1.673-0.926 2.311-3.298 1.446-4.978-0.962-1.818-3.594-2.322-5.227-1.121 0.164-0.984 0.302-1.973 0.46-2.959 1.518 0 3.036 0.001 4.553 0 0.001-0.43 0.001-0.86 0.001-1.29-1.855 0-3.71 0.001-5.567 0M6.6 17.189c0 1.28-0.001 2.561 0.001 3.841 0.25 0.001 0.498 0 0.748-0.001 0.006-1.033-0.004-2.066 0.005-3.098 0.251 1.033 0.467 2.074 0.707 3.109 0.256-0.012 0.512-0.019 0.769-0.018 0.23-1.033 0.455-2.068 0.703-3.095 0.014 1.033 0.001 2.068 0.008 3.102 0.25 0.002 0.499 0.001 0.749 0 0.001-1.279 0-2.56 0.001-3.84-0.384 0.002-0.767 0.002-1.15 0-0.228 0.996-0.452 1.992-0.688 2.986-0.244-0.991-0.466-1.988-0.694-2.984-0.386 0.001-0.773 0.001-1.16-0.001M11.041 17.19c-0.002 1.271-0.001 2.54-0.001 3.811 0.27-0.002 0.54-0.002 0.811-0.001-0.001-0.449 0-0.896 0.001-1.344 0.449-0.010 0.908 0.022 1.349-0.086 1.043-0.233 1.028-2.045 0.001-2.299-0.709-0.155-1.442-0.054-2.161-0.080M14.55 17.19c0 1.28-0.001 2.56 0 3.84 0.27-0.001 0.54-0.001 0.809 0.001-0.002-0.57 0.005-1.141 0-1.711 0.491 0 0.98 0 1.471 0.001-0.005 0.569 0.002 1.139 0 1.709 0.269-0.001 0.539-0.001 0.809 0.001 0.002-1.28 0.002-2.562 0-3.842-0.27 0.001-0.54 0.001-0.809 0.001 0.001 0.49-0.002 0.979-0.001 1.469-0.49 0.001-0.979 0.001-1.469 0.001 0.002-0.491-0.002-0.98-0.001-1.471-0.27 0.001-0.54 0.001-0.809 0.001z"></path>
<path fill="#ffd033" d="M15.88 5.45c0.772-0.152 1.681 0.14 2.017 0.899 0.6 1.35 0.59 2.875 0.527 4.324-0.080 0.912-0.17 1.915-0.792 2.639-0.656 0.794-2.034 0.905-2.732 0.11-0.587-0.641-0.755-1.54-0.85-2.376-0.119-1.345-0.106-2.731 0.289-4.033 0.217-0.724 0.745-1.45 1.541-1.562z"></path>
<path fill="#ffd033" d="M11.85 17.843c0.325 0.008 0.653-0.007 0.973 0.056 0.484 0.097 0.472 0.941-0.002 1.049-0.319 0.067-0.648 0.040-0.971 0.047 0.002-0.384 0.002-0.768 0-1.152z"></path>
<path fill="#050505" d="M1.97 0.33c6.542-0.073 13.091-0.007 19.637-0.032 0.679-0.041 1.381 0.229 1.781 0.797 0.466 0.566 0.42 1.337 0.414 2.026-0.004 5.92-0.002 11.84 0 17.76-0.008 0.644 0.071 1.344-0.274 1.924-0.358 0.636-1.084 1.013-1.808 0.986-6.481-0.002-12.962 0.006-19.444-0.005-1.094 0.030-2.032-0.978-1.975-2.060-0.004-6.443 0-12.886-0.001-19.328-0.044-0.972 0.686-1.944 1.67-2.066M1.847 1.031c-0.515 0.095-0.878 0.605-0.844 1.122-0.005 6.564-0.006 13.13 0.001 19.696-0.048 0.684 0.602 1.231 1.265 1.163 6.527-0.005 13.054 0.006 19.58-0.006 0.626 0.026 1.187-0.526 1.146-1.157 0.006-6.565 0.005-13.13 0.001-19.696 0.059-0.692-0.599-1.24-1.267-1.163-6.626 0.028-13.26-0.054-19.883 0.041z"></path>
<path fill="#231f20" d="M15.528 4.262c1.195-0.209 2.563 0.125 3.318 1.129 0.954 1.262 1.072 2.924 1.056 4.451-0.041 1.482-0.281 3.076-1.248 4.258-1.285 1.574-4.116 1.433-5.18-0.326-1.109-1.807-1.072-4.074-0.752-6.101 0.253-1.504 1.153-3.172 2.807-3.41M15.88 5.45c-0.796 0.113-1.324 0.839-1.541 1.562-0.395 1.302-0.408 2.688-0.289 4.033 0.095 0.836 0.263 1.735 0.85 2.376 0.698 0.794 2.076 0.684 2.732-0.11 0.622-0.724 0.712-1.727 0.792-2.639 0.064-1.448 0.073-2.974-0.527-4.324-0.336-0.758-1.246-1.051-2.017-0.899z"></path>
<path fill="#231f20" d="M5.233 4.38c1.856 0.001 3.712 0 5.567 0 0 0.43 0 0.86-0.001 1.29-1.517 0.001-3.035 0-4.553 0-0.157 0.986-0.295 1.975-0.46 2.959 1.633-1.201 4.265-0.697 5.227 1.121 0.865 1.68 0.227 4.051-1.446 4.978-1.507 0.707-3.511 0.608-4.746-0.589-0.52-0.516-0.706-1.253-0.804-1.955 0.462-0.005 0.924-0.004 1.386-0.002 0.14 1.739 2.44 2.333 3.679 1.343 1.073-0.937 1.218-2.899 0.050-3.82-1.062-0.853-2.767-0.608-3.56 0.499-0.383-0.017-0.766-0.044-1.15-0.065 0.265-1.921 0.544-3.839 0.81-5.759z"></path>
<path fill="#231f20" d="M6.6 17.189c0.388 0.002 0.774 0.002 1.16 0.001 0.228 0.996 0.45 1.993 0.694 2.984 0.235-0.994 0.46-1.99 0.688-2.986 0.383 0.002 0.766 0.002 1.15 0-0.001 1.28 0 2.561-0.001 3.84-0.25 0.001-0.499 0.002-0.749 0-0.007-1.034 0.006-2.069-0.008-3.102-0.248 1.027-0.473 2.062-0.703 3.095-0.257-0.001-0.514 0.006-0.769 0.018-0.24-1.036-0.456-2.076-0.707-3.109-0.008 1.032 0.001 2.065-0.005 3.098-0.25 0.001-0.498 0.002-0.748 0.001-0.002-1.28-0.001-2.561-0.001-3.841z"></path>
<path fill="#231f20" d="M11.041 17.19c0.719 0.026 1.452-0.074 2.161 0.080 1.027 0.254 1.042 2.066-0.001 2.299-0.44 0.108-0.9 0.077-1.349 0.086-0.001 0.448-0.002 0.895-0.001 1.344-0.271-0.001-0.541-0.001-0.811 0.001 0-1.271-0.001-2.54 0.001-3.811M11.85 17.843c0.002 0.384 0.002 0.768 0 1.152 0.323-0.007 0.652 0.020 0.971-0.047 0.474-0.108 0.486-0.952 0.002-1.049-0.32-0.064-0.648-0.048-0.973-0.056z"></path>
<path fill="#231f20" d="M14.55 17.19c0.269 0 0.539 0 0.809-0.001-0.001 0.491 0.004 0.98 0.001 1.471 0.49 0 0.979 0 1.469-0.001-0.001-0.49 0.002-0.979 0.001-1.469 0.269 0 0.539 0 0.809-0.001 0.002 1.28 0.002 2.562 0 3.842-0.27-0.002-0.54-0.002-0.809-0.001 0.002-0.57-0.005-1.14 0-1.709-0.491-0.001-0.98-0.001-1.471-0.001 0.005 0.57-0.002 1.141 0 1.711-0.269-0.002-0.539-0.002-0.809-0.001-0.001-1.28 0-2.56 0-3.84z"></path>
</svg>
