<svg xmlns="http://www.w3.org/2000/svg" width="24" height="24">
    <path fill="#fff" d="M1.066 5.563c.204-.083.428-.082.644-.084 6.842.002 13.684-.002 20.528.002.817-.022 1.559.72 1.536 1.537.002 3.322.002 6.643 0 9.964.022.817-.72 1.558-1.537 1.537-6.891.002-13.783.002-20.674 0-.815.022-1.56-.719-1.537-1.536V7.018c-.016-.644.439-1.247 1.04-1.455zm.305.309c-.567.092-1.005.642-.974 1.215.002 3.301-.003 6.602.002 9.903-.003.641.597 1.194 1.233 1.16H22.17c.638.035 1.235-.518 1.233-1.16.004-3.326.004-6.652 0-9.979 0-.64-.593-1.197-1.233-1.16-6.933.014-13.868-.027-20.799.021z"/>
    <path fill="#fff" d="M1.443 6.466c6.881-.047 13.768-.006 20.651-.021.374-.057.749.254.715.64v9.829a.606.606 0 0 1-.639.639H1.631a.605.605 0 0 1-.639-.639V7.085a.601.601 0 0 1 .451-.62zm11.756 1.058c.577.6 1.192 1.166 1.743 1.79-1.285.032-2.571.025-3.856.019-.086-.469-.1-.995-.304-1.454-.297.106-.596.21-.893.313.339.867.268 1.887-.225 2.681-.528.889-1.537 1.449-2.567 1.452-.002 1.381.001 2.763-.002 4.144.329.01.657.018.986-.004-.009-1.102.004-2.204-.007-3.306 1.361-.357 2.493-1.46 2.848-2.827 1.342-.014 2.686-.014 4.028.001-.548.615-1.153 1.177-1.724 1.769.4.003.8.002 1.201.001.761-.76 1.521-1.52 2.281-2.282-.761-.767-1.529-1.528-2.289-2.296-.406-.006-.812-.004-1.219-.002z"/>
    <path d="M1.371 5.872c6.931-.049 13.866-.007 20.799-.021.639-.037 1.233.52 1.233 1.16.004 3.326.004 6.652 0 9.979.002.641-.595 1.195-1.233 1.16H1.632c-.636.034-1.236-.518-1.233-1.16-.005-3.301-.001-6.602-.002-9.903-.031-.573.407-1.123.974-1.215zm.072.594a.6.6 0 0 0-.451.62v9.829a.605.605 0 0 0 .639.639H22.17a.606.606 0 0 0 .639-.639V7.086c.034-.387-.341-.697-.715-.64-6.883.015-13.77-.026-20.651.021z"/>
    <path d="M13.199 7.524a61.93 61.93 0 0 1 1.219.002c.76.767 1.528 1.529 2.289 2.296l-2.281 2.282c-.401.002-.801.002-1.201-.001.571-.593 1.177-1.154 1.724-1.769a186.497 186.497 0 0 0-4.028-.001c-.355 1.367-1.487 2.47-2.848 2.827.01 1.102-.002 2.205.007 3.306-.328.022-.657.014-.986.004.003-1.381 0-2.763.002-4.144 1.031-.003 2.039-.563 2.567-1.452.493-.794.564-1.815.225-2.681.297-.104.596-.207.893-.313.205.458.218.984.304 1.454 1.285.006 2.571.013 3.856-.019-.551-.624-1.166-1.189-1.743-1.79z"/>
</svg>
