<svg xmlns="http://www.w3.org/2000/svg" width="24" height="24">
    <path fill="#fffffe" d="M1.883 3.529h.296l.023.014c-.104.042-.238.085-.335.005l.017-.019zM21.517 3.529h.297l.018.019c-.097.083-.233.036-.337-.006l.022-.012zM1.676 3.617c.043-.051.096-.063.157-.036-.042.052-.095.064-.157.036zM21.866 3.583a.136.136 0 0 1 .16.023c-.061.037-.115.03-.16-.023zM1.165 3.838a.8.8 0 0 1 .365-.172 1.645 1.645 0 0 1-.365.172zM1.94 3.737c.165-.031.334-.037.5-.039h18.536c.337 0 .681-.013 1.007.09.926.265 1.615 1.218 1.544 2.182l-.001 12.34c-.068.957-.846 1.828-1.8 1.976-.358.052-.719.03-1.079.034-6.101-.002-12.203.004-18.304-.003-1.18.033-2.231-1.067-2.154-2.24C.191 14.041.19 10.005.19 5.97.113 4.932.917 3.918 1.94 3.737zm.334.337C1.336 4.11.501 4.976.558 5.923.559 10.021.556 14.12.557 18.217c.031.92.854 1.745 1.786 1.732 6.306.011 12.611.001 18.916.005.976.045 1.917-.791 1.9-1.783-.001-4.099.002-8.197.002-12.296-.004-.935-.805-1.811-1.759-1.808-6.376.004-12.753-.016-19.129.006zM22.499 3.804l.097.064-.097-.064zM.955 3.968l.1-.064-.1.064zM.614 4.295l.059-.103-.059.103zM23.122 4.29l.045.106-.045-.106zM23.286 4.495l.027.102-.027-.102zM23.341 4.614c.088.042.109.148.14.23-.073-.054-.15-.131-.14-.23z"/>
    <path fill="#fffffe" d="M2.125 4.765c.196-.042.397-.026.596-.028l18.162-.002c.28.002.568-.019.84.061.443.154.78.607.765 1.081-.001 4.098.001 8.196.002 12.294.001.595-.539 1.124-1.135 1.11-6.322.001-12.644.004-18.965.001-.604.028-1.165-.504-1.161-1.108-.001-4.099 0-8.198-.003-12.297-.012-.518.388-1.016.899-1.11zm6.789 8.031c-.268-.555-.498-1.129-.784-1.675-.197-.382-.832-.299-.943.11-.567 2.166-1.127 4.336-1.688 6.503 2.202-.281 4.403-.558 6.604-.844a.533.533 0 0 0 .486-.548c.006-.217-.173-.368-.339-.475-.472-.299-.948-.592-1.42-.891 2.547-2.249 5.103-4.488 7.651-6.735-.637-.724-1.275-1.45-1.913-2.173-2.552 2.243-5.1 4.489-7.654 6.73zM23.512 4.902c.058.1.102.208.14.317v.135c-.048-.15-.103-.299-.14-.452zM.051 5.406c-.028-.06-.018-.113.028-.158.035.06.025.113-.028.158zM.051 18.635c.051.045.062.099.033.16-.049-.044-.061-.097-.033-.16zM23.62 18.836c-.046-.064-.035-.112.032-.14v.121l-.032.018zM23.36 19.371c.016-.025.047-.073.062-.099a5.367 5.367 0 0 0-.062.099zM.859 19.991l.107.048-.107-.048zM1.004 20.081l.098.064-.098-.064zM1.626 20.38c.061-.025.114-.011.157.04-.064.027-.117.013-.157-.04zM21.64 20.471c.149-.03.299-.063.45-.086-.075.03-.149.058-.223.086h-.226zM1.824 20.437c.062-.054.15-.023.197.034h-.183l-.015-.034z"/>
    <path fill="#323131" d="M2.178 3.529l19.318.012c-.264.054-.533.035-.8.035H3.004c-.268-.001-.539.02-.803-.033l-.023-.014z"/>
    <path fill="#1a1919" d="M1.835 3.581l.031-.033c.097.08.232.037.335-.005.265.054.536.032.803.033h17.692c.267 0 .536.019.8-.035.104.042.239.089.337.006l.034.035c.045.053.099.061.16.023l.172.066.111.029c.064.033.127.067.19.102l.097.064a1.6 1.6 0 0 1 .527.423l.045.106c.04.032.08.065.119.099l.027.102.029.016c-.01.099.068.176.14.23l.03.059c.037.153.092.301.14.452v13.342c-.068.029-.078.076-.032.14l-.029.032-.013.114a4.486 4.486 0 0 1-.218.389 2.107 2.107 0 0 1-1.013.913l-.1.045a4.16 4.16 0 0 1-.157.055c-.151.023-.3.056-.45.086H2.023c-.047-.057-.135-.088-.197-.034l-.04-.016c-.044-.051-.096-.065-.157-.04l-.028-.013a4.426 4.426 0 0 1-.112-.022 3.332 3.332 0 0 1-.384-.2l-.098-.064-.037-.042-.107-.048a2.774 2.774 0 0 1-.63-.824l-.036-.104a8.085 8.085 0 0 0-.071-.127l-.015-.113-.024-.028c.029-.061.018-.114-.033-.16l-.008-.061c.01-4.38-.001-8.76.006-13.14l.003-.029c.052-.045.062-.098.028-.158.02-.057.042-.114.064-.17l.031-.11c.109-.246.253-.479.44-.673l.059-.103c.083-.086.18-.159.282-.223l.1-.064.11-.066c.128-.043.251-.1.365-.172l.01-.004.106-.039.032-.006c.064.028.116.016.157-.036zm.105.156C.917 3.918.113 4.931.19 5.97c.001 4.036.001 8.072-.001 12.107-.077 1.172.975 2.273 2.154 2.24 6.102.007 12.203.001 18.304.003.36-.004.721.018 1.079-.034.954-.149 1.732-1.019 1.8-1.976.001-4.113-.001-8.227.001-12.34.071-.965-.618-1.917-1.544-2.182-.325-.103-.67-.09-1.007-.09H2.44a2.89 2.89 0 0 0-.5.039z"/>
    <path fill="#1a1919" d="M2.274 4.074c6.376-.023 12.752-.003 19.129-.006.954-.003 1.756.873 1.759 1.808-.001 4.099-.003 8.198-.002 12.296.017.992-.924 1.828-1.9 1.783-6.306-.004-12.611.006-18.916-.005-.932.013-1.755-.811-1.786-1.732-.001-4.098.003-8.196.001-12.294-.057-.947.778-1.813 1.716-1.849zm-.149.691c-.51.095-.911.592-.899 1.11.003 4.099.002 8.198.003 12.297-.004.604.556 1.136 1.161 1.108 6.322.004 12.644 0 18.965-.001.596.013 1.136-.515 1.135-1.11-.001-4.098-.003-8.197-.002-12.294.015-.474-.323-.927-.765-1.081-.272-.08-.56-.059-.84-.061l-18.162.002c-.199.002-.4-.014-.596.028z"/>
    <path fill="#1a1919" d="M8.914 12.796c2.554-2.24 5.101-4.488 7.654-6.73.639.724 1.276 1.449 1.913 2.173-2.548 2.247-5.104 4.487-7.651 6.735.472.299.947.593 1.42.891.166.107.345.258.339.475a.533.533 0 0 1-.486.548c-2.2.287-4.403.563-6.604.844.562-2.168 1.121-4.336 1.688-6.503.111-.409.745-.492.943-.11.287.546.516 1.12.784 1.675z"/>
    <path fill="#cccbcb" d="M1.54 3.663l.106-.039-.106.039z"/>
    <path fill="#c5c5c5" d="M22.198 3.673l.111.029-.111-.029z"/>
    <path fill="#c3c2c2" d="M.143 5.077l.031-.11-.031.11z"/>
    <path fill="#9f9f9f" d="M0 5.469l.048-.035c-.006 4.38.004 8.76-.006 13.14L0 18.515V5.468z"/>
    <path fill="#d4d4d4" d="M.108 18.822l.015.113-.015-.113z"/>
    <path fill="#dbdbdb" d="M23.578 18.982l.013-.114-.013.114z"/>
    <path fill="#dcdcdc" d="M.194 19.062l.036.104-.037-.018.001-.088zM22.247 20.329l.1-.045-.013.039-.087.007z"/>
    <path fill="#c4c4c4" d="M1.486 20.345z"/>
</svg>
