<!-- Generated by IcoMoon.io -->
<svg version="1.1" xmlns="http://www.w3.org/2000/svg" width="50" height="24" viewBox="0 0 50 24">
<title>complementary--vehicles--g2</title>
<path fill="#141414" d="M2.981 0.826c8.542-0.499 17.103-0.265 25.655-0.316 6.095 0.095 12.205-0.153 18.289 0.305 1.323 0.041 2.403 1.045 2.711 2.305v17.746c-0.445 1.647-2.062 3.016-3.813 2.88-14.092-0.123-28.186 0.177-42.273-0.213-1.587 0.125-3.199-0.766-3.551-2.395v-17.738c0.335-1.383 1.511-2.547 2.981-2.575M3.376 1.456c-1.454 0.134-2.659 1.407-2.626 2.885-0.022 5.288-0.041 10.576-0.030 15.865 0.025 1.699 1.784 2.823 3.365 2.692 13.825-0.052 27.649-0.071 41.476-0.005 1.675 0.087 3.297-1.244 3.305-2.97 0.123-5.095 0.063-10.195 0.109-15.289 0.060-1.595-1.148-3.316-2.866-3.226-13.462-0.019-26.921-0.057-40.383-0.112-0.785 0-1.582-0.038-2.351 0.161z"></path>
<path fill="#141414" d="M18.649 4.47c4.345-1.372 9.308-1.421 13.497 0.48 1.227 1.375 0.559 3.731 2.032 5.040 1.211 0.99 0.464 2.577 0.412 3.867-0.338 1.255 0.142 3.112-1.238 3.794-0.12 0.914-0.194 1.838-0.42 2.735-1.868 0.325-1.478-1.77-1.612-2.965-4.358 0.063-8.716-0.139-13.072-0.005-0.079 0.944-0.145 1.89-0.256 2.831-1.822 0.641-1.849-1.336-1.759-2.629-0.235-0.136-0.466-0.275-0.701-0.412-0.226-2.163-0.728-4.295-0.775-6.477 2.446-1.44 0.829-5.635 3.892-6.259M18.027 5.787c-0.286 1.113-0.51 2.242-0.698 3.376 4.939-0.641 9.952-0.663 14.894 0-0.349-1.105-0.355-2.392-0.955-3.368-4.276-1.418-8.948-1.317-13.241-0.008M16.195 10.5c-1.29 0.15-1.145 2.485 0.27 2.19 1.587 0.115 1.219-2.607-0.27-2.19M18.837 11.185c-0.573 0.093-0.213 0.802-0.125 1.145 4.17-0.022 8.343 0.019 12.513 0.005-0.030-0.499-0.063-1.113-0.695-1.162-3.81-0.908-7.898-1.020-11.692 0.011M33.087 10.454c-0.835 0.139-1.53 1.293-0.734 1.92 0.641 0.723 1.882 0.232 2.021-0.671-0.115-0.605-0.603-1.295-1.287-1.249M18.84 13.145c-0.030 0.185-0.093 0.559-0.125 0.745 0.155 0.232 0.314 0.466 0.469 0.698 3.873-0.014 7.748 0.041 11.624 0.003 0.049-0.477 0.087-0.955 0.125-1.432-4.031-0.008-8.062-0.027-12.093-0.014z"></path>
<path fill="#fff" d="M3.376 1.456c0.769-0.199 1.565-0.161 2.351-0.161 13.462 0.055 26.921 0.093 40.383 0.112 1.718-0.090 2.926 1.631 2.866 3.226-0.046 5.095 0.014 10.195-0.109 15.289-0.008 1.726-1.631 3.057-3.305 2.97-13.827-0.065-27.652-0.046-41.476 0.005-1.582 0.131-3.341-0.993-3.365-2.692-0.011-5.288 0.008-10.576 0.030-15.865-0.033-1.478 1.173-2.752 2.626-2.885M18.649 4.47c-3.063 0.625-1.445 4.819-3.892 6.259 0.046 2.182 0.548 4.315 0.775 6.477 0.235 0.136 0.466 0.275 0.701 0.412-0.090 1.293-0.063 3.27 1.759 2.629 0.112-0.941 0.177-1.887 0.256-2.831 4.355-0.134 8.714 0.068 13.072 0.005 0.134 1.195-0.256 3.289 1.612 2.965 0.226-0.897 0.3-1.822 0.42-2.735 1.38-0.682 0.9-2.539 1.238-3.794 0.052-1.29 0.799-2.877-0.412-3.867-1.473-1.309-0.805-3.665-2.032-5.040-4.189-1.901-9.153-1.852-13.497-0.48z"></path>
<path fill="#fff" d="M18.027 5.787c4.293-1.309 8.965-1.41 13.241 0.008 0.6 0.976 0.605 2.264 0.955 3.368-4.942-0.663-9.955-0.641-14.894 0 0.188-1.135 0.412-2.264 0.698-3.376z"></path>
<path fill="#fff" d="M16.195 10.5c1.489-0.417 1.857 2.305 0.27 2.19-1.415 0.295-1.56-2.040-0.27-2.19z"></path>
<path fill="#fff" d="M18.837 11.185c3.794-1.031 7.882-0.919 11.692-0.011 0.633 0.049 0.665 0.663 0.695 1.162-4.17 0.014-8.343-0.027-12.513-0.005-0.087-0.344-0.447-1.053 0.125-1.145z"></path>
<path fill="#fbfbfb" d="M33.087 10.454c0.685-0.046 1.173 0.644 1.287 1.249-0.139 0.903-1.38 1.394-2.021 0.671-0.796-0.627-0.101-1.781 0.734-1.92z"></path>
<path fill="#fdfdfd" d="M18.84 13.145c4.031-0.014 8.062 0.005 12.093 0.014-0.038 0.477-0.076 0.955-0.125 1.432-3.875 0.038-7.751-0.016-11.624-0.003-0.155-0.232-0.314-0.466-0.469-0.698 0.033-0.185 0.095-0.559 0.125-0.745z"></path>
</svg>
