<svg xmlns="http://www.w3.org/2000/svg" width="24" height="24">
    <path fill="#fff" d="M1.148 3.098c.136-.05.283-.059.428-.061h20.848c.817-.019 1.561.722 1.543 1.54.002 4.949.002 9.897 0 14.846.019.818-.725 1.56-1.543 1.541-6.949.002-13.898.002-20.847 0-.817.017-1.558-.724-1.54-1.541V4.576c-.01-.668.478-1.29 1.112-1.479zm.077.384c-.481.165-.831.656-.808 1.169v14.698c-.036.666.569 1.27 1.235 1.235H22.35c.668.035 1.271-.567 1.238-1.235V4.651c.035-.668-.572-1.271-1.239-1.234-6.874-.003-13.748 0-20.622-.002-.169.002-.34.012-.5.067z"/>
    <path fill="#fff" d="M1.369 4.069c.209-.08.437-.049.656-.055 6.775.004 13.55-.002 20.325.003a.607.607 0 0 1 .637.634c.002 4.899.002 9.8 0 14.699a.607.607 0 0 1-.637.634c-6.9.002-13.8.002-20.7 0a.605.605 0 0 1-.632-.634c-.004-4.875.001-9.75-.002-14.625-.023-.264.1-.548.354-.655zm3.31 1.896a3.013 3.013 0 0 0-2.156 1.88 2.997 2.997 0 0 0 .459 2.896 2.998 2.998 0 0 0 2.72 1.114 3 3 0 0 0 2.391-1.814 3.002 3.002 0 0 0-.489-3.101c-.697-.833-1.868-1.219-2.926-.974zm6.675 0a3.007 3.007 0 0 0-2.159 1.88 3.002 3.002 0 0 0 .46 2.899 3.002 3.002 0 0 0 2.643 1.12 3 3 0 0 0 2.444-1.771 3.003 3.003 0 0 0-.428-3.109 3.006 3.006 0 0 0-2.96-1.019zm6.674-.001a3.01 3.01 0 0 0-2.162 1.88 3 3 0 0 0 .462 2.903 3.002 3.002 0 0 0 2.725 1.108 3 3 0 0 0 2.426-1.925c.38-.994.17-2.18-.527-2.983-.695-.835-1.866-1.224-2.924-.982zm-8.954 8.957c-.226.197-.184.522-.191.79l-.235.007-.002.382.241.009c.002.668-.001 1.334.002 2.001l.479-.001v-2.004l.479-.001.001-.389-.482-.001c-.082-.36.096-.615.482-.517l-.001-.447c-.26.01-.569-.035-.771.17zm5.802.314h.481v-.481c-.147 0-.294-.005-.44.007-.085.131-.02.321-.041.474zm-4.492.481v2.394l.479.001c.016-.534-.03-1.072.023-1.604.088-.353.521-.413.799-.242.108-.14.218-.28.324-.423a.912.912 0 0 0-1.144.118 20.185 20.185 0 0 1-.005-.246l-.476.002zm1.957 1.864c.324.7 1.349.732 1.831.181a33.994 33.994 0 0 0-.355-.308c-.367.38-1.116.232-1.117-.361.508-.006 1.015-.001 1.523-.003.156-.706-.373-1.549-1.161-1.388-.859.136-.974 1.21-.719 1.879zm2.538-1.865v2.396h.479v-2.396h-.479z"/>
    <path fill="#fff" d="M3.085 9.026c1.496 0 2.993.001 4.489-.001.007.499.003.998.003 1.498-1.498.001-2.995.002-4.493-.001-.001-.499-.001-.998.001-1.496zM9.758 9.026c1.496.002 2.992.002 4.489 0 .007.499.004.997.002 1.497-1.498.002-2.995.003-4.493-.001-.001-.499-.003-.997.002-1.496zM16.428 9.026c1.497.002 2.994.002 4.491 0 .003.499.002.998.001 1.498-1.498.002-2.995.001-4.494 0-.001-.5-.002-.998.002-1.498zM12.699 16.666c.044-.645 1.019-.642 1.064 0-.355.007-.71.007-1.064 0z"/>
    <path d="M1.225 3.482c.161-.055.332-.065.5-.067 6.874.002 13.748-.001 20.622.002.668-.036 1.274.566 1.239 1.234v14.698c.034.668-.57 1.27-1.238 1.235H1.65c-.666.035-1.27-.569-1.234-1.235V4.651c-.023-.513.327-1.004.808-1.169zm.144.587c-.254.107-.377.392-.354.655.003 4.875-.002 9.75.002 14.625a.605.605 0 0 0 .632.634c6.9.002 13.8.002 20.7 0a.607.607 0 0 0 .637-.634c.002-4.9.002-9.8 0-14.699a.607.607 0 0 0-.637-.634c-6.775-.005-13.55.001-20.325-.003-.218.007-.447-.025-.655.055z"/>
    <path d="M4.679 5.965c1.058-.244 2.229.141 2.926.974.73.833.926 2.084.489 3.101a2.995 2.995 0 1 1-5.57-2.196 3.007 3.007 0 0 1 2.155-1.88zm.371.063c-1.581.112-2.839 1.711-2.563 3.275.16 1.237 1.216 2.278 2.453 2.43a2.883 2.883 0 0 0 2.806-1.288c.621-.935.609-2.237-.029-3.161A2.878 2.878 0 0 0 5.05 6.027zM11.354 5.965a3.006 3.006 0 0 1 2.96 1.019c.713.847.885 2.101.428 3.11a3.002 3.002 0 0 1-2.444 1.771 3.002 3.002 0 0 1-2.643-1.12 3 3 0 0 1-.46-2.899 3.007 3.007 0 0 1 2.159-1.88zm.371.062c-1.582.112-2.843 1.71-2.567 3.276.16 1.237 1.219 2.28 2.456 2.43a2.88 2.88 0 0 0 2.803-1.29 2.885 2.885 0 0 0 .001-3.112 2.88 2.88 0 0 0-2.694-1.304zM18.028 5.964c1.058-.242 2.229.147 2.924.982.698.803.908 1.99.527 2.984-.37 1.024-1.343 1.801-2.426 1.925a3.002 3.002 0 0 1-2.725-1.108 2.999 2.999 0 0 1-.462-2.902 3.004 3.004 0 0 1 2.162-1.88zm.371.063c-1.582.11-2.846 1.708-2.569 3.275.16 1.24 1.221 2.282 2.46 2.432a2.884 2.884 0 0 0 2.77-1.247c.635-.922.648-2.22.031-3.154a2.882 2.882 0 0 0-2.692-1.306zM9.074 14.921c.202-.206.511-.16.771-.17l.001.447c-.386-.098-.565.157-.482.517l.482.001-.001.389-.478.001v2.004l-.479.001c-.002-.667 0-1.333-.002-2.001l-.242-.009c.002-.128.002-.255.002-.382l.236-.007c.008-.269-.035-.593.191-.79zM14.876 15.235c.021-.153-.044-.343.041-.474.146-.012.293-.007.44-.007v.481h-.481zM10.384 15.716l.476-.002.005.246a.912.912 0 0 1 1.144-.118c-.106.143-.216.283-.324.423-.277-.171-.711-.111-.799.242-.053.532-.007 1.069-.023 1.604l-.479-.001v-2.394zM12.341 17.58c-.255-.669-.139-1.742.719-1.879.788-.161 1.317.683 1.161 1.388-.508.002-1.015-.003-1.523.003.001.593.751.741 1.117.361.119.101.238.204.356.307-.481.551-1.507.519-1.831-.181zm.358-.914c.354.007.709.007 1.064 0-.045-.642-1.02-.645-1.064 0zM14.879 15.715h.479v2.396h-.479v-2.396z"/>
    <path fill="#e30613" d="M5.05 6.028a2.878 2.878 0 0 1 2.667 1.257c.638.923.649 2.225.029 3.161a2.883 2.883 0 0 1-2.806 1.288c-1.236-.152-2.293-1.193-2.453-2.43-.276-1.564.982-3.163 2.563-3.275zM3.085 9.026c-.002.499-.002.997-.001 1.496 1.498.002 2.995.002 4.493.001 0-.5.004-.998-.003-1.498-1.496.002-2.993.001-4.489.001z"/>
    <path fill="#ffed00" d="M11.725 6.027a2.882 2.882 0 0 1 2.694 1.304 2.885 2.885 0 0 1-.001 3.112 2.881 2.881 0 0 1-2.803 1.29c-1.238-.15-2.296-1.193-2.456-2.43-.277-1.566.984-3.164 2.567-3.276zM9.758 9.026c-.005.499-.003.997-.002 1.496 1.498.004 2.995.003 4.493.001.001-.499.005-.998-.002-1.497-1.496.002-2.992.002-4.489 0z"/>
    <path fill="#008c49" d="M18.399 6.027a2.883 2.883 0 0 1 2.692 1.306c.617.935.605 2.233-.031 3.155a2.887 2.887 0 0 1-2.77 1.247c-1.239-.149-2.3-1.192-2.46-2.432-.277-1.567.987-3.165 2.569-3.275zm-1.971 2.999c-.004.499-.002.998-.002 1.498 1.498.001 2.996.002 4.494 0 .001-.5.002-.998-.001-1.498-1.497.002-2.994.002-4.491 0z"/>
</svg>
