<svg xmlns="http://www.w3.org/2000/svg" width="24" height="24">
    <path fill="#1f1917" d="M0 0h24v24H0V0zm.48.48v23.04c7.678.001 15.355.001 23.032-.001V.481C15.836.479 8.158.479.48.48z"/>
    <path fill="#1f1917" d="M13.112 2.63c-.001-.302-.001-.604.002-.906l.611.004c0 .3.001.601-.001.902h-.612zM3.127 2.952l.614.001c.006.698-.001 1.397.005 2.095.563-.694 1.109-1.402 1.672-2.095l.78-.001c-.478.593-.968 1.175-1.448 1.766.476.863.973 1.714 1.45 2.576l-.78.002c-.356-.672-.702-1.349-1.055-2.022-.634.509-.708 1.258-.622 2.02l-.616.002c-.004-1.448-.002-2.897 0-4.345zM6.785 2.965l.599-.017c.042 1.448.008 2.899.018 4.349l-.617.001c-.004-1.445-.002-2.89 0-4.333zM8.125 2.953l.641-.001c.373 1.091.682 2.204 1.085 3.284.368-1.088.692-2.192 1.05-3.283l.625-.001c-.452 1.45-.913 2.897-1.369 4.344h-.631c-.466-1.448-.94-2.893-1.4-4.343zM12.16 7.296c.001-1.446-.008-2.892.005-4.338.818.004 1.636-.001 2.454.004v.616c-.612.004-1.225-.002-1.838.004-.002.409-.002.817 0 1.226.468.004.936.002 1.403.004v.634c-.468.002-.936.001-1.403.002-.002.41-.002.821 0 1.23.612.005 1.225-.001 1.838.004v.617c-.82.001-1.639.002-2.459-.001zM15.044 2.952l.643.001c.362 1.109.715 2.22 1.076 3.329.359-1.109.698-2.222 1.058-3.33h.625c-.452 1.448-.914 2.893-1.368 4.342-.209.001-.419.002-.628.005-.476-1.446-.941-2.897-1.408-4.346zM19.081 2.96c.82-.001 1.638-.004 2.458.001v.616c-.613.004-1.225-.001-1.838.002-.004.41-.004.82 0 1.229l1.404.002-.001.634c-.467.002-.935.002-1.403.001-.004.412-.004.822 0 1.232.613.002 1.225-.002 1.838.002v.617c-.82.002-1.638.001-2.458 0-.002-1.445-.002-2.891 0-4.337zM9.648 12.029c2.402-.062 4.814-.019 7.222-.02.869.871 1.726 1.758 2.608 2.617.773.095 1.567.01 2.348.038.131.769.626 1.543.319 2.327-.108.424-.209.851-.317 1.276-.768.058-1.536.107-2.303.16-.044-.978-.88-1.864-1.88-1.837-.991-.008-1.806.869-1.849 1.837-2.608-.004-5.216-.002-7.824 0-.046-.971-.863-1.849-1.856-1.837-1-.023-1.83.86-1.874 1.837-.517-.053-1.033-.103-1.55-.161-.326-.614-.654-1.229-.973-1.848.151-.48.307-.959.468-1.436 1.397-.128 2.802-.188 4.195-.332 1.11-.845 2.159-1.772 3.268-2.62zM7.22 14.662c1.572.004 3.145.004 4.717 0 .004-.706.004-1.41 0-2.116-.7.01-1.4-.026-2.098.013-.9.665-1.752 1.396-2.62 2.102zm5.206-2.116c-.004.706-.004 1.411 0 2.116 1.469.004 2.936.005 4.405 0-.479-.712-.972-1.414-1.464-2.117-.98-.001-1.961-.002-2.941.001z"/>
    <path fill="#1f1917" d="M5.674 16.952c.805-.264 1.732.284 1.927 1.099.253.878-.457 1.849-1.36 1.914-.808.091-1.585-.572-1.668-1.372-.092-.718.406-1.447 1.1-1.642zM17.203 16.968c.802-.295 1.75.234 1.964 1.05.272.862-.4 1.841-1.286 1.94-.781.122-1.566-.474-1.711-1.241-.162-.733.32-1.529 1.033-1.75z"/>
    <path fill="#fff" d="M.48.48C8.158.479 15.835.479 23.512.481v23.038c-7.676.002-15.354.002-23.032.001V.48zm12.632 2.15h.612c.002-.301.001-.602.001-.902l-.611-.004c-.004.302-.004.604-.002.906zm-9.985.322c-.002 1.448-.004 2.897 0 4.345l.616-.002c-.086-.762-.012-1.511.622-2.02.353.673.698 1.35 1.055 2.022l.78-.002c-.476-.863-.973-1.714-1.45-2.576.48-.592.971-1.174 1.448-1.766l-.78.001c-.563.694-1.109 1.402-1.672 2.095-.006-.698.001-1.397-.005-2.095l-.614-.001zm3.658.013a1043.05 1043.05 0 0 0 0 4.333l.617-.001c-.01-1.45.024-2.9-.018-4.349l-.599.017zm1.34-.012c.461 1.45.935 2.894 1.4 4.343h.631c.456-1.447.917-2.894 1.369-4.344l-.625.001c-.358 1.091-.682 2.195-1.05 3.283-.403-1.08-.712-2.194-1.085-3.284l-.641.001zm4.035 4.343c.82.004 1.639.002 2.459.001V6.68c-.613-.005-1.226.001-1.838-.004-.002-.409-.002-.82 0-1.23.467-.001.935 0 1.403-.002V4.81c-.467-.001-.935 0-1.403-.004-.002-.409-.002-.817 0-1.226.613-.006 1.226 0 1.838-.004V2.96c-.818-.005-1.636 0-2.454-.004-.013 1.446-.004 2.892-.005 4.338zm2.884-4.344c.467 1.45.931 2.9 1.408 4.346l.628-.005c.454-1.448.916-2.893 1.368-4.342h-.625c-.36 1.108-.7 2.221-1.058 3.33-.361-1.109-.714-2.22-1.076-3.329l-.643-.001zm4.037.008c-.002 1.446-.002 2.892 0 4.337.82.001 1.638.002 2.458 0V6.68c-.613-.005-1.225 0-1.838-.002-.004-.41-.004-.821 0-1.232.468.001.936.001 1.403-.001l.001-.634-1.404-.002a62.936 62.936 0 0 1 0-1.229c.613-.004 1.225.001 1.838-.002v-.616c-.82-.005-1.638-.002-2.458-.001zm-9.433 9.069c-1.109.847-2.158 1.775-3.268 2.62-1.393.144-2.798.204-4.195.332-.161.478-.317.956-.468 1.436.319.619.647 1.234.973 1.848.517.058 1.033.108 1.55.161.044-.977.875-1.86 1.874-1.837.994-.012 1.811.866 1.856 1.837 2.608-.002 5.216-.004 7.824 0 .043-.968.858-1.846 1.849-1.837 1.001-.026 1.836.859 1.88 1.837.767-.053 1.535-.102 2.303-.16.108-.425.209-.852.317-1.276.307-.784-.188-1.558-.319-2.327-.781-.029-1.576.056-2.348-.038-.882-.859-1.739-1.746-2.608-2.617-2.407.001-4.819-.042-7.222.02zm-3.974 4.923c-.695.194-1.193.924-1.1 1.642.083.799.86 1.463 1.668 1.372.902-.065 1.613-1.036 1.36-1.914-.196-.815-1.122-1.363-1.927-1.099zm11.529.016c-.713.221-1.195 1.016-1.033 1.75.145.767.93 1.363 1.711 1.241.887-.1 1.559-1.079 1.286-1.94-.215-.816-1.163-1.345-1.964-1.05z"/>
    <path fill="#fff" d="M7.22 14.662c.868-.707 1.72-1.438 2.62-2.102.697-.04 1.398-.004 2.098-.013.004.706.004 1.41 0 2.116-1.572.004-3.145.004-4.717 0zM12.426 12.546c.98-.004 1.961-.002 2.941-.001.492.703.985 1.405 1.464 2.117a718.67 718.67 0 0 1-4.405 0c-.004-.704-.004-1.41 0-2.116z"/>
</svg>
