<!-- Generated by IcoMoon.io -->
<svg version="1.1" xmlns="http://www.w3.org/2000/svg" width="19" height="24" viewBox="0 0 19 24">
<title>complementary--chevron-left--g5</title>
<path fill="#c0111e" d="M0 1.34c0.134-0.727 0.772-1.35 1.536-1.318 5.376-0.005 10.752-0.005 16.127 0 0.813-0.029 1.54 0.702 1.506 1.514 0.002 6.976 0.001 13.953 0 20.928 0.036 0.739-0.545 1.362-1.236 1.536h-16.652c-0.644-0.139-1.133-0.66-1.282-1.294v-21.366M0.374 12.006c3.072 3.88 6.146 7.759 9.224 11.634 2.69 0.003 5.379 0.002 8.068 0 0.329 0.017 0.62-0.155 0.867-0.354-2.949-3.781-5.964-7.515-8.938-11.28 2.96-3.778 5.937-7.543 8.892-11.324-0.259-0.208-0.582-0.33-0.917-0.31-2.656 0-5.312-0.003-7.967 0.001-3.086 3.87-6.155 7.754-9.228 11.633z"></path>
<path fill="#fff" d="M0.374 12.006c3.074-3.879 6.142-7.764 9.228-11.633 2.655-0.004 5.311-0.001 7.967-0.001 0.335-0.020 0.658 0.102 0.917 0.31-2.955 3.781-5.932 7.547-8.892 11.324 2.973 3.765 5.988 7.499 8.938 11.28-0.247 0.2-0.538 0.372-0.867 0.354-2.689 0.002-5.378 0.003-8.068 0-3.078-3.876-6.152-7.754-9.224-11.634z"></path>
</svg>
