<svg xmlns="http://www.w3.org/2000/svg" width="24" height="24">
    <path fill="#fff" d="M1.068 5.563c.18-.071.376-.081.568-.082 6.867.002 13.735-.002 20.602.002.818-.022 1.558.72 1.537 1.537v9.964c.021.817-.72 1.557-1.537 1.537-6.891.002-13.784.002-20.675 0-.816.021-1.56-.719-1.537-1.537V7.02c-.016-.644.44-1.248 1.041-1.456zm.302.309c-.567.091-1.004.641-.974 1.213.002 3.301-.003 6.602.003 9.903-.004.641.595 1.194 1.232 1.16H22.17c.638.035 1.235-.519 1.232-1.161.007-3.3.001-6.601.003-9.902.037-.667-.567-1.275-1.235-1.234-6.933.014-13.87-.029-20.8.021z"/>
    <path fill="#fff" d="M1.443 6.467c6.881-.049 13.769-.005 20.653-.022.374-.055.747.253.712.64.002 3.277.002 6.553 0 9.829a.604.604 0 0 1-.638.638c-6.847.002-13.694.002-20.539 0a.603.603 0 0 1-.638-.638 8050.77 8050.77 0 0 1 0-9.829c-.019-.279.172-.56.45-.619zm4.569 2.647c.673.431 1.336.88 2.008 1.313-.467.002-.934.002-1.401.001l-.141.17c.596.041 1.194.006 1.79.027-1.592.01-3.183-.038-4.776-.018l.004.524.328.002c-.368.745-.765 1.479-1.111 2.234-.03.436-.008.875-.011 1.311-.014.303.272.57.571.559 5.728.003 11.457-.002 17.185.002.344.035.677-.286.643-.632-.018-.434.035-.877-.027-1.306-.358-.728-.738-1.447-1.11-2.169h.307l.004-.526c-3.386-.003-6.772.004-10.157-.003-.403-.365-1.034-.092-1.532-.175.658-.437 1.313-.88 1.966-1.325-.744-.509-1.497-1.005-2.242-1.511-.769.503-1.543.999-2.297 1.521zM5.285 16.4c.43-.035.718-.44.729-.851-.562-.008-1.123-.002-1.685-.016-.024.507.444.959.956.868zm1.033-.853a3.775 3.775 0 0 1-.117.524c.453-.007.907-.008 1.36.001a3.884 3.884 0 0 1-.092-.526c-.384.001-.767-.001-1.152.002zm1.449-.01c.019.379.249.769.644.845.53.156 1.059-.295 1.052-.834-.565-.005-1.131-.009-1.696-.011zm6.554 0c.022.355.215.724.577.826.54.206 1.133-.248 1.118-.815-.565-.006-1.13-.009-1.695-.011zm2.002.01a4.518 4.518 0 0 1-.113.526c.452-.003.905-.003 1.358 0a3.491 3.491 0 0 1-.093-.526c-.384-.002-.767-.002-1.152 0zm1.458-.01c-.001.503.454.953.967.862.43-.035.718-.44.729-.851-.565-.006-1.131-.009-1.696-.01z"/>
    <path fill="#fff" d="M6.325 9.106c.661-.434 1.319-.87 1.981-1.303.644.434 1.29.865 1.931 1.301-.638.44-1.285.866-1.927 1.301-.665-.427-1.323-.869-1.985-1.3zM4.144 11.139c.233-.008.466-.008.698-.007-.003.759-.002 1.517-.004 2.276-.346-.008-.694.019-1.039-.012-.338-.065-.511-.484-.371-.786.226-.496.484-.977.716-1.471zM5.39 11.152c.347.008.845-.164 1.078.181.019 1.089.016 2.181 0 3.271-.074.382-.534.281-.818.29-.221.041-.478-.121-.464-.36-.007-1.019-.002-2.038-.004-3.057-.026-.147.078-.272.208-.325zM7.028 11.157c.751-.061 1.516-.006 2.272-.027.177-.021.429.058.437.268.008.549.004 1.099 0 1.647.014.193-.17.379-.362.362-.722.001-1.443.002-2.164-.001-.225.013-.413-.218-.385-.436.003-.524-.003-1.047.007-1.57-.008-.117.107-.19.195-.243zM10.362 11.141c.76-.022 1.522-.002 2.283-.009.193-.022.419.129.382.342-.002.524.003 1.049-.004 1.574.018.199-.178.383-.375.361H10.48c-.199.022-.41-.158-.386-.364-.002-.548-.006-1.096.002-1.642-.008-.143.141-.237.266-.262zM13.633 11.141c.763-.023 1.527-.002 2.29-.01.198-.027.428.129.393.346.002.497.003.994.003 1.492.026.224-.166.46-.399.44h-2.164c-.196.02-.399-.159-.376-.362-.002-.549-.006-1.099.002-1.647-.005-.136.135-.227.251-.259zM16.91 11.144c.439-.028.88-.005 1.319-.012.196-.026.425.129.391.344-.002 1.019.002 2.038-.004 3.056.013.2-.187.387-.386.364-.4 0-.8.002-1.201-.002-.19.015-.369-.175-.358-.362-.005-1.019-.002-2.039-.003-3.058-.028-.159.099-.288.241-.33zM18.958 11.132l.673-.001c.254.489.512.978.747 1.477.168.382-.198.808-.586.804-.277.002-.553-.007-.829-.004-.003-.758.001-1.516-.004-2.275z"/>
    <path d="M1.37 5.872c6.931-.05 13.868-.008 20.8-.021.668-.041 1.271.567 1.235 1.234-.002 3.301.004 6.602-.003 9.902.003.642-.593 1.196-1.232 1.161H1.631c-.637.033-1.236-.519-1.232-1.16-.006-3.301-.001-6.602-.003-9.903-.03-.572.406-1.123.974-1.213zm.073.595c-.278.059-.469.34-.45.619a8050.77 8050.77 0 0 0 0 9.829.603.603 0 0 0 .638.638c6.846.002 13.693.002 20.539 0a.604.604 0 0 0 .638-.638c.002-3.275.002-6.552 0-9.829.034-.387-.339-.695-.712-.64-6.884.016-13.772-.027-20.653.022z"/>
    <path d="M6.012 9.114c.755-.522 1.529-1.017 2.297-1.521.745.507 1.498 1.003 2.242 1.511-.654.445-1.309.887-1.966 1.325.499.083 1.129-.19 1.532.175 3.386.007 6.772 0 10.157.003l-.004.526h-.307c.372.722.751 1.441 1.11 2.169.063.429.01.872.027 1.306.034.346-.299.667-.643.632-5.728-.004-11.457.001-17.185-.002-.298.011-.585-.256-.571-.559.004-.436-.019-.875.011-1.311.346-.755.742-1.489 1.111-2.234a35.864 35.864 0 0 0-.328-.002l-.004-.524c1.593-.02 3.184.028 4.776.018-.597-.022-1.195.014-1.79-.027l.141-.17c.466.001.933.002 1.401-.001-.673-.433-1.335-.881-2.008-1.313zm.313-.008c.663.431 1.319.873 1.985 1.3.641-.436 1.288-.862 1.927-1.301-.641-.437-1.287-.868-1.931-1.301-.661.433-1.32.869-1.981 1.303zm-2.181 2.033c-.231.494-.489.975-.716 1.471-.14.302.033.721.371.786.345.031.693.004 1.039.012.002-.759.001-1.517.004-2.276-.233-.001-.466-.002-.698.007zm1.246.013c-.13.053-.235.177-.208.325.002 1.019-.002 2.038.004 3.057-.015.239.243.401.464.36.284-.009.744.092.818-.29.016-1.09.019-2.182 0-3.271-.232-.344-.73-.173-1.078-.181zm1.638.005c-.088.053-.203.125-.195.243-.01.523-.004 1.047-.007 1.57-.028.219.16.449.385.436.722.002 1.443.002 2.164.001.193.018.376-.169.362-.362.004-.549.008-1.099 0-1.647-.008-.211-.26-.289-.437-.268-.757.021-1.521-.034-2.272.027zm3.334-.016c-.124.025-.273.118-.266.262-.008.547-.004 1.095-.002 1.642-.024.206.187.385.386.364h2.168c.197.022.393-.161.375-.361.007-.524.002-1.049.004-1.574.037-.213-.189-.364-.382-.342-.761.007-1.523-.013-2.283.009zm3.271 0c-.116.031-.256.123-.251.259-.008.548-.004 1.098-.002 1.647-.023.202.18.382.376.362h2.164c.232.021.425-.215.399-.44l-.003-1.492c.035-.217-.196-.374-.393-.346-.763.008-1.528-.013-2.29.01zm3.277.003c-.142.043-.269.171-.241.33.001 1.02-.002 2.039.003 3.058-.011.188.168.377.358.362.4.004.8.002 1.201.002.199.024.399-.164.386-.364.006-1.018.002-2.037.004-3.056.035-.215-.194-.37-.391-.344-.44.007-.881-.016-1.319.012zm2.048-.012c.005.759.002 1.517.004 2.275.277-.002.553.007.829.004.388.004.754-.423.586-.804-.235-.499-.493-.987-.747-1.477l-.673.001zM5.285 16.4c-.512.092-.98-.361-.956-.868.562.014 1.123.008 1.685.016-.01.411-.299.817-.729.851zM6.318 15.547c.385-.002.769-.001 1.152-.002.019.177.049.353.092.526a41.109 41.109 0 0 0-1.36-.001c.052-.171.089-.346.117-.524zM7.767 15.537c.565.002 1.131.006 1.696.011.008.538-.521.99-1.052.834-.395-.076-.625-.466-.644-.845zM14.321 15.537c.565.002 1.13.005 1.695.011.015.567-.578 1.021-1.118.815-.362-.103-.555-.472-.577-.826zM16.323 15.547c.385-.002.769-.002 1.152 0 .019.177.047.354.093.526-.453-.003-.906-.003-1.358 0 .049-.173.085-.35.113-.526zM17.781 15.537c.565.002 1.131.004 1.696.01-.01.411-.299.817-.729.851-.513.091-.968-.358-.967-.862z"/>
</svg>
