<svg xmlns="http://www.w3.org/2000/svg" width="24" height="24">
    <path fill="#fff" d="M1.078 3.107c.182-.072.38-.081.573-.083 6.925.002 13.849-.001 20.774.001.823-.022 1.571.727 1.549 1.55v14.848c.022.823-.725 1.571-1.549 1.549-6.949.002-13.899.002-20.848 0-.823.021-1.572-.725-1.549-1.549-.002-4.949-.002-9.899 0-14.848-.017-.649.444-1.258 1.051-1.469zm.302.314C.809 3.513.37 4.067.4 4.644c.002 4.928-.004 9.857.002 14.785-.005.646.599 1.205 1.241 1.171h20.712c.643.036 1.245-.524 1.241-1.171.007-4.928.001-9.857.003-14.785.037-.671-.571-1.286-1.244-1.244-6.991.014-13.986-.028-20.976.021z"/>
    <path fill="#fff" d="M1.455 4.02c6.94-.048 13.885-.005 20.826-.021.376-.056.752.256.718.646v14.711a.61.61 0 0 1-.644.643c-6.904.002-13.808.002-20.71 0a.61.61 0 0 1-.644-.643V4.646c-.019-.282.174-.565.454-.625zm7.868 2.303c-.318.824-.533 1.687-.809 2.526-.829-.155-1.729.113-2.305.736-.702.724-.885 1.887-.434 2.79.454.984 1.603 1.575 2.669 1.372 1.071-.169 1.952-1.114 2.047-2.194.13-1.064-.52-2.138-1.501-2.554.063-.212.128-.424.196-.634.947 1.051 1.896 2.101 2.842 3.155.356.471 1.013.204 1.512.274.19.9.894 1.67 1.789 1.902 1.01.292 2.17-.149 2.734-1.035.599-.882.527-2.145-.166-2.955-.628-.778-1.738-1.089-2.686-.783-.242-.532-.476-1.07-.721-1.601.059-.17.123-.34.188-.508l.559-.001V6.32c-.703.002-1.408-.008-2.11.003-.144-.026-.181.213-.038.232.348.102.706.165 1.055.261l-.189.498c-1.481-.002-2.962.001-4.443-.002.136-.33.123-.818.509-.968.323-.058.655-.014.983-.027l.001-.499c-.582-.001-1.357-.118-1.681.503zm-.273 8.651c-.234.219-.185.564-.192.853l-.271.008v.357l.273.008c.002.657-.001 1.314.002 1.971h.479c.002-.658-.002-1.316.001-1.973l.475-.002v-.363a76.164 76.164 0 0 0-.478-.002c-.068-.345.058-.726.48-.63l-.005-.403c-.259.008-.565-.027-.763.178zm5.855-.161l.002.505.507-.001-.001-.508-.508.004zm-4.107 1.203a16.878 16.878 0 0 1-.002-.226l-.467.001c-.002.793-.002 1.586 0 2.379h.479c.02-.547-.039-1.1.031-1.643.092-.365.563-.428.82-.194.117-.118.235-.236.351-.355-.341-.31-.883-.268-1.211.04zm1.604.282c-.212.519-.218 1.211.184 1.641.463.398 1.228.332 1.646-.104l-.3-.286c-.4.44-1.252.233-1.207-.427.521-.006 1.043 0 1.564-.004-.003-.346-.02-.725-.249-1.006-.402-.538-1.379-.449-1.639.186zm2.519-.51c-.002.795-.002 1.589 0 2.384h.478v-2.384l-.478-.001z"/>
    <path fill="#fff" d="M9.357 7.81h4.415c-.432 1.153-.864 2.306-1.298 3.458-1.042-1.15-2.078-2.305-3.117-3.457zM14.242 7.982c.174.38.343.764.514 1.145a2.565 2.565 0 0 0-1.267 2.174 80.691 80.691 0 0 0-.493-.002c.415-1.106.828-2.212 1.246-3.316zM6.119 10.695c.277-.932 1.291-1.534 2.244-1.366-.187.644-.409 1.278-.584 1.925-.081.274.374.41.46.139.22-.631.395-1.279.603-1.915.921.41 1.417 1.558 1.044 2.503-.336.991-1.528 1.564-2.511 1.2-1-.313-1.6-1.495-1.255-2.486zM15.416 9.381c1.025-.317 2.216.329 2.482 1.372.328 1.041-.376 2.247-1.442 2.478-1.024.28-2.15-.412-2.41-1.432.693-.014 1.386.01 2.078-.011.175.003.286-.211.2-.356-.294-.688-.613-1.364-.91-2.05z"/>
    <path fill="#fff" d="M13.985 11.298a2.06 2.06 0 0 1 .974-1.712c.256.571.511 1.142.764 1.714-.58 0-1.159.003-1.739-.002zM12.726 16.783c.008-.305.207-.641.549-.624.341-.015.532.323.546.624a49.96 49.96 0 0 1-1.095 0z"/>
    <path d="M1.38 3.421c6.99-.049 13.984-.007 20.976-.021.673-.041 1.281.574 1.244 1.244-.002 4.928.004 9.857-.003 14.785.004.646-.598 1.207-1.241 1.171H1.644c-.642.034-1.246-.524-1.241-1.171C.397 14.501.402 9.572.401 4.644c-.03-.577.409-1.131.98-1.223zm.075.599c-.281.06-.473.343-.454.625v14.711a.609.609 0 0 0 .644.643c6.903.002 13.807.002 20.711 0a.61.61 0 0 0 .644-.643V4.646c.034-.39-.342-.702-.718-.646-6.941.016-13.886-.027-20.826.021z"/>
    <path d="M9.323 6.323c.324-.62 1.099-.503 1.681-.503l-.001.499c-.327.014-.659-.032-.982.027-.386.15-.373.637-.509.968 1.481.002 2.962 0 4.443.002l.189-.498c-.35-.096-.707-.159-1.055-.261-.143-.02-.107-.259.038-.233.703-.01 1.407-.001 2.11-.003v.493l-.559.001c-.064.168-.128.337-.188.508.245.532.479 1.069.721 1.601.948-.306 2.058.005 2.686.783.693.81.765 2.073.166 2.955-.564.886-1.725 1.327-2.734 1.035-.895-.232-1.599-1.002-1.789-1.902-.499-.07-1.156.197-1.512-.274-.946-1.054-1.894-2.104-2.842-3.155-.068.211-.133.422-.196.635.98.415 1.63 1.49 1.501 2.554-.095 1.08-.976 2.024-2.047 2.194-1.065.202-2.215-.389-2.669-1.372-.451-.903-.268-2.066.434-2.79.576-.623 1.476-.891 2.305-.736.277-.839.491-1.702.809-2.526zm.034 1.487c1.039 1.153 2.075 2.308 3.117 3.458.434-1.152.866-2.305 1.298-3.457H9.358zm4.885.172c-.418 1.105-.831 2.211-1.246 3.317l.493.002c.007-.884.5-1.733 1.267-2.174-.171-.382-.34-.765-.514-1.145zm-8.123 2.713c-.344.992.256 2.173 1.255 2.486.983.364 2.175-.208 2.511-1.2.373-.945-.123-2.093-1.044-2.503-.209.636-.383 1.283-.603 1.915-.086.271-.541.134-.46-.139.175-.647.397-1.281.584-1.925-.953-.168-1.966.434-2.244 1.366zm9.297-1.314c.297.686.616 1.363.91 2.05.085.146-.026.359-.2.356-.692.02-1.385-.003-2.078.011.26 1.02 1.385 1.712 2.41 1.432 1.066-.231 1.769-1.437 1.441-2.478-.267-1.043-1.458-1.689-2.482-1.372zm-1.431 1.917c.58.005 1.159.002 1.739.002-.253-.572-.508-1.143-.764-1.714a2.06 2.06 0 0 0-.974 1.712zM9.05 14.974c.198-.205.504-.169.763-.178l.005.403c-.421-.096-.548.285-.48.63l.478.002v.363a75.21 75.21 0 0 1-.475.002c-.002.658.001 1.316-.001 1.973h-.479c-.002-.657.001-1.314-.002-1.971l-.273-.008v-.357l.271-.008c.007-.289-.042-.634.192-.853zM14.905 14.813l.509-.004.001.508-.507.001-.002-.505zM10.798 16.016c.328-.307.869-.349 1.21-.04l-.351.356c-.257-.233-.728-.17-.82.194-.07.543-.01 1.096-.031 1.643h-.479c-.002-.793-.002-1.586 0-2.379l.467-.001.002.227zM12.402 16.298c.26-.635 1.237-.725 1.639-.186.229.281.246.66.249 1.006-.521.004-1.043-.002-1.564.004-.046.661.807.867 1.207.427l.3.286c-.418.436-1.184.502-1.646.104-.403-.43-.396-1.122-.184-1.641zm.324.485c.365.004.73.004 1.095 0-.014-.301-.206-.639-.546-.624-.342-.017-.541.319-.549.624zM14.921 15.788l.478.001v2.384h-.478c-.002-.795-.002-1.589 0-2.384z"/>
</svg>
