<svg xmlns="http://www.w3.org/2000/svg" width="24" height="24">
    <path fill="#fff" d="M1.264.06c.175-.042.357-.031.536-.033C8.683.029 15.566.026 22.449.029c.822.002 1.548.752 1.524 1.572 0 6.95.002 13.899-.001 20.848-.003.821-.752 1.547-1.572 1.524H1.601C.78 23.996.03 23.27.028 22.449.026 15.499.028 8.55.027 1.601.009.879.563.209 1.264.06zm.155.363C.855.501.4 1.028.409 1.596c-.002 6.936-.002 13.871 0 20.806-.012.633.555 1.198 1.188 1.188 6.918.004 13.837.001 20.755.001.651.035 1.251-.537 1.239-1.189.003-6.936.002-13.871 0-20.806.012-.633-.555-1.2-1.188-1.188C15.552.403 8.701.408 1.85.405c-.144 0-.288-.003-.431.018z"/>
    <path fill="#fff" d="M1.469 1.026c.075-.016.153-.018.23-.02 6.885.002 13.77 0 20.655.002a.61.61 0 0 1 .639.639v20.706a.612.612 0 0 1-.639.639H1.647a.611.611 0 0 1-.639-.639V1.647a.604.604 0 0 1 .462-.621zm14.573 1.952V7.73c.226.002.453.002.679 0 .008-.74-.014-1.48.012-2.219.015-.399.432-.67.81-.586.31.033.538.321.54.625.018.726.002 1.454.008 2.181.226.002.453.002.679 0 0-.743.003-1.485-.001-2.228-.003-.401-.171-.831-.534-1.037-.479-.277-1.118-.184-1.513.198-.003-.562 0-1.124-.001-1.686a38.534 38.534 0 0 0-.68 0zM5.361 4.79c.147.141.295.279.444.417.277-.37.818-.393 1.215-.231.291.141.279.508.272.783-.587.039-1.268-.135-1.764.27-.497.433-.36 1.383.263 1.631.494.183 1.123.165 1.513-.229v.297c.222.002.445.002.668 0-.003-.792.007-1.584-.005-2.376-.005-.404-.257-.796-.645-.928-.647-.207-1.494-.205-1.961.366zm7.873-.206c-.411.3-.58.827-.595 1.318-.025.537.087 1.133.503 1.509.588.519 1.59.477 2.117-.115-.147-.158-.309-.3-.463-.45-.339.456-1.134.411-1.366-.126a2.043 2.043 0 0 1-.008-1.35c.223-.547 1.033-.606 1.373-.14.153-.156.323-.296.463-.465-.509-.549-1.423-.611-2.024-.181zm-4.252-.237c-.001.734-.002 1.468 0 2.202-.003.357.114.738.402.967.483.384 1.245.321 1.673-.119l.002.333.666-.001c.002-1.125-.003-2.251.003-3.377-.228-.012-.455-.006-.682-.006-.002.668 0 1.336 0 2.004.003.202-.029.42-.163.579-.231.27-.675.303-.962.102-.196-.143-.258-.399-.255-.63-.004-.686 0-1.371-.002-2.055a38.42 38.42 0 0 0-.679 0zM4.976 9.831c-.019.175-.001.352.004.528.075.051.231.087.192.208-.218.661-.455 1.316-.679 1.974-.219.489-.09 1.039-.135 1.557.022.25-.114.63.195.747.632.016 1.265.003 1.897.006.007-.343.11-.698.359-.945.51-.528 1.462-.517 1.956.029.229.246.322.585.331.915 1.829 0 3.657.003 5.485-.001.008-.324.101-.657.325-.898.518-.574 1.53-.581 2.054-.01.23.243.323.582.332.909.636.005 1.272.009 1.909.016.332.025.653-.284.629-.617-.012-.609.015-1.221-.014-1.829-.224-.693-.312-1.427-.584-2.106-.102-.225-.248-.514-.529-.523L5.3 9.799c-.106.011-.23-.027-.324.029zm2.539 3.988a1.084 1.084 0 0 0-.807 1.136c.033.529.509.982 1.04.986.537.03 1.044-.404 1.101-.938.124-.723-.632-1.394-1.335-1.184zm8.149-.004a1.082 1.082 0 0 0-.804 1.034c-.012.45.294.88.718 1.026.42.155.929.009 1.202-.346.297-.361.312-.917.036-1.294a1.082 1.082 0 0 0-1.152-.419zM8.47 17.524c-.502.441-.945.954-1.438 1.407-.955.177-1.919.32-2.877.486-.12.028-.162.171-.149.28.014.307-.018.62.022.924.131.242.474.084.696.126.009-.244.071-.497.239-.683.389-.453 1.179-.448 1.564.007.165.185.224.436.236.678h5.172c.011-.254.078-.516.256-.706.383-.426 1.131-.425 1.514.002.178.189.243.451.255.705.162-.003.324.011.486-.009.188-.088.114-.327.126-.491-.019-.378.03-.765-.032-1.137-.582-.504-1.206-.963-1.803-1.451-.088-.061-.168-.165-.287-.15-1.327.009-2.655-.014-3.981.012zm7.09.775c-.006.615 0 1.232-.003 1.848.474 0 .95.003 1.424-.001.294-.54 1.167-.603 1.529-.105.039.039.065.12.135.107h1.347c-.002-.616.003-1.232-.002-1.848 0-.188-.134-.395-.341-.381-1.233-.003-2.467-.001-3.7-.001a.372.372 0 0 0-.39.381zM5.467 19.971a.83.83 0 0 0-.547.879.827.827 0 0 0 .83.723.828.828 0 0 0 .811-.773c.058-.564-.566-1.038-1.094-.83zm7.2 0a.828.828 0 0 0-.544.879c.04.405.42.737.828.723a.828.828 0 0 0 .813-.774c.058-.564-.567-1.039-1.096-.829zm4.85 0a.825.825 0 0 0 .234 1.603.83.83 0 0 0 .853-.721c.099-.579-.54-1.098-1.087-.882zm-1.961.36a537 537 0 0 0-.003.213h-.804v.213h2.037c.011-.144.03-.285.063-.426h-1.293zm3.13-.001c.043.136.074.277.091.42.338.017.677.005 1.014.006.068-.141.136-.282.201-.425-.436-.002-.872 0-1.307-.001z"/>
    <path fill="#fff" d="M6.183 6.285c.36-.098.741-.033 1.109-.05-.009.256.038.555-.141.765-.246.246-.642.231-.957.156-.402-.1-.402-.756-.011-.872zM7.535 10.599a.166.166 0 0 1 .171-.178 58.61 58.61 0 0 1 1.186.002c.124 0 .163.141.194.236.144.508.294 1.014.437 1.522.039.109-.058.197-.123.27-.55 0-1.101.006-1.653.004-.113.012-.218-.092-.213-.204-.002-.551-.003-1.101.001-1.653zM9.498 10.7c-.029-.108.019-.293.159-.279.529-.002 1.058-.003 1.587.001.11-.002.15.122.179.207.149.517.301 1.035.447 1.554.036.108-.061.191-.122.265-.533.004-1.066 0-1.599.004-.137.014-.18-.141-.212-.243-.144-.504-.299-1.005-.439-1.509zM11.919 10.426c.544-.014 1.089-.004 1.633-.005.128-.014.172.128.203.224.144.504.292 1.008.435 1.513.051.11-.042.201-.099.284-.531.018-1.062.002-1.593.011-.117.024-.188-.087-.213-.184-.15-.501-.294-1.003-.443-1.503-.041-.114-.033-.268.078-.339zM14.268 10.425c.541-.012 1.083-.003 1.624-.004.13-.012.175.134.206.232.144.505.293 1.009.435 1.515.045.135-.081.307-.229.281-.503.002-1.005.001-1.508.002-.115.003-.153-.129-.183-.216-.146-.502-.295-1.003-.441-1.506-.033-.105-.012-.252.096-.304zM16.62 10.43c.543-.014 1.088-.004 1.632-.005.126-.015.174.124.203.22.145.504.293 1.008.435 1.513.049.12-.051.3-.188.291-.519.009-1.038.006-1.557.002-.097.002-.135-.108-.162-.183-.15-.501-.294-1.003-.442-1.503-.04-.112-.032-.266.079-.335zM5.484 10.633c.035-.096.087-.231.215-.207.434.004.869-.006 1.302.009.108 0 .129.13.123.214-.002.534 0 1.068-.004 1.602.002.092-.064.209-.168.204-.634.004-1.267-.008-1.902-.006-.063-.072-.167-.161-.122-.268.181-.518.371-1.032.554-1.548zM8.304 18.104c.084-.078.163-.197.295-.171.564.008 1.128-.01 1.691.01-.01.397-.002.794-.005 1.191-.909-.001-1.818.003-2.728-.002-.092.012-.183-.105-.105-.178.276-.291.572-.564.852-.85zM10.611 17.937a56.103 56.103 0 0 1 1.535 0c.349.394.798.709 1.064 1.17-.861.062-1.732.009-2.596.027-.002-.399.003-.798-.003-1.196z"/>
    <path d="M1.419.423c.142-.021.287-.017.431-.018C8.701.408 15.552.403 22.403.408c.633-.011 1.2.555 1.188 1.188.002 6.936.002 13.871 0 20.806.012.653-.588 1.224-1.239 1.189-6.918 0-13.836.003-20.755-.002-.633.01-1.2-.555-1.188-1.188C.407 15.466.407 8.53.409 1.595A1.2 1.2 0 0 1 1.419.422zm.05.603a.606.606 0 0 0-.462.621v20.706a.61.61 0 0 0 .639.639h20.707a.612.612 0 0 0 .639-.639V1.647a.61.61 0 0 0-.639-.639c-6.885-.002-13.77 0-20.655-.002-.077.002-.155.003-.23.02z"/>
    <path d="M16.042 2.978h.679c.002.562-.001 1.124.002 1.686.395-.383 1.034-.476 1.513-.198.362.206.531.636.534 1.037.004.742.001 1.485.001 2.228a38.42 38.42 0 0 1-.679 0c-.006-.726.009-1.454-.008-2.181-.003-.304-.231-.593-.54-.625-.377-.084-.794.188-.81.586-.025.739-.003 1.479-.012 2.219a38.42 38.42 0 0 1-.679 0V2.978zM5.361 4.79c.466-.57 1.314-.572 1.96-.366.389.132.64.525.645.928.012.792.003 1.584.005 2.376-.222.002-.445.002-.668 0v-.297c-.39.394-1.019.413-1.513.229-.622-.248-.759-1.197-.263-1.631.495-.405 1.177-.231 1.764-.27.006-.274.018-.642-.272-.783-.397-.162-.938-.139-1.215.231a43.748 43.748 0 0 1-.444-.417zm.822 1.495c-.392.116-.392.771.011.871.315.075.71.09.957-.156.179-.211.132-.51.141-.765-.369.017-.749-.048-1.109.05zM13.234 4.584c.6-.429 1.515-.368 2.023.181-.141.168-.31.309-.463.465-.34-.466-1.15-.407-1.373.14-.148.427-.15.925.008 1.35.232.536 1.027.582 1.366.126.153.151.315.293.463.45-.526.591-1.528.633-2.116.115-.416-.375-.528-.972-.503-1.509.015-.492.183-1.017.595-1.318zM8.982 4.347h.68c.003.685-.002 1.37.002 2.055-.002.231.06.486.255.63.286.2.731.168.961-.102.135-.159.167-.377.164-.579V4.347c.228 0 .455-.006.682.006-.006 1.125-.001 2.251-.003 3.377l-.666.001-.002-.333c-.428.441-1.189.503-1.672.119-.288-.229-.405-.609-.402-.967-.002-.734-.001-1.468 0-2.202zM4.976 9.831c.095-.057.219-.018.324-.029l13.403-.008c.282.009.427.298.529.523.271.678.36 1.412.583 2.106.029.608.002 1.22.014 1.829.024.333-.297.642-.629.617-.636-.006-1.272-.012-1.909-.016-.009-.328-.102-.666-.332-.909-.524-.57-1.536-.564-2.054.011-.225.241-.318.574-.325.898-1.828.004-3.657.002-5.485.001-.009-.33-.102-.669-.332-.915-.493-.546-1.445-.556-1.956-.029-.249.246-.351.601-.358.945-.632-.004-1.265.01-1.897-.006-.309-.117-.173-.497-.195-.747.044-.518-.084-1.068.135-1.557.225-.659.462-1.314.679-1.974.039-.12-.117-.156-.192-.208-.005-.176-.024-.353-.004-.528zm2.559.768c-.004.551-.003 1.102-.001 1.653-.005.112.101.216.213.204.551.003 1.102-.005 1.653-.004.065-.073.162-.162.123-.27-.143-.508-.293-1.014-.437-1.522-.03-.096-.069-.236-.194-.236-.395-.006-.791-.003-1.186-.002a.165.165 0 0 0-.171.178zm1.963.101c.14.505.295 1.005.439 1.509.032.102.075.257.212.243.533-.003 1.066 0 1.599-.004.06-.075.158-.158.122-.265-.146-.519-.297-1.036-.447-1.554-.029-.085-.069-.209-.179-.207-.529-.005-1.057-.003-1.587-.001-.139-.015-.188.171-.159.279zm2.421-.274c-.111.071-.119.225-.078.339.15.501.293 1.003.443 1.503.026.098.096.207.213.184.531-.009 1.062.008 1.593-.01.057-.084.151-.174.099-.284-.143-.505-.291-1.009-.435-1.514-.03-.096-.075-.237-.203-.223-.544.001-1.089-.009-1.633.005zm2.349-.001c-.108.052-.128.2-.096.304.145.502.294 1.003.441 1.506.03.088.068.219.183.216.503-.001 1.005 0 1.508-.002.148.026.274-.147.229-.281-.143-.505-.291-1.009-.435-1.515-.03-.099-.075-.245-.206-.233-.541 0-1.083-.008-1.624.004zm2.352.005c-.111.069-.12.222-.079.335.149.501.293 1.003.442 1.503.027.075.065.184.162.183.519.005 1.038.006 1.557-.002.137.009.237-.171.188-.291-.143-.505-.291-1.009-.435-1.514-.029-.096-.078-.236-.203-.22-.543.001-1.088-.009-1.632.005zm-11.136.203c-.183.516-.373 1.03-.554 1.548-.045.107.059.195.122.268.634-.002 1.268.011 1.902.006.104.005.17-.112.168-.204.005-.534.003-1.068.004-1.602.005-.084-.016-.215-.123-.215-.434-.015-.868-.006-1.302-.009-.129-.024-.18.111-.215.207z"/>
    <path d="M7.515 13.819c.704-.21 1.459.461 1.335 1.184a1.082 1.082 0 0 1-1.101.938 1.08 1.08 0 0 1-1.04-.986 1.084 1.084 0 0 1 .807-1.136zM15.664 13.815c.423-.117.903.059 1.152.419.276.377.261.933-.036 1.294a1.082 1.082 0 0 1-1.202.346 1.08 1.08 0 0 1 .086-2.06zM8.47 17.524c1.326-.026 2.654-.003 3.981-.012.119-.016.199.088.287.15.597.488 1.221.947 1.803 1.451.062.372.012.759.032 1.137-.012.165.062.402-.126.491-.162.02-.324.006-.486.009-.012-.253-.077-.516-.255-.705-.383-.426-1.131-.428-1.514-.002-.178.189-.245.453-.256.706H6.764c-.012-.242-.07-.493-.236-.678-.385-.456-1.176-.46-1.564-.007-.168.186-.23.438-.239.683-.222-.042-.566.116-.696-.126-.041-.304-.009-.617-.022-.924-.013-.11.03-.252.149-.28.958-.167 1.921-.309 2.877-.486.493-.453.936-.965 1.438-1.407zm-.166.58c-.281.287-.576.558-.852.85-.078.073.013.189.105.178.909.004 1.818 0 2.728.002.003-.397-.006-.794.005-1.191-.563-.021-1.127-.002-1.691-.01-.132-.025-.212.093-.296.171zm2.307-.167c.005.399 0 .798.003 1.196.864-.018 1.736.036 2.597-.027-.265-.461-.715-.776-1.064-1.17a60.418 60.418 0 0 0-1.535 0zM15.56 18.299a.37.37 0 0 1 .39-.381c1.233 0 2.467-.002 3.7.001.207-.015.341.193.341.381.005.615 0 1.232.002 1.848-.449 0-.898.002-1.347 0-.071.013-.096-.068-.135-.107-.361-.498-1.235-.435-1.529.105-.474.003-.95.001-1.424.001.003-.616-.003-1.232.003-1.848z"/>
    <path d="M5.467 19.971c.528-.208 1.152.266 1.094.83a.829.829 0 0 1-.811.773.829.829 0 0 1-.83-.723.827.827 0 0 1 .547-.879zM12.667 19.971c.528-.21 1.154.264 1.096.829a.83.83 0 0 1-.813.774.828.828 0 0 1-.828-.723.826.826 0 0 1 .544-.879zM17.517 19.971c.547-.216 1.185.303 1.087.882a.828.828 0 0 1-.853.721.826.826 0 1 1-.234-1.603z"/>
    <path d="M15.556 20.331h1.293a3.06 3.06 0 0 0-.063.426h-2.037v-.213h.804l.003-.213zM18.686 20.33l1.307.001c-.066.142-.134.284-.201.425-.338-.002-.677.011-1.014-.006a2.312 2.312 0 0 0-.091-.42z"/>
</svg>
