<!-- Generated by IcoMoon.io -->
<svg version="1.1" xmlns="http://www.w3.org/2000/svg" width="49" height="24" viewBox="0 0 49 24">
<title>complementary--accident-area--g1</title>
<path fill="#92908f" d="M2.162 0h44.593l0.407 0.225c-15.113 0.022-30.228 0.051-45.34-0.015l0.34-0.211z"></path>
<path fill="#fff" d="M0.416 1.491c0.414-0.482 0.879-0.923 1.406-1.281 15.113 0.066 30.228 0.037 45.34 0.015 0.076 0.024 0.225 0.073 0.299 0.098 0.242 0.524 0.715 0.872 1.176 1.195 0.073 0.162 0.223 0.48 0.299 0.642-0.047 6.556-0.047 13.117 0 19.673-0.073 0.162-0.22 0.48-0.294 0.642-0.48 0.309-0.889 0.71-1.202 1.188-0.154 0.071-0.463 0.216-0.617 0.289-14.721-0.137-29.449-0.017-44.172-0.061-0.539 0.029-1.007-0.262-1.435-0.549-0.289-0.255-0.556-0.536-0.798-0.835-0.443-0.911-0.267-1.942-0.291-2.914 0.007-5.062 0.007-10.122 0-15.184 0.022-0.972-0.152-2.006 0.291-2.917M2.055 0.845c-0.906 0.384-1.455 1.359-1.396 2.329 0.010 5.968-0.017 11.939 0.012 17.907-0.007 1.305 1.224 2.376 2.505 2.295 14.209 0.005 28.418 0 42.624 0.002 1.305 0.118 2.616-0.977 2.584-2.317 0.012-6.039 0.012-12.081 0-18.122 0.032-1.34-1.276-2.434-2.584-2.317-14.123-0.002-28.249 0.005-42.372-0.005-0.465 0.010-0.948 0.020-1.374 0.228z"></path>
<path fill="#fff" d="M2.554 1.384c14.329-0.169 28.675-0.017 43.011-0.076 0.997-0.157 2.167 0.527 2.121 1.624 0.017 6.044 0.017 12.091 0.002 18.135 0.042 0.977-0.945 1.722-1.876 1.621-14.216-0.002-28.433 0.005-42.649-0.002-1.019 0.091-1.94-0.84-1.815-1.861 0-5.882 0-11.765 0-17.647-0.078-0.789 0.436-1.584 1.205-1.793M28.611 5.963c-0.152 1.484-0.049 2.98-0.073 4.472l0.446-0.012c-0.206-1.457 0.446-3.179-0.372-4.46M24.926 6.97c0.595 1.469 1.46 2.824 2.371 4.114-0.235-1.516-1.22-3.105-2.371-4.114M31.153 8.843c-0.345 0.715-1.051 1.362-0.901 2.221 0.906-1.276 1.731-2.63 2.366-4.063-0.796 0.306-1.021 1.195-1.464 1.842M5.268 10.406c-0.389 1.357-0.267 2.939 0.010 4.337 0.284 0.098 0.571 0.196 0.857 0.294 0.495-1.56 2.184-2.792 3.833-2.209 1.43 0.367 2.099 1.854 2.231 3.206 2.797-0.002 5.596 0.010 8.393-0.005-0.086-1.42 0.749-2.941 2.214-3.245 1.66-0.487 3.196 0.816 3.725 2.314 1.1-0.475 0.823-1.785 0.74-2.745-1.553-1.44-3.894-1.19-5.809-1.761-1.597-0.852-2.642-2.537-4.291-3.287-2.537-0.037-5.087-0.091-7.619 0.029-1.562 0.791-2.829 2.094-4.283 3.071M36.825 8.571c0.637 0.193 1.3 0.193 1.959 0.211 0.039 0.135 0.118 0.404 0.159 0.536-0.198 0.186-0.409 0.355-0.607 0.536-0.017 0.157-0.051 0.47-0.069 0.627-1.768-0.137-3.612 0.438-5.317-0.203 0.541-0.181 1.097-0.323 1.643-0.497-0.798-0.524-1.952-0.549-2.762-0.049 0.277 0.147 0.556 0.291 0.838 0.433 0.069 0.164 0.208 0.49 0.279 0.651-0.269 0.443-0.541 0.884-0.813 1.325-1.484-0.627-3.375 0.049-3.926 1.607-0.774 1.741 0.759 3.913 2.647 3.823 1.455 0.073 2.579-1.146 2.895-2.478 2.207 0.282 3.384-2.011 5.062-3.020 0.512 0.463-0.235 0.889-0.407 1.335-1.092 1.665 0.311 4.114 2.263 4.161 2.040 0.25 3.769-2.167 2.78-4.004-0.642-1.54-2.557-1.986-4.009-1.379-0.301-0.647-0.607-1.291-0.896-1.944 0.269-0.279 0.539-0.558 0.811-0.835-0.096-0.323-0.201-0.647-0.306-0.967-0.742-0.039-1.501-0.088-2.224 0.132M8.417 13.602c-1.464 0.473-1.815 2.616-0.576 3.529 1.198 1.051 3.343 0.132 3.338-1.479 0.176-1.462-1.428-2.557-2.762-2.050M22.861 13.587c-1.42 0.426-1.876 2.493-0.713 3.448 1.092 1.104 3.162 0.409 3.421-1.109 0.358-1.516-1.271-2.863-2.709-2.339M3.98 18.556c-0.005 0.478-0.012 0.958-0.017 1.438 13.643-0.010 27.284 0.010 40.927-0.010-0.007-0.475-0.010-0.95-0.015-1.425-13.633-0.005-27.264 0-40.896-0.002z"></path>
<path fill="#fff" d="M9.002 8.758c0.767-1.166 2.219-0.776 3.394-0.793 0.296 0.857 0.193 1.773 0.186 2.662-1.587-0.027-3.181 0.054-4.763-0.071-0.367-0.688 0.835-1.224 1.183-1.798z"></path>
<path fill="#fff" d="M13.367 7.979c1.288-0.012 2.598-0.14 3.877 0.042 1.063 0.757 1.979 1.704 2.931 2.591-2.3 0.054-4.602 0.012-6.904 0.020-0.115-0.884-0.125-1.783 0.096-2.652z"></path>
<path fill="#fff" d="M33.553 11.077c1.609 0.257 3.84-0.754 5.042 0.436-1.073 1.016-2.275 1.881-3.377 2.863-0.588-1.082-1.117-2.197-1.665-3.299z"></path>
<path fill="#fff" d="M32.603 12.429c0.179-0.311 0.36-0.62 0.546-0.928 0.568 0.984 1.036 2.020 1.531 3.042-0.228 0.005-0.683 0.017-0.911 0.024-0.193-0.808-0.583-1.545-1.166-2.138z"></path>
<path fill="#fff" d="M28.477 14.273c0.235-1.577 2.008-2.256 3.414-1.832-0.458 0.86-1.026 1.663-1.401 2.567 0.95 0.056 1.9 0.047 2.848 0.083-0.287 0.884-0.847 1.766-1.807 2.006-1.651 0.576-3.475-1.127-3.054-2.824z"></path>
<path fill="#fff" d="M39.644 12.6c1.469-0.781 3.556 0.147 3.644 1.886 0.318 1.856-1.976 3.421-3.573 2.4-1.482-0.744-1.636-2.895-0.468-3.987 0.531 0.82 0.845 2.055 2.001 2.155-0.585-0.786-1.232-1.533-1.604-2.454z"></path>
<path fill="#fff" d="M31.288 14.547c0.35-0.602 0.718-1.193 1.1-1.773 0.453 0.509 0.776 1.112 0.975 1.763-0.691 0.020-1.384 0.020-2.074 0.010z"></path>
<path fill="#fff" d="M8.89 14.522c0.673-0.196 1.398 0.404 1.288 1.104-0.020 0.82-1.171 1.261-1.736 0.671-0.602-0.49-0.35-1.656 0.448-1.776z"></path>
<path fill="#fff" d="M22.362 15.424c0.345-1.256 2.378-1.195 2.238 0.255-0.291 1.347-2.096 0.984-2.238-0.255z"></path>
<path fill="#1b1613" d="M47.461 0.323c0.632 0.088 1.051 0.593 1.176 1.195-0.46-0.323-0.933-0.671-1.176-1.195z"></path>
<path fill="#1b1613" d="M2.055 0.845c0.426-0.208 0.909-0.218 1.374-0.228 14.123 0.010 28.249 0.002 42.372 0.005 1.308-0.118 2.616 0.977 2.584 2.317 0.012 6.042 0.012 12.083 0 18.122 0.032 1.34-1.278 2.434-2.584 2.317-14.207-0.002-28.416 0.002-42.624-0.002-1.281 0.081-2.513-0.989-2.505-2.295-0.029-5.968-0.002-11.939-0.012-17.907-0.059-0.97 0.49-1.944 1.396-2.329M2.554 1.384c-0.769 0.208-1.283 1.004-1.205 1.793 0 5.882 0 11.765 0 17.647-0.125 1.021 0.796 1.952 1.815 1.861 14.216 0.007 28.433 0 42.649 0.002 0.931 0.1 1.918-0.644 1.876-1.621 0.015-6.044 0.015-12.091-0.002-18.135 0.047-1.097-1.124-1.78-2.121-1.624-14.336 0.059-28.682-0.093-43.011 0.076z"></path>
<path fill="#1b1613" d="M0 2.089c0.132-0.203 0.272-0.402 0.416-0.598-0.443 0.911-0.269 1.944-0.291 2.917 0.007 5.062 0.007 10.122 0 15.184 0.024 0.972-0.152 2.003 0.291 2.914-0.147-0.198-0.287-0.404-0.416-0.612v-19.805z"></path>
<path fill="#1b1613" d="M48.936 2.16l0.044-0.38v20.427l-0.044-0.375c-0.047-6.556-0.047-13.117 0-19.673z"></path>
<path fill="#1b1613" d="M47.439 23.662c0.313-0.478 0.722-0.879 1.202-1.188-0.093 0.634-0.568 1.102-1.202 1.188z"></path>
<path fill="#1b1613" d="M1.215 23.341c0.429 0.287 0.896 0.578 1.435 0.549 14.723 0.044 29.451-0.076 44.172 0.061l0.38 0.049h-45.135c-0.296-0.206-0.583-0.421-0.852-0.659z"></path>
<path fill="#09090a" d="M28.611 5.963c0.818 1.281 0.167 3.002 0.372 4.46l-0.446 0.012c0.024-1.491-0.078-2.988 0.073-4.472z"></path>
<path fill="#000" d="M24.926 6.97c1.151 1.009 2.136 2.598 2.371 4.114-0.911-1.291-1.776-2.645-2.371-4.114z"></path>
<path fill="#000" d="M31.153 8.843c0.443-0.647 0.669-1.536 1.464-1.842-0.634 1.433-1.46 2.787-2.366 4.063-0.149-0.86 0.556-1.506 0.901-2.221z"></path>
<path fill="#000" d="M5.268 10.406c1.455-0.977 2.721-2.28 4.283-3.071 2.532-0.12 5.082-0.066 7.619-0.029 1.648 0.749 2.694 2.434 4.291 3.287 1.915 0.571 4.256 0.321 5.809 1.761 0.083 0.96 0.36 2.27-0.74 2.745-0.529-1.499-2.064-2.802-3.725-2.314-1.464 0.304-2.3 1.824-2.214 3.245-2.797 0.015-5.596 0.002-8.393 0.005-0.132-1.352-0.801-2.838-2.231-3.206-1.648-0.583-3.338 0.649-3.833 2.209-0.287-0.098-0.573-0.196-0.857-0.294-0.277-1.398-0.399-2.98-0.010-4.337M9.002 8.758c-0.348 0.573-1.55 1.109-1.183 1.798 1.582 0.125 3.176 0.044 4.763 0.071 0.007-0.889 0.11-1.805-0.186-2.662-1.176 0.017-2.628-0.372-3.394 0.793M13.367 7.979c-0.22 0.869-0.211 1.768-0.096 2.652 2.302-0.007 4.604 0.034 6.904-0.020-0.953-0.887-1.869-1.834-2.931-2.591-1.278-0.181-2.589-0.054-3.877-0.042z"></path>
<path fill="#000" d="M36.825 8.571c0.722-0.22 1.482-0.171 2.224-0.132 0.105 0.321 0.211 0.644 0.306 0.967-0.272 0.277-0.541 0.556-0.811 0.835 0.289 0.654 0.595 1.298 0.896 1.944 1.452-0.607 3.367-0.162 4.009 1.379 0.989 1.837-0.74 4.254-2.78 4.004-1.952-0.047-3.355-2.496-2.263-4.161 0.171-0.446 0.918-0.872 0.407-1.335-1.678 1.009-2.856 3.301-5.062 3.020-0.316 1.332-1.44 2.552-2.895 2.478-1.888 0.091-3.421-2.082-2.647-3.823 0.551-1.558 2.442-2.233 3.926-1.607 0.272-0.441 0.544-0.882 0.813-1.325-0.071-0.162-0.211-0.487-0.279-0.651-0.282-0.142-0.561-0.287-0.838-0.433 0.811-0.5 1.964-0.475 2.762 0.049-0.546 0.174-1.102 0.316-1.643 0.497 1.704 0.642 3.549 0.066 5.317 0.203 0.017-0.157 0.051-0.47 0.069-0.627 0.198-0.181 0.409-0.35 0.607-0.536-0.042-0.132-0.12-0.402-0.159-0.536-0.659-0.017-1.322-0.017-1.959-0.211M33.553 11.077c0.549 1.102 1.078 2.216 1.665 3.299 1.102-0.982 2.304-1.847 3.377-2.863-1.202-1.19-3.433-0.179-5.042-0.436M32.603 12.429c0.583 0.593 0.972 1.33 1.166 2.138 0.228-0.007 0.683-0.020 0.911-0.024-0.495-1.021-0.962-2.057-1.531-3.042-0.186 0.309-0.367 0.617-0.546 0.928M28.477 14.273c-0.421 1.697 1.403 3.399 3.054 2.824 0.96-0.24 1.521-1.122 1.807-2.006-0.948-0.037-1.898-0.027-2.848-0.083 0.375-0.904 0.943-1.707 1.401-2.567-1.406-0.424-3.179 0.255-3.414 1.832M39.644 12.6c0.372 0.921 1.019 1.668 1.604 2.454-1.156-0.1-1.469-1.335-2.001-2.155-1.168 1.092-1.014 3.242 0.468 3.987 1.597 1.021 3.891-0.544 3.573-2.4-0.088-1.739-2.175-2.667-3.644-1.886M31.288 14.547c0.691 0.010 1.384 0.010 2.074-0.010-0.198-0.651-0.522-1.254-0.975-1.763-0.382 0.58-0.749 1.171-1.1 1.773z"></path>
<path fill="#000" d="M8.417 13.602c1.335-0.507 2.939 0.588 2.762 2.050 0.005 1.611-2.14 2.53-3.338 1.479-1.239-0.913-0.889-3.056 0.576-3.529M8.89 14.522c-0.798 0.12-1.051 1.286-0.448 1.776 0.566 0.59 1.717 0.149 1.736-0.671 0.11-0.7-0.615-1.3-1.288-1.104z"></path>
<path fill="#000" d="M22.861 13.587c1.438-0.524 3.066 0.823 2.709 2.339-0.26 1.518-2.329 2.214-3.421 1.109-1.163-0.955-0.708-3.022 0.713-3.448M22.362 15.424c0.142 1.239 1.947 1.602 2.238 0.255 0.14-1.45-1.893-1.511-2.238-0.255z"></path>
<path fill="#000" d="M3.98 18.556c13.631 0.002 27.262-0.002 40.896 0.002 0.005 0.475 0.007 0.95 0.015 1.425-13.643 0.020-27.284 0-40.927 0.010 0.005-0.48 0.012-0.96 0.017-1.438z"></path>
</svg>
