<!-- Generated by IcoMoon.io -->
<svg version="1.1" xmlns="http://www.w3.org/2000/svg" width="50" height="24" viewBox="0 0 50 24">
<title>complementary--chevron-left--g4</title>
<path fill="#f4fcff" d="M0 0h1.796l-0.34 0.146c-0.833 0.31-1.27 1.122-1.211 1.993-0.035 6.027-0.065 12.057-0.073 18.086 0.022 1.265-0.191 2.624 0.461 3.775h-0.634v-24z"></path>
<path fill="#97a4d4" d="M1.796 0h48.092v0.507c-1.858-0.423-3.775-0.202-5.663-0.224-8.68-0.078-17.364 0.008-26.044 0.005-3.454-0.043-6.909-0.011-10.363-0.016-2.12-0.016-4.247 0.097-6.361-0.127l0.34-0.146z"></path>
<path fill="#2540b1" d="M0.245 2.138c-0.059-0.871 0.378-1.683 1.211-1.993 2.114 0.224 4.242 0.111 6.361 0.127 0.294 0.329 0.588 0.658 0.884 0.982-2.529 3.692-5.221 7.27-7.815 10.916 2.594 3.897 5.374 7.661 8.098 11.469 2.662 0.040 5.323-0.003 7.985-0.003-2.605-3.837-5.369-7.569-7.912-11.45 2.745-3.719 5.277-7.591 8.012-11.315 0.369-0.2 0.736-0.399 1.111-0.582 8.68 0.003 17.364-0.084 26.044-0.005 1.888 0.022 3.805-0.2 5.663 0.224v23.493h-49.254c-0.653-1.151-0.44-2.511-0.461-3.775 0.008-6.030 0.038-12.059 0.073-18.086M24.286 2.192c-2.327 3.36-4.749 6.655-7.122 9.983 2.589 3.867 5.377 7.594 7.993 11.442 2.702 0 5.407 0.062 8.109-0.024-2.594-3.886-5.533-7.534-8.079-11.45 2.667-3.818 5.614-7.448 8.114-11.377-2.486-0.035-4.973-0.038-7.459-0.038-0.825-0.011-1.127 0.917-1.556 1.464M41.218 1.278c-2.627 3.589-5.064 7.319-7.734 10.878 2.651 3.818 5.299 7.637 7.974 11.439 2.71 0.057 5.426 0.062 8.136-0.008-2.632-3.845-5.404-7.596-8.058-11.426 2.764-3.713 5.434-7.491 8.106-11.269-2.060-0.305-4.15-0.089-6.227-0.162-0.744 0.054-1.739-0.232-2.198 0.547z"></path>
<path fill="#4a537c" d="M7.818 0.272c3.454 0.005 6.909-0.027 10.363 0.016-0.375 0.183-0.742 0.383-1.111 0.582-2.37-0.019-4.743-0.022-7.116-0.013-0.456-0.027-0.903 0.092-1.251 0.396-0.297-0.324-0.591-0.653-0.884-0.982z"></path>
<path fill="#fdfdfc" d="M8.702 1.254c0.348-0.305 0.796-0.423 1.251-0.396 2.373-0.008 4.746-0.005 7.116 0.013-2.734 3.724-5.267 7.596-8.012 11.315 2.543 3.88 5.307 7.613 7.912 11.45-2.662 0-5.323 0.043-7.985 0.003-2.724-3.808-5.504-7.572-8.098-11.469 2.594-3.646 5.285-7.224 7.815-10.916z"></path>
<path fill="#fdfdfc" d="M24.286 2.192c0.429-0.547 0.731-1.475 1.556-1.464 2.486 0 4.973 0.003 7.459 0.038-2.5 3.929-5.447 7.559-8.114 11.377 2.546 3.916 5.485 7.564 8.079 11.45-2.702 0.086-5.407 0.024-8.109 0.024-2.616-3.848-5.404-7.575-7.993-11.442 2.373-3.328 4.795-6.623 7.122-9.983z"></path>
<path fill="#fdfdfc" d="M41.218 1.278c0.458-0.779 1.453-0.493 2.198-0.547 2.076 0.073 4.166-0.143 6.227 0.162-2.672 3.778-5.342 7.556-8.106 11.269 2.653 3.829 5.426 7.58 8.058 11.426-2.71 0.070-5.426 0.065-8.136 0.008-2.675-3.802-5.323-7.621-7.974-11.439 2.67-3.56 5.107-7.289 7.734-10.878z"></path>
</svg>
