<svg xmlns="http://www.w3.org/2000/svg" width="24" height="24">
    <path fill="#ffd033" d="M1.716 0h20.551c.896.122 1.601.886 1.733 1.768v20.428c-.098.938-.902 1.705-1.831 1.805H1.84c-.923-.11-1.702-.836-1.84-1.76V1.767C.131.893.832.134 1.716.002zm.252.328C.986.456.253 1.425.299 2.397.303 8.876.292 15.355.305 21.832c-.01 1.045.922 1.981 1.97 1.955 6.523.006 13.046.008 19.57-.001 1.086.018 2.015-.986 1.955-2.064.002-6.44.002-12.881 0-19.321.067-1.124-.932-2.178-2.07-2.1C15.143.318 8.553.263 1.968.329z"/>
    <path fill="#ffd033" d="M1.847 1.03C8.47.938 15.103 1.017 21.731.99c.666-.079 1.326.473 1.266 1.163.004 6.564.004 13.13 0 19.694.04.63-.522 1.186-1.147 1.159-6.566.006-13.133.006-19.698 0-.625.028-1.189-.528-1.148-1.158C1 15.283 1 8.718 1.004 2.152c-.038-.518.33-1.025.844-1.123zm2.335 2.653c-.005.577-.006 1.156.001 1.734 1.848.011 3.696-.008 5.544.01C8.4 7.375 7.015 9.286 5.766 11.285c-.618.906-.977 1.956-1.139 3.035.79.01 1.58.006 2.371.004.06-1.514.69-2.933 1.384-4.254.85-1.643 1.937-3.146 3.049-4.616.124-.57.014-1.18.052-1.765-2.434-.018-4.867-.007-7.301-.005zm9.95-.001c-.004 1.781-.004 3.562 0 5.342 1.003-.133 2.069-.071 2.994.366 1.38.643 1.46 2.924.115 3.646-1.063.498-2.261.077-3.294-.299-.006.517-.006 1.034.004 1.552 1.676.384 3.575.545 5.102-.397 1.774-1.016 1.898-3.828.356-5.104-1.064-.892-2.495-1.091-3.835-1.144.053-.76.077-1.519.12-2.279 1.519-.005 3.04.002 4.559-.004.001-.56.001-1.121-.001-1.68-2.04-.004-4.08-.005-6.12 0zm-7.53 13.509c-.004 1.28-.005 2.56 0 3.84l.744-.002c.013-1.036-.006-2.071.01-3.107.246 1.036.46 2.078.707 3.114.254-.004.509-.01.764-.016.235-1.036.461-2.074.704-3.107.019 1.038-.002 2.077.012 3.116h.744c.005-1.279.004-2.558.001-3.838a48.643 48.643 0 0 0-1.146-.001c-.234 1.001-.458 2.004-.692 3.005l-.691-3.002a44.624 44.624 0 0 0-1.157-.002zm4.44 0c-.005 1.27-.004 2.539-.001 3.809l.809-.001c0-.448.001-.895.004-1.343.449-.012.907.02 1.348-.084 1.043-.24 1.028-2.045.001-2.303-.708-.151-1.441-.053-2.16-.078zm3.509 0c-.004 1.279-.005 2.558.001 3.838l.804.001c.007-.569.001-1.139.005-1.708.488-.005.977-.005 1.466.001.005.569-.001 1.136.005 1.705l.804.001c.006-1.28.006-2.561.001-3.841l-.806.002c-.002.488-.001.977-.005 1.465-.488.006-.977.006-1.464.001-.002-.49-.001-.979-.005-1.469l-.806.002z"/>
    <path fill="#ffd033" d="M11.855 17.851c.378.017.794-.064 1.141.124.293.248.238.874-.175.976-.317.073-.646.035-.967.037a33.09 33.09 0 0 1 .001-1.136z"/>
    <path fill="#060606" d="M1.968.328C8.552.262 15.143.317 21.73.3c1.138-.078 2.137.976 2.07 2.1.002 6.44.002 12.881 0 19.321.06 1.078-.869 2.082-1.955 2.064-6.523.01-13.046.007-19.57.001-1.049.026-1.98-.91-1.97-1.955C.292 15.353.303 8.875.299 2.396.253 1.424.987.456 1.968.327zm-.121.702c-.514.098-.882.605-.844 1.123-.004 6.565-.004 13.13 0 19.696-.041.63.523 1.186 1.148 1.158 6.565.006 13.132.006 19.698 0 .625.026 1.187-.529 1.147-1.159.004-6.564.004-13.13 0-19.694.06-.69-.6-1.242-1.266-1.163-6.628.026-13.261-.053-19.884.04z"/>
    <path d="M4.182 3.683c2.434-.002 4.867-.013 7.301.005-.037.586.072 1.195-.052 1.765-1.112 1.47-2.2 2.974-3.049 4.616-.694 1.321-1.324 2.74-1.384 4.254-.791.002-1.582.006-2.371-.004.162-1.079.521-2.129 1.139-3.035C7.015 9.285 8.4 7.373 9.727 5.426c-1.848-.018-3.696.001-5.544-.01a83.527 83.527 0 0 1-.001-1.734zM14.132 3.682c2.04-.005 4.08-.004 6.12 0 .002.559.002 1.12.001 1.68-1.519.006-3.04-.001-4.559.004-.043.76-.067 1.519-.12 2.279 1.34.053 2.771.252 3.835 1.144 1.542 1.276 1.417 4.087-.356 5.104-1.528.942-3.426.781-5.102.397-.01-.517-.01-1.034-.004-1.552 1.033.376 2.231.797 3.294.299 1.345-.721 1.265-3.002-.115-3.646-.925-.437-1.991-.499-2.994-.366-.004-1.781-.004-3.562 0-5.342z"/>
    <path fill="#231f20" d="M6.602 17.191c.385-.004.772-.004 1.157.002l.691 3.002c.234-1.001.458-2.004.692-3.005.382-.004.764-.004 1.146.001.002 1.279.004 2.558-.001 3.838a92.256 92.256 0 0 0-.744 0c-.014-1.039.007-2.078-.012-3.116-.244 1.033-.469 2.071-.704 3.107-.256.006-.51.012-.764.016-.247-1.036-.461-2.078-.707-3.114-.016 1.036.004 2.071-.01 3.107l-.744.002c-.005-1.28-.004-2.56 0-3.84zM11.042 17.191c.719.025 1.452-.073 2.16.078 1.027.258 1.042 2.063-.001 2.303-.44.104-.899.072-1.348.084-.002.448-.004.895-.004 1.343L11.04 21c-.002-1.27-.004-2.539.001-3.809zm.813.66a33.09 33.09 0 0 0-.001 1.136c.322-.002.65.036.967-.037.413-.102.468-.727.175-.976-.347-.187-.763-.107-1.141-.124zM14.551 17.191l.806-.002c.004.49.002.979.005 1.469.487.005.976.005 1.464-.001.004-.488.002-.977.005-1.465l.806-.002c.005 1.28.005 2.561-.001 3.841l-.804-.001c-.006-.569 0-1.136-.005-1.705-.49-.006-.978-.006-1.466-.001-.004.569.002 1.139-.005 1.708l-.804-.001a490.997 490.997 0 0 1-.001-3.838z"/>
</svg>
