<svg xmlns="http://www.w3.org/2000/svg" width="24" height="24">
    <path d="M1.461 6H22.51a2.058 2.058 0 0 1 1.491 1.461v9.047a2.083 2.083 0 0 1-1.459 1.491H1.489a2.08 2.08 0 0 1-1.488-1.461V7.487A2.055 2.055 0 0 1 1.462 6zm.03.439C.824 6.568.352 7.24.402 7.909c.003 2.766-.007 5.533.003 8.299-.013.739.645 1.405 1.387 1.387 6.765.011 13.533.001 20.299.005.781.066 1.519-.605 1.503-1.392.009-2.805.009-5.611 0-8.417.024-.849-.809-1.497-1.625-1.401-6.825.033-13.659-.063-20.479.048z"/>
    <path d="M11.013 9.843c.819-1.677 2.814-2.675 4.643-2.215 1.153.235 2.283 1.049 2.535 2.251.355 1.731-1.14 3.493-2.853 3.651-2.841.417-5.751.222-8.571-.264-1.023-.097-1.83-1.257-1.361-2.226.306-.765 1.267-1.005 1.975-.669.359-.727.993-1.446 1.857-1.495.727-.059 1.367.403 1.773.967zm.286.975c-.069.267-.054.575-.257.789-.141-.915-.623-2.079-1.683-2.167-1.047.096-1.581 1.225-1.713 2.154-.269-.433-.654-.996-1.251-.759-.883.297-.615 1.713.269 1.813 2.397.498 4.875.653 7.317.471.899-.099 1.899-.097 2.634-.705.879-.661 1.365-1.943.813-2.961-.591-1.107-1.983-1.452-3.149-1.331-1.443.129-2.679 1.293-2.981 2.695zM6.75 14.057l.525-.001c-.251.564-.499 1.128-.753 1.691-.174-.003-.348-.003-.521-.003.249-.563.498-1.125.749-1.686zM11.241 14.065c.177-.006.355-.011.533-.015-.246.567-.498 1.131-.751 1.695l-.519-.003c.245-.559.497-1.115.738-1.677zM15.75 14.057l.525-.001c-.251.564-.499 1.127-.753 1.689-.174-.001-.348-.001-.521-.003.249-.563.498-1.125.749-1.686zM9 14.808l.525.001a372.97 372.97 0 0 0-.75 1.687l-.525-.001c.247-.564.498-1.125.749-1.687zM12.753 16.495c.246-.564.498-1.125.747-1.686l.523-.001c-.247.563-.501 1.123-.745 1.687h-.525z"/>
    <path fill="#fff" d="M1.491 6.439c6.821-.111 13.653-.015 20.479-.048.816-.096 1.649.552 1.625 1.401.009 2.805.009 5.611 0 8.417.015.787-.723 1.458-1.503 1.392-6.767-.003-13.533.006-20.299-.005-.743.018-1.401-.648-1.387-1.387C.395 13.443.405 10.676.403 7.91c-.049-.669.423-1.341 1.089-1.47zm9.522 3.404c-.407-.564-1.047-1.026-1.773-.967-.865.049-1.499.768-1.857 1.495-.708-.336-1.669-.097-1.975.669-.469.969.337 2.129 1.361 2.226 2.819.486 5.73.681 8.571.264 1.713-.157 3.209-1.919 2.853-3.651-.253-1.203-1.383-2.016-2.535-2.251-1.829-.459-3.823.537-4.643 2.215zM6.75 14.057c-.251.561-.501 1.123-.749 1.686l.521.003c.253-.563.501-1.127.753-1.691l-.525.001zm4.491.008c-.241.561-.493 1.117-.738 1.677l.519.003c.253-.564.505-1.128.751-1.695l-.533.015zm4.509-.008c-.251.561-.501 1.123-.749 1.686l.521.003c.253-.563.501-1.125.753-1.689l-.525.001zM9 14.808c-.251.561-.501 1.123-.749 1.687l.525.001c.249-.564.499-1.125.75-1.687l-.525-.001zm3.753 1.687h.525c.245-.564.498-1.125.745-1.687l-.523.001c-.249.561-.501 1.122-.747 1.686z"/>
    <path fill="#fff" d="M11.299 10.818c.303-1.403 1.537-2.567 2.981-2.695 1.165-.121 2.559.223 3.149 1.331.553 1.017.067 2.299-.813 2.961-.735.607-1.735.605-2.634.705a26.46 26.46 0 0 1-7.317-.471c-.883-.099-1.152-1.515-.269-1.813.597-.237.983.327 1.251.759.131-.929.666-2.058 1.713-2.154 1.059.087 1.542 1.251 1.683 2.167.203-.213.187-.521.257-.789z"/>
</svg>
