<!-- Generated by IcoMoon.io -->
<svg version="1.1" xmlns="http://www.w3.org/2000/svg" width="32" height="24" viewBox="0 0 32 24">
<title>complementary--turn-right--g1</title>
<path fill="#231f20" d="M2.117 0h27.699c1.24 0.3 2.13 1.418 2.219 2.68v18.756c-0.141 1.141-0.857 2.245-2.006 2.564h-28.134c-0.956-0.257-1.629-1.084-1.896-2.009v-19.99c0.292-0.99 1.131-1.737 2.117-2.001M2.154 0.354c-1.162 0.283-1.912 1.442-1.936 2.603-0.015 5.428-0.002 10.857-0.006 16.285 0.014 0.986-0.086 1.997 0.22 2.952 0.363 0.927 1.323 1.572 2.313 1.595 8.813-0.002 17.627-0.002 26.44 0 1.181-0.010 2.266-0.943 2.429-2.11-0.002-6.417 0.001-12.834-0.002-19.252-0.114-1.051-1.058-1.995-2.109-2.109-8.776-0.003-17.553 0.001-26.33-0.002-0.338 0.006-0.683-0.032-1.018 0.038z"></path>
<path fill="#231f20" d="M2.365 0.671c0.335-0.070 0.68-0.032 1.018-0.038 8.636 0.003 17.273-0.001 25.907 0.002 1.315 0.089 2.123 1.41 2.102 2.639 0.020 5.251 0.002 10.504 0.008 15.756-0.015 0.985 0.087 1.997-0.22 2.952-0.329 0.897-1.274 1.466-2.208 1.49-8.743-0.003-17.486 0.001-26.229-0.002-1.271-0.108-2.221-1.278-2.21-2.533-0.014-5.923-0.004-11.847-0.005-17.77-0.006-1.11 0.717-2.242 1.835-2.496M2.682 1.41c-0.677 0.15-1.304 0.708-1.308 1.44-0.001 6.135 0.001 12.271-0.001 18.406 0.072 0.826 0.868 1.483 1.69 1.471 8.531 0.010 17.062 0.001 25.593 0.004 0.847 0.022 1.748-0.483 1.894-1.37 0.014-6.17 0-12.342 0.006-18.512-0.064-0.792-0.791-1.452-1.583-1.474-8.424-0.003-16.849 0.001-25.273-0.002-0.339 0.007-0.684-0.032-1.018 0.037z"></path>
<path fill="#231f20" d="M19.922 3.699c0.214 0.008 0.44-0.034 0.645 0.038 2.127 1.482 4.257 2.967 6.389 4.444 0.053 0.152-0.111 0.205-0.204 0.28-2.186 1.476-4.227 3.172-6.464 4.566-0.264-0.079-0.524-0.18-0.738-0.359-0.064-0.926 0.422-1.755 0.667-2.622-3.411-0.003-6.823-0.003-10.234 0-0.153 0.156-0.309 0.312-0.465 0.466-0.005 3.121 0 6.242-0.003 9.363-1.162 0.001-2.325 0.001-3.487 0 0.001-4.019-0.005-8.037 0.002-12.056 0.132-0.688 0.79-1.201 1.472-1.264 4.239-0.001 8.477 0.002 12.715-0.002-0.204-0.835-0.759-1.599-0.658-2.49 0.122-0.119 0.243-0.241 0.364-0.364z"></path>
<path fill="#ffd24e" d="M2.154 0.354c0.335-0.070 0.68-0.032 1.018-0.038 8.777 0.003 17.554-0.001 26.33 0.002 1.051 0.114 1.995 1.058 2.109 2.109 0.003 6.418 0 12.835 0.002 19.252-0.163 1.167-1.248 2.101-2.429 2.11-8.813-0.002-17.627-0.002-26.44 0-0.991-0.023-1.951-0.668-2.313-1.595-0.306-0.955-0.206-1.965-0.22-2.952 0.004-5.428-0.008-10.857 0.006-16.285 0.024-1.161 0.774-2.32 1.936-2.603M2.365 0.671c-1.119 0.254-1.842 1.386-1.835 2.496 0.001 5.923-0.008 11.847 0.005 17.77-0.012 1.255 0.939 2.425 2.21 2.533 8.743 0.003 17.486-0.001 26.229 0.002 0.934-0.023 1.879-0.593 2.208-1.49 0.307-0.955 0.205-1.967 0.22-2.952-0.006-5.253 0.012-10.505-0.008-15.756 0.021-1.229-0.787-2.55-2.102-2.639-8.635-0.003-17.272 0.001-25.907-0.002-0.338 0.006-0.683-0.032-1.018 0.038z"></path>
<path fill="#ffd24e" d="M2.682 1.41c0.334-0.069 0.679-0.030 1.018-0.037 8.424 0.003 16.849-0.001 25.273 0.002 0.792 0.022 1.518 0.682 1.583 1.474-0.006 6.17 0.007 12.342-0.006 18.512-0.146 0.887-1.047 1.392-1.894 1.37-8.531-0.003-17.062 0.005-25.593-0.004-0.822 0.013-1.618-0.645-1.69-1.471 0.002-6.135 0-12.271 0.001-18.406 0.004-0.732 0.631-1.29 1.308-1.44M19.922 3.699c-0.121 0.123-0.242 0.244-0.364 0.364-0.102 0.891 0.454 1.655 0.658 2.49-4.238 0.004-8.476 0.001-12.715 0.002-0.682 0.063-1.34 0.576-1.472 1.264-0.007 4.019-0.001 8.037-0.002 12.056 1.162 0.001 2.325 0.001 3.487 0 0.003-3.121-0.002-6.242 0.003-9.363 0.156-0.154 0.312-0.31 0.465-0.466 3.412-0.003 6.824-0.003 10.234 0-0.245 0.867-0.732 1.696-0.667 2.622 0.214 0.18 0.474 0.28 0.738 0.359 2.237-1.395 4.278-3.090 6.464-4.566 0.093-0.075 0.257-0.128 0.204-0.28-2.133-1.477-4.262-2.961-6.389-4.444-0.205-0.072-0.431-0.030-0.645-0.038z"></path>
</svg>
