<svg xmlns="http://www.w3.org/2000/svg" width="24" height="24">
    <path fill="#ffd033" d="M1.739 0h20.533c.893.127 1.591.883 1.728 1.762v20.441c-.103.931-.896 1.687-1.817 1.798H1.832C.914 23.886.141 23.166 0 22.245V1.759C.137.883.845.117 1.739.001zm.23.328C.986.455.254 1.425.3 2.398.304 8.876.292 15.354.305 21.833c-.008 1.045.922 1.979 1.972 1.954 6.522.006 13.046.008 19.568-.001 1.25.026 2.143-1.241 1.958-2.425-.011-6.36.008-12.721-.01-19.082.011-1.082-.976-2.051-2.065-1.978C15.142.319 8.553.263 1.969.329z"/>
    <path fill="#ffd033" d="M1.847 1.03C8.47.938 15.103 1.017 21.731.99c.666-.079 1.326.472 1.266 1.163.004 6.565.004 13.13 0 19.694.041.63-.522 1.184-1.147 1.159-6.566.006-13.133.006-19.699 0-.625.026-1.188-.528-1.147-1.159-.005-6.564-.004-13.129 0-19.694-.038-.517.33-1.026.844-1.123zm6.788 3.406c-1.489 2.07-2.975 4.141-4.476 6.203-.401.458-.178 1.109-.226 1.658 1.558.008 3.116-.001 4.674.004.006.869-.004 1.738.005 2.606.449.005.896.005 1.345.001.007-.869-.002-1.738.005-2.606.532-.001 1.063-.001 1.594-.004-.005-.4-.006-.798-.008-1.196-.529-.001-1.057-.004-1.585-.002-.007-2.309.002-4.618-.005-6.926-.438.059-1.055-.208-1.322.263zm6.893-.174c-.976.145-1.795.838-2.231 1.705-.732 1.445-.823 3.114-.736 4.704.086 1.216.373 2.482 1.165 3.442 1.258 1.524 3.974 1.424 5.089-.22.944-1.343 1.108-3.059 1.086-4.655-.035-1.385-.239-2.88-1.162-3.976-.773-.912-2.071-1.195-3.212-1.001zM6.602 17.19a546.42 546.42 0 0 0 0 3.841l.745-.002c.01-1.034-.002-2.069.005-3.103.253 1.033.463 2.077.709 3.113l.769-.022c.229-1.034.457-2.069.7-3.098.022 1.037 0 2.074.012 3.112h.746c.004-1.279.002-2.56.001-3.839-.383-.002-.766-.002-1.148 0-.232 1.001-.456 2.004-.691 3.004-.229-1.001-.462-2.002-.69-3.002a74.52 74.52 0 0 0-1.158-.002zm4.44.001c-.005 1.27-.002 2.539-.001 3.81.27-.002.539-.002.809-.002-.001-.448.001-.895.004-1.343.449-.011.907.02 1.348-.084 1.042-.239 1.028-2.045.002-2.303-.709-.152-1.442-.053-2.161-.078zm3.509-.001c-.002 1.28-.004 2.56 0 3.84.269-.001.538 0 .806.001.002-.57.002-1.14.002-1.71.49-.004.979-.004 1.468.001.002.57.001 1.139.004 1.708.269-.001.538-.001.806.001.004-1.282.004-2.562 0-3.842l-.808.001c.001.488-.002.978-.004 1.466a65.04 65.04 0 0 1-1.465.001c0-.49-.002-.979-.004-1.469l-.806.001z"/>
    <path fill="#ffd033" d="M15.88 5.45c.772-.151 1.681.14 2.018.899.599 1.351.589 2.874.527 4.322-.083.912-.17 1.916-.793 2.64-.637.77-1.958.904-2.671.172-.588-.581-.775-1.432-.888-2.221-.148-1.414-.145-2.876.265-4.249.218-.722.745-1.45 1.542-1.562zM5.183 11.096c1.14-1.616 2.284-3.23 3.426-4.846 0 1.616.004 3.232-.001 4.848-1.142.001-2.284.005-3.425-.002zM11.854 17.849c.378.019.794-.06 1.144.126.29.25.236.874-.176.974-.317.073-.646.037-.968.04-.004-.38-.004-.76.001-1.14z"/>
    <path fill="#050505" d="M1.969.328C8.553.262 15.143.318 21.728.3c1.09-.073 2.076.895 2.065 1.978.018 6.361-.001 12.722.01 19.082.185 1.184-.708 2.452-1.958 2.425-6.522.01-13.046.007-19.568.001-1.05.025-1.98-.908-1.972-1.954C.292 15.353.304 8.874.3 2.397.254 1.424.986.454 1.969.327zm-.122.702c-.514.097-.882.606-.844 1.123-.004 6.565-.005 13.13 0 19.694-.041.631.522 1.186 1.147 1.159 6.566.006 13.133.006 19.699 0 .625.025 1.188-.529 1.147-1.159.004-6.564.004-13.129 0-19.694.06-.691-.6-1.242-1.266-1.163-6.628.026-13.261-.053-19.884.04z"/>
    <path fill="#231f20" d="M8.635 4.436c.268-.47.884-.204 1.322-.263.007 2.309-.002 4.618.005 6.926.528-.001 1.056.001 1.585.002.002.398.004.797.008 1.196l-1.594.004c-.007.869.002 1.738-.005 2.606-.449.004-.896.004-1.345-.001-.008-.869.001-1.738-.005-2.606-1.558-.005-3.116.005-4.674-.004.048-.55-.175-1.2.226-1.658 1.501-2.062 2.987-4.133 4.476-6.203zm-3.452 6.66c1.141.007 2.282.004 3.425.002.005-1.616.001-3.232.001-4.848-1.142 1.615-2.286 3.229-3.426 4.846zM15.528 4.262c1.141-.194 2.44.089 3.212 1.001.923 1.096 1.127 2.591 1.162 3.976.022 1.596-.142 3.312-1.086 4.655-1.115 1.644-3.832 1.744-5.089.22-.792-.96-1.079-2.226-1.165-3.442-.088-1.59.004-3.259.736-4.704.436-.868 1.255-1.56 2.231-1.705zm.352 1.188c-.797.113-1.324.84-1.542 1.562-.41 1.373-.413 2.836-.265 4.249.113.79.3 1.64.888 2.221.713.732 2.034.599 2.671-.172.623-.724.71-1.728.793-2.64.062-1.448.072-2.971-.527-4.322-.337-.758-1.247-1.05-2.018-.899zM6.602 17.19c.385-.001.772-.001 1.158.002.228 1.001.461 2.002.69 3.002.235-1 .46-2.003.691-3.004.383-.002.766-.002 1.148 0 .001 1.279.002 2.56-.001 3.839a92.753 92.753 0 0 0-.746 0c-.012-1.038.01-2.075-.012-3.112-.242 1.03-.47 2.064-.7 3.098l-.769.022c-.246-1.036-.456-2.08-.709-3.113-.007 1.034.005 2.069-.005 3.103l-.745.002a546.42 546.42 0 0 1 0-3.841zM11.042 17.191c.719.025 1.452-.074 2.161.078 1.026.258 1.039 2.064-.002 2.303-.44.104-.899.073-1.348.084-.002.448-.005.895-.004 1.343-.27 0-.539 0-.809.002-.001-1.271-.004-2.54.001-3.81zm.812.658c-.005.38-.005.76-.001 1.14.323-.002.652.034.968-.04.413-.101.467-.725.176-.974-.349-.186-.766-.107-1.144-.126zM14.551 17.19l.806-.001c.001.49.004.979.004 1.469.488.005.977.005 1.465-.001.001-.488.005-.978.004-1.466l.808-.001c.004 1.28.004 2.561 0 3.842a72.212 72.212 0 0 0-.806-.001c-.002-.569-.001-1.138-.004-1.708a79.805 79.805 0 0 0-1.468-.001c0 .57 0 1.14-.002 1.71-.269-.001-.538-.002-.806-.001-.004-1.28-.002-2.56 0-3.84z"/>
</svg>
