<!-- Generated by IcoMoon.io -->
<svg version="1.1" xmlns="http://www.w3.org/2000/svg" width="24" height="24" viewBox="0 0 24 24">
<title>complementary--priority-route-at-intersection--g4</title>
<path fill="#000" d="M1.436 0.45c0.35-0.072 0.71-0.047 1.064-0.051 6.501 0.002 13.002 0 19.503 0.001 0.424-0.007 0.899 0.065 1.187 0.41 0.37 0.436 0.397 1.044 0.41 1.589-0.004 6.401-0.007 12.802-0.015 19.203-0.016 0.562-0.041 1.199-0.451 1.632-0.289 0.306-0.731 0.368-1.13 0.366-6.669 0.001-13.338-0.001-20.007 0-0.424 0.009-0.9-0.065-1.188-0.409-0.371-0.436-0.397-1.045-0.409-1.59 0.005-6.436 0.004-12.871 0.016-19.307-0.013-0.721 0.189-1.676 1.020-1.844M1.333 0.634c-0.669 0.243-0.762 1.055-0.769 1.669-0.008 6.498-0.018 12.995-0.012 19.493-0.038 0.715 0.292 1.657 1.148 1.644 6.699 0.031 13.4 0.003 20.1 0.015 0.423-0.002 0.915 0.007 1.229-0.326 0.402-0.435 0.393-1.073 0.41-1.629 0-6.432 0.017-12.864 0.009-19.296 0.036-0.714-0.293-1.655-1.148-1.643-6.699-0.034-13.401-0.003-20.101-0.016-0.289 0.004-0.588-0.008-0.866 0.089z"></path>
<path fill="#000" d="M1.634 0.943c6.822-0.054 13.649-0.008 20.473-0.023 0.693-0.069 1.081 0.678 1.038 1.282 0.003 6.532 0.003 13.064-0.001 19.596 0.031 0.566-0.292 1.282-0.943 1.277-6.801 0.009-13.602 0.007-20.403 0.001-0.652 0.007-0.975-0.712-0.943-1.278-0.003-6.532-0.003-13.064 0-19.596-0.014-0.512 0.213-1.154 0.779-1.259M1.719 1.523c-0.276 0.136-0.266 0.505-0.278 0.77 0.002 6.504-0.003 13.009 0.002 19.513 0 0.278 0.073 0.739 0.45 0.687 6.738 0 13.476 0.001 20.214-0.001 0.375 0.049 0.449-0.409 0.449-0.686 0.005-6.537 0.004-13.075 0-19.611 0-0.279-0.071-0.742-0.45-0.688-6.795 0.010-13.593-0.021-20.387 0.016z"></path>
<path fill="#000" d="M10.038 3.179c1.32-0.025 2.639-0.013 3.959-0.026 0.001 1.651 0 3.302 0 4.952-0.032 0.998 0.888 1.964 1.9 1.897 1.649-0.003 3.299-0.004 4.949 0 0.001 1.319 0.001 2.638-0.001 3.956-1.548 0.004-3.097 0.001-4.645 0.002-2.973 0.229-5.748-2.296-6.139-5.184-0.052-1.864-0.008-3.731-0.023-5.597z"></path>
<path fill="#000" d="M11.029 14.928c0.642-0.002 1.283-0.003 1.924 0.001 0.003 1.974 0.023 3.948 0.011 5.922-0.647-0.012-1.293 0.005-1.939-0.010 0.009-1.971 0-3.942 0.004-5.913z"></path>
<path fill="#fff" d="M1.333 0.634c0.278-0.097 0.577-0.085 0.866-0.089 6.7 0.013 13.402-0.018 20.101 0.016 0.855-0.012 1.184 0.929 1.148 1.643 0.008 6.432-0.009 12.864-0.009 19.296-0.017 0.556-0.008 1.194-0.41 1.629-0.314 0.333-0.806 0.324-1.229 0.326-6.7-0.012-13.401 0.016-20.1-0.015-0.856 0.013-1.186-0.929-1.148-1.644-0.006-6.498 0.004-12.995 0.012-19.493 0.007-0.614 0.1-1.426 0.769-1.669M1.634 0.943c-0.566 0.105-0.793 0.747-0.779 1.259-0.003 6.532-0.003 13.064 0 19.596-0.032 0.566 0.291 1.285 0.943 1.278 6.801 0.006 13.602 0.008 20.403-0.001 0.651 0.005 0.974-0.711 0.943-1.277 0.004-6.532 0.004-13.064 0.001-19.596 0.043-0.604-0.345-1.351-1.038-1.282-6.824 0.015-13.651-0.031-20.473 0.023z"></path>
<path fill="#fff" d="M1.719 1.523c6.794-0.037 13.592-0.006 20.387-0.016 0.379-0.054 0.45 0.409 0.45 0.688 0.004 6.536 0.005 13.074 0 19.611 0 0.277-0.074 0.735-0.449 0.686-6.738 0.002-13.476 0.001-20.214 0.001-0.377 0.052-0.45-0.409-0.45-0.687-0.005-6.504 0-13.009-0.002-19.513 0.012-0.265 0.002-0.634 0.278-0.77M10.038 3.179c0.015 1.866-0.029 3.733 0.023 5.597 0.391 2.888 3.166 5.413 6.139 5.184 1.548-0.001 3.097 0.002 4.645-0.002 0.002-1.318 0.002-2.637 0.001-3.956-1.65-0.004-3.3-0.003-4.949 0-1.012 0.067-1.932-0.899-1.9-1.897 0-1.65 0.001-3.301 0-4.952-1.32 0.013-2.639 0.001-3.959 0.026M11.029 14.928c-0.004 1.971 0.005 3.942-0.004 5.913 0.646 0.015 1.292-0.002 1.939 0.010 0.012-1.974-0.008-3.948-0.011-5.922-0.641-0.004-1.282-0.003-1.924-0.001z"></path>
</svg>
