<svg xmlns="http://www.w3.org/2000/svg" width="24" height="24">
    <path d="M0 3.273h2.69c2.556 1.824 5.075 3.7 7.619 5.541-.393-.537-.58-1.19-.388-1.84-.721-.084-.8-.878-1.121-1.381-.559-.984 1.235-1.818 1.784-.951.258.479.21 1.136.678 1.489.918.193 1.767-.531 2.683-.297a6.219 6.219 0 0 1 1.965.772c.593.353.394 1.148.553 1.718.047.52.593.737.807 1.164-.089.281-.384.397-.599.563.076 1.151.068 2.305.063 3.459 2.393 1.745 4.799 3.478 7.175 5.246v1.972h-2.691c-.617-.329-1.083-1.055-1.848-1.001-6.161.007-12.322.007-18.484 0 .405-1.669 1.404-3.142 2.537-4.407.217-.264.397-.639.776-.68.542-.05.988.321 1.413.598.77-.345 1.452-.871 2.271-1.092.646-.641 1.504-.969 2.212-1.519C6.74 10.15 3.353 7.714-.001 5.236V3.273zm14.277 4.09c.65.521.841 1.567 1.653 1.831-.108-.609-.409-1.156-.672-1.707-.263-.217-.663-.123-.982-.123zm-2.462 2.559c.202.141.403.284.606.425.063-.295.233-.672-.106-.862-.299-.323-.453.202-.5.438zm-3.667 4.49c-.623.639-1.505.913-2.356 1.086.915.938 1.207 2.334 2.219 3.194.995.567 2.095-.19 3.142.043.251-.275.713-.447.758-.854.007-.544-.791-.273-.851-.78-.304-1.284-.612-2.574-1.113-3.799-.623.329-1.3.596-1.798 1.111zm3.99-.288c.085.875.557 1.657.623 2.537-.001.542.373.954.569 1.428-.471.255-.988.425-1.411.763.887.217 1.81.397 2.717.18l.14-.38c.186-.056.372-.123.559-.18.055-.263.076-.531.072-.8l-.34-.123a12 12 0 0 1-.22-1.457c-.903-.656-1.79-1.337-2.711-1.968zm4.578 3.332c.028.496-.172 1.065.14 1.502.14-.102.279-.204.416-.31.025-.231.076-.458.165-.672a62.897 62.897 0 0 0-.721-.52z"/>
    <path fill="#f9cc00" opacity=".98" d="M2.69 3.273h21.22v15.483c-2.377-1.768-4.782-3.5-7.175-5.246.005-1.153.013-2.308-.063-3.459.215-.166.509-.282.599-.563-.214-.428-.76-.644-.807-1.164-.159-.57.039-1.365-.553-1.718a6.219 6.219 0 0 0-1.965-.772c-.916-.233-1.764.49-2.683.297-.468-.353-.42-1.01-.678-1.489-.549-.868-2.342-.033-1.784.951.321.503.401 1.297 1.121 1.381-.193.65-.006 1.303.388 1.84-2.544-1.841-5.063-3.717-7.619-5.541zM0 5.236c3.355 2.479 6.742 4.913 10.096 7.391-.708.55-1.566.878-2.212 1.519-.82.221-1.502.747-2.271 1.092-.425-.276-.871-.648-1.413-.598-.379.042-.559.416-.776.68-1.133 1.265-2.132 2.737-2.537 4.407 6.161.007 12.324.007 18.484 0 .765-.054 1.231.672 1.848 1.001H0V5.236z"/>
    <path fill="#f9cc00" opacity=".98" d="M16.716 17.456c.241.172.481.345.721.52-.089.214-.14.441-.165.672-.137.105-.276.208-.416.31-.312-.436-.113-1.005-.14-1.502z"/>
    <path fill="#fccf00" d="M14.277 7.363c.318 0 .719-.093.982.123.263.551.564 1.099.672 1.707-.812-.263-1.003-1.309-1.653-1.831zM11.815 9.922c.047-.236.201-.76.5-.438.34.19.169.567.106.862-.203-.14-.404-.284-.606-.425zM8.148 14.412c.498-.515 1.175-.782 1.798-1.111.501 1.225.809 2.516 1.113 3.799.06.507.858.236.851.78-.045.407-.507.579-.758.854-1.047-.233-2.147.524-3.142-.043-1.012-.861-1.304-2.256-2.219-3.194.851-.172 1.734-.447 2.356-1.086zM12.138 14.124c.921.631 1.807 1.311 2.711 1.968.044.489.116.977.22 1.457l.34.123c.005.269-.017.537-.072.8-.188.057-.373.124-.559.18l-.14.38c-.908.217-1.831.037-2.717-.18.423-.338.94-.508 1.411-.763-.196-.475-.57-.887-.569-1.428-.065-.88-.538-1.662-.623-2.537z"/>
</svg>
