<!-- Generated by IcoMoon.io -->
<svg version="1.1" xmlns="http://www.w3.org/2000/svg" width="16" height="24" viewBox="0 0 16 24">
<title>complementary--trucks-turn-right--g1</title>
<path fill="#f0c900" d="M0.866 0h14.249c0.426 0.095 0.756 0.417 0.885 0.831v22.329c-0.114 0.405-0.425 0.719-0.828 0.84h-14.336c-0.412-0.122-0.727-0.449-0.836-0.864v-22.25c0.098-0.436 0.439-0.77 0.866-0.886M0.729 0.325c-0.339 0.143-0.505 0.52-0.475 0.873 0.004 7.235-0.002 14.47 0.004 21.704-0.038 0.466 0.381 0.88 0.845 0.849 4.598 0.004 9.196 0.003 13.794 0 0.465 0.033 0.889-0.38 0.851-0.849 0.003-7.268 0.004-14.537 0-21.805 0.033-0.463-0.384-0.874-0.846-0.841-4.534-0.008-9.068 0.003-13.602-0.005-0.191 0.006-0.392-0.003-0.571 0.074z"></path>
<path fill="#f0c900" d="M0.837 0.72c0.136-0.086 0.308-0.055 0.461-0.069 4.535 0.008 9.071-0.005 13.605 0.007 0.299-0.035 0.493 0.266 0.447 0.538-0.003 7.236 0.005 14.472-0.004 21.707 0.030 0.252-0.198 0.472-0.446 0.448-4.6 0.004-9.2 0.005-13.799-0.001-0.251 0.028-0.471-0.197-0.442-0.446-0.008-7.236 0-14.473-0.004-21.708-0.004-0.176 0.019-0.374 0.182-0.476M1.869 3.069c-0.007 1.326 0.004 2.653-0.006 3.98 2.759 0.025 5.52 0.006 8.279 0.009 0-1.33 0.006-2.66-0.002-3.991-2.757 0-5.514-0.003-8.271 0.002M10.715 4.069c-0.005 1.092 0.003 2.184-0.003 3.276-1.718 0.003-3.435 0.004-5.152-0.002 0.259 0.279 0.425 0.625 0.472 1.004 1.696-0.001 3.391 0.001 5.087-0.001 0.030-0.816 0.863-1.495 1.667-1.23 0.596 0.145 0.879 0.739 0.989 1.29 0.162-0.088 0.405-0.168 0.359-0.402-0.024-0.773 0.131-1.593-0.215-2.317-0.209-0.466-0.307-0.989-0.585-1.419-0.861-0.15-1.747-0.126-2.619-0.199M1.865 7.35c-0.002 0.242 0.002 0.485 0.021 0.726 0.493 0.164 0.994 0.34 1.524 0.27 0.051-0.378 0.211-0.73 0.474-1.006-0.673 0.015-1.346 0-2.019 0.010M4.719 7.348c-0.518-0.010-0.988 0.439-0.994 0.958-0.035 0.537 0.436 1.039 0.975 1.034 0.519 0.023 1-0.419 1.015-0.939 0.049-0.554-0.443-1.067-0.996-1.053M12.419 7.349c-0.517-0.009-0.983 0.441-0.988 0.958-0.034 0.535 0.432 1.034 0.968 1.033 0.522 0.026 1.005-0.417 1.021-0.939 0.049-0.555-0.446-1.071-1.001-1.052M7.501 12.283c0.598 0.612 1.212 1.209 1.812 1.82-0.966 0.060-1.97-0.121-2.902 0.21-1.090 0.383-1.84 1.464-1.975 2.589-0.014 1.558-0.002 3.118-0.005 4.676 0.428 0.003 0.857 0.004 1.286 0 0.007-1.495-0.004-2.99 0.004-4.485 0.014-0.928 0.863-1.706 1.776-1.719 0.616-0.005 1.232-0.001 1.849 0.003-0.607 0.625-1.236 1.228-1.842 1.854 0.53 0.004 1.060 0.003 1.59 0.001 0.828-0.821 1.65-1.649 2.476-2.473-0.82-0.832-1.65-1.654-2.478-2.478-0.531-0.002-1.061-0.003-1.591 0.002z"></path>
<path fill="#f0c900" d="M11.714 4.567c0.506 0.028 1.012 0.060 1.518 0.096 0.175 0.514 0.496 1.008 0.508 1.559-0.677-0.065-1.351-0.152-2.026-0.231-0.003-0.475-0.003-0.949 0-1.424z"></path>
<path fill="#000" d="M0.729 0.325c0.179-0.077 0.38-0.068 0.571-0.074 4.534 0.008 9.068-0.003 13.602 0.005 0.462-0.033 0.879 0.378 0.846 0.841 0.004 7.268 0.003 14.537 0 21.805 0.038 0.469-0.386 0.882-0.851 0.849-4.598 0.003-9.196 0.004-13.794 0-0.464 0.031-0.883-0.383-0.845-0.849-0.006-7.234 0-14.469-0.004-21.704-0.030-0.353 0.136-0.73 0.475-0.873M0.837 0.72c-0.163 0.102-0.186 0.3-0.182 0.476 0.004 7.235-0.004 14.472 0.004 21.708-0.029 0.249 0.191 0.474 0.442 0.446 4.599 0.006 9.199 0.005 13.799 0.001 0.248 0.024 0.476-0.196 0.446-0.448 0.009-7.235 0.001-14.471 0.004-21.707 0.046-0.272-0.148-0.573-0.447-0.538-4.534-0.012-9.070 0.001-13.605-0.007-0.153 0.014-0.325-0.017-0.461 0.069z"></path>
<path fill="#000" d="M1.869 3.069c2.757-0.005 5.514-0.002 8.271-0.002 0.008 1.331 0.002 2.661 0.002 3.991-2.759-0.003-5.52 0.016-8.279-0.009 0.010-1.327-0.001-2.654 0.006-3.98z"></path>
<path fill="#000" d="M10.715 4.069c0.872 0.073 1.758 0.049 2.619 0.199 0.278 0.43 0.376 0.953 0.585 1.419 0.346 0.724 0.191 1.544 0.215 2.317 0.046 0.234-0.197 0.314-0.359 0.402-0.11-0.551-0.393-1.145-0.989-1.29-0.804-0.265-1.637 0.414-1.667 1.23-1.696 0.002-3.391 0-5.087 0.001-0.047-0.379-0.213-0.725-0.472-1.004 1.717 0.006 3.434 0.005 5.152 0.002 0.006-1.092-0.002-2.184 0.003-3.276M11.714 4.567c-0.003 0.475-0.003 0.949 0 1.424 0.675 0.079 1.349 0.166 2.026 0.231-0.012-0.551-0.333-1.045-0.508-1.559-0.506-0.036-1.012-0.068-1.518-0.096z"></path>
<path fill="#000" d="M1.865 7.35c0.673-0.010 1.346 0.005 2.019-0.010-0.263 0.276-0.423 0.628-0.474 1.006-0.53 0.070-1.031-0.106-1.524-0.27-0.019-0.241-0.023-0.484-0.021-0.726z"></path>
<path fill="#000" d="M4.719 7.348c0.553-0.014 1.045 0.499 0.996 1.053-0.015 0.52-0.496 0.962-1.015 0.939-0.539 0.005-1.010-0.497-0.975-1.034 0.006-0.519 0.476-0.968 0.994-0.958z"></path>
<path fill="#000" d="M12.419 7.349c0.555-0.019 1.050 0.497 1.001 1.052-0.016 0.522-0.499 0.965-1.021 0.939-0.536 0.001-1.002-0.498-0.968-1.033 0.005-0.517 0.471-0.967 0.988-0.958z"></path>
<path fill="#000" d="M7.501 12.283c0.53-0.005 1.060-0.004 1.591-0.002 0.828 0.824 1.658 1.646 2.478 2.478-0.826 0.824-1.648 1.652-2.476 2.473-0.53 0.002-1.060 0.003-1.59-0.001 0.606-0.626 1.235-1.229 1.842-1.854-0.617-0.004-1.233-0.008-1.849-0.003-0.913 0.013-1.762 0.791-1.776 1.719-0.008 1.495 0.003 2.99-0.004 4.485-0.429 0.004-0.858 0.003-1.286 0 0.003-1.558-0.009-3.118 0.005-4.676 0.135-1.125 0.885-2.206 1.975-2.589 0.932-0.331 1.936-0.15 2.902-0.21-0.6-0.611-1.214-1.208-1.812-1.82z"></path>
</svg>
