<!-- Generated by IcoMoon.io -->
<svg version="1.1" xmlns="http://www.w3.org/2000/svg" width="32" height="24" viewBox="0 0 32 24">
<title>complementary--roundabout-go-left--g1</title>
<path fill="#fff" d="M1.435 0.145c0.243-0.098 0.507-0.109 0.766-0.111 9.232 0.001 18.465-0.002 27.698 0.001 1.098-0.029 2.095 0.969 2.065 2.067 0.002 6.599 0.002 13.197 0 19.796 0.029 1.098-0.968 2.095-2.066 2.066-9.265 0.003-18.53 0.003-27.795 0-1.098 0.029-2.098-0.967-2.067-2.066-0.002-6.598-0.001-13.197 0-19.796-0.022-0.865 0.591-1.677 1.399-1.957M1.842 0.561c-0.762 0.123-1.349 0.863-1.308 1.633 0.002 6.571-0.005 13.142 0.003 19.713-0.005 0.862 0.801 1.606 1.656 1.56 9.238-0.002 18.476 0.004 27.714-0.003 0.862 0.002 1.609-0.799 1.56-1.657-0.002-6.571 0.005-13.143-0.003-19.714 0-0.861-0.799-1.61-1.657-1.56-9.322 0.019-18.647-0.037-27.965 0.028z"></path>
<path fill="#fff" d="M1.94 1.36c9.252-0.063 18.512-0.007 27.766-0.028 0.502-0.075 1.006 0.34 0.96 0.86 0.002 6.538 0.002 13.077 0 19.615 0.039 0.472-0.386 0.898-0.858 0.859-9.205 0.001-18.41 0.001-27.615 0-0.472 0.040-0.9-0.386-0.859-0.859-0.001-6.538-0.001-13.076 0-19.614-0.026-0.376 0.233-0.752 0.606-0.833M17.24 5.247c-1.454 0.805-2.464 2.33-2.667 3.978-1.792-0.003-3.584 0.017-5.376-0.029 0.747-0.838 1.572-1.602 2.353-2.407-0.545-0.004-1.089-0.003-1.633-0.001-1.031 1.028-2.059 2.058-3.088 3.088 1.018 1.028 2.043 2.050 3.069 3.070 0.538 0 1.076 0.003 1.614-0.001-0.773-0.794-1.582-1.554-2.323-2.378 1.796-0.031 3.593-0.006 5.39-0.006 0.072 0.431 0.178 0.857 0.337 1.266 0.391-0.16 0.778-0.329 1.168-0.492-0.424-1.125-0.343-2.434 0.269-3.475 0.706-1.248 2.114-2.060 3.55-2.024 1.498-0.003 2.942 0.918 3.584 2.268 0.673 1.347 0.499 3.064-0.438 4.243-0.875 1.158-2.401 1.753-3.831 1.521 0 1.859 0 3.718 0 5.578 0.44 0.001 0.879 0.002 1.319-0.001 0.004-1.431-0.002-2.861 0.002-4.292 2.602-0.294 4.729-2.731 4.631-5.354-0.006-1.861-1.084-3.66-2.709-4.56-1.584-0.906-3.64-0.906-5.221 0.008z"></path>
<path fill="#000" d="M1.842 0.561c9.318-0.065 18.643-0.009 27.965-0.028 0.858-0.050 1.657 0.699 1.657 1.56 0.008 6.571 0.001 13.143 0.003 19.714 0.049 0.858-0.698 1.659-1.56 1.657-9.238 0.007-18.476 0.001-27.714 0.003-0.855 0.046-1.661-0.698-1.656-1.56-0.008-6.571-0.001-13.142-0.003-19.713-0.041-0.77 0.546-1.51 1.308-1.633M1.94 1.36c-0.373 0.081-0.632 0.457-0.606 0.833-0.001 6.538-0.001 13.076 0 19.614-0.041 0.473 0.387 0.899 0.859 0.859 9.205 0.001 18.41 0.001 27.615 0 0.472 0.039 0.897-0.387 0.858-0.859 0.002-6.538 0.002-13.077 0-19.615 0.046-0.52-0.458-0.935-0.96-0.86-9.254 0.021-18.514-0.035-27.766 0.028z"></path>
<path fill="#000" d="M17.24 5.247c1.581-0.914 3.637-0.914 5.221-0.008 1.625 0.9 2.703 2.699 2.709 4.56 0.098 2.623-2.029 5.060-4.631 5.354-0.004 1.431 0.002 2.861-0.002 4.292-0.44 0.003-0.879 0.002-1.319 0.001 0-1.86 0-3.719 0-5.578 1.43 0.232 2.956-0.363 3.831-1.521 0.937-1.179 1.111-2.896 0.438-4.243-0.642-1.35-2.086-2.271-3.584-2.268-1.436-0.036-2.844 0.776-3.55 2.024-0.612 1.041-0.693 2.35-0.269 3.475-0.39 0.163-0.777 0.332-1.168 0.492-0.159-0.409-0.265-0.835-0.337-1.266-1.797 0-3.594-0.025-5.39 0.006 0.741 0.824 1.55 1.584 2.323 2.378-0.538 0.004-1.076 0.001-1.614 0.001-1.026-1.020-2.051-2.042-3.069-3.070 1.029-1.030 2.057-2.060 3.088-3.088 0.544-0.002 1.088-0.003 1.633 0.001-0.781 0.805-1.606 1.569-2.353 2.407 1.792 0.046 3.584 0.026 5.376 0.029 0.203-1.648 1.213-3.173 2.667-3.978z"></path>
</svg>
