<?xml version="1.0" encoding="utf-8"?>
<!-- Generated by IcoMoon.io -->
<!DOCTYPE svg PUBLIC "-//W3C//DTD SVG 1.1//EN" "http://www.w3.org/Graphics/SVG/1.1/DTD/svg11.dtd">
<svg version="1.1" xmlns="http://www.w3.org/2000/svg" xmlns:xlink="http://www.w3.org/1999/xlink" width="24" height="24" viewBox="0 0 24 24">
<path fill="#edae15" d="M21.868 18.027c1.575 0 2.116-0.541 2.116-2.116v-7.854c0-1.576-0.541-2.116-2.116-2.116h-19.671c-1.576 0-2.116 0.541-2.116 2.116v7.854c0 1.576 0.541 2.116 2.116 2.116h19.671z"></path>
<path fill="#231f20" d="M21.868 17.705c1.391 0 1.794-0.402 1.794-1.794v-7.854c0-0.715-0.118-1.167-0.373-1.421s-0.706-0.373-1.421-0.373h-19.671c-0.715 0-1.167 0.118-1.421 0.373s-0.373 0.706-0.373 1.421v7.854c0 0.715 0.119 1.167 0.373 1.421s0.706 0.373 1.421 0.373zM23.274 15.911c0 1.183-0.223 1.407-1.407 1.407h-19.671c-0.597 0-0.973-0.085-1.147-0.259s-0.26-0.55-0.26-1.147v-7.854c0-0.597 0.085-0.973 0.26-1.147s0.55-0.26 1.147-0.26h19.671c0.597 0 0.973 0.085 1.147 0.26s0.259 0.55 0.259 1.147v7.854z"></path>
<path fill="#231f20" d="M8.281 7.94l-5.846 4.044 5.765 4.108c0.311 0.266 0.843 0.355 1.154 0.089 0.222-0.222 0.311-0.488 0.222-0.843l-0.524-1.652-0.001-0.056h12.868v-3.29h-12.897l0.635-1.644c0.089-0.355 0-0.621-0.222-0.843-0.311-0.266-0.843-0.178-1.154 0.089z"></path>
</svg>
