<svg xmlns="http://www.w3.org/2000/svg" width="24" height="24">
    <path fill="#231f20" d="M1.667 3h20.777c.737.202 1.37.761 1.583 1.505v14.992c-.204.692-.707 1.315-1.426 1.503H1.499C.64 20.755.104 19.931.001 19.075V5.004C.071 4.059.738 3.222 1.668 3zm.027.265C1.003 3.467.39 4.088.318 4.82.316 9.633.319 14.446.316 19.259c.122.875.936 1.576 1.822 1.582 6.636-.004 13.273.004 19.909-.004 1.018-.048 1.827-.975 1.809-1.983.029-4.518.005-9.039.012-13.558.013-.958-.659-1.968-1.661-2.059-6.582-.002-13.165.001-19.747-.002-.254.005-.513-.024-.764.028z"/>
    <path fill="#231f20" d="M1.853 3.503c.251-.053.51-.024.763-.029 6.477.002 12.954-.001 19.43.001.937.069 1.595 1.001 1.582 1.9-.002 4.442.006 8.885-.004 13.326.009.941-.704 1.819-1.658 1.9-6.557.002-13.114-.001-19.672.001a1.941 1.941 0 0 1-1.36-.619c-.369-.416-.426-.992-.461-1.523.006-4.336-.008-8.671.008-13.007-.001-.855.482-1.761 1.371-1.952zm.238.555c-.565.112-1.026.66-.984 1.241.01 4.574-.004 9.149.008 13.723.106.631.73 1.021 1.342 1.023 6.238.01 12.477 0 18.716.005.75.117 1.676-.194 1.819-1.028.01-4.627.002-9.255.004-13.883-.005-.621-.601-1.075-1.186-1.106-6.318-.002-12.637.001-18.955-.001-.254.005-.513-.025-.763.028z"/>
    <path fill="#231f20" d="M8.6 5.803c.154-.054.324-.022.485-.028.089.092.181.182.273.273.077.668-.341 1.241-.493 1.868 3.179.003 6.358.001 9.536.002.512.047 1.005.432 1.104.948.005 3.014.001 6.028.001 9.042-.871.001-1.744.002-2.615 0-.002-2.341.002-4.682-.002-7.023-.119-.115-.234-.232-.349-.349-2.559-.002-5.117-.002-7.676 0 .183.65.55 1.272.5 1.966-.16.136-.356.211-.553.269-1.728-1.084-3.312-2.39-5-3.536l-.001-.098a1951.66 1951.66 0 0 0 4.791-3.333z"/>
    <path fill="#ffd24e" d="M1.694 3.265c.251-.052.51-.023.764-.028 6.582.002 13.165-.001 19.747.001 1.003.091 1.674 1.1 1.661 2.059-.008 4.519.017 9.04-.012 13.558.018 1.008-.791 1.935-1.809 1.983-6.636.008-13.273 0-19.909.004-.886-.008-1.7-.707-1.822-1.582.002-4.813-.001-9.626.002-14.439.072-.732.686-1.354 1.376-1.555zm.159.238C.964 3.694.481 4.6.482 5.455.467 9.791.481 14.126.474 18.462c.036.53.093 1.106.461 1.523.346.373.848.608 1.36.619 6.557-.002 13.115.001 19.672-.001.953-.081 1.666-.959 1.657-1.9.011-4.442.002-8.885.004-13.326.013-.899-.646-1.831-1.582-1.9-6.477-.002-12.954.001-19.43-.001-.253.005-.512-.024-.763.029z"/>
    <path fill="#ffd24e" d="M2.091 4.058c.251-.053.509-.022.764-.028 6.318.002 12.637-.001 18.955.002.584.031 1.181.485 1.187 1.106-.002 4.628.005 9.257-.004 13.883-.143.835-1.069 1.146-1.819 1.028-6.239-.005-12.478.005-18.716-.005-.612-.002-1.235-.391-1.342-1.023-.012-4.573.003-9.149-.008-13.723-.042-.581.419-1.13.984-1.241zM8.6 5.803a2272.285 2272.285 0 0 1-4.791 3.333l.001.098c1.688 1.147 3.271 2.452 5 3.536.198-.058.394-.133.553-.269.05-.694-.316-1.316-.499-1.966 2.559-.002 5.117-.002 7.675 0 .115.117.231.234.349.349.004 2.341 0 4.682.002 7.023h2.615c-.001-3.014.004-6.028-.001-9.042-.099-.516-.592-.901-1.104-.948-3.178-.001-6.357.002-9.536-.002.153-.627.569-1.2.493-1.867-.092-.091-.183-.181-.273-.273-.161.006-.331-.026-.485.029z"/>
</svg>
