<svg xmlns="http://www.w3.org/2000/svg" width="24" height="24">
    <path fill="#231f20" d="M8.819 0h6.468c.265.118.518.272.713.492V24h-2.491c-1.235-1.208-2.44-2.446-3.673-3.657-.613-.451-1.094-1.048-1.653-1.559-.001.907-.008 1.815.004 2.724.834.829 1.662 1.664 2.496 2.493H7.999V.595c.229-.251.468-.524.819-.594zm1.782.275a983.096 983.096 0 0 0 5.306 5.306c.002-.878.005-1.756-.002-2.634A480.627 480.627 0 0 1 13.234.275C12.356.269 11.479.272 10.6.274zm-2.417.871c-.002.878-.005 1.756.001 2.634 2.58 2.565 5.139 5.149 7.723 7.71.002-.878.005-1.756-.001-2.634-2.58-2.565-5.139-5.149-7.723-7.71zm0 5.819c-.002.908-.005 1.816.001 2.725 2.58 2.565 5.139 5.15 7.723 7.71.002-.908.005-1.816-.002-2.725-2.579-2.565-5.138-5.149-7.722-7.71zm0 5.909c-.002.878-.005 1.755.001 2.634 2.58 2.565 5.139 5.149 7.723 7.71.002-.878.005-1.756-.001-2.634-2.58-2.565-5.139-5.149-7.723-7.71z"/>
    <path fill="#ffd24e" d="M10.601.275c.878-.002 1.755-.005 2.634.001.887.894 1.777 1.785 2.671 2.672.007.877.004 1.755.002 2.634A983.096 983.096 0 0 1 10.602.276zM8.184 1.146c2.584 2.561 5.143 5.145 7.723 7.71.006.877.003 1.755.001 2.634-2.584-2.561-5.143-5.145-7.723-7.71-.006-.877-.003-1.755-.001-2.634zM8.184 6.965c2.584 2.561 5.143 5.145 7.722 7.71.007.908.004 1.816.002 2.725-2.584-2.56-5.143-5.145-7.723-7.71-.006-.908-.003-1.816-.001-2.725zM8.184 12.874c2.584 2.561 5.143 5.145 7.723 7.71.006.877.003 1.755.001 2.634-2.584-2.561-5.143-5.145-7.723-7.71-.006-.878-.003-1.755-.001-2.634zM8.184 18.784c.559.511 1.04 1.108 1.653 1.559 1.233 1.211 2.438 2.449 3.673 3.657h-2.825c-.835-.829-1.663-1.664-2.496-2.493-.012-.908-.005-1.816-.004-2.724z"/>
</svg>
