<!-- Generated by IcoMoon.io -->
<svg version="1.1" xmlns="http://www.w3.org/2000/svg" width="32" height="24" viewBox="0 0 32 24">
<title>complementary--except-motorcycles--g1</title>
<path fill="#fff" d="M0.036 2.1c-0.031-1.099 0.963-2.104 2.063-2.075 9.267 0 18.534 0 27.801 0 1.104-0.031 2.092 0.972 2.062 2.072 0 6.602 0.001 13.203 0 19.804 0.027 1.041-0.835 1.935-1.837 2.099h-28.105c-1.072-0.055-2.021-1.013-1.985-2.1 0-6.6 0-13.2 0.001-19.8M1.631 0.634c-0.652 0.21-1.124 0.871-1.097 1.558 0 6.572-0.004 13.144 0.002 19.715-0.016 0.869 0.791 1.632 1.657 1.58 9.205-0.002 18.411 0.002 27.616-0.002 0.848 0.025 1.618-0.73 1.602-1.58 0.008-6.569 0.003-13.139 0.003-19.708 0.040-0.873-0.736-1.678-1.616-1.642-9.199-0.004-18.398-0.001-27.597-0.002-0.192 0.005-0.387 0.020-0.57 0.081z"></path>
<path fill="#fff" d="M1.828 1.415c0.149-0.059 0.313-0.057 0.471-0.063 9.134 0.003 18.269 0.001 27.403 0.001 0.481-0.057 0.947 0.347 0.911 0.84 0.007 6.537 0.002 13.075 0.002 19.612 0.052 0.503-0.407 0.943-0.906 0.882-9.173-0.002-18.345 0.001-27.517-0.002-0.484 0.044-0.908-0.398-0.86-0.878-0.002-6.505 0.001-13.010-0.002-19.514-0.031-0.36 0.146-0.746 0.498-0.878M14.508 4.022c0.329-0.040 0.658-0.083 0.985-0.136 0 0.228-0.001 0.457 0 0.685-0.32 0.047-0.639 0.098-0.959 0.139 0 0.276 0.002 0.553 0.004 0.83 0.349-0.016 0.665-0.148 0.923-0.381 0.463-0.387 1.126-0.362 1.64-0.092 0.435-0.727 0.136-1.787-0.685-2.079-0.794-0.34-1.724 0.216-1.908 1.034M15.627 5.327c-0.932 0.691-1.849 1.4-2.781 2.090 0.015-0.17 0.032-0.34 0.049-0.509-0.827 0.294-1.751 0.547-2.336 1.247-0.401 0.496-0.141 1.15 0.114 1.648 1.079-0.090 2.189 0.48 2.681 1.455 0.279 0.468 0.227 1.076 0.593 1.498 0.389 0.427 1 0.51 1.544 0.566 0.988 0.073 1.98 0.062 2.97 0.090-0.42-1.243 0.158-2.724 1.343-3.306 0.67-0.385 1.457-0.28 2.193-0.322 0.36-0.189 0.291-0.979-0.191-0.917-0.717-0.004-1.434 0.001-2.151 0.001-0.199-0.433-0.51-0.798-0.795-1.176-0.535 0.377-1.026 0.823-1.586 1.161-0.79 0.051-1.585-0.029-2.374 0.034-0.267 0.039-0.371 0.311-0.479 0.52-0.551-0.16-1.025-0.517-1.324-1.007 0.824-0.616 1.64-1.243 2.465-1.856 0.531 0.713 1.069 1.421 1.603 2.132 0.518-0.391 1.036-0.782 1.555-1.172-0.494-0.65-0.975-1.309-1.475-1.954-0.366-0.497-1.132-0.604-1.618-0.223M10.234 10.142c-0.988 0.283-1.737 1.231-1.772 2.26-0.070 1.021 0.567 2.031 1.509 2.422 1.495 0.709 3.41-0.478 3.456-2.125 0.181-1.662-1.607-3.102-3.193-2.557M20.334 10.143c-1.019 0.292-1.777 1.295-1.771 2.358-0.029 1.013 0.635 1.991 1.58 2.351 1.489 0.65 3.342-0.536 3.389-2.154 0.18-1.664-1.611-3.103-3.198-2.555M11.624 16.223c-0.273 0.269-0.211 0.679-0.225 1.027-0.078 0.002-0.235 0.006-0.314 0.008 0.001 0.17 0.001 0.341-0.001 0.512 0.080 0.002 0.241 0.005 0.321 0.007 0 0.892 0 1.784 0 2.677 0.213-0.002 0.425-0.002 0.638-0.001 0.001-0.893 0-1.787 0.001-2.68 0.213-0.001 0.426 0.001 0.639 0.001-0.001-0.174-0.001-0.347 0.001-0.52-0.216 0.001-0.432-0.003-0.648-0.002-0.11-0.483 0.137-0.814 0.649-0.689-0.003-0.198-0.004-0.396-0.003-0.595-0.36 0.011-0.795-0.051-1.058 0.255M19.393 15.973c0.001 0.213 0.001 0.427 0 0.641 0.213-0.002 0.426-0.002 0.639-0.001-0.001-0.213-0.001-0.427 0-0.64-0.213 0.001-0.426 0.001-0.639 0M14.029 17.581c0.004-0.082 0.011-0.246 0.015-0.328-0.215 0.001-0.428 0.001-0.642 0 0 1.067-0.001 2.134 0 3.201 0.213 0 0.426-0.002 0.639-0.001 0.017-0.704-0.034-1.412 0.023-2.114 0.096-0.484 0.691-0.593 1.066-0.354 0.149-0.185 0.295-0.371 0.438-0.56-0.485-0.318-1.128-0.256-1.539 0.156M16.060 19.838c0.484 0.858 1.765 0.845 2.39 0.152-0.157-0.138-0.311-0.279-0.469-0.416-0.489 0.511-1.468 0.314-1.502-0.464 0.679-0.032 1.359-0.011 2.038-0.017 0.202-0.924-0.463-2.041-1.502-1.865-1.208 0.155-1.381 1.705-0.955 2.61M19.394 17.253c-0.001 1.067-0.001 2.134 0 3.201 0.212-0.001 0.425-0.002 0.638-0.001 0-1.067 0.001-2.133 0-3.2-0.213 0.001-0.426 0.001-0.638 0z"></path>
<path fill="#fff" d="M10.636 10.948c0.908-0.208 1.862 0.53 1.915 1.453 0.097 0.884-0.665 1.732-1.551 1.741-0.855 0.052-1.649-0.687-1.662-1.542-0.053-0.773 0.539-1.515 1.298-1.652z"></path>
<path fill="#fff" d="M20.736 10.948c1.165-0.285 2.287 1.007 1.832 2.121-0.348 1.141-2.014 1.451-2.745 0.506-0.807-0.867-0.253-2.445 0.913-2.627z"></path>
<path fill="#fff" d="M16.481 18.527c0.071-0.861 1.359-0.864 1.429 0-0.477 0.010-0.953 0.010-1.429 0z"></path>
<path fill="#000" d="M1.631 0.634c0.183-0.061 0.378-0.076 0.57-0.081 9.199 0.001 18.398-0.002 27.597 0.002 0.88-0.036 1.656 0.769 1.616 1.642 0 6.569 0.005 13.139-0.003 19.708 0.016 0.85-0.754 1.605-1.602 1.58-9.205 0.004-18.411 0-27.616 0.002-0.866 0.052-1.673-0.711-1.657-1.58-0.006-6.571-0.002-13.143-0.002-19.715-0.027-0.687 0.445-1.348 1.097-1.558M1.828 1.415c-0.352 0.132-0.529 0.518-0.498 0.878 0.003 6.504 0 13.009 0.002 19.514-0.048 0.48 0.376 0.922 0.86 0.878 9.172 0.003 18.344 0 27.517 0.002 0.499 0.061 0.958-0.379 0.906-0.882 0-6.537 0.005-13.075-0.002-19.612 0.036-0.493-0.43-0.897-0.911-0.84-9.134 0-18.269 0.002-27.403-0.001-0.158 0.006-0.322 0.004-0.471 0.063z"></path>
<path fill="#000" d="M14.508 4.022c0.184-0.818 1.114-1.374 1.908-1.034 0.821 0.292 1.12 1.352 0.685 2.079-0.514-0.27-1.177-0.295-1.64 0.092-0.258 0.233-0.574 0.365-0.923 0.381-0.002-0.277-0.004-0.554-0.004-0.83 0.32-0.041 0.639-0.092 0.959-0.139-0.001-0.228 0-0.457 0-0.685-0.327 0.053-0.656 0.096-0.985 0.136z"></path>
<path fill="#000" d="M15.627 5.327c0.486-0.381 1.252-0.274 1.618 0.223 0.5 0.645 0.981 1.304 1.475 1.954-0.519 0.39-1.037 0.781-1.555 1.172-0.534-0.711-1.072-1.419-1.603-2.132-0.825 0.613-1.641 1.24-2.465 1.856 0.299 0.49 0.773 0.847 1.324 1.007 0.108-0.209 0.212-0.481 0.479-0.52 0.789-0.063 1.584 0.017 2.374-0.034 0.56-0.338 1.051-0.784 1.586-1.161 0.285 0.378 0.596 0.743 0.795 1.176 0.717 0 1.434-0.005 2.151-0.001 0.482-0.062 0.551 0.728 0.191 0.917-0.736 0.042-1.523-0.063-2.193 0.322-1.185 0.582-1.763 2.063-1.343 3.306-0.99-0.028-1.982-0.017-2.97-0.090-0.544-0.056-1.155-0.139-1.544-0.566-0.366-0.422-0.314-1.030-0.593-1.498-0.492-0.975-1.602-1.545-2.681-1.455-0.255-0.498-0.515-1.152-0.114-1.648 0.585-0.7 1.509-0.953 2.336-1.247-0.017 0.169-0.034 0.339-0.049 0.509 0.932-0.69 1.849-1.399 2.781-2.090z"></path>
<path fill="#000" d="M10.234 10.142c1.586-0.545 3.374 0.895 3.193 2.557-0.046 1.647-1.961 2.834-3.456 2.125-0.942-0.391-1.579-1.401-1.509-2.422 0.035-1.029 0.784-1.977 1.772-2.26M10.636 10.948c-0.759 0.137-1.351 0.879-1.298 1.652 0.013 0.855 0.807 1.594 1.662 1.542 0.886-0.009 1.648-0.857 1.551-1.741-0.053-0.923-1.007-1.661-1.915-1.453z"></path>
<path fill="#000" d="M20.334 10.143c1.587-0.548 3.378 0.891 3.198 2.555-0.047 1.618-1.9 2.804-3.389 2.154-0.945-0.36-1.609-1.338-1.58-2.351-0.006-1.063 0.752-2.066 1.771-2.358M20.736 10.948c-1.166 0.182-1.72 1.76-0.913 2.627 0.731 0.945 2.397 0.635 2.745-0.506 0.455-1.114-0.667-2.406-1.832-2.121z"></path>
<path fill="#000" d="M11.624 16.223c0.263-0.306 0.698-0.244 1.058-0.255-0.001 0.199 0 0.397 0.003 0.595-0.512-0.125-0.759 0.206-0.649 0.689 0.216-0.001 0.432 0.003 0.648 0.002-0.002 0.173-0.002 0.346-0.001 0.52-0.213 0-0.426-0.002-0.639-0.001-0.001 0.893 0 1.787-0.001 2.68-0.213-0.001-0.425-0.001-0.638 0.001 0-0.893 0-1.785 0-2.677-0.080-0.002-0.241-0.005-0.321-0.007 0.002-0.171 0.002-0.342 0.001-0.512 0.079-0.002 0.236-0.006 0.314-0.008 0.014-0.348-0.048-0.758 0.225-1.027z"></path>
<path fill="#000" d="M19.393 15.973c0.213 0.001 0.426 0.001 0.639 0-0.001 0.213-0.001 0.427 0 0.64-0.213-0.001-0.426-0.001-0.639 0.001 0.001-0.214 0.001-0.428 0-0.641z"></path>
<path fill="#000" d="M14.029 17.581c0.411-0.412 1.054-0.474 1.539-0.156-0.143 0.189-0.289 0.375-0.438 0.56-0.375-0.239-0.97-0.13-1.066 0.354-0.057 0.702-0.006 1.41-0.023 2.114-0.213-0.001-0.426 0.001-0.639 0.001-0.001-1.067 0-2.134 0-3.201 0.214 0.001 0.427 0.001 0.642 0-0.004 0.082-0.011 0.246-0.015 0.328z"></path>
<path fill="#000" d="M16.060 19.838c-0.426-0.905-0.253-2.455 0.955-2.61 1.039-0.176 1.704 0.941 1.502 1.865-0.679 0.006-1.359-0.015-2.038 0.017 0.034 0.778 1.013 0.975 1.502 0.464 0.158 0.137 0.312 0.278 0.469 0.416-0.625 0.693-1.906 0.706-2.39-0.152M16.481 18.527c0.476 0.010 0.952 0.010 1.429 0-0.070-0.864-1.358-0.861-1.429 0z"></path>
<path fill="#000" d="M19.394 17.253c0.212 0.001 0.425 0.001 0.638 0 0.001 1.067 0 2.133 0 3.2-0.213-0.001-0.426 0-0.638 0.001-0.001-1.067-0.001-2.134 0-3.201z"></path>
</svg>
