<svg xmlns="http://www.w3.org/2000/svg" width="24" height="24">
    <path fill="#373737" opacity=".89" d="M.756 0h22.728l.138.127C15.952.119 8.283.11.612.132L.755 0z"/>
    <path fill="#fff" d="M.095.882C.219.602.386.339.614.132 8.284.11 15.953.119 23.624.127c.185.183.338.394.493.601.027 7.458-.025 14.918.025 22.376a1.661 1.661 0 0 1-.622.764c-7.595.001-15.189.008-22.784-.004a2.044 2.044 0 0 1-.622-.673C.113 15.755.153 8.317.095.882zM.878.499c-.48.232-.617.821-.61 1.31.004 6.834-.005 13.668.005 20.502-.007.541.299 1.252.932 1.227 7.278.002 14.555.002 21.833 0 .636.032.939-.687.936-1.225.012-6.835.002-13.669.005-20.504.029-.579-.245-1.385-.942-1.368C15.842.431 8.648.443 1.454.435 1.261.441 1.061.428.878.5z"/>
    <path fill="#fff" d="M1.022 1.029c.159-.108.37-.05.55-.07 7.116.008 14.234-.001 21.35.004.465-.062.532.519.528.856v20.365c.002.333-.074.905-.535.832H1.323c-.457.07-.533-.499-.528-.832L.794 1.818c.008-.272.023-.582.227-.788zm1.304 8.548v4.038c1.612.008 3.224-.011 4.835.01.975.017 2.017.262 2.718.983.672.682.899 1.673.904 2.604.008 1.538-.002 3.076.005 4.615 1.347.001 2.693.002 4.04 0-.145-2.704.467-5.596-.778-8.122-1.144-2.438-3.748-4.002-6.408-4.107-1.771-.045-3.544-.011-5.315-.019zm13.795.67c-.002.842-.002 1.685 0 2.527 2.155 0 4.312.002 6.467 0 .002-.842.002-1.685 0-2.526-2.155-.002-4.312-.001-6.467-.001z"/>
    <path d="M.878.499c.183-.073.383-.059.576-.065C8.648.442 15.842.43 23.037.44c.697-.017.971.789.942 1.368-.002 6.835.007 13.669-.005 20.504.004.538-.299 1.257-.936 1.225-7.278.002-14.555.002-21.833 0-.633.025-.939-.686-.932-1.227C.263 15.476.272 8.642.268 1.808c-.007-.49.13-1.079.61-1.31zm.144.53c-.204.206-.218.516-.227.788l.001 20.366c-.005.332.072.902.528.832h21.592c.461.074.537-.498.535-.832V1.818c.004-.337-.063-.918-.528-.856C15.807.957 8.689.967 1.573.958c-.181.021-.392-.038-.55.07z"/>
    <path d="M2.326 9.577c1.771.008 3.544-.025 5.315.019 2.661.104 5.264 1.669 6.408 4.107 1.245 2.526.633 5.418.778 8.122-1.347.002-2.693.001-4.04 0-.007-1.538.004-3.076-.005-4.615-.005-.931-.233-1.921-.904-2.604-.701-.721-1.743-.966-2.718-.983-1.611-.021-3.223-.001-4.835-.01V9.575zM16.121 10.247c2.155 0 4.312-.001 6.467.001.002.841.002 1.684 0 2.526-2.155.002-4.312 0-6.467 0-.002-.842-.002-1.685 0-2.527z"/>
    <path fill="#2c2c2c" opacity=".89" d="M0 .692l.095.19c.058 7.435.018 14.873.019 22.309L0 23.014V.692z"/>
    <path fill="#161616" opacity=".76" d="M.736 23.864c7.595.012 15.189.005 22.784.004l-.168.132H.837l-.101-.136z"/>
</svg>
