<!-- Generated by IcoMoon.io -->
<svg version="1.1" xmlns="http://www.w3.org/2000/svg" width="36" height="24" viewBox="0 0 36 24">
<title>complementary--except-trucks--g1</title>
<path fill="#000" d="M2.236 0h31.597c1.112 0.258 1.994 1.124 2.257 2.238v19.503c-0.265 1.108-1.13 1.983-2.234 2.259h-31.604c-1.108-0.262-1.972-1.135-2.252-2.234v-19.514c0.247-1.119 1.131-1.978 2.236-2.252M2.241 0.66c-1.011 0.191-1.712 1.2-1.64 2.211 0.005 6.144-0.009 12.289 0.007 18.433-0.025 1.115 0.971 2.115 2.086 2.088 10.176 0.016 20.351 0.002 30.525 0.007 1.175 0.099 2.288-0.908 2.261-2.095 0.014-6.202 0.013-12.406 0-18.608 0.043-1.281-1.213-2.25-2.442-2.108-10.264 0.051-20.541-0.094-30.798 0.072z"></path>
<path fill="#000" d="M14.294 2.882c-0.023-0.733 0.688-1.288 1.391-1.22 4.457 0 8.914-0.011 13.371 0.005 0.66-0.029 1.285 0.529 1.27 1.204 0.032 2.221 0 4.446 0.013 6.669-5.352 0-10.704-0.002-16.055 0 0.009-2.22-0.018-4.439 0.009-6.659z"></path>
<path fill="#000" d="M7.094 5.477c0.442-0.568 0.745-1.451 1.564-1.539 1.207-0.060 2.418-0.027 3.625-0.018 0.695-0.027 1.303 0.601 1.252 1.296 0.022 1.593-0.002 3.189 0.007 4.782 3.569-0.013 7.139 0.023 10.708-0.018-0.817 0.473-1.361 1.296-1.482 2.232-3.187 0-6.375-0.004-9.564 0.002-0.139-1.236-1.112-2.366-2.396-2.44-1.438-0.173-2.734 1.027-2.844 2.438-0.821 0.042-2.041 0.128-2.277-0.908-0.090-1.166-0.069-2.348-0.013-3.517 0.285-0.863 0.958-1.536 1.418-2.31M8.553 4.757c-0.538 0.574-0.937 1.265-1.355 1.927-0.287 0.383 0.079 0.98 0.55 0.909 1.328 0.014 2.66 0.031 3.988-0.009 0.729-0.043 0.55-0.949 0.581-1.447-0.027-0.505 0.146-1.406-0.586-1.458-1.052 0-2.151-0.137-3.178 0.078z"></path>
<path fill="#000" d="M26.532 9.979c1.269 0.036 2.539 0.009 3.808 0.018-0.002 0.738-0.002 1.476 0 2.214-0.771 0-1.539-0.005-2.31 0.007-0.126-0.942-0.669-1.77-1.498-2.239z"></path>
<path fill="#000" d="M9.979 10.342c1.512-0.536 3.138 1.085 2.606 2.598-0.384 1.527-2.579 2.014-3.571 0.79-1.025-1.052-0.464-3.041 0.965-3.389M10.203 11.302c-0.805 0.242-0.992 1.433-0.307 1.915 0.605 0.512 1.642 0.13 1.768-0.651 0.208-0.805-0.695-1.584-1.462-1.263z"></path>
<path fill="#000" d="M24.778 10.347c1.46-0.529 3.075 0.962 2.662 2.458-0.274 1.509-2.349 2.169-3.443 1.090-1.205-0.987-0.733-3.165 0.781-3.548M25.155 11.262c-0.826 0.144-1.162 1.29-0.549 1.86 0.532 0.581 1.61 0.343 1.837-0.415 0.318-0.778-0.485-1.667-1.288-1.445z"></path>
<path fill="#000" d="M4.060 16.132c0.321 0.002 0.644 0.002 0.967-0.004-0.011 0.567 0.007 1.133 0.009 1.702 1.016-0.339 1.433-1.501 2.463-1.826 0.078 0.263 0.161 0.525 0.253 0.785-0.592 0.296-1.002 0.825-1.472 1.27 0.998 0.549 1.222 1.763 1.934 2.577-0.393-0.005-0.785-0.004-1.177-0.005-0.518-0.834-0.81-2.122-2.005-2.153-0.009 0.718-0.005 1.436-0.007 2.155-0.321-0.002-0.644-0.002-0.965 0 0-1.501 0-3.001 0-4.5z"></path>
<path fill="#000" d="M9.779 16.131c0.263 0.005 0.527 0.004 0.79-0.005 0.031 0.114 0.096 0.339 0.126 0.451 0.785-0.989 2.443-0.635 2.925 0.471 0.453 1.131 0.383 2.701-0.733 3.425-0.66 0.467-1.55 0.375-2.155-0.141 0.018 0.742 0.011 1.483 0.013 2.225-0.323-0.002-0.644-0.004-0.967 0.002 0-2.142 0-4.286 0-6.428M11.762 16.867c-1.236 0.195-1.112 1.655-0.958 2.584 0.417 0.59 1.458 0.792 1.833 0.052 0.527-0.848 0.386-2.627-0.875-2.636z"></path>
<path fill="#000" d="M16.665 16.125c1.555-0.673 3.1 0.917 2.837 2.463 0.025 1.299-1.213 2.512-2.537 2.156-2.057-0.466-2.207-3.853-0.3-4.62M17.044 16.865c-1.104 0.615-1.034 2.848 0.301 3.125 1.774-0.020 1.554-3.661-0.301-3.125z"></path>
<path fill="#000" d="M21.609 16.129c0.325 0.007 0.648 0.005 0.971 0.007 0.374 0.751 0.751 1.5 1.124 2.25 0.372-0.752 0.752-1.501 1.126-2.252 0.321 0 0.644 0.002 0.965-0.007 0.139 1.501 0.271 3.005 0.404 4.506-0.321-0.004-0.644-0.004-0.965 0-0.079-1.039-0.159-2.079-0.244-3.118-0.431 0.848-0.857 1.7-1.288 2.548-0.428-0.85-0.854-1.7-1.285-2.546-0.087 1.039-0.164 2.079-0.244 3.118-0.323-0.005-0.646-0.005-0.967-0.002 0.134-1.501 0.269-3.003 0.402-4.504z"></path>
<path fill="#000" d="M27.885 18.042c-0.004-1.164 1.099-2.153 2.25-2.046 1.269 0.096 2.205 1.496 1.853 2.71-1.034 0.004-2.068-0.007-3.102 0.011 0.056 1.196 1.628 1.601 2.27 0.603 0.251 0.153 0.502 0.307 0.754 0.458-0.505 0.547-1.149 1.119-1.956 1.007-1.343-0.070-2.279-1.456-2.070-2.743M28.888 17.894c0.738 0.011 1.476 0.013 2.214-0.005-0.083-1.389-2.194-1.431-2.214 0.005z"></path>
<path fill="#fff" d="M2.241 0.66c10.257-0.166 20.534-0.022 30.798-0.072 1.229-0.143 2.485 0.826 2.442 2.108 0.013 6.202 0.014 12.406 0 18.608 0.027 1.187-1.086 2.194-2.261 2.095-10.174-0.005-20.349 0.009-30.525-0.007-1.115 0.027-2.111-0.973-2.086-2.088-0.016-6.144-0.002-12.289-0.007-18.433-0.072-1.011 0.63-2.019 1.64-2.211M14.294 2.882c-0.027 2.22 0 4.439-0.009 6.659 5.35-0.002 10.703 0 16.055 0-0.013-2.223 0.020-4.448-0.013-6.669 0.014-0.675-0.61-1.232-1.27-1.204-4.457-0.016-8.914-0.005-13.371-0.005-0.704-0.069-1.415 0.487-1.391 1.22M7.094 5.477c-0.46 0.774-1.133 1.447-1.418 2.31-0.056 1.169-0.078 2.351 0.013 3.517 0.236 1.036 1.456 0.949 2.277 0.908 0.11-1.411 1.406-2.611 2.844-2.438 1.285 0.074 2.257 1.204 2.396 2.44 3.189-0.005 6.377-0.002 9.564-0.002 0.121-0.937 0.664-1.759 1.482-2.232-3.569 0.042-7.139 0.005-10.708 0.018-0.009-1.593 0.014-3.189-0.007-4.782 0.051-0.695-0.558-1.323-1.252-1.296-1.207-0.009-2.418-0.042-3.625 0.018-0.819 0.088-1.122 0.971-1.565 1.539M26.532 9.979c0.828 0.469 1.371 1.297 1.498 2.239 0.771-0.013 1.539-0.007 2.31-0.007-0.002-0.738-0.002-1.476 0-2.214-1.269-0.009-2.539 0.018-3.808-0.018M9.979 10.342c-1.429 0.348-1.99 2.337-0.965 3.389 0.992 1.223 3.187 0.736 3.571-0.79 0.532-1.514-1.094-3.134-2.606-2.598M24.778 10.347c-1.514 0.383-1.987 2.561-0.781 3.548 1.094 1.079 3.169 0.419 3.443-1.090 0.413-1.496-1.202-2.986-2.662-2.458M4.060 16.132c0 1.5 0 2.999 0 4.5 0.321-0.002 0.644-0.002 0.965 0 0.002-0.718-0.002-1.436 0.007-2.155 1.195 0.031 1.487 1.319 2.005 2.153 0.392 0.002 0.783 0 1.177 0.005-0.713-0.814-0.937-2.028-1.934-2.577 0.471-0.446 0.881-0.974 1.472-1.27-0.092-0.26-0.175-0.522-0.253-0.785-1.030 0.325-1.447 1.487-2.463 1.826-0.002-0.568-0.020-1.135-0.009-1.702-0.323 0.005-0.646 0.005-0.967 0.004M9.779 16.131c0 2.142 0 4.286 0 6.428 0.323-0.005 0.644-0.004 0.967-0.002-0.002-0.742 0.005-1.483-0.013-2.225 0.605 0.516 1.494 0.608 2.155 0.141 1.115-0.724 1.186-2.294 0.733-3.425-0.482-1.106-2.14-1.46-2.925-0.471-0.031-0.112-0.096-0.337-0.126-0.451-0.263 0.009-0.527 0.011-0.79 0.005M16.665 16.125c-1.907 0.767-1.758 4.154 0.3 4.62 1.325 0.355 2.562-0.857 2.537-2.156 0.263-1.546-1.281-3.136-2.837-2.463M21.609 16.129c-0.134 1.501-0.269 3.003-0.402 4.504 0.321-0.004 0.644-0.004 0.967 0.002 0.079-1.039 0.157-2.079 0.244-3.118 0.431 0.846 0.857 1.696 1.285 2.546 0.431-0.848 0.857-1.7 1.288-2.548 0.085 1.039 0.164 2.079 0.244 3.118 0.321-0.004 0.644-0.004 0.965 0-0.134-1.501-0.265-3.005-0.404-4.506-0.321 0.009-0.644 0.007-0.965 0.007-0.374 0.751-0.754 1.5-1.126 2.252-0.374-0.751-0.751-1.5-1.124-2.25-0.323-0.002-0.646 0-0.971-0.007M27.885 18.042c-0.209 1.287 0.727 2.672 2.070 2.743 0.807 0.112 1.451-0.46 1.956-1.007-0.253-0.152-0.503-0.305-0.754-0.458-0.642 0.998-2.214 0.594-2.27-0.603 1.034-0.018 2.068-0.007 3.102-0.011 0.352-1.214-0.585-2.615-1.853-2.71-1.151-0.106-2.254 0.882-2.25 2.046z"></path>
<path fill="#fff" d="M8.553 4.757c1.027-0.215 2.126-0.078 3.178-0.078 0.733 0.052 0.559 0.953 0.586 1.458-0.031 0.498 0.148 1.404-0.581 1.447-1.328 0.040-2.66 0.023-3.988 0.009-0.471 0.070-0.837-0.527-0.55-0.909 0.419-0.662 0.817-1.353 1.355-1.927z"></path>
<path fill="#fff" d="M10.203 11.302c0.767-0.321 1.669 0.458 1.462 1.263-0.126 0.781-1.164 1.164-1.768 0.651-0.686-0.482-0.498-1.673 0.307-1.915z"></path>
<path fill="#fff" d="M25.155 11.262c0.803-0.222 1.606 0.668 1.288 1.445-0.227 0.758-1.305 0.996-1.837 0.415-0.614-0.57-0.278-1.716 0.549-1.86z"></path>
<path fill="#fff" d="M11.762 16.867c1.261 0.009 1.402 1.788 0.875 2.636-0.375 0.74-1.417 0.538-1.833-0.052-0.153-0.929-0.278-2.389 0.958-2.584z"></path>
<path fill="#fff" d="M17.044 16.865c1.855-0.536 2.075 3.106 0.301 3.125-1.335-0.278-1.406-2.51-0.301-3.125z"></path>
<path fill="#fff" d="M28.888 17.894c0.020-1.436 2.131-1.395 2.214-0.005-0.738 0.018-1.476 0.016-2.214 0.005z"></path>
</svg>
