<!-- Generated by IcoMoon.io -->
<svg version="1.1" xmlns="http://www.w3.org/2000/svg" width="24" height="24" viewBox="0 0 24 24">
<title>complementary--except-motorcycles--g2</title>
<path fill="#1f1917" d="M0 0h24v24h-24v-24M0.48 0.48c-0.001 7.68-0.001 15.36 0 23.040 7.678 0.001 15.355 0.001 23.032 0 0.001-7.68 0.001-15.36 0-23.040-7.676-0.001-15.354-0.001-23.032 0z"></path>
<path fill="#1f1917" d="M13.111 2.63c0-0.302 0.002-0.605 0.002-0.907 0.204 0.002 0.408 0.004 0.613 0.005-0.001 0.3-0.001 0.601-0.001 0.902-0.205 0-0.409 0-0.614 0z"></path>
<path fill="#1f1917" d="M3.126 2.952c0.205 0 0.41 0 0.617 0.001 0.004 0.698-0.002 1.397 0.004 2.095 0.562-0.695 1.109-1.4 1.67-2.095 0.26-0.002 0.52 0 0.78-0.001-0.478 0.593-0.967 1.176-1.448 1.765 0.479 0.863 0.972 1.716 1.451 2.578-0.26 0-0.52 0.002-0.78 0.002-0.354-0.673-0.703-1.348-1.054-2.022-0.631 0.508-0.712 1.26-0.622 2.020-0.205 0.001-0.412 0.002-0.618 0.002-0.001-1.448-0.001-2.897 0-4.345z"></path>
<path fill="#1f1917" d="M6.784 2.964c0.203-0.004 0.407-0.007 0.61-0.012 0.020 1.448 0.004 2.897 0.008 4.345-0.205 0.001-0.412 0.001-0.617 0.001-0.004-1.445-0.002-2.89-0.001-4.334z"></path>
<path fill="#1f1917" d="M8.125 2.953c0.214-0.001 0.427-0.001 0.642-0.001 0.372 1.087 0.672 2.2 1.087 3.271 0.367-1.084 0.691-2.182 1.045-3.271 0.209 0 0.418 0 0.626 0-0.454 1.448-0.913 2.896-1.369 4.344-0.211 0.001-0.421 0-0.631-0.001-0.466-1.447-0.938-2.893-1.4-4.342z"></path>
<path fill="#1f1917" d="M12.16 2.963c0.82-0.007 1.639-0.002 2.459-0.004 0 0.206 0 0.413 0 0.619-0.613 0-1.226 0-1.84 0.001-0.001 0.409-0.001 0.818 0 1.229 0.468 0.002 0.936 0.001 1.404 0.002 0.001 0.211 0 0.422-0.001 0.634-0.467 0.002-0.935 0.001-1.403 0.002 0 0.41 0 0.821 0 1.231 0.613 0.001 1.226 0 1.84 0.001 0 0.206 0 0.412 0 0.618-0.82 0.001-1.639 0.001-2.459 0-0.001-1.445-0.001-2.89 0-4.334z"></path>
<path fill="#1f1917" d="M15.044 2.952c0.215 0 0.43 0 0.644 0.001 0.36 1.11 0.715 2.22 1.075 3.328 0.359-1.108 0.7-2.221 1.057-3.33 0.209 0.001 0.418 0.001 0.626 0.002-0.454 1.447-0.914 2.892-1.368 4.339-0.209 0.004-0.419 0.005-0.629 0.005-0.474-1.446-0.94-2.896-1.406-4.345z"></path>
<path fill="#1f1917" d="M19.081 2.96c0.818-0.001 1.638-0.002 2.458 0 0 0.206 0 0.412 0 0.618-0.613 0-1.226 0-1.84 0.001-0.001 0.409-0.001 0.82 0 1.229 0.468 0.002 0.937 0.001 1.405 0.002 0 0.211 0 0.422-0.001 0.634-0.468 0.002-0.936 0.001-1.404 0.001-0.001 0.412-0.001 0.822 0 1.234 0.613-0.001 1.226-0.001 1.84 0.001 0 0.205 0 0.412 0 0.617-0.82 0.001-1.639 0-2.458 0.001-0.001-1.446-0.002-2.892 0-4.338z"></path>
<path fill="#1f1917" d="M10.633 10.939c0.005-1.085 1.585-1.351 2.143-0.556 0.196 0.431 0.083 0.926 0.108 1.385-0.788-0.367-1.512 0.143-2.111 0.613-0.080-0.238-0.144-0.48-0.193-0.725 0.247-0.094 0.493-0.187 0.74-0.28 0.005-0.143 0.011-0.287 0.017-0.431-0.235-0.002-0.469-0.004-0.704-0.007z"></path>
<path fill="#1f1917" d="M11.496 12.22c0.367-0.258 0.953-0.448 1.302-0.060 0.473 0.55 0.886 1.15 1.331 1.723-0.442 0.312-0.883 0.62-1.327 0.926-0.407-0.546-0.802-1.1-1.205-1.649-0.694 0.535-1.4 1.052-2.081 1.604 0.088 0.502 0.52 0.827 0.998 0.918 0.208-0.883 1.189-0.521 1.848-0.59 0.799 0.125 1.313-0.614 1.95-0.958 0.246 0.318 0.488 0.64 0.733 0.96 0.666 0.005 1.333-0.005 2 0.010 0.083 0.238 0.121 0.486 0.106 0.739-0.883 0.071-1.853 0.178-2.52 0.829-0.629 0.577-0.736 1.492-0.638 2.297-0.977-0.031-1.954-0.055-2.929-0.094-0.556-0.007-0.997-0.487-1.080-1.016-0.239-1.102-1.322-1.871-2.423-1.907-0.517 0.017-0.62-0.66-0.446-1.032 0.299-0.87 1.292-1.108 2.080-1.318 0.024 0.098 0.070 0.296 0.092 0.396 0.734-0.595 1.438-1.232 2.209-1.78z"></path>
<path fill="#1f1917" d="M7.122 16.374c1.092-0.295 2.304 0.475 2.526 1.578 0.257 1.045-0.438 2.188-1.475 2.461-1.123 0.355-2.417-0.452-2.612-1.608-0.239-1.061 0.506-2.197 1.561-2.431M7.362 17.084c-0.964 0.133-1.444 1.421-0.805 2.154 0.576 0.796 1.949 0.606 2.29-0.313 0.446-0.928-0.481-2.080-1.484-1.841z"></path>
<path fill="#1f1917" d="M15.882 16.38c1.524-0.464 3.080 1.224 2.484 2.705-0.436 1.453-2.525 1.895-3.505 0.733-1.085-1.072-0.467-3.127 1.021-3.438M16.123 17.089c-0.763 0.13-1.271 1.004-1.006 1.733 0.203 0.674 0.992 1.086 1.662 0.868 0.704-0.193 1.141-1.021 0.888-1.711-0.197-0.631-0.899-1.036-1.544-0.889z"></path>
<path fill="#fff" d="M0.48 0.48c7.678-0.001 15.355-0.001 23.032 0 0.001 7.68 0.001 15.36 0 23.040-7.676 0.001-15.354 0.001-23.032 0-0.001-7.68-0.001-15.36 0-23.040M13.111 2.63c0.205 0 0.409 0 0.614 0 0-0.301 0-0.602 0.001-0.902-0.205-0.001-0.409-0.002-0.613-0.005 0 0.302-0.002 0.605-0.002 0.907M3.126 2.952c-0.001 1.448-0.001 2.897 0 4.345 0.206 0 0.413-0.001 0.618-0.002-0.090-0.76-0.010-1.512 0.622-2.020 0.35 0.674 0.7 1.349 1.054 2.022 0.26 0 0.52-0.002 0.78-0.002-0.479-0.862-0.972-1.715-1.451-2.578 0.481-0.589 0.971-1.172 1.448-1.765-0.26 0.001-0.52-0.001-0.78 0.001-0.562 0.695-1.109 1.4-1.67 2.095-0.006-0.698 0-1.397-0.004-2.095-0.206-0.001-0.412-0.001-0.617-0.001M6.784 2.964c-0.001 1.445-0.002 2.89 0.001 4.334 0.205 0 0.412 0 0.617-0.001-0.005-1.448 0.012-2.897-0.008-4.345-0.203 0.005-0.407 0.008-0.61 0.012M8.125 2.953c0.462 1.448 0.935 2.894 1.4 4.342 0.21 0.001 0.42 0.002 0.631 0.001 0.456-1.448 0.916-2.896 1.369-4.344-0.209 0-0.418 0-0.626 0-0.354 1.090-0.678 2.188-1.045 3.271-0.415-1.072-0.715-2.184-1.087-3.271-0.215 0-0.428 0-0.642 0.001M12.16 2.963c-0.001 1.445-0.001 2.89 0 4.334 0.82 0.001 1.639 0.001 2.459 0 0-0.206 0-0.412 0-0.618-0.613-0.001-1.226 0-1.84-0.001 0-0.41 0-0.821 0-1.231 0.468-0.001 0.936 0 1.403-0.002 0.001-0.211 0.002-0.422 0.001-0.634-0.468-0.001-0.936 0-1.404-0.002-0.001-0.41-0.001-0.82 0-1.229 0.613-0.001 1.226-0.001 1.84-0.001 0-0.206 0-0.413 0-0.619-0.82 0.001-1.639-0.004-2.459 0.004M15.044 2.952c0.467 1.45 0.932 2.899 1.406 4.345 0.21 0 0.42-0.001 0.629-0.005 0.454-1.447 0.914-2.892 1.368-4.339-0.209-0.001-0.418-0.001-0.626-0.002-0.358 1.109-0.698 2.222-1.057 3.33-0.36-1.108-0.715-2.218-1.075-3.328-0.215-0.001-0.43-0.001-0.644-0.001M19.081 2.96c-0.002 1.446-0.001 2.892 0 4.338 0.818-0.001 1.638 0 2.458-0.001 0-0.205 0-0.412 0-0.617-0.613-0.002-1.226-0.002-1.84-0.001-0.001-0.412-0.001-0.822 0-1.234 0.468 0 0.936 0.001 1.404-0.001 0.001-0.211 0.001-0.422 0.001-0.634-0.468-0.001-0.937 0-1.405-0.002-0.001-0.409-0.001-0.82 0-1.229 0.613-0.001 1.226-0.001 1.84-0.001 0-0.206 0-0.412 0-0.618-0.82-0.002-1.639-0.001-2.458 0M10.633 10.939c0.235 0.004 0.469 0.005 0.704 0.007-0.006 0.144-0.012 0.288-0.017 0.431-0.247 0.092-0.493 0.186-0.74 0.28 0.049 0.245 0.113 0.487 0.193 0.725 0.599-0.47 1.322-0.98 2.111-0.613-0.025-0.458 0.088-0.954-0.108-1.385-0.558-0.796-2.138-0.529-2.143 0.556M11.496 12.22c-0.772 0.547-1.475 1.184-2.209 1.78-0.023-0.1-0.068-0.298-0.092-0.396-0.787 0.21-1.781 0.448-2.080 1.318-0.174 0.372-0.071 1.049 0.446 1.032 1.1 0.036 2.184 0.805 2.423 1.907 0.083 0.529 0.524 1.009 1.080 1.016 0.976 0.038 1.952 0.062 2.929 0.094-0.097-0.805 0.010-1.72 0.638-2.297 0.667-0.652 1.637-0.758 2.52-0.829 0.016-0.253-0.023-0.502-0.106-0.739-0.667-0.014-1.334-0.005-2-0.010-0.245-0.32-0.487-0.642-0.733-0.96-0.637 0.343-1.151 1.082-1.95 0.958-0.659 0.070-1.64-0.293-1.848 0.59-0.479-0.091-0.911-0.416-0.998-0.918 0.68-0.552 1.387-1.069 2.081-1.604 0.403 0.548 0.798 1.103 1.205 1.649 0.444-0.306 0.886-0.614 1.327-0.926-0.445-0.574-0.858-1.174-1.331-1.723-0.349-0.388-0.935-0.198-1.302 0.060M7.122 16.374c-1.055 0.234-1.8 1.37-1.561 2.431 0.196 1.156 1.489 1.963 2.612 1.608 1.037-0.274 1.732-1.416 1.475-2.461-0.222-1.103-1.434-1.873-2.526-1.578M15.882 16.38c-1.488 0.311-2.106 2.366-1.021 3.438 0.98 1.162 3.070 0.72 3.505-0.733 0.596-1.481-0.96-3.169-2.484-2.705z"></path>
<path fill="#fff" d="M7.362 17.084c1.003-0.239 1.931 0.913 1.484 1.841-0.341 0.919-1.714 1.109-2.29 0.313-0.638-0.733-0.158-2.021 0.805-2.154z"></path>
<path fill="#fff" d="M16.123 17.089c0.646-0.146 1.348 0.258 1.544 0.889 0.253 0.69-0.184 1.518-0.888 1.711-0.67 0.218-1.459-0.193-1.662-0.868-0.265-0.728 0.242-1.603 1.006-1.733z"></path>
</svg>
