<!-- Generated by IcoMoon.io -->
<svg version="1.1" xmlns="http://www.w3.org/2000/svg" width="24" height="24" viewBox="0 0 24 24">
<title>complementary--maximum-speed-limit-40--g1</title>
<path fill="#ffd033" d="M1.739 0h20.533c0.893 0.127 1.591 0.883 1.728 1.762v20.441c-0.103 0.931-0.896 1.687-1.817 1.798h-20.351c-0.918-0.115-1.691-0.835-1.832-1.756v-20.486c0.137-0.876 0.845-1.642 1.739-1.758M1.969 0.328c-0.983 0.127-1.715 1.097-1.669 2.070 0.004 6.478-0.008 12.956 0.005 19.435-0.008 1.045 0.922 1.979 1.972 1.954 6.522 0.006 13.046 0.008 19.568-0.001 1.25 0.026 2.143-1.241 1.958-2.425-0.011-6.36 0.008-12.721-0.010-19.082 0.011-1.082-0.976-2.051-2.065-1.978-6.586 0.018-13.175-0.038-19.759 0.028z"></path>
<path fill="#ffd033" d="M1.847 1.030c6.623-0.092 13.256-0.013 19.884-0.040 0.666-0.079 1.326 0.472 1.266 1.163 0.004 6.565 0.004 13.13 0 19.694 0.041 0.63-0.522 1.184-1.147 1.159-6.566 0.006-13.133 0.006-19.699 0-0.625 0.026-1.188-0.528-1.147-1.159-0.005-6.564-0.004-13.129 0-19.694-0.038-0.517 0.33-1.026 0.844-1.123M8.635 4.436c-1.489 2.070-2.975 4.141-4.476 6.203-0.401 0.458-0.178 1.109-0.226 1.658 1.558 0.008 3.116-0.001 4.674 0.004 0.006 0.869-0.004 1.738 0.005 2.606 0.449 0.005 0.896 0.005 1.345 0.001 0.007-0.869-0.002-1.738 0.005-2.606 0.532-0.001 1.063-0.001 1.594-0.004-0.005-0.4-0.006-0.798-0.008-1.196-0.529-0.001-1.057-0.004-1.585-0.002-0.007-2.309 0.002-4.618-0.005-6.926-0.438 0.059-1.055-0.208-1.322 0.263M15.528 4.262c-0.976 0.145-1.795 0.838-2.231 1.705-0.732 1.445-0.823 3.114-0.736 4.704 0.086 1.216 0.373 2.482 1.165 3.442 1.258 1.524 3.974 1.424 5.089-0.22 0.944-1.343 1.108-3.059 1.086-4.655-0.035-1.385-0.239-2.88-1.162-3.976-0.773-0.912-2.071-1.195-3.212-1.001M6.602 17.19c-0.004 1.28-0.005 2.561 0 3.841 0.248-0.001 0.497-0.002 0.745-0.002 0.010-1.034-0.002-2.069 0.005-3.103 0.253 1.033 0.463 2.077 0.709 3.113 0.257-0.007 0.512-0.014 0.769-0.022 0.229-1.034 0.457-2.069 0.7-3.098 0.022 1.037 0 2.074 0.012 3.112 0.248-0.001 0.498-0.001 0.746 0 0.004-1.279 0.002-2.56 0.001-3.839-0.383-0.002-0.766-0.002-1.148 0-0.232 1.001-0.456 2.004-0.691 3.004-0.229-1.001-0.462-2.002-0.69-3.002-0.386-0.004-0.773-0.004-1.158-0.002M11.042 17.191c-0.005 1.27-0.002 2.539-0.001 3.81 0.27-0.002 0.539-0.002 0.809-0.002-0.001-0.448 0.001-0.895 0.004-1.343 0.449-0.011 0.907 0.020 1.348-0.084 1.042-0.239 1.028-2.045 0.002-2.303-0.709-0.152-1.442-0.053-2.161-0.078M14.551 17.19c-0.002 1.28-0.004 2.56 0 3.84 0.269-0.001 0.538 0 0.806 0.001 0.002-0.57 0.002-1.14 0.002-1.71 0.49-0.004 0.979-0.004 1.468 0.001 0.002 0.57 0.001 1.139 0.004 1.708 0.269-0.001 0.538-0.001 0.806 0.001 0.004-1.282 0.004-2.562 0-3.842-0.269 0.001-0.539 0.001-0.808 0.001 0.001 0.488-0.002 0.978-0.004 1.466-0.488 0.006-0.977 0.006-1.465 0.001 0-0.49-0.002-0.979-0.004-1.469-0.269 0.001-0.538 0.001-0.806 0.001z"></path>
<path fill="#ffd033" d="M15.88 5.45c0.772-0.151 1.681 0.14 2.018 0.899 0.599 1.351 0.589 2.874 0.527 4.322-0.083 0.912-0.17 1.916-0.793 2.64-0.637 0.77-1.958 0.904-2.671 0.172-0.588-0.581-0.775-1.432-0.888-2.221-0.148-1.414-0.145-2.876 0.265-4.249 0.218-0.722 0.745-1.45 1.542-1.562z"></path>
<path fill="#ffd033" d="M5.183 11.096c1.14-1.616 2.284-3.23 3.426-4.846 0 1.616 0.004 3.232-0.001 4.848-1.142 0.001-2.284 0.005-3.425-0.002z"></path>
<path fill="#ffd033" d="M11.854 17.849c0.378 0.019 0.794-0.060 1.144 0.126 0.29 0.25 0.236 0.874-0.176 0.974-0.317 0.073-0.646 0.037-0.968 0.040-0.004-0.38-0.004-0.76 0.001-1.14z"></path>
<path fill="#050505" d="M1.969 0.328c6.584-0.066 13.174-0.010 19.759-0.028 1.090-0.073 2.076 0.895 2.065 1.978 0.018 6.361-0.001 12.722 0.010 19.082 0.185 1.184-0.708 2.452-1.958 2.425-6.522 0.010-13.046 0.007-19.568 0.001-1.050 0.025-1.98-0.908-1.972-1.954-0.013-6.479-0.001-12.958-0.005-19.435-0.046-0.973 0.686-1.943 1.669-2.070M1.847 1.030c-0.514 0.097-0.882 0.606-0.844 1.123-0.004 6.565-0.005 13.13 0 19.694-0.041 0.631 0.522 1.186 1.147 1.159 6.566 0.006 13.133 0.006 19.699 0 0.625 0.025 1.188-0.529 1.147-1.159 0.004-6.564 0.004-13.129 0-19.694 0.060-0.691-0.6-1.242-1.266-1.163-6.628 0.026-13.261-0.053-19.884 0.040z"></path>
<path fill="#231f20" d="M8.635 4.436c0.268-0.47 0.884-0.204 1.322-0.263 0.007 2.309-0.002 4.618 0.005 6.926 0.528-0.001 1.056 0.001 1.585 0.002 0.002 0.398 0.004 0.797 0.008 1.196-0.53 0.002-1.062 0.002-1.594 0.004-0.007 0.869 0.002 1.738-0.005 2.606-0.449 0.004-0.896 0.004-1.345-0.001-0.008-0.869 0.001-1.738-0.005-2.606-1.558-0.005-3.116 0.005-4.674-0.004 0.048-0.55-0.175-1.2 0.226-1.658 1.501-2.062 2.987-4.133 4.476-6.203M5.183 11.096c1.141 0.007 2.282 0.004 3.425 0.002 0.005-1.616 0.001-3.232 0.001-4.848-1.142 1.615-2.286 3.229-3.426 4.846z"></path>
<path fill="#231f20" d="M15.528 4.262c1.141-0.194 2.44 0.089 3.212 1.001 0.923 1.096 1.127 2.591 1.162 3.976 0.022 1.596-0.142 3.312-1.086 4.655-1.115 1.644-3.832 1.744-5.089 0.22-0.792-0.96-1.079-2.226-1.165-3.442-0.088-1.59 0.004-3.259 0.736-4.704 0.436-0.868 1.255-1.56 2.231-1.705M15.88 5.45c-0.797 0.113-1.324 0.84-1.542 1.562-0.41 1.373-0.413 2.836-0.265 4.249 0.113 0.79 0.3 1.64 0.888 2.221 0.713 0.732 2.034 0.599 2.671-0.172 0.623-0.724 0.71-1.728 0.793-2.64 0.062-1.448 0.072-2.971-0.527-4.322-0.337-0.758-1.247-1.050-2.018-0.899z"></path>
<path fill="#231f20" d="M6.602 17.19c0.385-0.001 0.772-0.001 1.158 0.002 0.228 1.001 0.461 2.002 0.69 3.002 0.235-1 0.46-2.003 0.691-3.004 0.383-0.002 0.766-0.002 1.148 0 0.001 1.279 0.002 2.56-0.001 3.839-0.248-0.001-0.498-0.001-0.746 0-0.012-1.038 0.010-2.075-0.012-3.112-0.242 1.030-0.47 2.064-0.7 3.098-0.257 0.007-0.512 0.014-0.769 0.022-0.246-1.036-0.456-2.080-0.709-3.113-0.007 1.034 0.005 2.069-0.005 3.103-0.248 0-0.497 0.001-0.745 0.002-0.005-1.28-0.004-2.561 0-3.841z"></path>
<path fill="#231f20" d="M11.042 17.191c0.719 0.025 1.452-0.074 2.161 0.078 1.026 0.258 1.039 2.064-0.002 2.303-0.44 0.104-0.899 0.073-1.348 0.084-0.002 0.448-0.005 0.895-0.004 1.343-0.27 0-0.539 0-0.809 0.002-0.001-1.271-0.004-2.54 0.001-3.81M11.854 17.849c-0.005 0.38-0.005 0.76-0.001 1.14 0.323-0.002 0.652 0.034 0.968-0.040 0.413-0.101 0.467-0.725 0.176-0.974-0.349-0.186-0.766-0.107-1.144-0.126z"></path>
<path fill="#231f20" d="M14.551 17.19c0.269 0 0.538 0 0.806-0.001 0.001 0.49 0.004 0.979 0.004 1.469 0.488 0.005 0.977 0.005 1.465-0.001 0.001-0.488 0.005-0.978 0.004-1.466 0.269 0 0.539 0 0.808-0.001 0.004 1.28 0.004 2.561 0 3.842-0.269-0.002-0.538-0.002-0.806-0.001-0.002-0.569-0.001-1.138-0.004-1.708-0.488-0.005-0.978-0.005-1.468-0.001 0 0.57 0 1.14-0.002 1.71-0.269-0.001-0.538-0.002-0.806-0.001-0.004-1.28-0.002-2.56 0-3.84z"></path>
</svg>
