<!-- Generated by IcoMoon.io -->
<svg version="1.1" xmlns="http://www.w3.org/2000/svg" width="24" height="24" viewBox="0 0 24 24">
<title>complementary--railroad--g3</title>
<path fill="#f9f9f9" d="M0 0h1.397c-0.698 0.195-1.267 0.741-1.397 1.469v-1.469z"></path>
<path fill="#212121" d="M1.397 0h21.042c0.776 0.313 1.407 1.027 1.402 1.896 0 6.629 0.003 13.259-0.002 19.888-0.017 1.017-0.815 2.082-1.901 2.057-6.626 0.003-13.254-0.005-19.882 0.003-0.908 0.029-1.831-0.534-2.057-1.448v-20.928c0.13-0.728 0.699-1.273 1.397-1.469M1.499 0.958c-0.173 0.175-0.35 0.345-0.526 0.517-0.041 6.822-0.010 13.645-0.017 20.467-0.116 0.558 0.482 0.89 0.949 0.943 6.625 0.008 13.251 0 19.875 0.005 0.618 0.078 1.175-0.494 1.108-1.108 0.010-6.575 0.010-13.151 0-19.726 0.041-0.44-0.24-0.798-0.526-1.095-6.954-0.013-13.909-0.008-20.863-0.002z"></path>
<path fill="#f4f4f4" d="M22.439 0h1.561v24h-24v-1.604c0.226 0.914 1.149 1.477 2.057 1.448 6.628-0.008 13.256 0 19.882-0.003 1.086 0.025 1.883-1.039 1.901-2.057 0.005-6.629 0.002-13.259 0.002-19.888 0.005-0.869-0.626-1.583-1.402-1.896z"></path>
<path fill="#fff" d="M1.499 0.958c6.954-0.006 13.909-0.011 20.863 0.002 0.286 0.297 0.567 0.655 0.526 1.095 0.010 6.575 0.010 13.151 0 19.726 0.067 0.614-0.49 1.186-1.108 1.108-6.625-0.005-13.251 0.003-19.875-0.005-0.467-0.052-1.065-0.385-0.949-0.943 0.008-6.822-0.024-13.645 0.017-20.467 0.176-0.172 0.353-0.342 0.526-0.517M9.548 1.761c-0.021 2.346-0.024 4.694-0.005 7.038 1.717-1.33 3.152-3.052 4.721-4.571 0.116-0.804 0.008-1.65 0.035-2.47-1.583-0.025-3.168-0.013-4.751 0.003M17.229 2.661c-0.305 0.372-0.629 0.726-0.995 1.039-0.091-0.065-0.269-0.195-0.358-0.262-0.273 0.259-0.54 0.521-0.809 0.785 0.094 0.070 0.278 0.211 0.372 0.283-0.531 0.529-1.052 1.066-1.597 1.581-0.087-0.068-0.262-0.203-0.35-0.272-0.219 0.219-0.437 0.439-0.653 0.66 0.458 0.828-0.966 1.289-1.329 1.966-0.073-0.092-0.219-0.277-0.294-0.369-0.246 0.25-0.494 0.501-0.745 0.747 0.116 0.1 0.232 0.202 0.348 0.304-0.548 0.587-1.151 1.119-1.696 1.709-0.075-0.091-0.224-0.272-0.297-0.361-0.248 0.251-0.499 0.499-0.75 0.747 0.091 0.075 0.272 0.221 0.362 0.294-0.526 0.521-1.051 1.043-1.577 1.564-0.097-0.064-0.291-0.192-0.386-0.256-0.218 0.224-0.435 0.447-0.652 0.672 0.065 0.091 0.195 0.273 0.261 0.364-0.525 0.525-1.046 1.054-1.566 1.583-0.073-0.091-0.221-0.269-0.294-0.359-0.262 0.267-0.526 0.531-0.785 0.801 0.065 0.091 0.197 0.272 0.262 0.362-0.367 0.356-0.726 0.72-1.076 1.095 0.156 0.157 0.31 0.316 0.464 0.475 0.37-0.383 0.755-0.752 1.119-1.141 0.973 0.99 1.931 2.003 2.959 2.936-0.378 0.385-0.768 0.757-1.148 1.14 0.14 0.132 0.277 0.265 0.415 0.401 0.367-0.38 0.744-0.75 1.111-1.13 0.134 0.135 0.267 0.27 0.402 0.405 0.342-0.319 0.931-0.76 0.448-1.237 0.517-0.517 1.036-1.030 1.54-1.559 0.129 0.138 0.257 0.277 0.386 0.413 0.242-0.234 0.478-0.472 0.715-0.712-0.133-0.135-0.267-0.27-0.401-0.405 0.521-0.491 1.036-0.99 1.51-1.526 0.188 0.081 0.377 0.156 0.563 0.238 0.264-0.232 0.558-0.451 0.687-0.792-0.095-0.030-0.286-0.089-0.38-0.119 0.342-0.695 1.079-1.162 1.601-1.742 0.14 0.124 0.28 0.248 0.42 0.372 0.347-0.296 0.795-0.717 0.353-1.152 0.505-0.529 1.032-1.038 1.539-1.562 0.132 0.134 0.264 0.269 0.396 0.404 0.238-0.226 0.469-0.461 0.691-0.704-0.124-0.141-0.25-0.281-0.373-0.423 0.521-0.49 1.019-1.006 1.537-1.5 0.507 0.582 1.667-0.499 0.834-0.863 0.381-0.372 0.758-0.75 1.152-1.111-0.146-0.137-0.291-0.273-0.435-0.408-0.362 0.373-0.734 0.736-1.086 1.119-1.008-0.957-1.942-1.987-2.966-2.928 0.37-0.393 0.761-0.766 1.155-1.133-0.178-0.176-0.373-0.335-0.606-0.432M9.54 19.612c-0.013 0.833-0.019 1.667 0.017 2.502 1.58-0.046 3.16-0.005 4.74-0.035 0.010-2.341 0.019-4.686-0.005-7.027-1.736 1.302-3.133 3.087-4.752 4.56z"></path>
<path fill="#202020" d="M9.548 1.761c1.583-0.016 3.168-0.029 4.751-0.003-0.027 0.82 0.081 1.666-0.035 2.47-1.569 1.519-3.004 3.241-4.721 4.571-0.019-2.344-0.016-4.692 0.005-7.038z"></path>
<path fill="#202020" d="M9.54 19.612c1.62-1.473 3.017-3.258 4.752-4.56 0.024 2.341 0.014 4.686 0.005 7.027-1.58 0.030-3.16-0.011-4.74 0.035-0.037-0.834-0.030-1.669-0.017-2.502z"></path>
<path fill="#222" d="M17.229 2.661c0.232 0.097 0.428 0.256 0.606 0.432-0.394 0.367-0.785 0.741-1.155 1.133 1.024 0.941 1.958 1.971 2.966 2.928 0.351-0.383 0.723-0.745 1.086-1.119 0.145 0.135 0.289 0.272 0.435 0.408-0.394 0.361-0.771 0.739-1.152 1.111 0.833 0.364-0.327 1.445-0.834 0.863-0.518 0.494-1.016 1.011-1.537 1.5 0.124 0.141 0.25 0.281 0.373 0.423-0.223 0.243-0.453 0.478-0.691 0.704-0.132-0.135-0.264-0.27-0.396-0.404-0.507 0.525-1.033 1.033-1.539 1.562 0.442 0.435-0.006 0.857-0.353 1.152-0.14-0.124-0.28-0.248-0.42-0.372-0.521 0.58-1.259 1.047-1.601 1.742 0.094 0.030 0.285 0.089 0.38 0.119-0.129 0.34-0.423 0.559-0.687 0.792-0.186-0.083-0.375-0.157-0.563-0.238-0.474 0.536-0.989 1.035-1.51 1.526 0.134 0.135 0.267 0.27 0.401 0.405-0.237 0.24-0.474 0.478-0.715 0.712-0.129-0.137-0.257-0.275-0.386-0.413-0.504 0.529-1.024 1.043-1.54 1.559 0.483 0.477-0.107 0.917-0.448 1.237-0.135-0.135-0.269-0.27-0.402-0.405-0.367 0.38-0.744 0.75-1.111 1.13-0.138-0.135-0.275-0.269-0.415-0.401 0.38-0.383 0.769-0.755 1.148-1.14-1.028-0.933-1.987-1.945-2.959-2.936-0.364 0.389-0.749 0.758-1.119 1.141-0.154-0.159-0.308-0.318-0.464-0.475 0.35-0.375 0.709-0.739 1.076-1.095-0.065-0.091-0.197-0.272-0.262-0.362 0.259-0.27 0.523-0.534 0.785-0.801 0.073 0.091 0.221 0.269 0.294 0.359 0.52-0.529 1.041-1.059 1.566-1.583-0.065-0.091-0.195-0.273-0.261-0.364 0.216-0.226 0.434-0.448 0.652-0.672 0.095 0.064 0.289 0.192 0.386 0.256 0.526-0.521 1.051-1.043 1.577-1.564-0.091-0.073-0.272-0.219-0.362-0.294 0.251-0.248 0.502-0.496 0.75-0.747 0.073 0.089 0.223 0.27 0.297 0.361 0.545-0.59 1.148-1.122 1.696-1.709-0.116-0.102-0.232-0.203-0.348-0.304 0.251-0.246 0.499-0.497 0.745-0.747 0.075 0.092 0.221 0.277 0.294 0.369 0.362-0.677 1.787-1.138 1.329-1.966 0.216-0.221 0.434-0.44 0.653-0.66 0.087 0.068 0.262 0.203 0.35 0.272 0.545-0.515 1.066-1.052 1.597-1.581-0.094-0.072-0.278-0.213-0.372-0.283 0.269-0.264 0.536-0.526 0.809-0.785 0.089 0.067 0.267 0.197 0.358 0.262 0.366-0.313 0.69-0.668 0.995-1.039M14.292 6.628c1.020 0.928 1.979 1.925 2.939 2.913 0.526-0.531 1.071-1.044 1.581-1.593-0.949-0.998-1.931-1.963-2.92-2.921-0.569 0.497-1.076 1.059-1.601 1.601M13.581 7.297c-0.461 0.534-1.011 0.981-1.475 1.51-0.126 0.192 0.148 0.323 0.246 0.453 0.876 0.842 1.713 1.725 2.589 2.568 0.528-0.525 1.060-1.044 1.594-1.561-0.968-1.006-1.977-1.972-2.955-2.971M9.621 11.283c0.985 0.974 1.944 1.977 2.94 2.94 0.525-0.532 1.060-1.054 1.599-1.57-0.99-0.984-1.974-1.972-2.958-2.961-0.502 0.555-1.071 1.043-1.581 1.591M7.297 13.594c1.008 0.96 1.974 1.963 2.966 2.942 0.51-0.542 1.074-1.032 1.554-1.601-0.963-0.96-1.89-2.009-2.926-2.867-0.587 0.437-1.049 1.033-1.594 1.526M5.024 15.892c0.966 0.987 1.934 1.974 2.936 2.926 0.547-0.507 1.054-1.055 1.589-1.575-0.992-0.976-1.976-1.958-2.955-2.945-0.517 0.539-1.081 1.030-1.57 1.594z"></path>
<path fill="#fdfdfd" d="M14.292 6.628c0.525-0.542 1.032-1.103 1.601-1.601 0.989 0.958 1.971 1.923 2.92 2.921-0.51 0.548-1.055 1.062-1.581 1.593-0.96-0.989-1.918-1.985-2.939-2.913z"></path>
<path fill="#fcfcfc" d="M13.581 7.297c0.977 0.998 1.987 1.965 2.955 2.971-0.534 0.517-1.067 1.036-1.594 1.561-0.876-0.844-1.713-1.726-2.589-2.568-0.099-0.13-0.372-0.261-0.246-0.453 0.464-0.529 1.014-0.976 1.475-1.51z"></path>
<path fill="#fcfcfc" d="M5.024 15.892c0.49-0.564 1.054-1.055 1.57-1.594 0.979 0.987 1.963 1.969 2.955 2.945-0.536 0.52-1.043 1.068-1.589 1.575-1.001-0.952-1.969-1.939-2.936-2.926z"></path>
<path fill="#fbfbfb" d="M9.621 11.283c0.51-0.548 1.079-1.036 1.581-1.591 0.984 0.989 1.968 1.977 2.958 2.961-0.539 0.517-1.074 1.038-1.599 1.57-0.997-0.963-1.955-1.966-2.94-2.94z"></path>
<path fill="#fafafa" d="M7.297 13.594c0.545-0.493 1.008-1.089 1.594-1.526 1.036 0.858 1.963 1.907 2.926 2.867-0.48 0.569-1.044 1.059-1.554 1.601-0.992-0.979-1.958-1.982-2.966-2.942z"></path>
</svg>
