<!-- Generated by IcoMoon.io -->
<svg version="1.1" xmlns="http://www.w3.org/2000/svg" width="24" height="24" viewBox="0 0 24 24">
<title>complementary--including-buses-vehicles--g1</title>
<path fill="#fff" d="M1.264 0.060c0.175-0.042 0.357-0.031 0.536-0.033 6.883 0.002 13.766-0.001 20.649 0.002 0.822 0.002 1.548 0.752 1.524 1.572-0 6.95 0.002 13.899-0.001 20.848-0.003 0.821-0.752 1.547-1.572 1.524-6.933 0-13.866 0-20.799 0-0.821 0.023-1.571-0.703-1.573-1.524-0.002-6.95-0-13.899-0.001-20.848-0.018-0.722 0.536-1.392 1.237-1.541M1.419 0.423c-0.564 0.078-1.019 0.605-1.010 1.173-0.002 6.936-0.002 13.871 0 20.806-0.012 0.633 0.555 1.198 1.188 1.188 6.918 0.004 13.837 0.001 20.755 0.001 0.651 0.035 1.251-0.537 1.239-1.189 0.003-6.936 0.002-13.871 0-20.806 0.012-0.633-0.555-1.2-1.188-1.188-6.851-0.005-13.702 0-20.553-0.003-0.144 0-0.288-0.003-0.431 0.018z"></path>
<path fill="#fff" d="M1.469 1.026c0.075-0.016 0.153-0.018 0.23-0.020 6.885 0.002 13.77-0 20.655 0.002 0.35-0.027 0.666 0.289 0.639 0.639 0 6.902 0 13.804 0 20.706 0.027 0.35-0.29 0.665-0.639 0.639-6.903 0.001-13.805 0.001-20.707 0-0.35 0.026-0.666-0.289-0.639-0.639-0-6.902-0-13.804 0-20.706-0.018-0.283 0.181-0.563 0.462-0.621M16.042 2.978c-0.001 1.584-0.001 3.168 0 4.752 0.226 0.002 0.453 0.002 0.679 0 0.008-0.74-0.014-1.48 0.012-2.219 0.015-0.399 0.432-0.67 0.81-0.586 0.31 0.033 0.538 0.321 0.54 0.625 0.018 0.726 0.002 1.454 0.008 2.181 0.226 0.002 0.453 0.002 0.679 0 0-0.743 0.003-1.485-0.001-2.228-0.003-0.401-0.171-0.831-0.534-1.037-0.479-0.277-1.118-0.184-1.513 0.198-0.003-0.562 0-1.124-0.001-1.686-0.227-0.002-0.453-0.002-0.68 0M5.361 4.79c0.147 0.141 0.295 0.279 0.444 0.417 0.277-0.37 0.818-0.393 1.215-0.231 0.291 0.141 0.279 0.508 0.272 0.783-0.587 0.039-1.268-0.135-1.764 0.27-0.497 0.433-0.36 1.383 0.263 1.631 0.494 0.183 1.123 0.165 1.513-0.229 0 0.099 0 0.198 0 0.297 0.222 0.002 0.445 0.002 0.668 0-0.003-0.792 0.007-1.584-0.005-2.376-0.005-0.404-0.257-0.796-0.645-0.928-0.647-0.207-1.494-0.205-1.961 0.366M13.234 4.584c-0.411 0.3-0.58 0.827-0.595 1.318-0.025 0.537 0.087 1.133 0.503 1.509 0.588 0.519 1.59 0.477 2.117-0.115-0.147-0.158-0.309-0.3-0.463-0.45-0.339 0.456-1.134 0.411-1.366-0.126-0.158-0.425-0.156-0.923-0.008-1.35 0.223-0.547 1.033-0.606 1.373-0.14 0.153-0.156 0.323-0.296 0.463-0.465-0.509-0.549-1.423-0.611-2.024-0.181M8.982 4.347c-0.001 0.734-0.002 1.468 0 2.202-0.003 0.357 0.114 0.738 0.402 0.967 0.483 0.384 1.245 0.321 1.673-0.119 0 0.111 0.001 0.222 0.002 0.333 0.222-0.001 0.444 0 0.666-0.001 0.002-1.125-0.003-2.251 0.003-3.377-0.228-0.012-0.455-0.006-0.682-0.006-0.002 0.668-0 1.336-0 2.004 0.003 0.202-0.029 0.42-0.163 0.579-0.231 0.27-0.675 0.303-0.962 0.102-0.196-0.143-0.258-0.399-0.255-0.63-0.004-0.686 0-1.371-0.002-2.055-0.226-0.002-0.453-0.002-0.679-0M4.976 9.831c-0.019 0.175-0.001 0.352 0.004 0.528 0.075 0.051 0.231 0.087 0.192 0.208-0.218 0.661-0.455 1.316-0.679 1.974-0.219 0.489-0.090 1.039-0.135 1.557 0.022 0.25-0.114 0.63 0.195 0.747 0.632 0.016 1.265 0.003 1.897 0.006 0.007-0.343 0.11-0.698 0.359-0.945 0.51-0.528 1.462-0.517 1.956 0.029 0.229 0.246 0.322 0.585 0.331 0.915 1.829 0 3.657 0.003 5.485-0.001 0.008-0.324 0.101-0.657 0.325-0.898 0.518-0.574 1.53-0.581 2.054-0.010 0.23 0.243 0.323 0.582 0.332 0.909 0.636 0.005 1.272 0.009 1.909 0.016 0.332 0.025 0.653-0.284 0.629-0.617-0.012-0.609 0.015-1.221-0.014-1.829-0.224-0.693-0.312-1.427-0.584-2.106-0.102-0.225-0.248-0.514-0.529-0.523-4.467 0.003-8.935 0.006-13.403 0.008-0.106 0.011-0.23-0.027-0.324 0.029M7.515 13.819c-0.497 0.118-0.861 0.626-0.807 1.136 0.033 0.529 0.509 0.982 1.040 0.986 0.537 0.030 1.044-0.404 1.101-0.938 0.124-0.723-0.632-1.394-1.335-1.184M15.664 13.815c-0.459 0.113-0.809 0.559-0.804 1.034-0.012 0.45 0.294 0.88 0.718 1.026 0.42 0.155 0.929 0.009 1.202-0.346 0.297-0.361 0.312-0.917 0.036-1.294-0.249-0.36-0.729-0.536-1.152-0.419M8.47 17.524c-0.502 0.441-0.945 0.954-1.438 1.407-0.955 0.177-1.919 0.32-2.877 0.486-0.12 0.028-0.162 0.171-0.149 0.28 0.014 0.307-0.018 0.62 0.022 0.924 0.131 0.242 0.474 0.084 0.696 0.126 0.009-0.244 0.071-0.497 0.239-0.683 0.389-0.453 1.179-0.448 1.564 0.007 0.165 0.185 0.224 0.436 0.236 0.678 1.725 0 3.448 0 5.172 0 0.011-0.254 0.078-0.516 0.256-0.706 0.383-0.426 1.131-0.425 1.514 0.002 0.178 0.189 0.243 0.451 0.255 0.705 0.162-0.003 0.324 0.011 0.486-0.009 0.188-0.088 0.114-0.327 0.126-0.491-0.019-0.378 0.030-0.765-0.032-1.137-0.582-0.504-1.206-0.963-1.803-1.451-0.088-0.061-0.168-0.165-0.287-0.15-1.327 0.009-2.655-0.014-3.981 0.012M15.56 18.299c-0.006 0.615 0 1.232-0.003 1.848 0.474 0 0.95 0.003 1.424-0.001 0.294-0.54 1.167-0.603 1.529-0.105 0.039 0.039 0.065 0.12 0.135 0.107 0.449 0.001 0.898-0 1.347-0-0.002-0.616 0.003-1.232-0.002-1.848 0-0.188-0.134-0.395-0.341-0.381-1.233-0.003-2.467-0.001-3.7-0.001-0.213-0.014-0.399 0.168-0.39 0.381M5.467 19.971c-0.358 0.119-0.6 0.505-0.547 0.879 0.041 0.406 0.422 0.739 0.83 0.723 0.418 0.004 0.795-0.356 0.811-0.773 0.058-0.564-0.566-1.038-1.094-0.83M12.667 19.971c-0.357 0.119-0.598 0.506-0.544 0.879 0.040 0.405 0.42 0.737 0.828 0.723 0.419 0.005 0.797-0.356 0.813-0.774 0.058-0.564-0.567-1.039-1.096-0.829M17.517 19.971c-0.343 0.113-0.584 0.471-0.553 0.832 0.016 0.408 0.379 0.762 0.787 0.771 0.415 0.027 0.81-0.308 0.853-0.721 0.099-0.579-0.54-1.098-1.087-0.882M15.556 20.331c-0.001 0.070-0.002 0.141-0.003 0.213-0.268 0-0.536-0-0.804 0 0 0.071 0 0.141 0 0.213 0.679 0 1.357 0 2.037-0 0.011-0.144 0.030-0.285 0.063-0.426-0.431 0-0.862-0-1.293 0M18.686 20.33c0.043 0.136 0.074 0.277 0.091 0.42 0.338 0.017 0.677 0.005 1.014 0.006 0.068-0.141 0.136-0.282 0.201-0.425-0.436-0.002-0.872 0-1.307-0.001z"></path>
<path fill="#fff" d="M6.183 6.285c0.36-0.098 0.741-0.033 1.109-0.050-0.009 0.256 0.038 0.555-0.141 0.765-0.246 0.246-0.642 0.231-0.957 0.156-0.402-0.1-0.402-0.756-0.011-0.872z"></path>
<path fill="#fff" d="M7.535 10.599c-0.009-0.096 0.075-0.184 0.171-0.178 0.395-0.002 0.791-0.004 1.186 0.002 0.124 0 0.163 0.141 0.194 0.236 0.144 0.508 0.294 1.014 0.437 1.522 0.039 0.109-0.058 0.197-0.123 0.27-0.55-0-1.101 0.006-1.653 0.004-0.113 0.012-0.218-0.092-0.213-0.204-0.002-0.551-0.003-1.101 0.001-1.653z"></path>
<path fill="#fff" d="M9.498 10.7c-0.029-0.108 0.019-0.293 0.159-0.279 0.529-0.002 1.058-0.003 1.587 0.001 0.11-0.002 0.15 0.122 0.179 0.207 0.149 0.517 0.301 1.035 0.447 1.554 0.036 0.108-0.061 0.191-0.122 0.265-0.533 0.004-1.066 0-1.599 0.004-0.137 0.014-0.18-0.141-0.212-0.243-0.144-0.504-0.299-1.005-0.439-1.509z"></path>
<path fill="#fff" d="M11.919 10.426c0.544-0.014 1.089-0.004 1.633-0.005 0.128-0.014 0.172 0.128 0.203 0.224 0.144 0.504 0.292 1.008 0.435 1.513 0.051 0.11-0.042 0.201-0.099 0.284-0.531 0.018-1.062 0.002-1.593 0.011-0.117 0.024-0.188-0.087-0.213-0.184-0.15-0.501-0.294-1.003-0.443-1.503-0.041-0.114-0.033-0.268 0.078-0.339z"></path>
<path fill="#fff" d="M14.268 10.425c0.541-0.012 1.083-0.003 1.624-0.004 0.13-0.012 0.175 0.134 0.206 0.232 0.144 0.505 0.293 1.009 0.435 1.515 0.045 0.135-0.081 0.307-0.229 0.281-0.503 0.002-1.005 0.001-1.508 0.002-0.115 0.003-0.153-0.129-0.183-0.216-0.146-0.502-0.295-1.003-0.441-1.506-0.033-0.105-0.012-0.252 0.096-0.304z"></path>
<path fill="#fff" d="M16.62 10.43c0.543-0.014 1.088-0.004 1.632-0.005 0.126-0.015 0.174 0.124 0.203 0.22 0.145 0.504 0.293 1.008 0.435 1.513 0.049 0.12-0.051 0.3-0.188 0.291-0.519 0.009-1.038 0.006-1.557 0.002-0.097 0.002-0.135-0.108-0.162-0.183-0.15-0.501-0.294-1.003-0.442-1.503-0.040-0.112-0.032-0.266 0.079-0.335z"></path>
<path fill="#fff" d="M5.484 10.633c0.035-0.096 0.087-0.231 0.215-0.207 0.434 0.004 0.869-0.006 1.302 0.009 0.108 0 0.129 0.13 0.123 0.214-0.002 0.534 0 1.068-0.004 1.602 0.002 0.092-0.064 0.209-0.168 0.204-0.634 0.004-1.267-0.008-1.902-0.006-0.063-0.072-0.167-0.161-0.122-0.268 0.181-0.518 0.371-1.032 0.554-1.548z"></path>
<path fill="#fff" d="M8.304 18.104c0.084-0.078 0.163-0.197 0.295-0.171 0.564 0.008 1.128-0.010 1.691 0.010-0.010 0.397-0.002 0.794-0.005 1.191-0.909-0.001-1.818 0.003-2.728-0.002-0.092 0.012-0.183-0.105-0.105-0.178 0.276-0.291 0.572-0.564 0.852-0.85z"></path>
<path fill="#fff" d="M10.611 17.937c0.511-0.008 1.023-0.006 1.535-0 0.349 0.394 0.798 0.709 1.064 1.17-0.861 0.062-1.732 0.009-2.596 0.027-0.002-0.399 0.003-0.798-0.003-1.196z"></path>
<path fill="#000" d="M1.419 0.423c0.142-0.021 0.287-0.017 0.431-0.018 6.851 0.003 13.702-0.002 20.553 0.003 0.633-0.011 1.2 0.555 1.188 1.188 0.002 6.936 0.002 13.871-0 20.806 0.012 0.653-0.588 1.224-1.239 1.189-6.918-0-13.836 0.003-20.755-0.002-0.633 0.010-1.2-0.555-1.188-1.188-0.002-6.935-0.002-13.871 0-20.806-0.009-0.569 0.447-1.096 1.010-1.173M1.469 1.026c-0.28 0.059-0.48 0.339-0.462 0.621-0 6.902-0 13.804 0 20.706-0.027 0.351 0.289 0.666 0.639 0.639 6.903 0.001 13.804 0.001 20.707 0 0.349 0.026 0.666-0.289 0.639-0.639 0-6.903 0-13.805 0-20.706 0.027-0.351-0.289-0.666-0.639-0.639-6.885-0.002-13.77 0-20.655-0.002-0.077 0.002-0.155 0.003-0.23 0.020z"></path>
<path fill="#000" d="M16.042 2.978c0.226-0.001 0.453-0.001 0.679 0 0.002 0.562-0.001 1.124 0.002 1.686 0.395-0.383 1.034-0.476 1.513-0.198 0.362 0.206 0.531 0.636 0.534 1.037 0.004 0.742 0.001 1.485 0.001 2.228-0.226 0.002-0.453 0.002-0.679 0-0.006-0.726 0.009-1.454-0.008-2.181-0.003-0.304-0.231-0.593-0.54-0.625-0.377-0.084-0.794 0.188-0.81 0.586-0.025 0.739-0.003 1.479-0.012 2.219-0.226 0.002-0.453 0.002-0.679 0-0.001-1.584-0.001-3.168 0-4.752z"></path>
<path fill="#000" d="M5.361 4.79c0.466-0.57 1.314-0.572 1.96-0.366 0.389 0.132 0.64 0.525 0.645 0.928 0.012 0.792 0.003 1.584 0.005 2.376-0.222 0.002-0.445 0.002-0.668-0 0-0.099-0-0.198-0-0.297-0.39 0.394-1.019 0.413-1.513 0.229-0.622-0.248-0.759-1.197-0.263-1.631 0.495-0.405 1.177-0.231 1.764-0.27 0.006-0.274 0.018-0.642-0.272-0.783-0.397-0.162-0.938-0.139-1.215 0.231-0.149-0.138-0.297-0.277-0.444-0.417M6.183 6.285c-0.392 0.116-0.392 0.771 0.011 0.871 0.315 0.075 0.71 0.090 0.957-0.156 0.179-0.211 0.132-0.51 0.141-0.765-0.369 0.017-0.749-0.048-1.109 0.050z"></path>
<path fill="#000" d="M13.234 4.584c0.6-0.429 1.515-0.368 2.023 0.181-0.141 0.168-0.31 0.309-0.463 0.465-0.34-0.466-1.15-0.407-1.373 0.14-0.148 0.427-0.15 0.925 0.008 1.35 0.232 0.536 1.027 0.582 1.366 0.126 0.153 0.151 0.315 0.293 0.463 0.45-0.526 0.591-1.528 0.633-2.116 0.115-0.416-0.375-0.528-0.972-0.503-1.509 0.015-0.492 0.183-1.017 0.595-1.318z"></path>
<path fill="#000" d="M8.982 4.347c0.226-0.001 0.453-0.001 0.68 0 0.003 0.685-0.002 1.37 0.002 2.055-0.002 0.231 0.060 0.486 0.255 0.63 0.286 0.2 0.731 0.168 0.961-0.102 0.135-0.159 0.167-0.377 0.164-0.579 0-0.668-0.001-1.336 0-2.004 0.228 0 0.455-0.006 0.682 0.006-0.006 1.125-0.001 2.251-0.003 3.377-0.222 0.001-0.444 0-0.666 0.001-0.001-0.111-0.002-0.222-0.002-0.333-0.428 0.441-1.189 0.503-1.672 0.119-0.288-0.229-0.405-0.609-0.402-0.967-0.002-0.734-0.001-1.468 0-2.202z"></path>
<path fill="#000" d="M4.976 9.831c0.095-0.057 0.219-0.018 0.324-0.029 4.467-0.002 8.935-0.005 13.403-0.008 0.282 0.009 0.427 0.298 0.529 0.523 0.271 0.678 0.36 1.412 0.583 2.106 0.029 0.608 0.002 1.22 0.014 1.829 0.024 0.333-0.297 0.642-0.629 0.617-0.636-0.006-1.272-0.012-1.909-0.016-0.009-0.328-0.102-0.666-0.332-0.909-0.524-0.57-1.536-0.564-2.054 0.011-0.225 0.241-0.318 0.574-0.325 0.898-1.828 0.004-3.657 0.002-5.485 0.001-0.009-0.33-0.102-0.669-0.332-0.915-0.493-0.546-1.445-0.556-1.956-0.029-0.249 0.246-0.351 0.601-0.358 0.945-0.632-0.004-1.265 0.010-1.897-0.006-0.309-0.117-0.173-0.497-0.195-0.747 0.044-0.518-0.084-1.068 0.135-1.557 0.225-0.659 0.462-1.314 0.679-1.974 0.039-0.12-0.117-0.156-0.192-0.208-0.005-0.176-0.024-0.353-0.004-0.528M7.535 10.599c-0.004 0.551-0.003 1.102-0.001 1.653-0.005 0.112 0.101 0.216 0.213 0.204 0.551 0.003 1.102-0.005 1.653-0.004 0.065-0.073 0.162-0.162 0.123-0.27-0.143-0.508-0.293-1.014-0.437-1.522-0.030-0.096-0.069-0.236-0.194-0.236-0.395-0.006-0.791-0.003-1.186-0.002-0.097-0.006-0.181 0.081-0.171 0.178M9.498 10.7c0.14 0.505 0.295 1.005 0.439 1.509 0.032 0.102 0.075 0.257 0.212 0.243 0.533-0.003 1.066 0 1.599-0.004 0.060-0.075 0.158-0.158 0.122-0.265-0.146-0.519-0.297-1.036-0.447-1.554-0.029-0.085-0.069-0.209-0.179-0.207-0.529-0.005-1.057-0.003-1.587-0.001-0.139-0.015-0.188 0.171-0.159 0.279M11.919 10.426c-0.111 0.071-0.119 0.225-0.078 0.339 0.15 0.501 0.293 1.003 0.443 1.503 0.026 0.098 0.096 0.207 0.213 0.184 0.531-0.009 1.062 0.008 1.593-0.010 0.057-0.084 0.151-0.174 0.099-0.284-0.143-0.505-0.291-1.009-0.435-1.514-0.030-0.096-0.075-0.237-0.203-0.223-0.544 0.001-1.089-0.009-1.633 0.005M14.268 10.425c-0.108 0.052-0.128 0.2-0.096 0.304 0.145 0.502 0.294 1.003 0.441 1.506 0.030 0.088 0.068 0.219 0.183 0.216 0.503-0.001 1.005 0 1.508-0.002 0.148 0.026 0.274-0.147 0.229-0.281-0.143-0.505-0.291-1.009-0.435-1.515-0.030-0.099-0.075-0.245-0.206-0.233-0.541 0-1.083-0.008-1.624 0.004M16.62 10.43c-0.111 0.069-0.12 0.222-0.079 0.335 0.149 0.501 0.293 1.003 0.442 1.503 0.027 0.075 0.065 0.184 0.162 0.183 0.519 0.005 1.038 0.006 1.557-0.002 0.137 0.009 0.237-0.171 0.188-0.291-0.143-0.505-0.291-1.009-0.435-1.514-0.029-0.096-0.078-0.236-0.203-0.22-0.543 0.001-1.088-0.009-1.632 0.005M5.484 10.633c-0.183 0.516-0.373 1.030-0.554 1.548-0.045 0.107 0.059 0.195 0.122 0.268 0.634-0.002 1.268 0.011 1.902 0.006 0.104 0.005 0.17-0.112 0.168-0.204 0.005-0.534 0.003-1.068 0.004-1.602 0.005-0.084-0.016-0.215-0.123-0.215-0.434-0.015-0.868-0.006-1.302-0.009-0.129-0.024-0.18 0.111-0.215 0.207z"></path>
<path fill="#000" d="M7.515 13.819c0.704-0.21 1.459 0.461 1.335 1.184-0.057 0.534-0.565 0.967-1.101 0.938-0.531-0.004-1.008-0.456-1.040-0.986-0.054-0.51 0.309-1.017 0.807-1.136z"></path>
<path fill="#000" d="M15.664 13.815c0.423-0.117 0.903 0.059 1.152 0.419 0.276 0.377 0.261 0.933-0.036 1.294-0.273 0.355-0.781 0.501-1.202 0.346-0.424-0.145-0.73-0.576-0.718-1.026-0.006-0.474 0.344-0.921 0.804-1.034z"></path>
<path fill="#000" d="M8.47 17.524c1.326-0.026 2.654-0.003 3.981-0.012 0.119-0.016 0.199 0.088 0.287 0.15 0.597 0.488 1.221 0.947 1.803 1.451 0.062 0.372 0.012 0.759 0.032 1.137-0.012 0.165 0.062 0.402-0.126 0.491-0.162 0.020-0.324 0.006-0.486 0.009-0.012-0.253-0.077-0.516-0.255-0.705-0.383-0.426-1.131-0.428-1.514-0.002-0.178 0.189-0.245 0.453-0.256 0.706-1.724 0-3.448 0-5.172 0-0.012-0.242-0.070-0.493-0.236-0.678-0.385-0.456-1.176-0.46-1.564-0.007-0.168 0.186-0.23 0.438-0.239 0.683-0.222-0.042-0.566 0.116-0.696-0.126-0.041-0.304-0.009-0.617-0.022-0.924-0.013-0.11 0.030-0.252 0.149-0.28 0.958-0.167 1.921-0.309 2.877-0.486 0.493-0.453 0.936-0.965 1.438-1.407M8.304 18.104c-0.281 0.287-0.576 0.558-0.852 0.85-0.078 0.073 0.013 0.189 0.105 0.178 0.909 0.004 1.818 0 2.728 0.002 0.003-0.397-0.006-0.794 0.005-1.191-0.563-0.021-1.127-0.002-1.691-0.010-0.132-0.025-0.212 0.093-0.296 0.171M10.611 17.937c0.005 0.399 0 0.798 0.003 1.196 0.864-0.018 1.736 0.036 2.597-0.027-0.265-0.461-0.715-0.776-1.064-1.17-0.511-0.006-1.023-0.007-1.535 0z"></path>
<path fill="#000" d="M15.56 18.299c-0.009-0.214 0.177-0.396 0.39-0.381 1.233 0 2.467-0.002 3.7 0.001 0.207-0.015 0.341 0.193 0.341 0.381 0.005 0.615 0 1.232 0.002 1.848-0.449 0-0.898 0.002-1.347 0-0.071 0.013-0.096-0.068-0.135-0.107-0.361-0.498-1.235-0.435-1.529 0.105-0.474 0.003-0.95 0.001-1.424 0.001 0.003-0.616-0.003-1.232 0.003-1.848z"></path>
<path fill="#000" d="M5.467 19.971c0.528-0.208 1.152 0.266 1.094 0.83-0.017 0.417-0.393 0.777-0.811 0.773-0.408 0.015-0.789-0.318-0.83-0.723-0.054-0.375 0.189-0.761 0.547-0.879z"></path>
<path fill="#000" d="M12.667 19.971c0.528-0.21 1.154 0.264 1.096 0.829-0.016 0.418-0.394 0.778-0.813 0.774-0.408 0.014-0.787-0.318-0.828-0.723-0.054-0.374 0.187-0.761 0.544-0.879z"></path>
<path fill="#000" d="M17.517 19.971c0.547-0.216 1.185 0.303 1.087 0.882-0.042 0.414-0.438 0.748-0.853 0.721-0.408-0.009-0.771-0.363-0.787-0.771-0.030-0.361 0.21-0.72 0.553-0.832z"></path>
<path fill="#000" d="M15.556 20.331c0.431-0.001 0.861-0 1.293-0-0.032 0.141-0.051 0.282-0.063 0.426-0.679 0.001-1.357 0.001-2.037 0 0-0.072 0-0.142 0-0.213 0.268-0.001 0.536 0 0.804-0 0.001-0.071 0.002-0.142 0.003-0.213z"></path>
<path fill="#000" d="M18.686 20.33c0.435 0.001 0.871-0 1.307 0.001-0.066 0.142-0.134 0.284-0.201 0.425-0.338-0.002-0.677 0.011-1.014-0.006-0.017-0.143-0.048-0.283-0.091-0.42z"></path>
</svg>
