<!-- Generated by IcoMoon.io -->
<svg version="1.1" xmlns="http://www.w3.org/2000/svg" width="40" height="24" viewBox="0 0 40 24">
<title>complementary--steep-descent--g1</title>
<path fill="#3f3f3f" opacity="0.78" d="M1.109 0h38.122l0.228 0.188c-12.859 0.024-25.718 0.024-38.577 0l0.228-0.188z"></path>
<path fill="#fff" d="M0.192 0.859c0.214-0.24 0.446-0.464 0.69-0.672 12.859 0.024 25.718 0.024 38.577 0 0.248 0.214 0.48 0.448 0.694 0.698-0.030 7.414-0.026 14.828-0.002 22.241-0.22 0.246-0.456 0.476-0.708 0.69-12.849-0.030-25.7-0.032-38.549 0.002-0.254-0.216-0.492-0.45-0.71-0.702 0.034-7.42 0.020-14.84 0.008-22.257M5.052 1.853c-0.357 0.649-0.71 1.305-1.057 1.962 0.224 0.109 0.446 0.22 0.67 0.331 1.067-1.355 3.562-0.256 2.815 1.474 1.807 0.938 3.608 1.886 5.417 2.822 1.083-1.182 3.364-0.194 2.779 1.478 0.389 0.127 0.778 0.252 1.172 0.369 0.151-0.149 0.303-0.298 0.454-0.448 0-0.321 0.002-0.641 0.002-0.962-0.964-0.704-1.956-1.369-2.918-2.075-0.264-0.95-0.557-1.892-0.821-2.84-1.755-0.936-3.548-1.799-5.32-2.696-1.055 0.278-2.087 1.137-3.193 0.585M19.958 3.080c0.161 1.68 0.268 3.366 0.482 5.040 0.186-1.678 0.309-3.36 0.47-5.040-0.319 0-0.635 0-0.952 0M17.578 3.624c0.756 1.517 1.46 3.059 2.247 4.562-0.409-1.638-0.897-3.257-1.351-4.883-0.298 0.107-0.597 0.214-0.895 0.321M22.57 3.302c-0.466 1.668-0.948 3.332-1.392 5.006 0.778-1.553 1.527-3.122 2.289-4.683-0.301-0.107-0.599-0.216-0.897-0.323M4.921 4.338c-0.325 0.428-0.089 0.946 0.077 1.382-0.704-0.369-1.428-1.039-2.277-0.728 0.139 0.292 0.242 0.649 0.565 0.793 9.721 5.211 19.464 10.381 29.179 15.6 0.333 0.204 1.059 0.401 1.065-0.198-0.49-0.734-1.422-0.974-2.164-1.377 0.984 0.161 2.289-0.292 2.301-1.456 0.012-1.444-2.067-1.976-2.934-0.932-0.625 0.633-0.333 1.613 0.25 2.162-2.62-1.46-5.292-2.826-7.92-4.272 1.47 0.472 3.074-1.434 1.69-2.541-1.468-1.371-3.909 0.902-2.192 2.327-2.902-1.628-5.861-3.156-8.797-4.721 1.103 0.452 2.317-1.021 1.325-1.868-0.994-0.966-2.749 0.252-2.013 1.517-2.42-1.331-4.838-2.67-7.315-3.888 0.72-0.044 1.646-0.424 1.573-1.297-0.089-1.16-1.835-1.456-2.412-0.502M24.885 4.445c-1.375 2.479-2.757 4.955-4.128 7.438 0.442 0.24 0.885 0.48 1.333 0.716 1.39-1.301 4.122-0.129 3.501 1.898 1.628 0.871 3.247 1.761 4.879 2.626 1.351-1.335 4.072-0.196 3.533 1.817 0.434 0.254 0.899 0.47 1.418 0.409 0.339-1 1.19-1.926 0.912-3.041 0.097-0.998 0.825-1.874 0.698-2.916-0.676-0.379-1.355-0.752-2.037-1.117 0.333-0.643 0.67-1.283 1.002-1.922-3.705-1.966-7.392-3.965-11.111-5.907z"></path>
<path fill="#fff" d="M7.014 2.662c0.486-0.307 0.974-0.609 1.458-0.918 0.591 0.327 1.184 0.651 1.777 0.976-0.256 0.413-0.512 0.829-0.766 1.244-0.827-0.428-1.646-0.869-2.469-1.303z"></path>
<path fill="#fff" d="M10.719 2.973c0.801 0.438 1.601 0.881 2.406 1.313 0.169 0.631 0.335 1.261 0.492 1.894-1.224-0.643-2.434-1.313-3.667-1.942 0.252-0.424 0.51-0.845 0.768-1.265z"></path>
<path fill="#fff" d="M34.695 12.906c0.534 0.278 1.071 0.555 1.607 0.833-0.264 0.74-0.528 1.478-0.797 2.216-0.655-0.309-1.307-0.623-1.964-0.928 0.377-0.712 0.754-1.422 1.154-2.122z"></path>
<path fill="#393939" opacity="0.75" d="M0 1.077l0.192-0.218c0.012 7.418 0.026 14.838-0.008 22.257l-0.184-0.224v-21.816z"></path>
<path fill="#393939" opacity="0.75" d="M40.153 0.885l0.184 0.226v21.8l-0.186 0.216c-0.024-7.414-0.028-14.828 0.002-22.241z"></path>
<path fill="#000" d="M5.052 1.853c1.105 0.553 2.138-0.307 3.193-0.585 1.773 0.897 3.566 1.761 5.32 2.696 0.264 0.948 0.557 1.89 0.821 2.84 0.962 0.706 1.954 1.371 2.918 2.075 0 0.321-0.002 0.641-0.002 0.962-0.151 0.149-0.303 0.298-0.454 0.448-0.393-0.117-0.783-0.242-1.172-0.369 0.585-1.672-1.696-2.66-2.779-1.478-1.809-0.936-3.61-1.884-5.417-2.822 0.746-1.73-1.749-2.83-2.815-1.474-0.224-0.111-0.446-0.222-0.67-0.331 0.347-0.657 0.7-1.313 1.057-1.962M7.014 2.662c0.823 0.434 1.642 0.875 2.469 1.303 0.254-0.415 0.51-0.831 0.766-1.244-0.593-0.325-1.186-0.649-1.777-0.976-0.484 0.309-0.972 0.611-1.458 0.918M10.719 2.973c-0.258 0.419-0.516 0.841-0.768 1.265 1.232 0.629 2.442 1.299 3.667 1.942-0.157-0.633-0.323-1.263-0.492-1.894-0.805-0.432-1.605-0.875-2.406-1.313z"></path>
<path fill="#000" d="M19.958 3.080c0.317 0 0.633 0 0.952 0-0.161 1.68-0.284 3.362-0.47 5.040-0.214-1.674-0.321-3.36-0.482-5.040z"></path>
<path fill="#000" d="M17.578 3.624c0.298-0.107 0.597-0.214 0.895-0.321 0.454 1.626 0.942 3.245 1.351 4.883-0.787-1.503-1.49-3.045-2.247-4.562z"></path>
<path fill="#000" d="M22.57 3.302c0.298 0.107 0.597 0.216 0.897 0.323-0.762 1.561-1.511 3.13-2.289 4.683 0.444-1.674 0.926-3.338 1.392-5.006z"></path>
<path fill="#000" d="M4.921 4.338c0.577-0.954 2.323-0.657 2.412 0.502 0.073 0.873-0.853 1.252-1.573 1.297 2.477 1.218 4.895 2.557 7.315 3.888-0.736-1.265 1.018-2.483 2.013-1.517 0.992 0.847-0.222 2.319-1.325 1.868 2.936 1.565 5.895 3.094 8.797 4.721-1.716-1.426 0.724-3.699 2.192-2.327 1.384 1.107-0.22 3.013-1.69 2.541 2.628 1.446 5.3 2.811 7.92 4.272-0.583-0.549-0.875-1.529-0.25-2.162 0.867-1.045 2.947-0.512 2.934 0.932-0.012 1.164-1.317 1.617-2.301 1.456 0.742 0.403 1.674 0.643 2.164 1.377-0.006 0.599-0.732 0.401-1.065 0.198-9.715-5.219-19.458-10.389-29.179-15.6-0.323-0.143-0.426-0.5-0.565-0.793 0.849-0.311 1.573 0.359 2.277 0.728-0.165-0.436-0.401-0.954-0.077-1.382z"></path>
<path fill="#000" d="M24.885 4.445c3.719 1.942 7.406 3.941 11.111 5.907-0.333 0.639-0.67 1.279-1.002 1.922 0.682 0.365 1.361 0.738 2.037 1.117 0.127 1.043-0.601 1.918-0.698 2.916 0.278 1.115-0.573 2.041-0.912 3.041-0.518 0.061-0.984-0.155-1.418-0.409 0.538-2.013-2.182-3.152-3.533-1.817-1.632-0.865-3.251-1.755-4.879-2.626 0.621-2.027-2.112-3.199-3.501-1.898-0.448-0.236-0.891-0.476-1.333-0.716 1.371-2.483 2.753-4.959 4.128-7.438M34.695 12.906c-0.399 0.7-0.776 1.41-1.154 2.122 0.657 0.305 1.309 0.619 1.964 0.928 0.268-0.738 0.532-1.476 0.797-2.216-0.536-0.278-1.073-0.555-1.607-0.833z"></path>
<path fill="#373737" opacity="0.75" d="M0.893 23.818c12.849-0.034 25.7-0.032 38.549-0.002l-0.224 0.184h-38.102l-0.224-0.182z"></path>
</svg>
