<!-- Generated by IcoMoon.io -->
<svg version="1.1" xmlns="http://www.w3.org/2000/svg" width="48" height="24" viewBox="0 0 48 24">
<title>complementary--camera--g5</title>
<path fill="#231f20" d="M2.471 0h43.066c0.944 0.27 1.784 0.854 2.287 1.706v20.972c-0.316 0.551-0.776 1.011-1.332 1.322h-44.995c-0.754-0.399-1.235-1.142-1.496-1.932v-19.811c0.464-1.052 1.327-1.971 2.471-2.257M2.698 0.595c-1.168 0.263-2.241 1.32-2.174 2.576 0.016 6.187-0.007 12.374 0.012 18.561 0.252 1.11 1.292 2.052 2.455 2.091 14.066 0 28.135 0 42.203 0 1.481-0.094 2.404-1.613 2.446-2.989 0.019-5.532-0.004-11.065 0.011-16.599 0.187-1.747-0.893-3.695-2.818-3.704-13.414-0.005-26.829 0-40.244-0.004-0.628 0.019-1.269-0.064-1.89 0.067z"></path>
<path fill="#231f20" d="M2.7 0.946c0.561-0.122 1.142-0.051 1.712-0.065 13.474 0.005 26.949-0.002 40.422 0.004 0.999 0.039 2.1 0.704 2.278 1.742 0.018 6.244-0.005 12.489 0.011 18.732 0.076 1.135-1.009 2.116-2.114 2.112-14.006 0-28.013 0-42.019 0-0.979 0.004-1.902-0.806-2.102-1.742-0.016-6.187 0.005-12.374-0.011-18.559-0.048-1.057 0.775-2.058 1.823-2.224M1.939 3.335c0.004 6.095 0 12.192 0.002 18.288 0.265 0.261 0.528 0.524 0.789 0.789 14.174 0.002 28.35-0.004 42.526 0.004 0.326-0.284 0.821-0.54 0.798-1.043 0.016-6.222-0.005-12.445 0.011-18.665-0.394-0.356-0.815-0.826-1.399-0.768-13.775 0.004-27.552 0.004-41.328 0-0.755-0.051-1.449 0.641-1.398 1.396z"></path>
<path fill="#231f20" d="M16.316 12.176c5.123 0 10.244 0 15.367 0 0.143 0.145 0.289 0.289 0.434 0.434 0 2.652 0 5.303 0 7.955-0.145 0.145-0.291 0.289-0.434 0.434-4.92 0-9.84-0.002-14.76 0.002-0.39 0.034-0.713-0.206-1.048-0.362 0.016-2.675 0.002-5.352 0.007-8.029 0.145-0.145 0.289-0.289 0.434-0.434M23.345 13.65c-0.858 0.175-1.502 0.835-1.991 1.521-0.812 1.346-0.131 3.185 1.154 3.967 1.080 0.787 2.721 0.542 3.575-0.466 1.195-0.997 1.246-3.035 0.088-4.078-0.667-0.819-1.802-1.202-2.827-0.944z"></path>
<path fill="#fff" d="M2.698 0.595c0.621-0.131 1.262-0.048 1.89-0.067 13.415 0.004 26.831-0.002 40.244 0.004 1.925 0.009 3.005 1.957 2.818 3.704-0.014 5.534 0.009 11.066-0.011 16.599-0.042 1.376-0.965 2.896-2.446 2.989-14.068 0-28.136 0-42.203 0-1.163-0.039-2.202-0.981-2.455-2.091-0.019-6.187 0.004-12.374-0.012-18.561-0.067-1.256 1.006-2.314 2.174-2.576M2.7 0.946c-1.048 0.166-1.871 1.166-1.823 2.224 0.016 6.185-0.005 12.372 0.011 18.559 0.199 0.935 1.122 1.745 2.102 1.742 14.006 0 28.013 0 42.019 0 1.105 0.004 2.19-0.978 2.114-2.112-0.016-6.244 0.007-12.489-0.011-18.732-0.178-1.038-1.279-1.703-2.278-1.742-13.474-0.005-26.949 0.002-40.422-0.004-0.57 0.014-1.151-0.056-1.712 0.065z"></path>
<path fill="#fff" d="M1.939 3.335c-0.051-0.755 0.642-1.447 1.398-1.396 13.775 0.004 27.552 0.004 41.328 0 0.584-0.058 1.006 0.411 1.399 0.768-0.016 6.221 0.005 12.443-0.011 18.665 0.023 0.503-0.471 0.759-0.798 1.043-14.176-0.007-28.352-0.002-42.526-0.004-0.261-0.265-0.524-0.528-0.789-0.789-0.002-6.095 0.002-12.192-0.002-18.288M23.647 3.529c0 1.53 0 3.058 0 4.588 0.235 0 0.469 0 0.706 0 0-1.53 0-3.058 0-4.588-0.236 0-0.471 0-0.706 0M17.732 5.485c1.165 1.016 2.366 2.001 3.642 2.875 0.141-0.143 0.282-0.288 0.424-0.432-1.165-1.016-2.366-2.001-3.642-2.875-0.141 0.143-0.282 0.288-0.424 0.432M26.211 7.915c0.081 0.095 0.245 0.288 0.326 0.383 0.090-0.002 0.272-0.004 0.364-0.004 1.046-1.024 2.358-1.74 3.362-2.815-0.141-0.145-0.281-0.289-0.422-0.432-1.232 0.925-2.464 1.862-3.63 2.868M21.173 8.846c0.146 0.96-0.3 2.148 0.244 2.954 1.738 0.064 3.482-0.004 5.222 0.030 0.551-0.942 0.551-2.248 0-3.191-1.816 0.125-3.692-0.235-5.465 0.206M16.066 8.774c-0.004 0.235-0.007 0.469-0.009 0.704 1.451 0.288 2.884 0.651 4.325 0.979 0.081-0.102 0.247-0.307 0.328-0.409-0.071-0.076-0.215-0.226-0.286-0.302-1.463-0.281-2.901-0.676-4.359-0.972M27.577 9.738c-0.071 0.078-0.215 0.233-0.286 0.311 0.081 0.104 0.245 0.309 0.326 0.411 1.445-0.312 2.878-0.679 4.325-0.979-0.004-0.235-0.005-0.469-0.009-0.704-1.463 0.268-2.88 0.752-4.357 0.962M16.316 12.176c-0.145 0.145-0.289 0.289-0.434 0.434-0.005 2.677 0.009 5.354-0.007 8.029 0.335 0.155 0.658 0.395 1.048 0.362 4.92-0.004 9.84-0.002 14.76-0.002 0.143-0.145 0.289-0.289 0.434-0.434 0-2.652 0-5.303 0-7.955-0.145-0.145-0.291-0.289-0.434-0.434-5.123 0-10.244 0-15.367 0z"></path>
<path fill="#fff" d="M23.345 13.65c1.025-0.258 2.16 0.125 2.827 0.944 1.158 1.043 1.106 3.081-0.088 4.078-0.854 1.008-2.495 1.253-3.575 0.466-1.285-0.782-1.966-2.621-1.154-3.967 0.489-0.686 1.133-1.346 1.991-1.521z"></path>
<path fill="#060606" d="M23.647 3.529c0.235 0 0.469 0 0.706 0 0 1.53 0 3.058 0 4.588-0.236 0-0.471 0-0.706 0 0-1.53 0-3.058 0-4.588z"></path>
<path fill="#060606" d="M17.732 5.485c0.141-0.145 0.282-0.289 0.424-0.432 1.276 0.874 2.478 1.858 3.642 2.875-0.141 0.145-0.282 0.289-0.424 0.432-1.276-0.874-2.478-1.858-3.642-2.875z"></path>
<path fill="#060606" d="M26.211 7.915c1.166-1.006 2.398-1.943 3.63-2.868 0.141 0.143 0.281 0.288 0.422 0.432-1.004 1.075-2.315 1.791-3.362 2.815-0.092 0-0.274 0.002-0.364 0.004-0.081-0.095-0.245-0.288-0.326-0.383z"></path>
<path fill="#060606" d="M21.173 8.846c1.774-0.441 3.649-0.081 5.465-0.206 0.551 0.942 0.551 2.248 0 3.191-1.74-0.034-3.484 0.034-5.222-0.030-0.544-0.806-0.097-1.994-0.244-2.954z"></path>
<path fill="#060606" d="M16.066 8.774c1.458 0.296 2.896 0.692 4.359 0.972 0.071 0.076 0.215 0.226 0.286 0.302-0.081 0.102-0.247 0.307-0.328 0.409-1.442-0.328-2.875-0.692-4.325-0.979 0.002-0.235 0.005-0.469 0.009-0.704z"></path>
<path fill="#060606" d="M27.577 9.738c1.477-0.21 2.894-0.694 4.357-0.962 0.004 0.235 0.005 0.469 0.009 0.704-1.447 0.3-2.88 0.667-4.325 0.979-0.081-0.102-0.245-0.307-0.326-0.411 0.071-0.078 0.215-0.233 0.286-0.311z"></path>
</svg>
