<svg xmlns="http://www.w3.org/2000/svg" width="24" height="24">
    <path fill="#ffd033" d="M1.716 0H22.27c.893.126 1.591.88 1.73 1.757v20.446c-.102.93-.893 1.684-1.811 1.798H1.827c-.916-.119-1.682-.834-1.828-1.751V1.762C.132.89.832.132 1.715 0zm.253.328C.987.456.253 1.425.3 2.397.304 8.876.292 15.355.305 21.833c-.008 1.045.922 1.979 1.97 1.954 6.523.006 13.046.007 19.57-.001 1.193.024 2.108-1.154 1.958-2.306-.011-6.4.008-12.8-.01-19.201.011-1.082-.976-2.051-2.065-1.978C15.142.319 8.553.263 1.969.329z"/>
    <path fill="#ffd033" d="M1.847 1.03C8.471.938 15.105 1.017 21.732.99c.666-.079 1.326.473 1.265 1.163.004 6.565.004 13.13 0 19.696.041.63-.522 1.184-1.148 1.158-6.565.006-13.132.006-19.698 0-.625.026-1.188-.528-1.147-1.158-.005-6.565-.004-13.13 0-19.696-.038-.517.33-1.025.844-1.123zm6.055 3.235c-.178.569-.334 1.241-.892 1.561-.613.323-1.321.373-1.996.468-.006.341-.007.683-.005 1.024.84.007 1.68-.002 2.519.005.004 2.528-.004 5.057.004 7.584.479.007.958.007 1.436.001.002-3.55.004-7.098-.001-10.646-.355-.002-.71-.002-1.066.004zm7.626-.001c-.977.144-1.795.836-2.231 1.704-.732 1.445-.823 3.115-.736 4.705.086 1.214.373 2.48 1.164 3.44 1.258 1.524 3.976 1.424 5.09-.22.944-1.343 1.108-3.059 1.086-4.655-.035-1.385-.239-2.88-1.163-3.976-.773-.912-2.07-1.195-3.211-1zM6.602 17.19a546.42 546.42 0 0 0 0 3.841l.745-.002c.01-1.036-.004-2.071.005-3.108.251 1.034.463 2.077.708 3.112.254-.001.509-.004.763-.004.241-1.038.461-2.08.71-3.115.013 1.039-.002 2.077.008 3.116h.746c.004-1.279.002-2.56 0-3.839-.382-.002-.764-.004-1.146 0-.232.995-.455 1.992-.688 2.987-.247-.992-.463-1.991-.696-2.986A63.747 63.747 0 0 0 6.6 17.19zm4.44 0c-.005 1.271-.004 2.54-.001 3.811l.809-.002c-.001-.448.001-.895.004-1.343.449-.011.907.02 1.349-.084 1.04-.24 1.027-2.045.001-2.303-.709-.152-1.442-.053-2.161-.079zm3.509 0c-.002 1.28-.004 2.56 0 3.839l.806.002c.004-.57.001-1.14.004-1.71.488-.004.977-.004 1.466.001.004.569 0 1.138.004 1.706l.806.002c.004-1.282.005-2.562 0-3.842l-.808.002-.002 1.465c-.49.006-.978.006-1.466.001-.001-.49-.001-.979-.004-1.469l-.806.001z"/>
    <path fill="#ffd033" d="M15.88 5.45c.772-.151 1.681.14 2.018.899.61 1.382.593 2.94.52 4.421-.091.955-.206 2.041-.966 2.722-.808.757-2.28.592-2.816-.409-.754-1.384-.688-3.042-.59-4.568.114-1.184.45-2.804 1.835-3.064zM11.854 17.85c.378.018.794-.061 1.142.125.293.25.238.874-.175.976-.317.072-.646.035-.967.038-.005-.38-.005-.76 0-1.139z"/>
    <path fill="#050505" d="M1.969.328C8.553.262 15.143.318 21.728.3c1.09-.073 2.076.895 2.065 1.978.018 6.401-.001 12.802.01 19.201.15 1.152-.766 2.33-1.958 2.306-6.523.008-13.046.007-19.57.001-1.049.025-1.979-.908-1.97-1.954C.292 15.353.304 8.874.3 2.396.253 1.424.988.456 1.969.327zm-.122.702c-.514.098-.882.606-.844 1.123-.004 6.565-.005 13.13 0 19.696-.041.63.522 1.184 1.147 1.158 6.566.006 13.133.006 19.698 0 .626.026 1.189-.528 1.148-1.158.004-6.565.004-13.13 0-19.696.061-.69-.599-1.242-1.265-1.163-6.628.026-13.261-.053-19.885.04z"/>
    <path fill="#231f20" d="M7.902 4.265c.355-.006.71-.006 1.066-.004.005 3.548.004 7.097.001 10.646-.479.006-.958.006-1.436-.001-.007-2.527 0-5.056-.004-7.584-.839-.007-1.679.002-2.519-.005-.002-.341-.001-.683.005-1.024.674-.095 1.382-.145 1.996-.468.558-.32.714-.992.892-1.561zM15.528 4.264c1.141-.196 2.438.088 3.211 1 .924 1.096 1.128 2.591 1.163 3.976.022 1.596-.142 3.312-1.086 4.655-1.115 1.644-3.833 1.744-5.09.22-.791-.96-1.078-2.226-1.164-3.44-.088-1.59.004-3.26.736-4.705.436-.868 1.254-1.56 2.231-1.704zm.352 1.186c-1.385.259-1.721 1.879-1.835 3.064-.097 1.526-.163 3.185.59 4.568.536 1.001 2.009 1.166 2.816.409.76-.68.875-1.766.966-2.722.073-1.481.09-3.038-.52-4.421-.337-.758-1.247-1.05-2.018-.899zM6.602 17.19c.385-.002.772-.001 1.157.002.233.995.449 1.993.696 2.986.233-.995.456-1.992.688-2.987.382-.004.764-.002 1.146 0 .002 1.279.004 2.56 0 3.839a92.753 92.753 0 0 0-.746 0c-.011-1.039.005-2.077-.008-3.116-.25 1.036-.469 2.077-.71 3.115-.254 0-.509.002-.763.004-.245-1.034-.457-2.077-.708-3.112-.008 1.037.005 2.072-.005 3.108l-.745.002a546.42 546.42 0 0 1 0-3.841zM11.042 17.19c.719.026 1.452-.073 2.161.079 1.026.258 1.039 2.063-.001 2.303-.442.104-.9.073-1.349.084-.002.448-.005.895-.004 1.343l-.809.002c-.002-1.271-.004-2.54.001-3.811zm.812.66c-.005.379-.005.758 0 1.139.322-.004.65.034.967-.038.413-.102.468-.726.175-.976-.348-.186-.764-.107-1.142-.125zM14.551 17.19l.806-.001.004 1.469c.488.005.977.005 1.466-.001l.002-1.465.808-.002c.005 1.28.004 2.561 0 3.842l-.806-.002c-.004-.569 0-1.138-.004-1.706-.49-.005-.978-.005-1.466-.001-.002.57 0 1.14-.004 1.71l-.806-.002c-.004-1.279-.002-2.558 0-3.839z"/>
</svg>
