<!-- Generated by IcoMoon.io -->
<svg version="1.1" xmlns="http://www.w3.org/2000/svg" width="32" height="24" viewBox="0 0 32 24">
<title>complementary--turn-left--g1</title>
<path fill="#231f20" d="M2.222 0h27.702c0.983 0.269 1.826 1.015 2.111 2.007v19.99c-0.272 0.923-0.943 1.753-1.901 2.004h-28.136c-1.145-0.327-1.86-1.426-1.998-2.567v-18.761c0.093-1.26 0.983-2.376 2.222-2.672M2.259 0.353c-0.921 0.269-1.739 1.098-1.835 2.074-0.003 6.417 0.001 12.834-0.002 19.252 0.163 1.167 1.248 2.101 2.429 2.11 8.848-0.005 17.697 0.005 26.545-0.005 1.358-0.064 2.436-1.3 2.412-2.644 0.039-6.024 0.006-12.052 0.016-18.077 0.017-1.278-0.878-2.624-2.215-2.745-8.776-0.003-17.553 0.001-26.329-0.002-0.339 0.007-0.684-0.032-1.019 0.037z"></path>
<path fill="#231f20" d="M2.471 0.671c0.335-0.070 0.68-0.032 1.018-0.038 8.636 0.003 17.272-0.001 25.907 0.002 1.249 0.092 2.126 1.335 2.109 2.533-0.002 5.923 0.008 11.846-0.005 17.768 0.012 1.255-0.939 2.425-2.21 2.533-8.743 0.003-17.486-0.001-26.229 0.002-0.682-0.015-1.352-0.327-1.813-0.825-0.492-0.555-0.568-1.323-0.615-2.030 0.008-5.781-0.011-11.562 0.010-17.343-0.001-1.14 0.643-2.348 1.828-2.603M2.788 1.41c-0.753 0.149-1.368 0.88-1.312 1.655 0.014 6.099-0.006 12.199 0.010 18.297 0.142 0.842 0.973 1.361 1.789 1.364 8.318 0.013 16.636 0 24.955 0.006 1 0.156 2.235-0.258 2.426-1.371 0.013-6.169 0.002-12.34 0.005-18.511-0.006-0.828-0.802-1.434-1.582-1.475-8.424-0.003-16.849 0.001-25.273-0.002-0.339 0.007-0.684-0.033-1.018 0.037z"></path>
<path fill="#231f20" d="M11.467 3.737c0.205-0.072 0.432-0.030 0.646-0.038 0.119 0.123 0.241 0.243 0.364 0.364 0.102 0.89-0.454 1.654-0.658 2.49 4.239 0.004 8.477 0.001 12.715 0.002 0.683 0.063 1.34 0.576 1.472 1.264 0.007 4.019 0.001 8.037 0.002 12.056-1.162 0.001-2.325 0.002-3.487 0-0.003-3.121 0.002-6.243-0.003-9.364-0.158-0.153-0.312-0.309-0.465-0.465-3.412-0.003-6.823-0.003-10.234 0 0.244 0.867 0.733 1.696 0.666 2.622-0.213 0.181-0.474 0.281-0.738 0.358-2.304-1.445-4.416-3.186-6.666-4.715 0-0.033-0.001-0.097-0.001-0.13 2.131-1.477 4.261-2.96 6.388-4.444z"></path>
<path fill="#ffd24e" d="M2.259 0.353c0.335-0.069 0.68-0.030 1.019-0.037 8.776 0.003 17.553-0.001 26.329 0.002 1.337 0.121 2.232 1.466 2.215 2.745-0.010 6.025 0.023 12.053-0.016 18.077 0.024 1.344-1.054 2.58-2.412 2.644-8.848 0.011-17.697 0-26.545 0.005-1.181-0.010-2.266-0.943-2.429-2.11 0.003-6.418-0.001-12.835 0.002-19.252 0.096-0.976 0.915-1.806 1.835-2.074M2.471 0.671c-1.185 0.255-1.829 1.463-1.828 2.603-0.020 5.781-0.001 11.562-0.010 17.343 0.048 0.707 0.124 1.475 0.615 2.030 0.461 0.498 1.131 0.81 1.813 0.825 8.743-0.003 17.486 0.001 26.229-0.002 1.271-0.108 2.221-1.278 2.21-2.533 0.014-5.923 0.003-11.846 0.005-17.768 0.017-1.198-0.861-2.441-2.109-2.533-8.636-0.003-17.272 0.001-25.907-0.002-0.338 0.006-0.683-0.032-1.018 0.038z"></path>
<path fill="#ffd24e" d="M2.788 1.41c0.334-0.070 0.679-0.030 1.018-0.037 8.424 0.003 16.849-0.001 25.273 0.002 0.779 0.041 1.575 0.647 1.582 1.475-0.003 6.17 0.007 12.342-0.005 18.511-0.191 1.113-1.426 1.528-2.426 1.371-8.319-0.006-16.637 0.006-24.955-0.006-0.816-0.003-1.647-0.522-1.789-1.364-0.016-6.098 0.004-12.198-0.010-18.297-0.056-0.775 0.559-1.506 1.312-1.655M11.467 3.737c-2.127 1.483-4.257 2.967-6.388 4.444 0 0.033 0.001 0.097 0.001 0.13 2.25 1.53 4.362 3.27 6.666 4.715 0.264-0.077 0.525-0.178 0.738-0.358 0.067-0.926-0.422-1.755-0.666-2.622 3.412-0.003 6.823-0.003 10.234 0 0.153 0.156 0.308 0.312 0.465 0.465 0.005 3.121 0 6.243 0.003 9.364 1.162 0.002 2.325 0.001 3.487 0-0.001-4.019 0.005-8.037-0.002-12.056-0.132-0.688-0.789-1.201-1.472-1.264-4.238-0.001-8.476 0.002-12.715-0.002 0.204-0.836 0.759-1.6 0.658-2.49-0.123-0.121-0.244-0.241-0.364-0.364-0.214 0.008-0.441-0.034-0.646 0.038z"></path>
</svg>
