<!-- Generated by IcoMoon.io -->
<svg version="1.1" xmlns="http://www.w3.org/2000/svg" width="48" height="24" viewBox="0 0 48 24">
<title>complementary--trailers--g1</title>
<path fill="#161616" opacity="0.76" d="M0 0h28.649c6.439 0.334 12.902 0.187 19.351 0.25v23.75h-33.449c-3.751-0.353-7.534-0.11-11.297-0.274l-0.281-0.096c5.803-0.348 11.618 0.002 17.426 0.132 8.201 0.12 16.409 0.192 24.607 0.012 0.895 0.002 1.79 0.024 2.686 0.002 0.036-7.798-0.062-15.595 0.062-23.388-0.866-0.010-1.733-0.022-2.597 0.034-4.807 0.173-9.626 0.026-14.438 0.074-5.438-0.245-10.889 0.036-16.325-0.31-3.838-0.022-7.68-0.144-11.515 0.055-0.862-0.005-1.726-0.022-2.587-0.005-0.019 1.013-0.002 2.026-0.012 3.038-0.286 2.791 0.026 5.602-0.281 8.39v-11.666z"></path>
<path fill="#060606" opacity="0.45" d="M28.649 0h19.351v0.25c-6.449-0.062-12.912 0.084-19.351-0.25z"></path>
<path fill="#fff" d="M0.293 0.238c0.862-0.017 1.726 0 2.587 0.005-1.327 0.499-2.251 1.68-2.599 3.034 0.010-1.013-0.007-2.026 0.012-3.038z"></path>
<path fill="#fff" d="M45.158 0.422c0.864-0.055 1.73-0.043 2.597-0.034-0.125 7.793-0.026 15.59-0.062 23.388-0.895 0.022-1.79 0-2.686-0.002 1.56-0.6 2.621-2.184 2.604-3.852 0.019-5.28 0.019-10.562 0.026-15.842 0.002-1.594-1.049-3.017-2.479-3.658z"></path>
<path fill="#fff" d="M2.942 1.726c0.425-0.214 0.917-0.163 1.378-0.18 13.289 0.048 26.578 0.094 39.866 0.144 1.435 0.022 2.222 1.594 2.172 2.87-0.012 5.047-0.024 10.094-0.055 15.142 0.038 1.32-0.878 2.906-2.366 2.779-13.37-0.031-26.738-0.098-40.109-0.132-1.418 0.098-2.323-1.378-2.328-2.647-0.019-5.052 0.031-10.104 0.041-15.156-0.031-1.082 0.384-2.299 1.402-2.82M15.571 3.859c-0.007 4.138 0.002 8.275-0.005 12.413-2.395 0.005-4.793-0.005-7.188 0.002-0.005 0.559-0.002 1.116 0 1.675 4.217 0.010 8.436-0.007 12.653 0.010-0.029-1.932 1.771-3.559 3.665-3.523 2.436-0.048 4.891-0.168 7.313 0.108 1.67 0.25 2.314 1.997 2.674 3.422 1.421-0.017 2.842-0.067 4.265-0.108 0.007-4.63-0.014-9.262 0.012-13.891-7.795-0.077-15.593-0.089-23.388-0.108M22.906 15.473c-2.093 1.298-1.337 4.87 0.958 5.47 1.663 0.463 3.338-0.641 3.977-2.162 0.65 1.541 2.4 2.7 4.078 2.095 2.414-0.672 2.81-4.483 0.578-5.635-1.697-1.066-3.85 0.029-4.656 1.697-0.828-1.798-3.29-2.868-4.934-1.464z"></path>
<path fill="#fff" d="M24.334 16.428c1.042-0.295 2.434 0.77 1.913 1.894-0.302 1.051-1.752 1.517-2.532 0.694-0.917-0.734-0.53-2.352 0.619-2.587z"></path>
<path fill="#fff" d="M30.578 16.435c1.195-0.391 2.434 1.106 1.716 2.184-0.574 1.099-2.35 1.056-2.789-0.137-0.547-0.852 0.187-1.867 1.073-2.047z"></path>
<path fill="#fff" d="M0.23 20.714c0.379 1.111 1.025 2.177 2.122 2.702-0.71 0.077-1.421 0.139-2.134 0.149-0.005-0.95 0.002-1.901 0.012-2.851z"></path>
<path fill="#000" d="M2.88 0.242c3.835-0.199 7.678-0.077 11.515-0.055 5.436 0.346 10.886 0.065 16.325 0.31 4.812-0.048 9.631 0.098 14.438-0.074 1.43 0.641 2.482 2.064 2.479 3.658-0.007 5.28-0.007 10.562-0.026 15.842 0.017 1.668-1.044 3.252-2.604 3.852-8.198 0.18-16.406 0.108-24.607-0.012-5.808-0.13-11.623-0.48-17.426-0.132-0.206-0.072-0.413-0.144-0.622-0.214-1.097-0.526-1.742-1.591-2.122-2.702-0.010 0.95-0.017 1.901-0.012 2.851l0.002 0.192-0.221-0.002v-12.089c0.307-2.789-0.005-5.599 0.281-8.39 0.348-1.354 1.272-2.534 2.599-3.034M2.942 1.726c-1.018 0.521-1.433 1.738-1.402 2.82-0.010 5.052-0.060 10.104-0.041 15.156 0.005 1.27 0.91 2.746 2.328 2.647 13.37 0.034 26.738 0.101 40.109 0.132 1.488 0.127 2.405-1.459 2.366-2.779 0.031-5.047 0.043-10.094 0.055-15.142 0.050-1.277-0.737-2.849-2.172-2.87-13.289-0.050-26.578-0.096-39.866-0.144-0.461 0.017-0.953-0.034-1.378 0.18z"></path>
<path fill="#000" d="M15.571 3.859c7.795 0.019 15.593 0.031 23.388 0.108-0.026 4.63-0.005 9.262-0.012 13.891-1.423 0.041-2.844 0.091-4.265 0.108-0.36-1.426-1.003-3.173-2.674-3.422-2.422-0.276-4.877-0.156-7.313-0.108-1.894-0.036-3.694 1.591-3.665 3.523-4.217-0.017-8.436 0-12.653-0.010-0.002-0.559-0.005-1.116 0-1.675 2.395-0.007 4.793 0.002 7.188-0.002 0.007-4.138-0.002-8.275 0.005-12.413z"></path>
<path fill="#000" d="M22.906 15.473c1.644-1.404 4.106-0.334 4.934 1.464 0.806-1.668 2.959-2.762 4.656-1.697 2.232 1.152 1.836 4.963-0.578 5.635-1.678 0.605-3.427-0.554-4.078-2.095-0.638 1.522-2.314 2.626-3.977 2.162-2.294-0.6-3.050-4.171-0.958-5.47M24.334 16.428c-1.15 0.235-1.536 1.853-0.619 2.587 0.78 0.823 2.23 0.358 2.532-0.694 0.521-1.123-0.871-2.189-1.913-1.894M30.578 16.435c-0.886 0.18-1.62 1.195-1.073 2.047 0.439 1.193 2.215 1.236 2.789 0.137 0.718-1.078-0.521-2.575-1.716-2.184z"></path>
<path fill="#939393" d="M2.352 23.417c0.209 0.070 0.415 0.142 0.622 0.214l0.281 0.096c-1.010 0.043-2.023 0.034-3.034 0.031l-0.002-0.192c0.713-0.010 1.423-0.072 2.134-0.149z"></path>
<path fill="#0f0f0f" opacity="0.59" d="M0 23.755l0.221 0.002c1.010 0.002 2.023 0.012 3.034-0.031 3.763 0.163 7.546-0.079 11.297 0.274h-14.551v-0.245z"></path>
</svg>
