<!-- Generated by IcoMoon.io -->
<svg version="1.1" xmlns="http://www.w3.org/2000/svg" width="32" height="24" viewBox="0 0 32 24">
<title>complementary--except-polluting-level-green-yellow--g1</title>
<path fill="#fff" d="M1.53 0.124c0.182-0.067 0.378-0.072 0.57-0.075 9.267 0.001 18.533 0.001 27.799 0 1.091-0.033 2.078 0.964 2.051 2.052 0 6.599 0 13.199 0 19.798 0.023 1.089-0.963 2.070-2.050 2.048-9.267 0-18.533 0-27.8 0.001-1.087 0.024-2.082-0.959-2.052-2.049-0.001-6.599 0-13.198 0-19.798-0.026-0.894 0.634-1.727 1.482-1.977M1.841 0.561c-0.762 0.123-1.348 0.862-1.308 1.631 0.003 6.572-0.005 13.143 0.004 19.714-0.002 0.86 0.803 1.597 1.655 1.553 9.205 0.001 18.411 0.002 27.616 0 0.892 0.048 1.703-0.758 1.654-1.651 0.001-6.539 0-13.077 0-19.616 0.050-0.893-0.758-1.712-1.655-1.659-9.321 0.019-18.647-0.037-27.966 0.028z"></path>
<path fill="#fff" d="M1.94 1.36c9.252-0.063 18.512-0.007 27.767-0.028 0.502-0.075 1 0.343 0.954 0.861 0.002 6.538 0.003 13.076 0 19.614 0.036 0.468-0.386 0.887-0.853 0.851-9.205 0.003-18.41 0.003-27.615 0.001-0.469 0.037-0.896-0.381-0.858-0.851-0.003-6.539-0.002-13.077-0.001-19.615-0.025-0.376 0.232-0.753 0.606-0.833M11.047 3.872c-1.361 0.157-2.596 1.076-3.149 2.327-0.586 1.278-0.424 2.86 0.415 3.989 0.803 1.12 2.214 1.766 3.587 1.629 1.383-0.107 2.663-1.001 3.251-2.256 0.639-1.306 0.48-2.956-0.402-4.114-0.833-1.141-2.303-1.763-3.702-1.575M19.947 3.873c-1.334 0.156-2.549 1.045-3.114 2.262-0.608 1.264-0.475 2.847 0.341 3.99 0.814 1.185 2.301 1.862 3.73 1.682 1.502-0.151 2.85-1.24 3.326-2.67 0.491-1.384 0.132-3.022-0.898-4.070-0.856-0.905-2.151-1.358-3.385-1.194M11.836 16.943c-0.106 0.006-0.212 0.012-0.318 0.018 0 0.169-0.001 0.337-0.001 0.506 0.080 0.003 0.24 0.010 0.321 0.013 0.002 0.891-0.001 1.782 0.001 2.673 0.213 0 0.425 0 0.638 0.001 0.004-0.894-0.001-1.786 0.002-2.679 0.213-0.002 0.426-0.002 0.638-0.003 0.001-0.172 0.001-0.345 0.001-0.517-0.214-0.001-0.428-0.002-0.642-0.003-0.116-0.473 0.131-0.824 0.64-0.685 0.001-0.199 0.002-0.397 0.002-0.596-0.802-0.212-1.495 0.467-1.282 1.272M19.836 16.314c0.214-0.001 0.427-0.002 0.641-0.003 0-0.211 0-0.423 0-0.634-0.21-0.003-0.42-0.005-0.63-0.009-0.007 0.215-0.010 0.431-0.011 0.646M13.84 16.954c-0.003 1.066-0.002 2.133-0.001 3.199 0.213 0 0.425 0 0.638 0.001 0.022-0.715-0.039-1.434 0.030-2.144 0.121-0.465 0.697-0.555 1.063-0.318 0.146-0.185 0.293-0.37 0.433-0.559-0.473-0.328-1.132-0.265-1.525 0.159-0.001-0.085-0.003-0.254-0.004-0.339-0.211 0.001-0.423 0.001-0.634 0.001M16.448 19.441c0.427 0.934 1.808 0.991 2.444 0.243-0.158-0.138-0.317-0.274-0.477-0.409-0.475 0.513-1.5 0.313-1.478-0.479 0.674-0.007 1.348 0 2.022-0.004 0.211-0.939-0.492-2.064-1.541-1.855-1.149 0.176-1.308 1.608-0.97 2.504M19.839 16.953c-0.002 1.067-0.002 2.133 0 3.2 0.212 0 0.424 0 0.637 0.001 0.002-1.067 0.002-2.134 0-3.201-0.213 0-0.425 0-0.637 0z"></path>
<path fill="#fff" d="M8.547 8.027c1.999-0.005 3.998-0.006 5.997 0 0.003 0.664 0.003 1.327 0 1.99-1.999 0.014-3.998 0.005-5.996 0.005-0.005-0.665-0.004-1.33-0.001-1.995z"></path>
<path fill="#fff" d="M17.452 8.026c1.999-0.004 3.998-0.004 5.998 0 0.001 0.663 0 1.326 0 1.99-1.999 0.012-3.999 0.013-5.999-0.001 0.001-0.663-0.001-1.326 0.001-1.989z"></path>
<path fill="#fff" d="M16.934 18.228c0.036-0.866 1.371-0.862 1.407 0.001-0.469 0.007-0.938 0.008-1.407-0.001z"></path>
<path fill="#000" d="M1.841 0.561c9.319-0.065 18.645-0.009 27.966-0.028 0.897-0.053 1.705 0.766 1.655 1.659 0 6.539 0.001 13.077 0 19.616 0.049 0.893-0.762 1.699-1.654 1.651-9.205 0.002-18.411 0.001-27.616 0-0.852 0.044-1.657-0.693-1.655-1.553-0.009-6.571-0.001-13.142-0.004-19.714-0.040-0.769 0.546-1.508 1.308-1.631M1.94 1.36c-0.374 0.080-0.631 0.457-0.606 0.833-0.001 6.538-0.002 13.076 0.001 19.615-0.038 0.47 0.389 0.888 0.858 0.851 9.205 0.002 18.41 0.002 27.615-0.001 0.467 0.036 0.889-0.383 0.853-0.851 0.003-6.538 0.002-13.076 0-19.614 0.046-0.518-0.452-0.936-0.954-0.861-9.255 0.021-18.515-0.035-27.767 0.028z"></path>
<path fill="#000" d="M11.047 3.872c1.399-0.188 2.869 0.434 3.702 1.575 0.882 1.158 1.041 2.808 0.402 4.114-0.588 1.255-1.868 2.149-3.251 2.256-1.373 0.137-2.784-0.509-3.587-1.629-0.839-1.129-1.001-2.711-0.415-3.989 0.553-1.251 1.788-2.17 3.149-2.327M11.033 4.035c-1.528 0.187-2.865 1.384-3.214 2.884-0.375 1.446 0.198 3.074 1.397 3.965 1.323 1.047 3.344 1.048 4.666-0.004 1.349-1.002 1.875-2.936 1.219-4.484-0.615-1.591-2.378-2.62-4.068-2.361z"></path>
<path fill="#000" d="M19.947 3.873c1.234-0.164 2.529 0.289 3.385 1.194 1.030 1.048 1.389 2.686 0.898 4.070-0.476 1.43-1.824 2.519-3.326 2.67-1.429 0.18-2.916-0.497-3.73-1.682-0.816-1.143-0.949-2.726-0.341-3.99 0.565-1.217 1.78-2.106 3.114-2.262M19.934 4.035c-1.502 0.19-2.823 1.347-3.192 2.818-0.407 1.459 0.16 3.124 1.376 4.028 1.283 1.014 3.225 1.057 4.547 0.090 1.41-0.962 2.006-2.92 1.369-4.505-0.592-1.63-2.384-2.696-4.1-2.431z"></path>
<path fill="#000" d="M11.836 16.943c-0.213-0.805 0.48-1.484 1.282-1.272 0 0.199-0.001 0.397-0.002 0.596-0.509-0.139-0.756 0.212-0.64 0.685 0.214 0.001 0.428 0.002 0.642 0.003 0 0.172 0 0.345-0.001 0.517-0.212 0.001-0.425 0.001-0.638 0.003-0.003 0.893 0.002 1.785-0.002 2.679-0.213-0.001-0.425-0.001-0.638-0.001-0.002-0.891 0.001-1.782-0.001-2.673-0.081-0.003-0.241-0.010-0.321-0.013 0-0.169 0.001-0.337 0.001-0.506 0.106-0.006 0.212-0.012 0.318-0.018z"></path>
<path fill="#000" d="M19.836 16.314c0.001-0.215 0.004-0.431 0.011-0.646 0.21 0.004 0.42 0.006 0.63 0.009 0 0.211 0 0.423 0 0.634-0.214 0.001-0.427 0.002-0.641 0.003z"></path>
<path fill="#000" d="M13.84 16.954c0.211 0 0.423 0 0.634-0.001 0.001 0.085 0.003 0.254 0.004 0.339 0.393-0.424 1.052-0.487 1.525-0.159-0.14 0.189-0.287 0.374-0.433 0.559-0.366-0.237-0.942-0.147-1.063 0.318-0.069 0.71-0.008 1.429-0.030 2.144-0.213-0.001-0.425-0.001-0.638-0.001-0.001-1.066-0.002-2.133 0.001-3.199z"></path>
<path fill="#000" d="M16.448 19.441c-0.338-0.896-0.179-2.328 0.97-2.504 1.049-0.209 1.752 0.916 1.541 1.855-0.674 0.004-1.348-0.003-2.022 0.004-0.022 0.792 1.003 0.992 1.478 0.479 0.16 0.135 0.319 0.271 0.477 0.409-0.636 0.748-2.017 0.691-2.444-0.243M16.934 18.228c0.469 0.009 0.938 0.008 1.407 0.001-0.036-0.863-1.371-0.867-1.407-0.001z"></path>
<path fill="#000" d="M19.839 16.953c0.212 0 0.424 0 0.637 0 0.002 1.067 0.002 2.134 0 3.201-0.213-0.001-0.425-0.001-0.637-0.001-0.002-1.067-0.002-2.133 0-3.2z"></path>
<path fill="#ffed00" d="M11.033 4.035c1.69-0.259 3.453 0.77 4.068 2.361 0.656 1.548 0.13 3.482-1.219 4.484-1.322 1.052-3.343 1.051-4.666 0.004-1.199-0.891-1.772-2.519-1.397-3.965 0.349-1.5 1.686-2.697 3.214-2.884M8.547 8.027c-0.003 0.665-0.004 1.33 0.001 1.995 1.998 0 3.997 0.009 5.996-0.005 0.003-0.663 0.003-1.326 0-1.99-1.999-0.006-3.998-0.005-5.997 0z"></path>
<path fill="#008c49" d="M19.934 4.035c1.716-0.265 3.508 0.801 4.1 2.431 0.637 1.585 0.041 3.543-1.369 4.505-1.322 0.967-3.264 0.924-4.547-0.090-1.216-0.904-1.783-2.569-1.376-4.028 0.369-1.471 1.69-2.628 3.192-2.818M17.452 8.026c-0.002 0.663 0 1.326-0.001 1.989 2 0.014 4 0.013 5.999 0.001 0-0.664 0.001-1.327 0-1.99-2-0.004-3.999-0.004-5.998 0z"></path>
</svg>
