<!-- Generated by IcoMoon.io -->
<svg version="1.1" xmlns="http://www.w3.org/2000/svg" width="48" height="24" viewBox="0 0 48 24">
<title>complementary--bicycles--g1</title>
<path fill="#000" d="M1.764 0h44.446c0.811 0.307 1.454 0.931 1.79 1.733v20.525c-0.319 0.725-0.898 1.274-1.517 1.742h-44.734c-0.802-0.324-1.421-0.967-1.75-1.762v-20.438c0.314-0.821 0.95-1.469 1.764-1.8M1.524 0.79c-0.708 0.312-0.97 1.123-0.919 1.843 0.010 6.326-0.007 12.653 0.010 18.977-0.096 1.003 0.797 1.872 1.788 1.795 14.398 0.007 28.798 0.005 43.195 0 1.006 0.084 1.896-0.799 1.807-1.807 0.005-6.398 0.007-12.797-0.002-19.193 0.084-0.996-0.794-1.877-1.793-1.788-14.244-0.022-28.488 0.002-42.732-0.014-0.454 0.014-0.931-0.007-1.354 0.187z"></path>
<path fill="#000" d="M23.974 2.794c1.565-1.327 3.49-0.334 5.21 0 0.214 0.634 0.427 1.265 0.638 1.901-0.276 0.257-0.552 0.514-0.828 0.77 0.641 1.584 1.274 3.17 1.908 4.757 2.402-1.414 5.705-1.145 7.706 0.85 2.239 2.052 2.616 5.75 0.828 8.208-2.035 3.137-6.917 3.65-9.557 0.994-2.724-2.424-2.58-7.078 0.173-9.427-0.074-0.185-0.226-0.552-0.302-0.737-1.606 1.57-3.218 3.132-4.814 4.711 0.787 1.546-0.509 3.353-2.23 3.082-0.106 0.49-0.216 0.979-0.326 1.469-0.617-0.017-1.236-0.041-1.843-0.163 0.437-0.298 0.948-0.398 1.464-0.444 0.077-0.355 0.156-0.708 0.235-1.063-0.346-0.37-0.662-0.766-0.965-1.171-0.391 0-0.782-0.002-1.171-0.002-0.473 3.53-4.164 6.194-7.661 5.335-3.758-0.694-6.113-5.174-4.507-8.659 1.296-3.336 5.549-4.843 8.714-3.238 0.518-0.852 1.046-1.702 1.57-2.554-0.178-0.382-0.358-0.766-0.54-1.147-0.48-0.084-0.958-0.17-1.438-0.254 0-0.312-0.002-0.624-0.002-0.936 1.85 0.098 3.746-0.223 5.566 0.192-0.972 0.434-2.004 0.703-3.014 1.037 0.098 0.18 0.295 0.542 0.396 0.722 3.108-0.002 6.216 0 9.324-0.002-0.506-0.948-1.025-2.234 0.468-2.52-0.144-0.35-0.257-0.718-0.456-1.042-1.361-0.41-2.83-0.871-4.174-0.156-0.094-0.127-0.278-0.384-0.372-0.511M19.651 8.033c0.96 2.026 1.93 4.046 2.897 6.067 0.132-0.029 0.396-0.084 0.528-0.113 0.125-0.552 0.25-1.104 0.377-1.656 0.614 0.002 1.229 0.007 1.843 0.024 0.041 0.132 0.127 0.391 0.17 0.523 1.279-1.279 2.585-2.532 3.876-3.799-0.137-0.348-0.276-0.696-0.413-1.046-3.094-0.002-6.185 0-9.278 0M17.513 10.488c1.505 1.171 2.486 2.935 2.635 4.841 0.398 0 0.799 0 1.2 0 0.115-0.214 0.23-0.425 0.348-0.636-0.984-2.062-1.966-4.123-2.952-6.18-0.415 0.655-0.818 1.318-1.231 1.975M10.118 11.796c-1.884 1.716-2.21 4.819-0.718 6.888 1.37 2.071 4.286 2.894 6.54 1.841 1.637-0.701 2.755-2.278 3.125-3.994-1.649 0.142-3.456-0.398-4.966 0.473-0.888 0.346-1.822-0.677-1.524-1.548 0.175-0.826 1.255-0.806 1.603-1.512 0.658-1.032 1.282-2.086 1.92-3.13-1.978-0.838-4.423-0.557-5.981 0.982M31.267 11.206c0.715 1.934 2.501 3.161 3.547 4.889 0.014 0.557-0.725 0.77-0.994 0.269-1.164-1.471-2.616-2.76-3.413-4.483-2.681 2.664-1.534 7.766 2.146 8.83 3.614 1.382 7.735-2.16 6.929-5.935-0.485-3.698-5.17-5.693-8.215-3.569M14.904 15.274c1.404 0.125 2.818 0.034 4.224 0.041-0.175-1.543-0.948-2.952-2.134-3.948-0.636 1.306-1.963 2.486-2.090 3.907M23.875 12.792c-0.096 0.413-0.19 0.828-0.283 1.243 0.132 0.031 0.396 0.096 0.528 0.127 0.396-0.372 0.794-0.742 1.21-1.094-0.468-0.173-0.962-0.226-1.454-0.276M22.738 17.388c1.186 0.173 2.227-0.857 1.865-2.050-0.84 0.422-1.538 1.164-1.865 2.050M22.039 16.534c-0.194 1.102 1.111-0.264 0 0z"></path>
<path fill="#fff" d="M1.524 0.79c0.422-0.194 0.9-0.173 1.354-0.187 14.244 0.017 28.488-0.007 42.732 0.014 0.998-0.089 1.877 0.792 1.793 1.788 0.010 6.396 0.007 12.794 0.002 19.193 0.089 1.008-0.802 1.891-1.807 1.807-14.398 0.005-28.798 0.007-43.195 0-0.991 0.077-1.884-0.792-1.788-1.795-0.017-6.324 0-12.65-0.010-18.977-0.050-0.72 0.211-1.531 0.919-1.843M23.974 2.794c0.094 0.127 0.278 0.384 0.372 0.511 1.344-0.715 2.813-0.254 4.174 0.156 0.199 0.324 0.312 0.691 0.456 1.042-1.493 0.286-0.974 1.572-0.468 2.52-3.108 0.002-6.216 0-9.324 0.002-0.101-0.18-0.298-0.542-0.396-0.722 1.010-0.334 2.042-0.602 3.014-1.037-1.819-0.415-3.715-0.094-5.566-0.192 0 0.312 0.002 0.624 0.002 0.936 0.48 0.084 0.958 0.17 1.438 0.254 0.182 0.382 0.362 0.766 0.54 1.147-0.523 0.852-1.051 1.702-1.57 2.554-3.166-1.606-7.418-0.098-8.714 3.238-1.606 3.485 0.749 7.966 4.507 8.659 3.497 0.859 7.188-1.805 7.661-5.335 0.389 0 0.78 0.002 1.171 0.002 0.302 0.406 0.619 0.802 0.965 1.171-0.079 0.355-0.158 0.708-0.235 1.063-0.516 0.046-1.027 0.146-1.464 0.444 0.607 0.122 1.226 0.146 1.843 0.163 0.11-0.49 0.221-0.979 0.326-1.469 1.721 0.271 3.017-1.536 2.23-3.082 1.596-1.579 3.209-3.142 4.814-4.711 0.077 0.185 0.228 0.552 0.302 0.737-2.753 2.35-2.897 7.003-0.173 9.427 2.64 2.657 7.522 2.143 9.557-0.994 1.788-2.458 1.411-6.156-0.828-8.208-2.002-1.994-5.304-2.263-7.706-0.85-0.634-1.586-1.267-3.173-1.908-4.757 0.276-0.257 0.552-0.514 0.828-0.77-0.211-0.636-0.425-1.267-0.638-1.901-1.721-0.334-3.646-1.327-5.21 0z"></path>
<path fill="#fff" d="M19.651 8.033c3.094 0 6.185-0.002 9.278 0 0.137 0.35 0.276 0.698 0.413 1.046-1.291 1.267-2.597 2.52-3.876 3.799-0.043-0.132-0.13-0.391-0.17-0.523-0.614-0.017-1.229-0.022-1.843-0.024-0.127 0.552-0.252 1.104-0.377 1.656-0.132 0.029-0.396 0.084-0.528 0.113-0.967-2.021-1.937-4.042-2.897-6.067z"></path>
<path fill="#fff" d="M17.513 10.488c0.413-0.658 0.816-1.32 1.231-1.975 0.986 2.057 1.968 4.118 2.952 6.18-0.118 0.211-0.233 0.422-0.348 0.636-0.401 0-0.802 0-1.2 0-0.149-1.906-1.13-3.67-2.635-4.841z"></path>
<path fill="#fff" d="M10.118 11.796c1.558-1.538 4.003-1.819 5.981-0.982-0.638 1.044-1.262 2.098-1.92 3.13-0.348 0.706-1.428 0.686-1.603 1.512-0.298 0.871 0.636 1.894 1.524 1.548 1.51-0.871 3.317-0.331 4.966-0.473-0.37 1.716-1.488 3.293-3.125 3.994-2.254 1.054-5.17 0.23-6.54-1.841-1.493-2.069-1.166-5.172 0.718-6.888z"></path>
<path fill="#fff" d="M31.267 11.206c3.046-2.124 7.73-0.13 8.215 3.569 0.806 3.775-3.314 7.318-6.929 5.935-3.679-1.063-4.826-6.166-2.146-8.83 0.797 1.723 2.249 3.012 3.413 4.483 0.269 0.502 1.008 0.288 0.994-0.269-1.046-1.728-2.832-2.954-3.547-4.889z"></path>
<path fill="#fff" d="M14.904 15.274c0.127-1.421 1.454-2.602 2.090-3.907 1.186 0.996 1.958 2.405 2.134 3.948-1.406-0.007-2.82 0.084-4.224-0.041z"></path>
<path fill="#fff" d="M23.875 12.792c0.492 0.050 0.986 0.103 1.454 0.276-0.415 0.353-0.814 0.722-1.21 1.094-0.132-0.031-0.396-0.096-0.528-0.127 0.094-0.415 0.187-0.83 0.283-1.243z"></path>
<path fill="#fff" d="M22.738 17.388c0.326-0.886 1.025-1.627 1.865-2.050 0.362 1.193-0.679 2.222-1.865 2.050z"></path>
<path fill="#fff" d="M22.039 16.534c1.111-0.264-0.194 1.102 0 0z"></path>
</svg>
