<!-- Generated by IcoMoon.io -->
<svg version="1.1" xmlns="http://www.w3.org/2000/svg" width="48" height="24" viewBox="0 0 48 24">
<title>complementary--motorcycles--g4</title>
<path fill="#000" d="M2.916 0h42.13c1.442 0.362 2.558 1.493 2.954 2.921v18.12c-0.374 1.433-1.49 2.556-2.911 2.959h-42.139c-1.435-0.37-2.549-1.5-2.95-2.921v-18.13c0.367-1.438 1.49-2.558 2.916-2.95M2.983 0.876c-1.241 0.25-2.196 1.445-2.174 2.707-0.014 5.611-0.014 11.222 0 16.834-0.026 1.478 1.291 2.81 2.774 2.774 13.61 0.014 27.223 0.014 40.834 0 1.483 0.036 2.796-1.298 2.772-2.774 0.019-5.611 0.019-11.222 0-16.834 0.048-1.697-1.622-2.995-3.254-2.801-13.649 0.065-27.312-0.122-40.951 0.094z"></path>
<path fill="#000" d="M15.931 4.306c1.447-0.010 2.978-0.223 4.382 0.098 0.569 0.991-0.926 0.905-1.526 0.871-0.334 0.473-0.662 0.948-0.989 1.426 1.906 0.034 3.816-0.053 5.719 0.038 1.061 0.094 1.205 1.771 0.182 2.064-1.243 0.178-2.51-0.050-3.756 0.113-0.895 0.334-0.298 1.387-0.17 2.028 0.305 0.715 0.223 1.728 0.91 2.196 0.826 0.055 1.697 0.144 2.503-0.058 0.689-0.799 0.989-1.87 1.522-2.777 1.846 0.125 3.778-0.266 5.568 0.211-1.834 1.668-2.762 4.286-1.999 6.708-2.234-0.024-4.466 0.005-6.701-0.012-0.677 0.050-1.32-0.425-1.471-1.085-0.826-2.866-1.586-5.748-2.407-8.616-0.475 1.171-0.95 2.34-1.409 3.516 2.232 1.246 3.247 4.262 2.004 6.542-1.121 2.354-4.253 3.379-6.554 2.155-2.419-1.135-3.446-4.392-2.107-6.708 1.030-2.011 3.456-2.909 5.611-2.465 0.49-1.272 0.998-2.537 1.522-3.794-0.276-0.038-0.552-0.079-0.83-0.118-0.024-0.778-0.024-1.558-0.002-2.335M10.639 15.578c0.053 2.35 2.969 3.902 4.951 2.638 2.136-1.147 2.146-4.43 0.132-5.714-0.259 0.576-0.494 1.162-0.73 1.745 0.926 1.068-0.026 2.957-1.476 2.482-1.558-0.422-1.164-2.791 0.391-2.89 0.25-0.583 0.482-1.174 0.706-1.766-2.062-0.401-4.202 1.375-3.974 3.506z"></path>
<path fill="#000" d="M25.428 9.437c0.485-0.684 0.583-2.064 1.668-2.009 2.17 0.007 4.346-0.043 6.516 0.029 0.967 0.091 1.19 1.178 1.126 1.98-0.802 0.005-1.603 0.002-2.407 0.005 0.142 0.37 0.281 0.739 0.42 1.111 2.218-0.463 4.716 0.518 5.7 2.626 1.219 2.306 0.163 5.434-2.189 6.545-2.352 1.258-5.568 0.149-6.631-2.299-1.133-2.268-0.101-5.177 2.078-6.396-0.206-0.528-0.413-1.056-0.624-1.584-1.884-0.010-3.77 0.002-5.657-0.007M33.386 12.072c0.223 0.593 0.454 1.183 0.703 1.766 1.553 0.101 1.946 2.462 0.396 2.89-1.43 0.478-2.424-1.397-1.481-2.458-0.226-0.595-0.466-1.188-0.727-1.769-2.018 1.279-2.009 4.572 0.132 5.714 1.985 1.265 4.891-0.29 4.949-2.638 0.223-2.129-1.913-3.907-3.972-3.506z"></path>
<path fill="#fff" d="M2.983 0.876c13.639-0.216 27.302-0.029 40.951-0.094 1.632-0.194 3.302 1.104 3.254 2.801 0.019 5.611 0.019 11.222 0 16.834 0.024 1.476-1.289 2.81-2.772 2.774-13.61 0.014-27.223 0.014-40.834 0-1.483 0.036-2.801-1.296-2.774-2.774-0.014-5.611-0.014-11.222 0-16.834-0.022-1.262 0.934-2.458 2.174-2.707M15.931 4.306c-0.022 0.778-0.022 1.558 0.002 2.335 0.278 0.038 0.554 0.079 0.83 0.118-0.523 1.258-1.032 2.522-1.522 3.794-2.155-0.444-4.582 0.454-5.611 2.465-1.339 2.316-0.312 5.573 2.107 6.708 2.302 1.224 5.434 0.199 6.554-2.155 1.243-2.28 0.228-5.297-2.004-6.542 0.458-1.176 0.934-2.345 1.409-3.516 0.821 2.868 1.582 5.75 2.407 8.616 0.151 0.66 0.794 1.135 1.471 1.085 2.234 0.017 4.466-0.012 6.701 0.012-0.763-2.422 0.166-5.040 1.999-6.708-1.79-0.478-3.722-0.086-5.568-0.211-0.533 0.907-0.833 1.978-1.522 2.777-0.806 0.202-1.678 0.113-2.503 0.058-0.686-0.468-0.605-1.481-0.91-2.196-0.127-0.641-0.725-1.694 0.17-2.028 1.246-0.163 2.513 0.065 3.756-0.113 1.022-0.293 0.878-1.97-0.182-2.064-1.903-0.091-3.814-0.005-5.719-0.038 0.326-0.478 0.655-0.953 0.989-1.426 0.6 0.034 2.095 0.12 1.526-0.871-1.404-0.322-2.935-0.108-4.382-0.098M25.428 9.437c1.886 0.010 3.773-0.002 5.657 0.007 0.211 0.528 0.418 1.056 0.624 1.584-2.179 1.219-3.211 4.128-2.078 6.396 1.063 2.448 4.279 3.557 6.631 2.299 2.352-1.111 3.408-4.238 2.189-6.545-0.984-2.107-3.482-3.089-5.7-2.626-0.139-0.372-0.278-0.742-0.42-1.111 0.804-0.002 1.606 0 2.407-0.005 0.065-0.802-0.158-1.889-1.126-1.98-2.17-0.072-4.346-0.022-6.516-0.029-1.085-0.055-1.183 1.325-1.668 2.009z"></path>
<path fill="#fff" d="M10.639 15.578c-0.228-2.131 1.913-3.907 3.974-3.506-0.223 0.593-0.456 1.183-0.706 1.766-1.555 0.098-1.949 2.467-0.391 2.89 1.45 0.475 2.402-1.414 1.476-2.482 0.235-0.583 0.47-1.169 0.73-1.745 2.014 1.284 2.004 4.567-0.132 5.714-1.982 1.265-4.898-0.288-4.951-2.638z"></path>
<path fill="#fff" d="M33.386 12.072c2.059-0.401 4.195 1.378 3.972 3.506-0.058 2.347-2.964 3.902-4.949 2.638-2.141-1.142-2.15-4.435-0.132-5.714 0.262 0.581 0.502 1.174 0.727 1.769-0.943 1.061 0.050 2.935 1.481 2.458 1.55-0.427 1.157-2.789-0.396-2.89-0.25-0.583-0.48-1.174-0.703-1.766z"></path>
</svg>
