<!-- Generated by IcoMoon.io -->
<svg version="1.1" xmlns="http://www.w3.org/2000/svg" width="44" height="24" viewBox="0 0 44 24">
<title>complementary--soft-shoulder--g1</title>
<path fill="#000" opacity="0.4" d="M2.701 0.43c1.549-0.364 3.144-0.183 4.717-0.212 9.964-0.004 19.927 0.002 29.891-0.002 1.213-0.026 2.441-0.070 3.631 0.216-12.746 0.039-25.495 0.037-38.239-0.002z"></path>
<path fill="#fff" d="M2.038 0.751c0.249-0.122 0.513-0.19 0.792-0.201 12.657 0.028 25.322 0.024 37.979-0.002 0.973 0.009 1.879 0.855 1.846 1.85-0.037 5.891-0.011 11.782-0.026 17.673 0.011 0.949 0.216 2.086-0.532 2.825-0.742 0.761-1.876 0.535-2.823 0.526-12.225 0.002-24.454-0.007-36.674 0.007-0.877-0.1-1.656-0.921-1.599-1.822-0.011-6.037 0.022-12.074-0.007-18.111-0.105-0.997-0.007-2.284 1.045-2.745M2.906 1.185c-0.875 0.124-1.333 1.054-1.268 1.868 0.004 6.037-0.015 12.076 0.009 18.113-0.044 0.886 0.689 1.745 1.604 1.693 12.373 0.009 24.748 0.015 37.121-0.004 0.925 0.059 1.663-0.801 1.621-1.693 0.020-6.107 0.017-12.216 0.002-18.323 0.055-0.991-0.84-1.837-1.831-1.704-12.419 0.033-24.844-0.065-37.259 0.050z"></path>
<path fill="#fff" d="M2.939 2.101c12.172-0.188 24.371-0.020 36.552-0.085 0.626-0.009 1.665-0.118 1.601 0.809 0.046 5.967 0.002 11.937 0.022 17.906 0.022 0.5-0.059 1.311-0.746 1.217-12.367 0.026-24.735 0.022-37.102 0.002-0.583 0.096-0.748-0.539-0.731-0.995-0.011-5.895 0.004-11.791-0.007-17.686 0.028-0.388-0.035-1.012 0.41-1.169M25.82 4.425c-1.030 1.139-1.42 2.738-2.38 3.951-0.932 0.982-0.679 2.411-0.84 3.641-0.179 0.89 0.908 0.932 1.514 1.010 4.185 0.338 8.361 0.805 12.545 1.126 1.8 0.223 1.163-2.158 1.414-3.257-0.521-1.643-1.257-3.251-1.7-4.937-0.299-1.132-1.691-0.853-2.57-0.995-2.66-0.098-5.345-0.746-7.983-0.539M23.378 13.274c-0.061 0.805-0.22 1.615-0.118 2.422 0.572 0.375 1.355 0.375 2.005 0.231 0.236-0.799 0.223-1.643 0.305-2.465-0.731-0.063-1.462-0.127-2.193-0.188M34.665 14.321c-0.057 0.807-0.216 1.623-0.096 2.435 0.596 0.312 1.305 0.227 1.955 0.297 0.209-0.829 0.271-1.682 0.34-2.531-0.733-0.065-1.466-0.135-2.199-0.201M5.542 16.669c0 0.515 0 1.028 0 1.54 7.479-0.007 14.959 0.022 22.436-0.013-0.004-0.504-0.009-1.006-0.011-1.508-7.475-0.046-14.95-0.009-22.425-0.020M28.052 16.636c0.007 0.524 0.013 1.047 0.017 1.569 0.34 0 0.681 0 1.021 0 0.007-0.521 0.017-1.043 0.033-1.564-0.358-0.002-0.716-0.002-1.071-0.004M33.048 16.981c0.013 0.493 0.022 0.986 0.031 1.481 0.375-0.007 0.753-0.013 1.128-0.020 0-0.489 0-0.975 0-1.464-0.386 0-0.772 0-1.159 0.002M29.206 17.105c0.004 0.497 0.011 0.993 0.024 1.49 0.397 0.004 0.794 0.007 1.193 0.011 0-0.508-0.002-1.015 0-1.521-0.406 0.004-0.812 0.011-1.217 0.020M31.793 17.302c0.007 0.517 0.011 1.036 0.017 1.553 0.384 0 0.768 0 1.152-0.002 0.011-0.515 0.017-1.032 0.020-1.549-0.397-0.002-0.792-0.002-1.189-0.002M35.54 17.459c-0.007 0.48-0.007 0.96-0.007 1.44 0.397 0.007 0.794 0.013 1.191 0.017 0.011-0.5 0.022-1.001 0.031-1.501-0.406 0.013-0.812 0.026-1.215 0.044M30.524 17.612c0.033 0.504 0.052 1.008 0.068 1.514 0.362-0.002 0.724-0.004 1.087-0.004-0.002-0.506-0.004-1.015-0.007-1.521-0.384 0.004-0.766 0.007-1.148 0.011M34.355 17.629c0 0.493 0 0.984-0.002 1.477 0.362 0 0.724 0.002 1.087 0.007-0.011-0.493-0.017-0.982-0.024-1.473-0.353-0.004-0.707-0.009-1.060-0.011M36.831 18.223c-0.004 0.491-0.004 0.984-0.004 1.475 0.388 0 0.777 0 1.167 0 0-0.491 0-0.982 0-1.475-0.388 0-0.777 0-1.163 0z"></path>
<path fill="#fff" d="M24.685 8.221c0.615-0.951 0.984-2.14 1.754-2.945 2.985 0.196 5.967 0.513 8.948 0.79 0.367 1.060 0.707 2.127 1.058 3.192-3.921-0.34-7.839-0.703-11.76-1.036z"></path>
<path fill="#000" d="M2.906 1.185c12.415-0.116 24.84-0.017 37.259-0.050 0.991-0.133 1.885 0.713 1.831 1.704 0.015 6.107 0.017 12.216-0.002 18.323 0.041 0.892-0.696 1.752-1.621 1.693-12.373 0.020-24.748 0.013-37.121 0.004-0.914 0.052-1.647-0.807-1.604-1.693-0.024-6.037-0.004-12.076-0.009-18.113-0.065-0.814 0.393-1.743 1.268-1.868M2.939 2.101c-0.445 0.157-0.382 0.781-0.41 1.169 0.011 5.895-0.004 11.791 0.007 17.686-0.017 0.456 0.148 1.091 0.731 0.995 12.367 0.020 24.735 0.024 37.102-0.002 0.687 0.094 0.768-0.718 0.746-1.217-0.020-5.969 0.024-11.939-0.022-17.906 0.063-0.927-0.975-0.818-1.601-0.809-12.181 0.065-24.38-0.103-36.552 0.085z"></path>
<path fill="#000" d="M25.82 4.425c2.638-0.207 5.324 0.441 7.983 0.539 0.879 0.142 2.271-0.137 2.57 0.995 0.443 1.687 1.178 3.295 1.7 4.937-0.251 1.1 0.386 3.48-1.414 3.257-4.185-0.321-8.361-0.788-12.545-1.126-0.607-0.079-1.693-0.12-1.514-1.010 0.161-1.231-0.092-2.66 0.84-3.641 0.96-1.213 1.351-2.812 2.38-3.951M24.685 8.221c3.921 0.334 7.839 0.696 11.76 1.036-0.351-1.065-0.692-2.132-1.058-3.192-2.98-0.277-5.963-0.593-8.948-0.79-0.77 0.805-1.139 1.994-1.754 2.945z"></path>
<path fill="#000" d="M23.378 13.274c0.731 0.061 1.462 0.124 2.193 0.188-0.083 0.823-0.070 1.667-0.305 2.465-0.65 0.144-1.433 0.144-2.005-0.231-0.103-0.807 0.057-1.617 0.118-2.422z"></path>
<path fill="#000" d="M34.665 14.321c0.733 0.065 1.466 0.135 2.199 0.201-0.070 0.849-0.131 1.702-0.34 2.531-0.65-0.070-1.359 0.015-1.955-0.297-0.12-0.812 0.039-1.628 0.096-2.435z"></path>
<path fill="#000" d="M5.542 16.669c7.475 0.011 14.95-0.026 22.425 0.020 0.002 0.502 0.007 1.004 0.011 1.508-7.477 0.035-14.956 0.007-22.436 0.013 0-0.513 0-1.025 0-1.54z"></path>
<path fill="#000" d="M28.052 16.636c0.356 0.002 0.713 0.002 1.071 0.004-0.015 0.521-0.026 1.043-0.033 1.564-0.34 0-0.681 0-1.021 0-0.004-0.521-0.011-1.045-0.017-1.569z"></path>
<path fill="#000" d="M33.048 16.981c0.386-0.002 0.772-0.002 1.159-0.002 0 0.489 0 0.975 0 1.464-0.375 0.007-0.753 0.013-1.128 0.020-0.009-0.495-0.017-0.988-0.031-1.481z"></path>
<path fill="#000" d="M29.206 17.105c0.406-0.009 0.812-0.015 1.217-0.020-0.002 0.506 0 1.012 0 1.521-0.399-0.004-0.796-0.007-1.193-0.011-0.013-0.497-0.020-0.993-0.024-1.49z"></path>
<path fill="#000" d="M31.793 17.302c0.397 0 0.792 0 1.189 0.002-0.002 0.517-0.009 1.034-0.020 1.549-0.384 0.002-0.768 0.002-1.152 0.002-0.007-0.517-0.011-1.036-0.017-1.553z"></path>
<path fill="#000" d="M35.54 17.459c0.404-0.017 0.809-0.031 1.215-0.044-0.009 0.5-0.020 1.001-0.031 1.501-0.397-0.004-0.794-0.011-1.191-0.017 0-0.48 0-0.96 0.007-1.44z"></path>
<path fill="#000" d="M30.524 17.612c0.382-0.004 0.764-0.007 1.148-0.011 0.002 0.506 0.004 1.015 0.007 1.521-0.362 0-0.724 0.002-1.087 0.004-0.015-0.506-0.035-1.010-0.068-1.514z"></path>
<path fill="#000" d="M34.355 17.629c0.353 0.002 0.707 0.007 1.060 0.011 0.007 0.491 0.013 0.98 0.024 1.473-0.362-0.004-0.724-0.007-1.087-0.007 0.002-0.493 0.002-0.984 0.002-1.477z"></path>
<path fill="#000" d="M36.831 18.223c0.386 0 0.775 0 1.163 0 0 0.493 0 0.984 0 1.475-0.391 0-0.779 0-1.167 0 0-0.491 0-0.984 0.004-1.475z"></path>
<path fill="#020202" opacity="0.4" d="M42.674 2.204l0.275 0.002c0.026 6.432 0.148 12.877-0.124 19.298-0.236-6.428 0.063-12.871-0.151-19.3z"></path>
<path fill="#020202" opacity="0.41" d="M0.809 2.494c0.168 6.478 0.113 12.975 0.007 19.455-0.345-2.21-0.096-4.453-0.168-6.676 0.081-4.259-0.111-8.529 0.161-12.779z"></path>
<path fill="#000" opacity="0.33" d="M2.671 23.575c12.761-0.044 25.527-0.041 38.291 0-1.198 0.286-2.433 0.236-3.652 0.207-10.327 0-20.655 0-30.982 0-1.222 0.028-2.459 0.081-3.657-0.207z"></path>
</svg>
