<svg xmlns="http://www.w3.org/2000/svg" width="24" height="24">
    <path fill="#fff" d="M.03 7.685c-.023-.816.718-1.557 1.534-1.534h20.682c.816-.023 1.556.719 1.534 1.534-.002 3.08.006 6.16-.004 9.24a1.07 1.07 0 0 0-.308.435c-.106-.007-.169.046-.191.159-.181.123-.36.25-.55.359H1.17c-.452-.336-.936-.724-1.138-1.262C.025 13.64.031 10.663.03 7.686zm1.339-1.15C.8 6.63.362 7.181.391 7.755c.002 2.88-.003 5.761.003 8.641-.001.643.6 1.198 1.238 1.165h20.543c.641.034 1.237-.522 1.239-1.165.004-2.905.004-5.811 0-8.716-.003-.642-.598-1.201-1.239-1.165-6.935.015-13.873-.028-20.806.021z"/>
    <path fill="#fff" d="M1.444 7.139c6.884-.047 13.771-.005 20.656-.021.372-.056.745.25.711.636v8.567a.6.6 0 0 1-.634.634c-6.848.002-13.698.002-20.546 0a.598.598 0 0 1-.633-.633C.996 13.466.996 10.61.997 7.754c-.019-.277.171-.556.447-.615zm13.905.801c-.414.132-.443.78-.044.95.344.194.808-.136.745-.523-.028-.325-.397-.556-.701-.427zm-.083 1.246c-.298.216-.165.629-.192.942-.287.008-.574-.016-.859.014-.207.047-.194.382.013.42.281.027.565-.001.847.018l-.002.38c-.299.041-.7-.112-.912.171-.284.407-.55.827-.83 1.236a50.797 50.797 0 0 1-.397-.295l-.241.321c.212.165.433.318.639.49-.004.179-.005.359-.007.537.432-.399 1.091-.557 1.637-.303.236.076.39.347.659.312.522-.01 1.045.01 1.566-.01.519-.469 1.356-.59 1.925-.139.142.144.335.168.528.149.001-.717.001-1.435-.001-2.152-1.215 0-2.431.001-3.646-.001-.01-.6.015-1.202-.011-1.802-.037-.323-.467-.493-.717-.287zm-10.153.02c-.001.155-.002.312-.001.468-.31.378-.634.743-.949 1.115.081.08.162.16.241.241.367-.077.735-.152 1.101-.237.154.275.31.55.454.83-.111.381-.053.786.114 1.141a94.25 94.25 0 0 1-1.196.78c-.01.557-.004 1.114-.003 1.672.135-.08.269-.161.402-.243.001-.367-.001-.734.001-1.101.339-.205.681-.406 1.022-.608.291.68.586 1.359.883 2.037.098.172.013.367-.016.546.133-.001.266-.001.4.001.025-.171.112-.35.04-.521-.235-.681-.466-1.362-.701-2.043a4.911 4.911 0 0 0 2.168-.017c.234.413.473.823.697 1.241-.24.445-.478.89-.708 1.339.163.003.326.002.489-.007.219-.45.477-.88.691-1.332-.013-.37-.095-.737-.132-1.105.37.291.751.572 1.112.876-.088.495-.164.991-.237 1.488l.449-.151c.083-.502.16-1.005.24-1.507-.199-.337-.413-.665-.605-1.005.107-.456.043-.947-.264-1.313.172-.185.441-.333.688-.196.396.208.299.727.414 1.091.202-.1.4-.207.595-.318-.109-.374-.147-.819-.488-1.068-.458-.378-1.128-.166-1.457.278-.291-.161-.632-.247-.962-.172a5.831 5.831 0 0 1-2.053.071c-.515-.701-.833-1.762-1.813-1.921-.269.021-.451-.168-.615-.35zm6.196 3.54v.205c.61.159 1.218.325 1.831.474l-.003-.202c-.609-.161-1.219-.318-1.828-.477zm3.002.319a1.403 1.403 0 0 0-1.201.816c-.283.589-.069 1.358.476 1.718a1.388 1.388 0 0 0 1.647-.046c.457-.347.657-.994.466-1.537-.185-.576-.78-.99-1.386-.951zm3.869 0a1.407 1.407 0 0 0-1.219.869 1.395 1.395 0 0 0 .493 1.66 1.39 1.39 0 0 0 2.097-1.636c-.205-.549-.785-.933-1.371-.893z"/>
    <path fill="#fff" d="M14.018 12.386c.155-.238.308-.477.475-.706l.494.004c-.153.237-.31.471-.469.703l-.499-.001zM14.234 13.438c.74-.138 1.41.703 1.098 1.393-.245.72-1.315.88-1.76.264-.499-.578-.099-1.583.662-1.656zM18.102 13.439c.517-.09 1.051.287 1.154.799.136.548-.273 1.15-.831 1.228-.573.118-1.176-.352-1.194-.937-.055-.52.356-1.025.871-1.09z"/>
    <path d="M1.369 6.535c6.933-.049 13.871-.006 20.806-.021.641-.036 1.236.523 1.239 1.165.004 2.905.004 5.811 0 8.716-.001.644-.598 1.2-1.239 1.165H1.632c-.638.033-1.239-.522-1.238-1.165-.006-2.88-.001-5.761-.003-8.641-.028-.575.409-1.126.978-1.22zm.075.604c-.276.059-.466.338-.447.615-.001 2.856-.001 5.712.001 8.568a.598.598 0 0 0 .633.633c6.848.002 13.698.002 20.546 0a.6.6 0 0 0 .634-.634V7.754c.035-.386-.338-.693-.711-.636-6.885.016-13.773-.026-20.656.021z"/>
    <path d="M15.349 7.94c.304-.129.672.102.701.427.063.387-.4.717-.745.523-.4-.169-.37-.818.044-.95zM15.266 9.186c.25-.205.68-.036.717.287.026.6.001 1.201.011 1.802 1.215.002 2.431.001 3.646.001.002.717.001 1.435.001 2.152-.193.019-.387-.005-.528-.149-.57-.451-1.406-.33-1.925.139-.522.019-1.044 0-1.566.01-.269.036-.423-.236-.659-.312-.545-.254-1.204-.096-1.637.303.001-.179.002-.358.007-.537-.206-.172-.427-.326-.639-.49.08-.107.162-.214.241-.321l.397.295c.28-.409.545-.829.83-1.236.212-.284.613-.13.912-.171l.002-.38c-.283-.019-.566.009-.847-.018-.207-.038-.219-.373-.013-.42.285-.03.572-.006.859-.014.027-.312-.105-.725.192-.942zm-1.248 3.2l.499.001c.16-.232.316-.466.469-.703l-.494-.004c-.167.229-.32.468-.475.706zM5.113 9.206c.165.183.346.371.615.35.98.159 1.298 1.22 1.813 1.921a5.832 5.832 0 0 0 2.053-.071c.33-.075.671.011.962.172.329-.444.998-.656 1.457-.278.341.248.379.694.488 1.068-.195.111-.394.218-.595.318-.115-.364-.019-.884-.414-1.091-.247-.136-.516.012-.688.196.307.366.371.858.264 1.313.192.34.406.668.605 1.005-.08.502-.156 1.005-.24 1.507l-.449.151c.073-.497.149-.993.237-1.488-.361-.304-.742-.585-1.112-.876.037.369.119.735.132 1.105-.214.452-.473.882-.691 1.332-.163.01-.326.01-.489.007.231-.449.469-.893.708-1.339-.224-.418-.463-.828-.697-1.241-.711.17-1.455.17-2.168.017.235.681.466 1.362.701 2.043.072.17-.015.35-.04.521l-.4-.001c.029-.179.114-.374.016-.546a367.94 367.94 0 0 1-.883-2.037c-.341.202-.682.403-1.022.608l-.001 1.101c-.132.083-.266.164-.402.243-.001-.557-.007-1.114.003-1.672.4-.258.799-.518 1.196-.78-.167-.356-.225-.76-.114-1.141-.144-.281-.3-.555-.454-.83-.366.085-.734.159-1.101.237-.08-.081-.16-.162-.241-.241.315-.373.64-.737.949-1.115-.001-.156-.001-.312.001-.468z"/>
    <path d="M11.309 12.746c.609.159 1.22.316 1.828.477l.003.202c-.613-.149-1.221-.315-1.831-.474v-.205zM14.311 13.065c.605-.04 1.201.374 1.386.951a1.395 1.395 0 0 1-.466 1.537 1.388 1.388 0 0 1-1.647.046c-.544-.36-.758-1.129-.476-1.718.209-.468.69-.794 1.201-.816zm-.077.373c-.761.073-1.161 1.078-.662 1.656.446.617 1.515.456 1.76-.264.312-.69-.358-1.531-1.098-1.393zM18.18 13.065a1.403 1.403 0 0 1 1.371.893 1.398 1.398 0 0 1-.406 1.563 1.386 1.386 0 0 1-1.691.073 1.397 1.397 0 0 1-.493-1.66 1.404 1.404 0 0 1 1.219-.869zm-.078.374c-.516.066-.926.57-.871 1.09.019.585.621 1.055 1.194.937.558-.079.967-.68.831-1.228-.103-.513-.637-.889-1.154-.799z"/>
    <path fill="#4f4f4f" opacity=".84" d="M23.277 17.519c.022-.112.085-.165.191-.159-.024.098-.088.151-.191.159z"/>
</svg>
