<!-- Generated by IcoMoon.io -->
<svg version="1.1" xmlns="http://www.w3.org/2000/svg" width="44" height="24" viewBox="0 0 44 24">
<title>complementary--traffic-queues--g1</title>
<path fill="#fff" d="M1.957 0.196c0.331-0.134 0.691-0.147 1.043-0.15 12.59 0.001 25.18-0.003 37.77 0.001 1.499-0.041 2.857 1.321 2.817 2.817 0.003 6.090 0.003 12.18 0 18.269 0.038 1.496-1.32 2.858-2.817 2.815-12.634-0.001-25.27-0.001-37.905 0-1.496 0.042-2.857-1.319-2.816-2.815-0.001-6.089-0.001-12.179 0-18.267-0.030-1.181 0.806-2.288 1.908-2.67M2.51 0.765c-1.039 0.168-1.84 1.177-1.784 2.227 0.004 6.050-0.005 12.102 0.005 18.154-0.007 1.175 1.092 2.187 2.258 2.126 12.552 0.001 25.103 0.001 37.655 0 1.17 0.065 2.262-0.95 2.258-2.126 0.008-6.097 0.008-12.195 0-18.292 0.001-1.173-1.087-2.197-2.258-2.127-12.712 0.026-25.428-0.050-38.135 0.038z"></path>
<path fill="#fff" d="M2.645 1.855c12.616-0.086 25.242-0.010 37.863-0.038 0.685-0.104 1.372 0.465 1.309 1.174 0.001 6.007 0.003 12.012-0.001 18.019 0.055 0.644-0.526 1.223-1.17 1.17-12.552 0.004-25.105 0.004-37.657 0-0.642 0.053-1.226-0.525-1.17-1.17-0.001-6.005-0.001-12.012 0-18.019-0.035-0.513 0.318-1.027 0.826-1.136M11.56 3.926c-0.428 0.815-0.676 1.722-1.174 2.504-0.431 0.537-0.199 1.27-0.252 1.9-0.057 0.37 0.244 0.732 0.63 0.685 1.625 0.004 3.252 0.016 4.879-0.007 0.379-0.728 0.54-1.606 1.099-2.217 0.83-0.344 1.79-0.080 2.673-0.161-0.582-0.847-0.84-1.86-1.327-2.756-0.158-0.27-0.502-0.23-0.768-0.24-1.729 0.010-3.458-0.003-5.187 0.007-0.225-0.014-0.473 0.067-0.573 0.286M16.691 7.14c-0.514 0.967-0.806 2.047-1.394 2.975-0.524 0.597-0.239 1.443-0.311 2.161-0.076 0.434 0.206 0.945 0.694 0.901 1.831-0.001 3.664 0.022 5.495-0.012 0.341-0.802 0.679-1.605 1.043-2.396 0.158-0.368 0.565-0.567 0.953-0.551 0.893-0.005 1.788 0 2.682 0.003-0.585-0.953-0.912-2.035-1.413-3.030-0.119-0.274-0.425-0.379-0.704-0.363-2.097-0.005-4.196 0.001-6.293-0.003-0.278-0.008-0.612 0.037-0.754 0.314M10.681 9.269c0.035 0.462-0.045 0.938 0.061 1.394 0.316 0.239 0.852 0.203 1.192 0.045 0.218-0.435 0.056-0.987 0.1-1.467-0.451-0.004-0.904-0.026-1.353 0.029M22.961 10.44c-0.559 0.079-0.675 0.72-0.885 1.144-0.424 0.89-0.715 1.852-1.253 2.682-0.627 0.687-0.284 1.675-0.374 2.509-0.095 0.518 0.224 1.141 0.814 1.1 3.779 0.014 7.556 0.004 11.335 0.004 0.479 0.059 0.945-0.341 0.903-0.833-0.037-0.776 0.102-1.583-0.083-2.34-0.863-1.193-1.242-2.643-1.919-3.937-0.217-0.385-0.706-0.359-1.087-0.355-2.483 0.022-4.969-0.030-7.451 0.025M15.655 13.458c0.019 0.545-0.064 1.105 0.046 1.643 0.337 0.342 1.002 0.258 1.409 0.094 0.278-0.511 0.068-1.17 0.128-1.737-0.528-0.005-1.055-0.005-1.583 0M30.865 18.192c0.048 0.653-0.116 1.353 0.091 1.979 0.431 0.314 1.195 0.281 1.651 0.031 0.255-0.62 0.061-1.35 0.115-2.013-0.619 0.001-1.238 0-1.857 0.003M21.23 18.194c0.068 0.668-0.158 1.415 0.135 2.032 0.462 0.222 1.125 0.221 1.589 0.001 0.3-0.614 0.068-1.365 0.138-2.033-0.62-0.005-1.241-0.005-1.861 0z"></path>
<path fill="#fff" d="M12.023 4.222c1.853-0.037 3.709-0.033 5.561-0.004 0.416 0.543 0.582 1.264 0.892 1.88-2.426 0.004-4.85 0.001-7.275 0.001 0.27-0.629 0.537-1.257 0.822-1.878z"></path>
<path fill="#fff" d="M17.22 7.522c2.212-0.063 4.428-0.029 6.641-0.018 0.363 0.731 0.664 1.492 0.993 2.238-2.868 0.007-5.735 0.004-8.603 0.001 0.318-0.742 0.637-1.485 0.97-2.221z"></path>
<path fill="#fff" d="M23.099 11.243c2.385-0.105 4.788-0.010 7.18-0.046 0.244 0.016 0.614-0.074 0.7 0.244 0.363 0.791 0.698 1.595 1.045 2.393-3.364 0.003-6.727 0.005-10.090 0 0.394-0.86 0.708-1.763 1.166-2.591z"></path>
<path fill="#000" d="M2.51 0.765c12.708-0.089 25.424-0.012 38.135-0.038 1.171-0.070 2.26 0.955 2.258 2.127 0.008 6.097 0.008 12.195 0 18.292 0.004 1.175-1.088 2.191-2.258 2.126-12.552 0.001-25.103 0.001-37.655 0-1.166 0.061-2.265-0.95-2.258-2.126-0.011-6.052-0.001-12.104-0.005-18.154-0.056-1.050 0.745-2.059 1.784-2.227M2.645 1.855c-0.509 0.109-0.862 0.623-0.826 1.136-0.001 6.007-0.001 12.014 0 18.019-0.056 0.645 0.528 1.223 1.17 1.17 12.552 0.004 25.105 0.004 37.657 0 0.644 0.053 1.225-0.526 1.17-1.17 0.004-6.007 0.003-12.012 0.001-18.019 0.063-0.709-0.625-1.278-1.309-1.174-12.62 0.029-25.246-0.048-37.863 0.038z"></path>
<path fill="#231f20" d="M11.56 3.926c0.1-0.22 0.348-0.3 0.573-0.286 1.729-0.010 3.458 0.003 5.187-0.007 0.266 0.010 0.61-0.030 0.768 0.24 0.487 0.896 0.745 1.909 1.327 2.756-0.882 0.080-1.842-0.183-2.673 0.161-0.559 0.611-0.72 1.489-1.099 2.217-1.627 0.023-3.254 0.011-4.879 0.007-0.386 0.048-0.687-0.315-0.63-0.685 0.053-0.63-0.179-1.362 0.252-1.9 0.498-0.781 0.746-1.688 1.174-2.504M12.023 4.222c-0.285 0.62-0.552 1.249-0.822 1.878 2.425 0 4.849 0.003 7.275-0.001-0.31-0.616-0.476-1.338-0.892-1.88-1.852-0.029-3.708-0.033-5.561 0.004z"></path>
<path fill="#231f20" d="M16.691 7.14c0.142-0.277 0.476-0.322 0.754-0.314 2.097 0.004 4.196-0.003 6.293 0.003 0.278-0.016 0.585 0.089 0.704 0.363 0.5 0.995 0.828 2.077 1.413 3.030-0.895-0.003-1.789-0.008-2.682-0.003-0.389-0.016-0.795 0.183-0.953 0.551-0.364 0.791-0.702 1.594-1.043 2.396-1.831 0.034-3.664 0.011-5.495 0.012-0.488 0.044-0.77-0.468-0.694-0.901 0.072-0.719-0.213-1.564 0.311-2.161 0.588-0.929 0.88-2.009 1.394-2.975M17.22 7.522c-0.333 0.736-0.652 1.48-0.97 2.221 2.868 0.003 5.735 0.005 8.603-0.001-0.329-0.746-0.63-1.507-0.993-2.238-2.213-0.011-4.429-0.045-6.641 0.018z"></path>
<path fill="#231f20" d="M10.681 9.269c0.449-0.055 0.901-0.033 1.353-0.029-0.044 0.48 0.119 1.032-0.1 1.467-0.34 0.158-0.875 0.194-1.192-0.045-0.106-0.455-0.026-0.931-0.061-1.394z"></path>
<path fill="#231f20" d="M22.961 10.44c2.482-0.055 4.968-0.003 7.451-0.025 0.38-0.004 0.87-0.030 1.087 0.355 0.676 1.294 1.055 2.744 1.919 3.937 0.185 0.757 0.046 1.564 0.083 2.34 0.042 0.492-0.424 0.892-0.903 0.833-3.779 0-7.556 0.010-11.335-0.004-0.59 0.041-0.91-0.582-0.814-1.1 0.090-0.835-0.254-1.822 0.374-2.509 0.539-0.83 0.829-1.792 1.253-2.682 0.21-0.424 0.326-1.065 0.885-1.144M23.099 11.243c-0.458 0.828-0.772 1.73-1.166 2.591 3.363 0.005 6.725 0.003 10.090 0-0.346-0.798-0.682-1.602-1.045-2.393-0.086-0.318-0.455-0.228-0.7-0.244-2.392 0.037-4.795-0.059-7.18 0.046z"></path>
<path fill="#231f20" d="M15.655 13.458c0.528-0.005 1.055-0.005 1.583 0-0.060 0.567 0.15 1.226-0.128 1.737-0.406 0.164-1.072 0.248-1.409-0.094-0.11-0.539-0.027-1.098-0.046-1.643z"></path>
<path fill="#231f20" d="M30.865 18.192c0.619-0.003 1.238-0.001 1.857-0.003-0.053 0.663 0.14 1.392-0.115 2.013-0.457 0.25-1.22 0.282-1.651-0.031-0.207-0.626-0.044-1.325-0.091-1.979z"></path>
<path fill="#231f20" d="M21.23 18.194c0.62-0.005 1.241-0.005 1.861 0-0.070 0.668 0.162 1.42-0.138 2.033-0.464 0.22-1.126 0.221-1.589-0.001-0.293-0.616-0.067-1.364-0.135-2.032z"></path>
</svg>
