<!-- Generated by IcoMoon.io -->
<svg version="1.1" xmlns="http://www.w3.org/2000/svg" width="49" height="24" viewBox="0 0 49 24">
<title>complementary--accident-area--g2</title>
<path fill="#93918f" d="M2.136 0h44.655l0.38 0.252c-13.273-0.015-26.549-0.005-39.823-0.007-1.962 0.022-3.933-0.108-5.88 0.181 0.218-0.149 0.441-0.291 0.669-0.426z"></path>
<path fill="#fff" d="M1.467 0.426c1.947-0.289 3.918-0.159 5.88-0.181 13.273 0.002 26.549-0.007 39.823 0.007 0.069 0.017 0.203 0.056 0.272 0.076 0.272 0.509 0.74 0.864 1.198 1.2 0.073 0.157 0.218 0.47 0.291 0.627-0.037 6.561-0.042 13.124 0.002 19.685-0.071 0.154-0.218 0.468-0.289 0.622-0.478 0.321-0.889 0.725-1.212 1.2-0.152 0.071-0.456 0.213-0.605 0.284-13.893-0.122-27.791-0.017-41.684-0.051-1.215-0.064-2.515 0.228-3.656-0.313-0.561-0.478-1.029-1.051-1.452-1.648 0.162-6.612 0.167-13.251-0.002-19.864 0.421-0.595 0.904-1.146 1.435-1.643M2.052 0.85c-0.906 0.377-1.452 1.359-1.396 2.324 0.010 5.971-0.010 11.939 0.012 17.907-0.010 1.308 1.229 2.373 2.508 2.295 14.209 0.007 28.416 0 42.624 0.002 1.3 0.11 2.618-0.975 2.584-2.317 0.010-6.042 0.010-12.081 0-18.122 0.032-1.342-1.278-2.432-2.584-2.319-14.123 0-28.249 0.007-42.372-0.002-0.468 0.005-0.95 0.024-1.376 0.233z"></path>
<path fill="#fff" d="M2.554 1.384c14.327-0.171 28.675-0.015 43.011-0.076 0.997-0.157 2.17 0.527 2.121 1.626 0.017 6.042 0.015 12.088 0.002 18.132 0.044 0.977-0.945 1.724-1.876 1.621-14.216-0.002-28.433 0.005-42.649-0.005-1.016 0.093-1.944-0.838-1.815-1.859 0-5.882 0-11.765 0-17.647-0.083-0.789 0.436-1.584 1.205-1.793M24.103 9.061c0.13 0.708-0.345 1.763 0.421 2.177 0.042-1.533 0.051-3.071-0.005-4.604-0.789 0.504-0.269 1.641-0.416 2.427M27.774 7.692c-0.72 1.298-1.565 2.53-2.187 3.884 1.332-0.769 1.719-2.54 2.584-3.769-0.098-0.027-0.296-0.086-0.397-0.115M20.454 7.719c0.85 1.229 1.244 3.127 2.606 3.793-0.847-1.234-1.283-3.108-2.606-3.793M3.86 11.466c0.103 1.347-0.762 3.453 0.801 4.156 0.522-1.418 2.038-2.642 3.598-2.060 1.288 0.355 1.849 1.697 1.971 2.917 2.515 0.002 5.030 0 7.545 0.002 0.044-1.288 0.703-2.713 2.084-2.98 1.536-0.431 2.863 0.811 3.407 2.136 0.926-0.517 0.673-1.678 0.598-2.549-1.158-1.019-2.811-1.090-4.266-1.34-2.079-0.203-3.061-2.442-4.864-3.216-2.295-0.039-4.602-0.081-6.894 0.022-1.442 0.774-2.669 1.935-3.98 2.912M30.093 11.503c-1.704 0.509-3.659 0.355-5.162 1.438-0.49 0.673-0.176 1.57-0.078 2.322 0.152 0.073 0.46 0.218 0.615 0.291 0.49-1.352 1.915-2.508 3.404-2.030 1.308 0.306 2.020 1.68 1.957 2.953 2.542 0.002 5.082 0.012 7.624-0.007-0.042-1.665 1.425-3.362 3.176-3.005 1.205 0.152 1.898 1.202 2.424 2.18 0.654-0.323 0.953-0.965 0.833-1.68-0.127-1.007 0.421-2.459-0.715-3.027-1.217-0.722-2.153-1.93-3.495-2.407-2.282-0.034-4.577-0.078-6.86 0.020-1.389 0.779-2.356 2.145-3.722 2.953M6.696 14.3c-1.114 0.453-1.487 2.040-0.654 2.924 0.948 1.22 3.269 0.536 3.233-1.070 0.235-1.354-1.379-2.493-2.579-1.854M19.692 14.329c-1.117 0.48-1.406 2.158-0.507 2.976 0.864 0.97 2.713 0.588 3.083-0.676 0.627-1.464-1.188-3.113-2.576-2.3M27.296 14.351c-1.082 0.507-1.367 2.099-0.5 2.931 0.926 1.065 2.931 0.551 3.176-0.867 0.402-1.45-1.374-2.87-2.677-2.064M40.472 14.285c-1.215 0.47-1.543 2.238-0.549 3.093 1.048 1.024 3.108 0.284 3.113-1.227 0.201-1.325-1.369-2.473-2.564-1.866M3.855 18.558c-0.005 0.473-0.010 0.948-0.012 1.42 13.641 0.039 27.282 0 40.922 0.020-0.002-0.482-0.007-0.965-0.015-1.447-13.631 0.007-27.262-0.002-40.896 0.007z"></path>
<path fill="#fff" d="M8.016 9.223c0.786-0.186 1.614-0.066 2.417-0.076 0.218 0.789 0.179 1.609 0.152 2.417-1.474-0.049-2.966 0.125-4.428-0.113 0.198-0.962 1.195-1.56 1.859-2.229z"></path>
<path fill="#fff" d="M11.209 9.311c1.131-0.358 2.424-0.174 3.605-0.115 0.967 0.673 1.788 1.54 2.63 2.358-2.094 0.034-4.188 0.015-6.282 0.012-0.007-0.752-0.064-1.509 0.047-2.256z"></path>
<path fill="#fff" d="M33.889 9.179c1.151-0.115 2.312-0.029 3.468-0.027 0.211 0.789 0.191 1.607 0.157 2.412-2.106 0.005-4.212 0.022-6.321-0.007 0.894-0.793 1.685-1.736 2.696-2.378z"></path>
<path fill="#fff" d="M38.116 9.203c0.975 0.012 2.216-0.433 2.958 0.407 0.568 0.549 1.090 1.141 1.592 1.749-1.491 0.397-3.047 0.13-4.567 0.216-0.039-0.789-0.049-1.582 0.017-2.371z"></path>
<path fill="#fff" d="M7.393 15.056c1.168-0.127 1.379 1.741 0.206 1.922-1.259 0.198-1.487-1.915-0.206-1.922z"></path>
<path fill="#fff" d="M40.322 15.6c0.433-0.931 1.594-0.536 1.922 0.257-0.108 0.289-0.213 0.583-0.316 0.874-0.798 0.602-2.033-0.144-1.607-1.131z"></path>
<path fill="#fff" d="M19.462 15.872c0.316-0.828 1.526-1.193 1.942-0.24 0.358 0.972-0.83 1.692-1.619 1.109-0.108-0.291-0.216-0.58-0.323-0.869z"></path>
<path fill="#fff" d="M28.173 17.079c-1.176-0.135-1.3-2.057-0.010-2.023 1.259 0.022 1.131 1.815 0.010 2.023z"></path>
<path fill="#1b1613" d="M47.442 0.328c0.642 0.066 1.070 0.598 1.198 1.2-0.458-0.336-0.926-0.691-1.198-1.2z"></path>
<path fill="#1b1613" d="M2.052 0.85c0.426-0.208 0.909-0.228 1.376-0.233 14.123 0.010 28.249 0.002 42.372 0.002 1.305-0.113 2.616 0.977 2.584 2.319 0.010 6.042 0.010 12.081 0 18.122 0.034 1.342-1.283 2.427-2.584 2.317-14.209-0.002-28.416 0.005-42.624-0.002-1.278 0.078-2.518-0.987-2.508-2.295-0.022-5.968-0.002-11.936-0.012-17.907-0.056-0.965 0.49-1.947 1.396-2.324M2.554 1.384c-0.769 0.208-1.288 1.004-1.205 1.793 0 5.882 0 11.765 0 17.647-0.13 1.021 0.798 1.952 1.815 1.859 14.216 0.010 28.433 0.002 42.649 0.005 0.931 0.103 1.92-0.644 1.876-1.621 0.012-6.044 0.015-12.091-0.002-18.132 0.049-1.1-1.124-1.783-2.121-1.626-14.336 0.061-28.685-0.096-43.011 0.076z"></path>
<path fill="#1b1613" d="M0 1.793l0.032 0.277c0.169 6.612 0.164 13.251 0.002 19.864l-0.034 0.289v-20.429z"></path>
<path fill="#1b1613" d="M48.931 2.155l0.049-0.375v20.427l-0.047-0.367c-0.044-6.561-0.039-13.124-0.002-19.685z"></path>
<path fill="#1b1613" d="M47.432 23.662c0.323-0.475 0.735-0.879 1.212-1.2-0.091 0.639-0.573 1.117-1.212 1.2z"></path>
<path fill="#1b1613" d="M1.487 23.581c1.141 0.541 2.442 0.25 3.656 0.313 13.893 0.034 27.791-0.071 41.684 0.051l0.375 0.054h-45.113c-0.206-0.132-0.407-0.272-0.602-0.419z"></path>
<path fill="#000" d="M24.103 9.061c0.147-0.786-0.372-1.922 0.416-2.427 0.056 1.533 0.047 3.071 0.005 4.604-0.767-0.414-0.291-1.469-0.421-2.177z"></path>
<path fill="#000" d="M27.774 7.692c0.1 0.029 0.299 0.088 0.397 0.115-0.864 1.229-1.251 3-2.584 3.769 0.622-1.354 1.467-2.586 2.187-3.884z"></path>
<path fill="#000" d="M20.454 7.719c1.322 0.686 1.758 2.559 2.606 3.793-1.362-0.666-1.756-2.564-2.606-3.793z"></path>
<path fill="#000" d="M3.86 11.466c1.31-0.977 2.537-2.138 3.98-2.912 2.292-0.103 4.599-0.061 6.894-0.022 1.802 0.774 2.784 3.012 4.864 3.216 1.455 0.25 3.108 0.321 4.266 1.34 0.076 0.872 0.328 2.033-0.598 2.549-0.544-1.325-1.871-2.567-3.407-2.136-1.381 0.267-2.040 1.692-2.084 2.98-2.515-0.002-5.030 0-7.545-0.002-0.122-1.22-0.683-2.562-1.971-2.917-1.56-0.583-3.076 0.642-3.598 2.060-1.562-0.703-0.698-2.809-0.801-4.156M8.016 9.223c-0.664 0.669-1.66 1.266-1.859 2.229 1.462 0.238 2.953 0.064 4.428 0.113 0.027-0.808 0.066-1.629-0.152-2.417-0.803 0.010-1.631-0.11-2.417 0.076M11.209 9.311c-0.11 0.747-0.054 1.504-0.047 2.256 2.094 0.002 4.188 0.022 6.282-0.012-0.842-0.818-1.663-1.685-2.63-2.358-1.18-0.059-2.473-0.242-3.605 0.115z"></path>
<path fill="#000" d="M30.093 11.503c1.367-0.808 2.334-2.175 3.722-2.953 2.282-0.098 4.577-0.054 6.86-0.020 1.342 0.478 2.278 1.685 3.495 2.407 1.136 0.568 0.588 2.020 0.715 3.027 0.12 0.715-0.179 1.357-0.833 1.68-0.527-0.977-1.22-2.028-2.424-2.18-1.751-0.358-3.218 1.34-3.176 3.005-2.542 0.020-5.082 0.010-7.624 0.007 0.064-1.273-0.649-2.647-1.957-2.953-1.489-0.478-2.914 0.678-3.404 2.030-0.154-0.073-0.463-0.218-0.615-0.291-0.098-0.752-0.411-1.648 0.078-2.322 1.504-1.082 3.458-0.928 5.162-1.438M33.889 9.179c-1.011 0.642-1.802 1.584-2.696 2.378 2.109 0.029 4.215 0.012 6.321 0.007 0.034-0.806 0.054-1.624-0.157-2.412-1.156-0.002-2.317-0.088-3.468 0.027M38.116 9.203c-0.066 0.789-0.056 1.582-0.017 2.371 1.521-0.086 3.076 0.181 4.567-0.216-0.502-0.607-1.024-1.2-1.592-1.749-0.742-0.84-1.984-0.394-2.958-0.407z"></path>
<path fill="#000" d="M6.696 14.3c1.2-0.639 2.814 0.5 2.579 1.854 0.037 1.607-2.285 2.29-3.233 1.070-0.833-0.884-0.46-2.471 0.654-2.924M7.393 15.056c-1.281 0.007-1.053 2.121 0.206 1.922 1.173-0.181 0.962-2.050-0.206-1.922z"></path>
<path fill="#000" d="M19.692 14.329c1.389-0.813 3.203 0.835 2.576 2.3-0.37 1.264-2.219 1.646-3.083 0.676-0.899-0.818-0.61-2.496 0.507-2.976M19.462 15.872c0.108 0.289 0.216 0.578 0.323 0.869 0.789 0.583 1.976-0.137 1.619-1.109-0.416-0.953-1.626-0.588-1.942 0.24z"></path>
<path fill="#000" d="M27.296 14.351c1.303-0.806 3.078 0.615 2.677 2.064-0.245 1.418-2.251 1.932-3.176 0.867-0.867-0.833-0.583-2.424 0.5-2.931M28.173 17.079c1.122-0.208 1.249-2.001-0.010-2.023-1.291-0.034-1.166 1.888 0.010 2.023z"></path>
<path fill="#000" d="M40.472 14.285c1.195-0.607 2.765 0.541 2.564 1.866-0.005 1.511-2.064 2.251-3.113 1.227-0.994-0.855-0.666-2.623 0.549-3.093M40.322 15.6c-0.426 0.987 0.808 1.734 1.607 1.131 0.103-0.291 0.208-0.585 0.316-0.874-0.328-0.793-1.489-1.188-1.922-0.257z"></path>
<path fill="#000" d="M3.855 18.558c13.633-0.010 27.264 0 40.896-0.007 0.007 0.482 0.012 0.965 0.015 1.447-13.641-0.020-27.282 0.020-40.922-0.020 0.002-0.473 0.007-0.948 0.012-1.42z"></path>
</svg>
