<svg xmlns="http://www.w3.org/2000/svg" width="24" height="24">
    <path fill="#ffd033" d="M1.708 0h20.575C23.164.137 23.85.874 24 1.741V22.22c-.115.916-.884 1.649-1.788 1.78H1.811C.907 23.87.156 23.168 0 22.265V1.747C.144.882.833.143 1.708 0zm.262.33C.986.452.255 1.424.3 2.396.301 8.839.298 15.282.301 21.724c-.056 1.082.881 2.09 1.975 2.06 6.481.011 12.962.002 19.444.005.725.026 1.451-.35 1.808-.986.344-.58.265-1.279.274-1.924-.002-5.92-.004-11.84 0-17.76.006-.689.052-1.459-.414-2.026-.4-.568-1.102-.838-1.781-.797C15.061.321 8.513.255 1.97.328z"/>
    <path fill="#ffd033" d="M1.847 1.031C8.47.936 15.103 1.018 21.73.99c.668-.077 1.326.47 1.267 1.163.004 6.565.005 13.13-.001 19.696.041.631-.52 1.183-1.146 1.157-6.527.012-13.054.001-19.58.006-.662.068-1.313-.479-1.265-1.163C.998 15.284.999 8.717 1.004 2.153c-.035-.517.329-1.027.844-1.122zm13.681 3.231c-1.654.239-2.554 1.907-2.807 3.41-.319 2.027-.356 4.294.752 6.101 1.064 1.759 3.895 1.901 5.18.326.967-1.182 1.207-2.776 1.248-4.258.016-1.526-.102-3.188-1.056-4.451-.755-1.004-2.123-1.338-3.318-1.129zM5.233 4.38c-.266 1.92-.545 3.838-.81 5.759.384.02.767.048 1.15.065.793-1.108 2.498-1.352 3.56-.499 1.168.92 1.022 2.882-.05 3.82-1.24.99-3.539.396-3.679-1.343-.462-.001-.924-.002-1.386.002.098.702.284 1.439.804 1.955 1.235 1.198 3.239 1.296 4.746.589 1.673-.926 2.311-3.298 1.446-4.978-.962-1.818-3.594-2.322-5.227-1.121.164-.984.302-1.973.46-2.959H10.8l.001-1.29H5.234zM6.6 17.189c0 1.28-.001 2.561.001 3.841.25.001.498 0 .748-.001.006-1.033-.004-2.066.005-3.098.251 1.033.467 2.074.707 3.109.256-.012.512-.019.769-.018.23-1.033.455-2.068.703-3.095.014 1.033.001 2.068.008 3.102.25.002.499.001.749 0l.001-3.84c-.384.002-.767.002-1.15 0-.228.996-.452 1.992-.688 2.986-.244-.991-.466-1.988-.694-2.984-.386.001-.773.001-1.16-.001zm4.441.001c-.002 1.271-.001 2.54-.001 3.811.27-.002.54-.002.811-.001-.001-.449 0-.896.001-1.344.449-.01.908.022 1.349-.086 1.043-.233 1.028-2.045.001-2.299-.709-.155-1.442-.054-2.161-.08zm3.509 0v3.84c.27-.001.54-.001.809.001-.002-.57.005-1.141 0-1.711l1.471.001c-.005.569.002 1.139 0 1.709.269-.001.539-.001.809.001.002-1.28.002-2.562 0-3.842l-.809.001c.001.49-.002.979-.001 1.469l-1.469.001c.002-.491-.002-.98-.001-1.471l-.809.001z"/>
    <path fill="#ffd033" d="M15.88 5.45c.772-.152 1.681.14 2.017.899.6 1.35.59 2.875.527 4.324-.08.912-.17 1.915-.792 2.639-.656.794-2.034.905-2.732.11-.587-.641-.755-1.54-.85-2.376-.119-1.345-.106-2.731.289-4.033.217-.724.745-1.45 1.541-1.562zM11.85 17.843c.325.008.653-.007.973.056.484.097.472.941-.002 1.049-.319.067-.648.04-.971.047.002-.384.002-.768 0-1.152z"/>
    <path fill="#050505" d="M1.97.33C8.512.257 15.061.323 21.607.298c.679-.041 1.381.229 1.781.797.466.566.42 1.337.414 2.026-.004 5.92-.002 11.84 0 17.76-.008.644.071 1.344-.274 1.924-.358.636-1.084 1.013-1.808.986-6.481-.002-12.962.006-19.444-.005-1.094.03-2.032-.978-1.975-2.06C.297 15.283.301 8.84.3 2.398.256 1.426.986.454 1.97.332zm-.123.701c-.515.095-.878.605-.844 1.122-.005 6.564-.006 13.13.001 19.696-.048.684.602 1.231 1.265 1.163 6.527-.005 13.054.006 19.58-.006.626.026 1.187-.526 1.146-1.157.006-6.565.005-13.13.001-19.696.059-.692-.599-1.24-1.267-1.163-6.626.028-13.26-.054-19.883.041z"/>
    <path fill="#231f20" d="M15.528 4.262c1.195-.209 2.563.125 3.318 1.129.954 1.262 1.072 2.924 1.056 4.451-.041 1.482-.281 3.076-1.248 4.258-1.285 1.574-4.116 1.433-5.18-.326-1.109-1.807-1.072-4.074-.752-6.101.253-1.504 1.153-3.172 2.807-3.41zm.352 1.188c-.796.113-1.324.839-1.541 1.562-.395 1.302-.408 2.688-.289 4.033.095.836.263 1.735.85 2.376.698.794 2.076.684 2.732-.11.622-.724.712-1.727.792-2.639.064-1.448.073-2.974-.527-4.324-.336-.758-1.246-1.051-2.017-.899zM5.233 4.38H10.8l-.001 1.29H6.246c-.157.986-.295 1.975-.46 2.959 1.633-1.201 4.265-.697 5.227 1.121.865 1.68.227 4.051-1.446 4.978-1.507.707-3.511.608-4.746-.589-.52-.516-.706-1.253-.804-1.955.462-.005.924-.004 1.386-.002.14 1.739 2.44 2.333 3.679 1.343 1.073-.937 1.218-2.899.05-3.82-1.062-.853-2.767-.608-3.56.499-.383-.017-.766-.044-1.15-.065.265-1.921.544-3.839.81-5.759zM6.6 17.189c.388.002.774.002 1.16.001.228.996.45 1.993.694 2.984.235-.994.46-1.99.688-2.986.383.002.766.002 1.15 0l-.001 3.84c-.25.001-.499.002-.749 0-.007-1.034.006-2.069-.008-3.102-.248 1.027-.473 2.062-.703 3.095-.257-.001-.514.006-.769.018-.24-1.036-.456-2.076-.707-3.109-.008 1.032.001 2.065-.005 3.098-.25.001-.498.002-.748.001-.002-1.28-.001-2.561-.001-3.841zM11.041 17.19c.719.026 1.452-.074 2.161.08 1.027.254 1.042 2.066-.001 2.299-.44.108-.9.077-1.349.086-.001.448-.002.895-.001 1.344a73.05 73.05 0 0 0-.811.001c0-1.271-.001-2.54.001-3.811zm.809.653c.002.384.002.768 0 1.152.323-.007.652.02.971-.047.474-.108.486-.952.002-1.049-.32-.064-.648-.048-.973-.056zM14.55 17.19l.809-.001c-.001.491.004.98.001 1.471l1.469-.001c-.001-.49.002-.979.001-1.469l.809-.001c.002 1.28.002 2.562 0 3.842a72.75 72.75 0 0 0-.809-.001c.002-.57-.005-1.14 0-1.709l-1.471-.001c.005.57-.002 1.141 0 1.711a72.69 72.69 0 0 0-.809-.001v-3.84z"/>
</svg>
