<!-- Generated by IcoMoon.io -->
<svg version="1.1" xmlns="http://www.w3.org/2000/svg" width="24" height="24" viewBox="0 0 24 24">
<title>complementary--maximum-speed-limit-95--g1</title>
<path fill="#ffd033" d="M1.7 0h20.588c0.876 0.137 1.559 0.874 1.711 1.735v20.497c-0.121 0.906-0.887 1.638-1.784 1.768h-20.413c-0.898-0.133-1.645-0.832-1.802-1.732v-20.531c0.148-0.856 0.832-1.596 1.7-1.738M1.97 0.328c-0.983 0.127-1.716 1.094-1.672 2.068 0.005 6.48-0.007 12.959 0.006 19.439-0.008 1.045 0.924 1.98 1.974 1.952 6.521 0.006 13.042 0.008 19.562-0.001 1.090 0.019 2.020-0.986 1.958-2.066 0.002-6.439 0.002-12.878 0-19.318 0.067-1.126-0.931-2.179-2.071-2.101-6.586 0.017-13.175-0.038-19.758 0.028z"></path>
<path fill="#ffd033" d="M1.847 1.030c6.623-0.092 13.256-0.013 19.883-0.040 0.666-0.079 1.327 0.472 1.267 1.163 0.004 6.565 0.004 13.13 0 19.696 0.040 0.629-0.522 1.183-1.147 1.158-6.566 0.006-13.133 0.006-19.698 0-0.626 0.026-1.189-0.528-1.148-1.158-0.005-6.565-0.004-13.13 0-19.696-0.037-0.518 0.33-1.025 0.844-1.123M5.924 3.289c-2.633 1.068-3.013 5.35-0.552 6.814 1.453 0.792 3.646 0.638 4.585-0.866-0.215 1.452-0.337 3.314-1.813 4.072-1.196 0.673-2.914-0.188-2.844-1.632-0.478-0.006-0.956-0.006-1.434-0.001-0.053 1.259 0.78 2.494 1.998 2.852 1.184 0.318 2.586 0.287 3.571-0.529 1.12-0.935 1.601-2.411 1.819-3.805 0.256-1.921 0.28-4.070-0.827-5.748-0.962-1.445-2.969-1.693-4.504-1.156M13.999 3.215c-0.302 2.050-0.614 4.099-0.86 6.156 0.412 0.014 0.823 0.028 1.235 0.031 0.97-1.396 3.35-1.429 4.264 0.040 0.658 1.096 0.401 2.641-0.55 3.49-1.315 1.049-3.776 0.431-3.917-1.424-0.481-0.005-0.962-0.005-1.444 0 0.026 0.923 0.438 1.856 1.195 2.407 1.168 0.877 2.768 0.949 4.127 0.541 2.070-0.66 2.953-3.284 2.227-5.215-0.884-2.138-3.869-2.852-5.696-1.494 0.143-1.052 0.318-2.1 0.496-3.146 1.607 0 3.212 0.005 4.819-0.002 0-0.46 0-0.92-0.007-1.381-1.963-0.004-3.925 0-5.888-0.001M6.602 17.19c-0.005 1.28-0.005 2.561 0 3.84 0.248 0 0.497-0.001 0.745-0.001 0.012-0.983-0.005-1.967 0.001-2.951 0.032-0.154 0.121 0.156 0.107 0.181 0.169 0.932 0.401 1.852 0.605 2.777 0.258-0.004 0.516-0.011 0.773-0.024 0.227-1.026 0.449-2.054 0.7-3.076 0.018 1.031-0.002 2.063 0.010 3.094 0.248 0 0.498-0.001 0.746-0.001 0.004-1.279 0.002-2.558 0-3.836-0.382-0.005-0.764-0.005-1.147-0.001-0.232 0.992-0.451 1.987-0.686 2.98-0.251-0.989-0.462-1.986-0.695-2.977-0.386-0.006-0.772-0.006-1.158-0.004M11.042 17.19c-0.005 1.271-0.002 2.54-0.001 3.811 0.27-0.001 0.54-0.002 0.81-0.004-0.001-0.446-0.001-0.894 0.002-1.342 0.449-0.012 0.906 0.020 1.346-0.084 1.044-0.238 1.031-2.046 0.001-2.303-0.708-0.152-1.44-0.053-2.159-0.079M14.551 17.191c-0.002 1.279-0.004 2.558 0 3.838 0.269 0.001 0.538 0.001 0.806 0.001 0.005-0.569 0.001-1.139 0.004-1.709 0.488-0.004 0.977-0.004 1.466 0.002 0.004 0.568 0 1.136 0.004 1.705 0.269 0.001 0.538 0.001 0.806 0.001 0.004-1.28 0.005-2.561-0.001-3.841-0.269 0-0.538 0.001-0.806 0.002 0 0.488 0 0.977-0.004 1.465-0.488 0.006-0.977 0.006-1.465 0.001-0.001-0.49-0.001-0.979-0.004-1.469-0.269 0-0.538 0.001-0.806 0.002z"></path>
<path fill="#ffd033" d="M11.854 17.85c0.324 0.002 0.653-0.020 0.971 0.048 0.482 0.101 0.469 0.938-0.002 1.051-0.317 0.073-0.646 0.036-0.968 0.038-0.005-0.379-0.005-0.758 0-1.138z"></path>
<path fill="#060606" d="M1.97 0.328c6.583-0.066 13.172-0.011 19.758-0.028 1.14-0.078 2.138 0.976 2.071 2.101 0.002 6.439 0.002 12.878 0 19.318 0.061 1.080-0.869 2.086-1.958 2.066-6.521 0.010-13.042 0.007-19.562 0.001-1.050 0.028-1.982-0.907-1.974-1.952-0.013-6.48-0.001-12.959-0.006-19.439-0.044-0.973 0.689-1.94 1.672-2.068M1.847 1.030c-0.514 0.098-0.881 0.605-0.844 1.123-0.004 6.565-0.005 13.13 0 19.696-0.041 0.63 0.522 1.184 1.148 1.158 6.565 0.006 13.132 0.006 19.698 0 0.625 0.025 1.187-0.529 1.147-1.158 0.004-6.565 0.004-13.13 0-19.696 0.060-0.691-0.601-1.242-1.267-1.163-6.626 0.026-13.26-0.053-19.883 0.040z"></path>
<path fill="#000" d="M5.924 3.289c1.535-0.538 3.541-0.289 4.504 1.156 1.106 1.678 1.082 3.827 0.827 5.748-0.218 1.394-0.7 2.87-1.819 3.805-0.985 0.816-2.387 0.847-3.571 0.529-1.218-0.359-2.051-1.594-1.998-2.852 0.478-0.005 0.956-0.005 1.434 0.001-0.070 1.444 1.648 2.305 2.844 1.632 1.476-0.757 1.598-2.62 1.813-4.072-0.94 1.505-3.132 1.658-4.585 0.866-2.461-1.464-2.081-5.746 0.552-6.814M7 4.374c-1.742 0.294-2.172 2.543-1.496 3.928 0.805 1.537 3.456 1.3 4.040-0.312 0.228-0.736 0.232-1.565 0.008-2.302-0.338-1.038-1.534-1.529-2.552-1.314z"></path>
<path fill="#000" d="M13.999 3.215c1.963 0.001 3.925-0.002 5.888 0.001 0.007 0.461 0.007 0.922 0.007 1.381-1.607 0.007-3.212 0.002-4.819 0.002-0.178 1.046-0.353 2.094-0.496 3.146 1.828-1.358 4.812-0.644 5.696 1.494 0.726 1.931-0.157 4.555-2.227 5.215-1.358 0.408-2.959 0.336-4.127-0.541-0.757-0.551-1.169-1.484-1.195-2.407 0.481-0.005 0.962-0.005 1.444 0 0.14 1.855 2.602 2.473 3.917 1.424 0.95-0.848 1.207-2.394 0.55-3.49-0.913-1.469-3.294-1.435-4.264-0.040-0.412-0.004-0.823-0.017-1.235-0.031 0.246-2.057 0.558-4.106 0.86-6.156z"></path>
<path fill="#ffcf33" d="M7 4.374c1.019-0.215 2.214 0.276 2.552 1.314 0.223 0.737 0.22 1.566-0.008 2.302-0.584 1.612-3.235 1.849-4.040 0.312-0.676-1.385-0.246-3.634 1.496-3.928z"></path>
<path fill="#231f20" d="M6.602 17.19c0.386-0.002 0.772-0.002 1.158 0.004 0.233 0.991 0.444 1.988 0.695 2.977 0.235-0.992 0.455-1.987 0.686-2.98 0.383-0.004 0.766-0.004 1.147 0.001 0.002 1.278 0.004 2.557 0 3.836-0.248 0-0.498 0.001-0.746 0.001-0.012-1.031 0.008-2.063-0.010-3.094-0.251 1.021-0.473 2.050-0.7 3.076-0.257 0.013-0.515 0.020-0.773 0.024-0.204-0.925-0.436-1.844-0.605-2.777 0.014-0.025-0.074-0.335-0.107-0.181-0.006 0.984 0.011 1.968-0.001 2.951-0.248 0-0.497 0.001-0.745 0.001-0.005-1.279-0.005-2.56 0-3.84z"></path>
<path fill="#231f20" d="M11.042 17.19c0.719 0.026 1.451-0.073 2.159 0.079 1.030 0.257 1.043 2.065-0.001 2.303-0.44 0.104-0.898 0.072-1.346 0.084-0.004 0.448-0.004 0.895-0.002 1.342-0.27 0.001-0.54 0.002-0.81 0.004-0.001-1.271-0.004-2.54 0.001-3.811M11.854 17.85c-0.005 0.379-0.005 0.758 0 1.138 0.323-0.002 0.652 0.035 0.968-0.038 0.472-0.113 0.485-0.95 0.002-1.051-0.318-0.068-0.647-0.046-0.971-0.048z"></path>
<path fill="#231f20" d="M14.551 17.191c0.269-0.001 0.538-0.002 0.806-0.002 0.002 0.49 0.002 0.979 0.004 1.469 0.488 0.005 0.977 0.005 1.465-0.001 0.004-0.488 0.004-0.977 0.004-1.465 0.269-0.001 0.538-0.002 0.806-0.002 0.006 1.28 0.005 2.561 0.001 3.841-0.269 0-0.538 0-0.806-0.001-0.004-0.569 0-1.138-0.004-1.705-0.49-0.006-0.978-0.006-1.466-0.002-0.002 0.57 0.001 1.14-0.004 1.709-0.269 0-0.538 0-0.806-0.001-0.004-1.279-0.002-2.558 0-3.838z"></path>
</svg>
