<svg xmlns="http://www.w3.org/2000/svg" width="24" height="24">
    <path fill="#2c2829" opacity=".91" d="M0 6.353h.357A.679.679 0 0 1 0 6.62v-.267z"/>
    <path fill="#231f20" d="M1.637 6.353h16.667c1.369.048 2.74.025 4.108.091.706.036 1.283.552 1.646 1.123v9.115c-.284.399-.675.7-1.081.965H1.234A2.598 2.598 0 0 1 0 16.424v-8.65c.306-.694.953-1.146 1.637-1.421zm-.901 2.29c-.01.375.001.748.002 1.123.882-.151 1.771-.359 2.665-.376.707.39 1.328.927 1.997 1.382.749-.083 1.482-.298 2.212-.483.254.632.44 1.288.665 1.929.266-.099.537-.188.805-.286l.01.219c1.365-.925 2.758-1.813 4.13-2.728v-.408c.767.011 1.534-.021 2.301.013 1.75.932 3.496 1.88 5.255 2.796.871.091 1.76.011 2.636.038 0-1.072-.002-2.145.003-3.218.028-.48-.32-.88-.677-1.155-.456-.298-1.016-.208-1.53-.217-6.336-.001-12.674.002-19.011-.002-.75-.028-1.443.624-1.464 1.374zm12.448 1.252c-1.208.818-2.43 1.613-3.636 2.433-.604.538-1.465.525-2.192.803-.34-.685-1.046-1.259-1.847-1.184-1.175-.096-2.128 1.072-2.025 2.196-.91.195-1.837.296-2.75.475.008.398-.02.797.015 1.195.197.616.783 1.128 1.452 1.101 6.678-.008 13.356.007 20.034-.008.902-.178 1.365-1.158 1.18-2.015h-2.364c-.054-.498-.159-1.007-.426-1.439-.5-.69-1.494-1.07-2.297-.712-.867.311-1.415 1.244-1.348 2.151h-2.47v-3.03h1.855c-.441-.741-.932-1.451-1.352-2.204-.606.069-1.315-.191-1.827.236zm2.278-.284c.467.797.992 1.56 1.485 2.344.866-.015 1.733.031 2.598-.027-1.284-.887-2.724-1.544-4.082-2.317zM.8 10.095c-.16.517-.021 1.139-.064 1.696 1.18-.18 2.354-.4 3.529-.607-.284-.514-.661-.969-.992-1.454-.818.141-1.676.188-2.473.365z"/>
    <path fill="#231f20" d="M5.169 12.353c.606-.114 1.333.128 1.65.683.406.575.352 1.435-.1 1.971-.634.737-1.953.731-2.514-.096-.709-.889-.18-2.377.964-2.559zM18.576 13.089c.678-.176 1.435.101 1.809.697.349.684.264 1.627-.381 2.109-.684.625-1.896.406-2.362-.378-.531-.867-.116-2.211.935-2.428z"/>
    <path fill="#201d1d" opacity=".93" d="M23.905 6.353h.152v.152c-.129.028-.181-.023-.152-.152z"/>
    <path fill="#fff" d="M.736 8.643c.021-.749.714-1.401 1.464-1.374 6.336.004 12.674.001 19.011.002.513.009 1.074-.081 1.53.217.357.274.704.676.677 1.155-.005 1.073-.003 2.146-.003 3.218-.877-.027-1.766.053-2.636-.038-1.759-.916-3.505-1.864-5.255-2.796-.767-.034-1.534-.002-2.301-.013v.408c-1.373.915-2.765 1.803-4.13 2.728a16.804 16.804 0 0 1-.01-.219c-.268.097-.539.186-.805.286-.225-.642-.411-1.297-.665-1.929-.73.184-1.463.4-2.212.483-.668-.456-1.29-.992-1.997-1.382-.894.016-1.783.225-2.665.376C.738 9.39.727 9.017.737 8.642z"/>
    <path fill="#fff" d="M13.184 9.895c.512-.427 1.221-.167 1.827-.236.42.753.911 1.463 1.352 2.204h-1.855v3.03h2.47c-.067-.906.481-1.839 1.348-2.151.803-.358 1.797.021 2.297.712.267.432.372.941.426 1.439h2.364c.184.856-.278 1.836-1.18 2.015-6.677.014-13.355 0-20.034.008-.668.027-1.255-.485-1.452-1.101-.035-.398-.007-.797-.015-1.195.913-.178 1.84-.28 2.75-.475-.102-1.124.851-2.293 2.025-2.196.8-.075 1.507.499 1.847 1.184.726-.278 1.588-.265 2.192-.803 1.207-.82 2.429-1.615 3.636-2.433zm-8.015 2.458c-1.144.182-1.673 1.67-.964 2.559.561.826 1.88.833 2.514.096.452-.536.506-1.397.1-1.971-.317-.555-1.044-.797-1.65-.683zm13.407.736c-1.05.216-1.465 1.561-.935 2.428.466.784 1.679 1.004 2.362.378.645-.482.73-1.425.381-2.109-.374-.596-1.131-.872-1.809-.697z"/>
    <path fill="#fff" d="M15.462 9.611c1.358.772 2.799 1.43 4.082 2.317-.865.058-1.732.012-2.598.027-.492-.783-1.017-1.546-1.485-2.344zM.8 10.095c.797-.176 1.655-.224 2.473-.365.331.485.709.939.992 1.454-1.176.208-2.35.427-3.529.607.043-.557-.096-1.179.064-1.696z"/>
</svg>
