<!-- Generated by IcoMoon.io -->
<svg version="1.1" xmlns="http://www.w3.org/2000/svg" width="24" height="24" viewBox="0 0 24 24">
<title>complementary--maximum-speed-limit-45--g1</title>
<path fill="#ffd033" d="M1.726 0h20.533c0.901 0.119 1.608 0.882 1.741 1.769v20.413c-0.090 0.944-0.895 1.712-1.826 1.818h-20.332c-0.925-0.11-1.703-0.835-1.842-1.76v-20.461c0.122-0.883 0.833-1.65 1.726-1.778M1.968 0.329c-0.982 0.127-1.715 1.096-1.668 2.069 0.004 6.478-0.008 12.956 0.005 19.434-0.008 1.044 0.919 1.98 1.969 1.955 6.523 0.006 13.049 0.008 19.573-0.001 1.085 0.017 2.011-0.985 1.951-2.062 0.004-6.442 0.002-12.883 0.001-19.325 0.065-1.124-0.932-2.176-2.071-2.099-6.586 0.018-13.176-0.040-19.76 0.029z"></path>
<path fill="#ffd033" d="M1.847 1.030c6.623-0.092 13.258-0.013 19.885-0.040 0.667-0.078 1.325 0.473 1.265 1.163 0.004 6.565 0.005 13.13 0 19.696 0.040 0.63-0.522 1.183-1.147 1.158-6.566 0.006-13.133 0.006-19.699 0-0.625 0.026-1.188-0.528-1.147-1.158-0.005-6.565-0.004-13.13 0-19.696-0.037-0.517 0.329-1.026 0.844-1.123M4.159 10.639c-0.402 0.457-0.176 1.109-0.226 1.658 1.558 0.010 3.115-0.001 4.673 0.005 0.008 0.868-0.002 1.736 0.006 2.605 0.449 0.005 0.896 0.005 1.345 0.001 0.007-0.869-0.002-1.739 0.005-2.608 0.528-0.001 1.057-0.001 1.586-0.002 0.006-0.398 0-0.798-0.002-1.196-0.528-0.004-1.056-0.004-1.583-0.002-0.010-2.309 0.002-4.619-0.006-6.928-0.371-0.002-0.742-0.004-1.111-0.005-1.583 2.142-3.114 4.322-4.687 6.472M13.75 4.382c-0.282 1.915-0.548 3.832-0.815 5.749 0.448-0.026 1.038 0.27 1.362-0.158 0.967-1.124 3.001-1.024 3.81 0.234 0.618 1.039 0.39 2.504-0.506 3.314-1.236 0.99-3.547 0.402-3.685-1.338-0.461-0.007-0.923-0.006-1.385 0.001 0.083 0.792 0.355 1.616 0.997 2.131 1.321 1.074 3.335 1.111 4.783 0.275 1.6-1.104 2.132-3.604 0.982-5.203-1.109-1.532-3.481-1.871-4.996-0.755 0.163-0.985 0.298-1.975 0.461-2.96 1.511-0.007 3.020 0.004 4.531-0.005 0.005-0.427 0.004-0.856-0.002-1.284-1.846-0.008-3.691-0.004-5.537-0.001M6.602 17.19c-0.005 1.271-0.004 2.54-0.001 3.81 0.25 0 0.498-0.001 0.748-0.001 0.006-1.030-0.002-2.060 0.004-3.090 0.246 1.028 0.461 2.064 0.702 3.094 0.259-0.002 0.52-0.004 0.779-0.006 0.234-1.028 0.457-2.058 0.701-3.084 0.013 1.030-0.001 2.058 0.007 3.086 0.25 0 0.499 0.001 0.749 0 0.001-1.268 0.002-2.538-0.001-3.808-0.38-0.002-0.761-0.002-1.142-0.001-0.236 0.996-0.46 1.997-0.688 2.995-0.245-0.995-0.466-1.996-0.7-2.993-0.386-0.005-0.772-0.004-1.157-0.002M11.042 17.191c-0.005 1.27-0.004 2.539-0.001 3.81 0.27-0.001 0.539-0.002 0.809-0.002 0-0.448 0-0.895 0.004-1.343 0.45-0.011 0.908 0.023 1.35-0.084 1.039-0.241 1.026-2.044 0-2.3-0.709-0.154-1.442-0.056-2.161-0.080M14.551 17.19c-0.004 1.28-0.004 2.56 0 3.84 0.269 0 0.538 0 0.806 0 0.004-0.569 0.002-1.139 0.002-1.709 0.49-0.004 0.979-0.004 1.468 0.001 0.002 0.569 0 1.138 0.004 1.708 0.269 0 0.538 0 0.806 0 0.005-1.28 0.004-2.561 0-3.841-0.269 0-0.539 0.001-0.808 0.001 0 0.49-0.001 0.978-0.004 1.466-0.488 0.006-0.977 0.006-1.465 0.002-0.001-0.491-0.001-0.98-0.004-1.47-0.269 0-0.538 0.001-0.806 0.001z"></path>
<path fill="#ffd033" d="M5.184 11.096c1.139-1.615 2.28-3.229 3.424-4.842 0.002 1.615 0.005 3.229-0.001 4.844-1.141 0.001-2.281 0.005-3.422-0.002z"></path>
<path fill="#ffd033" d="M11.854 17.849c0.378 0.019 0.793-0.059 1.141 0.125 0.294 0.248 0.239 0.876-0.175 0.976-0.317 0.072-0.644 0.037-0.966 0.040-0.004-0.38-0.004-0.76 0-1.14z"></path>
<path fill="#050505" d="M1.968 0.329c6.584-0.068 13.175-0.011 19.76-0.029 1.139-0.077 2.136 0.974 2.071 2.099 0.001 6.442 0.002 12.883-0.001 19.325 0.060 1.076-0.866 2.078-1.951 2.062-6.524 0.010-13.050 0.007-19.573 0.001-1.050 0.025-1.978-0.911-1.969-1.955-0.013-6.478-0.001-12.956-0.005-19.434-0.047-0.973 0.686-1.942 1.668-2.069M1.847 1.030c-0.515 0.097-0.881 0.606-0.844 1.123-0.004 6.565-0.005 13.13 0 19.696-0.041 0.63 0.522 1.184 1.147 1.158 6.566 0.006 13.133 0.006 19.699 0 0.625 0.025 1.187-0.528 1.147-1.158 0.005-6.565 0.004-13.13 0-19.696 0.060-0.69-0.598-1.241-1.265-1.163-6.628 0.026-13.262-0.053-19.885 0.040z"></path>
<path fill="#231f20" d="M4.159 10.639c1.573-2.149 3.104-4.33 4.687-6.472 0.37 0.001 0.74 0.002 1.111 0.005 0.008 2.309-0.004 4.619 0.006 6.928 0.527-0.001 1.055-0.001 1.583 0.002 0.002 0.398 0.008 0.798 0.002 1.196-0.529 0.001-1.058 0.001-1.586 0.002-0.007 0.869 0.002 1.739-0.005 2.608-0.449 0.004-0.896 0.004-1.345-0.001-0.008-0.869 0.002-1.738-0.006-2.605-1.558-0.006-3.115 0.005-4.673-0.005 0.049-0.55-0.176-1.201 0.226-1.658M5.184 11.096c1.141 0.007 2.281 0.004 3.422 0.002 0.006-1.615 0.004-3.229 0.001-4.844-1.144 1.613-2.285 3.227-3.424 4.842z"></path>
<path fill="#231f20" d="M13.75 4.382c1.846-0.002 3.691-0.007 5.537 0.001 0.006 0.428 0.007 0.857 0.002 1.284-1.511 0.008-3.020-0.002-4.531 0.005-0.163 0.985-0.298 1.975-0.461 2.96 1.514-1.116 3.887-0.778 4.996 0.755 1.151 1.6 0.618 4.099-0.982 5.203-1.448 0.836-3.462 0.799-4.783-0.275-0.642-0.515-0.914-1.339-0.997-2.131 0.462-0.007 0.924-0.008 1.385-0.001 0.138 1.74 2.449 2.328 3.685 1.338 0.896-0.81 1.124-2.275 0.506-3.314-0.809-1.258-2.843-1.358-3.81-0.234-0.324 0.428-0.914 0.132-1.362 0.158 0.266-1.918 0.533-3.834 0.815-5.749z"></path>
<path fill="#231f20" d="M6.602 17.19c0.385-0.001 0.77-0.002 1.157 0.002 0.234 0.997 0.455 1.998 0.7 2.993 0.228-0.998 0.451-1.999 0.688-2.995 0.382-0.001 0.762-0.001 1.142 0.001 0.004 1.27 0.002 2.539 0.001 3.808-0.25 0.001-0.499 0-0.749 0-0.008-1.028 0.006-2.057-0.007-3.086-0.244 1.026-0.467 2.056-0.701 3.084-0.259 0.002-0.52 0.004-0.779 0.006-0.241-1.030-0.456-2.065-0.702-3.094-0.006 1.030 0.002 2.060-0.004 3.090-0.25 0-0.498 0.001-0.748 0.001-0.002-1.27-0.004-2.539 0.001-3.81z"></path>
<path fill="#231f20" d="M11.042 17.191c0.719 0.024 1.452-0.073 2.161 0.080 1.026 0.257 1.039 2.059 0 2.3-0.442 0.107-0.9 0.073-1.35 0.084-0.004 0.448-0.004 0.895-0.004 1.343-0.27 0-0.539 0.001-0.809 0.002-0.002-1.271-0.004-2.54 0.001-3.81M11.854 17.849c-0.004 0.38-0.004 0.76 0 1.14 0.322-0.002 0.649 0.032 0.966-0.040 0.414-0.1 0.469-0.727 0.175-0.976-0.348-0.184-0.763-0.106-1.141-0.125z"></path>
<path fill="#231f20" d="M14.551 17.19c0.269 0 0.538-0.001 0.806-0.001 0.002 0.49 0.002 0.979 0.004 1.47 0.488 0.004 0.977 0.004 1.465-0.002 0.002-0.488 0.004-0.977 0.004-1.466 0.269 0 0.539-0.001 0.808-0.001 0.004 1.28 0.005 2.561 0 3.841-0.269 0-0.538 0-0.806 0-0.004-0.57-0.001-1.139-0.004-1.708-0.488-0.005-0.978-0.005-1.468-0.001 0 0.57 0.001 1.14-0.002 1.709-0.269 0-0.538 0-0.806 0-0.004-1.28-0.004-2.56 0-3.84z"></path>
</svg>
