<!-- Generated by IcoMoon.io -->
<svg version="1.1" xmlns="http://www.w3.org/2000/svg" width="44" height="24" viewBox="0 0 44 24">
<title>complementary--vehicles--g1</title>
<path fill="#fff" d="M1.955 0.198c0.333-0.132 0.693-0.149 1.046-0.151 12.589 0.003 25.18-0.003 37.769 0.003 1.499-0.042 2.857 1.321 2.817 2.819 0.003 6.089 0.003 12.177 0 18.266 0.038 1.497-1.32 2.857-2.817 2.819-12.634 0.003-25.27 0.003-37.904 0-1.496 0.038-2.86-1.321-2.817-2.819-0.001-6.089-0.001-12.179 0-18.267-0.030-1.18 0.806-2.287 1.906-2.669M2.512 0.766c-1.040 0.168-1.84 1.175-1.785 2.225 0.004 6.050-0.005 12.102 0.005 18.154-0.008 1.175 1.092 2.189 2.26 2.127 12.551 0 25.102 0 37.653 0 1.17 0.065 2.265-0.95 2.26-2.127 0.008-6.097 0.008-12.195 0-18.292 0-1.173-1.087-2.195-2.258-2.126-12.712 0.025-25.428-0.053-38.134 0.038z"></path>
<path fill="#fff" d="M2.645 1.856c12.616-0.089 25.242-0.011 37.863-0.040 0.685-0.102 1.37 0.465 1.308 1.174 0.003 6.007 0.004 12.012 0 18.019 0.055 0.645-0.525 1.226-1.17 1.171-12.552 0.001-25.103 0.001-37.655 0-0.644 0.055-1.227-0.526-1.171-1.171-0.001-6.007-0.001-12.012 0-18.019-0.034-0.511 0.318-1.027 0.826-1.135M19.077 6.66c-1.402 1.375-2.76 2.795-4.177 4.151-2.982 0.57-5.999 0.995-8.989 1.537-0.323 0.072-0.483 0.424-0.455 0.732 0.015 0.994-0.042 1.994 0.030 2.985 0.383 0.787 1.467 0.304 2.157 0.434-0.005-1.665 1.448-3.169 3.128-3.139 1.702-0.067 3.199 1.451 3.194 3.14 5.34 0 10.679 0 16.019 0 0-1.673 1.463-3.184 3.153-3.14 1.694-0.053 3.177 1.459 3.172 3.14 0.599-0.090 1.544 0.286 1.842-0.436 0.072-1.4 0.015-2.81 0.029-4.214 0.035-0.297-0.161-0.53-0.383-0.694-1.872-1.495-3.742-2.995-5.614-4.489-0.187-0.164-0.424-0.251-0.674-0.23-3.959 0.001-7.917-0.003-11.877 0.001-0.211-0.015-0.412 0.067-0.554 0.222M10.005 14.116c-1.050 0.335-1.796 1.422-1.713 2.524 0.040 1.136 0.949 2.161 2.070 2.34 1.017 0.198 2.118-0.319 2.622-1.222 0.535-0.901 0.416-2.13-0.285-2.91-0.644-0.757-1.755-1.055-2.695-0.732M32.367 14.111c-1.773 0.492-2.337 3.033-0.94 4.229 1.272 1.305 3.743 0.603 4.147-1.173 0.599-1.835-1.405-3.74-3.207-3.056z"></path>
<path fill="#fff" d="M18.95 8.041c0.18-0.194 0.402-0.379 0.686-0.348 1.774-0.007 3.55-0.001 5.325-0.003 0.007 1.26 0.003 2.52 0.001 3.78-2.868-0.001-5.737 0.011-8.605-0.004-0.315 0.071-0.532-0.363-0.267-0.555 0.942-0.967 1.915-1.906 2.86-2.87z"></path>
<path fill="#fff" d="M25.913 7.69c1.452 0.005 2.906-0.003 4.358 0.003 0.397-0.044 0.653 0.295 0.905 0.54 0.717 0.739 1.47 1.444 2.175 2.194 0.379 0.37 0.045 1.085-0.481 1.039-2.32 0.018-4.64 0.003-6.96 0.007-0.001-1.261-0.004-2.521 0.003-3.783z"></path>
<path fill="#000" d="M2.512 0.766c12.706-0.091 25.422-0.014 38.134-0.038 1.171-0.070 2.258 0.953 2.258 2.126 0.008 6.097 0.008 12.195 0 18.292 0.005 1.177-1.090 2.193-2.26 2.127-12.551 0-25.102 0-37.653 0-1.167 0.061-2.268-0.952-2.26-2.127-0.011-6.052-0.001-12.104-0.005-18.154-0.055-1.050 0.745-2.058 1.785-2.225M2.645 1.856c-0.509 0.108-0.86 0.623-0.826 1.135-0.001 6.007-0.001 12.012 0 18.019-0.056 0.645 0.528 1.226 1.171 1.171 12.552 0.001 25.103 0.001 37.655 0 0.645 0.055 1.225-0.526 1.17-1.171 0.004-6.007 0.003-12.012 0-18.019 0.063-0.709-0.623-1.276-1.308-1.174-12.62 0.029-25.246-0.049-37.863 0.040z"></path>
<path fill="#000" d="M19.077 6.66c0.142-0.155 0.342-0.237 0.554-0.222 3.96-0.004 7.919 0 11.877-0.001 0.25-0.020 0.487 0.067 0.674 0.23 1.872 1.495 3.742 2.995 5.614 4.489 0.222 0.164 0.419 0.397 0.383 0.694-0.014 1.403 0.044 2.813-0.029 4.214-0.299 0.723-1.244 0.346-1.842 0.436 0.005-1.681-1.478-3.194-3.172-3.14-1.69-0.044-3.153 1.467-3.153 3.14-5.34 0-10.679 0-16.019 0 0.005-1.69-1.492-3.207-3.194-3.14-1.68-0.030-3.134 1.474-3.128 3.139-0.69-0.13-1.774 0.353-2.157-0.434-0.072-0.991-0.015-1.991-0.030-2.985-0.027-0.308 0.132-0.66 0.455-0.732 2.99-0.541 6.007-0.967 8.989-1.537 1.417-1.355 2.775-2.776 4.177-4.151M18.95 8.041c-0.945 0.964-1.917 1.904-2.86 2.87-0.265 0.192-0.048 0.626 0.267 0.555 2.868 0.015 5.737 0.003 8.605 0.004 0.001-1.26 0.005-2.52-0.001-3.78-1.775 0.001-3.551-0.004-5.325 0.003-0.284-0.031-0.506 0.154-0.686 0.348M25.913 7.69c-0.007 1.261-0.004 2.521-0.003 3.783 2.32-0.004 4.64 0.011 6.96-0.007 0.526 0.046 0.86-0.67 0.481-1.039-0.705-0.75-1.458-1.455-2.175-2.194-0.252-0.245-0.509-0.584-0.905-0.54-1.452-0.005-2.906 0.003-4.358-0.003z"></path>
<path fill="#000" d="M10.005 14.116c0.94-0.323 2.051-0.025 2.695 0.732 0.701 0.78 0.82 2.009 0.285 2.91-0.505 0.903-1.605 1.42-2.622 1.222-1.121-0.179-2.030-1.204-2.070-2.34-0.083-1.102 0.663-2.189 1.713-2.524z"></path>
<path fill="#000" d="M32.367 14.111c1.803-0.685 3.806 1.22 3.207 3.056-0.404 1.775-2.875 2.478-4.147 1.173-1.398-1.196-0.833-3.736 0.94-4.229z"></path>
</svg>
