<svg xmlns="http://www.w3.org/2000/svg" width="24" height="24">
    <path fill="#fffffe" d="M1.892 3.529h19.861c.044.046.122.023.162.076-.39-.092-.795-.068-1.192-.071l-18.378.001c-.21.009-.421.02-.625.07.046-.046.119-.04.172-.075zM1.576 3.646c.025-.05.066-.061.122-.036a.123.123 0 0 1-.122.036zM21.936 3.612c.055-.028.096-.017.122.033a.122.122 0 0 1-.122-.033zM1.169 3.817c.08-.067.181-.136.289-.136-.092.054-.184.111-.289.136zM2.173 3.706c6.385-.018 12.772-.004 19.157-.007 1.18-.029 2.243 1.074 2.167 2.252v12.138c.079 1.166-.961 2.262-2.132 2.243-6.34.004-12.68.001-19.02.002a2.208 2.208 0 0 1-1.517-.577c-.404-.426-.726-.987-.688-1.592.002-4.072 0-8.143.001-12.215-.079-1.129.896-2.214 2.032-2.244zm-.004.371C1.3 4.126.565 4.899.508 5.758c0 4.187-.001 8.373.003 12.56.068.898.896 1.639 1.792 1.648 6.368.004 12.736.001 19.103-.001.937-.02 1.715-.881 1.724-1.801-.002-4.148 0-8.296-.004-12.444-.065-.902-.896-1.648-1.796-1.655-6.253-.004-12.507-.001-18.76-.001-.134-.001-.269-.004-.402.013zM22.552 3.866l.085.053-.085-.053zM22.659 3.95l.079.029-.079-.029zM.763 4.074l.087-.052-.087.052zM22.819 4.062l.092.05-.092-.05zM22.976 4.178l.052.089-.052-.089zM.416 4.494l.053-.085-.053.085zM23.243 4.525l.049.088-.049-.088zM.26 4.724l.053-.08-.053.08zM23.32 4.64z"/>
    <path fill="#fffffe" d="M2.132 4.758c.195-.034.394-.019.591-.023 6.215.001 12.43.001 18.644.003.563.01 1.06.498 1.091 1.057l-.002 12.447c-.033.584-.577 1.082-1.165 1.053-6.342-.001-12.683 0-19.025-.002-.559-.013-1.051-.496-1.086-1.051l.002-12.446c.028-.503.444-.98.951-1.038zm10.444 1.19c.155.532.336 1.058.498 1.589-1.069.009-2.137-.008-3.206.008a4.547 4.547 0 0 0-1.684.347c-.608.287-1.212.629-1.645 1.155a4.644 4.644 0 0 0-1.245 3.217c-.012.913.31 1.806.803 2.565.382.488.767.973 1.152 1.46.448.703.512 1.561.476 2.374.869.006 1.738.004 2.607.001-.001-.457.02-.916-.038-1.371a6.4 6.4 0 0 0-.84-2.419c-.407-.524-.825-1.041-1.233-1.566-.32-.51-.417-1.168-.217-1.74.193-.488.528-.949 1.012-1.181.338-.196.737-.241 1.121-.24.98.001 1.96-.001 2.94.001-.162.53-.342 1.055-.498 1.588-.067.404.421.724.772.529l4.982-3.413-.001-.019c-1.662-1.136-3.321-2.276-4.984-3.412-.352-.195-.835.124-.771.527zM0 5.273l.032-.007c.025.049.013.088-.032.116v-.109zM23.6 5.259c.044.03.054.073.03.129a.116.116 0 0 1-.03-.129zM23.637 5.447l.035.026v13.098l-.035.017c.037-.229.02-.46.023-.689V5.686c-.004-.08-.016-.16-.023-.239zM0 18.628a.497.497 0 0 1 .078.269c-.063-.03-.044-.112-.078-.162v-.107zM23.6 18.779a.111.111 0 0 1 .03-.128c.024.055.013.098-.03.128zM.078 18.898c.047.049.087.124.066.194-.038-.057-.092-.121-.066-.194zM.212 19.226a.21.21 0 0 1 .114.186c-.068-.037-.082-.122-.114-.186zM23.32 19.393zM.343 19.424l.048.088-.048-.088zM23.169 19.628l.048-.087-.048.087zM23.013 19.823a2.63 2.63 0 0 1 .054-.089l-.054.089zM.882 20.041l.087.05-.087-.05zM.999 20.12l.083.052-.083-.052zM22.552 20.173zM1.577 20.392a.136.136 0 0 1 .129.038c-.059.024-.102.011-.129-.038zM21.929 20.429a.135.135 0 0 1 .128-.037c-.027.049-.07.061-.128.037zM1.735 20.439c.049-.025.088-.015.117.032h-.109l-.008-.032zM21.781 20.471c.03-.047.07-.057.119-.032l-.009.032h-.109z"/>
    <path fill="#1a1919" d="M1.72 3.604c.204-.05.415-.061.625-.07l18.378-.001c.397.004.802-.021 1.192.071l.022.007a.124.124 0 0 0 .122.033l.024.001.088.023c.131.057.263.117.383.196l.085.053.021.03.079.029a.32.32 0 0 1 .081.083l.092.05.066.066.052.089c.09.07.156.162.215.258l.049.088.028.027.053.084c.066.095.114.201.16.308l.019.089.012.026.03.084.006.028a.116.116 0 0 0 .03.129l.007.06c.007.079.019.159.023.239v12.213c-.003.229.014.46-.023.689l-.008.062a.115.115 0 0 0-.03.128l-.006.028-.03.083-.011.027-.02.089a1.935 1.935 0 0 1-.212.387.28.28 0 0 1-.103.148l-.048.087-.102.107-.054.089a1.24 1.24 0 0 1-.38.296l-.08.054a2.764 2.764 0 0 1-.383.196l-.089.023-.023.001a.135.135 0 0 0-.128.037l-.03.01c-.049-.025-.088-.015-.119.032H1.855c-.029-.047-.068-.057-.117-.032l-.03-.01a.138.138 0 0 0-.129-.038l-.023.001-.088-.024a2.16 2.16 0 0 1-.383-.196l-.083-.052a.835.835 0 0 0-.03-.029l-.087-.05c-.22-.115-.347-.336-.491-.528l-.048-.088-.018-.012a.209.209 0 0 0-.114-.186 1.395 1.395 0 0 1-.067-.134c.02-.07-.019-.145-.066-.194l-.001-.001a.483.483 0 0 0-.078-.269V5.381c.046-.029.057-.068.032-.116l.008-.032.03-.086.013-.027.019-.089c.045-.106.094-.21.157-.307l.053-.08a.327.327 0 0 1 .104-.15l.053-.085c.091-.118.173-.244.294-.335l.087-.052a.91.91 0 0 1 .32-.205c.104-.025.197-.083.289-.136l.012-.001.08-.035.025.003a.122.122 0 0 0 .122-.036l.023-.006zm.453.102C1.038 3.736.062 4.821.141 5.95.14 10.022.142 14.093.14 18.165c-.038.606.283 1.167.688 1.592.409.374.961.588 1.517.577 6.34-.001 12.68.003 19.02-.002 1.171.019 2.211-1.077 2.132-2.243V5.951c.076-1.177-.986-2.28-2.167-2.252-6.386.003-12.772-.011-19.157.007z"/>
    <path fill="#1a1919" d="M2.169 4.077c.133-.018.268-.013.402-.013 6.253.001 12.507-.003 18.76.001.899.007 1.731.752 1.796 1.655.004 4.148.002 8.296.004 12.444-.009.919-.787 1.78-1.724 1.801-6.368.001-12.736.004-19.103.001-.896-.008-1.724-.749-1.792-1.648C.508 14.131.509 9.944.509 5.758c.057-.858.792-1.632 1.661-1.681zm-.037.681c-.507.058-.923.535-.951 1.038l-.002 12.446c.035.555.527 1.038 1.086 1.051 6.342.002 12.683.001 19.025.002.588.029 1.132-.469 1.165-1.053.002-4.148.002-8.298.002-12.447-.032-.559-.528-1.047-1.091-1.057-6.215-.003-12.43-.001-18.644-.003-.197.003-.395-.012-.591.023z"/>
    <path fill="#1a1919" d="M12.576 5.948c-.064-.404.42-.722.771-.527 1.662 1.136 3.322 2.276 4.984 3.412l.001.019c-1.661 1.136-3.321 2.276-4.982 3.413-.352.196-.839-.124-.772-.529.156-.532.335-1.057.498-1.588-.98-.003-1.96-.001-2.94-.001-.385-.002-.783.044-1.121.24-.484.232-.819.692-1.012 1.181-.2.572-.102 1.23.217 1.74.408.524.825 1.041 1.233 1.566.431.742.734 1.566.84 2.419.059.455.037.913.038 1.371-.869.003-1.738.004-2.607-.001.036-.812-.028-1.67-.476-2.374-.385-.486-.771-.971-1.152-1.46-.493-.76-.815-1.652-.803-2.565a4.637 4.637 0 0 1 1.245-3.217c.433-.525 1.038-.868 1.645-1.155a4.531 4.531 0 0 1 1.684-.347c1.068-.016 2.137.001 3.206-.008-.162-.531-.342-1.057-.498-1.589z"/>
    <path fill="#c4c3c3" d="M1.47 3.679l.08-.035-.08.035zM23.563 18.891l.03-.083-.03.083z"/>
    <path fill="#d1d1d1" d="M22.082 3.647zM23.533 19.007l.02-.089-.02.089z"/>
    <path fill="#d2d2d2" d="M.083 5.12l.019-.089-.019.089z"/>
    <path fill="#d8d7d7" d="M23.533 5.032l.019.089-.019-.089z"/>
    <path fill="#c8c8c8" d="M.04 5.233l.03-.086-.03.086z"/>
    <path fill="#cacaca" d="M23.563 5.147z"/>
    <path fill="#e1e0e0" d="M1.466 20.368l.088.024-.088-.024z"/>
    <path fill="#ddd" d="M22.08 20.392l.089-.023-.089.023z"/>
</svg>
