<svg xmlns="http://www.w3.org/2000/svg" width="24" height="24">
    <path fill="#0071b3" d="M1.223 3.771h21.513c.688.198 1.141.823 1.289 1.5v13.375c-.139.677-.596 1.271-1.258 1.503-7.197-.075-14.399-.051-21.597-.013A2.064 2.064 0 0 1 0 18.78V5.157c.167-.625.602-1.169 1.223-1.385zm10.274 1.282c-.061.27-.035.553-.037.828-.291.072-.729.259-.54.638.197.333.602.198.855.024-.021 1.067-.002 2.132-.011 3.199-.216.152-.417.324-.632.478.206.393.416.788.564 1.208-.318-.304-.584-.656-.847-1.007-.281.093-.571.158-.852.251-1.024-.499-2.024-1.053-3.066-1.517.262-.147.556-.448.337-.76-.239-.312-.607-.056-.789.174-.241-.12-.476-.261-.734-.341-.441-.096-.777.525-.477.854.211.176.47.278.709.409-.043.273-.119.734.28.759.435.041.549-.466.409-.791 1.019.559 2.085 1.021 3.114 1.561.061.275.144.545.211.821.459.021.922.029 1.377.11-.457.11-.93.138-1.398.161-.064.268-.112.544-.222.799-.996.581-2.056 1.051-3.06 1.625.04-.327-.137-.781-.542-.677-.355.09-.259.475-.191.736-.232.145-.479.272-.677.462-.289.334.051.915.483.848.274-.084.506-.259.747-.406.198.18.49.461.756.217.297-.318-.043-.669-.327-.829.946-.477 1.863-1.005 2.804-1.492.344-.227.745.011 1.106.06.265-.342.53-.69.855-.978-.143.4-.357.769-.573 1.131.22.167.422.355.641.52.008 1.092-.002 2.183.008 3.274-.251-.182-.682-.264-.826.094-.15.361.274.52.547.578.006.274-.011.549.034.819.152.412.817.429.992.027.061-.27.041-.551.049-.826.252-.095.686-.259.516-.609-.166-.372-.608-.25-.853-.038.01-.998-.001-1.997.002-2.995-.041-.393.363-.59.588-.843a12.632 12.632 0 0 1-.53-1.115c.292.312.564.641.819.985.355-.065.739-.321 1.09-.123.974.501 1.928 1.042 2.903 1.542-.281.13-.636.414-.412.753.225.356.614.075.807-.154.249.131.485.294.759.369.388.014.705-.466.496-.808-.208-.232-.512-.339-.776-.488.086-.272.156-.671-.213-.759-.383-.054-.519.339-.533.646-1.002-.55-2.036-1.037-3.043-1.576-.049-.252-.108-.503-.16-.756-.473-.042-.948-.082-1.414-.179.457-.082.922-.101 1.384-.126.123-.342.089-.839.492-.991.922-.483 1.838-.979 2.751-1.483.037.293.128.736.521.676.414-.041.309-.509.276-.791.222-.147.468-.268.652-.465.238-.353-.123-.908-.544-.805-.263.099-.49.272-.727.42-.204-.224-.599-.472-.815-.12-.189.352.173.609.446.745-1.048.516-2.053 1.12-3.091 1.658-.252-.088-.507-.166-.76-.25-.281.368-.562.736-.877 1.077.149-.424.353-.824.574-1.213-.232-.172-.449-.361-.682-.53-.006-1.055.006-2.111-.008-3.167.262.142.679.254.836-.097.155-.359-.262-.521-.527-.603-.002-.259.012-.521-.027-.778-.125-.437-.821-.461-.998-.051z"/>
    <path fill="#fff" d="M11.497 5.053c.177-.409.874-.385.998.051.04.257.025.519.027.778.265.082.682.244.527.603-.158.351-.574.239-.836.097.013 1.056.001 2.112.007 3.167.233.169.451.358.682.53a7.514 7.514 0 0 0-.574 1.213c.315-.341.596-.71.877-1.077.254.084.508.163.76.25 1.038-.538 2.042-1.141 3.091-1.658-.273-.136-.634-.393-.446-.745.215-.352.61-.104.815.12.237-.149.464-.321.727-.42.422-.104.782.452.544.805-.184.197-.43.317-.652.465.032.283.138.751-.276.791-.394.06-.484-.383-.521-.676-.913.503-1.828 1-2.751 1.483-.404.152-.369.649-.492.991-.462.025-.927.045-1.384.126.466.097.941.137 1.414.179.051.252.11.503.16.756 1.007.54 2.041 1.026 3.043 1.576.014-.307.15-.7.533-.646.369.089.299.488.213.759.264.149.568.256.776.488.209.342-.108.823-.496.808-.274-.075-.511-.238-.759-.369-.193.228-.583.509-.807.154-.224-.339.131-.623.412-.753-.975-.501-1.929-1.042-2.903-1.542-.351-.197-.735.059-1.09.123a11.02 11.02 0 0 0-.819-.985c.156.382.337.751.53 1.115-.226.254-.629.451-.588.843-.003.997.007 1.997-.002 2.995.245-.211.687-.334.853.038.171.351-.263.514-.516.609-.008.275.012.556-.049.826-.176.401-.84.385-.992-.027-.045-.27-.027-.545-.034-.819-.273-.058-.697-.217-.547-.578.144-.358.575-.276.826-.094-.01-1.091.001-2.181-.008-3.274-.22-.166-.422-.353-.641-.52.216-.363.43-.732.573-1.131-.326.288-.59.636-.855.978-.361-.049-.763-.287-1.106-.06-.941.487-1.858 1.015-2.804 1.492.283.16.623.511.327.829-.265.244-.557-.037-.756-.217-.241.147-.473.322-.747.406-.433.067-.772-.514-.483-.848.198-.191.446-.317.677-.462-.069-.262-.163-.646.191-.736.405-.104.581.351.542.677 1.003-.574 2.064-1.044 3.06-1.625.11-.254.158-.531.222-.799.468-.023.941-.051 1.398-.161-.455-.082-.917-.09-1.377-.11-.067-.275-.15-.545-.211-.821-1.029-.54-2.095-1.002-3.114-1.561.141.324.027.831-.409.791-.399-.025-.323-.486-.28-.759-.239-.13-.499-.233-.709-.409-.3-.329.036-.95.477-.854.259.08.492.221.734.341.182-.23.55-.486.789-.174.219.312-.075.612-.337.76 1.042.465 2.041 1.019 3.066 1.517.281-.093.571-.158.852-.251.263.351.529.703.847 1.007-.147-.42-.357-.816-.564-1.208.215-.154.416-.327.632-.478.008-1.067-.01-2.133.011-3.199-.254.174-.658.309-.855-.024-.189-.379.25-.566.54-.638.002-.275-.024-.557.037-.828z"/>
    <path fill="#00263c" opacity=".33" d="M1.17 20.136c7.198-.038 14.401-.062 21.597.013l-.182.08H1.353l-.184-.093z"/>
</svg>
