<!-- Generated by IcoMoon.io -->
<svg version="1.1" xmlns="http://www.w3.org/2000/svg" width="46" height="24" viewBox="0 0 46 24">
<title>complementary--when-foggy--g1</title>
<path fill="#c5c5c5" d="M0 0h0.648c-0.269 0.284-0.486 0.615-0.648 0.97v-0.97z"></path>
<path fill="#ededed" d="M0.648 0h0.823c-0.921 0.505-1.27 1.59-1.249 2.585 0.045 1.478-0.102 2.968 0.158 4.432 0.019 4.983-0.012 9.968 0.008 14.952-0.065 1.002 0.821 1.858 1.783 1.952l0.167 0.079h-1.289c-0.452-0.285-0.774-0.721-1.050-1.169v-21.861c0.162-0.355 0.379-0.686 0.648-0.97z"></path>
<path fill="#747474" d="M1.471 0h43.157l0.107 0.052c-13.835-0.003-27.669 0.022-41.504 0.003-0.696 0.020-1.508-0.134-2.083 0.361-0.748 0.652-0.726 1.722-0.721 2.631-0.056 2.126 0.125 4.245 0.077 6.37-0.007 4.123-0.011 8.249-0.005 12.372-0.028 0.844 0.549 1.67 1.36 1.915 0.883 0.114 1.777 0.032 2.665 0.055 5.708-0.018 11.418 0.038 17.125-0.047 0.054 0.001 0.161 0.003 0.214 0.004 4.914 0.046 9.831 0.049 14.745 0.003 2.44 0.083 4.886 0.035 7.328 0.052 1.025 0.055 1.835-0.916 1.89-1.884 0.087-1.050-0.15-2.098-0.007-3.145 0.027-5.606 0.004-11.214 0.013-16.819 0.004-0.531-0.266-0.999-0.478-1.467 0.341 0.222 0.536 0.594 0.617 0.984v20.668c-0.079 0.799-0.681 1.515-1.453 1.729-0.738 0.138-1.494 0.091-2.239 0.098-2.061-0.023-4.125 0.054-6.184-0.057-11.309-0.006-22.618 0.003-33.921 0.044-0.963-0.094-1.848-0.951-1.783-1.952-0.020-4.984 0.011-9.969-0.008-14.952-0.259-1.464-0.113-2.954-0.158-4.432-0.021-0.994 0.328-2.080 1.249-2.585z"></path>
<path fill="#747474" d="M25.386 7.55c0.514-0.126 1.045-0.060 1.567-0.079 3.447-0.016 6.894 0.005 10.339-0.011 0.215 0.002 0.427 0.042 0.638 0.086 0.007 0.508 0.006 1.016-0.002 1.524-0.24 0.053-0.484 0.090-0.729 0.081-3.93-0.030-7.864 0.050-11.791-0.037-0.058-0.52-0.050-1.042-0.022-1.564M25.51 7.602c0.009 0.467 0.009 0.934 0.002 1.401 0.75 0.127 1.516 0.039 2.273 0.065 3.335 0.020 6.674-0.033 10.005 0.005 0.017-0.507 0.017-1.015 0.001-1.523-4.093 0.023-8.19-0.060-12.281 0.053z"></path>
<path fill="#f5f5f5" d="M44.628 0h1.341v1.439c-0.080-0.39-0.276-0.762-0.617-0.984-0.081-0.067-0.166-0.129-0.252-0.188-0.119-0.078-0.239-0.153-0.366-0.215l-0.107-0.052z"></path>
<path fill="#292929" d="M1.147 0.415c0.575-0.495 1.387-0.341 2.083-0.361 13.835 0.019 27.669-0.006 41.504-0.003 0.126 0.062 0.246 0.138 0.366 0.215-1.361-0.238-2.687 0.135-4.048 0.145 1.046 0.033 2.078 0.182 3.107 0.361-1.105 0.001-2.212 0.033-3.317-0.015-0.673-0.213-1.382-0.114-2.074-0.127-1.015-0.003-2.032-0.005-3.047 0.008-0.493 0.040-0.896-0.33-1.384-0.316-2.123 0.017-4.248 0.030-6.369-0.081-2.43 0.013-4.863-0.019-7.292 0.016-1.308 0.174-2.633-0.028-3.938 0.139 1.092 0.227 2.221 0.018 3.329 0.105 0.061 0.090 0.122 0.181 0.183 0.272-5.98 0.015-11.96 0.002-17.941 0.006-0.517-0.038-0.834 0.42-1.088 0.797-0.023-0.127-0.048-0.255-0.075-0.382-0.052 0.204-0.101 0.408-0.15 0.612-0.127 0.050-0.256 0.099-0.383 0.148-0.141 3.225 0.038 6.453-0.066 9.676 0.021 3.417-0.035 6.836 0.018 10.254 0.168-0.036 0.337-0.071 0.505-0.107-0.1-0.763-0.124-1.535-0.052-2.302 0.034-0.777-0.193-1.553-0.034-2.327 0.118-0.51 0.014-1.025-0.171-1.505-0.221-0.586 0.302-1.119 0.234-1.707-0.023-0.519-0.362-1.017-0.186-1.54 0.103-0.37 0.194-0.749 0.183-1.136-0.021-1.416 0.004-2.832-0.018-4.248-0.016-0.282 0.067-0.554 0.215-0.792 0.022 5.25-0.007 10.5 0.004 15.75-0.071 0.614 0.598 1.052 1.149 1.056 1.801 0.015 3.603-0.020 5.404 0.016 0.277 0.122 0.571 0.219 0.879 0.204 1.477-0.023 2.954 0.006 4.431-0.022 0.641-0.058 1.204 0.364 1.846 0.298 1.969-0.027 3.939 0.011 5.908-0.020 0.349-0.027 0.694 0.043 1.001 0.213-0.054-0.001-0.161-0.003-0.214-0.004-2.839-0.24-5.718 0.169-8.54-0.261-3.54 0.018-7.081-0.003-10.621-0.001-0.238-0.007-0.44 0.126-0.629 0.254-0.81-0.246-1.387-1.072-1.36-1.915-0.006-4.123-0.003-8.249 0.005-12.372 0.048-2.125-0.133-4.244-0.077-6.37-0.006-0.908-0.027-1.979 0.721-2.631M1.041 0.791c0.202 0.197 0.497-0.005 0.726-0.048 0.467-0.189 0.974-0.121 1.463-0.116 3.323 0.002 6.646-0.003 9.969 0.002 0.474-0.011 1.006 0.085 1.411-0.227-0.642-0.173-1.31-0.086-1.965-0.102-3.446-0.011-6.893 0.006-10.338-0.044-0.445 0.026-1.124-0.008-1.266 0.535z"></path>
<path fill="#292929" d="M45.097 21.873c0.177-0.004 0.355-0.008 0.534-0.006 0.048 0.005 0.145 0.015 0.194 0.019-0.054 0.968-0.865 1.939-1.89 1.884-2.442-0.017-4.889 0.031-7.328-0.052-0.637-0.247-1.327-0.117-1.991-0.14-2.814-0.019-5.63 0.029-8.443-0.024-0.142-0.147-0.26-0.38-0.5-0.354-1.265-0.013-2.531-0.005-3.796 0.008-0.276 0.006-0.539-0.079-0.798-0.162 7.622-0.042 15.245-0.001 22.866-0.020 0.595-0.004 1.229-0.517 1.152-1.153z"></path>
<path fill="#191919" d="M41.053 0.412c1.361-0.010 2.687-0.383 4.048-0.145 0.086 0.059 0.171 0.121 0.252 0.188 0.212 0.468 0.482 0.936 0.478 1.467-0.158 0.030-0.315 0.061-0.471 0.091-0.033 0.364-0.054 0.736 0.050 1.090 0.21 0.714-0.072 1.441-0.107 2.158-0.083 0.845 0.154 1.693-0.024 2.533-0.15 0.669 0.198 1.317 0.108 1.986-0.041 0.403-0.181 0.798-0.155 1.207 0.111 0.35 0.462 0.611 0.424 1.011 0.060 0.43-0.288 0.734-0.427 1.104-0.164 0.537 0.464 0.868 0.427 1.387 0.096 0.534-0.499 0.858-0.43 1.385 0.056 1.958-0.025 3.917 0.029 5.874 0.125 0.041 0.25 0.081 0.378 0.118-0.179-0.002-0.357 0.003-0.534 0.006-0.021-6.709 0.006-13.418-0.001-20.127 0.042-0.526-0.474-0.882-0.936-0.974-1.029-0.179-2.061-0.328-3.107-0.361z"></path>
<path fill="#080808" d="M1.041 0.791c0.142-0.544 0.822-0.51 1.266-0.535 3.446 0.050 6.893 0.033 10.338 0.044 0.655 0.016 1.324-0.071 1.965 0.102-0.405 0.312-0.937 0.216-1.411 0.227-3.323-0.005-6.646 0-9.969-0.002-0.489-0.005-0.996-0.073-1.463 0.116-0.23 0.043-0.524 0.245-0.726 0.048z"></path>
<path fill="#424242" d="M16.739 0.397c1.305-0.167 2.63 0.035 3.938-0.139 2.43-0.035 4.862-0.003 7.292-0.016 2.121 0.112 4.246 0.098 6.369 0.081 0.487-0.014 0.891 0.355 1.384 0.316 1.015-0.013 2.032-0.011 3.047-0.008 0.692 0.013 1.401-0.086 2.074 0.127-6.864 0.038-13.728 0.007-20.593 0.017-0.061-0.091-0.122-0.182-0.183-0.272-1.108-0.087-2.237 0.122-3.329-0.105z"></path>
<path fill="#a9a9a9" d="M1.221 1.578c0.255-0.377 0.571-0.834 1.088-0.797 5.981-0.005 11.961 0.008 17.941-0.006 6.865-0.009 13.729 0.021 20.593-0.017 1.105 0.048 2.212 0.016 3.317 0.015 0.462 0.091 0.978 0.448 0.936 0.974 0.006 6.709-0.020 13.418 0.001 20.127 0.077 0.636-0.557 1.149-1.152 1.153-7.622 0.019-15.245-0.022-22.866 0.020-4.426-0.030-8.854-0.022-13.28-0.004-1.801-0.036-3.603-0.001-5.404-0.016-0.551-0.004-1.22-0.442-1.149-1.056-0.011-5.25 0.018-10.499-0.004-15.75 0.001-1.547 0.056-3.099-0.020-4.644M1.628 1.269l0.006 0.081c-0.067 0.102-0.163 0.193-0.192 0.316-0.060 6.675-0.048 13.353-0.045 20.030-0.020 0.284 0.068 0.558 0.275 0.758 0.002 0.035 0.005 0.104 0.006 0.138 0.61 0.257 1.279 0.165 1.922 0.177 13.2 0.002 26.4-0.003 39.6 0.002 0.45-0.018 0.956 0.077 1.354-0.186 0.275-0.282 0.409-0.685 0.389-1.077-0.004-6.307-0.022-12.615 0.030-18.921 0.017-0.504-0.047-1.078-0.447-1.433-0.394-0.333-0.942-0.234-1.418-0.247-13.508-0.026-27.016 0.013-40.524-0.001-0.364-0.035-0.675 0.161-0.955 0.364z"></path>
<path fill="#fff" d="M1.628 1.269c0.281-0.203 0.592-0.399 0.955-0.364 13.508 0.014 27.016-0.025 40.524 0.001 0.475 0.013 1.024-0.086 1.418 0.247 0.4 0.354 0.463 0.929 0.447 1.433-0.052 6.306-0.033 12.614-0.030 18.921 0.020 0.392-0.114 0.795-0.389 1.077-0.398 0.263-0.904 0.168-1.354 0.186-13.2-0.005-26.4 0-39.6-0.002-0.642-0.012-1.312 0.079-1.922-0.177-0.002-0.034-0.005-0.103-0.006-0.138-0.067-6.253-0.035-12.509-0.002-18.762-0.004-0.781 0.022-1.562-0.036-2.342l-0.006-0.081M21.455 2.165c-0.086 0.488-0.078 0.987 0.017 1.473 4.086 0.021 8.173 0.023 12.258-0.001 0.114-0.469 0.198-0.997 0-1.453-0.224-0.055-0.457-0.048-0.685-0.050-3.863 0.027-7.728-0.029-11.59 0.030M21.782 5.164c-0.045 0.379-0.128 1.090 0.457 1.014 4.479-0.025 8.962 0.034 13.439-0.034-0.030-0.499 0.324-1.582-0.503-1.508-4.28 0.001-8.562 0.003-12.842-0.001-0.319-0.048-0.545 0.234-0.551 0.53M13.924 5.058c-1.178 1.315-2.321 2.663-3.495 3.982-0.162 0.184-0.384 0.33-0.64 0.313-1.379 0.008-2.757-0.009-4.136 0.008-0.131 1.027-0.030 2.067-0.061 3.1 0.032 0.847-0.074 1.704 0.067 2.544 0.17 0.011 0.34 0.020 0.509 0.038 0.746 0.477 1.758 0.38 2.547 0.801 0.221 0.315 0.223 0.726 0.42 1.055 0.433 0.754 1.231 1.239 2.070 1.41 1.003 0.159 1.981-0.418 2.586-1.186 0.328-0.365 0.332-0.882 0.563-1.299 3.556 0.028 7.111 0.006 10.667 0.012 0.213 0.030 0.455-0.072 0.415-0.325 0.016-2.101 0.021-4.203-0.003-6.304 4.047 0.015 8.094-0.002 12.142 0.007 0.165-0.007 0.357-0.005 0.479-0.138 0.055-0.509 0.055-1.030 0.001-1.539-0.174-0.175-0.447-0.126-0.671-0.141-4.014 0.031-8.032-0.037-12.045 0.035-0.023 0.553-0.006 1.107-0.020 1.661-1.331 0.030-2.673-0.068-3.999 0.045-0.020-1.014-0.058-2.034 0.011-3.044 0.291-0.332 0.303-0.76 0.238-1.178-2.23-0.119-4.472-0.012-6.707-0.054-0.315 0.022-0.709-0.081-0.938 0.198M26.445 10.754c-0.018 0.368-0.012 0.737 0.013 1.105 4.084 0.016 8.168 0.015 12.252-0.001 0.022-0.367 0.028-0.736 0.012-1.104-4.092-0.023-8.185-0.016-12.277 0M26.446 13.252c0.023 0.641-0.14 1.324 0.108 1.934 4.102-0.012 8.205-0.002 12.307-0.006 0.415-0.006 0.843 0.049 1.245-0.087 0.029-0.613 0.031-1.228 0.003-1.842-4.554-0.018-9.109-0.014-13.663 0M26.184 16.306c-0.072 0.669-0.066 1.344-0.014 2.015 4.016 0.039 8.034 0.004 12.051 0.016 0.162-0.020 0.442 0.027 0.482-0.189 0.041-0.535 0.035-1.076 0.002-1.611-0.022-0.237-0.302-0.248-0.485-0.243-4.012 0.010-8.024-0.013-12.036 0.012z"></path>
<path fill="#fff" d="M16.971 5.872c0.937-0.013 1.874 0.001 2.811-0.013 0.088 1.053 0.042 2.112 0.045 3.167-1.629 0.034-3.259 0.018-4.89 0.003 0.457-0.782 1.081-1.458 1.461-2.286 0.161-0.309 0.37-0.588 0.572-0.871z"></path>
<path fill="#000" d="M0.997 1.807c0.049-0.204 0.098-0.408 0.15-0.612 0.027 0.127 0.052 0.255 0.075 0.382 0.077 1.545 0.021 3.097 0.020 4.644-0.148 0.238-0.231 0.51-0.215 0.792 0.022 1.416-0.003 2.832 0.018 4.248 0.011 0.388-0.079 0.766-0.183 1.136-0.175 0.522 0.163 1.021 0.186 1.54 0.068 0.588-0.454 1.121-0.234 1.707 0.185 0.48 0.289 0.994 0.171 1.505-0.159 0.774 0.068 1.55 0.034 2.327-0.072 0.767-0.048 1.539 0.052 2.302-0.168 0.036-0.337 0.071-0.505 0.107-0.054-3.418 0.003-6.837-0.018-10.254 0.103-3.222-0.076-6.45 0.066-9.676 0.127-0.049 0.256-0.098 0.383-0.148z"></path>
<path fill="#000" d="M45.36 2.013c0.156-0.030 0.313-0.061 0.471-0.091-0.009 5.606 0.014 11.214-0.013 16.819-0.142 1.047 0.094 2.094 0.007 3.145-0.049-0.005-0.146-0.015-0.194-0.019-0.127-0.037-0.253-0.078-0.378-0.118-0.054-1.957 0.028-3.916-0.029-5.874-0.069-0.526 0.526-0.851 0.43-1.385 0.037-0.52-0.592-0.85-0.427-1.387 0.139-0.37 0.487-0.674 0.427-1.104 0.039-0.4-0.313-0.661-0.424-1.011-0.026-0.409 0.114-0.804 0.155-1.207 0.090-0.669-0.258-1.317-0.108-1.986 0.178-0.84-0.059-1.688 0.024-2.533 0.035-0.717 0.318-1.445 0.107-2.158-0.104-0.354-0.083-0.726-0.050-1.090z"></path>
<path fill="#000" d="M21.563 2.546c4.026 0.008 8.053-0.009 12.080-0.042-0.006 0.261-0.006 0.522-0.005 0.784-0.601-0.023-1.201-0.064-1.801-0.086-3.411 0.063-6.825 0.068-10.239 0.045-0.010-0.234-0.022-0.468-0.036-0.702z"></path>
<path fill="#000" d="M22.101 5.174c0.66 0.083 1.324 0.128 1.988 0.158 0.726 0.036 1.469-0.175 2.176 0.066-1.114 0.431-2.378-0.142-3.475 0.323 0.817 0.227 1.669 0.061 2.502 0.121 0.978 0.126 1.795-0.662 2.766-0.58 0.507 0.181 1.062 0.51 1.593 0.196 0.438-0.258 1.228-0.414 1.392 0.234-0.406 0.053-0.807 0.139-1.194 0.272-2.563 0.125-5.15 0.013-7.722 0.049-0.002-0.28-0.004-0.56-0.026-0.839z"></path>
<path fill="#000" d="M31.854 5.651c0.128-0.19 0.28-0.405 0.542-0.375 0.94-0.006 1.881-0.024 2.822-0.010 0.021 0.258 0.045 0.515 0.080 0.772-0.554-0.043-1.11 0.011-1.662-0.059 0.331-0.070 0.648-0.194 0.957-0.331-0.91-0.499-1.827 0.511-2.74 0.004z"></path>
<path fill="#000" d="M5.775 9.766c1.706 0.161 3.412 0.019 5.118-0.056 2.093-0.018 4.185-0.014 6.277 0.043 2.618 0.048 5.234-0.151 7.85-0.057 0.053 0.895 0.046 1.794 0.003 2.688-0.893-0.029-1.794-0.158-2.68 0.037-5.529 0.053-11.053-0.066-16.579 0.041 0.008-0.898-0.018-1.797 0.012-2.695z"></path>
<path fill="#000" d="M26.551 10.903c4.011-0.017 8.030-0.042 12.044-0.022 0 0.234 0 0.467-0.001 0.701-0.713 0.027-1.425 0.021-2.133-0.060-0.557 0.061-1.127 0.131-1.659-0.098-0.21 0.075-0.421 0.161-0.646 0.165-2.527-0.006-5.056 0.017-7.582-0.007-0.007-0.226-0.015-0.452-0.023-0.678z"></path>
<path fill="#000" d="M26.567 13.393c4.472-0.035 8.948-0.022 13.422-0.015 0.012 0.51 0.013 1.022-0.001 1.533-1.298-0.1-2.596 0.018-3.895-0.004-3.174-0.005-6.35 0.010-9.524-0.007-0.013-0.502-0.012-1.005-0.001-1.507z"></path>
<path fill="#000" d="M26.285 18.157c-0.009-0.534-0.075-1.077 0.043-1.604 3.902 0.040 7.806 0.002 11.707 0.015 0.146 0.002 0.283 0.053 0.423 0.091-0.009 0.491-0.004 0.983-0.012 1.474-4.053 0.050-8.108 0.009-12.162 0.024z"></path>
<path fill="#f0f0f0" d="M1.442 1.666c0.029-0.123 0.125-0.213 0.192-0.316 0.058 0.78 0.032 1.561 0.036 2.342-0.033 6.253-0.066 12.509 0.002 18.762-0.207-0.199-0.295-0.474-0.275-0.758-0.003-6.677-0.015-13.355 0.045-20.030z"></path>
<path fill="#b9b9b9" d="M21.455 2.165c3.862-0.059 7.727-0.004 11.59-0.030 0.228 0.002 0.461-0.006 0.685 0.050 0.198 0.456 0.114 0.984 0 1.453-4.086 0.024-8.173 0.022-12.258 0.001-0.095-0.486-0.102-0.985-0.017-1.473M21.522 3.344c0.029 0.030 0.087 0.092 0.115 0.123 3.896 0.018 7.793-0.002 11.69 0.011 0.582 0.048 0.469-0.747 0.318-1.1l0.002-0.105c-4.024-0.004-8.046 0.004-12.069-0.001-0.081 0.352-0.115 0.714-0.056 1.073z"></path>
<path fill="#414141" d="M21.522 3.344c-0.059-0.358-0.025-0.721 0.056-1.073 4.023 0.005 8.046-0.003 12.069 0.001l-0.002 0.105-0.003 0.126c-4.027 0.032-8.055 0.050-12.080 0.042 0.014 0.234 0.026 0.468 0.036 0.702 3.414 0.023 6.828 0.018 10.239-0.045 0.6 0.022 1.2 0.063 1.801 0.086-0.559 0.122-1.132 0.063-1.698 0.057-3.474 0.004-6.946 0.036-10.419-0.001z"></path>
<path fill="#7a797a" d="M33.646 2.378c0.15 0.354 0.263 1.148-0.318 1.1-3.897-0.013-7.794 0.007-11.69-0.011-0.029-0.030-0.087-0.092-0.115-0.123 3.473 0.037 6.945 0.005 10.419 0.001 0.566 0.006 1.138 0.065 1.698-0.057-0.002-0.261-0.002-0.522 0.005-0.784l0.003-0.126z"></path>
<path fill="#c6c6c6" d="M21.782 5.164c0.006-0.296 0.232-0.578 0.551-0.53 4.28 0.004 8.562 0.002 12.842 0.001 0.827-0.074 0.473 1.009 0.503 1.508-4.477 0.068-8.96 0.009-13.439 0.034-0.585 0.077-0.502-0.634-0.457-1.014M22.128 4.768c-0.173 0.405-0.134 0.849-0.131 1.278 0.502 0.143 1.027 0.063 1.542 0.079 3.785 0.014 7.569-0.023 11.354 0.004 0.229-0.004 0.455-0.048 0.679-0.092-0.015-0.442 0.203-1.278-0.489-1.263-4.318-0.015-8.636 0-12.954-0.006z"></path>
<path fill="#666" d="M22.128 4.768c4.318 0.006 8.636-0.008 12.954 0.006 0.692-0.016 0.474 0.821 0.489 1.263-0.224 0.044-0.45 0.089-0.679 0.092-3.785-0.027-7.569 0.010-11.354-0.004-0.514-0.017-1.039 0.064-1.542-0.079-0.003-0.429-0.042-0.873 0.131-1.278M22.206 5.038c-0.027 0.034-0.079 0.102-0.105 0.136 0.022 0.279 0.024 0.559 0.026 0.839 2.573-0.036 5.159 0.076 7.722-0.049 1.26 0.061 2.527 0.040 3.787 0.015 0.551 0.070 1.108 0.016 1.662 0.059 0.161-0.325 0.271-1.146-0.31-1.021-3.294 0.018-6.59-0.011-9.883 0.018-0.963 0.208-1.931-0.138-2.898 0.003z"></path>
<path fill="#a8a8a8" d="M13.924 5.058c0.229-0.279 0.623-0.175 0.938-0.198 2.235 0.042 4.477-0.065 6.707 0.054 0.065 0.418 0.053 0.846-0.238 1.178-0.069 1.010-0.031 2.031-0.011 3.044-0.041 0.008-0.123 0.025-0.164 0.032l-0.038-0.005c0.064-1.073 0.045-2.147 0.055-3.222 0.091-0.074 0.183-0.149 0.274-0.223 0.005-0.228 0.008-0.457 0.011-0.685-2.412-0.006-4.83-0.031-7.238 0.020-1.111 1.182-2.151 2.441-3.233 3.653-0.323 0.325-0.577 0.858-1.105 0.838-1.365-0.002-2.731 0.017-4.096-0.007-0.003 0.056-0.009 0.171-0.012 0.228-0.030 0.898-0.004 1.797-0.012 2.695 0.002 0.801-0.030 1.602 0.010 2.402 0.168 0.068 0.336 0.136 0.508 0.193l-0.113-0.013c-0.169-0.018-0.339-0.027-0.509-0.038-0.141-0.84-0.035-1.697-0.067-2.544 0.031-1.033-0.070-2.072 0.061-3.1 1.379-0.018 2.757 0 4.136-0.008 0.256 0.017 0.477-0.129 0.64-0.313 1.174-1.319 2.317-2.667 3.495-3.982z"></path>
<path fill="#1a1a1a" d="M22.206 5.038c0.967-0.14 1.936 0.205 2.898-0.003 3.294-0.030 6.589-0.001 9.883-0.018 0.582-0.125 0.471 0.696 0.31 1.021-0.035-0.257-0.059-0.514-0.080-0.772-0.941-0.014-1.882 0.004-2.822 0.010-0.262-0.030-0.414 0.185-0.542 0.375 0.913 0.508 1.83-0.503 2.74-0.004-0.309 0.138-0.626 0.261-0.957 0.331-1.26 0.025-2.527 0.046-3.787-0.015 0.388-0.133 0.788-0.22 1.194-0.272-0.164-0.647-0.954-0.492-1.392-0.234-0.531 0.314-1.086-0.015-1.593-0.196-0.971-0.082-1.789 0.706-2.766 0.58-0.834-0.060-1.686 0.106-2.502-0.121 1.098-0.465 2.361 0.108 3.475-0.323-0.707-0.242-1.45-0.030-2.176-0.066-0.665-0.030-1.328-0.075-1.988-0.158 0.026-0.033 0.078-0.102 0.105-0.136z"></path>
<path fill="#020202" d="M10.987 8.707c1.082-1.212 2.121-2.471 3.233-3.653 2.408-0.052 4.826-0.027 7.238-0.020-0.003 0.228-0.006 0.457-0.011 0.685-0.249 0-0.498-0.002-0.748-0.005 0.32 1.005 0.168 2.091 0.133 3.128-0.209-0.014-0.417-0.027-0.625-0.041-0.017-1.018 0.013-2.036-0.021-3.054-0.847-0.12-1.703-0.029-2.554-0.059-0.355 0.002-0.805-0.045-1.007 0.319-0.627 0.925-1.257 1.85-1.882 2.777-1.036 0.098-2.076 0.073-3.114 0.082-0.225 0.003-0.436-0.080-0.641-0.161z"></path>
<path fill="#020202" d="M25.51 7.602c4.091-0.113 8.188-0.030 12.281-0.053 0.016 0.508 0.016 1.016-0.001 1.523-3.331-0.038-6.67 0.016-10.005-0.005-0.757-0.026-1.522 0.063-2.273-0.065 0.007-0.467 0.007-0.934-0.002-1.401z"></path>
<path fill="#232323" d="M20.699 5.715c0.249 0.003 0.498 0.005 0.748 0.005-0.091 0.075-0.183 0.15-0.274 0.223-0.010 1.075 0.008 2.15-0.055 3.222 0.007 0.114 0.017 0.227 0.028 0.341 1.31 0.086 2.624-0.067 3.934 0.039 0.103 0.964 0.078 1.938 0.021 2.903-0.853 0.135-1.717 0.043-2.575 0.083-2.893 0.041-5.786 0.023-8.679 0.017-0.474-0.009-0.943 0.064-1.409 0.146-0.591-0.107-1.194-0.118-1.785-0.008-0.495-0.123-1.005-0.17-1.515-0.136-1.021 0.054-2.045-0.038-3.066 0.046 0.42 0.085 0.842 0.162 1.257 0.269-0.421 0.139-0.854 0.24-1.286 0.338 0.808-0.102 1.629 0.177 2.158 0.806 0.259-0.188 0.536-0.353 0.83-0.481-0.021 0.167-0.042 0.335-0.075 0.501-0.213 0.434-0.287 0.912-0.323 1.389-0.976-0.072-1.882-0.515-2.861-0.554-0.040-0.8-0.008-1.601-0.010-2.402 5.526-0.106 11.050 0.012 16.579-0.041 0.885-0.195 1.787-0.066 2.68-0.037 0.043-0.894 0.050-1.793-0.003-2.688-2.616-0.094-5.232 0.105-7.85 0.057-2.092-0.057-4.184-0.061-6.277-0.043-1.706 0.076-3.412 0.217-5.118 0.056 0.003-0.057 0.009-0.172 0.012-0.228 1.364 0.024 2.73 0.006 4.096 0.007 0.528 0.019 0.782-0.513 1.105-0.838 0.205 0.080 0.415 0.163 0.641 0.161 1.038-0.009 2.079 0.016 3.114-0.082-0.135 0.204-0.201 0.606 0.15 0.606 1.581 0.179 3.181 0.179 4.77 0.13 0.409 0.023 0.583-0.366 0.545-0.719 0.208 0.014 0.416 0.027 0.625 0.041 0.035-1.038 0.187-2.123-0.133-3.128z"></path>
<path fill="#626262" d="M16.625 6.009c0.202-0.365 0.652-0.318 1.007-0.319 0.851 0.030 1.707-0.061 2.554 0.059 0.034 1.017 0.005 2.035 0.021 3.054 0.039 0.353-0.136 0.742-0.545 0.719-1.59 0.049-3.189 0.049-4.77-0.13-0.351 0.001-0.284-0.402-0.15-0.606 0.625-0.927 1.255-1.852 1.882-2.777M16.971 5.872c-0.202 0.283-0.412 0.562-0.572 0.871-0.386 0.353-0.614 0.832-0.917 1.25-0.237 0.386-0.594 0.714-0.688 1.172 1.755 0.037 3.512 0.043 5.267 0.003 0.024-1.084 0.002-2.168 0.012-3.252-0.098-0.019-0.195-0.039-0.292-0.057-0.937 0.014-1.874 0-2.811 0.013z"></path>
<path fill="#d3d3d3" d="M19.782 5.859c0.097 0.018 0.194 0.038 0.292 0.057-0.010 1.084 0.012 2.168-0.012 3.252-1.755 0.041-3.512 0.034-5.267-0.003 0.093-0.459 0.45-0.786 0.688-1.172 0.303-0.418 0.531-0.897 0.917-1.25-0.38 0.827-1.004 1.504-1.461 2.286 1.63 0.016 3.26 0.031 4.89-0.003-0.004-1.055 0.042-2.114-0.045-3.167z"></path>
<path fill="#a0a0a0" d="M25.338 7.432c4.014-0.072 8.031-0.004 12.045-0.035 0.224 0.015 0.497-0.034 0.671 0.141 0.054 0.509 0.054 1.030-0.001 1.539-0.122 0.134-0.314 0.131-0.479 0.138-4.048-0.009-8.095 0.007-12.142-0.007 0.024 2.101 0.018 4.203 0.003 6.304 0.040 0.253-0.202 0.354-0.415 0.325-3.556-0.006-7.111 0.016-10.667-0.012-0.231 0.416-0.235 0.934-0.563 1.299-0.605 0.768-1.582 1.345-2.586 1.186-0.838-0.171-1.637-0.655-2.070-1.41-0.197-0.329-0.199-0.74-0.42-1.055-0.788-0.421-1.801-0.324-2.547-0.801l0.113 0.013c0.851 0.112 1.651 0.48 2.515 0.505 0.012-0.397-0.039-0.82 0.169-1.18 0.093 1.012-0.219 2.274 0.745 2.974 0.96 0.926 2.714 0.974 3.658-0.003 0.927-0.678 0.695-1.906 0.709-2.897l0.162-0.003c0.020 0.399 0.033 0.798 0.033 1.196 0.128 0.015 0.256 0.030 0.384 0.042 3.536 0.018 7.074 0.046 10.611-0.031 0.019-0.166 0.042-0.331 0.055-0.498-0.093-1.956 0.11-3.921-0.083-5.872-1.359-0.091-2.742 0.126-4.084-0.122 0.042-0.007 0.124-0.024 0.164-0.032 1.326-0.114 2.668-0.016 3.999-0.045 0.015-0.554-0.003-1.108 0.020-1.661M25.386 7.55c-0.028 0.522-0.036 1.044 0.022 1.564 3.928 0.087 7.862 0.006 11.791 0.037 0.246 0.009 0.489-0.029 0.729-0.081 0.008-0.508 0.009-1.016 0.002-1.524-0.21-0.043-0.423-0.084-0.638-0.086-3.446 0.016-6.893-0.005-10.339 0.011-0.522 0.019-1.053-0.046-1.567 0.079z"></path>
<path fill="#303030" d="M21.117 9.165l0.038 0.005c1.342 0.247 2.725 0.030 4.084 0.122 0.193 1.95-0.010 3.916 0.083 5.872-0.166 0.202-0.394 0.343-0.666 0.307-0.978-0.032-1.964 0.088-2.936-0.072-0.963-0.247-1.925 0.050-2.888 0.088-1.468-0.031-2.938 0.046-4.403-0.044-0.019-0.158-0.030-0.317-0.042-0.475 0.388 0.587 1.123 0.282 1.681 0.195 0.947-0.234 1.87 0.294 2.82 0.117 2.034-0.361 4.118 0.14 6.145-0.041 0.158-0.574 0.064-1.23-0.013-1.828-0.416 0.017-0.938-0.155-1.255 0.2-0.562 0.625-1.48 0.659-2.259 0.61-0.438 0.018-0.599-0.517-1.014-0.567-0.487-0.090-0.985 0.045-1.471-0.036-1.618-0.71-3.426-0.025-5.121-0.272-0.027 0.064-0.082 0.191-0.11 0.255-0.069-0.055-0.139-0.11-0.21-0.163-0.346-0.295-0.714-0.576-1.142-0.744 0.465-0.082 0.934-0.155 1.409-0.146 2.893 0.006 5.786 0.024 8.679-0.017 0.858-0.040 1.722 0.052 2.575-0.083 0.056-0.966 0.082-1.939-0.021-2.903-1.31-0.106-2.624 0.047-3.934-0.039-0.011-0.114-0.020-0.227-0.028-0.341z"></path>
<path fill="#5b5b5b" d="M26.445 10.754c4.092-0.016 8.185-0.023 12.277 0 0.016 0.368 0.010 0.737-0.012 1.104-4.084 0.016-8.168 0.017-12.252 0.001-0.025-0.368-0.030-0.737-0.013-1.105M26.551 10.903c0.008 0.226 0.016 0.452 0.023 0.678 2.526 0.024 5.055 0.001 7.582 0.007 0.225-0.005 0.437-0.090 0.646-0.165 0.532 0.229 1.102 0.159 1.659 0.098 0.708 0.081 1.421 0.087 2.133 0.060 0.001-0.234 0.001-0.467 0.001-0.701-4.014-0.020-8.034 0.006-12.044 0.022z"></path>
<path fill="#353535" d="M6.072 12.595c1.021-0.084 2.045 0.007 3.066-0.046 0.51-0.034 1.020 0.013 1.515 0.136-0.422 0.191-0.822 0.438-1.163 0.756-0.194 0.179-0.377 0.373-0.533 0.587 0.032-0.166 0.054-0.334 0.075-0.501-0.294 0.128-0.57 0.293-0.83 0.481-0.529-0.629-1.35-0.908-2.158-0.806 0.432-0.098 0.865-0.198 1.286-0.338-0.415-0.107-0.837-0.184-1.257-0.269z"></path>
<path fill="#bebebe" d="M10.652 12.685c0.592-0.11 1.194-0.099 1.785 0.008 0.427 0.168 0.796 0.449 1.142 0.744 0.211 0.304 0.421 0.63 0.422 1.014-0.555-0.807-1.426-1.512-2.462-1.432-1.039-0.086-1.961 0.613-2.436 1.492-0.070-0.404 0.155-0.761 0.386-1.071 0.341-0.318 0.741-0.565 1.163-0.756M10.583 12.878c0.633 0.078 1.279 0.078 1.913-0.002-0.634-0.075-1.278-0.082-1.913 0.002z"></path>
<path fill="#eaeaea" d="M10.583 12.878c0.634-0.084 1.278-0.077 1.913-0.002-0.633 0.080-1.279 0.080-1.913 0.002z"></path>
<path fill="#616161" d="M9.103 14.512c0.475-0.879 1.397-1.578 2.436-1.492 1.036-0.080 1.907 0.625 2.462 1.432-0.001-0.384-0.21-0.711-0.422-1.014 0.070 0.054 0.14 0.108 0.21 0.163 0.333 0.378 0.611 0.846 0.597 1.366 0.012 0.159 0.023 0.318 0.042 0.475 0.072 0.087 0.15 0.168 0.227 0.25-0.128-0.012-0.256-0.028-0.384-0.042 0-0.399-0.013-0.798-0.033-1.196l-0.162 0.003c-0.014 0.99 0.218 2.219-0.709 2.897 0.125-0.216 0.24-0.436 0.356-0.656 0.107-0.202 0.186-0.419 0.234-0.642 0.020-0.25 0.027-0.502 0.025-0.753-0.009-0.906-0.701-1.775-1.602-1.938-1.385-0.736-3.27 0.423-3.292 1.98-0.091 0.738 0.193 1.427 0.62 2.013-0.964-0.7-0.652-1.962-0.745-2.974-0.208 0.36-0.157 0.783-0.169 1.18-0.864-0.025-1.664-0.393-2.515-0.505-0.172-0.057-0.34-0.125-0.508-0.193 0.978 0.039 1.885 0.482 2.861 0.554 0.036-0.477 0.11-0.955 0.323-1.389 0.156-0.214 0.339-0.408 0.533-0.587-0.231 0.31-0.456 0.666-0.386 1.071z"></path>
<path fill="#1d1d1d" d="M9.090 15.342c0.021-1.557 1.907-2.716 3.292-1.98 0.902 0.163 1.593 1.033 1.602 1.938-0.946 0.034-1.89-0.306-2.823-0.027-0.692-0.016-1.388-0.149-2.071 0.068z"></path>
<path fill="#656565" d="M26.446 13.252c4.554-0.014 9.109-0.018 13.663 0 0.029 0.614 0.026 1.229-0.003 1.842-0.402 0.136-0.83 0.080-1.245 0.087-4.102 0.004-8.205-0.006-12.307 0.006-0.248-0.61-0.085-1.293-0.108-1.934M26.567 13.393c-0.011 0.502-0.012 1.005 0.001 1.507 3.174 0.018 6.35 0.003 9.524 0.007 1.3 0.021 2.598-0.096 3.895 0.004 0.014-0.511 0.013-1.023 0.001-1.533-4.473-0.007-8.949-0.020-13.422 0.015z"></path>
<path fill="#161616" d="M13.899 13.346c1.696 0.247 3.503-0.438 5.121 0.272 0.486 0.081 0.984-0.054 1.471 0.036 0.414 0.050 0.575 0.584 1.014 0.567 0.779 0.049 1.697 0.015 2.259-0.61 0.318-0.355 0.839-0.184 1.255-0.2 0.077 0.597 0.171 1.254 0.013 1.828-2.027 0.181-4.11-0.32-6.145 0.041-0.95 0.177-1.873-0.351-2.82-0.117-0.558 0.087-1.293 0.392-1.681-0.195 0.014-0.521-0.264-0.988-0.597-1.366 0.028-0.064 0.083-0.191 0.11-0.255M20.93 14.389c-0.276 0.103-0.685 0.239-0.611 0.61 1.020-0.006 2.071 0.087 3.070-0.144-0.226-0.284-0.613-0.257-0.934-0.329-0.502-0.078-1.015-0.245-1.525-0.138z"></path>
<path fill="#363636" d="M20.93 14.389c0.51-0.107 1.023 0.060 1.525 0.138 0.321 0.072 0.708 0.044 0.934 0.329-0.999 0.231-2.050 0.138-3.070 0.144-0.074-0.371 0.335-0.507 0.611-0.61z"></path>
<path fill="#2b2b2b" d="M9.090 15.342c0.683-0.217 1.379-0.084 2.071-0.068 0.932-0.279 1.877 0.061 2.823 0.027 0.002 0.251-0.005 0.503-0.025 0.753-0.539 0.037-1.074 0.293-1.614 0.133-0.338-0.095-0.69-0.084-1.028 0.001 0.709 0.491 1.59 0.44 2.408 0.509-0.116 0.221-0.232 0.44-0.356 0.656-0.944 0.977-2.698 0.929-3.658 0.003-0.427-0.586-0.712-1.276-0.62-2.013z"></path>
<path fill="#535353" d="M24.656 15.471c0.271 0.036 0.499-0.105 0.666-0.307-0.014 0.166-0.036 0.331-0.055 0.498-3.536 0.078-7.074 0.049-10.611 0.031-0.078-0.082-0.155-0.163-0.227-0.25 1.465 0.090 2.935 0.013 4.403 0.044 0.964-0.038 1.926-0.335 2.888-0.088 0.972 0.16 1.958 0.040 2.936 0.072z"></path>
<path fill="#050505" d="M11.316 16.188c0.338-0.085 0.69-0.096 1.028-0.001 0.54 0.16 1.075-0.096 1.614-0.133-0.048 0.223-0.127 0.44-0.234 0.642-0.818-0.068-1.699-0.018-2.408-0.509z"></path>
<path fill="#959595" d="M26.184 16.306c4.012-0.025 8.024-0.002 12.036-0.012 0.183-0.006 0.462 0.006 0.485 0.243 0.033 0.534 0.039 1.075-0.002 1.611-0.040 0.216-0.32 0.169-0.482 0.189-4.016-0.012-8.034 0.023-12.051-0.016-0.052-0.671-0.058-1.346 0.014-2.015M26.285 18.157c4.053-0.015 8.108 0.026 12.162-0.024 0.008-0.491 0.003-0.983 0.012-1.474-0.139-0.039-0.277-0.090-0.423-0.091-3.902-0.013-7.806 0.025-11.707-0.015-0.118 0.527-0.053 1.071-0.043 1.604z"></path>
<path fill="#ececec" d="M44.516 23.836c0.772-0.214 1.374-0.93 1.453-1.729v1.893h-43.63l-0.167-0.079c11.303-0.042 22.613-0.050 33.921-0.044 2.058 0.112 4.122 0.034 6.184 0.057 0.746-0.006 1.501 0.040 2.239-0.098z"></path>
<path fill="#acacac" d="M0 22.831c0.277 0.448 0.598 0.883 1.050 1.169h-1.050v-1.169z"></path>
<path fill="#4b4b4b" d="M7.798 23.043c4.426-0.018 8.854-0.027 13.28 0.004 0.259 0.082 0.522 0.168 0.798 0.162 1.265-0.013 2.531-0.021 3.796-0.008 0.24-0.026 0.358 0.208 0.5 0.354 2.814 0.053 5.629 0.005 8.443 0.024 0.664 0.023 1.354-0.107 1.991 0.14-4.914 0.046-9.832 0.043-14.745-0.003-0.306-0.17-0.652-0.24-1.001-0.213-1.969 0.031-3.939-0.006-5.908 0.020-0.642 0.066-1.206-0.356-1.846-0.298-1.477 0.029-2.954-0.001-4.431 0.022-0.307 0.015-0.602-0.082-0.879-0.204z"></path>
<path fill="#141414" d="M1.858 23.704c0.188-0.127 0.39-0.261 0.629-0.254 3.54-0.002 7.081 0.019 10.621 0.001 2.823 0.43 5.701 0.021 8.54 0.261-5.706 0.085-11.417 0.029-17.125 0.047-0.888-0.023-1.782 0.059-2.665-0.055z"></path>
</svg>
