<!-- Generated by IcoMoon.io -->
<svg version="1.1" xmlns="http://www.w3.org/2000/svg" width="34" height="24" viewBox="0 0 34 24">
<title>complementary--go-straight-or-turn-left--g1</title>
<path fill="#fffffe" d="M2.834 0h27.784l0.057 0.062c-0.585-0.039-1.171-0.024-1.756-0.027-8.133 0.001-16.266 0.001-24.399 0-0.586 0.003-1.173-0.012-1.758 0.025l0.072-0.060z"></path>
<path fill="#fffffe" d="M2.437 0.125c0.060-0.076 0.135-0.093 0.225-0.053-0.064 0.070-0.139 0.087-0.225 0.053z"></path>
<path fill="#fffffe" d="M30.773 0.074c0.086-0.037 0.162-0.025 0.227 0.038-0.082 0.051-0.158 0.039-0.227-0.038z"></path>
<path fill="#fffffe" d="M2.17 0.203c0.052-0.084 0.126-0.106 0.221-0.066-0.060 0.068-0.134 0.090-0.221 0.066z"></path>
<path fill="#fffffe" d="M31.041 0.147c0.084-0.042 0.16-0.032 0.228 0.031-0.085 0.051-0.161 0.041-0.228-0.031z"></path>
<path fill="#fffffe" d="M2.948 0.295c0.346-0.042 0.694-0.025 1.041-0.027 8.576 0 17.152 0 25.729 0 0.578-0.004 1.183 0.015 1.711 0.276 1.12 0.507 1.912 1.74 1.812 2.98-0.001 5.829 0.001 11.659-0.001 17.488-0.116 1.502-1.469 2.809-2.993 2.8-8.974 0.009-17.947 0.001-26.922 0.004-1.642 0.086-3.159-1.367-3.147-3.006 0.007-5.916-0.001-11.832 0.004-17.749 0.12-1.411 1.33-2.687 2.767-2.767M2.945 0.824c-1.306 0.106-2.346 1.409-2.248 2.7 0.005 5.806 0 11.611 0.007 17.416 0.060 0.923 0.708 1.773 1.552 2.135 0.499 0.222 1.062 0.232 1.6 0.223 8.797-0.002 17.594-0.001 26.392-0.005 1.341-0.008 2.464-1.237 2.474-2.552-0.003-5.872 0.001-11.744-0.007-17.616-0.093-1.297-1.308-2.355-2.6-2.338-8.708-0.003-17.418-0.001-26.126-0.001-0.348 0.005-0.699-0.021-1.044 0.038z"></path>
<path fill="#fffffe" d="M1.428 0.544c0.035-0.022 0.104-0.066 0.139-0.088-0.035 0.022-0.104 0.066-0.139 0.088z"></path>
<path fill="#fffffe" d="M31.937 0.525c0.035 0.022 0.106 0.066 0.142 0.088-0.035-0.022-0.106-0.066-0.142-0.088z"></path>
<path fill="#fffffe" d="M32.131 0.673c0.039 0.018 0.114 0.053 0.152 0.070-0.038-0.017-0.114-0.053-0.152-0.070z"></path>
<path fill="#fffffe" d="M1.009 0.827c0.036-0.024 0.108-0.071 0.144-0.095-0.036 0.024-0.108 0.071-0.144 0.095z"></path>
<path fill="#fffffe" d="M0.802 1.088c0.023-0.037 0.068-0.109 0.090-0.146-0.023 0.037-0.068 0.109-0.090 0.146z"></path>
<path fill="#fffffe" d="M0.396 1.627c0.023-0.035 0.071-0.104 0.095-0.139-0.024 0.035-0.072 0.104-0.095 0.139z"></path>
<path fill="#fffffe" d="M3.019 1.764c0.233-0.033 0.469-0.029 0.704-0.028 8.822 0.002 17.643 0.001 26.464 0.004 0.816-0.007 1.549 0.701 1.583 1.512 0.002 5.807-0.003 11.615-0.001 17.423 0.049 0.789-0.596 1.576-1.39 1.644-0.22 0.032-0.441 0.027-0.662 0.026-8.82-0.001-17.64-0.001-26.46-0.002-0.832 0.017-1.588-0.707-1.607-1.536-0.001-5.806 0.003-11.612 0.001-17.418-0.042-0.777 0.59-1.542 1.368-1.626M18.388 9.548c-0.315 0.414 0.126 1.076 0.629 0.962 0.73-0.162 1.431-0.439 2.158-0.615 0.002 2.425 0.003 4.851-0.001 7.276-2.843-1.922-5.677-3.86-8.51-5.796 0.584-0.473 1.207-0.901 1.774-1.395 0.388-0.346 0.095-1.055-0.418-1.050-2.697-0.1-5.396-0.162-8.094-0.244 0.927 2.532 1.856 5.064 2.786 7.594 0.179 0.507 0.937 0.517 1.173 0.049 0.245-0.7 0.484-1.403 0.725-2.105 3.282 2.198 6.549 4.42 9.823 6.63 0.051 0.041 0.108 0.062 0.174 0.064 1.353 0.003 2.706-0.006 4.059 0.002 0.034-3.678 0.001-7.358 0.012-11.037 0.706 0.196 1.4 0.435 2.111 0.612 0.508 0.164 0.992-0.507 0.681-0.935-1.51-2.24-3.026-4.476-4.542-6.712-1.519 2.229-3.028 4.466-4.539 6.7z"></path>
<path fill="#fffffe" d="M0 2.405l0.050-0.024c0.058 0.090 0.042 0.157-0.050 0.201v-0.177z"></path>
<path fill="#fffffe" d="M33.389 2.439c0.069 0.062 0.084 0.139 0.043 0.227-0.070-0.066-0.085-0.143-0.043-0.227z"></path>
<path fill="#fffffe" d="M33.451 2.762l0.056 0.073v18.483l-0.063 0.046c0.020-0.206 0.033-0.414 0.030-0.62-0.019-5.993 0.025-11.989-0.023-17.981z"></path>
<path fill="#fffffe" d="M33.396 21.633c-0.051-0.084-0.038-0.16 0.037-0.225 0.039 0.084 0.026 0.159-0.037 0.225z"></path>
<path fill="#fffffe" d="M0.117 21.903c0.114 0.156 0.201 0.329 0.253 0.515-0.119-0.152-0.209-0.326-0.253-0.515z"></path>
<path fill="#fffffe" d="M33.027 22.437c0.023-0.035 0.068-0.103 0.092-0.137-0.023 0.034-0.069 0.102-0.092 0.137z"></path>
<path fill="#fffffe" d="M1.080 23.315c0.038 0.019 0.114 0.058 0.152 0.077-0.038-0.019-0.114-0.058-0.152-0.077z"></path>
<path fill="#fffffe" d="M1.296 23.453c0.035 0.022 0.106 0.065 0.142 0.087-0.036-0.022-0.107-0.065-0.142-0.087z"></path>
<path fill="#fffffe" d="M31.869 23.612c0.035-0.021 0.104-0.065 0.138-0.087-0.035 0.022-0.104 0.066-0.138 0.087z"></path>
<path fill="#fffffe" d="M1.585 23.63c0.181 0.059 0.36 0.133 0.515 0.247-0.193-0.029-0.364-0.128-0.515-0.247z"></path>
<path fill="#fffffe" d="M2.111 23.884c0.082-0.051 0.154-0.035 0.215 0.049-0.084 0.033-0.156 0.016-0.215-0.049z"></path>
<path fill="#fffffe" d="M31.108 23.922c0.068-0.071 0.144-0.083 0.228-0.035-0.066 0.065-0.143 0.077-0.228 0.035z"></path>
<path fill="#fffffe" d="M30.853 24c0.052-0.090 0.12-0.107 0.206-0.051l-0.024 0.051h-0.182z"></path>
<path fill="#1a1919" d="M2.663 0.072c0.025-0.003 0.074-0.009 0.1-0.012 0.585-0.037 1.172-0.021 1.758-0.025 8.133 0.001 16.265 0.001 24.399 0 0.585 0.003 1.171-0.013 1.756 0.027 0.025 0.003 0.073 0.009 0.098 0.011 0.070 0.076 0.146 0.088 0.227 0.038l0.041 0.035c0.067 0.072 0.143 0.082 0.228 0.031 0.059 0.031 0.117 0.062 0.176 0.094 0.038 0.013 0.114 0.040 0.152 0.053 0.114 0.065 0.227 0.131 0.34 0.2 0.035 0.022 0.106 0.066 0.142 0.088 0.013 0.015 0.040 0.045 0.053 0.060 0.039 0.018 0.114 0.053 0.152 0.070 0.378 0.32 0.67 0.732 0.897 1.169 0.013 0.037 0.040 0.11 0.053 0.147 0.033 0.060 0.065 0.12 0.098 0.18 0.006 0.040 0.017 0.12 0.023 0.16l0.035 0.039c-0.043 0.084-0.028 0.161 0.043 0.227 0.005 0.024 0.015 0.072 0.019 0.096 0.048 5.993 0.004 11.988 0.023 17.981 0.003 0.207-0.010 0.414-0.030 0.62l-0.011 0.045c-0.075 0.065-0.088 0.14-0.037 0.225-0.030 0.080-0.060 0.161-0.090 0.242-0.011 0.039-0.032 0.116-0.043 0.154-0.047 0.091-0.095 0.181-0.144 0.271-0.023 0.034-0.069 0.102-0.092 0.137-0.241 0.438-0.563 0.858-1.019 1.088-0.035 0.022-0.104 0.066-0.138 0.087-0.17 0.106-0.35 0.194-0.533 0.275-0.084-0.048-0.16-0.036-0.228 0.035l-0.049 0.027c-0.086-0.056-0.154-0.039-0.206 0.051h-28.331c-0.034-0.015-0.102-0.045-0.136-0.060l-0.060-0.007c-0.060-0.084-0.132-0.1-0.215-0.049l-0.011-0.007c-0.155-0.114-0.334-0.187-0.515-0.247-0.049-0.030-0.098-0.060-0.146-0.090-0.036-0.022-0.107-0.065-0.142-0.087-0.016-0.015-0.048-0.046-0.064-0.061-0.038-0.019-0.114-0.058-0.152-0.077-0.293-0.248-0.515-0.568-0.711-0.896-0.051-0.186-0.138-0.36-0.253-0.515-0.039-0.093-0.079-0.187-0.117-0.281v-19.040c0.092-0.044 0.108-0.11 0.050-0.201l0.033-0.048c0.007-0.040 0.022-0.12 0.029-0.16 0.083-0.188 0.174-0.373 0.284-0.547 0.023-0.035 0.071-0.104 0.095-0.139 0.086-0.146 0.187-0.284 0.311-0.4 0.023-0.037 0.068-0.109 0.090-0.146 0.039-0.039 0.078-0.077 0.117-0.115 0.036-0.024 0.108-0.071 0.144-0.095 0.084-0.073 0.176-0.136 0.275-0.187 0.035-0.022 0.104-0.066 0.139-0.088 0.13-0.081 0.267-0.151 0.406-0.213 0.039-0.009 0.118-0.027 0.158-0.036l0.039-0.005c0.087 0.025 0.16 0.003 0.221-0.066l0.047-0.012c0.086 0.035 0.162 0.017 0.225-0.053M2.948 0.295c-1.437 0.080-2.647 1.356-2.767 2.767-0.005 5.916 0.003 11.832-0.004 17.749-0.011 1.639 1.505 3.091 3.147 3.006 8.974-0.003 17.948 0.005 26.922-0.004 1.524 0.009 2.877-1.298 2.993-2.8 0.003-5.829 0-11.659 0.001-17.488 0.1-1.24-0.691-2.473-1.812-2.98-0.529-0.261-1.134-0.28-1.711-0.276-8.576 0-17.152 0-25.729 0-0.347 0.003-0.695-0.015-1.041 0.027z"></path>
<path fill="#1a1919" d="M2.945 0.824c0.345-0.059 0.695-0.033 1.044-0.038 8.708 0.001 17.418-0.002 26.126 0.001 1.292-0.017 2.507 1.040 2.6 2.338 0.008 5.872 0.003 11.745 0.007 17.616-0.009 1.315-1.133 2.544-2.474 2.552-8.798 0.004-17.595 0.003-26.392 0.005-0.538 0.009-1.102-0.001-1.6-0.223-0.844-0.362-1.492-1.212-1.552-2.135-0.007-5.805-0.002-11.61-0.007-17.416-0.098-1.291 0.942-2.593 2.248-2.7M3.019 1.764c-0.778 0.084-1.409 0.849-1.368 1.626 0.002 5.806-0.002 11.612-0.001 17.418 0.019 0.829 0.775 1.553 1.607 1.536 8.82 0.001 17.64 0.001 26.46 0.002 0.221 0.001 0.442 0.006 0.662-0.026 0.794-0.068 1.439-0.855 1.39-1.644-0.003-5.808 0.003-11.616 0.001-17.423-0.034-0.811-0.767-1.519-1.583-1.512-8.822-0.003-17.643-0.002-26.464-0.004-0.235-0.001-0.471-0.005-0.704 0.028z"></path>
<path fill="#1a1919" d="M18.388 9.548c1.511-2.234 3.020-4.471 4.539-6.7 1.516 2.236 3.032 4.472 4.542 6.712 0.311 0.428-0.173 1.1-0.681 0.935-0.711-0.178-1.405-0.416-2.111-0.612-0.011 3.679 0.022 7.36-0.012 11.037-1.354-0.008-2.706 0.001-4.059-0.002-0.065-0.002-0.122-0.023-0.174-0.064-3.274-2.21-6.541-4.432-9.823-6.63-0.241 0.702-0.48 1.405-0.725 2.105-0.236 0.467-0.994 0.458-1.173-0.049-0.931-2.53-1.859-5.063-2.786-7.594 2.698 0.082 5.397 0.144 8.094 0.244 0.513-0.005 0.805 0.705 0.418 1.050-0.566 0.494-1.189 0.921-1.774 1.395 2.833 1.936 5.667 3.874 8.51 5.796 0.004-2.426 0.003-4.851 0.001-7.276-0.727 0.176-1.428 0.453-2.158 0.615-0.503 0.114-0.944-0.548-0.629-0.962z"></path>
<path fill="#cdcdcd" d="M1.973 0.244c0.039-0.009 0.118-0.027 0.158-0.036-0.039 0.009-0.118 0.027-0.158 0.036z"></path>
<path fill="#dadada" d="M31.445 0.272c0.038 0.013 0.114 0.040 0.152 0.053-0.038-0.013-0.114-0.040-0.152-0.053z"></path>
<path fill="#d9d9d9" d="M33.18 1.913l0.053 0.024c0 0.031 0 0.092 0 0.123-0.013-0.037-0.039-0.11-0.053-0.147z"></path>
<path fill="#c9c8c8" d="M0.082 2.334c0.007-0.040 0.022-0.12 0.029-0.16-0.007 0.040-0.022 0.12-0.029 0.16z"></path>
<path fill="#cfcfcf" d="M33.331 2.24c0.006 0.040 0.017 0.12 0.023 0.16-0.006-0.040-0.017-0.12-0.023-0.16z"></path>
<path fill="#c8c8c8" d="M33.263 22.029c0.011-0.039 0.032-0.116 0.043-0.154-0.011 0.039-0.032 0.116-0.043 0.154z"></path>
<path fill="#bfbfbf" d="M2.386 23.94c0.034 0.015 0.102 0.045 0.136 0.060h-0.118l-0.018-0.060z"></path>
</svg>
