<!-- Generated by IcoMoon.io -->
<svg version="1.1" xmlns="http://www.w3.org/2000/svg" width="24" height="24" viewBox="0 0 24 24">
<title>complementary--maximum-speed-limit-60--g1</title>
<path fill="#ffd033" d="M1.741 0h20.509c0.91 0.113 1.627 0.889 1.75 1.784v20.382c-0.079 0.956-0.902 1.741-1.846 1.834h-20.297c-0.935-0.1-1.728-0.836-1.858-1.774v-20.44c0.118-0.89 0.838-1.672 1.741-1.787M1.968 0.326c-0.982 0.132-1.716 1.098-1.669 2.072 0.005 6.476-0.006 12.954 0.006 19.432-0.010 1.044 0.919 1.98 1.968 1.956 6.524 0.006 13.050 0.007 19.574-0.001 1.085 0.017 2.011-0.985 1.951-2.062 0.004-6.442 0.002-12.884 0.001-19.326 0.066-1.123-0.932-2.176-2.070-2.098-6.587 0.017-13.177-0.037-19.762 0.026z"></path>
<path fill="#ffd033" d="M1.847 1.028c6.624-0.090 13.258-0.012 19.885-0.040 0.666-0.078 1.326 0.475 1.266 1.164 0.002 6.565 0.002 13.13 0 19.696 0.040 0.629-0.524 1.184-1.15 1.158-6.565 0.006-13.132 0.006-19.698 0-0.624 0.028-1.189-0.529-1.148-1.158-0.002-6.565-0.002-13.13 0-19.694-0.038-0.52 0.331-1.026 0.845-1.126M5.081 5.796c-1.087 1.999-1.163 4.445-0.713 6.636 0.389 1.915 2.495 3.152 4.366 2.648 2.474-0.467 3.486-3.799 2.101-5.76-1.256-1.645-4.118-1.742-5.327 0.013 0.064-1.226 0.254-2.593 1.18-3.488 1.056-1.036 3.103-0.418 3.206 1.13 0.444 0.025 0.889 0.019 1.333 0.010-0.064-0.95-0.511-1.957-1.363-2.443-1.606-0.784-3.884-0.413-4.783 1.254M15.528 4.264c-1.655 0.238-2.552 1.906-2.807 3.408-0.318 2.028-0.358 4.296 0.752 6.103 1.097 1.813 4.063 1.898 5.29 0.188 0.992-1.346 1.159-3.102 1.139-4.723-0.035-1.386-0.239-2.881-1.163-3.977-0.773-0.912-2.070-1.195-3.211-1M6.602 17.192c-0.004 1.279-0.005 2.558 0.001 3.838 0.247 0 0.494 0 0.742-0.001 0.013-1.042 0.001-2.083 0.006-3.126 0.25 1.042 0.461 2.092 0.713 3.131 0.253-0.001 0.505-0.004 0.758-0.007 0.244-1.043 0.469-2.090 0.712-3.133 0.016 1.045-0.004 2.090 0.010 3.136 0.248 0.001 0.496 0.001 0.744 0.001 0.005-1.279 0.004-2.558 0.001-3.838-0.382-0.005-0.764-0.005-1.146 0-0.234 1.002-0.458 2.006-0.694 3.008-0.226-1.003-0.46-2.005-0.69-3.007-0.386-0.006-0.772-0.006-1.157-0.001M11.042 17.191c-0.005 1.27-0.004 2.539 0 3.809 0.269 0.001 0.538 0 0.808-0.001-0.001-0.448 0-0.895 0.004-1.343 0.45-0.012 0.908 0.020 1.35-0.084 1.076-0.252 1.013-2.152-0.090-2.326-0.684-0.11-1.381-0.037-2.071-0.055M14.551 17.191c-0.002 1.279-0.005 2.558 0.001 3.838 0.268 0.002 0.536 0.002 0.804 0.001 0.008-0.57 0-1.139 0.005-1.708 0.488-0.005 0.977-0.006 1.465 0.001 0.007 0.569-0.001 1.136 0.006 1.705 0.269 0.002 0.536 0.002 0.804 0.001 0.006-1.28 0.006-2.561 0-3.84-0.269-0.001-0.536 0-0.805 0.001-0.002 0.488 0 0.976-0.005 1.464-0.488 0.007-0.976 0.007-1.463 0.002-0.005-0.49-0.002-0.979-0.006-1.468-0.269-0.001-0.538 0-0.806 0.001z"></path>
<path fill="#ffd033" d="M15.88 5.45c0.772-0.151 1.68 0.139 2.018 0.898 0.61 1.382 0.593 2.94 0.52 4.42-0.091 0.956-0.206 2.044-0.966 2.724-0.809 0.757-2.28 0.592-2.816-0.409-0.754-1.384-0.686-3.042-0.592-4.567 0.115-1.186 0.45-2.806 1.836-3.065z"></path>
<path fill="#ffd033" d="M7.732 9.281c0.584-0.026 1.241 0.084 1.662 0.524 0.832 0.986 0.852 2.575 0.020 3.566-0.665 0.733-1.862 0.769-2.687 0.298-1.015-0.641-1.273-2.047-0.868-3.119 0.287-0.757 1.081-1.236 1.872-1.27z"></path>
<path fill="#ffd033" d="M11.855 17.851c0.378 0.016 0.793-0.064 1.14 0.122 0.294 0.25 0.239 0.877-0.176 0.977-0.316 0.074-0.643 0.035-0.964 0.036-0.007-0.378-0.007-0.757 0-1.135z"></path>
<path fill="#050505" d="M1.968 0.326c6.584-0.064 13.175-0.010 19.762-0.026 1.138-0.078 2.136 0.974 2.070 2.098 0.001 6.442 0.002 12.884-0.001 19.326 0.060 1.076-0.866 2.078-1.951 2.062-6.524 0.008-13.050 0.007-19.574 0.001-1.049 0.024-1.978-0.912-1.968-1.956-0.012-6.478-0.001-12.955-0.006-19.432-0.047-0.974 0.688-1.94 1.669-2.072M1.847 1.028c-0.514 0.1-0.883 0.606-0.845 1.126-0.002 6.564-0.002 13.129 0 19.694-0.041 0.629 0.524 1.186 1.148 1.158 6.566 0.006 13.133 0.006 19.698 0 0.625 0.026 1.189-0.529 1.15-1.158 0.002-6.565 0.002-13.13 0-19.696 0.060-0.689-0.6-1.242-1.266-1.164-6.628 0.028-13.261-0.050-19.885 0.040z"></path>
<path fill="#231f20" d="M5.081 5.796c0.899-1.667 3.178-2.038 4.783-1.254 0.852 0.486 1.3 1.493 1.363 2.443-0.444 0.010-0.889 0.016-1.333-0.010-0.103-1.548-2.15-2.166-3.206-1.13-0.925 0.895-1.116 2.262-1.18 3.488 1.208-1.756 4.070-1.658 5.327-0.013 1.385 1.961 0.373 5.293-2.101 5.76-1.871 0.504-3.977-0.733-4.366-2.648-0.45-2.191-0.374-4.637 0.713-6.636M7.732 9.281c-0.791 0.034-1.585 0.512-1.872 1.27-0.406 1.072-0.148 2.478 0.868 3.119 0.824 0.472 2.022 0.436 2.687-0.298 0.832-0.991 0.811-2.58-0.020-3.566-0.421-0.44-1.078-0.551-1.662-0.524z"></path>
<path fill="#231f20" d="M15.528 4.264c1.141-0.196 2.438 0.088 3.211 1 0.924 1.096 1.128 2.591 1.163 3.977 0.020 1.621-0.146 3.377-1.139 4.723-1.226 1.71-4.193 1.625-5.29-0.188-1.11-1.807-1.070-4.075-0.752-6.103 0.254-1.502 1.152-3.17 2.807-3.408M15.88 5.45c-1.386 0.259-1.721 1.879-1.836 3.065-0.095 1.525-0.162 3.184 0.592 4.567 0.536 1.001 2.008 1.166 2.816 0.409 0.76-0.68 0.875-1.768 0.966-2.724 0.073-1.48 0.090-3.037-0.52-4.42-0.338-0.758-1.247-1.049-2.018-0.898z"></path>
<path fill="#231f20" d="M6.602 17.192c0.385-0.005 0.77-0.005 1.157 0.001 0.23 1.002 0.464 2.004 0.69 3.007 0.235-1.002 0.46-2.006 0.694-3.008 0.382-0.005 0.764-0.005 1.146 0 0.002 1.279 0.004 2.558-0.001 3.838-0.248 0-0.496 0-0.744-0.001-0.013-1.045 0.006-2.090-0.010-3.136-0.242 1.043-0.468 2.090-0.712 3.133-0.253 0.004-0.505 0.006-0.758 0.007-0.252-1.039-0.463-2.089-0.713-3.131-0.005 1.043 0.007 2.084-0.006 3.126-0.247 0.001-0.494 0.001-0.742 0.001-0.006-1.279-0.005-2.558-0.001-3.838z"></path>
<path fill="#231f20" d="M11.042 17.191c0.69 0.018 1.387-0.055 2.071 0.055 1.103 0.174 1.166 2.074 0.090 2.326-0.442 0.104-0.9 0.072-1.35 0.084-0.004 0.448-0.005 0.895-0.004 1.343-0.27 0.001-0.539 0.002-0.808 0.001-0.004-1.27-0.005-2.539 0-3.809M11.855 17.851c-0.007 0.378-0.007 0.757 0 1.135 0.32-0.001 0.648 0.038 0.964-0.036 0.415-0.1 0.47-0.727 0.176-0.977-0.347-0.186-0.762-0.107-1.14-0.122z"></path>
<path fill="#231f20" d="M14.551 17.191c0.269-0.001 0.538-0.002 0.806-0.001 0.004 0.488 0.001 0.978 0.006 1.468 0.487 0.005 0.974 0.005 1.463-0.002 0.005-0.488 0.002-0.976 0.005-1.464 0.269-0.001 0.536-0.002 0.805-0.001 0.006 1.279 0.006 2.56 0 3.84-0.268 0.001-0.535 0.001-0.804-0.001-0.007-0.569 0.001-1.136-0.006-1.705-0.488-0.007-0.977-0.006-1.465-0.001-0.005 0.569 0.004 1.138-0.005 1.708-0.268 0.001-0.536 0.001-0.804-0.001-0.006-1.279-0.004-2.558-0.001-3.838z"></path>
</svg>
