<!-- Generated by IcoMoon.io -->
<svg version="1.1" xmlns="http://www.w3.org/2000/svg" width="24" height="24" viewBox="0 0 24 24">
<title>complementary--accident-area--g3</title>
<path fill="#1f1917" d="M0 0h24v24h-24v-24M0.48 0.48c-0.001 7.68-0.001 15.36 0 23.040 7.678 0.001 15.355 0.001 23.032 0 0.001-7.68 0.001-15.36 0-23.040-7.676-0.001-15.354-0.001-23.032 0z"></path>
<path fill="#1f1917" d="M7.798 4.13c0.25-0.019 0.498-0.040 0.748-0.060 0.071 1.513 0.146 3.026 0.208 4.541-0.089 0.005-0.265 0.016-0.353 0.020-0.204-1.5-0.403-3-0.602-4.501z"></path>
<path fill="#1f1917" d="M9.754 4.102c0.246 0.042 0.492 0.084 0.739 0.125-0.319 1.472-0.644 2.944-0.962 4.417-0.089-0.006-0.266-0.016-0.354-0.020 0.176-1.51 0.385-3.014 0.577-4.522z"></path>
<path fill="#1f1917" d="M5.98 4.655c0.233-0.090 0.466-0.178 0.701-0.262 0.46 1.446 0.93 2.888 1.373 4.339-0.112 0.038-0.223 0.078-0.335 0.116-0.576-1.399-1.162-2.796-1.739-4.194z"></path>
<path fill="#1f1917" d="M1.718 8.618c1.252-0.824 2.574-1.528 3.965-2.086 1.28 1.734 2.159 3.709 3.186 5.594 0.263 0.536 0.616 1.036 0.774 1.618 0.125-0.79-0.44-1.549-0.418-2.345 0.166-0.708 0.371-1.408 0.55-2.112 3.252-0.336 6.521-0.209 9.784-0.234 0.871-0.013 1.733 0.127 2.594 0.233 0.142 1.494 0.138 2.992 0 4.486-2.69 0.353-5.408 0.151-8.113 0.204-1.441 0.047-2.874-0.151-4.313-0.205 0.674 1.187 1.16 2.466 1.728 3.704-0.571 0.503-1.11 1.043-1.692 1.534-0.739 0.242-1.519 0.365-2.276 0.552-1.854-2.812-3.319-5.846-4.908-8.808-0.338-0.69-0.571-1.424-0.86-2.135M3.028 10.577c0.272 0.222 0.546 0.442 0.818 0.662 0.842-0.598 1.771-1.063 2.73-1.442-0.017-0.362-0.034-0.724-0.052-1.086-1.292 0.334-2.5 0.979-3.497 1.866M13.252 9.314c0.845 0.565 1.858 0.54 2.83 0.5 0-0.178 0-0.356-0.001-0.534-0.942 0.016-1.888-0.040-2.828 0.034M16.469 9.281c-0.001 0.178-0.001 0.355-0.001 0.534 0.653 0.001 1.306 0.005 1.96-0.004 0.182-0.178 0.368-0.353 0.553-0.53-0.838-0.002-1.674-0.001-2.512 0M7.164 9.346c-0.084 0.252-0.168 0.504-0.254 0.755 0.3 0.581 0.606 1.157 0.91 1.735 0.173-0.094 0.344-0.187 0.516-0.281-0.386-0.738-0.776-1.476-1.171-2.209M12.858 9.526c-0.281 1.31-0.278 2.675-0.006 3.988 0.416-0.163 0.835-0.318 1.25-0.484-0.17-1.016-0.188-2.058-0.001-3.072-0.412-0.15-0.824-0.3-1.243-0.432M18.842 9.952c0.13 1.025 0.128 2.063 0.001 3.089 0.332 0.146 0.664 0.298 0.992 0.454 0.296-1.301 0.295-2.666-0.022-3.962-0.328 0.132-0.65 0.274-0.972 0.42M3.203 11.434c0.385 0.74 0.78 1.477 1.166 2.216 0.156-0.084 0.312-0.168 0.468-0.253-0.3-0.575-0.6-1.15-0.911-1.718-0.241-0.082-0.482-0.163-0.724-0.245M8 12.163c0.408 0.9 0.884 1.789 1.793 2.273-0.336-0.886-0.854-1.69-1.278-2.534-0.172 0.086-0.343 0.174-0.515 0.262M13.253 13.734c0.941 0.072 1.885 0.018 2.828 0.034 0-0.194-0.001-0.389-0.001-0.582-0.976-0.044-2.004-0.067-2.827 0.548M16.469 13.186c-0.001 0.193-0.001 0.388-0.001 0.582 0.834 0.001 1.669 0 2.503 0-0.516-0.925-1.643-0.491-2.502-0.582M4.555 13.986c0.438 0.844 0.856 1.7 1.348 2.514 0.108-1.020-0.397-1.903-0.882-2.752-0.156 0.078-0.311 0.157-0.466 0.238M6.061 15.436c0.066 0.433 0.133 0.865 0.205 1.298 1.284-0.377 2.497-1 3.526-1.86-0.332-0.296-0.668-0.59-1.008-0.878-0.822 0.625-1.739 1.124-2.723 1.44z"></path>
<path fill="#1f1917" d="M12.518 14.893c0.049-0.074 0.149-0.223 0.199-0.296 1.3 0.774 2.61 1.53 3.901 2.32-0.136 0.209-0.27 0.418-0.406 0.625-1.231-0.883-2.466-1.762-3.695-2.648z"></path>
<path fill="#1f1917" d="M11.969 15.42c0.067-0.055 0.203-0.167 0.271-0.222 1.057 1.080 2.116 2.156 3.167 3.241-0.186 0.169-0.372 0.337-0.558 0.506-0.954-1.181-1.933-2.34-2.88-3.526z"></path>
<path fill="#1f1917" d="M11.354 15.81c0.077-0.047 0.232-0.142 0.308-0.19 0.754 1.316 1.49 2.644 2.234 3.965-0.223 0.112-0.445 0.224-0.667 0.337-0.629-1.369-1.236-2.748-1.876-4.112z"></path>
<path fill="#fff" d="M0.48 0.48c7.678-0.001 15.355-0.001 23.032 0 0.001 7.68 0.001 15.36 0 23.040-7.676 0.001-15.354 0.001-23.032 0-0.001-7.68-0.001-15.36 0-23.040M7.798 4.13c0.199 1.501 0.398 3.001 0.602 4.501 0.088-0.005 0.264-0.016 0.353-0.020-0.061-1.514-0.137-3.028-0.208-4.541-0.25 0.020-0.498 0.041-0.748 0.060M9.754 4.102c-0.192 1.507-0.401 3.012-0.577 4.522 0.088 0.005 0.265 0.014 0.354 0.020 0.318-1.474 0.643-2.945 0.962-4.417-0.247-0.041-0.493-0.083-0.739-0.125M5.98 4.655c0.577 1.398 1.163 2.795 1.739 4.194 0.112-0.038 0.223-0.078 0.335-0.116-0.443-1.451-0.913-2.893-1.373-4.339-0.235 0.084-0.468 0.172-0.701 0.262M1.718 8.618c0.289 0.71 0.522 1.445 0.86 2.135 1.589 2.962 3.054 5.996 4.908 8.808 0.757-0.187 1.537-0.31 2.276-0.552 0.582-0.491 1.121-1.031 1.692-1.534-0.568-1.238-1.054-2.518-1.728-3.704 1.439 0.054 2.872 0.252 4.313 0.205 2.705-0.053 5.423 0.149 8.113-0.204 0.138-1.494 0.142-2.992 0-4.486-0.862-0.106-1.723-0.246-2.594-0.233-3.263 0.025-6.532-0.102-9.784 0.234-0.179 0.704-0.384 1.404-0.55 2.112-0.023 0.796 0.542 1.555 0.418 2.345-0.158-0.582-0.511-1.081-0.774-1.618-1.027-1.885-1.906-3.86-3.186-5.594-1.391 0.558-2.713 1.261-3.965 2.086M12.518 14.893c1.229 0.887 2.464 1.765 3.695 2.648 0.136-0.208 0.27-0.416 0.406-0.625-1.291-0.79-2.602-1.546-3.901-2.32-0.050 0.073-0.15 0.222-0.199 0.296M11.969 15.42c0.947 1.186 1.926 2.345 2.88 3.526 0.186-0.169 0.372-0.337 0.558-0.506-1.051-1.085-2.11-2.161-3.167-3.241-0.068 0.055-0.204 0.167-0.271 0.222M11.354 15.81c0.64 1.364 1.247 2.743 1.876 4.112 0.222-0.113 0.444-0.226 0.667-0.337-0.744-1.321-1.481-2.648-2.234-3.965-0.077 0.048-0.232 0.143-0.308 0.19z"></path>
<path fill="#fff" d="M3.028 10.577c0.997-0.887 2.204-1.532 3.497-1.866 0.018 0.362 0.035 0.724 0.052 1.086-0.959 0.379-1.888 0.845-2.73 1.442-0.272-0.221-0.546-0.44-0.818-0.662z"></path>
<path fill="#fff" d="M13.252 9.314c0.941-0.073 1.886-0.018 2.828-0.034 0.001 0.178 0.001 0.356 0.001 0.534-0.972 0.040-1.985 0.065-2.83-0.5z"></path>
<path fill="#fff" d="M16.469 9.281c0.838-0.001 1.674-0.002 2.512 0-0.185 0.178-0.371 0.353-0.553 0.53-0.654 0.008-1.307 0.005-1.96 0.004 0-0.179 0-0.356 0.001-0.534z"></path>
<path fill="#fff" d="M7.164 9.346c0.395 0.733 0.785 1.471 1.171 2.209-0.172 0.094-0.343 0.187-0.516 0.281-0.304-0.578-0.61-1.154-0.91-1.735 0.086-0.251 0.17-0.503 0.254-0.755z"></path>
<path fill="#fff" d="M12.858 9.526c0.419 0.132 0.832 0.282 1.243 0.432-0.187 1.014-0.169 2.056 0.001 3.072-0.415 0.166-0.834 0.32-1.25 0.484-0.272-1.313-0.275-2.677 0.006-3.988z"></path>
<path fill="#fff" d="M18.842 9.952c0.322-0.146 0.644-0.288 0.972-0.42 0.317 1.296 0.318 2.662 0.022 3.962-0.329-0.156-0.66-0.307-0.992-0.454 0.127-1.026 0.128-2.064-0.001-3.089z"></path>
<path fill="#fff" d="M3.203 11.434c0.241 0.082 0.482 0.163 0.724 0.245 0.311 0.569 0.611 1.144 0.911 1.718-0.156 0.085-0.312 0.169-0.468 0.253-0.386-0.739-0.781-1.476-1.166-2.216z"></path>
<path fill="#fff" d="M8 12.163c0.172-0.088 0.343-0.175 0.515-0.262 0.424 0.845 0.942 1.649 1.278 2.534-0.908-0.484-1.385-1.373-1.793-2.273z"></path>
<path fill="#fff" d="M13.253 13.734c0.823-0.616 1.852-0.593 2.827-0.548 0 0.193 0.001 0.388 0.001 0.582-0.943-0.016-1.888 0.038-2.828-0.034z"></path>
<path fill="#fff" d="M16.469 13.186c0.859 0.091 1.986-0.343 2.502 0.582-0.834 0-1.669 0.001-2.503 0 0-0.194 0-0.389 0.001-0.582z"></path>
<path fill="#fff" d="M4.555 13.986c0.155-0.080 0.31-0.16 0.466-0.238 0.485 0.848 0.99 1.732 0.882 2.752-0.492-0.814-0.91-1.67-1.348-2.514z"></path>
<path fill="#fff" d="M6.061 15.436c0.984-0.316 1.901-0.815 2.723-1.44 0.34 0.288 0.676 0.582 1.008 0.878-1.028 0.86-2.242 1.483-3.526 1.86-0.072-0.433-0.139-0.865-0.205-1.298z"></path>
</svg>
