<!-- Generated by IcoMoon.io -->
<svg version="1.1" xmlns="http://www.w3.org/2000/svg" width="34" height="24" viewBox="0 0 34 24">
<title>complementary--turn-right--g2</title>
<path fill="#fffffe" d="M2.68 0h28.136c0.063 0.065 0.173 0.033 0.229 0.108-0.553-0.131-1.126-0.096-1.689-0.101-8.679 0.001-17.357 0-26.035 0.001-0.297 0.013-0.596 0.028-0.886 0.099 0.065-0.065 0.168-0.056 0.244-0.106z"></path>
<path fill="#fffffe" d="M2.232 0.165c0.036-0.071 0.094-0.087 0.173-0.051-0.049 0.049-0.107 0.066-0.173 0.051z"></path>
<path fill="#fffffe" d="M31.076 0.117c0.078-0.040 0.136-0.024 0.173 0.047-0.066 0.016-0.124 0.001-0.173-0.047z"></path>
<path fill="#fffffe" d="M1.656 0.407c0.113-0.095 0.257-0.192 0.409-0.193-0.13 0.076-0.261 0.157-0.409 0.193z"></path>
<path fill="#fffffe" d="M3.078 0.25c9.046-0.026 18.093-0.006 27.139-0.010 1.672-0.041 3.178 1.521 3.070 3.19 0 5.732 0 11.464 0 17.196 0.112 1.652-1.361 3.205-3.020 3.178-8.982 0.006-17.964 0.001-26.945 0.003-0.787 0.016-1.569-0.288-2.149-0.817-0.573-0.603-1.028-1.398-0.974-2.256 0.003-5.768 0-11.536 0.001-17.304-0.112-1.6 1.27-3.136 2.878-3.179M3.073 0.776c-1.231 0.070-2.272 1.165-2.353 2.381 0 5.931-0.001 11.862 0.004 17.794 0.097 1.272 1.27 2.322 2.539 2.334 9.021 0.005 18.042 0.001 27.063-0.001 1.327-0.029 2.429-1.248 2.442-2.551-0.003-5.877 0-11.753-0.005-17.629-0.092-1.278-1.27-2.334-2.544-2.344-8.859-0.006-17.718-0.001-26.576-0.002-0.19-0.001-0.381-0.006-0.57 0.019z"></path>
<path fill="#fffffe" d="M31.949 0.477c0.030 0.019 0.091 0.056 0.121 0.075-0.030-0.019-0.091-0.056-0.121-0.075z"></path>
<path fill="#fffffe" d="M32.1 0.596c0.028 0.011 0.084 0.031 0.112 0.041-0.028-0.010-0.084-0.031-0.112-0.041z"></path>
<path fill="#fffffe" d="M1.081 0.771c0.031-0.019 0.092-0.055 0.123-0.073-0.031 0.018-0.092 0.055-0.123 0.073z"></path>
<path fill="#fffffe" d="M32.327 0.754c0.033 0.018 0.098 0.054 0.13 0.071-0.033-0.018-0.098-0.053-0.13-0.071z"></path>
<path fill="#fffffe" d="M32.549 0.919c0.018 0.032 0.055 0.095 0.074 0.126-0.019-0.032-0.056-0.095-0.074-0.126z"></path>
<path fill="#fffffe" d="M0.59 1.367c0.019-0.030 0.056-0.091 0.075-0.121-0.019 0.030-0.056 0.091-0.075 0.121z"></path>
<path fill="#fffffe" d="M32.928 1.411c0.017 0.031 0.051 0.093 0.069 0.124-0.018-0.031-0.052-0.093-0.069-0.124z"></path>
<path fill="#fffffe" d="M0.368 1.693c0.019-0.028 0.056-0.085 0.075-0.114-0.019 0.028-0.056 0.085-0.075 0.114z"></path>
<path fill="#fffffe" d="M33.036 1.573c0.019 0.029 0.056 0.089 0.075 0.119-0.019-0.030-0.056-0.090-0.075-0.119z"></path>
<path fill="#fffffe" d="M3.020 1.741c0.276-0.048 0.558-0.027 0.837-0.032 8.804 0.002 17.609 0.001 26.413 0.004 0.797 0.014 1.501 0.706 1.546 1.497-0.001 5.877-0.001 11.755-0.003 17.633-0.047 0.827-0.818 1.533-1.651 1.492-8.984-0.001-17.968 0-26.952-0.003-0.792-0.019-1.489-0.703-1.539-1.489 0-5.877 0.001-11.755 0.003-17.632 0.040-0.713 0.629-1.388 1.347-1.471M17.816 3.426c0.22 0.754 0.476 1.499 0.706 2.251-1.514 0.013-3.028-0.011-4.542 0.012-0.819 0.010-1.63 0.178-2.386 0.492-0.861 0.407-1.717 0.891-2.331 1.636-1.15 1.216-1.784 2.888-1.764 4.558-0.017 1.294 0.439 2.558 1.137 3.634 0.541 0.692 1.087 1.379 1.632 2.068 0.634 0.996 0.725 2.212 0.674 3.363 1.231 0.008 2.462 0.005 3.693 0.002-0.002-0.648 0.029-1.298-0.054-1.942-0.149-1.21-0.579-2.377-1.19-3.427-0.577-0.743-1.169-1.475-1.747-2.218-0.453-0.722-0.591-1.655-0.308-2.465 0.273-0.692 0.748-1.345 1.433-1.673 0.479-0.278 1.044-0.342 1.588-0.34 1.389 0.002 2.777-0.002 4.165 0.002-0.23 0.751-0.485 1.495-0.706 2.249-0.095 0.573 0.596 1.026 1.094 0.749 2.353-1.611 4.705-3.224 7.058-4.835l-0.001-0.027c-2.354-1.61-4.705-3.224-7.060-4.834-0.498-0.276-1.183 0.175-1.092 0.747z"></path>
<path fill="#fffffe" d="M0 2.47l0.046-0.010c0.035 0.069 0.019 0.124-0.046 0.165v-0.155z"></path>
<path fill="#fffffe" d="M33.433 2.45c0.062 0.043 0.076 0.104 0.043 0.183-0.053-0.053-0.067-0.114-0.043-0.183z"></path>
<path fill="#fffffe" d="M33.486 2.717l0.050 0.037v18.555l-0.049 0.024c0.052-0.324 0.028-0.651 0.032-0.976 0-5.768 0-11.535 0-17.302-0.005-0.113-0.023-0.226-0.032-0.338z"></path>
<path fill="#fffffe" d="M0 21.39c0.080 0.107 0.104 0.25 0.11 0.381-0.089-0.043-0.062-0.158-0.11-0.229v-0.152z"></path>
<path fill="#fffffe" d="M33.434 21.604c-0.025-0.069-0.011-0.129 0.042-0.182 0.034 0.078 0.019 0.139-0.042 0.182z"></path>
<path fill="#fffffe" d="M0.111 21.772c0.067 0.070 0.123 0.176 0.094 0.275-0.054-0.081-0.13-0.172-0.094-0.275z"></path>
<path fill="#fffffe" d="M0.3 22.237c0.094 0.045 0.167 0.159 0.162 0.264-0.097-0.052-0.116-0.173-0.162-0.264z"></path>
<path fill="#fffffe" d="M33.037 22.474c0.019-0.028 0.057-0.085 0.077-0.114-0.019 0.028-0.057 0.085-0.077 0.114z"></path>
<path fill="#fffffe" d="M0.486 22.518c0.017 0.031 0.051 0.094 0.068 0.125-0.017-0.031-0.050-0.094-0.068-0.125z"></path>
<path fill="#fffffe" d="M32.823 22.806c0.017-0.031 0.051-0.092 0.068-0.123-0.017 0.031-0.051 0.092-0.068 0.123z"></path>
<path fill="#fffffe" d="M32.602 23.082c0.019-0.032 0.057-0.095 0.076-0.126-0.019 0.031-0.057 0.094-0.076 0.126z"></path>
<path fill="#fffffe" d="M1.25 23.391c0.031 0.018 0.093 0.053 0.123 0.071-0.031-0.018-0.092-0.053-0.123-0.071z"></path>
<path fill="#fffffe" d="M1.415 23.503c0.029 0.019 0.089 0.055 0.118 0.073-0.029-0.018-0.089-0.055-0.118-0.073z"></path>
<path fill="#fffffe" d="M31.949 23.578c0.028-0.019 0.085-0.057 0.114-0.077-0.028 0.019-0.085 0.057-0.114 0.077z"></path>
<path fill="#fffffe" d="M2.234 23.888c0.070-0.014 0.131 0.003 0.183 0.054-0.084 0.034-0.145 0.016-0.183-0.054z"></path>
<path fill="#fffffe" d="M31.066 23.941c0.051-0.050 0.112-0.067 0.182-0.053-0.038 0.069-0.099 0.087-0.182 0.053z"></path>
<path fill="#fffffe" d="M2.458 23.955c0.070-0.036 0.125-0.021 0.166 0.045h-0.154l-0.012-0.045z"></path>
<path fill="#fffffe" d="M30.856 24c0.043-0.066 0.099-0.081 0.168-0.045l-0.013 0.045h-0.155z"></path>
<path fill="#1a1919" d="M2.436 0.106c0.289-0.071 0.588-0.086 0.886-0.099 8.678-0.001 17.357 0 26.035-0.001 0.563 0.005 1.136-0.030 1.689 0.101l0.031 0.010c0.049 0.048 0.107 0.063 0.173 0.047l0.034 0.002c0.031 0.009 0.093 0.025 0.124 0.033 0.186 0.081 0.373 0.166 0.542 0.278 0.030 0.019 0.091 0.056 0.121 0.075 0.008 0.011 0.023 0.033 0.030 0.043 0.028 0.011 0.084 0.031 0.112 0.041 0.046 0.032 0.084 0.071 0.115 0.117 0.033 0.018 0.098 0.054 0.13 0.071 0.031 0.031 0.062 0.062 0.093 0.093 0.018 0.032 0.055 0.095 0.074 0.126 0.127 0.099 0.221 0.229 0.304 0.366 0.017 0.031 0.051 0.093 0.069 0.124 0.010 0.010 0.030 0.028 0.040 0.038 0.019 0.029 0.056 0.089 0.075 0.119 0.094 0.134 0.162 0.285 0.226 0.436 0.006 0.032 0.020 0.095 0.027 0.126l0.017 0.037c0.011 0.030 0.033 0.089 0.043 0.119l0.009 0.039c-0.024 0.069-0.010 0.13 0.043 0.183 0.002 0.021 0.007 0.064 0.010 0.085 0.010 0.112 0.027 0.225 0.032 0.338 0 5.767 0 11.534 0 17.302-0.004 0.325 0.020 0.652-0.032 0.976-0.003 0.022-0.008 0.066-0.011 0.088-0.052 0.053-0.066 0.114-0.042 0.182l-0.009 0.040c-0.011 0.029-0.033 0.089-0.043 0.118l-0.016 0.038c-0.007 0.032-0.021 0.094-0.028 0.126-0.065 0.15-0.133 0.299-0.224 0.435-0.019 0.028-0.057 0.085-0.077 0.114-0.023 0.085-0.077 0.156-0.146 0.209-0.017 0.031-0.051 0.092-0.068 0.123-0.048 0.050-0.096 0.101-0.145 0.151-0.019 0.031-0.057 0.094-0.076 0.126-0.15 0.171-0.336 0.32-0.539 0.419-0.028 0.019-0.085 0.057-0.114 0.077-0.171 0.11-0.357 0.196-0.543 0.277-0.032 0.008-0.094 0.025-0.126 0.033l-0.032 0.001c-0.070-0.014-0.131 0.003-0.182 0.053l-0.042 0.014c-0.070-0.036-0.125-0.021-0.168 0.045h-28.231c-0.041-0.066-0.096-0.081-0.166-0.045l-0.042-0.014c-0.052-0.050-0.113-0.068-0.183-0.054l-0.032 0.001c-0.031-0.009-0.094-0.026-0.125-0.034-0.188-0.078-0.374-0.165-0.543-0.277-0.029-0.018-0.089-0.055-0.118-0.073-0.010-0.010-0.031-0.031-0.042-0.041-0.031-0.018-0.092-0.053-0.123-0.071-0.311-0.163-0.492-0.476-0.696-0.748-0.017-0.031-0.050-0.094-0.068-0.125-0.006-0.004-0.018-0.012-0.025-0.017 0.005-0.105-0.068-0.219-0.162-0.264-0.035-0.062-0.067-0.125-0.095-0.19 0.028-0.099-0.027-0.205-0.094-0.275l-0.001-0.001c-0.006-0.131-0.030-0.274-0.11-0.381v-18.766c0.065-0.041 0.081-0.096 0.046-0.165l0.011-0.046c0.011-0.030 0.032-0.091 0.042-0.122l0.018-0.038c0.007-0.032 0.020-0.095 0.027-0.126 0.064-0.15 0.133-0.298 0.223-0.435 0.019-0.028 0.056-0.085 0.075-0.114 0.030-0.083 0.077-0.156 0.147-0.212 0.019-0.030 0.056-0.091 0.075-0.121 0.129-0.167 0.245-0.346 0.416-0.475 0.031-0.019 0.092-0.055 0.123-0.073 0.129-0.127 0.284-0.226 0.453-0.291 0.147-0.036 0.279-0.118 0.409-0.193l0.017-0.002c0.028-0.013 0.085-0.037 0.113-0.050l0.036 0.004c0.066 0.016 0.124-0.002 0.173-0.051l0.032-0.008M3.078 0.25c-1.608 0.043-2.99 1.579-2.878 3.179-0.001 5.768 0.002 11.536-0.001 17.304-0.054 0.858 0.401 1.653 0.974 2.256 0.58 0.53 1.361 0.833 2.149 0.817 8.981-0.002 17.963 0.004 26.945-0.003 1.659 0.027 3.132-1.526 3.020-3.178 0-5.732 0-11.464 0-17.196 0.108-1.668-1.397-3.23-3.070-3.19-9.047 0.004-18.094-0.016-27.139 0.010z"></path>
<path fill="#1a1919" d="M3.073 0.776c0.189-0.025 0.38-0.019 0.57-0.019 8.859 0.002 17.718-0.004 26.576 0.002 1.273 0.010 2.452 1.066 2.544 2.344 0.005 5.876 0.003 11.752 0.005 17.629-0.013 1.302-1.115 2.522-2.442 2.551-9.021 0.002-18.042 0.006-27.063 0.001-1.269-0.012-2.442-1.061-2.539-2.334-0.005-5.931-0.004-11.863-0.004-17.794 0.081-1.216 1.122-2.312 2.353-2.381M3.020 1.741c-0.718 0.082-1.307 0.758-1.347 1.471-0.002 5.877-0.003 11.755-0.003 17.632 0.050 0.786 0.747 1.47 1.539 1.489 8.984 0.003 17.968 0.002 26.952 0.003 0.833 0.041 1.603-0.665 1.651-1.492 0.003-5.877 0.003-11.755 0.003-17.633-0.045-0.792-0.748-1.483-1.546-1.497-8.804-0.004-17.609-0.002-26.413-0.004-0.279 0.004-0.56-0.017-0.837 0.032z"></path>
<path fill="#1a1919" d="M17.816 3.426c-0.091-0.572 0.595-1.023 1.092-0.747 2.354 1.61 4.706 3.224 7.060 4.834l0.001 0.027c-2.353 1.61-4.705 3.224-7.058 4.835-0.498 0.278-1.189-0.176-1.094-0.749 0.221-0.754 0.475-1.498 0.706-2.249-1.388-0.004-2.776-0.001-4.165-0.002-0.545-0.003-1.109 0.062-1.588 0.34-0.685 0.328-1.16 0.981-1.433 1.673-0.283 0.811-0.145 1.743 0.308 2.465 0.578 0.742 1.169 1.475 1.747 2.218 0.611 1.051 1.040 2.218 1.19 3.427 0.084 0.644 0.053 1.294 0.054 1.942-1.231 0.004-2.462 0.006-3.693-0.002 0.051-1.151-0.040-2.366-0.674-3.363-0.545-0.689-1.092-1.376-1.632-2.068-0.698-1.076-1.154-2.341-1.137-3.634-0.021-1.67 0.614-3.342 1.764-4.558 0.614-0.744 1.471-1.229 2.331-1.636 0.756-0.314 1.567-0.482 2.386-0.492 1.513-0.023 3.028 0.001 4.542-0.012-0.229-0.752-0.485-1.497-0.706-2.251z"></path>
<path fill="#c4c3c3" d="M2.082 0.212c0.028-0.013 0.085-0.038 0.113-0.050-0.028 0.013-0.085 0.038-0.113 0.050z"></path>
<path fill="#c4c3c3" d="M33.381 21.762c0.011-0.029 0.033-0.089 0.043-0.118-0.011 0.029-0.033 0.089-0.043 0.118z"></path>
<path fill="#d1d1d1" d="M31.283 0.166c0.031 0.009 0.093 0.025 0.124 0.033-0.031-0.008-0.093-0.025-0.124-0.033z"></path>
<path fill="#d1d1d1" d="M33.338 21.926c0.007-0.032 0.021-0.094 0.028-0.126-0.007 0.032-0.021 0.094-0.028 0.126z"></path>
<path fill="#d2d2d2" d="M0.117 2.254c0.007-0.032 0.020-0.095 0.027-0.126-0.007 0.032-0.020 0.095-0.027 0.126z"></path>
<path fill="#d8d7d7" d="M33.338 2.128c0.006 0.032 0.020 0.095 0.027 0.126-0.007-0.032-0.021-0.095-0.027-0.126z"></path>
<path fill="#c8c8c8" d="M0.057 2.413c0.011-0.030 0.032-0.091 0.042-0.122-0.010 0.031-0.032 0.092-0.042 0.122z"></path>
<path fill="#cacaca" d="M33.381 2.292c0.011 0.030 0.033 0.089 0.043 0.119-0.011-0.029-0.033-0.089-0.043-0.119z"></path>
<path fill="#e1e0e0" d="M2.077 23.854c0.032 0.009 0.094 0.026 0.125 0.034-0.031-0.009-0.094-0.026-0.125-0.034z"></path>
<path fill="#ddd" d="M31.28 23.888c0.032-0.008 0.094-0.025 0.126-0.033-0.032 0.008-0.094 0.025-0.126 0.033z"></path>
</svg>
