<!-- Generated by IcoMoon.io -->
<svg version="1.1" xmlns="http://www.w3.org/2000/svg" width="21" height="24" viewBox="0 0 21 24">
<title>information--stairs--g2</title>
<path fill="#b1bfe7" d="M0.875 0h19.62c-0.344 0.058-0.689 0.122-1.038 0.139-6.274 0.004-12.55-0.038-18.824 0.068 0.061-0.051 0.182-0.155 0.241-0.207z"></path>
<path fill="#4052a0" d="M20.495 0h0.074c0.19 0.288 0.403 0.575 0.733 0.713v21.847c-0.151 0.498-0.099 1.102-0.574 1.44h-20.357c0.068-0.253-0.22-0.395-0.371-0.541v-22.603c0.202-0.226 0.412-0.443 0.633-0.649 6.274-0.106 12.55-0.064 18.824-0.068 0.349-0.017 0.694-0.081 1.038-0.139M1.332 0.655c-0.616 0.19-1.022 0.838-0.977 1.474-0.001 6.723-0.014 13.444-0.018 20.167-0.047 0.805 0.707 1.539 1.508 1.495 5.824-0.024 11.649-0.037 17.473-0.028 0.893 0.084 1.676-0.726 1.619-1.608 0.003-6.721 0.034-13.446 0.023-20.169 0.041-0.744-0.591-1.466-1.352-1.451-5.683-0.018-11.368-0.006-17.051 0-0.41 0.003-0.825 0.014-1.224 0.119z"></path>
<path fill="#4052a0" d="M0.902 1.985c-0.026-0.572 0.541-0.998 1.084-0.949 5.871-0.021 11.744-0.016 17.615-0.009 1.024 0.045 0.936 1.294 0.878 2.026-2.079 0.014-4.157-0.007-6.234 0.023-0.003-0.214 0.021-0.439-0.057-0.646-0.162-0.017-0.317 0.010-0.464 0.080-0.001 2.124 0.108 4.262-0.054 6.382-0.187-2.211-0.023-4.435-0.133-6.65 0.778-0.131 1.167 0.76 1.944 0.599 1.606-0.070 3.218 0.085 4.817-0.116-0.064-0.422-0.036-0.903-0.315-1.253-0.305-0.233-0.73-0.179-1.092-0.21-5.59 0.040-11.181-0.058-16.769 0.026-0.67-0.084-1.091 0.493-1 1.12 0.038 5.573-0.065 11.146-0.072 16.718 0.902 0.010 1.808-0.034 2.705 0.075-0.932 0.297-1.936 0.095-2.897 0.107 0.040-5.773 0.026-11.55 0.045-17.323z"></path>
<path fill="#fbfdfe" d="M1.332 0.655c0.399-0.105 0.814-0.116 1.224-0.119 5.683-0.006 11.368-0.018 17.051 0 0.761-0.014 1.393 0.707 1.352 1.451 0.011 6.723-0.020 13.447-0.023 20.169 0.057 0.882-0.726 1.691-1.619 1.608-5.824-0.009-11.649 0.004-17.473 0.028-0.801 0.044-1.555-0.69-1.508-1.495 0.004-6.723 0.017-13.444 0.018-20.167-0.045-0.636 0.361-1.284 0.977-1.474M0.902 1.985c-0.020 5.773-0.006 11.55-0.045 17.323 0.961-0.011 1.965 0.19 2.897-0.107-0.045-0.797-0.026-1.595-0.021-2.393 1.005-0.018 2.011 0.006 3.015-0.031-0.004-0.861-0.011-1.723 0.003-2.583 1.032-0.017 2.065-0.037 3.099-0.021 0.001-0.871 0.003-1.741 0.011-2.61 0.994-0.004 1.988-0.020 2.981-0.020 0.011-0.892 0.003-1.784 0.010-2.676 0.273 0.007 0.545 0.016 0.818 0.026 0.162-2.12 0.053-4.258 0.054-6.382 0.148-0.070 0.302-0.097 0.464-0.080 0.078 0.207 0.054 0.432 0.057 0.646 2.078-0.030 4.155-0.009 6.234-0.023 0.058-0.733 0.146-1.981-0.878-2.026-5.871-0.007-11.744-0.013-17.615 0.009-0.542-0.050-1.109 0.376-1.084 0.949M14.178 3.454c-0.018 1.804-0.009 3.609-0.007 5.414 0.258 0.003 0.518 0.004 0.778 0.006 0.003-1.812 0.011-3.624-0.004-5.436-0.256 0.006-0.511 0.011-0.767 0.017M15.307 3.44c-0.023 1.805-0.003 3.611-0.017 5.416 0.231 0.009 0.463 0.017 0.696 0.026 0.041-1.815 0.037-3.63 0.017-5.445-0.231 0.001-0.464 0.001-0.696 0.003M16.382 3.438c0.018 1.823-0.028 3.648 0.017 5.473 0.24-0.041 0.494-0.033 0.723-0.129 0.060-1.778 0.009-3.56 0.028-5.341-0.257-0.001-0.513-0.003-0.768-0.003M17.487 3.441c-0.021 1.808 0.001 3.616-0.013 5.422 0.236 0.003 0.47 0.006 0.704 0.007 0.009-1.806 0.009-3.614 0.009-5.422-0.234-0.001-0.467-0.004-0.7-0.007M18.531 3.468c0.016 1.801-0.003 3.601 0.003 5.402 0.276-0.003 0.552-0.006 0.831-0.009-0.013-1.814 0.014-3.626-0.004-5.439-0.277 0.014-0.554 0.028-0.829 0.045M19.663 3.393c0.018 1.826-0.016 3.653 0.016 5.479 0.268-0.007 0.537-0.014 0.807-0.021-0.014-1.723 0.021-3.445-0.010-5.166 0.021-0.45-0.534-0.26-0.812-0.291M13.298 12.439c-2.237 1.994-4.551 3.9-6.767 5.918 0.743-0.061 1.191-0.711 1.727-1.145 1.716-1.505 3.448-2.992 5.156-4.507 0.277-0.214 0.537-0.538 0.92-0.523 2.032-0.037 4.066 0.013 6.099-0.031-0.003-0.077-0.006-0.23-0.009-0.307-2.027 0.041-4.054-0.010-6.082 0.034-0.427-0.017-0.741 0.308-1.045 0.561M14.237 12.692c-2.491 1.876-4.614 4.222-7.176 6.010-1.748 1.493-3.457 3.032-5.208 4.522 5.773 0.077 11.551-0.016 17.325 0.011 0.64 0.104 1.331-0.383 1.248-1.074 0.101-3.168 0.026-6.339 0.051-9.508-2.078-0.028-4.172-0.097-6.241 0.038M2.81 21.413c-0.592 0.547-1.333 0.963-1.748 1.676 0.297-0.112 0.582-0.26 0.817-0.479 1.605-1.397 3.182-2.826 4.81-4.198-0.105-0.018-0.317-0.054-0.422-0.071-1.109 1.069-2.319 2.029-3.457 3.072z"></path>
<path fill="#2d47b8" d="M1.12 2.409c-0.091-0.628 0.329-1.204 1-1.12 5.588-0.084 11.179 0.014 16.769-0.026 0.362 0.031 0.787-0.023 1.092 0.21 0.28 0.349 0.251 0.831 0.315 1.253-1.599 0.202-3.211 0.047-4.817 0.116-0.777 0.16-1.166-0.73-1.944-0.599 0.111 2.215-0.054 4.439 0.134 6.65-0.273-0.010-0.545-0.018-0.818-0.026-0.007 0.892 0.001 1.784-0.010 2.676-0.993 0-1.987 0.016-2.981 0.020-0.009 0.869-0.010 1.74-0.011 2.61-1.034-0.016-2.066 0.004-3.099 0.021-0.014 0.861-0.007 1.723-0.003 2.583-1.004 0.037-2.009 0.013-3.015 0.031-0.004 0.798-0.024 1.596 0.021 2.393-0.898-0.109-1.804-0.065-2.705-0.075 0.007-5.571 0.111-11.145 0.072-16.718M5.568 2.768c-1.191 0.026-1.098 2.088 0.111 1.957 1.262 0.037 1.136-2.116-0.111-1.957M4.591 6.403c-0.040 1.038 0.007 2.078-0.048 3.116-0.057 0.561 0.415 1 0.375 1.556-0.001 1.468-0.023 2.937-0.009 4.404-0.053 0.341 0.27 0.516 0.481 0.713 0.224-0.193 0.575-0.356 0.521-0.711 0.011-1.507-0.026-3.015 0.016-4.522 0.568 0.416 1.126 0.845 1.674 1.287 0.040 0.47-0.118 1.011 0.151 1.429 0.267 0.324 0.696-0.001 0.702-0.342 0.033-0.528 0.125-1.091-0.028-1.603-0.481-0.577-1.132-0.978-1.679-1.488-0.001-0.548-0.003-1.095 0.013-1.642 0.531 0.178 1.304 0.846 1.637 0.053-0.506-0.418-1.067-0.761-1.625-1.103-0.037-0.669 0.197-1.619-0.555-1.981-0.65-0.429-1.592 0.064-1.626 0.836z"></path>
<path fill="#fafdfa" d="M5.568 2.768c1.247-0.159 1.373 1.994 0.111 1.957-1.209 0.131-1.302-1.931-0.111-1.957z"></path>
<path fill="#344db3" d="M14.178 3.454c0.256-0.006 0.511-0.011 0.767-0.017 0.016 1.812 0.007 3.624 0.004 5.436-0.26-0.001-0.52-0.003-0.778-0.006-0.001-1.805-0.011-3.61 0.007-5.413z"></path>
<path fill="#334db7" d="M15.307 3.44c0.231-0.001 0.464-0.001 0.696-0.003 0.020 1.815 0.024 3.63-0.017 5.445-0.233-0.009-0.464-0.017-0.696-0.026 0.014-1.805-0.006-3.611 0.017-5.416z"></path>
<path fill="#364eaa" d="M16.382 3.438c0.256 0 0.511 0.001 0.768 0.003-0.020 1.781 0.031 3.563-0.028 5.341-0.229 0.097-0.483 0.088-0.723 0.129-0.045-1.825 0.001-3.65-0.017-5.473z"></path>
<path fill="#364cb1" d="M17.487 3.441c0.233 0.003 0.466 0.006 0.7 0.007 0 1.808 0 3.616-0.009 5.422-0.234-0.001-0.469-0.004-0.704-0.007 0.014-1.806-0.009-3.614 0.013-5.422z"></path>
<path fill="#374cb4" d="M18.531 3.468c0.276-0.017 0.552-0.031 0.829-0.045 0.018 1.813-0.009 3.626 0.004 5.439-0.278 0.003-0.555 0.006-0.831 0.009-0.006-1.801 0.013-3.601-0.003-5.402z"></path>
<path fill="#384fb5" d="M19.663 3.393c0.278 0.031 0.834-0.159 0.812 0.291 0.031 1.721-0.004 3.444 0.010 5.166-0.27 0.007-0.538 0.014-0.807 0.021-0.031-1.826 0.003-3.653-0.016-5.479z"></path>
<path fill="#fbfcfb" d="M4.591 6.403c0.034-0.773 0.976-1.265 1.626-0.836 0.753 0.362 0.518 1.312 0.555 1.981 0.558 0.342 1.119 0.686 1.625 1.103-0.334 0.794-1.106 0.125-1.637-0.053-0.016 0.547-0.014 1.094-0.013 1.642 0.547 0.51 1.197 0.912 1.679 1.488 0.153 0.513 0.061 1.075 0.028 1.603-0.006 0.341-0.435 0.666-0.702 0.342-0.268-0.418-0.111-0.959-0.151-1.429-0.548-0.442-1.106-0.871-1.674-1.287-0.041 1.507-0.004 3.015-0.016 4.522 0.054 0.355-0.297 0.518-0.521 0.711-0.212-0.197-0.534-0.372-0.481-0.713-0.014-1.467 0.007-2.935 0.009-4.404 0.040-0.557-0.432-0.996-0.375-1.556 0.055-1.038 0.009-2.078 0.048-3.116z"></path>
<path fill="#475586" d="M13.298 12.439c0.304-0.253 0.618-0.578 1.045-0.561 2.028-0.044 4.056 0.007 6.082-0.034 0.003 0.077 0.006 0.23 0.009 0.307-2.034 0.044-4.067-0.006-6.099 0.031-0.383-0.016-0.643 0.308-0.92 0.523-1.708 1.515-3.441 3.002-5.156 4.507-0.535 0.433-0.984 1.084-1.727 1.145 2.215-2.018 4.53-3.924 6.767-5.918z"></path>
<path fill="#475586" d="M2.81 21.413c1.138-1.042 2.347-2.002 3.457-3.072 0.105 0.017 0.317 0.053 0.422 0.071-1.627 1.372-3.205 2.8-4.81 4.198-0.234 0.219-0.52 0.366-0.817 0.479 0.415-0.713 1.156-1.129 1.748-1.676z"></path>
<path fill="#2a45b4" d="M14.237 12.692c2.069-0.135 4.164-0.067 6.241-0.038-0.026 3.168 0.050 6.339-0.051 9.508 0.082 0.69-0.608 1.177-1.248 1.074-5.774-0.027-11.553 0.065-17.325-0.011 1.751-1.49 3.459-3.029 5.208-4.522 2.562-1.788 4.685-4.134 7.176-6.010z"></path>
<path fill="#0d0d10" opacity="0.06" d="M0 23.459c0.151 0.146 0.439 0.288 0.371 0.541h-0.371v-0.541z"></path>
</svg>
