<?xml version="1.0" encoding="utf-8"?>
<!-- Generated by IcoMoon.io -->
<!DOCTYPE svg PUBLIC "-//W3C//DTD SVG 1.1//EN" "http://www.w3.org/Graphics/SVG/1.1/DTD/svg11.dtd">
<svg version="1.1" xmlns="http://www.w3.org/2000/svg" xmlns:xlink="http://www.w3.org/1999/xlink" width="24" height="24" viewBox="0 0 24 24">
<path fill="#00a0dc" d="M1.266 1.336c0.104-0.209 0.322-0.314 0.506-0.439 6.814 0.005 13.631 0.022 20.442-0.008 0.324-0.007 0.623 0.214 0.754 0.503 0.085 0.286 0.047 0.589 0.055 0.884-0.007 6.568 0.008 13.135-0.006 19.703 0.013 0.468-0.49 0.808-0.929 0.762-6.644 0.016-13.289 0.001-19.933 0.007-0.421 0.047-0.87-0.212-0.971-0.638-0.076-0.362-0.040-0.736-0.047-1.103 0-6.163 0.001-12.325-0.001-18.487 0.011-0.395-0.050-0.816 0.13-1.183M11.9 3.122c-3.269 5.713-6.61 11.386-9.865 17.105 6.714 0.004 13.428 0.012 20.142-0.016-3.318-5.734-6.631-11.471-9.949-17.203-0.072-0.25-0.271-0.018-0.328 0.114z"></path>
<path fill="#fff" d="M11.9 3.122c0.056-0.132 0.256-0.364 0.328-0.114 3.318 5.732 6.631 11.47 9.949 17.203-6.714 0.028-13.428 0.019-20.142 0.016 3.256-5.719 6.596-11.392 9.865-17.105M10.74 5.914c-0.073 0.342-0.107 0.721-0.397 0.959 0.091 0.062 0.184 0.124 0.276 0.186-0.007 0.139-0.013 0.278-0.019 0.418 0.294 0.038 0.293 0.416 0.592 0.454-1.049 0.538-0.988 2.011-2.006 2.569-0.253 0.197-0.604 0.342-0.654 0.698-0.307 0.133-0.739 0.294-0.684 0.708 0.12 0.096 0.246 0.222 0.418 0.185 0.306 0.011 0.426-0.318 0.57-0.528 0.077 0.002 0.23 0.008 0.307 0.012 0.625-0.349 1.019-1.008 1.69-1.28 0.074 0.77 0.247 1.531 0.299 2.304-0.082 0.347-0.33 0.628-0.485 0.944-0.058 0.131-0.116 0.26-0.175 0.391-0.31 0.683-0.568 1.388-0.844 2.086-0.062 0.002-0.187 0.007-0.248 0.010 0.13 0.407-0.061 0.784-0.235 1.141-0.077 0.186-0.146 0.374-0.211 0.565-0.394 0.059-0.792 0.060-1.188 0.060-0.006 0.058-0.017 0.173-0.023 0.23 0.143 0.079 0.284 0.158 0.425 0.238 0.060 0.035 0.18 0.103 0.24 0.138 0.061 0.025 0.182 0.076 0.244 0.101 0.106 0.002 0.317 0.007 0.422 0.010 0.007 0.056 0.022 0.172 0.029 0.228 0.223 0.025 0.445 0.053 0.668 0.077 0.058-0.216 0.119-0.431 0.178-0.647 0.131 0.005 0.262 0.010 0.394 0.014 0.134-0.625 0.401-1.21 0.592-1.817 0.182-0.010 0.365-0.017 0.547-0.022 0.005-0.106 0.011-0.212 0.016-0.318-0.1 0-0.3-0.001-0.4-0.002 0.272-0.809 0.67-1.597 1.272-2.21 0.523 0.677 0.738 1.528 1.242 2.218 0.005 0.073 0.012 0.22 0.016 0.293 0.054 0.013 0.163 0.041 0.218 0.054 0.385 0.478 0.656 1.038 1.051 1.51-0.042 0.42-0.295 0.766-0.635 1.001 0.296 0.095 0.606 0.103 0.914 0.11 0.206-0.128 0.332-0.332 0.419-0.554 0.115-0.065 0.232-0.127 0.349-0.188-0.008-0.319-0.12-0.618-0.286-0.888 0.067-0.053 0.2-0.16 0.266-0.214 0.004-0.038 0.011-0.114 0.014-0.152-0.157-0.21-0.312-0.421-0.49-0.614 0.234 0.019 0.264-0.164 0.275-0.352-0.188-0.010-0.377-0.020-0.564-0.035-0.204-0.376-0.466-0.716-0.649-1.104-0.031-0.062-0.094-0.188-0.126-0.252-0.242-0.517-0.418-1.063-0.516-1.625 0.072-0.679-0.304-1.285-0.451-1.931-0.23-0.548-0.128-1.144-0.097-1.716 0.37 0.062 0.616 0.346 0.8 0.648-0.007 0.433-0.008 0.865 0 1.298 0.286 0.235 0.112 0.635 0.134 0.948 0.22 0.089 0.088 0.353 0.136 0.52 0.338-0.034 0.504-0.352 0.546-0.654 0.059-0.818 0.071-1.644 0.016-2.462-0.258-0.511-0.734-0.869-1.136-1.262-0.37-0.277-0.703-0.69-1.201-0.704-0.132-0.049-0.265-0.096-0.398-0.14-0.031-0.059-0.094-0.175-0.126-0.234-0.030-0.312 0.082-0.601 0.23-0.868-0.106-0.067-0.21-0.134-0.316-0.202-0.017-0.082-0.049-0.242-0.065-0.323-0.392-0.018-0.786-0.017-1.178-0.025M7.96 16.032c0.005 0.104 0.010 0.208 0.014 0.313 0.202 0 0.404 0.004 0.606 0.014 0.048-0.102 0.086-0.209 0.116-0.318-0.246-0.007-0.491-0.008-0.737-0.010M12.155 16.034c0.023 0.127 0.046 0.254 0.070 0.382l0.106-0.133c0.175 0.049 0.356 0.066 0.539 0.071 0.004-0.106 0.007-0.212 0.012-0.319-0.242-0.001-0.484-0.001-0.726 0M16.372 16.033c-0.084 0.468 0.478 0.288 0.737 0.245-0.008-0.061-0.024-0.185-0.032-0.246-0.235 0-0.47 0-0.704 0.001M6.576 19.403c-0.005 0.113-0.011 0.226-0.016 0.338 0.265 0.001 0.53 0 0.796-0.002-0.002-0.112-0.005-0.224-0.006-0.337-0.258-0.001-0.516-0.001-0.774 0.001M8.106 19.399c-0.002 0.114-0.006 0.228-0.008 0.343 0.248-0.001 0.498 0 0.746 0.001-0.004-0.115-0.007-0.23-0.011-0.346-0.242 0.001-0.485 0.001-0.727 0.001M9.637 19.397c-0.002 0.115-0.005 0.23-0.008 0.346 0.248-0.001 0.498-0.002 0.746-0.002-0.002-0.114-0.005-0.227-0.006-0.34-0.245-0.001-0.488-0.001-0.732-0.004M11.123 19.4c-0.002 0.113-0.004 0.227-0.006 0.342 0.272-0.001 0.544-0.004 0.815-0.025-0.035-0.107-0.070-0.212-0.104-0.319-0.235 0.001-0.47 0.001-0.704 0.002M12.654 19.397c-0.001 0.115-0.002 0.229-0.002 0.344 0.247-0.001 0.496-0.001 0.743 0-0.002-0.115-0.005-0.229-0.007-0.344-0.245 0.001-0.49 0.001-0.733 0M15.674 19.398c-0.001 0.114-0.002 0.228-0.005 0.343 0.247-0.002 0.496-0.002 0.743-0.001-0.002-0.115-0.006-0.23-0.008-0.346-0.244 0.002-0.486 0.004-0.73 0.004M17.202 19.396c-0.002 0.115-0.005 0.229-0.006 0.344 0.251-0.001 0.502-0.002 0.754-0.002-0.005-0.114-0.010-0.227-0.013-0.341-0.245 0.001-0.49 0.001-0.734-0.001M14.1 19.729c0.272 0.008 0.546 0.011 0.82 0.011-0.001-0.085-0.004-0.254-0.005-0.34-0.322 0.026-0.805-0.161-0.815 0.329z"></path>
<path fill="#000" d="M10.74 5.914c0.392 0.008 0.786 0.007 1.178 0.025 0.016 0.080 0.048 0.241 0.065 0.323 0.106 0.067 0.21 0.134 0.316 0.202-0.149 0.266-0.26 0.556-0.23 0.868 0.032 0.059 0.095 0.175 0.126 0.234 0.133 0.044 0.266 0.091 0.398 0.14 0.498 0.014 0.832 0.427 1.201 0.704 0.402 0.394 0.878 0.751 1.136 1.262 0.055 0.818 0.043 1.644-0.016 2.462-0.042 0.302-0.208 0.62-0.546 0.654-0.048-0.167 0.084-0.431-0.136-0.52-0.023-0.313 0.151-0.713-0.134-0.948-0.008-0.433-0.007-0.865 0-1.298-0.185-0.302-0.431-0.586-0.8-0.648-0.031 0.572-0.133 1.168 0.097 1.716 0.148 0.646 0.523 1.252 0.451 1.931 0.098 0.562 0.274 1.108 0.516 1.625 0.032 0.064 0.095 0.19 0.126 0.252 0.184 0.388 0.445 0.728 0.649 1.104 0.187 0.014 0.376 0.025 0.564 0.035-0.011 0.187-0.041 0.371-0.275 0.352 0.178 0.193 0.332 0.404 0.49 0.614-0.004 0.038-0.011 0.114-0.014 0.152-0.066 0.054-0.199 0.161-0.266 0.214 0.166 0.27 0.277 0.569 0.286 0.888-0.118 0.061-0.234 0.124-0.349 0.188-0.086 0.222-0.212 0.426-0.419 0.554-0.308-0.007-0.618-0.016-0.914-0.11 0.34-0.235 0.593-0.581 0.635-1.001-0.395-0.472-0.666-1.032-1.051-1.51-0.055-0.013-0.164-0.041-0.218-0.054-0.004-0.073-0.011-0.22-0.016-0.293-0.504-0.69-0.719-1.541-1.242-2.218-0.602 0.613-1 1.402-1.272 2.21 0.1 0.001 0.3 0.002 0.4 0.002-0.005 0.106-0.011 0.212-0.016 0.318-0.182 0.005-0.365 0.012-0.547 0.022-0.191 0.607-0.457 1.192-0.592 1.817-0.132-0.005-0.263-0.010-0.394-0.014-0.059 0.216-0.12 0.431-0.178 0.647-0.223-0.024-0.445-0.052-0.668-0.077-0.007-0.056-0.022-0.172-0.029-0.228-0.106-0.002-0.317-0.007-0.422-0.010-0.061-0.025-0.182-0.076-0.244-0.101-0.060-0.035-0.18-0.103-0.24-0.138-0.14-0.079-0.282-0.158-0.425-0.238 0.006-0.058 0.017-0.173 0.023-0.23 0.396 0 0.794-0.001 1.188-0.060 0.065-0.191 0.134-0.379 0.211-0.565 0.174-0.358 0.365-0.734 0.235-1.141 0.061-0.002 0.186-0.007 0.248-0.010 0.276-0.697 0.534-1.403 0.844-2.086 0.059-0.131 0.118-0.26 0.175-0.391 0.155-0.317 0.403-0.598 0.485-0.944-0.052-0.773-0.224-1.534-0.299-2.304-0.671 0.272-1.064 0.931-1.69 1.28-0.077-0.004-0.23-0.010-0.307-0.012-0.144 0.21-0.264 0.539-0.57 0.528-0.172 0.037-0.298-0.089-0.418-0.185-0.055-0.414 0.377-0.575 0.684-0.708 0.050-0.356 0.401-0.502 0.654-0.698 1.019-0.558 0.958-2.032 2.006-2.569-0.299-0.037-0.298-0.415-0.592-0.454 0.006-0.139 0.012-0.278 0.019-0.418-0.092-0.062-0.185-0.124-0.276-0.186 0.29-0.238 0.324-0.617 0.397-0.959z"></path>
<path fill="#000" d="M7.96 16.032c0.246 0.001 0.491 0.002 0.737 0.010-0.030 0.109-0.068 0.216-0.116 0.318-0.202-0.011-0.404-0.014-0.606-0.014-0.005-0.106-0.010-0.209-0.014-0.313z"></path>
<path fill="#000" d="M12.155 16.034c0.242-0.001 0.484-0.001 0.726 0-0.005 0.107-0.008 0.214-0.012 0.319-0.182-0.005-0.364-0.022-0.539-0.071l-0.106 0.133c-0.024-0.127-0.047-0.254-0.070-0.382z"></path>
<path fill="#000" d="M16.372 16.033c0.234-0.001 0.469-0.001 0.704-0.001 0.008 0.061 0.024 0.185 0.032 0.246-0.259 0.043-0.821 0.223-0.737-0.245z"></path>
<path fill="#000" d="M6.576 19.403c0.258-0.002 0.516-0.002 0.774-0.001 0.001 0.113 0.004 0.226 0.006 0.337-0.265 0.002-0.53 0.004-0.796 0.002 0.005-0.113 0.011-0.226 0.016-0.338z"></path>
<path fill="#000" d="M8.106 19.399c0.242 0 0.485 0 0.727-0.001 0.004 0.115 0.007 0.23 0.011 0.346-0.248-0.001-0.498-0.002-0.746-0.001 0.002-0.115 0.006-0.229 0.008-0.343z"></path>
<path fill="#000" d="M9.637 19.397c0.244 0.002 0.487 0.002 0.732 0.004 0.001 0.113 0.004 0.226 0.006 0.34-0.248 0-0.498 0.001-0.746 0.002 0.004-0.115 0.006-0.23 0.008-0.346z"></path>
<path fill="#000" d="M11.123 19.4c0.234-0.001 0.469-0.001 0.704-0.002 0.035 0.107 0.070 0.212 0.104 0.319-0.271 0.022-0.542 0.024-0.815 0.025 0.002-0.115 0.004-0.229 0.006-0.342z"></path>
<path fill="#000" d="M12.654 19.397c0.244 0.001 0.488 0.001 0.733 0 0.002 0.115 0.005 0.229 0.007 0.344-0.247-0.001-0.496-0.001-0.743 0 0-0.115 0.001-0.229 0.002-0.344z"></path>
<path fill="#000" d="M15.674 19.398c0.244 0 0.486-0.001 0.73-0.004 0.002 0.115 0.006 0.23 0.008 0.346-0.247-0.001-0.496-0.001-0.743 0.001 0.002-0.115 0.004-0.229 0.005-0.343z"></path>
<path fill="#000" d="M17.202 19.396c0.245 0.002 0.49 0.002 0.734 0.001 0.004 0.114 0.008 0.227 0.013 0.341-0.252 0-0.503 0.001-0.754 0.002 0.001-0.115 0.004-0.229 0.006-0.344z"></path>
<path fill="#000" d="M14.1 19.729c0.010-0.49 0.493-0.302 0.815-0.329 0.001 0.085 0.004 0.254 0.005 0.34-0.274 0-0.547-0.002-0.82-0.011z"></path>
</svg>
