<!-- Generated by IcoMoon.io -->
<svg version="1.1" xmlns="http://www.w3.org/2000/svg" width="14" height="24" viewBox="0 0 14 24">
<title>information--highway-preferential-lane--g2</title>
<path fill="#454242" d="M0.86 0h12.916c0.274 0.133 0.497 0.342 0.703 0.561v23.032c-0.175 0.091-0.316 0.236-0.412 0.407h-13.51c-0.143-0.145-0.29-0.286-0.424-0.437-0.001-0.094-0.004-0.283-0.005-0.377 0.050-7.414 0.048-14.83 0.001-22.244 0.001-0.095 0.003-0.284 0.004-0.38 0.203-0.233 0.437-0.446 0.728-0.562M0.955 0.286c-0.365 0.142-0.657 0.489-0.694 0.883-0.003 7.222 0.005 14.446-0.004 21.669-0.017 0.609 0.574 1.114 1.171 1.062 3.961-0.003 7.923 0.005 11.883-0.004 0.617 0.007 1.128-0.587 1.067-1.195-0.001-7.135 0.004-14.27-0.003-21.403 0.018-0.683-0.68-1.19-1.329-1.090-4.028 0.055-8.079-0.1-12.091 0.078z"></path>
<path fill="#fff" d="M0.955 0.286c4.012-0.179 8.063-0.023 12.091-0.078 0.65-0.099 1.347 0.407 1.329 1.090 0.007 7.133 0.001 14.268 0.003 21.403 0.061 0.608-0.45 1.201-1.067 1.195-3.96 0.009-7.921 0.001-11.883 0.004-0.597 0.052-1.188-0.453-1.171-1.062 0.009-7.223 0.001-14.447 0.004-21.669 0.037-0.394 0.329-0.741 0.694-0.883M0.544 1.3c0.003 1.99-0.017 3.981 0.010 5.97-0.029 5.144-0.004 10.29-0.013 15.436-0.059 0.493 0.386 0.951 0.882 0.9 3.963-0.003 7.927 0.005 11.889-0.004 0.458-0.001 0.82-0.447 0.772-0.895-0.010-5.146 0.021-10.293-0.014-15.438 0.035-1.947 0.004-3.897 0.016-5.846 0.055-0.453-0.309-0.912-0.775-0.913-3.961-0.008-7.924-0.001-11.887-0.004-0.45-0.044-0.891 0.337-0.88 0.794z"></path>
<path fill="#fff" d="M5.751 3.895c0.496-1.047 1.024-2.082 1.543-3.119 0.53 1.038 1.077 2.070 1.58 3.121-0.511 1.051-1.050 2.091-1.581 3.132-0.517-1.042-1.042-2.083-1.542-3.134M6.149 3.895c0.357 0.784 0.767 1.544 1.128 2.326 0.442-0.75 0.809-1.547 1.199-2.326-0.373-0.784-0.783-1.553-1.18-2.326-0.386 0.773-0.784 1.542-1.147 2.326z"></path>
<path fill="#fff" d="M5.91 8.307c0.042-0.382 1.192-0.38 1.255-0.004-0.162 0.031-0.325 0.060-0.487 0.086-0.007 0.425 0.016 0.85-0.005 1.276-0.069 0-0.207 0.001-0.278 0.001-0.026-0.427-0.001-0.853-0.008-1.28-0.159-0.023-0.32-0.050-0.477-0.080z"></path>
<path fill="#fff" d="M7.745 8.127c0.939-0.434 1.329 1.268 0.451 1.534-0.86 0.22-1.153-1.184-0.451-1.534M7.87 8.373c-0.352 0.219-0.323 0.908 0.098 1.037 0.657 0.038 0.554-1.29-0.098-1.037z"></path>
<path fill="#fff" d="M3.972 10.881c1.093 0.295 2.24 0.277 3.335 0.005 1.105 0.274 2.255 0.28 3.36-0.001 1.186 2.43-0.56 5.598-3.232 5.924-2.785-0.098-4.724-3.443-3.463-5.928M4.054 11.057c-0.14 0.335-0.232 0.69-0.283 1.049 2.361 0.012 4.723 0.013 7.083 0-0.051-0.36-0.137-0.717-0.283-1.050-1.072 0.266-2.194 0.243-3.262-0.021-1.067 0.265-2.186 0.283-3.254 0.022M3.759 12.269c-0.244 2.107 1.453 4.17 3.547 4.4 2.109-0.211 3.793-2.288 3.565-4.4-2.37-0.017-4.741-0.014-7.111 0z"></path>
<path fill="#fff" d="M5.48 11.357c0.154 0.026 0.31 0.048 0.464 0.076 0.029 0.15 0.052 0.303 0.074 0.454-0.068-0.033-0.203-0.098-0.273-0.132-0.086 0.104-0.173 0.207-0.263 0.309-0.008-0.236-0.010-0.472-0.003-0.707z"></path>
<path fill="#fff" d="M8.103 11.892c0.018-0.21 0.068-0.417 0.145-0.613 0.074 0.211 0.141 0.428 0.201 0.644-0.116-0.009-0.231-0.020-0.346-0.031z"></path>
<path fill="#fff" d="M4.705 14.587c-0.305-0.892 0.523-1.837 1.439-1.766 0.003 0.093 0.009 0.28 0.012 0.374-0.421 0.051-0.827 0.228-1.046 0.612 0.517-0.091 1.345-0.010 1.366 0.672-0.067 0.891-1.535 0.909-1.77 0.108M5.121 14.391c-0.004 0.485 0.817 0.473 0.983 0.089-0.171-0.373-0.736-0.383-0.983-0.089z"></path>
<path fill="#fff" d="M9.050 12.837c0.901-0.172 1.316 0.964 1.023 1.664-0.14 0.694-1.153 0.912-1.559 0.334-0.459-0.616-0.327-1.827 0.536-1.998M9.155 13.233c-0.661 0.143-0.677 1.364-0.021 1.527 0.819 0.051 0.844-1.56 0.021-1.527z"></path>
<path fill="#fff" d="M7.283 13.486c-0.687-0.081 0.001-0.743 0.378-0.622 0.016 0.755 0.014 1.51 0.001 2.266-0.097-0.001-0.287-0.003-0.382-0.004-0.020-0.547 0.008-1.093 0.003-1.64z"></path>
<path fill="#fff" d="M6.146 19.473c0.856-0.428 1.714-0.869 2.603-1.221 0.15 0.957 0.164 1.941 0.198 2.909-0.429 0.009-0.653-0.528-0.998-0.749-0.484 0.854-0.918 1.735-1.401 2.588-0.301-0.159-0.595-0.331-0.879-0.519 0.522-0.831 1.071-1.645 1.599-2.472-0.337-0.215-1.038-0.117-1.123-0.536z"></path>
<path fill="#231f20" d="M0.544 1.3c-0.010-0.458 0.43-0.839 0.88-0.794 3.963 0.003 7.925-0.004 11.887 0.004 0.466 0.001 0.83 0.46 0.775 0.913-0.012 1.949 0.020 3.899-0.016 5.846-4.505-0.021-9.010-0.022-13.516 0.001-0.027-1.989-0.008-3.98-0.010-5.97M5.751 3.895c0.5 1.051 1.025 2.092 1.542 3.134 0.531-1.041 1.070-2.080 1.581-3.132-0.502-1.051-1.050-2.083-1.58-3.121-0.519 1.037-1.047 2.071-1.543 3.119z"></path>
<path fill="#231f20" d="M6.149 3.895c0.363-0.784 0.76-1.552 1.147-2.326 0.398 0.772 0.807 1.542 1.18 2.326-0.39 0.779-0.757 1.576-1.199 2.326-0.361-0.781-0.771-1.542-1.128-2.326z"></path>
<path fill="#828081" d="M0 0.856l0.128 0.086c0.047 7.414 0.048 14.83-0.001 22.244l-0.127 0.125v-22.456z"></path>
<path fill="#006e51" d="M0.554 7.27c4.505-0.023 9.010-0.022 13.516-0.001 0.035 5.146 0.004 10.293 0.014 15.438 0.048 0.447-0.314 0.893-0.772 0.895-3.963 0.009-7.927 0.001-11.889 0.004-0.496 0.051-0.94-0.407-0.882-0.9 0.009-5.146-0.016-10.291 0.013-15.436M5.91 8.307c0.158 0.030 0.318 0.056 0.477 0.080 0.007 0.427-0.018 0.853 0.008 1.28 0.070 0 0.209-0.001 0.278-0.001 0.021-0.425-0.001-0.85 0.005-1.276 0.162-0.026 0.325-0.055 0.487-0.086-0.063-0.376-1.213-0.378-1.255 0.004M7.745 8.127c-0.702 0.35-0.408 1.754 0.451 1.534 0.878-0.266 0.488-1.968-0.451-1.534M3.972 10.881c-1.261 2.485 0.678 5.83 3.463 5.928 2.673-0.326 4.418-3.494 3.232-5.924-1.105 0.282-2.255 0.275-3.36 0.001-1.096 0.271-2.242 0.29-3.335-0.005M6.146 19.473c0.085 0.419 0.787 0.321 1.123 0.536-0.528 0.827-1.077 1.641-1.599 2.472 0.284 0.188 0.578 0.36 0.879 0.519 0.483-0.853 0.917-1.733 1.401-2.588 0.344 0.22 0.569 0.758 0.998 0.749-0.034-0.968-0.048-1.951-0.198-2.909-0.89 0.352-1.748 0.793-2.603 1.221z"></path>
<path fill="#006e51" d="M7.87 8.373c0.652-0.253 0.755 1.075 0.098 1.037-0.421-0.129-0.45-0.818-0.098-1.037z"></path>
<path fill="#c3102f" d="M4.054 11.057c1.068 0.261 2.187 0.243 3.254-0.022 1.068 0.263 2.19 0.287 3.262 0.021 0.146 0.333 0.232 0.69 0.283 1.050-2.36 0.013-4.722 0.012-7.083 0 0.051-0.359 0.143-0.713 0.283-1.049M5.48 11.357c-0.008 0.235-0.005 0.471 0.003 0.707 0.090-0.102 0.177-0.205 0.263-0.309 0.069 0.034 0.205 0.099 0.273 0.132-0.022-0.151-0.046-0.304-0.074-0.454-0.154-0.027-0.31-0.050-0.464-0.076M6.689 12c-0.008-0.202 0.013-0.454-0.012-0.652-0.307-0.027-0.274 0.661 0.012 0.652M6.903 11.349c-0.017 0.193-0.022 0.387-0.010 0.58 0.28 0.007 0.604 0.146 0.843-0.061-0.072-0.133-0.146-0.266-0.223-0.397 0.086 0.005 0.172 0.014 0.258 0.029 0.034 0.203 0.048 0.413 0.175 0.587 0.027-0.245 0.044-0.492 0.052-0.738-0.365-0.010-0.73-0.016-1.094 0M8.103 11.892c0.115 0.012 0.23 0.022 0.346 0.031-0.060-0.217-0.127-0.433-0.201-0.644-0.077 0.196-0.127 0.403-0.145 0.613M8.57 11.335c-0.087 0.175-0.003 0.43 0.080 0.6 0.14-0.098 0.205-0.651-0.080-0.6M8.9 11.365c-0.083 0.149-0.070 0.785 0.173 0.591-0.12-0.166 0.16-0.724-0.173-0.591z"></path>
<path fill="#e8a6b1" d="M6.689 12c-0.286 0.009-0.318-0.68-0.012-0.652 0.025 0.198 0.004 0.45 0.012 0.652z"></path>
<path fill="#e18797" d="M6.903 11.349c0.364-0.016 0.729-0.010 1.094 0-0.008 0.247-0.025 0.493-0.052 0.738-0.127-0.173-0.141-0.383-0.175-0.587-0.086-0.014-0.172-0.023-0.258-0.029 0.077 0.13 0.151 0.263 0.223 0.397-0.239 0.207-0.562 0.068-0.843 0.061-0.012-0.193-0.007-0.387 0.010-0.58z"></path>
<path fill="#e59ba8" d="M8.57 11.335c0.284-0.051 0.219 0.502 0.080 0.6-0.082-0.17-0.167-0.425-0.080-0.6z"></path>
<path fill="#edbac3" d="M8.9 11.365c0.334-0.133 0.053 0.425 0.173 0.591-0.244 0.194-0.257-0.442-0.173-0.591z"></path>
<path fill="#005595" d="M3.759 12.269c2.37-0.014 4.741-0.017 7.111 0 0.228 2.112-1.456 4.188-3.565 4.4-2.093-0.23-3.79-2.293-3.547-4.4M4.705 14.587c0.235 0.801 1.703 0.783 1.77-0.108-0.021-0.682-0.849-0.763-1.366-0.672 0.219-0.383 0.625-0.561 1.046-0.612-0.003-0.094-0.009-0.282-0.012-0.374-0.916-0.070-1.744 0.874-1.439 1.766M9.050 12.837c-0.863 0.171-0.995 1.383-0.536 1.998 0.406 0.578 1.419 0.36 1.559-0.334 0.293-0.7-0.121-1.837-1.023-1.664M7.283 13.486c0.005 0.547-0.022 1.093-0.003 1.64 0.095 0.001 0.286 0.003 0.382 0.004 0.013-0.755 0.014-1.51-0.001-2.266-0.377-0.121-1.066 0.541-0.378 0.622z"></path>
<path fill="#005595" d="M9.155 13.233c0.823-0.033 0.798 1.578-0.021 1.527-0.656-0.163-0.64-1.384 0.021-1.527z"></path>
<path fill="#005595" d="M5.121 14.391c0.248-0.295 0.813-0.284 0.983 0.089-0.167 0.385-0.987 0.397-0.983-0.089z"></path>
</svg>
