<!-- Generated by IcoMoon.io -->
<svg version="1.1" xmlns="http://www.w3.org/2000/svg" width="24" height="24" viewBox="0 0 24 24">
<title>information--bicycles-crossing--g2</title>
<path fill="#1d7fb7" d="M11.746 0h0.598c0.397 0.157 0.742 0.432 0.956 0.803 3.601 5.761 7.214 11.515 10.821 17.274v5.085c-0.151 0.367-0.428 0.66-0.782 0.838h-22.549c-0.345-0.154-0.622-0.422-0.79-0.76v-5.17c3.56-5.75 7.184-11.462 10.759-17.204 0.222-0.392 0.568-0.698 0.987-0.866M11.729 0.385c-0.285 0.098-0.462 0.357-0.621 0.596-3.529 5.714-7.063 11.426-10.597 17.136-0.257 0.385-0.177 0.865-0.189 1.3 0.022 1.047-0.021 2.094 0.016 3.141-0.004 0.587 0.497 1.146 1.105 1.102 7.079 0.004 14.16 0.006 21.238-0.002 0.601 0.036 1.084-0.52 1.083-1.096 0.031-1.251 0.005-2.503 0.013-3.753 0.029-0.522-0.346-0.924-0.591-1.346-3.415-5.513-6.823-11.030-10.234-16.546-0.228-0.427-0.743-0.727-1.222-0.532z"></path>
<path fill="#1d7fb7" d="M11.872 1.011c0.229-0.239 0.459 0.090 0.59 0.271 3.365 5.44 6.725 10.884 10.092 16.324 0.264 0.451 0.665 0.884 0.613 1.446-0.017 1.169 0.028 2.341-0.022 3.508 0.017 0.388-0.379 0.546-0.708 0.502-6.999-0.012-13.998 0.013-20.997-0.013-0.63-0.007-0.491-0.796-0.509-1.219 0.083-1.131-0.151-2.311 0.124-3.412 3.346-5.45 6.725-10.881 10.081-16.326 0.238-0.363 0.418-0.775 0.736-1.081M9.086 9.746c0.568 1.042-0.425 2.001-0.719 2.974-1.333-0.461-2.948 0.023-3.666 1.269-0.877 1.362-0.373 3.359 1.046 4.139 1.438 0.902 3.531 0.265 4.231-1.278 0.737-1.423 0.063-3.261-1.327-3.999 0.030-0.071 0.090-0.215 0.121-0.287 0.836 0.804 1.666 1.616 2.488 2.434-0.291 0.587 0.024 1.17 0.528 1.503-0.082 0.137-0.164 0.275-0.246 0.412 0.154 0.001 0.308 0.004 0.462 0.005-0.025-0.142-0.051-0.283-0.075-0.426 0.469-0.080 0.855-0.357 1.047-0.796 0.283-0.001 0.567-0.002 0.851-0.006 0.103 1.643 1.638 3.037 3.298 2.841 1.805-0.101 3.177-2.066 2.627-3.795-0.42-1.681-2.383-2.605-3.982-2.018-0.288-0.712-0.678-1.385-0.907-2.118 0.022-0.475 0.798-0.253 0.888-0.707-0.491-0.655-1.29 0.031-1.898 0.111 0.267 0.154 0.54 0.298 0.812 0.446-1.656 0.045-3.312 0.001-4.968 0.023-0.119-0.379-0.386-0.736-0.357-1.146 0.066-0.417 0.58-0.368 0.89-0.461-0.016-0.069-0.047-0.206-0.063-0.276-0.64-0.049-1.394 0.429-1.081 1.155M5.624 20.623c0.057 0.555-0.166 1.204 0.211 1.679 0.072-0.488 0.060-0.984 0.059-1.476 0.195-0.037 0.392-0.076 0.589-0.115-0.194-0.086-0.391-0.168-0.586-0.248-0.002-0.469 0.007-0.939-0.058-1.404-0.373 0.434-0.164 1.046-0.215 1.564M9.401 19.182c-0.002 0.271-0.005 0.543-0.006 0.814-0.234 0.006-0.468 0.013-0.701 0.021 0.001 0.055 0.005 0.166 0.006 0.222 0.232 0.005 0.462 0.008 0.693 0.012 0.001 0.373 0.002 0.745 0.006 1.118 0.068 0.002 0.201 0.005 0.268 0.006 0.010-0.731 0.010-1.463 0-2.194-0.066 0.001-0.199 0.001-0.267 0.001M13.060 19.183c-0.002 0.373-0.002 0.745-0.001 1.117-0.248 0.037-0.497 0.076-0.744 0.123 0.002-0.356 0.035-0.722-0.070-1.067-0.479-0.172-1-0.095-1.497-0.095 0 0.060 0.002 0.181 0.004 0.241 0.446 0.001 0.892 0.002 1.339 0.011-0.035 0.575 0.004 1.236-0.406 1.696-0.328 0.304-0.785 0.397-1.154 0.636 0.864 0.148 1.575-0.503 1.789-1.294 0.245 0.024 0.491 0.043 0.738 0.061 0 0.523-0.001 1.048 0.007 1.571 0.070-0.007 0.209-0.022 0.279-0.029 0.007-0.985 0.005-1.971 0.001-2.956-0.071-0.004-0.212-0.011-0.283-0.014M14.712 19.418c0.44 0.042 0.883 0.035 1.324 0.017-0.035-0.059-0.106-0.178-0.141-0.238-0.399 0.024-0.866-0.093-1.183 0.221M16.722 20.746c-0.423 0.036-0.848 0.080-1.274 0.072 0.247-0.222 0.81-0.264 0.803-0.65-0.493-0.435-1.359-0.353-1.83 0.093 0.321 0.205 0.662 0.373 1 0.549-0.387 0.047-0.777 0.069-1.166 0.084 0.001 0.048 0.002 0.145 0.004 0.193 0.79 0.005 1.584 0.013 2.367-0.106 0.111 0.1 0.223 0.199 0.336 0.298 0.028-0.739 0.063-1.483-0.028-2.219-0.397 0.467-0.162 1.129-0.213 1.686M20.295 19.16c0.004 0.775-0.051 1.553 0.047 2.325 0.287-0.259 0.226-0.656 0.247-1.002 0.095-0.005 0.286-0.014 0.381-0.019 0.030-0.042 0.089-0.128 0.119-0.171-0.175-0.040-0.35-0.078-0.525-0.116 0.002-0.316 0.005-0.632 0.007-0.948-0.070-0.018-0.209-0.052-0.277-0.069M3.348 19.316c0.271 0.189 0.603 0.197 0.921 0.218 0.15 0.962-0.345 1.776-0.958 2.459 0.552-0.125 0.867-0.611 1.084-1.094 0.223 0.484 0.534 0.991 1.105 1.096-0.634-0.685-1.125-1.514-0.967-2.492 0.256 0 0.51-0.001 0.766-0.001-0.001-0.060-0.002-0.182-0.002-0.244-0.65-0.007-1.304-0.045-1.949 0.057M7.006 19.438c0.321 0.049 0.645 0.071 0.97 0.088-0.033 0.703-0.591 1.13-1.038 1.592 0.491-0.055 0.832-0.426 1.117-0.795 0.27 0.309 0.584 0.575 0.924 0.804 0.037-0.055 0.111-0.168 0.148-0.223-0.508-0.302-0.923-0.755-0.991-1.365 0.34-0.025 0.696-0.035 0.997-0.213-0.696-0.058-1.482-0.242-2.126 0.112M18.194 19.392c-0.116 0.473-0.321 1.587 0.49 1.462 0.534-0.013 1.201 0.040 1.561-0.441-0.614 0.071-1.216 0.221-1.834 0.25-0.010-0.385-0.012-0.769-0.008-1.154 0.492-0.028 1.041 0.109 1.477-0.186-0.545-0.051-1.193-0.21-1.685 0.070M14.474 19.573c0.004 0.057 0.010 0.169 0.013 0.224 0.667 0.008 1.34 0.049 2-0.078-0.625-0.327-1.344-0.16-2.013-0.146M7.393 22.028c0.813 0.175 1.666 0.089 2.49 0.036-0.668-0.428-1.533-0.11-2.283-0.207-0.023-0.281-0.053-0.562-0.098-0.841-0.245 0.28-0.277 0.684-0.11 1.012M18.368 22.029c0.779 0.171 1.597 0.090 2.387 0.034-0.637-0.417-1.462-0.117-2.178-0.206-0.025-0.285-0.053-0.569-0.098-0.85-0.235 0.289-0.262 0.689-0.111 1.023M15.032 21.311c-0.392 0.018-0.607 0.585-0.183 0.734 0.707 0.28 1.52 0.183 2.212-0.101-0.096-0.966-1.356-0.718-2.029-0.633z"></path>
<path fill="#1d7fb7" d="M9.572 10.767c1.617 0 3.236-0.008 4.854 0.005-0.604 1.353-1.213 2.705-1.804 4.064-0.122-0.052-0.244-0.103-0.365-0.154 0.087-0.168 0.176-0.335 0.269-0.501-0.15-0.014-0.298-0.030-0.446-0.045 0.027 0.156 0.053 0.312 0.080 0.468-0.223 0.064-0.445 0.128-0.667 0.194-0.854-0.851-1.72-1.692-2.586-2.533 0.219-0.501 0.444-1 0.666-1.499z"></path>
<path fill="#1d7fb7" d="M12.826 15.379c0.426-1.532 1.246-2.925 1.839-4.397 0.276 0.619 0.55 1.239 0.823 1.86-0.933 0.528-1.558 1.486-1.663 2.553-0.333-0.005-0.666-0.007-0.999-0.016z"></path>
<path fill="#1d7fb7" d="M5.339 13.662c0.731-0.784 1.901-0.968 2.899-0.667-0.363 0.839-0.753 1.668-1.11 2.51 0.076 0.017 0.227 0.051 0.303 0.068 0.356-0.818 0.722-1.629 1.088-2.443 1.389 0.726 1.92 2.673 0.968 3.952-0.902 1.391-3.106 1.545-4.195 0.297-0.973-0.995-0.952-2.745 0.046-3.716z"></path>
<path fill="#1d7fb7" d="M15.897 12.994c1.333-0.456 2.949 0.186 3.461 1.529 0.678 1.503-0.375 3.42-2.001 3.666-1.556 0.343-3.115-0.926-3.221-2.489 0.984-0.012 1.968 0 2.951-0.008-0.388-0.903-0.798-1.797-1.19-2.698z"></path>
<path fill="#1d7fb7" d="M14.131 15.383c0.112-0.942 0.657-1.787 1.483-2.259 0.34 0.753 0.672 1.509 1.008 2.265-0.831-0.001-1.662 0.006-2.492-0.006z"></path>
<path fill="#1d7fb7" d="M14.743 20.256c0.417-0.147 0.864-0.15 1.287-0.028-0.406 0.203-0.867 0.178-1.287 0.028z"></path>
<path fill="#1d7fb7" d="M14.805 21.711c0.617-0.35 1.485-0.393 2.054 0.075-0.659 0.2-1.447 0.341-2.054-0.075z"></path>
<path fill="#fff" d="M11.729 0.385c0.479-0.195 0.994 0.105 1.222 0.532 3.412 5.515 6.819 11.033 10.234 16.546 0.245 0.422 0.62 0.824 0.591 1.346-0.008 1.251 0.018 2.503-0.013 3.753 0.001 0.576-0.482 1.132-1.083 1.096-7.078 0.008-14.159 0.006-21.238 0.002-0.608 0.043-1.108-0.515-1.105-1.102-0.036-1.047 0.006-2.094-0.016-3.141 0.012-0.435-0.068-0.915 0.189-1.3 3.535-5.711 7.069-11.422 10.597-17.136 0.159-0.239 0.336-0.498 0.621-0.596M11.872 1.011c-0.317 0.305-0.498 0.718-0.736 1.081-3.356 5.445-6.736 10.876-10.081 16.326-0.275 1.101-0.041 2.281-0.124 3.412 0.018 0.423-0.121 1.212 0.509 1.219 6.999 0.027 13.998 0.001 20.997 0.013 0.329 0.045 0.725-0.113 0.708-0.502 0.049-1.167 0.005-2.34 0.022-3.508 0.052-0.562-0.349-0.995-0.613-1.446-3.367-5.439-6.727-10.883-10.092-16.324-0.13-0.181-0.361-0.51-0.59-0.271z"></path>
<path fill="#fff" d="M9.086 9.746c-0.314-0.726 0.44-1.205 1.081-1.155 0.016 0.070 0.047 0.207 0.063 0.276-0.31 0.093-0.824 0.043-0.89 0.461-0.029 0.41 0.238 0.767 0.357 1.146 1.656-0.022 3.312 0.022 4.968-0.023-0.271-0.148-0.545-0.292-0.812-0.446 0.608-0.080 1.407-0.766 1.898-0.111-0.089 0.453-0.866 0.232-0.888 0.707 0.229 0.733 0.619 1.406 0.907 2.118 1.599-0.587 3.563 0.336 3.982 2.018 0.55 1.729-0.821 3.694-2.627 3.795-1.661 0.195-3.196-1.199-3.299-2.841-0.285 0.004-0.568 0.005-0.851 0.006-0.192 0.439-0.578 0.716-1.047 0.796 0.024 0.142 0.049 0.283 0.075 0.426-0.154-0.001-0.308-0.004-0.462-0.005 0.082-0.137 0.164-0.275 0.246-0.412-0.504-0.333-0.819-0.915-0.528-1.503-0.823-0.818-1.652-1.629-2.488-2.434-0.030 0.072-0.090 0.216-0.121 0.287 1.389 0.738 2.064 2.576 1.327 3.999-0.699 1.544-2.793 2.181-4.231 1.278-1.418-0.78-1.922-2.777-1.046-4.139 0.719-1.246 2.334-1.729 3.666-1.269 0.294-0.973 1.287-1.932 0.719-2.974M9.572 10.767c-0.222 0.499-0.446 0.999-0.666 1.499 0.866 0.841 1.732 1.681 2.586 2.533 0.222-0.066 0.444-0.13 0.667-0.194-0.027-0.156-0.053-0.312-0.080-0.468 0.148 0.014 0.297 0.030 0.446 0.045-0.093 0.165-0.182 0.333-0.269 0.501 0.122 0.052 0.244 0.103 0.365 0.154 0.591-1.359 1.2-2.711 1.804-4.064-1.619-0.013-3.237-0.005-4.854-0.005M12.826 15.379c0.333 0.008 0.666 0.011 0.999 0.016 0.105-1.067 0.73-2.025 1.663-2.553-0.273-0.621-0.546-1.241-0.823-1.86-0.593 1.473-1.413 2.866-1.839 4.397M5.339 13.662c-0.997 0.971-1.019 2.721-0.046 3.716 1.089 1.248 3.292 1.094 4.195-0.297 0.952-1.28 0.421-3.226-0.968-3.952-0.365 0.814-0.732 1.626-1.088 2.443-0.076-0.017-0.227-0.051-0.303-0.068 0.357-0.842 0.747-1.67 1.11-2.51-0.999-0.302-2.168-0.117-2.899 0.667M15.897 12.994c0.392 0.901 0.802 1.795 1.19 2.698-0.983 0.008-1.967-0.004-2.951 0.008 0.106 1.563 1.666 2.832 3.221 2.489 1.626-0.246 2.679-2.164 2.001-3.666-0.513-1.344-2.129-1.985-3.461-1.529M14.131 15.383c0.83 0.012 1.661 0.005 2.492 0.006-0.336-0.756-0.668-1.512-1.008-2.265-0.826 0.472-1.371 1.317-1.483 2.259z"></path>
<path fill="#fff" d="M13.060 19.183c0.071 0.004 0.212 0.011 0.283 0.014 0.004 0.985 0.006 1.971-0.001 2.956-0.070 0.007-0.209 0.022-0.279 0.029-0.008-0.523-0.007-1.048-0.007-1.571-0.247-0.018-0.493-0.037-0.738-0.062-0.213 0.791-0.925 1.442-1.789 1.294 0.369-0.239 0.826-0.332 1.154-0.636 0.41-0.459 0.371-1.12 0.406-1.696-0.446-0.008-0.892-0.010-1.339-0.011-0.001-0.060-0.004-0.181-0.004-0.241 0.497 0 1.018-0.077 1.497 0.095 0.105 0.345 0.072 0.712 0.070 1.067 0.247-0.047 0.496-0.086 0.744-0.123-0.001-0.371-0.001-0.744 0.001-1.117z"></path>
<path fill="#fff" d="M20.295 19.16c0.069 0.017 0.207 0.051 0.277 0.069-0.002 0.316-0.005 0.632-0.007 0.948 0.175 0.037 0.35 0.076 0.525 0.116-0.030 0.043-0.089 0.129-0.119 0.171-0.095 0.005-0.286 0.014-0.381 0.019-0.022 0.346 0.040 0.743-0.247 1.002-0.098-0.772-0.043-1.55-0.047-2.325z"></path>
<path fill="#fff" d="M3.348 19.316c0.645-0.101 1.299-0.064 1.949-0.057 0 0.061 0.001 0.183 0.002 0.244-0.256 0-0.51 0.001-0.766 0.001-0.158 0.978 0.333 1.807 0.967 2.492-0.57-0.105-0.882-0.613-1.105-1.096-0.217 0.482-0.532 0.968-1.084 1.094 0.613-0.683 1.107-1.497 0.958-2.459-0.318-0.022-0.65-0.029-0.921-0.218z"></path>
<path fill="#fff" d="M18.194 19.392c0.492-0.28 1.14-0.121 1.685-0.070-0.437 0.294-0.985 0.158-1.477 0.186-0.004 0.385-0.001 0.769 0.008 1.154 0.619-0.029 1.221-0.178 1.834-0.25-0.359 0.481-1.026 0.428-1.561 0.441-0.81 0.125-0.605-0.989-0.49-1.462z"></path>
<path fill="#fff" d="M7.393 22.028c-0.168-0.328-0.135-0.732 0.11-1.012 0.045 0.279 0.075 0.56 0.098 0.841 0.75 0.098 1.615-0.221 2.283 0.207-0.825 0.053-1.678 0.139-2.49-0.036z"></path>
<path fill="#fefeff" d="M5.624 20.623c0.051-0.519-0.158-1.13 0.215-1.564 0.065 0.464 0.055 0.935 0.058 1.404 0.195 0.081 0.392 0.163 0.586 0.248-0.197 0.039-0.393 0.077-0.589 0.115 0.001 0.492 0.013 0.988-0.059 1.476-0.377-0.475-0.154-1.124-0.211-1.679z"></path>
<path fill="#fefeff" d="M14.712 19.418c0.317-0.314 0.784-0.197 1.183-0.221 0.035 0.059 0.106 0.178 0.141 0.238-0.441 0.018-0.884 0.025-1.324-0.017z"></path>
<path fill="#fefeff" d="M16.722 20.746c0.052-0.557-0.183-1.219 0.213-1.686 0.090 0.736 0.055 1.48 0.028 2.219-0.113-0.099-0.226-0.198-0.336-0.298-0.784 0.119-1.577 0.111-2.367 0.106-0.001-0.048-0.002-0.145-0.004-0.193 0.39-0.016 0.779-0.037 1.166-0.084-0.338-0.176-0.679-0.344-1-0.549 0.47-0.446 1.336-0.528 1.83-0.093 0.007 0.386-0.556 0.428-0.803 0.65 0.426 0.007 0.85-0.036 1.274-0.072M14.743 20.256c0.42 0.151 0.88 0.175 1.287-0.028-0.423-0.122-0.87-0.119-1.287 0.028z"></path>
<path fill="#fefeff" d="M7.006 19.438c0.644-0.355 1.43-0.17 2.126-0.112-0.301 0.178-0.657 0.188-0.997 0.213 0.069 0.61 0.484 1.064 0.991 1.365-0.037 0.055-0.111 0.168-0.148 0.223-0.34-0.229-0.654-0.496-0.924-0.804-0.285 0.369-0.626 0.739-1.117 0.795 0.447-0.462 1.006-0.889 1.038-1.592-0.324-0.017-0.649-0.039-0.97-0.088z"></path>
<path fill="#fefeff" d="M14.474 19.573c0.669-0.014 1.388-0.181 2.013 0.146-0.66 0.128-1.333 0.087-2 0.078-0.004-0.055-0.010-0.168-0.013-0.224z"></path>
<path fill="#fefeff" d="M18.368 22.029c-0.151-0.334-0.124-0.733 0.111-1.023 0.045 0.281 0.072 0.566 0.098 0.85 0.716 0.089 1.541-0.211 2.178 0.206-0.79 0.057-1.608 0.137-2.387-0.034z"></path>
<path fill="#fefeff" d="M15.032 21.311c0.673-0.084 1.932-0.333 2.029 0.633-0.692 0.285-1.505 0.381-2.212 0.101-0.423-0.15-0.209-0.716 0.183-0.734M14.805 21.711c0.607 0.416 1.395 0.275 2.054 0.075-0.569-0.468-1.436-0.425-2.054-0.075z"></path>
<path fill="#e9f3f8" d="M9.401 19.182c0.068 0 0.2 0 0.267-0.001 0.010 0.731 0.010 1.463 0 2.194-0.066-0.001-0.2-0.004-0.268-0.006-0.004-0.373-0.005-0.745-0.006-1.118-0.232-0.004-0.462-0.007-0.693-0.012-0.001-0.055-0.005-0.166-0.006-0.222 0.233-0.007 0.467-0.014 0.701-0.021 0.001-0.271 0.004-0.543 0.006-0.814z"></path>
</svg>
