<svg xmlns="http://www.w3.org/2000/svg" width="24" height="24">
    <path fill="#fff" d="M11.102 0h1.816c1.773.157 3.522.668 5.062 1.568a12.071 12.071 0 0 1 5.366 6.443c.356.996.556 2.041.654 3.093v1.811c-.157 1.774-.669 3.524-1.57 5.065-1.537 2.699-4.162 4.757-7.155 5.592-.766.225-1.557.342-2.349.428h-1.843c-1.728-.151-3.429-.646-4.943-1.499-2.622-1.461-4.664-3.933-5.581-6.793-.299-.9-.462-1.838-.559-2.78V11.08c.195-2.358 1.073-4.66 2.55-6.513C4.597 1.935 7.778.245 11.102 0zm.263.596a11.35 11.35 0 0 0-5.602 1.836C3.193 4.093 1.349 6.828.782 9.836c-.63 3.195.195 6.642 2.22 9.195 1.84 2.374 4.653 3.966 7.638 4.311 1.681.2 3.408.027 5.013-.518 2.805-.935 5.202-3.014 6.533-5.654 1.557-3.019 1.649-6.74.244-9.832a11.463 11.463 0 0 0-5.702-5.739A11.37 11.37 0 0 0 11.366.595z"/>
    <path fill="#fff" d="M10.378 6.49c1.145-.198 2.372.271 3.085 1.189.428.561.584 1.282.576 1.977-.001 1.609.001 3.218-.001 4.827-.003.74-.218 1.507-.733 2.057-.96 1.052-2.63 1.35-3.886.672-.675-.35-1.251-.937-1.466-1.679-.131-.413-.167-.851-.162-1.283.001-1.562-.001-3.125.001-4.688.008-.721.2-1.469.684-2.021a3.284 3.284 0 0 1 1.902-1.051zm.283 1.602c-.707.062-1.223.731-1.23 1.419-.02 1.564-.002 3.128-.009 4.692-.007.393.04.809.263 1.144.533.825 1.937.818 2.465-.009.212-.319.261-.712.265-1.087-.001-1.516.001-3.032-.001-4.549-.005-.442-.115-.915-.448-1.23-.335-.341-.844-.443-1.305-.38zM9.347 9.549c-.03 1.645-.035 3.296.003 4.941.055-.484.013-.973.025-1.459-.019-1.16.038-2.325-.028-3.482zM17.736 6.489a3.266 3.266 0 0 1 3.08 1.194c.426.56.58 1.28.573 1.973 0 1.609.002 3.218-.001 4.828-.003.748-.224 1.525-.75 2.075-.978 1.056-2.676 1.333-3.93.62-.648-.351-1.193-.926-1.402-1.644-.202-.611-.157-1.261-.16-1.895V9.561c.005-.723.201-1.473.688-2.025a3.285 3.285 0 0 1 1.903-1.048zm.284 1.602c-.712.058-1.233.73-1.24 1.422-.019 1.563-.002 3.127-.008 4.691-.008.396.041.813.267 1.149.538.82 1.941.809 2.466-.019.21-.319.26-.71.26-1.084-.001-1.516.001-3.032-.001-4.548-.001-.442-.114-.911-.442-1.226-.334-.34-.841-.447-1.301-.384zM3.039 7.686c.52-.379 1.038-.762 1.564-1.132.539-.024 1.08-.005 1.62-.009 0 3.653.001 7.305 0 10.957-.544.003-1.088.001-1.632 0-.002-3.07 0-6.141-.001-9.211-.518.375-1.032.755-1.55 1.131V7.686z"/>
    <path fill="#00f" d="M11.365.596A11.37 11.37 0 0 1 16.727 1.6a11.47 11.47 0 0 1 5.702 5.739c1.404 3.092 1.313 6.813-.244 9.832-1.331 2.64-3.727 4.719-6.533 5.654a11.444 11.444 0 0 1-5.013.518c-2.985-.345-5.798-1.936-7.638-4.311-2.025-2.554-2.85-6-2.22-9.195.567-3.008 2.412-5.743 4.981-7.404A11.353 11.353 0 0 1 11.365.597zm-.987 5.894a3.284 3.284 0 0 0-1.902 1.051c-.485.552-.676 1.299-.684 2.021-.002 1.562 0 3.125-.001 4.688-.005.432.031.87.162 1.283.215.742.791 1.329 1.466 1.679 1.256.678 2.927.381 3.886-.672.515-.55.729-1.317.733-2.057.003-1.609 0-3.218.001-4.827.008-.694-.148-1.416-.576-1.977a3.267 3.267 0 0 0-3.085-1.189zm7.358-.001a3.285 3.285 0 0 0-1.903 1.048c-.487.552-.683 1.302-.688 2.025v4.079c.004.633-.041 1.283.16 1.895.209.718.754 1.293 1.402 1.644 1.254.713 2.952.436 3.93-.62.527-.55.747-1.327.75-2.075.003-1.609 0-3.218.001-4.828.008-.692-.147-1.413-.573-1.972a3.266 3.266 0 0 0-3.08-1.194zM3.039 7.686v1.736c.518-.375 1.032-.755 1.55-1.131.001 3.07-.001 6.141.001 9.211.544.001 1.088.002 1.632 0 .001-3.653 0-7.305 0-10.957-.54.005-1.081-.015-1.62.009-.526.37-1.044.753-1.564 1.132z"/>
    <path fill="#00f" d="M10.661 8.092c.461-.064.97.039 1.305.38.332.315.443.787.448 1.23.003 1.516 0 3.032.001 4.549-.004.375-.053.768-.265 1.087-.527.827-1.932.834-2.465.009-.223-.335-.27-.75-.263-1.144.007-1.564-.011-3.128.009-4.692.007-.688.523-1.357 1.23-1.419zM18.02 8.091c.46-.063.967.044 1.301.384.328.315.442.785.443 1.226.003 1.516 0 3.032.001 4.548 0 .374-.05.765-.26 1.084-.525.828-1.928.84-2.466.019-.226-.336-.275-.754-.267-1.149.006-1.564-.011-3.128.008-4.691.007-.692.528-1.364 1.24-1.422z"/>
    <path fill="#e2e2ff" d="M9.347 9.549c.066 1.156.009 2.322.028 3.482-.013.486.03.975-.025 1.459a121.473 121.473 0 0 1-.003-4.941z"/>
</svg>
