<!-- Generated by IcoMoon.io -->
<svg version="1.1" xmlns="http://www.w3.org/2000/svg" width="18" height="24" viewBox="0 0 18 24">
<title>information--safety-zone--g2</title>
<path fill="#00409b" opacity="0.91" d="M0 0h0.664l-0.122 0.053c-0.204 0.075-0.352 0.241-0.475 0.413l-0.067 0.127v-0.593z"></path>
<path fill="#00409b" opacity="0.91" d="M17.32 0h0.68v0.562l-0.069-0.114c-0.127-0.167-0.278-0.326-0.482-0.395l-0.129-0.053z"></path>
<path fill="#bdd0e8" d="M0.664 0h16.656l0.129 0.053c-5.114 0.11-10.233 0.011-15.349 0.050-0.52 0.012-1.040-0.018-1.558-0.050l0.122-0.053z"></path>
<path fill="#fff" d="M0.067 0.466c0.123-0.172 0.271-0.338 0.475-0.413 0.518 0.032 1.038 0.062 1.558 0.050 5.116-0.039 10.235 0.060 15.349-0.050 0.204 0.069 0.355 0.228 0.482 0.395-0.072 7.282-0.004 14.568-0.033 21.852-0.004 0.412 0.008 0.824 0.035 1.235-0.109 0.146-0.235 0.278-0.377 0.392-5.695-0.041-11.394-0.047-17.089 0.003-0.146-0.109-0.279-0.234-0.393-0.375 0.060-7.284 0.004-14.57 0.028-21.855 0.004-0.412-0.006-0.824-0.035-1.234M0.543 0.447c-0.187 0.11-0.164 0.364-0.177 0.55 0.006 7.37-0.002 14.74 0.004 22.11-0.046 0.313 0.211 0.566 0.523 0.517 5.405 0.002 10.809 0.002 16.214 0.001 0.312 0.049 0.576-0.204 0.528-0.52 0.002-7.403 0.001-14.807 0-22.21 0.050-0.32-0.215-0.569-0.529-0.524-5.369-0.005-10.739 0.002-16.108-0.004-0.153 0.007-0.316 0.004-0.455 0.080z"></path>
<path fill="#fff" d="M3.009 1.264c2.002 0.001 4.004-0.002 6.006 0.001 0.004 0.779 0 1.558 0.002 2.337 1.997 1.189 3.988 2.386 5.978 3.587 0 3.206 0 6.412-0.001 9.618-1.995 1.195-3.991 2.389-5.978 3.597 0 0.773 0.002 1.546-0.001 2.32-2.002 0.003-4.004 0.001-6.006 0.001-0.001-7.154-0.001-14.307 0-21.461M8.994 4.669c-0.002 0.49-0.002 0.981 0 1.472 0.282-0.001 0.565-0.001 0.848-0.001 0.001-0.49 0.001-0.98 0-1.471-0.283 0-0.566 0-0.848 0M8.993 7.319c-0.001 0.485-0.001 0.97 0.001 1.455 0.283-0.001 0.566 0 0.849 0.001 0-0.486-0.001-0.971 0.001-1.456-0.284 0-0.567 0-0.851 0M11.944 7.645c-0.323 0.198-0.403 0.683-0.149 0.968 0.301 0.384 0.946 0.217 1.168 0.69-0.222 0.49-0.817 0.325-1.179 0.104-0.086 0.103-0.171 0.206-0.256 0.31 0.389 0.261 0.888 0.418 1.345 0.244 0.424-0.137 0.619-0.713 0.334-1.067-0.274-0.413-0.911-0.249-1.173-0.672 0.036-0.067 0.108-0.2 0.143-0.267 0.298-0.095 0.603-0.052 0.879 0.090 0.083-0.11 0.165-0.221 0.247-0.332-0.411-0.223-0.94-0.332-1.359-0.068M8.994 9.949c-0.002 0.486-0.002 0.973-0.001 1.459 0.284 0 0.567 0 0.85 0-0.001-0.486 0-0.972 0-1.458-0.283 0-0.566 0-0.849-0.001M12.034 10.842c-0.648 0.293-0.692 1.158-0.524 1.757 0.14 0.605 0.925 0.894 1.429 0.538 0.507-0.347 0.515-1.060 0.41-1.604-0.098-0.574-0.784-0.963-1.315-0.691M8.993 12.587c-0.001 0.489-0.001 0.977 0 1.466 0.283-0.001 0.566-0.001 0.85-0.001 0-0.488 0-0.976 0-1.464-0.284-0.001-0.567-0.001-0.85-0.001M11.907 14.207c-0.33 0.233-0.35 0.768-0.036 1.025 0.266 0.209 0.617 0.245 0.928 0.358 0.036 0.059 0.107 0.177 0.143 0.236-0.17 0.516-0.81 0.338-1.155 0.118-0.088 0.104-0.175 0.209-0.261 0.315 0.415 0.276 0.964 0.429 1.435 0.202 0.383-0.183 0.505-0.728 0.23-1.056-0.266-0.376-0.883-0.224-1.118-0.608 0.005-0.507 0.678-0.369 0.986-0.221 0.081-0.108 0.163-0.216 0.244-0.324-0.42-0.237-0.977-0.333-1.396-0.045M8.993 15.23c-0.001 0.484-0.001 0.969 0 1.453 0.284 0 0.567 0 0.851 0-0.002-0.484-0.002-0.968 0-1.452-0.284 0-0.567 0-0.851-0.001M8.994 17.862c-0.002 0.492-0.002 0.984 0 1.477 0.282 0 0.565 0 0.847-0.001 0.003-0.492 0.002-0.984 0.001-1.475-0.283-0.001-0.566-0.001-0.848-0.001z"></path>
<path fill="#fff" d="M12.14 11.237c0.657-0.369 0.983 0.546 0.831 1.053 0.035 0.501-0.645 0.831-0.963 0.408-0.238-0.434-0.274-1.116 0.132-1.461z"></path>
<path fill="#0046ac" d="M0.543 0.447c0.139-0.076 0.302-0.073 0.455-0.080 5.369 0.006 10.739-0.001 16.108 0.004 0.314-0.045 0.579 0.204 0.529 0.524 0.001 7.403 0.002 14.807 0 22.21 0.048 0.316-0.216 0.569-0.528 0.52-5.405 0.001-10.809 0.001-16.214-0.001-0.312 0.049-0.569-0.204-0.523-0.517-0.006-7.37 0.002-14.74-0.004-22.11 0.013-0.186-0.010-0.44 0.177-0.55M3.009 1.264c-0.001 7.154-0.001 14.307 0 21.461 2.002 0 4.004 0.002 6.006-0.001 0.003-0.774 0.001-1.547 0.001-2.32 1.987-1.208 3.983-2.402 5.978-3.597 0.001-3.206 0.001-6.412 0.001-9.618-1.99-1.201-3.981-2.398-5.978-3.587-0.002-0.779 0.002-1.558-0.002-2.337-2.002-0.003-4.004 0-6.006-0.001z"></path>
<path fill="#afc5e4" d="M0 0.593l0.067-0.127c0.029 0.41 0.039 0.822 0.035 1.234-0.024 7.285 0.032 14.571-0.028 21.855l-0.074-0.114v-22.848z"></path>
<path fill="#c2d2eb" d="M17.931 0.448l0.069 0.114v22.846l-0.067 0.127c-0.027-0.411-0.039-0.823-0.035-1.235 0.029-7.284-0.039-14.57 0.033-21.852z"></path>
<path fill="#000" d="M8.994 4.669c0.282 0 0.565 0 0.848 0 0.001 0.491 0.001 0.981 0 1.471-0.283 0-0.566 0-0.848 0.001-0.002-0.491-0.002-0.982 0-1.472z"></path>
<path fill="#000" d="M8.993 7.319c0.284 0 0.567 0 0.851 0-0.002 0.485-0.001 0.97-0.001 1.456-0.283-0.001-0.566-0.002-0.849-0.001-0.002-0.485-0.002-0.97-0.001-1.455z"></path>
<path fill="#000" d="M11.944 7.645c0.419-0.264 0.948-0.155 1.359 0.068-0.082 0.111-0.164 0.222-0.247 0.332-0.276-0.142-0.581-0.185-0.879-0.090-0.035 0.067-0.107 0.2-0.143 0.267 0.262 0.423 0.899 0.259 1.173 0.672 0.285 0.354 0.090 0.93-0.334 1.067-0.457 0.174-0.956 0.017-1.345-0.244 0.085-0.104 0.17-0.207 0.256-0.31 0.362 0.221 0.957 0.386 1.179-0.104-0.222-0.473-0.867-0.306-1.168-0.69-0.254-0.285-0.174-0.77 0.149-0.968z"></path>
<path fill="#000" d="M8.994 9.949c0.283 0.001 0.566 0.001 0.849 0.001 0 0.486-0.001 0.972 0 1.458-0.283 0-0.566 0-0.85 0-0.001-0.486-0.001-0.973 0.001-1.459z"></path>
<path fill="#000" d="M12.034 10.842c0.531-0.272 1.217 0.117 1.315 0.691 0.105 0.544 0.097 1.257-0.41 1.604-0.504 0.356-1.289 0.067-1.429-0.538-0.168-0.599-0.124-1.464 0.524-1.757M12.14 11.237c-0.406 0.345-0.37 1.027-0.132 1.461 0.318 0.423 0.998 0.093 0.963-0.408 0.152-0.507-0.174-1.422-0.831-1.053z"></path>
<path fill="#000" d="M8.993 12.587c0.283 0 0.566 0 0.85 0.001 0 0.488 0 0.976 0 1.464-0.284 0-0.567 0-0.85 0.001-0.001-0.489-0.001-0.977 0-1.466z"></path>
<path fill="#000" d="M11.907 14.207c0.419-0.288 0.976-0.192 1.396 0.045-0.081 0.108-0.163 0.216-0.244 0.324-0.308-0.148-0.981-0.286-0.986 0.221 0.235 0.384 0.852 0.232 1.118 0.608 0.275 0.328 0.153 0.873-0.23 1.056-0.471 0.227-1.020 0.074-1.435-0.202 0.086-0.106 0.173-0.211 0.261-0.315 0.345 0.22 0.985 0.398 1.155-0.118-0.036-0.059-0.107-0.177-0.143-0.236-0.311-0.113-0.662-0.149-0.928-0.358-0.314-0.257-0.294-0.792 0.036-1.025z"></path>
<path fill="#000" d="M8.993 15.23c0.284 0.001 0.567 0.001 0.851 0.001-0.002 0.484-0.002 0.968 0 1.452-0.284 0-0.567 0-0.851 0-0.001-0.484-0.001-0.969 0-1.453z"></path>
<path fill="#000" d="M8.994 17.862c0.282 0 0.565 0 0.848 0.001 0.001 0.491 0.002 0.983-0.001 1.475-0.282 0.001-0.565 0.001-0.847 0.001-0.002-0.493-0.002-0.985 0-1.477z"></path>
<path fill="#003e99" opacity="0.9" d="M0 23.441l0.074 0.114c0.114 0.141 0.247 0.266 0.393 0.375l0.126 0.070h-0.593v-0.559z"></path>
<path fill="#003e99" opacity="0.9" d="M17.933 23.535l0.067-0.127v0.592h-0.558l0.114-0.073c0.142-0.114 0.268-0.246 0.377-0.392z"></path>
<path fill="#afc4e4" d="M0.467 23.93c5.695-0.050 11.394-0.044 17.089-0.003l-0.114 0.073h-16.849l-0.126-0.070z"></path>
</svg>
