<!-- Generated by IcoMoon.io -->
<svg version="1.1" xmlns="http://www.w3.org/2000/svg" width="15" height="24" viewBox="0 0 15 24">
<title>information--overtaking-allowed-heavy-good-vehicles--g1</title>
<path fill="#fff" d="M0 0h14.978v0.626l-0.059-0.119c-0.129-0.283-0.403-0.488-0.724-0.455-4.499-0.003-8.999 0.003-13.498-0.002-0.263-0.024-0.492 0.106-0.697 0.252v-0.303z"></path>
<path fill="#fff" d="M0.8 7.876c-0.037-0.339 0.246-0.669 0.597-0.632 1.725-0.003 3.45-0.006 5.175 0.001 0.342-0.025 0.598 0.309 0.568 0.632 0.001 2.481 0.008 4.964 0.010 7.446-0.138 0.003-0.277 0.007-0.415 0.010-0.003 0.39-0.003 0.779 0.003 1.168 0.431 0.003 0.864 0.008 1.295-0.008 0.001-0.217 0.002-0.434-0.002-0.65-0.617-0.522-0.416-1.438-0.413-2.15 0.548-0.561 0.639-1.408 0.995-2.089 1.428 0.002 2.855-0.003 4.282 0.003 0.382 0.684 0.553 1.507 1.117 2.072 0.063 0.667 0.074 1.387-0.27 1.987-0.065 0.016-0.194 0.046-0.259 0.061-0.001 0.229 0.001 0.457 0.010 0.687 0.071 0.107 0.14 0.215 0.208 0.324-4.225 0.021-8.451 0.007-12.676 0.007 0.243-0.438 0.149-0.944 0.159-1.421-0.129-0.009-0.257-0.018-0.385-0.025 0.007-2.474 0.001-4.949 0.003-7.422M8.848 11.9c-0.2 0.499-0.392 1.002-0.585 1.504 1.73-0.114 3.468-0.116 5.198 0-0.251-0.503-0.505-1.005-0.762-1.504-1.283-0.003-2.567-0.003-3.851 0M2.156 15.312c0 0.397 0.004 0.794 0.010 1.189 1.207 0.002 2.413 0.003 3.62 0 0.001-0.397-0.002-0.794-0.009-1.191-1.207-0.003-2.414-0.005-3.621 0.002M8.835 15.791c-0.004 0.242-0.005 0.484-0.003 0.726 1.288 0.004 2.574 0.003 3.862 0.002 0.001-0.243 0.001-0.486 0-0.728-1.286-0.002-2.573-0.003-3.859 0z"></path>
<path fill="#fff" d="M14.912 23.523l0.067-0.104v0.581h-14.978v-0.333c0.183 0.187 0.431 0.3 0.696 0.281 4.5-0.003 8.999 0.003 13.499-0.003 0.308 0.025 0.562-0.173 0.717-0.422z"></path>
<path fill="#0371b3" d="M0 0.303c0.205-0.146 0.434-0.276 0.697-0.252 4.499 0.004 8.999-0.001 13.498 0.002 0.321-0.033 0.596 0.172 0.724 0.455-0.062 1.027-0.014 2.057-0.028 3.084 0.013 6.644-0.027 13.289 0.020 19.932-0.154 0.249-0.408 0.447-0.717 0.422-4.5 0.006-8.999-0.001-13.499 0.003-0.265 0.019-0.513-0.094-0.696-0.281v-23.364M0.8 7.876c-0.002 2.474 0.004 4.948-0.003 7.422 0.129 0.007 0.257 0.016 0.385 0.025-0.010 0.477 0.084 0.983-0.159 1.421 4.225 0 8.451 0.014 12.676-0.007-0.067-0.11-0.137-0.217-0.208-0.324-0.010-0.23-0.011-0.458-0.011-0.687 0.065-0.015 0.194-0.046 0.259-0.061 0.344-0.601 0.333-1.32 0.27-1.987-0.564-0.564-0.735-1.387-1.117-2.072-1.428-0.006-2.855-0.001-4.282-0.003-0.356 0.681-0.447 1.528-0.995 2.089-0.003 0.712-0.203 1.628 0.413 2.15 0.003 0.216 0.003 0.433 0.002 0.65-0.431 0.016-0.864 0.011-1.295 0.008-0.005-0.389-0.005-0.778-0.003-1.168 0.138-0.003 0.277-0.007 0.415-0.010-0.002-2.482-0.009-4.965-0.010-7.446 0.030-0.323-0.227-0.658-0.568-0.632-1.725-0.007-3.45-0.003-5.175-0.001-0.351-0.037-0.634 0.293-0.597 0.632z"></path>
<path fill="#0371b3" d="M2.156 15.312c1.207-0.007 2.414-0.004 3.621-0.002 0.007 0.398 0.010 0.794 0.009 1.191-1.207 0.003-2.413 0.002-3.62 0-0.005-0.396-0.010-0.793-0.010-1.189z"></path>
<path fill="#79b4d7" d="M14.919 0.507l0.059 0.119v22.793l-0.067 0.104c-0.047-6.643-0.007-13.288-0.020-19.932 0.014-1.027-0.034-2.058 0.028-3.084z"></path>
<path fill="#106fb6" d="M8.848 11.9c1.283-0.003 2.567-0.003 3.851 0 0.258 0.499 0.511 1.001 0.762 1.504-1.73-0.116-3.468-0.114-5.198 0 0.193-0.502 0.385-1.005 0.585-1.504z"></path>
<path fill="#106fb6" d="M8.835 15.791c1.287-0.003 2.573-0.002 3.859 0 0.001 0.242 0.001 0.484 0 0.728-1.288 0.001-2.574 0.003-3.862-0.002-0.003-0.242-0.002-0.484 0.003-0.726z"></path>
</svg>
