<!-- Generated by IcoMoon.io -->
<svg version="1.1" xmlns="http://www.w3.org/2000/svg" width="24" height="24" viewBox="0 0 24 24">
<title>information--parking--g3</title>
<path fill="#ea2d2e" d="M10.636 0h2.678c3.913 0.492 7.557 2.902 9.352 6.441 0.71 1.302 1.065 2.75 1.334 4.195v2.676c-0.492 3.915-2.902 7.558-6.441 9.354-1.302 0.71-2.749 1.065-4.195 1.334h-2.678c-3.915-0.492-7.557-2.902-9.355-6.441-0.705-1.297-1.065-2.737-1.331-4.18v-2.716c0.515-4.094 3.157-7.872 6.941-9.575 1.164-0.569 2.434-0.842 3.696-1.087M11.022 2.349c-2.659 0.284-5.148 1.745-6.719 3.905-1.902 2.546-2.381 6.054-1.298 9.033 1.533 4.54 6.738 7.37 11.382 6.153 4.797-1.026 8.217-6.098 7.35-10.935-0.638-5.021-5.707-8.87-10.716-8.155z"></path>
<path fill="#fff" d="M11.022 2.349c5.008-0.714 10.079 3.135 10.716 8.155 0.867 4.837-2.553 9.909-7.35 10.935-4.644 1.216-9.849-1.613-11.382-6.153-1.083-2.979-0.605-6.488 1.298-9.033 1.57-2.16 4.059-3.621 6.719-3.905M8.193 5.321c0 4.442-0.003 8.883 0.002 13.326 2.633 0.003 5.265 0.003 7.899 0 0.003-0.716 0.003-1.43 0.002-2.145-1.915-0.008-3.829 0-5.744-0.003-0.003-1.279-0.005-2.559 0.002-3.838 1.912-0.001 3.827 0.003 5.741-0.001 0.003-0.717 0.003-1.433 0-2.148-1.914-0.006-3.828 0.002-5.742-0.005-0.005-1.026-0.003-2.052 0-3.077 1.914-0.006 3.83 0.006 5.743-0.006 0.002-0.7 0-1.401 0-2.101-2.634-0.011-5.268-0.008-7.902-0.002z"></path>
<path fill="#030303" d="M8.193 5.321c2.634-0.006 5.268-0.009 7.902 0.002 0 0.7 0.002 1.401 0 2.101-1.914 0.012-3.829 0-5.743 0.006-0.003 1.024-0.005 2.050 0 3.077 1.914 0.006 3.828-0.002 5.742 0.005 0.003 0.715 0.003 1.431 0 2.148-1.914 0.005-3.828 0-5.741 0.002-0.006 1.279-0.005 2.559-0.002 3.838 1.914 0.003 3.828-0.005 5.744 0.003 0.002 0.715 0.002 1.429-0.002 2.145-2.634 0.003-5.267 0.003-7.899 0-0.005-4.443-0.002-8.885-0.002-13.326z"></path>
</svg>
