<svg xmlns="http://www.w3.org/2000/svg" width="24" height="24">
    <path fill="#fff" d="M11.103 0h1.812c1.774.156 3.524.668 5.065 1.569a12.068 12.068 0 0 1 5.378 6.477c.349.986.545 2.019.642 3.059v1.807c-.157 1.775-.668 3.526-1.57 5.067-1.537 2.7-4.161 4.757-7.155 5.592-.767.225-1.559.343-2.352.428h-1.837c-1.729-.15-3.432-.646-4.947-1.499-2.632-1.467-4.68-3.954-5.593-6.829-.292-.89-.452-1.817-.547-2.747v-1.842c.195-2.358 1.073-4.661 2.55-6.515C4.596 1.935 7.778.244 11.102-.001zM5.427 2.66C2.922 4.408 1.176 7.201.715 10.222c-.511 3.15.385 6.488 2.402 8.96l-.042.041c.561.573 1.128 1.141 1.703 1.702l.041-.042a11.432 11.432 0 0 0 4.105 2.116c3.249.932 6.899.306 9.649-1.659 2.486-1.735 4.223-4.499 4.701-7.493.535-3.17-.359-6.538-2.39-9.029l.041-.041a91.097 91.097 0 0 0-1.703-1.702l-.04.041A11.446 11.446 0 0 0 14.933.959C11.718.088 8.137.724 5.426 2.661z"/>
    <path fill="#fff" d="M5.575 5.995c1.015-.626 2.341-.598 3.406-.115 1.472.72 2.374 2.489 1.987 4.1a2.77 2.77 0 0 1-1.238 1.841c.144.103.286.212.422.326l-1.237 1.237c-.313-.36-.744-.625-1.222-.686-.367-.044-.739-.013-1.108-.023-.002-.556-.002-1.111 0-1.667.591-.004 1.229.045 1.757-.272.58-.33.889-1.022.818-1.677-.056-.923-.933-1.688-1.852-1.642-.846.01-1.578.705-1.685 1.536-.626.001-1.253.002-1.878 0 .067-1.213.81-2.325 1.83-2.956zM12.874 7.81c.535-1.559 2.288-2.466 3.883-2.267-1.367 1.367-2.733 2.734-4.101 4.1-.016-.616.007-1.247.217-1.833zM17.664 8.038l1.355-1.355c.617.639.893 1.536.903 2.411.005 1.922.001 3.844.001 5.766.002.831-.21 1.695-.755 2.341-.713.834-1.801 1.343-2.903 1.323a3.779 3.779 0 0 1-2.858-1.32c-.512-.61-.733-1.417-.751-2.203-.008-.651 0-1.301-.004-1.952l1.883-1.883c.007 1.232-.005 2.465.006 3.697.007.607.272 1.248.823 1.553.7.381 1.687.299 2.231-.318.336-.372.445-.89.443-1.379V9.327c.004-.454-.103-.919-.375-1.29zM7.182 18.52c1.336-1.339 2.675-2.676 4.013-4.013.006.728-.118 1.475-.477 2.117-.686 1.246-2.128 1.976-3.535 1.896zM3.676 15.196c.625-.005 1.25-.006 1.875 0 .14.352.325.69.587.967l-1.355 1.355c-.64-.606-.987-1.461-1.106-2.321z"/>
    <path fill="#00f" d="M5.427 2.66C8.138.724 11.719.087 14.934.958a11.461 11.461 0 0 1 4.249 2.157c-.807.811-1.617 1.619-2.426 2.428-1.595-.199-3.348.708-3.883 2.267-.21.586-.233 1.217-.217 1.833-.833.835-1.669 1.669-2.503 2.504a6.974 6.974 0 0 0-.422-.326A2.772 2.772 0 0 0 10.97 9.98c.388-1.612-.515-3.38-1.987-4.1-1.065-.483-2.392-.51-3.406.115-1.02.632-1.762 1.744-1.83 2.956.626.003 1.252.002 1.878 0 .107-.831.84-1.525 1.685-1.536.919-.047 1.796.719 1.852 1.642.072.655-.238 1.346-.817 1.677-.528.318-1.166.268-1.757.272-.002.555-.002 1.111 0 1.667.369.011.74-.021 1.108.023.478.061.909.327 1.222.686L6.14 16.161a3.005 3.005 0 0 1-.587-.967c-.625-.006-1.25-.005-1.875 0 .119.861.466 1.716 1.106 2.321-.555.555-1.109 1.111-1.666 1.665C1.101 16.708.204 13.37.716 10.22c.462-3.021 2.207-5.814 4.712-7.562zM19.019 6.683l1.865-1.865c2.031 2.491 2.925 5.859 2.39 9.029-.478 2.995-2.215 5.758-4.701 7.493-2.75 1.965-6.4 2.591-9.649 1.659a11.432 11.432 0 0 1-4.105-2.116c.787-.788 1.575-1.577 2.363-2.363 1.408.08 2.849-.65 3.535-1.896.36-.642.483-1.388.477-2.117l1.459-1.459c.004.651-.004 1.302.004 1.952.018.786.239 1.592.751 2.203a3.779 3.779 0 0 0 2.858 1.32c1.102.02 2.189-.488 2.902-1.323.545-.647.757-1.51.755-2.341 0-1.922.003-3.844-.001-5.766-.01-.875-.286-1.772-.903-2.411z"/>
    <path fill="#00f" d="M14.537 11.166c1.041-1.043 2.085-2.085 3.127-3.127.272.371.379.835.375 1.29v5.392c.001.488-.107 1.007-.443 1.379-.544.616-1.53.699-2.231.318-.55-.305-.816-.946-.823-1.553-.011-1.232.001-2.465-.006-3.697z"/>
    <path fill="red" d="M19.183 3.116l.04-.041c.575.56 1.142 1.128 1.703 1.702l-.041.041-1.865 1.865-1.355 1.355c-1.043 1.042-2.086 2.084-3.127 3.127-.629.627-1.256 1.255-1.883 1.883l-1.459 1.459c-1.338 1.337-2.676 2.674-4.013 4.013-.789.787-1.576 1.575-2.363 2.363l-.041.042a113.867 113.867 0 0 1-1.703-1.702l.042-.041c.557-.553 1.11-1.11 1.666-1.665l1.355-1.355a7277.235 7277.235 0 0 0 4.015-4.016c.834-.834 1.67-1.668 2.503-2.504 1.368-1.366 2.734-2.733 4.101-4.1.809-.809 1.619-1.617 2.426-2.428z"/>
</svg>
