<!-- Generated by IcoMoon.io -->
<svg version="1.1" xmlns="http://www.w3.org/2000/svg" width="24" height="24" viewBox="0 0 24 24">
<title>information--end-of-living-street--g1</title>
<path fill="#0379c1" d="M0 0h21.633c-0.691 0.631-1.323 1.324-1.988 1.981-0.71-0.202-1.439-0.913-2.189-0.477-1.385 0.62-2.789 1.195-4.173 1.818-0.001 0.077-0.005 0.232-0.008 0.31 0.229 0.006 0.457 0.013 0.686 0.020 0.003 0.895 0.003 1.791-0.001 2.686-0.446 0.003-0.891 0.003-1.337 0.004-0.010 0.914-0.009 1.828-0.004 2.743-2.149 2.174-4.297 4.347-6.447 6.52-0.249-0.291-0.509-0.573-0.774-0.85 0.26-0.305 0.682-0.655 0.497-1.104-0.153-0.577-0.989-0.794-1.375-0.323-0.304 0.336-0.096 0.789 0.019 1.157-1.78 0.2-2.341 2.178-2.639 3.659 0.255 0.103 0.509 0.213 0.779 0.273 0.065-0.776 0.131-1.587 0.731-2.165 0.029 0.854-0.045 1.723-0.389 2.515-0.978 1.063-2.043 2.044-3.022 3.106v-21.872M4.808 7.476c-0.126 0.103-0.254 0.208-0.38 0.311-0.188 0.952 0.258 1.831 0.24 2.769 0.71 0.384 0.954-0.352 0.821-0.945 1.116 0.071 2.238 0.073 3.354-0.001 0.005 0.318 0.010 0.636 0.019 0.954 0.264 0.087 0.783 0.197 0.8-0.222 0.028-0.932 0.657-2.036-0.052-2.852-0.401-0.555-0.057-1.593-0.808-1.878-1.095-0.061-2.206-0.071-3.3 0.006-0.668 0.315-0.485 1.254-0.693 1.857z"></path>
<path fill="#0379c1" d="M22.679 3.243c0.317-0.322 0.645-0.632 0.938-0.975v21.733h-21.444c1.102-1.081 2.169-2.2 3.259-3.292 0.277 0.751 0.546 1.504 0.827 2.253 0.53-0.225 1.061-0.448 1.556-0.742-0.365-0.066-0.733-0.121-1.102-0.174-0.094-0.725-0.25-1.443-0.494-2.132 3.024-3.066 6.051-6.133 9.078-9.198 2.242-0.004 4.483 0.003 6.725-0.004 0.001-2.269-0.005-4.538 0.003-6.808 0.082-0.083 0.163-0.166 0.245-0.248 0.105-0.006 0.315-0.020 0.42-0.027-0.003-0.097-0.009-0.29-0.011-0.387M13.037 16.346c-0.932 0.328-0.923 1.505-1.629 2.082-0.303 0.336-0.863 0.44-0.979 0.922 0.077 0.040 0.227 0.119 0.303 0.158 0.72-0.292 1.328-0.789 1.804-1.398-0.153 0.668-0.431 1.294-0.772 1.886 0.106 0.069 0.212 0.139 0.318 0.209-0.202 0.734-0.373 1.477-0.596 2.206-0.301 0.065-0.604 0.129-0.897 0.226 0.425 0.163 0.868 0.267 1.317 0.332 0.239-0.903 0.883-1.669 0.86-2.644 1.264-0.295 1.856 1.009 2.789 1.566-0.054 0.319-0.111 0.638-0.167 0.957 0.469-0.163 0.954-0.069 1.42 0.049 0.151-0.918 0.411-1.819 0.803-2.664 0.48 0.8 1.354 1.089 2.201 1.329 0.050 0.262 0.101 0.523 0.163 0.783 0.206-0.409 0.285-0.862 0.366-1.309-0.491-0.227-1.038-0.371-1.462-0.723-0.49-0.489-0.615-1.211-0.703-1.869 0.388 0.225 0.686 0.563 0.894 0.956-0.061 0.222-0.123 0.443-0.181 0.666 0.207 0.071 0.417 0.131 0.633 0.172 0.198-1.289-0.558-2.865-2.050-2.737 0.384-0.485 0.318-1.478-0.477-1.407-0.797 0.116-0.634 1.1-0.144 1.495-0.394 0.494-0.735 1.025-1.057 1.569-0.199-0.088-0.397-0.176-0.595-0.266 0.148-0.435 0.301-0.868 0.452-1.301-0.543-0.521-1.093-1.265-1.924-1.228 0.795-0.286 0.566-1.709-0.303-1.638-0.771 0.082-0.827 1.136-0.386 1.619z"></path>
<path fill="#0379c1" d="M14.631 4.325c0.671-0.004 1.342-0.003 2.013 0 0 0.23 0.001 0.458 0.001 0.688-0.328 0.332-0.656 0.664-0.986 0.996-0.343-0.010-0.687-0.017-1.030-0.023 0-0.554 0-1.107 0.001-1.661z"></path>
<path fill="#0379c1" d="M5.778 6.043c0.915-0.087 1.85-0.086 2.765 0 0.597 0.079 0.633 0.785 0.581 1.257-1.316-0.060-2.632-0.036-3.95-0.011 0.008-0.463 0.006-1.164 0.604-1.246z"></path>
<path fill="#0379c1" d="M5.007 7.814c0.458-0.14 0.675 0.628 0.212 0.738-0.483 0.184-0.698-0.623-0.212-0.738z"></path>
<path fill="#0379c1" d="M9.109 7.823c0.483-0.167 0.696 0.643 0.198 0.754-0.465 0.103-0.651-0.629-0.198-0.754z"></path>
<path fill="#0379c1" d="M5.659 8.345c0.949-0.281 2.057-0.283 3.004 0.001-0.997 0.074-2.006 0.075-3.004-0.001z"></path>
<path fill="#0379c1" d="M6.539 8.705c1.001-0.052 2.008-0.056 3.009 0.003-0.415 0.349-1.011 0.115-1.505 0.179-0.493-0.065-1.093 0.172-1.504-0.181z"></path>
<path fill="#0379c1" d="M6.541 9.137c0.998-0.064 2.004-0.065 3.003 0-0.929 0.291-2.073 0.292-3.003 0z"></path>
<path fill="#0379c1" d="M14.155 17.309c0.28 0.146 0.557 0.295 0.834 0.447-0.12 0.421-0.296 0.829-0.359 1.264 0.235 0.437 0.821 0.456 1.247 0.599 0.484 0.147 0.71-0.435 0.997-0.705-0.157 1.197-0.384 2.432-0.79 3.562 0.023-0.241 0.060-0.479 0.1-0.716-0.534-0.572-0.918-1.301-1.64-1.671 0.079-0.089 0.16-0.18 0.24-0.269-0.41-0.774-0.629-1.633-0.628-2.51z"></path>
<path fill="#e51636" d="M21.633 0h1.984v2.267c-0.294 0.343-0.622 0.654-0.938 0.975-0.137 0.138-0.273 0.276-0.409 0.414-0.082 0.082-0.163 0.165-0.245 0.248-0.448 0.452-0.895 0.908-1.342 1.361-0.24 0.243-0.48 0.484-0.72 0.726-0.539 0.534-1.057 1.086-1.594 1.62-0.163 0.12-0.305 0.263-0.423 0.428-0.882 0.894-1.769 1.782-2.649 2.677-3.027 3.065-6.054 6.131-9.078 9.198-0.262 0.266-0.525 0.529-0.788 0.794-1.090 1.093-2.157 2.211-3.259 3.292h-2.173v-2.128c0.979-1.062 2.044-2.043 3.022-3.106 1.071-1.033 2.1-2.108 3.151-3.161 2.15-2.173 4.298-4.346 6.447-6.52 1.014-1.025 2.029-2.051 3.041-3.077 0.329-0.332 0.657-0.664 0.986-0.996 1.001-1.010 1.999-2.022 3-3.032 0.665-0.657 1.297-1.351 1.988-1.981z"></path>
<path fill="#fff" d="M17.456 1.504c0.751-0.435 1.48 0.276 2.189 0.477-1.001 1.010-1.999 2.022-3 3.032 0-0.23-0.001-0.458-0.001-0.688-0.671-0.003-1.342-0.004-2.013 0-0.001 0.554-0.001 1.107-0.001 1.661 0.343 0.006 0.687 0.013 1.030 0.023-1.012 1.025-2.027 2.051-3.041 3.077-0.005-0.915-0.006-1.829 0.004-2.743 0.446-0.001 0.891-0.001 1.337-0.004 0.004-0.895 0.004-1.791 0.001-2.686-0.229-0.008-0.457-0.014-0.686-0.020 0.003-0.078 0.006-0.234 0.008-0.31 1.384-0.623 2.788-1.197 4.173-1.818z"></path>
<path fill="#fff" d="M22.27 3.656c0.135-0.138 0.272-0.276 0.409-0.414 0.003 0.097 0.009 0.29 0.011 0.387-0.105 0.006-0.315 0.020-0.42 0.027z"></path>
<path fill="#fff" d="M20.683 5.265c0.447-0.453 0.894-0.909 1.342-1.361-0.008 2.27-0.001 4.54-0.003 6.808-2.242 0.006-4.483 0-6.725 0.004 0.88-0.895 1.767-1.783 2.649-2.677 0.271 0.123 0.546-0.158 0.423-0.428 0.537-0.534 1.056-1.086 1.594-1.62 0.244 0.003 0.488 0.004 0.733 0.005-0.005-0.244-0.009-0.488-0.013-0.731z"></path>
<path fill="#fff" d="M4.808 7.476c0.208-0.604 0.026-1.542 0.693-1.857 1.094-0.078 2.205-0.068 3.3-0.006 0.751 0.285 0.407 1.323 0.808 1.878 0.71 0.816 0.080 1.92 0.052 2.852-0.018 0.419-0.536 0.309-0.8 0.222-0.009-0.318-0.014-0.636-0.019-0.954-1.116 0.074-2.238 0.073-3.354 0.001 0.133 0.592-0.111 1.329-0.821 0.945 0.018-0.938-0.428-1.817-0.24-2.769 0.126-0.103 0.254-0.208 0.38-0.311M5.778 6.043c-0.597 0.082-0.596 0.783-0.604 1.246 1.317-0.024 2.634-0.049 3.95 0.011 0.052-0.472 0.017-1.178-0.581-1.257-0.915-0.086-1.85-0.087-2.765 0M5.007 7.814c-0.486 0.115-0.271 0.922 0.212 0.738 0.463-0.11 0.246-0.878-0.212-0.738M9.109 7.823c-0.453 0.125-0.267 0.858 0.198 0.754 0.498-0.111 0.285-0.922-0.198-0.754M5.659 8.345c0.998 0.077 2.007 0.075 3.004 0.001-0.947-0.285-2.055-0.282-3.004-0.001M6.539 8.705c0.411 0.354 1.011 0.116 1.504 0.181 0.494-0.064 1.090 0.17 1.505-0.179-1.001-0.059-2.008-0.055-3.009-0.003M6.541 9.137c0.929 0.292 2.073 0.291 3.003 0-0.998-0.065-2.004-0.064-3.003 0z"></path>
<path fill="#fff" d="M4.52 13.328c0.386-0.471 1.222-0.254 1.375 0.323 0.185 0.449-0.236 0.799-0.497 1.104 0.264 0.277 0.525 0.559 0.774 0.85-1.051 1.053-2.080 2.128-3.151 3.161 0.345-0.791 0.419-1.661 0.389-2.515-0.6 0.578-0.666 1.389-0.731 2.165-0.269-0.060-0.523-0.17-0.779-0.273 0.297-1.481 0.859-3.458 2.639-3.659-0.115-0.368-0.323-0.821-0.019-1.157z"></path>
<path fill="#fff" d="M13.037 16.346c-0.442-0.483-0.386-1.537 0.386-1.619 0.868-0.071 1.098 1.352 0.303 1.638 0.831-0.037 1.381 0.707 1.924 1.228-0.151 0.433-0.304 0.866-0.452 1.301 0.198 0.089 0.396 0.177 0.595 0.266 0.322-0.544 0.663-1.075 1.057-1.569-0.49-0.394-0.652-1.379 0.144-1.495 0.795-0.071 0.862 0.922 0.477 1.407 1.492-0.128 2.248 1.448 2.050 2.737-0.216-0.041-0.426-0.101-0.633-0.172 0.059-0.223 0.12-0.444 0.181-0.666-0.208-0.393-0.506-0.731-0.894-0.956 0.088 0.657 0.213 1.38 0.703 1.869 0.424 0.351 0.97 0.495 1.462 0.723-0.082 0.447-0.161 0.9-0.366 1.309-0.063-0.259-0.114-0.521-0.163-0.783-0.846-0.24-1.721-0.529-2.201-1.329-0.392 0.845-0.652 1.746-0.803 2.664-0.466-0.117-0.951-0.212-1.42-0.049 0.056-0.319 0.114-0.638 0.167-0.957-0.933-0.558-1.526-1.861-2.789-1.566 0.023 0.975-0.622 1.741-0.86 2.644-0.449-0.065-0.892-0.169-1.317-0.332 0.294-0.097 0.596-0.161 0.897-0.226 0.223-0.729 0.394-1.472 0.596-2.206-0.106-0.070-0.212-0.14-0.318-0.209 0.341-0.591 0.619-1.218 0.772-1.886-0.476 0.609-1.084 1.106-1.804 1.398-0.075-0.040-0.226-0.119-0.303-0.158 0.116-0.481 0.677-0.586 0.979-0.922 0.706-0.577 0.697-1.754 1.629-2.082M14.155 17.309c-0.001 0.877 0.218 1.736 0.628 2.51-0.080 0.089-0.161 0.18-0.24 0.269 0.723 0.37 1.107 1.099 1.64 1.671-0.040 0.237-0.077 0.475-0.1 0.716 0.406-1.13 0.633-2.364 0.79-3.562-0.287 0.269-0.513 0.851-0.997 0.705-0.426-0.143-1.012-0.162-1.247-0.599 0.063-0.435 0.239-0.843 0.359-1.264-0.277-0.152-0.554-0.301-0.834-0.447z"></path>
<path fill="#fff" d="M5.432 20.708c0.263-0.266 0.526-0.529 0.788-0.794 0.244 0.689 0.4 1.407 0.494 2.132 0.369 0.052 0.737 0.107 1.102 0.174-0.495 0.294-1.026 0.517-1.556 0.742-0.281-0.749-0.55-1.503-0.827-2.253z"></path>
<path fill="#0a7bc1" d="M19.963 5.991c0.24-0.243 0.48-0.484 0.72-0.726 0.004 0.244 0.008 0.488 0.013 0.731-0.245-0.001-0.489-0.003-0.733-0.005z"></path>
<path fill="#4390c6" d="M17.946 8.039c0.117-0.165 0.259-0.308 0.423-0.428 0.124 0.269-0.152 0.55-0.423 0.428z"></path>
</svg>
