<?xml version="1.0" encoding="utf-8"?>
<!-- Generated by IcoMoon.io -->
<!DOCTYPE svg PUBLIC "-//W3C//DTD SVG 1.1//EN" "http://www.w3.org/Graphics/SVG/1.1/DTD/svg11.dtd">
<svg version="1.1" xmlns="http://www.w3.org/2000/svg" xmlns:xlink="http://www.w3.org/1999/xlink" width="24" height="24" viewBox="0 0 24 24">
<path fill="#03408b" d="M0 0h1.503c-0.759 0.136-1.378 0.752-1.503 1.515v-1.515z"></path>
<path fill="#03408b" d="M22.38 0h1.62v24h-24v-1.609c0.148 0.883 0.972 1.562 1.869 1.525 6.719 0.001 13.439 0.001 20.158-0.001 0.981 0.047 1.885-0.793 1.883-1.78 0.011-6.513 0-13.026 0.005-19.54-0.006-0.557 0.063-1.155-0.224-1.659-0.25-0.507-0.768-0.824-1.31-0.936z"></path>
<path fill="#03408b" d="M1.589 0.244c0.266-0.027 0.534-0.017 0.8-0.018 6.585 0.005 13.169-0.004 19.753 0.005 0.849-0.008 1.579 0.789 1.528 1.63 0.002 6.725 0.002 13.45 0 20.176 0.054 0.886-0.756 1.692-1.643 1.63-6.755-0.002-13.51 0.005-20.264-0.003-0.852 0.011-1.59-0.785-1.537-1.631-0.002-6.724-0.002-13.448 0-20.171-0.046-0.782 0.579-1.54 1.362-1.618M15.26 1.665c-0.649 0.065-1.191 0.536-1.856 0.517-0.836 0.013-1.691-0.029-2.505 0.206-0.455 0.131-0.903 0.397-1.128 0.828-0.209 0.354-0.097 0.809 0.118 1.135 0.305 0.427 0.843 0.595 1.337 0.682 1.13 0.185 2.282 0.001 3.418 0.123 0.194 0.011 0.328 0.172 0.477 0.279 0.775 0.663 1.7 1.124 2.655 1.467 0.204 0.798 0.22 1.625 0.234 2.443 0.014 1.513-0.081 3.029 0.043 4.539 0.231 0.007 0.478 0.049 0.691-0.070 0.025-0.136 0.034-0.274 0.028-0.412-0.072-1.83-0.319-3.66-0.163-5.492-0.089-0.422-0.177-0.847-0.158-1.28 0.32-0.282 0.628-0.587 0.992-0.811 0.297-0.079 0.611-0.073 0.909-0.153 0.778-0.196 1.476-0.613 2.151-1.036 0.61-0.309 0.514-1.326-0.085-1.591-0.726-0.336-1.57-0.253-2.319-0.038 0.079-0.22 0.232-0.492 0.051-0.707-0.301-0.35-0.788-0.445-1.217-0.544-1.21-0.215-2.454-0.221-3.673-0.084M0.984 7.368c0 0.217 0 0.434 0.001 0.651 2.244-0.621 4.488-1.243 6.732-1.864 0.155-0.058 0.318-0.044 0.473 0.006 2.234 0.62 4.469 1.238 6.702 1.856 0.001-0.216 0.001-0.433 0.001-0.65-2.231-0.618-4.463-1.233-6.693-1.854-0.165-0.058-0.34-0.068-0.504-0.004-2.237 0.622-4.475 1.238-6.713 1.859M7.582 6.626c-1.779 0.501-3.559 0.99-5.339 1.488 0.001 1.915 0 3.83 0 5.744 2.288 0.001 4.576 0 6.862 0 0.001-1.708 0-3.416 0.001-5.125 0.974 0 1.947 0 2.922 0 0 1.709 0 3.417 0 5.125 0.537 0 1.074 0 1.612 0 0-1.915 0-3.83 0-5.744-1.832-0.509-3.662-1.019-5.494-1.527-0.187-0.069-0.38-0.011-0.564 0.039M14.594 13.762c-0.59 0.284-0.642 1.206-0.082 1.549 0.531 0.396 1.378-0.001 1.41-0.664 0.098-0.687-0.729-1.245-1.328-0.885M19.759 14.364c-0.241 0.328-0.063 0.851 0.33 0.96 0.298 0.102 0.566-0.108 0.827-0.214-0.025 0.069-0.076 0.208-0.102 0.277 0.079 0.046 0.236 0.137 0.315 0.183 0.023-0.041 0.069-0.123 0.092-0.163 0.169 0.068 0.34 0.177 0.532 0.108-0.128-0.113-0.26-0.222-0.396-0.325 0.023-0.045 0.070-0.133 0.094-0.178-0.094-0.053-0.187-0.106-0.279-0.158-0.052 0.034-0.157 0.105-0.209 0.14-0.089-0.236-0.036-0.534-0.233-0.72-0.26-0.283-0.768-0.237-0.971 0.089M13.652 15.319c-0.742 0.297-1.49 0.584-2.225 0.898-0.346 0.097-0.257 0.666 0.106 0.644 0.437-0.094 0.843-0.297 1.264-0.443-0.073 0.367-0.113 0.741-0.225 1.097-0.254 0.386-0.79 0.623-0.755 1.151-0.044 0.044-0.132 0.132-0.176 0.176-0.384-0.195-0.754-0.424-1.152-0.592-0.268-0.127-0.584 0.165-0.509 0.445 0.054 0.237 0.317 0.317 0.501 0.432 0.394 0.191 0.759 0.443 1.171 0.592 0.253 0.070 0.405-0.19 0.565-0.334 0.194-0.232 0.485-0.332 0.742-0.477 0.094 0.215 0.248 0.394 0.466 0.491-0.025 0.877-0.184 1.746-0.191 2.622 0.095 0.419 0.771 0.34 0.768-0.085 0.091-1.322 0.435-2.71-0.104-3.982 0.235-0.3 0.473-0.598 0.71-0.898 0.273 0.398 0.481 0.846 0.804 1.207 0.282 0.212 0.674-0.189 0.456-0.466-0.382-0.686-0.791-1.359-1.189-2.036-0.193-0.349-0.626-0.642-1.026-0.443M18.798 16.222c-0.119-0.123-0.23-0.256-0.365-0.358-0.191-0.151-0.505 0.121-0.37 0.329 0.172 0.247 0.365 0.521 0.644 0.648 0.246-0.055 0.455-0.205 0.678-0.314 0.054 0.167 0.109 0.335 0.164 0.503-0.104 0.324-0.208 0.649-0.312 0.975l0.161 0.055c-0.096 0.377-0.283 0.754-0.206 1.152 0.057 0.408 0.075 0.826 0.184 1.225 0.127 0.181 0.43 0.137 0.497-0.077 0.011-0.48-0.143-0.95-0.127-1.43 0.046-0.317 0.159-0.619 0.265-0.921 0.24 0.246 0.389 0.589 0.674 0.781 0.457-0.075 0.894-0.254 1.329-0.41 0.277-0.082 0.182-0.531-0.098-0.513-0.383 0.065-0.736 0.248-1.118 0.32 0.019-0.11 0.070-0.206 0.15-0.288-0.162-0.294-0.321-0.589-0.482-0.883 0.086-0.228 0.179-0.453 0.283-0.673 0.124 0.216 0.249 0.433 0.398 0.635 0.207 0.171 0.532-0.121 0.382-0.348-0.097-0.213-0.17-0.46-0.35-0.616-0.365-0.176-0.752-0.31-1.143-0.418-0.443 0.135-0.823 0.425-1.239 0.625M16.034 19.783c-0.593 0.246-0.664 1.158-0.119 1.496 0.497 0.374 1.294 0.020 1.345-0.599 0.121-0.65-0.642-1.21-1.226-0.897z"></path>
<path fill="#03408b" d="M15.404 5.167c0.58 0.016 1.162 0.087 1.74 0.022 0.748-0.134 1.478 0.152 2.228 0.15-0.445 0.417-0.861 0.876-1.394 1.183-0.968-0.196-1.837-0.71-2.574-1.355z"></path>
<path fill="#03408b" d="M3.734 8.734c1.378 0 2.754 0 4.132 0 0 0.788 0 1.575 0 2.363-1.378 0.001-2.754 0-4.132 0.001 0-0.789 0-1.576 0-2.364z"></path>
<path fill="#fff" d="M1.503 0h20.877c0.542 0.112 1.060 0.429 1.31 0.936 0.288 0.504 0.218 1.102 0.224 1.659-0.005 6.513 0.006 13.026-0.005 19.54 0.002 0.987-0.902 1.826-1.883 1.78-6.719 0.002-13.439 0.002-20.158 0.001-0.897 0.036-1.722-0.642-1.869-1.525v-20.876c0.126-0.763 0.744-1.379 1.503-1.515M1.589 0.244c-0.783 0.078-1.408 0.835-1.362 1.618-0.002 6.723-0.002 13.447 0 20.171-0.053 0.846 0.685 1.643 1.537 1.631 6.754 0.008 13.509 0.001 20.264 0.003 0.886 0.062 1.697-0.744 1.643-1.63 0.002-6.725 0.002-13.45 0-20.176 0.051-0.842-0.679-1.638-1.528-1.63-6.584-0.009-13.168 0-19.753-0.005-0.266 0.001-0.534-0.009-0.8 0.018z"></path>
<path fill="#fff" d="M15.26 1.665c1.219-0.137 2.462-0.131 3.673 0.084 0.429 0.1 0.915 0.194 1.217 0.544 0.181 0.214 0.028 0.486-0.051 0.707 0.749-0.215 1.593-0.297 2.319 0.038 0.599 0.265 0.695 1.282 0.085 1.591-0.674 0.423-1.372 0.839-2.151 1.036-0.298 0.080-0.612 0.074-0.909 0.153-0.365 0.224-0.672 0.53-0.992 0.811-0.019 0.433 0.069 0.858 0.158 1.28-0.156 1.832 0.091 3.662 0.163 5.492 0.006 0.138-0.003 0.276-0.028 0.412-0.213 0.118-0.46 0.077-0.691 0.070-0.124-1.511-0.029-3.026-0.043-4.539-0.014-0.818-0.030-1.645-0.234-2.443-0.955-0.343-1.879-0.804-2.655-1.467-0.149-0.107-0.283-0.268-0.477-0.279-1.137-0.122-2.288 0.062-3.418-0.123-0.495-0.086-1.032-0.255-1.337-0.682-0.215-0.325-0.327-0.78-0.118-1.135 0.225-0.431 0.673-0.697 1.128-0.828 0.814-0.235 1.669-0.192 2.505-0.206 0.665 0.019 1.206-0.452 1.856-0.517M15.404 5.167c0.737 0.645 1.605 1.158 2.574 1.355 0.533-0.308 0.95-0.767 1.394-1.183-0.749 0.002-1.479-0.284-2.228-0.15-0.579 0.065-1.161-0.006-1.74-0.022z"></path>
<path fill="#fff" d="M0.984 7.368c2.238-0.62 4.476-1.236 6.713-1.859 0.164-0.063 0.339-0.054 0.504 0.004 2.23 0.62 4.462 1.235 6.693 1.854 0 0.217 0 0.434-0.001 0.65-2.234-0.617-4.469-1.235-6.702-1.856-0.155-0.050-0.318-0.064-0.473-0.006-2.244 0.621-4.488 1.243-6.732 1.864-0.001-0.217-0.001-0.434-0.001-0.651z"></path>
<path fill="#fff" d="M7.582 6.626c0.184-0.051 0.377-0.108 0.564-0.039 1.832 0.508 3.662 1.018 5.494 1.527 0 1.915 0 3.83 0 5.744-0.538 0-1.075 0-1.612 0 0-1.708 0-3.416 0-5.125-0.975 0-1.948 0-2.922 0-0.001 1.709 0 3.417-0.001 5.125-2.287 0-4.575 0.001-6.862 0 0-1.915 0.001-3.83 0-5.744 1.78-0.498 3.561-0.987 5.339-1.488M3.734 8.734c0 0.788 0 1.575 0 2.364 1.378-0.001 2.754 0 4.132-0.001 0-0.788 0-1.575 0-2.363-1.378 0-2.754 0-4.132 0z"></path>
<path fill="#fff" d="M14.594 13.762c0.598-0.359 1.425 0.198 1.328 0.885-0.032 0.663-0.879 1.060-1.41 0.664-0.56-0.343-0.508-1.265 0.082-1.549z"></path>
<path fill="#fff" d="M19.759 14.364c0.204-0.326 0.712-0.372 0.971-0.089 0.196 0.186 0.143 0.484 0.233 0.72 0.052-0.035 0.157-0.106 0.209-0.14 0.092 0.052 0.186 0.105 0.279 0.158-0.024 0.045-0.071 0.133-0.094 0.178 0.136 0.103 0.268 0.212 0.396 0.325-0.192 0.069-0.363-0.041-0.532-0.108-0.024 0.041-0.070 0.123-0.092 0.163-0.079-0.046-0.236-0.137-0.315-0.183 0.026-0.070 0.077-0.209 0.102-0.277-0.261 0.106-0.529 0.316-0.827 0.214-0.394-0.109-0.571-0.632-0.33-0.96z"></path>
<path fill="#fff" d="M13.652 15.319c0.4-0.199 0.833 0.094 1.026 0.443 0.398 0.677 0.806 1.351 1.189 2.036 0.218 0.277-0.175 0.678-0.456 0.466-0.323-0.362-0.531-0.809-0.804-1.207-0.237 0.299-0.475 0.597-0.71 0.898 0.539 1.273 0.195 2.661 0.104 3.982 0.003 0.425-0.673 0.504-0.768 0.085 0.007-0.876 0.166-1.745 0.191-2.622-0.218-0.098-0.373-0.276-0.466-0.491-0.257 0.144-0.548 0.245-0.742 0.477-0.16 0.143-0.312 0.403-0.565 0.334-0.411-0.15-0.777-0.401-1.171-0.592-0.184-0.115-0.447-0.195-0.501-0.432-0.075-0.279 0.241-0.571 0.509-0.445 0.398 0.168 0.768 0.397 1.152 0.592 0.044-0.044 0.132-0.132 0.176-0.176-0.034-0.528 0.502-0.765 0.755-1.151 0.112-0.356 0.153-0.73 0.225-1.097-0.422 0.145-0.827 0.349-1.264 0.443-0.363 0.022-0.452-0.548-0.106-0.644 0.736-0.314 1.484-0.601 2.225-0.898z"></path>
<path fill="#fff" d="M18.798 16.222c0.417-0.201 0.797-0.49 1.239-0.625 0.391 0.108 0.778 0.242 1.143 0.418 0.18 0.156 0.254 0.403 0.35 0.616 0.15 0.228-0.176 0.519-0.382 0.348-0.149-0.202-0.274-0.419-0.398-0.635-0.104 0.22-0.196 0.446-0.283 0.673 0.161 0.294 0.32 0.589 0.482 0.883-0.080 0.082-0.131 0.178-0.15 0.288 0.382-0.072 0.735-0.255 1.118-0.32 0.279-0.018 0.375 0.431 0.098 0.513-0.435 0.157-0.872 0.336-1.329 0.41-0.286-0.192-0.434-0.535-0.674-0.781-0.106 0.301-0.219 0.604-0.265 0.921-0.017 0.48 0.138 0.95 0.127 1.43-0.066 0.214-0.37 0.258-0.497 0.077-0.109-0.399-0.127-0.817-0.184-1.225-0.077-0.398 0.11-0.775 0.206-1.152l-0.161-0.055c0.104-0.325 0.208-0.65 0.312-0.975-0.055-0.168-0.11-0.336-0.164-0.503-0.223 0.109-0.432 0.259-0.678 0.314-0.279-0.128-0.472-0.401-0.644-0.648-0.135-0.209 0.179-0.48 0.37-0.329 0.135 0.103 0.245 0.236 0.365 0.358z"></path>
<path fill="#fff" d="M16.034 19.783c0.584-0.314 1.346 0.246 1.226 0.897-0.052 0.619-0.849 0.973-1.345 0.599-0.544-0.338-0.474-1.25 0.119-1.496z"></path>
</svg>
