<svg xmlns="http://www.w3.org/2000/svg" width="24" height="24">
    <path fill="#fff" d="M0 4.615h.835l-.151.061c-.255.085-.471.249-.684.409v-.47zM22.908 4.615h.815v.548a1.778 1.778 0 0 0-.676-.48l-.14-.068zM7.079 6.327c.751-.002 1.503-.002 2.255 0v.612c-.55.003-1.1 0-1.65.002 0 .17.001.34 0 .51l.933.002v.618l-.932.002c.001.244-.001.487-.001.731.564.003 1.129 0 1.694.002v.618c-.767.003-1.534.002-2.3.001-.001-1.033-.001-2.066.001-3.098zM9.892 6.334c.241-.001.482.001.722-.001l.545.878c.174-.297.35-.591.532-.882.241.002.482.006.722.006-.289.495-.586.984-.875 1.478.323.537.646 1.075.964 1.615-.24.006-.479.01-.718.017a85.43 85.43 0 0 1-.626-1.05c-.214.345-.429.689-.642 1.034-.237-.003-.474-.001-.711-.003.3-.556.7-1.068.949-1.645-.264-.495-.585-.959-.862-1.447zM13.145 9.426c0-1.033-.002-2.067.002-3.1l.615.002c.002 1.033.002 2.066.001 3.1l-.618-.002zM14.308 6.327h2.3l-.001.614c-.281-.002-.563.003-.844.001-.003.829 0 1.657-.002 2.485h-.596c-.002-.828.001-1.657-.002-2.485-.285.002-.57-.003-.855-.001v-.614zM1.643 12.657c.219-1.17 1.764-1.608 2.648-.888.684.465.709 1.58.018 2.051-.654.447-1.49.766-1.778 1.579.764.011 1.529.001 2.293.006l.001.748c-1.059.001-2.116.002-3.175 0 .014-1.071.658-2.077 1.608-2.561.342-.217.944-.417.81-.935-.306-.716-1.543-.628-1.707.162a83.181 83.181 0 0 0-.718-.162zM5.928 12.358c.308-.723 1.185-1.157 1.927-.831.808.299 1.157 1.372.647 2.078.719.645.489 1.95-.326 2.41-.904.56-2.186.018-2.431-1.014.238-.073.476-.142.715-.21.151.737 1.238.959 1.619.297.327-.517-.078-1.239-.712-1.12-.001-.234.003-.469.001-.702.346.037.74-.19.627-.584-.137-.682-1.13-.637-1.388-.057-.227-.088-.454-.175-.679-.266zM12.422 11.497c.82.065 1.705-.167 2.474.19.786.409.738 1.638-.042 2.031.949.399.956 1.857.042 2.291-.792.278-1.655.089-2.477.143 0-1.551-.001-3.104.001-4.656zm.735.739c-.002.38-.001.762-.001 1.142.375-.009.754.036 1.125-.028.442-.109.671-.862.198-1.071-.434-.09-.882-.028-1.322-.042zm0 1.893c-.002.425-.002.849 0 1.273.457-.018.923.049 1.374-.041.546-.219.31-1.15-.229-1.218-.38-.037-.763-.009-1.145-.014zM18.65 13.021c1.231-.259 2.473-.479 3.708-.722.215-.084.445.122.356.345-.228 1.252-.46 2.505-.705 3.753-.01.239-.376.31-.474.092-.307-.465-.569-.958-.868-1.428-.921 1.049-1.831 2.108-2.751 3.156-.374-.37-.748-.74-1.122-1.113 1.059-.908 2.114-1.822 3.17-2.734-.473-.305-.974-.563-1.445-.869-.232-.118-.117-.477.129-.482zM0 18.927c.174.172.377.32.607.408l.123.05H0v-.458zM23.118 19.322a1.93 1.93 0 0 0 .606-.434v.497h-.746l.14-.063z"/>
    <path fill="#99c2b6" d="M.835 4.615h22.073l.14.068c-7.097.057-14.196.005-21.294.027-.357.006-.714-.014-1.07-.034l.151-.061z"/>
    <path fill="#036649" d="M0 5.086c.214-.16.428-.324.684-.409.356.02.713.04 1.07.034 7.098-.022 14.197.03 21.294-.027.26.103.491.271.676.48v13.723a1.888 1.888 0 0 1-.606.434c-7.089-.068-14.181-.003-21.271-.032-.414-.007-.827.021-1.239.045a1.785 1.785 0 0 1-.607-.408V5.085zm7.079 1.241c-.002 1.033-.002 2.066-.001 3.098.767.001 1.533.002 2.3-.001a63.654 63.654 0 0 1 0-.618c-.565-.002-1.13.001-1.694-.002 0-.244.002-.487.001-.731l.932-.002v-.618l-.933-.002c.001-.17 0-.34 0-.51.55-.002 1.1.001 1.649-.002v-.612c-.752-.002-1.503-.002-2.255 0zm2.813.007c.278.488.598.953.862 1.447-.249.577-.649 1.089-.949 1.645.238.002.474 0 .712.003l.642-1.034c.206.352.415.702.626 1.05.239-.007.478-.011.718-.017-.319-.54-.642-1.078-.964-1.615.289-.494.586-.983.875-1.478-.241-.001-.482-.004-.722-.006-.182.291-.358.585-.532.882l-.546-.878c-.24.002-.481 0-.722.001zm3.253 3.092l.618.002c.001-1.034.001-2.066-.001-3.1l-.615-.002c-.004 1.033-.002 2.066-.002 3.1zm1.163-3.099v.614c.285-.002.57.003.855.001.003.828 0 1.657.002 2.485h.596c.002-.828-.001-1.656.002-2.485.281.002.563-.003.844-.001l.001-.614h-2.3zm-12.665 6.33c.24.054.479.107.718.162.164-.791 1.401-.879 1.707-.162.135.519-.467.718-.81.935-.95.484-1.594 1.491-1.608 2.561 1.059.002 2.117.001 3.175 0l-.001-.748c-.764-.005-1.529.006-2.293-.006.287-.814 1.123-1.132 1.778-1.579.69-.471.666-1.587-.018-2.051-.884-.72-2.43-.281-2.648.888zm4.285-.299c.225.09.452.178.679.266.258-.58 1.251-.625 1.388.057.113.394-.281.621-.626.584.002.234-.002.468-.001.702.634-.119 1.039.603.711 1.12-.381.663-1.468.441-1.619-.297a34.53 34.53 0 0 0-.715.21c.244 1.032 1.527 1.574 2.431 1.014.815-.46 1.045-1.765.326-2.41.51-.706.161-1.778-.647-2.078-.742-.326-1.619.108-1.926.831zm6.494-.861c-.002 1.551-.001 3.104-.001 4.656.822-.054 1.685.135 2.477-.143.914-.434.906-1.891-.042-2.291.78-.393.828-1.623.042-2.032-.77-.358-1.655-.126-2.475-.19zm6.228 1.524c-.247.005-.361.364-.129.482.471.305.972.563 1.445.869-1.056.912-2.111 1.826-3.17 2.734.373.372.748.742 1.121 1.112.92-1.049 1.83-2.107 2.751-3.156.299.47.56.964.868 1.428.098.218.463.147.474-.092.244-1.249.476-2.502.705-3.753.089-.223-.14-.429-.356-.345-1.235.242-2.476.462-3.708.722z"/>
    <path fill="#036649" d="M13.157 12.236c.439.015.888-.048 1.322.042.474.21.245.962-.198 1.072-.371.064-.751.02-1.125.028 0-.38-.001-.762.001-1.142zM13.157 14.129c.382.006.764-.023 1.145.014.538.07.775 1 .229 1.218-.45.089-.916.023-1.374.041-.002-.424-.002-.849 0-1.273z"/>
    <path fill="#34866e" d="M.607 19.335c.412-.024.826-.052 1.239-.045 7.089.03 14.181-.035 21.271.032l-.14.063H.73l-.123-.05z"/>
</svg>
