<!-- Generated by IcoMoon.io -->
<svg version="1.1" xmlns="http://www.w3.org/2000/svg" width="24" height="24" viewBox="0 0 24 24">
<title>information--vehicles-on-rails--g1</title>
<path fill="#0568b2" d="M1.456 0h21.017c0.331 0.098 0.659 0.242 0.88 0.521-0.434-0.209-0.89-0.426-1.386-0.395-6.685 0.006-13.37-0.001-20.056 0.004-0.455-0.010-0.866 0.205-1.265 0.396 0.206-0.26 0.506-0.408 0.81-0.526z"></path>
<path fill="#fff" d="M0.646 0.526c0.398-0.191 0.81-0.406 1.265-0.396 6.685-0.005 13.37 0.002 20.056-0.004 0.496-0.031 0.952 0.186 1.386 0.395 0.043 0.043 0.088 0.088 0.131 0.132 0.187 0.397 0.395 0.808 0.383 1.259 0.001 6.725 0.002 13.451 0 20.177 0.042 0.917-0.737 1.765-1.661 1.771-6.763 0.011-13.529 0.001-20.293 0.005-0.964 0.050-1.828-0.811-1.778-1.776-0.001-6.403 0.001-12.806-0.001-19.21-0.012-0.63-0.014-1.267 0.14-1.884 0.11-0.167 0.234-0.325 0.373-0.469M1.709 0.988c-0.488 0.163-0.823 0.662-0.802 1.176-0.002 6.558-0.006 13.116 0.002 19.674-0.025 0.665 0.583 1.253 1.246 1.21 6.564 0 13.128 0.005 19.691-0.002 0.692 0.020 1.258-0.644 1.194-1.32-0.004-6.524 0.004-13.049-0.004-19.573 0.035-0.704-0.624-1.301-1.319-1.238-6.479-0.002-12.958 0-19.435-0.001-0.193 0.006-0.39 0.011-0.574 0.076z"></path>
<path fill="#fff" d="M7.117 4.129c2.185-0.062 4.376-0.004 6.563-0.029 0.227 0.016 0.499-0.043 0.678 0.136 0.874 0.817 1.276 1.986 2.020 2.902 0.54 0.704 0.254 1.646 0.325 2.462 0.006 0.731 0.144 1.661-0.622 2.077-0.029 0.332 0.014 0.672-0.058 0.998-0.322 0.463-1.193 0.524-1.516 0.035-0.083-0.452-0.024-0.916-0.041-1.373-2.582-0.006-5.164 0.005-7.746-0.006-0.046 0.438 0.024 0.887-0.062 1.319-0.22 0.58-1.157 0.481-1.399-0.026-0.082-0.31-0.035-0.637-0.062-0.953-0.374-0.166-0.816-0.422-0.828-0.884-0.016-0.956-0.013-1.914-0.001-2.87 0.025-0.68 0.656-1.082 0.937-1.652 0.526-0.761 0.986-1.664 1.812-2.135M7.345 4.597c-0.74 0.47-1.158 1.333-1.391 2.156 3.085 0.013 6.172 0.005 9.258 0.004-0.2-0.81-0.566-1.716-1.301-2.166-2.188-0.022-4.38-0.034-6.566 0.006M5.207 8.215c-0.384 0.109-0.244 0.607-0.257 0.902-0.059 0.397 0.599 0.491 0.644 0.095 0.028-0.338 0.149-1.054-0.388-0.997M15.77 8.219c-0.379 0.196-0.263 0.791-0.166 1.127 0.714 0.598 0.91-1.258 0.166-1.127M9.15 8.803c-0.241 0.365-0.044 0.882-0.11 1.306-1.13 0.019-2.261-0.019-3.389 0.017-0.26-0.022-0.266 0.43-0.002 0.4 3.358 0.022 6.716 0.010 10.075 0.006 0.241 0.068 0.4-0.242 0.191-0.39-1.164-0.092-2.34 0.038-3.504-0.065-0.026-0.415 0.107-0.89-0.074-1.266-1.060-0.049-2.126-0.036-3.186-0.007z"></path>
<path fill="#fff" d="M8.503 13.67c0.368-0.456 0.886-0.643 1.465-0.521-0.149 0.178-0.3 0.354-0.452 0.53 2.392-0.001 4.784 0.002 7.176-0.002-0.12-0.16-0.241-0.318-0.361-0.476 0.485-0.094 0.924 0.044 1.186 0.476 0.502-0.052 1.019-0.011 1.343 0.424-0.316 0.004-0.63 0.002-0.944 0.006 0.257 0.307 0.527 0.602 0.802 0.895 0.318 0.004 0.636 0.008 0.954 0.006 0.239 0.215 0.467 0.442 0.68 0.682-0.329 0.005-0.656 0.006-0.984 0.013 0.341 0.415 0.718 0.799 1.068 1.205 0.888-0.214 1.494 0.377 2.051 0.97-0.384 0.002-0.767 0.002-1.15 0.005 0.323 0.374 0.668 0.728 0.984 1.11-0.522 0.013-1.044 0.008-1.566 0.006-0.295-0.365-0.57-0.743-0.857-1.114-4.751-0.004-9.503-0.017-14.254 0.007-0.515 0.38-0.877 0.949-1.361 1.378-0.662-0.010-1.326-0.004-1.988-0.005 0.492-0.473 1.020-0.907 1.511-1.381-0.341-0.004-0.683-0.004-1.024-0.007 0.622-0.508 1.229-1.181 2.118-0.962 0.442-0.403 0.898-0.791 1.325-1.207-0.256-0.008-0.511-0.012-0.766-0.018 0.35-0.262 0.647-0.734 1.138-0.679 0.63 0.089 0.953-0.569 1.402-0.887-0.214-0.017-0.426-0.028-0.64-0.050 0.292-0.337 0.71-0.454 1.145-0.402M8.278 15.001c3.137 0.012 6.275 0.011 9.412 0.001-0.252-0.289-0.414-0.728-0.766-0.886-2.599-0.028-5.202-0.008-7.802-0.010-0.295 0.284-0.574 0.586-0.844 0.894M6.497 16.916c4.219 0.006 8.438 0.006 12.656 0-0.299-0.41-0.607-0.814-0.92-1.213-3.358-0.019-6.715 0.002-10.073-0.011-0.805-0.131-1.135 0.788-1.663 1.224z"></path>
<path fill="#0066b3" d="M23.483 0.653c0.245 0.21 0.404 0.493 0.517 0.792v21.022c-0.174 0.755-0.772 1.345-1.519 1.534h-20.954c-0.749-0.181-1.346-0.772-1.526-1.522v-21.073c0.090-0.137 0.181-0.274 0.272-0.41-0.155 0.617-0.152 1.254-0.14 1.884 0.002 6.403 0 12.806 0.001 19.21-0.049 0.965 0.815 1.826 1.778 1.776 6.764-0.004 13.53 0.006 20.293-0.005 0.924-0.006 1.703-0.854 1.661-1.771 0.002-6.726 0.001-13.452 0-20.177 0.012-0.451-0.196-0.862-0.383-1.259z"></path>
<path fill="#0066b3" d="M1.709 0.988c0.184-0.065 0.38-0.070 0.574-0.076 6.478 0.001 12.956-0.001 19.435 0.001 0.695-0.062 1.354 0.534 1.319 1.238 0.007 6.524 0 13.049 0.004 19.573 0.064 0.676-0.502 1.34-1.194 1.32-6.563 0.007-13.127 0.002-19.691 0.002-0.662 0.043-1.271-0.545-1.246-1.21-0.008-6.558-0.005-13.116-0.002-19.674-0.022-0.514 0.313-1.013 0.802-1.176M7.117 4.129c-0.826 0.47-1.286 1.374-1.812 2.135-0.281 0.57-0.912 0.972-0.937 1.652-0.012 0.956-0.014 1.914 0.001 2.87 0.012 0.462 0.454 0.719 0.828 0.884 0.028 0.316-0.019 0.643 0.062 0.953 0.242 0.508 1.18 0.606 1.399 0.026 0.086-0.432 0.017-0.881 0.062-1.319 2.582 0.011 5.164 0 7.746 0.006 0.017 0.457-0.042 0.92 0.041 1.373 0.323 0.49 1.194 0.428 1.516-0.035 0.072-0.326 0.029-0.666 0.058-0.998 0.766-0.416 0.628-1.346 0.622-2.077-0.071-0.816 0.215-1.758-0.325-2.462-0.744-0.916-1.146-2.084-2.020-2.902-0.179-0.179-0.451-0.12-0.678-0.136-2.186 0.025-4.378-0.034-6.563 0.029M8.503 13.67c-0.434-0.052-0.853 0.065-1.145 0.402 0.214 0.023 0.426 0.034 0.64 0.050-0.449 0.318-0.772 0.976-1.402 0.887-0.491-0.055-0.787 0.418-1.138 0.679 0.254 0.006 0.51 0.010 0.766 0.018-0.427 0.416-0.883 0.804-1.325 1.207-0.889-0.218-1.496 0.455-2.118 0.962 0.341 0.004 0.683 0.004 1.024 0.007-0.491 0.474-1.019 0.908-1.511 1.381 0.662 0.001 1.326-0.005 1.988 0.005 0.484-0.428 0.846-0.997 1.361-1.378 4.751-0.024 9.503-0.011 14.254-0.007 0.287 0.371 0.562 0.749 0.857 1.114 0.522 0.002 1.044 0.007 1.566-0.006-0.316-0.382-0.661-0.736-0.984-1.11 0.383-0.002 0.766-0.002 1.15-0.005-0.557-0.593-1.163-1.183-2.051-0.97-0.35-0.406-0.727-0.79-1.068-1.205 0.328-0.007 0.655-0.008 0.984-0.013-0.214-0.24-0.442-0.467-0.68-0.682-0.318 0.002-0.636-0.002-0.954-0.006-0.275-0.293-0.545-0.588-0.802-0.895 0.314-0.004 0.629-0.002 0.944-0.006-0.324-0.434-0.841-0.475-1.343-0.424-0.262-0.432-0.701-0.57-1.186-0.476 0.12 0.158 0.241 0.317 0.361 0.476-2.392 0.005-4.784 0.001-7.176 0.002 0.152-0.176 0.304-0.353 0.452-0.53-0.58-0.122-1.097 0.065-1.465 0.521z"></path>
<path fill="#0066b3" d="M7.345 4.597c2.186-0.040 4.379-0.028 6.566-0.006 0.734 0.45 1.1 1.356 1.301 2.166-3.086 0.001-6.173 0.010-9.258-0.004 0.233-0.823 0.65-1.686 1.391-2.156z"></path>
<path fill="#0066b3" d="M5.207 8.215c0.536-0.056 0.415 0.659 0.388 0.997-0.046 0.396-0.703 0.302-0.644-0.095 0.013-0.295-0.127-0.793 0.257-0.902z"></path>
<path fill="#0066b3" d="M15.77 8.219c0.744-0.131 0.548 1.724-0.166 1.127-0.097-0.336-0.214-0.931 0.166-1.127z"></path>
<path fill="#0066b3" d="M9.15 8.803c1.060-0.029 2.126-0.042 3.186 0.007 0.181 0.376 0.048 0.851 0.074 1.266 1.164 0.103 2.34-0.028 3.504 0.065 0.209 0.148 0.050 0.458-0.191 0.39-3.359 0.004-6.718 0.016-10.075-0.006-0.264 0.030-0.258-0.421 0.002-0.4 1.128-0.036 2.258 0.002 3.389-0.017 0.066-0.424-0.131-0.941 0.11-1.306z"></path>
<path fill="#0066b3" d="M8.278 15.001c0.27-0.308 0.548-0.61 0.844-0.894 2.6 0.001 5.203-0.018 7.802 0.010 0.352 0.157 0.514 0.596 0.766 0.886-3.137 0.010-6.275 0.011-9.412-0.001z"></path>
<path fill="#0066b3" d="M6.497 16.916c0.528-0.436 0.858-1.355 1.663-1.224 3.358 0.013 6.715-0.008 10.073 0.011 0.313 0.4 0.622 0.803 0.92 1.213-4.218 0.006-8.437 0.006-12.656 0z"></path>
</svg>
