<svg xmlns="http://www.w3.org/2000/svg" width="24" height="24">
    <path fill="#0491ff" d="M0 .48h23.667v23.04H0V.48zm3.894 3.607c-.007 5.186-.008 10.373.002 15.559 5.178.008 10.358.005 15.537 0 .008-5.186.008-10.375 0-15.563-5.18-.007-10.358-.011-15.539.003z"/>
    <path fill="#fff" d="M3.894 4.087c5.18-.014 10.358-.01 15.539-.003.008 5.188.008 10.376 0 15.563-5.178.005-10.358.008-15.537 0-.01-5.186-.008-10.373-.002-15.559zm1.024 10.522c-.395 1.559 1.009 3.168 2.599 3.048 1.291-.012 2.417-1.167 2.438-2.45.025-1.739.002-3.478.014-5.216l.779-.003c.007 2.856-.002 5.711.005 8.567 2.072.003 4.144.003 6.216 0-.002-3.52.014-7.041-.007-10.559.04-.706-.555-1.252-1.227-1.308.102-.753-.31-1.647-1.152-1.688-2.368-.045-4.74-.007-7.11-.019-.854 3.208-1.732 6.412-2.556 9.627z"/>
    <path fill="#fff" d="M8.436 6.24c1.18-.002 2.359-.005 3.538.003l-.002.444a1.39 1.39 0 0 0-1.266 1.273c-.867-.221-1.497.312-1.994.953-.023 2.171.05 4.35-.05 6.514-.268 1.499-2.713 1.149-2.549-.369.716-2.951 1.555-5.877 2.323-8.818zM12.132 7.97c1.14-.003 2.281-.003 3.42.002.003.724.003 1.449-.002 2.172-1.14.002-2.279.002-3.419 0-.002-.726-.002-1.45 0-2.173z"/>
    <path fill="#040404" d="M4.918 14.609c.825-3.215 1.702-6.419 2.556-9.627 2.37.012 4.741-.027 7.11.019.842.04 1.254.936 1.152 1.688.672.055 1.268.602 1.227 1.308.02 3.518.005 7.039.007 10.559-2.072.003-4.144.003-6.216 0-.007-2.856.002-5.711-.005-8.567-.258.002-.518.002-.779.003-.012 1.739.011 3.478-.014 5.216-.022 1.283-1.147 2.437-2.438 2.45-1.59.119-2.993-1.489-2.599-3.048zM8.436 6.24c-.768 2.94-1.606 5.867-2.323 8.818-.164 1.517 2.281 1.866 2.549.369.1-2.165.027-4.343.05-6.514.497-.641 1.127-1.174 1.994-.953a1.393 1.393 0 0 1 1.266-1.273l.002-.444c-1.179-.008-2.358-.005-3.538-.003zm3.696 1.73c-.002.724-.002 1.449 0 2.173 1.14.002 2.279.002 3.419 0 .005-.724.005-1.449.002-2.172-1.14-.005-2.281-.005-3.42-.002z"/>
</svg>
