<svg xmlns="http://www.w3.org/2000/svg" width="24" height="24">
    <path fill="#231f20" d="M3.29 0h.057c.112.035.223.072.334.108 2.539.767 5.286.77 7.845.088.657-.236 1.316.089 1.967.184 2.373.535 4.87.37 7.194-.309l.211-.073h.099c.871 1.422 1.8 2.834 2.327 4.432.288.763.436 1.567.675 2.344v5.334c-.246.692-.354 1.423-.603 2.115-1.287 3.905-4.261 7.194-7.979 8.933-.676.325-1.387.568-2.085.842h-1.146c2.475-.562 4.819-1.729 6.71-3.428 3.292-2.906 5.238-7.32 5.024-11.722-.131-3.069-1.202-6.136-3.134-8.539-2.722.83-5.675.836-8.413.067-.301-.11-.602.034-.894.098-2.655.69-5.475.592-8.106-.16A15.201 15.201 0 0 0 .27 9.932c.142 4.332 2.3 8.525 5.707 11.196 1.742 1.402 3.814 2.359 5.986 2.87h-1.095c-.628-.263-1.28-.47-1.898-.757a15.18 15.18 0 0 1-5.96-4.809C1.363 16.26.45 13.618.061 10.941c.02-.284.026-.572-.064-.847V8.77a.932.932 0 0 0 0-.738v-.036c.205-.362.191-.79.273-1.188a15.974 15.974 0 0 1 3.017-6.81z"/>
    <path fill="#fff" d="M3.347 0h1.796c-.487.033-.986-.018-1.462.108A18.58 18.58 0 0 0 3.347 0zM19.013 0h1.885l-.211.073C20.13.013 19.572.03 19.013 0zM3.376.317c2.631.753 5.451.851 8.106.16.292-.064.593-.208.894-.098 2.738.769 5.691.763 8.413-.067 1.932 2.403 3.003 5.47 3.134 8.539.214 4.401-1.732 8.815-5.024 11.722-1.891 1.698-4.235 2.866-6.71 3.428h-.222c-2.172-.511-4.244-1.468-5.986-2.87C2.574 18.46.416 14.267.274 9.935A15.205 15.205 0 0 1 3.377.317zm.243.665a14.387 14.387 0 0 0-2.13 4.277c7.084.009 14.169.002 21.253.003-.504-1.504-1.175-2.96-2.116-4.243-.846.117-1.671.368-2.527.417-1.908.22-3.846.029-5.708-.434a1.076 1.076 0 0 0-.498-.03 15.97 15.97 0 0 1-8.275.009zM1.367 5.74C.921 7.212.826 8.756.875 10.285c.27 4.786 3.135 9.335 7.336 11.643 1.219.666 2.517 1.222 3.889 1.462 2.503-.486 4.809-1.772 6.671-3.498 2.856-2.645 4.583-6.501 4.593-10.403.017-1.292-.211-2.572-.502-3.827-4.777-.002-9.554.003-14.331-.002-2.38.164-4.777.047-7.164.081z"/>
    <path fill="#fff" d="M9.406 2.47c.049-.588.779-.694 1.183-.38.074.176.148.352.208.534-.159.004-.319.006-.478.008l-.121-.242-.285.002-.121.29c.386.25.884.498.966.999.061.352-.179.644-.419.867-.569.141-1.044-.235-1.111-.798l.498-.003.001.234c.171.197.395.197.563-.003l-.003-.377c-.383-.285-1.001-.54-.879-1.131zM15.725 2.09c.467-.379 1.241-.12 1.205.537-.14.003-.279.006-.418.007a16.189 16.189 0 0 1-.129-.266c-.23-.013-.396.132-.378.368.483.258 1.121.729.849 1.359-.204.804-1.584.493-1.403-.345l.388-.002.124.293.242.123c.111-.109.222-.219.331-.331-.19-.486-.831-.557-.964-1.071-.096-.236.067-.461.152-.672zM17.4 2.09c.467-.379 1.241-.12 1.205.537-.14.003-.279.006-.418.007a16.189 16.189 0 0 1-.129-.266c-.23-.013-.396.132-.378.368.31.178.624.383.82.69.284.482-.123 1.252-.722 1.125-.431.026-.694-.411-.651-.801l.389-.002.124.293.241.123c.112-.109.222-.219.332-.331-.19-.486-.831-.557-.963-1.071-.097-.236.066-.461.152-.672zM5.661 1.994c.362.01.73-.034 1.089.024.389.099.364.561.343.875-.411.332.296.766 0 1.167-.168.631-.942.468-1.432.483v-2.55zm.479.398v.558h.385l.193-.329-.207-.229h-.372zm0 1.036v.647c.329.061.664-.054.568-.449l-.203-.195a44.168 44.168 0 0 0-.365-.002zM7.495 1.993h.399c.039.681-.087 1.38.077 2.048.081.034.161.07.242.105l.242-.105c.164-.667.038-1.367.077-2.048h.399c-.01.689.019 1.379-.01 2.067-.129.671-1.287.671-1.414-.001-.029-.687-.001-1.377-.01-2.066zM11.083 1.993h.399v2.551h-.399V1.993zM11.96 1.993h.447c.204.412.396.83.581 1.251.018-.417.006-.834.009-1.251h.478v2.551h-.366c-.242-.46-.427-.946-.663-1.409-.015.47-.004.939-.007 1.409h-.478V1.993zM13.874 1.993h1.276v.399h-.797v.557l.478.002v.397l-.478.001v.718h.877v.478h-1.355V1.994zM9.736 6.209c.291-.011.585.022.832.191-.038.369-.36.342-.565.104-.342.386.425.336.604.597-.001.21-.001.419.001.629-.333.329-.839.262-1.121-.096l.002-.195c.1-.029.201-.057.301-.088l.116.253c.163-.028.317-.083.451-.181-.197-.229-.52-.264-.732-.466-.183-.236-.061-.545.111-.75zM10.844 6.219c.388-.008.822-.064 1.117.247 0 .182 0 .364.002.546-.225.185-.515.251-.8.262v.62h-.319V6.22zm.328.283a22.98 22.98 0 0 0-.012.374c.188-.009.377-.035.537-.142a3.235 3.235 0 0 0-.525-.232zM12.12 6.219h.319c.029.453-.107.953.158 1.359h.241c.265-.406.129-.905.158-1.359h.319c-.03.494.089 1.017-.104 1.489-.252.392-.946.299-1.066-.16-.061-.439-.01-.887-.024-1.328zM13.635 6.219c.356.024.887-.126 1.069.289.152.239-.062.472-.192.663.089.239.196.472.27.717l-.401.008a9.516 9.516 0 0 0-.204-.64l-.222.001-.002.638h-.318V6.221zm.321.298l-.003.342c.146-.002.292-.006.438-.01-.02-.243-.204-.354-.435-.332zM14.861 9.598c.888-.146 1.926.155 2.423.948.571.742.693 1.707.809 2.608.064 1.442-.098 3.039-1.092 4.167-1.11.978-3.148.832-3.905-.521-.895-1.674-.958-3.744-.291-5.509.288-.897 1.098-1.621 2.056-1.694zm.24 1.351c-.281.045-.561.155-.73.395-.513.706-.604 1.607-.658 2.451.077.795.14 1.656.623 2.327.348.502 1.123.584 1.591.207.395-.322.584-.823.692-1.306.221-1.042.191-2.149-.179-3.154-.175-.556-.747-.992-1.338-.919zM5.661 9.728h5.422c0 .463.002.927-.003 1.391-.383.443-.73.923-.982 1.453-.837 1.598-1.388 3.393-1.327 5.21H7.416c-.072-2.367.718-4.691 1.946-6.692-1.233-.013-2.468-.002-3.701-.006V9.729zM0 10.096c.09.274.084.563.064.847-.079.799-.036 1.604-.064 2.406v-3.253z"/>
    <path fill="#036f51" d="M3.619.982a15.96 15.96 0 0 0 8.275-.009c.166-.033.336-.015.498.03 1.862.462 3.8.654 5.708.434.856-.049 1.681-.3 2.527-.417.941 1.283 1.612 2.739 2.116 4.243-7.084-.001-14.169.006-21.253-.003A14.375 14.375 0 0 1 3.62.983zM9.406 2.47c-.121.591.497.845.879 1.131l.003.377c-.168.2-.392.2-.563.003l-.001-.234-.498.003c.067.563.542.939 1.111.798.239-.222.48-.515.419-.867-.081-.502-.58-.75-.966-.999l.121-.29.285-.002.121.242c.159-.002.319-.004.478-.008-.06-.182-.134-.358-.208-.534-.404-.315-1.134-.208-1.183.38zm6.319-.38c-.085.211-.249.436-.152.672.133.514.774.584.964 1.071-.109.112-.22.222-.331.331l-.242-.123c-.041-.098-.084-.195-.124-.293l-.388.002c-.182.838 1.198 1.149 1.403.345.272-.63-.366-1.1-.849-1.359-.018-.236.148-.381.378-.368.042.089.085.178.129.266l.418-.007c.037-.656-.738-.915-1.205-.537zm1.675 0c-.085.211-.249.436-.152.672.132.514.773.585.963 1.071-.109.112-.22.222-.332.331l-.241-.123-.124-.293-.389.002c-.043.391.221.827.651.801.6.127 1.006-.643.722-1.125-.196-.307-.51-.512-.82-.69-.018-.236.148-.381.378-.368.042.089.085.178.129.266l.418-.007c.037-.656-.738-.915-1.205-.537zM5.661 1.994v2.55c.49-.015 1.264.148 1.432-.483.296-.401-.411-.835 0-1.167.021-.315.046-.777-.343-.875-.359-.058-.727-.014-1.089-.024zm1.834-.001c.01.689-.018 1.379.01 2.066.128.672 1.285.672 1.414.001.03-.688.001-1.378.01-2.067H8.53c-.039.681.087 1.381-.077 2.048l-.242.105c-.081-.035-.161-.071-.242-.105-.164-.668-.038-1.367-.077-2.048h-.399zm3.588 0v2.551h.399V1.993h-.399zm.877 0v2.551h.478c.003-.47-.008-.939.007-1.409.236.462.422.949.663 1.409h.366V1.993h-.478c-.002.417.009.834-.009 1.251a30.17 30.17 0 0 0-.581-1.251h-.447zm1.914 0v2.551h1.355v-.478h-.877v-.718l.478-.001V2.95l-.478-.002v-.557h.797v-.399h-1.276z"/>
    <path fill="#036f51" d="M6.14 2.392h.372l.207.229-.193.329h-.385v-.558zM6.14 3.428l.365.002.203.195c.096.395-.24.51-.569.449v-.647zM1.367 5.74c2.387-.034 4.784.083 7.164-.081 4.777.006 9.554.001 14.331.002.291 1.255.519 2.535.502 3.827-.01 3.902-1.737 7.758-4.593 10.403-1.862 1.725-4.168 3.012-6.671 3.498-1.372-.24-2.67-.796-3.889-1.462C4.01 19.619 1.145 15.071.875 10.284c-.049-1.529.046-3.073.492-4.545zm8.369.469c-.172.204-.294.513-.111.75.212.203.535.238.732.466a1.058 1.058 0 0 1-.451.181 19.477 19.477 0 0 0-.116-.253l-.301.088-.002.195c.282.358.788.425 1.121.096a43.96 43.96 0 0 1-.001-.629c-.179-.262-.946-.211-.604-.597.205.238.527.265.565-.104-.246-.169-.541-.203-.832-.191zm1.108.01v1.674h.319v-.62c.285-.01.575-.077.8-.262-.002-.182-.002-.364-.002-.546-.295-.311-.729-.255-1.117-.247zm1.276 0c.014.442-.037.89.024 1.328.12.459.814.553 1.066.16.194-.471.075-.994.104-1.489h-.319c-.029.454.107.953-.158 1.359h-.241c-.265-.406-.129-.906-.158-1.359h-.319zm1.515 0v1.674h.318l.002-.638.222-.001c.074.211.145.424.204.64l.401-.008c-.073-.245-.18-.478-.27-.717.13-.191.344-.423.192-.663-.182-.415-.713-.265-1.069-.289zm1.226 3.379c-.958.073-1.768.797-2.056 1.694-.667 1.765-.604 3.835.291 5.509.757 1.353 2.795 1.499 3.905.521.994-1.127 1.156-2.725 1.092-4.167-.116-.901-.238-1.866-.809-2.608-.498-.793-1.535-1.094-2.423-.948zm-9.2.13v1.355c1.233.003 2.468-.007 3.701.006-1.227 2.001-2.017 4.326-1.946 6.692h1.355c-.061-1.817.49-3.612 1.327-5.21.252-.53.599-1.01.982-1.453.006-.463.003-.927.003-1.391H5.661z"/>
    <path fill="#036f51" d="M11.172 6.502c.182.061.356.14.525.232-.159.107-.348.133-.537.142.003-.125.007-.25.012-.374zM13.956 6.517c.23-.022.415.088.435.332-.146.005-.292.008-.438.01l.003-.342zM15.101 10.949c.591-.073 1.163.364 1.338.919.37 1.005.4 2.112.179 3.154-.108.483-.297.984-.692 1.306-.467.378-1.242.295-1.591-.207-.483-.671-.545-1.532-.623-2.327.054-.844.145-1.745.658-2.451.17-.239.45-.349.73-.395z"/>
</svg>
