<svg xmlns="http://www.w3.org/2000/svg" width="24" height="24">
    <path fill="#fff" d="M11.113 0H12.9c3.311.245 6.482 1.925 8.528 4.541 1.495 1.867 2.385 4.193 2.572 6.575v1.78c-.246 3.324-1.936 6.505-4.567 8.553-1.859 1.479-4.166 2.36-6.53 2.551h-1.801c-1.872-.156-3.712-.728-5.318-1.706-2.494-1.506-4.414-3.94-5.27-6.727C.24 14.703.088 13.806 0 12.905v-1.807c.19-2.364 1.071-4.673 2.55-6.531C4.599 1.934 7.785.24 11.113 0zm.253.596c-1.986.102-3.94.747-5.603 1.836C3.195 4.093 1.351 6.827.783 9.833c-.629 3.186.188 6.622 2.199 9.173a11.44 11.44 0 0 0 7.051 4.247c1.87.325 3.822.182 5.62-.429 2.806-.934 5.203-3.014 6.533-5.654 1.557-3.019 1.649-6.74.244-9.832a11.469 11.469 0 0 0-5.701-5.739A11.37 11.37 0 0 0 11.367.595z"/>
    <path fill="#fff" d="M15.863 5.552a3.802 3.802 0 0 1 2.984.913c.774.634 1.134 1.65 1.14 2.63.006 1.905.001 3.811.002 5.717.005.786-.167 1.6-.641 2.242a3.78 3.78 0 0 1-3.412 1.448 3.78 3.78 0 0 1-2.473-1.311c-.539-.646-.743-1.505-.749-2.332V9.984c-.001-.688-.03-1.393.182-2.057.382-1.302 1.651-2.209 2.966-2.375zm.188 1.884c-.922.081-1.509 1.016-1.446 1.89-.002 1.782 0 3.564-.001 5.347-.003.402.054.817.256 1.171.561 1.013 2.196 1.072 2.876.158.276-.365.371-.834.364-1.283V9.283c.005-.53-.161-1.092-.57-1.451-.393-.363-.962-.466-1.478-.395zM7.986 5.663h2.099c-.886 1.785-1.774 3.568-2.662 5.351 1.222-.423 2.682.052 3.428 1.106.494.73.598 1.644.583 2.505-.026.97-.229 2.009-.914 2.739-.945.952-2.392 1.411-3.705 1.086-1.277-.341-2.369-1.405-2.628-2.718-.227-1.08-.117-2.246.386-3.235 1.138-2.278 2.273-4.557 3.413-6.834zm-.609 6.922c-.698.108-1.26.703-1.358 1.399-.117.762-.095 1.669.473 2.258.782.708 2.156.515 2.745-.35.255-.403.307-.896.3-1.363-.01-.484-.108-.994-.425-1.376-.414-.496-1.111-.688-1.735-.567z"/>
    <path fill="#00f" d="M11.366.596A11.375 11.375 0 0 1 16.728 1.6a11.465 11.465 0 0 1 5.701 5.739c1.405 3.092 1.313 6.813-.244 9.832-1.331 2.64-3.727 4.719-6.533 5.654-1.798.611-3.75.754-5.62.429a11.45 11.45 0 0 1-7.051-4.247C.97 16.456.153 13.02.782 9.834c.568-3.007 2.412-5.74 4.98-7.401A11.356 11.356 0 0 1 11.365.597zm4.497 4.956c-1.315.166-2.584 1.073-2.966 2.375-.212.664-.184 1.369-.182 2.057v4.875c.006.826.21 1.685.749 2.332a3.785 3.785 0 0 0 2.473 1.311c1.287.155 2.633-.413 3.412-1.448.473-.642.646-1.456.641-2.242-.001-1.906.004-3.812-.002-5.717-.006-.98-.367-1.995-1.14-2.63a3.8 3.8 0 0 0-2.984-.913zm-7.877.111c-1.14 2.277-2.275 4.556-3.413 6.834-.503.99-.613 2.155-.386 3.235.26 1.313 1.351 2.377 2.628 2.718 1.313.325 2.76-.134 3.705-1.086.684-.731.888-1.77.914-2.739.015-.861-.089-1.776-.583-2.505-.746-1.054-2.206-1.529-3.428-1.106.888-1.783 1.776-3.566 2.662-5.351-.699-.002-1.399-.001-2.099 0z"/>
    <path fill="#00f" d="M16.051 7.436c.517-.071 1.085.032 1.478.395.409.359.575.921.57 1.451.002 1.812 0 3.624 0 5.436.007.449-.089.919-.364 1.283-.68.914-2.315.855-2.876-.158-.202-.354-.259-.77-.256-1.171 0-1.782-.001-3.564.001-5.347-.063-.873.525-1.809 1.446-1.89zM7.377 12.585c.624-.121 1.321.07 1.735.567.316.382.415.893.425 1.376.007.467-.045.96-.3 1.363-.589.865-1.963 1.058-2.745.35-.568-.588-.59-1.495-.473-2.257.098-.696.66-1.29 1.358-1.399z"/>
</svg>
