<!-- Generated by IcoMoon.io -->
<svg version="1.1" xmlns="http://www.w3.org/2000/svg" width="24" height="24" viewBox="0 0 24 24">
<title>information--telephone--g1</title>
<path fill="#fff" d="M1.539 0h0.339c-0.106 0.178-0.24 0.204-0.403 0.077l0.064-0.077z"></path>
<path fill="#fff" d="M0.246 2.013c0.2-0.952 0.988-1.817 2.013-1.806 6.493-0.020 12.986 0.001 19.479-0.010 1.050-0.097 1.966 0.675 2.222 1.664 0.020 6.723-0.020 13.445 0.020 20.166-0.181 0.916-0.88 1.637-1.788 1.85-6.711-0.010-13.422-0.011-20.132 0.001-0.908-0.21-1.616-0.927-1.789-1.847 0.003-6.672 0.048-13.347-0.024-20.018M1.925 0.684c-0.706 0.16-1.229 0.854-1.204 1.577-0.006 6.493-0.001 12.986-0.003 19.479-0.070 0.917 0.749 1.752 1.669 1.694 6.491 0.001 12.984 0.001 19.476 0 0.917 0.055 1.732-0.779 1.662-1.694-0.001-6.494 0.004-12.988-0.003-19.481 0.045-0.946-0.854-1.728-1.782-1.63-6.604 0.043-13.219-0.069-19.817 0.055z"></path>
<path fill="#fff" d="M10.339 4.173c0.166-1.504 1.95-1.999 3.228-2.101-0.332 1.818-0.658 3.638-0.995 5.455-0.548 0.197-1.151 0.602-1.132 1.257-0.011 2.312-0.008 4.625-0.003 6.937-0.013 0.56 0.565 0.828 0.999 1.024 0.412 1.759 0.813 3.522 1.211 5.285-1.097-0.082-2.163-0.45-3.077-1.062-0.432-1.688-0.924-3.36-1.341-5.053-0.336-2.142-0.378-4.34-0.067-6.49 0.245-1.781 0.774-3.504 1.176-5.252z"></path>
<path fill="#fff" d="M14.088 2.199c0.426 0.099 1.278 0.034 1.208 0.684-0.293 1.523-0.612 3.042-0.942 4.556-0.155 0.583-0.862 0.15-1.26 0.134 0.328-1.792 0.665-3.582 0.995-5.374z"></path>
<path fill="#fff" d="M12.925 16.552c0.401-0.060 1.088-0.534 1.278 0.043 0.382 1.508 0.743 3.023 1.094 4.537 0.188 0.695-0.717 0.687-1.155 0.808-0.408-1.796-0.81-3.592-1.218-5.388z"></path>
<path fill="#332f30" d="M1.879 0h20.496c0.107 0.178 0.241 0.204 0.405 0.075 0.626 0.249 1.104 0.772 1.347 1.395v0.55l-0.166-0.16c-0.255-0.989-1.171-1.76-2.222-1.664-6.493 0.011-12.986-0.010-19.479 0.010-1.025-0.011-1.813 0.853-2.013 1.806l-0.085-0.205c-0.096-0.797 0.645-1.437 1.314-1.732 0.163 0.127 0.298 0.102 0.403-0.077z"></path>
<path fill="#d0cfcf" d="M22.374 0h0.341l0.064 0.075c-0.163 0.128-0.298 0.103-0.405-0.075z"></path>
<path fill="#005595" d="M1.925 0.684c6.598-0.124 13.213-0.013 19.817-0.055 0.927-0.098 1.827 0.684 1.782 1.63 0.006 6.494 0.001 12.988 0.003 19.481 0.069 0.915-0.745 1.749-1.662 1.694-6.493 0.001-12.985 0.001-19.476 0-0.92 0.058-1.739-0.777-1.669-1.694 0.001-6.493-0.004-12.986 0.003-19.479-0.025-0.723 0.498-1.417 1.204-1.577M10.339 4.173c-0.402 1.748-0.931 3.472-1.176 5.252-0.312 2.15-0.269 4.348 0.067 6.49 0.417 1.693 0.908 3.365 1.341 5.053 0.915 0.612 1.98 0.98 3.077 1.062-0.398-1.763-0.799-3.526-1.211-5.285-0.433-0.196-1.012-0.464-0.999-1.024-0.005-2.312-0.009-4.625 0.003-6.937-0.019-0.655 0.584-1.059 1.132-1.257 0.337-1.817 0.663-3.636 0.995-5.455-1.278 0.102-3.062 0.597-3.228 2.101M14.088 2.199c-0.33 1.792-0.667 3.582-0.995 5.374 0.398 0.015 1.106 0.449 1.26-0.134 0.33-1.514 0.65-3.033 0.942-4.556 0.070-0.65-0.782-0.584-1.208-0.684M12.925 16.552c0.407 1.796 0.809 3.592 1.218 5.388 0.437-0.121 1.343-0.113 1.155-0.808-0.352-1.514-0.712-3.030-1.094-4.537-0.19-0.577-0.877-0.103-1.278-0.043z"></path>
<path fill="#cccbcb" d="M0 1.902l0.161-0.094c-0.114 6.853 0.049 13.716-0.082 20.568l-0.079-0.259v-20.215z"></path>
<path fill="#231f20" d="M0.161 1.808l0.085 0.205c0.072 6.671 0.026 13.346 0.024 20.018-0.048 0.087-0.143 0.26-0.191 0.346 0.131-6.852-0.033-13.715 0.082-20.568z"></path>
<path fill="#231f20" d="M23.96 1.861l0.166 0.16v20.342c-0.036-0.083-0.109-0.251-0.146-0.336-0.040-6.721 0-13.444-0.020-20.166z"></path>
<path fill="#231f20" d="M1.627 24c0.108-0.030 0.324-0.092 0.432-0.122 6.71-0.013 13.421-0.011 20.132-0.001 0.109 0.031 0.327 0.093 0.435 0.123h-20.999z"></path>
<path fill="#7c7a7a" d="M0.27 22.031c0.173 0.92 0.881 1.637 1.789 1.847-0.108 0.030-0.324 0.092-0.432 0.122h-0.207c-0.645-0.338-1.21-0.877-1.341-1.623 0.048-0.085 0.143-0.259 0.191-0.346z"></path>
<path fill="#7a7878" d="M22.192 23.877c0.908-0.212 1.607-0.934 1.788-1.85 0.036 0.084 0.109 0.253 0.146 0.336v0.181c-0.186 0.672-0.699 1.172-1.321 1.456h-0.178c-0.108-0.030-0.325-0.092-0.435-0.123z"></path>
</svg>
