<!-- Generated by IcoMoon.io -->
<svg version="1.1" xmlns="http://www.w3.org/2000/svg" width="32" height="24" viewBox="0 0 32 24">
<title>information--truck-lane-left--g1</title>
<path fill="#001a30" opacity="0.27" d="M1.63 0h29.009l0.264 0.107c-9.84 0.102-19.688 0.075-29.53 0.013l0.256-0.12z"></path>
<path fill="#0066b3" d="M0.263 1.612c-0.049-0.709 0.482-1.266 1.111-1.492 9.842 0.062 19.69 0.089 29.53-0.013 0.673 0.186 1.252 0.759 1.2 1.498 0.013 6.876 0.011 13.755 0 20.63 0.062 0.806-0.631 1.541-1.443 1.5-9.629 0.011-19.26 0.003-28.888 0.003-0.84 0.070-1.575-0.675-1.511-1.513-0.008-6.871-0.011-13.743 0.002-20.614M1.339 0.35c-0.611 0.174-0.955 0.821-0.918 1.43-0.003 6.759-0.003 13.518 0 20.278-0.071 0.77 0.548 1.549 1.354 1.503 9.571 0.011 19.145 0.003 28.717 0.005 0.822 0.071 1.505-0.697 1.425-1.498 0.003-6.765 0.003-13.531 0-20.296 0.079-0.806-0.608-1.557-1.427-1.497-9.462-0.015-18.924 0.003-28.385-0.010-0.258 0.008-0.519 0.011-0.767 0.084z"></path>
<path fill="#0066b3" d="M1.365 0.89c0.331-0.162 0.71-0.149 1.069-0.161 9.298 0.018 18.597-0.010 27.894 0.015 0.67-0.042 1.266 0.527 1.216 1.202 0.011 6.652 0.003 13.305 0.003 19.957 0.071 0.688-0.495 1.362-1.21 1.292-9.412 0.010-18.827 0.002-28.239 0.003-0.749 0.105-1.406-0.553-1.317-1.299-0.005-6.6 0-13.2-0.002-19.798-0.019-0.465 0.13-1.001 0.585-1.211M2.134 2.283c-0.006 0.861-0.006 1.721 0 2.58 0.123-0.002 0.37-0.005 0.493-0.006 0.005-0.855 0.005-1.711 0-2.567-0.123-0.002-0.37-0.005-0.493-0.006M14.012 2.291c-0.002 0.855-0.002 1.709-0.002 2.565 0.125 0.002 0.373 0.005 0.496 0.006 0.006-0.859 0.008-1.721-0.002-2.582-0.123 0.003-0.37 0.008-0.493 0.010M21.845 2.288c-0.006 0.858-0.006 1.714-0.002 2.572 0.125 0 0.371 0 0.496 0 0.003-0.858 0.003-1.716-0.002-2.574-0.123 0-0.37 0.002-0.493 0.002M29.694 2.282c-0.008 0.861-0.008 1.722 0 2.583 0.123-0.002 0.37-0.006 0.493-0.008 0.003-0.856 0.003-1.711 0-2.565-0.123-0.003-0.37-0.006-0.493-0.010M6.122 5.961c-0.345 0.589-0.848 1.194-0.671 1.925 0.748 0 1.279-0.571 1.862-0.954 0.011 2.076-0.003 4.151 0.008 6.227 0.594 0.008 1.189 0.008 1.782 0 0.016-2.068 0.002-4.135 0.010-6.203 0.553 0.396 1.088 0.91 1.808 0.936 0.076-0.388 0.073-0.798-0.165-1.132-0.848-1.414-1.677-2.839-2.544-4.241-0.735 1.122-1.383 2.301-2.089 3.441M2.137 7.19c-0.008 0.859-0.006 1.717-0.003 2.575 0.123 0 0.371 0 0.495-0.002 0.005-0.858 0.011-1.717-0.010-2.575-0.122 0.002-0.362 0.002-0.482 0.002M14.017 7.192c-0.006 0.858-0.005 1.716-0.002 2.574 0.165-0.003 0.331-0.005 0.496-0.006 0.003-0.855 0.003-1.711-0.002-2.565-0.164 0-0.328-0.002-0.493-0.002M21.837 7.226c0.010 0.846 0.005 1.693 0.008 2.539 0.125 0 0.373 0 0.496 0 0.002-0.864 0.006-1.729-0.005-2.593-0.167 0.018-0.334 0.036-0.499 0.054M29.697 7.189c-0.008 0.859-0.006 1.719-0.003 2.577 0.123 0 0.371 0 0.496-0.002 0.003-0.856 0.005-1.712-0.002-2.569-0.123-0.002-0.37-0.005-0.491-0.006M21.842 12.104c0.002 0.853-0.002 1.706 0.006 2.557 0.123-0.003 0.371-0.008 0.496-0.011-0.003-0.859 0.005-1.721-0.011-2.58-0.164 0.011-0.328 0.023-0.491 0.034M2.132 12.088c0 0.856-0.002 1.712 0.002 2.57 0.123 0 0.371-0.002 0.495-0.002 0.005-0.856 0.005-1.712 0-2.569-0.123 0-0.371 0-0.496 0M14.022 14.663c0.122-0.002 0.363-0.003 0.485-0.005 0.011-0.856 0.011-1.714 0-2.572-0.122 0-0.363-0.003-0.485-0.003-0.013 0.859-0.013 1.721 0 2.58M29.694 12.086c-0.003 0.858-0.003 1.714 0 2.572 0.123 0 0.371-0.002 0.495-0.002 0.005-0.856 0.005-1.712 0.002-2.567-0.125-0.002-0.373-0.003-0.496-0.003M5.822 15.608c-0.062 0.602-0.070 1.206-0.068 1.81-0.66 0.034-1.339-0.047-1.986 0.117-0.326 0.396-0.417 0.97-0.872 1.257-0.817 0.436-0.431 1.56-1.069 2.157 0.003 0.096 0.008 0.289 0.011 0.386 0.255 0.019 0.509 0.037 0.762 0.055 0.165 0.519 0.501 1.117 1.132 1.090 0.642 0.036 0.984-0.577 1.151-1.106 1.672-0.018 3.344-0.016 5.016-0.015 0.159 0.529 0.491 1.142 1.129 1.121 0.657 0.041 1.002-0.59 1.166-1.129 0.512-0.005 1.026-0.003 1.539 0.006 0.052-0.165 0.104-0.329 0.157-0.493 0.383-0.023 0.765-0.050 1.146-0.101 0.099-1.711 0.099-3.433-0.002-5.144-3.070-0.058-6.143-0.036-9.212-0.011z"></path>
<path fill="#0066b3" d="M3.422 18.842c-0.092-1.023 0.869-1.059 1.62-0.939 0.006 0.313 0.010 0.628 0.011 0.942-0.543 0.008-1.088 0.008-1.631-0.003z"></path>
<path fill="#fff" d="M1.339 0.35c0.248-0.073 0.509-0.076 0.767-0.084 9.461 0.013 18.923-0.005 28.385 0.010 0.819-0.060 1.506 0.691 1.427 1.497 0.003 6.765 0.003 13.531 0 20.296 0.079 0.801-0.603 1.57-1.425 1.498-9.572-0.002-19.146 0.006-28.717-0.005-0.806 0.045-1.425-0.733-1.354-1.503-0.003-6.761-0.003-13.519 0-20.278-0.037-0.61 0.306-1.257 0.918-1.43M1.365 0.89c-0.456 0.211-0.605 0.746-0.585 1.211 0.002 6.598-0.003 13.198 0.002 19.798-0.089 0.746 0.568 1.404 1.317 1.299 9.412-0.002 18.827 0.006 28.239-0.003 0.715 0.070 1.281-0.605 1.21-1.292 0-6.652 0.008-13.305-0.003-19.957 0.050-0.675-0.546-1.244-1.216-1.202-9.297-0.024-18.595 0.003-27.894-0.015-0.358 0.011-0.738-0.002-1.069 0.161z"></path>
<path fill="#fff" d="M2.134 2.283c0.123 0.002 0.37 0.005 0.493 0.006 0.005 0.856 0.005 1.712 0 2.567-0.123 0.002-0.37 0.005-0.493 0.006-0.006-0.859-0.006-1.719 0-2.58z"></path>
<path fill="#fff" d="M14.012 2.291c0.123-0.002 0.37-0.006 0.493-0.010 0.010 0.861 0.008 1.722 0.002 2.582-0.123-0.002-0.371-0.005-0.496-0.006 0-0.856 0-1.711 0.002-2.565z"></path>
<path fill="#fff" d="M21.845 2.288c0.123 0 0.37-0.002 0.493-0.002 0.005 0.858 0.005 1.716 0.002 2.574-0.125 0-0.371 0-0.496 0-0.005-0.858-0.005-1.714 0.002-2.572z"></path>
<path fill="#fff" d="M29.694 2.282c0.123 0.003 0.37 0.006 0.493 0.010 0.003 0.855 0.003 1.709 0 2.565-0.123 0.002-0.37 0.006-0.493 0.008-0.008-0.861-0.008-1.722 0-2.583z"></path>
<path fill="#fff" d="M6.122 5.961c0.705-1.14 1.354-2.319 2.089-3.441 0.868 1.401 1.696 2.826 2.544 4.241 0.238 0.334 0.242 0.744 0.165 1.132-0.72-0.026-1.255-0.54-1.808-0.936-0.008 2.068 0.006 4.135-0.010 6.203-0.594 0.008-1.189 0.008-1.782 0-0.011-2.076 0.003-4.151-0.008-6.227-0.582 0.383-1.114 0.954-1.862 0.954-0.177-0.731 0.326-1.336 0.671-1.925z"></path>
<path fill="#fff" d="M2.137 7.19c0.12 0 0.36 0 0.482-0.002 0.021 0.858 0.015 1.717 0.010 2.575-0.123 0.002-0.371 0.002-0.495 0.002-0.003-0.858-0.005-1.716 0.003-2.575z"></path>
<path fill="#fff" d="M14.017 7.192c0.165 0 0.329 0.002 0.493 0.002 0.005 0.855 0.005 1.711 0.002 2.565-0.165 0.002-0.331 0.003-0.496 0.006-0.003-0.858-0.005-1.716 0.002-2.574z"></path>
<path fill="#fff" d="M21.837 7.226c0.165-0.018 0.332-0.036 0.499-0.054 0.011 0.864 0.006 1.729 0.005 2.593-0.123 0-0.371 0-0.496 0-0.003-0.846 0.002-1.693-0.008-2.539z"></path>
<path fill="#fff" d="M29.697 7.189c0.122 0.002 0.368 0.005 0.491 0.006 0.006 0.856 0.005 1.712 0.002 2.569-0.125 0.002-0.373 0.002-0.496 0.002-0.003-0.858-0.005-1.717 0.003-2.577z"></path>
<path fill="#fff" d="M21.842 12.104c0.164-0.011 0.328-0.023 0.491-0.034 0.016 0.859 0.008 1.721 0.011 2.58-0.125 0.003-0.373 0.008-0.496 0.011-0.008-0.851-0.005-1.704-0.006-2.557z"></path>
<path fill="#fff" d="M2.132 12.088c0.125 0 0.373 0 0.496 0 0.005 0.856 0.005 1.712 0 2.569-0.123 0-0.371 0.002-0.495 0.002-0.003-0.858-0.002-1.714-0.002-2.57z"></path>
<path fill="#fff" d="M14.022 14.663c-0.013-0.859-0.013-1.721 0-2.58 0.122 0 0.363 0.003 0.485 0.003 0.011 0.858 0.011 1.716 0 2.572-0.122 0.002-0.363 0.003-0.485 0.005z"></path>
<path fill="#fff" d="M29.694 12.086c0.123 0 0.371 0.002 0.496 0.003 0.003 0.855 0.003 1.711-0.002 2.567-0.123 0-0.371 0.002-0.495 0.002-0.003-0.858-0.003-1.714 0-2.572z"></path>
<path fill="#fff" d="M5.822 15.608c3.070-0.024 6.143-0.047 9.212 0.011 0.101 1.711 0.101 3.433 0.002 5.144-0.381 0.050-0.764 0.078-1.146 0.101-0.054 0.164-0.105 0.328-0.157 0.493-0.512-0.010-1.026-0.011-1.539-0.006-0.164 0.538-0.509 1.169-1.166 1.129-0.637 0.021-0.97-0.592-1.129-1.121-1.672-0.002-3.344-0.003-5.016 0.015-0.167 0.529-0.509 1.142-1.151 1.106-0.631 0.028-0.966-0.571-1.132-1.090-0.253-0.018-0.508-0.036-0.762-0.055-0.003-0.097-0.008-0.29-0.011-0.386 0.637-0.597 0.251-1.721 1.069-2.157 0.456-0.287 0.546-0.861 0.872-1.257 0.647-0.164 1.326-0.083 1.986-0.117-0.002-0.603 0.006-1.208 0.068-1.81M3.422 18.842c0.543 0.011 1.088 0.011 1.631 0.003-0.002-0.315-0.005-0.629-0.011-0.942-0.751-0.12-1.712-0.084-1.62 0.939z"></path>
</svg>
