<!-- Generated by IcoMoon.io -->
<svg version="1.1" xmlns="http://www.w3.org/2000/svg" width="18" height="24" viewBox="0 0 18 24">
<title>information--pedestrians-only--g4</title>
<path fill="#020202" d="M1.056 0h15.925c0.517 0.131 0.922 0.537 1.065 1.049v21.881c-0.053 0.133-0.111 0.264-0.185 0.387l-0.122 0.075c0.115-0.293 0.206-0.601 0.191-0.919-0.005-7.041 0.003-14.082-0.004-21.124 0.032-0.667-0.563-1.262-1.23-1.225-5.116-0.005-10.232-0.005-15.347 0-0.665-0.035-1.259 0.561-1.224 1.225-0.005 7.072-0.001 14.144-0.003 21.215-0.036 0.422 0.193 0.783 0.448 1.094l0.071 0.125c-0.329-0.177-0.524-0.509-0.642-0.853v-21.86c0.134-0.519 0.539-0.929 1.056-1.071z"></path>
<path fill="#fff" d="M0.124 1.349c-0.034-0.664 0.559-1.26 1.224-1.225 5.116-0.005 10.232-0.005 15.347 0 0.667-0.037 1.262 0.558 1.23 1.225 0.006 7.041-0.002 14.082 0.004 21.124 0.014 0.318-0.077 0.626-0.191 0.919-0.239 0.17-0.459 0.398-0.762 0.444-5.302 0.006-10.604 0.014-15.906-0.004-0.171-0.042-0.336-0.109-0.5-0.174-0.255-0.311-0.484-0.672-0.448-1.094 0.002-7.071-0.003-14.143 0.003-21.215M1.108 0.396c-0.437 0.083-0.758 0.51-0.734 0.95-0.003 7.103-0.005 14.206 0.001 21.309-0.023 0.522 0.449 0.991 0.974 0.954 5.117 0.001 10.233 0.001 15.35 0 0.565 0.043 1.038-0.494 0.981-1.046-0.002-7.072 0.003-14.145-0.003-21.217 0.038-0.576-0.511-1.040-1.068-0.98-5.166 0.021-10.337-0.040-15.5 0.030z"></path>
<path fill="#fff" d="M9.863 2.469c0.824-0.325 1.763 0.498 1.544 1.355-0.137 0.877-1.342 1.253-1.962 0.628-0.652-0.555-0.406-1.743 0.419-1.983z"></path>
<path fill="#fff" d="M5.355 4.198c0.633-0.289 1.409 0.314 1.281 0.997-0.066 0.696-0.987 1.059-1.513 0.601-0.554-0.405-0.416-1.367 0.232-1.598z"></path>
<path fill="#fff" d="M10.266 5.305c0.239-0.313 0.66-0.482 1.042-0.457 0.6 0.379 1.211 0.762 1.761 1.209 0.393 0.678 0.758 1.377 1.106 2.079-0.043 0.354-0.255 0.669-0.371 1.005 0.223-0.066 0.448-0.122 0.672-0.187 0.201 0.585 0.404 1.17 0.597 1.758-0.761 0.245-1.511 0.522-2.271 0.771-0.088 0.983-0.163 1.966-0.246 2.949-0.046 0.328 0.134 0.621 0.242 0.918 0.45 1.148 0.905 2.294 1.348 3.445-0.309 0.135-0.614 0.279-0.918 0.423-0.59-1.408-1.201-2.807-1.784-4.217-0.174-0.741-0.222-1.507-0.36-2.256-0.284 0.661-0.612 1.307-0.849 1.986-0.162 1.476-0.264 2.959-0.406 4.438-0.35 0-0.701 0-1.052 0 0.090-1.518 0.158-3.040 0.266-4.556 0.328-1.364 0.812-2.691 1.137-4.056-0.090-0.641-0.271-1.267-0.392-1.902-0.56 0.278-1.119 0.559-1.682 0.834-0.023 0.133-0.055 0.265-0.084 0.397 0.152-0.009 0.305-0.016 0.457-0.028 0.080 0.476 0.155 0.952 0.228 1.429-0.484 0.070-0.968 0.137-1.449 0.224 0.19 1.017 0.384 2.033 0.571 3.050-0.295-0.001-0.589 0.003-0.884 0.005 0.375 1.316 0.768 2.628 1.149 3.944-0.308 0.091-0.614 0.187-0.92 0.281-0.417-1.425-0.838-2.847-1.253-4.271-0.206 0-0.411-0.010-0.615-0.007-0.643 1.316-0.12 2.791-0.149 4.184-0.28 0.023-0.56 0.046-0.841 0.066-0.094-1.175-0.189-2.349-0.281-3.523-0.029-0.268 0.129-0.503 0.223-0.741-0.183-0.002-0.365-0.003-0.549-0.004 0.415-1.652 1.020-3.269 1.124-4.984-0.238 0.309-0.388 0.687-0.669 0.959-0.549 0.355-1.129 0.662-1.69 0.999-0.119-0.236-0.236-0.475-0.35-0.713 0.546-0.439 1.146-0.815 1.666-1.281 0.399-0.798 0.669-1.657 1.067-2.456 0.307-0.529 0.812-0.87 1.436-0.862 0.817 0.524 1.013 1.559 1.511 2.339 0.374-0.145 0.741-0.307 1.102-0.48 0.43-0.913 0.581-2.004 1.359-2.71M12.406 7.313c0.104 0.745 0.199 1.491 0.32 2.234 0.193-0.397 0.369-0.803 0.542-1.209-0.289-0.34-0.568-0.688-0.863-1.025z"></path>
<path fill="#fff" d="M1.256 14.774c0.872-0.002 1.746-0.001 2.619 0-0.056 0.198-0.113 0.396-0.169 0.595-0.817 0.001-1.634 0.002-2.451-0.001-0.002-0.198-0.002-0.396 0-0.594z"></path>
<path fill="#fff" d="M7.249 14.774c0.539-0.004 1.076-0.003 1.614-0.001-0.009 0.198-0.020 0.395-0.032 0.593-0.475 0.004-0.949 0.004-1.424 0-0.054-0.197-0.106-0.394-0.159-0.592z"></path>
<path fill="#fff" d="M12.884 14.774c1.303-0.004 2.607-0.002 3.91-0.001 0.001 0.198 0.001 0.396 0 0.594-1.211 0.004-2.422-0.002-3.632 0.003l-0.061-0.038c-0.072-0.186-0.146-0.371-0.217-0.558z"></path>
<path fill="#fff" d="M1.255 21.302c5.18-0.002 10.36-0.002 15.54 0 0.001 0.198 0.001 0.398-0.001 0.597-5.179 0.002-10.358 0.002-15.538 0.001-0.001-0.2-0.001-0.4-0.001-0.598z"></path>
<path fill="#0163b0" d="M1.108 0.396c5.163-0.069 10.334-0.009 15.5-0.030 0.558-0.060 1.106 0.404 1.068 0.98 0.005 7.072 0.001 14.145 0.003 21.217 0.057 0.552-0.416 1.089-0.981 1.046-5.117 0.001-10.233 0.001-15.35 0-0.524 0.037-0.997-0.431-0.974-0.954-0.006-7.103-0.004-14.206-0.001-21.309-0.023-0.44 0.298-0.867 0.734-0.95M9.863 2.469c-0.825 0.24-1.071 1.428-0.419 1.983 0.621 0.625 1.825 0.249 1.962-0.628 0.219-0.857-0.72-1.68-1.544-1.355M5.355 4.198c-0.648 0.231-0.786 1.193-0.232 1.598 0.526 0.458 1.447 0.095 1.513-0.601 0.128-0.683-0.648-1.286-1.281-0.997M10.266 5.305c-0.778 0.706-0.928 1.797-1.359 2.71-0.361 0.173-0.728 0.335-1.102 0.48-0.498-0.78-0.695-1.814-1.511-2.339-0.624-0.008-1.13 0.333-1.436 0.862-0.399 0.798-0.669 1.658-1.067 2.456-0.521 0.466-1.121 0.842-1.666 1.281 0.115 0.238 0.231 0.476 0.35 0.713 0.561-0.337 1.14-0.644 1.69-0.999 0.281-0.272 0.43-0.651 0.669-0.959-0.105 1.715-0.709 3.332-1.124 4.984 0.183 0.001 0.365 0.002 0.549 0.004-0.094 0.238-0.252 0.473-0.223 0.741 0.092 1.175 0.187 2.349 0.281 3.523 0.281-0.020 0.561-0.042 0.841-0.066 0.029-1.393-0.494-2.868 0.149-4.184 0.205-0.003 0.41 0.007 0.615 0.007 0.415 1.425 0.836 2.847 1.253 4.271 0.307-0.094 0.613-0.189 0.92-0.281-0.381-1.316-0.773-2.627-1.149-3.944 0.295-0.003 0.589-0.006 0.884-0.005-0.187-1.017-0.381-2.033-0.571-3.050 0.481-0.087 0.965-0.153 1.449-0.224-0.073-0.477-0.148-0.954-0.228-1.429-0.152 0.012-0.304 0.019-0.457 0.028 0.029-0.132 0.060-0.264 0.084-0.397 0.563-0.274 1.122-0.556 1.682-0.834 0.122 0.635 0.302 1.261 0.392 1.902-0.325 1.364-0.808 2.691-1.137 4.056-0.108 1.517-0.176 3.038-0.266 4.556 0.351 0 0.702 0 1.052 0 0.142-1.479 0.245-2.962 0.406-4.438 0.237-0.678 0.565-1.324 0.849-1.986 0.138 0.749 0.186 1.515 0.36 2.256 0.583 1.41 1.194 2.81 1.784 4.217 0.304-0.144 0.61-0.288 0.918-0.423-0.443-1.151-0.898-2.297-1.348-3.445-0.108-0.297-0.288-0.59-0.242-0.918 0.083-0.983 0.158-1.967 0.246-2.949 0.76-0.25 1.51-0.526 2.271-0.771-0.193-0.588-0.396-1.174-0.597-1.758-0.224 0.065-0.449 0.121-0.672 0.187 0.115-0.337 0.328-0.651 0.371-1.005-0.348-0.702-0.713-1.401-1.106-2.079-0.55-0.448-1.161-0.83-1.761-1.209-0.382-0.024-0.803 0.144-1.042 0.457M1.256 14.774c-0.002 0.198-0.002 0.396 0 0.594 0.817 0.003 1.634 0.002 2.451 0.001 0.056-0.198 0.113-0.396 0.169-0.595-0.873-0.001-1.747-0.002-2.619 0M7.249 14.774c0.053 0.198 0.105 0.395 0.159 0.592 0.475 0.004 0.949 0.004 1.424 0 0.012-0.198 0.023-0.395 0.032-0.593-0.538-0.002-1.075-0.003-1.614 0.001M12.884 14.774c0.071 0.187 0.145 0.372 0.217 0.558l0.061 0.038c1.21-0.005 2.421 0.001 3.632-0.003 0.001-0.198 0.001-0.396 0-0.594-1.304-0.001-2.608-0.003-3.91 0.001M1.255 21.302c0 0.198 0 0.398 0.001 0.598 5.18 0.001 10.359 0.001 15.538-0.001 0.002-0.199 0.002-0.399 0.001-0.597-5.18-0.002-10.36-0.002-15.54 0z"></path>
<path fill="#0163b0" d="M12.406 7.313c0.294 0.337 0.574 0.685 0.863 1.025-0.173 0.406-0.349 0.812-0.542 1.209-0.121-0.743-0.217-1.489-0.32-2.234z"></path>
<path fill="#080808" opacity="0.83" d="M16.976 23.836c0.303-0.046 0.523-0.274 0.762-0.444l0.122-0.075c-0.161 0.364-0.525 0.558-0.882 0.683h-15.902c-0.149-0.063-0.301-0.123-0.434-0.217l-0.071-0.125c0.164 0.065 0.328 0.133 0.5 0.174 0.54 0.089 1.092 0.046 1.637 0.052 4.211-0.001 8.422 0 12.632 0 0.546-0.005 1.095 0.032 1.638-0.049z"></path>
<path fill="#767676" d="M1.070 23.832c5.302 0.017 10.604 0.010 15.906 0.004-0.542 0.081-1.092 0.044-1.638 0.049-4.21 0-8.421-0.001-12.632 0-0.545-0.006-1.096 0.037-1.637-0.052z"></path>
</svg>
