<!-- Generated by IcoMoon.io -->
<svg version="1.1" xmlns="http://www.w3.org/2000/svg" width="24" height="24" viewBox="0 0 24 24">
<title>information--end-of-minimum-speed-100--g1</title>
<path fill="#fff" d="M11.097 0h1.83c1.77 0.159 3.516 0.669 5.053 1.569 2.492 1.421 4.441 3.765 5.378 6.477 0.349 0.984 0.543 2.015 0.642 3.053v1.826c-0.16 1.77-0.669 3.517-1.57 5.055-1.537 2.7-4.161 4.757-7.155 5.592-0.763 0.224-1.552 0.34-2.34 0.428h-1.861c-1.725-0.154-3.423-0.647-4.935-1.499-2.632-1.467-4.68-3.953-5.593-6.828-0.292-0.886-0.449-1.81-0.547-2.735v-1.866c0.093-0.892 0.241-1.782 0.513-2.639 0.84-2.732 2.7-5.131 5.128-6.638 1.635-1.036 3.53-1.633 5.455-1.795M8.922 1c-2.691 0.74-5.074 2.518-6.563 4.876-1.733 2.689-2.237 6.127-1.359 9.202 0.413 1.495 1.146 2.896 2.117 4.104l-0.041 0.040c0.56 0.576 1.127 1.144 1.703 1.703l0.040-0.041c1.208 0.97 2.609 1.703 4.104 2.115 3.26 0.936 6.925 0.302 9.679-1.68 2.471-1.736 4.196-4.491 4.672-7.473 0.535-3.169-0.359-6.538-2.39-9.028l0.041-0.040c-0.558-0.577-1.127-1.144-1.703-1.703l-0.040 0.041c-2.814-2.306-6.763-3.125-10.26-2.116z"></path>
<path fill="#fff" d="M8.888 7.156c0.781-0.639 1.867-0.856 2.84-0.606 0.948 0.251 1.819 0.936 2.135 1.886-0.48 0.482-0.96 0.964-1.444 1.443 0.003-0.508-0.079-1.073-0.479-1.43-0.62-0.571-1.763-0.495-2.242 0.222-0.216 0.314-0.279 0.705-0.277 1.079 0.001 1.042-0.003 2.083 0.002 3.125-0.543 0.546-1.088 1.089-1.633 1.634-0.002-1.43-0-2.86-0.001-4.29 0.003-0.391-0.016-0.785 0.041-1.174 0.086-0.736 0.455-1.446 1.057-1.889z"></path>
<path fill="#fff" d="M4.536 6.597c0.066-0.064 0.161-0.052 0.244-0.054 0.481 0.005 0.962-0.004 1.443 0.004 0.005 3.175-0.004 6.35 0.004 9.524-0.474 0.48-0.953 0.956-1.431 1.433-0.068-0.001-0.136-0.002-0.204-0.003-0.005-3.069 0-6.139-0.003-9.209-0.518 0.373-1.030 0.755-1.548 1.128-0.002-0.578-0.002-1.155-0-1.733 0.495-0.369 0.998-0.725 1.495-1.091z"></path>
<path fill="#fff" d="M17.446 8.272c0.548-0.586 1.132-1.139 1.695-1.711 0.6 0.18 1.154 0.522 1.57 0.992 0.48 0.549 0.674 1.293 0.677 2.010 0.002 1.609 0 3.218 0.001 4.828 0.002 0.535-0.085 1.080-0.328 1.561-0.324 0.654-0.937 1.125-1.601 1.4-1.282 0.523-2.868 0.111-3.723-0.979-0.468-0.597-0.613-1.38-0.592-2.123-0.001-1.229 0.004-2.459-0.003-3.688 0.618-0.614 1.22-1.245 1.855-1.84-0.139 0.293-0.226 0.612-0.224 0.938-0.002 1.575-0.002 3.15 0 4.726-0.005 0.543 0.225 1.128 0.727 1.391 0.606 0.31 1.45 0.232 1.904-0.308 0.277-0.321 0.359-0.759 0.36-1.172 0.001-1.516 0-3.032 0-4.548 0.001-0.424-0.084-0.875-0.374-1.201-0.472-0.55-1.328-0.593-1.944-0.277z"></path>
<path fill="#fff" d="M12.414 13.288c0.54-0.54 1.077-1.082 1.62-1.618 0.009 0.907 0.002 1.813 0.004 2.72 0.002 0.571-0.097 1.155-0.378 1.658-0.306 0.557-0.827 0.966-1.393 1.237-1.1 0.513-2.476 0.335-3.412-0.439 0.383-0.384 0.767-0.768 1.152-1.152 0.412 0.278 0.95 0.326 1.42 0.188 0.473-0.14 0.83-0.562 0.927-1.040 0.103-0.512 0.044-1.037 0.059-1.555z"></path>
<path fill="#00f" d="M8.922 1c3.497-1.009 7.446-0.19 10.26 2.116-1.77 1.776-3.545 3.548-5.318 5.32-0.316-0.95-1.187-1.635-2.135-1.886-0.973-0.25-2.059-0.033-2.84 0.606-0.601 0.443-0.971 1.153-1.057 1.889-0.057 0.389-0.038 0.782-0.041 1.174 0 1.43-0.001 2.859 0.001 4.29-0.521 0.521-1.041 1.044-1.565 1.562-0.008-3.174 0-6.349-0.004-9.524-0.481-0.008-0.962 0.001-1.443-0.004-0.083 0.002-0.179-0.010-0.244 0.054-0.497 0.366-1.001 0.721-1.495 1.091-0.002 0.578-0.002 1.155 0 1.733 0.518-0.373 1.030-0.755 1.548-1.128 0.003 3.069-0.002 6.139 0.003 9.209 0.068 0 0.136 0.001 0.204 0.003-0.56 0.559-1.118 1.121-1.68 1.678-0.971-1.207-1.704-2.609-2.117-4.104-0.878-3.075-0.374-6.513 1.359-9.202 1.49-2.358 3.873-4.136 6.563-4.876z"></path>
<path fill="#00f" d="M19.141 6.561c0.581-0.581 1.161-1.163 1.743-1.742 2.031 2.49 2.925 5.858 2.39 9.028-0.476 2.983-2.201 5.737-4.672 7.473-2.754 1.982-6.419 2.616-9.679 1.68-1.495-0.412-2.896-1.145-4.104-2.115 1.344-1.348 2.691-2.692 4.037-4.038 0.935 0.774 2.311 0.952 3.412 0.439 0.565-0.27 1.087-0.68 1.393-1.237 0.281-0.503 0.381-1.087 0.378-1.658-0.002-0.907 0.006-1.813-0.004-2.72 0.366-0.373 0.736-0.741 1.107-1.108 0.007 1.229 0.001 2.459 0.003 3.688-0.020 0.742 0.125 1.525 0.592 2.122 0.855 1.090 2.441 1.502 3.723 0.979 0.664-0.275 1.276-0.746 1.601-1.4 0.243-0.481 0.33-1.027 0.328-1.561-0-1.609 0.001-3.218-0.001-4.828-0.003-0.717-0.197-1.461-0.677-2.010-0.416-0.47-0.969-0.813-1.57-0.992z"></path>
<path fill="#00f" d="M9.699 8.67c0.48-0.717 1.623-0.794 2.242-0.222 0.4 0.357 0.482 0.922 0.479 1.43-0.997 1.001-1.996 1.999-2.995 2.996-0.005-1.042-0.001-2.084-0.002-3.125-0.003-0.374 0.060-0.765 0.277-1.079z"></path>
<path fill="#00f" d="M17.446 8.272c0.617-0.317 1.472-0.274 1.944 0.277 0.29 0.326 0.375 0.777 0.374 1.201 0 1.516 0 3.032-0 4.548-0.001 0.413-0.083 0.851-0.36 1.172-0.453 0.54-1.297 0.618-1.904 0.308-0.501-0.263-0.732-0.848-0.727-1.391-0.003-1.575-0.002-3.15-0-4.726-0.002-0.326 0.084-0.645 0.224-0.938 0.141-0.159 0.29-0.309 0.449-0.45z"></path>
<path fill="#00f" d="M10.008 15.694c0.802-0.803 1.604-1.605 2.407-2.406-0.015 0.518 0.044 1.043-0.059 1.555-0.097 0.478-0.455 0.9-0.927 1.040-0.471 0.137-1.008 0.090-1.42-0.188z"></path>
<path fill="#f00" d="M19.182 3.116l0.040-0.041c0.576 0.559 1.145 1.127 1.703 1.703l-0.041 0.040c-0.582 0.579-1.163 1.161-1.743 1.742-0.563 0.572-1.147 1.125-1.695 1.711-0.159 0.141-0.308 0.291-0.449 0.45-0.635 0.596-1.237 1.227-1.855 1.84-0.371 0.367-0.742 0.735-1.107 1.108-0.544 0.535-1.081 1.078-1.62 1.618-0.803 0.801-1.605 1.604-2.407 2.406-0.385 0.383-0.768 0.767-1.152 1.152-1.346 1.346-2.693 2.69-4.037 4.038l-0.040 0.041c-0.576-0.559-1.144-1.128-1.703-1.703l0.041-0.040c0.563-0.557 1.12-1.118 1.68-1.678 0.477-0.478 0.956-0.953 1.431-1.433 0.524-0.518 1.043-1.041 1.565-1.562 0.545-0.544 1.090-1.088 1.633-1.634 0.999-0.998 1.999-1.995 2.995-2.996 0.483-0.479 0.963-0.961 1.444-1.443 1.774-1.772 3.548-3.544 5.318-5.32z"></path>
</svg>
