<svg xmlns="http://www.w3.org/2000/svg" width="24" height="24">
    <path fill="#0379c1" d="M0 1.714h23.719c.069.186.21.333.391.414v19.936c-.182-.034-.255.039-.219.221H.001V1.714zm17.799 1.373c-.035 3.117.027 6.236-.03 9.351.034.758-.813 1.257-1.465.87-2.57-1.465-5.119-2.97-7.683-4.449.603-1.088 1.241-2.154 1.851-3.237A205.387 205.387 0 0 0 7.074 3.65a1471.896 1471.896 0 0 0-4.965 8.631c1.133.651 2.265 1.304 3.4 1.955.635-1.071 1.239-2.161 1.869-3.235 3.123 1.805 6.254 3.593 9.369 5.409.58.309.988.908 1.021 1.571.046 1.013 0 2.028.022 3.041 1.309.007 2.619.008 3.929 0 0-5.979.005-11.956-.003-17.935a854.126 854.126 0 0 0-3.921 0z"/>
    <path fill="#e4f1f9" d="M23.719 1.714h.391v.414a.736.736 0 0 1-.391-.414z"/>
    <path fill="#fff" d="M17.799 3.087c1.306-.003 2.614-.003 3.921 0 .008 5.979.003 11.956.003 17.935-1.311.008-2.62.007-3.929 0-.022-1.013.024-2.028-.022-3.041-.033-.663-.441-1.262-1.021-1.571-3.116-1.816-6.248-3.603-9.369-5.409-.63 1.075-1.234 2.163-1.869 3.235-1.135-.651-2.267-1.304-3.4-1.955A1448.15 1448.15 0 0 1 7.078 3.65c1.136.65 2.273 1.299 3.398 1.972-.61 1.083-1.249 2.151-1.851 3.237 2.563 1.478 5.113 2.984 7.683 4.449.651.387 1.499-.112 1.465-.87.057-3.116-.005-6.234.03-9.351zM2.478 12.166c.988.579 1.98 1.15 2.97 1.725 1.558-2.717 3.13-5.426 4.685-8.145-.976-.591-1.972-1.153-2.962-1.719-1.576 2.707-3.135 5.423-4.694 8.139z"/>
    <path fill="#ec1d24" d="M2.478 12.166C4.036 9.45 5.595 6.733 7.172 4.027c.991.566 1.986 1.128 2.962 1.719-1.556 2.719-3.128 5.427-4.685 8.145-.991-.574-1.983-1.145-2.97-1.725z"/>
    <path fill="#e2f0f8" d="M23.89 22.286c-.035-.182.037-.255.219-.221v.221h-.219z"/>
</svg>
