<svg xmlns="http://www.w3.org/2000/svg" width="24" height="24">
    <path fill="#003054" opacity=".47" d="M.942 0H23.17l.173.078C17.284.175 11.221.092 5.161.12 3.697.101 2.232.168.77.071L.943 0z"/>
    <path fill="#0166b3" d="M.092 1.072A.926.926 0 0 1 .769.071C2.231.168 3.696.101 5.16.12 11.22.092 17.284.175 23.342.078c.106.043.203.101.294.17l.034.102a6.163 6.163 0 0 0-1.109-.114C15.397.247 8.232.231 1.067.243a.718.718 0 0 0-.796.828L.27 22.928c-.065.472.314.893.798.823H21.36c.769-.002 1.543.042 2.304-.088l-.031.098a2.228 2.228 0 0 1-.272.167c-5.544-.114-11.094-.017-16.64-.049-1.986.025-3.973-.054-5.957.048-.445-.116-.716-.547-.671-1V1.07z"/>
    <path fill="#fff" d="M.271 1.072a.718.718 0 0 1 .796-.828C8.232.232 15.397.248 22.561.237c.373 0 .743.047 1.109.114.205.665.134 1.366.143 2.05-.002 6.36-.001 12.72-.001 19.08-.012.728.076 1.477-.148 2.184-.761.13-1.535.085-2.304.088H1.068c-.484.07-.863-.352-.798-.823L.271 1.073zM.994.854C.732.985.81 1.32.783 1.558.796 8.6.776 15.642.793 22.684c-.041.312.217.538.521.496 7.124.007 14.249.005 21.373.001.31.048.588-.176.545-.499.008-7.121.006-14.243.001-21.365.049-.326-.227-.57-.547-.523C15.604.787 8.52.796 1.438.79c-.152-.005-.3.017-.443.064z"/>
    <path fill="#fff" d="M8.784 6.263c1.08-1.763 2.095-3.564 3.202-5.31 1.092 1.73 2.095 3.515 3.161 5.261.259.426.566.913.413 1.433-.143.355-.636.293-.911.14-.527-.305-.994-.704-1.5-1.043-.007 3.012.014 6.023-.006 9.035-.768.024-1.537.008-2.306.002-.036-3.02.001-6.041-.014-9.061-.54.343-1.037.75-1.586 1.076-.282.157-.775.186-.883-.197-.094-.485.202-.934.432-1.337zM2.368 2.948h1.223v2.57l-1.224-.001c0-.857-.001-1.712.001-2.569zM20.657 2.948h1.224v2.569h-1.224V2.948zM2.368 8.11l1.223-.001v2.57H2.367c0-.857-.001-1.714.001-2.569zM20.657 8.11h1.224v2.569h-1.224V8.11zM2.368 13.271l1.223-.001v2.57H2.367c0-.857-.001-1.714.001-2.569zM20.657 13.271h1.224v2.569h-1.225l.001-2.569zM4.792 17.418c.792-.026 1.585-.064 2.377-.022.094 1.094.048 2.194.116 3.289 1.423.048 2.85-.053 4.271.058a16.31 16.31 0 0 1-.3.956c-1.423.017-2.846.001-4.27.008-.152-.644-.586-1.39-1.348-1.342-.712-.024-1.162.642-1.283 1.272-.28-.01-.558-.026-.836-.054.038-.857-.326-1.836.23-2.587.341-.53.682-1.061 1.042-1.579zm.276.59c-.317.392-.845.73-.854 1.279.475.265 1.09.068 1.62.103.018-.454.018-.907.005-1.36-.257-.011-.514-.017-.77-.023z"/>
    <path fill="#fff" d="M5.312 20.665c.673-.284 1.486.326 1.396 1.051-.024.757-.984 1.23-1.6.787-.702-.412-.577-1.595.204-1.838zM13.649 20.77h.526c.006.306.008.612-.005.919-.307-.215-.395-.59-.521-.919z"/>
    <path fill="#00599d" opacity=".88" d="M23.636.248c.127.12.245.248.364.377v22.696a3.616 3.616 0 0 1-.367.442l.031-.098c.223-.707.136-1.456.148-2.184 0-6.36-.001-12.72.001-19.08-.008-.684.062-1.385-.143-2.05l-.034-.102z"/>
    <path fill="#0066b3" d="M.994.854c.143-.047.29-.068.443-.064C8.519.796 15.603.786 22.685.794c.32-.047.596.197.547.523.005 7.122.007 14.244-.001 21.365.043.323-.235.547-.545.499-7.124.004-14.249.006-21.373-.001-.304.042-.562-.184-.521-.496C.775 15.642.796 8.6.782 1.558.81 1.319.732.984.993.854zm7.79 5.409c-.23.403-.526.852-.432 1.337.108.383.601.354.883.197.55-.326 1.046-.733 1.586-1.076.016 3.02-.022 6.041.014 9.061.769.006 1.538.022 2.306-.002.02-3.012-.001-6.023.006-9.035.506.338.973.738 1.5 1.043.275.152.768.215.911-.14.154-.52-.154-1.007-.413-1.433-1.066-1.746-2.069-3.53-3.161-5.261-1.106 1.746-2.122 3.547-3.202 5.31zM2.368 2.948c-.002.857-.001 1.712-.001 2.569l1.224.001v-2.57H2.368zm18.289 0v2.569h1.224V2.948h-1.224zM2.368 8.11c-.002.856-.001 1.712-.001 2.569h1.224v-2.57l-1.223.001zm18.289 0v2.569h1.224V8.11h-1.224zM2.368 13.271c-.002.856-.001 1.712-.001 2.569h1.224v-2.57l-1.223.001zm18.289 0l-.001 2.569h1.225v-2.569h-1.224zM9.954 16.087a355.27 355.27 0 0 0 0 4.38c.902.012 1.806 0 2.708.008l-.108.154c-.778-.014-1.234.964-.793 1.576.395.668 1.504.594 1.804-.124.347-.667-.205-1.493-.948-1.493 1.688-.245 3.432-.082 5.14-.085-.47.21-1.042.493-1.022 1.098-.08.913 1.183 1.444 1.783.756.637-.611.145-1.778-.744-1.769a4.646 4.646 0 0 1 2.254 0c-.881 0-1.364 1.153-.738 1.763.593.691 1.856.174 1.788-.737.026-.611-.545-.908-1.028-1.104.295-.028.59-.044.887-.062-.006-1.454.012-2.909-.011-4.363-3.656-.006-7.314-.012-10.97.002zm-5.162 1.331c-.36.518-.701 1.049-1.042 1.579-.557.751-.192 1.73-.23 2.587.278.028.557.044.836.054.121-.63.571-1.296 1.283-1.272.762-.048 1.195.697 1.348 1.342 1.423-.007 2.846.008 4.27-.008a16.8 16.8 0 0 0 .3-.956c-1.421-.11-2.848-.01-4.271-.058-.068-1.096-.023-2.195-.116-3.289-.792-.042-1.585-.005-2.377.022zm.52 3.247c-.781.244-.906 1.427-.204 1.838.616.443 1.576-.03 1.6-.787.09-.725-.722-1.336-1.396-1.051zm8.337.105c.126.329.214.704.521.919.013-.307.011-.613.005-.919h-.526z"/>
    <path fill="#0066b3" d="M5.068 18.008c.257.006.514.012.77.023a19.9 19.9 0 0 1-.005 1.36c-.53-.035-1.145.162-1.62-.103.01-.55.538-.887.854-1.279z"/>
    <path fill="#fdffff" d="M9.954 16.087c3.656-.014 7.314-.008 10.97-.002.023 1.454.005 2.909.011 4.363-.296.018-.592.035-.887.062.484.196 1.055.493 1.028 1.104.068.911-1.195 1.428-1.788.737-.626-.61-.143-1.763.738-1.763a4.646 4.646 0 0 0-2.254 0c.889-.01 1.381 1.158.744 1.769-.6.688-1.864.157-1.783-.756-.019-.605.552-.888 1.022-1.098-1.708.004-3.451-.16-5.14.085.743 0 1.295.826.948 1.493-.3.718-1.409.792-1.804.124-.44-.612.016-1.59.793-1.576.028-.038.082-.115.108-.154-.902-.008-1.806.004-2.708-.008a355.27 355.27 0 0 1 0-4.38z"/>
    <path fill="#002948" opacity=".4" d="M.763 23.928c1.984-.102 3.971-.023 5.957-.048 5.546.032 11.096-.065 16.64.049l-.155.071H.94l-.178-.072z"/>
</svg>
