<!-- Generated by IcoMoon.io -->
<svg version="1.1" xmlns="http://www.w3.org/2000/svg" width="24" height="24" viewBox="0 0 24 24">
<title>information--hospital--g1</title>
<path fill="#fff" d="M1.28 0h21.481l-0.004 0.050c-0.389-0.047-0.781-0.038-1.171-0.037-6.138 0-12.276 0-18.414 0-0.653 0.011-1.31-0.033-1.96 0.046l0.068-0.059z"></path>
<path fill="#fff" d="M1.399 0.23c0.244-0.043 0.492-0.032 0.739-0.032 6.735 0.003 13.471-0.003 20.207 0.003 0.81-0.021 1.528 0.712 1.498 1.519 0.003 6.877 0.003 13.753 0 20.629 0.017 0.801-0.692 1.512-1.493 1.497-6.877 0.007-13.753 0.004-20.63 0.001-0.81 0.031-1.546-0.692-1.523-1.504-0.006-6.872-0.003-13.745-0.002-20.617-0.024-0.704 0.508-1.373 1.203-1.495M1.474 0.724c-0.452 0.093-0.797 0.533-0.775 0.996-0.002 6.877-0.001 13.753 0 20.63-0.018 0.545 0.484 1.025 1.027 0.994 6.872 0 13.745 0.003 20.617-0.001 0.537 0.019 1.015-0.465 0.998-0.999 0-6.872-0.001-13.746 0-20.618 0.037-0.572-0.496-1.077-1.063-1.023-6.934 0.015-13.871-0.028-20.803 0.022z"></path>
<path fill="#fff" d="M0 1.241h0.053c-0.079 0.641-0.032 1.288-0.044 1.931-0.001 6.161 0 12.322-0.001 18.483-0.006 0.379-0.001 0.759 0.042 1.137l-0.050-0.086v-21.465z"></path>
<path fill="#fff" d="M3.961 2.109c1.299-0.043 2.602-0.005 3.902-0.019 0.019 2.39 0.003 4.779 0.008 7.17 2.739 0.008 5.479 0.003 8.218 0.002 0.003-2.39 0.001-4.781 0.001-7.171 1.3-0.001 2.599 0.002 3.899-0.001 0.003 6.617 0.001 13.233 0.001 19.85-1.3-0.002-2.601 0.010-3.901-0.007 0.001-2.899 0.003-5.798-0.001-8.697-2.739-0.003-5.478-0.002-8.217 0-0.003 2.901 0.001 5.803-0.002 8.704-1.299 0.001-2.599 0.003-3.897-0.001-0.012-6.609 0.011-13.219-0.012-19.828z"></path>
<path fill="#fff" d="M0.072 22.83c0.090 0.063 0.106 0.139 0.048 0.224-0.063-0.063-0.079-0.138-0.048-0.224z"></path>
<path fill="#d8d8d9" d="M1.014 0.109c0.041-0.006 0.126-0.019 0.167-0.025-0.041 0.006-0.126 0.019-0.167 0.025z"></path>
<path fill="#2b2e34" d="M1.181 0.084l0.032-0.026c0.65-0.079 1.307-0.034 1.96-0.046 6.138 0 12.276 0 18.414 0 0.39-0.001 0.782-0.010 1.171 0.037 0.604 0.097 1.072 0.601 1.243 1.172v21.634c-0.16 0.547-0.601 0.99-1.152 1.144h-21.63c-0.495-0.125-0.876-0.498-1.099-0.946 0.058-0.086 0.042-0.161-0.048-0.224l-0.021-0.039c-0.043-0.378-0.048-0.757-0.042-1.137 0.001-6.161 0-12.322 0.001-18.483 0.012-0.643-0.034-1.29 0.044-1.931 0.081-0.515 0.501-0.923 0.961-1.132 0.041-0.006 0.126-0.019 0.167-0.025M1.399 0.23c-0.695 0.122-1.228 0.791-1.203 1.495-0.001 6.872-0.004 13.746 0.002 20.617-0.023 0.812 0.712 1.535 1.523 1.504 6.877 0.003 13.753 0.006 20.63-0.001 0.801 0.015 1.51-0.696 1.493-1.497 0.003-6.876 0.003-13.752 0-20.629 0.030-0.808-0.688-1.54-1.498-1.519-6.736-0.006-13.472 0-20.207-0.003-0.247 0.001-0.495-0.010-0.739 0.032z"></path>
<path fill="#005598" d="M1.474 0.724c6.932-0.050 13.869-0.007 20.803-0.022 0.568-0.054 1.101 0.451 1.063 1.023-0.001 6.872 0 13.746 0 20.618 0.017 0.534-0.461 1.019-0.998 0.999-6.872 0.004-13.744 0.001-20.617 0.001-0.543 0.030-1.045-0.45-1.027-0.994-0.001-6.877-0.002-13.753 0-20.63-0.021-0.463 0.323-0.903 0.775-0.996M3.961 2.109c0.023 6.609 0 13.219 0.012 19.828 1.299 0.005 2.598 0.003 3.897 0.001 0.003-2.901-0.001-5.803 0.002-8.704 2.739-0.002 5.478-0.003 8.217 0 0.004 2.899 0.002 5.799 0.001 8.697 1.3 0.017 2.601 0.005 3.901 0.007 0.001-6.617 0.003-13.233-0.001-19.85-1.3 0.003-2.599 0.001-3.899 0.001-0.001 2.39 0.002 4.781-0.001 7.171-2.739 0.001-5.479 0.006-8.218-0.002-0.006-2.39 0.010-4.78-0.008-7.17-1.3 0.014-2.603-0.024-3.902 0.019z"></path>
</svg>
