<svg xmlns="http://www.w3.org/2000/svg" width="24" height="24">
    <path fill="#c9d1e2" d="M0 0h.222C.257.182.183.254 0 .218V0z"/>
    <path fill="#173885" d="M.222 0H24v24H0V.218C.182.255.257.183.222 0zm11.496 2.147c-2.939.799-5.885 1.574-8.825 2.371a67.04 67.04 0 0 0-.005 1.849c2.8-.776 5.617-1.491 8.417-2.268.358-.093.736-.24 1.103-.102 2.938.793 5.878 1.571 8.814 2.369.003-.614.005-1.229-.003-1.844-2.797-.758-5.596-1.506-8.395-2.258-.361-.09-.736-.25-1.107-.117zM6.694 7.293c-.005 4.913-.003 9.826-.001 14.738 1.065.001 2.13.003 3.195 0 .005-1.401-.005-2.8.001-4.199 1.121-.013 2.245-.001 3.367-.025 2.216-.06 4.18-2.068 4.163-4.29-.021-.929.066-1.865-.071-2.786-.321-1.882-2.07-3.378-3.972-3.433-2.227-.016-4.454-.004-6.681-.005z"/>
    <path fill="#173885" d="M9.903 10.424c1.07.001 2.139-.012 3.209.004.53-.005 1.045.429 1.061.973.02.749.016 1.499.003 2.249-.009.546-.521 1.01-1.064.984-1.068.008-2.135.003-3.204 0a844.008 844.008 0 0 1-.005-4.21z"/>
    <path fill="#fff" d="M11.718 2.147c.371-.134.746.026 1.107.117 2.799.753 5.597 1.5 8.395 2.258.008.615.005 1.23.003 1.844-2.936-.797-5.877-1.575-8.814-2.369-.367-.138-.745.009-1.103.102-2.8.776-5.617 1.491-8.417 2.268a67.04 67.04 0 0 1 .005-1.849c2.94-.797 5.886-1.572 8.825-2.371zM6.694 7.293c2.227.001 4.454-.01 6.681.005 1.903.055 3.651 1.551 3.972 3.433.136.921.05 1.857.071 2.786.017 2.222-1.946 4.23-4.163 4.29-1.121.024-2.245.012-3.367.025-.007 1.399.004 2.799-.001 4.199-1.065.003-2.13.001-3.195 0-.001-4.913-.004-9.826.001-14.738zm3.209 3.131c-.003 1.403.001 2.807.005 4.21 1.069.003 2.136.008 3.204 0 .543.026 1.054-.438 1.064-.984.013-.75.017-1.5-.003-2.249-.016-.544-.531-.978-1.061-.973-1.07-.016-2.139-.003-3.209-.004z"/>
</svg>
