<svg xmlns="http://www.w3.org/2000/svg" width="24" height="24">
    <path fill="#f0c900" d="M.089 4.874c.211-.417.593-.789 1.097-.737 7.169-.007 14.339-.003 21.509-.001.505-.047.891.337 1.093.759a909.449 909.449 0 0 0-.006 14.209c-.174.293-.383.595-.709.731-7.42.027-14.845.054-22.265-.013-.331-.125-.536-.43-.717-.717C.134 14.362.146 9.616.09 4.874zm.915-.441c-.431.03-.66.479-.619.871C.384 9.767.378 14.232.38 18.695c-.06.522.429.937.933.881 7.125.003 14.249.001 21.374 0 .498.066.835-.429.797-.881.003-4.501.018-9.004.003-13.506.032-.494-.451-.833-.912-.777-7.189.014-14.382-.025-21.57.02z"/>
    <path fill="#f0c900" d="M.735 5.189c-.049-.335.294-.471.571-.433 7.09.003 14.18-.001 21.269.001.271-.03.602.107.565.431.023 2.214.003 4.43.003 6.646-7.471-.003-14.942-.003-22.414 0C.728 9.619.72 7.404.735 5.189zm18.193 1.667c.006.269.009.539.017.809.375-.351.737-.714 1.107-1.07.009 1.309-.012 2.619.012 3.929.225-.003.449-.003.673-.005.007-1.301-.009-2.603.009-3.905.375.35.735.715 1.102 1.073.005-.276.009-.553.012-.829-.479-.489-.969-.965-1.455-1.445-.505.467-.992.953-1.477 1.443zM2.311 5.947c-.517.393-.338 1.367.331 1.47.357.095 1.099.055.941.631-.305.516-1.034.241-1.455.015-.097.113-.192.228-.288.344.543.371 1.321.566 1.906.178.575-.394.317-1.439-.388-1.499-.334-.086-.967-.06-.88-.572.203-.529.869-.27 1.253-.123.085-.119.169-.24.254-.361-.503-.261-1.177-.475-1.673-.085zm4.32-.128c-.03.98.003 1.962-.012 2.943l.435.009c.009-.471-.029-.946.026-1.415.032-.414.761-.419.8-.003.057.469.019.943.026 1.414.143.001.287.003.431.003-.018-.569.061-1.15-.049-1.713-.186-.516-.844-.541-1.243-.26.009-.353.011-.708.007-1.063a1.243 1.243 0 0 0-.421.085zm5.948.14c-.003.191-.003.382-.003.572-.067.05-.199.151-.266.199l.265.364c.015.622-.26 1.837.759 1.681a22.728 22.728 0 0 1-.024-.374l-.301-.094a51.926 51.926 0 0 1-.003-1.309l.311-.089c.009-.06.023-.178.031-.237l-.341-.075v-.608l-.427-.032zm-1.296.015c0 .195-.003.388-.001.583l-.272.18.275.355c.015.623-.264 1.819.747 1.694l-.001-.345-.315-.163c-.003-.433-.003-.867-.001-1.299l.317-.051.02-.26c-.086-.015-.257-.049-.343-.066.003-.208.003-.415.005-.623a61.638 61.638 0 0 0-.43-.003zM4.708 8.487c.397.442 1.064.344 1.496.009l-.241-.319c-.43.335-1.164.166-1.071-.477-.097-.643.645-.818 1.072-.477.08-.106.16-.211.239-.319-.315-.191-.681-.389-1.06-.261-.763.211-.874 1.292-.435 1.843zm4.753-1.824c-.935.386-.703 2.307.453 2.128 1.287-.149.909-2.666-.453-2.128zm4.462 1.796c.393.466 1.101.389 1.552.054l-.285-.303c-.391.283-.969.221-1.084-.319.471-.038.945-.033 1.417-.032.085-.595-.269-1.327-.96-1.25-.877.061-1.028 1.236-.64 1.851zm2.156-1.843a154.66 154.66 0 0 0-.001 2.154l.431-.003c.014-.491-.042-.986.038-1.472.103-.361.747-.331.786.056.061.467.02.94.025 1.409.142.006.284.011.427.015-.025-.602.109-1.239-.087-1.819-.352-.603-1.085-.137-1.619-.341zm-7.985 3.807c-.231.474.433.948.803.563.325-.352.074-.868-.357-.973a8.28 8.28 0 0 0 .313-.676c-.479.128-.565.697-.759 1.085zm2.104-1.006a47.68 47.68 0 0 0 .003 1.733c.047-.012.137-.035.184-.045.067-.189.142-.375.21-.563.119.186.237.374.35.565l.302.038c-.142-.243-.29-.483-.441-.72.127-.184.241-.376.296-.595-.255.167-.461.394-.665.617V9.442l-.239-.024zm1.257.496c.074.401-.217 1.052.213 1.275.075-.391-.163-1.177.483-1.009.015.319.027.639.043.959l.208.001c.049-.385-.155-1.121.471-.965.017.338.027.676.053 1.013.415-.211.352-1.416-.307-1.247-.387.054-.776-.021-1.163-.027z"/>
    <path fill="#f0c900" d="M9.713 7.041c.551-.094.603.607.51.986-.051.454-.812.449-.853-.009-.044-.334-.101-.898.343-.978zM14.127 7.494c.068-.615.915-.608.986 0-.329.009-.658.009-.986 0zM8.335 10.349l.411-.007c.051.208.079.572-.24.539-.29-.017-.143-.343-.171-.531zM.731 12.174c6.46.015 12.922-.021 19.381.018-1.897.511-3.707 1.38-5.655 1.677l-.047.148c-.67.243-1.347.474-2.031.675a6.735 6.735 0 0 0-1.083.349 11.64 11.64 0 0 1-1.101.35c.001-.611-.001-1.223.001-1.833a62.742 62.742 0 0 0-.617-.015c-.003.685 0 1.371-.001 2.057l-.969.331a88.345 88.345 0 0 0-.009-1.152h-.605c-.005.454-.007.907-.009 1.361-.455.147-.913.284-1.381.38.246-.991.501-1.979.743-2.971l-.685-.005c-.235.979-.409 1.973-.677 2.943-.365-.955-.554-1.965-.855-2.942l-.462.001c-.29.989-.521 1.994-.839 2.973-.288-.978-.449-1.987-.694-2.977l-.683.007c.337 1.351.67 2.705 1.019 4.054-.925.279-1.839.595-2.761.883.033-2.104.001-4.208.02-6.311zm7.258 1.371v.611h.617v-.611h-.617zM17.958 14.893c1.713-.616 3.46-1.139 5.188-1.715-.006 1.837.003 3.677-.007 5.514.024.273-.133.601-.453.541-6.029-.006-12.06.024-18.089-.015 1.683-.519 3.342-1.109 5.027-1.62.309.16.647.24.991.277.009-.21.018-.419.025-.629.155-.037.308-.083.461-.131l-.123.267c.643.513 1.649.723 2.329.166.374-.302.246-.814.151-1.213.307-.095.614-.195.919-.293-.012.411-.079.832.032 1.236.057.515.628.572 1.037.591l.012-.573c-.11-.023-.329-.066-.439-.087-.014-.46-.018-.919-.015-1.379.382-.122.763-.245 1.143-.371-.127.64-.228 1.391.167 1.959.573.627 1.611.569 2.204-.001-.134-.127-.269-.252-.403-.377-.549.401-1.437.323-1.514-.481.657-.02 1.315-.011 1.973-.014.026-.61-.061-1.283-.615-1.65zm1.408-.116c-.006 1.019-.003 2.038-.003 3.057l.615.001c.027-.691-.048-1.39.039-2.079.118-.451.657-.423 1.007-.29.14-.169.279-.338.417-.509-.439-.283-.991-.245-1.414.05l-.129-.234-.533.003z"/>
    <path fill="#f0c900" d="M4.229 17.242c.226-.813.415-1.637.67-2.443.226.711.399 1.437.591 2.159a5.51 5.51 0 0 1-1.261.284zM16.595 16.003c.077-.874 1.36-.861 1.378.025-.46.018-.921.017-1.378-.025zM11.451 16.996a31.45 31.45 0 0 0 1.041-.376c.276-.011.605.183.411.491-.43.353-1.031.142-1.452-.115z"/>
    <path d="M1.004 4.433c7.188-.045 14.381-.006 21.57-.02.461-.056.945.283.912.777.015 4.501 0 9.004-.003 13.506.038.453-.299.947-.797.881-7.125.001-14.249.003-21.374 0-.504.056-.992-.359-.933-.881-.003-4.463.003-8.928.005-13.391-.042-.393.187-.842.619-.871zm-.269.756C.721 7.404.728 9.619.729 11.834c7.472-.003 14.943-.003 22.414 0 0-2.216.019-4.432-.003-6.646.037-.323-.294-.461-.565-.431-7.089-.003-14.179.001-21.269-.001-.277-.038-.62.098-.571.433zm-.004 6.985c-.019 2.104.013 4.208-.02 6.311.007.29.023.714.409.731a59.31 59.31 0 0 0 3.478.001c6.029.039 12.06.009 18.089.015.32.06.477-.267.453-.541.011-1.837.001-3.677.007-5.514.001-.335-.001-.671-.007-1.005-1.009.021-2.02-.029-3.027.019-6.46-.039-12.922-.003-19.381-.018z"/>
    <path d="M18.928 6.856c.485-.489.972-.975 1.477-1.443.486.48.977.957 1.455 1.445-.003.276-.007.553-.012.829-.367-.358-.727-.723-1.102-1.073-.018 1.301-.003 2.603-.009 3.905l-.673.005c-.024-1.31-.003-2.62-.012-3.929-.37.356-.732.719-1.107 1.07-.007-.27-.011-.54-.017-.809zM2.311 5.947c.495-.391 1.17-.177 1.673.085l-.254.361c-.383-.147-1.049-.406-1.253.123-.087.512.546.486.88.572.706.06.963 1.105.388 1.499-.585.388-1.363.193-1.906-.178.095-.116.191-.231.288-.344.421.226 1.151.5 1.455-.015.157-.577-.584-.536-.941-.631-.669-.103-.848-1.077-.331-1.47zM6.631 5.819c.134-.053.275-.08.421-.085.003.355.003.709-.007 1.063.399-.281 1.057-.255 1.243.26.11.563.031 1.144.049 1.713l-.431-.003c-.007-.471.031-.945-.026-1.414-.039-.415-.768-.411-.8.003-.055.469-.017.943-.026 1.415l-.435-.009c.015-.981-.018-1.963.012-2.943zM12.579 5.959l.427.032v.608l.341.075c-.009.059-.023.177-.031.237L13.005 7c-.005.436-.005.873.003 1.309l.301.094c.007.125.015.249.024.374-1.02.157-.744-1.059-.759-1.681l-.265-.364.266-.199.003-.572zM11.283 5.974l.43.003-.005.623.343.066-.02.26-.317.051c-.003.432-.003.866.001 1.299l.315.163.001.345c-1.011.124-.732-1.071-.747-1.694a85.025 85.025 0 0 1-.275-.355l.272-.18c-.001-.195.001-.388.001-.583zM4.708 8.487c-.439-.551-.329-1.632.435-1.843.38-.128.745.071 1.06.261l-.239.319c-.427-.34-1.169-.166-1.072.477-.093.643.641.812 1.071.477l.241.319c-.432.334-1.099.432-1.496-.009zM9.461 6.663c1.361-.539 1.74 1.979.453 2.128-1.156.179-1.387-1.742-.453-2.128zm.252.378c-.444.08-.387.643-.343.978.041.457.801.462.853.009.093-.38.042-1.081-.51-.986zM13.923 8.459c-.388-.615-.237-1.79.64-1.851.691-.077 1.045.655.96 1.25-.473-.001-.946-.006-1.417.032.115.54.693.602 1.084.319l.285.303c-.451.335-1.159.412-1.552-.054zm.204-.965c.329.009.658.009.986 0-.071-.608-.918-.615-.986 0zM16.079 6.616c.534.204 1.267-.261 1.619.341.196.579.062 1.217.087 1.819-.143-.005-.285-.009-.427-.015-.005-.469.036-.942-.025-1.409-.038-.387-.683-.417-.786-.056-.08.486-.024.981-.038 1.472-.107 0-.323.001-.431.003-.003-.717-.005-1.437.001-2.154zM8.094 10.423c.195-.388.281-.957.759-1.085a7.958 7.958 0 0 1-.313.676c.431.105.682.621.357.973-.37.385-1.035-.089-.803-.563zm.241-.074c.027.189-.119.515.171.531.319.033.291-.331.24-.539l-.411.007zM10.198 9.417l.239.024v1.005c.204-.223.409-.45.665-.617a1.854 1.854 0 0 1-.296.595c.151.237.299.477.441.72l-.302-.038a19.04 19.04 0 0 0-.35-.565c-.068.189-.143.375-.21.563l-.184.045a50.063 50.063 0 0 1-.003-1.733zM11.455 9.913c.387.006.776.081 1.163.027.659-.169.723 1.035.307 1.247-.025-.337-.036-.675-.053-1.013-.626-.157-.421.58-.471.965l-.208-.001c-.015-.32-.027-.64-.043-.959-.647-.169-.409.619-.483 1.009-.43-.223-.139-.874-.213-1.275zM2.453 13.549l.683-.007c.245.99.406 1.999.694 2.977.319-.979.549-1.985.839-2.973l.462-.001c.301.977.489 1.987.855 2.942.267-.971.442-1.964.677-2.943l.685.005c-.241.992-.497 1.98-.743 2.971l-.329 1.305-.535.018a48.715 48.715 0 0 1-.252-.883c-.192-.721-.365-1.447-.591-2.159-.254.806-.444 1.63-.67 2.443a72.13 72.13 0 0 1-.18.619c-.171-.019-.341-.036-.512-.061l-.066-.197c-.349-1.349-.682-2.702-1.019-4.054zM7.989 13.545h.617v.611h-.617v-.611zM9.58 13.541c.207.005.412.009.617.015-.003.61 0 1.221-.001 1.833-.006.621-.006 1.242.029 1.863.104-.003.313-.005.417-.007-.007.21-.015.419-.025.629a2.784 2.784 0 0 1-.991-.277 22.221 22.221 0 0 1-.047-1.999c.001-.687-.003-1.372.001-2.057zM14.411 14.017l.047-.148.537.018c.009.27.021.54.032.809l.454.174c-.017.074-.048.22-.063.294l-.412.184-.001.481c-.003.46.001.919.015 1.379l.439.087-.012.573c-.409-.019-.979-.077-1.037-.591-.011-.763.107-1.579-.285-2.271.134-.319.266-.64.285-.99zM7.995 14.777H8.6c.005.385.007.768.009 1.152.001.635.001 1.271-.012 1.907H8a68.656 68.656 0 0 1-.013-1.698c.001-.454.003-.907.009-1.361zM11.297 15.04a6.803 6.803 0 0 1 1.083-.349c.394.097.768.255 1.132.431l-.355.443c-.463-.203-1.481-.499-1.373.346.573.071 1.174.106 1.675.423.094.399.222.911-.151 1.213-.679.557-1.686.347-2.329-.166l.123-.267.349-.118c.421.257 1.022.468 1.452.115.195-.308-.135-.501-.411-.491-.426-.086-.985-.059-1.23-.492-.208-.339-.038-.737.035-1.088zM16.147 15.458a1.401 1.401 0 0 1 1.811-.565c.554.367.641 1.04.615 1.65-.658.003-1.316-.006-1.973.014.077.803.965.883 1.514.481.135.125.27.251.403.377-.593.571-1.631.628-2.204.001-.395-.569-.294-1.319-.167-1.959zm.448.545c.457.042.918.043 1.378.025-.018-.886-1.301-.899-1.378-.025zM19.366 14.777c.177-.001.355-.003.533-.003l.129.234c.423-.295.974-.333 1.414-.05-.137.171-.277.34-.417.509-.35-.133-.889-.161-1.007.29-.087.689-.012 1.387-.039 2.079l-.615-.001c0-1.019-.003-2.038.003-3.057zM.807 19.822c7.42.067 14.845.041 22.265.013-.601.103-1.213.056-1.819.061l-18.627.001c-.607-.006-1.22.045-1.82-.075z"/>
    <path fill="#241e00" opacity=".5" d="M0 5.027l.089-.153c.056 4.743.044 9.489.001 14.231l-.089-.148V5.026z"/>
    <path fill="#221c00" opacity=".49" d="M23.787 4.895l.093.165v13.877l-.099.167a909.46 909.46 0 0 1 .006-14.209z"/>
    <path fill="#c1121c" d="M20.112 12.192c1.007-.048 2.018.003 3.027-.019.006.334.009.67.007 1.005-1.728.575-3.475 1.099-5.188 1.715a1.4 1.4 0 0 0-1.811.565c-.38.127-.761.249-1.143.371l.001-.481.412-.184.063-.294a42.193 42.193 0 0 0-.454-.174c-.011-.27-.023-.54-.032-.809l-.537-.018c1.947-.296 3.757-1.165 5.655-1.677zM12.38 14.691a33.773 33.773 0 0 0 2.031-.675c-.019.35-.151.671-.285.99.393.693.275 1.508.285 2.271-.111-.403-.044-.825-.032-1.236-.306.098-.613.197-.919.293-.501-.317-1.102-.352-1.675-.423-.107-.845.91-.549 1.373-.346l.355-.443a5.868 5.868 0 0 0-1.132-.431z"/>
    <path fill="#c1121c" d="M10.196 15.39c.371-.103.741-.211 1.101-.35-.073.351-.243.749-.035 1.088.245.433.803.406 1.23.492-.344.133-.693.255-1.041.376l-.349.118a6.882 6.882 0 0 1-.461.131c-.104.003-.313.005-.417.007a28.236 28.236 0 0 1-.029-1.863zM8.609 15.929l.969-.331c-.011.666-.003 1.334.047 1.999-1.685.511-3.345 1.101-5.027 1.62a59.31 59.31 0 0 1-3.478-.001c-.387-.017-.403-.441-.409-.731.922-.289 1.835-.604 2.761-.883l.066.197c.171.025.341.042.512.061.061-.207.122-.412.18-.619a5.522 5.522 0 0 0 1.261-.284c.08.295.166.59.252.883l.535-.018.329-1.305a12.71 12.71 0 0 0 1.381-.38 64.08 64.08 0 0 0 .013 1.698h.597c.013-.635.013-1.271.012-1.907z"/>
</svg>
