<svg xmlns="http://www.w3.org/2000/svg" width="24" height="24">
    <path fill="#fff" d="M.836.138c.271-.12.574-.103.863-.108C8.7.039 15.7.02 22.7.039c.765-.015 1.31.741 1.268 1.461v21c.051.763-.569 1.527-1.369 1.466-7.066.004-14.132.004-21.198 0-.798.058-1.415-.706-1.369-1.466v-21C.023.949.301.35.836.138zm.39.394c-.474.1-.773.592-.728 1.06.004 6.972-.003 13.944.004 20.916-.031.538.451 1.02.989.989 7.006.005 14.012.005 21.018 0 .538.031 1.018-.45.989-.988.005-7.006.005-14.012 0-21.018.035-.583-.521-1.06-1.09-.992C15.348.523 8.283.457 1.226.532z"/>
    <path fill="#fff" d="M3.895 3.895c5.403-.003 10.807-.003 16.21 0 .003 5.403.003 10.807 0 16.21-5.403.003-10.807.003-16.21 0-.003-5.403-.003-10.807 0-16.21zm1.417 1.236c-.002 1.198-.001 2.395 0 3.593l.539.005c.011-.524.003-1.047.006-1.571h1.424c.001.522 0 1.045.002 1.567h.544V5.132h-.544l-.001 1.539c-.476 0-.951.001-1.426-.002V5.133a98.648 98.648 0 0 0-.544-.002zm3.189 3.091l.347.006c.071-.432.752-.523.773-.023-.172.716-1.099 1.096-1.111 1.872.494.006.988.003 1.482.002v-.365c-.327-.001-.655 0-.982-.002.345-.58 1.273-1.122.867-1.886-.364-.625-1.366-.311-1.376.396zm5.318 1.1c-.397-.014-.635.282-.679.654a17.037 17.037 0 0 0-1.736.002c-.359.075-.304.499-.309.775-.687-.048-.817.796-.829 1.315-.044 1.738-.927 3.269-1.764 4.736-.395.611-.301 1.558.391 1.91.705.431 1.724-.09 1.786-.913.034-1.701.003-3.405.015-5.107l.405-.001c.001 1.855-.001 3.71.001 5.565l.402.005.004.604 4.044-.001.001-.602.405-.008c-.053-2.62-.012-5.24-.005-7.86-.044-.664-.899-.391-1.34-.419.029-.243.065-.607.388-.612.801-.027 1.604-.009 2.406-.009.217-.023.459.121.463.357.026.596.009 1.194.01 1.791.025.23-.134.48-.383.474-.504.027-1.009-.002-1.514.01-.041 1.82-.037 3.644-.002 5.464.767.003 1.535.003 2.302 0l.007-.599.401-.013c-.002-2.615.005-5.231-.003-7.846.033-.276-.225-.485-.488-.447-1.327.003-2.655-.011-3.982.007-.407-.002-.401.476-.397.768z"/>
    <path fill="#fff" d="M12.126 10.816c.748-.102 1.518-.011 2.275-.045.27-.012.688-.027.731.329.03.635.016 1.272.008 1.907.01.23-.208.414-.431.391-.805.002-1.61.009-2.415-.004a.38.38 0 0 1-.379-.389c-.017-.572-.004-1.144-.007-1.715-.009-.181.036-.391.218-.474zM8.775 17.17c.511-1.014 1.155-1.967 1.517-3.051-.015 1.194.012 2.389-.013 3.582-.005.552-.662.942-1.15.679-.45-.202-.572-.794-.354-1.21z"/>
    <path fill="#154889" d="M1.226.532C8.283.457 15.348.523 22.408.499c.569-.068 1.125.409 1.09.992.005 7.006.005 14.012 0 21.018.029.538-.451 1.019-.989.988-7.006.005-14.012.005-21.018 0-.538.031-1.02-.451-.989-.989-.007-6.972 0-13.944-.004-20.916-.045-.468.254-.96.728-1.06zm2.669 3.363c-.003 5.403-.003 10.807 0 16.21 5.403.003 10.807.003 16.21 0 .003-5.403.003-10.807 0-16.21-5.403-.003-10.807-.003-16.21 0z"/>
    <path fill="#154889" d="M13.819 9.322c-.004-.292-.01-.77.397-.768 1.327-.018 2.655-.004 3.982-.007.263-.038.521.171.488.447.008 2.615.001 5.231.003 7.846l-.401.013-.007.599c-.767.003-1.535.003-2.302 0-.035-1.82-.039-3.644.002-5.464.505-.012 1.01.017 1.514-.01.249.006.408-.244.383-.474-.001-.597.016-1.195-.01-1.791-.004-.236-.246-.38-.463-.357-.802 0-1.605-.018-2.406.009-.323.005-.359.369-.388.612a9.03 9.03 0 0 1-1.471-.001c.044-.372.282-.668.679-.654z"/>
    <path d="M5.312 5.131l.544.002v1.536c.475.003.95.002 1.426.002l.001-1.539h.544v3.593h-.544c-.002-.522-.001-1.045-.002-1.567H5.857c-.003.524.005 1.047-.006 1.571l-.539-.005c-.001-1.198-.002-2.395 0-3.593zM8.501 8.222c.01-.707 1.012-1.021 1.376-.396.406.764-.522 1.306-.867 1.886.327.002.655.001.982.002v.365c-.494.001-.988.004-1.482-.002.012-.776.939-1.156 1.111-1.872-.021-.5-.702-.409-.773.023l-.347-.006zM11.095 10.753c.005-.276-.05-.7.309-.775a17.037 17.037 0 0 1 1.736-.002 9.03 9.03 0 0 0 1.471.001c.441.028 1.296-.245 1.34.419-.007 2.62-.048 5.24.005 7.86l-.405.008-.001.602-4.044.001-.004-.604-.402-.005c-.002-1.855 0-3.71-.001-5.565l-.405.001c-.012 1.702.019 3.406-.015 5.107-.062.823-1.081 1.344-1.786.913-.692-.352-.786-1.299-.391-1.91.837-1.467 1.72-2.998 1.764-4.736.012-.519.142-1.363.829-1.315zm1.031.063c-.182.083-.227.293-.218.474.003.571-.01 1.143.007 1.715a.38.38 0 0 0 .379.389c.805.013 1.61.006 2.415.004.223.023.441-.161.431-.391.008-.635.022-1.272-.008-1.907-.043-.356-.461-.341-.731-.329-.757.034-1.527-.057-2.275.045zM8.775 17.17c-.218.416-.096 1.008.354 1.21.488.263 1.145-.127 1.15-.679.025-1.193-.002-2.388.013-3.582-.362 1.084-1.006 2.037-1.517 3.051z"/>
</svg>
