<!-- Generated by IcoMoon.io -->
<svg version="1.1" xmlns="http://www.w3.org/2000/svg" width="24" height="24" viewBox="0 0 24 24">
<title>information--truck-trailer-lane-right--g1</title>
<path fill="#0066b3" d="M1.59 0.184c6.797-0.059 13.599-0.011 20.398-0.025 0.878-0.052 1.642 0.746 1.571 1.621 0 6.773 0.007 13.548-0.004 20.323 0.044 0.85-0.72 1.593-1.565 1.547-6.739-0.001-13.479 0.012-20.218-0.006-0.916 0.005-1.579-0.907-1.46-1.782 0.008-6.694 0-13.388 0.004-20.082-0.053-0.757 0.507-1.509 1.275-1.596M1.584 0.419c-0.643 0.087-1.085 0.73-1.038 1.359 0.001 6.775-0.005 13.55 0.004 20.325-0.044 0.732 0.618 1.366 1.345 1.314 6.697 0.006 13.397 0.007 20.095 0 0.724 0.048 1.376-0.587 1.335-1.314 0.011-6.775 0.004-13.55 0.004-20.325 0.068-0.751-0.582-1.44-1.339-1.388-6.801 0.014-13.606-0.043-20.405 0.029z"></path>
<path fill="#0066b3" d="M1.578 0.76c6.759-0.094 13.53-0.012 20.293-0.040 0.614-0.087 1.19 0.428 1.122 1.055 0 6.773 0.006 13.548-0.002 20.322 0.037 0.554-0.451 1.032-1.004 0.989-6.697 0.007-13.395 0.006-20.091 0-0.556 0.048-1.048-0.43-1.016-0.986-0.014-6.735 0-13.471-0.007-20.208-0.043-0.476 0.192-1.034 0.706-1.131M2.187 2.281c0 0.855 0 1.711 0 2.566 0.17 0 0.34 0 0.51 0.001 0.001-0.857 0.001-1.712 0-2.569-0.17 0.001-0.34 0.001-0.51 0.001M9.352 2.282c-0.001 0.854-0.001 1.71 0 2.564 0.168 0.001 0.335 0.001 0.503 0.002 0-0.857 0-1.712 0-2.569-0.168 0.001-0.335 0.001-0.503 0.002M21.233 2.282c-0.001 0.854-0.001 1.71 0 2.564 0.168 0.001 0.335 0.001 0.503 0.002 0-0.857 0-1.712 0-2.569-0.168 0.001-0.335 0.001-0.503 0.002M15.655 2.775c-0.838 1.328-1.612 2.696-2.436 4.032-0.204 0.354-0.466 0.765-0.316 1.189 0.694 0.365 1.277-0.514 1.861-0.803 0.007 2.323-0.014 4.644 0 6.967 0.595 0.010 1.192 0.011 1.788 0.008 0.025-2.318 0.007-4.637 0.001-6.955 0.485 0.328 0.921 0.778 1.505 0.92 0.524-0.037 0.423-0.68 0.213-0.993-0.863-1.459-1.717-2.926-2.616-4.365M2.189 7.161c-0.001 0.852-0.001 1.705-0.001 2.558 0.17 0 0.34 0 0.51 0.001 0.001-0.854 0.001-1.707 0-2.56-0.17 0-0.34 0-0.509 0.001M9.352 7.161c-0.001 0.853-0.001 1.705 0 2.557 0.168 0.001 0.335 0.001 0.503 0.002 0-0.854 0-1.707 0-2.56-0.168 0-0.335 0.001-0.503 0.001M21.233 7.161c-0.001 0.853-0.001 1.705 0 2.557 0.168 0.001 0.335 0.001 0.503 0.002 0-0.854 0-1.707 0-2.56-0.168 0-0.335 0.001-0.503 0.001M2.189 12.048c-0.001 0.855-0.001 1.711-0.001 2.566 0.17 0 0.34 0 0.51 0 0.001-0.855 0.001-1.711 0-2.568-0.17 0-0.34 0.001-0.509 0.001M9.352 12.049c-0.001 0.854-0.001 1.71 0 2.565 0.168 0 0.335 0 0.503 0 0-0.855 0-1.711 0-2.566-0.168 0-0.335 0-0.503 0.001M21.233 12.049c-0.001 0.854-0.001 1.71 0 2.565 0.168 0 0.335 0 0.503 0 0-0.855 0-1.711 0-2.566-0.168 0-0.335 0-0.503 0.001M14.15 16.713c0.005 1.091 0.006 2.181 0 3.273 2.746 0.012 5.491 0.006 8.237 0.002 0.008-1.093 0.008-2.186 0.001-3.279-2.747-0.005-5.493-0.013-8.238 0.004M10.28 17.717c-0.315 0.555-0.794 1.038-0.973 1.656 0.036 0.566-0.29 1.631 0.607 1.542 0.169-0.46 0.43-1.042 1.018-1.002 0.581-0.052 0.876 0.52 1.023 0.987 1.066-0.005 2.131 0.007 3.197-0.005 0.070-0.236 0.14-0.474 0.206-0.712-1.065-0.046-2.131-0.007-3.197-0.034-0.043-0.822-0.056-1.646-0.075-2.468-0.602-0.014-1.205-0.008-1.806 0.034M10.731 20.116c-0.516 0.139-0.726 0.851-0.361 1.245 0.337 0.438 1.106 0.32 1.299-0.2 0.289-0.562-0.346-1.267-0.937-1.046M15.961 20.109c-0.533 0.126-0.757 0.863-0.375 1.261 0.345 0.436 1.114 0.303 1.297-0.221 0.264-0.555-0.336-1.236-0.922-1.040M19.767 20.124c-0.956 0.283-0.424 1.852 0.516 1.465 0.941-0.292 0.412-1.834-0.516-1.465M21.543 20.102c-0.519 0.106-0.791 0.798-0.444 1.214 0.298 0.462 1.080 0.403 1.305-0.101 0.33-0.545-0.251-1.293-0.86-1.113M16.9 20.217c0.115 0.247 0.247 0.486 0.393 0.716 0.026-0.247 0.048-0.494 0.064-0.743-0.114 0.006-0.342 0.019-0.457 0.026z"></path>
<path fill="#0066b3" d="M9.81 19.174c0.176-0.56 0.602-1.133 1.259-1.066 0.006 0.362 0.007 0.726 0 1.090-0.419 0.005-0.84 0.006-1.259-0.024z"></path>
<path fill="#fff" d="M1.584 0.419c6.798-0.071 13.604-0.014 20.405-0.029 0.757-0.052 1.407 0.637 1.339 1.388 0 6.775 0.007 13.55-0.004 20.325 0.040 0.727-0.612 1.362-1.335 1.314-6.697 0.007-13.397 0.006-20.095 0-0.727 0.052-1.389-0.582-1.345-1.314-0.008-6.775-0.002-13.55-0.004-20.325-0.046-0.63 0.396-1.272 1.038-1.359M1.578 0.76c-0.513 0.097-0.749 0.655-0.706 1.131 0.007 6.737-0.007 13.472 0.007 20.208-0.032 0.556 0.46 1.034 1.016 0.986 6.696 0.006 13.394 0.007 20.091 0 0.552 0.044 1.041-0.435 1.004-0.989 0.008-6.773 0.002-13.548 0.002-20.322 0.069-0.627-0.507-1.142-1.122-1.055-6.763 0.029-13.534-0.053-20.293 0.040z"></path>
<path fill="#fff" d="M2.187 2.281c0.17 0 0.34 0 0.51-0.001 0.001 0.857 0.001 1.712 0 2.569-0.17-0.001-0.34-0.001-0.51-0.001 0-0.855 0-1.711 0-2.566z"></path>
<path fill="#fff" d="M9.352 2.282c0.168-0.001 0.335-0.001 0.503-0.002 0 0.857 0 1.712 0 2.569-0.168-0.001-0.335-0.001-0.503-0.002-0.001-0.854-0.001-1.71 0-2.564z"></path>
<path fill="#fff" d="M21.233 2.282c0.168-0.001 0.335-0.001 0.503-0.002 0 0.857 0 1.712 0 2.569-0.168-0.001-0.335-0.001-0.503-0.002-0.001-0.854-0.001-1.71 0-2.564z"></path>
<path fill="#fff" d="M15.655 2.775c0.899 1.439 1.754 2.906 2.616 4.365 0.21 0.314 0.311 0.956-0.213 0.993-0.585-0.141-1.021-0.592-1.505-0.92 0.006 2.318 0.024 4.637-0.001 6.955-0.596 0.002-1.193 0.001-1.788-0.008-0.014-2.323 0.007-4.644 0-6.967-0.583 0.289-1.167 1.168-1.861 0.803-0.15-0.424 0.112-0.835 0.316-1.189 0.823-1.337 1.598-2.704 2.436-4.032z"></path>
<path fill="#fff" d="M2.189 7.161c0.169-0.001 0.339-0.001 0.509-0.001 0.001 0.853 0.001 1.706 0 2.56-0.17-0.001-0.34-0.001-0.51-0.001 0-0.853 0-1.706 0.001-2.558z"></path>
<path fill="#fff" d="M9.352 7.161c0.168 0 0.335-0.001 0.503-0.001 0 0.853 0 1.706 0 2.56-0.168-0.001-0.335-0.001-0.503-0.002-0.001-0.852-0.001-1.704 0-2.557z"></path>
<path fill="#fff" d="M21.233 7.161c0.168 0 0.335-0.001 0.503-0.001 0 0.853 0 1.706 0 2.56-0.168-0.001-0.335-0.001-0.503-0.002-0.001-0.852-0.001-1.704 0-2.557z"></path>
<path fill="#fff" d="M2.189 12.048c0.169 0 0.339-0.001 0.509-0.001 0.001 0.857 0.001 1.712 0 2.568-0.17 0-0.34 0-0.51 0 0-0.855 0-1.711 0.001-2.566z"></path>
<path fill="#fff" d="M9.352 12.049c0.168-0.001 0.335-0.001 0.503-0.001 0 0.855 0 1.711 0 2.566-0.168 0-0.335 0-0.503 0-0.001-0.855-0.001-1.711 0-2.565z"></path>
<path fill="#fff" d="M21.233 12.049c0.168-0.001 0.335-0.001 0.503-0.001 0 0.855 0 1.711 0 2.566-0.168 0-0.335 0-0.503 0-0.001-0.855-0.001-1.711 0-2.565z"></path>
<path fill="#fff" d="M10.28 17.717c0.601-0.043 1.204-0.049 1.806-0.034 0.019 0.822 0.032 1.646 0.075 2.468 1.066 0.027 2.133-0.012 3.197 0.034-0.065 0.238-0.135 0.475-0.206 0.712-1.066 0.012-2.131 0-3.197 0.005-0.147-0.467-0.442-1.040-1.023-0.987-0.588-0.040-0.85 0.542-1.018 1.002-0.897 0.089-0.571-0.977-0.607-1.542 0.179-0.618 0.658-1.101 0.973-1.656M9.81 19.174c0.419 0.030 0.84 0.029 1.259 0.024 0.007-0.364 0.006-0.727 0-1.090-0.657-0.068-1.084 0.506-1.259 1.066z"></path>
<path fill="#fff" d="M10.731 20.116c0.592-0.221 1.226 0.484 0.937 1.046-0.192 0.519-0.961 0.638-1.299 0.2-0.365-0.394-0.154-1.106 0.361-1.245z"></path>
<path fill="#fdffff" d="M14.15 16.713c2.746-0.017 5.491-0.008 8.238-0.004 0.007 1.093 0.007 2.186-0.001 3.279-2.746 0.004-5.491 0.010-8.237-0.002 0.006-1.092 0.005-2.183 0-3.273z"></path>
<path fill="#fdffff" d="M15.961 20.109c0.586-0.196 1.186 0.485 0.922 1.040-0.183 0.524-0.953 0.657-1.297 0.221-0.381-0.398-0.158-1.135 0.375-1.261z"></path>
<path fill="#fdffff" d="M19.767 20.124c0.928-0.37 1.457 1.173 0.516 1.465-0.94 0.387-1.472-1.182-0.516-1.465z"></path>
<path fill="#fdffff" d="M21.543 20.102c0.61-0.179 1.19 0.568 0.86 1.113-0.225 0.504-1.006 0.563-1.305 0.101-0.347-0.416-0.075-1.109 0.444-1.214z"></path>
<path fill="#dceaf4" d="M16.9 20.217c0.115-0.007 0.343-0.020 0.457-0.026-0.017 0.248-0.038 0.495-0.064 0.743-0.146-0.23-0.278-0.469-0.393-0.716z"></path>
</svg>
