<!-- Generated by IcoMoon.io -->
<svg version="1.1" xmlns="http://www.w3.org/2000/svg" width="34" height="24" viewBox="0 0 34 24">
<title>information--turn-right-ahead--g1</title>
<path fill="#fff" d="M0 0h1.067c-0.407 0.232-0.759 0.545-1.067 0.895v-0.895z"></path>
<path fill="#fff" d="M32.791 0h1.425v1.956c-0.25-0.778-0.597-1.641-1.425-1.956z"></path>
<path fill="#fff" d="M0.157 2.421c-0.028-1.266 1.187-2.322 2.428-2.262 9.521 0.005 19.041 0.005 28.562 0.002 1.27-0.024 2.569 0.918 2.58 2.262 0.010 6.384-0.002 12.77 0.006 19.155 0.031 1.088-0.726 2.145-1.787 2.423h-30.191c-0.866-0.315-1.622-1.14-1.597-2.097 0.008-6.493 0.006-12.988 0-19.482M2.004 0.702c-0.741 0.138-1.377 0.778-1.357 1.558 0.002 6.6 0.003 13.202 0 19.802-0.023 0.757 0.694 1.476 1.451 1.453 9.898-0.003 19.797-0.003 29.694 0 0.861 0.057 1.421-0.848 1.451-1.614-0.002-6.491 0.002-12.984-0.002-19.476 0.045-1.035-0.924-1.883-1.939-1.781-9.764 0.044-19.541-0.071-29.298 0.057z"></path>
<path fill="#fff" d="M14.269 5.348c3.349-0.328 6.694-0.73 10.048-0.983-1.104 3.222-2.205 6.444-3.321 9.662-0.13 0.683-1.041 1.218-1.573 0.603-0.508-0.817-0.735-1.776-1.145-2.643-1.015 0.754-1.946 1.618-3.003 2.311-0.425 2.223-0.083 4.528-0.193 6.783-1.459 0-2.919 0-4.378 0 0-2.706 0-5.411-0.002-8.118-0.021-0.861 0.824-1.346 1.408-1.829 1.099-0.937 2.322-1.729 3.375-2.721-0.819-0.496-1.594-1.056-2.35-1.644 0-0.362 0-0.723-0.005-1.086 0.349-0.203 0.726-0.366 1.14-0.334z"></path>
<path fill="#fff" d="M33.167 24c0.517-0.417 0.885-0.983 1.049-1.628v1.628h-1.049z"></path>
<path fill="#fff" d="M0 23.329c0.196 0.196 0.368 0.417 0.485 0.671h-0.485v-0.671z"></path>
<path fill="#231f20" d="M1.067 0h31.724c0.829 0.315 1.176 1.177 1.425 1.956v20.416c-0.164 0.645-0.532 1.211-1.049 1.628h-1.221c1.061-0.277 1.818-1.335 1.787-2.423-0.008-6.384 0.003-12.77-0.006-19.155-0.011-1.344-1.31-2.286-2.58-2.262-9.521 0.003-19.041 0.003-28.562-0.002-1.241-0.060-2.455 0.996-2.428 2.262 0.006 6.495 0.008 12.989 0 19.482-0.024 0.957 0.731 1.782 1.597 2.097h-1.27c-0.117-0.255-0.289-0.475-0.485-0.671v-22.434c0.308-0.35 0.66-0.663 1.067-0.895z"></path>
<path fill="#036f51" d="M2.004 0.702c9.757-0.128 19.534-0.013 29.298-0.057 1.015-0.102 1.985 0.746 1.939 1.781 0.003 6.491 0 12.984 0.002 19.476-0.031 0.765-0.59 1.67-1.451 1.614-9.897-0.003-19.795-0.003-29.694 0-0.757 0.023-1.474-0.696-1.451-1.453 0.003-6.6 0.002-13.202 0-19.802-0.019-0.78 0.616-1.421 1.357-1.558M14.269 5.348c-0.414-0.032-0.791 0.131-1.14 0.334 0.005 0.363 0.005 0.725 0.005 1.086 0.756 0.589 1.531 1.148 2.35 1.644-1.052 0.992-2.275 1.784-3.375 2.721-0.584 0.483-1.429 0.968-1.408 1.829 0.002 2.706 0.002 5.411 0.002 8.118 1.459 0 2.919 0 4.378 0 0.11-2.256-0.232-4.56 0.193-6.783 1.057-0.692 1.988-1.557 3.003-2.311 0.41 0.868 0.637 1.826 1.145 2.643 0.532 0.615 1.443 0.079 1.573-0.603 1.116-3.217 2.217-6.439 3.321-9.662-3.354 0.253-6.699 0.655-10.048 0.983z"></path>
</svg>
