<svg xmlns="http://www.w3.org/2000/svg" width="24" height="24">
    <path fill="#fff" d="M11.108 0h1.798c3.309.248 6.477 1.926 8.522 4.541 1.494 1.866 2.383 4.19 2.571 6.57v1.792c-.249 3.322-1.938 6.5-4.567 8.547-1.855 1.476-4.156 2.355-6.514 2.55h-1.822c-1.892-.159-3.75-.743-5.369-1.741-2.466-1.508-4.363-3.926-5.213-6.692C.241 14.708.091 13.815 0 12.92v-1.829c.192-2.362 1.071-4.668 2.55-6.524C4.598 1.935 7.783.242 11.108 0zM5.427 2.66C2.91 4.417 1.159 7.228.708 10.266c-.496 3.137.402 6.455 2.408 8.916l-.044.042c.564.571 1.132 1.14 1.704 1.704l.043-.044A11.428 11.428 0 0 0 8.925 23c3.26.934 6.923.301 9.676-1.68 2.49-1.75 4.223-4.534 4.684-7.544.511-3.149-.385-6.486-2.4-8.958l.044-.042c-.563-.573-1.132-1.14-1.703-1.704l-.042.043A11.461 11.461 0 0 0 14.935.958C11.72.087 8.14.724 5.428 2.66z"/>
    <path fill="#fff" d="M5.343 6.421c.869-.806 2.147-1.058 3.286-.802 1.416.315 2.554 1.579 2.753 3.011.086.608.06 1.25-.184 1.821-.236.52-.604.969-1.01 1.365l.169.126-1.245 1.245c-.733-.668-1.954-.688-2.689-.012-.846.676-.907 2.083-.142 2.843l-1.357 1.357c-.997-.961-1.28-2.494-.91-3.799.207-.725.705-1.337 1.319-1.761-.466-.439-.889-.955-1.096-1.569-.413-1.346.033-2.908 1.105-3.825zm2.13 1.016c-.625.098-1.237.524-1.415 1.152-.188.684-.091 1.545.514 1.996.666.552 1.706.552 2.372 0 .585-.434.692-1.255.534-1.922-.202-.858-1.167-1.365-2.005-1.226zM12.874 7.81c.535-1.56 2.288-2.466 3.884-2.268l-4.102 4.102c-.014-.617.008-1.248.218-1.834zM17.664 8.037l1.355-1.355c.616.639.893 1.537.903 2.411.005 1.922.001 3.844.001 5.766.002.831-.21 1.695-.755 2.342-.713.834-1.801 1.343-2.902 1.323a3.779 3.779 0 0 1-2.858-1.32c-.523-.623-.742-1.449-.752-2.25-.005-.635-.001-1.271-.002-1.906l1.884-1.883c.001 1.217-.004 2.434.002 3.651-.002.611.247 1.265.795 1.584.702.402 1.709.323 2.259-.301.336-.372.445-.891.443-1.379V9.329c.004-.455-.104-.919-.375-1.291zM7.208 18.494l4.409-4.409c.07.603.045 1.223-.132 1.807-.332 1.13-1.277 2.019-2.372 2.41-.608.215-1.266.259-1.905.192z"/>
    <path fill="#00f" d="M5.427 2.66C8.138.724 11.719.088 14.934.958a11.476 11.476 0 0 1 4.249 2.157c-.806.811-1.617 1.618-2.425 2.427-1.596-.198-3.349.708-3.884 2.268-.211.586-.232 1.217-.218 1.834l-2.297 2.298-.169-.126c.406-.397.774-.846 1.01-1.365.244-.571.27-1.213.184-1.821-.199-1.432-1.337-2.696-2.753-3.011-1.139-.256-2.417-.004-3.286.802-1.072.918-1.518 2.479-1.105 3.825.208.614.63 1.13 1.096 1.569-.615.424-1.112 1.036-1.319 1.761-.37 1.305-.088 2.838.91 3.799-.603.602-1.203 1.207-1.809 1.807C1.111 16.721.213 13.403.71 10.266c.452-3.038 2.202-5.85 4.719-7.606zM19.019 6.683c.622-.621 1.242-1.245 1.866-1.864 2.015 2.472 2.912 5.809 2.4 8.958-.46 3.01-2.193 5.794-4.684 7.544-2.753 1.981-6.416 2.614-9.676 1.68a11.445 11.445 0 0 1-4.106-2.116c.795-.798 1.592-1.594 2.389-2.39.639.067 1.296.023 1.905-.192 1.095-.391 2.04-1.28 2.372-2.41.177-.584.202-1.204.132-1.807l1.038-1.038c.001.636-.003 1.271.002 1.906.01.801.229 1.627.752 2.25a3.779 3.779 0 0 0 2.858 1.32c1.102.02 2.189-.488 2.902-1.323.545-.647.757-1.511.755-2.342 0-1.922.003-3.844-.001-5.766-.01-.874-.286-1.771-.903-2.411z"/>
    <path fill="#00f" d="M7.473 7.437c.838-.139 1.803.368 2.005 1.226.158.667.05 1.488-.534 1.922-.666.551-1.707.552-2.372 0-.605-.451-.702-1.313-.514-1.996.178-.628.79-1.054 1.415-1.152zM14.539 11.163l3.126-3.126c.27.372.379.836.375 1.291v5.391c.001.488-.107 1.007-.443 1.379-.551.624-1.557.703-2.259.301-.549-.32-.797-.973-.795-1.584-.006-1.217-.001-2.434-.002-3.651zM6.424 13.176c.735-.675 1.956-.656 2.689.012l-2.831 2.831c-.765-.76-.704-2.167.142-2.843z"/>
    <path fill="red" d="M19.183 3.115l.042-.043c.571.564 1.14 1.132 1.703 1.704l-.044.042c-.624.619-1.244 1.243-1.866 1.864l-1.355 1.355-3.126 3.126c-.629.627-1.256 1.256-1.884 1.883l-1.038 1.038-4.409 4.409c-.797.796-1.594 1.592-2.389 2.39l-.043.044c-.571-.564-1.14-1.133-1.704-1.704l.044-.042c.607-.6 1.206-1.205 1.809-1.807l1.357-1.357 2.831-2.831 1.245-1.245c.766-.766 1.532-1.531 2.297-2.298l4.102-4.102c.808-.809 1.619-1.616 2.425-2.427z"/>
</svg>
