<!-- Generated by IcoMoon.io -->
<svg version="1.1" xmlns="http://www.w3.org/2000/svg" width="24" height="24" viewBox="0 0 24 24">
<title>information--parking--g6</title>
<path fill="#d40000" d="M11.028 0h1.916c4.214 0.367 8.149 3.029 9.916 6.893 0.634 1.3 0.941 2.722 1.14 4.145v1.89c-0.287 2.731-1.409 5.395-3.341 7.37-2.004 2.123-4.801 3.39-7.688 3.702h-1.916c-4.145-0.377-8.033-2.952-9.834-6.728-0.68-1.343-1.016-2.824-1.22-4.306v-1.904c0.19-1.433 0.503-2.862 1.138-4.169 1.763-3.858 5.687-6.512 9.89-6.893M10.735 2.483c-3.583 0.428-6.768 3.078-7.856 6.516-0.9 2.704-0.514 5.803 1.048 8.191 1.847 2.921 5.357 4.686 8.804 4.38 3.592-0.232 6.902-2.69 8.196-6.043 1.066-2.66 0.848-5.792-0.582-8.276-1.849-3.346-5.825-5.32-9.61-4.768z"></path>
<path fill="#fff" d="M10.735 2.483c3.785-0.552 7.76 1.422 9.61 4.768 1.43 2.484 1.648 5.616 0.582 8.276-1.294 3.353-4.604 5.812-8.196 6.043-3.448 0.306-6.958-1.459-8.804-4.38-1.561-2.388-1.948-5.488-1.048-8.191 1.088-3.438 4.273-6.088 7.856-6.516M8.642 4.72c-0.004 4.852-0.004 9.702-0.001 14.552 0.803-0.001 1.606 0.001 2.408-0.001 0.007-1.968-0.001-3.935 0.005-5.903 1.132-0.034 2.278 0.088 3.398-0.119 2.168-0.469 3.678-2.822 3.22-4.992-0.318-1.884-2.044-3.356-3.926-3.503-1.7-0.072-3.403-0.017-5.104-0.035z"></path>
<path fill="#fff" d="M11.054 6.929c1.208 0.076 2.564-0.254 3.638 0.461 1.091 0.718 1.135 2.527 0.055 3.275-1.076 0.764-2.467 0.403-3.695 0.487-0.001-1.408-0.002-2.815 0.001-4.223z"></path>
<path fill="#000" d="M8.642 4.72c1.7 0.018 3.403-0.037 5.104 0.035 1.883 0.146 3.608 1.619 3.926 3.503 0.458 2.17-1.051 4.523-3.22 4.992-1.121 0.206-2.267 0.085-3.398 0.119-0.006 1.968 0.002 3.935-0.005 5.903-0.803 0.002-1.606 0-2.408 0.001-0.002-4.85-0.002-9.701 0.001-14.552M11.054 6.929c-0.004 1.408-0.002 2.815-0.001 4.223 1.228-0.084 2.618 0.277 3.695-0.487 1.080-0.748 1.036-2.557-0.055-3.275-1.074-0.715-2.43-0.385-3.638-0.461z"></path>
</svg>
