<!-- Generated by IcoMoon.io -->
<svg version="1.1" xmlns="http://www.w3.org/2000/svg" width="21" height="24" viewBox="0 0 21 24">
<title>information--trail-crossing--g1</title>
<path fill="#0066b3" d="M10.445 0h0.514c0.414 0.143 0.763 0.429 0.976 0.811 2.774 4.727 5.547 9.455 8.32 14.185 0.448 0.78 0.991 1.53 1.173 2.43v5.528c-0.114 0.491-0.481 0.866-0.943 1.047h-19.524c-0.448-0.151-0.8-0.495-0.962-0.939v-5.663c0.101-0.416 0.237-0.825 0.451-1.197 3.012-5.131 6.019-10.264 9.031-15.395 0.21-0.379 0.558-0.66 0.963-0.807M10.425 0.581c-0.264 0.113-0.42 0.368-0.569 0.598-3.007 5.135-6.009 10.275-9.018 15.409-0.221 0.359-0.33 0.777-0.318 1.198 0.005 1.646-0.005 3.291 0.004 4.936-0.042 0.423 0.332 0.793 0.753 0.753 6.291 0.005 12.583 0.006 18.873-0.001 0.417 0.035 0.781-0.334 0.742-0.75 0.006-1.684 0.004-3.369 0-5.053 0.018-0.579-0.302-1.078-0.589-1.552-2.931-4.998-5.85-10.005-8.784-15.002-0.202-0.386-0.642-0.744-1.095-0.536z"></path>
<path fill="#0066b3" d="M10.626 1.075c0.241-0.051 0.344 0.222 0.465 0.375 3.006 5.135 6.010 10.273 9.016 15.407 0.219 0.34 0.264 0.749 0.252 1.143-0.019 1.638 0.015 3.277-0.019 4.915-6.419 0.036-12.84 0.032-19.259 0.002-0.043-1.496-0.005-2.992-0.020-4.488 0.001-0.531-0.060-1.109 0.25-1.575 2.876-4.915 5.754-9.828 8.626-14.744 0.217-0.352 0.386-0.747 0.69-1.035M8.466 5.619c0.426 0.254 0.483 0.763 0.388 1.21-0.327 0.322-0.85 0.411-1.080 0.84-0.388 0.677-0.856 1.309-1.214 2.003-0.2 0.851-0.339 1.762-0.106 2.622 0.072 0.185 0.304 0.191 0.461 0.267 0.31-0.569 0.415-1.21 0.439-1.848 0.004-0.555 0.438-0.954 0.749-1.364-0.051 1.104-0.394 2.19-0.247 3.299-0.364 1.195-0.942 2.314-1.364 3.49-0.207 0.575-0.554 1.128-0.54 1.759 0.313-0.105 0.326-0.448 0.42-0.71 0.184-0.626 0.699-1.108 1.288-1.359 0.969-0.239 1.090-1.385 1.591-2.104 0.13-0.028 0.259-0.056 0.389-0.085-0.006-0.35-0.141-0.731-0.542-0.768-0.434-0.009-0.506-0.534-0.237-0.797 0.514-0.117 1.029 0.090 1.543 0.121-0.195-0.616-0.176-1.279 0.059-1.883 0.41 0.299 0.798 0.628 1.209 0.928 0.448-0.24 0.99 0.404 1.246-0.181-0.463-0.671-1.117-1.155-1.698-1.708-0.466-0.76-0.56-1.746-1.33-2.3 0.64-0.321 0.459-1.169 1.032-1.553-0.277-0.199-0.505-0.455-0.764-0.675-0.708-0.229-1.309 0.251-1.691 0.797M13.487 10.604c0.002 0.156 0.059 0.384 0.259 0.363 0.492 0.005 0.996-0.063 1.471 0.11-0.257 0.199-0.72 0.234-0.805 0.598 0.087 0.552 0.321 1.074 0.373 1.636-1.477 0.117-2.966-0.013-4.449 0.029-0.103-0.194-0.204-0.39-0.302-0.586 0.045-0.12 0.091-0.239 0.137-0.358-0.439-0.050-1.027-0.354-1.382 0.020 0.243 0.34 0.88 0.263 0.917 0.803 0.072 0.85-0.374 1.662-0.553 2.485-0.476 0.11-0.995 0.020-1.44 0.259-1.098 0.434-1.603 1.839-1.192 2.912 0.339 1.175 1.787 1.795 2.906 1.383 0.856-0.257 1.395-1.076 1.554-1.922 0.112-0.016 0.225-0.032 0.337-0.048 0.169 0.522 0.563 0.905 1.059 1.12-0.070 0.126-0.139 0.253-0.208 0.38 0.304 0.125 0.634 0.112 0.954 0.070-0.063-0.148-0.129-0.294-0.193-0.439 1.043-0.299 1.308-1.606 0.649-2.402 0.46-1.027 0.865-2.089 1.437-3.060 0.213 0.649 0.45 1.307 0.513 1.99-0.276 0.331-0.664 0.569-0.867 0.962-0.615 0.968-0.306 2.395 0.629 3.044 1.258 0.934 3.389 0.201 3.582-1.414 0.352-1.576-1.257-3.14-2.824-2.744-0.427-1.291-0.74-2.615-1.1-3.926 0.263-0.161 0.648-0.266 0.702-0.618 0.074-0.334-0.21-0.652-0.543-0.655-0.538-0.032-1.084-0.062-1.62 0.009M10.627 12.671c-0.226 0.075-0.493 0.431-0.11 0.483 0.438 0.29 0.511-0.516 0.11-0.483M4.417 15.32c0.525 0.002 1.049 0.001 1.574 0.001 0.144-0.295 0.287-0.589 0.431-0.884-0.501 0.005-1.004-0.028-1.504 0.013-0.227 0.25-0.342 0.576-0.5 0.87M16.213 14.435c0.107 0.295 0.216 0.589 0.325 0.884 0.373 0.002 0.745 0.002 1.117 0.002-0.165-0.29-0.26-0.642-0.51-0.869-0.31-0.036-0.621-0.017-0.932-0.017M3.604 18.259c-0.201 0.361-0.403 0.721-0.603 1.083 0.768 0.001 1.536 0 2.306 0 0.201-0.361 0.405-0.722 0.606-1.084-0.769-0.002-1.54-0.002-2.309 0.001M2.466 20.786c-0.212 0.414-0.423 0.827-0.633 1.242 5.918 0.002 11.834 0.001 17.75 0.001-0.211-0.415-0.421-0.829-0.634-1.243-5.494 0-10.989 0-16.483 0z"></path>
<path fill="#0066b3" d="M10.59 13.816c1.281-0.002 2.566-0.056 3.848-0.003-0.455 1.002-0.733 2.153-1.444 2.999 0.012-0.17 0.028-0.339 0.043-0.508-0.256-0.028-0.515-0.040-0.773-0.013 0.043 0.146 0.087 0.293 0.132 0.438-0.1 0.041-0.2 0.082-0.3 0.123-0.512-1.006-1.038-2.008-1.505-3.036M10.873 13.986c0.243 0.648 0.518 1.306 0.972 1.839-0.042-0.619-0.169-1.261-0.488-1.799-0.159-0.036-0.324-0.033-0.484-0.040z"></path>
<path fill="#0066b3" d="M9.635 15.906c0.16-0.591 0.267-1.199 0.514-1.763 0.544 0.826 0.916 1.749 1.39 2.614 0.258 0.375-0.115 0.748-0.255 1.089-0.086-0.019-0.258-0.059-0.345-0.078-0.063-0.821-0.654-1.428-1.304-1.862M10.155 14.597c0.381 0.962 0.646 1.965 1.028 2.927 0.123-0.153 0.241-0.313 0.356-0.474-0.435-0.829-0.819-1.702-1.383-2.454z"></path>
<path fill="#0066b3" d="M6.854 18.224c-0.168-1.145 1.033-2.197 2.145-1.978-0.077 0.704-0.333 1.364-0.602 2.012 0.669 0.069 1.342 0.041 2.013 0.016 0.021 0.795-0.672 1.555-1.471 1.611-1.028 0.272-2.023-0.663-2.085-1.662M7.564 18.462c-0.113-0.287-0.282-0.546-0.48-0.781-0.245 0.402-0.057 0.959 0.48 0.781z"></path>
<path fill="#0066b3" d="M16.275 16.284c1.326-0.439 2.606 1.215 2.030 2.449-0.367 1.243-2.217 1.601-3.023 0.59-0.751-0.828-0.541-2.227 0.384-2.839 0.361 0.598 0.322 1.771 1.21 1.791-0.086-0.686-0.768-1.306-0.601-1.992M16.94 18.536c-0.399 0.282-0.828-0.11-1.231-0.182 0.011 0.311-0.019 0.651 0.152 0.927 0.372 0.262 0.868 0.107 1.291 0.11 0.545 0.006 0.774-0.571 0.934-0.996-0.388-0.069-0.81-0.105-1.146 0.141z"></path>
<path fill="#0066b3" d="M9.539 16.443c0.529 0.246 0.834 0.792 0.904 1.354-0.437 0.023-0.881 0.063-1.314-0.020 0.053-0.465 0.225-0.906 0.409-1.334z"></path>
<path fill="#0066b3" d="M13.348 17.569c0.25 0.496 0.13 1.157-0.468 1.319 0.002-0.482 0.218-0.92 0.468-1.319z"></path>
<path fill="#fff" d="M10.425 0.581c0.453-0.208 0.892 0.15 1.095 0.536 2.934 4.997 5.852 10.004 8.784 15.002 0.287 0.475 0.607 0.974 0.589 1.552 0.004 1.684 0.006 3.369 0 5.053 0.039 0.416-0.326 0.785-0.742 0.75-6.29 0.008-12.582 0.006-18.873 0.001-0.421 0.040-0.795-0.33-0.753-0.753-0.010-1.645 0.001-3.29-0.004-4.936-0.012-0.421 0.098-0.839 0.318-1.198 3.010-5.134 6.011-10.274 9.018-15.409 0.149-0.23 0.305-0.485 0.569-0.598M10.626 1.075c-0.304 0.288-0.473 0.683-0.69 1.035-2.873 4.916-5.75 9.829-8.626 14.744-0.31 0.466-0.249 1.044-0.25 1.575 0.015 1.496-0.023 2.992 0.020 4.488 6.419 0.030 12.84 0.034 19.259-0.002 0.034-1.637 0-3.276 0.019-4.915 0.012-0.394-0.033-0.804-0.252-1.143-3.006-5.134-6.010-10.272-9.016-15.407-0.121-0.153-0.224-0.426-0.465-0.375z"></path>
<path fill="#fff" d="M8.466 5.619c0.381-0.546 0.982-1.026 1.691-0.797 0.259 0.22 0.486 0.476 0.764 0.675-0.573 0.384-0.392 1.231-1.032 1.552 0.769 0.554 0.864 1.541 1.33 2.3 0.581 0.553 1.235 1.037 1.698 1.708-0.256 0.585-0.798-0.059-1.246 0.181-0.41-0.3-0.798-0.629-1.209-0.928-0.235 0.603-0.254 1.266-0.059 1.883-0.514-0.031-1.029-0.238-1.543-0.121-0.269 0.264-0.197 0.789 0.237 0.797 0.401 0.037 0.536 0.418 0.542 0.768-0.13 0.029-0.259 0.057-0.389 0.085-0.501 0.719-0.622 1.865-1.591 2.104-0.589 0.251-1.104 0.733-1.288 1.359-0.094 0.262-0.107 0.605-0.42 0.71-0.014-0.631 0.333-1.184 0.54-1.759 0.422-1.175 1-2.295 1.364-3.49-0.147-1.109 0.196-2.195 0.247-3.299-0.311 0.41-0.745 0.809-0.749 1.364-0.025 0.639-0.13 1.279-0.439 1.848-0.156-0.076-0.389-0.081-0.461-0.267-0.232-0.859-0.094-1.771 0.106-2.622 0.358-0.693 0.826-1.325 1.214-2.003 0.23-0.429 0.753-0.517 1.080-0.84 0.095-0.447 0.039-0.956-0.388-1.21z"></path>
<path fill="#fff" d="M13.487 10.604c0.536-0.071 1.082-0.041 1.62-0.009 0.333 0.002 0.617 0.32 0.543 0.655-0.054 0.353-0.439 0.457-0.702 0.618 0.36 1.31 0.673 2.635 1.1 3.926 1.567-0.396 3.177 1.168 2.824 2.744-0.193 1.616-2.324 2.349-3.582 1.414-0.935-0.649-1.244-2.076-0.629-3.044 0.202-0.393 0.59-0.631 0.867-0.962-0.063-0.683-0.3-1.34-0.513-1.99-0.572 0.971-0.977 2.033-1.437 3.060 0.659 0.796 0.393 2.103-0.649 2.402 0.064 0.146 0.13 0.291 0.193 0.439-0.319 0.043-0.649 0.056-0.954-0.070 0.069-0.128 0.138-0.254 0.208-0.38-0.496-0.214-0.889-0.598-1.059-1.12-0.113 0.016-0.225 0.032-0.337 0.048-0.159 0.846-0.697 1.665-1.554 1.922-1.119 0.411-2.567-0.208-2.906-1.383-0.41-1.074 0.094-2.478 1.192-2.912 0.445-0.239 0.964-0.149 1.44-0.259 0.179-0.823 0.625-1.635 0.553-2.485-0.038-0.54-0.674-0.463-0.917-0.803 0.355-0.374 0.943-0.071 1.382-0.020-0.046 0.119-0.092 0.238-0.137 0.358 0.099 0.196 0.199 0.392 0.302 0.586 1.483-0.042 2.971 0.088 4.449-0.029-0.051-0.563-0.286-1.084-0.373-1.636 0.085-0.364 0.547-0.399 0.805-0.598-0.475-0.174-0.979-0.105-1.471-0.11-0.2 0.020-0.257-0.207-0.259-0.363M10.59 13.816c0.467 1.029 0.993 2.030 1.505 3.036 0.1-0.041 0.2-0.082 0.3-0.123-0.045-0.146-0.089-0.293-0.132-0.438 0.257-0.027 0.516-0.015 0.773 0.013-0.015 0.169-0.031 0.338-0.043 0.508 0.711-0.846 0.989-1.997 1.444-2.999-1.281-0.053-2.566 0.001-3.848 0.003M9.635 15.906c0.65 0.434 1.241 1.041 1.304 1.862 0.087 0.019 0.259 0.059 0.345 0.078 0.14-0.341 0.513-0.714 0.255-1.089-0.474-0.866-0.845-1.788-1.39-2.614-0.247 0.564-0.355 1.171-0.514 1.763M6.854 18.224c0.062 0.999 1.057 1.934 2.085 1.662 0.799-0.057 1.492-0.816 1.471-1.611-0.671 0.025-1.345 0.052-2.013-0.016 0.269-0.648 0.525-1.308 0.602-2.012-1.112-0.22-2.313 0.833-2.145 1.978M16.275 16.284c-0.167 0.686 0.515 1.306 0.601 1.992-0.887-0.020-0.849-1.194-1.21-1.791-0.925 0.612-1.135 2.011-0.384 2.839 0.806 1.010 2.655 0.652 3.023-0.59 0.575-1.234-0.704-2.889-2.030-2.449M9.539 16.443c-0.184 0.428-0.357 0.869-0.409 1.334 0.433 0.084 0.876 0.043 1.314 0.020-0.071-0.563-0.375-1.108-0.904-1.354M13.348 17.569c-0.251 0.399-0.466 0.837-0.468 1.319 0.598-0.162 0.718-0.823 0.468-1.319z"></path>
<path fill="#fff" d="M10.627 12.671c0.401-0.033 0.328 0.774-0.11 0.483-0.383-0.053-0.116-0.408 0.11-0.483z"></path>
<path fill="#fff" d="M10.873 13.986c0.161 0.006 0.326 0.003 0.484 0.040 0.318 0.538 0.446 1.18 0.488 1.799-0.454-0.533-0.729-1.19-0.972-1.839z"></path>
<path fill="#fff" d="M4.417 15.32c0.159-0.294 0.273-0.62 0.5-0.87 0.5-0.041 1.003-0.008 1.504-0.013-0.144 0.295-0.287 0.589-0.431 0.884-0.525 0-1.049 0.001-1.574-0.001z"></path>
<path fill="#fff" d="M16.213 14.435c0.311 0 0.622-0.019 0.932 0.017 0.25 0.227 0.345 0.579 0.51 0.869-0.373 0-0.745 0-1.117-0.002-0.108-0.295-0.218-0.589-0.325-0.884z"></path>
<path fill="#fff" d="M10.155 14.597c0.565 0.751 0.948 1.624 1.383 2.454-0.115 0.161-0.232 0.32-0.356 0.474-0.381-0.962-0.646-1.965-1.027-2.927z"></path>
<path fill="#fff" d="M7.564 18.462c-0.537 0.178-0.725-0.379-0.48-0.781 0.198 0.235 0.367 0.494 0.48 0.781z"></path>
<path fill="#fff" d="M3.604 18.259c0.769-0.003 1.54-0.003 2.309-0.001-0.201 0.362-0.405 0.723-0.606 1.084-0.769 0-1.537 0.001-2.306 0 0.2-0.362 0.402-0.722 0.603-1.083z"></path>
<path fill="#fff" d="M16.94 18.536c0.336-0.246 0.759-0.21 1.146-0.141-0.161 0.425-0.389 1.003-0.934 0.996-0.423-0.003-0.919 0.152-1.291-0.11-0.171-0.275-0.141-0.616-0.152-0.927 0.403 0.072 0.832 0.464 1.231 0.182z"></path>
<path fill="#fff" d="M2.466 20.786c5.494 0 10.989 0 16.483 0 0.213 0.414 0.423 0.828 0.634 1.243-5.916 0-11.833 0.001-17.75-0.001 0.21-0.415 0.421-0.828 0.633-1.242z"></path>
</svg>
