<svg xmlns="http://www.w3.org/2000/svg" width="24" height="24">
    <path fill="#fff" d="M.5 0h23.487v.444c-.593-.448-1.36-.332-2.053-.34H1.516A2.408 2.408 0 0 0 .501.353V0zM11.752 1.236a.397.397 0 0 1 .721.012c3.612 5.849 7.204 11.713 10.814 17.562.139.177.142.4.137.615-.193.042-.382.108-.581.113l-20.418-.001c-.54-.004-1.091.053-1.617-.099-.001-.189-.041-.398.085-.56C4.514 12.999 8.124 7.112 11.752 1.236zm-.053 3.411c-1.26.809.549 2.777 1.617 2.002.35-.399.312-1.022.132-1.487-.29-.66-1.147-.739-1.749-.515zM9.58 8.31c-.334.291-.87.538-.832 1.056.003.827-.041 1.656.026 2.481.162.04.318.091.472.155.916-.459.15-1.706.553-2.444.429-.485 1.016-.791 1.52-1.19-.019 1.022-.109 2.041-.105 3.062-.028.471.488.666.782.938.741.629 1.602 1.135 2.252 1.858.499 1.088.744 2.285 1.244 3.373.353.622 1.432.163 1.183-.524-.35-1.156-.809-2.281-1.23-3.413-.624-.864-1.638-1.357-2.338-2.148-.123-1.212.098-2.46-.044-3.677-.347-.493-.927-.891-1.53-.964-.716.375-1.292.972-1.953 1.435zm3.911 1.119c.009.512-.054 1.031.026 1.539.461.4.906.847 1.441 1.145.556.226.897-.551.548-.928-.66-.599-1.359-1.153-2.015-1.756zm-2.292 3.016c-.966 1.491-1.952 2.974-2.898 4.477-.299.622.57 1.333 1.058.794.992-1.485 1.91-3.02 2.883-4.518a23.129 23.129 0 0 0-1.042-.753zm.553 3.638c-.141.851-.27 1.703-.412 2.554h2.223a67.564 67.564 0 0 0-.467-2.558c-.448.006-.896.006-1.344.004zm-7.065 2.491c.726.012 1.452.004 2.178.006.226-.815.438-1.634.658-2.451-.467-.003-.934 0-1.401-.003-.488.81-.952 1.635-1.435 2.447zm12.757-2.436c.203.823.45 1.631.667 2.45.746.01 1.49.004 2.236.005-.521-.821-1.027-1.653-1.567-2.462-.445.006-.891.004-1.336.006z"/>
    <path fill="#035ca1" d="M.5.353c.318-.148.662-.25 1.015-.249h20.418c.693.008 1.461-.108 2.053.34V24H.499V.353zm11.252.883C8.124 7.111 4.513 12.999.893 18.878c-.126.162-.086.371-.085.56.526.151 1.077.095 1.617.099l20.418.001c.199-.005.389-.071.581-.113.005-.214.001-.438-.137-.615-3.61-5.85-7.203-11.714-10.814-17.562a.397.397 0 0 0-.721-.012z"/>
    <path fill="#1f1a17" d="M11.699 4.647c.602-.225 1.459-.145 1.749.515.18.466.218 1.088-.132 1.487-1.068.775-2.877-1.194-1.617-2.002zM9.58 8.31c.661-.463 1.237-1.06 1.953-1.435.603.073 1.183.471 1.53.964.141 1.217-.08 2.465.044 3.677.701.792 1.715 1.285 2.338 2.148.421 1.132.879 2.256 1.23 3.413.249.687-.83 1.146-1.183.524-.499-1.088-.744-2.284-1.244-3.373-.651-.724-1.512-1.23-2.252-1.858-.294-.272-.81-.467-.782-.938-.004-1.022.086-2.041.105-3.062-.503.399-1.091.705-1.52 1.19-.403.738.363 1.984-.553 2.444a3.177 3.177 0 0 0-.472-.155c-.067-.825-.023-1.654-.026-2.481-.039-.519.498-.765.832-1.056z"/>
    <path fill="#1f1a17" d="M13.491 9.429c.656.603 1.355 1.156 2.015 1.756.349.377.008 1.154-.548.928-.535-.298-.981-.744-1.441-1.145-.08-.508-.017-1.027-.026-1.539zM11.199 12.445c.354.241.701.493 1.042.753-.973 1.498-1.89 3.033-2.883 4.518-.488.539-1.357-.172-1.058-.794.946-1.503 1.932-2.985 2.898-4.477zM11.752 16.083c.448.003.896.003 1.344-.004.173.85.327 1.703.467 2.558H11.34c.142-.851.271-1.703.412-2.554zM4.687 18.574c.483-.812.947-1.638 1.435-2.447.467.003.934 0 1.401.003-.221.818-.433 1.636-.658 2.451-.726-.003-1.452.005-2.178-.006zM17.444 16.138c.445-.003.891 0 1.336-.006.54.809 1.046 1.64 1.567 2.462-.746-.001-1.49.005-2.236-.005-.217-.819-.465-1.627-.667-2.45z"/>
</svg>
