<svg xmlns="http://www.w3.org/2000/svg" width="24" height="24">
    <path fill="#555" opacity=".87" d="M3.435 0h16.43l.133.077C14.887.102 9.775.077 4.663.09c-.359.003-.721.008-1.077-.053l-.152-.038z"/>
    <path fill="#fff" d="M3.042.548c.125-.223.317-.397.546-.511.356.06.717.055 1.077.053C9.777.077 14.889.101 20 .077c.192.099.348.259.444.452a4619.4 4619.4 0 0 0-.001 22.948 1.134 1.134 0 0 1-.434.451c-5.517-.031-11.035-.015-16.551-.008a1.798 1.798 0 0 1-.377-.392c.02-7.434-.003-14.869.011-22.302a4.52 4.52 0 0 0-.049-.678zm.678-.09c-.223.053-.249.311-.245.5.004 7.389-.002 14.778.004 22.167-.037.275.217.468.477.426 5.232-.003 10.465.004 15.695-.003.238.025.457-.167.42-.413.005-7.422.003-14.845-.001-22.267.053-.352-.314-.489-.602-.443C14.219.452 8.963.384 3.718.459z"/>
    <path fill="#fff" d="M5.068 1.414l.289-.003.002.89.76-.002-.001-.886.29-.003c.002.686.001 1.372.001 2.058l-.29-.001-.001-.91h-.76v.911h-.29c-.001-.685-.001-1.37 0-2.055zM9.171 1.408l.291-.003.001.604c.286-.027.668-.056.82.249.096.392.03.805.044 1.206l-.289-.001c-.004-.334.027-.671-.025-1.002-.03-.26-.497-.259-.526 0-.049.332-.019.669-.024 1.004l-.292-.003V1.408zM13.465 1.415l.293-.004c.002.194.003.39.003.585.295-.028.74-.007.773.378.004.345.126.843-.232 1.054-.272.074-.558.018-.836.032l-.001-2.044zm.409.854c-.231.277-.202 1.175.336.879.06-.309.18-1.002-.336-.879zM6.613 2.152c.291-.201.792-.306.992.072.108.401.041.825.055 1.236-.27-.008-.548.047-.811-.032-.363-.131-.313-.73.041-.838.177-.054.364-.067.546-.101-.124-.298-.421-.257-.66-.13l-.162-.208zm.262.717c-.031.457.578.365.536-.055-.18.012-.358.031-.536.055z"/>
    <path fill="#fff" d="M8.432 3.491c-.802-.044-.745-1.577.083-1.5.303.017.417.314.485.562l-.327.016c-.06-.115-.123-.23-.186-.343-.426.147-.401.761-.088 1.013l.296-.18.258.188c-.164.095-.32.252-.522.245zM11.071 3.484c-.761-.129-.651-1.582.164-1.493.441.014.574.49.575.853-.334.004-.668.002-1.002.019.104.376.478.408.773.239l.188.194c-.215.109-.446.251-.698.187zm-.256-.884c.243.01.485.009.728-.004-.13-.394-.614-.416-.728.004zM12.034 2.006c.362.026.849-.138 1.095.218.127.395.04.826.061 1.235l-.288.009c-.006-.335.022-.673-.025-1.006-.031-.249-.457-.269-.52-.031-.065.339-.021.688-.03 1.031h-.293V2.005zM14.799 2.009l.292-.001c.003.345-.034.695.028 1.036.075.224.466.215.519-.018.054-.336.019-.679.025-1.018l.293-.001c0 .483-.001.965.001 1.447-.373-.02-.886.164-1.115-.239-.091-.394-.029-.806-.043-1.207zM16.234 2.006c.342-.01.692-.039 1.023.074l-.201.213c-.753-.199-.493.741-.53 1.17l-.293.001V2.006zM17.574 2.045c.286-.109.601-.026.9-.038-.026.565.058 1.14-.05 1.698-.159.437-.707.393-1.058.242l.088-.217c.31.132.667.109.78-.261-.322.034-.818.064-.903-.347-.009-.355-.134-.866.243-1.077zm.173.253c-.209.15-.137.458-.13.68.012.308.536.312.552.003.081-.294.016-.871-.422-.682zM8.721 4.455l.29.002.001.886h.759l.002-.888.289.002c-.001.687.003 1.373-.003 2.06a27.507 27.507 0 0 0-.287-.01v-.906a96.014 96.014 0 0 0-.759 0c-.002.306-.002.611-.005.917a27.709 27.709 0 0 0-.288-.011c.003-.684 0-1.367.002-2.051zM10.422 4.462l.293-.001v.293h-.293v-.292zM11 4.472l.299-.016.003.293-.283.011L11 4.473zM11.677 4.443l.293.001a41.33 41.33 0 0 1-.007.611c.286-.032.654-.061.821.229.103.397.034.815.05 1.219l-.291.001c-.008-.347.034-.7-.032-1.042-.084-.2-.368-.191-.5-.046-.081.356-.032.726-.042 1.088l-.293.001V4.443zM10.812 5.038c.821-.05.859 1.467.061 1.507-.772-.007-.804-1.414-.061-1.507zm-.072.327c-.23.216-.229.722.064.89.503.027.455-1.074-.064-.89zM13.098 5.058c.338-.008.683-.047 1.011.064l-.165.203c-.762-.177-.526.734-.555 1.191l-.291-.009v-1.45zM14.185 5.612h.657l-.001.327h-.655l-.001-.327zM11.264 7.468h.291l-.002.613c.285-.027.665-.063.821.24.099.393.03.807.046 1.209l-.289.002c-.008-.342.031-.688-.032-1.027-.055-.229-.457-.229-.516 0-.058.338-.022.684-.027 1.026h-.292V7.468zM5.009 7.615c.434-.303.983.014 1.14.468l-.292.02c-.186-.289-.693-.442-.826-.025-.043.378-.183 1.016.293 1.166.323.075.494-.25.54-.519a34.586 34.586 0 0 0-.455-.018l-.002-.279h.729c-.01.342.028.763-.293.984-.406.34-1.124.054-1.143-.488-.011-.439-.123-1.025.311-1.308zM6.34 8.073c.338 0 .68-.021 1.013.053l-.169.233c-.754-.211-.529.726-.55 1.171h-.293c0-.486.001-.971-.001-1.458zM7.465 9.373c-.357-.412-.216-1.346.441-1.33.461-.016.629.475.616.856-.334.005-.668.004-1.002.018.105.375.479.413.778.242l.188.199c-.301.184-.743.306-1.02.015zm.054-.731a6.6 6.6 0 0 0 .731.006c-.119-.417-.592-.39-.731-.006zM8.639 8.076c.369.032.883-.154 1.111.243.101.393.031.808.046 1.211l-.29.002c-.006-.342.031-.688-.028-1.025-.054-.235-.464-.236-.519-.001-.058.338-.021.684-.028 1.025L8.64 9.53c-.001-.484 0-.97-.002-1.454zM9.942 8.078c.388-.003.776-.003 1.163 0l-.002.284c-.253.29-.506.581-.756.873.251.003.504.003.755.004l.003.289c-.402.003-.805.007-1.208-.01.095-.485.534-.774.815-1.148-.256-.002-.512-.002-.766-.002l-.004-.29zM12.589 8.239c.276-.226.766-.322.987.025.127.406.046.845.066 1.265-.356-.021-.976.145-1.057-.358-.076-.453.418-.619.78-.6l-.081-.268c-.177.034-.354.069-.529.11l-.165-.173zm.282.87c.146.332.59.053.496-.254-.172.06-.504-.01-.496.254zM13.801 8.068l.29.003c.005.342-.031.69.027 1.03.058.232.462.233.518 0 .06-.34.023-.688.028-1.031h.292c.002.484.001.969.002 1.454-.366-.028-.876.154-1.109-.232-.104-.397-.031-.817-.047-1.224zM15.362 8.154c.287-.15.61-.022.89.08l-.145.233c-.261-.083-.608-.208-.746.126.235.06.479.08.709.157.285.122.275.593-.001.723-.329.197-.715.044-1.025-.113l.143-.231c.279.135.719.308.851-.104-.237-.054-.484-.069-.712-.157-.278-.134-.24-.597.037-.714z"/>
    <path fill="#fff" d="M16.595 9.437c-.435-.389-.277-1.422.417-1.375.447.004.598.483.589.856-.331.005-.663.004-.994.012.095.375.466.419.766.25l.195.191c-.287.173-.681.304-.973.067zm.012-.764c.241.004.483.002.723-.011-.121-.409-.612-.402-.723.011zM17.716 8.071c.362.022.845-.147 1.095.207.131.397.043.83.063 1.242l-.289-.001c-.004-.335.025-.672-.024-1.004-.046-.258-.501-.251-.532.015-.043.328-.014.659-.018.988l-.293.001c-.001-.483.001-.965-.003-1.448zM6.447 10.511c.411.042 1.011-.158 1.246.297.173.304-.063.594-.299.771.159.327.319.653.477.98l-.302.001c-.159-.328-.32-.656-.478-.984l-.361-.004c-.002.329-.002.659-.002.988l-.279.003c-.003-.684-.001-1.367-.003-2.051zm.283.264v.522c.233-.045.735.105.731-.262.018-.365-.502-.211-.731-.26zM12.018 10.517h.295c-.001.195-.002.391-.005.587.272-.006.672-.043.759.294.052.323.08.681-.046.989-.229.318-.674.135-1.001.181-.003-.684-.001-1.367-.001-2.051zm.367.881a1.25 1.25 0 0 0-.014.869c.618.348.632-1.171.014-.869zM15.964 10.505l.293.001c-.001.199-.003.399-.007.598.282-.017.648-.056.814.229.117.396.039.82.057 1.227h-.291c-.003-.329.023-.66-.018-.988-.03-.285-.533-.273-.54.018-.038.321-.012.646-.016.97l-.293.002c-.001-.686.001-1.371.001-2.057z"/>
    <path fill="#fff" d="M7.927 11.245c.293-.196.804-.295.993.088.101.399.036.817.051 1.224-.264-.006-.534.046-.793-.024-.38-.115-.34-.734.022-.844.178-.055.365-.068.547-.1-.125-.297-.424-.264-.66-.124l-.16-.219zm.336 1.02c.273.112.456-.12.46-.374-.218.006-.676.057-.46.374zM9.263 11.107c.37.018.896-.155 1.114.256.089.388.026.794.042 1.188l-.288.01c-.01-.356.029-.717-.038-1.067-.112-.176-.399-.175-.506.003-.066.348-.026.704-.032 1.055l-.292.004c-.003-.483-.002-.967 0-1.45zM13.358 11.249c.292-.203.802-.298.995.081.101.399.037.818.052 1.225-.265-.006-.537.046-.797-.023-.375-.119-.334-.733.025-.845.179-.055.366-.067.549-.1-.128-.294-.425-.265-.661-.123l-.162-.215zm.282.927c.218.282.542-.001.518-.287-.184.064-.583-.019-.518.287zM10.875 11.199c.296-.172.641-.043.926.088l-.171.207c-.207-.065-.71-.234-.653.152.278.112.75.006.827.388.229.716-1.358.759-1.087.118.257.108.598.295.833.036-.052-.251-.365-.167-.55-.243-.371-.023-.436-.589-.124-.745zM14.875 12.476c-.387-.37-.323-1.299.3-1.38.346-.041.539.274.597.568l-.325.013a39.259 39.259 0 0 0-.199-.348c-.408.178-.373.736-.101 1.018l.32-.173.256.165c-.226.208-.58.385-.848.138zM8.01 13.682c.334-.22.745-.069 1.078.069l-.147.255c-.272-.078-.743-.277-.865.106-.02.328.39.295.606.371.469.045.629.738.249.999-.393.265-.9.117-1.274-.111l.179-.233c.295.127.792.336.992-.032.081-.377-.412-.335-.645-.42-.466-.073-.55-.766-.173-1.005zM10.888 13.547l.293.001v2.049l-.293.001v-2.051zM11.523 14.044c.11-.179.226-.352.347-.522.008.178.014.357.019.535.084.078.168.157.251.237l-.259.118c.007.395.004.789.004 1.184l-.296.001c-.032-.434.103-.914-.133-1.309-.056-.086.046-.166.067-.244zM9.498 15.401c-.273-.419-.165-1.228.431-1.275.483-.051.696.456.67.861-.331.002-.663 0-.994.017.101.363.462.403.761.249l.205.152c-.296.258-.812.351-1.073-.003zm.104-.666c.244.01.489.009.733.001-.119-.416-.613-.411-.733-.001zM12.364 15.426c-.326-.419-.193-1.311.446-1.312.462-.02.646.471.632.858-.335.005-.671.003-1.005.027.123.361.485.378.794.245l.173.18c-.305.199-.769.315-1.041.001zm.084-.7c.239.004.479.004.718.001-.097-.42-.62-.42-.718-.001zM13.656 14.143c.336-.007.677-.032 1.008.046l-.177.239c-.738-.208-.519.733-.539 1.169l-.293-.001v-1.453zM14.887 14.245c.286-.192.634-.058.928.039l-.121.243c-.266-.083-.597-.194-.771.11.229.065.467.094.695.166.31.096.311.594.029.73-.337.201-.732.045-1.041-.132.059-.068.117-.138.176-.205.233.098.682.314.793-.044-.113-.174-.383-.114-.561-.189-.349-.032-.401-.554-.125-.719zM11.474 17.934c1.139-.429 2.333-.716 3.498-1.076-.37 1.035-.758 2.065-1.126 3.101-.053.193-.193.336-.337.466-.241-.254-.419-.557-.597-.856a1402.985 1402.985 0 0 0-3.54 3.357 154.29 154.29 0 0 0-.774-.842c1.179-1.112 2.359-2.224 3.54-3.335-.233-.23-.955-.415-.663-.815z"/>
    <path fill="#2b2c7c" d="M3.72.458C8.965.383 14.22.451 19.47.424c.288-.046.654.091.602.443.003 7.422.006 14.844.001 22.267.037.246-.182.439-.42.413-5.231.008-10.464.001-15.695.003-.26.042-.514-.151-.477-.426-.006-7.389 0-14.778-.004-22.167-.003-.189.022-.448.245-.5zm1.348.956c-.001.685-.001 1.37 0 2.055h.29v-.911h.76l.001.91.29.001c0-.686.001-1.372-.001-2.058l-.29.003.001.886-.76.002-.002-.89-.289.003zm4.103-.006v2.054l.292.003c.004-.335-.025-.672.024-1.004.03-.259.497-.26.526 0 .052.331.02.668.025 1.002l.289.001c-.014-.401.053-.814-.044-1.206-.152-.305-.534-.276-.82-.249l-.001-.604-.291.003zm4.294.007l.001 2.044c.278-.015.564.042.836-.032.358-.211.237-.709.232-1.054-.032-.385-.477-.406-.773-.378l-.003-.585-.293.004zm-6.852.737l.162.208c.239-.127.536-.168.66.13-.181.033-.369.046-.546.101-.354.109-.404.708-.041.838.263.079.541.024.811.032-.014-.411.053-.835-.055-1.236-.2-.378-.701-.272-.992-.072zm1.819 1.339c.202.007.358-.15.522-.245l-.258-.188c-.098.06-.197.121-.296.18-.314-.251-.338-.865.088-1.013.063.114.125.229.186.343l.327-.016c-.068-.248-.182-.546-.485-.562-.829-.076-.886 1.457-.083 1.5zm2.639-.007c.252.064.483-.079.698-.187l-.188-.194c-.295.169-.669.137-.773-.239.334-.018.668-.015 1.002-.019-.001-.363-.133-.839-.575-.853-.815-.089-.925 1.364-.164 1.493zm.963-1.478v1.457h.293c.009-.343-.035-.692.03-1.031.063-.238.49-.218.52.031.047.333.019.67.025 1.006l.288-.009c-.021-.409.066-.84-.061-1.235-.246-.357-.733-.192-1.095-.218zm2.765.003c.014.401-.048.813.043 1.207.23.403.742.219 1.115.239-.002-.482-.001-.964-.001-1.447l-.293.001c-.006.339.029.681-.025 1.018-.053.233-.444.242-.519.018-.062-.342-.025-.691-.028-1.036l-.292.001zm1.435-.003v1.458l.293-.001c.037-.429-.223-1.369.53-1.17l.201-.213c-.331-.113-.681-.083-1.023-.074zm1.34.039c-.378.21-.252.722-.243 1.077.085.411.581.381.903.347-.112.37-.47.393-.78.261l-.088.217c.351.152.9.195 1.058-.242.108-.557.024-1.133.05-1.698-.299.011-.614-.072-.9.038zm-8.853 2.41c-.002.684.001 1.367-.002 2.051l.288.011c.003-.306.003-.611.005-.917h.759v.906l.287.01c.007-.687.003-1.373.003-2.06l-.289-.002-.002.888h-.759l-.001-.886-.29-.002zm1.701.007v.292h.293v-.293l-.293.001zm.578.01l.019.287.283-.011-.003-.293-.299.016zm.677-.029v2.062l.293-.001c.01-.362-.039-.732.042-1.088.132-.145.416-.153.5.046.066.342.024.695.032 1.042l.291-.001c-.016-.405.053-.822-.05-1.219-.166-.291-.535-.262-.821-.229.004-.203.006-.407.007-.611l-.293-.001zm-.865.595c-.743.093-.71 1.5.061 1.507.798-.039.759-1.557-.061-1.507zm2.286.02v1.45l.291.009c.029-.457-.207-1.368.555-1.191l.165-.203c-.328-.111-.673-.072-1.011-.064zm1.087.554l.001.327h.655l.001-.327h-.657zm-2.921 1.856v2.063h.292c.005-.342-.031-.688.027-1.026.059-.229.461-.229.516 0 .062.338.024.685.032 1.027l.289-.002c-.016-.402.053-.815-.046-1.209-.156-.303-.536-.267-.821-.24l.002-.613h-.291zm-6.255.147c-.434.283-.322.869-.311 1.308.019.542.737.828 1.143.488.321-.221.284-.642.293-.984a88.574 88.574 0 0 0-.729 0l.002.279c.152.005.304.011.455.018-.046.268-.216.594-.54.519-.476-.15-.335-.788-.293-1.166.133-.417.64-.264.826.025l.292-.02c-.157-.454-.706-.771-1.14-.468zm1.331.458c.002.486.001.971.001 1.458h.293c.021-.445-.204-1.382.55-1.171l.169-.233c-.333-.074-.674-.053-1.013-.053zm1.125 1.3c.278.291.719.169 1.02-.015l-.188-.199c-.299.172-.673.133-.778-.242.334-.014.668-.013 1.002-.018.013-.381-.155-.872-.616-.856-.657-.017-.798.918-.441 1.33zm1.174-1.297c.002.484.001.97.002 1.454l.291.001c.007-.341-.03-.687.028-1.025.054-.235.464-.234.519.001.059.337.022.683.028 1.025l.29-.002c-.016-.402.054-.817-.046-1.211-.228-.398-.742-.211-1.111-.243zm1.303.002l.004.29c.255 0 .511 0 .766.002-.281.374-.721.663-.815 1.148.403.018.806.013 1.208.011l-.003-.289-.755-.004c.25-.293.503-.583.756-.873l.002-.284a75.144 75.144 0 0 0-1.163 0zm2.647.161l.165.173c.175-.041.352-.076.529-.11l.081.268c-.362-.019-.856.147-.78.6.081.503.702.337 1.057.358-.02-.42.061-.858-.066-1.265-.221-.347-.711-.251-.987-.025zm1.212-.171c.017.406-.057.827.047 1.224.233.386.743.204 1.109.232-.001-.485 0-.97-.002-1.454h-.292c-.005.343.032.691-.028 1.031-.055.233-.46.232-.518 0-.058-.34-.022-.688-.027-1.03l-.29-.003zm1.561.086c-.277.117-.314.58-.037.714.228.088.475.102.712.157-.131.413-.571.239-.851.104l-.143.231c.31.157.695.31 1.025.113.276-.13.286-.602.001-.723-.229-.077-.474-.097-.709-.157.138-.335.485-.209.746-.126l.145-.233c-.28-.102-.603-.229-.89-.08zm1.233 1.283c.292.237.686.106.973-.067l-.195-.191c-.3.169-.671.125-.766-.25.331-.008.663-.007.994-.012.01-.372-.142-.851-.589-.856-.694-.046-.852.986-.417 1.375zm1.121-1.366c.003.483.002.965.003 1.448l.293-.001c.004-.329-.025-.66.018-.988.031-.266.485-.272.532-.015.049.332.019.669.024 1.004l.289.001c-.02-.412.068-.845-.063-1.242-.25-.354-.733-.185-1.095-.207zm-11.269 2.44c.002.684-.001 1.367.003 2.051l.279-.003c0-.329 0-.659.002-.988l.361.004c.159.328.32.655.478.984l.302-.001c-.158-.328-.318-.653-.477-.98.236-.177.472-.467.299-.771-.236-.455-.836-.255-1.246-.297zm5.571.006c0 .684-.002 1.367.001 2.051.328-.046.773.137 1.001-.181.126-.308.098-.666.046-.989-.087-.337-.487-.3-.759-.294.003-.196.004-.392.005-.587h-.295zm3.946-.012c0 .686-.002 1.371-.001 2.057l.293-.002c.003-.323-.022-.648.016-.97.006-.291.51-.302.54-.018.041.328.015.659.018.988h.291c-.018-.407.06-.831-.057-1.227-.166-.286-.532-.246-.814-.229.004-.2.006-.399.007-.598l-.293-.001zm-8.037.74l.16.219c.237-.139.535-.173.66.124-.182.032-.37.045-.547.1-.362.11-.402.73-.022.844.258.07.529.018.793.024-.015-.406.05-.825-.051-1.224-.189-.383-.7-.284-.993-.088zm1.336-.138c-.002.483-.003.967 0 1.451l.292-.004c.006-.351-.033-.708.032-1.055.108-.179.394-.18.506-.003.067.35.028.711.038 1.067l.288-.011c-.016-.394.047-.8-.042-1.188-.218-.411-.745-.237-1.114-.256zm4.095.142l.162.215c.237-.141.533-.171.661.123-.183.032-.37.045-.549.1-.358.112-.399.726-.025.845.26.069.533.017.797.023-.015-.407.049-.827-.052-1.225-.193-.379-.703-.285-.995-.081zm-2.483-.05c-.312.156-.247.723.124.745.185.076.498-.008.55.243-.235.259-.576.072-.833-.036-.271.641 1.317.597 1.087-.118-.077-.382-.549-.276-.827-.388-.057-.386.447-.217.653-.152l.171-.207c-.285-.13-.63-.259-.926-.088zm4 1.277c.268.248.622.071.848-.138l-.256-.165-.32.173c-.272-.282-.307-.84.101-1.018l.199.348.325-.013c-.059-.293-.251-.609-.597-.568-.623.081-.687 1.01-.3 1.38zM8.01 13.682c-.378.238-.293.932.173 1.005.233.085.726.043.645.42-.2.368-.696.159-.992.032l-.179.233c.373.228.88.376 1.274.111.38-.26.22-.954-.249-.999-.216-.076-.626-.043-.606-.371.123-.383.594-.184.865-.106l.147-.255c-.333-.138-.745-.289-1.078-.069zm2.878-.135v2.051l.293-.001v-2.049l-.293-.001zm.635.497c-.021.079-.123.159-.067.244.237.394.101.874.133 1.309l.296-.001c0-.395.003-.789-.004-1.184l.259-.118c-.083-.08-.167-.159-.251-.237a31.49 31.49 0 0 0-.019-.535c-.121.17-.237.343-.347.522zm-2.025 1.357c.261.354.777.26 1.073.003l-.205-.152c-.299.154-.66.115-.761-.249.331-.017.663-.015.994-.017.026-.405-.187-.912-.67-.861-.596.047-.704.857-.431 1.275zm2.866.025c.272.314.736.198 1.041-.001l-.173-.18c-.308.133-.67.116-.794-.245.334-.025.669-.022 1.005-.027.013-.387-.17-.879-.632-.858-.639.001-.772.893-.446 1.312zm1.292-1.283v1.453l.293.001c.02-.436-.2-1.377.539-1.169l.177-.239c-.331-.078-.672-.053-1.008-.046zm1.231.102c-.276.165-.223.687.125.719.179.075.448.015.561.189-.11.358-.56.142-.793.044-.059.067-.117.137-.176.205.309.177.704.333 1.041.132.282-.137.281-.634-.029-.73-.228-.073-.466-.102-.695-.166.174-.303.505-.193.771-.11l.121-.243c-.293-.097-.641-.231-.928-.039zm-3.413 3.689c-.292.399.43.585.663.815l-3.54 3.335c.259.279.518.56.774.842 1.178-1.121 2.359-2.239 3.54-3.357.178.299.356.602.597.856.145-.13.284-.273.337-.466.369-1.036.756-2.065 1.126-3.101-1.165.36-2.36.646-3.498 1.076z"/>
    <path fill="#2b2c7c" d="M10.815 2.6c.114-.42.597-.399.728-.004a7.686 7.686 0 0 1-.728.004zM13.874 2.269c.517-.123.396.57.336.879-.539.296-.568-.603-.336-.879zM17.747 2.298c.438-.188.503.388.422.682-.016.309-.54.306-.552-.003-.007-.222-.08-.53.13-.68zM6.875 2.869c.178-.025.357-.043.536-.055.042.42-.567.512-.536.055zM10.74 5.365c.519-.184.567.917.064.89-.293-.168-.294-.674-.064-.89zM7.519 8.642c.138-.384.611-.411.731.006-.243.01-.487.01-.731-.006zM16.607 8.673c.111-.413.603-.42.723-.011-.241.012-.483.015-.723.011zM12.871 9.109c-.008-.265.324-.194.496-.254.095.307-.35.586-.496.254zM6.73 10.775c.229.049.75-.105.731.26.003.367-.498.217-.731.262a45.414 45.414 0 0 1 0-.522zM12.385 11.398c.618-.302.604 1.217-.014.869a1.25 1.25 0 0 1 .014-.869zM8.263 12.265c-.216-.317.242-.368.46-.374-.003.254-.187.486-.46.374zM13.64 12.176c-.066-.307.334-.223.518-.287.025.286-.3.569-.518.287zM9.602 14.735c.12-.41.614-.415.733.001a9.953 9.953 0 0 1-.733-.001zM12.448 14.726c.098-.419.621-.42.718.001a24.55 24.55 0 0 1-.718-.001z"/>
    <path fill="#565656" opacity=".87" d="M3 .392l.042.157c.035.224.048.451.049.678-.014 7.434.009 14.869-.011 22.302L3 23.418V.392z"/>
    <path fill="#494949" opacity=".82" d="M20.443.529l.075.134v22.68l-.076.134A4619.4 4619.4 0 0 1 20.443.529z"/>
    <path fill="#6c6c6c" opacity=".89" d="M3.456 23.92c5.517-.007 11.035-.023 16.551.008L19.89 24H3.564l-.108-.08z"/>
</svg>
