<!-- Generated by IcoMoon.io -->
<svg version="1.1" xmlns="http://www.w3.org/2000/svg" width="27" height="24" viewBox="0 0 27 24">
<title>information--pedestrians-crossing--g3</title>
<path fill="#c0111e" d="M13.233 0h0.765c0.51 0.179 0.979 0.496 1.242 0.979 3.867 6.682 7.733 13.366 11.605 20.045 0.165 0.295 0.307 0.6 0.428 0.914v0.529c-0.165 0.712-0.678 1.291-1.368 1.533h-24.518c-0.674-0.215-1.195-0.755-1.387-1.436v-0.697c0.123-0.295 0.262-0.582 0.419-0.859 3.873-6.675 7.737-13.355 11.606-20.032 0.26-0.47 0.716-0.785 1.208-0.976M2.86 21.618c7.181 0.001 14.362 0.001 21.544-0.001-3.588-6.202-7.173-12.405-10.774-18.599-3.597 6.195-7.184 12.397-10.77 18.6z"></path>
<path fill="#094ca1" d="M2.86 21.618c3.586-6.203 7.173-12.405 10.77-18.6 3.601 6.194 7.186 12.397 10.774 18.599-7.182 0.003-14.363 0.003-21.544 0.001M15.155 9.436c-0.254 0.511 0.098 1.017 0.289 1.481-0.63 0.871-1.602 1.435-2.178 2.348-0.352 0.543-0.408 1.201-0.466 1.827-1.612-0.23-0.334-2.504-1.722-3.010 0.128-0.364 0.301-0.749 0.21-1.141-0.318-0.499-1.195-0.376-1.422 0.147-0.087 0.382 0.053 0.764 0.13 1.133-0.854 0.417-1.585 1.227-1.525 2.232-0.059 0.979 0.979 1.829 0.49 2.815-0.505 0.825-1.125 1.582-1.763 2.307 0.209 0.522 0.555 1.013 1.163 1.076 0.004-0.374-0.031-0.745-0.098-1.111 0.727-0.836 1.195-1.887 2.078-2.584 0.922 0.886 0.314 2.249 0.537 3.357 0.476 0.094 0.957 0.153 1.439 0.206 0.28 0.303 0.623 0.532 1.017 0.656 0.023-0.477 0.025-0.955 0.023-1.432 0.638-0.331 1.325-0.629 1.83-1.158 0.308-0.442 0.26-1.132 0.798-1.403 0.461-0.007 0.863 0.36 0.915 0.815 0.134 0.96-0.109 1.925-0.059 2.89 0.522 0.177 1.072 0.24 1.621 0.218-0.015-0.475-0.335-0.791-0.736-0.99 0.101-0.98 0.1-1.966 0.106-2.95 0.125-0.063 0.252-0.125 0.379-0.188-0.205-0.888-0.389-1.781-0.575-2.673 0.416 0.473 0.862 0.952 1.485 1.14 0.337-0.751-0.449-1.182-0.886-1.64-0.622-0.567-0.168-1.55-0.683-2.174-0.282-0.312-0.649-0.532-0.985-0.781 0.348-0.584 0.436-1.439-0.116-1.927-0.475-0.131-1.105 0.007-1.295 0.513z"></path>
<path fill="#094ca1" d="M14.373 12.994c0.078 0.003 0.232 0.008 0.308 0.010 0.653 1.316 0 2.711-0.616 3.888 0.173 0.068 0.346 0.136 0.52 0.206-0.076 1.398-1.507 1.909-2.31 2.828-0.218-0.048-0.438-0.095-0.656-0.139-0.023-0.693 0.080-1.377 0.127-2.065 0.083-0.781-0.61-1.444-0.346-2.232 0.787 0.211 1.62 0.205 2.389-0.072 0.014-0.84 0.018-1.74 0.585-2.423z"></path>
<path fill="#094ca1" d="M9.361 13.939c0.239 0.402 0.127 0.856-0.037 1.261-0.1-0.417-0.080-0.85 0.037-1.261z"></path>
<path fill="#fff" d="M15.155 9.436c0.191-0.506 0.821-0.644 1.295-0.513 0.552 0.488 0.464 1.343 0.116 1.927 0.335 0.25 0.702 0.469 0.985 0.781 0.515 0.623 0.061 1.606 0.683 2.174 0.438 0.458 1.223 0.889 0.886 1.64-0.623-0.188-1.069-0.667-1.485-1.14 0.187 0.892 0.371 1.785 0.575 2.673-0.127 0.063-0.254 0.125-0.379 0.188-0.007 0.983-0.005 1.969-0.106 2.95 0.401 0.199 0.721 0.515 0.736 0.99-0.55 0.022-1.099-0.041-1.621-0.218-0.050-0.964 0.192-1.93 0.059-2.89-0.052-0.455-0.454-0.822-0.915-0.815-0.537 0.271-0.49 0.961-0.798 1.403-0.505 0.529-1.192 0.826-1.83 1.158 0.001 0.477 0 0.955-0.023 1.432-0.394-0.124-0.738-0.353-1.017-0.656-0.481-0.053-0.963-0.112-1.439-0.206-0.224-1.109 0.385-2.471-0.537-3.357-0.884 0.697-1.351 1.748-2.078 2.584 0.067 0.367 0.102 0.738 0.098 1.111-0.608-0.063-0.955-0.554-1.163-1.076 0.638-0.725 1.259-1.482 1.763-2.307 0.49-0.986-0.548-1.835-0.49-2.815-0.060-1.005 0.671-1.815 1.525-2.232-0.076-0.37-0.217-0.751-0.13-1.133 0.228-0.524 1.105-0.646 1.422-0.147 0.091 0.393-0.082 0.777-0.21 1.141 1.388 0.506 0.11 2.779 1.722 3.010 0.059-0.626 0.115-1.285 0.466-1.827 0.575-0.914 1.548-1.477 2.178-2.348-0.191-0.464-0.543-0.97-0.289-1.481M14.373 12.994c-0.567 0.683-0.571 1.583-0.585 2.423-0.769 0.277-1.602 0.284-2.389 0.072-0.263 0.788 0.43 1.451 0.346 2.232-0.046 0.687-0.15 1.372-0.127 2.065 0.218 0.044 0.438 0.091 0.656 0.139 0.803-0.919 2.234-1.43 2.31-2.828-0.173-0.070-0.346-0.138-0.52-0.206 0.616-1.177 1.27-2.572 0.616-3.888-0.076-0.001-0.23-0.007-0.308-0.010M9.361 13.939c-0.117 0.412-0.136 0.844-0.037 1.261 0.164-0.405 0.275-0.859 0.037-1.261z"></path>
</svg>
