<svg xmlns="http://www.w3.org/2000/svg" width="24" height="24">
    <path fill="#0366b3" d="M0 0h24.27v24H0V0zm5.938 4.36c.228.309.462.612.723.895l.011.593c-.712.175-1.493.409-1.928 1.048-.828 1.431-1.425 3.125-.964 4.781a5.6 5.6 0 0 0 .814-.283l.51-.019c-.038.454-.181.926-.04 1.375.394.851-.178 1.739-.113 2.621.055.701.007 1.53.554 2.062l-.205.325c.307.001.616 0 .924-.004.005-.419.013-.844-.078-1.255-.313-1.127-.1-2.38.484-3.384l.078.402c-.344.56-.194 1.234-.221 1.854.031.932-.057 1.869.039 2.796.09.582 1.096.481 1.067-.096.035-1.215-.001-2.431.016-3.647.028-.332-.08-.646-.256-.922l.175-.363c.372.829.601 1.731.677 2.636-.112 1.003-.403 1.99-.352 3.011.306-.001.612-.007.92-.013l-.29-.352c.209-.872.458-1.737.605-2.622.146-.872-.266-1.71-.295-2.573.384-.557.303-1.219.205-1.851.182.013.364.028.546.044.245.113.502.198.762.268.468-1.704-.16-3.46-1.042-4.913-.444-.564-1.185-.736-1.84-.929.008-.206.016-.413.026-.619.258-.268.476-.57.688-.875C7.951 3.81 7.756 3 7.034 3.016c-.715.016-.891.805-1.092 1.344zm9.829.007c.229.305.464.607.721.89l.011.591c-.707.177-1.48.406-1.92 1.036-.821 1.431-1.448 3.127-.969 4.782.436-.119.867-.248 1.307-.344-.12.682-.094 1.364.131 2.018-.175 1.332-.636 2.939.283 4.095l-.214.32c.311.003.622.003.933-.001.004-.417.018-.839-.076-1.249-.311-1.119-.115-2.376.48-3.369l.09.382c-.361.553-.201 1.234-.231 1.854.031.933-.058 1.873.04 2.802.096.577 1.089.475 1.064-.101.036-1.215-.001-2.432.018-3.647.026-.328-.08-.639-.247-.916l.156-.375c.386.827.608 1.735.686 2.641-.112 1.003-.403 1.989-.353 3.009.298-.001.596-.004.895-.008l-.262-.403c.205-.775.409-1.551.562-2.338.214-.963-.154-1.919-.314-2.86l.378-.492a80.521 80.521 0 0 0-.115-1.309c.185.012.368.027.553.043.235.14.504.194.766.256.448-1.698-.169-3.438-1.041-4.886-.438-.572-1.185-.747-1.842-.938 0-.201 0-.402.003-.601.258-.278.484-.582.704-.891-.191-.542-.383-1.358-1.108-1.34-.717.018-.893.809-1.089 1.351zM6.752 18.91c.012.647-.077 1.305.061 1.944.999.123.391-1.344.549-1.94a41.122 41.122 0 0 0-.609-.004zm9.828.003c.142.638-.445 2.083.593 1.955.027-.651.018-1.304.019-1.955a62.424 62.424 0 0 0-.612 0z"/>
    <path fill="#0366b3" d="M4.304 11.237c.236-.944.1-2.148.806-2.861.462.827.249 1.948.009 2.861-.272-.001-.543-.003-.816 0zM8.961 11.252c-.287-.982-.364-2.043-.003-3.016.746.852.492 2.024.878 3.003l-.875.013zM14.137 11.237c.198-1.022.159-2.129.825-3.001.352.973.282 2.025-.015 3.001a36.451 36.451 0 0 0-.81 0zM18.762 8.233c.775.835.53 2.018.883 3.008-.287.001-.573.004-.859.008-.295-.983-.338-2.032-.024-3.016z"/>
    <path fill="#fff" d="M5.938 4.36c.201-.539.378-1.328 1.092-1.344.723-.016.917.794 1.104 1.335-.212.305-.43.607-.688.875l-.026.619c.655.193 1.397.365 1.84.929.882 1.453 1.51 3.209 1.042 4.913a4.82 4.82 0 0 1-.762-.268 33.448 33.448 0 0 0-.546-.044c.098.632.179 1.294-.205 1.851.03.863.441 1.7.295 2.573-.147.886-.396 1.75-.605 2.622l.29.352c-.307.007-.613.012-.92.013-.051-1.021.24-2.008.352-3.011a8.136 8.136 0 0 0-.677-2.636l-.175.363c.177.276.284.591.256.922-.018 1.216.019 2.432-.016 3.647.03.577-.976.678-1.067.096-.096-.928-.008-1.865-.039-2.796.027-.62-.123-1.294.221-1.854l-.078-.402c-.584 1.004-.797 2.257-.484 3.384.092.411.084.836.078 1.255-.307.004-.616.005-.924.004l.205-.325c-.547-.531-.499-1.36-.554-2.062-.065-.882.507-1.77.113-2.621-.14-.449.003-.921.04-1.375l-.51.019a5.642 5.642 0 0 1-.814.283c-.461-1.656.136-3.351.964-4.781.436-.639 1.216-.872 1.928-1.048l-.011-.593c-.26-.283-.495-.587-.723-.895zm-1.634 6.877c.272-.003.543-.001.816 0 .24-.913.453-2.035-.009-2.861-.707.713-.57 1.917-.806 2.861zm4.657.015l.875-.013c-.386-.979-.132-2.151-.878-3.003-.361.973-.284 2.035.003 3.016zM15.767 4.367c.197-.542.372-1.333 1.089-1.351.725-.018.917.798 1.108 1.34-.22.309-.446.613-.704.891-.003.2-.003.4-.003.601.657.191 1.404.367 1.842.938.872 1.448 1.489 3.189 1.041 4.886-.262-.062-.531-.116-.766-.256a25.716 25.716 0 0 0-.553-.043c.042.436.08.872.115 1.309l-.378.492c.16.941.529 1.897.314 2.86a36.797 36.797 0 0 1-.562 2.338c.086.135.174.268.262.403a89.28 89.28 0 0 1-.895.008c-.05-1.021.241-2.006.353-3.009a7.882 7.882 0 0 0-.686-2.641l-.156.375c.167.276.272.588.247.916-.019 1.215.019 2.432-.018 3.647.026.576-.968.678-1.064.101-.098-.929-.009-1.869-.04-2.802.03-.62-.131-1.301.231-1.854-.023-.096-.069-.286-.09-.382-.595.994-.791 2.25-.48 3.369.093.41.08.832.076 1.249-.311.004-.622.004-.933.001l.214-.32c-.92-1.156-.458-2.763-.283-4.095-.225-.654-.251-1.336-.131-2.018-.44.096-.871.225-1.307.344-.479-1.656.148-3.352.969-4.782.44-.63 1.213-.859 1.92-1.036l-.011-.591a12.027 12.027 0 0 1-.721-.89zm-1.63 6.87c.27-.003.539-.003.81 0 .297-.976.367-2.028.015-3.001-.666.872-.627 1.979-.825 3.001zm4.625-3.004c-.314.984-.271 2.033.024 3.016.286-.004.572-.007.859-.008-.353-.99-.108-2.173-.883-3.008zM6.752 18.91c.204 0 .407.001.609.004-.158.596.45 2.063-.549 1.94-.138-.639-.049-1.297-.061-1.944zM16.58 18.913h.612c-.001.651.008 1.304-.019 1.955-1.038.128-.452-1.317-.593-1.955z"/>
</svg>
