<svg xmlns="http://www.w3.org/2000/svg" width="24" height="24">
    <path fill="#154889" d="M0 .923h24.387v22.154H0V.923zm3.326 3.214c-.002 5.714-.001 11.427 0 17.141 5.709.003 11.419.002 17.128.001.001-5.715.002-11.428 0-17.142-5.71-.002-11.419-.003-17.128.001z"/>
    <path fill="#154889" d="M6.416 17.914c.368-.169.764-.3 1.176-.274.729 0 1.322.552 2.053.541.827.06 1.496-.612 2.324-.541.729 0 1.322.551 2.053.541.584.04 1.095-.276 1.629-.453.568-.183 1.182-.069 1.71.178-.002.18-.001.362 0 .542-.678-.33-1.489-.353-2.164-.001a2.39 2.39 0 0 1-2.194.018 2.375 2.375 0 0 0-2.182-.019c-.68.355-1.51.376-2.196.019a2.437 2.437 0 0 0-2.208-.018c0-.178 0-.356-.002-.534z"/>
    <path fill="#154889" d="M6.419 19c.582-.277 1.272-.369 1.88-.118.486.198.984.444 1.528.392.725-.022 1.319-.571 2.054-.54.765-.04 1.384.551 2.144.542.538.034 1.019-.228 1.506-.414.598-.227 1.278-.141 1.838.152a47.01 47.01 0 0 0-.008.531 2.42 2.42 0 0 0-2.203.015c-.72.382-1.586.318-2.293-.058-.702-.354-1.531-.244-2.209.11-.714.356-1.547.218-2.232-.137-.637-.298-1.381-.227-2.005.07.002-.182.004-.365.003-.546z"/>
    <path fill="#fff" d="M3.326 4.137c5.709-.004 11.418-.003 17.128-.001.002 5.715.001 11.428 0 17.142-5.709.001-11.419.002-17.128-.001-.001-5.714-.002-11.427 0-17.141zm7.794 1.488c-1.411.138-2.863.615-3.878 1.646-.658.658-1.022 1.665-.718 2.576.378 1.165 1.465 1.926 2.561 2.355 1.865.703 4.008.68 5.847-.097 1.06-.458 2.093-1.272 2.372-2.444.254-1.05-.333-2.107-1.148-2.74-1.406-1.109-3.285-1.444-5.035-1.296zm-4.702 6.262c-.002.547-.002 1.095 0 1.643h10.943v-1.643c-.481.011-.964-.026-1.444.014-2.421 1.445-5.635 1.442-8.055-.001-.481-.036-.963-.003-1.445-.013zm.752 1.931c-.192.028-.213.25-.207.405.007.869-.011 1.737.009 2.606.028.354.473.238.711.262.224-.013.627.066.642-.265.006-.95.033-1.904-.014-2.853-.255-.324-.777-.127-1.141-.154zm1.615.005c-.239.087-.166.388-.181.584.029.843-.044 1.695.035 2.533.285.288.793.112 1.166.126.402-.272-.032-.906.291-1.23.402-.103.909-.114 1.2.238.325.36.922.33 1.232-.033.282-.331.778-.298 1.156-.205.276.3.008.783.173 1.134.176.195.478.089.71.12.218-.003.597.044.602-.272.013-.919.014-1.84-.001-2.758-.029-.346-.459-.244-.694-.262-.214.026-.535-.074-.646.176-.054.308.008.624-.04.933-.089.274-.441.179-.658.198-.518.07-.727-.609-1.247-.549-.514-.042-.723.63-1.242.55-.248.009-.698.046-.659-.328-.066-.305.145-.768-.182-.955a4.627 4.627 0 0 0-1.012 0zm6.87-.005c-.194.025-.218.25-.209.405.007.869-.011 1.736.009 2.605.028.356.475.239.716.263.222-.012.623.064.635-.264.006-.951.032-1.905-.014-2.853-.251-.326-.775-.127-1.137-.155zm-9.239 4.096c.002.178.002.356.002.534a2.434 2.434 0 0 1 2.208.018 2.394 2.394 0 0 0 2.196-.019 2.38 2.38 0 0 1 2.182.019 2.393 2.393 0 0 0 2.194-.018c.675-.352 1.485-.329 2.164.001-.001-.18-.002-.362 0-.542-.529-.247-1.144-.361-1.71-.178-.534.177-1.045.492-1.629.453-.731.01-1.324-.541-2.053-.541-.828-.07-1.497.601-2.324.541-.731.011-1.324-.541-2.053-.541-.411-.026-.808.105-1.176.274zM6.419 19c.001.182-.001.365-.003.546.623-.297 1.368-.369 2.005-.07.685.354 1.518.493 2.232.137.678-.354 1.507-.463 2.209-.11.707.377 1.573.44 2.293.058a2.418 2.418 0 0 1 2.203-.015l.008-.531c-.56-.293-1.239-.378-1.838-.152-.486.186-.967.448-1.506.414-.761.009-1.378-.582-2.144-.542-.734-.032-1.329.517-2.054.54-.543.052-1.04-.195-1.528-.392-.608-.251-1.298-.159-1.88.118z"/>
    <path fill="#040404" d="M11.12 5.625c1.75-.148 3.63.187 5.035 1.296.815.632 1.401 1.689 1.148 2.74-.28 1.172-1.314 1.986-2.372 2.444-1.839.777-3.982.799-5.847.097-1.095-.429-2.182-1.19-2.561-2.355-.304-.911.06-1.918.718-2.576 1.014-1.031 2.466-1.507 3.878-1.646zm-.095.7c-1.359.174-2.866.702-3.57 1.963-.498.896-.054 2.01.723 2.586 1.53 1.177 3.639 1.367 5.472.931 1.126-.291 2.34-.9 2.781-2.049.33-.87-.145-1.821-.846-2.351-1.277-.99-2.987-1.246-4.559-1.081z"/>
    <path fill="#040404" d="M6.418 11.887c.482.01.964-.023 1.445.013 2.42 1.443 5.634 1.446 8.055.001.48-.04.963-.003 1.444-.014v1.643H6.419c-.002-.547-.002-1.095 0-1.643zM7.17 13.818c.364.027.886-.17 1.141.154.047.949.019 1.903.014 2.853-.014.33-.417.253-.642.265-.238-.023-.683.092-.711-.262-.019-.869-.002-1.737-.009-2.606-.007-.155.014-.378.207-.405zM8.785 13.823a4.627 4.627 0 0 1 1.012 0c.327.187.116.651.182.955-.039.374.411.337.659.328.52.079.728-.594 1.242-.55.52-.06.729.62 1.247.549.217-.018.57.077.658-.198.047-.309-.014-.625.04-.933.111-.25.431-.15.646-.176.235.018.666-.084.694.262.015.919.014 1.84.001 2.758-.005.318-.384.27-.602.272-.233-.031-.534.075-.71-.12-.164-.352.103-.834-.173-1.134-.378-.094-.874-.126-1.156.205-.31.363-.906.393-1.232.033-.291-.353-.798-.342-1.2-.238-.322.323.111.957-.291 1.23-.373-.015-.881.161-1.166-.126-.079-.838-.006-1.69-.035-2.533.015-.197-.058-.498.181-.584zM15.655 13.818c.362.028.886-.171 1.137.155.046.948.019 1.902.014 2.853-.013.328-.414.253-.635.264-.241-.023-.689.094-.716-.263-.019-.869-.002-1.736-.009-2.605-.009-.155.015-.38.209-.405z"/>
    <path fill="#ec7c25" d="M11.025 6.325c1.572-.165 3.282.09 4.559 1.081.702.53 1.176 1.482.846 2.351-.44 1.149-1.654 1.758-2.781 2.049-1.834.435-3.942.246-5.472-.931-.777-.575-1.221-1.69-.723-2.586.705-1.262 2.212-1.79 3.57-1.963z"/>
</svg>
