<svg xmlns="http://www.w3.org/2000/svg" width="24" height="24">
    <path fill="#0303ff" d="M0 0h24.136v24H0V0zm6.749 3.918c.952 1.653 1.998 3.252 2.984 4.886a10.94 10.94 0 0 1 1.422-.466c-.29-1.48-.575-2.959-.88-4.435-1.175.004-2.351-.02-3.526.015zm3.731-.014c.281 1.47.582 2.937.863 4.407a8.698 8.698 0 0 1 1.669-.003c.263-1.469.539-2.936.798-4.405-1.11-.005-2.22-.005-3.33 0zm3.533 0c-.28 1.474-.544 2.952-.809 4.43a9.73 9.73 0 0 1 1.583.543c.955-1.658 1.905-3.318 2.86-4.976-1.211 0-2.423-.004-3.634.003zm.946 5.074a7.38 7.38 0 0 1 1.289 1.055 689.198 689.198 0 0 0 3.66-2.926c-.695-1.035-1.407-2.059-2.103-3.094-.945 1.657-1.906 3.305-2.846 4.965zM4.492 7.016c1.234.978 2.457 1.969 3.693 2.945.412-.415.877-.77 1.376-1.072C8.59 7.31 7.616 5.732 6.64 4.156c-.715.953-1.441 1.9-2.148 2.86zm-2.096 2.78c1.602.619 3.198 1.257 4.796 1.889a6.067 6.067 0 0 1 .866-1.578 373.022 373.022 0 0 0-3.685-2.935c-.667.869-1.323 1.745-1.977 2.624zm13.977.389c.33.46.6.96.794 1.493 1.557-.574 3.105-1.175 4.664-1.748-.6-.889-1.203-1.775-1.812-2.659-1.218.968-2.429 1.945-3.645 2.914zM2.219 9.931c-.046 1.185.01 2.371.008 3.556 1.597.005 3.195.005 4.792 0a8.586 8.586 0 0 1 .121-1.617c-1.638-.652-3.274-1.31-4.921-1.939zm15.002 1.938c.095.536.132 1.079.158 1.621 1.545 0 3.09.003 4.635-.001-.011-1.136-.012-2.27-.041-3.406a476.612 476.612 0 0 0-4.752 1.786zM2.23 13.684c.01 1.047.014 2.093.033 3.14 1.586.003 3.17.003 4.755 0 .01-1.047.004-2.093.003-3.139a956.03 956.03 0 0 0-4.79-.001zm15.141 0c-.001 1.047-.01 2.095.004 3.142h4.668c0-1.047-.015-2.093-.027-3.14a899.003 899.003 0 0 0-4.645-.001zM2.264 17.022c.003.993.016 1.984.026 2.975 1.578.003 3.154.003 4.732 0 .001-.99.003-1.98-.001-2.97-1.585-.018-3.17-.007-4.756-.005zm15.107-.001c-.011.995.012 1.992-.015 2.988 1.574-.022 3.147-.003 4.72-.01-.004-.991-.015-1.983-.027-2.974-1.56-.011-3.119-.004-4.677-.004z"/>
    <path fill="#fff" d="M6.749 3.918c1.175-.035 2.351-.011 3.526-.015.304 1.475.589 2.955.88 4.435-.485.12-.959.281-1.422.466-.986-1.634-2.032-3.233-2.984-4.886zM10.48 3.904c1.11-.005 2.22-.005 3.33 0-.259 1.469-.535 2.936-.798 4.405a8.698 8.698 0 0 0-1.669.003c-.281-1.47-.582-2.937-.863-4.407zM14.013 3.904c1.211-.007 2.423-.003 3.634-.003-.955 1.658-1.905 3.318-2.86 4.976a9.73 9.73 0 0 0-1.583-.543c.265-1.478.529-2.956.809-4.43zM14.959 8.978c.94-1.66 1.901-3.308 2.846-4.965.695 1.035 1.407 2.059 2.103 3.094a689.198 689.198 0 0 1-3.66 2.926 7.254 7.254 0 0 0-1.289-1.055zM4.492 7.016c.706-.96 1.433-1.906 2.148-2.86.976 1.576 1.95 3.154 2.921 4.733a7.1 7.1 0 0 0-1.376 1.072C6.95 8.985 5.726 7.993 4.492 7.016zM2.396 9.796c.655-.878 1.31-1.755 1.977-2.624 1.234.97 2.463 1.95 3.685 2.935a6.067 6.067 0 0 0-.866 1.578c-1.598-.631-3.194-1.27-4.796-1.889zM16.373 10.185c1.216-.97 2.427-1.946 3.645-2.914.61.884 1.212 1.77 1.812 2.659-1.559.573-3.106 1.174-4.664 1.748a6.186 6.186 0 0 0-.794-1.493zM2.219 9.931c1.647.629 3.284 1.287 4.921 1.939a8.503 8.503 0 0 0-.121 1.617c-1.597.005-3.195.005-4.792 0 .001-1.185-.055-2.371-.008-3.556zM17.221 11.869c1.58-.605 3.166-1.199 4.752-1.786.029 1.136.03 2.27.041 3.406-1.545.004-3.09.001-4.635.001a12.762 12.762 0 0 0-.158-1.621zM2.23 13.684a955.98 955.98 0 0 1 4.79.001c.001 1.046.007 2.092-.003 3.139-1.585.003-3.169.003-4.755 0-.019-1.047-.023-2.093-.033-3.14zM17.371 13.684c1.548-.003 3.097-.004 4.645.001.012 1.047.027 2.093.027 3.14h-4.668c-.014-1.047-.005-2.095-.004-3.142zM2.264 17.022c1.586-.001 3.172-.012 4.756.005.004.99.003 1.98.001 2.97-1.578.003-3.154.003-4.732 0-.01-.991-.023-1.983-.026-2.975zM17.371 17.021c1.559 0 3.117-.007 4.677.004.012.991.023 1.983.027 2.974-1.572.007-3.146-.012-4.72.01.027-.995.004-1.992.015-2.988z"/>
</svg>
