<!-- Generated by IcoMoon.io -->
<svg version="1.1" xmlns="http://www.w3.org/2000/svg" width="24" height="24" viewBox="0 0 24 24">
<title>information--telephone-device-for-the-deaf--g1</title>
<path fill="#eee" d="M1.767 0h20.552l-0.158 0.080c-5.682 0.091-11.369 0.013-17.052 0.039-1.050-0.027-2.108 0.065-3.151-0.071l-0.191-0.048z"></path>
<path fill="#6d6a6b" d="M0.008 2.015c0.030-1.046 0.905-1.925 1.95-1.968 1.043 0.137 2.101 0.044 3.151 0.071 5.683-0.026 11.37 0.052 17.052-0.039 0.827-0.012 1.529 0.55 1.839 1.293v21.377c-0.225 0.523-0.613 0.974-1.113 1.251h-21.667c-0.707-0.411-1.249-1.18-1.219-2.017 0.005-6.656-0.008-13.312 0.007-19.968M1.583 0.404c-0.836 0.246-1.363 1.114-1.321 1.966 0.006 6.539-0.008 13.080 0.007 19.619-0.010 0.998 0.857 1.897 1.861 1.886 6.579 0.012 13.157 0.005 19.736 0.004 0.734 0.030 1.473-0.39 1.783-1.061 0.263-0.558 0.194-1.19 0.201-1.788-0.004-5.901-0.002-11.802-0.001-17.703-0.011-0.55 0.052-1.113-0.089-1.651-0.207-0.778-0.971-1.372-1.782-1.349-6.335-0.013-12.671 0.002-19.006-0.007-0.462 0.005-0.935-0.031-1.388 0.084z"></path>
<path fill="#fff" d="M1.583 0.404c0.453-0.115 0.926-0.080 1.388-0.084 6.335 0.010 12.671-0.006 19.006 0.007 0.811-0.024 1.575 0.57 1.782 1.349 0.141 0.538 0.078 1.101 0.089 1.651-0.001 5.901-0.002 11.802 0.001 17.703-0.007 0.598 0.062 1.23-0.201 1.788-0.31 0.671-1.049 1.091-1.783 1.061-6.579 0.001-13.157 0.008-19.736-0.004-1.004 0.012-1.87-0.888-1.861-1.886-0.015-6.539-0.001-13.080-0.007-19.619-0.042-0.852 0.485-1.72 1.321-1.966M1.83 0.905c-0.607 0.128-1.038 0.733-1.005 1.346-0.002 6.579-0.007 13.157 0.002 19.736-0.036 0.764 0.678 1.407 1.43 1.341 6.535-0.001 13.069 0 19.604 0 0.75 0.064 1.458-0.58 1.425-1.34 0.008-6.579 0.004-13.16 0.002-19.739 0.053-0.771-0.652-1.451-1.419-1.387-6.678 0.029-13.365-0.057-20.040 0.043z"></path>
<path fill="#fff" d="M9.551 2.317c3.361-0.34 6.792 0.008 10.006 1.056 0.378 0.144 0.869 0.179 1.081 0.574 0.618 0.99 1.163 2.114 1.097 3.311-0.034 0.73-0.469 1.492-1.175 1.749-1.465-0.48-2.906-1.046-4.357-1.574-0.974-0.4 0.007-1.723-0.587-2.374-0.561-0.403-1.295-0.384-1.954-0.428-1.613 0.067-3.284-0.206-4.855 0.246-1.053 0.389-0.076 1.788-0.665 2.431-1.346 0.604-2.773 1.021-4.147 1.567-0.7 0.399-1.3-0.453-1.508-1.034-0.385-1.466 0.33-2.999 1.2-4.148 1.87-0.738 3.865-1.166 5.863-1.377z"></path>
<path fill="#fff" d="M3.368 10.024c0.643-0.119 1.316-0.077 1.966-0.031 0.48 0.159 0.276 0.795 0.326 1.175-0.059 0.417 0.153 0.989-0.229 1.284-0.644 0.115-1.32 0.075-1.972 0.029-0.493-0.169-0.29-0.802-0.337-1.194 0.056-0.411-0.151-0.983 0.247-1.263z"></path>
<path fill="#fff" d="M7.176 10.032c0.639-0.139 1.316-0.076 1.966-0.044 0.437 0.075 0.355 0.617 0.368 0.942-0.081 0.493 0.204 1.198-0.266 1.534-0.652 0.089-1.327 0.074-1.982 0.011-0.466-0.19-0.266-0.797-0.316-1.188 0.052-0.409-0.138-0.96 0.229-1.255z"></path>
<path fill="#fff" d="M11.073 10.004c0.65-0.074 1.321-0.077 1.971 0.004 0.453 0.246 0.239 0.863 0.293 1.28-0.051 0.385 0.144 0.967-0.282 1.183-0.624 0.082-1.263 0.058-1.89 0.019-0.548-0.108-0.347-0.804-0.391-1.202 0.057-0.416-0.165-1.050 0.298-1.283z"></path>
<path fill="#fff" d="M14.875 10.004c0.65-0.075 1.321-0.076 1.972 0.001 0.459 0.236 0.236 0.867 0.295 1.282 0.008 0.472 0.106 1.33-0.624 1.225-0.663-0.072-2.058 0.358-1.937-0.747 0.091-0.562-0.246-1.388 0.293-1.761z"></path>
<path fill="#fff" d="M18.681 10.010c0.677-0.072 1.394-0.11 2.063 0.025 0.427 0.485 0.146 1.25 0.219 1.849 0.013 1.017-1.32 0.523-1.956 0.627-0.712 0.075-0.607-0.76-0.601-1.224 0.057-0.415-0.159-1.022 0.276-1.277z"></path>
<path fill="#fff" d="M5.381 13.354c0.678-0.001 1.461-0.177 2.082 0.107 0.213 0.693 0.164 1.521 0.030 2.23-0.531 0.377-1.288 0.115-1.908 0.179-0.689 0.038-0.52-0.811-0.539-1.257 0.053-0.411-0.164-1.070 0.336-1.259z"></path>
<path fill="#fff" d="M9.187 13.356c0.64-0.056 1.299-0.068 1.937 0.010 0.424 0.195 0.242 0.762 0.289 1.13-0.061 0.429 0.154 1.008-0.22 1.325-0.652 0.108-1.332 0.069-1.99 0.027-0.516-0.162-0.302-0.829-0.352-1.233 0.049-0.412-0.159-1.061 0.336-1.258z"></path>
<path fill="#fff" d="M12.996 13.362c0.663-0.056 1.357-0.096 2.011 0.025 0.476 0.451 0.169 1.234 0.252 1.824 0.048 1.059-1.315 0.56-1.962 0.664-0.731 0.088-0.633-0.782-0.621-1.261 0.051-0.41-0.157-1.041 0.32-1.252z"></path>
<path fill="#fff" d="M16.796 13.364c0.663-0.061 1.358-0.097 2.014 0.021 0.476 0.451 0.169 1.234 0.252 1.825 0.055 1.063-1.315 0.558-1.963 0.663-0.725 0.078-0.595-0.792-0.595-1.259 0.058-0.404-0.162-1.027 0.292-1.25z"></path>
<path fill="#fff" d="M3.498 16.711c0.649-0.024 1.325-0.091 1.962 0.042 0.4 0.562 0.122 1.365 0.188 2.021 0.005 0.661-0.822 0.46-1.251 0.494-0.4-0.053-1.025 0.156-1.23-0.311-0.083-0.571-0.039-1.155-0.033-1.731-0.010-0.227 0.121-0.482 0.365-0.514z"></path>
<path fill="#fff" d="M7.305 16.714c0.625-0.045 1.262-0.062 1.884 0.010 0.473 0.196 0.273 0.819 0.322 1.217-0.061 0.412 0.164 1.022-0.271 1.275-0.652 0.083-1.326 0.075-1.979 0.005-0.485-0.208-0.254-0.866-0.312-1.28 0.045-0.404-0.154-1.063 0.356-1.226z"></path>
<path fill="#fff" d="M11.108 16.72c0.677 0.006 1.482-0.204 2.089 0.128 0.246 0.678 0.173 1.514 0.049 2.219-0.539 0.391-1.328 0.127-1.965 0.183-0.634 0.006-0.49-0.772-0.505-1.192 0.059-0.434-0.179-1.123 0.333-1.339z"></path>
<path fill="#fff" d="M14.909 16.72c0.63-0.059 1.274-0.061 1.903 0.001 0.478 0.189 0.283 0.82 0.33 1.219-0.062 0.412 0.169 1.053-0.293 1.281-0.65 0.069-1.32 0.076-1.969-0.006-0.466-0.232-0.246-0.86-0.302-1.275 0.046-0.399-0.149-1.032 0.33-1.22z"></path>
<path fill="#fff" d="M18.816 16.706c0.664 0.057 1.527-0.253 2.066 0.207 0.131 0.695 0.15 1.478-0.013 2.166-0.555 0.37-1.34 0.124-1.983 0.17-0.664-0.034-0.438-0.867-0.481-1.308 0.042-0.41-0.157-1.131 0.411-1.234z"></path>
<path fill="#fff" d="M5.396 20.263c4.339-0.065 8.685-0.008 13.027-0.027 0.337-0.057 0.656 0.196 0.614 0.551-0.004 0.419 0.157 1.238-0.493 1.205-4.322 0.010-8.647 0.012-12.97-0.001-0.421 0.053-0.545-0.391-0.509-0.722 0.023-0.336-0.097-0.885 0.33-1.005z"></path>
<path fill="#005595" d="M1.83 0.905c6.675-0.1 13.362-0.014 20.040-0.043 0.766-0.064 1.472 0.615 1.419 1.387 0.001 6.58 0.006 13.161-0.002 19.739 0.033 0.76-0.675 1.404-1.425 1.34-6.535 0-13.069-0.001-19.604 0-0.752 0.065-1.466-0.577-1.43-1.341-0.010-6.579-0.005-13.157-0.002-19.736-0.033-0.613 0.398-1.218 1.005-1.346M9.551 2.317c-1.998 0.211-3.993 0.639-5.863 1.377-0.87 1.149-1.585 2.682-1.2 4.148 0.208 0.581 0.808 1.433 1.508 1.034 1.373-0.547 2.8-0.964 4.147-1.567 0.589-0.643-0.387-2.042 0.665-2.431 1.571-0.451 3.241-0.179 4.855-0.246 0.659 0.044 1.394 0.025 1.954 0.428 0.594 0.651-0.387 1.973 0.587 2.374 1.451 0.529 2.892 1.094 4.357 1.574 0.706-0.257 1.141-1.019 1.175-1.749 0.067-1.198-0.479-2.322-1.097-3.311-0.213-0.394-0.703-0.43-1.081-0.574-3.214-1.048-6.645-1.396-10.006-1.056M3.368 10.024c-0.398 0.28-0.191 0.852-0.247 1.263 0.048 0.392-0.156 1.025 0.337 1.194 0.652 0.046 1.328 0.087 1.972-0.029 0.383-0.296 0.17-0.867 0.229-1.284-0.050-0.38 0.154-1.016-0.326-1.175-0.65-0.046-1.324-0.088-1.966 0.031M7.176 10.032c-0.367 0.295-0.177 0.846-0.229 1.255 0.050 0.391-0.15 0.998 0.316 1.188 0.655 0.063 1.33 0.078 1.982-0.011 0.47-0.336 0.185-1.041 0.266-1.534-0.013-0.326 0.069-0.867-0.368-0.942-0.65-0.032-1.327-0.095-1.966 0.044M11.073 10.004c-0.463 0.233-0.241 0.867-0.298 1.283 0.044 0.398-0.157 1.094 0.391 1.202 0.627 0.039 1.267 0.063 1.89-0.019 0.425-0.216 0.23-0.798 0.282-1.183-0.055-0.417 0.159-1.034-0.293-1.28-0.65-0.081-1.321-0.077-1.971-0.004M14.875 10.004c-0.539 0.373-0.202 1.199-0.293 1.761-0.121 1.105 1.274 0.675 1.937 0.747 0.73 0.105 0.632-0.753 0.624-1.225-0.058-0.415 0.164-1.046-0.295-1.282-0.651-0.077-1.322-0.076-1.972-0.001M18.681 10.010c-0.435 0.255-0.219 0.863-0.276 1.277-0.006 0.463-0.11 1.299 0.601 1.224 0.636-0.105 1.969 0.39 1.956-0.627-0.072-0.599 0.208-1.364-0.219-1.849-0.669-0.135-1.385-0.097-2.063-0.025M5.381 13.354c-0.5 0.189-0.283 0.848-0.336 1.259 0.019 0.446-0.15 1.295 0.539 1.257 0.62-0.064 1.377 0.197 1.908-0.179 0.134-0.709 0.183-1.537-0.030-2.23-0.62-0.284-1.403-0.108-2.082-0.107M9.187 13.356c-0.495 0.197-0.288 0.846-0.336 1.258 0.050 0.404-0.164 1.072 0.352 1.233 0.658 0.042 1.338 0.081 1.99-0.027 0.374-0.317 0.159-0.896 0.22-1.325-0.046-0.368 0.135-0.935-0.289-1.13-0.638-0.077-1.296-0.065-1.937-0.010M12.996 13.362c-0.476 0.211-0.269 0.842-0.32 1.252-0.012 0.479-0.109 1.349 0.621 1.261 0.646-0.105 2.009 0.394 1.962-0.664-0.083-0.589 0.225-1.372-0.252-1.824-0.655-0.121-1.349-0.081-2.011-0.025M16.796 13.364c-0.454 0.223-0.234 0.846-0.292 1.25 0 0.467-0.13 1.338 0.595 1.259 0.648-0.105 2.017 0.4 1.963-0.663-0.083-0.59 0.225-1.373-0.252-1.825-0.656-0.119-1.351-0.082-2.014-0.021M3.498 16.711c-0.244 0.032-0.374 0.288-0.365 0.514-0.006 0.576-0.050 1.16 0.033 1.731 0.204 0.467 0.829 0.258 1.23 0.311 0.429-0.034 1.256 0.166 1.251-0.494-0.065-0.656 0.213-1.459-0.188-2.021-0.637-0.133-1.313-0.065-1.962-0.042M7.305 16.714c-0.511 0.163-0.311 0.822-0.356 1.226 0.058 0.413-0.172 1.072 0.312 1.28 0.653 0.070 1.327 0.078 1.979-0.005 0.435-0.253 0.21-0.863 0.271-1.275-0.049-0.398 0.151-1.021-0.322-1.217-0.623-0.071-1.259-0.055-1.884-0.010M11.108 16.72c-0.512 0.216-0.273 0.905-0.333 1.339 0.015 0.419-0.13 1.198 0.505 1.192 0.637-0.056 1.426 0.208 1.965-0.183 0.125-0.706 0.197-1.541-0.049-2.219-0.607-0.333-1.411-0.122-2.089-0.128M14.909 16.72c-0.479 0.188-0.284 0.821-0.33 1.22 0.056 0.415-0.164 1.043 0.302 1.275 0.649 0.082 1.319 0.075 1.969 0.006 0.462-0.228 0.232-0.869 0.293-1.281-0.048-0.399 0.147-1.030-0.33-1.219-0.63-0.062-1.274-0.061-1.903-0.001M18.816 16.706c-0.568 0.103-0.37 0.825-0.411 1.234 0.043 0.441-0.183 1.274 0.481 1.308 0.643-0.046 1.428 0.2 1.983-0.17 0.163-0.688 0.144-1.471 0.013-2.166-0.539-0.46-1.402-0.15-2.066-0.207M5.396 20.263c-0.428 0.12-0.308 0.669-0.33 1.005-0.037 0.331 0.088 0.776 0.509 0.722 4.322 0.013 8.647 0.011 12.97 0.001 0.65 0.033 0.49-0.785 0.493-1.205 0.042-0.355-0.277-0.608-0.614-0.551-4.341 0.019-8.688-0.038-13.027 0.027z"></path>
</svg>
