<!-- Generated by IcoMoon.io -->
<svg version="1.1" xmlns="http://www.w3.org/2000/svg" width="27" height="24" viewBox="0 0 27 24">
<title>information--living-street--g3</title>
<path fill="#fcfcfc" d="M0 0h26.715v24h-26.715v-24M1.452 0.494c-0.5 0.121-0.845 0.614-0.794 1.126 0.002 6.884-0.002 13.769 0.002 20.653-0.053 0.646 0.564 1.162 1.184 1.126 7.639 0.007 15.279 0.001 22.917 0.003 0.643 0.055 1.298-0.46 1.247-1.137 0.002-6.917 0.008-13.833-0.002-20.75 0.029-0.656-0.623-1.12-1.236-1.078-7.569-0.007-15.141 0.004-22.71-0.005-0.204 0.005-0.409 0.011-0.608 0.062z"></path>
<path fill="#3952a4" d="M1.452 0.494c0.199-0.051 0.404-0.056 0.608-0.062 7.569 0.010 15.141-0.001 22.71 0.005 0.612-0.041 1.265 0.422 1.236 1.078 0.010 6.917 0.004 13.833 0.002 20.75 0.051 0.677-0.604 1.192-1.247 1.137-7.639-0.002-15.279 0.003-22.917-0.003-0.62 0.036-1.237-0.48-1.184-1.126-0.004-6.884 0-13.769-0.002-20.653-0.051-0.513 0.294-1.006 0.794-1.126M10.24 2.067c-0.407 0.504-0.356 1.314-0.972 1.679-0.009 0.45-0.009 0.899-0.011 1.349 0.14 0.007 0.281 0.012 0.421 0.017 0.002 0.333 0 0.666 0.002 0.998 0.245 0 0.492 0.001 0.737 0.001 0.002-0.336 0-0.671 0.002-1.007 1.011 0 2.021 0 3.031 0 0.002 0.345 0 0.691 0.002 1.035 0.245 0 0.492 0 0.737 0.001 0.002-0.341-0.001-0.681-0.001-1.021 0.088-0.008 0.263-0.023 0.351-0.030-0.053-0.526 0.166-1.157-0.244-1.579-0.317-0.412-0.33-0.959-0.555-1.414-1.158-0.093-2.344-0.108-3.501-0.029M17.31 5.257c-0.395 0.543 0.216 1.058 0.736 1.124-0.682 0.607-1.364 1.213-2.050 1.815 0.024 0.144 0.048 0.289 0.072 0.433 0.851-0.081 1.245-0.984 1.895-1.436 0.366 0.379 0.641 0.832 0.934 1.267-0.708 0.155-1.511 0.069-2.122 0.519 0.317 0.399 0.659 0.776 1.006 1.148 0.156-0.102 0.305-0.215 0.448-0.334-0.123-0.171-0.249-0.339-0.371-0.508 0.252 0.002 0.505 0.004 0.759 0.005-0.421 0.616-0.333 1.397-0.338 2.102-0.018 0.346 0.363 0.319 0.603 0.327 0.122-0.538 0.008-1.097 0.111-1.633 0.324-0.496 0.862-0.818 1.164-1.331 0.237-0.43-0.114-0.854-0.363-1.184-0.451-0.552-0.793-1.202-1.355-1.655 0.172-0.649-0.678-1.252-1.128-0.659M6.983 8.942c-0.308 0.559 0.004 1.197 0.464 1.558 0.004 0.121 0.008 0.241 0.012 0.362-0.496 0.121-1.019 0.255-1.33 0.696-0.631 0.784-1.651 1.328-1.86 2.379-0.215 0.754-0.571 1.476-0.599 2.271 0.274 0.084 0.71 0.344 0.875-0.033 0.357-0.76 0.611-1.565 0.931-2.342 0.198-0.547 0.774-0.795 1.185-1.159-0.179 0.907-0.094 1.906-0.611 2.712-1.018 1.886-2.024 3.779-3.029 5.672 0.563 0.25 1.095 0.902 1.759 0.671 0.38-0.252 0.164-0.749-0.090-1.013 0.805-1.465 1.62-2.922 2.431-4.384 0.063-0.004 0.19-0.013 0.253-0.017 0.961 1.807 1.891 3.63 2.841 5.442 0.445-0.224 0.907-0.414 1.346-0.648 0.325-0.13 0.299-0.61 0.119-0.85-0.226-0.059-0.46-0.050-0.692-0.060-0.788-1.539-1.555-3.088-2.35-4.624-0.516-0.782-0.127-1.744-0.059-2.597 0.415 0.425 0.404 1.213 1.056 1.387 0.845 0.321 1.611 0.896 2.53 0.983 0.14-0.267 0.402-0.645 0.103-0.902-0.661-0.43-1.451-0.616-2.13-1.015-0.599-0.747-0.634-1.932-1.558-2.412-0.014-0.132-0.028-0.265-0.042-0.397 0.579-0.306 1.046-0.987 0.716-1.643-0.384-0.918-1.857-0.94-2.27-0.035M15.574 9.061c-0.797 0.063-1.513 0.765-1.505 1.581-0.023 0.885 0.808 1.643 1.678 1.617 0.907 0.026 1.763-0.806 1.668-1.728-0.059-0.896-0.965-1.579-1.841-1.47M21.002 9.070c-0.761 0.141-1.373 0.877-1.309 1.659 0.043 0.851 0.856 1.53 1.693 1.508 0.93 0.010 1.792-0.867 1.641-1.811-0.108-0.937-1.127-1.576-2.025-1.356M19.593 13.742c-1.785 0.2-3.395 1.501-3.929 3.221-0.809 2.323 0.626 5.054 2.949 5.79 2.388 0.907 5.333-0.475 6.11-2.919 0.49-1.412 0.226-3.054-0.685-4.24-1.005-1.363-2.774-2.076-4.445-1.853z"></path>
<path fill="#fff" d="M10.24 2.067c1.158-0.078 2.344-0.064 3.501 0.029 0.225 0.455 0.238 1.002 0.555 1.414 0.411 0.422 0.191 1.053 0.244 1.579-0.088 0.008-0.263 0.023-0.351 0.030 0 0.34 0.003 0.68 0.001 1.021-0.245-0.001-0.492-0.001-0.737-0.001-0.002-0.344 0-0.69-0.002-1.035-1.010 0-2.020 0-3.031 0-0.002 0.336 0 0.671-0.002 1.007-0.245 0-0.492-0.001-0.737-0.001-0.002-0.332 0-0.665-0.002-0.998-0.14-0.005-0.281-0.011-0.421-0.017 0.002-0.45 0.002-0.899 0.011-1.349 0.616-0.365 0.565-1.175 0.972-1.679M10.487 2.397c-0.119 0.372-0.237 0.746-0.351 1.12 1.197-0.001 2.393 0.001 3.59 0-0.096-0.361-0.188-0.721-0.279-1.083-0.987-0.008-1.973-0.033-2.96-0.037M9.804 4.161c-0.247 0.228 0.083 0.645 0.356 0.45 0.348-0.192-0.055-0.738-0.356-0.45M13.605 4.157c-0.261 0.266 0.15 0.665 0.416 0.416 0.248-0.268-0.14-0.672-0.416-0.416z"></path>
<path fill="#fff" d="M12.528 2.638c0.254-0.172 0.646 0.009 0.674 0.316 0.052 0.345-0.403 0.606-0.681 0.399-0.276-0.142-0.264-0.574 0.007-0.715z"></path>
<path fill="#fff" d="M17.31 5.257c0.451-0.593 1.3 0.010 1.128 0.659 0.563 0.453 0.905 1.103 1.355 1.655 0.249 0.33 0.599 0.754 0.363 1.184-0.302 0.514-0.841 0.835-1.164 1.331-0.103 0.536 0.011 1.096-0.111 1.633-0.24-0.008-0.621 0.020-0.603-0.327 0.004-0.706-0.084-1.487 0.338-2.102-0.254-0.001-0.507-0.003-0.759-0.005 0.123 0.169 0.249 0.338 0.371 0.508-0.143 0.119-0.292 0.232-0.448 0.334-0.346-0.371-0.688-0.749-1.006-1.148 0.611-0.45 1.414-0.364 2.122-0.519-0.293-0.435-0.568-0.888-0.934-1.267-0.651 0.452-1.044 1.354-1.895 1.436-0.024-0.144-0.048-0.289-0.072-0.433 0.686-0.602 1.368-1.208 2.050-1.815-0.52-0.066-1.132-0.581-0.736-1.124z"></path>
<path fill="#fff" d="M6.983 8.942c0.413-0.906 1.885-0.883 2.27 0.035 0.33 0.656-0.137 1.337-0.716 1.643 0.014 0.132 0.028 0.265 0.042 0.397 0.924 0.48 0.959 1.665 1.558 2.412 0.679 0.4 1.468 0.585 2.13 1.015 0.299 0.257 0.037 0.635-0.103 0.902-0.92-0.087-1.685-0.661-2.53-0.983-0.652-0.174-0.641-0.962-1.056-1.387-0.068 0.852-0.457 1.815 0.059 2.597 0.795 1.536 1.562 3.085 2.35 4.624 0.231 0.010 0.466 0.001 0.692 0.060 0.179 0.24 0.205 0.72-0.119 0.85-0.439 0.235-0.9 0.425-1.346 0.648-0.95-1.811-1.88-3.635-2.841-5.442-0.063 0.004-0.19 0.013-0.253 0.017-0.811 1.462-1.627 2.919-2.431 4.384 0.254 0.264 0.47 0.761 0.090 1.013-0.665 0.231-1.197-0.421-1.759-0.671 1.005-1.893 2.011-3.786 3.029-5.672 0.517-0.806 0.432-1.805 0.611-2.712-0.411 0.364-0.987 0.611-1.185 1.159-0.319 0.778-0.573 1.582-0.931 2.342-0.165 0.377-0.602 0.116-0.875 0.033 0.028-0.795 0.384-1.517 0.599-2.271 0.21-1.051 1.229-1.595 1.86-2.379 0.312-0.441 0.834-0.576 1.33-0.696-0.004-0.121-0.008-0.241-0.012-0.362-0.459-0.362-0.772-0.999-0.464-1.558z"></path>
<path fill="#fff" d="M15.574 9.061c0.875-0.109 1.782 0.574 1.841 1.47 0.094 0.922-0.761 1.754-1.668 1.728-0.87 0.026-1.701-0.732-1.678-1.617-0.008-0.817 0.708-1.518 1.505-1.581z"></path>
<path fill="#fff" d="M21.002 9.070c0.898-0.219 1.918 0.419 2.025 1.356 0.151 0.945-0.711 1.821-1.641 1.811-0.837 0.022-1.65-0.657-1.693-1.508-0.064-0.782 0.547-1.518 1.309-1.659z"></path>
<path fill="#fff" d="M19.593 13.742c1.671-0.224 3.44 0.49 4.445 1.853 0.911 1.186 1.175 2.828 0.685 4.24-0.776 2.445-3.722 3.826-6.11 2.919-2.324-0.736-3.759-3.468-2.949-5.79 0.534-1.72 2.144-3.021 3.929-3.221M19.696 13.946c-1.462 0.136-2.822 1.049-3.5 2.351-0.795 1.467-0.648 3.385 0.377 4.704 1.023 1.395 2.898 2.084 4.582 1.688 1.507-0.316 2.803-1.468 3.286-2.931 0.48-1.391 0.192-3.010-0.734-4.153-0.937-1.193-2.505-1.833-4.011-1.659z"></path>
<path fill="#fff" d="M19.583 15.245c1.784-0.382 3.677 1.054 3.749 2.884 0.185 1.837-1.525 3.541-3.359 3.37-1.84-0.038-3.344-1.923-2.951-3.727 0.22-1.267 1.292-2.322 2.561-2.527M17.815 17.759c0.19 0.010 0.379 0.017 0.569 0.025 0.115-0.491 1.023-0.522 0.895 0.067-0.394 0.57-0.964 0.998-1.427 1.514-0.001 0.207-0.002 0.416-0.003 0.624 0.712 0 1.424 0 2.136 0-0.001-0.206 0-0.412 0-0.617-0.42 0.001-0.841 0.001-1.26-0.002 0.478-0.578 1.466-1.081 1.147-1.975-0.386-0.974-1.997-0.681-2.057 0.364M21.213 16.866c-0.837 0.352-0.749 1.483-0.661 2.231 0.091 0.897 1.371 1.255 1.931 0.567 0.446-0.581 0.357-1.389 0.214-2.062-0.132-0.642-0.896-0.989-1.483-0.735z"></path>
<path fill="#fff" d="M21.446 17.437c0.848-0.226 0.785 0.931 0.707 1.46 0.055 0.595-0.923 0.697-0.96 0.096-0.042-0.498-0.194-1.205 0.253-1.555z"></path>
<path fill="#3a54a5" d="M10.487 2.397c0.987 0.004 1.973 0.029 2.96 0.037 0.091 0.362 0.184 0.722 0.279 1.083-1.197 0.001-2.393-0.001-3.59 0 0.114-0.374 0.231-0.747 0.351-1.12M12.528 2.638c-0.27 0.14-0.282 0.572-0.007 0.715 0.278 0.207 0.733-0.053 0.681-0.399-0.028-0.307-0.42-0.488-0.674-0.316z"></path>
<path fill="#3a54a5" d="M9.804 4.161c0.301-0.289 0.704 0.257 0.356 0.45-0.274 0.195-0.603-0.222-0.356-0.45z"></path>
<path fill="#3a54a5" d="M13.605 4.157c0.276-0.256 0.664 0.148 0.416 0.416-0.266 0.249-0.677-0.15-0.416-0.416z"></path>
<path fill="#ed1c24" d="M19.696 13.946c1.505-0.174 3.073 0.466 4.011 1.659 0.926 1.142 1.214 2.762 0.734 4.153-0.483 1.463-1.779 2.615-3.286 2.931-1.683 0.396-3.559-0.292-4.582-1.688-1.025-1.319-1.172-3.237-0.377-4.704 0.678-1.302 2.038-2.215 3.5-2.351M19.583 15.245c-1.268 0.205-2.34 1.26-2.561 2.527-0.393 1.804 1.111 3.689 2.951 3.727 1.834 0.172 3.544-1.532 3.359-3.37-0.072-1.83-1.965-3.267-3.749-2.884z"></path>
<path fill="#030303" d="M17.815 17.759c0.060-1.045 1.671-1.338 2.057-0.364 0.319 0.895-0.669 1.398-1.147 1.975 0.419 0.003 0.839 0.003 1.26 0.002 0 0.205-0.001 0.411 0 0.617-0.712 0-1.424 0-2.136 0 0.001-0.208 0.002-0.417 0.003-0.624 0.463-0.516 1.033-0.944 1.427-1.514 0.128-0.59-0.78-0.558-0.895-0.067-0.19-0.008-0.379-0.015-0.569-0.025z"></path>
<path fill="#030303" d="M21.213 16.866c0.588-0.254 1.351 0.093 1.483 0.735 0.143 0.673 0.232 1.481-0.214 2.062-0.56 0.689-1.84 0.33-1.931-0.567-0.088-0.747-0.176-1.879 0.661-2.231M21.446 17.437c-0.447 0.35-0.295 1.057-0.253 1.555 0.037 0.602 1.015 0.5 0.96-0.096 0.078-0.529 0.141-1.685-0.707-1.46z"></path>
</svg>
