<?xml version="1.0" encoding="utf-8"?>
<!-- Generated by IcoMoon.io -->
<!DOCTYPE svg PUBLIC "-//W3C//DTD SVG 1.1//EN" "http://www.w3.org/Graphics/SVG/1.1/DTD/svg11.dtd">
<svg version="1.1" xmlns="http://www.w3.org/2000/svg" xmlns:xlink="http://www.w3.org/1999/xlink" width="24" height="24" viewBox="0 0 24 24">
<path fill="#0d7abf" d="M0 0.264h24v23.268c-0.191-0.044-0.27 0.025-0.235 0.204h-23.387c-0.094-0.158-0.222-0.29-0.378-0.388v-23.085M1.159 21.599c7.238 0.003 14.476 0.003 21.716 0-3.616-6.268-7.233-12.534-10.854-18.799-3.626 6.264-7.245 12.531-10.862 18.799z"></path>
<path fill="#fff" d="M1.159 21.599c3.617-6.268 7.236-12.535 10.862-18.799 3.621 6.265 7.238 12.531 10.854 18.799-7.24 0.003-14.478 0.003-21.716 0M9.12 12.684c-0.319 0.327-0.098 0.814 0.256 1.006-0.178 0.622-0.371 1.24-0.55 1.861-1.031-0.393-2.3 0.071-2.772 1.081-0.551 1.048-0.045 2.469 1.040 2.938 1.038 0.526 2.417 0.011 2.891-1.043 0.458-0.907 0.15-2.060-0.641-2.677 0.017-0.058 0.050-0.174 0.067-0.232 0.823 0.564 1.648 1.127 2.469 1.698-0.046 0.378 0.044 0.807 0.397 1.014 0.294 0.236 0.8-0.040 0.948 0.405l-0.297 0.021c0 0.066-0.001 0.198-0.003 0.264 0.16 0.028 0.319 0.057 0.479 0.087 0.1-0.022 0.302-0.067 0.402-0.090-0.001-0.067-0.004-0.2-0.007-0.266-0.087 0-0.264-0.001-0.351-0.001-0.067-0.136-0.135-0.273-0.2-0.409 0.187-0.191 0.282-0.516 0.575-0.568 0.102 0.6 0.375 1.192 0.878 1.557 0.779 0.615 1.971 0.585 2.719-0.069 0.911-0.723 1.042-2.196 0.27-3.066-0.587-0.731-1.635-0.956-2.5-0.638-0.244-0.459-0.487-0.918-0.742-1.37 0.063-0.164 0.128-0.326 0.195-0.488 0.318-0.066 0.538-0.293 0.641-0.597-0.723-0.032-1.449-0.040-2.173-0.005-0.013 0.057-0.040 0.169-0.054 0.224 0.322 0.124 0.662 0.194 0.994 0.284-0.080 0.189-0.16 0.377-0.24 0.567-1.316-0.001-2.632-0.004-3.949 0.001 0.191-0.411 0.062-0.818-0.284-1.088 0.328-0.003 0.655-0.004 0.984-0.005-0.001-0.193-0.001-0.385-0.001-0.579-0.472 0.054-1.047-0.15-1.441 0.183M5.113 17.788c0.161 0 0.323 0.001 0.484 0.004-0.003-0.091-0.009-0.274-0.012-0.365-0.152 0-0.302 0-0.454 0.001-0.005 0.12-0.012 0.24-0.018 0.36M10.451 17.425c0.004 0.129 0.007 0.258 0.009 0.386 0.215 0 0.43 0 0.645 0 0.001-0.128 0.003-0.256 0.004-0.384-0.219-0.001-0.438-0.001-0.658-0.003M18.468 17.424c0.003 0.099 0.007 0.294 0.009 0.392 0.289 0 0.578 0 0.866 0 0.003-0.098 0.008-0.291 0.011-0.389-0.297 0-0.591 0-0.886-0.003M3.178 20.645c0 0.135-0.001 0.269-0.003 0.404 0.332-0.003 0.665-0.004 0.997-0.001-0.001-0.135-0.003-0.268-0.003-0.401-0.331 0.001-0.661 0.001-0.992-0.001M6.215 20.645c-0.001 0.135-0.003 0.269-0.004 0.404 0.332-0.003 0.665-0.004 0.996-0.001-0.001-0.135-0.001-0.268-0.003-0.401-0.33 0.001-0.659 0.001-0.989-0.001M9.251 20.645c-0.001 0.135-0.003 0.269-0.004 0.404 0.332-0.003 0.666-0.004 0.998-0.001-0.001-0.135-0.003-0.268-0.003-0.401-0.331 0.001-0.662 0.001-0.992-0.001M12.278 20.645c-0.001 0.135-0.003 0.269-0.003 0.404 0.335-0.003 0.67-0.004 1.005-0.001-0.001-0.135-0.003-0.268-0.004-0.401-0.332 0.001-0.666 0.001-0.998-0.001M15.313 20.645c-0.001 0.135-0.001 0.269-0.003 0.404 0.335-0.003 0.669-0.004 1.004-0.001-0.001-0.135-0.003-0.268-0.003-0.401-0.332 0.001-0.666 0.001-0.998-0.001M18.349 20.645c-0.001 0.135-0.003 0.269-0.004 0.404 0.335-0.003 0.67-0.004 1.005-0.001-0.003-0.135-0.003-0.268-0.004-0.401-0.332 0.001-0.665 0.001-0.997-0.001M4.692 20.648c0 0.099-0.001 0.299-0.003 0.398 0.335 0 0.67 0 1.005 0 0-0.1-0.001-0.298-0.001-0.398-0.334 0-0.667 0-1.001 0M7.726 20.648c0 0.099-0.001 0.299-0.003 0.398 0.335 0 0.67 0 1.005 0 0-0.1-0.001-0.299-0.001-0.398-0.334 0-0.667 0-1.001 0M10.762 20.648c-0.001 0.099-0.001 0.299-0.003 0.398 0.336 0 0.671 0 1.006 0 0-0.1-0.001-0.299-0.001-0.398-0.335 0-0.669 0-1.002 0M13.792 20.648c0 0.099-0.001 0.299-0.001 0.398 0.336 0 0.674 0 1.011 0-0.001-0.1-0.001-0.299-0.001-0.398-0.336 0-0.673 0-1.009 0M16.828 20.648c-0.001 0.099-0.003 0.299-0.003 0.398 0.338 0 0.675 0 1.013 0 0-0.1-0.001-0.299-0.001-0.398-0.336 0-0.673 0-1.009 0M19.862 20.648c0 0.099-0.001 0.299-0.001 0.398 0.334 0 0.669 0 1.004 0 0-0.1 0-0.299-0.001-0.398-0.334 0-0.667 0-1.001 0z"></path>
<path fill="#fff" d="M9.687 14.682c1.309 0 2.619-0.001 3.93 0-0.28 0.684-0.559 1.369-0.835 2.056-0.251 0.051-0.429-0.050-0.518-0.294 0.074-0.004 0.223-0.013 0.297-0.017 0.001-0.067 0.003-0.2 0.003-0.268-0.153-0.024-0.307-0.047-0.46-0.073-0.142 0.025-0.285 0.050-0.427 0.076l0.011 0.268c0.090 0 0.266 0.001 0.356 0.003 0.080 0.166 0.162 0.334 0.24 0.502-0.93-0.571-1.808-1.222-2.71-1.836 0.029-0.104 0.086-0.314 0.115-0.418z"></path>
<path fill="#fff" d="M14.196 14.792c0.182 0.339 0.36 0.68 0.538 1.021-0.513 0.392-0.815 0.977-0.923 1.605-0.248-0.059-0.355-0.294-0.485-0.484 0.294-0.712 0.58-1.428 0.87-2.142z"></path>
<path fill="#fff" d="M6.796 16.679c0.411-0.571 1.201-0.733 1.844-0.496-0.095 0.568-0.401 1.059-0.894 1.364 0.095 0.14 0.194 0.348 0.398 0.229 0.555-0.167 0.886-0.684 1.022-1.221 0.373 0.506 0.509 1.212 0.178 1.774-0.382 0.745-1.42 1.023-2.123 0.566-0.754-0.427-0.971-1.538-0.425-2.215z"></path>
<path fill="#fff" d="M15.518 16.124c0.748-0.195 1.623 0.145 1.909 0.891 0.376 0.828-0.179 1.89-1.069 2.064-0.853 0.227-1.724-0.429-1.876-1.27 0.566-0.034 1.138 0.046 1.698-0.046 0.013-0.051 0.040-0.156 0.053-0.207-0.203-0.493-0.513-0.936-0.715-1.432z"></path>
<path fill="#fff" d="M14.486 17.375c0.095-0.372 0.281-0.709 0.558-0.977 0.178 0.326 0.349 0.654 0.522 0.982-0.36 0-0.72 0-1.080-0.005z"></path>
<path fill="#fff" d="M12.462 17.087c0.384-0.24 0.931 0.124 0.858 0.571-0.025 0.43-0.588 0.678-0.922 0.404-0.335-0.228-0.298-0.793 0.063-0.975z"></path>
<path fill="#fff" d="M0 23.349c0.157 0.098 0.285 0.229 0.378 0.388h-0.378v-0.388z"></path>
<path fill="#fff" d="M23.765 23.736c-0.036-0.179 0.044-0.248 0.235-0.204v0.204h-0.235z"></path>
<path fill="#030303" d="M9.12 12.684c0.394-0.334 0.969-0.129 1.441-0.183 0 0.194 0 0.386 0.001 0.579-0.328 0.001-0.655 0.003-0.984 0.005 0.345 0.27 0.475 0.676 0.284 1.088 1.317-0.005 2.633-0.003 3.949-0.001 0.080-0.19 0.16-0.378 0.24-0.567-0.332-0.090-0.673-0.16-0.994-0.284 0.015-0.055 0.041-0.167 0.054-0.224 0.724-0.034 1.451-0.026 2.173 0.005-0.103 0.305-0.323 0.531-0.641 0.597-0.067 0.162-0.132 0.324-0.195 0.488 0.256 0.452 0.498 0.911 0.742 1.37 0.865-0.318 1.913-0.092 2.5 0.638 0.771 0.87 0.641 2.343-0.27 3.066-0.748 0.654-1.94 0.683-2.719 0.069-0.504-0.365-0.777-0.957-0.878-1.557-0.293 0.053-0.388 0.377-0.575 0.568 0.066 0.136 0.133 0.273 0.2 0.409 0.087 0 0.264 0.001 0.351 0.001 0.003 0.066 0.005 0.199 0.007 0.266-0.1 0.022-0.302 0.067-0.402 0.090-0.16-0.030-0.319-0.059-0.479-0.087 0.001-0.066 0.003-0.198 0.003-0.264l0.297-0.021c-0.148-0.444-0.654-0.169-0.948-0.405-0.353-0.207-0.443-0.636-0.397-1.014-0.82-0.571-1.646-1.134-2.469-1.698-0.017 0.058-0.050 0.174-0.067 0.232 0.791 0.617 1.098 1.77 0.641 2.677-0.473 1.054-1.853 1.569-2.891 1.043-1.085-0.469-1.592-1.89-1.040-2.938 0.472-1.010 1.741-1.474 2.772-1.081 0.179-0.621 0.372-1.238 0.55-1.861-0.353-0.193-0.575-0.679-0.256-1.006M9.687 14.682c-0.029 0.104-0.086 0.314-0.115 0.418 0.902 0.613 1.78 1.265 2.71 1.836-0.078-0.169-0.16-0.336-0.24-0.502-0.090-0.001-0.266-0.003-0.356-0.003l-0.011-0.268c0.142-0.026 0.285-0.051 0.427-0.076 0.153 0.025 0.307 0.049 0.46 0.073 0 0.067-0.001 0.2-0.003 0.268-0.074 0.004-0.223 0.013-0.297 0.017 0.090 0.244 0.268 0.345 0.518 0.294 0.276-0.687 0.555-1.371 0.835-2.056-1.311-0.001-2.62 0-3.93 0M14.196 14.792c-0.29 0.713-0.576 1.429-0.87 2.142 0.131 0.19 0.237 0.425 0.485 0.484 0.108-0.628 0.41-1.213 0.923-1.605-0.178-0.34-0.356-0.682-0.538-1.021M6.796 16.679c-0.546 0.678-0.33 1.788 0.425 2.215 0.703 0.458 1.741 0.179 2.123-0.566 0.331-0.562 0.195-1.267-0.178-1.774-0.136 0.537-0.467 1.054-1.022 1.221-0.204 0.119-0.303-0.090-0.398-0.229 0.493-0.305 0.799-0.795 0.894-1.364-0.642-0.237-1.432-0.075-1.844 0.496M15.518 16.124c0.202 0.496 0.512 0.939 0.715 1.432-0.013 0.051-0.040 0.156-0.053 0.207-0.56 0.092-1.133 0.012-1.698 0.046 0.153 0.841 1.023 1.497 1.876 1.27 0.89-0.174 1.445-1.236 1.069-2.064-0.286-0.746-1.162-1.087-1.909-0.891M14.486 17.375c0.36 0.005 0.72 0.005 1.080 0.005-0.173-0.328-0.344-0.657-0.522-0.982-0.277 0.268-0.463 0.605-0.558 0.977M12.462 17.087c-0.361 0.182-0.398 0.746-0.063 0.975 0.334 0.274 0.897 0.026 0.922-0.404 0.073-0.447-0.475-0.811-0.858-0.571z"></path>
<path fill="#030303" d="M5.113 17.788c0.007-0.12 0.013-0.24 0.018-0.36 0.152-0.001 0.302-0.001 0.454-0.001 0.003 0.091 0.009 0.274 0.012 0.365-0.161-0.003-0.323-0.004-0.484-0.004z"></path>
<path fill="#030303" d="M10.451 17.425c0.22 0.001 0.439 0.001 0.658 0.003-0.001 0.128-0.003 0.256-0.004 0.384-0.215 0-0.43 0-0.645 0-0.003-0.128-0.005-0.257-0.009-0.386z"></path>
<path fill="#030303" d="M18.468 17.424c0.295 0.003 0.589 0.003 0.886 0.003-0.003 0.098-0.008 0.291-0.011 0.389-0.289 0-0.578 0-0.866 0-0.003-0.098-0.007-0.293-0.009-0.392z"></path>
<path fill="#030303" d="M3.178 20.645c0.331 0.003 0.661 0.003 0.992 0.001 0 0.133 0.001 0.266 0.003 0.401-0.332-0.003-0.665-0.001-0.997 0.001 0.001-0.135 0.003-0.269 0.003-0.404z"></path>
<path fill="#030303" d="M6.215 20.645c0.33 0.003 0.659 0.003 0.989 0.001 0.001 0.133 0.001 0.266 0.003 0.401-0.331-0.003-0.663-0.001-0.996 0.001 0.001-0.135 0.003-0.269 0.004-0.404z"></path>
<path fill="#030303" d="M9.251 20.645c0.33 0.003 0.661 0.003 0.992 0.001 0 0.133 0.001 0.266 0.003 0.401-0.332-0.003-0.666-0.001-0.998 0.001 0.001-0.135 0.003-0.269 0.004-0.404z"></path>
<path fill="#030303" d="M12.278 20.645c0.332 0.003 0.666 0.003 0.998 0.001 0.001 0.133 0.003 0.266 0.004 0.401-0.335-0.003-0.67-0.001-1.005 0.001 0-0.135 0.001-0.269 0.003-0.404z"></path>
<path fill="#030303" d="M15.313 20.645c0.332 0.003 0.666 0.003 0.998 0.001 0 0.133 0.001 0.266 0.003 0.401-0.335-0.003-0.669-0.001-1.004 0.001 0.001-0.135 0.001-0.269 0.003-0.404z"></path>
<path fill="#030303" d="M18.349 20.645c0.332 0.003 0.665 0.003 0.997 0.001 0.001 0.133 0.001 0.266 0.004 0.401-0.335-0.003-0.67-0.001-1.005 0.001 0.001-0.135 0.003-0.269 0.004-0.404z"></path>
<path fill="#030303" d="M4.692 20.648c0.334 0 0.667 0 1.001 0 0 0.1 0.001 0.298 0.001 0.398-0.335 0-0.67 0-1.005 0 0.001-0.099 0.003-0.299 0.003-0.398z"></path>
<path fill="#030303" d="M7.726 20.648c0.334 0 0.667 0 1.001 0 0 0.099 0.001 0.298 0.001 0.398-0.335 0-0.67 0-1.005 0 0.001-0.099 0.003-0.299 0.003-0.398z"></path>
<path fill="#030303" d="M10.762 20.648c0.334 0 0.667 0 1.002 0 0 0.099 0.001 0.298 0.001 0.398-0.335 0-0.67 0-1.006 0 0.001-0.099 0.001-0.299 0.003-0.398z"></path>
<path fill="#030303" d="M13.792 20.648c0.336 0 0.673 0 1.009 0 0 0.099 0 0.298 0.001 0.398-0.338 0-0.675 0-1.011 0 0-0.099 0.001-0.299 0.001-0.398z"></path>
<path fill="#030303" d="M16.828 20.648c0.336 0 0.673 0 1.009 0 0 0.099 0.001 0.298 0.001 0.398-0.338 0-0.675 0-1.013 0 0-0.099 0.001-0.299 0.003-0.398z"></path>
<path fill="#030303" d="M19.862 20.648c0.334 0 0.667 0 1.001 0 0.001 0.099 0.001 0.298 0.001 0.398-0.335 0-0.67 0-1.004 0 0-0.099 0.001-0.299 0.001-0.398z"></path>
</svg>
