<!-- Generated by IcoMoon.io -->
<svg version="1.1" xmlns="http://www.w3.org/2000/svg" width="32" height="24" viewBox="0 0 32 24">
<title>information--disabled-persons--g1</title>
<path fill="#04559b" d="M0 0h31.937v24h-31.937v-24M15.375 2.536c-1.897 0.559-0.833 3.67 1.030 2.905 1.905-0.559 0.835-3.677-1.030-2.905M14.158 6.219c-0.574 0.393-0.559 1.172-0.45 1.784 0.253 1.459 0.361 2.937 0.552 4.405 0.087 0.591 0.257 1.323 0.903 1.533 1.678 0.467 3.53-0.121 5.17 0.248 0.758 1.659 0.905 3.575 1.582 5.282 0.336 0.639 1.111 0.799 1.771 0.797-0.76-1.767-1.317-3.619-1.574-5.528-0.146-0.767-0.242-1.805-1.113-2.088-1.306-0.384-2.685-0.17-4.021-0.127-0.053-0.412-0.104-0.822-0.155-1.234 1.487-0.019 2.974 0.019 4.462-0.021-0.843-1.74-3.088-0.981-4.609-1.060-0.157-1.062-0.255-2.134-0.429-3.194-0.142-0.909-1.37-1.37-2.088-0.797M9.549 16.063c-0.068 3.156 3.373 5.688 6.372 4.764 2.546-0.626 4.28-3.426 3.602-5.983-0.425 0-0.852-0.002-1.277-0.004 0.559 1.774-0.334 3.827-2.054 4.562-2.003 1.039-4.713-0.204-5.248-2.391-0.578-1.924 0.624-4.099 2.546-4.664-0.051-0.414-0.102-0.828-0.155-1.242-2.171 0.603-3.882 2.653-3.785 4.957z"></path>
<path fill="#fff" d="M15.375 2.536c1.865-0.773 2.935 2.345 1.030 2.905-1.863 0.765-2.927-2.345-1.030-2.905z"></path>
<path fill="#fff" d="M14.158 6.219c0.718-0.573 1.946-0.111 2.088 0.797 0.174 1.060 0.272 2.132 0.429 3.194 1.521 0.079 3.766-0.68 4.609 1.060-1.487 0.040-2.974 0.002-4.462 0.021 0.051 0.412 0.102 0.822 0.155 1.234 1.336-0.043 2.716-0.257 4.021 0.127 0.871 0.283 0.968 1.321 1.113 2.088 0.257 1.909 0.814 3.761 1.574 5.528-0.66 0.002-1.434-0.159-1.771-0.797-0.677-1.706-0.824-3.623-1.582-5.282-1.64-0.369-3.492 0.219-5.17-0.248-0.646-0.21-0.816-0.941-0.903-1.533-0.191-1.468-0.299-2.946-0.552-4.405-0.11-0.612-0.125-1.391 0.45-1.784z"></path>
<path fill="#fff" d="M9.549 16.063c-0.096-2.304 1.614-4.354 3.785-4.957 0.053 0.414 0.104 0.828 0.155 1.242-1.922 0.565-3.124 2.74-2.546 4.664 0.535 2.186 3.245 3.43 5.248 2.391 1.72-0.735 2.614-2.787 2.054-4.562 0.425 0.002 0.852 0.004 1.277 0.004 0.678 2.557-1.056 5.357-3.602 5.983-2.999 0.924-6.44-1.608-6.372-4.764z"></path>
</svg>
