<?xml version="1.0" encoding="utf-8"?>
<!-- Generated by IcoMoon.io -->
<!DOCTYPE svg PUBLIC "-//W3C//DTD SVG 1.1//EN" "http://www.w3.org/Graphics/SVG/1.1/DTD/svg11.dtd">
<svg version="1.1" xmlns="http://www.w3.org/2000/svg" xmlns:xlink="http://www.w3.org/1999/xlink" width="24" height="24" viewBox="0 0 24 24">
<path fill="#fff" d="M21.618 2.162h-19.475c-1.129 0-2.047 0.919-2.047 2.047v15.58c0 1.129 0.919 2.047 2.047 2.047h19.475c1.129 0 2.047-0.919 2.047-2.047v-15.58c0-1.129-0.919-2.047-2.047-2.047z"></path>
<path fill="#00674c" d="M2.143 21.25c-0.388 0-0.754-0.152-1.031-0.43s-0.43-0.643-0.43-1.031v-15.58c0-0.388 0.152-0.754 0.43-1.031s0.644-0.43 1.031-0.43h19.475c0.388 0 0.754 0.152 1.031 0.43s0.43 0.643 0.43 1.031v15.58c0 0.388-0.152 0.754-0.43 1.031s-0.643 0.43-1.031 0.43h-19.475z"></path>
<path fill="#fff" d="M4.821 9.402v-3.895h2.853v0.697h-2.139v0.724h1.165v0.711h-1.165v1.066h2.208v0.697h-2.921z"></path>
<path fill="#fff" d="M13.87 5.507h0.701v3.895h-0.701v-3.895z"></path>
<path fill="#fff" d="M17.82 6.19v3.212h-0.683v-3.212h-1.119v-0.684h2.921v0.684h-1.12z"></path>
<path fill="#fff" d="M11.561 9.402l-0.878-1.38-0.865 1.38h-0.823l1.277-2.050-1.167-1.845h0.838l0.742 1.189 0.742-1.189h0.838l-1.153 1.845 1.277 2.050h-0.824z"></path>
<path fill="#fff" d="M14.678 17.48c0.002-0.003 0.003-0.006 0.005-0.008 0.010-0.018 0.017-0.036 0.022-0.055 0.001-0.002 0.002-0.003 0.002-0.005h-0.001c0.002-0.007 0.004-0.012 0.005-0.019l0.009-0.063 0.895-4.616 0.012-0.087c0.012-0.087-0.017-0.173-0.074-0.231-0.066-0.066-0.152-0.095-0.235-0.079l-0.058 0.012-4.711 0.915c-0.054 0.012-0.095 0.037-0.136 0.079-0.103 0.103-0.107 0.272 0 0.379 0.012 0.012 0.033 0.025 0.050 0.033l0.050 0.027 1.648 1.013-4.028 3.698 1.348 1.348 3.698-4.020v-0.008l0.997 1.623 0.041 0.059c0.012 0.021 0.025 0.041 0.041 0.057 0.103 0.103 0.276 0.103 0.379 0 0.017-0.017 0.030-0.035 0.041-0.053z"></path>
</svg>
