<!-- Generated by IcoMoon.io -->
<svg version="1.1" xmlns="http://www.w3.org/2000/svg" width="24" height="24" viewBox="0 0 24 24">
<title>information--airport--g2</title>
<path fill="#7f7c7d" d="M1.467 0h0.463l0.238 0.185c-0.905 0.209-1.649 0.886-1.846 1.807-0.061-0.083-0.184-0.251-0.245-0.336 0.151-0.745 0.775-1.274 1.39-1.656z"></path>
<path fill="#262223" d="M1.929 0h20.449l-0.234 0.185c-6.657 0.039-13.319 0.041-19.976 0l-0.238-0.185z"></path>
<path fill="#7c7a7b" d="M22.378 0h0.303c0.659 0.198 1.137 0.737 1.476 1.311v0.347c-0.039 0.089-0.119 0.268-0.16 0.358-0.22-0.915-0.938-1.617-1.853-1.831l0.234-0.185z"></path>
<path fill="#fff" d="M2.168 0.185c6.657 0.041 13.319 0.039 19.976 0 0.915 0.213 1.633 0.916 1.853 1.831-0.144 6.598-0.003 13.203-0.069 19.802 0.019 1.128-1.001 2.077-2.119 2.014-6.38 0.016-12.761 0.002-19.14 0.008-0.765 0.033-1.595-0.27-1.995-0.958-0.483-0.852-0.307-1.87-0.334-2.805-0.008-6.028 0.027-12.056-0.017-18.085 0.198-0.921 0.941-1.598 1.846-1.807M1.931 0.693c-0.725 0.184-1.234 0.919-1.183 1.661 0.002 6.483-0.005 12.965 0.003 19.448-0.041 0.871 0.729 1.666 1.605 1.633 6.482 0.013 12.965 0 19.446 0.005 0.916 0.083 1.79-0.706 1.743-1.635 0.011-6.485 0.002-12.969 0.005-19.453 0.082-0.954-0.794-1.807-1.741-1.718-6.626 0.039-13.261-0.078-19.878 0.058z"></path>
<path fill="#fff" d="M11.071 2.919c0.231-1.15 2.061-1.034 2.187 0.118 0.102 2.124 0.006 4.256 0.028 6.381-0.045 0.24 0.21 0.342 0.364 0.455 2.726 1.62 5.443 3.253 8.165 4.88 0.005 0.692 0.006 1.384-0.003 2.075-2.846-0.863-5.678-1.771-8.525-2.631 0.006 1.489-0.036 2.98 0.014 4.467 0.478 0.665 1.283 1.035 1.846 1.636 0.116 0.552 0.034 1.126 0.049 1.688-1.046-0.251-2.053-0.681-3.115-0.844-0.999 0.24-1.962 0.607-2.957 0.867 0.013-0.569-0.064-1.15 0.045-1.71 0.552-0.602 1.362-0.973 1.82-1.642 0.056-1.485 0.008-2.976 0.019-4.463-2.849 0.867-5.68 1.787-8.529 2.656-0.019-0.701-0.028-1.404-0.027-2.107 2.827-1.694 5.68-3.351 8.483-5.079 0.221-2.22-0.063-4.513 0.136-6.748z"></path>
<path fill="#006e51" d="M1.931 0.693c6.616-0.136 13.252-0.019 19.878-0.058 0.947-0.089 1.823 0.764 1.741 1.718-0.003 6.483 0.006 12.968-0.005 19.453 0.047 0.929-0.827 1.718-1.743 1.635-6.482-0.005-12.965 0.008-19.446-0.005-0.875 0.033-1.645-0.762-1.605-1.633-0.008-6.483-0.002-12.965-0.003-19.448-0.052-0.742 0.458-1.478 1.183-1.661M11.071 2.919c-0.199 2.235 0.085 4.529-0.136 6.748-2.803 1.729-5.656 3.385-8.483 5.079-0.002 0.703 0.008 1.405 0.027 2.107 2.849-0.869 5.68-1.788 8.529-2.656-0.011 1.487 0.038 2.977-0.019 4.463-0.458 0.67-1.267 1.040-1.82 1.642-0.11 0.56-0.033 1.14-0.045 1.71 0.994-0.26 1.958-0.627 2.957-0.867 1.062 0.163 2.069 0.593 3.115 0.844-0.014-0.562 0.067-1.136-0.049-1.688-0.563-0.601-1.368-0.971-1.846-1.636-0.050-1.487-0.008-2.979-0.014-4.467 2.847 0.86 5.68 1.768 8.525 2.631 0.009-0.692 0.008-1.384 0.003-2.075-2.722-1.627-5.438-3.26-8.165-4.88-0.154-0.113-0.409-0.215-0.364-0.455-0.022-2.126 0.074-4.257-0.028-6.381-0.125-1.151-1.956-1.267-2.187-0.118z"></path>
<path fill="#b8b6b7" d="M0.077 1.656c0.061 0.085 0.184 0.253 0.245 0.336 0.044 6.028 0.009 12.056 0.017 18.085 0.027 0.935-0.149 1.953 0.334 2.805 0.4 0.689 1.23 0.991 1.995 0.958 6.38-0.006 12.761 0.008 19.14-0.008 1.118 0.063 2.138-0.886 2.119-2.014 0.066-6.599-0.075-13.205 0.069-19.802 0.041-0.089 0.121-0.268 0.16-0.358v20.995c-0.224 0.588-0.656 1.054-1.209 1.347h-21.619c-0.946-0.516-1.421-1.617-1.327-2.668 0.049-6.557-0.099-13.128 0.075-19.675z"></path>
</svg>
