<?xml version="1.0" encoding="utf-8"?>
<!-- Generated by IcoMoon.io -->
<!DOCTYPE svg PUBLIC "-//W3C//DTD SVG 1.1//EN" "http://www.w3.org/Graphics/SVG/1.1/DTD/svg11.dtd">
<svg version="1.1" xmlns="http://www.w3.org/2000/svg" xmlns:xlink="http://www.w3.org/1999/xlink" width="24" height="24" viewBox="0 0 24 24">
<path fill="#fff" d="M2.769 0h1.171c-0.586 0.062-1.066 0.527-1.171 1.103v-1.103z"></path>
<path fill="#fff" d="M20.146 0h1.085v0.967c-0.135-0.507-0.576-0.875-1.085-0.967z"></path>
<path fill="#fff" d="M8.721 8.095c-0.001-1.633-0.001-3.266 0-4.9 3.489 0.001 6.978 0 10.468 0.001 0 1.633 0 3.265 0 4.898-3.489 0.001-6.978 0-10.468 0.001z"></path>
<path fill="#fff" d="M5.727 4.849c0.932 0.001 1.864 0 2.795 0.001 0 1.173 0 2.346 0 3.52 2.321-0.012 4.642 0.023 6.962-0.018-0.523 0.2-0.828 0.735-0.873 1.273-2.072 0-4.145 0.001-6.217 0-0.026-0.698-0.565-1.344-1.275-1.409-0.828-0.126-1.595 0.592-1.619 1.41-0.149 0-0.296-0.001-0.445-0.001 0-0.807 0.002-1.614-0.002-2.42-0.016-0.324 0.109-0.628 0.208-0.929 0.157-0.475 0.308-0.952 0.466-1.426M6.125 5.409c-0.167 0.396-0.334 0.791-0.497 1.188 0.743-0.001 1.486 0 2.229-0.001 0.001-0.395 0.001-0.791 0-1.187-0.578 0-1.155-0.001-1.733 0z"></path>
<path fill="#fff" d="M16.65 8.357c0.846 0.028 1.692 0.006 2.538 0.013 0 0.161 0 0.321 0.001 0.483-0.566 0.256-1.133 0.51-1.698 0.766-0.033-0.534-0.349-1.038-0.841-1.262z"></path>
<path fill="#fff" d="M6.666 8.416c0.669-0.174 1.41 0.31 1.514 0.994 0.164 0.744-0.497 1.522-1.257 1.471-0.572 0.002-1.094-0.443-1.198-1.002-0.147-0.637 0.304-1.33 0.942-1.463M6.759 9.154c-0.344 0.123-0.442 0.626-0.157 0.86 0.262 0.263 0.774 0.119 0.846-0.25 0.125-0.389-0.319-0.779-0.689-0.61z"></path>
<path fill="#fff" d="M15.731 8.45c0.737-0.221 1.563 0.383 1.571 1.152 0.050 0.683-0.553 1.318-1.237 1.305-0.631 0.025-1.216-0.502-1.259-1.132-0.071-0.591 0.352-1.181 0.925-1.326M15.901 9.164c-0.345 0.095-0.486 0.571-0.237 0.834 0.247 0.318 0.811 0.176 0.891-0.216 0.113-0.374-0.292-0.745-0.654-0.618z"></path>
<path fill="#fff" d="M9.657 17.548c0.819-1.517 1.702-2.998 2.55-4.499 0.848 1.501 1.738 2.98 2.554 4.497-0.574-0.069-1.143-0.184-1.717-0.254 0.001 1.756 0 3.512 0 5.268-0.558 0-1.116 0-1.674 0-0.001-1.757 0-3.513 0-5.269-0.573 0.074-1.141 0.184-1.714 0.257z"></path>
<path fill="#fff" d="M2.769 22.809c0.053 0.618 0.568 1.115 1.175 1.191h-1.175v-1.191z"></path>
<path fill="#fff" d="M20.025 24c0.559-0.034 1.057-0.432 1.206-0.973v0.973h-1.206z"></path>
<path fill="#2847a3" d="M3.941 0h16.206c0.509 0.092 0.95 0.461 1.085 0.967v22.060c-0.149 0.541-0.646 0.939-1.206 0.973h-16.081c-0.607-0.076-1.122-0.573-1.175-1.191v-21.706c0.105-0.576 0.585-1.041 1.171-1.103M8.721 8.095c3.489-0.001 6.978 0 10.468-0.001 0-1.633 0-3.265 0-4.898-3.489-0.001-6.978 0-10.468-0.001-0.001 1.634-0.001 3.267 0 4.9M5.727 4.849c-0.158 0.474-0.309 0.951-0.466 1.426-0.099 0.301-0.223 0.605-0.208 0.929 0.004 0.807 0.002 1.614 0.002 2.42 0.149 0 0.296 0.001 0.445 0.001 0.024-0.818 0.791-1.535 1.619-1.41 0.71 0.065 1.249 0.711 1.275 1.409 2.072 0.001 4.145 0 6.217 0 0.045-0.538 0.35-1.073 0.873-1.273-2.32 0.042-4.641 0.006-6.962 0.018 0-1.173 0-2.346 0-3.52-0.931-0.001-1.863 0-2.795-0.001M16.65 8.357c0.492 0.224 0.808 0.727 0.841 1.262 0.566-0.257 1.133-0.51 1.698-0.766-0.001-0.162-0.001-0.322-0.001-0.483-0.846-0.007-1.693 0.015-2.538-0.013M6.666 8.416c-0.638 0.133-1.088 0.826-0.942 1.463 0.104 0.559 0.626 1.004 1.198 1.002 0.761 0.051 1.422-0.727 1.257-1.471-0.104-0.684-0.845-1.168-1.514-0.994M15.731 8.45c-0.573 0.145-0.996 0.735-0.925 1.326 0.043 0.63 0.628 1.157 1.259 1.132 0.684 0.013 1.287-0.622 1.237-1.305-0.008-0.769-0.834-1.373-1.571-1.152M9.657 17.548c0.573-0.073 1.141-0.183 1.714-0.257 0 1.756-0.001 3.512 0 5.269 0.558 0 1.116 0 1.674 0 0-1.756 0.001-3.512 0-5.268 0.574 0.070 1.143 0.185 1.717 0.254-0.816-1.518-1.706-2.996-2.554-4.497-0.848 1.501-1.732 2.982-2.55 4.499z"></path>
<path fill="#2847a3" d="M6.125 5.409c0.578-0.001 1.155 0 1.733 0 0.001 0.396 0.001 0.792 0 1.187-0.743 0.001-1.486 0-2.229 0.001 0.162-0.397 0.33-0.792 0.497-1.188z"></path>
<path fill="#2847a3" d="M6.759 9.154c0.369-0.169 0.813 0.222 0.689 0.61-0.072 0.369-0.583 0.513-0.846 0.25-0.285-0.234-0.187-0.738 0.157-0.86z"></path>
<path fill="#2847a3" d="M15.901 9.164c0.362-0.126 0.766 0.245 0.654 0.618-0.079 0.392-0.643 0.534-0.891 0.216-0.248-0.263-0.108-0.739 0.237-0.834z"></path>
</svg>
