<!-- Generated by IcoMoon.io -->
<svg version="1.1" xmlns="http://www.w3.org/2000/svg" width="24" height="24" viewBox="0 0 24 24">
<title>information--end-of-car-pool-lane--g1</title>
<path fill="#003e99" opacity="0.9" d="M0 0h0.628c-0.211 0.113-0.403 0.264-0.542 0.461l-0.085 0.142v-0.602z"></path>
<path fill="#003e99" opacity="0.9" d="M23.345 0h0.655v0.623c-0.128-0.288-0.361-0.509-0.655-0.623z"></path>
<path fill="#003e99" opacity="0.9" d="M0 23.437l0.088 0.127c0.11 0.132 0.241 0.246 0.374 0.356l0.14 0.079h-0.602v-0.563z"></path>
<path fill="#fff" d="M0.628 0h22.717c0.294 0.114 0.527 0.335 0.655 0.623v22.78c-0.127 0.185-0.257 0.373-0.432 0.515-7.7-0.053-15.406-0.061-23.106 0.004-0.133-0.11-0.264-0.224-0.374-0.356 0.043-7.7 0.047-15.404-0.002-23.104 0.139-0.197 0.331-0.348 0.542-0.461M0.424 0.857c-0.028 7.024 0.025 14.050-0.026 21.072 0.054 0.505-0.14 1.086 0.136 1.54 0.461 0.289 1.064 0.085 1.584 0.131 7.008-0.032 14.018 0.004 21.028-0.018 0.288 0.019 0.48-0.275 0.443-0.54 0.008-6.976-0.016-13.952 0.012-20.929-0.042-0.517 0.155-1.118-0.132-1.58-0.461-0.282-1.056-0.091-1.572-0.13-6.979 0.026-13.958 0.001-20.936 0.012-0.264-0.032-0.551 0.16-0.535 0.443z"></path>
<path fill="#fff" d="M6.18 5.558c3.514-0.848 7.21-0.834 10.754-0.179-1.836 1.878-3.706 3.724-5.561 5.582 0.664-1.319 0.233-3.137-1.169-3.768-1.499-0.808-3.478 0.227-3.791 1.87 0.462 0.101 0.928 0.19 1.396 0.268 0.15-0.46 0.47-0.904 0.972-1.001 0.678-0.18 1.423 0.342 1.493 1.037 0.047 0.565-0.202 1.121-0.569 1.54-0.998 1.081-2.076 2.093-3.053 3.192-0.067 0.397-0.022 0.803-0.028 1.204 0.094 0.008 0.282 0.024 0.376 0.031-0.768 0.744-1.498 1.528-2.279 2.258-0.004-0.11-0.011-0.33-0.014-0.439-0.404-0.004-0.808-0.006-1.212-0.005 0.008-1.477-0.017-2.954 0.011-4.43 0.012-0.722 0.554-1.25 1.109-1.632 0.574-1.824 1.031-3.689 1.565-5.527z"></path>
<path fill="#fff" d="M16.070 9.594c0.784-0.763 1.535-1.559 2.333-2.308 0.319 1.271 0.641 2.54 0.97 3.808 0.581 0.346 1.102 0.904 1.124 1.615 0.031 1.478 0.004 2.959 0.012 4.439-0.406-0.001-0.811 0.001-1.218 0.004-0.014 0.773 0.074 1.566-0.194 2.309-0.565 0.176-1.163 0.175-1.729 0.005-0.272-0.744-0.178-1.54-0.194-2.314-2.88-0.005-5.76-0.010-8.64 0.002 0.588-0.626 1.211-1.218 1.811-1.832 0.448-0.010 0.895-0.008 1.344-0.010-0.001-0.449-0.004-0.896 0.010-1.345 0.64-0.635 1.28-1.27 1.916-1.908 0.404 0.001 0.81 0.001 1.216 0.005 0.005 0.638 0.001 1.276 0.002 1.914 0.413 0.001 0.824 0.002 1.237 0 0.001-0.638-0.002-1.277 0.004-1.915 0.634-0.004 1.266-0.001 1.9-0.001 0.002-0.407 0.002-0.815 0.001-1.222-0.634-0.001-1.267 0.002-1.901-0.002-0.004-0.414-0.005-0.829-0.002-1.243z"></path>
<path fill="#0046ac" d="M0.424 0.857c-0.016-0.283 0.271-0.475 0.535-0.443 6.978-0.011 13.957 0.014 20.936-0.012-1.655 1.657-3.33 3.296-4.961 4.978-3.545-0.655-7.241-0.67-10.754 0.179-0.534 1.838-0.991 3.703-1.565 5.527-0.554 0.382-1.097 0.91-1.109 1.632-0.028 1.476-0.002 2.953-0.011 4.43 0.404-0.001 0.808 0.001 1.212 0.005 0.004 0.109 0.011 0.329 0.014 0.439-1.458 1.428-2.916 2.86-4.325 4.337 0.052-7.022-0.001-14.048 0.026-21.072z"></path>
<path fill="#0046ac" d="M18.403 7.286c1.753-1.703 3.461-3.452 5.196-5.174-0.028 6.977-0.004 13.954-0.012 20.929 0.037 0.265-0.155 0.559-0.443 0.54-7.009 0.022-14.020-0.014-21.028 0.018 2.132-2.154 4.302-4.273 6.416-6.445 2.88-0.012 5.76-0.007 8.64-0.002 0.017 0.774-0.078 1.57 0.194 2.314 0.566 0.17 1.164 0.172 1.729-0.005 0.269-0.743 0.18-1.536 0.194-2.309 0.407-0.002 0.812-0.005 1.218-0.004-0.008-1.48 0.019-2.96-0.012-4.439-0.023-0.712-0.544-1.27-1.124-1.615-0.329-1.267-0.65-2.537-0.97-3.808z"></path>
<path fill="#e23828" d="M21.895 0.402c0.516 0.038 1.111-0.152 1.572 0.13 0.287 0.462 0.090 1.063 0.132 1.58-1.735 1.722-3.443 3.472-5.196 5.174-0.798 0.749-1.549 1.544-2.333 2.308-0.822 0.817-1.646 1.634-2.456 2.465-0.636 0.638-1.277 1.273-1.916 1.908-0.448 0.455-0.901 0.905-1.354 1.355-0.6 0.614-1.223 1.206-1.811 1.832-2.114 2.172-4.284 4.291-6.416 6.445-0.52-0.046-1.123 0.158-1.584-0.131-0.276-0.454-0.082-1.034-0.136-1.54 1.409-1.477 2.867-2.909 4.325-4.337 0.781-0.731 1.511-1.514 2.279-2.258 1.463-1.453 2.922-2.908 4.373-4.372 1.855-1.859 3.725-3.704 5.561-5.582 1.631-1.681 3.306-3.32 4.961-4.978z"></path>
<path fill="#e2eaf3" d="M0 0.602l0.085-0.142c0.049 7.699 0.046 15.403 0.002 23.104l-0.088-0.127v-22.835z"></path>
<path fill="#000" d="M6.414 9.064c0.313-1.643 2.292-2.677 3.791-1.87 1.402 0.631 1.832 2.449 1.169 3.768-1.451 1.464-2.91 2.918-4.373 4.372-0.094-0.007-0.282-0.023-0.376-0.031 0.006-0.401-0.040-0.806 0.028-1.204 0.977-1.099 2.054-2.111 3.053-3.192 0.367-0.419 0.616-0.974 0.569-1.54-0.070-0.695-0.815-1.217-1.493-1.037-0.502 0.097-0.822 0.541-0.972 1.001-0.468-0.078-0.934-0.167-1.396-0.268z"></path>
<path fill="#000" d="M13.614 12.059c0.81-0.83 1.634-1.648 2.456-2.465-0.002 0.414-0.001 0.829 0.002 1.243 0.634 0.005 1.267 0.001 1.901 0.002 0.001 0.407 0.001 0.815-0.001 1.222-0.634 0-1.266-0.002-1.9 0.001-0.006 0.638-0.002 1.277-0.004 1.915-0.413 0.002-0.824 0.001-1.237 0-0.001-0.638 0.002-1.276-0.002-1.914-0.406-0.004-0.811-0.004-1.216-0.005z"></path>
<path fill="#000" d="M10.344 15.322c0.452-0.45 0.906-0.9 1.354-1.355-0.013 0.449-0.011 0.896-0.010 1.345-0.449 0.001-0.896 0-1.344 0.010z"></path>
<path fill="#0041a0" opacity="0.94" d="M23.568 23.917c0.175-0.142 0.305-0.33 0.432-0.515v0.598h-0.559l0.127-0.083z"></path>
<path fill="#e3eaf4" d="M0.462 23.921c7.7-0.065 15.406-0.056 23.106-0.004l-0.127 0.083h-22.838l-0.14-0.079z"></path>
</svg>
