<!-- Generated by IcoMoon.io -->
<svg version="1.1" xmlns="http://www.w3.org/2000/svg" width="13" height="24" viewBox="0 0 13 24">
<title>information--dead-end-except-bicycles--g1</title>
<path fill="#d2dded" d="M0 0h0.119c0.055 0.091-0.042 0.173-0.119 0.203v-0.203z"></path>
<path fill="#0c479d" d="M0.119 0h13.15v24h-13.269v-23.797c0.077-0.030 0.174-0.112 0.119-0.203M6.472 1.051c-0.002 0.544 0 1.088-0.001 1.631-0.927 0.005-1.853-0.006-2.779 0.004-0.315-0.023-0.595 0.255-0.571 0.571-0.004 1.309-0.004 2.62 0 3.929-0.024 0.315 0.257 0.593 0.571 0.571 0.926 0.007 1.853-0.001 2.779 0.003 0.001 0.543 0.001 1.086-0.001 1.629-0.874 0.002-1.75 0.002-2.625 0-0.004 0.847-0.004 1.694 0 2.541 0.724-0.002 1.449-0.001 2.173-0.001 0.001 3.383-0.001 6.766 0 10.15 0.484 0.001 0.967 0.001 1.45 0 0.001-3.383-0.001-6.766 0-10.15 0.724-0.001 1.449-0.001 2.173 0.001 0.004-0.847 0.004-1.694 0-2.541-0.875 0.002-1.75 0.002-2.625 0-0.002-0.543-0.001-1.086-0.001-1.629 0.927-0.004 1.853 0.005 2.78-0.003 0.314 0.022 0.593-0.257 0.57-0.571 0.005-1.309 0.005-2.619 0.001-3.928 0.022-0.315-0.257-0.595-0.571-0.571-0.926-0.009-1.853 0.001-2.779-0.004-0.001-0.544 0.001-1.088-0.001-1.631-0.181 0.001-0.362 0.001-0.542 0z"></path>
<path fill="#0c479d" d="M3.583 2.877c2.044-0.037 4.092-0.004 6.137-0.016 0.239-0.033 0.492 0.14 0.464 0.4 0.005 1.306 0.005 2.612 0 3.918 0.022 0.223-0.171 0.415-0.394 0.392-2.032 0.004-4.063 0.004-6.094 0-0.223 0.023-0.418-0.169-0.394-0.392-0.008-1.281-0.001-2.564-0.004-3.845-0.018-0.194 0.069-0.427 0.285-0.458M5.691 3.635c-0.038 0.442-0.26 0.831-0.41 1.239-0.565-0.3-1.346-0.070-1.656 0.491-0.349 0.584-0.050 1.427 0.595 1.65 0.558 0.237 1.202-0.072 1.516-0.553 0.265-0.513 0.073-1.149-0.349-1.516 0.016-0.038 0.047-0.115 0.063-0.153 0.42 0.36 0.837 0.724 1.253 1.089-0.062 0.299 0.13 0.539 0.428 0.579 0.001 0.115-0.006 0.231-0.014 0.347 0.114-0.007 0.227-0.017 0.34-0.030-0.084-0.105-0.167-0.211-0.244-0.32 0.076-0.117 0.152-0.234 0.224-0.353 0.046-0.006 0.138-0.018 0.184-0.024 0.105 0.601 0.672 1.093 1.296 1.009 0.665-0.051 1.117-0.73 1.076-1.36-0.105-0.794-1.044-1.238-1.75-0.902-0.11-0.192-0.221-0.384-0.335-0.574 0.088-0.268 0.351-0.374 0.582-0.493-0.289-0.28-0.762-0.112-1.127-0.123 0.138 0.172 0.341 0.262 0.536 0.352-0.037 0.088-0.075 0.175-0.112 0.262-0.7 0.009-1.402-0.001-2.103 0.006 0.085-0.215 0.111-0.445 0.16-0.669 0.144-0.204 0.427-0.038 0.631-0.051-0.175-0.268-0.727-0.264-0.782 0.099z"></path>
<path fill="#0c479d" d="M5.598 4.385c0.705-0.001 1.412-0.002 2.117 0-0.218 0.457-0.361 0.956-0.658 1.37-0.025-0.046-0.074-0.136-0.098-0.181 0.029-0.080 0.059-0.161 0.088-0.241-0.114-0.001-0.228-0.001-0.342 0 0.087 0.153 0.156 0.315 0.188 0.489-0.471-0.299-0.851-0.715-1.282-1.064-0.154-0.080-0.028-0.247-0.015-0.372z"></path>
<path fill="#0c479d" d="M7.853 4.413c0.091 0.16 0.184 0.319 0.274 0.48-0.388 0.262-0.502 0.713-0.637 1.131-0.080-0.092-0.157-0.186-0.232-0.282 0.2-0.442 0.393-0.887 0.595-1.329z"></path>
<path fill="#0c479d" d="M3.689 5.73c0.115-0.663 0.943-0.977 1.497-0.619-0.131 0.344-0.234 0.764-0.657 0.843 0.484 0.183 0.633-0.435 0.768-0.763 0.503 0.465 0.376 1.389-0.281 1.639-0.682 0.326-1.52-0.369-1.328-1.1z"></path>
<path fill="#0c479d" d="M8.368 5.039c0.486-0.205 1.115-0.007 1.317 0.5 0.286 0.586-0.183 1.355-0.837 1.362-0.504 0.047-0.927-0.353-1.038-0.823 0.375-0.056 0.755-0.021 1.13-0.054-0.144-0.348-0.421-0.634-0.572-0.985z"></path>
<path fill="#0c479d" d="M7.8 5.941c0.033-0.328 0.187-0.629 0.446-0.836 0.156 0.256 0.305 0.516 0.449 0.779-0.298 0.025-0.596 0.044-0.895 0.057z"></path>
<path fill="#fff" d="M6.472 1.051c0.181 0.001 0.362 0.001 0.542 0 0.002 0.544 0 1.088 0.001 1.631 0.927 0.005 1.853-0.006 2.779 0.004 0.315-0.023 0.594 0.257 0.571 0.571 0.004 1.309 0.004 2.619-0.001 3.928 0.023 0.315-0.256 0.594-0.57 0.571-0.927 0.008-1.853-0.001-2.78 0.003-0.001 0.543-0.001 1.086 0.001 1.629 0.874 0.002 1.75 0.002 2.625 0 0.004 0.847 0.004 1.694 0 2.541-0.724-0.002-1.449-0.001-2.173-0.001-0.001 3.383 0.001 6.766 0 10.15-0.484 0.001-0.967 0.001-1.45 0-0.001-3.383 0.001-6.766 0-10.15-0.724-0.001-1.449-0.001-2.173 0.001-0.004-0.847-0.004-1.694 0-2.541 0.875 0.002 1.75 0.002 2.625 0 0.002-0.543 0.001-1.086 0.001-1.629-0.927-0.004-1.853 0.004-2.779-0.003-0.315 0.022-0.595-0.256-0.571-0.571-0.004-1.309-0.004-2.62 0-3.929-0.024-0.315 0.257-0.594 0.571-0.571 0.926-0.009 1.853 0.001 2.779-0.004 0.001-0.544-0.001-1.088 0.001-1.631M3.583 2.877c-0.216 0.030-0.303 0.264-0.285 0.458 0.003 1.281-0.004 2.564 0.004 3.845-0.023 0.223 0.171 0.415 0.394 0.392 2.031 0.004 4.063 0.004 6.094 0 0.223 0.023 0.415-0.17 0.394-0.392 0.005-1.306 0.005-2.612 0-3.918 0.028-0.26-0.225-0.434-0.464-0.4-2.045 0.012-4.093-0.021-6.137 0.016M4.023 9.573c0.002 0.724 0.002 1.447 0 2.171 1.813 0.004 3.628 0.004 5.441 0-0.002-0.724-0.002-1.447 0-2.171-1.813-0.004-3.628-0.004-5.441 0z"></path>
<path fill="#fff" d="M5.691 3.635c0.056-0.363 0.607-0.368 0.782-0.099-0.204 0.014-0.487-0.152-0.631 0.051-0.049 0.224-0.075 0.454-0.16 0.669 0.701-0.007 1.402 0.003 2.103-0.006 0.038-0.087 0.075-0.174 0.112-0.262-0.195-0.089-0.398-0.18-0.536-0.352 0.365 0.011 0.838-0.157 1.127 0.123-0.231 0.119-0.493 0.225-0.582 0.493 0.114 0.19 0.225 0.381 0.335 0.574 0.706-0.336 1.645 0.108 1.75 0.902 0.041 0.63-0.411 1.309-1.076 1.36-0.624 0.083-1.191-0.408-1.296-1.009-0.046 0.006-0.138 0.018-0.184 0.024-0.073 0.119-0.148 0.236-0.224 0.353 0.078 0.109 0.16 0.215 0.244 0.32-0.113 0.013-0.226 0.022-0.34 0.030 0.008-0.115 0.015-0.231 0.014-0.347-0.298-0.039-0.489-0.279-0.428-0.579-0.415-0.365-0.833-0.729-1.253-1.089-0.016 0.038-0.047 0.115-0.063 0.153 0.421 0.367 0.613 1.004 0.349 1.516-0.314 0.481-0.958 0.79-1.516 0.553-0.645-0.223-0.944-1.066-0.595-1.65 0.31-0.56 1.091-0.791 1.656-0.491 0.151-0.408 0.373-0.798 0.41-1.239M5.598 4.385c-0.013 0.125-0.14 0.291 0.015 0.372 0.431 0.349 0.811 0.765 1.282 1.064-0.032-0.174-0.101-0.336-0.188-0.489 0.114-0.001 0.228-0.001 0.342 0-0.030 0.080-0.059 0.161-0.088 0.241 0.024 0.046 0.073 0.136 0.098 0.181 0.297-0.414 0.44-0.913 0.658-1.37-0.705-0.002-1.412-0.001-2.117 0M7.853 4.413c-0.202 0.442-0.395 0.887-0.595 1.329 0.075 0.096 0.152 0.19 0.232 0.282 0.136-0.418 0.249-0.869 0.637-1.131-0.090-0.161-0.183-0.32-0.274-0.48M3.689 5.73c-0.193 0.731 0.645 1.425 1.328 1.1 0.656-0.25 0.784-1.174 0.281-1.639-0.135 0.328-0.284 0.947-0.768 0.763 0.423-0.079 0.526-0.5 0.657-0.843-0.554-0.357-1.383-0.044-1.497 0.619M8.368 5.039c0.151 0.352 0.428 0.637 0.572 0.985-0.375 0.033-0.755-0.002-1.13 0.054 0.111 0.47 0.534 0.87 1.038 0.823 0.653-0.007 1.123-0.776 0.837-1.362-0.202-0.507-0.832-0.705-1.317-0.5M7.8 5.941c0.299-0.013 0.597-0.032 0.895-0.057-0.144-0.262-0.293-0.523-0.449-0.779-0.259 0.207-0.413 0.508-0.446 0.836z"></path>
<path fill="#ce252c" d="M4.023 9.573c1.813-0.004 3.628-0.004 5.441 0-0.002 0.724-0.002 1.447 0 2.171-1.813 0.004-3.628 0.004-5.441 0 0.002-0.724 0.002-1.447 0-2.171z"></path>
</svg>
