<!-- Generated by IcoMoon.io -->
<svg version="1.1" xmlns="http://www.w3.org/2000/svg" width="51" height="24" viewBox="0 0 51 24">
<title>information--lane-control-intersections--g1</title>
<path fill="#fcfff0" d="M0 0h50.526v24h-50.526v-24M1.134 1.033c-0.195 0.298-0.333 0.616-0.419 0.955-0.306 5.73-0.179 11.475-0.222 17.212-0.028 1.023-0.023 2.056 0.192 3.064 0.235 0.381 0.601 0.702 1.046 0.798 7.026 0.225 14.074 0.197 21.102 0.096 8.226 0.088 16.454 0.083 24.682 0.063 0.965 0.088 1.849-0.75 1.753-1.731 0.038-6.321 0.023-12.647 0.096-18.97 0.096-0.813-0.387-1.763-1.281-1.816-6.121-0.227-12.275-0.291-18.397-0.096-8.713-0.21-17.432-0.048-26.147-0.116-0.811 0.025-1.779-0.086-2.405 0.541z"></path>
<path fill="#384f90" d="M1.134 1.033c0.627-0.627 1.594-0.515 2.405-0.541 8.716 0.068 17.434-0.093 26.147 0.116l0.222 0.008c-2.168 0.22-4.363-0.013-6.515 0.384-6.877 0.020-13.756-0.015-20.635 0-0.573 0.010-1.112 0.232-1.637 0.44 0.003-0.101 0.008-0.303 0.013-0.407z"></path>
<path fill="#8b95de" d="M29.687 0.609c6.121-0.195 12.275-0.131 18.397 0.096-6.058 0.101-12.119 0.068-18.174-0.088l-0.222-0.008z"></path>
<path fill="#333f71" d="M23.394 1c2.152-0.397 4.348-0.164 6.515-0.384 6.056 0.157 12.116 0.189 18.174 0.088 0.894 0.053 1.377 1.003 1.281 1.816-0.073 6.323-0.058 12.649-0.096 18.97 0.096 0.98-0.788 1.819-1.753 1.731-8.228 0.020-16.456 0.025-24.682-0.063-7.028-0.291-14.069-0.068-21.102-0.096-0.445-0.096-0.811-0.417-1.046-0.798-0.003-6.758 0.159-13.518 0.030-20.276 0.086-0.339 0.225-0.657 0.419-0.955-0.005 0.104-0.010 0.306-0.013 0.407-0.073 6.682-0.147 13.369-0.091 20.051-0.056 0.94 0.927 1.364 1.731 1.251 14.915-0.058 29.833 0.081 44.746 0.048 1.066 0.159 1.448-0.952 1.379-1.811 0.018-6.237 0.157-12.475 0.081-18.71 0.020-0.897-0.932-1.291-1.698-1.235-7.958-0.025-15.918-0.008-23.876-0.033z"></path>
<path fill="#f7fefb" d="M1.122 1.44c0.525-0.207 1.064-0.429 1.637-0.44 6.879-0.015 13.758 0.020 20.635 0 7.958 0.025 15.918 0.008 23.876 0.033 0.765-0.056 1.718 0.339 1.698 1.235 0.076 6.235-0.063 12.472-0.081 18.71 0.068 0.859-0.313 1.971-1.379 1.811-14.913 0.033-29.831-0.106-44.746-0.048-0.803 0.114-1.786-0.311-1.731-1.251-0.056-6.682 0.018-13.369 0.091-20.051M2.132 1.968c0.086 0.144 0.258 0.435 0.346 0.579-0.179 0.222-0.356 0.447-0.531 0.672 0.753 0.056 1.935 0.576 2.276-0.424-0.187 0.005-0.566 0.015-0.753 0.020 0.225-0.344 0.45-0.685 0.675-1.028-0.685-0.477-1.465-0.515-2.013 0.182M5.171 1.417c0.018 1.228-0.066 2.456 0.030 3.678-1.22-0.157-2.456-0.093-3.681-0.063-0.023 5.401-0.073 10.8-0.096 16.201-0.101 0.675 0.412 1.218 1.094 1.059 14.908-0.025 29.818 0.126 44.726 0.124 0.606 0.088 1.316-0.225 1.208-0.937 0.061-5.641 0.048-11.288 0.083-16.931 0.003-0.998 0.093-2.021-0.207-2.991-14.385-0.101-28.772-0.187-43.157-0.139M3.034 4.196c-0.596 0.882 0.965 0.222 0 0z"></path>
<path fill="#f7fefb" d="M23.56 6.503c0.381 0.301 0.677 0.68 0.859 1.132-0.336-0.124-0.669-0.25-1-0.379-0.159 0.702-0.217 1.455 0.326 2.016 0.030-0.397 0.058-0.793 0.081-1.192 0.167 0.028 0.5 0.078 0.667 0.106-0.141 0.606-0.371 1.187-0.74 1.695-1.137-0.765-1.127-2.458-0.192-3.378z"></path>
<path fill="#f7fefb" d="M33.504 16.072c0.222-0.235 0.447-0.47 0.672-0.705 0.081 0.174 0.24 0.523 0.321 0.697 0.624 0.018 1.407-0.22 1.816 0.409-0.74 0.061-1.483 0.073-2.223 0.066-0.114 0.313-0.225 0.627-0.331 0.945 0.296-0.268 0.581-0.546 0.861-0.829 0.404 0.48 0.978 0.728 1.518 1.013-0.417 0.035-0.834 0.068-1.248 0.099 0.061 0.829 0.010 1.801-1.066 1.786 0.25-0.558 0.477-1.132 0.568-1.743-0.174-0.038-0.523-0.116-0.695-0.154 0.058 0.232 0.116 0.467 0.174 0.702-0.392 0.328-0.753 0.745-1.281 0.841 0.088-0.495 0.437-0.869 0.717-1.263-0.172-0.149-0.346-0.298-0.518-0.45 0.258-0.291 0.518-0.581 0.776-0.874-0.243-0.028-0.728-0.083-0.97-0.111-0.003-0.111-0.008-0.336-0.010-0.447 0.306 0.005 0.611 0.013 0.917 0.018z"></path>
<path fill="#f7fefb" d="M39.289 17.199c0.035-0.596-0.116-1.374 0.533-1.698 0.020 0.505 0.020 1.011 0.020 1.516 0.291-0.232 0.581-0.462 0.874-0.692 0.563 0.707-0.47 0.998-0.879 1.374 0.013 0.455 0.028 0.909 0.048 1.362 0.318-0.273 0.634-0.551 0.955-0.824 0.109 0.409 0.038 0.826-0.063 1.23-0.48-0.020-0.957-0.038-1.435-0.058-0.008-0.672 0.003-1.347-0.051-2.016l-0.003-0.195z"></path>
<path fill="#898ed8" d="M2.132 1.968c0.548-0.697 1.329-0.659 2.013-0.182-0.225 0.344-0.45 0.685-0.675 1.028 0.187-0.005 0.566-0.015 0.753-0.020-0.341 1-1.523 0.48-2.276 0.424 0.174-0.225 0.351-0.45 0.531-0.672-0.088-0.144-0.26-0.435-0.346-0.579z"></path>
<path fill="#1a2e7a" d="M5.171 1.417c14.385-0.048 28.772 0.038 43.157 0.139-0.778 0.129-1.559 0.248-2.347 0.275-13.483-0.073-26.973-0.111-40.456-0.063 0.023 1.132 0.043 2.264 0.058 3.395-0.096-0.018-0.285-0.051-0.381-0.068-0.096-1.223-0.013-2.451-0.030-3.678z"></path>
<path fill="#2344b4" d="M48.328 1.556c0.301 0.97 0.21 1.993 0.207 2.991-0.035 5.644-0.023 11.29-0.083 16.931 0.109 0.712-0.601 1.026-1.208 0.937-14.908 0.003-29.818-0.149-44.726-0.124-0.682 0.159-1.195-0.384-1.094-1.059 0.023-5.401 0.073-10.8 0.096-16.201 1.225-0.030 2.461-0.093 3.681 0.063 0.096 0.018 0.285 0.051 0.381 0.068-0.015-1.132-0.035-2.264-0.058-3.395 13.483-0.048 26.973-0.010 40.456 0.063 0.788-0.028 1.569-0.147 2.347-0.275M21.322 3.724c0.765 2.468 0.22 5.055 0.639 7.561 2.097-0.288 4.504 0.657 6.369-0.515-0.172-1.715 0.035-3.436-0.061-5.154-0.015-0.728-0.005-1.458 0.023-2.185-1.018-0.523-2.175-0.442-3.282-0.359-1.245 0.121-2.65-0.243-3.688 0.652M23.871 16.295c-1.607 0.841-3.933-0.616-5.151 1.119 0.318 0.293 0.637 0.586 0.957 0.877 1.347 0.043 2.741-0.187 4.060 0.147 0.591 0.531 0.296 1.491 0.389 2.208 0.541-0.003 1.084-0.005 1.627-0.005 0.126-0.723-0.24-1.748 0.477-2.223 1.597-0.5 3.701 0.616 4.901-0.942-0.285-0.293-0.571-0.589-0.851-0.884-1.475-0.099-3.062 0.283-4.441-0.397-0.088-1.316 0.323-2.88-0.854-3.835-1.344 0.96-0.485 2.691-1.114 3.936M5.578 15.916c-0.518 0-1.033 0.003-1.549 0.008 0.005 0.109 0.018 0.323 0.025 0.429 0.591 0.043 1.182 0.086 1.766 0.182-0.495 0.078-0.99 0.131-1.488 0.182-0.005 0.965-0.035 1.933 0.078 2.893 0.285-0.341 0.485-0.738 0.677-1.134 0.316 0.263 0.627 0.531 0.935 0.803 0.083-0.2 0.248-0.599 0.331-0.798 0.172 0.356 0.341 0.712 0.513 1.069 1.081-0.589 0.619-1.907 0.705-2.908-0.447 0.010-0.894 0.020-1.344 0.033l-0.023-0.227c0.619-0.066 1.357 0.099 1.816-0.437-0.536-0.058-1.074-0.091-1.612-0.109-0.088-0.149-0.268-0.445-0.356-0.594-0.159 0.202-0.318 0.407-0.475 0.609M10.244 15.832c-0.5 0.013-0.998 0.033-1.496 0.068 0.139 0.157 0.296 0.293 0.465 0.409 0.131 0.083 0.399 0.253 0.531 0.336l-0.253-0.020c0.020 0.498 0.045 0.995 0.081 1.493-0.25 0.25-0.5 0.503-0.748 0.755 0.124 0.073 0.369 0.225 0.493 0.298 0.427-0.435 0.765-0.945 0.872-1.559 0.432 0.584 0.068 1.235-0.096 1.839 0.301-0.081 0.604-0.159 0.907-0.243 0.053-0.637-0.124-1.493 0.778-1.533-0.111 0.189-0.339 0.568-0.45 0.758 0.344 0.24 0.685 0.488 1.018 0.745 0.086-0.2 0.172-0.399 0.258-0.596-0.225-0.136-0.452-0.273-0.677-0.407 0.106-0.531 0.174-1.066 0.207-1.604 0.258-0.126 0.51-0.263 0.753-0.414-0.753-0.268-1.528-0.46-2.279-0.73-0.091 0.101-0.273 0.303-0.364 0.404M15.772 15.491c-0.071 0.346-0.147 0.695-0.22 1.043-0.109-0.255-0.217-0.508-0.323-0.763-0.417-0.008-0.836-0.018-1.253-0.028-0.035 0.412-0.071 0.824-0.104 1.235 0.131 0.081 0.263 0.162 0.394 0.243-0.493 0.576-0.536 1.362-0.627 2.077 0.601 0.063 1.149-0.248 1.69-0.455 0.068 0.159 0.202 0.475 0.27 0.634 0.49-0.21 1.008-0.182 1.506-0.013 0.025-0.702 0.121-1.402 0.392-2.056-0.169-0.073-0.51-0.22-0.68-0.293 0.159-0.354 0.318-0.707 0.475-1.064-0.513-0.172-1.018-0.359-1.521-0.561M33.504 16.072c-0.306-0.005-0.611-0.013-0.917-0.018 0.003 0.111 0.008 0.336 0.010 0.447 0.243 0.028 0.728 0.083 0.97 0.111-0.258 0.293-0.518 0.584-0.776 0.874 0.172 0.152 0.346 0.301 0.518 0.45-0.28 0.394-0.629 0.768-0.717 1.263 0.528-0.096 0.889-0.513 1.281-0.841-0.058-0.235-0.116-0.47-0.174-0.702 0.172 0.038 0.52 0.116 0.695 0.154-0.091 0.611-0.318 1.185-0.568 1.743 1.076 0.015 1.127-0.957 1.066-1.786 0.414-0.030 0.831-0.063 1.248-0.099-0.541-0.285-1.114-0.533-1.518-1.013-0.28 0.283-0.566 0.561-0.861 0.829 0.106-0.318 0.217-0.632 0.331-0.945 0.74 0.008 1.483-0.005 2.223-0.066-0.409-0.629-1.192-0.392-1.816-0.409-0.081-0.174-0.24-0.523-0.321-0.697-0.225 0.235-0.45 0.47-0.672 0.705M38.511 15.519c-0.053 0.412-0.101 0.824-0.147 1.238-0.328 0.003-0.657 0.005-0.985 0.008 0.025 0.134 0.073 0.397 0.096 0.531 0.316 0.010 0.632 0.023 0.945 0.035-0.018 0.202-0.058 0.609-0.078 0.811-0.46 0.243-1.117 0.394-1.046 1.056 0.316-0.099 0.632-0.202 0.945-0.306 0.212 0.288 0.437 0.568 0.677 0.836l-0.003-0.313c0.288-0.637 0.323-1.336 0.376-2.021 0.053 0.669 0.043 1.344 0.051 2.016 0.477 0.020 0.955 0.038 1.435 0.058 0.101-0.404 0.172-0.821 0.063-1.23-0.321 0.273-0.637 0.551-0.955 0.824-0.020-0.452-0.035-0.907-0.048-1.362 0.409-0.376 1.443-0.667 0.879-1.374-0.293 0.23-0.584 0.46-0.874 0.692 0-0.505 0-1.011-0.020-1.516-0.649 0.323-0.498 1.101-0.533 1.698-0.010-0.568-0.114-1.127-0.258-1.675l-0.081 0.402c-0.111-0.104-0.328-0.306-0.44-0.407M44.236 15.587c-0.152 0.422-0.303 0.844-0.467 1.261-0.028-0.245-0.081-0.738-0.109-0.983-0.455 0.003-0.912 0.003-1.367 0.003 0.063 0.48 0.131 0.96 0.202 1.437-0.379 0.685-0.349 1.491-0.404 2.248 0.604-0.235 1.205-0.477 1.804-0.725 0.038 0.215 0.111 0.649 0.149 0.864 0.227-0.157 0.455-0.316 0.685-0.475 0.258 0.154 0.518 0.306 0.778 0.457 0.008-0.745 0.058-1.506 0.445-2.163-0.248-0.101-0.493-0.202-0.738-0.306 0.174-0.359 0.349-0.72 0.528-1.079-0.508-0.169-1.008-0.349-1.506-0.541M35.002 17.785c0.197 0.498 0.427 0.98 0.667 1.458 0.159-0.091 0.475-0.273 0.632-0.364-0.333-0.475-0.73-0.909-1.299-1.094z"></path>
<path fill="#959de0" d="M0.493 19.2c0.043-5.737-0.083-11.482 0.222-17.212 0.129 6.758-0.033 13.518-0.030 20.276-0.215-1.008-0.22-2.041-0.192-3.064z"></path>
<path fill="#37437f" d="M21.322 3.724c1.038-0.894 2.443-0.531 3.688-0.652 1.107-0.083 2.264-0.164 3.282 0.359-2.112 0.045-4.229-0.071-6.341 0.083-0.023 0.705-0.040 1.412-0.038 2.117 0.020 1.733 0.116 3.469 0.298 5.194 2.036 0.26 4.083 0.056 6.119-0.056-1.864 1.172-4.272 0.227-6.369 0.515-0.419-2.506 0.126-5.093-0.639-7.561z"></path>
<path fill="#aa5857" d="M21.951 3.514c2.112-0.154 4.229-0.038 6.341-0.083-0.028 0.728-0.038 1.458-0.023 2.185-2.117 0.053-4.237 0.056-6.356 0.015-0.003-0.705 0.015-1.412 0.038-2.117M22.568 4.065c0.003 0.313 0.005 0.627 0.008 0.937 0.283-0.005 0.566-0.010 0.849-0.015 0.013-0.313 0.025-0.629 0.035-0.945-0.296 0.008-0.594 0.015-0.892 0.023M23.982 4.042c-0.010 0.331-0.020 0.662-0.030 0.995 0.184-0.013 0.553-0.035 0.738-0.048 0.028-0.313 0.056-0.627 0.083-0.94-0.197-0.003-0.594-0.008-0.791-0.008M25.268 4.055c-0.003 0.298-0.003 0.599 0 0.899 0.2 0.015 0.599 0.048 0.798 0.066-0.015-0.328-0.030-0.654-0.043-0.983-0.189 0.005-0.568 0.013-0.755 0.018M26.605 4.095c-0.003 0.291-0.005 0.579-0.008 0.869 0.283 0.005 0.568 0.010 0.854 0.013-0.013-0.296-0.025-0.594-0.038-0.892-0.27 0.003-0.538 0.005-0.808 0.010z"></path>
<path fill="#46425a" d="M3.034 4.196c0.965 0.222-0.596 0.882 0 0z"></path>
<path fill="#fff7d3" d="M22.568 4.065c0.298-0.008 0.596-0.015 0.892-0.023-0.010 0.316-0.023 0.632-0.035 0.945-0.283 0.005-0.566 0.010-0.849 0.015-0.003-0.311-0.005-0.624-0.008-0.937z"></path>
<path fill="#f9d7c1" d="M23.982 4.042c0.197 0 0.594 0.005 0.791 0.008-0.028 0.313-0.056 0.627-0.083 0.94-0.184 0.013-0.553 0.035-0.738 0.048 0.010-0.333 0.020-0.664 0.030-0.995z"></path>
<path fill="#f7dec2" d="M25.268 4.055c0.187-0.005 0.566-0.013 0.755-0.018 0.013 0.328 0.028 0.654 0.043 0.983-0.2-0.018-0.599-0.051-0.798-0.066-0.003-0.301-0.003-0.601 0-0.899z"></path>
<path fill="#fffbd6" d="M26.605 4.095c0.27-0.005 0.538-0.008 0.808-0.010 0.013 0.298 0.025 0.596 0.038 0.892-0.285-0.003-0.571-0.008-0.854-0.013 0.003-0.291 0.005-0.579 0.008-0.869z"></path>
<path fill="#1e453b" d="M21.913 5.631c2.12 0.040 4.239 0.038 6.356-0.015 0.096 1.718-0.111 3.438 0.061 5.154-2.036 0.111-4.083 0.316-6.119 0.056-0.182-1.725-0.278-3.461-0.298-5.194M23.56 6.503c-0.935 0.92-0.945 2.612 0.192 3.378 0.369-0.508 0.599-1.089 0.74-1.695-0.167-0.028-0.5-0.078-0.667-0.106-0.023 0.399-0.051 0.796-0.081 1.192-0.543-0.561-0.485-1.314-0.326-2.016 0.331 0.129 0.664 0.255 1 0.379-0.182-0.452-0.477-0.831-0.859-1.132M25.309 6.851c0.025 0.222 0.053 0.445 0.078 0.667 0.366-0.091 0.735-0.177 1.104-0.26-0.551 0.725-1.195 1.422-1.326 2.365 0.533 0.010 1.066 0.015 1.602 0.018-0.003-0.167-0.003-0.5-0.003-0.667-0.344-0.003-0.687-0.008-1.031-0.018 0.452-0.483 1.339-1.013 0.96-1.799-0.134-0.687-0.922-0.384-1.384-0.306z"></path>
<path fill="#1e453b" d="M14.435 16.28c1.165-0.25-0.237 1.172 0 0z"></path>
<path fill="#1e453b" d="M42.829 16.408c1.003-0.195-0.25 1.016 0 0z"></path>
<path fill="#1e453b" d="M9.827 17.315c0.591-0.321 1.367-0.467 1.91 0.035-0.637 0.056-1.276 0.040-1.91-0.035z"></path>
<path fill="#1e453b" d="M15.522 16.964c0.816-0.045-0.217 0.892-0.586 0.568-0.111-0.323 0.341-0.51 0.586-0.568z"></path>
<path fill="#1e453b" d="M44.056 17.040c0.523 0.268-0.652 0.94-0.786 0.45 0.096-0.316 0.483-0.46 0.786-0.45z"></path>
<path fill="#1e453b" d="M4.878 17.146c1.177-0.205-0.321 1.157 0 0z"></path>
<path fill="#1e453b" d="M6.518 17.118c0.116 0.010 0.354 0.033 0.472 0.043-0.008 0.503-0.010 1.008 0.005 1.511-0.303-0.268-0.616-0.523-0.937-0.771 0.195 0.018 0.581 0.051 0.773 0.068-0.106-0.283-0.21-0.566-0.313-0.851z"></path>
<path fill="#1e453b" d="M16.211 18.2c1.296 0.298-0.829 1.023 0 0z"></path>
<path fill="#1e453b" d="M44.524 18.389c1.18-0.255-0.25 1.162 0 0z"></path>
<path fill="#f3ffff" d="M25.309 6.851c0.462-0.078 1.251-0.381 1.384 0.306 0.379 0.786-0.508 1.316-0.96 1.799 0.344 0.010 0.687 0.015 1.031 0.018 0 0.167 0 0.5 0.003 0.667-0.536-0.003-1.069-0.008-1.602-0.018 0.131-0.942 0.776-1.64 1.326-2.365-0.369 0.083-0.738 0.169-1.104 0.26-0.025-0.222-0.053-0.445-0.078-0.667z"></path>
<path fill="#f3ffff" d="M10.244 15.832c0.091-0.101 0.273-0.303 0.364-0.404 0.75 0.27 1.526 0.462 2.279 0.73-1.225 0.038-2.448 0.104-3.673 0.152-0.169-0.116-0.326-0.253-0.465-0.409 0.498-0.035 0.995-0.056 1.496-0.068z"></path>
<path fill="#f3ffff" d="M38.511 15.519c0.111 0.101 0.328 0.303 0.44 0.407-0.068 1.162-0.051 2.327-0.035 3.489l0.003 0.313c-0.24-0.268-0.465-0.548-0.677-0.836-0.313 0.104-0.629 0.207-0.945 0.306-0.071-0.662 0.586-0.813 1.046-1.056 0.020-0.202 0.061-0.609 0.078-0.811-0.313-0.013-0.629-0.025-0.945-0.035-0.023-0.134-0.071-0.397-0.096-0.531 0.328-0.003 0.657-0.005 0.985-0.008 0.045-0.414 0.093-0.826 0.147-1.238z"></path>
<path fill="#fdfdf6" d="M23.871 16.295c0.629-1.245-0.23-2.976 1.114-3.936 1.177 0.955 0.765 2.519 0.854 3.835 1.379 0.68 2.966 0.298 4.441 0.397 0.28 0.296 0.566 0.591 0.851 0.884-1.2 1.559-3.304 0.442-4.901 0.942-0.717 0.475-0.351 1.501-0.477 2.223-0.543 0-1.086 0.003-1.627 0.005-0.093-0.717 0.202-1.677-0.389-2.208-1.319-0.333-2.713-0.104-4.060-0.147-0.321-0.291-0.639-0.584-0.957-0.877 1.218-1.736 3.544-0.278 5.151-1.119z"></path>
<path fill="#efeefe" d="M5.578 15.916c0.157-0.202 0.316-0.407 0.475-0.609 0.088 0.149 0.268 0.445 0.356 0.594 0.538 0.018 1.076 0.051 1.612 0.109-0.46 0.536-1.197 0.371-1.816 0.437l0.023 0.227c0.45-0.013 0.897-0.023 1.344-0.033-0.086 1 0.376 2.319-0.705 2.908-0.172-0.356-0.341-0.712-0.513-1.069-0.083 0.2-0.248 0.599-0.331 0.798-0.308-0.273-0.619-0.541-0.935-0.803-0.192 0.397-0.392 0.793-0.677 1.134-0.114-0.96-0.083-1.928-0.078-2.893 0.498-0.051 0.993-0.104 1.488-0.182-0.584-0.096-1.175-0.139-1.766-0.182-0.008-0.106-0.020-0.321-0.025-0.429 0.515-0.005 1.031-0.008 1.549-0.008M4.878 17.146c-0.321 1.157 1.177-0.205 0 0M6.518 17.118c0.104 0.285 0.207 0.568 0.313 0.851-0.192-0.018-0.579-0.051-0.773-0.068 0.321 0.248 0.634 0.503 0.937 0.771-0.015-0.503-0.013-1.008-0.005-1.511-0.119-0.010-0.356-0.033-0.472-0.043M4.949 17.955c0.225 0.97 0.884-0.563 0 0z"></path>
<path fill="#e4e2e8" d="M15.772 15.491c0.503 0.202 1.008 0.389 1.521 0.561-0.157 0.356-0.316 0.71-0.475 1.064 0.169 0.073 0.51 0.22 0.68 0.293-0.27 0.654-0.366 1.354-0.392 2.056-0.498-0.169-1.016-0.197-1.506 0.013-0.068-0.159-0.202-0.475-0.27-0.634-0.541 0.207-1.089 0.518-1.69 0.455 0.091-0.715 0.134-1.501 0.627-2.077-0.131-0.081-0.263-0.162-0.394-0.243 0.033-0.412 0.068-0.824 0.104-1.235 0.417 0.010 0.836 0.020 1.253 0.028 0.106 0.255 0.215 0.508 0.323 0.763 0.073-0.349 0.149-0.697 0.22-1.043M14.435 16.28c-0.237 1.172 1.165-0.25 0 0M15.522 16.964c-0.245 0.058-0.697 0.245-0.586 0.568 0.369 0.323 1.402-0.614 0.586-0.568M15.236 17.985c-0.894 0.553 0.872 0.546 0 0M16.211 18.2c-0.829 1.023 1.296 0.298 0 0z"></path>
<path fill="#161c48" d="M38.951 15.926l0.081-0.402c0.144 0.548 0.248 1.107 0.258 1.675l0.003 0.195c-0.053 0.685-0.088 1.384-0.376 2.021-0.015-1.162-0.033-2.327 0.035-3.489z"></path>
<path fill="#eaf5f3" d="M44.236 15.587c0.498 0.192 0.998 0.371 1.506 0.541-0.179 0.359-0.354 0.72-0.528 1.079 0.245 0.104 0.49 0.205 0.738 0.306-0.387 0.657-0.437 1.417-0.445 2.163-0.26-0.152-0.52-0.303-0.778-0.457-0.23 0.159-0.457 0.318-0.685 0.475-0.038-0.215-0.111-0.649-0.149-0.864-0.599 0.248-1.2 0.49-1.804 0.725 0.056-0.758 0.025-1.564 0.404-2.248-0.071-0.477-0.139-0.957-0.202-1.437 0.455 0 0.912 0 1.367-0.003 0.028 0.245 0.081 0.738 0.109 0.983 0.164-0.417 0.316-0.839 0.467-1.261M42.829 16.408c-0.25 1.016 1.003-0.195 0 0M44.056 17.040c-0.303-0.010-0.69 0.134-0.786 0.45 0.134 0.49 1.309-0.182 0.786-0.45M43.518 18.207c0.068 0.846 0.743-0.422 0 0M44.524 18.389c-0.25 1.162 1.18-0.255 0 0z"></path>
<path fill="#9897c0" d="M9.213 16.31c1.225-0.048 2.448-0.114 3.673-0.152-0.243 0.152-0.495 0.288-0.753 0.414-0.788 0.126-1.594 0.144-2.39 0.073-0.131-0.083-0.399-0.253-0.531-0.336z"></path>
<path fill="#f7ffff" d="M9.491 16.626l0.253 0.020c0.796 0.071 1.602 0.053 2.39-0.073-0.033 0.538-0.101 1.074-0.207 1.604 0.225 0.134 0.452 0.27 0.677 0.407-0.086 0.197-0.172 0.397-0.258 0.596-0.333-0.258-0.675-0.505-1.018-0.745 0.111-0.189 0.339-0.568 0.45-0.758-0.902 0.040-0.725 0.897-0.778 1.533-0.303 0.083-0.606 0.162-0.907 0.243 0.164-0.604 0.528-1.256 0.096-1.839-0.106 0.614-0.445 1.124-0.872 1.559-0.124-0.073-0.369-0.225-0.493-0.298 0.248-0.253 0.498-0.505 0.748-0.755-0.035-0.498-0.061-0.995-0.081-1.493M9.827 17.315c0.634 0.076 1.273 0.091 1.91 0.035-0.543-0.503-1.319-0.356-1.91-0.035z"></path>
<path fill="#585e6b" d="M4.949 17.955c0.884-0.563 0.225 0.97 0 0z"></path>
<path fill="#4f5962" d="M15.236 17.985c0.872 0.546-0.894 0.553 0 0z"></path>
<path fill="#d8eaf7" d="M35.002 17.785c0.568 0.184 0.965 0.619 1.299 1.094-0.157 0.091-0.472 0.273-0.632 0.364-0.24-0.477-0.47-0.96-0.667-1.458z"></path>
<path fill="#393559" d="M43.518 18.207c0.743-0.422 0.068 0.846 0 0z"></path>
<path fill="#8086c3" d="M1.731 23.063c7.033 0.028 14.074-0.195 21.102 0.096-7.028 0.101-14.077 0.129-21.102-0.096z"></path>
</svg>
