<!-- Generated by IcoMoon.io -->
<svg version="1.1" xmlns="http://www.w3.org/2000/svg" width="24" height="24" viewBox="0 0 24 24">
<title>information--end-of-minimum-speed-90--g1</title>
<path fill="#fff" d="M11.095 0h1.835c1.769 0.16 3.514 0.669 5.050 1.569 2.546 1.451 4.524 3.868 5.438 6.653 0.314 0.93 0.487 1.9 0.582 2.875v1.83c-0.161 1.769-0.67 3.516-1.57 5.053-1.537 2.7-4.161 4.757-7.155 5.592-0.762 0.224-1.55 0.339-2.337 0.428h-1.867c-1.724-0.155-3.421-0.647-4.931-1.499-2.633-1.467-4.68-3.953-5.593-6.828-0.292-0.885-0.449-1.808-0.547-2.733v-1.871c0.101-0.99 0.279-1.975 0.605-2.918 0.956-2.858 3.038-5.31 5.689-6.738 1.478-0.805 3.127-1.269 4.801-1.413M5.398 2.681c-2.529 1.776-4.276 4.62-4.704 7.682-0.465 3.108 0.436 6.383 2.423 8.818l-0.042 0.039c0.559 0.578 1.129 1.147 1.706 1.706l0.039-0.042c1.207 0.972 2.609 1.703 4.103 2.115 3.249 0.932 6.9 0.307 9.651-1.659 2.504-1.748 4.248-4.54 4.711-7.56 0.512-3.15-0.383-6.488-2.4-8.96l0.041-0.039c-0.558-0.579-1.128-1.147-1.705-1.707l-0.039 0.042c-1.254-1.012-2.722-1.761-4.283-2.167-3.217-0.861-6.796-0.214-9.501 1.732z"></path>
<path fill="#fff" d="M12.896 7.928c0.476-1.605 2.245-2.574 3.864-2.388-1.348 1.349-2.697 2.698-4.046 4.046-0.009-0.557 0.015-1.123 0.182-1.658z"></path>
<path fill="#fff" d="M4.967 6.795c0.854-0.881 2.124-1.352 3.347-1.194 1.159 0.177 2.207 0.965 2.729 2.010 0.512 1.090 0.489 2.372 0.13 3.504-1.367 1.382-2.736 2.765-4.128 4.121 0.322-0.715 0.697-1.407 1.039-2.113-1.273 0.435-2.807-0.086-3.516-1.237-0.459-0.781-0.522-1.722-0.482-2.608 0.046-0.885 0.266-1.814 0.881-2.483M7.519 7.479c-0.706 0.112-1.374 0.642-1.491 1.374-0.135 0.771-0.114 1.716 0.509 2.28 0.685 0.628 1.862 0.598 2.509-0.072 0.414-0.413 0.497-1.035 0.491-1.594-0.008-0.573-0.12-1.207-0.565-1.611-0.39-0.348-0.949-0.432-1.453-0.377z"></path>
<path fill="#fff" d="M17.7 8.001c0.45-0.451 0.901-0.901 1.351-1.351 0.649 0.653 0.935 1.586 0.936 2.492 0.003 1.906 0.001 3.811 0.001 5.717 0.001 0.835-0.212 1.703-0.762 2.35-0.688 0.798-1.718 1.299-2.775 1.313-1.304 0.046-2.637-0.638-3.292-1.778-0.644-1.145-0.393-2.5-0.45-3.751 0.628-0.631 1.256-1.262 1.889-1.888 0.010 1.189 0.001 2.378 0.004 3.566-0.006 0.488 0.087 1.008 0.409 1.392 0.681 0.82 2.16 0.772 2.762-0.117 0.246-0.357 0.33-0.801 0.325-1.229 0-1.812 0.001-3.624-0-5.436 0.005-0.455-0.118-0.918-0.399-1.281z"></path>
<path fill="#fff" d="M7.229 18.476c0.179-0.178 0.347-0.366 0.542-0.526-0.116 0.236-0.181 0.651-0.542 0.526z"></path>
<path fill="#00f" d="M5.398 2.681c2.705-1.945 6.284-2.592 9.501-1.732 1.56 0.406 3.028 1.155 4.283 2.167-0.803 0.811-1.614 1.616-2.421 2.424-1.619-0.186-3.388 0.784-3.864 2.388-0.167 0.535-0.191 1.101-0.182 1.658-0.515 0.509-1.016 1.031-1.541 1.529 0.359-1.132 0.382-2.414-0.13-3.504-0.522-1.045-1.57-1.833-2.729-2.010-1.223-0.158-2.493 0.313-3.347 1.194-0.615 0.669-0.835 1.599-0.881 2.483-0.039 0.886 0.023 1.827 0.482 2.608 0.709 1.15 2.243 1.672 3.516 1.237-0.342 0.706-0.717 1.398-1.039 2.113-1.291 1.333-2.619 2.63-3.929 3.944-1.987-2.434-2.888-5.71-2.423-8.818 0.428-3.062 2.175-5.906 4.704-7.682z"></path>
<path fill="#00f" d="M19.052 6.65c0.611-0.61 1.219-1.223 1.832-1.83 2.017 2.472 2.912 5.811 2.4 8.96-0.463 3.020-2.207 5.812-4.711 7.56-2.751 1.965-6.401 2.591-9.651 1.659-1.494-0.412-2.896-1.144-4.103-2.115 0.801-0.805 1.603-1.608 2.408-2.408 0.361 0.125 0.426-0.29 0.542-0.526 1.628-1.67 3.294-3.304 4.94-4.956 0.057 1.252-0.194 2.606 0.45 3.751 0.654 1.14 1.988 1.824 3.292 1.778 1.057-0.014 2.087-0.516 2.775-1.313 0.55-0.647 0.763-1.515 0.762-2.35 0-1.906 0.002-3.811-0.001-5.717-0.001-0.906-0.287-1.838-0.936-2.492z"></path>
<path fill="#00f" d="M7.519 7.479c0.504-0.054 1.063 0.029 1.453 0.377 0.444 0.404 0.556 1.038 0.565 1.611 0.006 0.559-0.077 1.18-0.491 1.594-0.646 0.67-1.824 0.7-2.509 0.072-0.623-0.564-0.644-1.509-0.509-2.28 0.117-0.732 0.785-1.262 1.491-1.374z"></path>
<path fill="#00f" d="M14.6 11.106c1.030-1.038 2.068-2.070 3.101-3.105 0.281 0.363 0.404 0.826 0.399 1.281 0.001 1.812 0 3.624 0 5.436 0.006 0.428-0.079 0.871-0.325 1.229-0.603 0.889-2.082 0.938-2.762 0.117-0.322-0.384-0.415-0.904-0.409-1.392-0.003-1.189 0.006-2.378-0.004-3.566z"></path>
<path fill="#f00" d="M19.181 3.116l0.039-0.042c0.578 0.56 1.148 1.128 1.705 1.707l-0.041 0.039c-0.613 0.608-1.221 1.22-1.832 1.83-0.45 0.45-0.901 0.9-1.351 1.351-1.033 1.035-2.071 2.066-3.101 3.105-0.633 0.626-1.261 1.256-1.889 1.888-1.646 1.652-3.312 3.286-4.94 4.956-0.195 0.16-0.363 0.349-0.542 0.526-0.805 0.8-1.608 1.603-2.408 2.408l-0.039 0.042c-0.578-0.56-1.147-1.129-1.706-1.706l0.042-0.039c1.31-1.314 2.638-2.611 3.929-3.944 1.392-1.356 2.761-2.739 4.128-4.121 0.525-0.498 1.026-1.020 1.541-1.529 1.349-1.349 2.698-2.697 4.046-4.046 0.807-0.808 1.618-1.613 2.421-2.424z"></path>
</svg>
