<svg xmlns="http://www.w3.org/2000/svg" width="24" height="24">
    <path fill="#0d0d0d" opacity=".18" d="M4 0h.248l.043.017a.464.464 0 0 1-.262.215L4 .184V0z"/>
    <path fill="#929292" opacity=".91" d="M4.248 0h15.506l.089.066C15.019.101 10.194.065 5.369.084c-.36.002-.726.022-1.078-.067L4.248 0z"/>
    <path fill="#151515" opacity=".27" d="M19.754 0h.354v.336l-.066-.081a1.77 1.77 0 0 0-.198-.189L19.755 0z"/>
    <path fill="#fff" d="M4.029.232a.464.464 0 0 0 .262-.215c.353.089.718.069 1.078.067 4.825-.019 9.65.017 14.474-.018.071.058.137.121.198.189-.036 7.512.001 15.024-.019 22.537-.002.325-.012.655.052.976a.279.279 0 0 0-.196.197c-.456-.083-.921-.04-1.381-.046H5.61c-.46.006-.925-.037-1.38.046a.265.265 0 0 0-.195-.193c.082-.457.039-.922.045-1.383L4.079 1.61c-.007-.459.044-.925-.051-1.379zm.387.093c-.206.355-.042.87-.091 1.285-.002 7.25.002 14.5-.002 21.75-.016.155.029.37.235.325 4.942.009 9.884-.001 14.826.005a1.63 1.63 0 0 0 .368-.042c.069-.415.019-.839.031-1.259-.001-7.277.002-14.554-.003-21.831.053-.297-.284-.261-.479-.261C14.34.321 9.373.265 4.415.325z"/>
    <path fill="#fff" d="M16.362 5.948c.358-.743.832-1.43 1.239-2.148.424.722.925 1.405 1.294 2.156-.079.412-.568.089-.817.048-.002 5.585.004 11.17.003 16.756l-.884-.001c.075-.874-.045-1.831-.705-2.472-.798-.714-1.762-1.208-2.7-1.711-.09.229-.05.78-.432.666-.475-.682-.819-1.453-1.247-2.168.888.031 1.787-.072 2.668.06-.159.244-.374.442-.581.643 1.008.617 2.086 1.13 2.997 1.893-.002-1.645.001-3.291-.002-4.936-.008-.9-.35-1.811-1.029-2.419-.708-.641-1.553-1.108-2.389-1.558-.064.222-.073.474-.213.668-.181.094-.319-.081-.39-.225-.356-.648-.715-1.295-1.074-1.942.89.032 1.792-.081 2.672.068-.163.24-.377.436-.584.636 1.074.631 2.219 1.22 3.01 2.216-.005-2.067.001-4.132-.002-6.199-.255.052-.779.408-.834-.031zM5.724 5.486l.191-.023c.172.482.351.961.523 1.442l-.227-.001-.113-.328c-.183.001-.366.002-.548.006l-.114.325-.225-.001c.169-.474.347-.945.513-1.42zm.101.287l-.205.617.413-.002a63.431 63.431 0 0 0-.208-.615zM9.075 5.461l.205.011-.003.416c.435-.142.723.231.61.64.033.47-.507.39-.814.375 0-.481-.002-.962.002-1.442zm.226.635c-.01.201-.009.401.002.602l.355.001c.015-.201.015-.403.003-.603a14.4 14.4 0 0 0-.36.001zM11.104 5.466h.205l.002.388c.193.035.466-.007.573.202.071.278.031.569.036.852l-.203-.005c-.011-.275.117-1.009-.365-.766-.068.25-.041.512-.047.768l-.201.001c-.002-.481-.002-.961-.001-1.441zM6.519 5.886l.203-.006c.037.275-.143.929.33.814.139-.244.064-.54.082-.808l.204-.005V6.91c-.251-.02-.581.088-.765-.143-.101-.279-.039-.59-.054-.881zM8.287 5.902c.407-.172.687.296.577.65-.01.397-.611.502-.78.158-.101-.263-.106-.681.202-.808zm-.001.23c-.066.184-.121.542.143.58.409.032.275-.886-.143-.58zM10.007 6.197c.107-.33.548-.445.792-.196.101.291.043.609.055.911-.275-.005-.783.102-.801-.308 0-.328.385-.297.614-.319l-.051-.23c-.205.038-.404.101-.609.141zm.193.318c.049.205.25.211.42.225l.043-.275c-.155.013-.308.03-.462.05zM12.164 5.876c.256.021.602-.085.775.165.083.276.035.573.046.858l-.2.015c-.053-.266.141-.812-.248-.838-.292.139-.119.568-.172.834l-.201-.007V5.876zM5.215 7.349l.201.01c.001.232.002.465.006.697.159-.229.312-.462.462-.697l.243-.006c-.129.207-.26.412-.391.618l.428.829-.225-.002c-.118-.217-.233-.438-.375-.641-.122.229-.082.56-.333.701-.037-.502-.015-1.006-.016-1.509zM11.527 7.369l.2-.01.005.416c.201.004.481-.031.581.192.066.268.027.548.037.821l-.205.019c-.044-.261.147-.898-.303-.811-.201.205-.075.55-.115.813l-.201-.023c.002-.472.002-.944.001-1.417zM8.156 7.364l.219.001v1.438h-.219V7.365zM6.231 8.08c.115-.333.585-.445.809-.165.073.289.033.591.04.886-.27-.011-.746.107-.801-.275-.031-.349.387-.335.626-.358a11.742 11.742 0 0 0-.085-.225c-.197.042-.392.093-.59.138zm.25.296l.007.228.342.022.074-.263c-.141.003-.283.008-.424.013zM7.386 7.773c.249-.002.499-.002.745.047-.147.129-.338.163-.524.198-.015.255-.019.511-.019.768l-.202.022c-.002-.345-.002-.689-.001-1.034zM8.594 7.983c.137-.345.594-.221.838-.078-.208.176-.533-.035-.689.216.241.079.708.036.659.416-.093.395-.602.296-.874.161l.062-.176c.225.072.503.18.67-.06-.252-.088-.771-.072-.666-.478zM9.603 7.774c.233.001.466.001.698.022l-.1.195-.352-.024c-.045.275-.043.555-.047.833h-.2V7.775zM11.017 7.769l.201.006c0 .341-.001.681.002 1.02-.252-.012-.571.094-.762-.126-.111-.281-.042-.598-.059-.895l.203.001c.055.257-.151.796.234.831.312-.122.126-.573.182-.837z"/>
    <path fill="#fff" d="M12.735 8.734c-.324-.263-.216-1.006.274-.976.316.002.403.339.431.592-.242.008-.484.011-.726.022.105.246.34.274.564.18l.123.152c-.211.066-.461.178-.665.031zm-.017-.557c.175.006.35.006.525.001-.109-.27-.413-.267-.525-.001zM5.232 9.67c.019-.225.304-.149.457-.169 1.024.031 2.055-.055 3.075.048-.018.618.064 1.246-.041 1.857-1.148.084-2.309.014-3.462.034-.068-.586-.044-1.181-.029-1.769zm.086-.064a45.719 45.719 0 0 0-.001 1.737c1.114.024 2.23.016 3.345.004.019-.581.019-1.163-.001-1.744a116.417 116.417 0 0 0-3.343.002z"/>
    <path fill="#fff" d="M5.584 9.843h.772l.006.174-.594.001-.001.345.509.002-.009.163h-.5v.355l.591.001.002.174h-.777c-.001-.405-.001-.81.001-1.215zM6.832 9.842c.246-.002.491-.001.736.006-.18.424-.209 1.008-.635 1.261.103-.376.267-.73.4-1.095l-.238-.003c-.076.079-.152.157-.23.234-.013-.135-.023-.269-.034-.403zM7.889 9.847c.541-.103.469.597.43.936-.018.372-.651.373-.668.001.005-.304-.141-.808.238-.937zm-.022 1.033c.482.06.252-.62.242-.91-.446.043-.306.608-.242.91zM6.309 13.327l.18-.03c.183.498.379.991.534 1.5-.206-.019-.289-.195-.357-.362a18.595 18.595 0 0 0-.528-.009l-.118.329-.227-.001c.173-.476.35-.95.517-1.427zm.099.317c-.071.195-.139.391-.208.586l.417.004c-.068-.197-.136-.395-.209-.59zM9.656 13.314l.204-.002.001.43c.587-.217.78.535.511.925-.198.163-.482.064-.717.086 0-.48-.001-.96.001-1.44zm.229.647c-.004.204.001.408.021.611.416.069.386-.375.317-.651-.113.012-.225.026-.337.039zM11.686 13.319l.202-.011.005.414c.202.002.49-.027.581.205.06.268.025.548.032.821l-.203.012c-.043-.263.148-.904-.308-.814-.191.215-.069.55-.106.815l-.204-.015c.002-.476.002-.951.001-1.426zM8.175 14.754c.06-.474-.201-1.026.181-1.414l.028.327.165.13-.173.164c.003.265.003.53.002.795l-.204-.001zM7.719 13.724l.201.005.001 1.023c-.261-.007-.636.104-.789-.184-.056-.275-.025-.56-.03-.839l.204.001c.055.259-.135.708.175.83.387-.031.184-.572.238-.835zM8.943 13.724c.619-.139.725.991.135 1.041-.574.068-.65-.928-.135-1.041zm-.017.211c-.146.154-.172.492.023.612.43.137.408-.774-.023-.612zM10.597 14.035c.101-.338.585-.44.799-.162.078.287.034.59.042.883-.195.001-.391.024-.584-.01-.248-.051-.3-.443-.068-.549.167-.044.341-.054.511-.079-.122-.324-.458-.123-.699-.082zm.213.387c.029.197.254.13.395.157l.039-.281c-.141.04-.332 0-.433.124zM12.747 13.731c.258.014.621-.096.782.176.069.276.029.565.037.847l-.204.001c-.035-.263.142-.923-.321-.803-.165.226-.062.54-.091.802l-.204.001v-1.024zM5.81 16.641c.007-.505-.019-1.011.022-1.514.35.218.4.665.587 1.002.185-.337.23-.784.579-1.002.039.503.015 1.009.022 1.514l-.197.011c-.009-.303-.009-.605-.014-.907-.13.258-.183.59-.456.743-.116-.246-.22-.495-.331-.743-.005.302-.005.604-.013.906a13.25 13.25 0 0 1-.199-.01zM7.409 15.225l.238-.032-.034.24-.188-.017-.016-.191zM7.85 15.197l.237.018-.015.204-.192.015-.03-.236zM10.569 15.201h.207l-.01.398c.201.031.5-.013.589.222.052.271.021.548.026.823l-.2.006c-.031-.282.139-.984-.357-.809-.085.258-.044.536-.053.804h-.202v-1.443zM7.345 15.619l.205.001c.05.264-.148.783.23.836.308-.127.132-.573.18-.838l.204.004.001 1.021c-.256-.015-.599.101-.775-.151-.083-.282-.036-.582-.045-.872zM8.479 15.615c.254.023.6-.085.772.163.088.279.036.58.046.868h-.202c-.052-.26.146-.812-.244-.825-.299.135-.117.571-.172.834a14.076 14.076 0 0 1-.203-.026c.003-.338.002-.676.002-1.014zM9.96 16.672c-.584-.019-.532-1.148.076-1.049.229.025.263.276.308.455a2.494 2.494 0 0 1-.445-.289c-.155.194-.137.437-.065.662.168-.019.338-.035.508-.032-.112.101-.213.259-.383.254zM11.91 16.648c-.455-.191-.332-1.114.225-1.022.297.025.349.354.387.59-.245.006-.49.013-.735.031.128.253.374.249.606.165l.054.184c-.175.035-.359.113-.537.052zm-.116-.607a9.1 9.1 0 0 0 .548.002c-.132-.261-.42-.288-.548-.002zM12.754 15.615c.25.023.583-.079.76.155.094.279.036.585.049.876h-.2c-.047-.269.153-.906-.302-.829-.202.235-.064.602-.119.891-.373-.21-.12-.741-.188-1.093z"/>
    <path fill="#7a7a7a" opacity=".88" d="M4 .184l.029.048c.094.453.043.92.051 1.379l.001 20.779c-.006.461.037.926-.045 1.383l-.035.047V.186z"/>
    <path fill="#2b2c7c" d="M4.416.325C9.374.265 14.341.321 19.302.297c.196 0 .532-.036.479.261.005 7.277.002 14.555.003 21.831-.013.42.038.844-.031 1.259-.12.031-.245.038-.368.042-4.942-.006-9.884.004-14.826-.005-.206.046-.251-.17-.235-.325.004-7.25-.001-14.5.002-21.75.049-.416-.115-.93.091-1.285zm2.656 1.126c.001.675-.075 1.368.043 2.034 2.791.057 5.588.019 8.381.019.075-.735.046-1.477.019-2.213-2.684-.055-5.37-.005-8.055-.026-.142.014-.41-.031-.39.187zm8.938-.154c-.133.649-.033 1.334-.054 1.995-.027.256.275.221.444.223.869-.025 1.741.035 2.608-.029.111-.71.068-1.455.023-2.172-.999-.089-2.018-.057-3.02-.017zm.352 4.651c.055.439.578.082.834.031.003 2.067-.002 4.132.002 6.199-.791-.995-1.935-1.585-3.01-2.216.207-.201.421-.396.584-.636-.88-.149-1.782-.035-2.672-.068.359.647.718 1.293 1.074 1.942.071.144.209.32.39.225.14-.193.149-.445.213-.668.836.45 1.681.917 2.389 1.558.679.607 1.021 1.519 1.029 2.419.002 1.645-.001 3.291.002 4.936-.911-.763-1.989-1.276-2.997-1.893.207-.201.422-.399.581-.643-.881-.132-1.78-.03-2.668-.06.428.715.772 1.486 1.247 2.168.382.114.341-.437.432-.666.938.503 1.902.996 2.7 1.711.66.641.78 1.599.705 2.472l.884.001c.001-5.585-.005-11.17-.003-16.756.25.041.739.363.817-.048-.37-.751-.87-1.434-1.294-2.156-.407.718-.881 1.405-1.239 2.148zM5.724 5.486c-.166.475-.344.945-.513 1.42l.225.001.114-.325.548-.006.113.328.227.001c-.172-.481-.351-.96-.524-1.442l-.191.023zm3.351-.025c-.004.481-.002.962-.002 1.442.307.015.847.095.814-.375.113-.409-.176-.782-.61-.64l.003-.416a14.07 14.07 0 0 1-.205-.011zm2.029.005c-.001.48-.002.96.001 1.441l.201-.001c.006-.256-.021-.519.047-.768.482-.243.354.49.365.766l.203.005c-.005-.284.035-.574-.036-.852-.107-.209-.38-.167-.573-.202l-.002-.388h-.205zm-3.645.507l.133.112c-.004.275-.003.552-.001.827l.205-.008c0-.267-.002-.533.002-.799.279-.126-.051-.392-.056-.59-.093.154-.187.307-.284.458zm-.94-.087c.015.292-.048.602.054.881.184.231.514.123.765.143V5.881l-.204.005c-.019.267.056.564-.082.808-.473.114-.293-.54-.33-.814l-.203.006zm1.768.016c-.308.126-.304.544-.202.808.168.344.769.239.78-.158.11-.354-.171-.822-.577-.65zm1.72.295c.205-.04.403-.103.609-.141l.051.23c-.229.022-.614-.009-.614.319.019.41.526.303.801.308-.012-.302.047-.62-.055-.911-.244-.25-.685-.135-.792.196zm2.157-.321v1.027l.201.007c.053-.266-.12-.695.172-.834.389.026.195.572.248.838l.2-.015c-.011-.285.037-.581-.046-.858-.173-.25-.519-.144-.775-.165zM5.215 7.349c.001.503-.021 1.008.016 1.509.251-.141.212-.472.333-.701.143.203.257.424.375.641l.225.002-.428-.829c.13-.205.262-.411.391-.618a20.2 20.2 0 0 1-.243.006c-.151.234-.303.468-.462.697a54.14 54.14 0 0 1-.006-.697l-.201-.01zm6.312.02c.002.473.002.945-.001 1.417l.201.023c.04-.263-.085-.607.115-.813.45-.087.259.55.303.811l.205-.019c-.01-.273.029-.553-.037-.821-.1-.222-.38-.188-.581-.192l-.005-.416-.2.01zm-3.371-.005v1.438h.219V7.364l-.219-.001zm-1.925.716c.197-.044.392-.096.59-.138l.085.225c-.239.023-.657.009-.626.358.055.383.531.264.801.275-.007-.295.033-.597-.04-.886-.224-.28-.694-.168-.809.165zm1.155-.307c-.002.345-.002.689.001 1.034l.202-.022c0-.256.003-.512.019-.768.185-.035.376-.069.524-.198a3.718 3.718 0 0 0-.745-.047zm1.208.21c-.105.407.414.391.666.478-.168.24-.445.132-.67.06l-.062.176c.272.135.781.234.874-.161.049-.38-.418-.337-.659-.416.156-.25.482-.039.689-.216-.245-.143-.701-.267-.838.078zm1.009-.209v1.025h.2c.004-.278.002-.557.047-.833l.352.024.1-.195c-.232-.021-.465-.021-.698-.022zm1.414-.005c-.056.264.13.714-.182.837-.385-.035-.179-.574-.234-.831l-.203-.001c.017.296-.052.614.059.895.191.221.51.114.762.126-.002-.34-.002-.68-.002-1.02l-.201-.006zm1.718.965c.205.147.454.035.665-.031l-.123-.152c-.224.094-.458.067-.564-.18.242-.01.485-.014.726-.022-.028-.253-.114-.59-.431-.592-.49-.03-.598.713-.274.976zm-7.503.936c-.015.589-.039 1.183.029 1.769 1.153-.02 2.314.05 3.462-.034.105-.611.023-1.239.041-1.857-1.02-.102-2.05-.016-3.075-.048-.153.02-.438-.056-.457.169zm1.077 3.657c-.168.477-.344.951-.517 1.427l.227.001.118-.329c.176.001.352.002.528.009.068.168.151.343.357.362-.155-.508-.351-1.002-.534-1.5l-.18.03zm3.347-.013c-.002.48-.001.96-.001 1.44.234-.022.519.077.717-.086.269-.391.076-1.142-.511-.925l-.001-.43-.204.002zm2.03.005c.001.475.001.95-.001 1.426l.204.015c.037-.265-.085-.6.106-.815.456-.09.265.552.308.814l.203-.012c-.007-.273.028-.552-.032-.821-.09-.232-.379-.203-.581-.205l-.005-.414-.202.011zm-3.511 1.435l.204.001c.001-.265.001-.53-.002-.795l.173-.163a18.725 18.725 0 0 1-.165-.13l-.028-.327c-.382.388-.121.941-.181 1.414zm-.456-1.03c-.055.263.149.804-.238.835-.309-.122-.12-.571-.175-.83l-.204-.001c.005.279-.026.564.03.839.153.288.528.176.789.184l-.001-1.023-.201-.005zm1.224 0c-.515.114-.439 1.109.135 1.041.59-.051.483-1.181-.135-1.041zm1.654.311c.241-.041.577-.242.699.082-.17.025-.344.035-.511.079-.231.106-.18.499.068.549.192.035.389.011.584.01-.008-.293.036-.596-.042-.883-.214-.278-.697-.176-.799.162zm2.15-.304v1.024l.204-.001c.029-.263-.074-.576.091-.802.462-.12.286.54.321.803l.204-.001c-.008-.282.032-.571-.037-.847-.161-.271-.524-.162-.782-.176zm-6.937 2.91l.199.01c.008-.302.008-.604.013-.906.111.247.215.497.331.743.273-.153.326-.485.456-.743.005.302.005.604.014.907l.197-.011c-.006-.505.018-1.011-.022-1.514-.349.218-.394.665-.579 1.002-.187-.337-.237-.784-.587-1.002-.04.503-.015 1.009-.022 1.514zm1.599-1.416l.016.191.188.017.034-.24-.238.032zm.441-.028l.03.236a6.2 6.2 0 0 0 .192-.015l.015-.204-.237-.018zm2.719.004v1.443h.202c.009-.267-.032-.546.053-.804.496-.175.326.528.357.809l.2-.006c-.005-.275.026-.552-.026-.823-.089-.235-.388-.192-.589-.222l.01-.398h-.207zm-3.224.418c.009.29-.038.59.045.872.176.252.519.137.775.151l-.001-1.021-.204-.004c-.048.266.128.711-.18.838-.379-.053-.18-.572-.23-.836l-.205-.001zm1.134-.004c0 .338.001.676-.002 1.014l.203.026c.055-.263-.127-.7.172-.834.39.014.192.565.244.825h.202c-.01-.288.042-.59-.046-.868-.172-.247-.519-.139-.772-.163zm1.481 1.057c.17.005.271-.153.383-.254a4.1 4.1 0 0 0-.508.032c-.072-.225-.089-.468.065-.662.139.109.284.212.445.289-.044-.179-.079-.43-.308-.455-.609-.098-.66 1.03-.076 1.049zm1.95-.024c.178.061.362-.016.537-.052l-.054-.184c-.232.084-.478.088-.606-.165.245-.018.49-.024.735-.031-.038-.236-.089-.565-.387-.59-.557-.092-.681.831-.225 1.022zm.844-1.033c.068.352-.184.883.188 1.093.056-.288-.083-.656.119-.891.455-.077.255.56.302.829h.2c-.013-.291.045-.597-.049-.876-.177-.234-.511-.131-.76-.155z"/>
    <path fill="#2b2c7c" d="M5.825 5.773l.208.615-.413.002.205-.617zM8.286 6.132c.418-.306.552.612.143.58-.264-.038-.209-.396-.143-.58zM9.301 6.096c.12-.002.24-.002.36-.001.012.201.012.403-.003.603l-.355-.001a6.362 6.362 0 0 1-.002-.602zM10.2 6.515c.154-.02.308-.037.462-.05l-.043.275c-.17-.015-.37-.02-.42-.225zM12.718 8.177c.112-.266.416-.269.525.001a7.07 7.07 0 0 1-.525-.001zM6.408 13.644c.073.196.142.393.209.59L6.2 14.23c.068-.196.137-.391.208-.586zM8.926 13.935c.43-.162.453.749.023.612-.195-.12-.168-.458-.023-.612zM9.885 13.961c.112-.014.225-.027.337-.039.069.275.1.72-.316.651a5.206 5.206 0 0 1-.021-.611zM10.81 14.422c.101-.124.292-.084.433-.124l-.039.281c-.141-.027-.366.04-.395-.157zM11.794 16.041c.127-.287.416-.259.548.002a7.7 7.7 0 0 1-.548-.002z"/>
    <path fill="#939393" opacity=".91" d="M20.041.255l.066.081v23.478l-.033-.046c-.064-.321-.054-.651-.052-.976.019-7.512-.018-15.025.019-22.537z"/>
    <path fill="#fcbd1f" d="M7.072 1.451c-.02-.218.248-.173.39-.187 2.684.021 5.37-.029 8.055.026.027.736.056 1.479-.019 2.213-2.793.001-5.591.039-8.381-.019-.118-.665-.043-1.359-.043-2.034zm.745.19c-.275.159-.235.657.097.717.19.081.598.056.45.368-.25.215-.589-.095-.859.089.32.29 1.123.354 1.107-.238-.011-.444-.597-.28-.765-.567.024-.327.42-.188.621-.145.038-.057.077-.115.114-.173-.244-.068-.524-.201-.764-.052zm.885.375c.129.313.095.656.094.986L9.002 3c.001-.27 0-.54-.001-.81l.185-.162-.176-.104-.047-.341c-.089.143-.176.288-.263.432zm1.7.022c.128.304.089.641.09.962h.206c0-.27 0-.54-.003-.809l.155-.091a4.336 4.336 0 0 1-.221-.486l-.226.424zm4.168-.017c.118.309.101.642.093.966l.205.022c.002-.282.002-.564.002-.846l.191-.074-.181-.152c-.011-.12-.023-.24-.036-.359-.095.145-.185.294-.275.443zm-3.593.011c.128.307.085.645.088.969h.206c0-.265 0-.531-.004-.796l.18-.135-.168-.158-.026-.32c-.099.142-.188.29-.275.439zm.629.092c-.077.218-.062.464-.019.688.102.251.433.18.647.233-.159.231-.432.195-.675.178.18.296.708.263.793-.089.055-.382.017-.77.025-1.154-.253.021-.594-.098-.772.145zm1.037.158c.244-.041.558-.239.715.064-.245.061-.707.011-.67.39.063.38.529.253.801.267-.017-.302.053-.626-.06-.913-.24-.237-.681-.137-.785.192zm-3.311-.306c.01.288-.037.585.042.865.168.259.523.151.777.159V1.977h-.204c-.031.264.077.585-.096.81-.46.11-.279-.542-.313-.805l-.206-.006zm4.444.021c0 .33.001.66-.002.991l.2.02c.011-.337-.127-.945.418-.834l.058-.167c-.225-.01-.449-.01-.674-.01zM16.01 1.297c1.002-.04 2.021-.072 3.02.017.046.718.089 1.462-.023 2.172-.867.064-1.739.004-2.608.029-.168-.002-.47.033-.444-.223.021-.661-.079-1.346.054-1.995zm.604.687l.217.006.184-.247c.094.075.225.133.242.267-.189.348-.52.603-.659.983.284.01.568.009.852.009v-.203c-.177-.001-.354-.002-.532-.005.197-.31.695-.626.459-1.036-.233-.329-.691-.12-.764.227zm1.019-.384l.002.402.176.01.058-.22.335.011c-.158.414-.339.819-.471 1.243.507-.242.528-.963.726-1.443a56.858 56.858 0 0 0-.826-.002z"/>
    <path fill="#fcbd1f" d="M11.827 2.195c.475-.263.488.829.006.599a.668.668 0 0 1-.006-.599z"/>
    <path d="M7.817 1.641c.24-.149.52-.017.764.052l-.114.173c-.201-.043-.597-.182-.621.145.168.287.754.123.765.567.016.592-.787.528-1.107.238.271-.184.61.126.859-.089.148-.312-.26-.288-.45-.368-.332-.06-.372-.558-.097-.717zM8.702 2.016c.087-.144.173-.289.263-.432l.047.341.176.104-.185.162c.001.27.002.54.001.81l-.206.002c.001-.33.035-.672-.094-.986zM10.402 2.038l.226-.424c.064.166.138.329.221.486l-.155.091c.003.27.003.54.003.809h-.206c-.002-.321.038-.658-.09-.962zM14.57 2.021c.089-.149.18-.298.275-.443.013.119.025.239.036.359l.181.152-.191.074c0 .282 0 .564-.002.846a18.145 18.145 0 0 0-.205-.022c.007-.325.024-.657-.093-.966zM16.614 1.984c.073-.347.532-.556.764-.227.236.411-.263.726-.459 1.037l.532.005v.203c-.284 0-.568.001-.852-.009.139-.379.47-.635.659-.983-.018-.135-.148-.192-.242-.267l-.184.247a15.715 15.715 0 0 0-.217-.006zM17.633 1.6c.275-.001.551-.001.826.002-.199.48-.219 1.202-.726 1.443.132-.424.313-.829.471-1.243l-.335-.011-.058.22a10.376 10.376 0 0 1-.176-.01l-.002-.402zM10.977 2.032c.087-.149.176-.297.275-.439l.026.32.168.158-.18.135c.004.265.004.531.004.796h-.206c-.003-.324.04-.662-.088-.969zM11.606 2.124c.177-.243.519-.124.772-.145-.008.384.03.772-.025 1.154-.085.353-.613.386-.793.089.243.017.516.053.675-.178-.213-.052-.544.019-.647-.233-.043-.224-.059-.47.019-.688zm.221.071a.665.665 0 0 0 .006.599c.482.23.47-.862-.006-.599zM12.643 2.282c.105-.329.545-.429.785-.192.114.288.043.611.06.913-.271-.014-.738.114-.801-.267-.037-.379.425-.329.67-.39-.157-.304-.471-.105-.715-.064zm.193.453c.131.06.274.085.415.11l.049-.302c-.168.031-.391-.006-.464.192zM9.332 1.976l.206.006c.035.263-.147.916.313.805.173-.225.064-.546.096-.81h.204V3c-.255-.008-.61.101-.777-.159-.079-.28-.032-.577-.042-.865zM13.776 1.997c.225-.001.449-.001.674.01l-.058.167c-.545-.111-.407.497-.418.834l-.2-.02c.002-.33.002-.66.002-.991z"/>
    <path fill="#efb31d" d="M12.836 2.735c.072-.198.296-.161.464-.192l-.049.302a1.74 1.74 0 0 1-.415-.11z"/>
    <path fill="#f8f8fb" d="M7.459 5.973c.097-.151.191-.304.284-.458.006.198.336.465.056.59-.004.266-.002.532-.002.799l-.205.008c-.002-.275-.003-.552.001-.827l-.133-.112z"/>
    <path fill="#3c3d87" d="M6.481 8.376c.141-.005.283-.01.424-.013l-.074.263-.342-.022-.007-.228z"/>
    <path fill="#276235" d="M5.318 9.606a112.89 112.89 0 0 1 3.343-.002c.02.581.019 1.162.001 1.744-1.115.012-2.231.02-3.345-.004-.01-.579-.011-1.158.001-1.737zm.266.237c-.002.405-.002.81-.001 1.215h.777a9.98 9.98 0 0 1-.002-.174l-.591-.001v-.355h.5l.009-.163-.509-.002.001-.345.594-.001a9.773 9.773 0 0 1-.006-.174h-.772zm1.248-.001c.01.135.021.269.034.403.077-.077.154-.155.23-.234l.238.003c-.133.365-.297.719-.4 1.095.427-.254.455-.837.635-1.261-.245-.007-.49-.008-.736-.006zm1.057.005c-.379.129-.233.633-.238.937.017.372.65.371.668-.001.039-.339.111-1.039-.43-.936z"/>
    <path fill="#276235" d="M7.867 10.88c-.064-.302-.205-.867.242-.91.01.29.241.97-.242.91z"/>
    <path fill="#070707" opacity=".13" d="M4 23.819l.035-.047a.267.267 0 0 1 .195.193L4.184 24H4v-.181z"/>
    <path fill="#090909" opacity=".15" d="M20.074 23.768l.033.046V24h-.182l-.047-.035a.277.277 0 0 1 .196-.197z"/>
    <path fill="#797979" opacity=".87" d="M4.23 23.965c.456-.083.921-.039 1.38-.046h12.887c.46.006.925-.037 1.381.046l.047.035H4.184l.046-.035z"/>
</svg>
