<?xml version="1.0" encoding="utf-8"?>
<!-- Generated by IcoMoon.io -->
<!DOCTYPE svg PUBLIC "-//W3C//DTD SVG 1.1//EN" "http://www.w3.org/Graphics/SVG/1.1/DTD/svg11.dtd">
<svg version="1.1" xmlns="http://www.w3.org/2000/svg" xmlns:xlink="http://www.w3.org/1999/xlink" width="24" height="24" viewBox="0 0 24 24">
<path fill="#fdfefd" d="M0.232 0h23.535v0.24c-7.776 0.002-15.554 0.015-23.33-0.008 0.002 7.098 0.002 14.197 0 21.295 0.012 0.824-0.031 1.651 0.039 2.473h-0.245v-24z"></path>
<path fill="#fdfefd" d="M6.568 2.708c3.719 0.002 7.438-0.009 11.158 0.006 0.286-0.053 0.482 0.273 0.502 0.514 0.034 0.734 0.017 1.469 0.014 2.202 0.023 0.291-0.15 0.705-0.503 0.653-1.181-0.006-2.364-0.005-3.546-0.002-0.003 1.071-0.003 2.143 0 3.214-0.014 0.35 0.149 0.866 0.587 0.818 2.773-0.002 5.545 0.006 8.318-0.002 0.011 1.288 0.022 2.577-0.009 3.866-2.666-0.023-5.334-0.006-8.001-0.011-0.302-0.022-0.573 0.105-0.844 0.215-0.142 2.943 0.033 5.898-0.093 8.841-1.273-0.002-2.546-0.012-3.818 0.008-0.149-2.937 0.014-5.885-0.088-8.826-0.228-0.113-0.452-0.259-0.718-0.232-2.714-0.009-5.427-0.015-8.141 0.003-0.020-1.285-0.011-2.572 0-3.857 2.835-0.002 5.672-0.026 8.507 0.012 0.523-0.235 0.359-0.849 0.387-1.308-0.020-0.915 0.022-1.83-0.009-2.744-1.214-0.014-2.433 0.026-3.646-0.019-0.060-0.042-0.18-0.127-0.24-0.169-0.087-0.567-0.034-1.141-0.050-1.713 0.011-0.497-0.099-1.051 0.235-1.473M6.646 5.806c3.763 0.019 7.527 0.039 11.291-0.014 0.082-0.884 0.022-1.774 0.043-2.66-0.18-0.051-0.361-0.082-0.547-0.091-3.589 0.006-7.181 0.015-10.771-0.003-0.232 0.898-0.090 1.853-0.017 2.769z"></path>
<path fill="#0465b4" d="M0.438 21.527c0.002-7.098 0.002-14.197 0-21.295 7.776 0.023 15.554 0.009 23.33 0.008v23.76h-23.291c-0.070-0.822-0.026-1.649-0.039-2.473M6.568 2.708c-0.334 0.421-0.225 0.975-0.235 1.473 0.015 0.571-0.037 1.146 0.050 1.713 0.060 0.042 0.18 0.127 0.24 0.169 1.214 0.045 2.433 0.005 3.646 0.019 0.031 0.914-0.011 1.829 0.009 2.744-0.028 0.46 0.136 1.073-0.387 1.308-2.835-0.039-5.672-0.014-8.507-0.012-0.011 1.285-0.020 2.572 0 3.857 2.714-0.019 5.427-0.012 8.141-0.003 0.266-0.026 0.491 0.119 0.718 0.232 0.102 2.94-0.060 5.889 0.088 8.826 1.273-0.020 2.546-0.009 3.818-0.008 0.125-2.943-0.050-5.898 0.093-8.841 0.271-0.11 0.542-0.237 0.844-0.215 2.666 0.005 5.334-0.012 8.001 0.011 0.031-1.29 0.020-2.578 0.009-3.866-2.773 0.008-5.545 0-8.318 0.002-0.438 0.048-0.601-0.468-0.587-0.818-0.003-1.071-0.003-2.143 0-3.214 1.181-0.003 2.364-0.005 3.546 0.002 0.353 0.051 0.526-0.362 0.503-0.653 0.003-0.732 0.020-1.468-0.014-2.202-0.020-0.242-0.215-0.567-0.502-0.514-3.719-0.015-7.438-0.005-11.158-0.006z"></path>
<path fill="#ed1b25" d="M6.646 5.806c-0.073-0.915-0.215-1.87 0.017-2.769 3.589 0.019 7.181 0.009 10.771 0.003 0.186 0.009 0.367 0.040 0.547 0.091-0.022 0.886 0.039 1.776-0.043 2.66-3.764 0.053-7.528 0.033-11.291 0.014z"></path>
</svg>
