<!-- Generated by IcoMoon.io -->
<svg version="1.1" xmlns="http://www.w3.org/2000/svg" width="24" height="24" viewBox="0 0 24 24">
<title>information--end-of-minimum-speed-30--g1</title>
<path fill="#fff" d="M11.103 0h1.812c1.774 0.156 3.524 0.668 5.065 1.569 2.492 1.421 4.441 3.765 5.378 6.477 0.349 0.986 0.545 2.019 0.642 3.059v1.807c-0.157 1.775-0.668 3.526-1.57 5.067-1.537 2.7-4.161 4.757-7.155 5.592-0.767 0.225-1.559 0.343-2.352 0.428h-1.837c-1.729-0.15-3.432-0.646-4.947-1.499-2.632-1.467-4.68-3.954-5.593-6.829-0.292-0.89-0.452-1.817-0.547-2.747v-1.842c0.195-2.358 1.073-4.661 2.55-6.515 2.047-2.632 5.229-4.323 8.553-4.568M5.427 2.66c-2.505 1.748-4.251 4.541-4.712 7.562-0.511 3.15 0.385 6.488 2.402 8.96l-0.042 0.041c0.561 0.573 1.128 1.141 1.703 1.702l0.041-0.042c1.208 0.971 2.61 1.704 4.105 2.116 3.249 0.932 6.899 0.306 9.649-1.659 2.486-1.735 4.223-4.499 4.701-7.493 0.535-3.17-0.359-6.538-2.39-9.029l0.041-0.041c-0.56-0.574-1.127-1.142-1.703-1.702l-0.040 0.041c-1.246-1.003-2.7-1.75-4.249-2.157-3.215-0.871-6.796-0.235-9.507 1.702z"></path>
<path fill="#fff" d="M5.575 5.995c1.015-0.626 2.341-0.598 3.406-0.115 1.472 0.72 2.374 2.489 1.987 4.1-0.134 0.757-0.591 1.429-1.238 1.841 0.144 0.103 0.286 0.212 0.422 0.326-0.412 0.413-0.824 0.825-1.237 1.237-0.313-0.36-0.744-0.625-1.222-0.686-0.367-0.044-0.739-0.013-1.108-0.023-0.002-0.556-0.002-1.111 0-1.667 0.591-0.004 1.229 0.045 1.757-0.272 0.58-0.33 0.889-1.022 0.818-1.677-0.056-0.923-0.933-1.688-1.852-1.642-0.846 0.010-1.578 0.705-1.685 1.536-0.626 0.001-1.253 0.002-1.878-0 0.067-1.213 0.81-2.325 1.83-2.956z"></path>
<path fill="#fff" d="M12.874 7.81c0.535-1.559 2.288-2.466 3.883-2.267-1.367 1.367-2.733 2.734-4.101 4.1-0.016-0.616 0.007-1.247 0.217-1.833z"></path>
<path fill="#fff" d="M17.664 8.038c0.451-0.452 0.903-0.904 1.355-1.355 0.617 0.639 0.893 1.536 0.903 2.411 0.005 1.922 0.001 3.844 0.001 5.766 0.002 0.831-0.21 1.695-0.755 2.341-0.713 0.834-1.801 1.343-2.903 1.323-1.086 0.008-2.155-0.496-2.858-1.32-0.512-0.61-0.733-1.417-0.751-2.203-0.008-0.651 0-1.301-0.004-1.952 0.628-0.628 1.255-1.256 1.883-1.883 0.007 1.232-0.005 2.465 0.006 3.697 0.007 0.607 0.272 1.248 0.823 1.553 0.7 0.381 1.687 0.299 2.231-0.318 0.336-0.372 0.445-0.89 0.443-1.379 0-1.797 0.001-3.594-0-5.392 0.004-0.454-0.103-0.919-0.375-1.29z"></path>
<path fill="#fff" d="M7.182 18.52c1.336-1.339 2.675-2.676 4.013-4.013 0.006 0.728-0.118 1.475-0.477 2.117-0.686 1.246-2.128 1.976-3.535 1.896z"></path>
<path fill="#fff" d="M3.676 15.196c0.625-0.005 1.25-0.006 1.875 0 0.14 0.352 0.325 0.69 0.587 0.967-0.452 0.451-0.903 0.903-1.355 1.355-0.64-0.606-0.987-1.461-1.106-2.321z"></path>
<path fill="#00f" d="M5.427 2.66c2.711-1.936 6.292-2.573 9.507-1.702 1.548 0.407 3.002 1.154 4.249 2.157-0.807 0.811-1.617 1.619-2.426 2.428-1.595-0.199-3.348 0.708-3.883 2.267-0.21 0.586-0.233 1.217-0.217 1.833-0.833 0.835-1.669 1.669-2.503 2.504-0.136-0.114-0.278-0.223-0.422-0.326 0.647-0.412 1.104-1.085 1.238-1.841 0.388-1.612-0.515-3.38-1.987-4.1-1.065-0.483-2.392-0.51-3.406 0.115-1.020 0.632-1.762 1.744-1.83 2.956 0.626 0.003 1.252 0.002 1.878 0 0.107-0.831 0.84-1.525 1.685-1.536 0.919-0.047 1.796 0.719 1.852 1.642 0.072 0.655-0.238 1.346-0.817 1.677-0.528 0.318-1.166 0.268-1.757 0.272-0.002 0.555-0.002 1.111 0 1.667 0.369 0.011 0.74-0.021 1.108 0.023 0.478 0.061 0.909 0.327 1.222 0.686-0.926 0.927-1.852 1.853-2.778 2.779-0.262-0.277-0.447-0.615-0.587-0.967-0.625-0.006-1.25-0.005-1.875 0 0.119 0.861 0.466 1.716 1.106 2.321-0.555 0.555-1.109 1.111-1.666 1.665-2.017-2.472-2.914-5.81-2.402-8.96 0.462-3.021 2.207-5.814 4.712-7.562z"></path>
<path fill="#00f" d="M19.019 6.683c0.622-0.622 1.243-1.244 1.865-1.865 2.031 2.491 2.925 5.859 2.39 9.029-0.478 2.995-2.215 5.758-4.701 7.493-2.75 1.965-6.4 2.591-9.649 1.659-1.495-0.412-2.897-1.145-4.105-2.116 0.787-0.788 1.575-1.577 2.363-2.363 1.408 0.080 2.849-0.65 3.535-1.896 0.36-0.642 0.483-1.388 0.477-2.117 0.486-0.487 0.972-0.973 1.459-1.459 0.004 0.651-0.004 1.302 0.004 1.952 0.018 0.786 0.239 1.592 0.751 2.203 0.703 0.824 1.772 1.328 2.858 1.32 1.102 0.020 2.189-0.488 2.902-1.323 0.545-0.647 0.757-1.51 0.755-2.341 0-1.922 0.003-3.844-0.001-5.766-0.010-0.875-0.286-1.772-0.903-2.411z"></path>
<path fill="#00f" d="M14.537 11.166c1.041-1.043 2.085-2.085 3.127-3.127 0.272 0.371 0.379 0.835 0.375 1.29 0.001 1.797 0.001 3.594 0 5.392 0.001 0.488-0.107 1.007-0.443 1.379-0.544 0.616-1.53 0.699-2.231 0.318-0.55-0.305-0.816-0.946-0.823-1.553-0.011-1.232 0.001-2.465-0.006-3.697z"></path>
<path fill="#f00" d="M19.183 3.116l0.040-0.041c0.575 0.56 1.142 1.128 1.703 1.702l-0.041 0.041c-0.622 0.621-1.244 1.243-1.865 1.865-0.452 0.451-0.904 0.903-1.355 1.355-1.043 1.042-2.086 2.084-3.127 3.127-0.629 0.627-1.256 1.255-1.883 1.883-0.487 0.486-0.973 0.972-1.459 1.459-1.338 1.337-2.676 2.674-4.013 4.013-0.789 0.787-1.576 1.575-2.363 2.363l-0.041 0.042c-0.574-0.561-1.141-1.129-1.703-1.702l0.042-0.041c0.557-0.553 1.11-1.11 1.666-1.665 0.452-0.451 0.903-0.903 1.355-1.355 0.926-0.926 1.853-1.853 2.778-2.779 0.413-0.412 0.825-0.824 1.237-1.237 0.834-0.834 1.67-1.668 2.503-2.504 1.368-1.366 2.734-2.733 4.101-4.1 0.809-0.809 1.619-1.617 2.426-2.428z"></path>
</svg>
