<?xml version="1.0" encoding="utf-8"?>
<!-- Generated by IcoMoon.io -->
<!DOCTYPE svg PUBLIC "-//W3C//DTD SVG 1.1//EN" "http://www.w3.org/Graphics/SVG/1.1/DTD/svg11.dtd">
<svg version="1.1" xmlns="http://www.w3.org/2000/svg" xmlns:xlink="http://www.w3.org/1999/xlink" width="24" height="24" viewBox="0 0 24 24">
<path fill="#044594" d="M1.113 0.073h22.285l-0.112 0.023c-0.042 0.012-0.128 0.035-0.172 0.045-2.163 2.153-4.314 4.317-6.477 6.47-2.006-0.060-4.013 0.047-6.020-0.015-2.794 0.007-5.59-0.001-8.385 0.007 0.001 0.567 0.001 1.136 0.001 1.703 0.371 0 0.742 0.001 1.113 0.004 0.119 0.717 0.678 1.405 1.457 1.391 0.796 0.039 1.383-0.656 1.508-1.391 1.519-0.044 3.036 0.063 4.554-0.007 1.353-0.064 2.707 0.007 4.060 0.020-0.116 0.115-0.231 0.231-0.346 0.346-0.253 0.001-0.506 0.003-0.758 0.004 0.022 0.23 0.044 0.46 0.064 0.691-1.184 1.183-2.368 2.368-3.552 3.551 0.18-1.414 0.343-2.828 0.516-4.241-1.025 0.001-2.052-0.001-3.078 0.001-0.726 2.985-1.417 5.978-2.161 8.957-1.542 1.555-3.1 3.095-4.647 4.646-0.239 0.26-0.569 0.468-0.692 0.81-0.012 0.058-0.033 0.176-0.045 0.234-0.016-7.408-0.003-14.826-0.006-22.237-0.065-0.545 0.397-0.924 0.893-1.014M9.305 2.284c-0.319 1.319-0.633 2.641-0.951 3.961 0.929-0.003 1.857-0.001 2.785-0.001 0.167-1.319 0.32-2.64 0.483-3.959-0.772 0-1.545 0-2.317 0M13.046 2.282c0.154 1.321 0.316 2.64 0.477 3.961 0.929 0 1.857 0 2.785 0-0.319-1.319-0.633-2.639-0.95-3.958-0.771-0.003-1.542 0-2.313-0.003z"></path>
<path fill="#044594" d="M23.985 0.758l0.015-0.145v22.524c-0.090 0.39-0.374 0.672-0.751 0.791l-22.431-0.012c0.055-0.006 0.163-0.017 0.218-0.023 1.361-1.356 2.705-2.73 4.076-4.077-0.182 0.634-0.314 1.28-0.471 1.92 1.543 0.001 3.088 0 4.631 0 0.284-2.313 0.547-4.627 0.847-6.937 1.324-1.319 2.643-2.641 3.964-3.962 0.425 3.635 0.874 7.265 1.309 10.899 1.543 0.001 3.087-0.001 4.628 0.001-1.040-4.355-2.087-8.707-3.13-13.062-0.215 0-0.431 0-0.646-0.001 0.113-0.115 0.228-0.231 0.342-0.346 0.433-0.020 0.867-0.022 1.3-0.019 0.119 0.717 0.676 1.404 1.453 1.393 0.801 0.044 1.391-0.659 1.517-1.395 0.368 0.001 0.737 0.001 1.105 0.001 0.003-0.569 0.003-1.139 0.001-1.709-1.216 0.001-2.433-0.004-3.649 0.004 1.77-1.766 3.532-3.542 5.309-5.3 0.147-0.16 0.326-0.317 0.362-0.545z"></path>
<path fill="#d71920" d="M16.637 6.611c2.163-2.153 4.314-4.317 6.477-6.47 0.044-0.010 0.129-0.033 0.172-0.045 0.307 0.135 0.557 0.356 0.7 0.662-0.036 0.228-0.215 0.385-0.362 0.545-1.777 1.759-3.539 3.535-5.309 5.3-0.575 0.576-1.149 1.152-1.728 1.724-0.113 0.115-0.228 0.231-0.342 0.346-0.72 0.721-1.441 1.443-2.161 2.163-1.321 1.321-2.64 2.643-3.964 3.962-1.665 1.676-3.345 3.337-5.007 5.017-1.37 1.347-2.714 2.721-4.076 4.077-0.055 0.006-0.163 0.017-0.218 0.023-0.227-0.153-0.537-0.291-0.593-0.592 0.012-0.058 0.033-0.176 0.045-0.234 0.124-0.342 0.454-0.55 0.692-0.81 1.548-1.551 3.105-3.091 4.647-4.646 1.578-1.568 3.148-3.146 4.723-4.717 1.184-1.183 2.368-2.368 3.552-3.551 0.231-0.233 0.463-0.464 0.694-0.695 0.115-0.115 0.23-0.231 0.346-0.346 0.572-0.57 1.142-1.142 1.712-1.713z"></path>
<path fill="#fff" d="M9.305 2.284c0.772 0 1.545 0 2.317 0-0.163 1.319-0.316 2.64-0.483 3.959-0.928 0-1.856-0.001-2.785 0.001 0.319-1.319 0.633-2.641 0.951-3.961z"></path>
<path fill="#fff" d="M13.046 2.282c0.771 0.003 1.542 0 2.313 0.003 0.317 1.319 0.631 2.639 0.95 3.958-0.928 0-1.856 0-2.785 0-0.161-1.321-0.323-2.64-0.477-3.961z"></path>
<path fill="#fff" d="M2.231 6.604c2.796-0.009 5.591 0 8.385-0.007 2.007 0.061 4.015-0.045 6.020 0.015-0.57 0.572-1.14 1.143-1.712 1.713-1.353-0.013-2.707-0.084-4.060-0.020-1.519 0.070-3.036-0.036-4.554 0.007-0.125 0.735-0.713 1.43-1.508 1.391-0.78 0.015-1.338-0.673-1.457-1.391-0.371-0.003-0.742-0.004-1.113-0.004 0-0.567 0-1.136-0.001-1.703z"></path>
<path fill="#fff" d="M16.586 8.327c0.579-0.572 1.153-1.148 1.728-1.724 1.216-0.009 2.433-0.003 3.649-0.004 0.001 0.57 0.001 1.14-0.001 1.709-0.368 0-0.737 0-1.105-0.001-0.127 0.736-0.716 1.439-1.517 1.395-0.777 0.010-1.334-0.676-1.453-1.393-0.433-0.003-0.867-0.001-1.3 0.019z"></path>
<path fill="#fff" d="M7.772 8.676c1.025-0.003 2.052 0 3.078-0.001-0.173 1.414-0.336 2.828-0.516 4.241-1.575 1.571-3.145 3.149-4.723 4.717 0.745-2.979 1.436-5.972 2.161-8.957z"></path>
<path fill="#fff" d="M13.821 8.675c0.252-0.001 0.505-0.003 0.758-0.004-0.231 0.231-0.463 0.463-0.694 0.695-0.020-0.231-0.042-0.461-0.064-0.691z"></path>
<path fill="#fff" d="M16.244 8.673c0.215 0.001 0.431 0.001 0.646 0.001 1.043 4.355 2.090 8.707 3.13 13.062-1.542-0.003-3.085 0-4.628-0.001-0.435-3.633-0.884-7.264-1.309-10.899 0.72-0.72 1.441-1.441 2.161-2.163z"></path>
<path fill="#fff" d="M5.113 19.815c1.661-1.68 3.341-3.341 5.007-5.017-0.3 2.31-0.563 4.624-0.847 6.937-1.543 0-3.088 0.001-4.631 0 0.157-0.64 0.289-1.286 0.471-1.92z"></path>
</svg>
