<svg xmlns="http://www.w3.org/2000/svg" width="24" height="24">
    <path fill="#0303ff" d="M0 0h24v24H0V0zm.757 20.515c7.37-.004 14.739.001 22.109-.003-3.61-6.139-7.208-12.283-10.814-18.422C8.282 8.229 4.531 14.379.757 20.515z"/>
    <path fill="#fff" d="M.757 20.515C4.531 14.379 8.282 8.228 12.052 2.09c3.605 6.14 7.204 12.284 10.814 18.422-7.37.004-14.739-.001-22.109.003zm6.136-8.304c1.304.049 2.61.008 3.915.025.498.708.989 1.422 1.483 2.134-.675.433-1.182 1.297-2.071 1.245l-.289.23c-1.286-.011-2.574-.01-3.861-.001-.436 1.011-1.277 1.99-.957 3.16.547.025 1.096.018 1.644.016l.273.3c-1.34.019-2.681-.003-4.021.008a.47.47 0 0 0-.527.291c6.48.048 12.965.048 19.445 0a.468.468 0 0 0-.525-.291c-1.351-.011-2.702.01-4.053-.008l.247-.304c.475-.001.95.036 1.422-.018.344-.155.2-.612.191-.905-.318-.786-.798-1.496-1.178-2.255-1.766-.001-3.533.003-5.299 0-.331.029-.547-.274-.815-.416.255-.347.502-.699.75-1.051-.462-.715-.922-1.43-1.389-2.141 2.069-.014 4.139.037 6.207-.027-.091-.199-.245-.326-.47-.289-3.206-.004-6.411-.001-9.618-.001-.237-.036-.422.07-.505.298z"/>
    <path fill="#fff" d="M6.166 16.301c.255-.034.512-.059.768-.078.01.606.005 1.214.005 1.821-.42-.029-.885.093-1.266-.134.077-.558.329-1.072.492-1.609zM7.349 16.243c1.195-.001 2.388.01 3.582-.014-.004.601-.003 1.2-.003 1.799-1.193-.008-2.386.004-3.579.014a539.4 539.4 0 0 1 0-1.799zM11.331 16.231c1.879.016 3.758-.014 5.638-.004l-.001 1.765c-1.193.007-2.388.015-3.581.016l.001-1.728-.41.003.001 1.735a90.313 90.313 0 0 0-1.646.003c.007-.597.008-1.193-.003-1.79zM17.379 16.224c.189.001.38.004.571.007.278.575.572 1.144.793 1.746-.455.014-.911.015-1.365.015-.001-.59-.001-1.179.001-1.768zM9.526 19.019c1.799.004 3.599.004 5.398 0l.273.306c-1.963.005-3.925.004-5.886 0l.215-.306zM16.077 19.099c.137-.202.498.033.32.226-.144.169-.516-.026-.32-.226z"/>
    <path fill="#030303" d="M6.893 12.211c.082-.228.267-.333.505-.298 3.206 0 6.411-.003 9.618.001.225-.037.38.091.47.289-2.068.064-4.138.014-6.207.027.468.71.927 1.426 1.389 2.141-.248.351-.495.704-.75 1.051.267.141.484.444.815.416 1.766.003 3.533-.001 5.299 0 .38.758.86 1.469 1.178 2.255.01.293.154.75-.191.905-.472.053-.948.016-1.422.018a40.55 40.55 0 0 1-.247.304c1.351.018 2.702-.003 4.053.008a.468.468 0 0 1 .525.291c-6.48.048-12.965.048-19.445 0a.47.47 0 0 1 .527-.291c1.34-.011 2.681.011 4.021-.008l-.273-.3c-.549.001-1.097.008-1.644-.016-.32-1.17.521-2.149.957-3.16a261.54 261.54 0 0 1 3.861.001l.289-.23c.889.052 1.396-.812 2.071-1.245-.494-.712-.985-1.426-1.483-2.134-1.306-.016-2.611.025-3.915-.025zm-.727 4.09c-.163.536-.416 1.051-.492 1.609.381.228.846.106 1.266.134 0-.608.004-1.215-.005-1.821-.256.019-.513.044-.768.078zm1.183-.058a539.4 539.4 0 0 0 0 1.799c1.193-.01 2.386-.022 3.579-.014 0-.599-.001-1.199.003-1.799-1.195.023-2.388.012-3.582.014zm3.982-.012c.011.597.01 1.193.003 1.79.549-.007 1.097-.005 1.646-.003l-.001-1.735c.103 0 .307-.001.41-.003l-.001 1.728c1.193-.001 2.388-.01 3.581-.016l.001-1.765c-1.88-.01-3.759.021-5.638.004zm6.048-.007c-.003.588-.003 1.178-.001 1.768.454 0 .909-.001 1.365-.015-.221-.602-.514-1.171-.793-1.746l-.571-.007zm-9.467 3.08c.134.101.439.106.48-.096-.034-.299-.625-.191-.48.096zm1.614-.285l-.215.306c1.961.004 3.924.005 5.886 0-.069-.075-.204-.229-.273-.306-1.799.004-3.599.004-5.398 0zm6.551.08c-.196.2.176.395.32.226.178-.193-.182-.428-.32-.226z"/>
    <path fill="#e1e1e1" d="M7.912 19.304c-.145-.287.446-.395.48-.096-.041.202-.346.197-.48.096z"/>
</svg>
