<?xml version="1.0" encoding="utf-8"?>
<!-- Generated by IcoMoon.io -->
<!DOCTYPE svg PUBLIC "-//W3C//DTD SVG 1.1//EN" "http://www.w3.org/Graphics/SVG/1.1/DTD/svg11.dtd">
<svg version="1.1" xmlns="http://www.w3.org/2000/svg" xmlns:xlink="http://www.w3.org/1999/xlink" width="24" height="24" viewBox="0 0 24 24">
<path fill="#007ac2" d="M0.571 0h22.857v24h-22.857v-24M2.95 10.685c1.027 1.037 2.056 2.074 3.078 3.117 0.671-0.745 1.352-1.48 2.027-2.221 2.761 2.808 5.543 5.593 8.303 8.402 0.008 0.906-0.001 1.814 0.005 2.72 1.569 0 3.137 0.003 4.706-0.001-0.001-6.727 0.001-13.453-0.001-20.179-1.569-0.001-3.137-0.002-4.706 0 0.001 3.747-0.006 7.496 0.003 11.243-1.776-1.813-3.571-3.607-5.35-5.417 0.937-1.022 1.872-2.048 2.811-3.069-1.026-1.034-2.047-2.075-3.080-3.103-2.606 2.83-5.202 5.667-7.797 8.507z"></path>
<path fill="#ed1d24" d="M2.95 10.685c2.594-2.84 5.191-5.678 7.797-8.507 1.033 1.027 2.054 2.069 3.080 3.103-0.939 1.021-1.874 2.047-2.811 3.069-0.986 1.078-1.974 2.155-2.96 3.232-0.675 0.741-1.357 1.475-2.027 2.221-1.022-1.042-2.050-2.080-3.078-3.117z"></path>
<path fill="#fff" d="M16.361 2.522c1.569-0.002 3.137-0.001 4.706 0 0.002 6.727 0 13.453 0.001 20.179-1.569 0.005-3.137 0.001-4.706 0.001-0.006-0.906 0.003-1.814-0.005-2.72-2.76-2.809-5.542-5.594-8.303-8.402 0.986-1.077 1.974-2.154 2.96-3.232 1.778 1.81 3.574 3.605 5.35 5.417-0.009-3.747-0.002-7.496-0.003-11.243z"></path>
</svg>
