<!-- Generated by IcoMoon.io -->
<svg version="1.1" xmlns="http://www.w3.org/2000/svg" width="21" height="24" viewBox="0 0 21 24">
<title>information--bike-route--g2</title>
<path fill="#0a6249" d="M1.142 0h18.228c0.623 2.308 1.097 4.681 1.092 7.080 0.071 4.294-0.82 8.719-3.188 12.356-1.242 1.901-2.999 3.602-5.228 4.242-2.294 0.67-4.844-0.055-6.593-1.644-3.647-3.22-5.046-8.207-5.453-12.899v-3.262c0.233-1.981 0.488-3.982 1.142-5.874M7.726 1.597c-0.202 0.2-0.402 0.401-0.604 0.6 0.125 0.134 0.25 0.27 0.374 0.404-0.277 0.881-0.548 1.764-0.809 2.65-1.842-0.996-4.376 0.212-4.662 2.306-0.448 2.112 1.694 4.158 3.781 3.656 1.967-0.335 3.175-2.724 2.245-4.5-0.163-0.589-0.949-0.854-0.882-1.506 0.95 0.925 1.81 1.939 2.73 2.893 0.419 0.392 0.509 1.022 1.018 1.337 0.21-0.53 0.769-0.589 1.258-0.678 0.432 1.819 2.574 2.981 4.31 2.209 1.819-0.655 2.594-3.104 1.483-4.687-0.893-1.452-2.939-1.854-4.379-0.991-0.307-0.564-1.142-1.014-0.87-1.738 0.439-0.162 0.884-0.371 1.146-0.779-0.972-0.073-1.96-0.013-2.918 0.154 0.318 0.378 0.822 0.439 1.277 0.521-0.026 0.091-0.052 0.181-0.078 0.271-1.486 0-2.971 0.001-4.456-0.001 0.127-0.379 0.253-0.758 0.372-1.141-0.113-0.164-0.222-0.33-0.325-0.5 0.449-0.043 0.9-0.040 1.35-0.042-0.001-0.146-0.004-0.293-0.005-0.439-0.452 0-0.905 0-1.357 0.001M8.628 13.188c-0.433 0.498-0.594 1.156-0.734 1.783 0.464 0.095 0.929 0.193 1.394 0.288 0.040-0.68 0.592-1.565 1.375-1.225 1.044 0.593 0.472 2.394-0.743 2.312-0.054 0.48-0.107 0.96-0.161 1.44 0.522-0.143 1.19-0.172 1.49 0.374 0.48 0.817 0.397 2.224-0.574 2.64-0.862 0.259-1.355-0.665-1.44-1.376-0.488 0.073-0.977 0.143-1.464 0.221 0.126 0.766 0.365 1.567 0.97 2.096 0.886 0.84 2.406 0.853 3.301 0.022 1.43-1.193 1.518-4.062-0.422-4.792 1.344-0.844 1.459-2.89 0.296-3.935-0.888-0.853-2.484-0.785-3.289 0.151z"></path>
<path fill="#0a6249" d="M7.42 4.651c0.036-0.133 0.072-0.266 0.108-0.4 1.484 0.001 2.968-0.001 4.452 0.001-0.316 1.013-0.613 2.032-0.961 3.035-0.323-0.106-0.666-0.143-0.988-0.008 0.094 0.058 0.281 0.172 0.374 0.229 0.016 0.107 0.047 0.32 0.061 0.427-1.028-1.082-2.028-2.192-3.047-3.284z"></path>
<path fill="#0a6249" d="M12.427 4.591c0.264 0.325 0.518 0.659 0.773 0.992-0.737 0.691-1.154 1.68-1.117 2.692-0.287 0.059-0.575 0.116-0.862 0.172 0.398-1.286 0.805-2.57 1.206-3.856z"></path>
<path fill="#0a6249" d="M13.948 5.738c1.243-0.671 2.988-0.275 3.635 1.033 0.882 1.436-0.097 3.511-1.742 3.793-1.352 0.342-2.736-0.614-3.118-1.909 0.898-0.253 1.855-0.311 2.72-0.662-0.167-0.856-1.056-1.48-1.495-2.255z"></path>
<path fill="#0a6249" d="M4.128 5.698c0.751-0.347 1.619-0.238 2.353 0.094-0.229 0.595-0.527 1.178-0.976 1.639-0.274 0.281-0.762 0.428-0.721 0.901 0.167 0.037 0.335 0.073 0.503 0.109 0.541-0.782 1.304-1.406 1.668-2.31 1.076 1.038 1.126 2.916-0.038 3.907-1.223 1.142-3.452 0.713-4.108-0.846-0.674-1.264 0.019-2.958 1.319-3.494z"></path>
<path fill="#0a6249" d="M12.635 8.143c0.056-0.778 0.331-1.552 0.916-2.089 0.418 0.553 0.842 1.1 1.25 1.661-0.721 0.149-1.44 0.307-2.166 0.428z"></path>
<path fill="#fffffe" d="M7.726 1.597c0.452-0.001 0.905-0.001 1.357-0.001 0.001 0.146 0.004 0.293 0.005 0.439-0.45 0.002-0.901-0.001-1.35 0.042 0.103 0.17 0.212 0.336 0.325 0.5-0.119 0.383-0.245 0.762-0.372 1.141 1.484 0.002 2.97 0.001 4.456 0.001 0.026-0.090 0.052-0.18 0.078-0.271-0.455-0.082-0.959-0.143-1.277-0.521 0.959-0.167 1.946-0.227 2.918-0.154-0.262 0.408-0.707 0.617-1.146 0.779-0.272 0.724 0.563 1.174 0.87 1.738 1.44-0.863 3.486-0.461 4.379 0.991 1.111 1.583 0.336 4.032-1.483 4.687-1.736 0.772-3.878-0.39-4.31-2.209-0.488 0.089-1.048 0.148-1.258 0.678-0.509-0.314-0.599-0.944-1.018-1.337-0.92-0.954-1.78-1.968-2.73-2.893-0.067 0.652 0.719 0.917 0.882 1.506 0.93 1.776-0.278 4.165-2.245 4.5-2.087 0.502-4.229-1.544-3.781-3.656 0.286-2.094 2.82-3.302 4.662-2.306 0.26-0.886 0.532-1.769 0.809-2.65-0.125-0.134-0.25-0.27-0.374-0.404 0.202-0.199 0.402-0.4 0.604-0.6M7.42 4.651c1.019 1.092 2.018 2.202 3.047 3.284-0.014-0.107-0.046-0.32-0.061-0.427-0.094-0.058-0.281-0.172-0.374-0.229 0.322-0.134 0.665-0.097 0.988 0.008 0.348-1.003 0.646-2.022 0.961-3.035-1.484-0.002-2.968 0-4.452-0.001-0.036 0.133-0.072 0.266-0.108 0.4M12.427 4.591c-0.401 1.285-0.808 2.569-1.206 3.856 0.287-0.055 0.575-0.113 0.862-0.172-0.037-1.012 0.38-2 1.117-2.692-0.254-0.334-0.509-0.667-0.773-0.992M13.948 5.738c0.439 0.775 1.328 1.399 1.495 2.255-0.865 0.352-1.823 0.409-2.72 0.662 0.382 1.295 1.765 2.251 3.118 1.909 1.645-0.282 2.624-2.357 1.742-3.793-0.647-1.308-2.392-1.704-3.635-1.033M4.128 5.698c-1.3 0.536-1.993 2.231-1.319 3.494 0.655 1.559 2.885 1.988 4.108 0.846 1.164-0.991 1.115-2.869 0.038-3.907-0.364 0.904-1.127 1.528-1.668 2.31-0.168-0.036-0.336-0.072-0.503-0.109-0.041-0.473 0.448-0.62 0.721-0.901 0.449-0.461 0.746-1.044 0.976-1.639-0.734-0.331-1.602-0.44-2.353-0.094M12.635 8.143c0.726-0.121 1.445-0.28 2.166-0.428-0.408-0.56-0.833-1.108-1.25-1.661-0.584 0.538-0.859 1.312-0.916 2.089M10.736 8.044c0.056-0.187 0.313-0.431 0.178-0.61-0.398-0.114-0.145 0.404-0.178 0.61z"></path>
<path fill="#fffffe" d="M8.628 13.188c0.805-0.936 2.401-1.004 3.289-0.151 1.163 1.045 1.048 3.091-0.296 3.935 1.94 0.73 1.853 3.599 0.422 4.792-0.895 0.832-2.416 0.818-3.301-0.022-0.605-0.529-0.844-1.331-0.97-2.096 0.487-0.078 0.976-0.148 1.464-0.221 0.085 0.712 0.578 1.636 1.44 1.376 0.971-0.416 1.054-1.823 0.574-2.64-0.3-0.546-0.968-0.517-1.49-0.374 0.054-0.48 0.107-0.96 0.161-1.44 1.214 0.082 1.787-1.72 0.743-2.312-0.784-0.34-1.336 0.545-1.375 1.225-0.466-0.095-0.93-0.193-1.394-0.288 0.14-0.628 0.301-1.285 0.734-1.783z"></path>
<path fill="#4a7e6f" opacity="0.86" d="M10.736 8.044c0.032-0.205-0.221-0.724 0.178-0.61 0.136 0.179-0.121 0.422-0.178 0.61z"></path>
</svg>
