<!-- Generated by IcoMoon.io -->
<svg version="1.1" xmlns="http://www.w3.org/2000/svg" width="24" height="24" viewBox="0 0 24 24">
<title>information--hurricane-evacuation-route--g1</title>
<path fill="#035595" d="M0.159 12.377c-0.478-5.766 4.028-11.441 9.772-12.214 2.153-0.199 4.419-0.137 6.433 0.726 3.864 1.624 6.626 5.394 7.168 9.531-0.051 0.857-0.049 1.716 0.006 2.571-0.308 1.941-0.938 3.857-2.1 5.46-2.422 3.461-6.821 5.439-11.016 4.886-5.453-0.587-10.123-5.432-10.264-10.959M9.261 5.683c-0.354 1.361 0.574 2.573 1.717 3.182-0.868 0.583-1.894 0.816-2.929 0.847 1.254 0.613 2.784 0.804 4.061 0.148 1.622-0.735 2.67-2.672 2.124-4.416-0.225-0.752-0.915-1.185-1.528-1.598 0.87-0.471 1.845-0.654 2.816-0.786-2.325-1.32-5.704-0.077-6.262 2.621M4.189 12.223c-0.002 0.78-0.041 1.569 0.118 2.338 0.12-0.383 0.212-0.771 0.296-1.162 0.204 0.006 0.409 0.009 0.615 0.015 0.069 0.39 0.146 0.78 0.244 1.164 0.236-0.771 0.165-1.581 0.159-2.372-0.081 0-0.238 0.002-0.317 0.002-0.008 0.287-0.013 0.572-0.019 0.859-0.249 0.004-0.499 0.008-0.748 0.013-0.009-0.291-0.019-0.581-0.028-0.872-0.081 0.004-0.24 0.011-0.321 0.015M6.204 12.006c-0.075 0.662-0.18 1.357 0.015 2.006 0.255 0.463 0.99 0.461 1.243-0.002 0.191-0.645 0.086-1.335 0.024-1.993-0.343 0.563-0.262 1.236-0.296 1.864-0.139 0.056-0.418 0.171-0.557 0.229-0.184-0.696-0.126-1.442-0.429-2.104M8.070 12.165c-0.024 0.803-0.071 1.618 0.139 2.404 0.124-0.426 0.223-0.855 0.332-1.284 0.293 0.401 0.57 0.814 0.887 1.196-0.069-0.351-0.152-0.697-0.24-1.043 0.113-0.264 0.225-0.529 0.336-0.795-0.375-0.418-0.93-0.45-1.453-0.478M9.844 12.176c-0.013 0.786-0.043 1.577 0.088 2.357 0.148-0.426 0.262-0.861 0.381-1.294 0.293 0.424 0.566 0.862 0.87 1.279-0.045-0.36-0.111-0.716-0.188-1.071 0.634-0.896-0.308-1.438-1.151-1.271M11.736 12.008c-0.156 0.849-0.216 1.749 0.073 2.578 0.178-0.836 0.324-1.781-0.073-2.578M12.825 12.272c-0.563 0.442-0.561 1.476-0.051 1.959 0.437 0.362 0.885-0.079 1.221-0.349-0.369 0.038-0.739 0.088-1.108 0.135-0.133-0.506-0.15-1.035 0.066-1.521 0.324 0.075 0.649 0.146 0.977 0.212-0.259-0.326-0.662-0.726-1.104-0.437M14.121 14.507c0.246-0.234 0.486-0.474 0.722-0.718 0.107-0.008 0.214-0.017 0.321-0.024 0.246 0.255 0.493 0.504 0.752 0.746-0.238-0.756-0.3-1.854-0.906-2.327-0.598 0.467-0.658 1.575-0.889 2.323M16.277 12.028c-0.069 0.763-0.060 1.532-0.056 2.299l0.332-0.004c0.002-0.465 0.002-0.93 0.004-1.395 0.309 0.534 0.617 1.071 0.977 1.575 0.143-0.756 0.135-1.526 0.126-2.291-0.082 0.002-0.251 0.006-0.336 0.008 0 0.429 0.002 0.861 0.002 1.29-0.313-0.518-0.632-1.037-1.048-1.481M18.152 12.217c0 0.716 0 1.432 0.009 2.149 0.51-0.024 1.026-0.062 1.504-0.259-0.45-0.086-0.902-0.148-1.354-0.221 0.262-0.255 0.555-0.476 0.866-0.671-0.294-0.103-0.591-0.202-0.881-0.313 0.334-0.277 0.759-0.366 1.174-0.454-0.030-0.058-0.092-0.174-0.124-0.232-0.398 0.002-0.795 0.002-1.194 0.002M3.542 15.692c0 0.722 0 1.444 0 2.166 0.514-0.028 1.039-0.023 1.521-0.232-0.442-0.090-0.885-0.178-1.331-0.253 0.266-0.279 0.557-0.531 0.874-0.75-0.186-0.021-0.555-0.064-0.741-0.084 0.006-0.101 0.013-0.304 0.019-0.405 0.373-0.079 0.744-0.165 1.106-0.289-0.478-0.079-0.962-0.122-1.447-0.152M5.046 15.536c0.131 0.848 0.405 1.667 0.746 2.453 0.381-0.773 0.654-1.598 0.784-2.451-0.368 0.388-0.553 0.894-0.776 1.369-0.214-0.476-0.381-0.988-0.754-1.371M6.741 17.989c0.244-0.234 0.473-0.484 0.694-0.739 0.144 0.006 0.289 0.011 0.433 0.019 0.208 0.248 0.42 0.489 0.643 0.724-0.182-0.853-0.476-1.678-0.838-2.471-0.478 0.748-0.741 1.607-0.932 2.467M8.796 16.686c-0.231 0.998 0.99 1.607 1.545 0.688-1.059 0.508-1.427-0.454-1.080-1.337 0.366 0.030 0.733 0.056 1.099 0.081-0.549-0.746-1.682-0.388-1.564 0.568M10.682 15.716c0.022 0.6-0.073 1.228 0.109 1.811 0.287 0.506 1.161 0.414 1.283-0.167 0.112-0.608 0.114-1.262-0.163-1.826-0.141 0.741-0.017 1.556-0.465 2.211-0.546-0.542-0.42-1.324-0.435-2.018-0.082-0.004-0.246-0.009-0.328-0.011M12.45 17.987c0.225-0.234 0.437-0.478 0.643-0.729 0.15-0.002 0.3-0.004 0.452-0.006 0.208 0.253 0.424 0.501 0.654 0.735-0.167-0.784-0.396-1.562-0.746-2.284-0.748 0.332-0.731 1.547-1.003 2.284M14.177 15.737c0.216 0.126 0.433 0.249 0.651 0.373 0.002 0.572 0 1.144 0.002 1.718 0.082 0 0.251 0 0.336 0 0.002-0.572-0.002-1.144 0-1.716 0.219-0.124 0.441-0.249 0.66-0.373-0.549-0.015-1.101-0.015-1.648-0.002M15.947 15.724c0 0.701 0 1.402 0 2.104 0.092 0 0.274 0 0.366 0 0-0.703 0-1.404 0-2.107-0.092 0.002-0.274 0.002-0.366 0.004M17.124 15.782c-0.553 0.533-0.559 1.894 0.321 2.089 1.267 0.017 1.003-2.726-0.321-2.089M18.741 15.553c-0.047 0.819-0.069 1.644 0.047 2.458 0.287-0.467 0.262-1.020 0.277-1.547 0.3 0.54 0.615 1.074 1.027 1.539 0.062-0.759 0.054-1.521 0.051-2.282l-0.334 0.004c0 0.437 0.002 0.876 0.004 1.313-0.307-0.527-0.606-1.074-1.072-1.485M7.658 19.183c-0.006 0.714-0.004 1.429-0.002 2.145 0.075 0.004 0.227 0.013 0.302 0.017 0.026-0.367 0.056-0.735 0.092-1.101 0.354 0.399 0.649 0.848 0.992 1.256-0.066-0.343-0.141-0.682-0.216-1.024 0.592-0.926-0.296-1.464-1.168-1.294M9.996 19.196c-0.831 0.281-0.836 1.836-0.026 2.152 1.239 0.227 1.262-2.332 0.026-2.152M11.4 20.878c0.129 0.604 1.093 0.647 1.303 0.077 0.169-0.638 0.067-1.311-0.060-1.944-0.332 0.718 0.038 1.663-0.662 2.207-0.409-0.664-0.274-1.463-0.394-2.198-0.306 0.568-0.315 1.239-0.188 1.858M13.014 19.232c0.831 0.407 0.501 1.374 0.563 2.102 0.082 0 0.246-0.002 0.328-0.002 0-0.578 0-1.153-0.011-1.731 0.174-0.079 0.525-0.238 0.699-0.317-0.525-0.054-1.052-0.060-1.579-0.052M14.707 19.183c-0.006 0.726-0.006 1.453 0.002 2.179 0.521-0.023 1.044-0.058 1.556-0.172-0.407-0.12-0.825-0.199-1.243-0.268-0.006-0.101-0.015-0.304-0.021-0.405 0.293-0.090 0.583-0.18 0.874-0.272-0.293-0.092-0.587-0.184-0.881-0.27 0.011-0.098 0.037-0.289 0.049-0.386 0.364-0.037 0.726-0.081 1.088-0.139-0.446-0.221-0.938-0.234-1.423-0.266z"></path>
<path fill="#035595" d="M8.383 12.551c0.161 0.002 0.48 0.008 0.639 0.009 0.030 0.105 0.092 0.317 0.122 0.422-0.247 0.043-0.495 0.086-0.742 0.128-0.004-0.139-0.013-0.42-0.019-0.559z"></path>
<path fill="#035595" d="M10.206 12.431c0.291 0.144 0.576 0.3 0.849 0.474-0.289 0.081-0.581 0.156-0.872 0.231 0.006-0.176 0.017-0.529 0.022-0.705z"></path>
<path fill="#035595" d="M17.259 16.114c0.765-0.424 0.821 1.052 0.384 1.448-0.694-0.032-0.637-0.994-0.384-1.448z"></path>
<path fill="#035595" d="M8.002 19.429c0.793 0.251 0.951 0.568 0.006 0.746-0.002-0.186-0.004-0.559-0.006-0.746z"></path>
<path fill="#035595" d="M9.975 19.551c0.735-0.159 0.688 1.071 0.339 1.477-0.729 0.099-0.72-1.080-0.339-1.477z"></path>
<path fill="#fff" d="M9.261 5.683c0.559-2.698 3.938-3.941 6.262-2.621-0.971 0.131-1.946 0.315-2.816 0.786 0.613 0.412 1.303 0.846 1.528 1.598 0.546 1.744-0.503 3.681-2.124 4.416-1.277 0.656-2.807 0.465-4.061-0.148 1.035-0.032 2.061-0.264 2.929-0.848-1.144-0.609-2.072-1.821-1.717-3.182z"></path>
<path fill="#fff" d="M18.741 15.553c0.467 0.411 0.765 0.958 1.072 1.485-0.002-0.437-0.004-0.876-0.004-1.313l0.334-0.004c0.004 0.761 0.011 1.523-0.051 2.282-0.413-0.465-0.727-0.999-1.027-1.539-0.015 0.527 0.009 1.080-0.277 1.547-0.116-0.814-0.094-1.639-0.047-2.458z"></path>
<path fill="#324a5c" opacity="0.48" d="M23.533 10.419l0.092 0.351v1.873l-0.086 0.347c-0.054-0.855-0.056-1.714-0.006-2.571z"></path>
<path fill="#fdfdfe" d="M4.189 12.223c0.081-0.004 0.24-0.011 0.321-0.015 0.009 0.291 0.019 0.581 0.028 0.872 0.249-0.006 0.499-0.009 0.748-0.013 0.006-0.287 0.011-0.572 0.019-0.859 0.079 0 0.236-0.002 0.317-0.002 0.006 0.791 0.077 1.601-0.159 2.372-0.098-0.384-0.174-0.774-0.244-1.164-0.206-0.006-0.411-0.009-0.615-0.015-0.084 0.392-0.176 0.78-0.296 1.163-0.159-0.769-0.12-1.558-0.118-2.338z"></path>
<path fill="#fdfdfe" d="M6.204 12.006c0.304 0.662 0.246 1.408 0.429 2.104 0.139-0.058 0.418-0.172 0.557-0.229 0.034-0.628-0.047-1.301 0.296-1.864 0.062 0.658 0.167 1.348-0.024 1.993-0.253 0.463-0.988 0.465-1.243 0.002-0.195-0.649-0.090-1.344-0.015-2.006z"></path>
<path fill="#fdfdfe" d="M8.070 12.165c0.523 0.028 1.078 0.060 1.453 0.478-0.111 0.266-0.223 0.531-0.336 0.795 0.088 0.345 0.171 0.692 0.24 1.043-0.317-0.383-0.594-0.795-0.887-1.196-0.109 0.429-0.208 0.859-0.332 1.284-0.21-0.786-0.163-1.601-0.139-2.404M8.383 12.551c0.006 0.139 0.015 0.42 0.019 0.559 0.248-0.041 0.495-0.084 0.742-0.128-0.030-0.105-0.092-0.317-0.122-0.422-0.159-0.002-0.478-0.008-0.639-0.009z"></path>
<path fill="#fdfdfe" d="M9.844 12.176c0.844-0.167 1.785 0.375 1.151 1.271 0.077 0.354 0.142 0.711 0.188 1.071-0.304-0.416-0.578-0.855-0.87-1.279-0.118 0.433-0.232 0.868-0.381 1.294-0.131-0.78-0.101-1.571-0.088-2.357M10.206 12.431c-0.006 0.176-0.017 0.529-0.022 0.705 0.291-0.075 0.583-0.15 0.872-0.231-0.274-0.174-0.559-0.33-0.849-0.474z"></path>
<path fill="#fdfdfe" d="M11.736 12.008c0.398 0.797 0.251 1.742 0.073 2.578-0.289-0.829-0.229-1.729-0.073-2.578z"></path>
<path fill="#fdfdfe" d="M12.825 12.272c0.443-0.289 0.846 0.111 1.104 0.437-0.328-0.066-0.652-0.137-0.977-0.212-0.216 0.486-0.199 1.014-0.066 1.521 0.369-0.047 0.739-0.098 1.108-0.135-0.336 0.27-0.784 0.711-1.221 0.349-0.51-0.484-0.512-1.517 0.051-1.959z"></path>
<path fill="#fdfdfe" d="M16.277 12.028c0.416 0.444 0.735 0.964 1.048 1.481 0-0.429-0.002-0.861-0.002-1.29 0.084-0.002 0.253-0.006 0.336-0.008 0.009 0.765 0.017 1.536-0.126 2.291-0.36-0.504-0.668-1.041-0.977-1.575-0.002 0.465-0.002 0.93-0.004 1.395l-0.332 0.004c-0.004-0.767-0.013-1.536 0.056-2.299z"></path>
<path fill="#fdfdfe" d="M18.152 12.217c0.399 0 0.797 0 1.194-0.002 0.032 0.058 0.094 0.174 0.124 0.232-0.414 0.088-0.84 0.176-1.174 0.454 0.291 0.111 0.587 0.21 0.881 0.313-0.311 0.195-0.604 0.416-0.866 0.671 0.452 0.073 0.904 0.135 1.354 0.221-0.478 0.197-0.994 0.234-1.504 0.259-0.009-0.716-0.009-1.432-0.009-2.149z"></path>
<path fill="#fdfdfe" d="M3.542 15.692c0.486 0.030 0.969 0.073 1.447 0.152-0.362 0.124-0.733 0.21-1.106 0.289-0.006 0.101-0.013 0.304-0.019 0.405 0.186 0.021 0.555 0.064 0.741 0.084-0.317 0.219-0.607 0.471-0.874 0.75 0.446 0.075 0.889 0.163 1.331 0.253-0.482 0.21-1.007 0.204-1.521 0.232 0-0.722 0-1.444 0-2.166z"></path>
<path fill="#fdfdfe" d="M5.046 15.536c0.373 0.383 0.54 0.894 0.754 1.371 0.223-0.474 0.409-0.981 0.776-1.369-0.129 0.853-0.403 1.678-0.784 2.451-0.341-0.786-0.615-1.605-0.746-2.453z"></path>
<path fill="#fdfdfe" d="M8.796 16.686c-0.118-0.956 1.014-1.314 1.564-0.568-0.366-0.024-0.733-0.051-1.099-0.081-0.347 0.883 0.021 1.845 1.080 1.337-0.555 0.919-1.776 0.309-1.545-0.688z"></path>
<path fill="#fdfdfe" d="M10.682 15.716c0.082 0.002 0.246 0.008 0.328 0.011 0.015 0.694-0.111 1.476 0.435 2.018 0.448-0.654 0.324-1.47 0.465-2.211 0.277 0.564 0.276 1.219 0.163 1.826-0.122 0.581-0.996 0.673-1.283 0.167-0.182-0.583-0.086-1.211-0.109-1.811z"></path>
<path fill="#fdfdfe" d="M14.177 15.737c0.548-0.013 1.099-0.013 1.648 0.002-0.219 0.124-0.441 0.249-0.66 0.373-0.002 0.572 0.002 1.144 0 1.716-0.084 0-0.253 0-0.336 0-0.002-0.574 0-1.146-0.002-1.717-0.218-0.124-0.435-0.247-0.651-0.373z"></path>
<path fill="#fdfdfe" d="M17.124 15.782c1.324-0.637 1.588 2.106 0.321 2.089-0.879-0.195-0.874-1.556-0.321-2.089M17.259 16.114c-0.253 0.454-0.309 1.416 0.384 1.448 0.437-0.396 0.381-1.871-0.384-1.448z"></path>
<path fill="#fdfdfe" d="M7.658 19.183c0.872-0.171 1.761 0.367 1.168 1.294 0.075 0.341 0.15 0.681 0.216 1.024-0.343-0.409-0.637-0.857-0.992-1.256-0.036 0.366-0.066 0.733-0.092 1.101-0.075-0.004-0.227-0.013-0.302-0.017-0.002-0.716-0.004-1.431 0.002-2.145M8.002 19.429c0.002 0.188 0.004 0.561 0.006 0.746 0.945-0.178 0.788-0.495-0.006-0.746z"></path>
<path fill="#fdfdfe" d="M9.996 19.196c1.236-0.18 1.213 2.379-0.026 2.152-0.81-0.317-0.804-1.871 0.026-2.152M9.975 19.551c-0.381 0.398-0.39 1.577 0.339 1.477 0.349-0.407 0.396-1.637-0.339-1.477z"></path>
<path fill="#fdfdfe" d="M11.4 20.878c-0.127-0.619-0.118-1.29 0.188-1.858 0.12 0.735-0.015 1.534 0.394 2.198 0.699-0.544 0.33-1.489 0.662-2.207 0.128 0.634 0.229 1.307 0.060 1.944-0.21 0.57-1.174 0.527-1.303-0.077z"></path>
<path fill="#fdfdfe" d="M13.014 19.232c0.527-0.008 1.054-0.002 1.579 0.052-0.174 0.079-0.525 0.238-0.699 0.317 0.011 0.577 0.011 1.153 0.011 1.731-0.082 0-0.246 0.002-0.328 0.002-0.062-0.727 0.268-1.695-0.563-2.102z"></path>
<path fill="#fdfdfe" d="M14.707 19.183c0.486 0.032 0.977 0.045 1.423 0.266-0.362 0.058-0.724 0.101-1.088 0.139-0.011 0.098-0.037 0.289-0.049 0.386 0.294 0.086 0.589 0.178 0.881 0.27-0.291 0.092-0.581 0.182-0.874 0.272 0.006 0.101 0.015 0.304 0.021 0.405 0.418 0.069 0.836 0.148 1.243 0.268-0.512 0.114-1.035 0.15-1.556 0.172-0.008-0.726-0.008-1.453-0.002-2.179z"></path>
<path fill="#a4c2d9" d="M14.121 14.507c0.231-0.748 0.291-1.856 0.889-2.323 0.606 0.473 0.668 1.571 0.906 2.327-0.259-0.242-0.506-0.491-0.752-0.746-0.107 0.008-0.214 0.017-0.321 0.024-0.236 0.244-0.476 0.484-0.722 0.718z"></path>
<path fill="#e9f0f5" d="M6.741 17.989c0.191-0.861 0.454-1.719 0.932-2.467 0.362 0.793 0.656 1.618 0.838 2.471-0.223-0.234-0.435-0.476-0.643-0.724-0.144-0.008-0.289-0.013-0.433-0.019-0.221 0.255-0.45 0.504-0.694 0.739z"></path>
<path fill="#e3ecf3" d="M12.45 17.987c0.272-0.737 0.255-1.952 1.003-2.284 0.351 0.722 0.579 1.5 0.746 2.284-0.231-0.234-0.446-0.482-0.654-0.735-0.152 0.002-0.302 0.004-0.452 0.006-0.206 0.251-0.418 0.495-0.643 0.729z"></path>
<path fill="#e9f0f6" d="M15.947 15.724c0.092-0.002 0.274-0.002 0.366-0.004 0 0.703 0 1.404 0 2.107-0.092 0-0.274 0-0.366 0 0-0.701 0-1.403 0-2.104z"></path>
</svg>
