<?xml version="1.0" encoding="utf-8"?>
<!-- Generated by IcoMoon.io -->
<!DOCTYPE svg PUBLIC "-//W3C//DTD SVG 1.1//EN" "http://www.w3.org/Graphics/SVG/1.1/DTD/svg11.dtd">
<svg version="1.1" xmlns="http://www.w3.org/2000/svg" xmlns:xlink="http://www.w3.org/1999/xlink" width="24" height="24" viewBox="0 0 24 24">
<path fill="#d40000" d="M11.437 0h1.078c2.686 0.136 5.327 1.152 7.349 2.935 2.479 2.126 3.99 5.298 4.136 8.556v0.954c-0.121 2.909-1.313 5.764-3.343 7.855-2.1 2.207-5.059 3.542-8.099 3.7h-1.076c-2.884-0.139-5.702-1.333-7.781-3.341-2.219-2.098-3.547-5.071-3.701-8.116v-1.014c0.125-2.984 1.384-5.909 3.51-8.011 2.078-2.118 4.972-3.36 7.927-3.518M11.419 2.419c-2.435 0.132-4.798 1.244-6.446 3.041-1.594 1.687-2.519 3.978-2.568 6.296-0.055 2.024 0.548 4.063 1.716 5.72 1.366 1.976 3.499 3.406 5.85 3.907 2.11 0.46 4.372 0.179 6.302-0.791 2.214-1.099 3.974-3.080 4.784-5.418 0.716-2.030 0.72-4.304 0.007-6.337-0.644-1.872-1.895-3.524-3.508-4.669-1.766-1.265-3.972-1.884-6.138-1.75z"></path>
<path fill="#fff" d="M11.419 2.419c2.166-0.134 4.372 0.485 6.138 1.75 1.613 1.145 2.863 2.797 3.508 4.669 0.713 2.033 0.709 4.307-0.007 6.337-0.81 2.338-2.57 4.319-4.784 5.418-1.931 0.97-4.193 1.25-6.302 0.791-2.351-0.502-4.484-1.931-5.85-3.907-1.168-1.657-1.771-3.696-1.716-5.72 0.049-2.318 0.974-4.609 2.568-6.296 1.649-1.796 4.012-2.909 6.446-3.041M8.632 4.672c-0.368 0.521-0.281 1.266 0.144 1.728 0.005 2.32 0 4.64 0.002 6.96 1.853 0.001 3.706 0 5.558 0.001 0.838 1.753 1.658 3.515 2.5 5.267 0.701-0.317 1.409-0.619 2.11-0.94-0.155-0.325-0.305-0.653-0.458-0.979-0.373 0.172-0.745 0.347-1.12 0.518-0.79-1.652-1.574-3.306-2.368-4.956-1.667 0.001-3.334 0-5 0.001-0.002-0.41 0.001-0.82-0.002-1.229 1.238-0.008 2.477-0.001 3.716-0.005 0-0.38 0-0.761 0-1.141-1.236-0.001-2.473-0.004-3.709 0.001-0.012-1.018-0.004-2.036-0.004-3.054 0.458-0.074 0.906-0.334 1.124-0.756 0.338-0.589 0.137-1.406-0.427-1.782-0.634-0.473-1.638-0.305-2.066 0.365M5.531 15.124c0.065 1.552 0.934 3.032 2.234 3.875 1.163 0.775 2.645 1.058 4.010 0.75 1.592-0.329 2.99-1.47 3.632-2.965-0.236-0.498-0.473-0.997-0.703-1.498-0.071 0.512-0.221 1.014-0.475 1.466-0.827 1.541-2.725 2.368-4.423 1.987-1.622-0.314-2.987-1.711-3.179-3.367-0.197-1.403 0.468-2.857 1.618-3.672 0.001-0.434 0.001-0.87-0.001-1.304-1.702 0.893-2.83 2.8-2.713 4.728z"></path>
<path fill="#000" d="M8.632 4.672c0.428-0.67 1.433-0.838 2.066-0.365 0.564 0.376 0.766 1.193 0.427 1.782-0.218 0.422-0.666 0.682-1.124 0.756 0 1.018-0.008 2.036 0.004 3.054 1.236-0.005 2.473-0.002 3.709-0.001 0 0.38 0 0.761 0 1.141-1.24 0.004-2.478-0.004-3.716 0.005 0.004 0.409 0 0.818 0.002 1.229 1.667-0.001 3.334 0 5-0.001 0.793 1.65 1.578 3.304 2.368 4.956 0.374-0.172 0.746-0.347 1.12-0.518 0.154 0.326 0.304 0.654 0.458 0.979-0.701 0.32-1.409 0.623-2.11 0.94-0.841-1.752-1.662-3.514-2.5-5.267-1.853-0.001-3.706 0-5.558-0.001-0.002-2.32 0.002-4.64-0.002-6.96-0.425-0.462-0.512-1.207-0.144-1.728z"></path>
<path fill="#000" d="M5.531 15.124c-0.116-1.928 1.012-3.835 2.713-4.728 0.002 0.434 0.002 0.87 0.001 1.304-1.15 0.815-1.814 2.269-1.618 3.672 0.192 1.656 1.556 3.053 3.179 3.367 1.698 0.38 3.596-0.446 4.423-1.987 0.254-0.452 0.404-0.954 0.475-1.466 0.23 0.5 0.467 1 0.703 1.498-0.642 1.495-2.040 2.636-3.632 2.965-1.366 0.308-2.848 0.025-4.010-0.75-1.301-0.842-2.17-2.323-2.234-3.875z"></path>
</svg>
