<!-- Generated by IcoMoon.io -->
<svg version="1.1" xmlns="http://www.w3.org/2000/svg" width="28" height="24" viewBox="0 0 28 24">
<title>information--dead-end-left--g2</title>
<path fill="#0379c1" d="M0 0h27.672c0.081 0.217 0.245 0.388 0.456 0.483v23.259c-0.212-0.040-0.297 0.046-0.255 0.258h-27.872v-24M20.765 1.602c-0.041 3.637 0.031 7.275-0.035 10.91 0.040 0.884-0.949 1.466-1.709 1.015-2.998-1.709-5.972-3.465-8.963-5.19 0.703-1.269 1.448-2.513 2.16-3.777-1.312-0.784-2.638-1.542-3.964-2.301-1.94 3.351-3.875 6.705-5.792 10.069 1.322 0.76 2.643 1.521 3.967 2.281 0.741-1.25 1.446-2.521 2.181-3.774 3.643 2.106 7.296 4.192 10.931 6.31 0.677 0.361 1.153 1.059 1.191 1.833 0.054 1.182 0 2.366 0.026 3.548 1.527 0.008 3.056 0.009 4.584 0 0-6.975 0.006-13.949-0.003-20.924-1.526-0.003-3.051-0.003-4.575 0z"></path>
<path fill="#e4f1f9" d="M27.672 0h0.456v0.483c-0.211-0.095-0.375-0.266-0.456-0.483z"></path>
<path fill="#fff" d="M20.765 1.602c1.524-0.003 3.050-0.003 4.575 0 0.009 6.975 0.003 13.949 0.003 20.924-1.529 0.009-3.057 0.008-4.584 0-0.026-1.182 0.028-2.366-0.026-3.548-0.038-0.774-0.514-1.472-1.191-1.833-3.635-2.119-7.289-4.204-10.931-6.31-0.735 1.254-1.44 2.524-2.181 3.774-1.324-0.76-2.645-1.521-3.967-2.281 1.917-3.365 3.852-6.718 5.792-10.069 1.325 0.758 2.652 1.516 3.964 2.301-0.712 1.264-1.457 2.509-2.16 3.777 2.99 1.724 5.965 3.481 8.963 5.19 0.76 0.451 1.749-0.131 1.709-1.015 0.066-3.635-0.006-7.273 0.035-10.91M2.891 12.194c1.153 0.676 2.31 1.342 3.465 2.012 1.818-3.17 3.652-6.33 5.466-9.502-1.139-0.689-2.301-1.345-3.456-2.006-1.839 3.158-3.658 6.327-5.476 9.496z"></path>
<path fill="#ec1d24" d="M2.891 12.194c1.818-3.169 3.637-6.338 5.476-9.496 1.156 0.66 2.317 1.316 3.456 2.006-1.815 3.172-3.649 6.332-5.466 9.502-1.156-0.67-2.313-1.336-3.465-2.012z"></path>
<path fill="#e2f0f8" d="M27.872 24c-0.041-0.212 0.043-0.298 0.255-0.258v0.258h-0.255z"></path>
</svg>
