<?xml version="1.0" encoding="utf-8"?>
<!-- Generated by IcoMoon.io -->
<!DOCTYPE svg PUBLIC "-//W3C//DTD SVG 1.1//EN" "http://www.w3.org/Graphics/SVG/1.1/DTD/svg11.dtd">
<svg version="1.1" xmlns="http://www.w3.org/2000/svg" xmlns:xlink="http://www.w3.org/1999/xlink" width="24" height="24" viewBox="0 0 24 24">
<path fill="#fffffe" d="M1.237 3.012h21.581c0.205 0.064 0.407 0.151 0.574 0.29 0.302 0.237 0.49 0.588 0.608 0.947v15.48c-0.017 0.101-0.067 0.192-0.104 0.285-0.185 0.407-0.535 0.741-0.961 0.886-0.216 0.060-0.443 0.031-0.664 0.038-4.296 0.031-8.592 0.023-12.888 0.024-2.576 0-5.152-0.005-7.728-0.024-0.198-0.005-0.399 0.016-0.593-0.032-0.349-0.105-0.651-0.346-0.845-0.653-0.084-0.135-0.161-0.277-0.217-0.426v-15.681c0.023-0.080 0.053-0.157 0.090-0.232 0.148-0.274 0.348-0.525 0.614-0.692 0.159-0.108 0.338-0.194 0.532-0.21M1.663 3.321c-0.336 0.003-0.664 0.144-0.912 0.368-0.238 0.251-0.434 0.571-0.444 0.926 0.001 4.916 0 9.831 0.001 14.746 0.017 0.346 0.208 0.657 0.439 0.903 0.263 0.244 0.62 0.382 0.98 0.374 6.733 0.001 13.465 0 20.198 0 0.289-0.001 0.591 0.019 0.864-0.097 0.184-0.082 0.367-0.184 0.499-0.341 0.17-0.2 0.313-0.432 0.363-0.693 0.027-0.13 0.016-0.264 0.018-0.396 0-4.757 0-9.514 0-14.272-0.001-0.124 0.009-0.249-0.014-0.372-0.040-0.235-0.158-0.449-0.303-0.634-0.151-0.211-0.382-0.35-0.621-0.44-0.266-0.098-0.553-0.072-0.83-0.075-6.746 0.001-13.492-0.003-20.237 0.002z"></path>
<path fill="#fffffe" d="M9.155 4.058c0.475-0.002 0.95-0 1.425-0.001 0.006 0.136 0.013 0.273 0.020 0.409-0.416 0-0.831 0-1.247 0-0.085 0.091-0.169 0.182-0.254 0.273 0.097 0.176 0.195 0.351 0.292 0.527-0.122 0.434-0.245 0.869-0.367 1.303 1.703 0 3.405 0 5.108 0 0.026-0.079 0.051-0.159 0.077-0.238-0.244-0.048-0.491-0.097-0.724-0.188-0.191-0.071-0.387-0.14-0.554-0.26-0.057-0.040-0.108-0.116-0.070-0.185 0.055-0.095 0.176-0.106 0.274-0.112 0.906-0.045 1.813-0.088 2.72-0.125 0.088 0.006 0.202-0.004 0.26 0.076 0.028 0.083-0.021 0.168-0.072 0.231-0.17 0.208-0.395 0.384-0.66 0.448-0.15 0.042-0.302 0.072-0.455 0.101-0.065 0.175-0.13 0.351-0.195 0.526 0.402 0.499 0.805 0.997 1.207 1.496 0.217-0.141 0.46-0.236 0.704-0.319 0.504-0.18 1.048-0.232 1.579-0.188 0.441 0.050 0.882 0.161 1.274 0.376 0.35 0.184 0.698 0.393 0.962 0.692 0.28 0.297 0.532 0.626 0.705 0.998 0.192 0.421 0.318 0.875 0.345 1.338 0.055 0.889-0.223 1.802-0.79 2.492-0.219 0.267-0.454 0.527-0.748 0.712-0.332 0.211-0.679 0.411-1.061 0.515-0.719 0.214-1.506 0.202-2.216-0.044-0.383-0.152-0.769-0.322-1.083-0.595-0.293-0.242-0.568-0.513-0.775-0.834-0.221-0.335-0.398-0.7-0.5-1.088-0.368 0.067-0.737 0.132-1.105 0.199-0.056 0.138-0.175 0.233-0.296 0.312 0.066 0.313 0.132 0.625 0.198 0.938 0.084 0 0.169 0 0.253 0 0.006 0.084 0.013 0.168 0.020 0.253-0.267 0.013-0.533 0.026-0.8 0.039 0-0.091 0-0.182 0-0.273 0.065 0 0.13 0 0.196 0-0.080-0.312-0.161-0.624-0.241-0.937-0.169-0.032-0.338-0.122-0.416-0.282-0.065-0.121-0.068-0.265-0.029-0.395-1.207-1.367-2.416-2.733-3.625-4.1-0.054 0.147-0.108 0.293-0.162 0.44 0.433 0.369 0.833 0.801 1.058 1.331 0.271 0.575 0.396 1.219 0.338 1.854-0.039 0.456-0.171 0.901-0.368 1.313-0.2 0.403-0.49 0.754-0.805 1.071-0.28 0.261-0.617 0.451-0.958 0.621-0.251 0.129-0.526 0.199-0.8 0.26-0.699 0.132-1.437 0.067-2.094-0.206-0.378-0.18-0.753-0.383-1.064-0.668-0.27-0.27-0.52-0.563-0.713-0.893-0.373-0.656-0.541-1.429-0.463-2.181 0.075-0.677 0.327-1.341 0.76-1.871 0.197-0.238 0.399-0.477 0.653-0.657 0.26-0.188 0.543-0.341 0.833-0.476 0.71-0.292 1.512-0.349 2.257-0.167 0.28 0.078 0.561 0.163 0.816 0.306 0.349-0.961 0.697-1.923 1.045-2.885-0.111-0.188-0.221-0.377-0.332-0.565 0.22-0.24 0.442-0.479 0.661-0.72M8.747 7.448c1.151 1.293 2.301 2.586 3.451 3.88-0.013-0.156-0.026-0.312-0.038-0.467-0.059-0-0.118 0-0.176 0-0.006-0.084-0.013-0.169-0.019-0.253 0.227 0 0.455 0 0.682 0 0.006 0.091 0.013 0.181 0.019 0.272-0.052-0-0.103-0-0.155 0 0.019 0.143 0.038 0.285 0.059 0.428 0.452-1.37 0.903-2.74 1.355-4.11-1.699 0.002-3.399 0.004-5.098 0.006-0.026 0.081-0.053 0.162-0.079 0.243M14.512 7.544c-0.477 1.456-0.954 2.911-1.43 4.367 0.386-0.039 0.772-0.079 1.159-0.118-0.070-0.702 0.062-1.419 0.363-2.055 0.204-0.412 0.505-0.769 0.834-1.087-0.309-0.369-0.617-0.739-0.925-1.107M4.697 8.867c-0.249 0.136-0.494 0.29-0.686 0.502-0.161 0.171-0.312 0.352-0.437 0.551-0.156 0.245-0.262 0.518-0.339 0.797-0.163 0.604-0.119 1.26 0.115 1.84 0.136 0.365 0.367 0.686 0.633 0.969 0.245 0.279 0.573 0.464 0.901 0.628 0.17 0.087 0.355 0.137 0.539 0.184 0.213 0.063 0.436 0.062 0.656 0.075 0.188-0.006 0.378-0.014 0.564-0.046 0.227-0.057 0.459-0.11 0.668-0.219 0.277-0.139 0.551-0.292 0.778-0.506 0.265-0.267 0.508-0.564 0.669-0.906 0.149-0.325 0.25-0.674 0.278-1.032 0.050-0.57-0.082-1.148-0.347-1.654-0.154-0.283-0.365-0.53-0.595-0.754-0.153 0.444-0.394 0.854-0.682 1.224-0.267 0.329-0.585 0.611-0.917 0.873-0.007 0.124-0.057 0.25-0.157 0.328-0.098 0.078-0.236 0.087-0.352 0.052-0.158-0.056-0.273-0.223-0.26-0.392 0.008-0.131 0.090-0.254 0.204-0.317 0.073-0.041 0.168-0.030 0.231-0.091 0.334-0.272 0.651-0.572 0.897-0.929 0.224-0.351 0.401-0.733 0.512-1.135-0.229-0.139-0.485-0.228-0.741-0.304-0.709-0.183-1.492-0.103-2.131 0.26M16.894 8.649c-0.202 0.060-0.404 0.127-0.584 0.238 0.534 0.709 1.068 1.418 1.601 2.127 0.178 0.008 0.331 0.147 0.363 0.32 0.044 0.206-0.114 0.432-0.325 0.455-0.1 0.025-0.195-0.041-0.294-0.022-0.875 0.169-1.75 0.336-2.625 0.504 0.145 0.527 0.444 1.014 0.856 1.375 0.146 0.127 0.294 0.255 0.464 0.348 0.202 0.113 0.414 0.207 0.633 0.284 0.748 0.233 1.597 0.169 2.282-0.222 0.248-0.136 0.493-0.29 0.684-0.501 0.088-0.094 0.174-0.19 0.253-0.291 0.618-0.773 0.788-1.873 0.443-2.799-0.134-0.401-0.377-0.756-0.666-1.061-0.24-0.275-0.563-0.46-0.886-0.622-0.218-0.113-0.458-0.17-0.695-0.226-0.501-0.075-1.020-0.052-1.506 0.095M15.113 10.254c-0.134 0.45-0.198 0.921-0.187 1.39 0.832-0.136 1.665-0.272 2.497-0.408-0.524-0.681-1.049-1.363-1.573-2.044-0.315 0.297-0.603 0.644-0.737 1.061z"></path>
<path fill="#fffffe" d="M14.355 16.659c0.218-0.044 0.464-0.039 0.657 0.083 0.144 0.113 0.264 0.265 0.319 0.442 0.096 0.261 0.16 0.536 0.173 0.815 0.006 0.347 0.018 0.7-0.076 1.038-0.059 0.203-0.108 0.42-0.251 0.584-0.069 0.080-0.142 0.161-0.24 0.206-0.171 0.083-0.37 0.082-0.555 0.054-0.257-0.042-0.446-0.263-0.541-0.493-0.137-0.354-0.207-0.734-0.189-1.114-0.013-0.31 0.021-0.622 0.114-0.919 0.041-0.127 0.078-0.259 0.155-0.369 0.106-0.149 0.246-0.291 0.433-0.326M14.455 17.096c-0.124 0.045-0.195 0.168-0.242 0.283-0.148 0.44-0.154 0.916-0.093 1.372 0.041 0.217 0.068 0.46 0.235 0.623 0.111 0.095 0.285 0.101 0.411 0.032 0.089-0.061 0.144-0.161 0.184-0.26 0.095-0.29 0.134-0.596 0.124-0.9 0.004-0.256-0.029-0.512-0.096-0.76-0.028-0.119-0.082-0.234-0.166-0.324-0.091-0.093-0.238-0.103-0.357-0.066z"></path>
<path fill="#fffffe" d="M1.994 16.687c0.347 0.003 0.695-0.007 1.042 0.005 0.174 0.004 0.341 0.080 0.459 0.207 0.145 0.176 0.232 0.402 0.217 0.631 0.008 0.262-0.154 0.488-0.333 0.663 0.206 0.194 0.397 0.447 0.389 0.744 0.018 0.335-0.18 0.673-0.482 0.821-0.113 0.066-0.247 0.072-0.374 0.083-0.306 0.003-0.612 0-0.919 0.001 0-1.052 0-2.104 0-3.156M2.447 17.131c0 0.281-0 0.561 0 0.842 0.162-0.002 0.324 0.004 0.486-0.002 0.083-0.003 0.168-0.033 0.222-0.099 0.102-0.129 0.127-0.303 0.109-0.462-0.017-0.113-0.080-0.24-0.205-0.26-0.202-0.035-0.408-0.010-0.612-0.017M2.447 18.415c0 0.328 0 0.657 0 0.986 0.184-0.005 0.369 0.011 0.552-0.012 0.17-0.022 0.287-0.179 0.317-0.338 0.022-0.142-0.001-0.293-0.075-0.417-0.060-0.114-0.173-0.205-0.305-0.214-0.162-0.012-0.326-0.002-0.489-0.005z"></path>
<path fill="#fffffe" d="M4.286 16.687c0.147 0 0.295 0 0.442 0 0 1.052 0 2.104 0 3.156-0.147 0-0.295 0-0.442 0 0-1.052 0-2.104 0-3.156z"></path>
<path fill="#fffffe" d="M5.415 16.687c0.151 0 0.303 0 0.454 0 0 0.421-0 0.841 0 1.262 0.24-0.42 0.48-0.841 0.719-1.262 0.174 0 0.347 0 0.521 0-0.218 0.369-0.436 0.738-0.654 1.107 0.243 0.683 0.487 1.366 0.731 2.049-0.159-0-0.318-0-0.476-0-0.184-0.513-0.369-1.026-0.554-1.539-0.093 0.179-0.2 0.351-0.283 0.534-0.012 0.335-0.001 0.67-0.005 1.006-0.151-0-0.303-0-0.454-0 0-1.052 0-2.104 0-3.156z"></path>
<path fill="#fffffe" d="M7.708 16.687c0.495 0 0.989 0 1.484 0 0 0.148 0 0.296 0 0.443-0.343 0-0.687 0-1.030 0 0 0.266 0 0.531 0 0.797 0.218 0 0.436 0 0.654 0-0 0.144-0 0.288-0 0.431-0.218 0-0.436 0-0.653 0-0 0.347-0 0.694 0 1.041 0.384 0 0.768 0 1.152 0 0 0.147 0 0.295 0 0.442-0.535 0-1.071 0-1.606 0 0-1.052 0-2.104 0-3.156z"></path>
<path fill="#fffffe" d="M11.418 19.843c0-1.052 0-2.104 0-3.156 0.334 0.004 0.668-0.008 1.001 0.006 0.194 0.003 0.387 0.075 0.528 0.21 0.147 0.164 0.254 0.378 0.244 0.603 0.006 0.199-0.047 0.399-0.152 0.568-0.076 0.103-0.194 0.161-0.304 0.22 0.151 0.516 0.303 1.032 0.454 1.549-0.155 0-0.31 0-0.465 0-0.14-0.495-0.28-0.989-0.421-1.484-0.144 0-0.288 0-0.432 0 0 0.495 0 0.989 0 1.484-0.151-0-0.303-0-0.454-0M11.872 17.131c0 0.266 0 0.532 0 0.797 0.219-0.010 0.445 0.027 0.659-0.035 0.233-0.089 0.283-0.423 0.139-0.609-0.070-0.107-0.202-0.146-0.324-0.151-0.158-0.005-0.317-0-0.475-0.002z"></path>
<path fill="#fffffe" d="M16.136 16.687c0.151 0 0.302 0 0.454 0-0 0.725 0 1.45-0 2.176-0.006 0.13-0.001 0.267 0.072 0.38 0.12 0.247 0.511 0.286 0.678 0.070 0.069-0.093 0.116-0.207 0.115-0.324-0-0.767 0-1.534-0-2.301 0.151 0 0.303 0 0.454 0 0 0.652 0 1.303 0 1.955-0.004 0.223 0.025 0.455-0.059 0.668-0.076 0.25-0.291 0.433-0.525 0.533-0.374 0.15-0.822-0.020-1.043-0.346-0.090-0.154-0.142-0.331-0.146-0.509 0.003-0.767 0-1.534 0.001-2.301z"></path>
<path fill="#fffffe" d="M18.34 16.687c0.535 0 1.070 0 1.605 0-0 0.14-0 0.28 0 0.421-0.192 0-0.384 0-0.576 0 0 0.912 0 1.823 0 2.735-0.151 0-0.303 0-0.454 0 0-0.912 0-1.824 0-2.735-0.192 0-0.383-0-0.575 0-0-0.14 0-0.28 0-0.421z"></path>
<path fill="#fffffe" d="M20.377 16.687c0.495 0 0.989 0 1.483 0 0 0.148 0 0.296 0 0.443-0.343 0-0.686 0-1.030 0 0 0.266 0 0.532 0 0.797 0.218 0 0.435 0 0.653 0 0 0.144 0 0.288 0 0.431-0.218 0-0.436 0-0.653 0 0 0.347 0 0.694 0 1.041 0.384 0 0.768 0 1.152 0-0 0.147-0 0.295 0 0.442-0.535 0-1.070 0-1.605 0 0-1.052 0-2.104 0-3.156z"></path>
<path fill="#046249" d="M1.663 3.321c6.746-0.005 13.492-0.001 20.237-0.002 0.278 0.004 0.564-0.022 0.83 0.075 0.239 0.090 0.47 0.229 0.621 0.44 0.145 0.186 0.263 0.4 0.303 0.634 0.023 0.123 0.013 0.248 0.014 0.372 0 4.757 0 9.514 0 14.272-0.001 0.132 0.010 0.265-0.018 0.396-0.050 0.26-0.193 0.493-0.363 0.693-0.131 0.157-0.315 0.259-0.499 0.341-0.273 0.116-0.575 0.096-0.864 0.097-6.733-0-13.466 0.001-20.198-0-0.36 0.008-0.717-0.13-0.98-0.374-0.232-0.246-0.422-0.557-0.439-0.903-0.001-4.916 0-9.831-0.001-14.746 0.011-0.355 0.206-0.675 0.444-0.926 0.248-0.223 0.576-0.365 0.912-0.368M9.155 4.058c-0.219 0.241-0.441 0.48-0.661 0.72 0.111 0.188 0.221 0.377 0.332 0.565-0.348 0.961-0.697 1.923-1.045 2.885-0.255-0.143-0.536-0.229-0.816-0.306-0.745-0.182-1.547-0.125-2.257 0.167-0.29 0.135-0.573 0.288-0.833 0.476-0.254 0.18-0.456 0.419-0.653 0.657-0.432 0.53-0.685 1.195-0.76 1.871-0.079 0.752 0.090 1.524 0.463 2.181 0.193 0.33 0.443 0.623 0.713 0.893 0.31 0.285 0.685 0.488 1.064 0.668 0.658 0.273 1.396 0.339 2.094 0.206 0.274-0.061 0.549-0.132 0.8-0.26 0.341-0.17 0.678-0.36 0.958-0.621 0.316-0.318 0.606-0.668 0.805-1.071 0.197-0.412 0.329-0.857 0.368-1.313 0.058-0.635-0.067-1.279-0.338-1.854-0.225-0.53-0.625-0.962-1.058-1.331 0.054-0.146 0.108-0.293 0.162-0.44 1.208 1.367 2.417 2.733 3.625 4.1-0.040 0.13-0.037 0.274 0.029 0.395 0.078 0.16 0.247 0.25 0.416 0.282 0.080 0.313 0.161 0.625 0.241 0.937-0.065 0-0.13 0-0.196 0 0 0.091 0 0.182 0 0.273 0.266-0.013 0.533-0.027 0.799-0.039-0.007-0.084-0.013-0.168-0.019-0.253-0.084 0-0.169 0-0.253 0-0.066-0.313-0.132-0.625-0.198-0.938 0.121-0.079 0.24-0.174 0.296-0.312 0.368-0.067 0.737-0.132 1.105-0.199 0.102 0.388 0.279 0.754 0.5 1.088 0.207 0.321 0.482 0.592 0.775 0.834 0.314 0.273 0.701 0.443 1.083 0.595 0.71 0.246 1.497 0.258 2.216 0.044 0.382-0.104 0.729-0.305 1.061-0.515 0.294-0.185 0.529-0.446 0.748-0.712 0.568-0.69 0.845-1.603 0.79-2.492-0.027-0.463-0.153-0.917-0.345-1.338-0.173-0.372-0.426-0.701-0.705-0.998-0.265-0.299-0.612-0.508-0.962-0.692-0.391-0.215-0.833-0.326-1.274-0.376-0.531-0.043-1.076 0.009-1.579 0.188-0.244 0.083-0.487 0.178-0.704 0.319-0.402-0.499-0.805-0.997-1.207-1.496 0.065-0.176 0.13-0.351 0.195-0.526 0.153-0.029 0.305-0.059 0.455-0.101 0.265-0.064 0.49-0.24 0.66-0.448 0.051-0.063 0.101-0.149 0.072-0.231-0.059-0.080-0.172-0.070-0.26-0.076-0.907 0.037-1.813 0.080-2.72 0.125-0.098 0.006-0.22 0.017-0.274 0.112-0.038 0.069 0.014 0.145 0.070 0.185 0.167 0.12 0.363 0.189 0.554 0.26 0.233 0.090 0.48 0.139 0.724 0.188-0.026 0.079-0.052 0.159-0.077 0.238-1.702 0-3.405 0-5.108 0 0.122-0.434 0.245-0.869 0.367-1.303-0.097-0.176-0.195-0.351-0.292-0.527 0.085-0.091 0.169-0.182 0.254-0.273 0.416 0 0.831 0 1.247 0-0.006-0.136-0.013-0.273-0.020-0.409-0.475 0-0.95-0.001-1.425 0.001M14.355 16.659c-0.187 0.036-0.326 0.178-0.433 0.326-0.078 0.11-0.114 0.242-0.155 0.369-0.093 0.296-0.127 0.609-0.114 0.919-0.018 0.38 0.053 0.76 0.189 1.114 0.095 0.23 0.284 0.451 0.541 0.493 0.184 0.028 0.383 0.029 0.555-0.054 0.097-0.045 0.171-0.126 0.24-0.206 0.142-0.163 0.191-0.381 0.251-0.584 0.094-0.338 0.082-0.691 0.076-1.038-0.013-0.279-0.077-0.553-0.173-0.815-0.055-0.177-0.175-0.329-0.319-0.442-0.193-0.122-0.439-0.127-0.657-0.083M1.994 16.687c0 1.052 0 2.104 0 3.156 0.306-0.001 0.613 0.002 0.919-0.001 0.127-0.011 0.261-0.017 0.374-0.083 0.301-0.148 0.499-0.486 0.482-0.821 0.008-0.297-0.183-0.55-0.389-0.744 0.179-0.175 0.34-0.401 0.333-0.663 0.016-0.229-0.072-0.456-0.217-0.631-0.118-0.127-0.285-0.203-0.459-0.207-0.347-0.012-0.695-0.002-1.042-0.005M4.286 16.687c0 1.052 0 2.104 0 3.156 0.147-0 0.295-0 0.442-0 0-1.052 0-2.104 0-3.156-0.147 0-0.295 0-0.442 0M5.415 16.687c0 1.052 0 2.104 0 3.156 0.151 0 0.303 0 0.454 0 0.003-0.335-0.007-0.671 0.005-1.006 0.084-0.183 0.191-0.355 0.283-0.534 0.185 0.513 0.369 1.026 0.554 1.539 0.159 0 0.318 0 0.476 0-0.244-0.683-0.487-1.366-0.731-2.049 0.218-0.369 0.436-0.738 0.654-1.107-0.174 0-0.347 0-0.521 0-0.24 0.42-0.479 0.841-0.719 1.262-0.001-0.421-0-0.841-0-1.262-0.151 0-0.303 0-0.454 0M7.708 16.687c0 1.052 0 2.104 0 3.156 0.535 0 1.071 0 1.606 0 0-0.147 0-0.295 0-0.442-0.384 0-0.768 0-1.152 0-0-0.347-0-0.694 0-1.041 0.218 0 0.436 0 0.653 0 0-0.144 0-0.288 0-0.431-0.218 0-0.436 0-0.654 0 0-0.266 0-0.531 0-0.797 0.343-0 0.687-0 1.030-0 0-0.148 0-0.296 0-0.443-0.495 0-0.989 0-1.484 0M11.418 19.843c0.151 0 0.302 0 0.454 0 0-0.495 0-0.989 0-1.484 0.144 0 0.288 0 0.432 0 0.14 0.495 0.28 0.989 0.421 1.484 0.155-0 0.31-0 0.465-0-0.151-0.516-0.303-1.032-0.454-1.549 0.11-0.059 0.228-0.117 0.304-0.22 0.105-0.169 0.158-0.369 0.152-0.568 0.010-0.225-0.097-0.439-0.244-0.603-0.141-0.135-0.334-0.207-0.528-0.21-0.334-0.014-0.668-0.002-1.001-0.006 0 1.052 0 2.104 0 3.156M16.136 16.687c-0.001 0.767 0.001 1.534-0.001 2.301 0.004 0.178 0.056 0.355 0.146 0.509 0.221 0.326 0.669 0.496 1.043 0.346 0.234-0.099 0.449-0.283 0.525-0.533 0.084-0.213 0.055-0.445 0.059-0.668 0-0.651 0-1.303 0-1.955-0.151 0-0.303 0-0.454 0 0 0.767 0 1.534 0 2.301 0.001 0.117-0.046 0.231-0.115 0.324-0.167 0.217-0.559 0.178-0.678-0.070-0.072-0.113-0.077-0.25-0.072-0.38 0.001-0.725 0-1.45 0-2.176-0.151 0-0.302 0-0.454 0M18.34 16.687c0 0.14-0 0.28 0 0.421 0.192-0 0.383 0 0.575 0 0 0.912 0 1.823 0 2.735 0.151-0 0.303-0 0.454-0 0-0.912 0-1.823 0-2.735 0.192 0 0.384 0 0.576 0-0-0.14-0-0.28 0-0.421-0.535 0-1.070 0-1.605 0M20.377 16.687c0 1.052 0 2.104 0 3.156 0.535-0 1.070-0 1.605-0-0-0.147-0-0.295 0-0.442-0.384 0-0.768 0-1.152 0 0-0.347 0-0.694 0-1.041 0.218 0 0.435 0 0.653 0 0-0.144 0-0.288 0-0.431-0.218 0-0.436 0-0.653 0 0-0.266 0-0.532 0-0.797 0.343 0 0.686 0 1.030 0 0-0.148 0-0.295 0-0.443-0.494 0-0.989 0-1.483 0z"></path>
<path fill="#046249" d="M8.747 7.448c0.026-0.081 0.053-0.162 0.079-0.243 1.699-0.002 3.399-0.004 5.098-0.006-0.452 1.37-0.903 2.74-1.355 4.11-0.020-0.143-0.039-0.285-0.059-0.428 0.052-0 0.103-0 0.155 0-0.006-0.091-0.013-0.182-0.019-0.272-0.227 0-0.455 0-0.682 0 0.006 0.084 0.013 0.169 0.019 0.253 0.059 0 0.117-0 0.176 0 0.013 0.156 0.025 0.312 0.038 0.467-1.15-1.294-2.299-2.587-3.451-3.88z"></path>
<path fill="#046249" d="M14.512 7.544c0.309 0.369 0.617 0.738 0.925 1.107-0.329 0.318-0.63 0.675-0.834 1.087-0.301 0.637-0.433 1.354-0.363 2.055-0.386 0.039-0.772 0.079-1.159 0.118 0.477-1.456 0.954-2.911 1.43-4.367z"></path>
<path fill="#046249" d="M4.697 8.867c0.639-0.364 1.423-0.443 2.131-0.26 0.256 0.076 0.512 0.164 0.741 0.304-0.111 0.402-0.288 0.784-0.512 1.135-0.245 0.357-0.562 0.657-0.897 0.929-0.063 0.060-0.159 0.049-0.231 0.091-0.114 0.063-0.197 0.186-0.204 0.317-0.013 0.169 0.101 0.336 0.26 0.392 0.116 0.035 0.254 0.027 0.352-0.052 0.1-0.078 0.15-0.204 0.157-0.328 0.331-0.262 0.649-0.544 0.917-0.873 0.288-0.37 0.529-0.78 0.682-1.224 0.229 0.224 0.441 0.471 0.595 0.754 0.265 0.505 0.397 1.083 0.347 1.654-0.029 0.357-0.129 0.706-0.278 1.032-0.161 0.342-0.404 0.639-0.669 0.906-0.227 0.214-0.501 0.367-0.778 0.506-0.209 0.108-0.441 0.162-0.668 0.219-0.186 0.032-0.375 0.040-0.564 0.046-0.219-0.013-0.443-0.012-0.656-0.075-0.184-0.047-0.369-0.097-0.539-0.184-0.328-0.164-0.656-0.349-0.901-0.628-0.265-0.282-0.497-0.603-0.633-0.969-0.234-0.58-0.278-1.236-0.115-1.84 0.077-0.279 0.183-0.552 0.339-0.797 0.125-0.199 0.276-0.38 0.437-0.551 0.192-0.212 0.437-0.366 0.686-0.502z"></path>
<path fill="#046249" d="M16.894 8.649c0.486-0.147 1.005-0.169 1.506-0.095 0.237 0.056 0.478 0.113 0.695 0.226 0.323 0.162 0.645 0.347 0.886 0.622 0.289 0.305 0.532 0.66 0.666 1.061 0.344 0.926 0.174 2.026-0.443 2.799-0.079 0.101-0.165 0.197-0.253 0.291-0.191 0.212-0.436 0.365-0.684 0.501-0.685 0.391-1.534 0.455-2.282 0.222-0.218-0.077-0.431-0.171-0.633-0.284-0.17-0.094-0.318-0.221-0.464-0.348-0.412-0.36-0.711-0.847-0.856-1.375 0.875-0.168 1.75-0.335 2.625-0.504 0.099-0.019 0.195 0.047 0.294 0.022 0.211-0.023 0.369-0.249 0.325-0.455-0.033-0.173-0.186-0.312-0.363-0.32-0.534-0.709-1.068-1.418-1.601-2.127 0.18-0.111 0.382-0.178 0.584-0.238z"></path>
<path fill="#046249" d="M15.113 10.254c0.134-0.418 0.422-0.765 0.737-1.061 0.524 0.681 1.049 1.362 1.573 2.044-0.832 0.136-1.665 0.272-2.497 0.408-0.012-0.469 0.052-0.94 0.187-1.39z"></path>
<path fill="#046249" d="M14.455 17.096c0.119-0.037 0.265-0.027 0.357 0.066 0.084 0.090 0.138 0.205 0.166 0.324 0.067 0.247 0.1 0.503 0.096 0.76 0.010 0.304-0.030 0.611-0.124 0.9-0.040 0.098-0.095 0.198-0.184 0.26-0.126 0.069-0.3 0.063-0.411-0.032-0.167-0.163-0.194-0.406-0.235-0.623-0.061-0.456-0.055-0.932 0.093-1.372 0.048-0.115 0.119-0.239 0.242-0.283z"></path>
<path fill="#046249" d="M2.447 17.131c0.204 0.007 0.41-0.017 0.612 0.017 0.124 0.021 0.188 0.147 0.205 0.26 0.019 0.16-0.006 0.334-0.109 0.462-0.054 0.066-0.139 0.096-0.222 0.099-0.162 0.006-0.324 0-0.486 0.002-0-0.28 0-0.561 0-0.842z"></path>
<path fill="#046249" d="M11.872 17.131c0.158 0.002 0.316-0.003 0.475 0.002 0.121 0.005 0.254 0.044 0.324 0.151 0.144 0.186 0.093 0.52-0.139 0.609-0.214 0.062-0.44 0.025-0.659 0.035 0-0.266 0-0.532 0-0.797z"></path>
<path fill="#046249" d="M2.447 18.415c0.163 0.003 0.326-0.007 0.489 0.005 0.132 0.009 0.245 0.1 0.305 0.214 0.074 0.125 0.098 0.275 0.075 0.417-0.030 0.159-0.147 0.316-0.317 0.338-0.183 0.023-0.368 0.007-0.552 0.012 0-0.329 0-0.657 0-0.986z"></path>
</svg>
