<svg xmlns="http://www.w3.org/2000/svg" width="24" height="24">
    <path fill="#039fe3" d="M0 .48h23.663v13.982c-3.054-.006-6.108.012-9.162-.009-.025-3.346-.012-6.691-.04-10.038a388.232 388.232 0 0 0-5.287 0c-.012 3.347.021 6.693.012 10.04-3.062.017-6.124.003-9.186.008V.481zM0 19.841h23.663v3.679H0v-3.679z"/>
    <path fill="#fff" d="M9.174 4.415c1.763-.012 3.524-.012 5.287 0 .029 3.347.015 6.693.04 10.038 3.054.02 6.108.003 9.162.009v5.379H0v-5.379c3.062-.005 6.124.01 9.186-.008.009-3.347-.025-6.693-.012-10.04z"/>
</svg>
