<!-- Generated by IcoMoon.io -->
<svg version="1.1" xmlns="http://www.w3.org/2000/svg" width="24" height="24" viewBox="0 0 24 24">
<title>information--telephone--g2</title>
<path fill="#fff" d="M0.836 0.138c0.271-0.118 0.574-0.104 0.863-0.109 7 0.010 14-0.009 20.999 0.010 0.767-0.016 1.312 0.741 1.269 1.462 0.002 6.999 0.002 13.999 0 20.998 0.052 0.764-0.568 1.528-1.369 1.467-7.065 0.005-14.131 0.004-21.196 0-0.799 0.059-1.416-0.705-1.369-1.467-0.003-6.999-0.002-13.999 0-20.999-0.010-0.551 0.267-1.15 0.803-1.362M1.225 0.533c-0.475 0.098-0.77 0.593-0.727 1.061 0.004 6.971-0.004 13.943 0.004 20.914-0.030 0.539 0.451 1.020 0.989 0.989 7.006 0.005 14.012 0.005 21.017 0 0.539 0.030 1.019-0.45 0.989-0.989 0.006-7.005 0.006-14.011 0-21.016 0.036-0.586-0.52-1.060-1.090-0.993-7.060 0.024-14.125-0.044-21.182 0.034z"></path>
<path fill="#fff" d="M3.894 3.894c5.404-0.001 10.808-0.001 16.212 0 0.001 5.404 0.001 10.808 0 16.212-5.404 0.001-10.808 0.001-16.212 0-0.001-5.404-0.001-10.808 0-16.212M8.772 5.075c-0.002 1.295-0.003 2.591 0 3.886 0.355-0.165 0.709-0.333 1.065-0.497 0.001-0.963-0.001-1.926 0.001-2.889-0.356-0.166-0.71-0.336-1.066-0.5M5.453 8.721c-0.311 3.789 1.59 7.68 4.816 9.706 1.23 0.729 2.853 0.627 4.018-0.186-0.884-0.745-1.771-1.487-2.66-2.226-0.548 0.376-1.419 0.368-1.747-0.29-0.86-1.814-1.715-3.633-2.548-5.459-0.284-0.675 0.275-1.324 0.904-1.504 0.002-1.157 0.002-2.314-0.001-3.471-1.53 0.407-2.725 1.838-2.782 3.43M10.975 9.974c-0.533 0.294-0.624 1.115-0.16 1.513 0.332 0.332 0.836 0.228 1.248 0.354 0.309 0.124 0.348 0.62 0.048 0.777-0.457 0.241-1.001 0.069-1.413-0.187-0.109 0.132-0.217 0.266-0.322 0.401 0.613 0.425 1.547 0.626 2.161 0.105 0.543-0.476 0.279-1.507-0.45-1.616-0.388-0.079-1.115-0.013-1.063-0.605 0.182-0.611 0.978-0.36 1.396-0.164 0.092-0.14 0.18-0.283 0.268-0.426-0.517-0.261-1.173-0.45-1.713-0.152M14.337 9.839c-0.649 0.071-1.099 0.723-1.028 1.356-0.020 0.666-0.098 1.525 0.604 1.889 0.635 0.4 1.576 0.016 1.747-0.715 0.085-0.487 0.051-0.987 0.036-1.478-0.032-0.659-0.719-1.168-1.359-1.052M16.759 9.949c-0.554 0.268-0.682 1.1-0.226 1.517 0.322 0.342 0.825 0.258 1.239 0.364 0.344 0.102 0.391 0.648 0.061 0.799-0.46 0.226-0.99 0.050-1.402-0.199-0.104 0.135-0.208 0.27-0.311 0.405 0.56 0.382 1.33 0.568 1.959 0.248 0.538-0.274 0.653-1.070 0.235-1.497-0.327-0.366-0.86-0.267-1.286-0.4-0.334-0.118-0.356-0.647-0.027-0.788 0.384-0.165 0.804 0.009 1.167 0.154 0.087-0.142 0.174-0.285 0.26-0.428-0.506-0.251-1.131-0.436-1.669-0.175M11.818 15.474c0.988 0.835 1.983 1.66 2.975 2.491 0.102-0.379 0.202-0.758 0.303-1.137-0.737-0.616-1.474-1.232-2.21-1.85-0.355 0.167-0.711 0.333-1.068 0.496z"></path>
<path fill="#fff" d="M14.43 10.336c0.422-0.057 0.818 0.33 0.77 0.755-0.040 0.499 0.163 1.154-0.293 1.511-0.433 0.348-1.14-0.043-1.082-0.593 0.010-0.578-0.202-1.555 0.605-1.673z"></path>
<path fill="#154889" d="M1.225 0.533c7.057-0.078 14.122-0.010 21.182-0.034 0.57-0.067 1.126 0.407 1.090 0.993 0.006 7.005 0.006 14.011 0 21.016 0.030 0.539-0.45 1.019-0.989 0.989-7.005 0.005-14.011 0.005-21.017 0-0.538 0.031-1.019-0.45-0.989-0.989-0.008-6.971 0-13.943-0.004-20.914-0.043-0.468 0.252-0.963 0.727-1.061M3.894 3.894c-0.001 5.404-0.001 10.808 0 16.212 5.404 0.001 10.808 0.001 16.212 0 0.001-5.404 0.001-10.808 0-16.212-5.404-0.001-10.808-0.001-16.212 0z"></path>
<path fill="#000" d="M8.772 5.075c0.356 0.164 0.71 0.334 1.066 0.5-0.002 0.963 0 1.926-0.001 2.889-0.356 0.164-0.71 0.332-1.065 0.497-0.003-1.295-0.002-2.591 0-3.886z"></path>
<path fill="#000" d="M5.453 8.721c0.057-1.592 1.252-3.023 2.782-3.43 0.003 1.157 0.003 2.314 0.001 3.471-0.629 0.18-1.188 0.829-0.904 1.504 0.833 1.826 1.688 3.645 2.548 5.459 0.328 0.658 1.199 0.666 1.747 0.29 0.889 0.739 1.776 1.481 2.66 2.226-1.165 0.813-2.788 0.915-4.018 0.186-3.226-2.026-5.127-5.917-4.816-9.706z"></path>
<path fill="#000" d="M11.818 15.474c0.357-0.163 0.713-0.329 1.068-0.496 0.736 0.618 1.473 1.234 2.21 1.85-0.101 0.379-0.201 0.758-0.303 1.137-0.992-0.831-1.987-1.656-2.975-2.491z"></path>
<path fill="#0c0b09" d="M10.975 9.974c0.54-0.298 1.196-0.109 1.713 0.152-0.088 0.143-0.176 0.286-0.268 0.426-0.418-0.196-1.214-0.447-1.396 0.164-0.052 0.592 0.675 0.526 1.063 0.605 0.729 0.109 0.993 1.14 0.45 1.616-0.614 0.521-1.548 0.32-2.161-0.105 0.105-0.135 0.213-0.269 0.322-0.401 0.412 0.256 0.956 0.428 1.413 0.187 0.3-0.157 0.261-0.653-0.048-0.777-0.412-0.126-0.916-0.022-1.248-0.354-0.464-0.398-0.373-1.219 0.16-1.513z"></path>
<path fill="#0c0b09" d="M14.337 9.839c0.64-0.116 1.327 0.393 1.359 1.052 0.015 0.491 0.049 0.991-0.036 1.478-0.171 0.731-1.112 1.115-1.747 0.715-0.702-0.364-0.624-1.223-0.604-1.889-0.071-0.633 0.379-1.285 1.028-1.356M14.43 10.336c-0.807 0.118-0.595 1.095-0.605 1.673-0.058 0.55 0.649 0.941 1.082 0.593 0.456-0.357 0.253-1.012 0.293-1.511 0.048-0.425-0.348-0.812-0.77-0.755z"></path>
<path fill="#0c0b09" d="M16.759 9.949c0.538-0.261 1.163-0.076 1.669 0.175-0.086 0.143-0.173 0.286-0.26 0.428-0.363-0.145-0.783-0.319-1.167-0.154-0.329 0.141-0.307 0.67 0.027 0.788 0.426 0.133 0.959 0.034 1.286 0.4 0.418 0.427 0.303 1.223-0.235 1.497-0.629 0.32-1.399 0.134-1.959-0.248 0.103-0.135 0.207-0.27 0.311-0.405 0.412 0.249 0.942 0.425 1.402 0.199 0.33-0.151 0.283-0.697-0.061-0.799-0.414-0.106-0.917-0.022-1.239-0.364-0.456-0.417-0.328-1.249 0.226-1.517z"></path>
</svg>
