<svg xmlns="http://www.w3.org/2000/svg" width="24" height="24">
    <path fill="#fff" d="M11.115 0h1.78c3.313.243 6.486 1.924 8.533 4.541 1.496 1.867 2.385 4.194 2.572 6.577v1.773c-.244 3.326-1.935 6.51-4.567 8.558-1.86 1.479-4.167 2.361-6.532 2.551h-1.793c-1.874-.154-3.715-.727-5.324-1.706-2.493-1.506-4.414-3.94-5.27-6.727C.24 14.702.088 13.805 0 12.904v-1.801c.188-2.366 1.07-4.676 2.55-6.535C4.6 1.934 7.786.241 11.115.001zm.251.596c-1.987.102-3.94.747-5.604 1.836-2.568 1.661-4.412 4.394-4.98 7.4-.63 3.186.187 6.622 2.198 9.173a11.45 11.45 0 0 0 7.051 4.248c1.87.325 3.822.182 5.62-.429 2.806-.934 5.203-3.014 6.533-5.654 1.557-3.018 1.649-6.739.244-9.832A11.465 11.465 0 0 0 16.3 1.415a11.379 11.379 0 0 0-4.934-.82z"/>
    <path fill="#fff" d="M14.551 5.552a3.799 3.799 0 0 1 2.983.913c.774.634 1.134 1.65 1.14 2.63.006 1.906.001 3.811.002 5.717.004.774-.161 1.576-.621 2.213-.774 1.054-2.134 1.633-3.432 1.477a3.776 3.776 0 0 1-2.473-1.311c-.54-.646-.743-1.505-.749-2.332V9.984c-.001-.688-.03-1.393.182-2.057.383-1.302 1.651-2.209 2.967-2.375zm.187 1.884c-.921.081-1.508 1.016-1.446 1.889-.002 1.782 0 3.564-.001 5.347-.003.402.053.818.256 1.171.561 1.012 2.196 1.073 2.875.158.276-.364.371-.834.365-1.283V9.282c.005-.53-.161-1.092-.57-1.451-.393-.363-.962-.466-1.479-.395zM5.867 6.995c.609-.442 1.213-.894 1.83-1.324.623-.019 1.248-.003 1.871-.007V18.45H7.677c-.002-3.588 0-7.176-.001-10.764-.603.441-1.204.884-1.808 1.323V6.995z"/>
    <path fill="#00f" d="M11.366.596a11.364 11.364 0 0 1 4.934.82 11.465 11.465 0 0 1 6.128 5.923c1.405 3.092 1.313 6.813-.244 9.832-1.331 2.64-3.727 4.72-6.533 5.654-1.798.611-3.75.754-5.62.429a11.444 11.444 0 0 1-7.051-4.248C.969 16.455.152 13.019.782 9.833c.568-3.006 2.412-5.739 4.98-7.4A11.357 11.357 0 0 1 11.366.597zm3.185 4.956c-1.315.165-2.584 1.073-2.967 2.375-.212.664-.184 1.369-.182 2.057v4.875c.006.826.21 1.685.749 2.332a3.787 3.787 0 0 0 2.473 1.311c1.298.156 2.657-.423 3.432-1.477.459-.637.625-1.44.621-2.213-.001-1.906.004-3.811-.002-5.717-.006-.98-.367-1.996-1.14-2.63a3.799 3.799 0 0 0-2.983-.913zM5.867 6.995v2.014c.604-.439 1.205-.883 1.808-1.323.001 3.588-.001 7.176.001 10.764h1.891V5.664c-.623.004-1.248-.012-1.871.007-.617.43-1.22.882-1.83 1.324z"/>
    <path fill="#00f" d="M14.738 7.436c.517-.071 1.086.032 1.479.395.409.359.575.921.57 1.451.002 1.812 0 3.624 0 5.436.006.449-.089.919-.365 1.283-.679.915-2.315.854-2.875-.158-.203-.353-.259-.769-.256-1.171 0-1.782-.001-3.564.001-5.347-.062-.873.525-1.808 1.446-1.889z"/>
</svg>
