<!-- Generated by IcoMoon.io -->
<svg version="1.1" xmlns="http://www.w3.org/2000/svg" width="24" height="24" viewBox="0 0 24 24">
<title>information--tram-bus-stop--g2</title>
<path fill="#0e518d" d="M0.919 0h22.135c0.444 0.149 0.782 0.492 0.946 0.926v22.12c-0.151 0.444-0.487 0.792-0.928 0.954h-22.115c-0.45-0.14-0.788-0.488-0.958-0.923v-22.126c0.145-0.444 0.485-0.786 0.919-0.952M1.356 0.632c-0.534 0.17-0.839 0.743-0.797 1.285 0.005 6.762-0.005 13.525 0.005 20.287-0.035 0.667 0.558 1.272 1.229 1.225 6.805 0.002 13.609 0.002 20.413 0 0.672 0.046 1.262-0.559 1.23-1.225 0.007-6.803 0.007-13.607 0-20.41 0.032-0.668-0.56-1.27-1.231-1.231-6.721-0.011-13.444 0.002-20.166-0.007-0.228 0.006-0.462 0.005-0.683 0.076z"></path>
<path fill="#0e518d" d="M1.481 1.231c0.174-0.077 0.371-0.065 0.556-0.074 6.724 0.012 13.447-0.008 20.17 0.010 0.412-0.035 0.686 0.367 0.634 0.748 0 6.724 0 13.448 0 20.172 0.052 0.377-0.221 0.785-0.632 0.742-6.804 0.007-13.61 0.006-20.414 0.001-0.412 0.043-0.685-0.366-0.632-0.743 0-6.724 0-13.447 0-20.171-0.010-0.262 0.058-0.566 0.32-0.684M3.6 3.6c0 5.6 0 11.2 0 16.8 5.6 0 11.2 0 16.8 0 0-5.6 0-11.2 0-16.8-5.6 0-11.2 0-16.8 0z"></path>
<path fill="#f7fbf5" d="M1.356 0.632c0.221-0.071 0.455-0.070 0.683-0.076 6.722 0.010 13.445-0.004 20.166 0.007 0.671-0.038 1.264 0.563 1.231 1.231 0.007 6.803 0.007 13.607 0 20.41 0.032 0.666-0.558 1.271-1.23 1.225-6.804 0.002-13.608 0.002-20.413 0-0.671 0.047-1.264-0.558-1.229-1.225-0.010-6.762 0-13.525-0.005-20.287-0.042-0.542 0.263-1.115 0.797-1.285M1.481 1.231c-0.263 0.118-0.33 0.422-0.32 0.684 0 6.724 0 13.447 0 20.171-0.053 0.377 0.221 0.786 0.632 0.743 6.804 0.005 13.61 0.006 20.414-0.001 0.412 0.043 0.684-0.365 0.632-0.742 0-6.724 0-13.448 0-20.172 0.053-0.38-0.222-0.782-0.634-0.748-6.722-0.018-13.446 0.002-20.17-0.010-0.185 0.010-0.382-0.002-0.556 0.074z"></path>
<path fill="#f7fbf5" d="M3.6 3.6c5.6 0 11.2 0 16.8 0 0 5.6 0 11.2 0 16.8-5.6 0-11.2 0-16.8 0 0-5.6 0-11.2 0-16.8M7.063 9.697c0.671 0.467 1.354 0.918 2.018 1.396-1.22 0.006-2.442 0.004-3.662 0.001 0.080 0.69-0.266 1.318-0.347 1.988-0.036 0.614-0.002 1.23-0.012 1.846 0.391 0 0.781 0 1.172 0 0.040-0.151 0.079-0.304 0.119-0.456 1.325 0 2.65 0 3.973 0 0.041 0.152 0.080 0.304 0.121 0.456 1.080 0 2.16 0 3.24 0 0.041-0.152 0.080-0.305 0.121-0.456 1.324 0 2.647 0 3.971 0 0.041 0.152 0.083 0.305 0.125 0.458 0.389-0.002 0.779-0.004 1.169-0.002-0.004-0.54 0.010-1.079 0.001-1.618-0.004-0.757-0.455-1.447-0.358-2.214-2.914-0.001-5.826 0-8.74-0.001 0.67-0.475 1.351-0.932 2.028-1.398-0.82-0.574-1.646-1.138-2.477-1.697-0.818 0.569-1.651 1.118-2.464 1.697M6.673 14.773c-0.065 0.782 0.955 1.039 1.296 0.349 0.251-0.002 0.503-0.001 0.754 0.001 0.341 0.691 1.354 0.43 1.292-0.349-1.114-0.011-2.227-0.010-3.342-0.001M14.118 14.773c-0.070 0.784 0.955 1.039 1.295 0.348 0.251-0.001 0.502 0 0.754 0.002 0.341 0.692 1.351 0.428 1.294-0.349-1.114-0.012-2.228-0.010-3.342-0.001z"></path>
<path fill="#f7fbf5" d="M9.528 8.39c0.64 0.432 1.278 0.864 1.906 1.312-0.632 0.439-1.272 0.869-1.906 1.308-0.626-0.444-1.267-0.868-1.896-1.309 0.625-0.448 1.266-0.872 1.896-1.31z"></path>
<path fill="#f7fbf5" d="M5.688 11.538c0.353-0.001 0.704-0.002 1.056-0.002 0.001 0.497 0.001 0.992 0 1.488-0.481 0.001-0.961 0.001-1.442 0 0.128-0.496 0.258-0.991 0.386-1.486z"></path>
<path fill="#f7fbf5" d="M7.021 11.537c0.596-0.001 1.192-0.001 1.788 0 0.001 0.496 0.001 0.99 0.001 1.486-0.596 0.002-1.193 0.002-1.788 0.001-0.001-0.496-0.001-0.991-0.001-1.487z"></path>
<path fill="#f7fbf5" d="M9.085 11.537c0.596-0.001 1.193-0.001 1.788 0 0 0.496 0 0.991-0.001 1.487-0.595 0.001-1.192 0.001-1.787-0.001-0.001-0.496-0.001-0.99 0-1.486z"></path>
<path fill="#f7fbf5" d="M11.149 11.537c0.612-0.001 1.223-0.001 1.834 0 0.002 0.496 0.001 0.991 0 1.487-0.611 0.001-1.222 0.001-1.832 0-0.002-0.496-0.002-0.991-0.001-1.487z"></path>
<path fill="#f7fbf5" d="M13.259 11.537c0.595-0.001 1.192-0.001 1.788 0 0.001 0.496 0.001 0.99 0 1.486-0.595 0.002-1.192 0.002-1.788 0.001 0-0.496 0-0.991 0-1.487z"></path>
<path fill="#f7fbf5" d="M15.325 11.537c0.595-0.001 1.192-0.001 1.788 0 0 0.496 0 0.991-0.001 1.487-0.596 0.001-1.192 0.001-1.788 0-0.001-0.496-0.001-0.991 0.001-1.487z"></path>
<path fill="#f7fbf5" d="M17.388 11.537c0.352-0.001 0.703 0 1.055 0 0.13 0.496 0.259 0.991 0.386 1.487-0.48 0.001-0.96 0.001-1.44 0-0.002-0.496-0.002-0.991-0.001-1.487z"></path>
<path fill="#2a2d2f" d="M7.063 9.697c0.812-0.578 1.645-1.128 2.464-1.697 0.83 0.559 1.657 1.123 2.477 1.697-0.677 0.466-1.358 0.923-2.028 1.398 2.914 0.001 5.826 0 8.74 0.001-0.097 0.767 0.354 1.457 0.358 2.214 0.008 0.539-0.005 1.078-0.001 1.618-0.39-0.001-0.78 0-1.169 0.002-0.042-0.154-0.084-0.306-0.125-0.458-1.324 0-2.647 0-3.971 0-0.041 0.151-0.080 0.304-0.121 0.456-1.080 0-2.16 0-3.24 0-0.041-0.152-0.080-0.304-0.121-0.456-1.324 0-2.648 0-3.973 0-0.040 0.152-0.079 0.305-0.119 0.456-0.391 0-0.781 0-1.172 0 0.010-0.616-0.024-1.231 0.012-1.846 0.080-0.671 0.427-1.298 0.347-1.988 1.22 0.002 2.442 0.005 3.662-0.001-0.665-0.478-1.348-0.929-2.018-1.396M9.528 8.39c-0.63 0.438-1.271 0.863-1.896 1.31 0.629 0.442 1.27 0.865 1.896 1.309 0.634-0.439 1.273-0.869 1.906-1.308-0.628-0.448-1.266-0.88-1.906-1.312M5.688 11.538c-0.128 0.494-0.258 0.99-0.386 1.486 0.481 0.001 0.961 0.001 1.442 0 0.001-0.496 0.001-0.991 0-1.488-0.352 0-0.703 0.001-1.056 0.002M7.021 11.537c0 0.496 0 0.991 0.001 1.487 0.595 0.001 1.192 0.001 1.788-0.001 0-0.496 0-0.99-0.001-1.486-0.596-0.001-1.192-0.001-1.788 0M9.085 11.537c-0.001 0.496-0.001 0.99 0 1.486 0.595 0.002 1.192 0.002 1.787 0.001 0.001-0.496 0.001-0.991 0.001-1.487-0.595-0.001-1.192-0.001-1.788 0M11.149 11.537c-0.001 0.496-0.001 0.991 0.001 1.487 0.611 0.001 1.222 0.001 1.832 0 0.001-0.496 0.002-0.991 0-1.487-0.611-0.001-1.222-0.001-1.834 0M13.259 11.537c0 0.496 0 0.991 0 1.487 0.596 0.001 1.193 0.001 1.788-0.001 0.001-0.496 0.001-0.99 0-1.486-0.596-0.001-1.193-0.001-1.788 0M15.325 11.537c-0.002 0.496-0.002 0.991-0.001 1.487 0.596 0.001 1.192 0.001 1.788 0 0.001-0.496 0.001-0.991 0.001-1.487-0.596-0.001-1.193-0.001-1.788 0M17.388 11.537c-0.001 0.496-0.001 0.991 0.001 1.487 0.48 0.001 0.96 0.001 1.44 0-0.127-0.496-0.257-0.991-0.386-1.487-0.352 0-0.703-0.001-1.055 0z"></path>
<path fill="#2a2d2f" d="M6.673 14.773c1.115-0.008 2.228-0.010 3.342 0.001 0.061 0.779-0.952 1.040-1.292 0.349-0.251-0.002-0.503-0.004-0.754-0.001-0.341 0.69-1.361 0.433-1.296-0.349z"></path>
<path fill="#2a2d2f" d="M14.118 14.773c1.114-0.008 2.228-0.011 3.342 0.001 0.058 0.778-0.953 1.042-1.294 0.349-0.252-0.002-0.503-0.004-0.754-0.002-0.34 0.691-1.364 0.436-1.295-0.348z"></path>
</svg>
