<?xml version="1.0" encoding="utf-8"?>
<!-- Generated by IcoMoon.io -->
<!DOCTYPE svg PUBLIC "-//W3C//DTD SVG 1.1//EN" "http://www.w3.org/Graphics/SVG/1.1/DTD/svg11.dtd">
<svg version="1.1" xmlns="http://www.w3.org/2000/svg" xmlns:xlink="http://www.w3.org/1999/xlink" width="28" height="24" viewBox="0 0 28 24">
<path fill="#091c5a" d="M0.013 0.051h28.028v23.943h-28.028v-23.943z"></path>
<path fill="#fff" d="M2.053 0.051h23.943c1.131 0 2.044 0.917 2.044 2.044v19.85c0 1.131-0.913 2.048-2.044 2.048h-23.943c-1.127 0-2.040-0.917-2.040-2.048 0 0 0 0 0-0.004v-19.846c-0.004-1.127 0.909-2.044 2.040-2.044v0z"></path>
<path fill="#091c5a" d="M2.053 0.921h23.943c0.645 0 1.167 0.53 1.167 1.17v19.85c0 0.648-0.522 1.17-1.167 1.17h-23.943c-0.641 0-1.167-0.522-1.167-1.17v0-19.85c0-0.641 0.522-1.17 1.167-1.17 0 0 0 0 0.008 0h-0.008z"></path>
<path fill="#fff" d="M10.001 10.292l0.154 1.455c-1.020 0.819-1.613 2.060-1.613 3.369 0 2.38 1.934 4.318 4.322 4.318 2.119 0 3.934-1.55 4.263-3.65l0.787 1.76c-2.578 5.374-10.657 3.535-10.657-2.428 0-1.981 1.048-3.816 2.752-4.828l-0.008 0.004z"></path>
<path fill="#fff" d="M10.748 13.507h5.809l2.357 5.283 2.97-1.507-0.569-1.281-1.72 0.874-2.123-4.765h-5.516l-0.21-2.017h3.567v-1.404h-3.717l-0.214-2.044c0.949-0.004 1.712-0.775 1.712-1.724s-0.767-1.72-1.72-1.72-1.724 0.771-1.724 1.72c0 0.352 0.107 0.692 0.304 0.977l0.795 7.608z"></path>
</svg>
