<!-- Generated by IcoMoon.io -->
<svg version="1.1" xmlns="http://www.w3.org/2000/svg" width="8" height="24" viewBox="0 0 8 24">
<title>information--highway-reference-location--g2</title>
<path fill="#606267" d="M0.577 0h6.923c0.233 0.055 0.411 0.237 0.528 0.438v23.174c-0.090 0.168-0.245 0.285-0.401 0.389h-7.149c-0.22-0.108-0.433-0.3-0.448-0.56 0.015-0.131 0.012-0.264 0.012-0.396 0-7.334 0-14.669 0-22.003 0-0.146 0.005-0.292-0.013-0.437 0.026-0.291 0.266-0.541 0.548-0.603M0.556 0.104c-0.289 0.088-0.492 0.383-0.473 0.685-0 7.488-0.001 14.975 0 22.463-0.022 0.365 0.295 0.711 0.663 0.705 2.192 0 4.384 0.001 6.576 0 0.374 0.015 0.703-0.335 0.677-0.708 0-7.486 0-14.973-0-22.459 0.032-0.378-0.298-0.735-0.68-0.717-2.148-0.006-4.297 0-6.445-0.003-0.106 0.002-0.215 0.001-0.317 0.032z"></path>
<path fill="#fff" d="M0.556 0.104c0.103-0.032 0.211-0.031 0.317-0.032 2.148 0.003 4.297-0.003 6.445 0.003 0.383-0.019 0.712 0.339 0.68 0.717 0.001 7.486 0 14.973 0 22.459 0.027 0.372-0.302 0.722-0.677 0.708-2.192 0.001-4.384 0-6.576 0-0.368 0.006-0.685-0.34-0.663-0.705-0.001-7.488-0-14.975 0-22.463-0.019-0.302 0.183-0.597 0.473-0.685M0.639 0.229c-0.267 0.055-0.428 0.341-0.413 0.6-0 7.489 0 14.978 0 22.467-0.006 0.318 0.303 0.537 0.602 0.519 2.165 0.007 4.33 0.002 6.495 0.002 0.319 0.012 0.557-0.302 0.535-0.605 0.001-7.377-0-14.754 0.001-22.13-0.004-0.215 0.037-0.458-0.101-0.643-0.139-0.211-0.417-0.231-0.646-0.227-2.158 0.014-4.318-0.021-6.473 0.017z"></path>
<path fill="#fff" d="M1.365 1.776c0.114-0 0.228-0 0.343 0.001 0.052 0.399 0.087 0.8 0.141 1.199 0.084-0.398 0.139-0.803 0.218-1.202 0.097 0.001 0.193 0.004 0.29 0.010 0.065 0.392 0.133 0.784 0.205 1.175 0.072-0.391 0.094-0.789 0.146-1.183 0.115-0 0.23 0 0.344 0.001-0.1 0.887-0.202 1.773-0.308 2.659-0.095-0-0.189-0.001-0.284-0.001-0.093-0.476-0.152-0.96-0.257-1.433-0.099 0.475-0.154 0.958-0.245 1.434-0.095-0-0.19-0.001-0.285-0.001-0.104-0.886-0.207-1.772-0.308-2.659z"></path>
<path fill="#fff" d="M3.401 2.202c0.246-0.054 0.53-0.013 0.791-0.020 0.050 0.079 0.011 0.193 0.022 0.285-0.178 0-0.357 0-0.535 0.001-0.001 0.189-0 0.378-0.001 0.567 0.12 0.001 0.24 0.002 0.359 0.002 0 0.097 0 0.195 0 0.292-0.12 0-0.24 0.001-0.36 0.002 0.002 0.259 0.001 0.518 0.001 0.778 0.189 0.001 0.378 0.001 0.567 0.001 0 0.095-0.001 0.191-0.001 0.286-0.28 0-0.561-0.002-0.841 0.002-0.010-0.732-0.007-1.464-0.002-2.196z"></path>
<path fill="#fff" d="M4.637 2.306c0.145-0.193 0.46-0.212 0.631-0.045 0.111 0.106 0.129 0.267 0.158 0.41-0.095 0-0.191-0.002-0.285-0.007-0.010-0.122-0.085-0.292-0.234-0.223-0.188 0.131-0.084 0.408 0.059 0.536 0.296 0.299 0.558 0.725 0.417 1.158-0.096 0.298-0.499 0.392-0.736 0.204-0.146-0.12-0.173-0.319-0.188-0.495 0.093 0 0.186 0 0.28 0 0.022 0.082 0.029 0.171 0.076 0.244 0.092 0.11 0.312 0.061 0.313-0.096 0.049-0.355-0.228-0.619-0.433-0.869-0.193-0.22-0.247-0.58-0.057-0.818z"></path>
<path fill="#fff" d="M5.597 2.184c0.28-0.011 0.562-0.002 0.842-0.005 0 0.096 0 0.191 0.001 0.287-0.095 0-0.19 0.001-0.284 0.001-0.006 0.643 0.001 1.286-0.003 1.929-0.093 0-0.186 0-0.279 0-0.002-0.643 0.002-1.286-0.002-1.928-0.090-0.001-0.18-0.001-0.27-0.002-0.001-0.094-0.002-0.188-0.005-0.282z"></path>
<path fill="#fff" d="M2.255 6.243c0.488 0.419 1.263 0.428 1.747-0 0.488 0.419 1.264 0.429 1.749 0 0.384 0.362 0.762 0.731 1.144 1.096-0.238 0.344-0.375 0.765-0.345 1.185 0.037 0.505 0.372 0.946 0.339 1.462-0.021 0.675-0.521 1.299-1.176 1.465-0.342 0.106-0.71 0.001-1.050 0.114-0.258 0.074-0.479 0.237-0.658 0.433-0.307-0.363-0.79-0.539-1.26-0.493-0.806 0.035-1.559-0.632-1.619-1.436-0.079-0.574 0.334-1.062 0.338-1.626 0.007-0.395-0.129-0.781-0.347-1.107 0.381-0.363 0.757-0.73 1.138-1.093M4.12 7.618c-0.241 0.134-0.371 0.397-0.432 0.656 0.155 0.037 0.31 0.074 0.466 0.105 0.068-0.523 0.91-0.559 1.082-0.099 0.087 0.323-0.274 0.454-0.495 0.577-0.623 0.303-1.048 0.961-1.052 1.655 0.675 0 1.349-0.001 2.024 0.001 0.005-0.161 0.005-0.321 0.001-0.482-0.487-0.002-0.973 0.004-1.46-0.003 0.087-0.19 0.203-0.369 0.359-0.509 0.267-0.246 0.641-0.339 0.893-0.603 0.271-0.28 0.284-0.765 0.027-1.058-0.33-0.413-0.962-0.483-1.414-0.242M2.678 7.535c-0.098 0.116-0.235 0.189-0.387 0.198-0.001 0.121-0 0.242 0.001 0.364 0.091 0 0.183 0.004 0.274 0.009-0.004 0.802-0.004 1.605 0 2.408 0.159-0 0.318-0 0.477-0.001 0.002-0.993 0.003-1.985 0-2.978-0.122-0.001-0.243-0.001-0.365 0z"></path>
<path fill="#fff" d="M3.209 13.788c0.123 0 0.246 0 0.369 0 0.006 0.888 0.006 1.775 0 2.663-0.123-0-0.246-0-0.369 0-0.002-0.888-0.002-1.775 0-2.663z"></path>
<path fill="#fff" d="M0.873 13.789c0.127-0.001 0.253-0.001 0.38 0 0.183 0.477 0.29 0.992 0.512 1.448 0.158-0.483 0.319-0.965 0.481-1.447 0.127-0.001 0.254-0.001 0.381 0 0 0.887 0.002 1.774-0.001 2.66-0.127 0.001-0.254 0.001-0.381 0-0.003-0.489 0.006-0.979-0.005-1.468-0.175 0.48-0.32 0.971-0.49 1.452-0.176-0.48-0.314-0.974-0.494-1.453-0.005 0.489 0.001 0.979-0.002 1.468-0.127 0.001-0.254 0.001-0.381 0 0-0.887 0-1.774 0-2.661z"></path>
<path fill="#fff" d="M4.167 13.791c0.128-0.002 0.257-0.003 0.385-0.002 0.001 0.768 0 1.536 0 2.304 0.323 0.005 0.646-0.002 0.969 0.003 0 0.117 0.001 0.233 0.002 0.35-0.452 0.009-0.905 0.003-1.357 0.003 0.002-0.886 0-1.773 0-2.659z"></path>
<path fill="#fff" d="M5.896 13.789c0.417-0.001 0.834-0.003 1.25 0.001-0 0.124 0 0.247 0 0.371-0.288 0.002-0.577 0.001-0.865 0-0.007 0.225-0.005 0.45-0.002 0.674 0.183-0 0.366-0 0.549 0 0.001 0.121 0.001 0.242 0 0.363-0.183 0.001-0.365 0.001-0.547 0-0.007 0.292-0.002 0.584-0.003 0.876 0.32 0 0.641 0.004 0.961-0.002 0.012 0.126 0.012 0.254 0 0.381-0.445-0.005-0.891-0.005-1.336 0-0.017-0.888-0.003-1.776-0.007-2.664z"></path>
<path fill="#fff" d="M1.261 18.904c0.008-0.523 0.591-0.9 1.070-0.688 0.461 0.181 0.579 0.797 0.367 1.206-0.327 0.614-0.837 1.172-0.923 1.886 0.32 0.003 0.639 0 0.959 0.002 0.001 0.153 0.001 0.307 0.002 0.461-0.49 0.004-0.979 0.001-1.469 0.001-0.021-0.71 0.212-1.411 0.644-1.972 0.206-0.303 0.548-0.646 0.381-1.042-0.139-0.272-0.559-0.137-0.575 0.15-0.152 0.001-0.304 0.001-0.456-0.003z"></path>
<path fill="#fff" d="M3.093 20.511c0.048-0.92 0.529-1.791 1.259-2.347 0.086 0.125 0.168 0.253 0.247 0.383-0.365 0.299-0.664 0.68-0.837 1.121 0.255-0.069 0.54 0.046 0.657 0.287 0.229 0.445 0.243 0.996 0.065 1.46-0.167 0.463-0.866 0.569-1.172 0.191-0.241-0.307-0.24-0.725-0.219-1.096M3.752 20.141c-0.195 0.089-0.198 0.344-0.206 0.529 0.008 0.214-0.030 0.478 0.146 0.639 0.126 0.128 0.369 0.045 0.394-0.132 0.062-0.278 0.089-0.578 0.008-0.855-0.038-0.145-0.198-0.236-0.341-0.181z"></path>
<path fill="#fff" d="M5.756 18.2c0.324-0.12 0.72 0.023 0.866 0.341 0.235 0.494 0.191 1.059 0.194 1.591-0.011 0.473 0.002 0.985-0.256 1.402-0.245 0.389-0.894 0.382-1.139-0.004-0.213-0.325-0.241-0.73-0.256-1.107-0-0.52-0.027-1.049 0.099-1.558 0.072-0.27 0.213-0.562 0.492-0.666M5.915 18.64c-0.145 0.078-0.191 0.254-0.229 0.402-0.091 0.44-0.059 0.893-0.060 1.34 0.022 0.305 0.014 0.647 0.209 0.901 0.1 0.132 0.31 0.076 0.368-0.068 0.163-0.349 0.138-0.749 0.143-1.126-0.003-0.407 0.031-0.827-0.095-1.22-0.040-0.14-0.176-0.302-0.336-0.23z"></path>
<path fill="#00694f" d="M0.639 0.229c2.156-0.038 4.316-0.003 6.473-0.017 0.229-0.004 0.507 0.015 0.646 0.227 0.139 0.186 0.097 0.428 0.101 0.643-0.001 7.377 0 14.754-0.001 22.13 0.022 0.303-0.216 0.617-0.535 0.605-2.165 0-4.33 0.005-6.495-0.002-0.299 0.018-0.608-0.2-0.602-0.519 0-7.489-0-14.978 0-22.467-0.015-0.26 0.145-0.545 0.413-0.6M1.365 1.776c0.101 0.887 0.204 1.773 0.308 2.659 0.095 0 0.19 0 0.285 0.001 0.091-0.476 0.147-0.959 0.245-1.434 0.105 0.474 0.164 0.957 0.257 1.433 0.095 0 0.189 0 0.284 0.001 0.106-0.886 0.208-1.772 0.308-2.659-0.115-0.001-0.23-0.001-0.344-0.001-0.051 0.394-0.074 0.792-0.146 1.183-0.072-0.391-0.14-0.783-0.205-1.175-0.096-0.006-0.193-0.009-0.29-0.010-0.079 0.399-0.134 0.804-0.218 1.202-0.054-0.399-0.090-0.8-0.141-1.199-0.114-0.001-0.228-0.001-0.343-0.001M3.401 2.202c-0.005 0.732-0.008 1.464 0.002 2.196 0.28-0.003 0.561-0.001 0.841-0.002 0-0.095 0.001-0.191 0.001-0.286-0.189-0-0.378 0-0.567-0.001-0-0.26 0.001-0.519-0.001-0.778 0.12-0.001 0.24-0.002 0.36-0.002 0-0.097 0-0.195 0-0.292-0.12-0-0.24-0.001-0.359-0.002 0.001-0.189 0-0.378 0.001-0.567 0.178-0.001 0.356-0.001 0.535-0.001-0.011-0.092 0.028-0.205-0.022-0.285-0.26 0.007-0.544-0.034-0.791 0.020M4.637 2.306c-0.19 0.238-0.136 0.598 0.057 0.818 0.205 0.25 0.482 0.514 0.433 0.869-0.001 0.157-0.22 0.206-0.313 0.096-0.047-0.073-0.054-0.162-0.076-0.244-0.093 0-0.186 0-0.28 0 0.016 0.176 0.043 0.375 0.188 0.495 0.237 0.188 0.64 0.094 0.736-0.204 0.141-0.433-0.121-0.86-0.417-1.158-0.144-0.128-0.247-0.405-0.059-0.536 0.149-0.070 0.225 0.101 0.234 0.223 0.095 0.004 0.19 0.007 0.285 0.007-0.030-0.143-0.047-0.304-0.158-0.41-0.171-0.167-0.486-0.148-0.631 0.045M5.597 2.184c0.002 0.094 0.003 0.188 0.005 0.282 0.090 0.001 0.18 0.001 0.27 0.002 0.005 0.643 0 1.286 0.002 1.928 0.093 0 0.186 0 0.279 0 0.004-0.643-0.002-1.286 0.003-1.929 0.094 0 0.189-0.001 0.284-0.001-0-0.096-0.001-0.192-0.001-0.287-0.281 0.002-0.562-0.006-0.842 0.005M2.255 6.243c-0.381 0.363-0.757 0.73-1.138 1.093 0.218 0.326 0.354 0.712 0.347 1.107-0.004 0.564-0.417 1.052-0.338 1.626 0.060 0.804 0.813 1.471 1.619 1.436 0.47-0.046 0.953 0.13 1.26 0.493 0.179-0.197 0.4-0.359 0.658-0.433 0.34-0.114 0.708-0.008 1.050-0.114 0.655-0.166 1.155-0.79 1.176-1.465 0.033-0.515-0.302-0.957-0.339-1.462-0.030-0.42 0.107-0.841 0.345-1.185-0.382-0.364-0.76-0.734-1.144-1.096-0.485 0.429-1.261 0.419-1.749 0-0.485 0.429-1.259 0.42-1.747 0M3.209 13.788c-0.002 0.888-0.002 1.775 0 2.663 0.123-0 0.246-0 0.369 0 0.006-0.888 0.006-1.775 0-2.663-0.123 0-0.246 0-0.369 0M0.873 13.789c0 0.887 0 1.774 0 2.661 0.127 0.001 0.254 0.001 0.381-0 0.004-0.49-0.002-0.979 0.002-1.468 0.18 0.479 0.318 0.973 0.494 1.453 0.171-0.481 0.315-0.972 0.49-1.452 0.011 0.489 0.001 0.979 0.005 1.468 0.127 0.001 0.254 0.001 0.381-0 0.002-0.887 0.001-1.774 0.001-2.66-0.127-0.001-0.254-0.001-0.381 0-0.162 0.482-0.323 0.964-0.481 1.447-0.222-0.456-0.329-0.971-0.512-1.448-0.126-0.001-0.253-0.001-0.38 0M4.167 13.791c0 0.886 0.001 1.773-0 2.659 0.453-0 0.905 0.005 1.357-0.003-0.002-0.117-0.002-0.233-0.002-0.35-0.323-0.005-0.646 0.001-0.969-0.003-0-0.768 0-1.536-0-2.304-0.128-0.001-0.257-0.001-0.385 0.002M5.896 13.789c0.004 0.888-0.010 1.776 0.007 2.664 0.445-0.005 0.891-0.005 1.336 0 0.012-0.127 0.012-0.254-0-0.381-0.32 0.006-0.641 0.003-0.961 0.002 0.001-0.292-0.004-0.584 0.003-0.876 0.182 0.001 0.364 0.001 0.547 0 0.001-0.121 0.001-0.242 0-0.363-0.183-0.001-0.366-0.001-0.549-0-0.002-0.225-0.005-0.45 0.002-0.674 0.288 0.001 0.577 0.002 0.865 0-0-0.124-0.001-0.247-0-0.371-0.417-0.005-0.834-0.002-1.25-0.001M1.261 18.904c0.152 0.005 0.304 0.004 0.456 0.003 0.016-0.287 0.437-0.422 0.575-0.15 0.167 0.396-0.176 0.74-0.381 1.042-0.432 0.562-0.665 1.263-0.644 1.972 0.49 0 0.98 0.002 1.469-0.001-0.001-0.154-0.001-0.307-0.002-0.461-0.32-0.002-0.639 0.001-0.959-0.002 0.086-0.714 0.596-1.272 0.923-1.886 0.212-0.409 0.094-1.026-0.367-1.206-0.479-0.212-1.062 0.165-1.070 0.688M3.093 20.511c-0.021 0.371-0.022 0.789 0.219 1.096 0.306 0.377 1.005 0.271 1.172-0.191 0.178-0.465 0.163-1.016-0.065-1.46-0.117-0.241-0.402-0.356-0.657-0.287 0.173-0.441 0.472-0.823 0.837-1.121-0.078-0.13-0.161-0.258-0.247-0.383-0.73 0.556-1.211 1.427-1.259 2.347M5.756 18.2c-0.28 0.104-0.421 0.395-0.492 0.666-0.126 0.509-0.099 1.038-0.099 1.558 0.015 0.377 0.042 0.782 0.256 1.107 0.245 0.386 0.894 0.393 1.139 0.004 0.259-0.417 0.245-0.929 0.256-1.402-0.002-0.532 0.042-1.097-0.194-1.591-0.147-0.319-0.542-0.461-0.866-0.341z"></path>
<path fill="#00694f" d="M5.915 18.64c0.161-0.072 0.297 0.090 0.336 0.23 0.126 0.393 0.091 0.813 0.095 1.22-0.005 0.376 0.020 0.776-0.143 1.126-0.057 0.144-0.268 0.2-0.368 0.068-0.195-0.254-0.187-0.596-0.209-0.901 0.002-0.446-0.030-0.899 0.060-1.34 0.038-0.148 0.084-0.324 0.229-0.402z"></path>
<path fill="#00694f" d="M3.752 20.141c0.143-0.055 0.303 0.036 0.341 0.181 0.081 0.277 0.054 0.577-0.008 0.855-0.025 0.177-0.268 0.26-0.394 0.132-0.175-0.161-0.137-0.425-0.146-0.639 0.008-0.185 0.011-0.44 0.206-0.53z"></path>
<path fill="#cacbcc" d="M0 0.548l0.029 0.055c0.017 0.145 0.013 0.291 0.013 0.437 0 7.334 0 14.669 0 22.003 0 0.132 0.003 0.265-0.012 0.396l-0.030 0.054v-22.946z"></path>
<path fill="#2b2e34" d="M4.12 7.618c0.452-0.24 1.084-0.17 1.414 0.242 0.256 0.293 0.243 0.778-0.027 1.058-0.252 0.263-0.626 0.357-0.893 0.603-0.156 0.14-0.272 0.319-0.359 0.509 0.487 0.007 0.973 0.001 1.46 0.003 0.004 0.161 0.004 0.321-0.001 0.482-0.675-0.002-1.349-0-2.024-0.001 0.003-0.695 0.429-1.353 1.052-1.655 0.221-0.124 0.582-0.254 0.495-0.577-0.172-0.46-1.014-0.424-1.082 0.099-0.156-0.032-0.312-0.068-0.466-0.105 0.061-0.259 0.191-0.522 0.432-0.656z"></path>
<path fill="#2b2e34" d="M2.678 7.535c0.121-0.002 0.243-0.002 0.365-0 0.003 0.993 0.002 1.985 0 2.978-0.159 0-0.318 0-0.477 0.001-0.004-0.803-0.004-1.606 0-2.408-0.091-0.005-0.183-0.009-0.274-0.009-0.001-0.121-0.002-0.242-0.001-0.364 0.153-0.009 0.289-0.082 0.387-0.198z"></path>
</svg>
