<!-- Generated by IcoMoon.io -->
<svg version="1.1" xmlns="http://www.w3.org/2000/svg" width="24" height="24" viewBox="0 0 24 24">
<title>information--bicycles-crossing--g1</title>
<path fill="#0c479d" d="M0 0h11.923c-3.969 6.889-7.961 13.765-11.923 20.658v-20.658z"></path>
<path fill="#0c479d" d="M12.062 0h11.938v20.657c-3.972-6.889-7.942-13.782-11.938-20.657z"></path>
<path fill="#0c479d" d="M0 21.093c8-0.001 16-0.001 24 0v2.907h-24v-2.907z"></path>
<path fill="#fff" d="M11.923 0h0.139c3.996 6.875 7.966 13.768 11.938 20.657v0.436c-8-0.001-16-0.001-24 0v-0.435c3.961-6.893 7.954-13.769 11.923-20.658M10.821 5.286c0.143 0.595 0.192 1.418 0.965 1.481-0.579 0.668-0.61 1.524-0.608 2.359-0.413 0.597-0.954 1.126-1.572 1.512-0.303 0.244-0.128 0.653-0.014 0.947-0.276 0.601-0.541 1.208-0.809 1.813-0.379-0.165-0.777-0.286-1.186-0.348-0.223 0.332-0.667 0.245-0.996 0.391-1.252 0.415-1.93 1.96-1.412 3.169 0.448 1.203 1.929 1.863 3.121 1.375 0.421-0.125 0.707-0.559 1.169-0.55 1.031-1.174 0.649-2.934-0.412-3.946 0.857 0.667 1.613 1.455 2.434 2.166 0.010 0.277 0.018 0.554 0.026 0.83-0.218 0.163-0.435 0.324-0.654 0.484-0.010 0.089-0.030 0.268-0.039 0.357 0.588-0.034 1.177-0.072 1.765-0.11 0.022-0.409 0.040-0.817 0.061-1.226 0.267 0 0.533 0.001 0.8 0.003 0.142 0.778 0.61 1.508 1.334 1.862 0.974 0.53 2.276 0.239 2.965-0.619 0.365-0.392 0.403-0.973 0.775-1.357 0.175-1.903-1.965-3.405-3.699-2.625-0.159-0.252-0.316-0.502-0.476-0.752 0.219-0.618 1.017-1.041 0.826-1.766-0.361-1.217-0.884-2.387-1.557-3.465-0.253-0.425-0.748-0.695-0.849-1.208-0.138-0.565-0.058-1.266-0.561-1.668-0.57-0.263-1.534 0.164-1.397 0.89M3.617 16.541c0.448 0.001 0.897 0.001 1.345 0.003-0.052-0.293-0.098-0.587-0.137-0.881-0.671-0.194-0.974 0.361-1.208 0.879M18.72 15.672c-0.019 0.152-0.039 0.306-0.055 0.461-0.123 0.13-0.244 0.262-0.366 0.394 0.694 0.028 1.39 0.013 2.085 0.014-0.161-0.28-0.307-0.572-0.499-0.832-0.382-0.076-0.777-0.027-1.164-0.036M1.535 20.145c0.92 0.004 1.839 0.001 2.757 0.003 0.154-0.361 0.307-0.723 0.459-1.084-0.862-0.003-1.724-0.001-2.586-0.001-0.212 0.36-0.421 0.721-0.631 1.083M7.979 19.062c-0.092 0.361-0.181 0.723-0.271 1.083 0.917 0.003 1.836 0.001 2.755 0.001 0.026-0.361 0.050-0.723 0.076-1.083-0.854-0.003-1.707-0.001-2.56-0.001M13.588 19.063c0.025 0.36 0.050 0.721 0.076 1.083 0.919 0 1.837 0.001 2.755-0.001-0.090-0.36-0.179-0.721-0.27-1.083-0.854 0-1.708-0.001-2.561 0.001M19.246 19.063c0.154 0.361 0.307 0.723 0.461 1.084 0.917-0.001 1.836 0.001 2.754-0.001-0.208-0.363-0.417-0.724-0.627-1.084-0.862 0-1.724-0.001-2.587 0.001z"></path>
<path fill="#fff" d="M10.125 11.418c0.716-0.428 1.283-1.070 1.983-1.53 0.175 0.392 0.348 0.786 0.52 1.181-0.685 0.355-1.546 0.455-2.004 1.146-0.29 0-0.579 0-0.868 0 0.121-0.267 0.244-0.532 0.369-0.796z"></path>
<path fill="#fff" d="M9.578 12.645c0.397 0 0.796-0.001 1.195 0.005 0.526 0.706 0.815 1.52 0.698 2.41-0.702-0.649-1.413-1.289-2.116-1.935 0.074-0.16 0.147-0.32 0.223-0.48z"></path>
<path fill="#fff" d="M12.754 13.414c0.348-0.272 0.694-0.548 1.048-0.815-0.365 0.661-0.743 1.315-1.112 1.974 0.022-0.386 0.041-0.773 0.065-1.159z"></path>
<path fill="#fff" d="M14.114 12.96c0.111 0.168 0.222 0.337 0.333 0.505-0.71 0.489-1.159 1.281-1.232 2.139-0.199-0.006-0.396-0.014-0.595-0.023 0.486-0.88 0.996-1.747 1.494-2.621z"></path>
<path fill="#fff" d="M6.148 14.537c0.539-0.625 1.477-0.703 2.191-0.352-0.223 0.471-0.413 1.102-1.027 1.152-0.617 0.133-0.133 1.115 0.369 0.734 0.343-0.532 0.745-1.026 1.044-1.586 0.462 0.579 0.636 1.419 0.24 2.083-0.476 0.903-1.79 1.182-2.582 0.529-0.809-0.574-0.915-1.845-0.235-2.56z"></path>
<path fill="#fff" d="M15.314 14.009c0.926-0.272 2.015 0.262 2.249 1.223 0.315 1.015-0.501 2.156-1.557 2.199-0.885 0.089-1.674-0.594-1.867-1.432 0.583-0.014 1.174-0.037 1.746 0.101 0.297 0.057 0.534-0.338 0.363-0.582-0.293-0.514-0.637-0.996-0.933-1.508z"></path>
<path fill="#fff" d="M14.106 15.587c0.088-0.543 0.365-1.027 0.791-1.375 0.249 0.364 0.481 0.739 0.715 1.114-0.040 0.068-0.12 0.204-0.16 0.271-0.448 0-0.897 0.001-1.346-0.009z"></path>
<path fill="#030303" d="M10.821 5.286c-0.137-0.726 0.827-1.154 1.397-0.89 0.503 0.403 0.423 1.103 0.561 1.668 0.101 0.512 0.596 0.783 0.849 1.208 0.674 1.077 1.196 2.248 1.557 3.465 0.191 0.725-0.606 1.148-0.826 1.766 0.16 0.25 0.317 0.501 0.476 0.752 1.734-0.781 3.875 0.721 3.699 2.625-0.373 0.385-0.41 0.965-0.775 1.357-0.689 0.858-1.991 1.15-2.965 0.619-0.724-0.354-1.192-1.084-1.334-1.862-0.267-0.001-0.533-0.003-0.8-0.003-0.021 0.409-0.039 0.817-0.061 1.226-0.588 0.037-1.177 0.076-1.765 0.11 0.009-0.089 0.028-0.268 0.039-0.357 0.219-0.16 0.436-0.321 0.654-0.484-0.008-0.276-0.015-0.552-0.026-0.83-0.821-0.711-1.577-1.499-2.434-2.166 1.061 1.012 1.443 2.772 0.412 3.946-0.462-0.009-0.748 0.425-1.169 0.55-1.192 0.488-2.674-0.173-3.121-1.375-0.519-1.209 0.16-2.754 1.412-3.169 0.329-0.146 0.773-0.059 0.996-0.391 0.409 0.062 0.806 0.183 1.186 0.348 0.268-0.605 0.533-1.212 0.809-1.813-0.114-0.294-0.289-0.703 0.014-0.947 0.618-0.386 1.159-0.915 1.572-1.512-0.003-0.835 0.028-1.69 0.608-2.359-0.773-0.063-0.822-0.886-0.965-1.481M10.125 11.418c-0.125 0.265-0.248 0.529-0.369 0.796 0.289 0 0.578 0 0.868 0 0.458-0.69 1.319-0.791 2.004-1.146-0.172-0.395-0.345-0.788-0.52-1.181-0.701 0.461-1.267 1.102-1.983 1.53M9.578 12.645c-0.076 0.16-0.15 0.32-0.223 0.48 0.703 0.646 1.414 1.286 2.116 1.935 0.117-0.89-0.172-1.705-0.698-2.41-0.399-0.006-0.797-0.005-1.195-0.005M12.754 13.414c-0.023 0.386-0.043 0.773-0.065 1.159 0.369-0.659 0.747-1.314 1.112-1.974-0.354 0.267-0.699 0.543-1.048 0.815M14.114 12.96c-0.498 0.874-1.008 1.741-1.494 2.621 0.199 0.009 0.396 0.017 0.595 0.023 0.074-0.858 0.523-1.65 1.232-2.139-0.111-0.168-0.222-0.337-0.333-0.505M6.148 14.537c-0.68 0.715-0.574 1.986 0.235 2.56 0.792 0.653 2.106 0.374 2.582-0.529 0.396-0.663 0.222-1.503-0.24-2.083-0.299 0.56-0.701 1.054-1.044 1.586-0.502 0.381-0.986-0.601-0.369-0.734 0.614-0.050 0.804-0.681 1.027-1.152-0.714-0.351-1.652-0.272-2.191 0.352M15.314 14.009c0.295 0.512 0.64 0.995 0.933 1.508 0.172 0.244-0.066 0.639-0.363 0.582-0.572-0.138-1.163-0.115-1.746-0.101 0.194 0.839 0.982 1.521 1.867 1.432 1.057-0.043 1.872-1.183 1.557-2.199-0.234-0.961-1.323-1.495-2.249-1.223M14.106 15.587c0.449 0.010 0.898 0.009 1.346 0.009 0.040-0.067 0.12-0.203 0.16-0.271-0.234-0.374-0.466-0.75-0.715-1.114-0.426 0.348-0.703 0.832-0.791 1.375z"></path>
<path fill="#030303" d="M3.617 16.541c0.234-0.517 0.537-1.072 1.208-0.879 0.039 0.294 0.085 0.588 0.137 0.881-0.448-0.001-0.897-0.001-1.345-0.003z"></path>
<path fill="#030303" d="M18.72 15.672c0.387 0.009 0.782-0.040 1.164 0.036 0.192 0.261 0.338 0.552 0.499 0.832-0.695-0.001-1.391 0.014-2.085-0.014 0.123-0.132 0.244-0.263 0.366-0.394 0.017-0.155 0.036-0.308 0.055-0.461z"></path>
<path fill="#030303" d="M1.535 20.145c0.21-0.361 0.419-0.723 0.631-1.083 0.862 0 1.724-0.001 2.586 0.001-0.152 0.361-0.306 0.723-0.459 1.084-0.919-0.001-1.837 0.001-2.757-0.003z"></path>
<path fill="#030303" d="M7.979 19.062c0.853 0 1.706-0.001 2.56 0.001-0.026 0.36-0.050 0.721-0.076 1.083-0.919 0-1.837 0.001-2.755-0.001 0.090-0.36 0.179-0.721 0.271-1.083z"></path>
<path fill="#030303" d="M13.588 19.063c0.853-0.003 1.707-0.001 2.561-0.001 0.090 0.361 0.179 0.723 0.27 1.083-0.917 0.003-1.836 0.001-2.755 0.001-0.026-0.361-0.052-0.723-0.076-1.083z"></path>
<path fill="#030303" d="M19.246 19.063c0.863-0.003 1.725-0.001 2.587-0.001 0.21 0.36 0.419 0.721 0.627 1.084-0.917 0.003-1.836 0-2.754 0.001-0.154-0.361-0.307-0.723-0.461-1.084z"></path>
</svg>
