<!-- Generated by IcoMoon.io -->
<svg version="1.1" xmlns="http://www.w3.org/2000/svg" width="24" height="24" viewBox="0 0 24 24">
<title>information--lodging--g2</title>
<path fill="#fff" d="M0.834 0.139c0.272-0.12 0.575-0.105 0.865-0.11 7 0.010 13.999-0.009 20.998 0.010 0.767-0.017 1.313 0.74 1.271 1.462 0.001 6.999 0.001 13.998 0 20.997 0.051 0.765-0.569 1.529-1.37 1.468-7.065 0.004-14.13 0.004-21.195 0-0.8 0.059-1.417-0.706-1.371-1.468-0.001-6.999-0.001-13.998 0-20.997-0.009-0.55 0.267-1.149 0.802-1.362M1.225 0.532c-0.475 0.101-0.772 0.594-0.727 1.063 0.004 6.971-0.003 13.942 0.004 20.913-0.031 0.538 0.452 1.021 0.99 0.989 7.005 0.005 14.011 0.005 21.016 0 0.539 0.031 1.020-0.451 0.989-0.989 0.006-7.005 0.006-14.011 0.001-21.016 0.036-0.585-0.523-1.062-1.093-0.993-7.059 0.024-14.124-0.043-21.18 0.033z"></path>
<path fill="#fff" d="M3.894 3.894c5.404-0.002 10.808-0.002 16.212 0 0.002 5.404 0.001 10.808 0 16.212-5.404 0.002-10.808 0.001-16.212 0-0.002-5.404-0.002-10.808 0-16.212M17.346 8.034c-0.044 0.954 0.023 1.913-0.030 2.868-0.087 1.048-1.060 1.916-2.11 1.896-2.847 0.005-5.693 0.001-8.539 0.002 0-0.725 0.002-1.449-0.002-2.174-0.291-0.262-0.767-0.316-1.041 0.001-0.057 1.61-0.007 3.227-0.024 4.84 0.356 0 0.711-0.001 1.067 0-0.002-0.356 0.001-0.711 0-1.067 3.555 0 7.111 0 10.667 0-0.002 0.356 0.001 0.711 0 1.067 0.355-0.001 0.71 0 1.066 0 0.001-2.425-0.001-4.849 0.001-7.273 0.040-0.543-0.89-0.614-1.055-0.16M16.133 9.938c-0.85 0.34-1.64 1.116-1.729 2.061-0.039 0.512 0.586 0.64 0.958 0.452 0.839-0.348 1.613-1.117 1.7-2.054 0.037-0.499-0.562-0.632-0.929-0.459M9.751 10.971c-0.942 0.107-1.945 0.272-2.701 0.888-0.276 0.246-0.018 0.743 0.347 0.672 2.102 0.002 4.206 0.007 6.308-0.002 0.415 0.052 0.589-0.569 0.217-0.751-1.212-0.808-2.759-0.894-4.171-0.807z"></path>
<path fill="#154889" d="M1.225 0.532c7.056-0.076 14.121-0.009 21.18-0.033 0.57-0.069 1.129 0.408 1.093 0.993 0.005 7.005 0.005 14.011-0.001 21.016 0.031 0.538-0.45 1.020-0.989 0.989-7.005 0.005-14.011 0.005-21.016 0-0.538 0.032-1.021-0.451-0.99-0.989-0.007-6.971 0-13.942-0.004-20.913-0.045-0.469 0.252-0.962 0.727-1.063M3.894 3.894c-0.002 5.404-0.002 10.808 0 16.212 5.404 0.001 10.808 0.002 16.212 0 0.001-5.404 0.002-10.808 0-16.212-5.404-0.002-10.808-0.002-16.212 0z"></path>
<path fill="#000" d="M17.346 8.034c0.165-0.454 1.095-0.383 1.055 0.16-0.002 2.424 0 4.848-0.001 7.273-0.356 0-0.711-0.001-1.066 0 0.001-0.356-0.002-0.711 0-1.067-3.556 0-7.112 0-10.667 0 0.001 0.356-0.002 0.711 0 1.067-0.356-0.001-0.711 0-1.067 0 0.017-1.613-0.033-3.23 0.024-4.84 0.274-0.317 0.75-0.263 1.041-0.001 0.004 0.725 0.002 1.449 0.002 2.174 2.846-0.001 5.692 0.003 8.539-0.002 1.050 0.020 2.023-0.848 2.11-1.896 0.053-0.955-0.014-1.914 0.030-2.868z"></path>
<path fill="#000" d="M16.133 9.938c0.367-0.173 0.966-0.040 0.929 0.459-0.087 0.937-0.861 1.706-1.7 2.054-0.372 0.188-0.997 0.060-0.958-0.452 0.089-0.945 0.879-1.721 1.729-2.061z"></path>
<path fill="#000" d="M9.751 10.971c1.412-0.087 2.959-0.001 4.171 0.807 0.372 0.182 0.198 0.803-0.217 0.751-2.102 0.009-4.206 0.004-6.308 0.002-0.365 0.071-0.623-0.426-0.347-0.672 0.756-0.616 1.759-0.781 2.701-0.888z"></path>
</svg>
