<!-- Generated by IcoMoon.io -->
<svg version="1.1" xmlns="http://www.w3.org/2000/svg" width="18" height="24" viewBox="0 0 18 24">
<title>information--trucks-both-ways--g1</title>
<path fill="#2847a3" d="M1.065 0h16.349c0.481 0.11 0.877 0.454 1.048 0.918v22.141c-0.16 0.482-0.576 0.827-1.064 0.942h-16.291c-0.542-0.114-0.976-0.531-1.106-1.069v-21.851c0.114-0.536 0.537-0.95 1.065-1.080M5.953 8.093c3.488 0.005 6.977 0.002 10.465 0.002 0.004-1.632 0.003-3.265 0-4.897-3.488-0.003-6.977-0.003-10.465 0-0.003 1.632-0.003 3.264 0 4.895M2.958 4.851c-0.219 0.691-0.475 1.374-0.659 2.075-0.032 0.898-0.006 1.799-0.011 2.698 0.147 0 0.293 0 0.439 0.001 0.030-0.812 0.782-1.527 1.607-1.411 0.718 0.057 1.257 0.708 1.293 1.409 2.070 0.005 4.141 0.003 6.212 0.001 0.039-0.522 0.336-0.985 0.776-1.262-2.287 0.018-4.575 0.005-6.862 0.006-0.006-1.172 0.003-2.344-0.004-3.516-0.931-0.005-1.862-0.003-2.792-0.001M3.815 8.438c-0.623 0.174-1.029 0.891-0.843 1.515 0.138 0.561 0.698 0.968 1.274 0.929 0.745-0.011 1.344-0.798 1.154-1.52-0.132-0.692-0.918-1.146-1.585-0.923M13.046 8.43c-0.717 0.119-1.206 0.937-0.951 1.623 0.207 0.699 1.084 1.066 1.73 0.731 0.582-0.262 0.872-1.007 0.619-1.593-0.21-0.543-0.829-0.879-1.398-0.761M13.947 8.363c0.436 0.274 0.744 0.728 0.777 1.25 0.569-0.249 1.134-0.504 1.697-0.765-0.001-0.159-0.002-0.318-0.002-0.476-0.824-0.008-1.649 0.006-2.472-0.008M9.438 13.052c-0.85 1.497-1.732 2.979-2.549 4.494 0.572-0.067 1.137-0.186 1.71-0.253 0.006 1.756-0.002 3.51 0.003 5.265 0.558 0.004 1.114 0.004 1.671 0 0.006-1.755-0.001-3.51 0.003-5.265 0.574 0.067 1.141 0.186 1.714 0.252-0.814-1.517-1.701-2.995-2.552-4.493z"></path>
<path fill="#2847a3" d="M3.354 5.414c0.577-0.009 1.154-0.006 1.732-0.003 0.005 0.395 0.005 0.789 0 1.183-0.742 0.005-1.484 0.003-2.226 0.001 0.16-0.396 0.326-0.789 0.494-1.182z"></path>
<path fill="#2847a3" d="M3.994 9.152c0.365-0.162 0.799 0.215 0.688 0.599-0.064 0.376-0.581 0.53-0.847 0.264-0.289-0.234-0.188-0.743 0.16-0.863z"></path>
<path fill="#2847a3" d="M13.138 9.162c0.613-0.21 0.936 0.793 0.32 0.982-0.642 0.268-0.982-0.816-0.32-0.982z"></path>
<path fill="#fff" d="M5.953 8.093c-0.003-1.631-0.003-3.263 0-4.895 3.488-0.003 6.977-0.003 10.465 0 0.003 1.632 0.004 3.265 0 4.897-3.488 0-6.977 0.003-10.465-0.002z"></path>
<path fill="#fff" d="M2.958 4.851c0.93-0.002 1.861-0.004 2.792 0.001 0.006 1.172-0.002 2.344 0.004 3.516 2.287-0.002 4.575 0.011 6.862-0.006-0.44 0.277-0.738 0.74-0.776 1.262-2.071 0.002-4.142 0.004-6.212-0.001-0.036-0.701-0.575-1.351-1.293-1.409-0.825-0.115-1.577 0.599-1.607 1.411-0.147-0.001-0.293-0.001-0.439-0.001 0.005-0.899-0.021-1.8 0.011-2.698 0.184-0.702 0.44-1.384 0.659-2.075M3.354 5.414c-0.168 0.392-0.334 0.786-0.494 1.182 0.741 0.002 1.483 0.004 2.226-0.001 0.005-0.394 0.005-0.788 0-1.183-0.578-0.003-1.155-0.006-1.732 0.003z"></path>
<path fill="#fff" d="M3.815 8.438c0.667-0.222 1.453 0.231 1.585 0.923 0.19 0.722-0.409 1.509-1.154 1.52-0.576 0.040-1.136-0.367-1.274-0.929-0.186-0.624 0.22-1.34 0.843-1.515M3.994 9.152c-0.348 0.12-0.449 0.629-0.16 0.863 0.267 0.266 0.784 0.112 0.847-0.264 0.112-0.384-0.323-0.761-0.688-0.599z"></path>
<path fill="#fff" d="M13.046 8.43c0.57-0.118 1.189 0.218 1.398 0.761 0.253 0.586-0.038 1.331-0.619 1.593-0.646 0.335-1.523-0.032-1.73-0.731-0.255-0.686 0.234-1.504 0.951-1.623M13.138 9.162c-0.662 0.166-0.321 1.25 0.32 0.982 0.616-0.189 0.293-1.192-0.32-0.982z"></path>
<path fill="#fff" d="M13.947 8.363c0.823 0.015 1.648 0 2.472 0.008 0 0.159 0.001 0.318 0.002 0.476-0.562 0.261-1.128 0.516-1.697 0.765-0.033-0.522-0.342-0.976-0.777-1.25z"></path>
<path fill="#fff" d="M9.438 13.052c0.851 1.497 1.738 2.976 2.552 4.493-0.573-0.066-1.14-0.185-1.714-0.252-0.004 1.755 0.003 3.51-0.003 5.265-0.557 0.004-1.113 0.004-1.671 0-0.005-1.755 0.003-3.51-0.003-5.265-0.573 0.067-1.138 0.186-1.71 0.253 0.817-1.515 1.698-2.996 2.549-4.494z"></path>
</svg>
