<!-- Generated by IcoMoon.io -->
<svg version="1.1" xmlns="http://www.w3.org/2000/svg" width="10" height="24" viewBox="0 0 10 24">
<title>information--exit-ahead--g1</title>
<path fill="#f0c900" d="M0.572 0.121c0.254-0.137 0.551-0.11 0.828-0.111 2.683 0.001 5.367-0 8.049 0.001 0.348-0.012 0.691 0.178 0.852 0.489 0.158 0.273 0.127 0.599 0.128 0.901-0 7.067-0 14.133 0 21.2-0 0.315 0.030 0.655-0.144 0.934-0.141 0.255-0.41 0.408-0.689 0.465h-8.678c-0.31-0.057-0.608-0.23-0.761-0.513-0.162-0.267-0.129-0.59-0.131-0.888 0-7.184 0-14.367 0-21.549-0.015-0.381 0.202-0.759 0.544-0.93M0.814 0.218c-0.37 0.087-0.663 0.445-0.653 0.828-0.002 7.285 0.001 14.569-0.002 21.855-0.050 0.474 0.357 0.939 0.837 0.931 2.802 0.002 5.604 0.001 8.406 0 0.461 0.008 0.867-0.421 0.839-0.88-0.001-7.302 0-14.604-0-21.905 0.016-0.45-0.381-0.88-0.84-0.85-2.862 0.015-5.727-0.028-8.587 0.021z"></path>
<path fill="#f0c900" d="M0.566 1.147c-0.018-0.273 0.191-0.56 0.48-0.548 2.769-0.005 5.538-0.003 8.307-0 0.292-0.015 0.51 0.27 0.491 0.548 0 2.579-0.002 5.159-0.006 7.737-3.094 1.782-6.184 3.57-9.279 5.349 0-4.362 0.003-8.724 0.006-13.086M2.716 1.872c-0.030 0.15-0.010 0.305-0.012 0.456 0.138-0.102 0.278-0.203 0.42-0.301 0.006 0.841-0.001 1.683 0.003 2.525 0.142 0.001 0.284 0.001 0.426 0 0.001-0.995 0.003-1.99-0.001-2.985-0.33-0.074-0.607 0.084-0.837 0.305M4.614 1.567c-0.348 0.088-0.624 0.419-0.623 0.783-0.003 0.483-0.006 0.968 0.002 1.452 0.012 0.444 0.445 0.816 0.885 0.776 0.419-0.024 0.781-0.403 0.775-0.825 0-0.485 0.009-0.971-0.005-1.455-0.030-0.491-0.562-0.865-1.035-0.729M6.714 1.567c-0.347 0.090-0.624 0.419-0.621 0.783-0.005 0.466-0.003 0.933-0.001 1.401-0.014 0.451 0.404 0.849 0.852 0.829 0.433-0.004 0.819-0.393 0.812-0.828 0-0.485 0.009-0.97-0.005-1.455-0.033-0.49-0.563-0.865-1.037-0.729M4.124 5.655c0.002 0.526 0 1.052 0.001 1.578 0.105-0 0.211 0 0.317 0.001 0.014-0.357-0.024-0.717 0.020-1.072 0.075-0.292 0.562-0.264 0.597 0.039 0.028 0.343 0.003 0.688 0.012 1.032 0.105-0 0.211 0 0.317 0.001 0.009-0.345-0.015-0.691 0.012-1.035 0.035-0.3 0.513-0.329 0.594-0.042 0.050 0.356 0.008 0.719 0.022 1.077 0.106-0.001 0.212-0.001 0.318 0-0.012-0.399 0.027-0.802-0.021-1.199-0.099-0.449-0.718-0.513-1.005-0.205-0.226-0.241-0.621-0.257-0.859-0.025-0.003-0.039-0.009-0.115-0.012-0.153-0.105 0.002-0.208 0.003-0.313 0.004z"></path>
<path fill="#f0c900" d="M4.717 1.971c0.262-0.078 0.546 0.153 0.521 0.426-0.009 0.49 0.024 0.985-0.018 1.473-0.094 0.399-0.743 0.375-0.803-0.033-0.026-0.479-0.006-0.961-0.010-1.441-0.013-0.192 0.121-0.382 0.31-0.426z"></path>
<path fill="#f0c900" d="M6.817 1.971c0.262-0.078 0.546 0.153 0.522 0.426-0.009 0.49 0.024 0.985-0.018 1.473-0.094 0.399-0.744 0.375-0.803-0.033-0.026-0.48-0.006-0.961-0.010-1.441-0.013-0.192 0.12-0.381 0.309-0.426z"></path>
<path fill="#f0c900" d="M0.559 18.666c3.093-1.782 6.185-3.565 9.276-5.351 0.009 3.196 0.007 6.393 0.010 9.589 0.027 0.3-0.249 0.552-0.541 0.528-2.752 0-5.505 0.003-8.258-0.001-0.264 0.015-0.49-0.219-0.479-0.481-0.007-1.428-0.006-2.856-0.008-4.285z"></path>
<path fill="#000" d="M0.814 0.218c2.859-0.049 5.725-0.007 8.587-0.021 0.459-0.030 0.857 0.4 0.84 0.85 0.001 7.302-0 14.603 0 21.905 0.027 0.459-0.378 0.888-0.839 0.88-2.802 0.001-5.604 0.002-8.406 0-0.48 0.008-0.887-0.457-0.837-0.931 0.003-7.285-0-14.569 0.002-21.855-0.011-0.384 0.283-0.742 0.653-0.828M0.566 1.147c-0.003 4.362-0.006 8.724-0.006 13.086 3.095-1.779 6.185-3.568 9.279-5.349 0.005-2.579 0.006-5.159 0.006-7.737 0.019-0.277-0.199-0.563-0.491-0.547-2.769-0.003-5.538-0.004-8.307 0-0.29-0.012-0.499 0.275-0.48 0.548M0.559 18.666c0.002 1.428 0 2.857 0.008 4.285-0.011 0.261 0.216 0.495 0.479 0.481 2.753 0.004 5.505 0.001 8.258 0.001 0.293 0.023 0.569-0.229 0.542-0.528-0.003-3.197-0.001-6.393-0.010-9.59-3.091 1.785-6.183 3.569-9.276 5.351z"></path>
<path fill="#000" d="M2.716 1.872c0.229-0.221 0.507-0.379 0.837-0.305 0.004 0.995 0.002 1.99 0.001 2.985-0.142 0.001-0.284 0.001-0.426 0-0.005-0.841 0.002-1.683-0.003-2.525-0.141 0.098-0.281 0.199-0.42 0.301 0.001-0.151-0.018-0.306 0.012-0.456z"></path>
<path fill="#000" d="M4.614 1.567c0.473-0.135 1.005 0.238 1.035 0.729 0.013 0.484 0.005 0.97 0.005 1.455 0.006 0.422-0.356 0.801-0.775 0.825-0.441 0.041-0.873-0.332-0.885-0.776-0.008-0.483-0.005-0.968-0.002-1.452-0.001-0.364 0.274-0.695 0.623-0.783M4.717 1.971c-0.189 0.043-0.324 0.233-0.31 0.426 0.005 0.48-0.015 0.962 0.010 1.441 0.060 0.408 0.709 0.432 0.803 0.033 0.042-0.489 0.009-0.983 0.018-1.473 0.025-0.273-0.259-0.504-0.521-0.426z"></path>
<path fill="#000" d="M6.714 1.567c0.474-0.137 1.004 0.238 1.037 0.729 0.014 0.485 0.005 0.97 0.005 1.455 0.006 0.435-0.379 0.823-0.812 0.828-0.447 0.021-0.866-0.378-0.852-0.829-0.002-0.467-0.003-0.934 0.001-1.401-0.002-0.364 0.274-0.693 0.621-0.783M6.817 1.971c-0.189 0.044-0.322 0.233-0.309 0.426 0.005 0.48-0.015 0.962 0.010 1.441 0.060 0.408 0.708 0.432 0.803 0.033 0.042-0.489 0.009-0.983 0.018-1.473 0.025-0.273-0.26-0.504-0.522-0.426z"></path>
<path fill="#000" d="M4.124 5.655c0.105-0 0.208-0.002 0.313-0.004 0.003 0.039 0.009 0.115 0.012 0.153 0.238-0.231 0.633-0.216 0.859 0.026 0.286-0.308 0.905-0.243 1.005 0.205 0.048 0.396 0.009 0.8 0.021 1.199-0.106-0.001-0.211-0.001-0.318 0-0.014-0.359 0.027-0.721-0.022-1.077-0.081-0.286-0.559-0.257-0.594 0.042-0.027 0.344-0.002 0.69-0.012 1.035-0.106-0.001-0.212-0.002-0.317-0.001-0.009-0.344 0.016-0.69-0.012-1.032-0.035-0.303-0.521-0.332-0.597-0.039-0.045 0.355-0.006 0.716-0.020 1.072-0.106-0.001-0.212-0.002-0.317-0.001-0.001-0.526 0-1.052-0.001-1.578z"></path>
</svg>
