<svg xmlns="http://www.w3.org/2000/svg" width="24" height="24">
    <path fill="#154889" d="M4.5 0h15.374v24h-6.577l-.003-9.058c.94-.002 1.881 0 2.821-.001l-.004-2.653c-1.17-.001-2.341.001-3.511-.001v-1.832c1.706-.002 3.411 0 5.116-.001V2.301H6.656v8.153c1.706.001 3.411-.001 5.117.001v1.832c-1.17.002-2.341 0-3.511.001l-.001 2.653c.94.001 1.882-.001 2.822.001V24H4.5V0z"/>
    <path fill="#fff" d="M6.657 2.301h11.06v8.153c-1.705.001-3.41-.001-5.116.001v1.832c1.17.002 2.341 0 3.511.001.003.884.003 1.769.004 2.653-.94.001-1.881-.001-2.821.001-.001 3.019.002 6.039.003 9.059h-2.214v-9.059c-.94-.002-1.882 0-2.822-.001l.001-2.653c1.17-.001 2.341.001 3.511-.001v-1.832c-1.706-.002-3.411 0-5.117-.001V2.301zm1.879 1.052c-.331.129-.404.622-.12.838.286.265.805.042.813-.347.041-.356-.37-.649-.693-.491zM8.48 4.742c-.431.635-.822 1.298-1.226 1.952.684.19.872-.688 1.229-1.084.006.372.008.743.01 1.115.331.001.663.007.994.008.002-.47 0-.939.002-1.409l.416.373c-.002.337-.003.674.003 1.01.562-.146.454-.783.403-1.229-.204-.334-.58-.516-.864-.776-.256-.264-.76-.301-.968.04zM13 5.939c-.184.372-.266.783-.393 1.176-.579-.068-1.201.258-1.36.84-.237.684.297 1.49 1.021 1.531.714.097 1.384-.579 1.295-1.291-.025-.459-.365-.811-.742-1.029.052-.058.101-.12.161-.169.448.431.823.932 1.25 1.384.187.208.494.126.741.149.161.565.704 1.019 1.309.939.739-.055 1.267-.889.995-1.581-.199-.612-.902-.915-1.504-.749l-.327-.726.078-.219.286-.009-.015-.235c-.38.001-.761-.017-1.139.027.188.106.396.164.605.217a9.816 9.816 0 0 0-.09.215c-.697 0-1.394.003-2.09-.002.026-.403.357-.506.711-.465a18.18 18.18 0 0 1-.003-.235c-.264.035-.649-.067-.789.231zm-4.46.93c-.427.892-.951 1.735-1.389 2.622.252-.003.559.012.694-.25.429-.669.738-1.406 1.119-2.102.454.801.891 1.611 1.345 2.411.105-.227.278-.48.15-.735-.286-.673-.723-1.271-1.012-1.942-.303-.001-.606 0-.908-.003zm-.036 5.661v2.145h7.366V12.53H8.504z"/>
    <path fill="#fff" d="M13.032 6.662h2.04c-.198.528-.394 1.056-.59 1.584-.482-.53-.964-1.058-1.45-1.584zM14.742 8.28c.188-.506.381-1.011.575-1.516l.219.484a1.447 1.447 0 0 0-.585 1.035l-.209-.003zM15.888 7.375c.459-.082.986.126 1.139.594.225.559-.229 1.237-.831 1.24-.441.034-.795-.301-.954-.684.371-.003.743.026 1.112-.031-.126-.385-.313-.746-.466-1.12zM11.488 8.537c-.186-.629.403-1.226 1.029-1.174-.097.351-.227.695-.276 1.058.438-.048.356-.664.536-.976.542.285.721 1.081.255 1.515-.463.504-1.403.249-1.544-.423z"/>
    <path fill="#fff" d="M15.214 8.273c.044-.307.202-.574.426-.784.126.261.243.525.361.79-.263.001-.525.001-.787-.006z"/>
    <path fill="#030303" d="M8.536 3.353c.323-.158.734.135.693.491-.009.389-.527.612-.813.347-.284-.216-.21-.709.12-.838zM8.48 4.742c.208-.341.711-.304.968-.04.284.26.66.442.864.776.05.446.159 1.083-.403 1.229a37.796 37.796 0 0 1-.003-1.01l-.416-.373c-.002.47 0 .939-.002 1.409-.331-.001-.663-.007-.994-.008-.003-.372-.004-.743-.01-1.115-.357.396-.545 1.274-1.229 1.084.403-.653.794-1.317 1.226-1.952zM13 5.939c.14-.297.525-.196.789-.231l.003.235c-.354-.042-.685.062-.711.465.696.004 1.393.002 2.09.002.029-.072.059-.143.09-.215a2.442 2.442 0 0 1-.605-.217c.378-.044.759-.026 1.139-.027l.015.235-.286.009-.078.219.327.726c.602-.166 1.305.138 1.504.749.272.692-.256 1.526-.995 1.581-.606.08-1.149-.374-1.309-.939-.248-.023-.554.06-.741-.149-.427-.452-.802-.952-1.25-1.384-.061.05-.109.111-.161.169.378.218.717.57.742 1.029.09.711-.581 1.387-1.295 1.291-.723-.04-1.257-.846-1.021-1.531.159-.582.781-.909 1.36-.84.126-.393.209-.804.393-1.176zm.032.723c.486.526.969 1.054 1.45 1.584.196-.529.392-1.057.59-1.584h-2.04zm1.71 1.618l.209.003c.036-.416.252-.787.585-1.035l-.219-.484c-.194.505-.387 1.01-.575 1.516zm1.146-.905c.154.374.34.735.466 1.12-.369.056-.741.027-1.112.031.159.383.513.718.954.684.602-.003 1.057-.681.831-1.24-.154-.468-.681-.676-1.139-.594zm-4.4 1.162c.141.671 1.081.927 1.544.423.466-.434.288-1.23-.255-1.515-.18.312-.098.928-.536.976.049-.363.179-.707.276-1.058-.626-.052-1.215.545-1.029 1.174zm3.726-.264c.262.007.524.007.787.006-.118-.265-.235-.53-.361-.79-.224.21-.382.477-.426.784zM8.54 6.869c.302.003.605.003.908.003.289.671.726 1.269 1.012 1.942.127.255-.045.508-.15.735-.454-.8-.892-1.61-1.345-2.411-.381.696-.69 1.433-1.119 2.102-.135.262-.442.247-.694.25.437-.887.962-1.73 1.389-2.622z"/>
    <path fill="#cc0303" d="M8.504 12.53h7.366v2.145H8.504V12.53z"/>
</svg>
