<svg xmlns="http://www.w3.org/2000/svg" width="24" height="24">
    <path fill="#0391ff" d="M4 0h15.465c.245.374.154.835.167 1.254.001 7.22-.003 14.439.002 21.659.003.382.062.893-.359 1.087h-3.538c.001-6.331-.002-12.662.002-18.993.62-.016 1.242.003 1.863-.012-.822-.84-1.654-1.669-2.487-2.498-.837.826-1.668 1.659-2.491 2.5.621.014 1.243-.01 1.864.014-.003 6.33.029 12.66.007 18.989H7.19c.007-2.203.013-4.407.023-6.61.067-1.344.687-2.643 1.654-3.575.812-.801 1.604-1.622 2.42-2.418.448.432.88.88 1.322 1.317.001-1.177.004-2.356-.002-3.534-1.172-.003-2.345-.009-3.517.004.422.454.886.867 1.3 1.328-.845.846-1.693 1.69-2.535 2.541-1.047 1.075-1.73 2.512-1.866 4.008-.023 2.312-.033 4.626-.048 6.939H4.236c-.043-.081-.129-.205-.236-.141V0z"/>
    <path fill="#fff" d="M19.465 0h.256v24h-.446c.421-.194.361-.705.359-1.087-.005-7.219-.001-14.438-.002-21.659-.013-.42.078-.881-.167-1.254zM12.624 4.997c.823-.84 1.654-1.673 2.491-2.5.833.829 1.665 1.658 2.487 2.498-.621.015-1.243-.004-1.863.012-.003 6.331-.001 12.662-.002 18.993h-1.243c.023-6.329-.009-12.659-.007-18.989-.621-.024-1.243 0-1.864-.014zM9.09 9.184c1.172-.013 2.345-.007 3.517-.004.006 1.178.003 2.357.002 3.534-.442-.437-.874-.886-1.322-1.317-.816.796-1.608 1.617-2.42 2.418-.967.932-1.587 2.231-1.654 3.575-.01 2.203-.017 4.407-.023 6.61H5.942c.015-2.313.024-4.627.048-6.939.136-1.496.82-2.934 1.866-4.008.841-.851 1.689-1.695 2.535-2.541-.414-.461-.877-.874-1.3-1.328z"/>
    <path fill="#e7f5ff" d="M4 23.859c.107-.064.193.06.236.141H4v-.141z"/>
</svg>
