<!-- Generated by IcoMoon.io -->
<svg version="1.1" xmlns="http://www.w3.org/2000/svg" width="24" height="24" viewBox="0 0 24 24">
<title>information--disabled-persons--g3</title>
<path fill="#d40000" d="M10.985 0h1.992c0.764 0.142 1.542 0.229 2.29 0.454 3.671 0.998 6.746 3.884 8.018 7.464 0.382 0.988 0.534 2.038 0.715 3.074v1.972c-0.301 2.718-1.415 5.369-3.341 7.336-1.994 2.114-4.775 3.372-7.645 3.701h-1.991c-4.164-0.395-8.062-3-9.842-6.81-0.653-1.307-0.967-2.743-1.181-4.18v-1.981c0.175-1.112 0.354-2.233 0.778-3.283 1.316-3.534 4.399-6.36 8.052-7.319 0.706-0.206 1.438-0.282 2.155-0.427M10.736 2.484c-3.584 0.426-6.768 3.077-7.858 6.515-0.9 2.704-0.514 5.804 1.049 8.192 1.847 2.918 5.354 4.685 8.802 4.379 3.592-0.23 6.904-2.69 8.197-6.043 1.066-2.659 0.85-5.792-0.582-8.276-1.849-3.344-5.825-5.32-9.608-4.766z"></path>
<path fill="#fff" d="M10.736 2.484c3.784-0.553 7.759 1.422 9.608 4.766 1.432 2.484 1.648 5.617 0.582 8.276-1.294 3.353-4.606 5.813-8.197 6.043-3.448 0.306-6.955-1.46-8.802-4.379-1.562-2.388-1.949-5.489-1.049-8.192 1.090-3.438 4.273-6.089 7.858-6.515M8.68 4.606c-0.458 0.552-0.284 1.316 0.091 1.858 0.018 2.298-0.001 4.597 0.008 6.895 1.853 0.006 3.706-0.004 5.558 0.005 0.835 1.752 1.657 3.51 2.495 5.261 0.706-0.305 1.405-0.622 2.108-0.929-0.144-0.331-0.296-0.659-0.455-0.984-0.373 0.169-0.744 0.344-1.117 0.514-0.796-1.649-1.571-3.306-2.371-4.952-1.667-0.002-3.332 0.004-4.998-0.004-0.001-0.409-0.001-0.817 0-1.226 1.237-0.007 2.474 0.001 3.713-0.004 0.002-0.38 0.002-0.761-0.001-1.141-1.237-0.006-2.473 0.001-3.71-0.002-0.006-1.009 0.002-2.018-0.005-3.028 0.852-0.133 1.55-1.025 1.218-1.883-0.329-1.057-1.907-1.278-2.534-0.379M5.525 15.005c0.026 1.802 1.152 3.506 2.761 4.298 2.532 1.376 6.023 0.158 7.122-2.512-0.229-0.5-0.469-0.997-0.7-1.498-0.182 1.566-1.357 2.939-2.874 3.366-1.883 0.592-4.114-0.378-4.9-2.202-0.781-1.642-0.163-3.73 1.309-4.764 0.004-0.433 0.004-0.866-0.001-1.3-1.663 0.88-2.784 2.72-2.718 4.61z"></path>
<path fill="#000" d="M8.68 4.606c0.628-0.899 2.206-0.678 2.534 0.379 0.332 0.858-0.366 1.75-1.218 1.883 0.007 1.009-0.001 2.018 0.005 3.028 1.237 0.004 2.473-0.004 3.71 0.002 0.004 0.38 0.004 0.761 0.001 1.141-1.238 0.005-2.476-0.004-3.713 0.004-0.001 0.409-0.001 0.817 0 1.226 1.666 0.007 3.331 0.001 4.998 0.004 0.8 1.646 1.576 3.304 2.371 4.952 0.373-0.169 0.744-0.344 1.117-0.514 0.158 0.325 0.311 0.653 0.455 0.984-0.703 0.307-1.403 0.624-2.108 0.929-0.838-1.751-1.66-3.509-2.495-5.261-1.853-0.008-3.706 0.001-5.558-0.005-0.010-2.298 0.010-4.597-0.008-6.895-0.376-0.541-0.55-1.306-0.091-1.858z"></path>
<path fill="#000" d="M5.525 15.005c-0.066-1.89 1.055-3.731 2.718-4.61 0.005 0.433 0.005 0.866 0.001 1.3-1.472 1.034-2.090 3.122-1.309 4.764 0.786 1.824 3.017 2.794 4.9 2.202 1.517-0.427 2.692-1.8 2.874-3.366 0.23 0.5 0.47 0.997 0.7 1.498-1.099 2.67-4.59 3.888-7.122 2.512-1.609-0.792-2.735-2.496-2.761-4.298z"></path>
</svg>
