<!-- Generated by IcoMoon.io -->
<svg version="1.1" xmlns="http://www.w3.org/2000/svg" width="33" height="24" viewBox="0 0 33 24">
<title>information--go-straight-or-turn-right--g1</title>
<path fill="#231f20" d="M2.182 0h29.266c0.712 0.223 1.383 0.597 1.868 1.173v21.962c-0.259 0.317-0.553 0.608-0.872 0.865h-31.276c-0.573-0.489-0.949-1.161-1.168-1.874v-19.948c0.276-1.071 1.11-1.906 2.182-2.177M2.425 0.531c-1.149 0.161-1.906 1.186-1.95 2.305 0 6.215-0.009 12.429 0.005 18.644-0.028 1.156 0.849 2.301 2.038 2.362 9.531 0 19.061 0 28.593 0 1.123-0.017 2.179-1.064 2.053-2.209-0.014-6.371-0.002-12.744-0.006-19.115-0.068-1.235-1.317-2.169-2.525-2.049-9.401 0.051-18.815-0.076-28.208 0.062z"></path>
<path fill="#fff" d="M2.425 0.531c9.393-0.137 18.807-0.011 28.208-0.062 1.208-0.12 2.457 0.815 2.525 2.049 0.005 6.371-0.008 12.744 0.006 19.115 0.126 1.145-0.93 2.192-2.053 2.209-9.532 0-19.063 0-28.593 0-1.189-0.062-2.067-1.206-2.038-2.362-0.014-6.215-0.005-12.429-0.005-18.644 0.044-1.119 0.801-2.144 1.95-2.305M2.269 1.004c-0.807 0.208-1.371 1.007-1.326 1.833 0.011 6.267 0 12.534 0.006 18.801-0.024 0.913 0.788 1.824 1.732 1.735 9.529-0.011 19.059-0.003 28.588-0.003 0.741 0.022 1.438-0.676 1.416-1.416 0-6.477-0.008-12.954 0.003-19.432 0.103-0.995-1.011-1.626-1.895-1.579-9.507 0.047-19.028-0.073-28.525 0.062z"></path>
<path fill="#fff" d="M12.553 2.937c1.614 2.403 3.101 4.888 4.696 7.304 0.18 0.262 0.101 0.598 0.133 0.897-0.139 0.139-0.275 0.279-0.411 0.422-0.897-0.106-1.745-0.426-2.602-0.692 0 1.273 0 2.545 0 3.816 1.271 0 2.544 0 3.816 0-0.193-0.996-1.041-2.091-0.325-3.041 0.977-0.022 1.701 0.696 2.477 1.179 1.915 1.2 3.796 2.457 5.714 3.652-0.002 0.043-0.006 0.126-0.008 0.169-1.693 1.064-3.371 2.151-5.048 3.238-0.955 0.51-1.751 1.303-2.799 1.629-0.169-0.084-0.338-0.166-0.507-0.245-0.381-0.943 0.275-1.887 0.504-2.792-2.485-0.003-4.971-0.002-7.456-0.002 0-2.534 0-5.070 0-7.604-0.857 0.264-1.705 0.584-2.602 0.69-0.136-0.142-0.273-0.283-0.411-0.423-0.103-0.688 0.322-1.247 0.677-1.787 1.412-2.119 2.681-4.333 4.151-6.412z"></path>
<path fill="#006f51" d="M2.269 1.004c9.497-0.134 19.018-0.014 28.525-0.062 0.884-0.047 1.997 0.584 1.895 1.579-0.011 6.478-0.003 12.955-0.003 19.432 0.022 0.741-0.676 1.438-1.416 1.416-9.529 0-19.059-0.008-28.588 0.003-0.944 0.088-1.756-0.823-1.732-1.735-0.006-6.267 0.005-12.534-0.006-18.801-0.044-0.826 0.519-1.625 1.326-1.833M12.553 2.937c-1.47 2.079-2.739 4.293-4.151 6.412-0.355 0.54-0.78 1.099-0.677 1.787 0.137 0.141 0.275 0.281 0.411 0.423 0.897-0.106 1.745-0.426 2.602-0.69 0 2.534 0 5.070 0 7.604 2.485 0 4.971-0.002 7.456 0.002-0.229 0.905-0.884 1.849-0.504 2.792 0.169 0.079 0.338 0.161 0.507 0.245 1.048-0.327 1.844-1.119 2.799-1.629 1.677-1.088 3.355-2.174 5.048-3.238 0.002-0.043 0.006-0.126 0.008-0.169-1.918-1.195-3.799-2.452-5.714-3.652-0.777-0.483-1.5-1.202-2.477-1.179-0.715 0.951 0.133 2.045 0.325 3.041-1.273 0-2.545 0-3.816 0 0-1.271 0-2.544 0-3.816 0.857 0.265 1.705 0.586 2.602 0.692 0.136-0.142 0.272-0.283 0.411-0.422-0.032-0.298 0.047-0.635-0.133-0.897-1.595-2.416-3.082-4.901-4.696-7.304z"></path>
</svg>
