<!-- Generated by IcoMoon.io -->
<svg version="1.1" xmlns="http://www.w3.org/2000/svg" width="24" height="24" viewBox="0 0 24 24">
<title>information--cargo-loading-zone--g1</title>
<path fill="#c0111e" d="M11.1 0h1.774c1.427 0.175 2.852 0.473 4.158 1.094 3.928 1.752 6.631 5.755 6.968 10.022v1.732c-0.334 4.595-3.462 8.851-7.818 10.404-1.055 0.401-2.17 0.595-3.283 0.748h-1.774c-1.423-0.174-2.846-0.478-4.148-1.097-3.928-1.75-6.636-5.748-6.977-10.015v-1.748c0.32-4.278 3.035-8.291 6.967-10.045 1.297-0.618 2.716-0.913 4.133-1.094M10.969 2.339c-2.392 0.242-4.669 1.411-6.256 3.217-2.668 2.946-3.193 7.568-1.274 11.046 1.721 3.292 5.461 5.372 9.167 5.090 3.698-0.179 7.141-2.698 8.447-6.16 1.090-2.777 0.817-6.053-0.752-8.594-1.877-3.172-5.675-5.028-9.331-4.6z"></path>
<path fill="#fff" d="M10.969 2.339c3.656-0.428 7.454 1.428 9.331 4.6 1.57 2.542 1.842 5.818 0.752 8.594-1.306 3.462-4.748 5.981-8.447 6.16-3.706 0.282-7.446-1.799-9.167-5.090-1.919-3.478-1.393-8.1 1.274-11.046 1.586-1.806 3.864-2.975 6.256-3.217M5.185 6.016c0.001 2.744 0 5.489 0.001 8.232-0.102 0.096-0.206 0.186-0.317 0.271-0.008 0.404-0.010 0.809-0.002 1.213 0.276 0.175 0.574 0.311 0.883 0.416 0.035 0.518-0.067 1.057 0.065 1.562 0.325 0.488 1.026 0.185 1.514 0.266 0.853 0.029 0.535-1.088 0.601-1.621 1.039 0.781 2.554 0.79 3.592-0.001 0.078 0.515-0.193 1.217 0.283 1.586 0.523 0.066 1.061 0.050 1.586 0.010 0.564-0.4 0.211-1.217 0.308-1.8 0.295-0.134 0.668-0.194 0.871-0.469-0.005-0.482 0.199-1.134-0.3-1.439-0.010-2.742-0.001-5.484-0.005-8.227-3.026 0.001-6.054 0-9.082 0M16.858 11.214c-0.618 0.247-0.248 1.326 0.402 1.051 0.65-0.239 0.253-1.357-0.402-1.051M17.801 12.308c-0.871-0.232-1.158 0.905-1.784 1.27-0.040 0.538 0.611 0.341 0.826 0.702-0.272 0.868-0.906 1.7-0.638 2.648 0.059 0.366-0.037 1.148 0.553 1.034 0.524-0.119 0.239-0.722 0.173-1.073-0.221-0.636 0.238-1.207 0.445-1.777 0.331 0.85 0.562 1.741 0.938 2.57 0.202 0.401 0.827 0.163 0.739-0.265-0.308-1.133-0.708-2.244-1.046-3.37 0.292-0.096 0.598-0.125 0.904-0.116 0.076-0.174 0.154-0.347 0.233-0.518-0.26-0.486-0.53-0.967-0.797-1.45-0.182 0.114-0.362 0.232-0.545 0.344z"></path>
<path fill="#fff" d="M10.133 6.716c1.145-0.010 2.291-0.002 3.437-0.004 0.001 2.525 0.001 5.050 0 7.574-1.146-0.001-2.292 0.005-3.437-0.004 0-2.522 0-5.045 0-7.567z"></path>
<path fill="#000" d="M5.185 6.016c3.028 0 6.055 0.001 9.082 0 0.004 2.743-0.005 5.485 0.005 8.227 0.499 0.305 0.295 0.956 0.3 1.439-0.203 0.275-0.576 0.335-0.871 0.469-0.097 0.583 0.256 1.4-0.308 1.8-0.526 0.041-1.063 0.056-1.586-0.010-0.476-0.37-0.205-1.072-0.283-1.586-1.038 0.791-2.552 0.782-3.592 0.001-0.066 0.533 0.252 1.65-0.601 1.621-0.488-0.082-1.189 0.222-1.514-0.266-0.132-0.505-0.030-1.044-0.065-1.562-0.31-0.106-0.607-0.241-0.883-0.416-0.007-0.404-0.006-0.809 0.002-1.213 0.11-0.085 0.215-0.175 0.317-0.271-0.001-2.743 0-5.488-0.001-8.232M10.133 6.716c0 2.522 0 5.045 0 7.567 1.145 0.008 2.291 0.002 3.437 0.004 0.001-2.525 0.001-5.050 0-7.574-1.146 0.001-2.292-0.006-3.437 0.004z"></path>
<path fill="#000" d="M16.858 11.214c0.655-0.306 1.052 0.812 0.402 1.051-0.65 0.275-1.020-0.804-0.402-1.051z"></path>
<path fill="#000" d="M17.801 12.308c0.182-0.113 0.362-0.23 0.545-0.344 0.266 0.482 0.536 0.964 0.797 1.45-0.079 0.172-0.157 0.344-0.233 0.518-0.306-0.008-0.612 0.020-0.904 0.116 0.338 1.126 0.738 2.237 1.046 3.37 0.088 0.428-0.538 0.666-0.739 0.265-0.377-0.829-0.607-1.721-0.938-2.57-0.208 0.57-0.666 1.141-0.445 1.777 0.066 0.35 0.352 0.954-0.173 1.073-0.59 0.114-0.494-0.668-0.553-1.034-0.268-0.948 0.366-1.781 0.638-2.648-0.215-0.361-0.865-0.164-0.826-0.702 0.626-0.365 0.913-1.501 1.784-1.27z"></path>
</svg>
