<svg xmlns="http://www.w3.org/2000/svg" width="24" height="24">
    <path fill="#606267" d="M8.577 0H15.5c.233.055.411.237.528.438v23.174c-.09.168-.245.285-.401.389H8.478c-.22-.108-.433-.3-.448-.56.015-.131.012-.264.012-.396V1.042c0-.146.005-.292-.013-.437a.709.709 0 0 1 .548-.603zm-.021.104a.686.686 0 0 0-.473.685v22.463c-.022.365.295.711.663.705h6.576c.374.015.703-.335.677-.708V.79c.032-.378-.298-.735-.68-.717-2.148-.006-4.297 0-6.445-.003-.106.002-.215.001-.317.032z"/>
    <path fill="#fff" d="M8.556.104c.103-.032.211-.031.317-.032 2.148.003 4.297-.003 6.445.003.383-.019.712.339.68.717v22.459c.027.372-.302.722-.677.708H8.745c-.368.006-.685-.34-.663-.705V.791a.685.685 0 0 1 .473-.685zm.083.125c-.267.055-.428.341-.413.6v22.467c-.006.318.303.537.602.519 2.165.007 4.33.002 6.495.002.319.012.557-.302.535-.605l.001-22.13c-.004-.215.037-.458-.101-.643-.139-.211-.417-.231-.646-.227-2.158.014-4.318-.021-6.473.017z"/>
    <path fill="#fff" d="M9.365 1.776l.343.001c.052.399.087.8.141 1.199.084-.398.139-.803.218-1.202.097.001.193.004.29.01.065.392.133.784.205 1.175.072-.391.094-.789.146-1.183l.344.001c-.1.887-.202 1.773-.308 2.659l-.284-.001c-.093-.476-.152-.96-.257-1.433-.099.475-.154.958-.245 1.434l-.285-.001c-.104-.886-.207-1.772-.308-2.659zM11.401 2.202c.246-.054.53-.013.791-.02.05.079.011.193.022.285l-.535.001-.001.567.359.002v.292l-.36.002c.002.259.001.518.001.778l.567.001-.001.286c-.28 0-.561-.002-.841.002-.01-.732-.007-1.464-.002-2.196zM12.637 2.306a.437.437 0 0 1 .631-.045c.111.106.129.267.158.41-.095 0-.191-.002-.285-.007-.01-.122-.085-.292-.234-.223-.188.131-.084.408.059.536.296.299.558.725.417 1.158-.096.298-.499.392-.736.204-.146-.12-.173-.319-.188-.495h.28c.022.082.029.171.076.244.092.11.312.061.313-.096.049-.355-.228-.619-.433-.869-.193-.22-.247-.58-.057-.818zM13.597 2.184c.28-.011.562-.002.842-.005l.001.287-.284.001c-.006.643.001 1.286-.003 1.929h-.279c-.002-.643.002-1.286-.002-1.928l-.27-.002c-.001-.094-.002-.188-.005-.282zM10.255 6.243c.488.419 1.263.428 1.747 0 .488.419 1.264.429 1.749 0 .384.362.762.731 1.144 1.096a1.875 1.875 0 0 0-.345 1.185c.037.505.372.946.339 1.462a1.6 1.6 0 0 1-1.176 1.465c-.342.106-.71.001-1.05.114a1.45 1.45 0 0 0-.658.433 1.469 1.469 0 0 0-1.26-.493c-.806.035-1.559-.632-1.619-1.436-.079-.574.334-1.062.338-1.626a1.95 1.95 0 0 0-.347-1.107c.381-.363.757-.73 1.138-1.093zm1.865 1.375c-.241.134-.371.397-.432.656.155.037.31.074.466.105.068-.523.91-.559 1.082-.099.087.323-.274.454-.495.577a1.888 1.888 0 0 0-1.052 1.655c.675 0 1.349-.001 2.024.001.005-.161.005-.321.001-.482-.487-.002-.973.004-1.46-.003.087-.19.203-.369.359-.509.267-.246.641-.339.893-.603a.806.806 0 0 0 .027-1.058c-.33-.413-.962-.483-1.414-.242zm-1.442-.083a.548.548 0 0 1-.387.198c-.001.121 0 .242.001.364.091 0 .183.004.274.009-.004.802-.004 1.605 0 2.408l.477-.001c.002-.993.003-1.985 0-2.978a22.205 22.205 0 0 0-.365 0zM11.209 13.788h.369c.006.888.006 1.775 0 2.663h-.369c-.002-.888-.002-1.775 0-2.663zM8.873 13.789h.38c.183.477.29.992.512 1.448.158-.483.319-.965.481-1.447h.381c0 .887.002 1.774-.001 2.66h-.381c-.003-.489.006-.979-.005-1.468-.175.48-.32.971-.49 1.452-.176-.48-.314-.974-.494-1.453-.005.489.001.979-.002 1.468h-.381v-2.661zM12.167 13.791c.128-.002.257-.003.385-.002v2.304c.323.005.646-.002.969.003l.002.35c-.452.009-.905.003-1.357.003.002-.886 0-1.773 0-2.659zM13.896 13.789c.417-.001.834-.003 1.25.001v.371c-.288.002-.577.001-.865 0-.007.225-.005.45-.002.674h.549v.363h-.547c-.007.292-.002.584-.003.876.32 0 .641.004.961-.002a2.02 2.02 0 0 1 0 .381 59.498 59.498 0 0 0-1.336 0c-.017-.888-.003-1.776-.007-2.664zM9.261 18.904c.008-.523.591-.9 1.07-.688.461.181.579.797.367 1.206-.327.614-.837 1.172-.923 1.886.32.003.639 0 .959.002l.002.461c-.49.004-.979.001-1.469.001a3.098 3.098 0 0 1 .644-1.972c.206-.303.548-.646.381-1.042-.139-.272-.559-.137-.575.15-.152.001-.304.001-.456-.003zM11.093 20.511a3.204 3.204 0 0 1 1.259-2.347c.086.125.168.253.247.383-.365.299-.664.68-.837 1.121a.569.569 0 0 1 .657.287c.229.445.243.996.065 1.46-.167.463-.866.569-1.172.191-.241-.307-.24-.725-.219-1.096zm.659-.37c-.195.089-.198.344-.206.529.008.214-.03.478.146.639.126.128.369.045.394-.132.062-.278.089-.578.008-.855a.262.262 0 0 0-.341-.181zM13.756 18.2c.324-.12.72.023.866.341.235.494.191 1.059.194 1.591-.011.473.002.985-.256 1.402-.245.389-.894.382-1.139-.004-.213-.325-.241-.73-.256-1.107 0-.52-.027-1.049.099-1.558.072-.27.213-.562.492-.666zm.159.44c-.145.078-.191.254-.229.402-.091.44-.059.893-.06 1.34.022.305.014.647.209.901.1.132.31.076.368-.068.163-.349.138-.749.143-1.126-.003-.407.031-.827-.095-1.22-.04-.14-.176-.302-.336-.23z"/>
    <path fill="#00694f" d="M8.639.229c2.156-.038 4.316-.003 6.473-.017.229-.004.507.015.646.227.139.186.097.428.101.643l-.001 22.13c.022.303-.216.617-.535.605-2.165 0-4.33.005-6.495-.002-.299.018-.608-.2-.602-.519V.829c-.015-.26.145-.545.413-.6zm.726 1.547c.101.887.204 1.773.308 2.659l.285.001c.091-.476.147-.959.245-1.434.105.474.164.957.257 1.433l.284.001c.106-.886.208-1.772.308-2.659l-.344-.001c-.051.394-.074.792-.146 1.183-.072-.391-.14-.783-.205-1.175a5.58 5.58 0 0 0-.29-.01c-.079.399-.134.804-.218 1.202-.054-.399-.09-.8-.141-1.199l-.343-.001zm2.036.426c-.005.732-.008 1.464.002 2.196.28-.003.561-.001.841-.002l.001-.286-.567-.001c0-.26.001-.519-.001-.778l.36-.002v-.292l-.359-.002.001-.567.535-.001c-.011-.092.028-.205-.022-.285-.26.007-.544-.034-.791.02zm1.236.104c-.19.238-.136.598.057.818.205.25.482.514.433.869-.001.157-.22.206-.313.096-.047-.073-.054-.162-.076-.244h-.28c.016.176.043.375.188.495.237.188.64.094.736-.204.141-.433-.121-.86-.417-1.158-.144-.128-.247-.405-.059-.536.149-.07.225.101.234.223.095.004.19.007.285.007-.03-.143-.047-.304-.158-.41a.437.437 0 0 0-.631.045zm.96-.122l.005.282.27.002c.005.643 0 1.286.002 1.928h.279c.004-.643-.002-1.286.003-1.929l.284-.001-.001-.287c-.281.002-.562-.006-.842.005zm-3.342 4.059c-.381.363-.757.73-1.138 1.093.218.326.354.712.347 1.107-.004.564-.417 1.052-.338 1.626.06.804.813 1.471 1.619 1.436.47-.046.953.13 1.26.493.179-.197.4-.359.658-.433.34-.114.708-.008 1.05-.114a1.6 1.6 0 0 0 1.176-1.465c.033-.515-.302-.957-.339-1.462-.03-.42.107-.841.345-1.185-.382-.364-.76-.734-1.144-1.096-.485.429-1.261.419-1.749 0-.485.429-1.259.42-1.747 0zm.954 7.545c-.002.888-.002 1.775 0 2.663h.369c.006-.888.006-1.775 0-2.663h-.369zm-2.336.001v2.661h.381c.004-.49-.002-.979.002-1.468.18.479.318.973.494 1.453.171-.481.315-.972.49-1.452.011.489.001.979.005 1.468h.381c.002-.887.001-1.774.001-2.66a24.194 24.194 0 0 0-.381 0c-.162.482-.323.964-.481 1.447-.222-.456-.329-.971-.512-1.448a24.067 24.067 0 0 0-.38 0zm3.294.002v2.659c.453 0 .905.005 1.357-.003-.002-.117-.002-.233-.002-.35-.323-.005-.646.001-.969-.003V13.79a12.353 12.353 0 0 0-.385.002zm1.729-.002c.004.888-.01 1.776.007 2.664.445-.005.891-.005 1.336 0a2.02 2.02 0 0 0 0-.381c-.32.006-.641.003-.961.002.001-.292-.004-.584.003-.876h.547v-.363a50.234 50.234 0 0 0-.549 0c-.002-.225-.005-.45.002-.674.288.001.577.002.865 0v-.371c-.417-.005-.834-.002-1.25-.001zm-4.635 5.115c.152.005.304.004.456.003.016-.287.437-.422.575-.15.167.396-.176.74-.381 1.042a3.101 3.101 0 0 0-.644 1.972c.49 0 .98.002 1.469-.001l-.002-.461c-.32-.002-.639.001-.959-.002.086-.714.596-1.272.923-1.886.212-.409.094-1.026-.367-1.206-.479-.212-1.062.165-1.07.688zm1.832 1.607c-.021.371-.022.789.219 1.096.306.377 1.005.271 1.172-.191a1.827 1.827 0 0 0-.065-1.46.569.569 0 0 0-.657-.287 2.77 2.77 0 0 1 .837-1.121 7.341 7.341 0 0 0-.247-.383 3.204 3.204 0 0 0-1.259 2.347zm2.663-2.311c-.28.104-.421.395-.492.666-.126.509-.099 1.038-.099 1.558.015.377.042.782.256 1.107.245.386.894.393 1.139.004.259-.417.245-.929.256-1.402-.002-.532.042-1.097-.194-1.591-.147-.319-.542-.461-.866-.341z"/>
    <path fill="#00694f" d="M13.915 18.64c.161-.072.297.09.336.23.126.393.091.813.095 1.22-.005.376.02.776-.143 1.126-.057.144-.268.2-.368.068-.195-.254-.187-.596-.209-.901.002-.446-.03-.899.06-1.34.038-.148.084-.324.229-.402zM11.752 20.141a.262.262 0 0 1 .341.181c.081.277.054.577-.008.855-.025.177-.268.26-.394.132-.175-.161-.137-.425-.146-.639.008-.185.011-.44.206-.53z"/>
    <path fill="#cacbcc" d="M8 .548l.029.055c.017.145.013.291.013.437v22.003c0 .132.003.265-.012.396l-.03.054V.547z"/>
    <path fill="#2b2e34" d="M12.12 7.618c.452-.24 1.084-.17 1.414.242a.808.808 0 0 1-.027 1.058c-.252.263-.626.357-.893.603-.156.14-.272.319-.359.509.487.007.973.001 1.46.003.004.161.004.321-.001.482-.675-.002-1.349 0-2.024-.001a1.884 1.884 0 0 1 1.052-1.655c.221-.124.582-.254.495-.577-.172-.46-1.014-.424-1.082.099a14.305 14.305 0 0 1-.466-.105c.061-.259.191-.522.432-.656zM10.678 7.535c.121-.002.243-.002.365 0 .003.993.002 1.985 0 2.978l-.477.001c-.004-.803-.004-1.606 0-2.408a5.014 5.014 0 0 0-.274-.009c-.001-.121-.002-.242-.001-.364a.546.546 0 0 0 .387-.198z"/>
</svg>
