<svg xmlns="http://www.w3.org/2000/svg" width="24" height="24">
    <path fill="#0e518d" d="M0 6.24h24v11.52H0V6.24zm.766.187c-.412.072-.643.49-.602.884.005 3.163-.005 6.326.004 9.488-.045.498.431.865.9.834 4.368.005 8.737.002 13.105 0 .468.035.956-.322.914-.822.007-3.205.009-6.41-.001-9.614.046-.623-.638-.887-1.158-.821-4.386.038-8.781-.06-13.162.05zm15.12-.008c-.421.061-.682.48-.635.888.004 3.168-.006 6.337.005 9.505-.043.509.458.863.931.823 2.248.001 4.496.005 6.744-.002.47.031.943-.336.895-.833.006-3.199.009-6.399-.001-9.599.048-.552-.523-.87-1.013-.819-2.307.024-4.622-.053-6.926.037z"/>
    <path fill="#0e518d" d="M.884 6.562c4.385-.056 8.775-.007 13.163-.025.405-.046.911.177.859.655.012 3.205.01 6.411.002 9.617.05.423-.361.702-.746.667-4.362.005-8.724.006-13.085 0-.383.031-.781-.25-.73-.665C.333 13.644.345 10.477.341 7.31c-.045-.349.161-.731.542-.749zM9.866 8.39c-.016-.426-.01-.852.024-1.276-.281.397-.35.873-.024 1.276zm2.593-1.053l.138.144c.227-.017.454-.026.681-.034-.317.245-.654.473-.887.806a5.17 5.17 0 0 0 1.153-.037c-.285-.079-.576-.121-.866-.166.263-.133.529-.261.794-.389-.155-.455-.626-.429-1.013-.325zM1.185 7.235c-.001.361-.002.722 0 1.083.34-.052.886-.056.895-.524.031-.491-.549-.513-.895-.559zm3.724-.066a6.62 6.62 0 0 0 .006 1.211c.073-.186.139-.374.204-.564l.436.003c.046.187.096.374.149.559a4.91 4.91 0 0 0 .061-1.193 16.06 16.06 0 0 0-.226.478c-.139.002-.278.006-.418.01a18.51 18.51 0 0 0-.212-.504zm5.326 1.153c.394-.299.839-.285 1.235 0a20.18 20.18 0 0 0-.592-1.187 7.68 7.68 0 0 0-.643 1.187zm1.676-.999c.065.361.11.726.197 1.082.096-.378.092-.769.096-1.157l-.293.074zm1.871-.181c.068.407.085.817.092 1.229.218-.409.234-.866-.092-1.229zM2.376 7.81c-.153.458.395.474.703.504-.171-.12-.347-.234-.522-.346.223-.031.446-.065.67-.102-.178-.305-.781-.564-.851-.056zm1.04-.311c.03.291.066.583.119.871.082-.265.156-.531.242-.796.127.265.225.542.343.811.204-.55-.072-1.03-.704-.887zm2.708.118l.456.076a4.41 4.41 0 0 0-.488.252c.029.425.521.336.817.385-.014-.283-.03-.566-.048-.848-.247.04-.493.083-.737.135zm1.056.008l.603.065c-.234.084-.481.161-.655.348.196.25.522.234.806.274a23.846 23.846 0 0 0-.06-.799 8.524 8.524 0 0 0-.695.113zm1.089.194c-.106.312.249.436.47.526-.054.132-.107.264-.158.396.494-.239.396-.798.397-1.248-.236.089-.686-.02-.709.326zM4.13 8.875c-.001.437.101.865.282 1.261.097-.24.19-.481.279-.722.088.239.176.478.272.714a2.81 2.81 0 0 0 .287-1.249 5.71 5.71 0 0 0-.304.677c-.059-.189-.117-.379-.196-.562-.252-.004-.206.377-.323.535a5.923 5.923 0 0 0-.299-.654zm4.166.822c.039.362.463.277.721.336.001-.354.002-.707.001-1.061-.236.23-.754.324-.722.725zm-2.595-.401c-.395.175-.139.87.286.7.499-.124.19-.983-.286-.7zm.783.197c-.178.502.425.577.768.457l-.576-.191c.215-.034.43-.07.644-.107-.103-.389-.67-.636-.837-.16zm1.044-.272c.025.314.059.628.124.936.069-.209.128-.42.185-.632l.369-.221c-.226-.03-.451-.056-.677-.083zm1.748.077c-.025.526.311.865.837.655-.142-.049-.426-.147-.567-.198l.531-.054.025-.418a8.432 8.432 0 0 0-.826.014zm1.128-.072c.026.304.058.606.108.907.088-.269.168-.54.254-.809.118.269.229.541.353.808.192-.576-.083-1.011-.715-.906zM5.09 10.741c-.022.595-.019 1.19-.007 1.786 1.696.035 3.394.033 5.09.002.011-.593.011-1.186.001-1.778-1.694-.05-3.391-.032-5.085-.01zm-1.411 3.576c.217-.03.435-.06.653-.092v2.511l.394-.001c-.001-.837.002-1.673-.002-2.508.216.03.432.058.649.086a20.607 20.607 0 0 0-.844-1.086c-.298.351-.582.715-.85 1.09zm6.201-.001c.217-.029.434-.06.653-.091-.005.837-.002 1.673-.002 2.51l.392.001c-.001-.838.002-1.675-.002-2.513.218.033.437.063.655.094-.269-.377-.554-.74-.854-1.091a18.06 18.06 0 0 0-.841 1.09zM15.758 6.62c2.208-.197 4.458-.022 6.682-.088.474-.036 1.25-.002 1.211.657.013 3.206.011 6.415 0 9.622.047.413-.347.694-.729.664-2.242.01-4.483.005-6.725.002-.392.037-.815-.236-.765-.67-.014-3.123.004-6.247-.009-9.371-.001-.297.007-.685.334-.816zM16.254 9c.038.355-.095.994.432 1.011.614.019.514-.729.399-1.122-.074.311-.097.634-.185.942-.554.15-.434-.477-.487-.832h-.16zm1.294.28c.054.228.105.457.153.686.062.019.19.06.252.081a3.325 3.325 0 0 1-.005-.785l-.17-.276-.229.294zm3.67-.369c-.011.403-.007.806.017 1.208.119-.261.225-.526.34-.787.11.266.207.539.319.805.026-.272.041-.546.043-.819-.153-.018-.306-.036-.458-.052a32.514 32.514 0 0 0-.261-.355zm1.129.364c.046.239.086.479.127.719.134-.001.268-.002.403-.005a80.49 80.49 0 0 0-.298-.272l.21-.393a25.636 25.636 0 0 1-.24-.335l-.203.286zm-3.953-.014c.031.288.067.576.132.861.049-.204.096-.408.139-.612.131-.071.262-.142.39-.215a29.549 29.549 0 0 0-.661-.034zm.948-.022c-.248.175-.168.514-.203.773.261-.016.521-.037.78-.072l-.563-.171c.22-.047.438-.094.658-.144-.18-.197-.36-.48-.672-.385zm.78.359c.011.462.514.433.828.325-.193-.05-.389-.092-.585-.132-.005-.081-.016-.242-.02-.323.213-.024.426-.052.638-.081-.298-.125-.783-.236-.862.21zm-2.664 1.117c-.098.621-.047 1.254-.019 1.879 1.391.058 2.785.03 4.176.016.03-.646.03-1.291-.001-1.935-1.384.001-2.781-.089-4.156.041zm2.27 2.796c.175.111.354.221.531.331-.311.272-.623.544-.936.814v2.081l.397-.002.001-1.933.812-.718.377.479c.109-.429.199-.862.281-1.296-.49.069-.979.147-1.464.245z"/>
    <path fill="#0e518d" d="M1.373 7.367c.658.038.626.752.011.835a16.608 16.608 0 0 1-.011-.835zM8.379 8.027c.113-.145.228-.287.348-.426.022.178.043.355.062.533l-.41-.107zM7.465 7.92c.564-.128-.115.547 0 0zM5.782 9.492c.178-.142.36.174.191.291-.179.143-.363-.174-.191-.291zM8.566 9.499c.178-.141.367.169.191.287-.178.142-.37-.169-.191-.287z"/>
    <path fill="#eff6f1" d="M.766 6.427c4.381-.11 8.775-.012 13.162-.05.52-.066 1.204.198 1.158.821.01 3.204.009 6.409.001 9.614.042.501-.446.857-.914.822-4.368.002-8.737.005-13.105 0-.469.031-.945-.336-.9-.834-.009-3.162.001-6.325-.004-9.488-.041-.395.191-.812.602-.884zm.118.135c-.382.018-.587.4-.542.749.004 3.167-.009 6.334.006 9.501-.052.415.347.696.73.665 4.361.006 8.723.005 13.085 0 .385.035.797-.243.746-.667.007-3.205.01-6.411-.002-9.617.052-.479-.455-.701-.859-.655-4.387.018-8.778-.031-13.163.025zM15.886 6.419c2.304-.09 4.619-.013 6.926-.037.49-.05 1.061.268 1.013.819.01 3.199.007 6.399.001 9.599.048.497-.425.864-.895.833-2.248.007-4.496.004-6.744.002-.473.039-.974-.314-.931-.823-.011-3.168-.001-6.337-.005-9.505-.047-.408.214-.827.635-.888zm-.128.201c-.326.131-.335.52-.334.816.012 3.123-.006 6.247.009 9.371-.05.433.372.707.765.67 2.242.002 4.483.007 6.725-.002.382.03.775-.251.729-.664.011-3.206.013-6.415 0-9.622.039-.659-.737-.693-1.211-.657-2.223.066-4.474-.109-6.682.088z"/>
    <path fill="#eff6f1" d="M9.866 8.39c-.326-.403-.257-.878.024-1.276-.034.423-.039.85-.024 1.276zM12.459 7.337c.386-.103.858-.13 1.013.325-.265.128-.531.256-.794.389.29.045.582.086.866.166-.382.06-.768.063-1.153.037.233-.334.57-.562.887-.806-.227.007-.454.017-.681.034l-.138-.144zM11.911 7.323l.293-.074c-.003.387 0 .779-.096 1.157-.086-.357-.132-.721-.197-1.082zM7.18 7.625c.229-.048.462-.084.695-.113.025.266.045.533.06.799-.285-.04-.611-.024-.806-.274.174-.187.421-.264.655-.348l-.603-.065zm.285.295c-.115.547.564-.128 0 0zM4.13 8.875c.115.211.21.432.299.654.117-.158.071-.539.323-.535.079.182.137.373.196.562.09-.23.185-.459.304-.677 0 .433-.095.862-.287 1.249a20.532 20.532 0 0 1-.272-.714c-.09.241-.182.482-.279.722a3.018 3.018 0 0 1-.282-1.261zM17.548 9.28l.229-.294.17.276c-.033.261-.025.523.005.785l-.252-.081a23.36 23.36 0 0 0-.153-.686zM5.701 9.296c.475-.283.785.576.286.7-.425.17-.681-.524-.286-.7zm.081.196c-.173.118.012.434.191.291.169-.118-.013-.433-.191-.291z"/>
    <path fill="#f7fbf5" d="M1.185 7.235c.347.047.926.069.895.559-.01.468-.556.473-.895.524-.002-.361-.001-.722 0-1.083zm.188.132c-.003.278 0 .557.011.835.615-.083.647-.797-.011-.835zM13.782 7.142c.326.362.311.819.092 1.229a8.284 8.284 0 0 0-.092-1.229zM3.416 7.499c.632-.143.909.337.704.887-.119-.269-.216-.546-.343-.811-.086.264-.161.53-.242.796a11.11 11.11 0 0 1-.119-.871zM8.269 7.819c.023-.347.473-.238.709-.326-.001.45.097 1.009-.397 1.248l.158-.396c-.222-.09-.576-.214-.47-.526zm.11.208l.41.107c-.019-.178-.041-.355-.062-.533-.12.139-.235.281-.348.426zM8.296 9.697c-.031-.401.486-.494.722-.725.001.354 0 .707-.001 1.061-.258-.059-.682.026-.721-.336zm.27-.198c-.179.118.013.428.191.287.176-.118-.013-.427-.191-.287zM16.254 9h.16c.053.355-.067.982.487.831.088-.308.11-.631.185-.942.114.394.215 1.141-.4 1.122-.527-.018-.394-.657-.432-1.012zM21.218 8.911l.261.355c.153.016.306.034.458.052a9.318 9.318 0 0 1-.043.819c-.112-.266-.209-.539-.319-.805-.115.262-.221.527-.34.787a14.311 14.311 0 0 1-.017-1.208zM22.347 9.275c.067-.095.134-.191.203-.286l.24.335a37.52 37.52 0 0 0-.21.393l.298.272-.403.005c-.041-.24-.082-.48-.127-.719zM10.404 9.226c.632-.106.907.33.715.906-.124-.266-.235-.539-.353-.808-.086.269-.167.54-.254.809-.05-.301-.082-.603-.108-.907zM18.394 9.261c.221.009.441.019.661.034-.128.073-.259.144-.39.215-.043.204-.09.408-.139.612a7.366 7.366 0 0 1-.132-.861zM20.122 9.598c.078-.446.564-.335.862-.21-.213.029-.426.056-.638.081.005.081.016.242.02.323.196.039.391.082.585.132-.314.108-.817.137-.828-.325zM17.458 10.715c1.375-.13 2.772-.039 4.156-.041.031.645.031 1.29.001 1.935-1.391.014-2.785.042-4.176-.016-.027-.625-.079-1.259.019-1.879zm.073.055a46.247 46.247 0 0 0-.001 1.747c1.33.022 2.66.009 3.99.007.004-.588.004-1.176 0-1.765-1.33-.006-2.659-.025-3.989.011z"/>
    <path fill="#f7fbf5" d="M17.94 12.163c.187-.376.372-.752.602-1.104.221.372.409.762.574 1.162a16.025 16.025 0 0 1-.479-.382 8.984 8.984 0 0 0-.697.324zm.559-.708c-.173.056-.126.374.072.322.18-.043.112-.369-.072-.322zM19.593 11.198l.293-.071c-.006.384-.001.773-.091 1.148-.089-.355-.134-.718-.202-1.078zM20.064 11.302c.386-.2.89-.252 1.104.206-.275.141-.553.271-.83.408.294.042.588.083.877.154a6.82 6.82 0 0 1-1.142.066c.204-.36.557-.574.906-.772-.304-.037-.611-.041-.914-.062zM3.679 14.317c.268-.374.552-.738.85-1.09.291.354.576.713.844 1.086-.217-.029-.433-.056-.649-.086.005.835.001 1.672.002 2.508l-.394.001v-2.511c-.217.033-.436.062-.653.092zM9.88 14.316c.265-.374.549-.736.841-1.09.3.35.586.714.854 1.091a49.15 49.15 0 0 1-.655-.094c.005.838.001 1.675.002 2.513l-.392-.001c0-.838-.002-1.674.002-2.51-.218.031-.435.062-.653.091zM19.728 13.511c.485-.097.974-.176 1.464-.245-.082.434-.171.867-.281 1.296l-.377-.479-.812.718-.001 1.933-.397.002v-2.081c.313-.27.625-.541.936-.814-.178-.11-.356-.219-.531-.331z"/>
    <path fill="#f4f9f4" d="M4.909 7.169c.073.167.144.335.213.504l.418-.01c.073-.161.148-.319.226-.478.019.398.016.801-.061 1.193a15.328 15.328 0 0 1-.149-.559l-.436-.003c-.065.19-.131.378-.204.564a6.62 6.62 0 0 1-.006-1.211z"/>
    <path fill="#8caec5" d="M10.235 8.322c.185-.41.389-.815.643-1.187.212.387.405.786.592 1.187-.396-.285-.841-.299-1.235 0z"/>
    <path fill="#bed1dc" d="M2.376 7.81c.07-.508.673-.249.851.056-.223.037-.446.071-.67.102.175.111.35.226.522.346-.308-.03-.855-.046-.703-.504z"/>
    <path fill="#79a0bd" d="M6.124 7.617c.243-.053.49-.096.737-.135.018.282.034.565.048.848-.297-.049-.789.04-.817-.385.156-.097.323-.175.488-.252l-.456-.075z"/>
    <path fill="#91b1c8" d="M6.484 9.493c.167-.477.733-.229.837.16-.215.037-.43.073-.645.107l.576.191c-.343.12-.946.045-.768-.457z"/>
    <path fill="#cfdde3" d="M7.528 9.221c.226.026.451.053.677.083l-.369.221c-.056.212-.117.423-.185.632a7.54 7.54 0 0 1-.124-.936z"/>
    <path fill="#8bacc5" d="M9.276 9.298c.275-.018.551-.024.826-.014l-.025.418-.531.054.567.198c-.526.21-.862-.13-.837-.655z"/>
    <path fill="#9ab9cb" d="M19.342 9.239c.312-.095.492.189.672.385-.22.05-.438.097-.658.144l.563.171c-.259.035-.52.056-.78.072.035-.259-.046-.598.203-.773z"/>
    <path fill="#f0ca00" d="M5.09 10.741c1.693-.023 3.39-.041 5.085.01.01.593.01 1.186-.001 1.778-1.697.03-3.395.032-5.09-.002a32.23 32.23 0 0 1 .007-1.786zm.473.293a21.13 21.13 0 0 0-.049 1.097l.25.014-.005-.581a8.1 8.1 0 0 0 .674.675c.027-.366.039-.733.048-1.1a20.059 20.059 0 0 1-.245-.01l.005.617a9.318 9.318 0 0 0-.678-.713zm1.319.259c.278.045.559.071.841.096-.337.181-.643.419-.854.744a9.08 9.08 0 0 0 1.178-.046 7.546 7.546 0 0 0-.739-.203c.241-.128.513-.235.678-.467-.249-.409-.745-.281-1.104-.125zm1.279-.052c.098.343.181.691.312 1.024.049-.382.062-.768.067-1.153a86.11 86.11 0 0 0-.379.13zm.562.086c.272.025.547.038.822.049-.329.192-.63.431-.838.754.387.009.775.002 1.163-.032-.243-.09-.492-.167-.739-.242l.585-.235.036-.408c-.349-.079-.715-.084-1.028.115z"/>
    <path fill="#c1121c" d="M17.531 10.77c1.33-.036 2.659-.017 3.989-.011.004.589.004 1.177 0 1.765-1.33.001-2.66.014-3.99-.007-.01-.582-.011-1.165.001-1.747zm.409 1.393c.229-.115.459-.229.697-.324.157.13.317.258.479.382a8.89 8.89 0 0 0-.574-1.162c-.23.351-.415.729-.602 1.104zm1.653-.965c.067.36.113.722.202 1.078.09-.376.085-.765.091-1.148l-.293.071zm.471.104c.304.022.611.025.914.062-.349.198-.702.412-.906.772.382.004.765-.006 1.142-.066-.289-.071-.583-.111-.877-.154.277-.137.556-.268.83-.408-.214-.458-.718-.407-1.104-.206z"/>
    <path fill="#c1121c" d="M18.499 11.455c.183-.047.252.278.072.322-.198.053-.245-.265-.072-.322z"/>
    <path fill="#403e2a" d="M5.563 11.034c.24.225.463.465.678.713l-.005-.617.245.01c-.009.367-.02.734-.048 1.1a8.1 8.1 0 0 1-.674-.675l.005.581a19.821 19.821 0 0 0-.25-.014 22.3 22.3 0 0 1 .049-1.097z"/>
    <path fill="#4d4927" d="M6.882 11.293c.359-.156.855-.284 1.104.125-.166.232-.437.338-.678.467.25.056.497.121.739.203a9.267 9.267 0 0 1-1.178.046c.211-.325.517-.563.854-.744a12.358 12.358 0 0 1-.841-.096z"/>
    <path fill="#424029" d="M8.161 11.241l.379-.13c-.005.385-.018.772-.067 1.153-.131-.333-.214-.681-.312-1.024z"/>
    <path fill="#504b26" d="M8.723 11.327c.313-.199.679-.194 1.028-.115l-.036.408-.585.235c.247.076.495.153.739.242-.387.035-.775.041-1.163.033.207-.323.509-.562.838-.754-.275-.011-.55-.024-.822-.049z"/>
</svg>
