<?xml version="1.0" encoding="utf-8"?>
<!-- Generated by IcoMoon.io -->
<!DOCTYPE svg PUBLIC "-//W3C//DTD SVG 1.1//EN" "http://www.w3.org/Graphics/SVG/1.1/DTD/svg11.dtd">
<svg version="1.1" xmlns="http://www.w3.org/2000/svg" xmlns:xlink="http://www.w3.org/1999/xlink" width="24" height="24" viewBox="0 0 24 24">
<path fill="#0303ff" d="M0 0.068h24v23.864h-23.953c-0.012-0.011-0.035-0.033-0.047-0.043v-23.821M6.728 3.951c0.898 1.669 1.989 3.233 2.941 4.873 0.462-0.19 0.937-0.35 1.424-0.464-0.289-1.471-0.576-2.944-0.872-4.414-1.165 0.001-2.329-0.005-3.493 0.004M10.416 3.947c0.289 1.463 0.579 2.925 0.865 4.389 0.555-0.062 1.113-0.060 1.669-0.009 0.239-1.463 0.526-2.919 0.784-4.38-1.105 0-2.212-0.001-3.318 0M13.127 8.359c0.548 0.117 1.070 0.324 1.588 0.534 0.934-1.657 1.886-3.304 2.841-4.951-1.208 0.008-2.416 0.001-3.624 0.004-0.273 1.47-0.537 2.941-0.804 4.412M17.702 4.052c-0.933 1.654-1.893 3.294-2.831 4.945 0.469 0.297 0.904 0.647 1.283 1.054 1.216-0.971 2.431-1.943 3.645-2.915-0.697-1.029-1.406-2.050-2.096-3.083M4.462 7.037c1.224 0.982 2.45 1.959 3.676 2.938 0.407-0.418 0.873-0.772 1.374-1.071-0.976-1.566-1.94-3.139-2.91-4.709-0.708 0.951-1.425 1.896-2.14 2.842M2.378 9.81c1.597 0.613 3.186 1.246 4.774 1.881 0.207-0.564 0.488-1.101 0.866-1.57-1.222-0.979-2.445-1.954-3.672-2.926-0.658 0.871-1.313 1.742-1.969 2.616M16.278 10.197c0.334 0.454 0.602 0.953 0.789 1.486 1.55-0.575 3.092-1.173 4.644-1.741-0.602-0.881-1.203-1.764-1.803-2.647-1.212 0.965-2.418 1.938-3.63 2.902M2.195 9.95c-0.023 1.177 0.016 2.355 0.018 3.532 1.589 0.001 3.178 0.001 4.767-0.001-0.011-0.54 0.022-1.081 0.122-1.612-1.637-0.636-3.257-1.317-4.907-1.919M17.121 11.867c0.1 0.533 0.138 1.074 0.156 1.615 1.538 0 3.077 0 4.614 0-0.015-1.131-0.014-2.262-0.039-3.391-1.578 0.587-3.155 1.181-4.731 1.776M2.216 13.673c0.011 1.041 0.019 2.084 0.031 3.125 1.578 0 3.157 0.001 4.735 0 0.001-1.041 0-2.083 0.001-3.124-1.589-0.004-3.178-0.001-4.767-0.001M17.271 13.673c0.001 1.041-0.001 2.084 0.003 3.127 1.55-0.001 3.1-0.001 4.649 0-0.007-1.043-0.020-2.084-0.028-3.127-1.542-0.001-3.082 0-4.624 0M2.248 16.991c0.009 0.988 0.014 1.977 0.031 2.965 1.569-0.007 3.136 0 4.705-0.003-0.004-0.987 0-1.976-0.003-2.963-1.578 0-3.155 0-4.734 0M17.261 16.998c0.014 0.99 0.023 1.98-0.007 2.968 1.566-0.027 3.134-0.005 4.7-0.011-0.008-0.988-0.020-1.976-0.027-2.963-1.555 0.001-3.111-0.009-4.666 0.005z"></path>
<path fill="#fff" d="M6.728 3.951c1.163-0.009 2.328-0.003 3.493-0.004 0.296 1.47 0.583 2.942 0.872 4.414-0.487 0.114-0.961 0.274-1.424 0.464-0.952-1.641-2.043-3.204-2.941-4.873z"></path>
<path fill="#fff" d="M10.416 3.947c1.106-0.001 2.213 0 3.318 0-0.258 1.46-0.545 2.917-0.784 4.38-0.556-0.050-1.115-0.053-1.669 0.009-0.286-1.464-0.576-2.926-0.865-4.389z"></path>
<path fill="#fff" d="M13.127 8.359c0.267-1.471 0.532-2.942 0.804-4.412 1.208-0.003 2.416 0.004 3.624-0.004-0.955 1.646-1.906 3.294-2.841 4.951-0.518-0.21-1.040-0.418-1.588-0.534z"></path>
<path fill="#fff" d="M17.702 4.052c0.69 1.033 1.399 2.054 2.096 3.083-1.214 0.972-2.428 1.944-3.645 2.915-0.378-0.407-0.814-0.757-1.283-1.054 0.938-1.652 1.898-3.291 2.831-4.945z"></path>
<path fill="#fff" d="M4.462 7.037c0.715-0.946 1.432-1.892 2.14-2.842 0.969 1.57 1.934 3.143 2.91 4.709-0.5 0.3-0.967 0.654-1.374 1.071-1.226-0.979-2.452-1.957-3.676-2.938z"></path>
<path fill="#fff" d="M2.378 9.81c0.656-0.873 1.311-1.745 1.969-2.616 1.227 0.972 2.45 1.947 3.672 2.926-0.378 0.469-0.659 1.006-0.866 1.57-1.588-0.635-3.177-1.268-4.774-1.881z"></path>
<path fill="#fff" d="M16.278 10.197c1.212-0.964 2.418-1.936 3.63-2.902 0.601 0.883 1.201 1.765 1.803 2.647-1.553 0.568-3.094 1.166-4.644 1.741-0.187-0.533-0.456-1.032-0.789-1.486z"></path>
<path fill="#fff" d="M2.195 9.95c1.65 0.602 3.271 1.283 4.907 1.919-0.1 0.532-0.133 1.073-0.122 1.612-1.589 0.003-3.178 0.003-4.767 0.001-0.001-1.177-0.041-2.355-0.018-3.532z"></path>
<path fill="#fff" d="M17.121 11.867c1.576-0.595 3.153-1.189 4.731-1.776 0.026 1.13 0.024 2.26 0.039 3.391-1.538 0-3.077 0-4.614 0-0.018-0.541-0.056-1.082-0.156-1.615z"></path>
<path fill="#fff" d="M2.216 13.673c1.589 0 3.178-0.003 4.767 0.001-0.001 1.041 0 2.083-0.001 3.124-1.578 0.001-3.157 0-4.735 0-0.012-1.041-0.020-2.084-0.031-3.125z"></path>
<path fill="#fff" d="M17.271 13.673c1.542 0 3.082-0.001 4.624 0 0.008 1.043 0.022 2.084 0.028 3.127-1.55-0.001-3.1-0.001-4.649 0-0.004-1.043-0.001-2.085-0.003-3.127z"></path>
<path fill="#fff" d="M2.248 16.991c1.578 0 3.155 0 4.734 0 0.003 0.987-0.001 1.976 0.003 2.963-1.569 0.003-3.136-0.004-4.705 0.003-0.018-0.988-0.022-1.977-0.031-2.965z"></path>
<path fill="#fff" d="M17.261 16.998c1.555-0.015 3.111-0.004 4.666-0.005 0.007 0.987 0.019 1.974 0.027 2.963-1.566 0.005-3.134-0.016-4.7 0.011 0.030-0.988 0.020-1.978 0.007-2.968z"></path>
<path fill="#fff" d="M0 23.889c0.012 0.011 0.035 0.033 0.047 0.043h-0.047v-0.043z"></path>
</svg>
