<?xml version="1.0" encoding="utf-8"?>
<!-- Generated by IcoMoon.io -->
<!DOCTYPE svg PUBLIC "-//W3C//DTD SVG 1.1//EN" "http://www.w3.org/Graphics/SVG/1.1/DTD/svg11.dtd">
<svg version="1.1" xmlns="http://www.w3.org/2000/svg" xmlns:xlink="http://www.w3.org/1999/xlink" width="24" height="24" viewBox="0 0 24 24">
<path fill="#0a6249" d="M2.908 0h18.234c0.569 1.992 0.957 4.041 1.085 6.111v2.714c-0.157 2.53-0.59 5.067-1.533 7.429-0.845 2.043-1.963 4.032-3.613 5.535-1.055 0.972-2.34 1.719-3.753 2.013-1.73 0.349-3.577-0.036-5.062-0.98-0.732-0.5-1.424-1.066-2.022-1.724-0.996-1.083-1.768-2.352-2.405-3.673-1.337-2.762-1.909-5.834-2.066-8.881v-2.086c0.076-1.435 0.239-2.867 0.557-4.27 0.168-0.735 0.308-1.483 0.578-2.189M9.504 1.588c-0.206 0.208-0.411 0.417-0.618 0.623 0.126 0.129 0.252 0.258 0.378 0.387-0.266 0.889-0.56 1.771-0.813 2.664-0.918-0.477-2.077-0.5-2.989 0.004-0.842 0.421-1.453 1.253-1.647 2.169-0.168 0.85-0.001 1.775 0.511 2.482 0.389 0.578 0.984 0.995 1.64 1.216 0.814 0.257 1.739 0.191 2.487-0.231 0.857-0.436 1.47-1.3 1.64-2.242 0.153-0.768-0.022-1.578-0.419-2.247-0.199-0.331-0.49-0.592-0.768-0.855 0.033-0.107 0.065-0.214 0.095-0.322 1.036 1.118 2.075 2.234 3.11 3.353-0.057 0.297 0.142 0.587 0.437 0.644 0.007 0.042 0.021 0.127 0.028 0.169 0.097 0.001 0.194 0.003 0.29 0.006-0.105-0.203 0.070-0.324 0.197-0.45 0.3-0.062 0.601-0.123 0.899-0.192 0.29 1.3 1.484 2.332 2.812 2.431 0.873 0.089 1.765-0.217 2.422-0.792 0.554-0.509 0.944-1.202 1.038-1.953 0.115-0.826-0.102-1.703-0.62-2.362-0.364-0.509-0.901-0.87-1.482-1.088-0.901-0.313-1.941-0.209-2.753 0.297-0.335-0.424-0.661-0.856-0.989-1.286 0.045-0.157 0.090-0.314 0.132-0.472 0.391-0.15 0.837-0.303 1.066-0.679-0.058-0.153-0.254-0.136-0.388-0.15-0.624 0.022-1.246 0.095-1.871 0.1-0.207 0.007-0.432 0.020-0.584 0.181 0.319 0.345 0.82 0.382 1.257 0.453-0.031 0.089-0.061 0.177-0.089 0.267-1.48 0-2.961 0-4.442 0 0.138-0.386 0.249-0.781 0.387-1.167-0.113-0.112-0.227-0.222-0.342-0.333 0.057-0.057 0.115-0.115 0.173-0.173 0.394 0 0.787 0.002 1.182-0.001-0.001-0.149-0.001-0.298 0-0.447-0.456-0.004-0.912 0.001-1.367-0.003M10.524 13.045c-0.52 0.509-0.726 1.237-0.854 1.932 0.472 0.099 0.944 0.194 1.416 0.294 0.044-0.389 0.138-0.811 0.445-1.081 0.293-0.281 0.797-0.299 1.102-0.027 0.275 0.237 0.353 0.625 0.333 0.972-0.011 0.353-0.148 0.723-0.444 0.934-0.237 0.181-0.541 0.225-0.831 0.237-0.053 0.507-0.109 1.013-0.165 1.52 0.351-0.098 0.749-0.22 1.096-0.041 0.421 0.223 0.626 0.706 0.661 1.163 0.048 0.572-0.031 1.225-0.473 1.637-0.327 0.322-0.894 0.337-1.238 0.033-0.36-0.289-0.48-0.762-0.532-1.2-0.495 0.072-0.989 0.145-1.483 0.22 0.061 0.455 0.15 0.914 0.365 1.325 0.318 0.642 0.902 1.165 1.604 1.342 0.594 0.153 1.249 0.109 1.795-0.185 0.794-0.424 1.338-1.246 1.494-2.125 0.112-0.711 0.089-1.489-0.297-2.119-0.253-0.432-0.672-0.756-1.152-0.897 0.485-0.329 0.902-0.795 1.059-1.37 0.341-1.182-0.297-2.619-1.475-3.046-0.813-0.271-1.799-0.134-2.424 0.482z"></path>
<path fill="#0a6249" d="M9.313 4.246c1.48 0.006 2.959 0.005 4.439 0.001-0.406 1.278-0.793 2.562-1.203 3.839-0.020-0.222-0.057-0.442-0.104-0.661 0.201 0.101 0.256-0.076 0.27-0.239-0.27-0.011-0.54-0.008-0.809-0.005 0.001 0.065 0.001 0.193 0.002 0.258 0.078 0.002 0.157 0.005 0.236 0.007 0.036 0.176 0.080 0.35 0.121 0.524-1.022-1.113-2.053-2.218-3.076-3.331 0.043-0.13 0.082-0.261 0.123-0.392z"></path>
<path fill="#0a6249" d="M14.203 4.587c0.26 0.335 0.51 0.68 0.775 1.012-0.759 0.652-1.188 1.664-1.098 2.664-0.295 0.063-0.59 0.126-0.886 0.181 0.411-1.283 0.82-2.568 1.21-3.857z"></path>
<path fill="#0a6249" d="M15.736 5.759c0.802-0.447 1.84-0.474 2.635 0.001 0.52 0.269 0.876 0.767 1.12 1.285 0.233 0.531 0.243 1.15 0.091 1.703-0.227 0.652-0.666 1.265-1.298 1.574-0.522 0.293-1.145 0.348-1.728 0.256-0.968-0.189-1.79-0.975-2.030-1.93 0.748-0.162 1.497-0.324 2.247-0.481 0.155-0.034 0.318-0.069 0.445-0.17 0.071-0.128 0.010-0.285-0.074-0.391-0.467-0.617-0.95-1.223-1.407-1.847z"></path>
<path fill="#0a6249" d="M6.217 5.584c0.67-0.194 1.41-0.102 2.022 0.229-0.2 0.614-0.56 1.167-0.982 1.651-0.15 0.178-0.37 0.263-0.562 0.383-0.166 0.125-0.142 0.346-0.059 0.512 0.142 0.031 0.292 0.099 0.439 0.050 0.145-0.080 0.182-0.252 0.266-0.382 0.076-0.104 0.172-0.192 0.262-0.283 0.468-0.451 0.861-0.989 1.103-1.595 0.533 0.509 0.857 1.224 0.855 1.964 0.020 0.723-0.359 1.39-0.843 1.9-0.482 0.424-1.114 0.69-1.762 0.673-0.65 0.021-1.292-0.238-1.775-0.667-0.334-0.339-0.603-0.75-0.753-1.203-0.215-0.75-0.086-1.597 0.391-2.222 0.314-0.504 0.838-0.839 1.397-1.011z"></path>
<path fill="#0a6249" d="M14.439 8.144c0.007-0.777 0.294-1.562 0.892-2.077 0.412 0.55 0.83 1.097 1.246 1.645-0.715 0.134-1.423 0.297-2.138 0.432z"></path>
<path fill="#fffffe" d="M9.504 1.588c0.455 0.003 0.911-0.001 1.367 0.003-0.001 0.149-0.001 0.298 0 0.447-0.394 0.003-0.787 0.001-1.182 0.001-0.057 0.058-0.115 0.116-0.173 0.173 0.115 0.11 0.228 0.221 0.342 0.333-0.138 0.386-0.249 0.781-0.387 1.167 1.481 0 2.962 0 4.442 0 0.029-0.089 0.059-0.178 0.089-0.267-0.436-0.071-0.938-0.108-1.257-0.453 0.152-0.16 0.377-0.174 0.584-0.181 0.625-0.005 1.247-0.078 1.871-0.1 0.134 0.014 0.33-0.003 0.388 0.15-0.23 0.376-0.676 0.529-1.066 0.679-0.042 0.158-0.087 0.315-0.132 0.473 0.328 0.43 0.653 0.862 0.989 1.286 0.812-0.507 1.852-0.61 2.753-0.297 0.581 0.218 1.117 0.579 1.482 1.088 0.518 0.659 0.735 1.535 0.62 2.362-0.093 0.751-0.483 1.443-1.038 1.953-0.657 0.575-1.548 0.882-2.422 0.792-1.328-0.1-2.521-1.132-2.812-2.431-0.299 0.069-0.599 0.13-0.899 0.192-0.127 0.126-0.302 0.248-0.197 0.45-0.097-0.003-0.194-0.005-0.29-0.006-0.007-0.042-0.021-0.127-0.028-0.169-0.295-0.057-0.494-0.347-0.437-0.644-1.035-1.12-2.075-2.235-3.11-3.353-0.031 0.108-0.062 0.215-0.095 0.322 0.279 0.263 0.569 0.524 0.768 0.855 0.397 0.668 0.572 1.479 0.419 2.247-0.17 0.942-0.783 1.806-1.64 2.242-0.749 0.422-1.673 0.488-2.487 0.231-0.656-0.222-1.251-0.638-1.64-1.216-0.513-0.706-0.68-1.632-0.511-2.482 0.194-0.916 0.805-1.748 1.647-2.169 0.912-0.504 2.071-0.481 2.989-0.004 0.254-0.893 0.547-1.775 0.813-2.664-0.126-0.129-0.252-0.258-0.378-0.387 0.207-0.207 0.413-0.415 0.618-0.623M9.313 4.246c-0.041 0.131-0.080 0.262-0.123 0.392 1.023 1.113 2.054 2.218 3.076 3.331-0.042-0.175-0.085-0.348-0.121-0.524-0.078-0.002-0.157-0.005-0.236-0.007-0.001-0.065-0.001-0.193-0.002-0.258 0.269-0.003 0.539-0.005 0.809 0.005-0.014 0.163-0.069 0.34-0.27 0.239 0.046 0.218 0.083 0.438 0.104 0.661 0.41-1.277 0.797-2.561 1.203-3.839-1.48 0.004-2.959 0.005-4.439-0.001M14.203 4.587c-0.389 1.289-0.798 2.574-1.21 3.857 0.297-0.055 0.591-0.117 0.886-0.181-0.090-1 0.34-2.012 1.098-2.664-0.265-0.333-0.515-0.677-0.775-1.012M15.736 5.759c0.457 0.625 0.94 1.23 1.407 1.847 0.084 0.106 0.145 0.262 0.074 0.391-0.127 0.102-0.29 0.136-0.445 0.17-0.75 0.157-1.499 0.318-2.247 0.481 0.241 0.955 1.062 1.741 2.030 1.93 0.583 0.092 1.205 0.037 1.728-0.256 0.632-0.308 1.071-0.922 1.298-1.574 0.153-0.554 0.143-1.172-0.091-1.703-0.243-0.518-0.6-1.016-1.12-1.285-0.795-0.475-1.833-0.448-2.635-0.001M6.217 5.584c-0.559 0.173-1.083 0.507-1.397 1.011-0.477 0.625-0.605 1.472-0.391 2.222 0.151 0.453 0.419 0.864 0.753 1.203 0.483 0.429 1.124 0.688 1.775 0.667 0.648 0.017 1.28-0.249 1.762-0.673 0.485-0.509 0.864-1.177 0.843-1.9 0.002-0.74-0.322-1.456-0.855-1.964-0.242 0.606-0.635 1.143-1.103 1.595-0.091 0.091-0.186 0.179-0.262 0.283-0.084 0.13-0.121 0.301-0.266 0.382-0.147 0.049-0.297-0.019-0.439-0.050-0.084-0.166-0.107-0.387 0.059-0.512 0.192-0.121 0.412-0.205 0.562-0.383 0.422-0.485 0.782-1.037 0.982-1.651-0.612-0.331-1.352-0.423-2.022-0.229M14.439 8.144c0.715-0.134 1.424-0.298 2.138-0.432-0.416-0.548-0.834-1.095-1.246-1.645-0.598 0.515-0.885 1.3-0.892 2.077z"></path>
<path fill="#fffffe" d="M10.524 13.045c0.625-0.616 1.61-0.753 2.424-0.482 1.178 0.427 1.816 1.863 1.475 3.046-0.157 0.575-0.573 1.042-1.059 1.37 0.48 0.141 0.899 0.465 1.152 0.897 0.385 0.63 0.409 1.408 0.297 2.119-0.155 0.879-0.7 1.7-1.494 2.125-0.545 0.294-1.201 0.337-1.795 0.185-0.702-0.178-1.286-0.701-1.604-1.343-0.215-0.41-0.304-0.869-0.365-1.325 0.494-0.075 0.988-0.148 1.483-0.22 0.053 0.438 0.173 0.911 0.532 1.2 0.344 0.303 0.911 0.288 1.238-0.033 0.442-0.412 0.521-1.065 0.473-1.637-0.035-0.456-0.239-0.94-0.661-1.163-0.346-0.179-0.745-0.057-1.096 0.041 0.056-0.507 0.112-1.013 0.165-1.52 0.29-0.012 0.595-0.057 0.831-0.237 0.296-0.211 0.433-0.581 0.444-0.934 0.020-0.348-0.057-0.735-0.333-0.972-0.305-0.271-0.809-0.254-1.103 0.027-0.307 0.271-0.4 0.692-0.445 1.081-0.472-0.1-0.944-0.195-1.416-0.294 0.128-0.695 0.334-1.423 0.854-1.932z"></path>
</svg>
