<!-- Generated by IcoMoon.io -->
<svg version="1.1" xmlns="http://www.w3.org/2000/svg" width="24" height="24" viewBox="0 0 24 24">
<title>information--equestrians-permitted--g1</title>
<path fill="#fff" d="M0 0h0.901c-0.501 0.24-0.832 0.734-0.901 1.282v-1.282z"></path>
<path fill="#fff" d="M23.42 0h0.779v0.761c-0.195-0.313-0.448-0.591-0.779-0.761z"></path>
<path fill="#fff" d="M0.199 1.525c-0.001-0.672 0.487-1.356 1.193-1.39 7.16-0.005 14.321 0.001 21.482-0.003 0.582-0.001 1.122 0.484 1.191 1.058 0.004 7.205-0.001 14.411 0.002 21.617 0.015 0.604-0.528 1.048-1.066 1.193h-21.737c-0.31-0.126-0.641-0.281-0.817-0.582-0.275-0.415-0.253-0.935-0.248-1.412 0.002-6.826 0-13.653 0.001-20.48M1.287 0.622c-0.371 0.103-0.616 0.459-0.622 0.837-0.003 7.027 0.001 14.054-0.001 21.081-0.020 0.464 0.288 0.987 0.794 0.995 7.116 0 14.232 0.001 21.348-0.001 0.394 0.001 0.783-0.326 0.796-0.727-0.001-7.161 0-14.322-0.001-21.482-0.005-0.385-0.342-0.722-0.727-0.727-7.116-0.001-14.231 0.003-21.347-0.002-0.082-0.003-0.162 0.006-0.24 0.026z"></path>
<path fill="#fff" d="M11.79 4.142c0.29-0.057 0.686-0.065 0.842 0.241 0.252 0.338 0.153 0.921-0.264 1.073-0.292 0.134-0.689 0.092-0.883-0.187-0.253-0.359-0.146-0.976 0.304-1.126z"></path>
<path fill="#fff" d="M12.616 5.396c0.027-0.004 0.082-0.011 0.109-0.015 0.733 0.97 0.86 2.253 0.701 3.422 0.34 0.226 0.697 0.499 1.134 0.443 0.881-0.074 1.806-0.178 2.659 0.128 0.788 0.281 1.378 1.165 1.152 2.006-0.183 0.709 0.067 1.435 0.406 2.056-0.539 0.084-0.944-0.331-1.207-0.745-0.032 0.043-0.064 0.087-0.095 0.13 0.213 0.398 0.404 0.845 0.805 1.091 0.033 0.887 0.154 1.777 0.427 2.624 0.082 0.092 0.206 0.127 0.312 0.185 0.017 0.269-0.023 0.537-0.138 0.782-0.241-0.283-0.661-0.39-0.777-0.772-0.227-0.329-0.347-0.706-0.348-1.108 0.024-0.34-0.196-0.626-0.223-0.958-0.582-0.49-1.104-1.053-1.701-1.523-0.27 0.482-0.323 1.040-0.365 1.579-0.419 0.624-0.89 1.266-0.99 2.033-0.104 0.056-0.21 0.109-0.316 0.161 0.001 0.079 0.002 0.158 0.003 0.237-0.293 0.211-0.658 0.124-0.982 0.054-0.060-0.063-0.12-0.126-0.18-0.189 0.334-0.386 0.811-0.674 0.978-1.178 0.138-0.497 0.376-0.963 0.457-1.477 0.126-0.527 0.034-1.068-0.014-1.597-0.899 0.484-1.95 0.406-2.934 0.465 0.035 0.941 0.4 1.861 1.092 2.512 0.18 0.295 0.451 0.53 0.582 0.853-0.23 0.229-0.46 0.458-0.731 0.639-0.114-0.246-0.151-0.514-0.136-0.782-0.286-0.347-0.622-0.637-0.943-0.947-0.469-0.702-0.958-1.397-1.295-2.177-0.356 0.285-0.652 0.672-0.703 1.138-0.529 0.631-0.967 1.39-1.058 2.221-0.043 0-0.128-0.001-0.17-0.001-0.164 0.162-0.295 0.361-0.303 0.598-0.354-0.001-0.708 0.002-1.062-0.003 0.108-0.501 0.656-0.715 0.818-1.194 0.295-0.792 0.832-1.505 0.896-2.368 0.053-0.443 0.199-0.911 0.031-1.347-0.094-0.251-0.144-0.515-0.223-0.771-0.14-0.291-0.403-0.492-0.624-0.719-0.461 0.277-0.911 0.568-1.353 0.874-0.269 0.221-0.687 0.203-0.942-0.033-0.325-0.195-0.897-0.319-0.777-0.824 0.231-0.82 0.645-1.584 0.931-2.389-0.137-0.206-0.145-0.452-0.134-0.691 0.070 0.033 0.141 0.066 0.211 0.1 0.024-0.018 0.072-0.055 0.096-0.072 0.175 0.126 0.32 0.283 0.445 0.458 1.164 0.082 2.296 0.427 3.436 0.669 0.154-0.1 0.285-0.231 0.433-0.338 0.118 0.122 0.238 0.243 0.361 0.36-0.027 0.051-0.055 0.101-0.081 0.152 0.089 0.023 0.178 0.046 0.267 0.070 0.33-0.146 0.65-0.321 0.886-0.602-0.001-0.106-0.001-0.212 0-0.318-0.306 0.221-0.628 0.422-0.908 0.677-0.181-0.126-0.34-0.279-0.497-0.433 0.472-0.481 1.035-0.862 1.59-1.24 0.074-0.576 0.218-1.14 0.348-1.705 0.229-0.007 0.461-0.060 0.647-0.202M6.628 10.498c-0.287 0.311-0.739 0.406-0.975 0.769-0.002 0.041-0.005 0.121-0.007 0.162 0.453 0.234 0.828-0.195 1.189-0.406 0.134-0.118 0.367-0.169 0.42-0.352-0.187-0.122-0.403-0.187-0.627-0.174M5.543 11.606c0.189 0.16 0.42 0.201 0.624 0.046-0.208-0.017-0.416-0.028-0.624-0.046z"></path>
<path fill="#fff" d="M0 22.858c0.078 0.461 0.314 0.888 0.717 1.142h-0.717v-1.142z"></path>
<path fill="#fff" d="M23.629 24c0.235-0.203 0.457-0.432 0.57-0.727v0.727h-0.57z"></path>
<path fill="#231f20" d="M0.901 0h22.519c0.331 0.17 0.584 0.448 0.779 0.761v22.511c-0.113 0.295-0.336 0.525-0.57 0.727h-0.628c0.538-0.145 1.082-0.589 1.066-1.193-0.003-7.205 0.002-14.411-0.002-21.617-0.068-0.574-0.608-1.059-1.191-1.058-7.161 0.003-14.322-0.003-21.482 0.003-0.706 0.035-1.195 0.718-1.193 1.39-0.001 6.827 0.001 13.654-0.001 20.48-0.005 0.477-0.027 0.997 0.248 1.412 0.176 0.302 0.507 0.457 0.817 0.582h-0.546c-0.403-0.254-0.639-0.681-0.717-1.142v-21.576c0.068-0.548 0.4-1.042 0.901-1.282z"></path>
<path fill="#006f51" d="M1.287 0.622c0.078-0.020 0.158-0.029 0.24-0.026 7.116 0.005 14.231 0.001 21.347 0.002 0.385 0.005 0.723 0.342 0.727 0.727 0.001 7.161-0.001 14.322 0.001 21.482-0.013 0.401-0.402 0.728-0.796 0.727-7.116 0.001-14.232 0.001-21.348 0.001-0.506-0.008-0.814-0.531-0.794-0.995 0.002-7.027-0.001-14.054 0.001-21.081 0.005-0.378 0.251-0.734 0.622-0.837M11.79 4.142c-0.45 0.15-0.558 0.767-0.304 1.126 0.193 0.279 0.591 0.321 0.883 0.187 0.417-0.152 0.516-0.735 0.264-1.073-0.156-0.306-0.552-0.297-0.842-0.241M12.616 5.396c-0.185 0.142-0.418 0.195-0.647 0.202-0.13 0.565-0.274 1.13-0.348 1.705-0.554 0.378-1.118 0.759-1.59 1.24 0.157 0.154 0.315 0.307 0.497 0.433 0.28-0.255 0.602-0.456 0.908-0.677-0.001 0.106-0.001 0.211 0 0.318-0.235 0.281-0.555 0.456-0.886 0.602-0.088-0.025-0.178-0.048-0.267-0.070 0.027-0.051 0.054-0.102 0.081-0.152-0.123-0.118-0.243-0.238-0.361-0.36-0.149 0.106-0.279 0.238-0.433 0.338-1.14-0.242-2.272-0.587-3.436-0.669-0.124-0.176-0.27-0.332-0.445-0.458-0.024 0.018-0.072 0.055-0.096 0.072-0.070-0.034-0.141-0.067-0.211-0.1-0.011 0.239-0.003 0.485 0.134 0.691-0.287 0.805-0.701 1.569-0.931 2.389-0.12 0.505 0.452 0.63 0.777 0.824 0.255 0.235 0.673 0.253 0.942 0.033 0.441-0.306 0.892-0.597 1.353-0.874 0.221 0.227 0.483 0.428 0.624 0.719 0.078 0.256 0.128 0.52 0.223 0.771 0.168 0.436 0.023 0.903-0.031 1.347-0.064 0.863-0.6 1.576-0.896 2.368-0.162 0.479-0.709 0.693-0.818 1.194 0.354 0.005 0.708 0.002 1.062 0.003 0.009-0.237 0.139-0.437 0.303-0.598 0.043 0 0.128 0.001 0.17 0.001 0.091-0.831 0.529-1.59 1.058-2.221 0.051-0.466 0.346-0.854 0.703-1.138 0.337 0.78 0.826 1.475 1.295 2.177 0.322 0.31 0.658 0.6 0.943 0.947-0.015 0.269 0.023 0.537 0.136 0.782 0.271-0.181 0.501-0.41 0.731-0.639-0.132-0.323-0.403-0.558-0.582-0.853-0.691-0.652-1.057-1.571-1.092-2.512 0.984-0.059 2.035 0.019 2.934-0.465 0.048 0.529 0.14 1.070 0.014 1.597-0.081 0.513-0.319 0.979-0.457 1.477-0.167 0.504-0.644 0.792-0.978 1.178 0.060 0.062 0.12 0.126 0.18 0.189 0.324 0.070 0.689 0.158 0.982-0.054-0.001-0.079-0.002-0.158-0.003-0.237 0.106-0.052 0.212-0.105 0.316-0.161 0.1-0.767 0.571-1.409 0.99-2.033 0.042-0.539 0.095-1.097 0.365-1.579 0.598 0.47 1.119 1.033 1.701 1.523 0.027 0.332 0.247 0.618 0.223 0.958 0.001 0.402 0.12 0.778 0.348 1.108 0.116 0.382 0.536 0.489 0.777 0.772 0.114-0.245 0.154-0.513 0.138-0.782-0.106-0.058-0.23-0.094-0.312-0.185-0.274-0.847-0.395-1.737-0.427-2.624-0.401-0.246-0.592-0.693-0.805-1.091 0.031-0.043 0.063-0.087 0.095-0.13 0.263 0.414 0.669 0.829 1.207 0.745-0.338-0.621-0.589-1.348-0.406-2.056 0.226-0.84-0.364-1.725-1.152-2.006-0.853-0.306-1.778-0.203-2.659-0.128-0.437 0.057-0.794-0.217-1.134-0.443 0.16-1.169 0.033-2.452-0.701-3.422-0.027 0.004-0.082 0.011-0.109 0.015z"></path>
<path fill="#006f51" d="M6.628 10.498c0.224-0.014 0.439 0.052 0.627 0.174-0.053 0.183-0.286 0.234-0.42 0.352-0.362 0.21-0.736 0.64-1.189 0.406 0.002-0.041 0.005-0.121 0.007-0.162 0.237-0.364 0.689-0.458 0.975-0.769z"></path>
<path fill="#006f51" d="M5.543 11.606c0.208 0.018 0.416 0.029 0.624 0.046-0.204 0.156-0.435 0.114-0.624-0.046z"></path>
</svg>
