<svg xmlns="http://www.w3.org/2000/svg" width="24" height="24">
    <path fill="#ebf4ff" d="M0 2.069h1.172c-.521.433-.993.967-1.099 1.663L0 4.009V2.068zM9.842 14.924c.108-.004.324-.014.434-.017.187.281.38.56.569.842l-.486-.055c-.173-.256-.346-.511-.517-.769z"/>
    <path fill="#2940a4" d="M1.172 2.069h21.439c.382.266.702.606.987.969v18.893H-.001v-5.947c.2-4.073.411-8.185.073-12.252.106-.696.578-1.231 1.099-1.663zm7.9 4.169C6.287 7.2 3.919 9.31 2.61 11.947c-.966 2.11-1.298 4.454-1.282 6.757.584-.002 1.17.002 1.754.002.263-1.636.32-3.318.786-4.917.832-2.366 2.399-4.527 4.507-5.906 2.336-1.493 5.51-1.086 7.642.582 2.946 2.508 4.486 6.396 4.481 10.224.623 0 1.245-.002 1.868-.004.181-3.75-1.259-7.606-4.055-10.151-2.398-2.33-6.036-3.152-9.241-2.297zM7.039 13.28c-.254 2.259-1.725 4.204-3.615 5.394.616.024 1.231.027 1.849.037 1.092-1.373 1.692-3.05 1.909-4.781.657.006 1.313.01 1.97.027.126.159.252.319.376.482l-.031-.517c3.298.002 6.293 2.057 8.562 4.313.545.694 1.485.401 2.24.427a19.452 19.452 0 0 0-8.989-4.734c-.161-1.259-.924-2.622-2.254-2.873-1.235-.1-1.933 1.154-2.018 2.225zm2.803 1.644c.171.257.344.513.517.769l.486.055c-.189-.281-.382-.56-.569-.842-.11.004-.326.014-.434.017zm.956 1.634c.13.242.25.49.36.742.183-.014.545-.037.727-.049a11.115 11.115 0 0 1-.444-.714c-.161.004-.484.016-.643.022zm.661 1.578c-.061.722.689.533 1.149.563-.071-.643-.673-.533-1.149-.563z"/>
    <path fill="#ecf7e9" d="M22.611 2.069h.987v.969c-.286-.364-.606-.704-.987-.969z"/>
    <path fill="#6771a7" d="M0 4.01l.073-.277C.411 7.8.2 11.912 0 15.985V4.011z"/>
    <path fill="#f9fbfa" d="M9.072 6.238c3.205-.856 6.843-.033 9.241 2.297 2.796 2.545 4.236 6.401 4.055 10.151-.623.002-1.245.004-1.868.004.004-3.829-1.536-7.716-4.481-10.224-2.132-1.668-5.306-2.075-7.642-.582-2.108 1.379-3.675 3.54-4.507 5.906-.466 1.599-.523 3.281-.786 4.917-.584 0-1.17-.004-1.754-.002-.016-2.303.317-4.647 1.282-6.757C3.922 9.31 6.29 7.201 9.074 6.239z"/>
    <path fill="#f7fbf9" d="M7.039 13.28c.084-1.07.783-2.325 2.018-2.225 1.329.252 2.092 1.615 2.254 2.873a19.443 19.443 0 0 1 8.989 4.734c-.755-.026-1.695.267-2.24-.427-2.269-2.256-5.264-4.311-8.562-4.313l.031.517c-.124-.163-.25-.323-.376-.482-.657-.017-1.313-.022-1.97-.027-.218 1.73-.818 3.408-1.909 4.781-.617-.01-1.233-.014-1.849-.037 1.89-1.19 3.361-3.135 3.615-5.394z"/>
    <path fill="#bed9f2" d="M10.798 16.558l.643-.022c.137.242.287.48.444.714l-.727.049c-.11-.252-.23-.5-.36-.742z"/>
    <path fill="#b8d4f2" d="M11.459 18.136c.476.03 1.078-.08 1.149.563-.46-.03-1.209.159-1.149-.563z"/>
</svg>
