<svg xmlns="http://www.w3.org/2000/svg" width="24" height="24">
    <path fill="#c0111e" d="M10.981 0h2.017c1.381.208 2.768.486 4.034 1.096 3.894 1.734 6.564 5.676 6.967 9.893v1.997c-.203 1.384-.491 2.768-1.098 4.038-1.732 3.893-5.669 6.565-9.882 6.977h-2.02c-1.378-.206-2.76-.49-4.024-1.097C3.08 21.172.404 17.232-.002 13.015v-2.008c.389-4.225 3.068-8.176 6.967-9.912C8.225.488 9.605.212 10.979.001zm-.013 2.339a9.7 9.7 0 0 0-6.253 3.217c-2.689 2.968-3.2 7.638-1.234 11.124 1.738 3.25 5.452 5.293 9.13 5.011 3.697-.181 7.141-2.698 8.443-6.162 1.099-2.803.809-6.114-.799-8.665-1.89-3.13-5.659-4.949-9.287-4.525z"/>
    <path fill="#fff" d="M10.968 2.339c3.628-.424 7.397 1.396 9.287 4.525 1.608 2.551 1.898 5.862.799 8.665-1.302 3.464-4.746 5.981-8.443 6.162-3.678.282-7.392-1.762-9.13-5.011-1.967-3.486-1.456-8.156 1.234-11.124a9.7 9.7 0 0 1 6.253-3.217zM4.226 7.188c-.016 2.453.012 4.907.019 7.36l-.21.21c.002.33.002.659.005.989.26.138.527.263.799.376-.002.558-.023 1.12.034 1.676.355.011.71.011 1.064-.005.055-.551 0-1.106.067-1.655.062.55.016 1.103.064 1.654.354.016.709.017 1.063.008.059-.506.037-1.016.048-1.525a3.381 3.381 0 0 0 3.658-.001c.016.506-.004 1.014.043 1.52.364-.049.894.185 1.127-.18.061-.491-.002-.989.048-1.481.062.55.019 1.104.025 1.656.348-.018.758.113 1.067-.067.079-.53.02-1.069.035-1.604.836-.066 1.061-.995.606-1.602-.025-2.442.032-4.886.006-7.328.025-.625-.618-1.046-1.194-1.002-2.4-.002-4.8-.005-7.2 0-.57-.04-1.201.386-1.174 1.002zm11.536 5.105c-.478.066-.408.835.079.81.565.026.486-.972-.079-.81zm3.014.365c-.508.265.018 1.022.452.691.433-.268-.031-1.007-.452-.691zm-3.298 1.741c-.251.235-.922.316-.79.732.509-.143 1.091-.31 1.304-.853.107.274.216.545.326.817-.629.766-.863 1.744-1.021 2.7l.402-.023c.245-.683.426-1.409.89-1.986.289.654.448 1.37.811 1.987.128-.024.253-.059.377-.102-.23-.728-.478-1.451-.708-2.179.359-.487.01-1.056-.146-1.549l.416.124c.104.376-.102.978.343 1.148.023-.484.013-.967.014-1.451-.455-.211-.896-.458-1.375-.613-.668.018-.688.768-.845 1.248zm3.23-.852c-.396.557-.655 1.213-.882 1.854.412-.233.595-.686.846-1.061.017.568-.3 1.038-.565 1.508l.307.071c-.236.565-.469 1.224-.251 1.822.078.239.382-.058.324-.224a3.37 3.37 0 0 1 .376-1.495c.002.293-.001.584-.007.877.313.299.595.658 1.016.81.036-.407-.306-.668-.535-.952l.07-.724.529-.002a104.4 104.4 0 0 0-.352-1.079c.721-.304.169-1.103-.25-1.428-.209.01-.418.018-.626.023z"/>
    <path fill="#fff" d="M5.315 7.228c2.171-.16 4.38-.019 6.565-.071.368.008.983-.091 1.063.407.04.96.026 1.924.008 2.885.005.304-.302.492-.581.455-2.248.001-4.495.002-6.743-.001-.28.036-.571-.169-.562-.466-.029-.799.001-1.6-.013-2.399.008-.281-.046-.662.262-.81z"/>
    <path d="M4.226 7.188c-.028-.616.604-1.042 1.174-1.002 2.4-.005 4.8-.002 7.2 0 .576-.044 1.219.377 1.194 1.002.026 2.442-.031 4.886-.006 7.328.455.607.23 1.536-.606 1.602-.014.535.044 1.074-.035 1.604-.308.18-.719.049-1.067.067-.006-.552.037-1.106-.025-1.656-.05.492.013.99-.048 1.481-.233.365-.763.131-1.127.18-.047-.506-.028-1.014-.043-1.52a3.381 3.381 0 0 1-3.658.001c-.011.509.011 1.019-.048 1.525-.354.008-.709.007-1.063-.008-.048-.551-.001-1.104-.064-1.654-.067.548-.012 1.104-.067 1.655a13.98 13.98 0 0 1-1.064.005c-.056-.557-.036-1.118-.034-1.676a9.379 9.379 0 0 1-.799-.376c-.002-.33-.002-.659-.005-.989l.21-.21c-.007-2.453-.035-4.907-.019-7.36zm1.089.04c-.307.148-.253.529-.262.81.014.799-.016 1.6.013 2.399-.01.296.282.502.562.466 2.248.004 4.495.002 6.743.001.278.037.586-.151.581-.455.018-.961.031-1.925-.008-2.885-.08-.498-.695-.398-1.063-.407-2.185.052-4.394-.089-6.565.071zM15.762 12.293c.565-.162.644.836.079.81-.487.025-.557-.744-.079-.81zM18.776 12.658c.421-.316.886.424.452.691-.434.331-.96-.426-.452-.691zM15.478 14.399c.157-.48.176-1.23.845-1.248.479.155.92.402 1.375.613-.001.484.008.967-.014 1.451-.445-.17-.239-.773-.343-1.148l-.416-.124c.156.493.505 1.062.146 1.549.23.728.478 1.451.708 2.179a2.592 2.592 0 0 1-.377.102c-.364-.617-.522-1.333-.811-1.987-.464.577-.646 1.303-.89 1.986l-.402.023c.158-.956.392-1.934 1.021-2.7-.11-.272-.22-.544-.326-.817-.214.544-.796.71-1.304.853-.132-.416.539-.497.79-.732zM18.708 13.547c.209-.005.418-.013.626-.023.419.325.971 1.124.25 1.428.119.359.236.719.352 1.079l-.529.002-.07.724c.229.283.571.545.535.952-.421-.152-.703-.511-1.016-.81.006-.293.01-.584.007-.877a3.384 3.384 0 0 0-.376 1.495c.058.167-.246.463-.324.224-.218-.598.014-1.256.251-1.822l-.307-.071c.265-.47.582-.941.565-1.508-.251.374-.434.828-.846 1.061.227-.641.486-1.297.882-1.854z"/>
</svg>
