<!-- Generated by IcoMoon.io -->
<svg version="1.1" xmlns="http://www.w3.org/2000/svg" width="24" height="24" viewBox="0 0 24 24">
<title>information--camera--g3</title>
<path fill="#003f9b" opacity="0.91" d="M0 0h24v0.8l-0.010 0.136c-0.176-0.503-0.621-0.942-1.189-0.894-7.201 0-14.401-0.001-21.601 0-0.568-0.046-1.007 0.395-1.186 0.894l-0.014-0.141v-0.795z"></path>
<path fill="#fff" d="M0.014 0.936c0.179-0.499 0.618-0.94 1.186-0.894 7.2-0.001 14.4 0 21.601 0 0.568-0.048 1.013 0.391 1.189 0.894-0.059 7.32 0.004 14.644-0.031 21.964 0.005 0.606-0.563 1.106-1.159 1.066-7.2 0.005-14.4 0.005-21.599 0-0.594 0.036-1.16-0.462-1.153-1.065-0.033-7.321 0.035-14.645-0.034-21.965M0.925 0.631c-0.313 0.113-0.366 0.48-0.356 0.769 0.010 7.135-0.007 14.269 0.009 21.403-0.031 0.397 0.348 0.678 0.722 0.634 7.167-0.004 14.335 0.006 21.502-0.005 0.399 0.026 0.68-0.356 0.639-0.732 0.001-7.133 0.001-14.267 0-21.401 0.039-0.372-0.24-0.753-0.638-0.72-7.134-0.013-14.269 0.003-21.403-0.008-0.159 0.006-0.324 0.003-0.475 0.060z"></path>
<path fill="#fff" d="M17.737 2.744c0.274-0.193 0.62-0.004 0.741 0.273 0.917 1.616 1.846 3.226 2.761 4.843 0.2 0.26 0.078 0.634-0.211 0.765-4.054 2.315-8.108 4.63-12.162 6.944-0.245 0.178-0.615 0.106-0.747-0.174-0.939-1.631-1.869-3.269-2.803-4.903-0.181-0.259-0.104-0.646 0.198-0.773 4.074-2.325 8.144-4.66 12.223-6.975z"></path>
<path fill="#fff" d="M2.529 13.353c1.021-0.303 2.037-0.635 3.065-0.911 0.315 0.354 0.487 0.842 0.755 1.244-0.785 0.737-1.583 1.462-2.372 2.197-0.484-0.843-0.96-1.69-1.448-2.53z"></path>
<path fill="#fff" d="M13.559 13.874c0.396-0.263 0.818-0.479 1.226-0.721 0.002 2.784-0.001 5.568 0.001 8.352-0.406 0.002-0.812 0.003-1.218 0-0.006-2.544 0.011-5.088-0.009-7.631z"></path>
<path fill="#0046ac" d="M0.925 0.631c0.151-0.057 0.316-0.054 0.475-0.060 7.134 0.011 14.269-0.005 21.403 0.008 0.398-0.033 0.677 0.348 0.638 0.72 0.001 7.134 0.001 14.268 0 21.401 0.041 0.376-0.24 0.758-0.639 0.732-7.167 0.011-14.335 0.001-21.502 0.005-0.374 0.044-0.753-0.237-0.722-0.634-0.016-7.134 0.001-14.268-0.009-21.403-0.010-0.289 0.043-0.656 0.356-0.769M17.737 2.744c-4.079 2.315-8.149 4.65-12.223 6.975-0.302 0.127-0.379 0.514-0.198 0.773 0.934 1.634 1.864 3.272 2.803 4.903 0.132 0.28 0.502 0.352 0.747 0.174 4.054-2.314 8.108-4.629 12.162-6.944 0.289-0.131 0.411-0.505 0.211-0.765-0.915-1.617-1.844-3.227-2.761-4.843-0.121-0.277-0.467-0.466-0.741-0.273M2.529 13.353c0.488 0.84 0.964 1.687 1.448 2.53 0.789-0.735 1.587-1.46 2.372-2.197-0.268-0.402-0.44-0.89-0.755-1.244-1.028 0.276-2.044 0.608-3.065 0.911M13.559 13.874c0.020 2.543 0.003 5.087 0.009 7.631 0.406 0.003 0.812 0.002 1.218 0-0.002-2.784 0.001-5.568-0.001-8.352-0.408 0.242-0.83 0.458-1.226 0.721z"></path>
<path fill="#0042a3" opacity="0.95" d="M0 0.795l0.014 0.141c0.069 7.32 0.001 14.644 0.034 21.965-0.007 0.603 0.559 1.101 1.153 1.065 7.199 0.005 14.399 0.005 21.599 0 0.596 0.040 1.164-0.46 1.159-1.066 0.035-7.32-0.028-14.644 0.031-21.964l0.010-0.136v23.2h-24v-23.205z"></path>
</svg>
