<!-- Generated by IcoMoon.io -->
<svg version="1.1" xmlns="http://www.w3.org/2000/svg" width="24" height="24" viewBox="0 0 24 24">
<title>information--trail-crossing--g3</title>
<path fill="#009fe3" d="M0.776 0h22.415c0.406 0.064 0.714 0.378 0.809 0.772v22.426c-0.072 0.403-0.382 0.71-0.778 0.803h-22.424c-0.398-0.076-0.708-0.379-0.798-0.773v-22.433c0.073-0.398 0.383-0.708 0.776-0.794M0.928 21.247c7.381 0.001 14.762 0.001 22.142 0-3.689-6.391-7.376-12.784-11.071-19.172-3.692 6.389-7.38 12.781-11.071 19.172z"></path>
<path fill="#fff" d="M0.928 21.247c3.691-6.391 7.379-12.784 11.071-19.172 3.695 6.389 7.382 12.781 11.071 19.172-7.38 0.001-14.761 0.001-22.142 0M11.593 4.678c-0.055 0.182-0.112 0.362-0.175 0.541 0.091 0.222 0.192 0.445 0.388 0.594-0.41 0.266-0.529 0.756-0.775 1.147-0.163 0.205-0.402 0.331-0.607 0.488-0.017 0.038-0.053 0.114-0.070 0.151-0.128 0.122-0.456 0.175-0.349 0.413 0.156 0.236 0.385 0.001 0.499-0.145 0.445-0.154 0.742-0.535 1.112-0.805 0.073 0.449 0.13 0.899 0.197 1.349-0.184 0.29-0.278 0.659-0.577 0.862-0.010 0.709-0.463 1.313-0.654 1.981-0.248 0.007-0.497 0.016-0.745 0.034 0.305 0.337 0.775 0.396 1.17 0.576 0.028-0.083 0.082-0.25 0.109-0.332 0.050-0.020 0.151-0.061 0.202-0.082 0.229-0.551 0.384-1.132 0.643-1.672 0.052-0.155 0.192-0.241 0.312-0.337 0.048-0.143 0.097-0.283 0.149-0.425 0.439 0.82 0.948 1.6 1.484 2.359-0.108 0.196-0.235 0.379-0.373 0.556 0.131-0.001 0.39-0.002 0.521-0.004 0.126-0.158 0.256-0.312 0.389-0.464-0.066-0.21-0.181-0.436-0.011-0.63-0.31-0.394-0.599-0.805-0.83-1.249 0.022-0.084 0.065-0.252 0.086-0.336-0.288-0.001-0.331-0.284-0.367-0.506-0.031-0.746-0.526-1.426-0.305-2.188 0.161 0.148 0.446 0.251 0.415 0.514-0.007 0.374 0.088 0.738 0.113 1.11 0.030 0.094 0.090 0.281 0.12 0.374 0.383-0.508 0.24-1.205 0.228-1.798-0.378-0.523-0.883-1.003-1.523-1.171-0.126-0.181 0-0.388 0.032-0.575-0.078-0.106-0.155-0.211-0.228-0.319-0.193-0.004-0.386-0.007-0.58-0.011M8.484 9.199c0 0.102 0 0.205 0 0.307 0.134 0 0.268 0 0.402 0 0-0.077 0-0.23 0-0.307-0.134 0-0.269 0-0.402 0M9.167 9.199c0 0.102 0 0.205 0 0.307 0.134 0 0.268 0 0.402 0.001 0-0.103 0-0.206 0-0.308-0.134 0-0.268 0-0.402 0M9.851 9.199c-0.001 0.077-0.001 0.23-0.002 0.307 0.134 0 0.269 0 0.403 0.001 0-0.103 0-0.205 0-0.308-0.133 0-0.268 0-0.401 0M10.534 9.184c-0.001 0.108-0.001 0.216-0.001 0.324 0.143-0.001 0.286-0.001 0.43-0.002 0.058-0.323-0.191-0.328-0.428-0.322M13.946 9.199c0 0.102-0.001 0.205-0.001 0.307 0.134 0 0.269 0 0.403 0 0-0.102 0-0.205 0-0.307-0.134 0-0.269 0-0.402 0M14.602 9.505c0.143 0.001 0.287 0.001 0.43 0.002 0-0.108-0.001-0.216-0.001-0.324-0.24-0.008-0.482 0-0.428 0.322M15.311 9.199c0 0.102 0.001 0.205 0.001 0.307 0.134 0 0.269 0 0.403 0 0-0.077-0.001-0.23-0.002-0.308-0.134 0.001-0.268 0.001-0.402 0.001M10.768 13.056c0.102 0.149 0.203 0.298 0.294 0.452 0.071 0.043 0.211 0.128 0.281 0.172 0.146 0.006 0.294 0.013 0.44 0.022-0.085 0.425-0.226 0.842-0.215 1.28-0.215 0.144-0.427 0.29-0.643 0.43-0.086 0.152-0.224 0.248-0.386 0.308 0.116 0.116 0.096 0.26-0.017 0.372 0.034 0.047 0.101 0.14 0.136 0.187-0.138-0.054-0.276-0.108-0.413-0.163 0.042 0.206-0.107 0.583 0.23 0.564-0.040 0.122-0.079 0.244-0.119 0.367-0.538-0.121-1.158-0.022-1.517 0.431-0.57 0.619-0.359 1.721 0.395 2.093 0.726 0.415 1.747-0.011 1.958-0.821 0.205-0.628-0.14-1.283-0.67-1.626 0.030-0.098 0.060-0.197 0.091-0.295 0.37 0.38 0.86 0.659 1.135 1.122 0.040 0.008 0.119 0.025 0.158 0.034 0.001 0.206-0.078 0.455 0.091 0.619 0.166 0.202 0.458 0.187 0.67 0.062-0.071 0.114-0.214 0.341-0.284 0.454 0.272-0.028 0.462-0.222 0.648-0.4 0.212 0.712 1.006 1.192 1.729 0.953 0.82-0.211 1.246-1.264 0.798-1.985-0.32-0.601-1.078-0.814-1.704-0.616-0.128-0.269-0.254-0.539-0.344-0.823 0.11-0.008 0.334-0.026 0.445-0.035-0.071-0.698-0.5-1.268-0.82-1.87-0.24-0.449-0.629-0.816-1.122-0.965-0.342-0.102-0.185-0.655-0.553-0.752-0.332-0.152-0.522 0.215-0.694 0.428M6.62 15.359c0 0.137 0.001 0.275 0.001 0.413 0.21-0.001 0.419-0.001 0.629-0.001-0.001-0.14-0.004-0.281-0.005-0.421-0.209 0.004-0.416 0.006-0.625 0.010M7.681 15.355c0.004 0.139 0.007 0.28 0.012 0.421 0.206-0.004 0.413-0.006 0.62-0.008-0.001-0.138-0.001-0.276-0.001-0.413-0.21-0.001-0.42-0.001-0.631 0M8.752 15.355c0 0.103-0.002 0.311-0.002 0.415 0.209 0 0.419 0 0.629 0.001-0.001-0.139-0.001-0.278-0.001-0.416-0.208 0-0.416 0-0.625 0M9.815 15.354c0 0.102-0.001 0.305-0.001 0.406 0.138 0.008 0.414 0.025 0.552 0.034 0.056-0.14 0.084-0.289 0.107-0.437-0.22-0.001-0.438-0.001-0.658-0.002M14.071 15.355c0 0.138 0.001 0.277 0.001 0.415 0.209 0 0.418 0 0.626 0 0-0.138 0-0.277 0.001-0.415-0.21-0.001-0.419 0-0.629 0M15.136 15.353c0 0.139 0 0.278 0.001 0.419 0.206-0.001 0.414-0.001 0.622-0.001 0.004-0.136 0.007-0.271 0.011-0.407-0.211-0.006-0.422-0.008-0.634-0.011M16.2 15.355c0 0.138 0 0.277 0.001 0.416 0.209-0.001 0.418-0.001 0.626-0.001 0-0.139 0-0.277 0-0.415-0.209-0.001-0.419 0-0.628 0M17.266 15.772c0.209-0.001 0.418-0.001 0.628-0.001-0.001-0.104-0.001-0.312-0.002-0.415-0.209 0-0.418 0-0.625 0 0 0.138-0.001 0.277 0 0.416M3.347 19.853c0 0.194 0 0.388 0 0.582 0.433 0 0.865 0 1.298 0 0-0.194 0-0.388 0-0.581-0.433-0.001-0.866-0.001-1.298-0.001M5.112 19.853c0 0.194 0 0.388 0 0.582 0.433 0 0.865 0 1.298 0 0-0.194 0-0.388 0-0.581-0.433-0.001-0.866-0.001-1.298-0.001M6.877 19.853c0 0.194 0 0.388 0 0.582 0.433 0 0.866 0 1.3 0 0-0.194 0-0.388 0-0.582-0.433 0-0.866 0-1.3 0M8.642 19.854c0 0.193 0 0.386 0 0.581 0.433 0 0.866 0 1.3 0 0-0.194 0-0.388 0-0.581-0.433-0.001-0.866-0.001-1.3 0M10.409 19.853c-0.001 0.194-0.001 0.388-0.001 0.582 0.433 0 0.866 0 1.3 0 0-0.194 0-0.388 0-0.582-0.433 0-0.866 0-1.298 0M12.174 19.853c0 0.194 0 0.388 0 0.582 0.433 0 0.865 0 1.298 0 0-0.194 0-0.388 0-0.582-0.433 0-0.865 0-1.298 0M13.939 19.854c0 0.193 0 0.386 0 0.581 0.433 0 0.866 0 1.3 0 0-0.194 0-0.388 0-0.581-0.433-0.001-0.866-0.001-1.3 0M15.704 19.853c0 0.194-0.001 0.388 0 0.582 0.433 0 0.865 0 1.298 0 0-0.194 0-0.388 0-0.581-0.433-0.001-0.865-0.001-1.298-0.001M17.47 19.853c0 0.194 0 0.388 0 0.582 0.433 0 0.866 0 1.3 0 0-0.194 0-0.388 0-0.582-0.433 0-0.866 0-1.3 0M19.235 19.854c0 0.193 0 0.386 0 0.581 0.433 0 0.866 0 1.3 0 0-0.194 0-0.388 0-0.582-0.433 0-0.866 0-1.3 0.001z"></path>
<path fill="#fff" d="M12.11 14.528c0.271 0.349 0.526 0.712 0.738 1.099-0.341 0.175-0.701 0.32-1.009 0.553-0.348 0.005-0.696 0.004-1.044 0.001 0.020-0.068 0.060-0.204 0.080-0.272 0.185-0.086 0.382-0.138 0.583-0.163 0.050-0.23 0.244-0.365 0.386-0.535 0.13-0.209 0.178-0.456 0.265-0.683M11.944 15.355c0 0.104 0.001 0.316 0.001 0.421 0.206-0.005 0.414-0.012 0.62-0.020 0.002-0.101 0.005-0.301 0.007-0.401-0.21 0-0.42-0.001-0.629 0z"></path>
<path fill="#fff" d="M12.196 16.501c0.205-0.053 0.419-0.089 0.61-0.186-0.15 0.3-0.314 0.594-0.452 0.9-0.048-0.239-0.1-0.478-0.157-0.714z"></path>
<path fill="#fff" d="M10.667 16.633c0.018-0.059 0.054-0.175 0.072-0.234 0.318 0.001 0.637 0.001 0.955 0 0.095 0.434 0.227 0.859 0.398 1.27-0.056 0.004-0.168 0.010-0.224 0.013-0.431-0.312-0.796-0.706-1.201-1.049z"></path>
<path fill="#fff" d="M13.409 16.536c0.095 0.203 0.19 0.406 0.286 0.608-0.389 0.265-0.63 0.671-0.737 1.124-0.107-0.265-0.169-0.544-0.197-0.828 0.236-0.286 0.45-0.59 0.648-0.905z"></path>
<path fill="#fff" d="M8.963 17.609c0.316-0.409 0.876-0.508 1.355-0.374-0.112 0.442-0.382 0.811-0.575 1.217 0.047-0.011 0.138-0.032 0.185-0.043 0.263-0.318 0.425-0.708 0.576-1.088 0.379 0.302 0.661 0.779 0.539 1.279-0.121 0.726-1.006 1.182-1.663 0.84-0.688-0.289-0.913-1.272-0.416-1.83z"></path>
<path fill="#fff" d="M13.939 17.228c0.671-0.216 1.476 0.187 1.596 0.902 0.184 0.762-0.55 1.54-1.318 1.411-0.583-0.061-0.989-0.578-1.056-1.135 0.442 0.012 0.884 0.042 1.327 0.031-0.166-0.41-0.37-0.805-0.55-1.21z"></path>
<path fill="#fff" d="M13.162 18.214c0.097-0.361 0.305-0.674 0.604-0.899 0.16 0.314 0.308 0.634 0.458 0.953-0.354-0.016-0.708-0.031-1.062-0.054z"></path>
<path fill="#fff" d="M11.977 18.085c0.23 0.166 0.473 0.314 0.694 0.493-0.216 0.058-0.517 0.137-0.638-0.12-0.013-0.094-0.041-0.28-0.055-0.373z"></path>
<path fill="#000" d="M11.593 4.678c0.193 0.004 0.386 0.007 0.58 0.011 0.073 0.108 0.15 0.214 0.228 0.319-0.032 0.187-0.158 0.394-0.032 0.575 0.64 0.168 1.145 0.648 1.523 1.171 0.012 0.593 0.155 1.29-0.228 1.798-0.030-0.094-0.090-0.281-0.12-0.374-0.025-0.372-0.12-0.736-0.113-1.11 0.031-0.263-0.254-0.366-0.415-0.514-0.221 0.762 0.274 1.441 0.305 2.188 0.036 0.222 0.079 0.505 0.367 0.506-0.022 0.084-0.065 0.252-0.086 0.336 0.232 0.444 0.521 0.856 0.83 1.249-0.17 0.194-0.055 0.42 0.011 0.63-0.133 0.152-0.263 0.306-0.389 0.464-0.131 0.001-0.39 0.002-0.521 0.004 0.138-0.176 0.265-0.36 0.373-0.556-0.536-0.76-1.045-1.54-1.484-2.359-0.052 0.142-0.101 0.282-0.149 0.425-0.12 0.096-0.26 0.182-0.312 0.337-0.259 0.54-0.414 1.121-0.643 1.672-0.050 0.020-0.151 0.061-0.202 0.082-0.028 0.083-0.082 0.25-0.109 0.332-0.395-0.18-0.865-0.239-1.17-0.576 0.248-0.018 0.497-0.026 0.745-0.034 0.191-0.668 0.644-1.272 0.654-1.981 0.299-0.203 0.394-0.571 0.577-0.862-0.067-0.45-0.124-0.9-0.197-1.349-0.371 0.27-0.667 0.652-1.112 0.805-0.114 0.146-0.343 0.382-0.499 0.145-0.107-0.238 0.221-0.29 0.349-0.413 0.017-0.037 0.053-0.113 0.070-0.151 0.205-0.157 0.444-0.283 0.607-0.488 0.246-0.391 0.365-0.881 0.775-1.147-0.196-0.149-0.296-0.372-0.388-0.594 0.064-0.179 0.12-0.359 0.175-0.541z"></path>
<path fill="#000" d="M8.484 9.199c0.133 0 0.268 0 0.402 0 0 0.077 0 0.23 0 0.307-0.134 0-0.268 0-0.402 0 0-0.102 0-0.205 0-0.307z"></path>
<path fill="#000" d="M9.167 9.199c0.134 0 0.268 0 0.402 0 0 0.102 0 0.205 0 0.308-0.134-0.001-0.268-0.001-0.402-0.001 0-0.102 0-0.205 0-0.307z"></path>
<path fill="#000" d="M9.851 9.199c0.133 0 0.268 0 0.401 0 0 0.103 0 0.205 0 0.308-0.134-0.001-0.269-0.001-0.403-0.001 0.001-0.077 0.001-0.23 0.002-0.307z"></path>
<path fill="#000" d="M10.534 9.184c0.238-0.006 0.486-0.001 0.428 0.322-0.144 0.001-0.287 0.001-0.43 0.002 0-0.108 0-0.216 0.001-0.324z"></path>
<path fill="#000" d="M13.946 9.199c0.133 0 0.268 0 0.402 0 0 0.102 0 0.205 0 0.307-0.134 0-0.269 0-0.403 0 0-0.102 0.001-0.205 0.001-0.307z"></path>
<path fill="#000" d="M14.602 9.505c-0.054-0.322 0.188-0.33 0.428-0.322 0 0.108 0.001 0.216 0.001 0.324-0.143-0.001-0.287-0.001-0.43-0.002z"></path>
<path fill="#000" d="M15.311 9.199c0.134 0 0.268 0 0.402-0.001 0.001 0.078 0.002 0.232 0.002 0.308-0.134 0-0.269 0-0.403 0 0-0.102-0.001-0.205-0.001-0.307z"></path>
<path fill="#000" d="M10.768 13.056c0.172-0.214 0.361-0.581 0.694-0.428 0.368 0.097 0.211 0.65 0.553 0.752 0.493 0.149 0.882 0.516 1.122 0.965 0.319 0.601 0.749 1.171 0.82 1.87-0.112 0.008-0.335 0.026-0.445 0.035 0.090 0.284 0.216 0.554 0.344 0.823 0.626-0.198 1.384 0.014 1.704 0.616 0.448 0.721 0.022 1.774-0.798 1.985-0.724 0.239-1.517-0.241-1.729-0.953-0.186 0.178-0.376 0.372-0.648 0.4 0.071-0.113 0.214-0.34 0.284-0.454-0.211 0.125-0.504 0.139-0.67-0.062-0.169-0.164-0.090-0.413-0.091-0.619-0.040-0.008-0.119-0.025-0.158-0.034-0.275-0.463-0.766-0.742-1.135-1.122-0.031 0.098-0.061 0.197-0.091 0.295 0.529 0.343 0.875 0.998 0.67 1.626-0.211 0.81-1.232 1.236-1.958 0.821-0.754-0.372-0.965-1.474-0.395-2.093 0.359-0.452 0.979-0.552 1.517-0.431 0.040-0.124 0.079-0.245 0.119-0.367-0.337 0.019-0.188-0.358-0.23-0.564 0.137 0.055 0.275 0.109 0.413 0.163-0.035-0.047-0.102-0.14-0.136-0.187 0.113-0.112 0.133-0.256 0.017-0.372 0.162-0.060 0.3-0.156 0.386-0.308 0.216-0.139 0.428-0.286 0.643-0.43-0.011-0.438 0.13-0.856 0.215-1.28-0.146-0.008-0.294-0.016-0.44-0.022-0.070-0.043-0.21-0.128-0.281-0.172-0.091-0.155-0.192-0.304-0.294-0.452M12.11 14.528c-0.088 0.227-0.136 0.474-0.265 0.683-0.143 0.17-0.336 0.305-0.386 0.535-0.202 0.025-0.398 0.077-0.583 0.163-0.020 0.068-0.060 0.204-0.080 0.272 0.348 0.002 0.696 0.004 1.044-0.001 0.308-0.233 0.668-0.378 1.009-0.553-0.212-0.388-0.467-0.75-0.738-1.099M12.196 16.501c0.058 0.236 0.109 0.475 0.157 0.714 0.138-0.306 0.302-0.6 0.452-0.9-0.191 0.097-0.404 0.133-0.61 0.186M10.667 16.633c0.406 0.343 0.77 0.737 1.201 1.049 0.056-0.004 0.168-0.010 0.224-0.013-0.172-0.41-0.304-0.835-0.398-1.27-0.318 0.001-0.637 0.001-0.955 0-0.018 0.059-0.054 0.175-0.072 0.234M13.409 16.536c-0.198 0.314-0.412 0.619-0.648 0.905 0.028 0.284 0.090 0.563 0.197 0.828 0.107-0.454 0.348-0.859 0.737-1.124-0.096-0.203-0.191-0.406-0.286-0.608M8.963 17.609c-0.497 0.558-0.271 1.541 0.416 1.83 0.658 0.342 1.542-0.114 1.663-0.84 0.122-0.5-0.16-0.977-0.539-1.279-0.151 0.38-0.313 0.77-0.576 1.088-0.047 0.011-0.138 0.032-0.185 0.043 0.193-0.406 0.463-0.775 0.575-1.217-0.479-0.133-1.039-0.035-1.355 0.374M13.939 17.228c0.18 0.404 0.384 0.799 0.55 1.21-0.443 0.011-0.886-0.019-1.327-0.031 0.067 0.557 0.473 1.074 1.056 1.135 0.768 0.128 1.501-0.649 1.318-1.411-0.12-0.715-0.925-1.118-1.596-0.902M13.162 18.214c0.354 0.023 0.708 0.038 1.062 0.054-0.15-0.319-0.299-0.638-0.458-0.953-0.299 0.224-0.506 0.538-0.604 0.899M11.977 18.085c0.014 0.094 0.042 0.28 0.055 0.373 0.121 0.257 0.422 0.178 0.638 0.12-0.221-0.179-0.463-0.328-0.694-0.493z"></path>
<path fill="#000" d="M6.62 15.359c0.209-0.004 0.416-0.006 0.625-0.010 0.001 0.14 0.004 0.281 0.005 0.421-0.21 0-0.419 0-0.629 0.001 0-0.138-0.001-0.276-0.001-0.413z"></path>
<path fill="#000" d="M7.681 15.355c0.211-0.001 0.421-0.001 0.631 0 0 0.137 0 0.275 0.001 0.413-0.208 0.002-0.414 0.005-0.62 0.008-0.005-0.142-0.008-0.282-0.012-0.421z"></path>
<path fill="#000" d="M8.752 15.355c0.209 0 0.418 0 0.625 0 0 0.138 0 0.277 0.001 0.416-0.21-0.001-0.42-0.001-0.629-0.001 0-0.104 0.002-0.312 0.002-0.415z"></path>
<path fill="#000" d="M9.815 15.354c0.22 0.001 0.438 0.001 0.658 0.002-0.023 0.148-0.050 0.296-0.107 0.437-0.138-0.008-0.414-0.025-0.552-0.034 0-0.101 0.001-0.304 0.001-0.406z"></path>
<path fill="#000" d="M11.944 15.355c0.209-0.001 0.419 0 0.629 0-0.002 0.1-0.005 0.3-0.007 0.401-0.206 0.008-0.414 0.016-0.62 0.020 0-0.106-0.001-0.317-0.001-0.421z"></path>
<path fill="#000" d="M14.071 15.355c0.21 0 0.419-0.001 0.629 0-0.001 0.138-0.001 0.277-0.001 0.415-0.209 0-0.418 0-0.626 0 0-0.138-0.001-0.277-0.001-0.415z"></path>
<path fill="#000" d="M15.136 15.353c0.211 0.002 0.422 0.005 0.634 0.011-0.004 0.136-0.007 0.271-0.011 0.407-0.208 0-0.415 0-0.622 0.001-0.001-0.14-0.001-0.28-0.001-0.419z"></path>
<path fill="#000" d="M16.2 15.355c0.209 0 0.419-0.001 0.628 0 0 0.138 0 0.276 0 0.415-0.209 0-0.418 0-0.626 0.001-0.001-0.139-0.001-0.278-0.001-0.416z"></path>
<path fill="#000" d="M17.266 15.772c-0.001-0.139 0-0.278 0-0.416 0.208 0 0.416 0 0.625 0 0.001 0.103 0.001 0.311 0.002 0.415-0.21 0-0.419 0-0.628 0.001z"></path>
<path fill="#000" d="M3.347 19.853c0.432 0 0.865 0 1.298 0.001 0 0.193 0 0.386 0 0.581-0.433 0-0.865 0-1.298 0 0-0.194 0-0.388 0-0.582z"></path>
<path fill="#000" d="M5.112 19.853c0.432 0 0.865 0 1.298 0.001 0 0.193 0 0.386 0 0.581-0.433 0-0.865 0-1.298 0 0-0.194 0-0.388 0-0.582z"></path>
<path fill="#000" d="M6.877 19.853c0.433 0 0.866 0 1.3 0 0 0.194 0 0.388 0 0.582-0.433 0-0.866 0-1.3 0 0-0.194 0-0.388 0-0.582z"></path>
<path fill="#000" d="M8.642 19.854c0.433-0.001 0.866-0.001 1.3 0 0 0.193 0 0.386 0 0.581-0.433 0-0.866 0-1.3 0 0-0.194 0-0.388 0-0.581z"></path>
<path fill="#000" d="M10.409 19.853c0.432 0 0.865 0 1.298 0 0 0.194 0 0.388 0 0.582-0.433 0-0.866 0-1.3 0 0-0.194 0-0.388 0.001-0.582z"></path>
<path fill="#000" d="M12.174 19.853c0.433 0 0.865 0 1.298 0 0 0.194 0 0.388 0 0.582-0.433 0-0.865 0-1.298 0 0-0.194 0-0.388 0-0.582z"></path>
<path fill="#000" d="M13.939 19.854c0.433-0.001 0.866-0.001 1.3 0 0 0.193 0 0.386 0 0.581-0.433 0-0.866 0-1.3 0 0-0.194 0-0.388 0-0.581z"></path>
<path fill="#000" d="M15.704 19.853c0.433 0 0.865 0 1.298 0.001 0 0.193 0 0.386 0 0.581-0.433 0-0.865 0-1.298 0-0.001-0.194 0-0.388 0-0.582z"></path>
<path fill="#000" d="M17.47 19.853c0.433 0 0.866 0 1.3 0 0 0.194 0 0.388 0 0.582-0.433 0-0.866 0-1.3 0 0-0.194 0-0.388 0-0.582z"></path>
<path fill="#000" d="M19.235 19.854c0.433-0.001 0.866-0.001 1.3-0.001 0 0.194 0 0.388 0 0.582-0.433 0-0.866 0-1.3 0 0-0.194 0-0.388 0-0.581z"></path>
</svg>
