<!-- Generated by IcoMoon.io -->
<svg version="1.1" xmlns="http://www.w3.org/2000/svg" width="10" height="24" viewBox="0 0 10 24">
<title>information--motorway-exit-ahead--g1</title>
<path fill="#fff" d="M0.112 0.615c0.153-0.366 0.54-0.617 0.938-0.6 2.817 0 5.634-0.003 8.451 0.002 0.519-0.015 0.942 0.477 0.924 0.981 0.002 7.334 0.001 14.668 0 22.003 0.020 0.499-0.382 0.962-0.884 0.999h-8.55c-0.516-0.024-0.971-0.475-0.96-0.997-0.002-7.201 0-14.402-0.001-21.603 0.004-0.263-0.030-0.538 0.082-0.784M0.429 1.049c-0.001 4.42-0.002 8.84 0 13.26 3.201-1.844 6.4-3.691 9.6-5.537 0.001-2.575 0.001-5.15 0-7.725 0.019-0.321-0.239-0.651-0.576-0.636-2.786-0.003-5.572-0-8.358-0.001-0.352-0.028-0.684 0.283-0.666 0.639M0.428 18.742c0 1.403-0.001 2.806 0 4.209-0.020 0.358 0.312 0.672 0.667 0.645 2.786-0.001 5.572 0.003 8.358-0.002 0.339 0.014 0.597-0.319 0.575-0.642 0-3.249 0-6.5 0-9.75-3.2 1.847-6.401 3.693-9.601 5.539z"></path>
<path fill="#fff" d="M2.706 1.863c0.245-0.218 0.526-0.401 0.87-0.322 0 1.014 0 2.027 0 3.039-0.145-0.002-0.291-0.001-0.435 0-0.001-0.832 0.001-1.664-0.001-2.496-0.145 0.105-0.29 0.21-0.435 0.317-0-0.18-0.001-0.359 0-0.538z"></path>
<path fill="#fff" d="M4.615 1.569c0.475-0.142 1.014 0.233 1.043 0.728 0.015 0.484 0.005 0.969 0.005 1.453 0.006 0.438-0.384 0.828-0.82 0.828-0.443 0.015-0.855-0.378-0.843-0.825-0.003-0.47-0.005-0.94 0.001-1.41 0.002-0.358 0.272-0.684 0.614-0.775M4.719 1.972c-0.21 0.050-0.327 0.27-0.305 0.474 0.013 0.474-0.025 0.951 0.019 1.422 0.090 0.396 0.735 0.378 0.8-0.024 0.030-0.498 0.012-0.999 0.009-1.497 0.001-0.258-0.282-0.45-0.524-0.375z"></path>
<path fill="#fff" d="M6.714 1.566c0.49-0.139 1.032 0.27 1.035 0.779 0.006 0.47 0.004 0.939 0.001 1.409 0.006 0.432-0.377 0.818-0.807 0.825-0.449 0.022-0.869-0.375-0.855-0.828-0.002-0.468-0.004-0.935 0.001-1.402 0-0.364 0.277-0.695 0.627-0.783M6.817 1.97c-0.192 0.042-0.326 0.231-0.314 0.426 0.006 0.483-0.018 0.967 0.012 1.449 0.065 0.402 0.71 0.42 0.8 0.024 0.044-0.488 0.009-0.982 0.018-1.473 0.024-0.271-0.255-0.501-0.516-0.426z"></path>
<path fill="#fff" d="M4.128 5.628c0.121 0.006 0.241 0.021 0.358 0.052 0.259-0.087 0.537-0.030 0.739 0.155 0.312-0.334 0.93-0.217 1.063 0.23 0.077 0.383 0.018 0.78 0.035 1.168-0.105 0-0.209 0-0.313 0-0.013-0.358 0.027-0.72-0.019-1.075-0.075-0.273-0.513-0.273-0.589 0-0.046 0.356-0.007 0.717-0.020 1.075-0.105 0-0.209 0-0.313 0-0.014-0.358 0.027-0.72-0.021-1.075-0.078-0.27-0.513-0.274-0.588-0-0.046 0.356-0.006 0.717-0.019 1.075-0.105 0-0.209 0-0.313 0-0.001-0.535-0.002-1.070 0-1.605z"></path>
<path fill="#154889" d="M0.429 1.049c-0.018-0.355 0.315-0.667 0.666-0.639 2.787 0.001 5.572-0.002 8.358 0.001 0.336-0.015 0.595 0.315 0.576 0.636 0 2.575 0 5.15-0 7.725-3.2 1.845-6.399 3.693-9.6 5.537-0.003-4.421-0.002-8.841-0-13.26M2.706 1.863c-0.001 0.18-0 0.359 0 0.538 0.144-0.107 0.289-0.212 0.435-0.317 0.002 0.832 0 1.664 0.001 2.496 0.145-0.001 0.29-0.002 0.435 0 0-1.013 0-2.026-0-3.039-0.345-0.079-0.626 0.104-0.87 0.322M4.615 1.569c-0.342 0.091-0.612 0.417-0.614 0.775-0.006 0.47-0.003 0.939-0.001 1.41-0.012 0.447 0.4 0.84 0.843 0.825 0.436 0 0.827-0.39 0.82-0.828 0-0.484 0.010-0.969-0.005-1.454-0.029-0.495-0.568-0.87-1.043-0.728M6.714 1.566c-0.349 0.087-0.626 0.418-0.627 0.783-0.005 0.468-0.003 0.935-0.001 1.402-0.014 0.453 0.407 0.851 0.855 0.828 0.431-0.007 0.813-0.393 0.807-0.825 0.003-0.47 0.006-0.939-0.001-1.409-0.002-0.509-0.544-0.918-1.035-0.779M4.128 5.628c-0.002 0.535-0.001 1.070 0 1.605 0.104 0 0.208 0 0.313 0 0.013-0.358-0.027-0.72 0.019-1.075 0.075-0.273 0.51-0.27 0.588 0 0.048 0.355 0.007 0.717 0.021 1.075 0.105 0 0.209 0 0.313 0 0.012-0.358-0.027-0.72 0.020-1.075 0.075-0.273 0.513-0.273 0.589 0 0.045 0.355 0.006 0.717 0.019 1.075 0.105 0 0.209 0 0.313 0-0.018-0.389 0.042-0.785-0.035-1.168-0.133-0.447-0.751-0.564-1.063-0.23-0.201-0.185-0.48-0.242-0.739-0.155-0.117-0.030-0.237-0.046-0.358-0.052z"></path>
<path fill="#154889" d="M4.719 1.972c0.243-0.075 0.525 0.117 0.524 0.375 0.003 0.498 0.020 1-0.009 1.497-0.065 0.402-0.71 0.42-0.8 0.024-0.045-0.471-0.006-0.948-0.019-1.422-0.021-0.205 0.096-0.425 0.305-0.474z"></path>
<path fill="#154889" d="M6.817 1.97c0.262-0.075 0.54 0.156 0.516 0.426-0.009 0.49 0.026 0.984-0.018 1.473-0.090 0.396-0.735 0.378-0.8-0.024-0.031-0.482-0.007-0.966-0.012-1.449-0.012-0.194 0.123-0.384 0.314-0.426z"></path>
<path fill="#154889" d="M0.428 18.742c3.201-1.846 6.402-3.692 9.602-5.539 0 3.25 0 6.5 0 9.75 0.021 0.323-0.236 0.656-0.575 0.642-2.786 0.005-5.572 0.001-8.358 0.002-0.355 0.027-0.687-0.288-0.667-0.645-0.002-1.403 0-2.806-0-4.209z"></path>
</svg>
