<svg xmlns="http://www.w3.org/2000/svg" width="24" height="24">
    <path fill="#154889" d="M0 0h24.069c.116.146.221.303.287.478-.051.956-.024 1.913-.029 2.869V24H0V0zm3.184 3.375v17.662h17.648V3.375H3.184z"/>
    <path fill="#fff" d="M3.184 3.375h17.648v17.662H3.184V3.375zm5.738 1.872c-.569.161-.27 1.093.291.879.574-.158.272-1.098-.291-.879zm-.193 1.059c-.459.283-.926.552-1.385.834.473.43.97-.211 1.424-.373.234 1.078-.126 2.136-.271 3.199l.436-.236c.131-.633.257-1.269.391-1.901.146.313.244.651.428.945.398.209.829.353 1.25.513.096-.563-.558-.629-.924-.824-.3-.58-.433-1.212-.457-1.861l.429.148c.118.304.314.637.702.544a12.278 12.278 0 0 0-.322-.663c-.144-.333-.579-.304-.868-.435-.257.141-.549.216-.833.111zm-2.328.252c-.268.159-.231.605.061.715.269.132.609-.117.568-.411-.014-.295-.389-.477-.629-.304zm7.752.169c-.632.211-.909 1.056-.522 1.599.429.727 1.647.589 1.902-.216.353-.813-.564-1.736-1.38-1.384zm-7.784.733c-.298.292-.605.577-.89.883.385.177.637-.201.913-.398.038.691.047 1.383.103 2.073.442-.215.207-.756.256-1.14l.274-.078.178.238c.331-.005.664-.005.994-.019-.13-.356-.536-.294-.841-.341-.077-.305-.153-.608-.228-.913l.241.01c.102.23.258.451.542.425a12.154 12.154 0 0 0-.318-.685c-.401-.133-.812-.078-1.224-.053zm4.311 3.789a1.2 1.2 0 0 0-.31.362c-.481.003-.962-.001-1.443.003-.123-.398-.41-.782-.847-.847-.602-.14-1.232.373-1.222.989-.033.619.587 1.154 1.194 1.032.438-.056.737-.429.867-.827.543.003 1.087.001 1.63.002.163.116.38.331.578.148.789-.577 1.567-1.17 2.351-1.753-.001.977-.005 1.954-.007 2.931.701.005 1.402-.009 2.104-.005-.004-.974-.01-1.947-.013-2.921.731.561 1.442 1.149 2.18 1.7.398.319 1.136-.307.691-.694-.991-.793-2.017-1.544-3.02-2.322-.557.358-1.283.339-1.842-.003-.964.735-1.926 1.473-2.891 2.204zm2.832 2.392c-.882 1.873-1.936 3.668-2.877 5.515.447.184 1.076.273 1.356-.224.85-1.542 1.647-3.115 2.479-4.668.844 1.528 1.674 3.064 2.525 4.588.267.491.905.62 1.362.313-.921-1.851-1.952-3.648-2.827-5.519-.673.002-1.345.01-2.018-.005z"/>
    <path fill="#fff" d="M7.621 11.211c.411-.214.946.165.879.624-.023.448-.593.722-.958.459-.401-.239-.353-.904.078-1.082z"/>
    <path fill="#030303" d="M8.922 5.247c.562-.219.864.722.291.879-.561.214-.86-.718-.291-.879zM8.729 6.306c.285.105.576.03.833-.111.289.131.723.102.868.435.115.217.22.439.322.663-.388.093-.584-.239-.702-.544l-.429-.148c.024.649.158 1.282.457 1.861.367.196 1.02.261.924.824-.42-.16-.851-.304-1.25-.513-.184-.295-.282-.633-.428-.945-.134.633-.26 1.268-.391 1.901l-.436.236c.145-1.063.505-2.122.271-3.199-.454.162-.95.803-1.424.373.459-.282.926-.551 1.385-.834zM6.401 6.558c.24-.173.616.008.629.304.041.295-.3.544-.568.411-.292-.11-.329-.556-.061-.715zM14.153 6.727c.816-.352 1.732.571 1.38 1.384-.256.805-1.473.943-1.902.216-.387-.544-.109-1.388.522-1.599z"/>
    <path fill="#030303" d="M6.369 7.46c.411-.024.823-.08 1.224.053.111.226.221.452.318.685-.284.026-.44-.194-.542-.425l-.241-.01c.074.305.151.609.228.913.305.047.711-.015.841.341-.331.014-.663.014-.994.019l-.178-.238-.274.078c-.049.384.187.926-.256 1.14-.056-.69-.065-1.382-.103-2.073-.276.198-.527.576-.913.398.285-.306.592-.591.89-.883zM10.68 11.249c.966-.731 1.927-1.469 2.891-2.204.559.342 1.286.361 1.842.003 1.003.779 2.029 1.53 3.02 2.322.445.387-.294 1.013-.691.694-.738-.552-1.449-1.14-2.18-1.7.003.974.009 1.947.013 2.921-.701-.004-1.402.01-2.104.005.002-.977.006-1.954.007-2.931-.784.583-1.562 1.176-2.351 1.753-.198.183-.415-.032-.578-.148-.544-.002-1.087.001-1.63-.002-.13.398-.429.771-.867.827-.607.122-1.227-.413-1.194-1.032-.01-.616.62-1.128 1.222-.989.437.065.723.449.847.847.481-.004.962 0 1.443-.003.084-.136.178-.269.31-.362zm-3.059-.038c-.431.179-.479.843-.078 1.082.364.263.935-.011.958-.459.067-.459-.469-.838-.879-.624zM13.512 13.641c.673.015 1.345.007 2.018.005.875 1.871 1.906 3.669 2.827 5.519-.456.308-1.095.178-1.362-.313-.851-1.524-1.681-3.06-2.525-4.588-.833 1.553-1.629 3.126-2.479 4.668-.28.496-.909.408-1.356.224.94-1.847 1.994-3.642 2.877-5.515z"/>
</svg>
