<!-- Generated by IcoMoon.io -->
<svg version="1.1" xmlns="http://www.w3.org/2000/svg" width="25" height="24" viewBox="0 0 25 24">
<title>information--dead-end--g2</title>
<path fill="#039fe3" d="M0 0h24.649v14.565c-3.181-0.006-6.363 0.012-9.544-0.009-0.026-3.485-0.012-6.97-0.042-10.456-1.836-0.013-3.671-0.013-5.507 0-0.013 3.486 0.022 6.972 0.013 10.458-3.19 0.018-6.379 0.003-9.569 0.008v-14.565z"></path>
<path fill="#039fe3" d="M0 20.168c8.216 0 16.433 0 24.649 0v3.832h-24.649v-3.832z"></path>
<path fill="#fff" d="M9.556 4.099c1.836-0.013 3.671-0.013 5.507 0 0.030 3.486 0.016 6.972 0.042 10.456 3.181 0.021 6.363 0.003 9.544 0.009v5.603c-8.216 0-16.433 0-24.649 0v-5.603c3.19-0.005 6.379 0.010 9.569-0.008 0.009-3.486-0.026-6.972-0.013-10.458z"></path>
</svg>
