<!-- Generated by IcoMoon.io -->
<svg version="1.1" xmlns="http://www.w3.org/2000/svg" width="24" height="24" viewBox="0 0 24 24">
<title>information--pedestrians-permitted--g1</title>
<path fill="#231f20" d="M0.844 0h22.51c0.313 0.17 0.561 0.429 0.779 0.705v22.655c-0.141 0.249-0.329 0.47-0.56 0.64h-0.573c0.599-0.148 1.084-0.693 1.067-1.326 0-6.871-0.001-13.742 0.001-20.613 0.001-0.448 0.045-0.933-0.201-1.332-0.231-0.346-0.634-0.614-1.060-0.598-7.138 0.005-14.276 0.002-21.413 0.001-0.608-0.009-1.106 0.556-1.191 1.125-0.004 7.161 0.001 14.323-0.002 21.484-0.001 0.612 0.485 1.125 1.066 1.259h-0.572c-0.316-0.229-0.539-0.562-0.692-0.917v-22.033c0.162-0.433 0.478-0.778 0.844-1.049z"></path>
<path fill="#fff" d="M0.201 1.257c0.085-0.568 0.584-1.134 1.191-1.125 7.138 0.001 14.276 0.004 21.413-0.001 0.427-0.016 0.829 0.253 1.060 0.598 0.247 0.399 0.203 0.884 0.201 1.332-0.001 6.871-0.001 13.742-0.001 20.613 0.017 0.633-0.468 1.177-1.067 1.326h-21.735c-0.58-0.134-1.066-0.648-1.066-1.259 0.003-7.161-0.002-14.323 0.002-21.484M1.152 0.556c-0.314 0.085-0.546 0.379-0.554 0.703 0 7.205 0 14.41 0 21.615 0.001 0.384 0.357 0.707 0.727 0.728 7.183-0.002 14.365 0.001 21.547-0.001 0.426 0.013 0.769-0.39 0.795-0.793 0-7.16 0.001-14.32-0.001-21.48-0.005-0.394-0.308-0.798-0.727-0.795-7.182-0.001-14.364 0.003-21.546-0.002-0.082-0.003-0.163 0.006-0.242 0.026z"></path>
<path fill="#fff" d="M10.659 4.545c0.504-0.121 1.13 0.009 1.356 0.527 0.333 0.596-0.026 1.45-0.702 1.59-0.739 0.255-1.552-0.533-1.353-1.28 0.052-0.383 0.334-0.715 0.699-0.837z"></path>
<path fill="#fff" d="M11.116 7.128c0.283-0.379 0.78-0.506 1.226-0.386 1.224 0.534 2.39 1.192 3.613 1.729-0.032 1.239 0.168 2.464 0.132 3.704-0.304-0.076-0.622-0.071-0.926-0.15-0.053-0.975-0.238-1.937-0.347-2.907-0.239-0.070-0.488-0.088-0.737-0.079 0.203 0.683 0.54 1.34 0.565 2.063 0.098 0.461-0.088 0.923-0.072 1.385 0.609 2.123 1.346 4.212 1.929 6.342-0.348 0.257-0.681 0.535-1.017 0.806-0.025-0.026-0.076-0.077-0.101-0.103-0.759-1.797-1.538-3.587-2.306-5.381-0.269 0.365-0.599 0.681-0.891 1.029-0.368 1.421-0.808 2.824-1.174 4.246-0.465-0.109-0.921-0.252-1.385-0.368 0.329-1.374 0.65-2.75 0.98-4.123 0.040-0.212 0.084-0.426 0.184-0.619 0.401-0.798 0.8-1.596 1.199-2.394 0.11-0.164-0.016-0.338-0.086-0.488-0.213-0.406-0.404-0.824-0.626-1.225-0.231 0.307-0.377 0.68-0.642 0.959-0.798 0.358-1.627 0.649-2.422 1.014-0.149-0.229-0.41-0.437-0.431-0.716 0.733-0.61 1.55-1.121 2.312-1.699 0.152-0.929 0.429-1.89 1.023-2.638z"></path>
<path fill="#036f51" d="M1.152 0.556c0.079-0.020 0.16-0.029 0.242-0.026 7.182 0.005 14.364 0.001 21.546 0.002 0.418-0.003 0.721 0.401 0.727 0.795 0.001 7.16 0.001 14.32 0.001 21.48-0.026 0.403-0.369 0.806-0.795 0.793-7.182 0.002-14.365-0.001-21.547 0.001-0.37-0.021-0.726-0.344-0.727-0.728 0-7.205 0-14.41 0-21.615 0.007-0.324 0.24-0.618 0.554-0.703M10.659 4.545c-0.366 0.122-0.648 0.454-0.699 0.837-0.199 0.747 0.614 1.536 1.353 1.28 0.676-0.14 1.035-0.995 0.702-1.59-0.225-0.519-0.852-0.648-1.356-0.527M11.116 7.128c-0.594 0.748-0.872 1.709-1.023 2.638-0.761 0.578-1.579 1.090-2.312 1.699 0.021 0.279 0.282 0.487 0.431 0.716 0.795-0.365 1.624-0.656 2.422-1.014 0.265-0.279 0.411-0.652 0.642-0.959 0.223 0.401 0.413 0.819 0.626 1.225 0.070 0.15 0.197 0.324 0.086 0.488-0.399 0.798-0.798 1.596-1.199 2.394-0.1 0.193-0.144 0.407-0.184 0.619-0.33 1.374-0.651 2.75-0.98 4.123 0.463 0.116 0.919 0.259 1.385 0.368 0.366-1.421 0.806-2.824 1.174-4.246 0.292-0.348 0.622-0.664 0.891-1.029 0.767 1.794 1.547 3.584 2.306 5.381 0.025 0.026 0.076 0.077 0.101 0.103 0.336-0.272 0.669-0.55 1.017-0.806-0.583-2.13-1.32-4.219-1.929-6.342-0.016-0.462 0.171-0.923 0.072-1.385-0.025-0.723-0.362-1.38-0.565-2.063 0.249-0.009 0.497 0.009 0.737 0.079 0.109 0.969 0.295 1.932 0.347 2.907 0.304 0.079 0.622 0.074 0.926 0.15 0.036-1.239-0.164-2.464-0.132-3.704-1.223-0.537-2.389-1.195-3.613-1.729-0.446-0.12-0.943 0.007-1.226 0.386z"></path>
</svg>
