<?xml version="1.0" encoding="utf-8"?>
<!-- Generated by IcoMoon.io -->
<!DOCTYPE svg PUBLIC "-//W3C//DTD SVG 1.1//EN" "http://www.w3.org/Graphics/SVG/1.1/DTD/svg11.dtd">
<svg version="1.1" xmlns="http://www.w3.org/2000/svg" xmlns:xlink="http://www.w3.org/1999/xlink" width="24" height="24" viewBox="0 0 24 24">
<path fill="#fff" d="M1.88 0h0.354c-0.088 0.111-0.208 0.197-0.354 0.208v-0.208z"></path>
<path fill="#fff" d="M21.672 0h0.448v0.365c-0.158-0.112-0.303-0.238-0.448-0.365z"></path>
<path fill="#fff" d="M10.963 2.253c0.181 0.035 0.43-0.067 0.567 0.072 0.147 0.248-0.243 0.209-0.379 0.2-0.043 0.124-0.087 0.247-0.133 0.37 0.543 0.006 1.085 0.001 1.628 0.003 0.021-0.052 0.064-0.156 0.086-0.208-0.062-0.015-0.186-0.046-0.248-0.061-0.118-0.384 0.53-0.244 0.75-0.194 0.013 0.042 0.039 0.127 0.052 0.169-0.080 0.023-0.237 0.069-0.316 0.092-0.011 0.064-0.033 0.194-0.045 0.258 0.114 0.255 0.23 0.51 0.35 0.763 0.595-0.171 1.288 0.206 1.407 0.826 0.168 0.654-0.403 1.361-1.077 1.328-0.561 0.020-1.018-0.456-1.106-0.987-0.084 0.033-0.251 0.098-0.334 0.131-0.246 0.012-0.257-0.29-0.397-0.426-0.31-0.354-0.619-0.709-0.929-1.063-0.019 0.062-0.055 0.185-0.074 0.247 0.498 0.265 0.773 0.901 0.528 1.431-0.237 0.615-1.070 0.87-1.608 0.488-0.53-0.32-0.659-1.112-0.267-1.587 0.247-0.344 0.689-0.468 1.095-0.424 0.158-0.474 0.264-0.967 0.451-1.43M10.907 3.17c0.393 0.48 0.773 0.988 1.242 1.397 0.147-0.467 0.285-0.936 0.428-1.404-0.557 0.002-1.114-0.008-1.67 0.007M12.802 3.33c-0.13 0.45-0.284 0.893-0.398 1.347 0.135-0.063 0.158-0.217 0.211-0.338 0.070-0.22 0.258-0.367 0.421-0.516-0.079-0.164-0.156-0.327-0.234-0.492M9.437 4.869c0.038 0.595 0.778 0.973 1.28 0.641 0.563-0.31 0.529-1.187-0.021-1.496-0.102 0.291-0.171 0.597-0.322 0.868-0.058 0.002-0.174 0.009-0.232 0.011 0.072-0.333 0.218-0.644 0.296-0.975-0.539-0.072-1.082 0.394-1.001 0.951M13.381 3.934c0.111 0.324 0.338 0.615 0.359 0.966-0.328 0.007-0.657 0.017-0.987 0.014 0.095 0.388 0.429 0.72 0.845 0.714 0.568 0.033 1.021-0.604 0.814-1.131-0.137-0.428-0.607-0.636-1.032-0.563M13.121 4.050c-0.167 0.165-0.298 0.359-0.366 0.584 0.216 0.003 0.431 0.004 0.647 0.006-0.081-0.202-0.181-0.396-0.281-0.59z"></path>
<path fill="#fff" d="M11.419 6.613c0.352-0.002 0.703-0.003 1.054-0.001 0.001 1.171 0.001 2.344 0.001 3.515 1.295 0.004 2.59 0 3.885 0.002 0.001 1.621 0.002 3.242 0 4.862-1.031 0-2.060-0.001-3.090 0-0.003 2.617 0.001 5.234-0.002 7.85-0.88 0-1.76 0-2.64 0-0.003-2.617 0-5.232-0.002-7.849-1.029-0.002-2.057-0.001-3.086-0.001-0.002-1.62-0.001-3.241-0.001-4.862 1.294-0.002 2.588 0.001 3.882-0.001 0-1.171 0.001-2.344-0.001-3.515M7.984 10.57c0 1.326-0.001 2.652 0.001 3.978 2.642 0 5.286 0 7.929 0.001 0.002-1.327 0.001-2.653 0.001-3.979-2.643 0-5.288-0.001-7.931 0z"></path>
<path fill="#037ac2" d="M2.234 0h19.438c0.145 0.127 0.29 0.253 0.448 0.365v23.635h-20.24v-23.792c0.146-0.011 0.265-0.097 0.354-0.208M10.963 2.253c-0.187 0.463-0.293 0.956-0.451 1.43-0.406-0.044-0.848 0.080-1.095 0.424-0.393 0.476-0.263 1.267 0.267 1.587 0.539 0.383 1.371 0.127 1.608-0.488 0.246-0.53-0.030-1.166-0.528-1.431 0.019-0.062 0.055-0.185 0.074-0.247 0.31 0.354 0.619 0.709 0.929 1.063 0.14 0.136 0.152 0.438 0.397 0.426 0.083-0.032 0.25-0.097 0.334-0.131 0.088 0.531 0.545 1.006 1.106 0.987 0.675 0.033 1.245-0.675 1.077-1.328-0.118-0.62-0.812-0.998-1.407-0.826-0.119-0.253-0.236-0.508-0.349-0.763 0.012-0.064 0.034-0.194 0.045-0.258 0.080-0.023 0.237-0.069 0.316-0.092-0.013-0.042-0.039-0.127-0.052-0.169-0.22-0.051-0.868-0.19-0.75 0.194 0.062 0.014 0.186 0.045 0.248 0.061-0.022 0.052-0.065 0.156-0.086 0.208-0.543-0.002-1.085 0.002-1.628-0.003 0.045-0.124 0.090-0.247 0.133-0.37 0.136 0.009 0.526 0.048 0.379-0.2-0.137-0.139-0.386-0.036-0.567-0.072M11.419 6.613c0.002 1.171 0.001 2.344 0.001 3.515-1.294 0.002-2.588-0.001-3.882 0.001 0 1.621-0.001 3.242 0.001 4.862 1.029 0 2.057-0.001 3.086 0.001 0.002 2.617-0.001 5.232 0.002 7.849 0.88 0 1.76 0 2.64 0 0.003-2.617-0.001-5.234 0.002-7.85 1.030-0.001 2.059 0 3.090 0 0.002-1.62 0.001-3.241 0-4.862-1.295-0.002-2.59 0.002-3.885-0.002 0-1.171 0-2.344-0.001-3.515-0.351-0.002-0.702-0.001-1.054 0.001z"></path>
<path fill="#037ac2" d="M10.907 3.17c0.556-0.014 1.113-0.004 1.67-0.007-0.143 0.468-0.281 0.937-0.428 1.404-0.469-0.409-0.849-0.917-1.242-1.397z"></path>
<path fill="#037ac2" d="M12.802 3.33c0.079 0.165 0.156 0.328 0.234 0.492-0.164 0.149-0.352 0.296-0.421 0.516-0.053 0.122-0.076 0.275-0.211 0.338 0.114-0.455 0.268-0.897 0.398-1.347z"></path>
<path fill="#037ac2" d="M9.437 4.869c-0.081-0.557 0.462-1.023 1.001-0.951-0.079 0.332-0.225 0.643-0.296 0.975 0.059-0.002 0.175-0.009 0.232-0.011 0.15-0.271 0.22-0.577 0.322-0.868 0.55 0.31 0.584 1.187 0.021 1.496-0.502 0.332-1.242-0.046-1.28-0.641z"></path>
<path fill="#037ac2" d="M13.381 3.934c0.425-0.073 0.895 0.135 1.032 0.563 0.207 0.528-0.246 1.165-0.814 1.131-0.416 0.006-0.75-0.326-0.845-0.714 0.33 0.002 0.658-0.008 0.987-0.014-0.021-0.351-0.249-0.641-0.359-0.966z"></path>
<path fill="#037ac2" d="M13.121 4.050c0.1 0.194 0.2 0.387 0.281 0.59-0.216-0.001-0.431-0.002-0.647-0.006 0.069-0.225 0.199-0.419 0.366-0.584z"></path>
<path fill="#ed171f" d="M7.984 10.57c2.643-0.001 5.288 0 7.931 0 0 1.326 0.001 2.652-0.001 3.979-2.643-0.001-5.287-0.001-7.929-0.001-0.002-1.326-0.001-2.652-0.001-3.978z"></path>
</svg>
