<?xml version="1.0" encoding="utf-8"?>
<!-- Generated by IcoMoon.io -->
<!DOCTYPE svg PUBLIC "-//W3C//DTD SVG 1.1//EN" "http://www.w3.org/Graphics/SVG/1.1/DTD/svg11.dtd">
<svg version="1.1" xmlns="http://www.w3.org/2000/svg" xmlns:xlink="http://www.w3.org/1999/xlink" width="24" height="24" viewBox="0 0 24 24">
<path fill="#fff" d="M1.543 0.289h21c0.541 0.040 1.154 0.592 1.183 1.243v20.94c0.002 0.516-0.59 1.21-1.258 1.243h-20.97c-0.651 0-1.243-0.578-1.243-1.258l0.030-20.91c0-0.676 0.44-1.258 1.258-1.258z"></path>
<path fill="#154889" d="M19.686 0.836v0.002l-17.927 0.002c-0.588-0.026-0.924 0.376-0.902 1.019v20.32c0.002 0.433 0.186 0.954 0.784 0.964l20.722-0.002c0.598-0.011 0.784-0.531 0.786-0.964v-20.322c0.022-0.643-0.314-1.044-0.902-1.019h-2.562zM19.686 4.161v15.645l-15.364 0.011v-15.653l15.364-0.003z"></path>
<path fill="#000" d="M12.009 7.758c-3.643 0-6.089 3.194-6.089 5.058 0 0 0.005 0.017 0.005 0.017v4.545l12.042-0.091v-4.455l0.020-0.011c0-1.845-2.397-4.992-5.978-5.056v-0.008z"></path>
</svg>
