<!-- Generated by IcoMoon.io -->
<svg version="1.1" xmlns="http://www.w3.org/2000/svg" width="24" height="24" viewBox="0 0 24 24">
<title>information--safety-zone--g1</title>
<path fill="#5462ad" d="M0.053 0.593c0.192-0.172 0.377-0.35 0.556-0.535 0.028 0.010 0.084 0.029 0.113 0.039 0.763 0.328 1.606 0.224 2.413 0.223 6.432-0.007 12.865 0.010 19.298-0.010 0.49 0.006 0.965 0.133 1.428 0.283-0.011 6.837-0.004 13.675-0.006 20.512-0.001 0.824-0.070 1.659 0.122 2.469 0.018 0.089 0.054 0.267 0.072 0.355-0.159-0.023-0.318-0.046-0.478-0.070-1.453-0.242-2.931-0.078-4.395-0.124-6.175 0.045-12.353-0.090-18.525 0.072-0.181-0.437-0.333-0.894-0.336-1.371 0.012-6.433 0.001-12.866 0.006-19.3-0.001-0.809 0.112-1.657-0.226-2.422-0.011-0.030-0.033-0.090-0.043-0.121M0.654 0.988c-0.156 0.581-0.075 1.192-0.088 1.786 0.001 6.554 0.005 13.106-0.002 19.659-0.013 0.494 0.084 1.225 0.755 1.129 6.756 0.029 13.514-0.002 20.27 0.014 0.585 0.014 1.175 0.005 1.749-0.122l0.164 0.010c0.007-0.069 0.022-0.205 0.029-0.273 0.095-0.285 0.164-0.579 0.164-0.879-0.010-6.312 0-12.625-0.005-18.936-0.007-0.857 0.057-1.721-0.1-2.57-0.037 0-0.112-0.001-0.15-0.001-0.314-0.151-0.654-0.256-1.006-0.246-6.915 0.014-13.831-0.001-20.746 0.007-0.358 0.037-0.895-0.004-1.034 0.421z"></path>
<path fill="#0e238b" d="M0.722 0.096c7.587-0.071 15.179-0.016 22.767-0.028 0.175 0.181 0.353 0.358 0.535 0.532-0.030 7.657 0.065 15.319-0.048 22.974-0.192-0.809-0.123-1.645-0.122-2.469 0.002-6.837-0.005-13.675 0.006-20.512-0.463-0.151-0.938-0.277-1.428-0.283-6.433 0.019-12.866 0.002-19.298 0.010-0.807 0.001-1.65 0.105-2.413-0.223z"></path>
<path fill="#0e238b" d="M0.096 0.714c0.338 0.765 0.224 1.612 0.226 2.422-0.005 6.434 0.006 12.867-0.006 19.3 0.004 0.478 0.156 0.935 0.336 1.371 6.171-0.163 12.35-0.028 18.525-0.072 1.464 0.046 2.942-0.118 4.395 0.124-7.65 0.107-15.308 0.018-22.962 0.045-0.177-0.177-0.357-0.351-0.541-0.521 0.012-7.556-0.042-15.114 0.028-22.669z"></path>
<path fill="#0e238b" d="M1.261 1.802c-0.021-0.193-0.006-0.408 0.174-0.523 6.595-0.033 13.194-0.005 19.791-0.018 0.486-0.002 0.976-0.025 1.459 0.049 0.095 0.054 0.189 0.112 0.28 0.176-0.164 1.065-0.099 2.144-0.105 3.218-0.005 5.508 0.005 11.016-0.006 16.523 0.004 0.461 0.048 0.92 0.106 1.377-0.078 0.081-0.158 0.159-0.241 0.235-1.054-0.15-2.12-0.094-3.182-0.098-4.985-0.001-9.97-0.001-14.955 0-1.032 0.001-2.071-0.051-3.096 0.104-0.064-0.090-0.123-0.185-0.177-0.281-0.109-6.915-0.007-13.845-0.048-20.762M1.897 1.899c-0.273 0.697-0.051 1.471-0.1 2.201-0.066 6.016 0.070 12.034-0.045 18.051 0.461 0.039 0.921 0.068 1.383 0.064 6.388-0.039 12.778 0.031 19.165-0.034 0.055-5.584 0.005-11.17 0.023-16.754-0.023-1.23 0.058-2.464-0.051-3.692-6.419-0.084-12.839 0.007-19.258-0.045-0.374 0.022-0.802-0.030-1.118 0.209z"></path>
<path fill="#b9bfdd" d="M0.654 0.988c0.139-0.425 0.675-0.384 1.034-0.421 6.915-0.008 13.831 0.007 20.746-0.007 0.352-0.010 0.692 0.095 1.006 0.246-6.326 0.005-12.651 0.001-18.977 0.004-1.199 0.010-2.402-0.055-3.598 0.074-0.129 5.934-0.018 11.875-0.055 17.811 0.041 1.55-0.096 3.107 0.087 4.649 7.476 0.188 14.963-0.034 22.441 0.112-0.574 0.127-1.164 0.136-1.749 0.122-6.756-0.017-13.514 0.014-20.27-0.014-0.671 0.096-0.768-0.634-0.755-1.129 0.007-6.554 0.004-13.106 0.002-19.659 0.013-0.595-0.068-1.205 0.088-1.786z"></path>
<path fill="#fcfcfd" d="M0.865 0.883c1.195-0.129 2.399-0.064 3.598-0.074 6.326-0.002 12.651 0.001 18.977-0.004 0.037 0 0.112 0.001 0.15 0.001-0.146 1.416-0.049 2.839-0.070 4.258 0.008 6.042-0.016 12.086 0.011 18.127-0.007 0.068-0.022 0.204-0.029 0.273l-0.164-0.010c-7.477-0.146-14.964 0.076-22.441-0.112-0.183-1.543-0.046-3.099-0.087-4.649 0.037-5.936-0.074-11.877 0.055-17.811M1.379 1.107c1.255 0.21 2.54 0.123 3.807 0.147 5.759-0.013 11.519 0.023 17.276-0.021 0.055 0.018 0.168 0.057 0.223 0.076-0.484-0.075-0.973-0.052-1.459-0.049-6.597 0.013-13.196-0.014-19.791 0.018-0.18 0.116-0.194 0.33-0.174 0.523 0.041 6.917-0.060 13.846 0.048 20.762-0.016-0.035-0.049-0.105-0.066-0.14 0.023-6.347-0.001-12.698 0.013-19.046-0.010-0.667 0.016-1.348-0.15-2-0.129 0.659-0.099 1.331-0.093 1.998 0.005 6.27-0.006 12.542 0.004 18.812-0.058 0.638 0.566 1.031 1.147 0.943 6.718-0.022 13.436 0.002 20.153-0.012 0.517 0.040 0.978-0.397 0.923-0.923 0.002-6.755 0.005-13.514-0.001-20.269 0.041-0.522-0.412-0.954-0.929-0.912-6.311-0.010-12.622 0.001-18.933-0.005-0.667-0.006-1.34-0.037-1.998 0.095z"></path>
<path fill="#b2b9da" d="M1.379 1.107c0.658-0.133 1.331-0.101 1.998-0.095 6.311 0.006 12.622-0.005 18.933 0.005 0.516-0.042 0.97 0.39 0.929 0.912 0.006 6.755 0.004 13.514 0.001 20.269 0.055 0.526-0.405 0.962-0.923 0.923-6.716 0.014-13.435-0.010-20.153 0.012-0.581 0.088-1.205-0.305-1.147-0.943-0.010-6.27 0.001-12.542-0.004-18.812-0.006-0.667-0.036-1.34 0.093-1.998 0.165 0.651 0.14 1.333 0.15 2-0.014 6.347 0.010 12.698-0.013 19.046 0.017 0.035 0.051 0.105 0.066 0.14 0.054 0.096 0.113 0.191 0.177 0.281 0.343 0.075 0.693 0.115 1.044 0.123 5.87-0.013 11.739-0.002 17.609-0.006 0.86-0.011 1.735 0.086 2.578-0.123 0.083-0.076 0.163-0.154 0.241-0.235 0.197-0.806 0.115-1.641 0.121-2.463-0.001-5.346 0.001-10.694 0-16.040-0.007-0.872 0.076-1.756-0.116-2.615-0.090-0.064-0.185-0.122-0.28-0.176-0.055-0.019-0.168-0.058-0.223-0.076-5.758 0.043-11.518 0.007-17.276 0.021-1.268-0.024-2.552 0.063-3.807-0.147z"></path>
<path fill="#c1c6e0" d="M23.589 0.807c0.157 0.849 0.093 1.713 0.1 2.57 0.005 6.311-0.005 12.624 0.005 18.936 0 0.3-0.069 0.595-0.164 0.879-0.027-6.041-0.002-12.084-0.011-18.127 0.021-1.419-0.076-2.843 0.070-4.258z"></path>
<path fill="#5c6ab1" d="M22.965 1.486c0.192 0.859 0.109 1.743 0.116 2.615 0.001 5.346-0.001 10.694 0 16.040-0.006 0.821 0.076 1.657-0.121 2.463-0.058-0.457-0.103-0.917-0.106-1.377 0.011-5.507 0.001-11.015 0.006-16.523 0.006-1.073-0.059-2.153 0.105-3.218z"></path>
<path fill="#1a2d91" d="M1.897 1.899c0.316-0.239 0.744-0.187 1.118-0.209 6.419 0.052 12.839-0.040 19.258 0.045 0.109 1.228 0.028 2.462 0.051 3.692-0.018 5.584 0.033 11.17-0.023 16.754-6.387 0.065-12.777-0.005-19.165 0.034-0.462 0.004-0.923-0.025-1.383-0.064 0.115-6.017-0.022-12.035 0.045-18.051 0.049-0.73-0.172-1.504 0.1-2.201M2.954 8.771c-0.004 0.151-0.007 0.301-0.011 0.452 2.992 2.964 5.967 5.946 8.946 8.921 0.295 0.356 0.598-0.185 0.816-0.375 2.869-2.849 5.731-5.707 8.598-8.558-0.004-0.139-0.008-0.277-0.012-0.416-0.747-0.615-1.387-1.342-2.080-2.014-0.105 0.006-0.314 0.016-0.418 0.022-2.094 2.065-4.169 4.15-6.248 6.23-0.176 0.233-0.473 0.193-0.73 0.21-1.182-1.374-2.535-2.591-3.797-3.891-0.892-0.857-1.71-1.798-2.683-2.569-0.099 0.006-0.297 0.019-0.394 0.025-0.609 0.704-1.271 1.365-1.986 1.962z"></path>
<path fill="#fefefe" d="M2.954 8.771c0.715-0.597 1.377-1.258 1.986-1.962 0.098-0.006 0.295-0.019 0.394-0.025 0.973 0.771 1.791 1.711 2.683 2.569 1.261 1.3 2.615 2.517 3.797 3.891 0.257-0.017 0.554 0.023 0.73-0.21 2.079-2.080 4.155-4.166 6.248-6.23 0.105-0.006 0.314-0.016 0.419-0.022 0.693 0.672 1.334 1.399 2.080 2.014 0.004 0.139 0.008 0.277 0.012 0.416-2.867 2.851-5.729 5.709-8.598 8.558-0.218 0.191-0.521 0.731-0.816 0.375-2.979-2.975-5.954-5.957-8.946-8.921 0.004-0.151 0.007-0.302 0.011-0.452z"></path>
<path fill="#5a68b0" d="M1.487 22.845c1.025-0.154 2.064-0.103 3.096-0.104 4.985-0.001 9.97-0.001 14.955 0 1.061 0.004 2.127-0.052 3.182 0.098-0.843 0.209-1.719 0.112-2.579 0.123-5.87 0.004-11.739-0.007-17.609 0.006-0.351-0.008-0.702-0.048-1.044-0.123z"></path>
</svg>
