<?xml version="1.0" encoding="utf-8"?>
<!-- Generated by IcoMoon.io -->
<!DOCTYPE svg PUBLIC "-//W3C//DTD SVG 1.1//EN" "http://www.w3.org/Graphics/SVG/1.1/DTD/svg11.dtd">
<svg version="1.1" xmlns="http://www.w3.org/2000/svg" xmlns:xlink="http://www.w3.org/1999/xlink" width="24" height="24" viewBox="0 0 24 24">
<path fill="#fff" d="M4.23 0h0.085c-0.038 0.371-0.022 0.745-0.017 1.118-0.003 7.28 0.002 14.56-0.002 21.84 0.015 0.213-0.015 0.471 0.158 0.632 0.241 0.223 0.575 0.32 0.898 0.324 4.546 0 9.092 0 13.639 0 0.291-0.002 0.671-0.030 0.779-0.358v0.445h-15.54v-24z"></path>
<path fill="#fff" d="M15.515 0.631c1.114 1.722 2.215 3.454 3.324 5.181-2.213 0.003-4.425 0.002-6.638 0.001 1.104-1.727 2.209-3.455 3.314-5.182z"></path>
<path fill="#fff" d="M14.389 5.839c0.768 0.003 1.536-0.003 2.304-0.001 0 5.764 0 11.529 0 17.294-0.768 0-1.536 0-2.304 0 0-3.081-0.002-6.162 0.001-9.243-2.293 1.293-4.586 2.586-6.881 3.877 0.001 1.759 0.001 3.52 0 5.279-0.768 0-1.537 0.001-2.305-0.001-0.003-2.211 0.006-4.422-0.004-6.633 2.996-1.688 5.991-3.379 8.989-5.063 0.074-0.058 0.218-0.096 0.199-0.217 0.004-1.765 0-3.529 0.002-5.293z"></path>
<path fill="#0371b3" d="M4.316 0h15.454v23.555c-0.108 0.328-0.488 0.357-0.779 0.358-4.546 0-9.092 0-13.639 0-0.323-0.003-0.657-0.101-0.898-0.324-0.173-0.161-0.143-0.419-0.158-0.632 0.003-7.28-0.001-14.56 0.002-21.84-0.005-0.373-0.021-0.747 0.017-1.118M15.515 0.631c-1.105 1.727-2.21 3.454-3.314 5.182 2.213 0.001 4.425 0.002 6.638-0.001-1.109-1.727-2.21-3.458-3.324-5.181M14.389 5.839c-0.002 1.764 0.003 3.528-0.002 5.293 0.019 0.121-0.124 0.159-0.199 0.217-2.998 1.684-5.993 3.376-8.989 5.063 0.010 2.211 0.002 4.422 0.004 6.633 0.768 0.002 1.537 0.001 2.305 0.001 0.001-1.759 0.001-3.52 0-5.279 2.295-1.291 4.588-2.584 6.881-3.877-0.003 3.080-0.001 6.161-0.001 9.243 0.768 0 1.536 0 2.304 0 0-5.765 0-11.529 0-17.294-0.768-0.002-1.536 0.003-2.304 0.001z"></path>
</svg>
