<!-- Generated by IcoMoon.io -->
<svg version="1.1" xmlns="http://www.w3.org/2000/svg" width="23" height="24" viewBox="0 0 23 24">
<title>information--highway-interstate-route--g2</title>
<path fill="#4d4d4d" opacity="0.8" d="M11.009 0.217c0.065-0.12 0.163-0.17 0.296-0.151-0.045 0.137-0.143 0.187-0.296 0.151z"></path>
<path fill="#4d4d4d" opacity="0.8" d="M11.695 0.066c0.132-0.019 0.231 0.030 0.298 0.148-0.153 0.039-0.253-0.010-0.298-0.148z"></path>
<path fill="#fff" d="M11.305 0.066c0.13 0.003 0.26 0.003 0.39 0 0.045 0.138 0.145 0.187 0.298 0.148 2.983 1.034 5.636 2.968 7.565 5.465 0.023 0.162 0.122 0.3 0.274 0.364 1.895 2.629 3.009 5.817 3.108 9.059 0.006 1.5 0.003 3 0.003 4.5-0.013 1.612-1.226 3.11-2.796 3.471-2.059 0.432-4.154 0.683-6.252 0.817-1.552 0.027-3.104 0.015-4.655 0.007-2.117-0.126-4.228-0.378-6.306-0.805-1.606-0.33-2.868-1.848-2.877-3.49 0.036-2.731-0.205-5.509 0.532-8.176 0.122-0.109 0.168-0.27 0.154-0.43 0.010-0.095 0.017-0.191 0.022-0.287 0.141-0.045 0.19-0.145 0.149-0.299 0.522-1.561 1.302-3.027 2.253-4.367 0.152-0.064 0.251-0.202 0.275-0.364 0.755-0.962 1.597-1.851 2.537-2.633 0.162-0.025 0.298-0.13 0.358-0.284 1.179-0.92 2.483-1.672 3.862-2.249 0.138 0.033 0.245-0.011 0.32-0.132 0.164-0.055 0.327-0.11 0.49-0.164 0.153 0.036 0.251-0.014 0.296-0.151M11.339 0.839c-3.029 1.025-5.717 3.017-7.59 5.607-1.914 2.605-2.974 5.821-2.999 9.053-0.002 1.369-0.010 2.738 0.003 4.106 0.029 1.324 1.058 2.53 2.347 2.806 5.554 1.121 11.333 1.115 16.884-0.018 1.262-0.295 2.238-1.491 2.263-2.788 0.013-1.368 0.006-2.737 0.003-4.105-0.027-3.352-1.168-6.683-3.213-9.339-1.858-2.453-4.462-4.332-7.376-5.322-0.108-0.040-0.215-0.040-0.322 0z"></path>
<path fill="#fff" d="M9.67 6.158c0.457-0.035 0.914-0.068 1.371-0.101 0.011 0.11 0.022 0.219 0.034 0.329-0.35 0.028-0.7 0.054-1.050 0.079 0.010 0.123 0.020 0.246 0.032 0.37 0.19-0.012 0.381-0.025 0.572-0.036 0.005 0.082 0.016 0.247 0.022 0.329-0.191 0.015-0.381 0.029-0.572 0.044 0.016 0.268 0.037 0.537 0.053 0.806-0.083 0.004-0.249 0.013-0.332 0.018-0.046-0.613-0.088-1.226-0.13-1.838z"></path>
<path fill="#fff" d="M11.927 6.128c0.667-0.322 1.247 0.455 1.069 1.075-0.016 0.528-0.599 0.968-1.093 0.693-0.606-0.352-0.595-1.436 0.024-1.768M12.041 6.447c-0.336 0.273-0.36 0.983 0.067 1.178 0.816 0.21 0.755-1.562-0.067-1.178z"></path>
<path fill="#fff" d="M8.771 6.263c0.107-0.017 0.215-0.034 0.322-0.050 0.083 0.612 0.16 1.226 0.223 1.841-0.080 0.008-0.241 0.025-0.321 0.033-0.075-0.608-0.149-1.216-0.224-1.824z"></path>
<path fill="#fff" d="M13.665 6.178c0.433 0.109 1.061-0.013 1.31 0.449 0.168 0.315-0.075 0.61-0.3 0.809 0.068 0.26 0.137 0.52 0.207 0.779-0.121-0.016-0.241-0.032-0.361-0.049-0.067-0.254-0.131-0.508-0.197-0.761-0.162-0.025-0.324-0.048-0.485-0.069-0.041 0.24-0.068 0.482-0.108 0.722-0.081-0.013-0.242-0.037-0.323-0.050 0.084-0.61 0.169-1.22 0.257-1.83M13.88 7.017c0.256-0.010 0.606 0.181 0.796-0.053 0.119-0.416-0.479-0.348-0.728-0.423-0.023 0.158-0.045 0.317-0.068 0.476z"></path>
<path fill="#fff" d="M6.981 6.561c0.079-0.014 0.238-0.042 0.317-0.057 0.101 0.51 0.199 1.020 0.299 1.53 0.344-0.071 0.69-0.135 1.035-0.195 0.012 0.070 0.035 0.208 0.046 0.278-0.451 0.086-0.901 0.175-1.351 0.266-0.117-0.607-0.24-1.213-0.346-1.822z"></path>
<path fill="#fff" d="M15.698 6.489c0.105 0.028 0.211 0.056 0.316 0.084 0.173 0.458 0.346 0.916 0.524 1.371 0.1-0.391 0.197-0.784 0.296-1.175 0.102 0.028 0.205 0.056 0.307 0.085-0.149 0.595-0.296 1.192-0.446 1.787-0.068-0.014-0.203-0.043-0.27-0.058-0.188-0.48-0.364-0.965-0.552-1.444-0.107 0.407-0.206 0.817-0.311 1.226-0.078-0.021-0.233-0.062-0.311-0.083 0.147-0.598 0.295-1.196 0.447-1.793z"></path>
<path fill="#fff" d="M5.404 7.098c-0.009-0.191 0.301-0.262 0.404-0.124 0.416 0.466 0.796 0.963 1.199 1.44-0.107 0.037-0.214 0.075-0.321 0.112-0.107-0.121-0.215-0.242-0.322-0.364-0.254 0.076-0.507 0.154-0.76 0.233-0.017 0.157-0.036 0.314-0.054 0.471-0.113 0.037-0.227 0.071-0.341 0.103 0.070-0.623 0.111-1.25 0.195-1.871M5.709 7.369c-0.023 0.221-0.046 0.442-0.068 0.663 0.164-0.049 0.327-0.098 0.492-0.148-0.141-0.172-0.283-0.343-0.424-0.515z"></path>
<path fill="#fff" d="M17.723 7.025c0.104 0.031 0.208 0.063 0.313 0.095-0.186 0.588-0.38 1.173-0.567 1.761-0.105-0.032-0.21-0.063-0.314-0.095 0.185-0.589 0.377-1.175 0.568-1.761z"></path>
<path fill="#fff" d="M3.167 8.068c0.134-0.512 0.786-0.66 1.214-0.427-0.037 0.094-0.071 0.189-0.1 0.286-0.261-0.044-0.649-0.135-0.773 0.186-0.097 0.351 0.076 0.809 0.42 0.96 0.292 0.103 0.469-0.191 0.62-0.382 0.079 0.012 0.237 0.035 0.316 0.046-0.137 0.325-0.374 0.665-0.762 0.683-0.67 0.039-1.067-0.771-0.935-1.352z"></path>
<path fill="#fff" d="M17.772 8.959c0.468-0.478 0.934-0.957 1.409-1.426 0.077 0.028 0.231 0.084 0.308 0.112 0.019 0.671 0.020 1.342 0.028 2.013-0.077-0.028-0.231-0.083-0.308-0.111-0.014-0.166-0.025-0.333-0.037-0.499-0.247-0.098-0.492-0.198-0.739-0.293-0.109 0.11-0.215 0.224-0.323 0.334-0.113-0.043-0.226-0.086-0.338-0.13M18.693 8.502c0.16 0.065 0.32 0.13 0.481 0.195-0.003-0.224-0.007-0.449-0.011-0.672-0.157 0.158-0.315 0.317-0.47 0.477z"></path>
<path fill="#fff" d="M5.108 11.508c1.086-1.115 2.984-1.249 4.25-0.367 0.797 0.538 1.281 1.497 1.239 2.458-0.046 2.583-1.455 5.066-3.564 6.534-0.235-0.411-0.469-0.824-0.7-1.237 0.959-0.738 1.744-1.694 2.226-2.807-1.339 0.329-2.929-0.012-3.749-1.192-0.76-1.005-0.602-2.523 0.298-3.389M6.839 12.153c-0.654 0.188-1.225 0.889-0.975 1.587 0.354 0.901 1.548 1.185 2.381 0.815 0.597-0.209 1.082-0.89 0.825-1.524-0.349-0.833-1.415-1.151-2.231-0.878z"></path>
<path fill="#fff" d="M13.199 11.498c1.075-1.093 2.934-1.233 4.197-0.386 0.822 0.531 1.325 1.508 1.282 2.487-0.046 2.583-1.456 5.064-3.563 6.535-0.236-0.412-0.469-0.825-0.702-1.238 0.96-0.737 1.744-1.694 2.227-2.807-1.337 0.328-2.923-0.010-3.745-1.186-0.767-1.009-0.606-2.539 0.304-3.405M14.936 12.147c-0.669 0.184-1.256 0.908-0.982 1.617 0.371 0.89 1.558 1.159 2.387 0.785 0.589-0.213 1.062-0.885 0.812-1.514-0.344-0.83-1.402-1.152-2.217-0.888z"></path>
<path fill="#515151" opacity="0.8" d="M10.199 0.513c0.072-0.126 0.179-0.17 0.32-0.132-0.075 0.121-0.182 0.165-0.32 0.132z"></path>
<path fill="#006b54" d="M11.339 0.839c0.107-0.040 0.214-0.040 0.322 0 2.914 0.99 5.518 2.869 7.376 5.322 2.045 2.656 3.186 5.987 3.213 9.339 0.003 1.368 0.010 2.737-0.003 4.105-0.025 1.297-1.001 2.493-2.263 2.788-5.551 1.133-11.33 1.139-16.884 0.018-1.289-0.276-2.318-1.482-2.347-2.806-0.013-1.368-0.005-2.737-0.003-4.106 0.025-3.232 1.085-6.448 2.999-9.053 1.873-2.59 4.561-4.582 7.59-5.607M9.67 6.158c0.042 0.612 0.084 1.225 0.13 1.838 0.083-0.005 0.249-0.014 0.332-0.018-0.016-0.269-0.037-0.538-0.053-0.806 0.191-0.015 0.381-0.029 0.572-0.044-0.006-0.082-0.017-0.247-0.022-0.329-0.191 0.011-0.382 0.024-0.572 0.036-0.012-0.124-0.022-0.247-0.032-0.37 0.35-0.025 0.7-0.051 1.050-0.079-0.012-0.11-0.023-0.219-0.034-0.329-0.457 0.033-0.914 0.066-1.371 0.101M11.927 6.128c-0.619 0.332-0.63 1.416-0.024 1.768 0.494 0.275 1.077-0.165 1.093-0.693 0.178-0.62-0.402-1.397-1.069-1.075M8.771 6.263c0.075 0.608 0.149 1.216 0.224 1.824 0.080-0.008 0.241-0.025 0.321-0.033-0.063-0.615-0.14-1.229-0.223-1.841-0.107 0.016-0.215 0.033-0.322 0.050M13.665 6.178c-0.088 0.61-0.173 1.22-0.257 1.83 0.081 0.013 0.242 0.037 0.323 0.050 0.040-0.24 0.067-0.482 0.108-0.722 0.161 0.021 0.323 0.044 0.485 0.069 0.066 0.253 0.13 0.507 0.197 0.761 0.12 0.017 0.24 0.033 0.361 0.049-0.070-0.259-0.139-0.519-0.207-0.779 0.225-0.199 0.468-0.494 0.3-0.809-0.249-0.462-0.877-0.34-1.31-0.449M6.981 6.561c0.106 0.609 0.229 1.215 0.346 1.822 0.45-0.091 0.9-0.18 1.351-0.266-0.011-0.070-0.034-0.208-0.046-0.278-0.345 0.060-0.691 0.124-1.035 0.195-0.1-0.51-0.198-1.020-0.299-1.53-0.079 0.015-0.238 0.043-0.317 0.057M15.698 6.489c-0.152 0.597-0.3 1.195-0.447 1.793 0.078 0.021 0.233 0.062 0.311 0.083 0.105-0.409 0.204-0.819 0.311-1.226 0.188 0.479 0.364 0.964 0.552 1.444 0.067 0.015 0.202 0.044 0.27 0.058 0.15-0.595 0.297-1.192 0.446-1.787-0.102-0.029-0.205-0.057-0.307-0.085-0.099 0.391-0.196 0.784-0.296 1.175-0.178-0.455-0.351-0.913-0.524-1.371-0.105-0.028-0.211-0.056-0.316-0.084M5.404 7.098c-0.084 0.621-0.125 1.248-0.195 1.871 0.114-0.032 0.228-0.066 0.341-0.103 0.018-0.157 0.037-0.314 0.054-0.471 0.253-0.079 0.506-0.157 0.76-0.233 0.107 0.122 0.215 0.243 0.322 0.364 0.107-0.037 0.214-0.075 0.321-0.112-0.403-0.477-0.783-0.974-1.199-1.44-0.103-0.138-0.413-0.067-0.404 0.124M17.723 7.025c-0.191 0.586-0.383 1.172-0.568 1.761 0.104 0.032 0.209 0.063 0.314 0.095 0.187-0.588 0.381-1.173 0.567-1.761-0.105-0.032-0.209-0.064-0.313-0.095M3.167 8.068c-0.132 0.581 0.265 1.391 0.935 1.352 0.388-0.018 0.625-0.358 0.762-0.683-0.079-0.011-0.237-0.034-0.316-0.046-0.151 0.191-0.328 0.485-0.62 0.382-0.344-0.151-0.517-0.609-0.42-0.96 0.124-0.321 0.512-0.23 0.773-0.186 0.029-0.097 0.063-0.192 0.1-0.286-0.428-0.233-1.080-0.085-1.214 0.427M17.772 8.959c0.112 0.044 0.225 0.087 0.338 0.13 0.108-0.11 0.214-0.224 0.323-0.334 0.247 0.095 0.492 0.195 0.739 0.293 0.012 0.166 0.023 0.333 0.037 0.499 0.077 0.028 0.231 0.083 0.308 0.111-0.008-0.671-0.009-1.342-0.028-2.013-0.077-0.028-0.231-0.084-0.308-0.112-0.475 0.469-0.941 0.948-1.409 1.426M5.108 11.508c-0.9 0.866-1.058 2.384-0.298 3.389 0.82 1.18 2.41 1.521 3.749 1.192-0.482 1.113-1.267 2.069-2.226 2.807 0.231 0.413 0.465 0.826 0.7 1.237 2.109-1.468 3.518-3.951 3.564-6.534 0.042-0.961-0.442-1.92-1.239-2.458-1.266-0.882-3.164-0.748-4.25 0.367M13.199 11.498c-0.91 0.866-1.071 2.396-0.304 3.405 0.822 1.176 2.408 1.514 3.745 1.186-0.483 1.113-1.267 2.070-2.227 2.807 0.233 0.413 0.466 0.826 0.702 1.238 2.107-1.471 3.517-3.952 3.563-6.535 0.043-0.979-0.46-1.956-1.282-2.487-1.263-0.847-3.122-0.707-4.197 0.386z"></path>
<path fill="#006b54" d="M12.041 6.447c0.822-0.384 0.883 1.388 0.067 1.178-0.427-0.195-0.403-0.905-0.067-1.178z"></path>
<path fill="#006b54" d="M13.88 7.017c0.023-0.159 0.045-0.318 0.068-0.476 0.249 0.075 0.847 0.007 0.728 0.423-0.19 0.234-0.54 0.043-0.796 0.053z"></path>
<path fill="#006b54" d="M5.709 7.369c0.141 0.172 0.283 0.343 0.424 0.515-0.165 0.050-0.328 0.099-0.492 0.148 0.022-0.221 0.045-0.442 0.068-0.663z"></path>
<path fill="#006b54" d="M18.693 8.502c0.155-0.16 0.313-0.319 0.47-0.477 0.004 0.223 0.008 0.448 0.011 0.672-0.161-0.065-0.321-0.13-0.481-0.195z"></path>
<path fill="#006b54" d="M6.839 12.153c0.816-0.273 1.882 0.045 2.231 0.878 0.257 0.634-0.228 1.315-0.825 1.524-0.833 0.37-2.027 0.086-2.381-0.815-0.25-0.698 0.321-1.399 0.975-1.587z"></path>
<path fill="#006b54" d="M14.936 12.147c0.815-0.264 1.873 0.058 2.217 0.888 0.25 0.629-0.223 1.301-0.812 1.514-0.829 0.374-2.016 0.105-2.387-0.785-0.274-0.709 0.313-1.433 0.982-1.617z"></path>
<path fill="#4d4d4d" opacity="0.78" d="M5.979 3.046c0.048-0.163 0.189-0.273 0.358-0.284-0.060 0.154-0.196 0.259-0.358 0.284z"></path>
<path fill="#444" opacity="0.77" d="M3.167 6.043c0.005-0.17 0.112-0.314 0.275-0.364-0.024 0.162-0.123 0.3-0.275 0.364z"></path>
<path fill="#434343" opacity="0.76" d="M19.558 5.679c0.162 0.050 0.268 0.195 0.274 0.364-0.152-0.064-0.251-0.202-0.274-0.364z"></path>
<path fill="#404040" opacity="0.78" d="M0.765 10.709c-0.014-0.131 0.035-0.231 0.149-0.299 0.041 0.154-0.008 0.254-0.149 0.299z"></path>
<path fill="#404040" opacity="0.76" d="M0.589 11.426c-0.049-0.164 0.004-0.34 0.154-0.43 0.014 0.16-0.032 0.321-0.154 0.43z"></path>
<path fill="#2f2f2f" opacity="0.77" d="M9.24 23.897c1.551 0.008 3.103 0.020 4.655-0.007l-0.183 0.11h-4.668l0.196-0.103z"></path>
</svg>
