<!-- Generated by IcoMoon.io -->
<svg version="1.1" xmlns="http://www.w3.org/2000/svg" width="21" height="24" viewBox="0 0 21 24">
<title>information--stairs--g3</title>
<path fill="#fcfbfb" d="M0 0h21.444v1.261l-0.081-0.178c-0.249-0.66-0.92-1.044-1.616-0.969-6.064 0.033-12.129-0.060-18.192 0.050-0.697-0.077-1.254 0.42-1.555 1.001v-1.166z"></path>
<path fill="#4354a0" d="M0 1.166c0.301-0.581 0.858-1.078 1.555-1.001 6.062-0.109 12.128-0.017 18.192-0.050 0.696-0.075 1.368 0.308 1.616 0.969-0.047 7.332-0.138 14.67-0.003 21.999-0.182 0.328-0.399 0.635-0.646 0.917h-20.156c-0.186-0.257-0.372-0.514-0.558-0.773v-22.062M1.473 0.655c-0.611 0.187-1.058 0.825-1.015 1.467-0.001 6.679-0.021 13.359-0.020 20.038-0.108 0.811 0.574 1.636 1.403 1.62 5.827-0.001 11.653-0.031 17.48-0.033 0.819 0.037 1.684-0.562 1.633-1.45 0-6.817 0.040-13.635 0.017-20.451 0.016-1.008-1.089-1.423-1.941-1.294-5.851 0.082-11.712-0.017-17.557 0.102z"></path>
<path fill="#f2fbff" d="M1.473 0.655c5.845-0.119 11.706-0.020 17.557-0.102 0.852-0.129 1.957 0.285 1.941 1.294 0.023 6.817-0.017 13.635-0.017 20.451 0.051 0.888-0.814 1.487-1.633 1.45-5.827 0.001-11.654 0.031-17.48 0.033-0.829 0.016-1.511-0.809-1.403-1.62-0.001-6.679 0.018-13.359 0.020-20.038-0.043-0.642 0.405-1.28 1.015-1.467M1.522 1.091c-0.271 0.156-0.525 0.412-0.577 0.731-0.155 6.444-0.024 12.895-0.105 19.341-0.011 0.538 0.034 1.075 0.084 1.61 0.734 0.903 2.007 0.43 3.002 0.517 0.227-0.435 0.604-0.757 0.977-1.061 1.72-1.402 3.307-2.974 5.129-4.238 2.553-2.328 5.21-4.537 7.806-6.818 0.883-0.684 1.579-1.595 2.542-2.178 0.302-0.206 0.207-0.591 0.229-0.902-0.017-2.038-0.003-4.077-0.021-6.114 0.011-0.606-0.528-1.081-1.13-0.997-5.68 0.016-11.362 0.027-17.043 0.004-0.3 0.016-0.596 0.057-0.893 0.104M10.742 17.986c-0.256 0.237-0.55 0.429-0.875 0.557-1.761 1.649-3.671 3.133-5.459 4.753 5.066 0.057 10.128-0.053 15.192-0.061 0.571 0.031 0.971-0.542 0.916-1.078 0.007-4.253 0.033-8.508 0.010-12.761-3.221 2.91-6.557 5.689-9.785 8.59z"></path>
<path fill="#979fbf" d="M1.522 1.091c0.297-0.047 0.594-0.088 0.893-0.104 5.68 0.023 11.362 0.011 17.043-0.004 0.602-0.084 1.142 0.391 1.13 0.997 0.018 2.036 0.004 4.076 0.021 6.114-0.021 0.311 0.074 0.696-0.229 0.902 0.163-1.027 0.136-2.068 0.102-3.103-0.489 0.003-0.977 0.010-1.466 0.023-0.043 0.859-0.036 1.718-0.016 2.579-0.186-0.010-0.373-0.016-0.561-0.018 0.143-0.023 0.287-0.047 0.429-0.074 0.064-0.859 0.071-1.72 0.050-2.58 0.487-0.020 0.976-0.037 1.463-0.055 0.003-1.301 0.065-2.603 0.004-3.902-0.036-0.683-0.8-0.846-1.355-0.778-2.982 0.091-5.977-0.128-8.95 0.116-2.846-0.24-5.707-0.040-8.56-0.111z"></path>
<path fill="#2f4aba" d="M0.946 1.822c0.051-0.32 0.305-0.575 0.577-0.731 2.853 0.071 5.715-0.129 8.56 0.111-2.962 2.676-6.037 5.225-9.035 7.86-0.187-2.407-0.065-4.827-0.102-7.24z"></path>
<path fill="#fffffe" d="M10.083 1.201c2.972-0.244 5.967-0.026 8.95-0.116 0.555-0.068 1.319 0.095 1.355 0.778 0.061 1.299-0.001 2.602-0.004 3.902-0.487 0.018-0.976 0.036-1.463 0.055 0.021 0.861 0.014 1.721-0.050 2.58-0.142 0.027-0.285 0.051-0.429 0.074-0.825 0.006-1.65-0.003-2.474 0.013-0.006 0.893-0.007 1.786-0.017 2.68-1.017 0.011-2.035 0.009-3.052 0.017-0.001 0.88 0 1.76-0.014 2.64-1.005 0.003-2.012-0.020-3.019 0.001 0 0.858 0.006 1.716-0.009 2.572-1.022 0.006-2.045 0.007-3.067 0.016-0.011 0.849-0.011 1.698-0.021 2.548-0.959 0.006-1.916 0.007-2.874 0.007-0.004 0.886-0.004 1.772-0.010 2.658-0.944-0.098-1.894-0.075-2.843-0.074-0.006-4.164-0.001-8.328 0.007-12.491 2.998-2.636 6.072-5.185 9.035-7.86M9.001 3.337c-0.474 0.143-0.838 0.655-0.711 1.16 0.074 0.866 1.429 1.17 1.794 0.337 0.531-0.709-0.251-1.742-1.082-1.497M8.289 6.687c-0.098 1.387-1.839 2.213-1.588 3.624 0.168-0.010 0.337-0.009 0.504 0.006 0.322-0.43 0.633-0.871 0.953-1.304 0.178 2.36-0.175 4.764 0.172 7.095 0.207-0.009 0.413-0.007 0.621 0.003 0.095-0.129 0.203-0.246 0.321-0.352 0.016-1.047-0.013-2.095 0.026-3.141 0.476 0.294 0.889 0.687 1.389 0.94 0.433 0.080 0.801-0.298 0.633-0.731-0.613-0.65-1.44-1.057-2.052-1.713 0.452-0.628 1.315-1.143 1.177-2.022-0.053-0.863 0.062-1.737-0.062-2.593-0.344-0.949-1.963-0.841-2.093 0.189z"></path>
<path fill="#6c76b6" d="M21.363 1.084l0.081 0.178v21.66l-0.084 0.162c-0.135-7.329-0.044-14.667 0.003-21.999z"></path>
<path fill="#a0a4be" d="M0.841 21.163c0.081-6.446-0.050-12.896 0.105-19.341 0.037 2.413-0.085 4.833 0.102 7.24-0.009 4.164-0.013 8.328-0.007 12.491 0.949-0.001 1.899-0.024 2.843 0.074-0.969 0.070-1.94 0.040-2.91 0.062-0.016 0.361-0.031 0.721-0.050 1.084-0.050-0.535-0.095-1.072-0.084-1.61z"></path>
<path fill="#364eb9" d="M9.001 3.337c0.831-0.246 1.613 0.788 1.082 1.497-0.365 0.834-1.72 0.53-1.794-0.337-0.126-0.506 0.237-1.017 0.711-1.16z"></path>
<path fill="#334cba" d="M8.289 6.687c0.131-1.030 1.75-1.138 2.093-0.189 0.125 0.856 0.010 1.73 0.062 2.593 0.138 0.879-0.726 1.395-1.177 2.022 0.612 0.656 1.439 1.062 2.052 1.713 0.168 0.433-0.2 0.811-0.633 0.731-0.5-0.253-0.913-0.646-1.389-0.94-0.038 1.047-0.010 2.095-0.026 3.141-0.118 0.106-0.226 0.223-0.321 0.352-0.207-0.010-0.413-0.011-0.621-0.003-0.346-2.33 0.006-4.735-0.172-7.095-0.32 0.433-0.631 0.873-0.953 1.304-0.168-0.014-0.337-0.016-0.504-0.006-0.251-1.412 1.49-2.237 1.588-3.624z"></path>
<path fill="#314ab6" d="M19.018 5.915c0.489-0.013 0.977-0.020 1.466-0.023 0.034 1.035 0.061 2.076-0.102 3.103-0.963 0.584-1.659 1.494-2.542 2.178-2.596 2.281-5.253 4.49-7.806 6.818-1.822 1.264-3.41 2.836-5.129 4.238-0.373 0.304-0.75 0.626-0.977 1.061-0.996-0.087-2.268 0.386-3.002-0.517 0.018-0.362 0.034-0.723 0.050-1.084 0.97-0.023 1.941 0.007 2.91-0.062 0.006-0.886 0.006-1.772 0.010-2.658 0.959 0 1.916-0.001 2.874-0.007 0.010-0.849 0.010-1.698 0.021-2.548 1.022-0.009 2.045-0.010 3.067-0.016 0.014-0.856 0.009-1.714 0.009-2.572 1.007-0.021 2.014 0.001 3.019-0.001 0.014-0.88 0.013-1.76 0.014-2.64 1.017-0.009 2.035-0.006 3.052-0.017 0.010-0.893 0.011-1.787 0.017-2.68 0.824-0.016 1.649-0.007 2.474-0.013 0.187 0.003 0.375 0.009 0.561 0.018-0.020-0.861-0.027-1.72 0.016-2.579z"></path>
<path fill="#2d45b2" d="M10.742 17.986c3.228-2.901 6.564-5.68 9.785-8.59 0.023 4.253-0.003 8.508-0.010 12.761 0.055 0.535-0.345 1.109-0.916 1.078-5.064 0.009-10.127 0.118-15.192 0.061 1.788-1.62 3.698-3.104 5.459-4.753 0.325-0.128 0.619-0.32 0.875-0.557z"></path>
<path fill="#f5f8f2" d="M21.36 23.083l0.084-0.162v1.079h-0.73c0.247-0.283 0.464-0.589 0.646-0.917z"></path>
<path fill="#f4fcfa" d="M0 23.227c0.186 0.258 0.372 0.516 0.558 0.773h-0.558v-0.773z"></path>
</svg>
