<?xml version="1.0" encoding="utf-8"?>
<!-- Generated by IcoMoon.io -->
<!DOCTYPE svg PUBLIC "-//W3C//DTD SVG 1.1//EN" "http://www.w3.org/Graphics/SVG/1.1/DTD/svg11.dtd">
<svg version="1.1" xmlns="http://www.w3.org/2000/svg" xmlns:xlink="http://www.w3.org/1999/xlink" width="24" height="24" viewBox="0 0 24 24">
<path fill="#03408b" d="M3.938 0h16.125v24h-16.125v-24M8.363 1.994c-0.001 4.553 0 9.108-0.001 13.662 0.753 0 1.506 0 2.258 0 0-1.314-0.001-2.629 0-3.943 1.181-0.003 2.362 0.002 3.542-0.002 0.803-0.064 1.468-0.647 1.868-1.313 0.72-1.135 0.893-2.512 0.862-3.83-0.029-0.85-0.012-1.746-0.4-2.527-0.355-0.78-0.984-1.431-1.747-1.822-0.351-0.185-0.757-0.227-1.147-0.227-1.746 0.002-3.491 0-5.236 0.001M12.501 18.469c0.031 0.559 0.166 1.107 0.176 1.668-1.812 0.004-3.623 0-5.436 0.002-0.001 0.541-0.001 1.082 0 1.623 1.813 0.005 3.626-0.008 5.439 0.007-0.022 0.562-0.15 1.112-0.18 1.672 0.026 0.232 0.325 0.287 0.482 0.146 1.456-0.883 2.917-1.759 4.375-2.638-1.483-0.883-2.949-1.793-4.438-2.665-0.154-0.112-0.411-0.012-0.419 0.187z"></path>
<path fill="#03408b" d="M10.623 4.437c0.926 0.007 1.853-0.012 2.779 0.027 0.622-0.007 1.168 0.546 1.234 1.148 0.1 0.721 0.114 1.455 0.053 2.181-0.073 0.543-0.298 1.138-0.811 1.407-0.2 0.127-0.444 0.112-0.671 0.126-0.861 0.021-1.722 0.027-2.584 0.030-0.001-1.64-0.001-3.279 0-4.919z"></path>
<path fill="#fff" d="M8.363 1.994c1.745-0.001 3.49 0.001 5.236-0.001 0.39 0 0.796 0.042 1.147 0.227 0.762 0.391 1.391 1.042 1.747 1.822 0.388 0.781 0.371 1.676 0.4 2.527 0.032 1.318-0.142 2.694-0.862 3.83-0.4 0.667-1.066 1.25-1.868 1.313-1.18 0.004-2.361-0.001-3.542 0.002-0.001 1.314 0 2.629 0 3.943-0.753 0-1.506 0-2.258 0 0.001-4.554 0-9.109 0.001-13.662M10.623 4.437c-0.001 1.64-0.001 3.279 0 4.919 0.862-0.003 1.723-0.009 2.584-0.030 0.227-0.013 0.472 0.001 0.671-0.126 0.513-0.269 0.738-0.864 0.811-1.407 0.061-0.726 0.047-1.46-0.053-2.181-0.066-0.603-0.612-1.156-1.234-1.148-0.925-0.039-1.852-0.020-2.779-0.027z"></path>
<path fill="#fff" d="M12.501 18.469c0.008-0.199 0.265-0.299 0.419-0.187 1.489 0.872 2.955 1.782 4.438 2.665-1.459 0.879-2.919 1.755-4.375 2.638-0.157 0.141-0.456 0.085-0.482-0.146 0.030-0.56 0.158-1.11 0.18-1.672-1.813-0.014-3.626-0.002-5.439-0.007-0.001-0.541-0.001-1.082 0-1.623 1.812-0.002 3.623 0.002 5.436-0.002-0.010-0.561-0.145-1.109-0.176-1.668z"></path>
</svg>
