<!-- Generated by IcoMoon.io -->
<svg version="1.1" xmlns="http://www.w3.org/2000/svg" width="18" height="24" viewBox="0 0 18 24">
<title>information--end-of-tunnel--g1</title>
<path fill="#000090" d="M0 0h16.726c-1.466 1.806-2.743 3.762-4.185 5.589-0.534 0.303-0.928 0.789-1.344 1.229-0.195 0.184-0.115 0.452-0.029 0.666-0.052 0.070-0.104 0.141-0.155 0.212-0.751-0.466-1.627-0.783-2.521-0.714-1.48 0.119-2.817 1.102-3.487 2.41-0.221 0.391-0.143 0.855-0.151 1.285 0.037 0.77-0.257 1.534-0.054 2.3 0.219 1.078-0.156 2.155-0.028 3.229-0.052 0.071-0.103 0.143-0.154 0.215-0.078-0.235-0.202-0.518-0.504-0.472-0.602 0.047-1.276-0.135-1.832 0.114-0.312 0.595-0.082 1.35-0.139 2.006-0.014 0.496 0.55 0.477 0.903 0.488-1.011 1.386-2.031 2.765-3.044 4.15v-22.708M7.696 4.236c-0.413 0.256-0.206 0.837-0.256 1.239 0.020 0.402-0.14 1.072 0.404 1.178 0.629 0.030 1.273 0.067 1.896-0.026 0.486-0.199 0.266-0.838 0.315-1.244-0.026-0.397 0.143-1.058-0.385-1.181-0.653-0.026-1.329-0.078-1.974 0.033M5.148 5.372c0.561 0.586 1.436 1.055 1.554 1.921 0.303-0.167 0.621-0.307 0.954-0.407-0.787-0.536-0.293-1.635-0.427-2.426-0.757 0.128-1.435 0.516-2.081 0.913M10.282 4.455c-0.128 0.8 0.353 1.884-0.433 2.435 0.329 0.109 0.65 0.241 0.957 0.402 0.035-0.224 0.038-0.48 0.222-0.641 0.444-0.429 0.854-0.894 1.33-1.287-0.639-0.408-1.327-0.766-2.077-0.91M4.094 6.193c-0.308 0.391-0.893 0.651-0.871 1.214 0.428 0.436 0.841 0.892 1.301 1.293 0.514 0.29 0.843-0.348 1.176-0.627 0.264-0.335 0.879-0.623 0.677-1.126-0.381-0.464-0.829-0.881-1.27-1.288-0.437-0.251-0.731 0.291-1.013 0.534M2.289 9.108c0.816 0.034 1.76-0.259 2.465 0.272 0.052-0.111 0.104-0.223 0.155-0.334-0.863-0.075-1.226-1.059-1.891-1.445-0.368 0.4-0.542 0.989-0.729 1.508M2.416 9.373c-0.15 0.068-0.296 0.211-0.278 0.389-0.005 0.579-0.007 1.16 0.001 1.739-0.008 0.256 0.266 0.445 0.505 0.431 0.516 0.004 1.033 0.016 1.548-0.006 0.254-0.010 0.414-0.282 0.412-0.516 0.011-0.518 0.008-1.038 0.002-1.556 0.019-0.271-0.219-0.534-0.496-0.506-0.564 0.006-1.133-0.037-1.694 0.026M2.207 12.464c0.762-0.057 1.529-0.039 2.291-0.012-0.001-0.076-0.004-0.227-0.005-0.303-0.756 0.007-1.528 0.092-2.275-0.057-0.004 0.123-0.007 0.247-0.012 0.371M2.497 12.642c-0.173 0.053-0.361 0.204-0.357 0.402-0.014 0.551-0.005 1.103-0.005 1.654-0.021 0.236 0.156 0.526 0.416 0.508 0.55 0.004 1.101 0.010 1.651-0.004 0.305 0.006 0.424-0.35 0.405-0.603-0.008-0.546 0.030-1.098-0.053-1.639-0.034-0.25-0.309-0.353-0.532-0.338-0.508 0.005-1.020-0.031-1.526 0.018M2.2 15.77c0.755-0.137 1.542-0.136 2.298-0.006-0.001-0.108-0.002-0.214-0.003-0.321-0.753 0.015-1.537 0.128-2.272-0.067-0.007 0.131-0.015 0.263-0.023 0.394z"></path>
<path fill="#000090" d="M13.915 6.658c1.372-1.915 2.821-3.775 4.154-5.716v22.905c-0.129-0.027-0.178 0.024-0.149 0.153h-16.839c0.356-0.293 0.6-0.691 0.871-1.057 1.023-1.391 2.043-2.783 3.065-4.175 2.703 0.006 5.407-0.013 8.11 0.010-0.164-0.157-0.395-0.291-0.433-0.535-0.1-0.911 0.015-1.825 0.063-2.734-0.082-0.896-0.159-1.802-0.035-2.699 0.12-0.803-0.129-1.602-0.054-2.407 0.067-0.529-0.155-1.021-0.432-1.456 0.056-0.077 0.112-0.152 0.168-0.228 0.556 0.191 0.873-0.337 1.218-0.662 0.229-0.24 0.505-0.451 0.652-0.756 0.019-0.268-0.215-0.449-0.36-0.644M12.596 9.041c0.051 0.118 0.102 0.236 0.153 0.355 0.673-0.574 1.642-0.236 2.447-0.292-0.167-0.55-0.399-1.080-0.704-1.569-0.636 0.488-1.042 1.397-1.897 1.506M13.183 9.371c-0.148 0.069-0.284 0.216-0.278 0.39-0.014 0.55-0.005 1.102-0.005 1.654-0.031 0.279 0.233 0.544 0.512 0.518 0.516 0.002 1.032 0.016 1.548-0.008 0.253-0.010 0.419-0.279 0.408-0.515 0.011-0.518 0.005-1.038 0.003-1.557 0.037-0.277-0.221-0.527-0.494-0.506-0.564 0.007-1.132-0.035-1.694 0.025M13.022 12.151c-0.002 0.074-0.004 0.223-0.005 0.297 0.756-0.023 1.514-0.041 2.269 0.012-0.001-0.091-0.004-0.275-0.005-0.367-0.742 0.146-1.508 0.061-2.259 0.057M12.906 13.059c-0.017 0.546-0.006 1.093-0.006 1.639-0.022 0.239 0.155 0.532 0.421 0.509 0.604 0.010 1.209-0.002 1.814 0 0.388-0.412 0.19-1.013 0.237-1.519-0.012-0.36 0.113-0.916-0.357-1.032-0.499-0.081-1.011-0.025-1.515-0.037-0.269-0.029-0.589 0.146-0.594 0.441M13.021 15.446c0 0.101 0 0.203 0 0.304 0.748-0.109 1.518-0.109 2.264 0.012 0-0.11 0-0.219 0.001-0.329-0.752 0.067-1.511 0.053-2.265 0.013M13.157 15.985c-0.164 0.078-0.267 0.256-0.256 0.438-0.005 0.549-0.009 1.1 0.002 1.649-0.008 0.226 0.182 0.45 0.418 0.432 0.548 0.012 1.098 0.009 1.647 0.002 0.273 0.021 0.409-0.297 0.401-0.527-0.002-0.548 0.022-1.099-0.014-1.646-0.020-0.335-0.39-0.42-0.663-0.39-0.51 0.032-1.033-0.046-1.535 0.042z"></path>
<path fill="#000090" d="M7.915 7.254c1.025-0.262 2.124 0.004 2.986 0.597-1.928 2.644-3.864 5.282-5.811 7.911-0.028-1.664-0.007-3.33-0.012-4.994 0.017-1.633 1.234-3.167 2.837-3.513z"></path>
<path fill="#000090" d="M10.285 11.636c0.548-0.832 1.166-1.615 1.753-2.42 0.353 0.706 0.394 1.508 0.395 2.282-0.006 2.338 0.005 4.677-0.005 7.016-2.409 0.064-4.822 0.012-7.233 0.026 0.041-0.050 0.082-0.099 0.124-0.149 0.416-0.127 0.727-0.437 1.058-0.703 1.232-1.028 2.557-1.95 3.73-3.044-0.165 0.046-0.342 0.078-0.482 0.186-1.33 1.035-2.622 2.122-3.976 3.125 1.386-1.978 2.833-3.916 4.281-5.849-0.035 0.806-0.015 1.613-0.016 2.42 0.671 0.003 1.342 0.004 2.013-0.001-0.011-0.786 0.038-1.575-0.019-2.358-0.164-0.698-1.063-0.882-1.623-0.533M10.472 15.212c-0.558 1.064-1.174 2.098-1.712 3.172 0.235-0.077 0.323-0.313 0.433-0.51 0.574-1.078 1.192-2.133 1.742-3.223-0.255 0.084-0.344 0.35-0.463 0.561M11.724 14.794c0.112 1.081 0.262 2.159 0.366 3.242 0.005 0.134 0.046 0.26 0.14 0.36 0.118-1.201-0.116-2.393-0.241-3.583 0.006-0.189-0.275-0.21-0.265-0.020z"></path>
<path fill="#c00" d="M16.726 0h0.955c0.137 0.187 0.273 0.377 0.388 0.579v0.362c-1.333 1.941-2.781 3.802-4.154 5.716-0.506 0.684-1.017 1.367-1.509 2.061-0.056 0.076-0.112 0.151-0.168 0.228-0.067 0.089-0.132 0.179-0.199 0.268-0.587 0.805-1.205 1.588-1.753 2.42-0.116 0.159-0.233 0.317-0.355 0.472-1.447 1.933-2.895 3.87-4.281 5.849-0.113 0.142-0.222 0.289-0.33 0.435-0.042 0.049-0.083 0.099-0.124 0.149-0.061 0.075-0.12 0.151-0.178 0.228-1.022 1.392-2.042 2.784-3.065 4.175-0.271 0.366-0.516 0.764-0.871 1.057h-0.847c0.058-0.135-0.103-0.281-0.234-0.226v-1.066c1.013-1.385 2.033-2.764 3.044-4.15 0.526-0.711 1.048-1.424 1.572-2.136 0.051-0.072 0.102-0.144 0.154-0.215 0.106-0.149 0.213-0.297 0.319-0.444 1.947-2.629 3.883-5.267 5.811-7.911 0.036-0.051 0.074-0.103 0.111-0.154 0.051-0.071 0.103-0.141 0.155-0.212 0.469-0.623 0.944-1.244 1.373-1.895 1.442-1.827 2.718-3.783 4.185-5.589z"></path>
<path fill="#00006b" opacity="0.75" d="M17.681 0h0.388v0.579c-0.115-0.203-0.251-0.392-0.388-0.579z"></path>
<path fill="#fefefe" d="M7.696 4.236c0.645-0.11 1.32-0.058 1.974-0.033 0.528 0.123 0.36 0.784 0.385 1.181-0.049 0.406 0.172 1.045-0.315 1.244-0.623 0.092-1.268 0.056-1.896 0.026-0.544-0.106-0.384-0.776-0.404-1.178 0.050-0.402-0.157-0.983 0.256-1.239z"></path>
<path fill="#fefefe" d="M5.148 5.372c0.645-0.397 1.323-0.785 2.081-0.913 0.134 0.791-0.36 1.891 0.427 2.426-0.332 0.1-0.651 0.24-0.954 0.407-0.118-0.866-0.993-1.335-1.554-1.921z"></path>
<path fill="#fefefe" d="M10.282 4.455c0.75 0.144 1.438 0.502 2.077 0.91-0.476 0.392-0.887 0.858-1.331 1.287-0.183 0.161-0.187 0.417-0.222 0.641-0.308-0.162-0.628-0.294-0.957-0.402 0.786-0.55 0.305-1.634 0.433-2.435z"></path>
<path fill="#fefefe" d="M4.094 6.193c0.282-0.243 0.576-0.785 1.013-0.534 0.442 0.407 0.889 0.824 1.27 1.288 0.202 0.503-0.413 0.791-0.677 1.126-0.333 0.279-0.663 0.917-1.176 0.627-0.46-0.402-0.873-0.857-1.301-1.293-0.022-0.563 0.564-0.823 0.871-1.214z"></path>
<path fill="#fefefe" d="M12.405 8.719c0.493-0.694 1.003-1.377 1.509-2.061 0.145 0.195 0.38 0.376 0.36 0.644-0.147 0.305-0.423 0.516-0.652 0.756-0.345 0.325-0.663 0.852-1.218 0.662z"></path>
<path fill="#fefefe" d="M2.289 9.108c0.187-0.518 0.361-1.108 0.729-1.508 0.665 0.386 1.028 1.371 1.891 1.445-0.051 0.111-0.103 0.223-0.155 0.334-0.704-0.531-1.649-0.238-2.465-0.272z"></path>
<path fill="#fefefe" d="M12.596 9.041c0.855-0.109 1.261-1.017 1.897-1.506 0.305 0.489 0.537 1.018 0.704 1.569-0.806 0.056-1.774-0.282-2.447 0.292-0.051-0.119-0.102-0.237-0.153-0.355z"></path>
<path fill="#fefefe" d="M2.416 9.373c0.56-0.063 1.13-0.019 1.694-0.026 0.276-0.027 0.515 0.235 0.496 0.506 0.006 0.518 0.009 1.038-0.002 1.556 0.002 0.234-0.159 0.506-0.412 0.516-0.515 0.022-1.032 0.010-1.548 0.006-0.238 0.015-0.513-0.175-0.505-0.431-0.008-0.579-0.006-1.16-0.001-1.739-0.017-0.178 0.129-0.32 0.278-0.389z"></path>
<path fill="#fefefe" d="M13.183 9.371c0.561-0.059 1.13-0.017 1.694-0.025 0.273-0.021 0.531 0.229 0.494 0.506 0.002 0.519 0.008 1.038-0.003 1.557 0.011 0.235-0.155 0.505-0.408 0.515-0.516 0.024-1.032 0.010-1.548 0.008-0.279 0.026-0.543-0.239-0.512-0.518 0-0.551-0.009-1.103 0.005-1.654-0.005-0.173 0.13-0.32 0.278-0.39z"></path>
<path fill="#fefefe" d="M10.285 11.636c0.56-0.349 1.459-0.165 1.623 0.533 0.057 0.783 0.008 1.572 0.019 2.358-0.671 0.005-1.342 0.004-2.013 0.001 0.001-0.807-0.019-1.614 0.016-2.42 0.122-0.155 0.239-0.313 0.355-0.472z"></path>
<path fill="#fefefe" d="M2.207 12.464c0.005-0.124 0.008-0.248 0.012-0.371 0.747 0.149 1.518 0.064 2.275 0.057 0.001 0.076 0.004 0.227 0.005 0.303-0.763-0.027-1.529-0.046-2.291 0.012z"></path>
<path fill="#fefefe" d="M13.022 12.151c0.751 0.004 1.517 0.089 2.259-0.057 0.002 0.092 0.005 0.276 0.005 0.367-0.755-0.053-1.513-0.035-2.269-0.012 0.001-0.075 0.003-0.224 0.005-0.297z"></path>
<path fill="#fefefe" d="M2.497 12.642c0.506-0.049 1.017-0.014 1.526-0.018 0.223-0.016 0.498 0.088 0.532 0.338 0.083 0.541 0.045 1.093 0.053 1.639 0.019 0.254-0.1 0.61-0.405 0.603-0.55 0.014-1.101 0.007-1.651 0.004-0.26 0.017-0.437-0.272-0.416-0.508 0-0.551-0.009-1.103 0.005-1.654-0.005-0.198 0.183-0.349 0.357-0.402z"></path>
<path fill="#fefefe" d="M12.906 13.059c0.005-0.295 0.325-0.47 0.594-0.441 0.504 0.013 1.016-0.044 1.515 0.037 0.47 0.116 0.345 0.672 0.357 1.032-0.047 0.506 0.151 1.108-0.237 1.519-0.605-0.002-1.21 0.010-1.814 0-0.266 0.023-0.443-0.27-0.421-0.509 0-0.546-0.011-1.093 0.006-1.639z"></path>
<path fill="#fefefe" d="M2.28 16.064c0.557-0.249 1.23-0.067 1.832-0.114 0.302-0.047 0.426 0.236 0.504 0.472-0.525 0.712-1.047 1.425-1.572 2.136-0.352-0.011-0.916 0.007-0.903-0.488 0.057-0.656-0.173-1.411 0.139-2.006z"></path>
<path fill="#fefefe" d="M13.157 15.985c0.502-0.088 1.025-0.010 1.535-0.042 0.274-0.030 0.643 0.055 0.663 0.39 0.036 0.548 0.012 1.098 0.014 1.646 0.008 0.23-0.128 0.548-0.401 0.527-0.549 0.007-1.099 0.010-1.647-0.002-0.236 0.018-0.426-0.205-0.418-0.432-0.011-0.549-0.007-1.1-0.002-1.649-0.012-0.183 0.091-0.36 0.256-0.438z"></path>
<path fill="#fefffe" d="M11.197 6.819c0.416-0.44 0.81-0.926 1.344-1.229-0.43 0.652-0.904 1.272-1.373 1.895-0.086-0.214-0.166-0.482 0.029-0.666z"></path>
<path fill="#fff" d="M5.004 9.393c0.67-1.308 2.007-2.291 3.487-2.41 0.894-0.069 1.77 0.247 2.521 0.714-0.037 0.051-0.075 0.103-0.111 0.154-0.861-0.593-1.961-0.859-2.986-0.597-1.603 0.346-2.82 1.88-2.837 3.513 0.005 1.664-0.016 3.33 0.012 4.994-0.107 0.148-0.214 0.296-0.319 0.444-0.128-1.074 0.247-2.151 0.028-3.229-0.204-0.766 0.091-1.529 0.054-2.3 0.008-0.43-0.069-0.893 0.151-1.285z"></path>
<path fill="#fff" d="M12.038 9.216c0.067-0.089 0.132-0.179 0.199-0.268 0.276 0.434 0.498 0.926 0.432 1.456-0.075 0.806 0.173 1.604 0.054 2.407-0.124 0.897-0.047 1.803 0.035 2.699-0.048 0.909-0.163 1.823-0.063 2.734 0.037 0.244 0.268 0.378 0.433 0.535-2.703-0.023-5.407-0.004-8.11-0.010 0.057-0.078 0.117-0.153 0.178-0.228 2.411-0.015 4.824 0.037 7.233-0.026 0.010-2.339-0.001-4.678 0.005-7.016-0.001-0.775-0.042-1.576-0.395-2.282z"></path>
<path fill="#fff" d="M11.724 14.794c-0.010-0.19 0.271-0.169 0.265 0.020 0.125 1.19 0.359 2.382 0.241 3.583-0.094-0.1-0.135-0.226-0.14-0.36-0.104-1.083-0.254-2.161-0.366-3.242z"></path>
<path fill="#fbfbfc" d="M9.626 14.831c0.14-0.109 0.317-0.141 0.482-0.186-1.174 1.094-2.499 2.017-3.73 3.044-0.33 0.266-0.642 0.576-1.058 0.703 0.109-0.146 0.217-0.293 0.33-0.435 1.354-1.004 2.645-2.091 3.976-3.125z"></path>
<path fill="#fbfbfc" d="M10.472 15.212c0.119-0.212 0.208-0.477 0.463-0.561-0.55 1.091-1.168 2.145-1.742 3.223-0.11 0.197-0.198 0.433-0.433 0.51 0.537-1.074 1.154-2.108 1.712-3.172z"></path>
<path fill="#fbfbfc" d="M2.2 15.77c0.008-0.131 0.016-0.263 0.023-0.394 0.736 0.194 1.519 0.081 2.272 0.067 0.001 0.107 0.002 0.214 0.003 0.321-0.756-0.13-1.543-0.13-2.298 0.006z"></path>
<path fill="#fbfbfc" d="M13.021 15.446c0.754 0.040 1.513 0.054 2.265-0.013-0.001 0.11-0.001 0.219-0.001 0.329-0.746-0.12-1.516-0.12-2.264-0.012 0-0.101 0-0.203 0-0.304z"></path>
<path fill="#26006e" opacity="0.95" d="M0 23.774c0.131-0.055 0.292 0.091 0.234 0.226h-0.234v-0.226z"></path>
<path fill="#000010" opacity="0.11" d="M17.92 24c-0.029-0.13 0.020-0.181 0.149-0.153v0.153h-0.149z"></path>
</svg>
