<!-- Generated by IcoMoon.io -->
<svg version="1.1" xmlns="http://www.w3.org/2000/svg" width="24" height="24" viewBox="0 0 24 24">
<title>information--end-of-minimum-speed-75--g1</title>
<path fill="#fff" d="M11.092 0h1.843c1.755 0.161 3.488 0.663 5.016 1.552 2.505 1.42 4.466 3.772 5.407 6.494 0.349 0.982 0.542 2.012 0.642 3.048v1.84c-0.162 1.755-0.664 3.489-1.553 5.017-1.535 2.714-4.167 4.783-7.171 5.621-0.761 0.224-1.547 0.338-2.333 0.428h-1.877c-1.721-0.157-3.417-0.648-4.925-1.499-2.644-1.473-4.697-3.974-5.604-6.864-0.285-0.873-0.437-1.783-0.536-2.693v-1.88c0.094-0.877 0.237-1.752 0.503-2.595 0.835-2.746 2.7-5.16 5.139-6.673 1.634-1.035 3.527-1.632 5.451-1.795M5.398 2.681c-2.502 1.757-4.239 4.558-4.69 7.583-0.497 3.137 0.4 6.457 2.408 8.918l-0.039 0.038c0.556 0.579 1.126 1.148 1.704 1.705l0.039-0.040c1.207 0.971 2.608 1.703 4.102 2.115 3.261 0.936 6.926 0.302 9.68-1.68 2.47-1.736 4.196-4.49 4.672-7.473 0.535-3.169-0.359-6.538-2.389-9.027l0.039-0.038c-0.556-0.579-1.125-1.148-1.704-1.705l-0.038 0.040c-1.237-0.997-2.678-1.739-4.214-2.148-3.235-0.889-6.847-0.247-9.57 1.713z"></path>
<path fill="#fff" d="M4.36 5.664c2.425-0.002 4.85-0.003 7.275 0 0.005 0.565-0.001 1.13 0.003 1.695 0.015 0.225-0.114 0.42-0.184 0.624-0.606 1.56-1.245 3.108-1.829 4.675-1.144 1.171-2.303 2.331-3.474 3.474 1.096-2.872 2.258-5.72 3.374-8.585-1.094-0.001-2.188-0.002-3.282 0-0.002 0.609 0.003 1.219-0.002 1.828-0.627 0.003-1.253 0.003-1.88 0-0.004-1.238-0.004-2.475 0-3.713z"></path>
<path fill="#fff" d="M12.874 5.664c1.252-0.001 2.504-0.007 3.756 0.003-1.249 1.253-2.499 2.504-3.753 3.752-0.011-1.252-0.004-2.503-0.003-3.755z"></path>
<path fill="#fff" d="M18.159 7.544c0.507-0.51 1.015-1.018 1.525-1.525 0.008 0.509 0.004 1.018 0.003 1.527-0.51 0.001-1.019 0.003-1.528-0.002z"></path>
<path fill="#fff" d="M16.002 9.703c0.692-0.108 1.428-0.057 2.058 0.27 1.029 0.481 1.716 1.561 1.811 2.682 0.093 0.959 0.105 1.933-0.019 2.889-0.188 1.395-1.332 2.561-2.678 2.895-1.242 0.271-2.581-0.133-3.533-0.956-0.639-0.594-0.921-1.47-1.007-2.318 0.625-0.010 1.251-0.006 1.876-0.002 0.102 0.451 0.303 0.909 0.697 1.178 0.495 0.335 1.138 0.356 1.707 0.24 0.436-0.077 0.84-0.397 0.922-0.848 0.255-1.14 0.384-2.405-0.123-3.496-0.295-0.618-1.069-0.74-1.683-0.684-0.621 0.053-1.112 0.515-1.397 1.041-0.504-0.003-1.008 0.008-1.512-0.007 0.955-0.967 1.919-1.925 2.881-2.884z"></path>
<path fill="#00f" d="M5.398 2.681c2.724-1.959 6.336-2.602 9.57-1.713 1.535 0.409 2.977 1.151 4.214 2.148-0.848 0.853-1.698 1.704-2.552 2.551-1.252-0.010-2.504-0.004-3.756-0.003-0.001 1.252-0.008 2.503 0.003 3.755-1.082 1.081-2.153 2.176-3.252 3.24 0.584-1.567 1.223-3.115 1.829-4.675 0.070-0.205 0.199-0.4 0.184-0.624-0.005-0.565 0.002-1.131-0.003-1.695-2.425-0.003-4.85-0.003-7.275-0-0.004 1.237-0.004 2.475 0 3.712 0.627 0.003 1.253 0.003 1.88 0 0.005-0.609 0-1.219 0.002-1.828 1.094-0.003 2.188-0.002 3.282-0-1.116 2.865-2.278 5.714-3.374 8.585-0.994 1.032-2.023 2.033-3.034 3.048-2.008-2.46-2.906-5.78-2.408-8.918 0.451-3.025 2.188-5.826 4.69-7.583z"></path>
<path fill="#00f" d="M19.684 6.019c0.399-0.401 0.798-0.802 1.2-1.2 2.031 2.49 2.924 5.858 2.389 9.027-0.476 2.983-2.201 5.737-4.672 7.473-2.754 1.982-6.42 2.616-9.68 1.68-1.494-0.412-2.895-1.144-4.103-2.115 2.767-2.767 5.528-5.538 8.301-8.297 0.504 0.015 1.008 0.004 1.512 0.007 0.285-0.526 0.777-0.987 1.397-1.041 0.614-0.056 1.388 0.066 1.683 0.684 0.508 1.091 0.378 2.355 0.123 3.496-0.081 0.451-0.485 0.771-0.922 0.848-0.569 0.116-1.212 0.095-1.707-0.24-0.394-0.269-0.595-0.727-0.697-1.178-0.625-0.003-1.251-0.008-1.876 0.002 0.086 0.848 0.368 1.724 1.007 2.318 0.952 0.824 2.291 1.228 3.533 0.956 1.347-0.334 2.49-1.5 2.678-2.895 0.124-0.957 0.112-1.93 0.019-2.889-0.095-1.12-0.782-2.201-1.811-2.682-0.63-0.327-1.366-0.378-2.058-0.27 0.716-0.723 1.437-1.441 2.158-2.159 0.509 0.005 1.019 0.003 1.528 0.002 0.001-0.509 0.005-1.019-0.003-1.527z"></path>
<path fill="#f00" d="M19.182 3.116l0.038-0.040c0.578 0.557 1.148 1.125 1.704 1.705l-0.039 0.038c-0.402 0.398-0.802 0.798-1.2 1.2-0.51 0.507-1.018 1.015-1.525 1.525-0.72 0.718-1.441 1.436-2.158 2.159-0.962 0.959-1.926 1.917-2.881 2.884-2.773 2.76-5.535 5.531-8.301 8.297l-0.039 0.040c-0.578-0.557-1.148-1.126-1.704-1.705l0.039-0.038c1.012-1.016 2.040-2.016 3.034-3.048 1.172-1.143 2.331-2.302 3.474-3.474 1.099-1.064 2.17-2.159 3.252-3.24 1.254-1.248 2.504-2.499 3.753-3.752 0.854-0.848 1.704-1.698 2.552-2.551z"></path>
</svg>
