<!-- Generated by IcoMoon.io -->
<svg version="1.1" xmlns="http://www.w3.org/2000/svg" width="18" height="24" viewBox="0 0 18 24">
<title>information--highway-directions--g1</title>
<path fill="#555" opacity="0.87" d="M0.435 0h16.43l0.133 0.077c-5.111 0.025-10.223 0-15.335 0.013-0.359 0.003-0.721 0.008-1.077-0.053l-0.152-0.038z"></path>
<path fill="#fff" d="M0.042 0.548c0.125-0.223 0.317-0.397 0.546-0.511 0.356 0.060 0.717 0.055 1.077 0.053 5.112-0.013 10.224 0.011 15.335-0.013 0.192 0.099 0.348 0.259 0.444 0.452-0.020 7.649-0.019 15.299-0.001 22.948-0.095 0.191-0.254 0.341-0.434 0.451-5.517-0.031-11.035-0.015-16.551-0.008-0.145-0.11-0.271-0.243-0.377-0.392 0.020-7.434-0.003-14.869 0.011-22.302-0.001-0.227-0.014-0.454-0.049-0.678M0.72 0.458c-0.223 0.053-0.249 0.311-0.245 0.5 0.004 7.389-0.002 14.778 0.004 22.167-0.037 0.275 0.217 0.468 0.477 0.426 5.232-0.003 10.465 0.004 15.695-0.003 0.238 0.025 0.457-0.167 0.42-0.413 0.005-7.422 0.003-14.845-0.001-22.267 0.053-0.352-0.314-0.489-0.602-0.443-5.249 0.027-10.505-0.041-15.75 0.034z"></path>
<path fill="#fff" d="M2.068 1.414c0.072-0.001 0.216-0.002 0.289-0.003 0.001 0.297 0.001 0.594 0.002 0.89 0.253 0 0.506-0.001 0.76-0.002-0.001-0.295-0.001-0.59-0.001-0.886 0.073-0.001 0.218-0.002 0.29-0.003 0.002 0.686 0.001 1.372 0.001 2.058-0.073 0-0.218 0-0.29-0.001-0.001-0.303-0.001-0.607-0.001-0.91-0.253 0-0.506 0-0.76 0 0 0.304 0 0.607 0 0.911-0.073 0-0.218 0-0.29 0-0.001-0.685-0.001-1.37 0-2.055z"></path>
<path fill="#fff" d="M6.171 1.408c0.096-0.001 0.194-0.003 0.291-0.003 0.001 0.201 0.001 0.403 0.001 0.604 0.286-0.027 0.668-0.056 0.82 0.249 0.096 0.392 0.030 0.805 0.044 1.206-0.096-0.001-0.193-0.001-0.289-0.001-0.004-0.334 0.027-0.671-0.025-1.002-0.030-0.26-0.497-0.259-0.526 0-0.049 0.332-0.019 0.669-0.024 1.004-0.097-0.001-0.194-0.002-0.292-0.003-0.001-0.685 0.001-1.369 0-2.054z"></path>
<path fill="#fff" d="M10.465 1.415c0.097-0.002 0.195-0.003 0.293-0.004 0.002 0.194 0.003 0.39 0.003 0.585 0.295-0.028 0.74-0.007 0.773 0.378 0.004 0.345 0.126 0.843-0.232 1.054-0.272 0.074-0.558 0.018-0.836 0.032 0-0.681 0-1.363-0.001-2.044M10.874 2.269c-0.231 0.277-0.202 1.175 0.336 0.879 0.060-0.309 0.18-1.002-0.336-0.879z"></path>
<path fill="#fff" d="M3.613 2.152c0.291-0.201 0.792-0.306 0.992 0.072 0.108 0.401 0.041 0.825 0.055 1.236-0.27-0.008-0.548 0.047-0.811-0.032-0.363-0.131-0.313-0.73 0.041-0.838 0.177-0.054 0.364-0.067 0.546-0.101-0.124-0.298-0.421-0.257-0.66-0.13-0.040-0.052-0.122-0.156-0.162-0.208M3.875 2.869c-0.031 0.457 0.578 0.365 0.536-0.055-0.18 0.012-0.358 0.031-0.536 0.055z"></path>
<path fill="#fff" d="M5.432 3.491c-0.802-0.044-0.745-1.577 0.083-1.5 0.303 0.017 0.417 0.314 0.485 0.562-0.081 0.004-0.245 0.012-0.327 0.016-0.060-0.115-0.123-0.23-0.186-0.343-0.426 0.147-0.401 0.761-0.088 1.013 0.099-0.060 0.198-0.12 0.296-0.18 0.086 0.063 0.172 0.126 0.258 0.188-0.164 0.095-0.32 0.252-0.522 0.245z"></path>
<path fill="#fff" d="M8.071 3.484c-0.761-0.129-0.651-1.582 0.164-1.493 0.441 0.014 0.574 0.49 0.575 0.853-0.334 0.004-0.668 0.002-1.002 0.019 0.104 0.376 0.478 0.408 0.773 0.239 0.063 0.064 0.125 0.129 0.188 0.194-0.215 0.109-0.446 0.251-0.698 0.187M7.815 2.6c0.243 0.010 0.485 0.009 0.728-0.004-0.13-0.394-0.614-0.416-0.728 0.004z"></path>
<path fill="#fff" d="M9.034 2.006c0.362 0.026 0.849-0.138 1.095 0.218 0.127 0.395 0.040 0.826 0.061 1.235-0.095 0.003-0.192 0.006-0.288 0.009-0.006-0.335 0.022-0.673-0.025-1.006-0.031-0.249-0.457-0.269-0.52-0.031-0.065 0.339-0.021 0.688-0.030 1.031-0.074 0-0.22 0-0.293 0 0-0.485 0-0.97 0-1.457z"></path>
<path fill="#fff" d="M11.799 2.009c0.073 0 0.219-0.001 0.292-0.001 0.003 0.345-0.034 0.695 0.028 1.036 0.075 0.224 0.466 0.215 0.519-0.018 0.054-0.336 0.019-0.679 0.025-1.018 0.073 0 0.219-0.001 0.293-0.001 0 0.483-0.001 0.965 0.001 1.447-0.373-0.020-0.886 0.164-1.115-0.239-0.091-0.394-0.029-0.806-0.043-1.207z"></path>
<path fill="#fff" d="M13.234 2.006c0.342-0.010 0.692-0.039 1.023 0.074-0.067 0.071-0.134 0.142-0.201 0.213-0.753-0.199-0.493 0.741-0.53 1.17-0.073 0-0.22 0-0.293 0.001-0.001-0.486-0.001-0.971 0-1.458z"></path>
<path fill="#fff" d="M14.574 2.045c0.286-0.109 0.601-0.026 0.9-0.038-0.026 0.565 0.058 1.14-0.050 1.698-0.159 0.437-0.707 0.393-1.058 0.242 0.022-0.054 0.067-0.163 0.088-0.217 0.31 0.132 0.667 0.109 0.78-0.261-0.322 0.034-0.818 0.064-0.903-0.347-0.009-0.355-0.134-0.866 0.243-1.077M14.747 2.298c-0.209 0.15-0.137 0.458-0.13 0.68 0.012 0.308 0.536 0.312 0.552 0.003 0.081-0.294 0.016-0.871-0.422-0.682z"></path>
<path fill="#fff" d="M5.721 4.455c0.096 0.001 0.194 0.001 0.29 0.002 0 0.295 0 0.59 0.001 0.886 0.253 0 0.506 0 0.759 0 0.001-0.296 0.001-0.592 0.002-0.888 0.096 0.001 0.193 0.001 0.289 0.002-0.001 0.687 0.003 1.373-0.003 2.060-0.072-0.003-0.215-0.008-0.287-0.010 0.001-0.302 0.001-0.604 0-0.906-0.253-0.001-0.505-0.001-0.759 0-0.002 0.306-0.002 0.611-0.005 0.917-0.072-0.003-0.216-0.009-0.288-0.011 0.003-0.684 0-1.367 0.002-2.051z"></path>
<path fill="#fff" d="M7.422 4.462c0.074 0 0.22-0.001 0.293-0.001 0 0.074 0 0.219 0 0.293-0.073 0-0.219 0-0.293 0 0-0.074 0-0.219 0-0.292z"></path>
<path fill="#fff" d="M8 4.472c0.1-0.005 0.2-0.011 0.299-0.016 0.001 0.073 0.003 0.219 0.003 0.293-0.071 0.003-0.212 0.008-0.283 0.011-0.006-0.095-0.013-0.192-0.019-0.287z"></path>
<path fill="#fff" d="M8.677 4.443c0.074 0 0.221 0.001 0.293 0.001-0.001 0.204-0.003 0.408-0.007 0.611 0.286-0.032 0.654-0.061 0.821 0.229 0.103 0.397 0.034 0.815 0.050 1.219-0.073 0-0.218 0.001-0.291 0.001-0.008-0.347 0.034-0.7-0.032-1.042-0.084-0.2-0.368-0.191-0.5-0.046-0.081 0.356-0.032 0.726-0.042 1.088-0.073 0-0.219 0.001-0.293 0.001 0-0.688 0-1.374 0-2.062z"></path>
<path fill="#fff" d="M7.812 5.038c0.821-0.050 0.859 1.467 0.061 1.507-0.772-0.007-0.804-1.414-0.061-1.507M7.74 5.365c-0.23 0.216-0.229 0.722 0.064 0.89 0.503 0.027 0.455-1.074-0.064-0.89z"></path>
<path fill="#fff" d="M10.098 5.058c0.338-0.008 0.683-0.047 1.011 0.064-0.041 0.051-0.123 0.152-0.165 0.203-0.762-0.177-0.526 0.734-0.555 1.191-0.073-0.003-0.218-0.006-0.291-0.009 0.001-0.483 0.001-0.966 0-1.45z"></path>
<path fill="#fff" d="M11.185 5.612c0.219 0 0.438 0 0.657 0-0.001 0.109-0.001 0.218-0.001 0.327-0.219 0-0.437 0-0.655 0 0-0.109-0.001-0.218-0.001-0.327z"></path>
<path fill="#fff" d="M8.264 7.468c0.097 0 0.194 0 0.291 0 0 0.204-0.001 0.408-0.002 0.613 0.285-0.027 0.665-0.063 0.821 0.24 0.099 0.393 0.030 0.807 0.046 1.209-0.096 0-0.193 0.001-0.289 0.002-0.008-0.342 0.031-0.688-0.032-1.027-0.055-0.229-0.457-0.229-0.516 0-0.058 0.338-0.022 0.684-0.027 1.026-0.097 0-0.194 0-0.292 0-0.001-0.688-0.001-1.375 0-2.063z"></path>
<path fill="#fff" d="M2.009 7.615c0.434-0.303 0.983 0.014 1.14 0.468-0.097 0.007-0.194 0.013-0.292 0.020-0.186-0.289-0.693-0.442-0.826-0.025-0.043 0.378-0.183 1.016 0.293 1.166 0.323 0.075 0.494-0.25 0.54-0.519-0.152-0.007-0.303-0.013-0.455-0.018 0-0.093-0.001-0.187-0.002-0.279 0.243-0.001 0.486-0.001 0.729 0-0.010 0.342 0.028 0.763-0.293 0.984-0.406 0.34-1.124 0.054-1.143-0.488-0.011-0.439-0.123-1.025 0.311-1.308z"></path>
<path fill="#fff" d="M3.34 8.073c0.338 0 0.68-0.021 1.013 0.053-0.056 0.077-0.112 0.155-0.169 0.233-0.754-0.211-0.529 0.726-0.55 1.171-0.073 0-0.219 0-0.293 0 0-0.486 0.001-0.971-0.001-1.458z"></path>
<path fill="#fff" d="M4.465 9.373c-0.357-0.412-0.216-1.346 0.441-1.33 0.461-0.016 0.629 0.475 0.616 0.856-0.334 0.005-0.668 0.004-1.002 0.018 0.105 0.375 0.479 0.413 0.778 0.242 0.063 0.066 0.125 0.132 0.188 0.199-0.301 0.184-0.743 0.306-1.020 0.015M4.519 8.642c0.243 0.016 0.487 0.017 0.731 0.006-0.119-0.417-0.592-0.39-0.731-0.006z"></path>
<path fill="#fff" d="M5.639 8.076c0.369 0.032 0.883-0.154 1.111 0.243 0.101 0.393 0.031 0.808 0.046 1.211-0.096 0.001-0.193 0.001-0.29 0.002-0.006-0.342 0.031-0.688-0.028-1.025-0.054-0.235-0.464-0.236-0.519-0.001-0.058 0.338-0.021 0.684-0.028 1.025-0.097 0-0.194-0.001-0.291-0.001-0.001-0.484 0-0.97-0.002-1.454z"></path>
<path fill="#fff" d="M6.942 8.078c0.388-0.003 0.776-0.003 1.163 0-0.001 0.095-0.002 0.189-0.002 0.284-0.253 0.29-0.506 0.581-0.756 0.873 0.251 0.003 0.504 0.003 0.755 0.004 0.001 0.096 0.002 0.193 0.003 0.289-0.402 0.003-0.805 0.007-1.208-0.010 0.095-0.485 0.534-0.774 0.815-1.148-0.256-0.002-0.512-0.002-0.766-0.002-0.002-0.097-0.003-0.194-0.004-0.29z"></path>
<path fill="#fff" d="M9.589 8.239c0.276-0.226 0.766-0.322 0.987 0.025 0.127 0.406 0.046 0.845 0.066 1.265-0.356-0.021-0.976 0.145-1.057-0.358-0.076-0.453 0.418-0.619 0.78-0.6-0.020-0.067-0.061-0.201-0.081-0.268-0.177 0.034-0.354 0.069-0.529 0.11-0.041-0.043-0.123-0.13-0.165-0.173M9.871 9.109c0.146 0.332 0.59 0.053 0.496-0.254-0.172 0.060-0.504-0.010-0.496 0.254z"></path>
<path fill="#fff" d="M10.801 8.068c0.096 0.001 0.194 0.002 0.29 0.003 0.005 0.342-0.031 0.69 0.027 1.030 0.058 0.232 0.462 0.233 0.518 0 0.060-0.34 0.023-0.688 0.028-1.031 0.073 0 0.219 0 0.292 0 0.002 0.484 0.001 0.969 0.002 1.454-0.366-0.028-0.876 0.154-1.109-0.232-0.104-0.397-0.031-0.817-0.047-1.224z"></path>
<path fill="#fff" d="M12.362 8.154c0.287-0.15 0.61-0.022 0.89 0.080-0.048 0.077-0.096 0.155-0.145 0.233-0.261-0.083-0.608-0.208-0.746 0.126 0.235 0.060 0.479 0.080 0.709 0.157 0.285 0.122 0.275 0.593-0.001 0.723-0.329 0.197-0.715 0.044-1.025-0.113 0.047-0.077 0.095-0.154 0.143-0.231 0.279 0.135 0.719 0.308 0.851-0.104-0.237-0.054-0.484-0.069-0.712-0.157-0.278-0.134-0.24-0.597 0.037-0.714z"></path>
<path fill="#fff" d="M13.595 9.437c-0.435-0.389-0.277-1.422 0.417-1.375 0.447 0.004 0.598 0.483 0.589 0.856-0.331 0.005-0.663 0.004-0.994 0.012 0.095 0.375 0.466 0.419 0.766 0.25 0.065 0.064 0.13 0.127 0.195 0.191-0.287 0.173-0.681 0.304-0.973 0.067M13.607 8.673c0.241 0.004 0.483 0.002 0.723-0.011-0.121-0.409-0.612-0.402-0.723 0.011z"></path>
<path fill="#fff" d="M14.716 8.071c0.362 0.022 0.845-0.147 1.095 0.207 0.131 0.397 0.043 0.83 0.063 1.242-0.072-0.001-0.217-0.001-0.289-0.001-0.004-0.335 0.025-0.672-0.024-1.004-0.046-0.258-0.501-0.251-0.532 0.015-0.043 0.328-0.014 0.659-0.018 0.988-0.074 0-0.22 0.001-0.293 0.001-0.001-0.483 0.001-0.965-0.003-1.448z"></path>
<path fill="#fff" d="M3.447 10.511c0.411 0.042 1.011-0.158 1.246 0.297 0.173 0.304-0.063 0.594-0.299 0.771 0.159 0.327 0.319 0.653 0.477 0.98-0.075 0.001-0.227 0.001-0.302 0.001-0.159-0.328-0.32-0.656-0.478-0.984-0.12-0.002-0.241-0.003-0.361-0.004-0.002 0.329-0.002 0.659-0.002 0.988-0.070 0-0.209 0.002-0.279 0.003-0.003-0.684-0.001-1.367-0.003-2.051M3.73 10.775c-0.001 0.173-0.001 0.348 0 0.522 0.233-0.045 0.735 0.105 0.731-0.262 0.018-0.365-0.502-0.211-0.731-0.26z"></path>
<path fill="#fff" d="M9.018 10.517c0.074 0 0.222 0 0.295 0-0.001 0.195-0.002 0.391-0.005 0.587 0.272-0.006 0.672-0.043 0.759 0.294 0.052 0.323 0.080 0.681-0.046 0.989-0.229 0.318-0.674 0.135-1.001 0.181-0.003-0.684-0.001-1.367-0.001-2.051M9.385 11.398c-0.114 0.272-0.108 0.593-0.014 0.869 0.618 0.348 0.632-1.171 0.014-0.869z"></path>
<path fill="#fff" d="M12.964 10.505c0.073 0 0.22 0.001 0.293 0.001-0.001 0.199-0.003 0.399-0.007 0.598 0.282-0.017 0.648-0.056 0.814 0.229 0.117 0.396 0.039 0.82 0.057 1.227-0.073 0-0.218 0-0.291 0-0.003-0.329 0.023-0.66-0.018-0.988-0.030-0.285-0.533-0.273-0.54 0.018-0.038 0.321-0.012 0.646-0.016 0.97-0.073 0-0.219 0.001-0.293 0.002-0.001-0.686 0.001-1.371 0.001-2.057z"></path>
<path fill="#fff" d="M4.927 11.245c0.293-0.196 0.804-0.295 0.993 0.088 0.101 0.399 0.036 0.817 0.051 1.224-0.264-0.006-0.534 0.046-0.793-0.024-0.38-0.115-0.34-0.734 0.022-0.844 0.178-0.055 0.365-0.068 0.547-0.1-0.125-0.297-0.424-0.264-0.66-0.124-0.039-0.054-0.12-0.164-0.16-0.219M5.263 12.265c0.273 0.112 0.456-0.12 0.46-0.374-0.218 0.006-0.676 0.057-0.46 0.374z"></path>
<path fill="#fff" d="M6.263 11.107c0.37 0.018 0.896-0.155 1.114 0.256 0.089 0.388 0.026 0.794 0.042 1.188-0.072 0.003-0.216 0.008-0.288 0.010-0.010-0.356 0.029-0.717-0.038-1.067-0.112-0.176-0.399-0.175-0.506 0.003-0.066 0.348-0.026 0.704-0.032 1.055-0.074 0.001-0.219 0.003-0.292 0.004-0.003-0.483-0.002-0.967 0-1.45z"></path>
<path fill="#fff" d="M10.358 11.249c0.292-0.203 0.802-0.298 0.995 0.081 0.101 0.399 0.037 0.818 0.052 1.225-0.265-0.006-0.537 0.046-0.797-0.023-0.375-0.119-0.334-0.733 0.025-0.845 0.179-0.055 0.366-0.067 0.549-0.1-0.128-0.294-0.425-0.265-0.661-0.123-0.040-0.054-0.122-0.162-0.162-0.215M10.64 12.176c0.218 0.282 0.542-0.001 0.518-0.287-0.184 0.064-0.583-0.019-0.518 0.287z"></path>
<path fill="#fff" d="M7.875 11.199c0.296-0.172 0.641-0.043 0.926 0.088-0.057 0.068-0.114 0.138-0.171 0.207-0.207-0.065-0.71-0.234-0.653 0.152 0.278 0.112 0.75 0.006 0.827 0.388 0.229 0.716-1.358 0.759-1.087 0.118 0.257 0.108 0.598 0.295 0.833 0.036-0.052-0.251-0.365-0.167-0.55-0.243-0.371-0.023-0.436-0.589-0.124-0.745z"></path>
<path fill="#fff" d="M11.875 12.476c-0.387-0.37-0.323-1.299 0.3-1.38 0.346-0.041 0.539 0.274 0.597 0.568-0.081 0.003-0.243 0.010-0.325 0.013-0.066-0.117-0.132-0.232-0.199-0.348-0.408 0.178-0.373 0.736-0.101 1.018 0.107-0.057 0.213-0.115 0.32-0.173 0.085 0.054 0.17 0.11 0.256 0.165-0.226 0.208-0.58 0.385-0.848 0.138z"></path>
<path fill="#fff" d="M5.010 13.682c0.334-0.22 0.745-0.069 1.078 0.069-0.049 0.084-0.098 0.17-0.147 0.255-0.272-0.078-0.743-0.277-0.865 0.106-0.020 0.328 0.39 0.295 0.606 0.371 0.469 0.045 0.629 0.738 0.249 0.999-0.393 0.265-0.9 0.117-1.274-0.111 0.045-0.058 0.134-0.174 0.179-0.233 0.295 0.127 0.792 0.336 0.992-0.032 0.081-0.377-0.412-0.335-0.645-0.42-0.466-0.073-0.55-0.766-0.173-1.005z"></path>
<path fill="#fff" d="M7.888 13.547c0.073 0.001 0.219 0.001 0.293 0.001 0.001 0.683 0 1.366 0 2.049-0.074 0-0.22 0-0.293 0.001 0-0.684-0.001-1.367 0-2.051z"></path>
<path fill="#fff" d="M8.523 14.044c0.11-0.179 0.226-0.352 0.347-0.522 0.008 0.178 0.014 0.357 0.019 0.535 0.084 0.078 0.168 0.157 0.251 0.237-0.065 0.030-0.194 0.089-0.259 0.118 0.007 0.395 0.004 0.789 0.004 1.184-0.074 0-0.222 0.001-0.296 0.001-0.032-0.434 0.103-0.914-0.133-1.309-0.056-0.086 0.046-0.166 0.067-0.244z"></path>
<path fill="#fff" d="M6.498 15.401c-0.273-0.419-0.165-1.228 0.431-1.275 0.483-0.051 0.696 0.456 0.67 0.861-0.331 0.002-0.663 0-0.994 0.017 0.101 0.363 0.462 0.403 0.761 0.249 0.051 0.038 0.153 0.114 0.205 0.152-0.296 0.258-0.812 0.351-1.073-0.003M6.602 14.735c0.244 0.010 0.489 0.009 0.733 0.001-0.119-0.416-0.613-0.411-0.733-0.001z"></path>
<path fill="#fff" d="M9.364 15.426c-0.326-0.419-0.193-1.311 0.446-1.312 0.462-0.020 0.646 0.471 0.632 0.858-0.335 0.005-0.671 0.003-1.005 0.027 0.123 0.361 0.485 0.378 0.794 0.245 0.044 0.045 0.13 0.135 0.173 0.18-0.305 0.199-0.769 0.315-1.041 0.001M9.448 14.726c0.239 0.004 0.479 0.004 0.718 0.001-0.097-0.42-0.62-0.42-0.718-0.001z"></path>
<path fill="#fff" d="M10.656 14.143c0.336-0.007 0.677-0.032 1.008 0.046-0.059 0.080-0.117 0.159-0.177 0.239-0.738-0.208-0.519 0.733-0.539 1.169-0.074 0-0.22-0.001-0.293-0.001-0.001-0.484-0.001-0.969 0-1.453z"></path>
<path fill="#fff" d="M11.887 14.245c0.286-0.192 0.634-0.058 0.928 0.039-0.040 0.081-0.081 0.162-0.121 0.243-0.266-0.083-0.597-0.194-0.771 0.11 0.229 0.065 0.467 0.094 0.695 0.166 0.31 0.096 0.311 0.594 0.029 0.73-0.337 0.201-0.732 0.045-1.041-0.132 0.059-0.068 0.117-0.138 0.176-0.205 0.233 0.098 0.682 0.314 0.793-0.044-0.113-0.174-0.383-0.114-0.561-0.189-0.349-0.032-0.401-0.554-0.125-0.719z"></path>
<path fill="#fff" d="M8.474 17.934c1.139-0.429 2.333-0.716 3.498-1.076-0.37 1.035-0.758 2.065-1.126 3.101-0.053 0.193-0.193 0.336-0.337 0.466-0.241-0.254-0.419-0.557-0.597-0.856-1.182 1.118-2.362 2.235-3.54 3.357-0.257-0.282-0.515-0.562-0.774-0.842 1.179-1.112 2.359-2.224 3.54-3.335-0.233-0.23-0.955-0.415-0.663-0.815z"></path>
<path fill="#2b2c7c" d="M0.72 0.458c5.245-0.075 10.5-0.007 15.75-0.034 0.288-0.046 0.654 0.091 0.602 0.443 0.003 7.422 0.006 14.844 0.001 22.267 0.037 0.246-0.182 0.439-0.42 0.413-5.231 0.008-10.464 0.001-15.695 0.003-0.26 0.042-0.514-0.151-0.477-0.426-0.006-7.389 0-14.778-0.004-22.167-0.003-0.189 0.022-0.448 0.245-0.5M2.068 1.414c-0.001 0.685-0.001 1.37 0 2.055 0.072 0 0.217 0 0.29 0 0-0.304 0-0.607 0-0.911 0.254 0 0.507 0 0.76 0 0 0.303 0 0.607 0.001 0.91 0.072 0.001 0.217 0.001 0.29 0.001 0-0.686 0.001-1.372-0.001-2.058-0.072 0.001-0.217 0.002-0.29 0.003 0 0.295 0 0.59 0.001 0.886-0.254 0.001-0.507 0.002-0.76 0.002-0.001-0.296-0.001-0.593-0.002-0.89-0.073 0.001-0.217 0.002-0.289 0.003M6.171 1.408c0.001 0.685-0.001 1.369 0 2.054 0.097 0.001 0.194 0.002 0.292 0.003 0.004-0.335-0.025-0.672 0.024-1.004 0.030-0.259 0.497-0.26 0.526 0 0.052 0.331 0.020 0.668 0.025 1.002 0.096 0 0.193 0 0.289 0.001-0.014-0.401 0.053-0.814-0.044-1.206-0.152-0.305-0.534-0.276-0.82-0.249 0-0.201 0-0.403-0.001-0.604-0.097 0.001-0.194 0.003-0.291 0.003M10.465 1.415c0.001 0.681 0.001 1.363 0.001 2.044 0.278-0.015 0.564 0.042 0.836-0.032 0.358-0.211 0.237-0.709 0.232-1.054-0.032-0.385-0.477-0.406-0.773-0.378-0.001-0.195-0.002-0.391-0.003-0.585-0.097 0.001-0.195 0.003-0.293 0.004M3.613 2.152c0.040 0.052 0.122 0.156 0.162 0.208 0.239-0.127 0.536-0.168 0.66 0.13-0.181 0.033-0.369 0.046-0.546 0.101-0.354 0.109-0.404 0.708-0.041 0.838 0.263 0.079 0.541 0.024 0.811 0.032-0.014-0.411 0.053-0.835-0.055-1.236-0.2-0.378-0.701-0.272-0.992-0.072M5.432 3.491c0.202 0.007 0.358-0.15 0.522-0.245-0.086-0.062-0.172-0.125-0.258-0.188-0.098 0.060-0.197 0.121-0.296 0.18-0.314-0.251-0.338-0.865 0.088-1.013 0.063 0.114 0.125 0.229 0.186 0.343 0.081-0.003 0.245-0.011 0.327-0.016-0.068-0.248-0.182-0.546-0.485-0.562-0.829-0.076-0.886 1.457-0.083 1.5M8.071 3.484c0.252 0.064 0.483-0.079 0.698-0.187-0.063-0.065-0.125-0.13-0.188-0.194-0.295 0.169-0.669 0.137-0.773-0.239 0.334-0.018 0.668-0.015 1.002-0.019-0.001-0.363-0.133-0.839-0.575-0.853-0.815-0.089-0.925 1.364-0.164 1.493M9.034 2.006c0 0.486 0 0.971 0 1.457 0.073 0 0.219 0 0.293 0 0.009-0.343-0.035-0.692 0.030-1.031 0.063-0.238 0.49-0.218 0.52 0.031 0.047 0.333 0.019 0.67 0.025 1.006 0.096-0.003 0.193-0.006 0.288-0.009-0.021-0.409 0.066-0.84-0.061-1.235-0.246-0.357-0.733-0.192-1.095-0.218M11.799 2.009c0.014 0.401-0.048 0.813 0.043 1.207 0.23 0.403 0.742 0.219 1.115 0.239-0.002-0.482-0.001-0.964-0.001-1.447-0.074 0-0.22 0.001-0.293 0.001-0.006 0.339 0.029 0.681-0.025 1.018-0.053 0.233-0.444 0.242-0.519 0.018-0.062-0.342-0.025-0.691-0.028-1.036-0.073 0-0.219 0.001-0.292 0.001M13.234 2.006c-0.001 0.486-0.001 0.971 0 1.458 0.073-0.001 0.22-0.001 0.293-0.001 0.037-0.429-0.223-1.369 0.53-1.17 0.067-0.071 0.134-0.142 0.201-0.213-0.331-0.113-0.681-0.083-1.023-0.074M14.574 2.045c-0.378 0.21-0.252 0.722-0.243 1.077 0.085 0.411 0.581 0.381 0.903 0.347-0.112 0.37-0.47 0.393-0.78 0.261-0.022 0.054-0.067 0.163-0.088 0.217 0.351 0.152 0.9 0.195 1.058-0.242 0.108-0.557 0.024-1.133 0.050-1.698-0.299 0.011-0.614-0.072-0.9 0.038M5.721 4.455c-0.002 0.684 0.001 1.367-0.002 2.051 0.072 0.003 0.216 0.008 0.288 0.011 0.003-0.306 0.003-0.611 0.005-0.917 0.253-0.001 0.505-0.001 0.759 0 0.001 0.301 0.001 0.603 0 0.906 0.072 0.003 0.215 0.008 0.287 0.010 0.007-0.687 0.003-1.373 0.003-2.060-0.096-0.001-0.193-0.001-0.289-0.002-0.001 0.296-0.001 0.592-0.002 0.888-0.253 0-0.506 0-0.759 0-0.001-0.296-0.001-0.591-0.001-0.886-0.096-0.001-0.194-0.001-0.29-0.002M7.422 4.462c0 0.073 0 0.218 0 0.292 0.074 0 0.22 0 0.293 0 0-0.074 0-0.219 0-0.293-0.073 0-0.219 0.001-0.293 0.001M8 4.472c0.006 0.095 0.013 0.192 0.019 0.287 0.071-0.003 0.212-0.008 0.283-0.011-0.001-0.074-0.003-0.22-0.003-0.293-0.099 0.005-0.199 0.011-0.299 0.016M8.677 4.443c0 0.688 0 1.374 0 2.062 0.074 0 0.22-0.001 0.293-0.001 0.010-0.362-0.039-0.732 0.042-1.088 0.132-0.145 0.416-0.153 0.5 0.046 0.066 0.342 0.024 0.695 0.032 1.042 0.073 0 0.218-0.001 0.291-0.001-0.016-0.405 0.053-0.822-0.050-1.219-0.166-0.291-0.535-0.262-0.821-0.229 0.004-0.203 0.006-0.407 0.007-0.611-0.073 0-0.22-0.001-0.293-0.001M7.812 5.038c-0.743 0.093-0.71 1.5 0.061 1.507 0.798-0.039 0.759-1.557-0.061-1.507M10.098 5.058c0.001 0.483 0.001 0.966 0 1.45 0.073 0.003 0.218 0.006 0.291 0.009 0.029-0.457-0.207-1.368 0.555-1.191 0.041-0.051 0.123-0.152 0.165-0.203-0.328-0.111-0.673-0.072-1.011-0.064M11.185 5.612c0 0.109 0.001 0.218 0.001 0.327 0.218 0 0.436 0 0.655 0 0-0.109 0-0.218 0.001-0.327-0.219 0-0.438 0-0.657 0M8.264 7.468c-0.001 0.688-0.001 1.375 0 2.063 0.097 0 0.194 0 0.292 0 0.005-0.342-0.031-0.688 0.027-1.026 0.059-0.229 0.461-0.229 0.516 0 0.062 0.338 0.024 0.685 0.032 1.027 0.096-0.001 0.193-0.002 0.289-0.002-0.016-0.402 0.053-0.815-0.046-1.209-0.156-0.303-0.536-0.267-0.821-0.24 0.001-0.205 0.002-0.409 0.002-0.613-0.097 0-0.194 0-0.291 0M2.009 7.615c-0.434 0.283-0.322 0.869-0.311 1.308 0.019 0.542 0.737 0.828 1.143 0.488 0.321-0.221 0.284-0.642 0.293-0.984-0.243-0.001-0.486-0.001-0.729 0 0.001 0.093 0.002 0.187 0.002 0.279 0.152 0.005 0.304 0.011 0.455 0.018-0.046 0.268-0.216 0.594-0.54 0.519-0.476-0.15-0.335-0.788-0.293-1.166 0.133-0.417 0.64-0.264 0.826 0.025 0.097-0.007 0.194-0.013 0.292-0.020-0.157-0.454-0.706-0.771-1.14-0.468M3.34 8.073c0.002 0.486 0.001 0.971 0.001 1.458 0.074 0 0.22 0 0.293 0 0.021-0.445-0.204-1.382 0.55-1.171 0.057-0.078 0.113-0.156 0.169-0.233-0.333-0.074-0.674-0.053-1.013-0.053M4.465 9.373c0.278 0.291 0.719 0.169 1.020-0.015-0.063-0.067-0.125-0.133-0.188-0.199-0.299 0.172-0.673 0.133-0.778-0.242 0.334-0.014 0.668-0.013 1.002-0.018 0.013-0.381-0.155-0.872-0.616-0.856-0.657-0.017-0.798 0.918-0.441 1.33M5.639 8.076c0.002 0.484 0.001 0.97 0.002 1.454 0.096 0 0.194 0.001 0.291 0.001 0.007-0.341-0.030-0.687 0.028-1.025 0.054-0.235 0.464-0.234 0.519 0.001 0.059 0.337 0.022 0.683 0.028 1.025 0.097-0.001 0.194-0.001 0.29-0.002-0.016-0.402 0.054-0.817-0.046-1.211-0.228-0.398-0.742-0.211-1.111-0.243M6.942 8.078c0.002 0.096 0.003 0.193 0.004 0.29 0.255 0 0.511 0 0.766 0.002-0.281 0.374-0.721 0.663-0.815 1.148 0.403 0.018 0.806 0.013 1.208 0.011-0.001-0.096-0.002-0.193-0.003-0.289-0.251-0.001-0.504-0.002-0.755-0.004 0.25-0.293 0.503-0.583 0.756-0.873 0-0.095 0.001-0.189 0.002-0.284-0.387-0.003-0.775-0.003-1.163 0M9.589 8.239c0.041 0.043 0.123 0.13 0.165 0.173 0.175-0.041 0.352-0.076 0.529-0.11 0.020 0.067 0.061 0.201 0.081 0.268-0.362-0.019-0.856 0.147-0.78 0.6 0.081 0.503 0.702 0.337 1.057 0.358-0.020-0.42 0.061-0.858-0.066-1.265-0.221-0.347-0.711-0.251-0.987-0.025M10.801 8.068c0.017 0.406-0.057 0.827 0.047 1.224 0.233 0.386 0.743 0.204 1.109 0.232-0.001-0.485 0-0.97-0.002-1.454-0.073 0-0.219 0-0.292 0-0.005 0.343 0.032 0.691-0.028 1.031-0.055 0.233-0.46 0.232-0.518 0-0.058-0.34-0.022-0.688-0.027-1.030-0.096-0.001-0.194-0.002-0.29-0.003M12.362 8.154c-0.277 0.117-0.314 0.58-0.037 0.714 0.228 0.088 0.475 0.102 0.712 0.157-0.131 0.413-0.571 0.239-0.851 0.104-0.047 0.077-0.095 0.154-0.143 0.231 0.31 0.157 0.695 0.31 1.025 0.113 0.276-0.13 0.286-0.602 0.001-0.723-0.229-0.077-0.474-0.097-0.709-0.157 0.138-0.335 0.485-0.209 0.746-0.126 0.048-0.078 0.096-0.156 0.145-0.233-0.28-0.102-0.603-0.229-0.89-0.080M13.595 9.437c0.292 0.237 0.686 0.106 0.973-0.067-0.065-0.064-0.13-0.127-0.195-0.191-0.3 0.169-0.671 0.125-0.766-0.25 0.331-0.008 0.663-0.007 0.994-0.012 0.010-0.372-0.142-0.851-0.589-0.856-0.694-0.046-0.852 0.986-0.417 1.375M14.716 8.071c0.003 0.483 0.002 0.965 0.003 1.448 0.073 0 0.219-0.001 0.293-0.001 0.004-0.329-0.025-0.66 0.018-0.988 0.031-0.266 0.485-0.272 0.532-0.015 0.049 0.332 0.019 0.669 0.024 1.004 0.072 0 0.217 0 0.289 0.001-0.020-0.412 0.068-0.845-0.063-1.242-0.25-0.354-0.733-0.185-1.095-0.207M3.447 10.511c0.002 0.684-0.001 1.367 0.003 2.051 0.069-0.001 0.208-0.003 0.279-0.003 0-0.329 0-0.659 0.002-0.988 0.12 0.002 0.241 0.003 0.361 0.004 0.159 0.328 0.32 0.655 0.478 0.984 0.075 0 0.227 0 0.302-0.001-0.158-0.328-0.318-0.653-0.477-0.98 0.236-0.177 0.472-0.467 0.299-0.771-0.236-0.455-0.836-0.255-1.246-0.297M9.018 10.517c0 0.684-0.002 1.367 0.001 2.051 0.328-0.046 0.773 0.137 1.001-0.181 0.126-0.308 0.098-0.666 0.046-0.989-0.087-0.337-0.487-0.3-0.759-0.294 0.003-0.196 0.004-0.392 0.005-0.587-0.074 0-0.222 0-0.295 0M12.964 10.505c0 0.686-0.002 1.371-0.001 2.057 0.074-0.001 0.22-0.002 0.293-0.002 0.003-0.323-0.022-0.648 0.016-0.97 0.006-0.291 0.51-0.302 0.54-0.018 0.041 0.328 0.015 0.659 0.018 0.988 0.073 0 0.218 0 0.291 0-0.018-0.407 0.060-0.831-0.057-1.227-0.166-0.286-0.532-0.246-0.814-0.229 0.004-0.2 0.006-0.399 0.007-0.598-0.073 0-0.22-0.001-0.293-0.001M4.927 11.245c0.040 0.055 0.121 0.165 0.16 0.219 0.237-0.139 0.535-0.173 0.66 0.124-0.182 0.032-0.37 0.045-0.547 0.1-0.362 0.11-0.402 0.73-0.022 0.844 0.258 0.070 0.529 0.018 0.793 0.024-0.015-0.406 0.050-0.825-0.051-1.224-0.189-0.383-0.7-0.284-0.993-0.088M6.263 11.107c-0.002 0.483-0.003 0.967 0 1.451 0.073-0.001 0.218-0.003 0.292-0.004 0.006-0.351-0.033-0.708 0.032-1.055 0.108-0.179 0.394-0.18 0.506-0.003 0.067 0.35 0.028 0.711 0.038 1.067 0.072-0.003 0.216-0.008 0.288-0.011-0.016-0.394 0.047-0.8-0.042-1.188-0.218-0.411-0.745-0.237-1.114-0.256M10.358 11.249c0.040 0.053 0.122 0.161 0.162 0.215 0.237-0.141 0.533-0.171 0.661 0.123-0.183 0.032-0.37 0.045-0.549 0.1-0.358 0.112-0.399 0.726-0.025 0.845 0.26 0.069 0.533 0.017 0.797 0.023-0.015-0.407 0.049-0.827-0.052-1.225-0.193-0.379-0.703-0.285-0.995-0.081M7.875 11.199c-0.312 0.156-0.247 0.723 0.124 0.745 0.185 0.076 0.498-0.008 0.55 0.243-0.235 0.259-0.576 0.072-0.833-0.036-0.271 0.641 1.317 0.597 1.087-0.118-0.077-0.382-0.549-0.276-0.827-0.388-0.057-0.386 0.447-0.217 0.653-0.152 0.057-0.069 0.114-0.138 0.171-0.207-0.285-0.13-0.63-0.259-0.926-0.088M11.875 12.476c0.268 0.248 0.622 0.071 0.848-0.138-0.086-0.055-0.171-0.11-0.256-0.165-0.107 0.058-0.213 0.116-0.32 0.173-0.272-0.282-0.307-0.84 0.101-1.018 0.067 0.116 0.133 0.231 0.199 0.348 0.081-0.003 0.243-0.010 0.325-0.013-0.059-0.293-0.251-0.609-0.597-0.568-0.623 0.081-0.687 1.010-0.3 1.38M5.010 13.682c-0.378 0.238-0.293 0.932 0.173 1.005 0.233 0.085 0.726 0.043 0.645 0.42-0.2 0.368-0.696 0.159-0.992 0.032-0.045 0.059-0.134 0.175-0.179 0.233 0.373 0.228 0.88 0.376 1.274 0.111 0.38-0.26 0.22-0.954-0.249-0.999-0.216-0.076-0.626-0.043-0.606-0.371 0.123-0.383 0.594-0.184 0.865-0.106 0.049-0.085 0.098-0.171 0.147-0.255-0.333-0.138-0.745-0.289-1.078-0.069M7.888 13.547c-0.001 0.683 0 1.366 0 2.051 0.073-0.001 0.219-0.001 0.293-0.001 0-0.682 0.001-1.366 0-2.049-0.074 0-0.22 0-0.293-0.001M8.523 14.044c-0.021 0.079-0.123 0.159-0.067 0.244 0.237 0.394 0.101 0.874 0.133 1.309 0.074 0 0.222-0.001 0.296-0.001 0-0.395 0.003-0.789-0.004-1.184 0.065-0.029 0.194-0.088 0.259-0.118-0.083-0.080-0.167-0.159-0.251-0.237-0.005-0.179-0.011-0.357-0.019-0.535-0.121 0.17-0.237 0.343-0.347 0.522M6.498 15.401c0.261 0.354 0.777 0.26 1.073 0.003-0.052-0.038-0.154-0.114-0.205-0.152-0.299 0.154-0.66 0.115-0.761-0.249 0.331-0.017 0.663-0.015 0.994-0.017 0.026-0.405-0.187-0.912-0.67-0.861-0.596 0.047-0.704 0.857-0.431 1.275M9.364 15.426c0.272 0.314 0.736 0.198 1.041-0.001-0.043-0.046-0.13-0.136-0.173-0.18-0.308 0.133-0.67 0.116-0.794-0.245 0.334-0.025 0.669-0.022 1.005-0.027 0.013-0.387-0.17-0.879-0.632-0.858-0.639 0.001-0.772 0.893-0.446 1.312M10.656 14.143c-0.001 0.484-0.001 0.969 0 1.453 0.073 0 0.219 0.001 0.293 0.001 0.020-0.436-0.2-1.377 0.539-1.169 0.060-0.080 0.118-0.159 0.177-0.239-0.331-0.078-0.672-0.053-1.008-0.046M11.887 14.245c-0.276 0.165-0.223 0.687 0.125 0.719 0.179 0.075 0.448 0.015 0.561 0.189-0.11 0.358-0.56 0.142-0.793 0.044-0.059 0.067-0.117 0.137-0.176 0.205 0.309 0.177 0.704 0.333 1.041 0.132 0.282-0.137 0.281-0.634-0.029-0.73-0.228-0.073-0.466-0.102-0.695-0.166 0.174-0.303 0.505-0.193 0.771-0.11 0.040-0.081 0.081-0.163 0.121-0.243-0.293-0.097-0.641-0.231-0.928-0.039M8.474 17.934c-0.292 0.399 0.43 0.585 0.663 0.815-1.181 1.112-2.361 2.223-3.54 3.335 0.259 0.279 0.518 0.56 0.774 0.842 1.178-1.121 2.359-2.239 3.54-3.357 0.178 0.299 0.356 0.602 0.597 0.856 0.145-0.13 0.284-0.273 0.337-0.466 0.369-1.036 0.756-2.065 1.126-3.101-1.165 0.36-2.36 0.646-3.498 1.076z"></path>
<path fill="#2b2c7c" d="M7.815 2.6c0.114-0.42 0.597-0.399 0.728-0.004-0.243 0.013-0.485 0.014-0.728 0.004z"></path>
<path fill="#2b2c7c" d="M10.874 2.269c0.517-0.123 0.396 0.57 0.336 0.879-0.539 0.296-0.568-0.603-0.336-0.879z"></path>
<path fill="#2b2c7c" d="M14.747 2.298c0.438-0.188 0.503 0.388 0.422 0.682-0.016 0.309-0.54 0.306-0.552-0.003-0.007-0.222-0.080-0.53 0.13-0.68z"></path>
<path fill="#2b2c7c" d="M3.875 2.869c0.178-0.025 0.357-0.043 0.536-0.055 0.042 0.42-0.567 0.512-0.536 0.055z"></path>
<path fill="#2b2c7c" d="M7.74 5.365c0.519-0.184 0.567 0.917 0.064 0.89-0.293-0.168-0.294-0.674-0.064-0.89z"></path>
<path fill="#2b2c7c" d="M4.519 8.642c0.138-0.384 0.611-0.411 0.731 0.006-0.243 0.010-0.487 0.010-0.731-0.006z"></path>
<path fill="#2b2c7c" d="M13.607 8.673c0.111-0.413 0.603-0.42 0.723-0.011-0.241 0.012-0.483 0.015-0.723 0.011z"></path>
<path fill="#2b2c7c" d="M9.871 9.109c-0.008-0.265 0.324-0.194 0.496-0.254 0.095 0.307-0.35 0.586-0.496 0.254z"></path>
<path fill="#2b2c7c" d="M3.73 10.775c0.229 0.049 0.75-0.105 0.731 0.26 0.003 0.367-0.498 0.217-0.731 0.262-0.001-0.174-0.001-0.349 0-0.522z"></path>
<path fill="#2b2c7c" d="M9.385 11.398c0.618-0.302 0.604 1.217-0.014 0.869-0.094-0.276-0.1-0.597 0.014-0.869z"></path>
<path fill="#2b2c7c" d="M5.263 12.265c-0.216-0.317 0.242-0.368 0.46-0.374-0.003 0.254-0.187 0.486-0.46 0.374z"></path>
<path fill="#2b2c7c" d="M10.64 12.176c-0.066-0.307 0.334-0.223 0.518-0.287 0.025 0.286-0.3 0.569-0.518 0.287z"></path>
<path fill="#2b2c7c" d="M6.602 14.735c0.12-0.41 0.614-0.415 0.733 0.001-0.244 0.008-0.489 0.009-0.733-0.001z"></path>
<path fill="#2b2c7c" d="M9.448 14.726c0.098-0.419 0.621-0.42 0.718 0.001-0.239 0.003-0.479 0.003-0.718-0.001z"></path>
<path fill="#565656" opacity="0.87" d="M0 0.392l0.042 0.157c0.035 0.224 0.048 0.451 0.049 0.678-0.014 7.434 0.009 14.869-0.011 22.302l-0.080-0.111v-23.026z"></path>
<path fill="#494949" opacity="0.82" d="M17.443 0.529l0.075 0.134v22.68l-0.076 0.134c-0.018-7.649-0.019-15.299 0.001-22.948z"></path>
<path fill="#6c6c6c" opacity="0.89" d="M0.456 23.92c5.517-0.007 11.035-0.023 16.551 0.008l-0.117 0.072h-16.326l-0.108-0.080z"></path>
</svg>
