<svg xmlns="http://www.w3.org/2000/svg" width="24" height="24">
    <path fill="#0371b3" d="M4.5 0h14.798c-.01.126.043.177.158.153v23.466c-.367.408-.946.294-1.433.304a11094 11094 0 0 0-12.9 0 1.257 1.257 0 0 1-.622-.17V-.001zm2.176 1.47c-.224.116-.204.516.064.56.302-.061.26-.586-.064-.56zm-1.64.015c-.002.818-.003 1.635 0 2.454l.391.001c-.002-.339.004-.679.013-1.018.255.003.51.004.766.005l.007-.46-.781-.003-.005-.49c.289-.003.579-.004.869-.005v-.484c-.42-.003-.84-.003-1.259 0zm3.883.134c-.003.159-.005.316-.01.475-.198.06-.219.249-.243.424l.251.093c.012.39-.042.789.037 1.173.123.3.497.159.741.155a25.172 25.172 0 0 0-.075-.396l-.318-.022a48.883 48.883 0 0 1-.004-.938l.356-.037-.02-.376-.335-.009-.004-.659-.376.117zm3.856.003l-.007.479c-.304.04-.289.48 0 .536.021.376-.032.759.039 1.13.105.315.493.177.737.175a61.04 61.04 0 0 1-.056-.39l-.33-.035a58.783 58.783 0 0 1-.003-.939l.346-.023.004-.373-.347-.026a72.165 72.165 0 0 1-.004-.658 41.59 41.59 0 0 0-.377.124zm5.31 0v.505l-.228.069.006.342.223.076c.013.4-.056.816.049 1.206.151.253.487.118.723.125l-.061-.396-.331-.035a59.033 59.033 0 0 1-.002-.941l.346-.013.003-.384-.347-.016-.005-.675-.375.137zm-11.532.562c-.012.583-.006 1.167-.005 1.75l.372.001c.002-.584.007-1.169-.005-1.753l-.361.002zm1.441 1.799c.329 0 .568-.326.274-.569-.265.19-.634.187-.712-.193.319-.01.638-.01.956-.015-.027-.433-.133-1.076-.696-1.061-.878.186-.781 1.879.178 1.839zm2.066-.859c.192.102.407.154.594.269-.076.344-.441.095-.612-.028l-.265.31c.224.192.501.374.811.287.448-.064.566-.712.261-.997-.198-.108-.423-.155-.619-.269.119-.279.388-.133.563-.013l.228-.306c-.205-.145-.439-.302-.704-.237-.441.062-.559.704-.258.985zm1.352-.008c.192.113.406.182.611.267l-.119.216a1.834 1.834 0 0 1-.508-.235l-.26.315c.222.184.493.364.796.285.537-.051.614-.975.081-1.089-.131-.075-.439-.047-.366-.274.155-.182.36.027.53.078l.194-.335c-.218-.116-.451-.27-.71-.202-.427.072-.539.696-.249.974zm2.396-.964c-.023.592-.011 1.184-.012 1.776l.373.003c.05-.474-.215-1.242.44-1.376-.004-.142-.007-.286-.012-.428a9.255 9.255 0 0 0-.364.13c-.142-.034-.285-.068-.426-.104zm1.072.185l.167.354c.239-.086.585-.29.675.081-.218.054-.449.081-.645.195-.359.27-.225.973.259 1.007.25-.057.502-.127.741.019l.103-.312c-.255-.414.005-.939-.219-1.355-.283-.349-.762-.193-1.082.011zm1.506.001c.058.118.116.236.176.354.235-.094.579-.285.667.081-.321.075-.806.115-.834.539-.137.489.461.853.853.557l.332.14.096-.305c-.22-.428.002-.939-.198-1.365-.277-.363-.769-.208-1.092 0zM10.81 7.025c-.364.644.001 1.441.618 1.767-.444.112-.972.061-1.333.384-.484.356-.499 1.015-.664 1.543-.721-.006-1.441-.002-2.162-.003-.575 1.224-1.144 2.451-1.714 3.677-.201.437-.709.743-.651 1.278.028 1.034-.105 2.109.249 3.104.079.253.313.393.528.517.009.653.003 1.306.004 1.959.384.004.767.004 1.152.002.003-.632 0-1.265.002-1.898 1.59-.002 3.18.003 4.77-.003 0 1.149-.003 2.298-.002 3.448.223-.001.446 0 .669.001.004-1.149.002-2.299.004-3.448l.55.001c-.002.524-.007 1.048-.001 1.572l1.318-.001.001-.604-.71-.005c0-.321 0-.641.003-.962.566.004 1.131 0 1.696.003.001.632-.001 1.264.001 1.897.389.002.777.002 1.167-.001.001-.654-.004-1.307.003-1.961.216-.124.462-.253.532-.513.346-.998.22-2.07.246-3.106.031-.598-.561-.934-.74-1.459-.586-1.171-1.046-2.419-1.726-3.536-.088-.472-.339-.898-.624-1.277-.409-.296-.888-.491-1.372-.631.644-.339.963-1.212.531-1.839-.504-.848-1.913-.795-2.344.095z"/>
    <path fill="#0371b3" d="M7.562 2.844c.108-.363.508-.375.598.008-.2.001-.399-.001-.598-.008zM15.248 3.28c.149-.046.296-.09.446-.133.136.424-.439.614-.446.133zM16.77 3.268c.145-.039.29-.079.437-.116.135.422-.472.612-.437.116zM10.537 9.862c.119.269.152.563.144.855l-.45.001a9.16 9.16 0 0 1 .305-.856zM13.36 10.72c-.003-.264.002-.544.186-.753.078.246.146.495.21.746l-.396.007zM7.508 11.133c.605-.098 1.224-.014 1.836-.039-.138.631-.254 1.268-.384 1.901l-.669.016.028.329c.673-.005 1.347-.001 2.019-.005l-.002-.328-.553-.01c.118-.635.212-1.273.346-1.905l.551.001c0 .4.007.8.013 1.199.876.012 1.752.026 2.628.029.016-.408.032-.817.038-1.226l.493-.005c.165.637.331 1.273.494 1.911l-.747.003-.006.331c.613 0 1.224.008 1.836.002.176.419.353.837.527 1.256a45.545 45.545 0 0 0-2.498-.34l.002-.993h-.608c-.002.32-.004.639-.004.958l-.7-.05-.001-1.273c.365-.004.73-.005 1.095-.005l.003-.302c-.901-.003-1.803-.004-2.704 0l.003.302c.433 0 .865 0 1.298.002.002.427.003.853.002 1.281l-.676-.007-.003-.964-.606.001c-.002.321-.003.644-.002.965-1.518-.007-3.03.179-4.525.425.493-1.153.956-2.32 1.477-3.459z"/>
    <path fill="#0371b3" d="M14.979 12.319c.1.226.206.449.305.674a10.783 10.783 0 0 1-.178-.021c-.05-.216-.086-.435-.127-.654zM13.448 16.724l.381.002.001.217-.381.003-.002-.221zM8.358 18.296c1.083-.004 2.166.002 3.25-.003v.24c-1.086-.004-2.173.004-3.26-.004l.01-.233zM12.283 18.294l.546.001.002.238-.553.001.004-.24zM13.439 18.288c.265-.101.261.353-.004.249l.004-.249z"/>
    <path fill="#f1f7fb" d="M19.298 0h.158v.153c-.115.024-.167-.027-.158-.153z"/>
    <path fill="#fff" d="M6.676 1.47c.323-.026.365.499.064.56-.268-.044-.287-.443-.064-.56zM5.036 1.485c.419-.003.839-.003 1.259 0v.484l-.869.005.005.49.781.003-.007.46-.766-.005c-.009.339-.014.679-.013 1.018l-.391-.001c-.003-.819-.002-1.636 0-2.454zM8.919 1.619l.376-.117.004.659.335.009.02.376-.356.037c-.002.313-.002.625.004.938l.318.022c.026.132.051.263.075.396-.244.004-.618.145-.741-.155-.079-.384-.025-.783-.037-1.173l-.251-.093c.024-.175.045-.364.243-.424l.01-.475zM12.775 1.622l.377-.124.004.658.347.026-.004.373-.346.023c-.002.313-.002.625.003.939l.33.035.056.39c-.244.003-.632.141-.737-.175-.072-.372-.018-.754-.039-1.13-.289-.056-.304-.496 0-.536.004-.16.005-.32.007-.479zM18.085 1.622l.375-.137.005.675.347.016-.003.384-.346.013c-.002.313-.001.628.002.941l.331.035.061.396c-.236-.007-.571.127-.723-.125-.106-.39-.036-.806-.049-1.206l-.223-.076-.006-.342.228-.069a42.505 42.505 0 0 1 0-.505zM6.553 2.184l.361-.002c.013.584.007 1.169.005 1.753l-.372-.001c-.001-.583-.006-1.167.005-1.75zM7.994 3.983c-.959.04-1.056-1.652-.178-1.839.562-.015.669.629.696 1.061-.318.005-.637.005-.956.015.078.381.447.383.712.193.294.243.055.569-.274.569zm-.432-1.139c.2.007.399.009.598.008-.09-.383-.49-.371-.598-.008zM10.06 3.124c-.301-.281-.184-.923.258-.985.265-.064.499.092.704.237l-.228.306c-.176-.119-.444-.265-.563.013.196.114.421.16.619.269.305.285.187.933-.261.997-.31.088-.587-.095-.811-.287l.265-.31c.17.123.536.372.612.028-.186-.115-.402-.167-.594-.269zM11.412 3.116c-.29-.279-.178-.903.249-.974.259-.067.493.087.71.202l-.194.335c-.17-.051-.375-.26-.53-.078-.073.227.236.199.366.274.534.114.457 1.038-.081 1.089-.304.08-.574-.1-.796-.285l.26-.315c.157.103.327.184.508.235l.119-.216c-.205-.085-.419-.154-.611-.267zM13.808 2.152c.141.036.284.07.426.104.12-.046.242-.089.364-.13l.012.428c-.655.134-.39.903-.44 1.376l-.373-.003c.001-.592-.012-1.184.012-1.776zM14.88 2.337c.32-.203.799-.36 1.082-.011.224.416-.037.941.219 1.355l-.103.312c-.238-.146-.491-.076-.741-.019-.484-.034-.618-.736-.259-1.007.196-.115.427-.141.645-.195-.09-.372-.436-.167-.675-.081l-.167-.354zm.368.943c.007.482.582.291.446-.133-.15.042-.297.087-.446.133zM16.386 2.338c.322-.208.815-.363 1.092 0 .2.425-.022.937.198 1.365-.031.102-.064.204-.096.305l-.332-.14c-.391.296-.99-.068-.853-.557.028-.424.512-.464.834-.539-.088-.365-.433-.175-.667-.081l-.176-.354zm.384.93c-.035.496.572.306.437-.116-.147.037-.292.076-.437.116zM10.81 7.025c.431-.89 1.839-.943 2.344-.095.432.627.113 1.5-.531 1.839.484.141.963.335 1.372.631.285.379.536.805.624 1.277.103.551.22 1.099.36 1.641.041.219.077.438.127.654l.178.021c.119.01.238.018.358.026a10.74 10.74 0 0 1-.028.309l-.185.009c-.612.006-1.223-.002-1.836-.002l.006-.331.747-.003c-.163-.638-.33-1.274-.494-1.911l-.096-.377c-.064-.251-.132-.5-.21-.746-.184.209-.189.489-.186.753l-.002.375c-.005.409-.021.818-.038 1.226-.877-.003-1.753-.017-2.628-.029-.006-.399-.013-.799-.013-1.199l.002-.376a1.963 1.963 0 0 0-.144-.855 8.882 8.882 0 0 0-.408 1.23c-.133.631-.227 1.27-.346 1.905l.553.01.002.328c-.673.004-1.346 0-2.019.005l-.028-.329.669-.016c.13-.633.246-1.27.384-1.901.028-.125.056-.25.086-.375.166-.528.18-1.187.664-1.543.362-.323.889-.272 1.333-.384-.617-.326-.982-1.123-.618-1.767z"/>
    <path fill="#fff" d="M10.541 12.587c.901-.004 1.803-.003 2.704 0l-.003.302c-.365 0-.73.001-1.095.005l.001 1.273c-.002.788.002 1.577-.003 2.365l.187.215c-.049.514-.018 1.031-.049 1.546l-.004.24c-.003.273-.001.546 0 .819-.003 1.149 0 2.299-.004 3.448a74.594 74.594 0 0 0-.669-.001c-.001-1.15.002-2.299.002-3.448l.001-.819v-.24c0-.201-.002-.402-.004-.603-1.312-.011-2.636.069-3.939-.059.717-.084 1.441-.026 2.161-.038l.037-.539.684.002.005-.109.012-.21c-.786-.008-1.573-.009-2.36-.011.779-.039 1.569.013 2.352-.005.002-.852.001-1.702.001-2.554-.001-.321 0-.644.002-.965l.606-.001c.002.321.003.642.003.964V16.944c0 .216.001.433.003.649l.441-.005c-.002-.215-.002-.43-.008-.645l-.008-.262.248-.056c.002-.818 0-1.635.001-2.453.001-.427 0-.853-.002-1.281-.433-.002-.865-.002-1.298-.002l-.003-.302z"/>
    <path fill="#fff" d="M12.853 13.26h.608l-.002.993c-.004.823-.005 1.647-.011 2.471l.002.221c.016.448.039.896-.011 1.343l-.004.249c.011.271.006.544.004.816-.003.321-.003.641-.003.962l.71.005-.001.604-1.318.001c-.006-.524-.001-1.048.001-1.572.001-.274.004-.547.003-.821l-.002-.238c-.049-1.359.041-2.717.019-4.076l.004-.958zM6.231 15.891c.366-.154.783.124.887.484.223.506-.237 1.249-.823 1.098-.696-.196-.75-1.333-.064-1.581zM15.356 15.87c.729-.215 1.161.838.707 1.333-.224.352-.793.373-1.025.021-.39-.402-.21-1.172.319-1.354zM18.022 23.924c.487-.011 1.066.104 1.433-.304v.381H4.5v-.246c.191.104.402.174.622.17a11094 11094 0 0 1 12.9 0z"/>
    <path fill="#ff0303" d="M5.554 14.394c.57-1.226 1.139-2.453 1.714-3.677.721.001 1.441-.004 2.162.003-.03.125-.058.25-.086.375-.612.024-1.23-.059-1.836.039-.521 1.139-.984 2.307-1.477 3.459 1.496-.246 3.007-.433 4.525-.425 0 .852.001 1.702-.001 2.554-.783.018-1.573-.034-2.352.005l-.169.127c.826.188 1.679.047 2.517.094l-.005.109-.684-.002-.037.539c-.72.012-1.444-.047-2.161.038 1.304.128 2.627.048 3.939.059.002.201.004.401.004.603-1.084.004-2.167-.001-3.25.003l-.01.233c1.086.009 2.173 0 3.26.004l-.001.819c-1.59.005-3.18.001-4.77.003-.002.632.001 1.265-.002 1.898a73.75 73.75 0 0 1-1.152-.002c-.001-.653.005-1.306-.004-1.959-.216-.124-.45-.264-.528-.517-.354-.995-.221-2.07-.249-3.104-.058-.535.45-.841.651-1.278zm.677 1.497c-.686.248-.631 1.385.064 1.581.586.151 1.046-.592.823-1.098-.105-.36-.521-.638-.887-.484zM10.231 10.719l.45-.001-.002.376-.551-.001a6.65 6.65 0 0 1 .103-.374zM13.36 10.72l.396-.007.096.377-.493.005.002-.375zM14.619 10.677c.68 1.117 1.14 2.364 1.726 3.536.178.525.771.861.74 1.459-.026 1.036.099 2.108-.246 3.106-.07.26-.316.39-.532.513-.007.654-.002 1.307-.003 1.961-.39.003-.778.003-1.167.001-.002-.632 0-1.264-.001-1.897-.565-.003-1.13.001-1.696-.003.003-.272.007-.544-.004-.816.264.104.269-.35.004-.249.05-.447.027-.896.011-1.343.127-.002.253-.003.381-.003l-.001-.217-.381-.002c.005-.824.006-1.648.011-2.471.835.098 1.669.197 2.498.34l-.527-1.256.185-.009c.011-.103.02-.206.028-.309-.12-.008-.239-.016-.358-.026-.099-.226-.205-.449-.305-.674a25.002 25.002 0 0 1-.36-1.641zm.737 5.193c-.528.182-.709.952-.319 1.354.233.352.801.331 1.025-.021.454-.495.022-1.548-.707-1.333z"/>
    <path fill="#ff0303" d="M11.167 14.164l.676.007c-.001.818.001 1.635-.001 2.453-.082.02-.166.039-.248.056a8.997 8.997 0 0 1-.427.066v-2.583zM12.148 14.168l.7.05c.022 1.359-.068 2.717-.019 4.076l-.546-.001c.031-.515 0-1.032.049-1.546a35.87 35.87 0 0 1-.187-.215c.004-.788.001-1.577.003-2.365zM11.167 16.944l.435-.001c.006.215.006.43.008.645l-.441.005a70.365 70.365 0 0 1-.003-.649zM12.279 18.534l.553-.001c.001.274-.002.547-.003.821l-.55-.001c-.001-.273-.003-.546 0-.819z"/>
    <path fill="#0673b4" d="M8.204 16.727c.787.002 1.573.003 2.36.011-.003.053-.008.158-.012.21-.838-.047-1.692.094-2.517-.094l.169-.127z"/>
    <path fill="#197eba" d="M11.167 16.747c.142-.02.285-.04.427-.066l.008.262-.435.001v-.197z"/>
</svg>
