<!-- Generated by IcoMoon.io -->
<svg version="1.1" xmlns="http://www.w3.org/2000/svg" width="24" height="24" viewBox="0 0 24 24">
<title>information--minimum-speed-110--g1</title>
<path fill="#fff" d="M11.113 0h1.787c3.311 0.245 6.482 1.925 8.528 4.541 1.495 1.867 2.385 4.193 2.572 6.575v1.78c-0.246 3.324-1.936 6.505-4.567 8.553-1.856 1.477-4.16 2.357-6.521 2.551h-1.809c-1.872-0.156-3.712-0.728-5.318-1.706-2.494-1.506-4.414-3.94-5.27-6.727-0.274-0.861-0.424-1.755-0.514-2.653v-1.816c0.19-2.364 1.070-4.673 2.55-6.531 2.049-2.633 5.235-4.327 8.563-4.567M11.366 0.596c-1.987 0.102-3.94 0.747-5.604 1.836-2.58 1.668-4.428 4.418-4.987 7.439-0.615 3.175 0.203 6.593 2.205 9.135 1.741 2.258 4.357 3.817 7.172 4.268 1.833 0.299 3.74 0.149 5.499-0.45 2.806-0.934 5.203-3.014 6.534-5.654 1.557-3.019 1.649-6.739 0.244-9.832-1.119-2.521-3.188-4.603-5.701-5.739-1.671-0.763-3.528-1.111-5.362-1.004z"></path>
<path fill="#fff" d="M16.658 6.489c1.144-0.195 2.368 0.279 3.077 1.198 0.424 0.56 0.578 1.278 0.57 1.97-0.001 1.609 0.001 3.218-0.001 4.827-0.003 0.747-0.223 1.523-0.748 2.073-0.969 1.047-2.647 1.333-3.898 0.641-0.661-0.348-1.221-0.927-1.434-1.655-0.205-0.613-0.156-1.266-0.161-1.902 0-1.375-0.001-2.75 0.001-4.125 0.010-0.72 0.218-1.464 0.711-2.005 0.494-0.532 1.162-0.91 1.883-1.021M16.942 8.091c-0.71 0.056-1.234 0.723-1.244 1.413-0.020 1.566-0.002 3.133-0.009 4.699-0.008 0.397 0.042 0.815 0.269 1.152 0.54 0.819 1.946 0.806 2.468-0.026 0.207-0.318 0.257-0.707 0.256-1.079-0.001-1.516 0.001-3.033-0.001-4.55 0.001-0.451-0.121-0.932-0.465-1.247-0.333-0.323-0.825-0.423-1.275-0.363z"></path>
<path fill="#fff" d="M5.615 6.598c0.065-0.064 0.159-0.054 0.243-0.056 0.482 0.003 0.965-0 1.447 0.002 0.001 3.653 0.001 7.305 0 10.957-0.544 0.002-1.088 0.001-1.632 0-0.002-3.070 0.001-6.141-0.001-9.211-0.518 0.376-1.032 0.755-1.549 1.131-0.001-0.579 0-1.157-0-1.736 0.496-0.365 0.997-0.722 1.493-1.087z"></path>
<path fill="#fff" d="M9.307 7.686c0.525-0.378 1.041-0.769 1.574-1.135 0.536-0.018 1.074-0.003 1.611-0.007 0.002 3.653 0.005 7.305-0.001 10.958-0.544 0.001-1.088 0.001-1.632-0-0.002-3.070 0-6.141-0.001-9.211-0.518 0.376-1.033 0.756-1.55 1.132-0-0.579-0.001-1.158 0-1.737z"></path>
<path fill="#00f" d="M11.366 0.596c1.833-0.107 3.691 0.241 5.362 1.004 2.513 1.136 4.582 3.218 5.701 5.739 1.405 3.092 1.313 6.813-0.244 9.832-1.331 2.64-3.727 4.72-6.534 5.654-1.759 0.598-3.666 0.748-5.499 0.45-2.815-0.452-5.431-2.011-7.172-4.268-2.002-2.541-2.821-5.96-2.205-9.135 0.56-3.022 2.408-5.771 4.987-7.439 1.664-1.089 3.617-1.734 5.604-1.836M16.658 6.489c-0.72 0.111-1.389 0.489-1.882 1.021-0.493 0.541-0.701 1.286-0.711 2.005-0.002 1.375-0 2.75-0.001 4.125 0.005 0.636-0.044 1.289 0.161 1.902 0.213 0.728 0.773 1.307 1.434 1.655 1.252 0.692 2.929 0.406 3.898-0.641 0.525-0.551 0.744-1.326 0.748-2.073 0.003-1.609 0-3.218 0.001-4.827 0.008-0.692-0.146-1.41-0.57-1.97-0.709-0.919-1.933-1.393-3.077-1.198M5.615 6.598c-0.496 0.365-0.997 0.722-1.493 1.087 0 0.579-0 1.157 0 1.736 0.518-0.375 1.032-0.755 1.549-1.131 0.002 3.071-0.001 6.141 0.001 9.211 0.544 0 1.088 0.001 1.632-0 0.001-3.652 0.001-7.305 0-10.957-0.482-0.003-0.965 0.001-1.447-0.002-0.084 0.002-0.178-0.008-0.243 0.056M9.307 7.686c-0.001 0.579-0 1.158 0 1.737 0.517-0.376 1.032-0.756 1.55-1.132 0.001 3.071-0.001 6.141 0.001 9.211 0.544 0.001 1.088 0.001 1.632 0 0.006-3.653 0.004-7.305 0.001-10.958-0.537 0.004-1.075-0.011-1.611 0.007-0.533 0.366-1.049 0.757-1.574 1.135z"></path>
<path fill="#00f" d="M16.942 8.091c0.449-0.060 0.942 0.040 1.275 0.363 0.344 0.315 0.466 0.796 0.465 1.247 0.002 1.517 0 3.033 0.001 4.55 0.001 0.372-0.049 0.761-0.256 1.079-0.523 0.832-1.928 0.846-2.468 0.026-0.227-0.337-0.276-0.756-0.269-1.152 0.007-1.567-0.011-3.134 0.009-4.699 0.010-0.69 0.533-1.357 1.244-1.413z"></path>
</svg>
