<!-- Generated by IcoMoon.io -->
<svg version="1.1" xmlns="http://www.w3.org/2000/svg" width="24" height="24" viewBox="0 0 24 24">
<title>information--tourism-information--g1</title>
<path fill="#fff" d="M1.206 0h21.638l0.112 0.095c-5.588-0.115-11.183-0.017-16.773-0.050-1.657 0.027-3.318-0.056-4.972 0.046l-0.004-0.091z"></path>
<path fill="#fff" d="M23.024 0.145c0.072 0.015 0.215 0.044 0.285 0.058-0.070-0.015-0.213-0.044-0.285-0.058z"></path>
<path fill="#fff" d="M1.368 0.29c6.973-0.109 13.961-0.017 20.939-0.046 0.805-0.061 1.575 0.632 1.567 1.444 0.008 6.873 0 13.747 0.005 20.621 0.065 0.808-0.63 1.584-1.447 1.571-6.873 0.010-13.745 0.001-20.618 0.005-0.859 0.070-1.634-0.72-1.57-1.575-0.004-6.833-0.004-13.665 0-20.497-0.040-0.69 0.451-1.361 1.124-1.522M1.491 0.776c-0.461 0.104-0.776 0.57-0.747 1.034-0.002 6.834-0.001 13.668-0.001 20.502-0.052 0.59 0.475 1.124 1.067 1.078 6.834 0.002 13.668 0.001 20.502 0 0.594 0.051 1.125-0.485 1.073-1.078 0.001-6.834 0.002-13.668 0-20.502 0.056-0.65-0.572-1.165-1.199-1.073-6.897 0.030-13.801-0.047-20.695 0.039z"></path>
<path fill="#fff" d="M23.907 0.821l0.093 0.047v0.218c-0.023-0.067-0.070-0.199-0.093-0.265z"></path>
<path fill="#fff" d="M0 1.28l0.072-0.128c-0.025 7.268-0.065 14.541 0.019 21.806l-0.091-0.153v-21.525z"></path>
<path fill="#fff" d="M18.223 6.72c0.762-0.187 1.664 0.018 2.148 0.672 0.554 0.73 0.65 1.679 0.747 2.56 0.118 1.444 0.118 2.899-0.006 4.342-0.090 0.846-0.199 1.752-0.738 2.445-0.783 1.030-2.595 0.981-3.301-0.115-0.548-0.821-0.61-1.841-0.691-2.795-0.080-1.698-0.115-3.425 0.235-5.098 0.173-0.863 0.68-1.8 1.606-2.010M18.6 8.059c-0.545 0.213-0.662 0.878-0.754 1.388-0.179 1.69-0.187 3.401-0.047 5.093 0.109 0.585 0.241 1.492 0.979 1.554 0.685-0.086 0.806-0.921 0.924-1.472 0.182-1.759 0.173-3.547-0.035-5.303-0.086-0.543-0.358-1.411-1.067-1.261z"></path>
<path fill="#fff" d="M2.909 6.789c0.485-0.002 0.97-0.002 1.455 0 0 3.555 0 7.109 0 10.664-0.485 0.002-0.97 0.002-1.455 0 0-3.555 0-7.109 0-10.664z"></path>
<path fill="#fff" d="M5.847 6.772c0.463-0.011 0.926-0.011 1.388 0.012 0.584 1.87 1.154 3.747 1.778 5.604 0.016-1.874-0.002-3.747 0.010-5.619 0.458-0.004 0.918-0.002 1.376 0.002 0.001 3.53 0 7.058 0.001 10.588-0.428 0.008-0.855 0.008-1.282-0.008-0.621-1.995-1.223-3.996-1.885-5.977-0.015 1.996 0.002 3.993-0.008 5.989-0.459 0.002-0.919 0.002-1.377-0.005 0.001-3.528 0-7.057 0-10.585z"></path>
<path fill="#fff" d="M11.925 6.779c1.344-0.021 2.688-0.019 4.032-0.001-0.002 0.451-0.002 0.903 0.002 1.354-0.882 0.032-1.766 0.007-2.648 0.015-0.007 0.954-0.006 1.908-0.001 2.861 0.53 0 1.059 0 1.589 0.002 0.002 0.458 0.002 0.916 0 1.376-0.53 0.002-1.059 0.002-1.588 0.001-0.008 1.657-0.002 3.314-0.004 4.971-0.462 0.012-0.924 0.011-1.384-0.012 0.013-3.522 0.006-7.044 0.002-10.566z"></path>
<path fill="#fff" d="M0.823 23.904c0.061 0.024 0.184 0.072 0.246 0.096h-0.206l-0.040-0.096z"></path>
<path fill="#373334" d="M0.072 1.152c0.219-0.486 0.592-0.944 1.138-1.061 1.655-0.102 3.315-0.019 4.972-0.046 5.59 0.033 11.185-0.065 16.773 0.050l0.069 0.051c0.072 0.015 0.215 0.044 0.285 0.058 0.201 0.204 0.401 0.408 0.598 0.617 0.023 0.067 0.070 0.199 0.093 0.265v21.953c-0.024 0.067-0.072 0.199-0.095 0.264-0.222 0.239-0.445 0.476-0.685 0.697h-22.152c-0.062-0.024-0.185-0.072-0.246-0.096-0.21-0.194-0.415-0.392-0.617-0.592-0.018-0.070-0.055-0.211-0.073-0.281l-0.042-0.074c-0.085-7.265-0.045-14.538-0.019-21.806M1.368 0.29c-0.673 0.161-1.164 0.833-1.124 1.522-0.004 6.832-0.004 13.664 0 20.497-0.064 0.855 0.71 1.645 1.57 1.575 6.873-0.004 13.745 0.005 20.618-0.005 0.817 0.013 1.513-0.762 1.447-1.571-0.005-6.874 0.004-13.748-0.005-20.621 0.007-0.812-0.762-1.504-1.567-1.444-6.978 0.029-13.966-0.063-20.939 0.046z"></path>
<path fill="#005595" d="M1.491 0.776c6.893-0.086 13.798-0.008 20.695-0.039 0.627-0.092 1.255 0.423 1.199 1.073 0.002 6.834 0.001 13.668 0 20.502 0.052 0.593-0.479 1.128-1.073 1.078-6.834 0.001-13.668 0.002-20.502 0-0.592 0.046-1.119-0.487-1.067-1.078 0-6.834-0.001-13.668 0.001-20.502-0.029-0.464 0.286-0.93 0.747-1.034M18.223 6.72c-0.926 0.21-1.433 1.147-1.606 2.010-0.35 1.673-0.315 3.4-0.235 5.098 0.081 0.954 0.143 1.975 0.691 2.795 0.705 1.096 2.518 1.145 3.301 0.115 0.539-0.693 0.648-1.599 0.738-2.445 0.124-1.442 0.124-2.898 0.006-4.342-0.097-0.881-0.193-1.83-0.747-2.56-0.484-0.653-1.385-0.858-2.148-0.672M2.909 6.789c0 3.555 0 7.109 0 10.664 0.485 0.002 0.97 0.002 1.455 0 0-3.555 0-7.109 0-10.664-0.485-0.002-0.97-0.002-1.455 0M5.847 6.772c0 3.528 0.001 7.057 0 10.585 0.458 0.007 0.918 0.007 1.377 0.005 0.011-1.996-0.006-3.993 0.008-5.989 0.662 1.981 1.264 3.982 1.885 5.977 0.428 0.017 0.855 0.017 1.282 0.008-0.001-3.53 0-7.058-0.001-10.588-0.458-0.005-0.918-0.006-1.376-0.002-0.012 1.873 0.006 3.745-0.010 5.619-0.624-1.857-1.194-3.733-1.778-5.604-0.462-0.023-0.925-0.023-1.388-0.012M11.925 6.779c0.004 3.522 0.011 7.044-0.002 10.566 0.461 0.023 0.922 0.024 1.384 0.012 0.001-1.657-0.005-3.314 0.004-4.971 0.528 0.001 1.058 0.001 1.588-0.001 0.002-0.459 0.002-0.918 0-1.376-0.53-0.002-1.059-0.002-1.589-0.002-0.005-0.953-0.006-1.907 0.001-2.861 0.882-0.007 1.766 0.017 2.648-0.015-0.005-0.451-0.005-0.903-0.002-1.354-1.343-0.018-2.687-0.019-4.032 0.001z"></path>
<path fill="#005595" d="M18.6 8.059c0.709-0.15 0.981 0.718 1.067 1.261 0.208 1.756 0.217 3.544 0.035 5.303-0.118 0.55-0.239 1.385-0.924 1.472-0.738-0.062-0.87-0.968-0.979-1.554-0.139-1.692-0.132-3.404 0.047-5.093 0.092-0.51 0.208-1.175 0.754-1.388z"></path>
<path fill="#e0e0e0" d="M0.133 23.032c0.018 0.070 0.055 0.211 0.073 0.281-0.018-0.070-0.055-0.211-0.073-0.281z"></path>
<path fill="#d8d8d8" d="M23.905 23.303c0.023-0.065 0.070-0.198 0.095-0.264v0.218l-0.095 0.046z"></path>
</svg>
