<!-- Generated by IcoMoon.io -->
<svg version="1.1" xmlns="http://www.w3.org/2000/svg" width="16" height="24" viewBox="0 0 16 24">
<title>information--parking--g5</title>
<path fill="#03408b" d="M0 0h16.125v24h-16.125v-24M4.426 1.994c-0.002 4.554 0 9.108-0.001 13.661 0.753 0.002 1.505 0.002 2.257 0 0.003-1.313-0.002-2.628 0.002-3.941 1.18-0.007 2.362 0.005 3.542-0.005 0.899-0.071 1.606-0.78 2.001-1.547 0.848-1.508 0.79-3.314 0.651-4.984-0.184-1.659-1.638-3.332-3.41-3.187-1.681 0.005-3.361 0-5.042 0.002M8.567 18.483c0.029 0.552 0.153 1.096 0.181 1.649-1.814 0.015-3.629 0-5.443 0.008-0.002 0.54-0.002 1.081 0 1.621 1.814 0.009 3.629-0.010 5.444 0.010-0.032 0.554-0.156 1.099-0.181 1.653 0.001 0.241 0.32 0.307 0.479 0.159 1.456-0.88 2.915-1.755 4.371-2.635-1.458-0.873-2.905-1.764-4.369-2.628-0.161-0.149-0.487-0.084-0.482 0.163z"></path>
<path fill="#03408b" d="M6.686 4.438c1.045 0.032 2.104-0.068 3.141 0.082 1.028 0.368 0.947 1.62 0.959 2.511 0.031 0.832-0.133 1.945-1.043 2.252-1.013 0.103-2.039 0.051-3.058 0.074-0.001-1.639-0.001-3.278 0.001-4.918z"></path>
<path fill="#fff" d="M4.426 1.994c1.681-0.002 3.361 0.003 5.042-0.002 1.772-0.145 3.226 1.527 3.41 3.187 0.14 1.67 0.198 3.475-0.651 4.984-0.395 0.767-1.102 1.476-2.001 1.547-1.18 0.009-2.362-0.003-3.542 0.005-0.004 1.313 0.001 2.628-0.002 3.941-0.753 0.002-1.505 0.002-2.257 0 0.001-4.553-0.001-9.107 0.001-13.661M6.686 4.438c-0.002 1.64-0.002 3.279-0.001 4.918 1.019-0.023 2.045 0.029 3.058-0.074 0.909-0.307 1.073-1.419 1.043-2.252-0.012-0.891 0.069-2.142-0.959-2.511-1.037-0.15-2.095-0.050-3.141-0.082z"></path>
<path fill="#fff" d="M8.567 18.483c-0.005-0.247 0.321-0.312 0.482-0.163 1.463 0.863 2.911 1.755 4.369 2.628-1.456 0.88-2.915 1.755-4.371 2.635-0.159 0.147-0.478 0.082-0.479-0.159 0.025-0.554 0.149-1.099 0.181-1.653-1.815-0.021-3.63-0.001-5.444-0.010-0.002-0.54-0.002-1.081 0-1.621 1.814-0.008 3.629 0.008 5.443-0.008-0.028-0.553-0.152-1.097-0.181-1.649z"></path>
</svg>
