<!-- Generated by IcoMoon.io -->
<svg version="1.1" xmlns="http://www.w3.org/2000/svg" width="24" height="24" viewBox="0 0 24 24">
<title>information--end-of-minimum-speed-40--g1</title>
<path fill="#fff" d="M11.104 0h1.81c1.774 0.156 3.525 0.667 5.066 1.569 2.481 1.415 4.424 3.745 5.366 6.442 0.356 0.997 0.556 2.043 0.654 3.095v1.805c-0.156 1.775-0.668 3.527-1.57 5.069-1.537 2.7-4.161 4.757-7.155 5.592-0.768 0.225-1.562 0.343-2.356 0.428h-1.832c-1.73-0.15-3.432-0.645-4.948-1.499-2.632-1.467-4.68-3.953-5.593-6.828-0.292-0.892-0.453-1.819-0.547-2.751v-1.838c0.105-1.104 0.324-2.201 0.714-3.242 0.998-2.727 3.025-5.053 5.58-6.428 1.48-0.806 3.133-1.272 4.81-1.413M5.398 2.68c-2.516 1.767-4.259 4.59-4.698 7.633-0.481 3.123 0.42 6.42 2.416 8.868l-0.042 0.041c0.561 0.574 1.129 1.142 1.703 1.703l0.041-0.042c1.208 0.971 2.61 1.704 4.104 2.116 3.249 0.932 6.899 0.306 9.649-1.659 2.486-1.735 4.223-4.499 4.701-7.494 0.535-3.169-0.359-6.538-2.39-9.028l0.042-0.041c-0.561-0.575-1.128-1.143-1.703-1.703l-0.040 0.041c-1.246-1.003-2.7-1.75-4.249-2.157-3.226-0.875-6.821-0.23-9.536 1.722z"></path>
<path fill="#fff" d="M12.874 7.81c0.535-1.559 2.287-2.467 3.883-2.267-1.367 1.367-2.733 2.734-4.101 4.1-0.015-0.616 0.008-1.247 0.218-1.833z"></path>
<path fill="#fff" d="M7.92 5.663c0.699-0 1.398-0.002 2.097 0.001-1.425 3.032-2.86 6.060-4.286 9.092 0.603 0.002 1.207-0.002 1.81 0.002-0.593 0.595-1.186 1.189-1.782 1.781-0.699-0.005-1.398 0-2.097-0.002-0.002-0.561-0.002-1.121 0-1.682 0.029-0.225 0.174-0.414 0.255-0.623 1.335-2.856 2.665-5.715 4.003-8.569z"></path>
<path fill="#fff" d="M17.664 8.038c0.451-0.452 0.903-0.904 1.355-1.355 0.618 0.638 0.893 1.537 0.903 2.411 0.005 1.922 0.001 3.844 0.001 5.766 0.001 0.831-0.21 1.695-0.755 2.341-0.713 0.835-1.801 1.343-2.903 1.323-1.086 0.008-2.155-0.497-2.857-1.321-0.512-0.61-0.733-1.416-0.751-2.201-0.008-0.651 0-1.302-0.004-1.953 0.628-0.628 1.254-1.256 1.883-1.883 0.007 1.232-0.005 2.465 0.006 3.697 0.007 0.607 0.272 1.248 0.823 1.552 0.7 0.382 1.688 0.299 2.231-0.317 0.336-0.372 0.445-0.891 0.443-1.379 0-1.797 0.001-3.594-0-5.391 0.004-0.454-0.102-0.919-0.375-1.29z"></path>
<path fill="#fff" d="M8.954 11.101c0.627-0.001 1.254-0.002 1.882 0-0 0.121 0.001 0.242 0.001 0.363-0.627 0.627-1.254 1.255-1.882 1.881-0.004-0.748-0.004-1.496-0.001-2.244z"></path>
<path fill="#fff" d="M8.951 16.751c0.664-0.665 1.329-1.33 1.994-1.995 0.303-0 0.606-0.002 0.909 0.001 0.002 0.593 0.002 1.186 0 1.779-0.339 0.002-0.678-0.002-1.017 0.002-0.003 0.627 0.001 1.254-0.002 1.882-0.628 0.002-1.255 0.001-1.882 0-0.003-0.556 0.001-1.113-0.002-1.67z"></path>
<path fill="#00f" d="M5.398 2.68c2.715-1.952 6.31-2.596 9.536-1.722 1.548 0.407 3.002 1.154 4.249 2.157-0.807 0.811-1.617 1.619-2.426 2.428-1.596-0.2-3.348 0.708-3.883 2.267-0.21 0.586-0.233 1.217-0.218 1.833-0.606 0.608-1.213 1.214-1.82 1.821 0-0.121-0.001-0.242-0.001-0.363-0.627-0.002-1.254-0.002-1.882-0-0.003 0.748-0.003 1.496 0.001 2.244-0.471 0.472-0.941 0.943-1.413 1.413-0.603-0.005-1.207 0-1.81-0.002 1.426-3.032 2.861-6.060 4.286-9.092-0.699-0.003-1.398-0.001-2.097-0.001-1.338 2.855-2.668 5.713-4.003 8.569-0.081 0.209-0.226 0.398-0.255 0.623-0.002 0.561-0.002 1.121 0 1.682 0.699 0.002 1.398-0.002 2.097 0.002-0.879 0.882-1.76 1.763-2.643 2.642-1.996-2.448-2.897-5.745-2.416-8.868 0.439-3.044 2.182-5.866 4.698-7.633z"></path>
<path fill="#00f" d="M19.019 6.683c0.622-0.622 1.243-1.245 1.866-1.865 2.031 2.49 2.925 5.859 2.39 9.028-0.478 2.995-2.215 5.759-4.701 7.494-2.75 1.965-6.4 2.591-9.649 1.659-1.495-0.412-2.897-1.145-4.104-2.116 1.376-1.379 2.754-2.755 4.132-4.133 0.003 0.556-0.001 1.113 0.002 1.67 0.627 0.001 1.254 0.002 1.882 0 0.003-0.628-0.001-1.255 0.002-1.882 0.339-0.004 0.678 0 1.017-0.002 0.002-0.593 0.002-1.186 0-1.779-0.303-0.003-0.606-0.001-0.909-0.001 0.57-0.57 1.139-1.139 1.709-1.708 0.004 0.651-0.004 1.302 0.004 1.953 0.018 0.785 0.239 1.591 0.751 2.201 0.703 0.824 1.771 1.328 2.857 1.321 1.102 0.020 2.19-0.488 2.903-1.323 0.545-0.646 0.756-1.51 0.755-2.341 0-1.922 0.003-3.844-0.001-5.766-0.010-0.874-0.285-1.772-0.903-2.411z"></path>
<path fill="#00f" d="M14.536 11.166c1.041-1.044 2.085-2.085 3.128-3.128 0.273 0.37 0.379 0.835 0.375 1.29 0.001 1.797 0.001 3.594 0 5.391 0.001 0.488-0.107 1.007-0.443 1.379-0.543 0.616-1.53 0.699-2.231 0.317-0.55-0.304-0.816-0.945-0.823-1.552-0.011-1.232 0.001-2.465-0.006-3.697z"></path>
<path fill="#f00" d="M19.183 3.116l0.040-0.041c0.575 0.56 1.142 1.128 1.703 1.703l-0.042 0.041c-0.623 0.62-1.244 1.243-1.866 1.865-0.451 0.451-0.904 0.903-1.355 1.355-1.043 1.043-2.086 2.084-3.128 3.128-0.629 0.626-1.255 1.255-1.883 1.883-0.57 0.569-1.139 1.139-1.709 1.708-0.665 0.665-1.33 1.329-1.994 1.995-1.377 1.377-2.756 2.753-4.132 4.133l-0.041 0.042c-0.574-0.561-1.142-1.129-1.703-1.703l0.042-0.041c0.883-0.879 1.764-1.76 2.643-2.642 0.595-0.592 1.189-1.186 1.782-1.781 0.472-0.47 0.943-0.941 1.413-1.413 0.628-0.626 1.254-1.254 1.882-1.881 0.607-0.607 1.214-1.213 1.82-1.821 1.368-1.366 2.734-2.733 4.101-4.1 0.809-0.809 1.619-1.616 2.426-2.428z"></path>
</svg>
