<svg xmlns="http://www.w3.org/2000/svg" width="24" height="24">
    <path fill="#fff" d="M1.539 0h.339c-.106.178-.24.204-.403.077L1.539 0zM.246 2.013c.2-.952.988-1.817 2.013-1.806 6.493-.02 12.986.001 19.479-.01 1.05-.097 1.966.675 2.222 1.664.02 6.723-.02 13.445.02 20.166a2.371 2.371 0 0 1-1.788 1.85 6140.86 6140.86 0 0 0-20.132.001 2.348 2.348 0 0 1-1.789-1.847C.274 15.359.319 8.684.247 2.013zM1.925.684C1.219.844.696 1.538.721 2.261.715 8.754.72 15.247.718 21.74c-.07.917.749 1.752 1.669 1.694h19.476c.917.055 1.732-.779 1.662-1.694-.001-6.494.004-12.988-.003-19.481.045-.946-.854-1.728-1.782-1.63C15.136.672 8.521.56 1.923.684z"/>
    <path fill="#fff" d="M10.339 4.173c.166-1.504 1.95-1.999 3.228-2.101-.332 1.818-.658 3.638-.995 5.455-.548.197-1.151.602-1.132 1.257-.011 2.312-.008 4.625-.003 6.937-.013.56.565.828.999 1.024.412 1.759.813 3.522 1.211 5.285a6.404 6.404 0 0 1-3.077-1.062c-.432-1.688-.924-3.36-1.341-5.053-.336-2.142-.378-4.34-.067-6.49.245-1.781.774-3.504 1.176-5.252z"/>
    <path fill="#fff" d="M14.088 2.199c.426.099 1.278.034 1.208.684a189.592 189.592 0 0 1-.942 4.556c-.155.583-.862.15-1.26.134.328-1.792.665-3.582.995-5.374zM12.925 16.552c.401-.06 1.088-.534 1.278.043.382 1.508.743 3.023 1.094 4.537.188.695-.717.687-1.155.808-.408-1.796-.81-3.592-1.218-5.388z"/>
    <path fill="#332f30" d="M1.879 0h20.496c.107.178.241.204.405.075.626.249 1.104.772 1.347 1.395v.55l-.166-.16C23.706.871 22.79.1 21.739.196 15.246.207 8.753.186 2.26.206 1.235.195.447 1.059.247 2.012l-.085-.205C.066 1.01.807.37 1.476.075c.163.127.298.102.403-.077z"/>
    <path fill="#d0cfcf" d="M22.374 0h.341l.064.075c-.163.128-.298.103-.405-.075z"/>
    <path fill="#005595" d="M1.925.684C8.523.56 15.138.671 21.742.629c.927-.098 1.827.684 1.782 1.63.006 6.494.001 12.988.003 19.481.069.915-.745 1.749-1.662 1.694H2.389c-.92.058-1.739-.777-1.669-1.694C.721 15.247.716 8.754.723 2.261.698 1.538 1.221.844 1.927.684zm8.414 3.489c-.402 1.748-.931 3.472-1.176 5.252-.312 2.15-.269 4.348.067 6.49.417 1.693.908 3.365 1.341 5.053.915.612 1.98.98 3.077 1.062a673.966 673.966 0 0 0-1.211-5.285c-.433-.196-1.012-.464-.999-1.024-.005-2.312-.009-4.625.003-6.937-.019-.655.584-1.059 1.132-1.257.337-1.817.663-3.636.995-5.455-1.278.102-3.062.597-3.228 2.101zm3.749-1.974c-.33 1.792-.667 3.582-.995 5.374.398.015 1.106.449 1.26-.134.33-1.514.65-3.033.942-4.556.07-.65-.782-.584-1.208-.684zm-1.163 14.353c.407 1.796.809 3.592 1.218 5.388.437-.121 1.343-.113 1.155-.808-.352-1.514-.712-3.03-1.094-4.537-.19-.577-.877-.103-1.278-.043z"/>
    <path fill="#cccbcb" d="M0 1.902l.161-.094C.047 8.661.21 15.524.079 22.376L0 22.117V1.902z"/>
    <path fill="#231f20" d="M.161 1.808l.085.205C.318 8.684.272 15.359.27 22.031l-.191.346C.21 15.525.046 8.662.161 1.809zM23.96 1.861l.166.16v20.342a372.48 372.48 0 0 0-.146-.336c-.04-6.721 0-13.444-.02-20.166zM1.627 24l.432-.122c6.71-.013 13.421-.011 20.132-.001l.435.123H1.627z"/>
    <path fill="#7c7a7a" d="M.27 22.031c.173.92.881 1.637 1.789 1.847L1.627 24H1.42c-.645-.338-1.21-.877-1.341-1.623l.191-.346z"/>
    <path fill="#7a7878" d="M22.192 23.877a2.37 2.37 0 0 0 1.788-1.85l.146.336v.181c-.186.672-.699 1.172-1.321 1.456h-.178l-.435-.123z"/>
</svg>
