<!-- Generated by IcoMoon.io -->
<svg version="1.1" xmlns="http://www.w3.org/2000/svg" width="23" height="24" viewBox="0 0 23 24">
<title>information--parking--g1</title>
<path fill="#1ea8e3" d="M0 0h23.451v24h-23.451v-24M5.399 1.989c-0.008 6.72-0.008 13.44 0 20.16 1.099 0.005 2.197 0.010 3.297-0.001 0.010-2.528-0.004-5.055 0.005-7.581 1.817-0.025 3.659 0.071 5.451-0.281 2.020-0.494 3.345-2.466 3.645-4.439 0.236-1.65 0.187-3.398-0.483-4.948-0.632-1.419-1.928-2.667-3.544-2.77-2.783-0.265-5.583-0.096-8.373-0.139z"></path>
<path fill="#1ea8e3" d="M8.703 5.413c1.365 0.036 2.758-0.119 4.101 0.173 2.326 0.706 2.281 4.715-0.075 5.347-1.322 0.247-2.681 0.206-4.022 0.195-0.014-1.905-0.008-3.81-0.003-5.715z"></path>
<path fill="#fff" d="M5.399 1.989c2.789 0.043 5.59-0.126 8.373 0.139 1.616 0.103 2.912 1.351 3.544 2.77 0.669 1.55 0.719 3.298 0.483 4.948-0.3 1.973-1.625 3.946-3.645 4.439-1.792 0.352-3.634 0.256-5.451 0.281-0.010 2.526 0.004 5.054-0.005 7.581-1.1 0.011-2.198 0.007-3.297 0.001-0.008-6.72-0.008-13.44 0-20.16M8.703 5.413c-0.005 1.905-0.011 3.81 0.003 5.715 1.341 0.011 2.7 0.052 4.022-0.195 2.356-0.632 2.401-4.641 0.075-5.347-1.343-0.292-2.736-0.137-4.101-0.173z"></path>
</svg>
