<?xml version="1.0" encoding="utf-8"?>
<!-- Generated by IcoMoon.io -->
<!DOCTYPE svg PUBLIC "-//W3C//DTD SVG 1.1//EN" "http://www.w3.org/Graphics/SVG/1.1/DTD/svg11.dtd">
<svg version="1.1" xmlns="http://www.w3.org/2000/svg" xmlns:xlink="http://www.w3.org/1999/xlink" width="24" height="24" viewBox="0 0 24 24">
<path fill="#f0ca00" d="M24 12c0 6.627-5.373 12-12 12s-12-5.373-12-12c0-6.627 5.373-12 12-12s12 5.373 12 12z"></path>
<path fill="#008754" d="M23.351 12c0 6.269-5.082 11.351-11.351 11.351s-11.351-5.082-11.351-11.351c0-6.269 5.082-11.351 11.351-11.351s11.351 5.082 11.351 11.351z"></path>
<path fill="#f0ca00" d="M20.108 12c0 4.478-3.63 8.108-8.108 8.108s-8.108-3.63-8.108-8.108c0-4.478 3.63-8.108 8.108-8.108s8.108 3.63 8.108 8.108z"></path>
<path fill="#008754" d="M14.432 11.027h-4.865v-5.189h-1.946v12.324h1.946v-5.514h4.865v5.514h1.946v-12.324h-1.946z"></path>
</svg>
