<!-- Generated by IcoMoon.io -->
<svg version="1.1" xmlns="http://www.w3.org/2000/svg" width="50" height="24" viewBox="0 0 50 24">
<title>information--built-up-area--g1</title>
<path fill="#1d1d1d" opacity="0.2" d="M1.509 0h5.56l-0.004 0.038c-1.872-0.008-3.744 0.017-5.615-0.012l0.059-0.026z"></path>
<path fill="#303030" opacity="0.32" d="M7.069 0h29.782l-0.061 0.030c-0.181 0.013-0.364 0.008-0.545 0.008-9.727-0-19.453 0-29.18-0l0.004-0.038z"></path>
<path fill="#1f1f1f" opacity="0.21" d="M36.852 0h11.835l-0.063 0.022c-0.107 0.014-0.214 0.019-0.321 0.017-3.837-0.009-7.675 0.011-11.512-0.009l0.061-0.030z"></path>
<path fill="#6b6b6b" d="M0.552 0.373c0.242-0.226 0.567-0.355 0.899-0.348 1.871 0.029 3.743 0.004 5.615 0.012 9.727 0.001 19.453 0 29.18 0 0.182-0 0.364 0.005 0.545-0.008 3.837 0.020 7.675 0 11.512 0.009 0.107 0.001 0.214-0.004 0.321-0.017 0.078 0.038 0.155 0.079 0.233 0.118-0.184-0.034-0.366-0.082-0.553-0.085-15.622 0.001-31.245 0.001-46.867 0-0.323 0.001-0.616 0.153-0.884 0.319z"></path>
<path fill="#6b6b6b" d="M0.024 1.474c-0.032-0.342 0.126-0.675 0.35-0.924-0.169 0.28-0.329 0.587-0.32 0.924 0.007 7.136-0.006 14.272 0.007 21.408-0.065-0.901-0.017-1.809-0.047-2.711 0.029-0.183 0.033-0.369 0.028-0.554-0.006-3.25-0-6.501-0.001-9.751 0.002-0.234 0.012-0.469-0.028-0.701 0.013-2.563 0.010-5.127 0.011-7.69z"></path>
<path fill="#6b6b6b" d="M12.525 16.287c-0.003-0.115 0.032-0.225 0.074-0.33-0.002 0.813-0.001 1.625-0.002 2.438-0.017-0-0.053-0.001-0.071-0.001-0.001-0.703 0.001-1.405-0.002-2.107z"></path>
<path fill="#6b6b6b" d="M0.658 23.775c0.153 0.060 0.302 0.126 0.453 0.19-0.172 0.004-0.319-0.096-0.453-0.19z"></path>
<path fill="#030303" d="M0.552 0.373c0.268-0.166 0.561-0.318 0.884-0.319 15.622 0.001 31.245 0.001 46.867 0 0.187 0.003 0.37 0.051 0.553 0.085 0.381 0.168 0.698 0.495 0.814 0.899 0.015 0.334 0.023 0.668 0.019 1.002-0 6.652-0 13.304-0 19.956 0.005 0.335-0.007 0.67-0.014 1.005-0.063 0.265-0.236 0.489-0.441 0.663-0.284 0.138-0.564 0.329-0.894 0.313-15.194-0.001-30.387 0-45.581-0.001-0.184-0.002-0.368 0.001-0.551 0.019-0.298-0.034-0.6-0.052-0.899-0.016-0.066-0.005-0.132-0.008-0.198-0.014-0.151-0.064-0.3-0.131-0.453-0.19-0.303-0.207-0.52-0.536-0.597-0.894-0.014-7.136 0-14.272-0.007-21.408-0.009-0.337 0.151-0.644 0.32-0.924 0.054-0.063 0.114-0.122 0.178-0.176M0.878 1.512c0.003 4.744-0.004 9.489 0.004 14.234 0.393-0.002 0.786 0.002 1.179-0.003 0.005-0.513 0-1.027 0.003-1.54 1.567-0.945 3.145-1.873 4.715-2.815 0.118-0.089 0.245 0.017 0.345 0.078 1.524 0.914 3.055 1.815 4.576 2.733 0.001 1.397 0.002 2.793-0 4.19 0.276 0.014 0.552 0.006 0.827 0.006 0.018 0 0.053 0 0.071 0.001 0-0.813 0-1.625 0.002-2.438 1.177-4.45 2.331-8.908 3.495-13.362 0.023-0.006 0.070-0.018 0.093-0.024 1.163 4.499 2.348 8.993 3.518 13.49 0.018 0.674 0.005 1.35 0.007 2.025 0.29 0.014 0.581 0.008 0.872 0.004-0.003-1.072 0.003-2.145-0.003-3.217 0.468-0.465 0.965-0.9 1.438-1.359 0.055-0.052 0.118-0.11 0.2-0.107 0.817-0.002 1.635 0 2.452-0.001 0.013-0.382-0.028-0.768 0.025-1.148 0.845 0.006 1.691-0.004 2.536 0.005 0.001 0.38 0.001 0.76 0 1.14 0.827 0.009 1.654 0 2.481 0.004 0.071-0.003 0.131 0.042 0.18 0.089 0.479 0.466 0.981 0.908 1.458 1.377-0.005 0.453-0 0.906-0.002 1.359 0.257 0.072 0.528 0.017 0.791 0.036 0.026-0.027 0.053-0.053 0.080-0.080 0.001-0.962-0.010-1.925 0.005-2.886 1.372-0.631 2.73-1.294 4.095-1.939 0.061-0.015 0.129-0.016 0.188 0.008 1.262 0.604 2.527 1.202 3.789 1.804 0.11 0.053 0.23 0.093 0.319 0.183-0.008 1.133-0.005 2.267-0.002 3.4 0.278 0.004 0.556 0 0.834 0.003 0.009-2.45 0.001-4.901 0.004-7.351 0.004-0.177-0.021-0.359 0.034-0.531 0.893-0.297 1.772-0.635 2.66-0.948 0.183-0.057 0.371-0.183 0.568-0.11 0.882 0.316 1.76 0.644 2.646 0.949l-0.060 0.015c0.11 0.059 0.227 0.104 0.345 0.146 0.009 2.189-0.001 4.378 0.005 6.567-0.008 0.094 0.057 0.195 0.159 0.194 0.303 0.014 0.607 0.002 0.911 0.005 0.102 0.007 0.246-0.040 0.239-0.164 0.002-4.573 0-9.146 0.001-13.719 0.003-0.172 0.004-0.345-0.014-0.517-0.020 0.004-0.061 0.012-0.082 0.016-0.048-0.266-0.335-0.459-0.6-0.435-15.597 0.001-31.194-0-46.791 0-0.331-0.018-0.63 0.303-0.596 0.633z"></path>
<path fill="#fff" d="M0.878 1.512c-0.035-0.329 0.264-0.65 0.596-0.633 15.597-0.001 31.194 0 46.791-0 0.265-0.024 0.551 0.169 0.6 0.435 0.029 0.203 0.015 0.409 0.017 0.614 0.001 4.511-0.002 9.022 0.001 13.533 0.002 0.062-0.003 0.161-0.088 0.158-0.316 0.009-0.632 0.003-0.948 0.003-0.075 0.014-0.138-0.049-0.123-0.123-0.003-2.199 0.003-4.397-0.003-6.595-0.118-0.051-0.237-0.099-0.361-0.132-0.886-0.305-1.764-0.633-2.646-0.949-0.197-0.073-0.386 0.053-0.568 0.11-0.888 0.313-1.767 0.651-2.66 0.948-0.055 0.172-0.030 0.354-0.034 0.531-0.003 2.45 0.005 4.901-0.004 7.351-0.278-0.002-0.556 0.002-0.834-0.003-0.003-1.133-0.006-2.267 0.002-3.4-0.089-0.089-0.209-0.13-0.319-0.183-1.263-0.602-2.528-1.2-3.789-1.804-0.059-0.025-0.127-0.024-0.188-0.008-1.366 0.645-2.723 1.308-4.095 1.939-0.015 0.962-0.005 1.925-0.005 2.886-0.027 0.026-0.054 0.053-0.080 0.080-0.263-0.020-0.535 0.036-0.791-0.036 0.002-0.453-0.003-0.906 0.002-1.359-0.477-0.468-0.979-0.91-1.458-1.377-0.049-0.047-0.109-0.092-0.18-0.089-0.827-0.004-1.654 0.005-2.481-0.004 0.001-0.38 0.001-0.76 0-1.14-0.845-0.009-1.691 0.001-2.536-0.005-0.053 0.379-0.012 0.766-0.025 1.148-0.817 0.001-1.635-0.001-2.452 0.001-0.082-0.004-0.145 0.055-0.2 0.107-0.474 0.459-0.971 0.894-1.438 1.359 0.006 1.072-0 2.145 0.003 3.217-0.29 0.003-0.581 0.009-0.872-0.004-0.002-0.675 0.011-1.351-0.007-2.025-1.17-4.497-2.355-8.991-3.518-13.49-0.023 0.006-0.070 0.018-0.093 0.024-1.164 4.454-2.318 8.912-3.495 13.362-0.042 0.105-0.077 0.215-0.074 0.33 0.002 0.703 0 1.405 0.002 2.107-0.276 0.001-0.552 0.008-0.827-0.006 0.003-1.397 0.002-2.794 0-4.19-1.521-0.918-3.052-1.819-4.576-2.733-0.101-0.062-0.228-0.167-0.345-0.078-1.569 0.942-3.147 1.869-4.715 2.815-0.002 0.514 0.002 1.027-0.003 1.54-0.393 0.005-0.786 0-1.179 0.003-0.008-4.744-0-9.489-0.004-14.234z"></path>
<path fill="#3c3c3c" d="M49.671 1.039c0.023 0.072 0.046 0.144 0.068 0.217v21.524c-0.021 0.074-0.043 0.148-0.064 0.222 0.007-0.335 0.020-0.67 0.014-1.005 0-6.652 0-13.304 0-19.956 0.004-0.334-0.004-0.668-0.019-1.002z"></path>
<path fill="#3c3c3c" d="M48.864 1.313c0.020-0.004 0.061-0.012 0.082-0.016 0.018 0.172 0.017 0.344 0.014 0.517-0.001 4.573 0.001 9.146-0.001 13.719 0.006 0.125-0.138 0.171-0.239 0.164-0.304-0.003-0.608 0.008-0.911-0.005-0.102 0.001-0.167-0.099-0.159-0.194-0.006-2.189 0.005-4.378-0.005-6.567-0.118-0.042-0.235-0.087-0.345-0.146l0.060-0.015c0.124 0.033 0.243 0.081 0.361 0.132 0.006 2.198 0 4.397 0.003 6.595-0.015 0.074 0.048 0.137 0.123 0.123 0.316 0 0.632 0.006 0.948-0.003 0.084 0.003 0.090-0.096 0.088-0.158-0.002-4.511 0-9.022-0.001-13.533-0.002-0.205 0.011-0.411-0.017-0.614z"></path>
<path fill="#3c3c3c" d="M48.34 23.978c0.33 0.017 0.61-0.175 0.894-0.313-0.159 0.144-0.349 0.248-0.545 0.335l-46.481-0.004c0.183-0.018 0.367-0.021 0.551-0.019 15.194 0.001 30.387-0 45.581 0.001z"></path>
<path fill="#585858" opacity="0.59" d="M0 9.225l0.012-0.062c0.040 0.232 0.030 0.467 0.028 0.701 0.001 3.25-0.005 6.501 0.001 9.751 0.005 0.185 0.001 0.371-0.028 0.554l-0.014-0.061v-10.884z"></path>
<path fill="#141414" opacity="0.56" d="M1.309 23.98c0.299-0.036 0.601-0.018 0.899 0.016l-0.048 0.004h-0.787l-0.064-0.020z"></path>
</svg>
