<svg xmlns="http://www.w3.org/2000/svg" width="24" height="24">
    <path fill="#0e0e0e" opacity=".25" d="M.946.496C1.448.296 1.995.383 2.52.375h18.96c.526.01 1.072-.08 1.573.119C15.684.484 8.315.481.945.496zM.938 23.506c7.379.002 14.758-.001 22.135.001-.51.197-1.062.11-1.594.119H2.519c-.527-.011-1.078.082-1.582-.12z"/>
    <path fill="#fff" d="M.497.944c.049-.22.229-.4.449-.449C8.315.479 15.684.483 23.054.493a.624.624 0 0 1 .446.45c.018 7.375.004 14.752.008 22.127-.05.21-.233.373-.434.437-7.378-.002-14.756.001-22.135-.001a.652.652 0 0 1-.446-.437C.495 15.694.486 8.319.498.945zM.899.899c-.034 7.4-.03 14.803-.001 22.204 7.302.041 14.604.007 21.906.017.224.038.358-.089.318-.316-.011-7.301.024-14.604-.019-21.905C15.703.867 8.3.868.899.899z"/>
    <path fill="#fff" d="M13.664 2.768h.622c.004 6.155.004 12.308 0 18.463a64.689 64.689 0 0 0-.623 0c-.005-6.155-.004-12.308.001-18.463zM4.486 3.551c.502.764 1.078 1.489 1.5 2.299-.227.324-.682-.013-.996-.023-.01 4.878.002 9.756-.006 14.634-.329.004-.656.004-.985.001-.007-4.878.005-9.757-.004-14.636-.32.01-.763.347-1.003.029.42-.812 1.008-1.53 1.494-2.304zM8.386 5.778c.466-.757.967-1.496 1.489-2.216.502.77 1.054 1.508 1.514 2.304-.304.264-.691-.005-1.027-.049-.006 4.882.002 9.763-.005 14.645-.329.004-.658.004-.988.001-.005-4.882.007-9.763-.002-14.645-.298.008-.894.413-.982-.04zM16.74 7.712c.896.182 1.813.3 2.688.566.05.391-.469.462-.712.664.598.616 1.338 1.273 1.324 2.209.006 3.127.007 6.254 0 9.383-.329.002-.656.002-.984-.001-.012-3.046-.02-6.092-.02-9.139.078-.749-.634-1.213-1.045-1.739-.206.238-.29.809-.679.734-.29-.862-.365-1.79-.571-2.677z"/>
    <path fill="#154889" d="M.899.899c7.4-.031 14.803-.032 22.204 0 .043 7.301.008 14.604.019 21.905.04.227-.094.354-.318.316-7.302-.01-14.604.024-21.906-.017C.869 15.703.866 8.3.899.899zm12.765 1.869c-.005 6.155-.006 12.308-.001 18.463h.623c.004-6.155.004-12.308 0-18.463h-.622zm-9.178.783C4 4.325 3.412 5.043 2.992 5.855c.24.318.683-.019 1.003-.029.008 4.879-.004 9.758.004 14.636.329.002.656.002.985-.001.008-4.878-.004-9.756.006-14.634.314.01.769.347.996.023-.422-.81-.998-1.535-1.5-2.299zm3.9 2.227c.088.452.684.048.982.04.01 4.882-.002 9.763.002 14.645.33.002.659.002.988-.001.007-4.882-.001-9.763.005-14.645.336.044.724.313 1.027.049-.461-.796-1.013-1.534-1.514-2.304a34.98 34.98 0 0 0-1.489 2.216zm8.354 1.934c.206.887.281 1.816.571 2.677.389.074.473-.497.679-.734.412.526 1.123.99 1.045 1.739 0 3.047.008 6.094.02 9.139.328.004.655.004.984.001.007-3.128.006-6.256 0-9.383.014-.936-.726-1.594-1.324-2.209.242-.202.762-.272.712-.664-.875-.266-1.792-.384-2.688-.566z"/>
    <path fill="#080808" opacity=".24" d="M.377 2.64C.39 2.075.289 1.487.497.944.485 8.318.495 15.693.492 23.068c-.191-.551-.104-1.139-.112-1.709.001-6.24-.006-12.48-.004-18.72z"/>
    <path fill="#070707" opacity=".23" d="M23.5.943c.199.503.11 1.051.119 1.577-.002 6.28.005 12.56.004 18.84-.008.57.079 1.159-.114 1.71-.005-7.375.01-14.752-.008-22.127z"/>
</svg>
