<!-- Generated by IcoMoon.io -->
<svg version="1.1" xmlns="http://www.w3.org/2000/svg" width="24" height="24" viewBox="0 0 24 24">
<title>information--end-of-living-street--g2</title>
<path fill="#fff" d="M0.808 0h0.522c-0.681 0.212-1.204 0.864-1.177 1.592-0.001 6.073-0.003 12.147 0.001 18.22 0.005 0.929-0.021 1.859 0.012 2.789-0.041 0.044-0.125 0.13-0.167 0.173v-21.721c0.171-0.415 0.444-0.788 0.808-1.052z"></path>
<path fill="#fff" d="M13.382 1.959c0.834 0.080 1.519-0.516 2.331-0.566 0.949-0.091 1.918-0.127 2.861 0.038-1.202 1.192-2.386 2.404-3.6 3.584-1.451-0.255-3.005 0.211-4.393-0.408-0.704-0.271-1.068-1.283-0.496-1.853 0.836-0.886 2.181-0.788 3.297-0.795z"></path>
<path fill="#fff" d="M7.2 5.497c0.45-0.144 0.939-0.23 1.4-0.079 1.554 0.451 3.12 0.857 4.674 1.308-0.176 0.174-0.352 0.349-0.526 0.525-1.332-0.402-2.682-0.74-4.017-1.133-0.307-0.090-0.632-0.181-0.953-0.105-2.29 0.598-4.552 1.309-6.854 1.857-0.004-0.196-0.008-0.393-0.013-0.589 2.075-0.663 4.2-1.164 6.289-1.784z"></path>
<path fill="#fff" d="M7.074 6.649c0.453-0.124 0.931-0.335 1.402-0.153 1.301 0.384 2.619 0.713 3.915 1.114-0.341 0.344-0.683 0.686-1.025 1.030-0.712 0.003-1.422-0.002-2.133 0.004-0.029 0.706-0.027 1.412-0.006 2.119-1.013 1.044-2.056 2.059-3.078 3.095-1.316 0.016-2.632 0.014-3.947 0.001-0.004-1.94 0.003-3.881-0.004-5.822 1.61-0.513 3.255-0.911 4.876-1.388M3.749 8.641c-0.001 0.807-0.004 1.614 0.002 2.421 1.388 0.030 2.777-0.005 4.165 0.019 0.133-0.805 0.078-1.63 0.035-2.44-1.401 0-2.801 0-4.202 0z"></path>
<path fill="#fff" d="M18.333 9.793c0.176-0.175 0.353-0.35 0.528-0.526 0.082 1.536 0.228 3.070 0.224 4.61-0.25 0.003-0.691 0.218-0.72-0.177-0.113-1.298-0.038-2.606-0.032-3.907z"></path>
<path fill="#fff" d="M14.907 13.754c0.717-0.388 1.566 0.493 1.222 1.205-0.195 0.52-0.896 0.749-1.354 0.421-0.612-0.347-0.532-1.383 0.132-1.626z"></path>
<path fill="#fff" d="M20.044 14.53c0.294-0.736 1.45-0.339 1.265 0.435 0.121-0.015 0.242-0.030 0.363-0.044 0.118 0.232 0.258 0.45 0.418 0.655-0.26-0.019-0.52-0.027-0.781-0.021-0.031-0.12-0.062-0.241-0.092-0.361-0.493 0.488-1.44 0.045-1.173-0.665z"></path>
<path fill="#fff" d="M12.082 16.065c0.666-0.21 1.288-0.542 1.959-0.728 0.554-0.126 0.872 0.444 1.102 0.846 0.326 0.635 0.777 1.207 1.041 1.873 0.098 0.308-0.278 0.342-0.482 0.413-0.314-0.4-0.496-0.912-0.881-1.249-0.259 0.255-0.465 0.555-0.681 0.847 0.5 1.312 0.201 2.723 0.092 4.073 0.013 0.467-0.769 0.473-0.789 0.023-0.002-0.841 0.193-1.674 0.187-2.515-0.127-0.227-0.331-0.398-0.5-0.594-0.44 0.191-0.758 0.551-1.134 0.833-0.625-0.14-1.182-0.526-1.731-0.85-0.324-0.226-0.055-0.63 0.224-0.754 0.457 0.227 0.907 0.465 1.356 0.708 0.151-0.397 0.347-0.778 0.664-1.068 0.398-0.348 0.383-0.912 0.481-1.389-0.548 0.103-1.101 0.587-1.658 0.268 0.246-0.25 0.492-0.5 0.75-0.738z"></path>
<path fill="#fff" d="M19.142 16.29c0.558-0.203 1.084-0.868 1.712-0.501 0.611 0.109 1.116 0.568 1.101 1.221-0.081 0.040-0.243 0.121-0.324 0.16-0.186-0.23-0.347-0.48-0.505-0.731-0.098 0.219-0.193 0.438-0.288 0.657 0.182 0.387 0.536 0.749 0.438 1.21 0.426-0.106 1.33-0.689 1.325 0.119-0.493 0.208-1.008 0.355-1.508 0.541-0.263-0.255-0.483-0.548-0.713-0.833-0.449 0.794-0.169 1.675-0.145 2.522-0.172 0.006-0.343 0.010-0.515 0.011-0.095-0.752-0.332-1.525-0.048-2.263-0.089-0.605 0.366-1.176 0.090-1.756-0.256 0.101-0.511 0.207-0.767 0.309-0.279-0.28-0.665-0.554-0.615-1.001 0.33-0.186 0.552 0.127 0.761 0.336z"></path>
<path fill="#fff" d="M16.39 19.908c0.668-0.25 1.396 0.434 1.136 1.112-0.189 0.65-1.141 0.811-1.535 0.262-0.389-0.446-0.143-1.19 0.398-1.374z"></path>
<path fill="#03408b" d="M1.331 0h18.679c-0.475 0.48-0.95 0.961-1.436 1.432-0.943-0.166-1.912-0.13-2.861-0.038-0.812 0.050-1.497 0.646-2.331 0.566-1.116 0.007-2.462-0.090-3.297 0.795-0.572 0.57-0.208 1.582 0.496 1.853 1.388 0.619 2.943 0.153 4.393 0.408-0.554 0.583-1.125 1.15-1.7 1.711-1.554-0.451-3.12-0.857-4.674-1.308-0.461-0.152-0.949-0.066-1.4 0.079-2.089 0.62-4.214 1.121-6.289 1.784 0.004 0.196 0.008 0.393 0.013 0.589 2.302-0.548 4.564-1.259 6.854-1.857 0.321-0.075 0.646 0.015 0.953 0.105 1.335 0.393 2.686 0.731 4.017 1.133-0.119 0.12-0.238 0.24-0.357 0.359-1.297-0.401-2.615-0.73-3.915-1.114-0.47-0.182-0.948 0.029-1.402 0.153-1.622 0.477-3.267 0.875-4.876 1.388 0.007 1.94 0 3.881 0.004 5.822 1.316 0.013 2.632 0.015 3.947-0.001-2.002 1.981-3.957 4.010-5.994 5.954-0.004-6.073-0.002-12.147-0.001-18.22-0.028-0.727 0.496-1.379 1.177-1.592z"></path>
<path fill="#03408b" d="M18.861 9.268c1.758-1.751 3.499-3.517 5.265-5.258 0.003 5.992 0 11.983 0.002 17.973 0.003 0.541-0.113 1.132-0.545 1.498-0.509 0.493-1.266 0.447-1.92 0.442-5.813-0.006-11.627 0.001-17.44-0.003 2.358-2.384 4.734-4.75 7.109-7.117 0.556 0.32 1.11-0.165 1.658-0.268-0.098 0.477-0.083 1.041-0.481 1.389-0.316 0.29-0.513 0.671-0.664 1.068-0.449-0.243-0.899-0.481-1.356-0.708-0.279 0.124-0.548 0.528-0.224 0.754 0.549 0.324 1.105 0.709 1.731 0.85 0.376-0.281 0.695-0.641 1.134-0.833 0.169 0.195 0.373 0.366 0.5 0.594 0.006 0.841-0.189 1.674-0.187 2.515 0.020 0.449 0.802 0.444 0.789-0.023 0.108-1.35 0.408-2.761-0.092-4.073 0.216-0.292 0.422-0.593 0.681-0.847 0.385 0.337 0.567 0.848 0.881 1.249 0.204-0.071 0.58-0.105 0.482-0.413-0.263-0.666-0.715-1.238-1.041-1.873-0.23-0.402-0.548-0.973-1.102-0.846-0.671 0.187-1.293 0.518-1.959 0.728 2.064-2.109 4.172-4.177 6.252-6.272-0.006 1.301-0.081 2.609 0.032 3.907 0.029 0.395 0.47 0.181 0.72 0.177 0.004-1.54-0.142-3.074-0.224-4.61M14.907 13.754c-0.664 0.243-0.743 1.279-0.132 1.626 0.458 0.328 1.159 0.1 1.354-0.421 0.344-0.713-0.505-1.593-1.222-1.205M20.044 14.53c-0.267 0.709 0.681 1.153 1.173 0.665 0.031 0.12 0.062 0.241 0.092 0.361 0.26-0.005 0.52 0.002 0.781 0.021-0.16-0.205-0.301-0.424-0.418-0.655-0.121 0.014-0.242 0.029-0.363 0.044 0.185-0.774-0.971-1.171-1.265-0.435M19.142 16.29c-0.209-0.208-0.431-0.521-0.761-0.336-0.050 0.447 0.336 0.721 0.615 1.001 0.256-0.102 0.511-0.208 0.767-0.309 0.276 0.581-0.179 1.151-0.090 1.756-0.285 0.738-0.047 1.511 0.048 2.263 0.172-0.001 0.343-0.004 0.515-0.011-0.023-0.847-0.304-1.728 0.145-2.522 0.229 0.285 0.449 0.578 0.713 0.833 0.5-0.186 1.015-0.332 1.508-0.541 0.004-0.808-0.899-0.225-1.325-0.119 0.099-0.461-0.256-0.823-0.438-1.21 0.095-0.22 0.19-0.439 0.288-0.657 0.158 0.251 0.32 0.5 0.505 0.731 0.081-0.039 0.243-0.12 0.324-0.16 0.015-0.653-0.491-1.112-1.101-1.221-0.628-0.366-1.154 0.298-1.712 0.501M16.39 19.908c-0.542 0.184-0.787 0.928-0.398 1.374 0.394 0.549 1.345 0.388 1.535-0.262 0.26-0.678-0.468-1.361-1.136-1.112z"></path>
<path fill="#03408b" d="M3.749 8.641c1.401 0 2.801 0 4.202 0 0.042 0.81 0.098 1.635-0.035 2.44-1.388-0.024-2.777 0.011-4.165-0.019-0.006-0.807-0.003-1.614-0.002-2.421z"></path>
<path fill="#03408b" d="M9.233 8.644c0.712-0.006 1.422-0.001 2.133-0.004-0.709 0.71-1.415 1.428-2.14 2.123-0.020-0.706-0.022-1.412 0.006-2.119z"></path>
<path fill="#d40303" d="M20.009 0h2.978c0.542 0.233 1.022 0.695 1.094 1.304 0.105 0.897 0.023 1.804 0.046 2.706-1.766 1.741-3.508 3.507-5.265 5.258-0.175 0.175-0.352 0.35-0.528 0.526-2.079 2.095-4.187 4.163-6.252 6.272-0.258 0.238-0.503 0.488-0.75 0.738-2.375 2.367-4.751 4.733-7.109 7.117-0.876-0.018-1.754 0.045-2.628-0.029-0.702-0.062-1.264-0.622-1.428-1.291-0.033-0.929-0.006-1.859-0.012-2.789 2.037-1.944 3.992-3.974 5.994-5.954 1.022-1.035 2.064-2.051 3.078-3.095 0.725-0.695 1.43-1.412 2.14-2.123 0.342-0.344 0.684-0.686 1.025-1.030 0.119-0.119 0.238-0.239 0.357-0.359 0.174-0.175 0.349-0.35 0.526-0.525 0.576-0.561 1.146-1.128 1.7-1.711 1.214-1.18 2.398-2.393 3.6-3.584 0.485-0.47 0.961-0.952 1.436-1.432z"></path>
<path fill="#f4f2f3" opacity="0.98" d="M22.987 0h0.477c0.311 0.243 0.573 0.547 0.749 0.902v22.056c-0.199 0.445-0.556 0.787-0.962 1.043h-22.204c-0.466-0.253-0.819-0.67-1.046-1.145v-0.082c0.041-0.044 0.125-0.13 0.167-0.173 0.165 0.669 0.726 1.23 1.428 1.291 0.874 0.073 1.752 0.011 2.628 0.029 5.813 0.004 11.627-0.003 17.44 0.003 0.654 0.005 1.411 0.051 1.92-0.442 0.432-0.366 0.548-0.958 0.545-1.498-0.002-5.99 0.001-11.982-0.002-17.973-0.022-0.902 0.059-1.808-0.046-2.706-0.072-0.61-0.552-1.072-1.094-1.304z"></path>
</svg>
