<!-- Generated by IcoMoon.io -->
<svg version="1.1" xmlns="http://www.w3.org/2000/svg" width="24" height="24" viewBox="0 0 24 24">
<title>information--minimum-speed-120--g1</title>
<path fill="#fff" d="M11.106 0h1.805c1.776 0.155 3.527 0.667 5.069 1.569 2.481 1.415 4.424 3.745 5.366 6.442 0.357 0.997 0.557 2.044 0.654 3.097v1.8c-0.155 1.776-0.668 3.529-1.569 5.071-1.537 2.7-4.162 4.757-7.155 5.592-0.768 0.225-1.56 0.343-2.354 0.428h-1.832c-1.731-0.15-3.435-0.645-4.95-1.499-2.622-1.462-4.664-3.933-5.581-6.793-0.299-0.901-0.463-1.841-0.559-2.784v-1.837c0.194-2.36 1.072-4.665 2.55-6.519 2.048-2.632 5.231-4.324 8.556-4.567M11.366 0.596c-1.986 0.102-3.94 0.747-5.603 1.836-2.569 1.661-4.414 4.395-4.981 7.403-0.629 3.185 0.188 6.62 2.199 9.171 1.707 2.212 4.253 3.755 7.005 4.239 1.884 0.336 3.853 0.195 5.665-0.421 2.806-0.935 5.203-3.014 6.533-5.654 1.557-3.019 1.649-6.74 0.244-9.832-1.181-2.665-3.426-4.835-6.129-5.924-1.557-0.635-3.256-0.917-4.934-0.819z"></path>
<path fill="#fff" d="M9.025 7.009c0.745-0.566 1.756-0.682 2.646-0.447 0.924 0.242 1.7 0.951 2.069 1.826 0.407 1.013 0.284 2.255-0.406 3.118-1.155 1.454-2.314 2.905-3.472 4.357 1.369 0.002 2.738-0.002 4.108 0.002 0.004 0.54 0.001 1.079 0.001 1.618-2.088 0-4.177 0.004-6.265-0.002-0.008-0.469-0.001-0.939-0.004-1.408-0.014-0.135 0.11-0.221 0.179-0.32 1.38-1.729 2.766-3.452 4.14-5.186 0.562-0.689 0.373-1.817-0.375-2.293-0.637-0.384-1.546-0.204-1.986 0.398-0.216 0.277-0.302 0.63-0.331 0.974-0.541-0.001-1.083 0.004-1.625-0.002-0.028-1.030 0.485-2.038 1.322-2.635z"></path>
<path fill="#fff" d="M17.737 6.489c1.145-0.196 2.369 0.277 3.079 1.194 0.426 0.56 0.58 1.28 0.573 1.973-0 1.609 0.002 3.218-0.001 4.827-0.003 0.748-0.224 1.525-0.75 2.076-0.978 1.056-2.676 1.333-3.93 0.62-0.648-0.35-1.193-0.926-1.402-1.643-0.202-0.611-0.157-1.261-0.16-1.895 0-1.359-0-2.719 0-4.079 0.005-0.723 0.201-1.473 0.688-2.025 0.494-0.548 1.173-0.934 1.904-1.048M18.020 8.091c-0.712 0.058-1.233 0.729-1.24 1.421-0.019 1.564-0.002 3.127-0.008 4.691-0.008 0.396 0.041 0.814 0.267 1.15 0.538 0.82 1.941 0.809 2.466-0.020 0.21-0.319 0.259-0.71 0.26-1.084-0.001-1.516 0.001-3.032-0.001-4.549-0.001-0.441-0.114-0.911-0.442-1.225-0.333-0.341-0.84-0.447-1.301-0.385z"></path>
<path fill="#fff" d="M3.039 7.687c0.52-0.379 1.038-0.763 1.564-1.133 0.539-0.024 1.080-0.002 1.619-0.011 0.002 3.653 0.001 7.307 0 10.96-0.544-0-1.088 0.001-1.632-0.001-0.003-3.070 0-6.141-0.001-9.211-0.518 0.375-1.033 0.755-1.55 1.132 0-0.579-0-1.157 0-1.736z"></path>
<path fill="#00f" d="M11.366 0.596c1.678-0.098 3.377 0.185 4.934 0.819 2.704 1.089 4.948 3.259 6.129 5.924 1.404 3.092 1.313 6.813-0.244 9.832-1.331 2.64-3.727 4.719-6.533 5.654-1.813 0.616-3.781 0.757-5.665 0.421-2.752-0.485-5.299-2.027-7.005-4.239-2.010-2.551-2.828-5.986-2.199-9.171 0.567-3.007 2.412-5.742 4.981-7.403 1.663-1.089 3.617-1.734 5.603-1.836M9.025 7.009c-0.837 0.597-1.35 1.605-1.322 2.635 0.541 0.006 1.083 0.001 1.625 0.002 0.029-0.344 0.116-0.696 0.331-0.974 0.44-0.602 1.349-0.782 1.986-0.398 0.747 0.476 0.936 1.604 0.375 2.293-1.373 1.733-2.76 3.457-4.14 5.186-0.069 0.099-0.193 0.185-0.179 0.32 0.003 0.469-0.004 0.939 0.004 1.408 2.089 0.006 4.177 0.002 6.265 0.002 0-0.54 0.003-1.079-0.001-1.618-1.369-0.005-2.738-0-4.108-0.002 1.158-1.452 2.317-2.903 3.472-4.357 0.69-0.863 0.813-2.105 0.406-3.118-0.369-0.875-1.145-1.584-2.069-1.826-0.89-0.234-1.9-0.119-2.646 0.447M17.737 6.489c-0.731 0.114-1.41 0.501-1.904 1.048-0.487 0.552-0.683 1.302-0.688 2.025-0.001 1.36 0 2.719-0 4.079 0.004 0.634-0.041 1.284 0.16 1.895 0.209 0.718 0.754 1.293 1.402 1.643 1.254 0.713 2.952 0.436 3.93-0.62 0.527-0.55 0.747-1.328 0.75-2.076 0.003-1.609 0-3.218 0.001-4.827 0.008-0.693-0.147-1.413-0.573-1.973-0.711-0.917-1.935-1.39-3.079-1.194M3.039 7.687c-0 0.579 0 1.157 0 1.736 0.517-0.376 1.032-0.757 1.55-1.132 0.001 3.070-0.001 6.141 0.001 9.211 0.544 0.002 1.088 0 1.632 0.001 0.001-3.653 0.002-7.307 0-10.96-0.54 0.009-1.080-0.014-1.619 0.011-0.526 0.37-1.044 0.754-1.564 1.133z"></path>
<path fill="#00f" d="M18.020 8.091c0.46-0.062 0.968 0.044 1.301 0.385 0.328 0.315 0.442 0.784 0.443 1.225 0.002 1.516 0 3.032 0.001 4.549-0 0.374-0.050 0.765-0.26 1.084-0.525 0.828-1.928 0.84-2.466 0.020-0.226-0.337-0.275-0.754-0.267-1.15 0.006-1.564-0.011-3.128 0.008-4.691 0.007-0.691 0.528-1.363 1.24-1.421z"></path>
</svg>
