<!-- Generated by IcoMoon.io -->
<svg version="1.1" xmlns="http://www.w3.org/2000/svg" width="24" height="24" viewBox="0 0 24 24">
<title>information--children--g2</title>
<path fill="#154889" d="M0 0h24.069c0.116 0.146 0.221 0.303 0.287 0.478-0.051 0.956-0.024 1.913-0.029 2.869 0 6.884 0 13.769 0 20.653h-24.327v-24M3.184 3.375c0 5.887 0 11.775 0 17.662 5.883 0 11.766 0 17.648 0 0.001-5.887 0.001-11.775 0-17.662-5.882-0.001-11.765 0-17.648 0z"></path>
<path fill="#fff" d="M24.069 0h0.34v0.605l-0.052-0.127c-0.066-0.175-0.171-0.331-0.287-0.478z"></path>
<path fill="#fff" d="M3.184 3.375c5.883 0 11.766-0.001 17.648 0 0.001 5.887 0.001 11.775 0 17.662-5.882 0-11.765 0-17.648 0 0-5.887 0-11.775 0-17.662M8.922 5.247c-0.569 0.161-0.27 1.093 0.291 0.879 0.574-0.158 0.272-1.098-0.291-0.879M8.729 6.306c-0.459 0.283-0.926 0.552-1.385 0.834 0.473 0.43 0.97-0.211 1.424-0.373 0.234 1.078-0.126 2.136-0.271 3.199 0.145-0.079 0.291-0.158 0.436-0.236 0.131-0.633 0.257-1.269 0.391-1.901 0.146 0.313 0.244 0.651 0.428 0.945 0.398 0.209 0.829 0.353 1.25 0.513 0.096-0.563-0.558-0.629-0.924-0.824-0.3-0.58-0.433-1.212-0.457-1.861 0.143 0.050 0.287 0.099 0.429 0.148 0.118 0.304 0.314 0.637 0.702 0.544-0.102-0.224-0.207-0.446-0.322-0.663-0.144-0.333-0.579-0.304-0.868-0.435-0.257 0.141-0.549 0.216-0.833 0.111M6.401 6.558c-0.268 0.159-0.231 0.605 0.061 0.715 0.269 0.132 0.609-0.117 0.568-0.411-0.014-0.295-0.389-0.477-0.629-0.304M14.153 6.727c-0.632 0.211-0.909 1.056-0.522 1.599 0.429 0.727 1.647 0.589 1.902-0.216 0.353-0.813-0.564-1.736-1.38-1.384M6.369 7.46c-0.298 0.292-0.605 0.577-0.89 0.883 0.385 0.177 0.637-0.201 0.913-0.398 0.038 0.691 0.047 1.383 0.103 2.073 0.442-0.215 0.207-0.756 0.256-1.14 0.091-0.026 0.183-0.052 0.274-0.078 0.060 0.079 0.118 0.158 0.178 0.238 0.331-0.005 0.664-0.005 0.994-0.019-0.13-0.356-0.536-0.294-0.841-0.341-0.077-0.305-0.153-0.608-0.228-0.913 0.080 0.003 0.161 0.007 0.241 0.010 0.102 0.23 0.258 0.451 0.542 0.425-0.097-0.233-0.207-0.459-0.318-0.685-0.401-0.133-0.812-0.078-1.224-0.053M10.68 11.249c-0.132 0.094-0.226 0.226-0.31 0.362-0.481 0.003-0.962-0.001-1.443 0.003-0.123-0.398-0.41-0.782-0.847-0.847-0.602-0.14-1.232 0.373-1.222 0.989-0.033 0.619 0.587 1.154 1.194 1.032 0.438-0.056 0.737-0.429 0.867-0.827 0.543 0.003 1.087 0.001 1.63 0.002 0.163 0.116 0.38 0.331 0.578 0.148 0.789-0.577 1.567-1.17 2.351-1.753-0.001 0.977-0.005 1.954-0.007 2.931 0.701 0.005 1.402-0.009 2.104-0.005-0.004-0.974-0.010-1.947-0.013-2.921 0.731 0.561 1.442 1.149 2.18 1.7 0.398 0.319 1.136-0.307 0.691-0.694-0.991-0.793-2.017-1.544-3.020-2.322-0.557 0.358-1.283 0.339-1.842-0.003-0.964 0.735-1.926 1.473-2.891 2.204M13.512 13.641c-0.882 1.873-1.936 3.668-2.877 5.515 0.447 0.184 1.076 0.273 1.356-0.224 0.85-1.542 1.647-3.115 2.479-4.668 0.844 1.528 1.674 3.064 2.525 4.588 0.267 0.491 0.905 0.62 1.362 0.313-0.921-1.851-1.952-3.648-2.827-5.519-0.673 0.002-1.345 0.010-2.018-0.005z"></path>
<path fill="#fff" d="M7.621 11.211c0.411-0.214 0.946 0.165 0.879 0.624-0.023 0.448-0.593 0.722-0.958 0.459-0.401-0.239-0.353-0.904 0.078-1.082z"></path>
<path fill="#5379a8" d="M24.356 0.478l0.052 0.127v23.395h-0.082c0-6.884 0-13.769 0-20.653 0.006-0.957-0.022-1.913 0.029-2.869z"></path>
<path fill="#030303" d="M8.922 5.247c0.562-0.219 0.864 0.722 0.291 0.879-0.561 0.214-0.86-0.718-0.291-0.879z"></path>
<path fill="#030303" d="M8.729 6.306c0.285 0.105 0.576 0.030 0.833-0.111 0.289 0.131 0.723 0.102 0.868 0.435 0.115 0.217 0.22 0.439 0.322 0.663-0.388 0.093-0.584-0.239-0.702-0.544-0.143-0.049-0.287-0.098-0.429-0.148 0.024 0.649 0.158 1.282 0.457 1.861 0.367 0.196 1.020 0.261 0.924 0.824-0.42-0.16-0.851-0.304-1.25-0.513-0.184-0.295-0.282-0.633-0.428-0.945-0.134 0.633-0.26 1.268-0.391 1.901-0.145 0.078-0.291 0.157-0.436 0.236 0.145-1.063 0.505-2.122 0.271-3.199-0.454 0.162-0.95 0.803-1.424 0.373 0.459-0.282 0.926-0.551 1.385-0.834z"></path>
<path fill="#030303" d="M6.401 6.558c0.24-0.173 0.616 0.008 0.629 0.304 0.041 0.295-0.3 0.544-0.568 0.411-0.292-0.11-0.329-0.556-0.061-0.715z"></path>
<path fill="#030303" d="M14.153 6.727c0.816-0.352 1.732 0.571 1.38 1.384-0.256 0.805-1.473 0.943-1.902 0.216-0.387-0.544-0.109-1.388 0.522-1.599z"></path>
<path fill="#030303" d="M6.369 7.46c0.411-0.024 0.823-0.080 1.224 0.053 0.111 0.226 0.221 0.452 0.318 0.685-0.284 0.026-0.44-0.194-0.542-0.425-0.080-0.003-0.161-0.007-0.241-0.010 0.074 0.305 0.151 0.609 0.228 0.913 0.305 0.047 0.711-0.015 0.841 0.341-0.331 0.014-0.663 0.014-0.994 0.019-0.060-0.080-0.118-0.159-0.178-0.238-0.091 0.026-0.183 0.052-0.274 0.078-0.049 0.384 0.187 0.926-0.256 1.14-0.056-0.69-0.065-1.382-0.103-2.073-0.276 0.198-0.527 0.576-0.913 0.398 0.285-0.306 0.592-0.591 0.89-0.883z"></path>
<path fill="#030303" d="M10.68 11.249c0.966-0.731 1.927-1.469 2.891-2.204 0.559 0.342 1.286 0.361 1.842 0.003 1.003 0.779 2.029 1.53 3.020 2.322 0.445 0.387-0.294 1.013-0.691 0.694-0.738-0.552-1.449-1.14-2.18-1.7 0.003 0.974 0.009 1.947 0.013 2.921-0.701-0.004-1.402 0.010-2.104 0.005 0.002-0.977 0.006-1.954 0.007-2.931-0.784 0.583-1.562 1.176-2.351 1.753-0.198 0.183-0.415-0.032-0.578-0.148-0.544-0.002-1.087 0.001-1.63-0.002-0.13 0.398-0.429 0.771-0.867 0.827-0.607 0.122-1.227-0.413-1.194-1.032-0.010-0.616 0.62-1.128 1.222-0.989 0.437 0.065 0.723 0.449 0.847 0.847 0.481-0.004 0.962 0 1.443-0.003 0.084-0.136 0.178-0.269 0.31-0.362M7.621 11.211c-0.431 0.179-0.479 0.843-0.078 1.082 0.364 0.263 0.935-0.011 0.958-0.459 0.067-0.459-0.469-0.838-0.879-0.624z"></path>
<path fill="#030303" d="M13.512 13.641c0.673 0.015 1.345 0.007 2.018 0.005 0.875 1.871 1.906 3.669 2.827 5.519-0.456 0.308-1.095 0.178-1.362-0.313-0.851-1.524-1.681-3.060-2.525-4.588-0.833 1.553-1.629 3.126-2.479 4.668-0.28 0.496-0.909 0.408-1.356 0.224 0.94-1.847 1.994-3.642 2.877-5.515z"></path>
</svg>
