<svg xmlns="http://www.w3.org/2000/svg" width="24" height="24">
    <path fill="#231f20" d="M1.774 0h20.745c.704.183 1.308.69 1.579 1.368v21.471c-.21.488-.584.891-1.039 1.161H1.207c-.628-.414-1.104-1.048-1.208-1.806V1.995C.165 1.065.83.223 1.773 0zm.121.332C.924.544.285 1.485.294 2.454.299 8.918.287 15.384.3 21.848c0 1.073.935 2.17 2.061 2.057 6.658-.012 13.316.008 19.974-.01.992-.18 1.676-1.168 1.665-2.152-.004-6.432.008-12.864-.006-19.294C24 1.403 23.223.364 22.139.297 15.71.294 9.281.298 2.852.295c-.319.008-.644-.032-.957.038z"/>
    <path fill="#fff" d="M1.895.332c.313-.071.638-.03.957-.038C9.281.297 15.71.293 22.139.296 23.223.363 24 1.403 23.994 2.448c.014 6.431.002 12.863.006 19.294.011.985-.673 1.972-1.665 2.152-6.658.018-13.316-.002-19.974.01C1.236 24.017.3 22.92.3 21.847.287 15.383.299 8.917.294 2.453.285 1.484.924.544 1.895.331zm.009.391C1.103.862.692 1.708.687 2.453.692 8.915.682 15.379.692 21.841c.001.783.534 1.604 1.361 1.667 6.694.002 13.389-.004 20.083.003.716.015 1.388-.658 1.374-1.374-.007-6.727-.001-13.455-.003-20.182-.048-.767-.821-1.342-1.571-1.271C15.259.715 8.576.64 1.903.722z"/>
    <path fill="#fff" d="M13.672 7.427c2.707-1.53 5.366-3.146 8.066-4.688v15.654h-6.881c.004-.855-.17-1.699-.101-2.557H12.22c-.042-.263-.1-.522-.144-.784 1.024-.006 2.048-.001 3.072-.003 0-.574-.002-1.149.002-1.723l-.201-.193c.004-.657.001-1.315.002-1.972l.242-.243h.696l.242.243c.113 1.307-.196 2.588-.199 3.888h1.772V8.261c-1.345-.028-2.683-.154-4.033-.097v-.737z"/>
    <path fill="#fff" d="M7.244 5.52c-.274-.394.255-.914.497-.4l.171-.207.309.005.159.325-.248.249c.808.162 1.685.166 2.416.583.381.667.348 1.575 1.058 2.041v6.593c-.566.513-1.034 1.141-1.68 1.56-.033.323-.009.672.392.697.147.206.303.404.454.608l-.393.063c.144.259.303.507.46.757l.54-.001c.15.231.321.45.479.678-.218.006-.437.01-.654.011.181.243.321.512.448.787.273 0 .547-.001.82-.003.163.22.318.448.466.679-.294.011-.587.014-.881.022.079.162.159.323.243.483h-.546c-.097-.165-.2-.328-.297-.492H4.082c-.097.164-.2.327-.297.492h-.546c.084-.16.164-.321.243-.483-.294-.008-.587-.011-.881-.022.149-.231.303-.458.467-.679l.855.006c.141-.263.272-.528.413-.79h-.629c.154-.234.326-.456.483-.689h.582a4.3 4.3 0 0 1 .448-.786l-.357-.02c.101-.234.232-.452.361-.672l.382.002.001-.642c-.52-.565-1.162-.994-1.673-1.568.001-2.087 0-4.174-.001-6.261-.03-.291.184-.511.369-.702.473-.452.315-1.236.741-1.711.685-.336 1.465-.368 2.201-.513zm.44-.183c-.311.331.475.105 0 0zm-2.342.901c-.345.244-.438.752-.363 1.149a11.109 11.109 0 0 1 2.658-.733c.265-.181.083-.588.136-.865-.82.061-1.66.143-2.43.449zM7.87 5.79l-.001.88c.931.061 1.84.333 2.69.713.103-.385.007-.856-.256-1.15a9.873 9.873 0 0 0-2.433-.444zm-.382 1.387c-.203.232-.334.514-.331.827.123.117.246.236.367.356.211.001.424.003.635.006.119-.192.218-.393.319-.596a6.413 6.413 0 0 0-.319-.595c-.223.003-.448.003-.671.002zM4.555 9.514c-.211.185-.267.435-.13.684.102.045.204.091.305.138l.404-.23c.078-.399-.183-.653-.579-.591zm5.851.592l.342.194c.126-.035.252-.069.379-.1-.017-.244.065-.709-.316-.666-.369-.097-.415.306-.405.572zm-5.98 4.255v.492h.735c.224.445.533.84.76 1.284.171-.005.341-.009.511-.015-.191-.437-.445-.84-.677-1.255.171-.008.342-.014.513-.02.152.428.291.86.444 1.288l.395-.009c-.076-.43-.185-.854-.307-1.274l.657.001c.124.415.129.849.117 1.279h.371a5 5 0 0 0 .124-1.279l.663-.001c-.094.425-.186.852-.297 1.273l.417.014c.161-.423.307-.852.426-1.289l.497.012c-.204.427-.415.852-.636 1.27h.476c.281-.424.541-.861.825-1.283.224.003.449.004.674.005v-.493H4.425zm1.672 1.869v.787h3.344v-.787H6.098zm-.443 1.277c-.2.319-.378.65-.55.985 1.788-.005 3.576.01 5.365-.008a7.252 7.252 0 0 0-.556-.977c-1.42.002-2.84.001-4.259 0zm-.815 1.476a7.19 7.19 0 0 0-.556.977c2.326.011 4.652.017 6.979-.003-.112-.35-.324-.652-.495-.973-1.976 0-3.952.001-5.928-.001zM15.362 10.033l.471-.003c.062.151.121.305.182.458l-.199.332h-.454c-.078-.132-.153-.264-.231-.394.078-.131.153-.263.231-.393z"/>
    <path fill="#006f51" d="M1.904.723C8.577.64 15.26.716 21.937.685c.75-.071 1.523.504 1.571 1.271.002 6.727-.004 13.455.003 20.182.014.716-.658 1.389-1.374 1.374-6.694-.007-13.389-.001-20.083-.003-.827-.063-1.36-.884-1.361-1.667-.01-6.462 0-12.926-.005-19.388.005-.746.416-1.591 1.217-1.73zm11.768 6.704v.737c1.35-.057 2.688.07 4.033.097v6.788h-1.772c.003-1.3.312-2.581.199-3.888l-.242-.243h-.696l-.242.243c-.001.657.002 1.315-.002 1.972l.201.193c-.004.574-.002 1.149-.002 1.723-1.024.002-2.048-.003-3.072.003.043.262.101.521.144.784h2.536c-.069.859.105 1.703.101 2.557h6.881V2.739c-2.7 1.542-5.359 3.157-8.066 4.688zM7.244 5.52c-.737.146-1.517.177-2.201.513-.426.475-.268 1.259-.741 1.711-.185.191-.398.411-.369.702.001 2.086.002 4.173.001 6.261.511.573 1.153 1.003 1.673 1.568l-.001.642a48.644 48.644 0 0 0-.382-.002c-.129.219-.26.438-.361.672l.357.02a4.267 4.267 0 0 0-.448.786H4.19c-.157.232-.329.454-.483.689h.629c-.141.262-.272.527-.413.79l-.855-.006c-.164.22-.319.448-.467.679.294.011.587.014.881.022-.079.162-.159.323-.243.483h.546c.097-.165.2-.328.297-.492h7.375c.097.164.2.327.297.492h.546c-.084-.16-.164-.321-.243-.483.294-.008.587-.011.881-.022a13.145 13.145 0 0 0-.466-.679c-.273.002-.547.003-.82.003a4.402 4.402 0 0 0-.448-.787c.217-.001.436-.005.654-.011-.158-.227-.329-.447-.479-.678l-.54.001c-.157-.251-.317-.499-.46-.757l.393-.063c-.151-.204-.308-.402-.454-.608-.401-.026-.426-.375-.392-.697.646-.419 1.114-1.047 1.68-1.56V8.116c-.71-.466-.678-1.374-1.058-2.041-.731-.417-1.608-.421-2.416-.583l.248-.249a19.515 19.515 0 0 1-.159-.325 32.363 32.363 0 0 1-.309-.005l-.171.207c-.242-.513-.771.006-.497.4zm8.118 4.513c-.078.131-.153.263-.231.393.078.131.153.263.231.394h.454l.199-.332c-.061-.153-.12-.307-.182-.458l-.471.003z"/>
    <path fill="#006f51" d="M7.684 5.337c.475.105-.311.331 0 0zM5.342 6.238c.77-.306 1.61-.388 2.43-.449-.053.276.129.684-.136.865-.913.125-1.805.387-2.658.733-.075-.396.018-.905.363-1.149zM7.87 5.79a9.818 9.818 0 0 1 2.433.444c.263.294.359.765.256 1.15-.85-.38-1.759-.652-2.69-.713l.001-.88zM7.488 7.177c.223.001.448.001.671-.002.12.191.219.393.319.595-.1.203-.2.404-.319.596a67.214 67.214 0 0 0-.635-.006c-.121-.12-.244-.239-.367-.356-.003-.313.129-.595.331-.827zM4.555 9.514c.396-.062.657.192.579.591l-.404.23-.305-.138c-.137-.249-.082-.499.13-.684zM10.406 10.106c-.01-.267.036-.67.405-.572.381-.043.299.422.316.666-.127.031-.253.065-.379.1l-.342-.194zM4.426 14.361h6.689v.493a75.44 75.44 0 0 1-.674-.005c-.284.422-.544.859-.825 1.283H9.14c.221-.418.433-.843.636-1.27a41.205 41.205 0 0 0-.497-.012c-.119.437-.265.866-.426 1.289l-.417-.014c.111-.421.203-.848.297-1.273l-.663.001c.017.431-.03.859-.124 1.279h-.371c.012-.43.007-.864-.117-1.279l-.657-.001c.122.42.231.844.307 1.274l-.395.009c-.152-.428-.291-.86-.444-1.288-.171.006-.342.012-.513.02.232.415.486.818.677 1.255-.17.006-.34.01-.511.015-.227-.444-.536-.839-.76-1.284h-.735v-.492zM6.098 16.23h3.344v.787H6.098v-.787zM5.655 17.507c1.419.001 2.839.002 4.259 0 .205.314.401.634.556.977-1.788.018-3.576.003-5.365.008.172-.334.35-.666.55-.985zM4.84 18.983c1.976.002 3.952.001 5.928.001.171.321.383.623.495.973-2.326.02-4.652.014-6.979.003.154-.342.35-.663.556-.977z"/>
</svg>
