<!-- Generated by IcoMoon.io -->
<svg version="1.1" xmlns="http://www.w3.org/2000/svg" width="24" height="24" viewBox="0 0 24 24">
<title>information--caravan-parking--g1</title>
<path fill="#fff" d="M0.836 0.138c0.271-0.119 0.574-0.104 0.864-0.108 6.999 0.009 13.999-0.010 20.998 0.009 0.766-0.016 1.312 0.741 1.27 1.463 0.001 6.999 0.001 13.998 0 20.997 0.051 0.764-0.569 1.528-1.37 1.467-7.065 0.004-14.131 0.004-21.196 0-0.799 0.059-1.416-0.706-1.37-1.467-0.001-6.999-0.001-13.999 0-20.998-0.009-0.551 0.268-1.151 0.804-1.363M1.225 0.533c-0.476 0.098-0.769 0.593-0.726 1.061 0.003 6.971-0.005 13.943 0.004 20.914-0.031 0.539 0.45 1.020 0.989 0.989 7.005 0.005 14.011 0.005 21.016 0 0.539 0.030 1.019-0.45 0.989-0.989 0.006-7.005 0.006-14.011 0-21.016 0.036-0.585-0.52-1.060-1.090-0.993-7.060 0.025-14.126-0.044-21.182 0.034z"></path>
<path fill="#fff" d="M3.894 3.894c5.404-0.001 10.808-0.001 16.212 0 0.001 5.404 0.001 10.808 0 16.212-5.404 0.001-10.808 0.001-16.212 0-0.001-5.404-0.001-10.808 0-16.212M5.522 9.127c-0.359 0.406 0.119 1.032 0.575 1.092 1.123 0.020 2.247 0 3.37 0.009 0 0.062-0.001 0.188-0.001 0.25-0.464 0.106-0.949 0.132-1.4 0.288-0.363 0.381-0.605 0.859-0.919 1.28-0.363 0.595-1.181 0.52-1.697 0.903-0.052 0.58-0.1 1.203 0.028 1.772 0.374 0.134 0.788 0.040 1.179 0.068 0.038-0.689 0.627-1.318 1.342-1.264 0.678 0.006 1.19 0.617 1.236 1.266 1.591-0.010 3.182-0.001 4.772-0.004 0.049-0.576 0.438-1.135 1.032-1.238 0.778-0.186 1.514 0.482 1.547 1.252 0.706 0.018 1.34-0.332 2.003-0.521-0.002-1.73 0.002-3.46-0.001-5.19 0.022-0.181-0.059-0.411-0.282-0.377-1.004-0.020-2.009 0.002-3.013-0.006-0.582 0.012-0.995-0.572-1.588-0.51-2.233 0.015-4.468-0.015-6.701 0.015-0.531 0.224-0.998 0.6-1.482 0.915M7.629 13.827c-0.719 0.199-0.937 1.235-0.363 1.71 0.531 0.528 1.546 0.201 1.667-0.539 0.192-0.728-0.602-1.438-1.304-1.171M14.935 13.841c-0.457 0.164-0.743 0.686-0.629 1.159 0.098 0.523 0.66 0.896 1.181 0.78 0.558-0.093 0.945-0.711 0.783-1.255-0.132-0.563-0.8-0.904-1.335-0.684z"></path>
<path fill="#fff" d="M7.445 8.724c0.67-0.028 1.342-0.027 2.012-0.001 0.012 0.327 0.010 0.655-0.002 0.982-0.669 0.024-1.338 0.025-2.007-0.001-0.012-0.327-0.014-0.654-0.003-0.98z"></path>
<path fill="#fff" d="M11.25 10.239c0.752-0.021 1.506-0.018 2.259-0.001 0.019 1.343 0.017 2.687 0.002 4.030-0.754 0.018-1.509 0.023-2.262-0.003-0.014-1.342-0.016-2.684 0.001-4.026z"></path>
<path fill="#fff" d="M14.545 10.239c0.668-0.020 1.338-0.021 2.006 0.001-0.021 0.492 0.093 1.027-0.054 1.492-0.643-0.004-1.33 0.090-1.947-0.049-0.038-0.48-0.014-0.963-0.005-1.444z"></path>
<path fill="#fff" d="M8.24 10.955c0.402-0.050 0.809-0.018 1.213-0.008 0.019 0.466 0.018 0.932 0.001 1.399-0.739 0.042-1.478 0.094-2.218 0.085 0.308-0.506 0.598-1.045 1.004-1.476z"></path>
<path fill="#154889" d="M1.225 0.533c7.056-0.078 14.122-0.009 21.182-0.034 0.57-0.067 1.126 0.408 1.090 0.993 0.006 7.005 0.006 14.011 0 21.016 0.030 0.539-0.45 1.019-0.989 0.989-7.005 0.005-14.011 0.005-21.016 0-0.539 0.031-1.020-0.45-0.989-0.989-0.009-6.971-0.001-13.943-0.004-20.914-0.043-0.468 0.25-0.963 0.726-1.061M3.894 3.894c-0.001 5.404-0.001 10.808 0 16.212 5.404 0.001 10.808 0.001 16.212 0 0.001-5.404 0.001-10.808 0-16.212-5.404-0.001-10.808-0.001-16.212 0z"></path>
<path fill="#000" d="M5.522 9.127c0.484-0.315 0.951-0.691 1.482-0.915 2.233-0.030 4.468 0 6.701-0.015 0.593-0.062 1.006 0.522 1.588 0.51 1.004 0.008 2.009-0.014 3.013 0.006 0.223-0.034 0.304 0.196 0.282 0.377 0.003 1.73-0.001 3.46 0.001 5.19-0.663 0.189-1.297 0.539-2.003 0.521-0.033-0.77-0.769-1.438-1.547-1.252-0.594 0.103-0.983 0.662-1.032 1.238-1.59 0.003-3.181-0.006-4.772 0.004-0.046-0.649-0.558-1.26-1.236-1.266-0.715-0.054-1.304 0.575-1.342 1.264-0.391-0.028-0.805 0.066-1.179-0.068-0.128-0.569-0.080-1.192-0.028-1.772 0.516-0.383 1.334-0.308 1.697-0.903 0.314-0.421 0.556-0.899 0.919-1.28 0.451-0.156 0.936-0.182 1.4-0.288 0-0.062 0.001-0.188 0.001-0.25-1.123-0.009-2.247 0.011-3.37-0.009-0.456-0.060-0.934-0.686-0.575-1.092M7.445 8.724c-0.011 0.326-0.009 0.653 0.003 0.98 0.669 0.026 1.338 0.025 2.007 0.001 0.012-0.327 0.014-0.655 0.002-0.982-0.67-0.026-1.342-0.027-2.012 0.001M11.25 10.239c-0.017 1.342-0.015 2.684-0.001 4.026 0.753 0.026 1.508 0.021 2.262 0.003 0.015-1.343 0.017-2.687-0.002-4.030-0.753-0.017-1.507-0.020-2.259 0.001M14.545 10.239c-0.009 0.481-0.033 0.964 0.005 1.444 0.617 0.139 1.304 0.045 1.947 0.049 0.147-0.465 0.033-1 0.054-1.492-0.668-0.022-1.338-0.021-2.006-0.001M8.24 10.955c-0.406 0.431-0.696 0.97-1.004 1.476 0.74 0.009 1.479-0.043 2.218-0.085 0.017-0.467 0.018-0.933-0.001-1.399-0.404-0.010-0.811-0.042-1.213 0.008z"></path>
<path fill="#000" d="M7.629 13.827c0.702-0.267 1.496 0.443 1.304 1.171-0.121 0.74-1.136 1.067-1.667 0.539-0.574-0.475-0.356-1.511 0.363-1.71z"></path>
<path fill="#000" d="M14.935 13.841c0.535-0.22 1.203 0.121 1.335 0.684 0.162 0.544-0.225 1.162-0.783 1.255-0.521 0.116-1.083-0.257-1.181-0.78-0.114-0.473 0.172-0.995 0.629-1.159z"></path>
</svg>
