<?xml version="1.0" encoding="utf-8"?>
<!-- Generated by IcoMoon.io -->
<!DOCTYPE svg PUBLIC "-//W3C//DTD SVG 1.1//EN" "http://www.w3.org/Graphics/SVG/1.1/DTD/svg11.dtd">
<svg version="1.1" xmlns="http://www.w3.org/2000/svg" xmlns:xlink="http://www.w3.org/1999/xlink" width="24" height="24" viewBox="0 0 24 24">
<path fill="#fff" d="M0 1.957h0.445c-0.138 0.154-0.286 0.3-0.445 0.434v-0.434z"></path>
<path fill="#fff" d="M23.751 1.957h0.249v0.115l-0.112 0.044c-0.035-0.040-0.103-0.12-0.137-0.159z"></path>
<path fill="#fff" d="M2.361 3.322c1.304 0.001 2.609-0.001 3.913 0.001 0.004 2.982 0.001 5.965 0.003 8.947 0.005 0.403 0.040 0.87 0.364 1.154 0.363 0.303 0.904 0.22 1.283-0.009 2.493-1.453 4.987-2.903 7.486-4.345-0.616-1.076-1.235-2.15-1.853-3.223 1.122-0.668 2.257-1.313 3.387-1.968 1.651 2.864 3.301 5.729 4.945 8.597-1.132 0.647-2.263 1.295-3.391 1.951-0.622-1.075-1.239-2.153-1.86-3.231-3.103 1.807-6.226 3.578-9.325 5.388-0.613 0.318-1.019 0.969-1.027 1.66-0.023 0.978-0.001 1.958-0.010 2.936-1.306 0.001-2.61 0-3.916 0 0-5.953-0.001-11.906 0.001-17.859M13.891 5.967c1.557 2.705 3.116 5.41 4.673 8.116 0.981-0.586 1.976-1.144 2.96-1.723-1.559-2.701-3.113-5.407-4.673-8.107-0.99 0.567-1.979 1.133-2.96 1.714z"></path>
<path fill="#036eb8" d="M0.445 1.957h23.306c0.034 0.039 0.102 0.119 0.137 0.159l0.112-0.044v19.972h-24v-19.653c0.159-0.134 0.307-0.28 0.445-0.434M2.361 3.322c-0.003 5.953-0.001 11.906-0.001 17.859 1.306 0 2.61 0.001 3.916 0 0.009-0.978-0.013-1.958 0.010-2.936 0.008-0.691 0.413-1.342 1.027-1.66 3.099-1.81 6.222-3.582 9.325-5.388 0.621 1.077 1.238 2.156 1.86 3.231 1.128-0.656 2.259-1.304 3.391-1.951-1.643-2.868-3.293-5.733-4.945-8.597-1.131 0.655-2.266 1.3-3.387 1.968 0.618 1.073 1.238 2.147 1.853 3.223-2.499 1.441-4.993 2.892-7.486 4.345-0.38 0.23-0.921 0.312-1.283 0.009-0.323-0.284-0.359-0.751-0.364-1.154-0.001-2.982 0.001-5.965-0.003-8.947-1.304-0.003-2.609 0-3.913-0.001z"></path>
<path fill="#de0329" d="M13.891 5.967c0.981-0.58 1.97-1.147 2.96-1.714 1.56 2.7 3.115 5.405 4.673 8.107-0.983 0.579-1.979 1.137-2.96 1.723-1.557-2.705-3.116-5.41-4.673-8.116z"></path>
</svg>
