<?xml version="1.0" encoding="utf-8"?>
<!-- Generated by IcoMoon.io -->
<!DOCTYPE svg PUBLIC "-//W3C//DTD SVG 1.1//EN" "http://www.w3.org/Graphics/SVG/1.1/DTD/svg11.dtd">
<svg version="1.1" xmlns="http://www.w3.org/2000/svg" xmlns:xlink="http://www.w3.org/1999/xlink" width="24" height="24" viewBox="0 0 24 24">
<path fill="#034594" d="M1.108 0.623c0.145-0.040 0.294-0.059 0.445-0.055 7.085 0.002 14.17 0 21.254 0.001 0.386-0.035 0.787 0.192 0.898 0.576 0.068 0.335 0.031 0.68 0.038 1.021-0.001 6.882 0 13.764 0 20.646 0.038 0.4-0.22 0.822-0.626 0.902-0.344 0.044-0.694 0.016-1.039 0.022-6.718 0.001-13.435-0.002-20.152 0.001-0.341-0.014-0.726 0.064-1.020-0.155-0.245-0.173-0.343-0.481-0.329-0.77 0.002-7.128-0.002-14.255 0.002-21.383-0.022-0.347 0.2-0.69 0.528-0.806M9.439 2.664c-0.312 1.29-0.618 2.581-0.93 3.871 0.906 0 1.812 0.001 2.718-0.001 0.16-1.289 0.313-2.58 0.469-3.87-0.752-0.001-1.505 0-2.257 0M13.081 2.664c0.156 1.29 0.31 2.581 0.469 3.871 0.906 0.001 1.812-0.001 2.718 0.001-0.312-1.29-0.619-2.581-0.93-3.872-0.752-0.001-1.505 0-2.257 0M2.542 6.877c-0.001 0.557-0.001 1.114-0.001 1.672 0.371 0 0.74 0 1.111 0 0.055 0.715 0.654 1.362 1.394 1.354 0.756 0.036 1.386-0.622 1.442-1.352 2.237 0.012 4.474-0.006 6.712-0.023 1.543 0.059 3.089 0.013 4.632 0.022 0.060 0.708 0.644 1.357 1.381 1.354 0.763 0.043 1.398-0.619 1.457-1.356 0.37 0.004 0.739 0.004 1.109 0.002 0.001-0.558 0.001-1.115 0-1.672-3.1 0.012-6.199-0.028-9.299 0.019-3.312-0.046-6.625-0.010-9.938-0.019M7.944 8.899c-1.019 4.244-2.036 8.488-3.053 12.732 1.505 0.001 3.010 0.001 4.514 0 0.514-4.243 1.025-8.488 1.538-12.732-1.001 0-2-0.001-3 0M13.834 8.899c0.512 4.244 1.025 8.489 1.537 12.732 1.505 0.001 3.010 0.001 4.516 0-1.018-4.244-2.034-8.489-3.054-12.732-1-0.001-1.999 0-2.999 0z"></path>
<path fill="#fff" d="M9.439 2.664c0.752 0 1.505-0.001 2.257 0-0.156 1.29-0.31 2.581-0.469 3.87-0.906 0.002-1.812 0.001-2.718 0.001 0.312-1.29 0.618-2.581 0.93-3.871z"></path>
<path fill="#fff" d="M13.081 2.664c0.752 0 1.505-0.001 2.257 0 0.311 1.291 0.618 2.582 0.93 3.872-0.906-0.002-1.812 0-2.718-0.001-0.16-1.29-0.313-2.581-0.469-3.871z"></path>
<path fill="#fff" d="M2.542 6.877c3.313 0.010 6.626-0.026 9.938 0.019 3.1-0.047 6.199-0.007 9.299-0.019 0.001 0.557 0.001 1.114 0 1.672-0.37 0.001-0.739 0.001-1.109-0.002-0.059 0.737-0.694 1.399-1.457 1.356-0.737 0.004-1.321-0.646-1.381-1.354-1.543-0.008-3.089 0.037-4.632-0.022-2.238 0.017-4.475 0.035-6.712 0.023-0.056 0.731-0.686 1.388-1.442 1.352-0.74 0.008-1.339-0.638-1.394-1.354-0.371 0-0.74 0-1.111 0 0-0.558 0-1.115 0.001-1.672z"></path>
<path fill="#fff" d="M7.944 8.899c1-0.001 1.999 0 3 0-0.514 4.244-1.025 8.489-1.538 12.732-1.505 0.001-3.010 0.001-4.514 0 1.016-4.244 2.034-8.488 3.053-12.732z"></path>
<path fill="#fff" d="M13.834 8.899c1 0 1.999-0.001 2.999 0 1.020 4.243 2.036 8.488 3.054 12.732-1.506 0.001-3.011 0.001-4.516 0-0.512-4.243-1.025-8.488-1.537-12.732z"></path>
</svg>
