<svg xmlns="http://www.w3.org/2000/svg" width="24" height="24">
    <path fill="#0066b3" d="M5.019 0h13.952c.234.058.45.17.61.354-.293-.144-.602-.285-.936-.27C14.163.091 9.679.076 5.197.091c-.689.002-1.2.684-1.112 1.347.007 7.096 0 14.192.004 21.288-.03.642.54 1.218 1.184 1.183h13.453c.644.034 1.214-.542 1.184-1.184.003-7.123-.002-14.246.002-21.37.017-.334-.12-.644-.266-.936.167.154.283.35.354.565v21.981A1.37 1.37 0 0 1 18.982 24H5.002A1.391 1.391 0 0 1 4 22.976V1.004C4.126.51 4.52.115 5.019 0z"/>
    <path fill="#0066b3" d="M5.142.658c.147-.048.305-.047.459-.051 4.293.005 8.586-.001 12.878.002.463-.041.902.354.878.824.006 7.018.001 14.035.002 21.053.042.449-.333.89-.793.877-4.377.006-8.754.002-13.13.002-.477.033-.881-.417-.833-.885 0-6.986.001-13.972-.001-20.958-.031-.366.179-.748.539-.863zm5.892.96c-.014.581.018 1.162.01 1.743-.007.412-.113.887-.502 1.104-.692.358-1.416.653-2.107 1.012-.393.21-.638.641-.625 1.086-.005 2.132-.006 4.264.001 6.395-.019.515.356.934.78 1.171.705.372 1.485.601 2.15 1.047.287.17.319.525.308.825-.022.634-.009 1.27-.017 1.904 1.485.002 2.97.002 4.454.001-.002-5.427.002-10.854-.002-16.281-1.483-.003-2.966-.009-4.45-.007zM6.219 20.32c.291-.21.648-.416.755-.783l-.184-.085c-.182.279-.896.492-.571.868zm1.617-.898l-.1.307c-.217-.002-.434.001-.652.003.003.092 0 .185.004.278.23-.002.46 0 .69.003l-.01.349c-.246.026-.831-.13-.677.288.401-.001.802-.002 1.202.003l.001.288c-.415.017-.833-.025-1.246.021-.132-.018-.15.263-.002.255.414.038.83.002 1.246.016.001.249.018.498-.011.746-.13.102-.327.048-.484.078.011.086.023.171.036.257.247.001.513.054.746-.054.119-.322.052-.677.066-1.014l.33-.038-.005-.234a18.51 18.51 0 0 0-.328-.048v-.257l.33-.049.003-.239c-.284-.02-.568-.022-.852-.025l.008-.344c.235-.04.805.143.694-.274a23.996 23.996 0 0 0-.657-.013l-.101-.294a17.992 17.992 0 0 1-.232-.01zm4.832.214l-.299.032c-.03.261.15.486.166.745-.403.128-.134.427.186.357v.286c-.12.016-.239.032-.358.05l.022.241.33.024c.033.173-.068.462.165.514.246-.036.141-.342.18-.516l.322-.018c.009-.084.015-.167.022-.251-.119-.014-.238-.029-.358-.042l.014-.294c.167-.003.34-.007.414-.185a17.254 17.254 0 0 0-.259-.15c.05-.255.213-.493.177-.759a25.653 25.653 0 0 1-.291-.037c-.114-.207-.318-.2-.43.004zm-1.25.019c-.051.552.025 1.125-.17 1.658-.048-.194.038-.46-.108-.614-.21-.069-.668-.125-.597.225l.35.046c.003.262.002.525-.002.788-.127.109-.252.219-.377.331.104.374.401.07.563-.082.626.418 1.415.248 2.122.286.182.057.351-.188.142-.274-.602-.063-1.224.065-1.815-.099-.229-.06-.333-.282-.317-.505.13.118.228.265.31.419.234.002.474.03.704-.025.118-.286.06-.622.046-.926-.12-.189-.391-.092-.579-.122l.007-.209c.187-.01.374-.024.558-.059-.002-.292.066-.601-.032-.882-.24-.088-.606-.137-.808.042zm5.252.131c-.053.785-.033 1.626-.507 2.302.078.058.158.168.268.11.365-.393.442-.946.51-1.456l.362-.004c.042.526-.04 1.058.05 1.581l.26-.011c.061-.509.016-1.021.03-1.531.17-.007.456-.166.224-.321-.302-.04-.608-.01-.911-.018l.013-.453c.278-.051.568-.07.829-.189.139-.119-.022-.345-.182-.252-.306.102-.682.055-.944.242zm-5.996-.152c-.183.26.266.489.439.662l.159-.162c-.162-.184-.316-.557-.598-.499zm4.431-.029c-.006.092-.067.211.042.268.45.025.906.041 1.354-.021-.032-.106-.023-.274-.182-.249-.404-.026-.81-.006-1.214.002zm.119.723c-.018.571.014 1.151-.142 1.708-.08.162.142.348.27.204.151-.29.154-.626.193-.944.271-.021.57.055.823-.049.11-.309.051-.669.036-.995-.159-.177-.434-.078-.643-.107-.176.027-.51-.072-.537.183zm-8.546.022c-.186.332-.675.522-.622.947.102-.028.205-.053.307-.082.082.366-.248 1.129.294 1.141.15-.606-.174-1.319.262-1.837.146-.161-.148-.364-.242-.17zm.549 1.037c-.126.238.229.411.378.559.464-.045-.137-.728-.378-.559z"/>
    <path fill="#0066b3" d="M11.709 19.839l.257.002.003.409c-.088 0-.176.002-.264.006l.004-.416zM12.735 19.937l.306.001c-.041.198-.07.406-.191.574a6.699 6.699 0 0 1-.115-.574zM15.547 20.433h.573l.001.58h-.575l.002-.58zM11.711 21.047l.267-.004.01.501-.268.018c-.005-.172-.007-.344-.009-.515z"/>
    <path fill="#fff" d="M4.086 1.438C3.998.775 4.509.093 5.198.091c4.482-.015 8.966 0 13.448-.007.334-.015.643.126.936.27l.065.066c.146.292.283.602.266.936-.005 7.124.001 14.247-.002 21.37.03.642-.54 1.218-1.184 1.184H5.274c-.644.035-1.214-.542-1.184-1.183-.004-7.096.003-14.192-.004-21.288zm1.056-.78c-.36.115-.57.497-.539.863.002 6.986.001 13.972.001 20.958-.048.468.356.918.833.885 4.377.001 8.754.005 13.13-.002.46.014.834-.428.793-.877-.002-7.018.003-14.035-.002-21.053.023-.47-.415-.865-.878-.824C14.188.605 9.895.61 5.602.606c-.154.004-.312.003-.459.051z"/>
    <path fill="#fff" d="M11.034 1.618c1.483-.002 2.966.004 4.45.007.005 5.427 0 10.854.002 16.281a2204.4 2204.4 0 0 1-4.454-.001c.008-.634-.006-1.27.017-1.904.011-.3-.021-.655-.308-.825-.666-.446-1.446-.675-2.15-1.047-.424-.238-.799-.656-.78-1.171-.007-2.131-.006-4.263-.001-6.395a1.205 1.205 0 0 1 .625-1.086c.691-.359 1.415-.654 2.107-1.012.39-.217.495-.692.502-1.104.007-.581-.025-1.162-.01-1.743zM6.219 20.32c-.325-.376.389-.589.571-.868l.184.085c-.107.367-.464.573-.755.783zM7.836 19.422l.232.01c.034.098.066.196.101.294.218.001.438.006.657.013.11.417-.459.234-.694.274l-.008.344c.284.002.568.005.852.025l-.003.239-.33.049v.257c.11.015.218.031.328.048l.005.234-.33.038c-.014.337.054.691-.066 1.014-.234.108-.499.055-.746.054a11.334 11.334 0 0 1-.036-.257c.157-.03.354.024.484-.078.03-.247.012-.497.011-.746-.415-.014-.832.022-1.246-.016-.148.008-.13-.273.002-.255.414-.046.831-.004 1.246-.021l-.001-.288a80.302 80.302 0 0 0-1.202-.003c-.154-.418.431-.262.677-.288l.01-.349c-.23-.003-.46-.005-.69-.003-.004-.093-.001-.186-.004-.278.218-.002.435-.005.652-.003l.1-.307zM12.668 19.636c.113-.204.317-.211.43-.004l.291.037c.036.266-.126.504-.177.759.086.05.173.099.259.15-.074.178-.246.182-.414.185l-.014.294.358.042a7.081 7.081 0 0 1-.022.251l-.322.018c-.039.174.066.48-.18.516-.233-.053-.132-.342-.165-.514l-.33-.024-.022-.241c.119-.018.238-.034.358-.05v-.286c-.319.07-.589-.229-.186-.357-.016-.258-.196-.484-.166-.745l.299-.032zm.067.301c.031.193.067.385.115.574.122-.167.15-.376.191-.574l-.306-.001z"/>
    <path fill="#fff" d="M11.418 19.655c.202-.179.568-.13.808-.042.098.281.03.59.032.882-.184.035-.371.05-.558.059l-.007.209c.188.03.459-.066.579.122.014.303.073.64-.046.926-.23.054-.47.027-.704.025a1.52 1.52 0 0 0-.31-.419c-.016.222.088.445.317.505.591.164 1.213.036 1.815.099.209.086.039.33-.142.274-.707-.038-1.497.133-2.122-.286-.162.151-.459.455-.563.082.125-.112.25-.222.377-.331.004-.263.005-.526.002-.788l-.35-.046c-.071-.35.386-.294.597-.225.146.154.06.419.108.614.194-.533.118-1.106.17-1.658zm.291.184l-.004.416c.088-.004.176-.006.264-.006l-.003-.409-.257-.002zm.002 1.208c.002.171.004.343.009.515l.268-.018-.01-.501-.267.004zM16.67 19.786c.262-.187.638-.141.944-.242.16-.093.322.133.182.252-.261.118-.551.138-.829.189l-.013.453c.303.008.61-.022.911.018.232.155-.054.314-.224.321-.014.51.031 1.022-.03 1.531l-.26.011c-.09-.522-.008-1.054-.05-1.581a43.69 43.69 0 0 0-.362.004c-.069.51-.146 1.063-.51 1.456-.11.058-.19-.051-.268-.11.474-.676.454-1.518.507-2.302z"/>
    <path fill="#fff" d="M10.674 19.634c.282-.058.436.315.598.499l-.159.162c-.173-.173-.622-.402-.439-.662zM15.105 19.605c.405-.007.81-.027 1.214-.002.158-.025.15.143.182.249-.448.062-.905.046-1.354.021-.109-.057-.048-.176-.042-.268zM15.224 20.328c.027-.255.361-.156.537-.183.21.029.484-.07.643.107.015.326.074.686-.036.995-.253.104-.552.028-.823.049-.038.318-.042.654-.193.944-.127.144-.35-.042-.27-.204.155-.557.123-1.137.142-1.708zm.323.105l-.002.58h.575l-.001-.58a54.722 54.722 0 0 0-.573 0zM6.678 20.35c.094-.194.388.009.242.17-.435.518-.112 1.23-.262 1.837-.542-.012-.213-.775-.294-1.141-.102.029-.206.054-.307.082-.054-.425.435-.615.622-.947zM7.227 21.387c.241-.169.842.514.378.559-.149-.148-.504-.322-.378-.559z"/>
</svg>
