<!-- Generated by IcoMoon.io -->
<svg version="1.1" xmlns="http://www.w3.org/2000/svg" width="24" height="24" viewBox="0 0 24 24">
<title>information--bicycles-both-ways--g1</title>
<path fill="#304fb7" d="M11.133 0h1.726c1.826 0.175 3.632 0.692 5.214 1.637 2.826 1.645 4.924 4.49 5.636 7.684 0.15 0.595 0.199 1.208 0.291 1.812v1.724c-0.175 1.827-0.692 3.633-1.637 5.215-1.652 2.838-4.514 4.941-7.724 5.646-0.582 0.145-1.181 0.191-1.772 0.282h-1.726c-0.398-0.074-0.804-0.087-1.201-0.167-3.511-0.588-6.685-2.845-8.413-5.954 0.072-0.070 0.144-0.14 0.216-0.21-0.063-0.070-0.127-0.141-0.191-0.212 0.135-0.119 0.27-0.239 0.414-0.347-0.022-0.062-0.045-0.124-0.068-0.186 0.113-0.091 0.219-0.199 0.358-0.249 0.227 0.076 0.455 0.144 0.69 0.192 0.204 0.237-0.061 0.587 0.107 0.838 0.109 0.148 0.312 0.082 0.469 0.089 0.019 0.119 0.037 0.238 0.055 0.357 0.277 0.065 0.404-0.304 0.696-0.209 0.010-0.115 0.012-0.23 0.010-0.345-0.099-0.042-0.197-0.085-0.295-0.128-0.080-0.247-0.162-0.494-0.24-0.743 0.024-0.016 0.073-0.049 0.097-0.065 0.133 0.117 0.244 0.257 0.382 0.368 0.368 0.135 0.793-0.054 0.863-0.459 0.227-0.023 0.421-0.137 0.6-0.271 0.174 0.022 0.312 0.144 0.453 0.238-0.067 0.060-0.134 0.121-0.201 0.182 0.041 0.075 0.082 0.151 0.125 0.226-0.064 0.084-0.152 0.158-0.18 0.264 0.068 0.176 0.26 0.231 0.428 0.259 0.070-0.153 0.155-0.299 0.236-0.447 0.173-0.016 0.355-0.034 0.505 0.071-0.075 0.067-0.15 0.134-0.226 0.2 0.123 0.283 0.439 0.313 0.707 0.263-0.007-0.025-0.022-0.077-0.029-0.102-0.087-0.042-0.174-0.084-0.261-0.125 0.17-0.189 0.106-0.45 0.212-0.663 0.077 0.046 0.154 0.092 0.231 0.138 0.060-0.071 0.12-0.142 0.179-0.213 0.278 0.060 0.532 0.186 0.73 0.393 0.148-0.097 0.311-0.167 0.481-0.217-0.066-0.069-0.132-0.139-0.198-0.208 0.225-0.209 0.449-0.419 0.664-0.637 0.148-0.028 0.261 0.108 0.379 0.177 0.051-0.145 0.078-0.321 0.23-0.398-0.093 0.324 0.171 0.5 0.388 0.679-0.167 0.067-0.336 0.141-0.451 0.287-0.042-0.063-0.085-0.125-0.127-0.187-0.8 1.581-1.588 3.167-2.375 4.754 1.767-0.117 3.534-0.235 5.3-0.362-0.321-0.504-0.667-0.992-0.988-1.496 1.468-0.978 2.936-1.958 4.405-2.935-0.189-0.301-0.392-0.592-0.587-0.889 0.184-0.143 0.345-0.312 0.512-0.473 0.169-0.15 0.121-0.418 0.281-0.574 0.143 0.119 0.093 0.342 0.134 0.508 0.092-0.005 0.181-0.029 0.266-0.064-0.044-0.079-0.088-0.159-0.132-0.238 0.061-0.156 0.176-0.278 0.345-0.312-0.076-0.074-0.15-0.151-0.227-0.225 0.351 0.168 0.704 0.343 1.098 0.381 0.39 0.129 0.813 0.183 1.2 0.013 1.595-0.19 2.829-1.676 2.947-3.24 0.050-1.182-0.576-2.374-1.571-3.012-0.602-0.432-1.352-0.625-2.085-0.62-0.329-0.002-0.692 0.216-0.999 0.063-0.409-0.642-0.782-1.309-1.187-1.955-0.178-0.253-0.093-0.593 0.026-0.851 0.245-0.223 0.633-0.281 0.795-0.601 0.162-0.228 0.038-0.614-0.278-0.586-0.763 0-1.52-0.087-2.281-0.137-0.257-0.022-0.545 0.252-0.398 0.51 0.247 0.3 0.629 0.443 0.912 0.704 0.005 0.195-0.002 0.389-0.026 0.583-1.967 0-3.935 0.017-5.902-0.003 0.054-0.552-0.443-0.988-0.377-1.526 0.477-0.061 0.959-0.065 1.434-0.126 0.261-0.041 0.582-0.217 0.555-0.523-0.047-0.291-0.293-0.564-0.596-0.594-0.573-0.046-1.134 0.095-1.691 0.2 0.2-0.232 0.259-0.751 0.643-0.695 0.033 0.203-0.103 0.357-0.229 0.495 0.1-0.011 0.2-0.020 0.301-0.027 0.027-0.079 0.055-0.159 0.083-0.238 0.195-0.033 0.483-0.093 0.345-0.353-0.073-0.014-0.146-0.029-0.218-0.043 0.011-0.098 0.021-0.197 0.030-0.295-0.336 0.013-0.539-0.325-0.886-0.297 0.078-0.208 0.172-0.41 0.267-0.61-0.012-0.025-0.036-0.076-0.048-0.101-0.278 0.041-0.448 0.294-0.622 0.489 0.1 0.111 0.201 0.234 0.194 0.393-0.125 0.020-0.249 0.040-0.374 0.060-0.004 0.117-0.007 0.234-0.010 0.351-0.266 0.085-0.442-0.17-0.675-0.244-0.277-0.070-0.258-0.404-0.4-0.603 1.332-0.643 2.788-0.981 4.253-1.134z"></path>
<path fill="#304db2" d="M8.145 1.177c0.175-0.195 0.344-0.448 0.622-0.489 0.012 0.025 0.036 0.076 0.048 0.101-0.095 0.201-0.189 0.402-0.267 0.61 0.347-0.028 0.55 0.31 0.886 0.297-0.009 0.099-0.019 0.197-0.030 0.295 0.072 0.014 0.145 0.029 0.218 0.043 0.138 0.259-0.15 0.32-0.345 0.353-0.028 0.079-0.055 0.159-0.083 0.238-0.101 0.007-0.201 0.016-0.301 0.027 0.126-0.139 0.261-0.293 0.229-0.495-0.384-0.057-0.443 0.463-0.643 0.695-0.298 0.021-0.605 0.104-0.836 0.301-0.173 0.165-0.127 0.442 0.018 0.609 0.266 0.332 0.475 0.74 0.439 1.178-0.027 0.431 0.021 0.866-0.036 1.294-0.173 0.573-0.245 1.187-0.52 1.722-0.742-0.325-1.607-0.421-2.383-0.159-1.239 0.366-2.251 1.447-2.471 2.729-0.199 0.646-0.024 1.32 0.165 1.944 0.194 0.436 0.421 0.903 0.845 1.159 0.695 0.643 1.624 1.107 2.589 1.021 0.435 0.054 0.824-0.157 1.221-0.294 1.388-0.613 2.237-2.183 2.046-3.676-0.017 0-0.034 0-0.050 0.001-0.063-0.72-0.457-1.372-0.916-1.912-0.091-0.227-0.044-0.493 0.027-0.721 0.529 0.013 0.872 0.515 1.305 0.766 0.062 0.095 0.122 0.197 0.22 0.26 0.678 0.468 1.335 0.964 1.992 1.46-0.022 0.201-0.077 0.397-0.108 0.596-0.017 0.933 0.826 1.742 1.752 1.724 0.105 0.238-0.168 0.444-0.070 0.679 0.058 0.182 0.108 0.469 0.364 0.425 0.314-0.060 0.62-0.174 0.929-0.256 0.177-0.298-0.014-0.819-0.413-0.806-0.037-0.103-0.072-0.207-0.104-0.311 0.286-0.217 0.422-0.58 0.732-0.765 0.202 0.305 0.218 0.688 0.419 0.993 0.286 0.563 0.761 0.998 1.267 1.363 0.076 0.074 0.15 0.151 0.227 0.225-0.17 0.034-0.284 0.156-0.345 0.312 0.044 0.079 0.088 0.158 0.132 0.238-0.085 0.035-0.175 0.059-0.266 0.064-0.040-0.166 0.009-0.389-0.134-0.508-0.16 0.156-0.112 0.425-0.281 0.574-0.168 0.161-0.329 0.33-0.512 0.473-0.115-0.175-0.232-0.348-0.349-0.521-1.471 0.976-2.939 1.958-4.409 2.936-0.294-0.431-0.579-0.868-0.87-1.3 0.114-0.146 0.284-0.22 0.451-0.287-0.217-0.178-0.481-0.355-0.388-0.679-0.151 0.077-0.179 0.252-0.23 0.398-0.118-0.069-0.231-0.205-0.379-0.177-0.215 0.219-0.439 0.429-0.664 0.637 0.066 0.069 0.132 0.138 0.198 0.208-0.17 0.050-0.333 0.12-0.481 0.217-0.198-0.207-0.453-0.333-0.73-0.393-0.059 0.071-0.119 0.142-0.179 0.213-0.077-0.046-0.154-0.092-0.231-0.138-0.106 0.213-0.042 0.475-0.212 0.663 0.087 0.041 0.174 0.083 0.261 0.125 0.007 0.025 0.022 0.077 0.029 0.102-0.268 0.050-0.584 0.020-0.707-0.263 0.076-0.066 0.151-0.133 0.226-0.2-0.15-0.105-0.333-0.087-0.505-0.071-0.081 0.147-0.166 0.293-0.236 0.447-0.168-0.029-0.36-0.084-0.428-0.259 0.027-0.106 0.115-0.18 0.18-0.264-0.043-0.074-0.084-0.15-0.125-0.226 0.067-0.060 0.134-0.121 0.201-0.182-0.141-0.094-0.279-0.216-0.453-0.238-0.179 0.134-0.373 0.248-0.6 0.271-0.070 0.405-0.495 0.593-0.863 0.459-0.138-0.111-0.249-0.251-0.382-0.368-0.024 0.016-0.072 0.049-0.097 0.065 0.077 0.249 0.159 0.496 0.24 0.743 0.098 0.043 0.196 0.086 0.295 0.128 0.002 0.115 0 0.231-0.010 0.345-0.292-0.095-0.418 0.274-0.696 0.209-0.017-0.119-0.036-0.238-0.055-0.357-0.156-0.006-0.36 0.059-0.469-0.089-0.169-0.251 0.097-0.602-0.107-0.838-0.235-0.047-0.463-0.115-0.69-0.192-0.139 0.050-0.245 0.158-0.358 0.249 0.023 0.062 0.046 0.124 0.068 0.186-0.144 0.108-0.278 0.228-0.414 0.347 0.064 0.070 0.127 0.141 0.191 0.212-0.072 0.069-0.144 0.139-0.216 0.21-0.879-1.531-1.353-3.264-1.526-5.013v-1.725c0.121-1.037 0.291-2.077 0.646-3.064 1.033-3.028 3.337-5.588 6.234-6.945 0.142 0.199 0.123 0.533 0.4 0.603 0.233 0.074 0.409 0.329 0.675 0.244 0.003-0.117 0.006-0.234 0.010-0.351 0.125-0.020 0.249-0.040 0.374-0.060 0.007-0.159-0.094-0.282-0.194-0.393z"></path>
<path fill="#5a73c5" d="M8.478 2.852c0.557-0.104 1.118-0.246 1.691-0.2 0.303 0.029 0.549 0.302 0.596 0.594 0.027 0.306-0.294 0.482-0.555 0.523-0.476 0.061-0.958 0.065-1.434 0.126-0.065 0.538 0.432 0.974 0.377 1.526 1.967 0.021 3.935 0.003 5.902 0.003 0.024-0.194 0.032-0.388 0.026-0.583-0.283-0.261-0.665-0.404-0.912-0.704-0.148-0.257 0.141-0.532 0.398-0.51 0.76 0.050 1.518 0.138 2.281 0.137 0.316-0.027 0.44 0.358 0.278 0.586-0.163 0.32-0.55 0.378-0.795 0.601-0.119 0.257-0.205 0.598-0.026 0.851 0.404 0.647 0.777 1.314 1.187 1.955 0.307 0.152 0.67-0.065 0.999-0.063 0.733-0.005 1.483 0.188 2.085 0.62 0.995 0.638 1.622 1.831 1.571 3.012-0.119 1.564-1.352 3.050-2.947 3.24-0.387 0.17-0.811 0.116-1.2-0.013-0.394-0.038-0.746-0.213-1.098-0.381-0.506-0.365-0.981-0.799-1.267-1.363-0.201-0.306-0.217-0.689-0.419-0.993-0.31 0.185-0.447 0.548-0.732 0.765 0.032 0.104 0.067 0.208 0.104 0.311 0.399-0.012 0.59 0.508 0.413 0.806-0.308 0.082-0.615 0.196-0.929 0.256-0.256 0.044-0.306-0.243-0.364-0.425-0.098-0.236 0.175-0.442 0.070-0.679-0.927 0.018-1.769-0.791-1.752-1.724 0.031-0.2 0.085-0.395 0.108-0.596-0.657-0.496-1.314-0.992-1.992-1.46-0.098-0.063-0.158-0.165-0.22-0.26 0.582 0.363 1.113 0.803 1.674 1.199 0.215 0.172 0.47 0.302 0.64 0.522 0 0.186-0.070 0.362-0.085 0.545-0.091 0.797 0.593 1.572 1.386 1.622 0.26-0.019 0.529 0.296 0.348 0.528-0.139 0.19-0.101 0.499 0.109 0.617 0.281-0.018 0.554-0.113 0.827-0.184 0.188-0.053 0.153-0.296 0.089-0.434-0.086-0.24-0.48-0.179-0.502-0.455-0.082-0.33 0.286-0.485 0.421-0.735 0.104-0.17 0.273-0.396 0.5-0.276 0.148 0.121 0.13 0.348 0.2 0.516 0.353 1.12 1.368 2.009 2.526 2.205 0.915 0.182 1.893-0.080 2.628-0.645 0.771-0.597 1.274-1.528 1.335-2.503 0.054-1.107-0.468-2.24-1.388-2.871-0.826-0.624-1.955-0.808-2.943-0.508-0.157 0.062-0.272-0.081-0.34-0.203-0.379-0.651-0.749-1.307-1.16-1.938-0.216-0.289-0.089-0.69 0.102-0.955 0.258-0.225 0.69-0.285 0.782-0.669 0.071-0.2-0.169-0.357-0.347-0.358-0.701-0.048-1.408 0.013-2.108-0.066-0.178-0.037-0.461 0.078-0.363 0.3 0.236 0.367 0.754 0.446 0.971 0.828-0.030 0.235-0.021 0.678-0.349 0.667-1.865-0.007-3.73 0.006-5.594-0.002-0.153 0.022-0.221-0.112-0.219-0.242-0.024-0.455-0.357-0.823-0.393-1.275-0.021-0.166 0.135-0.271 0.281-0.288 0.407-0.066 0.82-0.075 1.231-0.085 0.196-0.003 0.383-0.127 0.471-0.3 0.041-0.298-0.212-0.572-0.49-0.641-0.412-0.075-0.813 0.083-1.216 0.141-0.367 0.050-0.737 0.116-1.081 0.258-0.188 0.072-0.279 0.301-0.183 0.48 0.148 0.267 0.383 0.492 0.446 0.802 0.109 0.537 0.051 1.088 0.032 1.631-0.033 0.677-0.286 1.312-0.464 1.958-0.264 0.117-0.512-0.088-0.767-0.137-0.431-0.094-0.878-0.060-1.315-0.047-1.067 0.152-2.025 0.866-2.506 1.827-0.53 1.028-0.482 2.327 0.104 3.322 0.144 0.236 0.329 0.443 0.489 0.666-0.424-0.256-0.651-0.722-0.845-1.159-0.189-0.624-0.363-1.298-0.165-1.944 0.22-1.282 1.232-2.363 2.471-2.729 0.776-0.262 1.641-0.167 2.383 0.159 0.275-0.535 0.348-1.15 0.52-1.722 0.057-0.428 0.009-0.863 0.036-1.294 0.036-0.437-0.172-0.846-0.439-1.178-0.145-0.167-0.191-0.444-0.018-0.609 0.231-0.197 0.538-0.279 0.836-0.301z"></path>
<path fill="#a9b6df" d="M8.942 2.869c0.403-0.058 0.804-0.217 1.216-0.141 0.278 0.069 0.531 0.343 0.49 0.641-0.088 0.173-0.275 0.297-0.471 0.3-0.411 0.010-0.824 0.019-1.231 0.085-0.146 0.017-0.302 0.122-0.281 0.288 0.036 0.452 0.369 0.82 0.393 1.275-0.002 0.131 0.066 0.265 0.219 0.242 1.864 0.009 3.73-0.005 5.594 0.002 0.328 0.011 0.319-0.432 0.349-0.667-0.217-0.382-0.735-0.461-0.971-0.828-0.098-0.223 0.185-0.338 0.363-0.3 0.7 0.080 1.407 0.018 2.108 0.066 0.178 0.001 0.418 0.159 0.347 0.358-0.092 0.384-0.524 0.445-0.782 0.669-0.192 0.265-0.318 0.666-0.102 0.955 0.411 0.631 0.781 1.287 1.16 1.938 0.067 0.121 0.183 0.265 0.34 0.203 0.988-0.3 2.117-0.116 2.943 0.508 0.92 0.631 1.442 1.764 1.388 2.871-0.060 0.975-0.564 1.906-1.335 2.503-0.735 0.565-1.713 0.827-2.628 0.645-1.158-0.197-2.173-1.086-2.526-2.205-0.069-0.168-0.051-0.395-0.2-0.516-0.227-0.12-0.396 0.106-0.5 0.276-0.135 0.25-0.503 0.406-0.421 0.735 0.022 0.276 0.416 0.215 0.502 0.455 0.064 0.137 0.099 0.381-0.089 0.434-0.272 0.070-0.545 0.165-0.827 0.184-0.211-0.118-0.248-0.428-0.109-0.617 0.181-0.233-0.087-0.547-0.348-0.528-0.792-0.050-1.476-0.825-1.386-1.622 0.015-0.184 0.085-0.36 0.085-0.545-0.171-0.22-0.426-0.35-0.64-0.522-0.561-0.396-1.091-0.836-1.674-1.199-0.433-0.25-0.775-0.752-1.305-0.766-0.071 0.229-0.118 0.494-0.027 0.721 0.46 0.54 0.853 1.193 0.916 1.912 0.016-0 0.033-0.001 0.050-0.001 0.191 1.493-0.658 3.063-2.046 3.676-0.397 0.138-0.786 0.348-1.221 0.294-0.965 0.086-1.895-0.378-2.589-1.021-0.161-0.224-0.346-0.43-0.489-0.666-0.586-0.995-0.634-2.293-0.104-3.322 0.48-0.961 1.439-1.675 2.506-1.827 0.437-0.013 0.884-0.047 1.315 0.047 0.255 0.049 0.503 0.254 0.767 0.137 0.178-0.646 0.431-1.281 0.464-1.958 0.019-0.543 0.077-1.094-0.032-1.631-0.063-0.31-0.297-0.535-0.446-0.802-0.096-0.179-0.005-0.408 0.183-0.48 0.344-0.143 0.714-0.208 1.081-0.258M9.407 2.871c0.019 0.020 0.039 0.041 0.058 0.061-0.548-0.006-1.057 0.145-1.587 0.254-0.187 0.317 0.008 0.687 0.282 0.876 0.080 0.39 0.197 0.774 0.151 1.177 0.063 0.97-0.251 1.9-0.513 2.819-0.146 0.207-0.432 0.064-0.624 0.005-0.437-0.195-0.922-0.157-1.387-0.152-1.637 0.091-3.009 1.63-2.92 3.266-0.121 1.643 1.274 3.227 2.921 3.291 1.295 0.192 2.664-0.514 3.237-1.695 0.427-0.682 0.418-1.526 0.334-2.298 0.005-0.133-0.109-0.222-0.133-0.345-0.081-0.581-0.523-1.006-0.871-1.443-0.018-0.268 0.11-0.524 0.156-0.786 0.112-0.079 0.282-0.074 0.389 0.014 1.123 0.838 2.27 1.645 3.381 2.499 0.214 0.265-0.108 0.609-0.015 0.913 0.031 0.771 0.782 1.331 1.526 1.281 0.103 0.155 0.322 0.3 0.243 0.513-0.066 0.172-0.119 0.35-0.098 0.537 0.305 0.084 0.613-0.052 0.911-0.112 0.039-0.197-0.075-0.405-0.28-0.437-0.306-0.032-0.245-0.421-0.222-0.638 0.237-0.263 0.431-0.562 0.668-0.826 0.167 0.006 0.417-0.061 0.502 0.133 0.172 1.294 1.266 2.393 2.543 2.618 0.445 0.010 0.893 0.023 1.337-0.018 0.142-0.084 0.296-0.139 0.459-0.172 0.81-0.327 1.462-0.993 1.81-1.791 0.029-0.12 0.039-0.242 0.055-0.364 0.026 0.012 0.052 0.026 0.079 0.039 0.101-0.447 0.090-0.908 0.071-1.362-0.061-0.695-0.42-1.322-0.867-1.841-0.741-0.705-1.805-1.070-2.82-0.912-0.251 0.055-0.544 0.186-0.786 0.079-0.446-0.765-0.861-1.553-1.381-2.27-0.057-0.278-0.050-0.585 0.047-0.853 0.167-0.262 0.49-0.357 0.751-0.499 0.144-0.123 0.128-0.341 0.060-0.5-0.829-0.031-1.659-0.017-2.488-0.024 0.019 0.083-0.018 0.198 0.062 0.254 0.289 0.211 0.618 0.378 0.868 0.639 0.081 0.301 0.035 0.801-0.343 0.867-1.947 0-3.895 0.006-5.843-0.001-0.389-0-0.138-0.495-0.261-0.727-0.188-0.406-0.431-0.885-0.148-1.313 0.321-0.009 0.642-0.021 0.961-0.053 0.239-0.027 0.5 0.052 0.721-0.064 0.166-0.129 0.094-0.366 0.047-0.536-0.315-0.207-0.69-0.156-1.041-0.101z"></path>
<path fill="#fefefe" d="M9.407 2.871c0.351-0.054 0.725-0.106 1.041 0.101 0.047 0.171 0.119 0.407-0.047 0.536-0.221 0.117-0.483 0.037-0.722 0.064-0.319 0.032-0.64 0.044-0.961 0.053-0.282 0.429-0.040 0.907 0.148 1.313 0.124 0.232-0.127 0.726 0.261 0.727 1.947 0.007 3.895 0.002 5.843 0.001 0.379-0.065 0.425-0.566 0.343-0.867-0.249-0.261-0.578-0.428-0.868-0.639-0.080-0.056-0.042-0.171-0.062-0.254 0.829 0.007 1.66-0.007 2.488 0.024 0.068 0.16 0.084 0.378-0.060 0.5-0.261 0.142-0.584 0.237-0.751 0.499-0.097 0.268-0.104 0.575-0.047 0.853 0.52 0.717 0.936 1.505 1.381 2.27 0.242 0.106 0.535-0.024 0.786-0.079 1.015-0.158 2.079 0.207 2.82 0.912 0.447 0.519 0.806 1.147 0.867 1.841 0.019 0.455 0.030 0.916-0.071 1.362-0.026-0.013-0.053-0.026-0.079-0.039-0.016 0.122-0.026 0.245-0.055 0.364-0.347 0.798-1 1.463-1.81 1.791-0.162 0.033-0.316 0.088-0.459 0.172-0.444 0.041-0.892 0.028-1.337 0.018-1.277-0.225-2.371-1.324-2.543-2.618-0.085-0.194-0.335-0.127-0.502-0.133-0.237 0.264-0.431 0.563-0.668 0.826-0.022 0.217-0.084 0.605 0.222 0.638 0.206 0.032 0.32 0.24 0.28 0.437-0.298 0.060-0.606 0.196-0.911 0.112-0.021-0.187 0.031-0.365 0.098-0.537 0.079-0.214-0.14-0.358-0.243-0.513-0.744 0.049-1.495-0.51-1.526-1.281-0.092-0.304 0.229-0.648 0.015-0.913-1.111-0.854-2.258-1.662-3.381-2.499-0.107-0.089-0.277-0.093-0.389-0.014-0.045 0.262-0.174 0.517-0.156 0.786 0.348 0.438 0.79 0.863 0.871 1.443 0.024 0.123 0.138 0.213 0.133 0.345 0.083 0.772 0.092 1.617-0.334 2.298-0.573 1.181-1.941 1.887-3.237 1.695-1.647-0.064-3.042-1.648-2.921-3.291-0.089-1.636 1.284-3.175 2.92-3.266 0.466-0.005 0.951-0.043 1.387 0.152 0.192 0.059 0.478 0.203 0.624-0.005 0.261-0.919 0.576-1.849 0.513-2.819 0.045-0.403-0.071-0.787-0.151-1.177-0.274-0.189-0.469-0.558-0.282-0.876 0.53-0.109 1.039-0.26 1.587-0.254-0.019-0.020-0.038-0.041-0.058-0.061M8.977 7.136c1.131 0.924 2.319 1.775 3.467 2.675 0.169 0.172 0.466 0.183 0.659 0.049 0.178-0.214 0.052-0.504-0.019-0.735-0.141-0.064-0.277-0.136-0.415-0.206 0.227-0.152 0.542-0.13 0.799-0.236 0.083 0.172-0.097 0.307-0.076 0.477 0.016 0.165 0.037 0.336 0.113 0.485 0.182 0.206 0.595 0.174 0.655-0.131 0.201-0.766 0.44-1.523 0.658-2.286 0.086-0.257 0.206-0.515 0.184-0.793 0.003-0.142-0.144-0.246-0.279-0.226-1.831-0.002-3.662 0.005-5.493-0.002-0.47-0.021-0.471 0.663-0.251 0.928M15.549 6.569c-0.276 1.097-0.616 2.181-0.916 3.273-0.172 0.329 0.207 0.563 0.27 0.864 0.050 0.259 0.381 0.232 0.575 0.18 0.212-0.271 0.19-0.641 0.355-0.934 0.237-0.458 0.485-0.932 0.885-1.271 0.125-0.098 0.228-0.279 0.131-0.431-0.32-0.548-0.637-1.098-0.967-1.639-0.067-0.131-0.224-0.058-0.333-0.043M4.259 9.201c-0.919 0.859-1.085 2.372-0.44 3.438 0.057 0.097 0.103 0.225 0.231 0.243 0.214 0.28 0.518 0.49 0.825 0.657 0.214 0.259 0.572 0.266 0.864 0.382 1.354 0.202 2.775-0.806 3.028-2.152 0.002-0.289 0.175-0.571 0.046-0.853-0.053-0.503-0.232-1.007-0.58-1.384-0.096-0.129-0.315-0.149-0.425-0.030-0.435 0.681-0.836 1.407-1.431 1.964-0.15 0.192-0.496-0.041-0.341-0.244 0.528-0.685 1.009-1.411 1.381-2.193 0.023-0.164-0.12-0.28-0.261-0.324-0.481-0.256-1.043-0.172-1.565-0.164-0.494 0.087-0.946 0.346-1.331 0.661M18.279 8.554c-0.23 0-0.554 0.246-0.375 0.488 0.338 0.561 0.664 1.13 0.986 1.7 0.118 0.207 0.284 0.429 0.224 0.682-0.089 0.159-0.285 0.2-0.453 0.192-0.749-0.006-1.498-0.006-2.247 0-0.143-0.018-0.273 0.105-0.235 0.251 0.209 0.947 1.024 1.742 1.974 1.93 0.931 0.274 1.933-0.17 2.574-0.853 0.383-0.426 0.543-0.998 0.653-1.547 0.069-0.386-0.053-0.758-0.171-1.119-0.392-1.192-1.705-1.925-2.93-1.723M17.18 9.101c-0.521 0.323-0.841 0.901-1.009 1.479-0.061 0.191 0.084 0.413 0.292 0.401 0.483 0.012 0.967 0 1.451 0.005 0.169 0.010 0.398-0.106 0.383-0.298-0.249-0.46-0.544-0.894-0.79-1.355-0.064-0.118-0.178-0.255-0.326-0.233M12.886 10.679c-0.347 0.246-0.223 0.786 0.008 1.077 0.427 0.554 1.419 0.363 1.599-0.318 0.148-0.278-0.019-0.561-0.107-0.826-0.031-0.006-0.093-0.019-0.125-0.026-0.336-0.47-1.085-0.39-1.375 0.093z"></path>
<path fill="#b6c1e5" d="M8.977 7.136c-0.219-0.265-0.219-0.95 0.251-0.928 1.831 0.008 3.662 0.001 5.493 0.002 0.135-0.020 0.282 0.084 0.279 0.226 0.022 0.278-0.098 0.536-0.184 0.793-0.218 0.763-0.457 1.519-0.658 2.286-0.059 0.304-0.473 0.337-0.655 0.131-0.076-0.149-0.097-0.321-0.113-0.485-0.020-0.169 0.16-0.305 0.076-0.477-0.257 0.106-0.572 0.083-0.799 0.236 0.138 0.070 0.274 0.141 0.415 0.206 0.072 0.231 0.198 0.521 0.019 0.735-0.193 0.134-0.489 0.123-0.659-0.049-1.148-0.901-2.336-1.752-3.467-2.675M9.306 7.246c1.097 0.838 2.202 1.667 3.299 2.506 0.128 0.097 0.362 0.090 0.441-0.068 0.034-0.16-0.023-0.317-0.066-0.469-0.175-0.022-0.506 0.037-0.483-0.233-0.055-0.233 0.219-0.259 0.378-0.303 0.257-0.042 0.534-0.197 0.787-0.065 0.005 0.143 0 0.29-0.087 0.411 0 0.26 0.003 0.789 0.408 0.592 0.224-0.887 0.532-1.761 0.717-2.663 0.014 0.019 0.028 0.038 0.042 0.058 0.002-0.185 0.035-0.366 0.076-0.546-0.104-0.065-0.229-0.061-0.347-0.059-1.78 0.011-3.561-0.013-5.34 0.012-0.143 0.243-0.096 0.671 0.176 0.827z"></path>
<path fill="#334fb4" d="M9.306 7.246c-0.272-0.156-0.319-0.583-0.176-0.827 1.779-0.026 3.56-0.001 5.34-0.012 0.118-0.002 0.242-0.005 0.347 0.059-0.041 0.18-0.073 0.361-0.076 0.546-0.014-0.019-0.028-0.038-0.042-0.058-0.184 0.902-0.492 1.776-0.717 2.663-0.405 0.197-0.408-0.332-0.408-0.592 0.087-0.12 0.092-0.267 0.087-0.411-0.253-0.131-0.53 0.023-0.787 0.065-0.159 0.044-0.434 0.071-0.378 0.303-0.022 0.27 0.309 0.211 0.483 0.233 0.043 0.152 0.101 0.309 0.066 0.469-0.079 0.158-0.313 0.165-0.441 0.068-1.097-0.84-2.201-1.668-3.299-2.506z"></path>
<path fill="#b0b8df" d="M15.549 6.569c0.11-0.015 0.266-0.088 0.333 0.043 0.33 0.541 0.647 1.091 0.967 1.639 0.097 0.152-0.006 0.333-0.131 0.431-0.4 0.339-0.648 0.813-0.885 1.271-0.166 0.293-0.143 0.662-0.355 0.934-0.194 0.051-0.524 0.079-0.575-0.18-0.063-0.301-0.442-0.535-0.27-0.864 0.3-1.092 0.64-2.176 0.916-3.273M15.667 6.724c-0.27 1.073-0.657 2.118-0.875 3.205-0.072 0.296 0.222 0.493 0.223 0.778 0.145 0.065 0.314 0.078 0.457 0 0.129-0.83 0.578-1.605 1.196-2.171 0.061-0.104 0.039-0.247-0.012-0.352-0.284-0.494-0.595-0.971-0.867-1.472-0.041 0.005-0.081 0.009-0.122 0.013z"></path>
<path fill="#3752b8" d="M15.667 6.724c0.040-0.005 0.081-0.009 0.122-0.013 0.272 0.501 0.582 0.978 0.867 1.472 0.051 0.105 0.073 0.248 0.012 0.352-0.618 0.567-1.067 1.341-1.196 2.171-0.143 0.078-0.312 0.065-0.457 0-0.001-0.284-0.295-0.482-0.223-0.778 0.219-1.087 0.605-2.132 0.875-3.205z"></path>
<path fill="#d2dff2" d="M4.259 9.201c0.385-0.315 0.837-0.574 1.331-0.661 0.522-0.008 1.084-0.092 1.565 0.164 0.142 0.044 0.285 0.16 0.261 0.324-0.372 0.782-0.852 1.509-1.381 2.193-0.155 0.203 0.192 0.436 0.341 0.244 0.594-0.557 0.996-1.283 1.431-1.964 0.11-0.118 0.329-0.099 0.425 0.030 0.348 0.377 0.527 0.881 0.58 1.384 0.129 0.282-0.044 0.564-0.046 0.853-0.253 1.346-1.675 2.354-3.028 2.152-0.292-0.116-0.65-0.123-0.864-0.382 0.478 0.188 0.99 0.348 1.509 0.28 0.679-0.063 1.323-0.419 1.75-0.948 0.825-0.926 0.829-2.511-0.066-3.39-0.139 0.066-0.254 0.171-0.33 0.305-0.354 0.579-0.745 1.138-1.19 1.652-0.111 0.118-0.275 0.293-0.448 0.179-0.197-0.090-0.222-0.361-0.087-0.516 0.458-0.59 0.866-1.219 1.212-1.881 0.068-0.121 0.106-0.31-0.028-0.401-1.133-0.58-2.644-0.103-3.297 0.973-0.391 0.596-0.453 1.335-0.342 2.024 0.097 0.382 0.304 0.723 0.491 1.066-0.127-0.019-0.173-0.147-0.231-0.243-0.645-1.067-0.479-2.579 0.44-3.438z"></path>
<path fill="#cbd3ec" d="M18.279 8.554c1.224-0.202 2.538 0.531 2.93 1.723 0.118 0.361 0.24 0.733 0.171 1.119-0.11 0.549-0.27 1.121-0.653 1.547-0.641 0.683-1.643 1.127-2.574 0.853-0.951-0.188-1.765-0.983-1.974-1.93-0.038-0.146 0.092-0.269 0.236-0.251 0.749-0.006 1.498-0.006 2.247 0 0.168 0.008 0.364-0.033 0.453-0.192 0.060-0.253-0.106-0.475-0.224-0.682-0.322-0.57-0.649-1.139-0.986-1.7-0.179-0.242 0.145-0.487 0.375-0.488M18.246 8.696c-0.058 0.013-0.137 0.008-0.171 0.067-0.030 0.020-0.089 0.060-0.119 0.081 0.026 0.089 0.062 0.175 0.121 0.248 0.005 0.026 0.014 0.077 0.019 0.103 0.020 0.005 0.061 0.014 0.082 0.018 0.002 0.031 0.006 0.092 0.008 0.123 0.024 0.018 0.072 0.053 0.096 0.071-0.003 0.108 0.064 0.202 0.136 0.275 0.013 0.023 0.040 0.068 0.053 0.091 0.005 0.055 0.031 0.105 0.066 0.147 0.023 0.024 0.069 0.071 0.092 0.095l0.013 0.073c0 0.002 0.002 0.006 0.002 0.008 0.021 0.039 0.064 0.118 0.085 0.157 0.001 0.001 0.003 0.004 0.004 0.005 0.026 0.030 0.078 0.091 0.104 0.121-0.066 0.078 0.031 0.252 0.131 0.218 0.013 0.038 0.038 0.115 0.050 0.153 0.002 0.002 0.005 0.008 0.006 0.011s0.006 0.007 0.008 0.010c0.048 0.13 0.111 0.254 0.197 0.363 0.022 0.138 0.012 0.283-0.041 0.413-0.403 0.235-0.888 0.091-1.328 0.128-0.47 0.034-0.964-0.070-1.417 0.060-0.036-0.001-0.072-0.002-0.107-0.002-0.128 0.158 0.008 0.359 0.093 0.503 0.001 0.014 0.003 0.043 0.005 0.057l0.026 0.015c-0.032 0.077 0.032 0.223 0.128 0.196l0.037 0.103c0.002 0.005 0.008 0.016 0.010 0.022 0.005 0.006 0.013 0.019 0.018 0.025 0.003 0.005 0.011 0.013 0.015 0.018l0.068 0.069c-0.030 0.086 0 0.124 0.090 0.115 0.020 0.029 0.061 0.087 0.082 0.116 0.003 0.003 0.009 0.009 0.012 0.012 0.005 0.004 0.016 0.011 0.021 0.015 0.016 0.022 0.048 0.067 0.064 0.089l0.066 0.021c-0.005 0.088 0.034 0.117 0.118 0.087l0.072 0.069c0.005 0.004 0.013 0.012 0.018 0.016 0.006 0.005 0.018 0.015 0.024 0.020 0.005 0.004 0.015 0.012 0.021 0.016l0.092 0.068c0.002 0.002 0.007 0.005 0.009 0.006 0.082 0.054 0.168 0.103 0.256 0.147 0.002 0 0.005 0.002 0.007 0.003 0.079 0.034 0.16 0.064 0.242 0.090 0.002 0.001 0.006 0.002 0.008 0.002 0.025 0.005 0.076 0.015 0.101 0.020 0.433 0.157 0.96 0.159 1.392-0.006l0.053-0.016c0.002-0 0.006-0.002 0.008-0.003l0.076-0.034c0.002-0.001 0.007-0.003 0.009-0.005l0.066-0.040c0.024-0.011 0.073-0.034 0.097-0.046 0.027 0.001 0.081 0.002 0.109 0.003l0.020-0.051c0.022-0.014 0.067-0.043 0.089-0.058 0.002-0 0.007-0.001 0.010-0.002 0.082-0.032 0.178-0.064 0.223-0.147 0.084 0.026 0.12-0.004 0.109-0.090l0.060-0.023c0.002-0.001 0.005-0.003 0.007-0.004 0.031-0.026 0.092-0.078 0.123-0.104 0.002-0.002 0.007-0.007 0.010-0.009s0.007-0.007 0.010-0.010c0.027-0.031 0.082-0.093 0.11-0.124 0.002-0.002 0.005-0.006 0.006-0.008l0.046-0.062c0.002-0.002 0.004-0.006 0.005-0.007 0.014-0.025 0.042-0.074 0.056-0.099 0.016-0.021 0.048-0.063 0.064-0.084 0.010-0.015 0.029-0.047 0.039-0.063 0.014-0.021 0.044-0.065 0.059-0.087 0.017-0.019 0.053-0.058 0.071-0.077 0-0.001 0.001-0.003 0.002-0.005 0.005-0.035 0.015-0.106 0.020-0.141 0.084-0.009 0.107-0.054 0.067-0.133 0.002-0.002 0.005-0.006 0.006-0.008 0.050-0.054 0.074-0.118 0.072-0.191 0.009-0.025 0.026-0.074 0.035-0.099 0.012-0.078 0.016-0.156 0.020-0.234 0.147-0.285 0.111-0.635-0.004-0.925-0.005-0.069-0.012-0.137-0.023-0.204-0-0.002-0.001-0.005-0.001-0.006-0.045-0.156-0.114-0.303-0.186-0.448-0-0.001-0.002-0.004-0.003-0.005-0.040-0.067-0.079-0.137-0.14-0.187-0.015-0.022-0.047-0.068-0.062-0.091-0.003-0.003-0.011-0.011-0.014-0.014 0.044-0.069-0.044-0.19-0.122-0.147-0.021-0.033-0.064-0.098-0.085-0.131-0.003-0.003-0.009-0.011-0.012-0.015-0.005-0.005-0.013-0.014-0.018-0.019-0.003-0.003-0.011-0.009-0.014-0.013-0.032-0.024-0.096-0.073-0.129-0.097 0.017-0.086-0.019-0.124-0.11-0.114-0.005-0.005-0.014-0.015-0.019-0.021-0.004-0.003-0.012-0.011-0.017-0.015l-0.085-0.067c-0.002-0.002-0.007-0.005-0.009-0.006-0.038-0.016-0.114-0.049-0.152-0.065-0.012-0.089-0.056-0.108-0.132-0.056-0.023-0.012-0.069-0.038-0.092-0.051-0.041-0.083-0.134-0.098-0.217-0.092-0.023-0.086-0.069-0.099-0.137-0.037-0.074-0.036-0.154-0.056-0.235-0.066-0.28-0.139-0.653-0.15-0.931 0.001z"></path>
<path fill="#99a6d7" d="M3.901 9.792c0.652-1.076 2.164-1.553 3.297-0.973 0.134 0.091 0.096 0.28 0.028 0.401-0.346 0.662-0.755 1.29-1.212 1.881-0.135 0.155-0.11 0.426 0.087 0.516 0.173 0.114 0.337-0.061 0.448-0.179 0.445-0.514 0.836-1.072 1.19-1.652 0.076-0.134 0.191-0.239 0.33-0.305 0.895 0.879 0.891 2.465 0.066 3.39-0.427 0.529-1.072 0.885-1.75 0.948-0.519 0.068-1.031-0.093-1.509-0.28-0.307-0.167-0.611-0.377-0.825-0.657-0.187-0.343-0.394-0.684-0.491-1.066-0.11-0.689-0.048-1.428 0.342-2.024M3.805 10.139c-0.349 0.766-0.342 1.766 0.206 2.436 0.115 0.209 0.277 0.402 0.476 0.535 0.157 0.23 0.42 0.35 0.67 0.45 0.975 0.395 2.209 0.151 2.873-0.693 0.848-0.875 0.869-2.432 0.007-3.305-0.568 0.668-0.947 1.511-1.62 2.095-0.301 0.257-0.787-0.228-0.521-0.523 0.495-0.652 0.958-1.334 1.318-2.070 0.034-0.211-0.211-0.263-0.367-0.3-1.161-0.383-2.577 0.232-3.043 1.375z"></path>
<path fill="#9fa8d9" d="M18.246 8.696c0.278-0.151 0.651-0.14 0.931-0.001-0.309-0.029-0.621-0.030-0.931 0.001z"></path>
<path fill="#6276c2" d="M3.805 10.139c0.466-1.143 1.882-1.758 3.043-1.375 0.156 0.037 0.401 0.089 0.367 0.3-0.36 0.736-0.823 1.418-1.318 2.070-0.266 0.295 0.22 0.78 0.521 0.523 0.673-0.584 1.051-1.428 1.62-2.095 0.861 0.873 0.84 2.43-0.007 3.305-0.663 0.844-1.898 1.088-2.873 0.693-0.25-0.1-0.513-0.22-0.67-0.45 0.328 0.172 0.636 0.395 1.011 0.456 1.125 0.377 2.387-0.312 2.875-1.351 0.291-0.814 0.272-1.839-0.338-2.506-0.412 0.546-0.757 1.143-1.207 1.661-0.161 0.185-0.321 0.443-0.601 0.431-0.319 0.026-0.662-0.379-0.428-0.662 0.485-0.679 0.965-1.366 1.336-2.116-0.062-0.051-0.121-0.106-0.19-0.146-0.949-0.279-2.083-0.061-2.724 0.734-0.548 0.72-0.726 1.751-0.35 2.589 0.051 0.123 0.094 0.25 0.14 0.376-0.548-0.67-0.555-1.67-0.206-2.436z"></path>
<path fill="#677bc6" d="M18.075 8.763c0.034-0.059 0.112-0.054 0.171-0.067 0.309-0.031 0.621-0.030 0.931-0.001 0.081 0.010 0.161 0.030 0.235 0.066 0.040 0.031 0.086 0.043 0.137 0.037 0.083-0.005 0.176 0.009 0.217 0.092 0.023 0.012 0.069 0.038 0.092 0.051 0.036 0.035 0.080 0.054 0.132 0.056 0.038 0.016 0.114 0.048 0.152 0.065 0.002 0.002 0.006 0.005 0.009 0.006l0.085 0.067c0.005 0.004 0.013 0.012 0.017 0.015 0.005 0.005 0.014 0.015 0.019 0.021 0.024 0.049 0.061 0.087 0.11 0.114 0.032 0.024 0.097 0.073 0.129 0.097 0.003 0.003 0.011 0.010 0.014 0.013 0.005 0.005 0.013 0.014 0.018 0.019 0.003 0.003 0.009 0.011 0.012 0.015 0.021 0.033 0.064 0.098 0.085 0.131 0.027 0.058 0.070 0.107 0.122 0.147 0.003 0.003 0.011 0.011 0.014 0.014 0.015 0.022 0.047 0.068 0.062 0.091 0.061 0.050 0.099 0.12 0.14 0.187 0 0.002 0.002 0.005 0.003 0.005 0.072 0.145 0.141 0.292 0.186 0.448 0 0.002 0.001 0.005 0.002 0.006 0.011 0.067 0.019 0.135 0.023 0.204 0.014 0.308 0.019 0.617 0.004 0.925-0.005 0.078-0.008 0.156-0.020 0.234-0.009 0.024-0.026 0.074-0.035 0.099 0.002 0.072-0.021 0.136-0.072 0.191-0.002 0.002-0.005 0.006-0.006 0.008-0.043 0.034-0.066 0.078-0.067 0.133-0.005 0.035-0.015 0.105-0.020 0.141-0 0.002-0.001 0.004-0.002 0.005-0.018 0.019-0.053 0.058-0.071 0.077-0.015 0.022-0.044 0.066-0.059 0.087-0.010 0.016-0.029 0.047-0.039 0.063-0.016 0.021-0.048 0.063-0.064 0.084-0.014 0.025-0.042 0.074-0.056 0.099-0.001 0.002-0.003 0.005-0.005 0.007l-0.046 0.062c-0.002 0.002-0.005 0.006-0.006 0.008-0.027 0.031-0.082 0.093-0.11 0.124-0.002 0.002-0.007 0.007-0.010 0.010s-0.007 0.007-0.010 0.009c-0.030 0.026-0.092 0.078-0.123 0.104-0.002 0.001-0.005 0.003-0.007 0.004l-0.060 0.023c-0.051 0.011-0.088 0.041-0.109 0.090-0.045 0.083-0.141 0.115-0.223 0.147-0.002 0-0.007 0.001-0.010 0.002-0.022 0.015-0.066 0.044-0.089 0.058l-0.020 0.051c-0.027-0-0.082-0.002-0.109-0.003-0.024 0.011-0.073 0.034-0.097 0.046l-0.066 0.040c-0.002 0.001-0.007 0.004-0.009 0.005l-0.076 0.034c-0.002 0-0.006 0.002-0.008 0.003l-0.053 0.016c-0.462 0.055-0.929 0.050-1.392 0.006-0.025-0.005-0.076-0.015-0.101-0.020-0.002-0-0.006-0.001-0.008-0.002-0.082-0.026-0.163-0.056-0.242-0.090-0.002-0.001-0.005-0.002-0.007-0.003-0.088-0.044-0.174-0.092-0.256-0.147-0.002-0.001-0.007-0.005-0.009-0.006l-0.092-0.068c-0.005-0.004-0.015-0.012-0.021-0.016-0.006-0.005-0.018-0.015-0.024-0.020-0.005-0.004-0.013-0.012-0.018-0.016l-0.072-0.069c-0.027-0.046-0.067-0.075-0.118-0.087l-0.066-0.021c-0.016-0.022-0.048-0.066-0.064-0.089-0.005-0.004-0.016-0.011-0.021-0.015-0.003-0.003-0.009-0.009-0.012-0.012-0.021-0.029-0.062-0.087-0.082-0.116-0.016-0.049-0.046-0.088-0.090-0.115l-0.068-0.069c-0.004-0.005-0.011-0.013-0.015-0.018-0.005-0.006-0.013-0.018-0.018-0.025-0.002-0.005-0.008-0.016-0.010-0.022l-0.037-0.103c-0.019-0.078-0.043-0.167-0.128-0.196l-0.026-0.015c-0.001-0.014-0.003-0.042-0.005-0.057-0.009-0.171-0.038-0.341-0.093-0.503 0.035 0.001 0.071 0.002 0.107 0.002 0.738 0.007 1.477-0.002 2.215 0.005 0.189-0.011 0.451 0.032 0.53-0.192 0.054-0.13 0.064-0.275 0.041-0.413-0.006-0.148-0.092-0.265-0.197-0.363-0.002-0.002-0.006-0.007-0.008-0.010s-0.005-0.008-0.006-0.011c-0.012-0.038-0.037-0.115-0.050-0.153-0.017-0.086-0.068-0.158-0.131-0.218-0.026-0.030-0.078-0.091-0.104-0.121-0.001-0.002-0.003-0.005-0.004-0.005-0.021-0.039-0.064-0.118-0.085-0.157-0-0.002-0.002-0.006-0.002-0.008l-0.013-0.073c0.024-0.062-0.026-0.126-0.092-0.095-0.035-0.042-0.062-0.092-0.066-0.147-0.013-0.023-0.040-0.068-0.053-0.091-0.072-0.073-0.139-0.168-0.136-0.275 0.021-0.060-0.045-0.142-0.096-0.071-0.002-0.031-0.006-0.092-0.008-0.123-0.015-0.077-0.042-0.083-0.082-0.018-0.005-0.025-0.014-0.077-0.019-0.103-0.007-0.11-0.010-0.22-0.002-0.329M18.116 8.872c0.412 0.663 0.759 1.366 1.165 2.034 0.124 0.182 0.15 0.422 0.086 0.631-0.11 0.252-0.418 0.312-0.666 0.319-0.596-0.002-1.191 0.005-1.786-0.003-0.161 0.002-0.34-0.001-0.467 0.116 0.151 0.376 0.374 0.724 0.664 1.009 0.84 0.8 2.285 0.811 3.161 0.060 0.329-0.31 0.623-0.691 0.725-1.14 0.395-1.082-0.177-2.413-1.232-2.875-0.492-0.292-1.11-0.25-1.65-0.152z"></path>
<path fill="#324db1" d="M4.221 9.61c0.641-0.795 1.775-1.013 2.724-0.734 0.069 0.040 0.128 0.095 0.19 0.146-0.371 0.75-0.851 1.437-1.336 2.116-0.234 0.283 0.108 0.688 0.428 0.662 0.279 0.012 0.44-0.245 0.601-0.431 0.45-0.518 0.796-1.114 1.207-1.661 0.61 0.668 0.629 1.692 0.338 2.506-0.488 1.039-1.75 1.728-2.875 1.351-0.375-0.060-0.683-0.284-1.011-0.456-0.199-0.134-0.361-0.327-0.476-0.535-0.046-0.126-0.089-0.252-0.14-0.376-0.376-0.838-0.198-1.869 0.35-2.589z"></path>
<path fill="#a5b3de" d="M19.412 8.761c0.067-0.061 0.113-0.049 0.137 0.037-0.051 0.006-0.096-0.006-0.137-0.037z"></path>
<path fill="#98a1d5" d="M17.957 8.844c0.030-0.020 0.089-0.061 0.119-0.081-0.008 0.109-0.005 0.219 0.002 0.329-0.058-0.073-0.094-0.159-0.121-0.248z"></path>
<path fill="#334fb5" d="M18.116 8.872c0.54-0.098 1.158-0.14 1.65 0.152 1.055 0.461 1.628 1.793 1.232 2.875-0.102 0.449-0.397 0.83-0.725 1.14-0.876 0.751-2.321 0.74-3.161-0.060-0.289-0.285-0.512-0.633-0.664-1.009 0.126-0.117 0.305-0.114 0.467-0.116 0.595 0.008 1.191 0.001 1.786 0.003 0.247-0.007 0.555-0.067 0.666-0.319 0.064-0.209 0.038-0.449-0.086-0.631-0.406-0.668-0.753-1.371-1.165-2.034z"></path>
<path fill="#9bacdb" d="M19.765 8.891c0.023 0.012 0.069 0.038 0.092 0.051-0.023-0.012-0.069-0.038-0.092-0.051z"></path>
<path fill="#9baadd" d="M19.858 8.942c0.075-0.052 0.119-0.033 0.132 0.056-0.051-0.002-0.095-0.020-0.132-0.056z"></path>
<path fill="#a4b6e3" d="M20.141 9.063c0.002 0.002 0.006 0.005 0.009 0.006-0.002-0.002-0.007-0.005-0.009-0.006z"></path>
<path fill="#d7def0" d="M17.18 9.101c0.149-0.022 0.262 0.114 0.326 0.233 0.246 0.461 0.541 0.895 0.79 1.355 0.015 0.192-0.214 0.308-0.383 0.298-0.484-0.005-0.968 0.007-1.451-0.005-0.208 0.011-0.354-0.211-0.292-0.401 0.168-0.579 0.488-1.156 1.009-1.479M16.229 10.727c0.285 0.243 0.695 0.092 1.035 0.132 0.317-0.037 0.7 0.106 0.963-0.126-0.325-0.514-0.587-1.073-0.972-1.545-0.588 0.28-0.868 0.944-1.027 1.539z"></path>
<path fill="#abbce4" d="M20.235 9.135c0.005 0.004 0.013 0.012 0.017 0.015-0.004-0.003-0.012-0.011-0.017-0.015z"></path>
<path fill="#9ba1d3" d="M18.096 9.195c0.040-0.065 0.067-0.058 0.082 0.018-0.021-0.005-0.062-0.013-0.082-0.018z"></path>
<path fill="#a4b6e0" d="M20.252 9.151c0.005 0.005 0.014 0.015 0.019 0.021-0.005-0.005-0.014-0.015-0.019-0.021z"></path>
<path fill="#a3b1dd" d="M16.229 10.727c0.159-0.596 0.439-1.259 1.027-1.539 0.385 0.473 0.647 1.031 0.972 1.545-0.263 0.232-0.647 0.089-0.963 0.126-0.341-0.039-0.75 0.112-1.035-0.132M16.332 10.729c0.313 0.121 0.655 0.045 0.982 0.060 0.266-0.018 0.548 0.052 0.801-0.057-0.266-0.494-0.54-0.986-0.865-1.445-0.511 0.288-0.831 0.87-0.919 1.442z"></path>
<path fill="#99aedb" d="M20.271 9.172c0.091-0.010 0.127 0.028 0.11 0.114-0.049-0.026-0.086-0.064-0.11-0.114z"></path>
<path fill="#6a7ec7" d="M16.332 10.729c0.087-0.572 0.407-1.154 0.919-1.442 0.325 0.459 0.599 0.951 0.865 1.445-0.253 0.109-0.535 0.039-0.801 0.057-0.327-0.015-0.669 0.060-0.982-0.060M16.457 10.729c0.52 0.021 1.042 0.014 1.563-0.005-0.267-0.454-0.53-0.907-0.805-1.355-0.361 0.366-0.777 0.814-0.758 1.36z"></path>
<path fill="#9ea7d8" d="M18.187 9.337c0.050-0.070 0.117 0.011 0.096 0.071-0.024-0.018-0.072-0.053-0.096-0.071z"></path>
<path fill="#9aacdb" d="M20.509 9.382c0.003 0.003 0.011 0.010 0.014 0.013-0.003-0.003-0.011-0.009-0.014-0.013z"></path>
<path fill="#3754ba" d="M16.457 10.729c-0.019-0.546 0.397-0.994 0.758-1.36 0.275 0.448 0.537 0.902 0.805 1.355-0.52 0.019-1.042 0.026-1.563 0.005z"></path>
<path fill="#99aedc" d="M20.524 9.395c0.005 0.005 0.013 0.014 0.018 0.019-0.005-0.005-0.013-0.014-0.018-0.019z"></path>
<path fill="#9baedb" d="M20.542 9.414c0.003 0.003 0.009 0.011 0.012 0.015-0.003-0.003-0.009-0.011-0.012-0.015z"></path>
<path fill="#90a6da" d="M20.64 9.561c0.077-0.043 0.166 0.078 0.122 0.147-0.051-0.039-0.094-0.088-0.122-0.147z"></path>
<path fill="#a1a7d6" d="M18.419 9.683c0.013 0.023 0.040 0.068 0.053 0.091-0.013-0.023-0.040-0.068-0.053-0.091z"></path>
<path fill="#98aadb" d="M20.761 9.707c0.003 0.003 0.011 0.011 0.014 0.014-0.003-0.003-0.011-0.011-0.014-0.014z"></path>
<path fill="#9cafdd" d="M20.776 9.722c0.015 0.022 0.047 0.068 0.062 0.091-0.015-0.022-0.047-0.068-0.062-0.091z"></path>
<path fill="#9ca4d7" d="M18.539 9.921c0.066-0.030 0.116 0.033 0.092 0.095-0.023-0.024-0.069-0.071-0.092-0.095z"></path>
<path fill="#9db0e0" d="M20.978 10c0 0.002 0.002 0.005 0.003 0.005-0-0.001-0.002-0.004-0.003-0.005z"></path>
<path fill="#acb1db" d="M18.644 10.090c0 0.002 0.002 0.006 0.002 0.008-0-0.002-0.002-0.006-0.002-0.008z"></path>
<path fill="#a9afdc" d="M18.732 10.255c0.001 0.001 0.003 0.004 0.004 0.005-0.001-0.002-0.003-0.005-0.004-0.005z"></path>
<path fill="#b5bee1" d="M12.886 10.679c0.29-0.482 1.039-0.562 1.375-0.093 0.222 0.318 0.283 0.79 0.025 1.105-0.254 0.325-0.731 0.334-1.093 0.216-0.411-0.238-0.562-0.821-0.307-1.227M13.491 10.402c-0.298 0.014-0.529 0.259-0.617 0.529-0.135 0.442 0.195 1.029 0.697 0.984 0.433 0.053 0.877-0.344 0.814-0.79 0.005-0.449-0.454-0.82-0.894-0.724z"></path>
<path fill="#7889ca" d="M13.491 10.402c0.44-0.096 0.899 0.275 0.894 0.724 0.063 0.446-0.381 0.843-0.814 0.79-0.502 0.044-0.832-0.543-0.697-0.984 0.088-0.27 0.319-0.515 0.617-0.529M13.438 10.504c-0.509 0.11-0.66 0.81-0.298 1.154 0.313 0.36 0.972 0.201 1.107-0.254 0.252-0.49-0.311-1.045-0.809-0.9z"></path>
<path fill="#9fa8da" d="M18.84 10.382c0.062 0.059 0.113 0.131 0.131 0.218-0.1 0.035-0.197-0.139-0.131-0.218z"></path>
<path fill="#abbde4" d="M21.167 10.453c0 0.002 0.001 0.005 0.002 0.006-0-0.002-0.001-0.005-0.002-0.006z"></path>
<path fill="#3751b3" d="M13.438 10.504c0.497-0.145 1.061 0.41 0.809 0.9-0.135 0.455-0.794 0.614-1.107 0.254-0.362-0.343-0.212-1.044 0.298-1.154z"></path>
<path fill="#dce2f1" d="M14.261 10.586c0.031 0.006 0.094 0.019 0.125 0.026 0.088 0.265 0.255 0.548 0.107 0.826-0.18 0.681-1.173 0.872-1.599 0.318-0.231-0.291-0.355-0.831-0.008-1.077-0.255 0.407-0.103 0.99 0.307 1.227 0.361 0.119 0.838 0.109 1.093-0.216 0.258-0.315 0.197-0.787-0.025-1.105z"></path>
<path fill="#9cafe0" d="M21.192 10.663c0.115 0.289 0.151 0.64 0.004 0.925 0.015-0.308 0.010-0.617-0.004-0.925z"></path>
<path fill="#b0b4df" d="M19.021 10.753c0.001 0.002 0.005 0.008 0.006 0.011-0.002-0.002-0.005-0.008-0.006-0.011z"></path>
<path fill="#a8addb" d="M19.028 10.764c0.002 0.002 0.006 0.007 0.008 0.010-0.002-0.002-0.006-0.007-0.008-0.010z"></path>
<path fill="#9ca4d6" d="M19.036 10.774c0.104 0.097 0.19 0.215 0.197 0.363-0.086-0.109-0.149-0.233-0.197-0.363z"></path>
<path fill="#a4aedb" d="M17.863 11.677c0.441-0.037 0.926 0.107 1.328-0.128-0.079 0.224-0.341 0.181-0.53 0.192-0.738-0.006-1.477 0.002-2.215-0.005 0.453-0.13 0.948-0.025 1.417-0.060z"></path>
<path fill="#98a0d5" d="M16.432 12.238c-0.085-0.144-0.221-0.345-0.093-0.503 0.055 0.162 0.083 0.332 0.093 0.503z"></path>
<path fill="#a5bae4" d="M21.14 11.921c0.009-0.025 0.026-0.074 0.035-0.099-0.009 0.024-0.026 0.074-0.035 0.099z"></path>
<path fill="#a0b5e2" d="M21.062 12.119c0.001-0.002 0.005-0.006 0.006-0.008-0.002 0.002-0.005 0.006-0.006 0.008z"></path>
<path fill="#9baedf" d="M20.995 12.252c0.001-0.054 0.023-0.099 0.067-0.133 0.040 0.079 0.017 0.123-0.067 0.133z"></path>
<path fill="#9da3d5" d="M16.463 12.309c0.084 0.029 0.109 0.118 0.128 0.196-0.096 0.027-0.16-0.119-0.128-0.196z"></path>
<path fill="#a6b8e0" d="M20.972 12.398c0-0.001 0.002-0.003 0.002-0.005-0 0.001-0.001 0.004-0.002 0.005z"></path>
<path fill="#9db5e3" d="M20.843 12.562c0.014-0.021 0.044-0.065 0.059-0.087-0.015 0.022-0.044 0.066-0.059 0.087z"></path>
<path fill="#aeb4dd" d="M16.627 12.608c0.002 0.005 0.008 0.016 0.010 0.022-0.002-0.005-0.008-0.016-0.010-0.022z"></path>
<path fill="#aab0db" d="M16.638 12.63c0.005 0.006 0.013 0.019 0.018 0.025-0.005-0.006-0.013-0.018-0.018-0.025z"></path>
<path fill="#9bade0" d="M20.739 12.71c0.016-0.021 0.048-0.063 0.064-0.084-0.016 0.021-0.048 0.063-0.064 0.084z"></path>
<path fill="#acb0db" d="M16.656 12.655c0.003 0.005 0.011 0.013 0.015 0.018-0.004-0.005-0.011-0.013-0.015-0.018z"></path>
<path fill="#a4abd9" d="M16.739 12.742c0.044 0.027 0.074 0.066 0.090 0.115-0.090 0.009-0.12-0.029-0.090-0.115z"></path>
<path fill="#99addf" d="M20.678 12.816c0.001-0.002 0.004-0.006 0.005-0.007-0.001 0.001-0.003 0.005-0.005 0.007z"></path>
<path fill="#a3b9e2" d="M20.625 12.887c0.002-0.002 0.005-0.006 0.006-0.008-0.001 0.002-0.005 0.006-0.006 0.008z"></path>
<path fill="#9ea6d6" d="M16.911 12.974c0.003 0.003 0.009 0.009 0.012 0.012-0.003-0.003-0.009-0.009-0.012-0.012z"></path>
<path fill="#9ca5d5" d="M16.923 12.986c0.005 0.004 0.016 0.011 0.021 0.015-0.005-0.004-0.016-0.011-0.021-0.015z"></path>
<path fill="#a3b6e0" d="M20.505 13.021c0.002-0.002 0.007-0.007 0.010-0.010-0.002 0.002-0.007 0.007-0.010 0.010z"></path>
<path fill="#a5add7" d="M16.945 13.001c0.016 0.022 0.048 0.067 0.064 0.089-0.016-0.022-0.048-0.066-0.064-0.089z"></path>
<path fill="#a8b9e1" d="M20.495 13.030c0.002-0.002 0.007-0.007 0.010-0.009-0.002 0.002-0.007 0.007-0.010 0.009z"></path>
<path fill="#9da5d4" d="M17.074 13.111c0.051 0.012 0.090 0.041 0.118 0.087-0.084 0.030-0.123 0.001-0.118-0.087z"></path>
<path fill="#a7b8df" d="M20.366 13.139c0.002-0.001 0.005-0.003 0.007-0.004-0.001 0.001-0.005 0.003-0.007 0.004z"></path>
<path fill="#96aadd" d="M20.196 13.252c0.021-0.049 0.057-0.079 0.109-0.090 0.011 0.086-0.025 0.116-0.109 0.090z"></path>
<path fill="#a4a9d6" d="M17.264 13.267c0.005 0.004 0.013 0.012 0.018 0.016-0.005-0.004-0.013-0.012-0.018-0.016z"></path>
<path fill="#a4aad7" d="M17.282 13.283c0.006 0.005 0.018 0.015 0.024 0.020-0.006-0.005-0.018-0.015-0.024-0.020z"></path>
<path fill="#a8afda" d="M17.306 13.304c0.005 0.004 0.015 0.012 0.021 0.016-0.005-0.004-0.015-0.012-0.021-0.016z"></path>
<path fill="#a2abd8" d="M17.42 13.388c0.002 0.001 0.007 0.005 0.009 0.006-0.002-0.002-0.007-0.005-0.009-0.006z"></path>
<path fill="#9fb1de" d="M19.963 13.401c0.002-0 0.007-0.001 0.010-0.002-0.002 0-0.007 0.001-0.010 0.002z"></path>
<path fill="#9fb2de" d="M19.875 13.459c0.022-0.014 0.067-0.043 0.089-0.058-0.022 0.015-0.066 0.044-0.089 0.058z"></path>
<path fill="#a9b2da" d="M17.686 13.541c0.002 0 0.005 0.002 0.007 0.003-0.002-0.001-0.005-0.002-0.007-0.003z"></path>
<path fill="#a1b1dd" d="M19.649 13.553c0.024-0.011 0.073-0.034 0.097-0.046-0.024 0.011-0.073 0.034-0.097 0.046z"></path>
<path fill="#a3b4df" d="M19.573 13.598c0.002-0.001 0.007-0.003 0.009-0.005-0.002 0.002-0.007 0.004-0.009 0.005z"></path>
<path fill="#aab2dd" d="M17.935 13.634c0.002 0.001 0.006 0.002 0.008 0.002-0.002-0-0.006-0.001-0.008-0.002z"></path>
<path fill="#a3b2dc" d="M19.489 13.635c0.002-0 0.006-0.002 0.008-0.003-0.002 0-0.006 0.002-0.008 0.003z"></path>
<path fill="#95a6d9" d="M18.044 13.657c0.463 0.044 0.93 0.049 1.392-0.006-0.432 0.165-0.959 0.163-1.392 0.006z"></path>
<path fill="#fff" d="M10.961 17.967c1.47-0.978 2.938-1.96 4.409-2.936 0.118 0.173 0.234 0.346 0.349 0.521 0.195 0.297 0.398 0.588 0.587 0.889-1.469 0.977-2.937 1.957-4.405 2.935 0.321 0.504 0.667 0.992 0.988 1.496-1.766 0.127-3.534 0.245-5.3 0.362 0.787-1.587 1.575-3.173 2.375-4.754 0.042 0.062 0.085 0.124 0.127 0.187 0.291 0.432 0.576 0.87 0.87 1.3z"></path>
</svg>
