<!-- Generated by IcoMoon.io -->
<svg version="1.1" xmlns="http://www.w3.org/2000/svg" width="16" height="24" viewBox="0 0 16 24">
<title>information--traffic-merges-left--g1</title>
<path fill="#0391ff" d="M0 0h15.465c0.245 0.374 0.154 0.835 0.167 1.254 0.001 7.22-0.003 14.439 0.002 21.659 0.003 0.382 0.062 0.893-0.359 1.087h-3.538c0.001-6.331-0.002-12.662 0.002-18.993 0.62-0.016 1.242 0.003 1.863-0.012-0.822-0.84-1.654-1.669-2.487-2.498-0.837 0.826-1.668 1.659-2.491 2.5 0.621 0.014 1.243-0.010 1.864 0.014-0.003 6.33 0.029 12.66 0.007 18.989h-7.305c0.007-2.203 0.013-4.407 0.023-6.61 0.067-1.344 0.687-2.643 1.654-3.575 0.812-0.801 1.604-1.622 2.42-2.418 0.448 0.432 0.88 0.88 1.322 1.317 0.001-1.177 0.004-2.356-0.002-3.534-1.172-0.003-2.345-0.009-3.517 0.004 0.422 0.454 0.886 0.867 1.3 1.328-0.845 0.846-1.693 1.69-2.535 2.541-1.047 1.075-1.73 2.512-1.866 4.008-0.023 2.312-0.033 4.626-0.048 6.939h-1.705c-0.043-0.081-0.129-0.205-0.236-0.141v-23.859z"></path>
<path fill="#fff" d="M15.465 0h0.256v24h-0.446c0.421-0.194 0.361-0.705 0.359-1.087-0.005-7.219-0.001-14.438-0.002-21.659-0.013-0.42 0.078-0.881-0.167-1.254z"></path>
<path fill="#fff" d="M8.624 4.997c0.823-0.84 1.654-1.673 2.491-2.5 0.833 0.829 1.665 1.658 2.487 2.498-0.621 0.015-1.243-0.004-1.863 0.012-0.003 6.331-0.001 12.662-0.002 18.993h-1.243c0.023-6.329-0.009-12.659-0.007-18.989-0.621-0.024-1.243 0-1.864-0.014z"></path>
<path fill="#fff" d="M5.090 9.184c1.172-0.013 2.345-0.007 3.517-0.004 0.006 1.178 0.003 2.357 0.002 3.534-0.442-0.437-0.874-0.886-1.322-1.317-0.816 0.796-1.608 1.617-2.42 2.418-0.967 0.932-1.587 2.231-1.654 3.575-0.010 2.203-0.017 4.407-0.023 6.61h-1.248c0.015-2.313 0.024-4.627 0.048-6.939 0.136-1.496 0.82-2.934 1.866-4.008 0.841-0.851 1.689-1.695 2.535-2.541-0.414-0.461-0.877-0.874-1.3-1.328z"></path>
<path fill="#e7f5ff" d="M0 23.859c0.107-0.064 0.193 0.060 0.236 0.141h-0.236v-0.141z"></path>
</svg>
