<!-- Generated by IcoMoon.io -->
<svg version="1.1" xmlns="http://www.w3.org/2000/svg" width="21" height="24" viewBox="0 0 21 24">
<title>information--pedestrians-crossing--g2</title>
<path fill="#0066b3" d="M10.227 0h0.48c0.51 0.14 0.82 0.584 1.053 1.026 3.080 5.332 6.201 10.646 9.201 16.022v6.034c-0.151 0.41-0.472 0.757-0.9 0.872-4.832-0.13-9.671-0.019-14.506-0.056-1.549 0.023-3.101-0.057-4.648 0.053-0.435-0.116-0.745-0.475-0.907-0.88v-5.97c0.202-0.511 0.505-0.973 0.777-1.447 2.903-5.030 5.809-10.057 8.71-15.086 0.151-0.291 0.435-0.471 0.74-0.568M10.31 0.563c-0.341 0.090-0.441 0.478-0.616 0.741-2.874 4.983-5.757 9.963-8.626 14.949-0.212 0.392-0.538 0.768-0.51 1.242-0.013 1.785-0.015 3.57 0.014 5.354-0.009 0.354 0.362 0.592 0.686 0.587 6.152-0.005 12.304 0.001 18.455-0.003 0.379 0.037 0.736-0.299 0.71-0.68 0.003-1.752-0.002-3.506-0.005-5.258 0.016-0.284-0.099-0.547-0.241-0.785-3.031-5.278-6.049-10.563-9.136-15.809-0.137-0.258-0.441-0.412-0.729-0.339z"></path>
<path fill="#0066b3" d="M10.303 0.761c0.282-0.112 0.529 0.108 0.647 0.345 3.025 5.166 5.998 10.36 8.98 15.55 0.15 0.257 0.314 0.528 0.299 0.838 0.003 1.752 0.013 3.505 0.004 5.257 0.024 0.287-0.242 0.527-0.524 0.493-6.117 0.012-12.236 0.008-18.353 0.010-0.252 0.015-0.602-0.107-0.594-0.408-0.039-1.784-0.028-3.569-0.018-5.352-0.016-0.441 0.298-0.786 0.492-1.154 2.844-4.948 5.701-9.888 8.555-14.831 0.162-0.252 0.264-0.568 0.514-0.748M9.973 4.924c-0.204 0.084-0.409 0.167-0.613 0.252 0.006 0.051 0.019 0.154 0.025 0.206 0.196 0.067 0.391 0.135 0.587 0.204 0.006 0.362 0.009 0.722 0 1.084-0.575 0.234-1.297 0.352-1.613 0.956-0.442 0.741-0.98 1.439-1.317 2.234-0.015 0.946 0.121 1.894 0.244 2.832 0.954-0.42 0.379-1.705 0.707-2.496 0.274-0.476 0.615-0.91 0.92-1.366-0.114 1.243-0.247 2.483-0.371 3.725 0.1 0.080 0.2 0.16 0.3 0.241-0.768 2.129-1.54 4.256-2.304 6.387 0.599 0.289 1.188 0.601 1.798 0.868 0.028-0.091 0.084-0.272 0.112-0.364-0.144-0.182-0.286-0.367-0.429-0.55 0.657-1.703 1.332-3.398 1.995-5.098 0.468 0.522 1.035 0.963 1.432 1.543 0.566 1.382 1.083 2.786 1.635 4.173 0.683-0.177 1.366-0.359 2.050-0.533-0.021-0.085-0.062-0.256-0.083-0.341-0.326-0.093-0.654-0.179-0.982-0.264-0.351-1.146-0.655-2.309-1.062-3.436-0.463-0.995-1.201-1.835-1.72-2.796 0.054-0.75 0.195-1.492 0.282-2.239 0.797 0.388 1.47 1.070 2.342 1.268 0.168 0.329 0.661 0.474 0.863 0.103 0.169-0.389-0.29-0.518-0.507-0.724-0.576-0.591-1.299-1.011-1.911-1.561-0.544-0.777-0.371-2.088-1.38-2.487 0.412-0.384 0.858-0.737 0.684-1.377 0.224-0.085 0.448-0.173 0.671-0.264-0.227-0.156-0.485-0.261-0.749-0.335-0.113-0.203-0.222-0.409-0.33-0.615-0.297 0.003-0.593 0.005-0.89 0.006-0.13 0.256-0.259 0.51-0.388 0.765M4.612 16.042c-0.18 0.375-0.358 0.751-0.53 1.131 0.863 0.001 1.726 0.002 2.589-0.001 0.134-0.376 0.27-0.752 0.407-1.129-0.822-0.003-1.643-0.001-2.465-0.001M13.817 16.042c0.112 0.378 0.227 0.756 0.344 1.132 1.051-0.001 2.102 0.002 3.154-0.002-0.124-0.376-0.248-0.752-0.374-1.128-1.042-0.005-2.082-0.002-3.123-0.002M2.56 20.437c-0.197 0.426-0.398 0.85-0.594 1.277 5.671 0.004 11.341 0.003 17.012 0.001-0.172-0.43-0.35-0.857-0.527-1.284-5.297 0.003-10.594-0.009-15.89 0.006z"></path>
<path fill="#fff" d="M10.31 0.563c0.288-0.073 0.592 0.081 0.729 0.339 3.086 5.245 6.105 10.531 9.136 15.809 0.143 0.238 0.257 0.501 0.241 0.785 0.003 1.752 0.008 3.506 0.005 5.258 0.026 0.381-0.33 0.717-0.71 0.68-6.151 0.004-12.303-0.002-18.455 0.003-0.325 0.005-0.696-0.233-0.686-0.587-0.028-1.785-0.026-3.57-0.014-5.354-0.027-0.474 0.299-0.85 0.51-1.242 2.87-4.987 5.753-9.966 8.626-14.949 0.175-0.263 0.276-0.651 0.616-0.741M10.303 0.761c-0.249 0.18-0.351 0.497-0.514 0.748-2.854 4.943-5.711 9.883-8.555 14.831-0.194 0.368-0.507 0.713-0.492 1.154-0.010 1.784-0.021 3.569 0.018 5.352-0.007 0.301 0.343 0.422 0.594 0.408 6.117-0.002 12.236 0.001 18.353-0.010 0.282 0.035 0.548-0.205 0.524-0.493 0.008-1.752-0.001-3.505-0.004-5.257 0.016-0.31-0.149-0.582-0.299-0.838-2.982-5.19-5.955-10.384-8.98-15.55-0.117-0.237-0.365-0.457-0.647-0.345z"></path>
<path fill="#fff" d="M9.973 4.924c0.129-0.255 0.258-0.509 0.388-0.765 0.297-0.001 0.593-0.003 0.89-0.006 0.108 0.206 0.217 0.412 0.33 0.615 0.264 0.074 0.522 0.179 0.749 0.335-0.223 0.091-0.446 0.179-0.671 0.264 0.174 0.64-0.272 0.994-0.684 1.377 1.009 0.399 0.836 1.71 1.38 2.487 0.612 0.549 1.334 0.969 1.911 1.561 0.217 0.206 0.676 0.335 0.507 0.724-0.201 0.371-0.695 0.226-0.863-0.103-0.872-0.198-1.546-0.88-2.342-1.268-0.087 0.746-0.227 1.488-0.282 2.239 0.519 0.961 1.257 1.802 1.72 2.796 0.407 1.128 0.711 2.291 1.062 3.437 0.328 0.085 0.656 0.171 0.982 0.264 0.021 0.085 0.062 0.256 0.083 0.341-0.684 0.174-1.367 0.356-2.050 0.533-0.552-1.388-1.069-2.791-1.635-4.173-0.396-0.58-0.963-1.021-1.432-1.543-0.663 1.7-1.338 3.395-1.995 5.098 0.143 0.183 0.285 0.368 0.429 0.55-0.028 0.091-0.084 0.272-0.112 0.364-0.61-0.267-1.199-0.579-1.798-0.868 0.764-2.131 1.535-4.258 2.304-6.387-0.1-0.081-0.2-0.161-0.3-0.241 0.124-1.242 0.257-2.482 0.371-3.725-0.305 0.456-0.647 0.89-0.92 1.366-0.328 0.791 0.246 2.076-0.707 2.496-0.124-0.938-0.259-1.885-0.244-2.832 0.337-0.795 0.875-1.493 1.317-2.234 0.315-0.604 1.038-0.722 1.613-0.956 0.009-0.362 0.006-0.722 0-1.084-0.196-0.069-0.391-0.137-0.587-0.204-0.006-0.052-0.019-0.155-0.025-0.206 0.204-0.085 0.409-0.168 0.613-0.252z"></path>
<path fill="#fff" d="M4.612 16.042c0.822 0 1.643-0.002 2.465 0.001-0.136 0.376-0.272 0.752-0.407 1.129-0.863 0.003-1.726 0.002-2.589 0.001 0.172-0.379 0.35-0.756 0.53-1.131z"></path>
<path fill="#fff" d="M13.817 16.042c1.041 0 2.081-0.003 3.123 0.002 0.126 0.375 0.25 0.751 0.374 1.128-1.051 0.004-2.102 0.001-3.154 0.002-0.116-0.376-0.232-0.754-0.344-1.132z"></path>
<path fill="#fff" d="M2.56 20.437c5.297-0.016 10.594-0.003 15.89-0.006 0.177 0.427 0.355 0.854 0.527 1.284-5.671 0.002-11.341 0.003-17.012-0.001 0.196-0.427 0.397-0.851 0.594-1.276z"></path>
<path fill="#00589a" opacity="0.86" d="M0.907 23.952c1.547-0.11 3.099-0.030 4.648-0.053 4.835 0.037 9.673-0.074 14.506 0.056l-0.135 0.046h-18.877l-0.141-0.048z"></path>
</svg>
