<?xml version="1.0" encoding="utf-8"?>
<!-- Generated by IcoMoon.io -->
<!DOCTYPE svg PUBLIC "-//W3C//DTD SVG 1.1//EN" "http://www.w3.org/Graphics/SVG/1.1/DTD/svg11.dtd">
<svg version="1.1" xmlns="http://www.w3.org/2000/svg" xmlns:xlink="http://www.w3.org/1999/xlink" width="24" height="24" viewBox="0 0 24 24">
<path fill="#174f90" d="M0 0h24v24h-24v-24M10.655 3.454c-0.036 1.31-0.013 2.622-0.044 3.934-2.785 1.451-5.575 2.892-8.368 4.331-0.206 0.113-0.42 0.217-0.6 0.37-0.235 0.257-0.073 0.772 0.284 0.806 2.858 0.071 5.723-0.030 8.579 0.082 0.16 2.126 0.343 4.25 0.5 6.377-0.732 0.329-1.48 0.626-2.206 0.967-0.439 0.173-0.292 0.953 0.194 0.922 0.871 0.050 1.746 0.052 2.618 0.096 0.152 0.161 0.306 0.32 0.462 0.476 0.154-0.173 0.307-0.344 0.461-0.516 0.978-0.036 1.957-0.012 2.933-0.085 0.328-0.22 0.335-0.828-0.090-0.936-0.797-0.318-1.603-0.616-2.407-0.917 0.148-2.136 0.352-4.268 0.528-6.402 2.888-0.068 5.78-0.019 8.67-0.037 0.161-0.182 0.39-0.421 0.262-0.685-0.060-0.206-0.274-0.29-0.44-0.39-2.796-1.487-5.61-2.938-8.418-4.404-0.068-1.315-0.005-2.634-0.049-3.95-0.013-0.808-0.844-1.45-1.632-1.304-0.638 0.055-1.217 0.617-1.237 1.267z"></path>
<path fill="#fbfbfc" d="M10.655 3.454c0.020-0.65 0.599-1.212 1.237-1.267 0.788-0.145 1.619 0.497 1.632 1.304 0.044 1.316-0.019 2.635 0.049 3.95 2.808 1.466 5.622 2.917 8.418 4.404 0.167 0.1 0.38 0.184 0.44 0.39 0.128 0.264-0.101 0.503-0.262 0.685-2.89 0.018-5.782-0.031-8.67 0.037-0.176 2.134-0.38 4.266-0.528 6.402 0.804 0.301 1.61 0.599 2.407 0.917 0.425 0.108 0.418 0.716 0.090 0.936-0.976 0.073-1.955 0.049-2.933 0.085-0.154 0.172-0.307 0.343-0.461 0.516-0.156-0.156-0.31-0.316-0.462-0.476-0.872-0.044-1.747-0.046-2.618-0.096-0.486 0.031-0.634-0.749-0.194-0.922 0.726-0.341 1.474-0.638 2.206-0.967-0.157-2.126-0.341-4.25-0.5-6.377-2.856-0.112-5.72-0.011-8.579-0.082-0.358-0.035-0.52-0.55-0.284-0.806 0.18-0.152 0.394-0.257 0.6-0.37 2.792-1.439 5.582-2.88 8.368-4.331 0.031-1.312 0.008-2.623 0.044-3.934z"></path>
</svg>
