<!-- Generated by IcoMoon.io -->
<svg version="1.1" xmlns="http://www.w3.org/2000/svg" width="24" height="24" viewBox="0 0 24 24">
<title>regulatory--no-bicycles-carts-or-hand-carts--g1</title>
<path fill="#d40303" d="M10.724 0h2.538c1.082 0.203 2.172 0.403 3.192 0.831 3.954 1.542 6.915 5.314 7.466 9.524-0.039 1.033-0.045 2.070-0.015 3.104l-0.014 0.137c-0.185 0.75-0.378 1.498-0.509 2.261-0.060 0.178-0.126 0.354-0.194 0.53-0.254 0.154-0.39 0.444-0.335 0.737-0.092 0.206-0.192 0.41-0.282 0.617-0.247-0.009-0.325 0.277-0.296 0.475-0.226 0.414-0.495 0.805-0.8 1.165-0.288 0.053-0.481 0.3-0.492 0.588-0.307 0.369-0.648 0.71-1.017 1.017-0.288 0.012-0.537 0.204-0.593 0.492-0.357 0.306-0.745 0.572-1.156 0.797-0.198-0.031-0.482 0.048-0.473 0.295-0.213 0.097-0.42 0.205-0.633 0.301-0.638 0.167-1.26 0.4-1.85 0.693-0.088 0.025-0.177 0.050-0.265 0.072-0.481 0.037-0.958 0.121-1.42 0.255l-0.146 0.015c-0.979-0.020-1.96-0.024-2.937 0.011-4.206-0.45-7.992-3.387-9.593-7.286-0.468-1.067-0.686-2.216-0.902-3.354v-2.538c0.229-1.303 0.514-2.61 1.096-3.808 1.717-3.793 5.516-6.436 9.629-6.931M11.006 3.076c-3.967 0.339-7.406 3.663-7.893 7.614-0.592 3.758 1.551 7.715 5.004 9.295 2.569 1.25 5.74 1.129 8.213-0.298 3.549-1.939 5.376-6.455 4.141-10.314-1.122-4.008-5.332-6.818-9.466-6.297z"></path>
<path fill="#fff" d="M11.006 3.076c4.133-0.521 8.344 2.289 9.466 6.297 1.235 3.859-0.592 8.375-4.141 10.314-2.473 1.428-5.644 1.548-8.213 0.298-3.453-1.581-5.596-5.537-5.004-9.295 0.486-3.951 3.926-7.275 7.893-7.614M10.053 4.867c-0.097 0.282 0.225 0.353 0.409 0.456-0.086 0.264-0.174 0.526-0.266 0.787-0.853-0.388-2.066 0.192-1.971 1.21 0.099 1.115 1.686 1.498 2.365 0.658 0.552-0.583 0.21-1.41-0.3-1.885 0.111 0.021 0.332 0.065 0.444 0.086-0.085-0.098-0.254-0.293-0.338-0.392 0.861-0.233 1.767-0.056 2.647-0.109-0.242 0.397-0.489 0.792-0.739 1.184-0.162-0.111-0.317-0.228-0.464-0.357-0.066-0.012-0.199-0.036-0.265-0.047 0.041 0.163 0.081 0.327 0.119 0.491-0.277-0.189-0.535-0.405-0.77-0.644-0.051 0.046-0.102 0.093-0.153 0.139 0.221 0.177 0.435 0.363 0.647 0.552-0.101 0.502 0.229 0.943 0.759 0.908-0.011 0.075-0.035 0.225-0.046 0.3 0.119-0.005 0.358-0.016 0.478-0.021-0.097-0.107-0.195-0.214-0.292-0.32 0.109-0.131 0.219-0.261 0.326-0.393 0.344 1.163 2.129 1.316 2.592 0.172 0.415-1.006-0.739-1.896-1.679-1.61-0.082-0.18-0.163-0.362-0.241-0.545 0.265-0.164 0.611-0.275 0.68-0.623-0.384 0.022-0.831-0.085-1.145 0.199 0.159 0.047 0.32 0.092 0.48 0.136-0.041 0.076-0.123 0.229-0.164 0.305-0.859 0.004-1.719 0.001-2.578 0.001 0.037-0.121 0.073-0.242 0.111-0.363-0.184-0.052-0.366-0.109-0.546-0.17 0.378-0.141 0.765 0.001 1.145 0.044-0.029-0.077-0.083-0.229-0.112-0.306-0.374 0.014-0.817-0.096-1.133 0.159M12.52 9.491c0.027 0.239 0.060 0.478 0.095 0.716-0.19 0.022-0.379 0.044-0.568 0.067 0.134 0.439 0.317 0.875 0.321 1.342-0.322-0.275-0.53-0.742-0.953-0.87-0.621 0.002-1.462 0.596-1.903-0.104-0.234-0.5-0.755-0.65-1.236-0.807-0.211 0.429-0.23 0.965-0.106 1.41 0.286 0.256 0.303-0.342 0.378-0.51 0.409 0.538 0.73 1.334 0.114 1.852 0.108 0.443 0.311 0.859 0.456 1.292 0.264-0.414-0.18-0.813-0.249-1.225 0.173-0.087 0.347-0.17 0.522-0.251 0.228 0.492 0.526 0.985 0.41 1.554 0.57-0.404-0.058-1.078-0.007-1.63 0.337-0.030 0.675-0.060 1.012-0.104 0.475 0.607-0.233 1.112-0.417 1.675 0.604-0.142 0.629-0.966 1.137-1.299 0.068 0.071 0.205 0.211 0.274 0.281-0.052 0.368-0.199 0.708-0.363 1.037 0.629-0.109 0.453-0.849 0.604-1.304-0.142-0.18-0.277-0.366-0.395-0.562 0.474 0.035 0.433 0.727 0.94 0.766-0.082-0.208-0.168-0.413-0.252-0.618 0.301 0.036 0.599 0.082 0.899 0.122-0.158 0.633 0.124 1.481 0.864 1.541 0.657 0.066 1.048-0.593 1.086-1.17 0.393 0.075 0.787 0.149 1.186 0.183-0.097-0.343-0.485-0.317-0.762-0.41 0.148-0.39 0.292-0.783 0.432-1.178 0.132-0.019 0.264-0.039 0.397-0.058-0.139-0.159-0.272-0.321-0.403-0.486-0.073 0.050-0.22 0.149-0.293 0.199-0.79-0.15-1.581-0.297-2.374-0.434 0.157-0.745-0.517-1.217-0.742-1.855-0.409 0.141-0.327 0.568-0.103 0.842M13.311 14.425c0.306 0.485 0.647 1.261 0.21 1.727-1.178 0.239-2.381 0.65-3.574 0.381-0.588 0.453-1.296 0.568-2.023 0.648 0.012 0.087 0.037 0.26 0.050 0.347 0.393-0.068 0.785-0.141 1.174-0.228-0.047 0.506 0.154 0.984 0.556 1.296-0.66-0.019-1.321-0.006-1.981-0.012-0.001 0.036-0.006 0.109-0.007 0.147 2.844-0.007 5.688 0.009 8.532-0.006-0.002-0.035-0.006-0.104-0.009-0.139-0.211 0.001-0.422 0.004-0.632 0.007-0.234-0.67-0.526-1.334-0.565-2.052-0.187-0.681-0.23-1.496-1-1.787-0.031-0.173-0.062-0.347-0.093-0.52-0.234-0.019-0.449 0.057-0.638 0.192z"></path>
<path fill="#fff" d="M12.505 6.874c0.245-0.384 0.485-0.772 0.734-1.155 0.032 0.093 0.098 0.28 0.132 0.373-0.407 0.261-0.662 0.673-0.786 1.133-0.020-0.087-0.060-0.262-0.080-0.351z"></path>
<path fill="#fff" d="M8.453 7.211c-0.011-0.829 0.986-1.21 1.664-0.89-0.168 0.395-0.417 0.755-0.823 0.935 0.52 0.317 0.703-0.547 1.002-0.843 0.307 0.367 0.519 0.91 0.19 1.337-0.511 0.837-2.065 0.495-2.033-0.538z"></path>
<path fill="#fff" d="M13.644 6.218c0.78-0.194 1.714 0.507 1.378 1.347-0.371 0.958-1.903 0.824-2.145-0.167 0.424-0.071 0.853-0.051 1.265 0.076 0.039-0.068 0.114-0.204 0.153-0.271-0.322-0.251-0.52-0.606-0.65-0.985z"></path>
<path fill="#fff" d="M12.848 7.226c0.070-0.393 0.298-0.719 0.63-0.935 0.124 0.274 0.245 0.55 0.354 0.829-0.325 0.066-0.655 0.093-0.985 0.106z"></path>
<path fill="#fff" d="M12.251 11.893c0.073-0.158 0.17-0.303 0.3-0.42 0.052 0.173 0.102 0.346 0.15 0.521-0.113-0.026-0.338-0.076-0.45-0.101z"></path>
<path fill="#fff" d="M13.469 12.446c0.145-0.104 0.415-0.057 0.482 0.119-0.055 0.218-0.596 0.116-0.482-0.119z"></path>
<path fill="#fff" d="M14.437 12.537c0.184 0.051 0.369 0.102 0.552 0.162-0.408 0.108-0.593 0.225-0.044 0.265-0.072 0.153-0.145 0.305-0.219 0.456-0.26-0.228-0.31-0.555-0.29-0.883z"></path>
<path fill="#fff" d="M14.196 12.96c0.147 0.17 0.287 0.344 0.429 0.52-0.149 0.065-0.297 0.129-0.446 0.192 0.002-0.238 0.007-0.475 0.017-0.711z"></path>
<path fill="#fff" d="M23.383 15.856c0.131-0.762 0.323-1.511 0.509-2.261-0.057 0.773-0.256 1.53-0.509 2.261z"></path>
<path fill="#fff" d="M22.855 17.123c-0.056-0.293 0.081-0.583 0.335-0.737-0.057 0.267-0.163 0.522-0.335 0.737z"></path>
<path fill="#fff" d="M12.64 16.635c0.366-0.065 0.732-0.126 1.101-0.173-0.021 0.643-0.577 1.23-0.127 1.886-0.857 0.532-2.014 0.085-2.991 0.249 0.553-0.368 0.703-1.084 0.405-1.664 0.41-0.077 0.826-0.145 1.245-0.102 0.311 0.327 0.382 0.773 0.448 1.201 0.045-0.006 0.134-0.017 0.179-0.024-0.086-0.459-0.174-0.916-0.26-1.374z"></path>
<path fill="#fff" d="M10.587 17.199c0.066-0.048 0.198-0.147 0.265-0.195 0.323 0.621 0.012 1.349-0.674 1.508-0.036-0.047-0.108-0.144-0.144-0.193-0.056 0.029-0.169 0.085-0.225 0.113-0.216-0.235-0.387-0.506-0.514-0.798 0.103-0.001 0.308-0.004 0.412-0.005 0.119 0.132 0.241 0.262 0.367 0.389 0.184-0.040 0.368-0.078 0.553-0.116-0.015-0.235-0.025-0.47-0.040-0.704z"></path>
<path fill="#fff" d="M9.38 17.321c0.101-0.147 0.379-0.090 0.394 0.095-0.017 0.271-0.557 0.167-0.394-0.095z"></path>
<path fill="#fff" d="M14.195 18.607c-0.123-0.484-0.357-1.107 0.201-1.409 0.238 0.399 0.458 0.808 0.625 1.242-0.261 0.118-0.545 0.155-0.827 0.167z"></path>
<path fill="#fff" d="M22.276 18.215c-0.029-0.198 0.048-0.484 0.296-0.475-0.057 0.182-0.157 0.346-0.296 0.475z"></path>
<path fill="#fff" d="M20.984 19.968c0.011-0.288 0.204-0.535 0.492-0.588-0.116 0.233-0.28 0.438-0.492 0.588z"></path>
<path fill="#fff" d="M19.374 21.478c0.056-0.288 0.305-0.48 0.593-0.492-0.153 0.214-0.358 0.377-0.593 0.492z"></path>
<path fill="#fff" d="M17.745 22.57c-0.010-0.246 0.275-0.326 0.473-0.295-0.129 0.138-0.293 0.236-0.473 0.295z"></path>
<path fill="#fff" d="M15.262 23.564c0.591-0.292 1.212-0.526 1.85-0.693-0.588 0.298-1.212 0.527-1.85 0.693z"></path>
<path fill="#fff" d="M13.577 23.891c0.463-0.134 0.939-0.218 1.42-0.255-0.463 0.139-0.939 0.228-1.42 0.255z"></path>
<path fill="#2f2f2f" d="M10.053 4.867c0.316-0.255 0.759-0.146 1.133-0.159 0.029 0.077 0.083 0.229 0.112 0.306-0.381-0.042-0.767-0.184-1.145-0.044 0.18 0.061 0.362 0.118 0.546 0.17-0.037 0.121-0.073 0.242-0.111 0.363 0.859 0 1.719 0.002 2.578-0.001 0.041-0.076 0.123-0.229 0.164-0.305-0.16-0.044-0.321-0.088-0.48-0.136 0.315-0.284 0.761-0.177 1.145-0.199-0.070 0.348-0.415 0.459-0.68 0.623 0.078 0.183 0.159 0.364 0.241 0.545 0.94-0.286 2.094 0.604 1.679 1.61-0.463 1.144-2.247 0.991-2.592-0.172-0.107 0.132-0.216 0.262-0.326 0.393 0.097 0.106 0.195 0.213 0.292 0.32-0.119 0.005-0.358 0.016-0.478 0.021 0.011-0.075 0.035-0.225 0.046-0.3-0.53 0.035-0.859-0.405-0.759-0.908-0.211-0.189-0.425-0.376-0.647-0.552 0.051-0.046 0.102-0.093 0.153-0.139 0.235 0.239 0.492 0.455 0.77 0.644-0.039-0.164-0.078-0.328-0.119-0.491 0.066 0.011 0.199 0.035 0.265 0.047 0.147 0.129 0.302 0.246 0.464 0.357 0.25-0.392 0.496-0.787 0.739-1.184-0.88 0.053-1.787-0.123-2.647 0.109 0.085 0.098 0.254 0.293 0.338 0.392-0.112-0.021-0.333-0.065-0.444-0.086 0.51 0.475 0.852 1.302 0.3 1.885-0.679 0.841-2.266 0.458-2.365-0.658-0.095-1.018 1.118-1.598 1.971-1.21 0.092-0.261 0.18-0.524 0.266-0.787-0.184-0.103-0.506-0.174-0.409-0.456M12.505 6.874c0.020 0.088 0.060 0.264 0.080 0.351 0.124-0.46 0.379-0.872 0.786-1.133-0.034-0.093-0.099-0.28-0.132-0.373-0.249 0.383-0.489 0.771-0.734 1.155M8.453 7.211c-0.032 1.033 1.522 1.375 2.033 0.538 0.328-0.427 0.117-0.97-0.19-1.337-0.3 0.296-0.482 1.16-1.002 0.843 0.407-0.18 0.655-0.54 0.823-0.935-0.678-0.32-1.675 0.061-1.664 0.89M13.644 6.218c0.131 0.379 0.328 0.734 0.65 0.985-0.039 0.067-0.114 0.203-0.153 0.271-0.412-0.127-0.841-0.147-1.265-0.076 0.242 0.991 1.774 1.124 2.145 0.167 0.336-0.839-0.598-1.541-1.378-1.347M12.848 7.226c0.33-0.012 0.66-0.040 0.985-0.106-0.109-0.28-0.23-0.556-0.354-0.829-0.332 0.216-0.561 0.542-0.63 0.935M11.535 7.134c-0.015 0.378 0.247 0.635 0.624 0.617-0.172-0.24-0.387-0.443-0.624-0.617M12.216 7.484c0.005 0.414 0.379-0.187 0 0z"></path>
<path fill="#f1f1f1" d="M11.535 7.134c0.238 0.174 0.453 0.377 0.624 0.617-0.377 0.019-0.639-0.239-0.624-0.617z"></path>
<path fill="#f5f5f5" d="M12.216 7.484c0.379-0.187 0.005 0.414 0 0z"></path>
<path fill="#030303" d="M12.52 9.491c-0.224-0.274-0.306-0.701 0.103-0.842 0.225 0.638 0.899 1.11 0.742 1.855 0.793 0.137 1.584 0.284 2.374 0.434 0.073-0.050 0.22-0.149 0.293-0.199 0.131 0.165 0.264 0.327 0.403 0.486-0.133 0.020-0.265 0.040-0.397 0.058-0.139 0.394-0.284 0.787-0.432 1.178 0.277 0.093 0.665 0.067 0.762 0.41-0.399-0.034-0.793-0.108-1.186-0.183-0.037 0.577-0.429 1.236-1.086 1.17-0.74-0.060-1.022-0.908-0.864-1.541-0.3-0.040-0.598-0.086-0.899-0.122 0.085 0.205 0.17 0.41 0.252 0.618-0.507-0.039-0.466-0.731-0.94-0.766 0.118 0.196 0.254 0.382 0.395 0.562-0.152 0.455 0.025 1.195-0.604 1.304 0.164-0.33 0.311-0.669 0.363-1.037-0.068-0.070-0.205-0.21-0.274-0.281-0.507 0.333-0.532 1.158-1.137 1.299 0.184-0.563 0.892-1.068 0.417-1.675-0.337 0.045-0.675 0.075-1.012 0.104-0.051 0.552 0.577 1.226 0.007 1.63 0.116-0.57-0.183-1.062-0.41-1.554-0.175 0.081-0.349 0.164-0.522 0.251 0.068 0.412 0.512 0.811 0.249 1.225-0.146-0.433-0.348-0.849-0.456-1.292 0.616-0.517 0.295-1.313-0.114-1.852-0.075 0.168-0.092 0.766-0.378 0.51-0.124-0.445-0.106-0.981 0.106-1.41 0.481 0.157 1.002 0.307 1.236 0.807 0.44 0.7 1.282 0.107 1.903 0.104 0.423 0.128 0.63 0.596 0.953 0.87-0.004-0.466-0.187-0.903-0.321-1.342 0.189-0.024 0.378-0.045 0.568-0.067-0.035-0.239-0.067-0.478-0.095-0.716M11.85 11.526c-0.277 0.441 0.471 0.119 0 0M12.251 11.893c0.112 0.025 0.337 0.075 0.45 0.101-0.048-0.175-0.098-0.348-0.15-0.521-0.129 0.117-0.226 0.262-0.3 0.42M13.469 12.446c-0.113 0.235 0.428 0.337 0.482 0.119-0.067-0.177-0.337-0.224-0.482-0.119M14.437 12.537c-0.020 0.328 0.030 0.655 0.29 0.883 0.073-0.152 0.147-0.303 0.219-0.456-0.55-0.040-0.364-0.157 0.044-0.265-0.183-0.060-0.368-0.111-0.552-0.162M13.368 12.724c-0.035 0.619 0.383 0.451 0.645 0.104-0.215-0.037-0.43-0.072-0.645-0.104M13.576 13.369c0.164 0.099 0.331 0.195 0.497 0.29-0.001-0.236-0.001-0.473-0.002-0.709-0.165 0.138-0.331 0.277-0.495 0.419M14.196 12.96c-0.010 0.236-0.015 0.474-0.017 0.711 0.149-0.062 0.297-0.127 0.446-0.192-0.142-0.175-0.282-0.349-0.429-0.52z"></path>
<path fill="#030303" d="M13.311 14.425c0.189-0.134 0.404-0.21 0.638-0.192 0.031 0.173 0.062 0.347 0.093 0.52 0.77 0.291 0.813 1.105 1 1.787 0.039 0.718 0.331 1.382 0.565 2.052 0.21-0.004 0.42-0.006 0.632-0.007 0.002 0.035 0.006 0.104 0.009 0.139-2.844 0.015-5.688-0.001-8.532 0.006 0.001-0.037 0.006-0.111 0.007-0.147 0.66 0.006 1.321-0.006 1.981 0.012-0.402-0.312-0.603-0.79-0.556-1.296-0.389 0.087-0.781 0.159-1.174 0.228-0.012-0.087-0.037-0.26-0.050-0.347 0.727-0.080 1.435-0.195 2.023-0.648 1.193 0.27 2.396-0.142 3.574-0.381 0.436-0.466 0.096-1.242-0.21-1.727M12.64 16.635c0.086 0.458 0.174 0.915 0.26 1.374-0.045 0.006-0.134 0.017-0.179 0.024-0.066-0.428-0.137-0.874-0.448-1.201-0.419-0.044-0.834 0.025-1.245 0.102 0.297 0.579 0.148 1.296-0.405 1.664 0.976-0.164 2.134 0.284 2.991-0.249-0.45-0.657 0.106-1.244 0.127-1.886-0.368 0.047-0.735 0.108-1.101 0.173M9.971 16.683c-0.448 0.492 0.824-0.111 0 0M10.587 17.199c0.015 0.234 0.025 0.469 0.040 0.704-0.185 0.037-0.369 0.076-0.553 0.116-0.126-0.127-0.247-0.257-0.367-0.389-0.103 0.001-0.308 0.004-0.412 0.005 0.127 0.292 0.297 0.563 0.514 0.798 0.056-0.029 0.169-0.085 0.225-0.113 0.036 0.048 0.108 0.146 0.144 0.193 0.686-0.159 0.997-0.888 0.674-1.508-0.067 0.048-0.199 0.147-0.265 0.195M9.38 17.321c-0.163 0.261 0.377 0.366 0.394 0.095-0.015-0.184-0.293-0.241-0.394-0.095M14.195 18.607c0.282-0.011 0.566-0.048 0.827-0.167-0.168-0.434-0.388-0.843-0.625-1.242-0.558 0.302-0.325 0.925-0.201 1.409z"></path>
<path fill="#cf8080" opacity="0.87" d="M23.92 10.355l0.080 0.22v3.119l-0.095-0.235c-0.030-1.033-0.024-2.070 0.015-3.104z"></path>
<path fill="#bcbcbc" d="M11.85 11.526c0.471 0.119-0.277 0.441 0 0z"></path>
<path fill="#f0f0f0" d="M13.368 12.724c0.215 0.032 0.43 0.067 0.645 0.104-0.262 0.347-0.68 0.515-0.645-0.104z"></path>
<path fill="#fbfbfb" d="M13.576 13.369c0.164-0.142 0.33-0.281 0.495-0.419 0.001 0.236 0.001 0.473 0.002 0.709-0.167-0.095-0.333-0.19-0.497-0.29z"></path>
<path fill="#a0a0a0" d="M9.971 16.683c0.824-0.111-0.448 0.492 0 0z"></path>
<path fill="#ce7c7c" opacity="0.87" d="M10.494 23.917c0.977-0.035 1.959-0.031 2.937-0.011l0.22 0.095h-3.369l0.211-0.083z"></path>
</svg>
