<?xml version="1.0" encoding="utf-8"?>
<!-- Generated by IcoMoon.io -->
<!DOCTYPE svg PUBLIC "-//W3C//DTD SVG 1.1//EN" "http://www.w3.org/Graphics/SVG/1.1/DTD/svg11.dtd">
<svg version="1.1" xmlns="http://www.w3.org/2000/svg" xmlns:xlink="http://www.w3.org/1999/xlink" width="24" height="24" viewBox="0 0 24 24">
<path fill="#e41408" d="M11.404 0h1.183c2.719 0.152 5.392 1.204 7.421 3.031 2.262 1.988 3.712 4.856 3.992 7.854v2.284c-0.281 2.978-1.721 5.826-3.958 7.812-1.89 1.703-4.33 2.772-6.862 3.019h-2.3c-2.966-0.28-5.803-1.71-7.788-3.931-1.879-2.062-2.975-4.795-3.092-7.579v-0.768c0.074-3.104 1.397-6.163 3.64-8.316 2.058-2.039 4.883-3.227 7.764-3.406M10.619 3.319c-3.041 0.458-5.732 2.646-6.818 5.52-0.75 1.921-0.787 4.108-0.114 6.056 0.734 2.153 2.341 3.989 4.375 5.005 1.637 0.829 3.535 1.126 5.347 0.833 3.336-0.491 6.236-3.082 7.11-6.337 0.539-1.916 0.403-4.015-0.386-5.844-0.907-2.142-2.706-3.89-4.876-4.733-1.464-0.58-3.084-0.744-4.638-0.5z"></path>
<path fill="#e41408" d="M5.833 9.914c0.971-0.088 1.952-0.006 2.927-0.037 0.32 0.020 0.67-0.058 0.97 0.077 0.334 0.577 0.436 1.265 0.823 1.817 0.464 0.755-0.175 1.573-0.098 2.375-0.324 0.006-0.649 0.005-0.973-0.004-0.013-0.28-0.022-0.558-0.029-0.836-1.135-0.001-2.27-0.002-3.406 0-0.006 0.28-0.014 0.559-0.028 0.839-0.326 0.007-0.654 0.006-0.98-0.006 0.025-0.568-0.184-1.099-0.271-1.65-0.064-0.551 0.396-0.937 0.545-1.43 0.172-0.377 0.23-0.836 0.521-1.144M5.994 10.315c-0.188 0.422-0.384 0.845-0.502 1.294 1.486-0.242 3.017-0.259 4.501 0.007-0.086-0.463-0.306-0.882-0.496-1.307-1.168-0.005-2.336-0.014-3.504 0.006M6.894 12.217c0 0.106 0 0.316 0 0.421 0.569 0.002 1.138 0.001 1.706 0.001 0.001-0.14 0.004-0.281 0.005-0.421-0.57-0.005-1.14-0.004-1.711-0.001z"></path>
<path fill="#f4b70d" d="M10.619 3.319c1.554-0.244 3.174-0.079 4.638 0.5 2.17 0.842 3.968 2.591 4.876 4.733 0.79 1.829 0.925 3.928 0.386 5.844-0.874 3.256-3.774 5.846-7.11 6.337-1.812 0.293-3.71-0.004-5.347-0.833-2.034-1.016-3.641-2.852-4.375-5.005-0.673-1.949-0.636-4.135 0.114-6.056 1.086-2.874 3.778-5.062 6.818-5.52M5.833 9.914c-0.29 0.307-0.349 0.767-0.521 1.144-0.149 0.493-0.608 0.88-0.545 1.43 0.088 0.551 0.296 1.082 0.271 1.65 0.326 0.012 0.654 0.013 0.98 0.006 0.013-0.28 0.022-0.559 0.028-0.839 1.135-0.002 2.27-0.001 3.406 0 0.007 0.278 0.016 0.557 0.029 0.836 0.324 0.008 0.649 0.010 0.973 0.004-0.077-0.802 0.563-1.62 0.098-2.375-0.388-0.552-0.49-1.24-0.823-1.817-0.3-0.134-0.649-0.056-0.97-0.077-0.974 0.031-1.956-0.050-2.927 0.037M14.262 10.052c-0.289 0.571-0.407 1.224-0.784 1.753-0.434 0.749 0.193 1.547 0.115 2.334 0.32 0.012 0.642 0.014 0.962 0.013 0.030-0.282 0.038-0.565 0.042-0.848 1.136-0.001 2.272 0 3.408 0 0.002 0.269-0.008 0.54 0.032 0.808 0.314 0.073 0.641 0.036 0.96 0.040 0.025-0.239 0.042-0.479 0.062-0.719 0.172-0.535 0.38-1.176 0.026-1.686-0.366-0.529-0.472-1.183-0.776-1.744-0.089-0.149-0.283-0.108-0.427-0.125-1.045 0-2.092 0.002-3.137 0-0.168 0.013-0.41-0.028-0.485 0.174z"></path>
<path fill="#f4b70d" d="M5.994 10.315c1.168-0.020 2.336-0.011 3.504-0.006 0.19 0.425 0.409 0.844 0.496 1.307-1.484-0.266-3.016-0.25-4.501-0.007 0.118-0.449 0.313-0.871 0.502-1.294z"></path>
<path fill="#f4b70d" d="M14.542 10.315c1.175-0.013 2.351-0.030 3.526 0.010 0.178 0.424 0.377 0.84 0.487 1.288-1.49-0.259-3.024-0.245-4.517-0.005 0.122-0.448 0.32-0.868 0.504-1.292z"></path>
<path fill="#f4b70d" d="M6.894 12.217c0.571-0.002 1.141-0.004 1.711 0.001-0.001 0.14-0.004 0.281-0.005 0.421-0.569 0-1.138 0.001-1.706-0.001 0-0.106 0-0.316 0-0.421z"></path>
<path fill="#f4b70d" d="M15.434 12.216c0.57 0 1.14 0 1.709 0 0.001 0.107 0.001 0.318 0.001 0.424-0.57 0-1.14 0-1.71 0 0-0.106 0-0.317 0-0.424z"></path>
<path fill="#1c1d20" d="M14.262 10.052c0.074-0.202 0.317-0.161 0.485-0.174 1.045 0.002 2.092 0 3.137 0 0.144 0.017 0.338-0.024 0.427 0.125 0.305 0.56 0.41 1.214 0.776 1.744 0.354 0.51 0.145 1.151-0.026 1.686-0.020 0.24-0.037 0.48-0.062 0.719-0.319-0.004-0.646 0.034-0.96-0.040-0.041-0.268-0.030-0.539-0.032-0.808-1.136 0-2.272-0.001-3.408 0-0.004 0.283-0.012 0.566-0.042 0.848-0.32 0.001-0.642-0.001-0.962-0.013 0.078-0.787-0.55-1.585-0.115-2.334 0.377-0.529 0.494-1.182 0.784-1.753M14.542 10.315c-0.184 0.425-0.382 0.845-0.504 1.292 1.493-0.24 3.026-0.254 4.517 0.005-0.11-0.448-0.31-0.864-0.487-1.288-1.175-0.040-2.351-0.023-3.526-0.010M15.434 12.216c0 0.107 0 0.318 0 0.424 0.57 0 1.14 0 1.71 0 0-0.106 0-0.317-0.001-0.424-0.569 0-1.139 0-1.709 0z"></path>
</svg>
