<?xml version="1.0" encoding="utf-8"?>
<!-- Generated by IcoMoon.io -->
<!DOCTYPE svg PUBLIC "-//W3C//DTD SVG 1.1//EN" "http://www.w3.org/Graphics/SVG/1.1/DTD/svg11.dtd">
<svg version="1.1" xmlns="http://www.w3.org/2000/svg" xmlns:xlink="http://www.w3.org/1999/xlink" width="24" height="24" viewBox="0 0 24 24">
<path fill="#c0111e" d="M11.37 0h1.18c2.988 0.15 5.914 1.417 8.004 3.568 2.11 2.119 3.346 5.054 3.446 8.039v0.763c-0.096 2.934-1.288 5.822-3.332 7.936-2.092 2.212-5.053 3.528-8.086 3.695h-1.13c-2.957-0.152-5.851-1.398-7.938-3.508-2.171-2.146-3.443-5.15-3.514-8.198v-0.587c0.067-3.050 1.339-6.058 3.511-8.206 2.065-2.096 4.93-3.325 7.859-3.502M6.142 4.229c0.592 0.596 1.187 1.189 1.78 1.783 0.742 0.742 1.487 1.481 2.224 2.227 1.147 1.134 2.28 2.281 3.425 3.418 0.234 0.235 0.467 0.47 0.701 0.704 0.797 0.793 1.59 1.591 2.387 2.384 0.194 0.194 0.385 0.394 0.574 0.595 0.035-0.064 0.103-0.188 0.138-0.251 0.25 0.851 1.033 1.349 1.615 1.963 0.238 0.288 0.522 0.533 0.781 0.802 1.52-2.022 2.207-4.642 1.862-7.148-0.312-2.464-1.626-4.78-3.576-6.316-1.762-1.418-4.040-2.165-6.299-2.1-2.012 0.040-4 0.734-5.611 1.938M2.504 14.062c0.497 2.342 1.902 4.476 3.859 5.855 1.888 1.357 4.276 1.984 6.587 1.747 1.774-0.158 3.487-0.844 4.91-1.909-1.259-1.244-2.502-2.503-3.757-3.75-0.57-0.574-1.142-1.146-1.716-1.716-0.751-0.761-1.517-1.508-2.264-2.274-1.655-1.638-3.296-3.29-4.943-4.937-0.316-0.313-0.63-0.629-0.944-0.943-1.687 2.231-2.333 5.196-1.732 7.927z"></path>
<path fill="#fff" d="M6.142 4.229c1.612-1.204 3.599-1.898 5.611-1.938 2.258-0.065 4.537 0.682 6.299 2.1 1.95 1.536 3.264 3.852 3.576 6.316 0.344 2.507-0.342 5.126-1.862 7.148-0.259-0.269-0.544-0.514-0.781-0.802-0.376-0.988-0.648-2.012-0.979-3.016 0.299-0.068 0.605-0.091 0.907-0.145 0.092-0.151 0.16-0.317 0.235-0.476-0.266-0.485-0.535-0.968-0.8-1.453-0.184 0.115-0.366 0.229-0.551 0.342-0.529-0.193-0.911 0.33-1.199 0.69-0.164 0.248-0.456 0.409-0.57 0.684-0.016 0.295 0.299 0.342 0.522 0.347 0.097 0.082 0.194 0.164 0.292 0.247-0.061 0.157-0.122 0.314-0.184 0.473-0.797-0.793-1.59-1.591-2.387-2.384-0.007-2.116-0.001-4.23-0.002-6.346-2.116-0.002-4.231 0.006-6.347-0.004-0.593-0.594-1.188-1.187-1.78-1.783M16.846 11.219c-0.395 0.179-0.415 0.811-0.032 1.015 0.336 0.215 0.792-0.094 0.785-0.473 0.038-0.382-0.396-0.736-0.752-0.542z"></path>
<path fill="#fff" d="M2.504 14.062c-0.601-2.731 0.044-5.696 1.732-7.927 0.314 0.314 0.629 0.63 0.944 0.943 0.010 2.386 0.008 4.771 0 7.157-0.494 0.328-0.304 0.984-0.29 1.481 0.239 0.228 0.569 0.316 0.865 0.44 0.004 0.455-0.022 0.91 0.012 1.364 0.006 0.244 0.226 0.472 0.476 0.451 0.431 0.012 0.863 0.022 1.292-0.008 0.216-0.014 0.343-0.241 0.367-0.434 0.042-0.397 0.014-0.798 0.037-1.198 0.38 0.214 0.731 0.514 1.178 0.566 0.631 0.077 1.334 0.103 1.891-0.257 0.17-0.103 0.336-0.215 0.512-0.307 0.082 0.521-0.203 1.253 0.299 1.612 0.457 0.065 0.924 0.031 1.384 0.028 0.25 0.020 0.467-0.203 0.48-0.444 0.037-0.461 0.008-0.924 0.013-1.386 0.136-0.046 0.27-0.092 0.406-0.138 1.255 1.247 2.498 2.506 3.757 3.75-1.423 1.066-3.137 1.751-4.91 1.909-2.311 0.236-4.699-0.39-6.587-1.747-1.957-1.379-3.362-3.512-3.859-5.855z"></path>
<path fill="#fff" d="M10.133 6.712c1.146 0 2.291 0 3.437 0 0 1.649 0 3.298 0 4.945-1.145-1.136-2.278-2.284-3.425-3.418-0.018-0.509-0.012-1.018-0.012-1.528z"></path>
<path fill="#fff" d="M10.123 12.014c0.748 0.766 1.513 1.513 2.264 2.274-0.751-0.001-1.504 0-2.255 0-0.004-0.758 0.008-1.516-0.010-2.274z"></path>
<path fill="#000" d="M7.921 6.012c2.116 0.010 4.231 0.001 6.347 0.004 0.001 2.116-0.005 4.23 0.002 6.346-0.234-0.234-0.467-0.469-0.701-0.704 0-1.648 0-3.296 0-4.945-1.146 0-2.291 0-3.437 0 0 0.51-0.006 1.019 0.012 1.528-0.737-0.746-1.482-1.486-2.224-2.227z"></path>
<path fill="#000" d="M5.18 7.078c1.646 1.646 3.288 3.299 4.943 4.937 0.018 0.758 0.006 1.516 0.010 2.274 0.751 0 1.504-0.001 2.255 0 0.574 0.57 1.146 1.142 1.716 1.716-0.136 0.046-0.27 0.092-0.406 0.138-0.005 0.462 0.024 0.925-0.013 1.386-0.013 0.241-0.23 0.464-0.48 0.444-0.46 0.004-0.926 0.037-1.384-0.028-0.502-0.359-0.217-1.091-0.299-1.612-0.176 0.092-0.342 0.204-0.512 0.307-0.557 0.36-1.26 0.334-1.891 0.257-0.448-0.053-0.798-0.353-1.178-0.566-0.023 0.4 0.005 0.8-0.037 1.198-0.024 0.193-0.151 0.42-0.367 0.434-0.43 0.030-0.862 0.020-1.292 0.008-0.251 0.020-0.47-0.208-0.476-0.451-0.034-0.455-0.008-0.91-0.012-1.364-0.296-0.125-0.626-0.212-0.865-0.44-0.013-0.497-0.204-1.153 0.29-1.481 0.008-2.386 0.010-4.771 0-7.157z"></path>
<path fill="#000" d="M16.846 11.219c0.356-0.193 0.791 0.161 0.752 0.542 0.007 0.379-0.449 0.688-0.785 0.473-0.383-0.204-0.362-0.836 0.032-1.015z"></path>
<path fill="#000" d="M17.796 12.305c0.185-0.113 0.367-0.227 0.551-0.342 0.265 0.485 0.534 0.968 0.8 1.453-0.076 0.16-0.143 0.325-0.235 0.476-0.302 0.054-0.608 0.077-0.907 0.145 0.331 1.003 0.604 2.028 0.979 3.016-0.582-0.614-1.366-1.112-1.615-1.963-0.035 0.062-0.103 0.187-0.138 0.251-0.188-0.202-0.379-0.401-0.574-0.595 0.061-0.158 0.122-0.316 0.184-0.473-0.097-0.083-0.194-0.166-0.292-0.247-0.223-0.005-0.538-0.052-0.522-0.347 0.114-0.275 0.406-0.436 0.57-0.684 0.288-0.36 0.67-0.883 1.199-0.69z"></path>
</svg>
