<!-- Generated by IcoMoon.io -->
<svg version="1.1" xmlns="http://www.w3.org/2000/svg" width="24" height="24" viewBox="0 0 24 24">
<title>regulatory--atvs-permitted--g1</title>
<path fill="#037863" d="M10.656 0h2.664c4.094 0.515 7.874 3.145 9.585 6.927 0.57 1.174 0.855 2.454 1.096 3.729v2.664c-0.515 4.094-3.145 7.876-6.927 9.585-1.175 0.57-2.455 0.856-3.729 1.096h-2.664c-4.094-0.513-7.876-3.145-9.585-6.928-0.57-1.174-0.855-2.454-1.096-3.728v-2.664c0.233-1.283 0.524-2.572 1.096-3.753 1.706-3.776 5.477-6.4 9.56-6.928M10.739 2.15c-3.361 0.436-6.383 2.776-7.658 5.914-1.254 2.956-0.909 6.522 0.898 9.178 2.49 3.869 7.876 5.463 12.056 3.507 4.351-1.823 6.837-7.056 5.459-11.578-1.193-4.588-6.069-7.783-10.754-7.021z"></path>
<path fill="#fff" d="M10.739 2.15c4.685-0.762 9.561 2.433 10.754 7.021 1.378 4.523-1.108 9.755-5.459 11.578-4.18 1.956-9.565 0.362-12.056-3.507-1.806-2.657-2.152-6.222-0.898-9.178 1.275-3.138 4.296-5.478 7.658-5.914M8.228 5.136c-0.436 1.010-0.688 2.092-1.050 3.132-0.247 0-0.494 0-0.741 0 0 0.609 0 1.218 0.001 1.827-0.714 0.228-1.452 0.395-2.134 0.719 0.071 0.079 0.212 0.236 0.283 0.315 1.071-0.119 2.117-0.406 3.185-0.545 0.343-0.096 0.552 0.234 0.745 0.454 0.97 1.211 1.945 2.418 2.912 3.632 0.43 0 0.86 0 1.29 0 0-0.1 0-0.298 0-0.397-0.377-0.001-0.756-0.003-1.133-0.006-1.063-1.452-2.131-2.899-3.212-4.337-0.266-0.436-0.785-0.16-1.168-0.087 0.425-1.44 0.796-2.894 1.232-4.331 0.635-0.043 1.278 0.025 1.912-0.046 0.411-0.223-0.11-0.447-0.362-0.4-0.585 0.018-1.186-0.067-1.76 0.069M8.737 7.361c-0.171 0.53-0.43 1.039-0.52 1.591 0.387 0.584 0.848 1.115 1.254 1.686 1.029-0.001 2.060-0.001 3.089 0 0-0.377 0-0.755 0.006-1.132-0.696-0.603-1.348-1.257-2.042-1.862-0.481-0.451-1.194-0.236-1.787-0.283M12.863 9.385c0 0.404 0 0.809 0.001 1.214 0.523 0.001 1.046 0 1.569 0.001-0.226 0.893-0.548 1.765-0.684 2.679 0.839-0.646 1.050-1.848 1.894-2.478 0.819-0.147 1.67-0.060 2.5-0.058 0.946 0.459 1.591 1.433 2.591 1.812-0.455-0.92-1.328-1.547-1.963-2.338-0.34-0.469-0.938-0.445-1.452-0.441-0.040-0.365-0.092-0.727-0.184-1.082-1.428 0.207-2.852 0.436-4.271 0.691M9.859 11.161c0.621 0.839 1.246 1.677 1.862 2.521 0.445-0.047 1.095 0.175 1.344-0.327 0.282-0.708 0.422-1.465 0.645-2.192-1.283 0-2.566 0.001-3.851-0.001M6.18 12.112c-0.13-0.011-0.262-0.022-0.393-0.032-0.040 0.071-0.119 0.214-0.158 0.284-0.3-0.008-0.499 0.165-0.572 0.445-0.148 0.067-0.296 0.139-0.44 0.215 0.031 0.099 0.061 0.198 0.093 0.297-0.148 0.128-0.293 0.258-0.434 0.391 0.049 0.068 0.146 0.205 0.193 0.273-0.101 0.092-0.201 0.184-0.302 0.276 0.031 0.125 0.062 0.25 0.093 0.376-0.058 0.236-0.021 0.47 0.1 0.681-0.001 0.257 0.086 0.497 0.252 0.692 0.108 0.209 0.248 0.4 0.425 0.558 0.345 0.319 0.773 0.691 1.275 0.601 0.114 0.092 0.229 0.183 0.344 0.273 0.093-0.069 0.187-0.14 0.28-0.208 0.266 0.161 0.535 0.126 0.751-0.093 0.137 0.019 0.273 0.037 0.411 0.056 0.040-0.097 0.119-0.29 0.158-0.387 0.119 0.032 0.239 0.062 0.358 0.094 0.061-0.154 0.121-0.307 0.175-0.462 0.157-0.062 0.312-0.13 0.466-0.198-0.029-0.103-0.060-0.205-0.089-0.308 0.15-0.126 0.297-0.255 0.443-0.388-0.054-0.072-0.162-0.218-0.215-0.29 0.080-0.060 0.241-0.18 0.322-0.24-0.035-0.133-0.071-0.265-0.107-0.397 0.078-0.266 0.049-0.527-0.168-0.721 0.026-0.089 0.053-0.178 0.079-0.265-0.026-0.062-0.079-0.186-0.105-0.247-0.071 0-0.211 0.001-0.282 0.003 0.019-0.083 0.058-0.248 0.076-0.33-0.053-0.067-0.16-0.2-0.212-0.266-0.114 0.017-0.228 0.033-0.34 0.050 0.018-0.129 0.036-0.258 0.055-0.387-0.155-0.039-0.312-0.078-0.468-0.115-0.286-0.293-0.706-0.319-1.068-0.462-0.086 0.056-0.172 0.111-0.257 0.169-0.234-0.2-0.524-0.111-0.739 0.062M16.46 12.148c-0.123-0.033-0.246-0.067-0.368-0.1-0.078 0.103-0.154 0.204-0.232 0.307-0.286 0.011-0.469 0.19-0.556 0.449-0.146 0.074-0.29 0.147-0.434 0.223 0.029 0.097 0.060 0.196 0.090 0.294-0.148 0.126-0.293 0.258-0.436 0.391 0.044 0.057 0.13 0.171 0.175 0.228-0.187 0.198-0.286 0.438-0.208 0.71-0.026 0.234 0 0.469 0.121 0.677-0.018 0.29 0.099 0.545 0.347 0.708-0.015 0.050-0.046 0.151-0.061 0.201 0.136 0.1 0.273 0.2 0.412 0.295 0.122 0.219 0.32 0.365 0.556 0.443 0.179 0.215 0.437 0.247 0.695 0.189 0.119 0.097 0.241 0.194 0.365 0.289 0.062-0.056 0.19-0.166 0.254-0.222 0.255 0.141 0.524 0.154 0.742-0.061 0.265 0.064 0.468-0.069 0.631-0.269 0.28-0.010 0.451-0.187 0.515-0.454 0.144-0.067 0.287-0.132 0.431-0.198-0.018-0.079-0.056-0.236-0.075-0.315 0.147-0.125 0.291-0.252 0.431-0.384-0.051-0.074-0.154-0.219-0.205-0.291 0.085-0.065 0.252-0.194 0.337-0.259-0.076-0.144-0.154-0.287-0.234-0.429 0.074-0.075 0.147-0.148 0.221-0.223-0.086-0.143-0.173-0.286-0.261-0.427 0.010-0.169 0.017-0.34 0.021-0.511-0.078-0.006-0.234-0.019-0.314-0.026-0.028-0.196-0.058-0.39-0.094-0.584-0.143 0.014-0.284 0.026-0.426 0.039 0.022-0.126 0.044-0.252 0.068-0.377-0.16-0.040-0.318-0.078-0.476-0.115-0.282-0.295-0.703-0.319-1.063-0.463-0.069 0.049-0.208 0.144-0.277 0.191-0.121-0.074-0.243-0.147-0.363-0.219-0.111 0.097-0.221 0.196-0.329 0.295z"></path>
<path fill="#fff" d="M6.423 13.212c0.963-0.393 2.127 0.456 2.034 1.494 0.003 1.122-1.415 1.869-2.333 1.217-1.050-0.601-0.866-2.358 0.3-2.711M6.44 13.663c-0.705 0.323-0.8 1.398-0.169 1.846 0.646 0.542 1.754 0.035 1.756-0.81 0.083-0.81-0.878-1.429-1.587-1.036z"></path>
<path fill="#fff" d="M16.568 13.254c0.924-0.458 2.135 0.287 2.138 1.318 0.1 1.126-1.26 1.991-2.234 1.414-1.099-0.52-1.046-2.297 0.096-2.732M16.701 13.654c-0.726 0.315-0.824 1.419-0.175 1.866 0.651 0.53 1.741 0.017 1.744-0.823 0.080-0.8-0.86-1.416-1.569-1.043z"></path>
<path fill="#030303" d="M8.228 5.136c0.574-0.136 1.175-0.051 1.76-0.069 0.252-0.047 0.773 0.176 0.362 0.4-0.634 0.071-1.276 0.003-1.912 0.046-0.436 1.437-0.807 2.891-1.232 4.331 0.383-0.072 0.902-0.348 1.168 0.087 1.081 1.437 2.149 2.884 3.212 4.337 0.377 0.003 0.756 0.004 1.133 0.006 0 0.099 0 0.297 0 0.397-0.43 0-0.86 0-1.29 0-0.967-1.214-1.942-2.421-2.912-3.632-0.193-0.219-0.402-0.549-0.745-0.454-1.068 0.139-2.114 0.426-3.185 0.545-0.071-0.079-0.212-0.236-0.283-0.315 0.681-0.323 1.419-0.491 2.134-0.719-0.001-0.609-0.001-1.218-0.001-1.827 0.247 0 0.494 0 0.741 0 0.362-1.040 0.615-2.123 1.050-3.132z"></path>
<path fill="#030303" d="M8.737 7.361c0.592 0.047 1.305-0.168 1.787 0.283 0.694 0.605 1.346 1.258 2.042 1.862-0.006 0.377-0.006 0.755-0.006 1.132-1.029-0.001-2.060-0.001-3.089 0-0.406-0.57-0.867-1.101-1.254-1.686 0.090-0.552 0.35-1.061 0.52-1.591z"></path>
<path fill="#030303" d="M12.863 9.385c1.419-0.255 2.844-0.484 4.271-0.691 0.093 0.355 0.144 0.717 0.184 1.082 0.515-0.004 1.113-0.028 1.452 0.441 0.635 0.791 1.508 1.418 1.963 2.338-1-0.379-1.645-1.353-2.591-1.812-0.83-0.001-1.681-0.089-2.5 0.058-0.843 0.63-1.054 1.831-1.894 2.478 0.136-0.914 0.458-1.785 0.684-2.679-0.523-0.001-1.046 0-1.569-0.001-0.001-0.405-0.001-0.81-0.001-1.214z"></path>
<path fill="#030303" d="M9.859 11.161c1.285 0.003 2.568 0.001 3.851 0.001-0.223 0.727-0.363 1.484-0.645 2.192-0.25 0.502-0.899 0.28-1.344 0.327-0.616-0.843-1.24-1.681-1.862-2.521z"></path>
<path fill="#030303" d="M6.18 12.112c0.215-0.173 0.505-0.262 0.739-0.062 0.085-0.058 0.171-0.114 0.257-0.169 0.362 0.143 0.782 0.169 1.068 0.462 0.155 0.037 0.312 0.076 0.468 0.115-0.019 0.129-0.037 0.258-0.056 0.387 0.112-0.017 0.226-0.033 0.34-0.050 0.053 0.067 0.16 0.2 0.212 0.266-0.018 0.082-0.057 0.247-0.076 0.33 0.071-0.001 0.211-0.003 0.282-0.003 0.026 0.061 0.079 0.184 0.105 0.247-0.026 0.087-0.053 0.176-0.079 0.265 0.216 0.194 0.246 0.455 0.168 0.721 0.036 0.132 0.072 0.264 0.107 0.397-0.080 0.060-0.241 0.18-0.322 0.24 0.053 0.072 0.161 0.218 0.215 0.29-0.146 0.133-0.293 0.262-0.443 0.388 0.029 0.103 0.060 0.205 0.089 0.308-0.154 0.068-0.309 0.136-0.466 0.198-0.054 0.155-0.114 0.308-0.175 0.462-0.119-0.032-0.239-0.062-0.358-0.094-0.039 0.097-0.118 0.29-0.158 0.387-0.137-0.018-0.273-0.036-0.411-0.056-0.215 0.219-0.484 0.254-0.751 0.093-0.093 0.068-0.187 0.139-0.28 0.208-0.115-0.090-0.23-0.182-0.344-0.273-0.502 0.090-0.929-0.282-1.275-0.601-0.176-0.158-0.316-0.348-0.425-0.558-0.166-0.196-0.254-0.436-0.252-0.692-0.121-0.211-0.158-0.445-0.1-0.681-0.031-0.126-0.062-0.251-0.093-0.376 0.101-0.092 0.201-0.184 0.302-0.276-0.047-0.068-0.144-0.205-0.193-0.273 0.141-0.133 0.286-0.264 0.434-0.391-0.032-0.099-0.062-0.198-0.093-0.297 0.144-0.076 0.291-0.148 0.44-0.215 0.072-0.28 0.272-0.454 0.572-0.445 0.039-0.071 0.118-0.214 0.158-0.284 0.13 0.010 0.262 0.021 0.393 0.032M6.423 13.212c-1.165 0.352-1.35 2.11-0.3 2.711 0.918 0.652 2.336-0.094 2.333-1.217 0.093-1.038-1.071-1.887-2.034-1.494z"></path>
<path fill="#030303" d="M16.46 12.148c0.108-0.1 0.218-0.198 0.329-0.295 0.121 0.072 0.243 0.146 0.363 0.219 0.069-0.047 0.208-0.143 0.277-0.191 0.359 0.144 0.781 0.168 1.063 0.463 0.158 0.037 0.316 0.075 0.476 0.115-0.024 0.125-0.046 0.251-0.068 0.377 0.141-0.012 0.283-0.025 0.426-0.039 0.036 0.194 0.067 0.388 0.094 0.584 0.079 0.007 0.236 0.021 0.314 0.026-0.004 0.171-0.011 0.341-0.021 0.511 0.087 0.141 0.175 0.284 0.261 0.427-0.074 0.075-0.147 0.148-0.221 0.223 0.080 0.141 0.158 0.284 0.234 0.429-0.085 0.065-0.252 0.194-0.337 0.259 0.051 0.072 0.154 0.218 0.205 0.291-0.14 0.132-0.284 0.259-0.431 0.384 0.019 0.079 0.057 0.236 0.075 0.315-0.144 0.067-0.287 0.132-0.431 0.198-0.064 0.266-0.234 0.444-0.515 0.454-0.164 0.2-0.366 0.333-0.631 0.269-0.218 0.215-0.487 0.203-0.742 0.061-0.064 0.056-0.191 0.166-0.254 0.222-0.123-0.094-0.246-0.191-0.365-0.289-0.258 0.058-0.516 0.026-0.695-0.189-0.236-0.078-0.434-0.223-0.556-0.443-0.139-0.096-0.276-0.196-0.412-0.295 0.015-0.050 0.046-0.151 0.061-0.201-0.248-0.162-0.365-0.418-0.347-0.708-0.121-0.208-0.147-0.443-0.121-0.677-0.078-0.272 0.021-0.512 0.208-0.71-0.044-0.057-0.13-0.171-0.175-0.228 0.143-0.133 0.287-0.265 0.436-0.391-0.031-0.099-0.061-0.197-0.090-0.294 0.144-0.076 0.289-0.15 0.434-0.223 0.087-0.259 0.271-0.438 0.556-0.449 0.078-0.103 0.154-0.204 0.232-0.307 0.122 0.033 0.244 0.067 0.368 0.1M16.568 13.254c-1.142 0.434-1.194 2.211-0.096 2.732 0.974 0.577 2.333-0.287 2.234-1.414-0.003-1.031-1.214-1.776-2.138-1.318z"></path>
<path fill="#030303" d="M6.44 13.663c0.709-0.393 1.67 0.226 1.587 1.036-0.003 0.845-1.11 1.353-1.756 0.81-0.631-0.448-0.536-1.523 0.169-1.846z"></path>
<path fill="#030303" d="M16.701 13.654c0.709-0.373 1.649 0.243 1.569 1.043-0.003 0.839-1.093 1.353-1.744 0.823-0.649-0.447-0.551-1.551 0.175-1.866z"></path>
</svg>
