<!-- Generated by IcoMoon.io -->
<svg version="1.1" xmlns="http://www.w3.org/2000/svg" width="24" height="24" viewBox="0 0 24 24">
<title>regulatory--stop--g7</title>
<path fill="#151515" opacity="0.95" d="M7.056 0h9.858l0.133 0.107-0.135 0.005c-3.205 0.042-6.412 0.002-9.618 0.019-0.181-0.019-0.318 0.106-0.437 0.223-2.179 2.19-4.368 4.371-6.552 6.556-0.265 0.22-0.162 0.591-0.184 0.89 0 3.036 0.023 6.074-0.011 9.11l-0.004 0.133-0.106-0.134v-9.854c2.336-2.366 4.688-4.72 7.056-7.055z"></path>
<path fill="#fff" d="M6.857 0.354c0.119-0.117 0.256-0.242 0.437-0.223 3.206-0.017 6.413 0.023 9.618-0.019 2.242 2.251 4.49 4.496 6.74 6.74 0.114 0.121 0.246 0.256 0.228 0.439 0.034 3.215-0.049 6.437 0.040 9.65-2.344 2.308-4.668 4.64-6.982 6.978-3.212-0.085-6.433-0.005-9.648-0.038-0.156 0.015-0.28-0.080-0.384-0.182-2.266-2.262-4.523-4.534-6.796-6.789 0.034-3.036 0.011-6.074 0.011-9.11 0.022-0.299-0.081-0.67 0.184-0.89 2.184-2.185 4.373-4.366 6.552-6.556M0.597 7.285c0.002 3.040 0.004 6.080-0.001 9.12-0.002 0.163-0.004 0.345 0.137 0.457 2.186 2.183 4.368 4.372 6.557 6.553 3.072-0.004 6.145 0.001 9.217-0.002 0.169 0.024 0.304-0.077 0.414-0.19 2.097-2.104 4.198-4.205 6.301-6.301 0.115-0.11 0.211-0.247 0.188-0.414 0.003-3.074-0.003-6.148 0.003-9.222-2.159-2.174-4.336-4.331-6.496-6.505-0.106-0.115-0.243-0.205-0.408-0.181-3.074-0.001-6.15 0.003-9.225-0.002-2.231 2.226-4.46 4.456-6.687 6.687z"></path>
<path fill="#fff" d="M1.072 7.486c2.134-2.143 4.272-4.281 6.415-6.415 2.94 0.006 5.88 0 8.82 0.003 0.201-0.032 0.345 0.117 0.476 0.244 2.045 2.062 4.11 4.104 6.155 6.166-0.003 3.013-0.006 6.025 0.001 9.038-2.040 2.065-4.107 4.103-6.15 6.165-0.133 0.129-0.279 0.279-0.483 0.246-2.94 0.002-5.881-0.003-8.822 0.002-2.141-2.135-4.282-4.27-6.413-6.416 0.006-3.011 0.004-6.022 0.001-9.033M8.041 2.549c-1.758 1.703-3.462 3.467-5.21 5.182-0.146 0.16-0.37 0.31-0.332 0.559-0.001 2.438 0.004 4.876-0.002 7.314 0.007 0.162-0.014 0.354 0.13 0.466 1.751 1.751 3.505 3.498 5.251 5.254 0.107 0.117 0.248 0.202 0.413 0.182 2.438 0.003 4.876-0.003 7.313 0.003 0.163-0.009 0.357 0.012 0.471-0.132 1.752-1.748 3.498-3.503 5.253-5.248 0.164-0.127 0.195-0.331 0.184-0.525-0.006-2.437 0.001-4.875-0.003-7.312 0.021-0.166-0.068-0.307-0.184-0.416-1.62-1.613-3.237-3.23-4.851-4.85-0.251-0.233-0.47-0.607-0.87-0.529-2.517 0.040-5.061-0.065-7.563 0.052z"></path>
<path fill="#fff" d="M11.528 5.334c0.2-0.302 0.724-0.285 0.906 0.029 0.257 0.503-0.122 1.167 0.265 1.618 0.057-0.283 0.065-0.575 0.136-0.856 0.212-0.362 0.952-0.244 0.911 0.235 0.143 1.811 0.144 3.634 0.334 5.441-0.023 0.338 0.477 0.561 0.593 0.18 0.154-0.937 0.273-1.953 0.892-2.717 0.238-0.305 0.647-0.331 0.995-0.236-0.42 1.143-0.398 2.372-0.271 3.566 0.058 0.966-0.067 2.018-0.706 2.789-0.407 0.53-1.085 0.794-1.429 1.378-0.316 0.666-0.161 1.421-0.185 2.129-1.283 0.016-2.567-0.005-3.851-0.010-0.144-1.083 0.259-2.283-0.331-3.272-0.502-0.588-0.935-1.303-0.89-2.107 0.088-2.002 0.15-4.006 0.306-6.004-0.025-0.273 0.19-0.562 0.485-0.496 0.349 0.116 0.273 0.569 0.385 0.847 0.187-0.485-0.005-1.025 0.174-1.51 0.141-0.343 0.693-0.391 0.882-0.072 0.099 0.27 0.111 0.564 0.184 0.842 0.334-0.529-0.058-1.218 0.215-1.774z"></path>
<path fill="#292929" d="M16.912 0.112l0.135-0.005c2.34 2.29 4.651 4.616 6.953 6.945v10.056l-0.080-0.167c-0.089-3.213-0.006-6.435-0.040-9.65 0.018-0.183-0.114-0.318-0.228-0.439-2.25-2.244-4.498-4.489-6.74-6.74z"></path>
<path fill="#c0111e" d="M0.597 7.285c2.227-2.231 4.456-4.461 6.687-6.687 3.075 0.005 6.151 0.001 9.225 0.002 0.165-0.024 0.302 0.066 0.408 0.181 2.16 2.174 4.337 4.331 6.496 6.505-0.006 3.074 0 6.148-0.003 9.222 0.023 0.167-0.073 0.304-0.188 0.414-2.103 2.096-4.204 4.197-6.301 6.301-0.11 0.113-0.245 0.214-0.414 0.19-3.072 0.003-6.145-0.002-9.217 0.002-2.189-2.181-4.371-4.37-6.557-6.553-0.141-0.112-0.139-0.294-0.137-0.457 0.005-3.040 0.003-6.080 0.001-9.12M1.072 7.486c0.003 3.011 0.005 6.022-0.001 9.033 2.131 2.146 4.272 4.281 6.413 6.416 2.941-0.005 5.882 0 8.822-0.002 0.204 0.033 0.35-0.117 0.483-0.246 2.043-2.062 4.11-4.1 6.15-6.165-0.007-3.013-0.004-6.025-0.001-9.038-2.045-2.062-4.11-4.104-6.155-6.166-0.131-0.127-0.275-0.276-0.476-0.244-2.94-0.003-5.88 0.003-8.82-0.003-2.143 2.134-4.281 4.272-6.415 6.415z"></path>
<path fill="#c0111e" d="M8.041 2.549c2.502-0.117 5.046-0.012 7.563-0.052 0.4-0.078 0.619 0.296 0.87 0.529 1.614 1.62 3.231 3.237 4.851 4.85 0.116 0.109 0.205 0.25 0.184 0.416 0.004 2.437-0.003 4.875 0.003 7.312 0.011 0.194-0.020 0.398-0.184 0.525-1.755 1.745-3.501 3.5-5.253 5.248-0.114 0.144-0.308 0.123-0.471 0.132-2.437-0.006-4.875 0-7.313-0.003-0.165 0.020-0.306-0.065-0.413-0.182-1.746-1.756-3.5-3.503-5.251-5.254-0.144-0.112-0.123-0.304-0.13-0.466 0.006-2.438 0.001-4.876 0.002-7.314-0.038-0.249 0.186-0.399 0.332-0.559 1.748-1.715 3.452-3.479 5.21-5.182M11.528 5.334c-0.273 0.556 0.119 1.245-0.215 1.774-0.073-0.278-0.085-0.572-0.184-0.842-0.189-0.319-0.741-0.271-0.882 0.072-0.179 0.485 0.013 1.025-0.174 1.51-0.112-0.278-0.036-0.731-0.385-0.847-0.295-0.066-0.51 0.223-0.485 0.496-0.156 1.998-0.218 4.002-0.306 6.004-0.045 0.804 0.388 1.519 0.89 2.107 0.59 0.989 0.187 2.189 0.331 3.272 1.284 0.005 2.568 0.026 3.851 0.010 0.024-0.708-0.131-1.463 0.185-2.129 0.344-0.584 1.022-0.848 1.429-1.378 0.639-0.771 0.764-1.823 0.706-2.789-0.127-1.194-0.149-2.423 0.271-3.566-0.348-0.095-0.757-0.069-0.995 0.236-0.619 0.764-0.738 1.78-0.892 2.717-0.116 0.381-0.616 0.158-0.593-0.18-0.19-1.807-0.191-3.63-0.334-5.441 0.041-0.479-0.699-0.597-0.911-0.235-0.071 0.281-0.079 0.573-0.136 0.856-0.387-0.451-0.008-1.115-0.265-1.618-0.182-0.314-0.706-0.331-0.906-0.029z"></path>
<path fill="#262626" d="M0.11 16.91c2.273 2.255 4.53 4.527 6.796 6.789 0.104 0.102 0.228 0.197 0.384 0.182 3.215 0.033 6.436-0.047 9.648 0.038l0.159 0.081h-10.042c-2.33-2.304-4.659-4.615-6.949-6.957l0.004-0.133z"></path>
</svg>
