<?xml version="1.0" encoding="utf-8"?>
<!-- Generated by IcoMoon.io -->
<!DOCTYPE svg PUBLIC "-//W3C//DTD SVG 1.1//EN" "http://www.w3.org/Graphics/SVG/1.1/DTD/svg11.dtd">
<svg version="1.1" xmlns="http://www.w3.org/2000/svg" xmlns:xlink="http://www.w3.org/1999/xlink" width="24" height="24" viewBox="0 0 24 24">
<path fill="#e41408" d="M11.383 0h1.22c2.77 0.16 5.49 1.253 7.53 3.145 2.191 1.98 3.589 4.795 3.866 7.733v2.302c-0.281 2.922-1.672 5.719-3.841 7.697-1.903 1.76-4.385 2.867-6.964 3.124h-2.326c-2.938-0.282-5.747-1.686-7.726-3.875-1.908-2.065-3.022-4.82-3.144-7.626v-0.788c0.077-3.073 1.375-6.101 3.581-8.248 2.059-2.068 4.901-3.277 7.802-3.463M6.492 5.149c0.65 0.672 1.336 1.309 1.973 1.993 0 0.884-0.001 1.77 0.001 2.654-1.073-1.134-2.203-2.214-3.3-3.324-1.406 1.74-2.12 4.021-1.93 6.252 0.172 2.344 1.343 4.589 3.156 6.080 1.556 1.302 3.575 2.038 5.603 2.038 2.012 0.012 4.021-0.697 5.578-1.97-0.425-0.419-0.835-0.851-1.27-1.26 0.524-0.233 0.8-0.962 0.415-1.432-0.506-0.572-1.36-0.462-1.998-0.787-0.278-0.164-0.215-0.602 0.058-0.738 0.544-0.28 1.442-0.17 1.554 0.548 0.052-0.004 0.155-0.011 0.208-0.014 0.78 0.793 1.571 1.577 2.358 2.363 1.481-1.837 2.182-4.277 1.878-6.62-0.254-2.108-1.307-4.112-2.906-5.512-1.715-1.535-4.052-2.339-6.347-2.197-1.825 0.095-3.605 0.786-5.030 1.926z"></path>
<path fill="#e41408" d="M11.315 12.624c0.881 0.001 1.762 0.001 2.642 0 0.515 0.485 0.991 1.009 1.516 1.484-0.449 0.006-0.97 0.082-1.252 0.474-0.198 0.256-0.182 0.599-0.077 0.89-0.281-0.328-0.6-0.618-0.887-0.938 0-0.088 0-0.264 0.001-0.352-0.115-0.014-0.344-0.043-0.46-0.058-0.467-0.527-0.985-1.006-1.484-1.501z"></path>
<path fill="#e41408" d="M14.5 15.821c0.491 0.214 1.027 0.28 1.529 0.456 0.223 0.070 0.427 0.278 0.388 0.529-0.019 0.242-0.236 0.379-0.427 0.485-0.494-0.491-0.973-1.001-1.489-1.47z"></path>
<path fill="#19408b" d="M6.492 5.149c1.426-1.14 3.205-1.831 5.030-1.926 2.294-0.142 4.632 0.662 6.347 2.197 1.6 1.399 2.652 3.403 2.906 5.512 0.304 2.344-0.397 4.783-1.878 6.62-0.787-0.786-1.578-1.57-2.358-2.363l0.264-0.020c-0.047-0.674-0.698-1.076-1.331-1.061-0.524-0.475-1.001-1-1.516-1.484 0.673 0.001 1.346 0.002 2.020 0 0.001-2.536 0.001-5.072 0-7.608-2.504-0.001-5.008-0.001-7.511 0-0.002 0.709-0.001 1.417-0.001 2.126-0.637-0.684-1.322-1.321-1.973-1.993z"></path>
<path fill="#19408b" d="M10.067 6.2c0.924 0.010 1.85-0.028 2.774 0.032 0.517 0.023 1.063 0.256 1.314 0.731 0.466 0.79 0.095 2-0.822 2.258-0.82 0.233-1.684 0.103-2.524 0.139 0 0.721 0.001 1.444 0 2.166-0.248 0.001-0.496 0.001-0.743 0-0.001-1.775-0.001-3.551 0-5.327M10.811 6.833c-0.001 0.635-0.001 1.268 0 1.903 0.558-0.006 1.116 0.016 1.674-0.012 0.306-0.020 0.644-0.070 0.865-0.305 0.44-0.461 0.257-1.391-0.406-1.531-0.704-0.104-1.423-0.037-2.134-0.055z"></path>
<path fill="#19408b" d="M3.236 12.725c-0.191-2.231 0.523-4.512 1.93-6.252 1.097 1.11 2.227 2.19 3.3 3.324-0.002 0.943-0.002 1.885 0 2.827 0.949 0.002 1.898 0.001 2.849 0 0.499 0.496 1.018 0.974 1.484 1.501-0.107 0.85 0.036 1.712-0.080 2.561-0.109 0.962-1.907 0.89-1.889-0.108-0.050-0.802-0.010-1.607-0.023-2.41-0.166 0-0.33 0-0.494 0 0.006 0.758-0.016 1.518 0.008 2.276 0.013 0.398 0.122 0.845 0.478 1.076 0.452 0.29 1.036 0.304 1.546 0.188 0.438-0.1 0.806-0.466 0.863-0.918 0.097-0.748 0.034-1.505 0.050-2.257 0.287 0.32 0.606 0.611 0.887 0.938 0.108 0.125 0.229 0.24 0.355 0.348 0.516 0.469 0.995 0.979 1.489 1.47-0.63 0.182-1.507 0.006-1.631-0.748-0.155 0.013-0.308 0.026-0.462 0.041 0.064 0.384 0.234 0.779 0.596 0.966 0.55 0.292 1.238 0.294 1.811 0.062 0.434 0.409 0.845 0.841 1.27 1.26-1.556 1.273-3.565 1.982-5.578 1.97-2.028 0-4.046-0.736-5.603-2.038-1.813-1.492-2.984-3.737-3.156-6.080M6.788 14.168c-0.001 1.181 0 2.362 0 3.542 0.694-0.026 1.4 0.071 2.084-0.070 0.587-0.114 0.923-0.846 0.643-1.368-0.114-0.235-0.361-0.348-0.584-0.454 0.22-0.133 0.442-0.31 0.481-0.582 0.118-0.487-0.289-0.973-0.769-1.028-0.616-0.076-1.237-0.029-1.855-0.041z"></path>
<path fill="#19408b" d="M7.284 14.585c0.446 0.013 0.902-0.041 1.342 0.061 0.414 0.131 0.431 0.811 0.012 0.948-0.439 0.12-0.904 0.041-1.354 0.061-0.001-0.358-0.001-0.714 0-1.070z"></path>
<path fill="#19408b" d="M7.284 16.073c0.5 0.020 1.026-0.067 1.505 0.107 0.456 0.191 0.391 0.949-0.086 1.067-0.466 0.097-0.947 0.031-1.418 0.048-0.001-0.407-0.001-0.815 0-1.222z"></path>
<path fill="#fff" d="M8.466 5.016c2.503-0.001 5.006-0.001 7.511 0 0.001 2.536 0.001 5.072 0 7.608-0.673 0.002-1.346 0.001-2.020 0-0.881 0.001-1.762 0.001-2.642 0-0.95 0.001-1.9 0.002-2.849 0-0.002-0.942-0.002-1.884 0-2.827-0.002-0.884-0.001-1.77-0.001-2.654 0-0.709-0.001-1.417 0.001-2.126M10.067 6.2c-0.001 1.776-0.001 3.552 0 5.327 0.247 0.001 0.494 0.001 0.743 0 0.001-0.722 0-1.445 0-2.166 0.84-0.036 1.704 0.094 2.524-0.139 0.917-0.258 1.288-1.469 0.822-2.258-0.251-0.475-0.797-0.708-1.314-0.731-0.924-0.060-1.85-0.023-2.774-0.032z"></path>
<path fill="#fff" d="M10.811 6.833c0.71 0.018 1.429-0.049 2.134 0.055 0.662 0.14 0.846 1.070 0.406 1.531-0.221 0.235-0.559 0.284-0.865 0.305-0.558 0.028-1.116 0.006-1.674 0.012-0.001-0.635-0.001-1.268 0-1.903z"></path>
<path fill="#fff" d="M6.788 14.168c0.618 0.012 1.24-0.035 1.855 0.041 0.48 0.055 0.887 0.541 0.769 1.028-0.040 0.272-0.262 0.449-0.481 0.582 0.223 0.106 0.47 0.218 0.584 0.454 0.28 0.522-0.056 1.254-0.643 1.368-0.684 0.14-1.391 0.043-2.084 0.070 0-1.181-0.001-2.362 0-3.542M7.284 14.585c-0.001 0.356-0.001 0.713 0 1.070 0.45-0.020 0.914 0.059 1.354-0.061 0.419-0.137 0.402-0.817-0.012-0.948-0.439-0.102-0.895-0.048-1.342-0.061M7.284 16.073c-0.001 0.407-0.001 0.815 0 1.222 0.472-0.017 0.953 0.049 1.418-0.048 0.478-0.118 0.542-0.876 0.086-1.067-0.479-0.174-1.004-0.086-1.505-0.107z"></path>
<path fill="#fff" d="M10.313 14.168c0.164 0 0.329 0 0.494 0 0.013 0.803-0.028 1.608 0.023 2.41-0.018 0.998 1.78 1.070 1.889 0.108 0.116-0.848-0.026-1.711 0.080-2.561 0.115 0.014 0.344 0.043 0.46 0.058-0.001 0.088-0.001 0.264-0.001 0.352-0.017 0.752 0.047 1.51-0.050 2.257-0.056 0.452-0.425 0.818-0.863 0.918-0.51 0.115-1.093 0.102-1.546-0.188-0.355-0.232-0.464-0.678-0.478-1.076-0.024-0.758-0.002-1.518-0.008-2.276z"></path>
<path fill="#fff" d="M14.221 14.582c0.282-0.392 0.803-0.468 1.252-0.474 0.632-0.016 1.284 0.386 1.331 1.061l-0.264 0.020c-0.053 0.004-0.156 0.011-0.208 0.014-0.112-0.719-1.010-0.828-1.554-0.548-0.272 0.136-0.336 0.574-0.058 0.738 0.638 0.325 1.492 0.215 1.998 0.787 0.385 0.469 0.109 1.199-0.415 1.432-0.572 0.232-1.261 0.229-1.811-0.062-0.362-0.187-0.533-0.582-0.596-0.966 0.154-0.014 0.307-0.028 0.462-0.041 0.124 0.754 1.001 0.93 1.631 0.748 0.191-0.106 0.408-0.242 0.427-0.485 0.040-0.251-0.164-0.46-0.388-0.529-0.502-0.176-1.038-0.242-1.529-0.456-0.126-0.108-0.247-0.223-0.355-0.348-0.106-0.292-0.121-0.635 0.077-0.89z"></path>
</svg>
