<!-- Generated by IcoMoon.io -->
<svg version="1.1" xmlns="http://www.w3.org/2000/svg" width="24" height="24" viewBox="0 0 24 24">
<title>regulatory--no-cargo-loading--g1</title>
<path fill="#c0111e" d="M11.026 0h1.92c1.4 0.194 2.804 0.48 4.087 1.096 3.906 1.74 6.589 5.705 6.967 9.94v1.892c-0.188 1.404-0.486 2.809-1.098 4.096-1.738 3.905-5.695 6.588-9.928 6.977h-1.921c-1.397-0.193-2.797-0.485-4.076-1.097-3.907-1.739-6.595-5.7-6.977-9.936v-1.904c0.36-4.248 3.054-8.225 6.967-9.968 1.274-0.612 2.669-0.894 4.058-1.094M6.143 4.229c0.592 0.598 1.186 1.193 1.783 1.784 0.733 0.731 1.453 1.477 2.206 2.191 1.129 1.166 2.291 2.3 3.437 3.451 0.23 0.236 0.464 0.47 0.701 0.702 0.798 0.797 1.591 1.598 2.394 2.389 0.192 0.2 0.382 0.402 0.564 0.61 0.056 0.178 0.167 0.239 0.334 0.185 0.343 0.578 0.911 0.99 1.381 1.463l-0.058-0.179c0.173 0.428 0.576 0.698 0.881 1.027 1.746-2.306 2.369-5.401 1.663-8.206-0.576-2.371-2.094-4.492-4.146-5.812-3.322-2.197-7.98-2.028-11.14 0.394M4.236 6.137c-1.728 2.281-2.36 5.336-1.687 8.117 0.596 2.581 2.314 4.87 4.616 6.178 3.282 1.926 7.68 1.648 10.694-0.676-1.26-1.248-2.502-2.514-3.768-3.756-0.56-0.58-1.134-1.146-1.708-1.712-0.749-0.761-1.51-1.508-2.258-2.267-1.651-1.643-3.293-3.295-4.944-4.938-0.313-0.318-0.628-0.634-0.946-0.946z"></path>
<path fill="#fff" d="M6.143 4.229c3.16-2.422 7.818-2.591 11.14-0.394 2.052 1.32 3.57 3.44 4.146 5.812 0.706 2.804 0.083 5.899-1.663 8.206-0.305-0.329-0.708-0.599-0.881-1.027-0.296-0.931-0.592-1.864-0.881-2.796 0.302-0.055 0.607-0.091 0.913-0.116 0.076-0.168 0.15-0.335 0.224-0.503-0.26-0.484-0.528-0.964-0.794-1.444-0.172 0.106-0.343 0.211-0.515 0.316-0.906-0.156-1.225 0.916-1.847 1.35 0.133 0.377 0.552 0.43 0.866 0.594-0.064 0.173-0.126 0.347-0.188 0.521-0.803-0.791-1.596-1.592-2.394-2.389-0.005-2.114 0-4.228-0.002-6.342-2.113-0.001-4.228 0.005-6.341-0.002-0.598-0.592-1.192-1.187-1.783-1.784M16.853 11.216c-0.616 0.253-0.236 1.333 0.413 1.044 0.647-0.242 0.239-1.358-0.413-1.044z"></path>
<path fill="#fff" d="M4.236 6.137c0.318 0.312 0.632 0.628 0.946 0.946 0.012 2.384-0.002 4.769 0.007 7.153-0.107 0.098-0.214 0.197-0.32 0.296-0.006 0.404-0.007 0.809-0.001 1.213 0.288 0.154 0.586 0.29 0.887 0.418 0.072 0.564-0.2 1.284 0.224 1.735 0.524 0.155 1.115 0.090 1.657 0.042 0.49-0.361 0.212-1.092 0.308-1.609 1.007 0.826 2.55 0.827 3.562 0.008 0.092 0.515-0.172 1.229 0.3 1.597 0.545 0.055 1.132 0.112 1.661-0.034 0.438-0.452 0.158-1.186 0.233-1.758 0.098-0.036 0.294-0.108 0.392-0.145 1.266 1.242 2.508 2.508 3.768 3.756-3.014 2.323-7.412 2.602-10.694 0.676-2.303-1.308-4.020-3.596-4.616-6.178-0.673-2.78-0.041-5.836 1.687-8.117z"></path>
<path fill="#fff" d="M10.133 6.713c1.146-0.001 2.291-0.001 3.437 0 0 1.648 0.001 3.295-0.001 4.943-1.146-1.151-2.308-2.285-3.437-3.451 0.001-0.497 0.001-0.995 0.001-1.492z"></path>
<path fill="#fff" d="M10.126 12.020c0.749 0.758 1.51 1.506 2.258 2.267-0.75 0.001-1.5 0.001-2.251 0-0.002-0.756 0.006-1.511-0.007-2.267z"></path>
<path fill="#fff" d="M17.227 15.356c0.071-0.4 0.329-0.026 0.334 0.185-0.167 0.054-0.277-0.007-0.334-0.185z"></path>
<path fill="#000" d="M7.926 6.013c2.113 0.007 4.228 0.001 6.341 0.002 0.002 2.114-0.002 4.228 0.002 6.342-0.236-0.232-0.47-0.466-0.701-0.702 0.002-1.648 0.001-3.295 0.001-4.943-1.146-0.001-2.291-0.001-3.437 0 0 0.497 0 0.995-0.001 1.492-0.752-0.714-1.472-1.46-2.206-2.191z"></path>
<path fill="#000" d="M5.182 7.082c1.651 1.643 3.293 3.295 4.944 4.938 0.013 0.756 0.005 1.511 0.007 2.267 0.751 0.001 1.501 0.001 2.251 0 0.574 0.566 1.147 1.133 1.708 1.712-0.098 0.037-0.294 0.109-0.392 0.145-0.074 0.572 0.205 1.306-0.233 1.758-0.529 0.145-1.116 0.089-1.661 0.034-0.472-0.368-0.208-1.082-0.3-1.597-1.012 0.818-2.555 0.817-3.562-0.008-0.096 0.517 0.181 1.248-0.308 1.609-0.542 0.048-1.133 0.113-1.657-0.042-0.425-0.451-0.152-1.171-0.224-1.735-0.301-0.127-0.599-0.264-0.887-0.418-0.006-0.404-0.005-0.809 0.001-1.213 0.107-0.1 0.214-0.198 0.32-0.296-0.010-2.384 0.005-4.769-0.007-7.153z"></path>
<path fill="#000" d="M16.853 11.216c0.652-0.314 1.060 0.802 0.413 1.044-0.649 0.289-1.028-0.791-0.413-1.044z"></path>
<path fill="#000" d="M17.832 12.282c0.172-0.104 0.343-0.21 0.515-0.316 0.266 0.48 0.534 0.96 0.794 1.444-0.074 0.168-0.149 0.335-0.224 0.503-0.306 0.025-0.611 0.061-0.913 0.116 0.289 0.932 0.584 1.865 0.881 2.796l0.058 0.179c-0.47-0.473-1.038-0.884-1.381-1.463-0.005-0.211-0.263-0.584-0.334-0.185-0.182-0.208-0.372-0.409-0.564-0.61 0.062-0.174 0.125-0.348 0.188-0.521-0.314-0.164-0.733-0.217-0.866-0.594 0.622-0.434 0.941-1.506 1.847-1.35z"></path>
</svg>
