<!-- Generated by IcoMoon.io -->
<svg version="1.1" xmlns="http://www.w3.org/2000/svg" width="14" height="24" viewBox="0 0 14 24">
<title>regulatory--pedestrians-push-button--g2</title>
<path fill="#fff" d="M1.28 0h11.823l0.077 0.038c-3.937-0.047-7.875-0.009-11.813-0.019l-0.088-0.019z"></path>
<path fill="#fff" d="M1.474 0.142c3.768-0.035 7.538-0.005 11.307-0.015 0.834-0.036 1.591 0.703 1.572 1.538 0.001 6.908 0.002 13.816-0.001 20.724 0.009 0.85-0.784 1.578-1.628 1.517-3.525-0.003-7.051-0.001-10.577-0.001-0.358-0.001-0.733 0.029-1.069-0.121-0.572-0.231-0.959-0.832-0.945-1.448 0.002-6.89 0-13.78 0.001-20.671-0.012-0.749 0.594-1.442 1.34-1.523M1.528 0.682c-0.476 0.057-0.86 0.503-0.85 0.982-0.002 6.765 0.001 13.53-0.001 20.295 0.003 0.292-0.033 0.606 0.115 0.871 0.172 0.338 0.549 0.546 0.926 0.531 3.688 0 7.375 0.001 11.063 0 0.376 0.012 0.752-0.199 0.92-0.539 0.145-0.264 0.11-0.575 0.113-0.863-0.001-6.622-0.001-13.244 0-19.866-0.004-0.305 0.036-0.635-0.126-0.91-0.181-0.345-0.577-0.54-0.96-0.516-3.733 0.011-7.467-0.017-11.199 0.014z"></path>
<path fill="#fff" d="M14.419 1.119l0.024 0.029v0.192c-0.069-0.048-0.115-0.17-0.024-0.221z"></path>
<path fill="#fff" d="M1.267 1.663c-0.006-0.239 0.216-0.423 0.447-0.409 3.688-0.002 7.376-0.002 11.064 0 0.228-0.012 0.454 0.169 0.439 0.407 0.008 1.225 0.002 2.45 0.003 3.675-3.985 0-7.97 0.002-11.955-0.001 0.001-1.224-0.006-2.448 0.003-3.672M5.417 1.714c-0.168 0.284 0.339 0.46 0.173 0.745-0.081-0.062-0.161-0.123-0.246-0.179-0.012 0.192 0.209 0.39 0.359 0.207 0.195-0.293-0.25-0.482-0.186-0.763 0.056 0.038 0.167 0.114 0.223 0.152 0.048-0.194-0.207-0.346-0.322-0.162M8.222 1.725c-0.074 0.246-0.088 0.536 0.017 0.775 0.131 0.134 0.309 0.015 0.342-0.141-0.027-0.011-0.083-0.034-0.111-0.045-0.028 0.041-0.084 0.122-0.112 0.163-0.108-0.228-0.077-0.484-0.045-0.724 0.085 0.023 0.169 0.046 0.255 0.067-0.019-0.171-0.262-0.273-0.346-0.093M9.412 1.631c-0.278 0.117-0.185 0.528-0.155 0.77 0.028 0.226 0.369 0.185 0.361-0.038 0.024-0.231 0.113-0.69-0.206-0.732M9.816 1.706c-0.181 0.285 0.326 0.464 0.173 0.754-0.083-0.061-0.165-0.122-0.251-0.179-0.014 0.193 0.214 0.391 0.36 0.201 0.187-0.292-0.247-0.475-0.194-0.757 0.079 0.049 0.159 0.098 0.239 0.146 0.020-0.183-0.203-0.339-0.328-0.165M10.295 1.7c-0.19 0.286 0.319 0.467 0.172 0.759-0.084-0.061-0.166-0.123-0.252-0.18-0.023 0.201 0.228 0.395 0.364 0.192 0.163-0.285-0.231-0.462-0.208-0.734 0.091 0.040 0.181 0.082 0.273 0.12-0.031-0.161-0.217-0.324-0.35-0.157M10.738 1.611c0 0.304 0 0.608 0 0.913 0.040 0 0.121 0 0.161 0 0-0.304 0-0.608 0-0.913-0.040 0-0.121 0-0.161 0M11.689 1.699c-0.092 0.222-0.076 0.479-0.033 0.711 0.018 0.158 0.241 0.197 0.33 0.075 0.032-0.124 0.023-0.254 0.027-0.381-0.059 0.001-0.117 0.002-0.176 0.004 0.032 0.121 0.115 0.271-0.024 0.36-0.117-0.225-0.074-0.49-0.028-0.729 0.079 0.029 0.158 0.058 0.238 0.085-0.022-0.164-0.216-0.272-0.336-0.126M5.793 1.672c0.27 0.218 0.069 0.603 0.155 0.898 0.273-0.199-0.106-0.714 0.248-0.881-0.128-0.059-0.268-0.052-0.403-0.017M6.221 2.577c0.113-0.049 0.141-0.169 0.177-0.274 0.030 0.001 0.089 0.001 0.119 0.001 0.031 0.109 0.063 0.225 0.175 0.277-0.038-0.33-0.118-0.654-0.194-0.978-0.239 0.249-0.191 0.654-0.277 0.975M6.825 1.633c-0.005 0.303-0.002 0.605-0.002 0.907 0.027 0 0.083-0.001 0.111-0.001 0.001-0.155 0.004-0.31 0.019-0.464 0.089 0.164 0.061 0.407 0.249 0.5-0.019-0.147-0.046-0.292-0.075-0.437 0.188-0.251 0.028-0.586-0.302-0.506M7.25 1.653c0.047 0.054 0.094 0.107 0.143 0.159-0.001 0.243-0.001 0.486-0.001 0.729 0.028 0 0.086-0.001 0.114-0.001 0.032-0.3-0.103-0.659 0.141-0.896-0.133-0.001-0.266 0.002-0.398 0.009M8.812 2.596c0.024-0.172 0.025-0.347 0.044-0.52 0.057 0.149 0.097 0.303 0.133 0.457 0.030 0.003 0.088 0.009 0.117 0.012-0.028-0.139-0.055-0.278-0.082-0.418 0.198-0.242 0.023-0.576-0.3-0.496 0.037 0.317-0.099 0.686 0.087 0.964M11.084 1.605c-0.027 0.311-0.011 0.623-0.015 0.935 0.028 0 0.085 0 0.113 0 0-0.17 0-0.339 0.004-0.508 0.078 0.186 0.095 0.412 0.256 0.552 0.024-0.326 0.020-0.653 0.004-0.98-0.163 0.088-0.084 0.294-0.112 0.441-0.070-0.153-0.090-0.35-0.25-0.44M2.362 2.040c0 0.859 0 1.718 0 2.577 0.68 0 1.36 0 2.040 0 0-0.859 0-1.718 0-2.577-0.68 0-1.36 0-2.040 0M5.369 2.631c0 0.040 0 0.121 0 0.161 2.219 0 4.439 0 6.658 0 0-0.040 0-0.121 0-0.161-2.219 0-4.439 0-6.658 0M6.79 2.997c0.041 0.316 0.058 0.636 0.127 0.948 0.129-0.143 0.113-0.349 0.155-0.525 0.034 0.176 0.062 0.354 0.114 0.526 0.168-0.293 0.116-0.657 0.167-0.981-0.163 0.064-0.126 0.259-0.159 0.398-0.035-0.14-0.034-0.301-0.148-0.405-0.037 0.139-0.065 0.28-0.096 0.42-0.017-0.126-0.031-0.253-0.045-0.379-0.029-0.001-0.087-0.001-0.116-0.002M7.897 3.059c-0.025 0.082-0.054 0.162-0.086 0.242 0.017 0.019 0.051 0.057 0.068 0.076 0.012 0.196-0.078 0.488 0.174 0.56-0.053-0.213-0.088-0.436-0.019-0.65-0.023-0.104-0.042-0.208-0.060-0.313-0.019 0.021-0.058 0.064-0.077 0.086M8.526 3.059c0.042 0.292-0.097 0.64 0.090 0.891 0.033-0.217 0.016-0.439 0.055-0.655 0.122 0.204-0.016 0.468 0.144 0.656 0.046-0.23 0.043-0.47-0.007-0.699-0.042-0.010-0.126-0.028-0.168-0.038-0.001-0.078-0.003-0.157-0.004-0.235-0.027 0.020-0.083 0.060-0.111 0.079M9.451 2.998c0.006 0.316-0.020 0.633 0.021 0.947 0.145-0.116 0.078-0.316 0.094-0.475 0.032-0.004 0.098-0.010 0.13-0.013 0.002-0.025 0.006-0.076 0.009-0.101-0.035-0.005-0.105-0.015-0.14-0.019-0.001-0.073-0.002-0.146-0.003-0.219 0.078-0.002 0.156-0.004 0.234-0.005-0.001-0.028-0.002-0.085-0.003-0.114-0.114 0-0.228 0-0.342 0M7.432 3.413c0.076-0.024 0.152-0.047 0.228-0.069-0.106 0.115-0.299 0.216-0.238 0.405 0.015 0.173 0.198 0.15 0.324 0.152-0.015-0.211 0.047-0.445-0.057-0.639-0.119-0.106-0.253 0.017-0.256 0.151M8.205 3.877c0.137 0.112 0.223-0.083 0.25-0.192-0.070 0.037-0.139 0.076-0.206 0.118-0.015-0.161-0.015-0.323 0.008-0.482 0.030 0.034 0.091 0.103 0.121 0.137 0.019-0.036 0.056-0.107 0.075-0.142-0.345-0.303-0.433 0.373-0.248 0.561M9.897 3.233c-0.154 0.164-0.134 0.457-0.024 0.641 0.335 0.15 0.365-0.714 0.024-0.641M10.244 3.238c-0.001 0.214 0 0.428-0.002 0.643 0.028 0.007 0.083 0.021 0.111 0.027 0.004-0.164 0.007-0.329 0.012-0.493 0.049-0.056 0.097-0.112 0.142-0.171-0.088-0.002-0.175-0.004-0.263-0.005M7.209 4.134c0.058 0.318 0.096 0.641 0.186 0.952 0.18-0.289 0.164-0.659 0.221-0.987-0.193 0.104-0.139 0.36-0.198 0.539-0.033-0.163-0.063-0.328-0.093-0.492-0.029-0.003-0.088-0.009-0.117-0.012M8.123 4.199c0.001 0.279 0.001 0.558 0 0.838 0.028 0.001 0.085 0.003 0.113 0.004 0.009-0.2-0.038-0.415 0.065-0.598 0.031 0.198 0.028 0.398 0.028 0.598 0.028-0.001 0.084-0.003 0.112-0.003 0.003-0.217 0.006-0.435-0.037-0.649-0.042-0.006-0.127-0.018-0.169-0.024 0.001-0.081 0.001-0.161 0.001-0.242-0.038 0.025-0.076 0.050-0.114 0.076M8.592 4.137c-0.055 0.249 0.249-0.055 0 0M9.215 4.194c-0.001 0.282-0.001 0.564 0 0.846 0.028-0.001 0.085-0.002 0.113-0.002 0.001-0.304 0.001-0.609 0-0.914-0.028 0.018-0.085 0.053-0.113 0.070M7.717 4.895c0.021 0.199 0.275 0.194 0.307 0.001-0.063 0.010-0.126 0.020-0.188 0.032-0.009-0.036-0.026-0.107-0.035-0.142 0.079-0.006 0.158-0.012 0.238-0.019-0.029-0.134-0.013-0.299-0.124-0.397-0.265-0.020-0.229 0.351-0.198 0.525M8.871 4.415c-0.086 0.19-0.115 0.477 0.053 0.63 0.149 0.055 0.205-0.125 0.179-0.238-0.053 0.052-0.105 0.104-0.156 0.156-0.019-0.152-0.023-0.305-0.020-0.458 0.074 0.024 0.147 0.048 0.221 0.071-0.031-0.121-0.148-0.3-0.276-0.161M9.47 4.923c0.040 0.182 0.288 0.152 0.285-0.037-0.060 0.014-0.121 0.028-0.181 0.042-0.005-0.037-0.017-0.11-0.023-0.147 0.077-0.003 0.155-0.006 0.232-0.010-0.035-0.134 0.004-0.371-0.172-0.408-0.225 0.063-0.173 0.382-0.141 0.559M9.854 4.424c-0.104 0.191 0.142 0.337 0.169 0.521-0.069-0.016-0.138-0.033-0.207-0.049 0.011 0.039 0.032 0.118 0.043 0.157 0.391 0.031 0.228-0.395 0.048-0.557 0.057-0.004 0.171-0.011 0.228-0.015-0.078-0.063-0.201-0.186-0.281-0.057M8.577 4.383c0 0.218 0 0.436 0 0.654 0.028 0.001 0.084 0.002 0.112 0.003 0.001-0.219 0.001-0.438 0.001-0.657-0.028 0-0.085 0-0.113 0z"></path>
<path fill="#fff" d="M6.928 1.755c0.044 0.008 0.133 0.024 0.177 0.032-0.015 0.106-0.042 0.212-0.143 0.269-0.015-0.1-0.025-0.201-0.034-0.301z"></path>
<path fill="#fff" d="M2.907 2.915c0.169-0.096 0.329-0.229 0.528-0.253 0.159 0.071 0.159 0.28 0.255 0.408 0.103 0.095 0.219 0.174 0.316 0.276-0.181-0.015-0.357-0.073-0.511-0.169-0.015 0.070-0.030 0.139-0.046 0.209 0.178 0.268 0.254 0.582 0.324 0.892-0.056 0.019-0.112 0.038-0.168 0.057-0.078-0.238-0.133-0.491-0.29-0.693-0.108 0.241-0.196 0.49-0.293 0.736-0.032-0.023-0.096-0.070-0.128-0.093 0.139-0.438 0.185-0.89 0.225-1.344-0.13 0.14-0.065 0.358-0.195 0.495-0.021-0.173-0.019-0.347-0.017-0.52z"></path>
<path fill="#fff" d="M1.235 5.638c3.991 0 7.982 0 11.973 0 0 2.345 0 4.689 0 7.034-3.991 0-7.982 0-11.973 0 0-2.345 0-4.689 0-7.034M2.698 5.795c0.068 0.146 0.124 0.303 0.248 0.412-0.038-0.16-0.11-0.308-0.18-0.454-0.017 0.010-0.051 0.031-0.068 0.042M3.329 5.745c0 0.143 0 0.286 0 0.43 0.027 0 0.081 0 0.107 0 0-0.143 0-0.286 0-0.43-0.027 0-0.081 0-0.107 0M3.858 6.208c0.149-0.123 0.215-0.311 0.24-0.497-0.116 0.145-0.196 0.316-0.24 0.497M1.965 5.866c0.105 0.142 0.232 0.268 0.374 0.374-0.050-0.178-0.198-0.322-0.374-0.374M4.479 6.223c0.163-0.089 0.306-0.218 0.386-0.388-0.159 0.093-0.304 0.219-0.386 0.388M7.112 5.879c-0.237 0.173-0.158 0.561-0.104 0.812 0.095 0.214 0.384 0.063 0.354-0.14 0.017-0.218 0.088-0.707-0.251-0.672M8.129 5.877c-0.061 0.048-0.024 0.162 0.049 0.176 0.117-0.012 0.061-0.237-0.049-0.176M9.262 5.932c-0.199 0.286 0.299 0.469 0.172 0.768-0.087-0.060-0.173-0.121-0.263-0.177-0.002 0.181 0.196 0.38 0.354 0.214 0.203-0.285-0.212-0.482-0.186-0.758 0.086 0.041 0.173 0.082 0.26 0.121-0.017-0.163-0.201-0.322-0.337-0.168M10.655 5.874c0.003 0.321-0.022 0.643 0.020 0.962 0.136-0.14 0.077-0.346 0.112-0.519 0.083 0.166 0.060 0.405 0.242 0.506-0.016-0.153-0.043-0.304-0.072-0.455 0.199-0.246 0.012-0.57-0.302-0.494M6.433 5.873c-0.002 0.306-0.001 0.612 0 0.918 0.129-0.017 0.339 0.016 0.354-0.166 0.068-0.291 0.098-0.84-0.354-0.752M7.64 6.826c0.020-0.187 0.017-0.375 0.019-0.562 0.068 0.197 0.115 0.407 0.244 0.576-0.002-0.32 0.137-0.735-0.071-0.995-0.015 0.156-0.017 0.312-0.018 0.469-0.068-0.168-0.096-0.367-0.256-0.477 0.022 0.321-0.122 0.723 0.083 0.989M8.307 5.882c0.232 0.243 0.103 0.598 0.134 0.898 0.028 0.001 0.085 0.002 0.114 0.002 0-0.249 0.002-0.498-0.003-0.747 0.042-0.024 0.125-0.070 0.166-0.093-0.128-0.063-0.272-0.061-0.411-0.060M9.616 5.892c0.047 0.054 0.095 0.108 0.144 0.161-0.001 0.242-0.001 0.485-0.001 0.727 0.028 0.001 0.085 0.001 0.114 0.001-0.001-0.245-0.002-0.489 0.003-0.733 0.052-0.052 0.102-0.104 0.151-0.157-0.137-0.006-0.275-0.005-0.412 0.002M10.054 6.818c0.111-0.053 0.143-0.166 0.172-0.275 0.030 0 0.088 0 0.117 0 0.032 0.11 0.069 0.222 0.182 0.274-0.083-0.324-0.048-0.717-0.275-0.979-0.084 0.322-0.157 0.649-0.197 0.98M11.074 5.889c0.047 0.054 0.096 0.106 0.146 0.158 0.001 0.244 0.001 0.489 0.001 0.734 0.028-0.001 0.085-0.001 0.114-0.001-0.001-0.243 0.001-0.486-0.001-0.729 0.052-0.051 0.103-0.104 0.151-0.159-0.137-0.008-0.275-0.009-0.412-0.003M2.362 6.282c0 0.859 0 1.718 0 2.577 0.68 0 1.36 0 2.040 0 0-0.859 0-1.718 0-2.577-0.68 0-1.36 0-2.040 0M1.822 6.697c0.127 0.133 0.302 0.201 0.477 0.244-0.123-0.138-0.299-0.211-0.477-0.244M4.526 6.943c0.181-0.045 0.358-0.121 0.497-0.248-0.185 0.033-0.369 0.104-0.497 0.248M6.443 6.872c0 0.040 0 0.121 0 0.161 1.682 0 3.365 0 5.047 0 0-0.040 0-0.121 0-0.161-1.682 0-3.365 0-5.047 0M7.31 7.211c-0.187 0.205 0.265 0.084 0 0M10.753 7.216c-0.212 0.134 0.211 0.134 0 0M6.177 7.238c0.006 0.316-0.019 0.634 0.021 0.949 0.143-0.118 0.079-0.317 0.093-0.476 0.032-0.004 0.095-0.010 0.126-0.014 0.005-0.024 0.016-0.074 0.020-0.098-0.037-0.006-0.11-0.018-0.146-0.024-0.001-0.072-0.002-0.145-0.003-0.217 0.078-0.002 0.156-0.004 0.234-0.006-0.001-0.028-0.002-0.086-0.003-0.114-0.114 0-0.228 0-0.341 0M6.572 7.241c-0.038 0.216 0.213-0.056 0 0M7.864 7.288c-0.002 0.283-0.002 0.566-0.001 0.849 0.028 0 0.084-0.001 0.112-0.001 0.006-0.201-0.034-0.416 0.065-0.601 0.038 0.218 0.013 0.441 0.056 0.659 0.15-0.201 0.078-0.468 0.052-0.697-0.043-0.011-0.13-0.034-0.174-0.045 0.001-0.075 0.002-0.15 0.003-0.224-0.028 0.016-0.085 0.046-0.113 0.061M8.871 7.321c-0.075 0.243-0.080 0.523 0.010 0.762 0.149 0.168 0.366-0.003 0.331-0.198-0.076 0.053-0.15 0.109-0.223 0.164-0.074-0.227-0.060-0.467-0.026-0.699 0.089 0.018 0.178 0.037 0.267 0.053-0.043-0.156-0.277-0.271-0.358-0.084M1.826 7.463c0 0.027 0 0.081 0 0.107 0.143 0 0.286 0 0.43 0 0-0.027 0-0.081 0-0.107-0.143 0-0.286 0-0.43 0M4.564 7.463c0 0.027 0 0.081 0 0.107 0.143 0 0.286 0 0.43 0 0-0.027 0-0.081 0-0.107-0.143 0-0.286 0-0.43 0M6.574 7.431c-0.030 0.251-0.032 0.507 0.004 0.758 0.14-0.202 0.156-0.566-0.004-0.758M6.816 7.482c0.032 0.229-0.086 0.518 0.089 0.703 0.035-0.219-0.002-0.447 0.075-0.659 0.091 0.213-0.040 0.484 0.13 0.664 0.040-0.238 0.034-0.483-0.015-0.719-0.093 0.004-0.186 0.008-0.279 0.011M7.269 7.478c-0.001 0.22-0.001 0.44 0 0.66 0.028-0.002 0.085-0.004 0.113-0.005 0-0.218 0-0.435 0-0.653-0.028-0.001-0.084-0.002-0.113-0.003M7.54 7.493c-0.176 0.193 0.142 0.354 0.128 0.56-0.042-0.017-0.126-0.052-0.168-0.069-0.003 0.036-0.010 0.108-0.013 0.144 0.099 0.010 0.248 0.037 0.278-0.095 0.042-0.179-0.132-0.314-0.194-0.468 0.050 0.016 0.149 0.047 0.199 0.063-0.035-0.089-0.124-0.238-0.23-0.136M9.282 7.479c0.031 0.231-0.086 0.52 0.090 0.707 0.026-0.175 0.025-0.353 0.028-0.529 0.048-0.057 0.096-0.115 0.142-0.173-0.087-0.003-0.173-0.004-0.26-0.004M9.681 7.473c-0.155 0.163-0.136 0.459-0.022 0.642 0.333 0.144 0.363-0.713 0.022-0.642M10.027 7.502c-0.135 0.186 0.113 0.349 0.158 0.524-0.079-0.003-0.158-0.004-0.237-0.006 0.059 0.105 0.198 0.187 0.288 0.067 0.112-0.188-0.086-0.347-0.168-0.5 0.075 0.004 0.15 0.008 0.226 0.010-0.070-0.063-0.174-0.205-0.267-0.095M10.351 7.504c-0.113 0.191 0.116 0.344 0.165 0.518-0.082 0.001-0.164 0.002-0.245 0.003 0.069 0.090 0.202 0.182 0.296 0.066 0.121-0.186-0.085-0.355-0.172-0.504 0.074 0.005 0.148 0.010 0.222 0.015-0.071-0.082-0.158-0.207-0.266-0.098M10.698 7.467c-0.005 0.241-0.017 0.483 0.018 0.722 0.174-0.185 0.060-0.467 0.093-0.693-0.028-0.007-0.084-0.021-0.111-0.028M10.954 7.483c0.002 0.235-0.011 0.47 0.022 0.703 0.18-0.171 0.034-0.453 0.138-0.661 0.101 0.21-0.040 0.488 0.136 0.662 0.038-0.238 0.033-0.482-0.018-0.717-0.093 0.004-0.185 0.009-0.278 0.013M11.597 8.194c-0.034 0.097-0.064 0.195-0.075 0.297 0.327-0.232 0.133-0.688 0.184-1.023-0.427-0.104-0.439 0.614-0.11 0.726M1.803 8.391c0.186-0.023 0.375-0.090 0.494-0.242-0.179 0.048-0.348 0.128-0.494 0.242M4.53 8.152c0.122 0.149 0.31 0.216 0.496 0.241-0.145-0.117-0.316-0.197-0.496-0.241M7.195 8.376c0 0.304 0 0.608 0 0.913 0.040 0 0.121 0 0.161 0 0-0.304 0-0.608 0-0.913-0.040 0-0.121 0-0.161 0M7.526 8.382c-0.072 0.295-0.002 0.595-0.018 0.894 0.027 0.001 0.083 0.003 0.111 0.004 0.002-0.203-0.009-0.41 0.039-0.609-0.013-0.043-0.026-0.086-0.039-0.129 0.023-0.059 0.045-0.117 0.067-0.176-0.040 0.004-0.12 0.011-0.16 0.015M8.236 8.452c-0.154 0.282 0.3 0.446 0.201 0.732-0.097-0.043-0.187-0.098-0.282-0.145 0.016 0.181 0.231 0.366 0.373 0.179 0.171-0.279-0.215-0.465-0.206-0.727 0.094 0.026 0.185 0.063 0.277 0.095-0.034-0.165-0.245-0.315-0.362-0.133M8.696 8.436c-0.018 0.081-0.038 0.161-0.059 0.241 0.108 0.192-0.083 0.606 0.236 0.611-0.093-0.193-0.096-0.411-0.034-0.613-0.023-0.105-0.042-0.212-0.060-0.317-0.021 0.019-0.063 0.059-0.084 0.078M9.698 8.432c-0.004 0.065-0.008 0.13-0.011 0.195-0.105-0.003-0.209-0.005-0.314-0.005-0.001 0.22-0.001 0.439 0.001 0.659 0.028-0.001 0.084-0.004 0.112-0.005 0-0.177 0.001-0.355 0.009-0.532 0.065-0.009 0.13-0.018 0.196-0.027 0.031 0.191-0.104 0.577 0.199 0.569-0.093-0.193-0.106-0.413-0.028-0.614-0.026-0.101-0.048-0.203-0.068-0.305-0.024 0.016-0.071 0.048-0.095 0.064M10.552 8.427c-0.002 0.059-0.004 0.118-0.005 0.177-0.040 0.008-0.119 0.022-0.159 0.030-0.072 0.215-0.078 0.449 0.018 0.659 0.086-0.008 0.172-0.015 0.258-0.020-0.002-0.301-0.001-0.602-0.001-0.904-0.028 0.015-0.083 0.043-0.111 0.059M8.947 8.655c-0.001 0.033-0.002 0.1-0.003 0.134 0.071-0.019 0.142-0.037 0.214-0.055-0.131 0.108-0.325 0.236-0.233 0.435 0.031 0.148 0.202 0.1 0.312 0.117-0.020-0.236 0.081-0.536-0.139-0.704-0.038 0.018-0.114 0.054-0.152 0.072M10.246 9.254c-0.010-0.033-0.031-0.098-0.041-0.13-0.045 0.017-0.091 0.034-0.136 0.050-0.008-0.037-0.024-0.11-0.032-0.147 0.078-0.005 0.157-0.011 0.236-0.017-0.033-0.139 0.005-0.372-0.178-0.411-0.272 0.11-0.227 0.828 0.152 0.654M1.971 9.251c0.169-0.076 0.293-0.219 0.397-0.369-0.176 0.067-0.303 0.211-0.397 0.369M2.471 8.926c0.001 0.169-0.001 0.337 0.016 0.505 0.045-0.14 0.068-0.286 0.054-0.433 0.032-0.021 0.096-0.064 0.128-0.086-0.049 0.003-0.148 0.010-0.198 0.013M2.723 8.873c-0.026 0.166-0.026 0.335-0.024 0.503 0.056-0.002 0.111-0.003 0.167-0.004-0.023-0.032-0.069-0.095-0.092-0.126-0.003-0.126-0.007-0.254-0.050-0.374M2.877 9.419c0.049-0.054 0.098-0.107 0.147-0.162 0.038 0.053 0.077 0.105 0.116 0.157-0.020-0.184-0.054-0.366-0.113-0.542-0.071 0.176-0.108 0.362-0.15 0.547M3.332 9.274c-0.063-0.001-0.125-0.002-0.187-0.003 0.049 0.047 0.099 0.094 0.149 0.141 0.142-0.135 0.021-0.292-0.067-0.416 0.045 0.001 0.135 0.003 0.18 0.003-0.052-0.038-0.104-0.076-0.156-0.113-0.131 0.133 0.006 0.267 0.081 0.387M3.438 8.875c0.001 0.184-0.001 0.368 0.011 0.552 0.025-0.083 0.047-0.166 0.071-0.249 0.041 0.072 0.078 0.148 0.114 0.223 0.001-0.172-0.005-0.345 0.001-0.517-0.038 0.063-0.076 0.126-0.118 0.186-0.025-0.066-0.052-0.13-0.079-0.195M3.705 8.913c0 0.161 0 0.322 0 0.483 0.027 0 0.081 0 0.107 0 0-0.161 0-0.322 0-0.483-0.027 0-0.081 0-0.107 0M3.897 8.875c-0.015 0.145-0.022 0.29-0.029 0.436 0.072 0.020 0.144 0.041 0.215 0.063-0.001-0.169 0.002-0.338-0.009-0.506-0.024 0.070-0.046 0.14-0.066 0.21-0.035-0.069-0.072-0.137-0.112-0.203M4.222 9.405c0.032-0.016 0.097-0.049 0.129-0.065 0.002-0.059 0.005-0.118 0.008-0.177-0.043-0.003-0.128-0.009-0.171-0.011 0.051-0.078 0.114-0.146 0.186-0.205-0.28-0.123-0.239 0.306-0.151 0.459M4.474 8.879c0.089 0.165 0.23 0.296 0.394 0.383-0.087-0.165-0.228-0.299-0.394-0.383M2.362 9.45c0 0.788 0 1.575 0 2.362 0.68 0 1.36 0 2.040 0 0-0.788 0-1.575 0-2.362-0.68 0-1.36 0-2.040 0M6.443 9.557c0 0.040 0 0.121 0 0.161 1.682 0 3.365 0 5.047 0 0-0.040 0-0.121 0-0.161-1.682 0-3.365 0-5.047 0M5.5 10.037c0.051 0.056 0.104 0.111 0.158 0.164 0.004 0.261 0.002 0.523 0.003 0.784 0.031 0.001 0.093 0.002 0.124 0.002 0.040-0.319-0.113-0.705 0.148-0.956-0.144-0.002-0.289-0.002-0.433 0.005M6.013 10.040c0 0.322 0 0.644 0 0.966 0.040 0 0.121 0 0.161 0 0-0.322 0-0.644 0-0.966-0.040 0-0.121 0-0.161 0M6.354 9.995c-0.021 0.329-0.007 0.659-0.011 0.989 0.032 0.001 0.094 0.001 0.126 0.002 0-0.179 0-0.359 0-0.538 0.038 0.106 0.074 0.212 0.112 0.317 0.035-0.106 0.069-0.213 0.105-0.319 0.002 0.18 0.002 0.36 0.002 0.54 0.031 0 0.094-0.001 0.125-0.001-0.005-0.33 0.011-0.661-0.013-0.991-0.15 0.070-0.17 0.244-0.223 0.382-0.052-0.139-0.059-0.325-0.223-0.381M7.007 10.031c0.001 0.318 0.001 0.636 0 0.955 0.12 0 0.241 0 0.362 0 0.001-0.031 0.002-0.093 0.003-0.123-0.079-0.001-0.159-0.002-0.239-0.002-0.001-0.106-0.001-0.212-0.001-0.317 0.052-0.015 0.154-0.046 0.206-0.061-0.067-0.034-0.136-0.065-0.204-0.096-0.001-0.077-0.001-0.154-0.002-0.23 0.079-0.001 0.159-0.001 0.239-0.002 0-0.031 0-0.093 0-0.125-0.121 0.001-0.243 0.001-0.363 0.002M7.834 10.020c0.008 0.339-0.024 0.681 0.028 1.019 0.159-0.139 0.071-0.372 0.118-0.555 0.067 0.162 0.101 0.335 0.141 0.505 0.031-0.002 0.092-0.004 0.123-0.005-0.032-0.145-0.063-0.29-0.092-0.435 0.217-0.255 0.024-0.616-0.317-0.528M8.383 10.030c0 0.319 0 0.637 0 0.956 0.121 0 0.241 0 0.362 0.001 0.002-0.031 0.005-0.092 0.006-0.122-0.081-0.002-0.161-0.003-0.242-0.005-0.002-0.102-0.003-0.205-0.005-0.307 0.053-0.020 0.16-0.062 0.214-0.082-0.054-0.021-0.161-0.062-0.215-0.083 0.003-0.077 0.004-0.155 0.006-0.232 0.079-0.001 0.158-0.001 0.238-0.001-0.001-0.031-0.001-0.093-0.001-0.124-0.121 0-0.242 0-0.363 0M8.884 10.034c0.001 0.317 0.001 0.634 0 0.951 0.031 0.001 0.092 0.003 0.123 0.003 0.001-0.167 0.002-0.335 0.009-0.501 0.035 0.092 0.070 0.185 0.105 0.278 0.034-0.103 0.068-0.205 0.105-0.307 0.003 0.193 0 0.387 0.031 0.578 0.213-0.284 0.049-0.705 0.091-1.043-0.149 0.070-0.176 0.238-0.232 0.375-0.035-0.113-0.069-0.225-0.104-0.338-0.032 0.001-0.095 0.003-0.126 0.004M9.669 10.025c-0.066 0.319-0.13 0.638-0.197 0.957 0.031 0.002 0.091 0.006 0.121 0.009 0.021-0.083 0.041-0.166 0.062-0.249 0.039 0.002 0.117 0.005 0.156 0.006 0.016 0.078 0.032 0.157 0.048 0.235 0.032 0.002 0.096 0.005 0.128 0.006-0.061-0.317-0.129-0.632-0.192-0.949-0.032-0.004-0.096-0.011-0.127-0.015M10.094 10.040c0 0.322 0 0.644 0 0.966 0.040 0 0.121 0 0.161 0 0-0.322 0-0.644 0-0.966-0.040 0-0.121 0-0.161 0M10.438 9.995c-0.021 0.329-0.006 0.659-0.011 0.988 0.031 0.001 0.093 0.003 0.125 0.004 0-0.179 0-0.357 0.002-0.536 0.057 0.176 0.112 0.352 0.166 0.528 0.028 0.003 0.086 0.010 0.115 0.014 0.005-0.321 0.002-0.642 0.003-0.964-0.031 0-0.093 0-0.124 0 0 0.163-0.001 0.326-0.004 0.489-0.084-0.176-0.068-0.436-0.272-0.523M11.007 10.040c0 0.322 0 0.644 0 0.966 0.040 0 0.121 0 0.161 0 0-0.322 0-0.644 0-0.966-0.040 0-0.121 0-0.161 0M11.353 10.034c0.001 0.317 0.001 0.634 0.001 0.951 0.031 0.001 0.092 0.003 0.123 0.003 0.001-0.164 0.003-0.329 0.010-0.492 0.077 0.183 0.098 0.399 0.247 0.544 0.056-0.334 0.023-0.673 0.031-1.010-0.031 0-0.093 0-0.123 0 0 0.164 0 0.328-0.004 0.492-0.056-0.163-0.107-0.328-0.157-0.492-0.032 0.001-0.095 0.003-0.127 0.004M11.974 10.155c-0.049 0.261-0.113 0.613 0.090 0.819 0.278 0.115 0.303-0.256 0.283-0.44-0.071 0.003-0.142 0.006-0.213 0.009 0.070 0.124 0.108 0.256 0.006 0.379-0.121-0.242-0.097-0.521-0.039-0.776 0.091 0.026 0.181 0.050 0.273 0.072-0.045-0.194-0.326-0.286-0.4-0.062M5.35 11.31c0.044 0.028 0.132 0.083 0.176 0.11-0.003 0.269-0.001 0.537-0.001 0.806 0.031 0 0.093 0 0.125 0 0-0.268 0.002-0.537-0.002-0.805 0.045-0.028 0.133-0.083 0.178-0.111-0.156-0.049-0.319-0.050-0.475 0M6.728 11.27c0 0.319-0.001 0.638 0.001 0.957 0.031-0.001 0.093-0.001 0.123-0.002 0-0.137 0.001-0.275 0.002-0.413 0.157-0.039 0.2-0.18-0.004-0.19 0.001-0.076 0.002-0.151 0.003-0.227 0.079-0.001 0.159-0.001 0.239-0.001-0.001-0.031-0.001-0.093-0.001-0.124-0.121 0-0.242 0-0.363 0M7.2 11.287c-0.055 0.249 0.249-0.054 0 0M7.957 11.267c-0.174 0.22 0.271 0.068 0 0M8.528 11.335c0.001 0.297 0 0.594 0.001 0.891 0.031 0 0.093 0 0.125 0 0-0.191 0-0.382 0.002-0.572 0.023-0.003 0.068-0.007 0.091-0.010 0.002 0.194 0.002 0.389 0.004 0.583 0.031 0 0.092-0.001 0.122-0.001 0.001-0.234 0.018-0.472-0.042-0.701-0.045 0.001-0.136 0.002-0.181 0.003 0.002-0.090 0.004-0.179 0.005-0.268-0.032 0.019-0.095 0.056-0.127 0.075M9.467 11.353c-0.085 0.254-0.097 0.559 0.009 0.808 0.147 0.189 0.37-0.011 0.355-0.201-0.085 0.052-0.167 0.109-0.249 0.166-0.074-0.241-0.065-0.497-0.003-0.739 0.090 0.024 0.181 0.047 0.273 0.067-0.063-0.154-0.272-0.287-0.386-0.101M11.437 11.287c-0.055 0.248 0.25-0.054 0 0M8.178 11.559c-0.144 0.198 0.122 0.366 0.177 0.546-0.068-0.018-0.134-0.037-0.201-0.056-0.005 0.041-0.014 0.124-0.018 0.165 0.102 0.012 0.252 0.042 0.294-0.086 0.075-0.186-0.119-0.324-0.198-0.47 0.077 0.006 0.155 0.012 0.232 0.017-0.053-0.099-0.176-0.232-0.285-0.115M10.69 11.604c-0.067 0.195 0.16 0.328 0.197 0.508-0.069-0.021-0.137-0.043-0.205-0.065-0.001 0.041-0.003 0.123-0.004 0.164 0.132 0.040 0.253 0.001 0.331-0.117 0.006 0.034 0.020 0.101 0.027 0.135 0.099-0.008 0.245 0.020 0.284-0.104 0.072-0.19-0.131-0.329-0.202-0.486 0.046 0.014 0.137 0.041 0.183 0.055 0.002-0.050 0.003-0.1 0.005-0.15-0.085-0.011-0.204-0.061-0.256 0.040-0.101 0.199 0.144 0.346 0.196 0.524-0.295 0.038-0.336-0.302-0.481-0.479 0.064 0.022 0.129 0.045 0.194 0.068-0.006-0.043-0.017-0.129-0.022-0.172-0.086 0.003-0.208-0.027-0.247 0.078M5.922 11.546c-0.14 0.168-0.178 0.688 0.13 0.685 0.215-0.136 0.21-0.795-0.13-0.685M7.181 11.528c0 0.233 0 0.465 0.001 0.699 0.031 0.001 0.093 0.001 0.124 0.001 0.001-0.234 0.001-0.467 0.001-0.7-0.032 0-0.094 0-0.126 0M7.444 11.522c-0.001 0.23 0.001 0.46-0.003 0.69 0.031 0.006 0.092 0.018 0.123 0.024 0.004-0.214-0.004-0.43 0.028-0.642 0.127 0.185 0.054 0.421 0.071 0.631 0.030 0.001 0.091 0.002 0.121 0.003-0.006-0.281 0.124-0.825-0.34-0.706M7.916 11.532c0.001 0.231 0.001 0.462 0.001 0.693 0.031 0.001 0.093 0.002 0.124 0.003 0.002-0.234 0.001-0.468 0.001-0.702-0.031 0.002-0.094 0.005-0.125 0.006M9.957 12.225c0.031 0.001 0.093 0.002 0.124 0.003 0.010-0.24-0.063-0.519 0.146-0.696-0.089-0.003-0.178-0.005-0.267-0.007-0.003 0.234-0.002 0.467-0.002 0.7M10.331 11.561c-0.11 0.183-0.117 0.471 0.016 0.643 0.387 0.165 0.365-0.859-0.016-0.643M11.418 11.528c0.048 0.236-0.118 0.585 0.112 0.74 0.023-0.246 0.012-0.494 0.014-0.74-0.032 0-0.094 0-0.126 0M11.681 11.522c-0.001 0.235-0.001 0.469-0.001 0.704 0.031-0.001 0.094-0.001 0.125-0.002-0.002-0.21-0.007-0.421 0.023-0.63 0.127 0.18 0.056 0.413 0.069 0.618 0.031 0.006 0.092 0.019 0.123 0.025-0.005-0.283 0.129-0.834-0.339-0.715M12.361 12.278c-0.039 0.105-0.086 0.21-0.084 0.325 0.362-0.227 0.142-0.72 0.201-1.070-0.088-0.005-0.177-0.009-0.265-0.013-0.117 0.239-0.177 0.661 0.148 0.758M2.869 11.925c0.029 0.17 0.038 0.341 0.064 0.512 0.033-0.168 0.036-0.34 0.057-0.51-0.031-0.001-0.091-0.002-0.121-0.002M3.053 11.919c0.006 0.161 0.008 0.322 0.009 0.483 0.027 0 0.079 0 0.106 0 0-0.161 0-0.322 0-0.483-0.029 0-0.086 0-0.115 0M3.222 11.908c-0.002 0.177-0.004 0.354 0.003 0.531 0.036-0.089 0.069-0.179 0.103-0.269 0.035 0.089 0.070 0.179 0.107 0.267 0.012-0.181 0.012-0.363 0.007-0.544-0.025 0.033-0.074 0.101-0.099 0.135-0.040-0.040-0.081-0.081-0.121-0.12M3.536 11.937c0 0.149 0 0.299 0 0.448 0.050-0.002 0.151-0.007 0.201-0.009-0.045-0.025-0.090-0.049-0.135-0.074 0.006-0.097 0.010-0.193 0.007-0.289 0.041-0.028 0.082-0.055 0.122-0.083-0.049 0.002-0.147 0.005-0.195 0.007M3.759 11.887c-0.006 0.188-0.009 0.378 0.017 0.565 0.022-0.079 0.042-0.158 0.060-0.238 0.037 0.081 0.076 0.162 0.119 0.24 0.014-0.203 0.117-0.556-0.196-0.568z"></path>
<path fill="#fff" d="M7.102 6.651c-0.017-0.235-0.090-0.514 0.088-0.708 0.079 0.228 0.076 0.472 0.042 0.708-0.032 0-0.098-0.001-0.13-0.001z"></path>
<path fill="#fff" d="M7.96 10.146c0.035 0.006 0.107 0.018 0.143 0.025 0.001 0.074 0.001 0.148 0.002 0.223-0.037 0.006-0.11 0.020-0.146 0.027 0-0.092 0.001-0.183 0.001-0.274z"></path>
<path fill="#fff" d="M1.235 12.94c3.991 0 7.982 0 11.973 0 0 1.289 0 2.577 0 3.866-3.991 0-7.982 0-11.973 0 0-1.289 0-2.577 0-3.866M2.665 13.337c0.058 0.099 0.119 0.196 0.177 0.295-0.051-0.003-0.154-0.010-0.206-0.013 0.076 0.047 0.155 0.088 0.239 0.118 0.008-0.123-0.031-0.238-0.099-0.34 0.033-0.051 0.065-0.103 0.097-0.154-0.070 0.030-0.139 0.061-0.208 0.093M2.919 13.261c0.028 0.167 0.043 0.337 0.084 0.501 0.029-0.165 0.040-0.332 0.061-0.498 0.094 0.14 0.074 0.314 0.086 0.474 0.114-0.026 0.228-0.054 0.34-0.089 0.038 0.030 0.076 0.060 0.114 0.090-0.035-0.177-0.070-0.355-0.128-0.526-0.064 0.14-0.070 0.302-0.144 0.436-0.157 0.011-0.075-0.196-0.106-0.295 0.040-0.031 0.081-0.063 0.122-0.094-0.144 0.002-0.287 0.003-0.431 0M3.652 13.248c-0.002 0.156-0.002 0.311-0.001 0.467 0.057 0 0.115 0.001 0.172 0.002 0.034-0.134 0.045-0.271 0.042-0.409-0.071-0.021-0.142-0.041-0.213-0.061M3.902 13.227c0.046 0.173 0.083 0.348 0.113 0.525 0.026-0.177 0.065-0.352 0.125-0.52-0.042 0.046-0.084 0.093-0.126 0.14-0.028-0.036-0.083-0.108-0.111-0.144M2.362 13.799c0 0.859 0 1.718 0 2.577 0.68 0 1.36 0 2.040 0 0-0.859 0-1.718 0-2.577-0.68 0-1.36 0-2.040 0M6.219 14.315c-0.002 0.307-0.002 0.613 0.001 0.92 0.119-0.024 0.311 0.025 0.344-0.136 0.077-0.297 0.119-0.869-0.345-0.784M6.842 14.353c-0.14 0.242-0.151 0.627 0.016 0.859 0.273 0.128 0.323-0.262 0.308-0.447 0.023-0.188-0.060-0.576-0.324-0.412M7.341 14.284c-0.025 0.312-0.009 0.626-0.013 0.939l0.114 0.001c0-0.174 0-0.348 0.001-0.523 0.058 0.17 0.114 0.34 0.17 0.511 0.025 0.007 0.074 0.020 0.098 0.027 0.008-0.303 0.004-0.607 0.004-0.911-0.028-0.001-0.084-0.002-0.113-0.003-0.001 0.143-0.001 0.287-0.002 0.43-0.074-0.164-0.090-0.372-0.259-0.471M7.916 14.334c-0.084 0.276 0.267-0.004 0 0M8.082 14.365c0.298 0.202 0.060 0.622 0.177 0.918 0.157-0.242 0.058-0.546 0.079-0.817 0.045-0.020 0.134-0.061 0.178-0.082-0.137-0.068-0.292-0.072-0.434-0.019M9.093 14.351c-0.13 0.241-0.108 0.552-0.033 0.807 0.129 0.188 0.401 0.020 0.32-0.186-0.070 0.057-0.139 0.116-0.208 0.175-0.067-0.234-0.062-0.48-0.014-0.717 0.086 0.025 0.172 0.050 0.259 0.073-0.049-0.13-0.186-0.261-0.324-0.152M9.49 14.315c-0.002 0.3 0 0.599-0.002 0.899 0.027 0.005 0.081 0.016 0.108 0.021 0.004-0.159 0.008-0.318 0.023-0.476 0.062 0.148 0.1 0.303 0.137 0.459 0.028 0.003 0.086 0.009 0.114 0.011-0.049-0.21-0.106-0.428-0.003-0.632 0.062-0.238-0.201-0.295-0.379-0.282M10.106 14.337c-0.171 0.234-0.159 0.615-0.018 0.862 0.239 0.162 0.345-0.196 0.323-0.377 0.014-0.19-0.014-0.603-0.304-0.485M10.605 14.362c-0.201 0.259 0.191 0.46 0.208 0.718-0.024 0.011-0.073 0.032-0.097 0.043-0.067-0.058-0.134-0.114-0.205-0.166-0.026 0.197 0.209 0.396 0.356 0.207 0.168-0.287-0.213-0.478-0.216-0.752 0.090 0.046 0.178 0.094 0.267 0.141-0.005-0.161-0.163-0.331-0.314-0.191M11.060 14.654c0.101 0.151 0.253 0.302 0.182 0.5-0.084-0.066-0.167-0.134-0.255-0.196-0.016 0.182 0.165 0.38 0.334 0.232 0.172-0.225-0.056-0.47-0.195-0.643 0.011-0.033 0.032-0.1 0.042-0.133 0.073 0.049 0.147 0.099 0.222 0.147-0.030-0.097-0.037-0.245-0.17-0.249-0.175-0.015-0.26 0.217-0.159 0.342z"></path>
<path fill="#fff" d="M1.274 17.112c3.98-0.001 7.96 0 11.94 0-0.001 1.743 0.002 3.485-0.002 5.228 0.020 0.237-0.193 0.445-0.429 0.424-3.69 0.002-7.38 0.001-11.071 0.001-0.239 0.024-0.459-0.184-0.439-0.426-0.003-1.742-0.001-3.484-0.001-5.226M3.867 17.607c-0.003 0.302-0.002 0.603-0.001 0.905 0.032 0 0.096-0.001 0.128-0.001 0-0.127 0-0.253-0.001-0.38 0.186 0.008 0.426-0.071 0.373-0.306-0.022-0.255-0.319-0.213-0.5-0.22M4.492 17.613c0.006 0.248-0.021 0.498 0.016 0.744 0.060 0.22 0.411 0.22 0.47 0 0.037-0.246 0.011-0.497 0.015-0.744-0.032 0.001-0.095 0.002-0.127 0.002-0.006 0.239 0.020 0.48-0.015 0.717-0.041 0.090-0.152 0.088-0.21 0.017-0.043-0.242-0.013-0.49-0.020-0.733-0.032-0.001-0.097-0.001-0.129-0.002M5.236 17.691c-0.267 0.315 0.591 0.495 0.145 0.728-0.074-0.081-0.152-0.159-0.252-0.207 0.030 0.131 0.081 0.303 0.242 0.314 0.223 0.030 0.366-0.274 0.213-0.433-0.099-0.126-0.374-0.206-0.2-0.387 0.093 0.055 0.187 0.108 0.285 0.155-0.015-0.214-0.288-0.368-0.433-0.17M5.798 17.612c-0.002 0.3-0.003 0.6 0.001 0.9 0.032-0.001 0.096-0.001 0.127-0.001 0.001-0.135 0.001-0.271 0.001-0.406 0.081 0 0.162-0.001 0.244-0.002 0.001 0.136 0.001 0.272 0.002 0.408 0.032 0.001 0.096 0.001 0.128 0.001 0-0.3 0.001-0.6-0.001-0.9-0.032 0-0.097 0.001-0.129 0.001 0 0.122-0.001 0.244-0.001 0.366-0.082-0.001-0.163-0.002-0.244-0.002 0-0.121 0-0.243 0-0.365-0.032-0.001-0.096-0.001-0.128-0.001M6.942 17.609c-0.001 0.302-0.002 0.605 0.001 0.907 0.307 0.091 0.657-0.161 0.428-0.474 0.2-0.321-0.14-0.512-0.429-0.434M7.596 17.616c0.011 0.252-0.027 0.509 0.023 0.757 0.076 0.21 0.416 0.193 0.466-0.026 0.034-0.244 0.009-0.492 0.013-0.737-0.032 0.002-0.097 0.004-0.129 0.006-0.003 0.23 0.017 0.462-0.010 0.692-0.004 0.125-0.216 0.122-0.221-0.002-0.028-0.231-0.007-0.464-0.013-0.696-0.032 0.002-0.097 0.004-0.129 0.006M8.177 17.632c0.059 0.059 0.133 0.098 0.209 0.132 0.004 0.25 0.002 0.499 0.003 0.748 0.032 0 0.097-0.001 0.128-0.002 0-0.247 0-0.494 0.001-0.741 0.074-0.042 0.147-0.085 0.217-0.134-0.185-0.028-0.374-0.030-0.559-0.004M8.74 17.614c-0.002 0.029-0.004 0.087-0.005 0.117 0.041 0.002 0.123 0.005 0.165 0.008-0.002 0.258-0.002 0.516-0.001 0.774 0.032 0 0.097-0.001 0.129-0.001 0-0.258 0.001-0.517-0.001-0.775 0.041-0.002 0.123-0.004 0.165-0.006 0-0.030 0-0.089 0-0.119-0.151 0-0.301 0-0.452 0.002M9.463 17.617c-0.236 0.193-0.209 0.603-0.061 0.845 0.184 0.185 0.431-0.046 0.414-0.258 0.042-0.23-0.012-0.703-0.353-0.586M10.003 17.611c-0.002 0.3-0.002 0.6-0.001 0.9 0.032 0 0.096 0 0.128 0 0-0.192-0.001-0.384 0.005-0.576 0.094 0.183 0.18 0.37 0.263 0.559 0.026 0.008 0.077 0.024 0.103 0.032 0.007-0.304 0.003-0.609 0.004-0.913-0.032-0.001-0.097-0.001-0.128-0.002-0.001 0.172-0.002 0.345-0.005 0.517-0.084-0.17-0.162-0.342-0.24-0.514-0.032-0.001-0.097-0.003-0.129-0.004M11.090 18.851c-2.764 0-5.529 0-8.293 0-0.001 0.139-0.001 0.279-0.001 0.418 2.765 0 5.529 0 8.293 0 0.004 0.104-0.159 0.331 0.015 0.338 0.282-0.166 0.566-0.343 0.812-0.558-0.268-0.182-0.527-0.381-0.812-0.535-0.173 0.005-0.011 0.234-0.015 0.337M4.839 19.602c0 0.030 0 0.088 0 0.118 0.041 0.001 0.123 0.003 0.164 0.005 0 0.259-0.001 0.518 0.001 0.777 0.032-0.001 0.097-0.003 0.129-0.004-0.001-0.257 0-0.515-0.001-0.772 0.040-0.002 0.12-0.005 0.159-0.007 0.003-0.028 0.010-0.085 0.013-0.113-0.155-0.004-0.311-0.004-0.466-0.004M5.55 19.616c-0.251 0.214-0.229 1.007 0.228 0.87 0.256-0.213 0.231-1.016-0.228-0.87M6.65 19.648c-0.163 0.216-0.147 0.552-0.020 0.782 0.163 0.2 0.44 0.012 0.418-0.214-0.090 0.061-0.173 0.13-0.255 0.201-0.179-0.192-0.196-0.542-0.010-0.732 0.083 0.070 0.168 0.138 0.257 0.201 0.021-0.208-0.217-0.406-0.39-0.237M7.218 19.597c-0.001 0.3 0 0.6-0.001 0.9 0.032 0.001 0.096 0.003 0.128 0.004 0.001-0.153 0.002-0.306 0.008-0.459 0.188 0.070 0.175 0.294 0.235 0.453 0.033 0.002 0.099 0.005 0.132 0.008-0.039-0.137-0.077-0.273-0.115-0.41 0.068-0.104 0.162-0.228 0.095-0.357-0.082-0.187-0.321-0.122-0.483-0.139M8.016 19.608c-0.229 0.202-0.215 0.634-0.032 0.863 0.529 0.249 0.566-1.026 0.032-0.863M8.574 19.742c-0.115 0.277 0.38 0.322 0.304 0.573-0.104 0.186-0.255-0.074-0.38-0.112 0.037 0.115 0.065 0.275 0.208 0.303 0.213 0.064 0.395-0.211 0.274-0.389-0.096-0.123-0.237-0.205-0.323-0.338 0.033-0.017 0.099-0.050 0.133-0.067 0.082 0.049 0.166 0.093 0.253 0.132-0.017-0.25-0.377-0.37-0.47-0.104M9.191 19.718c-0.142 0.284 0.319 0.332 0.309 0.574-0.096 0.216-0.273-0.037-0.394-0.091-0.009 0.242 0.297 0.436 0.463 0.215 0.181-0.249-0.114-0.454-0.299-0.574 0.034-0.048 0.068-0.095 0.103-0.141 0.090 0.051 0.179 0.103 0.274 0.145-0.011-0.239-0.345-0.368-0.456-0.128M4.513 21.145c-0.001 0.301-0.001 0.601-0.001 0.901 0.032 0 0.097 0 0.129 0 0-0.163 0-0.325 0.002-0.488 0.056 0.159 0.108 0.319 0.162 0.479 0.059-0.159 0.111-0.321 0.168-0.48 0.001 0.163 0.001 0.326 0.001 0.489 0.032 0 0.097 0 0.129 0-0.001-0.309 0.003-0.618-0.003-0.927-0.226 0.069-0.207 0.351-0.293 0.532-0.055-0.164-0.108-0.328-0.161-0.492-0.034-0.003-0.101-0.011-0.135-0.015M6.41 22.048c0.031 0 0.091 0 0.122 0-0.002-0.313 0.011-0.627-0.011-0.939-0.23 0.248-0.061 0.633-0.111 0.939M7.702 21.145c0 0.303-0.001 0.605 0.001 0.908 0.144-0.019 0.351 0.042 0.433-0.117 0.098-0.203 0.091-0.452 0.012-0.66-0.072-0.178-0.296-0.112-0.446-0.132M8.778 21.158c-0.055 0.249 0.249-0.056 0 0M5.239 21.517c0.088-0.005 0.176-0.012 0.264-0.020 0.013 0.025 0.040 0.075 0.053 0.099-0.164-0.010-0.366 0.082-0.316 0.278 0.031 0.213 0.271 0.178 0.427 0.176-0.007-0.191 0.026-0.389-0.028-0.575-0.091-0.162-0.325-0.106-0.4 0.042M5.817 21.394c0.002 0.3 0.001 0.6 0.001 0.901 0.030-0.012 0.090-0.035 0.12-0.047 0.004-0.057 0.007-0.114 0.011-0.171 0.352 0.040 0.397-0.405 0.262-0.634-0.099-0.109-0.265-0.037-0.394-0.049M6.834 21.384c-0.359 0.156-0.123 0.94 0.27 0.582-0.018-0.032-0.052-0.096-0.069-0.128-0.055 0.041-0.11 0.083-0.164 0.124-0.031-0.062-0.062-0.124-0.093-0.185 0.12-0.005 0.24-0.009 0.36-0.012-0.015-0.169-0.068-0.449-0.303-0.381M8.367 21.396c0.033 0.228-0.093 0.524 0.096 0.701 0.029-0.193 0.027-0.39 0.033-0.585 0.040 0 0.119 0 0.159 0-0.002-0.032-0.004-0.097-0.005-0.129-0.094 0.005-0.188 0.010-0.282 0.013M8.76 21.39c-0.002 0.22-0.002 0.44 0 0.66 0.032-0.001 0.094-0.003 0.126-0.004-0.001-0.217-0.001-0.435 0-0.652-0.032-0.001-0.094-0.003-0.126-0.004M8.986 21.394c0.070 0.221 0.141 0.442 0.215 0.661 0.025-0.003 0.076-0.010 0.101-0.014 0.069-0.217 0.14-0.434 0.207-0.652-0.033 0.002-0.1 0.005-0.133 0.006-0.042 0.143-0.085 0.285-0.13 0.427-0.047-0.144-0.092-0.288-0.137-0.432-0.031 0.001-0.093 0.003-0.123 0.004M9.642 21.979c0.119 0.163 0.328 0.050 0.404-0.093-0.098-0.012-0.192 0.015-0.281 0.054-0.017-0.042-0.050-0.126-0.067-0.168 0.118-0.002 0.236-0.003 0.355-0.005-0.024-0.158-0.047-0.423-0.271-0.39-0.247 0.064-0.236 0.417-0.14 0.601z"></path>
<path fill="#fff" d="M7.068 17.735c0.086 0.008 0.171 0.018 0.257 0.030-0.007 0.151-0.1 0.234-0.249 0.241-0.003-0.090-0.005-0.18-0.008-0.27z"></path>
<path fill="#fff" d="M5.554 20.279c-0.052-0.209-0.063-0.477 0.136-0.614 0.128 0.199 0.163 0.47 0.052 0.683-0.057 0.091-0.176 0.016-0.188-0.069z"></path>
<path fill="#fff" d="M5.95 21.534c0.034-0.013 0.103-0.039 0.137-0.052 0.083 0.171 0.095 0.388-0.074 0.511-0.059-0.146-0.071-0.303-0.063-0.459z"></path>
<path fill="#231f20" d="M1.073 0.108c0.097-0.034 0.195-0.063 0.294-0.089 3.937 0.010 7.876-0.028 11.813 0.019l0.038 0.018c0.049 0.063 0.108 0.075 0.178 0.035 0.044 0.027 0.089 0.054 0.133 0.081 0.032 0.006 0.097 0.018 0.129 0.025 0.184 0.132 0.348 0.289 0.496 0.461 0.019 0.028 0.056 0.084 0.075 0.112 0.066 0.115 0.126 0.234 0.191 0.349-0.091 0.051-0.045 0.173 0.024 0.221v21.385c-0.079 0.030-0.091 0.082-0.038 0.156l-0.033 0.038c-0.003 0.032-0.008 0.098-0.010 0.13-0.113 0.233-0.267 0.446-0.469 0.611-0.028 0.018-0.086 0.053-0.115 0.070-0.057 0.045-0.115 0.089-0.173 0.133-0.033 0.004-0.098 0.011-0.13 0.015-0.050 0.029-0.101 0.058-0.152 0.086-0.070-0.052-0.127-0.040-0.172 0.035h-11.81c-0.043-0.075-0.099-0.088-0.168-0.038l-0.038-0.033c-0.033-0.003-0.098-0.008-0.13-0.010-0.421-0.19-0.743-0.549-0.919-0.973 0.043-0.067 0.037-0.127-0.021-0.183-0.006-0.018-0.020-0.054-0.027-0.072-0.004-6.812 0-13.624-0.002-20.436-0.001-0.31-0.006-0.621 0.024-0.93l0.006-0.038c0.056-0.056 0.063-0.117 0.020-0.182 0.028-0.046 0.056-0.090 0.085-0.135 0.007-0.032 0.021-0.096 0.028-0.128 0.046-0.065 0.092-0.13 0.139-0.194 0.114-0.091 0.217-0.194 0.307-0.309 0.097-0.070 0.199-0.134 0.301-0.197 0.032-0.009 0.096-0.025 0.127-0.033M1.474 0.142c-0.746 0.081-1.352 0.774-1.34 1.523-0.001 6.89 0.001 13.78-0.001 20.671-0.015 0.615 0.373 1.217 0.945 1.448 0.336 0.15 0.711 0.12 1.069 0.121 3.526 0.001 7.051-0.002 10.577 0.001 0.845 0.061 1.637-0.667 1.628-1.517 0.002-6.908 0.001-13.816 0.001-20.724 0.019-0.835-0.738-1.574-1.572-1.538-3.769 0.010-7.539-0.020-11.307 0.015z"></path>
<path fill="#231f20" d="M1.528 0.682c3.732-0.031 7.467-0.003 11.199-0.014 0.383-0.024 0.779 0.171 0.96 0.516 0.162 0.275 0.122 0.605 0.126 0.91-0.001 6.622-0.001 13.243 0 19.866-0.003 0.289 0.032 0.599-0.113 0.863-0.168 0.34-0.543 0.551-0.92 0.539-3.688 0.001-7.375 0-11.063 0-0.377 0.015-0.754-0.193-0.926-0.531-0.149-0.266-0.112-0.58-0.115-0.871 0.002-6.765-0.001-13.53 0.001-20.295-0.010-0.479 0.374-0.925 0.85-0.982M1.267 1.663c-0.010 1.224-0.003 2.448-0.003 3.672 3.985 0.003 7.97 0.001 11.955 0.001-0.001-1.225 0.005-2.45-0.003-3.675 0.015-0.238-0.212-0.419-0.439-0.407-3.688-0.002-7.376-0.002-11.064 0-0.23-0.014-0.453 0.17-0.447 0.409M1.235 5.638c0 2.345 0 4.689 0 7.034 3.991 0 7.982 0 11.973 0 0-2.345 0-4.689 0-7.034-3.991 0-7.982 0-11.973 0M1.235 12.94c0 1.289 0 2.577 0 3.866 3.991 0 7.982 0 11.973 0 0-1.289 0-2.577 0-3.866-3.991 0-7.982 0-11.973 0M1.274 17.112c0 1.742-0.002 3.484 0.001 5.226-0.020 0.242 0.199 0.45 0.439 0.426 3.69 0.001 7.38 0.001 11.071-0.001 0.236 0.021 0.449-0.187 0.429-0.424 0.004-1.743 0.001-3.485 0.002-5.228-3.98 0-7.96-0.001-11.94 0z"></path>
<path fill="#231f20" d="M5.417 1.714c0.115-0.184 0.37-0.033 0.322 0.162-0.056-0.038-0.167-0.114-0.223-0.152-0.063 0.281 0.381 0.47 0.186 0.763-0.15 0.183-0.371-0.015-0.359-0.207 0.085 0.056 0.165 0.118 0.246 0.179 0.166-0.285-0.34-0.461-0.173-0.745z"></path>
<path fill="#231f20" d="M8.222 1.725c0.084-0.179 0.327-0.077 0.346 0.093-0.085-0.020-0.17-0.043-0.255-0.067-0.032 0.241-0.063 0.497 0.045 0.724 0.028-0.041 0.084-0.122 0.112-0.163 0.028 0.011 0.083 0.034 0.111 0.045-0.033 0.156-0.211 0.275-0.342 0.141-0.105-0.239-0.091-0.528-0.017-0.775z"></path>
<path fill="#231f20" d="M9.412 1.631c0.318 0.042 0.229 0.5 0.206 0.732 0.009 0.223-0.333 0.264-0.361 0.038-0.030-0.242-0.123-0.653 0.155-0.77M9.394 2.452c0.231-0.147 0.113-0.524 0.054-0.751-0.16 0.215-0.121 0.509-0.054 0.751z"></path>
<path fill="#231f20" d="M9.816 1.706c0.125-0.174 0.348-0.018 0.328 0.165-0.081-0.048-0.16-0.097-0.239-0.146-0.053 0.282 0.381 0.465 0.194 0.757-0.147 0.19-0.374-0.009-0.36-0.201 0.086 0.057 0.168 0.119 0.251 0.179 0.152-0.29-0.354-0.469-0.173-0.754z"></path>
<path fill="#231f20" d="M10.295 1.7c0.133-0.167 0.319-0.003 0.35 0.157-0.092-0.038-0.183-0.079-0.273-0.12-0.024 0.272 0.371 0.449 0.208 0.734-0.136 0.202-0.387 0.009-0.364-0.192 0.086 0.057 0.168 0.119 0.252 0.18 0.147-0.293-0.362-0.474-0.172-0.759z"></path>
<path fill="#231f20" d="M10.738 1.611c0.040 0 0.121 0 0.161 0 0 0.304 0 0.608 0 0.913-0.040 0-0.121 0-0.161 0 0-0.304 0-0.608 0-0.913z"></path>
<path fill="#231f20" d="M11.689 1.699c0.119-0.146 0.314-0.038 0.336 0.126-0.080-0.027-0.159-0.056-0.238-0.085-0.046 0.238-0.089 0.504 0.028 0.729 0.139-0.089 0.056-0.239 0.024-0.36 0.059-0.002 0.117-0.003 0.176-0.004-0.005 0.127 0.005 0.257-0.027 0.381-0.089 0.121-0.312 0.083-0.33-0.075-0.043-0.232-0.060-0.489 0.033-0.711z"></path>
<path fill="#231f20" d="M5.793 1.672c0.134-0.035 0.274-0.041 0.403 0.017-0.354 0.166 0.025 0.682-0.248 0.881-0.086-0.294 0.115-0.68-0.155-0.898z"></path>
<path fill="#231f20" d="M6.221 2.577c0.086-0.321 0.038-0.726 0.277-0.975 0.076 0.323 0.156 0.648 0.194 0.978-0.112-0.052-0.144-0.168-0.175-0.277-0.030 0-0.090-0.001-0.119-0.001-0.036 0.106-0.063 0.225-0.177 0.274M6.463 2.010c-0.072 0.025-0.093 0.178-0.005 0.194 0.077-0.021 0.090-0.177 0.005-0.194z"></path>
<path fill="#231f20" d="M6.825 1.633c0.33-0.079 0.49 0.255 0.302 0.506 0.029 0.145 0.056 0.29 0.075 0.437-0.188-0.093-0.161-0.336-0.249-0.5-0.015 0.154-0.018 0.309-0.019 0.464-0.028 0-0.083 0.001-0.111 0.001 0-0.302-0.003-0.605 0.002-0.907M6.928 1.755c0.009 0.1 0.020 0.201 0.034 0.301 0.101-0.057 0.128-0.163 0.143-0.269-0.045-0.008-0.133-0.024-0.177-0.032z"></path>
<path fill="#231f20" d="M7.25 1.653c0.132-0.007 0.265-0.010 0.398-0.009-0.244 0.237-0.109 0.596-0.141 0.896-0.028 0-0.086 0.001-0.114 0.001 0-0.243-0.001-0.486 0.001-0.729-0.049-0.052-0.096-0.105-0.143-0.159z"></path>
<path fill="#231f20" d="M8.812 2.596c-0.186-0.278-0.050-0.648-0.087-0.964 0.322-0.079 0.498 0.255 0.3 0.496 0.026 0.14 0.054 0.279 0.082 0.418-0.030-0.003-0.088-0.009-0.117-0.012-0.036-0.155-0.076-0.309-0.133-0.457-0.019 0.173-0.020 0.347-0.044 0.52M8.843 1.725c-0.003 0.104-0.004 0.208-0.002 0.312 0.205-0.021 0.19-0.275 0.002-0.312z"></path>
<path fill="#231f20" d="M11.084 1.605c0.16 0.091 0.18 0.287 0.25 0.44 0.027-0.147-0.052-0.354 0.112-0.441 0.017 0.326 0.020 0.654-0.004 0.98-0.161-0.14-0.178-0.366-0.256-0.552-0.004 0.169-0.004 0.339-0.004 0.508-0.028 0-0.085 0-0.113 0 0.004-0.312-0.013-0.624 0.015-0.935z"></path>
<path fill="#231f20" d="M2.362 2.040c0.68 0 1.36 0 2.040 0 0 0.859 0 1.718 0 2.577-0.68 0-1.36 0-2.040 0 0-0.859 0-1.718 0-2.577M3.449 2.36c-0.166 0.077-0.025 0.353 0.133 0.263 0.194-0.068 0.038-0.377-0.133-0.263M2.907 2.915c-0.002 0.173-0.004 0.347 0.017 0.52 0.13-0.137 0.065-0.355 0.195-0.495-0.040 0.455-0.087 0.907-0.225 1.344 0.032 0.023 0.096 0.070 0.128 0.093 0.097-0.246 0.185-0.495 0.293-0.736 0.157 0.202 0.212 0.455 0.29 0.693 0.056-0.019 0.112-0.039 0.168-0.057-0.070-0.31-0.146-0.623-0.324-0.892 0.016-0.070 0.031-0.139 0.046-0.209 0.155 0.096 0.33 0.154 0.511 0.169-0.097-0.102-0.213-0.181-0.316-0.276-0.096-0.127-0.095-0.337-0.255-0.408-0.199 0.024-0.359 0.157-0.528 0.253z"></path>
<path fill="#231f20" d="M5.369 2.631c2.219 0 4.439 0 6.658 0 0 0.040 0 0.121 0 0.161-2.219 0-4.439 0-6.658 0 0-0.040 0-0.121 0-0.161z"></path>
<path fill="#231f20" d="M6.79 2.997c0.029 0.001 0.087 0.001 0.116 0.002 0.015 0.126 0.028 0.253 0.045 0.379 0.031-0.14 0.059-0.281 0.096-0.42 0.114 0.104 0.113 0.265 0.148 0.405 0.033-0.139-0.003-0.334 0.159-0.398-0.051 0.324 0.001 0.688-0.167 0.981-0.053-0.172-0.081-0.35-0.114-0.526-0.042 0.176-0.026 0.382-0.155 0.525-0.069-0.311-0.086-0.632-0.127-0.948z"></path>
<path fill="#231f20" d="M7.897 3.059c0.019-0.021 0.058-0.064 0.077-0.086 0.018 0.105 0.037 0.209 0.060 0.313-0.069 0.214-0.034 0.438 0.019 0.65-0.252-0.072-0.163-0.364-0.174-0.56-0.017-0.019-0.051-0.057-0.068-0.076 0.032-0.079 0.061-0.16 0.086-0.242z"></path>
<path fill="#231f20" d="M8.526 3.059c0.027-0.020 0.083-0.060 0.111-0.079 0.002 0.078 0.003 0.157 0.004 0.235 0.042 0.009 0.126 0.028 0.168 0.038 0.050 0.229 0.053 0.469 0.007 0.699-0.161-0.188-0.023-0.452-0.144-0.656-0.039 0.216-0.023 0.438-0.055 0.655-0.186-0.251-0.048-0.6-0.090-0.891z"></path>
<path fill="#231f20" d="M9.451 2.998c0.114 0 0.228 0 0.342 0 0.001 0.028 0.002 0.085 0.003 0.114-0.078 0.002-0.156 0.004-0.234 0.005 0.001 0.073 0.002 0.146 0.003 0.219 0.035 0.005 0.105 0.015 0.14 0.019-0.002 0.025-0.006 0.076-0.009 0.101-0.033 0.003-0.098 0.010-0.13 0.013-0.016 0.159 0.051 0.359-0.094 0.475-0.041-0.314-0.016-0.631-0.021-0.947z"></path>
<path fill="#231f20" d="M7.432 3.413c0.003-0.135 0.137-0.258 0.256-0.151 0.104 0.194 0.043 0.428 0.057 0.639-0.126-0.003-0.309 0.021-0.324-0.152-0.061-0.188 0.132-0.289 0.238-0.405-0.076 0.023-0.152 0.046-0.228 0.069M7.551 3.598c-0.049 0.052-0.047 0.173 0.033 0.194 0.103-0.014 0.077-0.255-0.033-0.194z"></path>
<path fill="#231f20" d="M8.205 3.877c-0.185-0.188-0.097-0.864 0.248-0.561-0.019 0.035-0.056 0.106-0.075 0.142-0.031-0.034-0.091-0.103-0.121-0.137-0.022 0.159-0.023 0.322-0.008 0.482 0.067-0.042 0.135-0.082 0.206-0.118-0.026 0.109-0.112 0.304-0.25 0.192z"></path>
<path fill="#231f20" d="M9.897 3.233c0.341-0.072 0.311 0.791-0.024 0.641-0.111-0.184-0.13-0.477 0.024-0.641M9.946 3.83c0.088-0.166 0.075-0.356 0.031-0.532-0.101 0.162-0.070 0.356-0.031 0.532z"></path>
<path fill="#231f20" d="M10.244 3.238c0.088 0.002 0.175 0.003 0.263 0.005-0.045 0.059-0.093 0.115-0.142 0.171-0.005 0.164-0.008 0.329-0.012 0.493-0.027-0.006-0.083-0.020-0.111-0.027 0.002-0.214 0.002-0.428 0.002-0.643z"></path>
<path fill="#231f20" d="M7.209 4.134c0.029 0.003 0.088 0.009 0.117 0.012 0.030 0.164 0.060 0.329 0.093 0.492 0.059-0.179 0.004-0.434 0.198-0.539-0.057 0.329-0.041 0.698-0.221 0.987-0.091-0.311-0.128-0.635-0.186-0.952z"></path>
<path fill="#231f20" d="M8.123 4.199c0.038-0.025 0.076-0.050 0.114-0.076 0 0.081-0.001 0.161-0.001 0.242 0.042 0.006 0.127 0.018 0.169 0.024 0.043 0.213 0.040 0.432 0.037 0.649-0.028 0.001-0.084 0.002-0.112 0.003 0-0.2 0.002-0.4-0.028-0.598-0.103 0.183-0.056 0.398-0.065 0.598-0.028-0.001-0.085-0.003-0.113-0.004 0.001-0.279 0.001-0.558 0-0.838z"></path>
<path fill="#231f20" d="M9.215 4.194c0.028-0.018 0.085-0.053 0.113-0.070 0.001 0.305 0.001 0.609 0 0.914-0.028 0.001-0.085 0.002-0.113 0.002-0.001-0.282-0.001-0.564 0-0.846z"></path>
<path fill="#231f20" d="M7.717 4.895c-0.031-0.174-0.067-0.546 0.198-0.525 0.111 0.099 0.095 0.263 0.124 0.397-0.079 0.006-0.158 0.012-0.238 0.019 0.009 0.035 0.026 0.106 0.035 0.142 0.063-0.012 0.126-0.023 0.188-0.032-0.032 0.193-0.286 0.198-0.307-0.001M7.862 4.521c-0.195 0.153 0.2 0.145 0 0z"></path>
<path fill="#231f20" d="M8.871 4.415c0.128-0.139 0.245 0.040 0.276 0.161-0.074-0.023-0.147-0.047-0.221-0.071-0.003 0.153 0.001 0.306 0.020 0.458 0.052-0.053 0.104-0.105 0.156-0.156 0.026 0.113-0.030 0.293-0.179 0.238-0.168-0.153-0.139-0.44-0.053-0.63z"></path>
<path fill="#231f20" d="M9.47 4.923c-0.032-0.177-0.085-0.496 0.141-0.559 0.176 0.037 0.137 0.273 0.172 0.408-0.077 0.003-0.155 0.006-0.232 0.010 0.006 0.037 0.017 0.111 0.023 0.147 0.060-0.015 0.121-0.028 0.181-0.042 0.003 0.19-0.244 0.219-0.285 0.037M9.569 4.519c-0.071 0.052 0 0.201 0.083 0.136 0.070-0.052-0.002-0.2-0.083-0.136z"></path>
<path fill="#231f20" d="M9.854 4.424c0.080-0.129 0.203-0.006 0.281 0.057-0.057 0.003-0.171 0.011-0.228 0.015 0.18 0.162 0.343 0.588-0.048 0.557-0.011-0.039-0.032-0.118-0.043-0.157 0.069 0.017 0.137 0.033 0.207 0.049-0.026-0.184-0.272-0.331-0.169-0.521z"></path>
<path fill="#231f20" d="M8.577 4.383c0.028 0 0.085 0 0.113 0 0 0.219 0 0.438-0.001 0.657-0.028-0.001-0.084-0.002-0.112-0.003 0-0.218 0-0.436 0-0.654z"></path>
<path fill="#231f20" d="M2.698 5.795c0.017-0.011 0.050-0.032 0.068-0.042 0.070 0.147 0.142 0.294 0.18 0.454-0.124-0.109-0.18-0.267-0.248-0.412z"></path>
<path fill="#231f20" d="M3.329 5.745c0.027 0 0.081 0 0.107 0 0 0.143 0 0.286 0 0.43-0.027 0-0.081 0-0.107 0 0-0.143 0-0.286 0-0.43z"></path>
<path fill="#231f20" d="M7.112 5.879c0.338-0.035 0.267 0.454 0.251 0.672 0.030 0.203-0.259 0.354-0.354 0.14-0.055-0.252-0.133-0.639 0.104-0.812M7.102 6.651c0.032 0 0.098 0.001 0.13 0.001 0.033-0.236 0.037-0.48-0.042-0.708-0.177 0.193-0.104 0.473-0.088 0.708z"></path>
<path fill="#231f20" d="M9.262 5.932c0.136-0.155 0.32 0.004 0.337 0.168-0.088-0.039-0.174-0.079-0.26-0.121-0.025 0.276 0.389 0.473 0.186 0.758-0.158 0.166-0.355-0.032-0.354-0.214 0.090 0.056 0.176 0.118 0.263 0.177 0.127-0.299-0.371-0.482-0.172-0.768z"></path>
<path fill="#231f20" d="M10.655 5.874c0.314-0.076 0.501 0.248 0.302 0.494 0.028 0.151 0.056 0.302 0.072 0.455-0.182-0.101-0.158-0.339-0.242-0.506-0.034 0.173 0.024 0.379-0.112 0.519-0.042-0.319-0.018-0.642-0.020-0.962M10.773 5.965c-0.003 0.104-0.004 0.208-0.002 0.312 0.203-0.022 0.191-0.277 0.002-0.312z"></path>
<path fill="#231f20" d="M6.433 5.873c0.452-0.089 0.421 0.461 0.354 0.752-0.015 0.182-0.224 0.15-0.354 0.166-0.001-0.306-0.002-0.612 0-0.918M6.55 5.967c-0.008 0.243-0.007 0.486-0.001 0.729 0.239-0.117 0.228-0.605 0.001-0.729z"></path>
<path fill="#231f20" d="M7.64 6.826c-0.205-0.266-0.061-0.668-0.083-0.989 0.159 0.11 0.188 0.309 0.256 0.477 0.002-0.157 0.004-0.314 0.018-0.469 0.208 0.26 0.070 0.675 0.071 0.995-0.128-0.169-0.176-0.379-0.244-0.576-0.002 0.187 0.001 0.375-0.019 0.562z"></path>
<path fill="#231f20" d="M8.307 5.882c0.14-0.001 0.283-0.003 0.411 0.060-0.041 0.023-0.125 0.069-0.166 0.093 0.005 0.249 0.003 0.498 0.003 0.747-0.028-0.001-0.085-0.002-0.114-0.002-0.031-0.3 0.098-0.654-0.134-0.898z"></path>
<path fill="#231f20" d="M9.616 5.892c0.137-0.006 0.274-0.008 0.412-0.002-0.049 0.054-0.1 0.106-0.151 0.157-0.004 0.244-0.003 0.489-0.003 0.733-0.028-0.001-0.085-0.001-0.114-0.001 0-0.242-0.001-0.485 0.001-0.727-0.049-0.053-0.097-0.107-0.144-0.161z"></path>
<path fill="#231f20" d="M10.054 6.818c0.040-0.331 0.113-0.658 0.197-0.98 0.227 0.262 0.192 0.655 0.275 0.979-0.113-0.052-0.15-0.164-0.182-0.274-0.029 0-0.088 0-0.117 0-0.029 0.109-0.061 0.223-0.172 0.275M10.268 6.271c-0.132 0.228 0.209 0.094 0 0z"></path>
<path fill="#231f20" d="M2.362 6.282c0.68 0 1.36 0 2.040 0 0 0.859 0 1.718 0 2.577-0.68 0-1.36 0-2.040 0 0-0.859 0-1.718 0-2.577M3.373 6.388c-0.042 0.337-0.010 0.679-0.075 1.013-0.028-0.287-0.018-0.576-0.027-0.864-0.038 0-0.115 0.001-0.153 0.001-0.009 0.288-0.003 0.577-0.034 0.864-0.083-0.223 0.064-0.579-0.192-0.696 0.008 0.503-0.17 1.057 0.096 1.517 0.035 0.159 0.011 0.324 0.006 0.485 0.231-0.001 0.462-0.001 0.693 0.001-0.010-0.208-0.092-0.471 0.105-0.619 0.257-0.219 0.413-0.522 0.54-0.828-0.271-0.005-0.372 0.275-0.527 0.445-0.050-0.376-0.017-0.758-0.070-1.132-0.034-0.018-0.104-0.053-0.138-0.071-0.016 0.308 0 0.617-0.036 0.925-0.12-0.332 0.112-0.814-0.186-1.039z"></path>
<path fill="#231f20" d="M6.443 6.872c1.682 0 3.365 0 5.047 0 0 0.040 0 0.121 0 0.161-1.682 0-3.365 0-5.047 0 0-0.040 0-0.121 0-0.161z"></path>
<path fill="#231f20" d="M6.177 7.238c0.114 0 0.228 0 0.341 0 0.001 0.028 0.003 0.086 0.003 0.114-0.078 0.002-0.156 0.004-0.234 0.006 0.001 0.072 0.002 0.144 0.003 0.217 0.037 0.006 0.11 0.018 0.146 0.024-0.005 0.024-0.015 0.074-0.020 0.098-0.031 0.004-0.094 0.010-0.126 0.014-0.013 0.159 0.050 0.358-0.093 0.476-0.041-0.315-0.016-0.632-0.021-0.949z"></path>
<path fill="#231f20" d="M7.864 7.288c0.028-0.015 0.085-0.046 0.113-0.061-0.001 0.075-0.002 0.15-0.003 0.224 0.044 0.011 0.13 0.034 0.174 0.045 0.026 0.229 0.099 0.496-0.052 0.697-0.042-0.217-0.018-0.441-0.056-0.659-0.099 0.186-0.059 0.4-0.065 0.601-0.028 0-0.084 0.001-0.112 0.001-0.001-0.283-0.002-0.566 0.001-0.849z"></path>
<path fill="#231f20" d="M8.871 7.321c0.082-0.187 0.315-0.072 0.358 0.084-0.089-0.017-0.178-0.035-0.267-0.053-0.034 0.232-0.047 0.472 0.026 0.699 0.074-0.055 0.148-0.111 0.223-0.164 0.035 0.194-0.181 0.366-0.331 0.198-0.090-0.239-0.085-0.519-0.010-0.762z"></path>
<path fill="#231f20" d="M1.826 7.463c0.143 0 0.286 0 0.43 0 0 0.027 0 0.081 0 0.107-0.143 0-0.286 0-0.43 0 0-0.027 0-0.081 0-0.107z"></path>
<path fill="#231f20" d="M4.564 7.463c0.143 0 0.286 0 0.43 0 0 0.027 0 0.081 0 0.107-0.143 0-0.286 0-0.43 0 0-0.027 0-0.081 0-0.107z"></path>
<path fill="#231f20" d="M6.816 7.482c0.093-0.003 0.186-0.008 0.279-0.011 0.048 0.236 0.055 0.481 0.015 0.719-0.17-0.179-0.039-0.451-0.13-0.664-0.077 0.212-0.039 0.44-0.075 0.659-0.175-0.185-0.056-0.474-0.089-0.703z"></path>
<path fill="#231f20" d="M7.269 7.478c0.028 0.001 0.085 0.002 0.113 0.003 0 0.217 0 0.435 0 0.653-0.028 0.001-0.084 0.003-0.113 0.005-0.001-0.22-0.001-0.44 0-0.66z"></path>
<path fill="#231f20" d="M7.54 7.493c0.106-0.102 0.195 0.047 0.23 0.136-0.050-0.016-0.149-0.048-0.199-0.063 0.062 0.154 0.236 0.288 0.194 0.468-0.031 0.132-0.179 0.105-0.278 0.095 0.003-0.036 0.010-0.108 0.013-0.144 0.042 0.017 0.126 0.052 0.168 0.069 0.014-0.206-0.304-0.367-0.128-0.56z"></path>
<path fill="#231f20" d="M9.282 7.479c0.086 0 0.173 0.001 0.26 0.004-0.046 0.059-0.094 0.116-0.142 0.173-0.003 0.177-0.002 0.354-0.028 0.529-0.177-0.187-0.059-0.476-0.090-0.707z"></path>
<path fill="#231f20" d="M9.681 7.473c0.341-0.071 0.311 0.786-0.022 0.642-0.114-0.183-0.133-0.478 0.022-0.642M9.729 7.538c-0.046 0.176-0.060 0.367 0.032 0.531 0.038-0.176 0.064-0.368-0.032-0.531z"></path>
<path fill="#231f20" d="M10.027 7.502c0.093-0.11 0.197 0.032 0.267 0.095-0.076-0.003-0.151-0.006-0.226-0.010 0.082 0.154 0.28 0.312 0.168 0.5-0.090 0.12-0.23 0.038-0.288-0.067 0.079 0.002 0.158 0.003 0.237 0.006-0.045-0.175-0.294-0.338-0.158-0.524z"></path>
<path fill="#231f20" d="M10.351 7.504c0.108-0.109 0.195 0.016 0.266 0.098-0.074-0.005-0.148-0.010-0.222-0.015 0.088 0.149 0.294 0.318 0.172 0.504-0.094 0.117-0.227 0.025-0.296-0.066 0.081-0.002 0.163-0.003 0.245-0.003-0.049-0.174-0.279-0.327-0.165-0.518z"></path>
<path fill="#231f20" d="M10.698 7.467c0.027 0.007 0.083 0.021 0.111 0.028-0.033 0.227 0.081 0.508-0.093 0.693-0.035-0.239-0.023-0.481-0.018-0.722z"></path>
<path fill="#231f20" d="M10.954 7.483c0.093-0.004 0.185-0.009 0.278-0.013 0.051 0.235 0.055 0.479 0.018 0.717-0.176-0.174-0.034-0.452-0.136-0.662-0.104 0.208 0.042 0.49-0.138 0.661-0.033-0.233-0.020-0.468-0.022-0.703z"></path>
<path fill="#231f20" d="M11.597 8.194c-0.329-0.112-0.318-0.83 0.11-0.726-0.051 0.336 0.143 0.791-0.184 1.023 0.011-0.103 0.041-0.201 0.075-0.297M11.547 8.088c0.068-0.178 0.074-0.376 0.001-0.554-0.079 0.177-0.081 0.377-0.001 0.554z"></path>
<path fill="#231f20" d="M7.195 8.376c0.040 0 0.121 0 0.161 0 0 0.304 0 0.608 0 0.913-0.040 0-0.121 0-0.161 0 0-0.304 0-0.608 0-0.913z"></path>
<path fill="#231f20" d="M7.526 8.382c0.040-0.004 0.12-0.011 0.16-0.015-0.022 0.059-0.045 0.117-0.067 0.176 0.013 0.043 0.026 0.086 0.039 0.129-0.048 0.199-0.038 0.405-0.039 0.609-0.028-0.001-0.083-0.003-0.111-0.004 0.016-0.299-0.055-0.6 0.018-0.894z"></path>
<path fill="#231f20" d="M8.236 8.452c0.117-0.181 0.329-0.032 0.362 0.133-0.092-0.032-0.183-0.068-0.277-0.095-0.009 0.261 0.377 0.448 0.206 0.727-0.142 0.187-0.358 0.002-0.373-0.179 0.095 0.047 0.186 0.102 0.282 0.145 0.099-0.286-0.355-0.449-0.201-0.732z"></path>
<path fill="#231f20" d="M8.696 8.436c0.021-0.019 0.063-0.059 0.084-0.078 0.018 0.106 0.037 0.212 0.060 0.317-0.062 0.202-0.059 0.42 0.034 0.613-0.319-0.005-0.127-0.419-0.236-0.611 0.021-0.080 0.040-0.161 0.059-0.241z"></path>
<path fill="#231f20" d="M9.698 8.432c0.024-0.016 0.071-0.048 0.094-0.064 0.020 0.102 0.042 0.204 0.068 0.305-0.078 0.2-0.065 0.42 0.028 0.614-0.302 0.008-0.168-0.379-0.199-0.569-0.066 0.009-0.131 0.018-0.196 0.027-0.009 0.177-0.009 0.355-0.009 0.532-0.028 0.001-0.084 0.004-0.112 0.005-0.002-0.22-0.002-0.439-0.001-0.659 0.105 0 0.209 0.002 0.314 0.005 0.004-0.066 0.008-0.13 0.011-0.195z"></path>
<path fill="#231f20" d="M10.552 8.427c0.027-0.015 0.083-0.044 0.111-0.059 0 0.301-0.001 0.602 0.001 0.904-0.086 0.005-0.172 0.012-0.258 0.020-0.096-0.209-0.090-0.443-0.018-0.659 0.040-0.008 0.119-0.022 0.159-0.030 0.001-0.059 0.003-0.118 0.005-0.177M10.478 8.688c-0.038 0.174-0.038 0.355 0.005 0.529 0.090-0.162 0.104-0.373-0.005-0.529z"></path>
<path fill="#231f20" d="M8.947 8.655c0.038-0.018 0.114-0.054 0.152-0.072 0.22 0.168 0.118 0.468 0.139 0.704-0.11-0.017-0.281 0.031-0.312-0.117-0.092-0.2 0.102-0.327 0.233-0.435-0.072 0.018-0.143 0.036-0.214 0.055 0.001-0.033 0.002-0.1 0.003-0.134M9.107 9.221c0.008-0.099 0.011-0.199 0.009-0.298-0.125 0.070-0.114 0.217-0.009 0.298z"></path>
<path fill="#231f20" d="M10.246 9.254c-0.379 0.173-0.424-0.544-0.152-0.654 0.183 0.040 0.145 0.272 0.178 0.411-0.078 0.005-0.157 0.011-0.236 0.017 0.008 0.037 0.024 0.11 0.032 0.147 0.045-0.017 0.091-0.033 0.136-0.050 0.010 0.033 0.031 0.098 0.041 0.13M10.059 8.759c-0.075 0.052-0.002 0.2 0.081 0.133 0.071-0.051 0-0.201-0.081-0.133z"></path>
<path fill="#231f20" d="M2.471 8.926c0.049-0.003 0.148-0.010 0.198-0.013-0.032 0.021-0.096 0.064-0.128 0.086 0.014 0.147-0.009 0.293-0.054 0.433-0.017-0.168-0.015-0.337-0.016-0.505z"></path>
<path fill="#231f20" d="M3.332 9.274c-0.075-0.12-0.212-0.253-0.081-0.387 0.052 0.037 0.104 0.075 0.156 0.113-0.045-0.001-0.135-0.003-0.18-0.003 0.088 0.124 0.208 0.28 0.067 0.416-0.050-0.047-0.099-0.094-0.149-0.141 0.062 0.001 0.125 0.002 0.187 0.003z"></path>
<path fill="#231f20" d="M3.438 8.875c0.027 0.064 0.054 0.129 0.079 0.195 0.042-0.060 0.079-0.123 0.118-0.186-0.006 0.172-0.001 0.345-0.001 0.517-0.036-0.075-0.073-0.15-0.114-0.223-0.024 0.083-0.046 0.166-0.071 0.249-0.012-0.184-0.010-0.368-0.011-0.552z"></path>
<path fill="#231f20" d="M3.705 8.913c0.027 0 0.081 0 0.107 0 0 0.161 0 0.322 0 0.483-0.027 0-0.081 0-0.107 0 0-0.161 0-0.322 0-0.483z"></path>
<path fill="#231f20" d="M2.362 9.45c0.68 0 1.36 0 2.040 0 0 0.788 0 1.575 0 2.362-0.68 0-1.36 0-2.040 0 0-0.788 0-1.575 0-2.362M3.159 9.773c-0.003 0.586-0.004 1.173 0.001 1.759 0.031 0.001 0.094 0.001 0.125 0.001 0.005-0.587 0.004-1.174 0.001-1.761-0.032 0-0.095 0.001-0.126 0.001M3.477 9.803c0.002 0.569 0 1.138 0.001 1.707 0.256 0.031 0.527 0.076 0.776-0.011 0.039-0.565 0.007-1.136 0.013-1.703-0.263-0.035-0.529-0.039-0.79 0.007z"></path>
<path fill="#231f20" d="M6.443 9.557c1.682 0 3.365 0 5.047 0 0 0.040 0 0.121 0 0.161-1.682 0-3.365 0-5.047 0 0-0.040 0-0.121 0-0.161z"></path>
<path fill="#231f20" d="M3.606 9.893c0.178 0.001 0.357 0.001 0.535 0.001 0.002 0.231 0.002 0.463 0.001 0.695-0.179 0.001-0.358 0.001-0.536 0-0.001-0.232-0.001-0.463 0.001-0.695z"></path>
<path fill="#231f20" d="M5.5 10.037c0.144-0.007 0.288-0.007 0.433-0.005-0.261 0.251-0.108 0.637-0.148 0.956-0.031-0.001-0.093-0.002-0.124-0.002-0.001-0.261 0.001-0.523-0.003-0.784-0.054-0.054-0.107-0.108-0.158-0.164z"></path>
<path fill="#231f20" d="M6.013 10.040c0.040 0 0.121 0 0.161 0 0 0.322 0 0.644 0 0.966-0.040 0-0.121 0-0.161 0 0-0.322 0-0.644 0-0.966z"></path>
<path fill="#231f20" d="M6.354 9.995c0.164 0.056 0.171 0.242 0.223 0.381 0.053-0.139 0.072-0.312 0.223-0.382 0.024 0.33 0.008 0.661 0.013 0.991-0.031 0-0.094 0.001-0.125 0.001 0-0.18 0.001-0.36-0.002-0.54-0.036 0.106-0.070 0.213-0.105 0.319-0.038-0.105-0.075-0.211-0.112-0.317 0 0.179 0 0.359 0 0.538-0.031-0.001-0.094-0.001-0.126-0.002 0.004-0.33-0.010-0.66 0.011-0.989z"></path>
<path fill="#231f20" d="M7.007 10.031c0.121-0.001 0.242-0.001 0.363-0.002 0 0.031 0 0.093 0 0.125-0.079 0.001-0.159 0.001-0.239 0.002 0.001 0.077 0.001 0.154 0.002 0.23 0.068 0.031 0.137 0.062 0.204 0.096-0.052 0.015-0.154 0.046-0.206 0.061 0.001 0.106 0.001 0.212 0.001 0.317 0.079 0.001 0.159 0.001 0.239 0.002-0.001 0.031-0.002 0.093-0.003 0.123-0.121 0-0.242 0-0.362 0 0.001-0.318 0.001-0.636 0-0.955z"></path>
<path fill="#231f20" d="M7.834 10.020c0.341-0.088 0.534 0.273 0.317 0.528 0.030 0.146 0.060 0.29 0.092 0.435-0.031 0.001-0.092 0.004-0.123 0.005-0.039-0.17-0.074-0.343-0.141-0.505-0.046 0.183 0.041 0.416-0.118 0.555-0.052-0.337-0.021-0.679-0.028-1.019M7.96 10.146c0 0.091-0.001 0.183-0.001 0.274 0.036-0.007 0.109-0.020 0.146-0.027-0.001-0.075-0.002-0.149-0.002-0.223-0.036-0.006-0.107-0.019-0.143-0.025z"></path>
<path fill="#231f20" d="M8.383 10.030c0.121 0 0.242 0 0.363 0 0.001 0.031 0.001 0.093 0.001 0.124-0.079 0.001-0.159 0.001-0.238 0.001-0.002 0.077-0.003 0.155-0.006 0.232 0.054 0.021 0.161 0.062 0.215 0.083-0.054 0.020-0.161 0.062-0.214 0.082 0.002 0.102 0.003 0.205 0.005 0.307 0.081 0.002 0.161 0.003 0.242 0.005-0.002 0.031-0.005 0.092-0.006 0.122-0.121-0.001-0.241-0.001-0.362-0.001 0-0.318 0-0.637 0-0.956z"></path>
<path fill="#231f20" d="M8.884 10.034c0.031-0.001 0.095-0.003 0.126-0.004 0.034 0.113 0.069 0.225 0.104 0.338 0.057-0.137 0.083-0.305 0.232-0.375-0.041 0.338 0.122 0.76-0.091 1.043-0.031-0.191-0.028-0.386-0.031-0.578-0.037 0.101-0.070 0.204-0.105 0.307-0.034-0.093-0.069-0.185-0.105-0.278-0.006 0.167-0.008 0.335-0.009 0.501-0.031-0.001-0.092-0.003-0.123-0.003 0.001-0.317 0.001-0.634 0-0.951z"></path>
<path fill="#231f20" d="M9.669 10.025c0.032 0.004 0.096 0.011 0.127 0.015 0.062 0.317 0.13 0.632 0.192 0.949-0.032-0.002-0.096-0.005-0.128-0.006-0.016-0.078-0.032-0.157-0.048-0.235-0.039-0.001-0.117-0.004-0.156-0.006-0.021 0.083-0.041 0.166-0.062 0.249-0.030-0.002-0.091-0.006-0.121-0.009 0.066-0.319 0.131-0.638 0.197-0.957M9.734 10.439c-0.072 0.026-0.092 0.179-0.004 0.195 0.079-0.021 0.088-0.177 0.004-0.195z"></path>
<path fill="#231f20" d="M10.094 10.040c0.040 0 0.121 0 0.161 0 0 0.322 0 0.644 0 0.966-0.040 0-0.121 0-0.161 0 0-0.322 0-0.644 0-0.966z"></path>
<path fill="#231f20" d="M10.438 9.995c0.205 0.088 0.188 0.347 0.272 0.524 0.003-0.163 0.004-0.326 0.004-0.489 0.031 0 0.093 0 0.124 0-0.001 0.322 0.002 0.643-0.003 0.964-0.029-0.004-0.086-0.011-0.115-0.014-0.054-0.177-0.109-0.353-0.166-0.528-0.002 0.179-0.002 0.357-0.002 0.536-0.032-0.001-0.094-0.003-0.125-0.004 0.005-0.33-0.010-0.659 0.011-0.988z"></path>
<path fill="#231f20" d="M11.007 10.040c0.040 0 0.121 0 0.161 0 0 0.322 0 0.644 0 0.966-0.040 0-0.121 0-0.161 0 0-0.322 0-0.644 0-0.966z"></path>
<path fill="#231f20" d="M11.353 10.034c0.032-0.001 0.095-0.003 0.127-0.004 0.050 0.165 0.101 0.33 0.157 0.492 0.004-0.164 0.004-0.328 0.004-0.492 0.031 0 0.093 0 0.123 0-0.008 0.337 0.025 0.676-0.031 1.010-0.149-0.144-0.17-0.361-0.247-0.544-0.008 0.164-0.009 0.328-0.010 0.492-0.031-0.001-0.092-0.003-0.123-0.003 0.001-0.317 0.001-0.634-0.001-0.951z"></path>
<path fill="#231f20" d="M11.974 10.155c0.074-0.224 0.355-0.132 0.4 0.062-0.092-0.021-0.183-0.046-0.273-0.072-0.058 0.255-0.082 0.534 0.039 0.776 0.103-0.123 0.064-0.255-0.006-0.379 0.071-0.003 0.142-0.006 0.213-0.009 0.020 0.184-0.005 0.555-0.283 0.44-0.202-0.207-0.139-0.558-0.090-0.819z"></path>
<path fill="#231f20" d="M3.606 10.703c0.178 0 0.357 0 0.535 0 0.003 0.237 0.003 0.474-0.001 0.71-0.178-0.001-0.355 0-0.533 0.001-0.002-0.237-0.002-0.474-0.001-0.711z"></path>
<path fill="#231f20" d="M6.728 11.27c0.121 0 0.242 0 0.363 0 0.001 0.031 0.001 0.093 0.001 0.124-0.080 0-0.159 0.001-0.239 0.001-0.001 0.076-0.002 0.151-0.003 0.227 0.204 0.009 0.161 0.15 0.004 0.19-0.002 0.138-0.002 0.276-0.002 0.413-0.031 0.001-0.092 0.001-0.123 0.002-0.001-0.319-0.001-0.638-0.001-0.957z"></path>
<path fill="#231f20" d="M8.528 11.335c0.032-0.019 0.095-0.056 0.127-0.075-0.002 0.089-0.003 0.178-0.005 0.268 0.045-0.001 0.136-0.002 0.181-0.003 0.060 0.229 0.043 0.467 0.042 0.701-0.031 0-0.092 0.001-0.122 0.001-0.002-0.194-0.002-0.389-0.004-0.583-0.023 0.003-0.069 0.007-0.091 0.010-0.002 0.191-0.002 0.382-0.002 0.572-0.031 0-0.093 0-0.125 0-0.001-0.297 0-0.594-0.001-0.891z"></path>
<path fill="#231f20" d="M9.467 11.353c0.114-0.186 0.323-0.053 0.386 0.101-0.092-0.020-0.183-0.043-0.273-0.067-0.062 0.242-0.071 0.498 0.003 0.739 0.082-0.057 0.164-0.114 0.249-0.166 0.015 0.191-0.208 0.39-0.355 0.201-0.106-0.249-0.094-0.554-0.009-0.808z"></path>
<path fill="#231f20" d="M8.178 11.559c0.11-0.117 0.232 0.016 0.285 0.115-0.077-0.005-0.155-0.011-0.232-0.017 0.079 0.147 0.273 0.285 0.198 0.47-0.041 0.129-0.192 0.098-0.294 0.086 0.004-0.041 0.013-0.124 0.018-0.165 0.067 0.019 0.133 0.038 0.201 0.056-0.055-0.179-0.321-0.348-0.177-0.546z"></path>
<path fill="#231f20" d="M10.69 11.604c0.039-0.105 0.161-0.075 0.247-0.078 0.005 0.043 0.016 0.129 0.022 0.172-0.064-0.023-0.129-0.046-0.194-0.068 0.144 0.177 0.186 0.517 0.481 0.479-0.052-0.178-0.297-0.325-0.196-0.524 0.052-0.101 0.171-0.050 0.256-0.040-0.002 0.050-0.004 0.1-0.005 0.15-0.046-0.014-0.137-0.041-0.183-0.055 0.071 0.157 0.274 0.296 0.202 0.486-0.039 0.123-0.185 0.096-0.284 0.104-0.007-0.034-0.020-0.101-0.027-0.135-0.078 0.118-0.199 0.157-0.331 0.117 0.001-0.041 0.003-0.123 0.004-0.164 0.068 0.022 0.136 0.043 0.205 0.065-0.037-0.181-0.264-0.313-0.197-0.508z"></path>
<path fill="#231f20" d="M5.922 11.546c0.34-0.11 0.345 0.549 0.13 0.685-0.308 0.003-0.27-0.518-0.13-0.685M5.979 11.611c-0.028 0.172-0.027 0.348 0.003 0.52 0.116-0.143 0.118-0.379-0.003-0.52z"></path>
<path fill="#231f20" d="M7.444 11.522c0.464-0.119 0.334 0.425 0.34 0.706-0.030-0.001-0.091-0.002-0.121-0.003-0.017-0.209 0.056-0.446-0.071-0.631-0.032 0.213-0.024 0.428-0.028 0.642-0.031-0.006-0.093-0.018-0.123-0.024 0.003-0.23 0.002-0.46 0.003-0.69z"></path>
<path fill="#231f20" d="M7.916 11.532c0.031-0.002 0.094-0.005 0.125-0.006 0.001 0.234 0.001 0.468-0.001 0.702-0.031-0.001-0.093-0.003-0.124-0.003 0-0.231 0-0.462-0.001-0.693z"></path>
<path fill="#231f20" d="M9.957 12.225c0-0.234-0.001-0.467 0.002-0.7 0.089 0.002 0.178 0.004 0.267 0.007-0.209 0.177-0.135 0.456-0.146 0.696-0.031-0.001-0.093-0.002-0.124-0.003z"></path>
<path fill="#231f20" d="M10.331 11.561c0.381-0.215 0.403 0.808 0.016 0.643-0.133-0.172-0.126-0.46-0.016-0.643M10.459 12.145c0.033-0.179 0.035-0.362 0-0.541-0.114 0.159-0.104 0.38 0 0.541z"></path>
<path fill="#231f20" d="M11.681 11.522c0.469-0.119 0.335 0.432 0.339 0.715-0.031-0.006-0.092-0.019-0.123-0.025-0.013-0.205 0.059-0.438-0.069-0.618-0.030 0.209-0.025 0.42-0.023 0.63-0.031 0.001-0.094 0.001-0.125 0.002 0-0.235-0.001-0.469 0.001-0.704z"></path>
<path fill="#231f20" d="M12.361 12.278c-0.325-0.097-0.265-0.519-0.148-0.758 0.088 0.004 0.177 0.009 0.265 0.013-0.059 0.35 0.161 0.843-0.201 1.070-0.002-0.115 0.045-0.22 0.084-0.325M12.301 12.161c0.076-0.176 0.057-0.369 0.032-0.553-0.143 0.151-0.089 0.377-0.032 0.553z"></path>
<path fill="#231f20" d="M2.869 11.925c0.030 0 0.091 0.001 0.121 0.002-0.021 0.17-0.025 0.342-0.057 0.51-0.026-0.17-0.035-0.342-0.064-0.512z"></path>
<path fill="#231f20" d="M3.053 11.919c0.028 0 0.086 0 0.115 0 0 0.161 0 0.322 0 0.483-0.027 0-0.079 0-0.106 0-0.001-0.161-0.003-0.322-0.009-0.483z"></path>
<path fill="#231f20" d="M3.536 11.937c0.048-0.002 0.146-0.005 0.195-0.007-0.041 0.028-0.082 0.055-0.122 0.083 0.003 0.097-0.001 0.193-0.007 0.289 0.045 0.024 0.090 0.048 0.135 0.074-0.050 0.002-0.15 0.007-0.201 0.009 0-0.149 0-0.299 0-0.448z"></path>
<path fill="#231f20" d="M2.665 13.337c0.069-0.032 0.139-0.063 0.208-0.093-0.032 0.051-0.064 0.103-0.097 0.154 0.068 0.101 0.107 0.217 0.099 0.34-0.084-0.030-0.163-0.071-0.239-0.118 0.052 0.003 0.155 0.010 0.206 0.013-0.059-0.099-0.119-0.196-0.177-0.295z"></path>
<path fill="#231f20" d="M3.902 13.227c0.028 0.036 0.083 0.108 0.111 0.144 0.042-0.046 0.084-0.093 0.126-0.14-0.060 0.169-0.099 0.343-0.125 0.52-0.030-0.177-0.067-0.352-0.113-0.525z"></path>
<path fill="#231f20" d="M2.362 13.799c0.68 0 1.36 0 2.040 0 0 0.859 0 1.718 0 2.577-0.68 0-1.36 0-2.040 0 0-0.859 0-1.718 0-2.577M3.383 13.969c-0.073 0.325-0.011 0.666-0.085 0.992-0.048-0.301 0.032-0.619-0.071-0.911-0.243 0.197-0.054 0.625-0.142 0.912-0.090-0.203 0.068-0.644-0.184-0.673-0.056 0.387-0.052 0.786-0.047 1.176 0.14 0.244 0.186 0.517 0.135 0.795 0.232-0.004 0.465-0.004 0.697 0.002-0.006-0.203-0.093-0.464 0.096-0.612 0.263-0.223 0.429-0.532 0.548-0.85-0.264 0.020-0.37 0.28-0.525 0.453-0.043-0.387-0.034-0.776-0.064-1.164-0.035-0.003-0.104-0.008-0.139-0.010-0.023 0.295-0.008 0.592-0.040 0.886-0.071-0.325-0.009-0.663-0.070-0.988-0.027-0.002-0.082-0.005-0.108-0.006z"></path>
<path fill="#231f20" d="M6.219 14.315c0.464-0.085 0.422 0.487 0.345 0.784-0.033 0.161-0.225 0.112-0.344 0.136-0.003-0.307-0.003-0.613-0.001-0.92M6.343 14.409c-0.016 0.243-0.016 0.486 0.001 0.73 0.225-0.126 0.22-0.6-0.001-0.73z"></path>
<path fill="#231f20" d="M6.842 14.353c0.264-0.164 0.347 0.224 0.324 0.412 0.015 0.185-0.035 0.575-0.308 0.447-0.167-0.232-0.156-0.617-0.016-0.859M6.928 14.385c-0.090 0.253-0.089 0.534 0.004 0.786 0.165-0.221 0.158-0.565-0.004-0.786z"></path>
<path fill="#231f20" d="M7.341 14.284c0.169 0.099 0.185 0.307 0.259 0.471 0.002-0.143 0.002-0.287 0.002-0.43 0.028 0.001 0.085 0.003 0.113 0.003-0.001 0.303 0.004 0.607-0.004 0.911-0.025-0.007-0.074-0.020-0.098-0.027-0.055-0.171-0.112-0.341-0.17-0.511-0.001 0.174-0.001 0.348-0.001 0.523l-0.114-0.001c0.004-0.313-0.012-0.627 0.013-0.939z"></path>
<path fill="#231f20" d="M8.082 14.365c0.143-0.053 0.297-0.048 0.434 0.019-0.045 0.020-0.134 0.061-0.178 0.082-0.021 0.271 0.078 0.575-0.079 0.817-0.118-0.295 0.121-0.716-0.177-0.918z"></path>
<path fill="#231f20" d="M9.093 14.351c0.138-0.109 0.274 0.022 0.324 0.152-0.087-0.023-0.173-0.048-0.259-0.073-0.048 0.237-0.053 0.483 0.014 0.717 0.069-0.059 0.137-0.118 0.208-0.175 0.081 0.207-0.191 0.374-0.32 0.186-0.075-0.255-0.097-0.566 0.033-0.807z"></path>
<path fill="#231f20" d="M9.49 14.315c0.178-0.013 0.441 0.045 0.379 0.282-0.104 0.203-0.046 0.422 0.003 0.632-0.028-0.003-0.086-0.009-0.114-0.011-0.037-0.156-0.075-0.311-0.137-0.459-0.016 0.158-0.019 0.317-0.023 0.476-0.027-0.005-0.081-0.016-0.108-0.021 0.002-0.3 0-0.599 0.002-0.899M9.598 14.411c0.008 0.108 0.019 0.216 0.034 0.324 0.17-0.070 0.169-0.303-0.034-0.324z"></path>
<path fill="#231f20" d="M10.106 14.337c0.29-0.119 0.318 0.295 0.304 0.485 0.022 0.181-0.084 0.539-0.323 0.377-0.141-0.246-0.153-0.628 0.018-0.862M10.156 14.402c-0.056 0.254-0.092 0.539 0.046 0.774 0.098-0.233 0.172-0.589-0.046-0.774z"></path>
<path fill="#231f20" d="M10.605 14.362c0.151-0.14 0.308 0.031 0.314 0.191-0.089-0.047-0.178-0.095-0.267-0.141 0.003 0.274 0.384 0.464 0.216 0.752-0.147 0.189-0.382-0.010-0.356-0.207 0.070 0.052 0.138 0.108 0.205 0.166 0.024-0.011 0.073-0.033 0.097-0.043-0.017-0.258-0.409-0.459-0.208-0.718z"></path>
<path fill="#231f20" d="M11.060 14.654c-0.1-0.125-0.016-0.357 0.159-0.342 0.133 0.004 0.141 0.152 0.17 0.249-0.075-0.047-0.149-0.097-0.222-0.147-0.010 0.033-0.031 0.1-0.042 0.133 0.139 0.173 0.368 0.418 0.195 0.643-0.169 0.148-0.35-0.050-0.334-0.232 0.088 0.062 0.17 0.13 0.255 0.196 0.071-0.198-0.081-0.35-0.182-0.5z"></path>
<path fill="#231f20" d="M3.867 17.607c0.181 0.006 0.478-0.035 0.5 0.22 0.053 0.235-0.187 0.313-0.373 0.306 0.001 0.126 0.001 0.253 0.001 0.38-0.032 0-0.096 0.001-0.128 0.001-0.002-0.302-0.002-0.603 0.001-0.905M4 17.721c-0.003 0.097-0.004 0.193-0.005 0.29 0.307 0.047 0.307-0.329 0.005-0.29z"></path>
<path fill="#231f20" d="M4.492 17.613c0.032 0.001 0.097 0.001 0.129 0.002 0.007 0.244-0.023 0.492 0.020 0.733 0.058 0.071 0.169 0.073 0.21-0.017 0.035-0.237 0.009-0.478 0.015-0.717 0.032 0 0.096-0.001 0.127-0.002-0.004 0.248 0.023 0.498-0.015 0.744-0.059 0.22-0.41 0.22-0.47 0-0.038-0.246-0.010-0.496-0.016-0.744z"></path>
<path fill="#231f20" d="M5.236 17.691c0.145-0.199 0.418-0.045 0.433 0.17-0.098-0.046-0.192-0.1-0.285-0.155-0.174 0.181 0.101 0.261 0.2 0.387 0.152 0.159 0.010 0.463-0.213 0.433-0.162-0.011-0.213-0.183-0.242-0.314 0.1 0.048 0.178 0.126 0.252 0.207 0.446-0.232-0.412-0.413-0.145-0.728z"></path>
<path fill="#231f20" d="M6.942 17.609c0.289-0.078 0.629 0.113 0.429 0.434 0.228 0.312-0.122 0.564-0.428 0.474-0.002-0.302-0.002-0.605-0.001-0.907M7.068 17.735c0.002 0.090 0.005 0.18 0.008 0.27 0.149-0.007 0.242-0.089 0.249-0.241-0.085-0.012-0.171-0.021-0.257-0.030M7.074 18.079c-0.002 0.109-0.002 0.217-0.001 0.327 0.314 0.038 0.301-0.354 0.001-0.327z"></path>
<path fill="#231f20" d="M7.596 17.616c0.032-0.002 0.097-0.004 0.129-0.006 0.006 0.231-0.015 0.465 0.013 0.696 0.004 0.123 0.216 0.126 0.221 0.002 0.027-0.229 0.007-0.461 0.010-0.692 0.032-0.002 0.097-0.004 0.129-0.006-0.004 0.245 0.021 0.493-0.013 0.737-0.050 0.219-0.39 0.236-0.466 0.026-0.050-0.248-0.012-0.505-0.023-0.757z"></path>
<path fill="#231f20" d="M8.177 17.632c0.185-0.026 0.374-0.025 0.559 0.004-0.070 0.048-0.143 0.092-0.217 0.134-0.001 0.247-0.001 0.494-0.001 0.741-0.032 0.001-0.096 0.002-0.128 0.002-0.002-0.249 0.001-0.498-0.003-0.748-0.076-0.034-0.15-0.073-0.209-0.132z"></path>
<path fill="#231f20" d="M9.463 17.617c0.341-0.117 0.395 0.356 0.353 0.586 0.017 0.213-0.23 0.443-0.414 0.258-0.148-0.241-0.174-0.652 0.061-0.845M9.555 18.452c0.202-0.205 0.201-0.571 0.001-0.777-0.191 0.214-0.184 0.561-0.001 0.777z"></path>
<path fill="#231f20" d="M10.003 17.611c0.032 0.001 0.097 0.003 0.129 0.004 0.078 0.172 0.156 0.345 0.24 0.514 0.004-0.172 0.005-0.345 0.005-0.517 0.032 0.001 0.096 0.001 0.128 0.002-0.001 0.304 0.003 0.608-0.004 0.913-0.026-0.008-0.077-0.024-0.103-0.032-0.083-0.188-0.169-0.376-0.263-0.559-0.005 0.192-0.005 0.384-0.005 0.576-0.032 0-0.097 0-0.128 0-0.001-0.3-0.001-0.6 0.001-0.9z"></path>
<path fill="#231f20" d="M11.090 18.851c0.004-0.104-0.158-0.332 0.015-0.337 0.285 0.155 0.544 0.353 0.812 0.535-0.246 0.215-0.53 0.392-0.812 0.558-0.174-0.006-0.011-0.234-0.015-0.338-2.764 0-5.529 0-8.293 0 0-0.14 0-0.279 0.001-0.418 2.764 0 5.529 0 8.293 0z"></path>
<path fill="#231f20" d="M4.839 19.602c0.155-0.001 0.311 0 0.466 0.004-0.003 0.028-0.010 0.085-0.013 0.113-0.040 0.002-0.12 0.005-0.159 0.007 0.001 0.257 0.001 0.515 0.001 0.772-0.032 0.001-0.097 0.003-0.129 0.004-0.002-0.259-0.001-0.519-0.001-0.777-0.041-0.002-0.123-0.004-0.164-0.005 0-0.030 0-0.088 0-0.118z"></path>
<path fill="#231f20" d="M5.55 19.616c0.459-0.146 0.484 0.658 0.228 0.87-0.456 0.136-0.479-0.656-0.228-0.87M5.554 20.279c0.012 0.085 0.131 0.161 0.188 0.069 0.112-0.213 0.076-0.484-0.052-0.683-0.2 0.136-0.188 0.405-0.136 0.614z"></path>
<path fill="#231f20" d="M6.65 19.648c0.173-0.17 0.412 0.029 0.39 0.237-0.089-0.063-0.174-0.131-0.257-0.201-0.186 0.191-0.17 0.541 0.010 0.732 0.082-0.071 0.165-0.14 0.255-0.201 0.021 0.227-0.255 0.414-0.418 0.214-0.126-0.23-0.142-0.566 0.020-0.782z"></path>
<path fill="#231f20" d="M7.218 19.597c0.162 0.017 0.401-0.048 0.483 0.139 0.067 0.129-0.027 0.253-0.095 0.357 0.038 0.137 0.076 0.273 0.115 0.41-0.033-0.002-0.099-0.006-0.132-0.008-0.060-0.159-0.047-0.383-0.235-0.453-0.006 0.152-0.008 0.306-0.008 0.459-0.032-0.001-0.096-0.003-0.128-0.004 0.001-0.3-0.001-0.6 0.001-0.9M7.35 19.707c-0.001 0.089-0.002 0.177-0.002 0.266 0.302 0.037 0.299-0.289 0.002-0.266z"></path>
<path fill="#231f20" d="M8.016 19.608c0.534-0.163 0.497 1.112-0.032 0.863-0.183-0.229-0.197-0.661 0.032-0.863M8.071 19.724c-0.13 0.173-0.171 0.59 0.076 0.674 0.164-0.158 0.187-0.674-0.076-0.674z"></path>
<path fill="#231f20" d="M8.574 19.742c0.092-0.266 0.453-0.147 0.47 0.104-0.087-0.039-0.171-0.083-0.253-0.132-0.033 0.017-0.099 0.050-0.133 0.067 0.086 0.133 0.227 0.215 0.323 0.338 0.12 0.178-0.062 0.453-0.274 0.389-0.143-0.028-0.171-0.188-0.208-0.303 0.125 0.038 0.276 0.297 0.38 0.112 0.076-0.251-0.42-0.296-0.304-0.573z"></path>
<path fill="#231f20" d="M9.191 19.718c0.111-0.24 0.445-0.112 0.456 0.128-0.095-0.042-0.184-0.094-0.274-0.145-0.035 0.047-0.069 0.093-0.103 0.141 0.184 0.12 0.48 0.326 0.299 0.575-0.166 0.221-0.472 0.026-0.463-0.215 0.121 0.054 0.298 0.307 0.394 0.091 0.010-0.242-0.451-0.29-0.309-0.574z"></path>
<path fill="#231f20" d="M4.513 21.145c0.033 0.004 0.101 0.011 0.135 0.015 0.052 0.164 0.106 0.328 0.161 0.492 0.086-0.181 0.067-0.463 0.293-0.532 0.005 0.309 0.002 0.618 0.003 0.927-0.032 0-0.097 0-0.129 0 0-0.163 0-0.326-0.001-0.489-0.057 0.159-0.11 0.321-0.168 0.48-0.054-0.16-0.106-0.321-0.162-0.479-0.002 0.163-0.002 0.325-0.002 0.488-0.032 0-0.097 0-0.129 0 0-0.301-0.001-0.601 0.001-0.901z"></path>
<path fill="#231f20" d="M6.41 22.048c0.050-0.306-0.119-0.692 0.111-0.939 0.021 0.312 0.009 0.626 0.011 0.939-0.031 0-0.091 0-0.122 0z"></path>
<path fill="#231f20" d="M7.702 21.145c0.15 0.020 0.374-0.046 0.446 0.132 0.079 0.208 0.086 0.457-0.012 0.66-0.083 0.158-0.289 0.097-0.433 0.117-0.001-0.303-0.001-0.605-0.001-0.908M7.835 21.248c-0.005 0.231-0.004 0.463-0.001 0.696 0.354-0.001 0.353-0.688 0.001-0.696z"></path>
<path fill="#231f20" d="M5.239 21.517c0.075-0.148 0.309-0.204 0.4-0.042 0.054 0.186 0.021 0.384 0.028 0.575-0.157 0.002-0.397 0.037-0.427-0.176-0.050-0.196 0.152-0.288 0.316-0.278-0.013-0.025-0.040-0.075-0.053-0.099-0.088 0.008-0.176 0.015-0.264 0.020M5.406 21.922c0.153 0.107 0.127-0.113 0.15-0.208-0.122-0.013-0.276 0.099-0.15 0.208z"></path>
<path fill="#231f20" d="M5.817 21.394c0.128 0.012 0.294-0.060 0.394 0.049 0.135 0.229 0.090 0.673-0.262 0.634-0.004 0.056-0.007 0.113-0.011 0.171-0.030 0.012-0.090 0.035-0.12 0.047-0.001-0.301 0.001-0.601-0.001-0.901M5.95 21.534c-0.008 0.156 0.004 0.312 0.063 0.459 0.169-0.123 0.157-0.34 0.074-0.511-0.034 0.013-0.103 0.039-0.137 0.052z"></path>
<path fill="#231f20" d="M6.834 21.384c0.235-0.068 0.288 0.213 0.303 0.381-0.12 0.003-0.241 0.007-0.36 0.012 0.031 0.061 0.062 0.123 0.093 0.185 0.055-0.041 0.11-0.083 0.164-0.124 0.017 0.032 0.052 0.096 0.069 0.128-0.392 0.358-0.628-0.426-0.27-0.582M6.871 21.504c-0.109 0.022-0.060 0.187 0.043 0.151 0.111-0.017 0.056-0.187-0.043-0.151z"></path>
<path fill="#231f20" d="M8.367 21.396c0.095-0.004 0.188-0.009 0.282-0.013 0.002 0.032 0.004 0.097 0.005 0.129-0.040 0-0.119 0-0.159 0-0.006 0.195-0.004 0.391-0.033 0.585-0.189-0.177-0.062-0.472-0.096-0.701z"></path>
<path fill="#231f20" d="M8.76 21.39c0.032 0.001 0.094 0.003 0.126 0.004-0.001 0.217-0.001 0.435 0 0.652-0.032 0.001-0.094 0.003-0.126 0.004-0.002-0.22-0.002-0.44 0-0.66z"></path>
<path fill="#231f20" d="M8.986 21.394c0.031-0.001 0.092-0.003 0.123-0.004 0.045 0.144 0.090 0.288 0.137 0.432 0.045-0.142 0.089-0.284 0.13-0.427 0.033-0.002 0.1-0.005 0.133-0.006-0.068 0.217-0.139 0.434-0.207 0.652-0.025 0.004-0.076 0.011-0.101 0.014-0.075-0.219-0.145-0.44-0.215-0.661z"></path>
<path fill="#231f20" d="M9.642 21.979c-0.096-0.185-0.107-0.537 0.14-0.601 0.224-0.033 0.247 0.232 0.271 0.39-0.119 0.002-0.237 0.003-0.355 0.005 0.017 0.042 0.050 0.126 0.067 0.168 0.089-0.040 0.183-0.066 0.281-0.054-0.076 0.143-0.285 0.256-0.404 0.093M9.786 21.505c-0.11 0.022-0.058 0.187 0.045 0.15 0.112-0.018 0.053-0.186-0.045-0.15z"></path>
<path fill="#b8b6b7" d="M0 1.355l0.060-0.031c-0.030 0.309-0.025 0.62-0.024 0.93 0.002 6.812-0.002 13.624 0.002 20.436l-0.038-0.087v-21.249z"></path>
<path fill="#b8b6b7" d="M3.759 11.887c0.312 0.011 0.21 0.364 0.196 0.568-0.043-0.078-0.082-0.159-0.119-0.24-0.018 0.080-0.038 0.159-0.060 0.238-0.025-0.187-0.023-0.377-0.017-0.565z"></path>
<path fill="#fefefe" d="M8.843 1.725c0.188 0.037 0.202 0.29-0.002 0.312-0.002-0.104-0.001-0.208 0.002-0.312z"></path>
<path fill="#fefefe" d="M10.773 5.965c0.189 0.035 0.201 0.29-0.002 0.312-0.002-0.104-0.001-0.208 0.002-0.312z"></path>
<path fill="#f5f5f5" d="M9.946 3.83c-0.039-0.176-0.070-0.37 0.031-0.532 0.044 0.176 0.056 0.366-0.031 0.532z"></path>
<path fill="#4e4b4c" d="M8.592 4.137c0.249-0.055-0.055 0.249 0 0z"></path>
<path fill="#282526" d="M11.074 5.889c0.137-0.005 0.275-0.005 0.412 0.003-0.049 0.055-0.099 0.108-0.151 0.159 0.001 0.243 0 0.486 0.001 0.729-0.029 0-0.086 0.001-0.114 0.001 0-0.245 0-0.49-0.001-0.734-0.050-0.052-0.099-0.105-0.146-0.158z"></path>
<path fill="#f4901d" d="M3.373 6.388c0.299 0.225 0.066 0.708 0.186 1.039 0.036-0.307 0.020-0.616 0.036-0.925 0.034 0.018 0.104 0.053 0.138 0.071 0.054 0.374 0.020 0.757 0.070 1.132 0.155-0.17 0.256-0.45 0.527-0.445-0.127 0.307-0.283 0.609-0.54 0.828-0.197 0.148-0.115 0.411-0.105 0.619-0.231-0.001-0.462-0.001-0.693-0.001 0.005-0.161 0.029-0.326-0.006-0.485-0.266-0.46-0.088-1.014-0.096-1.517 0.257 0.117 0.11 0.472 0.192 0.696 0.032-0.287 0.025-0.576 0.034-0.864 0.038 0 0.115-0.001 0.153-0.001 0.010 0.288-0.001 0.577 0.027 0.864 0.065-0.334 0.033-0.676 0.075-1.013z"></path>
<path fill="#f4901d" d="M3.477 9.803c0.261-0.046 0.528-0.042 0.79-0.007-0.006 0.567 0.026 1.137-0.013 1.703-0.249 0.088-0.521 0.042-0.776 0.011-0.001-0.569 0.001-1.138-0.001-1.707M3.606 9.893c-0.001 0.232-0.001 0.463-0.001 0.695 0.179 0.001 0.358 0.001 0.536 0 0.001-0.231 0.001-0.463-0.001-0.695-0.178 0-0.357 0-0.535-0.001M3.606 10.703c-0.001 0.237-0.001 0.474 0.001 0.711 0.178-0.001 0.355-0.001 0.533-0.001 0.003-0.237 0.003-0.474 0.001-0.71-0.178 0-0.357 0-0.535 0z"></path>
<path fill="#f4901d" d="M3.383 13.969c0.027 0.002 0.081 0.005 0.108 0.006 0.061 0.326-0.002 0.663 0.070 0.988 0.032-0.295 0.017-0.592 0.040-0.886 0.035 0.003 0.104 0.008 0.139 0.010 0.030 0.388 0.021 0.777 0.064 1.164 0.155-0.173 0.261-0.433 0.525-0.453-0.119 0.318-0.285 0.627-0.548 0.85-0.189 0.148-0.102 0.409-0.096 0.612-0.232-0.005-0.464-0.005-0.697-0.002 0.051-0.279 0.005-0.551-0.135-0.795-0.005-0.39-0.009-0.789 0.047-1.176 0.252 0.029 0.094 0.47 0.184 0.673 0.088-0.287-0.101-0.715 0.142-0.912 0.103 0.292 0.023 0.61 0.071 0.911 0.075-0.326 0.012-0.666 0.085-0.992z"></path>
<path fill="#f6f5f5" d="M9.729 7.538c0.097 0.163 0.070 0.355 0.032 0.531-0.092-0.164-0.078-0.355-0.032-0.531z"></path>
<path fill="#efefef" d="M11.547 8.088c-0.079-0.177-0.078-0.377 0.001-0.554 0.072 0.178 0.067 0.376-0.001 0.554z"></path>
<path fill="#f7f7f7" d="M10.478 8.688c0.108 0.156 0.095 0.367 0.005 0.529-0.043-0.174-0.042-0.354-0.005-0.529z"></path>
<path fill="#464343" d="M2.723 8.873c0.043 0.12 0.047 0.248 0.050 0.374 0.023 0.031 0.069 0.094 0.092 0.126-0.056 0.001-0.111 0.002-0.167 0.004-0.002-0.168-0.002-0.337 0.024-0.503z"></path>
<path fill="#464343" d="M2.877 9.419c0.042-0.184 0.079-0.37 0.15-0.547 0.059 0.176 0.092 0.358 0.113 0.542-0.039-0.052-0.078-0.104-0.116-0.157-0.049 0.054-0.098 0.108-0.147 0.162z"></path>
<path fill="#464343" d="M4.222 9.405c-0.088-0.153-0.128-0.582 0.151-0.459-0.072 0.059-0.135 0.127-0.186 0.205 0.043 0.003 0.128 0.009 0.171 0.011-0.003 0.059-0.005 0.118-0.008 0.177-0.032 0.016-0.097 0.049-0.129 0.065z"></path>
<path fill="#464343" d="M3.222 11.908c0.040 0.040 0.081 0.080 0.121 0.12 0.025-0.034 0.074-0.101 0.099-0.135 0.005 0.181 0.005 0.362-0.007 0.544-0.037-0.089-0.072-0.178-0.107-0.267-0.033 0.090-0.067 0.18-0.103 0.269-0.006-0.177-0.004-0.354-0.003-0.531z"></path>
<path fill="#555152" d="M3.897 8.875c0.039 0.067 0.076 0.135 0.112 0.203 0.020-0.070 0.042-0.141 0.066-0.21 0.011 0.169 0.008 0.338 0.009 0.506-0.071-0.023-0.143-0.043-0.215-0.063 0.007-0.146 0.014-0.291 0.029-0.436z"></path>
<path fill="#f18e1d" d="M3.159 9.773c0.032 0 0.095-0.001 0.126-0.001 0.004 0.587 0.004 1.174-0.001 1.761-0.031-0.001-0.094-0.001-0.125-0.001-0.004-0.586-0.004-1.173-0.001-1.759z"></path>
<path fill="#262223" d="M5.35 11.31c0.156-0.050 0.319-0.049 0.475 0-0.045 0.028-0.133 0.083-0.178 0.111 0.003 0.268 0.002 0.537 0.002 0.805-0.031 0-0.093 0-0.125 0 0-0.269-0.002-0.537 0.001-0.806-0.044-0.027-0.132-0.082-0.176-0.11z"></path>
<path fill="#262223" d="M5.798 17.612c0.032 0 0.096 0.001 0.128 0.001 0 0.121 0 0.243 0 0.365 0.081 0 0.163 0.001 0.244 0.002 0-0.122 0.001-0.244 0.001-0.366 0.032-0.001 0.097-0.001 0.129-0.001 0.001 0.3 0.001 0.6 0.001 0.9-0.032 0-0.096 0-0.128-0.001-0.001-0.136-0.002-0.272-0.002-0.408-0.082 0.001-0.163 0.002-0.244 0.002 0 0.135 0 0.271-0.001 0.406-0.032 0.001-0.095 0.001-0.127 0.001-0.003-0.3-0.002-0.6-0.001-0.9z"></path>
<path fill="#332f30" d="M7.2 11.287c0.249-0.054-0.055 0.249 0 0z"></path>
<path fill="#332f30" d="M7.916 14.334c0.267-0.004-0.084 0.276 0 0z"></path>
<path fill="#393536" d="M11.437 11.287c0.25-0.054-0.055 0.248 0 0z"></path>
<path fill="#282425" d="M7.181 11.528c0.032 0 0.094 0 0.126 0-0.001 0.233 0 0.466-0.001 0.7-0.031 0-0.093-0.001-0.124-0.001-0.001-0.233-0.001-0.465-0.001-0.699z"></path>
<path fill="#292526" d="M11.418 11.528c0.032 0 0.094 0 0.126 0-0.002 0.246 0.009 0.494-0.014 0.74-0.23-0.156-0.063-0.505-0.112-0.74z"></path>
<path fill="#565354" d="M2.919 13.261c0.143 0.003 0.287 0.002 0.431 0-0.041 0.031-0.082 0.063-0.122 0.094 0.031 0.099-0.051 0.306 0.106 0.295 0.074-0.134 0.080-0.296 0.144-0.436 0.058 0.171 0.093 0.349 0.128 0.526-0.038-0.030-0.076-0.060-0.114-0.090-0.112 0.034-0.226 0.063-0.34 0.089-0.012-0.161 0.008-0.334-0.086-0.474-0.021 0.165-0.032 0.333-0.061 0.498-0.041-0.165-0.056-0.335-0.084-0.501z"></path>
<path fill="#3d3a3a" d="M3.652 13.248c0.071 0.019 0.142 0.040 0.213 0.061-0.063 0.010-0.126 0.021-0.188 0.032 0.019 0.135 0.055 0.27 0.146 0.377-0.057-0.002-0.114-0.002-0.172-0.002-0.001-0.156-0.001-0.311 0.001-0.467z"></path>
<path fill="#979596" d="M3.677 13.34c0.063-0.011 0.126-0.021 0.188-0.032 0.002 0.137-0.009 0.275-0.042 0.409-0.091-0.107-0.127-0.242-0.146-0.377z"></path>
<path fill="#272324" d="M8.74 17.614c0.15-0.002 0.301-0.002 0.452-0.002 0 0.030 0 0.089 0 0.119-0.041 0.002-0.123 0.004-0.165 0.006 0.002 0.258 0.001 0.517 0.001 0.775-0.032 0-0.097 0.001-0.129 0.001-0.001-0.258-0.001-0.516 0.001-0.774-0.041-0.002-0.123-0.006-0.165-0.008 0.002-0.030 0.004-0.088 0.005-0.117z"></path>
<path fill="#f2f2f2" d="M6.871 21.504c0.099-0.035 0.154 0.134 0.043 0.151-0.104 0.036-0.152-0.129-0.043-0.151z"></path>
<path fill="#f0f0f0" d="M9.786 21.505c0.098-0.037 0.157 0.132 0.045 0.15-0.103 0.038-0.155-0.128-0.045-0.15z"></path>
<path fill="#bdbcbc" d="M14.405 22.881c-0.054-0.074-0.041-0.126 0.038-0.156v0.135l-0.038 0.021z"></path>
<path fill="#ddd" d="M14.362 23.049c0.002-0.032 0.007-0.098 0.010-0.13-0.003 0.032-0.008 0.098-0.010 0.13z"></path>
<path fill="#d1d0d1" d="M13.475 23.879c0.033-0.004 0.098-0.011 0.13-0.015-0.033 0.004-0.098 0.011-0.13 0.015z"></path>
<path fill="#dedddd" d="M1.005 23.919c0.032 0.003 0.097 0.008 0.13 0.010-0.033-0.003-0.098-0.008-0.13-0.010z"></path>
<path fill="#cac9c9" d="M1.172 23.962c0.069-0.050 0.125-0.038 0.168 0.038h-0.145l-0.023-0.038z"></path>
<path fill="#d0cfcf" d="M13.15 24c0.045-0.075 0.103-0.086 0.172-0.035l-0.025 0.035h-0.147z"></path>
</svg>
