<?xml version="1.0" encoding="utf-8"?>
<!-- Generated by IcoMoon.io -->
<!DOCTYPE svg PUBLIC "-//W3C//DTD SVG 1.1//EN" "http://www.w3.org/Graphics/SVG/1.1/DTD/svg11.dtd">
<svg version="1.1" xmlns="http://www.w3.org/2000/svg" xmlns:xlink="http://www.w3.org/1999/xlink" width="24" height="24" viewBox="0 0 24 24">
<path fill="#c50000" d="M12.544 0.023c-6.635-0.301-12.219 4.798-12.521 11.433s4.798 12.219 11.433 12.521c6.635 0.301 12.219-4.798 12.521-11.433s-4.798-12.219-11.433-12.521z"></path>
<path fill="#fff" d="M12.44 2.305v0c-5.355-0.243-9.893 3.9-10.136 9.255v0c-0.243 5.355 3.9 9.893 9.255 10.136v0c5.355 0.243 9.893-3.9 10.136-9.255v0c0.243-5.355-3.9-9.893-9.255-10.136z"></path>
<path fill="#000" d="M11.342 5.406c0.599 0 1.085 0.486 1.085 1.086s-0.487 1.086-1.085 1.086c-0.6 0-1.086-0.487-1.086-1.086s0.486-1.086 1.086-1.086z"></path>
<path fill="#000" d="M13.165 7.643c-0.275-0.348-0.55-0.348-0.825 0-0.826 0.991-1.652 1.983-2.476 2.974-0.557 0.587-0.217 1.231 0.63 0.63 0.412-0.492 0.825-0.984 1.237-1.476 0.123-0.087 0.218-0.087 0.283 0 0.26 0.542 0.521 1.086 0.782 1.629-0.666 0.34-1.332 0.68-1.998 1.020-0.456 0.26-0.513 0.521-0.391 0.781 0.348 0.717 0.695 1.434 1.042 2.15 0.22 0.225 0.459 0.377 0.738 0.369-0.065 0.181-0.13 0.362-0.195 0.542-0.267 0.855 0.616 1.332 1.020 0.391 0.623-1.607 1.245-3.214 1.868-4.82 0.088-0.274 0.059-0.585-0.087-0.934-0.543-1.086-1.086-2.172-1.629-3.257z"></path>
<path fill="#000" d="M7.040 12.526c1.347 0 2.439 1.093 2.439 2.44s-1.092 2.44-2.439 2.44c-1.348 0-2.439-1.093-2.439-2.44s1.092-2.44 2.439-2.44z"></path>
<path fill="#000" d="M16.96 12.526c1.347 0 2.44 1.093 2.44 2.44s-1.093 2.44-2.44 2.44c-1.347 0-2.439-1.093-2.439-2.44s1.093-2.44 2.439-2.44z"></path>
<path fill="#fff" d="M12.492 14.764c0.232-0.651 0.464-1.303 0.695-1.954-0.011-0.069-0.057-0.109-0.152-0.065-0.441 0.159-0.882 0.318-1.324 0.477 0.26 0.514 0.521 1.028 0.781 1.542z"></path>
<path fill="#fff" d="M7.040 12.868c1.158 0 2.097 0.939 2.097 2.098s-0.939 2.098-2.097 2.098c-1.158 0-2.098-0.939-2.098-2.098s0.94-2.098 2.098-2.098z"></path>
<path fill="#fff" d="M16.96 12.868c1.158 0 2.098 0.939 2.098 2.098s-0.939 2.098-2.098 2.098c-1.158 0-2.098-0.939-2.098-2.098s0.94-2.098 2.098-2.098z"></path>
<path fill="#000" d="M7.231 14.605c0.674-0.953 1.35-1.905 2.025-2.86 0.232-0.355 0.431-0.227 0.221 0.135-0.079 0.13-0.158 0.259-0.237 0.388 0.421-0.016 0.844-0.031 1.265-0.047-0.184 0.080-0.351 0.164-0.403 0.277-0.322 0.016-0.644 0.032-0.966 0.047 0.468 0.463 0.933 0.924 1.401 1.386l0.145 0.342c0.046 0.091-0.066 0.105-0.185 0.030-0.525-0.496-1.050-0.993-1.575-1.489-0.472 0.663-0.944 1.325-1.416 1.988-0.058 0-0.116 0-0.174 0-0.039-0.035-0.079-0.070-0.119-0.103 0.005-0.032 0.010-0.064 0.016-0.095z"></path>
<path fill="#000" d="M15.311 12.85l1.601 2.095-0.188 0.326-2.568 0.017c-0.199-0.040-0.195-0.345 0-0.343h2.089l0.102-0.188-1.284-1.766c-0.103-0.132-0-0.322 0.248-0.141z"></path>
<path fill="#000" d="M7.215 14.431c0.206 0 0.373 0.167 0.373 0.372s-0.166 0.373-0.373 0.373c-0.205 0-0.373-0.167-0.373-0.373s0.168-0.372 0.373-0.372z"></path>
<path fill="#000" d="M16.818 14.678c0.206 0 0.373 0.167 0.373 0.372 0 0.206-0.167 0.373-0.373 0.373s-0.373-0.167-0.373-0.373c0-0.205 0.168-0.372 0.373-0.372z"></path>
<path fill="none" stroke="#c50000" stroke-width="2.512" stroke-miterlimit="10" stroke-linecap="butt" stroke-linejoin="miter" d="M4.725 4.739l15.072 15.072"></path>
</svg>
