<!-- Generated by IcoMoon.io -->
<svg version="1.1" xmlns="http://www.w3.org/2000/svg" width="15" height="24" viewBox="0 0 15 24">
<title>regulatory--bicycle-parking--g1</title>
<path fill="#036f51" d="M0.898 0h13.879c0.2 0.215 0.417 0.412 0.636 0.607v22.72c-0.239 0.263-0.522 0.479-0.817 0.674h-13.557c-0.455-0.208-0.782-0.6-1.040-1.017v-22.019c0.217-0.387 0.505-0.744 0.898-0.964M1.644 0.659c-0.534 0.054-0.959 0.566-0.942 1.098 0.004 6.829-0.001 13.658 0.002 20.487 0.015 0.575 0.548 1.075 1.123 1.054 3.99-0.005 7.981 0.003 11.97-0.004 0.503-0.004 1.030-0.379 1.054-0.908 0-6.947 0-13.895 0-20.842-0.022-0.592-0.659-0.936-1.195-0.914-4.003 0.023-8.011-0.032-12.011 0.028z"></path>
<path fill="#036f51" d="M5.943 1.97c0.342 0.001 0.683 0 1.025 0.001 0 0.094 0 0.188 0 0.282-0.273 0.004-0.548-0.020-0.82 0.012-0.214 0.112-0.008 0.344 0.053 0.492-0.087 0.251-0.156 0.507-0.229 0.762 1.054-0.007 2.109 0.014 3.163-0.011-0.272-0.13-0.565-0.208-0.835-0.342 0.001-0.051 0.002-0.153 0.003-0.205 0.469-0.163 0.973-0.011 1.453-0.107 0.253-0.038 0.64-0.153 0.695 0.201-0.214 0.227-0.499 0.359-0.804 0.414-0.218 0.463 0.434 0.733 0.595 1.123 0.532-0.164 1.093-0.408 1.655-0.241 1.095 0.165 1.976 1.225 1.902 2.335 0.030 0.664-0.304 1.31-0.795 1.745-0.787 0.668-2.009 0.752-2.857 0.144-0.455-0.289-0.745-0.776-0.938-1.267-0.279-0.006-0.566 0.050-0.781 0.239 0.032 0.182 0.077 0.362 0.103 0.545 0.049 0.001 0.147 0.004 0.196 0.005 0 0.092 0 0.185 0 0.277-0.194 0-0.387 0-0.581-0.002 0.020-0.117 0.042-0.234 0.068-0.35-0.026-0.113-0.048-0.226-0.068-0.339-0.113-0.077-0.226-0.156-0.336-0.238 0-0.102 0-0.203 0.001-0.305-0.77-0.824-1.501-1.685-2.246-2.533-0.001 0.053-0.006 0.16-0.008 0.214 0.848 0.724 1.13 2.057 0.524 3.020-0.551 1.013-1.931 1.441-2.963 0.935-0.921-0.369-1.484-1.401-1.361-2.375 0.084-1.567 1.996-2.626 3.363-1.836 0.152-0.533 0.37-1.044 0.555-1.565 0.087-0.208-0.068-0.4-0.12-0.595 0.085-0.175 0.259-0.291 0.387-0.436M5.841 4.012c0 0.045 0.001 0.135 0.001 0.18 0.659 0.675 1.267 1.4 1.89 2.109 0.004-0.063 0.012-0.187 0.016-0.248 0.177 0 0.355 0 0.533 0 0.206-0.684 0.449-1.356 0.649-2.042-1.030 0.002-2.059-0.001-3.089 0.001M9.389 4.265c-0.298 0.879-0.553 1.773-0.871 2.646 0.21-0.035 0.419-0.078 0.631-0.1-0.060-0.72 0.238-1.435 0.723-1.959-0.177-0.182-0.33-0.385-0.484-0.588M2.829 5.363c-0.731 0.619-0.77 1.848-0.070 2.506 0.53 0.63 1.52 0.771 2.217 0.346 1.013-0.533 1.262-2.083 0.356-2.834-0.158 0.652-0.785 0.987-1.129 1.52-0.077-0.001-0.153-0.001-0.23-0.002-0.057-0.058-0.115-0.115-0.172-0.172-0.001-0.077-0.001-0.155-0.003-0.232 0.522-0.334 0.996-0.794 1.147-1.415-0.662-0.391-1.597-0.308-2.116 0.286M10.552 5.016c0.41 0.461 0.668 1.076 1.201 1.412 0.001 0.132 0.003 0.264 0.005 0.396-0.668 0.131-1.349 0.205-2.007 0.381 0.241 0.714 0.955 1.275 1.722 1.247 0.866 0.039 1.653-0.675 1.805-1.509 0.131-0.665-0.206-1.351-0.738-1.747-0.543-0.485-1.349-0.4-1.988-0.18M9.632 6.697c0.507-0.034 1.005-0.144 1.505-0.234-0.353-0.351-0.6-0.788-0.927-1.159-0.432 0.334-0.498 0.893-0.578 1.393z"></path>
<path fill="#036f51" d="M12.847 12.639c0.11-0.474 0.744-0.583 1.108-0.339 0.165 0.147 0.22 0.374 0.292 0.575-0.165 0.004-0.33 0.005-0.495 0.006-0.064-0.071-0.129-0.142-0.193-0.213-0.081 0.050-0.163 0.099-0.244 0.149-0.141 0.575-0.064 1.169-0.086 1.754-0.020 0.222 0.058 0.434 0.141 0.636 0.093-0.001 0.185-0.002 0.279-0.003 0.080-0.225 0.084-0.465 0.080-0.7-0.054-0.003-0.162-0.007-0.216-0.010 0.001-0.163 0.001-0.325 0.001-0.488 0.234 0 0.469 0 0.704 0-0.035 0.483 0.089 0.992-0.094 1.454-0.296 0.484-1.197 0.384-1.294-0.21-0.206-0.852-0.212-1.763 0.018-2.61z"></path>
<path fill="#036f51" d="M1.478 12.247c0.45 0.049 1.039-0.168 1.355 0.264 0.261 0.453 0.3 1.1-0.075 1.506-0.214 0.196-0.512 0.218-0.788 0.206 0 0.491 0 0.982 0 1.472-0.164 0-0.329 0-0.493 0 0-1.149 0-2.299 0-3.448M1.971 12.74c0 0.327 0 0.655 0 0.983 0.115 0.001 0.229 0.004 0.343 0.006 0.271-0.282 0.271-0.714 0-0.995-0.115 0.003-0.229 0.005-0.343 0.006z"></path>
<path fill="#036f51" d="M3.817 12.246c0.175 0 0.351 0 0.526 0 0.255 1.147 0.461 2.304 0.729 3.449-0.184 0-0.367 0-0.55 0-0.053-0.308-0.124-0.611-0.176-0.918-0.167 0.034-0.422-0.080-0.518 0.099-0.058 0.274-0.111 0.55-0.186 0.82-0.164-0.001-0.327-0.001-0.491-0.002 0.164-1.16 0.498-2.289 0.665-3.447M3.953 14.29c0.093-0.002 0.186-0.004 0.279-0.005-0.042-0.203-0.079-0.408-0.111-0.613-0.078 0.199-0.12 0.41-0.168 0.618z"></path>
<path fill="#036f51" d="M5.419 12.247c0.437 0.051 0.995-0.162 1.323 0.227 0.347 0.462 0.322 1.185-0.121 1.58 0.139 0.542 0.21 1.099 0.351 1.641-0.184 0-0.367 0-0.551 0-0.151-0.551-0.132-1.218-0.497-1.67-0.027 0.556-0.006 1.113-0.013 1.67-0.164 0-0.329 0-0.493 0 0-1.149 0-2.299 0-3.448M5.912 12.74c0 0.28 0 0.561 0 0.842 0.139 0.001 0.279 0.003 0.419 0.004 0.218-0.268 0.165-0.621-0.079-0.852-0.113 0.002-0.227 0.004-0.341 0.006z"></path>
<path fill="#036f51" d="M7.39 12.246c0.164 0 0.329 0 0.493 0 0.001 0.322-0.004 0.643 0.002 0.964 0.176-0.317 0.325-0.648 0.498-0.966 0.194 0.001 0.389 0.003 0.583 0.007-0.194 0.405-0.407 0.8-0.564 1.221 0.217 0.738 0.397 1.486 0.619 2.223-0.188 0-0.376 0.001-0.564 0.001-0.137-0.487-0.262-0.978-0.407-1.462-0.329 0.405-0.1 0.98-0.167 1.46-0.164 0-0.329 0-0.493 0 0-1.149 0-2.299 0-3.449z"></path>
<path fill="#036f51" d="M9.431 12.246c0.164 0 0.328 0 0.493 0 0 1.149 0 2.299 0 3.449-0.165 0-0.329 0-0.493 0 0-1.149 0-2.299 0-3.449z"></path>
<path fill="#036f51" d="M10.628 12.247c0.156-0.001 0.313-0.001 0.469-0.002 0.213 0.424 0.295 0.899 0.506 1.322 0.020-0.44 0.006-0.88 0.010-1.321 0.164 0 0.328 0 0.493 0 0 1.149 0 2.299 0 3.448-0.136 0.001-0.272 0.001-0.408 0.002-0.191-0.581-0.345-1.175-0.572-1.743-0.016 0.581-0.001 1.161-0.006 1.742-0.165 0-0.329 0-0.493 0 0-1.149 0-2.299 0-3.448z"></path>
<path fill="#036f51" d="M2.369 18.757c0.733-0.513 1.477-1.016 2.221-1.51 0.57-0.098 0.267 0.616 0.174 0.909 2.799 0.008 5.599 0.001 8.398 0.004 0 0.399 0 0.797 0 1.196-2.799 0.002-5.599-0.004-8.398 0.004 0.070 0.267 0.209 0.533 0.157 0.816-0.086 0.156-0.294 0.109-0.415 0.025-0.721-0.467-1.426-0.959-2.136-1.442z"></path>
<path fill="#fff" d="M1.644 0.659c4-0.061 8.008-0.005 12.011-0.028 0.536-0.023 1.173 0.322 1.195 0.914 0 6.947 0 13.895 0 20.842-0.024 0.529-0.55 0.904-1.054 0.908-3.989 0.006-7.98-0.001-11.97 0.004-0.575 0.020-1.108-0.479-1.123-1.054-0.003-6.828 0.002-13.657-0.002-20.487-0.017-0.532 0.408-1.044 0.942-1.098M5.943 1.97c-0.128 0.144-0.302 0.26-0.387 0.436 0.053 0.194 0.208 0.386 0.12 0.595-0.185 0.522-0.403 1.032-0.555 1.565-1.367-0.79-3.279 0.269-3.363 1.836-0.122 0.975 0.441 2.006 1.361 2.375 1.032 0.505 2.412 0.077 2.963-0.935 0.606-0.963 0.324-2.296-0.524-3.020 0.002-0.053 0.006-0.16 0.008-0.214 0.745 0.848 1.476 1.709 2.246 2.533-0.001 0.102-0.001 0.203-0.001 0.305 0.11 0.082 0.222 0.16 0.336 0.238 0.020 0.113 0.042 0.227 0.068 0.339-0.026 0.116-0.048 0.233-0.068 0.35 0.194 0.002 0.387 0.002 0.581 0.002 0-0.092 0-0.185 0-0.277-0.049-0.001-0.146-0.004-0.196-0.005-0.027-0.183-0.072-0.363-0.103-0.545 0.215-0.189 0.503-0.245 0.781-0.239 0.194 0.491 0.484 0.978 0.938 1.267 0.847 0.608 2.070 0.524 2.857-0.144 0.491-0.435 0.825-1.080 0.795-1.745 0.073-1.11-0.807-2.17-1.902-2.335-0.562-0.168-1.123 0.077-1.655 0.241-0.161-0.39-0.814-0.66-0.595-1.123 0.305-0.055 0.59-0.187 0.804-0.414-0.055-0.354-0.442-0.239-0.695-0.201-0.48 0.096-0.983-0.056-1.453 0.107-0.001 0.051-0.002 0.153-0.003 0.205 0.27 0.134 0.563 0.212 0.835 0.342-1.054 0.025-2.109 0.004-3.163 0.011 0.073-0.255 0.142-0.511 0.229-0.762-0.061-0.148-0.267-0.38-0.053-0.492 0.272-0.032 0.547-0.008 0.82-0.012 0-0.094 0-0.188 0-0.282-0.341-0.001-0.683 0.001-1.025-0.001M12.847 12.639c-0.23 0.847-0.224 1.758-0.018 2.61 0.097 0.595 0.998 0.694 1.294 0.21 0.183-0.462 0.059-0.971 0.094-1.454-0.235 0-0.469 0-0.704 0 0 0.163 0 0.325-0.001 0.488 0.054 0.003 0.162 0.007 0.216 0.010 0.004 0.236 0 0.475-0.080 0.7-0.094 0.001-0.186 0.001-0.279 0.003-0.083-0.203-0.16-0.414-0.141-0.636 0.022-0.585-0.055-1.179 0.086-1.754 0.082-0.050 0.163-0.099 0.244-0.148 0.064 0.071 0.129 0.142 0.193 0.213 0.165-0.001 0.33-0.003 0.495-0.006-0.072-0.201-0.127-0.428-0.292-0.575-0.364-0.244-0.998-0.134-1.108 0.339M1.478 12.247c0 1.149 0 2.299 0 3.448 0.164 0 0.329 0 0.493 0 0-0.491 0-0.982 0-1.472 0.276 0.013 0.574-0.009 0.788-0.206 0.374-0.406 0.336-1.053 0.075-1.506-0.316-0.432-0.905-0.215-1.355-0.264M3.817 12.246c-0.168 1.158-0.501 2.287-0.665 3.447 0.163 0.001 0.327 0.001 0.491 0.002 0.075-0.27 0.128-0.546 0.186-0.82 0.096-0.179 0.351-0.065 0.518-0.099 0.052 0.308 0.123 0.611 0.176 0.918 0.183 0 0.367 0 0.55 0-0.268-1.144-0.474-2.301-0.729-3.449-0.175 0-0.351 0-0.526 0M5.419 12.247c0 1.149 0 2.299 0 3.448 0.164 0 0.329 0 0.493 0 0.006-0.557-0.015-1.114 0.013-1.67 0.365 0.452 0.346 1.119 0.497 1.67 0.184 0 0.367 0 0.551 0-0.141-0.542-0.212-1.099-0.351-1.641 0.443-0.395 0.468-1.118 0.121-1.58-0.328-0.389-0.886-0.175-1.323-0.227M7.39 12.246c0 1.149 0 2.299 0 3.449 0.164 0 0.329 0 0.493 0 0.067-0.481-0.162-1.055 0.167-1.46 0.145 0.484 0.27 0.975 0.407 1.462 0.188-0.001 0.376-0.001 0.564-0.001-0.222-0.737-0.402-1.485-0.619-2.223 0.158-0.421 0.371-0.816 0.564-1.221-0.194-0.004-0.389-0.006-0.583-0.007-0.173 0.318-0.322 0.649-0.498 0.966-0.006-0.322-0.001-0.643-0.002-0.964-0.164 0-0.329 0-0.493 0M9.431 12.246c0 1.149 0 2.299 0 3.449 0.164 0 0.328 0 0.493 0 0-1.149 0-2.299 0-3.449-0.165 0-0.329 0-0.493 0M10.628 12.247c0 1.149 0 2.299 0 3.448 0.164 0 0.328 0 0.493 0 0.005-0.581-0.010-1.161 0.006-1.742 0.227 0.569 0.38 1.163 0.572 1.743 0.136-0.001 0.272-0.001 0.408-0.002 0-1.149 0-2.299 0-3.448-0.165 0-0.329 0-0.493 0-0.004 0.441 0.011 0.881-0.010 1.321-0.211-0.424-0.293-0.898-0.506-1.322-0.156 0.001-0.313 0.001-0.469 0.002M2.369 18.757c0.71 0.483 1.415 0.975 2.136 1.442 0.121 0.084 0.329 0.132 0.415-0.025 0.052-0.283-0.087-0.549-0.157-0.816 2.799-0.008 5.599-0.001 8.398-0.004 0-0.399 0-0.797 0-1.196-2.799-0.002-5.599 0.004-8.398-0.004 0.094-0.293 0.396-1.006-0.174-0.909-0.744 0.494-1.488 0.997-2.221 1.51z"></path>
<path fill="#fff" d="M5.841 4.012c1.030-0.002 2.059 0.001 3.089-0.001-0.2 0.686-0.443 1.358-0.649 2.042-0.177 0-0.355 0-0.533 0-0.004 0.062-0.012 0.186-0.016 0.248-0.624-0.709-1.231-1.434-1.89-2.109 0-0.045-0.001-0.135-0.001-0.18z"></path>
<path fill="#fff" d="M9.389 4.265c0.153 0.203 0.306 0.406 0.484 0.588-0.485 0.524-0.783 1.239-0.723 1.959-0.213 0.022-0.422 0.065-0.631 0.1 0.317-0.873 0.573-1.767 0.871-2.646z"></path>
<path fill="#fff" d="M2.829 5.363c0.519-0.594 1.454-0.676 2.116-0.286-0.151 0.621-0.625 1.081-1.147 1.415 0.001 0.077 0.002 0.155 0.003 0.232 0.058 0.058 0.115 0.115 0.172 0.172 0.077 0.001 0.153 0.001 0.23 0.002 0.344-0.533 0.971-0.868 1.129-1.52 0.906 0.751 0.657 2.301-0.356 2.834-0.697 0.426-1.687 0.284-2.217-0.346-0.7-0.657-0.66-1.886 0.070-2.506z"></path>
<path fill="#fff" d="M10.552 5.016c0.639-0.22 1.445-0.305 1.988 0.18 0.531 0.396 0.869 1.082 0.738 1.747-0.153 0.834-0.939 1.548-1.805 1.509-0.767 0.028-1.481-0.533-1.722-1.247 0.659-0.177 1.339-0.251 2.007-0.381-0.002-0.132-0.004-0.264-0.005-0.396-0.533-0.336-0.79-0.951-1.201-1.412z"></path>
<path fill="#fff" d="M9.632 6.697c0.080-0.5 0.146-1.059 0.578-1.393 0.327 0.372 0.574 0.809 0.927 1.159-0.5 0.089-0.998 0.199-1.505 0.234z"></path>
<path fill="#fff" d="M1.971 12.74c0.115-0.001 0.229-0.004 0.343-0.006 0.271 0.282 0.271 0.714 0 0.995-0.115-0.003-0.229-0.005-0.343-0.006 0-0.327 0-0.655 0-0.983z"></path>
<path fill="#fff" d="M5.912 12.74c0.113-0.001 0.227-0.004 0.341-0.006 0.244 0.23 0.297 0.583 0.079 0.852-0.14-0.001-0.28-0.003-0.419-0.004 0-0.281 0-0.562 0-0.842z"></path>
<path fill="#fff" d="M3.953 14.29c0.048-0.208 0.090-0.419 0.168-0.618 0.032 0.205 0.068 0.41 0.111 0.613-0.093 0.001-0.186 0.003-0.279 0.005z"></path>
<path fill="#383636" opacity="0.69" d="M0 23.798c0.087 0.045 0.156 0.115 0.201 0.202h-0.201v-0.202z"></path>
</svg>
