<!-- Generated by IcoMoon.io -->
<svg version="1.1" xmlns="http://www.w3.org/2000/svg" width="24" height="24" viewBox="0 0 24 24">
<title>regulatory--end-of-maximum-speed-limit-10--g2</title>
<path fill="#000" d="M10.963 0h2.069c0.16 0.031 0.322 0.054 0.486 0.072 3.078 0.369 5.97 2.013 7.89 4.443 1.342 1.675 2.218 3.719 2.504 5.846 0.025 0.202 0.046 0.404 0.088 0.603v2.067c-0.19 1.708-0.669 3.398-1.536 4.89-1.534 2.728-4.173 4.81-7.189 5.651-0.73 0.219-1.487 0.319-2.239 0.428h-2.067c-1.732-0.189-3.439-0.687-4.95-1.567-2.696-1.543-4.757-4.163-5.592-7.157-0.218-0.73-0.319-1.487-0.427-2.238v-2.069c0.107-0.754 0.209-1.511 0.427-2.243 0.791-2.83 2.67-5.332 5.157-6.893 1.61-1.041 3.481-1.626 5.379-1.832M9.252 0.538c-1.671 0.397-3.249 1.174-4.59 2.245-2.378 1.88-3.985 4.71-4.352 7.723-0.419 3.179 0.534 6.508 2.587 8.973 1.676-1.992 3.346-3.989 5.021-5.982 0.026-0.041 0.073-0.076 0.075-0.128 0.626-0.654 1.169-1.389 1.772-2.067l-0.001-0.011c0.562-0.667 1.13-1.329 1.678-2.007 1.122-1.314 2.229-2.642 3.335-3.97 1.002-1.189 2.014-2.372 2.993-3.579-2.543-1.476-5.666-1.88-8.519-1.198M18.090 8.114c-0.555 0.651-1.095 1.313-1.652 1.96l0 0.011c-1.059 1.248-2.103 2.508-3.159 3.758-0.032 0.045-0.081 0.088-0.088 0.145-0.608 0.635-1.14 1.346-1.719 2.009-0.571 0.697-1.173 1.373-1.73 2.082-0.31 0.33-0.588 0.689-0.881 1.033-0.882 1.050-1.767 2.097-2.642 3.152 2.553 1.466 5.671 1.884 8.529 1.197 1.66-0.395 3.23-1.163 4.565-2.224 2.392-1.881 4.007-4.721 4.376-7.743 0.42-3.179-0.532-6.508-2.586-8.972-1.006 1.196-2.011 2.393-3.013 3.592z"></path>
<path fill="#fff" d="M9.252 0.538c2.853-0.682 5.976-0.277 8.519 1.198-0.979 1.207-1.992 2.39-2.993 3.579-1.378 0-2.652 1.008-3.082 2.299-0.188 0.536-0.243 1.107-0.254 1.671-0.547 0.678-1.116 1.34-1.678 2.007-0.047-1.961-0.001-3.924-0.023-5.886-0.545 0-1.091-0.003-1.636 0-0.121-0.008-0.208 0.086-0.293 0.156-0.497 0.433-1.015 0.841-1.508 1.278 0.003 0.712-0.007 1.424 0.006 2.136 0.571-0.446 1.102-0.943 1.673-1.389 0.009 1.927-0.012 3.855 0.010 5.782-0.002 0.052-0.049 0.087-0.075 0.128-1.675 1.993-3.345 3.99-5.021 5.982-2.054-2.465-3.007-5.794-2.588-8.973 0.367-3.013 1.973-5.843 4.352-7.723 1.342-1.071 2.919-1.848 4.59-2.245z"></path>
<path fill="#fff" d="M18.090 8.114c1.002-1.199 2.007-2.396 3.013-3.592 2.054 2.464 3.006 5.794 2.586 8.972-0.369 3.023-1.985 5.863-4.376 7.743-1.335 1.061-2.905 1.829-4.565 2.224-2.858 0.687-5.976 0.269-8.529-1.197 0.876-1.055 1.76-2.103 2.642-3.152 0.294-0.005 0.588-0 0.881-0.003 0.010-0.344 0.004-0.687-0-1.030 0.556-0.708 1.158-1.384 1.73-2.082 0.084 0.36 0.139 0.73 0.283 1.073 0.295 0.775 0.907 1.407 1.635 1.792 0.917 0.482 2.077 0.461 2.974-0.058 0.58-0.338 1.086-0.825 1.39-1.428 0.33-0.645 0.443-1.378 0.446-2.095 0.001-1.688 0-3.375 0-5.063-0.006-0.703 0.036-1.413-0.11-2.105z"></path>
<path fill="#fff" d="M13.278 13.843c1.056-1.25 2.1-2.51 3.159-3.758 0.031 1.654 0.004 3.308 0.014 4.962 0.006 0.603-0.096 1.264-0.539 1.71-0.629 0.664-1.868 0.567-2.359-0.217-0.505-0.755-0.308-1.701-0.364-2.552 0.007-0.058 0.056-0.1 0.088-0.145z"></path>
<path fill="#808080" d="M11.696 7.614c0.43-1.29 1.703-2.298 3.082-2.299-1.106 1.327-2.213 2.656-3.335 3.97 0.011-0.564 0.066-1.135 0.254-1.671z"></path>
<path fill="#808080" d="M7.812 5.563c0.086-0.070 0.172-0.164 0.293-0.156 0.545-0.003 1.091 0 1.636 0 0.022 1.962-0.023 3.925 0.023 5.886l0.001 0.011c-0.603 0.678-1.146 1.413-1.772 2.067-0.022-1.927-0.001-3.855-0.010-5.782-0.571 0.446-1.102 0.943-1.673 1.389-0.013-0.712-0.002-1.424-0.006-2.136 0.493-0.437 1.011-0.845 1.508-1.278z"></path>
<path fill="#808080" d="M16.437 10.074c0.557-0.648 1.098-1.31 1.652-1.96 0.146 0.692 0.105 1.402 0.11 2.105-0 1.688 0 3.375-0 5.063-0.003 0.718-0.115 1.451-0.446 2.095-0.304 0.603-0.81 1.090-1.39 1.428-0.897 0.519-2.057 0.54-2.974 0.058-0.728-0.385-1.34-1.017-1.635-1.792-0.144-0.343-0.199-0.713-0.283-1.073 0.58-0.663 1.111-1.374 1.719-2.009 0.055 0.852-0.141 1.798 0.364 2.552 0.491 0.784 1.73 0.881 2.359 0.217 0.442-0.446 0.545-1.108 0.539-1.71-0.010-1.654 0.017-3.308-0.014-4.962l-0-0.011z"></path>
<path fill="#808080" d="M8.86 19.112c0.293-0.345 0.571-0.703 0.881-1.033 0.004 0.344 0.010 0.687 0 1.030-0.293 0.002-0.587-0.002-0.881 0.003z"></path>
</svg>
