<!-- Generated by IcoMoon.io -->
<svg version="1.1" xmlns="http://www.w3.org/2000/svg" width="24" height="24" viewBox="0 0 24 24">
<title>regulatory--maximum-speed-limit-led-45--g3</title>
<path fill="#000" d="M2.008 0h19.979c0.506 0.141 0.841 0.653 0.836 1.167 0.002 7.206 0 14.412 0.001 21.618 0.020 0.529-0.313 1.066-0.834 1.215h-19.976c-0.507-0.14-0.843-0.652-0.837-1.168-0.001-7.222-0.001-14.443 0-21.665-0.006-0.514 0.328-1.022 0.831-1.167M2.706 2.003c-0.414 0.405-0.416 1.162 0.028 1.545 0.467 0.42 1.147 0.436 1.65 0.79 0.303 0.211 0.217 0.738-0.131 0.853-0.509 0.215-1.102-0.090-1.303-0.585-0.239 0.088-0.479 0.174-0.716 0.266 0.329 1.192 2.086 1.522 2.869 0.603 0.376-0.481 0.344-1.273-0.14-1.672-0.385-0.325-0.887-0.444-1.348-0.62-0.166-0.069-0.353-0.158-0.419-0.339-0.046-0.17 0.047-0.362 0.208-0.433 0.384-0.164 0.913-0.043 1.087 0.367 0.231-0.076 0.462-0.152 0.692-0.231-0.262-1.048-1.766-1.235-2.477-0.545M6.399 1.647c-0.004 1.419-0.003 2.838-0.001 4.258 0.258 0.003 0.516 0.001 0.773 0.001 0-0.531-0.001-1.062 0-1.593 0.431-0.011 0.865 0.023 1.294-0.023 0.49-0.060 0.937-0.409 1.075-0.888 0.239-0.682-0.142-1.553-0.886-1.695-0.743-0.125-1.505-0.033-2.256-0.059M10.473 1.652c-0.006 1.417-0.002 2.835-0.001 4.252 0.974 0.003 1.948 0.002 2.922 0-0-0.246 0.003-0.491-0.003-0.737-0.715-0.007-1.43 0-2.144-0.003-0.001-0.362-0.001-0.724-0-1.087 0.413-0.001 0.827 0 1.24-0.001 0-0.245 0.002-0.49-0.002-0.735-0.413-0.007-0.825-0-1.238-0.004-0.001-0.316-0.001-0.632-0-0.948 0.672-0.002 1.343 0.001 2.015-0.001 0-0.245 0.003-0.491-0.002-0.736-0.929-0.006-1.858-0.004-2.786-0.001M14.395 1.654c-0.007 1.417-0.001 2.835-0.003 4.252 0.973 0 1.947 0.001 2.92-0 0.002-0.246 0.003-0.493-0.001-0.739-0.714-0.002-1.428 0.001-2.141-0.001-0.001-0.362-0.001-0.724-0-1.087 0.412-0.001 0.824 0 1.236-0.001 0-0.246 0.002-0.491-0.001-0.736-0.412-0.004-0.823 0-1.235-0.002-0.001-0.316-0.001-0.632-0-0.948 0.671-0.003 1.342 0.003 2.013-0.003 0.005-0.245 0.005-0.491 0-0.736-0.93-0.003-1.859-0.006-2.788 0.001M18.31 1.651c-0.005 1.418-0.005 2.836-0 4.254 0.806-0.041 1.684 0.146 2.422-0.27 0.717-0.402 1.008-1.287 0.939-2.070-0.038-0.688-0.393-1.396-1.037-1.698-0.726-0.341-1.551-0.18-2.324-0.217M4.233 6.567c-0.002 1.416-0.001 2.832 0 4.247 0.938 0.002 1.875 0 2.813 0.001-0-0.248 0-0.495-0.001-0.743-0.679-0.002-1.358 0-2.037-0.001-0.002-1.168 0.001-2.336-0.002-3.504-0.258-0.002-0.516-0.002-0.773 0M7.924 6.56c-0.001 1.418-0.001 2.837 0 4.255 0.257 0.001 0.515 0.001 0.772 0 0-1.418 0.001-2.837-0-4.255-0.257-0.001-0.514-0.001-0.772-0M9.956 6.56c-0.002 1.418-0.002 2.836 0 4.254 0.258 0.002 0.516 0.001 0.773 0-0.004-0.855 0.012-1.71-0.009-2.565 0.383 0.894 0.781 1.782 1.178 2.67 0.39-0.891 0.81-1.769 1.17-2.672-0.019 0.856-0.005 1.712-0.008 2.568 0.257 0 0.514 0.001 0.771-0 0-1.418 0.001-2.837-0-4.255-0.248-0.001-0.496-0.001-0.744-0-0.395 0.907-0.812 1.804-1.185 2.72-0.368-0.916-0.785-1.813-1.176-2.72-0.257-0-0.513-0.001-0.77 0M15.093 6.56c-0.001 1.418-0.001 2.837 0 4.255 0.257 0.001 0.514 0 0.771 0.001 0-1.419 0.001-2.837-0-4.256-0.256-0.001-0.513-0.001-0.77-0M16.856 6.557c-0.001 0.248-0.001 0.495-0 0.743 0.398 0.001 0.795-0.001 1.192 0 0.002 1.172-0.001 2.343 0.001 3.515 0.257 0 0.514 0 0.772-0 0.001-1.171-0.001-2.343 0.001-3.514 0.398-0.002 0.795 0 1.193-0.001 0.001-0.248 0.001-0.495 0-0.743-1.053-0.001-2.106-0.001-3.158 0M8.702 13.043c-1.688 2.206-3.385 4.406-5.071 6.614-0.051 0.253-0.007 0.524-0.021 0.784 1.671 0.001 3.341-0 5.012 0 0.001 0.812-0.001 1.625 0 2.437 0.423 0.001 0.846 0.001 1.268 0 0.003-0.812 0-1.625 0.001-2.437 0.462-0.001 0.923 0.001 1.385-0.001 0.001-0.381 0.001-0.762 0-1.142-0.461-0.001-0.923 0-1.384-0-0.002-2.085 0.001-4.171-0.001-6.256-0.397 0-0.793-0.003-1.189 0.001M13.826 13.069c-0.196 1.66-0.389 3.32-0.58 4.98 0.412 0.146 0.825 0.293 1.241 0.432 0.727-0.777 1.987-1.033 2.948-0.57 1.149 0.597 1.308 2.34 0.438 3.243-0.574 0.633-1.487 0.825-2.308 0.715-0.715-0.060-1.377-0.401-1.903-0.88-0.254 0.327-0.509 0.652-0.759 0.981 0.803 0.793 1.981 1.086 3.082 1.094 1.064 0.042 2.17-0.338 2.896-1.136 1.145-1.216 1.178-3.326 0.011-4.538-1.102-1.155-3.058-1.207-4.322-0.291 0.121-0.948 0.244-1.897 0.366-2.845 1.392-0.002 2.783 0 4.175-0.001 0.001-0.395 0.002-0.789-0.001-1.184-1.761 0-3.523-0.001-5.284 0z"></path>
<path fill="#000" d="M7.172 2.391c0.413 0.014 0.831-0.031 1.241 0.025 0.53 0.121 0.523 0.998 0 1.126-0.409 0.056-0.828 0.010-1.241 0.024-0.002-0.392-0.001-0.784-0-1.176z"></path>
<path fill="#000" d="M19.082 2.391c0.415 0.024 0.874-0.084 1.247 0.15 0.411 0.265 0.556 0.79 0.547 1.254 0.002 0.461-0.161 0.976-0.578 1.223-0.367 0.224-0.811 0.126-1.216 0.147-0.001-0.925-0-1.85-0-2.775z"></path>
<path fill="#000" d="M5.29 19.297c1.108-1.479 2.22-2.955 3.333-4.431-0.001 1.477 0 2.953-0.001 4.43-1.11 0-2.221-0.001-3.332 0z"></path>
<path fill="#fff" d="M2.706 2.003c0.711-0.69 2.215-0.503 2.477 0.545-0.23 0.079-0.461 0.155-0.692 0.231-0.174-0.41-0.703-0.531-1.087-0.367-0.161 0.070-0.254 0.263-0.208 0.433 0.066 0.181 0.253 0.27 0.419 0.339 0.46 0.176 0.963 0.295 1.348 0.62 0.484 0.399 0.517 1.191 0.14 1.672-0.782 0.919-2.54 0.589-2.869-0.603 0.237-0.092 0.477-0.179 0.716-0.266 0.201 0.495 0.794 0.8 1.303 0.585 0.348-0.115 0.435-0.641 0.131-0.853-0.503-0.354-1.183-0.371-1.65-0.79-0.443-0.384-0.442-1.141-0.028-1.545z"></path>
<path fill="#fff" d="M6.399 1.647c0.751 0.026 1.513-0.067 2.256 0.059 0.744 0.142 1.125 1.014 0.886 1.695-0.138 0.48-0.585 0.829-1.075 0.888-0.429 0.046-0.863 0.012-1.294 0.023-0.001 0.531 0 1.062-0 1.593-0.258 0-0.516 0.002-0.773-0.001-0.002-1.419-0.003-2.838 0.001-4.258M7.172 2.391c-0 0.392-0.001 0.784 0 1.176 0.413-0.014 0.832 0.031 1.241-0.024 0.523-0.128 0.53-1.005 0-1.126-0.41-0.056-0.828-0.011-1.241-0.025z"></path>
<path fill="#fff" d="M10.473 1.652c0.929-0.003 1.858-0.005 2.786 0.001 0.005 0.246 0.002 0.491 0.002 0.736-0.672 0.002-1.343-0-2.015 0.001-0 0.316-0.001 0.632 0 0.948 0.413 0.003 0.825-0.003 1.238 0.004 0.004 0.245 0.002 0.49 0.002 0.735-0.413 0.001-0.827-0-1.24 0.001-0 0.362-0.001 0.724 0 1.087 0.714 0.003 1.429-0.004 2.144 0.003 0.006 0.246 0.002 0.491 0.003 0.737-0.974 0.001-1.948 0.002-2.922-0-0.001-1.418-0.004-2.835 0.001-4.253z"></path>
<path fill="#fff" d="M14.395 1.654c0.93-0.007 1.859-0.004 2.788-0.001 0.004 0.245 0.005 0.491-0 0.736-0.671 0.006-1.342 0-2.013 0.003-0 0.316-0.001 0.632 0 0.948 0.412 0.002 0.823-0.001 1.235 0.002 0.003 0.245 0.001 0.491 0.001 0.736-0.412 0.001-0.824-0-1.236 0.001-0 0.362-0.001 0.724 0 1.087 0.713 0.002 1.427-0.001 2.141 0.001 0.004 0.246 0.003 0.493 0.001 0.739-0.974 0.002-1.947 0.001-2.92 0 0.001-1.417-0.004-2.835 0.003-4.252z"></path>
<path fill="#fff" d="M18.31 1.651c0.773 0.037 1.598-0.125 2.324 0.217 0.644 0.301 0.999 1.010 1.037 1.698 0.069 0.782-0.222 1.667-0.939 2.070-0.738 0.416-1.616 0.229-2.422 0.27-0.004-1.418-0.005-2.836 0-4.254M19.082 2.391c0 0.925-0.001 1.85 0 2.775 0.405-0.021 0.85 0.077 1.216-0.147 0.417-0.247 0.58-0.762 0.578-1.223 0.008-0.464-0.136-0.989-0.547-1.254-0.373-0.234-0.833-0.127-1.247-0.15z"></path>
<path fill="#fff" d="M4.233 6.567c0.258-0.002 0.516-0.002 0.773 0 0.003 1.168-0 2.336 0.002 3.504 0.679 0.001 1.358-0.001 2.037 0.001 0.001 0.247 0 0.495 0.001 0.743-0.938-0-1.875 0.001-2.813-0.001-0.001-1.416-0.002-2.832 0-4.247z"></path>
<path fill="#fff" d="M7.924 6.56c0.257-0.001 0.514-0.001 0.772 0 0.001 1.418 0.001 2.836 0 4.255-0.257 0.001-0.515 0.001-0.772 0-0.001-1.418-0.001-2.837 0-4.255z"></path>
<path fill="#fff" d="M9.956 6.56c0.256-0.001 0.513-0.001 0.77-0 0.391 0.907 0.808 1.804 1.176 2.72 0.372-0.916 0.789-1.814 1.185-2.72 0.248-0 0.496-0.001 0.744 0 0.001 1.418 0 2.836 0 4.255-0.257 0.001-0.514 0-0.771 0 0.004-0.856-0.010-1.712 0.008-2.568-0.361 0.903-0.78 1.782-1.17 2.672-0.397-0.888-0.795-1.775-1.178-2.67 0.021 0.855 0.006 1.71 0.009 2.565-0.258 0.001-0.516 0.001-0.773-0-0.002-1.418-0.002-2.836 0-4.254z"></path>
<path fill="#fff" d="M15.093 6.56c0.257-0 0.514-0.001 0.77 0 0.001 1.418 0.001 2.837 0 4.256-0.257-0-0.514 0-0.771-0.001-0.001-1.418-0.001-2.837 0-4.255z"></path>
<path fill="#fff" d="M16.856 6.557c1.053-0.001 2.106-0.001 3.158 0 0.001 0.248 0.001 0.495 0 0.743-0.398 0.001-0.795-0.001-1.193 0.001-0.002 1.171 0 2.343-0.001 3.514-0.257 0.001-0.514 0.001-0.772 0-0.002-1.172 0.001-2.343-0.001-3.515-0.398-0.001-0.795 0-1.192-0-0-0.248-0.001-0.495 0-0.743z"></path>
<path fill="#fff" d="M8.702 13.043c0.397-0.004 0.793-0.001 1.189-0.001 0.002 2.085-0 4.17 0.001 6.256 0.461 0 0.923-0.001 1.384 0 0.001 0.381 0.001 0.762 0 1.142-0.461 0.002-0.923 0-1.385 0.001-0.001 0.812 0.001 1.625-0.001 2.437-0.422 0-0.845 0-1.268-0-0.001-0.812 0-1.624-0-2.437-1.671-0.001-3.341 0-5.012-0 0.014-0.26-0.030-0.532 0.021-0.784 1.686-2.208 3.383-4.407 5.071-6.614M5.29 19.297c1.111-0.002 2.221 0 3.332-0 0.001-1.477-0-2.954 0.001-4.43-1.113 1.475-2.225 2.951-3.333 4.431z"></path>
<path fill="#fff" d="M13.826 13.069c1.762-0.001 3.523 0 5.284-0 0.003 0.395 0.002 0.789 0.001 1.184-1.392 0.002-2.783-0-4.175 0.001-0.122 0.948-0.245 1.897-0.366 2.845 1.264-0.916 3.22-0.864 4.322 0.291 1.167 1.212 1.133 3.322-0.011 4.538-0.726 0.798-1.832 1.178-2.896 1.136-1.101-0.008-2.279-0.301-3.082-1.094 0.25-0.329 0.506-0.654 0.759-0.981 0.526 0.479 1.187 0.82 1.903 0.88 0.821 0.11 1.734-0.082 2.308-0.715 0.87-0.903 0.711-2.646-0.438-3.243-0.961-0.463-2.221-0.207-2.948 0.57-0.415-0.138-0.828-0.285-1.241-0.432 0.191-1.66 0.384-3.32 0.58-4.98z"></path>
</svg>
