<svg xmlns="http://www.w3.org/2000/svg" width="24" height="24">
    <path fill="#ec1d24" d="M10.24.173c2.216-.32 4.525-.029 6.576.882 3.799 1.636 6.589 5.38 7.05 9.494.46 3.566-.814 7.3-3.356 9.842-3.12 3.223-8.132 4.428-12.367 2.922-3.19-1.075-5.866-3.557-7.159-6.666C-.23 13.799-.265 10.474.881 7.599 2.392 3.697 6.088.741 10.241.172zM5.112 5.471C2.503 8.16 1.74 12.472 3.353 15.865a127.026 127.026 0 0 0 3.492-2.017 97.523 97.523 0 0 0 3.137-1.805 165.63 165.63 0 0 0 4.004-2.314 98.928 98.928 0 0 0 2.75-1.588c.989-.553 1.961-1.134 2.944-1.694-1.68-2.381-4.529-3.87-7.439-3.926-2.653-.09-5.309 1.02-7.129 2.95zm12.05 4.676c-1.063.564-2.096 1.188-3.136 1.794a225.714 225.714 0 0 0-4.046 2.338c-1.057.588-2.096 1.205-3.142 1.811-.848.476-1.685.976-2.531 1.456 1.778 2.514 4.855 4.042 7.934 3.931 2.323-.04 4.6-.998 6.281-2.596 2.881-2.658 3.809-7.207 2.117-10.756-1.158.676-2.34 1.313-3.478 2.022z"/>
    <path fill="#fff" d="M5.112 5.471c1.82-1.93 4.476-3.04 7.129-2.95 2.91.056 5.759 1.546 7.439 3.926-.983.56-1.955 1.141-2.944 1.694-1.049-2.606-4.385-3.857-6.902-2.629-1.717.775-2.923 2.554-2.987 4.44-.02 1.297-.014 2.597-.002 3.895a127.026 127.026 0 0 1-3.492 2.017C1.74 12.47 2.503 8.159 5.112 5.47z"/>
    <path fill="#fff" d="M10 9.959c.09-1.033 1.096-1.861 2.125-1.768.881.025 1.628.709 1.861 1.538a174.687 174.687 0 0 1-4.004 2.314c.011-.695-.026-1.391.018-2.084zM17.162 10.147c1.138-.709 2.32-1.346 3.478-2.022 1.692 3.548.764 8.098-2.117 10.756-1.681 1.597-3.958 2.556-6.281 2.596-3.079.11-6.156-1.417-7.934-3.931.846-.48 1.682-.979 2.531-1.456.032.497-.076 1.022.052 1.501.487.536 1.015 1.034 1.518 1.556.514-.55 1.096-1.043 1.561-1.631.032-1.078.005-2.159.011-3.238 1.34-.793 2.69-1.572 4.046-2.338.01 2.398-.008 4.794.008 7.192.533-.503 1.032-1.04 1.567-1.541.533.502 1.031 1.04 1.565 1.541.008-2.995.017-5.99-.005-8.986z"/>
    <path d="M9.834 5.513c2.518-1.228 5.854.023 6.902 2.629-.91.541-1.825 1.075-2.75 1.588-.233-.829-.98-1.513-1.861-1.538-1.03-.094-2.035.734-2.125 1.768-.044.694-.007 1.39-.018 2.084a98.33 98.33 0 0 1-3.137 1.805c-.012-1.298-.018-2.598.002-3.895.064-1.886 1.27-3.665 2.987-4.44zM14.027 11.941c1.039-.606 2.072-1.23 3.136-1.794.022 2.995.013 5.99.005 8.986-.534-.5-1.032-1.039-1.565-1.541-.535.5-1.034 1.038-1.567 1.541-.017-2.398.001-4.794-.008-7.192zM6.839 16.09c1.045-.606 2.084-1.223 3.142-1.811-.006 1.079.022 2.16-.011 3.238-.466.588-1.048 1.081-1.561 1.631-.503-.522-1.031-1.02-1.518-1.556-.127-.479-.019-1.004-.052-1.501z"/>
</svg>
