<!-- Generated by IcoMoon.io -->
<svg version="1.1" xmlns="http://www.w3.org/2000/svg" width="48" height="24" viewBox="0 0 48 24">
<title>regulatory--look--g1</title>
<path fill="#231f20" d="M2.012 0h43.873c0.76 0.089 1.42 0.555 1.797 1.215v21.885c-0.247 0.351-0.552 0.655-0.905 0.9h-45.672c-0.558-0.311-0.931-0.861-1.106-1.465v-20.869c0.277-0.884 1.091-1.555 2.012-1.665M1.625 0.46c-0.726 0.261-1.328 0.96-1.31 1.757 0.005 6.664 0.001 13.328 0.002 19.991 0.089 0.898 0.89 1.642 1.792 1.685 14.559 0.002 29.116 0.002 43.675 0 0.946-0.040 1.751-0.846 1.792-1.792 0.004-6.628-0.002-13.256 0.003-19.884 0.021-0.843-0.687-1.603-1.477-1.79-14.698-0.013-29.397 0.003-44.097-0.007-0.13-0.006-0.257 0.006-0.381 0.040z"></path>
<path fill="#231f20" d="M1.624 0.777c0.069-0.010 0.205-0.029 0.273-0.037 14.7 0 29.399 0.001 44.1-0.001 0.733 0.031 1.229 0.795 1.262 1.477 0.001 6.629 0.002 13.257 0 19.886-0.004 0.787-0.688 1.47-1.475 1.474-14.558 0.002-29.116 0.002-43.674 0-0.787-0.004-1.471-0.688-1.475-1.475-0.004-6.628 0.003-13.256-0.004-19.883-0.015-0.622 0.38-1.263 0.993-1.441M1.828 1.479c-0.213 0.238-0.492 0.491-0.455 0.842 0.003 6.523 0 13.047 0.001 19.569-0.001 0.312 0.137 0.606 0.33 0.846 14.657-0.008 29.315-0.003 43.972-0.003 0.216 0.004 0.424-0.053 0.63-0.109 0.056-0.206 0.113-0.414 0.109-0.629-0.003-6.717 0-13.434-0.001-20.15-0.123-0.121-0.244-0.241-0.364-0.364-14.74-0.001-29.482 0.002-44.222-0.001z"></path>
<path fill="#231f20" d="M9.135 5.647c0.591-0.349 1.079-0.93 1.793-1.022 0.133 0.138 0.269 0.276 0.406 0.41-0.088 0.629-0.372 1.208-0.476 1.833 8.726 0.007 17.451 0.007 26.178 0-0.113-0.7-0.632-1.395-0.344-2.105 0.214-0.047 0.46-0.198 0.664-0.043 1.738 1.116 3.425 2.312 5.142 3.462 0 0.026 0.001 0.078 0.001 0.104-1.813 1.17-3.534 2.509-5.405 3.576-0.183-0.117-0.362-0.24-0.536-0.368 0.045-0.648 0.312-1.247 0.48-1.866-8.727-0.010-17.453-0.007-26.18-0.001 0.156 0.623 0.412 1.224 0.48 1.866-0.175 0.129-0.356 0.252-0.539 0.37-0.993-0.439-1.805-1.185-2.721-1.754-0.891-0.618-1.878-1.187-2.683-1.873 1.152-0.924 2.495-1.736 3.741-2.587z"></path>
<path fill="#231f20" d="M19.492 13.042c1.407-0.343 3.021 0.48 3.412 1.905 0.547 1.516-0.592 3.344-2.176 3.573-1.564 0.391-3.279-0.928-3.32-2.538-0.199-1.334 0.797-2.635 2.084-2.939M18.792 14.883c-0.625 0.761-0.191 1.972 0.663 2.348 1.021 0.635 2.485-0.304 2.438-1.478 0.033-0.926-0.829-1.624-1.704-1.672-0.528 0.122-1.138 0.267-1.397 0.801z"></path>
<path fill="#231f20" d="M26.048 13.044c1.78-0.487 3.699 1.055 3.534 2.903-0.095 1.299-1.169 2.468-2.474 2.608-1.769 0.313-3.523-1.481-3.144-3.243 0.122-1.098 1.021-2.026 2.084-2.269M25.052 15.644c-0.126 1.186 1.305 2.202 2.365 1.627 0.864-0.31 1.336-1.472 0.819-2.263-0.24-0.593-0.894-0.854-1.488-0.923-0.837 0.044-1.663 0.68-1.697 1.558z"></path>
<path fill="#231f20" d="M12.159 13.11c0.352 0 0.705 0 1.057 0 0 1.409 0 2.82 0 4.229 1.198 0 2.397 0 3.595 0 0 0.388 0 0.775 0 1.163-1.551 0-3.101 0-4.652 0 0-1.797 0-3.595 0-5.392z"></path>
<path fill="#231f20" d="M30.661 13.11c0.387 0 0.775 0 1.163 0 0 0.719-0.001 1.439 0 2.158 0.742-0.666 1.315-1.488 2.054-2.158 0.529 0 1.057-0.001 1.586 0-0.629 0.568-1.13 1.252-1.735 1.84 0.677 1.185 1.45 2.322 2.058 3.542-0.423 0.016-0.846 0.011-1.269 0.011-0.53-0.884-1.048-1.775-1.562-2.67-0.375 0.378-0.75 0.759-1.133 1.129 0 0.513 0 1.027 0 1.54-0.388 0-0.775 0-1.163 0 0-1.797 0-3.595 0-5.392z"></path>
<path fill="#fff" d="M1.625 0.46c0.124-0.034 0.251-0.047 0.381-0.040 14.699 0.011 29.398-0.005 44.097 0.007 0.79 0.187 1.498 0.947 1.477 1.79-0.005 6.628 0.001 13.256-0.003 19.884-0.041 0.946-0.846 1.752-1.792 1.792-14.559 0.002-29.116 0.002-43.675 0-0.902-0.043-1.703-0.788-1.792-1.685-0.001-6.663 0.003-13.327-0.002-19.991-0.018-0.797 0.584-1.496 1.31-1.757M1.624 0.777c-0.613 0.178-1.008 0.819-0.993 1.441 0.007 6.627 0 13.255 0.004 19.883 0.004 0.787 0.688 1.471 1.475 1.475 14.558 0.002 29.116 0.002 43.674 0 0.787-0.004 1.471-0.687 1.475-1.474 0.002-6.629 0.001-13.257 0-19.886-0.034-0.682-0.53-1.446-1.262-1.477-14.7 0.002-29.399 0.001-44.1 0.001-0.068 0.008-0.204 0.027-0.273 0.037z"></path>
<path fill="#fff" d="M1.828 1.479c14.74 0.003 29.482 0 44.222 0.001 0.119 0.123 0.241 0.243 0.364 0.364 0.001 6.717-0.002 13.434 0.001 20.15 0.004 0.215-0.053 0.423-0.109 0.629-0.206 0.056-0.414 0.113-0.63 0.109-14.657 0-29.315-0.005-43.972 0.003-0.192-0.24-0.331-0.534-0.33-0.846-0.001-6.522 0.002-13.046-0.001-19.569-0.037-0.351 0.242-0.604 0.455-0.842M9.135 5.647c-1.245 0.851-2.588 1.663-3.741 2.587 0.806 0.686 1.792 1.255 2.683 1.873 0.917 0.569 1.729 1.315 2.721 1.754 0.183-0.118 0.364-0.241 0.539-0.37-0.068-0.642-0.324-1.243-0.48-1.866 8.727-0.006 17.453-0.008 26.18 0.001-0.168 0.62-0.435 1.218-0.48 1.866 0.174 0.128 0.353 0.251 0.536 0.368 1.87-1.067 3.592-2.405 5.405-3.576 0-0.025-0.001-0.077-0.001-0.104-1.717-1.149-3.403-2.345-5.142-3.462-0.204-0.154-0.45-0.003-0.664 0.043-0.289 0.71 0.23 1.405 0.344 2.105-8.727 0.007-17.452 0.007-26.178 0 0.104-0.625 0.388-1.204 0.476-1.833-0.137-0.134-0.273-0.272-0.406-0.41-0.714 0.092-1.202 0.673-1.793 1.022M19.492 13.042c-1.287 0.304-2.283 1.605-2.084 2.939 0.041 1.61 1.756 2.93 3.32 2.538 1.584-0.228 2.722-2.056 2.176-3.573-0.391-1.425-2.005-2.248-3.412-1.905M26.048 13.044c-1.063 0.243-1.962 1.17-2.084 2.269-0.378 1.761 1.376 3.556 3.144 3.243 1.305-0.141 2.379-1.309 2.474-2.608 0.165-1.848-1.754-3.391-3.534-2.903M12.159 13.11c0 1.797 0 3.595 0 5.392 1.551 0 3.101 0 4.652 0 0-0.388 0-0.775 0-1.163-1.198 0-2.397 0-3.595 0 0-1.409 0-2.82 0-4.229-0.352 0-0.705 0-1.057 0M30.661 13.11c0 1.797 0 3.595 0 5.392 0.388 0 0.775 0 1.163 0 0-0.514 0-1.028 0-1.54 0.384-0.37 0.758-0.751 1.133-1.129 0.514 0.894 1.032 1.786 1.562 2.67 0.423 0 0.846 0.005 1.269-0.011-0.609-1.22-1.382-2.357-2.058-3.542 0.605-0.588 1.106-1.272 1.735-1.84-0.529-0.001-1.057 0-1.586 0-0.739 0.67-1.312 1.492-2.054 2.158-0.001-0.719 0-1.439 0-2.158-0.388 0-0.776 0-1.163 0z"></path>
<path fill="#fff" d="M18.792 14.883c0.259-0.534 0.869-0.68 1.397-0.801 0.875 0.048 1.737 0.745 1.704 1.672 0.047 1.174-1.417 2.113-2.438 1.478-0.854-0.376-1.288-1.587-0.663-2.348z"></path>
<path fill="#fff" d="M25.052 15.644c0.034-0.879 0.86-1.514 1.697-1.558 0.593 0.069 1.248 0.33 1.488 0.923 0.517 0.791 0.044 1.953-0.819 2.263-1.060 0.575-2.491-0.441-2.365-1.627z"></path>
</svg>
