<!-- Generated by IcoMoon.io -->
<svg version="1.1" xmlns="http://www.w3.org/2000/svg" width="20" height="24" viewBox="0 0 20 24">
<title>regulatory--go-straight--g3</title>
<path fill="#fffffe" d="M0.956 0h17.961l0.090 0.044c-0.579-0.048-1.161-0.028-1.742-0.032-5.101 0-10.202 0.001-15.303 0-0.365-0.006-0.73 0.002-1.095 0.033l0.090-0.044z"></path>
<path fill="#fffffe" d="M1.14 0.169c5.812-0.031 11.625-0.010 17.437-0.011 0.705-0.033 1.289 0.659 1.188 1.346-0.003 7.040-0.001 14.082-0.001 21.123 0.010 0.473-0.318 0.925-0.756 1.092-0.311 0.095-0.64 0.074-0.96 0.075-5.384 0-10.769 0-16.153 0-0.275-0.002-0.551 0.014-0.823-0.025-0.549-0.062-0.989-0.592-0.984-1.138 0.001-7.109 0.001-14.219 0-21.328 0-0.566 0.479-1.101 1.050-1.135M1.139 0.43c-0.46 0.037-0.793 0.497-0.789 0.94 0.001 7.086-0.002 14.172 0.001 21.259-0.003 0.392 0.257 0.742 0.634 0.848 0.473 0.082 0.955 0.053 1.433 0.057 5.188 0.001 10.376 0 15.564 0.001 0.283-0.002 0.571 0.016 0.849-0.048 0.405-0.097 0.689-0.514 0.674-0.923-0.003-7.062 0.001-14.124-0.001-21.186 0.016-0.409-0.264-0.83-0.673-0.92-0.406-0.103-0.829-0.057-1.243-0.046-5.483 0.020-10.969-0.019-16.451 0.020z"></path>
<path fill="#fffffe" d="M1.133 0.942c0.077-0.021 0.156-0.032 0.237-0.033 5.538-0.001 11.076 0.001 16.614-0.001 0.292 0.011 0.614-0.041 0.882 0.097 0.267 0.303 0.136 0.725 0.146 1.088-0.006 6.846 0.004 13.691-0.005 20.536-0.006 0.295-0.309 0.424-0.567 0.407-5.559 0.007-11.118-0.006-16.677 0.007-0.331 0.022-0.899 0.051-0.914-0.411-0.007-7.065-0.001-14.131-0.004-21.196-0.008-0.196 0.066-0.454 0.288-0.494M6.837 7.297c-0.203 0.273 0.086 0.721 0.42 0.641 0.502-0.107 0.984-0.289 1.479-0.422 0.002 2.586-0.001 5.171 0.001 7.757 0.794 0.002 1.587 0.002 2.381 0 0.003-2.586 0-5.171 0.001-7.757 0.496 0.134 0.978 0.318 1.481 0.423 0.349 0.078 0.636-0.396 0.405-0.67-1.025-1.516-2.051-3.030-3.079-4.544-1.031 1.524-2.065 3.045-3.090 4.572M4.667 17.23c-0.257 0.032-0.492 0.187-0.651 0.388-0.58 0.908-0.577 2.114-0.112 3.070 0.401 0.794 1.754 0.819 2.137 0 0.481-0.864 0.439-1.951 0.052-2.841-0.247-0.528-0.875-0.768-1.426-0.617M7.243 17.259c-0.002 1.319-0.001 2.639 0 3.958 0.208 0.002 0.416 0.002 0.624 0 0.003-0.891-0.002-1.781 0.002-2.672 0.509 0.877 0.991 1.769 1.503 2.643 0.173 0.069 0.38 0.015 0.566 0.028 0.001-1.32 0.001-2.639 0-3.958-0.209-0.002-0.417-0.002-0.625 0.001-0.004 0.836 0.006 1.671-0.005 2.507-0.494-0.831-0.953-1.683-1.449-2.513-0.205 0.003-0.411 0.004-0.616 0.005M10.871 17.259c-0.002 1.32-0.001 2.639-0.001 3.958 0.82 0.002 1.64 0.002 2.46-0.001 0.001-0.194 0.001-0.387 0-0.581-0.608-0.001-1.216-0.004-1.824 0.002-0.024-1.126-0.002-2.253-0.010-3.379-0.208-0.002-0.416-0.002-0.624 0M12.942 17.259c0.454 0.749 0.936 1.481 1.377 2.236 0.028 0.574 0.001 1.15 0.012 1.724 0.207 0 0.415 0 0.623-0.001 0.011-0.574-0.016-1.15 0.012-1.723 0.436-0.755 0.914-1.487 1.362-2.235-0.248-0.005-0.496-0.007-0.743 0.006-0.312 0.509-0.632 1.013-0.95 1.518-0.324-0.507-0.624-1.029-0.956-1.53-0.245 0.006-0.491 0.003-0.737 0.005z"></path>
<path fill="#fffffe" d="M4.727 17.879c0.285-0.118 0.665-0.020 0.8 0.274 0.32 0.668 0.304 1.485 0.002 2.156-0.177 0.412-0.832 0.454-1.057 0.069-0.318-0.585-0.324-1.298-0.15-1.929 0.067-0.222 0.177-0.478 0.406-0.57z"></path>
<path fill="#fffffe" d="M18.692 23.933c0.109-0.063 0.246-0.114 0.367-0.048-0.105 0.083-0.244 0.069-0.367 0.048z"></path>
<path fill="#282727" d="M0 0.815c0.214-0.33 0.5-0.616 0.866-0.771 0.364-0.031 0.73-0.039 1.095-0.033 5.101 0.001 10.202 0 15.303 0 0.581 0.004 1.163-0.016 1.742 0.032 0.492 0.207 0.969 0.691 0.876 1.265-0.009 7.216 0.001 14.432-0.005 21.648-0.105 0.415-0.45 0.732-0.818 0.929-0.121-0.066-0.258-0.016-0.367 0.048-5.859-0.016-11.719 0.048-17.578-0.055-0.517 0.036-0.946-0.374-1.114-0.832v-22.23M1.14 0.169c-0.572 0.033-1.050 0.568-1.050 1.135 0.001 7.109 0.001 14.219 0 21.328-0.006 0.545 0.434 1.076 0.984 1.138 0.272 0.039 0.548 0.023 0.823 0.025 5.384 0 10.769 0 16.153 0 0.32-0.001 0.649 0.020 0.96-0.075 0.438-0.167 0.766-0.619 0.756-1.092-0.001-7.041-0.002-14.082 0.001-21.123 0.101-0.688-0.483-1.38-1.188-1.346-5.812 0.001-11.625-0.020-17.437 0.011z"></path>
<path fill="#1a1919" d="M1.139 0.43c5.482-0.039 10.967 0 16.451-0.020 0.414-0.011 0.836-0.057 1.243 0.046 0.409 0.090 0.689 0.511 0.673 0.92 0.002 7.062-0.002 14.124 0.001 21.186 0.015 0.409-0.269 0.826-0.674 0.923-0.279 0.065-0.566 0.046-0.849 0.048-5.188-0.001-10.376 0-15.564-0.001-0.478-0.004-0.96 0.025-1.433-0.057-0.377-0.105-0.638-0.456-0.634-0.848-0.003-7.086-0.001-14.173-0.001-21.259-0.005-0.443 0.328-0.903 0.789-0.94M1.133 0.942c-0.222 0.039-0.296 0.298-0.288 0.494 0.003 7.065-0.003 14.131 0.004 21.196 0.015 0.462 0.583 0.432 0.914 0.411 5.559-0.012 11.118 0 16.677-0.007 0.258 0.017 0.561-0.112 0.567-0.407 0.009-6.845-0.001-13.69 0.005-20.536-0.010-0.362 0.121-0.785-0.146-1.088-0.268-0.137-0.59-0.086-0.882-0.097-5.538 0.001-11.076 0-16.614 0.001-0.080 0.001-0.16 0.012-0.237 0.033z"></path>
<path fill="#1a1919" d="M6.837 7.297c1.025-1.527 2.059-3.048 3.090-4.572 1.028 1.513 2.054 3.028 3.079 4.544 0.231 0.275-0.056 0.748-0.405 0.67-0.502-0.105-0.985-0.289-1.481-0.423-0.001 2.586 0.001 5.171-0.001 7.757-0.794 0.002-1.587 0.002-2.381 0-0.002-2.586 0.001-5.171-0.001-7.757-0.495 0.133-0.978 0.315-1.479 0.422-0.334 0.080-0.623-0.368-0.42-0.641z"></path>
<path fill="#1a1919" d="M4.667 17.23c0.551-0.151 1.179 0.089 1.426 0.617 0.386 0.89 0.429 1.978-0.052 2.841-0.383 0.819-1.736 0.794-2.137 0-0.465-0.955-0.468-2.161 0.112-3.070 0.158-0.201 0.394-0.356 0.651-0.388M4.727 17.879c-0.23 0.092-0.339 0.348-0.406 0.57-0.174 0.631-0.168 1.345 0.15 1.929 0.226 0.385 0.881 0.343 1.057-0.069 0.302-0.671 0.318-1.488-0.002-2.156-0.135-0.294-0.515-0.392-0.8-0.274z"></path>
<path fill="#1a1919" d="M7.243 17.259c0.205-0.001 0.411-0.001 0.616-0.005 0.496 0.831 0.955 1.683 1.449 2.513 0.011-0.836 0.001-1.671 0.005-2.507 0.208-0.003 0.416-0.003 0.625-0.001 0.001 1.319 0.001 2.638 0 3.958-0.186-0.013-0.392 0.041-0.566-0.028-0.512-0.874-0.995-1.766-1.503-2.643-0.004 0.891 0.001 1.781-0.002 2.672-0.208 0.002-0.416 0.002-0.624 0-0.001-1.32-0.002-2.639 0-3.958z"></path>
<path fill="#1a1919" d="M10.871 17.259c0.208-0.002 0.416-0.002 0.624 0 0.009 1.126-0.013 2.253 0.010 3.379 0.608-0.006 1.216-0.003 1.824-0.002 0.001 0.194 0.001 0.387 0 0.581-0.819 0.003-1.639 0.003-2.46 0.001 0.001-1.32-0.001-2.639 0.001-3.958z"></path>
<path fill="#1a1919" d="M12.942 17.259c0.246-0.002 0.492 0.001 0.737-0.005 0.332 0.502 0.632 1.023 0.956 1.53 0.318-0.505 0.638-1.009 0.95-1.518 0.247-0.013 0.495-0.010 0.743-0.006-0.449 0.748-0.926 1.48-1.362 2.235-0.027 0.573-0.001 1.148-0.012 1.723-0.208 0.001-0.415 0.001-0.623 0.001-0.012-0.574 0.016-1.15-0.012-1.724-0.441-0.755-0.923-1.487-1.377-2.236z"></path>
</svg>
