<!-- Generated by IcoMoon.io -->
<svg version="1.1" xmlns="http://www.w3.org/2000/svg" width="19" height="24" viewBox="0 0 19 24">
<title>regulatory--keep-right--g4</title>
<path fill="#1e1e1e" opacity="0.92" d="M1.404 0h16.166l0.146 0.117c-5.373-0.057-10.749 0.025-16.121-0.040l-0.191-0.077z"></path>
<path fill="#fff" d="M1.595 0.077c5.372 0.065 10.748-0.017 16.121 0.040 0.18 0.079 0.363 0.154 0.537 0.246 0.492 0.395 0.859 0.98 0.844 1.628 0.005 6.673 0.005 13.346 0 20.019 0.015 0.648-0.354 1.229-0.843 1.627-0.211 0.113-0.437 0.198-0.66 0.284-5.37-0.057-10.743 0.010-16.114-0.034-0.694-0.22-1.212-0.787-1.405-1.485 0.067-6.973-0.008-13.949 0.037-20.922 0.222-0.692 0.783-1.216 1.483-1.403M1.742 0.362c-0.788 0.093-1.413 0.848-1.373 1.639 0.001 6.666-0.002 13.333 0.001 19.999-0.030 0.87 0.756 1.66 1.629 1.62 5.067 0 10.135 0.001 15.203 0 0.868 0.031 1.646-0.751 1.614-1.618 0.004-6.668 0.002-13.336 0.001-20.003 0.053-0.92-0.798-1.729-1.711-1.659-5.121 0.015-10.244-0.029-15.364 0.022z"></path>
<path fill="#fff" d="M1.838 0.959c5.088-0.043 10.179-0.008 15.268-0.018 0.589-0.051 1.149 0.453 1.106 1.054 0.006 6.636 0 13.271 0.002 19.907 0.061 0.575-0.419 1.14-1.009 1.115-5.070 0.005-10.14 0.004-15.21 0.001-0.55 0.027-1.043-0.465-1.019-1.016-0.007-6.668-0.004-13.336-0.001-20.005-0.032-0.503 0.359-0.985 0.863-1.038M8.785 7.882c-0.353 0.438 0.059 1.148 0.614 1.058 0.718-0.167 1.403-0.451 2.108-0.662-0.068 1.641 0.194 3.352-0.4 4.926-0.307 0.881-1.040 1.5-1.539 2.264-1.393 2.050-1.456 4.612-1.379 6.999 1.115-0.002 2.229 0.003 3.343-0.003 0.037-1.284-0.145-2.611 0.287-3.849 0.261-0.852 0.782-1.584 1.292-2.302 1.076-1.515 1.731-3.346 1.758-5.211 0.010-0.946 0-1.892 0.005-2.838 0.712 0.22 1.406 0.506 2.129 0.687 0.547 0.093 0.962-0.638 0.605-1.064-1.477-2.111-2.969-4.211-4.45-6.319-1.463 2.101-2.919 4.207-4.373 6.314M1.476 3.667c-0.007 2.948 0.578 5.871 1.497 8.664 0.215 0.665 0.511 1.428 1.236 1.672 0.886 0.365 1.92-0.189 2.218-1.073 1.187-2.931 1.723-6.107 1.732-9.263-2.227-0.001-4.455 0-6.683 0z"></path>
<path fill="#000" d="M1.742 0.362c5.12-0.051 10.243-0.007 15.364-0.022 0.913-0.070 1.764 0.739 1.711 1.659 0.001 6.667 0.003 13.335-0.001 20.003 0.032 0.867-0.746 1.649-1.614 1.618-5.068 0.001-10.136 0-15.203 0-0.873 0.040-1.659-0.75-1.629-1.62-0.003-6.666 0-13.333-0.001-19.999-0.040-0.791 0.585-1.546 1.373-1.639M1.838 0.959c-0.504 0.053-0.895 0.535-0.863 1.038-0.003 6.669-0.006 13.337 0.001 20.005-0.024 0.551 0.469 1.043 1.019 1.016 5.070 0.003 10.14 0.004 15.21-0.001 0.59 0.025 1.070-0.54 1.009-1.115-0.002-6.636 0.004-13.271-0.002-19.907 0.043-0.601-0.517-1.105-1.106-1.054-5.089 0.010-10.18-0.025-15.268 0.018z"></path>
<path fill="#000" d="M8.785 7.882c1.454-2.107 2.91-4.213 4.373-6.314 1.481 2.108 2.973 4.208 4.45 6.319 0.357 0.426-0.058 1.157-0.605 1.064-0.723-0.181-1.417-0.467-2.129-0.687-0.005 0.946 0.005 1.892-0.005 2.838-0.027 1.865-0.682 3.696-1.758 5.211-0.51 0.718-1.031 1.45-1.292 2.302-0.432 1.238-0.25 2.565-0.287 3.849-1.114 0.006-2.228 0.001-3.343 0.003-0.077-2.387-0.014-4.949 1.379-6.999 0.499-0.764 1.232-1.383 1.539-2.264 0.594-1.574 0.332-3.285 0.4-4.926-0.705 0.211-1.39 0.495-2.108 0.662-0.555 0.090-0.967-0.62-0.614-1.058z"></path>
<path fill="#000" d="M1.476 3.667c2.228 0 4.456-0.001 6.683 0-0.009 3.156-0.545 6.332-1.732 9.263-0.298 0.884-1.332 1.438-2.218 1.073-0.725-0.244-1.021-1.007-1.236-1.672-0.919-2.793-1.504-5.716-1.497-8.664z"></path>
<path fill="#181818" opacity="0.89" d="M18.253 0.363c0.533 0.201 0.775 0.75 0.947 1.25v20.763c-0.168 0.504-0.412 1.056-0.946 1.261 0.489-0.398 0.858-0.979 0.843-1.627 0.005-6.673 0.005-13.346 0-20.019 0.015-0.648-0.352-1.233-0.844-1.628z"></path>
<path fill="#171717" opacity="0.93" d="M0 1.631l0.112-0.151c-0.045 6.973 0.030 13.949-0.037 20.922l-0.075 0.191v-20.962z"></path>
<path fill="#111" opacity="0.93" d="M1.48 23.887c5.371 0.044 10.744-0.023 16.114 0.034l0.195 0.079h-16.16l-0.149-0.113z"></path>
</svg>
