<!-- Generated by IcoMoon.io -->
<svg version="1.1" xmlns="http://www.w3.org/2000/svg" width="24" height="24" viewBox="0 0 24 24">
<title>regulatory--low-beam-headlights--g3</title>
<path fill="#291770" d="M10.622 0h2.74c0.745 0.194 1.516 0.274 2.247 0.529 3.693 1.136 6.728 4.17 7.864 7.864 0.253 0.724 0.33 1.49 0.529 2.228v2.742c-0.214 0.88-0.33 1.788-0.66 2.637-1.449 4.286-5.492 7.412-9.945 8h-2.863c-0.792-0.212-1.625-0.283-2.383-0.612-2.098-0.967-4.136-2.218-5.542-4.101-0.361-0.405-0.569-0.938-1.006-1.273-0.008-0.014-0.025-0.045-0.034-0.059-0.108-0.404-0.218-0.911-0.591-1.151-0.025-0.059-0.050-0.118-0.073-0.177-0.106-0.847-0.505-1.63-0.626-2.48-0.354-1.191-0.119-2.449-0.277-3.66v-0.070c0.22-0.593 0.249-1.238 0.463-1.836 1.096-3.774 4.17-6.896 7.928-8.051 0.725-0.253 1.492-0.33 2.231-0.529M13.992 6.643c-0.007 3.26-0.008 6.521 0 9.78 0.214 0.004 0.429 0.005 0.639-0.035-0.025-3.251 0.022-6.505-0.024-9.755-0.206 0.004-0.41 0.007-0.615 0.010M15.047 6.683c-0.016 3.22-0.042 6.441-0.025 9.662 1.958 0.045 3.857-1.229 4.561-3.056 0.695-1.71 0.291-3.798-1.002-5.116-0.901-0.965-2.218-1.503-3.534-1.49M3.195 14.072c0.372 0.237 0.771 0.429 1.158 0.641 2.939-1.563 5.84-3.201 8.769-4.786-0.164-0.336-0.344-0.662-0.535-0.982-3.138 1.694-6.262 3.416-9.391 5.127M5.136 15.007c0.14 0.382 0.734 0.439 1.053 0.695 2.434-1.319 4.859-2.654 7.301-3.959-0.163-0.334-0.342-0.658-0.532-0.978-2.616 1.395-5.217 2.824-7.822 4.243M6.817 15.932c0.333 0.198 0.652 0.445 1.020 0.565 1.927-1.007 3.852-2.016 5.777-3.026-0.169-0.328-0.349-0.65-0.535-0.968-2.097 1.124-4.17 2.292-6.262 3.428z"></path>
<path fill="#fff" d="M13.992 6.643c0.205-0.004 0.409-0.007 0.615-0.010 0.046 3.25-0.001 6.504 0.024 9.755-0.21 0.041-0.425 0.039-0.639 0.035-0.008-3.259-0.007-6.519 0-9.78z"></path>
<path fill="#fff" d="M15.047 6.683c1.317-0.013 2.633 0.525 3.534 1.49 1.293 1.318 1.697 3.406 1.002 5.116-0.704 1.827-2.603 3.1-4.561 3.056-0.017-3.221 0.009-6.442 0.025-9.662z"></path>
<path fill="#fff" d="M3.195 14.072c3.129-1.71 6.253-3.432 9.391-5.127 0.191 0.32 0.371 0.647 0.535 0.982-2.929 1.584-5.83 3.222-8.769 4.786-0.387-0.212-0.786-0.404-1.158-0.641z"></path>
<path fill="#fff" d="M0 10.485c0.157 1.212-0.077 2.47 0.277 3.66 0.121 0.85 0.519 1.633 0.626 2.48-0.471-1.024-0.649-2.143-0.902-3.231v-2.909z"></path>
<path fill="#fff" d="M5.136 15.007c2.605-1.419 5.205-2.847 7.822-4.243 0.19 0.32 0.37 0.644 0.532 0.978-2.442 1.305-4.867 2.64-7.301 3.959-0.319-0.256-0.913-0.313-1.053-0.695z"></path>
<path fill="#fff" d="M6.817 15.932c2.092-1.136 4.165-2.304 6.262-3.428 0.186 0.317 0.366 0.64 0.535 0.968-1.925 1.010-3.851 2.018-5.777 3.026-0.369-0.121-0.687-0.367-1.020-0.565z"></path>
<path fill="#fff" d="M0.976 16.803c0.374 0.24 0.484 0.748 0.591 1.151-0.233-0.363-0.42-0.754-0.591-1.151z"></path>
<path fill="#fff" d="M1.601 18.013c0.437 0.336 0.645 0.868 1.006 1.273 1.406 1.883 3.444 3.134 5.542 4.101-2.738-0.911-5.129-2.859-6.548-5.374z"></path>
</svg>
