<!-- Generated by IcoMoon.io -->
<svg version="1.1" xmlns="http://www.w3.org/2000/svg" width="18" height="24" viewBox="0 0 18 24">
<title>regulatory--yield-or-stop-for-pedestrians--g1</title>
<path fill="#231f20" d="M1.281 0h15.518c0.536 0.102 1.010 0.481 1.201 0.996v22.092c-0.168 0.41-0.502 0.747-0.915 0.912h-16.095c-0.518-0.211-0.894-0.694-0.99-1.243v-21.435c0.11-0.65 0.624-1.209 1.281-1.322M1.32 0.135c-0.654 0.112-1.185 0.707-1.201 1.374-0.002 7.007 0.001 14.015-0.001 21.021-0.006 0.733 0.621 1.392 1.351 1.43 5.047-0 10.094-0 15.141 0 0.739-0.039 1.4-0.72 1.351-1.471-0.003-7.034 0.001-14.068-0.002-21.101-0.069-0.643-0.626-1.2-1.268-1.268-5.074-0.003-10.148 0-15.222-0.002-0.050 0-0.1 0.006-0.149 0.016z"></path>
<path fill="#231f20" d="M1.36 0.413c0.049-0.010 0.099-0.016 0.149-0.016 4.967 0 9.935 0.002 14.902-0.001 0.394-0.024 0.817 0.132 1.047 0.465 0.192 0.25 0.244 0.579 0.225 0.887-0 6.927-0.002 13.855 0.001 20.782-0.003 0.377-0.191 0.757-0.516 0.956-0.261 0.193-0.604 0.205-0.915 0.197-4.887-0-9.775-0.001-14.663 0-0.361 0.002-0.718-0.165-0.943-0.449-0.23-0.3-0.258-0.697-0.249-1.061 0.001-6.742 0-13.483 0-20.225-0.010-0.352 0.007-0.728 0.201-1.035 0.181-0.253 0.447-0.455 0.762-0.499M1.442 1.088c-0.221 0.063-0.366 0.275-0.369 0.5-0.001 6.968-0.001 13.937 0 20.905-0.001 0.26 0.208 0.507 0.473 0.515 4.995 0 9.991 0 14.986 0 0.25 0.001 0.476-0.226 0.475-0.475-0.001-7.022 0.002-14.044-0.001-21.066-0.044-0.211-0.253-0.394-0.474-0.393-4.981-0.001-9.962 0.002-14.944-0.001-0.050-0.003-0.099 0.002-0.146 0.016z"></path>
<path fill="#231f20" d="M1.907 10.808c0.119 0 0.238 0 0.358 0 0 0.278 0 0.556 0 0.834 0.159 0 0.318 0 0.477 0 0-0.278 0-0.556 0-0.834 0.106 0 0.212 0 0.318 0 0 0.689 0 1.378 0 2.066-0.106 0-0.212 0-0.318 0 0-0.305 0-0.609 0-0.914-0.159 0-0.318 0-0.477 0 0 0.305 0 0.609 0 0.914-0.119 0-0.238 0-0.358 0 0-0.689 0-1.378 0-2.066z"></path>
<path fill="#231f20" d="M3.457 10.808c0.331 0 0.662 0 0.993 0 0 0.106 0 0.212 0 0.318-0.212 0-0.424 0-0.636 0 0 0.159 0 0.318 0 0.477 0.132 0 0.265 0 0.397 0 0 0.106 0 0.212 0 0.318-0.132 0-0.265 0-0.397 0 0 0.199 0 0.397 0 0.596 0.238 0 0.477 0 0.715 0 0 0.119 0 0.238 0 0.358-0.358 0-0.715 0-1.073 0 0-0.689 0-1.378 0-2.066z"></path>
<path fill="#231f20" d="M4.808 10.808c0.342 0.016 0.711-0.067 1.019 0.128 0.23 0.27 0.242 0.768-0.114 0.936 0.094 0.335 0.188 0.671 0.296 1.002-0.118 0-0.237 0-0.355 0-0.075-0.321-0.184-0.633-0.26-0.954-0.076 0-0.152 0-0.228 0 0 0.318 0 0.636 0 0.954-0.119 0-0.238 0-0.358 0 0-0.689 0-1.378 0-2.066M5.166 11.125c0 0.159 0 0.319 0 0.478 0.178 0.003 0.495 0.046 0.496-0.215 0.002-0.259-0.301-0.288-0.496-0.263z"></path>
<path fill="#231f20" d="M6.278 10.808c0.331 0 0.662 0 0.993 0 0 0.106 0 0.212 0 0.318-0.225 0-0.45 0-0.675 0 0 0.159 0 0.318 0 0.477 0.146 0 0.291 0 0.437 0 0 0.106 0 0.212 0 0.318-0.146 0-0.291 0-0.437 0 0 0.199 0 0.397 0 0.596 0.252 0 0.503 0 0.755 0 0 0.119 0 0.238 0 0.358-0.358 0-0.715 0-1.073 0 0-0.689 0-1.378 0-2.066z"></path>
<path fill="#231f20" d="M5.299 15.385c2.305-2.036 5.618-2.925 8.609-2.147-0.002 0.729 0 1.459-0.001 2.188-0.917-0.339-1.881-0.579-2.861-0.606-1.734-0.054-3.466 0.494-4.905 1.452 0.482 0.195 0.975 0.364 1.45 0.576 0.29 0.154 0.163 0.657-0.165 0.665-1.335 0.163-2.665 0.388-4.001 0.531 0.22-1.197 0.432-2.396 0.649-3.594 0.043-0.206 0.034-0.446 0.186-0.61 0.186-0.112 0.505-0.075 0.572 0.163 0.173 0.454 0.324 0.917 0.465 1.382z"></path>
<path fill="#231f20" d="M13.162 16.384c0.17-0.043 0.362 0.006 0.497 0.115 0.285 0.395 0.286 0.919 0.211 1.381-0.033 0.24-0.154 0.509-0.4 0.592-0.178 0.005-0.397 0.050-0.529-0.103-0.238-0.265-0.225-0.636-0.265-0.966 0.041-0.369 0.053-0.89 0.485-1.018M12.993 17.445c0.038 0.244 0.033 0.523 0.207 0.716 0.061-0 0.122-0.001 0.183 0 0.243-0.269 0.223-0.655 0.197-0.992-0.044-0.184-0.068-0.414-0.268-0.493-0.298 0.128-0.29 0.496-0.319 0.769z"></path>
<path fill="#231f20" d="M11.444 16.411c0.345 0 0.689 0 1.033 0 0 0.106 0 0.212 0 0.318-0.119 0-0.238 0-0.358 0 0 0.569 0 1.139 0 1.709-0.106 0-0.212 0-0.318 0 0-0.569 0-1.139 0-1.709-0.119 0-0.238 0-0.358 0 0-0.106 0-0.212 0-0.318z"></path>
<path fill="#231f20" d="M7.562 20.329c-0.161-0.319 0.091-0.766 0.463-0.742 0.318-0.062 0.58 0.261 0.564 0.559-0.107 0-0.215 0-0.322 0-0.001-0.025-0.004-0.077-0.005-0.103-0.048-0.048-0.095-0.097-0.142-0.146-0.148 0.003-0.311 0.103-0.293 0.268 0.203 0.229 0.552 0.313 0.678 0.615 0.208 0.327 0.010 0.817-0.371 0.902-0.392 0.109-0.76-0.277-0.709-0.662 0.104-0 0.207-0 0.311 0-0.003 0.161 0.091 0.299 0.238 0.36 0.056-0.020 0.112-0.037 0.169-0.052 0.11-0.107 0.176-0.282 0.068-0.414-0.188-0.224-0.529-0.297-0.65-0.584z"></path>
<path fill="#231f20" d="M15.192 20.369c-0.2-0.338 0.095-0.857 0.505-0.782 0.299-0.021 0.525 0.275 0.48 0.56-0.137 0.002-0.349 0.040-0.334-0.164-0.075-0.044-0.156-0.075-0.242-0.087-0.048 0.050-0.096 0.101-0.144 0.15-0 0.056-0 0.112-0 0.169 0.317 0.207 0.776 0.432 0.718 0.885 0.053 0.41-0.457 0.739-0.811 0.53-0.242-0.108-0.314-0.37-0.354-0.609 0.154-0.006 0.418-0.050 0.372 0.189 0.072 0.068 0.15 0.127 0.232 0.181 0.147-0.076 0.319-0.223 0.238-0.407-0.149-0.273-0.514-0.339-0.661-0.615z"></path>
<path fill="#231f20" d="M1.907 19.629c0.274 0.010 0.552-0.021 0.823 0.015 0.368 0.099 0.386 0.563 0.292 0.861-0.128 0.313-0.518 0.288-0.797 0.277 0 0.292 0 0.583 0 0.875-0.106 0-0.212 0-0.318 0 0-0.675 0-1.351 0-2.026M2.225 19.947c0 0.172 0 0.345 0 0.517 0.183 0.008 0.384 0.022 0.519-0.128-0.001-0.084-0.002-0.168-0.002-0.252-0.046-0.046-0.092-0.091-0.137-0.137-0.126 0-0.253 0-0.379 0z"></path>
<path fill="#231f20" d="M3.298 19.629c0.331 0 0.662 0 0.993 0 0 0.106 0 0.212 0 0.318-0.212 0-0.424 0-0.636 0 0 0.145 0 0.291 0 0.437 0.132 0 0.265 0 0.397 0 0 0.106 0 0.212 0 0.318-0.132 0-0.265 0-0.397 0 0 0.212 0 0.424 0 0.636 0.238 0 0.477 0 0.715 0 0 0.106 0 0.212 0 0.318-0.358 0-0.715 0-1.073 0 0-0.675 0-1.351 0-2.026z"></path>
<path fill="#231f20" d="M4.649 19.629c0.272-0 0.544 0 0.817-0 0.41 0.292 0.334 0.834 0.337 1.273 0.007 0.308-0.151 0.681-0.481 0.748-0.224 0.017-0.449 0.001-0.673 0.006 0-0.675 0-1.351 0-2.026M5.007 19.947c0 0.463 0 0.927 0 1.39 0.085 0 0.171 0 0.257 0.001 0.15-0.091 0.248-0.259 0.221-0.437-0.026-0.322 0.091-0.7-0.168-0.956-0.103 0.001-0.207 0.002-0.31 0.002z"></path>
<path fill="#231f20" d="M6.159 19.629c0.331 0 0.662 0 0.993 0 0 0.106 0 0.212 0 0.318-0.212 0-0.424 0-0.636 0 0 0.145 0 0.291 0 0.437 0.132 0 0.265 0 0.397 0 0 0.106 0 0.212 0 0.318-0.132 0-0.265 0-0.397 0 0 0.212 0 0.424 0 0.636 0.238 0 0.477 0 0.715 0 0 0.106 0 0.212 0 0.318-0.358 0-0.715 0-1.073 0 0-0.675 0-1.351 0-2.026z"></path>
<path fill="#231f20" d="M8.702 19.629c0.358 0 0.715 0 1.073 0 0 0.093 0 0.185 0 0.278-0.119 0-0.238 0-0.358 0 0 0.583 0 1.165 0 1.748-0.106 0-0.212 0-0.318 0 0-0.583 0-1.165 0-1.748-0.132 0-0.265 0-0.397 0 0-0.093 0-0.186 0-0.278z"></path>
<path fill="#231f20" d="M10.013 19.629c0.265 0.005 0.53-0.010 0.795 0.006 0.453 0.101 0.498 0.849 0.087 1.034 0.086 0.331 0.201 0.653 0.281 0.985-0.11 0.002-0.22 0.003-0.329 0.004-0.111-0.313-0.184-0.639-0.284-0.957-0.077 0-0.154 0.001-0.231 0.002 0 0.318 0 0.635 0 0.953-0.106 0-0.212 0-0.318 0 0-0.675 0-1.351 0-2.026M10.331 19.947c0 0.145 0 0.291 0 0.437 0.159 0.002 0.323 0.014 0.476-0.041 0.023-0.083 0.039-0.168 0.049-0.254-0.050-0.047-0.099-0.094-0.147-0.142-0.126 0-0.252 0-0.378 0z"></path>
<path fill="#231f20" d="M11.483 19.629c0.106 0 0.212 0 0.318 0 0 0.675 0 1.351 0 2.026-0.106 0-0.212 0-0.318 0 0-0.675 0-1.351 0-2.026z"></path>
<path fill="#231f20" d="M12.527 19.629c0.112-0 0.224 0 0.337 0 0.149 0.679 0.334 1.35 0.497 2.026-0.105 0-0.211 0.007-0.315-0.003-0.116-0.158-0.068-0.39-0.184-0.548-0.125-0.011-0.25-0.004-0.374-0.004-0.032 0.189-0.081 0.374-0.137 0.557-0.107-0.001-0.215-0.001-0.322-0.003 0.149-0.679 0.334-1.349 0.498-2.025M12.643 20.438c-0.012 0.115-0.035 0.229-0.055 0.343 0.071 0 0.142 0 0.213 0.001-0.044-0.134-0.077-0.272-0.096-0.412-0.015 0.017-0.047 0.051-0.062 0.068z"></path>
<path fill="#231f20" d="M13.589 19.63c0.104-0.001 0.209-0.001 0.313-0.001 0.197 0.356 0.336 0.74 0.519 1.103 0.007-0.368 0.001-0.735 0.003-1.103 0.106 0 0.212 0 0.318 0 0 0.675 0 1.351 0 2.026-0.089 0-0.178 0-0.266 0.001-0.165-0.43-0.385-0.836-0.567-1.258-0.003 0.419 0 0.839-0.001 1.258-0.106 0-0.212 0-0.318 0 0-0.675 0-1.351 0-2.026z"></path>
<path fill="#fff" d="M1.32 0.135c0.049-0.011 0.099-0.016 0.149-0.016 5.074 0.002 10.148-0.001 15.222 0.002 0.643 0.069 1.2 0.626 1.268 1.268 0.003 7.034-0.001 14.067 0.002 21.101 0.049 0.751-0.612 1.432-1.351 1.471-5.047-0-10.094-0-15.141 0-0.729-0.038-1.357-0.698-1.351-1.43 0.002-7.007-0-14.014 0.001-21.021 0.016-0.667 0.547-1.262 1.201-1.374M1.36 0.413c-0.314 0.044-0.581 0.246-0.762 0.499-0.194 0.306-0.21 0.683-0.201 1.035 0 6.742 0 13.483-0 20.225-0.009 0.364 0.019 0.761 0.249 1.061 0.225 0.284 0.582 0.451 0.943 0.449 4.887-0.001 9.775-0 14.663 0 0.312 0.008 0.654-0.004 0.915-0.197 0.325-0.199 0.513-0.579 0.516-0.956-0.002-6.927-0.001-13.854-0.001-20.782 0.019-0.308-0.033-0.637-0.225-0.887-0.23-0.333-0.653-0.489-1.047-0.465-4.967 0.002-9.935 0.001-14.902 0.001-0.050 0-0.099 0.006-0.149 0.016z"></path>
<path fill="#fff" d="M1.442 1.088c0.047-0.014 0.096-0.019 0.146-0.016 4.981 0.003 9.962 0 14.944 0.001 0.221-0.001 0.43 0.182 0.474 0.393 0.003 7.022 0 14.044 0.001 21.066 0.001 0.249-0.225 0.476-0.475 0.475-4.995 0-9.991 0-14.986 0-0.265-0.008-0.474-0.255-0.473-0.515-0.001-6.968-0.001-13.936 0-20.905 0.003-0.225 0.149-0.437 0.369-0.5M5.141 2.041c-0.495 0.048-0.801 0.648-0.552 1.077 1.268 2.203 2.541 4.403 3.814 6.602 0.19 0.321 0.6 0.415 0.936 0.296 0.215-0.096 0.347-0.304 0.451-0.505 1.225-2.138 2.457-4.272 3.679-6.412 0.261-0.485-0.173-1.106-0.713-1.070-2.538 0.004-5.079-0.019-7.616 0.012M1.907 10.808c0 0.689 0 1.378 0 2.066 0.119 0 0.238 0 0.358 0 0-0.305 0-0.609 0-0.914 0.159 0 0.318 0 0.477 0 0 0.305 0 0.609 0 0.914 0.106 0 0.212 0 0.318 0 0-0.689 0-1.378 0-2.066-0.106 0-0.212 0-0.318 0 0 0.278 0 0.556 0 0.834-0.159 0-0.318 0-0.477 0 0-0.278 0-0.556 0-0.834-0.119 0-0.238 0-0.358 0M3.457 10.808c0 0.689 0 1.378 0 2.066 0.358 0 0.715 0 1.073 0 0-0.119 0-0.238 0-0.358-0.238 0-0.477 0-0.715 0 0-0.199 0-0.397 0-0.596 0.132 0 0.265 0 0.397 0 0-0.106 0-0.212 0-0.318-0.132 0-0.265 0-0.397 0 0-0.159 0-0.318 0-0.477 0.212 0 0.424 0 0.636 0 0-0.106 0-0.212 0-0.318-0.331 0-0.662 0-0.993 0M4.808 10.808c0 0.689 0 1.378 0 2.066 0.119 0 0.238 0 0.358 0 0-0.318 0-0.636 0-0.954 0.076 0 0.152 0 0.228 0 0.075 0.321 0.184 0.633 0.26 0.954 0.118 0 0.236 0 0.355-0-0.107-0.331-0.201-0.667-0.296-1.002 0.356-0.168 0.344-0.666 0.114-0.936-0.308-0.194-0.677-0.111-1.019-0.128M6.278 10.808c0 0.689 0 1.378 0 2.066 0.358 0 0.715 0 1.073 0 0-0.119 0-0.238 0-0.358-0.252 0-0.503 0-0.755 0 0-0.199 0-0.397 0-0.596 0.146 0 0.291 0 0.437 0 0-0.106 0-0.212 0-0.318-0.146 0-0.291 0-0.437 0 0-0.159 0-0.318 0-0.477 0.225 0 0.45 0 0.675 0 0-0.106 0-0.212 0-0.318-0.331 0-0.662 0-0.993 0M5.299 15.385c-0.141-0.465-0.292-0.928-0.465-1.382-0.067-0.238-0.386-0.275-0.572-0.163-0.152 0.163-0.143 0.404-0.186 0.61-0.217 1.198-0.429 2.397-0.649 3.594 1.336-0.143 2.665-0.369 4.001-0.531 0.327-0.008 0.455-0.511 0.165-0.665-0.475-0.213-0.968-0.381-1.45-0.576 1.438-0.958 3.171-1.506 4.905-1.452 0.98 0.027 1.943 0.267 2.861 0.606 0.002-0.729-0.001-1.459 0.001-2.188-2.992-0.778-6.304 0.111-8.609 2.147M13.162 16.384c-0.432 0.128-0.444 0.649-0.485 1.018 0.040 0.33 0.027 0.702 0.265 0.966 0.132 0.153 0.351 0.108 0.529 0.103 0.246-0.083 0.367-0.352 0.4-0.592 0.075-0.462 0.074-0.986-0.211-1.381-0.135-0.108-0.328-0.158-0.497-0.115M11.444 16.411c0 0.106 0 0.212 0 0.318 0.119 0 0.238 0 0.358 0 0 0.569 0 1.139 0 1.709 0.106 0 0.212 0 0.318 0 0-0.569 0-1.139 0-1.709 0.119 0 0.238 0 0.358 0 0-0.106 0-0.212 0-0.318-0.345 0-0.689 0-1.033 0M7.562 20.329c0.12 0.287 0.461 0.36 0.65 0.584 0.108 0.133 0.042 0.308-0.068 0.414-0.057 0.015-0.113 0.033-0.169 0.052-0.147-0.061-0.241-0.199-0.238-0.36-0.104-0-0.207-0-0.311 0-0.051 0.385 0.317 0.771 0.709 0.662 0.381-0.085 0.579-0.574 0.371-0.902-0.126-0.302-0.474-0.386-0.678-0.615-0.018-0.165 0.145-0.265 0.293-0.268 0.046 0.049 0.094 0.098 0.142 0.146 0.001 0.025 0.004 0.077 0.005 0.103 0.107 0 0.215 0 0.322-0 0.015-0.298-0.246-0.621-0.564-0.559-0.372-0.023-0.624 0.424-0.463 0.742M15.192 20.369c0.147 0.277 0.512 0.342 0.661 0.615 0.081 0.184-0.091 0.331-0.238 0.407-0.083-0.054-0.161-0.114-0.232-0.181 0.046-0.24-0.218-0.195-0.372-0.189 0.040 0.239 0.112 0.501 0.354 0.609 0.354 0.209 0.864-0.12 0.811-0.53 0.057-0.453-0.402-0.677-0.718-0.885 0-0.056 0-0.113 0-0.169 0.048-0.050 0.097-0.1 0.144-0.15 0.086 0.012 0.167 0.043 0.242 0.087-0.015 0.203 0.197 0.166 0.334 0.164 0.045-0.285-0.181-0.581-0.48-0.56-0.409-0.075-0.705 0.445-0.505 0.782M1.907 19.629c0 0.675 0 1.351 0 2.026 0.106 0 0.212 0 0.318 0 0-0.292 0-0.583 0-0.875 0.279 0.012 0.67 0.037 0.797-0.277 0.094-0.298 0.075-0.762-0.292-0.861-0.271-0.036-0.549-0.004-0.823-0.015M3.298 19.629c0 0.675 0 1.351 0 2.026 0.358 0 0.715 0 1.073 0 0-0.106 0-0.212 0-0.318-0.238 0-0.477 0-0.715 0 0-0.212 0-0.424 0-0.636 0.132 0 0.265 0 0.397 0 0-0.106 0-0.212 0-0.318-0.132 0-0.265 0-0.397 0 0-0.146 0-0.292 0-0.437 0.212 0 0.424 0 0.636 0 0-0.106 0-0.212 0-0.318-0.331 0-0.662 0-0.993 0M4.649 19.629c0 0.675 0 1.351 0 2.026 0.224-0.005 0.449 0.011 0.673-0.006 0.329-0.067 0.488-0.44 0.481-0.748-0.003-0.438 0.073-0.98-0.337-1.273-0.272 0.001-0.544 0-0.817 0M6.159 19.629c0 0.675 0 1.351 0 2.026 0.358 0 0.715 0 1.073 0 0-0.106 0-0.212 0-0.318-0.238 0-0.477 0-0.715 0 0-0.212 0-0.424 0-0.636 0.132 0 0.265 0 0.397 0 0-0.106 0-0.212 0-0.318-0.132 0-0.265 0-0.397 0 0-0.146 0-0.292 0-0.437 0.212 0 0.424 0 0.636 0 0-0.106 0-0.212 0-0.318-0.331 0-0.662 0-0.993 0M8.702 19.629c0 0.093 0 0.185 0 0.278 0.132 0 0.265 0 0.397 0 0 0.583 0 1.165 0 1.748 0.106 0 0.212 0 0.318 0 0-0.583 0-1.165 0-1.748 0.119 0 0.238 0 0.358 0 0-0.093 0-0.186 0-0.278-0.358 0-0.715 0-1.073 0M10.013 19.629c0 0.675 0 1.351 0 2.026 0.106 0 0.212 0 0.318 0 0-0.318 0-0.635 0-0.953 0.077-0.001 0.154-0.001 0.231-0.002 0.1 0.317 0.173 0.643 0.284 0.957 0.11-0.001 0.219-0.002 0.329-0.004-0.079-0.332-0.194-0.654-0.281-0.985 0.411-0.185 0.366-0.933-0.087-1.034-0.264-0.015-0.53-0-0.795-0.006M11.483 19.629c0 0.675 0 1.351 0 2.026 0.106 0 0.212 0 0.318 0 0-0.675 0-1.351 0-2.026-0.106 0-0.212 0-0.318 0M12.527 19.629c-0.164 0.675-0.348 1.346-0.498 2.025 0.107 0.002 0.215 0.002 0.322 0.003 0.055-0.183 0.105-0.369 0.137-0.557 0.124 0 0.25-0.007 0.374 0.004 0.116 0.158 0.068 0.39 0.184 0.548 0.105 0.010 0.21 0.004 0.315 0.003-0.163-0.676-0.349-1.347-0.497-2.026-0.112 0-0.225-0-0.337 0M13.589 19.63c0 0.675 0 1.351 0 2.026 0.106 0 0.212 0 0.318 0 0.001-0.419-0.002-0.839 0.001-1.258 0.182 0.423 0.402 0.829 0.567 1.258 0.089-0 0.177-0 0.266-0.001 0-0.675 0-1.351 0-2.026-0.106 0-0.212 0-0.318 0-0.002 0.368 0.004 0.735-0.003 1.103-0.183-0.363-0.322-0.747-0.519-1.103-0.104 0-0.209 0-0.313 0.001z"></path>
<path fill="#fff" d="M6.849 3.312c1.384-0.033 2.773-0.003 4.159-0.015 0.246-0.017 0.548 0.119 0.555 0.399-0.038 0.24-0.201 0.43-0.315 0.638-0.6 1.066-1.222 2.119-1.822 3.185-0.116 0.325-0.588 0.371-0.746 0.057-0.643-1.107-1.282-2.216-1.922-3.325-0.11-0.197-0.284-0.393-0.242-0.637 0.010-0.174 0.178-0.272 0.333-0.301M7.628 3.974c0.136 0.306 0.31 0.603 0.239 0.954 0.053 0 0.106 0 0.16 0-0.065-0.348 0.094-0.65 0.237-0.954-0.066-0.001-0.132-0.002-0.198-0.002-0.040 0.088-0.075 0.177-0.11 0.267-0.056-0.082-0.097-0.172-0.131-0.265-0.066 0-0.131 0.001-0.196 0.001M8.345 3.974c-0 0.318-0 0.636 0 0.954 0.052 0 0.105 0 0.158 0 0-0.318 0-0.636 0-0.954-0.053 0-0.106 0-0.158 0M8.662 3.974c0 0.318 0 0.636 0 0.954 0.172 0 0.345 0 0.517 0 0-0.066 0-0.132 0-0.198-0.106-0-0.212-0-0.318-0 0-0.079-0-0.158-0-0.237 0.053-0.001 0.106-0.002 0.159-0.003 0-0.052 0-0.104 0-0.155-0.053-0.002-0.106-0.003-0.159-0.004 0-0.066 0-0.131 0-0.197 0.093-0 0.186-0 0.278-0.001 0-0.053 0-0.106 0-0.158-0.159-0-0.318-0-0.477-0M9.298 3.974c-0.001 0.318-0 0.636-0 0.954 0.159 0 0.318 0 0.477 0 0-0.066 0-0.132 0-0.198-0.106-0-0.212-0-0.318-0 0-0.252 0-0.503-0-0.755-0.053 0-0.106 0-0.158 0M9.894 3.974c0 0.319-0 0.638 0 0.957 0.172-0.002 0.421 0.010 0.49-0.188 0.072-0.251 0.086-0.563-0.1-0.771-0.13 0.002-0.26 0.002-0.391 0.002z"></path>
<path fill="#fff" d="M10.053 4.133c0.051-0.001 0.103-0.002 0.155-0.003 0.065 0.194 0.065 0.407 0 0.601-0.052-0.001-0.103-0.002-0.155-0.003-0.001-0.199-0.001-0.397 0-0.595z"></path>
<path fill="#fff" d="M5.166 11.125c0.195-0.025 0.498 0.005 0.496 0.263-0.001 0.261-0.318 0.218-0.496 0.215 0-0.16 0-0.319 0-0.478z"></path>
<path fill="#fff" d="M12.993 17.445c0.029-0.273 0.021-0.641 0.319-0.769 0.201 0.079 0.225 0.31 0.268 0.493 0.025 0.337 0.046 0.722-0.197 0.992-0.061-0.001-0.122-0-0.183 0-0.175-0.193-0.169-0.472-0.207-0.716z"></path>
<path fill="#fff" d="M2.225 19.947c0.126 0 0.253 0 0.379 0 0.045 0.046 0.091 0.092 0.137 0.137 0 0.084 0.001 0.168 0.002 0.252-0.134 0.15-0.336 0.135-0.519 0.128 0-0.172 0-0.345 0-0.517z"></path>
<path fill="#fff" d="M5.007 19.947c0.103-0 0.207-0.001 0.31-0.002 0.259 0.255 0.142 0.633 0.168 0.956 0.026 0.178-0.072 0.346-0.221 0.437-0.085-0-0.171-0-0.257-0.001 0-0.463 0-0.927 0-1.39z"></path>
<path fill="#fff" d="M10.331 19.947c0.126 0 0.252 0 0.378 0 0.048 0.048 0.097 0.095 0.147 0.142-0.010 0.086-0.026 0.171-0.049 0.254-0.153 0.054-0.317 0.043-0.476 0.041 0-0.145 0-0.291 0-0.437z"></path>
<path fill="#fff" d="M12.643 20.438c0.015-0.017 0.047-0.051 0.062-0.068 0.019 0.14 0.052 0.278 0.096 0.412-0.071-0.001-0.142-0.001-0.213-0.001 0.019-0.114 0.043-0.228 0.055-0.343z"></path>
<path fill="#bf2e1a" d="M5.141 2.041c2.537-0.031 5.078-0.008 7.616-0.012 0.54-0.036 0.974 0.585 0.713 1.070-1.223 2.139-2.454 4.274-3.679 6.412-0.105 0.201-0.236 0.409-0.451 0.505-0.337 0.119-0.746 0.025-0.936-0.296-1.274-2.199-2.546-4.4-3.814-6.602-0.249-0.429 0.057-1.029 0.552-1.077M6.849 3.312c-0.155 0.029-0.323 0.127-0.333 0.301-0.043 0.244 0.132 0.439 0.242 0.637 0.641 1.109 1.279 2.218 1.922 3.325 0.158 0.314 0.63 0.269 0.746-0.057 0.6-1.066 1.222-2.119 1.822-3.185 0.113-0.207 0.277-0.398 0.315-0.638-0.007-0.28-0.31-0.416-0.555-0.399-1.386 0.013-2.775-0.018-4.159 0.015z"></path>
<path fill="#bf2e1a" d="M7.628 3.974c0.065-0 0.131-0.001 0.196-0.001 0.033 0.093 0.074 0.184 0.131 0.265 0.035-0.090 0.071-0.179 0.11-0.267 0.066 0.001 0.132 0.002 0.198 0.002-0.143 0.303-0.302 0.606-0.237 0.954-0.053 0-0.106 0-0.16 0 0.071-0.351-0.103-0.647-0.239-0.954z"></path>
<path fill="#bf2e1a" d="M8.345 3.974c0.052 0 0.105 0 0.158 0 0 0.318 0 0.636 0 0.954-0.053 0-0.106 0-0.158 0-0-0.318-0-0.636 0-0.954z"></path>
<path fill="#bf2e1a" d="M8.662 3.974c0.159 0 0.318 0 0.477 0 0 0.052 0 0.105 0 0.158-0.093 0-0.186 0-0.278 0.001 0 0.066-0 0.131-0 0.197 0.053 0.001 0.106 0.002 0.159 0.004 0 0.052 0 0.103 0 0.155-0.053 0.001-0.106 0.002-0.159 0.003 0 0.079 0 0.158 0 0.237 0.106 0 0.212 0 0.318 0 0 0.066 0 0.132 0 0.198-0.172 0-0.345 0-0.517 0 0-0.318 0-0.636 0-0.954z"></path>
<path fill="#bf2e1a" d="M9.298 3.974c0.052 0 0.105 0 0.158 0 0 0.252 0 0.503 0 0.755 0.106 0 0.212 0 0.318 0 0 0.066 0 0.132 0 0.198-0.159 0-0.318 0-0.477 0 0-0.318-0-0.636 0-0.954z"></path>
<path fill="#bf2e1a" d="M9.894 3.974c0.13 0 0.26 0 0.391-0.002 0.186 0.207 0.172 0.52 0.1 0.771-0.070 0.198-0.319 0.186-0.49 0.188-0-0.319 0-0.638 0-0.957M10.053 4.133c-0.001 0.198-0.001 0.397 0 0.595 0.051 0.001 0.103 0.002 0.155 0.003 0.065-0.194 0.065-0.407 0-0.601-0.052 0.001-0.103 0.002-0.155 0.003z"></path>
</svg>
