<!-- Generated by IcoMoon.io -->
<svg version="1.1" xmlns="http://www.w3.org/2000/svg" width="24" height="24" viewBox="0 0 24 24">
<title>regulatory--end-of-no-overtaking-by-motorcycles--g1</title>
<path fill="#000" d="M10.934 0h2.114c1.421 0.227 2.848 0.529 4.144 1.175 3.788 1.772 6.377 5.629 6.808 9.764v2.104c-0.215 1.358-0.503 2.72-1.099 3.968-1.73 3.877-5.642 6.545-9.836 6.989h-2.114c-1.36-0.216-2.724-0.503-3.971-1.105-3.875-1.732-6.544-5.638-6.979-9.833v-2.111c0.42-4.141 3.016-8.004 6.806-9.778 1.292-0.642 2.713-0.944 4.128-1.174M1.702 7.216c-1.699 3.582-1.303 8.027 0.973 11.268 1.258-1.248 2.503-2.508 3.763-3.756l-0.002-0.061c0.304-0.252 0.616-0.499 0.877-0.797 0.035-0.052 0.104-0.154 0.14-0.205 0.24-0.204 0.474-0.416 0.702-0.635 3.421-3.473 6.889-6.902 10.332-10.354-2.316-1.615-5.243-2.315-8.039-1.92-3.767 0.475-7.172 3.012-8.747 6.46M18.878 2.97c-3.53 3.533-7.063 7.064-10.596 10.596-0.223 0.191-0.301 0.478-0.33 0.758-0.29 0.005-0.605 0.024-0.686 0.359-0.186 0.577-0.84 0.68-1.205 1.099-1.024 1.033-2.054 2.059-3.083 3.086 0.074 0.102 0.149 0.204 0.223 0.306 1.133-1.152 2.309-2.264 3.414-3.442 0.2-0.437 0.6-0.673 0.968-0.946 3.869-3.858 7.729-7.724 11.592-11.588-0.1-0.077-0.198-0.152-0.298-0.229M3.526 19.543c0.061 0.068 0.184 0.204 0.245 0.272 5.353-5.351 10.702-10.704 16.054-16.055-0.070-0.059-0.21-0.178-0.28-0.238-5.341 5.339-10.682 10.678-16.019 16.020M14.794 9.486c-0.456 0.511-1.022 0.926-1.435 1.472-3.112 3.030-6.152 6.138-9.235 9.2 0.064 0.065 0.191 0.197 0.256 0.263 2.74-2.728 5.465-5.47 8.206-8.197 0.196-0.21 0.428-0.402 0.553-0.667 0.796-0.582 1.457-1.321 2.131-2.034 1.734-1.7 3.442-3.43 5.159-5.147-0.066-0.065-0.198-0.193-0.264-0.258-1.79 1.789-3.578 3.581-5.37 5.368M20.73 4.763c-1.57 1.577-3.144 3.146-4.717 4.718-0.217 0.223-0.434 0.445-0.654 0.667-0.539 0.522-1.070 1.054-1.592 1.595-0.373 0.367-0.743 0.738-1.13 1.090l0.002 0.043c-2.644 2.603-5.249 5.243-7.877 7.86 0.073 0.056 0.22 0.17 0.293 0.227 2.536-2.539 5.082-5.069 7.608-7.618 0.488-0.475 0.973-0.956 1.44-1.452 0.581-0.541 1.134-1.11 1.69-1.676l0.034 0.005c0.211-0.236 0.428-0.468 0.648-0.696 1.519-1.477 3-2.993 4.504-4.487-0.083-0.092-0.166-0.184-0.247-0.276M17.21 9.502c-0.222 0.221-0.443 0.443-0.661 0.666-0.565 0.554-1.12 1.12-1.684 1.676-0.749 0.752-1.499 1.505-2.254 2.251-2.382 2.398-4.781 4.778-7.164 7.174 2.164 1.53 4.862 2.276 7.505 2.038 3.992-0.289 7.69-2.903 9.347-6.536 1.706-3.606 1.295-8.086-1.026-11.329-1.357 1.351-2.707 2.708-4.063 4.061z"></path>
<path fill="#fff" d="M1.702 7.216c1.574-3.448 4.98-5.984 8.747-6.46 2.796-0.395 5.723 0.305 8.039 1.92-3.443 3.451-6.911 6.881-10.332 10.354-0.206-0.712-0.836-1.32-0.637-2.11 0.223 0.234 0.541 0.694 0.874 0.329-0.077-0.85-0.641-1.954-1.674-1.688-0.86-0.161-1.171 0.758-1.412 1.391-0.169 0.277 0.224 0.378 0.37 0.548 0.155-0.202 0.308-0.406 0.461-0.608 0.322 0.899-0.646 1.537-0.53 2.426 0.006 0.418-0.103 1.367 0.589 1.054 0.131-0.553-0.010-1.136 0.14-1.685 0.121-0.372 0.572-0.292 0.872-0.373 0.174 0.428 0.276 0.887 0.246 1.351-0.036 0.052-0.106 0.154-0.14 0.205-0.019-0.378 0.012-0.773-0.114-1.136-0.151-0.314-0.7-0.226-0.744 0.114-0.082 0.602-0.020 1.213-0.019 1.819l0.002 0.061c-1.26 1.248-2.506 2.508-3.763 3.756-2.276-3.241-2.672-7.686-0.973-11.268M6.36 9.406c0.302 0.007 0.605 0.012 0.906 0.019 0.185-0.445 0.24-1.223-0.425-1.242-0.673-0.012-0.634 0.768-0.481 1.223M5.18 9.893c-0.352 0.007-0.26 0.616 0.085 0.511 0.329-0.007 0.251-0.606-0.085-0.511M8.334 9.896c-0.293 0.090-0.132 0.581 0.149 0.493 0.398-0.014 0.2-0.706-0.149-0.493z"></path>
<path fill="#fff" d="M3.526 19.543c5.336-5.342 10.678-10.681 16.019-16.020 0.070 0.060 0.21 0.179 0.28 0.238-5.352 5.351-10.7 10.704-16.054 16.055-0.061-0.068-0.184-0.204-0.245-0.272z"></path>
<path fill="#fff" d="M14.794 9.486c1.792-1.787 3.58-3.578 5.37-5.368 0.066 0.065 0.198 0.193 0.264 0.258-1.717 1.717-3.425 3.446-5.159 5.147-0.119-0.010-0.356-0.028-0.475-0.037z"></path>
<path fill="#fff" d="M20.73 4.763c0.082 0.092 0.164 0.184 0.247 0.276-1.504 1.494-2.984 3.010-4.504 4.487-0.115-0.011-0.346-0.032-0.461-0.044 1.573-1.572 3.148-3.142 4.717-4.718z"></path>
<path fill="#fff" d="M17.21 9.502c1.356-1.352 2.706-2.71 4.063-4.061 2.321 3.244 2.732 7.723 1.026 11.329-1.657 3.634-5.354 6.247-9.347 6.536-2.642 0.239-5.341-0.508-7.505-2.038 2.383-2.395 4.782-4.776 7.164-7.174 0.127 0.095 0.254 0.19 0.383 0.284-0.002 0.401 0.001 0.802 0.011 1.202 0.408 0.006 0.815 0.006 1.223-0.001 0.012-0.44 0.016-0.882 0.019-1.324 1.721-0.002 3.442-0.002 5.161 0 0.004 0.442 0.007 0.883 0.016 1.325 0.41 0.007 0.82 0.007 1.23 0 0.007-0.415 0.011-0.829 0.010-1.244 0.113-0.064 0.224-0.128 0.337-0.192-0.037-0.804 0.191-1.71-0.336-2.404-0.444-0.67-0.568-1.532-1.121-2.124-0.745-0.244-1.561-0.061-2.334-0.116z"></path>
<path fill="#fff" d="M13.766 11.743c0.522-0.541 1.054-1.073 1.592-1.595 0.144 0.022 0.288 0.044 0.433 0.068-0.556 0.566-1.109 1.135-1.69 1.676-0.084-0.037-0.252-0.113-0.336-0.15z"></path>
<path fill="#fff" d="M14.866 11.844c0.564-0.557 1.118-1.122 1.684-1.676 0.864 0.040 1.746-0.094 2.599 0.072 0.362 0.457 0.523 1.034 0.739 1.567-1.673 0.074-3.348 0.011-5.022 0.037z"></path>
<path fill="#fff" d="M4.123 20.159c3.083-3.062 6.124-6.17 9.235-9.2-0.076 0.198-0.145 0.4-0.221 0.599-0.125 0.265-0.358 0.457-0.553 0.667-2.741 2.728-5.466 5.47-8.206 8.197-0.065-0.066-0.192-0.198-0.256-0.263z"></path>
<path fill="#fff" d="M4.762 20.736c2.628-2.617 5.233-5.257 7.877-7.86 0.006 0.118 0.018 0.352 0.024 0.469-2.526 2.549-5.072 5.078-7.608 7.618-0.073-0.056-0.22-0.17-0.293-0.227z"></path>
<path fill="#fff" d="M15.608 13.133c0.817 0.005 1.634-0.001 2.453 0.007-0.004 0.11-0.010 0.332-0.013 0.444-0.817 0-1.634 0.002-2.45-0.002 0.004-0.15 0.007-0.299 0.011-0.449z"></path>
<path fill="#fdfdfd" d="M18.878 2.97c0.1 0.077 0.198 0.152 0.298 0.229-3.863 3.864-7.723 7.73-11.592 11.588-0.368 0.272-0.768 0.509-0.968 0.946-1.105 1.177-2.281 2.29-3.414 3.442-0.074-0.102-0.149-0.204-0.223-0.306 1.028-1.027 2.059-2.053 3.083-3.086 0.365-0.419 1.019-0.522 1.205-1.099 0.082-0.335 0.396-0.354 0.686-0.359 0.029-0.281 0.107-0.568 0.33-0.758 3.533-3.532 7.066-7.063 10.596-10.596z"></path>
<path fill="#666" d="M6.36 9.406c-0.152-0.455-0.192-1.235 0.481-1.223 0.665 0.019 0.61 0.797 0.425 1.242-0.301-0.007-0.604-0.012-0.906-0.019z"></path>
<path fill="#666" d="M16.549 10.168c0.218-0.223 0.439-0.445 0.661-0.666 0.773 0.055 1.589-0.127 2.334 0.116 0.553 0.592 0.677 1.454 1.121 2.124 0.527 0.694 0.299 1.6 0.336 2.404-0.113 0.064-0.224 0.128-0.337 0.192 0.001 0.415-0.002 0.829-0.010 1.244-0.41 0.007-0.82 0.007-1.23 0-0.008-0.442-0.012-0.883-0.016-1.325-1.72-0.002-3.44-0.002-5.161 0-0.004 0.442-0.007 0.883-0.019 1.324-0.408 0.007-0.815 0.007-1.223 0.001-0.010-0.401-0.013-0.802-0.011-1.202-0.128-0.095-0.256-0.19-0.383-0.284 0.755-0.746 1.505-1.499 2.254-2.251 1.674-0.026 3.349 0.037 5.022-0.037-0.216-0.533-0.377-1.11-0.739-1.567-0.853-0.166-1.735-0.032-2.599-0.072M15.608 13.133c-0.004 0.15-0.007 0.299-0.011 0.449 0.816 0.005 1.633 0.002 2.45 0.002 0.004-0.112 0.010-0.334 0.013-0.444-0.818-0.008-1.636-0.002-2.453-0.007z"></path>
<path fill="#666" d="M5.305 10.951c0.241-0.632 0.552-1.552 1.412-1.391 1.033-0.265 1.597 0.839 1.674 1.688-0.332 0.365-0.65-0.095-0.874-0.329-0.199 0.79 0.431 1.398 0.637 2.11-0.228 0.218-0.462 0.431-0.702 0.635 0.030-0.464-0.072-0.923-0.246-1.351-0.3 0.082-0.751 0.001-0.872 0.373-0.15 0.548-0.010 1.132-0.14 1.685-0.692 0.313-0.583-0.636-0.589-1.054-0.115-0.889 0.852-1.528 0.53-2.426-0.152 0.203-0.306 0.407-0.461 0.608-0.145-0.17-0.539-0.271-0.37-0.548z"></path>
<path fill="#666" d="M5.18 9.893c0.336-0.095 0.414 0.504 0.085 0.511-0.346 0.104-0.437-0.504-0.085-0.511z"></path>
<path fill="#666" d="M8.334 9.896c0.349-0.212 0.547 0.479 0.149 0.493-0.281 0.088-0.442-0.403-0.149-0.493z"></path>
<path fill="#666" d="M6.455 12.847c0.044-0.34 0.593-0.428 0.744-0.114 0.126 0.364 0.095 0.758 0.114 1.136-0.262 0.298-0.574 0.545-0.877 0.797-0.001-0.606-0.062-1.217 0.019-1.819z"></path>
<path fill="#686868" d="M13.358 10.958c0.413-0.546 0.979-0.961 1.435-1.472 0.119 0.010 0.356 0.028 0.475 0.037-0.674 0.713-1.336 1.452-2.131 2.034 0.076-0.199 0.145-0.401 0.221-0.599z"></path>
<path fill="#6d6d6d" d="M15.359 10.148c0.22-0.222 0.437-0.444 0.654-0.667 0.115 0.012 0.346 0.034 0.461 0.044-0.22 0.228-0.437 0.46-0.648 0.696l-0.034-0.005c-0.145-0.024-0.289-0.047-0.433-0.068z"></path>
<path fill="#6a6a6a" d="M12.636 12.833c0.388-0.352 0.757-0.722 1.13-1.090 0.084 0.037 0.252 0.113 0.336 0.15-0.467 0.496-0.952 0.977-1.44 1.452-0.006-0.118-0.018-0.352-0.024-0.469l-0.002-0.043z"></path>
</svg>
