<!-- Generated by IcoMoon.io -->
<svg version="1.1" xmlns="http://www.w3.org/2000/svg" width="24" height="24" viewBox="0 0 24 24">
<title>regulatory--maximum-speed-limit-led-80--g3</title>
<path fill="#000" d="M2.004 0h19.987c0.503 0.145 0.838 0.654 0.832 1.168 0.002 7.205 0 14.411 0.001 21.616 0.021 0.529-0.312 1.063-0.83 1.216h-19.984c-0.504-0.144-0.839-0.653-0.833-1.168-0.001-7.221-0.001-14.443 0-21.664-0.007-0.514 0.327-1.019 0.827-1.168M2.755 1.957c-0.46 0.393-0.484 1.193-0.021 1.593 0.459 0.41 1.119 0.437 1.622 0.769 0.316 0.191 0.268 0.72-0.072 0.859-0.511 0.241-1.131-0.063-1.335-0.57-0.239 0.088-0.479 0.174-0.716 0.266 0.327 1.18 2.049 1.515 2.846 0.63 0.401-0.478 0.375-1.291-0.117-1.698-0.375-0.317-0.863-0.439-1.314-0.608-0.158-0.063-0.329-0.136-0.422-0.286-0.105-0.175-0.006-0.42 0.177-0.499 0.384-0.164 0.913-0.042 1.087 0.367 0.231-0.076 0.462-0.151 0.692-0.231-0.256-1.026-1.699-1.223-2.428-0.592M6.399 1.647c-0.004 1.419-0.003 2.838-0.001 4.258 0.258 0.003 0.516 0.001 0.773 0.001 0-0.531-0.001-1.062 0-1.593 0.431-0.011 0.864 0.023 1.294-0.023 0.489-0.060 0.937-0.408 1.075-0.887 0.239-0.682-0.141-1.554-0.885-1.696-0.743-0.125-1.506-0.033-2.257-0.059M10.473 1.652c-0.006 1.417-0.002 2.835-0.001 4.252 0.974 0.003 1.948 0.002 2.922 0-0-0.246 0.003-0.491-0.003-0.737-0.715-0.007-1.43 0-2.144-0.003-0.001-0.362-0.001-0.724-0-1.087 0.413-0.001 0.827 0 1.24-0.001 0-0.245 0.002-0.49-0.001-0.735-0.413-0.008-0.826-0.001-1.238-0.004-0.001-0.316-0.001-0.632-0-0.948 0.672-0.002 1.343 0.001 2.015-0.001 0-0.245 0.003-0.491-0.002-0.736-0.929-0.006-1.858-0.004-2.786-0.001M14.395 1.654c-0.007 1.417-0.001 2.835-0.003 4.252 0.973 0 1.947 0.001 2.92-0 0.002-0.246 0.003-0.492-0.001-0.739-0.713-0.002-1.427 0.001-2.141-0.001-0.001-0.362-0.001-0.724-0-1.087 0.412-0.001 0.824 0 1.236-0.001 0-0.246 0.002-0.491-0.001-0.737-0.412-0.003-0.824 0-1.235-0.002-0.001-0.316-0.001-0.632-0-0.948 0.671-0.003 1.342 0.003 2.013-0.003 0.005-0.245 0.005-0.491 0-0.736-0.929-0.003-1.859-0.006-2.788 0.001M18.31 1.651c-0.006 1.418-0.004 2.836-0 4.254 0.806-0.041 1.684 0.146 2.422-0.27 0.732-0.411 1.018-1.321 0.935-2.117-0.049-0.683-0.418-1.378-1.064-1.665-0.72-0.322-1.53-0.166-2.293-0.202M4.233 6.567c-0.002 1.416-0.001 2.832 0 4.247 0.937 0.002 1.875 0.001 2.812 0 0.001-0.247 0.001-0.495 0-0.742-0.679-0.002-1.358 0-2.037-0.001-0.002-1.168 0.001-2.336-0.002-3.504-0.258-0.002-0.516-0.002-0.773 0M7.924 6.56c-0.001 1.418-0 2.837-0 4.255 0.258 0.002 0.515 0.001 0.772 0 0-1.418 0.001-2.836-0-4.255-0.257-0.001-0.514-0.001-0.772-0M9.956 6.56c-0.002 1.418-0.002 2.836 0 4.254 0.258 0.002 0.516 0.001 0.773 0-0.003-0.852 0.010-1.705-0.008-2.557 0.384 0.892 0.783 1.778 1.176 2.666 0.389-0.892 0.81-1.77 1.17-2.674-0.017 0.855-0.004 1.71-0.008 2.565 0.257 0.001 0.514 0.001 0.771 0 0.001-1.418 0.001-2.837 0-4.255-0.248-0.001-0.496-0-0.744 0-0.394 0.908-0.815 1.804-1.184 2.722-0.368-0.917-0.786-1.815-1.177-2.722-0.257-0-0.513-0.001-0.77 0M15.093 6.56c-0.001 1.418-0.001 2.837 0 4.256 0.257 0 0.514 0 0.771 0 0-1.418 0.001-2.837 0-4.255-0.257-0.001-0.514-0.001-0.771-0M16.856 6.557c-0.001 0.248-0.001 0.495-0 0.743 0.398 0.001 0.795-0.001 1.192 0 0.002 1.172-0.001 2.343 0.001 3.515 0.257 0 0.514 0 0.772-0 0.001-1.171-0.001-2.343 0.001-3.514 0.398-0.002 0.795 0 1.193-0.001 0.001-0.247 0.001-0.495 0-0.743-1.053-0.001-2.106-0.001-3.158 0M5.12 13.98c-0.553 0.718-0.66 1.759-0.241 2.565 0.208 0.405 0.553 0.729 0.949 0.948-0.45 0.207-0.85 0.528-1.135 0.935-0.748 1.053-0.654 2.615 0.214 3.571 0.643 0.728 1.635 1.085 2.593 1.065 1.002 0.024 2.048-0.363 2.69-1.154 0.738-0.888 0.852-2.232 0.294-3.239-0.289-0.523-0.761-0.931-1.302-1.178 0.769-0.379 1.255-1.22 1.219-2.074-0.004-0.962-0.635-1.856-1.508-2.238-1.245-0.563-2.916-0.326-3.773 0.798M15.818 12.918c-0.604 0.071-1.186 0.336-1.623 0.76-0.558 0.536-0.89 1.262-1.093 1.998-0.276 1.049-0.333 2.147-0.242 3.225 0.083 0.893 0.275 1.795 0.719 2.583 0.334 0.6 0.85 1.113 1.495 1.366 1.079 0.412 2.428 0.265 3.272-0.569 0.642-0.618 0.988-1.477 1.18-2.332 0.25-1.14 0.269-2.326 0.093-3.478-0.143-0.893-0.424-1.796-1-2.509-0.65-0.838-1.77-1.194-2.8-1.045z"></path>
<path fill="#000" d="M7.172 2.391c0.413 0.013 0.831-0.030 1.24 0.025 0.531 0.12 0.525 0.998 0.001 1.126-0.409 0.056-0.828 0.011-1.241 0.024-0.002-0.392-0.001-0.784-0-1.176z"></path>
<path fill="#000" d="M19.082 2.391c0.415 0.024 0.875-0.084 1.248 0.15 0.411 0.265 0.555 0.79 0.547 1.254 0.002 0.461-0.162 0.976-0.578 1.224-0.367 0.223-0.811 0.125-1.216 0.146-0.001-0.925-0-1.85-0-2.775z"></path>
<path fill="#000" d="M7.049 14.131c0.543-0.115 1.164-0.038 1.595 0.337 0.604 0.512 0.639 1.561 0.038 2.091-0.626 0.55-1.665 0.564-2.308 0.036-0.549-0.453-0.608-1.328-0.207-1.896 0.205-0.295 0.535-0.487 0.882-0.567z"></path>
<path fill="#000" d="M15.86 14.125c0.442-0.090 0.928-0.048 1.317 0.194 0.381 0.232 0.637 0.622 0.803 1.028 0.292 0.722 0.377 1.507 0.404 2.28 0.019 0.823-0.020 1.656-0.231 2.455-0.14 0.511-0.359 1.027-0.763 1.385-0.503 0.448-1.275 0.513-1.877 0.241-0.516-0.24-0.842-0.75-1.027-1.269-0.3-0.839-0.358-1.74-0.345-2.624 0.008-0.832 0.096-1.682 0.415-2.459 0.229-0.569 0.681-1.098 1.304-1.23z"></path>
<path fill="#000" d="M7.285 18.069c0.728-0.082 1.509 0.231 1.918 0.852 0.542 0.789 0.382 2.008-0.418 2.566-0.727 0.499-1.766 0.51-2.507 0.035-0.822-0.534-1.005-1.753-0.491-2.559 0.317-0.518 0.897-0.846 1.498-0.894z"></path>
<path fill="#fff" d="M2.755 1.957c0.729-0.631 2.172-0.434 2.428 0.592-0.23 0.079-0.461 0.155-0.692 0.231-0.175-0.409-0.703-0.53-1.087-0.367-0.182 0.078-0.282 0.324-0.177 0.499 0.093 0.15 0.264 0.223 0.422 0.286 0.451 0.168 0.938 0.291 1.314 0.608 0.492 0.406 0.518 1.22 0.117 1.698-0.797 0.885-2.519 0.551-2.846-0.63 0.237-0.092 0.477-0.179 0.716-0.266 0.204 0.507 0.824 0.812 1.335 0.57 0.339-0.139 0.388-0.668 0.072-0.859-0.502-0.332-1.162-0.36-1.622-0.769-0.463-0.4-0.439-1.2 0.021-1.593z"></path>
<path fill="#fff" d="M6.399 1.647c0.751 0.026 1.513-0.067 2.257 0.059 0.744 0.142 1.124 1.015 0.885 1.696-0.139 0.479-0.586 0.828-1.075 0.887-0.429 0.046-0.863 0.012-1.294 0.023-0.001 0.531 0 1.062-0 1.593-0.258 0-0.516 0.002-0.773-0.001-0.002-1.419-0.003-2.838 0.001-4.258M7.172 2.391c-0 0.392-0.001 0.784 0 1.176 0.413-0.014 0.832 0.031 1.241-0.024 0.524-0.128 0.53-1.006-0.001-1.126-0.41-0.055-0.827-0.012-1.24-0.025z"></path>
<path fill="#fff" d="M10.473 1.652c0.929-0.003 1.858-0.005 2.786 0.001 0.005 0.246 0.002 0.491 0.002 0.736-0.672 0.002-1.343-0-2.015 0.001-0 0.316-0.001 0.632 0 0.948 0.413 0.003 0.825-0.004 1.238 0.004 0.003 0.245 0.001 0.489 0.001 0.735-0.413 0.001-0.827-0-1.24 0.001-0 0.362-0.001 0.724 0 1.087 0.714 0.003 1.429-0.004 2.144 0.003 0.006 0.246 0.002 0.491 0.003 0.737-0.974 0.001-1.948 0.002-2.922-0-0.001-1.418-0.004-2.835 0.001-4.253z"></path>
<path fill="#fff" d="M14.395 1.654c0.93-0.007 1.859-0.004 2.788-0.001 0.004 0.245 0.005 0.491-0 0.736-0.671 0.006-1.342 0-2.013 0.003-0 0.316-0.001 0.632 0 0.948 0.411 0.002 0.823-0.001 1.235 0.002 0.003 0.246 0.001 0.491 0.001 0.737-0.412 0.001-0.824-0-1.236 0.001-0 0.362-0.001 0.724 0 1.087 0.713 0.002 1.427-0.001 2.141 0.001 0.005 0.247 0.003 0.493 0.001 0.739-0.974 0.002-1.947 0.001-2.92 0 0.001-1.417-0.004-2.835 0.003-4.252z"></path>
<path fill="#fff" d="M18.31 1.651c0.763 0.036 1.573-0.12 2.293 0.202 0.645 0.286 1.015 0.982 1.064 1.665 0.083 0.796-0.203 1.707-0.935 2.117-0.739 0.416-1.616 0.229-2.422 0.27-0.004-1.418-0.005-2.836 0-4.254M19.082 2.391c0 0.925-0.001 1.85 0 2.775 0.405-0.021 0.849 0.076 1.216-0.146 0.417-0.247 0.581-0.763 0.578-1.224 0.008-0.464-0.136-0.989-0.547-1.254-0.373-0.234-0.833-0.127-1.248-0.15z"></path>
<path fill="#fff" d="M4.233 6.567c0.258-0.002 0.516-0.002 0.773 0 0.003 1.168-0 2.336 0.002 3.504 0.679 0.001 1.358-0.001 2.037 0.001 0.001 0.247 0.001 0.495-0 0.742-0.938 0-1.875 0.001-2.812-0-0.001-1.416-0.002-2.832 0-4.247z"></path>
<path fill="#fff" d="M7.924 6.56c0.257-0.001 0.515-0.001 0.772 0 0.001 1.418 0 2.836 0 4.255-0.257 0.001-0.515 0.001-0.772-0 0-1.418-0.001-2.836 0-4.255z"></path>
<path fill="#fff" d="M9.956 6.56c0.256-0.001 0.513-0.001 0.77-0 0.391 0.908 0.809 1.805 1.177 2.722 0.368-0.918 0.789-1.815 1.184-2.722 0.248-0 0.496-0.001 0.744 0 0.001 1.418 0.001 2.837 0 4.255-0.257 0.001-0.514 0.001-0.771 0 0.003-0.855-0.009-1.71 0.008-2.565-0.361 0.904-0.781 1.782-1.17 2.674-0.393-0.889-0.792-1.774-1.176-2.666 0.018 0.852 0.005 1.705 0.008 2.558-0.258 0-0.516 0.001-0.773-0-0.002-1.418-0.002-2.836 0-4.254z"></path>
<path fill="#fff" d="M15.093 6.56c0.257-0 0.514-0.001 0.771 0 0.001 1.418 0 2.837 0 4.255-0.257 0-0.514 0-0.771 0-0.001-1.419-0.001-2.837 0-4.256z"></path>
<path fill="#fff" d="M16.856 6.557c1.053-0.001 2.106-0.001 3.158 0 0.001 0.248 0.001 0.495 0 0.743-0.398 0.001-0.795-0.001-1.193 0.001-0.002 1.171 0 2.343-0.001 3.514-0.257 0.001-0.514 0-0.772 0-0.002-1.172 0.001-2.343-0.001-3.515-0.398-0.001-0.795 0-1.192-0-0.001-0.248-0.001-0.495 0-0.743z"></path>
<path fill="#fff" d="M5.12 13.98c0.857-1.124 2.528-1.361 3.773-0.798 0.873 0.382 1.504 1.276 1.508 2.238 0.036 0.854-0.45 1.695-1.219 2.074 0.541 0.246 1.013 0.655 1.302 1.178 0.558 1.007 0.444 2.351-0.294 3.239-0.642 0.791-1.688 1.177-2.69 1.154-0.958 0.021-1.95-0.337-2.593-1.065-0.869-0.957-0.962-2.518-0.214-3.571 0.285-0.407 0.684-0.728 1.135-0.935-0.396-0.219-0.741-0.543-0.949-0.948-0.419-0.807-0.312-1.848 0.241-2.565M7.049 14.131c-0.347 0.080-0.676 0.272-0.882 0.567-0.402 0.567-0.342 1.442 0.207 1.896 0.643 0.528 1.682 0.515 2.308-0.036 0.6-0.529 0.566-1.578-0.038-2.091-0.431-0.375-1.051-0.451-1.595-0.337M7.285 18.069c-0.6 0.049-1.181 0.376-1.498 0.894-0.514 0.806-0.331 2.025 0.491 2.559 0.742 0.475 1.78 0.464 2.507-0.035 0.8-0.558 0.96-1.777 0.418-2.566-0.409-0.622-1.19-0.935-1.918-0.852z"></path>
<path fill="#fff" d="M15.818 12.918c1.030-0.15 2.151 0.207 2.8 1.045 0.576 0.713 0.858 1.616 1 2.509 0.176 1.152 0.158 2.338-0.093 3.478-0.192 0.855-0.538 1.714-1.18 2.332-0.844 0.833-2.193 0.981-3.272 0.569-0.645-0.254-1.161-0.767-1.495-1.366-0.444-0.788-0.636-1.69-0.719-2.583-0.091-1.078-0.034-2.176 0.242-3.225 0.203-0.736 0.535-1.462 1.093-1.998 0.437-0.425 1.019-0.689 1.623-0.76M15.86 14.125c-0.623 0.131-1.074 0.661-1.304 1.23-0.319 0.776-0.406 1.626-0.415 2.459-0.013 0.884 0.045 1.785 0.345 2.624 0.186 0.519 0.512 1.029 1.027 1.269 0.602 0.272 1.374 0.207 1.877-0.241 0.405-0.358 0.623-0.874 0.763-1.385 0.211-0.799 0.25-1.632 0.231-2.455-0.026-0.773-0.112-1.558-0.404-2.28-0.167-0.405-0.423-0.795-0.803-1.028-0.389-0.242-0.875-0.285-1.317-0.194z"></path>
</svg>
