<?xml version="1.0" encoding="utf-8"?>
<!-- Generated by IcoMoon.io -->
<!DOCTYPE svg PUBLIC "-//W3C//DTD SVG 1.1//EN" "http://www.w3.org/Graphics/SVG/1.1/DTD/svg11.dtd">
<svg version="1.1" xmlns="http://www.w3.org/2000/svg" xmlns:xlink="http://www.w3.org/1999/xlink" width="24" height="24" viewBox="0 0 24 24">
<path fill="#034a8f" d="M10.872 0h2.216c2.706 0.292 5.334 1.444 7.275 3.369 2.106 2.007 3.397 4.809 3.637 7.701v2.020c-0.298 2.769-1.502 5.45-3.5 7.407-1.946 1.993-4.618 3.188-7.372 3.503h-2.218c-2.77-0.299-5.456-1.503-7.412-3.504-1.99-1.948-3.184-4.615-3.498-7.368v-2.046c0.277-3.683 2.342-7.176 5.456-9.167 1.616-1.074 3.502-1.675 5.416-1.915M9.167 8.414c-0.653-0.005-1.308 0.003-1.961-0.005-0.782-0.005-1.521 0.279-2.241 0.55 0.047 0.071 0.14 0.214 0.188 0.285-0.26 0.727-0.536 1.448-0.822 2.164-0.139 0.054-0.277 0.108-0.416 0.161-0.17 0.842-0.299 1.693-0.426 2.543-0.072 0.054-0.216 0.16-0.287 0.214 0.004 0.168 0.007 0.337 0.009 0.505 0.473 0.167 0.99 0.046 1.482 0.067-0.156 0.915 0.685 1.79 1.6 1.693 0.847-0.024 1.507-0.856 1.41-1.684 2.399-0.003 4.797 0.009 7.195-0.007-0.123 0.87 0.609 1.73 1.496 1.696 0.876 0.038 1.654-0.81 1.5-1.683 0.212 0 0.424 0.003 0.636 0.004-0.011-0.094-0.034-0.285-0.046-0.379 0.491-0.266 1.052-0.409 1.508-0.737 0.059-0.262 0.029-0.535 0.045-0.801-3.545 0.021-7.090-0.001-10.636 0.011l-0.010-0.184c3.503 0.014 7.007-0.003 10.51 0.009 0.173-0.223 0.118-0.51 0.126-0.77-0.007-1.355 0.001-2.71-0.005-4.064-0.003-0.156-0.029-0.311-0.079-0.46-3.562-0.005-7.125 0.013-10.689-0.009-0.132 0.277-0.098 0.586-0.087 0.883z"></path>
<path fill="#034a8f" d="M5.677 9.209c0.876 0.029 1.755 0.016 2.631 0.001-0.001 0.736-0.018 1.471 0.016 2.207-1.166-0.010-2.33-0.010-3.496-0.001 0.295-0.732 0.548-1.478 0.85-2.207z"></path>
<path fill="#fff" d="M9.167 8.414c-0.012-0.296-0.046-0.606 0.087-0.883 3.563 0.022 7.127 0.004 10.689 0.009 0.050 0.15 0.076 0.304 0.079 0.46 0.007 1.355-0.001 2.71 0.005 4.064-0.008 0.26 0.047 0.547-0.126 0.77-3.503-0.012-7.007 0.005-10.51-0.009l0.010 0.184c3.546-0.012 7.091 0.011 10.636-0.010-0.016 0.266 0.014 0.539-0.045 0.801-0.456 0.328-1.018 0.471-1.508 0.737 0.012 0.094 0.035 0.285 0.046 0.379-0.212-0.001-0.424-0.004-0.636-0.004 0.153 0.872-0.624 1.721-1.5 1.683-0.888 0.034-1.62-0.826-1.496-1.696-2.397 0.016-4.796 0.004-7.195 0.007 0.097 0.828-0.563 1.66-1.41 1.684-0.915 0.097-1.756-0.778-1.6-1.693-0.492-0.021-1.009 0.1-1.482-0.067-0.003-0.168-0.005-0.337-0.009-0.505 0.071-0.054 0.215-0.16 0.287-0.214 0.127-0.85 0.256-1.701 0.426-2.543 0.139-0.054 0.277-0.108 0.416-0.161 0.286-0.716 0.563-1.437 0.822-2.164-0.047-0.071-0.14-0.214-0.188-0.285 0.72-0.27 1.46-0.555 2.241-0.55 0.653 0.008 1.308 0 1.961 0.005M5.677 9.209c-0.302 0.729-0.555 1.475-0.85 2.207 1.166-0.009 2.33-0.009 3.496 0.001-0.034-0.736-0.017-1.471-0.016-2.207-0.876 0.014-1.755 0.028-2.631-0.001z"></path>
</svg>
