<svg xmlns="http://www.w3.org/2000/svg" width="24" height="24">
    <path fill="#fff" d="M.912 0h22.174c.447.102.812.467.914.914v22.17c-.1.448-.467.813-.914.916H.915A1.235 1.235 0 0 1 0 23.088V.913C.102.467.466.103.912 0zm.654.587C1.008.647.56 1.171.576 1.73v20.539c-.021.621.535 1.176 1.155 1.155H22.27c.62.021 1.175-.534 1.155-1.155V1.73a1.147 1.147 0 0 0-.67-1.052c-.254-.123-.543-.104-.817-.103H2.063c-.165.001-.332-.008-.497.012z"/>
    <path fill="#fff" d="M2.08 1.192c.149-.024.301-.015.451-.017 6.408.001 12.816-.001 19.223.001.57-.006 1.075.5 1.069 1.069v19.509c.006.569-.499 1.074-1.069 1.069-6.502.002-13.006.002-19.508 0-.57.005-1.076-.499-1.069-1.069V2.246a1.085 1.085 0 0 1 .903-1.054zm10.945 2.787c-.458.612-.477 1.498-.142 2.17.297.602 1.128.788 1.688.454.223-.134.375-.354.481-.586a32.492 32.492 0 0 0-.518-.199c-.164.375-.689.547-.991.231-.394-.454-.394-1.189-.093-1.692.258-.403.897-.31 1.096.105.168-.075.336-.152.503-.229-.312-.791-1.52-.918-2.024-.253zm6.835-.197c-.363.271-.404.869-.068 1.178.34.325.855.328 1.224.603.234.173.123.574-.153.631-.365.124-.76-.099-.903-.443a32.34 32.34 0 0 0-.519.193c.23.798 1.312 1.069 1.946.585.419-.318.447-1.032.035-1.367-.323-.275-.758-.331-1.124-.522-.186-.075-.218-.359-.046-.466.28-.163.696-.068.836.24.169-.054.338-.11.505-.17-.196-.722-1.191-.875-1.732-.459zM2.215 3.598c-.002.18-.002.361 0 .542.29.003.581 0 .871.001l.001 2.578h.563V4.142l.865-.001a48.96 48.96 0 0 0 0-.542c-.767-.001-1.534-.002-2.301 0zm3.387 3.099c.187.002.374.002.562 0 .004-.399 0-.798.002-1.197.202-.001.403-.002.604 0 .198.398.391.8.592 1.197.21.001.42.002.629-.002-.2-.419-.408-.834-.608-1.253.583-.201.788-.975.462-1.473-.172-.27-.506-.378-.811-.381-.477-.003-.954-.001-1.431 0-.001 1.036-.002 2.072.001 3.109zm3.497-3.083v1.92c.003.353.098.738.382.972.417.323 1.031.333 1.497.112.363-.183.535-.599.544-.989.007-.672-.002-1.345.004-2.017-.188.002-.375.002-.562 0-.002.641.003 1.282-.002 1.923-.008.224-.054.494-.274.607a.917.917 0 0 1-.752 0c-.219-.113-.268-.383-.269-.607-.003-.641 0-1.281-.001-1.921h-.568zm7.038 0c.003 1.035 0 2.07.002 3.105h.564c.011-.293-.019-.588.013-.878.164-.222.35-.428.519-.646.27.509.54 1.017.812 1.525.218 0 .436.001.655-.001-.362-.666-.725-1.332-1.089-1.997.29-.373.592-.736.882-1.109-.222.004-.443.003-.665.003-.373.478-.75.953-1.126 1.428V3.615c-.189.002-.377.002-.566 0zM3.183 9.547v1.833l5.195.001c-.838 1.193-1.566 2.474-2.052 3.852-.59 1.631-.825 3.371-.839 5.1h1.906c.022-1.64.329-3.271.847-4.825.5-1.494 1.236-2.924 2.263-4.125.047-.603.007-1.225.019-1.835h-7.34zm10.219.016c-.114 1.795-.218 3.591-.325 5.386.616.263 1.236.52 1.853.782.642-.746 1.822-.975 2.68-.485.73.457.845 1.479.57 2.232-.287.796-1.152 1.231-1.964 1.232a3.77 3.77 0 0 1-2.385-.708c-.359.493-.714.987-1.07 1.482.652.552 1.486.843 2.322.965.963.135 1.976.098 2.882-.281.762-.312 1.427-.877 1.813-1.609.679-1.309.59-3.039-.336-4.208-1.046-1.285-3.04-1.485-4.456-.733l.162-2.238 4.4-.001V9.561h-6.147z"/>
    <path fill="#fff" d="M6.165 4.122c.315.01.633-.022.946.017.392.052.413.713.032.799-.322.047-.652.009-.978.021v-.837z"/>
    <path d="M1.566.587c.165-.02.331-.011.497-.012h19.875c.274-.001.563-.02.817.103.407.178.677.61.67 1.052v20.539c.021.621-.534 1.176-1.155 1.155H1.731c-.621.021-1.177-.534-1.155-1.155V1.73c-.016-.559.433-1.083.99-1.143zm.514.605a1.085 1.085 0 0 0-.903 1.054v19.508c-.007.57.499 1.074 1.069 1.069 6.502.002 13.006.002 19.508 0 .57.005 1.074-.5 1.069-1.069V2.245c.006-.57-.499-1.075-1.069-1.069-6.407-.003-12.815 0-19.223-.001-.15.001-.302-.008-.451.017z"/>
    <path d="M13.025 3.979c.504-.665 1.712-.538 2.024.253-.167.077-.335.154-.503.229-.199-.415-.838-.508-1.096-.105-.301.503-.301 1.238.093 1.692.302.316.827.144.991-.231.173.066.346.131.518.199-.107.232-.259.452-.481.586-.56.333-1.391.148-1.688-.454-.335-.672-.316-1.558.142-2.17zM19.86 3.782c.541-.415 1.536-.262 1.732.459-.167.06-.336.116-.505.17-.14-.308-.556-.403-.836-.24-.172.107-.14.391.046.466.366.191.802.247 1.124.522.412.335.384 1.049-.035 1.367-.634.485-1.716.213-1.946-.585.172-.066.346-.13.519-.193.143.344.538.567.903.443.276-.058.387-.458.153-.631-.368-.275-.884-.278-1.224-.603-.335-.308-.294-.907.068-1.178zM2.215 3.598c.767-.002 1.534-.001 2.301 0v.542l-.865.001v2.577c-.188.002-.375.001-.563 0L3.087 4.14c-.291 0-.581.002-.871-.001a48.96 48.96 0 0 1 0-.542zM5.602 6.697a805.491 805.491 0 0 1-.001-3.109c.477 0 .954-.003 1.431 0 .306.003.639.112.811.381.327.499.121 1.272-.462 1.473.201.419.409.834.608 1.253-.21.004-.419.003-.629.002-.2-.397-.394-.798-.592-1.197a30.402 30.402 0 0 0-.604 0c-.002.399.002.798-.002 1.197-.188.002-.375.002-.562 0zm.563-2.575v.837c.325-.012.655.026.978-.021.381-.085.36-.747-.032-.799-.313-.039-.631-.007-.946-.017zM9.099 3.614h.568c.001.64-.002 1.281.001 1.921 0 .224.049.495.269.608a.917.917 0 0 0 .752 0c.22-.113.266-.383.274-.607.005-.641 0-1.282.002-1.923.187.002.374.002.562 0-.007.672.002 1.345-.004 2.017-.009.39-.181.805-.544.989-.465.221-1.08.211-1.497-.112-.285-.234-.379-.618-.382-.972v-1.92zM16.137 3.614h.566v1.429c.376-.475.754-.95 1.126-1.428.222 0 .443.001.665-.003-.29.373-.593.735-.882 1.109.364.665.727 1.331 1.089 1.997-.218.002-.436.001-.655.001a445.12 445.12 0 0 1-.812-1.525c-.169.218-.355.424-.519.646-.032.29-.002.586-.013.878h-.564c-.002-1.035.001-2.07-.002-3.105zM3.183 9.547h7.34c-.012.61.028 1.232-.019 1.835-1.027 1.202-1.763 2.631-2.263 4.125-.518 1.554-.825 3.185-.847 4.825H5.488c.014-1.729.248-3.469.839-5.1.486-1.378 1.214-2.66 2.052-3.852l-5.195-.001V9.546zM13.402 9.563h6.147v1.818l-4.4.001-.162 2.238c1.416-.751 3.411-.552 4.456.733.926 1.17 1.015 2.9.336 4.208-.386.732-1.051 1.297-1.813 1.609-.907.379-1.92.416-2.882.281-.836-.122-1.67-.413-2.322-.965.355-.495.711-.99 1.07-1.482a3.757 3.757 0 0 0 2.385.708c.811-.001 1.677-.436 1.964-1.232.274-.753.16-1.775-.57-2.232-.859-.49-2.039-.262-2.68.485-.617-.263-1.237-.519-1.853-.782.107-1.795.211-3.591.325-5.386z"/>
</svg>
