<!-- Generated by IcoMoon.io -->
<svg version="1.1" xmlns="http://www.w3.org/2000/svg" width="24" height="24" viewBox="0 0 24 24">
<title>regulatory--no-heavy-goods-vehicles--g5</title>
<path fill="#cc260d" d="M11.14 0.454c0.629-0.163 1.312-0.137 1.94 0.013 5.051 0.371 9.592 4.475 10.318 9.49 0.031 1.006 0.18 2.012 0.061 3.019-0.030-0.073-0.088-0.221-0.118-0.294-0.52-0.073-1.055-0.284-1.578-0.163-0.244 0.202-0.314 0.557-0.475 0.826 0.241-2-0.066-4.090-1.028-5.873-2.078-3.809-6.966-5.844-11.108-4.418-0.043-0.136-0.085-0.271-0.13-0.407 0.1 0.042 0.198 0.086 0.294 0.136 0.070-0.102 0.139-0.204 0.21-0.305 0.706 0.199 1.505 0.124 2.117-0.296 0.163-0.142 0.352-0.002 0.52 0.049-0.125 0.103-0.251 0.206-0.376 0.311 0.466-0.109 0.946-0.258 1.272-0.63-0.196 0.010-0.391 0.017-0.586 0.031-0.030-0.118-0.060-0.235-0.089-0.353-1.367-0.078-2.738 0.095-4.102-0.066-0.708 0.241-1.523 0.133-2.074 0.776 0.017 0.053 0.050 0.157 0.067 0.21-0.125-0.006-0.248-0.013-0.371-0.023-0.124 0.256-0.272 0.499-0.433 0.732-0.101-0.036-0.202-0.073-0.301-0.112-0.27 0.196-0.334 0.506-0.299 0.821-0.109-0.1-0.218-0.199-0.328-0.299-0.206 0.151-0.427 0.281-0.661 0.383l-0.023-0.134c1.808-1.944 4.561-3.228 7.279-3.424z"></path>
<path fill="#c42407" d="M6.209 2.299c0.551-0.643 1.366-0.535 2.074-0.776 1.363 0.161 2.735-0.012 4.102 0.066 0.029 0.118 0.059 0.235 0.089 0.353 0.194-0.014 0.39-0.022 0.586-0.031-0.326 0.372-0.806 0.521-1.272 0.63 0.125-0.104 0.251-0.208 0.376-0.311-0.168-0.052-0.356-0.191-0.52-0.049-0.612 0.42-1.411 0.496-2.117 0.296-0.071 0.101-0.14 0.203-0.21 0.305-0.096-0.049-0.194-0.094-0.294-0.136 0.044 0.136 0.086 0.271 0.13 0.407-1.093 0.362-2.156 0.899-2.986 1.711 1.116 1.15 2.242 2.29 3.39 3.407-0.782 0.145-1.618-0.132-2.368 0.174-0.814-0.713-1.508-1.548-2.297-2.286-2.224 2.484-2.833 6.268-1.568 9.347 0.458 1.164 1.181 2.208 2.023 3.128 2.222 2.386 5.782 3.406 8.933 2.579 1.312-0.366 2.568-0.968 3.622-1.84-0.769-0.926-1.696-1.709-2.496-2.606 0.643-0.103 1.172-0.598 1.259-1.253 0.878 0.797 1.662 1.691 2.533 2.494 1.2-1.222 1.762-2.92 2.092-4.564 0.161-0.269 0.232-0.624 0.475-0.826 0.523-0.121 1.058 0.090 1.578 0.163 0.030 0.073 0.088 0.221 0.118 0.294-0.032 0.655-0.256 1.283-0.282 1.938-0.979 4.272-4.736 7.676-9.017 8.488-2.806 0.602-5.926-0.008-8.29-1.65-1.292-1.226-2.771-2.342-3.671-3.922-1.084-2.074-1.88-4.417-1.538-6.788 0.018-1.373 0.484-2.687 1.052-3.918 0.217-0.314 0.38-0.707 0.73-0.899 0.101-0.902 0.974-1.477 1.44-2.213 0.234-0.102 0.455-0.232 0.661-0.383 0.109 0.1 0.218 0.199 0.328 0.299-0.035-0.314 0.029-0.625 0.299-0.821 0.1 0.038 0.2 0.076 0.301 0.112 0.161-0.233 0.31-0.476 0.433-0.732 0.122 0.010 0.246 0.017 0.371 0.023-0.017-0.053-0.050-0.157-0.067-0.21z"></path>
<path fill="#c42407" d="M9.845 8.45c0.168 0.174 0.336 0.348 0.497 0.529-0.086 0.014-0.26 0.042-0.347 0.056-0.017 0.697 0.018 1.399-0.101 2.090l-0.080-0.133c-0.002-0.847-0.036-1.697 0.031-2.543z"></path>
<path fill="#c42407" d="M10.349 11.501c0.851-0.012 1.702-0.038 2.552 0.004 0.047 0.054 0.142 0.164 0.188 0.218-0.877-0.024-1.753-0.007-2.63-0.005-0.028-0.054-0.083-0.163-0.11-0.217z"></path>
<path fill="#fff" d="M9.151 3.053c4.142-1.426 9.030 0.61 11.108 4.418 0.962 1.783 1.27 3.872 1.028 5.873-0.33 1.644-0.892 3.342-2.092 4.564-0.871-0.803-1.655-1.697-2.533-2.494 0.052-0.859-0.68-1.548-1.519-1.555-0.043-0.055-0.128-0.167-0.172-0.222 0.836-0.145 1.636 0.354 2.016 1.082 0.804 0.017 1.609 0.008 2.414-0.007 0.005-0.989 0.011-1.978-0.001-2.968-2.104-0.022-4.208-0.004-6.312-0.022-0.047-0.054-0.142-0.164-0.188-0.218 0.018-0.826 0.007-1.651 0.010-2.477-0.854-0.119-1.714 0.044-2.569-0.048-0.161-0.181-0.329-0.355-0.497-0.529-0.096-0.095-0.192-0.187-0.289-0.28-1.148-1.117-2.274-2.257-3.39-3.407 0.829-0.812 1.892-1.349 2.986-1.711M13.117 9.023c-0.007 0.82-0.008 1.639-0.005 2.459 0.934 0.010 1.866 0.014 2.798 0.001 0.004-0.818 0-1.638 0.001-2.458-0.931-0.007-1.864 0.006-2.795-0.002M16.129 11.498c0.962 0.071 1.938 0.068 2.902-0.002-0.016-0.812 0.025-1.627-0.018-2.438-0.954 0.011-1.908 0.010-2.862 0.002-0.030 0.812-0.012 1.625-0.022 2.438z"></path>
<path fill="#fff" d="M3.323 15.406c-1.265-3.079-0.655-6.863 1.568-9.347 0.788 0.738 1.483 1.573 2.297 2.286-0.22 0.781-0.64 1.49-0.922 2.25-0.185 0.601-1.135 0.688-1.034 1.404 0.122 0.73 0.385 1.427 0.517 2.155-0.19 0.035-0.379 0.074-0.569 0.109 0.014 0.146 0.026 0.292 0.037 0.438 0.27 0.004 0.539 0.006 0.809 0.001 0.63-1.39 2.744-1.364 3.379 0.007 1.386 0.019 2.772-0.025 4.158 0.020 0.187 0.228 0.402 0.458 0.432 0.768 0.067 0.703 0.744 1.146 1.409 1.169 0.8 0.898 1.727 1.68 2.496 2.606-1.054 0.871-2.31 1.474-3.622 1.84-3.151 0.827-6.71-0.193-8.933-2.579-0.842-0.92-1.565-1.964-2.023-3.128M7.361 13.973c-1.066 0.227-1.357 1.806-0.47 2.418 0.724 0.588 1.942 0.126 2.108-0.788 0.265-0.94-0.695-1.907-1.638-1.63z"></path>
<path fill="#fff" d="M7.603 8.9c0.574 0.48 1.082 1.030 1.608 1.561 0.005 0.073 0.016 0.218 0.020 0.292-0.76 0.002-1.519 0-2.279-0.001 0.178-0.63 0.437-1.234 0.65-1.852z"></path>
<path fill="#fff" d="M9.814 10.993l0.080 0.133c0.047 0.112 0.091 0.224 0.132 0.338 0.108 0.011 0.215 0.023 0.323 0.036 0.028 0.054 0.083 0.163 0.11 0.217-0.215 0.002-0.43 0.006-0.644 0.011-0.006-0.245-0.010-0.491-0.001-0.736z"></path>
<path fill="#fff" d="M7.346 14.534c0.428-0.224 0.994 0.042 1.135 0.496 0.258 0.63-0.52 1.367-1.133 1.025-0.632-0.258-0.623-1.252-0.002-1.52z"></path>
<path fill="#cb3733" d="M3.769 3.985l0.114 0.026c-0.466 0.736-1.339 1.31-1.44 2.213-0.349 0.192-0.512 0.584-0.73 0.899-0.569 1.231-1.034 2.545-1.052 3.918-0.342 2.371 0.455 4.715 1.538 6.788 0.9 1.579 2.378 2.695 3.671 3.922-3.708-2.185-5.903-6.704-5.39-10.954 0.312-2.54 1.405-5.047 3.289-6.812z"></path>
<path fill="#0d1015" d="M7.188 8.345c0.75-0.306 1.585-0.029 2.368-0.174 0.097 0.092 0.193 0.185 0.289 0.28-0.067 0.846-0.034 1.696-0.031 2.543-0.008 0.245-0.005 0.491 0.001 0.736 0.215-0.005 0.43-0.008 0.644-0.011 0.877-0.002 1.753-0.019 2.63 0.005 2.104 0.018 4.208 0 6.312 0.022 0.012 0.99 0.006 1.979 0.001 2.968-0.805 0.016-1.61 0.024-2.414 0.007-0.38-0.728-1.18-1.228-2.016-1.082-0.622 0.124-1.070 0.587-1.409 1.093-1.386-0.046-2.772-0.001-4.158-0.020-0.635-1.372-2.749-1.397-3.379-0.007-0.27 0.005-0.539 0.002-0.809-0.001-0.011-0.146-0.023-0.292-0.037-0.438 0.19-0.035 0.379-0.074 0.569-0.109-0.132-0.728-0.395-1.426-0.517-2.155-0.101-0.716 0.85-0.803 1.034-1.404 0.282-0.76 0.702-1.469 0.922-2.25M7.712 8.687c-0.026 0.076-0.062 0.148-0.109 0.214-0.214 0.618-0.473 1.222-0.65 1.852 0.76 0.001 1.519 0.004 2.279 0.001-0.005-0.073-0.016-0.218-0.020-0.292 0.002-0.593 0.020-1.187-0.002-1.78-0.499-0.008-0.998-0.007-1.496 0.005z"></path>
<path fill="#0d1015" d="M16.129 11.498c0.010-0.814-0.008-1.626 0.022-2.438 0.954 0.007 1.908 0.008 2.862-0.002 0.043 0.811 0.002 1.626 0.018 2.438-0.964 0.071-1.939 0.073-2.902 0.002z"></path>
<path fill="#e62400" d="M7.712 8.687c0.498-0.012 0.997-0.013 1.496-0.005 0.023 0.593 0.005 1.187 0.002 1.78-0.526-0.532-1.034-1.081-1.608-1.561 0.047-0.066 0.083-0.138 0.109-0.214z"></path>
<path fill="#0d1011" d="M9.995 9.036c0.086-0.014 0.26-0.042 0.347-0.056 0.856 0.092 1.715-0.071 2.569 0.048-0.002 0.826 0.008 1.651-0.010 2.477-0.851-0.042-1.702-0.016-2.552-0.004-0.108-0.013-0.215-0.025-0.323-0.036-0.041-0.114-0.085-0.227-0.132-0.338 0.119-0.691 0.084-1.393 0.101-2.090z"></path>
<path fill="#0d1016" d="M13.117 9.023c0.931 0.008 1.864-0.005 2.795 0.002-0.001 0.82 0.002 1.639-0.001 2.458-0.932 0.013-1.865 0.008-2.798-0.001-0.004-0.82-0.002-1.639 0.005-2.459z"></path>
<path fill="#e99e2b" d="M23.398 9.956l0.125 0.004c0.116 1.643 0.304 3.394-0.346 4.954 0.026-0.655 0.25-1.283 0.282-1.938 0.119-1.007-0.030-2.014-0.061-3.019z"></path>
<path fill="#bb200e" d="M13.564 14.73c0.338-0.506 0.787-0.97 1.409-1.093 0.043 0.055 0.128 0.167 0.172 0.222-0.726 0.194-1.301 0.853-1.148 1.639-0.030-0.31-0.245-0.54-0.432-0.768z"></path>
<path fill="#14161d" d="M7.361 13.973c0.943-0.277 1.903 0.69 1.638 1.63-0.167 0.914-1.385 1.376-2.108 0.788-0.887-0.612-0.595-2.191 0.47-2.418M7.346 14.534c-0.62 0.269-0.63 1.262 0.002 1.52 0.613 0.342 1.391-0.395 1.133-1.025-0.142-0.454-0.707-0.72-1.135-0.496z"></path>
<path fill="#0f1110" d="M13.996 15.498c-0.152-0.786 0.422-1.445 1.148-1.639 0.839 0.007 1.571 0.696 1.519 1.555-0.086 0.655-0.616 1.15-1.259 1.253-0.665-0.023-1.342-0.466-1.409-1.169M14.914 14.55c-0.558 0.305-0.547 1.189 0.031 1.465 0.601 0.341 1.388-0.373 1.139-1.007-0.152-0.461-0.746-0.708-1.17-0.458z"></path>
<path fill="#d72300" d="M14.914 14.55c0.424-0.25 1.018-0.002 1.17 0.458 0.25 0.634-0.538 1.348-1.139 1.007-0.578-0.276-0.589-1.16-0.031-1.465z"></path>
</svg>
