<!-- Generated by IcoMoon.io -->
<svg version="1.1" xmlns="http://www.w3.org/2000/svg" width="24" height="24" viewBox="0 0 24 24">
<title>regulatory--turn-right-ahead--g2</title>
<path fill="#d71920" d="M10.013 0.572c2.417-0.404 4.961-0.008 7.135 1.122 2.443 1.259 4.399 3.434 5.388 5.999 0.917 2.335 1.026 4.975 0.312 7.38-0.641 2.188-1.962 4.168-3.731 5.605-2.015 1.668-4.624 2.587-7.236 2.586-2.418-0.001-4.83-0.79-6.773-2.232-1.89-1.391-3.34-3.376-4.072-5.606-0.868-2.608-0.75-5.531 0.334-8.057 1.474-3.541 4.848-6.211 8.642-6.797M10.262 2.736c-2.399 0.404-4.595 1.828-5.977 3.826-1.392 1.978-1.938 4.518-1.511 6.895 0.366 2.119 1.514 4.085 3.161 5.465 1.61 1.37 3.708 2.15 5.822 2.173 2.143 0.037 4.291-0.704 5.95-2.064 1.386-1.118 2.438-2.645 2.987-4.34 0.659-2.021 0.589-4.27-0.196-6.246-0.728-1.86-2.084-3.469-3.794-4.502-1.901-1.176-4.244-1.601-6.442-1.206z"></path>
<path fill="#fff" d="M10.262 2.736c2.197-0.395 4.541 0.030 6.442 1.206 1.71 1.033 3.066 2.642 3.794 4.502 0.785 1.976 0.854 4.225 0.196 6.246-0.548 1.696-1.601 3.222-2.987 4.34-1.658 1.36-3.806 2.101-5.95 2.064-2.114-0.023-4.212-0.803-5.822-2.173-1.646-1.38-2.795-3.346-3.161-5.465-0.427-2.377 0.119-4.918 1.511-6.895 1.382-1.998 3.578-3.421 5.977-3.826M14.821 5.543c0.102 0.41 0.204 0.821 0.304 1.232-1.362 0.001-2.725 0.001-4.087 0-2.086-0.124-4.039 1.818-3.916 3.906 0.002 2.57 0 5.141 0.001 7.711 0.88 0 1.759 0 2.639-0.001 0.002-2.651-0.002-5.303 0.002-7.954-0.017-0.554 0.493-1.050 1.046-1.027 1.433-0.006 2.866-0.001 4.298-0.002-0.094 0.38-0.188 0.76-0.282 1.139 1.454-0.832 2.905-1.672 4.363-2.497-1.462-0.828-2.904-1.687-4.369-2.507z"></path>
<path fill="#231f20" d="M14.821 5.543c1.465 0.82 2.908 1.679 4.369 2.507-1.458 0.826-2.909 1.666-4.363 2.497 0.094-0.379 0.188-0.758 0.282-1.139-1.433 0.001-2.866-0.004-4.298 0.002-0.553-0.023-1.063 0.473-1.046 1.027-0.005 2.651 0 5.303-0.002 7.954-0.88 0.001-1.759 0.001-2.639 0.001-0.001-2.57 0.001-5.141-0.001-7.711-0.124-2.088 1.83-4.030 3.916-3.906 1.362 0.001 2.725 0.001 4.087 0-0.1-0.412-0.202-0.822-0.304-1.232z"></path>
</svg>
