<?xml version="1.0" encoding="utf-8"?>
<!-- Generated by IcoMoon.io -->
<!DOCTYPE svg PUBLIC "-//W3C//DTD SVG 1.1//EN" "http://www.w3.org/Graphics/SVG/1.1/DTD/svg11.dtd">
<svg version="1.1" xmlns="http://www.w3.org/2000/svg" xmlns:xlink="http://www.w3.org/1999/xlink" width="24" height="24" viewBox="0 0 24 24">
<path fill="#fff" d="M3 0h1.399c-0.714 0.071-1.279 0.657-1.398 1.352l-0.001-0.136v-1.216z"></path>
<path fill="#fff" d="M19.785 0h1.215v1.413c-0.081-0.708-0.643-1.31-1.354-1.412l0.139-0.001z"></path>
<path fill="#fff" d="M4.419 0.12c4.997-0.016 9.995-0.002 14.993-0.007 0.76-0.036 1.474 0.617 1.474 1.385 0.007 6.833-0.001 13.666 0.003 20.499-0.005 0.298 0.026 0.607-0.071 0.895-0.176 0.6-0.795 1.020-1.415 0.995-4.768-0.001-9.537-0.001-14.305 0-0.383-0.007-0.788 0.046-1.144-0.13-0.52-0.227-0.866-0.779-0.842-1.346 0.002-6.973-0.004-13.945 0.002-20.917 0.003-0.704 0.607-1.326 1.305-1.374M4.53 0.431c-0.615-0.006-1.14 0.562-1.1 1.174 0.001 6.955-0.005 13.911 0.002 20.866-0.008 0.617 0.565 1.135 1.174 1.101 4.928 0.002 9.857 0.002 14.786 0 0.637 0.039 1.216-0.528 1.178-1.168 0-6.957 0.004-13.915-0.003-20.873 0.008-0.616-0.561-1.137-1.171-1.103-4.955 0-9.911-0.007-14.866 0.003z"></path>
<path fill="#fff" d="M4.319 1.105c0.148-0.071 0.319-0.045 0.478-0.054 4.869 0.006 9.739-0.001 14.608 0.003 0.307-0.038 0.573 0.242 0.546 0.543 0.003 6.936 0.004 13.871 0 20.806 0.026 0.303-0.243 0.582-0.551 0.543-4.936 0.001-9.872 0.002-14.808-0.001-0.308 0.037-0.572-0.245-0.543-0.547-0.005-6.902 0-13.805-0.003-20.707-0.014-0.224 0.050-0.483 0.273-0.586M5.371 3.040c0 0.996 0 1.991 0 2.986 0.367-0.017 0.747 0.049 1.105-0.050 0.492-0.256 0.551-0.885 0.561-1.378-0.020-0.472-0.013-1.020-0.359-1.385-0.361-0.301-0.878-0.129-1.307-0.173M8.416 3.025c-0.381 0.129-0.519 0.567-0.586 0.925-0.063 0.599-0.087 1.253 0.221 1.795 0.24 0.442 0.969 0.452 1.226 0.022 0.239-0.374 0.276-0.833 0.274-1.265-0.002-0.43-0.055-0.886-0.304-1.249-0.179-0.264-0.544-0.311-0.831-0.228M12.535 3.040c0 0.996 0 1.991 0 2.987 0.106 0 0.318 0 0.424 0 0-0.669 0-1.337 0-2.005 0.307 0.668 0.613 1.337 0.921 2.005 0.081 0 0.244 0 0.326 0 0-0.996 0-1.991 0-2.987-0.143 0-0.286 0-0.429 0-0.001 0.598 0 1.196-0.001 1.794-0.272-0.598-0.544-1.196-0.815-1.794-0.142 0-0.284 0-0.426 0M15.451 3.062c-0.327 0.186-0.445 0.587-0.5 0.936-0.053 0.576-0.074 1.202 0.214 1.724 0.223 0.452 0.953 0.485 1.225 0.066 0.251-0.376 0.291-0.844 0.288-1.284 0-0.439-0.056-0.907-0.32-1.272-0.206-0.272-0.613-0.3-0.907-0.17M17.106 3.040c0 0.133 0 0.267 0 0.4 0.182 0 0.364 0 0.547 0 0 0.862 0 1.724 0 2.587 0.143 0 0.286 0 0.429 0 0-0.863 0-1.725 0-2.587 0.183 0 0.365 0 0.547 0 0-0.133 0-0.267 0-0.4-0.507 0-1.015 0-1.523 0M7.465 8.021c0 0.995 0 1.99 0 2.985 0.364-0.015 0.741 0.046 1.098-0.050 0.426-0.203 0.537-0.725 0.56-1.154 0.017-0.499 0.019-1.044-0.243-1.486-0.311-0.47-0.949-0.244-1.415-0.295M9.735 8.021c0.001 0.995 0 1.99 0 2.986 0.141 0 0.283 0 0.424 0 0-0.469 0-0.938 0-1.407 0.136 0 0.273 0 0.41 0 0.131 0.469 0.264 0.938 0.397 1.406 0.146 0.001 0.292 0.001 0.439 0.001-0.142-0.478-0.277-0.957-0.421-1.434 0.563-0.299 0.57-1.271-0.052-1.5-0.389-0.103-0.799-0.035-1.197-0.052M11.912 8.020c0 0.996 0 1.991 0 2.987 0.139 0 0.278 0 0.417 0 0-0.996 0-1.991 0-2.987-0.139 0-0.278 0-0.417 0M12.745 8.020c0.253 0.995 0.505 1.991 0.758 2.987 0.081 0 0.243 0 0.324 0 0.256-0.996 0.512-1.991 0.767-2.987-0.143 0-0.287 0-0.43 0-0.165 0.645-0.329 1.291-0.494 1.936-0.165-0.645-0.329-1.291-0.494-1.936-0.144 0-0.287 0-0.431 0M15.012 8.020c0 0.996 0 1.991 0 2.987 0.508 0 1.015 0 1.523 0 0-0.14 0-0.28 0-0.42-0.365 0-0.729 0-1.094 0 0-0.329 0-0.658 0-0.987 0.206-0.001 0.412 0 0.618 0 0-0.136 0-0.271 0-0.407-0.206 0-0.412 0.001-0.618 0 0-0.251 0-0.502 0-0.753 0.326 0 0.651 0 0.977 0 0-0.105 0-0.315 0-0.42-0.469 0-0.938 0-1.406 0M10.526 13.012c-0.345 0.189-0.461 0.615-0.512 0.978-0.048 0.578-0.069 1.213 0.247 1.727 0.237 0.416 0.928 0.427 1.191 0.032 0.249-0.364 0.293-0.822 0.294-1.251 0.002-0.434-0.046-0.892-0.286-1.265-0.191-0.308-0.624-0.356-0.934-0.221M12.341 12.993c0 0.996 0 1.991 0 2.987 0.143 0 0.286 0 0.429 0 0.001-0.667 0-1.333 0.001-1.999 0.306 0.666 0.612 1.332 0.918 1.999 0.081 0 0.242 0 0.323 0 0-0.996 0-1.991 0-2.987-0.144 0-0.287 0-0.43 0 0 0.596 0.001 1.191 0 1.787-0.271-0.595-0.541-1.191-0.812-1.786-0.143-0.001-0.286-0.001-0.429-0.001M4.812 18.6c-0.030 0.694 0.829 1.011 0.818 1.704 0.013 0.13-0.067 0.336-0.227 0.313-0.233 0.038-0.242-0.263-0.321-0.408-0.122 0.005-0.244 0.010-0.366 0.016 0.060 0.257 0.095 0.579 0.36 0.713 0.33 0.184 0.789 0.016 0.893-0.355 0.182-0.596-0.191-1.164-0.591-1.572-0.209-0.182-0.278-0.607 0.034-0.72 0.172 0.030 0.19 0.219 0.258 0.348 0.093-0.003 0.277-0.008 0.369-0.011-0.065-0.265-0.143-0.617-0.46-0.679-0.404-0.124-0.788 0.251-0.767 0.651M9.044 17.96c-0.194 0.056-0.322 0.236-0.381 0.421-0.134 0.394-0.1 0.817-0.106 1.226 0.004 0.386-0.004 0.802 0.198 1.145 0.192 0.331 0.736 0.348 0.946 0.028 0.227-0.347 0.217-0.783 0.225-1.182-0.008-0.453 0.036-0.935-0.168-1.355-0.121-0.263-0.447-0.373-0.714-0.283M6.594 17.973c0 0.996 0 1.991 0 2.987 0.124 0 0.247 0 0.371 0 0-0.464 0-0.929 0-1.393 0.178-0.001 0.357-0.001 0.535 0 0 0.464 0 0.928 0 1.393 0.125 0 0.251 0 0.377 0-0.001-0.996 0-1.991-0.001-2.987-0.125 0-0.25 0-0.376 0 0 0.402 0 0.805 0 1.207-0.179 0-0.357 0-0.535 0 0-0.402 0-0.804 0-1.207-0.093 0-0.278 0-0.371 0M10.606 17.973c0 0.711-0.001 1.422-0.001 2.132 0.001 0.247 0.010 0.52 0.182 0.717 0.165 0.198 0.46 0.218 0.694 0.154 0.273-0.089 0.404-0.394 0.401-0.663 0.016-0.78 0.001-1.56 0.006-2.34-0.125 0-0.251 0-0.376 0-0.003 0.745 0.003 1.49-0.001 2.236 0 0.154-0.018 0.391-0.217 0.409-0.191 0.044-0.319-0.143-0.305-0.315-0.018-0.776-0.001-1.553-0.007-2.33-0.125 0-0.251 0-0.376 0M12.676 17.973c0 0.996 0 1.991 0 2.987 0.379 0 0.757 0 1.136 0 0-0.116 0-0.231 0-0.347-0.253 0-0.506 0-0.759 0 0-0.88 0-1.76 0-2.64-0.094 0-0.282 0-0.377 0M14.312 17.973c0 0.996-0.001 1.992 0 2.988 0.289-0.011 0.588 0.034 0.869-0.051 0.261-0.122 0.31-0.443 0.36-0.698 0.077-0.644 0.091-1.325-0.127-1.944-0.19-0.427-0.735-0.264-1.102-0.295M16.276 17.973c0 0.996 0 1.991 0.001 2.987 0.376 0 0.752 0 1.129 0 0-0.129 0-0.258 0-0.387-0.253 0-0.506 0-0.759 0 0-0.351 0-0.702 0-1.053 0.161 0 0.321 0 0.482 0 0-0.131 0-0.262 0.001-0.393-0.161-0.001-0.322-0.001-0.483 0 0-0.256 0-0.512 0-0.767 0.239 0 0.478 0 0.718 0 0-0.097 0-0.29 0-0.387-0.363 0-0.726 0-1.089 0M17.982 17.973c0 0.995 0 1.991 0 2.987 0.126 0 0.251 0 0.377 0 0.007-0.493-0.023-0.987 0.026-1.478 0.039 0.045 0.117 0.136 0.156 0.181 0.136 0.424 0.21 0.866 0.324 1.297 0.097 0 0.291 0 0.388 0-0.1-0.486-0.199-0.972-0.297-1.458 0.37-0.32 0.403-0.916 0.134-1.308-0.269-0.323-0.741-0.195-1.108-0.221z"></path>
<path fill="#fff" d="M8.538 3.436c0.195-0.090 0.414 0.045 0.468 0.242 0.164 0.478 0.164 1.005 0.073 1.498-0.045 0.235-0.191 0.542-0.483 0.48-0.363-0.15-0.345-0.622-0.386-0.95 0.008-0.424-0.052-0.987 0.328-1.27z"></path>
<path fill="#fff" d="M15.64 3.447c0.196-0.107 0.437 0.020 0.493 0.228 0.163 0.464 0.161 0.976 0.083 1.457-0.041 0.251-0.194 0.608-0.513 0.516-0.342-0.165-0.327-0.619-0.365-0.945 0.005-0.42-0.044-0.95 0.302-1.256z"></path>
<path fill="#fff" d="M5.803 3.451c0.223 0.029 0.525-0.052 0.667 0.175 0.169 0.292 0.135 0.648 0.15 0.973-0.018 0.285 0.013 0.603-0.154 0.851-0.147 0.218-0.444 0.136-0.665 0.165 0-0.722-0.004-1.443 0.002-2.164z"></path>
<path fill="#fff" d="M7.894 8.433c0.273-0.001 0.666-0.035 0.742 0.312 0.107 0.518 0.129 1.081-0.019 1.592-0.112 0.299-0.469 0.245-0.723 0.258 0-0.721 0-1.442 0-2.162z"></path>
<path fill="#fff" d="M10.16 8.434c0.208 0.010 0.422-0.011 0.626 0.042 0.25 0.113 0.268 0.516 0.044 0.662-0.212 0.083-0.448 0.046-0.67 0.062-0.001-0.256-0.001-0.511 0-0.766z"></path>
<path fill="#fff" d="M10.645 13.449c0.174-0.172 0.478-0.072 0.544 0.155 0.177 0.474 0.174 1.001 0.091 1.494-0.044 0.233-0.169 0.563-0.467 0.512-0.31-0.069-0.341-0.448-0.387-0.705-0.032-0.484-0.087-1.045 0.219-1.456z"></path>
<path fill="#fff" d="M8.982 18.699c0.006-0.201 0.144-0.345 0.305-0.444 0.272 0.43 0.236 0.957 0.243 1.444-0.017 0.289 0.006 0.609-0.161 0.861-0.185 0.195-0.357-0.088-0.374-0.261-0.081-0.528-0.073-1.070-0.013-1.6z"></path>
<path fill="#fff" d="M14.69 18.336c0.131 0.015 0.26 0.040 0.387 0.076 0.144 0.308 0.101 0.66 0.126 0.99-0.007 0.343 0.033 0.703-0.082 1.031-0.065 0.176-0.288 0.117-0.431 0.162-0.003-0.753-0.003-1.506 0-2.259z"></path>
<path fill="#fff" d="M18.364 18.334c0.157 0.058 0.435-0.013 0.48 0.203 0.056 0.196 0.013 0.402-0.013 0.6-0.156 0.024-0.312 0.043-0.469 0.057-0.004-0.287-0.005-0.573 0.002-0.86z"></path>
<path fill="#fff" d="M3 22.602c0.089 0.702 0.647 1.295 1.354 1.397l-0.14 0.001h-1.214v-1.398z"></path>
<path fill="#fff" d="M20.999 22.64l0.001 0.136v1.224h-1.406c0.718-0.069 1.289-0.659 1.405-1.36z"></path>
<path fill="#000" d="M4.399 0l15.247 0.001c0.711 0.102 1.273 0.704 1.354 1.412v21.363l-0.001-0.136c-0.116 0.701-0.687 1.291-1.405 1.36l-15.24-0.001c-0.707-0.102-1.265-0.695-1.354-1.397v-21.386l0.001 0.136c0.119-0.695 0.684-1.281 1.398-1.352M4.419 0.12c-0.698 0.048-1.302 0.67-1.305 1.374-0.006 6.972 0 13.944-0.002 20.917-0.024 0.567 0.322 1.119 0.842 1.346 0.356 0.176 0.761 0.123 1.144 0.13 4.768-0.001 9.537-0.001 14.305 0 0.62 0.025 1.239-0.395 1.415-0.995 0.097-0.288 0.066-0.597 0.071-0.895-0.004-6.833 0.004-13.666-0.003-20.499 0-0.768-0.714-1.421-1.474-1.385-4.998 0.005-9.996-0.009-14.993 0.007z"></path>
<path fill="#000" d="M4.53 0.431c4.955-0.010 9.911-0.003 14.866-0.003 0.61-0.034 1.179 0.487 1.171 1.103 0.007 6.958 0.003 13.916 0.003 20.873 0.038 0.64-0.541 1.207-1.178 1.168-4.929 0.002-9.858 0.002-14.786 0-0.609 0.034-1.182-0.484-1.174-1.101-0.007-6.955-0.001-13.911-0.002-20.866-0.040-0.612 0.485-1.18 1.1-1.174M4.319 1.105c-0.223 0.103-0.287 0.362-0.273 0.586 0.003 6.902-0.002 13.805 0.003 20.707-0.029 0.302 0.235 0.584 0.543 0.547 4.936 0.003 9.872 0.002 14.808 0.001 0.308 0.039 0.577-0.24 0.551-0.543 0.004-6.935 0.003-13.87 0-20.806 0.027-0.301-0.239-0.581-0.546-0.543-4.869-0.004-9.739 0.003-14.608-0.003-0.159 0.009-0.33-0.017-0.478 0.054z"></path>
<path fill="#000" d="M5.371 3.040c0.429 0.044 0.946-0.128 1.307 0.173 0.346 0.365 0.339 0.913 0.359 1.385-0.010 0.493-0.069 1.122-0.561 1.378-0.358 0.099-0.738 0.033-1.105 0.050 0-0.995 0-1.99 0-2.986M5.803 3.451c-0.006 0.721-0.002 1.442-0.002 2.164 0.221-0.029 0.518 0.053 0.665-0.165 0.167-0.248 0.136-0.566 0.154-0.851-0.015-0.325 0.019-0.681-0.15-0.973-0.142-0.227-0.444-0.146-0.667-0.175z"></path>
<path fill="#000" d="M8.416 3.025c0.287-0.083 0.652-0.036 0.831 0.228 0.249 0.363 0.302 0.819 0.304 1.249 0.002 0.432-0.035 0.891-0.274 1.265-0.257 0.43-0.986 0.42-1.226-0.022-0.308-0.542-0.284-1.196-0.221-1.795 0.067-0.358 0.205-0.796 0.586-0.925M8.538 3.436c-0.38 0.283-0.32 0.846-0.328 1.27 0.041 0.328 0.023 0.8 0.386 0.95 0.292 0.062 0.438-0.245 0.483-0.48 0.091-0.493 0.091-1.020-0.073-1.498-0.054-0.197-0.273-0.332-0.468-0.242z"></path>
<path fill="#000" d="M12.535 3.040c0.142 0 0.284 0 0.426 0 0.271 0.598 0.543 1.196 0.815 1.794 0.001-0.598 0-1.196 0.001-1.794 0.143 0 0.286 0 0.429 0 0 0.996 0 1.991 0 2.987-0.082 0-0.245 0-0.326 0-0.308-0.668-0.614-1.337-0.921-2.005 0 0.668 0 1.336 0 2.005-0.106 0-0.318 0-0.424 0 0-0.996 0-1.991 0-2.987z"></path>
<path fill="#000" d="M15.451 3.062c0.294-0.13 0.701-0.102 0.907 0.17 0.264 0.365 0.32 0.833 0.32 1.272 0.003 0.44-0.037 0.908-0.288 1.284-0.272 0.419-1.002 0.386-1.225-0.066-0.288-0.522-0.267-1.148-0.214-1.724 0.055-0.349 0.173-0.75 0.5-0.936M15.64 3.447c-0.346 0.306-0.297 0.836-0.302 1.256 0.038 0.326 0.023 0.78 0.365 0.945 0.319 0.092 0.472-0.265 0.513-0.516 0.078-0.481 0.080-0.993-0.083-1.457-0.056-0.208-0.297-0.335-0.493-0.228z"></path>
<path fill="#000" d="M17.106 3.040c0.508 0 1.016 0 1.523 0 0 0.133 0 0.267 0 0.4-0.182 0-0.364 0-0.547 0 0 0.862 0 1.724 0 2.587-0.143 0-0.286 0-0.429 0 0-0.863 0-1.725 0-2.587-0.183 0-0.365 0-0.547 0 0-0.133 0-0.267 0-0.4z"></path>
<path fill="#000" d="M7.465 8.021c0.466 0.051 1.104-0.175 1.415 0.295 0.262 0.442 0.26 0.987 0.243 1.486-0.023 0.429-0.134 0.951-0.56 1.154-0.357 0.096-0.734 0.035-1.098 0.050 0-0.995 0-1.99 0-2.985M7.894 8.433c0 0.72 0 1.441 0 2.162 0.254-0.013 0.611 0.041 0.723-0.258 0.148-0.511 0.126-1.074 0.019-1.592-0.076-0.347-0.469-0.313-0.742-0.312z"></path>
<path fill="#000" d="M9.735 8.021c0.398 0.017 0.808-0.051 1.197 0.052 0.622 0.229 0.615 1.201 0.052 1.5 0.144 0.477 0.279 0.956 0.421 1.434-0.147 0-0.293 0-0.439-0.001-0.133-0.468-0.266-0.937-0.397-1.406-0.137 0-0.274 0-0.41 0 0 0.469 0 0.938 0 1.407-0.141 0-0.283 0-0.424 0 0-0.996 0.001-1.991 0-2.986M10.16 8.434c-0.001 0.255-0.001 0.51 0 0.766 0.222-0.016 0.458 0.021 0.67-0.062 0.224-0.146 0.206-0.549-0.044-0.662-0.204-0.053-0.418-0.032-0.626-0.042z"></path>
<path fill="#000" d="M11.912 8.020c0.139 0 0.278 0 0.417 0 0 0.996 0 1.991 0 2.987-0.139 0-0.278 0-0.417 0 0-0.996 0-1.991 0-2.987z"></path>
<path fill="#000" d="M12.745 8.020c0.144 0 0.287 0 0.431 0 0.165 0.645 0.329 1.291 0.494 1.936 0.165-0.645 0.329-1.291 0.494-1.936 0.143 0 0.287 0 0.43 0-0.255 0.996-0.511 1.991-0.767 2.987-0.081 0-0.243 0-0.324 0-0.253-0.996-0.505-1.992-0.758-2.987z"></path>
<path fill="#000" d="M15.012 8.020c0.468 0 0.937 0 1.406 0 0 0.105 0 0.315 0 0.42-0.326 0-0.651 0-0.977 0 0 0.251 0 0.502 0 0.753 0.206 0.001 0.412 0 0.618 0 0 0.136 0 0.271 0 0.407-0.206 0-0.412-0.001-0.618 0 0 0.329 0 0.658 0 0.987 0.365 0 0.729 0 1.094 0 0 0.14 0 0.28 0 0.42-0.508 0-1.015 0-1.523 0 0-0.996 0-1.991 0-2.987z"></path>
<path fill="#000" d="M10.526 13.012c0.31-0.135 0.743-0.087 0.934 0.221 0.24 0.373 0.288 0.831 0.286 1.265-0.001 0.429-0.045 0.887-0.294 1.251-0.263 0.395-0.954 0.384-1.191-0.032-0.316-0.514-0.295-1.149-0.247-1.727 0.051-0.363 0.167-0.789 0.512-0.978M10.645 13.449c-0.306 0.411-0.251 0.972-0.219 1.456 0.046 0.257 0.077 0.636 0.387 0.705 0.298 0.051 0.423-0.279 0.467-0.512 0.083-0.493 0.086-1.020-0.091-1.494-0.066-0.227-0.37-0.327-0.544-0.155z"></path>
<path fill="#000" d="M12.341 12.993c0.143 0 0.286 0 0.429 0.001 0.271 0.595 0.541 1.191 0.812 1.786 0.001-0.596 0-1.191 0-1.787 0.143 0 0.286 0 0.43 0 0 0.996 0 1.991 0 2.987-0.081 0-0.242 0-0.323 0-0.306-0.667-0.612-1.333-0.918-1.999-0.001 0.666 0 1.332-0.001 1.999-0.143 0-0.286 0-0.429 0 0-0.996 0-1.991 0-2.987z"></path>
<path fill="#000" d="M4.812 18.6c-0.021-0.4 0.363-0.775 0.767-0.651 0.317 0.062 0.395 0.414 0.46 0.679-0.092 0.003-0.276 0.008-0.369 0.011-0.068-0.129-0.086-0.318-0.258-0.348-0.312 0.113-0.243 0.538-0.034 0.72 0.4 0.408 0.773 0.976 0.591 1.572-0.104 0.371-0.563 0.539-0.893 0.355-0.265-0.134-0.3-0.456-0.36-0.713 0.122-0.006 0.244-0.011 0.366-0.016 0.079 0.145 0.088 0.446 0.321 0.408 0.16 0.023 0.24-0.183 0.227-0.313 0.011-0.693-0.848-1.010-0.818-1.704z"></path>
<path fill="#000" d="M9.044 17.96c0.267-0.090 0.593 0.020 0.714 0.283 0.204 0.42 0.16 0.902 0.168 1.355-0.008 0.399 0.002 0.835-0.225 1.182-0.21 0.32-0.754 0.303-0.946-0.028-0.202-0.343-0.194-0.759-0.198-1.145 0.006-0.409-0.028-0.832 0.106-1.226 0.059-0.185 0.187-0.365 0.381-0.421M8.982 18.699c-0.060 0.53-0.068 1.072 0.013 1.6 0.017 0.173 0.189 0.456 0.374 0.261 0.167-0.252 0.144-0.572 0.161-0.861-0.007-0.487 0.029-1.014-0.243-1.444-0.161 0.099-0.299 0.243-0.305 0.444z"></path>
<path fill="#000" d="M6.594 17.973c0.093 0 0.278 0 0.371 0 0 0.403 0 0.805 0 1.207 0.178 0 0.356 0 0.535 0 0-0.402 0-0.805 0-1.207 0.126 0 0.251 0 0.376 0 0.001 0.996 0 1.991 0.001 2.987-0.126 0-0.252 0-0.377 0 0-0.465 0-0.929 0-1.393-0.178-0.001-0.357-0.001-0.535 0 0 0.464 0 0.929 0 1.393-0.124 0-0.247 0-0.371 0 0-0.996 0-1.991 0-2.987z"></path>
<path fill="#000" d="M10.606 17.973c0.125 0 0.251 0 0.376 0 0.006 0.777-0.011 1.554 0.007 2.33-0.014 0.172 0.114 0.359 0.305 0.315 0.199-0.018 0.217-0.255 0.217-0.409 0.004-0.746-0.002-1.491 0.001-2.236 0.125 0 0.251 0 0.376 0-0.005 0.78 0.010 1.56-0.006 2.34 0.003 0.269-0.128 0.574-0.401 0.663-0.234 0.064-0.529 0.044-0.694-0.154-0.172-0.197-0.181-0.47-0.182-0.717 0-0.71 0.001-1.421 0.001-2.132z"></path>
<path fill="#000" d="M12.676 17.973c0.095 0 0.283 0 0.377 0 0 0.88 0 1.76 0 2.64 0.253 0 0.506 0 0.759 0 0 0.116 0 0.231 0 0.347-0.379 0-0.757 0-1.136 0 0-0.996 0-1.991 0-2.987z"></path>
<path fill="#000" d="M14.312 17.973c0.367 0.031 0.912-0.132 1.102 0.295 0.218 0.619 0.204 1.3 0.127 1.944-0.050 0.255-0.099 0.576-0.36 0.698-0.281 0.085-0.58 0.040-0.869 0.051-0.001-0.996 0-1.992 0-2.988M14.69 18.336c-0.003 0.753-0.003 1.506 0 2.259 0.143-0.045 0.366 0.014 0.431-0.162 0.115-0.328 0.075-0.688 0.082-1.031-0.025-0.33 0.018-0.682-0.126-0.99-0.127-0.036-0.256-0.061-0.387-0.076z"></path>
<path fill="#000" d="M16.276 17.973c0.363 0 0.726 0 1.089 0 0 0.097 0 0.29 0 0.387-0.24 0-0.479 0-0.718 0 0 0.255 0 0.511 0 0.767 0.161-0.001 0.322-0.001 0.483 0-0.001 0.131-0.001 0.262-0.001 0.393-0.161 0-0.321 0-0.482 0 0 0.351 0 0.702 0 1.053 0.253 0 0.506 0 0.759 0 0 0.129 0 0.258 0 0.387-0.377 0-0.753 0-1.129 0-0.001-0.996-0.001-1.991-0.001-2.987z"></path>
<path fill="#000" d="M17.982 17.973c0.367 0.026 0.839-0.102 1.108 0.221 0.269 0.392 0.236 0.988-0.134 1.308 0.098 0.486 0.197 0.972 0.297 1.458-0.097 0-0.291 0-0.388 0-0.114-0.431-0.188-0.873-0.324-1.297-0.039-0.045-0.117-0.136-0.156-0.181-0.049 0.491-0.019 0.985-0.026 1.478-0.126 0-0.251 0-0.377 0 0-0.996 0-1.992 0-2.987M18.364 18.334c-0.007 0.287-0.006 0.573-0.002 0.86 0.157-0.014 0.313-0.033 0.469-0.057 0.026-0.198 0.069-0.404 0.013-0.6-0.045-0.216-0.323-0.145-0.48-0.203z"></path>
</svg>
