<svg xmlns="http://www.w3.org/2000/svg" width="24" height="24">
    <path fill="#fff" d="M.91 0h22.178c.445.103.809.467.912.912v22.173a1.24 1.24 0 0 1-.912.915H.913A1.237 1.237 0 0 1 0 23.09V.912C.103.467.466.104.91 0zm.656.587C1.008.647.559 1.171.575 1.73v20.539c-.021.621.535 1.176 1.155 1.155h20.539c.621.021 1.176-.534 1.155-1.155V1.73c.021-.621-.534-1.177-1.155-1.155H2.109c-.181.002-.363-.009-.543.012z"/>
    <path fill="#fff" d="M2.08 1.192c.149-.024.301-.015.451-.017 6.407.001 12.815-.001 19.223.001.57-.007 1.075.5 1.069 1.069v19.508c.006.57-.499 1.074-1.069 1.069-6.502.002-13.006.002-19.509 0-.569.005-1.075-.499-1.068-1.069V2.245a1.085 1.085 0 0 1 .903-1.054zm10.945 2.787c-.458.612-.477 1.498-.142 2.17.297.602 1.128.788 1.688.454.223-.134.375-.354.481-.586a29.282 29.282 0 0 0-.519-.199c-.163.375-.689.547-.99.231-.394-.454-.394-1.189-.093-1.692.258-.403.897-.311 1.096.105.168-.075.336-.151.503-.229-.311-.791-1.519-.917-2.024-.253zm6.835-.197c-.363.271-.403.869-.068 1.178.34.325.855.328 1.224.603.234.173.123.574-.153.632-.364.123-.759-.1-.902-.444-.174.063-.347.127-.52.193.232.809 1.344 1.077 1.971.563.397-.326.412-1.019.009-1.346-.323-.275-.758-.331-1.124-.523-.186-.075-.218-.358-.046-.465.28-.164.697-.068.837.24.169-.055.338-.111.504-.171-.195-.722-1.191-.875-1.732-.459zM2.215 3.598c-.002.18-.002.361 0 .542.29.003.581 0 .871.001.001.859-.001 1.718.001 2.578h.563c.001-.859-.001-1.718.001-2.577.288-.001.576.001.864-.001a48.96 48.96 0 0 0 0-.542c-.767-.001-1.534-.002-2.301 0zm3.387 3.099c.187.002.374.002.561 0 .005-.399 0-.798.002-1.197.202-.001.403-.002.605 0 .197.399.391.8.592 1.197.21.001.419.002.629-.002-.2-.419-.408-.834-.608-1.253.583-.201.788-.975.461-1.473-.172-.27-.505-.378-.811-.381-.477-.003-.954-.001-1.431 0-.001 1.036-.002 2.072.001 3.109zm3.497-3.083v1.92c.003.353.098.739.382.972.416.324 1.031.334 1.497.112.363-.183.535-.599.544-.989.007-.672-.002-1.345.004-2.017-.188.002-.375.002-.562 0-.003.641.003 1.282-.002 1.923-.008.224-.054.494-.274.607a.917.917 0 0 1-.752 0c-.22-.113-.268-.384-.269-.608-.003-.64 0-1.281-.001-1.921a53.77 53.77 0 0 1-.568 0zm7.038 0c.004 1.035 0 2.07.002 3.105h.564c.012-.293-.02-.59.014-.88.164-.221.349-.426.518-.644.27.509.54 1.017.812 1.525.218 0 .436.001.655-.001l-1.088-1.997c.289-.374.592-.736.882-1.109-.222.004-.444.003-.666.003-.372.479-.75.952-1.126 1.428V3.615c-.189.002-.377.002-.566 0zM3.391 11.713c.565.26 1.132.516 1.698.775.23-.554.665-1.052 1.256-1.223.633-.185 1.401-.156 1.915.302.518.458.549 1.309.143 1.85-.404.56-1.052.851-1.635 1.182-1.225.687-2.341 1.662-2.949 2.951-.416.864-.593 1.83-.586 2.784h7.448c.002-.611.001-1.222 0-1.833-1.728-.002-3.457.001-5.185-.001.187-.682.669-1.238 1.222-1.658 1.018-.795 2.321-1.209 3.172-2.216 1.071-1.284.914-3.455-.415-4.506-.821-.661-1.931-.845-2.957-.731-1.356.145-2.631 1.037-3.126 2.325zm10.574-2.15c-.113 1.795-.219 3.591-.325 5.386.616.263 1.236.52 1.852.782.643-.746 1.823-.975 2.681-.484.73.457.844 1.478.57 2.232-.287.796-1.152 1.231-1.964 1.232a3.77 3.77 0 0 1-2.385-.708c-.359.493-.715.987-1.07 1.483.652.551 1.487.843 2.323.965.962.135 1.975.098 2.881-.281.762-.312 1.427-.877 1.813-1.608.675-1.299.592-3.012-.314-4.182-1.038-1.309-3.053-1.517-4.478-.76l.162-2.238 4.399-.001V9.563h-6.147z"/>
    <path fill="#fff" d="M6.165 4.122c.315.01.633-.022.946.017.392.053.412.714.031.799-.322.047-.652.009-.977.021v-.837z"/>
    <path d="M1.566.587c.18-.022.362-.01.543-.012h20.16c.621-.022 1.177.534 1.155 1.155v20.539c.021.621-.534 1.176-1.155 1.155H1.73c-.621.021-1.177-.534-1.155-1.155V1.73c-.016-.559.433-1.084.991-1.143zm.514.605a1.085 1.085 0 0 0-.903 1.054v19.508c-.007.57.499 1.074 1.068 1.069 6.503.002 13.006.002 19.509 0 .57.005 1.075-.5 1.069-1.069V2.246c.006-.57-.499-1.076-1.069-1.069-6.408-.003-12.816 0-19.223-.001-.15.001-.302-.008-.451.017z"/>
    <path d="M13.025 3.979c.504-.664 1.712-.538 2.024.253-.167.078-.335.154-.503.229-.199-.415-.838-.507-1.096-.105-.301.503-.301 1.238.093 1.692.302.316.827.144.99-.231.173.066.347.131.519.199-.107.232-.259.452-.481.586-.56.333-1.391.148-1.688-.454-.335-.672-.316-1.559.142-2.17zM19.86 3.782c.54-.415 1.536-.263 1.732.459-.167.06-.336.116-.504.171-.139-.308-.556-.403-.837-.24-.172.107-.139.39.046.465.366.191.802.247 1.124.523.403.327.387 1.02-.009 1.346-.627.514-1.739.246-1.971-.563.173-.066.346-.13.52-.193.142.344.538.567.902.444.276-.058.388-.458.153-.632-.368-.275-.884-.277-1.224-.603-.335-.308-.294-.907.068-1.178zM2.215 3.598c.767-.002 1.534-.001 2.301 0v.542c-.288.002-.576 0-.864.001-.002.859 0 1.718-.001 2.577-.188.002-.375.001-.563 0-.002-.859 0-1.718-.001-2.578-.291-.001-.581.002-.871-.001a48.961 48.961 0 0 1 0-.542zM5.602 6.697a805.491 805.491 0 0 1-.001-3.109c.477 0 .954-.003 1.431 0 .306.003.639.112.811.381.327.498.122 1.272-.461 1.473.201.419.409.834.608 1.253-.21.004-.419.003-.629.002-.201-.397-.394-.798-.592-1.197a30.503 30.503 0 0 0-.605 0c-.002.399.003.798-.002 1.197-.187.002-.374.002-.561 0zm.563-2.575v.837c.325-.012.655.026.977-.021.381-.085.361-.746-.031-.799-.314-.039-.631-.007-.946-.017zM9.099 3.614h.568c.001.64-.002 1.281.001 1.921 0 .224.049.495.269.608a.917.917 0 0 0 .752 0c.22-.113.266-.383.274-.607.005-.641 0-1.282.002-1.923.187.002.374.002.562 0-.007.672.002 1.345-.004 2.017-.009.39-.181.805-.544.989-.465.222-1.08.212-1.497-.112-.285-.233-.379-.619-.382-.972v-1.92zM16.137 3.614h.566v1.429c.376-.475.754-.949 1.126-1.428.222 0 .443.001.666-.003-.29.373-.593.735-.882 1.109.364.665.726 1.331 1.088 1.997-.218.002-.436.001-.655.001a445.12 445.12 0 0 1-.812-1.525c-.169.218-.354.423-.518.644-.034.29-.002.587-.014.88h-.564c-.002-1.035.002-2.07-.002-3.105zM3.391 11.713c.495-1.288 1.77-2.179 3.126-2.325 1.026-.114 2.136.069 2.957.731 1.329 1.05 1.486 3.222.415 4.506-.851 1.007-2.154 1.421-3.172 2.216-.553.42-1.035.976-1.222 1.658 1.728.002 3.457 0 5.185.001.001.611.002 1.222 0 1.833-2.483.002-4.965.001-7.448 0-.007-.955.17-1.92.586-2.784.607-1.289 1.724-2.264 2.949-2.951.584-.331 1.232-.622 1.635-1.182.406-.54.375-1.392-.143-1.85-.515-.457-1.282-.487-1.915-.302-.591.171-1.026.669-1.256 1.223-.565-.259-1.132-.515-1.698-.775zM13.965 9.563h6.147v1.818l-4.399.001-.162 2.238c1.425-.757 3.44-.549 4.478.76.906 1.17.989 2.883.314 4.182-.386.732-1.051 1.297-1.813 1.608-.906.379-1.919.416-2.881.281-.836-.122-1.671-.413-2.323-.965.355-.495.711-.99 1.07-1.483a3.757 3.757 0 0 0 2.385.708c.811-.001 1.677-.436 1.964-1.232.274-.753.16-1.775-.57-2.232-.859-.491-2.039-.262-2.681.484-.616-.263-1.236-.519-1.852-.782.106-1.795.211-3.591.325-5.386z"/>
</svg>
