<?xml version="1.0" encoding="utf-8"?>
<!-- Generated by IcoMoon.io -->
<!DOCTYPE svg PUBLIC "-//W3C//DTD SVG 1.1//EN" "http://www.w3.org/Graphics/SVG/1.1/DTD/svg11.dtd">
<svg version="1.1" xmlns="http://www.w3.org/2000/svg" xmlns:xlink="http://www.w3.org/1999/xlink" width="24" height="24" viewBox="0 0 24 24">
<path fill="#fffffe" d="M3.326 0.333c0.256-0.081 0.529-0.040 0.793-0.048 5.484-0.010 10.969-0.002 16.454-0.003 0.15-0.021 0.272 0.074 0.397 0.141l-0.102-0.035c0.010 0.056 0.030 0.168 0.040 0.224 0.381 0.249 0.568 0.723 0.584 1.166 0.001 6.905-0.001 13.811 0.001 20.717-0.001 0.19-0.056 0.374-0.086 0.561-0.029 0.075-0.061 0.151-0.089 0.228-0.154 0.149-0.265 0.345-0.456 0.453-0.182 0.13-0.416 0.141-0.63 0.149-5.327-0.001-10.655-0.001-15.982 0-0.301-0.005-0.615 0.028-0.902-0.080-0.485-0.235-0.752-0.789-0.759-1.311 0-6.857 0.001-13.715-0.001-20.573 0.001-0.192 0.023-0.383 0.030-0.575-0.049 0.075-0.094 0.154-0.136 0.233 0.001-0.040 0.005-0.118 0.006-0.158 0.034-0.075 0.066-0.152 0.097-0.228 0.025 0.059 0.049 0.118 0.074 0.177 0.083-0.32 0.277-0.599 0.529-0.808l0.086 0.082c-0.044-0.072-0.079-0.154-0.156-0.197 0.034-0.023 0.069-0.045 0.105-0.066 0.058 0.073 0.149 0.109 0.24 0.077 0.282-0.060 0.571-0.038 0.856-0.040 5.166 0 10.332 0 15.498 0 0.345 0.004 0.701-0.034 1.030 0.099-0.025-0.093-0.106-0.149-0.171-0.213-0.377-0.025-0.755-0.014-1.132-0.016-5.074-0.001-10.147-0.003-15.221 0.001-0.332 0.004-0.668-0.026-0.996 0.043M19.771 0.725c-0.968 0.020-1.935 0.005-2.903 0.010-4.229-0.001-8.459 0-12.688-0.001-0.273 0.003-0.56-0.026-0.815 0.092-0.313 0.178-0.424 0.559-0.481 0.891-0.062 0.659-0.038 1.322-0.017 1.982-0.001 6.262 0.002 12.524-0.001 18.786 0.009 0.296 0.094 0.603 0.304 0.82 0.261 0.217 0.616 0.253 0.944 0.245 5.371 0 10.743 0.002 16.114-0.001 0.542 0.029 0.98-0.467 0.99-0.987-0.001-6.515 0-13.030-0.001-19.546 0.005-0.433 0.023-0.867-0.003-1.3-0.017-0.29-0.157-0.564-0.35-0.776-0.303-0.256-0.723-0.227-1.094-0.215z"></path>
<path fill="#fffffe" d="M3.465 1.407c0.193-0.131 0.431-0.087 0.649-0.093 5.395 0.001 10.79 0 16.184 0.001 0.114-0.012 0.214 0.043 0.312 0.091 0.123 0.219 0.219 0.465 0.19 0.721-0.051 0.546-0.036 1.094-0.038 1.641 0 6.267 0.001 12.535 0 18.802-0.008 0.154-0.141 0.257-0.235 0.364-0.213 0.021-0.427 0.048-0.641 0.045-5.281-0.002-10.561-0.002-15.843 0.001-0.156 0.001-0.311-0.010-0.466-0.019-0.228-0.174-0.272-0.476-0.259-0.744 0.013-4.825-0.025-9.648-0.014-14.473 0.030-1.759 0.010-3.518 0.015-5.277 0.010-0.356-0.063-0.746 0.146-1.061M8.945 2.506c-0.361 0.084-0.677 0.325-0.856 0.649-0.265 0.475-0.294 1.046-0.212 1.574 0.075 0.49 0.359 0.976 0.829 1.178 0.557 0.233 1.276 0.158 1.706-0.292 0.36-0.377 0.466-0.923 0.457-1.428-0.008-0.48-0.132-0.993-0.485-1.339-0.372-0.365-0.944-0.459-1.439-0.341M4.872 2.528c-0.001 1.146 0 2.292-0.001 3.438 0.143 0 0.286 0 0.429 0 0.001-0.986-0.001-1.972 0.001-2.957 0.507 0.979 1.018 1.956 1.504 2.945 0.177 0.017 0.355 0.014 0.532 0.012 0-1.147 0-2.292 0-3.439-0.143 0-0.285-0.001-0.428-0.001-0.001 0.902 0.001 1.805-0.001 2.707-0.471-0.893-0.923-1.798-1.376-2.702-0.22-0.007-0.44-0.005-0.66-0.003M15.754 2.77c-0.045 0.25-0.132 0.511-0.056 0.764l-0.001 0.001c-0.13-0.053-0.255 0.008-0.371 0.065-0.008 0.11-0.016 0.221-0.026 0.332-0.152 0.122-0.156 0.377-0.361 0.433-0.192 0.086-0.125 0.35-0.173 0.519-0.11 0.002-0.221 0.005-0.331 0.008-0.008 0.106-0.013 0.213-0.021 0.32-0.331 0.154-0.568 0.488-0.53 0.863-0.111 0.040-0.228 0.072-0.33 0.134-0.118 0.217-0.069 0.479-0.071 0.716-0.010 0.102 0.083 0.176 0.158 0.227 0.4 0.025 0.806 0.033 1.201-0.043 0.239-0.031 0.485-0.014 0.717-0.091 0.038 0.064 0.102 0.119 0.112 0.197 0.054 0.418 0.050 0.845-0.014 1.262-0.178 0.397-0.699 0.47-0.889 0.867-0.082 0.005-0.164 0.011-0.245 0.021-0.117 0.044-0.096 0.173-0.11 0.272-0.23 0.079-0.483 0.043-0.71 0.136-0.163 0.034-0.198 0.221-0.32 0.309-0.229 0.080-0.461 0.165-0.706 0.185-0.040 0.082-0.079 0.164-0.118 0.247-0.235 0.052-0.467 0.118-0.701 0.178-0.106 0.062-0.132 0.195-0.189 0.296-0.241 0.086-0.501 0.086-0.745 0.151-0.051 0.084-0.080 0.18-0.115 0.272-0.239 0.059-0.481 0.111-0.712 0.196-0.099 0.063-0.143 0.18-0.208 0.273-0.218 0.071-0.447 0.101-0.667 0.166-0.080 0.077-0.119 0.185-0.194 0.266-0.147 0.075-0.32 0.072-0.47 0.139-0.202 0.081-0.337 0.257-0.484 0.408-0.113 0.004-0.226 0.008-0.339 0.013-0.043 0.091-0.068 0.194-0.134 0.272-0.22 0.088-0.449 0.154-0.675 0.227-0.043 0.094-0.081 0.191-0.136 0.28-0.106 0.127-0.289 0.095-0.434 0.11-0.036 0.083-0.067 0.168-0.093 0.255-0.346 0.067-0.375 0.496-0.684 0.612-0.194 0.091-0.112 0.368-0.216 0.534-0.086 0.027-0.173 0.056-0.259 0.084-0.056 0.47-0.022 0.944-0.030 1.416 0.012 0.383-0.025 0.767 0.023 1.149 0.095 0.001 0.191 0.001 0.287 0.002 0.054 0.15 0.099 0.304 0.13 0.461 0.16 0.016 0.322 0.022 0.479-0.011 0.126 0.008 0.252 0.005 0.379 0.008 0.161 0.005 0.326 0.019 0.484-0.019 0.115-0.095 0.082-0.261 0.101-0.392 0.093-0.067 0.245-0.101 0.263-0.234 0.108-0.503 0.121-1.022 0.234-1.524 0.083-0.034 0.167-0.064 0.247-0.106 0.084-0.105 0.067-0.252 0.091-0.377 0.104-0.032 0.207-0.063 0.31-0.096 0.077-0.243 0.301-0.371 0.54-0.407 0.145-0.139 0.328-0.233 0.459-0.389 0.149-0.011 0.297-0.019 0.446-0.028 0.012-0.047 0.037-0.142 0.050-0.189 0.25-0.186 0.577-0.181 0.856-0.291 0.005-0.048 0.014-0.143 0.019-0.191 0.258-0.176 0.564-0.238 0.873-0.225 0.005-0.082 0.011-0.165 0.016-0.248 0.237-0.082 0.483-0.128 0.719-0.211 0.153-0.033 0.167-0.205 0.219-0.325 0.262-0.033 0.515-0.112 0.776-0.151 0.002-0.054 0.007-0.163 0.009-0.217 0.281-0.115 0.57-0.24 0.874-0.267 0.029-0.098-0.028-0.246 0.063-0.317 0.263-0.030 0.531-0.019 0.793-0.064 0.039-0.099 0.032-0.261 0.163-0.289 0.25-0.055 0.475-0.181 0.714-0.265 0.049-0.116 0.097-0.232 0.145-0.348l0.067-0.001c0.11 0.069 0.241 0.040 0.362 0.030 0.007-0.090 0.015-0.18 0.023-0.269 0.316-0.075 0.605-0.3 0.729-0.603 0.020 0 0.060 0.001 0.080 0.001 0.115-0.014 0.227-0.043 0.338-0.077 0.049-0.149 0.122-0.288 0.187-0.431 0.051-0.108 0.010-0.243 0.081-0.341 0.086-0.053 0.19-0.053 0.287-0.063-0.024-0.478 0.161-0.968 0.010-1.435-0.003-0.043-0.008-0.129-0.010-0.171l0.077-0.003c0.006-0.13 0.004-0.262 0.035-0.389 0.039-0.254 0.352-0.251 0.548-0.304 0.479 0.065 0.964 0.149 1.448 0.107 0.234-0.069 0.223-0.37 0.237-0.568 0.032-0.27-0.14-0.493-0.277-0.706-0.235-0.052-0.319-0.269-0.352-0.482-0.131-0.052-0.263-0.103-0.394-0.153-0.032-0.112-0.062-0.224-0.089-0.337-0.112-0.005-0.225-0.003-0.336 0.010l-0.001-0.058c0.013-0.147 0.003-0.295-0.048-0.435-0.103-0.022-0.206-0.045-0.308-0.067-0.032-0.101-0.055-0.203-0.073-0.307-0.119-0.089-0.243-0.172-0.365-0.256-0.004-0.211-0.153-0.341-0.333-0.421-0.118-0.236-0.269-0.457-0.452-0.647-0.051-0.011-0.154-0.032-0.206-0.043l-0.001-0.040c-0.283-0.006-0.566-0.005-0.849-0.014-0.163 0.017-0.428-0.053-0.497 0.147M5.077 18.88c-0.003 0.119-0.003 0.239 0 0.359 0.333-0.008 0.665-0.001 0.998-0.005 0.006 0.88 0.001 1.76 0.003 2.64 0.132 0 0.263 0 0.395 0 0.002-0.88-0.003-1.76 0.003-2.639 0.335 0 0.671 0.002 1.006-0.001-0.003-0.118-0.005-0.235-0.010-0.352-0.798 0.004-1.597 0.005-2.395-0.001M8.986 18.878c-0.022 0.519-0.003 1.039-0.010 1.559 0.003 0.358-0.026 0.746 0.165 1.066 0.151 0.255 0.442 0.394 0.729 0.42 0.349 0.038 0.748-0.013 0.998-0.283 0.226-0.227 0.263-0.563 0.268-0.867 0.005-0.629-0.001-1.259 0.003-1.888-0.133-0.001-0.265 0-0.398 0.002 0.003 0.632 0.003 1.264 0.001 1.896 0.002 0.217-0.042 0.444-0.173 0.622-0.211 0.215-0.56 0.235-0.83 0.135-0.277-0.104-0.359-0.432-0.363-0.697-0.009-0.652 0-1.305-0.003-1.957-0.129-0.001-0.258-0.003-0.387-0.007M12.99 18.884c-0.005 0.994 0.010 1.988-0.008 2.982 0.134 0.008 0.268 0.010 0.403 0.010 0.003-0.398-0.004-0.796 0.004-1.194 0.151 0.012 0.316-0.026 0.459 0.023 0.328 0.381 0.624 0.787 0.946 1.172 0.17-0.002 0.34-0.002 0.511-0.003-0.352-0.434-0.712-0.863-1.059-1.301 0.134-0.072 0.276-0.139 0.379-0.255 0.345-0.364 0.318-1.075-0.165-1.31-0.458-0.211-0.982-0.092-1.469-0.123M16.83 18.884c0.003 0.998-0.007 1.997 0.005 2.996 0.123-0.004 0.245-0.005 0.368-0.007 0.006-0.85-0.015-1.7 0.011-2.549 0.439 0.849 0.874 1.7 1.308 2.551 0.15 0 0.3 0 0.45-0.004-0.010-0.997 0-1.993-0.005-2.99-0.125 0.001-0.251 0.004-0.376 0.012 0.010 0.769 0.012 1.538-0.001 2.307-0.426-0.757-0.792-1.547-1.195-2.316-0.188 0-0.376 0-0.563 0z"></path>
<path fill="#fffffe" d="M8.947 2.927c0.374-0.146 0.855-0.087 1.127 0.229 0.257 0.301 0.322 0.713 0.325 1.097-0.004 0.379-0.068 0.791-0.332 1.082-0.376 0.433-1.154 0.4-1.484-0.073-0.269-0.368-0.295-0.853-0.258-1.291 0.038-0.413 0.214-0.87 0.622-1.044z"></path>
<path fill="#fffffe" d="M13.387 19.223c0.283 0.011 0.587-0.038 0.848 0.097 0.318 0.218 0.25 0.763-0.063 0.955-0.247 0.106-0.525 0.072-0.786 0.080 0-0.377-0.001-0.754 0.001-1.132z"></path>
<path fill="#0a090a" d="M3.223 0.382l0.103-0.049c0.328-0.069 0.664-0.038 0.996-0.043 5.074-0.003 10.148-0.001 15.221-0.001 0.377 0.001 0.755-0.010 1.132 0.016 0.065 0.064 0.147 0.119 0.171 0.213-0.328-0.134-0.685-0.095-1.030-0.099-5.166 0-10.332 0-15.498 0-0.285 0.003-0.574-0.020-0.856 0.040-0.091 0.032-0.182-0.004-0.24-0.077z"></path>
<path fill="#0a090a" d="M3.118 0.448c0.077 0.043 0.112 0.125 0.156 0.197l-0.086-0.082c-0.252 0.21-0.446 0.488-0.529 0.808-0.025-0.059-0.049-0.118-0.074-0.177 0.104-0.293 0.293-0.551 0.533-0.747z"></path>
<path fill="#0a090a" d="M19.771 0.725c0.37-0.012 0.791-0.041 1.094 0.215 0.193 0.212 0.333 0.486 0.35 0.776 0.025 0.433 0.008 0.867 0.003 1.3 0.001 6.516-0.001 13.031 0.001 19.546-0.010 0.52-0.448 1.016-0.99 0.987-5.371 0.003-10.743 0.001-16.114 0.001-0.327 0.008-0.682-0.029-0.944-0.245-0.211-0.217-0.296-0.525-0.304-0.82 0.003-6.262 0.001-12.524 0.001-18.786-0.021-0.66-0.045-1.323 0.017-1.982 0.058-0.332 0.168-0.713 0.481-0.891 0.254-0.118 0.542-0.089 0.815-0.092 4.229 0.001 8.459 0 12.688 0.001 0.968-0.005 1.935 0.010 2.903-0.010M3.465 1.407c-0.209 0.315-0.136 0.706-0.146 1.061-0.005 1.759 0.015 3.518-0.015 5.277-0.011 4.825 0.027 9.648 0.014 14.473-0.012 0.268 0.031 0.57 0.259 0.744 0.155 0.009 0.311 0.019 0.466 0.019 5.281-0.003 10.561-0.003 15.843-0.001 0.215 0.003 0.428-0.024 0.641-0.045 0.094-0.107 0.227-0.211 0.235-0.364 0.001-6.267 0-12.535 0-18.802 0.002-0.547-0.014-1.095 0.038-1.641 0.029-0.256-0.067-0.503-0.19-0.721-0.098-0.049-0.198-0.104-0.312-0.091-5.395-0.001-10.789 0.001-16.184-0.001-0.219 0.005-0.456-0.038-0.649 0.093M2.982 1.777c-0.008 0.138-0.011 0.276-0.010 0.415 0.010 6.814-0.012 13.629 0.010 20.442 0.025-3.933 0.004-7.867 0.010-11.8-0.005-3.019 0.014-6.038-0.010-9.057M3.776 23.415c0.113 0.006 0.227 0.010 0.341 0.012 3.452 0 6.904 0 10.356 0.001 1.964-0.010 3.929 0.016 5.892-0.014-2.927-0.018-5.855 0.001-8.782-0.007-2.602 0.008-5.205-0.012-7.807 0.008z"></path>
<path fill="#0a090a" d="M2.482 1.58c0.043-0.080 0.088-0.158 0.136-0.233-0.007 0.192-0.029 0.383-0.030 0.575 0.001 6.858 0.001 13.716 0.001 20.573 0.008 0.523 0.274 1.077 0.759 1.311 0.287 0.108 0.601 0.075 0.902 0.080 5.327-0.001 10.655-0.001 15.982 0 0.215-0.009 0.448-0.020 0.63-0.149 0.191-0.108 0.302-0.304 0.456-0.453 0.023 0.007 0.067 0.019 0.090 0.025-0.134 0.273-0.356 0.49-0.616 0.643l-0.060-0.024c-0.024 0.019-0.072 0.055-0.096 0.073h-17.168c-0.097-0.117-0.234-0.209-0.392-0.188-0.32-0.281-0.55-0.687-0.597-1.112 0.001-7.040-0.001-14.080 0.003-21.121z"></path>
<path fill="#0a090a" d="M8.945 2.506c0.494-0.118 1.066-0.024 1.439 0.341 0.354 0.346 0.477 0.859 0.485 1.339 0.010 0.505-0.097 1.051-0.457 1.428-0.43 0.45-1.149 0.525-1.706 0.292-0.47-0.202-0.754-0.688-0.829-1.178-0.082-0.528-0.053-1.099 0.212-1.574 0.178-0.324 0.495-0.565 0.856-0.649M8.947 2.927c-0.408 0.174-0.584 0.632-0.622 1.044-0.037 0.438-0.011 0.924 0.258 1.291 0.33 0.472 1.108 0.505 1.484 0.073 0.264-0.291 0.328-0.703 0.332-1.082-0.003-0.384-0.068-0.796-0.325-1.097-0.272-0.316-0.752-0.375-1.127-0.229z"></path>
<path fill="#0a090a" d="M4.872 2.528c0.22-0.002 0.44-0.003 0.66 0.003 0.453 0.904 0.904 1.808 1.376 2.702 0.003-0.902 0-1.804 0.001-2.707 0.143 0 0.285 0.001 0.428 0.001 0 1.147 0 2.292 0 3.439-0.178 0.002-0.355 0.005-0.532-0.012-0.486-0.989-0.996-1.967-1.504-2.945-0.001 0.985 0 1.971-0.001 2.957-0.143 0-0.286 0-0.429 0 0.001-1.147 0-2.292 0.001-3.438z"></path>
<path fill="#0a090a" d="M6.488 15.582c0.067 0.005 0.132 0.012 0.199 0.017 0.019 0.568 0.056 1.146-0.064 1.706-0.043 0.014-0.128 0.042-0.171 0.056-0.026 0.202-0.17 0.357-0.385 0.315-0.091-0.353-0.091-0.72-0.077-1.081 0.019-0.182 0.059-0.4 0.238-0.492 0.18-0.108 0.2-0.339 0.26-0.52z"></path>
<path fill="#0a090a" d="M5.077 18.88c0.798 0.006 1.597 0.005 2.395 0.001 0.004 0.117 0.006 0.235 0.010 0.352-0.335 0.003-0.671 0.001-1.006 0.001-0.006 0.88-0.001 1.76-0.003 2.639-0.132 0-0.263 0-0.395 0-0.002-0.88 0.003-1.76-0.003-2.64-0.333 0.003-0.666-0.003-0.998 0.005-0.003-0.12-0.003-0.239 0-0.359z"></path>
<path fill="#0a090a" d="M8.986 18.878c0.129 0.003 0.258 0.005 0.387 0.007 0.003 0.652-0.005 1.305 0.003 1.957 0.003 0.265 0.086 0.593 0.363 0.697 0.27 0.1 0.619 0.080 0.83-0.135 0.131-0.178 0.175-0.405 0.173-0.622 0.001-0.632 0.002-1.264-0.001-1.896 0.132-0.002 0.265-0.003 0.398-0.002-0.003 0.629 0.002 1.259-0.003 1.888-0.005 0.304-0.043 0.64-0.268 0.867-0.25 0.27-0.649 0.322-0.998 0.283-0.287-0.026-0.578-0.165-0.729-0.42-0.191-0.32-0.161-0.708-0.165-1.066 0.007-0.52-0.012-1.040 0.010-1.559z"></path>
<path fill="#0a090a" d="M12.99 18.884c0.488 0.032 1.011-0.087 1.469 0.123 0.483 0.235 0.51 0.946 0.165 1.31-0.103 0.116-0.245 0.183-0.379 0.255 0.347 0.438 0.707 0.867 1.059 1.301-0.171 0.001-0.341 0.001-0.511 0.003-0.322-0.385-0.619-0.791-0.946-1.172-0.143-0.049-0.308-0.011-0.459-0.023-0.008 0.398-0.001 0.796-0.004 1.194-0.134 0-0.269-0.001-0.403-0.010 0.018-0.994 0.002-1.988 0.008-2.982M13.387 19.223c-0.001 0.378-0.001 0.755-0.001 1.132 0.261-0.008 0.539 0.025 0.786-0.080 0.313-0.192 0.381-0.737 0.063-0.955-0.261-0.135-0.566-0.086-0.848-0.097z"></path>
<path fill="#0a090a" d="M16.83 18.884c0.187 0 0.375 0 0.563 0 0.403 0.769 0.769 1.559 1.195 2.316 0.014-0.769 0.012-1.538 0.001-2.307 0.125-0.008 0.251-0.010 0.376-0.012 0.005 0.996-0.005 1.993 0.005 2.99-0.15 0.004-0.3 0.004-0.45 0.004-0.434-0.851-0.869-1.702-1.308-2.551-0.026 0.849-0.005 1.699-0.011 2.549-0.123 0.001-0.245 0.003-0.368 0.007-0.012-0.998-0.002-1.997-0.005-2.996z"></path>
<path fill="#272b33" d="M20.907 0.612c-0.010-0.056-0.030-0.168-0.040-0.224 0.337 0.204 0.586 0.551 0.678 0.933-0.058 0.088-0.039 0.152 0.055 0.193v21.428c-0.045 0.091-0.093 0.181-0.144 0.269-0.012-0.039-0.036-0.118-0.049-0.157 0.029-0.187 0.085-0.371 0.086-0.561-0.003-6.906 0-13.812-0.001-20.717-0.016-0.442-0.203-0.917-0.584-1.166z"></path>
<path fill="#272b33" d="M16.291 3.112c0.272 0.001 0.553-0.031 0.812 0.071 0.007 0.112 0.014 0.226 0.021 0.339 0.1 0.010 0.2 0.021 0.3 0.031 0.039 0.148 0.077 0.296 0.114 0.445 0.148 0.046 0.302 0.084 0.459 0.071v0c-0.004 0.125-0.014 0.251-0.019 0.376 0.105-0.005 0.211-0.008 0.316-0.010 0.012 0.001 0.036 0.003 0.048 0.004-0.010 0.145-0.010 0.291-0.004 0.436 0.339 0.101 0.43 0.475 0.706 0.656 0.191 0.142 0.238 0.396 0.339 0.599 0.111 0.053 0.224 0.106 0.335 0.158 0.003 0.092 0.005 0.184 0.009 0.275-0.345 0.115-0.726-0.056-0.986-0.285-0.23-0.008-0.46-0.010-0.69-0.018-0.048 0.113-0.094 0.227-0.14 0.341-0.107 0.043-0.213 0.089-0.32 0.133-0.075 0.424-0.067 0.854-0.073 1.283-0.034 0.417-0.068 0.836-0.15 1.247-0.082 0.030-0.164 0.061-0.245 0.093-0.027 0.116-0.053 0.232-0.080 0.348-0.112 0.050-0.224 0.101-0.335 0.152-0.077 0.214-0.214 0.402-0.454 0.435-0.029 0.085-0.053 0.173-0.091 0.254-0.129 0.059-0.272 0.079-0.408 0.116-0.174 0.342-0.577 0.446-0.93 0.464-0.020 0.095-0.039 0.189-0.058 0.284-0.263 0.056-0.525 0.115-0.788 0.166-0.038 0.104-0.077 0.207-0.115 0.311-0.254 0.072-0.514 0.115-0.774 0.16-0.025 0.090-0.048 0.182-0.086 0.268-0.248 0.093-0.51 0.142-0.764 0.217-0.052 0.128-0.103 0.256-0.152 0.387-0.038-0.005-0.115-0.016-0.154-0.021-0.191-0.038-0.382 0.006-0.571 0.037-0.032 0.106-0.066 0.213-0.099 0.319-0.354 0.023-0.859 0.134-0.9 0.562-0.069-0.005-0.136-0.013-0.204-0.021-0.215-0.038-0.429 0.012-0.64 0.045-0.005 0.080-0.011 0.16-0.016 0.239-0.27 0.044-0.522 0.169-0.799 0.175-0.047 0.381-0.52 0.328-0.671 0.634-0.218 0.125-0.459 0.195-0.695 0.276-0.104 0.109-0.092 0.282-0.128 0.421-0.080 0.007-0.161 0.014-0.241 0.021-0.060 0.381-0.112 0.767-0.075 1.153 0.004 0.18 0.005 0.36-0.001 0.541-0.049 0.127-0.082 0.259-0.104 0.393-0.214 0.033-0.406 0.15-0.619 0.178-0.193-0.026-0.429-0.071-0.555-0.228-0.121-0.451-0.091-0.925-0.086-1.387 0.025-0.413 0.049-0.928 0.464-1.152 0.027-0.132 0.053-0.264 0.080-0.396 0.086-0.023 0.171-0.047 0.258-0.070 0.044-0.127 0.065-0.282 0.186-0.363 0.095-0.042 0.203-0.033 0.304-0.049 0.086-0.126 0.134-0.272 0.149-0.423 0.077 0.001 0.154 0.001 0.232 0.001 0.163-0.010 0.324-0.040 0.485-0.071 0.039-0.104 0.080-0.206 0.121-0.309 0.277-0.012 0.536-0.116 0.784-0.232 0.034-0.086 0.068-0.171 0.103-0.256 0.218-0.008 0.505 0.010 0.568-0.257 0.139-0.025 0.267-0.086 0.303-0.237 0.008-0.015 0.025-0.045 0.033-0.060 0.1-0.004 0.2-0.004 0.3-0.003 0.029-0.116 0.064-0.23 0.097-0.344 0.134-0.002 0.269-0.003 0.404-0.003 0.147 0 0.295 0.006 0.441-0.014 0.073-0.067 0.124-0.153 0.18-0.233 0.273-0.176 0.675-0.095 0.861-0.394 0.154-0.218 0.429-0.256 0.675-0.271 0.141 0.009 0.183-0.144 0.253-0.235 0.221-0.119 0.459-0.202 0.705-0.245 0.089-0.116 0.158-0.27 0.312-0.311 0.189-0.062 0.39-0.070 0.587-0.089 0.035-0.104 0.071-0.207 0.107-0.311 0.268-0.063 0.528-0.156 0.789-0.243 0.030-0.081 0.061-0.162 0.092-0.243 0.17-0.042 0.375-0.043 0.497-0.187 0.104-0.128 0.2-0.262 0.311-0.384 0.075-0.732 0.121-1.483-0.021-2.21-0.158-0.145-0.343-0.256-0.507-0.392-0.095 0.001-0.191 0.003-0.286 0.006-0.229 0.177-0.509 0.274-0.789 0.338-0.204 0.043-0.407-0.020-0.555-0.165 0.091-0.13 0.225-0.211 0.369-0.269 0.021-0.111 0.017-0.231 0.069-0.334 0.087-0.091 0.198-0.156 0.277-0.254 0.105-0.191 0.164-0.402 0.24-0.605 0.101-0.034 0.203-0.069 0.305-0.104 0.023-0.149 0.050-0.298 0.081-0.446 0.087-0.032 0.176-0.063 0.263-0.095 0.131-0.304 0.188-0.71 0.541-0.84 0.029-0.132 0.061-0.262 0.095-0.392M6.488 15.582c-0.060 0.181-0.080 0.412-0.26 0.52-0.179 0.092-0.219 0.31-0.238 0.492-0.014 0.361-0.014 0.728 0.077 1.081 0.215 0.042 0.359-0.113 0.385-0.315 0.043-0.014 0.128-0.041 0.171-0.056 0.121-0.56 0.084-1.138 0.064-1.706-0.067-0.005-0.132-0.012-0.199-0.017z"></path>
<path fill="#737679" d="M21.545 1.321l0.055-0.002v0.195c-0.094-0.041-0.112-0.106-0.055-0.193z"></path>
<path fill="#737679" d="M2.982 1.777c0.024 3.019 0.004 6.038 0.010 9.057-0.005 3.933 0.015 7.867-0.010 11.8-0.022-6.813-0.001-13.628-0.010-20.442-0.001-0.139 0.002-0.277 0.010-0.415z"></path>
<path fill="#737679" d="M16.251 2.624c0.283 0.008 0.566 0.008 0.849 0.014l0.001 0.040c0.004 0.145 0.018 0.289 0.036 0.432 0.102 0.021 0.204 0.043 0.307 0.065 0.028 0.11 0.058 0.219 0.088 0.328 0.23 0.107 0.452 0.29 0.465 0.565-0.157 0.013-0.311-0.025-0.459-0.071-0.036-0.149-0.075-0.297-0.114-0.445-0.1-0.010-0.2-0.021-0.3-0.031-0.008-0.113-0.014-0.226-0.021-0.339-0.259-0.101-0.54-0.069-0.812-0.071-0.034 0.13-0.066 0.261-0.095 0.392-0.353 0.13-0.41 0.536-0.541 0.84-0.088 0.032-0.176 0.064-0.263 0.095-0.031 0.148-0.058 0.297-0.081 0.446-0.102 0.034-0.204 0.069-0.305 0.104-0.076 0.203-0.135 0.413-0.24 0.605-0.079 0.098-0.19 0.163-0.277 0.254-0.051 0.103-0.048 0.223-0.069 0.334-0.144 0.058-0.278 0.139-0.369 0.269 0.148 0.145 0.35 0.207 0.555 0.165 0.279-0.064 0.56-0.161 0.789-0.338 0.095-0.003 0.191-0.005 0.286-0.006 0.165 0.136 0.35 0.247 0.507 0.392 0.142 0.727 0.096 1.478 0.021 2.21-0.111 0.122-0.206 0.256-0.311 0.384-0.122 0.144-0.327 0.145-0.497 0.187-0.031 0.081-0.062 0.162-0.092 0.243-0.261 0.087-0.521 0.18-0.789 0.243-0.036 0.104-0.072 0.207-0.107 0.311-0.197 0.019-0.398 0.027-0.587 0.089-0.154 0.040-0.223 0.195-0.312 0.311-0.246 0.043-0.484 0.126-0.705 0.245-0.070 0.091-0.112 0.243-0.253 0.235-0.246 0.014-0.521 0.053-0.675 0.271-0.186 0.3-0.588 0.218-0.861 0.394-0.056 0.080-0.107 0.167-0.18 0.233-0.146 0.020-0.294 0.014-0.441 0.014 0.021-0.088 0.042-0.177 0.063-0.265 0.259-0.138 0.535-0.241 0.823-0.298 0.132-0.143 0.264-0.318 0.47-0.349 0.147-0.047 0.346 0.001 0.44-0.149 0.171-0.234 0.47-0.278 0.721-0.382 0.122-0.032 0.152-0.167 0.211-0.262 0.253-0.047 0.506-0.097 0.756-0.158 0.058-0.108 0.069-0.274 0.202-0.32 0.225-0.077 0.457-0.125 0.679-0.211 0.043-0.078 0.068-0.169 0.131-0.233 0.132-0.047 0.276-0.045 0.414-0.060 0.024-0.248 0.23-0.352 0.411-0.477 0.081-0.167 0.094-0.358 0.183-0.522 0.189-0.328 0.099-0.72 0.102-1.079-0.148-0.163-0.235-0.365-0.291-0.575-0.393-0.018-0.785 0.017-1.173 0.081-0.105 0.247-0.372 0.199-0.59 0.196-0.14-0.365-0.031-0.745 0.093-1.097 0.107-0.036 0.214-0.071 0.322-0.106 0.051-0.155 0.063-0.322 0.124-0.473 0.079-0.049 0.176-0.048 0.265-0.070 0.062-0.337 0.191-0.734 0.555-0.846 0.010-0.124 0.018-0.248 0.027-0.372 0.106-0.005 0.213-0.010 0.32-0.014 0.008-0.152 0.016-0.305 0.043-0.455l0.001-0.001c0.049-0.11 0.097-0.222 0.139-0.335 0.102-0.036 0.205-0.069 0.309-0.102 0.046-0.156 0.081-0.313 0.106-0.473z"></path>
<path fill="#737679" d="M17.997 4.068c0.084 0.026 0.217-0.009 0.262 0.091 0.016 0.091 0.028 0.182 0.035 0.275-0.106 0.001-0.211 0.005-0.316 0.010 0.005-0.125 0.015-0.25 0.019-0.376z"></path>
<path fill="#737679" d="M18.341 4.438c0.13 0.101 0.204 0.252 0.281 0.394 0.088 0.006 0.176 0.012 0.263 0.019l0.001 0.058c0 0.106 0.003 0.213 0.005 0.318 0.121 0.041 0.259 0.058 0.361 0.141 0.043 0.12 0.062 0.248 0.109 0.366 0.105 0.058 0.229 0.063 0.341 0.106 0.041 0.12 0.059 0.246 0.082 0.371 0.089 0.027 0.178 0.053 0.268 0.078 0.014 0.132 0.014 0.264 0.007 0.396-0.645 0.184-1.31-0.091-1.965 0.021-0.017 0.021-0.052 0.061-0.069 0.082-0.053 0.313-0.045 0.633-0.036 0.949 0.002 0.043 0.007 0.129 0.010 0.171-0.101 0.145-0.143 0.317-0.154 0.491-0.307 0.346-0.322 0.839-0.355 1.277-0.125 0.032-0.249 0.065-0.374 0.099-0.010 0.16-0.017 0.32-0.021 0.48-0.020-0.001-0.060-0.001-0.080-0.001-0.126-0.003-0.252 0.003-0.377 0.010-0.011 0.106-0.021 0.211-0.032 0.317-0.119 0.033-0.239 0.067-0.357 0.101-0.106 0.147-0.219 0.288-0.348 0.415l-0.067 0.001c-0.171 0.008-0.34 0.032-0.509 0.056-0.058 0.097-0.102 0.206-0.186 0.283-0.183 0.111-0.404 0.122-0.61 0.155-0.102 0.13-0.208 0.257-0.318 0.381-0.21 0.034-0.42 0.063-0.631 0.088-0.028 0.109-0.061 0.217-0.099 0.323-0.25 0-0.49 0.081-0.713 0.187-0.090 0.080-0.132 0.198-0.194 0.299-0.162 0.021-0.324 0.041-0.488 0.049 0.049-0.13 0.099-0.259 0.152-0.387 0.254-0.075 0.516-0.123 0.764-0.217 0.038-0.086 0.060-0.178 0.086-0.268 0.26-0.045 0.52-0.088 0.774-0.16 0.038-0.104 0.076-0.207 0.115-0.311 0.263-0.051 0.525-0.11 0.788-0.166 0.019-0.095 0.038-0.189 0.058-0.284 0.353-0.017 0.756-0.121 0.93-0.464 0.136-0.037 0.279-0.057 0.408-0.116 0.038-0.082 0.062-0.169 0.091-0.254 0.24-0.034 0.377-0.221 0.454-0.435 0.111-0.051 0.223-0.102 0.335-0.152 0.027-0.116 0.053-0.232 0.080-0.348 0.082-0.032 0.163-0.062 0.245-0.093 0.082-0.411 0.116-0.83 0.15-1.247 0.005-0.429-0.003-0.859 0.073-1.283 0.107-0.044 0.213-0.090 0.32-0.133 0.046-0.114 0.092-0.228 0.14-0.341 0.23 0.008 0.46 0.010 0.69 0.018 0.26 0.23 0.641 0.4 0.986 0.285-0.003-0.091-0.006-0.183-0.009-0.275-0.112-0.053-0.224-0.105-0.335-0.158-0.101-0.203-0.147-0.457-0.339-0.599-0.276-0.181-0.367-0.555-0.706-0.656-0.006-0.145-0.006-0.291 0.004-0.436z"></path>
<path fill="#737679" d="M8.615 12.852c0.239-0.269 0.571-0.492 0.949-0.409-0.036 0.151-0.164 0.213-0.303 0.237-0.064 0.267-0.35 0.249-0.568 0.257-0.035 0.085-0.069 0.17-0.103 0.256-0.248 0.116-0.507 0.219-0.784 0.232-0.041 0.102-0.082 0.205-0.121 0.309-0.16 0.031-0.322 0.062-0.485 0.071 0.037-0.137 0.033-0.315 0.169-0.398 0.229-0.083 0.466-0.147 0.694-0.233 0.028-0.079 0.057-0.158 0.085-0.237 0.156-0.030 0.311-0.058 0.467-0.085z"></path>
<path fill="#737679" d="M11.364 12.933c0.189-0.031 0.38-0.075 0.571-0.037-0.067 0.122-0.129 0.245-0.19 0.37-0.262 0.066-0.525 0.133-0.773 0.239-0.037 0.081-0.074 0.163-0.111 0.244-0.164 0.029-0.329 0.054-0.496 0.064 0.041-0.428 0.547-0.539 0.9-0.562 0.034-0.106 0.067-0.213 0.099-0.319z"></path>
<path fill="#737679" d="M6.646 13.837c0.104-0.035 0.214-0.030 0.322-0.034-0.015 0.152-0.062 0.297-0.149 0.423-0.101 0.016-0.209 0.007-0.304 0.049-0.121 0.081-0.142 0.236-0.186 0.363-0.086 0.023-0.172 0.047-0.258 0.070-0.026 0.132-0.052 0.264-0.080 0.396-0.414 0.224-0.438 0.739-0.464 1.152-0.005 0.462-0.035 0.937 0.086 1.387 0.127 0.156 0.362 0.202 0.555 0.228 0.213-0.027 0.405-0.145 0.619-0.178 0.022-0.134 0.056-0.266 0.104-0.393 0.014 0.178 0.014 0.358-0.014 0.536-0.239 0.049-0.416 0.211-0.507 0.435-0.126-0.002-0.252 0-0.379-0.008-0.115-0.029-0.243-0.046-0.338-0.123-0.155-0.218-0.211-0.49-0.228-0.753-0.106-0.045-0.232-0.065-0.309-0.159-0.025-0.372-0.014-0.746-0.011-1.119-0.028-0.132 0.125-0.154 0.207-0.198 0.092-0.197 0.178-0.4 0.197-0.619 0.034-0.293 0.267-0.507 0.485-0.682 0.009-0.093 0.018-0.185 0.027-0.278 0.11-0.032 0.23-0.047 0.328-0.109 0.116-0.113 0.174-0.273 0.292-0.385z"></path>
<path fill="#737679" d="M9.52 13.838c0.212-0.034 0.426-0.084 0.64-0.045-0.060 0.124-0.116 0.256-0.211 0.359-0.246 0.107-0.518 0.141-0.768 0.241-0.034 0.085-0.067 0.17-0.101 0.255-0.134 0.021-0.269 0.043-0.403 0.067-0.171 0.313-0.543 0.455-0.882 0.493-0.025 0.106-0.050 0.212-0.075 0.318-0.111 0.025-0.222 0.050-0.333 0.076-0.048 0.193-0.091 0.39-0.182 0.568-0.099 0.2-0.256 0.368-0.311 0.588-0.037-0.387 0.015-0.772 0.075-1.153 0.080-0.007 0.161-0.014 0.241-0.021 0.036-0.139 0.024-0.312 0.128-0.421 0.236-0.082 0.477-0.151 0.695-0.276 0.151-0.306 0.623-0.253 0.671-0.634 0.277-0.005 0.529-0.131 0.799-0.175 0.005-0.080 0.011-0.16 0.016-0.239z"></path>
<path fill="#737679" d="M3.776 23.415c2.602-0.020 5.205 0 7.807-0.008 2.927 0.008 5.855-0.011 8.782 0.007-1.963 0.029-3.928 0.003-5.892 0.014-3.452-0.001-6.904-0.001-10.356-0.001-0.114-0.001-0.228-0.005-0.341-0.012z"></path>
<path fill="#737679" d="M3.076 23.812c0.158-0.021 0.296 0.071 0.392 0.188h-0.155c-0.088-0.051-0.165-0.117-0.237-0.188z"></path>
<path fill="#737679" d="M20.636 24c0.024-0.019 0.072-0.055 0.096-0.073l0.060 0.024-0.029 0.049h-0.127z"></path>
<path fill="#c9cbcd" d="M15.754 2.77c0.069-0.2 0.335-0.13 0.497-0.147-0.025 0.16-0.060 0.317-0.106 0.473-0.104 0.033-0.206 0.067-0.309 0.102-0.042 0.113-0.089 0.225-0.139 0.335-0.076-0.253 0.012-0.514 0.056-0.764z"></path>
<path fill="#c9cbcd" d="M17.101 2.677c0.051 0.011 0.154 0.032 0.206 0.043 0.182 0.189 0.334 0.411 0.452 0.647 0.18 0.080 0.329 0.21 0.333 0.421 0.123 0.084 0.246 0.167 0.365 0.256 0.018 0.104 0.041 0.206 0.073 0.307 0.102 0.022 0.205 0.045 0.308 0.067 0.051 0.14 0.061 0.287 0.048 0.435-0.088-0.007-0.176-0.013-0.263-0.019-0.077-0.143-0.151-0.293-0.281-0.394-0.012-0.001-0.036-0.003-0.048-0.004-0.007-0.093-0.019-0.184-0.035-0.275-0.045-0.1-0.178-0.065-0.262-0.091v0c-0.013-0.275-0.235-0.458-0.465-0.565-0.030-0.11-0.060-0.219-0.088-0.328-0.102-0.022-0.204-0.044-0.307-0.065-0.019-0.143-0.032-0.287-0.036-0.432z"></path>
<path fill="#c9cbcd" d="M15.326 3.601c0.116-0.057 0.241-0.119 0.371-0.065-0.027 0.15-0.036 0.303-0.043 0.455-0.106 0.005-0.213 0.009-0.32 0.014-0.009 0.124-0.017 0.248-0.027 0.372-0.364 0.112-0.493 0.509-0.555 0.846-0.088 0.022-0.186 0.021-0.265 0.070-0.061 0.152-0.073 0.318-0.124 0.473-0.108 0.035-0.215 0.070-0.322 0.106-0.123 0.352-0.232 0.732-0.093 1.097 0.219 0.003 0.485 0.051 0.59-0.196 0.387-0.064 0.78-0.099 1.173-0.081 0.056 0.211 0.143 0.413 0.291 0.575-0.003 0.359 0.086 0.751-0.102 1.079-0.089 0.164-0.102 0.355-0.183 0.522-0.181 0.125-0.387 0.229-0.411 0.477-0.139 0.015-0.282 0.012-0.414 0.060-0.063 0.064-0.088 0.155-0.131 0.233-0.221 0.086-0.454 0.134-0.679 0.211-0.132 0.045-0.143 0.211-0.202 0.32-0.25 0.061-0.503 0.11-0.756 0.158-0.059 0.095-0.088 0.23-0.211 0.262-0.25 0.104-0.55 0.148-0.721 0.382-0.095 0.149-0.293 0.101-0.44 0.149-0.206 0.031-0.338 0.206-0.47 0.349-0.288 0.057-0.564 0.16-0.823 0.298-0.021 0.088-0.042 0.176-0.063 0.265-0.135-0.001-0.269 0.001-0.404 0.003-0.034 0.114-0.068 0.228-0.097 0.344-0.1-0.001-0.2-0.001-0.3 0.003-0.008 0.015-0.025 0.045-0.033 0.060-0.378-0.082-0.71 0.14-0.949 0.409-0.156 0.027-0.311 0.055-0.467 0.085-0.028 0.079-0.057 0.158-0.085 0.237-0.228 0.086-0.465 0.15-0.694 0.233-0.136 0.083-0.132 0.261-0.169 0.398-0.077-0.001-0.155-0.001-0.232-0.001-0.108 0.004-0.218-0.001-0.322 0.034-0.118 0.112-0.176 0.272-0.292 0.385-0.099 0.062-0.218 0.077-0.328 0.109-0.009 0.093-0.018 0.185-0.027 0.278-0.217 0.175-0.451 0.389-0.485 0.682-0.020 0.219-0.106 0.422-0.197 0.619-0.082 0.045-0.235 0.067-0.207 0.198-0.003 0.373-0.014 0.747 0.011 1.119 0.076 0.094 0.202 0.115 0.309 0.159 0.016 0.263 0.073 0.535 0.228 0.753 0.095 0.077 0.223 0.094 0.338 0.123-0.158 0.033-0.32 0.027-0.479 0.011-0.032-0.157-0.076-0.311-0.13-0.461-0.096-0.001-0.192-0.001-0.287-0.002-0.048-0.382-0.010-0.767-0.023-1.149 0.008-0.472-0.025-0.946 0.030-1.416 0.086-0.029 0.173-0.058 0.259-0.084 0.104-0.166 0.022-0.444 0.216-0.534 0.309-0.116 0.337-0.545 0.684-0.612 0.026-0.087 0.056-0.172 0.093-0.255 0.145-0.015 0.328 0.017 0.434-0.11 0.056-0.088 0.093-0.186 0.136-0.28 0.226-0.073 0.455-0.139 0.675-0.227 0.067-0.077 0.091-0.181 0.134-0.272 0.113-0.005 0.226-0.009 0.339-0.013 0.147-0.151 0.282-0.327 0.484-0.408 0.15-0.067 0.323-0.063 0.47-0.139 0.075-0.081 0.115-0.189 0.194-0.266 0.219-0.065 0.448-0.095 0.667-0.166 0.064-0.093 0.109-0.21 0.208-0.273 0.231-0.085 0.472-0.137 0.712-0.196 0.034-0.093 0.063-0.188 0.115-0.272 0.245-0.065 0.504-0.065 0.745-0.151 0.057-0.101 0.083-0.235 0.189-0.296 0.234-0.060 0.466-0.126 0.701-0.178 0.039-0.083 0.078-0.165 0.118-0.247 0.244-0.020 0.477-0.105 0.706-0.185 0.122-0.087 0.157-0.275 0.32-0.309 0.226-0.093 0.48-0.057 0.71-0.136 0.014-0.099-0.007-0.228 0.11-0.272 0.081-0.010 0.163-0.016 0.245-0.021 0.19-0.396 0.712-0.47 0.889-0.867 0.064-0.416 0.068-0.843 0.014-1.262-0.010-0.078-0.073-0.133-0.112-0.197-0.232 0.077-0.477 0.060-0.717 0.091-0.396 0.075-0.802 0.068-1.201 0.043-0.075-0.051-0.169-0.125-0.158-0.227 0.001-0.237-0.047-0.499 0.071-0.716 0.102-0.062 0.219-0.094 0.33-0.134-0.038-0.376 0.199-0.709 0.53-0.863 0.008-0.106 0.013-0.213 0.021-0.32 0.11-0.003 0.221-0.006 0.331-0.008 0.048-0.169-0.019-0.433 0.173-0.519 0.204-0.056 0.208-0.311 0.361-0.433 0.010-0.11 0.019-0.221 0.026-0.332z"></path>
<path fill="#c9cbcd" d="M18.887 4.909c0.111-0.012 0.224-0.015 0.336-0.010 0.027 0.113 0.058 0.226 0.089 0.337 0.132 0.050 0.263 0.101 0.394 0.153 0.034 0.213 0.118 0.43 0.352 0.482 0.137 0.213 0.309 0.436 0.277 0.706-0.014 0.199-0.003 0.499-0.237 0.568-0.484 0.042-0.97-0.042-1.448-0.107-0.195 0.053-0.509 0.050-0.548 0.304-0.031 0.127-0.029 0.259-0.035 0.389l-0.077 0.003c-0.009-0.316-0.017-0.636 0.036-0.949 0.017-0.021 0.052-0.061 0.069-0.082 0.655-0.112 1.32 0.164 1.965-0.021 0.007-0.132 0.007-0.264-0.007-0.396-0.090-0.025-0.179-0.051-0.268-0.078-0.023-0.125-0.041-0.251-0.082-0.371-0.112-0.043-0.236-0.047-0.341-0.106-0.047-0.118-0.066-0.246-0.109-0.366-0.103-0.083-0.24-0.1-0.361-0.141-0.003-0.106-0.005-0.212-0.005-0.318z"></path>
<path fill="#c9cbcd" d="M17.846 8.399c0.010-0.174 0.052-0.346 0.154-0.491 0.152 0.466-0.034 0.957-0.010 1.435-0.097 0.010-0.202 0.010-0.287 0.063-0.071 0.098-0.030 0.234-0.081 0.341-0.065 0.143-0.139 0.281-0.187 0.431-0.111 0.034-0.224 0.063-0.338 0.077 0.003-0.16 0.011-0.32 0.021-0.48 0.125-0.034 0.249-0.067 0.374-0.099 0.033-0.437 0.049-0.931 0.355-1.277z"></path>
<path fill="#c9cbcd" d="M16.64 10.263c0.125-0.007 0.251-0.013 0.377-0.010-0.124 0.303-0.413 0.528-0.729 0.603-0.008 0.090-0.016 0.18-0.023 0.269-0.121 0.010-0.252 0.038-0.362-0.030 0.129-0.127 0.243-0.267 0.348-0.415 0.119-0.034 0.238-0.068 0.357-0.101 0.011-0.106 0.021-0.211 0.032-0.317z"></path>
<path fill="#c9cbcd" d="M15.326 11.152c0.169-0.024 0.339-0.048 0.509-0.056-0.048 0.116-0.096 0.232-0.145 0.348-0.239 0.084-0.464 0.211-0.714 0.265-0.131 0.028-0.123 0.191-0.163 0.289-0.263 0.045-0.53 0.034-0.793 0.064-0.091 0.071-0.034 0.219-0.063 0.317-0.304 0.027-0.593 0.153-0.874 0.267-0.002 0.054-0.007 0.163-0.009 0.217-0.261 0.038-0.514 0.118-0.776 0.151-0.051 0.12-0.066 0.292-0.219 0.325-0.236 0.084-0.483 0.129-0.719 0.211-0.005 0.082-0.011 0.165-0.016 0.248-0.309-0.013-0.615 0.049-0.873 0.225-0.004 0.048-0.014 0.143-0.019 0.191-0.279 0.11-0.606 0.106-0.856 0.291-0.013 0.047-0.038 0.142-0.050 0.189-0.149 0.009-0.297 0.017-0.446 0.028-0.13 0.156-0.313 0.25-0.459 0.389-0.239 0.036-0.463 0.165-0.54 0.407-0.103 0.033-0.206 0.064-0.31 0.096-0.025 0.125-0.007 0.272-0.091 0.377-0.080 0.042-0.164 0.072-0.247 0.106-0.112 0.502-0.125 1.020-0.234 1.524-0.018 0.132-0.17 0.167-0.263 0.234-0.019 0.131 0.014 0.296-0.101 0.392-0.158 0.038-0.323 0.025-0.484 0.019 0.091-0.224 0.268-0.385 0.507-0.435 0.027-0.178 0.027-0.357 0.014-0.536 0.005-0.181 0.005-0.361 0.001-0.541 0.055-0.22 0.213-0.389 0.311-0.588 0.092-0.178 0.134-0.376 0.182-0.568 0.111-0.026 0.222-0.051 0.333-0.076 0.025-0.106 0.050-0.213 0.075-0.318 0.339-0.038 0.71-0.18 0.882-0.493 0.134-0.024 0.268-0.046 0.403-0.067 0.034-0.085 0.067-0.17 0.101-0.255 0.25-0.1 0.522-0.134 0.768-0.241 0.095-0.103 0.15-0.235 0.211-0.359 0.068 0.008 0.136 0.015 0.204 0.021 0.167-0.010 0.332-0.035 0.496-0.064 0.037-0.082 0.074-0.163 0.111-0.244 0.249-0.106 0.512-0.173 0.773-0.239 0.061-0.125 0.123-0.248 0.19-0.37 0.038 0.005 0.115 0.016 0.154 0.021 0.163-0.008 0.326-0.027 0.488-0.049 0.062-0.101 0.104-0.219 0.194-0.299 0.223-0.106 0.463-0.187 0.713-0.187 0.038-0.106 0.071-0.214 0.099-0.323 0.211-0.025 0.421-0.053 0.631-0.088 0.11-0.123 0.216-0.25 0.318-0.381 0.206-0.033 0.427-0.044 0.61-0.155 0.084-0.077 0.128-0.187 0.186-0.283z"></path>
</svg>
