<!-- Generated by IcoMoon.io -->
<svg version="1.1" xmlns="http://www.w3.org/2000/svg" width="24" height="24" viewBox="0 0 24 24">
<title>regulatory--night-speed-limit-35--g1</title>
<path fill="#fff" d="M0.913 0h22.172c0.447 0.1 0.814 0.467 0.915 0.915v22.167c-0.099 0.449-0.467 0.816-0.915 0.918h-22.169c-0.448-0.1-0.814-0.466-0.917-0.912v-22.173c0.101-0.447 0.466-0.812 0.913-0.915M1.566 0.587c-0.558 0.060-1.006 0.584-0.99 1.143-0.001 6.847-0.001 13.693 0 20.54-0.021 0.62 0.534 1.176 1.155 1.155 6.847 0.001 13.693 0.001 20.54 0 0.621 0.021 1.175-0.534 1.155-1.155 0.001-6.847 0.001-13.693 0-20.54 0.021-0.621-0.534-1.176-1.155-1.155-6.72-0.001-13.44-0-20.16-0-0.181 0.002-0.363-0.009-0.544 0.012z"></path>
<path fill="#fff" d="M10.478 4.005c0.514-0.678 1.703-0.592 2.082 0.185-0.167 0.098-0.335 0.196-0.504 0.291-0.201-0.404-0.788-0.525-1.099-0.181-0.375 0.476-0.378 1.236 0 1.71 0.331 0.393 1.109 0.193 1.073-0.368-0.18-0.001-0.361 0-0.541-0.003-0.001-0.175-0.001-0.35-0.001-0.525 0.372-0 0.743 0.003 1.116-0.002-0.002 0.413 0.037 0.869-0.228 1.22-0.473 0.644-1.582 0.549-1.993-0.118-0.406-0.662-0.386-1.589 0.095-2.208z"></path>
<path fill="#fff" d="M4.662 3.614c0.181 0.001 0.362 0.001 0.543 0 0.439 0.683 0.891 1.359 1.318 2.050-0.006-0.683 0.002-1.367-0.004-2.051 0.186 0.003 0.372 0.003 0.558-0-0.005 1.035-0.002 2.071-0.001 3.106-0.168 0-0.336 0-0.503 0-0.452-0.701-0.925-1.389-1.358-2.102 0.016 0.7 0.004 1.401 0.007 2.101-0.186 0.001-0.372 0.001-0.558-0-0.002-1.035 0-2.070-0.001-3.104z"></path>
<path fill="#fff" d="M8.351 3.615c0.191 0 0.382 0 0.572 0-0.002 1.035 0 2.069-0.001 3.104-0.19 0.001-0.38 0.002-0.57-0.002-0.002-1.034-0.001-2.068-0-3.102z"></path>
<path fill="#fff" d="M13.74 3.612c0.188 0.004 0.375 0.003 0.563 0 0.002 0.413-0 0.827 0.001 1.24 0.435 0 0.87 0 1.305-0 0.014-0.412 0.030-0.828-0.010-1.239 0.188 0.001 0.377 0.001 0.566 0 0 1.034 0.001 2.068-0 3.102-0.183 0.004-0.366 0.002-0.548 0.003 0.009-0.44 0-0.879 0.006-1.319-0.439-0.030-0.879-0.007-1.318-0.013-0.002 0.443 0.001 0.887-0.001 1.331-0.187 0.001-0.374 0.001-0.561 0 0-1.035 0.004-2.071-0.002-3.106z"></path>
<path fill="#fff" d="M17.215 3.598c0.767-0.002 1.534-0.001 2.301 0 0.001 0.18 0.001 0.361 0 0.542-0.288 0.001-0.577-0-0.865 0.001-0.001 0.859 0 1.718-0 2.577-0.188 0.002-0.375 0.001-0.563 0-0.001-0.859 0-1.718-0.001-2.577-0.291-0.001-0.581 0.001-0.871-0.001-0.001-0.18-0.002-0.361 0-0.542z"></path>
<path fill="#fff" d="M5.112 9.755c1.341-0.646 3.112-0.539 4.233 0.495 0.848 0.764 1.141 2.052 0.74 3.116-0.202 0.556-0.619 1.018-1.127 1.314 0.746 0.309 1.375 0.939 1.585 1.731 0.245 0.984 0.037 2.101-0.615 2.89-0.541 0.652-1.357 1.021-2.181 1.152-1.030 0.162-2.141 0.052-3.049-0.491-0.755-0.443-1.316-1.17-1.634-1.979 0.577-0.232 1.154-0.462 1.732-0.692 0.222 0.476 0.561 0.917 1.031 1.167 0.677 0.351 1.54 0.351 2.211-0.015 0.843-0.462 0.915-1.792 0.196-2.396-0.641-0.529-1.522-0.376-2.29-0.401-0-0.601-0.001-1.203 0-1.805 0.379-0.009 0.759 0.008 1.138-0.009 0.471-0.029 0.948-0.29 1.141-0.735 0.257-0.594 0.101-1.417-0.5-1.742-0.524-0.269-1.183-0.258-1.709 0.001-0.382 0.193-0.655 0.54-0.855 0.909-0.577-0.224-1.154-0.445-1.73-0.669 0.324-0.784 0.917-1.465 1.683-1.841z"></path>
<path fill="#fff" d="M13.879 9.563c2.049 0 4.099-0.001 6.148 0 0 0.606 0 1.212 0 1.818-1.467 0.001-2.933-0-4.4 0.001-0.055 0.745-0.108 1.491-0.161 2.236 1.414-0.749 3.404-0.551 4.451 0.729 0.939 1.179 1.024 2.934 0.322 4.249-0.401 0.74-1.089 1.303-1.87 1.605-0.887 0.35-1.868 0.381-2.803 0.251-0.838-0.122-1.673-0.414-2.326-0.966 0.353-0.496 0.71-0.99 1.069-1.482 0.975 0.695 2.331 0.96 3.445 0.457 1.15-0.516 1.418-2.297 0.467-3.119-0.848-0.617-2.14-0.393-2.812 0.39-0.619-0.262-1.24-0.52-1.858-0.785 0.113-1.794 0.21-3.59 0.329-5.384z"></path>
<path fill="#000" d="M1.566 0.587c0.18-0.022 0.363-0.010 0.544-0.012 6.72 0 13.44-0.001 20.16 0 0.621-0.022 1.175 0.534 1.155 1.155 0.001 6.847 0.001 13.693 0 20.54 0.021 0.62-0.534 1.175-1.155 1.155-6.847 0.001-13.693 0.001-20.54 0-0.621 0.021-1.176-0.534-1.155-1.155-0.001-6.847-0.001-13.693 0-20.54-0.016-0.559 0.433-1.083 0.99-1.143M10.478 4.005c-0.481 0.62-0.501 1.546-0.095 2.208 0.411 0.667 1.521 0.762 1.993 0.118 0.264-0.351 0.225-0.806 0.228-1.22-0.372 0.005-0.744 0.002-1.116 0.002-0 0.175-0 0.35 0.001 0.525 0.18 0.003 0.36 0.002 0.541 0.003 0.035 0.562-0.742 0.762-1.073 0.368-0.378-0.474-0.375-1.234 0-1.71 0.311-0.345 0.898-0.223 1.099 0.181 0.169-0.094 0.337-0.193 0.504-0.291-0.38-0.777-1.568-0.863-2.082-0.185M4.662 3.614c0.001 1.035-0.001 2.070 0.001 3.104 0.186 0.002 0.372 0.001 0.558 0-0.003-0.7 0.009-1.401-0.007-2.101 0.433 0.713 0.906 1.401 1.357 2.102 0.168 0 0.336 0 0.503 0-0-1.035-0.004-2.071 0.001-3.106-0.186 0.004-0.372 0.003-0.558 0 0.006 0.683-0.001 1.367 0.004 2.051-0.427-0.691-0.878-1.366-1.318-2.050-0.181 0.001-0.362 0.001-0.543 0M8.351 3.615c-0 1.034-0.001 2.068 0 3.102 0.19 0.004 0.38 0.003 0.57 0.002 0.002-1.035-0-2.069 0.001-3.104-0.191 0-0.382 0-0.572 0M13.74 3.612c0.006 1.035 0.002 2.071 0.002 3.106 0.187 0 0.374 0 0.561-0 0.002-0.443-0-0.887 0.001-1.331 0.439 0.006 0.879-0.016 1.318 0.013-0.006 0.44 0.004 0.879-0.006 1.319 0.183-0.001 0.366 0 0.548-0.003 0.002-1.034 0.001-2.068 0-3.102-0.189 0-0.378 0.001-0.566-0 0.039 0.411 0.024 0.827 0.010 1.239-0.435 0.001-0.87 0-1.305 0-0.002-0.413 0.001-0.827-0.001-1.24-0.188 0.003-0.375 0.003-0.563-0M17.215 3.598c-0.002 0.181-0.002 0.361-0 0.542 0.29 0.003 0.581 0 0.871 0.001 0.001 0.859-0 1.718 0.001 2.577 0.188 0.001 0.375 0.001 0.563-0 0.001-0.859-0.001-1.718 0-2.577 0.288-0.001 0.577 0 0.865-0.001 0.001-0.181 0.001-0.362 0-0.542-0.767-0.001-1.534-0.002-2.301 0M5.112 9.755c-0.766 0.376-1.359 1.057-1.683 1.841 0.576 0.224 1.154 0.446 1.73 0.669 0.2-0.369 0.473-0.717 0.855-0.909 0.526-0.26 1.185-0.27 1.709-0.001 0.601 0.325 0.757 1.148 0.5 1.742-0.193 0.445-0.67 0.707-1.141 0.735-0.379 0.017-0.759 0-1.138 0.009-0.002 0.601-0.001 1.203-0 1.805 0.768 0.025 1.649-0.128 2.29 0.401 0.718 0.604 0.646 1.934-0.196 2.396-0.671 0.365-1.534 0.366-2.211 0.015-0.471-0.25-0.809-0.691-1.031-1.167-0.578 0.23-1.155 0.461-1.732 0.692 0.317 0.809 0.879 1.536 1.634 1.979 0.908 0.543 2.019 0.653 3.049 0.491 0.825-0.131 1.64-0.5 2.181-1.152 0.653-0.788 0.86-1.905 0.615-2.89-0.21-0.792-0.839-1.422-1.585-1.731 0.509-0.296 0.925-0.758 1.127-1.314 0.401-1.064 0.108-2.352-0.74-3.116-1.121-1.034-2.893-1.141-4.233-0.495M13.879 9.563c-0.119 1.794-0.216 3.59-0.329 5.384 0.617 0.265 1.238 0.523 1.858 0.785 0.672-0.783 1.964-1.007 2.812-0.39 0.951 0.822 0.683 2.602-0.467 3.119-1.115 0.504-2.47 0.239-3.445-0.457-0.359 0.492-0.716 0.986-1.069 1.482 0.653 0.552 1.489 0.844 2.326 0.966 0.935 0.13 1.916 0.099 2.803-0.251 0.781-0.301 1.469-0.864 1.87-1.605 0.702-1.315 0.617-3.069-0.322-4.249-1.047-1.28-3.037-1.477-4.451-0.729 0.053-0.746 0.106-1.491 0.161-2.236 1.467-0.001 2.933 0 4.4-0.001 0-0.606 0-1.212 0-1.818-2.049-0.001-4.099 0-6.148-0z"></path>
</svg>
