<svg xmlns="http://www.w3.org/2000/svg" width="24" height="24">
    <path fill="#ec1d24" d="M10.988 0h1.991c4.021.38 7.796 2.815 9.642 6.432.866 1.622 1.295 3.45 1.379 5.281v.568c-.094 4.64-3.096 9.053-7.406 10.789-1.295.552-2.688.809-4.085.93h-.794c-3.217-.102-6.379-1.502-8.546-3.892C1.353 18.172.308 15.619.001 13.002v-1.984c.164-.988.307-1.986.652-2.932C1.902 4.398 5.059 1.415 8.831.425c.706-.209 1.44-.281 2.159-.426zm-.141 2.456c-3.409.371-6.494 2.74-7.752 5.926-1.108 2.708-.888 5.921.602 8.442 1.588 2.765 4.626 4.633 7.817 4.763 2.82.162 5.665-1.022 7.564-3.108 2.744-2.914 3.314-7.588 1.357-11.077-1.798-3.398-5.773-5.458-9.588-4.945z"/>
    <path fill="#fff" d="M10.847 2.456c3.815-.512 7.79 1.547 9.588 4.945 1.957 3.49 1.387 8.164-1.357 11.077-1.898 2.086-4.744 3.27-7.564 3.108-3.191-.13-6.229-1.998-7.817-4.763-1.49-2.521-1.71-5.734-.602-8.442 1.258-3.186 4.343-5.555 7.752-5.926zM4.854 8.572c-.514.659-.624 1.523-.588 2.334.614-.002 1.229-.002 1.843 0 .024-.431.047-.889.298-1.258.566-.92 2.216-.896 2.639.143.323.787-.06 1.66-.641 2.215-1.142 1.092-2.54 1.861-3.833 2.755-.001.554-.002 1.108.001 1.662 2.075.002 4.15.001 6.226 0 .002-.551.002-1.103 0-1.655-1.012-.004-2.022.005-3.034-.004.818-.625 1.696-1.2 2.357-2.002.936-1.064 1.127-2.701.527-3.973-.499-.996-1.667-1.403-2.718-1.439-1.135-.102-2.377.278-3.077 1.22zm10.92-1.169c-1.009.119-1.964.706-2.437 1.619-.661 1.259-.696 2.744-.56 4.13.132 1.277.739 2.635 1.974 3.18 1.49.608 3.485.462 4.56-.852.815-1.046.967-2.437.942-3.722-.032-1.204-.264-2.504-1.118-3.413-.852-.894-2.186-1.088-3.36-.942z"/>
    <path fill="#fff" d="M15.872 9.149c.816-.277 1.847.042 2.177.886.47 1.247.467 2.707.013 3.958-.443 1.178-2.27 1.319-2.945.289-.595-.916-.572-2.076-.488-3.122.068-.802.385-1.762 1.243-2.01z"/>
    <path d="M4.854 8.572c.7-.942 1.942-1.322 3.077-1.22 1.051.036 2.219.443 2.718 1.439.6 1.272.409 2.909-.527 3.973-.661.802-1.538 1.376-2.357 2.002 1.012.008 2.022 0 3.034.004.002.552.002 1.104 0 1.655-2.076.001-4.151.002-6.226 0-.004-.554-.002-1.108-.001-1.662 1.292-.894 2.69-1.663 3.833-2.755.581-.556.964-1.428.641-2.215-.422-1.039-2.072-1.063-2.639-.143-.251.368-.274.827-.298 1.258-.614-.002-1.229-.002-1.843 0-.036-.811.074-1.675.588-2.334zM15.774 7.403c1.174-.146 2.508.048 3.36.942.854.908 1.086 2.209 1.118 3.413.025 1.285-.127 2.676-.942 3.722-1.075 1.314-3.07 1.46-4.56.852-1.235-.545-1.842-1.903-1.974-3.18-.136-1.386-.101-2.872.56-4.13.473-.913 1.428-1.5 2.437-1.619zm.098 1.746c-.858.248-1.175 1.208-1.243 2.01-.084 1.046-.107 2.207.488 3.122.674 1.03 2.502.889 2.945-.289.454-1.25.457-2.711-.013-3.958-.33-.844-1.361-1.163-2.177-.886z"/>
</svg>
