<svg xmlns="http://www.w3.org/2000/svg" width="24" height="24">
    <path fill="#c1121c" d="M11.01 0h1.926c4.216.365 8.154 3.029 9.924 6.893.631 1.29.931 2.702 1.14 4.114v1.934c-.367 4.03-2.798 7.832-6.424 9.682-1.416.773-2.999 1.153-4.585 1.378h-1.927c-4.12-.368-7.988-2.905-9.803-6.646C.555 16 .216 14.499 0 12.998v-1.945c.196-1.459.52-2.916 1.18-4.242C2.956 3.002 6.848.392 11.01.001zm.074 3.17c-4.312.347-7.939 4.262-7.96 8.587-.206 4.229 3.049 8.254 7.216 8.964 3.857.804 8.045-1.338 9.68-4.913 1.672-3.395.829-7.793-1.988-10.321-1.837-1.729-4.441-2.592-6.948-2.317z"/>
    <path fill="#f7fbf5" d="M11.084 3.17c2.507-.275 5.111.588 6.948 2.317 2.818 2.528 3.66 6.926 1.988 10.321-1.636 3.575-5.824 5.717-9.68 4.913-4.166-.71-7.422-4.735-7.216-8.964.02-4.325 3.648-8.24 7.96-8.587zM8.552 6.629c-.904 1.292-.58 2.933-.638 4.406-.832-.185-1.657-.412-2.496-.554-.353-.022-.422.413-.224.632a609.8 609.8 0 0 0 3.258 4.68c.134.263.508.346.671.062 1.126-1.567 2.218-3.162 3.318-4.747.227-.245.073-.702-.298-.624-.812.163-1.618.368-2.428.548.092-1.064-.223-2.22.259-3.216 1.045-1.771 4.492-1.4 4.685.816.037 2.917.001 5.836.018 8.753.617-.002 1.235-.001 1.852-.001.002-2.878.007-5.756-.002-8.634.002-1.224-.61-2.444-1.65-3.108-1.938-1.283-4.949-.984-6.324.986z"/>
    <path fill="#2a2d2f" d="M8.552 6.629c1.375-1.97 4.386-2.269 6.324-.986 1.04.664 1.652 1.884 1.65 3.108.01 2.878.005 5.756.002 8.634-.617 0-1.235-.001-1.852.001-.017-2.917.019-5.836-.018-8.753-.193-2.216-3.64-2.587-4.685-.816-.482.996-.167 2.152-.259 3.216.81-.18 1.615-.385 2.428-.548.371-.078.524.379.298.624-1.1 1.585-2.192 3.18-3.318 4.747-.163.283-.536.2-.671-.062a609.8 609.8 0 0 1-3.258-4.68c-.198-.22-.128-.654.224-.632.839.143 1.664.37 2.496.554.059-1.474-.265-3.114.638-4.406z"/>
</svg>
