<!-- Generated by IcoMoon.io -->
<svg version="1.1" xmlns="http://www.w3.org/2000/svg" width="24" height="24" viewBox="0 0 24 24">
<title>regulatory--end-of-shared-path-pedestrians-and-bicycles--g1</title>
<path fill="#0303cc" d="M10.689 0h2.605c2.050 0.317 4.067 1.005 5.744 2.25-1.302 1.308-2.606 2.612-3.915 3.913-0.39-0.271-0.991-0.408-1.313 0.039-0.321 0.359-0.102 0.825 0.085 1.186-0.031 0.033-0.094 0.098-0.126 0.131-0.388-0.362-0.772-0.727-1.153-1.098 0.15-0.241 0.303-0.525 0.122-0.797-0.362-0.724-0.607-1.527-1.12-2.164-1.054-1.199-3.43-0.228-3.256 1.391 0.083 0.615-0.31 1.631 0.535 1.823-0.563 0.556-0.922 1.289-1.085 2.058-0.068 0.26 0.177 0.522 0.442 0.468 1.279 0.014 2.557 0.001 3.836 0-0.282 0.281-0.565 0.56-0.847 0.841-0.008-0.22-0.014-0.441-0.022-0.661-0.289 0-0.577 0.001-0.866 0-0.007 0.518-0.009 1.036-0.003 1.553-0.085 0.085-0.169 0.17-0.253 0.256-0.004-0.606-0.001-1.212-0.007-1.818-0.292 0.001-0.585 0.001-0.877 0.003 0.009 0.883-0.043 1.768 0.047 2.649-2.33 2.344-4.673 4.678-7.011 7.015-1.245-1.672-1.928-3.684-2.252-5.726v-2.607c0.197-0.974 0.361-1.962 0.727-2.892 1.51-4.22 5.54-7.276 9.962-7.814M9.875 0.846c-1.137 0.382-0.405 2.243 0.698 1.708 1.096-0.404 0.382-2.19-0.698-1.708z"></path>
<path fill="#0303cc" d="M9.229 6.472c0.159-0.699-0.245-1.629 0.219-2.186 0.043 0.656 0.030 1.315 0.017 1.972-0.059 0.054-0.177 0.161-0.236 0.214z"></path>
<path fill="#0303cc" d="M11.019 4.244c0.462 0.763 1.103 1.605 0.952 2.543 0.358 0.48 0.849 0.842 1.268 1.264-0.199 0.201-0.4 0.4-0.599 0.601-0.321-0.932-0.893-1.763-1.65-2.393-0.012-0.671-0.028-1.346 0.029-2.014z"></path>
<path fill="#0303cc" d="M21.677 4.863c1.284 1.693 1.995 3.742 2.323 5.824v2.607c-0.527 4.429-3.59 8.468-7.812 9.979-0.925 0.365-1.908 0.525-2.875 0.727h-2.607c-2.090-0.321-4.146-1.037-5.843-2.324 0.307-0.3 0.612-0.602 0.917-0.905 0.801 1.087 2.526 1.294 3.475 0.287 1.026-0.946 0.824-2.683-0.26-3.503 0.165-0.173 0.337-0.341 0.508-0.51 0.774 0.669 1.553 1.332 2.337 1.988-0.282 0.772 0.358 1.429 1.137 1.187-0.012 0.105-0.034 0.313-0.045 0.417 0.136-0.004 0.412-0.012 0.55-0.016-0.1-0.15-0.199-0.298-0.299-0.446 0.29-0.030 0.58-0.064 0.87-0.090 0.366 1.201 1.756 1.959 2.951 1.507 1.3-0.41 1.955-2.083 1.256-3.26-0.555-1.068-1.933-1.456-3.010-0.98-0.231-0.369-0.462-0.737-0.685-1.11 0.062-0.148 0.131-0.291 0.209-0.431 0.203-0.025 0.405-0.046 0.61-0.064-0.003-0.241-0.005-0.481-0.009-0.721-0.555 0.143-1.128 0.29-1.588 0.648 0.22 0.039 0.441 0.079 0.662 0.115-0.093 0.155-0.184 0.31-0.275 0.464-1.29 0.003-2.581 0.004-3.871-0.001 1.428-1.452 2.885-2.873 4.316-4.323 0.022 0.31 0.223 0.775 0.605 0.556 0.358-0.323 0.126-0.914 0.188-1.347 2.093-2.088 4.182-4.18 6.268-6.275z"></path>
<path fill="#fff" d="M9.875 0.846c1.079-0.483 1.794 1.304 0.698 1.708-1.103 0.535-1.835-1.326-0.698-1.708z"></path>
<path fill="#fff" d="M8.362 4.852c-0.173-1.62 2.202-2.59 3.256-1.391 0.513 0.637 0.758 1.44 1.12 2.164 0.181 0.273 0.028 0.556-0.122 0.797 0.38 0.371 0.765 0.736 1.153 1.098-0.176 0.178-0.353 0.355-0.53 0.531-0.42-0.422-0.91-0.784-1.268-1.264 0.151-0.938-0.49-1.78-0.952-2.543-0.056 0.669-0.041 1.343-0.029 2.014 0.757 0.631 1.329 1.461 1.65 2.393-0.182 0.184-0.369 0.365-0.55 0.55-1.279 0.001-2.557 0.014-3.836 0-0.265 0.054-0.51-0.209-0.442-0.468 0.163-0.769 0.522-1.502 1.085-2.058-0.845-0.191-0.452-1.208-0.535-1.823M9.229 6.472c0.059-0.052 0.177-0.16 0.236-0.214 0.013-0.657 0.026-1.317-0.017-1.972-0.464 0.557-0.060 1.487-0.219 2.186z"></path>
<path fill="#fff" d="M13.81 6.203c0.321-0.447 0.923-0.311 1.313-0.039-0.405 0.412-0.817 0.817-1.228 1.225-0.188-0.361-0.407-0.826-0.085-1.186z"></path>
<path fill="#fff" d="M9.216 9.374c0.292-0.001 0.585-0.001 0.877-0.003 0.005 0.606 0.003 1.212 0.007 1.818-0.278 0.279-0.557 0.556-0.837 0.834-0.090-0.881-0.038-1.767-0.047-2.649z"></path>
<path fill="#fff" d="M10.355 9.381c0.289 0.001 0.577 0 0.866 0 0.008 0.22 0.014 0.441 0.022 0.661-0.296 0.298-0.591 0.597-0.89 0.892-0.007-0.517-0.004-1.035 0.003-1.553z"></path>
<path fill="#fff" d="M14.618 11.929c0.264-0.264 0.53-0.526 0.792-0.791-0.062 0.433 0.17 1.024-0.188 1.347-0.382 0.219-0.582-0.247-0.605-0.556z"></path>
<path fill="#fff" d="M13.786 15.673c0.46-0.358 1.033-0.505 1.588-0.648 0.004 0.24 0.007 0.48 0.009 0.721-0.205 0.018-0.407 0.039-0.61 0.064-0.077 0.14-0.147 0.283-0.209 0.431 0.223 0.372 0.454 0.741 0.685 1.11 1.077-0.476 2.455-0.088 3.010 0.98 0.699 1.178 0.043 2.85-1.256 3.26-1.195 0.452-2.585-0.306-2.951-1.507-0.29 0.026-0.58 0.060-0.87 0.090 0.1 0.148 0.199 0.296 0.299 0.446-0.138 0.004-0.413 0.012-0.55 0.016 0.010-0.104 0.033-0.312 0.045-0.417-0.779 0.243-1.419-0.414-1.137-1.187-0.784-0.656-1.563-1.319-2.337-1.988 0.084-0.083 0.168-0.165 0.253-0.248 0.851 0.71 1.641 1.496 2.544 2.139-0.121-0.25-0.248-0.498-0.39-0.737 0.168-0.009 0.337-0.011 0.505-0.004 0.008 0.193 0.014 0.388 0.026 0.581 0.105 0.005 0.315 0.016 0.42 0.021 0.393-0.734 0.767-1.479 1.148-2.22-1.342-0.005-2.682 0.007-4.024-0.007 0.106-0.106 0.211-0.212 0.316-0.319 1.29 0.005 2.581 0.004 3.871 0.001 0.092-0.155 0.182-0.31 0.275-0.464-0.222-0.037-0.442-0.076-0.662-0.115M14.357 16.523c-0.401 0.775-0.8 1.551-1.237 2.308 0.311 0.018 0.619 0.050 0.927 0.090 0.164-0.567 0.51-1.052 0.977-1.407-0.219-0.333-0.439-0.665-0.668-0.991M15.473 17.634c0.319 0.564 0.618 1.158 1.102 1.601 0.235 0.172 0.071 0.559-0.198 0.576-0.637 0.113-1.288 0.136-1.928 0.231 0.271 0.753 0.993 1.344 1.815 1.313 1.183 0.026 2.181-1.226 1.861-2.375-0.24-1.144-1.588-1.798-2.652-1.346M14.382 18.909c0.505 0.052 1.012 0.090 1.519 0.126-0.239-0.412-0.484-0.817-0.738-1.218-0.361 0.282-0.636 0.654-0.78 1.092z"></path>
<path fill="#fff" d="M8.727 17.845c0.089-0.098 0.178-0.194 0.269-0.29 1.083 0.82 1.285 2.557 0.26 3.503-0.95 1.007-2.674 0.8-3.475-0.287 0.081-0.081 0.163-0.163 0.243-0.243 0.586 0.732 1.662 1.117 2.518 0.615 1.255-0.603 1.391-2.565 0.186-3.298z"></path>
<path fill="#fff" d="M7.78 18.826c0.258-0.324 0.557-0.611 0.864-0.888-0.3 0.573-0.607 1.145-0.749 1.782-0.312 0.282-0.622-0.102-0.619-0.428 0.045-0.037 0.131-0.111 0.176-0.148 0.201-0.012 0.311-0.118 0.328-0.319z"></path>
<path fill="#cc0303" d="M19.037 2.25c1.006 0.729 1.899 1.614 2.64 2.612-2.085 2.096-4.174 4.188-6.268 6.275-0.262 0.265-0.529 0.527-0.792 0.791-1.431 1.449-2.888 2.871-4.316 4.323-0.105 0.106-0.21 0.212-0.316 0.319-0.076 0.075-0.153 0.151-0.229 0.227-0.085 0.083-0.169 0.165-0.253 0.248-0.17 0.169-0.342 0.337-0.508 0.51-0.090 0.096-0.18 0.191-0.269 0.29-0.021 0.022-0.062 0.070-0.083 0.093-0.307 0.277-0.606 0.564-0.864 0.888-0.173 0.039-0.283 0.146-0.328 0.319-0.045 0.037-0.131 0.111-0.176 0.148-0.435 0.392-0.838 0.82-1.254 1.235-0.080 0.080-0.161 0.161-0.243 0.243-0.304 0.303-0.61 0.605-0.917 0.905-0.998-0.74-1.883-1.633-2.611-2.637 2.338-2.337 4.681-4.671 7.011-7.015 0.279-0.278 0.559-0.555 0.837-0.834 0.084-0.085 0.168-0.17 0.253-0.256 0.299-0.295 0.594-0.594 0.89-0.892 0.282-0.281 0.565-0.56 0.847-0.841 0.181-0.185 0.367-0.366 0.55-0.55 0.199-0.201 0.4-0.4 0.599-0.601 0.177-0.176 0.354-0.353 0.53-0.531 0.031-0.033 0.094-0.098 0.126-0.131 0.41-0.408 0.822-0.813 1.228-1.225 1.309-1.301 2.612-2.606 3.915-3.913z"></path>
<path fill="#0303ff" d="M9.756 16.797c0.076-0.076 0.153-0.152 0.229-0.227 1.342 0.013 2.682 0.001 4.024 0.007-0.38 0.741-0.754 1.486-1.148 2.22-0.105-0.005-0.315-0.016-0.42-0.021-0.012-0.193-0.018-0.388-0.026-0.581-0.168-0.007-0.337-0.005-0.505 0.004 0.142 0.239 0.269 0.487 0.39 0.737-0.904-0.643-1.693-1.43-2.544-2.139z"></path>
<path fill="#0303ff" d="M14.357 16.523c0.228 0.327 0.449 0.658 0.668 0.991-0.467 0.355-0.813 0.841-0.977 1.407-0.308-0.041-0.616-0.072-0.927-0.090 0.437-0.757 0.835-1.533 1.237-2.308z"></path>
<path fill="#0303ff" d="M15.473 17.634c1.064-0.452 2.412 0.202 2.652 1.346 0.32 1.149-0.678 2.401-1.861 2.375-0.822 0.031-1.544-0.56-1.815-1.313 0.64-0.094 1.29-0.118 1.928-0.231 0.269-0.017 0.433-0.404 0.198-0.576-0.484-0.443-0.783-1.037-1.102-1.601z"></path>
<path fill="#0303ff" d="M14.382 18.909c0.144-0.438 0.42-0.81 0.78-1.092 0.254 0.401 0.5 0.807 0.738 1.218-0.506-0.035-1.014-0.073-1.519-0.126z"></path>
<path fill="#0303ff" d="M8.644 17.938c0.021-0.024 0.062-0.071 0.083-0.093 1.205 0.733 1.069 2.695-0.186 3.298-0.856 0.502-1.932 0.117-2.518-0.615 0.416-0.416 0.818-0.843 1.254-1.235-0.003 0.325 0.307 0.709 0.619 0.428 0.142-0.637 0.449-1.209 0.749-1.782z"></path>
<path fill="#0303ff" d="M7.452 19.145c0.045-0.173 0.155-0.279 0.328-0.319-0.017 0.201-0.127 0.307-0.328 0.319z"></path>
</svg>
