<?xml version="1.0" encoding="utf-8"?>
<!-- Generated by IcoMoon.io -->
<!DOCTYPE svg PUBLIC "-//W3C//DTD SVG 1.1//EN" "http://www.w3.org/Graphics/SVG/1.1/DTD/svg11.dtd">
<svg version="1.1" xmlns="http://www.w3.org/2000/svg" xmlns:xlink="http://www.w3.org/1999/xlink" width="24" height="24" viewBox="0 0 24 24">
<path fill="#040404" opacity="0.96" d="M0 2.4h24v19.2h-24v-19.2M1.135 2.496c-0.558 0.042-1.038 0.538-1.043 1.102-0.006 5.576-0.001 11.151-0.002 16.727-0.033 0.613 0.496 1.173 1.108 1.182 7.175 0.005 14.35 0 21.525 0.002 0.638 0.031 1.222-0.539 1.188-1.181-0.002-5.577 0.003-11.154-0.002-16.73-0.002-0.615-0.573-1.136-1.182-1.109-7.197 0.005-14.394-0.006-21.591 0.006z"></path>
<path fill="#040404" opacity="0.96" d="M1.221 2.745c7.166-0.009 14.332-0.003 21.498-0.003 0.511-0.028 0.97 0.428 0.938 0.94 0.001 5.545 0.001 11.090 0 16.635 0.031 0.511-0.426 0.968-0.936 0.942-7.146 0.002-14.294 0.002-21.44 0-0.507 0.027-0.966-0.423-0.938-0.932-0.002-5.548-0.001-11.096 0-16.644-0.030-0.487 0.387-0.94 0.878-0.938M1.055 3.287c-0.145 0.070-0.223 0.234-0.211 0.391-0.002 5.388 0 10.777-0.002 16.165 0.003 0.21-0.014 0.422 0.017 0.63 0.048 0.183 0.237 0.299 0.422 0.282 7.144 0.002 14.29 0.001 21.434 0 0.246 0.030 0.469-0.191 0.44-0.437 0.002-5.386 0-10.772 0.002-16.158-0.004-0.214 0.014-0.429-0.018-0.64-0.050-0.18-0.237-0.295-0.42-0.278-7.094-0.003-14.186 0.002-21.28-0.002-0.128 0.007-0.266-0.015-0.385 0.046z"></path>
<path fill="#040404" opacity="0.96" d="M4.398 4.718c0.276-0.298 0.824-0.287 1.069 0.046 0.179 0.23 0.195 0.53 0.241 0.806-0.071 0.005-0.142 0.009-0.214 0.013-0.020-0.27-0.074-0.585-0.334-0.731-0.29-0.18-0.688 0.031-0.764 0.346-0.062 0.238-0.065 0.521 0.084 0.727 0.295 0.294 0.762 0.298 1.062 0.586 0.226 0.286 0.235 0.672 0.196 1.018-0.034 0.316-0.211 0.636-0.523 0.75-0.263 0.053-0.586 0.069-0.786-0.145-0.278-0.249-0.347-0.637-0.342-0.993 0.050 0 0.15-0.001 0.2-0.002 0.056 0.283 0.077 0.63 0.354 0.792 0.257 0.194 0.644 0.090 0.797-0.185 0.15-0.298 0.171-0.694-0.054-0.96-0.284-0.334-0.826-0.269-1.071-0.65-0.274-0.422-0.242-1.031 0.085-1.417z"></path>
<path fill="#040404" opacity="0.96" d="M18.104 4.824c0.276-0.366 0.859-0.426 1.206-0.126 0.266 0.243 0.358 0.61 0.43 0.948-0.056-0.005-0.166-0.014-0.222-0.019-0.088-0.287-0.182-0.618-0.471-0.765-0.281-0.171-0.657-0.022-0.825 0.238-0.287 0.4-0.26 0.914-0.308 1.381 0.034 0.517 0.070 1.148 0.551 1.459 0.283 0.196 0.662 0.020 0.832-0.242 0.213-0.305 0.233-0.689 0.25-1.047-0.262 0.002-0.525 0.003-0.786-0.026 0.002-0.092 0.006-0.184 0.009-0.276 0.326 0.002 0.654 0.001 0.98 0.002-0.002 0.625 0.001 1.249-0.001 1.874-0.047-0.001-0.141-0.002-0.188-0.003 0-0.198 0-0.397-0.005-0.594-0.118 0.26-0.269 0.544-0.556 0.646-0.325 0.154-0.713-0.019-0.919-0.286-0.298-0.44-0.386-0.986-0.382-1.507-0.014-0.571 0.050-1.186 0.405-1.656z"></path>
<path fill="#040404" opacity="0.96" d="M6.194 8.228c-0.003-1.21 0-2.42-0.002-3.63 0.368 0.010 0.739-0.024 1.105 0.026 0.29 0.106 0.446 0.414 0.471 0.707 0.038 0.38 0.021 0.834-0.292 1.102-0.302 0.241-0.706 0.169-1.064 0.178-0.006 0.536-0.002 1.071-0.002 1.607-0.072 0.003-0.144 0.007-0.216 0.010M6.408 4.898c0.005 0.478-0.004 0.956 0.006 1.434 0.323-0.014 0.69 0.056 0.971-0.142 0.236-0.334 0.255-0.847-0.006-1.171-0.277-0.204-0.65-0.094-0.97-0.121z"></path>
<path fill="#040404" opacity="0.96" d="M8.184 8.223c0.001-1.208 0.001-2.417 0-3.625 0.513 0 1.025 0.001 1.538 0-0.002 0.074-0.006 0.225-0.008 0.299-0.434-0.002-0.868 0-1.302-0.002 0.002 0.436 0.001 0.871 0.001 1.306 0.393-0.001 0.786-0.002 1.178 0-0.001 0.066-0.001 0.2-0.002 0.266-0.39-0.010-0.78 0.046-1.169-0.004-0.014 0.49-0.010 0.981-0.002 1.471 0.443-0.002 0.887-0.002 1.331 0 0 0.095 0 0.191-0.001 0.287-0.521 0-1.042 0-1.564 0z"></path>
<path fill="#040404" opacity="0.96" d="M10.182 8.224c-0.001-1.209 0.001-2.418-0.002-3.626 0.514 0.001 1.027-0.001 1.541 0.001-0.002 0.074-0.007 0.224-0.009 0.298-0.442-0.001-0.882-0.003-1.323 0.002 0 0.434 0 0.866 0 1.3 0.398 0.005 0.795 0.002 1.193 0.002-0.005 0.097-0.009 0.194-0.014 0.291-0.38-0.039-0.762-0.014-1.143-0.029-0.062 0.487-0.048 0.987-0.006 1.476 0.442-0.010 0.884-0.003 1.326-0.006 0 0.097 0 0.193 0 0.29-0.521-0.001-1.042-0.001-1.562 0z"></path>
<path fill="#040404" opacity="0.96" d="M12.171 4.599c0.376 0.007 0.754-0.024 1.128 0.025 0.359 0.098 0.554 0.466 0.642 0.802 0.134 0.606 0.146 1.242 0.022 1.851-0.088 0.366-0.27 0.783-0.666 0.897-0.366 0.091-0.75 0.034-1.124 0.049-0.002-1.208 0.002-2.416-0.002-3.624M12.383 4.898c0.001 0.794 0.001 1.588 0 2.382 0.001 0.222-0.018 0.447 0.039 0.664 0.386-0.038 0.888 0.058 1.145-0.309 0.192-0.29 0.231-0.653 0.254-0.992 0.009-0.5 0.030-1.048-0.256-1.483-0.266-0.383-0.788-0.232-1.182-0.262z"></path>
<path fill="#040404" opacity="0.96" d="M14.59 8.23c-0.004-1.211-0.002-2.423-0.002-3.634 0.058 0.002 0.173 0.006 0.23 0.007 0 1.204-0.002 2.409 0.001 3.613-0.076 0.005-0.153 0.010-0.229 0.014z"></path>
<path fill="#040404" opacity="0.96" d="M15.425 4.602c0.066-0.001 0.198-0.001 0.264-0.002 0.438 1.041 0.859 2.090 1.317 3.122 0.030-1.041 0.005-2.082 0.013-3.123 0.055 0 0.165-0.001 0.219-0.001-0.002 1.21 0.001 2.42-0.002 3.63-0.064-0.004-0.194-0.010-0.258-0.014-0.438-1.056-0.883-2.11-1.322-3.166-0.018 1.061 0.002 2.122-0.010 3.182-0.055-0.004-0.166-0.012-0.222-0.017 0.002-1.204 0.002-2.408 0.001-3.612z"></path>
<path fill="#040404" opacity="0.96" d="M15.104 10.066c0.186-0.164 0.464-0.152 0.688-0.090 0.388 0.187 0.498 0.643 0.512 1.038l-0.185 0.010c-0.045-0.211-0.066-0.442-0.209-0.616-0.175-0.25-0.596-0.254-0.781-0.014-0.261 0.311-0.258 0.86 0.106 1.094 0.337 0.188 0.802 0.222 0.999 0.599 0.19 0.386 0.176 0.873-0.010 1.258-0.2 0.426-0.812 0.522-1.171 0.249-0.295-0.244-0.358-0.656-0.376-1.018 0.071 0.001 0.143 0.002 0.215 0.003 0.020 0.211 0.051 0.43 0.172 0.611 0.162 0.283 0.585 0.366 0.838 0.156 0.278-0.228 0.278-0.638 0.198-0.958-0.151-0.362-0.579-0.403-0.884-0.574-0.243-0.11-0.412-0.347-0.45-0.61-0.069-0.398-0.011-0.884 0.337-1.14z"></path>
<path fill="#040404" opacity="0.96" d="M7.714 10.024c0.491 0.002 0.983 0.001 1.474 0.001 0.002 0.092 0.002 0.184 0.004 0.277-0.417 0.002-0.834 0.002-1.251-0.001-0.014 0.442-0.004 0.884-0.008 1.326 0.382 0.001 0.764 0.001 1.146 0-0.001 0.075-0.003 0.226-0.004 0.302-0.381-0.002-0.762-0.001-1.142-0.002 0 0.576-0.002 1.151 0.001 1.727-0.074 0.002-0.148 0.003-0.222 0.005 0.003-1.212 0-2.423 0.002-3.634z"></path>
<path fill="#040404" opacity="0.96" d="M9.624 10.018c0.076 0.006 0.152 0.012 0.228 0.018-0.002 1.205-0.002 2.409 0.001 3.614-0.078 0.003-0.155 0.006-0.232 0.010 0.004-1.214-0.003-2.428 0.003-3.642z"></path>
<path fill="#040404" opacity="0.96" d="M10.462 10.021c0.086 0.005 0.174 0.010 0.26 0.016 0.426 1.058 0.89 2.1 1.315 3.158 0.030-1.056 0.006-2.113 0.013-3.17 0.074-0.001 0.148-0.001 0.222-0.001 0 1.211-0.002 2.422 0.001 3.633-0.090-0.002-0.178-0.003-0.268-0.006-0.425-1.060-0.882-2.106-1.317-3.162-0.022 1.056-0.005 2.112-0.009 3.168-0.054-0.001-0.164-0.001-0.218-0.002 0.002-1.211 0-2.423 0.001-3.635z"></path>
<path fill="#040404" opacity="0.96" d="M12.817 10.025c0.51 0 1.022 0.001 1.533 0 0.001 0.092 0.001 0.185 0.002 0.278-0.427-0.002-0.854 0.007-1.282-0.007-0.090 0.437-0.022 0.887-0.043 1.33 0.399 0.003 0.799 0 1.198 0.002-0.003 0.099-0.006 0.199-0.009 0.299-0.397 0.001-0.794-0.005-1.19 0.005 0.024 0.482-0.049 0.974 0.043 1.45 0.437-0.015 0.874-0.005 1.311-0.008 0.001 0.094 0.002 0.188 0.003 0.282-0.523 0.002-1.047 0.002-1.57 0 0.008-1.21 0.002-2.421 0.004-3.631z"></path>
<path fill="#040404" opacity="0.96" d="M6.584 15.792c0.106-0.221 0.317-0.357 0.531-0.458 0.205-0.013 0.428-0.049 0.612 0.068 0.386 0.198 0.478 0.665 0.552 1.052-0.075 0.001-0.15 0.003-0.224 0.005-0.060-0.222-0.094-0.468-0.254-0.644-0.227-0.283-0.725-0.28-0.934 0.024-0.301 0.38-0.338 0.893-0.342 1.359 0.001 0.461 0.028 0.954 0.291 1.35 0.163 0.258 0.547 0.386 0.807 0.194 0.28-0.196 0.382-0.554 0.438-0.875 0.058-0.014 0.176-0.041 0.234-0.054-0.068 0.466-0.208 1.010-0.66 1.245-0.336 0.188-0.77 0.032-0.975-0.275-0.25-0.368-0.314-0.822-0.358-1.254-0.031-0.586 0.011-1.205 0.282-1.737z"></path>
<path fill="#040404" opacity="0.96" d="M15.182 15.659c0.194-0.358 0.73-0.46 1.043-0.201 0.286 0.213 0.318 0.594 0.365 0.918-0.071 0.005-0.141 0.010-0.211 0.014-0.029-0.222-0.050-0.47-0.221-0.636-0.13-0.162-0.365-0.166-0.551-0.122-0.398 0.182-0.493 0.754-0.251 1.096 0.248 0.269 0.646 0.286 0.935 0.492 0.286 0.178 0.346 0.549 0.357 0.859-0.014 0.346-0.094 0.76-0.425 0.944-0.249 0.162-0.587 0.164-0.83-0.012-0.342-0.226-0.424-0.671-0.428-1.054l0.202-0.004c0.045 0.262 0.064 0.571 0.296 0.745 0.146 0.138 0.359 0.164 0.55 0.118 0.52-0.214 0.576-1.050 0.106-1.351-0.285-0.174-0.659-0.196-0.884-0.464-0.29-0.378-0.285-0.938-0.053-1.343z"></path>
<path fill="#040404" opacity="0.96" d="M3.216 15.409c0.053-0.001 0.158-0.002 0.211-0.002-0.002 1.208 0.001 2.417-0.002 3.625-0.052 0-0.157 0-0.209 0-0.001-1.208 0.001-2.416-0.001-3.623z"></path>
<path fill="#040404" opacity="0.96" d="M4.054 15.404c0.066 0.002 0.198 0.008 0.264 0.011 0.412 1.066 0.894 2.104 1.306 3.17 0.024-1.059 0.004-2.119 0.010-3.179 0.058 0.001 0.174 0.002 0.233 0.003-0.001 1.206-0.002 2.413 0 3.62-0.067-0.001-0.202-0.002-0.27-0.003-0.43-1.059-0.901-2.102-1.307-3.171-0.042 1.057-0.007 2.116-0.018 3.174-0.054 0.001-0.163 0.003-0.218 0.004-0.001-1.21 0-2.419 0-3.629z"></path>
<path fill="#040404" opacity="0.96" d="M8.75 19.039c-0.006-1.21-0.002-2.421-0.002-3.632 0.37 0.009 0.743-0.018 1.113 0.016 0.264 0.044 0.468 0.255 0.53 0.512 0.104 0.438 0.073 0.957-0.276 1.282 0.383 0.545 0.146 1.239 0.338 1.841-0.057-0.005-0.172-0.015-0.229-0.021-0.13-0.425-0.051-0.876-0.129-1.308-0.042-0.152-0.151-0.337-0.33-0.335-0.262-0.018-0.524-0.006-0.786-0.009 0.002 0.545-0.002 1.089 0.002 1.634-0.058 0.005-0.173 0.015-0.23 0.020M8.978 15.703c0.001 0.461 0.001 0.922 0 1.382 0.308-0.014 0.63 0.041 0.929-0.050 0.378-0.224 0.396-0.791 0.194-1.141-0.286-0.311-0.753-0.151-1.123-0.191z"></path>
<path fill="#040404" opacity="0.96" d="M10.915 19.030c0.006-1.207 0.002-2.414 0.003-3.622 0.511-0.001 1.022 0 1.534-0.001-0.002 0.074-0.005 0.223-0.006 0.298-0.431-0.002-0.863 0.001-1.294-0.002 0.001 0.437 0 0.873 0 1.31 0.397-0.003 0.793-0.003 1.189 0-0.001 0.096-0.001 0.192-0.002 0.288-0.396 0.002-0.792 0.002-1.187 0 0.002 0.482-0.002 0.963 0.002 1.445 0.448-0.002 0.895-0.005 1.343 0.002-0.001 0.094-0.001 0.187-0.001 0.282-0.526 0.003-1.053 0.010-1.58 0.002z"></path>
<path fill="#040404" opacity="0.96" d="M13.601 15.414c0.065-0.002 0.195-0.006 0.26-0.008 0.278 1.218 0.614 2.423 0.863 3.647-0.051-0.006-0.154-0.019-0.205-0.026-0.090-0.378-0.193-0.753-0.273-1.133-0.35-0.002-0.698-0.002-1.048 0.001-0.098 0.379-0.171 0.764-0.274 1.142-0.058-0.005-0.174-0.013-0.232-0.017 0.326-1.197 0.613-2.403 0.909-3.607M13.294 17.618c0.288-0.004 0.576-0.003 0.864-0.002-0.099-0.645-0.305-1.268-0.413-1.911-0.172 0.632-0.348 1.266-0.451 1.913z"></path>
<path fill="#040404" opacity="0.96" d="M17.071 19.031c0.001-1.208 0-2.416 0-3.624 0.515 0.001 1.030 0.001 1.545 0-0.002 0.099-0.003 0.198-0.005 0.298-0.436-0.002-0.872 0-1.308-0.002 0.001 0.437 0.001 0.873 0.001 1.31 0.395-0.002 0.791-0.003 1.187 0 0 0.072-0.001 0.216-0.001 0.288-0.396 0.002-0.792 0.002-1.188 0.001 0.003 0.481-0.002 0.962 0.004 1.444 0.449-0.001 0.898-0.006 1.347 0.004 0 0.091 0 0.183 0.001 0.275-0.528 0.014-1.056 0.003-1.583 0.007z"></path>
<path fill="#040404" opacity="0.96" d="M19.068 19.030c0.002-1.208 0-2.415 0.001-3.623 0.423 0.033 0.876-0.080 1.278 0.092 0.447 0.262 0.529 0.827 0.582 1.297 0.036 0.636 0.041 1.338-0.32 1.89-0.348 0.502-1.026 0.306-1.541 0.344M19.292 15.704c-0.002 0.845 0.007 1.69-0.005 2.536 0.003 0.168 0.006 0.336 0.010 0.504 0.35-0.008 0.741 0.046 1.048-0.161 0.248-0.231 0.319-0.584 0.361-0.907 0.066-0.577 0.062-1.219-0.259-1.725-0.276-0.35-0.77-0.221-1.155-0.247z"></path>
<path fill="#fff" d="M1.135 2.496c7.197-0.012 14.394-0.001 21.591-0.006 0.609-0.027 1.179 0.494 1.182 1.109 0.006 5.576 0.001 11.153 0.002 16.73 0.034 0.642-0.55 1.212-1.188 1.181-7.174-0.002-14.35 0.002-21.525-0.002-0.612-0.010-1.141-0.57-1.108-1.182 0.002-5.576-0.003-11.151 0.002-16.727 0.005-0.564 0.485-1.059 1.043-1.102M1.221 2.745c-0.49-0.002-0.907 0.45-0.878 0.938-0.001 5.548-0.002 11.096 0 16.644-0.028 0.509 0.43 0.959 0.938 0.932 7.146 0.002 14.294 0.002 21.44 0 0.51 0.026 0.967-0.43 0.936-0.942 0.001-5.545 0.001-11.090 0-16.635 0.031-0.512-0.427-0.968-0.938-0.94-7.166 0-14.332-0.006-21.498 0.003z"></path>
<path fill="#fff" d="M1.055 3.287c0.118-0.061 0.257-0.038 0.385-0.046 7.094 0.005 14.186-0.001 21.28 0.002 0.183-0.018 0.37 0.098 0.42 0.278 0.032 0.211 0.014 0.426 0.018 0.64-0.002 5.386 0.001 10.771-0.002 16.158 0.029 0.246-0.194 0.467-0.44 0.437-7.145 0.001-14.29 0.002-21.434 0-0.186 0.017-0.374-0.099-0.422-0.282-0.030-0.209-0.014-0.421-0.017-0.63 0.002-5.388-0.001-10.777 0.002-16.165-0.012-0.158 0.066-0.321 0.211-0.391M4.398 4.718c-0.327 0.386-0.358 0.994-0.085 1.417 0.246 0.382 0.787 0.316 1.071 0.65 0.226 0.266 0.204 0.662 0.054 0.96-0.153 0.274-0.54 0.379-0.797 0.185-0.278-0.162-0.298-0.509-0.354-0.792-0.050 0.001-0.15 0.002-0.2 0.002-0.006 0.356 0.063 0.744 0.342 0.993 0.199 0.214 0.522 0.198 0.786 0.145 0.312-0.114 0.489-0.434 0.523-0.75 0.039-0.346 0.030-0.732-0.196-1.018-0.299-0.288-0.766-0.292-1.062-0.586-0.149-0.206-0.146-0.49-0.084-0.727 0.076-0.314 0.474-0.526 0.764-0.346 0.259 0.146 0.314 0.461 0.334 0.731 0.071-0.004 0.142-0.008 0.214-0.013-0.046-0.276-0.062-0.576-0.241-0.806-0.245-0.334-0.793-0.345-1.069-0.046M18.104 4.824c-0.354 0.47-0.419 1.085-0.405 1.656-0.004 0.522 0.083 1.067 0.382 1.507 0.206 0.267 0.594 0.44 0.919 0.286 0.287-0.102 0.438-0.386 0.556-0.646 0.005 0.198 0.005 0.396 0.005 0.594 0.047 0.001 0.141 0.002 0.188 0.003 0.002-0.625-0.002-1.249 0.001-1.874-0.326-0.001-0.654 0-0.98-0.002-0.003 0.092-0.006 0.184-0.009 0.276 0.261 0.029 0.523 0.028 0.786 0.026-0.017 0.358-0.037 0.742-0.25 1.047-0.17 0.262-0.549 0.438-0.832 0.242-0.482-0.311-0.517-0.942-0.551-1.459 0.048-0.466 0.021-0.981 0.308-1.381 0.168-0.261 0.544-0.41 0.825-0.238 0.29 0.147 0.383 0.478 0.471 0.765 0.055 0.005 0.166 0.014 0.222 0.019-0.072-0.338-0.163-0.705-0.43-0.948-0.346-0.3-0.93-0.241-1.206 0.126M6.194 8.228c0.072-0.003 0.144-0.007 0.216-0.010 0-0.536-0.004-1.071 0.002-1.607 0.358-0.009 0.762 0.063 1.064-0.178 0.313-0.268 0.33-0.722 0.292-1.102-0.025-0.293-0.181-0.602-0.471-0.707-0.366-0.050-0.737-0.016-1.105-0.026 0.002 1.21-0.002 2.42 0.002 3.63M8.184 8.223c0.522 0 1.043 0 1.564 0 0.001-0.096 0.001-0.192 0.001-0.287-0.444-0.002-0.888-0.002-1.331 0-0.007-0.49-0.012-0.981 0.002-1.471 0.389 0.050 0.779-0.006 1.169 0.004 0.001-0.066 0.001-0.2 0.002-0.266-0.393-0.002-0.786-0.001-1.178 0 0-0.435 0.001-0.87-0.001-1.306 0.434 0.002 0.868 0 1.302 0.002 0.002-0.074 0.006-0.225 0.008-0.299-0.513 0.001-1.025 0-1.538 0 0.001 1.208 0.001 2.417 0 3.625M10.182 8.224c0.52-0.001 1.041-0.001 1.562 0 0-0.097 0-0.193 0-0.29-0.442 0.002-0.884-0.005-1.326 0.006-0.042-0.489-0.055-0.989 0.006-1.476 0.382 0.015 0.763-0.010 1.143 0.029 0.006-0.097 0.010-0.194 0.014-0.291-0.398-0.001-0.795 0.002-1.193-0.002 0-0.434 0-0.866 0-1.3 0.441-0.005 0.882-0.002 1.323-0.002 0.002-0.074 0.006-0.224 0.009-0.298-0.514-0.002-1.027 0-1.541-0.001 0.002 1.208 0.001 2.417 0.002 3.626M12.171 4.599c0.004 1.208 0.001 2.416 0.002 3.624 0.374-0.015 0.758 0.042 1.124-0.049 0.397-0.114 0.578-0.53 0.666-0.897 0.124-0.609 0.111-1.246-0.022-1.851-0.088-0.336-0.283-0.705-0.642-0.802-0.374-0.049-0.752-0.018-1.128-0.025M14.59 8.23c0.076-0.005 0.153-0.010 0.229-0.014-0.002-1.204-0.001-2.409-0.001-3.613-0.057-0.002-0.172-0.006-0.23-0.007 0 1.211-0.002 2.423 0.002 3.634M15.425 4.602c0.001 1.204 0.002 2.408-0.001 3.612 0.056 0.005 0.167 0.013 0.222 0.017 0.011-1.061-0.009-2.122 0.010-3.182 0.438 1.056 0.883 2.11 1.322 3.166 0.065 0.004 0.194 0.010 0.258 0.014 0.002-1.21 0-2.421 0.002-3.63-0.054 0-0.164 0.001-0.219 0.001-0.008 1.041 0.018 2.082-0.013 3.123-0.458-1.032-0.879-2.081-1.317-3.122-0.066 0.001-0.198 0.001-0.264 0.002M15.104 10.066c-0.348 0.256-0.406 0.742-0.337 1.14 0.038 0.262 0.207 0.5 0.45 0.61 0.305 0.171 0.733 0.212 0.884 0.574 0.079 0.32 0.079 0.73-0.198 0.958-0.254 0.21-0.677 0.127-0.838-0.156-0.121-0.182-0.152-0.4-0.172-0.611-0.072-0.002-0.144-0.002-0.215-0.003 0.018 0.362 0.081 0.774 0.376 1.018 0.359 0.274 0.971 0.177 1.171-0.249 0.186-0.385 0.2-0.872 0.010-1.258-0.197-0.378-0.662-0.411-0.999-0.599-0.363-0.234-0.366-0.783-0.106-1.094 0.185-0.241 0.606-0.237 0.781 0.014 0.143 0.174 0.164 0.405 0.209 0.616l0.185-0.010c-0.014-0.395-0.124-0.851-0.512-1.038-0.224-0.062-0.502-0.074-0.688 0.090M7.714 10.024c-0.002 1.211 0.002 2.422-0.002 3.634 0.074-0.002 0.148-0.003 0.222-0.005-0.002-0.576-0.001-1.151-0.001-1.727 0.38 0.001 0.761 0 1.142 0.002 0.001-0.076 0.003-0.226 0.004-0.302-0.382 0.001-0.764 0.001-1.146 0 0.004-0.442-0.006-0.884 0.008-1.326 0.417 0.003 0.834 0.002 1.251 0.001-0.002-0.093-0.002-0.185-0.004-0.277-0.491 0-0.983 0.002-1.474-0.001M9.624 10.018c-0.006 1.214 0.001 2.428-0.003 3.642 0.077-0.003 0.154-0.006 0.232-0.010-0.002-1.205-0.002-2.409-0.001-3.614-0.076-0.006-0.152-0.013-0.228-0.018M10.462 10.021c-0.001 1.212 0.002 2.424-0.001 3.635 0.054 0.001 0.164 0.001 0.218 0.002 0.004-1.056-0.013-2.112 0.009-3.168 0.434 1.056 0.892 2.102 1.317 3.162 0.090 0.002 0.178 0.004 0.268 0.006-0.003-1.21-0.001-2.422-0.001-3.633-0.074 0-0.148 0-0.222 0.001-0.007 1.057 0.017 2.114-0.013 3.17-0.425-1.058-0.89-2.1-1.315-3.158-0.086-0.006-0.174-0.011-0.26-0.016M12.817 10.025c-0.002 1.21 0.004 2.421-0.004 3.631 0.523 0.002 1.047 0.002 1.57 0-0.002-0.094-0.002-0.189-0.003-0.282-0.437 0.003-0.874-0.007-1.311 0.008-0.092-0.476-0.019-0.967-0.043-1.45 0.397-0.010 0.794-0.004 1.19-0.005 0.003-0.1 0.006-0.2 0.009-0.299-0.399-0.002-0.799 0.001-1.198-0.002 0.021-0.443-0.047-0.894 0.043-1.33 0.427 0.014 0.854 0.005 1.282 0.007-0.001-0.093-0.001-0.186-0.002-0.278-0.511 0.001-1.022 0-1.533 0M6.584 15.792c-0.271 0.532-0.314 1.15-0.282 1.737 0.044 0.433 0.109 0.886 0.358 1.254 0.205 0.307 0.639 0.463 0.975 0.275 0.452-0.235 0.592-0.779 0.66-1.245-0.058 0.014-0.176 0.041-0.234 0.054-0.055 0.321-0.158 0.679-0.438 0.875-0.26 0.192-0.644 0.063-0.807-0.194-0.263-0.396-0.29-0.89-0.291-1.35 0.004-0.466 0.041-0.979 0.342-1.359 0.21-0.304 0.707-0.307 0.934-0.024 0.16 0.176 0.194 0.422 0.254 0.644 0.074-0.002 0.149-0.004 0.224-0.005-0.074-0.387-0.166-0.854-0.552-1.052-0.184-0.117-0.407-0.081-0.612-0.068-0.214 0.101-0.426 0.237-0.531 0.458M15.182 15.659c-0.232 0.406-0.238 0.965 0.053 1.343 0.225 0.268 0.599 0.29 0.884 0.464 0.47 0.301 0.414 1.137-0.106 1.351-0.19 0.046-0.404 0.020-0.55-0.118-0.232-0.174-0.251-0.483-0.296-0.745l-0.202 0.004c0.004 0.382 0.086 0.828 0.428 1.054 0.242 0.176 0.581 0.174 0.83 0.012 0.331-0.184 0.41-0.598 0.425-0.944-0.011-0.31-0.070-0.681-0.357-0.859-0.289-0.206-0.687-0.223-0.935-0.492-0.242-0.342-0.147-0.914 0.251-1.096 0.186-0.044 0.421-0.039 0.551 0.122 0.171 0.166 0.192 0.414 0.221 0.636 0.070-0.005 0.14-0.010 0.211-0.014-0.047-0.325-0.079-0.706-0.365-0.918-0.314-0.259-0.849-0.158-1.043 0.201M3.216 15.409c0.002 1.207 0 2.415 0.001 3.623 0.052 0 0.157 0 0.209 0 0.002-1.208 0-2.417 0.002-3.625-0.053 0-0.158 0.001-0.211 0.002M4.054 15.404c0 1.21-0.001 2.419 0 3.629 0.055-0.001 0.164-0.003 0.218-0.004 0.010-1.058-0.024-2.117 0.018-3.174 0.406 1.069 0.877 2.112 1.307 3.171 0.067 0.001 0.202 0.002 0.27 0.003-0.002-1.207-0.001-2.414 0-3.62-0.058-0.001-0.174-0.002-0.233-0.003-0.006 1.060 0.014 2.12-0.010 3.179-0.412-1.066-0.894-2.105-1.306-3.17-0.066-0.003-0.198-0.009-0.264-0.011M8.75 19.039c0.058-0.005 0.173-0.015 0.23-0.020-0.004-0.545-0.001-1.089-0.002-1.634 0.262 0.002 0.525-0.009 0.786 0.009 0.178-0.002 0.288 0.183 0.33 0.335 0.078 0.432-0.002 0.883 0.129 1.308 0.057 0.006 0.172 0.016 0.229 0.021-0.192-0.602 0.046-1.296-0.338-1.841 0.349-0.326 0.38-0.844 0.276-1.282-0.062-0.257-0.266-0.468-0.53-0.512-0.37-0.034-0.742-0.007-1.113-0.016 0.001 1.211-0.004 2.422 0.002 3.632M10.915 19.030c0.527 0.008 1.054 0.002 1.58-0.002 0-0.094 0-0.188 0.001-0.282-0.448-0.006-0.895-0.003-1.343-0.002-0.003-0.482 0-0.963-0.002-1.445 0.395 0.002 0.791 0.002 1.187 0 0.001-0.096 0.001-0.192 0.002-0.288-0.396-0.003-0.792-0.003-1.189 0 0-0.437 0.001-0.873 0-1.31 0.431 0.003 0.863 0 1.294 0.002 0.002-0.074 0.005-0.223 0.006-0.298-0.511 0.001-1.022 0-1.534 0.001-0.002 1.207 0.003 2.414-0.003 3.622M13.601 15.414c-0.296 1.204-0.583 2.41-0.909 3.607 0.058 0.004 0.174 0.012 0.232 0.017 0.103-0.378 0.176-0.763 0.274-1.142 0.35-0.003 0.698-0.003 1.048-0.001 0.080 0.38 0.182 0.755 0.273 1.133 0.051 0.006 0.154 0.019 0.205 0.026-0.249-1.224-0.586-2.43-0.863-3.647-0.065 0.002-0.195 0.006-0.26 0.008M17.071 19.031c0.527-0.004 1.055 0.007 1.583-0.007-0.001-0.092-0.001-0.184-0.001-0.275-0.449-0.010-0.898-0.005-1.347-0.004-0.006-0.482-0.001-0.963-0.004-1.444 0.396 0.001 0.792 0.002 1.188-0.001 0-0.072 0.001-0.216 0.001-0.288-0.396-0.003-0.792-0.002-1.187 0 0-0.437 0-0.873-0.001-1.31 0.436 0.002 0.872 0 1.308 0.002 0.002-0.099 0.003-0.198 0.005-0.298-0.515 0.001-1.030 0.001-1.545 0 0 1.208 0.001 2.416 0 3.624M19.068 19.030c0.514-0.038 1.193 0.158 1.541-0.344 0.361-0.553 0.356-1.254 0.32-1.89-0.054-0.47-0.135-1.034-0.582-1.297-0.402-0.172-0.854-0.059-1.278-0.092-0.001 1.208 0.001 2.415-0.001 3.623z"></path>
<path fill="#fff" d="M6.408 4.898c0.32 0.026 0.694-0.083 0.97 0.121 0.262 0.324 0.242 0.837 0.006 1.171-0.282 0.198-0.648 0.129-0.971 0.142-0.010-0.478-0.001-0.956-0.006-1.434z"></path>
<path fill="#fff" d="M12.383 4.898c0.394 0.030 0.917-0.121 1.182 0.262 0.286 0.435 0.265 0.983 0.256 1.483-0.023 0.339-0.062 0.702-0.254 0.992-0.257 0.367-0.759 0.271-1.145 0.309-0.057-0.217-0.038-0.442-0.039-0.664 0.001-0.794 0.001-1.588 0-2.382z"></path>
<path fill="#fff" d="M8.978 15.703c0.37 0.040 0.838-0.12 1.123 0.191 0.202 0.35 0.183 0.917-0.194 1.141-0.299 0.090-0.621 0.036-0.929 0.050 0.001-0.46 0.001-0.921 0-1.382z"></path>
<path fill="#fff" d="M19.292 15.704c0.386 0.026 0.879-0.103 1.155 0.247 0.322 0.506 0.326 1.148 0.259 1.725-0.042 0.323-0.113 0.676-0.361 0.907-0.307 0.206-0.698 0.153-1.048 0.161-0.005-0.168-0.007-0.336-0.010-0.504 0.012-0.846 0.003-1.691 0.005-2.536z"></path>
<path fill="#fff" d="M13.294 17.618c0.103-0.647 0.279-1.281 0.451-1.913 0.108 0.643 0.314 1.266 0.413 1.911-0.288-0.002-0.576-0.002-0.864 0.002z"></path>
</svg>
