<!-- Generated by IcoMoon.io -->
<svg version="1.1" xmlns="http://www.w3.org/2000/svg" width="18" height="24" viewBox="0 0 18 24">
<title>regulatory--no-parking-or-no-stopping--g2</title>
<path fill="#fff" d="M1.628 0.324c4.888-0.143 9.787-0.042 14.678-0.037 0.672 0.256 1.216 0.9 1.39 1.597 0.010 6.605-0.001 13.21 0.006 19.815 0.091 0.948-0.702 1.707-1.489 2.092-4.807 0.015-9.617 0.014-14.424 0.001-0.789-0.384-1.581-1.144-1.491-2.093 0.036-6.532-0.064-13.066 0.088-19.597-0.075-0.803 0.539-1.491 1.242-1.778M1.834 0.64c-0.682 0.182-1.181 0.843-1.151 1.553-0.001 6.538-0.001 13.076 0 19.614-0.052 0.928 0.821 1.674 1.716 1.633 4.434-0.003 8.868 0.006 13.302-0.004 0.864-0.002 1.659-0.744 1.615-1.628 0.003-6.538 0.003-13.077 0-19.615 0.053-0.931-0.817-1.676-1.717-1.637-4.166-0.007-8.332 0.001-12.499-0.004-0.422 0.004-0.855-0.031-1.266 0.088z"></path>
<path fill="#fff" d="M1.315 1.863c0.18-0.477 0.675-0.762 1.177-0.729 4.338-0.001 8.677-0.001 13.016 0 0.502-0.034 0.993 0.256 1.177 0.729-0.005 6.758-0.006 13.516 0 20.273-0.181 0.424-0.607 0.742-1.079 0.722-4.404 0.004-8.808 0.003-13.212 0-0.472 0.020-0.9-0.295-1.079-0.721 0.006-6.758 0.006-13.516 0-20.274M8.439 3.048c-0.004 1.058 0.009 2.116-0.007 3.174-0.461-1.063-0.927-2.123-1.396-3.182-0.090 0.003-0.269 0.010-0.358 0.014 0 1.342 0 2.685 0 4.028 0.088 0.001 0.264 0.002 0.352 0.003 0.002-1.048-0.005-2.095 0.004-3.143 0.458 1.046 0.918 2.090 1.371 3.138 0.122 0.004 0.244 0.007 0.366 0.011 0.002-1.349 0.001-2.698 0.001-4.047-0.111 0.001-0.222 0.003-0.333 0.004M10.229 3.038c-0.506 0.184-0.76 0.724-0.872 1.216-0.156 0.817-0.133 1.737 0.357 2.442 0.233 0.349 0.686 0.564 1.098 0.427 0.489-0.161 0.763-0.658 0.885-1.129 0.181-0.783 0.168-1.653-0.209-2.378-0.224-0.448-0.761-0.777-1.259-0.578M2.43 9.037c0.003 1.151 0.002 2.301 0.001 3.452 0.075-0.001 0.225-0.003 0.3-0.003 0-0.467-0.001-0.933 0.002-1.399 0.403-0.028 0.904 0.091 1.21-0.245 0.3-0.462 0.31-1.126-0.007-1.581-0.395-0.388-1.012-0.169-1.506-0.224M4.947 9.034c-0.299 1.149-0.575 2.305-0.877 3.453 0.081-0.002 0.244-0.006 0.326-0.008 0.080-0.344 0.164-0.688 0.248-1.032 0.316 0.002 0.633 0.003 0.949 0.007 0.085 0.345 0.172 0.689 0.255 1.033 0.113 0 0.225 0 0.338-0.001-0.298-1.153-0.609-2.303-0.926-3.452-0.104 0-0.208 0-0.313 0M6.446 9.037c0.001 1.15 0.001 2.3 0 3.45 0.074 0 0.224 0 0.299 0.001 0.001-0.519-0.003-1.038 0.004-1.556 0.912-0.136 0.989 0.959 1.306 1.552 0.127 0.001 0.253 0.002 0.38 0.003-0.221-0.525-0.41-1.071-0.747-1.536 0.685-0.319 0.774-1.381 0.196-1.833-0.456-0.163-0.962-0.050-1.438-0.081M8.728 9.024c-0.005 1.155-0.001 2.31-0.002 3.466 0.075-0.002 0.226-0.005 0.301-0.007-0.004-0.604-0.118-1.277 0.37-1.739 0.27 0.58 0.535 1.161 0.805 1.741 0.13 0 0.261-0.001 0.392-0.001-0.329-0.684-0.661-1.367-0.988-2.052 0.325-0.459 0.636-0.928 0.953-1.393-0.136-0.001-0.273-0.002-0.409-0.002-0.37 0.57-0.739 1.14-1.119 1.703-0.010-0.562-0.007-1.123-0.001-1.685-0.101-0.011-0.202-0.022-0.302-0.031M10.919 9.032c0 1.154 0 2.307 0.001 3.461 0.074-0.004 0.224-0.012 0.299-0.016-0.003-1.145 0.001-2.29-0.002-3.434-0.075-0.003-0.223-0.008-0.298-0.011M11.73 9.033c-0.002 1.153-0.001 2.305-0.001 3.458 0.075-0.003 0.226-0.009 0.301-0.012 0.001-0.891-0.008-1.781 0.005-2.672 0.39 0.892 0.782 1.783 1.169 2.676 0.081 0 0.243 0.001 0.324 0.001-0.001-1.148-0.002-2.295 0-3.442-0.072-0.002-0.216-0.007-0.288-0.009-0.004 0.906 0.009 1.813-0.007 2.719-0.401-0.904-0.798-1.811-1.196-2.717-0.103-0.001-0.205-0.001-0.307-0.002M14.139 9.74c-0.284 0.812-0.293 1.844 0.298 2.524 0.444 0.497 1.261 0.288 1.601-0.222 0.068-0.433 0.016-0.874 0.029-1.31-0.317 0.002-0.633 0.002-0.95 0.002 0 0.137 0 0.273 0 0.41 0.222 0.001 0.443 0.001 0.665 0.002 0.131 0.526-0.19 1.077-0.782 0.992-0.733-0.187-0.783-1.124-0.709-1.741 0.052-0.449 0.279-1.028 0.811-1.040 0.411-0.007 0.569 0.426 0.69 0.743 0.086-0.033 0.173-0.067 0.259-0.1-0.113-0.376-0.238-0.848-0.665-0.975-0.537-0.204-1.097 0.201-1.247 0.715M3.103 14.322c-0.181 0.854-0.468 1.684-0.595 2.548 0.319-0.152 0.299-0.539 0.389-0.831 0.226-0.001 0.451-0.002 0.676-0.002 0.103 0.291 0.068 0.723 0.436 0.824-0.17-0.864-0.442-1.704-0.667-2.555-0.060 0.004-0.179 0.012-0.239 0.016M4.428 14.266c-0.018 0.843-0.007 1.687-0.008 2.53 0.051-0.002 0.154-0.005 0.206-0.007 0.002-0.643-0.008-1.287 0.008-1.93 0.39 0.642 0.448 1.548 1.070 2.005 0.027-0.85 0.006-1.701 0.013-2.551-0.058 0.003-0.174 0.008-0.232 0.011-0.002 0.629 0.007 1.258-0.009 1.888-0.279-0.625-0.549-1.254-0.824-1.88-0.056-0.017-0.168-0.049-0.224-0.066M6.129 14.306c0.376 0.785 0.798 1.585 0.638 2.489 0.052-0.001 0.157-0.002 0.209-0.002-0.179-0.933 0.337-1.723 0.655-2.551-0.495 0.192-0.51 0.817-0.741 1.23-0.157-0.388-0.324-0.771-0.483-1.156-0.070-0.003-0.208-0.008-0.278-0.010M9.578 14.316c0 0.066-0.001 0.2-0.001 0.267 0.185 0.002 0.369 0.005 0.554 0.008 0.112 0.747-0.23 1.659 0.184 2.299 0.052-0.765 0.012-1.533 0.027-2.3 0.18-0.002 0.361-0.004 0.542-0.006-0.005-0.073-0.013-0.221-0.017-0.295-0.43-0.007-0.86-0.006-1.289 0.027M11.37 14.311c-0.001 0.827-0.001 1.655 0 2.483 0.052 0 0.157 0 0.21 0 0.002-0.828 0.001-1.656 0-2.484-0.053 0-0.158 0.001-0.21 0.001M12.187 14.236c-0.018 0.852-0.005 1.703-0.008 2.555 0.051 0.001 0.155 0.004 0.207 0.005 0.007-0.65-0.013-1.3 0.014-1.95 0.229 0.668 0.3 1.376 0.515 2.047 0.429-0.62 0.379-1.434 0.622-2.132 0.037 0.711-0.027 1.425 0.043 2.134 0.391-0.759 0.067-1.741 0.17-2.587-0.098 0.001-0.196 0.003-0.293 0.005-0.159 0.689-0.308 1.38-0.473 2.067-0.193-0.662-0.272-1.351-0.472-2.010-0.106-0.051-0.214-0.095-0.325-0.134M14.336 14.288c-0.008 0.834-0.002 1.669-0.004 2.504 0.407-0.001 0.815-0.001 1.223 0 0-0.069 0.001-0.206 0.002-0.275-0.337 0-0.675 0-1.012 0-0.002-0.288-0.003-0.576-0.003-0.863 0.308 0 0.617 0 0.926-0.001-0.003-0.097-0.007-0.193-0.009-0.29-0.306 0-0.612 0.001-0.918 0.002 0.001-0.259 0.002-0.519 0.003-0.778 0.327 0 0.654 0 0.981-0.001 0-0.068 0-0.205 0-0.274-0.396-0.028-0.793-0.029-1.189-0.024M10.964 18.507c0.005 0.158 0.010 0.316 0.016 0.474-1.79 0.005-3.581 0.001-5.371 0.002-0.005 0.234-0.009 0.468-0.012 0.702 1.796 0.018 3.595-0.040 5.389 0.034-0.010 0.165-0.021 0.33-0.031 0.495 0.737-0.17 1.42-0.516 2.078-0.879-0.672-0.315-1.339-0.664-2.069-0.828z"></path>
<path fill="#fff" d="M10.519 3.439c0.859 0.087 0.954 1.181 0.919 1.861 0.016 0.612-0.334 1.565-1.107 1.365-0.729-0.36-0.739-1.323-0.674-2.025 0.051-0.499 0.278-1.15 0.862-1.201z"></path>
<path fill="#fff" d="M2.731 9.437c0.293 0.014 0.6-0.034 0.883 0.056 0.336 0.251 0.332 0.866 0.004 1.121-0.285 0.092-0.593 0.047-0.888 0.061 0.001-0.413 0.001-0.825 0.001-1.238z"></path>
<path fill="#fff" d="M6.745 9.419c0.304 0.007 0.614-0.023 0.914 0.039 0.404 0.195 0.39 0.893-0.020 1.072-0.293 0.063-0.597 0.034-0.895 0.041 0.001-0.384 0.001-0.768 0.001-1.152z"></path>
<path fill="#fff" d="M4.726 11.071c0.143-0.533 0.256-1.074 0.378-1.612 0.123 0.539 0.257 1.075 0.393 1.61-0.257 0.002-0.514 0.003-0.771 0.002z"></path>
<path fill="#fff" d="M2.958 15.761c0.096-0.385 0.186-0.771 0.264-1.159 0.096 0.386 0.192 0.772 0.29 1.158-0.185 0-0.369 0.001-0.554 0.001z"></path>
<path fill="#bf2f37" d="M1.834 0.64c0.411-0.119 0.844-0.084 1.266-0.088 4.167 0.005 8.333-0.003 12.499 0.004 0.9-0.039 1.77 0.706 1.717 1.637 0.003 6.538 0.003 13.077 0 19.615 0.044 0.884-0.751 1.626-1.615 1.628-4.434 0.010-8.868 0.001-13.302 0.004-0.895 0.041-1.768-0.705-1.716-1.633-0.001-6.538-0.001-13.076 0-19.614-0.030-0.71 0.469-1.371 1.151-1.553M1.315 1.863l-0.004-0.143c-0.178 0.577-0.104 1.186-0.111 1.78 0 5.667 0 11.333 0 17 0.006 0.594-0.067 1.202 0.111 1.78l0.004-0.143c0.179 0.426 0.607 0.741 1.079 0.721 4.404 0.003 8.808 0.004 13.212 0 0.472 0.020 0.898-0.298 1.079-0.722l0.003 0.144c0.18-0.578 0.105-1.186 0.112-1.78 0-5.667 0-11.333 0-17-0.007-0.594 0.068-1.203-0.112-1.781l-0.003 0.144c-0.184-0.473-0.675-0.763-1.177-0.729-4.339-0.001-8.678-0.001-13.016 0-0.502-0.033-0.997 0.252-1.177 0.729z"></path>
<path fill="#bf2f37" d="M10.964 18.507c0.73 0.164 1.397 0.513 2.069 0.828-0.658 0.363-1.341 0.709-2.078 0.879 0.010-0.165 0.021-0.33 0.031-0.495-1.794-0.074-3.593-0.016-5.389-0.034 0.003-0.234 0.007-0.468 0.012-0.702 1.79-0.001 3.581 0.003 5.371-0.002-0.006-0.158-0.011-0.316-0.016-0.474z"></path>
<path fill="#b80606" d="M1.311 1.72l0.004 0.143c0.006 6.758 0.006 13.516 0 20.274l-0.004 0.143c-0.178-0.578-0.105-1.186-0.111-1.78 0-5.667 0-11.333 0-17 0.007-0.594-0.067-1.203 0.111-1.78z"></path>
<path fill="#b80606" d="M16.685 1.863l0.003-0.144c0.18 0.578 0.105 1.187 0.112 1.781 0 5.667 0 11.333 0 17-0.007 0.594 0.068 1.202-0.112 1.78l-0.003-0.144c-0.006-6.757-0.005-13.515 0-20.273z"></path>
<path fill="#bb1404" d="M8.439 3.048c0.111-0.001 0.222-0.003 0.333-0.004 0 1.349 0.001 2.698-0.001 4.047-0.122-0.004-0.244-0.007-0.366-0.011-0.453-1.048-0.913-2.092-1.371-3.138-0.009 1.048-0.002 2.095-0.004 3.143-0.088-0.001-0.264-0.002-0.352-0.003 0-1.343 0-2.686 0-4.028 0.089-0.004 0.268-0.011 0.358-0.014 0.469 1.059 0.935 2.119 1.396 3.182 0.016-1.058 0.003-2.116 0.007-3.174z"></path>
<path fill="#bb1404" d="M2.43 9.037c0.494 0.055 1.111-0.164 1.506 0.224 0.317 0.455 0.307 1.119 0.007 1.581-0.306 0.336-0.807 0.217-1.21 0.245-0.003 0.466-0.002 0.932-0.002 1.399-0.075 0-0.225 0.002-0.3 0.003 0.001-1.151 0.002-2.301-0.001-3.452M2.731 9.437c0 0.413 0 0.825-0.001 1.238 0.295-0.014 0.603 0.031 0.888-0.061 0.328-0.255 0.332-0.87-0.004-1.121-0.283-0.090-0.59-0.042-0.883-0.056z"></path>
<path fill="#bb1404" d="M8.728 9.024c0.1 0.009 0.201 0.020 0.302 0.031-0.006 0.562-0.009 1.123 0.001 1.685 0.38-0.563 0.749-1.133 1.119-1.703 0.136 0 0.273 0.001 0.409 0.002-0.317 0.465-0.628 0.934-0.953 1.393 0.327 0.685 0.659 1.368 0.988 2.052-0.131 0-0.262 0.001-0.392 0.001-0.27-0.58-0.535-1.161-0.805-1.741-0.488 0.462-0.374 1.135-0.37 1.739-0.075 0.002-0.226 0.005-0.301 0.007 0.001-1.156-0.003-2.311 0.002-3.466z"></path>
<path fill="#bc1704" d="M10.229 3.038c0.498-0.199 1.035 0.13 1.259 0.578 0.377 0.725 0.39 1.595 0.209 2.378-0.122 0.471-0.396 0.968-0.885 1.129-0.412 0.137-0.865-0.078-1.098-0.427-0.49-0.705-0.513-1.625-0.357-2.442 0.112-0.492 0.366-1.032 0.872-1.216M10.519 3.439c-0.584 0.051-0.811 0.702-0.862 1.201-0.065 0.702-0.055 1.665 0.674 2.025 0.773 0.2 1.123-0.753 1.107-1.365 0.035-0.68-0.060-1.774-0.919-1.861z"></path>
<path fill="#bb1504" d="M4.947 9.034c0.105 0 0.209 0 0.313 0 0.317 1.149 0.628 2.299 0.926 3.452-0.113 0.001-0.225 0.001-0.338 0.001-0.083-0.344-0.17-0.688-0.255-1.033-0.316-0.004-0.633-0.005-0.949-0.007-0.084 0.344-0.168 0.688-0.248 1.032-0.082 0.002-0.245 0.006-0.326 0.008 0.302-1.148 0.578-2.304 0.877-3.453M4.726 11.071c0.257 0.001 0.514 0 0.771-0.002-0.136-0.535-0.27-1.071-0.393-1.61-0.122 0.538-0.235 1.079-0.378 1.612z"></path>
<path fill="#bb1504" d="M11.37 14.311c0.052 0 0.157-0.001 0.21-0.001 0.001 0.828 0.002 1.656 0 2.484-0.053 0-0.158 0-0.21 0-0.001-0.828-0.001-1.656 0-2.483z"></path>
<path fill="#bb1304" d="M6.446 9.037c0.476 0.031 0.982-0.082 1.438 0.081 0.578 0.452 0.489 1.514-0.196 1.833 0.337 0.465 0.526 1.011 0.747 1.536-0.127-0.001-0.253-0.002-0.38-0.003-0.317-0.593-0.394-1.688-1.306-1.552-0.007 0.518-0.003 1.037-0.004 1.556-0.075-0.001-0.225-0.001-0.299-0.001 0.001-1.15 0.001-2.3 0-3.45M6.745 9.419c0 0.384 0 0.768-0.001 1.152 0.298-0.007 0.602 0.022 0.895-0.041 0.41-0.179 0.424-0.877 0.020-1.072-0.3-0.062-0.61-0.032-0.914-0.039z"></path>
<path fill="#bb1304" d="M6.129 14.306c0.070 0.002 0.208 0.007 0.278 0.010 0.159 0.385 0.326 0.768 0.483 1.156 0.231-0.413 0.246-1.038 0.741-1.23-0.318 0.828-0.834 1.618-0.655 2.551-0.052 0-0.157 0.001-0.209 0.002 0.16-0.904-0.262-1.704-0.638-2.489z"></path>
<path fill="#bb1304" d="M9.578 14.316c0.429-0.033 0.859-0.034 1.289-0.027 0.004 0.074 0.012 0.222 0.017 0.295-0.181 0.002-0.362 0.004-0.542 0.006-0.015 0.767 0.025 1.535-0.027 2.3-0.414-0.64-0.072-1.552-0.184-2.299-0.185-0.003-0.369-0.006-0.554-0.008 0-0.067 0.001-0.201 0.001-0.267z"></path>
<path fill="#bb1304" d="M14.336 14.288c0.396-0.005 0.793-0.004 1.189 0.024 0 0.069 0 0.206 0 0.274-0.327 0.001-0.654 0.001-0.981 0.001-0.001 0.259-0.002 0.519-0.003 0.778 0.306-0.001 0.612-0.002 0.918-0.002 0.002 0.097 0.006 0.193 0.009 0.29-0.309 0.001-0.618 0.001-0.926 0.001 0 0.287 0.001 0.575 0.003 0.863 0.337 0 0.675 0 1.012 0-0.001 0.069-0.002 0.206-0.002 0.275-0.408-0.001-0.816-0.001-1.223 0 0.002-0.835-0.004-1.67 0.004-2.504z"></path>
<path fill="#bb1104" d="M10.919 9.032c0.075 0.003 0.223 0.008 0.298 0.011 0.003 1.144-0.001 2.289 0.002 3.434-0.075 0.004-0.225 0.012-0.299 0.016-0.001-1.154-0.001-2.307-0.001-3.461z"></path>
<path fill="#bb1104" d="M11.73 9.033c0.102 0.001 0.204 0.001 0.307 0.002 0.398 0.906 0.795 1.813 1.196 2.717 0.016-0.906 0.003-1.813 0.007-2.719 0.072 0.002 0.216 0.007 0.288 0.009-0.002 1.147-0.001 2.294 0 3.442-0.081 0-0.243-0.001-0.324-0.001-0.387-0.893-0.779-1.784-1.169-2.676-0.013 0.891-0.004 1.781-0.005 2.672-0.075 0.003-0.226 0.009-0.301 0.012 0-1.153-0.001-2.305 0.001-3.458z"></path>
<path fill="#bb1104" d="M3.103 14.322c0.060-0.004 0.179-0.012 0.239-0.016 0.225 0.851 0.497 1.691 0.667 2.555-0.368-0.101-0.333-0.533-0.436-0.824-0.225 0-0.45 0.001-0.676 0.002-0.090 0.292-0.070 0.679-0.389 0.831 0.127-0.864 0.414-1.694 0.595-2.548M2.958 15.761c0.185 0 0.369-0.001 0.554-0.001-0.098-0.386-0.194-0.772-0.29-1.158-0.078 0.388-0.168 0.774-0.264 1.159z"></path>
<path fill="#bc1504" d="M14.139 9.74c0.15-0.514 0.71-0.919 1.247-0.715 0.427 0.127 0.552 0.599 0.665 0.975-0.086 0.033-0.173 0.067-0.259 0.1-0.121-0.317-0.279-0.75-0.69-0.743-0.532 0.012-0.759 0.591-0.811 1.040-0.074 0.617-0.024 1.554 0.709 1.741 0.592 0.085 0.913-0.466 0.782-0.992-0.222-0.001-0.443-0.001-0.665-0.002 0-0.137 0-0.273 0-0.41 0.317 0 0.633 0 0.95-0.002-0.013 0.436 0.039 0.877-0.029 1.31-0.34 0.51-1.157 0.719-1.601 0.222-0.591-0.68-0.582-1.712-0.298-2.524z"></path>
<path fill="#bc1604" d="M4.428 14.266c0.056 0.017 0.168 0.049 0.224 0.066 0.275 0.626 0.545 1.255 0.824 1.88 0.016-0.63 0.007-1.259 0.009-1.888 0.058-0.003 0.174-0.008 0.232-0.011-0.007 0.85 0.014 1.701-0.013 2.551-0.622-0.457-0.68-1.363-1.070-2.005-0.016 0.643-0.006 1.287-0.008 1.93-0.052 0.002-0.155 0.005-0.206 0.007 0.001-0.843-0.010-1.687 0.008-2.53z"></path>
<path fill="#bd1804" d="M12.187 14.236c0.111 0.039 0.219 0.083 0.325 0.134 0.2 0.659 0.279 1.348 0.472 2.010 0.165-0.687 0.314-1.378 0.473-2.067 0.097-0.002 0.195-0.004 0.293-0.005-0.103 0.846 0.221 1.828-0.17 2.587-0.070-0.709-0.006-1.423-0.043-2.134-0.243 0.698-0.193 1.512-0.622 2.132-0.215-0.671-0.286-1.379-0.515-2.047-0.027 0.65-0.007 1.3-0.014 1.95-0.052-0.001-0.156-0.004-0.207-0.005 0.003-0.852-0.010-1.703 0.008-2.555z"></path>
</svg>
