<?xml version="1.0" encoding="utf-8"?>
<!-- Generated by IcoMoon.io -->
<!DOCTYPE svg PUBLIC "-//W3C//DTD SVG 1.1//EN" "http://www.w3.org/Graphics/SVG/1.1/DTD/svg11.dtd">
<svg version="1.1" xmlns="http://www.w3.org/2000/svg" xmlns:xlink="http://www.w3.org/1999/xlink" width="24" height="24" viewBox="0 0 24 24">
<path fill="#cd1e05" d="M5.387 1.983c2.029-1.35 4.477-2.047 6.912-1.975 3.119 0.052 6.183 1.407 8.336 3.66 1.979 2.024 3.159 4.771 3.365 7.587v1.673c-0.222 2.837-1.459 5.583-3.474 7.597-1.841 1.866-4.3 3.089-6.89 3.475h-3.264c-2.334-0.349-4.565-1.375-6.322-2.954-2.4-2.111-3.875-5.208-4.050-8.396v-1.261c0.071-0.888 0.198-1.773 0.443-2.631 0.762-2.755 2.555-5.207 4.944-6.775M6.184 5.238c4.246 4.207 8.437 8.468 12.691 12.668 0.466-0.434 0.758-1.003 1.073-1.547 0.763-1.385 1.12-2.983 1.057-4.561-0.058-2.521-1.295-4.966-3.222-6.577-1.749-1.499-4.096-2.245-6.39-2.089-1.911 0.105-3.735 0.904-5.209 2.106M5.14 6.282c-0.569 0.719-1.064 1.5-1.418 2.347-0.745 1.71-0.884 3.656-0.495 5.473 0.531 2.315 2.018 4.384 4.029 5.643 1.38 0.884 3.011 1.367 4.651 1.367 2.142 0.048 4.283-0.743 5.905-2.136-0.851-0.844-1.67-1.72-2.55-2.534-1.353-1.45-2.818-2.79-4.188-4.224-1.005-1.027-2.062-2.001-3.048-3.046-0.961-0.965-1.926-1.924-2.886-2.89z"></path>
<path fill="#fff" d="M6.184 5.238c1.474-1.202 3.298-2.001 5.209-2.106 2.294-0.156 4.641 0.59 6.39 2.089 1.927 1.611 3.164 4.056 3.222 6.577 0.063 1.578-0.294 3.176-1.057 4.561-0.315 0.544-0.607 1.113-1.073 1.547-4.254-4.2-8.445-8.461-12.691-12.668M14.101 6.225c-0.188 0.361-0.263 0.767-0.391 1.15-0.314 0.007-0.647 0.034-0.907 0.229-0.549 0.366-0.648 1.216-0.197 1.697 0.471 0.573 1.483 0.499 1.863-0.141 0.4-0.574 0.108-1.409-0.513-1.687 0.016-0.086 0.033-0.172 0.050-0.257 0.467 0.426 0.849 0.933 1.285 1.389 0.178 0.226 0.492 0.128 0.74 0.152 0.167 0.669 0.929 1.117 1.583 0.841 0.657-0.229 0.97-1.102 0.571-1.684-0.282-0.472-0.871-0.62-1.384-0.523-0.1-0.229-0.204-0.456-0.303-0.685 0.020-0.055 0.062-0.166 0.082-0.221 0.068-0.001 0.203-0.002 0.27-0.002-0.002-0.056-0.006-0.168-0.008-0.223-0.371 0.002-0.743-0.016-1.112 0.021 0.173 0.133 0.391 0.163 0.598 0.213-0.031 0.048-0.092 0.145-0.122 0.193-0.673 0.058-1.354 0.014-2.030 0.025 0.056-0.148 0.114-0.296 0.176-0.443 0.171-0.001 0.342-0.002 0.514-0.003 0-0.059 0.001-0.178 0.002-0.237-0.256 0.032-0.615-0.078-0.767 0.196z"></path>
<path fill="#fff" d="M5.14 6.282c0.96 0.966 1.925 1.925 2.886 2.89 0.986 1.045 2.043 2.019 3.048 3.046 1.37 1.434 2.835 2.774 4.188 4.224 0.88 0.814 1.699 1.69 2.55 2.534-1.622 1.393-3.763 2.184-5.905 2.136-1.64 0-3.271-0.483-4.651-1.367-2.011-1.259-3.498-3.328-4.029-5.643-0.389-1.817-0.25-3.763 0.495-5.473 0.354-0.847 0.849-1.628 1.418-2.347M5.684 10.583c-0.079 0.001-0.238 0.003-0.317 0.004 0.019 0.18-0.058 0.416 0.147 0.515-0.087 0.219-0.176 0.436-0.264 0.655-0.328-0.034-0.692 0.016-0.916 0.282-0.388 0.379-0.306 1.087 0.15 1.376 0.455 0.34 1.187 0.115 1.375-0.421 0.197-0.433-0.055-0.905-0.412-1.161 0.091-0.212 0.176-0.426 0.261-0.64 0.163 0.581 0.33 1.161 0.484 1.745 0.478 0.153 0.988 0.048 1.48 0.081-0.114-0.481 0.076-0.944 0.395-1.299-0.35-0.001-0.7-0.003-1.050 0.005-0.089 0.182-0.182 0.362-0.28 0.539-0.178-0.006-0.355-0.013-0.532-0.026-0.066-0.255-0.136-0.509-0.18-0.768 0.298-0.029 0.599 0 0.895-0.053 0.088-0.14 0.063-0.348-0.126-0.363-0.357-0.025-0.715-0.003-1.072-0.011 0.046-0.061 0.138-0.185 0.185-0.246 0.133-0.026 0.266-0.056 0.398-0.091-0.146-0.126-0.339-0.126-0.519-0.139 0.073-0.349 0.179-0.693 0.415-0.968-0.423 0.097-0.384 0.654-0.517 0.984M7.146 11.555c0.361 0.005 0.722 0.002 1.083 0.004 0.029 0.098 0.057 0.196 0.086 0.294-0.351 0.246-0.577 0.709-0.398 1.128 0.186 0.579 0.996 0.794 1.445 0.384 0.521-0.389 0.397-1.296-0.205-1.539-0.233-0.154-0.618 0.063-0.739-0.254 0.17-0.010 0.339-0.017 0.509-0.024-0.044-0.136-0.038-0.327-0.216-0.359-0.447-0.030-0.895-0.003-1.343-0.012-0.075 0.125-0.149 0.251-0.222 0.378M8.158 15.899c-0.157 0.001-0.315 0.001-0.472 0.002 0.013 0.177 0.039 0.354 0.065 0.53l-0.152-0.204-0.053 0.33c-0.343 0.091-0.693 0.166-0.996 0.363-0.060 0.226-0.134 0.449-0.174 0.68-0.001 0.339 0.168 0.687 0.462 0.867 0.365 0.263 0.905 0.206 1.222-0.105 0.186-0.171 0.246-0.437 0.446-0.596 0.016-0.142 0.032-0.284 0.049-0.426 0.142 0.17 0.271 0.35 0.4 0.53-0.026 0.067-0.079 0.201-0.105 0.268 0.448 0.062 0.902 0.019 1.352 0.033 0.395 0.038 0.734-0.193 1.090-0.319 0.144 0.549 0.74 0.932 1.295 0.737 0.358-0.065 0.462-0.479 0.778-0.603 0.005-0.23 0.005-0.461 0.002-0.691-0.15-0.18-0.296-0.363-0.459-0.532 0.050-0.092 0.101-0.183 0.153-0.274-0.037-0.026-0.109-0.080-0.145-0.107-0.54 0.008-1.076-0.068-1.615-0.098-0.325-0.008-0.632-0.148-0.96-0.122-0.047-0.094-0.106-0.179-0.177-0.255-0.594-0.020-1.188 0-1.782-0.008 0.189-0.316 0.356-0.653 0.615-0.918 0.133-0.052 0.272-0.085 0.403-0.14-0.074-0.039-0.222-0.116-0.296-0.155-0.48 0.232-0.675 0.786-0.946 1.213z"></path>
<path fill="#fff" d="M14.126 6.956c0.666-0.001 1.332-0.005 1.999-0.003-0.195 0.51-0.382 1.023-0.583 1.531-0.466-0.515-0.947-1.016-1.416-1.528z"></path>
<path fill="#fff" d="M15.803 8.517c0.183-0.493 0.373-0.984 0.571-1.472 0.068 0.158 0.138 0.315 0.208 0.472-0.327 0.241-0.539 0.599-0.575 1.006-0.068-0.002-0.136-0.004-0.204-0.006z"></path>
<path fill="#fff" d="M16.921 7.643c0.366-0.058 0.774 0.020 0.999 0.341 0.38 0.453 0.135 1.223-0.429 1.387-0.491 0.195-1.023-0.141-1.201-0.606 0.365-0.012 0.732 0.010 1.096-0.031-0.122-0.377-0.304-0.73-0.465-1.091z"></path>
<path fill="#fff" d="M12.73 8.042c0.19-0.302 0.554-0.415 0.895-0.409-0.033 0.347-0.446 0.786-0.114 1.072 0.161-0.321 0.251-0.67 0.371-1.006 0.29 0.211 0.56 0.523 0.503 0.91-0.011 0.61-0.75 1.029-1.286 0.747-0.487-0.211-0.693-0.881-0.369-1.314z"></path>
<path fill="#fff" d="M16.258 8.519c0.045-0.303 0.198-0.569 0.43-0.766 0.119 0.257 0.237 0.514 0.356 0.771-0.262-0.001-0.524-0.002-0.786-0.005z"></path>
<path fill="#fff" d="M4.41 12.481c0.085-0.319 0.423-0.454 0.726-0.455-0.031 0.079-0.092 0.236-0.122 0.315-0.113 0.089-0.315 0.163-0.277 0.344-0.007 0.172 0.21 0.3 0.363 0.232 0.317-0.149 0.023-0.558 0.224-0.801 0.39 0.251 0.404 0.875-0.026 1.091-0.452 0.28-1.078-0.23-0.888-0.726z"></path>
<path fill="#fff" d="M8.317 13.076c-0.283-0.282-0.15-0.711 0.106-0.96 0.036 0.075 0.107 0.225 0.143 0.3-0.047 0.179-0.104 0.436 0.128 0.513 0.271 0.066 0.392-0.205 0.346-0.431-0.090-0.043-0.179-0.087-0.269-0.131-0.031-0.084-0.093-0.253-0.125-0.338 0.383-0.029 0.799 0.257 0.744 0.675 0.007 0.53-0.745 0.778-1.073 0.372z"></path>
<path fill="#fff" d="M8.19 16.47c0.105-0.009 0.21-0.017 0.315-0.024 0.070 0.061 0.14 0.122 0.211 0.183-0.201 0.004-0.402 0.006-0.603 0.008 0.019-0.042 0.057-0.125 0.077-0.167z"></path>
<path fill="#fff" d="M8.782 16.941c0.083 0.005 0.166 0.010 0.25 0.016 0.033 0.202 0.040 0.407 0.021 0.611-0.096-0.151-0.189-0.303-0.283-0.455 0.003-0.043 0.009-0.129 0.012-0.172z"></path>
<path fill="#fff" d="M6.959 17.687c-0.034-0.252 0.198-0.394 0.391-0.49 0.003 0.048 0.011 0.146 0.015 0.195-0.128 0.069-0.329 0.276-0.15 0.405 0.069 0.103 0.211 0.057 0.314 0.086 0.052-0.191 0.104-0.381 0.167-0.568 0.057 0.17 0.217 0.378 0.059 0.545-0.178 0.36-0.781 0.229-0.796-0.173z"></path>
<path fill="#fff" d="M12.153 17.212c0.241 0.009 0.438 0.125 0.553 0.337-0.191 0.013-0.358-0.081-0.53-0.148-0.005-0.047-0.017-0.142-0.023-0.189z"></path>
<path fill="#fff" d="M11.851 17.454c0.047 0.009 0.14 0.025 0.187 0.033 0.006 0.121 0.013 0.242 0.021 0.363 0.173 0.056 0.333 0.012 0.471-0.097 0.048 0.046 0.096 0.092 0.145 0.138-0.187 0.142-0.455 0.278-0.669 0.106-0.188-0.122-0.157-0.351-0.155-0.543z"></path>
<path fill="#040404" d="M14.101 6.225c0.152-0.274 0.511-0.164 0.767-0.196-0.001 0.059-0.002 0.178-0.002 0.237-0.172 0.001-0.343 0.002-0.514 0.003-0.062 0.147-0.12 0.295-0.176 0.443 0.676-0.011 1.357 0.033 2.030-0.025 0.030-0.048 0.091-0.145 0.122-0.193-0.207-0.050-0.425-0.080-0.598-0.213 0.369-0.037 0.741-0.019 1.112-0.021 0.002 0.055 0.006 0.167 0.008 0.223-0.067 0-0.202 0.001-0.27 0.002-0.020 0.055-0.062 0.166-0.082 0.221 0.099 0.229 0.203 0.456 0.303 0.685 0.513-0.097 1.102 0.051 1.384 0.523 0.399 0.582 0.086 1.455-0.571 1.684-0.654 0.276-1.416-0.172-1.583-0.841-0.248-0.024-0.562 0.074-0.74-0.152-0.436-0.456-0.818-0.963-1.285-1.389-0.017 0.085-0.034 0.171-0.050 0.257 0.621 0.278 0.913 1.113 0.513 1.687-0.38 0.64-1.392 0.714-1.863 0.141-0.451-0.481-0.352-1.331 0.197-1.697 0.26-0.195 0.593-0.222 0.907-0.229 0.128-0.383 0.203-0.789 0.391-1.15M14.126 6.956c0.469 0.512 0.95 1.013 1.416 1.528 0.201-0.508 0.388-1.021 0.583-1.531-0.667-0.002-1.333 0.002-1.999 0.003M15.803 8.517c0.068 0.002 0.136 0.004 0.204 0.006 0.036-0.407 0.248-0.765 0.575-1.006-0.070-0.157-0.14-0.314-0.208-0.472-0.198 0.488-0.388 0.979-0.571 1.472M16.921 7.643c0.161 0.361 0.343 0.714 0.465 1.091-0.364 0.041-0.731 0.019-1.096 0.031 0.178 0.465 0.71 0.801 1.201 0.606 0.564-0.164 0.809-0.934 0.429-1.387-0.225-0.321-0.633-0.399-0.999-0.341M12.73 8.042c-0.324 0.433-0.118 1.103 0.369 1.314 0.536 0.282 1.275-0.137 1.286-0.747 0.057-0.387-0.213-0.699-0.503-0.91-0.12 0.336-0.21 0.685-0.371 1.006-0.332-0.286 0.081-0.725 0.114-1.072-0.341-0.006-0.705 0.107-0.895 0.409M16.258 8.519c0.262 0.003 0.524 0.004 0.786 0.005-0.119-0.257-0.237-0.514-0.356-0.771-0.232 0.197-0.385 0.463-0.43 0.766z"></path>
<path fill="#040404" d="M5.684 10.583c0.133-0.33 0.094-0.887 0.517-0.984-0.236 0.275-0.342 0.619-0.415 0.968 0.18 0.013 0.373 0.013 0.519 0.139-0.132 0.035-0.265 0.065-0.398 0.091-0.047 0.061-0.139 0.185-0.185 0.246 0.357 0.008 0.715-0.014 1.072 0.011 0.189 0.015 0.214 0.223 0.126 0.363-0.296 0.053-0.597 0.024-0.895 0.053 0.044 0.259 0.114 0.513 0.18 0.768 0.177 0.013 0.354 0.020 0.532 0.026 0.098-0.177 0.191-0.357 0.28-0.539 0.35-0.008 0.7-0.006 1.050-0.005-0.319 0.355-0.509 0.818-0.395 1.299-0.492-0.033-1.002 0.072-1.48-0.081-0.154-0.584-0.321-1.164-0.484-1.745-0.085 0.214-0.17 0.428-0.261 0.64 0.357 0.256 0.609 0.728 0.412 1.161-0.188 0.536-0.92 0.761-1.375 0.421-0.456-0.289-0.538-0.997-0.15-1.376 0.224-0.266 0.588-0.316 0.916-0.282 0.088-0.219 0.177-0.436 0.264-0.655-0.205-0.099-0.128-0.335-0.147-0.515 0.079-0.001 0.238-0.003 0.317-0.004M4.41 12.481c-0.19 0.496 0.436 1.006 0.888 0.726 0.43-0.216 0.416-0.84 0.026-1.091-0.201 0.243 0.093 0.652-0.224 0.801-0.153 0.068-0.37-0.060-0.363-0.232-0.038-0.181 0.164-0.255 0.277-0.344 0.030-0.079 0.091-0.236 0.122-0.315-0.303 0.001-0.641 0.136-0.726 0.455z"></path>
<path fill="#040404" d="M7.146 11.555c0.073-0.127 0.147-0.253 0.222-0.378 0.448 0.009 0.896-0.018 1.343 0.012 0.178 0.032 0.172 0.223 0.216 0.359-0.17 0.007-0.339 0.014-0.509 0.024 0.121 0.317 0.506 0.1 0.739 0.254 0.602 0.243 0.726 1.15 0.205 1.539-0.449 0.41-1.259 0.195-1.445-0.384-0.179-0.419 0.047-0.882 0.398-1.128-0.029-0.098-0.057-0.196-0.086-0.294-0.361-0.002-0.722 0.001-1.083-0.004M8.317 13.076c0.328 0.406 1.080 0.158 1.073-0.372 0.055-0.418-0.361-0.704-0.744-0.675 0.032 0.085 0.094 0.254 0.125 0.338 0.090 0.044 0.179 0.088 0.269 0.131 0.046 0.226-0.075 0.497-0.346 0.431-0.232-0.077-0.175-0.334-0.128-0.513-0.036-0.075-0.107-0.225-0.143-0.3-0.256 0.249-0.389 0.678-0.106 0.96z"></path>
<path fill="#040404" d="M8.158 15.899c0.271-0.427 0.466-0.981 0.946-1.213 0.074 0.039 0.222 0.116 0.296 0.155-0.131 0.055-0.27 0.088-0.403 0.14-0.259 0.265-0.426 0.602-0.615 0.918 0.594 0.008 1.188-0.012 1.782 0.008 0.071 0.076 0.13 0.161 0.177 0.255 0.328-0.026 0.635 0.114 0.96 0.122 0.539 0.030 1.075 0.106 1.615 0.098 0.036 0.027 0.108 0.081 0.145 0.107-0.052 0.091-0.103 0.182-0.153 0.274 0.163 0.169 0.309 0.352 0.459 0.532 0.003 0.23 0.003 0.461-0.002 0.691-0.316 0.124-0.42 0.538-0.778 0.603-0.555 0.195-1.151-0.188-1.295-0.737-0.356 0.126-0.695 0.357-1.090 0.319-0.45-0.014-0.904 0.029-1.352-0.033 0.026-0.067 0.079-0.201 0.105-0.268-0.129-0.18-0.258-0.36-0.4-0.53-0.017 0.142-0.033 0.284-0.049 0.426-0.2 0.159-0.26 0.425-0.446 0.596-0.317 0.311-0.857 0.368-1.222 0.105-0.294-0.18-0.463-0.528-0.462-0.867 0.040-0.231 0.114-0.454 0.174-0.68 0.303-0.197 0.653-0.272 0.996-0.363l0.053-0.33 0.152 0.204c-0.026-0.176-0.052-0.353-0.065-0.53 0.157-0.001 0.315-0.001 0.472-0.002M8.19 16.47c-0.020 0.042-0.058 0.125-0.077 0.167 0.201-0.002 0.402-0.004 0.603-0.008-0.071-0.061-0.141-0.122-0.211-0.183-0.105 0.007-0.21 0.015-0.315 0.024M8.782 16.941c-0.003 0.043-0.009 0.129-0.012 0.172 0.094 0.152 0.187 0.304 0.283 0.455 0.019-0.204 0.012-0.409-0.021-0.611-0.084-0.006-0.167-0.011-0.25-0.016M6.959 17.687c0.015 0.402 0.618 0.533 0.796 0.173 0.158-0.167-0.002-0.375-0.059-0.545-0.063 0.187-0.115 0.377-0.167 0.568-0.103-0.029-0.245 0.017-0.314-0.086-0.179-0.129 0.022-0.336 0.15-0.405-0.004-0.049-0.012-0.147-0.015-0.195-0.193 0.096-0.425 0.238-0.391 0.49M12.153 17.212c0.006 0.047 0.018 0.142 0.023 0.189 0.172 0.067 0.339 0.161 0.53 0.148-0.115-0.212-0.312-0.328-0.553-0.337M11.851 17.454c-0.002 0.192-0.033 0.421 0.155 0.543 0.214 0.172 0.482 0.036 0.669-0.106-0.049-0.046-0.097-0.092-0.145-0.138-0.138 0.109-0.298 0.153-0.471 0.097-0.008-0.121-0.015-0.242-0.021-0.363-0.047-0.008-0.14-0.024-0.187-0.033z"></path>
</svg>
