<?xml version="1.0" encoding="utf-8"?>
<!-- Generated by IcoMoon.io -->
<!DOCTYPE svg PUBLIC "-//W3C//DTD SVG 1.1//EN" "http://www.w3.org/Graphics/SVG/1.1/DTD/svg11.dtd">
<svg version="1.1" xmlns="http://www.w3.org/2000/svg" xmlns:xlink="http://www.w3.org/1999/xlink" width="24" height="24" viewBox="0 0 24 24">
<path fill="#fff" d="M23.805 12.067c0 0.001 0 0.001 0 0.002 0 6.5-5.269 11.768-11.768 11.768s-11.768-5.269-11.768-11.768c0-0.001 0-0.002 0-0.002s0-0.001 0-0.002c0-6.5 5.269-11.768 11.768-11.768s11.768 5.269 11.768 11.768c0 0.001 0 0.002 0 0.002z"></path>
<path fill="#092d78" d="M-0.050 23.873c0.026-0.026 0.095-0.029 0.153-0.006 0.064 0.025 0.045 0.044-0.048 0.048-0.084 0.003-0.131-0.015-0.105-0.042zM10.482 23.805c-0.903-0.153-1.343-0.258-2.071-0.495-4.275-1.393-7.508-5.236-8.097-9.626-0.056-0.415-0.124-0.755-0.151-0.755s0.020-0.999-0.025-0.703c-0.066 0.44-0.002 1.277-0.004-0.451-0.002-1.31 0.035-0.062 0.037-0.208 0.002-0.179-0.011-0.423-0.009-0.281 0.008 0.443 0.061-0.323 0.12-0.846 0.282-2.503 1.511-4.973 3.42-6.876 1.445-1.44 2.825-2.291 4.756-2.934 5.088-1.694 10.729 0.336 13.708 4.932 0.538 0.83 0.895 1.582 1.271 2.68 0.333 0.97 0.576 2.507 0.592 3.684 0.015 1.059-0.228 0.432-0.287-0.538-0.206-3.413-2.099-6.948-4.818-8.884-3.552-2.53-8.189-2.895-12.027-0.947-2.348 1.192-4.028 2.861-5.175 5.144-0.773 1.539-1.11 2.759-1.228 4.458-0.151 2.171 0.239 4.126 1.203 6.034 1.219 2.41 2.95 4.126 5.323 5.272 1.436 0.694 2.695 1.026 4.281 1.13 2.63 0.171 5.040-0.454 7.238-1.879 3.004-1.947 4.969-5.685 5.232-9.326 0.059-0.815 0.367-0.558 0.206 0.729l-0.201 1.605-0.329 0.965c-0.658 1.931-1.488 3.265-2.919 4.689-1.773 1.765-3.704 2.81-6.119 3.312-1.042 0.217-2.997 0.275-3.928 0.118zM11.119 22.993c-3.39-0.407-6.231-2.066-8.071-4.713-0.469-0.675-1.185-2.095-1.437-2.851-0.62-1.859-0.708-4.006-0.247-5.982 0.925-3.959 4-7.119 7.93-8.145 1.13-0.295 2.407-0.433 3.378-0.365 5.23 0.366 9.318 3.967 10.325 9.096 0.185 0.942 0.187 2.826 0.004 3.831-0.87 4.786-4.679 8.433-9.467 9.064-0.822 0.108-1.83 0.136-2.416 0.065zM15.652 19.056c0.478-0.569 0.402-0.936-0.51-2.45l-0.736-1.222-0.684-2.984 0.15-1.26c0.083-0.693 0.17-1.279 0.194-1.304s0.242 0.151 0.484 0.389l0.44 0.433-0.054 0.894c-0.048 0.787-0.039 0.9 0.076 0.944 0.225 0.086 0.547-0.046 0.853-0.353 0.277-0.277 0.299-0.335 0.349-0.931 0.029-0.349 0.071-0.732 0.094-0.85 0.035-0.188-0.124-0.399-1.264-1.673-0.949-1.061-1.359-1.464-1.505-1.482-0.118-0.014-0.547 0.142-1.035 0.376-0.717 0.343-0.912 0.481-1.384 0.98-0.302 0.319-1.151 1.194-1.888 1.943s-1.338 1.398-1.338 1.441c0 0.164 0.326 0.362 0.656 0.399 0.34 0.038 0.356 0.029 1.454-0.886 0.61-0.508 1.138-0.924 1.173-0.924 0.077 0 0.073 0.925-0.006 1.48-0.049 0.341-0.175 0.567-0.8 1.431-0.408 0.564-0.774 1.099-0.812 1.188-0.070 0.163-0.867 3.573-0.867 3.712 0 0.112 0.607 0.089 0.902-0.035 0.496-0.207 0.638-0.482 0.928-1.794l0.267-1.21 0.628-0.614c0.345-0.338 0.673-0.625 0.729-0.637 0.063-0.014 0.248 0.348 0.49 0.956 0.442 1.113 0.81 1.774 1.591 2.853 0.3 0.415 0.654 0.907 0.786 1.093s0.284 0.339 0.338 0.339c0.053 0 0.19-0.11 0.303-0.245zM13.027 6.844c0.395-0.302 0.547-0.629 0.503-1.086-0.102-1.067-1.324-1.541-2.064-0.801-0.633 0.633-0.532 1.508 0.23 1.982 0.399 0.248 0.932 0.21 1.331-0.094z"></path>
</svg>
