<!-- Generated by IcoMoon.io -->
<svg version="1.1" xmlns="http://www.w3.org/2000/svg" width="24" height="24" viewBox="0 0 24 24">
<title>regulatory--maximum-speed-limit-60--g1</title>
<path fill="#d20000" d="M11.147 0h1.93c4.493 0.443 8.642 3.552 10.178 7.819 0.415 1.15 0.646 2.357 0.745 3.572v1.566c-0.376 4.447-3.38 8.599-7.578 10.181-1.132 0.469-2.336 0.7-3.545 0.862h-1.948c-4.493-0.448-8.648-3.55-10.192-7.817-0.378-1.033-0.586-2.117-0.738-3.203v-2.038c0.326-3.325 2.071-6.474 4.733-8.494 1.831-1.446 4.115-2.2 6.414-2.449M10.841 3.044c-3.182 0.35-5.999 2.564-7.208 5.51-0.95 2.168-0.857 4.699 0.010 6.878 1.271 3.211 4.554 5.503 8 5.612 3.364 0.133 6.7-1.742 8.278-4.724 1.492-2.566 1.46-5.879 0.1-8.49-1.676-3.278-5.504-5.387-9.179-4.787z"></path>
<path fill="#ffd700" d="M10.841 3.044c3.674-0.6 7.502 1.508 9.179 4.787 1.361 2.611 1.392 5.924-0.1 8.49-1.578 2.982-4.914 4.858-8.278 4.724-3.446-0.109-6.73-2.401-8-5.612-0.866-2.179-0.96-4.71-0.010-6.878 1.21-2.946 4.026-5.16 7.208-5.51M7.204 9.004c-0.458 0.715-0.332 1.592-0.346 2.396 0.064 1.051-0.16 2.148 0.179 3.164 0.613 1.648 3.25 1.807 4.094 0.286 0.46-0.962 0.502-2.154 0.085-3.138-0.564-1.234-2.345-1.42-3.32-0.583 0.016-0.559-0.102-1.181 0.245-1.669 0.496-0.822 1.9-0.76 2.281 0.143 0.336 0 0.671-0.002 1.007-0.008-0.361-1.951-3.266-2.134-4.225-0.59M14.078 8.088c-0.88 0.23-1.532 1.085-1.531 1.994-0.014 1.237-0.008 2.477-0.004 3.714-0.017 0.882 0.562 1.735 1.4 2.018 1.25 0.496 2.911-0.25 3.082-1.655 0.072-1.436 0.056-2.885 0.008-4.322-0.132-1.374-1.706-2.171-2.956-1.75z"></path>
<path fill="#ffd700" d="M14.324 9.065c0.632-0.244 1.529 0.056 1.582 0.816 0.064 1.372 0.049 2.752 0.008 4.123-0.024 0.966-1.39 1.264-1.976 0.616-0.28-0.323-0.27-0.779-0.278-1.181 0.010-1.081-0.007-2.164 0.008-3.245-0.010-0.456 0.18-0.984 0.656-1.129z"></path>
<path fill="#ffd700" d="M9.048 11.568c1.392-0.154 1.53 1.651 1.165 2.602-0.257 0.955-1.802 0.964-2.074 0.014-0.294-0.888-0.319-2.491 0.908-2.616z"></path>
<path fill="#000" d="M7.204 9.004c0.959-1.543 3.864-1.361 4.225 0.59-0.336 0.006-0.671 0.008-1.007 0.008-0.382-0.902-1.786-0.965-2.281-0.143-0.347 0.488-0.229 1.11-0.245 1.669 0.976-0.836 2.756-0.65 3.32 0.583 0.416 0.984 0.374 2.176-0.085 3.138-0.845 1.522-3.481 1.362-4.094-0.286-0.338-1.016-0.115-2.113-0.179-3.164 0.013-0.804-0.113-1.681 0.346-2.396M9.048 11.568c-1.228 0.125-1.202 1.728-0.908 2.616 0.271 0.949 1.817 0.941 2.074-0.014 0.365-0.95 0.227-2.755-1.165-2.602z"></path>
<path fill="#000" d="M14.078 8.088c1.249-0.421 2.824 0.376 2.956 1.75 0.048 1.438 0.064 2.886-0.008 4.322-0.17 1.405-1.831 2.15-3.082 1.655-0.839-0.283-1.417-1.136-1.4-2.018-0.005-1.237-0.011-2.477 0.004-3.714-0.001-0.91 0.652-1.764 1.531-1.994M14.324 9.065c-0.476 0.145-0.666 0.673-0.656 1.129-0.016 1.081 0.001 2.164-0.008 3.245 0.008 0.402-0.001 0.858 0.278 1.181 0.587 0.648 1.952 0.35 1.976-0.616 0.041-1.372 0.055-2.752-0.008-4.123-0.053-0.76-0.949-1.060-1.582-0.816z"></path>
</svg>
