<?xml version="1.0" encoding="utf-8"?>
<!-- Generated by IcoMoon.io -->
<!DOCTYPE svg PUBLIC "-//W3C//DTD SVG 1.1//EN" "http://www.w3.org/Graphics/SVG/1.1/DTD/svg11.dtd">
<svg version="1.1" xmlns="http://www.w3.org/2000/svg" xmlns:xlink="http://www.w3.org/1999/xlink" width="24" height="24" viewBox="0 0 24 24">
<path fill="#ff0303" d="M10.951 0h1.924c2.376 0.185 4.696 1.070 6.563 2.555 2.296 1.794 3.895 4.456 4.4 7.327 0.024 0.184 0.040 0.368 0.044 0.553l-0.042 0.109c0.041 0.019 0.121 0.060 0.16 0.080v2.856l-0.004-0.363c-0.287 2.637-1.401 5.19-3.235 7.119-2.034 2.182-4.904 3.54-7.875 3.764h-1.885c-2.716-0.255-5.345-1.41-7.31-3.311-2.138-2.028-3.467-4.864-3.69-7.799v-1.761c0.221-3.005 1.607-5.905 3.825-7.946 1.938-1.817 4.492-2.913 7.127-3.183M5.991 5.76c4.288 3.731 8.577 7.461 12.853 11.206 1.249-1.831 1.794-4.138 1.408-6.329-0.381-2.313-1.761-4.439-3.722-5.724-1.532-1.028-3.406-1.508-5.243-1.4-1.959 0.105-3.85 0.929-5.297 2.247M4.777 7.15c-0.952 1.403-1.523 3.076-1.532 4.778-0.044 2.105 0.732 4.212 2.133 5.784 1.729 2.009 4.448 3.114 7.088 2.889 1.903-0.141 3.74-0.947 5.148-2.233-4.28-3.74-8.558-7.48-12.837-11.218z"></path>
<path fill="#fff" d="M5.991 5.76c1.446-1.318 3.338-2.142 5.297-2.247 1.837-0.108 3.71 0.372 5.243 1.4 1.961 1.285 3.341 3.411 3.722 5.724 0.386 2.191-0.159 4.497-1.408 6.329-4.276-3.745-8.566-7.475-12.853-11.206M13.756 6.471c-0.194 0.177-0.403 0.341-0.563 0.551-0.123 0.287-0.153 0.606-0.267 0.896-0.127 0.158-0.286 0.285-0.431 0.425-0.003 0.399-0.001 0.797 0 1.195 0.136 0.141 0.271 0.282 0.406 0.425 0.001 0.323 0 0.648 0 0.972 0.214 0 0.427 0 0.642 0 0-0.323 0-0.647-0.001-0.97 1.224 0.001 2.447 0 3.672 0.001 0 0.322-0.001 0.646 0 0.97 0.2-0.001 0.4-0.001 0.602-0.001-0.001-0.331-0.001-0.662-0.003-0.993 0.159-0.145 0.32-0.287 0.481-0.429-0.012-0.389-0.022-0.776-0.035-1.165-0.298-0.253-0.525-0.57-0.578-0.966-0.045-0.424-0.429-0.647-0.715-0.906-1.070-0.004-2.141 0.001-3.21-0.003z"></path>
<path fill="#fff" d="M13.676 6.875c1.138 0.004 2.278-0.019 3.416-0.017 0.072 0.368 0.146 0.737 0.217 1.105-1.303 0-2.604 0-3.907 0 0.091-0.363 0.181-0.726 0.273-1.088z"></path>
<path fill="#fff" d="M4.777 7.15c4.279 3.739 8.557 7.479 12.837 11.218-1.408 1.286-3.245 2.092-5.148 2.233-2.64 0.225-5.36-0.88-7.088-2.889-1.401-1.572-2.177-3.68-2.133-5.784 0.009-1.702 0.58-3.375 1.532-4.778M5.814 11.009c0.047 0.212 0.098 0.424 0.137 0.637-0.218 0.028-0.438 0.054-0.658 0.077-0.009 0.074-0.027 0.225-0.036 0.299 0.157 0.050 0.313 0.103 0.47 0.157-0.042 0.076-0.126 0.227-0.167 0.303-0.153-0.008-0.307-0.015-0.459-0.022-0.276 0.212-0.655 0.363-0.751 0.732-0.237 0.599 0.314 1.309 0.956 1.212 0.502 0.010 0.717-0.486 0.997-0.811-0.017-0.462-0.27-0.86-0.642-1.119l0.146-0.216c0.356 0.261 0.716 0.516 1.079 0.767 0.032 0.194 0.064 0.388 0.096 0.583 0.353 0.072 0.71 0.128 1.068 0.168 0.204 0.327 0.507 0.658 0.929 0.637 0.581 0.050 1.055-0.51 1.018-1.068 0.022-0.347-0.268-0.587-0.481-0.818 0.039-0.060 0.114-0.184 0.153-0.244-0.515-0.012-1.031 0.005-1.541-0.054 0.128-0.125 0.262-0.244 0.393-0.365-0.279 0.006-0.558 0.008-0.837-0.001 0.162 0.186 0.222 0.411 0.195 0.657-0.759 0.318-1.395-0.277-1.916-0.746 0.037-0.098 0.076-0.195 0.113-0.293-0.041-0.086-0.125-0.258-0.166-0.344 0.133-0.087 0.266-0.176 0.397-0.267-0.166 0.044-0.33 0.091-0.493 0.139M9.504 15.78c-0.21-0.013-0.42-0.026-0.629-0.037-0.114 0.29-0.001 0.588-0.036 0.875-0.399-0.077-0.861-0.177-1.203 0.117-0.63 0.42-0.557 1.48 0.122 1.812 0.599 0.362 1.444-0.040 1.568-0.719 0.099-0.382-0.098-0.742-0.294-1.052 0.366-0.253 0.66 0.21 0.97 0.352-0.159 0.173-0.243 0.384-0.226 0.622 0.756 0.157 1.559 0.241 2.323 0.087 0.159 0.475 0.585 0.898 1.12 0.838 0.471 0.012 0.733-0.412 1.050-0.683 0.009-0.092 0.017-0.185 0.026-0.277-0.135-0.48-0.385-0.946-0.886-1.122-0.060-0.212-0.121-0.425-0.18-0.637-0.653 0.032-1.301 0.132-1.955 0.137-0.536-0.137-1.072-0.285-1.63-0.296 0.169-0.245 0.391-0.441 0.655-0.581-0.409-0.103-0.62 0.259-0.797 0.563z"></path>
<path fill="#fff" d="M13.17 8.807c0.254-0.32 0.725 0.167 0.404 0.393-0.243 0.248-0.608-0.142-0.404-0.393z"></path>
<path fill="#fff" d="M17.229 8.759c0.352-0.255 0.622 0.427 0.21 0.502-0.293 0.114-0.488-0.381-0.21-0.502z"></path>
<path fill="#fff" d="M8.412 12.914c0.312-0.189 0.742-0.33 1.052-0.059 0.434 0.304 0.359 1.037-0.119 1.258-0.376 0.207-0.803-0.018-1.042-0.325 0.341-0.096 0.717 0.287 1.015 0.017 0.23-0.191 0.21-0.592-0.045-0.752-0.264-0.203-0.638 0.163-0.861-0.139z"></path>
<path fill="#fff" d="M4.51 13.716c-0.184-0.563 0.356-1.033 0.893-1.005-0.103 0.311-0.235 0.611-0.305 0.932 0.362-0.11 0.381-0.54 0.544-0.821 0.253 0.267 0.47 0.66 0.255 1.018-0.262 0.596-1.227 0.504-1.387-0.123z"></path>
<path fill="#fff" d="M7.591 17.587c-0.012-0.503 0.53-0.752 0.969-0.669-0.055 0.069-0.163 0.208-0.218 0.279-0.159 0.090-0.453 0.142-0.424 0.386-0.049 0.257 0.272 0.456 0.495 0.344 0.252-0.072 0.194-0.39 0.213-0.589 0.056-0.051 0.169-0.153 0.226-0.204 0.098 0.316 0.184 0.719-0.109 0.963-0.395 0.435-1.206 0.073-1.153-0.51z"></path>
<path fill="#fff" d="M12.477 17.367c0.2-0.204 0.425-0.47 0.748-0.4 0.334 0.009 0.504 0.33 0.661 0.575-0.074 0.004-0.221 0.010-0.295 0.014-0.145-0.127-0.302-0.239-0.465-0.34-0.080 0.058-0.239 0.172-0.32 0.23-0.11-0.026-0.219-0.051-0.33-0.078z"></path>
<path fill="#fff" d="M12.42 17.584c0.267 0.055 0.436 0.273 0.657 0.408 0.199-0.028 0.397-0.085 0.599-0.091 0.132 0.253-0.273 0.377-0.463 0.402-0.435 0.077-0.712-0.35-0.793-0.719z"></path>
<path fill="#030303" d="M13.756 6.471c1.069 0.004 2.139-0.001 3.21 0.003 0.286 0.259 0.67 0.483 0.715 0.906 0.053 0.397 0.28 0.714 0.578 0.966 0.013 0.389 0.023 0.776 0.035 1.165-0.162 0.141-0.322 0.284-0.481 0.429 0.001 0.331 0.001 0.662 0.003 0.993-0.201 0-0.402 0-0.602 0.001-0.001-0.325 0-0.648 0-0.97-1.224-0.001-2.447 0-3.672-0.001 0.001 0.323 0.001 0.647 0.001 0.97-0.214 0-0.427 0-0.642 0 0-0.323 0.001-0.648 0-0.972-0.135-0.142-0.27-0.284-0.406-0.425-0.001-0.398-0.003-0.796 0-1.195 0.145-0.14 0.304-0.267 0.431-0.425 0.114-0.29 0.144-0.608 0.267-0.896 0.16-0.209 0.37-0.373 0.563-0.551M13.676 6.875c-0.092 0.362-0.182 0.725-0.273 1.088 1.303 0 2.604 0 3.907 0-0.071-0.368-0.145-0.737-0.217-1.105-1.138-0.003-2.278 0.021-3.416 0.017M13.17 8.807c-0.204 0.25 0.162 0.64 0.404 0.393 0.321-0.226-0.15-0.712-0.404-0.393M17.229 8.759c-0.277 0.121-0.082 0.616 0.21 0.502 0.412-0.074 0.141-0.757-0.21-0.502z"></path>
<path fill="#030303" d="M23.882 10.435l0.118-0.024v0.213c-0.040-0.019-0.119-0.060-0.16-0.080l0.042-0.109z"></path>
<path fill="#030303" d="M5.814 11.009c0.163-0.047 0.327-0.095 0.493-0.139-0.131 0.091-0.263 0.18-0.397 0.267 0.041 0.086 0.125 0.258 0.166 0.344-0.037 0.098-0.076 0.195-0.113 0.293 0.521 0.468 1.158 1.064 1.916 0.746 0.027-0.246-0.033-0.471-0.195-0.657 0.279 0.009 0.558 0.008 0.837 0.001-0.131 0.121-0.264 0.24-0.393 0.364 0.511 0.059 1.027 0.042 1.541 0.054-0.039 0.060-0.114 0.184-0.153 0.244 0.213 0.231 0.503 0.471 0.481 0.818 0.037 0.558-0.436 1.118-1.018 1.068-0.422 0.022-0.725-0.309-0.929-0.637-0.358-0.040-0.715-0.096-1.068-0.168-0.032-0.195-0.064-0.389-0.096-0.583-0.363-0.252-0.724-0.507-1.079-0.767l-0.146 0.216c0.372 0.259 0.625 0.657 0.642 1.119-0.28 0.325-0.495 0.821-0.997 0.811-0.642 0.098-1.194-0.612-0.956-1.212 0.096-0.368 0.475-0.52 0.751-0.732 0.153 0.006 0.307 0.014 0.459 0.022 0.041-0.076 0.124-0.227 0.167-0.303-0.157-0.054-0.313-0.107-0.47-0.157 0.009-0.074 0.027-0.225 0.036-0.299 0.221-0.023 0.44-0.049 0.658-0.077-0.040-0.213-0.090-0.425-0.137-0.637M8.412 12.914c0.223 0.302 0.597-0.064 0.861 0.139 0.255 0.16 0.275 0.561 0.045 0.752-0.298 0.271-0.674-0.113-1.015-0.017 0.239 0.307 0.666 0.531 1.042 0.325 0.479-0.221 0.553-0.954 0.119-1.258-0.311-0.271-0.741-0.13-1.052 0.059M4.51 13.716c0.16 0.628 1.126 0.719 1.387 0.123 0.214-0.358-0.003-0.751-0.255-1.018-0.163 0.281-0.182 0.711-0.544 0.821 0.071-0.321 0.203-0.621 0.305-0.932-0.538-0.028-1.077 0.441-0.893 1.005z"></path>
<path fill="#030303" d="M9.504 15.78c0.177-0.304 0.388-0.666 0.797-0.563-0.263 0.14-0.485 0.336-0.655 0.581 0.558 0.012 1.093 0.159 1.63 0.296 0.653-0.005 1.301-0.105 1.955-0.137 0.059 0.212 0.119 0.425 0.18 0.637 0.501 0.176 0.751 0.642 0.886 1.122-0.009 0.092-0.017 0.185-0.026 0.277-0.317 0.271-0.579 0.694-1.050 0.683-0.535 0.060-0.961-0.363-1.12-0.838-0.764 0.154-1.567 0.069-2.323-0.087-0.017-0.239 0.067-0.449 0.226-0.622-0.311-0.141-0.604-0.605-0.97-0.352 0.196 0.311 0.393 0.67 0.294 1.052-0.124 0.679-0.969 1.081-1.568 0.719-0.679-0.332-0.752-1.393-0.122-1.812 0.341-0.294 0.803-0.194 1.203-0.117 0.035-0.287-0.078-0.585 0.036-0.875 0.209 0.012 0.418 0.024 0.629 0.037M7.591 17.587c-0.054 0.583 0.757 0.945 1.153 0.51 0.293-0.244 0.207-0.647 0.109-0.963-0.056 0.051-0.169 0.153-0.226 0.204-0.019 0.199 0.039 0.517-0.213 0.589-0.223 0.112-0.544-0.087-0.495-0.344-0.030-0.244 0.264-0.296 0.424-0.386 0.055-0.071 0.163-0.209 0.218-0.279-0.439-0.083-0.981 0.166-0.969 0.669M12.477 17.367c0.11 0.027 0.219 0.053 0.33 0.078 0.081-0.058 0.24-0.172 0.32-0.23 0.163 0.101 0.32 0.213 0.465 0.34 0.074-0.004 0.221-0.010 0.295-0.014-0.157-0.245-0.327-0.566-0.661-0.575-0.323-0.069-0.548 0.196-0.748 0.4M12.42 17.584c0.081 0.368 0.358 0.796 0.793 0.719 0.19-0.024 0.595-0.149 0.463-0.402-0.203 0.006-0.4 0.063-0.599 0.091-0.221-0.135-0.39-0.353-0.657-0.408z"></path>
</svg>
