<!-- Generated by IcoMoon.io -->
<svg version="1.1" xmlns="http://www.w3.org/2000/svg" width="24" height="24" viewBox="0 0 24 24">
<title>regulatory--maximum-speed-limit-led-80--g2</title>
<path fill="#fff" d="M3.128 0h17.741c0.489 0.151 0.757 0.683 0.749 1.171 0.001 7.219 0.001 14.439 0 21.658 0.008 0.488-0.259 1.018-0.748 1.171h-17.738c-0.49-0.151-0.759-0.683-0.75-1.17-0.001-7.22-0.001-14.439 0-21.659-0.009-0.488 0.259-1.016 0.746-1.17M3.629 0.592c-0.47 0.097-0.75 0.592-0.764 1.044-0.002 6.893 0 13.787-0.001 20.68 0 0.402 0.195 0.827 0.56 1.020 0.2 0.11 0.435 0.087 0.654 0.089 5.376-0.001 10.751 0 16.127-0.001 0.55 0.007 0.921-0.555 0.929-1.060 0.003-6.894 0-13.787 0.001-20.681-0-0.402-0.195-0.827-0.561-1.021-0.215-0.117-0.466-0.084-0.7-0.088-5.345 0-10.69 0.001-16.035-0-0.071 0.001-0.142 0.004-0.211 0.017z"></path>
<path fill="#fff" d="M4.049 1.196c0.069-0.017 0.142-0.019 0.213-0.021 5.159 0 10.318 0 15.476 0 0.564-0.028 0.931 0.559 0.922 1.071 0.002 6.503 0.002 13.006 0 19.509 0.005 0.494-0.331 1.064-0.874 1.069-5.191 0.001-10.382 0.001-15.573 0-0.543-0.004-0.88-0.574-0.874-1.069-0.002-6.487 0-12.974-0.001-19.461-0.012-0.458 0.233-0.982 0.71-1.098M5.234 3.031c-0.306 0.306-0.289 0.878 0.057 1.148 0.334 0.274 0.793 0.301 1.148 0.536 0.237 0.141 0.193 0.533-0.060 0.63-0.375 0.169-0.814-0.057-0.966-0.422-0.172 0.066-0.345 0.127-0.517 0.196 0.225 0.797 1.305 1.074 1.939 0.59 0.406-0.306 0.456-0.978 0.088-1.333-0.33-0.322-0.815-0.363-1.2-0.585-0.162-0.087-0.176-0.335-0.023-0.437 0.282-0.181 0.699-0.065 0.847 0.237 0.165-0.058 0.332-0.113 0.498-0.168-0.193-0.767-1.297-0.913-1.81-0.391M7.933 2.775c-0.007 1.042 0.001 2.083-0.005 3.124 0.187-0.003 0.374-0.002 0.561-0.001 0.005-0.391 0-0.782 0.003-1.172 0.443-0.028 0.93 0.089 1.33-0.157 0.506-0.303 0.593-1.082 0.195-1.507-0.212-0.221-0.532-0.29-0.828-0.29-0.419 0.001-0.838-0.003-1.257 0.003M10.892 2.778c-0.009 1.040-0.001 2.080-0.004 3.12 0.71-0.002 1.42 0.001 2.13-0.002 0.003-0.18 0.003-0.36-0.001-0.54-0.521-0.006-1.043-0-1.564-0.003-0.001-0.262-0-0.524 0-0.787 0.301-0.001 0.603 0.001 0.905-0.001 0.005-0.178 0.005-0.355 0.003-0.533-0.302-0.001-0.605 0-0.908-0.001 0-0.237-0-0.475 0-0.712 0.489-0 0.979 0.001 1.469-0.001 0.003-0.18 0.004-0.36-0-0.54-0.677-0.004-1.353-0.005-2.030 0M13.745 2.778c-0.006 1.040 0.002 2.080-0.004 3.12 0.71-0.006 1.419 0.001 2.129-0.003 0.007-0.18 0.007-0.36 0.002-0.541-0.523-0.005-1.045 0-1.567-0.002-0.001-0.262-0.001-0.525 0-0.787 0.302-0.001 0.604 0.001 0.906-0.001 0.006-0.177 0.006-0.355 0.004-0.532-0.304-0.001-0.607 0-0.911-0 0-0.238-0-0.475 0-0.712 0.489-0.001 0.979 0 1.468-0.001 0.008-0.18 0.007-0.361 0.002-0.542-0.677-0.002-1.353-0.005-2.030 0.002M16.587 2.775c-0.002 1.041-0.004 2.082 0 3.122 0.655-0.032 1.416 0.137 1.957-0.336 0.648-0.603 0.658-1.772 0.048-2.406-0.536-0.516-1.333-0.356-2.005-0.381M6.353 7.419c-0.006 1.038-0.002 2.077-0.002 3.114 0.682 0.002 1.364 0.001 2.046 0 0.001-0.182 0.001-0.364-0-0.546-0.494-0.004-0.987 0-1.48-0.002-0.003-0.855 0.003-1.711-0.003-2.567-0.187-0.003-0.373-0.003-0.56 0M9.038 7.418c-0.003 1.038-0.001 2.077-0.001 3.116 0.188 0.001 0.377 0.002 0.566-0.001 0.003-1.039 0.003-2.077-0-3.116-0.188-0.004-0.376-0.004-0.564 0.001M10.516 7.417c-0.007 1.039-0.002 2.078-0.003 3.117 0.188 0.001 0.375 0.001 0.563 0 0-0.627 0.006-1.253-0.004-1.88 0.269 0.66 0.571 1.306 0.852 1.962 0.285-0.655 0.597-1.299 0.854-1.966-0.016 0.628-0.004 1.256-0.008 1.884 0.188 0.001 0.376 0.001 0.565-0.001 0.003-1.039 0.005-2.078-0-3.117-0.18-0.002-0.36-0.002-0.541 0-0.286 0.667-0.599 1.322-0.861 1.998-0.264-0.675-0.574-1.331-0.857-1.998-0.187-0.003-0.374-0.004-0.56 0.001M14.254 7.415c0 1.040 0.001 2.080-0 3.12 0.185-0.002 0.37-0.001 0.555-0.001-0.001-1.040 0-2.079-0.001-3.119-0.184-0.002-0.369-0.002-0.554-0M15.528 7.41c-0.003 0.181-0.003 0.363-0 0.545 0.291 0.003 0.581 0 0.871 0.002 0.001 0.859-0 1.718 0.001 2.577 0.188 0.001 0.375 0.001 0.563-0 0.002-0.859 0-1.718 0.001-2.577 0.288-0.001 0.577 0 0.865-0.001 0-0.182 0.001-0.364-0.001-0.546-0.766-0.001-1.533-0.003-2.299 0M5.33 11.526c-0.241 0.038-0.542 0.189-0.541 0.47 0.001 2.893-0.002 5.785 0.001 8.677 0.037 0.318 0.41 0.453 0.69 0.454 4.347 0.001 8.693 0.001 13.039 0 0.28-0.001 0.654-0.136 0.69-0.454 0.004-2.892 0.001-5.785 0.002-8.677-0.001-0.295-0.323-0.444-0.577-0.476-0.543-0.045-1.091 0.019-1.633-0.034-0.016 0-0.047 0-0.063 0-0.399 0.032-0.804 0.031-1.204 0-0.015 0-0.047-0-0.062-0-0.4 0.033-0.805 0.031-1.204 0.001-0.015-0-0.046-0.001-0.062-0.002-1.68 0.035-3.366 0.033-5.047 0.001-0.015-0-0.047-0.001-0.062-0.001-0.4 0.033-0.804 0.031-1.204 0.002-0.015-0-0.046-0.001-0.062-0.002-0.412 0.034-0.828 0.032-1.24 0.001l-0.033 0c-0.474 0.053-0.954-0.016-1.428 0.040z"></path>
<path fill="#fff" d="M8.492 3.319c0.305 0.015 0.618-0.032 0.919 0.025 0.364 0.105 0.361 0.712-0.003 0.814-0.302 0.044-0.611 0.009-0.916 0.020-0.001-0.286-0.001-0.572 0-0.858z"></path>
<path fill="#fff" d="M17.147 3.318c0.357 0.010 0.79-0.075 1.052 0.233 0.349 0.442 0.348 1.161-0.031 1.585-0.264 0.282-0.675 0.208-1.020 0.215-0.001-0.678 0-1.356-0.001-2.034z"></path>
<path fill="#000" d="M3.629 0.592c0.069-0.013 0.141-0.016 0.211-0.017 5.345 0.001 10.69 0 16.035 0 0.234 0.004 0.486-0.029 0.7 0.088 0.366 0.194 0.56 0.619 0.561 1.021-0.001 6.893 0.001 13.787-0.001 20.681-0.008 0.505-0.379 1.066-0.929 1.060-5.376 0.001-10.751 0-16.127 0.001-0.219-0.001-0.454 0.022-0.654-0.089-0.365-0.194-0.56-0.619-0.56-1.020 0.001-6.893-0.001-13.787 0.001-20.68 0.013-0.452 0.294-0.947 0.764-1.044M4.049 1.196c-0.477 0.116-0.722 0.64-0.71 1.098 0.001 6.487-0.001 12.974 0.001 19.461-0.006 0.495 0.331 1.065 0.874 1.069 5.191 0.001 10.382 0.001 15.573 0 0.543-0.005 0.879-0.575 0.874-1.069 0.002-6.503 0.002-13.006 0-19.509 0.009-0.511-0.359-1.098-0.922-1.071-5.159 0-10.318 0-15.476 0-0.072 0.001-0.144 0.004-0.213 0.021z"></path>
<path fill="#000" d="M5.234 3.031c0.513-0.521 1.617-0.375 1.81 0.391-0.166 0.054-0.333 0.11-0.498 0.168-0.148-0.302-0.565-0.419-0.847-0.237-0.153 0.102-0.139 0.351 0.023 0.437 0.386 0.222 0.871 0.263 1.2 0.585 0.368 0.355 0.319 1.028-0.088 1.333-0.634 0.485-1.713 0.207-1.939-0.59 0.171-0.069 0.345-0.13 0.517-0.196 0.152 0.365 0.592 0.591 0.966 0.422 0.253-0.097 0.298-0.489 0.060-0.63-0.355-0.234-0.814-0.262-1.148-0.536-0.346-0.27-0.363-0.842-0.057-1.148z"></path>
<path fill="#000" d="M7.933 2.775c0.419-0.006 0.838-0.001 1.257-0.003 0.296 0 0.615 0.069 0.828 0.29 0.397 0.425 0.311 1.204-0.195 1.507-0.401 0.245-0.888 0.129-1.33 0.157-0.002 0.39 0.002 0.781-0.003 1.172-0.187-0.001-0.374-0.002-0.561 0.001 0.006-1.041-0.002-2.083 0.005-3.124M8.492 3.319c-0.001 0.286-0.001 0.572 0 0.858 0.305-0.010 0.614 0.024 0.916-0.020 0.364-0.102 0.367-0.709 0.003-0.814-0.3-0.057-0.614-0.010-0.919-0.025z"></path>
<path fill="#000" d="M10.892 2.778c0.676-0.006 1.353-0.004 2.030-0 0.004 0.18 0.004 0.36 0 0.54-0.49 0.003-0.979 0.001-1.469 0.001-0.001 0.237-0 0.475-0 0.712 0.303 0.001 0.606-0 0.908 0.001 0.002 0.178 0.002 0.355-0.003 0.533-0.301 0.002-0.603 0-0.905 0.001-0 0.262-0.001 0.525 0 0.787 0.521 0.002 1.043-0.003 1.564 0.003 0.004 0.18 0.004 0.36 0.001 0.54-0.71 0.003-1.42 0-2.13 0.002 0.003-1.040-0.005-2.080 0.004-3.12z"></path>
<path fill="#000" d="M13.745 2.778c0.676-0.007 1.353-0.004 2.030-0.002 0.005 0.18 0.006 0.361-0.002 0.542-0.489 0.001-0.979-0-1.468 0.001-0.001 0.237-0 0.474-0 0.712 0.303 0 0.607-0.001 0.911 0 0.002 0.178 0.002 0.355-0.004 0.532-0.302 0.003-0.604 0-0.906 0.001-0.001 0.262-0.001 0.525 0 0.787 0.522 0.002 1.044-0.003 1.567 0.002 0.005 0.18 0.005 0.361-0.002 0.541-0.71 0.005-1.419-0.002-2.129 0.003 0.006-1.040-0.002-2.080 0.004-3.12z"></path>
<path fill="#000" d="M16.587 2.775c0.673 0.025 1.469-0.135 2.005 0.381 0.61 0.633 0.6 1.802-0.048 2.406-0.541 0.473-1.301 0.304-1.957 0.336-0.004-1.041-0.003-2.082-0-3.122M17.147 3.318c0.001 0.678 0 1.356 0.001 2.034 0.345-0.007 0.756 0.067 1.020-0.215 0.379-0.424 0.38-1.143 0.031-1.585-0.262-0.309-0.695-0.223-1.052-0.233z"></path>
<path fill="#000" d="M6.353 7.419c0.187-0.003 0.373-0.003 0.56 0 0.007 0.855 0 1.711 0.003 2.567 0.493 0.002 0.987-0.002 1.48 0.002 0.001 0.182 0.001 0.364 0 0.546-0.682 0-1.364 0.001-2.046-0-0-1.038-0.004-2.076 0.002-3.114z"></path>
<path fill="#000" d="M9.038 7.418c0.188-0.006 0.376-0.006 0.564-0.001 0.004 1.039 0.003 2.077 0 3.116-0.188 0.003-0.377 0.002-0.566 0.001 0-1.039-0.002-2.077 0.001-3.116z"></path>
<path fill="#000" d="M10.516 7.417c0.187-0.005 0.374-0.004 0.56-0.001 0.283 0.667 0.592 1.323 0.857 1.998 0.262-0.676 0.575-1.332 0.861-1.998 0.18-0.002 0.36-0.002 0.541 0 0.005 1.039 0.004 2.078 0 3.117-0.188 0.002-0.376 0.002-0.565 0.001 0.004-0.628-0.009-1.256 0.008-1.884-0.257 0.667-0.568 1.311-0.854 1.966-0.281-0.655-0.584-1.301-0.852-1.962 0.010 0.627 0.004 1.253 0.004 1.88-0.188 0.001-0.375 0.001-0.563 0 0.001-1.039-0.004-2.078 0.003-3.117z"></path>
<path fill="#000" d="M14.254 7.415c0.185-0.001 0.369-0.002 0.554 0 0.002 1.040 0 2.079 0.001 3.119-0.186-0-0.371-0.001-0.555 0.001 0.002-1.040 0-2.080 0-3.12z"></path>
<path fill="#000" d="M15.528 7.41c0.766-0.003 1.533-0.002 2.299-0 0.002 0.182 0.002 0.364 0.001 0.546-0.289 0.001-0.577 0-0.865 0.001-0.001 0.859 0.001 1.718-0.001 2.577-0.188 0.002-0.375 0.001-0.563 0-0.001-0.859 0-1.718-0.001-2.577-0.29-0.001-0.58 0.001-0.871-0.002-0.002-0.181-0.002-0.363 0-0.545z"></path>
<path fill="#000" d="M5.33 11.526c0.473-0.056 0.953 0.014 1.428-0.040-0.233 0.050-0.441 0.231-0.483 0.472-0.060 0.347 0.327 0.676 0.66 0.564 0.268-0.077 0.434-0.396 0.331-0.658-0.073-0.204-0.271-0.33-0.475-0.379 0.412 0.031 0.829 0.033 1.24-0.001-0.233 0.051-0.442 0.232-0.484 0.473-0.059 0.345 0.325 0.673 0.657 0.565 0.27-0.076 0.444-0.403 0.332-0.666-0.072-0.192-0.255-0.31-0.442-0.37 0.4 0.030 0.804 0.031 1.204-0.002-0.232 0.055-0.438 0.237-0.478 0.478-0.054 0.343 0.325 0.667 0.656 0.561 0.274-0.076 0.448-0.409 0.33-0.674-0.075-0.19-0.258-0.307-0.446-0.364 1.68 0.031 3.367 0.034 5.047-0.001-0.232 0.052-0.439 0.233-0.482 0.473-0.058 0.345 0.323 0.672 0.655 0.565 0.273-0.075 0.444-0.403 0.333-0.667-0.072-0.192-0.256-0.31-0.443-0.37 0.399 0.030 0.804 0.031 1.204-0.001-0.232 0.055-0.437 0.238-0.477 0.478-0.053 0.339 0.316 0.659 0.644 0.564 0.268-0.068 0.447-0.378 0.355-0.643-0.066-0.207-0.261-0.339-0.46-0.399 0.399 0.031 0.804 0.032 1.204 0-0.228 0.058-0.433 0.24-0.47 0.48-0.052 0.34 0.32 0.659 0.648 0.561 0.269-0.069 0.444-0.383 0.349-0.647-0.068-0.206-0.263-0.337-0.464-0.393 0.542 0.053 1.090-0.011 1.633 0.034 0.254 0.032 0.576 0.181 0.577 0.476-0.001 2.892 0.002 5.785-0.002 8.677-0.036 0.318-0.41 0.453-0.69 0.454-4.346 0.001-8.692 0.001-13.039 0-0.28-0.001-0.653-0.136-0.69-0.454-0.003-2.892-0-5.785-0.001-8.677-0.001-0.28 0.3-0.432 0.541-0.47M5.36 12.817c-0.175 0.063-0.308 0.225-0.354 0.403-0.084 0.353 0.31 0.703 0.652 0.592 0.197-0.059 0.351-0.246 0.363-0.452 0.033-0.335-0.333-0.658-0.66-0.543M10.468 12.812c-0.348 0.1-0.523 0.602-0.227 0.855 0.224 0.263 0.68 0.194 0.82-0.119 0.205-0.366-0.195-0.857-0.593-0.735M13.001 12.821c-0.238 0.093-0.414 0.371-0.338 0.626 0.057 0.189 0.23 0.336 0.42 0.379 0.271 0.053 0.55-0.161 0.583-0.432 0.060-0.349-0.325-0.701-0.666-0.573M18.109 12.814c-0.187 0.064-0.33 0.24-0.367 0.434-0.060 0.348 0.331 0.677 0.665 0.562 0.193-0.061 0.342-0.246 0.355-0.45 0.030-0.332-0.326-0.651-0.652-0.546M5.493 14.083c-0.384 0.004-0.662 0.526-0.383 0.822 0.205 0.28 0.673 0.265 0.841-0.045 0.216-0.325-0.085-0.788-0.458-0.777M10.562 14.085c-0.379 0.022-0.637 0.544-0.352 0.83 0.21 0.278 0.681 0.248 0.84-0.067 0.207-0.333-0.113-0.793-0.488-0.763M13.14 14.084c-0.243 0.006-0.444 0.219-0.489 0.449-0.045 0.268 0.178 0.513 0.428 0.569 0.263 0.054 0.539-0.142 0.584-0.404 0.066-0.307-0.216-0.622-0.524-0.615M16.936 14.085c-0.377 0.023-0.633 0.543-0.351 0.829 0.203 0.266 0.649 0.256 0.822-0.036 0.241-0.331-0.080-0.827-0.472-0.793M18.203 14.085c-0.386 0.030-0.632 0.573-0.324 0.848 0.222 0.27 0.69 0.21 0.833-0.109 0.185-0.337-0.141-0.776-0.509-0.74M6.583 15.399c-0.155 0.078-0.273 0.23-0.308 0.399-0.063 0.346 0.323 0.67 0.653 0.564 0.208-0.058 0.366-0.261 0.367-0.478 0.010-0.344-0.391-0.644-0.712-0.486M7.889 15.385c-0.173 0.068-0.304 0.233-0.342 0.414-0.063 0.343 0.318 0.665 0.647 0.565 0.197-0.053 0.351-0.234 0.372-0.437 0.041-0.345-0.345-0.672-0.677-0.542M9.155 15.387c-0.171 0.072-0.3 0.236-0.336 0.417-0.057 0.341 0.32 0.659 0.647 0.561 0.21-0.056 0.37-0.257 0.375-0.474 0.011-0.335-0.365-0.635-0.686-0.503M12.959 15.399c-0.154 0.078-0.272 0.23-0.307 0.399-0.063 0.345 0.322 0.668 0.652 0.564 0.207-0.057 0.365-0.257 0.368-0.472 0.014-0.346-0.39-0.652-0.713-0.492M15.531 15.388c-0.171 0.072-0.299 0.237-0.335 0.418-0.056 0.34 0.32 0.656 0.646 0.56 0.21-0.055 0.373-0.257 0.377-0.475 0.011-0.335-0.367-0.636-0.688-0.503M18.064 15.393c-0.166 0.078-0.293 0.241-0.323 0.422-0.046 0.332 0.314 0.638 0.634 0.553 0.216-0.050 0.386-0.255 0.389-0.478 0.013-0.34-0.377-0.643-0.699-0.498M5.357 16.653c-0.334 0.109-0.498 0.594-0.209 0.839 0.227 0.262 0.69 0.19 0.826-0.128 0.198-0.372-0.224-0.851-0.617-0.711M10.423 16.663c-0.31 0.122-0.462 0.571-0.197 0.815 0.227 0.28 0.713 0.209 0.846-0.127 0.19-0.381-0.258-0.858-0.649-0.689M12.999 16.656c-0.173 0.066-0.304 0.229-0.346 0.408-0.070 0.35 0.323 0.68 0.656 0.571 0.193-0.056 0.343-0.236 0.36-0.437 0.040-0.342-0.341-0.667-0.671-0.542M14.266 16.658c-0.172 0.068-0.301 0.232-0.341 0.411-0.065 0.345 0.319 0.67 0.65 0.568 0.197-0.054 0.352-0.238 0.368-0.443 0.036-0.343-0.348-0.665-0.677-0.536M18.066 16.665c-0.204 0.096-0.362 0.325-0.323 0.556 0.034 0.213 0.222 0.378 0.426 0.427 0.277 0.058 0.568-0.163 0.591-0.444 0.046-0.353-0.359-0.688-0.694-0.539M5.36 17.925c-0.176 0.062-0.31 0.225-0.355 0.405-0.076 0.346 0.307 0.68 0.64 0.582 0.2-0.052 0.359-0.236 0.375-0.442 0.038-0.338-0.333-0.659-0.66-0.544M10.467 17.92c-0.2 0.063-0.354 0.256-0.378 0.463-0.024 0.256 0.19 0.481 0.428 0.537 0.266 0.056 0.547-0.144 0.589-0.41 0.071-0.345-0.3-0.694-0.639-0.59M13.001 17.928c-0.185 0.071-0.326 0.25-0.353 0.446-0.030 0.264 0.194 0.498 0.441 0.548 0.265 0.049 0.539-0.154 0.577-0.419 0.067-0.351-0.323-0.703-0.665-0.576M18.108 17.922c-0.18 0.060-0.317 0.225-0.362 0.407-0.075 0.336 0.284 0.661 0.612 0.589 0.212-0.042 0.386-0.233 0.403-0.449 0.037-0.335-0.326-0.653-0.652-0.547M6.671 19.187c-0.206 0.053-0.366 0.245-0.4 0.452-0.042 0.337 0.328 0.642 0.65 0.545 0.186-0.050 0.336-0.213 0.366-0.403 0.068-0.336-0.284-0.677-0.616-0.594M7.937 19.189c-0.204 0.056-0.362 0.247-0.394 0.453-0.033 0.263 0.187 0.499 0.433 0.553 0.255 0.051 0.524-0.134 0.579-0.386 0.092-0.344-0.275-0.712-0.618-0.62M9.204 19.19c-0.341 0.089-0.531 0.57-0.255 0.83 0.221 0.277 0.699 0.222 0.841-0.105 0.2-0.36-0.197-0.837-0.586-0.725M14.313 19.189c-0.191 0.052-0.337 0.224-0.385 0.412-0.077 0.345 0.301 0.68 0.636 0.585 0.192-0.048 0.348-0.218 0.376-0.415 0.058-0.335-0.296-0.671-0.627-0.582M15.579 19.191c-0.34 0.090-0.529 0.57-0.254 0.829 0.221 0.276 0.698 0.222 0.841-0.104 0.2-0.361-0.198-0.838-0.587-0.726M16.846 19.192c-0.188 0.058-0.331 0.231-0.375 0.42-0.066 0.338 0.298 0.659 0.625 0.578 0.195-0.043 0.356-0.212 0.387-0.41 0.067-0.342-0.3-0.69-0.637-0.588z"></path>
<path fill="#ccc" d="M6.758 11.486l0.033-0c0.203 0.048 0.402 0.174 0.475 0.379 0.103 0.262-0.063 0.581-0.331 0.658-0.333 0.112-0.72-0.217-0.66-0.564 0.042-0.24 0.25-0.422 0.483-0.472z"></path>
<path fill="#ccc" d="M8.031 11.484c0.015 0 0.046 0.001 0.062 0.002 0.187 0.060 0.371 0.179 0.443 0.37 0.112 0.263-0.061 0.59-0.332 0.666-0.332 0.108-0.716-0.219-0.657-0.565 0.042-0.241 0.251-0.423 0.484-0.473z"></path>
<path fill="#ccc" d="M9.297 11.484c0.015 0 0.047 0.001 0.062 0.001 0.188 0.057 0.371 0.174 0.446 0.364 0.118 0.265-0.056 0.598-0.33 0.674-0.33 0.105-0.71-0.218-0.656-0.561 0.040-0.241 0.247-0.423 0.478-0.478z"></path>
<path fill="#ccc" d="M14.406 11.484c0.016 0 0.047 0.001 0.062 0.002 0.187 0.060 0.371 0.178 0.443 0.37 0.111 0.264-0.060 0.593-0.333 0.667-0.332 0.107-0.713-0.221-0.655-0.565 0.043-0.24 0.249-0.422 0.482-0.473z"></path>
<path fill="#ccc" d="M15.672 11.485c0.015 0 0.047 0 0.062 0 0.2 0.060 0.394 0.192 0.46 0.399 0.092 0.264-0.087 0.575-0.355 0.643-0.328 0.095-0.697-0.225-0.644-0.564 0.039-0.24 0.245-0.423 0.477-0.478z"></path>
<path fill="#ccc" d="M16.938 11.485c0.016 0 0.047 0 0.063 0 0.201 0.056 0.396 0.187 0.464 0.393 0.095 0.264-0.080 0.578-0.349 0.647-0.328 0.098-0.7-0.221-0.648-0.561 0.038-0.24 0.242-0.421 0.47-0.48z"></path>
<path fill="#ccc" d="M5.36 12.817c0.327-0.115 0.693 0.208 0.66 0.543-0.012 0.206-0.166 0.393-0.363 0.452-0.341 0.111-0.735-0.239-0.652-0.592 0.046-0.178 0.179-0.339 0.354-0.403z"></path>
<path fill="#ccc" d="M10.468 12.812c0.397-0.122 0.798 0.37 0.593 0.735-0.14 0.313-0.597 0.382-0.82 0.119-0.296-0.253-0.12-0.754 0.227-0.855z"></path>
<path fill="#ccc" d="M13.001 12.821c0.34-0.128 0.726 0.225 0.666 0.573-0.033 0.27-0.312 0.485-0.583 0.432-0.19-0.044-0.363-0.19-0.42-0.379-0.076-0.255 0.1-0.533 0.338-0.626z"></path>
<path fill="#ccc" d="M18.109 12.814c0.326-0.105 0.683 0.214 0.652 0.546-0.013 0.204-0.162 0.388-0.355 0.45-0.333 0.115-0.724-0.214-0.665-0.562 0.037-0.193 0.18-0.369 0.367-0.434z"></path>
<path fill="#ccc" d="M5.493 14.083c0.374-0.011 0.674 0.451 0.458 0.777-0.168 0.31-0.636 0.325-0.841 0.045-0.279-0.295-0.001-0.817 0.383-0.822z"></path>
<path fill="#ccc" d="M10.562 14.085c0.375-0.030 0.696 0.429 0.488 0.763-0.16 0.315-0.63 0.345-0.84 0.067-0.285-0.286-0.027-0.808 0.352-0.83z"></path>
<path fill="#ccc" d="M13.14 14.084c0.308-0.008 0.59 0.308 0.524 0.615-0.045 0.262-0.322 0.458-0.584 0.404-0.25-0.056-0.474-0.301-0.428-0.569 0.045-0.23 0.246-0.443 0.489-0.449z"></path>
<path fill="#ccc" d="M16.936 14.085c0.391-0.034 0.713 0.462 0.472 0.793-0.173 0.292-0.619 0.301-0.822 0.036-0.283-0.285-0.027-0.805 0.351-0.829z"></path>
<path fill="#ccc" d="M18.203 14.085c0.368-0.036 0.694 0.403 0.509 0.74-0.143 0.319-0.611 0.379-0.833 0.109-0.308-0.276-0.062-0.819 0.324-0.848z"></path>
<path fill="#ccc" d="M6.583 15.399c0.321-0.158 0.722 0.142 0.712 0.486-0.001 0.217-0.158 0.42-0.367 0.478-0.33 0.106-0.717-0.218-0.653-0.564 0.035-0.17 0.153-0.322 0.308-0.399z"></path>
<path fill="#ccc" d="M7.889 15.385c0.333-0.13 0.718 0.197 0.677 0.542-0.021 0.203-0.175 0.384-0.372 0.437-0.329 0.1-0.71-0.222-0.647-0.565 0.038-0.181 0.169-0.345 0.342-0.414z"></path>
<path fill="#ccc" d="M9.155 15.387c0.322-0.132 0.697 0.169 0.686 0.503-0.005 0.217-0.165 0.419-0.375 0.474-0.327 0.097-0.704-0.22-0.647-0.561 0.036-0.18 0.165-0.345 0.336-0.417z"></path>
<path fill="#ccc" d="M12.959 15.399c0.323-0.16 0.727 0.146 0.713 0.492-0.004 0.215-0.162 0.414-0.368 0.472-0.33 0.104-0.714-0.219-0.652-0.564 0.035-0.17 0.153-0.321 0.307-0.399z"></path>
<path fill="#ccc" d="M15.531 15.388c0.321-0.133 0.699 0.168 0.688 0.503-0.004 0.218-0.167 0.42-0.377 0.475-0.326 0.096-0.702-0.22-0.646-0.56 0.036-0.18 0.165-0.346 0.335-0.418z"></path>
<path fill="#ccc" d="M18.064 15.393c0.322-0.145 0.713 0.158 0.699 0.498-0.003 0.223-0.173 0.428-0.389 0.478-0.32 0.084-0.68-0.221-0.634-0.553 0.030-0.181 0.157-0.345 0.323-0.422z"></path>
<path fill="#ccc" d="M5.357 16.653c0.393-0.141 0.816 0.339 0.617 0.711-0.136 0.318-0.599 0.39-0.826 0.128-0.289-0.245-0.126-0.73 0.209-0.839z"></path>
<path fill="#ccc" d="M10.423 16.663c0.391-0.169 0.839 0.308 0.649 0.689-0.133 0.336-0.619 0.407-0.846 0.127-0.264-0.244-0.113-0.693 0.197-0.815z"></path>
<path fill="#ccc" d="M12.999 16.656c0.33-0.124 0.711 0.201 0.671 0.542-0.017 0.201-0.168 0.381-0.36 0.437-0.334 0.109-0.727-0.221-0.656-0.571 0.042-0.179 0.173-0.342 0.346-0.408z"></path>
<path fill="#ccc" d="M14.266 16.658c0.33-0.129 0.713 0.193 0.677 0.536-0.016 0.205-0.171 0.389-0.368 0.443-0.331 0.102-0.715-0.223-0.65-0.568 0.039-0.179 0.169-0.342 0.341-0.411z"></path>
<path fill="#ccc" d="M18.066 16.665c0.335-0.15 0.74 0.185 0.694 0.539-0.023 0.281-0.315 0.502-0.591 0.444-0.204-0.048-0.392-0.214-0.426-0.427-0.039-0.231 0.119-0.46 0.323-0.556z"></path>
<path fill="#ccc" d="M5.36 17.925c0.327-0.114 0.699 0.206 0.66 0.544-0.016 0.207-0.175 0.39-0.375 0.442-0.334 0.098-0.717-0.236-0.64-0.582 0.045-0.18 0.179-0.342 0.355-0.405z"></path>
<path fill="#ccc" d="M10.467 17.92c0.339-0.104 0.71 0.246 0.639 0.59-0.042 0.266-0.323 0.466-0.589 0.41-0.239-0.056-0.453-0.281-0.428-0.537 0.024-0.207 0.179-0.4 0.378-0.463z"></path>
<path fill="#ccc" d="M13.001 17.928c0.341-0.127 0.732 0.225 0.665 0.576-0.038 0.265-0.312 0.468-0.577 0.419-0.247-0.050-0.471-0.284-0.441-0.548 0.027-0.196 0.168-0.375 0.353-0.446z"></path>
<path fill="#ccc" d="M18.108 17.922c0.327-0.106 0.689 0.212 0.652 0.547-0.017 0.217-0.191 0.407-0.403 0.449-0.328 0.073-0.686-0.253-0.612-0.589 0.045-0.182 0.182-0.347 0.362-0.407z"></path>
<path fill="#ccc" d="M6.671 19.187c0.333-0.082 0.684 0.259 0.616 0.594-0.030 0.19-0.18 0.353-0.366 0.403-0.322 0.097-0.692-0.209-0.65-0.545 0.034-0.208 0.194-0.399 0.4-0.452z"></path>
<path fill="#ccc" d="M7.937 19.189c0.344-0.092 0.71 0.276 0.618 0.62-0.055 0.252-0.323 0.437-0.579 0.386-0.246-0.054-0.466-0.29-0.433-0.553 0.031-0.207 0.19-0.398 0.394-0.453z"></path>
<path fill="#ccc" d="M9.204 19.19c0.389-0.112 0.786 0.365 0.586 0.725-0.142 0.326-0.621 0.381-0.841 0.105-0.276-0.26-0.085-0.741 0.255-0.83z"></path>
<path fill="#ccc" d="M14.313 19.189c0.331-0.089 0.685 0.248 0.627 0.582-0.028 0.197-0.184 0.367-0.376 0.415-0.334 0.094-0.712-0.24-0.636-0.585 0.048-0.188 0.194-0.36 0.385-0.412z"></path>
<path fill="#ccc" d="M15.579 19.191c0.39-0.112 0.787 0.364 0.587 0.726-0.144 0.325-0.621 0.38-0.841 0.104-0.275-0.26-0.086-0.739 0.254-0.829z"></path>
<path fill="#ccc" d="M16.846 19.192c0.337-0.102 0.704 0.246 0.637 0.588-0.031 0.198-0.192 0.367-0.387 0.41-0.327 0.081-0.691-0.24-0.625-0.578 0.044-0.189 0.187-0.362 0.375-0.42z"></path>
</svg>
