<?xml version="1.0" encoding="utf-8"?>
<!-- Generated by IcoMoon.io -->
<!DOCTYPE svg PUBLIC "-//W3C//DTD SVG 1.1//EN" "http://www.w3.org/Graphics/SVG/1.1/DTD/svg11.dtd">
<svg version="1.1" xmlns="http://www.w3.org/2000/svg" xmlns:xlink="http://www.w3.org/1999/xlink" width="24" height="24" viewBox="0 0 24 24">
<path fill="#fff" d="M0 4.129h0.219c-0.027 0.039-0.080 0.116-0.107 0.155l-0.112-0.035v-0.12z"></path>
<path fill="#fff" d="M23.748 4.129h0.252v0.225c-0.16 0.008-0.244-0.067-0.252-0.225z"></path>
<path fill="#fff" d="M1.831 8.871c6.57 0 13.141-0.006 19.711 0.003 0.444-0.036 0.852 0.357 0.828 0.804 0.018 1.4 0 2.801 0.008 4.201-1.406 0.199-2.814 0.397-4.214 0.628 0.102-0.863-0.619-1.73-1.514-1.652-0.866 0.017-1.484 0.892-1.351 1.719-2.661-0.005-5.32-0.003-7.979 0 0.135-0.841-0.508-1.726-1.388-1.72-0.908-0.055-1.61 0.85-1.466 1.721-0.95-0.008-1.898-0.001-2.848-0.004-0.001-0.951 0.001-1.903-0.001-2.854 0.053-0.059 0.161-0.179 0.215-0.239-0.001-0.87 0-1.739-0.001-2.608M2.761 9.605c-0.228 0.012-0.288 0.267-0.279 0.453-0.008 1.124 0.004 2.248-0.005 3.372 0.014 0.222-0.045 0.565 0.24 0.644 0.379 0.049 0.77 0.050 1.15-0.006 0.21-0.080 0.204-0.329 0.208-0.514 0.001-1.123-0.004-2.246 0.003-3.369-0.005-0.206 0.012-0.517-0.25-0.575-0.351-0.052-0.714-0.050-1.066-0.004M4.812 9.606c-0.369 0.093-0.232 0.569-0.268 0.846 0.053 0.335-0.135 0.832 0.225 1.036 0.988 0.054 1.981 0.001 2.97 0.025 0.21-0.015 0.503 0.043 0.615-0.191 0.072-0.499 0.054-1.012 0.012-1.514-0.121-0.298-0.493-0.209-0.745-0.231-0.937 0.026-1.875-0.035-2.809 0.028M9.321 9.604c-0.164 0.009-0.276 0.174-0.27 0.329-0.023 0.428-0.031 0.858 0.006 1.285 0.001 0.182 0.188 0.303 0.359 0.286 0.947 0.019 1.895-0.004 2.843 0.009 0.205-0.012 0.497 0.034 0.59-0.206 0.066-0.483 0.053-0.979 0.012-1.465-0.076-0.326-0.48-0.246-0.728-0.265-0.937 0.025-1.876-0.031-2.812 0.026M13.737 9.618c-0.128 0.067-0.192 0.17-0.194 0.311-0.017 0.466-0.046 0.939 0.030 1.403 0.12 0.226 0.406 0.164 0.618 0.182 0.95-0.015 1.899 0.013 2.849-0.012 0.159 0.019 0.308-0.13 0.317-0.283 0.034-0.454 0.040-0.914-0.005-1.366-0.057-0.328-0.461-0.261-0.702-0.275-0.97 0.032-1.948-0.049-2.914 0.040M18.254 9.612c-0.365 0.168-0.187 0.657-0.237 0.973 0.039 0.301-0.119 0.855 0.307 0.912 1.114 0.015 2.234 0.039 3.346-0.013 0.035-0.034 0.105-0.102 0.139-0.137 0.112-0.495 0.066-1.025 0.031-1.529-0.095-0.288-0.445-0.225-0.677-0.24-0.969 0.028-1.942-0.040-2.908 0.034z"></path>
<path fill="#fff" d="M5.592 13.234c0.631-0.203 1.356 0.294 1.388 0.957 0.067 0.597-0.443 1.183-1.048 1.187-0.587 0.041-1.125-0.476-1.13-1.059-0.028-0.488 0.321-0.957 0.79-1.085M5.575 13.823c-0.361 0.234-0.286 0.852 0.124 0.985 0.381 0.16 0.821-0.209 0.742-0.609-0.045-0.396-0.545-0.599-0.866-0.375z"></path>
<path fill="#fff" d="M16.428 13.232c0.777-0.257 1.605 0.561 1.35 1.342-0.179 0.797-1.312 1.088-1.845 0.462-0.569-0.55-0.275-1.623 0.495-1.804M16.414 13.819c-0.37 0.231-0.295 0.865 0.126 0.991 0.379 0.154 0.81-0.217 0.733-0.613-0.045-0.392-0.539-0.595-0.859-0.378z"></path>
<path fill="#038cff" d="M0.219 4.129h23.529c0.008 0.157 0.092 0.232 0.252 0.225v15.517h-24v-15.622l0.112 0.035c0.027-0.039 0.080-0.116 0.107-0.155M1.831 8.871c0.001 0.868 0 1.738 0.001 2.608-0.054 0.059-0.163 0.179-0.215 0.239 0.003 0.951 0 1.903 0.001 2.854 0.95 0.003 1.898-0.004 2.848 0.004-0.145-0.871 0.557-1.777 1.466-1.721 0.88-0.006 1.524 0.879 1.388 1.72 2.659-0.003 5.319-0.005 7.979 0-0.133-0.827 0.485-1.702 1.351-1.719 0.894-0.079 1.615 0.788 1.514 1.652 1.4-0.231 2.808-0.43 4.214-0.628-0.008-1.4 0.010-2.801-0.008-4.201 0.023-0.446-0.385-0.84-0.828-0.804-6.57-0.009-13.141-0.003-19.711-0.003M5.592 13.234c-0.468 0.128-0.818 0.597-0.79 1.085 0.005 0.583 0.543 1.101 1.13 1.059 0.605-0.004 1.115-0.59 1.048-1.187-0.032-0.663-0.757-1.16-1.388-0.957M16.428 13.232c-0.77 0.181-1.065 1.254-0.495 1.804 0.533 0.626 1.666 0.335 1.845-0.462 0.255-0.781-0.573-1.599-1.35-1.342z"></path>
<path fill="#038cff" d="M2.761 9.605c0.352-0.046 0.715-0.048 1.066 0.004 0.262 0.058 0.245 0.369 0.25 0.575-0.006 1.123-0.001 2.246-0.003 3.369-0.004 0.185 0.003 0.434-0.208 0.514-0.379 0.057-0.77 0.055-1.15 0.006-0.285-0.079-0.226-0.422-0.24-0.644 0.009-1.124-0.003-2.248 0.005-3.372-0.009-0.186 0.050-0.441 0.279-0.453z"></path>
<path fill="#038cff" d="M4.812 9.606c0.934-0.063 1.872-0.003 2.809-0.028 0.252 0.022 0.623-0.067 0.745 0.231 0.043 0.502 0.061 1.014-0.012 1.514-0.112 0.234-0.405 0.175-0.615 0.191-0.99-0.023-1.982 0.030-2.97-0.025-0.36-0.204-0.172-0.701-0.225-1.036 0.036-0.277-0.101-0.754 0.268-0.846z"></path>
<path fill="#038cff" d="M9.321 9.604c0.935-0.057 1.875-0.001 2.812-0.026 0.248 0.018 0.652-0.062 0.728 0.265 0.041 0.485 0.054 0.982-0.012 1.465-0.093 0.24-0.385 0.195-0.59 0.206-0.947-0.013-1.895 0.010-2.843-0.009-0.17 0.017-0.357-0.105-0.359-0.286-0.037-0.427-0.030-0.857-0.006-1.285-0.006-0.155 0.106-0.32 0.27-0.329z"></path>
<path fill="#038cff" d="M13.737 9.618c0.965-0.089 1.943-0.008 2.914-0.040 0.241 0.014 0.645-0.053 0.702 0.275 0.045 0.453 0.039 0.912 0.005 1.366-0.009 0.152-0.159 0.302-0.317 0.283-0.95 0.025-1.899-0.004-2.849 0.012-0.212-0.018-0.498 0.044-0.618-0.182-0.076-0.463-0.046-0.937-0.030-1.403 0.001-0.141 0.066-0.244 0.194-0.311z"></path>
<path fill="#038cff" d="M18.254 9.612c0.966-0.074 1.939-0.005 2.908-0.034 0.232 0.015 0.582-0.048 0.677 0.24 0.035 0.505 0.081 1.034-0.031 1.529-0.035 0.035-0.105 0.103-0.139 0.137-1.112 0.052-2.232 0.028-3.346 0.013-0.426-0.057-0.268-0.612-0.307-0.912 0.050-0.316-0.128-0.805 0.237-0.973z"></path>
<path fill="#038cff" d="M5.575 13.823c0.321-0.223 0.821-0.021 0.866 0.375 0.079 0.4-0.361 0.769-0.742 0.609-0.41-0.133-0.485-0.751-0.124-0.985z"></path>
<path fill="#038cff" d="M16.414 13.819c0.32-0.217 0.814-0.014 0.859 0.378 0.077 0.396-0.354 0.766-0.733 0.613-0.422-0.126-0.497-0.76-0.126-0.991z"></path>
</svg>
