<svg xmlns="http://www.w3.org/2000/svg" width="24" height="24">
    <path fill="#282727" opacity=".3" d="M5.355.066c1.73-.05 3.462-.022 5.193-.03 3.19-.003 6.381.003 9.571.011.208.008.422-.039.624.027C15.613.069 10.484.075 5.355.066z"/>
    <path fill="#1a1919" d="M2.5.969C2.69.54 3.062.134 3.549.075 4.151.067 4.753.071 5.355.066c5.129.009 10.259.003 15.388.008.416.153.729.493.904.894-.012 3.755-.004 7.51.006 11.264-.038 2.81.023 5.622-.012 8.433.008.319-.018.639.013.957-.018.55.018 1.108-.083 1.652a1.396 1.396 0 0 1-.951.726H3.52c-.479-.086-.843-.462-1.021-.9V.969zM3.64.201C3.056.229 2.572.8 2.612 1.378c.002 7.142.001 14.285.001 21.428.017.588.561 1.102 1.154 1.07 5.537.002 11.073.002 16.61 0 .594.034 1.142-.48 1.158-1.071V1.267c-.012-.459-.349-.886-.784-1.026-.266-.066-.541-.048-.813-.05H4.095c-.152.001-.304-.005-.455.011z"/>
    <path fill="#1a1919" d="M3.526.449c.163-.034.331-.03.496-.029 5.45.001 10.9-.001 16.349.001.486-.029.933.398.934.882v21.468c-.003.481-.45.905-.933.877-5.45.002-10.9 0-16.35.001-.192.001-.388.005-.574-.049-.342-.121-.605-.464-.607-.83V1.303a.908.908 0 0 1 .685-.854zm.148.477c-.197.022-.348.217-.337.412 0 7.107.001 14.214-.001 21.32-.042.253.166.514.431.492h16.608a.409.409 0 0 0 .434-.417c-.001-7.144.001-14.288-.001-21.432-.002-.276-.295-.427-.543-.386-5.39.002-10.78 0-16.17.001-.14.003-.282-.009-.421.01z"/>
    <path fill="#1a1919" d="M8.457 3.637c.308-.047.649-.029.918.145.221.174.402.409.483.681.195.518.282 1.075.256 1.628a4.018 4.018 0 0 1-.254 1.595 1.425 1.425 0 0 1-.485.677c-.286.199-.659.205-.99.144-.336-.071-.583-.347-.737-.638a4.11 4.11 0 0 1-.329-1.778 4.088 4.088 0 0 1 .328-1.814c.169-.307.444-.597.81-.64zm.184.655c-.384.043-.509.478-.575.798-.147.683-.126 1.4.028 2.08.044.222.133.447.306.599a.55.55 0 0 0 .657-.016 1.04 1.04 0 0 0 .264-.497 4.69 4.69 0 0 0-.005-2.362c-.065-.314-.304-.679-.674-.602zM16.216 3.639c.309-.049.651-.032.922.14.22.173.402.405.484.675.19.51.284 1.055.26 1.6a4.098 4.098 0 0 1-.258 1.637c-.084.27-.268.5-.487.674-.288.197-.662.203-.994.14-.326-.071-.564-.337-.72-.617a4.136 4.136 0 0 1-.338-1.833 4.05 4.05 0 0 1 .326-1.775c.168-.306.44-.596.804-.641zm.183.655c-.385.05-.502.489-.57.81a4.883 4.883 0 0 0 .029 2.06c.044.222.131.447.302.601a.548.548 0 0 0 .658-.008c.199-.19.267-.467.323-.727a4.737 4.737 0 0 0-.095-2.257c-.082-.28-.328-.555-.647-.48zM4.143 3.696c.562.013 1.128-.035 1.686.043.464.115.73.582.835 1.017.202.945.238 1.956-.08 2.88-.186.381-.504.786-.964.809-.492.029-.985.006-1.477.013V3.697zm.685.668V7.79c.261-.01.527.027.784-.036.294-.104.451-.425.479-.719.073-.733.116-1.489-.082-2.207-.073-.218-.252-.429-.493-.452-.228-.025-.458-.007-.687-.012zM11.954 3.696h.686c.434.951.866 1.902 1.303 2.852.002-.951 0-1.902.001-2.852h.684v4.761h-.518c-.49-1.06-.975-2.122-1.468-3.181-.005 1.06-.001 2.12-.002 3.181h-.685V3.695zM17.989 3.696h2.422v.634h-.868l-.001 4.127h-.684V4.33h-.869l.001-.634zM11.685 11.18c.298-.045.625-.022.888.137.23.175.415.417.498.697.192.515.28 1.067.255 1.617a4.039 4.039 0 0 1-.334 1.791c-.163.299-.426.58-.776.639-.324.047-.686.037-.962-.162a1.432 1.432 0 0 1-.466-.658 4.108 4.108 0 0 1-.259-1.609 4.1 4.1 0 0 1 .323-1.8c.17-.317.455-.616.833-.651zm.252.649c-.279-.023-.476.212-.563.45-.225.666-.233 1.386-.141 2.077.057.292.09.608.278.851.177.268.628.282.817.022.206-.262.245-.605.306-.922.08-.665.054-1.353-.147-1.996-.082-.24-.265-.501-.55-.482zM14.758 11.461c.452-.426 1.253-.406 1.669.063.226.278.38.624.391.985h-.682c-.037-.216-.103-.452-.28-.596-.286-.184-.73-.07-.865.253-.15.422-.203.874-.185 1.32a4.228 4.228 0 0 0 .207 1.519c.125.331.529.509.854.359.222-.123.256-.405.269-.633.227.003.455 0 .682.002a1.55 1.55 0 0 1-.405 1.03c-.488.489-1.389.408-1.802-.14-.322-.465-.402-1.043-.441-1.594-.034-.597-.022-1.208.138-1.789.097-.283.212-.582.449-.779zM4.151 11.24c.554.01 1.109-.022 1.661.018.656.056 1.014.799.924 1.396-.038.34-.258.625-.494.858.313.296.602.682.586 1.134.037.662-.502 1.31-1.174 1.35-.501.014-1.002.003-1.503.006V11.24zm.684.668v1.27c.323-.03.677.072.978-.076.31-.25.367-.805.094-1.1-.324-.177-.718-.061-1.072-.094zm0 1.939v1.486c.324-.018.663.049.975-.061.528-.273.426-1.154-.087-1.386-.289-.076-.592-.026-.887-.04zM7.576 11.24h.685v4.127h1.737v.634H7.576v-4.762zM17.716 11.24h.685c0 .633-.002 1.265.001 1.898.363-.631.723-1.263 1.082-1.897.262-.003.525-.001.787-.001l-.985 1.67c.367 1.03.736 2.06 1.102 3.091l-.717.001c-.28-.773-.555-1.547-.836-2.32-.142.274-.311.536-.431.819-.01.5 0 1-.004 1.501h-.684V11.24zM10.762 18.23c.178-.314.65-.367.92-.149.158.161.229.389.247.61l-.409.001c-.017-.1-.029-.206-.084-.294-.119-.086-.329-.047-.361.11-.086.211.014.443.169.593.333.338.637.748.672 1.238a.807.807 0 0 1-.298.777.706.706 0 0 1-.835-.068 1.082 1.082 0 0 1-.233-.672c.137-.003.274-.002.411-.002.006.176.059.43.282.429.23.022.302-.246.265-.427-.043-.461-.432-.757-.681-1.111-.221-.292-.272-.723-.064-1.035zM13.899 18.07c.176-.136.425-.14.632-.085.246.072.375.333.402.571-.136.003-.272.002-.407.002a.227.227 0 0 0-.362-.152c-.151.184-.14.439-.172.662-.027.477-.035.961.057 1.432.028.137.095.315.266.305.193-.009.191-.245.206-.387.136.001.273 0 .409.002-.007.183-.01.376-.095.543-.252.401-.971.331-1.122-.128-.199-.702-.173-1.447-.076-2.164a1 1 0 0 1 .262-.601zM17.847 17.958c.32-.066.62.153.716.454.155.505.12 1.042.118 1.563-.031.34-.033.714-.244 1.002-.22.335-.796.324-1.002-.021-.193-.274-.194-.624-.224-.945-.005-.515-.033-1.039.097-1.543.077-.244.261-.495.539-.509zm.075.405c-.148.019-.199.185-.236.308-.08.332-.062.677-.065 1.015.008.33-.011.681.135.987.052.142.267.18.348.045.152-.254.14-.564.156-.85-.002-.413.01-.835-.095-1.237-.036-.114-.094-.286-.243-.268zM3.807 17.99h.401v3.174h-.401v-3.175zM4.663 17.99h.401c.19.524.375 1.05.567 1.573.003-.524 0-1.048.001-1.572h.4v3.174h-.344c-.209-.626-.415-1.254-.624-1.88v1.88h-.401v-3.174zM6.23 17.99h1.202v.412h-.411v2.762H6.62c-.001-.921.001-1.842-.001-2.763H6.23a28.291 28.291 0 0 1 0-.412zM7.642 17.99h1.169v.412h-.767v.812l.512.001v.423h-.512v1.113c.271.001.542-.001.812.001l-.001.411H7.642v-3.174zM9.12 17.99c.302.011.611-.03.907.042.267.076.4.351.451.604.05.341.005.76-.322.952.107.526.216 1.051.322 1.577l-.412-.001-.356-1.481h-.189v1.481H9.12V17.99zm.401.411v.87c.174-.015.459.062.526-.159.053-.2.057-.433-.05-.616-.119-.132-.318-.082-.476-.095zM12.178 17.99h1.169v.412h-.767v.813h.512v.423h-.512v1.113c.271 0 .542-.001.812.001v.411h-1.213v-3.174zM15.034 17.99h1.203v.412h-.411v2.762h-.401v-2.762c-.13 0-.26 0-.39-.003l.001-.41zM16.446 17.99h.401v3.174h-.401V17.99zM19.035 17.99h.4c.191.525.377 1.051.568 1.576.003-.525 0-1.05.001-1.575h.4v3.175h-.346c-.207-.624-.412-1.25-.622-1.874-.004.625 0 1.249-.002 1.874h-.401v-3.175z"/>
    <path fill="#fffffe" d="M3.64.201c.151-.016.303-.01.455-.011h15.843c.272.001.547-.016.813.05.435.14.772.567.784 1.026v21.538c-.016.591-.564 1.104-1.158 1.071-5.537.002-11.073.002-16.61 0-.592.032-1.137-.482-1.154-1.07 0-7.143.001-14.285-.001-21.428C2.572.799 3.056.228 3.64.2zm-.114.248a.907.907 0 0 0-.685.854V22.77a.921.921 0 0 0 .607.83c.186.054.382.05.574.049 5.45-.001 10.9.001 16.35-.001.483.028.93-.396.933-.877V1.303c0-.483-.448-.91-.934-.882C14.921.419 9.472.421 4.022.42c-.166-.001-.333-.005-.496.029z"/>
    <path fill="#fffffe" d="M3.674.926c.139-.019.281-.008.421-.01 5.39 0 10.78.001 16.17-.001.248-.041.541.111.543.386.003 7.144 0 14.288.001 21.432a.41.41 0 0 1-.434.417H3.767c-.264.022-.473-.239-.431-.492.003-7.107.001-14.214.001-21.32-.011-.195.14-.39.337-.412zm4.783 2.711c-.366.043-.641.332-.81.64a4.06 4.06 0 0 0-.328 1.814 4.112 4.112 0 0 0 .329 1.778c.155.291.401.567.737.638.331.061.704.054.99-.144a1.42 1.42 0 0 0 .485-.677 4 4 0 0 0 .254-1.595 4.09 4.09 0 0 0-.256-1.628 1.403 1.403 0 0 0-.483-.681c-.269-.174-.609-.191-.918-.145zm7.759.002c-.364.046-.636.335-.804.641a4.045 4.045 0 0 0-.326 1.775 4.134 4.134 0 0 0 .338 1.833c.156.28.394.546.72.617.332.063.706.057.994-.14a1.43 1.43 0 0 0 .487-.674 4.115 4.115 0 0 0 .258-1.637 4.08 4.08 0 0 0-.26-1.6 1.395 1.395 0 0 0-.484-.675c-.271-.172-.613-.189-.922-.14zm-12.073.057v4.761c.492-.007.986.016 1.477-.013.46-.023.777-.427.964-.809.318-.924.282-1.935.08-2.88-.105-.435-.371-.902-.835-1.017-.558-.078-1.124-.03-1.686-.043zm7.811 0v4.762h.685c.001-1.06-.003-2.12.002-3.181.494 1.058.978 2.121 1.468 3.181h.518V3.697a77.976 77.976 0 0 0-.684 0c-.001.951.001 1.902-.001 2.852-.436-.95-.868-1.902-1.303-2.852a78.433 78.433 0 0 0-.686 0zm6.035 0l-.001.634h.869v4.127h.684l.001-4.127h.868v-.634h-2.422zm-6.304 7.484c-.378.036-.663.334-.833.651a4.097 4.097 0 0 0-.323 1.8 4.126 4.126 0 0 0 .259 1.609c.081.262.258.484.466.658.276.199.637.21.962.162.351-.059.613-.34.776-.639a4.039 4.039 0 0 0 .334-1.791 4.11 4.11 0 0 0-.255-1.617 1.398 1.398 0 0 0-.498-.697c-.262-.16-.59-.183-.888-.137zm3.073.281c-.237.197-.352.496-.449.779-.16.581-.171 1.191-.138 1.789.039.551.119 1.129.441 1.594.413.548 1.314.629 1.802.14a1.56 1.56 0 0 0 .405-1.03c-.227-.002-.455.001-.682-.002-.013.228-.047.51-.269.633-.325.15-.729-.028-.854-.359a4.228 4.228 0 0 1-.207-1.519 3.56 3.56 0 0 1 .185-1.32c.135-.323.578-.436.865-.253.176.144.242.38.28.596h.682a1.668 1.668 0 0 0-.391-.985c-.416-.469-1.217-.489-1.669-.063zM4.151 11.24v4.762c.501-.003 1.002.008 1.503-.006.672-.04 1.211-.687 1.174-1.35.016-.452-.273-.838-.586-1.134.236-.234.456-.518.494-.858.09-.596-.268-1.34-.924-1.396-.552-.04-1.108-.008-1.661-.018zm3.425 0v4.762h2.422v-.634H8.261v-4.127h-.685zm10.14 0v4.762h.684c.004-.5-.005-1.001.004-1.501.12-.283.29-.546.431-.819.281.773.556 1.547.836 2.32l.717-.001c-.367-1.031-.736-2.06-1.102-3.091.328-.557.658-1.113.985-1.67-.262 0-.525-.002-.787.001-.359.633-.719 1.266-1.082 1.897-.004-.633-.001-1.265-.001-1.898h-.685zm-6.954 6.99c-.208.312-.157.743.064 1.035.249.353.638.65.681 1.111.037.181-.034.449-.265.427-.223 0-.277-.253-.282-.429-.137 0-.274-.001-.411.002.005.24.077.486.233.672a.706.706 0 0 0 .835.068.807.807 0 0 0 .298-.777c-.036-.49-.339-.9-.672-1.238-.155-.149-.254-.382-.169-.593.033-.157.243-.196.361-.11.055.088.067.194.084.294l.409-.001c-.018-.221-.089-.449-.247-.61-.27-.219-.742-.165-.92.149zm3.137-.16a.998.998 0 0 0-.262.601c-.097.717-.122 1.461.077 2.164.15.458.87.528 1.122.128.086-.166.089-.36.095-.543l-.409-.002c-.015.141-.013.378-.206.387-.17.011-.238-.167-.266-.305-.092-.471-.084-.955-.057-1.432.032-.223.021-.478.172-.662a.227.227 0 0 1 .362.152c.136 0 .271.001.407-.002-.027-.238-.157-.499-.402-.571-.207-.055-.456-.051-.632.085zm3.948-.112c-.277.014-.462.266-.539.509-.129.504-.102 1.028-.097 1.543.03.32.032.67.224.945.206.345.782.356 1.002.021.211-.287.213-.661.244-1.002.002-.521.037-1.058-.118-1.563-.096-.3-.396-.52-.716-.454zm-14.04.032v3.175h.401v-3.174h-.401zm.856 0v3.174h.401v-1.88c.209.626.415 1.254.624 1.88h.344V17.99a26.667 26.667 0 0 0-.4 0c-.001.524.001 1.048-.001 1.572-.193-.523-.377-1.049-.567-1.573h-.401zm1.567 0v.412h.389l.001 2.763h.401v-2.762h.411v-.412H6.23zm1.412 0v3.174h1.213l.001-.411c-.271-.003-.542 0-.812-.001v-1.113h.512v-.423l-.512-.001v-.812h.767v-.412H7.642zm1.478 0v3.174h.401v-1.481h.189c.119.493.239.987.356 1.481l.412.001c-.106-.526-.215-1.052-.322-1.577.327-.192.372-.611.322-.952-.051-.252-.183-.527-.451-.604-.297-.072-.605-.031-.907-.042zm3.058 0v3.174h1.213v-.411l-.812-.001v-1.113h.512v-.423h-.512v-.813h.767v-.412h-1.169zm2.856 0l-.001.41.39.003v2.762h.401v-2.762h.411v-.412h-1.203zm1.412 0v3.174h.401V17.99h-.401zm2.589 0v3.175h.401c.001-.625-.002-1.249.002-1.874.21.624.414 1.249.622 1.874h.346V17.99h-.4c-.001.525.001 1.05-.001 1.575-.192-.524-.377-1.051-.568-1.576h-.4z"/>
    <path fill="#fffffe" d="M8.641 4.292c.37-.077.609.287.674.602.2.768.209 1.593.005 2.362a1.04 1.04 0 0 1-.264.497.55.55 0 0 1-.657.016c-.173-.153-.262-.377-.306-.599a4.848 4.848 0 0 1-.028-2.08c.067-.32.191-.755.575-.798zM16.399 4.294c.319-.075.566.2.647.48.218.728.241 1.513.095 2.257-.055.26-.123.537-.323.727a.548.548 0 0 1-.658.008c-.171-.155-.258-.38-.302-.601a4.884 4.884 0 0 1-.029-2.06c.068-.321.185-.76.57-.81zM4.828 4.364c.229.005.459-.012.687.012.241.023.421.234.493.452.198.718.155 1.473.082 2.207-.028.294-.185.615-.479.719-.256.062-.523.026-.784.036V4.364zM11.937 11.829c.285-.019.468.241.55.482.202.643.227 1.331.147 1.996-.061.317-.1.661-.306.922-.189.261-.641.246-.817-.022-.188-.243-.221-.559-.278-.851-.092-.691-.084-1.411.141-2.077.087-.238.284-.473.563-.45zM4.835 11.908c.354.033.748-.083 1.072.094.273.295.216.851-.094 1.1-.301.148-.655.046-.978.076v-1.27zM4.835 13.847c.295.013.599-.037.887.04.514.233.615 1.113.087 1.386-.311.109-.651.042-.975.061v-1.486zM17.922 18.363c.15-.018.208.153.243.268.105.403.093.824.095 1.237-.016.286-.004.596-.156.85-.081.135-.296.098-.348-.045-.145-.306-.127-.657-.135-.987.003-.339-.015-.683.065-1.015.036-.123.087-.289.236-.308zM9.521 18.401c.157.012.357-.037.476.095.107.183.103.416.05.616-.067.222-.352.144-.526.159v-.87z"/>
    <path fill="#191919" opacity=".38" d="M21.647.967l.031.057v11.261l-.025-.053c-.011-3.755-.018-7.51-.006-11.264z"/>
    <path fill="#2c2b2b" opacity=".67" d="M21.654 12.232l.025.053v9.398l-.024-.061c-.031-.318-.005-.638-.013-.957.035-2.811-.025-5.623.012-8.433z"/>
</svg>
