<?xml version="1.0" encoding="utf-8"?>
<!-- Generated by IcoMoon.io -->
<!DOCTYPE svg PUBLIC "-//W3C//DTD SVG 1.1//EN" "http://www.w3.org/Graphics/SVG/1.1/DTD/svg11.dtd">
<svg version="1.1" xmlns="http://www.w3.org/2000/svg" xmlns:xlink="http://www.w3.org/1999/xlink" width="24" height="24" viewBox="0 0 24 24">
<path fill="#fff" d="M0 4.194h24v0.23c-0.425-0.083-0.858-0.079-1.288-0.068-7.272 0.005-14.545-0.005-21.815 0.006-0.408-0.035-0.765 0.325-0.728 0.733-0.010 4.43 0 8.861-0.005 13.292 0.009 0.475-0.074 0.982 0.157 1.421h-0.321v-15.613z"></path>
<path fill="#fff" d="M6.866 6.79c1.795 0.003 3.588 0.004 5.383 0-1.201 1.195-2.399 2.395-3.594 3.596 4.788 0.003 9.578 0 14.368 0.001-0.001 1.196 0 2.391-0.001 3.587-4.788-0.001-9.577 0.001-14.365-0.001 1.194 1.196 2.394 2.387 3.585 3.587-1.791 0.005-3.581-0.005-5.37 0.005-1.801-1.795-3.601-3.591-5.399-5.388 1.795-1.8 3.592-3.596 5.394-5.387z"></path>
<path fill="#038cff" d="M0.169 5.094c-0.037-0.408 0.32-0.768 0.728-0.733 7.271-0.012 14.543-0.001 21.815-0.006 0.43-0.010 0.863-0.014 1.288 0.068v15.383h-23.679c-0.231-0.439-0.148-0.946-0.157-1.421 0.005-4.431-0.005-8.862 0.005-13.292M6.866 6.79c-1.801 1.791-3.599 3.587-5.394 5.387 1.797 1.797 3.597 3.594 5.399 5.388 1.79-0.010 3.579 0 5.37-0.005-1.191-1.2-2.391-2.391-3.585-3.587 4.788 0.003 9.577 0 14.365 0.001 0.001-1.196 0-2.391 0.001-3.587-4.79-0.001-9.579 0.001-14.368-0.001 1.195-1.201 2.392-2.401 3.594-3.596-1.795 0.004-3.588 0.003-5.383 0z"></path>
</svg>
