<!-- Generated by IcoMoon.io -->
<svg version="1.1" xmlns="http://www.w3.org/2000/svg" width="24" height="24" viewBox="0 0 24 24">
<title>regulatory--no-pedestrians-or-bicycles--g1</title>
<path fill="#c1121c" d="M10.711 0h2.552c4.408 0.506 8.434 3.532 9.975 7.717 0.386 0.96 0.563 1.983 0.762 2.994v2.552c-0.508 4.409-3.532 8.435-7.718 9.975-0.96 0.386-1.982 0.563-2.993 0.762h-2.555c-4.407-0.508-8.431-3.533-9.972-7.717-0.386-0.961-0.563-1.983-0.762-2.994v-2.553c0.193-1.020 0.375-2.050 0.762-3.019 1.538-4.178 5.553-7.195 9.949-7.717M10.807 3.212c-2.567 0.315-4.946 1.839-6.313 4.031-1.579 2.458-1.789 5.715-0.553 8.361 1.689 3.861 6.376 6.034 10.413 4.788 4.233-1.121 7.116-5.725 6.236-10.026-0.703-4.481-5.294-7.848-9.782-7.154z"></path>
<path fill="#fff" d="M10.807 3.212c4.488-0.694 9.079 2.673 9.782 7.154 0.88 4.302-2.003 8.905-6.236 10.026-4.037 1.246-8.724-0.927-10.413-4.788-1.235-2.645-1.026-5.903 0.553-8.361 1.368-2.193 3.747-3.717 6.313-4.031M11.592 3.725c-0.681 0.366-0.029 1.456 0.615 1.023 0.669-0.366 0.025-1.452-0.615-1.023M11.75 5.188c-0.627 0.772-1.095 1.667-1.626 2.508 0.814 0.227 1.039-0.825 1.471-1.296 0.008 0.442 0.012 0.884 0.013 1.326 0.399 0.007 0.796 0.012 1.195 0.012 0-0.563-0.005-1.125 0.004-1.688 0.669 0.321 0.479 1.064 0.498 1.666 0.699-0.207 0.652-1.197 0.334-1.691-0.552-0.375-1.15-1.279-1.89-0.837M11.664 7.903c-0.518 1.066-1.142 2.077-1.666 3.141 0.277-0.030 0.635 0.041 0.793-0.253 0.547-0.803 0.909-1.714 1.381-2.56 0.53 0.906 1.007 1.843 1.544 2.745 0.251 0.092 0.312-0.407 0.294-0.593-0.312-0.876-0.898-1.625-1.262-2.48-0.361 0-0.723-0.001-1.085 0M3.57 11.297c0.001 0.1 0.003 0.3 0.004 0.4 5.57 0.003 11.141 0.003 16.712 0 0-0.1 0.001-0.3 0.001-0.4-5.572-0.003-11.145-0.004-16.717 0M9.673 12.686c-0.308 0.671-0.468 1.399-0.69 2.102-0.955-0.125-1.982 0.351-2.361 1.264-0.529 1.104 0.115 2.56 1.292 2.902 1.117 0.407 2.45-0.327 2.73-1.474 0.307-1.011-0.289-2.106-1.216-2.547 0.051-0.155 0.1-0.31 0.147-0.466 0.79 0.817 1.53 1.679 2.277 2.535 0.33 0.455 0.938 0.277 1.415 0.31 0.253 1.124 1.44 1.954 2.584 1.663 1.25-0.24 2.046-1.729 1.517-2.896-0.395-1.044-1.626-1.559-2.674-1.249-0.198-0.435-0.395-0.872-0.589-1.309 0.030-0.097 0.089-0.29 0.118-0.387 0.18-0.003 0.358-0.026 0.536-0.039-0.007-0.139-0.017-0.278-0.030-0.417-0.65-0.001-1.301-0.012-1.951 0.009 0.14 0.375 0.661 0.291 0.982 0.417-0.047 0.136-0.097 0.273-0.15 0.408-1.251 0.004-2.502 0.004-3.753 0 0.007-0.725 0.62-0.942 1.251-0.824 0.004-0.109 0.011-0.327 0.013-0.435-0.489 0.039-1.197-0.123-1.449 0.431z"></path>
<path fill="#fff" d="M9.756 13.974c1.221-0.003 2.442-0.003 3.663 0.001-0.348 0.947-0.703 1.892-1.056 2.838-0.866-0.949-1.738-1.892-2.607-2.839z"></path>
<path fill="#fff" d="M13.868 14.146c0.136 0.294 0.271 0.589 0.407 0.884-0.62 0.424-1.005 1.112-1.054 1.861-0.097-0.003-0.291-0.007-0.388-0.009 0.337-0.915 0.692-1.824 1.036-2.736z"></path>
<path fill="#fff" d="M6.961 16.536c0.176-0.841 1.040-1.359 1.866-1.293-0.033 0.59-0.862 1.617-0.159 1.886 0.302-0.54 0.399-1.165 0.619-1.738 0.546 0.313 0.971 0.876 0.959 1.527 0.025 0.956-0.9 1.791-1.848 1.662-0.961-0.084-1.693-1.107-1.437-2.043z"></path>
<path fill="#fff" d="M14.901 15.263c0.835-0.199 1.791 0.239 2.059 1.082 0.371 0.948-0.35 2.085-1.352 2.195-0.825 0.134-1.587-0.454-1.853-1.209 0.619-0.079 1.348 0.119 1.9-0.111-0.042-0.669-0.543-1.3-0.754-1.957z"></path>
<path fill="#fff" d="M14.466 15.473c0.219 0.466 0.429 0.938 0.635 1.41-0.47 0.001-0.938 0.004-1.407-0.012 0.058-0.556 0.334-1.054 0.772-1.398z"></path>
<path fill="#030303" d="M11.592 3.725c0.64-0.429 1.284 0.657 0.615 1.023-0.644 0.433-1.296-0.657-0.615-1.023z"></path>
<path fill="#030303" d="M11.75 5.188c0.74-0.442 1.338 0.462 1.89 0.837 0.317 0.493 0.365 1.483-0.334 1.69-0.020-0.602 0.17-1.344-0.498-1.666-0.009 0.563-0.004 1.125-0.004 1.688-0.399 0-0.796-0.005-1.195-0.012-0.001-0.442-0.005-0.884-0.013-1.326-0.433 0.471-0.657 1.523-1.471 1.296 0.531-0.841 0.999-1.735 1.626-2.508z"></path>
<path fill="#030303" d="M11.664 7.903c0.362-0.001 0.724 0 1.085 0 0.363 0.855 0.949 1.604 1.262 2.48 0.018 0.186-0.043 0.685-0.294 0.593-0.536-0.902-1.014-1.839-1.544-2.745-0.472 0.846-0.834 1.757-1.381 2.56-0.159 0.294-0.517 0.223-0.793 0.253 0.523-1.064 1.148-2.075 1.666-3.141z"></path>
<path fill="#030303" d="M3.57 11.297c5.572-0.004 11.145-0.003 16.717 0 0 0.1-0.001 0.3-0.001 0.4-5.571 0.003-11.142 0.003-16.712 0-0.001-0.1-0.003-0.3-0.004-0.4z"></path>
<path fill="#030303" d="M9.673 12.686c0.252-0.555 0.96-0.392 1.449-0.431-0.003 0.109-0.009 0.327-0.013 0.435-0.631-0.118-1.245 0.098-1.251 0.824 1.251 0.004 2.502 0.004 3.753 0 0.052-0.135 0.102-0.271 0.15-0.408-0.321-0.126-0.842-0.042-0.982-0.417 0.65-0.021 1.301-0.011 1.951-0.009 0.013 0.139 0.024 0.278 0.030 0.417-0.178 0.013-0.357 0.037-0.536 0.039-0.029 0.097-0.088 0.29-0.118 0.387 0.194 0.437 0.391 0.873 0.589 1.309 1.048-0.311 2.279 0.205 2.674 1.249 0.529 1.167-0.268 2.656-1.517 2.896-1.144 0.291-2.33-0.539-2.584-1.663-0.477-0.033-1.085 0.146-1.415-0.31-0.746-0.856-1.487-1.718-2.277-2.535-0.047 0.156-0.096 0.311-0.147 0.466 0.927 0.441 1.523 1.536 1.216 2.547-0.281 1.148-1.613 1.881-2.73 1.474-1.176-0.342-1.82-1.798-1.292-2.902 0.379-0.913 1.406-1.389 2.361-1.264 0.222-0.703 0.382-1.431 0.69-2.102M9.756 13.974c0.87 0.947 1.742 1.89 2.607 2.839 0.353-0.946 0.708-1.891 1.056-2.838-1.221-0.004-2.442-0.004-3.663-0.001M13.868 14.146c-0.344 0.911-0.699 1.82-1.036 2.736 0.097 0.003 0.291 0.007 0.388 0.009 0.050-0.749 0.434-1.437 1.054-1.861-0.135-0.295-0.27-0.59-0.407-0.884M6.961 16.536c-0.256 0.936 0.476 1.959 1.437 2.043 0.948 0.13 1.873-0.706 1.848-1.662 0.012-0.65-0.413-1.213-0.959-1.527-0.22 0.573-0.317 1.197-0.619 1.738-0.703-0.269 0.126-1.296 0.159-1.886-0.826-0.066-1.691 0.452-1.866 1.293M14.901 15.263c0.211 0.657 0.712 1.288 0.754 1.957-0.552 0.231-1.281 0.033-1.9 0.111 0.266 0.755 1.028 1.343 1.853 1.209 1.002-0.11 1.723-1.247 1.352-2.195-0.268-0.843-1.224-1.281-2.059-1.082M14.466 15.473c-0.438 0.344-0.715 0.842-0.772 1.398 0.47 0.016 0.938 0.013 1.407 0.012-0.206-0.472-0.416-0.944-0.635-1.41z"></path>
</svg>
