<!-- Generated by IcoMoon.io -->
<svg version="1.1" xmlns="http://www.w3.org/2000/svg" width="16" height="24" viewBox="0 0 16 24">
<title>regulatory--bicycles-yield-or-use-signal--g1</title>
<path fill="#949293" d="M1.361 0h13.123c0.752 0.251 1.407 0.883 1.618 1.653v20.559c-0.14 0.744-0.688 1.262-1.302 1.65-0.056-0.006-0.17-0.018-0.226-0.024-0.099-0.026-0.293-0.079-0.39-0.106 0.801-0.278 1.637-0.902 1.603-1.841 0.023-6.592 0.015-13.185 0.005-19.777 0.046-0.916-0.722-1.788-1.651-1.795-4.033-0.065-8.072 0.064-12.103-0.064-0.175-0.064-0.348-0.131-0.519-0.199l-0.155-0.055z"></path>
<path fill="#6d6a6b" d="M0.033 1.727c0.15-0.791 0.759-1.375 1.483-1.672 0.172 0.068 0.345 0.135 0.519 0.199-0.937 0.088-1.776 0.886-1.729 1.859-0.003 6.591-0.011 13.183 0.005 19.774-0.043 0.886 0.712 1.46 1.423 1.814l0.159 0.155c-0.905-0.012-1.715-0.671-1.859-1.575 0.178-0.936 0.111-1.891 0.112-2.837 0.002-4.961 0.002-9.924 0-14.885-0.002-0.945 0.064-1.897-0.114-2.831z"></path>
<path fill="#fff" d="M0.307 2.113c-0.047-0.974 0.791-1.771 1.729-1.859 4.031 0.128 8.070-0.002 12.103 0.064 0.93 0.008 1.697 0.879 1.651 1.795 0.011 6.592 0.018 13.185-0.005 19.777 0.035 0.939-0.802 1.563-1.603 1.841-4.148-0.079-8.3-0.018-12.448-0.030-0.711-0.354-1.466-0.928-1.423-1.814-0.015-6.591-0.008-13.183-0.005-19.774M1.871 0.677c-0.734 0.125-1.258 0.86-1.205 1.59 0.003 6.489-0.003 12.978 0.003 19.466-0.047 0.861 0.746 1.621 1.604 1.552 3.902-0.005 7.805 0.009 11.707-0.008 0.813 0.011 1.505-0.741 1.466-1.546 0.006-6.488 0-12.975 0.003-19.463 0.077-0.889-0.722-1.706-1.615-1.628-3.987 0.024-7.979-0.047-11.964 0.036z"></path>
<path fill="#fff" d="M1.865 1.273c3.981-0.134 7.984-0.021 11.973-0.055 0.589-0.065 1.101 0.462 1.033 1.047 0.002 6.489 0.008 12.978-0.002 19.466 0.041 0.565-0.477 1.039-1.033 0.978-3.852 0.003-7.704 0.003-11.556 0.002-0.557 0.056-1.077-0.415-1.031-0.981-0.009-6.488-0.003-12.975-0.003-19.463-0.029-0.419 0.196-0.87 0.62-0.993M5.994 2.617c0.041 0.096 0.122 0.286 0.161 0.381-0.191 0.532-0.374 1.066-0.551 1.603-0.778-0.292-1.713-0.266-2.354 0.314-0.962 0.752-0.989 2.342-0.068 3.138 0.96 0.945 2.772 0.609 3.325-0.62 0.58-1.018-0.056-2.061-0.653-2.883 0.96 1.053 2.326 2.029 2.588 3.5 0.091 0 0.273 0.002 0.366 0.002-0.106-0.258-0.207-0.519-0.302-0.781 0.238-0.081 0.478-0.156 0.72-0.229 0.445 1.359 2.218 2.064 3.401 1.18 1.063-0.697 1.247-2.362 0.331-3.254-0.699-0.734-1.862-0.823-2.725-0.333-0.229-0.284-0.453-0.573-0.681-0.857 0.317-0.231 0.647-0.447 0.939-0.712-0.696-0.027-1.394 0-2.084 0.103 0.307 0.184 0.632 0.331 0.957 0.477-0.996 0.011-1.993 0.003-2.991 0.006 0.073-0.369 0.115-0.746 0.036-1.118 0.327-0.062 0.653-0.128 0.972-0.229-0.33-0.043-0.661-0.062-0.99-0.079-0.132 0.131-0.264 0.261-0.396 0.39M3.747 10.53c0.422 0.832 0.79 1.706 0.653 2.664 0.093-0.012 0.281-0.036 0.375-0.050-0.161-0.939 0.232-1.792 0.655-2.601-0.102-0.003-0.302-0.009-0.403-0.012-0.147 0.316-0.293 0.632-0.442 0.948-0.147-0.308-0.292-0.62-0.434-0.93-0.102-0.006-0.304-0.015-0.404-0.020M5.772 10.481c0 0.911 0 1.823 0 2.734 0.114 0 0.342 0 0.456 0 0-0.911 0-1.823 0-2.734-0.114 0-0.342 0-0.456 0M6.725 10.537c0 0.879 0 1.757 0 2.637 0.448 0 0.896 0 1.344 0 0-0.093 0-0.278 0-0.371-0.321 0-0.641 0-0.962-0.002-0.002-0.281-0.002-0.564 0-0.845 0.225-0.024 0.448-0.052 0.673-0.082-0.166-0.219-0.416-0.313-0.67-0.386-0.003-0.193-0.005-0.386-0.006-0.577 0.29-0.005 0.58-0.006 0.87-0.009-0.003-0.091-0.008-0.275-0.011-0.366-0.413 0-0.826 0-1.239 0M10.209 10.524c-0.005 0.889-0.006 1.777 0.002 2.666 0.424-0.055 1.030 0.125 1.273-0.343 0.287-0.583 0.263-1.299 0.053-1.902-0.199-0.556-0.875-0.372-1.328-0.421M8.503 10.537c0 0.879 0 1.759 0 2.638 0.45-0.002 0.899-0.002 1.349-0.005-0.002-0.087-0.005-0.261-0.006-0.349-0.321 0-0.641 0-0.962 0-0.002-0.761 0-1.522 0-2.283-0.096 0-0.287 0-0.381-0.002M6.36 14.499c-0.005 0.087-0.015 0.258-0.020 0.345 0.123 0.005 0.368 0.012 0.491 0.017 0 0.759-0.003 1.521 0.006 2.282 0.093-0.002 0.281-0.002 0.374-0.003 0.002-0.755 0.002-1.508 0-2.263 0.169-0.017 0.337-0.033 0.506-0.050-0.009-0.082-0.026-0.245-0.035-0.327-0.441 0.002-0.881 0.002-1.322 0M8.564 14.485c-0.758 0.43-0.62 1.568-0.396 2.28 0.248 0.7 1.291 0.434 1.317-0.266 0.166-0.703 0.159-2.224-0.921-2.014M10.516 19.554c0.263 0.31 1.006 0.567 0.688 1.060-0.342 0.425-0.74-0.273-1.082-0.384 0.103 0.316 0.164 0.74 0.529 0.866 0.564 0.257 1.168-0.396 0.965-0.948-0.146-0.513-0.813-0.626-0.977-1.119 0.211-0.378 0.51-0.159 0.755 0.056 0.084-0.003 0.251-0.009 0.334-0.012-0.185-0.284-0.365-0.7-0.776-0.656-0.55 0-0.89 0.781-0.436 1.138M4.678 18.453c-0.003 0.883-0.002 1.765-0.002 2.648 0.096 0 0.286 0.002 0.381 0.002 0-0.372-0.002-0.746-0.006-1.118 0.513 0.012 1.198-0.161 1.109-0.816-0.003-0.794-0.924-0.731-1.483-0.715M6.519 18.465c0 0.878 0 1.757 0 2.637 0.447-0.002 0.893-0.002 1.341-0.002 0.003-0.091 0.008-0.273 0.011-0.365-0.324-0.003-0.647-0.006-0.972-0.006 0-0.287 0-0.574 0-0.86 0.181-0.006 0.363-0.011 0.545-0.014 0-0.090 0.002-0.267 0.003-0.355-0.135 0-0.407-0.002-0.542-0.003-0.006-0.219-0.008-0.439-0.009-0.658 0.289-0.003 0.576-0.005 0.864-0.008 0-0.091 0-0.276 0-0.369-0.413 0-0.826 0-1.241 0.002M8.309 18.45c-0.003 0.889-0.005 1.779 0 2.669 1.527 0.447 1.85-1.565 1.167-2.497-0.319-0.252-0.787-0.122-1.167-0.172z"></path>
<path fill="#fff" d="M6.085 4.071c1.009-0.038 2.020-0.017 3.030-0.024-0.211 0.643-0.428 1.281-0.629 1.926-0.194 0.061-0.386 0.129-0.576 0.201-0.605-0.705-1.236-1.385-1.826-2.102z"></path>
<path fill="#fff" d="M9.501 4.318c0.137 0.19 0.273 0.378 0.412 0.568-0.448 0.497-0.723 1.119-0.74 1.794-0.169 0.020-0.337 0.039-0.504 0.059 0.276-0.807 0.553-1.615 0.832-2.421z"></path>
<path fill="#fff" d="M2.988 6.023c0.284-1.075 1.578-1.484 2.528-1.018-0.161 0.697-1.003 1.019-1.098 1.683 0.682-0.153 1.041-0.899 1.402-1.443 0.817 0.861 0.579 2.462-0.606 2.847-1.241 0.542-2.673-0.799-2.225-2.069z"></path>
<path fill="#fff" d="M10.495 4.994c0.864-0.437 2.031-0.158 2.438 0.763 0.512 1.009-0.258 2.365-1.396 2.414-0.831 0.122-1.525-0.488-1.852-1.198 0.673-0.141 1.355-0.245 2.026-0.393-0.418-0.518-0.828-1.044-1.217-1.584z"></path>
<path fill="#fff" d="M9.603 6.565c0.036-0.495 0.231-0.957 0.567-1.325 0.296 0.374 0.585 0.752 0.873 1.132-0.478 0.071-0.958 0.137-1.44 0.193z"></path>
<path fill="#fff" d="M10.596 10.841c1.034-0.012 1.041 2.040 0.002 2.031-0.017-0.677-0.015-1.353-0.002-2.031z"></path>
<path fill="#fff" d="M8.809 16.956c-0.609-0.576-0.63-1.698 0.003-2.265 0.53 0.635 0.521 1.63-0.003 2.265z"></path>
<path fill="#fff" d="M5.060 18.785c0.238 0.074 0.72 0.024 0.72 0.369 0.114 0.439-0.439 0.407-0.714 0.491-0.005-0.287-0.006-0.574-0.006-0.86z"></path>
<path fill="#fff" d="M8.698 18.772c1.044-0.033 1.039 2.042 0.005 2.019-0.023-0.673-0.021-1.346-0.005-2.019z"></path>
<path fill="#231f20" d="M1.871 0.677c3.984-0.084 7.976-0.012 11.964-0.036 0.893-0.077 1.692 0.74 1.615 1.628-0.003 6.488 0.003 12.975-0.003 19.463 0.039 0.805-0.653 1.557-1.466 1.546-3.902 0.017-7.805 0.003-11.707 0.008-0.858 0.068-1.651-0.691-1.604-1.552-0.006-6.488 0-12.977-0.003-19.466-0.053-0.731 0.471-1.466 1.205-1.59M1.865 1.273c-0.424 0.123-0.649 0.574-0.62 0.993 0 6.488-0.006 12.975 0.003 19.463-0.046 0.567 0.474 1.037 1.031 0.981 3.852 0.002 7.704 0.002 11.556-0.002 0.556 0.061 1.074-0.413 1.033-0.978 0.009-6.488 0.003-12.977 0.002-19.466 0.068-0.585-0.444-1.112-1.033-1.047-3.989 0.033-7.991-0.079-11.973 0.055z"></path>
<path fill="#231f20" d="M5.994 2.617c0.132-0.129 0.264-0.26 0.396-0.39 0.33 0.017 0.661 0.036 0.99 0.079-0.319 0.102-0.646 0.167-0.972 0.229 0.079 0.372 0.036 0.749-0.036 1.118 0.998-0.003 1.994 0.005 2.991-0.006-0.325-0.146-0.65-0.293-0.957-0.477 0.69-0.103 1.388-0.131 2.084-0.103-0.292 0.266-0.621 0.482-0.939 0.712 0.228 0.284 0.451 0.573 0.681 0.857 0.863-0.491 2.026-0.401 2.725 0.333 0.916 0.892 0.732 2.556-0.331 3.254-1.183 0.884-2.956 0.179-3.401-1.18-0.242 0.073-0.482 0.149-0.72 0.229 0.096 0.261 0.196 0.523 0.302 0.781-0.093 0-0.275-0.002-0.366-0.002-0.263-1.47-1.628-2.447-2.588-3.5 0.597 0.822 1.233 1.865 0.653 2.883-0.553 1.229-2.365 1.565-3.325 0.62-0.921-0.796-0.893-2.386 0.068-3.138 0.641-0.58 1.577-0.606 2.354-0.314 0.178-0.536 0.36-1.071 0.551-1.603-0.039-0.096-0.12-0.286-0.161-0.381M6.085 4.071c0.589 0.717 1.221 1.397 1.826 2.102 0.19-0.071 0.381-0.14 0.576-0.201 0.201-0.646 0.418-1.284 0.629-1.926-1.010 0.008-2.022-0.014-3.030 0.024M9.501 4.318c-0.279 0.807-0.556 1.615-0.832 2.421 0.167-0.020 0.336-0.039 0.504-0.059 0.017-0.674 0.292-1.297 0.74-1.794-0.138-0.19-0.275-0.378-0.412-0.568M2.988 6.023c-0.448 1.27 0.984 2.611 2.225 2.069 1.185-0.384 1.423-1.985 0.606-2.847-0.362 0.544-0.72 1.29-1.402 1.443 0.096-0.664 0.937-0.986 1.098-1.683-0.949-0.466-2.244-0.058-2.528 1.018M10.495 4.994c0.389 0.541 0.799 1.066 1.217 1.584-0.671 0.149-1.353 0.252-2.026 0.393 0.327 0.711 1.021 1.32 1.852 1.198 1.138-0.049 1.908-1.405 1.396-2.414-0.407-0.921-1.574-1.2-2.438-0.763M9.603 6.565c0.482-0.056 0.962-0.122 1.44-0.193-0.289-0.38-0.577-0.758-0.873-1.132-0.336 0.368-0.53 0.829-0.567 1.325z"></path>
<path fill="#231f20" d="M3.747 10.53c0.1 0.005 0.302 0.014 0.404 0.020 0.143 0.31 0.287 0.621 0.434 0.93 0.149-0.316 0.295-0.632 0.442-0.948 0.1 0.003 0.301 0.009 0.403 0.012-0.422 0.808-0.816 1.662-0.655 2.601-0.094 0.014-0.283 0.038-0.375 0.050 0.137-0.958-0.231-1.832-0.653-2.664z"></path>
<path fill="#231f20" d="M5.772 10.481c0.114 0 0.342 0 0.456 0 0 0.911 0 1.823 0 2.734-0.114 0-0.342 0-0.456 0 0-0.911 0-1.823 0-2.734z"></path>
<path fill="#231f20" d="M6.725 10.537c0.413 0 0.826 0 1.239 0 0.003 0.091 0.008 0.275 0.011 0.366-0.29 0.003-0.58 0.005-0.87 0.009 0.002 0.191 0.003 0.384 0.006 0.577 0.254 0.073 0.504 0.167 0.67 0.386-0.225 0.030-0.448 0.058-0.673 0.082-0.002 0.281-0.002 0.564 0 0.845 0.321 0.002 0.641 0.002 0.962 0.002 0 0.093 0 0.278 0 0.371-0.448 0-0.896 0-1.344 0 0-0.879 0-1.757 0-2.637z"></path>
<path fill="#231f20" d="M10.209 10.524c0.453 0.049 1.129-0.135 1.328 0.421 0.21 0.603 0.234 1.318-0.053 1.902-0.243 0.468-0.849 0.289-1.273 0.343-0.008-0.889-0.006-1.777-0.002-2.666M10.596 10.841c-0.014 0.677-0.015 1.353 0.002 2.031 1.039 0.009 1.033-2.043-0.002-2.031z"></path>
<path fill="#231f20" d="M8.503 10.537c0.094 0.002 0.286 0.002 0.381 0.002 0 0.761-0.002 1.522 0 2.283 0.321 0 0.641 0 0.962 0 0.002 0.088 0.005 0.263 0.006 0.349-0.45 0.003-0.899 0.003-1.349 0.005 0-0.879 0-1.759 0-2.638z"></path>
<path fill="#231f20" d="M6.36 14.499c0.441 0.002 0.881 0.002 1.322 0 0.009 0.082 0.026 0.245 0.035 0.327-0.169 0.017-0.337 0.033-0.506 0.050 0.002 0.755 0.002 1.508 0 2.263-0.093 0.002-0.281 0.002-0.374 0.003-0.009-0.761-0.006-1.522-0.006-2.282-0.123-0.005-0.368-0.012-0.491-0.017 0.005-0.087 0.015-0.258 0.020-0.345z"></path>
<path fill="#231f20" d="M8.564 14.485c1.080-0.21 1.086 1.311 0.921 2.014-0.026 0.7-1.069 0.966-1.317 0.266-0.223-0.712-0.362-1.85 0.396-2.28M8.809 16.956c0.524-0.635 0.533-1.63 0.003-2.265-0.633 0.567-0.612 1.689-0.003 2.265z"></path>
<path fill="#231f20" d="M10.516 19.554c-0.454-0.357-0.114-1.138 0.436-1.138 0.412-0.044 0.591 0.372 0.776 0.656-0.084 0.003-0.251 0.009-0.334 0.012-0.245-0.216-0.544-0.434-0.755-0.056 0.164 0.494 0.831 0.606 0.977 1.119 0.204 0.551-0.401 1.205-0.965 0.948-0.365-0.126-0.425-0.55-0.529-0.866 0.342 0.111 0.74 0.81 1.082 0.384 0.317-0.494-0.425-0.75-0.688-1.060z"></path>
<path fill="#231f20" d="M4.678 18.453c0.559-0.015 1.479-0.079 1.483 0.715 0.090 0.655-0.595 0.828-1.109 0.816 0.005 0.372 0.006 0.746 0.006 1.118-0.096 0-0.286-0.002-0.381-0.002 0-0.883-0.002-1.765 0.002-2.648M5.060 18.785c0 0.286 0.002 0.573 0.006 0.86 0.275-0.084 0.828-0.052 0.714-0.491 0-0.345-0.482-0.295-0.72-0.369z"></path>
<path fill="#231f20" d="M6.519 18.465c0.415-0.002 0.828-0.002 1.241-0.002 0 0.093 0 0.278 0 0.369-0.289 0.003-0.576 0.005-0.864 0.008 0.002 0.219 0.003 0.439 0.009 0.658 0.135 0.002 0.407 0.003 0.542 0.003-0.002 0.088-0.003 0.266-0.003 0.355-0.182 0.003-0.365 0.008-0.545 0.014 0 0.286 0 0.573 0 0.86 0.325 0 0.649 0.003 0.972 0.006-0.003 0.091-0.008 0.273-0.011 0.365-0.448 0-0.895 0-1.341 0.002 0-0.879 0-1.759 0-2.637z"></path>
<path fill="#231f20" d="M8.309 18.45c0.38 0.050 0.848-0.081 1.167 0.172 0.684 0.933 0.36 2.944-1.167 2.497-0.005-0.89-0.003-1.78 0-2.669M8.698 18.772c-0.017 0.673-0.018 1.346 0.005 2.019 1.034 0.023 1.039-2.052-0.005-2.019z"></path>
<path fill="#acaaab" d="M0 1.504l0.033 0.223c0.178 0.934 0.112 1.887 0.114 2.831 0.002 4.961 0.002 9.924 0 14.885-0.002 0.946 0.065 1.902-0.112 2.837l-0.035 0.229v-21.006z"></path>
<path fill="#242021" d="M1.735 23.701c4.148 0.012 8.3-0.049 12.448 0.030 0.097 0.027 0.292 0.081 0.39 0.106l-0.169 0.008c-4.171 0.012-8.341-0.009-12.51 0.011l-0.159-0.155z"></path>
<path fill="#eee" d="M1.894 23.856c4.17-0.020 8.339 0.002 12.51-0.011l-0.284 0.155h-12.336l0.109-0.144z"></path>
</svg>
