<svg xmlns="http://www.w3.org/2000/svg" width="24" height="24">
    <path fill="#fff" d="M3.127 0h17.742c.489.152.758.683.749 1.171v21.658c.008.488-.259 1.018-.748 1.171H3.131c-.49-.151-.758-.683-.75-1.171V1.171C2.372.683 2.639.155 3.127 0zm.502.592c-.487.102-.769.625-.765 1.093v20.632c0 .402.195.827.56 1.021.2.11.435.087.654.089l16.127-.001c.549.007.92-.555.929-1.06V1.638c-.008-.505-.378-1.066-.927-1.06L3.84.577a1.246 1.246 0 0 0-.212.017z"/>
    <path fill="#fff" d="M4.049 1.196c.07-.017.142-.019.214-.021h15.191c.233.003.486-.03.695.097.355.202.517.628.513 1.021-.001 6.487.001 12.974-.001 19.461.005.495-.332 1.065-.875 1.069H4.214c-.543-.004-.881-.574-.875-1.069V2.246c.002-.443.25-.938.709-1.05zm1.209 1.811c-.32.293-.324.866.008 1.151.335.293.81.317 1.173.557.237.141.193.533-.061.63-.374.168-.814-.057-.965-.422-.172.066-.346.127-.516.196.224.797 1.305 1.074 1.938.591.406-.306.456-.979.088-1.334-.33-.322-.814-.363-1.2-.585-.162-.087-.176-.336-.023-.438a.607.607 0 0 1 .847.237c.165-.058.331-.113.498-.168-.189-.756-1.263-.907-1.786-.415zm2.675-.232c-.007 1.041.001 2.083-.005 3.124.187-.003.374-.002.561-.001.005-.391 0-.782.003-1.172.443-.028.93.089 1.33-.157.506-.303.593-1.082.195-1.507-.212-.221-.532-.291-.828-.29-.419.001-.838-.004-1.256.003zm2.959.003c-.009 1.039-.001 2.079-.004 3.119.71-.002 1.42.002 2.13-.002.003-.18.004-.36-.001-.54-.521-.007-1.043-.001-1.564-.003v-.787c.301-.001.603.001.904-.001.005-.177.005-.355.003-.532-.303-.002-.605 0-.908-.001l.001-.712c.489-.001.978.002 1.468-.001.004-.18.004-.36 0-.54a137.23 137.23 0 0 0-2.029.001zm2.853 0c-.007 1.04.002 2.08-.004 3.12.71-.006 1.419.002 2.129-.004.007-.18.007-.36.002-.54-.523-.006-1.045 0-1.567-.003v-.787c.302 0 .604.001.906-.001.007-.177.006-.355.004-.532-.304-.002-.607 0-.911-.001v-.712c.489-.002.979.003 1.469-.003.007-.18.006-.36.001-.54-.676-.002-1.353-.006-2.03.001zm2.842-.003c-.002 1.041-.004 2.082.001 3.122.655-.032 1.415.136 1.956-.336.648-.603.658-1.772.048-2.406-.536-.516-1.333-.356-2.005-.381zM6.353 7.419c-.006 1.038-.002 2.076-.002 3.114.682.002 1.364.001 2.046 0v-.546c-.494-.005-.987 0-1.48-.002-.003-.855.004-1.711-.004-2.566a13.022 13.022 0 0 0-.559 0zm2.685-.001c-.003 1.039-.001 2.077-.001 3.116.188.001.376.002.565-.002a462.06 462.06 0 0 0 0-3.115 11.783 11.783 0 0 0-.564.001zm1.478-.001c-.007 1.039-.002 2.078-.002 3.117h.563c0-.626.006-1.252-.004-1.878.27.659.57 1.305.853 1.959.284-.654.595-1.298.853-1.964-.016.627-.004 1.255-.007 1.883.188.001.376.001.564-.001.003-1.039.005-2.078-.001-3.117a24.3 24.3 0 0 0-.54 0c-.287.667-.599 1.323-.862 1.999-.263-.675-.574-1.331-.857-1.998a13.065 13.065 0 0 0-.56.001zm3.738-.002c-.001 1.04.001 2.08-.001 3.12.185-.002.37-.001.555-.001-.001-1.04.001-2.079-.001-3.119a25.485 25.485 0 0 0-.553 0zm1.275-.005c-.004.181-.003.363 0 .544.29.003.58 0 .87.002l.001 2.577h.563c.003-.859 0-1.718.001-2.577h.865c0-.182.001-.365-.002-.547-.766-.001-1.532-.003-2.298.001zm-10.74 4.586c.001 2.892-.002 5.785.001 8.677.037.317.41.453.69.454h13.039c.28-.001.653-.137.69-.454.003-2.892 0-5.785.001-8.677 0-.282-.301-.434-.544-.471-.152-.025-.307-.058-.461-.038a7.972 7.972 0 0 1-1.207-.001h-.061c-.4.033-.805.031-1.205.001l-.061-.002c-.4.034-.806.032-1.206.002l-.06-.003c-.412.035-.83.034-1.241 0l-.031-.003c-.344.049-.694.013-1.04.024-1.334-.012-2.67.025-4.001-.019l-.061-.003c-.874.056-1.754-.005-2.63.031-.264.026-.609.172-.613.481z"/>
    <path fill="#fff" d="M8.492 3.319c.294.008.591-.019.883.013.392.075.414.718.033.825-.302.044-.611.009-.916.02v-.858zM17.147 3.318c.356.01.789-.075 1.051.233.349.442.348 1.162-.031 1.586-.264.282-.675.208-1.02.215V3.318z"/>
    <path d="M3.629.592c.069-.014.141-.016.212-.017 5.456.002 10.911 0 16.367.001.549-.006.919.555.927 1.06.002 6.909.002 13.819 0 20.728-.009.505-.38 1.067-.929 1.06l-16.127.001c-.22-.001-.454.022-.654-.089-.365-.194-.561-.619-.56-1.021V1.683c-.004-.468.278-.99.765-1.093zm.42.604c-.459.112-.707.607-.709 1.05v19.508c-.006.495.332 1.065.875 1.069h15.572c.543-.005.88-.575.875-1.069.002-6.487 0-12.974.001-19.461.003-.393-.158-.819-.513-1.021-.21-.127-.462-.094-.695-.097H4.264a.96.96 0 0 0-.214.021z"/>
    <path d="M5.258 3.007c.523-.492 1.598-.34 1.786.415-.166.055-.333.11-.498.168a.607.607 0 0 0-.847-.237c-.153.102-.139.351.023.438.386.221.87.263 1.2.585.368.355.319 1.028-.088 1.334-.633.484-1.714.207-1.938-.591.17-.069.345-.13.516-.196.151.365.591.59.965.422.254-.096.298-.489.061-.63-.363-.24-.839-.264-1.173-.557-.332-.285-.328-.858-.008-1.151zM7.933 2.775c.419-.007.838-.002 1.256-.003.296 0 .616.069.828.29.397.425.311 1.204-.195 1.507-.401.245-.888.129-1.33.157-.002.39.002.781-.003 1.172-.187-.001-.374-.002-.561.001.006-1.041-.002-2.083.005-3.124zm.559.544v.858c.305-.01.614.024.916-.02.381-.108.359-.75-.033-.825-.292-.032-.589-.005-.883-.013zM10.892 2.778a137.23 137.23 0 0 1 2.029-.001c.005.18.005.36 0 .54-.489.003-.978 0-1.468.001l-.001.712c.303.002.605-.001.908.001.002.177.002.355-.003.532-.301.003-.603 0-.904.001v.787c.521.002 1.043-.004 1.564.003.005.18.004.36.001.54-.71.004-1.42 0-2.13.002.003-1.04-.005-2.08.004-3.119zM13.745 2.778c.676-.007 1.353-.004 2.03-.001.005.18.005.36-.001.54-.49.006-.98 0-1.469.003v.712c.304.001.607-.001.911.001.001.178.002.355-.004.532-.302.002-.604 0-.906.001v.787c.522.002 1.044-.003 1.567.003.005.18.005.36-.002.54-.709.006-1.419-.002-2.129.004.006-1.04-.002-2.08.004-3.12zM16.587 2.775c.673.024 1.469-.135 2.005.381.61.633.6 1.802-.048 2.406-.541.473-1.301.304-1.956.336a464.16 464.16 0 0 1-.001-3.122zm.56.543v2.034c.345-.007.756.067 1.02-.215.379-.424.38-1.143.031-1.586-.262-.308-.695-.223-1.051-.233zM6.353 7.419c.187-.004.373-.004.559 0 .008.855 0 1.711.004 2.566.494.003.987-.002 1.48.002.002.182.001.364 0 .546H6.35c0-1.038-.004-2.076.002-3.114zM9.038 7.418c.188-.006.376-.006.564-.001a462.06 462.06 0 0 1 0 3.115c-.188.004-.377.003-.565.002 0-1.039-.002-2.077.001-3.116zM10.516 7.417c.187-.005.374-.004.56-.001.283.667.593 1.323.857 1.998.263-.676.575-1.332.862-1.999.18-.002.36-.002.54 0 .006 1.039.004 2.078.001 3.117-.188.003-.376.002-.564.001.003-.628-.009-1.256.007-1.883-.257.666-.569 1.31-.853 1.964-.283-.654-.583-1.3-.853-1.959.01.626.005 1.252.004 1.878h-.563c0-1.039-.005-2.078.002-3.117zM14.254 7.415c.184-.002.368-.002.553 0 .002 1.04 0 2.079.001 3.119-.185 0-.37-.001-.555.001.002-1.04 0-2.08.001-3.12zM15.529 7.41c.766-.004 1.532-.002 2.298-.001.003.182.002.364.002.547h-.865c-.002.859.001 1.718-.001 2.577-.188.002-.375.001-.563 0l-.001-2.577c-.29-.001-.58.001-.87-.002a16.442 16.442 0 0 1 0-.544zM4.789 11.996c.004-.309.349-.455.613-.481.876-.037 1.755.024 2.63-.031-.233.052-.442.232-.485.473-.06.346.325.674.657.566.27-.076.444-.403.332-.666-.072-.192-.255-.31-.442-.37 1.332.044 2.668.007 4.001.019.346-.011.696.025 1.04-.024-.326.065-.607.435-.437.759.157.343.683.416.887.078.243-.332-.046-.781-.418-.834.412.034.829.034 1.241 0-.232.053-.44.233-.483.474-.059.344.322.673.654.566.274-.074.444-.403.333-.667-.072-.192-.256-.31-.444-.37.4.03.806.032 1.206-.002-.232.055-.438.238-.478.478-.056.355.35.685.685.552.259-.09.414-.409.301-.664-.075-.19-.259-.307-.448-.364.4.03.805.032 1.205-.001-.229.059-.433.24-.471.48-.054.353.349.681.683.55.263-.09.417-.415.3-.672-.078-.188-.262-.303-.451-.358.4.032.806.03 1.207.001-.229.059-.431.244-.466.484-.048.349.346.67.677.547.268-.087.426-.418.306-.677-.063-.162-.221-.251-.356-.344.1.008.2.018.3.029.243.037.544.189.544.471-.001 2.892.002 5.785-.001 8.677-.037.317-.41.453-.69.454H5.482c-.281-.001-.654-.137-.69-.454-.003-2.892 0-5.785-.001-8.677zm1.837.824a.587.587 0 0 0-.346.4c-.083.351.305.7.645.594a.517.517 0 0 0 .369-.455c.032-.337-.34-.661-.668-.54zm1.308-.011c-.345.09-.535.579-.256.841.214.271.675.226.828-.084.225-.36-.169-.868-.572-.757zm5.067.011c-.251.098-.43.402-.325.664.092.221.34.391.584.34a.518.518 0 0 0 .411-.47c.028-.336-.343-.656-.67-.534zm-4.97 1.264c-.242.008-.44.22-.485.449-.057.342.324.659.651.558a.515.515 0 0 0 .368-.55c-.039-.251-.277-.466-.534-.457zm5.109 0c-.244.006-.444.219-.489.449-.045.268.178.513.428.57a.51.51 0 0 0 .584-.404c.066-.307-.216-.622-.523-.615zm1.266 0c-.241.009-.437.222-.482.449-.056.341.322.658.649.559a.513.513 0 0 0 .369-.428c.04-.299-.238-.591-.536-.579zm1.265 0c-.24.013-.434.226-.477.454-.05.337.32.647.644.555a.513.513 0 0 0 .375-.556c-.041-.252-.283-.468-.542-.453zm1.266.001c-.378.023-.634.543-.352.829.203.266.649.256.823-.036.241-.33-.08-.827-.471-.793zm-9.048 1.3a.582.582 0 0 0-.342.413c-.063.344.318.667.648.566a.518.518 0 0 0 .371-.436c.041-.345-.345-.673-.677-.543zm10.174.008a.585.585 0 0 0-.323.423c-.046.331.314.637.634.553a.513.513 0 0 0 .389-.477c.013-.34-.377-.644-.7-.498zM7.89 16.657c-.323.115-.48.584-.203.827.232.277.719.194.843-.145.177-.375-.256-.834-.64-.683zm10.176.008c-.203.096-.362.325-.323.556.034.213.223.378.427.427a.51.51 0 0 0 .591-.443c.046-.353-.359-.689-.694-.539zM7.891 17.93c-.322.114-.481.578-.208.824.224.27.694.208.835-.114.207-.375-.232-.866-.627-.71zm5.11-.002a.572.572 0 0 0-.353.446c-.03.264.193.497.44.548a.511.511 0 0 0 .578-.418c.067-.352-.323-.704-.665-.576zm5.107-.006c-.326.101-.506.563-.241.819.215.275.684.233.838-.083.22-.368-.195-.869-.596-.736zM6.671 19.187a.567.567 0 0 0-.399.452c-.042.337.328.642.651.545a.512.512 0 0 0 .366-.404c.067-.335-.284-.677-.617-.594zm1.266.002c-.346.085-.54.575-.258.834.223.276.702.215.841-.113.193-.359-.199-.825-.583-.721zm1.267.001c-.341.089-.531.57-.255.83.221.277.698.222.841-.104.201-.361-.197-.838-.586-.726zm5.108-.001a.573.573 0 0 0-.384.412c-.078.345.302.681.636.586a.512.512 0 0 0 .375-.415c.059-.335-.295-.671-.627-.583zm1.267.002c-.34.09-.529.569-.254.829.221.277.698.222.841-.103.2-.361-.198-.839-.587-.726zm1.266.001c-.333.094-.519.564-.251.823.218.278.694.231.842-.093.207-.364-.197-.851-.591-.729z"/>
    <path fill="#ccc" d="M8.032 11.483l.061.003c.187.06.371.179.442.37.112.263-.061.59-.332.666-.332.108-.716-.22-.657-.566.043-.241.252-.422.485-.473zM13.134 11.481l.031.003c.372.053.661.502.418.834-.204.338-.73.265-.887-.078-.17-.324.112-.694.437-.759zM14.407 11.483l.06.003c.188.06.372.178.444.37.111.264-.06.593-.333.667-.332.107-.713-.222-.654-.566.043-.24.25-.421.483-.474zM15.673 11.484l.061.002c.188.057.372.174.448.364.112.255-.043.574-.301.664-.335.134-.741-.197-.685-.552.04-.24.246-.423.478-.478zM16.939 11.485H17c.189.054.374.169.451.358.117.256-.038.582-.3.672-.334.131-.737-.197-.683-.55.038-.24.242-.421.471-.48zM18.207 11.487c.154-.02.309.013.461.038-.1-.011-.201-.021-.3-.029.135.093.293.182.356.344.12.259-.038.59-.306.677-.331.124-.726-.198-.677-.547.035-.24.237-.425.466-.484zM6.626 12.82c.328-.122.7.203.668.54a.52.52 0 0 1-.369.455c-.34.105-.728-.244-.645-.594a.587.587 0 0 1 .346-.4zM7.934 12.809c.403-.111.797.397.572.757-.153.31-.614.355-.828.084-.279-.262-.089-.75.256-.841zM13.001 12.82c.327-.122.697.198.67.534a.519.519 0 0 1-.411.47c-.244.052-.492-.119-.584-.34-.105-.262.075-.566.325-.664zM8.031 14.084c.257-.008.495.206.534.457a.515.515 0 0 1-.368.55c-.327.1-.708-.216-.651-.558.045-.229.243-.441.485-.449zM13.14 14.084c.307-.008.589.308.523.615a.51.51 0 0 1-.584.404c-.25-.056-.474-.301-.428-.57.045-.23.246-.443.489-.449zM14.406 14.084c.298-.011.576.28.536.579a.513.513 0 0 1-.369.428c-.327.099-.705-.217-.649-.559.045-.227.241-.44.482-.449zM15.671 14.084c.259-.015.502.202.542.453a.513.513 0 0 1-.375.556c-.324.092-.694-.218-.644-.555.043-.228.236-.441.477-.454zM16.937 14.085c.391-.034.712.463.471.793-.174.292-.62.301-.823.036-.283-.285-.026-.806.352-.829zM7.889 15.385c.332-.13.719.198.677.543a.519.519 0 0 1-.371.436c-.33.1-.711-.222-.648-.566a.58.58 0 0 1 .342-.413zM18.063 15.393c.322-.145.713.158.7.498a.512.512 0 0 1-.389.477c-.32.084-.68-.221-.634-.553a.585.585 0 0 1 .323-.423zM7.89 16.657c.383-.152.817.308.64.683-.125.338-.611.422-.843.145-.277-.244-.12-.712.203-.827zM18.066 16.665c.335-.15.74.186.694.539a.51.51 0 0 1-.591.443c-.204-.048-.392-.214-.427-.427-.039-.231.12-.46.323-.556zM7.891 17.93c.395-.156.834.336.627.71-.141.322-.611.384-.835.114-.273-.246-.113-.71.208-.824zM13.001 17.928c.341-.128.732.225.665.576a.511.511 0 0 1-.578.418c-.247-.051-.471-.284-.44-.548a.573.573 0 0 1 .353-.446zM18.108 17.922c.401-.133.817.368.596.736-.153.316-.622.358-.838.083-.265-.256-.085-.719.241-.819zM6.671 19.187c.333-.083.684.259.617.594a.512.512 0 0 1-.366.404c-.323.097-.693-.209-.651-.545a.567.567 0 0 1 .399-.452zM7.937 19.189c.384-.105.776.362.583.721-.139.328-.618.39-.841.113-.282-.26-.089-.749.258-.834zM9.204 19.19c.389-.112.787.365.586.726-.143.326-.621.381-.841.104-.275-.26-.085-.741.255-.83zM14.312 19.189c.331-.089.686.248.627.583a.513.513 0 0 1-.375.415c-.334.095-.714-.24-.636-.586a.577.577 0 0 1 .384-.412zM15.579 19.191c.389-.113.787.364.587.726-.144.325-.621.38-.841.103-.275-.26-.086-.738.254-.829zM16.845 19.192c.394-.121.798.365.591.729-.148.324-.624.371-.842.093-.268-.259-.082-.728.251-.823z"/>
</svg>
