<?xml version="1.0" encoding="utf-8"?>
<!-- Generated by IcoMoon.io -->
<!DOCTYPE svg PUBLIC "-//W3C//DTD SVG 1.1//EN" "http://www.w3.org/Graphics/SVG/1.1/DTD/svg11.dtd">
<svg version="1.1" xmlns="http://www.w3.org/2000/svg" xmlns:xlink="http://www.w3.org/1999/xlink" width="24" height="24" viewBox="0 0 24 24">
<path fill="#fff" d="M0 0h10.77c-0.936 0.185-1.883 0.313-2.778 0.662-3.683 1.271-6.638 4.46-7.595 8.239-0.223 0.651-0.239 1.343-0.397 2.009v-10.91z"></path>
<path fill="#fff" d="M12.953 0h11.047v10.784c-0.281-2.019-0.946-4.014-2.152-5.681-2.008-2.92-5.376-4.823-8.896-5.104z"></path>
<path fill="#fff" d="M5.243 4.979c1.974-1.974 4.825-3.004 7.605-2.795 1.934 0.145 3.839 0.85 5.353 2.068-0.736 0.74-1.448 1.535-2.249 2.202-2.456-0.003-4.913 0.010-7.369-0.007l-0.068 0.065c0.001 0.407 0.006 0.812-0.003 1.217l0.075 0.061c1.899-0.008 3.796-0.004 5.695-0.003l0.064 0.124-0.075 0.15c-2.063 0.072-4.138 0.016-6.205 0.028-0.003-0.957 0.010-1.914-0.006-2.872-0.018-0.473-0.553-0.357-0.868-0.363-0.38 0.045-0.865-0.136-1.146 0.209-0.736 1.057-0.857 2.389-0.782 3.64 0.335 0.003 0.669 0.014 1.004-0.010 0.085 0.23 0.131 0.518 0.398 0.613 0.424 0.234 0.943-0.136 0.944-0.597 2.032-0.006 4.063 0.001 6.095-0.004l-0.052 0.121c-1.172 1.142-2.308 2.321-3.481 3.46-0.040 0.016-0.117 0.048-0.155 0.064-0.877 0.008-1.755 0.003-2.632 0.003-0.016 0.229-0.011 0.455 0.013 0.682 0.683-0.001 1.371 0.045 2.051-0.016-0.162 0.164-0.323 0.326-0.486 0.488-0.059-0.222-0.257-0.416-0.494-0.422-0.521-0.011-1.042-0.030-1.557-0.076-0.032-0.987 0.035-1.978-0.034-2.96-0.080-0.381-0.538-0.236-0.81-0.261-0.412 0.047-0.973-0.158-1.241 0.268-0.682 1.062-0.833 2.365-0.717 3.599 0.336-0.011 0.671-0.003 1.007-0.011 0.025 0.311 0.198 0.632 0.532 0.688 0.421 0.106 0.803-0.275 0.798-0.688 0.412 0.003 0.824 0.017 1.235-0.007 0.055 0.278 0.155 0.603 0.479 0.664-0.176 0.175-0.333 0.377-0.534 0.524-0.428-0.241-0.956-0.056-1.424-0.114-0.477-0.076-0.709 0.416-0.871 0.772-0.246 0.647-0.493 1.326-0.462 2.027-0.109 0.179-0.295 0.559-0.525 0.488-1.499-1.926-2.226-4.426-2.006-6.856 0.189-2.315 1.244-4.543 2.905-6.162z"></path>
<path fill="#fff" d="M5.983 6.006c0.106-0.25 0.158-0.641 0.505-0.654 0.377-0.013 0.767-0.045 1.141 0.017 0.126 0.473 0.024 0.983 0.056 1.47-0.63 0.013-1.266 0.034-1.895-0.008-0.097-0.295 0.113-0.555 0.192-0.824z"></path>
<path fill="#fff" d="M19.025 6.912c0.138-0.408 0.573-0.706 0.882-0.964 1.482 1.902 2.232 4.355 2.046 6.761-0.185 2.842-1.697 5.558-4.005 7.223-1.851 1.385-4.211 2.053-6.514 1.886-1.913-0.134-3.771-0.853-5.293-2.017-0.093-0.234 0.304-0.429 0.49-0.527 0.342-0.049 0.589-0.349 0.589-0.69 0.418-0.030 0.839-0.006 1.256-0.013-0.011 0.431 0.426 0.823 0.851 0.664 0.456-0.113 0.594-0.733 0.281-1.066 0.034-0.167 0.042-0.335 0.024-0.503 3.257-0.042 6.518-0.004 9.776-0.020 0.004-0.944 0.001-1.888 0-2.832-2.802 0.001-5.608-0.013-8.41 0.007 0.549-0.593 1.132-1.156 1.711-1.721 2.49-0.109 4.989-0.027 7.482-0.052-0.001-0.085-0.001-0.253-0.003-0.336-2.273-0.006-4.547 0.001-6.822-0.004 0.004-0.071 0.013-0.21 0.017-0.281 1.121-1.131 2.245-2.291 3.392-3.374 0.253 0.422 0.944 0.431 1.153-0.034 0.193-0.332-0.071-0.641-0.181-0.943v0c0.079-0.119 0.181-0.239 0.318-0.289 0.312 0 0.625 0 0.937 0.001 0.040-0.289-0.004-0.584 0.020-0.875M16.437 13.159c-0.439 0.241-0.38 0.98 0.102 1.136 0.455 0.216 1.009-0.256 0.871-0.741-0.082-0.429-0.621-0.601-0.973-0.395M18.11 13.135c-0.415 0.217-0.44 0.878-0.030 1.11 0.404 0.28 1.021-0.058 0.991-0.552 0.008-0.483-0.549-0.762-0.961-0.558M15.723 17.983c-0.4 0.244-0.384 0.912 0.048 1.112 0.411 0.248 0.987-0.117 0.947-0.594-0.003-0.48-0.6-0.791-0.995-0.518M17.406 17.96c-0.445 0.226-0.436 0.949 0.027 1.144 0.361 0.205 0.865-0.058 0.916-0.464 0.12-0.507-0.5-0.949-0.943-0.679z"></path>
<path fill="#fff" d="M5.113 10.344c0.426-0.13 0.922-0.12 1.351-0.028 0.124 0.455 0.032 0.954 0.051 1.427-0.577 0.121-1.213 0.007-1.811 0.055-0.030-0.054-0.089-0.16-0.119-0.212 0.154-0.415 0.243-0.899 0.528-1.242z"></path>
<path fill="#fff" d="M19.547 21.359c2.56-2.029 4.184-5.156 4.453-8.399v11.040h-11.023c2.38-0.217 4.712-1.117 6.57-2.641z"></path>
<path fill="#fff" d="M0 13.184c0.174 0.398 0.092 0.851 0.243 1.256 0.8 4.166 4.025 7.746 8.075 9.008 0.798 0.285 1.633 0.378 2.458 0.551h-10.776v-10.816z"></path>
<path fill="#fff" d="M5.835 15.32c0.405-0.244 0.919-0.085 1.369-0.123-0.172 0.332-0.525 0.548-0.768 0.836-0.27 0.219-0.452 0.569-0.793 0.68-0.21 0.076-0.339-0.16-0.247-0.336 0.145-0.353 0.246-0.73 0.439-1.057z"></path>
<path fill="#c0111e" d="M10.77 0h2.183c3.52 0.281 6.888 2.184 8.896 5.104 1.206 1.667 1.871 3.662 2.152 5.681v2.176c-0.268 3.243-1.893 6.37-4.453 8.399-1.858 1.525-4.19 2.424-6.57 2.641h-2.201c-0.824-0.172-1.66-0.265-2.458-0.551-4.050-1.262-7.275-4.842-8.075-9.008-0.151-0.405-0.069-0.858-0.243-1.256v-2.274c0.158-0.666 0.174-1.358 0.397-2.009 0.957-3.779 3.912-6.968 7.595-8.239 0.895-0.349 1.842-0.477 2.778-0.662M5.243 4.979c-1.662 1.619-2.716 3.847-2.905 6.162-0.22 2.43 0.507 4.93 2.006 6.856 0.23 0.071 0.416-0.309 0.525-0.488 0.313-0.164 0.644-0.466 0.774-0.795 0.342-0.112 0.524-0.462 0.793-0.68 0.243-0.288 0.596-0.504 0.768-0.836l0.088-0.001c0.117-0.119 0.23-0.241 0.335-0.373 0.2-0.147 0.357-0.349 0.534-0.524 0.278-0.253 0.536-0.527 0.803-0.792 0.162-0.162 0.323-0.325 0.486-0.488 0.182-0.223 0.503-0.376 0.568-0.669 0.038-0.016 0.116-0.048 0.155-0.064 1.173-1.139 2.31-2.318 3.481-3.46l0.052-0.121c0.477-0.328 0.839-0.824 1.276-1.213 0.309-0.357 0.728-0.635 0.971-1.038 0.8-0.668 1.513-1.463 2.249-2.202-1.515-1.218-3.419-1.923-5.353-2.068-2.78-0.209-5.632 0.822-7.605 2.795M19.025 6.912c-0.394 0.134-0.699 0.549-0.957 0.874-0.137 0.051-0.239 0.171-0.318 0.289v0c-0.343 0.301-0.686 0.621-0.973 0.977-1.148 1.083-2.272 2.243-3.392 3.374-0.243 0.205-0.463 0.436-0.675 0.673-0.579 0.565-1.162 1.128-1.711 1.721-0.956 0.872-1.816 1.855-2.781 2.718 0.123 0.104 0.16 0.234 0.109 0.391-0.158 0.119-0.381-0.048-0.545 0.083-0.377 0.421-0.908 0.755-1.151 1.261-0.186 0.097-0.583 0.292-0.49 0.527 1.522 1.165 3.38 1.883 5.293 2.017 2.303 0.167 4.663-0.501 6.514-1.886 2.308-1.664 3.82-4.381 4.005-7.223 0.186-2.406-0.563-4.859-2.046-6.761-0.309 0.258-0.744 0.556-0.882 0.964z"></path>
<path fill="#030303" d="M6.047 5.064c0.281-0.344 0.767-0.164 1.146-0.209 0.315 0.006 0.85-0.11 0.868 0.363 0.016 0.957 0.003 1.914 0.006 2.872 2.067-0.013 4.142 0.044 6.205-0.028l0.075-0.15-0.064-0.124c-1.899-0.001-3.796-0.006-5.695 0.003l-0.075-0.061c0.008-0.405 0.004-0.81 0.003-1.217l0.068-0.065c2.456 0.017 4.913 0.004 7.369 0.007-0.243 0.402-0.662 0.68-0.971 1.038-0.438 0.388-0.799 0.885-1.276 1.213-2.032 0.006-4.063-0.001-6.095 0.004-0.001 0.462-0.521 0.832-0.944 0.597-0.267-0.095-0.313-0.383-0.398-0.613-0.335 0.024-0.669 0.013-1.004 0.010-0.075-1.251 0.047-2.582 0.782-3.64M5.983 6.006c-0.079 0.27-0.289 0.529-0.192 0.824 0.628 0.042 1.265 0.021 1.895 0.008-0.032-0.487 0.069-0.997-0.056-1.47-0.374-0.062-0.764-0.030-1.141-0.017-0.347 0.013-0.4 0.404-0.505 0.654z"></path>
<path fill="#030303" d="M18.068 7.786c0.258-0.325 0.563-0.74 0.957-0.874-0.024 0.291 0.020 0.586-0.020 0.875-0.312-0.001-0.625-0.001-0.937-0.001z"></path>
<path fill="#030303" d="M16.777 9.052c0.287-0.356 0.63-0.676 0.973-0.977 0.11 0.302 0.374 0.611 0.181 0.943-0.209 0.464-0.901 0.456-1.153 0.034z"></path>
<path fill="#030303" d="M4.827 10.056c0.268-0.426 0.829-0.222 1.241-0.268 0.272 0.025 0.73-0.12 0.81 0.261 0.069 0.983 0.001 1.974 0.034 2.96 0.515 0.047 1.036 0.065 1.557 0.076 0.237 0.006 0.435 0.2 0.494 0.422-0.267 0.265-0.525 0.539-0.803 0.792-0.323-0.061-0.424-0.385-0.479-0.664-0.411 0.024-0.823 0.010-1.235 0.007 0.006 0.412-0.377 0.793-0.798 0.688-0.335-0.055-0.507-0.377-0.532-0.688-0.336 0.008-0.671 0-1.007 0.011-0.116-1.234 0.035-2.537 0.717-3.599M5.113 10.344c-0.285 0.343-0.374 0.827-0.528 1.242 0.030 0.052 0.089 0.158 0.119 0.212 0.599-0.048 1.234 0.066 1.811-0.055-0.018-0.473 0.073-0.973-0.051-1.427-0.429-0.092-0.925-0.102-1.351 0.028z"></path>
<path fill="#030303" d="M7.385 12.353c0.877 0 1.755 0.006 2.632-0.003-0.065 0.294-0.385 0.446-0.568 0.669-0.68 0.061-1.368 0.014-2.051 0.016-0.024-0.227-0.028-0.453-0.013-0.682z"></path>
<path fill="#030303" d="M12.71 13.1c0.212-0.237 0.432-0.469 0.675-0.673-0.004 0.071-0.013 0.21-0.017 0.281 2.274 0.006 4.549-0.001 6.822 0.004 0.001 0.083 0.001 0.251 0.003 0.336-2.493 0.025-4.992-0.056-7.482 0.052z"></path>
<path fill="#030303" d="M16.437 13.159c0.352-0.206 0.891-0.034 0.973 0.395 0.138 0.486-0.416 0.957-0.871 0.741-0.481-0.157-0.541-0.895-0.102-1.136z"></path>
<path fill="#030303" d="M18.11 13.135c0.412-0.205 0.97 0.075 0.961 0.558 0.030 0.494-0.587 0.832-0.991 0.552-0.411-0.232-0.385-0.892 0.030-1.11z"></path>
<path fill="#030303" d="M5.331 15.481c0.162-0.356 0.394-0.848 0.871-0.772 0.469 0.058 0.997-0.127 1.424 0.114-0.104 0.131-0.217 0.254-0.335 0.373l-0.088 0.001c-0.45 0.038-0.964-0.121-1.369 0.123-0.193 0.328-0.294 0.704-0.439 1.057-0.092 0.176 0.037 0.412 0.247 0.336-0.13 0.329-0.46 0.631-0.774 0.795-0.031-0.702 0.216-1.381 0.462-2.027z"></path>
<path fill="#030303" d="M8.218 17.538c0.966-0.863 1.825-1.845 2.781-2.718 2.802-0.020 5.608-0.006 8.41-0.007 0.001 0.944 0.004 1.888 0 2.832-3.258 0.016-6.52-0.023-9.776 0.020 0.018 0.168 0.010 0.336-0.024 0.503 0.313 0.333 0.175 0.953-0.281 1.066-0.425 0.16-0.863-0.233-0.851-0.664-0.418 0.007-0.839-0.017-1.256 0.013 0 0.342-0.247 0.641-0.589 0.69 0.243-0.505 0.774-0.84 1.151-1.261 0.164-0.131 0.387 0.035 0.545-0.083 0.051-0.157 0.014-0.287-0.109-0.391z"></path>
<path fill="#030303" d="M15.723 17.983c0.395-0.272 0.992 0.038 0.995 0.518 0.040 0.477-0.536 0.843-0.947 0.594-0.432-0.2-0.448-0.868-0.048-1.112z"></path>
<path fill="#030303" d="M17.406 17.96c0.443-0.27 1.063 0.172 0.943 0.679-0.051 0.407-0.555 0.669-0.916 0.464-0.463-0.195-0.472-0.918-0.027-1.144z"></path>
</svg>
