<!-- Generated by IcoMoon.io -->
<svg version="1.1" xmlns="http://www.w3.org/2000/svg" width="24" height="24" viewBox="0 0 24 24">
<title>regulatory--end-of-trucks-only--g2</title>
<path fill="#0303ff" d="M10.756 0h2.456c2.039 0.284 4.041 0.963 5.72 2.174-1.123 1.107-2.23 2.23-3.35 3.34-3.193 0.021-6.386-0.004-9.579 0.012-0.541-0.027-1.030 0.454-0.994 0.998 0.010 1.41-0.038 2.821 0.027 4.23 1.757 0.064 3.518 0.009 5.276 0.029-0.081 0.081-0.16 0.162-0.241 0.243-1.681 0.052-3.382-0.1-5.052 0.077-0.017 1.4-0.031 2.802 0.008 4.203 0.217 0.035 0.432 0.080 0.648 0.117-1.166 1.169-2.339 2.333-3.502 3.506-1.207-1.668-1.878-3.66-2.173-5.684v-2.456c0.187-1.053 0.373-2.113 0.776-3.108 1.551-4.175 5.577-7.183 9.98-7.68z"></path>
<path fill="#0303ff" d="M21.83 5.074c1.205 1.668 1.876 3.659 2.17 5.682v2.456c-0.479 4.415-3.497 8.457-7.68 10.012-0.985 0.402-2.036 0.579-3.076 0.776h-2.456c-2.035-0.283-4.034-0.96-5.71-2.168 1.133-1.128 2.263-2.263 3.394-3.394 0.386 0.003 0.772-0.004 1.157-0.031 0.039-0.387 0.050-0.776 0.042-1.163 0.305-0.312 0.613-0.618 0.922-0.923 1.233 0.003 2.464-0.003 3.695 0.001 0.022 0.697-0.023 1.394 0.038 2.090 0.578 0.037 1.157 0.035 1.735 0.001 0.052-0.699 0.009-1.398 0.035-2.097 0.141 0.001 0.28 0.001 0.421-0.001 0.027 0.699-0.017 1.398 0.035 2.097 0.578 0.037 1.156 0.035 1.733 0 0.074-0.994 0.014-1.992 0.034-2.988 0.211-0.039 0.42-0.097 0.631-0.141-0.001-1.406 0.033-2.813-0.020-4.218-1.016-0.077-2.037-0.026-3.055-0.030 0.082-0.082 0.164-0.164 0.247-0.247 0.923-0.020 1.848 0.017 2.773-0.021 0.138-0.931 0.018-1.88 0.065-2.817 0.955-0.959 1.916-1.912 2.868-2.875z"></path>
<path fill="#0303ff" d="M6.588 13.572c0.314 0 0.627-0.003 0.942-0.004-0.32 0.32-0.639 0.638-0.959 0.957 0.004-0.318 0.012-0.637 0.017-0.953z"></path>
<path fill="#0303ff" d="M11.097 15.813c0.146-0.147 0.293-0.295 0.44-0.441 0.922-0.010 1.843-0.012 2.764 0 0 0.107 0.001 0.323 0.001 0.43-1.068 0.017-2.137-0.003-3.205 0.010z"></path>
<path fill="#0303ff" d="M16.085 15.373c0.147-0.001 0.295-0.004 0.442-0.005 0 0.11 0 0.33 0 0.44-0.147-0.003-0.295-0.005-0.442-0.007 0-0.107 0-0.321 0-0.428z"></path>
<path fill="#ff0303" d="M15.582 5.515c1.119-1.11 2.227-2.233 3.35-3.34 1.123 0.792 2.107 1.777 2.898 2.9-0.952 0.963-1.913 1.916-2.868 2.875-0.946 0.947-1.893 1.893-2.838 2.838-0.082 0.082-0.164 0.164-0.247 0.247-1.447 1.445-2.89 2.894-4.34 4.338-0.146 0.146-0.293 0.293-0.44 0.441-0.167 0.17-0.335 0.338-0.505 0.507-0.309 0.305-0.617 0.612-0.922 0.923-0.4 0.398-0.8 0.796-1.199 1.195-1.131 1.131-2.26 2.266-3.394 3.394-1.126-0.792-2.112-1.778-2.905-2.903 1.163-1.173 2.336-2.337 3.502-3.506 0.299-0.3 0.597-0.599 0.896-0.897 0.32-0.32 0.639-0.638 0.959-0.957 0.845-0.849 1.694-1.696 2.541-2.542 0.081-0.081 0.16-0.162 0.241-0.243 1.757-1.756 3.511-3.513 5.27-5.268z"></path>
<path fill="#fff" d="M5.009 6.524c-0.037-0.544 0.453-1.025 0.994-0.998 3.193-0.016 6.386 0.009 9.579-0.012-1.758 1.756-3.513 3.513-5.27 5.268-1.758-0.020-3.519 0.035-5.276-0.029-0.065-1.409-0.017-2.82-0.027-4.23z"></path>
<path fill="#fff" d="M16.123 10.787c0.946-0.946 1.893-1.891 2.838-2.838-0.047 0.938 0.073 1.886-0.065 2.817-0.925 0.038-1.85 0.001-2.773 0.021z"></path>
<path fill="#fff" d="M5.019 11.103c1.67-0.177 3.37-0.025 5.052-0.077-0.847 0.847-1.696 1.693-2.541 2.542-0.314 0.001-0.627 0.004-0.942 0.004-0.005 0.317-0.013 0.635-0.017 0.953-0.299 0.299-0.597 0.597-0.896 0.897-0.217-0.038-0.432-0.082-0.648-0.117-0.039-1.401-0.025-2.803-0.008-4.203z"></path>
<path fill="#fff" d="M11.537 15.372c1.449-1.444 2.893-2.893 4.34-4.338 1.017 0.004 2.039-0.047 3.055 0.030 0.052 1.405 0.018 2.812 0.020 4.218-0.211 0.044-0.42 0.102-0.631 0.141-0.020 0.997 0.040 1.994-0.034 2.988-0.578 0.035-1.156 0.037-1.733 0-0.052-0.699-0.008-1.398-0.035-2.097-0.141 0.003-0.28 0.003-0.421 0.001-0.026 0.699 0.017 1.398-0.035 2.097-0.578 0.034-1.157 0.035-1.735-0.001-0.061-0.695-0.016-1.393-0.038-2.090-1.231-0.004-2.463 0.001-3.695-0.001 0.17-0.17 0.338-0.338 0.505-0.507 1.068-0.013 2.137 0.007 3.205-0.010 0-0.107-0.001-0.323-0.001-0.43-0.921-0.012-1.842-0.010-2.764 0M16.085 15.373c0 0.107 0 0.321 0 0.428 0.147 0.001 0.295 0.004 0.442 0.007 0-0.11 0-0.33 0-0.44-0.147 0.001-0.295 0.004-0.442 0.005z"></path>
<path fill="#fff" d="M8.472 18.438c0.399-0.399 0.798-0.797 1.199-1.195 0.008 0.387-0.003 0.776-0.042 1.163-0.385 0.027-0.771 0.034-1.157 0.031z"></path>
</svg>
