<svg xmlns="http://www.w3.org/2000/svg" width="24" height="24">
    <path fill="#0379c1" d="M10.713 0h2.548c4.259.498 8.175 3.322 9.812 7.31.481 1.081.709 2.247.927 3.403v2.548c-.498 4.259-3.323 8.175-7.311 9.812-1.081.481-2.247.709-3.402.927h-2.548c-4.259-.497-8.174-3.322-9.812-7.31-.48-1.081-.709-2.247-.927-3.403V10.74C.211 9.573.443 8.4.927 7.311 2.561 3.329 6.465.512 10.713 0zM14.1 1.039v22.093h.785l-.001-22.094-.784.001zm3.76 6.254c-.576.227-1.39.424-1.487 1.15-.329 1.157-.318 2.355-.274 3.545l.287.227c.17-.14.36-.292.273-.537a3.483 3.483 0 0 1 .544-2.574c-.041 1.011-.232 2.013-.213 3.027-.01 1.448.401 2.867.333 4.315.198-.153.391-.311.582-.474-.114-1.252-.038-2.514.102-3.76.328 1.205.225 2.463.291 3.696.263.189.532.369.813.531-.319-.636-.12-1.346-.086-2.017.221-1.735.158-3.48.128-5.224.304.932.905 1.806.927 2.805.336.204.689.38 1.048.541-.126.671-.366 1.321-.444 2 .314.571.611 1.263.25 1.889.19-.114.38-.226.569-.341 0-.46-.005-.919.045-1.376.35.525.203 1.28.762 1.675.05-1.158-.149-2.351.068-3.483.19.463.229.965.133 1.454.18-.07.497-.046.443-.327.026-.781.101-1.804-.724-2.219.273-.384.199-1.081-.388-1.062-.604.045-.589.765-.287 1.14l-.586.07c-.717-1.111-.705-2.515-1.095-3.754-.052-.608-.742-.703-1.19-.911.471-.527.486-1.624-.412-1.642-.917-.006-.868 1.111-.411 1.634zM4.274 9.769c-.272.332.01.693.218.964-.139.557-.291 1.109-.438 1.663-1.08-.351-2.373.223-2.686 1.349-.453 1.294.725 2.764 2.081 2.632 1.187-.047 2.156-1.28 1.875-2.449-.077-.601-.613-.973-.831-1.51.848.472 1.607 1.084 2.406 1.631-.107.711.475 1.249 1.171 1.181-.064.153-.129.306-.191.461.347.121.707.089 1.006-.131a32.146 32.146 0 0 0-.518-.191l-.112-.273c.153-.214.305-.431.458-.647.206.705.555 1.448 1.279 1.744 1.287.669 2.976-.461 2.888-1.896.015-1.404-1.564-2.389-2.844-1.873a72.413 72.413 0 0 1-.804-1.412c.045-.106.089-.213.135-.319.258-.151.48-.352.649-.6-.687-.022-1.383-.075-2.066.031-.045.425.623.317.905.462l-.184.504c-1.224.003-2.449-.004-3.673.004.065-.366-.034-.716-.24-1.02l.894-.009-.001-.516c-.449.045-1.025-.142-1.376.22z"/>
    <path fill="#0379c1" d="M4.671 11.653c1.266-.11 2.54-.031 3.809-.05-.227.641-.454 1.282-.702 1.915l-.397-.083c.101-.148.203-.296.304-.446-.342-.051-.803-.18-1.003.206l.475.092.161.414c-.864-.693-1.991-1.15-2.646-2.048zM9.003 11.68c.206.329.398.665.585 1.005-.452.412-.707.97-.863 1.551-.146-.199-.289-.401-.433-.601.236-.652.466-1.306.711-1.954zM1.894 14.165c.082-.961 1.157-1.489 2.023-1.186-.109.531-.41.986-.818 1.335l.138.273c.659-.105 1.001-.68 1.145-1.279.62.721.446 1.967-.471 2.346-.964.479-2.196-.424-2.017-1.49zM10.343 12.954c.697-.176 1.522.093 1.811.791.425.868-.251 2.006-1.22 2.03-.765.08-1.389-.537-1.559-1.242.597-.004 1.197.019 1.791-.068-.244-.52-.548-1.009-.823-1.511z"/>
    <path fill="#0379c1" d="M9.86 13.217c.2.305.387.619.568.936-.354.003-.707 0-1.061-.009.129-.327.296-.637.493-.927zM7.583 13.834c.664-.278 1.03.859.332 1.019-.641.223-.965-.823-.332-1.019z"/>
    <path fill="#fff" d="M14.1 1.039l.784-.001.001 22.094H14.1V1.039zM17.86 7.293c-.457-.523-.506-1.64.411-1.634.899.018.883 1.114.412 1.642.448.208 1.137.304 1.19.911.391 1.24.378 2.644 1.095 3.754l.586-.07c-.301-.375-.317-1.095.287-1.14.587-.019.661.678.388 1.062.825.415.749 1.437.724 2.219.054.281-.263.257-.443.327a2.528 2.528 0 0 0-.133-1.454c-.217 1.131-.018 2.325-.068 3.483-.559-.394-.412-1.15-.762-1.675-.05.457-.045.917-.045 1.376-.189.115-.379.227-.569.341.361-.627.064-1.319-.25-1.889.078-.679.318-1.329.444-2a9.518 9.518 0 0 1-1.048-.541c-.022-.998-.623-1.873-.927-2.805.031 1.744.093 3.489-.128 5.224-.034.671-.234 1.381.086 2.017a9.693 9.693 0 0 1-.813-.531c-.066-1.233.037-2.491-.291-3.696-.14 1.246-.216 2.507-.102 3.76-.191.162-.384.32-.582.474.068-1.448-.343-2.867-.333-4.315-.019-1.014.172-2.016.213-3.027a3.483 3.483 0 0 0-.544 2.574c.087.245-.103.397-.273.537l-.287-.227c-.043-1.19-.055-2.389.274-3.545.097-.726.911-.923 1.487-1.15zM4.274 9.769c.351-.361.927-.175 1.376-.22l.001.516-.894.009c.206.304.305.654.24 1.02 1.224-.008 2.449-.001 3.673-.004l.184-.504c-.282-.146-.95-.037-.905-.462.683-.106 1.379-.052 2.066-.031a2.003 2.003 0 0 1-.649.6c-.046.106-.091.213-.135.319.263.474.531.945.804 1.412 1.28-.516 2.86.469 2.844 1.873.088 1.435-1.601 2.565-2.888 1.896-.724-.296-1.074-1.039-1.279-1.744-.153.216-.305.433-.458.647l.112.273c.174.063.346.126.518.191-.299.221-.659.253-1.006.131l.191-.461c-.696.068-1.278-.47-1.171-1.181-.799-.548-1.559-1.159-2.406-1.631.218.537.754.909.831 1.51.281 1.168-.688 2.401-1.875 2.449-1.356.131-2.534-1.338-2.081-2.632.313-1.126 1.606-1.7 2.686-1.349.147-.554.299-1.107.438-1.663-.208-.271-.49-.632-.218-.964zm.397 1.884c.655.897 1.782 1.354 2.646 2.048l-.161-.414-.475-.092c.2-.386.661-.257 1.003-.206l-.304.446.397.083c.248-.633.475-1.274.702-1.915-1.269.019-2.543-.06-3.809.05zm4.332.027c-.245.649-.475 1.302-.711 1.954.144.2.287.402.433.601.156-.581.411-1.139.863-1.551-.186-.34-.379-.675-.585-1.005zm-7.109 2.485c-.179 1.066 1.053 1.969 2.017 1.49.917-.379 1.091-1.625.471-2.346-.144.599-.486 1.174-1.145 1.279a17.38 17.38 0 0 0-.138-.273c.409-.35.71-.804.818-1.335-.867-.303-1.942.225-2.023 1.186zm8.449-1.211c.276.503.58.992.823 1.511-.594.087-1.194.064-1.791.068.17.705.794 1.323 1.559 1.242.969-.024 1.646-1.162 1.22-2.03-.29-.698-1.114-.968-1.811-.791zm-.483.263c-.197.29-.364.6-.493.927.354.009.707.011 1.061.009a17.788 17.788 0 0 0-.568-.936zm-2.277.617c-.633.195-.309 1.242.332 1.019.698-.16.332-1.297-.332-1.019z"/>
</svg>
