<!-- Generated by IcoMoon.io -->
<svg version="1.1" xmlns="http://www.w3.org/2000/svg" width="26" height="24" viewBox="0 0 26 24">
<title>regulatory--no-tractors-mopeds-or-bicycles--g1</title>
<path fill="#b53947" opacity="0.87" d="M11.244 0h3.347l0.152 0.115c-1.199-0.022-2.395-0.028-3.594 0.005l0.094-0.12z"></path>
<path fill="#f00" d="M3.843 3.454c1.978-1.879 4.587-3.085 7.307-3.334 1.199-0.034 2.395-0.027 3.594-0.005 1.85 0.156 3.67 0.766 5.228 1.775 0.274 0.307 0.618 0.556 1 0.71 0.017 0.009 0.048 0.026 0.063 0.035 0.001 0.301 0.305 0.472 0.574 0.494 0.004 0.003 0.012 0.010 0.014 0.013 0.467 0.548 0.991 1.072 1.559 1.515 0.049 0.058 0.098 0.116 0.147 0.175 0.646 1.080 1.369 2.134 1.819 3.325 0.618 1.413 0.463 2.986 0.483 4.486 0.015 1.168-0.145 2.355-0.672 3.409-2.062 4.839-7.347 7.992-12.57 7.735-1.886 0.086-3.636-0.72-5.399-1.188-0.116-0.055-0.228-0.116-0.339-0.181-0.378-0.421-0.932-0.668-1.436-0.912-0.009-0.005-0.028-0.013-0.037-0.017-0.026-0.225-0.259-0.37-0.472-0.373-0.009-0.003-0.030-0.010-0.040-0.014-0.031-0.222-0.252-0.406-0.477-0.381-0.48-0.387-0.924-0.819-1.311-1.298 0.006-0.277-0.196-0.569-0.488-0.586-0.009-0.015-0.025-0.046-0.032-0.063-0.226-0.457-0.494-0.911-0.854-1.276-0.587-1-1.014-2.103-1.235-3.243 0.081-0.243 0.103-0.563-0.117-0.739-0.005-0.036-0.015-0.107-0.021-0.142-0.022-0.969-0.048-1.935-0.004-2.903 0.239-2.708 1.688-5.239 3.717-7.018M10.879 3.015c-3.055 0.588-5.787 2.751-7.018 5.614-1.342 3.102-0.481 6.97 1.996 9.254 2.347 2.467 6.027 3.507 9.328 2.716 1.774-0.356 3.375-1.31 4.69-2.532 1.845-1.573 2.941-4.025 2.799-6.454 0.094-3.137-2.035-5.908-4.615-7.475-2.116-1.35-4.765-1.406-7.179-1.124z"></path>
<path fill="#fff" d="M19.972 1.89c0.351 0.212 0.698 0.432 1 0.71-0.382-0.154-0.726-0.403-1-0.71z"></path>
<path fill="#fff" d="M21.035 2.635c0.227 0.115 0.436 0.275 0.574 0.494-0.27-0.022-0.573-0.194-0.574-0.494z"></path>
<path fill="#fff" d="M10.879 3.015c2.414-0.283 5.063-0.226 7.179 1.124 2.581 1.566 4.71 4.338 4.615 7.475 0.142 2.43-0.954 4.881-2.799 6.454-1.315 1.222-2.916 2.175-4.69 2.532-3.301 0.791-6.981-0.249-9.328-2.716-2.477-2.284-3.338-6.152-1.996-9.254 1.231-2.863 3.963-5.026 7.018-5.614M10.768 4.564c-0.595 0.716-1.343 1.399-1.035 2.428 0.124 0.066 0.24 0.143 0.347 0.234 0.008 0.163 0.009 0.325 0.006 0.489-0.080 0.036-0.239 0.111-0.317 0.147 1.986-0.013 3.974-0.023 5.96 0.012l0.031-0.088c-0.597 0.072-0.328-0.728-0.061-0.988 0.306-0.946-0.596-1.665-1.154-2.306 0.24 0.437 0.586 0.805 0.855 1.225-1.754 0.022-3.508 0.009-5.259-0.065 0.213-0.359 0.45-0.706 0.711-1.031 0.947-0.054 1.899 0.030 2.845-0.045-0.977-0.022-1.954-0.037-2.93-0.012M11.659 9.601c-0.043 0.235 0.017 0.468 0.027 0.702-0.37 0.215-0.514 0.619-0.708 0.973-0.552 0.044-1.107-0.014-1.662 0.003-0.001 0.077-0.006 0.232-0.009 0.31 0.083 0.081 0.164 0.163 0.248 0.244-0.133 0.191-0.218 0.421-0.27 0.646 0.297 0.132 0.311 0.501 0.495 0.734-0.172 0.009-0.343 0.022-0.514 0.037 0.001 0.074 0.005 0.219 0.006 0.292 2.115 0 4.23 0.004 6.345-0.003 0.014-0.072 0.043-0.217 0.057-0.289-0.11-0.015-0.329-0.046-0.439-0.062 0.364-0.31 0.289-0.785 0.23-1.204l-0.067 0.004c-0.048-0.209-0.186-0.468-0.426-0.474-0.009-0.28-0.29-0.236-0.489-0.276-0.026-0.089-0.080-0.268-0.106-0.357-0.532-0.048-1.065-0.037-1.597-0.048-0.31-0.070-0.317-0.357-0.129-0.565 0.182-0.241 0.105-0.517-0.014-0.766-0.302 0.181-0.658 0.015-0.978 0.099M11.581 14.684c0.123 0.502-0.295 0.44-0.617 0.526-0.004 0.272-0.035 0.561 0.152 0.786-0.085 0.154-0.177 0.303-0.277 0.448-1.142-0.366-2.427 1.001-1.735 2.076 0.839 1.043 2.733 0.547 2.894-0.797 0.003 0.199 0.004 0.399 0.003 0.599 0.28 0.105 0.582 0.053 0.874 0.074-0.070 0.436 0.352 0.311 0.63 0.31 0.052-0.070 0.157-0.206 0.21-0.275 0.306 0.307 0.646 0.663 1.112 0.67 1.004 0.135 1.96-1.036 1.461-1.975-0.192-0.253-0.186-0.555-0.16-0.857-0.529-0.023-1.058-0.001-1.587-0.010 0.092-0.111 0.185-0.219 0.28-0.325-0.063-0.128-0.151-0.241-0.24-0.351-0.483-0.026-0.966-0.041-1.449-0.052-0.046 0.188-0.040 0.383-0.043 0.577 0.197 0.075 0.409 0.093 0.614 0.141-0.063 0.052-0.188 0.155-0.252 0.208-0.021 0.148-0.037 0.298-0.049 0.448-0.253 0.003-0.506 0-0.759 0.001-0.21-0.24-0.365-0.523-0.568-0.769-0.003-0.258-0.004-0.515 0.003-0.772 0.105-0.015 0.315-0.045 0.421-0.059 0.012-0.194 0.014-0.387 0.012-0.581-0.31-0.019-0.619-0.035-0.929-0.039z"></path>
<path fill="#fff" d="M21.623 3.142c0.591 0.422 1.085 0.969 1.559 1.515-0.568-0.443-1.092-0.966-1.559-1.515z"></path>
<path fill="#fff" d="M23.329 4.832c1.298 1.44 2.079 3.27 2.477 5.151v3.973c-0.547 2.257-1.561 4.506-3.345 6.055-2.432 2.459-5.817 3.902-9.27 3.988h-0.419c-1.987-0.123-3.999-0.476-5.783-1.4 1.763 0.468 3.512 1.275 5.399 1.188 5.223 0.257 10.508-2.897 12.57-7.735 0.528-1.054 0.688-2.241 0.672-3.409-0.019-1.501 0.135-3.074-0.483-4.486-0.45-1.191-1.173-2.245-1.819-3.325z"></path>
<path fill="#fff" d="M10.071 6.226c0.201-0.254 0.757-0.201 0.706 0.19-0.108 0.413-0.861 0.262-0.706-0.19z"></path>
<path fill="#fff" d="M14.867 6.081c0.319-0.145 0.747 0.312 0.356 0.521-0.365 0.265-0.863-0.342-0.356-0.521z"></path>
<path fill="#fff" d="M10.568 7.249c1.419 0.009 2.837-0.005 4.257 0.008 0.021 0.17 0.036 0.342 0.048 0.515-1.423-0.014-2.848-0.008-4.271-0.004-0.068-0.181-0.079-0.354-0.034-0.519z"></path>
<path fill="#fff" d="M10.467 11.946c0.648-0.161-0.107 0.555 0 0z"></path>
<path fill="#fff" d="M13.934 12.141c0.146-0.265 0.431 0.028 0.341 0.222-0.161 0.079-0.619 0.008-0.341-0.222z"></path>
<path fill="#fff" d="M14.661 12.226c0.080-0.037 0.241-0.112 0.323-0.151 0.106 0.226-0.235 0.4-0.323 0.151z"></path>
<path fill="#fff" d="M10.941 12.707c-0.209-0.213 0.126-0.277 0.276-0.182-0.068 0.046-0.206 0.137-0.276 0.182z"></path>
<path fill="#fff" d="M13.908 12.532c0.155-0.027 0.274 0.019 0.356 0.138-0.143 0.326-0.577 0.178-0.356-0.138z"></path>
<path fill="#fff" d="M14.621 12.63c0.343-0.36 0.551 0.33 0.055 0.088l-0.055-0.088z"></path>
<path fill="#fff" d="M10.899 12.843c-0.075 0.414-0.572 0.032-0.21-0.175 0.053 0.044 0.159 0.132 0.21 0.175z"></path>
<path fill="#fff" d="M11.203 13.293c0.165-0.157 0.321-0.323 0.476-0.49l0.066 0.111c0.081 0.185 0.236 0.303 0.419 0.377-0.32 0.001-0.641-0.004-0.961 0.003z"></path>
<path fill="#fff" d="M0.15 13.517c0.221 0.177 0.199 0.497 0.117 0.739-0.132-0.223-0.12-0.49-0.117-0.739z"></path>
<path fill="#fff" d="M11.232 16.312c0.684 0.13-0.448 0.382 0 0z"></path>
<path fill="#fff" d="M9.653 17.681c-0.035-0.457 0.586-0.726 0.941-0.533-0.119 0.206-0.32 0.325-0.525 0.43-0.021 0.155-0.018 0.31 0.009 0.463 0.065 0.035 0.194 0.102 0.258 0.135 0.253-0.119 0.523-0.191 0.805-0.163-0.199 0.801-1.708 0.51-1.488-0.333z"></path>
<path fill="#fff" d="M1.502 17.499c0.36 0.365 0.628 0.819 0.854 1.276-0.346-0.381-0.61-0.826-0.854-1.276z"></path>
<path fill="#fff" d="M12.274 17.844c0.694 0.021-0.243 0.726 0 0z"></path>
<path fill="#fff" d="M2.388 18.839c0.292 0.017 0.494 0.308 0.488 0.586-0.199-0.161-0.383-0.35-0.488-0.586z"></path>
<path fill="#fff" d="M4.187 20.723c0.226-0.026 0.446 0.159 0.477 0.381-0.199-0.065-0.351-0.221-0.477-0.381z"></path>
<path fill="#fff" d="M4.705 21.117c0.213 0.003 0.446 0.148 0.472 0.373-0.191-0.067-0.378-0.187-0.472-0.373z"></path>
<path fill="#fff" d="M5.214 21.507c0.505 0.244 1.058 0.492 1.436 0.912-0.51-0.249-1.008-0.538-1.436-0.912z"></path>
<path fill="#000" d="M10.768 4.564c0.977-0.026 1.954-0.010 2.93 0.012-0.946 0.075-1.898-0.009-2.845 0.045-0.261 0.325-0.498 0.672-0.711 1.031 1.751 0.074 3.506 0.086 5.259 0.065-0.27-0.419-0.615-0.787-0.855-1.225 0.557 0.641 1.459 1.36 1.154 2.306-0.267 0.261-0.537 1.061 0.061 0.988l-0.031 0.088c-1.986-0.035-3.974-0.025-5.96-0.012 0.079-0.036 0.237-0.111 0.317-0.147 0.003-0.164 0.001-0.326-0.006-0.489-0.107-0.090-0.223-0.168-0.347-0.234-0.308-1.030 0.44-1.712 1.035-2.428M10.071 6.226c-0.155 0.452 0.597 0.603 0.706 0.19 0.052-0.391-0.505-0.444-0.706-0.19M14.867 6.081c-0.507 0.179-0.009 0.786 0.356 0.521 0.391-0.209-0.037-0.666-0.356-0.521M11.225 6.285l0.001 0.159c0.942 0.025 1.886 0.026 2.83-0.001-0.763-0.285-1.919-0.098-2.831-0.157M10.991 6.57l0.010 0.121c1.099 0.036 2.208 0.031 3.308 0l-0.035-0.114c-1.093-0.021-2.19-0.001-3.284-0.008M11.351 6.861l0.012 0.148c0.921-0.077 2.018 0.203 2.83-0.142-0.945-0.063-1.897-0.055-2.841-0.006M10.568 7.249c-0.045 0.165-0.035 0.338 0.034 0.519 1.423-0.004 2.848-0.010 4.271 0.004-0.012-0.173-0.027-0.345-0.048-0.515-1.419-0.013-2.837 0.001-4.257-0.008z"></path>
<path fill="#000" d="M11.659 9.601c0.32-0.084 0.676 0.081 0.978-0.099 0.119 0.249 0.196 0.525 0.014 0.766-0.070-0.010-0.208-0.028-0.277-0.039-0.199 0.212-0.075 0.463 0.058 0.67-0.179 0.2-0.209 0.461-0.182 0.717 0.548 0.009 1.093-0.085 1.634-0.17 0.043-0.137 0.043-0.33 0.234-0.323 0.037 0.085 0.075 0.172 0.112 0.258 0.236 0.094 0.49 0.124 0.743 0.133 0.24 0.005 0.378 0.265 0.426 0.474-0.139 0.027-0.277 0.057-0.415 0.086-0.081 0.039-0.243 0.114-0.323 0.151-0.053 0.075-0.106 0.151-0.157 0.228 0.030 0.044 0.088 0.132 0.117 0.175l0.055 0.088c-0.066 0.182-0.124 0.368-0.17 0.556-0.032-0.219-0.101-0.43-0.241-0.604-0.083-0.119-0.201-0.165-0.356-0.138-0.285-0.014-0.57 0.019-0.84 0.117 0.021 0.057 0.061 0.172 0.081 0.228l-0.084-0.003c-0.437 0.106-0.881 0.289-1.321 0.039l-0.066-0.111c0.037-0.041 0.114-0.125 0.151-0.166-0.195-0.083-0.405-0.090-0.613-0.111-0.15-0.095-0.485-0.031-0.276 0.182-0.010 0.034-0.031 0.101-0.041 0.135-0.052-0.044-0.157-0.132-0.21-0.175l-0.006-0.146-0.003-0.111c-0.054-0.015-0.163-0.046-0.217-0.061-0.132 0.006-0.262 0.015-0.392 0.023 0.223-0.094 0.241-0.314 0.227-0.524-0.174 0.070-0.351 0.133-0.529 0.191-0.071-0.070-0.143-0.139-0.214-0.208-0.084-0.081-0.165-0.163-0.248-0.244 0.003-0.077 0.008-0.232 0.009-0.31 0.555-0.017 1.11 0.041 1.662-0.003 0.195-0.354 0.338-0.757 0.708-0.973-0.010-0.234-0.070-0.467-0.027-0.702M10.467 11.946c-0.107 0.555 0.648-0.161 0 0M14.347 11.889c0.005 0.572 0.619-0.206 0 0M13.934 12.141c-0.279 0.23 0.179 0.301 0.341 0.222 0.090-0.194-0.195-0.486-0.341-0.222M10.892 12.166c0.022 0.425 0.408-0.212 0 0z"></path>
<path fill="#000" d="M10.791 13.351c0.103-0.014 0.308-0.044 0.412-0.058 0.32-0.006 0.641-0.001 0.961-0.003 0.235 0.004 0.47 0.001 0.705 0.001 0.337 0.001 0.674 0 1.009-0.010 0.12 0.041 0.24 0.085 0.359 0.129-1.142 0.026-2.321 0.151-3.445-0.059z"></path>
<path fill="#fcfcfc" d="M11.225 6.285c0.912 0.059 2.068-0.128 2.831 0.157-0.943 0.027-1.888 0.026-2.83 0.001l-0.001-0.159z"></path>
<path fill="#f9f9f9" d="M10.991 6.57c1.094 0.006 2.191-0.013 3.284 0.008l0.035 0.114c-1.101 0.031-2.209 0.036-3.308 0l-0.010-0.121z"></path>
<path fill="#d7d7d7" d="M11.351 6.861c0.945-0.049 1.897-0.057 2.841 0.006-0.812 0.345-1.908 0.065-2.83 0.142l-0.012-0.148z"></path>
<path fill="#d7d7d7" d="M10.222 12.654c0.423 0.294-0.431 0.312 0 0z"></path>
<path fill="#383838" d="M12.374 10.23c0.070 0.010 0.208 0.028 0.277 0.039-0.188 0.208-0.181 0.495 0.129 0.565 0.533 0.010 1.066 0 1.597 0.048 0.026 0.089 0.080 0.268 0.106 0.357 0.199 0.040 0.48-0.004 0.489 0.276-0.253-0.009-0.507-0.039-0.743-0.133-0.037-0.086-0.075-0.173-0.112-0.258-0.191-0.008-0.191 0.186-0.234 0.323-0.541 0.085-1.085 0.179-1.634 0.17-0.027-0.257 0.003-0.517 0.182-0.717-0.133-0.206-0.257-0.458-0.058-0.67z"></path>
<path fill="#ae4553" opacity="0.86" d="M0 10.326l0.125 0.146c-0.044 0.968-0.018 1.934 0.004 2.903l-0.129-0.092v-2.957z"></path>
<path fill="#323232" d="M9.285 12.479c0.052-0.226 0.137-0.455 0.27-0.646 0.071 0.068 0.143 0.138 0.214 0.208 0.178-0.058 0.355-0.121 0.529-0.191 0.014 0.21-0.004 0.43-0.227 0.524 0.13-0.008 0.261-0.017 0.392-0.023 0.054 0.043 0.164 0.128 0.219 0.172l0.006 0.146c-0.361 0.208 0.135 0.59 0.21 0.175 0.010-0.035 0.031-0.102 0.041-0.135 0.070-0.045 0.208-0.135 0.276-0.182 0.208 0.021 0.418 0.028 0.613 0.111-0.037 0.041-0.114 0.125-0.151 0.166-0.155 0.168-0.311 0.333-0.476 0.49-0.103 0.014-0.308 0.044-0.412 0.058 1.124 0.21 2.303 0.085 3.445 0.059-0.119-0.044-0.239-0.088-0.359-0.129-0.218-0.177-0.422-0.408-0.728-0.404-0.021-0.057-0.061-0.172-0.081-0.228 0.27-0.098 0.555-0.132 0.84-0.117-0.221 0.316 0.213 0.465 0.356 0.138 0.141 0.174 0.209 0.385 0.241 0.604 0.046-0.188 0.105-0.374 0.17-0.556 0.495 0.243 0.288-0.448-0.055-0.088-0.030-0.044-0.088-0.132-0.117-0.175 0.052-0.077 0.105-0.154 0.157-0.228 0.088 0.249 0.428 0.075 0.323-0.151 0.138-0.030 0.276-0.059 0.415-0.086l0.067-0.004c0.059 0.419 0.134 0.894-0.23 1.204 0.11 0.015 0.329 0.046 0.439 0.062-0.014 0.072-0.043 0.217-0.057 0.289-2.115 0.006-4.23 0.003-6.345 0.003-0.001-0.072-0.005-0.218-0.006-0.292 0.17-0.015 0.342-0.028 0.514-0.037-0.185-0.234-0.199-0.603-0.495-0.734M10.222 12.654c-0.431 0.312 0.423 0.294 0 0z"></path>
<path fill="#c2c2c2" d="M14.347 11.889c0.619-0.206 0.005 0.572 0 0z"></path>
<path fill="#cdcdcd" d="M10.892 12.166c0.408-0.212 0.022 0.425 0 0z"></path>
<path fill="#f4f4f4" d="M10.463 12.35c0.054 0.014 0.163 0.045 0.217 0.061l0.003 0.111c-0.055-0.044-0.165-0.129-0.219-0.172z"></path>
<path fill="#f4f4f4" d="M13.066 12.875l0.084 0.003c0.306-0.004 0.51 0.227 0.728 0.404-0.335 0.010-0.672 0.012-1.009 0.010 0.067-0.139 0.132-0.277 0.197-0.417z"></path>
<path fill="#5c5c5c" d="M11.745 12.914c0.44 0.25 0.884 0.067 1.321-0.039-0.066 0.139-0.13 0.277-0.197 0.417-0.235 0-0.47 0.003-0.705-0.001-0.183-0.074-0.338-0.192-0.419-0.377z"></path>
<path fill="#3a3a3a" d="M11.581 14.684c0.31 0.004 0.619 0.019 0.929 0.039 0.003 0.194 0 0.387-0.012 0.581-0.106 0.014-0.316 0.044-0.421 0.059-0.006 0.257-0.005 0.514-0.003 0.772 0.203 0.246 0.357 0.529 0.568 0.769 0.253-0.001 0.506 0.001 0.759-0.001 0.012-0.15 0.028-0.299 0.049-0.448 0.063-0.053 0.188-0.156 0.252-0.208-0.205-0.048-0.417-0.066-0.614-0.141 0.003-0.194-0.004-0.388 0.043-0.577 0.483 0.010 0.966 0.026 1.449 0.052 0.089 0.11 0.177 0.223 0.24 0.351-0.095 0.106-0.188 0.214-0.28 0.325 0.529 0.009 1.058-0.013 1.587 0.010-0.026 0.302-0.032 0.604 0.16 0.857 0.499 0.939-0.457 2.111-1.461 1.975-0.466-0.006-0.806-0.363-1.112-0.67-0.053 0.068-0.159 0.205-0.21 0.275-0.277 0.001-0.699 0.126-0.63-0.31-0.292-0.021-0.594 0.031-0.874-0.074 0.001-0.2 0-0.4-0.003-0.599-0.161 1.345-2.055 1.84-2.894 0.797-0.692-1.075 0.594-2.443 1.735-2.076 0.101-0.145 0.192-0.294 0.277-0.448-0.187-0.225-0.156-0.514-0.152-0.786 0.321-0.086 0.739-0.025 0.617-0.526M11.232 16.312c-0.448 0.382 0.684 0.13 0 0M9.653 17.681c-0.221 0.843 1.289 1.134 1.488 0.333-0.283-0.028-0.552 0.044-0.805 0.163-0.065-0.034-0.194-0.101-0.258-0.135-0.027-0.154-0.030-0.308-0.009-0.463 0.205-0.105 0.406-0.223 0.525-0.43-0.355-0.194-0.975 0.076-0.941 0.533M11.783 17.032c-0.032 0.19 0.111 0.405 0.13 0.609 0.17-0.063 0.177-0.708-0.13-0.609M14.17 17.676c0.102 0 0.306 0 0.408 0 0.003-0.186 0.004-0.373 0-0.559-0.203 0.132-0.328 0.334-0.408 0.559M15.075 17.111c0.058 0.435 0.462 0.675 0.666 1.030 0.063-0.361-0.027-0.712-0.286-0.975-0.094-0.014-0.285-0.040-0.379-0.054M10.468 17.716c0.067 0.187 0.44 0.116 0.6 0.052-0.068-0.187-0.443-0.124-0.6-0.052M12.274 17.844c-0.243 0.726 0.694 0.021 0 0M13.323 17.943c-0.354 0.187 0.133 0.39 0.279 0.172 0.134-0.177-0.16-0.295-0.279-0.172M14.227 17.965c0.014 0.183 0.341 0.156 0.457 0.072-0.014-0.181-0.342-0.15-0.457-0.072M14.601 18.361c0.108 0.166 0.672 0.169 0.773-0.001-0.241-0.066-0.533-0.070-0.773 0.001z"></path>
<path fill="#f0f0f0" d="M11.783 17.032c0.307-0.099 0.301 0.546 0.13 0.609-0.019-0.204-0.163-0.419-0.13-0.609z"></path>
<path fill="#fdfdfd" d="M14.17 17.676c0.080-0.225 0.205-0.427 0.408-0.559 0.004 0.186 0.003 0.373 0 0.559-0.102 0-0.306 0-0.408 0z"></path>
<path fill="#fdfdfd" d="M14.227 17.965c0.115-0.077 0.443-0.108 0.457 0.072-0.116 0.084-0.443 0.111-0.457-0.072z"></path>
<path fill="#f3f3f3" d="M15.075 17.111c0.094 0.014 0.285 0.040 0.379 0.054 0.259 0.263 0.35 0.614 0.286 0.975-0.204-0.355-0.608-0.595-0.666-1.030z"></path>
<path fill="#b2b2b2" d="M10.468 17.716c0.157-0.072 0.532-0.135 0.6 0.052-0.16 0.065-0.533 0.135-0.6-0.052z"></path>
<path fill="#e5e5e5" d="M13.323 17.943c0.119-0.124 0.413-0.005 0.279 0.172-0.146 0.218-0.632 0.015-0.279-0.172z"></path>
<path fill="#f6f6f6" d="M14.601 18.361c0.24-0.071 0.532-0.067 0.773-0.001-0.101 0.17-0.665 0.168-0.773 0.001z"></path>
</svg>
