<svg xmlns="http://www.w3.org/2000/svg" width="24" height="24">
    <path fill="#dd8188" d="M.5 0h23.469v.106C16.146.105 8.323.102.5.108V0z"/>
    <path fill="#c0111e" d="M.5.108C8.323.102 16.146.105 23.969.106v23.773c-7.434.019-14.866 0-22.3.01-.39.001-.782.007-1.169-.042V.109zm4.799 3.385C6.92 5.11 8.537 6.731 10.156 8.349c-.56.451-1.176.844-1.646 1.395-1.539-1.57-3.106-3.113-4.658-4.67v15.29c5.098.001 10.197-.001 15.296.001-1.377-1.366-2.744-2.742-4.116-4.112.413-.168.989-.407.906-.959-.17-.676-.535-1.285-.779-1.937 1.861 1.848 3.707 3.708 5.565 5.558V3.492c-5.142 0-10.283-.002-15.425 0z"/>
    <path fill="#fff" d="M5.299 3.493c5.142-.002 10.283 0 15.425 0v15.423c-1.857-1.85-3.704-3.71-5.565-5.558.244.652.61 1.261.779 1.937.083.552-.493.791-.906.959 1.372 1.37 2.739 2.746 4.116 4.112-5.099-.002-10.198 0-15.296-.001V5.075c1.552 1.558 3.119 3.101 4.658 4.67.47-.551 1.086-.944 1.646-1.395-1.619-1.618-3.237-3.239-4.857-4.856zm5.936.882c-.054.158-.107.318-.159.478l-.445.101c.135.078.27.153.406.229.037.467.274.871.666 1.129-.728.558-.673 1.53-1.002 2.3-.519.53-1.18.907-1.696 1.446l.32.228.342-.142c.089.047.178.095.269.141.432-.311.868-.62 1.318-.907.105.405.265.803.292 1.223-.269.532-.753.93-.962 1.499-.397 1.057-.667 2.157-1.014 3.232-.191.081-.382.162-.571.25.552.114 1.11.2 1.668.271.453-1.415.596-3.114 1.816-4.117.582 1.223 1.097 2.481 1.625 3.73-.144.2-.285.404-.41.617.602-.12 1.153-.401 1.708-.654-.635-1.57-1.347-3.106-1.99-4.672.256-.887-.138-1.813-.162-2.713.274.296.605.55.818.896.122.641.08 1.361.55 1.88.507-.718.309-1.695.046-2.464-.684-.788-1.253-1.788-2.295-2.144.008-.319.041-.636.069-.954l.478-.127a2.363 2.363 0 0 1-.607-.691 7.419 7.419 0 0 0-1.074-.065zM6.224 16.941c.133.057.267.113.401.168-.006.125-.011.251-.015.377-.138.002-.276.005-.414.01-.016.487-.067.981.011 1.465-.008.177.268.179.286.011.07-.376.027-.762.034-1.143.388.003.775.002 1.163-.002 0 .428-.002.857.019 1.285.652-.168.216-1.12.312-1.613-.194-.008-.39-.014-.584-.017a6.23 6.23 0 0 0 .468-.722c-.551.003-1.237-.245-1.681.182zm4.091-.216c-.157.013-.211.106-.161.281.425.083.871.083 1.296-.001.022-.511-.784-.267-1.134-.28zm2.947-.063c-.029.875-.008 1.75-.016 2.625l-.462-.005c-.018-.548.063-1.107-.058-1.646l-.235.01c-.116.525-.039 1.069-.054 1.601-.235.057-.598-.011-.623.321 1.016.154 2.063.068 3.09.035l-.057-.309c-.415-.01-.832-.01-1.247-.01l.003-1.044c.255-.22.879-.308.722-.754-.256.076-.492.203-.73.322.007-.384.005-.769-.007-1.153l-.326.007zm-7.741.111c-.135.125-.139.508.075.512.359.042.136-.813-.075-.512zm3.115.714c.427.191.897-.315.891-.72-.426-.024-.635.457-.891.72zm1.338.304c.277.03.555.047.834.058.139.566-.336 1.525.323 1.803.044-.598.029-1.198.023-1.797l.492-.05-.008-.304c-.531.078-1.371-.294-1.663.289zm-4.872-.07c.141.084.282.169.426.252-.004.331-.004.663-.01.994a6.349 6.349 0 0 0-.321.59c.156-.028.312-.055.468-.085.674.157 1.373.088 2.059.097.199 0 .665-.031.393-.312-.734-.102-1.48-.005-2.219-.057-.041-.508.016-1.022-.051-1.527-.169-.262-.53-.053-.745.049zm3.583.867l.447-.084c.072.362-.219 1.009.267 1.129.198-.518-.045-1.104.199-1.612.057-.141.142-.293.038-.436-.416.211-.811.542-.95 1.004zm-1.845-.45l.2.244-.169.355.26.314.274-.308-.168-.361.191-.235-.274-.262-.314.253zM.5 23.846c.388.05.779.044 1.169.042 7.434-.01 14.866.01 22.3-.01v.121H.5v-.154z"/>
    <path fill="#0366b3" d="M11.235 4.375c.359-.001.718.014 1.074.065.152.272.365.498.607.691l-.478.127c-.028.318-.061.635-.069.954 1.042.356 1.611 1.356 2.295 2.144.263.769.461 1.746-.046 2.464-.47-.518-.428-1.238-.55-1.88-.212-.346-.544-.6-.818-.896.024.901.418 1.827.162 2.713.644 1.565 1.355 3.102 1.99 4.672-.554.253-1.105.534-1.708.654.125-.213.265-.417.41-.617-.528-1.249-1.043-2.506-1.625-3.73-1.22 1.004-1.362 2.703-1.816 4.117a21.857 21.857 0 0 1-1.668-.271c.189-.087.38-.169.571-.25.347-1.075.617-2.175 1.014-3.232.209-.569.693-.967.962-1.499-.027-.421-.187-.819-.292-1.223-.45.287-.886.596-1.318.907-.09-.047-.179-.095-.269-.141l-.342.142-.32-.228c.516-.539 1.177-.916 1.696-1.446.329-.77.274-1.743 1.002-2.3a1.468 1.468 0 0 1-.666-1.129 53.165 53.165 0 0 1-.406-.229l.445-.101c.052-.16.105-.32.159-.478zM6.224 16.941c.444-.427 1.13-.178 1.681-.182a6.146 6.146 0 0 1-.468.722c.194.003.39.008.584.017-.097.493.34 1.445-.312 1.613-.021-.428-.019-.857-.019-1.285a64.41 64.41 0 0 1-1.163.002c-.007.38.036.767-.034 1.143-.018.169-.294.167-.286-.011-.078-.484-.027-.978-.011-1.465l.414-.01c.004-.126.008-.252.015-.377-.135-.055-.269-.11-.401-.168zm.702.155c-.027.541.533-.193 0 0zM10.315 16.725c.35.014 1.156-.23 1.134.28a3.384 3.384 0 0 1-1.296.001c-.05-.175.004-.269.161-.281zM13.262 16.662l.326-.007c.013.384.015.769.007 1.153.238-.119.474-.245.73-.322.157.446-.467.534-.722.754l-.003 1.044c.415 0 .832 0 1.247.01l.057.309c-1.027.033-2.074.119-3.09-.035.025-.331.389-.263.623-.321.015-.532-.062-1.077.054-1.601.058-.002.175-.006.235-.01.121.539.04 1.098.058 1.646l.462.005c.007-.875-.013-1.75.016-2.625zM5.521 16.773c.211-.302.434.554.075.512-.215-.004-.21-.387-.075-.512zM8.636 17.487c.256-.263.465-.744.891-.72.006.405-.464.911-.891.72zM9.974 17.791c.292-.583 1.132-.211 1.663-.289l.008.304-.492.05c.005.599.02 1.199-.023 1.797-.658-.278-.184-1.237-.323-1.803a13.74 13.74 0 0 1-.834-.058z"/>
    <path fill="#0366b3" d="M5.102 17.721c.216-.102.577-.311.745-.049.067.505.01 1.019.051 1.527.739.052 1.486-.045 2.219.057.272.281-.194.312-.393.312-.686-.008-1.385.061-2.059-.097-.156.03-.312.057-.468.085.096-.203.204-.399.321-.59.005-.331.005-.663.01-.994-.143-.083-.285-.168-.426-.252zM8.685 18.588c.139-.462.534-.792.95-1.004.104.143.019.295-.038.436-.243.508-.001 1.094-.199 1.612-.485-.12-.194-.767-.267-1.129l-.447.084z"/>
    <path fill="#0366b3" d="M6.84 18.138l.314-.253.274.262-.191.235.168.361-.274.308-.26-.314.169-.355-.2-.244z"/>
    <path fill="#e4eff7" d="M6.926 17.096c.533-.193-.027.541 0 0z"/>
</svg>
