<!-- Generated by IcoMoon.io -->
<svg version="1.1" xmlns="http://www.w3.org/2000/svg" width="24" height="24" viewBox="0 0 24 24">
<title>regulatory--end-of-no-overtaking-by-heavy-goods-vehicles--g1</title>
<path fill="#747775" opacity="0.73" d="M10.564 0h2.934l-0.245 0.098c-0.822 0.007-1.645 0.012-2.466-0.011l-0.223-0.088z"></path>
<path fill="#f7fbf5" d="M0.098 10.722c0.468-5.483 5.203-10.192 10.688-10.634 0.821 0.023 1.644 0.018 2.466 0.011 5.497 0.448 10.204 5.2 10.661 10.685-0.026 0.832-0.019 1.663-0.014 2.495-0.467 5.418-5.088 10.038-10.475 10.626-0.901-0.013-1.801-0.011-2.702-0.004-5.479-0.476-10.178-5.207-10.637-10.686 0.030-0.83 0.022-1.662 0.013-2.492M15.865 1.565c-1.506 2.616-3.034 5.22-4.519 7.846 0.218-1.276 0.114-2.596 0.014-3.88 0.017-0.505-0.558-0.473-0.918-0.493-1.72-0.026-3.442 0.001-5.162-0.035-0.413 0.010-0.848-0.030-1.24 0.13-0.245 0.259-0.181 0.662-0.218 0.991-0.019 2.123-0.011 4.246-0.001 6.368 1.907 0.034 3.816-0.049 5.722 0.044-0.169 0.264-0.319 0.539-0.469 0.814-0.012-0.082-0.036-0.245-0.047-0.326-1.762 0.001-3.524-0.022-5.285 0.013 0.002 0.206 0.004 0.413 0.006 0.62 1.703 0.034 3.408-0.056 5.107 0.058-0.211 0.334-0.403 0.68-0.583 1.033-0.212-0.325-0.647-0.512-0.982-0.241-0.683 0.51-1.571 0.325-2.363 0.415-0.065-0.262 0.058-0.629-0.17-0.818-0.283-0.041-0.571-0.017-0.856-0.011-0.044 0.664-0.092 1.332-0.034 1.996 0.005 0.518 0.655 0.258 0.983 0.3 0.022-0.298 0.041-0.595 0.060-0.893 0.908 0.026 1.878-0.103 2.682 0.421-0.926 1.528-1.789 3.092-2.696 4.631 0.223 0.182 0.449 0.362 0.674 0.542 1.11-1.903 2.221-3.806 3.301-5.726 0.17 0.082 0.349 0.143 0.535 0.182-1.15 1.931-2.255 3.889-3.382 5.833 0.245 0.148 0.492 0.293 0.739 0.438 1.193-2.088 2.425-4.154 3.59-6.258 0.068 0.247 0.139 0.492 0.218 0.736-1.128 1.912-2.228 3.84-3.335 5.765 0.265 0.113 0.529 0.224 0.796 0.335 1.82-3.167 3.668-6.319 5.468-9.498 0.058 0.451 0.073 0.908 0.032 1.362-0.187-0.158-0.259-0.391-0.329-0.616-0.508 0.551-0.245 1.175 0.288 1.582 0.004 0.424 0.010 0.847 0.028 1.271 0.365-0.004 0.728-0.010 1.093-0.022 0.008-0.449 0.013-0.896 0.017-1.344 1.739-0.005 3.476-0.001 5.214-0.002 0.007 0.456 0.016 0.913 0.037 1.369 0.364-0.004 0.727-0.011 1.091-0.024 0.046-0.524-0.15-1.169 0.294-1.568 0.586-0.557 0.246-1.445 0.316-2.155-0.763-0.494-0.902-1.444-1.3-2.195-1.775-0.251-3.566-0.244-5.351-0.125 1.372-2.348 2.726-4.705 4.081-7.063-0.227-0.174-0.454-0.348-0.68-0.521-2.282 3.946-4.578 7.885-6.829 11.849-0.074-0.234-0.152-0.468-0.236-0.7 2.224-3.803 4.409-7.628 6.616-11.442-0.246-0.143-0.492-0.284-0.739-0.425-2.477 4.285-4.968 8.563-7.418 12.863-0.18-0.059-0.359-0.119-0.538-0.179 2.516-4.289 4.979-8.61 7.472-12.913-0.264-0.114-0.529-0.224-0.796-0.334z"></path>
<path fill="#f7fbf5" d="M14.794 10.668c0.030 0.066 0.088 0.197 0.116 0.262 1.691-0.208 3.396-0.175 5.083 0.059 0.209 0.442 0.406 0.889 0.589 1.342-2.245-0.001-4.49 0.007-6.734-0.032 0.331-0.534 0.641-1.080 0.946-1.63z"></path>
<path fill="#f7fbf5" d="M20.927 14.14c-0.004-0.425-0.046-0.875 0.175-1.259 0.113 0.414 0.115 0.845 0.109 1.271-0.071-0.002-0.212-0.008-0.284-0.012z"></path>
<path fill="#f7fbf5" d="M16.103 13.832c0.754-0.001 1.508-0.001 2.262-0.001 0.007 0.090 0.022 0.27 0.028 0.361-0.767 0.013-1.534 0.014-2.3-0.004 0.002-0.089 0.007-0.268 0.011-0.356z"></path>
<path fill="#2a2d2f" d="M15.865 1.565c0.266 0.109 0.532 0.22 0.796 0.334-2.494 4.303-4.956 8.624-7.472 12.913-0.11 0.181-0.216 0.365-0.317 0.552-1.080 1.92-2.191 3.823-3.301 5.726-0.226-0.18-0.451-0.36-0.674-0.542 0.907-1.538 1.77-3.103 2.696-4.631 0.242-0.379 0.472-0.768 0.679-1.169 0.18-0.353 0.372-0.7 0.583-1.033 0.077-0.119 0.149-0.241 0.218-0.365 0.15-0.275 0.3-0.55 0.469-0.814 0.624-1.028 1.236-2.065 1.804-3.126 1.486-2.626 3.013-5.23 4.519-7.846z"></path>
<path fill="#2a2d2f" d="M9.726 14.99c2.45-4.3 4.942-8.578 7.418-12.863 0.247 0.14 0.493 0.282 0.739 0.425-2.207 3.814-4.392 7.639-6.616 11.442-0.325 0.51-0.632 1.030-0.913 1.565-1.165 2.104-2.398 4.17-3.59 6.258-0.247-0.145-0.494-0.29-0.739-0.438 1.127-1.944 2.232-3.902 3.382-5.833 0.11-0.182 0.217-0.368 0.319-0.556z"></path>
<path fill="#2a2d2f" d="M11.504 14.694c2.251-3.964 4.547-7.903 6.829-11.849 0.227 0.173 0.454 0.347 0.68 0.521-1.355 2.358-2.71 4.715-4.081 7.063-0.047 0.079-0.094 0.158-0.139 0.239-0.305 0.55-0.614 1.096-0.946 1.63-0.12 0.197-0.236 0.396-0.346 0.599-1.8 3.179-3.648 6.331-5.468 9.498-0.266-0.11-0.53-0.222-0.796-0.335 1.106-1.925 2.207-3.853 3.335-5.765 0.335-0.52 0.646-1.052 0.931-1.601z"></path>
<path fill="#8f9695" d="M4.040 5.132c0.391-0.16 0.827-0.12 1.24-0.13 1.721 0.036 3.443 0.008 5.162 0.035 0.36 0.020 0.935-0.012 0.918 0.493 0.1 1.284 0.204 2.604-0.014 3.88-0.568 1.061-1.18 2.098-1.804 3.126-1.906-0.094-3.815-0.011-5.722-0.044-0.010-2.123-0.018-4.246 0.001-6.368 0.037-0.329-0.026-0.732 0.218-0.991z"></path>
<path fill="#8f9695" d="M14.933 10.429c1.784-0.119 3.576-0.126 5.351 0.125 0.397 0.751 0.536 1.7 1.3 2.195-0.070 0.71 0.27 1.598-0.316 2.155-0.444 0.4-0.248 1.044-0.294 1.568-0.364 0.013-0.727 0.020-1.091 0.024-0.022-0.456-0.030-0.913-0.037-1.369-1.738 0.001-3.475-0.002-5.214 0.002-0.004 0.448-0.008 0.895-0.017 1.344-0.365 0.012-0.728 0.018-1.093 0.022-0.018-0.424-0.024-0.847-0.028-1.271-0.533-0.407-0.796-1.031-0.288-1.582 0.070 0.224 0.142 0.457 0.329 0.616 0.041-0.454 0.025-0.911-0.032-1.362 0.109-0.203 0.226-0.402 0.346-0.599 2.244 0.040 4.489 0.031 6.734 0.032-0.184-0.452-0.38-0.9-0.589-1.342-1.687-0.234-3.392-0.266-5.083-0.059-0.029-0.065-0.086-0.196-0.116-0.262 0.046-0.080 0.092-0.16 0.139-0.239M20.927 14.14c0.072 0.004 0.214 0.010 0.284 0.012 0.006-0.426 0.004-0.857-0.109-1.271-0.221 0.384-0.179 0.834-0.175 1.259M16.103 13.832c-0.004 0.089-0.008 0.268-0.011 0.356 0.767 0.018 1.534 0.017 2.3 0.004-0.006-0.091-0.020-0.271-0.028-0.361-0.754 0-1.508 0-2.262 0.001z"></path>
<path fill="#8f9695" d="M3.742 13.037c1.76-0.035 3.523-0.012 5.285-0.013 0.011 0.082 0.035 0.245 0.047 0.326-0.070 0.124-0.142 0.246-0.218 0.365-1.699-0.114-3.404-0.024-5.107-0.058-0.002-0.208-0.004-0.414-0.006-0.62z"></path>
<path fill="#8f9695" d="M3.901 14.093c0.284-0.006 0.572-0.030 0.856 0.011 0.228 0.19 0.106 0.557 0.17 0.818 0.792-0.090 1.68 0.095 2.363-0.415 0.335-0.271 0.769-0.084 0.982 0.241-0.208 0.401-0.437 0.79-0.679 1.169-0.804-0.524-1.774-0.395-2.682-0.421-0.019 0.298-0.038 0.595-0.060 0.893-0.328-0.042-0.978 0.218-0.983-0.3-0.059-0.664-0.011-1.332 0.034-1.996z"></path>
<path fill="#8f9695" d="M10.355 15.559c0.281-0.535 0.588-1.055 0.913-1.565 0.084 0.232 0.162 0.466 0.236 0.7-0.286 0.548-0.596 1.081-0.931 1.601-0.079-0.244-0.15-0.488-0.218-0.736z"></path>
<path fill="#8f9695" d="M8.872 15.364c0.101-0.187 0.206-0.371 0.317-0.552 0.179 0.060 0.358 0.12 0.538 0.179-0.102 0.187-0.209 0.373-0.319 0.556-0.186-0.040-0.365-0.101-0.535-0.182z"></path>
<path fill="#777a78" opacity="0.75" d="M0 10.478l0.098 0.244c0.008 0.83 0.017 1.662-0.013 2.492l-0.085 0.222v-2.958z"></path>
<path fill="#767877" opacity="0.74" d="M23.914 10.783l0.086-0.223v2.957l-0.101-0.239c-0.005-0.832-0.012-1.663 0.014-2.495z"></path>
<path fill="#727472" opacity="0.74" d="M10.722 23.9c0.901-0.007 1.801-0.010 2.702 0.004l-0.227 0.096h-2.718l0.242-0.1z"></path>
</svg>
