<!-- Generated by IcoMoon.io -->
<svg version="1.1" xmlns="http://www.w3.org/2000/svg" width="24" height="24" viewBox="0 0 24 24">
<title>regulatory--vehicles-carrying-dangerous-goods-permitted--g1</title>
<path fill="#037863" d="M10.679 0h2.597c4.72 0.531 8.966 3.994 10.26 8.589 0.211 0.689 0.312 1.406 0.465 2.111v2.566c-0.525 4.723-3.992 8.974-8.589 10.269-0.691 0.211-1.406 0.312-2.111 0.465h-2.567c-4.723-0.526-8.973-3.993-10.269-8.588-0.209-0.684-0.313-1.392-0.463-2.090v-2.63c0.331-2.327 1.222-4.596 2.758-6.394 1.954-2.4 4.876-3.882 7.921-4.298M10.574 2.578c-3.141 0.466-5.951 2.626-7.243 5.523-1.349 2.922-1.085 6.521 0.693 9.207 2.347 3.76 7.447 5.422 11.554 3.739 4.378-1.608 7.058-6.672 5.882-11.196-1.022-4.772-6.079-8.167-10.886-7.273z"></path>
<path fill="#fff" d="M10.574 2.578c4.807-0.894 9.864 2.501 10.886 7.273 1.176 4.524-1.505 9.587-5.882 11.196-4.107 1.683-9.207 0.021-11.554-3.739-1.778-2.686-2.042-6.285-0.693-9.207 1.293-2.897 4.102-5.057 7.244-5.523M3.046 12.072c3.022 3.013 6.031 6.041 9.050 9.055 3.016-3.022 6.035-6.038 9.054-9.057-3.013-3.019-6.029-6.035-9.054-9.043-3.025 3.006-6.036 6.025-9.050 9.044z"></path>
<path fill="#030303" d="M3.046 12.072c3.013-3.019 6.025-6.038 9.050-9.044 3.025 3.008 6.041 6.024 9.054 9.043-3.019 3.019-6.038 6.035-9.054 9.057-3.019-3.015-6.028-6.042-9.050-9.055z"></path>
</svg>
