<!-- Generated by IcoMoon.io -->
<svg version="1.1" xmlns="http://www.w3.org/2000/svg" width="24" height="24" viewBox="0 0 24 24">
<title>regulatory--end-of-maximum-speed-limit-10--g1</title>
<path fill="#fff" d="M11.096 0h1.834c1.769 0.16 3.514 0.669 5.050 1.569 2.492 1.421 4.441 3.765 5.378 6.477 0.349 0.983 0.543 2.015 0.642 3.052v1.83c-0.161 1.769-0.67 3.515-1.57 5.052-1.538 2.7-4.162 4.757-7.155 5.592-0.762 0.224-1.55 0.339-2.337 0.428h-1.866c-1.724-0.155-3.421-0.647-4.931-1.499-2.633-1.468-4.68-3.954-5.593-6.829-0.292-0.886-0.449-1.808-0.547-2.734v-1.87c0.093-0.891 0.241-1.78 0.513-2.636 0.84-2.732 2.7-5.131 5.129-6.637 1.635-1.036 3.53-1.633 5.454-1.795M11.366 0.596c-1.974 0.101-3.917 0.739-5.574 1.817-2.586 1.659-4.442 4.405-5.011 7.425-0.627 3.184 0.19 6.617 2.2 9.167 1.793 2.325 4.514 3.907 7.423 4.306 3.22 0.47 6.617-0.526 9.065-2.673 2.293-1.966 3.75-4.876 3.928-7.893 0.127-1.87-0.219-3.77-0.999-5.474-1.193-2.645-3.436-4.794-6.131-5.87-1.547-0.626-3.235-0.903-4.902-0.807z"></path>
<path fill="#fff" d="M11.062 1.22c2.432-0.221 4.932 0.42 6.958 1.786-0.843 0.85-1.689 1.697-2.54 2.539-1.314-0.158-2.693 0.42-3.468 1.497-0.527 0.743-0.644 1.688-0.606 2.576-0.606 0.62-1.224 1.228-1.837 1.841-0.004-1.931 0.004-3.862-0.004-5.794-0.623 0.003-1.248-0.022-1.869 0.011-0.621 0.42-1.221 0.876-1.827 1.319-0.006 0.669-0.002 1.339-0.002 2.008 0.609-0.429 1.201-0.883 1.808-1.314 0.004 1.88-0.006 3.76 0.005 5.64-1.536 1.58-3.115 3.127-4.673 4.689-1.655-2.445-2.228-5.583-1.552-8.455 0.65-2.887 2.557-5.455 5.121-6.928 1.366-0.796 2.91-1.283 4.485-1.416z"></path>
<path fill="#fff" d="M16.188 5.69c0.78-0.772 1.551-1.553 2.33-2.325 0.077 0.058 0.155 0.115 0.234 0.171-0.744 0.772-1.511 1.523-2.272 2.28-0.097-0.043-0.195-0.085-0.292-0.127z"></path>
<path fill="#fff" d="M17.053 6.101c0.722-0.722 1.442-1.446 2.167-2.165 0.073 0.067 0.144 0.135 0.216 0.203-0.715 0.713-1.425 1.433-2.145 2.14-0.079-0.060-0.158-0.12-0.238-0.179z"></path>
<path fill="#fff" d="M17.758 6.668c0.701-0.701 1.402-1.403 2.104-2.103 0.068 0.071 0.136 0.144 0.202 0.218-0.701 0.706-1.406 1.409-2.11 2.111-0.066-0.075-0.131-0.151-0.196-0.226z"></path>
<path fill="#fff" d="M20.451 5.246c0.064 0.076 0.126 0.155 0.185 0.236-0.731 0.737-1.469 1.469-2.201 2.205-0.053-0.087-0.104-0.173-0.154-0.26 0.716-0.734 1.45-1.45 2.17-2.18z"></path>
<path fill="#fff" d="M18.599 8.381c0.79-0.807 1.594-1.602 2.394-2.399 1.655 2.444 2.227 5.582 1.55 8.454-0.65 2.887-2.557 5.455-5.12 6.929-2.344 1.372-5.217 1.8-7.86 1.178-1.275-0.29-2.495-0.821-3.581-1.55 0.848-0.855 1.698-1.708 2.555-2.554l0.025 0.001c0.334 0.017 0.668 0.012 1.003 0.006 0.003-0.34 0.011-0.681-0.010-1.020 0.621-0.643 1.262-1.266 1.891-1.9 0.087 0.536 0.262 1.066 0.584 1.509 0.759 1.028 2.077 1.602 3.349 1.475 0.973-0.076 1.899-0.565 2.535-1.3 0.676-0.785 0.805-1.868 0.763-2.865 0-1.688 0-3.375 0-5.062-0-0.302-0.015-0.605-0.078-0.901z"></path>
<path fill="#fff" d="M14.39 7.507c0.16-0.043 0.324-0.061 0.487-0.089-0.514 0.526-1.034 1.047-1.561 1.56 0.026-0.167 0.052-0.334 0.1-0.496 0.308-0.339 0.637-0.664 0.974-0.975z"></path>
<path fill="#fff" d="M13.286 9.866c0.789-0.787 1.575-1.577 2.365-2.363 0.098 0.041 0.197 0.082 0.295 0.124-0.881 0.888-1.77 1.769-2.652 2.656-0.003-0.131-0.005-0.263-0.008-0.394l-0-0.022z"></path>
<path fill="#fff" d="M16.397 8.028c0.059 0.082 0.116 0.165 0.172 0.249-1.088 1.094-2.183 2.182-3.272 3.276-0.004-0.125-0.008-0.25-0.016-0.375l-0.001-0.024c1.031-1.050 2.080-2.083 3.118-3.126z"></path>
<path fill="#fff" d="M13.286 12.416c1.159-1.164 2.322-2.325 3.485-3.486 0.007 0.132 0.013 0.264 0.019 0.397-1.155 1.158-2.31 2.317-3.47 3.468-0.023-0.126-0.032-0.253-0.034-0.38z"></path>
<path fill="#fff" d="M13.282 13.694c1.163-1.172 2.332-2.337 3.501-3.503 0.011 1.509 0.001 3.018 0.005 4.528 0.009 0.513-0.124 1.060-0.494 1.434-0.734 0.745-2.186 0.647-2.729-0.28-0.392-0.651-0.234-1.436-0.282-2.154l-0.001-0.024z"></path>
<path fill="#fff" d="M9.56 12.325c0.603-0.611 1.21-1.216 1.82-1.821 0.014 0.126 0.023 0.253 0.031 0.38-0.606 0.619-1.222 1.229-1.837 1.839-0.005-0.133-0.008-0.266-0.015-0.398z"></path>
<path fill="#fff" d="M9.564 13.591c0.603-0.61 1.213-1.213 1.817-1.821 0.015 0.134 0.022 0.269 0.020 0.405-0.608 0.608-1.217 1.216-1.824 1.825-0.006-0.136-0.009-0.273-0.012-0.409z"></path>
<path fill="#fff" d="M11.383 13.042c0.014 0.134 0.019 0.269 0.019 0.405-0.607 0.609-1.217 1.214-1.822 1.824-0.010-0.126-0.022-0.252-0.029-0.378 0.59-0.634 1.224-1.23 1.831-1.85z"></path>
<path fill="#fff" d="M3.366 18.518c1.43-1.438 2.869-2.867 4.299-4.304 0.008 0.128 0.017 0.255 0.029 0.382-1.374 1.396-2.761 2.781-4.155 4.156-0.057-0.079-0.114-0.157-0.173-0.234z"></path>
<path fill="#fff" d="M11.387 14.318c0.011 0.132 0.015 0.264 0.017 0.396-0.607 0.609-1.213 1.219-1.825 1.823-0.008-0.127-0.016-0.253-0.027-0.379 0.601-0.623 1.219-1.231 1.835-1.84z"></path>
<path fill="#fff" d="M3.937 19.218c1.239-1.247 2.488-2.485 3.727-3.732 0.009 0.127 0.019 0.253 0.033 0.38-1.173 1.201-2.372 2.379-3.558 3.569-0.069-0.071-0.136-0.143-0.202-0.217z"></path>
<path fill="#fff" d="M7.67 16.755c0.004 0.136 0.007 0.272 0.011 0.409-0.962 0.971-1.93 1.935-2.898 2.9-0.074-0.066-0.146-0.134-0.217-0.203 1.033-1.037 2.070-2.070 3.104-3.106z"></path>
<path fill="#fff" d="M5.248 20.45c0.81-0.806 1.617-1.616 2.426-2.424 0.001 0.136 0.003 0.272 0.008 0.408-0.728 0.739-1.464 1.47-2.199 2.202-0.081-0.060-0.159-0.121-0.235-0.186z"></path>
<path fill="#000" d="M11.366 0.596c1.666-0.097 3.354 0.18 4.902 0.807 2.695 1.076 4.938 3.225 6.131 5.87 0.78 1.704 1.126 3.604 0.999 5.474-0.179 3.017-1.635 5.927-3.928 7.893-2.448 2.146-5.845 3.143-9.065 2.673-2.909-0.399-5.631-1.981-7.423-4.306-2.010-2.55-2.827-5.983-2.2-9.167 0.569-3.020 2.425-5.766 5.011-7.425 1.657-1.078 3.6-1.716 5.574-1.817M11.062 1.22c-1.575 0.133-3.12 0.62-4.485 1.416-2.565 1.472-4.471 4.041-5.121 6.928-0.676 2.873-0.104 6.011 1.552 8.455 1.558-1.562 3.137-3.109 4.673-4.689 0.649-0.602 1.258-1.248 1.889-1.87 0.613-0.613 1.23-1.222 1.837-1.841 1.364-1.352 2.721-2.711 4.074-4.073 0.851-0.841 1.697-1.689 2.54-2.539-2.025-1.366-4.525-2.007-6.958-1.786M16.188 5.69c-0.594 0.611-1.216 1.196-1.799 1.817-0.337 0.311-0.665 0.637-0.974 0.975-0.697 0.65-1.347 1.353-2.038 2.011l0.001 0.011c-0.609 0.604-1.217 1.21-1.82 1.821-0.636 0.625-1.261 1.262-1.895 1.889-1.431 1.437-2.869 2.866-4.299 4.304 0.059 0.077 0.117 0.155 0.173 0.234 1.394-1.376 2.781-2.76 4.155-4.156 0.64-0.607 1.245-1.25 1.881-1.861v-0.010c0.615-0.61 1.23-1.221 1.837-1.839 0.639-0.63 1.279-1.265 1.905-1.906 0.527-0.513 1.047-1.034 1.561-1.56 0.54-0.527 1.073-1.064 1.604-1.602 0.761-0.757 1.528-1.508 2.272-2.28-0.079-0.056-0.157-0.113-0.234-0.171-0.78 0.772-1.55 1.553-2.33 2.325M17.053 6.101c-0.468 0.466-0.936 0.933-1.401 1.402-0.79 0.786-1.576 1.576-2.365 2.363l0 0.022c-0.656 0.603-1.266 1.259-1.905 1.882-0.604 0.608-1.214 1.211-1.817 1.821-0.637 0.629-1.264 1.266-1.9 1.895-1.239 1.247-2.488 2.485-3.727 3.732 0.066 0.074 0.134 0.146 0.203 0.217 1.185-1.19 2.385-2.368 3.558-3.569 0.638-0.609 1.251-1.246 1.879-1.866 0.607-0.609 1.216-1.217 1.824-1.825 0.631-0.63 1.261-1.263 1.894-1.892 0.882-0.887 1.771-1.768 2.652-2.656 0.45-0.447 0.901-0.893 1.343-1.347 0.721-0.707 1.431-1.427 2.145-2.14-0.072-0.068-0.143-0.136-0.216-0.203-0.725 0.719-1.445 1.443-2.167 2.165M17.758 6.668c-0.454 0.453-0.908 0.907-1.361 1.36-1.038 1.043-2.087 2.076-3.118 3.126l0.001 0.024c-0.663 0.585-1.26 1.248-1.897 1.864-0.607 0.62-1.241 1.216-1.831 1.85-0.645 0.601-1.252 1.245-1.882 1.863-1.034 1.037-2.071 2.070-3.104 3.106 0.071 0.068 0.143 0.136 0.217 0.203 0.968-0.965 1.936-1.929 2.898-2.9 0.638-0.626 1.264-1.265 1.9-1.893 0.605-0.61 1.215-1.215 1.822-1.824 0.632-0.63 1.261-1.264 1.895-1.893 1.089-1.094 2.184-2.182 3.272-3.276 0.463-0.459 0.924-0.922 1.384-1.384 0.704-0.703 1.409-1.405 2.11-2.111-0.066-0.074-0.133-0.147-0.202-0.218-0.703 0.7-1.403 1.402-2.104 2.103M20.451 5.246c-0.72 0.73-1.455 1.446-2.17 2.18-0.51 0.494-1.007 1.001-1.509 1.504-1.163 1.161-2.325 2.321-3.485 3.486-0.637 0.627-1.261 1.267-1.9 1.891l0.001 0.011c-0.616 0.609-1.234 1.217-1.835 1.84-0.637 0.611-1.251 1.246-1.878 1.867-0.809 0.808-1.615 1.618-2.426 2.424 0.076 0.064 0.154 0.126 0.235 0.186 0.735-0.733 1.471-1.463 2.199-2.202 0.639-0.621 1.257-1.265 1.898-1.884l-0-0.011c0.612-0.604 1.217-1.214 1.825-1.823 0.643-0.632 1.269-1.281 1.918-1.906l-0.002-0.013c1.161-1.152 2.315-2.31 3.47-3.468 0.551-0.544 1.095-1.095 1.644-1.641 0.732-0.736 1.47-1.467 2.201-2.205-0.059-0.081-0.12-0.159-0.185-0.236M18.599 8.381c-0.613 0.595-1.213 1.205-1.816 1.81-1.169 1.166-2.338 2.332-3.501 3.503l0.001 0.024c-0.639 0.57-1.221 1.208-1.836 1.807-0.63 0.634-1.271 1.257-1.891 1.9-0.335 0.333-0.695 0.649-0.992 1.015l-0.025-0.001c-0.857 0.847-1.708 1.699-2.555 2.554 1.086 0.728 2.305 1.26 3.581 1.55 2.643 0.622 5.516 0.194 7.86-1.178 2.564-1.474 4.47-4.042 5.12-6.929 0.677-2.872 0.105-6.010-1.55-8.454-0.801 0.797-1.604 1.592-2.394 2.399z"></path>
<path fill="#808080" d="M12.012 7.042c0.775-1.078 2.154-1.656 3.468-1.497-1.354 1.362-2.711 2.722-4.074 4.073-0.038-0.889 0.079-1.833 0.606-2.576z"></path>
<path fill="#808080" d="M5.869 6.996c0.606-0.442 1.206-0.899 1.827-1.319 0.621-0.033 1.247-0.008 1.869-0.011 0.007 1.931 0 3.863 0.004 5.794-0.631 0.622-1.24 1.268-1.889 1.87-0.010-1.88-0.001-3.76-0.005-5.64-0.607 0.432-1.199 0.885-1.808 1.314-0-0.669-0.004-1.339 0.002-2.008z"></path>
<path fill="#808080" d="M14.39 7.507c0.583-0.621 1.205-1.206 1.799-1.817 0.097 0.042 0.195 0.083 0.292 0.127-0.53 0.538-1.064 1.075-1.604 1.602-0.163 0.028-0.327 0.046-0.487 0.089z"></path>
<path fill="#808080" d="M15.652 7.502c0.465-0.469 0.933-0.935 1.401-1.402 0.079 0.059 0.158 0.119 0.238 0.179-0.442 0.454-0.893 0.9-1.343 1.347-0.098-0.042-0.197-0.083-0.295-0.124z"></path>
<path fill="#808080" d="M16.397 8.028c0.453-0.454 0.907-0.907 1.361-1.36 0.065 0.075 0.13 0.15 0.196 0.226-0.46 0.462-0.921 0.924-1.384 1.384-0.056-0.084-0.114-0.167-0.172-0.249z"></path>
<path fill="#808080" d="M16.771 8.93c0.502-0.502 0.999-1.010 1.509-1.504 0.051 0.087 0.102 0.173 0.154 0.26-0.549 0.546-1.094 1.097-1.644 1.641-0.006-0.133-0.012-0.265-0.019-0.397z"></path>
<path fill="#808080" d="M16.783 10.191c0.604-0.605 1.203-1.215 1.816-1.81 0.063 0.296 0.078 0.599 0.078 0.901 0 1.687 0 3.375 0 5.062 0.043 0.997-0.086 2.080-0.763 2.865-0.636 0.735-1.562 1.224-2.535 1.3-1.271 0.127-2.589-0.447-3.349-1.475-0.322-0.442-0.497-0.973-0.584-1.509 0.615-0.599 1.197-1.237 1.836-1.807 0.048 0.719-0.11 1.504 0.282 2.154 0.543 0.927 1.995 1.025 2.729 0.28 0.37-0.375 0.503-0.921 0.494-1.434-0.004-1.509 0.006-3.018-0.005-4.528z"></path>
<path fill="#808080" d="M11.378 10.493c0.691-0.658 1.34-1.361 2.038-2.011-0.049 0.162-0.075 0.329-0.1 0.496-0.626 0.641-1.265 1.276-1.905 1.906-0.008-0.127-0.017-0.254-0.031-0.38l-0.001-0.011z"></path>
<path fill="#808080" d="M11.381 11.77c0.639-0.623 1.249-1.279 1.905-1.882 0.003 0.131 0.005 0.263 0.008 0.394-0.632 0.63-1.262 1.262-1.894 1.892 0.002-0.135-0.004-0.27-0.020-0.405z"></path>
<path fill="#808080" d="M11.383 13.042c0.637-0.615 1.235-1.279 1.898-1.864 0.008 0.125 0.013 0.25 0.016 0.375-0.633 0.629-1.262 1.262-1.895 1.893 0-0.135-0.005-0.27-0.019-0.405z"></path>
<path fill="#808080" d="M7.665 14.214c0.634-0.627 1.259-1.264 1.895-1.889 0.006 0.133 0.010 0.265 0.015 0.398v0.010c-0.635 0.612-1.241 1.255-1.881 1.861-0.012-0.127-0.021-0.254-0.029-0.382z"></path>
<path fill="#808080" d="M11.386 14.307c0.639-0.624 1.263-1.265 1.9-1.891 0.002 0.127 0.010 0.254 0.034 0.38l0.002 0.013c-0.649 0.625-1.275 1.274-1.918 1.906-0.001-0.132-0.006-0.264-0.017-0.396l-0.001-0.011z"></path>
<path fill="#808080" d="M7.664 15.486c0.636-0.629 1.264-1.267 1.9-1.895 0.003 0.136 0.006 0.273 0.012 0.409-0.629 0.619-1.241 1.256-1.879 1.866-0.014-0.127-0.024-0.253-0.033-0.38z"></path>
<path fill="#808080" d="M7.67 16.755c0.631-0.617 1.237-1.261 1.883-1.863 0.007 0.126 0.018 0.252 0.029 0.378-0.636 0.628-1.261 1.268-1.9 1.893-0.004-0.136-0.007-0.273-0.011-0.409z"></path>
<path fill="#808080" d="M7.673 18.025c0.628-0.621 1.241-1.256 1.878-1.867 0.011 0.126 0.019 0.252 0.027 0.379l0 0.011c-0.641 0.619-1.259 1.263-1.898 1.884-0.005-0.136-0.007-0.272-0.008-0.408z"></path>
<path fill="#808080" d="M8.563 18.44c0.297-0.366 0.658-0.682 0.992-1.015 0.022 0.34 0.013 0.681 0.010 1.020-0.334 0.006-0.668 0.012-1.003-0.006z"></path>
</svg>
