<svg xmlns="http://www.w3.org/2000/svg" width="24" height="24">
    <path d="M10.963 0h2.069c.16.031.322.054.486.072 3.078.369 5.97 2.013 7.89 4.443a11.952 11.952 0 0 1 2.504 5.846c.025.202.046.404.088.603v2.067c-.19 1.708-.669 3.398-1.536 4.89-1.534 2.728-4.173 4.81-7.189 5.651-.73.219-1.487.319-2.239.428h-2.067c-1.732-.189-3.439-.687-4.95-1.567C3.323 20.89 1.262 18.27.427 15.276c-.218-.73-.319-1.487-.427-2.238v-2.069c.107-.754.209-1.511.427-2.243a12.06 12.06 0 0 1 5.157-6.893C7.194.792 9.065.207 10.963.001zM9.252.538a11.737 11.737 0 0 0-4.59 2.245C2.284 4.663.677 7.493.31 10.506c-.419 3.179.534 6.508 2.587 8.973 1.676-1.992 3.346-3.989 5.021-5.982.026-.041.073-.076.075-.128.626-.654 1.169-1.389 1.772-2.067l-.001-.011c.562-.667 1.13-1.329 1.678-2.007a421.581 421.581 0 0 0 3.335-3.97c1.002-1.189 2.014-2.372 2.993-3.579C15.227.259 12.104-.145 9.251.537zm8.838 7.576c-.555.651-1.095 1.313-1.652 1.96v.011c-1.059 1.248-2.103 2.508-3.159 3.758-.032.045-.081.088-.088.145-.608.635-1.14 1.346-1.719 2.009-.571.697-1.173 1.373-1.73 2.082-.31.33-.588.689-.881 1.033-.882 1.05-1.767 2.097-2.642 3.152 2.553 1.466 5.671 1.884 8.529 1.197a11.737 11.737 0 0 0 4.565-2.224c2.392-1.881 4.007-4.721 4.376-7.743.42-3.179-.532-6.508-2.586-8.972a1467.552 1467.552 0 0 0-3.013 3.592z"/>
    <path fill="#fff" d="M9.252.538c2.853-.682 5.976-.277 8.519 1.198-.979 1.207-1.992 2.39-2.993 3.579-1.378 0-2.652 1.008-3.082 2.299-.188.536-.243 1.107-.254 1.671-.547.678-1.116 1.34-1.678 2.007-.047-1.961-.001-3.924-.023-5.886-.545 0-1.091-.003-1.636 0-.121-.008-.208.086-.293.156-.497.433-1.015.841-1.508 1.278.003.712-.007 1.424.006 2.136.571-.446 1.102-.943 1.673-1.389.009 1.927-.012 3.855.01 5.782-.002.052-.049.087-.075.128-1.675 1.993-3.345 3.99-5.021 5.982C.843 17.014-.11 13.685.309 10.506c.367-3.013 1.973-5.843 4.352-7.723A11.744 11.744 0 0 1 9.251.538zM18.09 8.114c1.002-1.199 2.007-2.396 3.013-3.592 2.054 2.464 3.006 5.794 2.586 8.972-.369 3.023-1.985 5.863-4.376 7.743a11.737 11.737 0 0 1-4.565 2.224c-2.858.687-5.976.269-8.529-1.197.876-1.055 1.76-2.103 2.642-3.152.294-.005.588 0 .881-.003.01-.344.004-.687 0-1.03.556-.708 1.158-1.384 1.73-2.082.084.36.139.73.283 1.073.295.775.907 1.407 1.635 1.792a3.134 3.134 0 0 0 2.974-.058c.58-.338 1.086-.825 1.39-1.428.33-.645.443-1.378.446-2.095v-5.063c-.006-.703.036-1.413-.11-2.105z"/>
    <path fill="#fff" d="M13.278 13.843c1.056-1.25 2.1-2.51 3.159-3.758.031 1.654.004 3.308.014 4.962.006.603-.096 1.264-.539 1.71-.629.664-1.868.567-2.359-.217-.505-.755-.308-1.701-.364-2.552.007-.058.056-.1.088-.145z"/>
    <path fill="gray" d="M11.696 7.614c.43-1.29 1.703-2.298 3.082-2.299-1.106 1.327-2.213 2.656-3.335 3.97.011-.564.066-1.135.254-1.671zM7.812 5.563c.086-.07.172-.164.293-.156.545-.003 1.091 0 1.636 0 .022 1.962-.023 3.925.023 5.886l.001.011c-.603.678-1.146 1.413-1.772 2.067-.022-1.927-.001-3.855-.01-5.782-.571.446-1.102.943-1.673 1.389-.013-.712-.002-1.424-.006-2.136.493-.437 1.011-.845 1.508-1.278zM16.437 10.074c.557-.648 1.098-1.31 1.652-1.96.146.692.105 1.402.11 2.105v5.063c-.003.718-.115 1.451-.446 2.095-.304.603-.81 1.09-1.39 1.428a3.134 3.134 0 0 1-2.974.058c-.728-.385-1.34-1.017-1.635-1.792-.144-.343-.199-.713-.283-1.073.58-.663 1.111-1.374 1.719-2.009.055.852-.141 1.798.364 2.552.491.784 1.73.881 2.359.217.442-.446.545-1.108.539-1.71-.01-1.654.017-3.308-.014-4.962v-.011zM8.86 19.112c.293-.345.571-.703.881-1.033.004.344.01.687 0 1.03-.293.002-.587-.002-.881.003z"/>
</svg>
