<!-- Generated by IcoMoon.io -->
<svg version="1.1" xmlns="http://www.w3.org/2000/svg" width="24" height="24" viewBox="0 0 24 24">
<title>regulatory--maximum-speed-limit-led-15--g3</title>
<path fill="#030303" d="M1.853 0h20.286c0.389 0.33 0.733 0.764 0.688 1.308 0.005 7.128 0.005 14.257 0 21.384 0.046 0.541-0.299 0.973-0.68 1.308h-20.284c-0.39-0.33-0.736-0.764-0.689-1.308-0.005-7.128-0.005-14.257 0-21.384-0.047-0.541 0.298-0.973 0.679-1.308M2.894 1.825c-0.587 0.34-0.692 1.247-0.198 1.711 0.464 0.408 1.115 0.466 1.63 0.781 0.4 0.215 0.211 0.913-0.245 0.895-0.508 0.124-0.919-0.235-1.169-0.634-0.245 0.104-0.492 0.205-0.737 0.311 0.404 1.001 1.697 1.47 2.621 0.88 0.779-0.443 0.785-1.729-0.032-2.135-0.515-0.404-1.555-0.286-1.586-1.127 0.485-0.226 1.042-0.181 1.381 0.266 0.23-0.077 0.462-0.156 0.692-0.235-0.332-0.94-1.558-1.23-2.357-0.714M6.386 1.613c0 1.444 0 2.887 0 4.331 0.266 0 0.532 0 0.798 0-0.001-0.533 0-1.064-0.002-1.597 0.688-0.006 1.495 0.107 2.046-0.403 0.67-0.614 0.478-1.885-0.396-2.204-0.788-0.246-1.632-0.078-2.446-0.126M10.465 1.619c-0.002 1.441-0.001 2.884-0.001 4.325 0.983-0.001 1.966 0 2.948-0.001-0.002-0.269-0.005-0.539-0.010-0.808-0.714 0-1.429-0.011-2.143 0.008 0-0.343 0-0.688-0.002-1.031 0.418 0.007 0.835 0.006 1.253 0.006 0-0.27 0-0.539-0.001-0.808-0.418-0.004-0.834-0.005-1.252 0 0.002-0.296 0.002-0.593 0.001-0.89 0.676 0.016 1.35 0.007 2.024 0.008 0.002-0.27 0.004-0.539 0.004-0.809-0.941-0.002-1.882 0-2.821-0.001M18.286 1.62c-0.002 1.44-0.001 2.881 0 4.322 0.773-0.018 1.588 0.098 2.317-0.222 1.435-0.702 1.477-3.088 0.080-3.852-0.74-0.377-1.6-0.216-2.398-0.248M14.356 1.622c-0.007 1.44-0.002 2.88-0.004 4.32 0.997 0.002 1.993 0.001 2.99 0-0.001-0.27-0.002-0.539-0.005-0.809-0.715 0.002-1.43-0.014-2.146 0.016 0-0.347 0-0.695-0.004-1.042 0.41 0.012 0.821 0.012 1.231 0.012 0.001-0.271 0.001-0.541 0.001-0.812-0.412 0-0.822-0.001-1.232 0.007 0.004-0.301 0.004-0.602 0.004-0.904 0.672 0.032 1.345 0.016 2.018 0.016 0.002-0.269 0.004-0.536 0.002-0.805-0.952-0.002-1.904-0.005-2.857 0.001M4.223 6.533c0.002 1.438-0.002 2.876 0.004 4.315 0.942 0 1.884-0.001 2.826 0.001 0-0.271 0-0.542 0-0.814-0.679 0.002-1.357-0.001-2.036 0.005 0.005-1.17 0.001-2.339 0.002-3.508-0.265-0.001-0.53-0.001-0.796 0M7.884 6.532c0.001 1.438-0.002 2.875 0.002 4.313 0.275 0.002 0.551 0.004 0.827 0.005 0.004-1.441-0.001-2.882 0.002-4.324-0.277 0.001-0.554 0.002-0.832 0.006M9.924 6.533c0.001 1.438-0.002 2.874 0.002 4.312 0.276 0.002 0.553 0.004 0.83 0.004 0.001-0.848 0.011-1.697-0.010-2.544 0.335 0.907 0.773 1.771 1.136 2.668 0.409-0.877 0.817-1.756 1.163-2.66-0.024 0.845-0.013 1.691-0.013 2.536 0.277 0 0.554 0.001 0.832 0.001 0.004-1.44 0-2.881 0.001-4.321-0.265 0.001-0.53 0.001-0.796 0.004-0.383 0.899-0.798 1.784-1.166 2.689-0.377-0.904-0.778-1.799-1.172-2.695-0.269 0.002-0.538 0.005-0.808 0.008M16.84 6.527c0 0.259 0 0.518 0 0.778 0.396-0.002 0.791-0.001 1.187-0.004 0 1.182-0.002 2.365 0.002 3.547 0.263 0 0.527 0 0.79 0 0.005-1.182 0.001-2.364 0.002-3.546 0.401 0.001 0.803 0 1.205 0.001 0-0.259 0-0.517 0-0.776-1.062 0.001-2.124 0.001-3.186 0M15.056 6.528c0.001 1.44-0.002 2.88 0.002 4.32 0.276 0 0.552 0 0.829-0.001 0.002-1.439 0-2.879 0.001-4.318-0.277-0.001-0.556-0.001-0.833-0.001M5.542 14.208c0.007 0.296 0.010 0.594 0.013 0.892 0.553 0 1.106 0 1.66 0-0.002 2.599 0.001 5.198-0.002 7.798 0.43-0.001 0.859-0.001 1.289 0-0.002-3.294 0.002-6.588-0.002-9.882-0.306 0.001-0.613 0.002-0.92 0.002-0.26 0.886-1.198 1.207-2.036 1.19M12.065 13.038c-0.214 1.672-0.384 3.349-0.598 5.022 0.412 0.151 0.826 0.295 1.243 0.432 0.811-0.756 2.126-1.079 3.113-0.478 1.166 0.774 1.085 2.748-0.104 3.464-1.195 0.744-2.812 0.406-3.826-0.502-0.25 0.342-0.512 0.674-0.763 1.015 1.412 1.231 3.66 1.49 5.29 0.546 1.638-0.929 2.12-3.305 1.016-4.819-0.997-1.456-3.174-1.616-4.58-0.684 0.102-0.925 0.264-1.843 0.338-2.771 1.393 0 2.786-0.001 4.18 0 0-0.408-0.001-0.817-0.004-1.225-1.769 0-3.538 0.002-5.305-0.001z"></path>
<path fill="#030303" d="M7.183 2.425c0.493 0.002 0.99-0.016 1.481 0.058 0.115 0.346 0.239 0.803-0.164 1.014-0.434 0.076-0.878 0.026-1.316 0.038 0.001-0.37 0.001-0.739 0-1.11z"></path>
<path fill="#030303" d="M19.115 2.416c0.478 0.041 1.084-0.113 1.418 0.331 0.421 0.553 0.427 1.412 0.047 1.987-0.32 0.493-0.96 0.382-1.462 0.418-0.001-0.912 0.004-1.824-0.004-2.736z"></path>
<path fill="#fefefe" d="M2.894 1.825c0.799-0.516 2.024-0.226 2.357 0.714-0.23 0.079-0.462 0.158-0.692 0.235-0.34-0.448-0.896-0.492-1.381-0.266 0.031 0.841 1.072 0.722 1.586 1.127 0.817 0.406 0.811 1.692 0.032 2.135-0.924 0.59-2.216 0.121-2.621-0.88 0.245-0.106 0.492-0.206 0.737-0.311 0.25 0.398 0.661 0.757 1.169 0.634 0.456 0.018 0.644-0.68 0.245-0.895-0.515-0.316-1.165-0.373-1.63-0.781-0.494-0.464-0.389-1.372 0.198-1.711z"></path>
<path fill="#fefefe" d="M15.056 6.528c0.277 0 0.556 0 0.833 0.001-0.001 1.439 0.001 2.879-0.001 4.318-0.277 0.001-0.553 0.001-0.829 0.001-0.005-1.44-0.001-2.88-0.002-4.32z"></path>
<path fill="#fff" d="M6.386 1.613c0.814 0.048 1.657-0.12 2.446 0.126 0.874 0.319 1.066 1.59 0.396 2.204-0.551 0.51-1.358 0.397-2.046 0.403 0.002 0.533 0.001 1.064 0.002 1.597-0.266 0-0.532 0-0.798 0 0-1.444 0-2.887 0-4.331M7.183 2.425c0.001 0.371 0.001 0.74 0 1.11 0.438-0.012 0.882 0.037 1.316-0.038 0.403-0.211 0.28-0.668 0.164-1.014-0.491-0.073-0.988-0.055-1.481-0.058z"></path>
<path fill="#fff" d="M10.465 1.619c0.94 0.001 1.88-0.001 2.821 0.001 0 0.27-0.001 0.539-0.004 0.809-0.674-0.001-1.349 0.007-2.024-0.008 0.001 0.298 0.001 0.594-0.001 0.89 0.418-0.005 0.834-0.004 1.252 0 0.001 0.269 0.001 0.538 0.001 0.808-0.418 0-0.835 0.001-1.253-0.006 0.002 0.343 0.002 0.688 0.002 1.031 0.714-0.019 1.429-0.008 2.143-0.008 0.005 0.269 0.007 0.539 0.010 0.808-0.983 0.001-1.966 0-2.948 0.001 0-1.441-0.001-2.884 0.001-4.325z"></path>
<path fill="#fff" d="M18.286 1.62c0.798 0.032 1.657-0.128 2.398 0.248 1.397 0.764 1.355 3.15-0.080 3.852-0.73 0.32-1.544 0.204-2.317 0.222-0.001-1.441-0.002-2.882 0-4.322M19.115 2.416c0.007 0.912 0.002 1.824 0.004 2.736 0.502-0.036 1.141 0.076 1.462-0.418 0.38-0.575 0.374-1.434-0.047-1.987-0.335-0.444-0.941-0.29-1.418-0.331z"></path>
<path fill="#fff" d="M14.356 1.622c0.953-0.006 1.906-0.004 2.857-0.001 0.001 0.269 0 0.536-0.002 0.805-0.673 0-1.346 0.017-2.018-0.016 0 0.301 0 0.602-0.004 0.904 0.41-0.008 0.821-0.007 1.232-0.007 0 0.271 0 0.541-0.001 0.812-0.41 0-0.821 0-1.231-0.012 0.004 0.347 0.004 0.695 0.004 1.042 0.715-0.030 1.43-0.013 2.146-0.016 0.002 0.27 0.004 0.539 0.005 0.809-0.997 0.001-1.993 0.002-2.99 0 0.001-1.44-0.004-2.88 0.004-4.32z"></path>
<path fill="#fff" d="M4.223 6.533c0.265-0.001 0.53-0.001 0.796 0-0.001 1.169 0.002 2.338-0.002 3.508 0.679-0.006 1.357-0.002 2.036-0.005 0 0.271 0 0.542 0 0.814-0.942-0.002-1.884-0.001-2.826-0.001-0.006-1.439-0.001-2.878-0.004-4.315z"></path>
<path fill="#fff" d="M7.884 6.532c0.277-0.004 0.554-0.005 0.832-0.006-0.004 1.441 0.001 2.882-0.002 4.324-0.276-0.001-0.552-0.002-0.827-0.005-0.005-1.438-0.001-2.875-0.002-4.313z"></path>
<path fill="#fff" d="M9.924 6.533c0.27-0.004 0.539-0.006 0.808-0.008 0.395 0.896 0.796 1.792 1.172 2.695 0.368-0.905 0.784-1.79 1.166-2.689 0.265-0.002 0.53-0.002 0.796-0.004-0.001 1.44 0.002 2.881-0.001 4.321-0.277 0-0.554-0.001-0.832-0.001 0-0.845-0.011-1.691 0.013-2.536-0.346 0.905-0.754 1.783-1.163 2.66-0.364-0.896-0.802-1.76-1.136-2.668 0.020 0.847 0.011 1.696 0.010 2.544-0.277 0-0.554-0.001-0.83-0.004-0.005-1.438-0.001-2.874-0.002-4.312z"></path>
<path fill="#fff" d="M16.84 6.527c1.062 0.001 2.124 0.001 3.186 0 0 0.259 0 0.517 0 0.776-0.402-0.001-0.804 0-1.205-0.001-0.001 1.182 0.002 2.364-0.002 3.546-0.263 0-0.527 0-0.79 0-0.005-1.182-0.002-2.365-0.002-3.547-0.396 0.002-0.791 0.001-1.187 0.004 0-0.259 0-0.518 0-0.778z"></path>
<path fill="#fff" d="M5.542 14.208c0.839 0.017 1.776-0.305 2.036-1.19 0.307 0 0.614-0.001 0.92-0.002 0.005 3.294 0 6.588 0.002 9.882-0.43-0.001-0.859-0.001-1.289 0 0.004-2.599 0-5.198 0.002-7.798-0.553 0-1.106 0-1.66 0-0.004-0.298-0.006-0.595-0.013-0.892z"></path>
<path fill="#fff" d="M12.065 13.038c1.768 0.004 3.536 0.001 5.305 0.001 0.002 0.408 0.004 0.817 0.004 1.225-1.393-0.001-2.786 0-4.18 0-0.074 0.928-0.236 1.846-0.338 2.771 1.406-0.932 3.583-0.772 4.58 0.684 1.104 1.514 0.622 3.89-1.016 4.819-1.63 0.944-3.877 0.685-5.29-0.546 0.251-0.341 0.514-0.673 0.763-1.015 1.014 0.907 2.63 1.246 3.826 0.502 1.189-0.716 1.271-2.69 0.104-3.464-0.986-0.601-2.302-0.278-3.113 0.478-0.418-0.137-0.832-0.281-1.243-0.432 0.214-1.673 0.384-3.35 0.598-5.022z"></path>
</svg>
