<svg xmlns="http://www.w3.org/2000/svg" width="24" height="24">
    <path fill="#fff" d="M11.099 0h1.825c1.771.158 3.518.669 5.056 1.569a12.068 12.068 0 0 1 5.378 6.477c.349.984.544 2.017.642 3.054v1.822c-.159 1.771-.669 3.519-1.57 5.058-1.537 2.7-4.162 4.757-7.155 5.592-.764.224-1.553.34-2.343.428h-1.855c-1.726-.153-3.425-.647-4.937-1.499-2.632-1.467-4.68-3.953-5.593-6.829-.292-.887-.45-1.811-.547-2.737v-1.86c.098-.967.27-1.93.581-2.853a12.073 12.073 0 0 1 5.061-6.426C7.277.76 9.173.162 11.099.001zm.267.596c-2.156.11-4.272.862-6.022 2.123A11.444 11.444 0 0 0 .762 9.942c-.593 3.166.237 6.565 2.239 9.09a11.444 11.444 0 0 0 7.402 4.281c3.22.471 6.618-.526 9.065-2.672 2.294-1.966 3.75-4.876 3.929-7.894a11.368 11.368 0 0 0-.999-5.474 11.46 11.46 0 0 0-6.131-5.87 11.38 11.38 0 0 0-4.902-.807z"/>
    <path fill="#fff" d="M11.062 1.22c2.433-.221 4.934.42 6.959 1.787-.843.849-1.693 1.692-2.536 2.54-.045.04-.084.093-.146.105-1.248.298-2.358 1.312-2.585 2.605-.465.51-.973.988-1.463 1.477.146-1.157-.25-2.377-1.121-3.168-.92-.912-2.345-1.206-3.577-.862-1.522.454-2.631 1.994-2.572 3.584.625.005 1.251.007 1.875-.001.04-.377.124-.762.348-1.075.431-.643 1.296-.906 2.024-.677 1.113.357 1.53 1.904.807 2.805-1.654 2.094-3.331 4.17-4.994 6.258-.096.108-.052.26-.062.39-.309.362-.678.687-1.012 1.033-1.656-2.445-2.229-5.583-1.552-8.457.65-2.887 2.557-5.456 5.121-6.928a10.752 10.752 0 0 1 4.485-1.416zM16.36 5.52c.72-.717 1.436-1.44 2.159-2.155.077.059.156.117.234.174-.659.679-1.333 1.343-2.004 2.01l-.388-.029zM17.456 5.693c.592-.582 1.173-1.175 1.764-1.758.073.067.144.135.216.203-.563.562-1.121 1.128-1.689 1.685-.097-.044-.194-.088-.291-.13zM18.314 6.111c.516-.515 1.03-1.032 1.547-1.546.069.071.136.143.202.218-.498.503-1 1.003-1.501 1.503l-.247-.175zM20.45 5.247c.066.075.127.154.186.235-.471.477-.946.949-1.421 1.423l-.198-.22c.475-.481.959-.956 1.433-1.438zM19.543 7.431c.48-.487.966-.968 1.449-1.451 1.655 2.445 2.228 5.583 1.551 8.456A10.818 10.818 0 0 1 5.98 20.992c.86-.857 1.71-1.725 2.581-2.572.915.023 1.832.008 2.749.008.006-.625.006-1.251 0-1.876-.294-.008-.589 0-.883-.006.74-.744 1.482-1.486 2.226-2.226-.018.774.014 1.581.37 2.287.377.778 1.1 1.345 1.89 1.665 1.398.558 3.096.177 4.124-.922.624-.645.883-1.562.885-2.443.002-1.89 0-3.781.001-5.672.001-.618-.102-1.246-.381-1.803zM15.661 7.502c.16-.045.326-.061.49-.084a111.09 111.09 0 0 1-1.573 1.573c.009-.155.024-.31.066-.46.316-.361.672-.694 1.017-1.029zM14.519 9.917c.794-.815 1.602-1.617 2.413-2.416l.268.147c-.882.886-1.769 1.767-2.651 2.654a9.973 9.973 0 0 0-.03-.385zM14.522 11.188c1.036-1.06 2.094-2.1 3.142-3.15l.16.256c-1.089 1.096-2.186 2.184-3.276 3.28-.008-.128-.016-.257-.027-.385z"/>
    <path fill="#fff" d="M14.526 12.455a349.187 349.187 0 0 1 3.496-3.496c.042 1.841.006 3.684.019 5.526.012.498-.029 1.03-.32 1.454-.622.935-2.205.948-2.846.029-.227-.32-.318-.717-.332-1.104-.018-.802.015-1.605-.017-2.408zM10.799 11.111c.585-.652 1.236-1.245 1.845-1.875.008.129.016.257.02.386-.924.958-1.878 1.892-2.822 2.832.235-.497.705-.849.957-1.343zM6.615 16.537c2.011-2.009 4.021-4.019 6.03-6.03.008.127.016.255.021.382-1.82 1.873-3.699 3.705-5.54 5.564-.041.036-.074.087-.127.106-.128-.004-.255-.014-.383-.022zM12.647 11.777c.006.136.009.273.012.409a2245.445 2245.445 0 0 1-4.365 4.365c-.136-.003-.273-.006-.409-.013l4.762-4.762zM12.647 13.052c.006.134.009.269.014.403a822.358 822.358 0 0 1-3.097 3.098l-.401-.012c1.157-1.168 2.324-2.325 3.485-3.489zM3.366 18.519c.211-.221.432-.431.645-.65.007.128.014.257.025.385a5.18 5.18 0 0 1-.498.496 7.721 7.721 0 0 0-.172-.232zM3.937 19.218c.263-.265.525-.531.792-.79l.411.009c-.334.332-.666.667-1 .998a6.942 6.942 0 0 1-.203-.217zM4.566 19.861c.487-.483.962-.978 1.459-1.45.128.013.256.022.385.03-.545.538-1.081 1.085-1.627 1.622a8.352 8.352 0 0 1-.217-.202zM5.25 20.462a96.407 96.407 0 0 1 2.047-2.048c.128.011.256.019.384.027-.735.729-1.462 1.466-2.199 2.194a5.562 5.562 0 0 0-.232-.172z"/>
    <path d="M11.366.596c1.666-.097 3.354.18 4.902.807a11.464 11.464 0 0 1 6.131 5.87 11.366 11.366 0 0 1 .999 5.474c-.179 3.017-1.635 5.928-3.929 7.894-2.447 2.146-5.845 3.143-9.065 2.672a11.437 11.437 0 0 1-7.402-4.281C1 16.507.17 13.108.763 9.942a11.449 11.449 0 0 1 4.582-7.223A11.364 11.364 0 0 1 11.367.596zm-.304.624c-1.575.134-3.12.62-4.485 1.416-2.565 1.472-4.471 4.042-5.121 6.928-.677 2.873-.103 6.012 1.553 8.457.334-.346.702-.671 1.012-1.033.086-.064.165-.137.239-.214 2.341-2.349 4.696-4.687 7.032-7.04.49-.489.997-.967 1.463-1.477.742-.694 1.442-1.435 2.168-2.148.138-.153.316-.274.417-.457.062-.012.102-.065.146-.105.844-.848 1.693-1.691 2.536-2.54a10.808 10.808 0 0 0-6.959-1.787zm5.298 4.3c-1.238 1.239-2.476 2.478-3.716 3.715-.609.63-1.261 1.224-1.845 1.875-.205.14-.356.343-.539.51-2.084 2.083-4.165 4.168-6.25 6.248-.212.219-.434.429-.645.65.059.076.116.153.172.232.178-.152.342-.322.498-.496a962.168 962.168 0 0 0 5.806-5.8c.944-.94 1.898-1.874 2.822-2.832 1.376-1.342 2.725-2.713 4.084-4.073.671-.666 1.346-1.331 2.004-2.01a12.875 12.875 0 0 1-.234-.174c-.723.715-1.438 1.438-2.159 2.155zm1.096.173c-.593.607-1.208 1.195-1.794 1.808-.345.335-.701.668-1.017 1.029-.688.635-1.328 1.322-2 1.976a8570.347 8570.347 0 0 1-6.03 6.03c-.627.632-1.261 1.257-1.885 1.891-.268.26-.53.525-.792.79.066.074.134.146.203.217.334-.332.666-.667 1-.998.615-.63 1.26-1.233 1.858-1.878.053-.019.086-.07.127-.106 1.841-1.859 3.72-3.691 5.54-5.564.657-.61 1.282-1.265 1.913-1.898a111.09 111.09 0 0 0 1.573-1.573 126.16 126.16 0 0 0 1.595-1.594c.568-.556 1.126-1.123 1.689-1.685a10.36 10.36 0 0 0-.216-.203c-.591.583-1.172 1.176-1.764 1.758zm.858.418c-.46.465-.93.919-1.382 1.39-.81.799-1.619 1.601-2.413 2.416-.635.608-1.246 1.242-1.872 1.86l-4.762 4.762c-.619.625-1.252 1.237-1.861 1.872-.497.472-.972.967-1.459 1.45.071.068.143.136.217.202.546-.537 1.082-1.084 1.627-1.622.626-.632 1.259-1.257 1.885-1.889 1.457-1.454 2.912-2.908 4.365-4.365.632-.625 1.257-1.259 1.889-1.884.882-.887 1.769-1.768 2.651-2.654.455-.453.909-.907 1.362-1.362.502-.5 1.003-1 1.501-1.503a5.21 5.21 0 0 0-.202-.218c-.517.514-1.032 1.031-1.547 1.546zm2.136-.864c-.475.482-.958.956-1.433 1.438-.453.449-.904.9-1.352 1.353-1.048 1.05-2.106 2.09-3.142 3.15-.636.61-1.248 1.244-1.875 1.864-1.161 1.164-2.328 2.322-3.485 3.489h-.009c-.613.63-1.251 1.237-1.857 1.873a101.35 101.35 0 0 0-2.047 2.048c.079.056.156.113.232.172.736-.728 1.464-1.465 2.199-2.194.626-.631 1.259-1.254 1.882-1.887a822.611 822.611 0 0 0 3.098-3.098c.634-.622 1.256-1.257 1.888-1.882 1.089-1.096 2.186-2.184 3.276-3.28.465-.461.928-.924 1.39-1.389.475-.473.95-.946 1.421-1.423a3.252 3.252 0 0 0-.186-.235zm-.907 2.184c-.508.507-1.027 1.012-1.522 1.528a371.715 371.715 0 0 0-3.496 3.496c-.633.612-1.249 1.242-1.872 1.865-.744.74-1.486 1.482-2.226 2.226-.623.624-1.254 1.239-1.865 1.874-.87.847-1.721 1.715-2.581 2.572a10.819 10.819 0 0 0 11.442.373c2.564-1.474 4.471-4.043 5.121-6.929.677-2.873.104-6.011-1.551-8.456-.484.483-.969.965-1.449 1.451z"/>
    <path fill="gray" d="M12.645 9.235l3.716-3.715c.129.01.259.018.388.029-1.359 1.36-2.708 2.731-4.084 4.073-.003-.129-.012-.257-.02-.386zM6.592 5.703c1.231-.344 2.657-.049 3.577.862.871.791 1.267 2.01 1.121 3.168-2.336 2.353-4.691 4.691-7.032 7.04-.074.077-.153.15-.239.214.011-.13-.034-.283.062-.39 1.662-2.087 3.339-4.164 4.994-6.258.723-.902.306-2.449-.807-2.805-.728-.228-1.593.035-2.024.677-.225.313-.308.698-.348 1.075-.625.008-1.25.006-1.875.001-.059-1.59 1.05-3.13 2.572-3.584zM12.753 8.257c.227-1.292 1.337-2.307 2.585-2.605-.101.183-.279.304-.417.457-.726.712-1.425 1.454-2.168 2.148zM15.661 7.502c.586-.614 1.201-1.201 1.794-1.808l.291.13c-.527.535-1.058 1.069-1.595 1.594-.164.022-.33.039-.49.084zM16.932 7.501c.452-.472.923-.926 1.382-1.39l.247.175c-.453.455-.907.909-1.362 1.362l-.268-.147zM17.664 8.038c.448-.453.9-.904 1.352-1.353l.198.22c-.462.465-.924.928-1.39 1.389l-.16-.256zM18.022 8.959c.495-.515 1.013-1.02 1.522-1.528.278.557.382 1.185.381 1.803 0 1.891.001 3.781-.001 5.672-.003.881-.262 1.797-.885 2.443-1.028 1.099-2.726 1.48-4.124.922-.79-.32-1.513-.887-1.89-1.665-.356-.705-.388-1.512-.37-2.287.623-.622 1.239-1.253 1.872-1.865.031.802-.001 1.605.017 2.408.014.387.105.784.332 1.104.641.919 2.225.906 2.846-.029.291-.423.331-.955.32-1.454-.013-1.842.023-3.684-.019-5.526zM12.645 10.507c.671-.653 1.312-1.341 2-1.976-.041.15-.057.305-.066.46-.631.632-1.257 1.287-1.913 1.897-.004-.127-.013-.255-.021-.382zM12.647 11.777c.626-.618 1.237-1.252 1.872-1.86.012.128.021.256.03.385-.632.626-1.257 1.259-1.889 1.884a27.917 27.917 0 0 0-.012-.409zM10.26 11.62c.183-.166.333-.37.539-.51-.252.494-.722.846-.957 1.343a1024.214 1024.214 0 0 1-5.806 5.8 8.288 8.288 0 0 1-.025-.385c2.085-2.081 4.167-4.166 6.25-6.248zM12.647 13.052c.626-.62 1.239-1.254 1.875-1.864.01.128.018.257.027.385-.631.625-1.254 1.259-1.888 1.882a26.655 26.655 0 0 0-.014-.403zM4.729 18.428c.624-.634 1.259-1.259 1.885-1.891.128.008.255.017.383.022-.599.645-1.243 1.249-1.858 1.878a28.174 28.174 0 0 0-.411-.009zM6.025 18.411c.609-.635 1.242-1.246 1.861-1.872.136.007.272.01.409.013-.626.632-1.259 1.257-1.885 1.889a9.973 9.973 0 0 1-.385-.03zM9.154 16.541h.009l.401.012c-.624.633-1.257 1.256-1.883 1.887-.128-.008-.256-.015-.384-.027.607-.636 1.244-1.243 1.857-1.873zM8.562 18.42c.611-.635 1.243-1.25 1.865-1.874.294.007.589-.001.883.006.007.625.006 1.251 0 1.876-.916 0-1.833.015-2.749-.008z"/>
</svg>
