<!-- Generated by IcoMoon.io -->
<svg version="1.1" xmlns="http://www.w3.org/2000/svg" width="24" height="24" viewBox="0 0 24 24">
<title>regulatory--dual-path-bicycles-and-pedestrians--g2</title>
<path fill="#c50000" d="M11.094 0h1.778c1.054 0.168 2.119 0.311 3.125 0.683 3.352 1.156 6.107 3.883 7.297 7.222 0.366 0.955 0.524 1.967 0.706 2.968v2.228c-0.415 4.004-2.858 7.765-6.484 9.575-1.362 0.727-2.872 1.098-4.39 1.325h-2.231c-1.373-0.215-2.75-0.514-4.004-1.135-3.884-1.759-6.523-5.731-6.892-9.95v-1.783c0.204-1.506 0.526-3.016 1.217-4.381 1.789-3.809 5.71-6.385 9.877-6.75M11.086 2.338c-2.567 0.236-5.012 1.548-6.625 3.559-2.54 3.049-2.875 7.692-0.8 11.074 1.793 3.085 5.389 4.993 8.95 4.733 3.673-0.179 7.086-2.665 8.42-6.085 1.133-2.796 0.863-6.116-0.734-8.68-1.866-3.125-5.592-4.979-9.21-4.601z"></path>
<path fill="#fff" d="M11.086 2.338c3.618-0.378 7.344 1.476 9.21 4.601 1.597 2.563 1.867 5.884 0.734 8.68-1.334 3.42-4.747 5.906-8.42 6.085-3.56 0.26-7.157-1.648-8.95-4.733-2.075-3.382-1.74-8.024 0.8-11.074 1.613-2.011 4.058-3.323 6.625-3.559M6.643 5.808c-0.47 0.208-0.527 0.93-0.1 1.212 0.427 0.338 1.132 0.001 1.129-0.546 0.046-0.521-0.572-0.918-1.030-0.666M17.429 6.038c-0.631 0.199-0.803 1.122-0.281 1.531 0.475 0.456 1.357 0.157 1.468-0.49 0.179-0.66-0.554-1.3-1.187-1.042M11.725 6.058c-0.001 3.706-0.001 7.412 0 11.118 0.311 0 0.62 0.001 0.93 0 0.002-3.707 0.001-7.412 0-11.119-0.31 0-0.619-0.001-0.93 0.001M4.987 8.576c-0.086 0.62 0.032 1.255-0.018 1.882 0.307-0.002 0.613 0.004 0.92 0.002-0.002 0.156-0.001 0.313 0.001 0.47-0.218 0.019-0.55-0.082-0.654 0.186-0.090 1.070 0.040 2.15-0.030 3.221 0.268 0.001 0.535 0.002 0.803 0.002-0.001-0.092-0.004-0.278-0.004-0.371-0.052 0-0.155 0.001-0.206 0.001 0.068-0.059 0.137-0.119 0.204-0.178 0.019-0.515 0.017-1.030 0.011-1.544 0.223 0.107 0.448 0.211 0.673 0.314-0.204 0.215-0.403 0.437-0.608 0.652-0.017 0.772-0.040 1.544 0.008 2.315 0.696-0.551-0.122-1.873 0.571-2.554 0.006 1.556-0.010 3.113 0.006 4.668-0.113 0.452 0.757 0.456 0.655 0.004 0.018-1.553-0.004-3.107 0.010-4.66 0.898 0.809 0.186 2.142 0.516 3.173-0.029 0.148-0.061 0.293-0.097 0.439 0.277-0.001 0.553 0.005 0.83 0.002-0.020-1.382 0.012-2.766 0.004-4.148-0.154-0.157-0.306-0.317-0.461-0.474-0.005-0.506-0.005-1.013-0.004-1.52 0.311 0.004 0.622-0.004 0.934-0.001-0.029-0.604 0.037-1.207 0.004-1.811-0.169-0.546-0.545-1.045-1.025-1.354-0.514-0.066-1.034-0.016-1.552-0.032-0.781-0.11-1.246 0.695-1.492 1.315M16.726 8.087c-1.205 1.037-1.217 2.74-1.050 4.19 0.136 0.145 0.43 0.144 0.571 0.007 0.214-0.866-0.238-1.906 0.398-2.654 0.083 2.158-0.107 4.31-0.228 6.463-0.074 0.638 1.139 0.704 1.13 0.056 0.071-0.936 0.14-1.872 0.14-2.812 0.158 1.11 0.038 2.234 0.091 3.349 0.004 0.578 1.099 0.574 1.098-0.006 0.023-2.348 0.013-4.697 0.028-7.044 0.364 0.766 0.174 1.646 0.331 2.456 0.166 0.24 0.713 0.148 0.628-0.206-0.109-1.26 0.122-2.867-0.997-3.746-0.674-0.205-1.452-0.143-2.141-0.054z"></path>
<path fill="#fff" d="M5.573 10.202c0.17-0.557-0.145-1.246 0.305-1.697 0.020 0.546 0.011 1.093 0.010 1.639-0.078 0.014-0.235 0.043-0.314 0.058z"></path>
<path fill="#fff" d="M8.129 8.494c0.485 0.444 0.131 1.151 0.34 1.709-0.119-0.022-0.236-0.043-0.354-0.064 0.004-0.548-0.013-1.097 0.014-1.645z"></path>
<path fill="#000" d="M6.643 5.808c0.457-0.252 1.075 0.145 1.030 0.666 0.002 0.547-0.702 0.884-1.129 0.546-0.427-0.282-0.371-1.004 0.1-1.212z"></path>
<path fill="#000" d="M17.429 6.038c0.632-0.258 1.366 0.382 1.187 1.042-0.11 0.647-0.992 0.946-1.468 0.49-0.522-0.409-0.35-1.332 0.281-1.531z"></path>
<path fill="#000" d="M11.725 6.058c0.311-0.002 0.62-0.001 0.93-0.001 0.001 3.707 0.002 7.412 0 11.119-0.31 0.001-0.619 0-0.93 0-0.001-3.706-0.001-7.412 0-11.118z"></path>
<path fill="#000" d="M4.987 8.576c0.246-0.62 0.71-1.426 1.492-1.315 0.517 0.017 1.038-0.034 1.552 0.032 0.48 0.308 0.856 0.808 1.025 1.354 0.034 0.604-0.032 1.207-0.004 1.811-0.312-0.002-0.623 0.005-0.934 0.001-0.001 0.508-0.001 1.014 0.004 1.52 0.155 0.157 0.307 0.317 0.461 0.474 0.008 1.382-0.024 2.766-0.004 4.148-0.277 0.002-0.553-0.004-0.83-0.002 0.036-0.146 0.068-0.292 0.097-0.439-0.33-1.031 0.382-2.364-0.516-3.173-0.013 1.553 0.008 3.107-0.010 4.66 0.102 0.452-0.768 0.449-0.655-0.004-0.016-1.555 0-3.112-0.006-4.668-0.694 0.68 0.125 2.003-0.571 2.554-0.048-0.77-0.025-1.543-0.008-2.315 0.205-0.215 0.404-0.437 0.608-0.652-0.226-0.103-0.45-0.208-0.673-0.314 0.006 0.515 0.008 1.030-0.011 1.544-0.067 0.059-0.136 0.119-0.204 0.178 0.052 0 0.155-0.001 0.206-0.001 0 0.092 0.002 0.278 0.004 0.371-0.268 0-0.535-0.001-0.803-0.002 0.070-1.070-0.060-2.15 0.030-3.221 0.104-0.268 0.436-0.167 0.654-0.186-0.002-0.157-0.004-0.314-0.001-0.47-0.307 0.001-0.613-0.005-0.92-0.002 0.050-0.626-0.068-1.261 0.018-1.882M5.573 10.202c0.079-0.014 0.236-0.043 0.314-0.058 0.001-0.546 0.011-1.093-0.010-1.639-0.45 0.451-0.134 1.14-0.305 1.697M8.129 8.494c-0.028 0.548-0.011 1.097-0.014 1.645 0.118 0.020 0.235 0.042 0.354 0.064-0.209-0.558 0.145-1.265-0.34-1.709z"></path>
<path fill="#000" d="M16.726 8.087c0.689-0.089 1.466-0.151 2.141 0.054 1.12 0.88 0.888 2.486 0.997 3.746 0.085 0.354-0.462 0.446-0.628 0.206-0.157-0.81 0.032-1.691-0.331-2.456-0.014 2.347-0.005 4.696-0.028 7.044 0.001 0.58-1.094 0.584-1.098 0.006-0.053-1.115 0.067-2.239-0.091-3.349 0 0.94-0.070 1.876-0.14 2.812 0.008 0.648-1.205 0.582-1.13-0.056 0.121-2.153 0.311-4.306 0.228-6.463-0.636 0.749-0.185 1.788-0.398 2.654-0.142 0.137-0.436 0.138-0.571-0.007-0.167-1.451-0.155-3.154 1.050-4.19z"></path>
</svg>
