<?xml version="1.0" encoding="utf-8"?>
<!-- Generated by IcoMoon.io -->
<!DOCTYPE svg PUBLIC "-//W3C//DTD SVG 1.1//EN" "http://www.w3.org/Graphics/SVG/1.1/DTD/svg11.dtd">
<svg version="1.1" xmlns="http://www.w3.org/2000/svg" xmlns:xlink="http://www.w3.org/1999/xlink" width="24" height="24" viewBox="0 0 24 24">
<path fill="#000" d="M11.183 0h1.889c-0.131 0.032-0.234 0.096-0.313 0.19-0.644-0.079-1.298-0.024-1.944 0.013 0.067-0.139 0.191-0.206 0.368-0.203z"></path>
<path fill="#000" d="M2.042 5.299c1.932-2.89 5.174-4.873 8.638-5.219l0.132 0.122c-1.691 0.188-3.352 0.712-4.816 1.584-1.57 0.901-2.878 2.207-3.907 3.684-0.012-0.043-0.035-0.128-0.047-0.172z"></path>
<path fill="#000" d="M13.222 0.077c2.723 0.232 5.335 1.502 7.267 3.43 1.888 1.876 3.127 4.397 3.433 7.043l-0.125 0.144c-0.293-2.538-1.404-4.981-3.175-6.828-1.95-2.099-4.694-3.395-7.535-3.68l0.134-0.108z"></path>
<path fill="#000" d="M1.673 5.886c0.1-0.136 0.149-0.418 0.379-0.344-1.807 2.797-2.381 6.359-1.487 9.571 0.613 2.286 1.939 4.369 3.739 5.902 1.782 1.548 4.046 2.509 6.386 2.782l-0.13 0.113c-1.8-0.17-3.542-0.844-5.065-1.812-2.456-1.585-4.308-4.091-5.070-6.918-0.234-0.775-0.308-1.585-0.426-2.381v-1.595c0.181-1.862 0.7-3.708 1.673-5.317z"></path>
<path fill="#000" d="M6.978 6.752c3.274-0.058 6.554-0.008 9.832-0.025 0.434-0.053 0.894 0.272 0.911 0.726 0.008 1.111 0.002 2.225 0.002 3.337 0.036 0.188-0.169 0.26-0.319 0.228-3.636-0.005-7.273 0.006-10.909-0.006-0.029-0.024-0.085-0.072-0.114-0.095-0.030-1.122-0.005-2.246-0.013-3.37-0.029-0.37 0.248-0.725 0.611-0.796z"></path>
<path fill="#000" d="M23.801 10.752c0.050-0.013 0.15-0.042 0.199-0.056v2.224c-0.173 1.59-0.57 3.17-1.325 4.589-1.409 2.776-3.952 4.909-6.887 5.915l-0.17-0.11c2.942-0.955 5.484-3.082 6.904-5.833 1.079-2.052 1.514-4.423 1.279-6.727z"></path>
<path fill="#000" d="M6.524 11.212c3.628-0.016 7.256-0.001 10.884-0.007 0.13-0.023 0.32 0.032 0.313 0.196 0.007 1.045-0.002 2.089 0.005 3.134 0.019 0.324-0.371 0.136-0.521 0.251-0.014 0.792 0.044 1.595-0.030 2.378-0.385 0.179-0.88 0.035-1.306 0.073-0.029-0.025-0.085-0.076-0.114-0.102-0.030-0.52-0.013-1.044-0.007-1.566-0.106-0.054-0.223-0.070-0.354-0.046-0.005 0.512-0.004 1.025 0 1.537-0.024 0.040-0.071 0.119-0.094 0.16-0.379 0.054-0.77 0.006-1.154 0.024-0.184 0.037-0.259-0.185-0.222-0.325-0.014-0.466 0.032-0.938-0.024-1.4-1.246 0.036-2.509-0.038-3.745 0.037 0.016 0.52 0.018 1.042 0 1.561-0.026 0.029-0.078 0.088-0.104 0.116-0.432-0.026-0.925 0.102-1.32-0.065-0.072-0.539-0.016-1.096-0.030-1.642-0.124-0.016-0.245-0.007-0.364 0.024 0.020 0.518 0.018 1.042 0.002 1.561-0.025 0.030-0.077 0.089-0.102 0.119-0.412 0.020-0.827 0.018-1.24 0.001-0.025-0.026-0.077-0.079-0.103-0.107-0.029-0.792-0.001-1.588-0.013-2.381-0.178-0.013-0.521 0.083-0.517-0.203 0.023-1.081-0.034-2.168 0.028-3.245 0.034-0.022 0.098-0.064 0.132-0.085M7.652 13.284c-0.001 0.344-0.001 0.688-0.001 1.032 0.582 0.002 1.164 0.001 1.746 0.001 0.001-0.346 0.001-0.69 0-1.034-0.582 0-1.164-0.001-1.745 0.001M8.354 14.742c-0.006 0.113-0.010 0.226-0.011 0.34 0.122 0.018 0.244 0.016 0.364-0.008-0.004-0.11-0.008-0.221-0.014-0.331-0.113 0.001-0.226 0.001-0.338 0M15.414 14.705c-0.004 0.116-0.005 0.233-0.001 0.349 0.116 0.002 0.233 0 0.35-0.010-0.002-0.11-0.002-0.22 0-0.33-0.116-0.007-0.233-0.011-0.349-0.010M10.169 14.746c0.008 0.086 0.024 0.258 0.032 0.344 1.236 0.001 2.472-0.004 3.707 0.002 0.005-0.086 0.012-0.259 0.017-0.346-1.252-0.004-2.504-0.002-3.756-0.001z"></path>
<path fill="#000" d="M13.312 23.798c0.707-0.108 1.417-0.218 2.101-0.436 0.061 0.010 0.185 0.028 0.246 0.037-0.679 0.319-1.463 0.426-2.207 0.514l-0.14-0.115z"></path>
<path fill="#000" d="M10.744 23.801c0.833 0.084 1.674 0.084 2.508 0.002 0.012 0.049 0.037 0.148 0.050 0.197h-2.591c0.008-0.049 0.024-0.149 0.032-0.199z"></path>
<path fill="#fff" d="M5.996 1.787c1.464-0.872 3.125-1.396 4.816-1.584 0.001 0 0.001 0 0.002 0 0.646-0.037 1.3-0.092 1.944-0.013 0.109-0.007 0.218-0.010 0.329-0.005 2.84 0.286 5.585 1.582 7.535 3.68 1.771 1.847 2.882 4.29 3.175 6.828 0.001 0.014 0.004 0.044 0.004 0.059 0.235 2.304-0.2 4.675-1.279 6.727-1.42 2.752-3.961 4.878-6.904 5.833-0.084-0.020-0.152-0.004-0.205 0.050-0.684 0.217-1.394 0.328-2.101 0.436-0.014 0.001-0.046 0.004-0.060 0.005-0.834 0.082-1.675 0.082-2.508-0.002-0.013-0.001-0.040-0.004-0.053-0.005-2.34-0.272-4.604-1.234-6.386-2.782-1.8-1.532-3.126-3.616-3.739-5.902-0.894-3.212-0.32-6.774 1.487-9.571 0.010-0.017 0.028-0.053 0.037-0.071 1.030-1.477 2.338-2.783 3.907-3.684M10.154 0.686c-3.292 0.516-6.294 2.562-7.991 5.428-1.508 2.492-1.992 5.573-1.345 8.411 0.568 2.579 2.076 4.932 4.165 6.54 2.965 2.339 7.133 3.056 10.7 1.796 3.689-1.21 6.624-4.438 7.484-8.224 0.606-2.557 0.304-5.324-0.864-7.681-1.044-2.142-2.777-3.938-4.879-5.060-2.201-1.194-4.802-1.603-7.271-1.21z"></path>
<path fill="#fff" d="M10.746 3.094c2.272-0.317 4.663 0.251 6.516 1.609 1.888 1.344 3.21 3.45 3.604 5.734 0.389 2.162-0.049 4.465-1.225 6.324-1.063 1.728-2.74 3.059-4.649 3.734-2.171 0.768-4.639 0.664-6.728-0.308-1.955-0.889-3.565-2.503-4.45-4.46-1.015-2.208-1.073-4.835-0.152-7.085 1.151-2.939 3.958-5.134 7.085-5.548M6.978 6.752c-0.362 0.071-0.64 0.426-0.611 0.796 0.008 1.123-0.017 2.248 0.013 3.37 0.029 0.023 0.085 0.071 0.114 0.095 3.636 0.012 7.273 0.001 10.909 0.006 0.15 0.032 0.355-0.040 0.319-0.228 0-1.112 0.006-2.226-0.002-3.337-0.017-0.454-0.476-0.779-0.911-0.726-3.277 0.017-6.558-0.032-9.832 0.025M6.524 11.212c-0.034 0.022-0.098 0.064-0.132 0.085-0.061 1.076-0.005 2.164-0.028 3.245-0.004 0.286 0.34 0.19 0.517 0.203 0.012 0.793-0.016 1.589 0.013 2.381 0.026 0.028 0.078 0.080 0.103 0.107 0.413 0.017 0.828 0.019 1.24-0.001 0.025-0.030 0.077-0.089 0.102-0.119 0.016-0.52 0.018-1.043-0.002-1.561 0.119-0.031 0.24-0.040 0.364-0.024 0.014 0.546-0.042 1.103 0.030 1.642 0.395 0.167 0.888 0.038 1.32 0.065 0.026-0.029 0.078-0.088 0.104-0.116 0.018-0.52 0.016-1.042 0-1.561 1.236-0.076 2.5-0.001 3.745-0.037 0.056 0.462 0.010 0.935 0.024 1.4-0.037 0.14 0.038 0.362 0.222 0.325 0.384-0.018 0.775 0.030 1.154-0.024 0.023-0.041 0.070-0.12 0.094-0.16-0.004-0.512-0.005-1.025 0-1.537 0.131-0.024 0.248-0.008 0.354 0.046-0.006 0.522-0.023 1.046 0.007 1.566 0.029 0.026 0.085 0.077 0.114 0.102 0.426-0.038 0.92 0.106 1.306-0.073 0.074-0.784 0.016-1.586 0.030-2.378 0.15-0.115 0.54 0.073 0.521-0.251-0.007-1.045 0.002-2.089-0.005-3.134 0.007-0.163-0.184-0.218-0.313-0.196-3.628 0.006-7.256-0.008-10.884 0.007z"></path>
<path fill="#fff" d="M7.652 13.284c0.581-0.002 1.163-0.001 1.745-0.001 0.001 0.344 0.001 0.689 0 1.034-0.582 0-1.164 0.001-1.746-0.001 0-0.344 0-0.688 0.001-1.032z"></path>
<path fill="#fff" d="M8.354 14.742c0.113 0.001 0.226 0.001 0.338 0 0.006 0.11 0.011 0.221 0.014 0.331-0.12 0.024-0.241 0.026-0.364 0.008 0.001-0.114 0.005-0.227 0.011-0.34z"></path>
<path fill="#fff" d="M15.414 14.705c0.116-0.001 0.233 0.002 0.349 0.010-0.002 0.11-0.002 0.22 0 0.33-0.118 0.010-0.234 0.012-0.35 0.010-0.004-0.116-0.002-0.233 0.001-0.349z"></path>
<path fill="#fff" d="M10.169 14.746c1.252-0.001 2.504-0.002 3.756 0.001-0.005 0.086-0.012 0.259-0.017 0.346-1.235-0.006-2.471-0.001-3.707-0.002-0.008-0.086-0.024-0.258-0.032-0.344z"></path>
<path fill="#f00" d="M10.154 0.686c2.468-0.394 5.070 0.016 7.271 1.21 2.102 1.122 3.835 2.918 4.879 5.060 1.168 2.357 1.47 5.124 0.864 7.681-0.86 3.786-3.796 7.014-7.484 8.224-3.568 1.26-7.735 0.542-10.7-1.796-2.089-1.608-3.598-3.961-4.165-6.54-0.647-2.838-0.163-5.918 1.345-8.411 1.697-2.866 4.699-4.912 7.991-5.428M10.746 3.094c-3.127 0.414-5.934 2.609-7.085 5.548-0.92 2.25-0.863 4.877 0.152 7.085 0.884 1.957 2.495 3.571 4.45 4.46 2.089 0.972 4.558 1.076 6.728 0.308 1.909-0.676 3.586-2.006 4.649-3.734 1.176-1.859 1.614-4.162 1.225-6.324-0.394-2.284-1.716-4.39-3.604-5.734-1.853-1.358-4.244-1.926-6.516-1.609z"></path>
</svg>
