<!-- Generated by IcoMoon.io -->
<svg version="1.1" xmlns="http://www.w3.org/2000/svg" width="24" height="24" viewBox="0 0 24 24">
<title>regulatory--snow-chains--g2</title>
<path fill="#d71920" d="M10.736 0.44c3.623-0.35 7.362 1.168 9.703 3.955 1.913 2.207 2.899 5.174 2.719 8.086-0.176 3.472-2.059 6.798-4.936 8.747-3.187 2.239-7.544 2.629-11.093 1.036-2.405-1.064-4.42-2.981-5.596-5.334-1.744-3.424-1.584-7.729 0.427-11.006 1.835-3.083 5.194-5.196 8.774-5.483M10.242 2.689c-2.765 0.433-5.266 2.215-6.604 4.669-1.394 2.508-1.516 5.67-0.314 8.276 1.541 3.521 5.444 5.802 9.27 5.393 3.673-0.284 6.992-2.994 8.018-6.532 1.11-3.506-0.143-7.597-3.036-9.87-2.016-1.66-4.763-2.371-7.334-1.937z"></path>
<path fill="#fff" d="M10.242 2.689c2.572-0.434 5.318 0.277 7.334 1.937 2.893 2.273 4.146 6.364 3.036 9.87-1.026 3.538-4.345 6.247-8.018 6.532-3.826 0.409-7.729-1.872-9.27-5.393-1.201-2.606-1.080-5.768 0.314-8.276 1.338-2.454 3.839-4.236 6.604-4.669M8.297 5.958c0.305 0.002 0.611 0.002 0.916 0.002 0.149-0.199 0.233-0.497 0.503-0.562 0.154 0.175-0.016 0.383-0.060 0.568 0.331-0.006 0.664-0.006 0.996-0.007 0.149-0.198 0.232-0.498 0.502-0.558 0.152 0.174-0.018 0.382-0.061 0.565 0.336-0.007 0.672-0.006 1.008-0.002 0.146-0.205 0.259-0.455 0.493-0.577 0.19 0.161 0.010 0.382-0.030 0.568 0.187 0.008 0.373 0.019 0.56 0.030 0.047 0.443-0.473 0.283-0.748 0.338-0.1 0.288-0.193 0.578-0.281 0.87 0.163 0.019 0.328 0.038 0.492 0.058-0.001 0.071-0.005 0.211-0.007 0.281-0.191 0.016-0.382 0.030-0.574 0.043-0.068 0.349-0.128 0.7-0.182 1.051 0.114 0.008 0.343 0.025 0.457 0.035-0.004 0.079-0.012 0.24-0.017 0.32-0.163 0.011-0.326 0.023-0.49 0.034-0.025 0.342-0.052 0.684-0.076 1.027 0.229 0.048 0.55 0.032 0.542 0.346-0.187 0.026-0.374 0.050-0.563 0.074 0 0.344-0.002 0.69-0.010 1.036 0.15 0.012 0.3 0.025 0.45 0.037 0.031 0.064 0.095 0.191 0.126 0.254-0.193 0.043-0.388 0.077-0.581 0.113 0.006 0.404 0.018 0.809 0.041 1.212 0.263 0.026 0.62-0.019 0.662 0.331-0.21 0.028-0.42 0.050-0.63 0.071 0.038 0.352 0.085 0.702 0.14 1.051 0.248 0.044 0.712-0.071 0.698 0.317-0.204 0.066-0.419 0.078-0.629 0.102 0.062 0.302 0.128 0.605 0.204 0.905 0.287 0.020 0.632-0.010 0.732 0.331-0.205 0.036-0.413 0.064-0.62 0.089 0.108 0.292 0.221 0.582 0.342 0.868 0.226 0.023 0.464 0.006 0.673 0.108 0.055 0.281-0.268 0.268-0.454 0.307 0.169 0.184 0.335 0.37 0.498 0.559-0.443 0.324-0.673-0.316-0.942-0.557-0.337-0.080-0.692-0.024-1.037-0.032 0.173 0.198 0.346 0.396 0.514 0.599-0.456 0.299-0.696-0.331-0.96-0.604-0.33 0.001-0.659 0.001-0.989 0.004 0.172 0.199 0.344 0.397 0.512 0.6-0.458 0.296-0.697-0.335-0.962-0.605-0.304 0.001-0.607 0.002-0.91 0.007 0.384 0.608 0.86 1.33 1.645 1.409 1.082 0.026 2.166 0.006 3.248 0.010 0.793 0.023 1.416-0.598 1.775-1.246 0.676-1.236 0.866-2.666 0.961-4.052 0.115-2.239-0.035-4.55-0.896-6.646-0.42-0.923-0.942-2-1.962-2.359-1.117-0.073-2.243-0.014-3.362-0.031-0.799-0.030-1.295 0.704-1.661 1.309M8.138 6.306c-0.118 0.301-0.229 0.604-0.335 0.908 0.328 0.002 0.656 0.001 0.984 0.001 0.095-0.307 0.194-0.613 0.3-0.916-0.317 0.004-0.632 0.005-0.949 0.006M9.481 6.308c-0.104 0.299-0.203 0.601-0.294 0.905 0.346 0.004 0.691 0.004 1.037 0.002 0.095-0.307 0.194-0.612 0.299-0.914-0.347 0.001-0.694 0.004-1.042 0.007M10.919 6.307c-0.106 0.3-0.205 0.602-0.295 0.907 0.359 0.004 0.718 0.002 1.076-0.010 0.088-0.304 0.184-0.605 0.284-0.905-0.355 0.002-0.71 0.005-1.066 0.007M7.705 7.564c-0.079 0.356-0.152 0.715-0.22 1.074 0.344 0.002 0.689 0.002 1.034 0.001 0.059-0.36 0.12-0.721 0.188-1.080-0.335 0-0.668 0.001-1.003 0.005M9.112 7.561c-0.076 0.356-0.137 0.716-0.191 1.078 0.346 0.001 0.69 0.001 1.034 0 0.060-0.36 0.121-0.72 0.191-1.079-0.346 0-0.69 0-1.034 0.001M10.548 7.561c-0.076 0.356-0.137 0.716-0.191 1.078 0.355 0.001 0.71 0.001 1.066 0 0.059-0.36 0.12-0.72 0.187-1.079-0.354 0-0.708 0-1.062 0.001M7.435 9.001c-0.042 0.358-0.077 0.716-0.104 1.076 0.354 0.002 0.707 0.002 1.061 0.002 0.025-0.36 0.053-0.72 0.088-1.079-0.348-0.001-0.696-0.001-1.044 0M8.88 9c-0.032 0.359-0.061 0.719-0.083 1.079 0.343 0.001 0.688 0.001 1.032 0.001 0.023-0.36 0.052-0.72 0.086-1.080-0.346 0-0.69 0-1.036 0M10.316 9.001c-0.034 0.359-0.062 0.716-0.085 1.075 0.355 0.004 0.709 0.004 1.064 0.004 0.024-0.361 0.052-0.721 0.086-1.080-0.355-0.001-0.71 0-1.066 0.001M7.314 10.43c-0.010 0.36-0.014 0.72-0.012 1.080 0.352 0.001 0.704 0.001 1.056 0.001 0.005-0.36 0.012-0.719 0.018-1.078-0.354-0.002-0.708-0.002-1.062-0.004M8.782 10.433c-0.006 0.36-0.008 0.72-0.012 1.079 0.342 0 0.684 0 1.025 0 0.005-0.36 0.012-0.719 0.018-1.079-0.343-0.001-0.688-0.001-1.031 0M10.218 10.433c-0.008 0.36-0.016 0.719-0.020 1.079 0.354 0 0.709 0 1.063 0.001 0.006-0.36 0.012-0.72 0.018-1.080-0.354-0.001-0.707-0.001-1.061 0M7.31 11.864c0.022 0.425 0.049 0.85 0.082 1.273 0.337-0.001 0.673-0.001 1.010-0.001-0.012-0.424-0.030-0.847-0.044-1.271-0.349-0.002-0.698-0.002-1.048-0.001M8.762 11.864c0.004 0.425 0.017 0.848 0.041 1.271 0.347 0.001 0.694 0.001 1.040 0-0.018-0.424-0.036-0.846-0.049-1.27-0.344-0.002-0.688-0.002-1.032-0.001M10.198 11.864c0.005 0.422 0.018 0.844 0.035 1.265 0.359 0.007 0.719 0.008 1.078 0.007-0.017-0.425-0.035-0.848-0.048-1.272-0.355-0.001-0.71-0.001-1.064 0M7.435 13.495c0.047 0.371 0.102 0.74 0.174 1.106 0.324-0.016 0.648-0.019 0.972-0.020-0.053-0.36-0.1-0.721-0.139-1.084-0.336-0.001-0.671-0.002-1.007-0.002M8.831 13.499c0.042 0.361 0.090 0.724 0.145 1.084 0.347 0.001 0.694 0.001 1.040 0.001-0.052-0.361-0.098-0.722-0.138-1.085-0.349-0.004-0.698-0.004-1.048 0M10.266 13.499c0.043 0.362 0.091 0.724 0.145 1.084 0.358 0.001 0.714 0.001 1.072 0.002-0.050-0.362-0.097-0.725-0.138-1.088-0.36-0.001-0.719-0.001-1.079 0.002M7.672 14.962c0.072 0.318 0.152 0.636 0.241 0.95 0.313 0 0.626 0 0.94 0.002-0.070-0.318-0.139-0.636-0.21-0.953-0.324-0.001-0.648-0.002-0.971 0M9.041 14.96c0.065 0.318 0.134 0.635 0.215 0.949 0.344 0.002 0.69 0.002 1.034 0.006-0.071-0.318-0.14-0.636-0.211-0.953-0.346-0.004-0.692-0.004-1.038-0.002M10.476 14.96c0.065 0.318 0.136 0.635 0.216 0.949 0.354 0.002 0.708 0.002 1.062 0.005-0.068-0.318-0.138-0.636-0.21-0.954-0.356-0.001-0.712-0.001-1.068 0M8.020 16.288c0.114 0.307 0.234 0.611 0.36 0.912 0.306 0 0.612 0 0.918 0.002-0.119-0.3-0.233-0.602-0.338-0.907-0.313-0.006-0.626-0.007-0.94-0.007M9.356 16.289c0.109 0.306 0.227 0.608 0.355 0.908 0.341 0.002 0.682 0.004 1.022 0.005-0.119-0.3-0.23-0.604-0.335-0.91-0.347-0.005-0.695-0.006-1.043-0.004M10.793 16.29c0.109 0.306 0.227 0.608 0.355 0.907 0.35 0.002 0.702 0.004 1.054 0.006-0.12-0.302-0.234-0.606-0.343-0.912-0.355-0.004-0.71-0.005-1.066-0.001z"></path>
<path fill="#fff" d="M13.457 7.086c0.686-0.584 1.133 0.426 1.277 0.977 0.634 2.388 0.803 4.942 0.34 7.375-0.154 0.577-0.36 1.597-1.175 1.374 0.768-0.371 0.85-1.308 0.982-2.051 0.25-2.036 0.168-4.134-0.359-6.122-0.186-0.6-0.377-1.358-1.064-1.553z"></path>
<path fill="#fff" d="M13.303 9.073c0.793 0.773 0.653 2.029 0.749 3.047-0.043 0.841 0.085 1.828-0.498 2.516-0.332-1.83-0.422-3.712-0.251-5.563z"></path>
<path fill="#231f20" d="M8.297 5.958c0.366-0.605 0.862-1.339 1.661-1.309 1.12 0.017 2.245-0.042 3.362 0.031 1.020 0.359 1.542 1.436 1.962 2.359 0.862 2.095 1.012 4.406 0.896 6.646-0.095 1.386-0.286 2.816-0.961 4.052-0.359 0.648-0.982 1.268-1.775 1.246-1.082-0.004-2.166 0.017-3.248-0.010-0.785-0.079-1.261-0.8-1.645-1.409 0.302-0.005 0.606-0.006 0.91-0.007 0.265 0.27 0.504 0.901 0.962 0.605-0.168-0.203-0.341-0.401-0.512-0.6 0.33-0.002 0.659-0.002 0.989-0.004 0.264 0.272 0.504 0.902 0.96 0.604-0.168-0.203-0.341-0.401-0.514-0.599 0.344 0.008 0.7-0.048 1.037 0.032 0.269 0.241 0.499 0.881 0.942 0.557-0.163-0.19-0.329-0.376-0.498-0.559 0.186-0.040 0.509-0.026 0.454-0.307-0.209-0.102-0.448-0.085-0.673-0.108-0.121-0.286-0.234-0.576-0.342-0.868 0.208-0.025 0.415-0.053 0.62-0.089-0.1-0.341-0.445-0.311-0.732-0.331-0.076-0.3-0.142-0.602-0.204-0.905 0.21-0.024 0.425-0.036 0.629-0.102 0.013-0.388-0.45-0.272-0.698-0.317-0.055-0.349-0.102-0.7-0.14-1.051 0.21-0.020 0.42-0.043 0.63-0.071-0.042-0.35-0.4-0.305-0.662-0.331-0.023-0.403-0.035-0.808-0.041-1.212 0.193-0.036 0.388-0.070 0.581-0.113-0.031-0.064-0.095-0.191-0.126-0.254-0.15-0.012-0.3-0.025-0.45-0.037 0.007-0.346 0.010-0.691 0.010-1.036 0.188-0.024 0.376-0.048 0.563-0.074 0.007-0.313-0.313-0.298-0.542-0.346 0.024-0.343 0.050-0.685 0.076-1.027 0.163-0.011 0.326-0.023 0.49-0.034 0.005-0.080 0.013-0.241 0.017-0.32-0.114-0.010-0.343-0.026-0.457-0.035 0.054-0.352 0.114-0.702 0.182-1.051 0.192-0.013 0.383-0.028 0.574-0.043 0.002-0.070 0.006-0.21 0.007-0.281-0.164-0.019-0.329-0.038-0.492-0.058 0.088-0.292 0.181-0.582 0.281-0.87 0.275-0.055 0.794 0.104 0.748-0.338-0.187-0.011-0.373-0.022-0.56-0.030 0.040-0.186 0.22-0.407 0.030-0.568-0.234 0.122-0.347 0.372-0.493 0.577-0.336-0.004-0.672-0.005-1.008 0.002 0.043-0.184 0.214-0.391 0.061-0.565-0.27 0.060-0.353 0.36-0.502 0.558-0.332 0.001-0.665 0.001-0.996 0.007 0.044-0.185 0.214-0.392 0.060-0.568-0.27 0.065-0.354 0.362-0.503 0.562-0.305 0-0.611 0-0.916-0.002M13.457 7.086c0.688 0.194 0.878 0.953 1.064 1.553 0.527 1.988 0.608 4.086 0.359 6.122-0.132 0.743-0.214 1.68-0.982 2.051 0.815 0.223 1.021-0.797 1.175-1.374 0.463-2.434 0.294-4.987-0.34-7.375-0.144-0.551-0.59-1.561-1.277-0.977M13.303 9.073c-0.172 1.852-0.082 3.733 0.251 5.563 0.583-0.689 0.455-1.675 0.498-2.516-0.096-1.018 0.044-2.274-0.749-3.047z"></path>
<path fill="#231f20" d="M8.138 6.306c0.317-0.001 0.632-0.002 0.949-0.006-0.106 0.302-0.205 0.608-0.3 0.916-0.328 0-0.656 0.001-0.984-0.001 0.106-0.305 0.217-0.607 0.335-0.908z"></path>
<path fill="#231f20" d="M9.481 6.308c0.348-0.004 0.695-0.006 1.042-0.007-0.104 0.302-0.204 0.607-0.299 0.914-0.346 0.001-0.691 0.001-1.037-0.002 0.091-0.304 0.19-0.606 0.294-0.905z"></path>
<path fill="#231f20" d="M10.919 6.307c0.355-0.002 0.71-0.005 1.066-0.007-0.101 0.3-0.197 0.601-0.284 0.905-0.359 0.012-0.718 0.013-1.076 0.010 0.090-0.305 0.19-0.607 0.295-0.907z"></path>
<path fill="#231f20" d="M7.705 7.564c0.335-0.004 0.668-0.005 1.003-0.005-0.068 0.359-0.13 0.72-0.188 1.080-0.346 0.001-0.69 0.001-1.034-0.001 0.067-0.359 0.14-0.718 0.22-1.074z"></path>
<path fill="#231f20" d="M9.112 7.561c0.344-0.001 0.689-0.001 1.034-0.001-0.070 0.359-0.131 0.719-0.191 1.079-0.344 0.001-0.689 0.001-1.034 0 0.054-0.361 0.115-0.721 0.191-1.078z"></path>
<path fill="#231f20" d="M10.548 7.561c0.354-0.001 0.708-0.001 1.062-0.001-0.067 0.359-0.128 0.719-0.187 1.079-0.355 0.001-0.71 0.001-1.066 0 0.054-0.361 0.115-0.721 0.191-1.078z"></path>
<path fill="#231f20" d="M7.435 9.001c0.348-0.001 0.696-0.001 1.044 0-0.035 0.359-0.062 0.719-0.088 1.079-0.354 0-0.707 0-1.061-0.002 0.028-0.36 0.062-0.719 0.104-1.076z"></path>
<path fill="#231f20" d="M8.88 9c0.346 0 0.69 0 1.036 0-0.035 0.36-0.064 0.72-0.086 1.080-0.344 0-0.689 0-1.032-0.001 0.022-0.36 0.050-0.72 0.083-1.079z"></path>
<path fill="#231f20" d="M10.316 9.001c0.355-0.001 0.71-0.002 1.066-0.001-0.035 0.359-0.062 0.719-0.086 1.080-0.355 0-0.709 0-1.064-0.004 0.023-0.359 0.052-0.716 0.085-1.075z"></path>
<path fill="#231f20" d="M7.314 10.43c0.354 0.001 0.708 0.001 1.062 0.004-0.006 0.359-0.013 0.718-0.018 1.078-0.352 0-0.704 0-1.056-0.001-0.002-0.36 0.002-0.72 0.012-1.080z"></path>
<path fill="#231f20" d="M8.782 10.433c0.343-0.001 0.688-0.001 1.031 0-0.006 0.36-0.013 0.719-0.018 1.079-0.341 0-0.683 0-1.025 0 0.004-0.359 0.006-0.719 0.012-1.079z"></path>
<path fill="#231f20" d="M10.218 10.433c0.354-0.001 0.707-0.001 1.061 0-0.006 0.36-0.012 0.72-0.018 1.080-0.354-0.001-0.709-0.001-1.063-0.001 0.005-0.36 0.012-0.719 0.020-1.079z"></path>
<path fill="#231f20" d="M7.31 11.864c0.349-0.001 0.698-0.001 1.048 0.001 0.014 0.424 0.032 0.847 0.044 1.271-0.337 0-0.673 0-1.010 0.001-0.032-0.424-0.060-0.848-0.082-1.273z"></path>
<path fill="#231f20" d="M8.762 11.864c0.344-0.001 0.688-0.001 1.032 0.001 0.013 0.424 0.031 0.846 0.049 1.27-0.347 0.001-0.694 0.001-1.040 0-0.024-0.422-0.037-0.846-0.041-1.271z"></path>
<path fill="#231f20" d="M10.198 11.864c0.354-0.001 0.709-0.001 1.064 0 0.013 0.424 0.031 0.847 0.048 1.272-0.359 0.001-0.719 0-1.078-0.007-0.017-0.421-0.030-0.842-0.035-1.265z"></path>
<path fill="#231f20" d="M7.435 13.495c0.336 0 0.671 0.001 1.007 0.002 0.040 0.362 0.086 0.724 0.139 1.084-0.324 0.001-0.648 0.005-0.972 0.020-0.072-0.366-0.127-0.736-0.174-1.106z"></path>
<path fill="#231f20" d="M8.831 13.499c0.349-0.004 0.698-0.004 1.048 0 0.040 0.362 0.086 0.724 0.138 1.085-0.347 0-0.694 0-1.040-0.001-0.055-0.36-0.103-0.722-0.145-1.084z"></path>
<path fill="#231f20" d="M10.266 13.499c0.36-0.004 0.719-0.004 1.079-0.002 0.041 0.364 0.088 0.726 0.138 1.088-0.358-0.001-0.714-0.001-1.072-0.002-0.054-0.36-0.102-0.721-0.145-1.084z"></path>
<path fill="#231f20" d="M7.672 14.962c0.323-0.002 0.647-0.001 0.971 0 0.071 0.317 0.14 0.635 0.21 0.953-0.313-0.002-0.626-0.002-0.94-0.002-0.089-0.314-0.169-0.632-0.241-0.95z"></path>
<path fill="#231f20" d="M9.041 14.96c0.346-0.001 0.692-0.001 1.038 0.002 0.071 0.317 0.14 0.635 0.211 0.953-0.344-0.004-0.69-0.004-1.034-0.006-0.080-0.314-0.15-0.631-0.215-0.949z"></path>
<path fill="#231f20" d="M10.476 14.96c0.356-0.001 0.712-0.001 1.068 0 0.072 0.318 0.142 0.636 0.21 0.954-0.354-0.002-0.708-0.002-1.062-0.005-0.080-0.314-0.151-0.631-0.216-0.949z"></path>
<path fill="#231f20" d="M8.020 16.288c0.313 0 0.626 0.001 0.94 0.007 0.106 0.305 0.22 0.607 0.338 0.907-0.306-0.002-0.612-0.002-0.918-0.002-0.126-0.301-0.246-0.605-0.36-0.912z"></path>
<path fill="#231f20" d="M9.356 16.289c0.348-0.002 0.696-0.001 1.043 0.004 0.104 0.306 0.216 0.61 0.335 0.91-0.341-0.001-0.682-0.002-1.022-0.005-0.128-0.3-0.246-0.602-0.355-0.908z"></path>
<path fill="#231f20" d="M10.793 16.29c0.355-0.004 0.71-0.002 1.066 0.001 0.109 0.306 0.223 0.61 0.343 0.912-0.352-0.002-0.703-0.004-1.054-0.006-0.128-0.299-0.246-0.601-0.355-0.907z"></path>
</svg>
