<?xml version="1.0" encoding="utf-8"?>
<!-- Generated by IcoMoon.io -->
<!DOCTYPE svg PUBLIC "-//W3C//DTD SVG 1.1//EN" "http://www.w3.org/Graphics/SVG/1.1/DTD/svg11.dtd">
<svg version="1.1" xmlns="http://www.w3.org/2000/svg" xmlns:xlink="http://www.w3.org/1999/xlink" width="24" height="24" viewBox="0 0 24 24">
<path fill="#fff" d="M0 0h10.044c-2.999 0.63-5.861 2.248-7.659 4.769-3.556 4.625-2.932 11.796 1.332 15.765 2.575 2.55 6.359 3.786 9.946 3.306 3.417-0.421 6.637-2.395 8.475-5.319 0.947-1.401 1.53-3.004 1.863-4.653v10.132h-24v-24z"></path>
<path fill="#fff" d="M13.863 0h10.137v9.765c-0.168-0.465-0.312-0.937-0.467-1.404-0.021-0.116-0.065-0.351-0.088-0.467-0.764-1.603-1.646-3.174-2.875-4.472-1.298-1.221-2.859-2.106-4.459-2.865-0.119-0.028-0.354-0.085-0.47-0.114-0.591-0.155-1.19-0.286-1.778-0.444z"></path>
<path fill="#fff" d="M10.919 2.705c0.818-0.457 2.031 0.168 1.93 1.161 0.085 0.965-1.097 1.649-1.917 1.156-0.906-0.439-0.893-1.855-0.013-2.317z"></path>
<path fill="#fff" d="M8.173 7.561c0.97-0.805 1.783-2.090 3.169-2.137 0.728-0.008 1.621 0.114 2.028 0.8 0.446 0.71 0.766 1.492 1.218 2.199 0.335-0.25 0.632-0.545 0.877-0.885 0.583 0.046 1.257-0.111 1.76 0.266 0.413 0.645-0.155 1.324-0.284 1.969 0.165 1.138 0.537 2.235 0.792 3.355 0.919-0.065 1.93-0.072 2.679 0.552 1.69 1.226 1.768 4.018 0.173 5.355-1.332 1.21-3.685 0.854-4.578-0.717-1.058-1.6-0.495-3.897 1.11-4.914-0.054-0.222-0.16-0.671-0.212-0.895-0.983 0.663-1.954 1.347-2.916 2.039 0.377 1.53 0.31 3.117 0.413 4.676-0.431 0-0.862 0-1.29 0-0.183-1.148-0.276-2.315-0.57-3.443-0.601-0.227-0.532 0.591-0.723 0.945-0.114 0.702-0.981 0.772-1.494 1.071 0.152 0.137 0.457 0.408 0.609 0.542-0.292 0.080-0.583 0.163-0.872 0.245-0.201-0.065-0.599-0.194-0.8-0.258 0.397-0.209 0.872-0.351 1.012-0.831-0.317-0.578-0.782-1.019-1.492-0.883-0.227 1.489-1.241 3.006-2.862 3.133-1.566 0.23-3.068-0.952-3.383-2.467-0.39-1.51 0.328-3.285 1.783-3.933 0.782-0.397 1.68-0.225 2.501-0.083 0.413-0.818 0.823-1.639 1.231-2.457-0.24-0.568-0.48-1.135-0.715-1.703-0.173-0.003-0.516-0.010-0.689-0.013 0-0.225 0-0.671 0-0.895 0.614 0 1.228 0.003 1.843 0.008-0.106-0.214-0.212-0.428-0.317-0.64M9.448 7.695c0.165 0.366 0.333 0.733 0.488 1.105 0.018-0.529 0.054-1.053 0.080-1.579-0.191 0.157-0.379 0.317-0.568 0.475M12.968 8.095c-0.062 0.785-0.114 1.569-0.155 2.354 1.159 0.005 2.315 0 3.474 0.008-0.17-0.779 0.16-1.489 0.516-2.155-0.199-0.013-0.596-0.036-0.792-0.046-0.606 0.454-1.241 0.87-1.879 1.28-0.39-0.48-0.774-0.963-1.164-1.44M8.057 9.004c0.173 0.477 0.356 0.955 0.537 1.43 0.4 0.010 0.797 0.018 1.195 0.023-0.439-0.643-0.676-1.825-1.732-1.453M8.903 11.105c0.168 0.372 0.335 0.741 0.503 1.112 0.121-0.374 0.243-0.748 0.364-1.123-0.217 0.003-0.65 0.008-0.867 0.010M13.030 11.097c0.245 0.914 0.488 1.83 0.735 2.743 0.988-0.681 1.966-1.375 2.95-2.065-0.062-0.227-0.124-0.452-0.186-0.679-1.166 0-2.333 0-3.499 0M7.381 13.613c0.4 0.465 0.782 0.947 1.143 1.44 0.194-0.601 0.382-1.208 0.575-1.809-0.235-0.534-0.465-1.066-0.697-1.6-0.351 0.65-0.689 1.308-1.022 1.969M10.526 14.24c-0.385 0.563 0.286 0.955 0.81 0.828-0.196-0.245-0.39-0.488-0.586-0.73 0.377-0.103 0.754-0.206 1.128-0.31-0.173-0.472-0.348-0.947-0.529-1.419-0.281 0.539-0.578 1.074-0.823 1.631M3.899 14.472c-1.334 1.21-0.955 3.701 0.723 4.403 0.836 0.454 1.77 0.085 2.542-0.31-0.354-0.235-0.707-0.467-1.063-0.697 0.323-0.4 0.653-0.795 0.981-1.192-0.606-0.028-1.21-0.057-1.814-0.106 0.343-0.926 0.79-1.806 1.239-2.681-0.898-0.214-1.941-0.129-2.606 0.583M17.902 13.796c0.108 1.138 0.875 2.044 1.086 3.138-1.218-0.405-1.43-1.75-1.708-2.823-0.666 0.627-1.231 1.445-1.159 2.405-0.021 1.556 1.61 2.991 3.151 2.462 1.752-0.526 2.413-2.968 1.172-4.312-0.583-0.81-1.615-0.96-2.542-0.87M7.092 14.253c-0.307 0.563-0.596 1.133-0.87 1.714 0.619-0.031 1.239-0.067 1.855-0.137-0.286-0.552-0.614-1.081-0.986-1.577M11.569 15.275c0.359 0.217 0.852-0.374 0.503-0.658-0.364-0.227-0.834 0.366-0.503 0.658M10.4 15.551c-0.815 0.423-0.225 1.92 0.674 1.515 1.089-0.33 0.302-2.219-0.674-1.515z"></path>
<path fill="#0371b8" d="M10.044 0h3.819c0.588 0.157 1.187 0.289 1.778 0.444 0.116 0.028 0.351 0.085 0.47 0.114 1.6 0.759 3.161 1.644 4.459 2.865 1.228 1.298 2.111 2.87 2.875 4.472 0.023 0.116 0.067 0.351 0.088 0.467 0.155 0.467 0.299 0.939 0.467 1.404v4.103c-0.333 1.649-0.916 3.252-1.863 4.653-1.837 2.924-5.058 4.898-8.475 5.319-3.587 0.48-7.37-0.756-9.946-3.306-4.263-3.969-4.888-11.141-1.332-15.765 1.799-2.521 4.661-4.139 7.659-4.769M10.919 2.705c-0.88 0.462-0.893 1.879 0.013 2.317 0.821 0.493 2.003-0.191 1.917-1.156 0.101-0.994-1.112-1.618-1.93-1.161M8.173 7.561c0.106 0.212 0.212 0.426 0.317 0.64-0.614-0.005-1.228-0.008-1.843-0.008 0 0.225 0 0.671 0 0.895 0.173 0.003 0.516 0.010 0.689 0.013 0.235 0.568 0.475 1.135 0.715 1.703-0.408 0.818-0.818 1.639-1.231 2.457-0.821-0.142-1.719-0.315-2.501 0.083-1.455 0.648-2.173 2.423-1.783 3.933 0.315 1.515 1.817 2.697 3.383 2.467 1.621-0.126 2.635-1.644 2.862-3.133 0.71-0.137 1.174 0.305 1.492 0.883-0.139 0.48-0.614 0.622-1.012 0.831 0.201 0.065 0.599 0.194 0.8 0.258 0.289-0.083 0.581-0.165 0.872-0.245-0.152-0.134-0.457-0.405-0.609-0.542 0.514-0.299 1.381-0.369 1.494-1.071 0.191-0.354 0.121-1.172 0.723-0.945 0.294 1.128 0.387 2.294 0.57 3.443 0.428 0 0.859 0 1.29 0-0.103-1.559-0.036-3.146-0.413-4.676 0.963-0.692 1.933-1.375 2.916-2.039 0.052 0.225 0.157 0.674 0.212 0.895-1.605 1.017-2.168 3.314-1.11 4.914 0.893 1.572 3.246 1.928 4.578 0.717 1.595-1.337 1.517-4.129-0.173-5.355-0.748-0.625-1.76-0.617-2.679-0.552-0.255-1.12-0.627-2.217-0.792-3.355 0.129-0.645 0.697-1.324 0.284-1.969-0.503-0.377-1.177-0.219-1.76-0.266-0.245 0.341-0.542 0.635-0.877 0.885-0.452-0.707-0.772-1.489-1.218-2.199-0.408-0.686-1.301-0.808-2.028-0.8-1.386 0.046-2.199 1.332-3.169 2.137z"></path>
<path fill="#0371b8" d="M9.448 7.695c0.188-0.157 0.377-0.317 0.568-0.475-0.026 0.526-0.062 1.050-0.080 1.579-0.155-0.372-0.323-0.738-0.488-1.105z"></path>
<path fill="#0371b8" d="M12.968 8.095c0.39 0.477 0.774 0.96 1.164 1.44 0.637-0.41 1.272-0.826 1.879-1.28 0.196 0.010 0.594 0.034 0.792 0.046-0.356 0.666-0.686 1.375-0.516 2.155-1.159-0.008-2.315-0.003-3.474-0.008 0.041-0.785 0.093-1.569 0.155-2.354z"></path>
<path fill="#0371b8" d="M8.057 9.004c1.055-0.372 1.293 0.81 1.732 1.453-0.397-0.005-0.795-0.013-1.195-0.023-0.181-0.475-0.364-0.952-0.537-1.43z"></path>
<path fill="#0371b8" d="M8.903 11.105c0.217-0.003 0.65-0.008 0.867-0.010-0.121 0.374-0.243 0.748-0.364 1.123-0.168-0.372-0.335-0.741-0.503-1.112z"></path>
<path fill="#0371b8" d="M13.030 11.097c1.166 0 2.333 0 3.499 0 0.062 0.227 0.124 0.452 0.186 0.679-0.983 0.689-1.961 1.383-2.95 2.065-0.248-0.914-0.49-1.83-0.735-2.743z"></path>
<path fill="#0371b8" d="M7.381 13.613c0.333-0.661 0.671-1.319 1.022-1.969 0.232 0.534 0.462 1.066 0.697 1.6-0.194 0.601-0.382 1.208-0.575 1.809-0.361-0.493-0.743-0.975-1.143-1.44z"></path>
<path fill="#0371b8" d="M10.526 14.24c0.245-0.557 0.542-1.092 0.823-1.631 0.181 0.472 0.356 0.947 0.529 1.419-0.374 0.103-0.751 0.206-1.128 0.31 0.196 0.243 0.39 0.485 0.586 0.73-0.524 0.126-1.195-0.266-0.81-0.828z"></path>
<path fill="#0371b8" d="M3.899 14.472c0.666-0.712 1.708-0.797 2.606-0.583-0.449 0.875-0.895 1.755-1.239 2.681 0.604 0.049 1.208 0.077 1.814 0.106-0.328 0.397-0.658 0.792-0.981 1.192 0.356 0.23 0.71 0.462 1.063 0.697-0.772 0.395-1.706 0.764-2.542 0.31-1.677-0.702-2.057-3.192-0.723-4.403z"></path>
<path fill="#0371b8" d="M17.902 13.796c0.926-0.090 1.959 0.059 2.542 0.87 1.241 1.345 0.581 3.786-1.172 4.312-1.541 0.529-3.172-0.906-3.151-2.462-0.072-0.96 0.493-1.778 1.159-2.405 0.279 1.074 0.49 2.418 1.708 2.823-0.212-1.094-0.978-2-1.086-3.138z"></path>
<path fill="#0371b8" d="M7.092 14.253c0.372 0.495 0.699 1.025 0.986 1.577-0.617 0.070-1.236 0.106-1.855 0.137 0.274-0.581 0.563-1.151 0.87-1.714z"></path>
<path fill="#0371b8" d="M11.569 15.275c-0.33-0.292 0.139-0.885 0.503-0.658 0.348 0.284-0.145 0.875-0.503 0.658z"></path>
<path fill="#0371b8" d="M10.4 15.551c0.975-0.705 1.763 1.185 0.674 1.515-0.898 0.405-1.489-1.092-0.674-1.515z"></path>
</svg>
