<svg xmlns="http://www.w3.org/2000/svg" width="24" height="24">
    <path fill="#de0329" d="M10.166 0h3.667c5.119.787 9.379 5.047 10.166 10.166v3.67c-.79 5.117-5.05 9.377-10.166 10.164h-3.667C5.047 23.21.787 18.95 0 13.831v-3.665C.79 5.047 5.05.789 10.166 0zm-.004 2.491c-4.414.821-7.978 4.992-7.956 9.506-.077 4.385 3.242 8.496 7.474 9.518 2.34.396 4.922.314 6.974-1.013 3.298-1.838 5.426-5.688 4.956-9.475-.499-5.39-6.098-9.689-11.448-8.537z"/>
    <path fill="#fff" d="M10.162 2.491c5.35-1.152 10.949 3.146 11.448 8.537.47 3.787-1.658 7.637-4.956 9.475-2.052 1.327-4.634 1.409-6.974 1.013-4.231-1.022-7.55-5.134-7.474-9.518-.022-4.514 3.542-8.686 7.956-9.506zm2.635 1.685c-1.836.607-1.956 3.024-1.37 4.562.641 1.865 3.66 1.966 4.438.163.374-1.116.341-2.352.067-3.487-.518-1.142-1.98-1.644-3.134-1.238zm-3.984.096a7.28 7.28 0 0 1-1.162.715l-.014.862c.302 0 .607.002.91.005 0 1.378.002 2.758-.002 4.135.413 0 .823 0 1.234-.002a288.87 288.87 0 0 1-.029-5.738c-.312.007-.624.014-.936.024zm-1.678 8.626c.137.458.228.926.314 1.394.25.012.502.002.749-.038-.226-.295-.449-.59-.655-.898l.595-.343a18.238 18.238 0 0 1-.674-.866c-.108.252-.216.502-.329.751zm1.611-.099c-.842.454-.168 1.92.734 1.474.979-.389.233-2.17-.734-1.474zm1.516-.12c0 .526 0 1.051-.005 1.577l.254-.002c.067-.47.096-.986.499-1.31.094.514.163 1.03.259 1.541.811-.845.218-2.213-1.008-1.805zm1.707.065c.022.602.043 1.212.235 1.79.199-.533.343-1.087.6-1.596.158.526.283 1.061.434 1.589.178-.607.144-1.238.053-1.855-.442.022-.881.046-1.322.072zm1.848.377c-.463.991.917 1.642 1.505.77-.346-.01-.691-.014-1.034-.012l.053-.636c.324.144.653.286.984.418-.007-.804-1.118-1.45-1.507-.54zm1.788-.432c-.058.526-.115 1.054-.187 1.579.506.13 1.018.089 1.462-.204a56.513 56.513 0 0 1-.29-1.406c-.329.01-.655.019-.984.031zm-1.937 2.899l-.11.72a22.303 22.303 0 0 0-1.286-.283c-.05.948-.05 1.901-.012 2.849.221-.19.439-.382.655-.578.334.281.665.566.989.859.331-.005.665-.007.998-.007.096-.173.192-.348.29-.521.197.254.398.506.6.758.022-.972.062-1.944.065-2.918-.17-.065-.338-.127-.506-.192l.73-.439c-.658-.022-1.325-.041-1.958.17l-.454-.418zm-5.657 2.268c.816-.228 1.176-1.02 1.522-1.711l.624.014a4.786 4.786 0 0 0 1.111 1.61l.504-.242c-.571-.456-1.07-1.003-1.354-1.687-.305-.012-.61-.026-.914-.041a8.08 8.08 0 0 0-1.493 2.057zm1.608-.876a55.389 55.389 0 0 1-.617 1.598l-.883.406c1.118.13 2.249-.206 3.355.098a12.318 12.318 0 0 0-1.063-1.493c.031.338.07.674.11 1.01a386.7 386.7 0 0 1-1.15.086c.226-.506.456-1.01.682-1.514a92.78 92.78 0 0 1-.434-.192z"/>
    <path fill="#fff" d="M13.31 5.155c1.553-.398 1.853 1.656 1.574 2.738-.06.998-1.486 1.57-2.064.653-.622-.991-.648-2.772.49-3.391zM8.974 13.234c.35-.286.737.331.391.571-.35.286-.739-.331-.391-.571zM14.083 16.594c.278-.194.557-.386.84-.576-.449.612-.854 1.265-.991 2.023.065-.48.118-.962.151-1.447zM14.062 18.547c.991-.66.415.924 0 0z"/>
    <path d="M12.797 4.176c1.154-.406 2.616.096 3.134 1.238.274 1.135.307 2.371-.067 3.487-.778 1.802-3.797 1.702-4.438-.163-.586-1.538-.466-3.955 1.37-4.562zm.513.979c-1.138.619-1.111 2.4-.49 3.391.578.917 2.004.346 2.064-.653.278-1.082-.022-3.137-1.574-2.738zM8.813 4.272c.312-.01.624-.017.936-.024-.012 1.913.002 3.826.029 5.738-.41.002-.821.002-1.234.002.005-1.378.002-2.758.002-4.135-.302-.002-.607-.005-.91-.005l.014-.862a7.324 7.324 0 0 0 1.162-.715zM7.135 12.898c.113-.25.221-.499.329-.751.216.295.442.586.674.866l-.595.343c.206.307.43.602.655.898-.247.041-.499.05-.749.038a13.361 13.361 0 0 0-.314-1.394zM8.746 12.799c.967-.696 1.714 1.085.734 1.474-.902.446-1.577-1.02-.734-1.474zm.228.435c-.348.24.041.857.391.571.346-.24-.041-.857-.391-.571zM10.262 12.679c1.226-.408 1.819.96 1.008 1.805-.096-.511-.166-1.027-.259-1.541-.403.324-.432.84-.499 1.31l-.254.002c.005-.526.005-1.051.005-1.577zM11.969 12.744c.442-.026.881-.05 1.322-.072.091.617.125 1.248-.053 1.855-.151-.528-.276-1.063-.434-1.589-.257.509-.401 1.063-.6 1.596-.192-.578-.214-1.188-.235-1.79zM13.817 13.121c.389-.91 1.5-.264 1.507.54-.331-.132-.66-.274-.984-.418l-.053.636c.343-.002.689.002 1.034.012-.588.871-1.968.221-1.505-.77zM8.011 17.856a8.097 8.097 0 0 1 1.493-2.057c.305.014.61.029.914.041.283.684.782 1.231 1.354 1.687l-.504.242a4.796 4.796 0 0 1-1.111-1.61l-.624-.014c-.346.691-.706 1.483-1.522 1.711z"/>
    <path d="M9.619 16.98l.434.192c-.226.504-.456 1.008-.682 1.514l1.15-.086a33.874 33.874 0 0 1-.11-1.01c.394.468.744.972 1.063 1.493-1.106-.305-2.237.031-3.355-.098l.883-.406c.214-.53.42-1.063.617-1.598z"/>
    <path fill="#737373" d="M15.605 12.689c.329-.012.655-.022.984-.031.091.47.187.938.29 1.406-.444.293-.955.334-1.462.204.072-.526.13-1.054.187-1.579z"/>
    <path fill="#313131" d="M13.668 15.588l.454.418c.634-.211 1.301-.192 1.958-.17l-.73.439c.168.065.336.127.506.192-.002.974-.043 1.946-.065 2.918a60.353 60.353 0 0 1-.6-.758c-.098.173-.194.348-.29.521-.334 0-.667.002-.998.007a36.63 36.63 0 0 0-.989-.859c-.216.197-.434.389-.655.578a30.763 30.763 0 0 1 .012-2.849c.432.082.862.178 1.286.283l.11-.72zm.415 1.006a22.51 22.51 0 0 1-.151 1.447c.137-.758.542-1.411.991-2.023-.283.19-.562.382-.84.576zm-.021 1.953c.415.924.991-.66 0 0z"/>
</svg>
