<?xml version="1.0" encoding="utf-8"?>
<!-- Generated by IcoMoon.io -->
<!DOCTYPE svg PUBLIC "-//W3C//DTD SVG 1.1//EN" "http://www.w3.org/Graphics/SVG/1.1/DTD/svg11.dtd">
<svg version="1.1" xmlns="http://www.w3.org/2000/svg" xmlns:xlink="http://www.w3.org/1999/xlink" width="24" height="24" viewBox="0 0 24 24">
<path fill="#f00" d="M10.31 0.84h3.078c0.085 0.157 0.205 0.192 0.358 0.106 1.858 0.276 3.708 0.862 5.226 1.999 1.321 1 2.618 2.113 3.454 3.568 0.745 1.27 1.432 2.658 1.402 4.168-0.011 1.498 0.16 3.058-0.367 4.494-0.588 1.493-1.415 2.912-2.564 4.043-2.128 2.138-5.024 3.566-8.057 3.719-1.288 0.071-2.599 0.040-3.847-0.311-0.793-0.223-1.578-0.482-2.332-0.816-2.753-1.274-5.016-3.636-6.026-6.512-0.263-0.688-0.366-1.42-0.559-2.128-0.018-0.073-0.055-0.221-0.074-0.294v-2.047c0.152-0.63 0.229-1.278 0.425-1.897 0.464-1.536 1.27-2.981 2.389-4.136 0.425-0.4 0.871-0.776 1.28-1.193 1.786-1.559 4.088-2.435 6.428-2.694l-0.212-0.067M9.899 3.686c-3.157 0.706-5.951 3.212-6.704 6.4-0.499 2.131-0.006 4.446 1.241 6.234 0.716 0.954 1.603 1.778 2.586 2.454 2.735 1.786 6.422 1.939 9.311 0.425 1.031-0.554 1.94-1.309 2.76-2.14 0.72-0.707 1.166-1.632 1.556-2.548 0.463-1.096 0.474-2.309 0.418-3.478-0.101-1.952-1.18-3.732-2.576-5.047-1.338-1.264-3.049-2.245-4.915-2.374-1.22-0.106-2.468-0.178-3.676 0.073z"></path>
<path fill="#0a0a0a" d="M13.388 0.84h0.334l0.024 0.106c-0.152 0.086-0.272 0.052-0.358-0.106z"></path>
<path fill="#0a0a0a" d="M10.088 5.029c1.184-0.004 2.371 0.098 3.558 0.049 0.32 0.433 0.677 0.84 0.972 1.291 0.041 0.253 0.020 0.511 0.022 0.767-0.1 0.127-0.194 0.257-0.29 0.386-0.001 0.161-0.004 0.322-0.006 0.482 0.095 0.037 0.284 0.109 0.379 0.146-1.625 0.017-3.253-0.046-4.878 0.008-0.293 0.010-0.584-0.002-0.875-0.037 0.14-0.040 0.282-0.078 0.424-0.115 0.014-0.294-0.037-0.575-0.353-0.674-0.005-0.35-0.004-0.701-0.004-1.051 0.36-0.41 0.668-0.864 1.051-1.253M9.427 6.098c1.625 0.046 3.251 0.094 4.876 0.044-0.233-0.361-0.499-0.697-0.751-1.044-1.12 0.049-2.24-0.005-3.359 0-0.342 0.218-0.515 0.67-0.766 1M9.325 6.608c0.055 0.139 0.046 0.347 0.221 0.401 0.238 0.119 0.624-0.152 0.425-0.406-0.164-0.228-0.443-0.064-0.646 0.005M13.723 6.556c-0.151 0.11-0.124 0.383 0.068 0.434 0.204 0.098 0.518-0.005 0.515-0.266-0.068-0.222-0.408-0.332-0.583-0.168M10.375 6.823c0.92 0.036 1.846 0.043 2.766-0.004-0.202-0.127-0.445-0.097-0.671-0.108-0.601-0.008-1.202-0.031-1.802-0.029-0.124-0.012-0.221 0.035-0.293 0.14M10.139 7.040c0.738 0.090 1.486 0.022 2.228 0.044 0.336-0.016 0.698 0.060 1.009-0.106-0.737-0.067-1.477 0-2.215-0.025-0.341 0.013-0.703-0.067-1.022 0.086M10.505 7.242c0.143 0.145 0.347 0.109 0.528 0.118 0.701-0.005 1.4-0.002 2.1-0.004l0.011-0.139c-0.88 0.014-1.76-0.031-2.639 0.025M9.791 7.583c0.020 0.162 0.041 0.324 0.061 0.486 1.325-0.012 2.651-0.024 3.976 0.004-0.014-0.163-0.029-0.325-0.043-0.488-1.331 0-2.663 0.004-3.994-0.001z"></path>
<path fill="#0a0a0a" d="M10.829 9.828c0.2-0.277 0.589-0.17 0.881-0.182 0.071 0.146 0.14 0.294 0.208 0.443-0.109 0.214-0.227 0.424-0.353 0.628 0.512 0.398 1.22 0.158 1.822 0.253 0.008 0.089 0.028 0.269 0.036 0.359 0.085 0.001 0.254 0.002 0.338 0.004 0.218 0.192 0.451 0.373 0.606 0.624-0.154 0.097-0.313 0.186-0.486 0.246l-0.047-0.212c-0.048 0.073-0.145 0.221-0.194 0.294 0.293 0.119 0.55-0.065 0.776-0.229 0.048 0.39 0.010 0.784-0.259 1.088 0.108 0.002 0.325 0.005 0.434 0.006-0.023 0.066-0.070 0.196-0.092 0.262-1.969 0.022-3.94 0.010-5.909 0.005-0.023-0.331 0.298-0.263 0.522-0.28-0.162-0.235-0.208-0.565-0.475-0.714 0.085-0.208 0.166-0.418 0.247-0.626-0.242-0.050-0.228-0.275-0.245-0.467 0.521-0.019 1.045 0.049 1.564-0.013 0.181-0.328 0.355-0.664 0.644-0.912 0.008-0.192-0.024-0.383-0.018-0.575M11.681 11.38c-0.053 0.184 0.353 0.18 0.276-0.005-0.068 0.001-0.206 0.004-0.276 0.005M13.322 11.992c0.097 0.266 0.433 0.002 0.422-0.181-0.14-0.004-0.402-0.002-0.422 0.181M9.755 12.3c-0.1 0.149-0.216 0.284-0.33 0.421 0.041 0.18 0.032 0.361-0.010 0.539 0.073 0.012 0.22 0.037 0.293 0.049-0.415-0.191-0.061-0.583 0.070-0.839 0.022 0.116 0.066 0.349 0.088 0.466 0.089-0.012 0.269-0.034 0.359-0.044-0.118-0.095-0.239-0.185-0.36-0.274 0.102-0.18 0.133-0.33-0.109-0.318M9.274 12.371c0.024 0.396 0.36-0.187 0 0M10.129 12.503c0.024 0.161 0.109 0.193 0.258 0.096-0.022-0.161-0.108-0.193-0.258-0.096M12.99 12.496c-0.215 0.025-0.13 0.388 0.071 0.318 0.204-0.056 0.168-0.41-0.071-0.318M13.654 12.596c0.106 0.178 0.208 0.181 0.305 0.011-0.101-0.173-0.202-0.176-0.305-0.011M10.78 12.695c-0.080 0.197-0.2 0.371-0.365 0.506 0.277-0.001 0.554-0.004 0.83-0.001l-0.002-0.076c-0.198-0.091-0.324-0.274-0.463-0.43M11.894 13.192c0.338 0.010 0.678 0.008 1.016 0.010-0.148-0.131-0.292-0.266-0.427-0.408-0.284-0.010-0.462 0.164-0.589 0.398M13.253 12.856c0.070 0.084 0.070 0.084 0 0M13.588 12.842c0.084 0.078 0.084 0.078 0 0z"></path>
<path fill="#0a0a0a" d="M10.76 14.538c0.287 0.002 0.574 0.002 0.859-0.001-0.006 0.181-0.011 0.364-0.016 0.546-0.098 0-0.295 0-0.394 0 0.004 0.256-0.002 0.512 0.014 0.769 0.167 0.246 0.347 0.482 0.514 0.73 0.254-0.002 0.51-0.002 0.764 0 0-0.142 0.001-0.283 0.002-0.425 0.115-0.020 0.317-0.233 0.101-0.251-0.097-0.017-0.293-0.050-0.39-0.067-0.025-0.179-0.036-0.359-0.032-0.539 0.534 0.084 1.238-0.192 1.613 0.314-0.109 0.121-0.216 0.242-0.32 0.366 0.506 0.004 1.013 0 1.52 0.002-0.016 0.158-0.030 0.317-0.044 0.475 0.288 0.349 0.331 0.815 0.236 1.244-0.214 0.539-0.808 0.964-1.399 0.88-0.462 0-0.786-0.372-1.081-0.677-0.026 0.077-0.080 0.232-0.108 0.31-0.188 0.002-0.376 0.006-0.563 0.011-0.008-0.068-0.026-0.206-0.035-0.275-0.274-0.032-0.55-0.025-0.823-0.046-0.002-0.413 0.001-0.824 0.007-1.237-0.086-0.008-0.257-0.026-0.343-0.035 0.601 0.749-0.082 1.92-0.992 1.921-0.583 0.047-1.346-0.14-1.502-0.792-0.286-0.985 0.81-1.897 1.75-1.614 0.089-0.142 0.175-0.286 0.251-0.436-0.156-0.232-0.126-0.511-0.127-0.776 0.176 0.002 0.354 0.005 0.532 0.008 0.002-0.136 0.005-0.271 0.007-0.407M10.471 15.158c0.079 0.058 0.079 0.058 0 0M10.422 15.952c-0.175 0.136 0.016 0.4 0.187 0.242 0.095-0.108-0.054-0.416-0.187-0.242M9.115 16.908c-0.214 0.19-0.139 0.508-0.179 0.761 0.168 0.134 0.344 0.26 0.524 0.382 0.396 0.042 0.8-0.080 0.964-0.478-0.358-0.056-0.685 0.188-1.038 0.094-0.004-0.162-0.005-0.323-0.006-0.482 0.234-0.080 0.403-0.25 0.502-0.474-0.257 0.034-0.574-0.018-0.767 0.198M14.029 16.698c0.011 0.27 0.199 0.475 0.275 0.725 0.044-0.004 0.134-0.010 0.179-0.013 0.036 0.128 0.077 0.256 0.12 0.383 0.199-0.454-0.053-1.046-0.574-1.094M13.127 17.297c0.114 0.001 0.342 0.005 0.457 0.007-0.005-0.203-0.008-0.406-0.013-0.607-0.178 0.176-0.323 0.38-0.444 0.6M10.050 17.069c0.106 0.175 0.209 0.178 0.308 0.007-0.103-0.169-0.206-0.17-0.308-0.007M9.618 17.452c0.211-0.013 0.464 0.022 0.658-0.077-0.082-0.232-0.594-0.151-0.658 0.077M11.406 17.443c-0.167 0.132 0.043 0.421 0.217 0.287 0.166-0.126-0.050-0.413-0.217-0.287M12.17 17.78c0.114-0.004 0.342-0.008 0.457-0.011 0.026-0.114 0.048-0.229 0.065-0.346-0.229 0.028-0.41 0.154-0.522 0.356M13.146 17.65c0.194 0.034 0.391 0.044 0.587 0.058 0.007-0.060 0.022-0.178 0.029-0.236-0.21 0.043-0.562-0.131-0.616 0.179M13.598 17.917c0.127 0.187 0.54 0.119 0.745 0.044-0.142-0.17-0.536-0.113-0.745-0.044z"></path>
<path fill="#fff" d="M13.746 0.946c2.022 0.181 3.98 0.953 5.602 2.172 1.612 1.208 3.031 2.738 3.877 4.582 0.382 0.816 0.608 1.692 0.775 2.574v3.433c-0.247 1.4-0.839 2.714-1.558 3.931-0.421 0.715-1.012 1.307-1.613 1.872-1.922 1.892-4.453 3.19-7.141 3.52-3.024 0.368-6.214-0.301-8.718-2.070-2.621-1.765-4.528-4.625-4.896-7.79 0.193 0.708 0.296 1.44 0.559 2.128 1.010 2.876 3.274 5.238 6.026 6.512 0.754 0.334 1.538 0.593 2.332 0.816 1.248 0.35 2.56 0.382 3.847 0.311 3.032-0.152 5.929-1.58 8.057-3.719 1.15-1.13 1.976-2.55 2.564-4.043 0.527-1.436 0.356-2.996 0.367-4.494 0.030-1.51-0.656-2.898-1.402-4.168-0.835-1.454-2.132-2.568-3.454-3.568-1.518-1.138-3.368-1.723-5.226-1.999z"></path>
<path fill="#fff" d="M2.814 4.794c0.403-0.421 0.83-0.821 1.28-1.193-0.409 0.416-0.856 0.793-1.28 1.193z"></path>
<path fill="#fff" d="M9.899 3.686c1.207-0.251 2.455-0.179 3.676-0.073 1.866 0.128 3.577 1.11 4.915 2.374 1.397 1.315 2.476 3.095 2.576 5.047 0.056 1.169 0.046 2.382-0.418 3.478-0.39 0.916-0.836 1.841-1.556 2.548-0.82 0.83-1.729 1.585-2.76 2.14-2.888 1.514-6.576 1.361-9.311-0.425-0.983-0.676-1.87-1.5-2.586-2.454-1.247-1.788-1.74-4.103-1.241-6.234 0.754-3.187 3.547-5.694 6.704-6.4M10.088 5.029c-0.383 0.389-0.691 0.842-1.051 1.253 0 0.35-0.001 0.701 0.004 1.051 0.316 0.1 0.367 0.38 0.353 0.674-0.142 0.037-0.283 0.076-0.424 0.115 0.29 0.035 0.582 0.047 0.875 0.037 1.625-0.054 3.253 0.008 4.878-0.008-0.095-0.037-0.284-0.109-0.379-0.146 0.002-0.161 0.005-0.322 0.006-0.482 0.096-0.13 0.191-0.259 0.29-0.386-0.001-0.256 0.019-0.514-0.022-0.767-0.295-0.451-0.652-0.858-0.972-1.291-1.187 0.049-2.374-0.053-3.558-0.049M10.829 9.828c-0.006 0.192 0.026 0.383 0.018 0.575-0.289 0.248-0.463 0.584-0.644 0.912-0.518 0.062-1.043-0.006-1.564 0.013 0.017 0.192 0.002 0.416 0.245 0.467-0.082 0.209-0.162 0.419-0.247 0.626 0.268 0.149 0.313 0.479 0.475 0.714-0.224 0.017-0.545-0.052-0.522 0.28 1.969 0.005 3.94 0.017 5.909-0.005 0.023-0.066 0.070-0.196 0.092-0.262-0.109-0.001-0.326-0.004-0.434-0.006 0.269-0.305 0.307-0.698 0.259-1.088-0.227 0.164-0.484 0.348-0.776 0.229 0.049-0.073 0.146-0.221 0.194-0.294l0.047 0.212c0.173-0.060 0.332-0.149 0.486-0.246-0.155-0.251-0.388-0.432-0.606-0.624-0.084-0.001-0.253-0.002-0.338-0.004-0.008-0.090-0.028-0.27-0.036-0.359-0.601-0.095-1.309 0.145-1.822-0.253 0.126-0.204 0.244-0.414 0.353-0.628-0.067-0.149-0.137-0.296-0.208-0.443-0.292 0.012-0.68-0.095-0.881 0.182M10.76 14.538c-0.002 0.136-0.005 0.271-0.007 0.407-0.178-0.004-0.355-0.006-0.532-0.008 0.001 0.265-0.029 0.545 0.127 0.776-0.076 0.15-0.162 0.294-0.251 0.436-0.94-0.283-2.035 0.629-1.75 1.614 0.156 0.652 0.919 0.839 1.502 0.792 0.911-0.001 1.594-1.172 0.992-1.921 0.086 0.008 0.257 0.026 0.343 0.035-0.006 0.413-0.010 0.824-0.007 1.237 0.274 0.020 0.55 0.013 0.823 0.046 0.008 0.068 0.026 0.206 0.035 0.275 0.187-0.005 0.374-0.008 0.563-0.011 0.028-0.078 0.082-0.233 0.108-0.31 0.295 0.305 0.619 0.677 1.081 0.677 0.592 0.084 1.186-0.341 1.399-0.88 0.095-0.43 0.052-0.895-0.236-1.244 0.014-0.158 0.029-0.317 0.044-0.475-0.508-0.002-1.014 0.001-1.52-0.002 0.104-0.124 0.211-0.245 0.32-0.366-0.374-0.506-1.079-0.23-1.613-0.314-0.004 0.18 0.007 0.36 0.032 0.539 0.097 0.017 0.293 0.050 0.39 0.067 0.216 0.018 0.014 0.23-0.101 0.251-0.001 0.142-0.002 0.283-0.002 0.425-0.254-0.002-0.51-0.002-0.764 0-0.167-0.247-0.347-0.484-0.514-0.73-0.017-0.257-0.011-0.514-0.014-0.769 0.098 0 0.295 0 0.394 0 0.005-0.182 0.010-0.365 0.016-0.546-0.286 0.004-0.572 0.004-0.859 0.001z"></path>
<path fill="#fff" d="M9.427 6.098c0.251-0.33 0.424-0.781 0.766-1 1.118-0.005 2.239 0.049 3.359 0 0.252 0.347 0.518 0.683 0.751 1.044-1.625 0.049-3.251 0.001-4.876-0.044z"></path>
<path fill="#fff" d="M9.325 6.608c0.203-0.068 0.481-0.233 0.646-0.005 0.199 0.253-0.187 0.524-0.425 0.406-0.175-0.054-0.166-0.262-0.221-0.401z"></path>
<path fill="#fff" d="M13.723 6.556c0.175-0.164 0.515-0.054 0.583 0.168 0.004 0.262-0.311 0.365-0.515 0.266-0.192-0.052-0.22-0.324-0.068-0.434z"></path>
<path fill="#fff" d="M10.375 6.823c0.072-0.106 0.169-0.152 0.293-0.14 0.6-0.002 1.201 0.020 1.802 0.029 0.226 0.011 0.469-0.019 0.671 0.108-0.92 0.047-1.846 0.040-2.766 0.004z"></path>
<path fill="#fff" d="M10.139 7.040c0.319-0.154 0.682-0.073 1.022-0.086 0.738 0.025 1.478-0.042 2.215 0.025-0.311 0.166-0.673 0.090-1.009 0.106-0.743-0.023-1.49 0.046-2.228-0.044z"></path>
<path fill="#fff" d="M10.505 7.242c0.878-0.056 1.759-0.011 2.639-0.025l-0.011 0.139c-0.7 0.001-1.399-0.001-2.1 0.004-0.181-0.008-0.385 0.028-0.528-0.118z"></path>
<path fill="#fff" d="M9.791 7.583c1.331 0.005 2.663 0.001 3.994 0.001 0.014 0.163 0.029 0.325 0.043 0.488-1.325-0.028-2.651-0.016-3.976-0.004-0.020-0.162-0.041-0.324-0.061-0.486z"></path>
<path fill="#fff" d="M11.681 11.38c0.070-0.001 0.208-0.004 0.276-0.005 0.077 0.185-0.329 0.188-0.276 0.005z"></path>
<path fill="#fff" d="M13.322 11.992c0.020-0.184 0.282-0.185 0.422-0.181 0.011 0.184-0.325 0.448-0.422 0.181z"></path>
<path fill="#fff" d="M9.755 12.3c0.242-0.012 0.211 0.138 0.109 0.318 0.121 0.089 0.242 0.179 0.36 0.274-0.090 0.011-0.27 0.032-0.359 0.044-0.022-0.116-0.066-0.349-0.088-0.466-0.131 0.256-0.485 0.648-0.070 0.839-0.073-0.012-0.22-0.037-0.293-0.049 0.042-0.178 0.050-0.359 0.010-0.539 0.114-0.137 0.23-0.272 0.33-0.421z"></path>
<path fill="#fff" d="M9.274 12.371c0.36-0.187 0.024 0.396 0 0z"></path>
<path fill="#fff" d="M10.129 12.503c0.15-0.097 0.236-0.065 0.258 0.096-0.149 0.097-0.234 0.065-0.258-0.096z"></path>
<path fill="#fff" d="M12.99 12.496c0.239-0.092 0.275 0.262 0.071 0.318-0.2 0.070-0.286-0.293-0.071-0.318z"></path>
<path fill="#fff" d="M13.654 12.596c0.103-0.166 0.204-0.162 0.305 0.011-0.097 0.17-0.199 0.167-0.305-0.011z"></path>
<path fill="#fff" d="M10.78 12.695c0.139 0.156 0.265 0.338 0.463 0.43l0.002 0.076c-0.276-0.002-0.553 0-0.83 0.001 0.164-0.136 0.284-0.31 0.365-0.506z"></path>
<path fill="#fff" d="M11.894 13.192c0.127-0.234 0.305-0.408 0.589-0.398 0.136 0.142 0.28 0.277 0.427 0.408-0.338-0.001-0.678 0-1.016-0.010z"></path>
<path fill="#fff" d="M13.253 12.856c0.070 0.084 0.070 0.084 0 0z"></path>
<path fill="#fff" d="M13.588 12.842c0.084 0.078 0.084 0.078 0 0z"></path>
<path fill="#fff" d="M10.471 15.158c0.079 0.058 0.079 0.058 0 0z"></path>
<path fill="#fff" d="M10.422 15.952c0.133-0.174 0.282 0.134 0.187 0.242-0.172 0.157-0.362-0.107-0.187-0.242z"></path>
<path fill="#fff" d="M9.115 16.908c0.193-0.216 0.51-0.164 0.767-0.198-0.098 0.224-0.268 0.394-0.502 0.474 0.001 0.16 0.002 0.32 0.006 0.482 0.353 0.095 0.68-0.15 1.038-0.094-0.163 0.397-0.568 0.52-0.964 0.478-0.18-0.121-0.356-0.247-0.524-0.382 0.040-0.253-0.035-0.571 0.179-0.761z"></path>
<path fill="#fff" d="M14.029 16.698c0.521 0.048 0.773 0.641 0.574 1.094-0.043-0.127-0.084-0.254-0.12-0.383-0.044 0.004-0.134 0.010-0.179 0.013-0.076-0.25-0.264-0.455-0.275-0.725z"></path>
<path fill="#fff" d="M13.127 17.297c0.121-0.22 0.266-0.424 0.444-0.6 0.005 0.202 0.008 0.404 0.013 0.607-0.115-0.002-0.343-0.006-0.457-0.007z"></path>
<path fill="#fff" d="M10.050 17.069c0.102-0.163 0.205-0.162 0.308 0.007-0.1 0.17-0.203 0.168-0.308-0.007z"></path>
<path fill="#fff" d="M9.618 17.452c0.064-0.228 0.576-0.308 0.658-0.077-0.193 0.098-0.446 0.064-0.658 0.077z"></path>
<path fill="#fff" d="M11.406 17.443c0.167-0.126 0.383 0.161 0.217 0.287-0.174 0.134-0.384-0.155-0.217-0.287z"></path>
<path fill="#fff" d="M12.17 17.78c0.112-0.203 0.293-0.329 0.522-0.356-0.017 0.116-0.038 0.232-0.065 0.346-0.115 0.002-0.343 0.007-0.457 0.011z"></path>
<path fill="#fff" d="M13.146 17.65c0.054-0.31 0.406-0.136 0.616-0.179-0.007 0.059-0.022 0.176-0.029 0.236-0.196-0.013-0.392-0.024-0.587-0.058z"></path>
<path fill="#fff" d="M13.598 17.917c0.209-0.068 0.604-0.126 0.745 0.044-0.205 0.074-0.618 0.143-0.745-0.044z"></path>
</svg>
