<!-- Generated by IcoMoon.io -->
<svg version="1.1" xmlns="http://www.w3.org/2000/svg" width="10" height="24" viewBox="0 0 10 24">
<title>regulatory--no-parking-bus-stop--g1</title>
<path fill="#231f20" d="M0.899 0h7.907c0.41 0.156 0.716 0.495 0.868 0.901v22.268c-0.137 0.346-0.368 0.652-0.7 0.831h-0.384c0.315-0.072 0.631-0.233 0.803-0.518 0.206-0.287 0.223-0.659 0.213-0.999 0-6.978-0-13.955 0-20.933 0.009-0.243-0.008-0.49-0.086-0.721-0.151-0.428-0.573-0.736-1.025-0.762-2.417-0.001-4.833 0.001-7.25-0.001-0.576 0.012-1.123 0.49-1.145 1.078-0.001 7.214 0.001 14.428-0.001 21.642-0.053 0.591 0.442 1.13 1.014 1.213h-0.419c-0.29-0.206-0.568-0.46-0.667-0.814-0.007-0.018-0.021-0.054-0.028-0.072v-22.198c0-0.002 0-0.005 0-0.007v-0.019c0.106-0.141 0.155-0.318 0.274-0.45 0.16-0.205 0.392-0.334 0.625-0.44z"></path>
<path fill="#231f20" d="M2.831 6.44c0.091-0.005 0.179-0.034 0.27-0.036 1.27 0.001 2.541 0 3.811 0.001 0.28 0.022 0.514 0.232 0.635 0.476 0.122 0.299 0.126 0.625 0.173 0.939 0.098 0.787 0.203 1.573 0.304 2.359 0.025 0.402-0.101 0.794-0.099 1.195 0.197 0.225 0.058 0.557 0.099 0.828-0.18 0-0.36-0-0.539 0-0 0.213 0 0.427 0 0.64-0.371 0-0.742 0-1.112 0-0-0.202 0-0.404 0-0.607-1.011 0-2.022 0-3.034 0-0 0.213 0 0.427 0 0.64-0.371 0-0.742 0-1.112 0-0-0.214 0-0.427 0-0.64-0.18-0-0.36 0-0.539 0 0.044-0.282-0.103-0.631 0.102-0.863-0.052-0.409-0.087-0.819-0.138-1.227 0.138-0.964 0.247-1.933 0.373-2.899 0.028-0.414 0.392-0.779 0.807-0.807M3.236 6.607c0 0.247 0 0.494 0 0.742 1.056 0 2.112 0 3.169 0 0-0.247 0-0.494 0-0.742-1.056 0-2.112 0-3.169 0M2.263 7.693c-0.066 0.649-0.175 1.296-0.206 1.948 0.854 0 1.708 0 2.561 0-0-0.721 0.001-1.443-0.001-2.164-0.782 0.103-1.573 0.114-2.354 0.217M5.056 7.517c0 0.708 0 1.416 0 2.124 0.865 0 1.731 0 2.596 0-0.055-0.664-0.116-1.331-0.211-1.989-0.796-0.030-1.587-0.125-2.385-0.134M6.375 10.784c0.018 0.053 0.029 0.107 0.036 0.162 0.121 0.171 0.394 0.198 0.514 0.009 0.126 0.2 0.459 0.163 0.531-0.062 0.088-0.189-0.084-0.387-0.274-0.407-0.053 0.018-0.107 0.029-0.161 0.037-0.031 0.032-0.061 0.064-0.091 0.096-0.033-0.032-0.065-0.064-0.098-0.096-0.054-0.009-0.108-0.021-0.16-0.037-0.162 0.023-0.274 0.134-0.297 0.297M2.371 10.517c-0.138 0.107-0.206 0.309-0.101 0.462 0.114 0.164 0.368 0.143 0.494 0.004 0.151 0.179 0.434 0.118 0.539-0.078 0.073-0.263-0.177-0.458-0.423-0.388-0.038 0.039-0.077 0.077-0.116 0.115-0.039-0.038-0.078-0.077-0.116-0.115-0.092-0-0.185-0-0.277-0.001M2.258 11.427c0 0.079 0 0.157 0 0.236 1.742 0 3.483 0 5.225 0 0-0.079 0-0.157 0-0.236-1.742 0-3.483 0-5.225 0z"></path>
<path fill="#231f20" d="M3.27 15.202c0.73-0.001 1.46 0.002 2.19-0.001 0.413 0.014 0.869 0.067 1.172 0.38 0.333 0.288 0.552 0.726 0.515 1.172 0.027 0.66-0.449 1.297-1.092 1.453-0.313-0.316-0.636-0.623-0.939-0.948 0.318-0.018 0.724 0.088 0.953-0.199 0.262-0.306 0.017-0.815-0.373-0.842-0.483-0.008-0.967-0.001-1.45-0.003 0 0.059-0 0.117 0.002 0.176-0.336-0.314-0.655-0.647-0.979-0.972 0.001-0.072 0.001-0.144 0.002-0.215z"></path>
<path fill="#231f20" d="M3.269 16.644c0.544 0.552 1.131 1.059 1.659 1.626-0.227-0.003-0.454 0-0.681-0.001-0 0.596 0 1.191 0 1.787-0.326 0-0.652 0-0.978 0-0.001-1.137 0.001-2.275-0.001-3.412z"></path>
<path fill="#fff" d="M0.101 1.144c0.022-0.588 0.569-1.066 1.145-1.078 2.417 0.002 4.833 0 7.25 0.001 0.451 0.026 0.874 0.333 1.025 0.762 0.079 0.232 0.095 0.478 0.086 0.721-0.001 6.978-0 13.955-0 20.933 0.009 0.34-0.008 0.712-0.213 0.999-0.172 0.285-0.488 0.445-0.803 0.518h-7.477c-0.571-0.084-1.067-0.623-1.014-1.213 0.002-7.214 0-14.428 0.001-21.642M1.057 0.315c-0.365 0.071-0.679 0.389-0.72 0.762 0 7.304 0 14.608 0 21.912 0.047 0.424 0.448 0.782 0.876 0.775 2.438-0.003 4.877 0.001 7.316-0.002 0.459-0.032 0.838-0.45 0.842-0.908-0.001-7.214-0.001-14.428 0-21.642-0.004-0.491-0.447-0.937-0.944-0.91-2.457 0.010-4.915-0.015-7.37 0.013z"></path>
<path fill="#fff" d="M1.091 0.618c2.455-0.026 4.913-0.002 7.369-0.012 0.313-0.013 0.593 0.263 0.607 0.573 0 7.237 0 14.474 0 21.71-0.014 0.288-0.251 0.544-0.538 0.572-2.461-0.002-4.922 0.003-7.383-0.002-0.345-0.033-0.545-0.383-0.539-0.705 0-7.135 0-14.271 0-21.406-0.004-0.312 0.148-0.664 0.485-0.73M4.465 0.766c-0.898 0.146-1.711 0.779-2.030 1.637-0.386 0.97-0.049 2.148 0.764 2.793 0.98 0.832 2.55 0.818 3.515-0.031 0.824-0.677 1.127-1.909 0.678-2.883-0.472-1.104-1.759-1.738-2.927-1.516M2.831 6.44c-0.415 0.028-0.779 0.393-0.807 0.807-0.126 0.966-0.236 1.935-0.373 2.899 0.050 0.408 0.085 0.819 0.138 1.227-0.206 0.232-0.058 0.58-0.102 0.863 0.18 0 0.36-0 0.539 0 0 0.213-0 0.427 0 0.64 0.371 0 0.742 0 1.112 0 0-0.214-0-0.427 0-0.64 1.011 0 2.022 0 3.034 0 0 0.202-0 0.404 0 0.607 0.371 0 0.742 0 1.112 0 0-0.214-0-0.427 0-0.64 0.18-0 0.359 0 0.539 0-0.041-0.272 0.097-0.603-0.099-0.828-0.001-0.4 0.125-0.792 0.099-1.195-0.101-0.786-0.205-1.572-0.304-2.359-0.047-0.314-0.051-0.641-0.173-0.939-0.121-0.244-0.355-0.454-0.635-0.476-1.27-0-2.54 0.001-3.811-0.001-0.091 0.001-0.179 0.031-0.27 0.036M4.53 13.632c-0.717 0.053-1.418 0.308-2.003 0.727-1.144 0.793-1.785 2.242-1.632 3.621 0.067 0.784 0.385 1.543 0.884 2.15 0.635 0.788 1.598 1.292 2.602 1.406 0.239 0.006 0.478 0.079 0.716 0.012 1.479-0.056 2.861-1.052 3.413-2.422 0.476-1.163 0.378-2.548-0.282-3.623-0.751-1.256-2.244-2.003-3.698-1.872M6.611 21.786c-0.029 0.157 0.039 0.308 0.071 0.46-1.654 0.003-3.308 0-4.962 0.002-0.001 0.213-0.001 0.426-0 0.64 1.655 0.002 3.309-0.002 4.964 0.002-0.033 0.12-0.070 0.24-0.1 0.361 0.021 0.038 0.043 0.076 0.064 0.114 0.042-0.001 0.083-0.003 0.125-0.007 0.408-0.247 0.786-0.54 1.19-0.793-0.381-0.267-0.763-0.533-1.152-0.787-0.057-0.042-0.157-0.063-0.199 0.010z"></path>
<path fill="#fff" d="M4.529 0.925c1.16-0.208 2.431 0.494 2.79 1.633 0.347 0.989-0.109 2.15-0.995 2.689-0.991 0.65-2.426 0.492-3.234-0.381-0.536-0.55-0.77-1.377-0.584-2.125 0.217-0.947 1.071-1.679 2.023-1.817M3.733 1.88c-0.112 0.13-0.037 0.366 0.14 0.386 0.252 0.030 0.508 0.007 0.762 0.013 0.006 0.701 0.001 1.402 0.003 2.103 0.004 0.098 0.003 0.205 0.060 0.291 0.094 0.161 0.359 0.171 0.466 0.019 0.072-0.098 0.068-0.227 0.071-0.343-0.002-0.688 0.001-1.377-0.002-2.065 0.273-0.023 0.555 0.033 0.822-0.035 0.228-0.083 0.155-0.457-0.088-0.454-0.618-0.022-1.237-0.002-1.856-0.010-0.129 0.003-0.286-0.011-0.38 0.095z"></path>
<path fill="#fff" d="M3.236 6.607c1.056 0 2.112 0 3.169 0 0 0.247 0 0.494 0 0.742-1.056 0-2.112 0-3.169 0 0-0.247 0-0.494 0-0.742z"></path>
<path fill="#fff" d="M2.263 7.693c0.782-0.102 1.572-0.114 2.354-0.217 0.001 0.721 0 1.443 0.001 2.164-0.854 0-1.708 0-2.561 0 0.032-0.651 0.14-1.298 0.206-1.948z"></path>
<path fill="#fff" d="M5.056 7.517c0.798 0.009 1.589 0.104 2.385 0.134 0.095 0.658 0.156 1.326 0.211 1.989-0.865 0-1.731 0-2.596 0 0-0.708 0-1.416 0-2.124z"></path>
<path fill="#fff" d="M6.375 10.784c0.023-0.163 0.134-0.274 0.297-0.297 0.052 0.017 0.106 0.028 0.16 0.037 0.033 0.032 0.065 0.064 0.098 0.096 0.030-0.032 0.060-0.065 0.091-0.096 0.055-0.008 0.109-0.019 0.161-0.037 0.19 0.020 0.362 0.218 0.274 0.407-0.072 0.224-0.405 0.262-0.531 0.062-0.12 0.189-0.393 0.161-0.514-0.009-0.007-0.055-0.018-0.11-0.036-0.162z"></path>
<path fill="#fff" d="M2.371 10.517c0.092 0 0.185 0 0.277 0.001 0.038 0.039 0.077 0.077 0.116 0.115 0.039-0.038 0.078-0.077 0.116-0.115 0.246-0.070 0.497 0.125 0.423 0.388-0.105 0.196-0.388 0.257-0.539 0.078-0.127 0.139-0.38 0.16-0.494-0.004-0.104-0.153-0.037-0.356 0.101-0.462z"></path>
<path fill="#fff" d="M2.258 11.427c1.742 0 3.483 0 5.225 0 0 0.079 0 0.157 0 0.236-1.742 0-3.483 0-5.225 0 0-0.079 0-0.157 0-0.236z"></path>
<path fill="#fff" d="M4.469 14.479c1.096-0.142 2.241 0.363 2.89 1.252 0.815 1.078 0.809 2.69-0.023 3.757-0.426-0.428-0.856-0.853-1.28-1.283 0.643-0.156 1.119-0.793 1.092-1.453 0.036-0.447-0.182-0.884-0.515-1.172-0.303-0.313-0.759-0.366-1.172-0.38-0.73 0.003-1.46 0-2.19 0.001-0.001 0.071-0.001 0.143-0.002 0.215-0.093-0.113-0.262-0.205-0.298-0.337 0.438-0.321 0.958-0.538 1.499-0.601z"></path>
<path fill="#fff" d="M2.337 15.702c0.308 0.317 0.633 0.619 0.932 0.942 0.002 1.137 0 2.275 0.001 3.412 0.326 0 0.652 0 0.978 0 0-0.596-0-1.191 0-1.787 0.227 0.001 0.454-0.002 0.681 0.001 0.616 0.592 1.212 1.208 1.82 1.809-0.922 0.707-2.241 0.856-3.276 0.314-0.87-0.401-1.514-1.247-1.695-2.186-0.189-0.867 0.039-1.795 0.56-2.507z"></path>
<path fill="#fff" d="M4.246 16.213c0.483 0.002 0.967-0.005 1.45 0.003 0.39 0.027 0.635 0.536 0.373 0.842-0.229 0.287-0.635 0.181-0.953 0.199-0.297-0.28-0.589-0.571-0.869-0.868-0.002-0.059-0.002-0.117-0.002-0.176z"></path>
<path fill="#fff" d="M0 23.114c0.007 0.018 0.021 0.054 0.028 0.072l-0.028-0.012v-0.060z"></path>
<path fill="#bf2e1a" d="M1.057 0.315c2.455-0.028 4.913-0.002 7.37-0.013 0.497-0.027 0.94 0.419 0.944 0.91-0.001 7.214-0.001 14.428 0 21.642-0.004 0.458-0.382 0.877-0.842 0.908-2.439 0.003-4.878-0.001-7.316 0.002-0.428 0.007-0.829-0.351-0.876-0.775 0-7.304 0-14.608 0-21.912 0.041-0.373 0.355-0.691 0.72-0.762M1.091 0.618c-0.337 0.065-0.489 0.418-0.485 0.73 0 7.136 0 14.271 0 21.406-0.006 0.322 0.194 0.672 0.539 0.705 2.461 0.005 4.922 0 7.383 0.002 0.287-0.029 0.524-0.284 0.538-0.572 0-7.236 0-14.473 0-21.71-0.014-0.31-0.294-0.587-0.607-0.573-2.456 0.010-4.915-0.014-7.369 0.012z"></path>
<path fill="#bf2e1a" d="M4.53 13.632c1.453-0.131 2.947 0.616 3.698 1.872 0.66 1.074 0.758 2.459 0.282 3.623-0.552 1.37-1.934 2.366-3.413 2.422-0.237 0.066-0.477-0.007-0.716-0.012-1.003-0.114-1.967-0.618-2.602-1.406-0.499-0.607-0.817-1.366-0.884-2.15-0.153-1.379 0.488-2.828 1.632-3.621 0.584-0.418 1.286-0.673 2.003-0.727M4.469 14.479c-0.541 0.063-1.061 0.28-1.499 0.601 0.037 0.132 0.206 0.225 0.298 0.337 0.325 0.326 0.643 0.658 0.979 0.972 0.28 0.297 0.571 0.589 0.869 0.868 0.303 0.325 0.626 0.632 0.939 0.948 0.425 0.429 0.854 0.854 1.28 1.283 0.832-1.067 0.838-2.679 0.023-3.757-0.649-0.889-1.794-1.393-2.89-1.252M2.337 15.702c-0.521 0.712-0.749 1.64-0.56 2.507 0.18 0.938 0.824 1.785 1.695 2.186 1.036 0.542 2.354 0.392 3.276-0.314-0.608-0.602-1.203-1.218-1.82-1.809-0.529-0.567-1.115-1.074-1.659-1.626-0.299-0.324-0.624-0.626-0.932-0.942z"></path>
<path fill="#bf2e1a" d="M6.611 21.786c0.042-0.073 0.141-0.052 0.199-0.010 0.389 0.254 0.772 0.52 1.152 0.787-0.404 0.253-0.782 0.547-1.19 0.793-0.041 0.004-0.083 0.006-0.125 0.007-0.022-0.038-0.043-0.076-0.064-0.114 0.031-0.121 0.068-0.24 0.1-0.361-1.655-0.003-3.309 0-4.964-0.002-0-0.213-0-0.427 0-0.64 1.654-0.001 3.308 0.002 4.962-0.002-0.032-0.151-0.1-0.302-0.071-0.46z"></path>
<path fill="#000" d="M4.465 0.766c1.168-0.222 2.454 0.412 2.927 1.516 0.45 0.973 0.147 2.206-0.678 2.883-0.965 0.849-2.535 0.863-3.515 0.031-0.813-0.645-1.15-1.823-0.764-2.793 0.32-0.858 1.132-1.491 2.030-1.637M4.529 0.925c-0.952 0.138-1.806 0.869-2.023 1.817-0.186 0.748 0.049 1.574 0.584 2.125 0.809 0.872 2.244 1.031 3.234 0.381 0.886-0.539 1.342-1.7 0.995-2.689-0.36-1.138-1.63-1.841-2.79-1.633z"></path>
<path fill="#000" d="M3.733 1.88c0.094-0.107 0.251-0.092 0.38-0.095 0.619 0.008 1.238-0.012 1.856 0.010 0.242-0.003 0.316 0.371 0.088 0.454-0.267 0.068-0.549 0.012-0.822 0.035 0.003 0.688-0 1.377 0.002 2.065-0.003 0.116 0.001 0.244-0.071 0.343-0.107 0.152-0.372 0.143-0.466-0.019-0.057-0.086-0.056-0.192-0.060-0.291-0.002-0.701 0.004-1.402-0.003-2.103-0.254-0.006-0.51 0.017-0.762-0.013-0.177-0.020-0.252-0.256-0.14-0.386z"></path>
</svg>
