<!-- Generated by IcoMoon.io -->
<svg version="1.1" xmlns="http://www.w3.org/2000/svg" width="30" height="24" viewBox="0 0 30 24">
<title>regulatory--building-direction--g1</title>
<path fill="#dbdbdb" opacity="0.86" d="M1.648 0h0.179c-0.054 0.020-0.163 0.060-0.217 0.080l0.038-0.080z"></path>
<path fill="#231f20" d="M1.827 0h26.637c0.055 0.020 0.163 0.060 0.217 0.080 0.557 0.224 1.079 0.561 1.419 1.068v22.091c-0.225 0.263-0.463 0.517-0.71 0.761h-0.793c0.779-0.241 1.402-0.961 1.405-1.793-0.003-6.671-0.003-13.342-0.001-20.013-0.011-0.842-0.638-1.681-1.493-1.813-0.527-0.123-1.072-0.076-1.608-0.081-8.169 0.001-16.338-0.001-24.506 0.001-1.022-0.026-2.032 0.738-2.092 1.794-0.002 6.702-0.006 13.405 0.002 20.107 0.001 0.842 0.623 1.516 1.38 1.798h-0.772c-0.416-0.377-0.701-0.872-0.912-1.387v-20.971c0.005-0.008 0.014-0.023 0.018-0.031 0.312-0.702 0.857-1.277 1.592-1.531 0.054-0.020 0.163-0.060 0.217-0.080z"></path>
<path fill="#231f20" d="M2.134 0.636c0.319-0.054 0.644-0.036 0.966-0.038 8.269 0.008 16.538-0.007 24.807 0.008 0.909-0.037 1.763 0.659 1.793 1.589 0.002 6.636-0.003 13.273 0.002 19.909 0.028 0.749-0.573 1.442-1.29 1.591-8.772 0.011-17.545 0.003-26.318 0.004-0.88-0.002-1.495-0.874-1.496-1.696 0.007-6.569-0.004-13.139 0.005-19.709 0.004-0.829 0.687-1.621 1.531-1.658M1.5 2.395c0 6.538 0 13.076 0 19.614-0.009 0.25 0.142 0.462 0.227 0.687 0.406 0.16 0.848 0.095 1.273 0.104 8.37 0 16.739-0.001 25.109 0.001 0.39 0.043 0.736-0.302 0.692-0.692-0.002-6.606-0.002-13.212 0-19.818 0.033-0.278-0.169-0.492-0.323-0.696-8.797 0.014-17.594-0.003-26.39 0.008-0.427-0.008-0.593 0.43-0.588 0.792z"></path>
<path fill="#231f20" d="M2.8 4.1c0.321 0 0.643 0 0.965-0.003 0.364 0.287 0.48 0.756 0.438 1.203-0.048 0.636 0.166 1.391-0.324 1.906-0.36-0.008-0.719-0.007-1.079-0.006 0-1.033 0-2.067 0-3.1M3.304 4.566c-0.007 0.723-0.007 1.445 0 2.168 0.137-0.035 0.291-0.045 0.385-0.166 0.027-0.582 0.012-1.166 0.008-1.748 0.010-0.202-0.251-0.215-0.393-0.254z"></path>
<path fill="#231f20" d="M4.7 4.1c0.4 0 0.8 0 1.2 0 0 0.167 0 0.333 0 0.5-0.233 0-0.467 0-0.7 0 0 0.233 0 0.466 0 0.699 0.167 0.001 0.333 0.001 0.5 0.002 0 0.166 0 0.332 0 0.498-0.167 0.001-0.333 0.001-0.5 0.002 0 0.3 0 0.599 0 0.899 0.267 0 0.533 0 0.8 0 0 0.167 0 0.333 0 0.5-0.433 0-0.867 0-1.3 0 0-1.033 0-2.067 0-3.1z"></path>
<path fill="#231f20" d="M6.624 4.086c0.295 0.003 0.592 0.022 0.874 0.118 0.049 0.2 0.094 0.401 0.132 0.604-0.238-0.016-0.559 0.071-0.615-0.254-0.438 0.509-0.336 1.306-0.22 1.933-0.012 0.189 0.145 0.288 0.288 0.371 0.009-0.153 0.017-0.306 0.024-0.458 0.164 0 0.328 0 0.493 0 0 0.184 0 0.368 0 0.552-0.118 0.118-0.235 0.237-0.351 0.358-0.337 0.014-0.852-0.020-0.886-0.455-0.176-0.904-0.293-1.976 0.261-2.769z"></path>
<path fill="#231f20" d="M8.435 4.098c0.214 0.001 0.429 0 0.644-0.002 0.621 0.708 0.451 1.75 0.331 2.603-0.022 0.557-0.751 0.805-1.134 0.425-0.422-0.59-0.239-1.351-0.278-2.027-0.026-0.386 0.143-0.752 0.437-0.999M8.499 5.092c0.044 0.592-0.159 1.266 0.253 1.768 0.383-0.635 0.294-1.438 0.114-2.125-0.201-0.382-0.404 0.137-0.367 0.357z"></path>
<path fill="#231f20" d="M9.9 4.103c0.166-0.003 0.333-0.006 0.499-0.009 0.157 0.427 0.309 0.857 0.496 1.273 0.014-0.422 0.003-0.845 0.005-1.267 0.133 0 0.266 0 0.4 0 0 1.032 0 2.065 0 3.097-0.133 0.003-0.266 0.007-0.399 0.011-0.213-0.478-0.297-0.999-0.487-1.485-0.031 0.492-0.009 0.985-0.014 1.477-0.167 0-0.333 0-0.5 0 0-1.032 0-2.065 0-3.097z"></path>
<path fill="#231f20" d="M11.6 4.1c0.433 0 0.867 0 1.3 0 0 0.166 0 0.332 0 0.498-0.133 0.001-0.267 0.003-0.4 0.004 0 0.866 0 1.732 0 2.598-0.167 0-0.333 0-0.5 0 0-0.866 0-1.732 0-2.598-0.133-0.001-0.267-0.003-0.4-0.004 0-0.166 0-0.332 0-0.498z"></path>
<path fill="#231f20" d="M13.612 4.097c0.155 0.001 0.309 0.002 0.464 0.003 0.184 1.038 0.432 2.063 0.643 3.095-0.17 0.004-0.34 0.007-0.51 0.010-0.101-0.346-0.054-0.929-0.583-0.825-0.043 0.275-0.106 0.546-0.149 0.821-0.166-0.001-0.333-0.002-0.5-0.004 0.204-1.035 0.386-2.076 0.635-3.1M13.816 5.642c-0.217 0.372 0.362 0.102 0 0z"></path>
<path fill="#231f20" d="M15 4.1c0.156 0 0.312 0 0.468 0 0.081 0.303 0.141 0.632 0.368 0.866 0.091-0.291 0.186-0.581 0.287-0.868 0.159 0.001 0.318 0.002 0.477 0.003 0 1.033 0 2.066 0 3.099-0.167 0-0.334 0-0.5 0-0.003-0.458 0.011-0.917-0.008-1.374-0.103 0.28-0.211 0.559-0.326 0.835-0.082-0.247-0.16-0.495-0.253-0.738-0.027 0.425-0.011 0.851-0.013 1.277-0.167 0-0.333 0-0.5 0 0-1.033 0-2.067 0-3.1z"></path>
<path fill="#231f20" d="M17.1 4.1c0.167 0 0.333 0 0.5 0 0 1.033 0 2.067 0 3.1-0.167 0-0.333 0-0.5 0 0-1.033 0-2.067 0-3.1z"></path>
<path fill="#231f20" d="M18.2 4.1c0.156 0 0.312 0 0.468 0 0.117 0.432 0.255 0.859 0.424 1.274 0.019-0.424 0.006-0.849 0.008-1.274 0.166 0 0.333 0 0.5 0 0 1.033 0 2.066 0 3.099-0.158 0.001-0.316 0.002-0.474 0.003-0.184-0.488-0.321-0.993-0.517-1.476-0.022 0.491-0.005 0.983-0.009 1.474-0.133 0-0.267 0-0.4 0 0-1.033 0-2.067 0-3.1z"></path>
<path fill="#231f20" d="M20.512 4.097c0.154 0.001 0.309 0.002 0.464 0.003 0.203 1.038 0.393 2.080 0.633 3.109-0.588 0.175-0.649-0.386-0.718-0.814-0.123 0.002-0.246 0.004-0.368 0.005-0.043 0.268-0.104 0.532-0.146 0.8-0.166 0-0.331-0.001-0.497-0.001 0.144-1.046 0.387-2.076 0.632-3.102M20.744 5.624c-0.377 0.332 0.3 0.3 0 0z"></path>
<path fill="#231f20" d="M21.7 4.1c0.4 0 0.8 0 1.2 0 0 0.166 0 0.332 0 0.498-0.134 0.001-0.267 0.003-0.4 0.004 0 0.866 0 1.732 0 2.598-0.167 0-0.334 0-0.5 0 0-0.865 0-1.73 0-2.595-0.075-0.002-0.225-0.008-0.301-0.010 0-0.165 0.001-0.33 0.001-0.495z"></path>
<path fill="#231f20" d="M23.2 4.1c0.166 0 0.333 0 0.5 0 0 1.033 0 2.067 0 3.1-0.167 0-0.334 0-0.5 0 0-1.033 0-2.067 0-3.1z"></path>
<path fill="#231f20" d="M24.426 4.205c0.404-0.207 1.107-0.148 1.131 0.419 0.133 0.878 0.331 2.005-0.392 2.678-0.177 0-0.353 0-0.53 0.001-0.328-0.267-0.476-0.685-0.438-1.101 0.046-0.669-0.142-1.393 0.229-1.997M24.836 4.6c-0.26 0.491-0.091 1.072-0.139 1.603 0.009 0.197-0.003 0.622 0.27 0.599 0.308-0.698 0.271-1.503-0.001-2.203-0.032 0-0.097 0.001-0.13 0.001z"></path>
<path fill="#231f20" d="M26.1 4.101c0.157-0.001 0.313-0.002 0.471-0.002 0.129 0.361 0.27 0.718 0.425 1.069 0.011-0.356 0.004-0.712 0.004-1.068 0.166 0 0.333 0 0.5 0 0 1.032 0 2.065 0 3.097-0.134 0.003-0.267 0.007-0.399 0.011-0.183-0.454-0.307-0.929-0.492-1.382-0.022 0.457-0.006 0.916-0.009 1.374-0.167 0-0.333 0-0.5 0 0-1.033 0-2.066 0-3.099z"></path>
<path fill="#231f20" d="M7.097 11.299c0.008-0.661 0.234-1.577 1.009-1.685 0.717-0.195 1.337 0.5 1.32 1.183-0.24 0.003-0.48 0.003-0.72 0.004-0.002-0.066-0.007-0.197-0.009-0.262-0.082-0.079-0.164-0.159-0.245-0.239-0.102 0-0.203-0.001-0.305-0.001-0.112 0.114-0.223 0.227-0.335 0.341-0.101 0.85-0.293 1.925 0.426 2.565 0.054-0.001 0.161-0.004 0.215-0.005 0.082-0.082 0.165-0.163 0.248-0.244 0-0.119 0-0.238 0-0.356 0.239 0 0.477 0 0.716 0.001 0.025 0.471-0.172 0.904-0.548 1.186-0.34 0.091-0.685 0.094-1.024 0.001-0.834-0.523-0.755-1.632-0.748-2.489z"></path>
<path fill="#231f20" d="M10.1 9.7c0.667 0 1.333 0 2 0 0 0.2 0 0.4 0 0.6-0.433 0-0.867 0-1.3 0 0 0.3 0 0.6 0 0.9 0.267 0 0.533 0 0.8 0 0 0.233 0 0.466 0 0.7-0.267 0-0.533 0-0.8 0 0 0.4 0 0.8 0 1.2 0.467 0 0.933 0 1.4 0 0 0.233 0 0.466 0 0.7-0.7 0-1.4 0-2.1 0 0-1.367 0-2.733 0-4.1z"></path>
<path fill="#231f20" d="M12.8 9.702c0.232-0.002 0.464-0.004 0.696-0.006 0.332 0.726 0.648 1.461 0.997 2.179 0.017-0.725 0.002-1.45 0.007-2.175 0.2 0 0.4 0 0.6 0 0 1.367 0 2.733 0 4.1-0.153 0-0.306 0-0.458 0-0.409-0.777-0.7-1.61-1.14-2.371-0.007 0.79 0.001 1.581-0.002 2.371-0.234 0-0.467 0-0.7 0 0-1.366 0-2.732 0-4.098z"></path>
<path fill="#231f20" d="M15.6 9.7c0.7 0 1.4 0 2.1 0 0 0.2 0 0.4 0 0.6-0.233 0-0.467 0-0.7 0 0 1.167 0 2.333 0 3.5-0.234 0-0.467 0-0.7 0 0-1.167 0-2.333 0-3.5-0.234 0-0.467 0-0.7 0 0-0.2 0-0.4 0-0.6z"></path>
<path fill="#231f20" d="M18.2 9.7c0.633 0 1.267 0 1.9 0 0 0.2 0 0.4 0 0.6-0.433 0-0.867 0-1.3 0 0 0.3 0 0.6 0 0.9 0.3 0 0.6 0 0.9 0 0 0.233 0 0.466 0 0.7-0.3 0-0.6 0-0.9 0 0 0.4 0 0.8 0 1.2 0.5 0 1 0 1.5 0 0 0.233 0 0.466 0 0.7-0.7 0-1.4 0-2.1 0 0-1.367 0-2.733 0-4.1z"></path>
<path fill="#231f20" d="M20.9 9.7c0.534 0.010 1.070-0.022 1.603 0.012 0.932 0.27 0.943 1.682 0.176 2.156 0.2 0.638 0.424 1.271 0.55 1.928-0.234 0.004-0.468 0.005-0.702 0.005-0.162-0.641-0.331-1.28-0.55-1.903-0.126 0.001-0.251 0.002-0.377 0.003-0.001 0.633 0 1.266 0 1.899-0.234 0-0.467 0-0.7 0 0-1.367 0-2.733 0-4.1M21.6 10.291c0 0.303 0 0.606 0 0.908 0.26 0.001 0.52 0.001 0.78 0.002 0.082-0.136 0.162-0.273 0.245-0.409-0.155-0.433-0.607-0.553-1.025-0.501z"></path>
<path fill="#231f20" d="M14.707 15.938c0.149-0.231 0.492-0.167 0.692-0.037 1.117 0.721 2.191 1.504 3.299 2.238 0 0.031 0 0.091 0 0.122-1.050 0.734-2.15 1.398-3.177 2.164-0.222 0.17-0.622 0.309-0.814 0.037-0.077-0.479 0.179-0.918 0.318-1.36-1.142-0.005-2.283-0.001-3.425-0.002 0-0.633 0-1.267 0-1.9 1.132 0 2.265-0.001 3.397 0.001-0.144-0.406-0.365-0.819-0.29-1.263z"></path>
<path fill="#fff" d="M28.464 0h0.18l0.037 0.080c-0.054-0.020-0.162-0.060-0.217-0.080z"></path>
<path fill="#fff" d="M0.302 2.095c0.060-1.056 1.070-1.82 2.092-1.794 8.168-0.002 16.337 0 24.506-0.001 0.536 0.005 1.081-0.042 1.608 0.081 0.855 0.132 1.482 0.971 1.493 1.813-0.002 6.671-0.002 13.342 0.001 20.013-0.003 0.832-0.626 1.552-1.405 1.793h-26.913c-0.757-0.282-1.379-0.956-1.38-1.798-0.008-6.702-0.004-13.405-0.002-20.107M2.134 0.636c-0.844 0.037-1.527 0.829-1.531 1.658-0.009 6.57 0.002 13.14-0.005 19.709 0.001 0.822 0.616 1.694 1.496 1.696 8.773-0.001 17.546 0.007 26.318-0.004 0.717-0.149 1.318-0.842 1.29-1.591-0.005-6.636 0-13.273-0.002-19.909-0.030-0.93-0.884-1.626-1.793-1.589-8.269-0.015-16.538 0-24.807-0.008-0.322 0.002-0.647-0.016-0.966 0.038z"></path>
<path fill="#fff" d="M0 1.624l0.018-0.013c-0.004 0.008-0.013 0.023-0.018 0.031v-0.018z"></path>
<path fill="#fff" d="M1.5 2.395c-0.005-0.362 0.161-0.8 0.588-0.792 8.796-0.011 17.593 0.006 26.39-0.008 0.154 0.204 0.356 0.418 0.323 0.696-0.002 6.606-0.002 13.212 0 19.818 0.044 0.39-0.302 0.735-0.692 0.692-8.37-0.002-16.739-0.001-25.109-0.001-0.425-0.009-0.867 0.056-1.273-0.104-0.085-0.225-0.236-0.437-0.227-0.687 0-6.538 0-13.076 0-19.614M2.8 4.1c0 1.033 0 2.067 0 3.1 0.36-0.001 0.719-0.002 1.079 0.006 0.49-0.515 0.276-1.27 0.324-1.906 0.042-0.447-0.074-0.916-0.438-1.203-0.322 0.003-0.644 0.003-0.965 0.003M4.7 4.1c0 1.033 0 2.067 0 3.1 0.433 0 0.867 0 1.3 0 0-0.167 0-0.333 0-0.5-0.267 0-0.533 0-0.8 0 0-0.3 0-0.599 0-0.899 0.167-0.001 0.333-0.001 0.5-0.002 0-0.166 0-0.332 0-0.498-0.167-0.001-0.333-0.001-0.5-0.002 0-0.233 0-0.466 0-0.699 0.233 0 0.467 0 0.7 0 0-0.167 0-0.333 0-0.5-0.4 0-0.8 0-1.2 0M6.624 4.086c-0.554 0.793-0.437 1.865-0.261 2.769 0.034 0.435 0.549 0.469 0.886 0.455 0.116-0.121 0.233-0.24 0.351-0.358 0-0.184 0-0.368 0-0.552-0.165 0-0.329 0-0.493 0-0.007 0.152-0.015 0.305-0.024 0.458-0.143-0.083-0.3-0.182-0.288-0.371-0.116-0.627-0.218-1.424 0.22-1.933 0.056 0.325 0.377 0.238 0.615 0.254-0.038-0.203-0.083-0.404-0.132-0.604-0.282-0.096-0.579-0.115-0.874-0.118M8.435 4.098c-0.294 0.247-0.463 0.613-0.437 0.999 0.039 0.676-0.144 1.437 0.278 2.027 0.383 0.38 1.112 0.132 1.134-0.425 0.12-0.853 0.29-1.895-0.331-2.603-0.215 0.002-0.43 0.003-0.644 0.002M9.9 4.103c0 1.032 0 2.065 0 3.097 0.167 0 0.333 0 0.5 0 0.005-0.492-0.017-0.985 0.014-1.477 0.19 0.486 0.274 1.007 0.487 1.485 0.133-0.004 0.266-0.008 0.399-0.011 0-1.032 0-2.065 0-3.097-0.134 0-0.267 0-0.4 0-0.002 0.422 0.009 0.845-0.005 1.267-0.187-0.416-0.339-0.846-0.496-1.273-0.166 0.003-0.333 0.006-0.499 0.009M11.6 4.1c0 0.166 0 0.332 0 0.498 0.133 0.001 0.267 0.003 0.4 0.004 0 0.866 0 1.732 0 2.598 0.167 0 0.333 0 0.5 0 0-0.866 0-1.732 0-2.598 0.133-0.001 0.267-0.003 0.4-0.004 0-0.166 0-0.332 0-0.498-0.433 0-0.867 0-1.3 0M13.612 4.097c-0.249 1.024-0.431 2.065-0.635 3.1 0.167 0.002 0.334 0.003 0.5 0.004 0.043-0.275 0.106-0.546 0.149-0.821 0.529-0.104 0.482 0.479 0.583 0.825 0.17-0.003 0.34-0.006 0.51-0.010-0.211-1.032-0.459-2.057-0.643-3.095-0.155-0.001-0.309-0.002-0.464-0.003M15 4.1c0 1.033 0 2.067 0 3.1 0.167 0 0.333 0 0.5 0 0.002-0.426-0.014-0.852 0.013-1.277 0.093 0.243 0.171 0.491 0.253 0.738 0.115-0.276 0.223-0.555 0.326-0.835 0.019 0.457 0.005 0.916 0.008 1.374 0.166 0 0.333 0 0.5 0 0-1.033 0-2.066 0-3.099-0.159-0.001-0.318-0.002-0.477-0.003-0.101 0.287-0.196 0.577-0.287 0.868-0.227-0.234-0.287-0.563-0.368-0.866-0.156 0-0.312 0-0.468 0M17.1 4.1c0 1.033 0 2.067 0 3.1 0.167 0 0.333 0 0.5 0 0-1.033 0-2.067 0-3.1-0.167 0-0.333 0-0.5 0M18.2 4.1c0 1.033 0 2.067 0 3.1 0.133 0 0.267 0 0.4 0 0.004-0.491-0.013-0.983 0.009-1.474 0.196 0.483 0.333 0.988 0.517 1.476 0.158-0.001 0.316-0.002 0.474-0.003 0-1.033 0-2.066 0-3.099-0.167 0-0.334 0-0.5 0-0.002 0.425 0.011 0.85-0.008 1.274-0.169-0.415-0.307-0.842-0.424-1.274-0.156 0-0.312 0-0.468 0M20.512 4.097c-0.245 1.026-0.488 2.056-0.632 3.102 0.166 0 0.331 0.001 0.497 0.001 0.042-0.268 0.103-0.532 0.146-0.8 0.122-0.001 0.245-0.003 0.368-0.005 0.069 0.428 0.13 0.989 0.718 0.814-0.24-1.029-0.43-2.071-0.633-3.109-0.155-0.001-0.31-0.002-0.464-0.003M21.7 4.1c0 0.165-0.001 0.33-0.001 0.495 0.076 0.002 0.226 0.008 0.301 0.010 0 0.865 0 1.73 0 2.595 0.166 0 0.333 0 0.5 0 0-0.866 0-1.732 0-2.598 0.133-0.001 0.266-0.003 0.4-0.004 0-0.166 0-0.332 0-0.498-0.4 0-0.8 0-1.2 0M23.2 4.1c0 1.033 0 2.067 0 3.1 0.166 0 0.333 0 0.5 0 0-1.033 0-2.067 0-3.1-0.167 0-0.334 0-0.5 0M24.426 4.205c-0.371 0.604-0.183 1.328-0.229 1.997-0.038 0.416 0.11 0.834 0.438 1.101 0.177-0.001 0.353-0.001 0.53-0.001 0.723-0.673 0.525-1.8 0.392-2.678-0.024-0.567-0.727-0.626-1.131-0.419M26.1 4.101c0 1.033 0 2.066 0 3.099 0.167 0 0.333 0 0.5 0 0.003-0.458-0.013-0.917 0.009-1.374 0.185 0.453 0.309 0.928 0.492 1.382 0.132-0.004 0.265-0.008 0.399-0.011 0-1.032 0-2.065 0-3.097-0.167 0-0.334 0-0.5 0 0 0.356 0.007 0.712-0.004 1.068-0.155-0.351-0.296-0.708-0.425-1.069-0.158 0-0.314 0.001-0.471 0.002M7.097 11.299c-0.007 0.857-0.086 1.966 0.748 2.489 0.339 0.093 0.684 0.090 1.024-0.001 0.376-0.282 0.573-0.715 0.548-1.186-0.239-0.001-0.477-0.001-0.716-0.001 0 0.118 0 0.237 0 0.356-0.083 0.081-0.166 0.162-0.248 0.244-0.054 0.001-0.161 0.004-0.215 0.005-0.719-0.64-0.527-1.715-0.426-2.565 0.112-0.114 0.223-0.227 0.335-0.341 0.102 0 0.203 0.001 0.305 0.001 0.081 0.080 0.163 0.16 0.245 0.239 0.002 0.065 0.007 0.196 0.009 0.262 0.24-0.001 0.48-0.001 0.72-0.004 0.017-0.683-0.603-1.378-1.32-1.183-0.775 0.108-1.001 1.024-1.009 1.685M10.1 9.7c0 1.367 0 2.733 0 4.1 0.7 0 1.4 0 2.1 0 0-0.234 0-0.467 0-0.7-0.467 0-0.933 0-1.4 0 0-0.4 0-0.8 0-1.2 0.267 0 0.533 0 0.8 0 0-0.234 0-0.467 0-0.7-0.267 0-0.533 0-0.8 0 0-0.3 0-0.6 0-0.9 0.433 0 0.867 0 1.3 0 0-0.2 0-0.4 0-0.6-0.667 0-1.333 0-2 0M12.8 9.702c0 1.366 0 2.732 0 4.098 0.233 0 0.466 0 0.7 0 0.003-0.79-0.005-1.581 0.002-2.371 0.44 0.761 0.731 1.594 1.14 2.371 0.152 0 0.305 0 0.458 0 0-1.367 0-2.733 0-4.1-0.2 0-0.4 0-0.6 0-0.005 0.725 0.010 1.45-0.007 2.175-0.349-0.718-0.665-1.453-0.997-2.179-0.232 0.002-0.464 0.004-0.696 0.006M15.6 9.7c0 0.2 0 0.4 0 0.6 0.233 0 0.466 0 0.7 0 0 1.167 0 2.333 0 3.5 0.233 0 0.466 0 0.7 0 0-1.167 0-2.333 0-3.5 0.233 0 0.467 0 0.7 0 0-0.2 0-0.4 0-0.6-0.7 0-1.4 0-2.1 0M18.2 9.7c0 1.367 0 2.733 0 4.1 0.7 0 1.4 0 2.1 0 0-0.234 0-0.467 0-0.7-0.5 0-1 0-1.5 0 0-0.4 0-0.8 0-1.2 0.3 0 0.6 0 0.9 0 0-0.234 0-0.467 0-0.7-0.3 0-0.6 0-0.9 0 0-0.3 0-0.6 0-0.9 0.433 0 0.867 0 1.3 0 0-0.2 0-0.4 0-0.6-0.633 0-1.267 0-1.9 0M20.9 9.7c0 1.367 0 2.733 0 4.1 0.233 0 0.466 0 0.7 0 0-0.633-0.001-1.266 0-1.899 0.126-0.001 0.251-0.002 0.377-0.003 0.219 0.623 0.388 1.262 0.55 1.903 0.234 0 0.468-0.001 0.702-0.005-0.126-0.657-0.35-1.29-0.55-1.928 0.767-0.474 0.756-1.886-0.176-2.156-0.533-0.034-1.069-0.002-1.603-0.012M14.707 15.938c-0.075 0.444 0.146 0.857 0.29 1.263-1.132-0.002-2.265-0.001-3.397-0.001 0 0.633 0 1.267 0 1.9 1.142 0.001 2.283-0.003 3.425 0.002-0.139 0.442-0.395 0.881-0.318 1.36 0.192 0.272 0.592 0.133 0.814-0.037 1.027-0.766 2.127-1.43 3.177-2.164 0-0.031 0-0.091 0-0.122-1.108-0.734-2.182-1.517-3.299-2.238-0.2-0.13-0.543-0.194-0.692 0.037z"></path>
<path fill="#fff" d="M3.304 4.566c0.142 0.039 0.403 0.052 0.393 0.254 0.004 0.582 0.019 1.166-0.008 1.748-0.094 0.121-0.248 0.131-0.385 0.166-0.007-0.723-0.007-1.445 0-2.168z"></path>
<path fill="#fff" d="M8.499 5.092c-0.037-0.22 0.166-0.739 0.367-0.357 0.18 0.687 0.269 1.49-0.114 2.125-0.412-0.502-0.209-1.176-0.253-1.768z"></path>
<path fill="#fff" d="M24.836 4.6c0.033 0 0.098-0.001 0.13-0.001 0.272 0.7 0.309 1.505 0.001 2.203-0.273 0.023-0.261-0.402-0.27-0.599 0.048-0.531-0.121-1.112 0.139-1.603z"></path>
<path fill="#fff" d="M13.816 5.642c0.362 0.102-0.217 0.372 0 0z"></path>
<path fill="#fff" d="M20.744 5.624c0.3 0.3-0.377 0.332 0 0z"></path>
<path fill="#fff" d="M21.6 10.291c0.418-0.052 0.87 0.068 1.025 0.501-0.083 0.136-0.163 0.273-0.245 0.409-0.26-0.001-0.52-0.001-0.78-0.002 0-0.302 0-0.605 0-0.908z"></path>
</svg>
