<!-- Generated by IcoMoon.io -->
<svg version="1.1" xmlns="http://www.w3.org/2000/svg" width="24" height="24" viewBox="0 0 24 24">
<title>regulatory--end-of-maximum-speed-limit-35--g2</title>
<path fill="#000" d="M10.991 0h2.014c0.171 0.030 0.342 0.053 0.515 0.072 3.122 0.376 6.050 2.062 7.971 4.547 1.44 1.82 2.283 4.071 2.51 6.373v2.010c-0.182 1.73-0.673 3.44-1.553 4.947-1.536 2.714-4.167 4.784-7.172 5.622-0.74 0.22-1.505 0.325-2.268 0.428h-2.011c-1.743-0.18-3.458-0.684-4.977-1.567-2.685-1.537-4.741-4.141-5.582-7.122-0.225-0.751-0.335-1.528-0.438-2.303v-2.014c0.1-0.764 0.208-1.53 0.427-2.27 0.788-2.818 2.655-5.313 5.129-6.875 1.624-1.055 3.515-1.652 5.435-1.85M9.066 0.585c-1.603 0.409-3.113 1.168-4.404 2.199-2.378 1.88-3.984 4.71-4.351 7.722-0.421 3.182 0.538 6.508 2.587 8.978 0.61-0.734 1.229-1.461 1.838-2.195 0.453-0.533 0.898-1.072 1.35-1.605 0.739-0.887 1.486-1.767 2.223-2.655 0.939-1.109 1.867-2.227 2.805-3.336 0.563-0.682 1.14-1.351 1.7-2.035 0.638-0.746 1.265-1.501 1.895-2.254 1.033-1.22 2.050-2.453 3.087-3.668-2.618-1.49-5.814-1.905-8.729-1.151M19.139 6.877c-0.166 0.17-0.322 0.352-0.454 0.549h-0.021c-0.638 0.765-1.283 1.524-1.919 2.291l-0.010-0.002c-0.856 1.049-1.743 2.073-2.603 3.119-1.026 1.218-2.059 2.433-3.068 3.664-0.681 0.798-1.373 1.593-2.018 2.419-0.967 1.089-1.886 2.231-2.827 3.346 2.672 1.538 5.966 1.92 8.932 1.094 1.511-0.418 2.935-1.145 4.162-2.12 2.392-1.881 4.007-4.72 4.376-7.743 0.422-3.181-0.537-6.507-2.585-8.977-0.651 0.789-1.328 1.56-1.965 2.359z"></path>
<path fill="#fff" d="M9.066 0.585c2.915-0.755 6.111-0.339 8.729 1.151-1.037 1.215-2.055 2.448-3.087 3.668-0.632 0.007-1.265-0.003-1.897 0.005-0.004 0.75-0.006 1.5 0.002 2.249-0.559 0.684-1.137 1.354-1.7 2.035 0.098-1.163-0.242-2.361-1.011-3.249-0.618-0.776-1.623-1.185-2.606-1.129-0.84 0.018-1.613 0.486-2.139 1.121-0.613 0.696-0.976 1.601-1.018 2.527 0.579 0.003 1.159 0.007 1.739-0.001 0.092-0.58 0.379-1.166 0.922-1.444 0.53-0.311 1.242-0.21 1.692 0.198 0.929 0.77 0.919 2.44-0.087 3.14-0.474 0.338-1.080 0.283-1.63 0.288-0.004 0.594-0.005 1.189 0 1.783 0.445 0.015 0.903-0.044 1.333 0.102-0.737 0.888-1.485 1.769-2.223 2.655-0.598-0.093-1.21-0.023-1.814-0.041 0.074 0.567 0.212 1.13 0.463 1.645-0.609 0.734-1.228 1.462-1.838 2.195-2.049-2.47-3.008-5.796-2.587-8.978 0.367-3.012 1.973-5.842 4.351-7.722 1.292-1.031 2.802-1.79 4.404-2.199z"></path>
<path fill="#fff" d="M19.139 6.877c0.637-0.799 1.314-1.57 1.965-2.359 2.048 2.47 3.007 5.796 2.585 8.977-0.369 3.022-1.985 5.862-4.376 7.743-1.227 0.975-2.651 1.702-4.162 2.12-2.966 0.826-6.259 0.444-8.932-1.094 0.941-1.115 1.86-2.257 2.827-3.346 1-0.438 1.73-1.378 2.018-2.419 1.009-1.231 2.042-2.446 3.068-3.664 0.106-0 0.213-0.005 0.32-0.006 0.234-0.492 0.621-0.974 1.183-1.086 0.441-0.071 0.935-0.028 1.307 0.24 0.361 0.27 0.475 0.737 0.574 1.153 0.198 1.026 0.103 2.087-0.107 3.104-0.074 0.405-0.388 0.747-0.787 0.849-0.554 0.147-1.212 0.122-1.668-0.261-0.367-0.308-0.524-0.783-0.622-1.237-0.58-0.007-1.161-0.005-1.741-0 0.079 0.886 0.319 1.809 0.935 2.48 0.936 0.955 2.463 1.443 3.723 0.863 1.115-0.555 1.901-1.692 2.043-2.928 0.118-1.101 0.113-2.218-0.007-3.318-0.148-1.369-1.116-2.742-2.539-2.969 0.636-0.767 1.281-1.526 1.919-2.291h0.021c0.151 0.004 0.302 0.003 0.453-0 0.004-0.183-0.001-0.366 0.001-0.549z"></path>
<path fill="#808080" d="M5.357 6.436c0.526-0.636 1.299-1.103 2.139-1.121 0.983-0.056 1.988 0.353 2.606 1.129 0.769 0.888 1.109 2.086 1.011 3.249-0.938 1.109-1.866 2.227-2.805 3.336-0.43-0.146-0.888-0.087-1.333-0.102-0.006-0.594-0.005-1.189-0-1.783 0.55-0.006 1.156 0.050 1.63-0.288 1.006-0.699 1.016-2.37 0.087-3.14-0.45-0.407-1.162-0.509-1.692-0.198-0.543 0.278-0.83 0.864-0.922 1.444-0.58 0.008-1.16 0.004-1.739 0.001 0.041-0.926 0.405-1.831 1.018-2.527z"></path>
<path fill="#808080" d="M12.811 5.408c0.632-0.008 1.265 0.003 1.897-0.005-0.63 0.752-1.257 1.508-1.895 2.254-0.008-0.75-0.006-1.5-0.002-2.249z"></path>
<path fill="#808080" d="M18.685 7.426c0.132-0.198 0.288-0.379 0.454-0.549-0.002 0.183 0.003 0.366-0.001 0.549-0.151 0.003-0.302 0.004-0.453 0z"></path>
<path fill="#808080" d="M16.735 9.715l0.010 0.002c1.423 0.227 2.391 1.6 2.539 2.969 0.12 1.101 0.125 2.217 0.007 3.318-0.142 1.237-0.928 2.373-2.043 2.928-1.26 0.581-2.787 0.093-3.723-0.863-0.616-0.67-0.856-1.594-0.935-2.48 0.58-0.005 1.161-0.006 1.741 0 0.098 0.453 0.255 0.928 0.622 1.237 0.456 0.383 1.115 0.408 1.668 0.261 0.399-0.102 0.713-0.444 0.787-0.849 0.21-1.016 0.306-2.078 0.107-3.104-0.099-0.416-0.213-0.883-0.574-1.153-0.372-0.268-0.866-0.311-1.307-0.24-0.562 0.112-0.949 0.593-1.183 1.086-0.107 0.001-0.214 0.005-0.32 0.006 0.86-1.046 1.747-2.070 2.603-3.119z"></path>
<path fill="#808080" d="M4.272 15.643c0.603 0.018 1.215-0.052 1.814 0.041-0.452 0.533-0.897 1.072-1.35 1.605-0.251-0.516-0.389-1.079-0.463-1.645z"></path>
<path fill="#808080" d="M9.046 18.917c0.645-0.826 1.336-1.621 2.018-2.419-0.288 1.042-1.018 1.981-2.018 2.419z"></path>
</svg>
