<?xml version="1.0" encoding="utf-8"?>
<!-- Generated by IcoMoon.io -->
<!DOCTYPE svg PUBLIC "-//W3C//DTD SVG 1.1//EN" "http://www.w3.org/Graphics/SVG/1.1/DTD/svg11.dtd">
<svg version="1.1" xmlns="http://www.w3.org/2000/svg" xmlns:xlink="http://www.w3.org/1999/xlink" width="24" height="24" viewBox="0 0 24 24">
<path fill="#ff1721" d="M11.655 0h0.787c2.788 0.095 5.522 1.196 7.603 3.053 2.211 1.957 3.637 4.758 3.955 7.692v2.6c-0.33 3.005-1.836 5.861-4.138 7.821-1.825 1.571-4.132 2.553-6.52 2.834h-2.593c-2.769-0.301-5.422-1.591-7.356-3.597-2.088-2.133-3.302-5.069-3.393-8.047v-0.705c0.15-2.119 0.79-4.214 1.928-6.015 1.72-2.788 4.656-4.783 7.881-5.358 0.615-0.092 1.219-0.273 1.846-0.278M10.792 4.112c-2.035 0.304-3.919 1.439-5.157 3.078 2.12 1.232 4.249 2.45 6.368 3.686 2.134-1.245 4.277-2.474 6.414-3.712-1.738-2.3-4.775-3.544-7.625-3.052M4.627 8.935c-1.124 2.645-0.678 5.873 1.138 8.102 1.285 1.627 3.229 2.698 5.281 2.964 0-2.454 0.004-4.908-0.002-7.362-2.138-1.236-4.273-2.478-6.417-3.704M13.053 12.583c0.001 2.469 0 4.939 0 7.408 1.176-0.164 2.32-0.568 3.319-1.213 1.811-1.154 3.113-3.070 3.528-5.175 0.32-1.566 0.138-3.221-0.477-4.694-2.127 1.218-4.249 2.445-6.37 3.674z"></path>
<path fill="#fff" d="M10.792 4.112c2.85-0.492 5.887 0.752 7.625 3.052-2.137 1.238-4.28 2.467-6.414 3.712-2.119-1.236-4.248-2.454-6.368-3.686 1.238-1.639 3.122-2.774 5.157-3.078M10.614 5.416c-0.246 0.292-0.455 0.614-0.706 0.902-0.179 0.172-0.513 0.276-0.482 0.58 0.050 0.371 0.1 0.743 0.097 1.119 0.093 0.005 0.186 0.010 0.28 0.015 0 0.261 0 0.523 0.002 0.785 0.144 0.001 0.288 0.002 0.432 0.003 0.003-0.231 0.004-0.462 0.004-0.692 1.196 0.066 2.397 0.095 3.591-0.015-0.001 0.234-0.001 0.469 0 0.703 0.146 0.001 0.292 0.001 0.438 0 0.001-0.26 0.001-0.52 0.001-0.781 0.066-0.001 0.198-0.002 0.265-0.003-0.008-0.383 0.052-0.761 0.089-1.14 0.020-0.169-0.105-0.31-0.24-0.391-0.425-0.263-0.601-0.79-0.992-1.077-0.925-0.027-1.853-0.007-2.779-0.008z"></path>
<path fill="#fff" d="M10.7 5.6c0.889-0.007 1.778-0.015 2.667 0.005 0.22 0.282 0.44 0.565 0.652 0.853-1.319-0.129-2.648-0.123-3.968-0.020 0.211-0.284 0.427-0.563 0.649-0.838z"></path>
<path fill="#fff" d="M9.732 6.755c0.221-0.222 0.652 0.046 0.518 0.342-0.049 0.214-0.362 0.295-0.518 0.147-0.155-0.114-0.157-0.375 0-0.489z"></path>
<path fill="#fff" d="M13.929 6.736c0.2-0.157 0.551 0.001 0.52 0.264 0.011 0.222-0.245 0.387-0.446 0.298-0.243-0.069-0.287-0.431-0.074-0.562z"></path>
<path fill="#fff" d="M10.631 7.008c0.253-0.012 0.505-0.015 0.758-0.016 0 0.245 0 0.489 0 0.734-0.378 0-0.756 0.007-1.134-0.015 0.099-0.247 0.237-0.476 0.376-0.703z"></path>
<path fill="#fff" d="M11.463 7c0.384 0 0.767 0 1.15 0-0.002 0.243-0.005 0.486-0.007 0.729-0.381 0-0.762 0-1.142 0-0.001-0.243-0.001-0.486-0.001-0.729z"></path>
<path fill="#fff" d="M12.692 6.994c0.241 0 0.483 0.001 0.724 0.003 0.15 0.228 0.294 0.461 0.406 0.712-0.379 0.025-0.758 0.017-1.137 0.016 0.002-0.244 0.004-0.487 0.007-0.731z"></path>
<path fill="#fff" d="M4.627 8.935c2.144 1.226 4.279 2.468 6.417 3.704 0.006 2.454 0.002 4.908 0.002 7.362-2.052-0.266-3.996-1.337-5.281-2.964-1.816-2.229-2.262-5.457-1.138-8.102M6.606 12.811c-0.018 0.229 0.156 0.401 0.339 0.506 0.042 0.099 0.082 0.199 0.12 0.299-0.357-0.030-0.723-0.074-1.065 0.061 0 0.041 0 0.123 0 0.164-0.279 0.003-0.539 0.102-0.761 0.266-0.045 0.248-0.179 0.504-0.089 0.757 0.123 0.399 0.611 0.631 0.997 0.464 0.274-0.088 0.39-0.369 0.542-0.585 0.010-0.080 0.029-0.238 0.038-0.318 0.132 0.18 0.372 0.358 0.241 0.606 0.606 0.007 1.247 0.097 1.797-0.222 0.121 0.261 0.313 0.533 0.624 0.566 0.399 0.089 0.664-0.263 0.93-0.49 0.004-0.159 0.006-0.317 0.009-0.475-0.107-0.137-0.212-0.274-0.323-0.407 0.014-0.092 0.029-0.184 0.041-0.277-0.471 0.003-0.942-0.005-1.412 0.035 0.112 0.103 0.243 0.182 0.376 0.254-0.053 0.064-0.158 0.191-0.211 0.255-0.059-0.039-0.177-0.117-0.236-0.156-0.007-0.155 0.019-0.342-0.127-0.444-0.348-0.311-0.671-0.731-1.178-0.751-0.037-0.091-0.077-0.179-0.121-0.265-0.157-0.165-0.495-0.076-0.531 0.157z"></path>
<path fill="#fff" d="M13.053 12.583c2.121-1.229 4.243-2.456 6.37-3.674 0.615 1.473 0.797 3.128 0.477 4.694-0.415 2.105-1.717 4.021-3.528 5.175-0.999 0.645-2.143 1.049-3.319 1.213 0-2.469 0.001-4.939 0-7.408M15.197 12.603c0.034 0.154 0.107 0.294 0.186 0.43-0.095-0.002-0.285-0.007-0.38-0.009 0 0.064-0.001 0.19-0.001 0.254 0.196 0.059 0.3 0.237 0.434 0.374 0.179 0.144 0.385 0.251 0.58 0.373-0.025 0.211-0.095 0.419-0.096 0.633 0.070 0.218 0.321 0.222 0.505 0.261-0.029 0.093-0.059 0.185-0.090 0.277 0.069 0 0.205 0.001 0.273 0.001-0.050-0.101-0.099-0.202-0.146-0.303 0.218-0.007 0.437-0.012 0.656-0.013 0.218 0.258 0.521 0.493 0.881 0.445 0.391-0.017 0.687-0.319 0.845-0.654 0.037-0.013 0.111-0.039 0.148-0.052 0-0.152 0-0.304 0.001-0.456-0.034-0.008-0.101-0.022-0.135-0.030-0.207-0.479-0.75-0.733-1.255-0.609l-0.005-0.218c-0.055 0.101-0.101 0.207-0.142 0.314-0.235 0.175-0.366 0.444-0.58 0.639 0.067-0.232 0.175-0.449 0.283-0.663-0.049-0.058-0.098-0.116-0.147-0.173-0.084 0.212-0.186 0.417-0.294 0.619-0.24-0.062-0.609-0.111-0.609-0.436 0.009-0.371-0.346-0.571-0.678-0.568l0.099-0.14c-0.068-0.053-0.204-0.159-0.272-0.212 0.294-0.020 0.591-0.011 0.885-0.052-0.306-0.094-0.632-0.057-0.946-0.032M16.9 12.734c0.059 0.155 0.174 0.259 0.343 0.313-0.048 0.088-0.146 0.263-0.195 0.351 0.174-0.070 0.318-0.187 0.462-0.303 0.144-0.052 0.227-0.159 0.24-0.314-0.284-0.008-0.567-0.033-0.85-0.047M13.983 13.783c-0.149 0.346-0.308 0.757-0.102 1.116 0.228 0.478 0.908 0.632 1.319 0.298 0.272-0.183 0.319-0.523 0.434-0.805-0.024-0.407-0.386-0.641-0.53-0.996l-0.020 0.167c-0.373-0.112-0.824-0.082-1.101 0.22z"></path>
<path fill="#fff" d="M6.504 13.75c0.091-0.037 0.348-0.005 0.271 0.141-0.109 0.135-0.538-0.014-0.271-0.141z"></path>
<path fill="#fff" d="M14.268 13.866c0.22-0.080 0.452-0.1 0.681-0.054-0.078 0.169-0.149 0.343-0.245 0.503-0.238-0.018-0.295-0.3-0.436-0.449z"></path>
<path fill="#fff" d="M17.733 13.781c0.417-0.074 0.822 0.178 0.917 0.593-0.131 0.002-0.262 0.004-0.392 0.004-0.109-0.090-0.226-0.167-0.351-0.23-0.060-0.121-0.117-0.244-0.174-0.367z"></path>
<path fill="#fff" d="M15.057 13.868c0.152 0.159 0.268 0.347 0.329 0.561-0.199 0.005-0.398 0.005-0.596 0.001 0.085-0.189 0.174-0.376 0.267-0.562z"></path>
<path fill="#fff" d="M17.255 14.287c0.078-0.193 0.205-0.357 0.379-0.473 0.057 0.156 0.111 0.314 0.157 0.475-0.179 0.003-0.357 0.002-0.536-0.002z"></path>
<path fill="#fff" d="M6.899 14.090c0.246 0.062 0.229 0.316 0.22 0.518-0.113-0.154-0.22-0.319-0.22-0.518z"></path>
<path fill="#fff" d="M14.010 14.695c-0.111-0.274 0.020-0.558 0.187-0.775 0.094 0.134 0.187 0.268 0.278 0.404 0.013 0.131-0.010 0.398 0.205 0.308 0.22-0.112 0.464-0.12 0.705-0.101-0.084 0.181-0.14 0.399-0.321 0.513-0.357 0.26-0.928 0.078-1.054-0.349z"></path>
<path fill="#fff" d="M5.562 14.552c0.040-0.16 0.208-0.17 0.341-0.187-0.245 0.129-0.272 0.6 0.103 0.442 0.010-0.080 0.030-0.24 0.040-0.32 0.027-0.010 0.081-0.030 0.108-0.039 0.031 0.163 0.062 0.381-0.116 0.473-0.238 0.175-0.577-0.101-0.476-0.369z"></path>
<path fill="#fff" d="M7.91 14.673c0.111-0.14 0.233-0.269 0.365-0.389-0.042 0.137-0.088 0.272-0.134 0.408-0.058-0.005-0.173-0.014-0.231-0.019z"></path>
<path fill="#fff" d="M9.351 14.403c0.196-0.105 0.382 0.034 0.488 0.198-0.185-0.005-0.341-0.1-0.488-0.198z"></path>
<path fill="#fff" d="M9.226 14.466c0.063 0.12 0.124 0.24 0.186 0.36 0.124-0.034 0.247-0.068 0.371-0.101-0.033 0.302-0.457 0.321-0.575 0.067 0.005-0.082 0.013-0.244 0.018-0.326z"></path>
<path fill="#fff" d="M18.258 14.474c0.132 0.001 0.264 0.002 0.397 0.004-0.063 0.293-0.242 0.593-0.561 0.65-0.269 0.082-0.527-0.058-0.716-0.241 0.293-0.010 0.587 0.008 0.881-0.010-0.079-0.020-0.235-0.061-0.313-0.081 0.14-0.073 0.244-0.18 0.312-0.322z"></path>
<path fill="#030303" d="M10.614 5.416c0.926 0.001 1.854-0.019 2.779 0.008 0.391 0.287 0.567 0.814 0.992 1.077 0.135 0.081 0.26 0.222 0.24 0.391-0.037 0.379-0.097 0.757-0.089 1.14-0.067 0.001-0.199 0.002-0.265 0.003 0 0.261 0 0.521-0.001 0.781-0.146 0.001-0.292 0.001-0.438 0-0.001-0.234-0.001-0.469 0-0.703-1.194 0.11-2.395 0.081-3.591 0.015 0 0.23-0.001 0.461-0.004 0.692-0.144-0.001-0.288-0.002-0.432-0.003-0.002-0.262-0.002-0.524-0.002-0.785-0.094-0.005-0.187-0.010-0.28-0.015 0.003-0.376-0.047-0.748-0.097-1.119-0.031-0.304 0.303-0.408 0.482-0.58 0.251-0.288 0.46-0.61 0.706-0.902M10.7 5.6c-0.222 0.275-0.438 0.554-0.649 0.838 1.32-0.103 2.649-0.109 3.968 0.020-0.212-0.288-0.432-0.571-0.652-0.853-0.889-0.020-1.778-0.012-2.667-0.005M9.732 6.755c-0.157 0.114-0.155 0.375 0 0.489 0.156 0.148 0.469 0.067 0.518-0.147 0.134-0.296-0.297-0.564-0.518-0.342M13.929 6.736c-0.213 0.131-0.169 0.493 0.074 0.562 0.201 0.089 0.457-0.076 0.446-0.298 0.031-0.263-0.32-0.421-0.52-0.264M10.631 7.008c-0.139 0.227-0.277 0.456-0.376 0.703 0.378 0.022 0.756 0.015 1.134 0.015 0-0.245 0-0.489 0-0.734-0.253 0.001-0.505 0.004-0.758 0.016M11.463 7c0 0.243 0 0.486 0.001 0.729 0.38 0 0.761 0 1.142 0 0.002-0.243 0.005-0.486 0.007-0.729-0.383 0-0.766 0-1.15 0M12.692 6.994c-0.003 0.244-0.005 0.487-0.007 0.731 0.379 0.001 0.758 0.009 1.137-0.016-0.112-0.251-0.256-0.484-0.406-0.712-0.241-0.002-0.483-0.003-0.724-0.003z"></path>
<path fill="#030303" d="M15.197 12.603c0.314-0.025 0.64-0.062 0.946 0.032-0.294 0.041-0.591 0.032-0.885 0.052 0.068 0.053 0.204 0.159 0.272 0.212l-0.099 0.14c0.332-0.003 0.687 0.197 0.678 0.568 0 0.325 0.369 0.374 0.609 0.436 0.108-0.202 0.21-0.407 0.294-0.619 0.049 0.057 0.098 0.115 0.147 0.173-0.108 0.214-0.216 0.431-0.283 0.663 0.214-0.195 0.345-0.464 0.58-0.639 0.041-0.107 0.087-0.213 0.142-0.314l0.005 0.218c0.505-0.124 1.048 0.13 1.255 0.609 0.034 0.008 0.101 0.022 0.135 0.030-0.001 0.152-0.001 0.304-0.001 0.456-0.037 0.013-0.111 0.039-0.148 0.052-0.158 0.335-0.454 0.637-0.845 0.654-0.36 0.048-0.663-0.187-0.881-0.445-0.219 0.001-0.438 0.006-0.656 0.013 0.047 0.101 0.096 0.202 0.146 0.303-0.068 0-0.204-0.001-0.273-0.001 0.031-0.092 0.061-0.184 0.090-0.277-0.184-0.039-0.435-0.043-0.505-0.261 0.001-0.214 0.071-0.422 0.096-0.633-0.195-0.122-0.401-0.229-0.58-0.373-0.134-0.137-0.238-0.315-0.434-0.374 0-0.064 0.001-0.19 0.001-0.254 0.095 0.002 0.285 0.007 0.38 0.009-0.079-0.136-0.152-0.276-0.186-0.43M17.733 13.781c0.057 0.123 0.114 0.246 0.174 0.367 0.125 0.063 0.242 0.14 0.351 0.23 0.13 0 0.261-0.002 0.392-0.004-0.095-0.415-0.5-0.667-0.917-0.593M17.255 14.287c0.179 0.004 0.357 0.005 0.536 0.002-0.046-0.161-0.1-0.319-0.157-0.475-0.174 0.116-0.301 0.28-0.379 0.473M18.258 14.474c-0.068 0.142-0.172 0.249-0.312 0.322 0.078 0.020 0.234 0.061 0.313 0.081-0.294 0.018-0.588 0-0.881 0.010 0.189 0.183 0.447 0.323 0.716 0.241 0.319-0.057 0.498-0.357 0.561-0.65-0.133-0.002-0.265-0.003-0.397-0.004z"></path>
<path fill="#030303" d="M6.606 12.811c0.036-0.233 0.374-0.322 0.531-0.157 0.044 0.086 0.084 0.174 0.121 0.265 0.507 0.020 0.83 0.44 1.178 0.751 0.146 0.102 0.12 0.289 0.127 0.444 0.059 0.039 0.177 0.117 0.236 0.156 0.053-0.064 0.158-0.191 0.211-0.255-0.133-0.072-0.264-0.151-0.376-0.254 0.47-0.040 0.941-0.032 1.412-0.035-0.012 0.093-0.027 0.185-0.041 0.277 0.111 0.133 0.216 0.27 0.323 0.407-0.003 0.158-0.005 0.316-0.009 0.475-0.266 0.227-0.531 0.579-0.93 0.49-0.311-0.033-0.503-0.305-0.624-0.566-0.55 0.319-1.191 0.229-1.797 0.222 0.131-0.248-0.109-0.426-0.241-0.606-0.009 0.080-0.028 0.238-0.038 0.318-0.152 0.216-0.268 0.497-0.542 0.585-0.386 0.167-0.874-0.065-0.997-0.464-0.090-0.253 0.044-0.509 0.089-0.757 0.222-0.164 0.482-0.263 0.761-0.266 0-0.041 0-0.123 0-0.164 0.342-0.135 0.708-0.091 1.065-0.061-0.038-0.1-0.078-0.2-0.12-0.299-0.183-0.105-0.357-0.277-0.339-0.506M6.504 13.75c-0.267 0.127 0.162 0.276 0.271 0.141 0.077-0.146-0.18-0.178-0.271-0.141M6.899 14.090c0 0.199 0.107 0.364 0.22 0.518 0.009-0.202 0.026-0.456-0.22-0.518M5.562 14.552c-0.101 0.268 0.238 0.544 0.476 0.369 0.178-0.092 0.147-0.31 0.116-0.473-0.027 0.009-0.081 0.029-0.108 0.039-0.010 0.080-0.030 0.24-0.040 0.32-0.375 0.158-0.348-0.313-0.103-0.442-0.133 0.017-0.301 0.027-0.341 0.187M7.91 14.673c0.058 0.005 0.173 0.014 0.231 0.019 0.046-0.136 0.092-0.271 0.134-0.408-0.132 0.12-0.254 0.249-0.365 0.389M9.351 14.403c0.147 0.098 0.303 0.193 0.488 0.198-0.106-0.164-0.292-0.303-0.488-0.198M9.226 14.466c-0.005 0.082-0.013 0.244-0.018 0.326 0.118 0.254 0.542 0.235 0.575-0.067-0.124 0.033-0.247 0.067-0.371 0.101-0.062-0.12-0.123-0.24-0.186-0.36z"></path>
<path fill="#030303" d="M16.9 12.734c0.283 0.014 0.566 0.039 0.85 0.047-0.013 0.155-0.096 0.262-0.24 0.314-0.144 0.116-0.288 0.233-0.462 0.303 0.049-0.088 0.147-0.263 0.195-0.351-0.169-0.054-0.284-0.158-0.343-0.313z"></path>
<path fill="#030303" d="M13.983 13.783c0.277-0.302 0.728-0.332 1.101-0.22l0.020-0.167c0.144 0.355 0.506 0.589 0.53 0.996-0.115 0.282-0.162 0.622-0.434 0.805-0.411 0.334-1.091 0.18-1.319-0.298-0.206-0.359-0.047-0.77 0.102-1.116M14.268 13.866c0.141 0.149 0.198 0.431 0.436 0.449 0.096-0.16 0.167-0.334 0.245-0.503-0.229-0.046-0.461-0.026-0.681 0.054M15.057 13.868c-0.093 0.186-0.182 0.373-0.267 0.562 0.198 0.004 0.397 0.004 0.596-0.001-0.061-0.214-0.177-0.402-0.329-0.561M14.010 14.695c0.126 0.427 0.697 0.609 1.054 0.349 0.181-0.114 0.237-0.332 0.321-0.513-0.241-0.019-0.485-0.011-0.705 0.101-0.215 0.090-0.192-0.177-0.205-0.308-0.091-0.136-0.184-0.27-0.278-0.404-0.167 0.217-0.298 0.501-0.187 0.775z"></path>
</svg>
