<?xml version="1.0" encoding="utf-8"?>
<!-- Generated by IcoMoon.io -->
<!DOCTYPE svg PUBLIC "-//W3C//DTD SVG 1.1//EN" "http://www.w3.org/Graphics/SVG/1.1/DTD/svg11.dtd">
<svg version="1.1" xmlns="http://www.w3.org/2000/svg" xmlns:xlink="http://www.w3.org/1999/xlink" width="24" height="24" viewBox="0 0 24 24">
<path fill="#e20a16" d="M11.482 0h0.972c2.708 0.131 5.374 1.141 7.414 2.939 2.453 2.106 3.968 5.234 4.133 8.461v1.171c-0.14 2.839-1.309 5.617-3.276 7.675-2.088 2.228-5.052 3.586-8.099 3.754h-1.223c-2.083-0.124-4.139-0.768-5.89-1.91-2.411-1.538-4.231-3.974-5.024-6.722-0.323-1.076-0.462-2.2-0.488-3.32v-0.083c0.013-3.161 1.316-6.298 3.586-8.504 2.081-2.092 4.961-3.298 7.896-3.46M5.681 4.254c1.901 1.919 3.821 3.82 5.726 5.734 1.607 1.602 3.209 3.208 4.814 4.811 1.174 1.178 2.354 2.351 3.527 3.532 1.662-2.015 2.477-4.698 2.21-7.297-0.245-2.66-1.621-5.19-3.718-6.845-1.781-1.438-4.076-2.215-6.362-2.173-2.243 0.012-4.46 0.826-6.198 2.239M2.045 12.854c0.185 2.328 1.238 4.566 2.888 6.215 1.847 1.858 4.447 2.958 7.072 2.933 2.293 0.023 4.565-0.814 6.336-2.261-1.256-1.236-2.494-2.494-3.745-3.736-1.993-1.999-3.996-3.988-5.986-5.99-1.453-1.442-2.898-2.896-4.348-4.342-1.631 1.988-2.449 4.618-2.218 7.181z"></path>
<path fill="#fff" d="M5.681 4.254c1.738-1.414 3.955-2.227 6.198-2.239 2.286-0.042 4.582 0.736 6.362 2.173 2.096 1.655 3.473 4.184 3.718 6.845 0.266 2.599-0.548 5.282-2.21 7.297-1.172-1.181-2.353-2.353-3.527-3.532 1.268-0.926 2.52-1.874 3.791-2.797-2.551-1.884-5.098-3.775-7.651-5.654-0.212-0.15-0.428-0.354-0.708-0.34-0.4 0.005-0.74 0.428-0.62 0.82 0.313 1.061 0.644 2.116 0.958 3.176-0.194-0.005-0.389-0.010-0.583-0.016-1.906-1.914-3.826-3.815-5.726-5.734z"></path>
<path fill="#fff" d="M2.045 12.854c-0.232-2.563 0.587-5.192 2.218-7.181 1.45 1.446 2.894 2.899 4.348 4.342-1.534-0.035-3.067-0.006-4.602-0.014 0 1.336 0 2.671 0 4.007 2.66 0.001 5.322 0 7.982 0-0.318 1.093-0.676 2.174-0.977 3.271-0.077 0.526 0.583 0.931 1.015 0.623 0.868-0.614 1.705-1.272 2.567-1.896 1.252 1.242 2.489 2.5 3.745 3.736-1.771 1.447-4.043 2.284-6.336 2.261-2.624 0.025-5.225-1.075-7.072-2.933-1.65-1.649-2.704-3.887-2.888-6.215z"></path>
<path fill="#000" d="M11.033 6.827c-0.12-0.391 0.221-0.815 0.62-0.82 0.28-0.014 0.496 0.19 0.708 0.34 2.554 1.879 5.1 3.77 7.651 5.654-1.271 0.923-2.522 1.871-3.791 2.797-1.606-1.603-3.208-3.209-4.814-4.811 0.194 0.006 0.389 0.011 0.583 0.016-0.313-1.061-0.644-2.116-0.958-3.176z"></path>
<path fill="#000" d="M4.008 10.001c1.535 0.008 3.068-0.020 4.602 0.014 1.99 2.003 3.992 3.991 5.986 5.99-0.862 0.624-1.699 1.282-2.567 1.896-0.432 0.308-1.092-0.097-1.015-0.623 0.301-1.097 0.659-2.178 0.977-3.271-2.66 0-5.322 0.001-7.982 0 0-1.336 0-2.671 0-4.007z"></path>
</svg>
