<svg xmlns="http://www.w3.org/2000/svg" width="24" height="24">
    <path fill="#fff" d="M3.126 0h17.745c.489.153.757.684.748 1.172v21.655c.009.488-.258 1.017-.746 1.172H3.131c-.489-.153-.757-.684-.748-1.172V1.172C2.373.684 2.64.156 3.127 0zm.503.592c-.47.097-.751.593-.764 1.046-.002 6.892 0 13.784-.001 20.677-.001.403.195.829.56 1.023.2.11.435.087.654.088l16.128-.001c.55.006.92-.556.928-1.061.002-6.909.002-13.818 0-20.726-.008-.505-.378-1.068-.928-1.061-5.455-.002-10.91 0-16.365-.001a1.17 1.17 0 0 0-.213.017z"/>
    <path fill="#fff" d="M4.049 1.195a.967.967 0 0 1 .215-.02h15.189c.233.003.486-.03.696.097.355.203.517.629.513 1.022-.001 6.486.001 12.972-.001 19.458.006.495-.332 1.066-.876 1.07H4.215c-.544-.004-.882-.575-.876-1.07V2.245c.001-.444.25-.939.71-1.051zm1.185 1.836c-.306.306-.289.879.057 1.149.342.282.821.299 1.174.557.225.16.14.55-.121.622-.37.142-.783-.083-.93-.436-.172.066-.346.126-.517.196.222.798 1.305 1.074 1.938.59.406-.306.455-.979.087-1.334-.33-.321-.814-.362-1.2-.584-.162-.087-.176-.336-.022-.438a.609.609 0 0 1 .847.238c.165-.058.331-.113.497-.168-.192-.767-1.297-.913-1.81-.391zm2.699-.256c-.007 1.041.001 2.083-.005 3.124.187-.003.374-.002.56-.001.006-.39 0-.781.003-1.172.442-.029.93.089 1.33-.157.507-.303.593-1.082.196-1.507-.213-.221-.533-.291-.829-.29-.419.001-.837-.004-1.255.003zm2.959.003c-.009 1.04-.001 2.079-.004 3.119.71-.002 1.42.002 2.13-.002.003-.18.004-.36-.001-.54-.521-.007-1.043 0-1.564-.004 0-.262-.001-.525.001-.787h.903c.006-.177.005-.355.004-.532-.303-.003-.606.001-.908-.002v-.711c.49-.002.979.002 1.469-.002.004-.18.004-.36-.001-.54a137.23 137.23 0 0 0-2.029.001zm2.854 0c-.007 1.04.001 2.08-.005 3.12.71-.007 1.42.003 2.13-.005.006-.18.005-.36.001-.539-.522-.006-1.045 0-1.567-.003v-.786c.301 0 .602.001.904-.001.01-.177.008-.355.007-.533-.304-.003-.607 0-.911-.001v-.711c.49-.005.981.006 1.471-.006.004-.179.004-.358 0-.537-.677-.004-1.353-.006-2.03.001zm2.842-.003a406.382 406.382 0 0 0 0 3.123c.655-.032 1.415.136 1.956-.336.655-.61.66-1.804.023-2.429-.54-.491-1.317-.332-1.98-.358zM6.353 7.419c-.006 1.038-.002 2.076-.002 3.114.682.002 1.364 0 2.046.001v-.546c-.494-.005-.987 0-1.48-.002-.004-.855.003-1.711-.004-2.566a13.068 13.068 0 0 0-.56 0zm2.685-.001c-.003 1.039-.001 2.078-.001 3.116.188 0 .376.001.565-.002.004-1.039.004-2.077 0-3.116a11.783 11.783 0 0 0-.564.001zm1.478-.001c-.007 1.039-.002 2.078-.002 3.117h.562c.003-.623.005-1.247-.002-1.87.276.653.565 1.3.854 1.948.283-.652.592-1.295.85-1.957-.014.626-.003 1.252-.006 1.878.188.002.376.002.564-.001.004-1.039.006-2.078-.001-3.117-.18-.002-.359-.001-.538 0-.291.665-.595 1.324-.866 1.997-.257-.674-.574-1.325-.849-1.992a7.097 7.097 0 0 0-.565-.003zm3.738-.002c-.001 1.04.001 2.08-.001 3.12.185-.002.37-.001.555 0 0-1.04.001-2.08-.001-3.12a25.485 25.485 0 0 0-.553 0zm1.274-.005c-.003.181-.003.363 0 .544.29.004.58 0 .87.002.002.859-.001 1.718.001 2.577.187 0 .375.001.562-.001.003-.859 0-1.717.002-2.576.288-.002.576 0 .864 0 .002-.182.002-.365-.001-.547-.766-.001-1.532-.003-2.299.001zM5.331 11.525c-.242.038-.544.19-.542.471.001 2.892-.002 5.785.001 8.677.037.317.41.453.691.454h13.037c.281-.001.654-.136.691-.454.003-2.892 0-5.784.001-8.677 0-.296-.324-.444-.578-.477-.543-.044-1.09.018-1.633-.034h-.063a7.792 7.792 0 0 1-1.203.001l-.063-.001a7.92 7.92 0 0 1-1.203.002l-.063-.002c-1.68.035-3.366.032-5.046.001l-.063-.001a7.92 7.92 0 0 1-1.203.002l-.063-.002c-.412.033-.83.032-1.242.001l-.03-.001c-.474.056-.954-.015-1.428.041z"/>
    <path fill="#fff" d="M8.492 3.32c.293.007.59-.019.881.012.393.075.417.717.036.826-.302.044-.612.01-.917.019V3.32zM17.147 3.319c.356.01.79-.076 1.052.233.348.442.347 1.16-.031 1.584-.263.282-.675.209-1.02.215V3.318z"/>
    <path d="M3.629.592a1.17 1.17 0 0 1 .213-.017c5.455.001 10.91-.001 16.365.001.549-.007.92.556.928 1.061.002 6.908.002 13.817 0 20.726-.008.505-.378 1.067-.928 1.061l-16.128.001c-.219-.001-.454.022-.654-.088-.365-.195-.561-.621-.56-1.023.001-6.893-.001-13.785.001-20.677.013-.453.294-.948.764-1.046zm.42.603c-.46.112-.708.607-.71 1.051v19.507c-.007.495.332 1.066.876 1.07h15.57c.544-.004.881-.575.876-1.07.002-6.486 0-12.972.001-19.458.004-.393-.158-.82-.513-1.022-.21-.127-.462-.094-.696-.097H4.264a.973.973 0 0 0-.215.02z"/>
    <path d="M5.234 3.031c.513-.521 1.618-.375 1.81.391-.166.055-.332.11-.497.168a.609.609 0 0 0-.847-.238c-.154.102-.14.352.022.438.386.221.87.263 1.2.584.368.355.32 1.027-.087 1.334-.632.485-1.716.209-1.938-.59.171-.07.345-.13.517-.196.148.353.56.577.93.436.261-.071.347-.461.121-.622-.353-.258-.832-.275-1.174-.557-.346-.27-.363-.843-.057-1.149zM7.933 2.775c.418-.007.837-.002 1.255-.003.296 0 .616.069.829.29.397.425.311 1.204-.196 1.507-.4.246-.887.128-1.33.157-.003.39.003.781-.003 1.172-.187-.001-.373-.002-.56.001.006-1.041-.002-2.083.005-3.124zm.559.545v.857c.305-.009.615.024.917-.019.381-.109.358-.751-.036-.826-.292-.031-.588-.005-.881-.012zM10.892 2.778a137.23 137.23 0 0 1 2.029-.001c.005.18.005.36.001.54-.49.004-.979 0-1.469.002v.711c.303.003.606-.001.908.002.001.178.002.355-.004.532-.301.002-.602 0-.903 0-.002.262-.001.524-.001.787.521.004 1.043-.003 1.564.004.005.18.004.36.001.54-.71.004-1.42 0-2.13.002.003-1.04-.005-2.079.004-3.119zM13.746 2.778c.676-.007 1.353-.005 2.03-.001.004.179.004.358 0 .537-.49.011-.981 0-1.471.006v.711c.303.002.607-.001.911.001.001.178.004.355-.007.532-.301.002-.602 0-.904.001v.786c.522.004 1.045-.003 1.567.003.004.18.005.359-.001.539-.71.008-1.42-.002-2.13.005.006-1.04-.002-2.08.005-3.12zM16.588 2.775c.663.026 1.44-.133 1.98.358.637.625.632 1.818-.023 2.429-.541.473-1.301.304-1.956.336a406.382 406.382 0 0 1 0-3.123zm.559.544v2.033c.345-.007.757.067 1.02-.215.379-.424.379-1.142.031-1.584-.262-.309-.696-.224-1.052-.233zM6.353 7.419c.187-.004.373-.004.56 0 .007.855 0 1.711.004 2.566.493.003.986-.002 1.48.002.002.182.002.364 0 .546-.682 0-1.364.001-2.046-.001 0-1.038-.004-2.076.002-3.114zM9.038 7.418c.188-.006.376-.006.564-.001.004 1.039.004 2.077 0 3.116-.188.003-.376.002-.565.002 0-1.039-.002-2.077.001-3.116zM10.516 7.417c.188-.004.377-.008.565.003.275.668.592 1.318.849 1.992.27-.673.575-1.332.866-1.997.179-.001.359-.002.538 0 .007 1.039.005 2.078.001 3.117-.188.003-.376.003-.564.001.003-.626-.008-1.252.006-1.878-.258.663-.567 1.305-.85 1.957-.288-.648-.578-1.295-.854-1.948.007.623.005 1.246.002 1.87h-.562c0-1.039-.005-2.078.002-3.117zM14.254 7.415c.184-.002.368-.002.553 0 .002 1.04 0 2.079.001 3.12h-.555c.002-1.04 0-2.08.001-3.12zM15.528 7.41c.766-.004 1.532-.002 2.299-.001.003.182.003.365.001.547h-.864c-.002.859.001 1.718-.002 2.576-.188.002-.375.001-.562.001-.002-.859 0-1.718-.001-2.577-.29-.003-.58.001-.87-.002a16.442 16.442 0 0 1 0-.544zM5.331 11.525c.473-.056.954.015 1.428-.041-.233.05-.441.231-.484.47-.062.348.326.679.66.567a.514.514 0 0 0 .331-.658c-.073-.205-.272-.331-.477-.379.413.031.83.032 1.242-.001-.233.05-.44.231-.484.47-.062.346.323.677.656.568.27-.076.444-.403.332-.666-.072-.191-.255-.309-.441-.37.399.029.803.031 1.203-.002-.231.054-.437.236-.478.475-.057.344.323.669.654.563.275-.075.449-.409.331-.674-.075-.189-.257-.307-.445-.363 1.68.03 3.367.033 5.046-.001-.232.051-.437.232-.481.47-.061.345.321.675.653.569.274-.074.445-.404.334-.668-.072-.191-.255-.309-.442-.369.399.029.803.031 1.203-.002-.231.054-.435.237-.476.476-.055.34.316.662.645.566.268-.068.446-.379.353-.643-.067-.206-.26-.338-.46-.397.399.03.804.031 1.203-.001-.228.058-.431.24-.469.478-.056.353.349.682.683.551a.513.513 0 0 0 .313-.638c-.069-.205-.263-.335-.464-.39.543.052 1.09-.01 1.633.034.254.032.577.181.578.477-.001 2.893.002 5.785-.001 8.677-.038.317-.411.453-.691.454H5.482c-.281-.001-.653-.136-.691-.454-.003-2.892 0-5.785-.001-8.677-.001-.281.3-.433.542-.471zm.028 1.293a.59.59 0 0 0-.353.401c-.081.341.282.681.616.602a.515.515 0 0 0 .398-.461c.032-.336-.334-.658-.662-.542zm5.107-.006c-.346.102-.521.601-.226.854.224.263.682.194.822-.12.204-.367-.198-.857-.596-.734zm2.534.009a.589.589 0 0 0-.343.397c-.085.352.303.702.644.597a.517.517 0 0 0 .37-.457c.03-.337-.343-.66-.671-.536zm5.107-.006a.583.583 0 0 0-.366.435c-.058.348.333.676.666.56a.52.52 0 0 0 .354-.449c.031-.332-.328-.652-.654-.546zm-7.543 1.27c-.38.02-.639.543-.354.83.211.279.682.247.841-.068.206-.332-.113-.789-.487-.761zm2.577-.002c-.243.005-.444.218-.49.447-.059.345.327.665.656.559.19-.055.34-.23.361-.427.039-.296-.233-.584-.527-.579zm3.798.002c-.238.016-.43.228-.471.455-.041.273.194.521.452.566a.511.511 0 0 0 .565-.432c.049-.306-.241-.609-.547-.589zm1.266 0c-.228.019-.409.217-.46.431-.07.34.3.668.63.579a.512.512 0 0 0 .383-.421c.05-.309-.245-.615-.553-.589zm-10.317 1.3a.585.585 0 0 0-.34.41c-.066.345.319.67.649.568a.518.518 0 0 0 .369-.434c.043-.347-.345-.676-.678-.545zm1.265.003a.585.585 0 0 0-.333.412c-.061.343.319.663.648.564a.517.517 0 0 0 .374-.473c.012-.336-.366-.637-.688-.503zm3.804.012c-.216.111-.374.376-.288.619.084.232.346.409.595.353a.511.511 0 0 0 .407-.481c.014-.346-.391-.652-.715-.491zm2.572-.011a.586.586 0 0 0-.333.413c-.058.342.319.66.646.563a.515.515 0 0 0 .376-.473c.012-.336-.368-.638-.69-.503zm2.533.005c-.227.106-.393.386-.299.634.09.233.359.408.61.341a.512.512 0 0 0 .39-.478c.013-.34-.379-.644-.701-.497zm-7.64 1.269c-.323.126-.463.603-.172.838.233.259.696.171.823-.151.189-.382-.26-.857-.65-.687zm2.576-.007a.586.586 0 0 0-.345.405c-.073.351.322.683.657.573a.512.512 0 0 0 .359-.434c.042-.343-.34-.67-.671-.545zm1.267.002a.581.581 0 0 0-.339.406c-.068.347.317.675.65.572a.512.512 0 0 0 .367-.44c.039-.344-.347-.669-.678-.538zm3.801.007a.586.586 0 0 0-.324.417c-.052.337.316.648.64.557a.512.512 0 0 0 .379-.435c.046-.354-.359-.69-.695-.54zm-12.707 1.26a.573.573 0 0 0-.361.449c-.03.266.197.502.447.549a.512.512 0 0 0 .569-.408c.077-.352-.311-.711-.655-.59zm5.106-.005c-.333.097-.517.57-.244.826.219.273.689.223.837-.097.211-.366-.197-.855-.593-.73zm2.535.008a.572.572 0 0 0-.352.445c-.031.263.192.497.438.548.264.051.54-.15.579-.415.069-.352-.323-.707-.665-.578zm5.107-.005a.58.58 0 0 0-.361.407c-.075.337.285.662.613.588a.511.511 0 0 0 .402-.448c.038-.336-.327-.655-.654-.547zM6.669 19.187a.57.57 0 0 0-.39.406c-.082.337.276.67.606.599a.51.51 0 0 0 .402-.412c.067-.336-.285-.677-.618-.593zm1.266.002c-.345.086-.538.575-.256.835.224.276.702.214.841-.114.192-.359-.2-.826-.585-.72zm1.268.002c-.34.09-.529.57-.254.83.221.276.698.221.841-.105.201-.361-.198-.838-.587-.725zm5.108-.002c-.344.088-.535.573-.255.833.222.277.702.217.841-.113.191-.36-.2-.827-.586-.72zm1.267.002a.575.575 0 0 0-.385.45c-.034.273.203.519.463.558a.512.512 0 0 0 .555-.421c.065-.339-.299-.683-.633-.587zm1.266.001c-.332.096-.518.564-.25.823.218.278.696.23.843-.095.207-.365-.199-.85-.593-.728z"/>
    <path fill="#ccc" d="M6.759 11.484l.03.001c.204.047.404.173.477.379a.514.514 0 0 1-.331.658c-.333.112-.722-.219-.66-.567.044-.24.251-.42.484-.47zM8.031 11.484l.063.002c.187.06.369.179.441.37.112.263-.061.59-.332.666-.333.109-.718-.222-.656-.568.044-.239.251-.42.484-.47zM9.297 11.485l.063.001c.188.057.37.174.445.363.118.265-.056.599-.331.674-.331.105-.711-.22-.654-.563.041-.24.247-.421.478-.475zM14.406 11.485l.063.002c.187.06.37.178.443.369.111.264-.06.594-.334.668-.332.106-.714-.224-.653-.569.044-.238.25-.419.481-.47zM15.672 11.485l.063.001c.2.059.393.191.46.397.093.264-.086.575-.353.643-.329.096-.7-.225-.645-.566.04-.239.245-.421.476-.476zM16.937 11.485H17c.201.055.394.185.464.39a.513.513 0 0 1-.313.638c-.334.132-.739-.197-.683-.551.038-.239.241-.42.469-.478zM5.359 12.818c.328-.116.694.206.662.542a.516.516 0 0 1-.398.461c-.334.079-.697-.261-.616-.602a.585.585 0 0 1 .353-.401zM10.466 12.812c.397-.123.8.367.596.734-.14.315-.598.384-.822.12-.295-.253-.12-.752.226-.854zM13 12.821c.328-.124.701.198.671.536a.516.516 0 0 1-.37.457c-.341.105-.729-.245-.644-.597A.589.589 0 0 1 13 12.82zM18.107 12.815c.327-.107.685.213.654.546a.52.52 0 0 1-.354.449c-.333.116-.724-.212-.666-.56a.585.585 0 0 1 .366-.435zM10.564 14.085c.374-.028.692.429.487.761-.159.316-.63.347-.841.068-.285-.286-.025-.81.354-.83zM13.141 14.083c.294-.005.567.283.527.579a.515.515 0 0 1-.361.427c-.329.106-.715-.213-.656-.559.046-.229.247-.442.49-.447zM16.939 14.085c.306-.021.595.283.547.589a.511.511 0 0 1-.565.432c-.258-.045-.493-.293-.452-.566.041-.227.233-.439.471-.455zM18.205 14.085c.308-.025.603.28.553.589a.512.512 0 0 1-.383.421c-.33.088-.7-.239-.63-.579.051-.214.232-.412.46-.431zM7.888 15.385c.333-.132.721.198.678.545a.518.518 0 0 1-.369.434c-.33.102-.714-.223-.649-.568a.583.583 0 0 1 .34-.41zM9.153 15.388c.322-.134.7.168.688.503a.517.517 0 0 1-.374.473c-.329.099-.709-.221-.648-.564a.585.585 0 0 1 .333-.412zM12.957 15.4c.323-.161.729.145.715.491a.51.51 0 0 1-.407.481c-.249.055-.511-.122-.595-.353-.086-.243.072-.508.288-.619zM15.529 15.389c.322-.135.702.167.69.503a.515.515 0 0 1-.376.473c-.327.097-.705-.221-.646-.563a.582.582 0 0 1 .333-.413zM18.062 15.394c.322-.147.714.157.701.497a.513.513 0 0 1-.39.478c-.251.067-.52-.107-.61-.341-.094-.248.072-.527.299-.634zM10.422 16.663c.39-.17.84.305.65.687-.127.322-.59.41-.823.151-.291-.235-.151-.712.172-.838zM12.998 16.656c.331-.126.713.202.671.545a.514.514 0 0 1-.359.434c-.335.11-.729-.222-.657-.573a.582.582 0 0 1 .345-.405zM14.265 16.658c.331-.131.717.194.678.538a.514.514 0 0 1-.367.44c-.332.103-.718-.225-.65-.572a.581.581 0 0 1 .339-.406zM18.066 16.665c.336-.15.741.186.695.54a.512.512 0 0 1-.379.435c-.324.091-.693-.22-.64-.557a.584.584 0 0 1 .324-.417zM5.359 17.925c.344-.121.732.237.655.59a.511.511 0 0 1-.569.408c-.25-.047-.477-.283-.447-.549a.573.573 0 0 1 .361-.449zM10.465 17.92c.396-.125.804.364.593.73-.148.32-.618.37-.837.097-.273-.256-.09-.729.244-.826zM13 17.928c.342-.128.735.226.665.578a.51.51 0 0 1-.579.415c-.246-.052-.469-.285-.438-.548a.574.574 0 0 1 .352-.445zM18.107 17.923c.327-.107.691.212.654.547a.511.511 0 0 1-.402.448c-.328.074-.687-.252-.613-.588a.582.582 0 0 1 .361-.407zM6.669 19.187c.333-.084.685.257.618.593a.51.51 0 0 1-.402.412c-.33.071-.688-.262-.606-.599a.57.57 0 0 1 .39-.406zM7.935 19.189c.385-.105.777.361.585.72-.139.328-.618.39-.841.114-.281-.26-.089-.749.256-.835zM9.203 19.191c.389-.113.788.364.587.725-.142.326-.62.381-.841.105-.276-.259-.087-.74.254-.83zM14.311 19.189c.386-.106.777.36.586.72-.139.329-.619.39-.841.113-.28-.26-.089-.745.255-.833zM15.578 19.191c.335-.096.698.248.633.587a.512.512 0 0 1-.555.421c-.26-.038-.497-.285-.463-.558a.573.573 0 0 1 .385-.45zM16.844 19.192c.394-.122.8.364.593.728-.147.325-.624.373-.843.095-.268-.259-.082-.727.25-.823z"/>
</svg>
