<!-- Generated by IcoMoon.io -->
<svg version="1.1" xmlns="http://www.w3.org/2000/svg" width="24" height="24" viewBox="0 0 24 24">
<title>regulatory--maximum-speed-limit-led-65--g3</title>
<path fill="#000" d="M2.006 0h19.983c0.505 0.143 0.839 0.653 0.834 1.168 0.002 7.206 0 14.411 0.001 21.617 0.021 0.529-0.312 1.065-0.832 1.215h-19.98c-0.505-0.143-0.841-0.653-0.835-1.168-0.001-7.222-0.001-14.443 0-21.664-0.007-0.514 0.328-1.021 0.829-1.168M2.755 1.957c-0.46 0.393-0.484 1.193-0.022 1.593 0.467 0.419 1.147 0.435 1.65 0.79 0.303 0.211 0.217 0.738-0.131 0.853-0.509 0.215-1.102-0.090-1.303-0.585-0.239 0.088-0.479 0.173-0.716 0.266 0.312 1.103 1.816 1.465 2.682 0.791 0.562-0.436 0.6-1.402 0.046-1.86-0.447-0.388-1.060-0.458-1.568-0.73-0.246-0.113-0.283-0.479-0.052-0.627 0.383-0.22 0.965-0.097 1.148 0.331 0.231-0.075 0.462-0.151 0.692-0.231-0.255-1.026-1.699-1.223-2.428-0.592M6.399 1.647c-0.004 1.419-0.003 2.838-0.001 4.258 0.258 0.003 0.516 0.001 0.773 0.001 0-0.531-0.001-1.062 0-1.593 0.431-0.011 0.865 0.023 1.294-0.023 0.489-0.060 0.936-0.409 1.075-0.888 0.239-0.682-0.142-1.554-0.886-1.696-0.743-0.125-1.505-0.033-2.256-0.059M10.473 1.652c-0.006 1.417-0.002 2.835-0.001 4.252 0.974 0.003 1.948 0.002 2.922 0-0-0.246 0.003-0.491-0.003-0.737-0.715-0.007-1.43 0-2.144-0.003-0.001-0.362-0.001-0.724-0-1.087 0.413-0.001 0.827 0 1.24-0.001 0-0.245 0.003-0.49-0.002-0.735-0.413-0.007-0.825-0-1.238-0.004-0.001-0.316-0.001-0.632-0-0.948 0.672-0.002 1.343 0.001 2.015-0.001 0-0.245 0.003-0.491-0.002-0.736-0.929-0.006-1.858-0.004-2.786-0.001M14.395 1.654c-0.007 1.417-0.001 2.835-0.003 4.252 0.973 0 1.947 0.001 2.92-0 0.002-0.246 0.003-0.492-0.001-0.739-0.713-0.002-1.427 0.001-2.141-0.001-0.001-0.362-0.001-0.724-0-1.087 0.412-0.001 0.824 0 1.236-0.001 0-0.246 0.002-0.491-0.001-0.736-0.412-0.004-0.824 0-1.235-0.002-0.001-0.316-0.001-0.632-0-0.948 0.671-0.003 1.342 0.003 2.013-0.003 0.005-0.245 0.005-0.491 0-0.736-0.93-0.003-1.859-0.006-2.788 0.001M18.31 1.651c-0.006 1.418-0.004 2.836-0 4.254 0.806-0.041 1.684 0.146 2.422-0.27 0.717-0.402 1.008-1.287 0.939-2.070-0.038-0.687-0.393-1.396-1.037-1.697-0.726-0.341-1.551-0.18-2.324-0.216M4.233 6.567c-0.002 1.416-0.001 2.832 0 4.247 0.938 0.002 1.875 0.001 2.812 0 0.001-0.247 0.001-0.495 0-0.742-0.679-0.002-1.358 0-2.037-0.001-0.002-1.168 0.001-2.336-0.002-3.504-0.258-0.002-0.516-0.002-0.773 0M7.924 6.56c-0.001 1.418-0.001 2.837-0 4.255 0.258 0.002 0.515 0.001 0.772 0 0-1.418 0.001-2.836-0-4.255-0.257-0.001-0.514-0.001-0.772-0M9.956 6.56c-0.002 1.418-0.002 2.836 0 4.254 0.258 0.002 0.516 0.001 0.773 0-0.003-0.853 0.011-1.707-0.009-2.56 0.384 0.893 0.783 1.779 1.177 2.669 0.389-0.892 0.81-1.77 1.171-2.674-0.017 0.855-0.005 1.711-0.008 2.566 0.256 0 0.513 0 0.77-0 0.001-1.418 0.001-2.837 0-4.255-0.248-0.001-0.496-0.001-0.744-0-0.395 0.905-0.81 1.802-1.184 2.716-0.372-0.914-0.785-1.811-1.177-2.716-0.257-0-0.513-0.001-0.77 0M15.093 6.56c-0.001 1.418-0.001 2.837 0 4.255 0.257 0.001 0.513 0.001 0.77 0 0.001-1.418 0.001-2.837 0-4.255-0.256-0.001-0.513-0.001-0.77-0M16.856 6.557c-0.001 0.248-0.001 0.495 0 0.743 0.397 0.001 0.794-0.001 1.192 0 0.002 1.172-0.001 2.343 0.001 3.515 0.257 0 0.514 0.001 0.772-0 0.001-1.171-0.001-2.343 0.001-3.514 0.398-0.002 0.795 0 1.193-0.001 0.001-0.247 0.001-0.495 0-0.743-1.053-0.001-2.106-0.001-3.158 0M6.136 14.715c-1.008 1.029-1.619 2.421-1.752 3.851-0.092 0.988-0.005 2.033 0.479 2.918 0.337 0.629 0.901 1.136 1.575 1.377 1.24 0.44 2.765 0.199 3.684-0.784 1.13-1.167 1.15-3.207 0.040-4.394-1.055-1.19-3.090-1.272-4.266-0.224 0.45-1.727 1.975-3.042 3.686-3.446 0.001-0.377 0.001-0.754 0-1.13-1.294 0.255-2.527 0.878-3.446 1.831M13.646 13.069c-0.198 1.66-0.39 3.321-0.581 4.981 0.412 0.145 0.823 0.292 1.237 0.431 0.727-0.776 1.984-1.033 2.946-0.572 1.154 0.596 1.315 2.346 0.44 3.249-0.585 0.642-1.517 0.825-2.349 0.705-0.699-0.067-1.342-0.407-1.858-0.875-0.254 0.328-0.511 0.652-0.76 0.983 0.803 0.79 1.978 1.083 3.076 1.092 1.075 0.044 2.194-0.345 2.921-1.158 1.128-1.219 1.153-3.315-0.010-4.52-1.102-1.152-3.060-1.205-4.321-0.285 0.123-0.949 0.245-1.898 0.367-2.847 1.392-0.003 2.784 0 4.176-0.002 0-0.394 0.001-0.789-0.001-1.183-1.761-0.001-3.522-0.001-5.283 0z"></path>
<path fill="#000" d="M7.172 2.391c0.413 0.014 0.831-0.030 1.241 0.025 0.531 0.121 0.524 0.998 0 1.126-0.409 0.056-0.828 0.010-1.241 0.024-0.002-0.392-0.001-0.784-0-1.176z"></path>
<path fill="#000" d="M19.082 2.391c0.415 0.024 0.874-0.084 1.248 0.15 0.411 0.265 0.555 0.79 0.547 1.254 0.002 0.461-0.161 0.976-0.578 1.224-0.367 0.223-0.811 0.125-1.216 0.146-0.001-0.925-0-1.85-0-2.775z"></path>
<path fill="#000" d="M7.19 17.972c0.699-0.132 1.499 0.006 2.006 0.536 0.719 0.774 0.698 2.154-0.101 2.866-0.799 0.683-2.123 0.659-2.889-0.064-0.646-0.614-0.735-1.672-0.312-2.434 0.265-0.48 0.764-0.802 1.296-0.904z"></path>
<path fill="#fff" d="M2.755 1.957c0.728-0.631 2.172-0.434 2.428 0.592-0.23 0.079-0.461 0.155-0.692 0.231-0.183-0.428-0.765-0.551-1.148-0.331-0.231 0.148-0.194 0.514 0.052 0.627 0.508 0.272 1.121 0.342 1.568 0.73 0.554 0.458 0.516 1.424-0.046 1.86-0.866 0.674-2.37 0.312-2.682-0.791 0.237-0.093 0.477-0.179 0.716-0.266 0.201 0.495 0.794 0.8 1.303 0.585 0.348-0.115 0.435-0.641 0.131-0.853-0.503-0.354-1.182-0.371-1.65-0.79-0.462-0.4-0.439-1.2 0.022-1.593z"></path>
<path fill="#fff" d="M6.399 1.647c0.751 0.026 1.513-0.067 2.256 0.059 0.744 0.142 1.125 1.014 0.886 1.696-0.139 0.479-0.585 0.828-1.075 0.888-0.429 0.046-0.863 0.012-1.294 0.023-0.001 0.531 0 1.062-0 1.593-0.258 0-0.516 0.002-0.773-0.001-0.002-1.419-0.003-2.838 0.001-4.258M7.172 2.391c-0 0.392-0.001 0.784 0 1.176 0.413-0.014 0.832 0.031 1.241-0.024 0.523-0.128 0.53-1.005-0-1.126-0.41-0.055-0.828-0.011-1.241-0.025z"></path>
<path fill="#fff" d="M10.473 1.652c0.929-0.003 1.858-0.005 2.786 0.001 0.005 0.246 0.002 0.491 0.002 0.736-0.672 0.002-1.343-0-2.015 0.001-0 0.316-0.001 0.632 0 0.948 0.413 0.003 0.825-0.003 1.238 0.004 0.005 0.245 0.002 0.49 0.002 0.735-0.413 0.001-0.827-0-1.24 0.001-0 0.362-0.001 0.724 0 1.087 0.714 0.003 1.429-0.004 2.144 0.003 0.006 0.246 0.002 0.491 0.003 0.737-0.974 0.001-1.948 0.002-2.922-0-0.001-1.418-0.004-2.835 0.001-4.253z"></path>
<path fill="#fff" d="M14.395 1.654c0.93-0.007 1.859-0.004 2.788-0.001 0.004 0.245 0.005 0.491-0 0.736-0.671 0.006-1.342 0-2.013 0.003-0 0.316-0.001 0.632 0 0.948 0.411 0.002 0.823-0.001 1.235 0.002 0.003 0.245 0.001 0.491 0.001 0.736-0.412 0.001-0.824-0-1.236 0.001-0 0.362-0.001 0.724 0 1.087 0.713 0.002 1.427-0.001 2.141 0.001 0.005 0.247 0.003 0.493 0.001 0.739-0.974 0.002-1.947 0.001-2.92 0 0.001-1.417-0.004-2.835 0.003-4.252z"></path>
<path fill="#fff" d="M18.31 1.651c0.773 0.037 1.598-0.125 2.324 0.216 0.644 0.301 0.999 1.010 1.037 1.697 0.069 0.783-0.222 1.668-0.939 2.070-0.738 0.416-1.616 0.229-2.422 0.27-0.004-1.418-0.005-2.836 0-4.254M19.082 2.391c0 0.925-0.001 1.85 0 2.775 0.405-0.021 0.849 0.077 1.216-0.146 0.417-0.247 0.581-0.763 0.578-1.224 0.008-0.464-0.136-0.989-0.547-1.254-0.374-0.234-0.833-0.127-1.248-0.15z"></path>
<path fill="#fff" d="M4.233 6.567c0.258-0.002 0.516-0.002 0.773 0 0.003 1.168-0 2.336 0.002 3.504 0.679 0.001 1.358-0.001 2.037 0.001 0.001 0.247 0.001 0.495 0 0.742-0.938 0-1.875 0.001-2.812-0-0.001-1.416-0.002-2.832 0-4.247z"></path>
<path fill="#fff" d="M7.924 6.56c0.257-0.001 0.515-0.001 0.772 0 0.001 1.418 0 2.836 0 4.255-0.257 0.001-0.515 0.001-0.772-0-0-1.418-0.001-2.836 0-4.255z"></path>
<path fill="#fff" d="M9.956 6.56c0.256-0.001 0.513-0.001 0.77-0 0.392 0.906 0.804 1.803 1.177 2.716 0.374-0.914 0.789-1.811 1.184-2.716 0.248-0 0.496-0.001 0.744 0 0.001 1.418 0.001 2.836 0 4.255-0.257 0.001-0.514 0.001-0.77 0 0.003-0.855-0.010-1.711 0.008-2.566-0.361 0.904-0.782 1.782-1.171 2.674-0.393-0.889-0.793-1.775-1.177-2.669 0.020 0.853 0.006 1.707 0.009 2.56-0.258 0-0.516 0.002-0.773-0-0.002-1.418-0.002-2.836 0-4.254z"></path>
<path fill="#fff" d="M15.093 6.56c0.257-0 0.514-0.001 0.77 0 0.001 1.418 0.001 2.837 0 4.255-0.257 0-0.513 0-0.77-0-0.001-1.418-0.001-2.837 0-4.255z"></path>
<path fill="#fff" d="M16.856 6.557c1.053-0.001 2.106-0.001 3.158 0 0.001 0.248 0.001 0.495 0 0.743-0.398 0.001-0.795-0.001-1.193 0.001-0.002 1.171 0 2.343-0.001 3.514-0.257 0.001-0.514 0-0.772 0-0.002-1.172 0.001-2.343-0.001-3.515-0.398-0.001-0.795 0-1.192-0-0.001-0.248-0.001-0.495 0-0.743z"></path>
<path fill="#fff" d="M6.136 14.715c0.919-0.953 2.152-1.577 3.446-1.831 0.001 0.376 0.001 0.753 0 1.13-1.711 0.404-3.235 1.718-3.686 3.446 1.176-1.049 3.211-0.967 4.266 0.224 1.11 1.187 1.090 3.227-0.040 4.394-0.919 0.983-2.444 1.223-3.684 0.784-0.674-0.241-1.238-0.748-1.575-1.377-0.483-0.885-0.571-1.929-0.479-2.918 0.134-1.431 0.744-2.822 1.752-3.851M7.19 17.972c-0.533 0.103-1.031 0.424-1.296 0.904-0.423 0.762-0.334 1.821 0.312 2.434 0.766 0.723 2.091 0.747 2.889 0.064 0.798-0.712 0.82-2.092 0.101-2.866-0.508-0.531-1.307-0.668-2.006-0.536z"></path>
<path fill="#fff" d="M13.646 13.069c1.761-0.001 3.522-0.001 5.283 0 0.002 0.394 0.001 0.789 0.001 1.183-1.392 0.002-2.784-0.001-4.176 0.002-0.122 0.949-0.244 1.898-0.367 2.847 1.261-0.92 3.218-0.867 4.321 0.285 1.163 1.205 1.138 3.3 0.010 4.52-0.727 0.813-1.846 1.201-2.921 1.158-1.098-0.009-2.273-0.301-3.076-1.092 0.249-0.331 0.507-0.656 0.76-0.983 0.515 0.467 1.158 0.807 1.858 0.875 0.832 0.12 1.764-0.063 2.349-0.705 0.875-0.903 0.714-2.653-0.44-3.249-0.962-0.461-2.219-0.203-2.946 0.572-0.414-0.139-0.825-0.285-1.237-0.431 0.191-1.661 0.383-3.322 0.581-4.981z"></path>
</svg>
