<svg xmlns="http://www.w3.org/2000/svg" width="24" height="24">
    <path fill="#037863" d="M10.664 0h2.656c3.113.431 6.092 1.975 8.048 4.461 1.458 1.763 2.28 3.96 2.632 6.203v2.656c-.431 3.113-1.975 6.092-4.463 8.05-1.763 1.457-3.96 2.28-6.202 2.63h-2.656c-3.113-.431-6.092-1.975-8.048-4.463-1.458-1.762-2.281-3.96-2.632-6.202v-2.656c.347-2.283 1.199-4.515 2.694-6.295C4.647 1.942 7.59.434 10.664-.001zm-.446 2.471c-3.734.662-6.892 3.71-7.677 7.422-.946 3.949.919 8.339 4.405 10.413 2.993 1.879 7.024 1.904 10.042.066 3.916-2.238 5.784-7.381 4.19-11.608-1.474-4.409-6.402-7.245-10.96-6.294z"/>
    <path fill="#fff" d="M10.218 2.471c4.557-.952 9.486 1.885 10.96 6.294 1.594 4.227-.274 9.37-4.19 11.608-3.018 1.838-7.049 1.813-10.042-.066-3.486-2.074-5.351-6.464-4.405-10.413.785-3.712 3.943-6.76 7.677-7.422zm-4.387 4.73c-.319 1.104-.642 2.207-.961 3.309-.056.318-.343.493-.563.693-.014.892-.031 1.784-.027 2.678l-.322.272c.024.48-.114 1.007.062 1.457.525.213 1.159.045 1.727.097.007.592-.034 1.184.04 1.773.535-.007 1.12.121 1.625-.052.155-.552.025-1.163.068-1.739h9.088c.025.601-.064 1.213.066 1.806.536.014 1.072.016 1.608-.001.11-.589.042-1.19.056-1.784.568-.042 1.173.093 1.717-.082.195-.459.045-1.005.069-1.499-.079-.052-.24-.158-.319-.212.001-.905-.01-1.811-.028-2.716-.195-.189-.47-.335-.538-.617-.337-1.128-.654-2.262-.992-3.388a27.92 27.92 0 0 0-12.374.006z"/>
    <path fill="#fff" d="M6.61 9.867l.767-.001c.34 1.048.655 2.104 1 3.151.339-1.046.659-2.099.991-3.148l.769-.004c-.479 1.559-.985 3.109-1.451 4.672l-.601.031c-.493-1.566-.99-3.131-1.474-4.7zM10.511 9.868c.779.051 1.605-.14 2.351.134.843.383.851 1.636.062 2.084.929.472.916 1.913-.034 2.346-.76.257-1.59.073-2.379.123V9.868zm.737.73c-.001.392-.001.784.001 1.176.433-.035.963.128 1.313-.208.277-.232.316-.752-.04-.93-.419-.078-.85-.032-1.275-.038zm-.009 1.902c-.003.442-.003.884 0 1.326.457-.023.942.076 1.382-.076.545-.301.215-1.184-.34-1.237-.346-.032-.695-.014-1.042-.013zM13.825 9.86c.263.004.527.013.791.028.309 1.049.641 2.091.98 3.131.33-1.046.662-2.092.981-3.141.26-.007.518-.014.778-.017-.483 1.564-.981 3.123-1.463 4.687l-.594.011c-.488-1.567-.988-3.131-1.472-4.7z"/>
    <path fill="#030303" d="M5.831 7.201a27.92 27.92 0 0 1 12.374-.006c.339 1.127.655 2.26.992 3.388.068.282.343.428.538.617.018.905.03 1.811.028 2.716.079.054.24.16.319.212-.024.494.126 1.04-.069 1.499-.544.175-1.149.04-1.717.082-.014.594.054 1.196-.056 1.784a26.94 26.94 0 0 1-1.608.001c-.13-.593-.041-1.204-.066-1.806H7.478c-.042.576.088 1.187-.068 1.739-.505.174-1.09.045-1.625.052-.073-.589-.032-1.182-.04-1.773-.568-.052-1.201.116-1.727-.097-.176-.45-.038-.977-.062-1.457.107-.092.215-.182.322-.272-.004-.894.013-1.786.027-2.678.22-.2.507-.376.563-.693.319-1.103.642-2.205.961-3.309zm.779 2.666c.484 1.568.981 3.134 1.474 4.7l.601-.031c.466-1.563.973-3.113 1.451-4.672l-.769.004c-.332 1.049-.652 2.102-.991 3.148-.344-1.048-.659-2.104-1-3.151l-.767.001zm3.901.001v4.687c.789-.049 1.619.134 2.379-.123.95-.433.963-1.875.034-2.346.789-.448.781-1.701-.062-2.084-.745-.274-1.571-.083-2.351-.134zm3.314-.008c.484 1.568.984 3.133 1.472 4.7l.594-.011c.481-1.564.98-3.123 1.463-4.687-.26.003-.518.01-.778.017-.319 1.049-.651 2.095-.981 3.141-.339-1.04-.671-2.082-.98-3.131a17.466 17.466 0 0 0-.791-.028z"/>
    <path fill="#030303" d="M11.248 10.598c.425.006.856-.04 1.275.038.356.178.316.699.04.93-.35.336-.88.172-1.313.208a92.2 92.2 0 0 1-.001-1.176zM11.239 12.5c.347-.001.696-.02 1.042.013.555.052.885.936.34 1.237-.44.152-.925.054-1.382.076a97.683 97.683 0 0 1 0-1.326z"/>
</svg>
