<?xml version="1.0" encoding="utf-8"?>
<!-- Generated by IcoMoon.io -->
<!DOCTYPE svg PUBLIC "-//W3C//DTD SVG 1.1//EN" "http://www.w3.org/Graphics/SVG/1.1/DTD/svg11.dtd">
<svg version="1.1" xmlns="http://www.w3.org/2000/svg" xmlns:xlink="http://www.w3.org/1999/xlink" width="24" height="24" viewBox="0 0 24 24">
<path fill="#00a0dc" d="M1.054 0.556c0.476-0.143 0.98-0.088 1.47-0.096 6.64 0 13.28 0.002 19.92 0.001 0.307 0.013 0.659 0.047 0.875 0.295 0.066 0.3 0.029 0.613 0.037 0.919-0.005 7.157 0.002 14.314-0.006 21.47-0.235 0.155-0.484 0.331-0.782 0.3-3.601-0.023-7.202 0.062-10.805 0.037-3.438-0.005-6.876 0.011-10.313-0.007-0.419 0.007-0.719-0.3-0.907-0.641 0.008-7.26 0.006-14.521 0.001-21.782 0.157-0.176 0.295-0.385 0.51-0.497M15.966 3.593c-0.899 1.085-1.872 2.106-2.785 3.179 0.421 0.014 0.842 0.013 1.264 0.016 0.008 4.433-0.014 8.867 0.013 13.3 1.052 0 2.104-0.004 3.155 0.004 0.097-0.733 0.042-1.472 0.054-2.209 0.012-3.7-0.025-7.4 0.008-11.1 0.398 0.002 0.797 0.005 1.195-0.008-0.311-0.395-0.642-0.773-0.99-1.136-0.643-0.676-1.208-1.429-1.914-2.044M6.433 3.8c-0.012 4.432 0.010 8.863-0.002 13.295-0.382 0-0.763 0-1.145 0 0.017 0.052 0.049 0.154 0.066 0.204 0.91 0.978 1.802 1.969 2.687 2.971 0.942-1.045 1.89-2.089 2.792-3.169-0.396-0.010-0.792-0.011-1.188-0.008-0.018-3.818-0.005-7.637-0.011-11.455-0.007-0.616 0.041-1.236-0.066-1.847-1.045 0.010-2.089 0.001-3.133 0.010z"></path>
<path fill="#fff" d="M15.966 3.593c0.706 0.614 1.271 1.368 1.914 2.044 0.348 0.364 0.679 0.742 0.99 1.136-0.398 0.013-0.797 0.011-1.195 0.008-0.034 3.7 0.004 7.4-0.008 11.1-0.012 0.737 0.043 1.476-0.054 2.209-1.051-0.007-2.102-0.004-3.155-0.004-0.028-4.433-0.005-8.867-0.013-13.3-0.421-0.002-0.842-0.001-1.264-0.016 0.913-1.073 1.886-2.094 2.785-3.179z"></path>
<path fill="#c70125" d="M6.433 3.8c1.044-0.008 2.088 0 3.133-0.010 0.107 0.611 0.059 1.231 0.066 1.847 0.006 3.818-0.007 7.637 0.011 11.455 0.396-0.002 0.792-0.001 1.188 0.008-0.902 1.080-1.85 2.124-2.792 3.169-0.884-1.002-1.777-1.993-2.687-2.971-0.017-0.050-0.049-0.152-0.066-0.204 0.382 0 0.763 0 1.145 0 0.012-4.432-0.010-8.863 0.002-13.295z"></path>
</svg>
