<!-- Generated by IcoMoon.io -->
<svg version="1.1" xmlns="http://www.w3.org/2000/svg" width="24" height="24" viewBox="0 0 24 24">
<title>regulatory--no-motor-vehicles-except-motorcycles--g3</title>
<path fill="#e20a16" d="M11.090 0h1.536c4.523 0.227 8.766 3.188 10.46 7.397 0.496 1.133 0.725 2.353 0.913 3.568v2.128c-0.434 4.189-3.109 8.083-6.976 9.811-1.223 0.596-2.564 0.869-3.896 1.097h-2.224c-4.001-0.438-7.75-2.881-9.565-6.502-0.792-1.505-1.199-3.182-1.339-4.87v-1.247c0.234-4.711 3.455-9.104 7.919-10.663 1.021-0.379 2.101-0.546 3.172-0.719M5.057 4.817c-2.732 2.58-3.757 6.763-2.548 10.319 0.654 1.992 1.958 3.755 3.653 4.987 1.235-2.126 2.462-4.256 3.688-6.388 0.594-1.015 1.18-2.035 1.765-3.055 0.332-0.568 0.66-1.138 0.988-1.709 0.092-0.164 0.184-0.33 0.277-0.496 1.091-1.855 2.159-3.722 3.23-5.588-3.625-1.679-8.218-0.89-11.053 1.93M15.214 8.453c-0.097 0.168-0.194 0.336-0.293 0.504-0.277 0.466-0.538 0.941-0.8 1.414-0.666 1.109-1.314 2.23-1.94 3.362-1.448 2.45-2.856 4.927-4.28 7.393 2.082 0.942 4.488 1.135 6.694 0.541 3.586-0.929 6.497-4.007 7.207-7.645 0.824-3.77-0.796-7.914-3.95-10.133-0.884 1.518-1.76 3.041-2.636 4.564z"></path>
<path fill="#fff" d="M5.057 4.817c2.836-2.82 7.428-3.608 11.053-1.93-1.072 1.866-2.14 3.733-3.23 5.588-0.802 0.049-1.608 0.089-2.399 0.226-1.176 0.341-1.727 1.849-3.036 1.859-1.169 0.198-2.366 0.289-3.512 0.584-0.604 0.623-0.253 1.621 0.091 2.303 0.229 0 0.46 0 0.69-0.001 0.014-1.052 0.93-2.021 2.010-1.927 1.115 0.024 1.933 1.142 1.783 2.218 0.448 0 0.895-0.001 1.343-0.001-1.225 2.131-2.453 4.261-3.688 6.388-1.694-1.232-2.999-2.995-3.653-4.987-1.21-3.556-0.185-7.739 2.548-10.319M6.396 12.161c-0.9 0.116-1.346 1.316-0.76 2.002 0.547 0.775 1.903 0.556 2.171-0.359 0.344-0.86-0.508-1.854-1.411-1.643z"></path>
<path fill="#fff" d="M15.214 8.453c0.876-1.523 1.752-3.046 2.636-4.564 3.155 2.219 4.775 6.362 3.95 10.133-0.71 3.638-3.622 6.716-7.207 7.645-2.206 0.594-4.612 0.401-6.694-0.541 1.424-2.466 2.832-4.943 4.28-7.393 1.202 0.008 2.404-0.002 3.605 0.006-0.158-1.1 0.709-2.244 1.854-2.222 1.172-0.058 2.076 1.109 1.915 2.233 0.672-0.745 0.97-1.772 0.81-2.764-0.883-0.725-1.615-1.627-2.533-2.306-0.84-0.26-1.747-0.18-2.617-0.227M17.437 12.162c-0.9 0.118-1.342 1.315-0.757 1.999 0.546 0.776 1.902 0.558 2.17-0.356 0.347-0.862-0.509-1.859-1.412-1.643z"></path>
<path fill="#fff" d="M10.045 9.683c0.679-0.66 1.662-0.727 2.557-0.712-0.328 0.571-0.655 1.141-0.988 1.709-0.659-0.022-1.324 0.049-1.979-0.036-0.438-0.336 0.16-0.727 0.409-0.961z"></path>
<path fill="#fff" d="M14.921 8.957c0.426-0.005 0.853-0.017 1.279 0.002 0.656-0.046 1.074 0.54 1.526 0.917 0.336 0.211 0.23 0.811-0.202 0.791-1.003 0.026-2.009 0.020-3.013 0.004-0.203 0.026-0.283-0.173-0.391-0.3 0.263-0.473 0.523-0.948 0.8-1.414z"></path>
<path fill="#000" d="M10.481 8.701c0.791-0.137 1.597-0.176 2.399-0.226-0.094 0.166-0.185 0.331-0.277 0.496-0.895-0.016-1.878 0.052-2.557 0.712-0.25 0.234-0.847 0.625-0.409 0.961 0.655 0.085 1.32 0.014 1.979 0.036-0.586 1.020-1.171 2.040-1.765 3.055-0.448 0-0.895 0.001-1.343 0.001 0.15-1.075-0.668-2.194-1.783-2.218-1.080-0.094-1.996 0.875-2.010 1.927-0.23 0.001-0.461 0.001-0.69 0.001-0.344-0.682-0.695-1.68-0.091-2.303 1.146-0.295 2.344-0.386 3.512-0.584 1.309-0.010 1.86-1.518 3.036-1.859z"></path>
<path fill="#000" d="M14.921 8.957c0.098-0.168 0.196-0.336 0.293-0.504 0.87 0.047 1.777-0.034 2.617 0.227 0.918 0.679 1.65 1.582 2.533 2.306 0.16 0.991-0.138 2.018-0.81 2.764 0.161-1.124-0.743-2.291-1.915-2.233-1.145-0.022-2.012 1.122-1.854 2.222-1.201-0.008-2.402 0.002-3.605-0.006 0.626-1.133 1.274-2.254 1.94-3.362 0.108 0.127 0.188 0.326 0.391 0.3 1.004 0.017 2.010 0.023 3.013-0.004 0.432 0.020 0.538-0.58 0.202-0.791-0.452-0.377-0.87-0.962-1.526-0.917-0.426-0.019-0.853-0.007-1.279-0.002z"></path>
<path fill="#000" d="M6.396 12.161c0.904-0.211 1.756 0.782 1.411 1.643-0.268 0.914-1.624 1.134-2.171 0.359-0.587-0.685-0.14-1.885 0.76-2.002z"></path>
<path fill="#000" d="M17.437 12.162c0.904-0.216 1.759 0.781 1.412 1.643-0.268 0.914-1.624 1.133-2.17 0.356-0.584-0.684-0.143-1.882 0.757-1.999z"></path>
</svg>
