<?xml version="1.0" encoding="utf-8"?>
<!-- Generated by IcoMoon.io -->
<!DOCTYPE svg PUBLIC "-//W3C//DTD SVG 1.1//EN" "http://www.w3.org/Graphics/SVG/1.1/DTD/svg11.dtd">
<svg version="1.1" xmlns="http://www.w3.org/2000/svg" xmlns:xlink="http://www.w3.org/1999/xlink" width="24" height="24" viewBox="0 0 24 24">
<path fill="#e20a16" d="M11.375 0h1.218c1.554 0.136 3.113 0.458 4.523 1.145 2.779 1.301 5.020 3.709 6.103 6.583 0.454 1.153 0.682 2.381 0.781 3.612v1.315c-0.152 2.441-1.032 4.837-2.556 6.756-2.090 2.695-5.372 4.39-8.773 4.589h-1.328c-2.034-0.14-4.042-0.756-5.758-1.866-2.34-1.466-4.134-3.778-4.985-6.404-0.394-1.177-0.57-2.417-0.6-3.655v-0.15c0.032-1.666 0.371-3.33 1.066-4.848 1.282-2.87 3.742-5.19 6.686-6.294 1.157-0.451 2.394-0.658 3.623-0.782M7.35 3.155c-2.209 1.157-3.954 3.169-4.775 5.525-0.959 2.694-0.691 5.801 0.748 8.275 0.994 1.748 2.526 3.188 4.344 4.051 0.46-1.3 0.966-2.587 1.399-3.894 0.218-0.498 0.382-1.019 0.572-1.528 0.209-0.571 0.42-1.142 0.624-1.715 0.050-0.126 0.097-0.254 0.138-0.385 1.363-3.719 2.707-7.445 4.069-11.164-2.366-0.616-4.957-0.306-7.12 0.834M16.354 2.996c-0.631 1.729-1.265 3.458-1.888 5.191-0.041 0.109-0.077 0.221-0.109 0.334-0.089 0.186-0.157 0.382-0.227 0.576-0.061 0.162-0.119 0.326-0.178 0.49l-0.046 0.126c-0.047 0.122-0.092 0.247-0.133 0.372-0.074 0.187-0.143 0.378-0.205 0.57-0.316 0.839-0.616 1.684-0.924 2.526-0.026 0.076-0.080 0.228-0.107 0.304-0.056 0.133-0.106 0.27-0.149 0.408-0.042 0.1-0.079 0.2-0.113 0.302 0.010 0.242-0.209 0.398-0.209 0.635-0.11 0.173-0.156 0.38-0.224 0.574-0.068 0.16-0.131 0.322-0.181 0.488-0.712 1.933-1.414 3.871-2.116 5.808 2.959 0.77 6.248 0.074 8.636-1.835 1.789-1.399 3.080-3.428 3.576-5.646 0.533-2.332 0.198-4.854-0.948-6.955-0.986-1.846-2.575-3.358-4.457-4.267z"></path>
<path fill="#fff" d="M7.35 3.155c2.162-1.14 4.753-1.45 7.12-0.834-1.362 3.719-2.706 7.445-4.069 11.164-1.573-0.050-3.132-0.332-4.649-0.75 0.316-0.083 0.637-0.138 0.952-0.222 0.15-0.169 0.286-0.35 0.432-0.522 0.091 0.274 0.173 0.552 0.259 0.828 0.607 0.108 1.212 0.239 1.828 0.296-0.149-0.769-0.337-1.531-0.443-2.308-0.092-0.412-0.277-0.838-0.632-1.087-0.431-0.293-1.082-0.107-1.301 0.365-0.245 0.547-0.473 1.102-0.716 1.65-0.346 0.283-0.78 0.457-1.074 0.799-0.493-0.154-0.968-0.359-1.458-0.523-0.191-0.017-0.326 0.286-0.132 0.368 2.158 0.881 4.469 1.384 6.797 1.49-0.204 0.572-0.415 1.144-0.624 1.715 0.046-0.492-0.155-0.974-0.226-1.459-0.746-0.078-1.484-0.216-2.224-0.335-0.288 0.521-0.559 1.052-0.832 1.582-0.191 0.794-0.348 1.597-0.518 2.396 0.374 0.118 0.8-0.061 0.943-0.433 0.197-0.566 0.367-1.141 0.557-1.71 0.256-0.408 0.547-0.794 0.828-1.186 0.299 0.89 0.63 1.772 0.899 2.672-0.433 1.307-0.94 2.594-1.399 3.894-1.818-0.863-3.35-2.303-4.344-4.051-1.439-2.474-1.706-5.581-0.748-8.275 0.821-2.356 2.566-4.368 4.775-5.525M7.003 7.967c-0.498 0.233-0.522 1.016-0.044 1.285 0.455 0.314 1.147-0.064 1.13-0.616 0.038-0.542-0.619-0.947-1.086-0.67z"></path>
<path fill="#fff" d="M16.354 2.996c1.882 0.91 3.47 2.422 4.457 4.267 1.146 2.101 1.481 4.624 0.948 6.955-0.496 2.218-1.787 4.247-3.576 5.646-2.388 1.909-5.677 2.605-8.636 1.835 0.702-1.937 1.404-3.875 2.116-5.808 0.702 1.020 1.86 1.687 3.085 1.834 1.152 0.137 2.364-0.19 3.256-0.938 1.007-0.797 1.621-2.060 1.642-3.343 0.028-0.667-0.163-1.318-0.386-1.939-0.006-1.157 0.004-2.314-0.005-3.47-0.012-0.431-0.649-0.528-0.77-0.11-0.043 0.797-0.008 1.6-0.018 2.399-0.132-0.116-0.265-0.232-0.398-0.346-0.080-0.572 0.136-1.204-0.16-1.73-0.158-0.298-0.545-0.4-0.85-0.283-0.458 0.126-0.834 0.427-1.212 0.701-0.464-0.145-0.906-0.37-1.379-0.476 0.623-1.733 1.256-3.462 1.888-5.191M17.432 6.379c-0.434 0.223-0.449 0.916-0.028 1.16 0.388 0.278 0.988 0 1.038-0.47 0.112-0.534-0.551-0.994-1.010-0.69z"></path>
<path fill="#fff" d="M14.13 9.097c0.070-0.194 0.138-0.39 0.227-0.576 0 0.289 0.314 0.364 0.526 0.46-0.256 0.005-0.506 0.050-0.752 0.116z"></path>
<path fill="#fff" d="M13.952 9.587c0.361-0.158 0.757-0.222 1.15-0.244 0.002 0.271 0.005 0.542-0.001 0.814-0.317 0.031-0.63 0.090-0.936 0.181-0.091-0.206-0.176-0.415-0.258-0.625l0.046-0.126z"></path>
<path fill="#fff" d="M15.392 9.343c0.426 0.013 0.844 0.12 1.247 0.254-0.097 0.25-0.188 0.502-0.29 0.749-0.314-0.088-0.634-0.157-0.958-0.204 0-0.266 0-0.533 0.001-0.799z"></path>
<path fill="#fff" d="M16.926 9.709c0.391 0.174 0.736 0.442 1.056 0.721-0.196 0.187-0.386 0.379-0.575 0.574-0.226-0.235-0.506-0.397-0.791-0.547 0.095-0.253 0.209-0.498 0.31-0.748z"></path>
<path fill="#fff" d="M13.568 10.655c0.062-0.192 0.131-0.383 0.205-0.57 0.034 0.124 0.074 0.246 0.124 0.365-0.108 0.071-0.222 0.133-0.329 0.205z"></path>
<path fill="#fff" d="M17.64 11.225c0.118-0.232 0.359-0.41 0.544-0.6 0.301 0.311 0.508 0.697 0.71 1.076-0.252 0.083-0.493 0.192-0.74 0.286-0.155-0.264-0.323-0.522-0.514-0.762z"></path>
<path fill="#fff" d="M18.274 12.248c0.235-0.102 0.472-0.202 0.715-0.281 0.151 0.396 0.245 0.815 0.264 1.24-0.265-0.030-0.582 0.059-0.821-0.038-0.016-0.313-0.089-0.617-0.158-0.92z"></path>
<path fill="#fff" d="M12.644 13.181c0.868-0.064 1.733-0.168 2.591-0.312 0.553-0.065 0.69 0.836 0.151 0.954-1.028 0.182-2.066 0.314-3.11 0.372 0.034-0.102 0.071-0.203 0.113-0.302 0.991-0.088 1.99-0.146 2.965-0.36 0.175-0.089 0.107-0.409-0.102-0.37-0.904 0.125-1.805 0.258-2.714 0.322 0.026-0.076 0.080-0.228 0.107-0.304z"></path>
<path fill="#fff" d="M18.446 13.496c0.269-0.001 0.539-0.004 0.809 0.002-0.017 0.427-0.125 0.845-0.264 1.247-0.24-0.101-0.474-0.217-0.718-0.308 0.104-0.304 0.155-0.62 0.173-0.941z"></path>
<path fill="#fff" d="M12.067 14.83c0.076-0.032 0.226-0.096 0.301-0.127 0.13 0.3 0.318 0.566 0.518 0.823-0.196 0.173-0.374 0.365-0.569 0.539-0.185-0.198-0.358-0.416-0.475-0.661 0.068-0.193 0.114-0.401 0.224-0.574z"></path>
<path fill="#fff" d="M18.155 14.702c0.244 0.11 0.499 0.19 0.74 0.307-0.173 0.394-0.432 0.74-0.719 1.057-0.167-0.199-0.42-0.354-0.534-0.578 0.212-0.234 0.362-0.51 0.512-0.786z"></path>
<path fill="#fff" d="M12.538 16.283c0.178-0.198 0.366-0.384 0.548-0.576 0.252 0.214 0.524 0.396 0.812 0.558-0.103 0.238-0.202 0.478-0.308 0.714-0.392-0.163-0.744-0.406-1.052-0.696z"></path>
<path fill="#fff" d="M16.618 16.26c0.281-0.148 0.535-0.328 0.78-0.529 0.223 0.136 0.384 0.374 0.583 0.55-0.316 0.274-0.667 0.496-1.031 0.696-0.149-0.216-0.216-0.481-0.332-0.716z"></path>
<path fill="#fff" d="M14.162 16.37c0.308 0.066 0.618 0.169 0.94 0.181 0.002 0.263 0.001 0.524 0.001 0.786-0.424-0.020-0.85-0.084-1.248-0.234 0.102-0.245 0.202-0.491 0.307-0.733z"></path>
<path fill="#fff" d="M15.392 16.549c0.328-0.029 0.653-0.084 0.968-0.178 0.064 0.253 0.246 0.5 0.246 0.752-0.395 0.116-0.799 0.202-1.212 0.216-0.007-0.263-0.002-0.527-0.002-0.791z"></path>
<path fill="#000" d="M17.432 6.379c0.46-0.304 1.122 0.156 1.010 0.69-0.050 0.47-0.65 0.749-1.038 0.47-0.421-0.245-0.407-0.937 0.028-1.16z"></path>
<path fill="#000" d="M18.482 7.924c0.121-0.418 0.758-0.32 0.77 0.11 0.008 1.157-0.001 2.314 0.005 3.47 0.223 0.622 0.414 1.272 0.386 1.939-0.020 1.283-0.635 2.546-1.642 3.343-0.892 0.749-2.104 1.075-3.256 0.938-1.225-0.146-2.383-0.814-3.085-1.834 0.050-0.167 0.113-0.329 0.181-0.488 0.118 0.245 0.29 0.463 0.475 0.661 0.194-0.174 0.373-0.366 0.569-0.539-0.2-0.257-0.389-0.523-0.518-0.823-0.076 0.031-0.226 0.095-0.301 0.127 0-0.236 0.218-0.392 0.209-0.635 1.044-0.058 2.082-0.19 3.11-0.372 0.539-0.118 0.402-1.019-0.151-0.954-0.858 0.144-1.723 0.248-2.591 0.312 0.308-0.842 0.608-1.687 0.924-2.526 0.107-0.072 0.221-0.134 0.329-0.205-0.049-0.119-0.090-0.241-0.124-0.365 0.041-0.125 0.086-0.25 0.133-0.372 0.082 0.21 0.167 0.419 0.258 0.625 0.306-0.091 0.619-0.15 0.936-0.181 0.006-0.271 0.004-0.542 0.001-0.814-0.392 0.022-0.788 0.085-1.15 0.244 0.059-0.163 0.116-0.328 0.178-0.49 0.246-0.066 0.497-0.112 0.752-0.116-0.211-0.096-0.526-0.17-0.526-0.46 0.032-0.113 0.068-0.224 0.109-0.334 0.473 0.107 0.914 0.331 1.379 0.476 0.378-0.274 0.754-0.575 1.212-0.701 0.305-0.116 0.691-0.014 0.85 0.283 0.295 0.527 0.079 1.158 0.16 1.73 0.133 0.114 0.266 0.229 0.398 0.346 0.010-0.799-0.025-1.602 0.018-2.399M15.392 9.343c-0.001 0.266-0.001 0.533-0.001 0.799 0.324 0.047 0.643 0.116 0.958 0.204 0.102-0.247 0.193-0.499 0.29-0.749-0.403-0.134-0.821-0.241-1.247-0.254M16.926 9.709c-0.101 0.25-0.215 0.494-0.31 0.748 0.284 0.15 0.565 0.312 0.791 0.547 0.188-0.194 0.379-0.386 0.575-0.574-0.32-0.28-0.665-0.547-1.056-0.721M17.64 11.225c0.191 0.24 0.359 0.498 0.514 0.762 0.247-0.094 0.488-0.203 0.74-0.286-0.203-0.379-0.409-0.766-0.71-1.076-0.185 0.19-0.426 0.368-0.544 0.6M18.274 12.248c0.070 0.304 0.143 0.607 0.158 0.92 0.239 0.097 0.556 0.008 0.821 0.038-0.019-0.425-0.113-0.844-0.264-1.24-0.244 0.079-0.48 0.179-0.715 0.281M18.446 13.496c-0.018 0.32-0.068 0.637-0.173 0.941 0.244 0.091 0.478 0.208 0.718 0.308 0.139-0.402 0.247-0.82 0.264-1.247-0.27-0.006-0.54-0.004-0.809-0.002M18.155 14.702c-0.15 0.276-0.3 0.552-0.512 0.786 0.114 0.224 0.367 0.379 0.534 0.578 0.287-0.317 0.546-0.664 0.719-1.057-0.241-0.118-0.497-0.197-0.74-0.307M12.538 16.283c0.308 0.29 0.66 0.533 1.052 0.696 0.107-0.236 0.205-0.476 0.308-0.714-0.288-0.162-0.56-0.344-0.812-0.558-0.182 0.192-0.371 0.378-0.548 0.576M16.618 16.26c0.116 0.235 0.184 0.5 0.332 0.716 0.364-0.2 0.715-0.422 1.031-0.696-0.199-0.175-0.36-0.414-0.583-0.55-0.245 0.202-0.499 0.382-0.78 0.529M14.162 16.37c-0.106 0.242-0.205 0.488-0.307 0.733 0.398 0.15 0.824 0.214 1.248 0.234 0-0.262 0.001-0.523-0.001-0.786-0.322-0.012-0.631-0.115-0.94-0.181M15.392 16.549c0 0.264-0.005 0.528 0.002 0.791 0.413-0.014 0.817-0.1 1.212-0.216 0-0.252-0.182-0.499-0.246-0.752-0.316 0.094-0.641 0.149-0.968 0.178z"></path>
<path fill="#000" d="M7.003 7.967c0.467-0.277 1.124 0.127 1.086 0.67 0.017 0.552-0.676 0.93-1.13 0.616-0.478-0.269-0.454-1.052 0.044-1.285z"></path>
<path fill="#000" d="M6.846 10.085c0.218-0.472 0.87-0.658 1.301-0.365 0.355 0.25 0.54 0.676 0.632 1.087 0.106 0.776 0.294 1.538 0.443 2.308-0.616-0.058-1.22-0.188-1.828-0.296-0.086-0.276-0.168-0.554-0.259-0.828-0.146 0.172-0.282 0.353-0.432 0.522-0.314 0.084-0.636 0.139-0.952 0.222 1.517 0.418 3.076 0.7 4.649 0.75-0.041 0.131-0.088 0.259-0.138 0.385-2.328-0.107-4.639-0.61-6.797-1.49-0.194-0.083-0.059-0.385 0.132-0.368 0.49 0.164 0.965 0.37 1.458 0.523 0.294-0.342 0.728-0.516 1.074-0.799 0.244-0.548 0.472-1.103 0.716-1.65z"></path>
<path fill="#000" d="M12.538 13.484c0.91-0.064 1.811-0.197 2.714-0.322 0.209-0.040 0.277 0.281 0.102 0.37-0.976 0.214-1.974 0.272-2.965 0.36 0.043-0.138 0.092-0.275 0.149-0.408z"></path>
<path fill="#000" d="M7.189 13.79c0.739 0.119 1.477 0.257 2.224 0.335 0.071 0.485 0.271 0.967 0.226 1.459-0.191 0.509-0.354 1.030-0.572 1.528-0.269-0.9-0.6-1.782-0.899-2.672-0.281 0.391-0.572 0.778-0.828 1.186-0.19 0.569-0.36 1.144-0.557 1.71-0.143 0.372-0.569 0.551-0.943 0.433 0.17-0.799 0.328-1.602 0.518-2.396 0.272-0.529 0.544-1.061 0.832-1.582z"></path>
</svg>
