<svg xmlns="http://www.w3.org/2000/svg" width="24" height="24">
    <path fill="#a4a6a8" d="M5.86 0h12.377v.056C14.11.058 9.982.054 5.855.059L5.86 0z"/>
    <path fill="#fff" d="M5.49.094a.189.189 0 0 1 .189-.04c-.045.078-.108.092-.189.04zM5.701.196c.224-.042.453-.048.681-.046 3.873.005 7.746-.005 11.619.005.8-.01 1.562.531 1.818 1.287.139.375.108.78.112 1.173v18.828c.002.435.021.891-.171 1.294-.304.701-1.051 1.161-1.811 1.142-3.973-.001-7.946.007-11.919-.004-1.004-.009-1.887-.907-1.87-1.912-.009-6.604-.002-13.208-.003-19.811-.036-.913.65-1.779 1.546-1.955zm.123.418c-.691.117-1.244.771-1.231 1.475 0 6.627-.003 13.255.001 19.882-.005.791.711 1.486 1.499 1.471 3.951.005 7.902.002 11.853.002a1.527 1.527 0 0 0 1.43-.919c.152-.34.121-.719.122-1.081V2.558c-.004-.329.03-.672-.096-.985-.207-.57-.783-.989-1.394-.983-3.837-.002-7.673.001-11.51-.001-.225.001-.452-.011-.675.026z"/>
    <path fill="#fff" d="M5.88 1.193c.088-.02.178-.023.267-.024 3.954.003 7.909-.002 11.863.003.489-.005.911.431.905.917.002 6.608.001 13.216.001 19.824.024.522-.448.986-.97.951-3.95-.001-7.902.003-11.853-.002-.503.013-.944-.448-.922-.948-.002-6.589-.001-13.177-.001-19.766a.943.943 0 0 1 .711-.954zm4.124 1.854c-.379.085-.53.512-.58.854-.049.525-.072 1.101.205 1.572.219.401.896.386 1.096-.027.278-.497.248-1.105.17-1.651-.056-.431-.406-.891-.891-.749zm1.362.028c-.001.882-.002 1.763.001 2.645l.375.001c.001-.594.002-1.187-.001-1.781.273.592.549 1.183.818 1.777l.291.005c-.001-.883.001-1.766-.001-2.649l-.38-.001c-.001.53-.001 1.06.001 1.59-.246-.53-.479-1.066-.733-1.593l-.372.006zm1.95-.003c-.003.88.004 1.76-.004 2.639.45.019.901.005 1.352.008l-.002-.37-.964-.001c-.002-.291-.001-.583-.001-.874l.548-.001-.001-.361-.546-.002c-.003-.223-.002-.445-.002-.667.288-.001.576-.001.865.001l-.001-.37c-.415-.004-.83-.001-1.245-.002zm-2.264 4.277c-.477-.019-.697.492-.74.891-.049.522-.07 1.098.213 1.563.22.375.854.378 1.07-.001.264-.424.252-.945.226-1.425-.027-.437-.227-1.061-.769-1.028zm-2.657.045c.001.883-.003 1.765.002 2.648l.379.001-.001-1.199c.242 0 .483 0 .725.002.003.399 0 .797.002 1.197h.381c-.002-.882.001-1.765-.002-2.647l-.379-.001c-.002.358 0 .716-.001 1.074l-.726.001c-.001-.358.001-.717-.002-1.074l-.379-.001zm3.839.001c.003.654-.009 1.309.005 1.962a.749.749 0 0 0 .644.718c.416.065.834-.294.832-.717.009-.654.002-1.309.002-1.964l-.378-.001c-.013.68.031 1.363-.022 2.041-.059.386-.668.341-.689-.042-.034-.665-.003-1.332-.015-1.998l-.379-.001zm1.933 0v2.646l.381.001c0-.415-.001-.83 0-1.245l.367-.003c.111.418.232.834.353 1.249l.387-.002c-.119-.433-.259-.86-.373-1.294.504-.234.501-1.09-.024-1.295-.35-.114-.729-.035-1.09-.057zm2.242 4.491c-.369.554-.299 1.289-.173 1.912.089.498.739.778 1.138.446.341-.295.224-.787.241-1.182a37.857 37.857 0 0 0-.674 0l-.001.366c.102.003.203.005.304.009-.024.189.026.46-.182.561-.263.096-.484-.157-.506-.4-.06-.467-.119-.979.088-1.416.156-.28.557-.149.618.135l.364-.002c-.017-.608-.83-.895-1.219-.428zm-9.913-.191v2.646l.381.001V13.18c.301-.009.653.053.898-.167.355-.368.26-1.145-.278-1.289-.329-.063-.668-.017-1-.03zm2.156-.001c-.219.884-.439 1.767-.66 2.65l.387-.008c.053-.241.113-.48.172-.719l.566-.001.187.726.378.001c-.221-.882-.44-1.764-.662-2.646l-.368-.003zm1.242.001l.001 2.646.381.002c.002-.416-.001-.832.002-1.248l.368.002c.109.416.232.828.349 1.242l.39.003c-.123-.43-.254-.858-.374-1.288.51-.244.501-1.116-.044-1.308-.347-.1-.715-.034-1.071-.052zm1.788-.001c0 .883-.001 1.765.001 2.648l.381.001c-.001-.441-.07-.918.24-1.281.164.424.309.855.468 1.281l.399-.002c-.208-.571-.412-1.144-.614-1.716.179-.311.366-.618.545-.929l-.431-.003c-.205.345-.395.7-.603 1.045-.009-.348-.002-.695-.006-1.042l-.379-.003zm1.783.001c.002.883-.002 1.765.002 2.647l.373.001c-.003-.883.003-1.765-.003-2.648l-.372-.001zm.809-.002c.002.883-.002 1.766.002 2.649l.381.002c-.002-.588-.003-1.174 0-1.762.281.582.54 1.174.816 1.758l.287.005c-.003-.883.002-1.767-.003-2.65h-.38c0 .522.003 1.045-.001 1.567-.251-.516-.476-1.044-.719-1.563l-.384-.006zm-7.632 4.602c-.16.469-.093 1.266.554 1.27-.139.32-.36.593-.619.822l.184.282c.703-.546 1.109-1.502.882-2.379-.114-.478-.889-.47-1 .003zm1.828-.318c-.185.881-.356 1.765-.539 2.646l.34.003c.052-.235.103-.47.151-.705h.441c.045.235.096.469.142.704l.359-.002c-.189-.88-.364-1.763-.55-2.644a19.61 19.61 0 0 0-.343-.003zm1.255 0v2.647h.333c.001-.52.002-1.04-.002-1.56.115.323.214.651.327.976.113-.319.201-.646.316-.964.006.515 0 1.031.003 1.547.11.002.22.002.331.003.007-.883.002-1.766.002-2.649l-.335.002c-.105.304-.199.614-.317.913-.118-.302-.216-.611-.325-.916l-.333.001zm3.355.001l.001.343c.266.002.531.001.797.002-.351.714-.49 1.513-.51 2.304l.342-.002c.02-.716.113-1.445.426-2.097.095-.168.094-.363.091-.549H13.08zm1.646 0c-.001.882-.002 1.764.001 2.646l.333.001c0-.381.001-.762-.001-1.144.657.127 1.007-.672.71-1.183-.175-.413-.686-.311-1.043-.32zm1.503 0v2.647l.331-.001c.007-.517-.001-1.034.003-1.551.117.319.216.645.327.966.109-.302.184-.615.306-.912.021.499.003.998.01 1.497l.332.001c.002-.883.001-1.766.001-2.649l-.333.003c-.108.306-.206.615-.317.92-.115-.306-.216-.616-.325-.923l-.335.002zm-4.466 1.233l.003.344c.274.002.549.002.823.001l-.001-.343c-.275-.002-.55-.001-.826-.002zm-4.86 3.408c.618.437 1.244.864 1.869 1.29.092.084.277.016.266-.115-.035-.231-.117-.452-.175-.677l6.316-.001c-.052.228-.133.449-.174.678-.012.135.169.191.264.119.626-.428 1.249-.864 1.878-1.291-.621-.43-1.249-.85-1.872-1.276-.091-.089-.246-.051-.272.077.025.239.121.465.177.698-2.104.001-4.208.002-6.312-.001.06-.232.125-.464.187-.696l-.131-.151c-.698.407-1.348.896-2.02 1.346z"/>
    <path fill="#fff" d="M10.009 3.448c.188-.139.434.031.472.236.141.507.166 1.087-.064 1.571-.155.268-.547.103-.571-.174-.114-.525-.195-1.188.163-1.633zM10.933 7.743c.207-.095.413.083.445.285.128.511.163 1.101-.094 1.578-.213.264-.569-.003-.572-.282-.081-.513-.177-1.181.221-1.581zM14.548 7.765c.179.003.362-.017.537.029.259.091.264.527.002.615-.176.041-.359.021-.539.024a74.594 74.594 0 0 1 0-.669zM6.877 12.064c.179.003.363-.015.537.033.265.132.266.6-.025.7-.168.036-.342.016-.512.017a94 94 0 0 1 0-.751zM10.277 12.064c.186.005.38-.021.559.041.23.108.235.492.002.601-.183.044-.374.023-.561.026a74.594 74.594 0 0 1 0-.669zM8.647 13.246c.053-.246.11-.491.18-.732.069.243.132.488.2.732l-.379.001zM7.049 16.295c.425-.052.382.658.186.89-.436.063-.374-.658-.186-.89zM15.06 16.314c.617-.166.632 1.007.001.822a45.047 45.047 0 0 1-.001-.822zM8.498 17.575c.045-.22.09-.44.147-.657.053.217.096.438.139.658l-.286-.001zM20.002 22.515c-.053-.087-.031-.192.035-.265a.294.294 0 0 1-.035.265zM18.116 24c.103-.081.255-.12.364-.026l-.028.026h-.336z"/>
    <path fill="#383b41" d="M5.679.054l.176.005C9.983.054 14.11.058 18.237.056c.987.02 1.851.972 1.814 1.953-.03 6.692-.004 13.385-.013 20.077l-.002.164c-.066.073-.088.178-.035.265-.187.723-.797 1.292-1.521 1.459-.11-.094-.261-.056-.364.026H5.922c-.078-.084-.214-.113-.303-.028-.851-.191-1.586-.969-1.575-1.864.033-5.122.005-10.245.014-15.367-.009-1.596.018-3.193-.014-4.789C4.02 1.095 4.681.317 5.49.094c.081.052.144.038.189-.04zm.022.142c-.896.176-1.582 1.041-1.546 1.955.001 6.604-.006 13.208.003 19.811-.017 1.006.866 1.904 1.87 1.912 3.973.011 7.946.003 11.919.004.761.019 1.507-.441 1.811-1.142.192-.403.173-.859.171-1.294V2.614c-.003-.392.027-.798-.112-1.173A1.936 1.936 0 0 0 17.999.154c-3.873-.01-7.746 0-11.619-.005a3.605 3.605 0 0 0-.681.046z"/>
    <path fill="#00694f" d="M5.824.614c.223-.037.45-.025.675-.026 3.837.002 7.673-.001 11.51.001.611-.006 1.186.413 1.393.983.126.313.092.656.096.985v18.886c-.001.363.03.741-.122 1.081-.23.562-.825.937-1.43.919-3.951 0-7.902.003-11.853-.002-.789.015-1.504-.68-1.499-1.471-.004-6.628-.001-13.255-.001-19.882-.012-.704.54-1.357 1.231-1.475zm.056.579a.942.942 0 0 0-.711.954c0 6.589-.002 13.177.001 19.766-.021.5.419.961.922.948 3.951.005 7.903.001 11.853.002.522.035.994-.429.97-.951 0-6.608.002-13.216-.001-19.824.006-.486-.417-.922-.905-.917-3.954-.005-7.908.001-11.863-.003-.089.002-.179.004-.267.024z"/>
    <path fill="#00694f" d="M10.004 3.047c.486-.142.835.318.891.749.077.546.108 1.154-.17 1.651-.2.413-.877.428-1.096.027-.277-.471-.254-1.047-.205-1.572.05-.342.2-.769.58-.854zm.005.401c-.357.445-.277 1.108-.163 1.633.023.277.416.442.571.174.23-.484.205-1.063.064-1.571-.038-.205-.284-.375-.472-.236zM11.366 3.075l.372-.006c.253.527.487 1.063.733 1.593a280.9 280.9 0 0 1-.001-1.59l.38.001c.002.883 0 1.766.001 2.649l-.291-.005c-.27-.594-.545-1.185-.818-1.777.002.593.001 1.187.001 1.781l-.375-.001c-.003-.882-.002-1.763-.001-2.645zM13.316 3.072c.415.001.83-.002 1.245.002l.001.37c-.289-.002-.577-.001-.865-.001 0 .222-.001.445.002.667l.546.002.001.361-.548.001c-.001.291-.001.583.001.874l.964.001.002.37c-.451-.003-.901.01-1.352-.008.008-.88.001-1.76.004-2.639zM11.052 7.349c.542-.033.741.591.769 1.028.026.48.038 1.002-.226 1.425-.217.379-.851.376-1.07.001-.282-.465-.262-1.04-.213-1.563.044-.4.263-.911.74-.891zm-.119.394c-.398.4-.303 1.068-.221 1.581.003.279.36.546.572.282.257-.477.222-1.066.094-1.578-.033-.203-.238-.381-.445-.285zM8.395 7.394l.379.001c.003.358.001.717.002 1.074l.726-.001c.001-.359-.001-.717.001-1.074l.379.001c.003.882 0 1.765.002 2.647h-.381c-.002-.399.001-.798-.002-1.197-.242-.002-.483-.002-.725-.002l.001 1.199-.379-.001c-.006-.882-.002-1.765-.002-2.648zM12.234 7.395l.379.001c.012.665-.019 1.333.015 1.998.021.384.631.429.689.042.053-.678.009-1.361.022-2.041l.378.001c-.001.654.007 1.309-.002 1.964.002.422-.416.782-.832.717a.75.75 0 0 1-.644-.718c-.015-.654-.002-1.309-.005-1.962zM14.167 7.395c.361.022.74-.057 1.09.057.525.206.528 1.062.024 1.295.114.434.254.861.373 1.294l-.387.002a53.794 53.794 0 0 1-.353-1.249l-.367.003c-.001.415 0 .83 0 1.245l-.381-.001V7.395zm.381.37v.669c.18-.003.363.016.539-.024.262-.089.257-.524-.002-.615-.175-.046-.358-.026-.537-.029zM16.409 11.886c.389-.467 1.202-.18 1.219.428l-.364.002c-.061-.285-.461-.415-.618-.135-.206.438-.148.95-.088 1.416.021.243.242.496.506.4.208-.101.158-.371.182-.561l-.304-.009.001-.366c.224-.002.449-.002.674 0-.017.395.099.887-.241 1.182-.399.331-1.049.052-1.138-.446-.126-.623-.196-1.357.173-1.912zM6.496 11.695c.332.012.671-.033 1 .03.538.144.633.921.278 1.289-.245.22-.597.157-.898.167v1.162l-.381-.001v-2.646zm.381.369a94 94 0 0 0 0 .751c.17-.001.344.019.512-.017.291-.101.29-.568.025-.7-.174-.048-.358-.03-.537-.033zM8.652 11.694l.368.003c.222.882.44 1.764.662 2.646l-.378-.001-.187-.726-.566.001c-.059.239-.119.479-.172.719l-.387.008.66-2.65zm-.005 1.552l.379-.001c-.068-.243-.131-.489-.2-.732-.069.241-.126.486-.18.732zM9.894 11.695c.356.017.724-.048 1.071.052.545.192.554 1.063.044 1.308.12.431.251.858.374 1.288l-.39-.003c-.117-.414-.24-.826-.349-1.242l-.368-.002c-.003.416.001.832-.002 1.248l-.381-.002c-.001-.882.001-1.764-.001-2.646zm.383.369v.669c.187-.003.378.018.561-.026.233-.109.228-.493-.002-.601-.179-.063-.373-.037-.559-.041zM11.682 11.694l.379.003c.005.347-.003.694.006 1.042.208-.345.397-.7.603-1.045.144.001.288.001.431.003-.18.311-.366.617-.545.929.202.572.406 1.145.614 1.716l-.399.002c-.159-.426-.304-.857-.468-1.281-.31.364-.241.84-.24 1.281l-.381-.001c-.002-.883-.001-1.765-.001-2.648zM13.465 11.695l.372.001c.006.883 0 1.765.003 2.648l-.373-.001c-.005-.882-.001-1.764-.002-2.647zM14.274 11.693l.384.006c.243.52.468 1.047.719 1.563.005-.522.001-1.045.001-1.567h.38c.005.883-.001 1.767.003 2.65l-.287-.005c-.276-.585-.536-1.176-.816-1.758-.003.588-.002 1.174 0 1.762l-.381-.002c-.004-.883 0-1.766-.002-2.649zM6.642 16.295c.112-.473.886-.481 1-.003.227.877-.18 1.832-.882 2.379l-.184-.282c.26-.23.48-.503.619-.822-.647-.004-.714-.801-.554-1.27zm.407 0c-.188.231-.25.952.186.89.196-.231.239-.942-.186-.89zM8.47 15.977c.114 0 .229.001.343.003.185.881.361 1.764.55 2.644l-.359.002c-.046-.235-.097-.47-.142-.704a32.414 32.414 0 0 0-.441 0c-.048.236-.099.471-.151.705l-.34-.003c.184-.882.354-1.765.539-2.646zm.028 1.598l.286.001c-.042-.22-.085-.44-.139-.658-.057.217-.102.437-.147.657zM9.725 15.977l.333-.001c.109.305.207.614.325.916.118-.3.212-.609.317-.913l.335-.002c-.001.883.005 1.766-.002 2.649l-.331-.003c-.003-.515.003-1.031-.003-1.547-.114.318-.203.645-.316.964-.113-.324-.212-.653-.327-.976.004.52.002 1.04.002 1.56h-.333v-2.647zM13.08 15.978h1.147c.003.187.003.381-.091.549-.313.653-.406 1.381-.426 2.097l-.342.002c.019-.791.159-1.589.51-2.304l-.797-.002-.001-.343zM14.726 15.978c.357.009.868-.093 1.043.32.297.511-.053 1.31-.71 1.183l.001 1.144-.333-.001c-.002-.882-.001-1.764-.001-2.646zm.334.336c-.002.274-.002.548.001.822.631.185.616-.987-.001-.822zM16.229 15.978l.335-.002c.11.307.21.618.325.923.111-.305.209-.615.317-.92l.333-.003c.001.883.002 1.766-.001 2.649l-.332-.001c-.006-.499.011-.998-.01-1.497-.122.297-.198.61-.306.912-.111-.321-.209-.647-.327-.966-.004.517.003 1.034-.003 1.551l-.331.001v-2.647zM11.763 17.211c.275.001.55-.001.826.002l.001.343a75.26 75.26 0 0 1-.823-.001l-.003-.344zM6.903 20.619c.672-.45 1.322-.939 2.02-1.346l.131.151c-.062.232-.127.463-.187.696 2.104.003 4.208.002 6.312.001-.056-.233-.152-.459-.177-.698.026-.127.181-.166.272-.077.623.427 1.251.846 1.872 1.276-.628.427-1.251.863-1.878 1.291-.095.072-.275.016-.264-.119.041-.23.121-.45.174-.678a4432.43 4432.43 0 0 0-6.316.001c.058.225.14.446.175.677.01.131-.174.199-.266.115-.625-.426-1.251-.853-1.869-1.29z"/>
    <path fill="#e1e2e2" d="M4 1.865l.044.087c.032 1.596.005 3.193.014 4.789-.009 5.122.019 10.245-.014 15.367L4 22.201V1.866z"/>
    <path fill="#d7d8d9" d="M20.052 2.009l.045-.094v20.166l-.058.005c.009-6.693-.017-13.386.013-20.077z"/>
    <path fill="#aaacae" d="M5.62 23.972c.089-.085.225-.056.303.028h-.276l-.027-.028z"/>
</svg>
