<!-- Generated by IcoMoon.io -->
<svg version="1.1" xmlns="http://www.w3.org/2000/svg" width="29" height="24" viewBox="0 0 29 24">
<title>regulatory--end-of-cycling-restriction--g1</title>
<path fill="#5489c4" d="M0 0h0.312c-0.028 7.297 0.025 14.599-0.022 21.896-0.072 0.128-0.218 0.383-0.29 0.514v-22.41z"></path>
<path fill="#0375bc" d="M0.312 0h26.278c-3.117 2.49-6.134 5.109-9.201 7.658-0.723-1.206-1.191-3.039-2.861-3.179-1.936-0.421-3.288 1.244-4.538 2.416 0.044 0.299 0.087 0.598 0.131 0.898-0.704 0.003-1.412 0.009-2.116 0.016 0.022 0.184 0.072 0.549 0.094 0.729 0.817 0.58 1.284 1.459 1.655 2.363-0.496 0.979-0.979 1.964-1.468 2.945-1.35-0.153-2.914-0.309-3.968 0.739-1.484 1.181-1.565 3.251-1.138 4.95-0.948 0.804-1.926 1.571-2.889 2.363 0.047-7.297-0.006-14.599 0.022-21.896M13.493 1.041c-1.29 0.327-1.524 2.341-0.312 2.917 1.019 0.611 2.512-0.243 2.344-1.462 0.072-1.047-1.088-1.733-2.032-1.456z"></path>
<path fill="#0375bc" d="M20.958 8.11c2.656-2.235 5.305-4.482 8.004-6.664 0.012 7.409 0.065 14.821-0.016 22.226-8.858 0.112-17.719 0.090-26.575 0.003 0.866-0.742 1.721-1.496 2.615-2.21 2.615 1.122 5.283-0.814 5.679-3.469 0.221-0.025 0.667-0.075 0.888-0.103 0.296 0.38 0.595 0.761 0.891 1.141-0.39 0.396-0.785 0.789-1.178 1.181 0.577 0.022 1.153 0.047 1.73 0.069-0.072-0.355-0.146-0.711-0.221-1.063 1.393-0.212 1.596-1.624 2.282-2.593 0.402 1.471 0.57 2.989 0.792 4.495 0.514-0.003 1.029-0.003 1.543-0.003-0.050-1.911-0.112-3.828-0.443-5.713 1.153-0.81 2.31-1.611 3.491-2.378 0.053 0.24 0.159 0.723 0.212 0.963-2.154 1.552-2.734 4.987-0.633 6.823 2.007 1.989 5.723 0.617 6.153-2.119 0.776-2.833-1.864-5.589-4.731-5.015-0.39-1.826-1.452-3.74-0.483-5.57z"></path>
<path fill="#0375bc" d="M9.725 8.871c0.362-0.050 0.723-0.103 1.085-0.153 0.327 0.605 0.661 1.206 0.991 1.808-0.461-0.006-0.919-0.009-1.381-0.019-0.231-0.545-0.464-1.091-0.695-1.636z"></path>
<path fill="#0375bc" d="M18.069 10.504c0.508-0.427 1.016-0.851 1.527-1.275 0.044 0.436 0.087 0.87 0.134 1.303-0.555-0.009-1.11-0.019-1.661-0.028z"></path>
<path fill="#0375bc" d="M10.803 11.308c0.249 0.003 0.748 0.006 0.997 0.006-0.159 0.424-0.321 0.848-0.483 1.272-0.175-0.424-0.343-0.851-0.514-1.278z"></path>
<path fill="#0375bc" d="M15.99 12.243c0.393-0.324 0.785-0.648 1.172-0.976 0.938 0.028 1.873 0.041 2.811 0.056 0.075 0.256 0.15 0.511 0.228 0.767-1.178 0.842-2.366 1.671-3.556 2.494-0.218-0.779-0.436-1.562-0.655-2.341z"></path>
<path fill="#0375bc" d="M8.896 14.734c0.368-0.948 0.764-1.883 1.216-2.793 0.206 0.43 0.411 0.86 0.617 1.29-0.614 0.496-1.234 0.988-1.833 1.502z"></path>
<path fill="#0375bc" d="M12.418 15.232c0.545-0.449 1.085-0.907 1.624-1.365 0.075 0.321 0.153 0.645 0.228 0.966-0.427 0.143-0.857 0.287-1.284 0.43 0.171 0.162 0.517 0.486 0.689 0.648-0.246 0.069-0.489 0.134-0.736 0.203-0.175-0.296-0.346-0.589-0.521-0.882z"></path>
<path fill="#0375bc" d="M3.874 18.948c-0.842-2.453 1.343-5.049 3.924-4.376-0.228 0.567-0.455 1.135-0.711 1.689-1.066 0.901-2.144 1.789-3.214 2.687z"></path>
<path fill="#0375bc" d="M21.634 14.534c1.767-0.318 3.628 0.888 3.812 2.721 0.439 2.169-1.945 4.448-4.068 3.438-2.303-0.954-2.478-4.332-0.508-5.744 0.383 1.131 0.564 3.357 2.222 3.104-0.686-1.082-1.25-2.241-1.459-3.519z"></path>
<path fill="#0375bc" d="M12.592 16.654c1.166-0.77 2.045 1.396 0.832 1.833-1.088 0.48-1.898-1.284-0.832-1.833z"></path>
<path fill="#0375bc" d="M5.729 20.852c0.549-0.468 1.091-0.938 1.639-1.409 0.424 0.293 0.851 0.589 1.272 0.885-0.91 0.43-1.908 0.602-2.911 0.524z"></path>
<path fill="#df032b" d="M26.59 0h2.709v0.954c-0.084 0.122-0.252 0.371-0.337 0.492-2.699 2.182-5.349 4.429-8.004 6.664-0.452 0.377-0.91 0.745-1.362 1.119-0.511 0.424-1.019 0.848-1.527 1.275-0.302 0.252-0.605 0.508-0.907 0.764-0.386 0.327-0.779 0.651-1.172 0.976-0.655 0.536-1.306 1.075-1.948 1.624-0.539 0.458-1.078 0.916-1.624 1.365-1.692 1.39-3.379 2.793-5.049 4.211-0.549 0.471-1.091 0.941-1.639 1.409-0.246 0.206-0.496 0.411-0.742 0.614-0.895 0.714-1.749 1.468-2.615 2.21-0.153 0.081-0.458 0.243-0.611 0.324h-1.247c0.094-0.439-0.075-0.614-0.514-0.521v-1.069c0.072-0.131 0.218-0.386 0.29-0.514 0.963-0.792 1.942-1.558 2.889-2.363 0.234-0.196 0.464-0.39 0.695-0.586 1.069-0.898 2.148-1.786 3.214-2.687 0.611-0.499 1.225-0.994 1.808-1.527 0.598-0.514 1.219-1.007 1.833-1.502 1.671-1.359 3.316-2.746 4.943-4.152 0.24-0.181 0.471-0.371 0.698-0.57 0.337-0.287 0.679-0.567 1.019-0.851 3.067-2.55 6.084-5.168 9.201-7.658z"></path>
<path fill="#fff" d="M13.493 1.041c0.944-0.277 2.104 0.408 2.032 1.456 0.168 1.219-1.325 2.073-2.344 1.462-1.212-0.577-0.979-2.59 0.312-2.917z"></path>
<path fill="#fff" d="M9.99 6.895c1.25-1.172 2.603-2.836 4.538-2.416 1.671 0.14 2.138 1.973 2.861 3.179-0.34 0.284-0.683 0.564-1.019 0.851-0.337-1.1-1.253-0.159-0.698 0.57-1.627 1.406-3.273 2.793-4.943 4.152-0.206-0.43-0.411-0.86-0.617-1.29-0.452 0.91-0.848 1.845-1.216 2.793-0.583 0.533-1.197 1.029-1.808 1.527 0.256-0.555 0.483-1.122 0.711-1.689-2.581-0.673-4.766 1.923-3.924 4.376-0.231 0.196-0.461 0.39-0.695 0.586-0.427-1.699-0.346-3.768 1.138-4.95 1.054-1.047 2.618-0.891 3.968-0.739 0.489-0.982 0.972-1.967 1.468-2.945-0.371-0.904-0.838-1.783-1.655-2.363-0.022-0.181-0.072-0.545-0.094-0.729 0.704-0.006 1.412-0.012 2.116-0.016-0.044-0.299-0.087-0.598-0.131-0.898M11.604 6.923c-0.455 0.274-0.059 1.159 0.43 0.77 0.446-0.277 0.059-1.159-0.43-0.77M9.725 8.871c0.231 0.545 0.464 1.091 0.695 1.636 0.461 0.009 0.919 0.012 1.381 0.019-0.33-0.602-0.664-1.203-0.991-1.808-0.362 0.050-0.723 0.103-1.085 0.153M10.803 11.308c0.171 0.427 0.34 0.854 0.514 1.278 0.162-0.424 0.324-0.848 0.483-1.272-0.249 0-0.748-0.003-0.997-0.006z"></path>
<path fill="#fff" d="M19.596 9.229c0.452-0.374 0.91-0.742 1.362-1.119-0.969 1.83 0.094 3.743 0.483 5.57 2.868-0.574 5.508 2.182 4.731 5.015-0.43 2.737-4.145 4.108-6.153 2.119-2.101-1.836-1.521-5.271 0.633-6.823-0.053-0.24-0.159-0.723-0.212-0.963-1.181 0.767-2.338 1.568-3.491 2.378 0.33 1.886 0.393 3.803 0.443 5.713-0.514 0-1.029 0-1.543 0.003-0.221-1.505-0.39-3.023-0.792-4.495-0.686 0.969-0.888 2.381-2.282 2.593 0.075 0.352 0.15 0.708 0.221 1.063-0.577-0.022-1.153-0.047-1.73-0.069 0.393-0.393 0.789-0.785 1.178-1.181-0.296-0.38-0.595-0.761-0.891-1.141-0.221 0.028-0.667 0.078-0.888 0.103-0.396 2.656-3.064 4.591-5.679 3.469 0.246-0.203 0.496-0.408 0.742-0.614 1.004 0.078 2.001-0.094 2.911-0.524-0.421-0.296-0.848-0.592-1.272-0.885 1.671-1.418 3.357-2.821 5.049-4.211 0.175 0.293 0.346 0.586 0.521 0.882 0.246-0.069 0.489-0.134 0.736-0.203-0.171-0.162-0.517-0.486-0.689-0.648 0.427-0.143 0.857-0.287 1.284-0.43-0.075-0.321-0.153-0.645-0.228-0.966 0.642-0.549 1.294-1.088 1.948-1.624 0.218 0.779 0.436 1.562 0.655 2.341 1.191-0.823 2.378-1.652 3.556-2.494-0.078-0.256-0.153-0.511-0.228-0.767-0.938-0.016-1.873-0.028-2.811-0.056 0.302-0.256 0.605-0.511 0.907-0.764 0.552 0.009 1.106 0.019 1.661 0.028-0.047-0.433-0.090-0.866-0.134-1.303M21.634 14.534c0.209 1.278 0.773 2.437 1.459 3.519-1.658 0.252-1.839-1.973-2.222-3.104-1.97 1.412-1.795 4.791 0.508 5.744 2.123 1.010 4.507-1.269 4.068-3.438-0.184-1.833-2.045-3.039-3.812-2.721M14.045 15.665c-0.34 1.452 1.443-0.38 0 0M12.592 16.654c-1.066 0.549-0.256 2.313 0.832 1.833 1.212-0.436 0.334-2.603-0.832-1.833z"></path>
<path fill="#4e88c4" d="M28.962 1.446c0.084-0.122 0.252-0.371 0.337-0.492v23.046h-27.538c0.153-0.081 0.458-0.243 0.611-0.324 8.855 0.087 17.716 0.109 26.575-0.003 0.081-7.406 0.028-14.818 0.016-22.226z"></path>
<path fill="#4e8cc8" d="M11.604 6.923c0.489-0.39 0.876 0.492 0.43 0.77-0.489 0.39-0.885-0.496-0.43-0.77z"></path>
<path fill="#2a7cbe" d="M15.672 9.079c-0.555-0.729 0.362-1.671 0.698-0.57-0.228 0.199-0.458 0.39-0.698 0.57z"></path>
<path fill="#277fc1" d="M14.045 15.665c1.443-0.38-0.34 1.452 0 0z"></path>
<path fill="#fce0cf" d="M0 23.479c0.439-0.094 0.608 0.081 0.514 0.521h-0.514v-0.521z"></path>
</svg>
