<svg xmlns="http://www.w3.org/2000/svg" width="24" height="24">
    <path fill="#231f20" d="M1.094 7.569h21.923c.318.237.628.484.921.754v7.799c-.191-.071-.285.162-.316.308h-.803a1.717 1.717 0 0 0 1.007-1.605c-.008-1.768.007-3.535-.007-5.303-.002-.719-.453-1.588-1.253-1.609-6.948 0-13.895.006-20.843-.003-.706-.058-1.254.632-1.368 1.267-.018 1.958-.006 3.918-.006 5.876-.029.633.486 1.091.988 1.378H.599A8.966 8.966 0 0 1 0 15.522V8.806c.29-.472.633-.919 1.094-1.236z"/>
    <path fill="#fff" d="M.353 9.177c.114-.635.663-1.325 1.368-1.267 6.948.009 13.895.003 20.843.003.8.021 1.251.889 1.253 1.609.014 1.768-.001 3.535.007 5.303a1.717 1.717 0 0 1-1.007 1.605H1.335c-.503-.287-1.017-.745-.988-1.378 0-1.959-.013-3.919.006-5.876zm1.068-.992c-.346.115-.737.344-.727.761-.01 2.112.001 4.226-.006 6.339-.038.496.422.956.918.918 6.947-.004 13.893-.002 20.84-.001.448-.02 1.021-.285 1.028-.802.01-2.113-.001-4.226.006-6.339.062-.614-.626-.949-1.151-.921-6.967.037-13.947-.052-20.907.045z"/>
    <path fill="#fff" d="M3.919 10.093c.219.004.437.007.656.009.26 1.394.723 2.744.971 4.138l-.681.006c-.096-.385-.197-.769-.292-1.154h-.748a5.61 5.61 0 0 1-.283 1.156l-.688-.009c.358-1.38.651-2.783 1.066-4.146zm.26 1.561a4.387 4.387 0 0 1-.165.752l.385-.008a4.22 4.22 0 0 0-.221-.745zM5.986 10.101h.688c.003 1.151-.001 2.302.002 3.453h1.38v.689c-.69.002-1.381.002-2.07 0-.001-1.38-.002-2.761 0-4.142zM8.517 10.101h.688c.003 1.151-.001 2.302.002 3.453h1.495v.689c-.728.002-1.457.002-2.185 0-.001-1.38-.002-2.761 0-4.142zM13.57 10.102l.687-.002c.059.566.051 1.177.338 1.684.004-.573.145-1.131.278-1.685l.521.002c.095.574.224 1.145.274 1.726h.08c.049-.582.179-1.152.274-1.727l.685.003a119.625 119.625 0 0 0-.625 3.987c-.115.245-.424.127-.634.164-.089-.599-.276-1.181-.283-1.79-.214.568-.253 1.184-.341 1.78h-.648c-.143-1.389-.493-2.753-.608-4.142zM17.844 10.096h.564c.415 1.362.707 2.764 1.066 4.144l-.688.009a5.5 5.5 0 0 1-.283-1.156h-.748c-.096.385-.197.769-.292 1.154a77.417 77.417 0 0 1-.683-.006c.359-1.381.649-2.783 1.066-4.145zm.082 2.302l.387.008a4.55 4.55 0 0 1-.165-.754c-.096.242-.171.49-.222.746zM19.537 10.104l.7-.007c.276.451.473.944.656 1.44.117-.519.397-.977.646-1.44.234.002.467.003.701.007-.277.837-.734 1.597-1.047 2.42-.047.572.001 1.146-.017 1.72h-.688c-.021-.648.035-1.3-.022-1.946-.238-.762-.701-1.428-.928-2.194z"/>
    <path fill="#bf2e1a" d="M1.421 8.185c6.96-.097 13.94-.008 20.907-.045.525-.029 1.213.306 1.151.921-.007 2.113.004 4.226-.006 6.339-.007.517-.58.782-1.028.802-6.947-.001-13.893-.003-20.84.001-.496.038-.956-.422-.918-.918.007-2.113-.004-4.227.006-6.339-.009-.416.381-.646.727-.761zm2.498 1.908c-.414 1.364-.708 2.767-1.066 4.146l.688.009a5.5 5.5 0 0 0 .283-1.156h.748c.096.385.197.769.292 1.154.227-.001.455-.002.681-.006-.248-1.395-.711-2.745-.971-4.138a47.83 47.83 0 0 1-.656-.009zm2.067.008a1906.24 1906.24 0 0 0 0 4.142c.689.002 1.38.002 2.07 0v-.689h-1.38c-.003-1.151.001-2.302-.002-3.453h-.688zm2.531 0a1906.24 1906.24 0 0 0 0 4.142c.728.002 1.457.002 2.185 0v-.689H9.207c-.003-1.151.001-2.302-.002-3.453h-.688zm5.053.001c.115 1.389.465 2.753.608 4.142h.648c.088-.596.127-1.213.341-1.78.007.609.195 1.191.283 1.79.21-.037.519.082.634-.164.183-1.331.397-2.661.625-3.987l-.685-.003c-.095.575-.224 1.145-.274 1.727h-.08c-.049-.581-.179-1.152-.274-1.726l-.521-.002c-.134.553-.274 1.112-.278 1.685-.288-.506-.28-1.117-.338-1.684l-.687.002zm4.274-.006c-.416 1.362-.707 2.764-1.066 4.145l.683.006c.096-.385.197-.769.292-1.154h.748c.051.395.15.781.283 1.156l.688-.009c-.359-1.38-.65-2.782-1.066-4.144h-.564zm1.693.008c.227.765.689 1.432.928 2.194.056.646.001 1.298.022 1.946h.688c.018-.573-.03-1.148.017-1.72.313-.823.77-1.584 1.047-2.42l-.701-.007c-.248.463-.528.921-.646 1.44-.183-.496-.38-.988-.656-1.44-.234.002-.467.003-.7.007z"/>
    <path fill="#bf2e1a" d="M4.179 11.654c.096.24.171.49.221.745l-.385.008c.079-.245.129-.498.165-.752zM17.926 12.398c.051-.256.127-.504.222-.746.036.254.085.508.165.754l-.387-.008z"/>
    <path fill="#131313" opacity=".07" d="M23.621 16.431c.031-.146.126-.38.316-.308v.308h-.316z"/>
</svg>
