<?xml version="1.0" encoding="utf-8"?>
<!-- Generated by IcoMoon.io -->
<!DOCTYPE svg PUBLIC "-//W3C//DTD SVG 1.1//EN" "http://www.w3.org/Graphics/SVG/1.1/DTD/svg11.dtd">
<svg version="1.1" xmlns="http://www.w3.org/2000/svg" xmlns:xlink="http://www.w3.org/1999/xlink" width="24" height="24" viewBox="0 0 24 24">
<path fill="#ff3319" d="M6.266 1.46c2.45-1.343 5.378-1.772 8.116-1.217 2.719 0.527 5.218 2.062 6.953 4.216 1.616 1.976 2.545 4.483 2.665 7.031v1.050c-0.13 2.594-1.098 5.144-2.774 7.135-2.117 2.569-5.339 4.169-8.663 4.325h-1.092c-2.707-0.131-5.365-1.188-7.391-2.995-2.558-2.215-4.068-5.561-4.080-8.941v-0.12c0.023-1.429 0.27-2.86 0.782-4.198 1.001-2.659 2.988-4.928 5.484-6.286M6.649 4.026c2.086 2.497 4.184 4.985 6.271 7.48 0.156-0.092 0.313-0.182 0.472-0.27 0.12-0.653 0.17-1.32 0.341-1.962 0.137-0.422 0.594-0.631 1.015-0.608 1.244 0.004 2.49-0.014 3.733 0.008 0.421 0.001 0.815 0.31 0.899 0.726 0.13 0.608 0.194 1.228 0.306 1.84 0.224 0.097 0.5 0.229 0.491 0.52 0.024 0.56 0.018 1.123 0.005 1.685 0.008 0.188-0.144 0.32-0.245 0.461-0.011 0.41-0.010 0.822-0.002 1.232-0.32 0.258-0.835 0.34-1.122-0.016-0.041-0.382-0.008-0.767-0.016-1.148-1.259 0.064-2.52 0.104-3.78 0.031 1.304 1.548 2.603 3.102 3.906 4.651 1.878-1.939 2.876-4.692 2.652-7.386-0.167-2.35-1.249-4.616-2.965-6.23-1.472-1.409-3.408-2.322-5.432-2.562-2.269-0.283-4.628 0.275-6.528 1.549M2.455 12.97c0.222 2.322 1.342 4.54 3.066 6.108 1.771 1.639 4.183 2.566 6.598 2.525 1.861-0.010 3.697-0.606 5.246-1.63-1.22-1.46-2.448-2.914-3.667-4.375-0.143-0.178-0.325-0.314-0.504-0.452-0.144-0.39-0.452-0.677-0.71-0.99-0.462-0.546-0.914-1.1-1.382-1.64-0.424-0.532-0.875-1.039-1.307-1.565-0.48-0.572-0.961-1.142-1.439-1.717-0.16-0.188-0.318-0.376-0.476-0.565-0.93-1.11-1.865-2.216-2.791-3.33-1.934 2.002-2.934 4.861-2.633 7.632M14.695 9.313c-0.395 0.032-0.72 0.365-0.749 0.76-0.028 0.28-0.184 0.763 0.204 0.858 1.002 0.029 2.004-0.101 3.006-0.043 0.602 0.006 1.206 0.082 1.807 0.038 0.336-0.14 0.19-0.562 0.168-0.836-0.030-0.378-0.318-0.719-0.702-0.768-1.238-0.145-2.495-0.14-3.734-0.008z"></path>
<path fill="#fff" d="M6.649 4.026c1.9-1.274 4.259-1.832 6.528-1.549 2.024 0.24 3.96 1.153 5.432 2.562 1.716 1.614 2.798 3.881 2.965 6.23 0.224 2.694-0.774 5.447-2.652 7.386-1.303-1.549-2.602-3.103-3.906-4.651 1.26 0.073 2.521 0.032 3.78-0.031 0.007 0.382-0.025 0.767 0.016 1.148 0.287 0.355 0.802 0.274 1.122 0.016-0.007-0.41-0.008-0.822 0.002-1.232 0.101-0.14 0.253-0.272 0.245-0.461 0.013-0.562 0.019-1.124-0.005-1.685 0.010-0.29-0.266-0.422-0.491-0.52-0.112-0.612-0.176-1.231-0.306-1.84-0.084-0.416-0.478-0.725-0.899-0.726-1.243-0.023-2.489-0.005-3.733-0.008-0.421-0.023-0.878 0.186-1.015 0.608-0.17 0.642-0.221 1.309-0.341 1.962-0.158 0.088-0.316 0.178-0.472 0.27-2.087-2.495-4.186-4.982-6.271-7.48z"></path>
<path fill="#fff" d="M2.455 12.97c-0.301-2.771 0.698-5.63 2.633-7.632 0.926 1.114 1.861 2.22 2.791 3.33-0.775 0.001-1.55-0.018-2.326 0.004-0.398 0.001-0.793 0.256-0.9 0.65-0.157 0.625-0.204 1.273-0.33 1.907-0.21 0.116-0.502 0.233-0.488 0.524-0.026 0.569-0.023 1.141-0.002 1.71 0.004 0.18 0.15 0.308 0.239 0.451 0.013 0.409 0.012 0.82 0.004 1.23 0.325 0.241 0.866 0.346 1.123-0.046 0.038-0.374 0.012-0.751 0.016-1.126 1.505 0.090 3.013 0.089 4.518 0 0.001 0.386 0.001 0.774-0.004 1.16 0.312 0.278 0.86 0.335 1.123-0.032 0.034-0.394 0.006-0.79 0.023-1.183 0.372-0.374 0.245-0.931 0.227-1.403 0.468 0.54 0.92 1.094 1.382 1.64 0.258 0.313 0.566 0.6 0.71 0.99 0.179 0.138 0.361 0.275 0.504 0.452 1.219 1.462 2.447 2.915 3.667 4.375-1.549 1.024-3.385 1.62-5.246 1.63-2.414 0.041-4.826-0.886-6.598-2.525-1.724-1.568-2.844-3.786-3.066-6.108z"></path>
<path fill="#fff" d="M5.488 9.344c0.946-0.151 1.913-0.142 2.868-0.112 0.478 0.575 0.959 1.145 1.439 1.717-1.387-0.064-2.776-0.108-4.163-0.014-0.257-0.017-0.622 0.1-0.776-0.18-0.065-0.518 0.022-1.266 0.632-1.411z"></path>
<path fill="#fff" d="M14.695 9.313c1.24-0.132 2.496-0.137 3.734 0.008 0.384 0.049 0.672 0.39 0.702 0.768 0.022 0.275 0.168 0.696-0.168 0.836-0.601 0.043-1.205-0.032-1.807-0.038-1.002-0.058-2.004 0.072-3.006 0.043-0.388-0.095-0.232-0.578-0.204-0.858 0.029-0.395 0.354-0.727 0.749-0.76z"></path>
<path fill="#000" d="M5.554 8.671c0.775-0.022 1.55-0.002 2.326-0.004 0.158 0.19 0.317 0.377 0.476 0.565-0.955-0.030-1.922-0.040-2.868 0.112-0.611 0.145-0.697 0.893-0.632 1.411 0.155 0.28 0.52 0.163 0.776 0.18 1.387-0.094 2.776-0.049 4.163 0.014 0.432 0.526 0.883 1.033 1.307 1.565 0.018 0.472 0.145 1.028-0.227 1.403-0.017 0.394 0.011 0.79-0.023 1.183-0.263 0.367-0.811 0.311-1.123 0.032 0.005-0.386 0.005-0.774 0.004-1.16-1.505 0.089-3.013 0.090-4.518 0-0.004 0.374 0.023 0.751-0.016 1.126-0.257 0.391-0.798 0.287-1.123 0.046 0.008-0.41 0.010-0.821-0.004-1.23-0.089-0.143-0.235-0.271-0.239-0.451-0.020-0.569-0.024-1.141 0.002-1.71-0.013-0.292 0.278-0.408 0.488-0.524 0.126-0.634 0.173-1.282 0.33-1.907 0.107-0.395 0.502-0.649 0.9-0.65z"></path>
</svg>
