<svg xmlns="http://www.w3.org/2000/svg" width="24" height="24">
    <path fill="#fff" d="M10.636 0h2.677c1.283.239 2.575.514 3.753 1.095-.514-.077-.993-.283-1.484-.444-3.091-.959-6.567-.611-9.393.972-.612.319-1.13.793-1.766 1.069C6.154 1.172 8.391.376 10.635 0zM17.713 1.425c.441.234.868.497 1.272.792-.473-.174-.92-.423-1.272-.792zM5.884 4.85c3.628-3.172 9.628-2.909 12.937.604 3.417 3.33 3.643 9.255.488 12.834-.206-.2-.421-.392-.599-.618l.028-.257.454.003.156-.418.4-.157.034-.406.366-.301c-.043-.141-.086-.28-.127-.419.095-.087.192-.172.288-.258l-.15-.432.141-.407-.265-.257c.087-.29.011-.559-.29-.676l.011-.302a18.424 18.424 0 0 1-.179-.237l-.36.019.017-.33-.208-.171-.312-.001c-.127-.301-.414-.35-.699-.291l-.361-.239-.286.189c-.346-.233-.721.043-1.08.092a5.715 5.715 0 0 1-.761.404l-.088.312c-.377.055-.501.375-.473.724a3.751 3.751 0 0 1-.764-.687c.53-.694.839-1.588 1.524-2.142.886-.154 1.81-.068 2.708-.054.857.552 1.611 1.254 2.421 1.874l.243-.168c-.694-.817-1.436-1.59-2.163-2.377-.354-.422-.939-.335-1.428-.356-.088-.361.057-.863-.283-1.113-1.476.16-2.938.462-4.406.691-.003.429-.003.858 0 1.287.549.001 1.099.003 1.65.003-.186.687-.379 1.371-.566 2.057l-.476-.462.041-.143c.081-.287.161-.575.24-.862-.403-.001-.806.006-1.208-.006-.266-.098-.428-.372-.632-.561.211.001.422.004.633.007.003-.403.004-.804.003-1.206-.728-.629-1.412-1.309-2.137-1.943-.505-.466-1.246-.263-1.865-.297l-.079.001c-.204-.225-.457-.407-.63-.658l.008-.11c.108-.375.196-.757.346-1.119.666-.193 1.381.008 2.062-.112.117-.123.048-.276.017-.415-.76.029-1.534-.081-2.284.057-.247.422-.341.91-.501 1.367a67.32 67.32 0 0 1-1.556-1.56zM2.774 4.303c.459-.57.967-1.105 1.56-1.537a8.44 8.44 0 0 1-1.56 1.537zM4.735 5.99c.741.768 1.59 1.452 2.217 2.32a15.59 15.59 0 0 1-.919.077c-.003.637-.001 1.273-.001 1.91a41.8 41.8 0 0 0-2.168.673c.048.139.044.436.261.407 1.116-.142 2.212-.423 3.328-.574.337-.099.55.225.742.44 1.028 1.287 2.066 2.564 3.088 3.857.457.01.914.01 1.371.006l.001-.418c-.396-.004-.792-.006-1.188-.007-1.131-1.517-2.246-3.048-3.386-4.557-.28-.461-.83-.189-1.23-.097.126-.45.25-.901.374-1.352l.043-.154c.381.364.772.724 1.081 1.154.28.389.568.774.852 1.16l.352.034.097.01c.168.178.338.353.505.531-.127 0-.382.001-.509.003.652.887 1.309 1.771 1.961 2.658.377-.001.754-.007 1.131-.022l.077-.003c.541.574 1.121 1.109 1.662 1.683.203.221.126.731.53.695l-.011.414.404.193c.084.31.324.486.647.441.03.091.065.181.101.27.892.212 1.353 1.13 2.026 1.686-3.61 3.161-9.593 2.926-12.902-.564-3.465-3.317-3.687-9.272-.537-12.874zm1.791 6.396l-.299-.257c-.145.109-.29.221-.433.332a20.69 20.69 0 0 0-.254-.141.93.93 0 0 0-.361.382 2.389 2.389 0 0 0-.526.127c.006.087.015.262.019.349-.356-.066-.571.222-.465.552-.332.077-.455.404-.247.673-.323.105-.316.452-.137.683-.149.247-.163.531.091.714a6.85 6.85 0 0 0-.014.537c.077.029.232.084.309.112-.057.31.119.604.469.575l.063.33.237.138c.065-.019.194-.057.259-.074l.098.294.326.137c.062-.044.186-.135.25-.179.116.314.497.432.695.121.228.258.617.207.713-.138.072.041.214.127.286.17.19-.094.342-.226.363-.451.095.03.192.059.287.09l.262-.225-.047-.281.361-.004c.099-.174.159-.361.166-.561.199-.05.284-.217.357-.389l-.149-.27.252-.225.033-.266c-.068-.052-.2-.157-.266-.21.063-.05.193-.148.258-.197l-.034-.265-.27-.229c.241-.291.011-.588-.305-.646l.083-.287a19.456 19.456 0 0 1-.179-.251l-.341.022c-.041-.177-.087-.35-.137-.523l-.428.025c-.021-.361-.404-.356-.665-.295-.183-.222-.528-.306-.681.003z"/>
    <path fill="#fff" d="M5.978 13.586c1.086-.483 2.4.566 2.171 1.73-.12 1.168-1.669 1.803-2.563 1.03-.978-.69-.735-2.367.392-2.76zm.263.391c-.865.203-1.121 1.459-.411 1.988.623.566 1.739.166 1.866-.665.194-.808-.669-1.592-1.455-1.323zM15.779 14.746c.217-.643.743-1.223 1.459-1.258 1.023-.142 1.952.905 1.719 1.902-.102.643-.646 1.073-1.219 1.298a18.211 18.211 0 0 1-.375-.359l.357-.142c.829-.27 1.083-1.47.371-2.006-.688-.615-1.873-.065-1.888.85l-.03.143c-.131-.145-.262-.287-.393-.429z"/>
    <path fill="#c0111e" d="M6.189 1.623C9.015.04 12.491-.308 15.582.651c.491.161.97.367 1.484.444.223.095.439.207.647.33.352.368.799.618 1.272.792C21.784 4.125 23.53 7.315 24 10.635v2.706c-.567 4.619-3.903 8.788-8.39 10.132-.737.243-1.506.349-2.259.527h-2.684c-1.185-.236-2.382-.47-3.487-.981-3.894-1.652-6.636-5.481-7.179-9.65v-2.796C.384 8.3 1.22 6.041 2.775 4.303a8.409 8.409 0 0 0 1.56-1.537c.029-.025.059-.05.09-.074.636-.276 1.153-.75 1.766-1.069zM5.884 4.85A67.32 67.32 0 0 0 7.44 6.41c.088.106.189.194.305.265l.055-.043-.008.11c.174.251.426.433.63.658l.079-.001c1.069 1.194 2.276 2.261 3.366 3.439.204.189.366.463.632.561.274.363.596.684.934.989l.034-.121-.041.143.476.462c.101.099.2.199.299.298.225.261.477.497.764.687l-.006.062c.273.276.542.556.821.828.131.142.262.284.393.429l.03-.143c.317.541.81 1.194 1.517 1.156l-.357.142c.123.121.248.24.375.359.324.327.639.665.972.982.178.226.393.418.599.618 3.154-3.579 2.928-9.505-.488-12.834-3.309-3.513-9.309-3.777-12.937-.604zM4.735 5.99c-3.15 3.603-2.928 9.557.537 12.874 3.309 3.49 9.292 3.726 12.902.564-.673-.556-1.134-1.473-2.026-1.686a5.504 5.504 0 0 1-.101-.27c-.218-.444-.581-.851-1.04-1.048-.404.036-.327-.474-.53-.695-.541-.574-1.121-1.109-1.662-1.683l-.077.003c-.814-.926-1.732-1.749-2.583-2.639-.167-.178-.337-.353-.505-.531l-.097-.01a7.085 7.085 0 0 0-1.204-1.194c-.309-.43-.701-.79-1.081-1.154l-.043.154.037-.131-.226-.244-.084.01c-.626-.868-1.476-1.552-2.217-2.32z"/>
    <path fill="#030303" d="M7.941 5.043c.75-.138 1.524-.028 2.284-.057.032.139.101.292-.017.415-.681.12-1.396-.081-2.062.112-.15.361-.239.743-.346 1.119l-.055.043a1.203 1.203 0 0 1-.305-.265c.16-.457.254-.945.501-1.367zM8.501 7.399c.619.033 1.36-.17 1.865.297.724.634 1.408 1.314 2.137 1.943.001.401 0 .803-.003 1.206-.211-.003-.422-.006-.633-.007-1.09-1.178-2.297-2.244-3.366-3.439zM6.033 8.388c.308-.019.614-.04.919-.077l.084-.01c.057.061.17.182.226.244l-.037.131c-.124.451-.248.902-.374 1.352.4-.092.95-.364 1.23.097 1.141 1.509 2.255 3.04 3.386 4.557.396.001.792.003 1.188.007l-.001.418c-.457.004-.914.004-1.371-.006-1.022-1.292-2.061-2.57-3.088-3.857-.192-.215-.406-.539-.742-.44-1.116.15-2.212.432-3.328.574-.217.029-.212-.268-.261-.407a41.8 41.8 0 0 1 2.168-.673c0-.637-.001-1.273.001-1.91zM12.817 9.526c1.468-.229 2.93-.531 4.406-.691.339.25.194.752.283 1.113.488.021 1.073-.066 1.428.356.727.786 1.469 1.56 2.163 2.377l-.243.168c-.81-.621-1.564-1.323-2.421-1.874-.898-.014-1.822-.101-2.708.054-.686.554-.994 1.448-1.524 2.142l-.299-.298c.186-.686.379-1.37.566-2.057-.55 0-1.101-.001-1.65-.003a92.022 92.022 0 0 1 0-1.287z"/>
    <path fill="#030303" d="M8.349 9.676c.451.343.848.754 1.204 1.194l-.352-.034c-.284-.386-.572-.771-.852-1.16zM9.646 11.414l.509-.003c.851.89 1.77 1.713 2.583 2.639-.377.015-.754.021-1.131.022-.652-.887-1.309-1.771-1.961-2.658zM12.498 11.399c.403.011.806.004 1.208.006-.079.287-.159.575-.24.862l-.034.121a7.22 7.22 0 0 1-.934-.989zM6.526 12.386c.153-.309.498-.225.681-.003.261-.061.644-.066.665.295l.428-.025c.05.172.095.346.137.523l.341-.022.179.251-.083.287c.316.058.546.354.305.646l.27.229.034.265-.258.197.266.21-.033.266-.252.225.149.27c-.073.172-.159.339-.357.389-.007.2-.066.388-.166.561l-.361.004.047.281-.262.225c-.095-.03-.192-.059-.287-.09-.021.225-.172.357-.363.451l-.286-.17c-.097.345-.486.396-.713.138-.199.31-.579.193-.695-.121l-.25.179-.326-.137-.098-.294-.259.074a29.012 29.012 0 0 1-.237-.138 19.152 19.152 0 0 1-.063-.33c-.35.029-.526-.265-.469-.575-.077-.028-.232-.083-.309-.112a6.863 6.863 0 0 1 .014-.537c-.254-.183-.24-.468-.091-.714-.179-.23-.186-.578.137-.683-.208-.269-.086-.596.247-.673-.106-.33.109-.618.465-.552a40.781 40.781 0 0 0-.019-.349c.17-.065.346-.102.526-.127a.936.936 0 0 1 .361-.382l.254.141c.143-.112.288-.223.433-.332l.299.257zm-.548 1.2c-1.127.393-1.37 2.07-.392 2.76.894.772 2.443.138 2.563-1.03.229-1.164-1.086-2.212-2.171-1.73zM16.287 12.417c.359-.05.734-.326 1.08-.092.095-.063.19-.127.286-.189l.361.239c.286-.059.572-.01.699.291l.312.001.208.171-.017.33.36-.019.179.237-.011.302c.301.117.377.386.29.676l.265.257-.141.407c.051.143.101.287.15.432-.097.086-.193.171-.288.258.041.139.084.279.127.419-.121.101-.244.201-.366.301l-.034.406-.4.157c-.051.139-.103.279-.156.418l-.454-.003-.028.257c-.334-.317-.648-.655-.972-.982.574-.225 1.117-.655 1.219-1.298.233-.997-.695-2.044-1.719-1.902-.716.034-1.243.615-1.459 1.258-.279-.272-.548-.552-.821-.828l.006-.062c-.028-.349.097-.669.473-.724l.088-.312c.262-.117.519-.248.761-.404z"/>
    <path fill="#030303" d="M6.241 13.977c.786-.269 1.65.514 1.455 1.323-.127.83-1.243 1.23-1.866.665-.71-.528-.454-1.785.411-1.988zM16.203 15.032c.015-.914 1.2-1.465 1.888-.85.712.535.458 1.735-.371 2.006-.708.039-1.2-.615-1.517-1.156zM15.007 16.425c.459.197.822.604 1.04 1.048-.323.044-.563-.131-.647-.441l-.404-.193.011-.414z"/>
</svg>
