<!-- Generated by IcoMoon.io -->
<svg version="1.1" xmlns="http://www.w3.org/2000/svg" width="24" height="24" viewBox="0 0 24 24">
<title>regulatory--maximum-speed-limit-40--g1</title>
<path fill="#ec1d24" d="M11.080 0h1.543c4.586 0.22 8.876 3.272 10.531 7.561 0.456 1.085 0.654 2.249 0.846 3.403v2.038c-0.385 4.040-2.854 7.832-6.499 9.664-1.382 0.745-2.922 1.115-4.466 1.334h-2.028c-4.013-0.385-7.782-2.821-9.629-6.426-0.818-1.522-1.238-3.227-1.378-4.942v-1.256c0.139-1.747 0.575-3.482 1.418-5.027 1.871-3.589 5.65-5.993 9.661-6.349M10.968 2.461c-3.611 0.342-6.862 2.94-8.027 6.368-0.9 2.552-0.656 5.484 0.677 7.842 1.674 3.068 5.126 5.054 8.623 4.93 3.863-0.043 7.51-2.683 8.788-6.324 0.967-2.632 0.701-5.686-0.726-8.101-1.83-3.228-5.648-5.162-9.335-4.715z"></path>
<path fill="#fff" d="M10.968 2.461c3.686-0.448 7.505 1.487 9.335 4.715 1.427 2.416 1.693 5.47 0.726 8.101-1.278 3.641-4.925 6.281-8.788 6.324-3.497 0.125-6.949-1.861-8.623-4.93-1.333-2.358-1.577-5.29-0.677-7.842 1.165-3.428 4.416-6.026 8.027-6.368M16.134 7.397c-1.008 0.127-1.957 0.722-2.431 1.633-0.656 1.256-0.68 2.734-0.547 4.112 0.133 1.272 0.732 2.633 1.967 3.175 1.218 0.511 2.72 0.485 3.859-0.217 1.186-0.778 1.578-2.275 1.626-3.614 0.049-1.41-0.076-2.982-1.051-4.087-0.844-0.948-2.22-1.169-3.422-1.002M3.766 13.242c-0.13 0.546-0.020 1.142-0.054 1.708 1.607 0.006 3.212-0.001 4.819 0.005 0.005 0.505 0 1.010 0.004 1.517 0.608 0.001 1.216 0.002 1.824-0.001 0.005-0.505 0-1.010 0.002-1.516 0.366-0.002 0.732-0.004 1.098-0.004 0.002-0.565 0.004-1.129 0-1.693-0.366-0.001-0.731-0.002-1.097-0.002-0.006-1.908 0.002-3.817-0.004-5.725-0.776-0.004-1.553-0.002-2.329-0.001-1.424 1.901-2.855 3.8-4.264 5.713z"></path>
<path fill="#fff" d="M16.235 9.154c0.884-0.355 1.958 0.148 2.24 1.060 0.396 1.224 0.416 2.641-0.115 3.828-0.475 1.076-2.12 1.242-2.818 0.305-0.653-0.916-0.632-2.122-0.538-3.194 0.086-0.792 0.415-1.704 1.23-1.998z"></path>
<path fill="#fff" d="M5.761 13.254c0.92-1.249 1.844-2.494 2.771-3.738 0.001 1.246 0.002 2.492-0.001 3.738-0.923 0.004-1.846 0.004-2.77 0z"></path>
<path fill="#000" d="M16.134 7.397c1.202-0.167 2.579 0.054 3.422 1.002 0.976 1.105 1.1 2.677 1.051 4.087-0.048 1.339-0.44 2.837-1.626 3.614-1.139 0.702-2.641 0.728-3.859 0.217-1.235-0.542-1.834-1.903-1.967-3.175-0.133-1.379-0.109-2.856 0.547-4.112 0.474-0.911 1.423-1.506 2.431-1.633M16.235 9.154c-0.815 0.294-1.144 1.206-1.23 1.998-0.095 1.073-0.115 2.279 0.538 3.194 0.697 0.937 2.342 0.772 2.818-0.305 0.532-1.187 0.511-2.604 0.115-3.828-0.282-0.912-1.356-1.415-2.24-1.060z"></path>
<path fill="#000" d="M3.766 13.242c1.409-1.913 2.839-3.812 4.264-5.713 0.776-0.001 1.553-0.002 2.329 0.001 0.006 1.908-0.002 3.817 0.004 5.725 0.366 0 0.731 0.001 1.097 0.002 0.004 0.564 0.002 1.128 0 1.693-0.366 0-0.732 0.001-1.098 0.004-0.002 0.505 0.002 1.010-0.002 1.516-0.608 0.004-1.216 0.002-1.824 0.001-0.004-0.506 0.001-1.012-0.004-1.517-1.607-0.006-3.212 0.001-4.819-0.005 0.034-0.565-0.076-1.162 0.054-1.708M5.761 13.254c0.924 0.004 1.847 0.004 2.77 0 0.004-1.246 0.002-2.492 0.001-3.738-0.926 1.244-1.85 2.489-2.771 3.738z"></path>
</svg>
