<!-- Generated by IcoMoon.io -->
<svg version="1.1" xmlns="http://www.w3.org/2000/svg" width="24" height="24" viewBox="0 0 24 24">
<title>regulatory--truck-speed-limit-35--g1</title>
<path fill="#fff" d="M0.907 0h22.185c0.442 0.105 0.803 0.466 0.909 0.909v22.18c-0.104 0.444-0.466 0.805-0.909 0.911h-22.181c-0.443-0.105-0.803-0.465-0.91-0.907v-22.185c0.105-0.442 0.465-0.802 0.907-0.908M1.566 0.587c-0.558 0.060-1.007 0.584-0.991 1.143-0.001 6.846-0.001 13.692 0 20.538-0.023 0.641 0.567 1.201 1.204 1.156 6.83-0.001 13.66 0.001 20.49-0.001 0.621 0.021 1.177-0.534 1.155-1.155 0.001-6.846 0.001-13.692 0-20.538 0.021-0.621-0.534-1.177-1.155-1.155-6.735-0.001-13.471-0-20.206-0-0.165 0.001-0.331-0.008-0.496 0.012z"></path>
<path fill="#fff" d="M2.080 1.192c0.149-0.024 0.301-0.015 0.451-0.017 6.407 0.001 12.815-0.001 19.223 0.001 0.57-0.007 1.076 0.5 1.069 1.069 0.001 6.502 0.001 13.005 0 19.508 0.006 0.57-0.5 1.075-1.069 1.070-6.502 0.002-13.005 0.002-19.508 0-0.57 0.006-1.077-0.499-1.069-1.070-0.001-6.503-0.001-13.005 0-19.508-0.004-0.51 0.398-0.981 0.903-1.054M13.025 3.979c-0.458 0.612-0.477 1.498-0.142 2.17 0.297 0.601 1.128 0.788 1.688 0.454 0.222-0.134 0.375-0.354 0.481-0.586-0.172-0.068-0.345-0.134-0.518-0.199-0.163 0.375-0.689 0.547-0.99 0.231-0.394-0.454-0.394-1.188-0.094-1.691 0.257-0.404 0.897-0.312 1.096 0.104 0.168-0.075 0.336-0.151 0.503-0.228-0.309-0.793-1.519-0.918-2.023-0.254M19.81 3.826c-0.329 0.292-0.333 0.871 0.007 1.156 0.341 0.304 0.839 0.311 1.199 0.579 0.235 0.174 0.123 0.576-0.154 0.632-0.364 0.123-0.758-0.1-0.9-0.444-0.174 0.063-0.348 0.127-0.52 0.194 0.234 0.808 1.345 1.076 1.972 0.562 0.396-0.326 0.412-1.018 0.009-1.345-0.33-0.284-0.783-0.331-1.153-0.54-0.179-0.091-0.172-0.381 0.010-0.465 0.283-0.136 0.673-0.041 0.809 0.257 0.169-0.055 0.337-0.11 0.504-0.171-0.203-0.742-1.256-0.887-1.782-0.415M2.215 3.598c-0.002 0.18-0.002 0.36-0 0.541 0.29 0.003 0.581 0 0.871 0.001 0.002 0.859-0.001 1.718 0.001 2.578 0.188 0.001 0.375 0.001 0.563-0 0.001-0.859-0.001-1.718 0.001-2.577 0.288-0.001 0.576 0.001 0.864-0.001 0.001-0.181 0.001-0.362 0-0.542-0.767-0.001-1.534-0.002-2.301 0M5.601 6.697c0.187 0.003 0.375 0.003 0.562 0.001 0.005-0.399 0-0.798 0.002-1.197 0.202-0.001 0.404-0.002 0.605 0.001 0.197 0.399 0.39 0.8 0.591 1.196 0.21 0 0.419 0.002 0.629-0.002-0.199-0.42-0.409-0.834-0.608-1.253 0.583-0.201 0.788-0.975 0.461-1.473-0.172-0.27-0.506-0.378-0.811-0.381-0.477-0.003-0.953-0.001-1.43-0.001-0.002 1.036-0.003 2.073 0 3.109M9.099 3.614c0 0.639-0 1.279 0 1.918 0.003 0.353 0.097 0.739 0.382 0.973 0.417 0.324 1.032 0.334 1.497 0.112 0.363-0.183 0.535-0.6 0.544-0.989 0.007-0.672-0.002-1.344 0.004-2.017-0.188 0.002-0.375 0.002-0.562 0-0.003 0.641 0.003 1.282-0.002 1.922-0.008 0.224-0.054 0.495-0.274 0.608-0.233 0.107-0.519 0.108-0.752 0-0.22-0.113-0.268-0.384-0.269-0.608-0.003-0.64 0-1.28-0.001-1.92-0.189 0.001-0.378 0.001-0.568 0.001M16.137 3.614c0.003 1.035 0 2.070 0.002 3.104 0.188 0.002 0.375 0.002 0.563 0 0.013-0.293-0.020-0.591 0.015-0.88 0.165-0.22 0.349-0.426 0.518-0.644 0.27 0.509 0.54 1.017 0.812 1.524 0.218 0.001 0.436 0.001 0.655-0.001-0.362-0.666-0.724-1.331-1.088-1.996 0.288-0.375 0.592-0.736 0.881-1.11-0.222 0.004-0.444 0.003-0.666 0.003-0.372 0.478-0.749 0.952-1.125 1.427-0.001-0.476 0-0.953-0.001-1.429-0.188 0.002-0.377 0.002-0.566 0M5.112 9.755c-0.765 0.376-1.359 1.057-1.683 1.841 0.576 0.225 1.154 0.446 1.73 0.67 0.2-0.369 0.473-0.717 0.855-0.909 0.525-0.26 1.184-0.27 1.708-0.001 0.601 0.325 0.757 1.147 0.5 1.741-0.193 0.446-0.671 0.708-1.143 0.736-0.378 0.017-0.758 0-1.137 0.009-0.002 0.601-0.001 1.203-0 1.805 0.768 0.024 1.649-0.127 2.29 0.401 0.718 0.604 0.646 1.935-0.197 2.396-0.68 0.37-1.56 0.367-2.24-0.002-0.457-0.253-0.782-0.685-1.002-1.15-0.577 0.231-1.154 0.46-1.73 0.693 0.313 0.798 0.863 1.516 1.604 1.961 0.841 0.515 1.866 0.651 2.834 0.542 0.802-0.089 1.607-0.38 2.198-0.944 0.813-0.766 1.099-1.988 0.862-3.060-0.191-0.823-0.834-1.485-1.603-1.803 0.508-0.296 0.925-0.758 1.127-1.314 0.401-1.063 0.108-2.352-0.74-3.116-1.121-1.034-2.893-1.141-4.233-0.495M13.879 9.563c-0.118 1.794-0.216 3.59-0.329 5.384 0.618 0.265 1.239 0.525 1.859 0.785 0.671-0.784 1.963-1.006 2.81-0.39 0.951 0.822 0.684 2.603-0.467 3.119-1.114 0.503-2.47 0.238-3.445-0.457-0.359 0.489-0.709 0.986-1.068 1.475 0.597 0.524 1.37 0.803 2.142 0.943 1.004 0.167 2.067 0.15 3.022-0.235 0.767-0.304 1.44-0.862 1.836-1.591 0.702-1.315 0.617-3.070-0.322-4.249-1.047-1.28-3.036-1.477-4.45-0.729 0.053-0.745 0.107-1.49 0.161-2.235 1.466-0.003 2.933 0 4.399-0.001 0.001-0.606 0.001-1.212 0-1.818-2.049-0.001-4.099 0-6.148-0z"></path>
<path fill="#fff" d="M6.165 4.122c0.315 0.009 0.633-0.022 0.946 0.017 0.392 0.053 0.412 0.715 0.030 0.799-0.322 0.046-0.652 0.009-0.977 0.021-0.001-0.279-0.001-0.558 0-0.837z"></path>
<path fill="#000" d="M1.566 0.587c0.165-0.020 0.331-0.011 0.496-0.012 6.735 0 13.471-0.001 20.206 0 0.622-0.022 1.177 0.534 1.155 1.155 0.001 6.846 0.001 13.692 0 20.538 0.021 0.621-0.534 1.176-1.155 1.155-6.83 0.002-13.66-0-20.49 0.001-0.637 0.045-1.227-0.516-1.204-1.156-0.001-6.846-0.001-13.692 0-20.538-0.016-0.559 0.433-1.084 0.991-1.143M2.080 1.192c-0.505 0.073-0.907 0.545-0.903 1.054-0.001 6.502-0.001 13.005 0 19.508-0.007 0.57 0.5 1.075 1.069 1.070 6.502 0.002 13.005 0.002 19.508 0 0.57 0.006 1.075-0.5 1.069-1.070 0.001-6.503 0.001-13.005 0-19.508 0.007-0.57-0.499-1.076-1.069-1.069-6.407-0.002-12.815 0-19.223-0.001-0.15 0.001-0.302-0.008-0.451 0.017z"></path>
<path fill="#000" d="M13.025 3.979c0.504-0.664 1.714-0.539 2.023 0.254-0.167 0.077-0.334 0.154-0.503 0.228-0.199-0.416-0.839-0.507-1.096-0.104-0.3 0.503-0.3 1.237 0.094 1.691 0.301 0.316 0.827 0.144 0.99-0.231 0.173 0.065 0.346 0.131 0.518 0.199-0.105 0.232-0.259 0.453-0.481 0.586-0.56 0.333-1.391 0.147-1.688-0.454-0.335-0.672-0.316-1.558 0.142-2.17z"></path>
<path fill="#000" d="M19.81 3.826c0.526-0.473 1.579-0.328 1.782 0.415-0.167 0.061-0.335 0.116-0.504 0.171-0.136-0.299-0.526-0.394-0.809-0.257-0.182 0.084-0.189 0.374-0.010 0.465 0.369 0.21 0.822 0.256 1.153 0.54 0.403 0.327 0.387 1.019-0.009 1.345-0.627 0.514-1.738 0.246-1.972-0.562 0.172-0.067 0.346-0.131 0.52-0.194 0.142 0.344 0.536 0.567 0.9 0.444 0.278-0.056 0.39-0.458 0.154-0.632-0.36-0.268-0.857-0.276-1.199-0.579-0.34-0.285-0.336-0.865-0.007-1.156z"></path>
<path fill="#000" d="M2.215 3.598c0.767-0.002 1.534-0.001 2.301-0 0.001 0.18 0.001 0.361 0 0.542-0.288 0.002-0.577-0-0.864 0.001-0.002 0.859 0 1.718-0.001 2.577-0.188 0.002-0.375 0.002-0.563 0-0.002-0.859 0-1.718-0.001-2.578-0.291-0.001-0.581 0.002-0.871-0.001-0.001-0.18-0.001-0.36 0-0.541z"></path>
<path fill="#000" d="M5.601 6.697c-0.003-1.036-0.002-2.072 0-3.109 0.477 0 0.953-0.002 1.43 0.001 0.306 0.003 0.64 0.112 0.811 0.381 0.327 0.498 0.122 1.272-0.461 1.473 0.199 0.419 0.409 0.834 0.608 1.253-0.21 0.004-0.419 0.002-0.629 0.002-0.201-0.397-0.394-0.797-0.591-1.196-0.202-0.003-0.404-0.002-0.605-0.001-0.002 0.399 0.003 0.798-0.002 1.197-0.187 0.002-0.375 0.002-0.562-0.001M6.165 4.122c-0.001 0.279-0.001 0.558 0 0.837 0.325-0.012 0.654 0.025 0.977-0.021 0.381-0.084 0.362-0.746-0.030-0.799-0.313-0.039-0.631-0.008-0.946-0.017z"></path>
<path fill="#000" d="M9.099 3.614c0.189 0 0.378 0 0.568-0.001 0.001 0.64-0.002 1.28 0.001 1.92 0 0.224 0.049 0.495 0.269 0.608 0.233 0.108 0.519 0.107 0.752 0 0.22-0.113 0.266-0.383 0.274-0.608 0.005-0.641-0-1.282 0.002-1.922 0.187 0.002 0.374 0.002 0.562 0-0.007 0.672 0.002 1.344-0.004 2.017-0.009 0.39-0.181 0.806-0.544 0.989-0.465 0.222-1.080 0.212-1.497-0.112-0.285-0.234-0.379-0.62-0.382-0.973-0.001-0.639 0-1.279-0-1.918z"></path>
<path fill="#000" d="M16.137 3.614c0.189 0.001 0.377 0.001 0.566-0 0.001 0.476-0 0.953 0.001 1.429 0.376-0.475 0.754-0.949 1.125-1.427 0.222-0 0.444 0.001 0.666-0.003-0.289 0.374-0.593 0.735-0.881 1.11 0.364 0.665 0.726 1.33 1.088 1.996-0.218 0.002-0.437 0.002-0.655 0.001-0.272-0.507-0.542-1.016-0.812-1.524-0.169 0.218-0.353 0.423-0.518 0.644-0.035 0.29-0.002 0.587-0.015 0.88-0.188 0.002-0.375 0.002-0.563 0-0.001-1.035 0.001-2.070-0.002-3.104z"></path>
<path fill="#000" d="M5.112 9.755c1.341-0.646 3.112-0.539 4.233 0.495 0.848 0.764 1.141 2.053 0.74 3.116-0.202 0.556-0.619 1.018-1.127 1.314 0.769 0.318 1.412 0.98 1.603 1.803 0.237 1.072-0.049 2.294-0.862 3.060-0.591 0.564-1.396 0.855-2.198 0.944-0.968 0.109-1.993-0.027-2.834-0.542-0.741-0.444-1.291-1.162-1.604-1.961 0.576-0.232 1.154-0.462 1.73-0.693 0.219 0.465 0.545 0.898 1.002 1.15 0.681 0.369 1.56 0.372 2.24 0.002 0.844-0.461 0.915-1.792 0.197-2.396-0.641-0.528-1.522-0.377-2.29-0.401-0-0.601-0.001-1.203 0-1.805 0.379-0.009 0.758 0.008 1.137-0.009 0.472-0.028 0.95-0.29 1.143-0.736 0.256-0.594 0.101-1.417-0.5-1.741-0.524-0.269-1.183-0.258-1.708 0.001-0.382 0.192-0.656 0.54-0.855 0.909-0.577-0.224-1.154-0.445-1.73-0.67 0.324-0.784 0.918-1.464 1.683-1.841z"></path>
<path fill="#000" d="M13.879 9.563c2.049 0 4.099-0.001 6.148 0 0 0.606 0.001 1.212-0 1.818-1.466 0.002-2.933-0.001-4.399 0.001-0.054 0.745-0.109 1.49-0.161 2.235 1.414-0.748 3.403-0.551 4.45 0.729 0.939 1.179 1.024 2.934 0.322 4.249-0.396 0.729-1.069 1.287-1.836 1.591-0.954 0.385-2.018 0.402-3.022 0.235-0.772-0.14-1.545-0.42-2.142-0.943 0.359-0.489 0.709-0.986 1.068-1.475 0.975 0.695 2.331 0.96 3.445 0.457 1.151-0.516 1.418-2.297 0.467-3.119-0.848-0.616-2.139-0.394-2.81 0.39-0.62-0.26-1.241-0.519-1.859-0.785 0.112-1.794 0.21-3.59 0.329-5.384z"></path>
</svg>
