<svg xmlns="http://www.w3.org/2000/svg" width="24" height="24">
    <path fill="#e20a16" d="M11.077 0h1.555c4.52.229 8.761 3.19 10.454 7.397.493 1.129.722 2.345.913 3.556v2.15c-.434 4.058-2.947 7.854-6.647 9.641-1.309.69-2.765 1.012-4.213 1.256h-2.245c-1.278-.218-2.564-.473-3.748-1.024C3.068 21.217.234 17.058-.001 12.632v-1.255C.233 6.919 3.112 2.73 7.233.991 8.449.443 9.767.201 11.077 0zM8.508 2.636a10.033 10.033 0 0 0-5.516 5.038c-1.679 3.407-1.165 7.744 1.273 10.657 1.697-1.704 3.402-3.398 5.099-5.102.239-.238.478-.475.715-.715.342-.337.684-.676 1.016-1.024.796-.774 1.572-1.567 2.359-2.351 1.628-1.622 3.25-3.254 4.882-4.874-2.68-2.24-6.569-2.863-9.828-1.628zm6.145 8.144c-.242.236-.482.475-.721.715a51.62 51.62 0 0 0-1.016 1.024c-.793.775-1.571 1.566-2.356 2.347-1.63 1.624-3.247 3.258-4.883 4.874 2.408 2.008 5.789 2.752 8.82 1.952 3.433-.857 6.28-3.672 7.169-7.098.845-3.058.092-6.464-1.902-8.921a768.888 768.888 0 0 0-5.111 5.106z"/>
    <path fill="#fff" d="M8.508 2.636c3.259-1.235 7.148-.612 9.828 1.628-1.632 1.62-3.253 3.252-4.882 4.874-.583-1.885-1.174-3.769-1.753-5.657-.988-.005-1.975-.002-2.963-.002-.689 2.059-1.322 4.139-2.088 6.169-.172.54-.742.703-1.25.696v1.144h3.677c-.004-.374-.002-.748.002-1.122-.302-.053-.767.055-.906-.302-.091-.401.11-.787.221-1.163.841.004 1.682.004 2.524 0 .11.373.306.756.223 1.154-.132.366-.605.258-.908.311.005.373.006.748.004 1.121.286.001.572 0 .859.002-.332.348-.674.686-1.016 1.024l-.72.01c0 .235.002.47.005.706-1.697 1.704-3.402 3.398-5.099 5.102-2.438-2.914-2.952-7.25-1.273-10.657a10.044 10.044 0 0 1 5.516-5.038z"/>
    <path fill="#fff" d="M9.685 5.005c.308.976.614 1.952.92 2.929-.63.002-1.26.002-1.89 0 .323-.977.643-1.955.97-2.929zM14.653 10.78a768.888 768.888 0 0 1 5.111-5.106c1.994 2.456 2.747 5.863 1.902 8.921-.889 3.426-3.736 6.241-7.169 7.098-3.031.799-6.412.055-8.82-1.952 1.636-1.616 3.253-3.251 4.883-4.874.584 1.883 1.175 3.764 1.753 5.65.988.01 1.975.002 2.964.006.691-2.054 1.319-4.134 2.089-6.16.17-.54.744-.692 1.249-.697-.001-.382-.001-.763.001-1.144l-3.678-.001c.004.373.002.746-.002 1.12.301.058.742-.047.9.293.084.282-.023.574-.103.842-.494 1.402-.93 2.824-1.404 4.231-.474-1.583-1.018-3.149-1.47-4.735-.148-.578.523-.64.925-.631a46.314 46.314 0 0 1-.004-1.118l-.865-.002c.332-.347.674-.685 1.016-1.024l.725-.011-.004-.704z"/>
    <path d="M8.738 3.48c.988 0 1.975-.002 2.963.002.58 1.888 1.17 3.772 1.753 5.657-.787.784-1.564 1.577-2.359 2.351-.287-.002-.574-.001-.859-.002.002-.373.001-.748-.004-1.121.304-.053.776.055.908-.311.083-.398-.113-.781-.223-1.154-.841.004-1.682.004-2.524 0-.11.376-.312.762-.221 1.163.139.358.604.25.906.302-.005.374-.006.748-.002 1.122H5.399v-1.144c.509.007 1.079-.156 1.25-.696.766-2.03 1.399-4.11 2.088-6.169zm.947 1.525c-.326.974-.647 1.952-.97 2.929.63.002 1.26.002 1.89 0-.306-.977-.612-1.954-.92-2.929zM13.932 11.495c.239-.24.479-.479.721-.715l.004.704c-.242.002-.484.007-.725.011zM9.359 12.523l.72-.01c-.238.24-.476.478-.715.715-.002-.235-.005-.47-.005-.706zM10.56 14.866c.785-.781 1.562-1.572 2.356-2.347l.865.002c-.004.372-.002.745.004 1.118-.402-.008-1.073.053-.925.631.452 1.586.996 3.152 1.47 4.735.474-1.408.91-2.83 1.404-4.231.08-.269.187-.56.103-.842-.158-.34-.599-.235-.9-.293.005-.373.006-.746.002-1.12l3.678.001c-.002.38-.002.762-.001 1.144-.505.005-1.079.157-1.249.697-.77 2.026-1.398 4.105-2.089 6.16-.989-.004-1.976.004-2.964-.006-.578-1.885-1.169-3.767-1.753-5.65z"/>
</svg>
