<!-- Generated by IcoMoon.io -->
<svg version="1.1" xmlns="http://www.w3.org/2000/svg" width="24" height="24" viewBox="0 0 24 24">
<title>regulatory--no-caravans-or-caravan-trailers--g1</title>
<path fill="#d40606" d="M9.371 0.201c2.147-0.222 4.403-0.32 6.448 0.486 3.727 1.406 6.721 4.752 7.572 8.658 0.032 0.157 0.072 0.312 0.118 0.466 0.053 1.483 0.143 2.983-0.081 4.457-0.935 4.663-4.851 8.554-9.548 9.369-0.231-0.103-0.569-0.169-0.731 0.081-1.844-0.079-3.788 0.175-5.516-0.612-3.775-1.394-6.683-4.775-7.633-8.67v-4.994c1.025-4.536 4.766-8.378 9.371-9.241M10.588 2.094c-3.892 0.404-7.326 3.408-8.282 7.196-1.011 3.632 0.381 7.763 3.338 10.083 2.305 1.869 5.488 2.587 8.37 1.872 3.44-0.81 6.311-3.63 7.153-7.067 0.867-3.232-0.124-6.872-2.493-9.233-2.055-2.14-5.148-3.219-8.086-2.851z"></path>
<path fill="#fff" d="M10.588 2.094c2.938-0.368 6.032 0.711 8.086 2.851 2.368 2.361 3.36 6.001 2.493 9.233-0.842 3.436-3.713 6.256-7.153 7.067-2.881 0.715-6.065-0.003-8.37-1.872-2.957-2.32-4.349-6.451-3.338-10.083 0.956-3.788 4.39-6.792 8.282-7.196M7.502 5.613c0.935 0.009 1.868-0.006 2.801 0.009 0.008 1.307-0.006 2.615 0.008 3.923 0.795-0.005 1.592 0.018 2.387-0.006 0.19-0.306 0.273-0.74 0.673-0.856 0.598-0.272 1.232 0.243 1.295 0.847 0.574 0.030 1.148 0.019 1.722 0.010 0.262-1.388 0.262-2.792 0.001-4.179-1.192-0.019-2.386 0.004-3.577-0.010-0.484-0.018-0.758-0.588-1.253-0.559-1.153-0.005-2.307 0.009-3.46-0.005-0.212 0.265-0.408 0.543-0.597 0.827M7.915 5.862c-0.405 0.641-0.902 1.23-1.258 1.9-0.041 0.596-0.003 1.195-0.013 1.793 0.522 0.083 0.381-0.677 0.82-0.815 0.62-0.387 1.354 0.143 1.434 0.804 0.403 0.008 0.805 0.004 1.208-0.008 0.001-1.227 0-2.453 0-3.68-0.73 0-1.46-0.009-2.19 0.006M7.785 8.803c-0.465 0.075-0.764 0.659-0.521 1.073 0.222 0.541 1.115 0.533 1.332-0.009 0.293-0.516-0.239-1.204-0.811-1.064M13.623 8.795c-0.965 0.070-0.758 1.689 0.206 1.473 0.935-0.081 0.72-1.639-0.206-1.473M4.165 11.022c-0.003 0.177-0.006 0.354-0.011 0.532 5.020 0.003 10.038 0.003 15.058 0-0.005-0.178-0.009-0.354-0.011-0.532-5.012-0.004-10.023-0.004-15.035 0M7.995 12.59c-0.168 0.836-0.337 1.675-0.444 2.522 0.098 0.721 0.296 1.426 0.433 2.141-0.561 0.006-1.123 0.005-1.684 0.004-0.001 0.104-0.004 0.31-0.005 0.413 1.63 0.001 3.262 0.003 4.893 0 0.075-0.556 0.527-1.082 1.128-1.020 0.561-0.001 0.94 0.504 1.016 1.018 0.926-0.019 1.858 0.051 2.78-0.033 0.273-0.763 0.323-1.617 0.483-2.419-0.048-0.875-0.297-1.73-0.417-2.598-2.717-0.122-5.458-0.067-8.182-0.028M11.966 16.917c-0.585 0.193-0.706 1.067-0.193 1.407 0.461 0.368 1.253 0.055 1.293-0.546 0.109-0.582-0.563-1.109-1.1-0.861z"></path>
<path fill="#fff" d="M10.719 5.857c0.414-0.003 0.828-0.003 1.242 0.001-0.005 1.119 0.020 2.237-0.014 3.356-0.409-0.003-0.818-0.004-1.227-0.004-0.001-1.117 0-2.236-0.001-3.354z"></path>
<path fill="#fff" d="M13.614 5.855c0.808-0.001 1.617 0 2.424-0.001 0.003 0.439 0.003 0.879 0.006 1.318-0.81 0.022-1.62 0.006-2.43 0.010-0.001-0.442-0.001-0.885 0-1.327z"></path>
<path fill="#fff" d="M8.055 6.13c0.592-0.011 1.182-0.006 1.774-0.006 0.001 0.521-0.003 1.043 0.014 1.563-0.945 0.050-1.892 0.024-2.838 0.030 0.352-0.528 0.706-1.055 1.050-1.587z"></path>
<path fill="#fff" d="M23.51 9.811l0.109 0.185v4.284c-0.048-0.004-0.143-0.010-0.19-0.013 0.225-1.474 0.135-2.974 0.081-4.457z"></path>
<path fill="#fff" d="M8.875 13.377c0.618 0.008 1.238-0.029 1.854 0.028-0.019 1.283 0.008 2.566-0.015 3.849-0.617 0.006-1.236 0.009-1.853-0.004-0.004-1.29-0.030-2.583 0.014-3.873z"></path>
<path fill="#fff" d="M12.985 13.382c0.857-0.009 1.714-0.014 2.571 0.003 0.009 0.437 0.009 0.874 0.004 1.31-0.858 0.027-1.717 0.014-2.575 0.008-0.008-0.441-0.008-0.88 0-1.321z"></path>
<path fill="#fff" d="M13.149 23.718c0.163-0.25 0.5-0.184 0.731-0.081-0.239 0.063-0.485 0.095-0.731 0.081z"></path>
<path fill="#1f1917" d="M7.502 5.613c0.189-0.283 0.385-0.561 0.597-0.827 1.153 0.014 2.307 0 3.46 0.005 0.495-0.029 0.77 0.541 1.253 0.559 1.191 0.014 2.385-0.009 3.577 0.010 0.26 1.387 0.26 2.791-0.001 4.179-0.574 0.009-1.148 0.020-1.722-0.010-0.063-0.604-0.697-1.119-1.295-0.847-0.4 0.116-0.483 0.55-0.673 0.856-0.795 0.024-1.592 0.001-2.387 0.006-0.014-1.308 0-2.616-0.008-3.923-0.933-0.015-1.867 0-2.801-0.009M10.719 5.857c0.001 1.117 0 2.236 0.001 3.354 0.409 0 0.818 0.001 1.227 0.004 0.034-1.119 0.009-2.237 0.014-3.356-0.414-0.004-0.828-0.004-1.242-0.001M13.614 5.855c-0.001 0.442-0.001 0.885 0 1.327 0.81-0.004 1.62 0.011 2.43-0.010-0.004-0.439-0.004-0.879-0.006-1.318-0.808 0.001-1.617 0-2.424 0.001M12.273 7.493c0 0.062 0.001 0.187 0.003 0.249 1.366 0 2.733 0.011 4.098-0.006 0.001-0.060 0.003-0.178 0.004-0.237-1.369-0.015-2.737-0.004-4.104-0.005z"></path>
<path fill="#1f1917" d="M7.915 5.862c0.73-0.015 1.46-0.006 2.19-0.006 0 1.227 0.001 2.453 0 3.68-0.403 0.011-0.805 0.015-1.208 0.008-0.080-0.66-0.814-1.191-1.434-0.804-0.439 0.138-0.298 0.898-0.82 0.815 0.010-0.598-0.028-1.197 0.013-1.793 0.357-0.669 0.853-1.258 1.258-1.9M8.055 6.13c-0.344 0.532-0.698 1.059-1.050 1.587 0.946-0.006 1.893 0.019 2.838-0.030-0.017-0.521-0.013-1.043-0.014-1.563-0.592 0-1.182-0.005-1.774 0.006z"></path>
<path fill="#1f1917" d="M7.785 8.803c0.573-0.14 1.105 0.549 0.811 1.064-0.217 0.542-1.11 0.55-1.332 0.009-0.244-0.414 0.056-0.998 0.521-1.073z"></path>
<path fill="#1f1917" d="M13.623 8.795c0.926-0.166 1.14 1.392 0.206 1.473-0.964 0.216-1.171-1.403-0.206-1.473z"></path>
<path fill="#c3c2c1" d="M12.273 7.493c1.368 0.001 2.735-0.010 4.104 0.005-0.001 0.060-0.003 0.178-0.004 0.237-1.365 0.018-2.731 0.006-4.098 0.006-0.001-0.062-0.003-0.187-0.003-0.249z"></path>
<path fill="#393232" opacity="0.23" d="M23.392 9.345c0.076-0.344 0.168-0.686 0.227-1.035v1.686l-0.109-0.185c-0.046-0.154-0.086-0.309-0.118-0.466z"></path>
<path fill="#030303" d="M4.165 11.022c5.012-0.004 10.023-0.004 15.035 0 0.003 0.178 0.006 0.354 0.011 0.532-5.020 0.003-10.038 0.003-15.058 0 0.005-0.178 0.009-0.356 0.011-0.532z"></path>
<path fill="#040404" d="M7.995 12.59c2.724-0.039 5.464-0.094 8.182 0.028 0.119 0.869 0.368 1.723 0.417 2.598-0.16 0.803-0.21 1.656-0.483 2.419-0.922 0.084-1.854 0.014-2.78 0.033-0.076-0.514-0.455-1.020-1.016-1.018-0.601-0.062-1.053 0.463-1.128 1.020-1.63 0.003-3.262 0.001-4.893 0 0.001-0.103 0.004-0.309 0.005-0.413 0.561 0.001 1.123 0.003 1.684-0.004-0.137-0.715-0.335-1.42-0.433-2.141 0.108-0.847 0.277-1.686 0.444-2.522M8.875 13.377c-0.044 1.29-0.018 2.583-0.014 3.873 0.617 0.013 1.236 0.010 1.853 0.004 0.023-1.283-0.004-2.566 0.015-3.849-0.616-0.057-1.236-0.020-1.854-0.028M12.985 13.382c-0.008 0.441-0.008 0.88 0 1.321 0.858 0.006 1.717 0.019 2.575-0.008 0.005-0.437 0.005-0.874-0.004-1.31-0.857-0.016-1.714-0.011-2.571-0.003z"></path>
<path fill="#040404" d="M11.966 16.917c0.537-0.248 1.209 0.279 1.1 0.861-0.039 0.601-0.832 0.914-1.293 0.546-0.513-0.34-0.392-1.214 0.193-1.407z"></path>
</svg>
