<?xml version="1.0" encoding="utf-8"?>
<!-- Generated by IcoMoon.io -->
<!DOCTYPE svg PUBLIC "-//W3C//DTD SVG 1.1//EN" "http://www.w3.org/Graphics/SVG/1.1/DTD/svg11.dtd">
<svg version="1.1" xmlns="http://www.w3.org/2000/svg" xmlns:xlink="http://www.w3.org/1999/xlink" width="24" height="24" viewBox="0 0 24 24">
<path fill="#020202" opacity="0.97" d="M0 7.125h24v9.75h-24v-9.75M0.758 7.214c-0.301 0.038-0.651 0.249-0.641 0.591-0.005 2.673 0.001 5.347-0.002 8.020 0.003 0.173-0.013 0.349 0.021 0.52 0.214 0.538 0.894 0.463 1.365 0.464 7.151-0.002 14.303 0.003 21.454-0.002 0.373 0.016 0.892-0.158 0.899-0.601 0.005-2.779 0-5.558 0.002-8.336 0.024-0.221-0.1-0.44-0.298-0.537-0.25-0.152-0.551-0.137-0.832-0.146-7.024 0.002-14.048 0.001-21.072 0.001-0.299 0.002-0.599-0.010-0.895 0.025z"></path>
<path fill="#020202" opacity="0.97" d="M0.758 7.359c0.193-0.039 0.391-0.018 0.586-0.022 7.228 0.002 14.456-0.001 21.683 0.001 0.268 0.008 0.655 0.139 0.64 0.466 0.002 2.797 0.002 5.594 0 8.391 0.017 0.328-0.371 0.476-0.646 0.47-7.348-0.001-14.695-0.002-22.043 0-0.253 0.007-0.539-0.088-0.658-0.33-0.024-0.169-0.013-0.341-0.015-0.512 0.003-2.675-0.002-5.351 0.002-8.026-0.014-0.245 0.242-0.391 0.451-0.437M0.754 7.599c-0.045 0.085-0.085 0.175-0.075 0.274-0.003 2.806 0.007 5.613-0.005 8.42 0.099 0.1 0.224 0.185 0.372 0.165 7.304-0.002 14.608 0.001 21.912-0.002 0.152 0.002 0.364-0.077 0.335-0.266 0.004-2.622 0-5.244 0.002-7.866 0.001-0.23 0.011-0.463-0.027-0.691-0.129-0.047-0.259-0.104-0.399-0.093-7.072 0.001-14.144 0-21.217 0-0.3 0.006-0.606-0.030-0.898 0.058z"></path>
<path fill="#020202" opacity="0.97" d="M6.431 8.524c0.406 0.011 0.816-0.027 1.219 0.025 0.441 0.077 0.578 0.66 0.405 1.019-0.087 0.213-0.313 0.301-0.511 0.377 0.394 0.274 0.518 0.772 0.76 1.164-0.121-0.005-0.241-0.010-0.362-0.016-0.182-0.336-0.332-0.694-0.565-1-0.161-0.194-0.442-0.124-0.662-0.139-0.001 0.38-0.003 0.76 0.002 1.139-0.095 0.005-0.19 0.010-0.285 0.017-0.002-0.862 0-1.723-0.001-2.585M6.714 8.812c0.001 0.283 0.001 0.566 0.001 0.849 0.283-0.008 0.571 0.025 0.851-0.031 0.358-0.096 0.364-0.704-0.003-0.793-0.28-0.050-0.566-0.019-0.848-0.025z"></path>
<path fill="#020202" opacity="0.97" d="M9.55 8.523c0.099 0 0.198 0 0.297 0 0.293 0.86 0.583 1.72 0.868 2.582-0.105 0-0.211 0-0.316 0-0.086-0.261-0.169-0.523-0.251-0.785-0.293 0.001-0.587 0.001-0.88-0.001-0.080 0.261-0.157 0.523-0.236 0.784-0.1 0.002-0.2 0.002-0.298 0.004 0.273-0.861 0.542-1.724 0.817-2.583M9.346 10.037c0.239 0 0.478 0.001 0.717-0.003-0.135-0.407-0.252-0.82-0.38-1.229-0.063 0.422-0.212 0.825-0.337 1.232z"></path>
<path fill="#020202" opacity="0.97" d="M11.334 8.524c0.418 0.030 0.873-0.082 1.264 0.109 0.453 0.303 0.51 0.913 0.471 1.411-0.038 0.397-0.197 0.882-0.624 1.003-0.363 0.085-0.739 0.052-1.108 0.058-0.007-0.86-0.001-1.721-0.003-2.581M11.608 8.829c-0.002 0.652 0.004 1.303-0.003 1.955 0.256 0.002 0.518 0.030 0.77-0.029 0.307-0.121 0.382-0.492 0.405-0.785 0.025-0.369 0.011-0.825-0.32-1.063-0.263-0.131-0.569-0.063-0.851-0.078z"></path>
<path fill="#020202" opacity="0.97" d="M13.633 11.094c0.279-0.854 0.542-1.714 0.816-2.569 0.073-0.001 0.221-0.003 0.295-0.004 0.292 0.861 0.597 1.719 0.863 2.588-0.106-0.006-0.212-0.013-0.318-0.020-0.078-0.258-0.16-0.514-0.243-0.77-0.293 0.002-0.587 0.001-0.88 0.002-0.078 0.257-0.156 0.512-0.225 0.77-0.103 0.002-0.206 0.003-0.308 0.004M14.608 8.803c-0.103 0.416-0.234 0.824-0.358 1.233 0.237 0.002 0.475 0.002 0.713 0.001-0.125-0.409-0.269-0.814-0.356-1.234z"></path>
<path fill="#020202" opacity="0.97" d="M16.233 11.094c0.002-0.857 0-1.714 0.002-2.571 0.392 0.010 0.787-0.019 1.178 0.017 0.612 0.076 0.7 1.082 0.151 1.313-0.052 0.019-0.157 0.059-0.21 0.079 0.374 0.3 0.518 0.777 0.752 1.178-0.123-0.008-0.247-0.015-0.37-0.024-0.174-0.328-0.32-0.676-0.543-0.974-0.156-0.215-0.448-0.146-0.674-0.159-0.003 0.386-0.001 0.77-0.002 1.155-0.095-0.005-0.189-0.010-0.284-0.014M16.515 8.813c0.003 0.282 0.002 0.565 0.001 0.847 0.28-0.006 0.563 0.026 0.839-0.026 0.363-0.084 0.38-0.681 0.026-0.792-0.285-0.056-0.578-0.023-0.866-0.029z"></path>
<path fill="#020202" opacity="0.97" d="M10.462 12.723c0.274-0.076 0.593-0.051 0.822 0.131 0.312 0.237 0.455 0.637 0.466 1.019 0.026 0.42-0.054 0.879-0.356 1.193-0.29 0.309-0.807 0.369-1.153 0.117-0.405-0.297-0.543-0.834-0.503-1.314 0.021-0.468 0.248-0.989 0.724-1.147M10.594 12.992c-0.3 0.066-0.488 0.364-0.533 0.651-0.065 0.371-0.066 0.792 0.153 1.116 0.167 0.255 0.525 0.371 0.801 0.227 0.273-0.136 0.414-0.442 0.439-0.734 0.026-0.332 0.014-0.693-0.17-0.982-0.145-0.225-0.429-0.338-0.689-0.278z"></path>
<path fill="#020202" opacity="0.97" d="M15.328 12.93c0.315-0.323 0.913-0.343 1.216 0.004 0.134 0.136 0.192 0.323 0.252 0.499-0.092 0.021-0.185 0.042-0.278 0.062-0.071-0.186-0.154-0.397-0.352-0.481-0.257-0.093-0.585-0.015-0.734 0.226-0.227 0.362-0.209 0.823-0.136 1.228 0.060 0.34 0.378 0.653 0.741 0.571 0.31-0.053 0.454-0.367 0.52-0.64 0.091 0.026 0.183 0.053 0.274 0.080-0.070 0.256-0.163 0.53-0.386 0.694-0.35 0.272-0.917 0.22-1.187-0.139-0.251-0.325-0.316-0.754-0.3-1.154 0.014-0.343 0.112-0.707 0.37-0.949z"></path>
<path fill="#020202" opacity="0.97" d="M2.715 12.721c0.51-0.001 1.020 0.001 1.53-0.001 0.001 0.101 0.002 0.203 0.002 0.304-0.419 0.001-0.839 0-1.258 0.001 0 0.263 0 0.526 0.001 0.789 0.392 0.001 0.784 0 1.177 0.001-0.001 0.101-0.001 0.203-0.001 0.305-0.392-0.001-0.785-0.002-1.177 0.001 0.001 0.288 0.001 0.575 0 0.863 0.435 0.004 0.869 0.001 1.304 0.002 0.001 0.102 0.002 0.204 0.002 0.307-0.527 0-1.054 0.001-1.58-0.001 0-0.857 0.001-1.715-0.001-2.572z"></path>
<path fill="#020202" opacity="0.97" d="M5.068 12.722c0.071-0.001 0.214-0.002 0.285-0.003 0.375 0.672 0.74 1.349 1.117 2.020 0.002-0.673-0.001-1.346 0.001-2.019 0.066 0.001 0.199 0.002 0.265 0.002-0.002 0.857-0.001 1.715-0.001 2.572-0.096 0-0.192 0-0.288 0-0.364-0.673-0.742-1.337-1.097-2.014-0.015 0.67-0.003 1.342-0.007 2.012-0.068 0.001-0.205 0.002-0.274 0.003-0.001-0.858 0-1.715-0.001-2.573z"></path>
<path fill="#020202" opacity="0.97" d="M7.625 12.721c0.477-0.001 0.954-0.001 1.431 0 0 0.101 0.001 0.203 0.001 0.304-0.383 0.002-0.766 0.001-1.148 0 0 0.266 0.001 0.532-0.001 0.798 0.332 0.001 0.663-0.001 0.995 0.001 0 0.077-0.001 0.231-0.002 0.308-0.331-0.001-0.662-0.001-0.993 0 0.002 0.388 0.001 0.775 0.001 1.163-0.071 0-0.212-0.001-0.284-0.001 0-0.857 0-1.715 0-2.573z"></path>
<path fill="#020202" opacity="0.97" d="M12.506 12.721c0.406 0.011 0.814-0.025 1.217 0.023 0.426 0.071 0.569 0.618 0.428 0.975-0.076 0.228-0.303 0.343-0.515 0.413 0.36 0.303 0.506 0.767 0.739 1.161-0.119 0-0.237 0-0.355 0-0.186-0.335-0.331-0.697-0.567-1.002-0.161-0.197-0.444-0.125-0.665-0.14-0.001 0.381-0.001 0.762 0 1.143-0.095-0.001-0.188-0.001-0.283-0.001 0.001-0.857 0-1.715 0-2.572M12.788 13.857c0.278-0.005 0.559 0.023 0.835-0.025 0.369-0.079 0.39-0.694 0.024-0.797-0.284-0.050-0.573-0.019-0.86-0.026 0.001 0.283 0.001 0.566 0 0.847z"></path>
<path fill="#020202" opacity="0.97" d="M17.582 15.294c0.001-0.858-0.001-1.715 0.001-2.573 0.509 0.002 1.018-0.001 1.528 0.001 0 0.101 0 0.203 0 0.304-0.416 0.002-0.832 0-1.247 0.001 0.001 0.263 0.001 0.526 0 0.79 0.39 0 0.78-0.002 1.169 0.001-0.001 0.101-0.001 0.203-0.002 0.304-0.389 0-0.779-0.001-1.168 0.001 0.002 0.288 0.002 0.577 0.001 0.866 0.431 0.001 0.861 0.001 1.292 0 0.001 0.102 0.003 0.204 0.005 0.307-0.526 0.001-1.052 0.001-1.578 0z"></path>
<path fill="#020202" opacity="0.97" d="M19.933 12.722c0.41 0.025 0.847-0.072 1.238 0.088 0.443 0.251 0.523 0.825 0.517 1.288-0.026 0.43-0.149 0.974-0.606 1.136-0.373 0.104-0.767 0.047-1.148 0.058 0.001-0.856 0.001-1.714 0-2.57M20.217 13.026c0 0.654 0 1.308 0 1.961 0.263-0.012 0.539 0.037 0.795-0.048 0.272-0.119 0.334-0.446 0.373-0.708 0.032-0.385 0.029-0.863-0.31-1.12-0.261-0.143-0.575-0.067-0.858-0.085z"></path>
<path fill="#fff" d="M0.758 7.214c0.297-0.035 0.597-0.023 0.896-0.025 7.024 0 14.048 0.001 21.072-0.001 0.28 0.008 0.582-0.007 0.832 0.146 0.199 0.097 0.322 0.316 0.298 0.537-0.002 2.778 0.003 5.557-0.002 8.335-0.008 0.443-0.526 0.617-0.899 0.602-7.151 0.005-14.303 0.001-21.454 0.002-0.471-0.002-1.151 0.074-1.365-0.464-0.034-0.172-0.018-0.347-0.021-0.52 0.003-2.674-0.002-5.348 0.002-8.021-0.010-0.342 0.341-0.553 0.641-0.591M0.758 7.359c-0.209 0.046-0.465 0.192-0.451 0.437-0.004 2.675 0.001 5.351-0.002 8.026 0.002 0.17-0.009 0.342 0.015 0.512 0.119 0.241 0.405 0.337 0.658 0.33 7.348-0.002 14.696-0.001 22.043 0 0.274 0.006 0.662-0.142 0.646-0.47 0.002-2.797 0.002-5.594 0-8.391 0.014-0.327-0.372-0.458-0.64-0.466-7.227-0.002-14.455 0.001-21.683-0.001-0.195 0.005-0.393-0.017-0.586 0.022z"></path>
<path fill="#fff" d="M0.754 7.599c0.292-0.088 0.598-0.052 0.898-0.058 7.072 0 14.144 0.001 21.217 0 0.14-0.011 0.27 0.046 0.399 0.093 0.037 0.228 0.028 0.461 0.027 0.691-0.002 2.622 0.002 5.244-0.002 7.866 0.029 0.19-0.184 0.268-0.335 0.266-7.304 0.003-14.609 0-21.912 0.002-0.148 0.020-0.273-0.065-0.372-0.165 0.012-2.807 0.002-5.614 0.005-8.42-0.010-0.099 0.030-0.19 0.075-0.274M6.431 8.524c0.001 0.862-0.002 1.724 0.001 2.585 0.095-0.006 0.19-0.011 0.285-0.017-0.005-0.38-0.002-0.76-0.002-1.139 0.22 0.016 0.501-0.055 0.662 0.139 0.232 0.305 0.383 0.664 0.565 1 0.121 0.006 0.241 0.011 0.362 0.016-0.242-0.392-0.365-0.89-0.76-1.164 0.199-0.076 0.425-0.164 0.511-0.377 0.173-0.359 0.036-0.942-0.405-1.019-0.404-0.052-0.814-0.014-1.22-0.025M9.55 8.523c-0.275 0.86-0.544 1.722-0.817 2.583 0.099-0.002 0.199-0.002 0.299-0.004 0.079-0.261 0.156-0.523 0.236-0.784 0.293 0.002 0.587 0.002 0.88 0.001 0.082 0.263 0.166 0.524 0.251 0.785 0.105 0 0.211 0 0.316 0-0.285-0.862-0.574-1.722-0.868-2.582-0.099 0-0.198 0-0.297 0M11.334 8.524c0.002 0.86-0.004 1.721 0.003 2.581 0.369-0.006 0.745 0.027 1.108-0.058 0.427-0.122 0.586-0.607 0.624-1.004 0.039-0.497-0.018-1.108-0.471-1.411-0.391-0.191-0.845-0.079-1.264-0.109M13.633 11.094c0.103-0.001 0.206-0.002 0.308-0.004 0.069-0.259 0.147-0.514 0.225-0.77 0.294-0.001 0.587 0 0.881-0.002 0.083 0.256 0.165 0.512 0.243 0.77 0.106 0.007 0.211 0.014 0.318 0.020-0.266-0.869-0.572-1.727-0.863-2.588-0.074 0.001-0.222 0.003-0.295 0.004-0.274 0.856-0.537 1.715-0.816 2.569M16.233 11.094c0.095 0.005 0.189 0.009 0.284 0.014 0.001-0.385-0.001-0.769 0.002-1.155 0.227 0.013 0.518-0.056 0.674 0.159 0.224 0.299 0.369 0.647 0.543 0.974 0.123 0.009 0.247 0.016 0.37 0.024-0.235-0.401-0.379-0.877-0.752-1.178 0.053-0.020 0.158-0.060 0.21-0.079 0.549-0.232 0.461-1.238-0.151-1.313-0.391-0.036-0.786-0.008-1.178-0.017-0.002 0.857 0.001 1.714-0.002 2.571M10.462 12.723c-0.476 0.158-0.703 0.679-0.724 1.147-0.040 0.48 0.098 1.017 0.503 1.314 0.346 0.252 0.863 0.192 1.153-0.117 0.302-0.314 0.383-0.773 0.356-1.193-0.012-0.382-0.154-0.782-0.466-1.019-0.229-0.182-0.548-0.208-0.822-0.131M15.328 12.93c-0.258 0.241-0.356 0.605-0.37 0.949-0.016 0.4 0.049 0.829 0.3 1.154 0.271 0.358 0.838 0.411 1.187 0.139 0.223-0.163 0.316-0.438 0.386-0.694-0.091-0.026-0.184-0.053-0.274-0.079-0.066 0.273-0.21 0.588-0.52 0.64-0.363 0.082-0.681-0.231-0.741-0.571-0.073-0.405-0.091-0.866 0.136-1.228 0.149-0.241 0.477-0.319 0.734-0.226 0.197 0.084 0.28 0.295 0.352 0.481 0.092-0.020 0.185-0.041 0.278-0.062-0.060-0.176-0.118-0.363-0.252-0.5-0.304-0.347-0.902-0.326-1.216-0.004M2.715 12.721c0.002 0.857 0.001 1.715 0.001 2.573 0.527 0.001 1.053 0.001 1.58 0.001-0.001-0.103-0.001-0.205-0.002-0.307-0.435-0.001-0.869 0.001-1.304-0.002 0.001-0.288 0.001-0.575 0-0.863 0.392-0.003 0.785-0.002 1.177-0.001 0.001-0.102 0.001-0.204 0.002-0.305-0.393-0.001-0.785 0.001-1.178-0.001-0.001-0.263-0.001-0.526-0.001-0.789 0.419-0.002 0.838 0 1.258-0.002-0.001-0.102-0.002-0.203-0.002-0.304-0.51 0.001-1.020 0-1.53 0.001M5.068 12.722c0.001 0.858 0 1.715 0.001 2.573 0.068-0.001 0.205-0.002 0.274-0.003 0.004-0.67-0.008-1.342 0.007-2.012 0.356 0.677 0.734 1.341 1.097 2.014 0.096 0 0.192 0 0.288 0 0-0.857-0.002-1.715 0.001-2.572-0.066 0-0.199-0.001-0.265-0.002-0.002 0.673 0.001 1.346-0.001 2.019-0.377-0.67-0.742-1.348-1.117-2.020-0.071 0.001-0.214 0.002-0.285 0.003M7.625 12.721c0 0.857 0 1.715 0 2.573 0.071 0 0.213 0.001 0.284 0.001 0-0.388 0.001-0.775-0.001-1.163 0.331-0.001 0.662-0.001 0.993 0 0.001-0.077 0.002-0.23 0.002-0.308-0.331-0.002-0.663 0-0.994-0.001 0.002-0.266 0.001-0.532 0.001-0.798 0.383 0.001 0.766 0.002 1.148 0 0-0.101-0.001-0.202-0.001-0.304-0.477-0.001-0.954-0.001-1.431 0M12.506 12.721c0 0.857 0.001 1.715 0 2.572 0.095 0.001 0.188 0.001 0.283 0.001-0.001-0.381-0.001-0.762 0-1.143 0.221 0.016 0.504-0.056 0.665 0.14 0.236 0.305 0.381 0.668 0.567 1.002 0.118 0 0.236 0 0.355 0-0.233-0.394-0.38-0.858-0.74-1.161 0.212-0.070 0.439-0.185 0.515-0.413 0.14-0.357-0.002-0.904-0.428-0.975-0.403-0.049-0.811-0.013-1.217-0.023M17.582 15.294c0.526 0.001 1.052 0.001 1.578 0-0.002-0.103-0.003-0.205-0.005-0.307-0.431 0.001-0.862 0.001-1.292 0 0.001-0.289 0.001-0.577-0.001-0.865 0.389-0.001 0.779-0.001 1.168-0.001 0.001-0.101 0.001-0.202 0.002-0.304-0.389-0.002-0.779-0.001-1.169-0.001 0.001-0.264 0.001-0.527 0-0.79 0.415-0.001 0.832 0.001 1.247-0.001 0-0.101 0-0.202 0-0.304-0.509-0.001-1.018 0.001-1.528-0.001-0.002 0.858 0 1.715-0.001 2.573M19.933 12.722c0.001 0.856 0.001 1.714 0 2.57 0.382-0.011 0.776 0.045 1.148-0.058 0.457-0.161 0.58-0.706 0.606-1.136 0.007-0.463-0.073-1.037-0.517-1.288-0.391-0.16-0.827-0.064-1.238-0.088z"></path>
<path fill="#fff" d="M6.714 8.812c0.283 0.007 0.569-0.024 0.848 0.026 0.367 0.089 0.361 0.697 0.003 0.793-0.28 0.056-0.568 0.023-0.851 0.031 0-0.284 0-0.566-0.001-0.849z"></path>
<path fill="#fff" d="M9.346 10.037c0.125-0.407 0.274-0.81 0.337-1.232 0.128 0.409 0.245 0.822 0.38 1.229-0.239 0.004-0.478 0.003-0.717 0.003z"></path>
<path fill="#fff" d="M11.608 8.829c0.282 0.015 0.589-0.053 0.851 0.078 0.332 0.238 0.345 0.694 0.32 1.063-0.023 0.293-0.098 0.664-0.405 0.785-0.252 0.059-0.514 0.032-0.77 0.029 0.007-0.652 0.001-1.303 0.003-1.955z"></path>
<path fill="#fff" d="M14.608 8.803c0.086 0.42 0.23 0.824 0.356 1.234-0.239 0.002-0.476 0.002-0.713-0.001 0.124-0.409 0.255-0.817 0.358-1.233z"></path>
<path fill="#fff" d="M16.515 8.813c0.288 0.006 0.581-0.027 0.866 0.029 0.354 0.111 0.337 0.708-0.026 0.792-0.276 0.052-0.559 0.020-0.839 0.026 0.002-0.282 0.002-0.565-0.001-0.847z"></path>
<path fill="#fff" d="M10.594 12.992c0.26-0.060 0.544 0.053 0.689 0.278 0.184 0.289 0.197 0.65 0.17 0.982-0.025 0.293-0.166 0.598-0.439 0.734-0.276 0.144-0.634 0.028-0.801-0.227-0.219-0.324-0.218-0.745-0.153-1.116 0.046-0.287 0.233-0.585 0.533-0.651z"></path>
<path fill="#fff" d="M12.788 13.857c0.001-0.282 0.001-0.565 0-0.848 0.287 0.008 0.576-0.024 0.86 0.026 0.366 0.102 0.345 0.718-0.024 0.797-0.276 0.048-0.557 0.019-0.835 0.025z"></path>
<path fill="#fff" d="M20.217 13.026c0.284 0.019 0.597-0.058 0.858 0.085 0.339 0.256 0.342 0.735 0.31 1.12-0.039 0.262-0.1 0.59-0.373 0.708-0.256 0.085-0.532 0.036-0.795 0.048 0-0.653 0-1.307 0-1.961z"></path>
</svg>
