<?xml version="1.0" encoding="utf-8"?>
<!-- Generated by IcoMoon.io -->
<!DOCTYPE svg PUBLIC "-//W3C//DTD SVG 1.1//EN" "http://www.w3.org/Graphics/SVG/1.1/DTD/svg11.dtd">
<svg version="1.1" xmlns="http://www.w3.org/2000/svg" xmlns:xlink="http://www.w3.org/1999/xlink" width="24" height="24" viewBox="0 0 24 24">
<path fill="#0e518d" d="M10.925 0h1.976c2.559 0.204 5.049 1.227 6.981 2.922 2.344 2.002 3.804 4.941 4.118 7.997v1.982c-0.2 2.497-1.176 4.931-2.804 6.841-2.039 2.457-5.098 4.008-8.278 4.258h-1.818c-2.56-0.204-5.052-1.228-6.984-2.925-2.335-1.994-3.791-4.918-4.116-7.96v-2.302c0.351-3.047 1.825-5.968 4.182-7.948 1.879-1.634 4.278-2.599 6.743-2.865M12.141 5.173c0.025 0.395 0.162 0.796 0.064 1.189-0.314 1.355-0.623 2.713-0.939 4.069-2.078 0-4.154-0.001-6.232 0-0.278-0.032-0.628 0.118-0.607 0.446-0.016 1.265-0.001 2.531-0.005 3.796 0.286 0.001 0.573 0.003 0.859 0.001 0.508-0.456 1.195-0.731 1.883-0.644 0.871 0.068 1.636 0.674 1.982 1.464 1.173 0.005 2.347 0.001 3.522 0.001-0.094-0.561-0.113-1.14 0.011-1.699 0.3-1.504 1.508-2.762 2.987-3.148 1.411-0.399 2.989 0.046 4.027 1.069 0.168-0.163 0.335-0.326 0.503-0.489-0.497-0.534-0.976-1.083-1.477-1.612-0.005-1.481 0-2.962-0.003-4.443-2.19-0.001-4.382-0.003-6.574 0M15.97 10.979c-0.883 0.187-1.696 0.696-2.234 1.424-0.74 0.971-0.945 2.31-0.552 3.462 0.316 0.947 1.029 1.744 1.921 2.187 1.151 0.558 2.594 0.488 3.665-0.22 1.485-0.915 2.148-2.92 1.485-4.537-0.618-1.677-2.541-2.72-4.286-2.315M6.426 14.405c-0.941 0.24-1.648 1.2-1.528 2.177 0.084 1.102 1.185 1.994 2.282 1.832 1.066-0.117 1.925-1.166 1.787-2.237-0.091-1.196-1.384-2.108-2.542-1.773z"></path>
<path fill="#0e518d" d="M12.953 6.137c1.598-0.004 3.196-0.001 4.792-0.001 0.003 1.158 0 2.315 0.001 3.473-1.311-0.001-2.623 0.005-3.934-0.004-0.233 0.264-0.453 0.541-0.668 0.821-0.392 0.011-0.784 0.008-1.175 0.005 0.326-1.432 0.655-2.863 0.984-4.293z"></path>
<path fill="#0e518d" d="M16.231 12.554c1.23-0.338 2.588 0.639 2.661 1.911 0.15 1.234-0.956 2.425-2.198 2.356-1.221 0.019-2.27-1.167-2.111-2.377 0.073-0.894 0.778-1.689 1.648-1.89M16.365 13.066c-0.74 0.163-1.309 0.894-1.258 1.656 0.015 0.838 0.768 1.571 1.604 1.569 0.902 0.033 1.716-0.797 1.655-1.7-0.003-0.987-1.048-1.781-2.001-1.525z"></path>
<path fill="#0e518d" d="M6.654 15.558c0.642-0.256 1.352 0.461 1.098 1.102-0.17 0.632-1.101 0.8-1.49 0.281-0.388-0.44-0.172-1.216 0.392-1.383z"></path>
<path fill="#f7fbf5" d="M12.141 5.173c2.192-0.003 4.384-0.001 6.574 0 0.003 1.481-0.003 2.962 0.003 4.443 0.501 0.529 0.98 1.078 1.477 1.612-0.167 0.163-0.334 0.326-0.503 0.489-1.038-1.022-2.616-1.468-4.027-1.069-1.48 0.386-2.688 1.644-2.987 3.148-0.123 0.558-0.105 1.138-0.011 1.699-1.175 0-2.348 0.004-3.522-0.001-0.346-0.79-1.111-1.396-1.982-1.464-0.688-0.086-1.375 0.188-1.883 0.644-0.286 0.001-0.573 0-0.859-0.001 0.004-1.265-0.011-2.531 0.005-3.796-0.021-0.328 0.329-0.477 0.607-0.446 2.078-0.001 4.154 0 6.232 0 0.316-1.356 0.625-2.714 0.939-4.069 0.098-0.394-0.038-0.794-0.064-1.189M12.953 6.137c-0.329 1.431-0.658 2.861-0.984 4.293 0.391 0.003 0.782 0.005 1.175-0.005 0.215-0.28 0.435-0.557 0.668-0.821 1.311 0.009 2.623 0.003 3.934 0.004-0.001-1.158 0.001-2.315-0.001-3.473-1.596 0-3.194-0.003-4.792 0.001z"></path>
<path fill="#f7fbf5" d="M15.97 10.979c1.745-0.404 3.668 0.638 4.286 2.315 0.663 1.618 0 3.623-1.485 4.537-1.071 0.708-2.514 0.778-3.665 0.22-0.892-0.443-1.606-1.24-1.921-2.187-0.394-1.152-0.188-2.491 0.552-3.462 0.538-0.728 1.351-1.237 2.234-1.424M16.231 12.554c-0.87 0.2-1.575 0.996-1.648 1.89-0.159 1.211 0.89 2.396 2.111 2.377 1.242 0.069 2.348-1.122 2.198-2.356-0.073-1.272-1.431-2.249-2.661-1.911z"></path>
<path fill="#f7fbf5" d="M16.365 13.066c0.953-0.256 1.998 0.538 2.001 1.525 0.061 0.903-0.753 1.733-1.655 1.7-0.837 0.003-1.59-0.731-1.604-1.569-0.050-0.762 0.518-1.493 1.258-1.656z"></path>
<path fill="#f7fbf5" d="M6.426 14.405c1.158-0.335 2.45 0.577 2.542 1.773 0.138 1.071-0.721 2.12-1.787 2.237-1.097 0.162-2.198-0.731-2.282-1.832-0.121-0.977 0.586-1.937 1.528-2.177M6.654 15.558c-0.565 0.167-0.781 0.943-0.392 1.383 0.39 0.518 1.321 0.351 1.49-0.281 0.255-0.64-0.456-1.358-1.098-1.102z"></path>
</svg>
