<?xml version="1.0" encoding="utf-8"?>
<!-- Generated by IcoMoon.io -->
<!DOCTYPE svg PUBLIC "-//W3C//DTD SVG 1.1//EN" "http://www.w3.org/Graphics/SVG/1.1/DTD/svg11.dtd">
<svg version="1.1" xmlns="http://www.w3.org/2000/svg" xmlns:xlink="http://www.w3.org/1999/xlink" width="24" height="24" viewBox="0 0 24 24">
<path fill="#e31409" d="M11.514 0h1c2.887 0.136 5.719 1.316 7.799 3.331 2.132 2.022 3.47 4.849 3.688 7.781v1.862c-0.193 2.456-1.152 4.846-2.731 6.738-1.954 2.386-4.865 3.96-7.931 4.288h-2.638c-3.022-0.319-5.892-1.855-7.847-4.18-1.756-2.057-2.768-4.716-2.854-7.417v-0.689c0.078-2.989 1.306-5.933 3.403-8.068 2.104-2.201 5.076-3.505 8.111-3.647M9.395 3.654c-1.555 0.496-2.965 1.424-4.027 2.664-1.272 1.472-2.023 3.379-2.102 5.322-0.097 2.014 0.527 4.054 1.747 5.66 1.080 1.457 2.639 2.537 4.362 3.090 1.372 0.485 2.876 0.532 4.298 0.271 0.57-0.13 1.165-0.233 1.672-0.541 2.772-1.164 4.874-3.803 5.291-6.792 0.371-2.284-0.254-4.697-1.634-6.547-1.16-1.559-2.846-2.696-4.714-3.226-1.596-0.436-3.316-0.395-4.892 0.098z"></path>
<path fill="#000" d="M9.395 3.654c1.577-0.493 3.296-0.534 4.892-0.098-0.817 1.446-1.619 2.9-2.43 4.35-0.824-1.416-1.632-2.84-2.462-4.252z"></path>
<path fill="#000" d="M4.057 12.804c1.121-1.472 2.218-2.963 3.342-4.433 0.605 0.008 1.211 0.002 1.816 0.006 0.001 1.476-0.001 2.953 0.001 4.43 0.295 0 0.59 0 0.886 0.001 0 0.432 0.001 0.865-0.001 1.298-0.295 0.007-0.59 0.001-0.884 0.007-0.002 0.391 0 0.782-0.001 1.174-0.476 0-0.953 0-1.428 0-0.002-0.392 0-0.784-0.001-1.176-1.242 0-2.484 0-3.725 0-0.002-0.436 0-0.872-0.004-1.308M5.654 12.808c0.71 0 1.421 0 2.131 0-0.001-0.943 0.004-1.886-0.004-2.831-0.703 0.949-1.428 1.88-2.128 2.831z"></path>
<path fill="#000" d="M12.48 10.927c0.263-0.478 0.814-0.707 1.333-0.76 0.595-0.076 1.282 0.019 1.697 0.493 0.572 0.685 0.547 1.763 0.010 2.46-0.338 0.505-0.862 0.827-1.361 1.152 0.557-0.001 1.114-0.001 1.67 0-0.004 0.31 0 0.619-0.008 0.93-1.153 0.012-2.306 0.002-3.461 0.005-0.001-0.311 0-0.623 0-0.935 0.677-0.384 1.301-0.854 1.926-1.316 0.43-0.317 0.769-0.871 0.574-1.414-0.194-0.478-0.836-0.539-1.242-0.317-0.323 0.186-0.343 0.589-0.39 0.918-0.341 0-0.68 0-1.021 0 0.026-0.415 0.049-0.853 0.274-1.217z"></path>
<path fill="#000" d="M16.412 12.962c0.235 0.011 0.486-0.035 0.702 0.090 0.355-0.188 0.797-0.198 1.076 0.13 0.473-0.497 1.382-0.235 1.524 0.43 0.072 0.552 0.017 1.112 0.032 1.668-0.211 0-0.422 0.001-0.634 0-0.022-0.526 0.049-1.058-0.041-1.579-0.134-0.322-0.595-0.18-0.66 0.116-0.048 0.485-0.007 0.974-0.019 1.463-0.21 0-0.419 0.001-0.628 0-0.018-0.522 0.047-1.050-0.041-1.566-0.148-0.365-0.7-0.154-0.67 0.196-0.025 0.456-0.002 0.913-0.008 1.37-0.212 0.001-0.424 0-0.635 0-0.001-0.773 0-1.544 0-2.317z"></path>
<path fill="#000" d="M10.754 14.754c0.067-0.476 0.814-0.512 0.961-0.070 0.034 0.353-0.098 0.756-0.427 0.931-0.151 0.059-0.388 0.27-0.473-0.022 0.193-0.1 0.374-0.22 0.545-0.355-0.277-0.026-0.655-0.121-0.606-0.485z"></path>
<path fill="#000" d="M9.557 20.418c0.797-1.334 1.555-2.692 2.344-4.032 0.768 1.375 1.537 2.749 2.302 4.126 0.383-0.124 0.769-0.24 1.142-0.391-0.506 0.308-1.102 0.412-1.672 0.541-1.422 0.26-2.927 0.214-4.298-0.271 0.046 0.007 0.137 0.020 0.182 0.028z"></path>
<path fill="#f4b70d" d="M14.287 3.556c1.867 0.529 3.553 1.667 4.714 3.226 1.38 1.85 2.005 4.264 1.634 6.547-0.416 2.989-2.519 5.628-5.291 6.792-0.373 0.151-0.76 0.268-1.142 0.391-0.764-1.376-1.534-2.75-2.302-4.126-0.788 1.34-1.547 2.698-2.344 4.032-0.046-0.007-0.137-0.020-0.182-0.028-1.723-0.553-3.282-1.633-4.362-3.090-1.22-1.607-1.844-3.647-1.747-5.66 0.079-1.943 0.83-3.85 2.102-5.322 1.062-1.24 2.472-2.168 4.027-2.664 0.83 1.411 1.638 2.836 2.462 4.252 0.811-1.45 1.613-2.904 2.43-4.35M4.057 12.804c0.004 0.436 0.001 0.872 0.004 1.308 1.241 0 2.483 0 3.725 0 0.001 0.392-0.001 0.784 0.001 1.176 0.475 0 0.952 0 1.428 0 0.001-0.391-0.001-0.782 0.001-1.174 0.294-0.006 0.589 0 0.884-0.007 0.002-0.433 0.001-0.866 0.001-1.298-0.295-0.001-0.59-0.001-0.886-0.001-0.002-1.477 0-2.954-0.001-4.43-0.605-0.004-1.211 0.002-1.816-0.006-1.124 1.47-2.221 2.96-3.342 4.433M12.48 10.927c-0.224 0.364-0.247 0.802-0.274 1.217 0.341 0 0.68 0 1.021 0 0.047-0.329 0.067-0.732 0.39-0.918 0.406-0.222 1.048-0.161 1.242 0.317 0.196 0.542-0.144 1.097-0.574 1.414-0.625 0.462-1.249 0.932-1.926 1.316 0 0.312-0.001 0.624 0 0.935 1.154-0.002 2.308 0.007 3.461-0.005 0.008-0.311 0.005-0.62 0.008-0.93-0.557-0.001-1.114-0.001-1.67 0 0.499-0.325 1.022-0.647 1.361-1.152 0.538-0.697 0.563-1.775-0.010-2.46-0.415-0.474-1.102-0.569-1.697-0.493-0.52 0.053-1.070 0.282-1.333 0.76M16.412 12.962c0 0.773-0.001 1.544 0 2.317 0.211 0 0.422 0.001 0.635 0 0.006-0.457-0.017-0.914 0.008-1.37-0.030-0.349 0.522-0.56 0.67-0.196 0.088 0.516 0.023 1.044 0.041 1.566 0.209 0.001 0.418 0 0.628 0 0.012-0.488-0.029-0.978 0.019-1.463 0.065-0.296 0.526-0.438 0.66-0.116 0.090 0.521 0.019 1.054 0.041 1.579 0.211 0.001 0.422 0 0.634 0-0.016-0.556 0.040-1.116-0.032-1.668-0.142-0.665-1.051-0.926-1.524-0.43-0.28-0.328-0.721-0.318-1.076-0.13-0.216-0.125-0.467-0.079-0.702-0.090M10.754 14.754c-0.049 0.364 0.329 0.458 0.606 0.485-0.17 0.136-0.352 0.256-0.545 0.355 0.085 0.292 0.322 0.080 0.473 0.022 0.329-0.175 0.461-0.578 0.427-0.931-0.148-0.443-0.894-0.407-0.961 0.070z"></path>
<path fill="#f4b70d" d="M5.654 12.808c0.7-0.95 1.424-1.882 2.128-2.831 0.007 0.944 0.002 1.888 0.004 2.831-0.71 0-1.421 0-2.131 0z"></path>
</svg>
