<!-- Generated by IcoMoon.io -->
<svg version="1.1" xmlns="http://www.w3.org/2000/svg" width="24" height="24" viewBox="0 0 24 24">
<title>regulatory--no-motor-vehicles-except-motorcycles--g2</title>
<path fill="#e20a16" d="M11.087 0h1.536c4.524 0.226 8.768 3.187 10.464 7.397 0.493 1.132 0.725 2.35 0.913 3.564v2.12c-0.422 4.067-2.942 7.872-6.646 9.661-1.318 0.694-2.783 1.022-4.243 1.258h-2.197c-1.285-0.212-2.578-0.472-3.767-1.024-4.080-1.76-6.917-5.924-7.147-10.352v-1.237c0.227-4.339 2.95-8.434 6.907-10.249 1.309-0.638 2.748-0.928 4.18-1.138M5.179 4.7c-2.819 2.57-3.901 6.826-2.67 10.435 0.653 1.993 1.961 3.755 3.653 4.988 0.782-1.345 1.559-2.694 2.335-4.043 0.397-0.686 0.8-1.369 1.184-2.063 0.161-0.266 0.313-0.538 0.474-0.803 0.569-0.995 1.147-1.985 1.716-2.978 0.564-0.974 1.127-1.95 1.69-2.924 0.103-0.184 0.209-0.366 0.316-0.547 0.744-1.295 1.496-2.585 2.236-3.881-3.576-1.646-8.089-0.917-10.933 1.816M16.169 6.814c-0.083 0.132-0.169 0.263-0.256 0.391l0.037 0.056c-0.659 0.949-1.175 1.988-1.766 2.98-0.578 0.989-1.15 1.98-1.717 2.974-0.156 0.268-0.311 0.536-0.469 0.804-0.43 0.748-0.863 1.494-1.291 2.243-0.937 1.621-1.877 3.241-2.808 4.866 2.083 0.938 4.488 1.135 6.695 0.54 3.701-0.955 6.673-4.206 7.272-7.985 0.67-3.683-0.961-7.639-4.016-9.796-0.56 0.974-1.135 1.943-1.68 2.927z"></path>
<path fill="#fff" d="M5.179 4.7c2.844-2.732 7.357-3.462 10.933-1.816-0.739 1.296-1.492 2.586-2.236 3.881-0.226-0.001-0.452 0.001-0.679 0.004-0.062-0.282-0.126-0.565-0.191-0.848-0.666-0.001-1.332-0.001-1.999 0-0.062 0.282-0.127 0.564-0.19 0.847-0.878 0.018-1.759-0.036-2.636 0.023-0.439 0.013-0.724 0.397-0.852 0.779-0.431 1.17-0.858 2.342-1.278 3.517-0.228 0.71-0.805 1.316-0.688 2.113 0.071 0.614-0.265 1.554 0.504 1.823 0.011 0.913 0.002 1.825 0.006 2.738 0.503-0.002 1.007-0.002 1.511-0.001 0-0.606 0-1.212 0.001-1.818 0.371 0.050 0.742 0.090 1.111 0.139-0.776 1.349-1.553 2.698-2.335 4.043-1.692-1.234-3-2.995-3.653-4.988-1.231-3.61-0.149-7.865 2.67-10.435z"></path>
<path fill="#fff" d="M16.169 6.814c0.545-0.984 1.12-1.952 1.68-2.927 3.055 2.156 4.686 6.113 4.016 9.796-0.599 3.779-3.571 7.030-7.272 7.985-2.207 0.595-4.612 0.398-6.695-0.54 0.931-1.625 1.871-3.245 2.808-4.866 1.979 0.054 3.962-0.030 5.923-0.319 0.001 0.606 0.001 1.212 0.001 1.818 0.504 0 1.008 0 1.512 0 0.002-0.91-0.006-1.818 0.005-2.728 0.236-0.142 0.533-0.301 0.492-0.626-0.008-0.701 0.107-1.435-0.112-2.113-0.616-1.102-0.934-2.332-1.396-3.499-0.272-0.68-0.406-1.457-0.964-1.98z"></path>
<path fill="#fff" d="M7.979 7.375c1.849-0.149 3.722-0.020 5.582-0.062-0.563 0.974-1.126 1.95-1.69 2.924-0.522 0.005-1.045 0.002-1.568 0.001-0.312-1.009-1.753-1.010-2.066 0-0.463 0.001-0.925 0.002-1.387 0 0.394-0.946 0.634-1.966 1.129-2.863z"></path>
<path fill="#fff" d="M14.184 10.241c0.592-0.991 1.108-2.030 1.766-2.98 0.576 0.912 0.798 1.991 1.217 2.977-0.995 0.004-1.99 0-2.983 0.002z"></path>
<path fill="#fff" d="M6.248 12.223c0.685 0.001 1.37 0.001 2.056 0 0.114 0.462 0.23 0.923 0.343 1.385-0.799 0.001-1.6-0.001-2.399 0 0-0.462 0-0.923 0-1.385z"></path>
<path fill="#fff" d="M15.71 12.223c0.686 0.001 1.372 0.001 2.058 0.001-0.001 0.461-0.001 0.922 0 1.384-0.8 0-1.601 0-2.401 0 0.114-0.462 0.23-0.923 0.343-1.385z"></path>
<path fill="#fff" d="M8.966 13.217c0.397 0.001 0.793-0.002 1.189-0.001-0.161 0.265-0.313 0.536-0.474 0.803-1.146-0.006-2.291 0-3.437-0.004-0.001-0.049-0.006-0.146-0.008-0.196 0.958-0.006 1.915-0.002 2.873-0.004-0.049-0.199-0.095-0.4-0.143-0.599z"></path>
<path fill="#fff" d="M12.467 13.214c0.86 0.004 1.722 0.001 2.582 0.002-0.048 0.199-0.095 0.398-0.143 0.599 0.954 0.001 1.909 0 2.864 0-0.001 0.050-0.002 0.15-0.004 0.2-1.922 0.001-3.846-0.002-5.77 0.002 0.158-0.268 0.313-0.536 0.469-0.804z"></path>
<path fill="#000" d="M11.008 5.921c0.667-0.001 1.333-0.001 1.999 0 0.065 0.283 0.128 0.566 0.191 0.848 0.227-0.002 0.454-0.005 0.679-0.004-0.107 0.181-0.212 0.364-0.316 0.547-1.86 0.042-3.733-0.086-5.582 0.062-0.496 0.898-0.736 1.918-1.129 2.863 0.462 0.002 0.924 0.001 1.387 0 0.313-1.010 1.754-1.009 2.066 0 0.523 0.001 1.046 0.004 1.568-0.001-0.569 0.994-1.147 1.984-1.716 2.978-0.396-0.001-0.792 0.002-1.189 0.001 0.048 0.199 0.094 0.4 0.143 0.599-0.958 0.001-1.915-0.002-2.873 0.004 0.002 0.049 0.007 0.146 0.008 0.196 1.146 0.004 2.291-0.002 3.437 0.004-0.384 0.694-0.787 1.376-1.184 2.063-0.37-0.049-0.74-0.089-1.111-0.139-0.001 0.606-0.001 1.212-0.001 1.818-0.504-0.001-1.008-0.001-1.511 0.001-0.004-0.913 0.005-1.825-0.006-2.738-0.769-0.269-0.433-1.208-0.504-1.823-0.118-0.797 0.46-1.403 0.688-2.113 0.42-1.175 0.847-2.347 1.278-3.517 0.128-0.382 0.413-0.766 0.852-0.779 0.877-0.059 1.758-0.005 2.636-0.023 0.062-0.283 0.127-0.565 0.19-0.847M6.248 12.223c0 0.462 0 0.923 0 1.385 0.799-0.001 1.6 0.001 2.399 0-0.113-0.462-0.229-0.923-0.343-1.385-0.685 0.001-1.37 0.001-2.056 0z"></path>
<path fill="#000" d="M15.913 7.205c0.086-0.128 0.173-0.259 0.256-0.391 0.558 0.523 0.691 1.3 0.964 1.98 0.462 1.168 0.78 2.398 1.396 3.499 0.218 0.678 0.103 1.412 0.112 2.113 0.041 0.325-0.256 0.485-0.492 0.626-0.011 0.91-0.002 1.818-0.005 2.728-0.504 0-1.008 0-1.512 0 0-0.606 0-1.212-0.001-1.818-1.961 0.289-3.944 0.373-5.923 0.319 0.428-0.749 0.862-1.495 1.291-2.243 1.924-0.005 3.847-0.001 5.77-0.002 0.001-0.050 0.002-0.15 0.004-0.2-0.955 0-1.91 0.001-2.864 0 0.048-0.2 0.095-0.4 0.143-0.599-0.86-0.001-1.722 0.001-2.582-0.002 0.568-0.994 1.139-1.985 1.717-2.974 0.994-0.002 1.988 0.001 2.983-0.002-0.419-0.986-0.641-2.065-1.217-2.977l-0.037-0.056M15.71 12.223c-0.113 0.462-0.229 0.923-0.343 1.385 0.8 0 1.601 0 2.401 0-0.001-0.462-0.001-0.923 0-1.384-0.686 0-1.372 0-2.058-0.001z"></path>
</svg>
