<!-- Generated by IcoMoon.io -->
<svg version="1.1" xmlns="http://www.w3.org/2000/svg" width="16" height="24" viewBox="0 0 16 24">
<title>regulatory--end-of-no-parking--g2</title>
<path fill="#595959" d="M0.897 0h14.195c0.426 0.143 0.755 0.478 0.908 0.899v22.19c-0.146 0.423-0.477 0.754-0.895 0.91h-14.198c-0.424-0.146-0.754-0.48-0.907-0.901v-22.198c0.148-0.42 0.478-0.75 0.897-0.902M0.902 0.11c-0.476 0.124-0.845 0.59-0.822 1.086 0.002 7.202 0.001 14.404 0 21.606-0.028 0.598 0.52 1.145 1.118 1.118 4.536 0 9.071 0 13.606 0 0.598 0.026 1.144-0.52 1.118-1.117-0.001-7.202-0.001-14.404 0-21.606 0.029-0.602-0.521-1.143-1.119-1.122-4.374-0.006-8.748 0.001-13.122-0.003-0.259 0.004-0.523-0.018-0.778 0.038z"></path>
<path fill="#fff" d="M0.902 0.11c0.255-0.056 0.519-0.034 0.778-0.038 4.374 0.004 8.748-0.002 13.122 0.003 0.598-0.022 1.148 0.52 1.119 1.122-0.001 7.202-0.001 14.404 0 21.606 0.026 0.597-0.52 1.143-1.118 1.117-4.535 0-9.070 0-13.606 0-0.598 0.027-1.146-0.519-1.118-1.118 0.001-7.202 0.002-14.404 0-21.606-0.022-0.497 0.346-0.962 0.822-1.086M0.911 0.599c-0.259 0.117-0.397 0.404-0.378 0.681-0.001 7.146 0 14.293 0 21.44-0.041 0.378 0.271 0.761 0.664 0.739 4.534 0.003 9.070 0.003 13.605 0 0.393 0.022 0.702-0.362 0.664-0.739 0-7.146 0.001-14.293 0-21.439 0.041-0.382-0.273-0.759-0.666-0.743-4.48-0.011-8.96 0.001-13.44-0.006-0.151 0.005-0.31 0.001-0.45 0.067z"></path>
<path fill="#fff" d="M0.801 1.274c-0.042-0.274 0.199-0.514 0.473-0.473 4.484-0.002 8.969-0.002 13.453 0 0.237-0.053 0.625 0.25 0.378 0.46-0.86 0.966-1.726 1.929-2.586 2.895-0.238-0.754-0.486-1.506-0.732-2.258-0.152 0-0.303 0-0.455-0.001-0.254 0.766-0.502 1.533-0.749 2.301 0.144-0.004 0.288 0 0.432-0.004 0.038-0.157 0.106-0.305 0.148-0.46 0.264 0.006 0.528 0.005 0.792 0.002 0.051 0.153 0.101 0.306 0.15 0.459 0.126 0 0.251 0.001 0.378 0-0.846 0.945-1.69 1.892-2.538 2.836-2.146-0.783-4.714-0.15-6.233 1.562-1.581 1.69-1.965 4.355-0.936 6.426l0.011 0.024c-0.665 0.737-1.324 1.479-1.986 2.219-0.002-5.33-0.002-10.66 0-15.99M3.93 2.089c0.068 0.108 0.135 0.216 0.203 0.325 0.274-0.189 0.862-0.362 0.964 0.090 0.017 0.311-0.346 0.329-0.572 0.325 0 0.106-0.001 0.213-0.001 0.319 0.282-0.025 0.702 0.081 0.627 0.454-0.177 0.449-0.784 0.28-1.074 0.038-0.082 0.106-0.166 0.21-0.247 0.316 0.471 0.343 1.272 0.469 1.631-0.093 0.243-0.324 0.003-0.738-0.335-0.866 0.335-0.158 0.468-0.606 0.213-0.896-0.362-0.412-0.994-0.259-1.409-0.013M6.665 1.874c-0.767 0.235-0.833 1.291-0.53 1.913 0.281 0.656 1.36 0.605 1.578-0.075 0.376-0.743-0.014-2.107-1.048-1.838M8.37 1.898c-0.002 0.767 0 1.534-0.001 2.302 0.134 0.001 0.268 0.001 0.402 0.002 0.001-0.345 0-0.69 0.001-1.035 0.287-0.001 0.574-0.001 0.862 0 0.001 0.345 0 0.69 0.001 1.035 0.134-0.001 0.268-0.001 0.402-0.002 0-0.766 0-1.532 0-2.298-0.134-0.002-0.266-0.002-0.4-0.004-0.004 0.307-0.003 0.614-0.004 0.922-0.287 0.001-0.574 0.001-0.861 0-0.001-0.305-0.001-0.61 0.002-0.914-0.135 0-0.27-0.008-0.404-0.007z"></path>
<path fill="#fff" d="M10.332 7.169c1.627-1.809 3.243-3.628 4.867-5.439 0.001 0.226 0.001 0.451 0.001 0.677-1.49 1.66-2.97 3.329-4.463 4.987-0.134-0.075-0.27-0.15-0.405-0.225z"></path>
<path fill="#fff" d="M6.736 2.252c0.944-0.23 0.982 1.734 0.056 1.616-0.585-0.257-0.589-1.301-0.056-1.616z"></path>
<path fill="#fff" d="M11.27 3.391c0.094-0.321 0.185-0.643 0.29-0.961 0.098 0.319 0.19 0.641 0.284 0.961-0.191 0.001-0.382 0.001-0.574 0z"></path>
<path fill="#fff" d="M11.087 7.578c1.371-1.531 2.738-3.068 4.111-4.597 0.002 0.225 0.002 0.45 0 0.676-1.25 1.394-2.496 2.791-3.744 4.186-0.122-0.089-0.245-0.177-0.367-0.266z"></path>
<path fill="#fff" d="M11.75 8.092c1.146-1.29 2.301-2.574 3.45-3.863-0.029 0.277 0.1 0.622-0.138 0.831-0.987 1.099-1.972 2.201-2.954 3.306-0.12-0.091-0.238-0.182-0.358-0.274z"></path>
<path fill="#fff" d="M12.354 8.66c0.949-1.060 1.894-2.122 2.844-3.18 0.002 0.225 0.002 0.45 0.002 0.674-0.853 0.954-1.706 1.908-2.558 2.861-0.096-0.118-0.192-0.237-0.287-0.355z"></path>
<path fill="#fff" d="M12.87 9.338c0.774-0.869 1.549-1.738 2.328-2.603 0.005 5.33 0.002 10.661 0.002 15.991 0.039 0.272-0.199 0.515-0.473 0.473-4.485 0.001-8.969 0.002-13.454 0-0.238 0.053-0.622-0.246-0.38-0.463 1.502-1.684 3.008-3.366 4.513-5.049 2.323 1.213 5.406 0.564 7.047-1.476 1.622-1.88 1.784-4.807 0.417-6.873M9.516 21.045c0.186 0.133 0.4-0.006 0.586-0.066-0.056 0.388-0.385 0.581-0.756 0.419 0.108 0.429 0.765 0.319 0.885-0.048 0.175-0.402 0.182-1.098-0.342-1.227-0.479-0.097-0.75 0.657-0.373 0.922M3.365 20.15c-0.012 0.060-0.035 0.181-0.047 0.241 0.228-0.002 0.456-0.002 0.684-0.002-0.225 0.386-0.409 0.796-0.506 1.234 0.070 0.002 0.211 0.004 0.282 0.006 0.097-0.519 0.38-0.973 0.521-1.476-0.311-0.005-0.622-0.004-0.933-0.002M8.776 20.512c-0.011 0.378-0.006 0.758-0.006 1.136 0.066 0 0.197-0.001 0.262-0.001-0.002-0.5 0-0.999-0.002-1.498-0.057 0-0.172 0.001-0.23 0.002-0.21 0.139-0.464 0.586-0.026 0.362M4.906 20.427c-0.37 0.276-0.366 1.030 0.080 1.226 0.731 0.085 0.659-1.471-0.080-1.226M5.939 20.418c-0.396 0.26-0.391 1.058 0.075 1.238 0.708 0.054 0.647-1.435-0.075-1.238M11.309 20.434c-0.354 0.282-0.354 1.009 0.078 1.216 0.747 0.112 0.671-1.492-0.078-1.216M12.343 20.422c-0.385 0.27-0.38 1.051 0.082 1.234 0.713 0.059 0.644-1.454-0.082-1.234M7.026 20.902c0 0.062-0.001 0.187-0.001 0.25 0.314 0.002 0.628 0.001 0.942 0.002 0.005-0.083 0.010-0.166 0.014-0.25-0.318-0.003-0.637-0.002-0.955-0.002M4.256 21.368c-0.231 0.125 0.099 0.443 0.219 0.218 0.129-0.113-0.11-0.349-0.219-0.218M10.577 21.367c-0.236 0.13 0.094 0.441 0.217 0.218 0.126-0.112-0.108-0.348-0.217-0.218z"></path>
<path fill="#fff" d="M4.877 8.819c1.188-0.995 2.845-1.38 4.346-0.986-0.029 0.038-0.088 0.112-0.117 0.149l-0.031-0.005c-1.358-0.318-2.838 0-3.939 0.858 0.563 0.561 1.119 1.13 1.689 1.685-0.030 0.034-0.089 0.102-0.118 0.137-0.61-0.613-1.227-1.218-1.83-1.838z"></path>
<path fill="#fff" d="M9.478 8.121c0.040-0.039 0.12-0.119 0.161-0.158 0.13 0.059 0.256 0.126 0.374 0.206-0.175 0.086-0.36-0.010-0.534-0.048z"></path>
<path fill="#fff" d="M10.294 8.463c0.048-0.049 0.096-0.097 0.144-0.145 0.12 0.095 0.239 0.191 0.358 0.289-0.031 0.022-0.093 0.063-0.123 0.084-0.13-0.071-0.254-0.15-0.378-0.228z"></path>
<path fill="#fff" d="M3.503 14.242c-0.633-1.615-0.31-3.546 0.821-4.862 0.629 0.61 1.238 1.239 1.864 1.852-0.028 0.034-0.086 0.1-0.114 0.134-0.58-0.577-1.148-1.166-1.74-1.73-0.979 1.247-1.219 2.966-0.717 4.458-0.029 0.038-0.086 0.112-0.114 0.15z"></path>
<path fill="#fff" d="M11.576 9.545c0.034-0.042 0.1-0.127 0.134-0.17 0.048 0.146 0.269 0.332 0.138 0.476-0.098-0.095-0.188-0.198-0.271-0.306z"></path>
<path fill="#fff" d="M12.082 10.238c0.023-0.036 0.070-0.109 0.094-0.146 1.013 1.714 0.794 4.022-0.501 5.529-0.786-0.771-1.558-1.556-2.338-2.334 0.028-0.033 0.085-0.097 0.113-0.13 0.743 0.73 1.47 1.474 2.213 2.204 1.139-1.44 1.272-3.513 0.418-5.124z"></path>
<path fill="#fff" d="M6.346 11.628c0.030-0.031 0.090-0.094 0.12-0.126 0.095 0.1 0.191 0.198 0.282 0.302-0.018 0.040-0.055 0.12-0.074 0.159-0.11-0.111-0.219-0.222-0.328-0.335z"></path>
<path fill="#fff" d="M6.941 12.219c0.039-0.042 0.079-0.085 0.119-0.127 0.102 0.109 0.204 0.218 0.306 0.326-0.041 0.044-0.082 0.088-0.122 0.132-0.101-0.11-0.202-0.221-0.302-0.33z"></path>
<path fill="#fff" d="M7.637 12.686c0.107 0.107 0.214 0.214 0.321 0.322-0.027 0.030-0.083 0.090-0.11 0.12-0.109-0.1-0.217-0.2-0.325-0.3 0.028-0.035 0.086-0.106 0.114-0.142z"></path>
<path fill="#fff" d="M8.116 13.4c0.028-0.030 0.084-0.090 0.112-0.121 0.107 0.101 0.215 0.201 0.324 0.301-0.028 0.035-0.083 0.106-0.111 0.142-0.109-0.107-0.217-0.215-0.325-0.322z"></path>
<path fill="#fff" d="M8.706 13.994c0.028-0.032 0.084-0.097 0.112-0.129 0.771 0.765 1.538 1.535 2.306 2.303-1.364 1.19-3.387 1.462-5.046 0.767 0.046-0.050 0.091-0.099 0.137-0.148 1.518 0.642 3.354 0.394 4.646-0.63-0.711-0.728-1.438-1.441-2.154-2.164z"></path>
<path fill="#fff" d="M3.674 14.625c0.045-0.051 0.090-0.102 0.136-0.154 0.068 0.142 0.137 0.284 0.199 0.43-0.034 0.051-0.067 0.102-0.101 0.153-0.079-0.142-0.157-0.286-0.234-0.429z"></path>
<path fill="#fff" d="M4.147 15.366c0.024-0.036 0.070-0.108 0.094-0.144 0.094 0.121 0.188 0.242 0.275 0.368-0.026 0.036-0.079 0.108-0.106 0.144-0.090-0.122-0.182-0.242-0.264-0.368z"></path>
<path fill="#fff" d="M0.8 17.84c0.723-0.811 1.449-1.62 2.171-2.432 0.087 0.128 0.174 0.255 0.261 0.383-0.807 0.91-1.62 1.816-2.431 2.723-0.001-0.225-0.001-0.45-0.001-0.674z"></path>
<path fill="#fff" d="M4.686 15.993c0.029-0.033 0.087-0.098 0.116-0.13 0.112 0.099 0.224 0.199 0.336 0.299-0.029 0.031-0.086 0.094-0.115 0.125-0.112-0.098-0.225-0.195-0.337-0.294z"></path>
<path fill="#fff" d="M0.936 18.937c0.842-0.937 1.681-1.877 2.518-2.818 0.102 0.108 0.206 0.216 0.309 0.324-0.982 1.112-1.976 2.214-2.963 3.322 0.029-0.275-0.096-0.616 0.136-0.828z"></path>
<path fill="#fff" d="M5.329 16.524c0.031-0.036 0.093-0.106 0.123-0.142 0.133 0.076 0.265 0.152 0.398 0.228-0.028 0.034-0.084 0.101-0.112 0.134-0.136-0.074-0.272-0.147-0.409-0.221z"></path>
<path fill="#fff" d="M0.802 20.337c1.081-1.203 2.154-2.414 3.237-3.616 0.108 0.103 0.217 0.206 0.325 0.31-1.189 1.327-2.374 2.658-3.562 3.986-0.001-0.226-0.001-0.454 0.001-0.68z"></path>
<path fill="#fff" d="M4.672 17.257c0.13 0.081 0.258 0.162 0.388 0.242-1.419 1.589-2.839 3.177-4.259 4.765-0.001-0.224-0.001-0.447-0.002-0.671 1.287-1.449 2.582-2.89 3.873-4.336z"></path>
<path fill="#fff" d="M9.702 20.871c-0.214-0.137-0.112-0.513 0.142-0.527 0.154 0.060 0.183 0.233 0.247 0.366-0.122 0.068-0.235 0.198-0.389 0.161z"></path>
<path fill="#fff" d="M5.049 20.582c0.322 0.081 0.322 0.801-0.011 0.904-0.234-0.205-0.258-0.74 0.011-0.904z"></path>
<path fill="#fff" d="M6.026 20.584c0.372 0.018 0.349 0.763 0.054 0.906-0.278-0.18-0.26-0.678-0.054-0.906z"></path>
<path fill="#fff" d="M11.449 20.572c0.34 0.092 0.302 0.698 0.075 0.904-0.346-0.085-0.319-0.708-0.075-0.904z"></path>
<path fill="#fff" d="M12.479 21.49c-0.288-0.23-0.222-0.713-0.003-0.974 0.289 0.214 0.337 0.797 0.003 0.974z"></path>
<path fill="#000" d="M0.911 0.599c0.14-0.066 0.298-0.062 0.45-0.067 4.48 0.006 8.96-0.006 13.44 0.006 0.393-0.016 0.706 0.362 0.666 0.743 0.001 7.146 0 14.293 0 21.439 0.038 0.378-0.271 0.761-0.664 0.739-4.535 0.003-9.070 0.003-13.605 0-0.393 0.022-0.705-0.361-0.664-0.739 0-7.147-0.001-14.294 0-21.44-0.019-0.277 0.118-0.564 0.378-0.681M0.801 1.274c-0.002 5.33-0.002 10.659 0 15.99 0.662-0.74 1.321-1.482 1.986-2.219l-0.011-0.024c0.259-0.242 0.488-0.514 0.73-0.773l-0.002-0.006c0.028-0.038 0.085-0.112 0.114-0.15 0.838-0.89 1.633-1.822 2.457-2.727 0.029-0.034 0.086-0.1 0.114-0.134 0.174-0.19 0.347-0.382 0.518-0.574 0.030-0.034 0.089-0.102 0.118-0.137 0.749-0.849 1.527-1.673 2.25-2.543l0.031 0.005c0.029-0.037 0.088-0.111 0.117-0.149 0.246-0.263 0.482-0.533 0.721-0.802 0.848-0.944 1.691-1.891 2.538-2.836-0.126 0.001-0.252 0-0.378 0-0.050-0.154-0.099-0.306-0.15-0.459-0.264 0.002-0.528 0.003-0.792-0.002-0.042 0.155-0.11 0.303-0.148 0.46-0.144 0.004-0.288 0-0.432 0.004 0.247-0.768 0.495-1.535 0.749-2.301 0.152 0.001 0.303 0.001 0.455 0.001 0.246 0.752 0.494 1.503 0.732 2.258 0.861-0.966 1.726-1.929 2.586-2.895 0.247-0.21-0.141-0.513-0.378-0.46-4.484-0.002-8.969-0.002-13.453 0-0.274-0.042-0.514 0.198-0.473 0.473M10.332 7.169c-0.23 0.266-0.471 0.522-0.694 0.794-0.041 0.039-0.121 0.119-0.161 0.158-0.781 0.894-1.581 1.77-2.367 2.658-0.034 0.037-0.104 0.111-0.139 0.148-0.167 0.193-0.337 0.383-0.505 0.575-0.030 0.032-0.090 0.094-0.12 0.126-0.842 0.952-1.692 1.895-2.537 2.843-0.046 0.051-0.091 0.102-0.136 0.154-0.234 0.261-0.47 0.521-0.702 0.783-0.722 0.812-1.448 1.621-2.171 2.432 0 0.225 0 0.45 0.001 0.674 0.811-0.907 1.624-1.813 2.431-2.723 0.226-0.245 0.442-0.501 0.676-0.738 0.034-0.051 0.067-0.102 0.101-0.153 0.916-0.954 1.754-1.98 2.666-2.938 0.018-0.039 0.055-0.119 0.074-0.159l0.029 0.033c0.175-0.206 0.351-0.411 0.55-0.595l0.058-0.113c1.137-1.227 2.238-2.489 3.353-3.735 1.493-1.658 2.974-3.327 4.463-4.987 0-0.226 0-0.451-0.001-0.677-1.624 1.811-3.24 3.63-4.867 5.439M11.27 3.391c0.191 0.001 0.382 0.001 0.574 0-0.094-0.32-0.186-0.642-0.284-0.961-0.105 0.318-0.195 0.64-0.29 0.961M11.087 7.578c-0.221 0.242-0.44 0.487-0.649 0.741-0.048 0.048-0.096 0.096-0.144 0.145-0.874 0.971-1.73 1.961-2.621 2.917-0.023 0.034-0.070 0.104-0.093 0.138-0.184 0.182-0.354 0.377-0.521 0.574-0.040 0.042-0.080 0.085-0.119 0.127-0.902 0.998-1.782 2.018-2.699 3.003-0.024 0.036-0.070 0.108-0.094 0.144-0.245 0.238-0.465 0.499-0.693 0.753-0.838 0.941-1.676 1.881-2.518 2.818-0.232 0.212-0.107 0.553-0.136 0.828 0.987-1.108 1.981-2.21 2.963-3.322 0.218-0.235 0.426-0.478 0.648-0.709 0.026-0.036 0.079-0.108 0.106-0.144 0.922-1.001 1.82-2.025 2.726-3.041 0.041-0.044 0.082-0.088 0.122-0.132 0.169-0.186 0.336-0.374 0.502-0.563 0.048-0.052 0.095-0.104 0.142-0.155 0.881-1.009 1.802-1.982 2.662-3.008 0.030-0.021 0.092-0.062 0.123-0.084 0.202-0.27 0.435-0.512 0.658-0.764 1.248-1.395 2.494-2.793 3.744-4.186 0.002-0.226 0.002-0.451 0-0.676-1.374 1.529-2.74 3.066-4.111 4.597M11.75 8.092c-1.163 1.28-2.303 2.581-3.458 3.869-0.050 0.054-0.098 0.109-0.148 0.164-0.169 0.186-0.338 0.374-0.507 0.561-0.029 0.036-0.086 0.107-0.114 0.142-0.916 1.003-1.813 2.023-2.72 3.034-0.029 0.033-0.087 0.098-0.116 0.13-0.218 0.24-0.434 0.483-0.648 0.728-1.082 1.202-2.156 2.413-3.237 3.616-0.002 0.226-0.002 0.454-0.001 0.68 1.188-1.328 2.374-2.658 3.562-3.986 0.221-0.247 0.442-0.494 0.66-0.745 0.029-0.031 0.086-0.094 0.115-0.125 0.902-1.011 1.808-2.021 2.709-3.034 0.027-0.030 0.083-0.090 0.11-0.12 0.174-0.195 0.344-0.393 0.532-0.574 0.021-0.033 0.062-0.099 0.084-0.132 1.181-1.313 2.377-2.612 3.534-3.936 0.982-1.105 1.966-2.206 2.954-3.306 0.238-0.21 0.11-0.554 0.138-0.831-1.149 1.289-2.303 2.573-3.45 3.863M12.354 8.66c-0.214 0.238-0.426 0.479-0.645 0.715-0.034 0.042-0.1 0.127-0.134 0.17-1.123 1.238-2.242 2.482-3.348 3.734-0.028 0.030-0.084 0.090-0.112 0.121-0.886 0.997-1.776 1.988-2.664 2.982-0.030 0.035-0.092 0.106-0.123 0.142-0.222 0.242-0.44 0.486-0.657 0.733-1.291 1.446-2.586 2.887-3.873 4.336 0.001 0.224 0.001 0.447 0.002 0.671 1.42-1.588 2.84-3.176 4.259-4.765 0.226-0.252 0.45-0.504 0.678-0.754 0.028-0.034 0.084-0.101 0.112-0.134 0.87-0.957 1.721-1.932 2.591-2.888 0.028-0.036 0.083-0.107 0.111-0.142 1.374-1.511 2.73-3.040 4.090-4.565 0.853-0.953 1.706-1.907 2.558-2.861 0-0.225 0-0.45-0.002-0.674-0.95 1.058-1.895 2.12-2.844 3.18M12.87 9.338c-0.23 0.252-0.451 0.514-0.693 0.754-0.024 0.037-0.071 0.11-0.094 0.146-0.898 0.954-1.75 1.951-2.631 2.92-0.028 0.033-0.085 0.097-0.113 0.13-0.174 0.192-0.347 0.384-0.52 0.578-0.028 0.032-0.084 0.097-0.112 0.129-0.831 0.931-1.668 1.857-2.492 2.794-0.046 0.049-0.091 0.098-0.137 0.148-0.226 0.249-0.45 0.5-0.672 0.751-1.505 1.682-3.010 3.365-4.513 5.049-0.242 0.217 0.142 0.516 0.38 0.463 4.485 0.002 8.969 0.001 13.454 0 0.274 0.042 0.512-0.201 0.473-0.473 0-5.33 0.003-10.661-0.002-15.991-0.779 0.865-1.554 1.734-2.328 2.603z"></path>
<path fill="#000" d="M3.93 2.089c0.414-0.246 1.047-0.399 1.409 0.013 0.255 0.29 0.122 0.738-0.213 0.896 0.338 0.127 0.578 0.542 0.335 0.866-0.359 0.562-1.16 0.436-1.631 0.093 0.081-0.106 0.165-0.21 0.247-0.316 0.29 0.242 0.898 0.41 1.074-0.038 0.074-0.373-0.345-0.478-0.627-0.454 0-0.106 0.001-0.213 0.001-0.319 0.226 0.004 0.589-0.014 0.572-0.325-0.102-0.453-0.69-0.279-0.964-0.090-0.068-0.109-0.135-0.217-0.203-0.325z"></path>
<path fill="#000" d="M6.665 1.874c1.034-0.27 1.424 1.094 1.048 1.838-0.218 0.68-1.298 0.731-1.578 0.075-0.302-0.622-0.237-1.678 0.53-1.913M6.736 2.252c-0.533 0.315-0.529 1.359 0.056 1.616 0.926 0.118 0.888-1.846-0.056-1.616z"></path>
<path fill="#000" d="M8.37 1.898c0.134-0.001 0.269 0.007 0.404 0.007-0.002 0.305-0.002 0.61-0.002 0.914 0.287 0.001 0.574 0.001 0.861 0 0.001-0.307 0-0.614 0.004-0.922 0.134 0.002 0.266 0.002 0.4 0.004 0 0.766 0 1.532 0 2.298-0.134 0.001-0.269 0.001-0.402 0.002-0.001-0.345 0-0.69-0.001-1.035-0.287-0.001-0.574-0.001-0.862 0-0.001 0.345 0 0.69-0.001 1.035-0.134-0.001-0.268-0.001-0.402-0.002 0.001-0.767-0.001-1.534 0.001-2.302z"></path>
<path fill="#000" d="M9.516 21.045c-0.378-0.265-0.106-1.018 0.373-0.922 0.523 0.129 0.517 0.826 0.342 1.227-0.12 0.367-0.777 0.477-0.885 0.048 0.371 0.162 0.7-0.031 0.756-0.419-0.186 0.059-0.399 0.198-0.586 0.066M9.702 20.871c0.154 0.037 0.266-0.093 0.389-0.161-0.064-0.134-0.094-0.306-0.247-0.366-0.254 0.014-0.356 0.39-0.142 0.527z"></path>
<path fill="#000" d="M3.365 20.15c0.311-0.002 0.622-0.002 0.933 0.002-0.141 0.503-0.424 0.957-0.521 1.476-0.070-0.002-0.211-0.004-0.282-0.006 0.098-0.438 0.282-0.848 0.506-1.234-0.228-0.001-0.456-0.001-0.684 0.002 0.012-0.060 0.035-0.181 0.047-0.241z"></path>
<path fill="#000" d="M8.776 20.512c-0.438 0.224-0.185-0.222 0.026-0.362 0.058-0.001 0.173-0.002 0.23-0.002 0.002 0.499 0 0.998 0.002 1.498-0.066 0-0.197 0.001-0.262 0.001 0-0.378-0.006-0.758 0.006-1.136z"></path>
<path fill="#000" d="M4.906 20.427c0.739-0.246 0.811 1.31 0.080 1.226-0.446-0.196-0.45-0.95-0.080-1.226M5.049 20.582c-0.269 0.164-0.246 0.699-0.011 0.904 0.334-0.103 0.333-0.823 0.011-0.904z"></path>
<path fill="#000" d="M5.939 20.418c0.722-0.197 0.783 1.292 0.075 1.238-0.466-0.181-0.471-0.978-0.075-1.238M6.026 20.584c-0.206 0.229-0.224 0.726 0.054 0.906 0.294-0.143 0.318-0.888-0.054-0.906z"></path>
<path fill="#000" d="M11.309 20.434c0.749-0.276 0.825 1.328 0.078 1.216-0.431-0.207-0.432-0.934-0.078-1.216M11.449 20.572c-0.244 0.196-0.27 0.819 0.075 0.904 0.226-0.206 0.265-0.812-0.075-0.904z"></path>
<path fill="#000" d="M12.343 20.422c0.726-0.219 0.795 1.294 0.082 1.234-0.462-0.183-0.467-0.965-0.082-1.234M12.479 21.49c0.334-0.177 0.286-0.76-0.003-0.974-0.219 0.261-0.285 0.744 0.003 0.974z"></path>
<path fill="#000" d="M7.026 20.902c0.318 0 0.637-0.001 0.955 0.002-0.004 0.083-0.009 0.166-0.014 0.25-0.314-0.002-0.628-0.001-0.942-0.002 0-0.062 0.001-0.187 0.001-0.25z"></path>
<path fill="#000" d="M4.256 21.368c0.11-0.131 0.348 0.105 0.219 0.218-0.12 0.226-0.45-0.093-0.219-0.218z"></path>
<path fill="#000" d="M10.577 21.367c0.109-0.13 0.342 0.106 0.217 0.218-0.122 0.223-0.453-0.088-0.217-0.218z"></path>
<path fill="#7f7f7f" d="M3.711 8.594c1.518-1.711 4.086-2.345 6.233-1.562-0.238 0.269-0.475 0.538-0.721 0.802-1.502-0.394-3.158-0.010-4.346 0.986 0.602 0.62 1.22 1.226 1.83 1.838-0.171 0.192-0.344 0.384-0.518 0.574-0.626-0.613-1.235-1.242-1.864-1.852-1.13 1.316-1.454 3.247-0.821 4.862l0.002 0.006c-0.242 0.258-0.47 0.53-0.73 0.773-1.029-2.071-0.645-4.737 0.936-6.426z"></path>
<path fill="#7f7f7f" d="M9.638 7.962c0.222-0.272 0.463-0.528 0.694-0.794 0.135 0.075 0.27 0.15 0.405 0.225-1.115 1.246-2.216 2.508-3.353 3.735-0.086-0.121-0.18-0.235-0.274-0.35 0.786-0.888 1.586-1.765 2.367-2.658 0.174 0.038 0.359 0.134 0.534 0.048-0.118-0.081-0.244-0.147-0.374-0.206z"></path>
<path fill="#7f7f7f" d="M10.438 8.318c0.209-0.254 0.428-0.498 0.649-0.741 0.122 0.089 0.245 0.177 0.367 0.266-0.223 0.252-0.457 0.494-0.658 0.764-0.118-0.098-0.238-0.194-0.358-0.289z"></path>
<path fill="#7f7f7f" d="M5.136 8.836c1.101-0.858 2.581-1.176 3.939-0.858-0.723 0.87-1.502 1.694-2.25 2.543-0.57-0.555-1.126-1.124-1.689-1.685z"></path>
<path fill="#7f7f7f" d="M8.292 11.961c1.154-1.288 2.294-2.589 3.458-3.869 0.119 0.091 0.238 0.182 0.358 0.274-1.157 1.324-2.353 2.623-3.534 3.936-0.090-0.118-0.186-0.229-0.282-0.341M11.028 8.958c0.072 0.151 0.271 0.375 0.377 0.126-0.1-0.078-0.314-0.383-0.377-0.126z"></path>
<path fill="#7f7f7f" d="M7.674 11.38c0.891-0.956 1.746-1.946 2.621-2.917 0.125 0.078 0.249 0.157 0.378 0.228-0.861 1.026-1.782 1.999-2.662 3.008-0.112-0.107-0.224-0.214-0.337-0.319z"></path>
<path fill="#7f7f7f" d="M11.71 9.375c0.218-0.236 0.43-0.477 0.645-0.715 0.095 0.118 0.191 0.237 0.287 0.355-1.359 1.525-2.716 3.054-4.090 4.565-0.109-0.1-0.217-0.2-0.324-0.301 1.106-1.253 2.225-2.496 3.348-3.734 0.083 0.108 0.173 0.211 0.271 0.306 0.131-0.144-0.090-0.33-0.138-0.476M8.788 12.728c0.081 0.085 0.15 0.186 0.254 0.246 0.205-0.057-0.019-0.245-0.043-0.36-0.072 0.035-0.142 0.074-0.211 0.114z"></path>
<path fill="#7f7f7f" d="M12.177 10.093c0.242-0.241 0.462-0.502 0.693-0.754 1.367 2.066 1.205 4.993-0.417 6.873-1.642 2.040-4.724 2.689-7.047 1.476 0.222-0.251 0.446-0.502 0.672-0.751 1.659 0.694 3.682 0.423 5.046-0.767-0.768-0.768-1.534-1.538-2.306-2.303 0.173-0.194 0.346-0.386 0.52-0.578 0.779 0.778 1.551 1.562 2.338 2.334 1.295-1.507 1.514-3.815 0.501-5.529z"></path>
<path fill="#7f7f7f" d="M4.334 9.634c0.592 0.565 1.16 1.154 1.74 1.73-0.824 0.905-1.618 1.837-2.457 2.727-0.502-1.492-0.262-3.21 0.717-4.458z"></path>
<path fill="#7f7f7f" d="M9.451 13.158c0.882-0.969 1.733-1.966 2.631-2.92 0.854 1.611 0.721 3.684-0.418 5.124-0.743-0.73-1.47-1.474-2.213-2.204z"></path>
<path fill="#7f7f7f" d="M6.466 11.502c0.168-0.192 0.338-0.382 0.505-0.575 0.118 0.106 0.235 0.212 0.355 0.314-0.198 0.184-0.374 0.39-0.55 0.595l-0.029-0.033c-0.090-0.103-0.186-0.202-0.282-0.302z"></path>
<path fill="#7f7f7f" d="M7.060 12.092c0.167-0.197 0.337-0.392 0.521-0.574 0.092 0.115 0.19 0.226 0.287 0.336-0.166 0.189-0.334 0.377-0.502 0.563-0.102-0.108-0.204-0.217-0.306-0.326z"></path>
<path fill="#7f7f7f" d="M3.81 14.471c0.845-0.948 1.695-1.891 2.537-2.843 0.109 0.113 0.218 0.224 0.328 0.335-0.912 0.958-1.75 1.984-2.666 2.938-0.062-0.146-0.131-0.287-0.199-0.43z"></path>
<path fill="#7f7f7f" d="M7.637 12.686c0.169-0.187 0.338-0.374 0.507-0.561 0.115 0.103 0.23 0.206 0.346 0.309-0.188 0.182-0.358 0.379-0.532 0.574-0.106-0.108-0.214-0.215-0.321-0.322z"></path>
<path fill="#7f7f7f" d="M4.242 15.222c0.917-0.985 1.797-2.005 2.699-3.003 0.101 0.11 0.202 0.22 0.302 0.33-0.906 1.016-1.804 2.040-2.726 3.041-0.087-0.126-0.182-0.247-0.275-0.368z"></path>
<path fill="#7f7f7f" d="M4.802 15.862c0.907-1.011 1.804-2.031 2.72-3.034 0.108 0.1 0.216 0.2 0.325 0.3-0.901 1.013-1.806 2.022-2.709 3.034-0.112-0.1-0.224-0.2-0.336-0.299z"></path>
<path fill="#7f7f7f" d="M5.452 16.382c0.888-0.994 1.778-1.986 2.664-2.982 0.108 0.107 0.216 0.215 0.325 0.322-0.87 0.956-1.721 1.931-2.591 2.888-0.133-0.076-0.265-0.152-0.398-0.228z"></path>
<path fill="#7f7f7f" d="M6.214 16.788c0.824-0.937 1.661-1.862 2.492-2.794 0.716 0.723 1.442 1.436 2.154 2.164-1.292 1.024-3.127 1.271-4.646 0.63z"></path>
<path fill="#7f7f7f" d="M2.971 15.408c0.233-0.262 0.468-0.522 0.702-0.783 0.078 0.143 0.155 0.286 0.234 0.429-0.234 0.237-0.45 0.493-0.676 0.738-0.087-0.128-0.174-0.255-0.261-0.383z"></path>
<path fill="#7f7f7f" d="M3.454 16.119c0.228-0.254 0.448-0.515 0.693-0.753 0.082 0.126 0.174 0.246 0.264 0.368-0.222 0.231-0.43 0.474-0.648 0.709-0.103-0.108-0.206-0.216-0.309-0.324z"></path>
<path fill="#7f7f7f" d="M4.038 16.721c0.214-0.245 0.43-0.488 0.648-0.728 0.112 0.098 0.225 0.196 0.337 0.294-0.218 0.25-0.439 0.498-0.66 0.745-0.108-0.104-0.217-0.207-0.325-0.31z"></path>
<path fill="#7f7f7f" d="M4.672 17.257c0.217-0.246 0.435-0.491 0.657-0.733 0.137 0.074 0.273 0.147 0.409 0.221-0.227 0.25-0.452 0.502-0.678 0.754-0.13-0.081-0.258-0.162-0.388-0.242z"></path>
<path fill="#f2f2f2" d="M11.028 8.958c0.063-0.258 0.277 0.048 0.377 0.126-0.106 0.25-0.305 0.026-0.377-0.126z"></path>
<path fill="#f0f0f0" d="M6.971 10.927c0.035-0.037 0.105-0.111 0.139-0.148 0.094 0.114 0.188 0.229 0.274 0.35l-0.058 0.113c-0.12-0.102-0.238-0.209-0.355-0.314z"></path>
<path fill="#ededed" d="M7.581 11.518c0.023-0.034 0.070-0.104 0.093-0.138 0.113 0.106 0.225 0.212 0.337 0.319-0.047 0.051-0.094 0.103-0.142 0.155-0.097-0.11-0.195-0.221-0.287-0.336z"></path>
<path fill="#ededed" d="M8.144 12.125c0.050-0.055 0.098-0.11 0.148-0.164 0.095 0.112 0.192 0.223 0.282 0.341-0.022 0.033-0.063 0.099-0.084 0.132-0.116-0.102-0.23-0.206-0.346-0.309z"></path>
<path fill="#f6f6f6" d="M8.788 12.728c0.069-0.040 0.139-0.078 0.211-0.114 0.024 0.115 0.248 0.303 0.043 0.36-0.105-0.060-0.174-0.162-0.254-0.246z"></path>
</svg>
