<!-- Generated by IcoMoon.io -->
<svg version="1.1" xmlns="http://www.w3.org/2000/svg" width="24" height="24" viewBox="0 0 24 24">
<title>regulatory--go-straight-or-turn-left--g1</title>
<path fill="#035ca1" d="M10.46 0h3.087c3.381 0.527 6.58 2.395 8.456 5.29 1.085 1.526 1.655 3.348 1.997 5.17v3.087c-0.642 4.579-3.998 8.681-8.47 9.974 0.015-5.196 0.007-10.393 0.022-15.59 0.841 0.022 1.68 0.051 2.521 0.049-1.271-2.327-2.576-4.635-3.861-6.953-1.282 2.283-2.512 4.597-3.758 6.901 0.849-0.003 1.699 0.003 2.549 0.045 0.014 1.639-0.026 3.279 0.051 4.918-1.236-0.802-2.781-0.318-4.16-0.465 0.003-0.911 0.048-1.821 0.041-2.732-2.309 1.34-4.603 2.71-6.887 4.092 2.277 1.333 4.552 2.666 6.832 3.989 0.007-0.883 0.001-1.765 0.036-2.648 1.005 0.022 2.011-0.016 3.014 0.029 0.717 0.026 1.17 0.769 1.152 1.433 0.015 2.469-0.001 4.94 0.004 7.41h-2.633c-3.382-0.527-6.581-2.395-8.458-5.291-1.085-1.526-1.655-3.346-1.997-5.169v-3.087c0.346-1.821 0.913-3.64 1.997-5.163 1.877-2.896 5.080-4.767 8.463-5.29z"></path>
<path fill="#fff" d="M10.454 7.928c1.245-2.304 2.475-4.618 3.758-6.901 1.285 2.318 2.589 4.626 3.861 6.953-0.841 0.001-1.68-0.027-2.521-0.049-0.015 5.198-0.007 10.394-0.022 15.59-0.651 0.221-1.332 0.325-2 0.479h-0.443c-0.005-2.47 0.011-4.941-0.004-7.41 0.018-0.664-0.435-1.407-1.152-1.433-1.004-0.045-2.009-0.007-3.014-0.029-0.034 0.883-0.029 1.765-0.036 2.648-2.281-1.323-4.556-2.656-6.832-3.989 2.285-1.382 4.578-2.752 6.887-4.092 0.007 0.911-0.038 1.821-0.041 2.732 1.378 0.147 2.924-0.337 4.16 0.465-0.077-1.639-0.037-3.279-0.051-4.918-0.85-0.043-1.701-0.048-2.549-0.045z"></path>
</svg>
