<!-- Generated by IcoMoon.io -->
<svg version="1.1" xmlns="http://www.w3.org/2000/svg" width="24" height="24" viewBox="0 0 24 24">
<title>regulatory--maximum-speed-limit-led-70--g1</title>
<path fill="#000" d="M0 0h11.031c-1.935 0.185-3.84 0.79-5.475 1.85-2.495 1.575-4.373 4.1-5.149 6.947-0.209 0.732-0.318 1.487-0.407 2.241v-11.038z"></path>
<path fill="#000" d="M12.96 0h11.040v11.033c-0.198-2.116-0.916-4.192-2.152-5.929-1.687-2.42-4.291-4.185-7.172-4.829-0.564-0.135-1.141-0.2-1.716-0.275z"></path>
<path fill="#000" d="M11.41 1.195c1.729-0.097 3.482 0.23 5.059 0.947 2.69 1.208 4.833 3.567 5.774 6.362 0.942 2.73 0.724 5.835-0.598 8.404-1.268 2.507-3.55 4.479-6.219 5.358-1.904 0.637-3.985 0.729-5.937 0.259-2.867-0.668-5.412-2.576-6.87-5.132-1.452-2.494-1.826-5.58-1.029-8.352 0.787-2.82 2.783-5.27 5.378-6.623 1.37-0.722 2.896-1.142 4.442-1.224M5.814 6.881c0.004 0.465 0.003 0.93 0 1.395 1.537-0.001 3.074-0.001 4.612 0-0.848 1.539-1.65 3.109-2.268 4.756-0.571 1.541-0.955 3.145-1.244 4.761 0.396-0.006 0.792-0.002 1.188-0.002 0.254-1.749 0.649-3.483 1.268-5.141 0.544-1.476 1.238-2.893 2.030-4.251 0.342-0.432 0.141-1.012 0.19-1.518-1.925-0.001-3.85-0-5.776-0M14.828 6.908c-0.868 0.177-1.467 0.952-1.777 1.736-0.439 1.206-0.547 2.504-0.555 3.779 0 1.101 0.063 2.214 0.349 3.282 0.193 0.69 0.487 1.387 1.027 1.878 0.803 0.737 2.18 0.715 2.953-0.055 0.508-0.49 0.791-1.163 0.979-1.832 0.283-1.049 0.346-2.143 0.345-3.225-0.006-1.076-0.080-2.163-0.367-3.204-0.178-0.628-0.423-1.264-0.882-1.742-0.518-0.559-1.335-0.776-2.072-0.615z"></path>
<path fill="#000" d="M15.113 8.141c0.623-0.135 1.187 0.335 1.405 0.887 0.489 1.155 0.495 2.441 0.5 3.675-0.009 0.873-0.057 1.753-0.255 2.606-0.12 0.477-0.286 0.974-0.65 1.322-0.393 0.385-1.079 0.431-1.501 0.070-0.401-0.34-0.578-0.861-0.708-1.353-0.262-1.095-0.277-2.229-0.263-3.349 0.029-0.861 0.086-1.733 0.341-2.562 0.171-0.555 0.502-1.187 1.131-1.296z"></path>
<path fill="#000" d="M0 12.969c0.085 0.675 0.173 1.353 0.348 2.012 0.697 2.761 2.424 5.24 4.758 6.868 1.738 1.237 3.817 1.956 5.936 2.151h-11.042v-11.031z"></path>
<path fill="#000" d="M23.715 14.715c0.141-0.578 0.208-1.17 0.285-1.759v11.043h-11.033c2.073-0.194 4.105-0.885 5.82-2.075 2.464-1.679 4.268-4.301 4.929-7.21z"></path>
<path fill="#f00" d="M11.031 0h1.929c0.574 0.075 1.151 0.139 1.716 0.275 2.881 0.644 5.485 2.409 7.172 4.829 1.236 1.737 1.953 3.813 2.152 5.929v1.924c-0.076 0.589-0.143 1.18-0.285 1.759-0.661 2.909-2.466 5.531-4.929 7.21-1.715 1.19-3.746 1.881-5.82 2.075h-1.924c-2.119-0.195-4.198-0.914-5.936-2.151-2.334-1.627-4.061-4.107-4.758-6.868-0.176-0.66-0.263-1.337-0.348-2.012v-1.931c0.089-0.754 0.198-1.509 0.407-2.241 0.776-2.848 2.655-5.372 5.149-6.947 1.635-1.060 3.54-1.665 5.475-1.85M11.41 1.195c-1.546 0.083-3.073 0.502-4.442 1.224-2.595 1.353-4.591 3.803-5.378 6.622-0.797 2.772-0.423 5.858 1.029 8.352 1.458 2.556 4.003 4.464 6.87 5.132 1.952 0.47 4.033 0.377 5.937-0.259 2.669-0.878 4.951-2.851 6.219-5.358 1.322-2.568 1.54-5.674 0.598-8.404-0.941-2.795-3.084-5.154-5.774-6.362-1.577-0.717-3.33-1.044-5.059-0.947z"></path>
<path fill="#fff" d="M5.814 6.881c1.926 0 3.851-0 5.776 0-0.049 0.506 0.152 1.087-0.19 1.518-0.792 1.358-1.486 2.775-2.030 4.251-0.618 1.658-1.013 3.392-1.268 5.141-0.396 0-0.792-0.004-1.188 0.002 0.289-1.616 0.673-3.22 1.244-4.761 0.618-1.647 1.42-3.218 2.268-4.756-1.537-0.001-3.075-0.001-4.612 0 0.002-0.465 0.003-0.93-0-1.395z"></path>
<path fill="#fff" d="M14.828 6.908c0.737-0.161 1.553 0.056 2.072 0.615 0.459 0.478 0.705 1.115 0.882 1.742 0.286 1.042 0.36 2.128 0.367 3.204 0.001 1.082-0.062 2.176-0.345 3.225-0.188 0.669-0.471 1.342-0.979 1.832-0.773 0.771-2.151 0.792-2.953 0.055-0.54-0.491-0.834-1.188-1.027-1.878-0.286-1.068-0.348-2.181-0.349-3.282 0.008-1.275 0.116-2.572 0.555-3.779 0.31-0.784 0.909-1.56 1.777-1.736M15.113 8.141c-0.629 0.109-0.96 0.741-1.131 1.296-0.255 0.828-0.312 1.701-0.341 2.562-0.014 1.119 0.001 2.254 0.263 3.349 0.13 0.492 0.307 1.013 0.708 1.353 0.423 0.361 1.109 0.315 1.501-0.070 0.364-0.348 0.53-0.845 0.65-1.322 0.198-0.853 0.245-1.733 0.255-2.606-0.005-1.234-0.011-2.52-0.5-3.675-0.218-0.552-0.782-1.022-1.405-0.887z"></path>
</svg>
