<!-- Generated by IcoMoon.io -->
<svg version="1.1" xmlns="http://www.w3.org/2000/svg" width="24" height="24" viewBox="0 0 24 24">
<title>regulatory--end-of-maximum-speed-limit-60--g1</title>
<path fill="#fff" d="M11.101 0h1.819c1.772 0.157 3.521 0.668 5.061 1.569 2.492 1.421 4.441 3.765 5.378 6.477 0.349 0.985 0.544 2.018 0.642 3.057v1.814c-0.158 1.773-0.668 3.523-1.57 5.063-1.537 2.7-4.162 4.758-7.156 5.593-0.765 0.224-1.554 0.341-2.345 0.428h-1.848c-1.727-0.152-3.428-0.646-4.942-1.499-2.643-1.473-4.697-3.974-5.604-6.864-0.285-0.877-0.44-1.79-0.536-2.705v-1.853c0.096-0.956 0.264-1.909 0.57-2.822 0.864-2.66 2.697-4.987 5.072-6.461 1.636-1.036 3.533-1.635 5.459-1.795M11.366 0.596c-3.589 0.166-7.020 2.172-8.953 5.195-0.929 1.426-1.529 3.065-1.745 4.753-0.422 3.179 0.578 6.513 2.693 8.924 1.761 2.053 4.276 3.439 6.952 3.831 1.783 0.264 3.63 0.107 5.338-0.475 2.805-0.934 5.203-3.014 6.533-5.654 1.563-3.029 1.649-6.766 0.229-9.864-1.189-2.661-3.44-4.823-6.146-5.903-1.547-0.626-3.235-0.904-4.902-0.806z"></path>
<path fill="#fff" d="M6.139 2.905c2.085-1.357 4.652-1.951 7.121-1.652 1.699 0.193 3.348 0.803 4.766 1.758-0.908 0.871-1.767 1.8-2.687 2.653-1.188 0.315-2.259 1.266-2.5 2.503-0.982 1.038-2.021 2.033-3.029 3.051-0.724-0.385-1.603-0.458-2.384-0.21 0.884-1.781 1.777-3.558 2.655-5.342-0.699-0-1.398-0.012-2.097 0.006-1.118 2.22-2.221 4.447-3.334 6.669-0.688 1.279-0.784 2.889-0.18 4.218-0.482 0.493-0.98 0.97-1.458 1.468-1.559-2.3-2.166-5.216-1.662-7.948 0.508-2.919 2.293-5.581 4.789-7.173z"></path>
<path fill="#fff" d="M16.36 5.523c0.719-0.72 1.436-1.444 2.161-2.158 0.075 0.059 0.152 0.117 0.23 0.173-0.655 0.679-1.328 1.344-2.002 2.006-0.13-0.009-0.26-0.015-0.389-0.022z"></path>
<path fill="#fff" d="M17.467 5.686c0.585-0.582 1.165-1.17 1.753-1.749 0.075 0.065 0.146 0.133 0.216 0.203-0.552 0.556-1.11 1.106-1.66 1.664l-0.015-0.007c-0.097-0.040-0.195-0.077-0.293-0.111z"></path>
<path fill="#fff" d="M18.339 6.087c0.506-0.508 1.012-1.015 1.521-1.521 0.071 0.069 0.139 0.141 0.201 0.218-0.489 0.493-0.981 0.985-1.474 1.474-0.081-0.060-0.164-0.117-0.248-0.172z"></path>
<path fill="#fff" d="M19.055 6.645c0.469-0.465 0.928-0.941 1.406-1.397 0.057 0.078 0.115 0.155 0.174 0.231-0.458 0.469-0.925 0.93-1.389 1.393-0.063-0.076-0.126-0.152-0.191-0.227z"></path>
<path fill="#fff" d="M19.587 7.387c0.464-0.474 0.943-0.934 1.403-1.412 1.861 2.739 2.341 6.35 1.266 9.48-0.947 2.857-3.154 5.263-5.916 6.46-3.315 1.481-7.364 1.121-10.363-0.925 0.873-0.836 1.696-1.74 2.588-2.548 0.634-0.122 1.216-0.447 1.715-0.85 0.572-0.473 0.912-1.181 1.035-1.904 0.428-0.5 0.935-0.946 1.394-1.424-0.023 0.983 0.059 2.048 0.694 2.85 0.977 1.259 2.791 1.748 4.275 1.176 0.808-0.315 1.55-0.886 1.938-1.677 0.276-0.556 0.375-1.184 0.374-1.8 0-1.86 0-3.719 0-5.578 0.001-0.635-0.111-1.28-0.403-1.848z"></path>
<path fill="#fff" d="M15.615 7.548c0.158-0.067 0.329-0.096 0.501-0.096-0.487 0.503-0.986 0.996-1.485 1.488 0.030-0.185 0.069-0.369 0.137-0.545 0.273-0.291 0.556-0.574 0.847-0.848z"></path>
<path fill="#fff" d="M14.595 9.838c0.776-0.791 1.562-1.572 2.35-2.352 0.095 0.044 0.19 0.089 0.285 0.135-0.874 0.873-1.749 1.746-2.62 2.622-0.003-0.127-0.006-0.254-0.013-0.381l-0.001-0.023z"></path>
<path fill="#fff" d="M14.6 11.103c1.031-1.037 2.066-2.070 3.102-3.103 0.055 0.083 0.11 0.167 0.165 0.252-1.079 1.081-2.156 2.163-3.241 3.238-0.014-0.129-0.023-0.258-0.025-0.387z"></path>
<path fill="#fff" d="M14.596 12.38c1.157-1.166 2.321-2.326 3.485-3.487 0.045 1.91 0.007 3.821 0.020 5.732 0.018 0.522-0.088 1.081-0.449 1.479-0.531 0.595-1.477 0.686-2.17 0.341-0.543-0.274-0.84-0.878-0.866-1.469-0.030-0.857 0.006-1.715-0.018-2.572l-0.001-0.024z"></path>
<path fill="#fff" d="M10.319 11.563c0.794-0.793 1.584-1.589 2.38-2.378 0.004 0.129 0.015 0.259 0.023 0.388-0.715 0.732-1.447 1.449-2.168 2.175-0.076-0.065-0.155-0.127-0.235-0.186z"></path>
<path fill="#fff" d="M10.924 12.231c0.59-0.594 1.184-1.184 1.774-1.777 0.012 0.135 0.016 0.271 0.015 0.408-0.543 0.548-1.092 1.091-1.636 1.639-0.052-0.090-0.103-0.18-0.153-0.27z"></path>
<path fill="#fff" d="M12.702 11.728c0.004 0.135 0.011 0.27 0.012 0.405-0.447 0.452-0.901 0.898-1.347 1.351-0.024-0.112-0.051-0.223-0.084-0.332 0.463-0.484 0.943-0.953 1.419-1.425z"></path>
<path fill="#fff" d="M6.394 13.145c0.471-0.568 1.303-0.716 1.985-0.496-0.797 0.798-1.59 1.601-2.395 2.39-0.061-0.646-0.017-1.369 0.41-1.893z"></path>
<path fill="#fff" d="M6.152 15.729c0.926-0.923 1.847-1.852 2.776-2.773 0.065 0.075 0.131 0.148 0.197 0.221-0.946 0.942-1.885 1.892-2.835 2.83-0.046-0.093-0.092-0.186-0.138-0.278z"></path>
<path fill="#fff" d="M12.703 13.001c0.008 0.133 0.011 0.267 0.012 0.4-0.42 0.428-0.847 0.849-1.271 1.274-0.004-0.131-0.009-0.261-0.018-0.391 0.415-0.437 0.848-0.858 1.277-1.283z"></path>
<path fill="#fff" d="M6.726 16.43c0.894-0.9 1.793-1.794 2.689-2.691 0.031 0.105 0.062 0.21 0.088 0.317-0.812 0.85-1.66 1.672-2.492 2.505-0.096-0.043-0.191-0.087-0.285-0.131z"></path>
<path fill="#fff" d="M9.517 14.913c-0.011 0.155-0.025 0.31-0.056 0.463-0.41 0.422-0.819 0.855-1.256 1.245-0.15 0.027-0.302 0.040-0.453 0.058 0.585-0.592 1.172-1.181 1.765-1.765z"></path>
<path fill="#fff" d="M3.366 18.521c0.469-0.482 0.952-0.952 1.425-1.431 0.065 0.076 0.129 0.151 0.195 0.226-0.477 0.479-0.957 0.954-1.432 1.435-0.073-0.068-0.127-0.153-0.188-0.23z"></path>
<path fill="#fff" d="M3.939 19.217c0.489-0.499 0.989-0.989 1.48-1.485 0.078 0.063 0.159 0.124 0.241 0.182-0.506 0.508-1.012 1.014-1.52 1.52-0.071-0.068-0.139-0.14-0.202-0.216z"></path>
<path fill="#fff" d="M4.567 19.86c0.545-0.547 1.089-1.095 1.638-1.636 0.096 0.046 0.192 0.091 0.288 0.135-0.572 0.565-1.138 1.138-1.709 1.705-0.075-0.065-0.148-0.134-0.217-0.204z"></path>
<path fill="#fff" d="M5.249 20.45c0.652-0.644 1.29-1.302 1.949-1.938 0.116 0.022 0.232 0.042 0.349 0.063-0.69 0.686-1.372 1.379-2.066 2.061-0.079-0.060-0.158-0.119-0.232-0.185z"></path>
<path fill="#000" d="M11.366 0.596c1.666-0.098 3.354 0.18 4.902 0.806 2.706 1.080 4.957 3.243 6.146 5.903 1.42 3.098 1.334 6.836-0.229 9.864-1.33 2.64-3.728 4.72-6.533 5.654-1.708 0.582-3.555 0.739-5.338 0.475-2.676-0.391-5.191-1.777-6.952-3.831-2.116-2.411-3.115-5.745-2.693-8.924 0.216-1.688 0.816-3.327 1.745-4.753 1.934-3.023 5.364-5.029 8.953-5.195M6.139 2.905c-2.496 1.592-4.281 4.254-4.789 7.173-0.504 2.731 0.103 5.648 1.662 7.948 0.478-0.497 0.975-0.975 1.458-1.468 0.505-0.505 1.021-1.009 1.514-1.52 0.805-0.789 1.598-1.592 2.395-2.39 0.48-0.474 0.956-0.952 1.431-1.431 1.008-1.018 2.047-2.013 3.029-3.051 0.852-0.812 1.692-1.647 2.5-2.503 0.921-0.853 1.78-1.781 2.687-2.653-1.418-0.955-3.067-1.566-4.766-1.758-2.469-0.299-5.036 0.294-7.121 1.652M16.36 5.523l-0.004-0c-1.216 1.224-2.443 2.439-3.657 3.663-0.796 0.789-1.587 1.585-2.38 2.378-0.464 0.465-0.93 0.926-1.391 1.393-0.929 0.921-1.85 1.849-2.776 2.773-0.453 0.454-0.908 0.908-1.361 1.361-0.473 0.479-0.956 0.949-1.425 1.431 0.061 0.077 0.115 0.162 0.188 0.23 0.475-0.48 0.955-0.956 1.432-1.435 0.437-0.433 0.868-0.872 1.307-1.303l-0.003-0.006c0.95-0.938 1.889-1.888 2.835-2.83 0.476-0.477 0.952-0.953 1.429-1.429 0.721-0.727 1.453-1.444 2.168-2.175 1.348-1.337 2.693-2.679 4.027-4.029 0.674-0.662 1.347-1.327 2.002-2.006-0.078-0.057-0.154-0.114-0.23-0.173-0.726 0.714-1.442 1.438-2.161 2.158M17.467 5.686c-0.615 0.622-1.245 1.232-1.852 1.862-0.291 0.274-0.574 0.557-0.847 0.848-0.7 0.675-1.378 1.375-2.070 2.059-0.591 0.593-1.185 1.182-1.774 1.777-0.504 0.501-1.006 1.005-1.509 1.508-0.897 0.897-1.795 1.792-2.689 2.691-0.438 0.432-0.87 0.87-1.306 1.302-0.492 0.497-0.991 0.986-1.48 1.485 0.063 0.076 0.13 0.148 0.202 0.216 0.508-0.505 1.014-1.012 1.52-1.52 0.451-0.45 0.904-0.897 1.35-1.353 0.832-0.833 1.68-1.655 2.492-2.505 0.542-0.499 1.046-1.041 1.574-1.555 0.544-0.548 1.093-1.091 1.636-1.639 0.64-0.639 1.285-1.277 1.919-1.922 0.498-0.493 0.998-0.985 1.485-1.488 0.55-0.541 1.116-1.087 1.644-1.655l0.015 0.007c0.55-0.557 1.108-1.107 1.66-1.664-0.070-0.070-0.141-0.138-0.216-0.203-0.588 0.579-1.168 1.167-1.753 1.749M18.339 6.087c-0.466 0.465-0.936 0.927-1.395 1.399-0.788 0.78-1.574 1.561-2.35 2.352l0.001 0.023c-0.658 0.585-1.265 1.245-1.894 1.866-0.476 0.472-0.956 0.94-1.419 1.425-0.598 0.577-1.184 1.171-1.766 1.761-0.593 0.584-1.181 1.173-1.765 1.765-0.519 0.51-1.035 1.028-1.547 1.546-0.549 0.542-1.093 1.090-1.638 1.636 0.070 0.070 0.143 0.139 0.218 0.204 0.57-0.568 1.136-1.14 1.709-1.705 0.564-0.586 1.167-1.137 1.712-1.739 0.437-0.39 0.847-0.823 1.256-1.245 0.647-0.618 1.266-1.266 1.906-1.891 0.446-0.453 0.9-0.899 1.347-1.351 0.633-0.629 1.26-1.263 1.894-1.89 0.871-0.876 1.747-1.748 2.62-2.622 0.452-0.455 0.908-0.906 1.359-1.362 0.493-0.489 0.984-0.981 1.474-1.474-0.062-0.077-0.13-0.15-0.201-0.218-0.509 0.506-1.015 1.013-1.521 1.521M19.055 6.645c-0.452 0.45-0.905 0.901-1.354 1.355-1.035 1.033-2.071 2.066-3.102 3.103-0.637 0.626-1.261 1.264-1.898 1.89l0 0.008c-0.428 0.425-0.862 0.846-1.277 1.283-1.419 1.399-2.827 2.811-4.229 4.227-0.659 0.637-1.297 1.295-1.949 1.938 0.074 0.066 0.152 0.126 0.232 0.185 0.694-0.682 1.376-1.375 2.066-2.061l0.007 0.001c1.29-1.306 2.592-2.6 3.892-3.897l-0-0.004c0.424-0.424 0.851-0.846 1.271-1.274 0.638-0.634 1.283-1.274 1.91-1.912 1.085-1.075 2.162-2.157 3.241-3.238 0.462-0.458 0.922-0.918 1.38-1.38 0.464-0.463 0.931-0.923 1.389-1.393-0.060-0.076-0.118-0.153-0.174-0.231-0.478 0.456-0.937 0.932-1.406 1.397M19.587 7.387c-0.504 0.5-1.007 1.002-1.507 1.507-1.163 1.161-2.327 2.321-3.485 3.487l0.001 0.024c-0.656 0.588-1.256 1.244-1.889 1.86-0.459 0.478-0.966 0.924-1.394 1.424-0.209 0.141-0.362 0.347-0.548 0.517-0.728 0.751-1.506 1.461-2.203 2.237-0.892 0.808-1.715 1.711-2.588 2.548 2.999 2.046 7.049 2.407 10.363 0.925 2.762-1.197 4.969-3.602 5.916-6.46 1.076-3.131 0.595-6.742-1.266-9.48-0.46 0.478-0.938 0.938-1.402 1.412z"></path>
<path fill="#808080" d="M16.356 5.522l0.004 0c0.129 0.007 0.259 0.013 0.389 0.022-1.335 1.35-2.679 2.692-4.028 4.029-0.008-0.129-0.019-0.259-0.023-0.388 1.215-1.223 2.441-2.438 3.657-3.663z"></path>
<path fill="#808080" d="M7.985 5.671c0.698-0.017 1.398-0.006 2.097-0.006-0.878 1.784-1.771 3.561-2.655 5.342 0.78-0.248 1.659-0.174 2.384 0.21-0.475 0.479-0.952 0.957-1.431 1.431-0.683-0.22-1.514-0.072-1.985 0.496-0.427 0.524-0.471 1.247-0.41 1.893-0.493 0.511-1.009 1.014-1.514 1.52-0.603-1.328-0.507-2.939 0.18-4.218 1.113-2.222 2.216-4.45 3.334-6.669z"></path>
<path fill="#808080" d="M12.839 8.167c0.241-1.237 1.313-2.187 2.5-2.503-0.809 0.855-1.649 1.69-2.5 2.503z"></path>
<path fill="#808080" d="M15.615 7.548c0.607-0.63 1.236-1.239 1.852-1.862 0.098 0.034 0.196 0.071 0.293 0.111-0.528 0.568-1.094 1.113-1.644 1.655-0.172 0-0.342 0.029-0.501 0.096z"></path>
<path fill="#808080" d="M16.944 7.486c0.459-0.472 0.929-0.934 1.395-1.399 0.084 0.054 0.167 0.112 0.248 0.172-0.451 0.456-0.907 0.907-1.359 1.362-0.094-0.046-0.189-0.090-0.285-0.135z"></path>
<path fill="#808080" d="M17.701 8c0.449-0.454 0.901-0.905 1.354-1.355 0.065 0.075 0.128 0.15 0.191 0.227-0.458 0.462-0.918 0.923-1.38 1.38-0.055-0.084-0.11-0.168-0.165-0.252z"></path>
<path fill="#808080" d="M18.081 8.893c0.5-0.505 1.002-1.006 1.507-1.507 0.292 0.569 0.404 1.213 0.403 1.848 0 1.859 0 3.718 0 5.578 0 0.616-0.098 1.244-0.374 1.8-0.388 0.79-1.13 1.361-1.938 1.677-1.484 0.572-3.298 0.083-4.275-1.176-0.636-0.802-0.717-1.867-0.694-2.85 0.633-0.616 1.233-1.272 1.889-1.86 0.024 0.857-0.011 1.716 0.018 2.572 0.026 0.591 0.323 1.195 0.866 1.469 0.694 0.345 1.639 0.254 2.17-0.341 0.361-0.398 0.467-0.957 0.449-1.479-0.013-1.911 0.025-3.822-0.020-5.732z"></path>
<path fill="#808080" d="M12.698 10.454c0.692-0.684 1.37-1.383 2.070-2.059-0.067 0.175-0.106 0.36-0.137 0.545-0.633 0.645-1.278 1.283-1.919 1.922 0.001-0.136-0.002-0.272-0.015-0.408z"></path>
<path fill="#808080" d="M12.702 11.728c0.629-0.621 1.236-1.281 1.894-1.866 0.007 0.127 0.010 0.254 0.013 0.381-0.634 0.628-1.261 1.262-1.894 1.89-0.001-0.135-0.008-0.27-0.012-0.405z"></path>
<path fill="#808080" d="M12.702 12.993c0.637-0.626 1.26-1.264 1.898-1.89 0.003 0.129 0.012 0.258 0.025 0.387-0.627 0.638-1.272 1.277-1.91 1.912-0.001-0.134-0.004-0.267-0.012-0.4l-0-0.008z"></path>
<path fill="#808080" d="M8.928 12.956c0.46-0.467 0.927-0.929 1.391-1.393 0.081 0.059 0.159 0.121 0.235 0.186-0.477 0.476-0.953 0.952-1.429 1.429-0.067-0.073-0.132-0.147-0.197-0.221z"></path>
<path fill="#808080" d="M9.415 13.739c0.503-0.503 1.005-1.007 1.509-1.508 0.050 0.090 0.101 0.18 0.153 0.27-0.528 0.514-1.032 1.056-1.574 1.555-0.026-0.107-0.057-0.212-0.088-0.317z"></path>
<path fill="#808080" d="M9.517 14.913c0.583-0.589 1.168-1.184 1.766-1.761 0.033 0.109 0.060 0.22 0.084 0.332-0.64 0.626-1.259 1.273-1.906 1.891 0.030-0.152 0.045-0.308 0.056-0.463z"></path>
<path fill="#808080" d="M7.197 18.511c1.402-1.417 2.81-2.828 4.229-4.227 0.009 0.13 0.015 0.26 0.018 0.391l0 0.004c-1.299 1.297-2.602 2.591-3.892 3.897l-0.007-0.001c-0.116-0.021-0.233-0.041-0.349-0.063z"></path>
<path fill="#808080" d="M4.791 17.090c0.454-0.453 0.908-0.907 1.361-1.361 0.046 0.093 0.092 0.186 0.138 0.278l0.003 0.006c-0.439 0.431-0.87 0.87-1.307 1.303-0.066-0.075-0.13-0.15-0.195-0.226z"></path>
<path fill="#808080" d="M10.767 16.204c0.185-0.169 0.338-0.375 0.548-0.517-0.123 0.723-0.463 1.431-1.035 1.904-0.499 0.403-1.081 0.728-1.715 0.85 0.697-0.777 1.475-1.486 2.203-2.237z"></path>
<path fill="#808080" d="M5.42 17.732c0.436-0.433 0.868-0.87 1.306-1.302 0.094 0.045 0.189 0.089 0.285 0.131-0.445 0.456-0.899 0.903-1.35 1.353-0.083-0.058-0.163-0.119-0.241-0.182z"></path>
<path fill="#808080" d="M6.205 18.224c0.512-0.518 1.028-1.036 1.547-1.546 0.151-0.017 0.303-0.030 0.453-0.058-0.546 0.602-1.148 1.153-1.712 1.739-0.096-0.044-0.192-0.089-0.288-0.135z"></path>
</svg>
