<svg xmlns="http://www.w3.org/2000/svg" width="24" height="24">
    <path fill="#c1121c" d="M10.967 0h2.042c1.426.224 2.862.52 4.159 1.177 3.841 1.777 6.461 5.711 6.832 9.902v1.822c-.356 4.045-2.791 7.867-6.431 9.718-1.398.78-2.975 1.134-4.542 1.381h-2.034c-1.456-.229-2.924-.533-4.243-1.217C2.953 20.991.37 17.084 0 12.925v-1.829c.36-4.23 3.026-8.194 6.911-9.959C8.179.506 9.58.227 10.967-.001zm.001 3.18c-4.264.403-7.829 4.294-7.843 8.579-.194 4.024 2.735 7.885 6.636 8.84 2.629.685 5.561.102 7.693-1.592 2.875-2.174 4.144-6.192 3.035-9.624-1.156-3.996-5.39-6.775-9.521-6.203z"/>
    <path fill="#f7fbf5" d="M10.968 3.18c4.13-.572 8.365 2.207 9.521 6.203 1.109 3.432-.16 7.45-3.035 9.624-2.132 1.694-5.064 2.278-7.693 1.592-3.901-.955-6.83-4.817-6.636-8.84.014-4.285 3.58-8.176 7.843-8.579zM9.125 5.149c-.514.72-.466 1.829-1.322 2.297-.005.63-.004 1.26 0 1.89.198.215.394.432.595.643.001.446 0 .893.02 1.339.356.016.713.016 1.07.001.014-.467.014-.932.014-1.399h5.122c-.001.467-.002.934.024 1.399.355.014.71.014 1.067-.001.022-.445.02-.89.022-1.337.875-.575.534-1.663.587-2.54-.864-.462-.792-1.618-1.339-2.288a17.95 17.95 0 0 0-5.86-.004zm1.712 7.36c.185.025.37.041.557.05-.004.073-.008.218-.011.292l-.5.011.005.432c.252 0 .504 0 .756-.012-.577.572-1.108 1.19-1.652 1.793l.323.304c.43-.384.858-.768 1.292-1.146.284.304.571.605.856.907-.482.24-1.592.088-1.483.864.5.697 1.188 1.246 1.77 1.876.098-.164.199-.33.299-.494-.372-.425-.743-.851-1.109-1.28.572-.02 1.152.052 1.718-.041.422-.233.401-.826.13-1.168-.402-.556-.796-1.121-1.235-1.648-.259-.317-.673-.028-1.008-.114.235-.095.475-.178.718-.252.226-.478-.04-1.151-.619-1.158-.468-.047-.7.407-.805.785zm-1.806 3.609c-.689.188-1.17.913-1.073 1.621.068.794.854 1.427 1.645 1.328.857-.056 1.525-.948 1.336-1.788-.137-.85-1.09-1.429-1.908-1.162zm5.281.003c-1.015.263-1.423 1.662-.707 2.429.709.908 2.334.559 2.596-.566.371-1.088-.799-2.251-1.889-1.862z"/>
    <path fill="#f7fbf5" d="M9.349 5.593c1.8-.289 3.63-.287 5.429-.001.191.485.383.97.571 1.454a44.884 44.884 0 0 0-6.57 0c.188-.485.382-.968.57-1.453zM8.242 7.651a31.67 31.67 0 0 1 1.51-.004c.104.336.19.678.258 1.024-.589.036-1.181.032-1.77.007-.007-.342-.006-.685.002-1.027zM14.377 7.65a27.293 27.293 0 0 1 1.514 0c.01.343.01.686 0 1.03a16.33 16.33 0 0 1-1.77-.011c.07-.343.155-.683.256-1.019zM9.29 16.618c.66-.142 1.292.55 1.092 1.195-.152.701-1.142.96-1.618.422-.545-.506-.214-1.529.526-1.618zM14.68 16.606c1.268-.148 1.355 1.962.08 1.921-1.204.077-1.283-1.897-.08-1.921z"/>
    <path fill="#2a2d2f" d="M9.125 5.149a17.95 17.95 0 0 1 5.86.004c.547.671.475 1.826 1.339 2.288-.053.877.288 1.966-.587 2.54-.001.446 0 .892-.022 1.337-.356.016-.712.016-1.067.001-.026-.466-.025-.932-.024-1.399a4372.48 4372.48 0 0 0-5.122 0c0 .467 0 .932-.014 1.399-.358.014-.714.014-1.07-.001-.02-.446-.019-.893-.02-1.339-.202-.211-.397-.428-.595-.643-.004-.63-.005-1.26 0-1.89.857-.468.809-1.577 1.322-2.297zm.224.444c-.188.485-.382.968-.57 1.453a44.884 44.884 0 0 1 6.57 0c-.188-.485-.38-.97-.571-1.454a17.194 17.194 0 0 0-5.429.001zM8.242 7.651c-.008.342-.01.685-.002 1.027.589.025 1.181.029 1.77-.007a9.959 9.959 0 0 0-.258-1.024 29.234 29.234 0 0 0-1.51.004zm6.135-.001c-.101.336-.186.676-.256 1.019.589.04 1.181.035 1.77.011.01-.343.01-.686 0-1.03a27.293 27.293 0 0 0-1.514 0zM10.837 12.509c.106-.378.337-.832.805-.785.58.007.845.68.619 1.158a8.857 8.857 0 0 0-.718.252c.335.086.749-.203 1.008.114.439.527.833 1.092 1.235 1.648.271.342.293.935-.13 1.168-.566.092-1.146.02-1.718.041.366.43.737.856 1.109 1.28l-.299.494c-.582-.63-1.27-1.178-1.77-1.876-.109-.776 1.001-.624 1.483-.864l-.856-.907c-.434.378-.863.762-1.292 1.146l-.323-.304c.545-.602 1.075-1.22 1.652-1.793-.252.012-.504.012-.756.012l-.005-.432.5-.011c.002-.073.007-.218.011-.292a6.898 6.898 0 0 1-.557-.05zM9.031 16.118c.818-.268 1.771.312 1.908 1.162.19.84-.479 1.732-1.336 1.788-.791.098-1.577-.534-1.645-1.328-.097-.708.384-1.433 1.073-1.621zm.259.5c-.739.089-1.07 1.111-.526 1.618.475.538 1.465.278 1.618-.422.2-.646-.432-1.337-1.092-1.195z"/>
    <path fill="#2a2d2f" d="M14.312 16.121c1.09-.389 2.26.774 1.889 1.862-.262 1.126-1.886 1.475-2.596.566-.716-.767-.308-2.166.707-2.429zm.368.485c-1.202.024-1.123 1.998.08 1.921 1.274.041 1.188-2.069-.08-1.921z"/>
</svg>
