<svg xmlns="http://www.w3.org/2000/svg" width="24" height="24">
    <path fill="#ea2d2e" d="M10.988 0h1.981c1.45.209 2.902.52 4.222 1.175C21.093 3.01 23.779 7.068 24 11.37v1.252c-.197 3.301-1.771 6.5-4.334 8.6-1.872 1.583-4.238 2.485-6.658 2.778h-1.976c-1.386-.196-2.772-.492-4.04-1.103C3.094 21.164.409 17.226.001 13.005v-1.972C.38 6.828 3.036 2.905 6.888 1.134 8.174.508 9.584.214 10.99-.001zM6.064 4.441c1.49 1.451 2.938 2.947 4.428 4.399a334.448 334.448 0 0 0 4.04 4.039c.151.002.302.006.455.01-.121.025-.242.052-.362.078 1.622 1.673 3.298 3.294 4.93 4.957 1.79-2.274 2.472-5.369 1.775-8.18-.593-2.52-2.267-4.752-4.505-6.048-3.301-1.967-7.759-1.654-10.76.745zm-3.371 9.915c.61 2.453 2.243 4.622 4.42 5.903 3.276 2.002 7.72 1.714 10.74-.646a5306.24 5306.24 0 0 0-5.809-5.814c-.155-.152-.311-.305-.467-.455l-.13-.008.041-.064c-.019-.176-.118-.266-.294-.271l-.06.047c-.038-.223-.221-.377-.365-.535-1.237-1.212-2.45-2.447-3.679-3.667-.901-.905-1.806-1.807-2.708-2.71-1.765 2.302-2.419 5.408-1.688 8.22z"/>
    <path fill="#fff" d="M6.064 4.441c3.001-2.399 7.459-2.712 10.76-.745 2.238 1.296 3.912 3.528 4.505 6.048.697 2.812.016 5.906-1.775 8.18-1.632-1.663-3.307-3.284-4.93-4.957.12-.026.241-.053.362-.078l.05-.005c-.058-1.348-.011-2.696-.026-4.044h-4.519c-1.49-1.452-2.938-2.948-4.428-4.399zm6.32-.599c.14.254.46.158.697.199l-.004.191c-.677-.031-1.436-.115-1.835.558-.724-.485-1.828-.301-2.214.522-.577 1 .407 2.354 1.536 2.116 1.082-.137 1.576-1.501.958-2.36l.449-.437c.43 0 .858-.002 1.288.018-.355.37-.734.802-.696 1.352-.022.948 1.022 1.7 1.915 1.375.901-.259 1.318-1.456.764-2.216-.36-.589-1.1-.713-1.734-.611-.031-.295-.042-.59-.056-.886-.349.014-.862-.196-1.068.179zm3.067 5.602c-.139 1.141-.018 2.315-.059 3.469.353-.001.704-.001 1.057-.007.362-.479 1.03-.457 1.394.005.506.001 1.013.002 1.518 0-.07-.377.176-.955-.222-1.187-.772-.092-1.556.038-2.328-.061-.265-.307-.275-.94.002-1.238.763-.096 1.537-.01 2.305-.047-.272-.889-1.226-1.223-2.08-1.092-.515.076-1.158-.168-1.589.158zm-.133 3.908c.091.314.326.486.655.486.48.922 1.886.914 2.338-.029.426-.01 1.021.11 1.111-.461-.494-.031-.99-.017-1.484-.028-.14.898-1.45.908-1.585.001-.344.004-.69.007-1.034.03z"/>
    <path fill="#fff" d="M9.358 5.534c.262-.629 1.04-.748 1.608-.486-.212.372-1.118.775-.648 1.164.355-.241.629-.578.947-.863.314.619.072 1.494-.652 1.668-.83.274-1.658-.71-1.255-1.483zM13.729 4.898c.67-.101 1.406.379 1.372 1.102.025.859-1.112 1.396-1.751.812-.562-.43-.462-1.264.006-1.723.181.322.322.665.511.982.06.245.514.016.322-.182-.134-.338-.312-.658-.46-.99zM2.693 14.356c-.731-2.812-.077-5.918 1.688-8.22.902.902 1.807 1.805 2.708 2.71-.616.109-1.968-.397-1.9.62-.002 1.055-.002 2.111.005 3.166l-.287.143c.001.349.007.698.022 1.048.526.013 1.051.011 1.577.011.487.856 1.735.94 2.304.122.571.826 1.844.726 2.309-.155l.924-.001a5306.24 5306.24 0 0 1 5.809 5.814c-3.02 2.359-7.464 2.647-10.74.646-2.177-1.28-3.81-3.45-4.42-5.903zm9.335 1.287c-.322.572.581.427.911.44.034.055.1.163.132.218-.692.016-1.532-.181-1.951.532-.912.034-1.829-.044-2.737.052-.007.425-.02.864.22 1.236-.089.577-.066 1.25.427 1.652.68.686 1.994.45 2.354-.458.246-.829 1.025-1.313 1.54-1.966-.217.002-.434.005-.652.011-.148.136-.296.269-.449.4-.215-.298.144-.496.308-.702.431.005.872.028 1.283-.13l.161.344c-.913.59-.971 2.077-.014 2.654.93.691 2.402-.052 2.425-1.202.102-1.042-.966-1.871-1.96-1.651-.289-.475-.47-1.033-.845-1.447a3.715 3.715 0 0 0-1.153.017z"/>
    <path fill="#fff" d="M7.602 12.54c.53-.088 1.007.504.791 1.003-.167.527-.942.652-1.273.214-.378-.421-.083-1.17.482-1.217zM9.865 12.536c.546-.061.99.578.728 1.067-.224.539-1.078.562-1.327.034-.266-.449.078-1.079.599-1.1zM14.294 17.491c.599.036 1.226.45 1.214 1.108.058.834-.995 1.432-1.676.937-.665-.4-.612-1.374-.046-1.838.149.211.246.481.485.611.426-.142.104-.546.023-.817zM9.22 18.047c.605.096 1.368-.239 1.841.257-.395.122-1.576-.227-1.279.474.433.079.876.024 1.314.043-.167.569-.75 1.049-1.361.827-.677-.191-.881-1.045-.515-1.601z"/>
    <path d="M12.384 3.842c.206-.374.719-.164 1.068-.179.014.295.025.59.056.886.634-.102 1.374.022 1.734.611.553.761.137 1.957-.764 2.216-.893.325-1.937-.427-1.915-1.375-.038-.551.341-.983.696-1.352-.43-.02-.858-.018-1.288-.018l-.449.437c.618.859.125 2.224-.958 2.36-1.129.239-2.113-1.116-1.536-2.116.386-.823 1.49-1.007 2.214-.522.398-.673 1.158-.589 1.835-.558l.004-.191c-.238-.041-.557.055-.697-.199zM9.358 5.534c-.403.773.425 1.757 1.255 1.483.724-.174.966-1.049.652-1.668-.318.284-.592.622-.947.863-.47-.389.436-.792.648-1.164-.568-.262-1.346-.143-1.608.486zm4.371-.636c.148.332.325.652.46.99.192.198-.262.427-.322.182-.19-.317-.33-.66-.511-.982-.468.46-.568 1.294-.006 1.723.638.583 1.776.047 1.751-.812.035-.722-.702-1.202-1.372-1.102zM5.19 9.466c-.068-1.018 1.284-.511 1.9-.62 1.229 1.22 2.442 2.455 3.679 3.667.144.158.326.312.365.535l.065.257.248.031.13.008c.156.15.312.302.467.455l-.924.001c-.464.881-1.738.98-2.309.155-.569.817-1.817.733-2.304-.122-.526 0-1.051.002-1.577-.011-.014-.349-.02-.698-.022-1.048l.287-.143a371.246 371.246 0 0 1-.005-3.166zm2.412 3.074c-.565.047-.86.796-.482 1.217.331.438 1.106.313 1.273-.214.216-.499-.26-1.091-.791-1.003zm2.263-.004c-.521.022-.865.652-.599 1.1.25.528 1.103.505 1.327-.034.262-.488-.182-1.128-.728-1.067zM10.492 8.84h4.519c.016 1.348-.031 2.696.026 4.044l-.05.005-.455-.01a320.515 320.515 0 0 1-4.04-4.039zM15.451 9.444c.431-.326 1.074-.083 1.589-.158.853-.131 1.807.203 2.08 1.092-.768.037-1.542-.049-2.305.047-.277.299-.268.931-.002 1.238.772.1 1.556-.031 2.328.061.398.232.152.81.222 1.187-.505.002-1.012.001-1.518 0-.365-.462-1.032-.484-1.394-.005-.353.006-.704.006-1.057.007.041-1.154-.08-2.328.059-3.469zM15.318 13.352c.344-.023.69-.026 1.034-.03.136.907 1.445.896 1.585-.001.494.011.99-.004 1.484.028-.09.571-.685.451-1.111.461-.451.943-1.858.95-2.338.029-.329 0-.564-.172-.655-.486zM12.028 15.643a3.715 3.715 0 0 1 1.153-.017c.374.414.556.972.845 1.447.994-.22 2.062.61 1.96 1.651-.023 1.151-1.495 1.894-2.425 1.202-.956-.577-.899-2.064.014-2.654l-.161-.344c-.41.157-.852.134-1.283.13-.164.206-.523.404-.308.702.152-.131.301-.264.449-.4.217-.006.434-.008.652-.011-.515.653-1.294 1.136-1.54 1.966-.36.908-1.674 1.145-2.354.458-.493-.402-.516-1.075-.427-1.652-.24-.372-.227-.811-.22-1.236.908-.096 1.825-.018 2.737-.052.419-.713 1.259-.516 1.951-.532a12.655 12.655 0 0 0-.132-.218c-.33-.013-1.232.132-.911-.44zm2.266 1.848c.082.271.403.676-.023.817-.239-.13-.336-.4-.485-.611-.566.464-.619 1.439.046 1.838.682.494 1.734-.103 1.676-.937.012-.658-.616-1.072-1.214-1.108zm-5.074.556c-.366.556-.162 1.41.515 1.601.611.222 1.194-.258 1.361-.827-.438-.019-.881.036-1.314-.043-.296-.701.884-.352 1.279-.474-.473-.496-1.236-.161-1.841-.257z"/>
    <path fill="#f1dfdf" d="M11.134 13.048l.06-.047c.176.005.275.095.294.271l-.041.064a20.984 20.984 0 0 0-.248-.031l-.065-.257z"/>
</svg>
