<svg xmlns="http://www.w3.org/2000/svg" width="24" height="24">
    <path d="M10.836 0h2.31c1.7.335 3.538.641 4.927 1.75-3.691-2.15-8.459-2.152-12.15.001C7.307.642 9.141.341 10.836 0zM9.553 5.111c.168-.492 1.03-.509 1.183-.002.143.443-.025.899-.038 1.346.217.366.694.446 1.037.66.608 1.772.841 3.678 1.207 5.482.235.115.451.331.719.343.378-.203.725-.469 1.153-.564-.217-.136-.569-.116-.666-.388.091-.433.222-.886.552-1.201a9.2 9.2 0 0 0-.598-.314l.56-.22.386.546c.194-.204.394-.403.599-.596.073.205.143.41.211.618-.233.023-.466.046-.698.071.174.335.416.631.564.978-.097.22-.344.311-.522.455.293.154.696.216.832.562.352.718.73 1.43.95 2.203l-.448-.168.286.43c-.367.224-.77.379-1.153.572.374.871.509 1.82.874 2.684-.266.106-.469-.167-.562-.383-.329-.776-.77-1.5-1.073-2.287-.307.776-.536 1.597-.817 2.394-.283.106-.574.233-.883.186.671-.686.73-1.687.864-2.585a5.246 5.246 0 0 1-.902-.46c.371-.604.874-1.115 1.404-1.579l-.205-.617c-.306.1-.607.212-.91.323-.361-.32-.624-.79-1.117-.922-.019-.158-.031-.316-.048-.474-.546-.823-.541-1.89-.892-2.804-.359 1.028 0 2.082.22 3.094-.368.556-.258 1.284-.364 1.919.223 1.055.628 2.065.899 3.108-.211.445-.545.875-1.002 1.088.038-.289.139-.564.253-.83-.492-1.46-1.484-2.777-1.373-4.386-.745 1.409-.762 3.037-1.09 4.558-.371.331-.874.491-1.318.708-.02-.422.449-.59.589-.943.259-1.658.085-3.378.536-5.003-.137-1.073.762-2.05.336-3.132-.288 1.226-1.391 1.944-2.012 2.965-.102-1.008.588-1.891 1.026-2.755.23-.694.336-1.422.503-2.134.109-.574.776-.719 1.195-1.015-.265-.455-.432-1.015-.248-1.53zm6.204 8.439c-.048.146-.096.293-.142.44.307.287.622.572.853.928l.118-.148c-.401-.311-.511-.839-.829-1.22zM22.249 5.927C23.352 7.315 23.664 9.143 24 10.84v2.299c-.274 1.171-.343 2.448-1.021 3.478 1.402-3.444 1.129-7.469-.73-10.69zM4.993 21.628c1.141.734 2.34 1.403 3.656 1.77 2.957.894 6.21.505 8.948-.889-1.268.959-2.92 1.168-4.435 1.492h-2.309c-2.074-.362-4.277-.916-5.861-2.372z"/>
    <path fill="#fff" d="M5.923 1.751c3.691-2.153 8.459-2.152 12.15-.001.317.214.636.422.956.63.13.199.313.353.536.437l.047.025c.514.518 1.028 1.034 1.547 1.548l.025.047c.085.222.236.407.434.536.206.32.416.638.63.954 1.859 3.221 2.131 7.246.73 10.69a3.12 3.12 0 0 1-.055.116 8.097 8.097 0 0 0-.542 1.097c-.017.029-.052.085-.068.114a.747.747 0 0 0-.286.437l-.053.131a7.04 7.04 0 0 0-.797 1.085.344.344 0 0 0-.03.035 37.02 37.02 0 0 0-1.414 1.416l-.128.119a7.515 7.515 0 0 0-1.096.808l-.116.062a.66.66 0 0 0-.456.274c-.114.065-.227.132-.34.199-2.738 1.394-5.992 1.783-8.948.889-1.316-.367-2.515-1.036-3.656-1.77a.938.938 0 0 0-.03-.032 1.046 1.046 0 0 0-.541-.409l-.032-.024c-.506-.528-1.031-1.039-1.553-1.552l-.024-.032a1.005 1.005 0 0 0-.428-.551 40.909 40.909 0 0 0-.634-.962c-.203-.455-.426-.9-.677-1.33a4.514 4.514 0 0 0-.055-.122 12.731 12.731 0 0 1-.355-8.278l.07-.196c.317-.745.658-1.478 1.013-2.206.216-.32.427-.643.634-.971a.585.585 0 0 0 .328-.433l.13-.14C3.36 3.88 3.873 3.36 4.388 2.843a.759.759 0 0 1 .049-.026c.222-.084.406-.238.535-.437.319-.206.637-.415.953-.628zM11.095.436C7.11.701 3.392 3.215 1.631 6.794c-1.79 3.503-1.61 7.919.475 11.257 2.024 3.36 5.849 5.538 9.774 5.55 3.859.067 7.667-1.96 9.78-5.188 1.672-2.484 2.3-5.629 1.738-8.567-.577-3.155-2.543-6.018-5.27-7.7C16.048.84 13.54.244 11.096.436z"/>
    <path fill="#fff" d="M11.1 3.448c4.025-.509 8.119 2.258 9.164 6.174 1.148 3.734-.662 8.068-4.103 9.901-2.428 1.369-5.528 1.436-8.01.166-3.28-1.586-5.266-5.408-4.651-9.005.516-3.766 3.811-6.91 7.6-7.236zM9.553 5.111c-.184.515-.017 1.075.248 1.53-.419.296-1.086.442-1.195 1.015-.167.712-.272 1.44-.503 2.134-.438.864-1.128 1.747-1.026 2.755.622-1.021 1.724-1.739 2.012-2.965.426 1.082-.473 2.059-.336 3.132-.451 1.625-.277 3.344-.536 5.003-.14.353-.61.521-.589.943.444-.217.947-.377 1.318-.708.328-1.52.344-3.149 1.09-4.558-.112 1.609.881 2.926 1.373 4.386a3.176 3.176 0 0 0-.253.83c.457-.214.791-.643 1.002-1.088-.271-1.043-.676-2.053-.899-3.108.106-.635-.005-1.363.364-1.919-.22-1.012-.578-2.065-.22-3.094.35.914.346 1.981.892 2.804.017.158.029.316.048.474.493.132.756.601 1.117.922.302-.11.604-.223.91-.323l.205.617c-.53.464-1.033.976-1.404 1.579.282.188.59.329.902.46-.134.898-.193 1.898-.864 2.585.31.047.6-.08.883-.186.281-.797.51-1.618.817-2.394.302.787.744 1.511 1.073 2.287.092.216.295.488.562.383-.365-.864-.499-1.813-.874-2.684.383-.193.786-.348 1.153-.572a64.12 64.12 0 0 0-.286-.43l.448.168c-.221-.773-.599-1.486-.95-2.203-.136-.346-.539-.408-.832-.562.178-.144.425-.235.522-.455-.148-.347-.39-.643-.564-.978.233-.025.466-.048.698-.071a24.934 24.934 0 0 0-.211-.618c-.205.193-.404.392-.599.596-.13-.182-.258-.365-.386-.546l-.56.22c.203.098.402.202.598.314-.33.316-.461.768-.552 1.201.097.271.449.252.666.388-.428.095-.775.361-1.153.564-.268-.012-.484-.228-.719-.343-.366-1.804-.599-3.709-1.207-5.482-.343-.214-.82-.294-1.037-.66.013-.448.181-.904.038-1.346-.154-.506-1.015-.49-1.183.002z"/>
    <path fill="#fff" d="M15.757 13.55c.318.382.428.91.829 1.22l-.118.148c-.232-.355-.546-.641-.853-.928.046-.148.094-.294.142-.44z"/>
    <path fill="#d40000" d="M11.095.436c2.444-.192 4.952.404 7.032 1.71 2.728 1.682 4.693 4.546 5.27 7.7.563 2.938-.066 6.083-1.738 8.567-2.113 3.228-5.921 5.255-9.78 5.188-3.925-.012-7.75-2.19-9.774-5.55C.019 14.713-.161 10.297 1.63 6.794 3.392 3.216 7.109.702 11.094.436zm.005 3.012c-3.788.326-7.084 3.47-7.6 7.236-.614 3.596 1.372 7.418 4.651 9.005 2.482 1.271 5.582 1.204 8.01-.166 3.44-1.834 5.251-6.167 4.103-9.901-1.045-3.916-5.14-6.683-9.164-6.174z"/>
    <path fill="#323232" opacity=".91" d="M4.435 2.815c.011-.283.284-.419.535-.437-.13.199-.313.353-.535.437z"/>
    <path fill="#303030" opacity=".9" d="M19.03 2.38c.25.018.524.152.536.437a1.101 1.101 0 0 1-.536-.437z"/>
    <path fill="#323232" opacity=".88" d="M2.837 4.39a3.752 3.752 0 0 1 1.549-1.548c-.515.517-1.028 1.037-1.549 1.548z"/>
    <path fill="#313131" opacity=".87" d="M19.613 2.842A3.701 3.701 0 0 1 21.16 4.39c-.518-.514-1.033-1.03-1.547-1.548z"/>
    <path fill="#2f2f2f" opacity=".9" d="M21.185 4.436c.283.012.42.286.434.536a1.115 1.115 0 0 1-.434-.536z"/>
    <path fill="#252525" opacity=".88" d="M2.38 4.963a.434.434 0 0 1 .328-.433.58.58 0 0 1-.328.433z"/>
    <path fill="#212121" opacity=".82" d="M.733 8.14a4.123 4.123 0 0 1 1.013-2.206c-.355.727-.696 1.46-1.013 2.206z"/>
    <path fill="#1a1a1a" opacity=".84" d="M0 10.824c.212-.829.193-1.744.664-2.489a12.732 12.732 0 0 0 .355 8.278C.331 15.61.27 14.344 0 13.192v-2.368z"/>
    <path fill="#212121" opacity=".83" d="M1.074 16.735c.251.43.474.875.677 1.33-.385-.344-.604-.823-.677-1.33z"/>
    <path fill="#212121" opacity=".84" d="M22.381 17.83c.154-.378.334-.745.542-1.097-.046.422-.221.814-.542 1.097z"/>
    <path fill="#2c2c2c" opacity=".91" d="M22.027 18.38a.746.746 0 0 1 .286-.437c.023.187-.056.443-.286.437z"/>
    <path fill="#232323" opacity=".82" d="M21.178 19.596c.229-.386.498-.748.797-1.085a2.013 2.013 0 0 1-.797 1.085z"/>
    <path fill="#2b2b2b" opacity=".87" d="M2.384 19.027c.205.127.354.32.428.551a.545.545 0 0 1-.428-.551z"/>
    <path fill="#2a2a2a" opacity=".85" d="M2.837 19.61c.522.512 1.046 1.024 1.553 1.552a3.794 3.794 0 0 1-1.553-1.552z"/>
    <path fill="#2c2c2c" opacity=".86" d="M19.734 21.047c.462-.48.925-.961 1.414-1.416-.317.596-.806 1.112-1.414 1.416z"/>
    <path fill="#282828" opacity=".87" d="M4.422 21.186c.22.077.413.212.541.409-.272.052-.479-.164-.541-.409z"/>
    <path fill="#222" opacity=".82" d="M18.51 21.973a7.664 7.664 0 0 1 1.096-.808 2.042 2.042 0 0 1-1.096.808z"/>
    <path fill="#2a2a2a" opacity=".91" d="M17.938 22.309a.668.668 0 0 1 .456-.274.379.379 0 0 1-.456.274z"/>
</svg>
