<svg xmlns="http://www.w3.org/2000/svg" width="24" height="24">
    <path fill="#231f20" d="M6.5 0h11.612a2.14 2.14 0 0 1 1.307.904v22.384c-.18.285-.429.513-.699.712H5.878c-.421-.241-.722-.647-.878-1.102V1.295C5.22.617 5.782.097 6.5 0zm.019.313C5.87.44 5.306.991 5.279 1.669c-.002 6.918.003 13.836-.002 20.753-.04.833.77 1.545 1.582 1.487 3.66-.007 7.322.001 10.983-.004a1.544 1.544 0 0 0 1.482-1.482c.002-6.887.002-13.775 0-20.662-.027-.86-.826-1.524-1.67-1.484-3.711.024-7.429-.045-11.136.034z"/>
    <path fill="#231f20" d="M5.652 1.763C5.637 1.227 6.116.689 6.671.742c3.786.006 7.574.002 11.36.002.433-.012.843.398.831.831-.005 7.044.004 14.088-.005 21.132-.061.578-.697.806-1.201.826-3.537.007-7.074-.002-10.611.005-.274.007-.54-.066-.808-.111-.292-.266-.61-.57-.584-1.003-.001-6.886-.002-13.774 0-20.66zm.972-.368l-.229.228v20.94l.228.228h11.358l.228-.228V1.623a24.506 24.506 0 0 1-.228-.228H6.624z"/>
    <path fill="#231f20" d="M10.898 2.419h.893v.28l-.62-.003c.097.247.015.5-.048.744.689.004 1.378.001 2.066.002l-.002-.064a5.902 5.902 0 0 1-.56-.129l.003-.272c.514.004 1.03-.012 1.544.014a6.51 6.51 0 0 1-.243.324.457.457 0 0 0-.418.307c.165.168.328.339.463.532.975-.486 2.432.037 2.467 1.236.223 1.049-.86 2.01-1.872 1.806-.632-.067-1.216-.55-1.346-1.18-.508-.049-.518.53-.183.771l-.507.007V6.29c-.442-.562-.884-1.128-1.417-1.607.374.58.402 1.326-.015 1.892-.447.611-1.351.881-2.038.53-.78-.286-1.186-1.277-.869-2.033.278-.904 1.452-1.338 2.274-.901a9.95 9.95 0 0 1 .399-1.225 27.188 27.188 0 0 1-.233-.247l.261-.279zm-.008 1.414c.356.473.82.85 1.221 1.284h.58c.073-.45.241-.876.397-1.302-.733.009-1.466-.02-2.198.019zm2.509.14a35.369 35.369 0 0 1-.51 1.7l.285.002c-.052-.491.21-.925.487-1.305a6.622 6.622 0 0 1-.261-.397zM8.446 5.682c.132.753.91 1.441 1.688 1.125.829-.264 1.144-1.343.57-2.007-.29.365-.552.753-.908 1.06h-.237l-.001-.329c.333-.285.619-.621.779-1.034-.864-.428-1.828.273-1.891 1.184zM14.253 4.5c.223.293.435.597.7.856v.298c-.393.091-.785.186-1.187.224l-.149.164c.286.632 1.076.951 1.711.662.514-.199.831-.778.74-1.318-.115-.816-1.097-1.279-1.816-.886zm-.729 1.1c.251-.052.501-.108.757-.13l.148-.165c-.17-.18-.34-.362-.476-.569-.247.229-.37.539-.429.864zM12.198 7.808c.647.127 1.276.749 1.966.464 1.12.536 2.287 1.144 3.58 1.032-.012.64.024 1.283-.014 1.922-.114.192-.36.099-.542.124-.894.028-1.768.264-2.618.531-.57.139-1.373.186-1.707-.404-.193-.284-.514-.432-.793-.614l.001-.239c-.292-.3-.78-.4-.885-.857-.906-.025-1.817.055-2.718-.045-.101.064-.203.126-.305.187v1.16h-.837v3.907h-.465V8.65h.465v.465h.772c.138.381.37.284.574.015 1.204-.165 2.429-.18 3.62-.4-.075-.073-.152-.144-.228-.215.03-.236-.077-.536.134-.708z"/>
    <path fill="#231f20" d="M10.023 13.203c.338.001.82-.049.967.341.156.233-.029.48-.132.69l-.556-.003v.745h-.279v-1.774zm.275.374c.005.14.011.281.018.421a.434.434 0 0 0 .404-.404c-.14-.007-.281-.013-.421-.018zM11.233 13.209h.28c.011.466-.06.948.097 1.398l.274-.004v-1.394h.371c-.046.631.279 1.75-.673 1.8a29.5 29.5 0 0 0-.35-.356v-1.444zM12.552 13.304c.281-.145.577-.083.826.095-.004.073-.009.222-.012.297-.208-.033-.415-.078-.623-.111.169.246.431.397.647.594a3.191 3.191 0 0 1-.11.7c-.287.14-.589.094-.841-.092l.005-.369.233-.001.22.222.216-.171c-.273-.389-.911-.602-.562-1.165zM13.558 13.209h.279v.651h.372v-.651h.372v1.767h-.372v-.744h-.372v.744h-.279v-1.767zM9.093 15.618c.282.002.565.017.834.103.089.24.12.497.038.744.039.197.059.398.074.598l-.247.239h-.7v-1.685zm.311.218c-.016.149-.031.299-.043.448l.337-.021a.7.7 0 0 0-.294-.427zm-.032.691c.001.18.004.361.009.541.206-.035.362-.152.417-.357-.141-.062-.283-.125-.426-.184zM10.21 15.628h.372c.016.477-.06.968.077 1.434l.202-.164c-.002-.423-.001-.847-.001-1.271h.371c-.046.557.141 1.176-.184 1.675a71.069 71.069 0 0 0-.653 0c-.326-.5-.139-1.118-.184-1.675zM11.326 15.628h1.86v.277l-.279.004v1.394h-.372v-1.395h-.558v1.395h-.372v-1.394l-.279-.004v-.277zM13.373 15.723c.206-.056.415-.095.626-.121.391.47.461 1.247.012 1.702l-.547-.001c-.292-.47-.22-1.069-.091-1.58zm.286.274c-.154.35-.128.741.1 1.052l.172-.153v-.895l-.272-.004zM14.488 15.628h.34c.106.238.207.478.309.719.005-.24.003-.479.003-.719h.371v1.674h-.34c-.106-.238-.207-.479-.309-.719-.005.239-.003.479-.003.719h-.371v-1.674zM7.233 18.047h.93v.279h-.558v.371l.372.002v.277l-.372.002v.743h-.372v-1.674zM8.542 18.044l.552.003c.292.469.219 1.068.091 1.58a4.463 4.463 0 0 1-.626.121c-.409-.471-.42-1.226-.017-1.703zm.085.41c.028.329-.121.758.223.963A.995.995 0 0 0 8.8 18.3l-.173.154zM9.558 18.047c.269.001.54-.017.807.014.215.155.093.46.128.687l-.2.189c.109.265.193.54.223.827-.529.024-.345-.606-.644-.871a5.88 5.88 0 0 0-.04.829h-.275v-1.674zm.279.279v.372h.247l.157-.186-.157-.186h-.247zM11.977 18.045l.635.002c.047.152.095.303.138.457l-.268.011-.207-.22c-.26.323-.22.725-.079 1.088l.249-.133a.91.91 0 0 1-.241-.352c.172-.009.344-.014.517-.019v.614l-.229.228-.409.003c-.42-.443-.393-1.173-.106-1.679zM13 18.047c.269.001.54-.017.807.014.216.157.092.465.128.693l-.169.142c.077.269.142.541.19.819l-.282.009c-.105-.283-.166-.592-.357-.833a5.623 5.623 0 0 0-.042.831H13v-1.674zm.279.279v.372h.247l.157-.186-.157-.186h-.247zM14.116 18.047h.93v.279h-.558v.371l.372.002v.277l-.372.002v.371h.558v.372h-.93v-1.674zM15.233 18.047h.93v.279h-.651v.371l.372.002v.277l-.372.002v.371h.651v.372h-.93v-1.674zM16.349 18.048l.273-.005c.144.261.263.536.377.813.005-.271.003-.54.002-.81h.279v1.673l-.273.005a7.78 7.78 0 0 1-.377-.813c-.005.27-.003.54-.002.81h-.279v-1.673zM9.93 20.372h.279v1.395h.558v.372H9.93v-1.767zM10.954 20.372h.279v1.767h-.279v-1.767zM11.616 20.472c.166-.048.331-.092.5-.129.141.164.282.33.395.516a3.851 3.851 0 0 1-.622-.116c-.117.356-.237.931.222 1.091-.089-.175-.185-.344-.274-.519.202-.008.404-.013.606-.016v.519c-.109.107-.216.214-.323.322h-.286c-.1-.103-.202-.207-.304-.309-.159-.455-.084-.92.087-1.359zM12.628 20.372H13v.651h.372v-.651h.279v1.767h-.279v-.744H13v.744h-.372v-1.767zM13.744 20.372h.93v.37l-.279.004v1.393h-.279v-1.394l-.372-.002v-.371z"/>
    <path fill="#fff" d="M6.519.313c3.707-.079 7.425-.01 11.136-.034.844-.04 1.643.624 1.67 1.484.002 6.887.002 13.775 0 20.662a1.544 1.544 0 0 1-1.482 1.482c-3.661.005-7.323-.004-10.983.004-.812.058-1.622-.655-1.582-1.487.005-6.917 0-13.835.002-20.753C5.307.993 5.871.442 6.52.315zm-.867 1.45c-.002 6.886-.001 13.774 0 20.66-.026.433.292.737.584 1.003.269.045.534.118.808.111 3.537-.007 7.074.003 10.611-.005.504-.02 1.14-.248 1.201-.826.008-7.044 0-14.088.005-21.132.012-.433-.398-.843-.831-.831-3.786 0-7.574.004-11.36-.002-.554-.053-1.033.486-1.019 1.021z"/>
    <path fill="#fff" d="M6.624 1.395h11.357l.228.228v20.94l-.228.228H6.623a24.506 24.506 0 0 0-.228-.228V1.623l.229-.228zm4.274 1.024l-.261.279.233.247a9.95 9.95 0 0 0-.399 1.225c-.822-.436-1.996-.003-2.274.901-.317.756.089 1.747.869 2.033.687.351 1.592.081 2.038-.53.417-.567.389-1.313.015-1.892.533.479.975 1.046 1.417 1.607v.504l.507-.007c-.335-.241-.325-.82.183-.771.13.631.714 1.113 1.346 1.18 1.011.205 2.095-.756 1.872-1.806-.035-1.199-1.492-1.722-2.467-1.236a4.337 4.337 0 0 0-.463-.532.457.457 0 0 1 .418-.307 6.51 6.51 0 0 0 .243-.324c-.514-.026-1.03-.01-1.544-.014l-.003.272c.184.051.371.096.56.129l.002.064c-.688-.001-1.377.002-2.066-.002.063-.244.145-.497.048-.744l.62.003v-.28h-.893zm1.3 5.389c-.211.172-.104.472-.134.708.076.071.153.142.228.215-1.192.22-2.417.235-3.62.4-.204.269-.436.367-.574-.015h-.772v-.465h-.465v6.326h.465V11.07h.837V9.91c.102-.061.204-.123.305-.187.901.1 1.812.02 2.718.045.105.457.593.556.885.857l-.001.239c.279.182.6.33.793.614.334.59 1.137.542 1.707.404.849-.267 1.724-.503 2.618-.531.182-.025.428.068.542-.124.038-.639.002-1.282.014-1.922-1.293.113-2.46-.496-3.58-1.032-.689.285-1.319-.337-1.966-.464zm-2.175 5.395v1.774h.279v-.745l.556.003c.103-.21.288-.458.132-.69-.148-.391-.63-.34-.967-.341zm1.21.006v1.444c.117.117.233.236.35.356.952-.05.626-1.169.673-1.8h-.371v1.394l-.274.004c-.156-.45-.086-.932-.097-1.398h-.28zm1.319.095c-.349.563.289.776.562 1.165l-.216.171c-.074-.073-.147-.148-.22-.222l-.233.001a45.4 45.4 0 0 0-.005.369c.252.186.553.232.841.092a3.2 3.2 0 0 0 .11-.7c-.217-.197-.478-.349-.647-.594.208.033.415.078.623.111.003-.074.008-.223.012-.297-.249-.178-.545-.24-.826-.095zm1.006-.095v1.767h.279v-.744h.372v.744h.372v-1.767h-.372v.651h-.372v-.651h-.279zm-4.465 2.409v1.685h.7l.247-.239a4.811 4.811 0 0 0-.074-.598c.082-.247.051-.504-.038-.744-.27-.087-.553-.101-.834-.103zm1.117.01c.046.557-.141 1.176.184 1.675h.653c.326-.5.139-1.118.184-1.675h-.371c0 .423-.001.847.001 1.271l-.202.164c-.138-.466-.061-.957-.077-1.434h-.372zm1.116 0v.277l.279.004v1.394h.372v-1.395h.558v1.395h.372v-1.394l.279-.004v-.277h-1.86zm2.047.095c-.128.512-.201 1.111.091 1.58l.547.001c.449-.455.379-1.233-.012-1.702-.211.026-.42.065-.626.121zm1.115-.095v1.674h.371c0-.24-.002-.48.003-.719.101.24.203.481.309.719h.34v-1.674h-.371c0 .24.002.479-.003.719-.102-.241-.203-.481-.309-.719h-.34zm-7.255 2.419v1.674h.372v-.743l.372-.002v-.277l-.372-.002v-.371h.558v-.279h-.93zm1.309-.003c-.403.477-.393 1.233.017 1.703.211-.026.42-.065.626-.121.127-.512.201-1.111-.091-1.58l-.552-.003zm1.016.003v1.674h.275c0-.277.001-.554.04-.829.299.265.114.895.644.871a2.998 2.998 0 0 0-.223-.827l.2-.189c-.035-.226.087-.531-.128-.687-.268-.031-.539-.013-.807-.014zm2.419-.002c-.287.506-.313 1.236.106 1.679l.409-.003.229-.228v-.614c-.173.005-.345.009-.517.019a.91.91 0 0 0 .241.352l-.249.133c-.141-.364-.181-.766.079-1.088.069.073.139.146.207.22l.268-.011c-.043-.153-.09-.305-.138-.457l-.635-.002zm1.023.002v1.674h.275c0-.277.001-.555.042-.831.191.242.252.551.357.833l.282-.009a7.599 7.599 0 0 0-.19-.819l.169-.142c-.036-.228.087-.536-.128-.693-.268-.031-.539-.013-.807-.014zm1.116 0v1.674h.93v-.372h-.558v-.371l.372-.002v-.277l-.372-.002v-.371h.558v-.279h-.93zm1.117 0v1.674h.93v-.372h-.651v-.371l.372-.002v-.277l-.372-.002v-.371h.651v-.279h-.93zm1.116.001v1.673h.279c-.001-.27-.003-.54.002-.81.113.276.232.552.377.813l.273-.005v-1.673h-.279c.001.27.003.54-.002.81a7.687 7.687 0 0 0-.377-.813l-.273.005zM9.93 20.372v1.767h.837v-.372h-.558v-1.395H9.93zm1.024 0v1.767h.279v-1.767h-.279zm.662.1c-.171.439-.247.904-.087 1.359.102.102.204.206.304.309h.286c.107-.108.214-.215.323-.322v-.519c-.202.003-.404.007-.606.016.089.175.185.344.274.519-.46-.16-.34-.735-.222-1.091.204.057.412.094.622.116a3.894 3.894 0 0 0-.395-.516 7.973 7.973 0 0 0-.5.129zm1.012-.1v1.767H13v-.744h.372v.744h.279v-1.767h-.279v.651H13v-.651h-.372zm1.116 0v.371l.372.002v1.394h.279v-1.394l.279-.004v-.37h-.93z"/>
    <path fill="#fff" d="M10.89 3.833c.732-.039 1.465-.009 2.198-.019-.156.426-.325.852-.397 1.302h-.58c-.401-.434-.865-.81-1.221-1.284zM13.399 3.973c.083.136.17.268.261.397-.276.38-.539.814-.487 1.305l-.285-.002c.183-.562.354-1.129.51-1.7zM8.446 5.682c.063-.911 1.027-1.612 1.891-1.184-.16.412-.446.749-.779 1.034l.001.329h.237c.356-.308.618-.696.908-1.06.574.663.259 1.742-.57 2.007-.779.316-1.556-.371-1.688-1.125zM14.253 4.5c.719-.393 1.7.07 1.816.886.09.54-.226 1.119-.74 1.318-.634.288-1.425-.031-1.711-.662l.149-.164c.402-.038.794-.133 1.187-.224v-.298c-.265-.259-.477-.563-.7-.856z"/>
    <path fill="#fff" d="M13.524 5.6c.059-.326.181-.635.429-.864.137.207.306.39.476.569l-.148.165c-.256.022-.506.078-.757.13zM10.298 13.577c.14.005.281.011.421.018a.434.434 0 0 1-.404.404c-.007-.14-.013-.281-.018-.421zM9.404 15.836a.7.7 0 0 1 .294.427l-.337.021c.012-.15.027-.3.043-.448zM13.659 15.997l.272.004v.895l-.172.153a1.041 1.041 0 0 1-.1-1.052zM9.372 16.527c.143.06.285.122.426.184-.055.206-.211.322-.417.357-.006-.18-.008-.361-.009-.541zM8.627 18.454L8.8 18.3a.995.995 0 0 1 .05 1.117c-.344-.205-.195-.633-.223-.963zM9.837 18.326h.247l.157.186-.157.186h-.247v-.372zM13.279 18.326h.247l.157.186-.157.186h-.247v-.372z"/>
</svg>
