<!-- Generated by IcoMoon.io -->
<svg version="1.1" xmlns="http://www.w3.org/2000/svg" width="16" height="24" viewBox="0 0 16 24">
<title>regulatory--dual-lanes-bicyclists-and-pedestrians--g1</title>
<path fill="#000" d="M1.676 0h12.645c0.796 0.188 1.439 0.793 1.679 1.575v20.824c-0.129 0.313-0.268 0.632-0.501 0.884l-0.145-0.005c0.319-0.386 0.552-0.861 0.539-1.371 0.003-6.605 0.002-13.209 0.001-19.814 0.040-1.026-0.858-1.965-1.886-1.96-3.972-0.013-7.944-0.006-11.915-0.003-0.531-0.021-1.006 0.236-1.426 0.533 0.172-0.409 0.641-0.508 1.009-0.663z"></path>
<path fill="#000" d="M1.627 0.629c0.217-0.073 0.448-0.068 0.673-0.070 3.899 0.005 7.799-0.005 11.698 0.005 0.802-0.005 1.495 0.733 1.465 1.53 0 6.604 0.001 13.208-0.001 19.813 0.022 0.785-0.67 1.506-1.458 1.499-4.003 0.001-8.006 0.002-12.008 0-0.783-0.006-1.461-0.728-1.435-1.508-0.001-6.599 0-13.198 0-19.797-0.022-0.654 0.432-1.297 1.066-1.472M1.639 1.151c-0.364 0.162-0.599 0.553-0.581 0.951-0.001 6.599-0.003 13.197 0.001 19.796-0.028 0.557 0.485 1.052 1.039 1.015 3.934 0.001 7.869 0 11.803 0.001 0.559 0.047 1.084-0.444 1.063-1.006 0.005-6.605 0.002-13.211 0.001-19.816 0.032-0.574-0.496-1.079-1.067-1.037-3.899-0.004-7.798 0-11.696-0.002-0.191 0.004-0.389 0.011-0.563 0.098z"></path>
<path fill="#000" d="M0 1.686c0.149-0.371 0.247-0.845 0.659-1.013-0.293 0.419-0.556 0.891-0.529 1.42 0 6.605-0.002 13.21 0.001 19.815-0.017 0.67 0.367 1.285 0.904 1.662l-0.146 0.036c-0.459-0.29-0.715-0.79-0.889-1.287v-20.633z"></path>
<path fill="#000" d="M2.389 2.715c0.224-0.002 0.447-0.003 0.67-0.003 0.009 0.562 0 1.124 0.004 1.686 0.285-0.558 0.547-1.128 0.837-1.684 0.259-0.002 0.519-0.002 0.779 0-0.284 0.605-0.593 1.198-0.865 1.808 0.278 1.17 0.633 2.323 0.933 3.489-0.241 0.005-0.481 0.005-0.722-0.005-0.227-0.809-0.453-1.618-0.682-2.427-0.558 0.654-0.161 1.636-0.281 2.428-0.224 0.008-0.449 0.009-0.673 0.005-0.003-1.766-0.004-3.531 0-5.297z"></path>
<path fill="#000" d="M5.601 2.715c0.65 0 1.301-0.004 1.952 0.003 0.001 0.226 0.001 0.453 0.001 0.679-0.426 0.018-0.853 0.004-1.279 0.010 0.012 0.454-0.035 0.912 0.025 1.363 0.273-0.009 0.546-0.007 0.819-0.004 0.004 0.235 0.004 0.47-0.003 0.705-0.28-0.001-0.56-0.001-0.84 0.002-0.004 0.616-0.005 1.232 0 1.847 0.448 0.006 0.896 0 1.344 0.004 0.005 0.229 0.005 0.458 0.001 0.688-0.673 0.004-1.346 0.003-2.020 0-0.005-1.765-0.005-3.531 0-5.297z"></path>
<path fill="#000" d="M8.474 2.715c0.649-0.001 1.299-0.002 1.949 0.001 0.004 0.229 0.004 0.458 0.001 0.688-0.426 0.006-0.852-0.003-1.278 0.006 0.001 0.451-0.001 0.901 0.002 1.352 0.282 0.002 0.563 0.002 0.845 0.004 0.003 0.235 0.003 0.47-0.002 0.705-0.277 0.001-0.555 0-0.832-0.003-0.031 0.608 0.002 1.218-0.018 1.827 0.447 0.064 0.902 0.010 1.353 0.028 0.004 0.229 0.004 0.459 0.001 0.689-0.674 0.004-1.348 0.004-2.022 0-0.003-1.766-0.004-3.531 0.001-5.297z"></path>
<path fill="#000" d="M11.344 2.716c0.615 0.045 1.348-0.165 1.856 0.282 0.531 0.618 0.605 1.649 0.095 2.301-0.306 0.383-0.823 0.427-1.276 0.406 0 0.769 0.003 1.538-0.002 2.307-0.224 0.004-0.448 0.003-0.673-0.008 0.001-1.763 0.001-3.525 0-5.288M12.020 3.399c-0.001 0.54-0.002 1.080 0.001 1.62 0.253-0.016 0.565 0.065 0.767-0.132 0.39-0.582 0.13-1.749-0.768-1.488z"></path>
<path fill="#000" d="M2.66 9.996c0.073 0.003 0.22 0.009 0.294 0.011-0.002 0.68-0.004 1.361 0 2.041 0.198 0.001 0.397 0.004 0.595 0.009-0.003 0.065-0.008 0.195-0.011 0.26-0.293 0.004-0.586 0.004-0.879 0-0.004-0.774-0.006-1.547 0.001-2.321z"></path>
<path fill="#000" d="M3.87 10.002c0.285-0.004 0.569-0.004 0.854 0.001 0 0.074-0.001 0.223-0.001 0.297-0.186 0.002-0.371 0.004-0.557 0.005-0.003 0.195-0.003 0.391-0.001 0.586 0.093 0.004 0.279 0.012 0.372 0.016-0.001 0.073-0.002 0.22-0.003 0.293-0.092 0.003-0.276 0.009-0.368 0.012-0.004 0.267-0.003 0.534 0.001 0.801 0.198 0.002 0.395 0.005 0.593 0.012 0 0.068 0 0.203 0 0.27-0.294 0.045-0.593 0.021-0.889 0.021-0.004-0.771-0.003-1.542-0.001-2.314z"></path>
<path fill="#000" d="M5.125 10.004c0.295-0.006 0.591-0.006 0.886-0.001 0 0.074 0 0.223 0.001 0.297-0.197 0.002-0.394 0.004-0.59 0.006-0.002 0.193-0.003 0.386-0.004 0.578 0.116 0.011 0.232 0.021 0.349 0.031 0 0.068 0 0.202 0 0.269-0.116 0.012-0.233 0.025-0.349 0.037 0.004 0.366 0.006 0.733 0 1.099-0.073-0.001-0.219-0.003-0.292-0.004-0.001-0.771 0-1.541-0.001-2.312z"></path>
<path fill="#000" d="M6.154 10.003c0.292-0.005 0.585-0.005 0.877 0 0.001 0.071 0.002 0.213 0.003 0.284-0.078 0.008-0.232 0.024-0.309 0.032 0.007 0.669 0.008 1.338 0.001 2.007-0.073-0.006-0.218-0.018-0.291-0.024 0.003-0.662 0.003-1.325 0.002-1.987-0.072-0.007-0.215-0.021-0.287-0.027 0.001-0.071 0.003-0.214 0.004-0.285z"></path>
<path fill="#000" d="M7.766 9.999c0.165 0.001 0.33 0.002 0.496 0.005-0.004 3.753 0.002 7.505-0.003 11.258-0.167 0.001-0.333-0.003-0.499-0.013 0.009-3.75-0.002-7.5 0.006-11.25z"></path>
<path fill="#000" d="M8.781 10c0.284 0.020 0.641-0.076 0.859 0.161 0.219 0.307 0.19 0.771-0.094 1.030 0.070 0.374 0.153 0.746 0.224 1.12-0.073 0.002-0.218 0.004-0.291 0.005-0.155-0.367-0.087-0.854-0.389-1.139-0.028 0.377-0.011 0.756-0.016 1.134-0.073 0.001-0.219 0.002-0.292 0.003-0.006-0.771-0.003-1.542-0.001-2.314M9.077 10.293c-0.004 0.214-0.004 0.429 0 0.643 0.084-0.003 0.253-0.009 0.337-0.012 0.086-0.193 0.091-0.418-0.019-0.603-0.080-0.007-0.239-0.021-0.318-0.028z"></path>
<path fill="#000" d="M10.045 10.007c0.073-0.003 0.22-0.008 0.294-0.010 0.006 0.776 0.006 1.553-0.001 2.33-0.074-0.007-0.221-0.021-0.295-0.028 0.007-0.764 0.004-1.528 0.002-2.292z"></path>
<path fill="#000" d="M10.738 10.428c0.015-0.566 0.89-0.61 0.943-0.040-0.183 0.085-0.338-0.051-0.489-0.138-0.355 0.454-0.206 1.163-0.133 1.702 0.256 0.323 0.375-0.189 0.327-0.399-0.155-0.059-0.169-0.2-0.16-0.345 0.148-0.008 0.296-0.014 0.444-0.016 0.031 0.44 0.097 1.32-0.6 1.15-0.609-0.371-0.356-1.309-0.332-1.914z"></path>
<path fill="#000" d="M12.009 10c0.073 0 0.218 0 0.29 0 0.005 0.312 0.003 0.623 0.005 0.935 0.136-0.001 0.272-0.001 0.409-0.001 0.003-0.312 0.001-0.623 0.003-0.934 0.073 0 0.219 0.001 0.292 0.001 0.004 0.772 0.004 1.545 0 2.318-0.073 0-0.219-0.001-0.292-0.001-0.005-0.36 0.008-0.721-0.012-1.081-0.133-0.001-0.265-0.001-0.397-0.002-0.008 0.361-0.001 0.723-0.008 1.084-0.072 0-0.218 0-0.29 0-0.003-0.773-0.004-1.546 0-2.319z"></path>
<path fill="#000" d="M13.23 10.006c0.293-0.009 0.586-0.009 0.879-0.003 0 0.072 0 0.216 0.001 0.288-0.077 0.006-0.23 0.018-0.306 0.024 0.004 0.668 0.005 1.336 0.001 2.004-0.072 0-0.217-0.001-0.289-0.001-0.005-0.667 0.002-1.334-0.002-2-0.074-0.010-0.221-0.030-0.295-0.039 0.003-0.068 0.008-0.205 0.011-0.273z"></path>
<path fill="#000" d="M11.139 15.354c0.292-0.183 0.705 0.099 0.646 0.437-0.028 0.31-0.426 0.492-0.676 0.305-0.267-0.165-0.247-0.598 0.030-0.742z"></path>
<path fill="#000" d="M11.62 16.248c0.574 0.072 1.093 0.43 1.534 0.782 0.013 0.456 0.002 0.912 0.002 1.367-0.096-0.024-0.191-0.049-0.285-0.077-0.026-0.362-0.064-0.724-0.103-1.085-0.077-0.014-0.229-0.042-0.306-0.055 0.173 0.494 0.3 1.019 0.193 1.543 0.146 0.761 0.367 1.509 0.538 2.266-0.123 0.093-0.248 0.184-0.373 0.273-0.274-0.7-0.532-1.406-0.814-2.103-0.603 0.476-0.601 1.315-0.898 1.971-0.164-0.057-0.328-0.115-0.491-0.172 0.228-0.9 0.414-1.826 0.962-2.598-0.057-0.231-0.123-0.459-0.192-0.686-0.25 0.421-0.79 0.416-1.201 0.586-0.040-0.048-0.122-0.144-0.162-0.192 0.294-0.226 0.61-0.421 0.916-0.631 0.146-0.42 0.21-1.010 0.68-1.189z"></path>
<path fill="#000" d="M3.411 18.132c0.046-0.040 0.139-0.121 0.185-0.161 0.134 0.001 0.268 0.003 0.402 0.005l0.006 0.111c-0.14 0.004-0.281 0.008-0.422 0.013 0.056 0.208 0.026 0.417-0.040 0.62 0.516-0.008 1.033 0.020 1.548-0.019-0.151-0.077-0.323-0.126-0.438-0.257 0.339-0.031 0.68-0.044 1.020-0.039-0.098 0.159-0.275 0.22-0.435 0.293 0.016 0.225 0.219 0.368 0.344 0.537 0.509-0.263 1.207-0.138 1.501 0.38 0.394 0.593 0.013 1.489-0.687 1.616-0.564 0.15-1.121-0.249-1.303-0.774-0.365-0.039-0.448 0.241-0.318 0.529-0.031 0.005-0.092 0.014-0.123 0.019-0.144-0.742-0.811-1.331-1.368-1.789 0.186 0.274 0.45 0.527 0.454 0.883 0.080 0.701-0.654 1.324-1.332 1.127-0.682-0.137-1.049-1.007-0.677-1.594 0.275-0.51 0.936-0.646 1.447-0.437 0.087-0.351 0.354-0.689 0.236-1.063M3.428 18.914c0.259 0.388 0.611 0.7 0.896 1.067 0.115-0.033 0.231-0.065 0.346-0.097 0.102-0.327 0.213-0.651 0.317-0.977-0.52 0.001-1.039-0.007-1.559 0.007M4.742 20.306c0.080-0.006 0.241-0.016 0.321-0.021 0.002-0.358 0.129-0.693 0.361-0.964-0.080-0.094-0.161-0.187-0.243-0.28-0.191 0.404-0.292 0.844-0.439 1.265M1.791 20.096c-0.095 0.655 0.695 1.195 1.269 0.858 0.531-0.248 0.618-0.996 0.229-1.41-0.218 0.219-0.424 0.852-0.775 0.651 0.237-0.231 0.511-0.447 0.592-0.786-0.532-0.302-1.28 0.064-1.315 0.687M5.693 19.397c0.195 0.284 0.413 0.55 0.63 0.816-0.334 0.094-0.682 0.128-1.019 0.214 0.217 0.78 1.431 0.831 1.677 0.049 0.308-0.755-0.604-1.454-1.288-1.079M5.526 19.494c-0.156 0.216-0.244 0.467-0.249 0.733 0.248-0.034 0.496-0.073 0.742-0.119-0.152-0.214-0.31-0.425-0.493-0.614z"></path>
<path fill="#fff" d="M0.667 0.663c0.42-0.297 0.895-0.554 1.426-0.533 3.971-0.003 7.943-0.010 11.915 0.003 1.028-0.005 1.926 0.934 1.886 1.96 0.001 6.605 0.002 13.209-0.001 19.814 0.013 0.51-0.22 0.985-0.539 1.371-0.38 0.321-0.844 0.571-1.355 0.561-3.966 0.003-7.932-0.001-11.899 0.002-0.375 0.016-0.732-0.113-1.065-0.271-0.537-0.377-0.921-0.992-0.904-1.662-0.003-6.605-0.001-13.21-0.001-19.815-0.027-0.529 0.236-1.001 0.529-1.42 0.002-0.003 0.006-0.008 0.008-0.010M1.627 0.629c-0.634 0.175-1.088 0.818-1.066 1.472 0 6.599-0.001 13.198 0 19.797-0.026 0.78 0.652 1.502 1.435 1.508 4.002 0.002 8.005 0.001 12.008 0 0.788 0.007 1.48-0.714 1.458-1.499 0.002-6.605 0.001-13.209 0.001-19.813 0.030-0.797-0.663-1.535-1.465-1.53-3.899-0.010-7.799 0-11.698-0.005-0.225 0.002-0.456-0.003-0.673 0.070z"></path>
<path fill="#fff" d="M1.639 1.151c0.174-0.087 0.372-0.094 0.563-0.098 3.898 0.002 7.797-0.002 11.696 0.002 0.571-0.042 1.099 0.463 1.067 1.037 0.001 6.605 0.004 13.211-0.001 19.816 0.021 0.562-0.504 1.053-1.063 1.006-3.934-0.001-7.869 0-11.803-0.001-0.554 0.037-1.067-0.458-1.039-1.015-0.004-6.599-0.002-13.197-0.001-19.796-0.018-0.398 0.217-0.789 0.581-0.951M2.389 2.715c-0.004 1.766-0.003 3.531 0 5.297 0.224 0.004 0.449 0.003 0.673-0.005 0.12-0.792-0.277-1.774 0.281-2.428 0.229 0.809 0.455 1.618 0.682 2.427 0.241 0.010 0.481 0.010 0.722 0.005-0.3-1.166-0.655-2.319-0.933-3.489 0.272-0.61 0.581-1.203 0.865-1.808-0.26-0.002-0.52-0.002-0.779 0-0.29 0.556-0.552 1.126-0.837 1.684-0.004-0.562 0.005-1.124-0.004-1.686-0.223 0-0.446 0.001-0.67 0.003M5.601 2.715c-0.005 1.766-0.005 3.532 0 5.297 0.674 0.003 1.347 0.004 2.020 0 0.004-0.23 0.004-0.459-0.001-0.688-0.448-0.004-0.896 0.002-1.344-0.004-0.005-0.615-0.004-1.231 0-1.847 0.28-0.003 0.56-0.003 0.84-0.002 0.007-0.235 0.007-0.47 0.003-0.705-0.273-0.003-0.546-0.005-0.819 0.004-0.060-0.451-0.013-0.909-0.025-1.363 0.426-0.006 0.853 0.008 1.279-0.010 0-0.226 0-0.453-0.001-0.679-0.651-0.007-1.302-0.003-1.952-0.003M8.474 2.715c-0.005 1.766-0.004 3.531-0.001 5.297 0.674 0.004 1.348 0.004 2.022 0 0.003-0.23 0.003-0.46-0.001-0.689-0.451-0.018-0.906 0.036-1.353-0.028 0.020-0.609-0.013-1.219 0.018-1.827 0.277 0.003 0.555 0.004 0.832 0.003 0.005-0.235 0.005-0.47 0.002-0.705-0.282-0.002-0.563-0.002-0.845-0.004-0.003-0.451-0.001-0.901-0.002-1.352 0.426-0.009 0.852 0 1.278-0.006 0.003-0.23 0.003-0.459-0.001-0.688-0.65-0.003-1.3-0.002-1.949-0.001M11.344 2.716c0.001 1.763 0.001 3.525 0 5.288 0.225 0.011 0.449 0.012 0.673 0.008 0.005-0.769 0.002-1.538 0.002-2.307 0.453 0.021 0.97-0.023 1.276-0.406 0.51-0.652 0.436-1.683-0.095-2.301-0.508-0.447-1.241-0.237-1.856-0.282M2.66 9.996c-0.007 0.774-0.005 1.547-0.001 2.321 0.293 0.004 0.586 0.004 0.879 0 0.003-0.065 0.008-0.195 0.011-0.26-0.198-0.005-0.397-0.008-0.595-0.009-0.004-0.68-0.002-1.361 0-2.041-0.074-0.002-0.221-0.008-0.294-0.011M3.87 10.002c-0.002 0.772-0.003 1.543 0.001 2.314 0.296 0 0.595 0.024 0.889-0.021 0-0.067 0-0.202 0-0.27-0.198-0.007-0.395-0.010-0.593-0.012-0.004-0.267-0.005-0.534-0.001-0.801 0.092-0.003 0.276-0.009 0.368-0.012 0.001-0.073 0.002-0.22 0.003-0.293-0.093-0.004-0.279-0.012-0.372-0.016-0.002-0.195-0.002-0.391 0.001-0.586 0.186-0.001 0.371-0.003 0.557-0.005 0-0.074 0.001-0.223 0.001-0.297-0.285-0.005-0.569-0.005-0.854-0.001M5.125 10.004c0.001 0.771 0 1.541 0.001 2.312 0.073 0.001 0.219 0.003 0.292 0.004 0.006-0.366 0.004-0.733 0-1.099 0.116-0.012 0.233-0.025 0.349-0.037 0-0.067 0-0.201 0-0.269-0.117-0.010-0.233-0.020-0.349-0.031 0.001-0.192 0.002-0.385 0.004-0.578 0.196-0.002 0.393-0.004 0.59-0.006-0.001-0.074-0.001-0.223-0.001-0.297-0.295-0.005-0.591-0.005-0.886 0.001M6.154 10.003c-0.001 0.071-0.003 0.214-0.004 0.285 0.072 0.006 0.215 0.020 0.287 0.027 0.001 0.662 0.001 1.325-0.002 1.987 0.073 0.006 0.218 0.018 0.291 0.024 0.007-0.669 0.006-1.338-0.001-2.007 0.077-0.008 0.231-0.024 0.309-0.032-0.001-0.071-0.002-0.213-0.003-0.284-0.292-0.005-0.585-0.005-0.877 0M7.766 9.999c-0.008 3.75 0.003 7.5-0.006 11.25 0.166 0.010 0.332 0.014 0.499 0.013 0.005-3.753-0.001-7.505 0.003-11.258-0.166-0.003-0.331-0.004-0.496-0.005M8.781 10c-0.002 0.772-0.005 1.543 0.001 2.314 0.073-0.001 0.219-0.002 0.292-0.003 0.005-0.378-0.012-0.757 0.016-1.134 0.302 0.285 0.234 0.772 0.389 1.139 0.073-0.001 0.218-0.003 0.291-0.005-0.071-0.374-0.154-0.746-0.224-1.12 0.284-0.259 0.313-0.723 0.094-1.030-0.218-0.237-0.575-0.141-0.859-0.161M10.045 10.007c0.002 0.764 0.005 1.528-0.002 2.292 0.074 0.007 0.221 0.021 0.295 0.028 0.007-0.777 0.007-1.554 0.001-2.33-0.074 0.002-0.221 0.007-0.294 0.010M10.738 10.428c-0.024 0.605-0.277 1.543 0.332 1.914 0.697 0.17 0.631-0.71 0.6-1.15-0.148 0.002-0.296 0.008-0.444 0.016-0.009 0.145 0.005 0.286 0.16 0.345 0.048 0.21-0.071 0.722-0.327 0.399-0.073-0.539-0.222-1.248 0.133-1.702 0.151 0.087 0.306 0.223 0.489 0.138-0.053-0.57-0.928-0.526-0.943 0.040M12.009 10c-0.004 0.773-0.003 1.546 0 2.319 0.072 0 0.218 0 0.29 0 0.007-0.361 0-0.723 0.008-1.084 0.132 0.001 0.264 0.001 0.397 0.002 0.020 0.36 0.007 0.721 0.012 1.081 0.073 0 0.219 0.001 0.292 0.001 0.004-0.773 0.004-1.546 0-2.318-0.073 0-0.219-0.001-0.292-0.001-0.002 0.311 0 0.622-0.003 0.934-0.137 0-0.273 0-0.409 0.001-0.002-0.312 0-0.623-0.005-0.935-0.072 0-0.217 0-0.29 0M13.23 10.006c-0.003 0.068-0.008 0.205-0.011 0.273 0.074 0.009 0.221 0.029 0.295 0.039 0.004 0.666-0.003 1.333 0.002 2 0.072 0 0.217 0.001 0.289 0.001 0.004-0.668 0.003-1.336-0.001-2.004 0.076-0.006 0.229-0.018 0.306-0.024-0.001-0.072-0.001-0.216-0.001-0.288-0.293-0.006-0.586-0.006-0.879 0.003M11.139 15.354c-0.277 0.144-0.297 0.577-0.030 0.742 0.25 0.187 0.648 0.005 0.676-0.305 0.059-0.338-0.354-0.62-0.646-0.437M11.62 16.248c-0.47 0.179-0.534 0.769-0.68 1.189-0.306 0.21-0.622 0.405-0.916 0.631 0.040 0.048 0.122 0.144 0.162 0.192 0.411-0.17 0.951-0.165 1.201-0.586 0.069 0.227 0.135 0.455 0.192 0.686-0.548 0.772-0.734 1.698-0.962 2.598 0.163 0.057 0.327 0.115 0.491 0.172 0.297-0.656 0.295-1.495 0.898-1.971 0.282 0.697 0.54 1.403 0.814 2.103 0.125-0.089 0.25-0.18 0.373-0.273-0.171-0.757-0.392-1.505-0.538-2.266 0.107-0.524-0.020-1.049-0.193-1.543 0.077 0.013 0.229 0.041 0.306 0.055 0.039 0.361 0.077 0.723 0.103 1.085 0.094 0.028 0.189 0.053 0.285 0.077 0-0.455 0.011-0.911-0.002-1.367-0.441-0.352-0.96-0.71-1.534-0.782M3.411 18.132c0.118 0.374-0.149 0.712-0.236 1.063-0.511-0.209-1.172-0.073-1.447 0.437-0.372 0.587-0.005 1.457 0.677 1.594 0.678 0.197 1.412-0.426 1.332-1.127-0.004-0.356-0.268-0.609-0.454-0.883 0.557 0.458 1.224 1.047 1.368 1.789 0.031-0.005 0.092-0.014 0.123-0.019-0.13-0.288-0.047-0.568 0.318-0.529 0.182 0.525 0.739 0.924 1.303 0.774 0.7-0.127 1.081-1.023 0.687-1.616-0.294-0.518-0.992-0.643-1.501-0.38-0.125-0.169-0.328-0.312-0.344-0.537 0.16-0.073 0.337-0.134 0.435-0.293-0.34-0.005-0.681 0.008-1.020 0.039 0.115 0.131 0.287 0.18 0.438 0.257-0.515 0.039-1.032 0.011-1.548 0.019 0.066-0.203 0.096-0.412 0.040-0.62 0.141-0.005 0.282-0.009 0.422-0.013l-0.006-0.111c-0.134-0.002-0.268-0.004-0.402-0.005-0.046 0.040-0.139 0.121-0.185 0.161z"></path>
<path fill="#fff" d="M12.020 3.399c0.898-0.261 1.158 0.906 0.768 1.488-0.202 0.197-0.514 0.116-0.767 0.132-0.003-0.54-0.002-1.080-0.001-1.62z"></path>
<path fill="#fff" d="M9.077 10.293c0.079 0.007 0.238 0.021 0.318 0.028 0.11 0.185 0.105 0.41 0.019 0.603-0.084 0.003-0.253 0.009-0.337 0.012-0.004-0.214-0.004-0.429 0-0.643z"></path>
<path fill="#fff" d="M3.428 18.914c0.52-0.014 1.039-0.006 1.559-0.007-0.104 0.326-0.215 0.65-0.317 0.977-0.115 0.032-0.231 0.064-0.346 0.097-0.285-0.367-0.637-0.679-0.896-1.067z"></path>
<path fill="#fff" d="M4.742 20.306c0.147-0.421 0.248-0.861 0.439-1.265 0.082 0.093 0.163 0.186 0.243 0.28-0.232 0.271-0.359 0.606-0.361 0.964-0.080 0.005-0.241 0.015-0.321 0.021z"></path>
<path fill="#fff" d="M1.791 20.096c0.035-0.623 0.783-0.989 1.315-0.687-0.081 0.339-0.355 0.555-0.592 0.786 0.351 0.201 0.557-0.432 0.775-0.651 0.389 0.414 0.302 1.162-0.229 1.41-0.574 0.337-1.364-0.203-1.269-0.858z"></path>
<path fill="#fff" d="M5.693 19.397c0.684-0.375 1.596 0.324 1.288 1.079-0.246 0.782-1.46 0.731-1.677-0.049 0.337-0.086 0.685-0.12 1.019-0.214-0.217-0.266-0.435-0.532-0.63-0.816z"></path>
<path fill="#fff" d="M5.526 19.494c0.183 0.189 0.341 0.4 0.493 0.614-0.246 0.046-0.494 0.085-0.742 0.119 0.005-0.266 0.093-0.517 0.249-0.733z"></path>
<path fill="#050505" opacity="0.75" d="M13.999 23.839c0.511 0.010 0.975-0.24 1.355-0.561l0.145 0.005c-0.307 0.397-0.788 0.591-1.258 0.717h-12.473c-0.31-0.090-0.62-0.198-0.879-0.394l0.146-0.036c0.333 0.158 0.69 0.287 1.065 0.271 3.967-0.003 7.933 0.001 11.899-0.002z"></path>
</svg>
