<?xml version="1.0" encoding="utf-8"?>
<!-- Generated by IcoMoon.io -->
<!DOCTYPE svg PUBLIC "-//W3C//DTD SVG 1.1//EN" "http://www.w3.org/Graphics/SVG/1.1/DTD/svg11.dtd">
<svg version="1.1" xmlns="http://www.w3.org/2000/svg" xmlns:xlink="http://www.w3.org/1999/xlink" width="24" height="24" viewBox="0 0 24 24">
<path fill="#fff" d="M11.007 0h1.877c2.244 0.182 4.442 0.975 6.25 2.324 2.538 1.87 4.334 4.776 4.742 7.911-0.462-2.618-1.751-5.102-3.723-6.899-2.166-2.038-5.119-3.206-8.091-3.218-2.416-0.037-4.838 0.686-6.841 2.038-0.248 0.152-0.453 0.383-0.743 0.46 1.858-1.496 4.161-2.39 6.53-2.616z"></path>
<path fill="#fff" d="M4.199 13.843c1.511-2.596 2.992-5.21 4.514-7.799 0.64 0.368 1.289 0.72 1.914 1.111-1.529 2.607-3.002 5.248-4.55 7.841 1.021-0.333 2.074-0.582 3.114-0.853-0.569 0.955-1.088 1.953-1.69 2.881-1.523 0.4-3.043 0.817-4.565 1.211-0.397-1.515-0.814-3.023-1.213-4.537 0.486-0.997 1.107-1.95 1.653-2.927 0.273 1.025 0.543 2.050 0.823 3.072z"></path>
<path fill="#fff" d="M13.263 7.131c0.636-0.357 1.266-0.725 1.898-1.088 1.542 2.571 2.983 5.209 4.528 7.778 0.277-1.015 0.546-2.032 0.818-3.048 0.559 0.965 1.131 1.925 1.665 2.904-0.415 1.514-0.819 3.030-1.222 4.547-1.528-0.368-3.051-0.805-4.575-1.204-0.594-0.936-1.117-1.926-1.686-2.881 1.048 0.262 2.094 0.536 3.125 0.852-1.558-2.592-3.051-5.232-4.551-7.86z"></path>
<path fill="#038cff" d="M5.22 2.156c2.003-1.352 4.424-2.075 6.841-2.038 2.973 0.011 5.925 1.18 8.091 3.218 1.972 1.797 3.261 4.281 3.723 6.899 0.042 0.196 0.085 0.391 0.124 0.587v2.65l-0.005-0.307c-0.3 2.563-1.357 5.053-3.126 6.947-2.006 2.231-4.88 3.609-7.859 3.888h-2.003c-2.655-0.25-5.237-1.352-7.182-3.19-2.194-2.003-3.547-4.85-3.825-7.798v-2.004c0.287-3.25 1.917-6.359 4.477-8.392 0.29-0.076 0.495-0.307 0.743-0.46M4.199 13.843c-0.279-1.022-0.55-2.047-0.823-3.072-0.546 0.977-1.167 1.93-1.653 2.927 0.399 1.514 0.815 3.022 1.213 4.537 1.523-0.395 3.043-0.811 4.565-1.211 0.602-0.928 1.121-1.926 1.69-2.881-1.040 0.272-2.093 0.521-3.114 0.853 1.548-2.593 3.021-5.234 4.55-7.841-0.625-0.391-1.274-0.743-1.914-1.111-1.523 2.589-3.003 5.204-4.514 7.799M13.263 7.131c1.5 2.629 2.993 5.269 4.551 7.86-1.031-0.316-2.077-0.59-3.125-0.852 0.569 0.955 1.092 1.945 1.686 2.881 1.524 0.399 3.048 0.836 4.575 1.204 0.403-1.517 0.806-3.034 1.222-4.547-0.533-0.979-1.106-1.939-1.665-2.904-0.272 1.016-0.541 2.033-0.818 3.048-1.545-2.569-2.987-5.206-4.528-7.778-0.632 0.363-1.262 0.731-1.898 1.088z"></path>
</svg>
