<?xml version="1.0" encoding="utf-8"?>
<!-- Generated by IcoMoon.io -->
<!DOCTYPE svg PUBLIC "-//W3C//DTD SVG 1.1//EN" "http://www.w3.org/Graphics/SVG/1.1/DTD/svg11.dtd">
<svg version="1.1" xmlns="http://www.w3.org/2000/svg" xmlns:xlink="http://www.w3.org/1999/xlink" width="24" height="24" viewBox="0 0 24 24">
<path fill="#fff" d="M1.867 0h0.345c-0.098 0.155-0.217 0.295-0.345 0.425v-0.425z"></path>
<path fill="#fff" d="M21.694 0h0.439v0.799c-0.019-0.149-0.044-0.299-0.066-0.448-0.123-0.118-0.244-0.239-0.373-0.351z"></path>
<path fill="#fff" d="M2.255 0.721c0.11-0.163 0.228-0.375 0.46-0.341 6.155-0.006 12.308-0.003 18.463-0.002 0.233-0.039 0.368 0.155 0.476 0.326-0.013 7.599 0.004 15.197-0.009 22.796-0.081 0.080-0.162 0.161-0.243 0.242-5.162 0.029-10.323 0.004-15.486 0.013-1.138-0.013-2.278 0.027-3.417-0.021-0.080-0.105-0.161-0.208-0.242-0.311 0.004-7.567 0.009-15.134-0.002-22.701M13.202 2.157c-0.62 0.286-0.86 1.006-0.97 1.629-0.115 0.823-0.097 1.697 0.235 2.471 0.194 0.461 0.608 0.894 1.143 0.881 0.471 0.027 0.868-0.311 1.082-0.706 0.379-0.692 0.413-1.508 0.366-2.278-0.046-0.624-0.202-1.29-0.653-1.75-0.301-0.319-0.801-0.417-1.203-0.246M9.147 2.196c0.004 1.611-0.004 3.22 0.004 4.831 0.076-0.003 0.227-0.009 0.303-0.012 0.011-1.398-0.012-2.796 0.012-4.194 0.567 1.411 1.193 2.799 1.78 4.202 0.087 0 0.263-0.002 0.352-0.003 0-1.607-0.001-3.216 0-4.825-0.076-0.001-0.227-0.003-0.303-0.004-0.005 1.398 0.007 2.797-0.006 4.195-0.617-1.394-1.205-2.8-1.81-4.199-0.083 0.002-0.249 0.007-0.332 0.010M3.189 10.382c-0.191 0.482-0.186 1.142 0.234 1.507 0.335 0.26 0.818 0.27 1.111 0.59 0.237 0.316 0.209 0.78 0.028 1.116-0.18 0.303-0.619 0.337-0.906 0.181-0.31-0.185-0.348-0.573-0.413-0.892-0.062-0.009-0.186-0.027-0.247-0.036 0.018 0.395 0.078 0.827 0.368 1.122 0.407 0.407 1.205 0.291 1.446-0.244 0.181-0.418 0.191-0.918 0.032-1.345-0.197-0.476-0.768-0.514-1.164-0.741-0.45-0.223-0.459-0.894-0.162-1.244 0.258-0.307 0.799-0.252 0.982 0.109 0.176 0.203-0.005 0.661 0.388 0.601-0.025-0.398-0.093-0.853-0.443-1.102-0.417-0.311-1.069-0.098-1.255 0.379M5.185 9.965c-0.001 0.111-0.002 0.222-0.003 0.334 0.278 0.002 0.557 0.002 0.835 0.002-0.003 1.266-0.001 2.532-0.001 3.798 0.068 0.001 0.206 0.004 0.274 0.005-0.001-1.268-0.002-2.537 0-3.805 0.282 0 0.563 0.001 0.845 0-0.001-0.112-0.001-0.224-0.002-0.336-0.65 0-1.299 0-1.948 0.001M8.202 9.966c-0.422 0.237-0.618 0.722-0.723 1.171-0.143 0.71-0.134 1.467 0.102 2.156 0.143 0.411 0.444 0.827 0.899 0.905 0.433 0.087 0.848-0.196 1.052-0.563 0.287-0.511 0.353-1.115 0.356-1.692-0.034-0.602-0.113-1.255-0.516-1.734-0.276-0.332-0.786-0.452-1.17-0.242M10.37 9.969c0.007 1.378 0.001 2.756 0.003 4.134 0.066-0.001 0.197-0.001 0.262-0.002 0-0.606 0-1.212 0-1.818 0.4-0.009 0.848 0.055 1.197-0.183 0.4-0.303 0.446-0.866 0.379-1.326-0.039-0.336-0.229-0.691-0.581-0.774-0.416-0.070-0.841-0.028-1.26-0.031M12.656 9.965c-0.001 1.378 0.002 2.757-0.002 4.135 0.063 0.002 0.188 0.004 0.251 0.006 0.003-0.608 0-1.215 0.001-1.823 0.476-0.001 1.086 0.071 1.394-0.382 0.297-0.497 0.292-1.198-0.037-1.679-0.416-0.43-1.077-0.203-1.606-0.258M19.078 10.182c-0.385 0.417-0.475 1.010-0.517 1.554-0.021 0.682 0.016 1.418 0.385 2.013 0.229 0.383 0.738 0.585 1.157 0.396 0.319-0.115 0.474-0.438 0.615-0.722 0.002 0.226 0.004 0.453 0.007 0.679 0.054 0 0.164-0.001 0.219-0.002-0.004-0.71-0.002-1.421-0.003-2.132-0.381-0.003-0.761-0.003-1.141 0.002 0.001 0.082 0.002 0.247 0.002 0.33 0.301 0 0.602 0 0.902 0.002-0.027 0.464-0.061 0.983-0.4 1.339-0.266 0.288-0.775 0.302-1.038 0.002-0.31-0.343-0.41-0.822-0.448-1.27-0.014-0.593 0.014-1.222 0.301-1.756 0.19-0.359 0.686-0.551 1.043-0.318 0.303 0.178 0.406 0.529 0.499 0.844 0.065 0.012 0.195 0.035 0.26 0.048-0.062-0.415-0.191-0.861-0.534-1.131-0.379-0.31-0.995-0.252-1.31 0.123M15.023 14.102c0.065 0 0.193-0.001 0.258-0.001-0.002-1.376-0.005-2.752 0.001-4.128-0.062-0.006-0.187-0.018-0.25-0.023-0.020 1.383-0.001 2.768-0.010 4.153M15.962 9.963c0.003 1.38 0.003 2.759 0 4.139 0.065 0.001 0.194 0.001 0.258 0.002 0.004-1.194-0.011-2.387 0.007-3.581 0.527 1.186 1.022 2.386 1.535 3.577 0.076 0.001 0.227 0.003 0.303 0.003-0.006-1.373 0.005-2.746-0.005-4.118-0.063-0.010-0.188-0.029-0.25-0.037-0.010 1.205 0.007 2.412-0.009 3.617-0.522-1.194-1.028-2.393-1.54-3.589-0.075-0.003-0.225-0.009-0.3-0.012M4.164 16.147c-0.359 1.385-0.706 2.772-1.062 4.157 0.066-0.007 0.198-0.021 0.265-0.028 0.125-0.417 0.212-0.844 0.316-1.266 0.406-0.011 0.812-0.007 1.218-0.009 0.117 0.422 0.193 0.855 0.318 1.276 0.065 0.006 0.196 0.020 0.261 0.028-0.341-1.385-0.681-2.769-1.029-4.151-0.095-0.002-0.191-0.004-0.286-0.006M8.857 16.16c0.32 0.778 0.654 1.553 0.943 2.342 0.039 0.595 0.003 1.194 0.014 1.79 0.065-0.001 0.194-0.002 0.258-0.002 0.058-0.758-0.163-1.577 0.203-2.279 0.253-0.626 0.538-1.239 0.767-1.875-0.074 0.010-0.219 0.029-0.292 0.038-0.281 0.642-0.531 1.297-0.791 1.948-0.305-0.642-0.527-1.319-0.801-1.974-0.1 0.004-0.201 0.009-0.3 0.013M11.452 16.165c-0.004 0.080-0.012 0.241-0.015 0.321 0.286 0.002 0.572 0.002 0.858 0.003 0 1.266 0 2.533 0 3.801 0.066 0 0.199 0.001 0.266 0.001 0.002-1.269-0.006-2.538 0.004-3.806 0.283 0.003 0.564 0.004 0.847 0.001 0-0.111 0-0.221 0-0.332-0.653 0.004-1.308-0.021-1.959 0.011M15.373 16.154c0.002 1.38 0.001 2.759 0.001 4.139 0.067-0.001 0.203-0.002 0.27-0.003 0.011-1.214-0.021-2.429 0.018-3.643 0.274 1.225 0.574 2.444 0.867 3.664 0.058-0.009 0.172-0.027 0.228-0.035 0.31-1.21 0.606-2.426 0.861-3.649 0.050 1.22 0.011 2.442 0.023 3.662 0.065 0.001 0.197 0.003 0.263 0.004 0-1.379-0.001-2.759 0-4.14-0.13 0-0.26-0.001-0.39 0-0.272 1.217-0.591 2.425-0.848 3.645-0.325-1.209-0.594-2.432-0.895-3.647-0.133 0.001-0.266 0.002-0.399 0.003M18.789 16.154c0.001 1.379 0.001 2.758 0 4.138 0.609 0 1.218 0.002 1.827-0.001-0.002-0.082-0.006-0.246-0.009-0.329-0.516-0.003-1.031-0.001-1.548-0.002-0.005-0.548-0.007-1.097 0-1.645 0.461 0.006 0.922 0.007 1.382-0.002 0-0.082-0.001-0.246-0.001-0.327-0.462-0.005-0.924-0.003-1.387-0.004 0.002-0.497 0.002-0.994 0-1.491 0.508-0.002 1.015 0 1.523-0.001 0-0.112 0-0.225 0-0.337-0.596 0.001-1.193-0.001-1.789 0.002M6.117 16.148c0.002 1.38 0.001 2.761 0.001 4.14 0.067 0.001 0.202 0.003 0.269 0.004 0.003-1.199-0.010-2.399 0.005-3.598 0.51 1.203 1.025 2.405 1.54 3.605 0.069-0.003 0.208-0.010 0.277-0.013 0.048-1.249 0.002-2.503 0.021-3.755-0.035-0.165 0.103-0.546-0.259-0.389-0.009 1.198 0.004 2.397-0.006 3.596-0.502-1.107-0.963-2.235-1.447-3.351-0.035-0.211-0.207-0.277-0.401-0.239M14.15 16.158c0.004 1.377 0.004 2.754 0 4.131 0.063 0.001 0.189 0.002 0.251 0.003-0.001-1.381 0.002-2.764-0.001-4.145-0.063 0.002-0.188 0.007-0.25 0.011z"></path>
<path fill="#fff" d="M13.332 2.514c0.324-0.108 0.705-0.026 0.931 0.239 0.444 0.496 0.491 1.201 0.523 1.835-0.020 0.641-0.078 1.343-0.503 1.858-0.277 0.343-0.836 0.413-1.179 0.127-0.371-0.3-0.512-0.787-0.581-1.241-0.087-0.618-0.071-1.257 0.092-1.861 0.113-0.387 0.322-0.797 0.718-0.957z"></path>
<path fill="#fff" d="M8.313 10.274c0.321-0.174 0.742-0.042 0.943 0.254 0.341 0.468 0.371 1.077 0.369 1.635-0.026 0.505-0.080 1.063-0.437 1.456-0.269 0.33-0.837 0.327-1.105-0.001-0.415-0.487-0.442-1.174-0.43-1.783 0.033-0.562 0.137-1.241 0.66-1.561z"></path>
<path fill="#fff" d="M10.635 10.302c0.379 0.023 0.822-0.096 1.142 0.166 0.268 0.309 0.24 0.791 0.102 1.153-0.24 0.452-0.83 0.281-1.245 0.311 0.001-0.544 0.002-1.088 0-1.631z"></path>
<path fill="#fff" d="M12.906 10.301c0.405 0.029 0.942-0.122 1.223 0.26 0.183 0.37 0.179 0.869-0.075 1.205-0.317 0.27-0.77 0.137-1.149 0.167 0-0.545 0-1.089 0-1.633z"></path>
<path fill="#fff" d="M4.308 16.518c0.158 0.713 0.341 1.42 0.509 2.13-0.346 0.002-0.69 0.002-1.036-0.003 0.178-0.708 0.32-1.426 0.527-2.127z"></path>
<path fill="#fff" d="M21.961 24c-0.095-0.178 0.077-0.351 0.173-0.486v0.486h-0.173z"></path>
<path fill="#fff" d="M1.867 23.69c0.118 0.061 0.197 0.176 0.203 0.31h-0.203v-0.31z"></path>
<path fill="#be1f13" d="M2.211 0h19.483c0.129 0.112 0.251 0.233 0.373 0.351 0.022 0.149 0.047 0.299 0.066 0.448v22.715c-0.096 0.135-0.268 0.308-0.173 0.486h-19.891c-0.005-0.134-0.084-0.25-0.203-0.31v-23.265c0.128-0.129 0.246-0.27 0.345-0.425M2.255 0.721c0.011 7.567 0.006 15.134 0.002 22.701 0.081 0.103 0.162 0.207 0.242 0.311 1.138 0.048 2.278 0.009 3.417 0.021 5.163-0.009 10.324 0.016 15.486-0.013 0.081-0.081 0.162-0.162 0.243-0.242 0.013-7.599-0.004-15.197 0.009-22.796-0.108-0.172-0.243-0.366-0.476-0.326-6.155-0.001-12.308-0.004-18.463 0.002-0.231-0.034-0.35 0.178-0.46 0.341z"></path>
<path fill="#be1f13" d="M13.202 2.157c0.402-0.171 0.902-0.073 1.203 0.246 0.451 0.461 0.607 1.126 0.653 1.75 0.047 0.77 0.013 1.586-0.366 2.278-0.213 0.395-0.61 0.733-1.082 0.706-0.535 0.013-0.949-0.42-1.143-0.881-0.332-0.774-0.35-1.648-0.235-2.471 0.11-0.623 0.35-1.343 0.97-1.629M13.332 2.514c-0.396 0.16-0.605 0.57-0.718 0.957-0.163 0.605-0.179 1.244-0.092 1.861 0.069 0.453 0.21 0.941 0.581 1.241 0.342 0.286 0.901 0.217 1.179-0.127 0.426-0.515 0.483-1.217 0.503-1.858-0.032-0.634-0.079-1.339-0.523-1.835-0.226-0.265-0.607-0.347-0.931-0.239z"></path>
<path fill="#be1f13" d="M9.147 2.196c0.083-0.002 0.249-0.007 0.332-0.010 0.605 1.399 1.194 2.805 1.81 4.199 0.014-1.398 0.001-2.797 0.006-4.195 0.076 0.001 0.227 0.003 0.303 0.004-0.001 1.609 0 3.217 0 4.825-0.089 0.001-0.265 0.003-0.352 0.003-0.588-1.403-1.213-2.79-1.78-4.202-0.023 1.398-0.001 2.796-0.012 4.194-0.076 0.003-0.227 0.009-0.303 0.012-0.009-1.611 0-3.22-0.004-4.831z"></path>
<path fill="#be1f13" d="M3.189 10.382c0.187-0.477 0.838-0.69 1.255-0.379 0.35 0.249 0.418 0.704 0.443 1.102-0.394 0.061-0.212-0.398-0.388-0.601-0.183-0.361-0.724-0.416-0.982-0.109-0.297 0.35-0.288 1.021 0.162 1.244 0.396 0.227 0.966 0.266 1.164 0.741 0.159 0.427 0.149 0.927-0.032 1.345-0.241 0.535-1.039 0.652-1.446 0.244-0.29-0.295-0.35-0.727-0.368-1.122 0.062 0.010 0.186 0.028 0.247 0.036 0.065 0.319 0.102 0.707 0.413 0.892 0.287 0.156 0.725 0.122 0.906-0.181 0.181-0.336 0.209-0.8-0.028-1.116-0.293-0.32-0.777-0.33-1.111-0.59-0.419-0.365-0.425-1.025-0.234-1.507z"></path>
<path fill="#be1f13" d="M5.185 9.965c0.649-0.001 1.298-0.001 1.948-0.001 0.001 0.112 0.001 0.224 0.002 0.336-0.282 0.001-0.563 0-0.845 0-0.002 1.268-0.001 2.537 0 3.805-0.068-0.001-0.206-0.004-0.274-0.005 0-1.266-0.002-2.532 0.001-3.798-0.278 0-0.557 0-0.835-0.002 0.001-0.112 0.002-0.223 0.003-0.334z"></path>
<path fill="#be1f13" d="M8.202 9.966c0.384-0.21 0.894-0.090 1.17 0.242 0.403 0.479 0.482 1.133 0.516 1.734-0.003 0.577-0.069 1.181-0.356 1.692-0.204 0.367-0.619 0.651-1.052 0.563-0.455-0.078-0.756-0.494-0.899-0.905-0.237-0.689-0.245-1.445-0.102-2.156 0.106-0.449 0.301-0.934 0.723-1.171M8.313 10.274c-0.524 0.32-0.627 0.998-0.66 1.561-0.012 0.609 0.015 1.296 0.43 1.783 0.268 0.329 0.836 0.331 1.105 0.001 0.357-0.393 0.412-0.951 0.437-1.456 0.002-0.558-0.028-1.167-0.369-1.635-0.201-0.295-0.622-0.428-0.943-0.254z"></path>
<path fill="#be1f13" d="M10.37 9.969c0.419 0.003 0.844-0.039 1.26 0.031 0.352 0.083 0.542 0.438 0.581 0.774 0.067 0.46 0.021 1.023-0.379 1.326-0.349 0.239-0.797 0.175-1.197 0.183 0 0.606 0 1.212 0 1.818-0.065 0.001-0.196 0.001-0.262 0.002-0.002-1.378 0.004-2.756-0.003-4.134M10.635 10.302c0.002 0.543 0.001 1.087 0 1.631 0.415-0.031 1.005 0.141 1.245-0.311 0.138-0.362 0.165-0.844-0.102-1.153-0.32-0.262-0.764-0.143-1.142-0.166z"></path>
<path fill="#be1f13" d="M12.656 9.965c0.529 0.055 1.19-0.172 1.606 0.258 0.33 0.481 0.334 1.182 0.037 1.679-0.308 0.453-0.918 0.381-1.394 0.382-0.001 0.608 0.002 1.215-0.001 1.823-0.063-0.002-0.188-0.004-0.251-0.006 0.004-1.378 0.001-2.757 0.002-4.135M12.906 10.301c0 0.544 0 1.088 0 1.633 0.379-0.031 0.832 0.102 1.149-0.167 0.254-0.336 0.258-0.835 0.075-1.205-0.282-0.382-0.818-0.231-1.223-0.26z"></path>
<path fill="#be1f13" d="M19.078 10.182c0.315-0.374 0.931-0.433 1.31-0.123 0.343 0.27 0.473 0.716 0.534 1.131-0.065-0.013-0.195-0.036-0.26-0.048-0.093-0.315-0.196-0.666-0.499-0.844-0.357-0.234-0.853-0.042-1.043 0.318-0.287 0.533-0.315 1.163-0.301 1.756 0.038 0.448 0.138 0.927 0.448 1.27 0.262 0.3 0.772 0.286 1.038-0.002 0.339-0.355 0.373-0.875 0.4-1.339-0.301-0.002-0.602-0.002-0.902-0.002 0-0.082-0.001-0.247-0.002-0.33 0.381-0.005 0.761-0.005 1.141-0.002 0.001 0.711-0.001 1.422 0.003 2.132-0.054 0.001-0.164 0.002-0.219 0.002-0.003-0.226-0.005-0.453-0.007-0.679-0.142 0.284-0.297 0.607-0.615 0.722-0.419 0.189-0.928-0.013-1.157-0.396-0.369-0.595-0.406-1.331-0.385-2.013 0.043-0.544 0.132-1.137 0.517-1.554z"></path>
<path fill="#be1f13" d="M15.023 14.102c0.009-1.385-0.011-2.769 0.010-4.153 0.063 0.005 0.188 0.017 0.25 0.023-0.006 1.376-0.003 2.752-0.001 4.128-0.065 0-0.193 0.001-0.258 0.001z"></path>
<path fill="#be1f13" d="M15.962 9.963c0.075 0.003 0.225 0.009 0.3 0.012 0.512 1.197 1.019 2.396 1.54 3.589 0.016-1.205-0.001-2.412 0.009-3.617 0.062 0.009 0.187 0.028 0.25 0.037 0.011 1.373-0.001 2.746 0.005 4.118-0.076 0-0.227-0.002-0.303-0.003-0.513-1.19-1.008-2.39-1.535-3.577-0.018 1.194-0.003 2.387-0.007 3.581-0.064-0.001-0.193-0.001-0.258-0.002 0.003-1.379 0.003-2.758 0-4.139z"></path>
<path fill="#be1f13" d="M4.164 16.147c0.095 0.002 0.191 0.004 0.286 0.006 0.349 1.382 0.688 2.767 1.029 4.151-0.065-0.007-0.196-0.021-0.261-0.028-0.125-0.42-0.201-0.853-0.318-1.276-0.406 0.001-0.812-0.002-1.218 0.009-0.103 0.422-0.191 0.849-0.316 1.266-0.066 0.006-0.198 0.020-0.265 0.028 0.356-1.385 0.703-2.772 1.062-4.157M4.308 16.518c-0.207 0.701-0.349 1.419-0.527 2.127 0.346 0.005 0.69 0.005 1.036 0.003-0.167-0.71-0.351-1.418-0.509-2.13z"></path>
<path fill="#be1f13" d="M8.857 16.16c0.099-0.004 0.199-0.009 0.3-0.013 0.274 0.655 0.496 1.332 0.801 1.974 0.26-0.651 0.511-1.306 0.791-1.948 0.074-0.010 0.219-0.029 0.292-0.038-0.229 0.636-0.514 1.249-0.767 1.875-0.366 0.703-0.145 1.521-0.203 2.279-0.064 0-0.193 0.001-0.258 0.002-0.011-0.596 0.026-1.195-0.014-1.79-0.289-0.789-0.623-1.565-0.943-2.342z"></path>
<path fill="#be1f13" d="M11.452 16.165c0.652-0.032 1.307-0.006 1.959-0.011 0 0.111 0 0.221 0 0.332-0.283 0.003-0.564 0.002-0.847-0.001-0.011 1.268-0.002 2.537-0.004 3.806-0.066 0-0.199-0.001-0.266-0.001 0-1.267 0-2.534 0-3.801-0.286-0.001-0.572-0.001-0.858-0.003 0.003-0.080 0.011-0.241 0.015-0.321z"></path>
<path fill="#be1f13" d="M15.373 16.154c0.133-0.001 0.266-0.002 0.399-0.003 0.301 1.215 0.57 2.438 0.895 3.647 0.257-1.22 0.576-2.428 0.848-3.645 0.13-0.001 0.26 0 0.39 0-0.001 1.38 0 2.761 0 4.14-0.066-0.001-0.198-0.003-0.263-0.004-0.013-1.22 0.027-2.442-0.023-3.662-0.255 1.223-0.55 2.439-0.861 3.649-0.057 0.009-0.171 0.027-0.228 0.035-0.293-1.22-0.593-2.439-0.867-3.664-0.039 1.214-0.007 2.429-0.018 3.643-0.067 0.001-0.203 0.002-0.27 0.003 0-1.379 0.001-2.758-0.001-4.139z"></path>
<path fill="#be1f13" d="M18.789 16.154c0.596-0.003 1.193-0.001 1.789-0.002 0 0.112 0 0.225 0 0.337-0.508 0.001-1.015-0.001-1.523 0.001 0.002 0.497 0.002 0.994 0 1.491 0.463 0.001 0.925-0.001 1.387 0.004 0 0.081 0.001 0.245 0.001 0.327-0.461 0.010-0.922 0.009-1.382 0.002-0.007 0.548-0.005 1.097 0 1.645 0.516 0.001 1.031-0.001 1.548 0.002 0.002 0.082 0.006 0.246 0.009 0.329-0.609 0.003-1.218 0.001-1.827 0.001 0.001-1.379 0.001-2.758 0-4.138z"></path>
<path fill="#be1f13" d="M6.117 16.148c0.194-0.038 0.366 0.028 0.401 0.239 0.484 1.117 0.945 2.244 1.447 3.351 0.011-1.199-0.002-2.398 0.006-3.596 0.363-0.157 0.224 0.224 0.259 0.389-0.019 1.251 0.027 2.506-0.021 3.755-0.069 0.003-0.208 0.010-0.277 0.013-0.515-1.2-1.030-2.402-1.54-3.605-0.015 1.199-0.002 2.399-0.005 3.598-0.067-0.001-0.202-0.003-0.269-0.004 0-1.379 0.001-2.759-0.001-4.14z"></path>
<path fill="#be1f13" d="M14.15 16.158c0.062-0.003 0.187-0.009 0.25-0.011 0.003 1.381 0 2.764 0.001 4.145-0.062-0.001-0.188-0.002-0.251-0.003 0.004-1.377 0.004-2.754 0-4.131z"></path>
</svg>
