<svg xmlns="http://www.w3.org/2000/svg" width="24" height="24">
    <path d="M0 0h24v24H0V0zm.221.221v23.594c7.87.004 15.739-.004 23.608.004.014-7.865 0-15.73.007-23.593C15.965.214 8.093.224.221.221z"/>
    <path fill="#fff" d="M.221.221C8.093.223 15.965.214 23.836.226c-.007 7.864.007 15.728-.007 23.593-7.868-.007-15.738 0-23.608-.004V.221zm1.374.891c-.528.181-.82.749-.774 1.288.002 6.481-.002 12.961.001 19.442-.062.733.596 1.398 1.334 1.325 6.482.001 12.965.002 19.448 0 .733.065 1.399-.589 1.34-1.326.002-6.521.006-13.042-.002-19.562.046-.726-.641-1.312-1.344-1.253-6.439-.005-12.878.001-19.318-.004-.23.006-.468.008-.686.09z"/>
    <path fill="#fff" d="M1.229 2.268c-.036-.5.445-.888.925-.834 6.266-.001 12.534-.007 18.8.002-1.112 1.138-2.249 2.249-3.366 3.38l-.083-.097c-1.964-2.43-5.594-3.282-8.454-2.04-2.474.996-4.381 3.419-4.589 6.101-.041.581-.041 1.165.007 1.747.162 1.849 1.144 3.634 2.592 4.788-1.921 1.981-3.9 3.906-5.838 5.87.005-6.306-.006-12.613.005-18.918zM20.029 2.629c.478-.407.823-.998 1.418-1.243-1.223 1.285-2.441 2.61-3.798 3.749.66-.942 1.603-1.656 2.38-2.506zM21.103 2.022c.253-.24.47-.564.842-.618-1.079 1.166-2.244 2.251-3.352 3.39-.238.23-.45.526-.799.586 1.056-1.163 2.216-2.228 3.308-3.358zM21.222 2.381c.335-.306.6-.721 1.046-.876a72.82 72.82 0 0 1-4.271 4.266c.898-1.268 2.173-2.24 3.224-3.39zM21.397 2.677c.355-.332.65-.749 1.099-.962-.365.62-.972 1.043-1.448 1.573-.982.92-1.852 1.973-2.911 2.801l-.134.073c1.043-1.241 2.275-2.312 3.395-3.485zM19 5.558c1.216-1.16 2.345-2.417 3.604-3.529-.233.578-.809.911-1.202 1.373-.988.932-1.878 1.991-2.928 2.844.047-.302.34-.472.527-.688zM18.418 6.718c1.312-1.477 2.76-2.849 4.184-4.222-.108.457-.54.703-.833 1.033-1.152 1.094-2.192 2.315-3.424 3.32l.072-.132zM18.816 6.718c1.238-1.249 2.488-2.486 3.728-3.732-.004 6.288.004 12.576-.004 18.864.052.517-.431.956-.941.887-6.274-.002-12.546.001-18.82-.002 2.069-2.088 4.16-4.153 6.235-6.235l.211.101c.461.229.961.388 1.478.41.781.06 1.568.064 2.351-.001 3.216-.403 5.929-3.254 6.242-6.47.04-.619.043-1.242-.011-1.86-.037-.678-.259-1.324-.472-1.961zm-11.798 12.4l.43.023c.282-.218.62-.28.954-.14.017.466-.389.659-.803.626-.001.161-.004.322-.006.482.349.013.894.042.851.529-.151.286-.521.179-.781.186l-.197-.348c-.169.016-.338.034-.508.052.056.958 1.535 1.145 1.946.359.19-.355-.036-.726-.272-.99.299-.342.416-.896.089-1.258-.523-.487-1.578-.299-1.703.479zm3.093-.62c-.426.156-.632.624-.604 1.055.014.523-.112 1.174.346 1.553.491.44 1.375.202 1.564-.436.101-.464.07-.952.036-1.423-.067-.607-.791-.996-1.342-.749zm1.975-.064c-.004.952.005 1.904-.006 2.856.176.011.353.022.529.031.011-.416.011-.833.011-1.249l.91.001v1.235h.52v-2.874h-.52v1.154l-.911.002-.001-1.157h-.532zm2.403 2.871l.485.006.174-.409c.313.002.626.002.94.002l.128.394.538.008c-.266-.955-.559-1.903-.818-2.86l-.62-.028c-.293.956-.587 1.914-.826 2.886z"/>
    <path fill="#fff" d="M9.13 4.687c2.326-1.361 5.513-.703 7.177 1.396-.23.242-.466.48-.703.716-.732-1.014-2.513-.922-3.05.235-.328.811-.104 1.716-.166 2.568.084.599-.55.888-.877 1.283.002-.51-.054-1.062-.456-1.426.52-.608.38-1.486.287-2.216-.274-1.217-2.028-1.529-2.822-.647-.353.353-.425.864-.462 1.338.331.011.662.01.994.004-.102-.545.314-1.072.89-.935.739.094.642 1.028.552 1.566-.128.504-.734.443-1.138.46v.842c.389.029.946-.017 1.116.43.112.451.094.934.023 1.391-.114.598-.996.742-1.351.286-.216-.253-.169-.613-.21-.922l-.942.001c-.119.906.419 1.8 1.316 2.038a54.82 54.82 0 0 1-.968.961c-1.081-.935-1.877-2.227-2.052-3.662-.332-2.248.846-4.619 2.843-5.706zM15.661 7.156c.152-.403.496-.689.844-.924l-.07.138c-.163.34-.475.572-.774.786zM15.781 7.528c.138-.384.444-.698.791-.904l.149-.071c-.224.4-.571.713-.94.974z"/>
    <path fill="#fff" d="M13.451 7.346c.323-.578 1.222-.438 1.459.149-.523.515-1.036 1.039-1.561 1.552.04-.563-.106-1.164.102-1.7zM15.8 8.425a3.574 3.574 0 0 1 1.117-1.187l.143-.07a4.62 4.62 0 0 1-1.26 1.256zM15.8 8.904c.342-.584.868-1.046 1.398-1.457l-.067.138c-.348.517-.832.949-1.331 1.319zM13.276 9.527c.414-.698 1.082-1.21 1.664-1.765-.358.725-1.051 1.253-1.664 1.765zM15.799 9.384c.39-.622.956-1.124 1.526-1.58l-.068.143a6.183 6.183 0 0 1-1.458 1.438zM13.272 10.001c.418-.696 1.082-1.21 1.666-1.765-.341.732-1.042 1.271-1.666 1.765zM15.91 9.658c.438-.533.953-1.004 1.464-1.468.39 1.715.047 3.606-1.087 4.974-1.358 1.729-3.746 2.498-5.868 1.945.805-.834 1.645-1.634 2.452-2.466.736.647 2 .648 2.624-.15.656-.803.271-1.9.415-2.836zM13.273 10.962c.408-.706 1.082-1.219 1.668-1.774-.353.731-1.055 1.258-1.668 1.774zM13.345 11.839c.402-.665 1.034-1.158 1.596-1.685-.337.697-.998 1.21-1.596 1.685zM11.436 11.388c.19-.478.617-.793.995-1.116-.166.491-.607.806-.995 1.116z"/>
    <path fill="#fff" d="M13.516 12.018c.449-.469.91-.926 1.376-1.378-.025.418.096.882-.106 1.267-.284.434-.892.38-1.271.11zM11.389 11.906c.22-.484.641-.826 1.04-1.157-.167.514-.636.839-1.04 1.157zM9.416 14.647c1.063-.941 1.945-2.1 3.086-2.942-.835 1.139-2.004 1.992-2.909 3.076-.06-.043-.119-.089-.178-.133zM10.066 15.052c.833-.966 1.76-1.864 2.706-2.72-.193.545-.726.85-1.091 1.271-.499.445-.9 1.016-1.466 1.379l-.149.071zM8.497 14.238c.342-.468.746-.922 1.26-1.202-.3.433-.661.852-1.112 1.129l-.148.073zM8.759 14.45c.443-.538.902-1.134 1.546-1.435-.428.488-.854 1.015-1.404 1.368l-.142.067zM6.404 16.244c.325-.313.607-.692 1.034-.876-2.006 2.172-4.136 4.25-6.271 6.299.097-.373.422-.6.676-.864 1.523-1.517 3.041-3.04 4.561-4.559zM1.721 21.402c1.992-1.951 3.917-3.971 5.938-5.89-.067.18-.142.366-.288.499-1.723 1.716-3.442 3.438-5.162 5.158-.338.329-.641.707-1.058.943.128-.283.353-.499.571-.71zM7.78 16.298c.106-.096.211-.217.367-.212-1.756 1.969-3.743 3.77-5.586 5.676-.331.325-.636.689-1.038.934.18-.378.516-.638.802-.931 1.819-1.82 3.643-3.637 5.455-5.466zM10.237 18.982c.878-.35.731.905.694 1.423.043.557-.852.612-.896.067.029-.48-.203-1.132.203-1.49zM15.287 20.423c.102-.368.206-.737.346-1.093.119.361.224.727.328 1.093h-.673z"/>
    <path fill="#201b16" d="M1.595 1.112c.218-.082.456-.084.686-.09 6.439.005 12.878-.001 19.318.004.703-.059 1.39.527 1.344 1.253.008 6.521.005 13.042.002 19.562.059.737-.607 1.391-1.34 1.326-6.484.002-12.966.001-19.448 0-.738.073-1.397-.592-1.334-1.325C.819 15.361.824 8.881.822 2.4c-.046-.539.246-1.106.774-1.288zm-.366 1.156c-.011 6.305 0 12.612-.005 18.918 1.938-1.964 3.917-3.889 5.838-5.87.064-.052.188-.155.252-.206l-.029-.026c.372-.32.718-.671 1.054-1.027.328-.316.649-.638.968-.961-.898-.238-1.435-1.132-1.316-2.038l.942-.001c.041.308-.006.668.21.922.355.456 1.237.312 1.351-.286.071-.457.089-.94-.023-1.391-.17-.446-.727-.401-1.116-.43V9.03c.403-.017 1.009.044 1.138-.46.09-.538.187-1.472-.552-1.566-.576-.137-.992.39-.89.935-.331.006-.662.007-.994-.004.037-.474.109-.985.462-1.338.794-.882 2.549-.57 2.822.647.094.731.233 1.608-.287 2.216.402.364.458.916.456 1.426.328-.395.961-.684.877-1.283.061-.852-.162-1.757.166-2.568.538-1.157 2.318-1.249 3.05-.235.238-.236.473-.474.703-.716.352-.337.695-.682 1.048-1.016l.151-.347.083.097c1.117-1.132 2.254-2.243 3.366-3.38-6.266-.01-12.534-.004-18.8-.002-.48-.054-.961.334-.925.834zm18.8.361c-.776.85-1.72 1.564-2.38 2.506 1.357-1.139 2.575-2.464 3.798-3.749-.595.245-.941.836-1.418 1.243zm1.074-.607c-1.092 1.129-2.252 2.195-3.308 3.358.349-.06.562-.355.799-.586 1.108-1.139 2.273-2.224 3.352-3.39-.372.054-.589.378-.842.618zm.119.359c-1.051 1.15-2.327 2.122-3.224 3.39a72.82 72.82 0 0 0 4.271-4.266c-.446.155-.712.57-1.046.876zm.175.296c-1.12 1.172-2.352 2.244-3.395 3.485-.456.246-.781.668-1.085 1.076-.451.3-.848.714-1.117 1.187.492-.332.93-.761 1.26-1.256.456-.24.79-.66 1.076-1.08 1.06-.828 1.93-1.88 2.911-2.801.476-.53 1.084-.953 1.448-1.573-.449.214-.744.63-1.099.962zM19 5.558c-.187.216-.48.385-.527.688 1.05-.853 1.94-1.912 2.928-2.844.394-.462.97-.794 1.202-1.373-1.259 1.112-2.388 2.369-3.604 3.529zm-.582 1.16c-.419.296-.846.628-1.092 1.086-.57.456-1.136.959-1.526 1.58a6.164 6.164 0 0 0 1.458-1.438c.419-.3.841-.635 1.088-1.097 1.231-1.006 2.272-2.226 3.424-3.32.293-.33.725-.576.833-1.033-1.424 1.373-2.873 2.744-4.184 4.222zm.398 0l-.305.314c-.382.383-.808.727-1.138 1.158-.511.463-1.026.935-1.464 1.468-.144.936.241 2.033-.415 2.836-.624.798-1.889.797-2.624.15-.806.832-1.646 1.632-2.452 2.466-.392.37-.774.751-1.135 1.152l-.161.07.104.269-.211-.101c-2.075 2.082-4.166 4.147-6.235 6.235 6.274.004 12.546 0 18.82.002.51.07.992-.37.941-.887.007-6.288 0-12.576.004-18.864-1.241 1.246-2.49 2.483-3.728 3.732zm-2.311-.486c-.348.235-.691.521-.844.924.299-.214.611-.446.774-.786a4.49 4.49 0 0 0 1.176-1.204c-.428.281-.846.618-1.106 1.066zm.067.392c-.347.205-.653.52-.791.904.368-.262.715-.575.94-.974.493-.254.842-.718 1.158-1.159-.542.276-.954.745-1.307 1.23zm.29.191c-.43.294-.823.665-1.064 1.13.382-.264.77-.566.995-.98.478-.342.937-.745 1.208-1.277-.428.314-.881.652-1.139 1.127zm1.368-.49c-.342.373-.798.66-1.032 1.122-.53.41-1.056.872-1.398 1.457.499-.37.983-.802 1.331-1.319.407-.325.916-.659 1.103-1.15.244.168.151-.39-.004-.11zm-4.779 1.021c-.208.536-.062 1.138-.102 1.7.526-.512 1.038-1.037 1.561-1.552-.238-.587-1.136-.727-1.459-.149zm-.175 2.181c.613-.512 1.307-1.04 1.664-1.765-.582.556-1.25 1.067-1.664 1.765zm-.004.474c.624-.494 1.325-1.033 1.666-1.765-.583.556-1.248 1.069-1.666 1.765zm.001.483c.606-.527 1.318-1.043 1.668-1.778-.589.552-1.272 1.064-1.668 1.778zm0 .478c.613-.516 1.315-1.043 1.668-1.774-.586.554-1.26 1.068-1.668 1.774zm-.001.484c.61-.524 1.319-1.045 1.669-1.781-.589.553-1.274 1.064-1.669 1.781zm.073.393c.598-.475 1.259-.988 1.596-1.685-.562.527-1.194 1.02-1.596 1.685zm-1.909-.451c.388-.31.829-.625.995-1.116-.378.323-.805.638-.995 1.116zm2.08.63c.379.27.986.324 1.271-.11.202-.385.08-.85.106-1.267a47.05 47.05 0 0 0-1.376 1.378zm-2.127-.112c.404-.318.874-.643 1.04-1.157-.4.331-.821.673-1.04 1.157zM9.158 14.51c-.427.301-.799.673-1.142 1.066.019.133.178.172.239.028.292-.304.64-.572.834-.953.894-.665 1.597-1.554 2.413-2.31.325-.36.775-.641.931-1.123-1.116 1.066-2.262 2.135-3.275 3.293zm.258.137c.059.044.118.09.178.133.905-1.084 2.074-1.937 2.909-3.076-1.141.842-2.023 2.002-3.086 2.942zm.284.281c-.448.244-.77.665-1.062 1.074-.515.337-.899.833-1.346 1.25-1.806 1.853-3.718 3.613-5.458 5.526.59-.214.919-.806 1.386-1.198 1.835-1.898 3.806-3.676 5.552-5.651.452-.246.782-.66 1.079-1.07.989-.846 1.968-1.782 2.777-2.807-1.079.827-2.021 1.862-2.928 2.875zm.366.124A2.908 2.908 0 0 0 9.05 16.08c-.571.395-1.01.943-1.512 1.416-1.733 1.772-3.551 3.468-5.23 5.288.593-.217.925-.81 1.393-1.204 1.741-1.802 3.619-3.488 5.276-5.363a4.74 4.74 0 0 0 1.237-1.237c.566-.362.967-.934 1.466-1.379.365-.421.898-.726 1.091-1.271-.946.857-1.873 1.754-2.706 2.72zm-1.569-.814c-.461.263-.794.701-1.114 1.115.526-.264.919-.722 1.261-1.188.451-.277.812-.696 1.112-1.129-.514.281-.918.734-1.26 1.202zm.262.212c-.456.262-.804.685-1.078 1.128A4.5 4.5 0 0 0 8.9 14.383c.55-.353.976-.88 1.404-1.368-.643.301-1.103.898-1.546 1.435zm.481.275c-.284.402-.634.752-.989 1.091-.286.138.263.265.109.011.444-.127.708-.63 1.068-.918a10.836 10.836 0 0 0-.188-.184zm-2.836 1.519c-1.52 1.519-3.038 3.042-4.561 4.559-.253.264-.578.491-.676.864 2.135-2.048 4.265-4.127 6.271-6.299-.427.184-.709.563-1.034.876zm-4.683 5.158c-.218.211-.443.427-.571.71.418-.236.72-.614 1.058-.943 1.721-1.72 3.439-3.442 5.162-5.158.146-.133.221-.319.288-.499-2.021 1.919-3.946 3.938-5.938 5.89zm6.013-5.557c-1.834 1.862-3.698 3.695-5.54 5.549-.324.34-.721.63-.923 1.066.259-.155.484-.359.692-.576 2.004-2.036 4.061-4.024 6.046-6.079l-.275.041zm.046.453c-1.812 1.829-3.636 3.646-5.455 5.466-.286.293-.622.553-.802.931.402-.245.707-.608 1.038-.934 1.843-1.906 3.83-3.707 5.586-5.676-.156-.005-.262.116-.367.212z"/>
    <path fill="#201b16" d="M7.018 19.118c.125-.778 1.18-.966 1.703-.479.328.361.21.916-.089 1.258.236.264.462.635.272.99-.412.786-1.89.599-1.946-.359.169-.018.338-.036.508-.052l.197.348c.26-.007.63.1.781-.186.043-.487-.502-.516-.851-.529l.006-.482c.414.032.82-.161.803-.626-.334-.139-.672-.078-.954.14l-.43-.023zM10.111 18.498c.551-.247 1.274.142 1.342.749.034.472.065.959-.036 1.423-.188.637-1.073.876-1.564.436-.457-.379-.331-1.03-.346-1.553-.029-.431.178-.899.604-1.055zm.126.484c-.406.359-.174 1.01-.203 1.49.044.545.94.49.896-.067.037-.518.185-1.774-.694-1.423zM12.086 18.434h.532l.001 1.157.911-.002v-1.154h.52v2.874h-.52v-1.235l-.91-.001c0 .416 0 .833-.011 1.249l-.529-.031c.011-.952.002-1.904.006-2.856zM14.489 21.305c.239-.972.533-1.93.826-2.886.206.008.414.018.62.028.259.956.552 1.904.818 2.86-.18-.004-.359-.006-.538-.008l-.128-.394c-.313 0-.626 0-.94-.002l-.174.409-.485-.006zm.798-.882h.673a25.9 25.9 0 0 0-.328-1.093c-.139.356-.244.725-.346 1.093z"/>
    <path fill="#eee" d="M9.052 2.68c2.86-1.242 6.49-.39 8.454 2.04l-.151.347c-1.722-2.084-4.666-3.049-7.28-2.328-2.564.637-4.649 2.831-5.176 5.418-.569 2.521.404 5.281 2.387 6.926l.029.026c-.064.052-.188.155-.252.206-1.448-1.154-2.43-2.939-2.592-4.788a4.165 4.165 0 0 0-.007-1.747c.208-2.682 2.114-5.105 4.589-6.101zM15.798 7.945c.241-.466.635-.836 1.064-1.13l-.07.15c-.224.414-.613.716-.995.98zM13.273 10.484c.396-.714 1.079-1.226 1.668-1.778-.35.736-1.062 1.252-1.668 1.778zM13.272 11.446c.395-.716 1.08-1.228 1.669-1.781-.35.736-1.06 1.256-1.669 1.781zM9.158 14.51c1.013-1.158 2.159-2.227 3.275-3.293-.156.482-.606.763-.931 1.123-.816.756-1.519 1.645-2.413 2.31l.07-.14zM9.7 14.928c.907-1.013 1.849-2.048 2.928-2.875-.809 1.025-1.788 1.961-2.777 2.807l-.151.068zM7.734 15.845l.275-.041c-1.985 2.056-4.042 4.043-6.046 6.079a3.408 3.408 0 0 1-.692.576c.202-.436.599-.726.923-1.066 1.842-1.854 3.707-3.686 5.54-5.549zM7.291 17.252c.448-.418.832-.913 1.346-1.25l.134-.072c-1.746 1.975-3.718 3.752-5.552 5.651-.467.391-.796.984-1.386 1.198 1.74-1.913 3.652-3.673 5.458-5.526zM7.537 17.496c.502-.473.941-1.021 1.512-1.416l-.072.138c-1.657 1.874-3.535 3.56-5.276 5.363-.468.394-.8.986-1.393 1.204 1.679-1.82 3.497-3.516 5.23-5.288z"/>
    <path fill="#c00" d="M10.074 2.738c2.615-.721 5.558.244 7.28 2.328-.353.335-.696.679-1.048 1.016-1.664-2.099-4.852-2.756-7.177-1.396-1.997 1.087-3.175 3.458-2.843 5.706.175 1.435.971 2.728 2.052 3.662a14.19 14.19 0 0 1-1.054 1.027c-1.982-1.645-2.956-4.405-2.387-6.926.527-2.587 2.611-4.781 5.176-5.418zM16.505 6.232c.26-.448.678-.785 1.106-1.066-.31.474-.715.878-1.176 1.204l.07-.138zM17.374 8.19c.33-.431.756-.775 1.138-1.158 1.08 2.695.311 6.004-1.894 7.906-1.945 1.77-4.892 2.302-7.334 1.324.361-.401.743-.782 1.135-1.152 2.122.553 4.51-.216 5.868-1.945 1.134-1.368 1.477-3.259 1.087-4.974zM7.384 15.353c.319-.414.653-.852 1.114-1.115l.148-.073c-.342.466-.736.924-1.261 1.188zM7.681 15.578c.274-.443.622-.866 1.078-1.128l.142-.067a4.515 4.515 0 0 1-1.219 1.195z"/>
    <path fill="#b50b0a" d="M16.572 6.624c.353-.485.764-.954 1.307-1.23-.316.442-.665.905-1.158 1.159l-.149.071z"/>
    <path fill="#b40706" d="M16.862 6.815c.258-.475.71-.812 1.139-1.127-.271.532-.731.935-1.208 1.277l.07-.15z"/>
    <path fill="#b80807" d="M16.918 7.238c.304-.408.629-.83 1.085-1.076l.134-.073c-.287.42-.62.84-1.076 1.08l-.143.07z"/>
    <path fill="#ded8d8" d="M18.23 6.325c.155-.28.247.278.004.11l-.004-.11z"/>
    <path fill="#b40404" d="M17.198 7.447c.234-.462.69-.749 1.032-1.122l.004.11c-.187.491-.696.824-1.103 1.15l.067-.138z"/>
    <path fill="#b20503" d="M17.326 7.804c.246-.458.673-.79 1.092-1.086l-.072.132c-.247.462-.67.797-1.088 1.097l.068-.143z"/>
    <path fill="#eaeae9" d="M18.511 7.032l.305-.314c.212.637.434 1.283.472 1.961a4.678 4.678 0 0 0 .011 1.86c-.313 3.216-3.026 6.067-6.242 6.47a7.055 7.055 0 0 0-2.351.001c-.517-.023-1.018-.181-1.478-.41l-.104-.269.161-.07c2.442.978 5.389.446 7.334-1.324 2.204-1.902 2.974-5.21 1.894-7.906z"/>
    <path fill="#73706d" d="M19.298 10.538a4.697 4.697 0 0 1-.011-1.86c.054.618.05 1.241.011 1.86z"/>
    <path fill="#75726f" d="M4.463 8.78c.13.575.125 1.17.007 1.747a11.448 11.448 0 0 1-.007-1.747z"/>
    <path fill="#b40b0b" d="M8.016 15.576c.343-.392.715-.764 1.142-1.066l-.07.14c-.194.38-.542.649-.834.953-.061.144-.22.106-.239-.028z"/>
    <path fill="#b30606" d="M9.24 14.725c.064.06.126.121.188.184-.36.288-.624.791-1.068.918l-.109-.011c.355-.338.704-.689.989-1.091z"/>
    <path fill="#b60403" d="M8.638 16.002c.292-.409.614-.83 1.062-1.074l.151-.068c-.296.41-.626.824-1.079 1.07l-.134.072z"/>
    <path fill="#b50706" d="M9.049 16.08a2.9 2.9 0 0 1 1.016-1.028l.149-.071a4.725 4.725 0 0 1-1.237 1.237l.072-.138z"/>
    <path fill="#dedcdc" d="M8.36 15.827c.154.254-.395.127-.109-.011l.109.011z"/>
    <path fill="#625f5b" d="M10.705 17.01a7.055 7.055 0 0 1 2.351-.001c-.782.065-1.57.061-2.351.001z"/>
</svg>
