<!-- Generated by IcoMoon.io -->
<svg version="1.1" xmlns="http://www.w3.org/2000/svg" width="24" height="24" viewBox="0 0 24 24">
<title>regulatory--no-pedestrians--g1</title>
<path fill="#ee1c23" d="M11.424 0h1.1c2.881 0.146 5.712 1.316 7.781 3.342 2.333 2.213 3.682 5.393 3.695 8.605v0.088c-0.023 2.504-0.818 5.004-2.309 7.022-1.507 2.068-3.686 3.646-6.137 4.393-0.997 0.318-2.039 0.47-3.080 0.55h-0.851c-2.729-0.113-5.426-1.129-7.48-2.942-2.484-2.12-3.997-5.293-4.144-8.551v-0.852c0.084-3.175 1.484-6.286 3.821-8.438 2.042-1.943 4.799-3.055 7.603-3.216M10.62 3.209c-2.504 0.374-4.799 1.888-6.145 4.031-1.006 1.584-1.486 3.492-1.351 5.364 0.132 2.071 1.027 4.079 2.473 5.566 1.314 1.361 3.066 2.304 4.939 2.599 2.132 0.364 4.394-0.088 6.215-1.259 1.638-1.037 2.927-2.617 3.593-4.44 0.727-1.96 0.73-4.178 0.005-6.14-0.673-1.853-1.991-3.461-3.667-4.498-1.789-1.114-3.98-1.549-6.061-1.223z"></path>
<path fill="#fff" d="M10.62 3.209c2.081-0.326 4.272 0.109 6.061 1.223 1.676 1.037 2.994 2.645 3.667 4.498 0.725 1.962 0.722 4.181-0.005 6.14-0.666 1.823-1.955 3.403-3.593 4.44-1.82 1.171-4.082 1.622-6.215 1.259-1.873-0.295-3.625-1.238-4.939-2.599-1.446-1.487-2.341-3.494-2.473-5.566-0.134-1.872 0.346-3.78 1.351-5.364 1.346-2.143 3.641-3.656 6.145-4.031M11 5.177c-0.066 0.352-0.116 0.728-0.388 0.989 0.322 0.007 0.29 0.314 0.257 0.542 0.248 0.089 0.348 0.355 0.576 0.476-1.024 0.492-0.959 1.913-1.914 2.468-0.274 0.205-0.619 0.371-0.715 0.728-0.187 0.1-0.394 0.174-0.553 0.318-0.203 0.17-0.031 0.42 0.136 0.535 0.365 0.078 0.551-0.287 0.731-0.528 0.083-0.008 0.248-0.026 0.331-0.036 0.584-0.36 1.024-0.911 1.609-1.273 0.122 0.787 0.22 1.579 0.346 2.365-0.812 1.296-1.237 2.776-1.853 4.164-0.112 0.277-0.271 0.546-0.28 0.853-0.402 0.035-0.805 0.020-1.205 0.058-0.013 0.043-0.040 0.13-0.053 0.173 0.386 0.252 0.792 0.534 1.276 0.506 0.088 0.301 0.448 0.246 0.689 0.325 0.072-0.23 0.138-0.462 0.206-0.694 0.079 0.023 0.238 0.067 0.317 0.090 0.55-1.502 0.953-3.116 2.017-4.36 0.299 0.336 0.5 0.739 0.672 1.151 0.287 0.676 0.75 1.25 1.147 1.86 0.236 0.347 0.44 0.72 0.734 1.024-0.091 0.407-0.306 0.764-0.643 1.013 0.299 0.026 0.599 0.070 0.899 0.042 0.202-0.115 0.286-0.365 0.425-0.544 0.52-0.15 0.154-0.698 0.023-1.014 0.1-0.094 0.198-0.188 0.296-0.283-0.802-1.080-1.664-2.184-1.955-3.53-0.028-0.263-0.274-0.56-0.070-0.796-0.174-0.625-0.413-1.231-0.569-1.861-0.127-0.458 0.006-0.929 0.023-1.392 0.32 0.096 0.572 0.316 0.758 0.589 0.017 0.454-0.007 0.91 0.034 1.363l0.167 0.131c-0.001 0.28-0.026 0.557-0.054 0.834l0.203 0.005c-0.028 0.1-0.082 0.298-0.109 0.397 0.59 0.023 0.702-0.839 0.486-1.253l0.176-0.030c-0.053-0.493-0.049-0.99-0.053-1.486 0.028-0.284-0.206-0.492-0.367-0.697-0.463-0.498-0.972-0.96-1.535-1.342-0.288-0.103-0.588-0.172-0.877-0.276-0.122-0.386 0.022-0.76 0.138-1.126-0.272 0.011-0.275-0.283-0.41-0.444-0.355-0.044-0.713-0.035-1.069-0.037z"></path>
<path fill="#000" d="M11 5.177c0.356 0.002 0.714-0.007 1.069 0.037 0.136 0.161 0.138 0.455 0.41 0.444-0.116 0.366-0.26 0.739-0.138 1.126 0.289 0.104 0.589 0.173 0.877 0.276 0.563 0.382 1.072 0.844 1.535 1.342 0.161 0.205 0.395 0.413 0.367 0.697 0.004 0.496 0 0.992 0.053 1.486l-0.176 0.030c0.216 0.414 0.104 1.276-0.486 1.253 0.028-0.1 0.082-0.298 0.109-0.397l-0.203-0.005c0.028-0.277 0.053-0.554 0.054-0.834l-0.167-0.131c-0.041-0.454-0.017-0.91-0.034-1.363-0.186-0.274-0.438-0.493-0.758-0.589-0.017 0.463-0.15 0.934-0.023 1.392 0.156 0.63 0.395 1.236 0.569 1.861-0.204 0.235 0.042 0.533 0.070 0.796 0.29 1.346 1.153 2.45 1.955 3.53-0.098 0.095-0.197 0.19-0.296 0.283 0.131 0.316 0.497 0.864-0.023 1.014-0.139 0.179-0.223 0.428-0.425 0.544-0.3 0.028-0.6-0.016-0.899-0.042 0.337-0.248 0.552-0.606 0.643-1.013-0.294-0.304-0.498-0.677-0.734-1.024-0.397-0.61-0.86-1.184-1.147-1.86-0.172-0.412-0.373-0.815-0.672-1.151-1.064 1.243-1.468 2.857-2.017 4.36-0.079-0.023-0.238-0.067-0.317-0.090-0.068 0.232-0.134 0.463-0.206 0.694-0.241-0.079-0.601-0.024-0.689-0.325-0.484 0.028-0.889-0.254-1.276-0.506 0.013-0.043 0.040-0.13 0.053-0.173 0.4-0.037 0.803-0.023 1.205-0.058 0.008-0.307 0.168-0.576 0.28-0.853 0.616-1.388 1.040-2.868 1.853-4.164-0.126-0.786-0.223-1.578-0.346-2.365-0.586 0.362-1.025 0.913-1.609 1.273-0.083 0.010-0.248 0.028-0.331 0.036-0.18 0.241-0.366 0.606-0.731 0.528-0.167-0.115-0.338-0.365-0.136-0.535 0.16-0.144 0.366-0.218 0.553-0.318 0.096-0.358 0.442-0.523 0.715-0.728 0.955-0.556 0.89-1.976 1.914-2.468-0.228-0.121-0.328-0.388-0.576-0.476 0.034-0.228 0.065-0.535-0.257-0.542 0.271-0.26 0.322-0.637 0.388-0.989z"></path>
</svg>
