<?xml version="1.0" encoding="utf-8"?>
<!-- Generated by IcoMoon.io -->
<!DOCTYPE svg PUBLIC "-//W3C//DTD SVG 1.1//EN" "http://www.w3.org/Graphics/SVG/1.1/DTD/svg11.dtd">
<svg version="1.1" xmlns="http://www.w3.org/2000/svg" xmlns:xlink="http://www.w3.org/1999/xlink" width="24" height="24" viewBox="0 0 24 24">
<path fill="#d71920" d="M10.58 0.499c2.468-0.28 5.024 0.27 7.154 1.554 2.288 1.375 4.082 3.568 4.933 6.104 0.805 2.351 0.814 4.964 0.022 7.32-0.817 2.458-2.504 4.615-4.693 6-2.142 1.387-4.768 1.993-7.302 1.735-2.639-0.257-5.166-1.481-7.010-3.384-1.778-1.805-2.924-4.222-3.188-6.743-0.268-2.416 0.262-4.913 1.494-7.008 1.783-3.067 5.056-5.214 8.591-5.579M10.381 2.716c-2.969 0.451-5.636 2.466-6.9 5.189-1.028 2.159-1.162 4.721-0.372 6.977 0.613 1.788 1.801 3.367 3.334 4.472 1.596 1.169 3.584 1.782 5.561 1.742 2.003-0.023 3.992-0.722 5.561-1.969 1.528-1.195 2.672-2.88 3.192-4.751 0.631-2.195 0.404-4.621-0.622-6.662-0.845-1.703-2.234-3.127-3.912-4.021-1.771-0.953-3.857-1.301-5.842-0.977z"></path>
<path fill="#fff" d="M10.381 2.716c1.985-0.324 4.070 0.024 5.842 0.977 1.678 0.894 3.067 2.318 3.912 4.021 1.026 2.041 1.253 4.468 0.622 6.662-0.52 1.871-1.664 3.556-3.192 4.751-1.568 1.247-3.558 1.946-5.561 1.969-1.976 0.040-3.965-0.574-5.561-1.742-1.532-1.105-2.72-2.684-3.334-4.472-0.79-2.256-0.656-4.818 0.372-6.977 1.264-2.723 3.931-4.738 6.9-5.189M10.103 6.492c-0.001 1.679-0.001 3.358-0.001 5.035 2.696 0 5.393 0 8.088 0 0-1.678 0-3.356 0-5.035-2.696 0-5.392 0-8.087 0M8.075 8.873c-0.289 0.652-0.574 1.304-0.862 1.956-0.509-0.001-1.018 0.001-1.525-0.002 0.004 0.578 0.002 1.156 0 1.733 0.353-0.002 0.706-0.002 1.058 0-0.167 0.557-0.803 0.268-1.226 0.335 0 0.071 0 0.215 0 0.287 0.337 0 0.674 0 1.012-0.002 0.116 0.478 0.497 0.928 1.027 0.901 0.523 0.017 0.893-0.431 1.010-0.901 0.304 0.002 0.607 0.002 0.911 0.001-0.001-0.072-0.002-0.214-0.002-0.286-0.313 0-0.625 0-0.937 0.002-0.041-0.085-0.121-0.256-0.162-0.341 0.281 0.002 0.56 0.002 0.841 0.005-0.002-1.23-0.001-2.459-0.001-3.689-0.382 0.001-0.763 0-1.144 0.001M10.102 11.946c0 0.412 0 0.823 0 1.234 1.636 0.001 3.271 0.001 4.907 0.001 0.115 0.496 0.529 0.953 1.078 0.898 0.505-0.010 0.835-0.449 0.955-0.898 0.383 0 0.766 0 1.148 0 0-0.412 0-0.823 0-1.234-2.696-0.001-5.392-0.001-8.088-0.001M9.4 15.504c-0.19 0.115-0.188 0.373-0.264 0.557 0.25-0.025 0.396-0.228 0.588-0.358 0.253-0.082 0.377 0.313 0.194 0.454-0.313 0.294-0.698 0.538-0.826 0.976 0.418 0.028 0.835 0.020 1.253 0.020 0-0.073-0.001-0.218-0.001-0.292-0.269 0-0.538-0.002-0.805-0.006 0.293-0.263 0.784-0.44 0.806-0.895 0.014-0.475-0.589-0.697-0.946-0.456M10.83 15.496c-0.385 0.322-0.326 0.928-0.204 1.364 0.136 0.439 0.84 0.47 1.014 0.048 0.144-0.354 0.13-0.762 0.035-1.127-0.096-0.35-0.557-0.478-0.845-0.286M5.527 16.396c0.361 0.212 0.724 0.421 1.084 0.635-0.022-0.078-0.064-0.234-0.085-0.313 0.646 0 1.291 0 1.937 0.001-0.001-0.218-0.001-0.436-0.001-0.654-0.641 0.001-1.283 0-1.925 0.001 0.016-0.071 0.046-0.211 0.060-0.282-0.353 0.21-0.712 0.409-1.069 0.612M12.684 15.83c-0.004 0.44-0.001 0.881-0.004 1.321 0.085 0.001 0.257 0.002 0.343 0.004-0.004-0.341-0.001-0.682 0.019-1.022 0.126-0.004 0.252-0.006 0.379-0.007 0.037 0.343 0.038 0.688 0.036 1.032 0.083 0 0.248 0 0.332-0.001 0-0.287-0.017-0.576 0.018-0.862 0.012-0.21 0.239-0.158 0.383-0.193 0.032 0.35 0.034 0.702 0.030 1.054 0.086-0.001 0.259-0.002 0.344-0.004-0.007-0.354 0.025-0.713-0.029-1.064-0.125-0.337-0.521-0.276-0.781-0.155-0.223-0.106-0.463-0.092-0.696-0.028-0.126-0.026-0.251-0.052-0.376-0.074M17.117 15.787c0.011 0.071 0.031 0.211 0.042 0.282-0.636-0.008-1.271-0.002-1.907-0.005 0 0.218 0 0.436-0.001 0.654 0.646-0.002 1.29 0 1.934-0.001-0.022 0.079-0.067 0.236-0.089 0.316 0.361-0.212 0.722-0.426 1.086-0.634-0.355-0.205-0.712-0.406-1.066-0.612z"></path>
<path fill="#fff" d="M10.97 15.769l0.035-0.086c0.461-0.122 0.384 0.479 0.396 0.767 0.016 0.227-0.122 0.665-0.412 0.436-0.149-0.348-0.137-0.762-0.019-1.116z"></path>
<path fill="#011323" d="M10.103 6.492c2.695 0 5.39 0 8.087 0 0 1.679 0 3.358 0 5.035-2.695 0-5.392 0-8.088 0 0-1.678 0-3.356 0.001-5.035z"></path>
<path fill="#011323" d="M8.075 8.873c0.38-0.001 0.762 0 1.144-0.001 0 1.23-0.001 2.459 0.001 3.689-0.281-0.002-0.56-0.002-0.841-0.005 0.041 0.085 0.121 0.256 0.162 0.341 0.312-0.002 0.624-0.002 0.937-0.002 0 0.072 0.001 0.214 0.002 0.286-0.304 0.001-0.607 0.001-0.911-0.001-0.118 0.47-0.487 0.918-1.010 0.901-0.53 0.026-0.911-0.424-1.027-0.901-0.337 0.002-0.674 0.002-1.012 0.002 0-0.072 0-0.216 0-0.287 0.424-0.067 1.060 0.222 1.226-0.335-0.353-0.002-0.706-0.002-1.058 0 0.002-0.577 0.004-1.154 0-1.733 0.508 0.004 1.016 0.001 1.525 0.002 0.288-0.652 0.572-1.304 0.862-1.956z"></path>
<path fill="#011323" d="M10.102 11.946c2.696 0 5.392 0 8.088 0.001 0 0.41 0 0.822 0 1.234-0.383 0-0.766 0-1.148 0-0.12 0.449-0.45 0.888-0.955 0.898-0.548 0.055-0.962-0.402-1.078-0.898-1.636 0-3.271 0-4.907-0.001 0-0.41 0-0.822 0-1.234z"></path>
<path fill="#011323" d="M9.4 15.504c0.356-0.241 0.96-0.019 0.946 0.456-0.023 0.455-0.514 0.632-0.806 0.895 0.268 0.004 0.536 0.006 0.805 0.006 0 0.073 0.001 0.218 0.001 0.292-0.418 0-0.835 0.007-1.253-0.020 0.127-0.438 0.512-0.682 0.826-0.976 0.182-0.14 0.059-0.535-0.194-0.454-0.192 0.13-0.338 0.332-0.588 0.358 0.076-0.184 0.074-0.442 0.264-0.557z"></path>
<path fill="#011323" d="M10.83 15.496c0.288-0.192 0.749-0.065 0.845 0.286 0.095 0.365 0.109 0.773-0.035 1.127-0.174 0.422-0.878 0.391-1.014-0.048-0.122-0.437-0.181-1.043 0.204-1.364M10.97 15.769c-0.118 0.354-0.13 0.768 0.019 1.116 0.289 0.229 0.427-0.209 0.412-0.436-0.012-0.288 0.065-0.889-0.396-0.767l-0.035 0.086z"></path>
<path fill="#011323" d="M5.527 16.396c0.358-0.203 0.716-0.402 1.069-0.612-0.014 0.071-0.044 0.211-0.060 0.282 0.642-0.001 1.284 0 1.925-0.001 0 0.218 0 0.436 0.001 0.654-0.646-0.001-1.291-0.001-1.937-0.001 0.022 0.079 0.064 0.235 0.085 0.313-0.36-0.214-0.722-0.422-1.084-0.635z"></path>
<path fill="#011323" d="M12.684 15.83c0.125 0.023 0.25 0.048 0.376 0.074 0.233-0.065 0.473-0.078 0.696 0.028 0.26-0.121 0.656-0.182 0.781 0.155 0.054 0.352 0.022 0.71 0.029 1.064-0.085 0.001-0.258 0.002-0.344 0.004 0.004-0.352 0.002-0.703-0.030-1.054-0.144 0.035-0.371-0.017-0.383 0.193-0.035 0.286-0.018 0.575-0.018 0.862-0.084 0.001-0.25 0.001-0.332 0.001 0.002-0.344 0.001-0.689-0.036-1.032-0.127 0.001-0.253 0.004-0.379 0.007-0.020 0.341-0.023 0.682-0.019 1.022-0.086-0.001-0.258-0.002-0.343-0.004 0.002-0.44 0-0.881 0.004-1.321z"></path>
<path fill="#011323" d="M17.117 15.787c0.354 0.206 0.71 0.407 1.066 0.612-0.364 0.208-0.725 0.421-1.086 0.634 0.022-0.079 0.067-0.236 0.089-0.316-0.644 0.001-1.289-0.001-1.934 0.001 0.001-0.218 0.001-0.436 0.001-0.654 0.636 0.002 1.271-0.004 1.907 0.005-0.011-0.071-0.031-0.211-0.042-0.282z"></path>
</svg>
