<svg xmlns="http://www.w3.org/2000/svg" width="24" height="24">
    <path d="M2 0h19.997c.499.15.832.655.825 1.169.003 7.205 0 14.409.001 21.614.022.529-.309 1.059-.825 1.217H2.003c-.5-.15-.834-.655-.827-1.169-.002-7.221-.001-14.441 0-21.662C1.168.656 1.501.153 1.999 0zm.73 1.98c-.437.399-.45 1.177.003 1.57.467.419 1.147.435 1.65.79.303.211.217.738-.132.853-.509.215-1.101-.091-1.303-.586-.239.089-.479.175-.716.267.327 1.169 2.014 1.508 2.825.655.424-.474.406-1.31-.095-1.724-.375-.317-.863-.439-1.314-.607-.158-.064-.329-.136-.422-.287-.105-.174-.005-.419.176-.498.385-.165.912-.042 1.089.366.231-.076.463-.152.693-.231-.263-1.035-1.733-1.229-2.454-.568zm3.668-.333c-.004 1.419-.002 2.838 0 4.258.258.002.516.001.773.001V4.313c.431-.01.864.023 1.294-.023.489-.06.936-.407 1.075-.886.24-.682-.139-1.554-.884-1.697-.744-.126-1.507-.033-2.258-.059zm4.075.005c-.005 1.417-.002 2.835-.001 4.252.974.003 1.948.001 2.922 0 0-.246.002-.491-.002-.737-.715-.006-1.43 0-2.145-.003V4.077l1.24-.001c0-.246.003-.491-.003-.737-.413-.003-.825 0-1.237-.001V2.39l2.016-.001c0-.246.002-.492-.002-.737-.929-.005-1.858-.004-2.787 0zm3.922.001c-.007 1.418-.001 2.835-.003 4.253h2.92c.002-.247.003-.493-.001-.739-.714-.002-1.428 0-2.142-.001V4.079l1.236-.001c0-.246.001-.491-.001-.737-.412-.002-.824 0-1.235-.001v-.948c.671-.002 1.342.003 2.013-.003.004-.245.004-.491 0-.736-.93-.003-1.859-.005-2.789.001zm3.914-.002a670.243 670.243 0 0 0 0 4.254c.806-.041 1.684.146 2.422-.27.731-.411 1.018-1.32.935-2.116-.048-.683-.417-1.379-1.063-1.665-.721-.322-1.531-.166-2.295-.202zM4.233 6.567c-.002 1.416-.001 2.832 0 4.248h2.813v-.743l-2.038-.001c-.001-1.168.001-2.336-.001-3.505a49.795 49.795 0 0 0-.773 0zm3.691-.007v4.255c.257.002.515.001.772 0V6.56h-.772zm2.032 0v4.254c.258.002.516.001.774.001 0-.847.005-1.693-.004-2.539.39.884.78 1.767 1.172 2.648.387-.89.806-1.767 1.169-2.668-.014.853-.004 1.706-.006 2.559h.771V6.559h-.745c-.398.898-.792 1.797-1.187 2.696-.38-.903-.782-1.797-1.173-2.696h-.771zm5.136 0v4.256l.77.001c.003-1.419.001-2.838.001-4.257h-.771zm1.763-.003V7.3h1.192c.001 1.172-.001 2.343.001 3.515h.772V7.3h1.193v-.743h-3.159zm-.901 6.354a2.823 2.823 0 0 0-1.65.737c-.565.525-.904 1.246-1.112 1.979-.245.893-.323 1.826-.293 2.751.049 1.005.203 2.029.66 2.936.301.603.764 1.143 1.375 1.445 1.205.583 2.827.363 3.695-.705.555-.654.85-1.487 1.013-2.318a9.783 9.783 0 0 0 .069-3.139c-.135-.923-.405-1.858-.99-2.601-.634-.842-1.739-1.218-2.767-1.085zm-7.39.153c-1.692 2.186-3.369 4.385-5.053 6.577-.084.25-.013.535-.036.799 1.671.002 3.342 0 5.013.001v2.437h1.275v-2.437h1.386v-1.143H9.764v-6.256c-.397.016-.814-.033-1.199.023z"/>
    <path d="M7.172 2.391c.413.014.83-.03 1.239.025.532.119.525.999.001 1.126-.409.056-.828.01-1.24.025V2.39zM19.082 2.391c.415.024.875-.083 1.248.151.411.265.555.79.547 1.254.002.461-.162.976-.579 1.223-.367.223-.811.125-1.216.146V2.39zM15.908 14.129c.77-.203 1.625.173 1.982.886.601 1.155.613 2.513.543 3.783-.071.859-.218 1.777-.772 2.469-.52.659-1.542.78-2.24.346-.409-.257-.675-.686-.841-1.129-.292-.776-.361-1.615-.371-2.438.001-.881.067-1.782.384-2.611.219-.596.668-1.165 1.315-1.307zM5.158 19.297c1.109-1.475 2.216-2.951 3.329-4.423.003 1.474.001 2.948.001 4.422-1.11.001-2.22-.001-3.33.001z"/>
    <path fill="#fff" d="M2.73 1.98c.721-.66 2.191-.467 2.454.568-.23.079-.462.155-.693.231-.177-.408-.705-.532-1.089-.366-.181.079-.281.323-.176.498.093.151.265.224.422.287.451.168.938.29 1.314.607.501.414.519 1.249.095 1.724-.811.853-2.498.513-2.825-.655.238-.092.477-.178.716-.267.202.495.794.801 1.303.586.348-.115.435-.641.132-.853-.502-.355-1.182-.371-1.65-.79-.453-.392-.441-1.17-.003-1.57zM6.398 1.647c.751.026 1.515-.067 2.258.059.744.143 1.123 1.016.884 1.697-.139.479-.586.826-1.075.886-.429.046-.863.013-1.294.023v1.593c-.258 0-.516.001-.773-.001-.002-1.419-.003-2.839 0-4.258zm.774.744v1.177c.413-.015.831.031 1.24-.025.524-.127.531-1.007-.001-1.126-.41-.055-.827-.011-1.239-.025zM10.473 1.652c.929-.003 1.858-.004 2.787 0 .005.246.002.491.002.737l-2.016.001v.948c.413.001.825-.001 1.237.001.007.246.003.491.003.737l-1.24.001v1.087c.715.002 1.43-.003 2.145.003.005.246.002.491.002.737-.974.001-1.948.002-2.922 0 0-1.418-.003-2.835.001-4.253zM14.395 1.653c.93-.006 1.859-.004 2.789-.001.003.245.004.491 0 .736-.671.006-1.343 0-2.013.003v.948c.412.001.823-.001 1.235.001.002.246.001.491.001.737l-1.236.001v1.087l2.142.001c.004.246.003.493.001.739h-2.92c.001-1.418-.004-2.835.003-4.253zM18.309 1.651c.764.037 1.574-.12 2.295.203.645.287 1.014.982 1.063 1.665.083.796-.203 1.705-.935 2.116-.738.416-1.616.229-2.422.27a670.243 670.243 0 0 1 0-4.254zm.773.74v2.775c.405-.021.849.076 1.216-.146.417-.247.581-.762.579-1.223.008-.465-.136-.99-.547-1.254-.373-.235-.833-.127-1.248-.151zM4.233 6.567c.258-.002.516-.002.773 0 .003 1.169 0 2.337.001 3.505l2.038.001v.743H4.232V6.568zM7.924 6.56h.772v4.255h-.772V6.56zM9.956 6.56h.771c.391.899.793 1.792 1.173 2.696.395-.899.788-1.798 1.187-2.696h.745v4.256h-.771c.002-.853-.008-1.706.006-2.559-.363.9-.781 1.777-1.169 2.668-.392-.882-.782-1.765-1.172-2.648.008.847.003 1.693.004 2.539-.258 0-.516.001-.774-.001V6.561zM15.092 6.56h.771c0 1.419.002 2.838-.001 4.257l-.77-.001V6.56zM16.855 6.557h3.159V7.3h-1.193v3.515h-.772c-.002-1.172 0-2.343-.001-3.515h-1.192a92.009 92.009 0 0 1 0-.743zM15.954 12.911c1.028-.134 2.133.243 2.767 1.085.585.742.855 1.678.99 2.601a9.754 9.754 0 0 1-.069 3.139c-.163.832-.458 1.665-1.013 2.318-.868 1.068-2.49 1.288-3.695.705-.611-.302-1.074-.842-1.375-1.445-.457-.907-.611-1.931-.66-2.936-.03-.924.048-1.857.293-2.751.208-.733.547-1.454 1.112-1.979a2.825 2.825 0 0 1 1.65-.737zm-.046 1.218c-.647.142-1.096.711-1.315 1.307-.317.83-.383 1.731-.384 2.611.009.823.079 1.662.371 2.438.166.443.433.872.841 1.129.698.434 1.72.313 2.24-.346.554-.692.701-1.61.772-2.469.07-1.27.058-2.628-.543-3.783-.357-.713-1.212-1.089-1.982-.886zM8.564 13.064c.385-.057.802-.007 1.199-.023v6.256h1.385v1.143H9.762v2.437H8.487V20.44c-1.671-.001-3.342.001-5.013-.001.023-.263-.048-.548.036-.799 1.684-2.192 3.36-4.391 5.053-6.577zm-3.406 6.233c1.11-.002 2.22 0 3.33-.001 0-1.474.002-2.948-.001-4.422-1.113 1.472-2.22 2.948-3.329 4.423z"/>
</svg>
