<svg xmlns="http://www.w3.org/2000/svg" width="24" height="24">
    <path fill="#0363b5" d="M10.748 0h2.493c.814.151 1.633.29 2.422.544-.279.634-.578 1.257-.87 1.883-1.932-.02-3.862.004-5.794-.014-.364.014-.817-.025-1.063.303-.587.811-.886 1.79-1.427 2.627-.338.507-1.246.595-1.229 1.312.018 1.072-.047 2.148-.012 3.219.017.498.539.631.925.757-.021.43.061.853.145 1.273.61.027 1.22-.009 1.827-.055.014-.438.02-.877.027-1.315.939-.001 1.88-.007 2.819.004-.381.819-.759 1.638-1.147 2.453-.244.124-.487.25-.728.377.094.19.189.381.278.574a3.794 3.794 0 0 1-.059.128 15.747 15.747 0 0 1-.994-.05c.091.417.24.82.466 1.184l-.305.648c-.441-.043-.877.038-1.293.179.203.34.411.68.616 1.019-.254-.023-.51-.048-.764-.073 0 .364-.001.728-.007 1.093l.399.055c-.616 1.36-1.287 2.693-1.87 4.067C2.499 20.299.476 16.92 0 13.343v-2.648C.244 9.32.567 7.942 1.21 6.692 2.972 3.009 6.717.475 10.747-.001zM18.4 1.82c3.115 1.917 5.157 5.32 5.6 8.93v2.491c-.23 1.398-.561 2.798-1.21 4.067-1.706 3.533-5.238 6.091-9.125 6.618a4.07 4.07 0 0 0-1.33.074h-.453c-.457-.103-.927-.172-1.392-.073a10.41 10.41 0 0 1-2.206-.476c.314-.57.591-1.16.858-1.752.27.146.537.295.806.443l.434-.592.483.963c.247-.248.494-.494.746-.737-.219-.4-.449-.796-.673-1.193.35-.652.711-1.297 1.083-1.937.329.646.798 1.234 1.002 1.937-.145.43-.417.802-.642 1.193.241.256.479.515.713.777.175-.326.347-.653.52-.981l.421.64c.305-.173.612-.342.923-.502l-.373-.704c.37.02.741.044 1.111.067-.089-.338-.157-.683-.288-1.008-.453-.086-.914-.051-1.371-.04a91.075 91.075 0 0 1-1.081-1.927c.73-.007 1.461-.005 2.191-.005.236.403.466.807.702 1.209.33-.085.661-.164.995-.239l-.58-.961c.241-.007.484-.012.727-.017a65.644 65.644 0 0 1 0-1.087l-.715-.025c.185-.312.373-.621.558-.933a25.72 25.72 0 0 1-1.02-.288c-.219.408-.442.815-.664 1.222-.732.03-1.462.073-2.194.072.376-.673.763-1.338 1.166-1.996.443.027.887.056 1.33.072.086-.342.173-.681.263-1.021-.357.013-.713.029-1.07.039.119-.235.236-.47.352-.706a34.435 34.435 0 0 1-.878-.54l-.43.657-.373-.811c.342-.737.685-1.475 1.032-2.211.487.003.973.003 1.458.004.053.419-.134.953.157 1.297.56.179 1.163.044 1.74.025.012-.425.016-.849.022-1.274.561.037 1.177-.271 1.114-.92-.061-1.137.188-2.34-.166-3.434-.618-.47-1.294-.91-1.516-1.714.411-.899.839-1.79 1.24-2.693z"/>
    <path fill="#0363b5" d="M7.193 5.767c.563-.845.617-2.525 1.928-2.478 1.756.005 3.511.003 5.267.005l-1.156 2.481c-2.013-.009-4.027.005-6.039-.008zM6.826 7.083c.686-.112 1.385.544 1.229 1.247-.09.847-1.276 1.229-1.843.591-.669-.557-.244-1.771.614-1.838zM17.002 7.08c.667-.064 1.323.595 1.166 1.272-.14.875-1.433 1.234-1.934.46-.579-.626-.05-1.698.768-1.732zM11.794 16.02c.326-.708.657-1.413.985-2.121l.372.616c-.357.64-.721 1.277-1.075 1.92-.095-.138-.188-.277-.282-.415zM10.898 17.965c.243.652-.494 1.165-.755 1.701.217-.582.464-1.152.755-1.701z"/>
    <path fill="#ef2921" d="M15.663.544c.961.309 1.882.74 2.738 1.276-.402.904-.83 1.795-1.24 2.693-.143.312-.287.623-.432.934l-.147.339c-.771 1.568-1.479 3.166-2.23 4.744-.347.736-.69 1.474-1.032 2.211l-.54 1.158c-.327.708-.659 1.413-.985 2.121-.303.647-.61 1.29-.896 1.945a14.105 14.105 0 0 0-.755 1.701c-.372.659-.687 1.345-1 2.033a24.459 24.459 0 0 1-.858 1.752 12.953 12.953 0 0 1-2.68-1.259c.583-1.373 1.255-2.707 1.87-4.067a186.8 186.8 0 0 0 1.049-2.272l.305-.648c.183-.376.356-.755.528-1.135l.059-.128c.146-.318.299-.635.45-.951.387-.815.766-1.634 1.147-2.453.269-.58.543-1.158.814-1.737l.196-.425a144.291 144.291 0 0 1 .463-.993c.252-.535.501-1.071.749-1.608l1.156-2.481c.136-.288.27-.577.404-.866.292-.626.591-1.25.87-1.883z"/>
    <path fill="#fff" d="M7.936 2.716c.247-.327.699-.288 1.063-.303 1.932.018 3.862-.005 5.794.014-.134.29-.269.578-.404.866-1.756-.003-3.511 0-5.267-.005-1.311-.047-1.364 1.633-1.928 2.478 2.013.013 4.027-.001 6.039.008a234.63 234.63 0 0 1-.749 1.608c-1.243-.013-2.486-.007-3.729-.003V7.8c1.177.005 2.353-.003 3.53.005-.089.189-.176.38-.263.569-1.088 0-2.176-.001-3.265.001l-.001.423c1.023.005 2.047.005 3.07.001-.271.579-.545 1.157-.814 1.737-.939-.01-1.88-.005-2.819-.004-.008.438-.013.877-.027 1.315-.608.046-1.217.082-1.827.055-.083-.42-.166-.843-.145-1.273-.386-.125-.908-.258-.925-.757-.035-1.071.03-2.147.012-3.219-.017-.717.891-.805 1.229-1.312.541-.837.84-1.816 1.427-2.627zm-1.11 4.367c-.858.067-1.283 1.281-.614 1.838.567.638 1.753.256 1.843-.591.157-.703-.543-1.359-1.229-1.247zM16.728 5.447c.145-.31.288-.622.432-.934.222.803.897 1.244 1.516 1.714.353 1.094.104 2.297.166 3.434.063.648-.553.956-1.114.92-.007.425-.01.849-.022 1.274-.577.02-1.18.154-1.74-.025-.291-.343-.103-.878-.157-1.297-.485-.001-.972-.001-1.458-.004.751-1.578 1.46-3.176 2.23-4.744a.186.186 0 0 0 .147-.339zm.274 1.633c-.818.034-1.347 1.106-.768 1.732.501.773 1.795.415 1.934-.46.157-.677-.5-1.336-1.166-1.272zM13.319 12.741l.373.811.43-.657c.29.185.583.364.878.54-.116.236-.233.471-.352.706.356-.01.712-.026 1.07-.039-.09.34-.177.68-.263 1.021a49.355 49.355 0 0 1-1.33-.072 56.76 56.76 0 0 0-1.166 1.996c.732.001 1.462-.042 2.194-.072.222-.407.445-.814.664-1.222.338.103.678.2 1.02.288-.185.312-.373.621-.558.933l.715.025c-.003.363-.003.724 0 1.087-.243.005-.485.01-.727.017.193.321.386.642.58.961-.334.074-.665.154-.995.239-.236-.402-.466-.806-.702-1.209-.73 0-1.461-.001-2.191.005.353.646.712 1.289 1.081 1.927.457-.01.918-.046 1.371.04.132.325.2.67.288 1.008-.37-.022-.741-.047-1.111-.067l.373.704c-.312.16-.618.329-.923.502-.141-.214-.28-.428-.421-.64-.173.327-.346.655-.52.981a40.5 40.5 0 0 0-.713-.777c.224-.391.497-.763.642-1.193-.203-.703-.673-1.291-1.002-1.937-.372.64-.733 1.285-1.083 1.937.224.398.454.793.673 1.193-.252.243-.5.489-.746.737l-.483-.963-.434.592c-.269-.149-.536-.297-.806-.443.313-.689.629-1.375 1-2.033.261-.536.998-1.049.755-1.701.286-.655.593-1.298.896-1.945.094.138.187.277.282.415.353-.643.717-1.28 1.075-1.92l-.372-.616.54-1.158zM9.137 13.368c.241-.127.484-.253.728-.377-.151.316-.304.633-.45.951-.089-.193-.184-.383-.278-.574zM8.362 14.02c.331.023.663.047.994.05-.172.38-.346.759-.528 1.135a3.772 3.772 0 0 1-.466-1.184zM7.23 16.032c.416-.141.852-.222 1.293-.179a186.8 186.8 0 0 1-1.049 2.272l-.399-.055c.005-.365.007-.729.007-1.093.254.025.51.05.764.073-.205-.339-.412-.678-.616-1.019z"/>
    <path fill="#4973ac" d="M16.728 5.447a.186.186 0 0 1-.147.339c.038-.085.111-.254.147-.339z"/>
    <path fill="#0361b4" d="M8.755 7.38c1.243-.004 2.486-.01 3.729.003-.068.141-.134.283-.2.424-1.177-.008-2.353 0-3.53-.005v-.421zM8.756 8.377c1.089-.003 2.177-.001 3.265-.001l-.196.425c-1.024.004-2.048.004-3.07-.001l.001-.423z"/>
    <path fill="#84a6c2" opacity=".86" d="M10.49 23.927c.464-.099.935-.03 1.392.073h-1.623l.231-.073z"/>
    <path fill="#80a0bb" opacity=".83" d="M12.334 24a4.07 4.07 0 0 1 1.33-.074l-.241.074h-1.089z"/>
</svg>
