<!-- Generated by IcoMoon.io -->
<svg version="1.1" xmlns="http://www.w3.org/2000/svg" width="24" height="24" viewBox="0 0 24 24">
<title>regulatory--u-turn--g3</title>
<path fill="#fff" d="M0.995 0.142c0.214-0.102 0.456-0.084 0.686-0.095 6.919 0.004 13.84-0.001 20.759 0.002 0.811-0.052 1.568 0.696 1.508 1.511 0 6.96 0.001 13.92 0 20.88 0.054 0.809-0.696 1.567-1.507 1.506-6.96 0-13.921-0.001-20.882 0.001-0.81 0.061-1.564-0.698-1.507-1.507-0.001-6.96 0-13.92 0-20.88-0.046-0.614 0.374-1.205 0.943-1.418M0.686 1.676c-0.001 6.882-0.001 13.765 0 20.647-0.056 0.506 0.34 1.009 0.868 0.983 4.601 0.014 9.204 0.002 13.806 0.005-0.011-2.254 0.023-4.51-0.016-6.763-0.079-1.876-1.96-3.39-3.811-3.072-1.636 0.18-2.892 1.7-2.916 3.32 0.594 0.005 1.188 0.002 1.781 0.005-0.932 1.6-1.872 3.196-2.801 4.796-0.938-1.596-1.864-3.199-2.798-4.798 0.584 0 1.168 0 1.751 0 0.010-1.892 1.045-3.734 2.686-4.686 1.877-1.139 4.393-0.944 6.125 0.384-0.005-1.568 0.008-3.137-0.005-4.705-0.004-1.194-0.703-2.351-1.758-2.909-1.093-0.613-2.47-0.487-3.516 0.164 0.372 0.457 0.755 0.905 1.127 1.362-1.823 0.305-3.646 0.619-5.468 0.926 0.617-1.741 1.252-3.476 1.874-5.215 0.383 0.444 0.758 0.896 1.135 1.345 1.59-1.18 3.821-1.403 5.6-0.527 1.852 0.851 3.092 2.83 3.088 4.862 0.006 5.168 0.002 10.337 0.001 15.505 1.669 0.004 3.338 0.014 5.008-0.002 0.527 0.026 0.922-0.478 0.868-0.983 0.001-6.882 0.001-13.764 0-20.646 0.072-0.57-0.425-1.058-0.991-0.995-6.881-0.004-13.764-0.004-20.646 0-0.566-0.065-1.066 0.425-0.99 0.995z"></path>
<path fill="#fff" d="M8.236 9.054c-0.57-0.295-0.385-0.941 0.214-1.028 0.070 0.107 0.139 0.215 0.209 0.323-0.173 0.059-0.347 0.12-0.518 0.182 0.18 0.132 0.359 0.269 0.548 0.388-0.176 0.606-0.128 1.243-0.091 1.864 0.236 0.010 0.473-0.012 0.709-0.017 0.008-0.404 0.007-0.81 0.012-1.214-0.133-0.077-0.266-0.154-0.397-0.233 0.256-0.062 0.514-0.121 0.77-0.176 0.008 0.541 0.006 1.082 0.012 1.624 0.137 0.090 0.272 0.181 0.408 0.274-0.583-0.145-1.248 0.232-1.771-0.060-0.324-0.566-0.121-1.297-0.104-1.925z"></path>
<path fill="#fff" d="M3.452 8.992c0.18-0.275 0.412-0.51 0.631-0.751 0.15-0.001 0.3 0 0.45 0.005-0.001 0.971-0.002 1.942 0.001 2.912-0.17 0.001-0.341 0.002-0.511 0.004 0-0.737-0.010-1.472 0.008-2.208-0.191 0.047-0.403 0.202-0.58 0.038z"></path>
<path fill="#fff" d="M5.2 8.248c0.558-0.010 1.115-0.010 1.673-0.006-0.042 0.155-0.084 0.31-0.126 0.464-0.517-0.005-1.232-0.156-1.121 0.602 0.347-0.037 0.75-0.149 1.045 0.103 0.586 0.421 0.401 1.435-0.258 1.681-0.472 0.181-1.25 0.19-1.332-0.451 0.474 0.073 1.309 0.228 1.396-0.442 0.034-0.577-0.611-0.668-0.99-0.388-0.094-0.043-0.187-0.086-0.281-0.13-0.004-0.479-0.002-0.958-0.006-1.435z"></path>
<path fill="#0d69e1" d="M0.686 1.676c-0.076-0.57 0.424-1.060 0.99-0.995 6.882-0.004 13.765-0.004 20.646 0 0.566-0.064 1.063 0.425 0.991 0.995 0.001 6.882 0.001 13.764 0 20.646 0.054 0.505-0.341 1.009-0.868 0.983-1.669 0.017-3.338 0.006-5.008 0.002 0.001-5.168 0.005-10.337-0.001-15.505 0.005-2.033-1.236-4.012-3.088-4.862-1.78-0.876-4.010-0.653-5.6 0.527-0.377-0.449-0.752-0.901-1.135-1.345-0.623 1.739-1.258 3.474-1.874 5.215 1.823-0.307 3.646-0.622 5.468-0.926-0.372-0.457-0.755-0.905-1.127-1.362 1.046-0.652 2.423-0.778 3.516-0.164 1.055 0.558 1.754 1.715 1.758 2.909 0.013 1.568 0 3.137 0.005 4.705-1.732-1.328-4.248-1.523-6.125-0.384-1.64 0.952-2.676 2.794-2.686 4.686-0.583 0-1.166 0-1.751 0 0.935 1.598 1.86 3.202 2.798 4.798 0.929-1.601 1.868-3.197 2.801-4.796-0.593-0.002-1.187 0-1.781-0.005 0.024-1.62 1.28-3.14 2.916-3.32 1.852-0.318 3.732 1.196 3.811 3.072 0.038 2.254 0.005 4.51 0.016 6.763-4.602-0.002-9.205 0.010-13.806-0.005-0.528 0.026-0.924-0.476-0.868-0.983-0.001-6.882-0.001-13.765 0-20.647M8.236 9.054c-0.017 0.628-0.22 1.358 0.104 1.925 0.523 0.292 1.188-0.085 1.771 0.060-0.136-0.092-0.271-0.184-0.408-0.274-0.006-0.541-0.004-1.082-0.012-1.624-0.257 0.055-0.515 0.114-0.77 0.176 0.131 0.079 0.264 0.156 0.397 0.233-0.005 0.404-0.004 0.81-0.012 1.214-0.236 0.005-0.473 0.026-0.709 0.017-0.037-0.62-0.085-1.258 0.091-1.864-0.19-0.119-0.368-0.256-0.548-0.388 0.172-0.062 0.346-0.124 0.518-0.182-0.070-0.108-0.139-0.216-0.209-0.323-0.599 0.088-0.784 0.733-0.214 1.028M3.452 8.992c0.176 0.163 0.389 0.008 0.58-0.038-0.018 0.736-0.008 1.471-0.008 2.208 0.17-0.001 0.341-0.002 0.511-0.004-0.004-0.971-0.002-1.942-0.001-2.912-0.15-0.005-0.3-0.006-0.45-0.005-0.22 0.241-0.451 0.476-0.631 0.751M5.2 8.248c0.004 0.478 0.002 0.956 0.006 1.435 0.094 0.043 0.187 0.086 0.281 0.13 0.379-0.281 1.024-0.19 0.99 0.388-0.086 0.67-0.922 0.515-1.396 0.442 0.082 0.641 0.86 0.632 1.332 0.451 0.659-0.246 0.844-1.26 0.258-1.681-0.295-0.252-0.698-0.14-1.045-0.103-0.112-0.758 0.604-0.607 1.121-0.602 0.042-0.155 0.084-0.31 0.126-0.464-0.558-0.004-1.115-0.004-1.673 0.006z"></path>
</svg>
