<!-- Generated by IcoMoon.io -->
<svg version="1.1" xmlns="http://www.w3.org/2000/svg" width="24" height="24" viewBox="0 0 24 24">
<title>regulatory--truck-speed-limit-70--g1</title>
<path fill="#fff" d="M0.91 0h22.178c0.445 0.103 0.808 0.467 0.912 0.912v22.174c-0.102 0.446-0.467 0.81-0.912 0.914h-22.176c-0.445-0.103-0.808-0.466-0.913-0.91v-22.179c0.103-0.444 0.466-0.807 0.91-0.911M1.566 0.587c-0.558 0.060-1.007 0.584-0.991 1.143-0.001 6.846-0.001 13.693 0 20.539-0.021 0.621 0.535 1.176 1.155 1.155 6.846 0.001 13.693 0.001 20.539 0 0.621 0.021 1.176-0.534 1.155-1.155 0.001-6.846 0.001-13.693 0-20.539 0.021-0.621-0.534-1.177-1.155-1.155-6.735-0.001-13.471-0-20.207-0-0.165 0.001-0.331-0.008-0.496 0.012z"></path>
<path fill="#fff" d="M2.080 1.192c0.15-0.024 0.301-0.015 0.451-0.017 6.408 0.001 12.815-0.001 19.223 0.001 0.57-0.007 1.075 0.5 1.069 1.069 0.001 6.503 0.001 13.005 0 19.508 0.006 0.57-0.499 1.074-1.069 1.069-6.502 0.002-13.005 0.002-19.508 0-0.57 0.006-1.076-0.499-1.069-1.069-0.001-6.503-0.001-13.005 0-19.508-0.004-0.51 0.398-0.981 0.903-1.054M13.025 3.979c-0.458 0.612-0.477 1.498-0.142 2.17 0.297 0.602 1.128 0.788 1.688 0.454 0.223-0.134 0.375-0.354 0.481-0.586-0.172-0.068-0.345-0.134-0.519-0.199-0.163 0.375-0.689 0.547-0.99 0.231-0.394-0.454-0.394-1.189-0.094-1.692 0.258-0.403 0.898-0.311 1.096 0.104 0.168-0.075 0.336-0.151 0.503-0.229-0.311-0.792-1.519-0.918-2.024-0.254M19.81 3.826c-0.329 0.292-0.333 0.871 0.007 1.156 0.341 0.304 0.839 0.311 1.199 0.579 0.235 0.174 0.123 0.576-0.154 0.632-0.365 0.123-0.759-0.1-0.901-0.444-0.173 0.063-0.347 0.128-0.519 0.194 0.233 0.808 1.344 1.076 1.971 0.563 0.397-0.326 0.412-1.019 0.009-1.346-0.33-0.284-0.783-0.33-1.152-0.54-0.18-0.092-0.171-0.382 0.011-0.466 0.283-0.135 0.672-0.041 0.808 0.258 0.169-0.055 0.338-0.111 0.504-0.171-0.202-0.743-1.256-0.888-1.782-0.415M2.215 3.598c-0.002 0.18-0.002 0.361-0 0.541 0.29 0.003 0.581 0 0.871 0.001 0.001 0.859-0.001 1.718 0.001 2.578 0.188 0.001 0.375 0.001 0.563-0 0.001-0.859-0.001-1.718 0.001-2.577 0.288-0.001 0.576 0.001 0.864-0.001 0.001-0.181 0.001-0.362 0-0.542-0.767-0.001-1.534-0.002-2.301 0M5.602 6.697c0.187 0.002 0.374 0.002 0.561 0 0.005-0.399 0-0.798 0.002-1.197 0.202-0.001 0.403-0.002 0.605 0.001 0.197 0.398 0.391 0.799 0.592 1.196 0.21 0 0.419 0.002 0.629-0.002-0.199-0.42-0.408-0.834-0.608-1.253 0.583-0.201 0.788-0.975 0.462-1.473-0.172-0.27-0.506-0.378-0.812-0.381-0.477-0.003-0.953-0.001-1.431-0-0.001 1.036-0.002 2.072 0.001 3.109M9.099 3.614c0 0.64-0 1.28 0 1.919 0.003 0.353 0.097 0.739 0.382 0.973 0.416 0.324 1.031 0.334 1.497 0.112 0.363-0.183 0.535-0.599 0.544-0.989 0.007-0.672-0.002-1.345 0.004-2.017-0.188 0.002-0.375 0.002-0.562 0-0.003 0.641 0.003 1.282-0.002 1.923-0.008 0.224-0.054 0.494-0.274 0.607-0.233 0.107-0.519 0.108-0.752 0-0.22-0.113-0.268-0.384-0.269-0.608-0.003-0.64 0-1.28-0.001-1.92-0.189 0.001-0.378 0.001-0.568 0M16.137 3.614c0.003 1.035 0 2.070 0.002 3.104 0.188 0.002 0.376 0.002 0.564 0 0.012-0.293-0.020-0.59 0.015-0.88 0.164-0.221 0.349-0.426 0.518-0.644 0.27 0.509 0.54 1.017 0.812 1.525 0.218 0 0.436 0.001 0.655-0.001-0.362-0.666-0.725-1.332-1.088-1.997 0.289-0.374 0.592-0.736 0.882-1.109-0.222 0.004-0.444 0.003-0.666 0.003-0.372 0.479-0.75 0.953-1.126 1.428-0.001-0.476 0-0.953-0-1.429-0.189 0.002-0.377 0.002-0.566 0M15.954 9.392c-0.9 0.106-1.738 0.608-2.258 1.35-0.952 1.361-1.125 3.098-1.074 4.714 0.077 1.493 0.402 3.12 1.524 4.196 1.13 1.048 2.976 1.144 4.274 0.36 0.664-0.416 1.135-1.081 1.433-1.796 0.43-1.029 0.56-2.155 0.574-3.262-0.012-1.168-0.147-2.362-0.63-3.437-0.315-0.706-0.817-1.35-1.501-1.73-0.705-0.4-1.547-0.489-2.341-0.395M2.79 9.547c-0.001 0.611-0.001 1.222 0 1.833 1.732 0.001 3.464-0.001 5.195 0.001-0.834 1.189-1.56 2.464-2.046 3.836-0.594 1.635-0.832 3.381-0.844 5.115 0.629-0.001 1.259 0.005 1.888-0.003 0.135-3.184 1.048-6.477 3.134-8.958 0.030-0.606 0.005-1.217 0.012-1.826-2.446-0.001-4.893-0.001-7.34 0z"></path>
<path fill="#fff" d="M6.165 4.122c0.315 0.010 0.633-0.022 0.946 0.017 0.392 0.053 0.412 0.715 0.030 0.799-0.322 0.047-0.652 0.009-0.977 0.021-0.001-0.279-0.001-0.558 0-0.837z"></path>
<path fill="#fff" d="M16.193 11.19c0.688-0.154 1.421 0.204 1.746 0.825 0.385 0.676 0.503 1.465 0.558 2.231 0.049 0.9 0.022 1.816-0.199 2.695-0.132 0.494-0.329 0.995-0.705 1.356-0.563 0.56-1.578 0.564-2.142 0.002-0.376-0.36-0.572-0.863-0.703-1.357-0.207-0.833-0.24-1.699-0.206-2.553 0.049-0.79 0.152-1.605 0.528-2.314 0.228-0.434 0.629-0.8 1.123-0.885z"></path>
<path fill="#000" d="M1.566 0.587c0.165-0.020 0.331-0.011 0.496-0.012 6.735 0 13.471-0.001 20.207 0 0.621-0.022 1.176 0.534 1.155 1.155 0.001 6.846 0.001 13.693 0 20.539 0.021 0.621-0.534 1.176-1.155 1.155-6.846 0.001-13.693 0.001-20.539 0-0.621 0.021-1.177-0.534-1.155-1.155-0.001-6.846-0.001-13.693 0-20.539-0.016-0.56 0.433-1.084 0.991-1.143M2.080 1.192c-0.505 0.073-0.907 0.545-0.903 1.054-0.001 6.502-0.001 13.005 0 19.508-0.007 0.57 0.499 1.075 1.069 1.069 6.503 0.002 13.006 0.002 19.508 0 0.57 0.005 1.075-0.5 1.069-1.069 0.001-6.503 0.001-13.005 0-19.508 0.007-0.57-0.499-1.076-1.069-1.069-6.408-0.003-12.815 0-19.223-0.001-0.15 0.001-0.302-0.008-0.451 0.017z"></path>
<path fill="#000" d="M13.025 3.979c0.504-0.665 1.713-0.538 2.024 0.254-0.167 0.077-0.334 0.154-0.503 0.229-0.199-0.415-0.838-0.507-1.096-0.104-0.3 0.503-0.3 1.237 0.094 1.692 0.301 0.316 0.827 0.144 0.99-0.231 0.173 0.066 0.347 0.131 0.519 0.199-0.106 0.232-0.259 0.452-0.481 0.586-0.56 0.333-1.391 0.148-1.688-0.454-0.335-0.672-0.316-1.559 0.142-2.17z"></path>
<path fill="#000" d="M19.81 3.826c0.526-0.473 1.58-0.328 1.782 0.415-0.167 0.060-0.336 0.116-0.504 0.171-0.136-0.299-0.525-0.393-0.808-0.258-0.182 0.084-0.19 0.374-0.011 0.466 0.369 0.21 0.822 0.256 1.152 0.54 0.403 0.328 0.388 1.020-0.009 1.346-0.627 0.514-1.738 0.246-1.971-0.563 0.173-0.067 0.346-0.131 0.519-0.194 0.143 0.344 0.537 0.568 0.901 0.444 0.277-0.057 0.389-0.458 0.154-0.632-0.36-0.268-0.858-0.276-1.199-0.579-0.34-0.285-0.336-0.865-0.007-1.156z"></path>
<path fill="#000" d="M2.215 3.598c0.767-0.002 1.534-0.001 2.301-0 0.001 0.18 0.001 0.361 0 0.542-0.288 0.002-0.577-0-0.864 0.001-0.002 0.859 0 1.718-0.001 2.577-0.188 0.002-0.375 0.001-0.563 0-0.002-0.859 0-1.718-0.001-2.578-0.291-0.001-0.581 0.002-0.871-0.001-0.001-0.18-0.001-0.361 0-0.541z"></path>
<path fill="#000" d="M5.602 6.697c-0.003-1.036-0.002-2.073-0.001-3.109 0.477-0 0.954-0.003 1.431 0 0.306 0.003 0.64 0.112 0.812 0.381 0.327 0.498 0.121 1.272-0.462 1.473 0.2 0.419 0.409 0.834 0.608 1.253-0.21 0.004-0.419 0.002-0.629 0.002-0.201-0.397-0.394-0.798-0.592-1.196-0.202-0.003-0.403-0.002-0.605-0.001-0.002 0.399 0.003 0.798-0.002 1.197-0.187 0.002-0.374 0.002-0.561-0M6.165 4.122c-0.001 0.279-0.001 0.558 0 0.837 0.325-0.011 0.654 0.026 0.977-0.021 0.381-0.084 0.362-0.745-0.030-0.799-0.313-0.039-0.631-0.007-0.946-0.017z"></path>
<path fill="#000" d="M9.099 3.614c0.189 0 0.379 0 0.568-0 0.001 0.64-0.002 1.281 0.001 1.92 0 0.225 0.049 0.495 0.269 0.608 0.233 0.108 0.519 0.107 0.752 0 0.22-0.113 0.266-0.383 0.274-0.607 0.005-0.641-0-1.282 0.002-1.923 0.187 0.002 0.374 0.002 0.562 0-0.007 0.672 0.002 1.345-0.004 2.017-0.009 0.39-0.181 0.805-0.544 0.989-0.465 0.222-1.080 0.212-1.497-0.112-0.285-0.234-0.379-0.619-0.382-0.973-0.001-0.639 0-1.279-0-1.919z"></path>
<path fill="#000" d="M16.137 3.614c0.189 0.001 0.377 0.001 0.566-0 0.001 0.476-0 0.953 0 1.429 0.376-0.475 0.754-0.949 1.126-1.428 0.222 0 0.443 0.001 0.666-0.003-0.29 0.373-0.593 0.735-0.882 1.109 0.364 0.665 0.726 1.331 1.088 1.997-0.218 0.002-0.436 0.001-0.655 0.001-0.272-0.508-0.542-1.016-0.812-1.525-0.169 0.217-0.354 0.423-0.518 0.644-0.035 0.29-0.002 0.587-0.015 0.88-0.188 0.002-0.376 0.002-0.564 0-0.002-1.035 0.001-2.070-0.002-3.104z"></path>
<path fill="#000" d="M15.954 9.392c0.794-0.095 1.636-0.005 2.341 0.395 0.683 0.379 1.185 1.024 1.501 1.73 0.484 1.075 0.619 2.269 0.63 3.437-0.015 1.107-0.144 2.233-0.574 3.262-0.297 0.715-0.769 1.38-1.433 1.796-1.298 0.784-3.144 0.688-4.274-0.36-1.123-1.076-1.447-2.702-1.524-4.196-0.051-1.617 0.122-3.353 1.074-4.714 0.521-0.741 1.358-1.243 2.258-1.35M16.193 11.19c-0.495 0.084-0.895 0.451-1.123 0.885-0.376 0.709-0.479 1.523-0.528 2.314-0.035 0.854-0.001 1.72 0.206 2.553 0.131 0.494 0.327 0.997 0.703 1.357 0.564 0.562 1.579 0.557 2.142-0.002 0.376-0.36 0.574-0.862 0.705-1.356 0.221-0.878 0.248-1.794 0.199-2.695-0.055-0.765-0.173-1.554-0.558-2.231-0.325-0.62-1.058-0.979-1.746-0.825z"></path>
<path fill="#000" d="M2.79 9.547c2.447-0.001 4.893-0.001 7.34 0-0.007 0.608 0.018 1.22-0.012 1.826-2.086 2.481-2.999 5.774-3.134 8.958-0.629 0.008-1.259 0.001-1.888 0.003 0.012-1.734 0.249-3.48 0.844-5.115 0.486-1.373 1.211-2.648 2.046-3.836-1.732-0.002-3.464 0-5.195-0.001-0.001-0.611-0.001-1.222 0-1.833z"></path>
</svg>
