<?xml version="1.0" encoding="utf-8"?>
<!-- Generated by IcoMoon.io -->
<!DOCTYPE svg PUBLIC "-//W3C//DTD SVG 1.1//EN" "http://www.w3.org/Graphics/SVG/1.1/DTD/svg11.dtd">
<svg version="1.1" xmlns="http://www.w3.org/2000/svg" xmlns:xlink="http://www.w3.org/1999/xlink" width="24" height="24" viewBox="0 0 24 24">
<path fill="#ff0303" d="M11.153 0h1.677c2.502 0.175 4.941 1.148 6.862 2.761 2.499 2.056 4.084 5.164 4.307 8.391v1.687c-0.177 2.498-1.149 4.934-2.761 6.853-2.056 2.5-5.165 4.087-8.393 4.308h-1.677c-2.498-0.175-4.936-1.147-6.856-2.757-2.503-2.056-4.089-5.168-4.312-8.397v-1.681c0.218-3.235 1.809-6.351 4.316-8.41 1.916-1.606 4.346-2.573 6.837-2.753M10.11 2.726c-2.267 0.443-4.354 1.761-5.713 3.631-1.362 1.822-2.009 4.163-1.762 6.427 0.205 2.305 1.355 4.496 3.086 6.023 1.509 1.355 3.476 2.187 5.5 2.324 2.24 0.17 4.526-0.537 6.296-1.919 1.581-1.22 2.757-2.954 3.291-4.88 0.558-2.047 0.416-4.293-0.462-6.23-0.875-1.987-2.47-3.646-4.422-4.597-1.783-0.89-3.86-1.156-5.815-0.781z"></path>
<path fill="#fff" d="M10.11 2.726c1.955-0.374 4.032-0.108 5.815 0.781 1.951 0.951 3.547 2.61 4.422 4.597 0.878 1.937 1.020 4.183 0.462 6.23-0.533 1.925-1.71 3.66-3.291 4.88-1.77 1.381-4.057 2.088-6.296 1.919-2.024-0.137-3.991-0.969-5.5-2.324-1.731-1.527-2.881-3.719-3.086-6.023-0.247-2.263 0.4-4.604 1.762-6.427 1.359-1.87 3.446-3.188 5.713-3.631M10.343 9.185c-1.124 0.683-2.176 1.487-3.308 2.153-0.888 0.163-1.787 0.288-2.669 0.485-0.231 0.213-0.125 0.55-0.151 0.826 0.021 0.26-0.098 0.643 0.233 0.749 0.852 0.026 1.705 0.003 2.557 0.009 0.044 0.68 0.753 1.329 1.443 1.062 0.489-0.112 0.75-0.599 0.824-1.058 2.087-0.005 4.173-0.003 6.26-0.001-0.026 0.617 0.55 1.186 1.167 1.132 0.607-0.001 1.073-0.549 1.090-1.135 0.537-0.014 1.080 0.035 1.616-0.022 0.163-0.2 0.077-0.489 0.104-0.728-0.033-0.309 0.056-0.648-0.094-0.934-0.819-0.327-1.709-0.438-2.553-0.689-0.862-0.6-1.687-1.26-2.557-1.85-1.32-0.017-2.644-0.017-3.964 0z"></path>
<path fill="#fff" d="M10.591 9.579c0.631 0.005 1.261 0.004 1.893 0 0.003 0.527 0.003 1.053 0 1.58-1.256-0.012-2.512 0.012-3.768-0.013 0.635-0.51 1.247-1.049 1.876-1.567z"></path>
<path fill="#fff" d="M12.681 9.579c0.489 0.018 0.982-0.027 1.469 0.022 0.481 0.507 0.93 1.047 1.415 1.552-0.961 0.007-1.923-0.001-2.884 0.005-0.003-0.527-0.003-1.053 0-1.58z"></path>
<path fill="#231f20" d="M10.343 9.185c1.32-0.017 2.644-0.017 3.964 0 0.87 0.59 1.694 1.25 2.557 1.85 0.844 0.25 1.733 0.361 2.553 0.689 0.15 0.286 0.061 0.625 0.094 0.934-0.027 0.239 0.059 0.528-0.104 0.728-0.536 0.057-1.079 0.008-1.616 0.022-0.017 0.586-0.484 1.133-1.090 1.135-0.617 0.053-1.193-0.515-1.167-1.132-2.087-0.001-4.173-0.004-6.26 0.001-0.074 0.459-0.335 0.946-0.824 1.058-0.69 0.267-1.398-0.382-1.443-1.062-0.852-0.007-1.705 0.017-2.557-0.009-0.331-0.106-0.213-0.489-0.233-0.749 0.026-0.275-0.080-0.613 0.151-0.826 0.882-0.197 1.78-0.322 2.669-0.485 1.132-0.667 2.183-1.47 3.308-2.153M10.591 9.579c-0.629 0.518-1.24 1.057-1.876 1.567 1.256 0.025 2.512 0.001 3.768 0.013 0.003-0.527 0.003-1.053 0-1.58-0.631 0.004-1.261 0.005-1.893 0M12.681 9.579c-0.003 0.527-0.003 1.053 0 1.58 0.961-0.007 1.923 0.001 2.884-0.005-0.485-0.505-0.934-1.045-1.415-1.552-0.487-0.050-0.98-0.004-1.469-0.022z"></path>
</svg>
