<svg xmlns="http://www.w3.org/2000/svg" width="24" height="24">
    <path fill="#d40000" d="M11.012 0h1.934c4.213.368 8.147 3.03 9.913 6.893.632 1.294.936 2.711 1.14 4.128v1.91c-.288 2.73-1.409 5.393-3.341 7.367-2 2.12-4.79 3.384-7.672 3.702h-1.934c-4.175-.379-8.087-2.993-9.872-6.809-.655-1.316-.974-2.762-1.181-4.208v-1.924c.167-1.123.353-2.252.776-3.312C2.081 4.243 5.12 1.436 8.731.453c.745-.223 1.518-.311 2.28-.454zM6.118 4.412c2.468 2.465 4.922 4.945 7.406 7.393.239.264.491.515.752.755a649.603 649.603 0 0 0 5.314 5.316c1.747-2.237 2.414-5.263 1.766-8.026-.584-2.62-2.336-4.943-4.682-6.241-3.264-1.858-7.616-1.544-10.556.803zm-3.497 9.634c.546 2.575 2.221 4.871 4.483 6.21 3.286 2.01 7.756 1.723 10.774-.665-1.176-1.226-2.396-2.412-3.596-3.616-1.385-1.392-2.773-2.78-4.165-4.164a2044.3 2044.3 0 0 0-5.702-5.704c-1.732 2.21-2.405 5.198-1.793 7.938z"/>
    <path fill="#fff" d="M6.118 4.412c2.94-2.347 7.292-2.66 10.556-.803 2.346 1.298 4.098 3.622 4.682 6.241.648 2.762-.019 5.789-1.766 8.026a665.846 665.846 0 0 1-5.314-5.316c.002-.251.002-.5.002-.751l-.755-.004c-2.484-2.448-4.938-4.928-7.406-7.393zM2.621 14.046c-.612-2.74.061-5.728 1.793-7.938 1.904 1.897 3.805 3.798 5.702 5.704-.928-.01-1.855.004-2.783-.008.044-.527.226-1.027.462-1.498-1.51.9-3.042 1.762-4.555 2.656 1.52.876 3.038 1.756 4.554 2.641-.24-.468-.414-.967-.464-1.493 1.549-.011 3.098-.005 4.648-.004.006 2.098-.002 4.194.004 6.292.766.005 1.532.002 2.298.001.004-1.475-.001-2.948.002-4.423 1.2 1.204 2.42 2.389 3.596 3.616-3.018 2.388-7.488 2.675-10.774.665-2.262-1.339-3.937-3.635-4.483-6.21z"/>
    <path d="M3.24 12.961c1.513-.894 3.046-1.756 4.555-2.656-.236.47-.418.971-.462 1.498.928.012 1.855-.001 2.783.008 1.392 1.384 2.78 2.772 4.165 4.164-.004 1.475.001 2.948-.002 4.423-.766.001-1.532.004-2.298-.001-.006-2.098.002-4.194-.004-6.292-1.549-.001-3.098-.007-4.648.004.05.526.224 1.025.464 1.493a866.822 866.822 0 0 0-4.554-2.641zM13.524 11.806l.755.004c0 .251 0 .5-.002.751-.262-.24-.514-.491-.752-.755z"/>
</svg>
