<!-- Generated by IcoMoon.io -->
<svg version="1.1" xmlns="http://www.w3.org/2000/svg" width="24" height="24" viewBox="0 0 24 24">
<title>regulatory--bicycles-and-buses-only--g1</title>
<path fill="#0379c1" d="M10.74 0h2.509c4.189 0.474 8.072 3.211 9.738 7.11 0.149 0.933 0.557 1.801 0.687 2.739 0.695 3.735-0.57 7.76-3.26 10.441-2.706 2.797-6.846 4.113-10.669 3.365-0.903-0.132-1.736-0.542-2.64-0.669-3.893-1.662-6.625-5.538-7.106-9.719v-2.508c0.462-4.001 2.964-7.716 6.596-9.501 1.29-0.674 2.715-1.023 4.145-1.257M9.901 2.030c-0.241 0.246-0.013 0.557 0.13 0.785-0.102 0.406-0.216 0.809-0.329 1.211-1.048-0.325-2.281 0.486-2.147 1.634 0.047 1.26 1.785 1.904 2.639 0.976 0.771-0.7 0.469-1.865-0.189-2.527 0.63 0.359 1.214 0.79 1.803 1.211-0.048 0.547 0.394 0.879 0.902 0.875-0.052 0.124-0.105 0.249-0.157 0.373 0.245 0.006 0.489 0.004 0.733 0-0.131-0.116-0.263-0.229-0.382-0.356-0.015-0.050-0.046-0.15-0.061-0.199 0.112-0.128 0.223-0.256 0.337-0.385 0.168 0.629 0.559 1.279 1.248 1.408 1.065 0.3 2.161-0.791 1.867-1.857-0.178-0.938-1.232-1.413-2.102-1.133-0.184-0.33-0.361-0.664-0.533-1.001 0.216-0.232 0.433-0.463 0.636-0.707-0.56-0.025-1.121-0.037-1.681 0.010 0.179 0.25 0.493 0.284 0.766 0.364-0.053 0.127-0.107 0.254-0.16 0.382-0.905 0.004-1.811-0.003-2.716 0.005-0.024-0.268-0.081-0.531-0.185-0.778 0.199 0.008 0.397 0.013 0.597 0.018-0.001-0.114-0.003-0.343-0.004-0.457-0.331 0.037-0.723-0.057-1.008 0.145M2.019 8.65c-0.151 0.94-0.010 1.912-0.21 2.844-0.362 0.687-0.163 1.481-0.213 2.221-0.015 0.324 0.005 0.844 0.439 0.857 0.988 0.029 1.976 0.025 2.963 0.058-0.146-0.747 0.293-1.591 1.097-1.679 0.926-0.152 1.627 0.813 1.441 1.675 2.593-0.001 5.186-0.001 7.78 0-0.114-0.766 0.349-1.643 1.189-1.685 0.897-0.084 1.528 0.843 1.347 1.674 1.477-0.295 2.95-0.602 4.427-0.898-0.008-1.314 0.020-2.63-0.009-3.943-0.005-0.683-0.632-1.257-1.308-1.233-6.143-0.014-12.287 0.003-18.429-0.008-0.169 0.025-0.389-0.029-0.514 0.116M5.879 13.256c-0.735 0.254-0.871 1.355-0.235 1.793 0.61 0.505 1.641 0.041 1.666-0.749 0.093-0.738-0.756-1.36-1.431-1.044M16.175 13.27c-0.74 0.279-0.83 1.41-0.154 1.815 0.598 0.439 1.557 0.004 1.605-0.739 0.143-0.767-0.761-1.431-1.451-1.076z"></path>
<path fill="#0379c1" d="M10.147 3.676c0.871-0.439 1.957-0.081 2.913-0.196-0.188 0.465-0.377 0.928-0.57 1.392-0.067 0.018-0.204 0.055-0.272 0.074 0.032-0.166 0.066-0.331 0.099-0.498-0.267 0.015-0.561 0.014-0.74 0.25-0.481-0.335-0.966-0.663-1.43-1.022z"></path>
<path fill="#0379c1" d="M13.483 3.562c0.122 0.226 0.243 0.453 0.362 0.681-0.325 0.323-0.537 0.728-0.665 1.164-0.102-0.109-0.201-0.221-0.297-0.334 0.197-0.505 0.397-1.010 0.601-1.511z"></path>
<path fill="#0379c1" d="M8.048 5.379c0.069-0.738 0.891-1.073 1.538-0.856-0.132 0.413-0.389 0.763-0.693 1.065 0.066 0.033 0.198 0.1 0.264 0.133 0.386-0.197 0.654-0.535 0.867-0.903 0.241 0.565 0.216 1.335-0.399 1.644-0.72 0.436-1.746-0.245-1.577-1.084z"></path>
<path fill="#0379c1" d="M14.438 4.461c0.415-0.011 0.899 0.008 1.167 0.381 0.514 0.585 0.152 1.638-0.637 1.735-0.607 0.141-1.102-0.344-1.28-0.88 0.436-0.008 0.871-0.013 1.305-0.052-0.18-0.397-0.375-0.787-0.555-1.184z"></path>
<path fill="#0379c1" d="M12.21 5.187c0.429-0.276 0.916 0.364 0.477 0.659-0.404 0.306-0.865-0.337-0.477-0.659z"></path>
<path fill="#0379c1" d="M2.935 9.624c0.397-0.013 0.822-0.114 1.2 0.047 0.074 1.365 0.044 2.742 0.006 4.109-0.396 0.014-0.792 0.016-1.189 0.006-0.089-1.384-0.058-2.776-0.018-4.163z"></path>
<path fill="#0379c1" d="M5.153 9.603c1.181 0 2.366-0.067 3.543 0.039 0.011 0.556 0.011 1.112 0 1.67-1.18 0.109-2.366 0.004-3.547 0.029-0.058-0.578-0.060-1.162 0.004-1.738z"></path>
<path fill="#0379c1" d="M9.426 9.661c1.147-0.122 2.345-0.121 3.492 0 0.036 0.528 0.208 1.253-0.105 1.666-1.121 0.034-2.277 0.109-3.387-0.041-0.090-0.535-0.088-1.090 0-1.625z"></path>
<path fill="#0379c1" d="M13.651 9.638c1.182-0.079 2.375-0.080 3.557 0.001 0.014 0.557 0.014 1.116 0 1.675-1.182 0.076-2.375 0.077-3.557-0.001-0.013-0.557-0.013-1.116 0-1.675z"></path>
<path fill="#0379c1" d="M17.921 9.624c1.006-0.044 2.020-0.074 3.023 0.001 0.71 0.202 0.603 1.098 0.485 1.66-1.149 0.164-2.344 0.061-3.51 0.043-0.044-0.568-0.044-1.138 0.001-1.704z"></path>
<path fill="#0379c1" d="M6.131 13.741c0.574-0.173 0.874 0.753 0.293 0.937-0.62 0.256-0.952-0.794-0.293-0.937z"></path>
<path fill="#0379c1" d="M16.423 13.751c0.603-0.234 0.932 0.789 0.295 0.937-0.593 0.203-0.904-0.768-0.295-0.937z"></path>
<path fill="#fff" d="M9.901 2.030c0.286-0.202 0.677-0.108 1.008-0.145 0.001 0.114 0.003 0.343 0.004 0.457-0.199-0.005-0.397-0.010-0.597-0.018 0.104 0.248 0.161 0.51 0.185 0.778 0.905-0.008 1.811-0.001 2.716-0.005 0.053-0.128 0.107-0.255 0.16-0.382-0.273-0.080-0.587-0.114-0.766-0.364 0.56-0.047 1.121-0.036 1.681-0.010-0.203 0.244-0.42 0.475-0.636 0.707 0.173 0.337 0.349 0.67 0.533 1.001 0.87-0.281 1.924 0.194 2.102 1.133 0.295 1.065-0.801 2.156-1.867 1.857-0.69-0.13-1.081-0.78-1.248-1.408-0.113 0.128-0.225 0.256-0.337 0.385 0.015 0.050 0.046 0.15 0.061 0.199 0.119 0.127 0.251 0.24 0.382 0.356-0.244 0.004-0.488 0.006-0.733 0 0.052-0.124 0.105-0.249 0.157-0.373-0.508 0.004-0.95-0.328-0.902-0.875-0.589-0.422-1.173-0.852-1.803-1.211 0.658 0.662 0.96 1.827 0.189 2.527-0.853 0.927-2.592 0.283-2.639-0.976-0.133-1.148 1.1-1.959 2.147-1.634 0.113-0.403 0.227-0.805 0.329-1.211-0.142-0.227-0.371-0.538-0.13-0.785M10.147 3.676c0.463 0.359 0.949 0.687 1.43 1.022 0.179-0.236 0.474-0.235 0.74-0.25-0.033 0.166-0.067 0.331-0.099 0.498 0.067-0.019 0.204-0.056 0.272-0.074 0.193-0.464 0.382-0.927 0.57-1.392-0.956 0.114-2.042-0.244-2.913 0.196M13.483 3.562c-0.203 0.502-0.404 1.006-0.601 1.511 0.097 0.113 0.196 0.225 0.297 0.334 0.128-0.437 0.34-0.842 0.665-1.164-0.119-0.227-0.24-0.455-0.362-0.681M8.048 5.379c-0.169 0.839 0.857 1.52 1.577 1.084 0.615-0.31 0.64-1.079 0.399-1.644-0.213 0.368-0.481 0.706-0.867 0.903-0.066-0.033-0.198-0.1-0.264-0.133 0.305-0.302 0.561-0.653 0.693-1.065-0.646-0.217-1.469 0.118-1.538 0.856M14.438 4.461c0.18 0.396 0.375 0.786 0.555 1.184-0.434 0.039-0.87 0.044-1.305 0.052 0.178 0.536 0.673 1.021 1.28 0.88 0.79-0.097 1.152-1.149 0.637-1.735-0.268-0.373-0.752-0.392-1.167-0.381M13.679 5.349c0.259 0.003 0.519 0.005 0.778 0.006-0.13-0.227-0.262-0.453-0.394-0.679-0.131 0.222-0.259 0.447-0.385 0.673M12.21 5.187c-0.387 0.323 0.074 0.965 0.477 0.659 0.438-0.295-0.048-0.935-0.477-0.659z"></path>
<path fill="#fff" d="M2.019 8.65c0.126-0.145 0.345-0.090 0.514-0.116 6.142 0.010 12.286-0.006 18.429 0.008 0.676-0.024 1.303 0.55 1.308 1.233 0.029 1.313 0.001 2.629 0.009 3.943-1.477 0.296-2.95 0.603-4.427 0.898 0.18-0.83-0.451-1.757-1.347-1.674-0.839 0.042-1.303 0.919-1.189 1.685-2.594-0.001-5.187-0.001-7.78 0 0.185-0.862-0.516-1.827-1.441-1.675-0.804 0.088-1.243 0.932-1.097 1.679-0.987-0.033-1.975-0.029-2.963-0.058-0.434-0.013-0.455-0.533-0.439-0.857 0.051-0.74-0.149-1.534 0.213-2.221 0.199-0.932 0.058-1.905 0.21-2.844M2.935 9.624c-0.041 1.387-0.071 2.778 0.018 4.163 0.396 0.010 0.792 0.008 1.189-0.006 0.038-1.368 0.067-2.744-0.006-4.109-0.378-0.161-0.803-0.060-1.2-0.047M5.153 9.603c-0.063 0.577-0.062 1.161-0.004 1.738 1.181-0.025 2.367 0.080 3.547-0.029 0.011-0.557 0.011-1.114 0-1.67-1.177-0.107-2.362-0.039-3.543-0.039M9.426 9.661c-0.088 0.536-0.090 1.091 0 1.625 1.11 0.15 2.265 0.075 3.387 0.041 0.314-0.413 0.141-1.138 0.105-1.666-1.147-0.121-2.345-0.122-3.492 0M13.651 9.638c-0.013 0.559-0.013 1.117 0 1.675 1.182 0.079 2.375 0.077 3.557 0.001 0.014-0.559 0.014-1.117 0-1.675-1.182-0.081-2.375-0.080-3.557-0.001M17.921 9.624c-0.046 0.566-0.046 1.137-0.001 1.704 1.166 0.018 2.361 0.121 3.51-0.043 0.118-0.561 0.225-1.458-0.485-1.66-1.003-0.075-2.018-0.046-3.023-0.001z"></path>
<path fill="#fff" d="M5.879 13.256c0.676-0.316 1.524 0.306 1.431 1.044-0.025 0.79-1.057 1.255-1.666 0.749-0.636-0.438-0.5-1.539 0.235-1.793M6.131 13.741c-0.659 0.143-0.326 1.194 0.293 0.937 0.58-0.184 0.281-1.11-0.293-0.937z"></path>
<path fill="#fff" d="M16.175 13.27c0.691-0.356 1.595 0.309 1.451 1.076-0.048 0.743-1.007 1.178-1.605 0.739-0.677-0.405-0.587-1.535 0.154-1.815M16.423 13.751c-0.61 0.169-0.298 1.14 0.295 0.937 0.637-0.149 0.309-1.171-0.295-0.937z"></path>
<path fill="#1281c5" d="M13.679 5.349c0.126-0.226 0.254-0.451 0.385-0.673 0.132 0.226 0.264 0.452 0.394 0.679-0.259-0.001-0.519-0.004-0.778-0.006z"></path>
<path fill="#c1c1c1" opacity="0.76" d="M22.988 7.11c0.55 1.129 0.81 2.368 1.012 3.6v2.574c-0.222 1.487-0.613 2.96-1.328 4.291-1.812 3.529-5.451 5.973-9.382 6.425h-2.577c-1.234-0.201-2.476-0.461-3.608-1.015 0.904 0.127 1.737 0.537 2.64 0.669 3.823 0.748 7.963-0.568 10.669-3.365 2.69-2.681 3.954-6.706 3.26-10.441-0.13-0.938-0.538-1.806-0.687-2.739z"></path>
</svg>
