<svg xmlns="http://www.w3.org/2000/svg" width="24" height="24">
    <path fill="#868482" d="M10.712 0h2.582c.922.193 1.876.31 2.74.709-1.296-.245-2.579-.631-3.913-.584-1.28-.065-2.52.286-3.774.466.752-.325 1.576-.4 2.365-.59z"/>
    <path fill="#fff" d="M8.347.59C9.601.41 10.841.06 12.121.124c1.334-.047 2.617.34 3.913.584 2.756.966 5.147 2.998 6.523 5.573.112.349.23.695.377 1.032 1.108 2.518 1.25 5.43.481 8.064-.222.804-.626 1.541-.858 2.341-1.578 2.951-4.477 5.171-7.736 5.934-1.322.113-2.647.331-3.977.17-.842-.077-1.658-.322-2.498-.414l-.276-.094a36.551 36.551 0 0 1-3.684-2.096c-1.18-.894-2.099-2.104-2.825-3.384a10.684 10.684 0 0 0-.385-1.018C-.194 13.8-.193 10.197 1.175 7.18c.15-.331.272-.673.386-1.018.725-1.28 1.645-2.491 2.825-3.384A36.102 36.102 0 0 1 8.071.682c.091-.031.184-.064.276-.094zm2.255.063c-3.366.395-6.48 2.406-8.267 5.28C.812 8.327.258 11.303.781 14.088c.552 3.072 2.446 5.86 5.072 7.537 2.447 1.591 5.521 2.171 8.382 1.597 3.643-.69 6.846-3.284 8.294-6.695 1.602-3.632 1.109-8.084-1.268-11.267C18.89 1.944 14.645.096 10.601.652z"/>
    <path fill="#fff" d="M3.252 8.008c1.645-3.66 5.712-6.05 9.715-5.586 3.901.324 7.391 3.292 8.357 7.081 1.004 3.568-.307 7.634-3.202 9.946-2.293 1.908-5.504 2.632-8.395 1.901-3.18-.757-5.87-3.256-6.854-6.374l.553.011c.036-.434.156-.859.425-1.21l.143-.203c-.494.016-.989-.013-1.483.016l-.041-.36c1.848.017 3.695-.04 5.542-.047.028-1.517.089-3.035.056-4.552.017-.4-.376-.637-.738-.608-1.358-.022-2.718.011-4.078-.014zm6.979 2.966c0 .752-.001 1.504.001 2.255 3.019.005 6.04.002 9.06.001.002-.751 0-1.504.001-2.255-3.022.002-6.042.002-9.062-.001zm-5.389 2.633c-.973.092-1.532 1.368-.906 2.134.553.833 1.952.679 2.322-.246.467-.905-.421-2.076-1.416-1.888zm1.17-.018c.403.389.566.926.661 1.463.482-.001.965 0 1.448-.005.019-.2.041-.401.062-.6.596-.001 1.193-.002 1.789-.005l.517-.84c-1.493-.016-2.986.006-4.478-.013zm5.198.055c-.592.151-1.046.739-.991 1.357-.011.73.694 1.361 1.416 1.291.766-.007 1.388-.785 1.262-1.534-.091-.774-.937-1.34-1.687-1.115zm1.401-.067c.188.29.37.586.545.883 1.092-.019 2.185 0 3.277-.011.178-.287.358-.572.539-.857-1.453-.017-2.906-.011-4.361-.016zm5.073.053c-.588.16-1.037.75-.982 1.367-.004.728.698 1.357 1.422 1.284.756-.019 1.379-.775 1.258-1.522-.083-.791-.935-1.356-1.698-1.129z"/>
    <path fill="#fff" d="M4.848 14.336c.76-.26 1.148.99.382 1.205-.785.306-1.188-1.009-.382-1.205zM11.444 14.328c.827-.197 1.03 1.207.179 1.243-.778.139-.944-1.146-.179-1.243zM17.918 14.32c.775-.203 1.058 1.078.278 1.229-.798.24-1.096-1.11-.278-1.229z"/>
    <path fill="#da251d" d="M10.602.653c4.044-.556 8.288 1.292 10.66 4.608 2.377 3.182 2.87 7.634 1.268 11.267-1.448 3.41-4.651 6.005-8.294 6.695-2.861.574-5.935-.006-8.382-1.597-2.627-1.678-4.52-4.465-5.072-7.537-.523-2.785.031-5.761 1.554-8.155C4.123 3.06 7.237 1.049 10.603.654zm-7.35 7.355c-.751 1.626-.978 3.449-.782 5.221l.041.36c.494-.029.989 0 1.483-.016l-.143.203c-.324-.277-.869-.03-1.274-.132.089.445.186.89.296 1.331.984 3.119 3.674 5.617 6.854 6.374 2.891.731 6.102.007 8.395-1.901 2.894-2.311 4.206-6.378 3.202-9.946-.966-3.79-4.456-6.757-8.357-7.081-4.003-.464-8.07 1.926-9.715 5.586z"/>
    <path fill="#93908f" d="M4.386 2.78A9.353 9.353 0 0 1 8.071.684 36.374 36.374 0 0 0 4.386 2.78zM4.386 21.22c1.184.779 2.418 1.46 3.684 2.096a9.393 9.393 0 0 1-3.684-2.096z"/>
    <path fill="#8f8c8b" d="M0 10.952c.3-1.65.595-3.377 1.561-4.788-.114.344-.236.686-.386 1.018-1.368 3.017-1.369 6.62.001 9.636.149.331.271.673.385 1.018C.594 16.422.299 14.693 0 13.04v-2.087z"/>
    <path fill="#918f8d" d="M22.558 6.282c.833 1.249 1.111 2.754 1.442 4.192v3.061c-.335 1.434-.61 2.938-1.442 4.184.232-.8.636-1.537.858-2.341.769-2.634.626-5.546-.481-8.064a11.168 11.168 0 0 1-.377-1.032z"/>
    <path fill="#1f1a17" d="M3.252 8.008c1.36.025 2.719-.007 4.078.014.362-.029.755.209.738.608.032 1.517-.029 3.035-.056 4.552-1.847.007-3.694.064-5.542.047-.196-1.772.031-3.595.782-5.221zM10.231 10.974c3.02.004 6.041.004 9.062.001-.001.751.001 1.504-.001 2.255-3.02.001-6.041.004-9.06-.001-.002-.751-.001-1.502-.001-2.255zM4.842 13.607c.995-.188 1.883.983 1.416 1.888-.37.925-1.769 1.079-2.322.246-.626-.766-.067-2.041.906-2.134zm.006.729c-.806.196-.403 1.511.382 1.205.767-.215.378-1.465-.382-1.205z"/>
    <path fill="#1f1a17" d="M6.012 13.589c1.493.019 2.986-.002 4.478.013-.173.28-.346.559-.517.84l-1.789.005c-.022.199-.043.4-.062.6-.484.005-.966.004-1.448.005-.095-.536-.258-1.074-.661-1.463zM11.21 13.644c.75-.226 1.596.341 1.687 1.115.126.749-.497 1.526-1.262 1.534-.722.07-1.427-.562-1.416-1.291-.055-.618.4-1.206.991-1.357zm.234.684c-.766.097-.599 1.382.179 1.243.851-.036.648-1.44-.179-1.243zM12.611 13.577c1.454.005 2.908-.001 4.361.016-.181.284-.361.57-.539.857-1.092.011-2.185-.008-3.277.011a22.274 22.274 0 0 0-.545-.883zM17.684 13.63c.763-.227 1.615.338 1.698 1.129.121.746-.502 1.502-1.258 1.522-.724.073-1.426-.556-1.422-1.284-.055-.617.394-1.207.982-1.367zm.234.69c-.817.119-.52 1.469.278 1.229.78-.151.497-1.432-.278-1.229zM2.576 13.644c.406.102.95-.145 1.274.132-.269.35-.389.775-.425 1.21l-.553-.011c-.11-.44-.208-.886-.296-1.331z"/>
    <path fill="#888584" d="M8.346 23.41c.84.092 1.656.337 2.498.414 1.33.161 2.654-.058 3.977-.17-.502.162-1.022.244-1.538.347h-2.58c-.786-.193-1.607-.268-2.357-.59z"/>
</svg>
