<svg xmlns="http://www.w3.org/2000/svg" width="24" height="24">
    <path d="M10.982 0h2.026c1.729.182 3.436.672 4.943 1.552 2.714 1.536 4.783 4.168 5.621 7.173.22.737.322 1.5.428 2.258v2.023c-.182 1.718-.666 3.415-1.536 4.914-1.534 2.728-4.173 4.811-7.189 5.651-.737.22-1.5.322-2.259.428h-2.023c-1.741-.181-3.457-.684-4.974-1.567-2.696-1.543-4.757-4.163-5.592-7.158-.219-.736-.323-1.499-.427-2.258V10.99c.102-.762.208-1.528.427-2.267a12.056 12.056 0 0 1 5.129-6.875C7.177.794 9.066.199 10.982-.002zm-1.84.565a11.747 11.747 0 0 0-4.48 2.218C2.297 4.653.694 7.463.317 10.458-.118 13.652.835 17 2.897 19.48c.678-.802 1.352-1.607 2.025-2.413.536-.634 1.069-1.271 1.601-1.908.881-1.061 1.793-2.104 2.651-3.18.239-.236.438-.508.657-.761 1.014-1.223 2.062-2.422 3.052-3.661.506-.571 1.02-1.149 1.467-1.766.126-.082.209-.211.307-.322 1.045-1.244 2.087-2.491 3.135-3.733C15.199.258 12.035-.161 9.142.567zm9.768 6.567c-.45.54-.903 1.077-1.355 1.615-1.063 1.282-2.157 2.543-3.202 3.837-.602.669-1.162 1.377-1.747 2.061-.25.302-.509.597-.752.904-.903 1.061-1.797 2.133-2.689 3.202-.987 1.168-1.967 2.34-2.949 3.512 2.708 1.556 6.051 1.93 9.047 1.062a11.746 11.746 0 0 0 4.05-2.088c2.379-1.871 3.99-4.69 4.37-7.695.436-3.194-.518-6.541-2.578-9.021-.736.866-1.461 1.742-2.195 2.61z"/>
    <path fill="#fff" d="M9.142.565c2.893-.727 6.057-.308 8.65 1.169-1.048 1.242-2.09 2.489-3.135 3.733-.098.111-.181.24-.307.322a3.26 3.26 0 0 0-1.467 1.766c-.99 1.239-2.038 2.438-3.052 3.661l-.659.003c-.006.253-.002.505.002.758-.858 1.076-1.77 2.119-2.651 3.18l-.34-.005c1.319-3.251 2.656-6.495 3.975-9.746-.648-.002-1.296-.002-1.943 0-1.315 3.233-2.621 6.471-3.927 9.707-.068.643-.014 1.299-.027 1.947.22.006.441.006.661.006-.674.806-1.348 1.611-2.025 2.413C.835 17-.118 13.652.317 10.457c.377-2.994 1.98-5.805 4.345-7.675A11.754 11.754 0 0 1 9.142.564zM18.91 7.132c.734-.869 1.459-1.744 2.195-2.61 2.06 2.48 3.014 5.827 2.578 9.021-.38 3.005-1.991 5.824-4.37 7.695a11.729 11.729 0 0 1-4.05 2.088c-2.996.869-6.338.494-9.047-1.062.982-1.172 1.962-2.345 2.949-3.512-.003.105.007.21.009.316.581.003 1.163.002 1.744 0 .008-.667-.003-1.334.005-2 .313-.006.626.004.939-.006.002-.504.012-1.008-.007-1.512.243-.307.502-.602.752-.904-.034 1.095.043 2.282.728 3.189.601.793 1.543 1.359 2.553 1.373 1.133.052 2.215-.593 2.839-1.515.471-.708.628-1.575.631-2.412V9.234c0-.722-.13-1.45-.448-2.102z"/>
    <path fill="#fff" d="M17.555 8.747c.032.224.054.449.053.675v5.72c-.001.539-.101 1.114-.462 1.535-.499.613-1.497.69-2.112.211-.484-.376-.66-1.014-.673-1.604-.011-.9.003-1.8-.008-2.7 1.044-1.294 2.139-2.555 3.202-3.837z"/>
    <path fill="gray" d="M8.214 5.407c.648-.002 1.296-.002 1.943 0-1.319 3.251-2.656 6.495-3.975 9.746l.34.005c-.532.638-1.065 1.274-1.601 1.908-.22 0-.441 0-.661-.006.014-.648-.041-1.304.027-1.947 1.305-3.237 2.612-6.474 3.927-9.707zM12.883 7.556A3.256 3.256 0 0 1 14.35 5.79c-.447.617-.961 1.195-1.467 1.766zM17.555 8.747c.452-.538.905-1.076 1.355-1.615.317.652.447 1.38.448 2.102v6.047c-.003.838-.161 1.704-.631 2.412-.624.922-1.707 1.567-2.839 1.515-1.01-.015-1.952-.581-2.553-1.373-.685-.907-.762-2.094-.728-3.189.585-.684 1.145-1.392 1.747-2.061.011.9-.003 1.8.008 2.7.013.589.188 1.227.673 1.604.615.479 1.613.402 2.112-.211.361-.421.461-.997.462-1.535v-5.72c0-.226-.022-.451-.053-.675zM9.172 11.22l.659-.003c-.219.254-.418.525-.657.761-.004-.253-.008-.506-.002-.758zM9.165 18.751c.893-1.068 1.786-2.14 2.689-3.202.019.504.009 1.008.007 1.512-.313.009-.626 0-.939.006-.008.667.003 1.334-.005 2-.581.002-1.162.003-1.744 0-.001-.106-.012-.211-.009-.316z"/>
</svg>
