<?xml version="1.0" encoding="utf-8"?>
<!-- Generated by IcoMoon.io -->
<!DOCTYPE svg PUBLIC "-//W3C//DTD SVG 1.1//EN" "http://www.w3.org/Graphics/SVG/1.1/DTD/svg11.dtd">
<svg version="1.1" xmlns="http://www.w3.org/2000/svg" xmlns:xlink="http://www.w3.org/1999/xlink" width="24" height="24" viewBox="0 0 24 24">
<path fill="#ef2c30" d="M10.211 0.14c2.509-0.364 5.136 0.065 7.372 1.271 2.996 1.565 5.268 4.476 6.026 7.775 0.492 2.024 0.431 4.177-0.152 6.176-1.012 3.574-3.824 6.564-7.308 7.836-3.293 1.248-7.135 0.926-10.169-0.862-2.376-1.369-4.259-3.583-5.212-6.156-0.83-2.243-0.983-4.738-0.404-7.061 0.77-3.269 3.029-6.143 5.996-7.704 1.192-0.658 2.513-1.054 3.851-1.276M9.227 3.308c-0.977 0.348-1.992 0.768-2.75 1.475 1.802 1.802 3.604 3.606 5.406 5.41 0.128 0.119 0.232 0.272 0.395 0.348 0.667 0.776 1.441 1.456 2.146 2.197 0.618 0.617 1.235 1.232 1.85 1.85 0.108 0.104 0.214 0.211 0.319 0.319 0.87 0.871 1.742 1.742 2.611 2.615 1.022-1.358 1.676-2.994 1.831-4.69 0.16-1.757-0.19-3.568-1.032-5.122-1.020-1.954-2.795-3.494-4.864-4.252-1.882-0.702-3.997-0.76-5.912-0.151M4.729 6.475c-1.304 1.744-1.991 3.949-1.825 6.128 0.156 2.466 1.375 4.846 3.3 6.398 1.822 1.523 4.256 2.273 6.62 2.038 1.694-0.146 3.332-0.798 4.686-1.822-1.85-1.832-3.665-3.702-5.532-5.515-1.058-1.104-2.154-2.177-3.239-3.253-1.223-1.252-2.476-2.473-3.703-3.72-0.102-0.084-0.174-0.218-0.307-0.254z"></path>
<path fill="#fff" d="M9.227 3.308c1.915-0.608 4.031-0.551 5.912 0.151 2.069 0.757 3.844 2.298 4.864 4.252 0.842 1.554 1.192 3.365 1.032 5.122-0.155 1.696-0.809 3.331-1.831 4.69-0.869-0.872-1.741-1.744-2.611-2.615 0.904-0.305 1.5-1.217 1.52-2.155 0.508-0.002 1.015 0.001 1.523-0.001 0.002-0.256 0.002-0.511 0-0.767-0.254 0-0.508 0-0.761-0.002 0.248-0.768 0.511-1.534 0.761-2.302-2.552 0-5.104-0.001-7.656 0.001 0.097 0.287 0.188 0.576 0.298 0.859-0.163-0.076-0.266-0.229-0.395-0.348-1.802-1.804-3.604-3.607-5.406-5.41 0.758-0.707 1.774-1.127 2.75-1.475z"></path>
<path fill="#fff" d="M4.729 6.475c0.133 0.036 0.205 0.17 0.307 0.254 1.228 1.247 2.48 2.468 3.703 3.72-0.458-0.010-0.917 0.010-1.375-0.010-0.704-0.948-1.866-1.517-3.044-1.524 0 0.764-0.001 1.528 0.001 2.291 0.253 0.002 0.508 0.001 0.762 0 0.002-0.316-0.001-0.631 0.006-0.947 0.416 0.096 0.74 0.542 0.602 0.967-0.148 0.431-0.014 0.907 0.302 1.228-0.28 0.293-0.582 0.564-0.857 0.863 0.324 0.32 0.646 0.643 0.967 0.966 0.11-0.109 0.22-0.218 0.33-0.328-0.222-0.223-0.45-0.442-0.673-0.662 0.448-0.209 0.864-0.589 1.388-0.533 0.127 0.761 0.253 1.523 0.382 2.285 0.125 0.001 0.251 0.004 0.376 0.006 0.016-0.766 0.001-1.532 0.007-2.299 0.718-0.001 1.434 0 2.152-0.001 0.004 0.766-0.001 1.531 0.002 2.296 0.095 0 0.286 0 0.38 0 0.116-0.704 0.228-1.41 0.346-2.116 0.247 0.126 0.487 0.263 0.725 0.404 0.004 0.571-0.005 1.142 0.005 1.714 0.15 0 0.301-0.001 0.452-0.001 0.005-0.448 0.001-0.896 0.002-1.345 1.867 1.813 3.682 3.683 5.532 5.515-1.354 1.024-2.992 1.675-4.686 1.822-2.364 0.235-4.799-0.515-6.62-2.038-1.925-1.553-3.144-3.932-3.3-6.398-0.166-2.179 0.521-4.385 1.825-6.128z"></path>
<path fill="#fff" d="M14.423 12.738c0.33 0.023 0.661 0.012 0.991 0.014 0.041 0.506 0.744 0.47 0.812-0.002 0.502 0.005 1.002-0.001 1.502 0.004-0.008 0.845-0.608 1.674-1.456 1.835-0.616-0.618-1.232-1.234-1.85-1.85z"></path>
<path fill="#000" d="M4.32 8.916c1.178 0.007 2.34 0.576 3.044 1.524 0.458 0.019 0.917 0 1.375 0.010 1.085 1.076 2.18 2.149 3.239 3.253-0.001 0.449 0.002 0.898-0.002 1.345-0.151 0-0.302 0.001-0.452 0.001-0.010-0.571-0.001-1.142-0.005-1.714-0.238-0.142-0.478-0.278-0.725-0.404-0.118 0.706-0.229 1.411-0.346 2.116-0.095 0-0.286 0-0.38 0-0.004-0.764 0.001-1.53-0.002-2.296-0.718 0.001-1.434 0-2.152 0.001-0.006 0.767 0.008 1.534-0.007 2.299-0.125-0.002-0.251-0.005-0.376-0.006-0.128-0.762-0.254-1.524-0.382-2.285-0.524-0.056-0.941 0.324-1.388 0.533 0.223 0.221 0.451 0.439 0.673 0.662-0.11 0.109-0.22 0.218-0.33 0.328-0.322-0.323-0.643-0.646-0.967-0.966 0.275-0.299 0.577-0.57 0.857-0.863-0.317-0.32-0.45-0.797-0.302-1.228 0.138-0.425-0.186-0.871-0.602-0.967-0.007 0.316-0.004 0.631-0.006 0.947-0.254 0.001-0.509 0.002-0.762 0-0.002-0.763-0.001-1.526-0.001-2.291z"></path>
<path fill="#000" d="M11.98 9.682c2.552-0.002 5.104-0.001 7.656-0.001-0.25 0.768-0.512 1.534-0.761 2.302 0.253 0.002 0.506 0.002 0.761 0.002 0.002 0.256 0.002 0.511 0 0.767-0.508 0.002-1.015-0.001-1.523 0.001-0.020 0.938-0.617 1.85-1.52 2.155-0.106-0.108-0.211-0.215-0.319-0.319 0.847-0.161 1.447-0.99 1.456-1.835-0.5-0.005-1.001 0.001-1.502-0.004-0.068 0.473-0.772 0.509-0.812 0.002-0.33-0.002-0.661 0.008-0.991-0.014-0.704-0.742-1.478-1.421-2.146-2.197-0.109-0.283-0.2-0.572-0.298-0.859z"></path>
</svg>
