<!-- Generated by IcoMoon.io -->
<svg version="1.1" xmlns="http://www.w3.org/2000/svg" width="19" height="24" viewBox="0 0 19 24">
<title>regulatory--end-of-maximum-speed-limit--g1</title>
<path fill="#fff" d="M0.663 0h18.126c0.326 0.262 0.595 0.602 0.679 1.020v21.619c-0.018 0.702-0.578 1.339-1.296 1.362h-17.104c-0.468-0.089-0.789-0.448-1.068-0.802v-22.397c0.139-0.327 0.379-0.594 0.663-0.8M1.066 0.15c-0.549 0.164-0.914 0.728-0.886 1.293-0.001 7.004-0.005 14.009 0.002 21.012-0.027 0.723 0.634 1.364 1.356 1.319 5.464-0.001 10.929 0.005 16.393-0.003 0.693 0.011 1.3-0.619 1.282-1.308 0.007-7.009 0.003-14.019 0.002-21.028 0.049-0.763-0.645-1.41-1.398-1.364-5.080-0.011-10.161 0.001-15.243-0.006-0.503 0.006-1.018-0.046-1.509 0.086z"></path>
<path fill="#fff" d="M1.159 0.642c0.153-0.066 0.326-0.065 0.489-0.071 5.39 0.002 10.78-0.002 16.171 0.002 0.486-0.051 0.935 0.372 0.898 0.861 0.003 7.007 0.006 14.016-0.001 21.023 0.021 0.475-0.422 0.866-0.889 0.821-5.429 0.001-10.861 0.003-16.291-0.001-0.504 0.040-0.921-0.432-0.859-0.925 0.002-6.97-0.003-13.94 0.002-20.91-0.019-0.334 0.169-0.667 0.48-0.8M5.048 2.018c0 1.133-0.003 2.266 0.001 3.399 0.849-0.002 1.696 0.001 2.544-0.001-0.032-0.193 0.063-0.45-0.067-0.598-0.619-0.032-1.239-0.002-1.859-0.010 0-0.309-0.001-0.618-0.001-0.927 0.339 0 0.677 0 1.015 0 0.001-0.208 0.001-0.416 0.002-0.625-0.338-0.001-0.676-0.001-1.015 0.001-0.001-0.209-0.002-0.418-0.003-0.627 0.618-0.001 1.236-0.002 1.854 0.001 0.004-0.204 0.006-0.408 0.009-0.612-0.827-0.001-1.654-0.001-2.48 0M8.138 2.011c0 1.134-0.003 2.268 0.001 3.403 0.2-0.001 0.399-0.002 0.598-0.002 0.003-0.769-0.007-1.539 0.006-2.308 0.548 0.761 1.071 1.539 1.606 2.308 0.177 0 0.353 0 0.529 0.001-0.001-1.135 0.004-2.269-0.003-3.404-0.195 0.002-0.389 0.003-0.584 0.004-0.002 0.746 0.001 1.491-0.003 2.237-0.516-0.745-1.035-1.488-1.547-2.236-0.202-0.002-0.403-0.003-0.604-0.003M11.634 2.013c0.001 1.133-0.005 2.266 0.003 3.4 0.637-0.031 1.327 0.113 1.911-0.211 0.981-0.543 1.076-2.107 0.227-2.809-0.592-0.514-1.421-0.362-2.14-0.38M4.11 7.818c0.281 0.263 0.566 0.524 0.848 0.787 0.626-0.631 1.844-0.933 2.495-0.202 0.332 0.653-0.548 0.982-1.060 0.901 0.004 0.377 0.003 0.753 0.001 1.13 0.793-0.18 1.819 0.564 1.325 1.406-0.795 0.86-2.33 0.538-3.008-0.333-0.307 0.229-0.613 0.457-0.918 0.688 0.801 1.056 2.237 1.575 3.52 1.195 0.954-0.241 1.787-1.133 1.689-2.161-0.004-0.571-0.41-1.009-0.803-1.371 0.616-0.657 0.707-1.774 0.002-2.402-1.156-1.043-3.066-0.716-4.090 0.362M10.798 6.933c-0.073 1.014-0.139 2.028-0.204 3.042 0.384 0.093 0.759 0.226 1.151 0.28 0.671-0.207 1.417-0.356 2.092-0.080 0.732 0.324 0.823 1.518 0.1 1.908-0.931 0.489-2.063 0.207-2.945-0.264-0.202 0.324-0.404 0.649-0.605 0.973 1.291 0.778 3.105 1.085 4.378 0.118 1.086-0.801 1.1-2.586 0.075-3.442-0.817-0.742-2.011-0.715-3.020-0.474 0.020-0.306 0.042-0.612 0.064-0.918 1.065 0 2.131 0 3.196-0.001 0.001-0.378 0-0.757 0.003-1.136-1.429-0.013-2.856 0-4.285-0.006M4.637 16.164c0.3 0.148 1.007 0.171 0.766 0.673-0.311 0.378-0.83 0.073-0.922-0.334-0.143 0.020-0.286 0.039-0.431 0.059 0.074 0.492 0.446 0.97 0.995 0.895 0.616 0.067 1.071-0.621 0.809-1.169-0.23-0.549-0.958-0.43-1.325-0.832 0.156-0.279 0.445-0.305 0.729-0.253 0.049 0.113 0.1 0.228 0.15 0.343 0.16-0.011 0.319-0.022 0.479-0.032-0.055-0.562-0.604-0.905-1.141-0.753-0.708 0.082-0.78 1.201-0.11 1.404M6.536 14.777c0.002 0.873 0.001 1.748 0 2.621 0.148 0.008 0.297 0.018 0.445 0.026 0.004-0.333 0.004-0.665 0.007-0.997 0.301-0.018 0.619 0.020 0.902-0.102 0.525-0.299 0.518-1.25-0.048-1.496-0.426-0.099-0.872-0.037-1.306-0.053M8.883 14.776c0.003 0.881-0.003 1.76 0.003 2.641 0.568 0.003 1.134 0.002 1.702 0.001 0.003-0.151 0.005-0.302 0.008-0.453-0.423 0-0.846 0.002-1.268-0.007 0.003-0.237 0.005-0.475 0.007-0.712 0.379 0 0.758 0 1.136 0 0-0.146 0-0.294 0-0.44-0.38 0.001-0.759 0.001-1.139 0.001 0-0.197 0.001-0.393 0.001-0.589 0.409 0 0.819 0 1.228-0.001-0.001-0.147-0.001-0.294-0.001-0.44-0.559 0-1.119 0-1.677-0.001M11.214 14.778c-0.007 0.872-0.002 1.746-0.003 2.618 0.577 0.033 1.156 0.033 1.734 0.003-0.005-0.146-0.009-0.291-0.014-0.438-0.419 0.004-0.838 0.003-1.258 0.002 0.027-0.231-0.060-0.507 0.060-0.709 0.363-0.025 0.726-0.005 1.090-0.014-0.003-0.109-0.010-0.326-0.013-0.435-0.377 0.001-0.754 0-1.131 0.002-0.001-0.196-0.002-0.391-0.003-0.587 0.408-0.004 0.816-0.004 1.224-0.003 0.003-0.145 0.007-0.29 0.012-0.435-0.566-0.010-1.131-0.006-1.696-0.005M13.553 14.779c0.005 0.881-0.001 1.76 0.004 2.64 0.564-0.038 1.337 0.158 1.688-0.422 0.283-0.557 0.28-1.29-0.021-1.839-0.361-0.567-1.114-0.337-1.672-0.379M7.814 18.671c0 0.872-0.002 1.745 0.001 2.617 0.152 0.003 0.306 0.007 0.459 0.010 0.007-0.879 0.003-1.756 0.002-2.635-0.155 0.002-0.309 0.004-0.462 0.007M8.786 18.664c0.001 0.876 0.003 1.75-0.001 2.626 0.14 0.002 0.28 0.006 0.421 0.009 0.015-0.658-0.016-1.317 0.022-1.976 0.157 0.652 0.281 1.311 0.424 1.966 0.149 0 0.298 0.001 0.447 0.003 0.143-0.654 0.268-1.312 0.436-1.96 0.030 0.653 0.006 1.307 0.012 1.96 0.106 0 0.318-0.001 0.424-0.001-0.003-0.876 0.001-1.752-0.003-2.628-0.229 0.001-0.457 0.002-0.686 0.003-0.134 0.587-0.26 1.175-0.402 1.76-0.151-0.582-0.277-1.169-0.406-1.756-0.23-0.004-0.459-0.006-0.689-0.007M11.49 18.662c-0.007 0.873 0.004 1.746-0.007 2.619 0.15 0.007 0.301 0.012 0.451 0.018 0.003-0.877-0.002-1.754 0.002-2.631-0.148-0.002-0.298-0.004-0.446-0.006M12.296 18.667c0.001 0.146 0.002 0.291 0.003 0.439 0.221 0 0.443 0 0.665 0.001-0.003 0.727-0.003 1.454 0 2.182 0.152 0.002 0.306 0.005 0.459 0.009 0.006-0.73 0.003-1.462 0.002-2.192 0.222-0.001 0.445-0.001 0.669-0.003-0.003-0.146-0.005-0.293-0.007-0.438-0.597 0.002-1.195 0-1.791 0.002M5.835 18.681c0.001 0.871-0.002 1.743 0.002 2.614 0.534-0.003 1.067-0.001 1.6-0.003-0.001-0.147-0.003-0.294-0.005-0.441-0.378 0-0.756 0-1.133 0 0.004-0.722 0.001-1.443 0.002-2.164-0.156-0.003-0.31-0.004-0.466-0.006z"></path>
<path fill="#fff" d="M12.254 2.618c0.411 0.004 0.893-0.026 1.2 0.304 0.449 0.483 0.387 1.431-0.232 1.75-0.289 0.176-0.642 0.116-0.964 0.133-0.010-0.729-0.004-1.459-0.004-2.187z"></path>
<path fill="#fff" d="M6.986 15.207c0.282 0.023 0.804-0.058 0.809 0.361 0.048 0.456-0.509 0.399-0.809 0.425-0.001-0.263-0.001-0.524 0-0.786z"></path>
<path fill="#fff" d="M14.025 15.206c0.972-0.244 1.169 0.949 0.813 1.592-0.195 0.24-0.546 0.14-0.814 0.176-0.003-0.59-0.003-1.179 0.001-1.769z"></path>
<path fill="#050505" d="M1.066 0.15c0.491-0.132 1.006-0.079 1.509-0.086 5.081 0.007 10.162-0.005 15.243 0.006 0.753-0.046 1.447 0.601 1.398 1.364 0.001 7.009 0.005 14.019-0.002 21.028 0.018 0.689-0.589 1.319-1.282 1.308-5.464 0.008-10.929 0.002-16.393 0.003-0.721 0.044-1.382-0.596-1.356-1.319-0.007-7.003-0.003-14.008-0.002-21.012-0.028-0.564 0.337-1.129 0.886-1.293M1.159 0.642c-0.311 0.133-0.499 0.467-0.48 0.8-0.005 6.97 0 13.94-0.002 20.91-0.062 0.493 0.355 0.965 0.859 0.925 5.43 0.004 10.862 0.002 16.291 0.001 0.467 0.045 0.91-0.346 0.889-0.821 0.007-7.007 0.004-14.016 0.001-21.023 0.037-0.489-0.412-0.913-0.898-0.861-5.39-0.004-10.78 0-16.171-0.002-0.164 0.006-0.336 0.005-0.489 0.071z"></path>
<path fill="#050505" d="M5.048 2.018c0.826-0.001 1.653-0.001 2.48 0-0.003 0.204-0.005 0.408-0.009 0.612-0.618-0.003-1.236-0.002-1.854-0.001 0.001 0.209 0.002 0.418 0.003 0.627 0.339-0.002 0.677-0.002 1.015-0.001-0.001 0.209-0.001 0.417-0.002 0.625-0.338 0-0.676 0-1.015 0 0 0.309 0.001 0.618 0.001 0.927 0.62 0.008 1.24-0.022 1.859 0.010 0.13 0.148 0.035 0.406 0.067 0.598-0.848 0.002-1.695-0.001-2.544 0.001-0.004-1.133-0.001-2.266-0.001-3.399z"></path>
<path fill="#050505" d="M8.138 2.011c0.201 0 0.402 0.001 0.604 0.003 0.512 0.748 1.031 1.491 1.547 2.236 0.004-0.746 0.001-1.491 0.003-2.237 0.195-0.001 0.389-0.002 0.584-0.004 0.007 1.135 0.002 2.269 0.003 3.404-0.176-0.001-0.352-0.001-0.529-0.001-0.535-0.769-1.058-1.547-1.606-2.308-0.013 0.769-0.003 1.539-0.006 2.308-0.2 0-0.399 0.001-0.598 0.002-0.004-1.135-0.001-2.269-0.001-3.403z"></path>
<path fill="#050505" d="M11.634 2.013c0.719 0.019 1.548-0.134 2.14 0.38 0.85 0.701 0.754 2.266-0.227 2.809-0.584 0.324-1.274 0.18-1.911 0.211-0.008-1.134-0.002-2.267-0.003-3.4M12.254 2.618c0 0.728-0.006 1.458 0.004 2.187 0.322-0.016 0.675 0.043 0.964-0.133 0.619-0.319 0.681-1.267 0.232-1.75-0.307-0.33-0.789-0.3-1.2-0.304z"></path>
<path fill="#050505" d="M4.11 7.818c1.024-1.077 2.935-1.405 4.090-0.362 0.705 0.628 0.614 1.745-0.002 2.402 0.393 0.362 0.799 0.8 0.803 1.371 0.098 1.028-0.735 1.92-1.689 2.161-1.282 0.38-2.718-0.139-3.52-1.195 0.305-0.231 0.611-0.459 0.918-0.688 0.678 0.87 2.213 1.193 3.008 0.333 0.494-0.842-0.531-1.586-1.325-1.406 0.002-0.377 0.003-0.753-0.001-1.13 0.512 0.080 1.392-0.248 1.060-0.901-0.651-0.731-1.869-0.43-2.495 0.202-0.282-0.263-0.567-0.524-0.848-0.787z"></path>
<path fill="#050505" d="M10.798 6.933c1.429 0.006 2.856-0.007 4.285 0.006-0.003 0.379-0.002 0.758-0.003 1.136-1.065 0.001-2.131 0.001-3.196 0.001-0.022 0.306-0.044 0.612-0.064 0.918 1.009-0.241 2.203-0.268 3.020 0.474 1.025 0.856 1.010 2.641-0.075 3.442-1.273 0.966-3.087 0.659-4.378-0.118 0.201-0.324 0.403-0.649 0.605-0.973 0.882 0.471 2.014 0.753 2.945 0.264 0.723-0.389 0.632-1.583-0.1-1.908-0.675-0.276-1.421-0.127-2.092 0.080-0.391-0.055-0.766-0.187-1.151-0.28 0.065-1.014 0.131-2.028 0.204-3.042z"></path>
<path fill="#000" d="M4.637 16.164c-0.67-0.203-0.597-1.322 0.11-1.404 0.538-0.152 1.087 0.191 1.141 0.753-0.16 0.010-0.319 0.021-0.479 0.032-0.050-0.115-0.101-0.23-0.15-0.343-0.284-0.051-0.574-0.026-0.729 0.253 0.367 0.403 1.095 0.283 1.325 0.832 0.263 0.548-0.193 1.236-0.809 1.169-0.549 0.075-0.921-0.403-0.995-0.895 0.144-0.020 0.287-0.039 0.431-0.059 0.092 0.407 0.611 0.712 0.922 0.334 0.241-0.502-0.467-0.524-0.766-0.673z"></path>
<path fill="#000" d="M6.536 14.777c0.434 0.015 0.88-0.046 1.306 0.053 0.567 0.245 0.574 1.197 0.048 1.496-0.283 0.122-0.602 0.084-0.902 0.102-0.003 0.332-0.003 0.664-0.007 0.997-0.148-0.008-0.297-0.018-0.445-0.026 0.001-0.873 0.002-1.748 0-2.621M6.986 15.207c-0.001 0.262-0.001 0.523 0 0.786 0.3-0.027 0.857 0.031 0.809-0.425-0.004-0.418-0.526-0.338-0.809-0.361z"></path>
<path fill="#000" d="M8.883 14.776c0.558 0.001 1.118 0.001 1.677 0.001 0 0.146 0 0.293 0.001 0.44-0.409 0.001-0.819 0.001-1.228 0.001 0 0.196-0.001 0.392-0.001 0.589 0.38 0 0.759 0 1.139-0.001 0 0.146 0 0.294 0 0.44-0.378 0-0.757 0-1.136 0-0.002 0.237-0.004 0.475-0.007 0.712 0.422 0.009 0.845 0.007 1.268 0.007-0.003 0.151-0.005 0.302-0.008 0.453-0.568 0.001-1.134 0.002-1.702-0.001-0.006-0.881 0-1.76-0.003-2.641z"></path>
<path fill="#000" d="M11.214 14.778c0.566-0.001 1.131-0.005 1.696 0.005-0.005 0.144-0.009 0.289-0.012 0.435-0.408-0.001-0.816-0.001-1.224 0.003 0.001 0.196 0.002 0.391 0.003 0.587 0.377-0.002 0.754-0.001 1.131-0.002 0.003 0.109 0.010 0.325 0.013 0.435-0.364 0.009-0.727-0.010-1.090 0.014-0.119 0.202-0.033 0.478-0.060 0.709 0.419 0.001 0.838 0.002 1.258-0.002 0.005 0.146 0.009 0.291 0.014 0.438-0.578 0.030-1.157 0.030-1.734-0.003 0.001-0.872-0.004-1.746 0.003-2.618z"></path>
<path fill="#000" d="M13.553 14.779c0.557 0.042 1.311-0.187 1.672 0.379 0.301 0.549 0.304 1.281 0.021 1.839-0.351 0.58-1.124 0.384-1.688 0.422-0.005-0.88 0.001-1.759-0.004-2.64M14.025 15.206c-0.004 0.589-0.004 1.178-0.001 1.769 0.268-0.036 0.619 0.064 0.814-0.176 0.356-0.644 0.16-1.837-0.813-1.592z"></path>
<path fill="#000" d="M7.814 18.671c0.153-0.003 0.308-0.005 0.462-0.007 0.001 0.879 0.005 1.756-0.002 2.635-0.153-0.003-0.307-0.007-0.459-0.010-0.003-0.872-0.001-1.745-0.001-2.617z"></path>
<path fill="#000" d="M8.786 18.664c0.23 0.001 0.459 0.003 0.689 0.007 0.129 0.587 0.254 1.174 0.406 1.756 0.142-0.585 0.268-1.173 0.402-1.76 0.229-0.001 0.457-0.002 0.686-0.003 0.004 0.876 0 1.752 0.003 2.628-0.106 0-0.318 0.001-0.424 0.001-0.006-0.653 0.018-1.307-0.012-1.96-0.168 0.648-0.293 1.306-0.436 1.96-0.149-0.002-0.298-0.003-0.447-0.003-0.143-0.655-0.268-1.314-0.424-1.966-0.038 0.658-0.006 1.317-0.022 1.976-0.141-0.003-0.281-0.007-0.421-0.009 0.004-0.876 0.002-1.75 0.001-2.626z"></path>
<path fill="#000" d="M11.49 18.662c0.148 0.002 0.298 0.004 0.446 0.006-0.004 0.877 0.001 1.754-0.002 2.631-0.15-0.005-0.301-0.010-0.451-0.018 0.011-0.873 0-1.746 0.007-2.619z"></path>
<path fill="#000" d="M12.296 18.667c0.596-0.002 1.194 0 1.791-0.002 0.002 0.145 0.004 0.291 0.007 0.438-0.224 0.002-0.446 0.002-0.669 0.003 0.001 0.73 0.004 1.462-0.002 2.192-0.153-0.004-0.307-0.007-0.459-0.009-0.003-0.727-0.003-1.454 0-2.182-0.222-0.001-0.444-0.001-0.665-0.001-0.001-0.147-0.002-0.293-0.003-0.439z"></path>
<path fill="#000" d="M5.835 18.681c0.156 0.002 0.31 0.003 0.466 0.006-0.001 0.721 0.002 1.442-0.002 2.164 0.377 0 0.755 0 1.133 0 0.002 0.147 0.004 0.294 0.005 0.441-0.533 0.002-1.066 0-1.6 0.003-0.004-0.871-0.001-1.743-0.002-2.614z"></path>
</svg>
