<!-- Generated by IcoMoon.io -->
<svg version="1.1" xmlns="http://www.w3.org/2000/svg" width="24" height="24" viewBox="0 0 24 24">
<title>regulatory--detour-left--g1</title>
<path fill="#c0111e" d="M11.010 0h1.952c4.208 0.371 8.15 3.024 9.905 6.893 0.63 1.294 0.931 2.711 1.133 4.126v1.928c-0.295 2.783-1.454 5.496-3.451 7.482-1.987 2.057-4.735 3.256-7.559 3.571h-1.954c-4.205-0.38-8.143-3.026-9.901-6.893-0.631-1.294-0.932-2.708-1.135-4.124v-1.938c0.193-1.457 0.516-2.91 1.17-4.236 1.769-3.82 5.672-6.426 9.84-6.809M6.571 3.93c-0.482 0.265-0.82 0.773-1.367 0.912-0.143 0.514-0.649 0.798-0.92 1.24-2.287 2.921-2.639 7.176-0.888 10.441 1.722 3.371 5.552 5.497 9.325 5.161 3.918-0.229 7.499-3.101 8.579-6.874 1.165-3.708-0.167-8.038-3.246-10.418-3.196-2.617-8.086-2.803-11.483-0.462z"></path>
<path fill="#fff" d="M6.571 3.93c3.397-2.341 8.287-2.155 11.483 0.462 3.079 2.381 4.411 6.71 3.246 10.418-1.080 3.773-4.661 6.644-8.579 6.874-3.773 0.336-7.603-1.79-9.325-5.161-1.751-3.265-1.399-7.52 0.888-10.441 0.271-0.442 0.778-0.726 0.92-1.24 0.547-0.139 0.884-0.647 1.367-0.912M5.222 8.268c1.963 1.144 3.956 2.234 5.945 3.336 0.001-0.562-0.002-1.123 0.002-1.684 2.333-0.008 4.664 0.006 6.997-0.007 0-1.116 0.007-2.231-0.004-3.347-2.332-0.006-4.663 0-6.994-0.002-0.005-0.562 0.002-1.122-0.005-1.684-1.98 1.129-4.038 2.135-5.942 3.388M15.998 12c-0.16 0.264-0.314 0.53-0.461 0.802 0.084-0.005 0.254-0.013 0.34-0.018 0.22-0.26 0.44-0.52 0.656-0.784-0.179 0-0.358 0-0.535 0M3.964 13.135c-0.005 1.229-0.004 2.459-0.001 3.688 0.665-0.023 1.342 0.067 1.997-0.073 1.458-0.487 1.51-2.918 0.092-3.486-0.674-0.208-1.393-0.102-2.088-0.128M7.518 13.138c-0.001 1.229-0.004 2.456 0.001 3.685 0.664 0.002 1.327 0.002 1.991 0 0-0.216 0-0.431 0-0.646-0.425-0.002-0.85-0.002-1.276-0.002-0.001-0.304-0.001-0.607 0-0.911 0.426 0 0.851 0 1.276-0.001 0-0.21 0-0.42 0-0.629-0.426-0.002-0.851-0.002-1.276-0.004-0.002-0.281-0.002-0.562 0-0.842 0.425-0.002 0.85-0.002 1.274-0.004 0-0.215 0.001-0.43 0.002-0.644-0.665-0.008-1.328-0.007-1.993-0.002M10.565 15.104c0.366 0.161 1.045 0.287 0.869 0.841-0.174 0.556-0.982 0.271-0.918-0.269-0.214 0.001-0.427 0.004-0.641 0.006-0.016 0.683 0.565 1.346 1.28 1.214 1.052-0.050 1.422-1.79 0.407-2.176-0.355-0.162-1.085-0.214-0.881-0.785 0.176-0.414 0.755-0.202 0.779 0.2 0.209-0.006 0.419-0.011 0.629-0.019-0.026-0.601-0.534-1.16-1.168-1.043-0.994 0.046-1.285 1.658-0.356 2.029M12.182 13.138c0.45 1.231 0.863 2.478 1.343 3.697 0.164-0.005 0.33-0.010 0.494-0.014 0.445-1.225 0.88-2.454 1.316-3.682-0.251-0.004-0.503-0.006-0.754-0.010-0.293 0.816-0.54 1.646-0.823 2.466-0.274-0.82-0.529-1.645-0.811-2.462-0.256 0.001-0.51 0.001-0.766 0.005M15.545 13.138c-0.001 1.229-0.005 2.458 0.001 3.686 0.24 0 0.48 0 0.721-0.001 0-1.229 0.002-2.459-0.001-3.688-0.241 0-0.481 0-0.721 0.002M18.156 13.126c-1.232 0.251-1.831 1.835-1.153 2.869 0.518 0.955 1.912 1.201 2.75 0.529 0.834-0.595 1.014-1.892 0.38-2.694-0.439-0.606-1.255-0.892-1.978-0.704z"></path>
<path fill="#fff" d="M4.692 13.768c0.438 0.006 0.948-0.041 1.292 0.287 0.442 0.434 0.443 1.177 0.178 1.705-0.304 0.503-0.967 0.433-1.471 0.433-0.001-0.809-0.002-1.618 0.001-2.425z"></path>
<path fill="#fff" d="M18.397 13.841c0.613-0.15 1.278 0.322 1.35 0.946 0.101 0.592-0.296 1.246-0.906 1.345-0.679 0.156-1.361-0.45-1.357-1.13-0.042-0.547 0.384-1.060 0.913-1.16z"></path>
<path fill="#040404" d="M5.222 8.268c1.904-1.253 3.962-2.258 5.942-3.388 0.007 0.562 0 1.122 0.005 1.684 2.33 0.002 4.662-0.004 6.994 0.002 0.011 1.116 0.004 2.231 0.004 3.347-2.333 0.013-4.664-0.001-6.997 0.007-0.005 0.56-0.001 1.122-0.002 1.684-1.988-1.102-3.982-2.192-5.945-3.336z"></path>
<path fill="#040404" d="M15.998 12c0.178 0 0.356 0 0.535 0-0.216 0.264-0.437 0.523-0.656 0.784-0.085 0.005-0.256 0.013-0.34 0.018 0.146-0.271 0.301-0.538 0.461-0.802z"></path>
<path fill="#040404" d="M3.964 13.135c0.695 0.026 1.414-0.079 2.088 0.128 1.417 0.568 1.366 2.999-0.092 3.486-0.655 0.14-1.332 0.050-1.997 0.073-0.002-1.229-0.004-2.459 0.001-3.688M4.692 13.768c-0.004 0.808-0.002 1.616-0.001 2.425 0.504 0 1.168 0.070 1.471-0.433 0.265-0.528 0.264-1.271-0.178-1.705-0.344-0.328-0.854-0.281-1.292-0.287z"></path>
<path fill="#040404" d="M7.518 13.138c0.665-0.005 1.328-0.006 1.993 0.002-0.001 0.215-0.002 0.43-0.002 0.644-0.425 0.001-0.85 0.001-1.274 0.004-0.002 0.281-0.002 0.562 0 0.842 0.425 0.001 0.85 0.001 1.276 0.004 0 0.209 0 0.419 0 0.629-0.425 0.001-0.85 0.001-1.276 0.001-0.001 0.304-0.001 0.607 0 0.911 0.426 0 0.851 0 1.276 0.002 0 0.215 0 0.43 0 0.646-0.664 0.002-1.327 0.002-1.991 0-0.005-1.229-0.002-2.456-0.001-3.685z"></path>
<path fill="#040404" d="M10.565 15.104c-0.929-0.371-0.637-1.984 0.356-2.029 0.634-0.118 1.141 0.442 1.168 1.043-0.21 0.008-0.42 0.013-0.629 0.019-0.024-0.402-0.602-0.614-0.779-0.2-0.204 0.571 0.526 0.623 0.881 0.785 1.015 0.385 0.646 2.125-0.407 2.176-0.715 0.132-1.296-0.532-1.28-1.214 0.214-0.002 0.427-0.005 0.641-0.006-0.064 0.54 0.744 0.824 0.918 0.269 0.176-0.554-0.503-0.68-0.869-0.841z"></path>
<path fill="#040404" d="M12.182 13.138c0.256-0.004 0.51-0.004 0.766-0.005 0.282 0.817 0.538 1.643 0.811 2.462 0.283-0.82 0.53-1.65 0.823-2.466 0.251 0.004 0.503 0.006 0.754 0.010-0.437 1.228-0.871 2.456-1.316 3.682-0.164 0.005-0.33 0.010-0.494 0.014-0.48-1.219-0.893-2.466-1.343-3.697z"></path>
<path fill="#040404" d="M15.545 13.138c0.24-0.002 0.48-0.002 0.721-0.002 0.004 1.229 0.001 2.459 0.001 3.688-0.241 0.001-0.481 0.001-0.721 0.001-0.006-1.229-0.002-2.458-0.001-3.686z"></path>
<path fill="#040404" d="M18.156 13.126c0.722-0.187 1.538 0.098 1.978 0.704 0.634 0.802 0.454 2.099-0.38 2.694-0.839 0.672-2.232 0.426-2.75-0.529-0.678-1.034-0.079-2.618 1.153-2.869M18.397 13.841c-0.529 0.101-0.955 0.613-0.913 1.16-0.004 0.68 0.678 1.286 1.357 1.13 0.61-0.1 1.007-0.754 0.906-1.345-0.072-0.624-0.737-1.096-1.35-0.946z"></path>
</svg>
