<?xml version="1.0" encoding="utf-8"?>
<!-- Generated by IcoMoon.io -->
<!DOCTYPE svg PUBLIC "-//W3C//DTD SVG 1.1//EN" "http://www.w3.org/Graphics/SVG/1.1/DTD/svg11.dtd">
<svg version="1.1" xmlns="http://www.w3.org/2000/svg" xmlns:xlink="http://www.w3.org/1999/xlink" width="24" height="24" viewBox="0 0 24 24">
<path fill="#ee1c23" d="M5.293 2.047c2.66-1.823 6.083-2.462 9.228-1.777 2.531 0.522 4.856 1.918 6.545 3.868 1.79 2.048 2.826 4.718 2.934 7.434v1.013c-0.166 2.858-1.342 5.656-3.341 7.714-2.083 2.192-5.014 3.518-8.028 3.702h-1.238c-2.908-0.17-5.744-1.4-7.813-3.457-2.131-2.072-3.401-4.962-3.58-7.921v-1.043c0.119-3.78 2.138-7.44 5.293-9.532M5.191 6.266c-1.267 1.494-2.005 3.416-2.086 5.374 5.929 0 11.858 0 17.788 0-0.102-2.759-1.565-5.426-3.854-6.973-1.667-1.159-3.743-1.705-5.766-1.532-2.339 0.17-4.576 1.338-6.082 3.132M3.106 12.353c0.1 2.906 1.729 5.695 4.212 7.21 1.805 1.129 4.026 1.566 6.126 1.214 2.135-0.341 4.12-1.507 5.474-3.19 1.2-1.472 1.894-3.338 1.974-5.234-5.929-0.001-11.857-0.001-17.786 0z"></path>
<path fill="#fff" d="M5.191 6.266c1.506-1.794 3.743-2.962 6.082-3.132 2.023-0.173 4.099 0.373 5.766 1.532 2.29 1.547 3.752 4.214 3.854 6.973-5.929 0-11.858 0-17.788 0 0.080-1.957 0.818-3.88 2.086-5.374M9.92 4.729c-0.092 0.246-0.186 0.493-0.28 0.739 0.212 0.072 0.425 0.143 0.637 0.214-0.158 0.488-0.324 0.974-0.484 1.462-0.881-0.328-1.948 0.059-2.359 0.913-0.55 0.968 0.016 2.318 1.075 2.636 1.044 0.389 2.287-0.373 2.447-1.465 0.16-0.802-0.29-1.616-0.99-2.005 0.036-0.1 0.109-0.299 0.145-0.398 0.456 0.511 0.93 1.006 1.399 1.504-0.206 0.352-0.14 0.757 0.102 1.075 0.084-0.044 0.167-0.090 0.251-0.136-0.366-0.113-0.358-0.524-0.242-0.812 0.264 0.227 0.46 0.514 0.548 0.853-0.15 0.043-0.298 0.092-0.437 0.164l0.418 0.030c-0.076 0.12-0.149 0.24-0.223 0.361 0.227 0.006 0.454 0.007 0.68 0.010-0.001-0.049-0.001-0.149-0.001-0.199-0.079-0.010-0.236-0.031-0.314-0.042 0.065-0.275 0.444-0.392 0.509-0.707 0.096 0.004 0.193 0.006 0.289 0.008 0.017 0.997 0.898 1.901 1.912 1.853 1.133 0.025 2.088-1.153 1.817-2.258-0.193-1.11-1.477-1.801-2.521-1.382-0.15-0.316-0.292-0.635-0.437-0.954 0.042-0.070 0.126-0.21 0.168-0.281 0.307 0.028 0.856 0.296 0.95-0.166-0.005-0.437-0.528-0.33-0.818-0.341-0.319 0.041-0.7-0.096-0.973 0.107-0.026 0.336 0.396 0.26 0.612 0.352-0.046 0.073-0.090 0.145-0.134 0.217-1.105-0.001-2.21 0-3.316-0.001 0.043-0.124 0.127-0.373 0.169-0.497-0.205-0.080-0.412-0.155-0.619-0.224 0.049-0.146 0.101-0.292 0.151-0.437 0.436 0 0.871-0.012 1.307-0.007 0.17 0.157 0.341 0.322 0.563 0.406-0.048-0.27-0.292-0.415-0.468-0.596-0.51-0.008-1.021 0.007-1.532 0.006z"></path>
<path fill="#fff" d="M10.17 6.616c0.028-0.078 0.083-0.234 0.11-0.312 1.082 0.001 2.164 0 3.245 0.001-0.386 0.613-0.775 1.226-1.159 1.841-0.246-0.022-0.48-0.071-0.493-0.366 0.077-0.022 0.232-0.065 0.308-0.086-0.067-0.282-0.41-0.146-0.616-0.155-0.259 0.134 0.095 0.241 0.223 0.235 0.035 0.143 0.131 0.469-0.104 0.427-0.534-0.498-1.004-1.062-1.514-1.585z"></path>
<path fill="#fff" d="M12.511 8.53c0.254-0.793 0.82-1.433 1.226-2.149 0.126 0.281 0.251 0.562 0.377 0.844-0.558 0.318-0.947 0.884-1.024 1.526-0.192-0.046-0.512 0.025-0.391-0.367-0.052 0.114-0.102 0.228-0.149 0.344-0.090-0.005-0.18-0.010-0.269-0.014 0.026-0.067 0.082-0.203 0.109-0.271l0.12 0.088z"></path>
<path fill="#fff" d="M7.768 8.135c0.365-0.668 1.214-0.922 1.918-0.685-0.17 0.551-0.312 1.129-0.712 1.568 0.684-0.106 0.641-0.984 0.898-1.478 0.596 0.383 0.949 1.147 0.706 1.838-0.241 0.83-1.247 1.316-2.044 0.965-0.854-0.31-1.25-1.436-0.766-2.208z"></path>
<path fill="#fff" d="M14.428 7.442c0.786-0.272 1.739 0.14 2.005 0.944 0.361 0.901-0.34 2.006-1.309 2.062-0.872 0.106-1.666-0.638-1.711-1.499 0.565 0.007 1.13 0.066 1.697 0.030-0.217-0.517-0.461-1.022-0.682-1.537z"></path>
<path fill="#fff" d="M13.417 8.752c0.088-0.509 0.386-0.956 0.828-1.225 0.198 0.424 0.388 0.85 0.58 1.277-0.469-0.016-0.938-0.030-1.408-0.052z"></path>
<path fill="#fff" d="M11.984 8.292c0.2-0.085 0.274-0.032 0.221 0.16-0.202 0.084-0.275 0.031-0.221-0.16z"></path>
<path fill="#fff" d="M12.235 8.933c0.076-0.001 0.227-0.005 0.302-0.006 0.098 0.132-0.101 0.32-0.235 0.325-0.136-0.086-0.157-0.192-0.067-0.319z"></path>
<path fill="#fff" d="M3.106 12.353c5.929-0.001 11.857-0.001 17.786 0-0.080 1.896-0.774 3.762-1.974 5.234-1.355 1.682-3.34 2.849-5.474 3.19-2.1 0.352-4.321-0.085-6.126-1.214-2.483-1.514-4.112-4.303-4.212-7.21M9.158 13.468c0 0.208 0 0.415 0.004 0.624 0.144 0.029 0.288 0.059 0.432 0.088-0.014 0.074-0.043 0.222-0.058 0.296-0.074 0.016-0.223 0.047-0.298 0.064-0.146-0.173-0.331-0.3-0.535-0.394-0.018 0.311-0.024 0.623-0.022 0.934 0.19-0.073 0.377-0.156 0.562-0.244-0.053 0.241-0.104 0.484-0.155 0.725-0.542-0.035-1.202 0.055-1.463 0.598-0.568 0.544-0.697 1.483-0.253 2.141 0.499 0.818 1.735 1.069 2.477 0.432 0.409-0.24 0.466-0.758 0.785-1.067 0.119-0.844-0.4-1.675-1.171-2.005 0.029-0.056 0.085-0.17 0.114-0.228 0.756 0.613 1.529 1.208 2.285 1.822 0.017 0.221 0.014 0.515 0.271 0.598 0.41 0.053 0.826-0.002 1.236-0.023 0.217 0.4 0.436 0.839 0.862 1.055 0.78 0.499 1.916 0.176 2.345-0.635 0.186-0.281 0.134-0.653 0.346-0.918-0.036-1.064-1.075-1.867-2.114-1.745-0.124-0.371-0.406-0.707-0.379-1.114 0.205 0 0.534 0.142 0.631-0.114 0.107-0.257-0.109-0.614-0.409-0.511-0.438 0.113-0.883 0.182-1.333 0.228-0.109 0.072-0.049 0.192-0.032 0.294 0.284 0.007 0.569 0.022 0.853 0.044-0.473 0.716-0.906 1.464-1.409 2.159-0.324 0.136-0.739 0.109-1.040-0.071-0.385-0.415-0.463-1.024-0.842-1.446-0.276-0.348-0.726-0.461-1.138-0.563 0.028-0.148 0.054-0.295 0.080-0.444-0.154-0.032-0.306-0.065-0.458-0.097 0-0.092-0.001-0.277-0.001-0.37 0.384-0.146 0.768-0.293 1.152-0.44 0.217 0.136 0.415 0.314 0.664 0.389 0.137-0.024 0.162-0.186 0.239-0.278-0.25-0.151-0.518-0.286-0.812-0.312-0.482 0.143-0.942 0.354-1.412 0.529z"></path>
<path fill="#fff" d="M12.877 16.961c0.44-0.665 0.844-1.354 1.309-1.999 0.108 0.234 0.214 0.47 0.322 0.706-0.577 0.222-1.025 0.702-1.207 1.292-0.106 0-0.317 0-0.424 0.001z"></path>
<path fill="#fff" d="M7.524 16.804c0.281-0.532 0.853-0.846 1.453-0.812-0.091 0.432-0.194 0.862-0.293 1.292-0.388-0.16-0.775-0.318-1.16-0.48z"></path>
<path fill="#fff" d="M13.763 16.963c0.18-0.4 0.498-0.719 0.906-0.881 0.162 0.302 0.37 0.577 0.529 0.881-0.478 0.008-0.956 0.007-1.435 0z"></path>
<path fill="#fff" d="M15.028 16.009c0.719 0.012 1.356 0.553 1.458 1.268-0.241 0.008-0.481 0.016-0.721 0.018-0.436-0.304-0.635-0.782-0.737-1.286z"></path>
<path fill="#fff" d="M9.343 16.090c0.47 0.238 0.802 0.684 0.865 1.212-0.422 0.004-0.845 0.002-1.267 0.002 0.133-0.406 0.264-0.811 0.402-1.214z"></path>
<path fill="#fff" d="M8.773 18.769c-0.906 0.008-1.577-0.973-1.298-1.824 0.376 0.161 0.77 0.28 1.13 0.476 0.023 0.061 0.070 0.185 0.092 0.246 0.391-0.416 1.016-0.148 1.519-0.212-0.086 0.714-0.694 1.357-1.444 1.314z"></path>
<path fill="#fff" d="M15.757 17.412c0.246-0.006 0.491-0.014 0.737-0.020-0.028 0.596-0.4 1.182-0.991 1.35-0.62 0.214-1.306-0.1-1.637-0.644-0.005-0.070-0.013-0.21-0.018-0.281 0.506 0.006 1.012-0.029 1.518-0.055 0.212 0.016 0.29-0.21 0.391-0.349z"></path>
<path fill="#000" d="M9.92 4.729c0.511 0.001 1.022-0.014 1.532-0.006 0.176 0.181 0.42 0.326 0.468 0.596-0.222-0.084-0.392-0.248-0.563-0.406-0.436-0.005-0.871 0.007-1.307 0.007-0.050 0.145-0.102 0.29-0.151 0.437 0.208 0.070 0.414 0.144 0.619 0.224-0.042 0.124-0.126 0.373-0.169 0.497 1.105 0.001 2.21 0 3.316 0.001 0.044-0.072 0.089-0.144 0.134-0.217-0.216-0.091-0.638-0.016-0.612-0.352 0.274-0.203 0.654-0.066 0.973-0.107 0.29 0.011 0.814-0.096 0.818 0.341-0.095 0.462-0.643 0.193-0.95 0.166-0.042 0.071-0.126 0.211-0.168 0.281 0.145 0.319 0.287 0.638 0.437 0.954 1.044-0.419 2.328 0.272 2.521 1.382 0.271 1.105-0.684 2.284-1.817 2.258-1.014 0.048-1.895-0.856-1.912-1.853-0.096-0.002-0.193-0.005-0.289-0.008-0.065 0.314-0.444 0.432-0.509 0.707 0.078 0.011 0.235 0.032 0.314 0.042 0 0.050 0 0.15 0.001 0.199-0.227-0.002-0.454-0.004-0.68-0.010 0.074-0.121 0.148-0.241 0.223-0.361l-0.418-0.030c0.139-0.072 0.287-0.121 0.437-0.164-0.089-0.34-0.284-0.626-0.548-0.853-0.115 0.288-0.124 0.7 0.242 0.812-0.084 0.046-0.167 0.091-0.251 0.136-0.242-0.318-0.308-0.724-0.102-1.075-0.469-0.498-0.943-0.992-1.399-1.504-0.036 0.1-0.109 0.299-0.145 0.398 0.7 0.389 1.15 1.204 0.99 2.005-0.16 1.092-1.403 1.854-2.447 1.465-1.060-0.318-1.625-1.668-1.075-2.636 0.412-0.854 1.478-1.241 2.359-0.913 0.16-0.487 0.325-0.973 0.484-1.462-0.212-0.071-0.425-0.142-0.637-0.214 0.094-0.246 0.187-0.493 0.28-0.739M10.17 6.616c0.51 0.523 0.98 1.087 1.514 1.585 0.235 0.042 0.139-0.284 0.104-0.427-0.128 0.006-0.482-0.101-0.223-0.235 0.205 0.008 0.548-0.127 0.616 0.155-0.077 0.022-0.232 0.065-0.308 0.086 0.013 0.295 0.247 0.344 0.493 0.366 0.384-0.614 0.773-1.228 1.159-1.841-1.081-0.001-2.162 0-3.245-0.001-0.028 0.078-0.083 0.234-0.11 0.312M12.511 8.53l-0.12-0.088c-0.028 0.068-0.083 0.204-0.109 0.271 0.089 0.005 0.179 0.010 0.269 0.014 0.047-0.116 0.097-0.23 0.149-0.344-0.121 0.392 0.199 0.322 0.391 0.367 0.077-0.642 0.466-1.208 1.024-1.526-0.126-0.282-0.251-0.563-0.377-0.844-0.407 0.716-0.972 1.356-1.226 2.149M7.768 8.135c-0.485 0.772-0.089 1.898 0.766 2.208 0.797 0.352 1.802-0.134 2.044-0.965 0.244-0.691-0.109-1.456-0.706-1.838-0.257 0.494-0.214 1.373-0.898 1.478 0.4-0.439 0.541-1.018 0.712-1.568-0.703-0.236-1.553 0.017-1.918 0.685M14.428 7.442c0.221 0.515 0.464 1.020 0.682 1.537-0.566 0.036-1.132-0.023-1.697-0.030 0.046 0.86 0.839 1.604 1.711 1.499 0.97-0.055 1.67-1.16 1.309-2.062-0.266-0.804-1.219-1.217-2.005-0.944M13.417 8.752c0.469 0.022 0.938 0.036 1.408 0.052-0.192-0.427-0.382-0.853-0.58-1.277-0.442 0.269-0.74 0.716-0.828 1.225M11.984 8.292c-0.054 0.191 0.019 0.244 0.221 0.16 0.053-0.192-0.020-0.245-0.221-0.16M12.235 8.933c-0.090 0.127-0.068 0.233 0.067 0.319 0.134-0.005 0.334-0.193 0.235-0.325-0.076 0.001-0.227 0.005-0.302 0.006z"></path>
<path fill="#000" d="M9.158 13.468c0.47-0.175 0.93-0.386 1.412-0.529 0.294 0.026 0.563 0.161 0.812 0.312-0.077 0.092-0.102 0.254-0.239 0.278-0.248-0.074-0.446-0.253-0.664-0.389-0.384 0.148-0.768 0.294-1.152 0.44 0 0.092 0.001 0.277 0.001 0.37 0.152 0.032 0.305 0.065 0.458 0.097-0.026 0.149-0.053 0.296-0.080 0.444 0.412 0.102 0.862 0.215 1.138 0.563 0.379 0.422 0.457 1.031 0.842 1.446 0.301 0.18 0.716 0.206 1.040 0.071 0.503-0.695 0.936-1.442 1.409-2.159-0.284-0.023-0.569-0.037-0.853-0.044-0.017-0.102-0.077-0.222 0.032-0.294 0.45-0.046 0.895-0.115 1.333-0.228 0.3-0.103 0.516 0.254 0.409 0.511-0.097 0.256-0.426 0.114-0.631 0.114-0.026 0.407 0.256 0.743 0.379 1.114 1.039-0.122 2.078 0.68 2.114 1.745-0.211 0.265-0.16 0.637-0.346 0.918-0.428 0.811-1.565 1.134-2.345 0.635-0.426-0.216-0.644-0.655-0.862-1.055-0.41 0.020-0.826 0.076-1.236 0.023-0.257-0.083-0.254-0.377-0.271-0.598-0.756-0.613-1.529-1.208-2.285-1.822-0.029 0.058-0.085 0.172-0.114 0.228 0.772 0.33 1.29 1.162 1.171 2.005-0.319 0.308-0.376 0.827-0.785 1.067-0.742 0.637-1.978 0.386-2.477-0.432-0.444-0.658-0.314-1.597 0.253-2.141 0.26-0.542 0.92-0.632 1.463-0.598 0.050-0.241 0.102-0.484 0.155-0.725-0.185 0.088-0.372 0.17-0.562 0.244-0.002-0.311 0.004-0.623 0.022-0.934 0.204 0.094 0.389 0.221 0.535 0.394 0.074-0.017 0.223-0.048 0.298-0.064 0.014-0.074 0.043-0.222 0.058-0.296-0.144-0.029-0.288-0.059-0.432-0.088-0.004-0.209-0.004-0.416-0.004-0.624M12.877 16.961c0.107-0.001 0.318-0.001 0.424-0.001 0.182-0.59 0.63-1.070 1.207-1.292-0.108-0.235-0.214-0.472-0.322-0.706-0.466 0.646-0.869 1.334-1.309 1.999M7.524 16.804c0.385 0.162 0.773 0.32 1.16 0.48 0.098-0.431 0.202-0.86 0.293-1.292-0.6-0.034-1.172 0.281-1.453 0.812M13.763 16.963c0.479 0.007 0.958 0.008 1.435 0-0.16-0.304-0.367-0.578-0.529-0.881-0.408 0.162-0.726 0.481-0.906 0.881M15.028 16.009c0.102 0.504 0.301 0.983 0.737 1.286 0.24-0.002 0.48-0.010 0.721-0.018-0.102-0.715-0.739-1.256-1.458-1.268M9.343 16.090c-0.138 0.403-0.269 0.809-0.402 1.214 0.422 0 0.845 0.001 1.267-0.002-0.064-0.528-0.395-0.974-0.865-1.212M8.773 18.769c0.75 0.043 1.357-0.6 1.444-1.314-0.503 0.065-1.128-0.204-1.519 0.212-0.023-0.061-0.070-0.185-0.092-0.246-0.36-0.197-0.755-0.316-1.13-0.476-0.278 0.851 0.392 1.832 1.298 1.824M15.757 17.412c-0.101 0.139-0.179 0.365-0.391 0.349-0.506 0.026-1.012 0.061-1.518 0.055 0.005 0.071 0.013 0.211 0.018 0.281 0.331 0.545 1.016 0.858 1.637 0.644 0.592-0.168 0.964-0.754 0.991-1.35-0.246 0.006-0.491 0.014-0.737 0.020z"></path>
</svg>
