<?xml version="1.0" encoding="utf-8"?>
<!-- Generated by IcoMoon.io -->
<!DOCTYPE svg PUBLIC "-//W3C//DTD SVG 1.1//EN" "http://www.w3.org/Graphics/SVG/1.1/DTD/svg11.dtd">
<svg version="1.1" xmlns="http://www.w3.org/2000/svg" xmlns:xlink="http://www.w3.org/1999/xlink" width="24" height="24" viewBox="0 0 24 24">
<path fill="#000" opacity="0.97" d="M2.95 0h18.1v24h-18.1v-24M4.199 0.167c-0.649 0.136-1.139 0.767-1.117 1.429 0 6.933 0 13.866 0 20.8-0.030 0.754 0.623 1.453 1.38 1.463 4.998 0.003 9.997 0 14.995 0.001 0.773 0.014 1.453-0.692 1.423-1.463 0.002-6.933 0.002-13.866 0-20.799 0.033-0.774-0.647-1.478-1.422-1.468-4.903-0.008-9.806 0.001-14.709-0.005-0.184 0.002-0.37 0.001-0.55 0.042z"></path>
<path fill="#000" opacity="0.97" d="M4.476 0.439c4.959-0.012 9.919-0.003 14.878-0.005 0.429-0.022 0.87 0.194 1.075 0.579 0.19 0.329 0.139 0.723 0.146 1.086-0.001 6.602-0.001 13.203 0 19.804-0.007 0.382 0.049 0.81-0.189 1.14-0.202 0.32-0.574 0.512-0.951 0.509-4.958 0.003-9.917 0.001-14.875 0.001-0.628 0.035-1.202-0.526-1.169-1.156-0.002-6.929-0.001-13.857-0.001-20.785-0.037-0.605 0.478-1.168 1.086-1.173M4.267 1.122c-0.214 0.107-0.272 0.36-0.256 0.58 0.004 6.9-0.002 13.8 0.003 20.7-0.026 0.292 0.241 0.568 0.538 0.524 4.967 0 9.935 0.002 14.902 0 0.283 0.022 0.517-0.25 0.495-0.523 0.004-6.935 0.004-13.87 0-20.805 0.035-0.332-0.288-0.588-0.604-0.544-4.865-0.003-9.73 0.002-14.595-0.003-0.161 0.008-0.336-0.011-0.483 0.071z"></path>
<path fill="#000" opacity="0.97" d="M10.458 3.3c0.498-0.757 1.566-1.053 2.382-0.66 0.853 0.362 1.33 1.402 1.030 2.283-0.14 0.531-0.555 0.923-1.019 1.184-0.165 0.274-0.066 0.65-0.065 0.961 0.17 0.374 0.655 0.428 0.97 0.648 0.711-0.797 1.416-1.599 2.124-2.399 0.204 0.184 0.407 0.368 0.61 0.554-0.663 0.739-1.312 1.491-1.975 2.231 0.25 0.13 0.513 0.241 0.739 0.412 0.258 0.221 0.351 0.563 0.437 0.878 0.336 1.236 0.688 2.468 1.019 3.705 0.146 0.539-0.159 1.051-0.268 1.567 0.583 0.2 1.145 0.458 1.681 0.763-0.105 0.254-0.211 0.508-0.315 0.763-0.51-0.293-1.051-0.527-1.601-0.734-0.598 2.032-1.28 4.038-1.882 6.070-0.675 0.001-1.35 0.001-2.026 0 0.342-1.58 0.688-3.159 1.030-4.74-0.857 0.001-1.714 0-2.571 0.001 0.343 1.58 0.688 3.159 1.030 4.739-0.674 0.001-1.349 0-2.024 0.001-0.584-1.938-1.214-3.862-1.783-5.805-0.12-0.116-0.2 0.048-0.283 0.121-0.416 0.469-0.828 0.942-1.245 1.411-0.195-0.178-0.396-0.35-0.606-0.511 0.569-0.714 1.206-1.372 1.8-2.066-0.113-0.534-0.43-1.069-0.26-1.624 0.343-1.259 0.696-2.516 1.041-3.775 0.088-0.328 0.225-0.686 0.54-0.858 0.696-0.381 1.415-0.72 2.114-1.095 0.348-0.172 0.215-0.62 0.237-0.929 0.056-0.293-0.254-0.387-0.439-0.526-0.794-0.563-0.989-1.782-0.422-2.57M10.451 4.608c0.072 0.521 0.422 0.968 0.886 1.202 0.362 0.191 0.274 0.652 0.283 0.989 0.024 0.305-0.093 0.64-0.382 0.783-0.698 0.375-1.415 0.716-2.111 1.096-0.236 0.122-0.33 0.389-0.394 0.629-0.347 1.262-0.702 2.522-1.045 3.785-0.153 0.452 0.099 0.894 0.194 1.33 1.89-2.161 3.797-4.307 5.68-6.474-0.292-0.159-0.616-0.271-0.876-0.483-0.294-0.276-0.208-0.712-0.217-1.072-0.017-0.255 0.103-0.516 0.343-0.624 0.693-0.347 1.027-1.246 0.743-1.964-0.27-0.75-1.151-1.205-1.919-0.983-0.773 0.179-1.327 1.002-1.185 1.786M8.947 14.435c2.342-0.712 4.893-0.651 7.209 0.134 0.098-0.486 0.405-0.971 0.244-1.476-0.337-1.239-0.685-2.475-1.023-3.713-0.069-0.238-0.137-0.506-0.348-0.659-0.225-0.151-0.477-0.256-0.715-0.384-1.793 2.029-3.584 4.060-5.367 6.098M8.222 15.563c0.577 1.892 1.192 3.773 1.768 5.666 0.475-0.005 0.951-0.002 1.426-0.002-0.341-1.579-0.688-3.156-1.029-4.734 1.105 0 2.209 0 3.314 0.001-0.341 1.578-0.691 3.154-1.027 4.733 0.477-0.002 0.954 0.002 1.431-0.003 0.583-1.964 1.23-3.909 1.832-5.867-2.485-0.823-5.294-0.852-7.715 0.206z"></path>
<path fill="#fff" d="M4.199 0.167c0.18-0.041 0.366-0.040 0.55-0.042 4.903 0.006 9.806-0.003 14.709 0.005 0.775-0.010 1.455 0.694 1.422 1.468 0.002 6.933 0.002 13.866 0 20.799 0.030 0.771-0.65 1.477-1.423 1.463-4.998-0.001-9.997 0.002-14.995-0.001-0.757-0.010-1.41-0.709-1.38-1.463 0-6.934 0-13.867 0-20.8-0.022-0.662 0.468-1.293 1.117-1.429M4.476 0.439c-0.608 0.005-1.123 0.568-1.086 1.173 0 6.928-0.001 13.856 0.001 20.785-0.033 0.63 0.541 1.191 1.169 1.156 4.958 0 9.917 0.002 14.875-0.001 0.377 0.003 0.749-0.189 0.951-0.509 0.238-0.33 0.182-0.758 0.189-1.14-0.001-6.601-0.001-13.202 0-19.804-0.007-0.363 0.044-0.757-0.146-1.086-0.205-0.385-0.646-0.601-1.075-0.579-4.959 0.002-9.919-0.007-14.878 0.005z"></path>
<path fill="#fff" d="M4.267 1.122c0.147-0.082 0.322-0.063 0.483-0.071 4.865 0.005 9.73 0 14.595 0.003 0.316-0.044 0.639 0.212 0.604 0.544 0.004 6.935 0.004 13.87 0 20.805 0.022 0.273-0.212 0.545-0.495 0.523-4.967 0.002-9.935 0-14.902 0-0.297 0.044-0.564-0.232-0.538-0.524-0.005-6.9 0.001-13.8-0.003-20.7-0.016-0.22 0.042-0.473 0.256-0.58M10.458 3.3c-0.567 0.788-0.372 2.007 0.422 2.57 0.185 0.139 0.495 0.233 0.439 0.526-0.022 0.309 0.111 0.757-0.237 0.929-0.699 0.375-1.418 0.714-2.114 1.095-0.315 0.172-0.452 0.53-0.54 0.858-0.345 1.259-0.698 2.516-1.041 3.775-0.17 0.555 0.147 1.090 0.26 1.624-0.594 0.694-1.231 1.352-1.8 2.066 0.21 0.161 0.411 0.333 0.606 0.511 0.417-0.469 0.829-0.942 1.245-1.411 0.083-0.073 0.163-0.237 0.283-0.121 0.569 1.943 1.199 3.867 1.783 5.805 0.675-0.001 1.35 0 2.024-0.001-0.342-1.58-0.687-3.159-1.030-4.739 0.857-0.001 1.714 0 2.571-0.001-0.342 1.581-0.688 3.16-1.030 4.74 0.676 0.001 1.351 0.001 2.026 0 0.602-2.032 1.284-4.038 1.882-6.070 0.55 0.207 1.091 0.441 1.601 0.734 0.104-0.255 0.21-0.509 0.315-0.763-0.536-0.305-1.098-0.563-1.681-0.763 0.109-0.516 0.414-1.028 0.268-1.567-0.331-1.237-0.683-2.469-1.019-3.705-0.086-0.315-0.179-0.657-0.437-0.878-0.226-0.171-0.489-0.282-0.739-0.412 0.663-0.74 1.312-1.492 1.975-2.231-0.203-0.186-0.406-0.37-0.61-0.554-0.708 0.8-1.413 1.602-2.124 2.399-0.315-0.22-0.8-0.274-0.97-0.648-0.001-0.311-0.1-0.687 0.065-0.961 0.464-0.261 0.879-0.653 1.019-1.184 0.3-0.881-0.177-1.921-1.030-2.283-0.816-0.393-1.884-0.097-2.382 0.66z"></path>
<path fill="#fff" d="M10.451 4.608c-0.142-0.784 0.412-1.607 1.185-1.786 0.768-0.222 1.649 0.233 1.919 0.983 0.284 0.718-0.050 1.617-0.743 1.964-0.24 0.108-0.36 0.369-0.343 0.624 0.009 0.36-0.077 0.796 0.217 1.072 0.26 0.212 0.584 0.324 0.876 0.483-1.883 2.167-3.79 4.313-5.68 6.474-0.095-0.436-0.347-0.878-0.194-1.33 0.343-1.263 0.698-2.523 1.045-3.785 0.064-0.24 0.158-0.507 0.394-0.629 0.696-0.38 1.413-0.721 2.111-1.096 0.289-0.143 0.406-0.478 0.382-0.783-0.009-0.337 0.079-0.798-0.283-0.989-0.464-0.234-0.814-0.681-0.886-1.202z"></path>
<path fill="#fff" d="M8.947 14.435c1.783-2.038 3.574-4.069 5.367-6.098 0.238 0.128 0.49 0.233 0.715 0.384 0.211 0.153 0.279 0.421 0.348 0.659 0.338 1.238 0.686 2.474 1.023 3.713 0.161 0.505-0.146 0.99-0.244 1.476-2.316-0.785-4.867-0.846-7.209-0.134z"></path>
<path fill="#fff" d="M8.222 15.563c2.421-1.058 5.23-1.029 7.715-0.206-0.602 1.958-1.249 3.903-1.832 5.867-0.477 0.005-0.954 0.001-1.431 0.003 0.336-1.579 0.686-3.155 1.027-4.733-1.105-0.001-2.209-0.001-3.314-0.001 0.341 1.578 0.688 3.155 1.029 4.734-0.475 0-0.951-0.003-1.426 0.002-0.576-1.893-1.191-3.774-1.768-5.666z"></path>
</svg>
