<?xml version="1.0" encoding="utf-8"?>
<!-- Generated by IcoMoon.io -->
<!DOCTYPE svg PUBLIC "-//W3C//DTD SVG 1.1//EN" "http://www.w3.org/Graphics/SVG/1.1/DTD/svg11.dtd">
<svg version="1.1" xmlns="http://www.w3.org/2000/svg" xmlns:xlink="http://www.w3.org/1999/xlink" width="24" height="24" viewBox="0 0 24 24">
<path fill="#dc1803" d="M11.236 0h2.147c-0.002 0.042-0.007 0.126-0.010 0.168 2.394 0.264 4.697 1.283 6.48 2.905 1.952 1.676 3.27 4.024 3.826 6.524 0.151 0.751 0.083 1.524 0.1 2.285-0.024 0.973 0.073 1.968-0.187 2.92-0.425 1.577-1.139 3.079-2.129 4.38-1.786 2.358-4.477 4.015-7.391 4.534-1.004 0.113-2.018 0.050-3.028 0.059-1.441 0.025-2.836-0.442-4.129-1.039-2.657-1.246-4.786-3.527-5.916-6.228-0.452-1.087-0.809-2.244-0.772-3.434 0.019-1.298-0.101-2.616 0.191-3.894 0.635-2.704 2.338-5.074 4.513-6.763 1.177-0.913 2.574-1.499 3.996-1.91 0.757-0.227 1.558-0.254 2.309-0.505M10.86 3.086c-3.127 0.376-5.951 2.536-7.136 5.453-0.82 1.956-0.913 4.205-0.246 6.218 0.608 1.885 1.867 3.55 3.511 4.654 1.835 1.253 4.152 1.781 6.348 1.436 3.326-0.461 6.248-2.971 7.219-6.185 0.607-1.906 0.542-4.016-0.181-5.881-0.758-2.008-2.269-3.716-4.166-4.717-1.624-0.875-3.522-1.21-5.348-0.978z"></path>
<path fill="#fff" d="M10.86 3.086c1.826-0.232 3.725 0.103 5.348 0.978 1.897 1.001 3.408 2.71 4.166 4.717 0.724 1.865 0.788 3.976 0.181 5.881-0.971 3.214-3.893 5.724-7.219 6.185-2.196 0.344-4.513-0.184-6.348-1.436-1.644-1.104-2.903-2.768-3.511-4.654-0.667-2.014-0.574-4.262 0.246-6.218 1.186-2.917 4.009-5.077 7.136-5.453M6.905 6.236c-0.101 1.283-0.203 2.566-0.294 3.848-0.188 0.092-0.431 0.14-0.528 0.349-0.102 0.227-0.083 0.482-0.092 0.725 0.004 1.66 0.001 3.318 0.002 4.978 0.199 0.001 0.398 0.001 0.598 0.002 0.029 0.617-0.071 1.248 0.066 1.854 0.131 0.31 0.523 0.216 0.79 0.236 0.272-0.014 0.661 0.067 0.786-0.256 0.091-0.605 0.016-1.224 0.040-1.834 2.492-0.004 4.984 0 7.476-0.002 0.014 0.607-0.035 1.217 0.023 1.822 0.127 0.323 0.505 0.264 0.784 0.269 0.274-0.017 0.658 0.074 0.802-0.235 0.115-0.608 0.029-1.237 0.054-1.854 0.199-0.001 0.398-0.001 0.598-0.002 0.001-1.699 0-3.4 0.001-5.099-0.012-0.209 0.010-0.436-0.092-0.628-0.107-0.19-0.337-0.238-0.521-0.322-0.097-1.319-0.191-2.638-0.307-3.954-0.041-0.426-0.481-0.697-0.887-0.653-2.838 0.002-5.676-0.007-8.514 0.005-0.416-0.023-0.78 0.337-0.782 0.75z"></path>
<path fill="#fff" d="M8.155 9.599c0.7-0.374 1.718-0.223 2.14 0.496 0.382 0.574 0.245 1.366-0.264 1.814 0.233 0.229 0.482 0.473 0.556 0.804 0.248 0.871-0.422 1.85-1.324 1.938-0.79 0.154-1.618-0.283-1.904-1.039 0.278-0.104 0.559-0.203 0.839-0.302 0.184 0.269 0.438 0.559 0.802 0.518 0.552 0.016 0.934-0.671 0.624-1.13-0.17-0.323-0.557-0.358-0.878-0.394 0.001-0.258 0.001-0.516 0.002-0.774 0.306-0.030 0.698-0.068 0.816-0.41 0.229-0.419-0.209-0.946-0.659-0.876-0.278 0.010-0.437 0.262-0.599 0.45-0.278-0.091-0.558-0.184-0.834-0.282 0.167-0.314 0.356-0.643 0.684-0.812z"></path>
<path fill="#fff" d="M12.043 10.548c0.772 0.001 1.543 0.001 2.315 0 0 0.229-0.001 0.458-0.001 0.689-0.536-0.006-1.074-0.002-1.61-0.005-0.001 0.216-0.001 0.432-0.002 0.649 0.332-0.079 0.696-0.095 1.004 0.077 0.972 0.454 0.962 2.084-0.008 2.536-0.624 0.304-1.38 0.062-1.855-0.404 0.16-0.158 0.325-0.311 0.487-0.468 0.317 0.27 0.829 0.52 1.187 0.172 0.29-0.347 0.28-1.034-0.167-1.255-0.258-0.122-0.534 0.010-0.778 0.101-0.191-0.050-0.382-0.101-0.572-0.151 0-0.647-0.001-1.292 0.001-1.939z"></path>
<path fill="#fff" d="M15.7 11.551c0.174-0.156 0.349-0.31 0.522-0.466 0 0.326 0 0.653 0.001 0.979 0.2-0.001 0.4-0.002 0.601-0.002-0.001 0.124-0.001 0.371-0.001 0.494-0.2 0-0.4 0-0.6-0.001 0.002 0.505-0.026 1.014 0.040 1.516 0.107-0.004 0.32-0.012 0.426-0.016 0.047 0.162 0.091 0.325 0.138 0.487-0.389 0.062-0.896 0.038-1.063-0.391-0.133-0.516-0.035-1.064-0.062-1.594-0.080 0-0.241 0-0.322 0-0.001-0.124-0.001-0.371-0.001-0.496 0.080 0 0.242 0 0.323 0-0.001-0.17-0.001-0.341-0.001-0.511z"></path>
<path fill="#fff" d="M10.776 14.405c-0.092-0.374 0.395-0.695 0.695-0.442 0.494 0.365 0.010 1.374-0.58 1.079 0.116-0.16 0.28-0.276 0.401-0.432-0.174-0.053-0.425 0-0.516-0.205z"></path>
<path fill="#030303" d="M6.905 6.236c0.002-0.413 0.366-0.773 0.782-0.75 2.838-0.012 5.676-0.002 8.514-0.005 0.406-0.044 0.846 0.227 0.887 0.653 0.116 1.316 0.21 2.635 0.307 3.954 0.184 0.084 0.414 0.132 0.521 0.322 0.102 0.192 0.080 0.419 0.092 0.628-0.001 1.699 0 3.4-0.001 5.099-0.199 0.001-0.398 0.001-0.598 0.002-0.025 0.617 0.061 1.246-0.054 1.854-0.144 0.31-0.528 0.218-0.802 0.235-0.278-0.005-0.656 0.054-0.784-0.269-0.058-0.605-0.008-1.214-0.023-1.822-2.492 0.002-4.984-0.001-7.476 0.002-0.024 0.61 0.052 1.229-0.040 1.834-0.125 0.323-0.514 0.241-0.786 0.256-0.266-0.020-0.659 0.073-0.79-0.236-0.137-0.606-0.037-1.237-0.066-1.854-0.199-0.001-0.398-0.001-0.598-0.002-0.001-1.66 0.001-3.318-0.002-4.978 0.010-0.242-0.010-0.498 0.092-0.725 0.097-0.209 0.34-0.257 0.528-0.349 0.091-1.283 0.193-2.566 0.294-3.848M8.155 9.599c-0.328 0.169-0.517 0.498-0.684 0.812 0.276 0.098 0.556 0.191 0.834 0.282 0.162-0.188 0.32-0.44 0.599-0.45 0.45-0.070 0.888 0.457 0.659 0.876-0.118 0.342-0.51 0.38-0.816 0.41-0.001 0.258-0.001 0.516-0.002 0.774 0.322 0.036 0.708 0.071 0.878 0.394 0.31 0.46-0.072 1.146-0.624 1.13-0.364 0.041-0.618-0.25-0.802-0.518-0.28 0.1-0.56 0.198-0.839 0.302 0.287 0.756 1.115 1.193 1.904 1.039 0.901-0.088 1.572-1.067 1.324-1.938-0.073-0.331-0.323-0.575-0.556-0.804 0.509-0.449 0.646-1.241 0.264-1.814-0.421-0.719-1.44-0.87-2.14-0.496M12.043 10.548c-0.002 0.647-0.001 1.292-0.001 1.939 0.191 0.050 0.382 0.101 0.572 0.151 0.244-0.091 0.52-0.223 0.778-0.101 0.446 0.221 0.457 0.908 0.167 1.255-0.358 0.348-0.87 0.098-1.187-0.172-0.162 0.157-0.328 0.31-0.487 0.468 0.475 0.467 1.231 0.708 1.855 0.404 0.971-0.451 0.98-2.082 0.008-2.536-0.308-0.172-0.672-0.156-1.004-0.077 0.001-0.217 0.001-0.433 0.002-0.649 0.536 0.002 1.074-0.001 1.61 0.005 0-0.23 0.001-0.46 0.001-0.689-0.772 0.001-1.543 0.001-2.315 0M15.7 11.551c0 0.17 0 0.341 0.001 0.511-0.080 0-0.242 0-0.323 0 0 0.125 0 0.372 0.001 0.496 0.080 0 0.241 0 0.322 0 0.028 0.529-0.071 1.078 0.062 1.594 0.167 0.43 0.674 0.454 1.063 0.391-0.047-0.162-0.091-0.325-0.138-0.487-0.106 0.004-0.319 0.012-0.426 0.016-0.066-0.502-0.037-1.010-0.040-1.516 0.2 0.001 0.4 0.001 0.6 0.001 0-0.124 0-0.371 0.001-0.494-0.202 0-0.401 0.001-0.601 0.002-0.001-0.326-0.001-0.653-0.001-0.979-0.173 0.156-0.348 0.31-0.522 0.466M10.776 14.405c0.091 0.205 0.342 0.152 0.516 0.205-0.121 0.156-0.284 0.272-0.401 0.432 0.589 0.295 1.074-0.714 0.58-1.079-0.3-0.253-0.787 0.067-0.695 0.442z"></path>
</svg>
