<!-- Generated by IcoMoon.io -->
<svg version="1.1" xmlns="http://www.w3.org/2000/svg" width="24" height="24" viewBox="0 0 24 24">
<title>regulatory--no-carts--g2</title>
<path fill="#ce252c" d="M11.074 0h1.554c4.522 0.221 8.766 3.191 10.459 7.397 0.493 1.132 0.718 2.351 0.913 3.562v2.057c-0.203 1.373-0.492 2.749-1.099 4.008-1.736 3.877-5.654 6.56-9.859 6.977h-2.052c-4.5-0.419-8.65-3.482-10.208-7.748-0.424-1.063-0.607-2.196-0.781-3.32v-1.836c0.361-4.229 3.025-8.191 6.907-9.959 1.306-0.637 2.736-0.942 4.166-1.136M6.179 4.894c2.068 2.063 4.109 4.159 6.209 6.184l0.112-0.007-0.041 0.043c0.128 0.173 0.27 0.338 0.433 0.481 0.865 0.839 1.71 1.698 2.56 2.551 1.192 1.258 2.442 2.459 3.662 3.689 1.769-2.117 2.474-5.057 1.889-7.748-0.497-2.404-2.017-4.562-4.091-5.87-3.234-2.089-7.799-1.834-10.733 0.678M3.353 15.134c1.117 3.173 4.106 5.584 7.447 5.99 2.491 0.342 5.105-0.406 7.037-2.015-1.21-1.207-2.396-2.441-3.638-3.616-0.85-0.798-1.614-1.688-2.507-2.441-0.19-0.322-0.466-0.578-0.748-0.82-0.311-0.301-0.614-0.61-0.931-0.906-1.656-1.766-3.413-3.442-5.119-5.162-2.048 2.442-2.646 5.983-1.541 8.969z"></path>
<path fill="#ffd100" d="M6.179 4.894c2.934-2.512 7.499-2.767 10.733-0.678 2.074 1.308 3.594 3.467 4.091 5.87 0.586 2.692-0.12 5.632-1.889 7.748-1.22-1.23-2.471-2.431-3.662-3.689 0.856-0.005 1.71 0.004 2.566-0.006-0.188 0.347-0.42 0.768-0.188 1.154 0.286 0.614 1.265 0.624 1.562 0.014 0.245-0.388 0.008-0.816-0.182-1.166 0.379 0.002 0.76 0.001 1.14 0.001 0-1.044 0.001-2.088 0-3.131-1.872-0.013-3.745 0.004-5.617-0.008-0.245-0.578-0.538-1.136-0.715-1.741-0.041-0.326-0.515-0.39-0.667-0.109-0.036 0.244-0.023 0.491-0.022 0.737 0.149 0.048 0.298 0.097 0.446 0.145-0.109 0.26-0.217 0.521-0.328 0.781-0.332 0.006-0.659 0.083-0.947 0.253l-0.112 0.007c-2.1-2.024-4.141-4.121-6.209-6.184z"></path>
<path fill="#ffd100" d="M3.353 15.134c-1.105-2.986-0.508-6.527 1.541-8.969 1.706 1.721 3.463 3.396 5.119 5.162-1.093-0.325-2.191 0.043-3.293-0.058-0.846-0.055-1.037-1.123-1.818-1.307-0.438-0.084-0.888-0.023-1.331-0.048 0.401 0.575 0.133 1.301 0.31 1.937 0.143 0.106 0.329 0.076 0.494 0.091 0.074-0.353 0.176-0.703 0.388-1.001 0.263 0.588 0.214 1.241 0.307 1.864-0.372 0.14-0.816 0.21-1.082 0.533 0.1 0.661 0.271 1.486 0.998 1.718 0.001-0.088 0.004-0.263 0.005-0.35-0.386-0.247-0.521-0.672-0.56-1.106 0.43-0.085 0.859-0.174 1.286-0.275 0.364 0.575 0.696 1.17 0.941 1.806-0.106 0.194-0.21 0.389-0.314 0.584 0.146-0.001 0.294-0.001 0.44-0.002 0.074-0.166 0.149-0.331 0.224-0.497-0.222-0.613-0.366-1.25-0.493-1.889 0.542 0.006 1.084-0.013 1.621-0.086 0.090 0.337 0.221 0.668 0.25 1.020-0.209 0.535-0.63 0.954-0.919 1.448 0.119 0.002 0.354 0.008 0.473 0.012 0.25-0.538 0.592-1.027 1.033-1.424-0.017-0.35 0.024-0.698 0.131-1.032 0.749 0.553 1.771 1.426 1.24 2.46 0.152-0.008 0.306-0.016 0.46-0.023 0.174-0.674-0.217-1.308-0.275-1.97 0.742 0.176 1.478 0.376 2.219 0.554-0.164 0.432-0.244 1.015 0.21 1.303 0.379 0.326 0.869 0.12 1.242-0.096 1.242 1.175 2.429 2.408 3.638 3.616-1.932 1.609-4.546 2.357-7.037 2.015-3.341-0.407-6.33-2.818-7.447-5.99z"></path>
<path fill="#ffd100" d="M12.458 11.113c0.487 0.065 0.971 0.156 1.452 0.258-0.341 0.072-0.683 0.133-1.019 0.223-0.163-0.143-0.305-0.308-0.433-0.481z"></path>
<path fill="#ffd100" d="M10.944 12.234c0.282 0.241 0.558 0.498 0.748 0.82 0.145 0.236 0.3 0.466 0.46 0.692-0.509-0.136-1.020-0.259-1.538-0.354 0.145-0.042 0.29-0.084 0.436-0.126-0.034-0.344-0.067-0.689-0.104-1.032z"></path>
<path fill="#000" d="M13.349 9.154c0.152-0.281 0.626-0.217 0.667 0.109 0.178 0.605 0.47 1.163 0.715 1.741 1.872 0.012 3.745-0.005 5.617 0.008 0.001 1.043 0 2.087 0 3.131-0.38 0-0.761 0.001-1.14-0.001 0.191 0.35 0.427 0.779 0.182 1.166-0.298 0.61-1.277 0.6-1.562-0.014-0.232-0.386 0-0.808 0.188-1.154-0.856 0.010-1.71 0.001-2.566 0.006-0.85-0.853-1.694-1.712-2.56-2.551 0.336-0.090 0.678-0.151 1.019-0.223-0.481-0.102-0.965-0.193-1.452-0.258l0.041-0.043c0.288-0.17 0.614-0.247 0.947-0.253 0.11-0.26 0.218-0.521 0.328-0.781-0.149-0.048-0.298-0.097-0.446-0.145-0.001-0.246-0.014-0.493 0.022-0.737z"></path>
<path fill="#000" d="M3.571 9.916c0.443 0.025 0.893-0.036 1.331 0.048 0.781 0.184 0.972 1.252 1.818 1.307 1.102 0.101 2.2-0.268 3.293 0.058 0.317 0.296 0.62 0.605 0.931 0.906 0.037 0.343 0.071 0.688 0.104 1.032-0.145 0.042-0.29 0.084-0.436 0.126 0.518 0.095 1.030 0.218 1.538 0.354-0.16-0.227-0.314-0.456-0.46-0.692 0.893 0.752 1.657 1.643 2.507 2.441-0.373 0.216-0.863 0.422-1.242 0.096-0.454-0.288-0.374-0.871-0.21-1.303-0.74-0.179-1.477-0.378-2.219-0.554 0.058 0.662 0.449 1.296 0.275 1.97-0.154 0.007-0.307 0.014-0.46 0.023 0.532-1.034-0.491-1.907-1.24-2.46-0.107 0.334-0.148 0.682-0.131 1.032-0.442 0.397-0.784 0.887-1.033 1.424-0.119-0.004-0.354-0.010-0.473-0.012 0.289-0.494 0.71-0.913 0.919-1.448-0.029-0.352-0.16-0.683-0.25-1.020-0.538 0.073-1.079 0.092-1.621 0.086 0.127 0.638 0.271 1.276 0.493 1.889-0.076 0.166-0.15 0.331-0.224 0.497-0.146 0.001-0.294 0.001-0.44 0.002 0.104-0.196 0.209-0.39 0.314-0.584-0.245-0.636-0.577-1.231-0.941-1.806-0.427 0.101-0.857 0.19-1.286 0.275 0.040 0.434 0.174 0.859 0.56 1.106-0.001 0.088-0.004 0.263-0.005 0.35-0.727-0.233-0.899-1.057-0.998-1.718 0.266-0.323 0.71-0.392 1.082-0.533-0.094-0.623-0.044-1.276-0.307-1.864-0.211 0.298-0.313 0.648-0.388 1.001-0.166-0.016-0.352 0.014-0.494-0.091-0.176-0.636 0.091-1.362-0.31-1.937z"></path>
</svg>
