<!-- Generated by IcoMoon.io -->
<svg version="1.1" xmlns="http://www.w3.org/2000/svg" width="24" height="24" viewBox="0 0 24 24">
<title>regulatory--no-bicycles-mopeds-or-motorcycles--g2</title>
<path fill="#ff0303" d="M10.728 0h2.528c4.397 0.503 8.418 3.509 9.968 7.68 0.394 0.977 0.58 2.018 0.776 3.048v2.528c-0.503 4.397-3.509 8.418-7.679 9.967-0.978 0.395-2.018 0.582-3.048 0.777h-2.529c-4.397-0.503-8.417-3.507-9.967-7.679-0.395-0.977-0.582-2.018-0.777-3.048v-2.528c0.192-1.037 0.381-2.083 0.777-3.065 1.547-4.167 5.56-7.167 9.951-7.68M5.847 4.533c4.587 4.58 9.167 9.167 13.752 13.749 2.026-2.457 2.71-5.94 1.758-8.979-1.010-3.513-4.174-6.277-7.787-6.817-2.713-0.466-5.589 0.316-7.723 2.047M3.153 16.286c1.169 2.506 3.446 4.471 6.108 5.228 3.022 0.92 6.441 0.21 8.892-1.767-4.559-4.613-9.168-9.177-13.747-13.773-2.339 2.829-2.85 7.006-1.253 10.312z"></path>
<path fill="#fff" d="M5.847 4.533c2.134-1.731 5.010-2.512 7.723-2.047 3.613 0.54 6.777 3.304 7.787 6.817 0.952 3.039 0.267 6.522-1.758 8.979-4.585-4.582-9.164-9.17-13.752-13.749M11.635 4.223c-0.159 0.283-0.325 0.562-0.485 0.843-0.861-0.378-1.968 0.222-1.976 1.195-0.047 1.013 1.196 1.719 2.040 1.156 0.79-0.455 0.822-1.619 0.147-2.195 0.037-0.065 0.11-0.196 0.146-0.261 0.621 0.548 1.368 0.98 1.817 1.696 0.303 0.053 0.61 0.009 0.914-0.001 0.217 0.52 0.686 0.964 1.282 0.94 0.87 0.055 1.577-0.892 1.291-1.714-0.231-0.767-1.145-1.088-1.864-0.835-0.1-0.194-0.201-0.389-0.303-0.582 0.027-0.068 0.083-0.201 0.111-0.267 0.149 0.039 0.297 0.081 0.446 0.123 0-0.159 0.001-0.317 0.004-0.475-0.348-0.003-0.695-0.003-1.043 0.008 0.127 0.091 0.253 0.183 0.38 0.274-0.053 0.078-0.163 0.236-0.218 0.316-0.801-0.001-1.603 0-2.405-0.001-0.012-0.206-0.037-0.412-0.065-0.617 0.275 0.001 0.549 0.003 0.824 0.003-0.003-0.069-0.005-0.206-0.007-0.275-0.493-0.040-1.445-0.095-1.037 0.672M16.021 9.043c-0.123-0.2-0.284-0.364-0.526-0.408-0.001 0.136-0.003 0.407-0.004 0.543 0.166-0.034 0.331-0.067 0.497-0.099-0.163 0.236-0.318 0.477-0.468 0.721-0.797-0.352-1.846 0.117-1.951 1.021-0.215 1.021 1.006 1.929 1.916 1.403 0.883-0.411 0.925-1.643 0.253-2.272 0.117-0.19 0.235-0.38 0.353-0.57 0.597 0.653 1.193 1.31 1.792 1.964 0.233 0.001 0.467 0.001 0.702 0.001 0.245 0.757 1.123 1.253 1.876 0.904 1.029-0.425 1.007-2.159-0.098-2.477-0.854-0.352-1.726 0.365-1.829 1.217-0.428 0.164-0.764-0.068-0.997-0.417 0.025-0.173 0.050-0.348 0.074-0.522-0.32-0.518-0.857-0.728-1.418-0.875 0.217-0.601 0.806-0.776 1.343-0.98-0.66-0.269-1.347 0.192-1.517 0.845M18.566 9.022c0.003 0.183 0.005 0.367 0.010 0.549 0.196 0.039 0.393 0.076 0.59 0.112 0.064-0.12 0.128-0.239 0.192-0.359 0.45 0 0.901 0.001 1.351-0.022-0.018-0.073-0.056-0.22-0.076-0.293-0.689 0-1.379-0.013-2.067 0.013z"></path>
<path fill="#fff" d="M11.636 4.715c0.85-0.004 1.7-0.001 2.549-0.001-0.215 0.389-0.433 0.777-0.65 1.166-0.112 0.040-0.224 0.081-0.335 0.121-0.52-0.43-1.045-0.854-1.564-1.286z"></path>
<path fill="#fff" d="M13.809 5.952c0.252-0.307 0.558-1.594 0.929-0.78-0.203 0.239-0.377 0.501-0.515 0.784-0.138 0-0.275-0.001-0.413-0.004z"></path>
<path fill="#fff" d="M9.489 6.005c0.153-0.665 0.914-0.916 1.513-0.712-0.205 0.389-0.479 0.732-0.814 1.013 0.141 0.111 0.3 0.193 0.463 0.267 0.143-0.402 0.34-0.78 0.575-1.136 0.541 0.531 0.441 1.548-0.303 1.83-0.773 0.372-1.705-0.455-1.435-1.263z"></path>
<path fill="#fff" d="M15.093 5.266c0.828-0.299 1.795 0.502 1.454 1.372-0.295 0.937-1.696 0.893-2.036 0.004 0.464-0.104 1.094 0.107 1.4-0.355-0.416-0.21-0.659-0.599-0.818-1.021z"></path>
<path fill="#fff" d="M14.493 5.978c0.116-0.183 0.236-0.364 0.359-0.543 0.111 0.201 0.219 0.403 0.327 0.605-0.228-0.020-0.458-0.040-0.686-0.063z"></path>
<path fill="#fff" d="M3.153 16.286c-1.597-3.307-1.085-7.483 1.253-10.312 4.578 4.595 9.188 9.159 13.747 13.773-2.451 1.977-5.87 2.687-8.892 1.767-2.662-0.757-4.94-2.722-6.108-5.228M7.697 12.1c0.252 0.020 0.503 0.038 0.755 0.061-0.070 0.443-0.732 0.393-0.723 0.873 0.492-0.184 0.959-0.421 1.44-0.63 0.003-0.42-0.063-0.976-0.567-1.073-0.5-0.129-0.835 0.334-0.905 0.77M7.177 13.495c-0.406-0.013-1.437-0.080-1.051 0.591 0.772 0.309 1.681 0.046 2.392-0.359 0.253 0.244 0.505 0.49 0.755 0.737-0.537 0.198-1.415-0.016-1.698 0.549 0.228 0.712 0.798 1.293 1.173 1.946 0.132 0.369 0.732 0.293 0.683-0.128-0.252-0.552-0.626-1.034-0.93-1.556 0.593-0.147 1.231-0.163 1.793-0.411 0.497-0.604-0.402-1.16-0.664-1.673-0.603-1.021-1.629 0.275-2.453 0.304M5.404 14.821c-1.054 0.19-1.619 1.548-1.003 2.427 0.62 1.067 2.39 0.913 2.815-0.245 0.539-1.124-0.61-2.5-1.812-2.182M11.404 14.819c-0.787 0.146-1.377 0.953-1.264 1.749 0.070 0.837 0.897 1.5 1.728 1.407 0.828-0.059 1.52-0.843 1.45-1.676-0.021-0.942-0.997-1.698-1.915-1.48z"></path>
<path fill="#fff" d="M13.847 10.835c0.107-0.702 0.904-1.033 1.534-0.809-0.087 0.449-0.939 0.865-0.42 1.267 0.223-0.37 0.432-0.75 0.672-1.11 0.47 0.54 0.442 1.484-0.257 1.816-0.746 0.421-1.731-0.334-1.529-1.163z"></path>
<path fill="#fff" d="M18.8 10.912c0.133-0.673 0.877-1.184 1.533-0.873 0.785 0.307 0.85 1.534 0.1 1.921-0.59 0.376-1.324-0.008-1.587-0.597 0.403-0.111 1.265 0.24 1.316-0.368-0.274-0.471-0.922-0.057-1.362-0.083z"></path>
<path fill="#fff" d="M5.517 15.303c0.775-0.198 1.548 0.633 1.285 1.392-0.194 0.811-1.36 1.073-1.883 0.424-0.57-0.586-0.205-1.684 0.599-1.816z"></path>
<path fill="#fff" d="M11.516 15.299c0.814-0.197 1.583 0.729 1.234 1.493-0.257 0.741-1.336 0.939-1.839 0.338-0.59-0.587-0.214-1.71 0.605-1.831z"></path>
<path fill="#030303" d="M11.635 4.223c-0.408-0.767 0.544-0.712 1.037-0.672 0.001 0.069 0.004 0.206 0.007 0.275-0.275 0-0.549-0.001-0.824-0.003 0.029 0.205 0.053 0.411 0.065 0.617 0.802 0.001 1.604 0 2.405 0.001 0.055-0.080 0.164-0.237 0.218-0.316-0.127-0.091-0.253-0.183-0.38-0.274 0.348-0.010 0.695-0.010 1.043-0.008-0.003 0.158-0.004 0.316-0.004 0.475-0.149-0.042-0.297-0.083-0.446-0.123-0.027 0.067-0.083 0.2-0.111 0.267 0.102 0.193 0.202 0.387 0.303 0.582 0.719-0.253 1.633 0.068 1.864 0.835 0.286 0.822-0.421 1.769-1.291 1.714-0.596 0.023-1.066-0.42-1.282-0.94-0.304 0.010-0.612 0.055-0.914 0.001-0.449-0.716-1.196-1.148-1.817-1.696-0.037 0.065-0.11 0.196-0.146 0.261 0.674 0.577 0.643 1.74-0.147 2.195-0.844 0.563-2.087-0.142-2.040-1.156 0.008-0.973 1.115-1.573 1.976-1.195 0.16-0.28 0.326-0.56 0.485-0.843M11.636 4.715c0.519 0.432 1.043 0.856 1.564 1.286 0.111-0.040 0.223-0.081 0.335-0.121 0.217-0.389 0.434-0.777 0.65-1.166-0.849 0-1.698-0.003-2.549 0.001M13.809 5.952c0.138 0.003 0.275 0.004 0.413 0.004 0.138-0.283 0.312-0.545 0.515-0.784-0.37-0.814-0.677 0.473-0.929 0.78M9.489 6.005c-0.27 0.807 0.661 1.634 1.435 1.263 0.743-0.282 0.844-1.299 0.303-1.83-0.235 0.356-0.432 0.734-0.575 1.136-0.163-0.074-0.322-0.157-0.463-0.267 0.335-0.282 0.609-0.625 0.814-1.013-0.599-0.203-1.36 0.047-1.513 0.712M15.093 5.266c0.159 0.423 0.402 0.811 0.818 1.021-0.305 0.462-0.935 0.25-1.4 0.355 0.34 0.89 1.741 0.933 2.036-0.004 0.34-0.87-0.626-1.671-1.454-1.372M14.493 5.978c0.228 0.022 0.458 0.043 0.686 0.063-0.108-0.202-0.217-0.404-0.327-0.605-0.123 0.179-0.243 0.36-0.359 0.543z"></path>
<path fill="#030303" d="M16.021 9.043c0.17-0.653 0.857-1.114 1.517-0.845-0.537 0.203-1.127 0.378-1.343 0.98 0.561 0.147 1.098 0.357 1.418 0.875-0.025 0.173-0.050 0.348-0.074 0.522 0.232 0.35 0.569 0.582 0.997 0.417 0.103-0.852 0.974-1.569 1.829-1.217 1.105 0.318 1.127 2.052 0.098 2.477-0.753 0.35-1.63-0.147-1.876-0.904-0.235 0-0.468 0-0.702-0.001-0.599-0.655-1.195-1.311-1.792-1.964-0.119 0.19-0.236 0.38-0.353 0.57 0.672 0.629 0.63 1.861-0.253 2.272-0.91 0.526-2.131-0.382-1.916-1.403 0.106-0.904 1.154-1.373 1.951-1.021 0.15-0.244 0.305-0.485 0.468-0.721-0.166 0.033-0.331 0.065-0.497 0.099 0.001-0.136 0.003-0.407 0.004-0.543 0.241 0.044 0.403 0.209 0.526 0.408M13.847 10.835c-0.202 0.83 0.783 1.585 1.529 1.163 0.699-0.331 0.727-1.276 0.257-1.816-0.24 0.36-0.449 0.74-0.672 1.11-0.519-0.402 0.333-0.818 0.42-1.267-0.63-0.224-1.427 0.107-1.534 0.809M18.8 10.912c0.44 0.026 1.088-0.387 1.362 0.083-0.051 0.608-0.913 0.257-1.316 0.368 0.263 0.59 0.998 0.973 1.587 0.597 0.75-0.387 0.685-1.615-0.1-1.921-0.656-0.312-1.4 0.2-1.533 0.873z"></path>
<path fill="#030303" d="M18.566 9.022c0.689-0.026 1.379-0.013 2.067-0.013 0.020 0.073 0.057 0.22 0.076 0.293-0.45 0.023-0.901 0.022-1.351 0.022-0.064 0.12-0.128 0.239-0.192 0.359-0.197-0.037-0.394-0.073-0.59-0.112-0.005-0.183-0.008-0.367-0.010-0.549z"></path>
<path fill="#030303" d="M7.697 12.1c0.070-0.436 0.406-0.899 0.905-0.77 0.505 0.098 0.57 0.653 0.567 1.073-0.481 0.209-0.948 0.446-1.44 0.63-0.009-0.48 0.652-0.429 0.723-0.873-0.252-0.023-0.503-0.042-0.755-0.061z"></path>
<path fill="#030303" d="M7.177 13.495c0.824-0.029 1.851-1.325 2.453-0.304 0.262 0.514 1.161 1.070 0.664 1.673-0.562 0.248-1.2 0.263-1.793 0.411 0.304 0.522 0.678 1.004 0.93 1.556 0.048 0.421-0.552 0.497-0.683 0.128-0.374-0.653-0.944-1.234-1.173-1.946 0.283-0.565 1.161-0.351 1.698-0.549-0.25-0.247-0.502-0.493-0.755-0.737-0.711 0.404-1.62 0.668-2.392 0.359-0.386-0.67 0.646-0.604 1.051-0.591z"></path>
<path fill="#030303" d="M5.404 14.821c1.201-0.318 2.35 1.058 1.812 2.182-0.425 1.158-2.195 1.312-2.815 0.245-0.616-0.879-0.051-2.237 1.003-2.427M5.517 15.303c-0.803 0.132-1.169 1.23-0.599 1.816 0.523 0.65 1.689 0.387 1.883-0.424 0.263-0.759-0.51-1.59-1.285-1.392z"></path>
<path fill="#030303" d="M11.404 14.819c0.918-0.218 1.894 0.539 1.915 1.48 0.069 0.833-0.622 1.617-1.45 1.676-0.831 0.093-1.658-0.57-1.728-1.407-0.113-0.796 0.477-1.603 1.264-1.749M11.516 15.299c-0.819 0.121-1.195 1.244-0.605 1.831 0.503 0.601 1.582 0.403 1.839-0.338 0.35-0.764-0.42-1.69-1.234-1.493z"></path>
</svg>
