<?xml version="1.0" encoding="utf-8"?>
<!-- Generated by IcoMoon.io -->
<!DOCTYPE svg PUBLIC "-//W3C//DTD SVG 1.1//EN" "http://www.w3.org/Graphics/SVG/1.1/DTD/svg11.dtd">
<svg version="1.1" xmlns="http://www.w3.org/2000/svg" xmlns:xlink="http://www.w3.org/1999/xlink" width="24" height="24" viewBox="0 0 24 24">
<path fill="#ed1c24" d="M11.875 0h0.338c2.543 0.023 5.077 0.862 7.1 2.41 2.515 1.895 4.23 4.806 4.686 7.92v3.407c-0.354 2.543-1.573 4.945-3.36 6.781-1.867 1.916-4.398 3.151-7.050 3.482h-3.055c-2.651-0.331-5.18-1.568-7.048-3.482-2.080-2.119-3.344-5.009-3.487-7.974v-0.808c0.104-3.733 2.032-7.368 5.083-9.526 1.964-1.417 4.374-2.179 6.792-2.21M11.188 3.383c-1.247 0.13-2.473 0.509-3.553 1.15-2.74 1.595-4.465 4.778-4.279 7.946 0.112 2.194 1.092 4.326 2.676 5.848 1.547 1.511 3.683 2.394 5.845 2.418 1.854 0.048 3.722-0.514 5.226-1.601 1.872-1.326 3.173-3.416 3.552-5.676 0.602-3.32-0.99-6.88-3.809-8.711-1.654-1.093-3.69-1.566-5.658-1.374z"></path>
<path fill="#fff" d="M11.188 3.383c1.968-0.192 4.004 0.281 5.658 1.374 2.819 1.831 4.411 5.39 3.809 8.711-0.379 2.26-1.68 4.35-3.552 5.676-1.504 1.087-3.372 1.649-5.226 1.601-2.162-0.024-4.298-0.907-5.845-2.418-1.584-1.522-2.564-3.654-2.676-5.848-0.186-3.168 1.54-6.352 4.279-7.946 1.080-0.641 2.306-1.020 3.553-1.15M8.748 8.096c-0.485 0.898-0.964 1.798-1.447 2.694-0.163 0.334-0.602 0.542-0.557 0.958 0.017 0.756-0.085 1.548 0.204 2.267 0.072 0.205 0.278 0.294 0.455 0.388 0.005 0.418 0.002 0.835 0.002 1.254-0.221-0.001-0.442 0-0.661 0 0 0.085 0 0.254 0 0.34 3.443 0 6.887 0 10.331 0 0-0.085-0.001-0.254-0.001-0.34-0.221 0-0.442-0.001-0.661-0.001-0.001-0.418-0.002-0.835 0.002-1.252 0.155-0.094 0.359-0.149 0.43-0.335 0.322-0.727 0.211-1.544 0.229-2.316 0.034-0.397-0.359-0.617-0.535-0.925-0.5-0.906-0.984-1.822-1.481-2.73-2.104-0.002-4.206-0.002-6.31-0.001z"></path>
<path fill="#fff" d="M7.699 10.948c0.414-0.859 0.835-1.715 1.255-2.572 1.969 0 3.94 0 5.909 0 0.42 0.857 0.841 1.712 1.255 2.572-2.786-0.42-5.634-0.42-8.419 0z"></path>
<path fill="#fff" d="M7.734 11.964c0.455-0.325 1.129 0.226 0.888 0.728-0.137 0.397-0.713 0.529-0.991 0.206-0.28-0.248-0.218-0.752 0.103-0.935z"></path>
<path fill="#fff" d="M15.517 11.924c0.376-0.202 0.884 0.136 0.841 0.563 0.037 0.518-0.719 0.797-1.033 0.385-0.304-0.27-0.161-0.797 0.192-0.948z"></path>
<path fill="#fff" d="M9.491 12.524c1.434-0.007 2.868 0.002 4.302-0.005 0.199 0.014 0.434-0.048 0.593 0.112-1.626 0.098-3.264 0.018-4.895 0.041 0-0.037 0-0.11 0-0.148z"></path>
<path fill="#fff" d="M9.065 13.201c0.286-0.112 0.594-0.076 0.893-0.079 1.558 0.005 3.114-0.002 4.672 0.004 0.001 0.035 0.002 0.106 0.002 0.142-1.56 0.006-3.12-0.001-4.68 0.004-0.296-0.001-0.6 0.023-0.887-0.070z"></path>
<path fill="#fff" d="M9.679 13.688c1.379-0.001 2.756-0.001 4.135-0.001 0.146-0.008 0.28 0.031 0.401 0.115-1.511 0.071-3.028 0.013-4.541 0.031l0.005-0.145z"></path>
<path fill="#fff" d="M8.383 14.448c2.346 0 4.693 0 7.039 0 0 0.403 0 0.805 0 1.208-2.346 0-4.692 0-7.039-0.001 0-0.402 0-0.804 0-1.207z"></path>
<path fill="#120c0e" d="M8.748 8.096c2.104-0.001 4.206-0.001 6.31 0.001 0.497 0.908 0.98 1.824 1.481 2.73 0.176 0.308 0.569 0.528 0.535 0.925-0.018 0.772 0.092 1.589-0.229 2.316-0.071 0.186-0.275 0.241-0.43 0.335-0.005 0.416-0.004 0.834-0.002 1.252 0.22 0 0.44 0.001 0.661 0.001 0 0.085 0.001 0.254 0.001 0.34-3.444 0-6.888 0-10.331 0 0-0.085 0-0.254 0-0.34 0.22 0 0.44-0.001 0.661 0 0-0.419 0.002-0.836-0.002-1.254-0.176-0.094-0.383-0.182-0.455-0.388-0.289-0.719-0.187-1.511-0.204-2.267-0.046-0.415 0.394-0.624 0.557-0.958 0.484-0.896 0.962-1.796 1.447-2.694M7.699 10.948c2.785-0.42 5.633-0.42 8.419 0-0.414-0.859-0.835-1.715-1.255-2.572-1.969 0-3.94 0-5.909 0-0.42 0.857-0.841 1.712-1.255 2.572M7.734 11.964c-0.322 0.182-0.383 0.686-0.103 0.935 0.278 0.323 0.854 0.191 0.991-0.206 0.241-0.503-0.433-1.054-0.888-0.728M15.517 11.924c-0.353 0.151-0.496 0.678-0.192 0.948 0.314 0.412 1.070 0.133 1.033-0.385 0.043-0.427-0.466-0.764-0.841-0.563M9.491 12.524c0 0.037 0 0.11 0 0.148 1.631-0.023 3.269 0.058 4.895-0.041-0.158-0.16-0.394-0.097-0.593-0.112-1.434 0.007-2.868-0.002-4.302 0.005M9.065 13.201c0.287 0.092 0.59 0.068 0.887 0.070 1.56-0.005 3.12 0.002 4.68-0.004 0-0.036-0.001-0.107-0.002-0.142-1.558-0.006-3.114 0.001-4.672-0.004-0.299 0.004-0.607-0.032-0.893 0.079M9.679 13.688l-0.005 0.145c1.513-0.018 3.030 0.040 4.541-0.031-0.121-0.084-0.254-0.124-0.401-0.115-1.379 0-2.756 0-4.135 0.001M8.383 14.448c0 0.403 0 0.805 0 1.207 2.347 0.001 4.693 0.001 7.039 0.001 0-0.403 0-0.805 0-1.208-2.346 0-4.693 0-7.039 0z"></path>
</svg>
