<svg xmlns="http://www.w3.org/2000/svg" width="24" height="24">
    <path fill="#080808" opacity=".29" d="M2.809 0h20.059l.044.05c-6.245.007-12.49-.014-18.735 0-.48-.006-.96.013-1.44-.011L2.81 0z"/>
    <path fill="#1a1919" d="M1.071.066C1.623.019 2.181.06 2.735.039c.48.024.96.006 1.44.011 6.245-.014 12.49.007 18.735 0 .493.22.839.65 1.038 1.142v2.105c-.028 6.397-.034 12.796-.037 19.193.078.671-.507 1.184-1.051 1.461-7.258-.002-14.516-.004-21.774 0-.493-.206-.871-.61-1.088-1.094V1.202C.158.692.551.23 1.069.065zm.308.111C.707.221.148.848.132 1.51v20.98c.027.727.695 1.362 1.429 1.328 6.926.005 13.852.003 20.778.001.741.044 1.425-.59 1.454-1.326l.001-20.986C23.778.764 23.09.117 22.343.161 15.466.156 8.589.161 1.711.158a2.83 2.83 0 0 0-.332.018z"/>
    <path fill="#1a1919" d="M1.432.485C8.402.46 15.373.479 22.343.475c.577-.034 1.116.455 1.136 1.031.002 6.979 0 13.958.001 20.937a1.105 1.105 0 0 1-.742 1.005c-.277.077-.567.056-.851.058H2.013c-.283-.002-.573.019-.847-.065a1.11 1.11 0 0 1-.719-1c0-6.96.002-13.92 0-20.88C.438 1.024.892.518 1.432.486zm.046.595c-.261.018-.459.275-.437.53v20.779a.501.501 0 0 0 .519.519c6.926.003 13.852.001 20.778.001.289.029.563-.225.544-.516-.001-6.946.002-13.892-.002-20.838.006-.306-.301-.519-.59-.486-6.938.008-13.877-.014-20.814.011z"/>
    <path fill="#fffffe" d="M1.379.177a2.83 2.83 0 0 1 .332-.018C8.588.162 15.465.156 22.343.162c.747-.044 1.435.603 1.451 1.346l-.001 20.986c-.028.736-.713 1.37-1.454 1.326-6.926.001-13.852.004-20.778-.001-.734.033-1.402-.601-1.429-1.328V1.511C.149.848.708.221 1.379.178zm.053.308C.892.517.438 1.023.447 1.56c.002 6.96 0 13.92 0 20.88.003.437.31.852.718 1 .274.085.565.063.847.065h19.874c.284-.002.574.019.851-.058.42-.139.738-.562.742-1.005-.001-6.979.001-13.958-.001-20.937C23.458.929 22.92.44 22.342.474 15.372.479 8.401.459 1.431.484z"/>
    <path fill="#fffffe" d="M1.478 1.08c6.937-.025 13.876-.004 20.814-.011.289-.033.596.18.59.486.003 6.946 0 13.892.002 20.838.019.291-.255.545-.544.516-6.926 0-13.852.002-20.778-.001a.502.502 0 0 1-.519-.519V1.61c-.023-.256.176-.512.437-.53zm4.44 4.545c-.318-.379-.604-.785-.932-1.154-.231-.263-.725-.087-.729.267-.023 1.828-.036 3.657-.052 5.486 1.685-.657 3.372-1.308 5.054-1.971.302-.11.449-.558.134-.742-.48-.231-1.008-.343-1.507-.527.664-.579 1.496-.94 2.329-1.203 1.833-.531 3.867-.151 5.431.925l1.264-1.975a9.421 9.421 0 0 0-3.702-1.427c-2.616-.389-5.374.505-7.29 2.321zm11.388.456c-.258 1.815-.523 3.628-.771 5.444-.033.354.412.568.685.358.375-.326.73-.677 1.104-1.005.324 1.641-.138 3.36-1.042 4.743a6.753 6.753 0 0 1-2.527 2.153l1.102 2.071c1.737-.898 3.217-2.341 4.035-4.129.875-1.816 1.052-3.937.582-5.889.514-.101 1.047-.123 1.546-.283.338-.121.281-.612-.012-.756-1.565-.906-3.135-1.806-4.703-2.706zM3.22 11.471c-.107 1.537.254 3.082.922 4.463.389.847.979 1.585 1.638 2.237a8.777 8.777 0 0 0 3.778 2.248c-.17.479-.385.941-.533 1.426-.081.364.373.624.666.424 1.568-.899 3.133-1.804 4.699-2.707-1.434-1.129-2.866-2.26-4.301-3.387-.279-.203-.72.027-.676.381.09.495.218.983.315 1.477-.632-.268-1.262-.57-1.797-1.008-.725-.648-1.397-1.391-1.783-2.295a6.753 6.753 0 0 1-.599-3.249c-.776.009-1.553-.009-2.329-.009z"/>
    <path fill="#1a1815" d="M5.918 5.625c1.916-1.816 4.674-2.71 7.29-2.321a9.433 9.433 0 0 1 3.702 1.427l-1.264 1.975c-1.564-1.076-3.598-1.456-5.431-.925-.833.262-1.665.623-2.329 1.203.499.185 1.027.296 1.507.527.315.183.169.632-.134.742-1.682.663-3.369 1.314-5.054 1.971.016-1.828.03-3.657.052-5.486.004-.354.498-.529.729-.267.329.369.614.775.932 1.154zM17.306 6.081c1.568.901 3.138 1.801 4.703 2.706.293.144.349.635.012.756-.499.16-1.032.182-1.546.283.469 1.953.293 4.073-.582 5.889-.818 1.789-2.298 3.231-4.035 4.129l-1.102-2.071a6.753 6.753 0 0 0 2.527-2.153c.904-1.383 1.366-3.102 1.042-4.743-.374.328-.729.679-1.104 1.005-.273.21-.717-.005-.685-.358.248-1.816.513-3.629.771-5.444zM3.22 11.471c.776 0 1.553.017 2.329.009a6.742 6.742 0 0 0 .599 3.249c.386.904 1.059 1.647 1.783 2.295.535.438 1.164.74 1.797 1.008-.098-.494-.225-.982-.315-1.477-.044-.354.396-.584.676-.381 1.435 1.127 2.867 2.258 4.301 3.387-1.566.903-3.131 1.808-4.699 2.707-.293.201-.747-.06-.666-.424.148-.485.364-.947.533-1.426A8.764 8.764 0 0 1 5.78 18.17c-.659-.652-1.248-1.39-1.638-2.237-.668-1.381-1.029-2.926-.922-4.463z"/>
    <path fill="#141414" opacity=".21" d="M1.088 23.952c7.258-.004 14.516-.003 21.774 0l-.041.049H1.13l-.042-.048z"/>
</svg>
