<!-- Generated by IcoMoon.io -->
<svg version="1.1" xmlns="http://www.w3.org/2000/svg" width="24" height="24" viewBox="0 0 24 24">
<title>regulatory--turn-right--g2</title>
<path fill="#ef2c30" d="M11.754 0h0.372c1.307 0.076 2.618 0.241 3.845 0.721 3.954 1.284 6.922 4.91 7.726 8.946 0.797 3.696-0.426 7.694-2.972 10.454-2.488 2.77-6.361 4.176-10.048 3.74-2.575-0.22-5.005-1.424-6.898-3.157-2.132-1.978-3.395-4.754-3.779-7.614v-1.351c0.049-2.86 1.199-5.665 3.1-7.793 2.18-2.438 5.396-3.851 8.654-3.947M10.858 2.97c-3.024 0.311-5.73 2.318-7.073 5.021-1.412 2.876-1.176 6.509 0.688 9.13 1.867 2.8 5.404 4.35 8.729 3.853 2.54-0.326 4.925-1.813 6.325-3.962 2.1-3.046 2.038-7.444-0.241-10.376-1.842-2.664-5.231-4.092-8.428-3.665z"></path>
<path fill="#fff" d="M10.858 2.97c3.197-0.427 6.586 1.001 8.428 3.665 2.279 2.933 2.341 7.331 0.241 10.376-1.4 2.149-3.785 3.636-6.325 3.962-3.325 0.497-6.862-1.054-8.729-3.853-1.864-2.621-2.1-6.253-0.688-9.13 1.343-2.702 4.049-4.71 7.073-5.021M14.466 8.639c0.108 0.67 0.384 1.298 0.557 1.952-3.812 0.002-7.626-0.001-11.438 0.001-0.002 0.947-0.001 1.892-0.001 2.839 3.814 0.002 7.626-0.002 11.44 0.002-0.176 0.648-0.438 1.273-0.559 1.936 0.029 0.428 0.604 0.634 0.928 0.382 1.802-1.241 3.59-2.503 5.395-3.739-1.776-1.241-3.554-2.478-5.342-3.701-0.319-0.276-0.93-0.118-0.978 0.328z"></path>
<path fill="#000" d="M14.466 8.639c0.048-0.445 0.659-0.604 0.978-0.328 1.788 1.223 3.566 2.46 5.342 3.701-1.805 1.236-3.593 2.498-5.395 3.739-0.324 0.252-0.899 0.047-0.928-0.382 0.121-0.662 0.383-1.288 0.559-1.936-3.814-0.005-7.626 0-11.44-0.002 0-0.947-0.001-1.892 0.001-2.839 3.812-0.002 7.626 0.001 11.438-0.001-0.173-0.654-0.449-1.283-0.557-1.952z"></path>
</svg>
