<svg xmlns="http://www.w3.org/2000/svg" width="24" height="24">
    <path fill="#d02c2e" d="M10.976 0h2.032c4.004.392 7.77 2.807 9.62 6.406.754 1.369 1.14 2.897 1.372 4.433v2.38c-.467 4.116-3.103 7.915-6.881 9.658-1.214.594-2.538.896-3.863 1.124h-2.478c-4.169-.49-8.02-3.198-9.718-7.062-.582-1.232-.853-2.575-1.061-3.913v-2.017c.163-.889.275-1.79.569-2.65C1.694 4.772 4.605 1.808 8.176.629c.906-.324 1.86-.45 2.8-.628zM8.398 3.116A9.69 9.69 0 0 0 3.172 8.21c-1.558 3.452-.752 7.764 1.901 10.456 3.068-3.637 6.151-7.265 9.175-10.937.452-.462.846-.977 1.259-1.474a119.01 119.01 0 0 0 1.831-2.177c-2.567-1.795-6.048-2.15-8.94-.962zM18.88 5.381c-.68.824-1.39 1.625-2.052 2.464a51.085 51.085 0 0 0-1.577 1.87c-2.887 3.407-5.752 6.834-8.624 10.253 2.911 2.015 6.964 2.196 10.026.406 2.983-1.639 4.952-4.962 4.915-8.372.004-2.443-.977-4.874-2.688-6.619z"/>
    <path fill="#fff" d="M8.398 3.116c2.892-1.188 6.373-.833 8.94.962a119.01 119.01 0 0 1-1.831 2.177 17.944 17.944 0 0 0-.719-.632c.28-.293.558-.588.834-.886-1.444-.47-2.891-.928-4.343-1.369.407 1.519.804 3.043 1.22 4.561.328-.323.644-.656.972-.98.268.251.526.511.776.78-3.024 3.672-6.107 7.3-9.175 10.937-2.653-2.692-3.458-7.003-1.901-10.456a9.69 9.69 0 0 1 5.226-5.094zm-1.63 5.109c.408.02.815.034 1.223.055.002 1.542-.001 3.084.002 4.626.59.025 1.182.047 1.774.064.018-1.572.014-3.143.031-4.715.431.006.862.019 1.292.026a425.74 425.74 0 0 0-2.114-3.793c-.744 1.241-1.472 2.491-2.208 3.737zM18.88 5.381c1.711 1.745 2.692 4.176 2.688 6.619.037 3.41-1.932 6.733-4.915 8.372-3.062 1.79-7.115 1.609-10.026-.406 2.873-3.419 5.737-6.846 8.624-10.253.71 1.54.298 3.362-.859 4.562-1.578 1.543-3.198 3.052-4.944 4.404.54.455 1.088.899 1.631 1.351a883.184 883.184 0 0 1 4.675-4.398c1.072-.918 1.632-2.26 1.926-3.608.235-1.445-.337-2.86-.852-4.181.662-.839 1.372-1.639 2.052-2.464z"/>
    <path d="M11.279 3.368c1.452.442 2.899.899 4.343 1.369-.276.298-.554.593-.834.886.245.204.485.415.719.632-.413.497-.806 1.012-1.259 1.474a16.792 16.792 0 0 0-.776-.78c-.328.324-.644.658-.972.98-.416-1.518-.814-3.042-1.22-4.561zM6.768 8.225c.736-1.246 1.464-2.496 2.208-3.737a425.74 425.74 0 0 1 2.114 3.793c-.431-.007-.862-.02-1.292-.026-.017 1.572-.013 3.143-.031 4.715-.592-.017-1.183-.038-1.774-.064-.004-1.542 0-3.084-.002-4.626-.408-.022-.815-.035-1.223-.055zM15.251 9.714a51.085 51.085 0 0 1 1.577-1.87c.515 1.321 1.087 2.736.852 4.181-.294 1.349-.854 2.69-1.926 3.608a883.184 883.184 0 0 0-4.675 4.398c-.542-.452-1.091-.896-1.631-1.351 1.746-1.352 3.366-2.861 4.944-4.404 1.157-1.2 1.57-3.023.859-4.562z"/>
</svg>
