<svg xmlns="http://www.w3.org/2000/svg" width="24" height="24">
    <path fill="#da251d" d="M10.563 0h2.881c2.363.377 4.677 1.317 6.472 2.926 2.255 1.929 3.651 4.719 4.084 7.635v2.883c-.377 2.363-1.316 4.677-2.925 6.472-1.93 2.255-4.72 3.651-7.636 4.084h-2.883c-2.363-.377-4.677-1.317-6.472-2.926C1.829 19.146.435 16.356 0 13.441v-2.885c.436-2.913 1.829-5.702 4.084-7.63C5.881 1.315 8.196.375 10.563 0zm.133 1.724c-4.822.502-8.876 4.841-9.001 9.696-.217 3.356 1.386 6.734 4.077 8.738 2.44 1.861 5.734 2.527 8.705 1.761 3.319-.811 6.13-3.393 7.218-6.63.956-2.734.676-5.864-.752-8.382-1.959-3.586-6.194-5.748-10.248-5.182z"/>
    <path fill="#fff" d="M10.696 1.724c4.054-.566 8.29 1.597 10.248 5.182 1.428 2.518 1.708 5.648.752 8.382-1.088 3.237-3.899 5.819-7.218 6.63-2.971.766-6.266.1-8.705-1.761-2.691-2.003-4.294-5.381-4.077-8.738.125-4.855 4.179-9.194 9.001-9.696zM4.55 6.684c-.2.762-1.389 1.666-.59 2.385.426-.272.843-.557 1.263-.838.348.992.689 1.985 1.028 2.98-.263-.028-.527-.059-.791-.089l-.181.694.88.116c-.508.619-1.068 1.192-1.597 1.792.453.771.712 1.672 1.335 2.332 1.049-.656-.947-1.716-.118-2.447.552-.548.996-1.576 1.926-1.401 1.956.353 3.93.59 5.897.866.34.064.796.158.909.539.083.801-.035 1.612.049 2.413.04.331.601.524.724.15.063-.954.001-1.914.022-2.87.904.044 2.102.72 2.652-.341-1.23-.219-2.501-.287-3.696-.655-1.078-.539-.702-1.901-.744-2.867 1.174.385-.212 2.426 1.3 2.621-.04-1.043.13-2.231-.502-3.133-1.901-.067-3.812.013-5.715.004-.38-.375-.766-.744-1.15-1.117.199-.271.408-.565.329-.919l-.327-.122c-.182.177-.365.356-.545.534-.767-.684-1.582-1.47-2.689-1.458-.43.285.096.639.332.832zm14.26 3.999c-.041.708-.01 1.419-.035 2.129 1.097-.191 2.287.599 2.281 1.77.208-.003.373-.101.402-.32.3-1.188.166-2.431.059-3.636-.897.032-1.835-.095-2.707.056zM7.625 16.175c-.072.468.77.444.748-.001.049-1.146-.064-2.293-.065-3.441l-.674-.08a121.602 121.602 0 0 0-.009 3.522zm11.03-3.02c-1.146.344-1.482 1.997-.553 2.754.834.818 2.392.35 2.659-.78.4-1.195-.938-2.453-2.106-1.974zm-5.429.411c-.391.807-.851 1.581-1.212 2.403-.144.361.465.631.643.287.485-.852.893-1.748 1.346-2.618-.259-.024-.519-.05-.778-.072z"/>
    <path fill="#fff" d="M18.902 13.903c.622-.289 1.363.459 1.079 1.081-.182.562-.99.757-1.389.307-.449-.404-.259-1.206.309-1.387z"/>
    <path fill="#1f1a17" d="M4.55 6.684c-.236-.193-.762-.547-.332-.832 1.106-.012 1.921.774 2.689 1.458l.545-.534.327.122c.08.354-.13.648-.329.919.384.372.77.742 1.15 1.117 1.903.009 3.814-.071 5.715-.004.631.902.462 2.089.502 3.133-1.512-.195-.126-2.236-1.3-2.621.042.966-.334 2.328.744 2.867 1.195.367 2.467.435 3.696.655-.549 1.061-1.748.385-2.652.341-.021.956.041 1.916-.022 2.87-.123.373-.684.181-.724-.15-.083-.801.035-1.612-.049-2.413-.113-.381-.569-.475-.909-.539-1.967-.276-3.941-.513-5.897-.866-.93-.175-1.375.853-1.926 1.401-.829.732 1.167 1.792.118 2.447-.622-.66-.882-1.561-1.335-2.332.529-.599 1.088-1.173 1.597-1.792l-.88-.115.181-.694.791.089c-.339-.995-.68-1.988-1.028-2.98-.42.281-.837.566-1.263.838-.798-.719.39-1.622.59-2.385zM18.81 10.683c.871-.151 1.81-.024 2.707-.056.107 1.205.241 2.447-.059 3.636-.028.218-.194.317-.402.32.006-1.17-1.183-1.961-2.281-1.77.024-.71-.006-1.421.035-2.129z"/>
    <path fill="#1f1a17" d="M7.625 16.175c-.01-1.174-.015-2.349.009-3.522l.674.08c.001 1.147.114 2.295.065 3.441.022.445-.82.47-.748.001zM18.655 13.155c1.168-.479 2.507.779 2.106 1.974-.267 1.131-1.825 1.598-2.659.78-.929-.757-.593-2.41.553-2.754zm.247.748c-.569.181-.759.983-.309 1.387.399.45 1.206.255 1.389-.307.284-.621-.457-1.369-1.079-1.081zM13.226 13.566c.259.022.519.047.778.072-.453.87-.861 1.766-1.346 2.618-.178.344-.787.073-.643-.287.361-.821.82-1.595 1.212-2.403z"/>
</svg>
