<svg xmlns="http://www.w3.org/2000/svg" width="24" height="24">
    <path fill="#fff" d="M2.5 0h.604A1.002 1.002 0 0 0 2.5.579V0zM20.694 0h.653v.779A1.016 1.016 0 0 0 20.694 0zM3.327.529c.138-.022.279-.013.418-.015C9.27.515 14.796.513 20.321.515c.245-.028.484.172.467.425.003 7.344.001 14.689.001 22.033a.415.415 0 0 1-.426.456c-5.641.004-11.281.001-16.922.001-.232.018-.452-.18-.437-.416V.942a.399.399 0 0 1 .322-.413zm1.084 2.925c-.217.338-.163.835.153 1.094.378.319.924.255 1.328.518.231.16.143.527-.092.638-.471.262-1.055.032-1.348-.388-.152.096-.3.198-.449.3.469.647 1.434.963 2.139.516.53-.316.596-1.17.092-1.538-.394-.222-.866-.248-1.27-.448-.219-.101-.172-.447.044-.524.397-.176.844.01 1.133.301.138-.117.278-.232.413-.352-.331-.357-.816-.603-1.312-.565-.324.014-.658.166-.832.448zm6.505-.427c-.002 1.091-.001 2.183 0 3.274h2.393v-.547c-.605-.002-1.209.001-1.814-.001v-.932c.322-.002.643 0 .965-.001v-.558c-.322-.003-.644.007-.966-.006.003-.227.001-.453.002-.68.59-.002 1.18.001 1.77-.001v-.547h-2.349zm-3.457 0v3.284h.569V5.014c.534-.041 1.131.122 1.605-.197.483-.318.547-1.082.14-1.486-.218-.22-.534-.301-.836-.301-.493-.005-.986-.001-1.479-.002zm6.494.001v3.283h2.394v-.556c-.605-.003-1.209 0-1.814-.001v-.933c.322-.001.644.001.965-.001v-.557c-.322-.001-.644.001-.966-.001v-.675c.59-.001 1.18.001 1.77-.001v-.557h-2.35zm3.048 0v3.283c.648-.019 1.376.106 1.933-.31.829-.593.847-1.982.068-2.624-.556-.474-1.33-.322-2.001-.349zM5.903 7.954v3.273h2.382v-.547c-.604-.002-1.209 0-1.813-.001-.002-.908 0-1.817-.001-2.725a53.96 53.96 0 0 0-.569 0zm2.974-.001c-.002 1.091-.001 2.182 0 3.273h.568V7.954a53.771 53.771 0 0 0-.568 0zm1.437 0v3.274h.556c.003-.665-.001-1.329.002-1.993.3.65.594 1.303.896 1.952.32-.652.626-1.31.948-1.961.004.667 0 1.335.003 2.002h.556c-.002-1.091.021-2.182.011-3.274a38.156 38.156 0 0 0-.586.001c-.304.648-.613 1.294-.92 1.941-.308-.647-.612-1.295-.918-1.941a50.05 50.05 0 0 0-.548 0zm3.843 0c-.002 1.091-.001 2.182 0 3.273h.568V7.954a53.771 53.771 0 0 0-.568 0zm1.202.001v.535c.297.002.593-.001.89.001.002.912-.001 1.824.001 2.736h.579c.002-.912-.001-1.824.001-2.736.3-.002.6 0 .9-.001v-.536h-2.372zM5.177 12.881a881.061 881.061 0 0 1-.285 3.967c.388.129.779.248 1.167.377.163.068.316-.064.47-.101.723-.256 1.568-.507 2.296-.137.661.314.981 1.164.693 1.836-.242.608-.896.952-1.526.984-.959.046-1.886-.274-2.755-.647-.221.422-.448.84-.666 1.264 1.09.477 2.266.841 3.469.767.752-.044 1.505-.319 2.06-.837.968-.858 1.148-2.404.486-3.498a2.822 2.822 0 0 0-2.201-1.393 5.202 5.202 0 0 0-2.024.298c.029-.502.047-1.005.078-1.507l3.927-.001c.004-.458.021-.915.022-1.373H5.176zm10.177.106c-.942.101-1.796.688-2.27 1.501-.542.906-.702 1.99-.663 3.031.047 1.446.754 3.003 2.146 3.6.984.426 2.192.309 3.062-.325 1.123-.822 1.561-2.281 1.552-3.621.018-1.305-.355-2.74-1.425-3.577-.669-.53-1.564-.715-2.401-.61z"/>
    <path fill="#fff" d="M8.029 3.597c.333.001.666-.005.999.001.235 0 .489.181.468.436-.004.244-.244.405-.47.408-.333.006-.665 0-.998.002v-.847zM17.56 3.597c.434-.014.96-.028 1.251.357.309.436.335 1.126-.058 1.52-.32.297-.786.276-1.192.267V3.596zM15.566 14.397c.457-.063.948.039 1.308.338.592.483.802 1.277.859 2.008.066.916-.049 1.94-.696 2.644-.592.654-1.711.723-2.37.134-.519-.459-.73-1.164-.795-1.834-.066-.808.003-1.666.41-2.385.264-.473.738-.839 1.285-.905zM20.838 23.881c.27-.136.44-.409.51-.696V24H2.5v-.628c.141.362.51.623.901.617H20.06c.261 0 .541.025.778-.109z"/>
    <path fill="#231f20" d="M3.104 0h17.591c.341.117.59.427.653.779v22.405c-.07.287-.24.56-.51.696-.237.134-.516.109-.778.109H3.401a.976.976 0 0 1-.901-.617V.578c.104-.27.33-.484.604-.579zm.223.529a.398.398 0 0 0-.322.413v22.072c-.015.236.205.435.437.416 5.64 0 11.281.003 16.921-.001a.415.415 0 0 0 .426-.456c0-7.344.002-14.689-.001-22.033.017-.252-.222-.453-.467-.425C14.796.513 9.27.515 3.745.514c-.14.001-.28-.008-.418.015z"/>
    <path fill="#231f20" d="M4.411 3.454c.174-.283.508-.434.832-.448.496-.037.981.208 1.312.565-.136.12-.275.236-.413.352-.289-.291-.736-.477-1.133-.301-.216.077-.262.423-.044.524.404.2.876.226 1.27.448.504.369.438 1.223-.092 1.538-.706.447-1.67.13-2.139-.516.149-.102.297-.204.449-.3.293.419.877.65 1.348.388.235-.111.324-.478.092-.638-.404-.263-.951-.199-1.328-.518-.316-.259-.37-.756-.153-1.094zM10.916 3.027h2.349v.547c-.59.002-1.18-.001-1.77.001-.001.227.001.453-.002.68.322.013.644.003.966.006v.558c-.322.002-.644 0-.965.001v.932c.604.003 1.209 0 1.814.001V6.3h-2.393V3.026zM7.459 3.027c.493 0 .986-.003 1.479.002.302 0 .618.081.836.301.406.404.342 1.168-.14 1.486-.474.32-1.072.156-1.605.197-.002.432 0 .865 0 1.297H7.46V3.026zm.57.57v.847c.332-.001.665.005.998-.002.226-.003.466-.164.47-.408.02-.255-.234-.436-.468-.436-.333-.006-.666 0-.999-.001zM13.953 3.028h2.35v.557c-.59.002-1.18 0-1.77.001v.675c.322.002.644 0 .966.001v.557c-.322.002-.644 0-.965.001v.933c.605.002 1.209-.001 1.814.001v.556c-.798.002-1.596.001-2.394 0V3.027zM17.001 3.028c.671.027 1.445-.125 2.001.349.779.642.762 2.031-.068 2.624-.557.415-1.285.291-1.933.31V3.028zm.559.569v2.145c.407.009.872.029 1.192-.267.394-.394.368-1.084.058-1.52-.291-.385-.817-.371-1.251-.357zM5.903 7.954h.569c.001.908-.001 1.817.001 2.725.604.001 1.209-.001 1.813.001v.547H5.904V7.954zM8.877 7.953h.568v3.272c-.189.002-.379.002-.568 0-.001-1.091-.002-2.182 0-3.273zM10.314 7.953h.548c.307.647.611 1.295.918 1.941.307-.647.616-1.293.92-1.941.195-.002.391-.002.586-.001.009 1.091-.013 2.182-.011 3.274h-.556c-.003-.668.002-1.335-.003-2.002-.322.651-.627 1.309-.948 1.961-.302-.649-.596-1.302-.896-1.952-.003.665.001 1.329-.002 1.993h-.556c-.002-1.091-.001-2.183 0-3.274zM14.157 7.953h.568v3.272c-.189.002-.379.002-.568 0-.001-1.091-.002-2.182 0-3.273zM15.359 7.954c.791-.002 1.581-.001 2.372 0v.536c-.3.001-.6-.001-.9.001-.002.912.001 1.824-.001 2.736h-.579c-.002-.912.001-1.824-.001-2.736-.297-.002-.593 0-.89-.001v-.535zM5.177 12.881h5.212c0 .458-.018.915-.022 1.373l-3.927.001c-.03.502-.049 1.005-.078 1.507a5.205 5.205 0 0 1 2.024-.298 2.82 2.82 0 0 1 2.201 1.393c.662 1.094.482 2.64-.486 3.498-.555.518-1.308.793-2.06.837-1.203.074-2.379-.29-3.469-.767.218-.423.445-.842.666-1.264.869.373 1.796.693 2.755.647.63-.031 1.285-.376 1.526-.984.288-.673-.032-1.522-.693-1.836-.729-.37-1.573-.12-2.296.137-.155.036-.307.169-.47.101-.388-.129-.779-.248-1.167-.377.098-1.322.192-2.644.285-3.967zM15.354 12.987c.837-.105 1.732.08 2.401.61 1.07.838 1.443 2.272 1.425 3.577.009 1.34-.429 2.799-1.552 3.621-.87.634-2.078.751-3.062.325-1.391-.597-2.099-2.154-2.146-3.6-.039-1.041.121-2.124.663-3.031.474-.814 1.328-1.401 2.27-1.501zm.212 1.41c-.546.066-1.02.432-1.285.905-.407.719-.476 1.577-.41 2.385.064.669.275 1.375.795 1.834.659.59 1.778.52 2.37-.134.647-.704.762-1.729.696-2.644-.057-.731-.267-1.525-.859-2.008-.359-.299-.851-.401-1.308-.338z"/>
</svg>
