<svg xmlns="http://www.w3.org/2000/svg" width="24" height="24">
    <path fill="#035ab2" d="M10.663 0h.857c-.001 8-.003 16 0 24h-.849c-1.434-.249-2.863-.604-4.155-1.291C2.945 20.927.503 17.273 0 13.339v-2.666c.495-3.94 2.944-7.596 6.517-9.38C7.806.606 9.235.255 10.663 0zM4.245 6.674c-.739.227-.908 1.302-.305 1.769.582.54 1.644.138 1.722-.654.152-.765-.715-1.411-1.417-1.116zm-.596 2.957c-.444 1.15-.873 2.311-1.277 3.476-.204.375.416.749.626.37.333-.645.511-1.358.814-2.017.283 2.154-1.217 3.984-1.56 6.029.078.529.88.664 1.09.158.525-1.243.906-2.543 1.42-3.791-.218 1.414.531 2.646 1.145 3.851.232.477 1.035.177.941-.326-.194-.811-.761-1.494-.903-2.318-.026-1.24-.009-2.48-.001-3.72.521.527.359 1.26.416 1.924.216.504.859.083.701-.37.271-1.342-.756-2.337-1.379-3.394-.43-.763-1.722-.711-2.034.128zm5.204.388c-.686.027-1.016.977-.521 1.437.405.457 1.224.258 1.412-.31.221-.558-.3-1.209-.891-1.127zM8.2 12.543a46.979 46.979 0 0 0-.881 2.44c-.154.278.232.568.467.365.223-.386.336-.823.536-1.219.036 1.229-.803 2.265-.993 3.451.029.387.647.477.775.105.357-.79.595-1.63.926-2.432-.105.954.262 1.873.799 2.64.236.135.56-.024.613-.287-.116-.611-.592-1.122-.563-1.767-.001-.754-.013-1.51.027-2.263.311.475.245 1.053.341 1.587.286.213.599-.019.537-.354.206-.979-.483-1.767-.991-2.519-.397-.554-1.385-.4-1.593.254zM12.466 0h.858c1.434.251 2.866.606 4.159 1.293C21.052 3.073 23.5 6.722 24 10.657v2.673c-.246 1.434-.605 2.862-1.291 4.154-1.782 3.569-5.433 6.017-9.369 6.516h-.873c0-8 .001-16-.001-24zm4.951 6.438c-.357.227-.315.814.064.994.38.227.923-.092.892-.539 0-.46-.597-.735-.956-.456zm.273 1.297c-.401.317-.137.863-.086 1.278-.328.179-.656.359-.983.541-.411-.563-.909-1.169-1.647-1.268-.493-.047-.982-.121-1.435-.334l.26.485c-.137.723-.349 1.434-.42 2.166-.033.314.479.523.661.255.207-.345.439-.674.698-.984.493.872.308 1.937.821 2.789-.412.1-.987-.02-1.257.366a5.913 5.913 0 0 0 .005 1.757c.226.314.601.469.927.657-.07-.687-.474-1.3-.337-2.016.506 0 1.011 0 1.518.003.211.941 1.159 1.896.559 2.854.401-.031.963-.186.894-.705-.161-.821-.564-1.573-.829-2.363.832.01 1.642-.19 2.45-.359l.371 1.04c-.366.306-.772.573-1.086.937-.033.41.117.807.207 1.201.34-.23.522-.564.462-.983.363-.306.779-.555 1.097-.911.097-.306-.092-.637-.129-.947.798.559 1.245 1.395 1.298 2.367a36.78 36.78 0 0 0-.359.716c.383-.046.911-.11.992-.578-.015-.868-.213-1.764-.726-2.482-.212-.634-.059-1.337-.075-1.997 1.132.38-.176 2.049 1.061 2.488-.061-.839.267-1.851-.301-2.562-1.083-.461-2.26-1.039-3.457-.568.291-.791-.129-1.606-.246-2.394-.031-.425-.551-.726-.908-.452z"/>
    <path fill="#035ab2" d="M17.366 10.366c-.669-.382-.101-.678.359-.857l.114.566c-.158.096-.315.193-.472.291z"/>
    <path fill="#fff" d="M11.52 0h.946c.003 8 .001 16 .001 24h-.947c-.003-8-.001-16 0-24zM17.417 6.438c.359-.28.956-.004.956.456.031.447-.512.766-.892.539-.379-.18-.421-.767-.064-.994zM4.245 6.674c.702-.295 1.569.351 1.417 1.116-.078.791-1.14 1.194-1.722.654-.603-.467-.434-1.542.305-1.769zM17.69 7.735c.356-.274.877.027.908.452.117.788.537 1.602.246 2.394 1.197-.471 2.374.107 3.457.568.568.711.24 1.723.301 2.562-1.237-.439.071-2.108-1.061-2.488.017.66-.137 1.362.075 1.997.513.717.711 1.614.726 2.482-.08.469-.609.532-.992.578.116-.24.237-.479.359-.716-.054-.971-.5-1.808-1.298-2.367.037.31.226.641.129.947-.318.356-.734.605-1.097.911.06.419-.123.753-.462.983-.089-.394-.24-.791-.207-1.201.314-.364.72-.631 1.086-.937l-.371-1.04c-.808.169-1.617.369-2.45.359.264.79.668 1.542.829 2.363.069.518-.493.674-.894.705.6-.959-.349-1.914-.559-2.854-.507-.003-1.012-.003-1.518-.003-.137.716.267 1.329.337 2.016-.326-.189-.701-.343-.927-.657a5.913 5.913 0 0 1-.005-1.757c.271-.387.845-.267 1.257-.366-.513-.853-.328-1.917-.821-2.789-.259.31-.491.64-.698.984-.183.268-.694.059-.661-.255.071-.733.283-1.444.42-2.166l-.26-.485c.453.213.942.287 1.435.334.738.098 1.236.705 1.647 1.268.327-.183.655-.363.983-.541-.051-.415-.315-.961.086-1.278zm-.324 2.631c.157-.098.314-.195.472-.291l-.114-.566c-.46.179-1.028.475-.359.857zM3.649 9.631c.311-.839 1.603-.891 2.034-.128.623 1.057 1.649 2.053 1.379 3.394.158.453-.485.874-.701.37-.057-.664.105-1.397-.416-1.924-.008 1.24-.024 2.48.001 3.72.142.825.709 1.508.903 2.318.094.503-.709.803-.941.326-.614-1.205-1.363-2.437-1.145-3.851-.513 1.249-.895 2.548-1.42 3.791-.211.506-1.012.37-1.09-.158.343-2.045 1.843-3.876 1.56-6.029-.304.659-.481 1.372-.814 2.017-.209.379-.83.005-.626-.37.403-1.166.832-2.326 1.277-3.476zM8.853 10.019c.591-.082 1.112.569.891 1.127-.188.568-1.007.767-1.412.31-.495-.461-.165-1.411.521-1.437zM8.2 12.543c.208-.654 1.196-.808 1.593-.254.508.752 1.196 1.54.991 2.519.061.334-.251.567-.537.354-.096-.534-.029-1.112-.341-1.587-.04.753-.028 1.509-.027 2.263-.029.645.447 1.155.563 1.767-.052.263-.377.423-.613.287-.537-.767-.904-1.686-.799-2.64-.331.802-.568 1.642-.926 2.432-.128.373-.746.282-.775-.105.19-1.186 1.029-2.221.993-3.451-.2.396-.313.834-.536 1.219-.235.203-.622-.087-.467-.365.266-.822.569-1.633.881-2.44z"/>
</svg>
