<!-- Generated by IcoMoon.io -->
<svg version="1.1" xmlns="http://www.w3.org/2000/svg" width="24" height="24" viewBox="0 0 24 24">
<title>regulatory--truck-speed-limit-85--g1</title>
<path fill="#fff" d="M0.906 0h22.185c0.442 0.105 0.803 0.466 0.909 0.908v22.181c-0.104 0.443-0.466 0.804-0.908 0.911h-22.182c-0.443-0.105-0.802-0.465-0.91-0.907v-22.185c0.105-0.442 0.465-0.802 0.906-0.908M1.566 0.587c-0.558 0.060-1.007 0.584-0.991 1.144-0.001 6.846-0.001 13.692 0 20.538-0.022 0.621 0.535 1.177 1.156 1.155 6.846 0.001 13.692 0.001 20.538 0 0.621 0.021 1.177-0.534 1.155-1.155 0.001-6.846 0.001-13.692 0-20.538 0.007-0.442-0.263-0.875-0.67-1.053-0.255-0.123-0.543-0.104-0.817-0.103-6.625 0-13.25 0-19.875 0-0.165 0.001-0.331-0.008-0.496 0.012z"></path>
<path fill="#fff" d="M2.080 1.192c0.149-0.024 0.301-0.016 0.451-0.017 6.407 0.001 12.815-0.001 19.223 0.001 0.57-0.007 1.076 0.5 1.069 1.070 0.001 6.502 0.001 13.005 0 19.508 0.007 0.57-0.499 1.075-1.069 1.069-6.502 0.002-13.005 0.002-19.508 0-0.57 0.006-1.077-0.5-1.069-1.070-0.001-6.503-0.001-13.005 0-19.508-0.004-0.509 0.398-0.981 0.903-1.054M13.025 3.979c-0.458 0.612-0.477 1.498-0.142 2.17 0.297 0.602 1.128 0.788 1.688 0.454 0.223-0.134 0.375-0.354 0.481-0.586-0.173-0.068-0.345-0.133-0.519-0.199-0.163 0.375-0.689 0.547-0.99 0.231-0.394-0.454-0.394-1.188-0.094-1.691 0.257-0.404 0.897-0.312 1.096 0.104 0.169-0.075 0.337-0.152 0.504-0.23-0.315-0.789-1.52-0.917-2.025-0.252M19.86 3.782c-0.362 0.271-0.403 0.869-0.068 1.178 0.34 0.325 0.855 0.328 1.223 0.602 0.235 0.174 0.123 0.576-0.154 0.632-0.364 0.123-0.76-0.1-0.901-0.444-0.174 0.064-0.349 0.126-0.52 0.196 0.237 0.806 1.345 1.074 1.972 0.56 0.396-0.326 0.412-1.018 0.009-1.346-0.322-0.274-0.758-0.331-1.124-0.522-0.185-0.075-0.218-0.357-0.047-0.465 0.28-0.165 0.698-0.069 0.838 0.239 0.169-0.055 0.337-0.111 0.504-0.171-0.197-0.721-1.192-0.874-1.732-0.459M2.215 3.598c-0.002 0.18-0.002 0.361-0.001 0.541 0.291 0.002 0.581 0 0.872 0.001 0.001 0.859-0 1.718 0.001 2.578 0.188 0.001 0.375 0.001 0.563-0 0.001-0.859-0.001-1.718 0-2.577 0.288-0.001 0.577 0 0.865-0.001 0.001-0.181 0.001-0.362 0-0.542-0.767-0.001-1.534-0.002-2.301 0M5.601 6.697c0.187 0.002 0.375 0.002 0.562 0 0.005-0.399 0-0.798 0.002-1.197 0.202-0.001 0.404-0.002 0.605 0.001 0.197 0.399 0.39 0.799 0.591 1.196 0.21 0 0.419 0.002 0.629-0.002-0.199-0.42-0.408-0.834-0.608-1.253 0.583-0.201 0.788-0.975 0.462-1.473-0.172-0.27-0.506-0.378-0.812-0.381-0.477-0.003-0.953-0-1.431-0.001-0.001 1.036-0.002 2.073 0 3.109M9.099 3.614c0 0.64-0 1.279 0 1.919 0.003 0.354 0.097 0.739 0.382 0.973 0.416 0.324 1.031 0.334 1.497 0.112 0.363-0.183 0.535-0.599 0.544-0.989 0.007-0.672-0.002-1.345 0.004-2.017-0.188 0.002-0.375 0.002-0.562 0-0.003 0.641 0.003 1.282-0.002 1.923-0.008 0.224-0.054 0.494-0.274 0.607-0.233 0.107-0.519 0.108-0.752 0-0.22-0.113-0.268-0.384-0.269-0.608-0.003-0.64 0-1.28-0.001-1.92-0.189 0.001-0.378 0.001-0.568 0M16.137 3.614c0.003 1.035 0 2.070 0.002 3.104 0.188 0.002 0.375 0.002 0.564 0 0.012-0.293-0.021-0.591 0.015-0.881 0.164-0.221 0.349-0.426 0.517-0.643 0.27 0.509 0.54 1.017 0.812 1.525 0.218 0 0.436 0.001 0.655-0.001-0.363-0.666-0.724-1.332-1.089-1.996 0.289-0.374 0.592-0.736 0.882-1.11-0.222 0.004-0.444 0.003-0.666 0.003-0.372 0.479-0.749 0.953-1.125 1.427-0.002-0.476 0-0.952-0.001-1.429-0.189 0.002-0.377 0.002-0.566 0M4.756 9.961c-1.11 0.714-1.492 2.303-0.878 3.459 0.23 0.434 0.601 0.775 1.018 1.027-0.672 0.324-1.265 0.86-1.543 1.564-0.338 0.864-0.255 1.871 0.161 2.694 0.407 0.801 1.182 1.372 2.036 1.621 1.378 0.386 3.006 0.238 4.128-0.713 0.959-0.815 1.312-2.225 0.941-3.413-0.249-0.788-0.877-1.408-1.608-1.769 0.51-0.3 0.946-0.751 1.151-1.313 0.341-0.936 0.125-2.065-0.576-2.782-0.544-0.568-1.319-0.866-2.090-0.947-0.938-0.094-1.945 0.030-2.739 0.572M14.048 9.563c-0.11 1.796-0.218 3.592-0.323 5.387 0.617 0.261 1.235 0.521 1.852 0.781 0.643-0.749 1.828-0.976 2.686-0.48 0.733 0.465 0.841 1.498 0.555 2.253-0.301 0.796-1.178 1.216-1.992 1.208-0.836 0.039-1.668-0.224-2.347-0.709-0.358 0.493-0.715 0.988-1.070 1.484 0.66 0.554 1.501 0.847 2.345 0.967 0.923 0.126 1.89 0.095 2.766-0.247 0.782-0.298 1.472-0.857 1.877-1.594 0.705-1.303 0.631-3.042-0.282-4.228-1.036-1.314-3.056-1.524-4.483-0.764 0.056-0.746 0.105-1.493 0.165-2.239 1.466-0.001 2.932 0 4.398-0.001 0.002-0.606 0.001-1.212 0-1.818-2.049-0.001-4.099-0-6.149 0z"></path>
<path fill="#fff" d="M6.165 4.122c0.315 0.010 0.633-0.022 0.946 0.017 0.392 0.053 0.412 0.715 0.030 0.799-0.322 0.047-0.652 0.009-0.976 0.021-0.001-0.279-0.001-0.558 0-0.837z"></path>
<path fill="#fff" d="M6.58 11.132c0.551-0.090 1.193 0.006 1.579 0.444 0.421 0.475 0.33 1.277-0.164 1.666-0.645 0.515-1.726 0.476-2.264-0.179-0.324-0.405-0.341-1.034-0.021-1.447 0.209-0.272 0.537-0.428 0.869-0.486z"></path>
<path fill="#fff" d="M6.579 15.396c0.737-0.124 1.575 0.135 2.001 0.776 0.45 0.645 0.339 1.616-0.27 2.123-0.698 0.584-1.791 0.622-2.55 0.132-0.67-0.432-0.874-1.384-0.525-2.084 0.247-0.521 0.783-0.864 1.345-0.947z"></path>
<path fill="#000" d="M1.566 0.587c0.165-0.020 0.331-0.011 0.496-0.012 6.625 0 13.25 0 19.875 0 0.274-0.001 0.562-0.020 0.817 0.103 0.407 0.178 0.677 0.61 0.67 1.053 0.001 6.846 0.001 13.692 0 20.538 0.021 0.621-0.534 1.177-1.155 1.155-6.846 0.001-13.692 0.001-20.538 0-0.621 0.022-1.177-0.534-1.156-1.155-0.001-6.846-0.001-13.692 0-20.538-0.016-0.56 0.433-1.084 0.991-1.144M2.080 1.192c-0.505 0.073-0.907 0.545-0.903 1.054-0.001 6.502-0.001 13.005 0 19.508-0.007 0.57 0.5 1.075 1.069 1.070 6.502 0.002 13.005 0.002 19.508-0 0.57 0.006 1.076-0.5 1.069-1.069 0.001-6.503 0.001-13.005 0-19.508 0.007-0.57-0.499-1.076-1.069-1.070-6.407-0.003-12.815 0-19.223-0.001-0.15 0.001-0.302-0.007-0.451 0.017z"></path>
<path fill="#000" d="M13.025 3.979c0.505-0.665 1.71-0.537 2.025 0.252-0.167 0.078-0.335 0.155-0.504 0.23-0.199-0.415-0.839-0.507-1.096-0.104-0.3 0.503-0.3 1.237 0.094 1.691 0.301 0.316 0.827 0.144 0.99-0.231 0.173 0.066 0.346 0.131 0.519 0.199-0.106 0.232-0.259 0.453-0.481 0.586-0.56 0.333-1.391 0.148-1.688-0.454-0.335-0.672-0.316-1.559 0.142-2.17z"></path>
<path fill="#000" d="M19.86 3.782c0.541-0.415 1.536-0.262 1.732 0.459-0.167 0.060-0.336 0.116-0.504 0.171-0.14-0.308-0.558-0.404-0.838-0.239-0.171 0.108-0.138 0.39 0.047 0.465 0.366 0.191 0.802 0.248 1.124 0.522 0.403 0.328 0.387 1.020-0.009 1.346-0.627 0.514-1.735 0.246-1.972-0.56 0.172-0.070 0.346-0.132 0.52-0.196 0.141 0.344 0.537 0.567 0.901 0.444 0.277-0.057 0.389-0.458 0.154-0.632-0.368-0.274-0.884-0.277-1.223-0.602-0.335-0.308-0.294-0.907 0.068-1.178z"></path>
<path fill="#000" d="M2.215 3.598c0.767-0.002 1.534-0.001 2.301-0 0.001 0.18 0.001 0.361 0 0.542-0.288 0.001-0.577 0-0.865 0.001-0.001 0.859 0 1.718-0 2.577-0.188 0.002-0.375 0.001-0.563 0-0.001-0.859 0-1.718-0.001-2.578-0.291-0-0.581 0.001-0.872-0.001-0.001-0.18-0.001-0.361 0.001-0.541z"></path>
<path fill="#000" d="M5.601 6.697c-0.003-1.036-0.002-2.073-0-3.109 0.477 0 0.954-0.002 1.431 0.001 0.306 0.003 0.64 0.112 0.812 0.381 0.327 0.498 0.121 1.272-0.462 1.473 0.2 0.419 0.409 0.834 0.608 1.253-0.21 0.004-0.419 0.002-0.629 0.002-0.201-0.397-0.394-0.797-0.591-1.196-0.202-0.003-0.404-0.002-0.605-0.001-0.002 0.399 0.003 0.798-0.002 1.197-0.187 0.002-0.375 0.002-0.562-0M6.165 4.122c-0.001 0.279-0.001 0.558 0 0.837 0.325-0.012 0.654 0.026 0.976-0.021 0.382-0.084 0.362-0.746-0.030-0.799-0.314-0.039-0.631-0.007-0.946-0.017z"></path>
<path fill="#000" d="M9.099 3.614c0.189 0 0.379 0 0.568-0 0.001 0.64-0.002 1.28 0.001 1.92 0 0.224 0.049 0.495 0.269 0.608 0.233 0.108 0.519 0.107 0.752 0 0.22-0.113 0.266-0.383 0.274-0.607 0.005-0.641-0-1.282 0.002-1.923 0.187 0.002 0.374 0.002 0.562 0-0.007 0.672 0.002 1.345-0.004 2.017-0.009 0.39-0.181 0.805-0.544 0.989-0.465 0.222-1.080 0.212-1.497-0.112-0.285-0.234-0.379-0.619-0.382-0.973-0.001-0.639 0-1.279-0-1.919z"></path>
<path fill="#000" d="M16.137 3.614c0.189 0.001 0.377 0.001 0.566-0 0.001 0.476-0.001 0.953 0.001 1.429 0.376-0.475 0.753-0.949 1.125-1.427 0.222 0 0.444 0.001 0.666-0.003-0.29 0.373-0.593 0.735-0.882 1.11 0.365 0.664 0.726 1.331 1.089 1.996-0.218 0.002-0.437 0.001-0.655 0.001-0.272-0.508-0.542-1.016-0.812-1.525-0.169 0.218-0.354 0.422-0.518 0.643-0.036 0.29-0.003 0.588-0.015 0.881-0.188 0.002-0.376 0.002-0.564 0-0.001-1.035 0.001-2.070-0.002-3.104z"></path>
<path fill="#000" d="M4.756 9.961c0.795-0.542 1.801-0.666 2.739-0.572 0.772 0.081 1.546 0.379 2.090 0.947 0.701 0.717 0.917 1.846 0.576 2.782-0.205 0.562-0.641 1.013-1.151 1.313 0.73 0.36 1.358 0.98 1.608 1.769 0.371 1.188 0.018 2.598-0.941 3.413-1.122 0.952-2.75 1.099-4.128 0.713-0.854-0.249-1.629-0.82-2.036-1.621-0.416-0.823-0.499-1.83-0.161-2.694 0.278-0.704 0.871-1.24 1.543-1.564-0.417-0.252-0.788-0.593-1.018-1.027-0.614-1.156-0.232-2.745 0.878-3.459M6.58 11.132c-0.332 0.058-0.66 0.214-0.869 0.486-0.32 0.412-0.304 1.041 0.021 1.447 0.537 0.654 1.619 0.693 2.264 0.179 0.495-0.389 0.585-1.192 0.164-1.666-0.386-0.438-1.028-0.535-1.579-0.444M6.579 15.396c-0.562 0.083-1.098 0.426-1.345 0.947-0.348 0.7-0.145 1.651 0.525 2.084 0.758 0.489 1.852 0.451 2.55-0.132 0.61-0.507 0.721-1.478 0.27-2.123-0.426-0.641-1.263-0.9-2.001-0.776z"></path>
<path fill="#000" d="M14.048 9.563c2.050-0 4.1-0.001 6.149 0 0 0.606 0.001 1.212-0 1.818-1.466 0.001-2.933-0-4.398 0.001-0.060 0.746-0.108 1.493-0.165 2.239 1.427-0.76 3.446-0.55 4.483 0.764 0.913 1.186 0.987 2.925 0.282 4.228-0.405 0.737-1.095 1.296-1.877 1.594-0.876 0.342-1.843 0.373-2.766 0.247-0.844-0.12-1.686-0.413-2.345-0.967 0.355-0.496 0.712-0.99 1.070-1.484 0.679 0.485 1.511 0.748 2.347 0.709 0.814 0.008 1.691-0.412 1.992-1.208 0.286-0.756 0.178-1.789-0.555-2.253-0.858-0.495-2.044-0.268-2.686 0.48-0.618-0.261-1.236-0.52-1.852-0.781 0.105-1.796 0.213-3.592 0.323-5.387z"></path>
</svg>
