<svg xmlns="http://www.w3.org/2000/svg" width="24" height="24">
    <path d="M2.004 0h19.987c.503.144.838.654.832 1.168.003 7.205 0 14.411.001 21.616.021.529-.312 1.063-.83 1.216H2.01c-.504-.144-.839-.653-.833-1.168V1.168C1.17.654 1.504.149 2.004 0zm.751 1.957c-.46.393-.484 1.193-.022 1.593.46.41 1.119.437 1.622.769.316.191.268.72-.072.859-.511.242-1.131-.063-1.335-.571-.239.088-.479.174-.716.267.326 1.169 2.014 1.508 2.825.655.424-.474.405-1.31-.096-1.724-.447-.389-1.06-.458-1.567-.73-.246-.113-.283-.479-.052-.627.382-.22.965-.097 1.148.331.231-.076.462-.152.692-.231-.257-1.025-1.699-1.223-2.428-.592zm3.644-.31c-.004 1.419-.003 2.838-.001 4.258.258.002.516.001.773.001V4.313c.431-.01.864.023 1.294-.023.489-.06.937-.408 1.075-.887.239-.682-.141-1.554-.885-1.696-.743-.126-1.506-.033-2.257-.059zm4.074.005c-.005 1.417-.002 2.835-.001 4.252.974.002 1.948.001 2.922 0 0-.246.002-.491-.003-.737-.715-.007-1.43 0-2.144-.003V4.077l1.241-.001c0-.245.002-.49-.002-.735-.413-.007-.825-.001-1.238-.003V2.39l2.016-.001c0-.246.002-.491-.002-.737-.929-.006-1.858-.004-2.786-.001zm3.922.002c-.007 1.417-.001 2.835-.003 4.252h2.92c.002-.247.003-.493-.001-.739-.714-.002-1.428 0-2.142-.001V4.079l1.236-.001c0-.246.001-.491-.001-.737-.412-.003-.824 0-1.235-.001v-.948c.671-.002 1.342.002 2.013-.002.005-.246.005-.491 0-.736a259.1 259.1 0 0 0-2.788.001zm3.914-.003a670.243 670.243 0 0 0 0 4.254c.806-.041 1.684.146 2.422-.27.732-.411 1.018-1.321.935-2.117-.049-.683-.418-1.378-1.063-1.664-.721-.322-1.531-.166-2.294-.202zM4.233 6.567c-.002 1.416-.001 2.832 0 4.248h2.813v-.742c-.679-.002-1.358 0-2.038-.001-.001-1.168.002-2.337-.001-3.505a49.795 49.795 0 0 0-.773 0zm3.691-.007v4.255h.772V6.559h-.772zm2.032 0v4.254c.258.002.516.001.774.001-.003-.853.01-1.706-.008-2.559.384.893.783 1.778 1.176 2.667.389-.893.81-1.771 1.171-2.675-.018.855-.004 1.711-.008 2.566h.771V6.558h-.744c-.397.902-.803 1.8-1.185 2.707-.376-.909-.783-1.805-1.176-2.707h-.77zm5.137 0v4.256h.771V6.561a99.074 99.074 0 0 0-.771 0zm1.762-.003v.742l1.192.001c.002 1.172 0 2.343.001 3.515h.772V7.3h1.193v-.743h-3.159zm-.899 6.354a2.822 2.822 0 0 0-1.652.737c-.565.525-.904 1.247-1.112 1.98-.245.893-.322 1.824-.293 2.747.05 1.017.207 2.055.677 2.969.305.601.776 1.135 1.39 1.429 1.201.563 2.804.338 3.664-.72.555-.653.85-1.486 1.013-2.318.198-1.034.211-2.1.069-3.142-.135-.921-.405-1.856-.99-2.597-.633-.842-1.739-1.219-2.766-1.085zm-10.974.158c-.199 1.66-.39 3.322-.581 4.983.382.135.765.268 1.148.402.136.063.206-.119.306-.179.749-.612 1.881-.794 2.754-.351 1.133.611 1.282 2.342.412 3.238-.569.62-1.466.813-2.276.709-.723-.057-1.395-.398-1.925-.883-.255.328-.514.653-.763.987.803.786 1.973 1.079 3.068 1.088 1.097.046 2.241-.359 2.968-1.202 1.093-1.226 1.1-3.291-.053-4.48-1.104-1.148-3.057-1.198-4.317-.28.125-.949.244-1.899.368-2.848l4.174-.001v-1.184H4.981z"/>
    <path d="M7.172 2.391c.413.014.831-.03 1.24.025.531.12.525.999 0 1.126-.409.056-.828.01-1.24.024V2.39zM19.082 2.391c.415.025.875-.083 1.248.151.411.264.555.789.547 1.253.002.461-.161.976-.578 1.224-.367.223-.811.125-1.216.146V2.39zM15.908 14.129c.77-.203 1.624.173 1.981.886.602 1.155.614 2.514.543 3.785-.072.859-.218 1.775-.772 2.467-.513.65-1.515.777-2.212.364-.424-.255-.699-.693-.87-1.147-.292-.776-.361-1.615-.371-2.438.001-.881.067-1.782.384-2.612.219-.596.668-1.165 1.316-1.306z"/>
    <path fill="#fff" d="M2.755 1.957c.729-.631 2.171-.434 2.428.592-.23.079-.461.155-.692.231-.184-.427-.766-.551-1.148-.331-.231.148-.194.514.052.627.508.272 1.121.342 1.567.73.501.413.519 1.249.096 1.724-.81.853-2.499.513-2.825-.655.238-.092.477-.179.716-.267.204.508.824.813 1.335.571.339-.139.388-.668.072-.859-.503-.331-1.162-.359-1.622-.769-.462-.4-.439-1.2.022-1.593zM6.399 1.647c.751.026 1.513-.067 2.257.059.745.142 1.124 1.014.885 1.696-.139.479-.586.828-1.075.887-.429.046-.863.013-1.294.023v1.593c-.258 0-.516.001-.773-.001-.002-1.419-.003-2.839.001-4.258zm.773.744v1.176c.413-.014.831.031 1.24-.024.524-.128.531-1.006 0-1.126-.41-.055-.827-.011-1.24-.025zM10.473 1.652c.929-.003 1.858-.005 2.786.001.005.246.002.491.002.737l-2.016.001v.948c.413.002.825-.003 1.238.003.004.245.002.49.002.735l-1.241.001v1.087c.714.003 1.429-.003 2.144.003.005.246.002.491.003.737-.974.001-1.948.002-2.922 0-.001-1.418-.004-2.835.001-4.253zM14.395 1.654a259.1 259.1 0 0 1 2.788-.001c.004.245.005.491 0 .736-.671.005-1.342 0-2.013.002v.948c.412.002.824-.001 1.235.001.002.246.001.491.001.737l-1.236.001v1.087c.714.002 1.428-.001 2.142.001.004.247.003.493.001.739h-2.92c.001-1.417-.004-2.835.003-4.252zM18.309 1.651c.763.036 1.573-.12 2.294.202.645.286 1.014.982 1.063 1.664.083.796-.203 1.707-.935 2.117-.739.416-1.616.229-2.422.27a670.243 670.243 0 0 1 0-4.254zm.773.74v2.775c.405-.021.849.076 1.216-.146.417-.248.581-.763.578-1.224.008-.464-.136-.989-.547-1.253-.373-.235-.833-.127-1.248-.151zM4.233 6.567c.258-.002.516-.002.773 0 .003 1.168 0 2.337.001 3.505.679.001 1.358-.001 2.038.001v.742H4.232c-.001-1.416-.002-2.832 0-4.248zM7.924 6.56h.772v4.256h-.772V6.561zM9.956 6.56h.77c.392.902.799 1.798 1.176 2.707.383-.907.788-1.805 1.185-2.707h.744v4.256h-.771c.004-.855-.01-1.711.008-2.566-.36.904-.782 1.783-1.171 2.675-.393-.889-.792-1.775-1.176-2.667.019.853.005 1.706.008 2.559-.258 0-.516.001-.774-.001V6.562zM15.093 6.56h.771v4.255h-.771V6.559zM16.855 6.557h3.159V7.3h-1.193v3.515h-.772c-.002-1.172 0-2.343-.001-3.515l-1.193-.001v-.742zM15.956 12.911c1.027-.134 2.132.243 2.766 1.085.584.742.855 1.676.99 2.597a9.716 9.716 0 0 1-.069 3.142c-.163.832-.457 1.665-1.013 2.318-.86 1.059-2.463 1.283-3.664.72-.615-.294-1.085-.828-1.39-1.429-.47-.915-.627-1.952-.677-2.969-.029-.923.049-1.855.293-2.747.208-.733.547-1.455 1.112-1.98a2.822 2.822 0 0 1 1.652-.737zm-.048 1.218c-.647.142-1.097.711-1.316 1.306-.317.83-.383 1.731-.384 2.612.009.823.079 1.661.371 2.438.17.454.446.892.87 1.147.697.413 1.699.286 2.212-.364.554-.692.7-1.609.772-2.467.07-1.271.059-2.63-.543-3.785-.357-.713-1.211-1.089-1.981-.886zM4.982 13.069h5.284v1.184l-4.174.001c-.124.949-.244 1.898-.368 2.848 1.26-.918 3.213-.868 4.317.28 1.153 1.189 1.146 3.254.053 4.48-.728.843-1.871 1.249-2.968 1.202-1.096-.009-2.265-.303-3.068-1.088.248-.333.507-.659.763-.987.53.485 1.202.826 1.925.883.81.105 1.707-.089 2.276-.709.87-.896.72-2.627-.412-3.238-.874-.443-2.005-.261-2.754.351-.099.06-.17.241-.306.179-.383-.134-.766-.267-1.148-.402.191-1.661.382-3.323.581-4.983zm.331 8.362c.023.023.023.023 0 0z"/>
    <path fill="#c1c1c1" d="M5.313 21.431c.023.023.023.023 0 0z"/>
</svg>
