<!-- Generated by IcoMoon.io -->
<svg version="1.1" xmlns="http://www.w3.org/2000/svg" width="19" height="24" viewBox="0 0 19 24">
<title>regulatory--maximum-speed-limit-85--g2</title>
<path fill="#fff" d="M0 0h0.653c-0.3 0.132-0.535 0.389-0.653 0.693v-0.693z"></path>
<path fill="#fff" d="M18.512 0h0.714v0.926c-0.069-0.402-0.338-0.761-0.714-0.926z"></path>
<path fill="#fff" d="M0.986 0.734c0.049-0.019 0.1-0.027 0.153-0.026 5.635 0.001 11.271-0.001 16.906 0.001 0.244-0.005 0.412 0.245 0.388 0.473 0 7.198 0.001 14.396-0.001 21.594 0.014 0.22-0.157 0.447-0.388 0.442-5.635 0.001-11.269-0-16.904 0-0.216 0.014-0.414-0.184-0.4-0.4 0-7.24-0.001-14.481 0-21.721-0.006-0.158 0.104-0.304 0.246-0.363M2.36 3.329c-0.436 0.311-0.415 1.046 0.047 1.323 0.433 0.238 0.956 0.237 1.396 0.46 0.2 0.102 0.202 0.408 0.013 0.522-0.455 0.292-1.114 0.175-1.454-0.244-0.159 0.118-0.317 0.237-0.472 0.36 0.551 0.679 1.645 0.83 2.345 0.302 0.445-0.324 0.404-1.067-0.033-1.378-0.416-0.286-0.946-0.276-1.401-0.462-0.21-0.077-0.201-0.401-0.003-0.487 0.385-0.176 0.871-0.061 1.165 0.237 0.144-0.131 0.295-0.255 0.436-0.389-0.513-0.524-1.425-0.674-2.038-0.244M5.208 3.117c-0.001 1.074 0 2.147-0 3.221 0.201 0.001 0.402 0.001 0.603-0 0-0.422-0-0.844 0-1.266 0.374-0.005 0.749 0.008 1.123-0.007 0.463-0.024 0.869-0.418 0.904-0.881 0.065-0.532-0.385-1.019-0.906-1.057-0.574-0.022-1.149-0.004-1.724-0.009M8.398 3.117c-0.001 1.074-0 2.147-0 3.221 0.821 0.001 1.641 0 2.461 0 0-0.194 0-0.387-0-0.581-0.619 0-1.239 0-1.858 0-0.001-0.292-0.001-0.584 0-0.876 0.327-0.002 0.655 0.003 0.982-0.002-0-0.196-0-0.392 0-0.588-0.328-0.005-0.655-0.001-0.983-0.003-0.001-0.197-0.001-0.394 0-0.591 0.598-0.001 1.197 0.001 1.795-0 0.001-0.194 0.001-0.387-0-0.581-0.799 0-1.598-0.001-2.397 0M11.514 6.337c0.821 0.002 1.642 0.001 2.462 0 0-0.194 0-0.387-0-0.581-0.619-0.001-1.238 0.001-1.858-0.001-0.001-0.292-0.001-0.584 0-0.875 0.327-0.001 0.654 0 0.98-0 0.001-0.197 0.001-0.395 0-0.592-0.327 0-0.654 0.001-0.98-0-0.001-0.196-0.001-0.393 0-0.59 0.602-0.002 1.203 0 1.805-0.001 0-0.194 0.001-0.387-0.001-0.581-0.801-0.001-1.602 0.002-2.403-0.002-0.011 1.074-0.001 2.149-0.005 3.223M14.64 6.337c0.578-0.028 1.189 0.091 1.736-0.147 0.642-0.268 0.976-0.997 0.886-1.668-0.036-0.708-0.638-1.306-1.333-1.388-0.428-0.038-0.859-0.010-1.288-0.019-0.001 1.074 0 2.147-0 3.221M3.708 7.944c0 1.074-0.001 2.147 0 3.221 0.798 0.002 1.597-0.001 2.395 0.001 0.005-0.166 0.003-0.331 0.002-0.497-0.609-0.002-1.218 0-1.827-0.001-0.001-0.908 0-1.816-0-2.725-0.19-0.001-0.38-0.001-0.57 0M6.655 7.945c0.002 1.074-0.003 2.148 0.003 3.222 0.193-0.001 0.386 0 0.578-0.001 0.001-1.074 0-2.147 0-3.221-0.194-0.001-0.388-0.001-0.581 0M8.070 7.944c0 1.074-0 2.148 0 3.222 0.19 0 0.38 0 0.57-0 0.002-0.655-0-1.309 0.001-1.964 0.31 0.653 0.62 1.306 0.933 1.957 0.319-0.649 0.627-1.304 0.945-1.953 0.003 0.653-0 1.307 0.002 1.961 0.188 0.001 0.376-0.002 0.564 0.003 0.015-1.074 0.002-2.149 0.006-3.224-0.19-0.002-0.38-0.001-0.57-0-0.317 0.635-0.627 1.274-0.95 1.906-0.303-0.638-0.625-1.268-0.93-1.906-0.19-0.002-0.381-0.001-0.571-0.001M11.926 7.944c0 1.074-0.001 2.147 0 3.221 0.194 0.001 0.387 0.001 0.581 0 0.001-1.074 0-2.148 0-3.222-0.194-0-0.388-0-0.581 0M13.046 7.944c-0 0.19-0.001 0.38 0 0.57 0.309 0.002 0.619 0 0.928 0.001 0.002 0.884-0 1.767 0.001 2.651 0.186 0.001 0.373 0.001 0.559 0 0.001-0.884-0-1.767 0.001-2.651 0.309-0 0.619 0 0.928 0 0.001-0.19 0.001-0.38 0.001-0.571-0.807 0-1.613-0-2.419 0M2.975 13.454c-0.507 0.499-0.684 1.285-0.474 1.96 0.109 0.335 0.336 0.614 0.56 0.881-0.705 0.62-1.053 1.61-0.839 2.532 0.136 0.683 0.584 1.289 1.184 1.638 0.761 0.45 1.684 0.548 2.55 0.456 0.79-0.088 1.606-0.38 2.13-1.004 0.877-1.030 0.73-2.746-0.305-3.618 0.23-0.298 0.472-0.606 0.565-0.979 0.217-0.808-0.144-1.71-0.849-2.156-0.725-0.474-1.625-0.581-2.472-0.526-0.741 0.052-1.508 0.285-2.049 0.815M10.725 12.666c-0.083 1.253-0.17 2.506-0.248 3.759 0.477 0.121 0.951 0.255 1.43 0.364 0.785-0.295 1.673-0.43 2.484-0.164 0.81 0.28 1.114 1.415 0.604 2.087-0.247 0.324-0.641 0.499-1.032 0.573-1.025 0.175-2.103-0.058-2.987-0.597-0.248 0.406-0.501 0.811-0.75 1.217 0.987 0.595 2.135 0.947 3.293 0.888 0.714-0.026 1.427-0.241 2.014-0.654 0.523-0.372 0.916-0.932 1.064-1.558 0.192-0.819 0.025-1.73-0.502-2.396-0.49-0.629-1.248-1.018-2.032-1.128-0.695-0.102-1.396 0.013-2.075 0.162 0.030-0.379 0.054-0.758 0.084-1.137 1.321-0.004 2.642 0 3.963-0.002-0-0.472 0.012-0.944 0.022-1.415-1.778-0-3.555-0.001-5.332 0z"></path>
<path fill="#fff" d="M5.811 3.698c0.345 0.001 0.69-0.004 1.035 0.001 0.209 0.006 0.419 0.178 0.405 0.4 0.016 0.223-0.199 0.383-0.405 0.39-0.344 0.024-0.69 0.005-1.035 0.010-0.001-0.267-0.001-0.534 0-0.801z"></path>
<path fill="#fff" d="M15.233 3.698c0.353 0.004 0.746-0.052 1.048 0.175 0.587 0.399 0.533 1.464-0.123 1.77-0.282 0.163-0.616 0.104-0.925 0.113-0.001-0.686-0.001-1.372 0-2.058z"></path>
<path fill="#fff" d="M4.879 14.097c0.468-0.046 0.95-0.048 1.409 0.067 0.236 0.068 0.488 0.176 0.616 0.398 0.126 0.226 0.044 0.525-0.158 0.678-0.305 0.242-0.709 0.294-1.085 0.317-0.513 0.010-1.068 0.017-1.518-0.264-0.262-0.152-0.385-0.528-0.196-0.783 0.22-0.282 0.595-0.368 0.932-0.414z"></path>
<path fill="#fff" d="M4.873 17.043c0.698-0.074 1.524-0.074 2.065 0.443 0.549 0.58 0.235 1.629-0.509 1.872-0.645 0.193-1.352 0.174-1.999 0.001-0.663-0.178-1.018-1.004-0.722-1.617 0.209-0.441 0.709-0.638 1.165-0.7z"></path>
<path fill="#fff" d="M18.304 24c0.471-0.112 0.842-0.517 0.922-0.993v0.993h-0.922z"></path>
<path fill="#fff" d="M0 23.23c0.137 0.382 0.472 0.673 0.864 0.77h-0.864v-0.77z"></path>
<path fill="#030303" d="M0.653 0h17.858c0.376 0.164 0.644 0.524 0.714 0.926v22.081c-0.079 0.476-0.451 0.881-0.922 0.993h-17.44c-0.392-0.098-0.727-0.389-0.864-0.77v-22.537c0.119-0.304 0.353-0.561 0.653-0.693M0.986 0.734c-0.143 0.059-0.252 0.205-0.246 0.363-0.001 7.24 0 14.481-0 21.721-0.014 0.216 0.184 0.414 0.4 0.4 5.635-0.001 11.269 0 16.904-0 0.231 0.005 0.402-0.222 0.388-0.442 0.002-7.198 0.001-14.396 0.001-21.594 0.024-0.229-0.144-0.478-0.388-0.473-5.635-0.002-11.271 0-16.906-0.001-0.053-0.001-0.104 0.007-0.153 0.026z"></path>
<path fill="#030303" d="M2.36 3.329c0.613-0.431 1.525-0.28 2.038 0.244-0.141 0.134-0.292 0.258-0.436 0.389-0.294-0.298-0.78-0.413-1.165-0.237-0.198 0.086-0.207 0.41 0.003 0.487 0.455 0.186 0.985 0.177 1.401 0.462 0.438 0.311 0.478 1.055 0.033 1.378-0.7 0.529-1.794 0.377-2.345-0.302 0.155-0.123 0.313-0.243 0.472-0.36 0.34 0.418 0.999 0.535 1.454 0.244 0.19-0.114 0.188-0.42-0.013-0.522-0.44-0.222-0.963-0.222-1.396-0.46-0.462-0.278-0.483-1.012-0.047-1.323z"></path>
<path fill="#030303" d="M5.208 3.117c0.574 0.005 1.15-0.013 1.724 0.009 0.521 0.038 0.971 0.526 0.906 1.057-0.035 0.463-0.441 0.857-0.904 0.881-0.374 0.015-0.749 0.002-1.123 0.007-0 0.422 0 0.844 0 1.266-0.201 0.001-0.402 0.001-0.603 0 0-1.074-0.001-2.147 0-3.221M5.811 3.698c-0.001 0.267-0.001 0.534 0 0.801 0.345-0.005 0.69 0.014 1.035-0.010 0.206-0.007 0.42-0.167 0.405-0.39 0.014-0.221-0.196-0.393-0.405-0.4-0.345-0.005-0.69-0-1.035-0.001z"></path>
<path fill="#030303" d="M8.398 3.117c0.799-0.001 1.598 0 2.397-0 0.002 0.194 0.002 0.387 0 0.581-0.598 0.001-1.197-0-1.795 0-0.001 0.197-0.001 0.394 0 0.591 0.327 0.002 0.655-0.003 0.983 0.003-0.001 0.196-0.001 0.392-0 0.588-0.327 0.005-0.655 0-0.982 0.002-0.001 0.292-0.001 0.584 0 0.876 0.619 0 1.239 0 1.858 0 0.001 0.194 0 0.387 0 0.581-0.821 0-1.641 0-2.461-0 0-1.074-0.001-2.147 0-3.221z"></path>
<path fill="#030303" d="M11.514 6.337c0.003-1.074-0.006-2.149 0.005-3.223 0.801 0.004 1.602 0.001 2.403 0.002 0.002 0.194 0.001 0.387 0.001 0.581-0.602 0.001-1.203-0.001-1.805 0.001-0.001 0.197-0.001 0.393 0 0.59 0.327 0.001 0.654 0 0.98 0 0.001 0.198 0.001 0.395 0 0.592-0.327 0-0.654-0.001-0.98 0-0.001 0.292-0.001 0.584 0 0.875 0.619 0.002 1.238-0 1.858 0.001 0.001 0.194 0 0.387 0 0.581-0.821 0-1.642 0.001-2.462-0z"></path>
<path fill="#030303" d="M14.64 6.337c0-1.074-0.001-2.147 0-3.221 0.429 0.009 0.86-0.020 1.288 0.019 0.695 0.082 1.296 0.68 1.333 1.388 0.090 0.671-0.243 1.4-0.886 1.668-0.547 0.238-1.158 0.119-1.736 0.147M15.233 3.698c-0.001 0.686-0.001 1.372 0 2.058 0.309-0.009 0.644 0.049 0.925-0.113 0.655-0.306 0.709-1.371 0.123-1.77-0.302-0.227-0.695-0.171-1.048-0.175z"></path>
<path fill="#030303" d="M3.708 7.944c0.19-0.001 0.38-0.001 0.57 0 0.001 0.908-0.001 1.816 0 2.725 0.609 0.001 1.218-0.001 1.827 0.001 0.001 0.166 0.003 0.331-0.002 0.497-0.798-0.002-1.597 0-2.395-0.001-0.001-1.074-0-2.147-0-3.221z"></path>
<path fill="#030303" d="M6.655 7.945c0.194-0.002 0.387-0.001 0.581-0 0 1.074 0.001 2.147-0 3.221-0.193 0.001-0.385 0-0.578 0.001-0.006-1.074-0-2.148-0.003-3.222z"></path>
<path fill="#030303" d="M8.070 7.944c0.191 0 0.381-0.001 0.571 0.001 0.305 0.638 0.627 1.267 0.93 1.906 0.322-0.633 0.633-1.271 0.95-1.906 0.19-0.001 0.38-0.001 0.57 0-0.005 1.075 0.008 2.149-0.006 3.224-0.188-0.004-0.376-0.002-0.564-0.003-0.002-0.654 0.002-1.307-0.002-1.961-0.319 0.649-0.626 1.304-0.945 1.953-0.313-0.651-0.623-1.304-0.933-1.957-0.002 0.655 0.001 1.309-0.001 1.964-0.19 0.001-0.38 0.001-0.57 0-0.001-1.074-0-2.148-0-3.222z"></path>
<path fill="#030303" d="M11.926 7.944c0.194-0.001 0.387-0.001 0.581-0 0 1.074 0 2.148-0 3.222-0.194 0-0.387 0-0.581-0-0.001-1.074 0-2.147-0-3.221z"></path>
<path fill="#030303" d="M13.046 7.944c0.806-0.001 1.612-0 2.419-0 0 0.191 0 0.381-0.001 0.571-0.309 0-0.619-0-0.928 0-0.001 0.884 0 1.767-0.001 2.651-0.186 0-0.373 0-0.559-0-0.002-0.884 0-1.767-0.001-2.651-0.309-0.001-0.619 0.001-0.928-0.001-0.001-0.19-0.001-0.38-0-0.57z"></path>
<path fill="#030303" d="M2.975 13.454c0.541-0.531 1.308-0.764 2.049-0.815 0.847-0.055 1.748 0.052 2.472 0.526 0.705 0.446 1.066 1.348 0.849 2.156-0.093 0.372-0.334 0.681-0.565 0.979 1.035 0.872 1.182 2.588 0.305 3.618-0.524 0.625-1.339 0.916-2.13 1.004-0.866 0.092-1.789-0.005-2.55-0.456-0.6-0.349-1.049-0.955-1.184-1.638-0.214-0.922 0.134-1.912 0.839-2.532-0.224-0.267-0.45-0.546-0.56-0.881-0.21-0.675-0.033-1.461 0.474-1.96M4.879 14.097c-0.337 0.046-0.712 0.132-0.932 0.414-0.189 0.254-0.066 0.631 0.196 0.783 0.45 0.281 1.006 0.274 1.518 0.264 0.376-0.023 0.781-0.076 1.085-0.317 0.202-0.153 0.284-0.453 0.158-0.678-0.128-0.222-0.38-0.331-0.616-0.398-0.459-0.115-0.941-0.113-1.409-0.067M4.873 17.043c-0.456 0.062-0.956 0.259-1.165 0.7-0.296 0.612 0.060 1.438 0.722 1.617 0.648 0.172 1.354 0.191 1.999-0.001 0.743-0.243 1.058-1.293 0.509-1.872-0.541-0.517-1.367-0.517-2.065-0.443z"></path>
<path fill="#030303" d="M10.725 12.666c1.778-0.001 3.555-0 5.332 0-0.011 0.472-0.023 0.943-0.022 1.415-1.321 0.002-2.642-0.002-3.963 0.002-0.030 0.379-0.054 0.758-0.084 1.137 0.679-0.15 1.38-0.264 2.075-0.162 0.783 0.109 1.541 0.499 2.032 1.128 0.526 0.665 0.693 1.576 0.502 2.396-0.148 0.627-0.541 1.186-1.064 1.558-0.586 0.413-1.3 0.628-2.014 0.654-1.158 0.059-2.307-0.293-3.293-0.888 0.249-0.406 0.501-0.81 0.75-1.217 0.884 0.539 1.963 0.772 2.987 0.597 0.391-0.074 0.785-0.25 1.032-0.573 0.51-0.672 0.206-1.808-0.604-2.087-0.811-0.267-1.699-0.131-2.484 0.164-0.479-0.109-0.953-0.243-1.43-0.364 0.078-1.254 0.165-2.506 0.248-3.759z"></path>
</svg>
