<?xml version="1.0" encoding="utf-8"?>
<!-- Generated by IcoMoon.io -->
<!DOCTYPE svg PUBLIC "-//W3C//DTD SVG 1.1//EN" "http://www.w3.org/Graphics/SVG/1.1/DTD/svg11.dtd">
<svg version="1.1" xmlns="http://www.w3.org/2000/svg" xmlns:xlink="http://www.w3.org/1999/xlink" width="24" height="24" viewBox="0 0 24 24">
<path fill="#060606" opacity="0.96" d="M0 2.4h24v19.2h-24v-19.2M0.992 2.519c-0.527 0.107-0.926 0.617-0.902 1.155 0.002 5.576-0.004 11.152 0.003 16.728 0.002 0.615 0.573 1.133 1.182 1.107 6.988-0.001 13.977-0.001 20.966 0 0.351-0.007 0.729 0.047 1.050-0.133 0.39-0.192 0.633-0.619 0.621-1.051 0-5.55 0-11.101 0-16.651 0.034-0.642-0.546-1.214-1.185-1.184-6.988 0.001-13.977 0.001-20.965 0-0.256 0.006-0.516-0.022-0.769 0.029z"></path>
<path fill="#060606" opacity="0.96" d="M1.069 2.762c0.229-0.037 0.461-0.020 0.691-0.023 6.987 0.002 13.974-0.002 20.962 0.002 0.509-0.027 0.966 0.428 0.935 0.937 0.002 5.548 0.002 11.095 0 16.643 0.030 0.509-0.427 0.963-0.935 0.937-7.148 0.003-14.296 0.003-21.443 0-0.509 0.026-0.966-0.428-0.935-0.938-0.002-5.547-0.002-11.094 0-16.642-0.022-0.43 0.298-0.847 0.726-0.917M1.065 3.282c-0.184 0.079-0.237 0.29-0.222 0.473 0.003 5.523-0.002 11.046 0.002 16.568-0.027 0.242 0.19 0.459 0.432 0.432 7.149 0.002 14.298 0.002 21.446 0 0.242 0.027 0.458-0.19 0.432-0.433 0.002-5.548 0.002-11.097 0-16.645 0.026-0.242-0.19-0.461-0.432-0.433-7.042-0.003-14.083 0.002-21.124-0.002-0.178 0.008-0.365-0.023-0.534 0.040z"></path>
<path fill="#060606" opacity="0.96" d="M8.349 4.744c0.23-0.27 0.611-0.245 0.931-0.234 0.433-0.018 0.792 0.405 0.792 0.818-0.086 0.003-0.171 0.007-0.256 0.010-0.038-0.131-0.066-0.266-0.128-0.389-0.252-0.258-0.661-0.247-0.982-0.155-0.375 0.128-0.395 0.774-0.007 0.896 0.448 0.154 0.962 0.202 1.329 0.529 0.227 0.362 0.146 0.93-0.265 1.127-0.462 0.215-1.058 0.194-1.475-0.116-0.16-0.178-0.205-0.423-0.249-0.65 0.063-0.001 0.189-0.002 0.252-0.002 0.097 0.307 0.313 0.679 0.677 0.679 0.268 0.014 0.618 0.035 0.778-0.228 0.158-0.193 0.163-0.501-0.016-0.682-0.155-0.212-0.442-0.205-0.674-0.266-0.321-0.054-0.65-0.182-0.854-0.449-0.134-0.286-0.118-0.68 0.146-0.889z"></path>
<path fill="#060606" opacity="0.96" d="M11.558 4.539c0.318-0.045 0.662-0.070 0.967 0.054 0.238 0.17 0.414 0.433 0.426 0.731-0.086 0.004-0.17 0.009-0.255 0.014-0.059-0.154-0.051-0.369-0.214-0.457-0.255-0.182-0.6-0.17-0.889-0.088-0.342 0.098-0.394 0.595-0.163 0.824 0.442 0.224 0.983 0.227 1.388 0.533 0.394 0.372 0.187 1.165-0.362 1.271-0.431 0.121-0.928 0.083-1.296-0.189-0.15-0.193-0.205-0.436-0.23-0.673 0.284-0.046 0.302 0.3 0.461 0.454 0.179 0.279 0.544 0.267 0.834 0.241 0.262-0.014 0.47-0.242 0.525-0.484 0.051-0.238-0.122-0.442-0.31-0.561-0.428-0.154-0.943-0.134-1.28-0.484-0.349-0.391-0.096-1.065 0.398-1.186z"></path>
<path fill="#060606" opacity="0.96" d="M18.886 5.13c0.206-0.296 0.493-0.606 0.881-0.612 0.385-0.021 0.845-0.057 1.13 0.258 0.22 0.14 0.292 0.394 0.295 0.641-0.266-0.018-0.333-0.282-0.466-0.462-0.493-0.39-1.422-0.274-1.607 0.394-0.172 0.489-0.174 1.065 0.098 1.518 0.134 0.143 0.298 0.261 0.467 0.362 0.31 0.056 0.672 0.078 0.923-0.15 0.3-0.188 0.399-0.558 0.41-0.892-0.324-0.010-0.647-0.008-0.971-0.006-0.002-0.054-0.009-0.163-0.011-0.218 0.406-0.004 0.811-0.002 1.217-0.002-0.009 0.505 0.027 1.012-0.024 1.515-0.21-0.098-0.141-0.336-0.162-0.521-0.258 0.325-0.634 0.569-1.066 0.527-0.505 0.042-0.979-0.274-1.169-0.735-0.174-0.522-0.185-1.116 0.057-1.618z"></path>
<path fill="#060606" opacity="0.96" d="M2.509 4.546c0.518 0.018 1.058-0.071 1.56 0.081 0.602 0.229 0.586 1.2-0.009 1.429-0.397 0.136-0.833 0.11-1.248 0.122 0 0.407 0 0.815 0.001 1.222-0.102 0.005-0.204 0.010-0.306 0.014-0.002-0.955-0.006-1.911 0.002-2.867M2.826 4.78c-0.066 0.388-0.062 0.787 0.002 1.176 0.426-0.028 0.95 0.102 1.28-0.246 0.182-0.258 0.142-0.782-0.226-0.858-0.345-0.090-0.703-0.069-1.057-0.071z"></path>
<path fill="#060606" opacity="0.96" d="M6.010 4.552c0.146-0.062 0.331 0.034 0.354 0.194 0.16 0.537 0.423 1.033 0.591 1.566 0.115 0.374 0.31 0.717 0.405 1.098-0.094-0.002-0.188-0.003-0.282-0.005-0.096-0.3-0.185-0.603-0.32-0.888-0.442 0.019-0.886-0.019-1.327 0.022-0.091 0.287-0.176 0.576-0.273 0.861-0.101 0.004-0.201 0.007-0.301 0.010 0.108-0.4 0.325-0.758 0.446-1.153 0.054-0.173 0.113-0.344 0.193-0.506 0.194-0.39 0.265-0.835 0.514-1.199M6.1 4.842c-0.154 0.487-0.402 0.94-0.514 1.441 0.363 0.006 0.726 0.006 1.089-0.002-0.198-0.477-0.344-0.975-0.575-1.439z"></path>
<path fill="#060606" opacity="0.96" d="M14.046 4.575c0.097 0.002 0.194 0.002 0.29 0.004-0.002 0.942-0.001 1.883 0 2.826-0.097 0.001-0.194 0.002-0.29 0.002-0.001-0.944-0.001-1.888-0.001-2.832z"></path>
<path fill="#060606" opacity="0.96" d="M15.49 4.546c0.074-0.002 0.22-0.007 0.293-0.010 0.51 0.745 1.006 1.5 1.498 2.255 0.048 0.054 0.143 0.16 0.191 0.213 0.018-0.813-0.001-1.626 0.010-2.439 0.103 0.009 0.206 0.018 0.31 0.028-0.006 0.937-0.003 1.873-0.002 2.81-0.105 0.002-0.21 0.010-0.315 0.005-0.238-0.169-0.346-0.456-0.509-0.689-0.4-0.586-0.794-1.175-1.17-1.776-0.015 0.821-0.005 1.641-0.006 2.462-0.077 0.001-0.23 0.002-0.307 0.003 0.006-0.954-0.005-1.908 0.006-2.862z"></path>
<path fill="#060606" opacity="0.96" d="M6.466 10.266c0.099 0.001 0.198 0.002 0.298 0.004-0.002 0.879-0.004 1.759 0.001 2.638 0.508 0.006 1.017-0.006 1.525 0.009-0.009 0.055-0.027 0.166-0.036 0.222-0.579 0.032-1.16-0.006-1.739 0.018-0.029-0.143-0.057-0.287-0.053-0.434 0.005-0.819-0.003-1.638 0.005-2.458z"></path>
<path fill="#060606" opacity="0.96" d="M9.986 10.264c0.113 0.007 0.226 0.010 0.339 0.008 0.202 0.692 0.534 1.335 0.752 2.021 0.092 0.292 0.266 0.558 0.287 0.871-0.123 0.007-0.249-0.037-0.289-0.164-0.098-0.242-0.17-0.494-0.25-0.743-0.443-0.050-0.914-0.078-1.349 0.002-0.146 0.314-0.178 0.687-0.434 0.942-0.036-0.034-0.106-0.103-0.142-0.138 0.114-0.449 0.365-0.845 0.497-1.287 0.206-0.5 0.386-1.010 0.588-1.512M9.604 11.967c0.358 0.012 0.718 0.010 1.076 0.003-0.162-0.486-0.365-0.957-0.522-1.445-0.225 0.465-0.399 0.95-0.554 1.442z"></path>
<path fill="#060606" opacity="0.96" d="M12.209 10.268c0.108-0.002 0.215-0.003 0.323-0.005 0.45 0.715 0.944 1.402 1.389 2.12 0.072 0.117 0.18 0.206 0.277 0.303 0.013-0.809-0.002-1.618 0.007-2.427 0.102 0.006 0.202 0.014 0.303 0.021-0.005 0.954 0.005 1.906-0.005 2.859-0.102 0.006-0.204 0.014-0.306 0.021-0.602-0.783-1.081-1.655-1.67-2.45-0.037 0.81-0.002 1.622-0.020 2.434-0.098 0.002-0.197 0.005-0.294 0.007-0.011-0.961-0.002-1.922-0.005-2.883z"></path>
<path fill="#060606" opacity="0.96" d="M15.543 10.265c0.641-0.001 1.281-0.002 1.922 0.002 0.002 0.059 0.005 0.178 0.006 0.238-0.551 0.004-1.102 0-1.652 0.003 0.002 0.346-0.002 0.693 0.005 1.038 0.49 0.004 0.979-0.007 1.469 0.009-0.014 0.054-0.043 0.16-0.058 0.214-0.471 0.022-0.944 0.001-1.415 0.009 0.001 0.378-0.006 0.756 0.009 1.134 0.563 0.002 1.126-0.010 1.69 0.008-0.012 0.055-0.035 0.167-0.047 0.222-0.641 0.022-1.282 0.003-1.922 0.008-0.015-0.962-0.004-1.923-0.006-2.885z"></path>
<path fill="#060606" opacity="0.96" d="M7.721 15.951c0.082 0.001 0.166 0.002 0.248 0.002 0.011 0.405 0.006 0.81 0.006 1.216 0.567 0.010 1.134 0.007 1.702 0.002 0.042-0.417-0.007-0.837 0.043-1.254 0.055 0.016 0.165 0.049 0.22 0.065 0.036 0.954 0.012 1.911 0.011 2.866-0.063-0.013-0.19-0.038-0.253-0.050-0.018-0.461 0.029-0.925-0.041-1.384-0.561 0.021-1.128-0.047-1.684 0.041 0.004 0.461 0.006 0.921-0.002 1.382-0.084 0.002-0.167 0.004-0.251 0.006-0.007-0.964-0.009-1.928 0.001-2.892z"></path>
<path fill="#060606" opacity="0.96" d="M11.026 15.954c0.634-0.003 1.268-0.002 1.902 0 0.002 0.082 0.005 0.164 0.008 0.246-0.541 0.006-1.082 0.001-1.622 0.003-0.001 0.344-0.003 0.689 0.004 1.033 0.482-0.001 0.964 0.001 1.446-0.001 0.002 0.057 0.006 0.17 0.007 0.226-0.486 0.002-0.972 0.002-1.458 0.002 0 0.382 0 0.763 0 1.145 0.558-0.001 1.115-0.002 1.673 0.001-0.001 0.057-0.002 0.172-0.002 0.23-0.654 0.002-1.308 0.005-1.962-0.002 0.002-0.961-0.009-1.922 0.006-2.882z"></path>
<path fill="#060606" opacity="0.96" d="M17.018 15.954c0.595 0.042 1.25-0.136 1.785 0.206 0.322 0.126 0.414 0.494 0.491 0.797 0.081 0.53 0.049 1.123-0.299 1.558-0.554 0.474-1.315 0.295-1.98 0.324-0.001-0.962-0.006-1.922 0.003-2.884M17.249 18.599c0.438-0.004 0.9 0.066 1.318-0.095 0.692-0.491 0.706-1.654 0.058-2.19-0.435-0.169-0.916-0.095-1.372-0.106-0.010 0.797 0 1.594-0.005 2.391z"></path>
<path fill="#060606" opacity="0.96" d="M5.194 16.713c0.148-0.282 0.111-0.738 0.509-0.8 0.255 0.377 0.377 0.817 0.524 1.242 0.186 0.383 0.29 0.801 0.476 1.185 0.074 0.161 0.133 0.33 0.173 0.502-0.062-0.001-0.184-0.002-0.246-0.003-0.171-0.274-0.218-0.603-0.362-0.891-0.442-0.005-0.883-0.009-1.325 0.004-0.115 0.342-0.175 0.748-0.503 0.962-0.056-0.269 0.077-0.519 0.164-0.764 0.215-0.471 0.366-0.969 0.59-1.436M5.114 17.72c0.348 0 0.696 0.002 1.043-0.002-0.101-0.519-0.381-0.978-0.534-1.482-0.224 0.473-0.395 0.972-0.509 1.484z"></path>
<path fill="#060606" opacity="0.96" d="M14.77 15.954c0.073-0.001 0.218-0.002 0.29-0.002 0.264 0.594 0.444 1.221 0.717 1.811 0.114 0.364 0.286 0.707 0.384 1.075-0.086 0-0.172 0.001-0.258 0.002-0.096-0.309-0.225-0.605-0.361-0.898-0.426 0.002-0.851 0.001-1.277 0.002-0.106 0.305-0.237 0.6-0.365 0.896-0.056-0.001-0.168-0.004-0.223-0.005 0.135-0.603 0.442-1.144 0.64-1.725 0.17-0.378 0.298-0.772 0.452-1.157M14.914 16.235c-0.24 0.474-0.338 1.001-0.566 1.48 0.363 0.008 0.726 0.005 1.090 0.004-0.030-0.186-0.074-0.37-0.155-0.542-0.145-0.306-0.22-0.638-0.369-0.942z"></path>
<path fill="#fff" d="M0.992 2.519c0.253-0.050 0.513-0.022 0.769-0.029 6.988 0.001 13.977 0.001 20.965 0 0.639-0.030 1.219 0.542 1.185 1.184 0 5.55 0 11.101 0 16.651 0.012 0.432-0.231 0.859-0.621 1.051-0.321 0.18-0.698 0.126-1.050 0.133-6.989-0.001-13.978-0.001-20.966 0-0.609 0.026-1.179-0.492-1.182-1.107-0.007-5.576-0.002-11.152-0.003-16.728-0.024-0.538 0.375-1.048 0.902-1.155M1.069 2.762c-0.427 0.070-0.747 0.487-0.726 0.917-0.002 5.547-0.002 11.094 0 16.642-0.031 0.51 0.426 0.964 0.935 0.938 7.147 0.003 14.295 0.003 21.443 0 0.508 0.026 0.965-0.428 0.935-0.937 0.002-5.548 0.002-11.095 0-16.643 0.030-0.509-0.426-0.964-0.935-0.937-6.987-0.004-13.974 0-20.962-0.002-0.23 0.003-0.462-0.014-0.691 0.023z"></path>
<path fill="#fff" d="M1.065 3.282c0.17-0.063 0.357-0.032 0.534-0.040 7.041 0.004 14.082-0.001 21.124 0.002 0.242-0.028 0.458 0.19 0.432 0.433 0.002 5.548 0.002 11.097 0 16.645 0.026 0.242-0.19 0.46-0.432 0.433-7.149 0.002-14.298 0.002-21.446 0-0.242 0.027-0.459-0.19-0.432-0.432-0.004-5.522 0.001-11.045-0.002-16.568-0.014-0.182 0.038-0.394 0.222-0.473M8.349 4.744c-0.264 0.209-0.28 0.602-0.146 0.889 0.203 0.267 0.533 0.394 0.854 0.449 0.231 0.062 0.518 0.054 0.674 0.266 0.179 0.182 0.174 0.49 0.016 0.682-0.161 0.263-0.51 0.242-0.778 0.228-0.364 0-0.58-0.372-0.677-0.679-0.063 0-0.189 0.001-0.252 0.002 0.044 0.227 0.089 0.472 0.249 0.65 0.417 0.31 1.013 0.331 1.475 0.116 0.41-0.198 0.492-0.766 0.265-1.127-0.367-0.327-0.881-0.374-1.329-0.529-0.388-0.122-0.368-0.768 0.007-0.896 0.322-0.092 0.73-0.102 0.982 0.155 0.062 0.122 0.090 0.258 0.128 0.389 0.085-0.003 0.17-0.007 0.256-0.010 0-0.414-0.359-0.837-0.792-0.818-0.32-0.011-0.702-0.036-0.931 0.234M11.558 4.539c-0.494 0.122-0.747 0.795-0.398 1.186 0.337 0.35 0.852 0.33 1.28 0.484 0.187 0.119 0.361 0.323 0.31 0.561-0.055 0.242-0.263 0.47-0.525 0.484-0.29 0.026-0.655 0.038-0.834-0.241-0.159-0.154-0.177-0.499-0.461-0.454 0.025 0.237 0.080 0.48 0.23 0.673 0.368 0.272 0.865 0.31 1.296 0.189 0.55-0.106 0.757-0.899 0.362-1.271-0.405-0.306-0.946-0.309-1.388-0.533-0.23-0.229-0.179-0.726 0.163-0.824 0.289-0.082 0.634-0.094 0.889 0.088 0.163 0.088 0.155 0.302 0.214 0.457 0.085-0.005 0.17-0.010 0.255-0.014-0.012-0.298-0.188-0.562-0.426-0.731-0.305-0.125-0.649-0.099-0.967-0.054M18.886 5.13c-0.242 0.502-0.23 1.096-0.057 1.618 0.19 0.461 0.664 0.777 1.169 0.735 0.433 0.042 0.809-0.202 1.066-0.527 0.021 0.185-0.049 0.422 0.162 0.521 0.051-0.503 0.015-1.010 0.024-1.515-0.406 0-0.811-0.002-1.217 0.002 0.002 0.054 0.009 0.163 0.011 0.218 0.324-0.002 0.647-0.004 0.971 0.006-0.010 0.334-0.11 0.704-0.41 0.892-0.251 0.227-0.614 0.206-0.923 0.15-0.169-0.102-0.333-0.219-0.467-0.362-0.272-0.454-0.27-1.030-0.098-1.518 0.185-0.667 1.114-0.783 1.607-0.394 0.134 0.18 0.201 0.443 0.466 0.462-0.003-0.246-0.075-0.501-0.295-0.641-0.285-0.314-0.745-0.278-1.13-0.258-0.388 0.006-0.675 0.316-0.881 0.612M2.509 4.546c-0.009 0.956-0.004 1.912-0.002 2.867 0.102-0.004 0.204-0.009 0.306-0.014-0.001-0.407-0.001-0.815-0.001-1.222 0.415-0.011 0.851 0.014 1.248-0.122 0.594-0.229 0.61-1.2 0.009-1.429-0.502-0.152-1.042-0.062-1.56-0.081M6.010 4.552c-0.249 0.364-0.32 0.809-0.514 1.199-0.080 0.162-0.139 0.334-0.193 0.506-0.121 0.395-0.338 0.753-0.446 1.153 0.1-0.003 0.2-0.006 0.301-0.010 0.097-0.285 0.182-0.574 0.273-0.861 0.442-0.041 0.885-0.002 1.327-0.022 0.135 0.285 0.224 0.588 0.32 0.888 0.094 0.002 0.188 0.003 0.282 0.005-0.094-0.381-0.29-0.724-0.405-1.098-0.168-0.534-0.431-1.030-0.591-1.566-0.023-0.161-0.208-0.256-0.354-0.194M14.046 4.575c0 0.944 0 1.888 0.001 2.832 0.096-0.001 0.193-0.002 0.29-0.002-0.001-0.942-0.002-1.884 0-2.826-0.097-0.002-0.194-0.002-0.29-0.004M15.49 4.546c-0.010 0.954 0 1.908-0.006 2.862 0.077-0.001 0.23-0.002 0.307-0.003 0.001-0.821-0.010-1.641 0.006-2.462 0.375 0.601 0.77 1.19 1.17 1.776 0.162 0.233 0.271 0.52 0.509 0.689 0.105 0.005 0.21-0.002 0.315-0.005-0.002-0.937-0.004-1.873 0.002-2.81-0.103-0.010-0.206-0.019-0.31-0.028-0.011 0.813 0.008 1.626-0.010 2.439-0.048-0.053-0.143-0.159-0.191-0.213-0.493-0.755-0.989-1.51-1.498-2.255-0.073 0.002-0.219 0.007-0.293 0.010M6.466 10.266c-0.008 0.819 0 1.638-0.005 2.458-0.004 0.146 0.024 0.29 0.053 0.434 0.579-0.024 1.16 0.014 1.739-0.018 0.009-0.055 0.027-0.166 0.036-0.222-0.508-0.015-1.017-0.003-1.525-0.009-0.005-0.879-0.003-1.759-0.001-2.638-0.099-0.002-0.198-0.003-0.298-0.004M9.986 10.264c-0.202 0.502-0.382 1.012-0.588 1.512-0.132 0.442-0.383 0.838-0.497 1.287 0.035 0.034 0.106 0.103 0.142 0.138 0.256-0.255 0.288-0.628 0.434-0.942 0.434-0.079 0.906-0.051 1.349-0.002 0.079 0.249 0.151 0.501 0.25 0.743 0.040 0.127 0.166 0.171 0.289 0.164-0.021-0.314-0.195-0.579-0.287-0.871-0.218-0.686-0.55-1.329-0.752-2.021-0.114 0.002-0.226-0.001-0.339-0.008M12.209 10.268c0.002 0.962-0.006 1.922 0.005 2.883 0.098-0.002 0.196-0.005 0.294-0.007 0.018-0.811-0.017-1.623 0.020-2.434 0.589 0.794 1.067 1.666 1.67 2.45 0.102-0.007 0.203-0.014 0.306-0.021 0.010-0.953 0-1.906 0.005-2.859-0.101-0.007-0.202-0.014-0.303-0.021-0.009 0.809 0.006 1.618-0.007 2.427-0.097-0.098-0.205-0.186-0.277-0.303-0.445-0.718-0.939-1.405-1.389-2.12-0.108 0.002-0.215 0.003-0.323 0.005M15.543 10.265c0.002 0.962-0.010 1.923 0.006 2.885 0.641-0.005 1.282 0.014 1.922-0.008 0.012-0.055 0.035-0.167 0.047-0.222-0.563-0.018-1.126-0.006-1.69-0.008-0.014-0.378-0.008-0.755-0.009-1.134 0.471-0.008 0.944 0.013 1.415-0.009 0.014-0.054 0.043-0.16 0.058-0.214-0.49-0.016-0.979-0.005-1.469-0.009-0.006-0.346-0.003-0.692-0.005-1.038 0.55-0.003 1.101 0.001 1.652-0.003-0.002-0.060-0.005-0.179-0.006-0.238-0.641-0.004-1.281-0.002-1.922-0.002M7.721 15.951c-0.010 0.964-0.008 1.928-0.001 2.892 0.084-0.002 0.167-0.005 0.251-0.006 0.007-0.461 0.006-0.921 0.002-1.382 0.556-0.088 1.123-0.020 1.684-0.041 0.070 0.459 0.023 0.923 0.041 1.384 0.063 0.013 0.19 0.038 0.253 0.050 0.001-0.955 0.025-1.913-0.011-2.866-0.055-0.016-0.165-0.049-0.22-0.065-0.050 0.417-0.001 0.837-0.043 1.254-0.567 0.006-1.134 0.009-1.702-0.002 0.001-0.406 0.006-0.811-0.006-1.216-0.082-0.001-0.166-0.002-0.248-0.002M11.026 15.954c-0.014 0.961-0.004 1.922-0.006 2.882 0.654 0.006 1.308 0.003 1.962 0.002 0.001-0.058 0.002-0.173 0.002-0.23-0.558-0.002-1.115-0.002-1.673-0.001 0-0.382 0-0.763 0-1.145 0.486 0.001 0.972 0.001 1.458-0.002-0.002-0.056-0.006-0.169-0.007-0.226-0.482 0.002-0.964 0-1.446 0.001-0.007-0.344-0.005-0.689-0.004-1.033 0.541-0.002 1.082 0.002 1.622-0.003-0.003-0.082-0.006-0.164-0.008-0.246-0.634-0.002-1.268-0.003-1.902 0M17.018 15.954c-0.009 0.962-0.004 1.922-0.003 2.884 0.665-0.029 1.426 0.15 1.98-0.324 0.348-0.434 0.38-1.028 0.299-1.558-0.077-0.302-0.169-0.67-0.491-0.797-0.535-0.342-1.19-0.163-1.785-0.206M5.194 16.713c-0.224 0.467-0.374 0.965-0.59 1.436-0.087 0.245-0.22 0.495-0.164 0.764 0.328-0.214 0.388-0.619 0.503-0.962 0.442-0.013 0.883-0.009 1.325-0.004 0.143 0.288 0.19 0.618 0.362 0.891 0.062 0.001 0.184 0.002 0.246 0.003-0.040-0.173-0.098-0.342-0.173-0.502-0.186-0.384-0.29-0.802-0.476-1.185-0.147-0.425-0.269-0.865-0.524-1.242-0.398 0.062-0.361 0.518-0.509 0.8M14.77 15.954c-0.154 0.385-0.282 0.778-0.452 1.157-0.198 0.581-0.505 1.122-0.64 1.725 0.055 0.001 0.167 0.004 0.223 0.005 0.128-0.296 0.258-0.591 0.365-0.896 0.426-0.001 0.851 0.001 1.277-0.002 0.136 0.293 0.265 0.589 0.361 0.898 0.086-0.002 0.172-0.002 0.258-0.002-0.098-0.368-0.27-0.711-0.384-1.075-0.273-0.59-0.453-1.217-0.717-1.811-0.072 0.001-0.218 0.002-0.29 0.002z"></path>
<path fill="#fff" d="M2.826 4.78c0.354 0.002 0.712-0.019 1.057 0.071 0.367 0.077 0.408 0.6 0.226 0.858-0.33 0.348-0.854 0.218-1.28 0.246-0.064-0.389-0.068-0.788-0.002-1.176z"></path>
<path fill="#fff" d="M6.1 4.842c0.231 0.464 0.377 0.962 0.575 1.439-0.363 0.007-0.726 0.007-1.089 0.002 0.112-0.501 0.36-0.954 0.514-1.441z"></path>
<path fill="#fff" d="M9.604 11.967c0.155-0.492 0.33-0.977 0.554-1.442 0.157 0.488 0.36 0.959 0.522 1.445-0.358 0.006-0.718 0.009-1.076-0.003z"></path>
<path fill="#fff" d="M5.114 17.72c0.114-0.512 0.285-1.011 0.509-1.484 0.154 0.503 0.434 0.962 0.534 1.482-0.347 0.004-0.695 0.002-1.043 0.002z"></path>
<path fill="#fff" d="M14.914 16.235c0.149 0.304 0.224 0.637 0.369 0.942 0.081 0.171 0.126 0.355 0.155 0.542-0.363 0.001-0.726 0.004-1.090-0.004 0.227-0.479 0.326-1.006 0.566-1.48z"></path>
<path fill="#fff" d="M17.249 18.599c0.005-0.798-0.005-1.594 0.005-2.391 0.456 0.010 0.937-0.063 1.372 0.106 0.648 0.537 0.634 1.699-0.058 2.19-0.418 0.162-0.88 0.091-1.318 0.095z"></path>
</svg>
