<svg xmlns="http://www.w3.org/2000/svg" width="24" height="24">
    <path fill="#bc4939" d="M10.583 0h2.834c3.3.479 6.48 2.217 8.378 5.001 1.216 1.629 1.876 3.592 2.204 5.581v2.841c-.477 3.269-2.188 6.417-4.926 8.32-1.65 1.242-3.638 1.926-5.66 2.258h-2.83c-3.27-.476-6.422-2.184-8.325-4.926C1.014 17.428.33 15.438-.001 13.417v-2.834c.333-2.02 1.015-4.009 2.258-5.657C4.162 2.186 7.312.476 10.582.002zM3.344 7.152a9.818 9.818 0 0 0-1.032 6.667c.804 4.18 4.526 7.723 8.819 8.019.005-.78 0-1.561.008-2.34.611.364 1.225.721 1.849 1.064-.023-.654.121-1.345-.061-1.976-.564-.418-1.224-.683-1.83-1.035.066-2.272.075-4.554-.003-6.825a36.586 36.586 0 0 0 2.013-1.209c.015 1.208-.032 2.415.028 3.622-.335.417-.785.757-1.016 1.247-.086.705-.011 1.418-.016 2.127.344-.385.674-.783 1.003-1.182.009 2.169-.009 4.338 0 6.507 1.778-.14 3.457-.893 4.875-1.95 3.05-2.26 4.551-6.323 3.79-10.032-.738-4.163-4.439-7.583-8.659-7.935.001.815-.024 1.632.023 2.446-.328.42-.791.752-1.012 1.244-.083.682-.013 1.373-.019 2.058.344-.363.67-.74.997-1.119-.004.414.013.829.05 1.242-.674.378-1.343.762-2.014 1.147.003-2.337.011-4.673-.005-7.008-3.265.249-6.253 2.362-7.787 5.223z"/>
    <path fill="#fff" d="M3.344 7.152c1.534-2.861 4.522-4.974 7.787-5.223.017 2.335.008 4.672.005 7.008-1.004.575-2.025 1.124-3.02 1.716-.503.277-.817.83-.799 1.404-.001 1.486-.011 2.974-.001 4.46-.018.443.23.853.613 1.068 1.065.644 2.141 1.272 3.209 1.912-.008.78-.003 1.561-.008 2.34-4.293-.296-8.015-3.839-8.819-8.019a9.824 9.824 0 0 1 1.032-6.667zM13.111 1.919c4.22.352 7.921 3.773 8.659 7.935.761 3.709-.74 7.771-3.79 10.032-1.418 1.058-3.097 1.811-4.875 1.95-.009-2.169.009-4.338 0-6.507l.31-.371c.027 1.216.009 2.433.01 3.65.46.001.919.004 1.379.004 0-1.224-.01-2.448.018-3.672.467.504.912 1.029 1.374 1.538-.102-.884.342-1.992-.414-2.674-.541-.61-1.055-1.242-1.58-1.864-.366.391-.715.796-1.068 1.199-.06-1.206-.013-2.414-.028-3.622.546-.4 1.332-.577 1.643-1.224.136-.716.024-1.455.074-2.18.471.508.935 1.022 1.38 1.553-.104-.872.326-1.956-.408-2.635-.543-.611-1.059-1.246-1.583-1.872-.371.392-.729.796-1.078 1.206-.047-.814-.022-1.63-.023-2.446z"/>
    <path fill="#fff" d="M13.1 6.549c.13-.149.258-.296.39-.441.013.495.016.992.01 1.487l-.35.196a12.88 12.88 0 0 1-.05-1.242zM8.785 12.946c-.136-1.33 1.479-1.585 2.309-2.221.077 2.272.069 4.554.003 6.825-.754-.513-1.844-.738-2.245-1.629-.143-.982-.028-1.985-.066-2.975z"/>
    <path fill="#1e2229" d="M13.134 4.364c.349-.41.707-.814 1.078-1.206.524.626 1.04 1.261 1.583 1.872.734.679.303 1.763.408 2.635a42.365 42.365 0 0 0-1.38-1.553c-.05.725.062 1.464-.074 2.18-.311.648-1.097.824-1.643 1.224-.66.42-1.326.832-2.013 1.209-.829.636-2.444.891-2.309 2.221.038.99-.077 1.994.066 2.975.401.891 1.491 1.116 2.245 1.629.606.352 1.266.617 1.83 1.035.182.631.038 1.322.061 1.976-.623-.343-1.238-.7-1.849-1.064-1.068-.64-2.144-1.269-3.209-1.912a1.182 1.182 0 0 1-.613-1.068c-.01-1.486 0-2.974.001-4.46a1.562 1.562 0 0 1 .799-1.404c.994-.592 2.015-1.14 3.02-1.716a248.928 248.928 0 0 1 2.364-1.343c.006-.495.003-.992-.01-1.487-.132.145-.26.292-.39.441-.326.378-.653.756-.997 1.119.006-.686-.063-1.377.019-2.058.221-.493.684-.824 1.012-1.244z"/>
    <path fill="#1d2126" d="M13.134 13.138c.353-.403.702-.808 1.068-1.199.524.622 1.039 1.255 1.58 1.864.756.682.312 1.79.414 2.674-.462-.509-.907-1.034-1.374-1.538-.028 1.224-.018 2.448-.018 3.672-.46 0-.919-.003-1.379-.004-.001-1.216.016-2.433-.01-3.65-.104.123-.207.246-.31.371-.329.399-.659.797-1.003 1.182.005-.709-.07-1.422.017-2.127.231-.49.681-.83 1.016-1.247z"/>
</svg>
