<!-- Generated by IcoMoon.io -->
<svg version="1.1" xmlns="http://www.w3.org/2000/svg" width="24" height="24" viewBox="0 0 24 24">
<title>regulatory--no-pedestrians-or-bicycles--g2</title>
<path fill="#e23828" d="M10.919 0h2.12c0.809 0.155 1.628 0.263 2.417 0.509 3.586 1.042 6.576 3.884 7.829 7.398 0.374 0.966 0.53 1.993 0.715 3.007v2.132c-0.18 1.091-0.368 2.189-0.779 3.222-1.61 4.366-5.953 7.522-10.6 7.732h-1.231c-4.681-0.206-9.053-3.408-10.639-7.819-0.4-1.025-0.575-2.113-0.751-3.193v-1.94c0.169-1.092 0.344-2.194 0.752-3.228 1.268-3.473 4.24-6.275 7.792-7.309 0.775-0.244 1.583-0.344 2.375-0.51M6.179 5.13c4.229 4.236 8.462 8.467 12.695 12.701 1.356-1.619 2.158-3.712 2.119-5.831 0.054-3.026-1.594-5.998-4.156-7.597-3.215-2.106-7.762-1.802-10.658 0.727M3.132 13.554c0.403 2.375 1.818 4.548 3.811 5.898 3.222 2.263 7.924 2.012 10.885-0.583-4.23-4.232-8.46-8.466-12.694-12.696-1.724 2.004-2.46 4.782-2.003 7.381z"></path>
<path fill="#fff" d="M6.179 5.13c2.897-2.53 7.444-2.833 10.658-0.727 2.562 1.6 4.21 4.571 4.156 7.597 0.038 2.119-0.763 4.212-2.119 5.831-4.232-4.234-8.466-8.465-12.695-12.701M15.047 4.252c-0.426 0.128-0.599 0.718-0.294 1.049 0.319 0.422 1.084 0.236 1.16-0.292 0.116-0.482-0.406-0.93-0.866-0.757M14.546 7.336c-0.371 0.444-0.743 0.888-1.116 1.331 0.145 0.12 0.29 0.24 0.438 0.358 0.228-0.274 0.456-0.55 0.688-0.821-0.041 1.388-0.636 2.692-0.925 4.042 0.288 0.076 0.576 0.155 0.865 0.228 0.258-0.97 0.524-1.936 0.775-2.908-0.241 1.13 0.61 1.97 1.090 2.896 0.254-0.155 0.51-0.31 0.766-0.466-0.31-0.575-0.709-1.105-0.973-1.702-0.029-0.992-0.012-1.986-0.004-2.98 0.353 0.553 0.151 1.235 0.202 1.849 0.184 0 0.368 0.001 0.553 0.002-0.062-0.742 0.212-1.596-0.331-2.213-0.356-0.47-0.587-1.349-1.328-1.235-0.632 0.24-0.739 1.025-0.698 1.618z"></path>
<path fill="#fff" d="M3.132 13.554c-0.457-2.599 0.278-5.377 2.003-7.381 4.234 4.23 8.464 8.464 12.694 12.696-2.962 2.596-7.663 2.846-10.885 0.583-1.993-1.35-3.408-3.523-3.811-5.898M7.974 12.756c-0.271 0.671-0.431 1.384-0.655 2.072-0.893-0.145-1.87 0.449-2.015 1.368-0.221 0.954 0.545 1.993 1.531 2.023 0.858 0.103 1.697-0.566 1.817-1.416 0.15-0.737-0.298-1.453-0.913-1.828 0.018-0.088 0.054-0.263 0.072-0.352 0.629 0.736 1.356 1.408 1.838 2.249 0.252 0.122 0.494-0.072 0.722-0.157 0.16 0.778 0.788 1.499 1.625 1.506 1.034 0.127 1.973-0.893 1.798-1.91-0.088-1.026-1.213-1.715-2.182-1.434-0.187-0.493-0.632-0.964-0.475-1.522 0.16-0.034 0.32-0.068 0.48-0.104-0.032-0.626-0.832-0.3-1.242-0.354-0.022 0.12-0.043 0.241-0.062 0.361 0.102 0.025 0.304 0.073 0.404 0.097-0.112 0.331-0.211 0.666-0.307 1.002-0.754-0.245-1.507-0.487-2.264-0.72 0.046-0.166 0.091-0.331 0.137-0.497 0.212-0.010 0.426-0.020 0.64-0.034 0.001-0.14 0.001-0.281 0.001-0.421-0.306 0.026-0.695-0.118-0.949 0.070z"></path>
<path fill="#fff" d="M7.898 14.038c0.818 0.188 1.606 0.486 2.407 0.734-0.181 0.443-0.222 1.086-0.511 1.393-0.695-0.618-1.289-1.405-1.896-2.128z"></path>
<path fill="#fff" d="M10.238 16.373c0.179-0.708 0.416-1.4 0.626-2.1 0.122 0.264 0.245 0.528 0.367 0.791-0.541 0.278-0.594 0.954-0.994 1.309z"></path>
<path fill="#fff" d="M5.662 16.675c-0.138-0.874 0.72-1.602 1.562-1.478-0.008 0.54-0.637 1.135-0.262 1.595 0.39-0.389 0.443-0.964 0.636-1.454 0.821 0.443 0.94 1.726 0.154 2.26-0.76 0.607-2.041 0.060-2.090-0.922z"></path>
<path fill="#fff" d="M11.742 15.232c1.142-0.338 2.176 1.087 1.456 2.047-0.618 0.99-2.26 0.588-2.42-0.55 0.508-0.007 1.016 0.004 1.524-0.022-0.046-0.536-0.39-0.977-0.559-1.476z"></path>
<path fill="#fff" d="M10.784 16.302c0.115-0.347 0.313-0.658 0.589-0.899 0.148 0.301 0.289 0.605 0.431 0.908-0.341 0.002-0.68 0.001-1.020-0.010z"></path>
<path fill="#000" d="M15.047 4.252c0.461-0.173 0.983 0.275 0.866 0.757-0.077 0.528-0.841 0.714-1.16 0.292-0.305-0.331-0.132-0.92 0.294-1.049z"></path>
<path fill="#000" d="M14.546 7.336c-0.041-0.593 0.066-1.378 0.698-1.618 0.742-0.114 0.972 0.764 1.328 1.235 0.544 0.617 0.269 1.471 0.331 2.213-0.185-0.001-0.37-0.002-0.553-0.002-0.050-0.614 0.151-1.296-0.202-1.849-0.008 0.994-0.025 1.987 0.004 2.98 0.264 0.596 0.664 1.127 0.973 1.702-0.256 0.156-0.511 0.311-0.766 0.466-0.48-0.925-1.331-1.765-1.090-2.896-0.251 0.972-0.517 1.938-0.775 2.908-0.289-0.073-0.577-0.152-0.865-0.228 0.289-1.35 0.884-2.653 0.925-4.042-0.232 0.271-0.46 0.547-0.688 0.821-0.148-0.118-0.293-0.238-0.438-0.358 0.373-0.443 0.745-0.887 1.116-1.331z"></path>
<path fill="#000" d="M7.974 12.756c0.254-0.187 0.643-0.043 0.949-0.070 0 0.14 0 0.281-0.001 0.421-0.214 0.013-0.427 0.024-0.64 0.034-0.046 0.166-0.091 0.331-0.137 0.497 0.757 0.233 1.511 0.475 2.264 0.72 0.096-0.336 0.196-0.671 0.307-1.002-0.101-0.024-0.302-0.072-0.404-0.097 0.019-0.12 0.041-0.241 0.062-0.361 0.41 0.054 1.21-0.272 1.242 0.354-0.16 0.036-0.32 0.071-0.48 0.104-0.157 0.558 0.288 1.028 0.475 1.522 0.968-0.281 2.094 0.408 2.182 1.434 0.175 1.018-0.763 2.038-1.798 1.91-0.836-0.007-1.465-0.728-1.625-1.506-0.228 0.085-0.47 0.28-0.722 0.157-0.482-0.841-1.21-1.513-1.838-2.249-0.018 0.089-0.054 0.264-0.072 0.352 0.616 0.374 1.063 1.091 0.913 1.828-0.12 0.85-0.959 1.519-1.817 1.416-0.986-0.030-1.752-1.069-1.531-2.023 0.145-0.919 1.122-1.513 2.015-1.368 0.224-0.689 0.384-1.402 0.655-2.072M7.898 14.038c0.607 0.722 1.201 1.51 1.896 2.128 0.289-0.307 0.33-0.95 0.511-1.393-0.802-0.248-1.589-0.546-2.407-0.734M10.238 16.373c0.4-0.355 0.452-1.031 0.994-1.309-0.122-0.263-0.245-0.527-0.367-0.791-0.21 0.7-0.448 1.392-0.626 2.1M5.662 16.675c0.049 0.982 1.331 1.529 2.090 0.922 0.786-0.534 0.667-1.817-0.154-2.26-0.193 0.491-0.246 1.066-0.636 1.454-0.376-0.46 0.253-1.055 0.262-1.595-0.842-0.124-1.7 0.605-1.562 1.478M11.742 15.232c0.169 0.499 0.514 0.94 0.559 1.476-0.508 0.025-1.016 0.014-1.524 0.022 0.161 1.138 1.802 1.54 2.42 0.55 0.72-0.96-0.313-2.386-1.456-2.047M10.784 16.302c0.34 0.011 0.679 0.012 1.020 0.010-0.142-0.304-0.283-0.607-0.431-0.908-0.276 0.241-0.474 0.552-0.589 0.899z"></path>
</svg>
