<!-- Generated by IcoMoon.io -->
<svg version="1.1" xmlns="http://www.w3.org/2000/svg" width="24" height="24" viewBox="0 0 24 24">
<title>regulatory--no-horn--g2</title>
<path fill="#fff" d="M10.894 0h2.115c3.512 0.322 6.849 2.214 8.852 5.129 1.219 1.717 1.911 3.765 2.139 5.85v2.029c-0.321 3.513-2.214 6.85-5.129 8.853-1.717 1.219-3.765 1.911-5.85 2.139h-2.029c-3.512-0.321-6.85-2.214-8.853-5.129-1.219-1.717-1.911-3.765-2.139-5.85v-2.029c0.216-1.992 0.85-3.95 1.973-5.619 1.966-3.024 5.348-5 8.921-5.374M10.853 0.248c-2.45 0.239-4.813 1.28-6.643 2.929-2.259 2.010-3.699 4.916-3.89 7.939-0.267 3.427 1.082 6.934 3.575 9.299 2.595 2.538 6.414 3.745 9.997 3.151 3.289-0.505 6.307-2.494 8.083-5.307 1.853-2.868 2.336-6.561 1.308-9.815-0.915-2.97-3.065-5.533-5.832-6.949-2.013-1.052-4.341-1.479-6.597-1.247z"></path>
<path fill="#fff" d="M6.457 5.873c1.555-1.44 3.679-2.232 5.797-2.181 2.894 0.050 5.684 1.749 7.044 4.306 1.497 2.674 1.298 6.169-0.473 8.666-1.586-1.382-3.166-2.772-4.761-4.145 0.966-0.027 1.971-0.068 2.884 0.308 0.212 0.095 0.327 0.31 0.457 0.489 0.272 0.004 0.545 0.005 0.817 0.003 0.002-0.968 0.002-1.936 0.001-2.905-0.273 0-0.546 0-0.819 0.002-0.059 0.247-0.119 0.529-0.384 0.633-1.415 0.575-2.97 0.382-4.438 0.169-2.041-1.783-4.089-3.558-6.126-5.346z"></path>
<path fill="#fff" d="M5.283 7.223c0.955 0.848 1.955 1.65 2.866 2.546-0.488-0.183-0.882-0.522-1.248-0.882-0.006 2.051-0.005 4.103 0 6.155 1.279-1.276 3.109-1.736 4.795-2.221 1.974 1.739 3.968 3.455 5.933 5.202-2.4 2.284-6.229 2.83-9.187 1.349-1.98-0.959-3.549-2.739-4.226-4.835-0.823-2.427-0.413-5.223 1.068-7.314z"></path>
<path fill="#ff0303" d="M10.853 0.248c2.257-0.232 4.585 0.196 6.597 1.247 2.767 1.415 4.917 3.979 5.832 6.949 1.028 3.254 0.545 6.948-1.308 9.815-1.776 2.813-4.794 4.802-8.083 5.307-3.582 0.594-7.402-0.613-9.997-3.151-2.494-2.365-3.842-5.872-3.575-9.299 0.192-3.022 1.632-5.929 3.89-7.939 1.829-1.649 4.192-2.69 6.643-2.929M6.457 5.873c2.036 1.788 4.085 3.563 6.126 5.346 0.469 0.462 1.003 0.85 1.482 1.3 1.595 1.373 3.175 2.763 4.761 4.145 1.771-2.497 1.969-5.992 0.473-8.666-1.361-2.557-4.15-4.255-7.044-4.306-2.118-0.051-4.242 0.741-5.797 2.181M5.283 7.223c-1.481 2.091-1.891 4.888-1.068 7.314 0.678 2.096 2.247 3.876 4.226 4.835 2.958 1.48 6.787 0.934 9.187-1.349-1.965-1.747-3.959-3.463-5.933-5.202-1.175-1.024-2.315-2.101-3.546-3.052-0.911-0.896-1.911-1.699-2.866-2.546z"></path>
<path fill="#030303" d="M6.9 8.887c0.367 0.359 0.76 0.698 1.248 0.882 1.232 0.951 2.371 2.028 3.546 3.052-1.686 0.485-3.516 0.945-4.795 2.221-0.005-2.052-0.006-4.104 0-6.154z"></path>
<path fill="#030303" d="M17.406 10.417c0.273-0.002 0.546-0.002 0.819-0.002 0.001 0.968 0.001 1.936-0.001 2.905-0.272 0.002-0.545 0.001-0.817-0.003-0.131-0.179-0.245-0.394-0.457-0.489-0.913-0.376-1.918-0.335-2.884-0.308-0.479-0.45-1.014-0.837-1.482-1.3 1.469 0.213 3.023 0.406 4.438-0.169 0.265-0.104 0.325-0.386 0.384-0.633z"></path>
</svg>
