<!-- Generated by IcoMoon.io -->
<svg version="1.1" xmlns="http://www.w3.org/2000/svg" width="24" height="24" viewBox="0 0 24 24">
<title>regulatory--night-speed-limit-5--g1</title>
<path fill="#fff" d="M0.915 0h22.17c0.448 0.1 0.816 0.468 0.916 0.916v22.165c-0.099 0.45-0.468 0.817-0.916 0.919h-22.167c-0.449-0.1-0.816-0.467-0.917-0.915v-22.17c0.1-0.447 0.467-0.814 0.915-0.915M1.566 0.587c-0.558 0.060-1.006 0.584-0.99 1.143-0.001 6.846-0.001 13.693 0 20.539-0.021 0.62 0.535 1.176 1.155 1.155 6.847 0.001 13.693 0.001 20.539 0 0.621 0.021 1.176-0.534 1.155-1.155 0.001-6.846 0.001-13.693 0-20.539 0.021-0.621-0.534-1.177-1.155-1.155-6.735-0.001-13.471-0-20.207-0-0.166 0.001-0.332-0.008-0.497 0.012z"></path>
<path fill="#fff" d="M10.478 4.005c0.514-0.678 1.703-0.593 2.082 0.185-0.167 0.098-0.335 0.196-0.504 0.291-0.201-0.404-0.788-0.525-1.099-0.181-0.375 0.476-0.378 1.236 0 1.71 0.331 0.393 1.108 0.193 1.073-0.368-0.18-0.002-0.361-0-0.541-0.004-0.002-0.174-0.001-0.349-0.001-0.524 0.372-0.001 0.743 0.003 1.116-0.002-0.002 0.413 0.037 0.869-0.228 1.22-0.473 0.645-1.583 0.549-1.994-0.118-0.405-0.662-0.386-1.588 0.095-2.208z"></path>
<path fill="#fff" d="M4.662 3.614c0.181 0.001 0.362 0.001 0.543 0 0.439 0.683 0.891 1.359 1.318 2.049-0.006-0.683 0.002-1.367-0.004-2.050 0.186 0.003 0.372 0.003 0.558-0-0.005 1.035-0.002 2.071-0.001 3.106-0.168 0-0.336 0-0.503 0-0.452-0.701-0.925-1.389-1.358-2.102 0.016 0.7 0.004 1.401 0.007 2.101-0.186 0.001-0.372 0.001-0.557 0-0.003-1.035 0-2.070-0.001-3.105z"></path>
<path fill="#fff" d="M8.351 3.615c0.191 0 0.382 0 0.572 0-0.002 1.035 0 2.069-0.001 3.104-0.19 0.001-0.38 0.002-0.57-0.002-0.002-1.034-0.001-2.068-0-3.101z"></path>
<path fill="#fff" d="M13.74 3.612c0.188 0.004 0.375 0.003 0.563 0 0.003 0.413-0.001 0.827 0.001 1.24 0.44-0.002 0.879 0.006 1.319-0.005-0.014-0.411 0.016-0.824-0.017-1.235 0.187 0.002 0.373 0.001 0.56 0.001 0 1.034 0.001 2.068-0 3.102-0.183 0.004-0.366 0.002-0.548 0.003 0.009-0.44 0-0.879 0.006-1.319-0.439-0.030-0.879-0.007-1.318-0.013-0.002 0.443 0.001 0.887-0.001 1.331-0.187 0.001-0.374 0.001-0.561 0 0-1.035 0.004-2.071-0.002-3.106z"></path>
<path fill="#fff" d="M17.215 3.598c0.767-0.002 1.534-0.001 2.301 0 0.001 0.18 0.001 0.361 0 0.542-0.288 0.002-0.577-0-0.865 0.001-0.001 0.859 0 1.718-0.001 2.576-0.188 0.002-0.375 0.001-0.563 0-0.002-0.859 0-1.718-0.001-2.577-0.291-0.001-0.581 0.001-0.871-0.001-0.002-0.18-0.002-0.361 0-0.542z"></path>
<path fill="#fff" d="M8.873 9.563c2.051-0 4.102-0.002 6.153 0.001 0.001 0.605 0.004 1.21-0.001 1.815-1.465 0.006-2.93 0-4.395 0.003-0.070 0.747-0.102 1.496-0.172 2.242 1.393-0.745 3.346-0.566 4.41 0.665 0.973 1.163 1.078 2.926 0.394 4.256-0.383 0.732-1.043 1.3-1.802 1.615-0.9 0.382-1.906 0.425-2.865 0.295-0.848-0.118-1.696-0.411-2.359-0.968 0.356-0.495 0.712-0.99 1.070-1.484 0.685 0.485 1.522 0.752 2.364 0.708 0.814 0.005 1.686-0.423 1.98-1.22 0.281-0.76 0.165-1.798-0.579-2.252-0.858-0.48-2.029-0.252-2.668 0.492-0.618-0.261-1.237-0.52-1.853-0.782 0.107-1.796 0.215-3.591 0.323-5.387z"></path>
<path fill="#000" d="M1.566 0.587c0.165-0.021 0.331-0.011 0.497-0.012 6.735 0 13.471-0.001 20.207 0 0.621-0.022 1.176 0.534 1.155 1.155 0.001 6.846 0.001 13.693 0 20.539 0.020 0.621-0.535 1.176-1.155 1.155-6.846 0.001-13.693 0.001-20.539 0-0.62 0.021-1.176-0.534-1.155-1.155-0.001-6.847-0.001-13.693 0-20.539-0.016-0.559 0.432-1.084 0.99-1.143M10.478 4.005c-0.481 0.62-0.501 1.545-0.095 2.208 0.411 0.668 1.521 0.763 1.994 0.118 0.264-0.351 0.225-0.806 0.228-1.22-0.372 0.005-0.744 0.001-1.116 0.002-0 0.175-0.001 0.35 0.001 0.524 0.18 0.003 0.36 0.002 0.541 0.004 0.035 0.561-0.742 0.761-1.073 0.368-0.378-0.475-0.375-1.235-0-1.71 0.311-0.345 0.898-0.223 1.099 0.181 0.169-0.094 0.337-0.193 0.504-0.291-0.379-0.777-1.568-0.863-2.082-0.185M4.662 3.614c0.002 1.035-0.001 2.070 0.001 3.105 0.186 0.001 0.372 0.001 0.557 0-0.003-0.7 0.009-1.401-0.007-2.101 0.433 0.713 0.906 1.401 1.357 2.102 0.168 0 0.336 0 0.503 0-0-1.035-0.004-2.071 0.001-3.106-0.186 0.004-0.372 0.003-0.558 0 0.006 0.683-0.001 1.367 0.004 2.050-0.427-0.69-0.878-1.366-1.318-2.049-0.181 0.001-0.362 0.001-0.543 0M8.351 3.615c-0 1.034-0.001 2.068 0 3.101 0.19 0.005 0.38 0.003 0.57 0.002 0.002-1.035-0-2.069 0.001-3.104-0.191 0-0.382 0-0.572 0M13.74 3.612c0.006 1.035 0.002 2.071 0.002 3.106 0.187 0 0.374 0 0.561-0 0.002-0.444-0-0.887 0.001-1.331 0.439 0.006 0.879-0.016 1.318 0.013-0.006 0.44 0.004 0.879-0.006 1.319 0.183-0.001 0.366 0 0.548-0.003 0.002-1.034 0.001-2.068 0-3.102-0.187 0-0.373 0.001-0.56-0.001 0.034 0.411 0.003 0.824 0.017 1.235-0.44 0.011-0.879 0.003-1.319 0.005-0.002-0.413 0.001-0.827-0.001-1.24-0.188 0.003-0.375 0.003-0.563-0M17.215 3.598c-0.002 0.181-0.002 0.361-0 0.542 0.291 0.003 0.581 0 0.871 0.001 0.001 0.859-0.001 1.718 0.001 2.577 0.188 0.001 0.375 0.001 0.563-0 0.001-0.859-0-1.718 0.001-2.576 0.288-0.002 0.577 0 0.865-0.001 0.001-0.181 0.001-0.362 0-0.542-0.767-0.001-1.534-0.002-2.301 0M8.873 9.563c-0.108 1.796-0.216 3.591-0.323 5.387 0.617 0.262 1.236 0.521 1.853 0.782 0.639-0.743 1.81-0.972 2.668-0.492 0.744 0.455 0.86 1.492 0.579 2.252-0.294 0.797-1.166 1.225-1.98 1.22-0.842 0.044-1.679-0.224-2.364-0.708-0.358 0.494-0.714 0.988-1.070 1.484 0.662 0.558 1.51 0.85 2.359 0.968 0.959 0.13 1.965 0.087 2.865-0.295 0.759-0.315 1.42-0.884 1.802-1.615 0.684-1.33 0.579-3.093-0.394-4.256-1.065-1.231-3.018-1.41-4.41-0.665 0.070-0.746 0.102-1.496 0.172-2.242 1.465-0.003 2.93 0.003 4.395-0.003 0.006-0.605 0.003-1.21 0.001-1.815-2.051-0.003-4.102-0.001-6.153-0.001z"></path>
</svg>
