<svg xmlns="http://www.w3.org/2000/svg" width="24" height="24">
    <path fill="#fff" d="M.097 3.853c.289-.542.898-.839 1.501-.818 6.968.005 13.937-.001 20.904.003a1.64 1.64 0 0 1 1.389.782c.034 5.416-.024 10.833.03 16.247-.238.604-.897.915-1.519.898-6.968-.005-13.936.001-20.904-.003a1.64 1.64 0 0 1-1.39-.782C.087 14.738.109 9.295.097 3.853zM1.34 3.36c-.428.053-.919.354-.897.84-.005 5.2-.005 10.4 0 15.601-.013.586.647.874 1.151.856 6.937.002 13.874.002 20.811 0 .505.018 1.164-.271 1.151-.856.006-5.201.006-10.401 0-15.602.009-.629-.72-.897-1.251-.858-6.988.015-13.978-.024-20.965.019z"/>
    <path fill="#fff" d="M1.238 3.847c.142-.074.304-.082.461-.085h20.602c.276-.024.675.093.654.435.005 5.202.006 10.404 0 15.605.02.343-.378.459-.654.437-6.867-.002-13.735-.002-20.602 0-.276.023-.676-.094-.654-.437-.008-5.17 0-10.34-.004-15.509-.013-.172.034-.359.197-.446zm7.993 1.695c-.721.164-1.201.829-1.373 1.514-.239.989-.201 2.133.398 2.99.678.971 2.306.974 2.988.006.664-.969.691-2.298.273-3.369-.339-.883-1.374-1.413-2.286-1.141zm-5.949.026c.473.994 1.022 1.952 1.494 2.946.092.717.013 1.451.038 2.174l.841-.001c.09-.931-.253-1.978.329-2.796.406-.772.794-1.554 1.206-2.323a53.348 53.348 0 0 0-.98.001c-.316.675-.628 1.351-.97 2.013-.34-.669-.649-1.354-.996-2.02-.321.005-.641.004-.962.006zm9.442 0c.044 1.366-.108 2.749.112 4.102.289 1.485 2.845 1.502 3.134.016.168-1.365.052-2.748.082-4.12-.271 0-.542 0-.813-.002-.015 1.079.005 2.158-.01 3.236-.022.341-.029.775-.362.972-.473.297-1.219.015-1.255-.58-.104-1.206-.006-2.422-.054-3.631-.278.004-.556.006-.834.007zm4.513 5.119l.844.001c0-.718-.001-1.435.001-2.153.314.001.685.008.87.311.39.587.7 1.225 1.044 1.839.338.004.677.005 1.015-.003-.448-.756-.709-1.662-1.407-2.24 1.275-.227 1.442-2.247.315-2.761-.872-.222-1.787-.069-2.677-.116-.01 1.707 0 3.415-.005 5.122zM2.804 13.406c-.75.704-.464 2.138.53 2.457.47.245 1.234.19 1.436.769.127.713-.856 1.056-1.34.636-.24-.2-.317-.512-.405-.796a37.23 37.23 0 0 1-.817.107c.076.595.299 1.248.857 1.553a2.224 2.224 0 0 0 1.841-.021c.955-.558.978-2.169.022-2.738-.512-.339-1.215-.295-1.663-.735-.28-.412.234-.82.635-.758.459-.041.7.369.78.759.279-.019.559-.042.838-.069-.052-.499-.213-1.045-.679-1.309-.624-.327-1.48-.318-2.035.145zm3.658-.268c.005 1.697.002 3.393.002 5.09l.856.001c-.001-.637.001-1.273-.003-1.91.491-.057.993-.003 1.477-.113 1.333-.466 1.169-3.104-.388-3.063a44.995 44.995 0 0 0-1.944-.005zm4.07-.005c.001 1.698.004 3.396-.001 5.095 1.063.002 2.126.003 3.19-.001l-.001-.853c-.782-.005-1.564-.001-2.347-.002-.001-.467-.002-.933.001-1.4h2.097l.001-.849c-.7-.002-1.399 0-2.098-.001-.002-.384-.002-.769 0-1.153.757-.002 1.514.004 2.271-.004a114.54 114.54 0 0 1 0-.829c-1.037-.008-2.075-.003-3.113-.003zm4.031.005c.005 1.696.001 3.393.002 5.089 1.065.004 2.131.002 3.196.001l-.002-.856c-.781-.001-1.562.001-2.342-.001.001-.466-.001-.933.004-1.399.707-.006 1.415.013 2.122-.012a58.25 58.25 0 0 1-.008-.836c-.705-.005-1.41-.001-2.115-.002a49.24 49.24 0 0 1 .002-1.153h2.255v-.837c-1.038.003-2.076-.006-3.114.006zm4.06-.006c.001 1.699.004 3.398-.001 5.096.962-.089 2.159.295 2.907-.501.652-.822.697-1.973.512-2.965-.126-.672-.507-1.415-1.226-1.583-.726-.093-1.462-.028-2.192-.047z"/>
    <path fill="#fff" d="M9.427 6.425c.68-.263 1.359.34 1.422 1.01.127.798.138 1.896-.661 2.355-.718.369-1.497-.323-1.537-1.049-.107-.8-.127-1.967.776-2.316zM18.082 6.442c.428.004.857-.024 1.283.024.608.104.572 1.209-.059 1.246-.407.039-.816.016-1.224.018-.002-.43-.002-.859 0-1.288zM7.323 13.968c.374.01.763-.039 1.123.085.537.263.465 1.235-.147 1.356-.323.057-.652.033-.978.037-.002-.493-.004-.986.002-1.478zM19.466 13.968c.411.016.853-.056 1.235.133.421.234.507.765.54 1.202.018.592.047 1.24-.273 1.764-.36.452-1.006.265-1.504.305 0-1.135-.003-2.27.002-3.404z"/>
    <path fill="#040404" d="M1.34 3.36c6.987-.043 13.977-.004 20.965-.019.531-.039 1.26.229 1.251.858.006 5.201.006 10.401 0 15.602.013.585-.646.874-1.151.856-6.937.002-13.874.002-20.811 0-.504.018-1.164-.27-1.151-.856C.438 14.6.438 9.4.443 4.2c-.022-.486.469-.787.897-.84zm-.202.249c7.241-.025 14.484-.027 21.726.001-.505-.169-1.042-.094-1.564-.104H2.7c-.521.01-1.057-.065-1.562.103zm.1.238c-.163.087-.21.274-.197.446.004 5.169-.004 10.339.004 15.509-.022.343.378.46.654.437 6.867-.002 13.735-.002 20.602 0 .276.022.674-.094.654-.437.006-5.201.005-10.403 0-15.605.021-.342-.378-.459-.654-.435H1.699c-.157.003-.319.011-.461.085zM1.137 20.39c.504.172 1.042.092 1.563.104a57660 57660 0 0 1 18.6 0c.521-.009 1.057.064 1.562-.104-7.241.027-14.484.028-21.725 0z"/>
    <path fill="#202020" d="M1.138 3.609c.505-.168 1.041-.093 1.562-.103h18.6c.522.01 1.059-.065 1.564.104-7.242-.028-14.485-.026-21.726-.001zM1.137 20.39c7.241.028 14.484.027 21.725 0-.505.168-1.041.095-1.562.104a57660 57660 0 0 0-18.6 0c-.521-.012-1.059.068-1.563-.104z"/>
    <path fill="#101010" opacity=".95" d="M0 3.999l.097-.146C.109 9.295.087 14.738.108 20.18L0 20.035V3.999zM23.891 3.82l.109.145v16.26l-.079-.158c-.054-5.414.004-10.831-.03-16.247z"/>
    <path d="M9.231 5.542c.912-.272 1.947.258 2.286 1.141.418 1.071.391 2.4-.273 3.369-.682.968-2.31.965-2.988-.006-.599-.857-.637-2.001-.398-2.99.172-.685.652-1.35 1.373-1.514zm.196.883c-.903.349-.883 1.516-.776 2.316.04.726.819 1.418 1.537 1.049.799-.459.788-1.557.661-2.355-.063-.67-.742-1.273-1.422-1.01zM3.282 5.568c.321-.002.641-.001.962-.006.347.666.656 1.351.996 2.02.342-.662.654-1.338.97-2.013.326-.004.653-.003.98-.001-.412.769-.8 1.551-1.206 2.323-.582.818-.239 1.865-.329 2.796l-.841.001c-.025-.723.054-1.457-.038-2.174-.472-.994-1.021-1.952-1.494-2.946zM12.724 5.568c.278-.001.556-.003.834-.007.048 1.209-.05 2.425.054 3.631.036.595.782.877 1.255.58.333-.197.34-.631.362-.972.015-1.078-.005-2.157.01-3.236.271.002.542.002.813.002-.03 1.372.086 2.755-.082 4.12-.289 1.486-2.845 1.469-3.134-.016-.22-1.353-.068-2.736-.112-4.102zM17.237 10.687c.005-1.707-.005-3.415.005-5.122.89.047 1.805-.106 2.677.116 1.127.514.96 2.534-.315 2.761.698.578.959 1.484 1.407 2.24a28.62 28.62 0 0 1-1.015.003c-.344-.614-.654-1.252-1.044-1.839-.185-.303-.556-.31-.87-.311-.002.718-.001 1.435-.001 2.153l-.844-.001zm.845-4.245c-.002.429-.002.858 0 1.288.408-.002.817.021 1.224-.018.631-.037.667-1.142.059-1.246-.426-.048-.855-.02-1.283-.024zM2.804 13.406c.555-.463 1.411-.472 2.035-.145.466.264.627.81.679 1.309-.279.027-.559.05-.838.069-.08-.39-.321-.8-.78-.759-.401-.062-.915.346-.635.758.448.44 1.151.396 1.663.735.956.569.933 2.18-.022 2.738a2.224 2.224 0 0 1-1.841.021c-.558-.305-.781-.958-.857-1.553.273-.033.545-.068.817-.107.088.284.165.596.405.796.484.42 1.467.077 1.34-.636-.202-.579-.966-.524-1.436-.769-.994-.319-1.28-1.753-.53-2.457zM6.462 13.138a44.995 44.995 0 0 1 1.944.005c1.557-.041 1.721 2.597.388 3.063-.484.11-.986.056-1.477.113.004.637.002 1.273.003 1.91l-.856-.001c0-1.697.003-3.393-.002-5.09zm.861.83c-.006.492-.004.985-.002 1.478.326-.004.655.02.978-.037.612-.121.684-1.093.147-1.356-.36-.124-.749-.075-1.123-.085zM10.532 13.133c1.038 0 2.076-.005 3.113.003v.829c-.757.008-1.514.002-2.271.004-.002.384-.002.769 0 1.153.699.001 1.398-.001 2.098.001l-.001.849h-2.097c-.003.467-.002.933-.001 1.4.783.001 1.565-.003 2.347.002l.001.853a565.37 565.37 0 0 1-3.19.001c.005-1.699.002-3.397.001-5.095zM14.563 13.138c1.038-.012 2.076-.003 3.114-.006v.837h-2.255a49.24 49.24 0 0 0-.002 1.153c.705.001 1.41-.003 2.115.002.001.279.003.557.008.836-.707.025-1.415.006-2.122.012-.005.466-.003.933-.004 1.399.78.002 1.561 0 2.342.001l.002.856c-1.065.001-2.131.003-3.196-.001-.001-1.696.003-3.393-.002-5.089zM18.623 13.132c.73.019 1.466-.046 2.192.047.719.168 1.1.911 1.226 1.583.185.992.14 2.143-.512 2.965-.748.796-1.945.412-2.907.501.005-1.698.002-3.397.001-5.096zm.843.836c-.005 1.134-.002 2.269-.002 3.404.498-.04 1.144.147 1.504-.305.32-.524.291-1.172.273-1.764-.033-.437-.119-.968-.54-1.202-.382-.189-.824-.117-1.235-.133z"/>
</svg>
