<!-- Generated by IcoMoon.io -->
<svg version="1.1" xmlns="http://www.w3.org/2000/svg" width="24" height="24" viewBox="0 0 24 24">
<title>regulatory--no-motor-vehicles-or-carts--g1</title>
<path fill="#d40303" d="M10.755 0h2.472c1.378 0.221 2.756 0.545 4.010 1.174 3.718 1.76 6.295 5.525 6.762 9.593v2.447c-0.223 1.384-0.543 2.764-1.175 4.024-1.758 3.718-5.525 6.295-9.591 6.762h-2.448c-1.414-0.225-2.824-0.561-4.106-1.216-3.672-1.772-6.213-5.508-6.679-9.539v-2.473c0.46-4.104 3.085-7.896 6.846-9.64 1.226-0.604 2.568-0.91 3.91-1.132M6.265 5.24c4.204 4.207 8.41 8.411 12.614 12.618 2.141-2.497 2.752-6.193 1.454-9.226-1.046-2.573-3.365-4.571-6.056-5.248-2.767-0.721-5.84 0-8.012 1.855M3.236 13.554c0.369 2.261 1.663 4.336 3.499 5.698 3.173 2.444 7.983 2.307 11.025-0.293-4.201-4.198-8.399-8.399-12.599-12.597-1.644 1.97-2.363 4.666-1.925 7.193z"></path>
<path fill="#fff" d="M6.265 5.24c2.172-1.855 5.245-2.577 8.012-1.855 2.691 0.676 5.010 2.675 6.056 5.248 1.298 3.033 0.688 6.729-1.454 9.226-4.204-4.207-8.41-8.411-12.614-12.618M10.571 4.725c-0.414 0.432-0.346 1.147-0.813 1.558-0.155 0.413-0.301 1.104 0.114 1.395-0.142 0.593 0.322 0.695 0.803 0.597 0.009-0.228 0.015-0.455 0.022-0.683 1.066 0 2.133 0.002 3.198-0.001 0.006 0.229 0.011 0.456 0.020 0.685 0.256 0.002 0.512 0.002 0.768 0 0.007-0.201 0.014-0.403 0.020-0.604 0.456-0.359 0.366-1.322-0.131-1.655-0.239-0.473-0.205-1.342-0.889-1.378-1.031-0.053-2.103-0.144-3.114 0.086M18.020 9.489c0.024 0.152 0.063 0.302 0.092 0.453-0.255 0.093-0.515 0.175-0.767 0.275-0.022 0.484-0.062 0.967-0.040 1.452 0.117-0.022 0.234-0.046 0.352-0.070 0.035 0.164 0.068 0.33 0.104 0.494-0.173-0.007-0.344-0.019-0.517-0.030-0.229-0.94-1.336-0.644-2.028-0.78-0.352-0.367-0.785-0.614-1.281-0.725-0.097 0.395-0.121 0.802-0.113 1.207 0.093 0.011 0.281 0.032 0.374 0.042 0.041-0.157 0.076-0.313 0.106-0.471 0.164 0.234 0.303 0.484 0.413 0.749-0.575 0.333-0.349 0.928-0.090 1.393 0.085-0.111 0.165-0.223 0.241-0.339-0.070-0.174-0.381-0.384-0.184-0.563 0.517-0.236 0.562 0.548 0.515 0.882 0.085-0.016 0.254-0.048 0.338-0.065-0.051-0.317-0.128-0.628-0.195-0.941 0.284-0.029 0.567-0.065 0.849-0.103-0.174 0.362-0.389 0.703-0.561 1.067 0.505-0.035 0.665-0.567 0.948-0.9 0.266 0.235 0.333 0.576 0.204 0.902 0.092-0.009 0.276-0.029 0.368-0.037-0.025-0.27-0.072-0.536-0.108-0.805 0.137 0.075 0.272 0.149 0.41 0.221 0.010-0.134 0.009-0.27 0.004-0.404 0.195 0.010 0.39 0.019 0.587 0.030 0.076 0.388 0.239 0.828 0.672 0.931 0.56 0.199 1.056-0.312 1.142-0.834 0.257 0.010 0.515 0.017 0.773 0.024 0.001-0.072 0.004-0.215 0.005-0.287-0.101-0.010-0.303-0.030-0.404-0.040 0.131-0.389 0.259-0.78 0.386-1.17-0.705-0.071-1.414-0.090-2.121-0.090 0.041-0.502-0.005-1.004-0.067-1.502-0.102 0.009-0.305 0.027-0.405 0.036z"></path>
<path fill="#fff" d="M10.72 4.989c1.043-0.177 2.131-0.169 3.175 0.006 0.194 0.323 0.271 0.699 0.394 1.051-1.319-0.213-2.661-0.201-3.983-0.027 0.137-0.341 0.177-0.741 0.414-1.030z"></path>
<path fill="#fff" d="M3.236 13.554c-0.438-2.527 0.281-5.223 1.925-7.193 4.201 4.198 8.399 8.399 12.599 12.597-3.042 2.6-7.852 2.737-11.025 0.293-1.837-1.362-3.13-3.437-3.499-5.698M8.294 13.949c0.167-0.002 0.332-0.005 0.499-0.007-0.002 0.078-0.007 0.235-0.009 0.313-0.103 0.086-0.206 0.172-0.311 0.256 0.076 0.208 0.158 0.429-0.16 0.419-0.45-0.034-0.777 0.21-1.041 0.547-0.934-0.022-1.604 1.125-1.007 1.885 0.576 0.861 1.997 0.514 2.2-0.48 0.441 0.118 0.883-0.027 1.318-0.101 0.146 0.47 0.445 0.951 0.969 1.046 0.766 0.215 1.602-0.495 1.475-1.291-0.027-0.499-0.526-0.754-0.69-1.193-0.435 0.086-0.877 0.168-1.273 0.377 0.098-0.608-0.532-1.010-0.816-1.487-0.196 0.098-0.395 0.192-0.597 0.28 0.177-0.157 0.354-0.315 0.547-0.453 0.091-0.757-1.058-0.872-1.103-0.112z"></path>
<path fill="#fff" d="M9.992 6.882c0.116-0.282 0.333 0.005 0.492 0.080-0.152 0.185-0.566 0.287-0.492-0.080z"></path>
<path fill="#fff" d="M14.334 6.761c0.16-0.066 0.412 0.19 0.223 0.308-0.173 0.282-0.555-0.177-0.223-0.308z"></path>
<path fill="#fff" d="M10.814 6.836c0.994-0.020 1.987-0.017 2.979 0-0.31 0.57-1.057 0.5-1.612 0.519-0.476-0.070-1.122-0.010-1.368-0.519z"></path>
<path fill="#fff" d="M18.274 12.474c0.075-0.015 0.224-0.046 0.298-0.062 0.076 0.257 0.267 0.394 0.524 0.439 0.085-0.138 0.169-0.276 0.252-0.415 0.067 0.027 0.201 0.083 0.269 0.111-0.137 0.818-1.281 0.73-1.343-0.072z"></path>
<path fill="#fff" d="M8.456 15.453c0.175-0.122 0.348-0.244 0.522-0.366 0.155 0.124 0.311 0.251 0.468 0.376-0.279 0.126-0.557 0.254-0.831 0.388-0.052-0.133-0.106-0.266-0.159-0.398z"></path>
<path fill="#fff" d="M6.991 16.176c0.386-0.215 0.919 0.153 0.827 0.592-0.056 0.418-0.604 0.614-0.928 0.356-0.334-0.229-0.276-0.796 0.101-0.948z"></path>
<path fill="#fff" d="M10.734 16.196c0.349-0.224 0.88 0.045 0.877 0.469 0.024 0.44-0.526 0.735-0.887 0.49-0.363-0.192-0.358-0.773 0.010-0.959z"></path>
<path fill="#030303" d="M10.571 4.725c1.011-0.23 2.083-0.139 3.114-0.086 0.684 0.036 0.65 0.905 0.889 1.378 0.496 0.333 0.587 1.296 0.131 1.655-0.006 0.201-0.012 0.403-0.020 0.604-0.256 0.002-0.512 0.002-0.768 0-0.009-0.229-0.014-0.456-0.020-0.685-1.066 0.004-2.133 0.001-3.198 0.001-0.007 0.228-0.014 0.455-0.022 0.683-0.481 0.098-0.945-0.004-0.803-0.597-0.415-0.291-0.27-0.982-0.114-1.395 0.468-0.412 0.399-1.127 0.813-1.558M10.72 4.989c-0.238 0.288-0.277 0.689-0.414 1.030 1.322-0.174 2.664-0.185 3.983 0.027-0.123-0.352-0.2-0.727-0.394-1.051-1.043-0.175-2.131-0.183-3.175-0.006M9.992 6.882c-0.073 0.367 0.341 0.265 0.492 0.080-0.159-0.075-0.377-0.362-0.492-0.080M14.334 6.761c-0.332 0.132 0.050 0.591 0.223 0.308 0.189-0.118-0.062-0.374-0.223-0.308M10.814 6.836c0.246 0.509 0.892 0.449 1.368 0.519 0.555-0.019 1.302 0.051 1.612-0.519-0.992-0.017-1.986-0.020-2.979 0z"></path>
<path fill="#030303" d="M18.020 9.489c0.101-0.009 0.303-0.027 0.405-0.036 0.062 0.499 0.108 1 0.067 1.502 0.708 0 1.416 0.019 2.121 0.090-0.127 0.39-0.255 0.781-0.386 1.17 0.101 0.010 0.303 0.030 0.404 0.040-0.001 0.072-0.004 0.215-0.005 0.287-0.259-0.006-0.516-0.014-0.773-0.024-0.086 0.522-0.582 1.033-1.142 0.834-0.433-0.103-0.596-0.543-0.672-0.931-0.196-0.011-0.392-0.020-0.587-0.030 0.005 0.134 0.006 0.27-0.004 0.404-0.138-0.072-0.274-0.147-0.41-0.221 0.036 0.269 0.083 0.535 0.108 0.805-0.092 0.009-0.276 0.029-0.368 0.037 0.129-0.326 0.062-0.667-0.204-0.902-0.282 0.333-0.443 0.865-0.948 0.9 0.172-0.364 0.387-0.705 0.561-1.067-0.282 0.039-0.566 0.075-0.849 0.103 0.067 0.313 0.144 0.624 0.195 0.941-0.085 0.016-0.254 0.048-0.338 0.065 0.047-0.333 0.002-1.118-0.515-0.882-0.196 0.179 0.114 0.389 0.184 0.563-0.076 0.117-0.157 0.229-0.241 0.339-0.26-0.465-0.485-1.059 0.090-1.393-0.109-0.265-0.249-0.515-0.413-0.749-0.030 0.158-0.065 0.315-0.106 0.471-0.093-0.010-0.281-0.031-0.374-0.042-0.007-0.405 0.016-0.812 0.113-1.207 0.496 0.111 0.929 0.358 1.281 0.725 0.693 0.136 1.799-0.16 2.028 0.78 0.173 0.011 0.344 0.022 0.517 0.030-0.036-0.164-0.070-0.33-0.104-0.494-0.118 0.024-0.235 0.047-0.352 0.070-0.022-0.485 0.017-0.969 0.040-1.452 0.252-0.099 0.512-0.182 0.767-0.275-0.029-0.15-0.068-0.301-0.092-0.453M18.274 12.474c0.062 0.802 1.206 0.89 1.343 0.072-0.067-0.027-0.201-0.083-0.269-0.111-0.083 0.139-0.168 0.277-0.252 0.415-0.256-0.045-0.448-0.182-0.524-0.439-0.075 0.016-0.224 0.047-0.298 0.062z"></path>
<path fill="#030303" d="M8.294 13.949c0.045-0.76 1.194-0.645 1.103 0.112-0.193 0.138-0.371 0.296-0.547 0.453 0.201-0.088 0.4-0.182 0.597-0.28 0.284 0.478 0.914 0.879 0.816 1.487 0.397-0.209 0.838-0.291 1.273-0.377 0.164 0.439 0.663 0.694 0.69 1.193 0.127 0.796-0.709 1.506-1.475 1.291-0.524-0.095-0.823-0.576-0.969-1.046-0.435 0.073-0.877 0.219-1.318 0.101-0.203 0.994-1.624 1.341-2.2 0.48-0.597-0.76 0.073-1.908 1.007-1.885 0.264-0.337 0.591-0.581 1.041-0.547 0.318 0.010 0.236-0.211 0.16-0.419 0.104-0.085 0.208-0.17 0.311-0.256 0.001-0.078 0.006-0.235 0.009-0.313-0.167 0.002-0.332 0.005-0.499 0.007M8.456 15.453c0.053 0.132 0.107 0.265 0.159 0.398 0.274-0.134 0.552-0.262 0.831-0.388-0.157-0.124-0.312-0.251-0.468-0.376-0.174 0.122-0.347 0.244-0.522 0.366M6.991 16.176c-0.377 0.152-0.435 0.719-0.101 0.948 0.323 0.259 0.872 0.062 0.928-0.356 0.092-0.439-0.441-0.807-0.827-0.592M10.734 16.196c-0.368 0.185-0.373 0.767-0.010 0.959 0.361 0.245 0.91-0.050 0.887-0.49 0.004-0.424-0.527-0.693-0.877-0.469z"></path>
</svg>
