<?xml version="1.0" encoding="utf-8"?>
<!-- Generated by IcoMoon.io -->
<!DOCTYPE svg PUBLIC "-//W3C//DTD SVG 1.1//EN" "http://www.w3.org/Graphics/SVG/1.1/DTD/svg11.dtd">
<svg version="1.1" xmlns="http://www.w3.org/2000/svg" xmlns:xlink="http://www.w3.org/1999/xlink" width="24" height="24" viewBox="0 0 24 24">
<path fill="#038cff" d="M10.945 0h1.892c2.739 0.191 5.403 1.346 7.395 3.241 2.152 1.99 3.475 4.795 3.767 7.702v1.905c-0.194 2.703-1.321 5.334-3.178 7.315-2.039 2.231-4.95 3.621-7.964 3.836h-1.702c-2.707-0.193-5.342-1.323-7.324-3.181-2.23-2.041-3.618-4.952-3.832-7.964v-1.853c0.249-2.649 1.349-5.225 3.179-7.168 1.994-2.192 4.828-3.541 7.766-3.835M7.993 13.573c0.011-1.656 0.007-3.313 0.001-4.969-1.225 1.216-2.445 2.437-3.662 3.661 0 2.469-0.003 4.938 0.001 7.407 2.467 0.003 4.936 0.001 7.403 0.001 1.228-1.218 2.445-2.447 3.673-3.666-1.662 0.008-3.323-0.007-4.985 0.008 3.501-3.48 6.978-6.984 10.478-10.466-0.812-0.816-1.625-1.633-2.445-2.44-3.493 3.483-6.981 6.972-10.465 10.464z"></path>
<path fill="#fff" d="M7.993 13.573c3.484-3.492 6.972-6.981 10.465-10.464 0.82 0.807 1.633 1.623 2.445 2.44-3.5 3.483-6.977 6.986-10.478 10.466 1.662-0.015 3.323 0 4.985-0.008-1.228 1.218-2.445 2.447-3.673 3.666-2.467 0-4.936 0.001-7.403-0.001-0.004-2.469-0.001-4.938-0.001-7.407 1.217-1.224 2.437-2.445 3.662-3.661 0.005 1.656 0.009 3.313-0.001 4.969z"></path>
</svg>
