<!-- Generated by IcoMoon.io -->
<svg version="1.1" xmlns="http://www.w3.org/2000/svg" width="24" height="24" viewBox="0 0 24 24">
<title>regulatory--end-of-maximum-speed-limit-80--g1</title>
<path fill="#fff" d="M11.103 0h1.815c1.773 0.157 3.523 0.668 5.063 1.569 2.492 1.421 4.441 3.765 5.378 6.477 0.35 0.986 0.544 2.019 0.642 3.059v1.809c-0.158 1.774-0.668 3.525-1.57 5.066-1.537 2.7-4.162 4.757-7.155 5.592-0.765 0.225-1.556 0.34-2.347 0.428h-1.844c-1.728-0.152-3.43-0.645-4.944-1.499-2.622-1.461-4.664-3.933-5.581-6.793-0.299-0.9-0.461-1.838-0.559-2.778v-1.849c0.097-0.982 0.274-1.959 0.593-2.895 0.873-2.63 2.694-4.929 5.048-6.39 1.637-1.037 3.534-1.635 5.461-1.795M11.366 0.596c-2.155 0.111-4.272 0.862-6.022 2.123-2.364 1.683-4.038 4.299-4.569 7.153-0.615 3.175 0.203 6.593 2.206 9.134 1.706 2.212 4.252 3.754 7.005 4.239 1.884 0.336 3.854 0.195 5.667-0.421 2.805-0.934 5.203-3.014 6.533-5.654 1.562-3.029 1.649-6.766 0.229-9.864-1.189-2.66-3.44-4.823-6.146-5.903-1.547-0.626-3.235-0.903-4.902-0.807z"></path>
<path fill="#fff" d="M7.030 2.387c2.218-1.158 4.845-1.499 7.287-0.959 1.32 0.285 2.582 0.826 3.703 1.577-0.84 0.852-1.692 1.692-2.535 2.542-0.044 0.038-0.082 0.090-0.142 0.103-1.251 0.298-2.363 1.314-2.59 2.608-0.425 0.466-0.889 0.904-1.337 1.35 0.116-1.171-0.326-2.387-1.218-3.165-0.964-0.909-2.441-1.136-3.676-0.72-1.243 0.435-2.204 1.598-2.386 2.904-0.088 0.621-0.060 1.277 0.195 1.857 0.231 0.511 0.6 0.945 1.001 1.331-0.839 0.568-1.406 1.514-1.454 2.532-0.060 0.796 0.080 1.622 0.49 2.315-0.451 0.455-0.903 0.908-1.359 1.358-1.759-2.593-2.288-5.968-1.417-8.977 0.792-2.843 2.815-5.31 5.44-6.655z"></path>
<path fill="#fff" d="M16.361 5.524c0.715-0.723 1.436-1.441 2.158-2.159 0.078 0.060 0.157 0.119 0.237 0.177-0.665 0.673-1.334 1.342-2.006 2.006-0.129-0.009-0.259-0.017-0.388-0.023z"></path>
<path fill="#fff" d="M17.455 5.695c0.591-0.584 1.174-1.177 1.765-1.76 0.073 0.067 0.144 0.135 0.216 0.204-0.562 0.561-1.121 1.125-1.686 1.683-0.098-0.043-0.196-0.085-0.295-0.127z"></path>
<path fill="#fff" d="M18.314 6.112c0.516-0.516 1.031-1.032 1.547-1.547 0.069 0.071 0.137 0.144 0.203 0.218-0.5 0.502-1.001 1.003-1.503 1.503-0.082-0.058-0.165-0.116-0.248-0.174z"></path>
<path fill="#fff" d="M19.017 6.684c0.48-0.48 0.955-0.966 1.443-1.438 0.057 0.079 0.116 0.158 0.176 0.235-0.472 0.477-0.947 0.95-1.422 1.423-0.066-0.074-0.131-0.148-0.197-0.221z"></path>
<path fill="#fff" d="M19.544 7.43c0.481-0.485 0.963-0.969 1.45-1.448 1.654 2.444 2.227 5.581 1.55 8.453-0.65 2.887-2.557 5.456-5.121 6.93-2.343 1.372-5.216 1.8-7.858 1.178-1.276-0.289-2.495-0.822-3.583-1.549 0.858-0.848 1.694-1.736 2.577-2.551 1.498-0.261 2.825-1.507 3.033-3.037l0.004-0.027c0.349-0.356 0.704-0.707 1.058-1.059-0.020 0.774 0.013 1.582 0.369 2.287 0.377 0.778 1.1 1.345 1.89 1.665 1.408 0.563 3.121 0.17 4.147-0.946 0.608-0.645 0.86-1.548 0.862-2.418 0.002-1.89 0-3.781 0.001-5.671 0.002-0.619-0.104-1.247-0.38-1.805z"></path>
<path fill="#fff" d="M7.563 7.425c0.645-0.071 1.324 0.218 1.701 0.749 0.311 0.473 0.336 1.085 0.205 1.622-0.201 0.781-1.050 1.252-1.822 1.201-0.713-0.039-1.446-0.515-1.609-1.24-0.124-0.557-0.086-1.199 0.275-1.665 0.308-0.374 0.769-0.619 1.251-0.667z"></path>
<path fill="#fff" d="M15.661 7.502c0.162-0.044 0.328-0.067 0.495-0.083-0.527 0.524-1.045 1.057-1.58 1.573 0.011-0.156 0.029-0.312 0.070-0.463 0.317-0.36 0.671-0.692 1.016-1.027z"></path>
<path fill="#fff" d="M14.521 9.915c0.794-0.813 1.601-1.613 2.408-2.412 0.091 0.047 0.182 0.095 0.273 0.143-0.884 0.888-1.772 1.77-2.655 2.659-0.007-0.13-0.015-0.26-0.026-0.39z"></path>
<path fill="#fff" d="M14.523 11.186c1.037-1.059 2.093-2.1 3.141-3.149 0.053 0.085 0.107 0.171 0.16 0.256-1.092 1.095-2.185 2.19-3.282 3.281 0-0.13-0.009-0.259-0.019-0.388z"></path>
<path fill="#fff" d="M14.527 12.454c1.156-1.173 2.324-2.338 3.495-3.496 0.041 1.889 0.006 3.779 0.018 5.668 0.014 0.56-0.108 1.171-0.535 1.567-0.847 0.818-2.545 0.504-2.859-0.695-0.226-0.995-0.043-2.032-0.119-3.043z"></path>
<path fill="#fff" d="M10.754 11.159c0.601-0.67 1.265-1.283 1.897-1.925-0.001 0.13 0.007 0.261 0.016 0.391-0.757 0.781-1.537 1.541-2.303 2.313-0.058-0.039-0.116-0.079-0.173-0.119 0.197-0.212 0.413-0.41 0.563-0.661z"></path>
<path fill="#fff" d="M10.804 12.349c0.613-0.616 1.229-1.229 1.843-1.844 0.006 0.128 0.014 0.257 0.018 0.386-0.532 0.579-1.116 1.122-1.667 1.688-0.065-0.076-0.129-0.153-0.193-0.229z"></path>
<path fill="#fff" d="M12.649 11.776c0.004 0.137 0.007 0.274 0.010 0.411-0.402 0.407-0.809 0.81-1.213 1.215-0.042-0.1-0.083-0.2-0.124-0.3 0.443-0.442 0.884-0.885 1.327-1.326z"></path>
<path fill="#fff" d="M6.303 13.288c0.501-0.526 1.285-0.731 1.985-0.548-0.823 0.827-1.647 1.652-2.475 2.474-0.168-0.669-0.023-1.44 0.49-1.926z"></path>
<path fill="#fff" d="M6.087 15.795c0.927-0.93 1.855-1.858 2.785-2.785 0.081 0.059 0.161 0.117 0.241 0.176-0.939 0.945-1.883 1.885-2.826 2.827-0.068-0.073-0.134-0.145-0.201-0.218z"></path>
<path fill="#fff" d="M12.649 13.051c0.004 0.135 0.007 0.27 0.012 0.405-0.332 0.341-0.674 0.673-1.008 1.012-0.013-0.125-0.026-0.25-0.041-0.375 0.34-0.353 0.692-0.695 1.038-1.043z"></path>
<path fill="#fff" d="M6.763 16.391c0.912-0.915 1.827-1.827 2.74-2.741 0.050 0.089 0.099 0.178 0.15 0.266-0.86 0.874-1.732 1.737-2.599 2.603-0.098-0.042-0.195-0.085-0.291-0.129z"></path>
<path fill="#fff" d="M9.779 14.647c-0.007 0.15-0.020 0.301-0.035 0.451-0.493 0.502-0.988 1.005-1.495 1.492-0.152 0.031-0.307 0.040-0.461 0.056 0.656-0.674 1.328-1.332 1.991-1.998z"></path>
<path fill="#fff" d="M3.366 18.519c0.446-0.455 0.902-0.901 1.35-1.355 0.072 0.068 0.144 0.136 0.216 0.204-0.463 0.462-0.918 0.933-1.392 1.383-0.057-0.079-0.115-0.157-0.174-0.233z"></path>
<path fill="#fff" d="M3.937 19.218c0.481-0.486 0.966-0.968 1.449-1.451 0.083 0.058 0.166 0.115 0.249 0.172-0.498 0.499-0.997 0.997-1.496 1.495-0.069-0.071-0.137-0.143-0.203-0.217z"></path>
<path fill="#fff" d="M4.565 19.86c0.547-0.546 1.090-1.095 1.641-1.638 0.098 0.042 0.198 0.084 0.297 0.125-0.576 0.57-1.144 1.146-1.72 1.716-0.074-0.067-0.147-0.135-0.218-0.203z"></path>
<path fill="#fff" d="M5.248 20.449c0.657-0.65 1.305-1.308 1.963-1.957 0.127 0.011 0.254 0.022 0.381 0.032-0.699 0.707-1.404 1.409-2.109 2.111-0.080-0.060-0.158-0.121-0.234-0.186z"></path>
<path fill="#000" d="M11.366 0.596c1.666-0.097 3.354 0.18 4.902 0.807 2.707 1.080 4.957 3.243 6.146 5.903 1.42 3.098 1.334 6.835-0.229 9.864-1.33 2.64-3.727 4.719-6.533 5.654-1.813 0.617-3.783 0.757-5.667 0.421-2.752-0.485-5.298-2.027-7.005-4.239-2.003-2.541-2.821-5.959-2.206-9.134 0.531-2.854 2.205-5.47 4.569-7.153 1.75-1.261 3.867-2.012 6.022-2.123M7.030 2.387c-2.625 1.345-4.648 3.812-5.44 6.655-0.871 3.009-0.341 6.384 1.417 8.977 0.456-0.449 0.908-0.903 1.359-1.358 0.485-0.48 0.968-0.963 1.447-1.448 0.827-0.822 1.652-1.647 2.475-2.474 1.044-1.042 2.093-2.083 3.127-3.131 0.449-0.446 0.912-0.884 1.337-1.35 0.726-0.681 1.412-1.405 2.122-2.103 0.154-0.17 0.348-0.307 0.468-0.505 0.060-0.013 0.098-0.065 0.142-0.103 0.843-0.849 1.695-1.689 2.535-2.542-1.121-0.751-2.384-1.292-3.703-1.577-2.442-0.54-5.069-0.199-7.287 0.959M16.361 5.524l-0.008-0c-1.23 1.241-2.475 2.47-3.703 3.711-0.632 0.641-1.296 1.255-1.897 1.925-0.657 0.582-1.251 1.239-1.882 1.851-0.93 0.927-1.858 1.856-2.785 2.785-0.459 0.455-0.913 0.915-1.372 1.369-0.448 0.454-0.904 0.9-1.35 1.355 0.059 0.076 0.117 0.154 0.174 0.233 0.474-0.45 0.929-0.922 1.392-1.383 0.455-0.449 0.905-0.903 1.357-1.355 0.942-0.942 1.886-1.883 2.826-2.827 0.419-0.413 0.833-0.832 1.25-1.248 0.766-0.772 1.546-1.532 2.303-2.313 1.37-1.35 2.725-2.715 4.083-4.078 0.673-0.664 1.342-1.333 2.006-2.006-0.080-0.058-0.158-0.117-0.237-0.177-0.721 0.718-1.442 1.436-2.158 2.159M17.455 5.695c-0.594 0.607-1.208 1.194-1.794 1.807-0.345 0.334-0.699 0.667-1.016 1.027-0.687 0.636-1.328 1.322-1.998 1.976-0.614 0.615-1.23 1.228-1.843 1.844-0.435 0.433-0.868 0.867-1.302 1.301-0.913 0.914-1.828 1.826-2.74 2.741-0.46 0.458-0.918 0.916-1.376 1.376-0.484 0.483-0.968 0.965-1.449 1.451 0.066 0.074 0.134 0.146 0.203 0.217 0.499-0.498 0.998-0.997 1.496-1.495 0.473-0.473 0.947-0.945 1.418-1.42 0.867-0.867 1.739-1.729 2.599-2.603 0.455-0.439 0.896-0.893 1.345-1.338 0.552-0.565 1.135-1.109 1.667-1.688 0.654-0.613 1.283-1.264 1.911-1.899 0.535-0.517 1.053-1.049 1.58-1.573 0.532-0.531 1.066-1.061 1.594-1.597 0.565-0.557 1.124-1.122 1.686-1.683-0.072-0.069-0.143-0.137-0.216-0.204-0.591 0.584-1.174 1.177-1.765 1.76M18.314 6.112c-0.461 0.464-0.93 0.921-1.384 1.391-0.808 0.799-1.615 1.599-2.408 2.412-0.634 0.61-1.247 1.242-1.872 1.861-0.443 0.442-0.884 0.885-1.327 1.326-0.514 0.515-1.030 1.028-1.544 1.545-0.663 0.667-1.335 1.324-1.991 1.998-0.534 0.517-1.057 1.050-1.582 1.577-0.551 0.542-1.094 1.092-1.641 1.638 0.071 0.069 0.144 0.137 0.218 0.203 0.576-0.57 1.144-1.147 1.72-1.716 0.578-0.59 1.175-1.162 1.746-1.758 0.508-0.487 1.002-0.99 1.495-1.492 0.574-0.559 1.134-1.131 1.703-1.696 0.405-0.405 0.811-0.808 1.213-1.215 0.631-0.625 1.256-1.257 1.887-1.883 0.883-0.888 1.772-1.771 2.655-2.659 0.455-0.452 0.908-0.905 1.359-1.36 0.502-0.5 1.003-1 1.503-1.503-0.067-0.074-0.135-0.147-0.203-0.218-0.517 0.515-1.032 1.031-1.547 1.547M19.017 6.684c-0.453 0.449-0.904 0.9-1.353 1.353-1.047 1.049-2.104 2.090-3.141 3.149-0.635 0.611-1.249 1.244-1.874 1.865-0.346 0.348-0.698 0.69-1.038 1.043-1.472 1.461-2.936 2.93-4.401 4.399-0.658 0.649-1.305 1.307-1.963 1.957 0.076 0.065 0.154 0.126 0.234 0.186 0.705-0.702 1.41-1.403 2.109-2.111l0.008 0.001c1.347-1.357 2.702-2.705 4.053-4.057 0.334-0.339 0.676-0.671 1.008-1.012 0.63-0.624 1.258-1.252 1.882-1.882 1.097-1.091 2.19-2.185 3.282-3.281 0.465-0.46 0.928-0.924 1.389-1.388 0.475-0.473 0.95-0.946 1.422-1.423-0.060-0.077-0.119-0.156-0.176-0.235-0.487 0.472-0.962 0.958-1.443 1.438M19.544 7.43c-0.509 0.507-1.025 1.012-1.522 1.527-1.171 1.159-2.339 2.323-3.495 3.496-0.633 0.613-1.25 1.243-1.873 1.865-0.354 0.352-0.709 0.703-1.058 1.059l-0.004 0.027c-0.212 0.155-0.377 0.362-0.568 0.541-0.817 0.837-1.677 1.636-2.466 2.496-0.883 0.815-1.718 1.703-2.577 2.551 1.087 0.727 2.306 1.26 3.583 1.549 2.642 0.622 5.515 0.194 7.858-1.178 2.564-1.474 4.471-4.043 5.121-6.93 0.677-2.872 0.104-6.009-1.55-8.453-0.487 0.479-0.969 0.963-1.45 1.448z"></path>
<path fill="#808080" d="M16.354 5.524l0.008 0c0.129 0.007 0.259 0.014 0.388 0.023-1.357 1.362-2.713 2.728-4.083 4.078-0.009-0.13-0.017-0.261-0.016-0.391 1.229-1.241 2.474-2.469 3.703-3.711z"></path>
<path fill="#808080" d="M6.52 5.723c1.236-0.416 2.712-0.189 3.676 0.72 0.893 0.778 1.334 1.994 1.218 3.165-1.034 1.048-2.083 2.090-3.127 3.131-0.7-0.183-1.484 0.022-1.985 0.548-0.513 0.486-0.658 1.257-0.49 1.926-0.48 0.485-0.962 0.968-1.447 1.448-0.411-0.693-0.55-1.519-0.49-2.315 0.048-1.018 0.615-1.964 1.454-2.532-0.401-0.386-0.77-0.82-1.001-1.331-0.255-0.58-0.283-1.237-0.195-1.857 0.182-1.306 1.143-2.468 2.386-2.904M7.563 7.425c-0.482 0.048-0.943 0.293-1.251 0.667-0.361 0.466-0.399 1.108-0.275 1.665 0.163 0.725 0.896 1.201 1.609 1.24 0.773 0.051 1.621-0.42 1.822-1.201 0.131-0.537 0.106-1.149-0.205-1.622-0.377-0.531-1.056-0.82-1.701-0.749z"></path>
<path fill="#808080" d="M12.752 8.258c0.228-1.294 1.339-2.31 2.59-2.608-0.12 0.198-0.314 0.336-0.468 0.505-0.71 0.698-1.396 1.422-2.122 2.103z"></path>
<path fill="#808080" d="M15.661 7.502c0.586-0.613 1.2-1.2 1.794-1.807 0.098 0.042 0.196 0.084 0.295 0.127-0.528 0.536-1.062 1.065-1.594 1.597-0.166 0.017-0.333 0.040-0.495 0.083z"></path>
<path fill="#808080" d="M16.929 7.502c0.455-0.47 0.923-0.927 1.384-1.391 0.082 0.058 0.165 0.116 0.248 0.174-0.452 0.455-0.905 0.908-1.359 1.36-0.091-0.048-0.182-0.096-0.273-0.143z"></path>
<path fill="#808080" d="M17.664 8.038c0.449-0.454 0.9-0.904 1.353-1.353 0.066 0.073 0.131 0.147 0.197 0.221-0.462 0.464-0.924 0.928-1.389 1.388-0.053-0.085-0.107-0.171-0.16-0.256z"></path>
<path fill="#808080" d="M18.022 8.957c0.497-0.516 1.013-1.020 1.522-1.527 0.276 0.558 0.382 1.186 0.38 1.805-0 1.89 0.001 3.781-0.001 5.671-0.003 0.87-0.255 1.774-0.863 2.418-1.026 1.117-2.739 1.509-4.147 0.946-0.79-0.319-1.513-0.887-1.89-1.665-0.356-0.706-0.389-1.513-0.369-2.288 0.623-0.622 1.239-1.253 1.873-1.865 0.075 1.011-0.108 2.048 0.119 3.043 0.314 1.199 2.013 1.514 2.859 0.695 0.428-0.396 0.549-1.007 0.535-1.567-0.012-1.889 0.023-3.779-0.018-5.668z"></path>
<path fill="#808080" d="M12.647 10.505c0.67-0.654 1.312-1.341 1.998-1.976-0.041 0.151-0.059 0.307-0.070 0.463-0.628 0.635-1.257 1.286-1.911 1.899-0.004-0.129-0.012-0.257-0.018-0.386z"></path>
<path fill="#808080" d="M12.649 11.776c0.625-0.619 1.238-1.251 1.872-1.861 0.011 0.129 0.019 0.259 0.026 0.39-0.631 0.626-1.256 1.258-1.887 1.883-0.003-0.137-0.007-0.274-0.010-0.411z"></path>
<path fill="#808080" d="M8.872 13.010c0.631-0.612 1.225-1.269 1.882-1.851-0.15 0.251-0.366 0.449-0.563 0.661 0.057 0.039 0.115 0.079 0.173 0.119-0.417 0.415-0.831 0.834-1.25 1.248-0.081-0.059-0.161-0.118-0.241-0.176z"></path>
<path fill="#808080" d="M12.649 13.051c0.625-0.621 1.239-1.253 1.874-1.865 0.010 0.129 0.019 0.258 0.019 0.388-0.623 0.63-1.252 1.257-1.882 1.882-0.005-0.135-0.008-0.27-0.012-0.405z"></path>
<path fill="#808080" d="M9.502 13.65c0.434-0.434 0.867-0.868 1.302-1.301 0.064 0.076 0.128 0.153 0.193 0.229-0.449 0.445-0.89 0.899-1.345 1.338-0.051-0.089-0.1-0.177-0.15-0.266z"></path>
<path fill="#808080" d="M9.779 14.647c0.513-0.517 1.029-1.030 1.544-1.545 0.041 0.1 0.082 0.2 0.124 0.3-0.568 0.565-1.128 1.137-1.702 1.696 0.015-0.15 0.029-0.3 0.035-0.451z"></path>
<path fill="#808080" d="M7.21 18.492c1.465-1.469 2.929-2.938 4.401-4.399 0.015 0.125 0.029 0.25 0.041 0.375-1.351 1.352-2.707 2.7-4.053 4.057l-0.008-0.001c-0.127-0.010-0.254-0.021-0.381-0.032z"></path>
<path fill="#808080" d="M11.025 15.946c0.191-0.179 0.356-0.386 0.568-0.541-0.209 1.53-1.536 2.776-3.033 3.037 0.789-0.86 1.649-1.659 2.466-2.496z"></path>
<path fill="#808080" d="M4.715 17.164c0.459-0.454 0.913-0.914 1.372-1.369 0.067 0.073 0.133 0.146 0.201 0.218-0.452 0.451-0.902 0.906-1.357 1.355-0.072-0.068-0.144-0.136-0.216-0.204z"></path>
<path fill="#808080" d="M5.386 17.767c0.458-0.46 0.916-0.918 1.376-1.376 0.097 0.044 0.194 0.087 0.291 0.129-0.471 0.475-0.945 0.947-1.418 1.42-0.083-0.058-0.166-0.115-0.249-0.172z"></path>
<path fill="#808080" d="M6.206 18.223c0.525-0.528 1.047-1.060 1.582-1.577 0.154-0.015 0.309-0.024 0.461-0.056-0.57 0.597-1.168 1.169-1.746 1.758-0.099-0.041-0.198-0.083-0.297-0.125z"></path>
</svg>
