<?xml version="1.0" encoding="utf-8"?>
<!-- Generated by IcoMoon.io -->
<!DOCTYPE svg PUBLIC "-//W3C//DTD SVG 1.1//EN" "http://www.w3.org/Graphics/SVG/1.1/DTD/svg11.dtd">
<svg version="1.1" xmlns="http://www.w3.org/2000/svg" xmlns:xlink="http://www.w3.org/1999/xlink" width="24" height="24" viewBox="0 0 24 24">
<path fill="#fff" d="M2.465 22.715c0 0.678 0.549 1.195 1.228 1.195h16.607c0.678 0 1.227-0.517 1.227-1.195v-21.421c0-0.679-0.549-1.228-1.227-1.228h-16.607c-0.678 0-1.228 0.549-1.228 1.228v21.421z"></path>
<path fill="#000" d="M14.549 18.805h0.323l-1.357 3.167h-0.323l1.357-3.167zM15.422 18.805h0.614v1.002l0.129-0.097 0.258-0.13 0.162-0.032h0.323l0.13 0.032 0.097 0.065 0.129 0.065 0.097 0.129 0.065 0.097 0.065 0.129 0.065 0.161v1.745h-0.582v-1.422l-0.032-0.097-0.033-0.097-0.032-0.097-0.065-0.064-0.097-0.065-0.097-0.032h-0.194l-0.194 0.064-0.065 0.065-0.065 0.097-0.032 0.097-0.032 0.129v1.422h-0.614v-3.167zM8.475 19.613l-0.872 0.904 0.937 1.454h-0.743l-0.614-1.034-0.291 0.226v0.808h-0.614v-3.167h0.614v1.68l0.839-0.872h0.743zM10.801 19.613l0.129 0.064 0.194 0.194 0.194-0.194 0.129-0.064 0.129-0.065 0.162-0.033h0.129l0.259 0.065 0.129 0.065 0.097 0.065 0.097 0.097 0.097 0.13 0.065 0.097 0.032 0.162v1.777h-0.614v-1.615l-0.032-0.097-0.065-0.064-0.065-0.065-0.097-0.065h-0.194l-0.097 0.033-0.064 0.032-0.065 0.097-0.065 0.065-0.032 0.097v1.583h-0.646v-1.615l-0.032-0.097-0.065-0.064-0.097-0.065-0.065-0.065h-0.193l-0.097 0.033-0.065 0.032-0.097 0.097-0.033 0.065-0.064 0.194v1.487h-0.582v-2.358h0.549l0.032 0.161 0.162-0.097 0.129-0.064 0.161-0.065h0.42l0.129 0.065zM3.273 22.682c0 0.259 0.194 0.42 0.42 0.42h16.64c0.226 0 0.388-0.161 0.388-0.42v-21.421c0-0.226-0.162-0.388-0.388-0.388h-16.64c-0.226 0-0.42 0.161-0.42 0.388v21.421zM2.788 22.682v-21.421c0-0.485 0.42-0.872 0.904-0.872h16.64c0.485 0 0.872 0.388 0.872 0.872v21.421c0 0.517-0.388 0.905-0.872 0.905h-16.64c-0.484 0-0.904-0.387-0.904-0.905v0z"></path>
<path fill="#000" d="M11.432 2.46h0.354v2.355h-0.354v-2.355zM7.755 3.75c0 0 0 0.032 0.032 0.032h0.42v-0.032l-0.194-0.612c0-0.033-0.032-0.033-0.032-0.033s0 0.033-0.032 0.033l-0.194 0.58v0.032zM15.078 2.46h0.354v1.645c0.032 0.161 0.128 0.29 0.258 0.354 0.033 0.032 0.129 0.065 0.193 0.065 0.226 0 0.419-0.193 0.419-0.419v-1.645h0.355v1.677c0 0.29-0.193 0.58-0.516 0.71-0.097 0.032-0.193 0.032-0.291 0.032-0.484 0-0.773-0.451-0.773-0.71v-1.709zM9.336 4.815l0.613-1.194v-0.032l-0.549-1.129h0.387l0.355 0.678h0.032l0.323-0.678h0.419l-0.549 1.129v0.032l0.58 1.194h-0.419l-0.355-0.742h-0.032c0 0 0 0-0.033 0l-0.355 0.742h-0.419zM12.529 4.815v-2.355h0.356l0.547 1.322h0.033l0.516-1.322h0.387v2.355h-0.387v-1.258c-0.033 0-0.033 0.032-0.033 0.032l-0.516 1.226-0.483-1.258h-0.032c0 0-0.032 0-0.032 0.032v1.226h-0.356zM4.788 4.815v-2.355h0.387l0.516 1.322h0.032l0.516-1.322h0.387v2.355h-0.387v-1.258c-0.033 0-0.033 0.032-0.033 0.032l-0.516 1.226-0.484-1.258h-0.032c0 0-0.033 0-0.033 0.032v1.226h-0.355zM17.368 4.815v-2.355h0.387l0.516 1.322h0.065l0.516-1.322h0.354v2.355h-0.354v-1.226c0-0.032-0.032-0.032-0.032-0.032s0 0.032-0.032 0.032l-0.484 1.226-0.516-1.258c-0.032 0-0.032 0-0.032 0.032v1.226h-0.387zM6.981 4.815l0.806-2.355h0.387l0.806 2.355h-0.387l-0.226-0.646c0 0 0-0.032-0.033-0.032h-0.71c0 0 0 0.032-0.032 0.032l-0.226 0.646h-0.387z"></path>
<path fill="#000" d="M7.495 14.021c0.068 0.37 0.197 0.656 0.388 0.857s0.47 0.302 0.836 0.302c0.422 0 0.744-0.148 0.964-0.445s0.331-0.67 0.331-1.12c0-0.442-0.104-0.815-0.311-1.12s-0.53-0.457-0.967-0.457c-0.207 0-0.386 0.026-0.537 0.078-0.267 0.096-0.468 0.273-0.603 0.532l-1.529-0.072 0.609-4.784h4.772v1.445h-3.541l-0.311 1.893c0.263-0.171 0.468-0.285 0.615-0.34 0.247-0.092 0.547-0.137 0.902-0.137 0.717 0 1.342 0.241 1.875 0.723s0.8 1.182 0.8 2.102c0 0.8-0.257 1.515-0.77 2.144s-1.282 0.944-2.305 0.944c-0.824 0-1.501-0.221-2.031-0.663s-0.824-1.069-0.884-1.881h1.696zM14.644 14.377c0.163 0.528 0.498 0.791 1.003 0.791s0.837-0.264 0.994-0.791c0.157-0.528 0.236-1.289 0.236-2.284 0-1.043-0.079-1.815-0.236-2.317s-0.489-0.752-0.994-0.752c-0.506 0-0.84 0.251-1.003 0.752s-0.245 1.274-0.245 2.317c0 0.995 0.082 1.757 0.245 2.284v0zM17.967 8.784c0.444 0.776 0.666 1.879 0.666 3.309s-0.222 2.53-0.666 3.303c-0.444 0.772-1.217 1.159-2.32 1.159s-1.876-0.386-2.32-1.159c-0.444-0.772-0.666-1.873-0.666-3.303s0.222-2.532 0.666-3.309c0.444-0.776 1.217-1.165 2.32-1.165s1.876 0.388 2.32 1.165v0z"></path>
</svg>
