<!-- Generated by IcoMoon.io -->
<svg version="1.1" xmlns="http://www.w3.org/2000/svg" width="24" height="24" viewBox="0 0 24 24">
<title>regulatory--night-speed-limit-50--g1</title>
<path fill="#fff" d="M0.911 0h22.177c0.445 0.103 0.81 0.467 0.913 0.913v22.172c-0.101 0.447-0.467 0.812-0.913 0.915h-22.173c-0.446-0.102-0.81-0.466-0.914-0.911v-22.177c0.103-0.445 0.466-0.809 0.911-0.912M1.566 0.587c-0.558 0.059-1.007 0.584-0.991 1.143-0.001 6.847-0.001 13.693 0 20.539-0.023 0.64 0.566 1.199 1.203 1.155 6.831-0.001 13.661 0.001 20.491-0.001 0.621 0.021 1.176-0.534 1.155-1.155 0.001-6.846 0.001-13.693 0-20.539 0.007-0.443-0.263-0.875-0.67-1.053-0.255-0.122-0.543-0.104-0.817-0.103-6.609 0-13.219 0-19.828 0-0.181 0.002-0.363-0.009-0.543 0.013z"></path>
<path fill="#fff" d="M10.8 3.723c0.587-0.363 1.442-0.161 1.76 0.466-0.167 0.098-0.335 0.196-0.504 0.291-0.206-0.415-0.822-0.528-1.123-0.156-0.347 0.48-0.351 1.218 0.023 1.685 0.332 0.394 1.104 0.193 1.075-0.368-0.181-0.001-0.362-0.001-0.543-0.003-0.001-0.175-0-0.35-0-0.525 0.372 0 0.743 0.003 1.115-0.002 0.008 0.462 0.030 0.997-0.335 1.345-0.553 0.532-1.591 0.356-1.94-0.33-0.406-0.768-0.299-1.902 0.472-2.403z"></path>
<path fill="#fff" d="M4.661 3.613c0.181 0.002 0.363 0.002 0.544 0 0.438 0.683 0.889 1.358 1.317 2.048-0.005-0.683 0.002-1.366-0.004-2.049 0.186 0.003 0.372 0.003 0.558-0-0.005 1.035-0.002 2.071-0.001 3.107-0.168-0-0.336-0-0.504-0-0.451-0.701-0.924-1.389-1.357-2.101 0.016 0.7 0.003 1.401 0.007 2.101-0.186 0-0.372 0-0.558-0-0.001-1.035 0-2.070-0.001-3.105z"></path>
<path fill="#fff" d="M8.351 3.614c0.191 0.001 0.382 0.001 0.573 0-0.002 1.035-0 2.070-0.001 3.105-0.19 0-0.381 0.001-0.571-0.002-0.001-1.034-0-2.069 0-3.103z"></path>
<path fill="#fff" d="M13.74 3.612c0.188 0.004 0.375 0.003 0.563 0 0.001 0.413-0 0.827 0 1.24 0.436-0 0.873 0.002 1.309-0.001 0.011-0.412 0.017-0.826-0.004-1.238 0.186 0.002 0.371 0.002 0.557 0.001 0 1.034 0.001 2.069-0 3.103-0.183 0.003-0.366 0.001-0.549 0.003 0.009-0.44 0-0.881 0.005-1.321-0.439-0.025-0.879-0.006-1.318-0.012-0 0.444 0 0.888-0 1.332-0.188 0-0.375 0-0.562 0 0.001-1.035 0.004-2.071-0.002-3.107z"></path>
<path fill="#fff" d="M17.215 3.597c0.767-0.001 1.534 0 2.302 0 0 0.181 0 0.362 0 0.543-0.289 0-0.578 0-0.866 0 0 0.859 0 1.718 0 2.577-0.188 0.001-0.376 0-0.563 0-0.001-0.859 0-1.719-0-2.578-0.291 0-0.582 0-0.872-0-0.001-0.181-0.001-0.362 0-0.543z"></path>
<path fill="#fff" d="M16.425 9.397c0.763-0.098 1.568-0.026 2.26 0.326 0.634 0.317 1.133 0.862 1.465 1.482 0.439 0.816 0.642 1.736 0.732 2.652 0.098 1.094 0.058 2.206-0.181 3.28-0.189 0.817-0.508 1.628-1.067 2.265-1.125 1.315-3.275 1.472-4.668 0.505-1.213-0.888-1.656-2.448-1.797-3.876-0.135-1.643-0.032-3.388 0.762-4.867 0.496-0.937 1.431-1.642 2.494-1.768M16.708 11.189c-0.607 0.098-1.046 0.613-1.261 1.16-0.409 1.016-0.429 2.136-0.393 3.215 0.074 0.899 0.194 1.867 0.774 2.595 0.505 0.65 1.549 0.744 2.177 0.222 0.438-0.362 0.66-0.912 0.802-1.448 0.218-0.871 0.246-1.778 0.198-2.671-0.054-0.769-0.171-1.561-0.556-2.242-0.323-0.619-1.052-0.982-1.74-0.831z"></path>
<path fill="#fff" d="M3.445 9.563c2.050 0 4.101-0.001 6.151 0 0.001 0.606 0.002 1.211-0 1.817-1.466 0.003-2.932 0-4.398 0.001-0.064 0.747-0.106 1.494-0.167 2.241 1.41-0.752 3.397-0.558 4.447 0.715 0.949 1.185 1.033 2.953 0.32 4.273-0.399 0.726-1.074 1.281-1.842 1.582-0.887 0.356-1.87 0.39-2.808 0.261-0.843-0.12-1.682-0.413-2.341-0.966 0.356-0.495 0.713-0.99 1.071-1.485 0.694 0.496 1.548 0.758 2.402 0.708 0.811-0.005 1.672-0.447 1.952-1.245 0.263-0.747 0.152-1.753-0.565-2.211-0.858-0.501-2.048-0.274-2.692 0.476-0.618-0.261-1.236-0.52-1.853-0.781 0.108-1.796 0.216-3.592 0.324-5.388z"></path>
<path fill="#000" d="M1.566 0.587c0.18-0.022 0.362-0.010 0.543-0.013 6.609 0 13.219 0 19.828 0 0.274-0 0.563-0.019 0.817 0.103 0.407 0.178 0.677 0.61 0.67 1.053 0.001 6.846 0.001 13.693 0 20.539 0.021 0.621-0.534 1.176-1.155 1.155-6.83 0.002-13.661-0-20.491 0.001-0.637 0.044-1.226-0.516-1.203-1.155-0.001-6.847-0.001-13.693 0-20.539-0.016-0.559 0.433-1.084 0.991-1.143M10.8 3.723c-0.77 0.501-0.878 1.635-0.472 2.403 0.349 0.686 1.387 0.862 1.94 0.33 0.364-0.347 0.342-0.883 0.335-1.345-0.372 0.005-0.743 0.002-1.115 0.002 0 0.175-0 0.35 0 0.525 0.181 0.002 0.362 0.002 0.543 0.003 0.030 0.561-0.742 0.762-1.075 0.368-0.374-0.467-0.37-1.205-0.023-1.685 0.301-0.372 0.916-0.26 1.123 0.156 0.169-0.095 0.337-0.193 0.504-0.291-0.318-0.628-1.173-0.829-1.76-0.466M4.661 3.613c0.002 1.035 0 2.070 0.001 3.105 0.186 0.001 0.372 0.001 0.558 0-0.004-0.7 0.009-1.401-0.007-2.101 0.433 0.712 0.906 1.4 1.357 2.101 0.168 0 0.336 0 0.504 0-0-1.036-0.004-2.071 0.001-3.107-0.186 0.004-0.372 0.003-0.558 0 0.006 0.683-0.001 1.366 0.004 2.049-0.428-0.69-0.878-1.365-1.317-2.048-0.181 0.002-0.362 0.001-0.544-0M8.351 3.614c-0 1.034-0.001 2.069 0 3.103 0.191 0.003 0.381 0.002 0.571 0.002 0.001-1.035-0.001-2.070 0.001-3.105-0.191 0.001-0.382 0.001-0.573 0M13.74 3.612c0.006 1.035 0.003 2.071 0.002 3.107 0.187-0 0.374-0 0.562-0 0.001-0.444 0-0.888 0-1.332 0.439 0.006 0.879-0.013 1.318 0.012-0.005 0.441 0.004 0.881-0.005 1.321 0.183-0.002 0.366-0 0.549-0.003 0.001-1.034 0-2.069 0-3.103-0.186 0.001-0.371 0.001-0.557-0.001 0.021 0.412 0.015 0.826 0.004 1.238-0.436 0.003-0.873 0.001-1.309 0.001-0.001-0.413 0.001-0.827-0-1.24-0.188 0.003-0.376 0.003-0.563-0M17.215 3.597c-0.001 0.181-0.001 0.362-0 0.543 0.291 0.001 0.581 0 0.872 0 0 0.859-0 1.719 0 2.578 0.188 0 0.375 0 0.563-0 0-0.859 0-1.718 0-2.577 0.288-0 0.577 0 0.866-0 0-0.181 0-0.362 0-0.543-0.767 0-1.534-0.001-2.302 0M16.425 9.397c-1.064 0.127-1.998 0.831-2.494 1.768-0.795 1.478-0.898 3.224-0.762 4.867 0.142 1.428 0.584 2.988 1.797 3.876 1.393 0.967 3.542 0.81 4.668-0.505 0.559-0.637 0.878-1.448 1.067-2.265 0.239-1.074 0.279-2.186 0.181-3.28-0.090-0.915-0.293-1.836-0.732-2.652-0.331-0.621-0.831-1.165-1.465-1.482-0.692-0.352-1.498-0.424-2.26-0.326M3.445 9.563c-0.108 1.796-0.216 3.592-0.324 5.388 0.617 0.261 1.236 0.521 1.853 0.781 0.645-0.75 1.835-0.977 2.692-0.476 0.717 0.458 0.828 1.463 0.565 2.211-0.28 0.798-1.141 1.24-1.952 1.245-0.854 0.050-1.709-0.211-2.402-0.708-0.358 0.494-0.714 0.989-1.071 1.485 0.659 0.552 1.498 0.846 2.341 0.966 0.938 0.128 1.921 0.095 2.808-0.261 0.768-0.301 1.442-0.856 1.842-1.582 0.713-1.32 0.629-3.088-0.32-4.273-1.050-1.273-3.037-1.468-4.447-0.715 0.061-0.747 0.104-1.494 0.167-2.241 1.466-0.001 2.932 0.002 4.398-0.001 0.002-0.606 0.001-1.211 0-1.817-2.050-0.001-4.101-0-6.151-0z"></path>
<path fill="#000" d="M16.708 11.189c0.688-0.151 1.418 0.211 1.74 0.831 0.385 0.68 0.502 1.472 0.556 2.242 0.048 0.893 0.021 1.8-0.198 2.671-0.141 0.536-0.363 1.086-0.802 1.448-0.628 0.522-1.672 0.428-2.177-0.222-0.581-0.728-0.701-1.696-0.774-2.595-0.036-1.080-0.016-2.199 0.393-3.215 0.215-0.548 0.654-1.062 1.261-1.16z"></path>
</svg>
