<svg xmlns="http://www.w3.org/2000/svg" width="24" height="24">
    <path fill="#c1121c" d="M11.024 0h1.922c1.508.215 3.024.542 4.382 1.256 3.773 1.813 6.328 5.726 6.671 9.876v1.714c-.329 4.036-2.738 7.859-6.352 9.731-1.435.811-3.059 1.189-4.676 1.423h-1.915c-1.51-.216-3.028-.541-4.386-1.258C2.898 20.929.34 17.019-.001 12.87v-1.721C.33 6.991 2.892 3.072 6.67 1.255 8.02.545 9.526.222 11.024 0zm-.054 3.18c-4.265.402-7.831 4.292-7.846 8.579-.196 4.025 2.736 7.888 6.64 8.842 2.628.683 5.557.101 7.688-1.592 2.875-2.174 4.145-6.191 3.036-9.624-1.153-3.996-5.389-6.776-9.518-6.204z"/>
    <path fill="#f7fbf5" d="M10.97 3.18c4.129-.572 8.365 2.208 9.518 6.204 1.109 3.433-.161 7.45-3.036 9.624-2.131 1.693-5.06 2.275-7.688 1.592-3.904-.954-6.835-4.817-6.64-8.842.014-4.286 3.581-8.177 7.846-8.579zM8.683 9.331c.302.161.608.316.916.467.416-.96 1.972-1.048 2.323 0 .296.82-.436 1.534-1.248 1.451v.992c.424-.014.905.017 1.206.359.576.659.366 1.82-.443 2.195-.822.467-1.907-.032-2.196-.907a55.33 55.33 0 0 0-.965.344c.523 1.747 2.983 2.377 4.249 1.054.984-.956.856-2.668-.077-3.616.457-.604.658-1.41.461-2.149-.284-.886-1.19-1.505-2.11-1.519-.88.017-1.693.57-2.117 1.33zm7.554-1.242c-1.056.283-1.62 1.373-1.818 2.372-.275 1.552-.216 3.32.708 4.657.785 1.157 2.681 1.148 3.47.002 1.07-1.52 1.027-3.584.5-5.299-.34-1.2-1.598-2.135-2.861-1.733zm-10.08.021c-.27.376-.637.685-1.118.72.001.292.002.583.001.875.294-.004.587.004.881.001.004 2.063-.001 4.126.002 6.188h1.042c.004-2.597.004-5.195.001-7.792-.27.004-.539.006-.809.007z"/>
    <path fill="#f7fbf5" d="M16.726 9.043c.868-.112 1.386.782 1.53 1.516.236 1.235.26 2.616-.348 3.75-.352.733-1.46.899-1.942.209-.719-1.028-.71-2.386-.572-3.584.122-.763.445-1.764 1.332-1.89z"/>
    <path fill="#2a2d2f" d="M8.683 9.331c.424-.76 1.237-1.313 2.117-1.33.919.014 1.825.634 2.11 1.519.197.739-.004 1.546-.461 2.149.932.948 1.061 2.659.077 3.616-1.266 1.324-3.726.694-4.249-1.054.32-.119.642-.233.965-.344.289.875 1.374 1.374 2.196.907.809-.374 1.019-1.536.443-2.195-.301-.342-.782-.373-1.206-.359v-.992c.812.083 1.544-.631 1.248-1.451-.352-1.048-1.907-.96-2.323 0a32.856 32.856 0 0 1-.916-.467zM16.237 8.089c1.262-.402 2.521.533 2.861 1.733.527 1.715.57 3.779-.5 5.299-.79 1.146-2.686 1.154-3.47-.002-.924-1.337-.983-3.106-.708-4.657.198-1 .762-2.089 1.818-2.372zm.489.954c-.887.126-1.21 1.127-1.332 1.89-.138 1.199-.146 2.556.572 3.584.481.69 1.59.524 1.942-.209.608-1.134.584-2.515.348-3.75-.144-.733-.662-1.627-1.53-1.516zM6.157 8.11c.27-.001.539-.004.809-.007.002 2.597.002 5.195-.001 7.792H5.923c-.004-2.063.001-4.126-.002-6.188-.294.002-.587-.005-.881-.001.001-.292 0-.583-.001-.875.481-.035.848-.344 1.118-.72z"/>
</svg>
