<?xml version="1.0" encoding="utf-8"?>
<!-- Generated by IcoMoon.io -->
<!DOCTYPE svg PUBLIC "-//W3C//DTD SVG 1.1//EN" "http://www.w3.org/Graphics/SVG/1.1/DTD/svg11.dtd">
<svg version="1.1" xmlns="http://www.w3.org/2000/svg" xmlns:xlink="http://www.w3.org/1999/xlink" width="24" height="24" viewBox="0 0 24 24">
<path fill="#176fc1" d="M3.454 3.576c2.214-2.278 5.371-3.593 8.548-3.571 2.684-0.018 5.346 0.92 7.454 2.578-1.080 1.055-2.122 2.149-3.216 3.187-0.474-0.878-1.145-1.813-2.188-2.016-0.841-0.094-1.69-0.018-2.533-0.042-0.8 0.017-1.696-0.126-2.384 0.384-1.082 0.772-1.628 2.060-2.008 3.29-0.714 2.521-0.751 5.21-0.275 7.778-1.41 1.44-2.851 2.848-4.266 4.282-1.529-1.933-2.42-4.332-2.586-6.787v-1.11c0.118-2.963 1.356-5.87 3.454-7.973z"></path>
<path fill="#176fc1" d="M8.61 4.894c0.421-0.508 1.020-0.967 1.714-0.94 1.201 0.016 2.405-0.008 3.606 0.011 1.033 0.144 1.676 1.099 2.14 1.945l-0.041 0.049c-0.059 0.062-0.176 0.188-0.236 0.251-0.295-0.572-0.656-1.114-1.144-1.542-0.383 0.438-0.769 0.872-1.174 1.289 0.685 0.151 1.344 0.402 2.034 0.534-0.034 0.032-0.101 0.097-0.134 0.13-0.2-0.038-0.397-0.086-0.595-0.133-0.005 0.048-0.016 0.144-0.020 0.192 0.145 0.041 0.29 0.082 0.436 0.124-0.032 0.032-0.096 0.097-0.128 0.131-0.545-0.164-1.102-0.287-1.65-0.442 0.199 0.52 0.364 1.052 0.517 1.588-0.054 0.053-0.108 0.107-0.16 0.161-0.161-0.661-0.338-1.328-0.673-1.927-0.26 0.568-0.532 1.135-0.722 1.729 0.037 0.437 0.218 0.847 0.298 1.277-0.109 0.103-0.216 0.211-0.318 0.322-0.181-0.698-0.276-1.493-0.851-1.997-0.197 0.205-0.397 0.421-0.497 0.694-0.382 1.001-0.462 2.082-0.502 3.142-0.104 0.106-0.208 0.211-0.308 0.32-0.032-0.823 0.060-1.645 0.204-2.455 0.133-0.689 0.314-1.428 0.863-1.914 0.109-0.005 0.328-0.014 0.437-0.019-0.202-0.251-0.436-0.472-0.698-0.658-0.142 0.040-0.284 0.079-0.427 0.118-0.242 0.262-0.506 0.5-0.744 0.766-0.578 1.026-0.713 2.213-0.889 3.356 0.030 0.564 0.032 1.13-0.005 1.694 0.018 0.074 0.053 0.224 0.071 0.299-0.024 0.024-0.071 0.073-0.095 0.097-0.023-0.050-0.070-0.151-0.092-0.202-0.259-0.17-0.184 0.299-0.161 0.434-0.034 0.038-0.102 0.118-0.136 0.157-0.022-0.476-0.088-0.949-0.15-1.421-0.282 0.004-0.564 0.007-0.846 0.014-0.113 0.13-0.228 0.257-0.346 0.383-0.006 0.72 0.070 1.436 0.202 2.143-0.116 0.109-0.224 0.226-0.331 0.344-0.396-2.12-0.376-4.321 0.038-6.437 0.27-1.279 0.689-2.573 1.516-3.607M8.232 6.239c0.036 0.058 0.109 0.172 0.145 0.229-0.011 0.581 0.474 1.010 0.69 1.522 0.095-0.218 0.209-0.43 0.355-0.618 0.214-0.323 0.464-0.653 0.823-0.821 0.126-0.072 0.354-0.113 0.301-0.313-0.066-0.653 0.088-1.405-0.404-1.925-0.931 0.254-1.523 1.094-1.91 1.926M10.451 4.375c-0.066 0.203 0.334 0.174 0.258-0.016-0.065 0.004-0.193 0.012-0.258 0.016M10.964 4.318c-0.095 0.156-0.208 0.304-0.283 0.47-0.014 0.504 0.005 1.008 0.014 1.512 0.318 0.163 0.66 0.306 0.916 0.564 0.266 0.284 0.44 0.637 0.635 0.971 0.28-0.666 0.65-1.32 0.612-2.066-0.416-0.672-0.99-1.548-1.894-1.451M11.854 4.32c0.514 0.39 0.894 0.91 1.232 1.451 0.415-0.421 0.786-0.882 1.189-1.314-0.775-0.266-1.618-0.082-2.422-0.137M14.141 4.934c0.080-0.078 0.080-0.078 0 0M14.062 5.016c-0.078 0.077-0.078 0.077 0 0 0.019-0.020 0.060-0.061 0.079-0.082-0.019 0.020-0.060 0.061-0.079 0.082M13.091 5.896c-0.234 0.047-0.151 0.428 0.088 0.344 0.245-0.035 0.13-0.406-0.088-0.344M13.451 6.12c-0.002 0.050-0.007 0.15-0.008 0.2 0.388 0.097 0.77 0.217 1.165 0.287-0.216-0.398-0.778-0.326-1.157-0.487M8.072 6.52c0.073 0.056 0.073 0.056 0 0M10.612 6.499c-0.052 0.163 0.010 0.217 0.184 0.161 0.053-0.162-0.008-0.216-0.184-0.161M9.636 7.346l0.054 0.113c0.304-0.187 0.536-0.468 0.728-0.764-0.353 0.078-0.569 0.39-0.782 0.652M7.427 8.868c0.274 0.455 0.694 0.78 1.090 1.121 0.133-0.19 0.121-0.43 0.164-0.648 0.060-0.392 0.235-0.755 0.322-1.141-0.342-0.482-0.527-1.078-0.967-1.483-0.293 0.686-0.485 1.416-0.608 2.152M9.104 8.572c0.346-0.226 0.41-0.68 0.508-1.050-0.347 0.226-0.426 0.674-0.508 1.050M8.95 9.733c0.098-0.336 0.178-0.678 0.194-1.028-0.246 0.229-0.443 0.764-0.194 1.028M7.35 9.125c-0.060 0.794-0.197 1.582-0.167 2.382 0.116 0.116 0.228 0.238 0.331 0.367 0.293 0.006 0.586 0.006 0.878 0.006-0.016-0.552 0.13-1.092 0.13-1.643-0.388-0.247-0.652-0.802-1.148-0.79 0.022-0.079 0.065-0.236 0.086-0.316l-0.11-0.007M8.797 9.835c-0.103 0.35-0.148 0.715-0.157 1.080 0.356-0.218 0.277-0.746 0.157-1.080M8.593 11.995c0.028 0.223-0.073 0.515 0.151 0.667 0.038-0.554 0.043-1.111-0.011-1.664-0.217 0.288-0.116 0.665-0.14 0.997z"></path>
<path fill="#176fc1" d="M21.409 4.54c1.591 2.023 2.519 4.553 2.591 7.128v0.664c-0.088 3.119-1.435 6.179-3.701 8.327-2.045 1.975-4.801 3.154-7.633 3.342h-1.327c-2.459-0.164-4.856-1.067-6.793-2.594 1.117-1.090 2.192-2.222 3.323-3.299 0.502 0.874 1.254 1.81 2.344 1.86 1.154 0.022 2.311 0.007 3.466 0.007 0.767 0.016 1.436-0.461 1.9-1.034 0.707-0.878 1.111-1.956 1.4-3.034 0.598-2.33 0.63-4.787 0.226-7.152 1.396-1.411 2.809-2.806 4.206-4.214z"></path>
<path fill="#176fc1" d="M10.789 11.171c-0.030-1.115 0.107-2.309 0.715-3.269 0.377 0.594 0.532 1.286 0.64 1.972-0.437 0.446-0.854 0.918-1.355 1.297z"></path>
<path fill="#176fc1" d="M16.733 9.305c0.101-0.116 0.202-0.233 0.3-0.352 0.139 1.249 0.305 2.507 0.2 3.766-0.096 1.663-0.378 3.343-1.076 4.867-0.36 0.752-0.841 1.498-1.576 1.93-0.49 0.289-1.081 0.23-1.626 0.235-0.916-0.017-1.832 0.020-2.748-0.013-1.016-0.064-1.687-0.97-2.16-1.776l0.054-0.053c0.198-0.181 0.394-0.367 0.569-0.57-0.070 0.182-0.14 0.365-0.22 0.542 0.439 0.727 1.152 1.673 2.123 1.403 0.067 0.061 0.134 0.122 0.202 0.185-0.032-0.7-0.042-1.399-0.035-2.099-0.504-0.158-0.925-0.474-1.249-0.888 0.070-0.104 0.131-0.214 0.196-0.32l0.155-0.031c0.263 0.203 0.493 0.445 0.724 0.683 0.163 0.037 0.325 0.076 0.487 0.115 0.224-0.2 0.439-0.41 0.648-0.626-0.589 0.046-0.856-0.502-1.061-0.954 0.036-0.032 0.107-0.098 0.143-0.131 0.028-0.030 0.084-0.090 0.113-0.121 0.143 0.3 0.258 0.632 0.509 0.864 0.248 0.067 0.367-0.188 0.473-0.361 0.332-0.625 0.404-1.34 0.552-2.022 0.14-0.137 0.28-0.276 0.41-0.422 0.001 0.086 0.006 0.259 0.007 0.346 0.324 0.306 0.601 0.667 0.968 0.924l0.152-0.025c0.125-0.75 0.238-1.518 0.157-2.28 0.062-0.13 0.406-0.27 0.17-0.397 0.077-0.070 0.152-0.142 0.227-0.215l0.010 0.169c0.377-0.214 0.756-0.456 1.004-0.822-0.337 0.134-0.636 0.343-0.922 0.564 0.21-0.208 0.418-0.42 0.62-0.635 0.316-0.263 0.644-0.51 0.977-0.749l-0.124-0.161c0.163-0.047 0.478-0.017 0.323 0.226-0.254 0.226-0.547 0.403-0.817 0.608 0.014 0.042 0.044 0.126 0.059 0.168 0.305-0.205 0.605-0.419 0.911-0.623-0.035-0.224 0.002-0.481-0.157-0.666 0.049-0.030 0.145-0.090 0.194-0.119 0.046 0.095 0.091 0.19 0.138 0.284-0.001-0.15-0.004-0.299-0.005-0.448M16.782 10.235c-0.667 0.588-1.418 1.075-2.138 1.597 0.727 0.347 1.453 0.697 2.176 1.055 0.008 0.043 0.026 0.131 0.035 0.174 0.017-0.943 0.034-1.886-0.072-2.826M14.434 11.989c0.276 0.323 0.701 0.449 1.080 0.607-0.187-0.391-0.701-0.486-1.080-0.607M14.333 12.246c-0.037 0.698-0.037 1.403-0.18 2.090 0.708-0.409 1.469-0.714 2.202-1.074-0.649-0.389-1.349-0.674-2.022-1.016M15.578 12.592c0.336 0.192 0.721 0.604 1.139 0.464-0.358-0.199-0.716-0.448-1.139-0.464M15.452 13.976c0.421-0.074 0.833-0.254 1.148-0.55-0.425 0.062-0.841 0.248-1.148 0.55M12.361 15.604c0.221 0.528 0.455 1.056 0.736 1.554l0.116 0.004c0.278-0.566 0.434-1.187 0.583-1.798 0.112-0.282-0.072-0.538-0.155-0.797-0.283-0.284-0.564-0.572-0.851-0.852-0.059 0.648-0.282 1.261-0.43 1.889M15.532 14.2c-0.496 0.277-1.057 0.667-1.63 0.347-0.040 0.166 0.014 0.382 0.246 0.36l-0.083-0.17c0.134 0.001 0.27 0.002 0.404 0.006 0.534 0.606 1.15 1.132 1.732 1.69 0.316-0.916 0.452-1.876 0.598-2.828-0.412 0.22-0.83 0.428-1.267 0.596M14.256 14.516c0.4-0.044 0.888-0.2 1.12-0.523-0.414 0.052-0.784 0.287-1.12 0.523M14.369 14.946c-0.104 0.089-0.222 0.11-0.354 0.064-0.064 0.739-0.329 1.447-0.586 2.138 0.398-0.116 0.803-0.209 1.208-0.294 0.082 0.097 0.152 0.203 0.223 0.308 0.311-0.077 0.624-0.146 0.938-0.212-0.028 0.061-0.080 0.185-0.107 0.246-0.696 0.037-1.358 0.272-2.035 0.419 0.377 0.434 0.811 0.814 1.213 1.224 0.458-0.494 0.839-1.068 1.057-1.709-0.094-0.126-0.006-0.234 0.107-0.301-0.421-0.052-0.829 0.068-1.234 0.17 0.026-0.060 0.078-0.179 0.103-0.239 0.246-0.029 0.49-0.074 0.734-0.115-0.478-0.502-0.973-0.989-1.52-1.415 0.054-0.059 0.107-0.118 0.162-0.174 0.274 0.246 0.491 0.612 0.875 0.696-0.222-0.306-0.508-0.554-0.786-0.806M15.157 15.811c0.222 0.365 0.534 0.689 0.923 0.874-0.191-0.388-0.535-0.692-0.923-0.874M10.921 17.268c-0.001 0.605-0.002 1.211 0.001 1.816 0.080 0.098 0.16 0.196 0.239 0.295 0.952-0.094 1.42-1.050 1.884-1.748 0.076-0.005 0.227-0.014 0.304-0.019 0.007-0.366-0.29-0.227-0.494-0.132 0.076-0.599-0.414-1.1-0.605-1.648-0.286 0.596-0.672 1.205-1.328 1.436M9.66 16.427c0.216 0.2 0.419 0.415 0.648 0.602 0.168-0.299-0.356-0.494-0.47-0.732-0.060 0.042-0.119 0.085-0.178 0.13M10.608 17.036c0.001 0.395 0.373-0.173 0 0M13.46 17.332c0.042 0.025 0.125 0.077 0.167 0.102 0.355-0.079 0.736-0.113 1.046-0.319-0.416-0.079-0.817 0.116-1.213 0.217M13.165 17.779c-0.37 0.599-0.751 1.229-1.373 1.601 0.908-0.118 1.894 0.186 2.74-0.254-0.434-0.47-0.9-0.91-1.367-1.346M13.649 17.946c0.004 0.172 0.204 0.374 0.377 0.366 0.014-0.175-0.2-0.39-0.377-0.366z"></path>
<path fill="#176fc1" d="M11.071 14.896c0.34-0.368 0.696-0.721 1.064-1.060-0.151 0.643-0.167 1.429-0.685 1.9-0.16-0.263-0.271-0.552-0.379-0.84z"></path>
<path fill="#ee1c23" d="M16.24 5.77c1.094-1.038 2.136-2.132 3.216-3.187 0.727 0.569 1.384 1.23 1.954 1.957-1.397 1.409-2.81 2.803-4.206 4.214-0.059 0.065-0.115 0.132-0.17 0.199-0.098 0.119-0.199 0.235-0.3 0.352 0.001 0.149 0.004 0.298 0.005 0.448-0.047-0.095-0.092-0.19-0.138-0.284-0.049 0.029-0.145 0.089-0.194 0.119-0.055 0.031-0.166 0.092-0.221 0.124-0.301 0.371-0.65 0.701-0.95 1.073-0.203 0.215-0.41 0.427-0.62 0.635-0.023 0.023-0.070 0.067-0.092 0.089-0.074 0.073-0.15 0.145-0.227 0.215-0.51 0.452-1.015 0.912-1.456 1.433-0.131 0.146-0.27 0.286-0.41 0.422-0.097 0.088-0.197 0.172-0.293 0.259-0.368 0.338-0.725 0.691-1.064 1.060-0.059 0.066-0.119 0.133-0.176 0.2-0.029 0.031-0.085 0.091-0.113 0.121-0.036 0.032-0.107 0.098-0.143 0.131-0.286 0.24-0.54 0.512-0.798 0.782l-0.155 0.031c-0.065 0.107-0.126 0.216-0.196 0.32-0.286 0.274-0.584 0.538-0.821 0.857-0.175 0.203-0.371 0.389-0.569 0.57-0.078 0.066-0.155 0.132-0.233 0.198-1.13 1.076-2.206 2.209-3.323 3.299-0.734-0.564-1.39-1.23-1.96-1.96 1.415-1.434 2.856-2.842 4.266-4.282 0.068-0.076 0.136-0.151 0.204-0.227 0.107-0.119 0.215-0.235 0.331-0.344 0.404-0.347 0.791-0.716 1.14-1.12 0.034-0.040 0.102-0.119 0.136-0.157 0.091-0.072 0.175-0.149 0.253-0.233 0.024-0.024 0.071-0.073 0.095-0.097 0.416-0.376 0.817-0.768 1.189-1.187 0.101-0.109 0.204-0.215 0.308-0.32 0.103-0.095 0.197-0.197 0.281-0.308 0.5-0.379 0.918-0.851 1.355-1.297 0.071-0.078 0.142-0.156 0.214-0.233 0.102-0.11 0.209-0.218 0.318-0.322 0.384-0.341 0.746-0.703 1.098-1.079 0.052-0.054 0.106-0.108 0.16-0.161 0.39-0.37 0.773-0.746 1.133-1.146 0.032-0.034 0.096-0.098 0.128-0.131 0.060-0.061 0.12-0.122 0.18-0.182 0.034-0.032 0.101-0.097 0.134-0.13 0.097-0.091 0.192-0.185 0.283-0.281 0.060-0.062 0.178-0.188 0.236-0.251 0.070-0.064 0.14-0.127 0.211-0.19z"></path>
<path fill="#fff" d="M9.134 4.096c0.689-0.51 1.584-0.367 2.384-0.384 0.844 0.024 1.692-0.052 2.533 0.042 1.043 0.203 1.714 1.138 2.188 2.016-0.071 0.062-0.142 0.126-0.211 0.19l0.041-0.049c-0.463-0.846-1.106-1.801-2.14-1.945-1.201-0.019-2.405 0.005-3.606-0.011-0.694-0.028-1.292 0.432-1.714 0.94-0.827 1.034-1.246 2.328-1.516 3.607-0.414 2.116-0.434 4.316-0.038 6.437-0.068 0.076-0.136 0.151-0.204 0.227-0.476-2.568-0.439-5.257 0.275-7.778 0.379-1.23 0.925-2.519 2.008-3.29z"></path>
<path fill="#fff" d="M8.232 6.239c0.388-0.832 0.979-1.672 1.91-1.926 0.492 0.52 0.338 1.272 0.404 1.925 0.053 0.2-0.175 0.241-0.301 0.313-0.359 0.168-0.61 0.498-0.823 0.821-0.146 0.188-0.26 0.4-0.355 0.618-0.216-0.511-0.701-0.941-0.69-1.522-0.036-0.058-0.109-0.172-0.145-0.229z"></path>
<path fill="#fff" d="M10.451 4.375c0.065-0.004 0.193-0.012 0.258-0.016 0.076 0.19-0.324 0.218-0.258 0.016z"></path>
<path fill="#fff" d="M10.964 4.318c0.904-0.097 1.477 0.779 1.894 1.451 0.038 0.746-0.332 1.4-0.612 2.066-0.194-0.334-0.368-0.686-0.635-0.971-0.256-0.258-0.598-0.401-0.916-0.564-0.010-0.504-0.029-1.008-0.014-1.512 0.076-0.167 0.188-0.314 0.283-0.47z"></path>
<path fill="#fff" d="M11.854 4.32c0.804 0.055 1.646-0.13 2.422 0.137-0.403 0.432-0.774 0.893-1.189 1.314-0.338-0.541-0.719-1.061-1.232-1.451z"></path>
<path fill="#fff" d="M14.141 4.934c0.080-0.078 0.080-0.078 0 0z"></path>
<path fill="#fff" d="M13.475 5.957c0.404-0.416 0.791-0.851 1.174-1.289 0.487 0.428 0.848 0.97 1.144 1.542-0.091 0.096-0.186 0.19-0.283 0.281-0.69-0.132-1.349-0.383-2.034-0.534z"></path>
<path fill="#fff" d="M14.062 5.016c0.019-0.020 0.060-0.061 0.079-0.082-0.019 0.020-0.060 0.061-0.079 0.082z"></path>
<path fill="#fff" d="M14.062 5.016c-0.078 0.077-0.078 0.077 0 0z"></path>
<path fill="#fff" d="M13.091 5.896c0.217-0.061 0.332 0.31 0.088 0.344-0.239 0.084-0.322-0.298-0.088-0.344z"></path>
<path fill="#fff" d="M13.451 6.12c0.379 0.161 0.941 0.089 1.157 0.487-0.395-0.070-0.778-0.19-1.165-0.287 0.001-0.050 0.006-0.15 0.008-0.2z"></path>
<path fill="#fff" d="M8.072 6.52c0.073 0.056 0.073 0.056 0 0z"></path>
<path fill="#fff" d="M10.612 6.499c0.175-0.055 0.236-0.001 0.184 0.161-0.174 0.056-0.235 0.002-0.184-0.161z"></path>
<path fill="#fff" d="M12.378 8.042c0.191-0.594 0.462-1.162 0.722-1.729 0.335 0.599 0.512 1.266 0.673 1.927-0.352 0.376-0.714 0.738-1.098 1.079-0.079-0.43-0.26-0.84-0.298-1.277z"></path>
<path fill="#fff" d="M13.416 6.492c0.548 0.155 1.105 0.277 1.65 0.442-0.36 0.4-0.743 0.776-1.133 1.146-0.154-0.535-0.318-1.068-0.517-1.588z"></path>
<path fill="#fff" d="M14.779 6.487c0.198 0.047 0.395 0.095 0.595 0.133-0.060 0.060-0.12 0.121-0.18 0.182-0.145-0.042-0.29-0.083-0.436-0.124 0.005-0.048 0.016-0.144 0.020-0.192z"></path>
<path fill="#fff" d="M9.636 7.346c0.214-0.262 0.43-0.574 0.782-0.652-0.192 0.296-0.425 0.577-0.728 0.764l-0.054-0.113z"></path>
<path fill="#fff" d="M11.005 6.754c0.263 0.186 0.497 0.407 0.698 0.658-0.109 0.005-0.328 0.014-0.437 0.019-0.548 0.486-0.73 1.225-0.863 1.914-0.144 0.81-0.236 1.632-0.204 2.455-0.372 0.419-0.773 0.811-1.189 1.187-0.018-0.074-0.053-0.224-0.071-0.299 0.037-0.564 0.035-1.13 0.005-1.694 0.176-1.144 0.311-2.33 0.889-3.356 0.238-0.265 0.502-0.504 0.744-0.766 0.143-0.038 0.286-0.078 0.427-0.118z"></path>
<path fill="#fff" d="M7.427 8.868c0.124-0.736 0.316-1.465 0.608-2.152 0.44 0.406 0.625 1.001 0.967 1.483-0.086 0.386-0.262 0.749-0.322 1.141-0.043 0.218-0.031 0.458-0.164 0.648-0.396-0.341-0.816-0.666-1.090-1.121z"></path>
<path fill="#fff" d="M9.104 8.572c0.082-0.376 0.161-0.824 0.508-1.050-0.097 0.37-0.162 0.824-0.508 1.050z"></path>
<path fill="#fff" d="M11.010 8.338c0.1-0.272 0.3-0.488 0.497-0.694 0.575 0.504 0.67 1.298 0.851 1.997-0.072 0.077-0.143 0.155-0.214 0.233-0.108-0.685-0.263-1.378-0.64-1.972-0.608 0.96-0.745 2.154-0.715 3.269-0.084 0.112-0.178 0.214-0.281 0.308 0.040-1.060 0.12-2.141 0.502-3.142z"></path>
<path fill="#fff" d="M8.95 9.733c-0.248-0.264-0.052-0.799 0.194-1.028-0.017 0.35-0.096 0.692-0.194 1.028z"></path>
<path fill="#fff" d="M17.033 8.953c0.055-0.067 0.112-0.134 0.17-0.199 0.404 2.365 0.372 4.822-0.226 7.152-0.289 1.078-0.694 2.155-1.4 3.034-0.463 0.574-1.133 1.050-1.9 1.034-1.154 0-2.311 0.014-3.466-0.007-1.090-0.050-1.842-0.986-2.344-1.86 0.078-0.066 0.155-0.132 0.233-0.198l-0.054 0.053c0.473 0.806 1.144 1.712 2.16 1.776 0.916 0.034 1.832-0.004 2.748 0.013 0.545-0.005 1.136 0.054 1.626-0.235 0.734-0.432 1.216-1.177 1.576-1.93 0.698-1.524 0.98-3.204 1.076-4.867 0.104-1.259-0.061-2.516-0.2-3.766z"></path>
<path fill="#fff" d="M7.35 9.125l0.11 0.007c-0.022 0.079-0.065 0.236-0.086 0.316 0.497-0.012 0.761 0.542 1.148 0.79 0 0.551-0.145 1.091-0.13 1.643-0.293 0-0.586 0-0.878-0.006-0.103-0.13-0.215-0.251-0.331-0.367-0.030-0.8 0.107-1.588 0.167-2.382z"></path>
<path fill="#fff" d="M16.184 9.71c0.055-0.031 0.166-0.092 0.221-0.124 0.16 0.185 0.122 0.442 0.157 0.666-0.306 0.204-0.606 0.418-0.911 0.623-0.014-0.042-0.044-0.126-0.059-0.168 0.27-0.205 0.563-0.383 0.817-0.608 0.155-0.242-0.16-0.272-0.323-0.226l0.124 0.161c-0.332 0.239-0.661 0.486-0.977 0.749 0.3-0.372 0.649-0.702 0.95-1.073z"></path>
<path fill="#fff" d="M8.797 9.835c0.12 0.334 0.199 0.862-0.157 1.080 0.010-0.365 0.054-0.73 0.157-1.080z"></path>
<path fill="#fff" d="M16.782 10.235c0.106 0.94 0.089 1.883 0.072 2.826-0.008-0.043-0.026-0.131-0.035-0.174-0.722-0.358-1.448-0.708-2.176-1.055 0.72-0.522 1.471-1.009 2.138-1.597z"></path>
<path fill="#fff" d="M14.614 11.418c0.286-0.221 0.584-0.43 0.922-0.564-0.248 0.366-0.628 0.608-1.004 0.822l-0.010-0.169c0.023-0.022 0.070-0.066 0.092-0.089z"></path>
<path fill="#fff" d="M8.593 11.995c0.024-0.332-0.077-0.709 0.14-0.997 0.054 0.553 0.049 1.11 0.011 1.664-0.224-0.152-0.124-0.444-0.151-0.667z"></path>
<path fill="#fff" d="M12.839 13.154c0.44-0.521 0.946-0.98 1.456-1.433 0.235 0.127-0.108 0.268-0.17 0.397 0.080 0.762-0.032 1.53-0.157 2.28l-0.152 0.025c-0.367-0.257-0.644-0.618-0.968-0.924-0.001-0.086-0.006-0.259-0.007-0.346z"></path>
<path fill="#fff" d="M14.434 11.989c0.379 0.121 0.893 0.216 1.080 0.607-0.379-0.158-0.804-0.284-1.080-0.607z"></path>
<path fill="#fff" d="M7.531 12.067c0.282-0.007 0.564-0.011 0.846-0.014 0.062 0.472 0.128 0.944 0.15 1.421-0.349 0.403-0.736 0.773-1.14 1.12-0.132-0.707-0.208-1.423-0.202-2.143 0.118-0.126 0.233-0.253 0.346-0.383z"></path>
<path fill="#fff" d="M14.333 12.246c0.673 0.342 1.373 0.628 2.022 1.016-0.733 0.36-1.494 0.665-2.202 1.074 0.143-0.688 0.143-1.392 0.18-2.090z"></path>
<path fill="#fff" d="M15.578 12.592c0.422 0.017 0.781 0.265 1.139 0.464-0.418 0.139-0.803-0.272-1.139-0.464z"></path>
<path fill="#fff" d="M8.663 13.316c-0.023-0.136-0.098-0.605 0.161-0.434 0.023 0.050 0.070 0.151 0.092 0.202-0.078 0.084-0.162 0.161-0.253 0.233z"></path>
<path fill="#fff" d="M15.452 13.976c0.307-0.301 0.724-0.487 1.148-0.55-0.316 0.295-0.727 0.475-1.148 0.55z"></path>
<path fill="#fff" d="M12.136 13.836c0.096-0.088 0.196-0.172 0.293-0.259-0.148 0.682-0.22 1.397-0.552 2.022-0.106 0.173-0.224 0.428-0.473 0.361-0.251-0.232-0.366-0.564-0.509-0.864 0.058-0.067 0.118-0.134 0.176-0.2 0.108 0.288 0.22 0.577 0.379 0.84 0.518-0.47 0.534-1.256 0.685-1.9z"></path>
<path fill="#fff" d="M12.361 15.604c0.148-0.628 0.371-1.241 0.43-1.889 0.287 0.28 0.568 0.568 0.851 0.852 0.083 0.259 0.266 0.515 0.155 0.797-0.149 0.611-0.305 1.231-0.583 1.798l-0.116-0.004c-0.281-0.498-0.515-1.026-0.736-1.554z"></path>
<path fill="#fff" d="M15.532 14.2c0.437-0.168 0.856-0.377 1.267-0.596-0.145 0.953-0.282 1.913-0.598 2.828-0.582-0.558-1.198-1.084-1.732-1.69-0.134-0.004-0.27-0.005-0.404-0.006l0.083 0.17c-0.232 0.022-0.286-0.194-0.246-0.36 0.572 0.32 1.134-0.070 1.63-0.347z"></path>
<path fill="#fff" d="M14.256 14.516c0.336-0.236 0.706-0.472 1.12-0.523-0.232 0.323-0.72 0.479-1.12 0.523z"></path>
<path fill="#fff" d="M14.369 14.946c0.278 0.252 0.564 0.5 0.786 0.806-0.384-0.084-0.601-0.45-0.875-0.696-0.055 0.056-0.108 0.115-0.162 0.174 0.547 0.426 1.043 0.913 1.52 1.415-0.245 0.041-0.488 0.086-0.734 0.115-0.025 0.060-0.077 0.179-0.103 0.239 0.404-0.102 0.812-0.222 1.234-0.17-0.113 0.067-0.2 0.175-0.107 0.301-0.218 0.641-0.599 1.214-1.057 1.709-0.402-0.41-0.836-0.79-1.213-1.224 0.677-0.146 1.339-0.382 2.035-0.419 0.026-0.061 0.079-0.185 0.107-0.246-0.314 0.066-0.628 0.136-0.938 0.212-0.071-0.106-0.142-0.211-0.223-0.308-0.406 0.085-0.81 0.178-1.208 0.294 0.257-0.691 0.522-1.399 0.586-2.138 0.132 0.047 0.25 0.025 0.354-0.064z"></path>
<path fill="#fff" d="M9.841 16.13c0.258-0.27 0.512-0.542 0.798-0.782 0.205 0.452 0.472 1 1.061 0.954-0.209 0.216-0.424 0.426-0.648 0.626-0.162-0.040-0.324-0.078-0.487-0.115-0.23-0.238-0.461-0.48-0.724-0.683z"></path>
<path fill="#fff" d="M15.157 15.811c0.388 0.181 0.732 0.486 0.923 0.874-0.389-0.185-0.701-0.509-0.923-0.874z"></path>
<path fill="#fff" d="M10.921 17.268c0.656-0.232 1.043-0.84 1.328-1.436 0.191 0.547 0.68 1.049 0.605 1.648 0.204-0.095 0.502-0.234 0.494 0.132-0.077 0.005-0.228 0.014-0.304 0.019-0.464 0.698-0.932 1.655-1.884 1.748-0.079-0.1-0.158-0.197-0.239-0.295-0.004-0.605-0.002-1.211-0.001-1.816z"></path>
<path fill="#fff" d="M9.66 16.427c0.059-0.044 0.118-0.088 0.178-0.13 0.114 0.238 0.638 0.433 0.47 0.732-0.229-0.187-0.432-0.402-0.648-0.602z"></path>
<path fill="#fff" d="M8.67 17.339c0.236-0.319 0.535-0.583 0.821-0.857 0.324 0.414 0.745 0.73 1.249 0.888-0.007 0.7 0.002 1.399 0.035 2.099-0.067-0.062-0.134-0.124-0.202-0.185-0.971 0.27-1.684-0.676-2.123-1.403 0.079-0.178 0.15-0.36 0.22-0.542z"></path>
<path fill="#fff" d="M10.608 17.036c0.373-0.173 0.001 0.395 0 0z"></path>
<path fill="#fff" d="M13.46 17.332c0.396-0.101 0.797-0.296 1.213-0.217-0.311 0.206-0.691 0.24-1.046 0.319-0.042-0.025-0.125-0.077-0.167-0.102z"></path>
<path fill="#fff" d="M13.165 17.779c0.467 0.437 0.932 0.876 1.367 1.346-0.846 0.44-1.831 0.137-2.74 0.254 0.622-0.372 1.003-1.002 1.373-1.601z"></path>
<path fill="#fff" d="M13.649 17.946c0.176-0.024 0.391 0.191 0.377 0.366-0.173 0.008-0.373-0.194-0.377-0.366z"></path>
</svg>
