<!-- Generated by IcoMoon.io -->
<svg version="1.1" xmlns="http://www.w3.org/2000/svg" width="24" height="24" viewBox="0 0 24 24">
<title>regulatory--maximum-speed-limit-10--g1</title>
<path fill="#ec1d24" d="M10.992 0h1.982c4.2 0.397 8.124 3.049 9.878 6.913 0.659 1.352 0.958 2.838 1.147 4.321v1.502c-0.253 2.765-1.35 5.476-3.293 7.487-2.023 2.182-4.879 3.474-7.822 3.776h-1.753c-4.081-0.348-7.934-2.815-9.793-6.49-0.75-1.394-1.12-2.95-1.339-4.507v-1.984c0.2-1.447 0.52-2.894 1.175-4.212 1.772-3.808 5.662-6.407 9.817-6.808M10.962 2.448c-3.611 0.337-6.865 2.932-8.036 6.358-0.898 2.533-0.67 5.442 0.634 7.794 1.668 3.109 5.149 5.132 8.681 4.993 3.704-0.042 7.212-2.471 8.612-5.89 1.141-2.696 0.956-5.914-0.511-8.45-1.811-3.277-5.659-5.255-9.379-4.805z"></path>
<path fill="#fff" d="M10.962 2.448c3.72-0.45 7.568 1.528 9.379 4.805 1.468 2.537 1.652 5.754 0.511 8.45-1.4 3.419-4.908 5.848-8.612 5.89-3.532 0.139-7.013-1.884-8.681-4.993-1.303-2.352-1.531-5.261-0.634-7.794 1.171-3.426 4.426-6.020 8.036-6.358M14.334 7.396c-0.99 0.080-1.956 0.596-2.47 1.464-0.737 1.226-0.788 2.725-0.68 4.114 0.109 1.252 0.607 2.609 1.768 3.244 1.262 0.638 2.897 0.635 4.11-0.118 1.289-0.86 1.614-2.531 1.621-3.979 0.002-1.314-0.18-2.766-1.117-3.766-0.811-0.877-2.095-1.075-3.232-0.959M7.208 7.513c-0.1 0.836-0.778 1.477-1.643 1.384 0.016 0.528-0.023 1.057 0.025 1.584 0.476-0.014 0.953-0.008 1.428-0.007 0.004 1.986-0.001 3.972 0.002 5.958 0.604 0.001 1.208 0.002 1.812-0.002-0.004-2.972 0.004-5.945-0.004-8.917-0.54 0-1.081-0.001-1.621 0.001z"></path>
<path fill="#fff" d="M14.203 9.184c0.69-0.244 1.585-0.142 2.047 0.48 0.478 0.629 0.538 1.458 0.565 2.221-0.005 0.814-0.032 1.691-0.487 2.399-0.62 0.948-2.243 0.92-2.825-0.058-0.547-0.913-0.524-2.038-0.444-3.065 0.068-0.77 0.348-1.679 1.144-1.978z"></path>
<path fill="#000" d="M14.334 7.396c1.136-0.116 2.42 0.082 3.232 0.959 0.937 1 1.12 2.452 1.117 3.766-0.007 1.448-0.332 3.119-1.621 3.979-1.213 0.752-2.848 0.756-4.11 0.118-1.16-0.635-1.658-1.992-1.768-3.244-0.108-1.388-0.056-2.887 0.68-4.114 0.514-0.868 1.48-1.384 2.47-1.464M14.203 9.184c-0.796 0.299-1.075 1.207-1.144 1.978-0.080 1.027-0.103 2.152 0.444 3.065 0.582 0.978 2.204 1.006 2.825 0.058 0.455-0.708 0.482-1.585 0.487-2.399-0.028-0.763-0.088-1.592-0.565-2.221-0.462-0.622-1.357-0.724-2.047-0.48z"></path>
<path fill="#000" d="M7.208 7.513c0.54-0.002 1.081-0.001 1.621-0.001 0.007 2.972 0 5.945 0.004 8.917-0.604 0.005-1.208 0.004-1.812 0.002-0.004-1.986 0.001-3.972-0.002-5.958-0.475-0.001-0.952-0.007-1.428 0.007-0.048-0.527-0.010-1.056-0.025-1.584 0.865 0.094 1.543-0.547 1.643-1.384z"></path>
</svg>
