<!-- Generated by IcoMoon.io -->
<svg version="1.1" xmlns="http://www.w3.org/2000/svg" width="24" height="24" viewBox="0 0 24 24">
<title>regulatory--night-speed-limit-70--g1</title>
<path fill="#fff" d="M0.908 0h22.181c0.444 0.104 0.806 0.466 0.911 0.91v22.177c-0.103 0.445-0.466 0.807-0.91 0.913h-22.178c-0.444-0.104-0.806-0.465-0.912-0.908v-22.182c0.104-0.443 0.466-0.805 0.908-0.91M1.566 0.587c-0.558 0.060-1.007 0.584-0.991 1.143-0.001 6.846-0.001 13.693 0 20.539-0.023 0.64 0.567 1.2 1.204 1.156 6.83-0.001 13.66 0.001 20.49-0.001 0.621 0.021 1.177-0.534 1.155-1.155 0.001-6.846 0.001-13.693 0-20.539 0.007-0.442-0.263-0.875-0.67-1.053-0.254-0.122-0.542-0.104-0.817-0.103-6.609 0-13.218 0-19.828 0-0.181 0.002-0.363-0.009-0.544 0.012z"></path>
<path fill="#fff" d="M10.478 4.006c0.514-0.678 1.703-0.593 2.082 0.184-0.167 0.098-0.335 0.196-0.504 0.291-0.205-0.417-0.822-0.527-1.122-0.156-0.347 0.48-0.35 1.218 0.023 1.685 0.331 0.393 1.107 0.193 1.074-0.368-0.181-0.001-0.361-0-0.542-0.003-0.001-0.175-0.001-0.35-0-0.525 0.372-0 0.743 0.003 1.115-0.002-0.002 0.413 0.037 0.869-0.227 1.22-0.472 0.645-1.582 0.549-1.993-0.118-0.406-0.662-0.386-1.588 0.095-2.208z"></path>
<path fill="#fff" d="M4.661 3.614c0.181 0.001 0.362 0.001 0.543 0 0.439 0.682 0.888 1.358 1.317 2.047-0.004-0.683 0.002-1.365-0.003-2.048 0.186 0.003 0.372 0.003 0.558-0-0.005 1.035-0.002 2.071-0.001 3.106-0.168 0-0.336 0-0.504-0-0.45-0.701-0.923-1.388-1.356-2.1 0.015 0.7 0.003 1.4 0.006 2.1-0.186 0.001-0.372 0.001-0.557 0-0.002-1.035 0-2.070-0.002-3.105z"></path>
<path fill="#fff" d="M8.351 3.615c0.191 0 0.382 0 0.572 0-0.002 1.035 0 2.069-0.001 3.104-0.191 0.001-0.381 0.002-0.571-0.002-0.001-1.034-0.001-2.068-0-3.102z"></path>
<path fill="#fff" d="M13.74 3.612c0.188 0.004 0.375 0.003 0.563 0 0.002 0.413-0 0.827 0.001 1.24 0.434 0 0.868-0 1.301 0 0.026-0.412 0.023-0.828 0.001-1.24 0.187 0.002 0.373 0.002 0.559 0.001 0 1.034 0.001 2.068-0 3.102-0.183 0.003-0.366 0.002-0.549 0.003 0.009-0.44 0-0.88 0.005-1.32-0.439-0.027-0.878-0.007-1.318-0.012-0.001 0.443 0.001 0.887-0.001 1.331-0.187 0.001-0.374 0.001-0.561 0 0-1.035 0.004-2.071-0.002-3.106z"></path>
<path fill="#fff" d="M17.215 3.598c0.767-0.002 1.534-0.001 2.301-0 0.001 0.181 0.001 0.362 0 0.543-0.288 0.001-0.577 0-0.865 0.001-0.001 0.859 0 1.718-0 2.577-0.188 0.001-0.376 0.001-0.563 0-0.001-0.859 0-1.718-0.001-2.578-0.291-0-0.581 0.001-0.872-0.001-0.001-0.18-0.001-0.361 0-0.542z"></path>
<path fill="#fff" d="M15.953 9.392c0.795-0.096 1.636-0.006 2.341 0.394 0.683 0.38 1.185 1.024 1.501 1.73 0.484 1.075 0.619 2.269 0.63 3.437-0.015 1.107-0.144 2.233-0.574 3.262-0.297 0.715-0.769 1.38-1.432 1.796-1.298 0.784-3.144 0.688-4.274-0.36-1.123-1.075-1.447-2.702-1.524-4.195-0.051-1.617 0.122-3.354 1.074-4.715 0.521-0.741 1.358-1.243 2.258-1.349M16.193 11.19c-0.495 0.084-0.895 0.451-1.123 0.885-0.376 0.709-0.479 1.523-0.528 2.314-0.035 0.854-0.001 1.72 0.205 2.552 0.139 0.525 0.354 1.065 0.778 1.425 0.619 0.534 1.666 0.449 2.182-0.19 0.552-0.668 0.697-1.564 0.778-2.4 0.068-1.242 0.064-2.565-0.512-3.7-0.315-0.651-1.066-1.047-1.78-0.885z"></path>
<path fill="#fff" d="M2.79 9.547c2.446-0.001 4.893-0.001 7.34 0 0.001 0.569-0 1.137 0.001 1.706 0.020 0.143-0.109 0.23-0.184 0.332-0.938 1.141-1.606 2.482-2.082 3.875-0.53 1.569-0.834 3.217-0.867 4.874-0.635-0.001-1.269 0-1.904-0.001 0.013-1.734 0.25-3.48 0.844-5.115 0.486-1.372 1.211-2.648 2.046-3.836-1.732-0.002-3.464 0-5.195-0.001-0.001-0.611-0.001-1.222 0-1.834z"></path>
<path fill="#000" d="M1.566 0.587c0.18-0.022 0.362-0.010 0.544-0.012 6.609 0 13.218 0 19.828-0 0.274-0 0.563-0.019 0.817 0.103 0.407 0.178 0.677 0.61 0.67 1.053 0.001 6.846 0.001 13.693 0 20.539 0.021 0.621-0.534 1.176-1.155 1.155-6.83 0.002-13.66-0-20.49 0.001-0.637 0.044-1.227-0.516-1.204-1.156-0.001-6.846-0.001-13.693 0-20.539-0.016-0.559 0.433-1.084 0.991-1.143M10.478 4.006c-0.481 0.62-0.501 1.545-0.095 2.208 0.411 0.667 1.521 0.762 1.993 0.118 0.264-0.351 0.225-0.806 0.227-1.22-0.372 0.005-0.743 0.002-1.115 0.002-0 0.175-0 0.35 0 0.525 0.181 0.002 0.361 0.002 0.542 0.003 0.033 0.562-0.742 0.762-1.074 0.368-0.374-0.467-0.37-1.204-0.023-1.685 0.3-0.372 0.917-0.261 1.122 0.156 0.169-0.095 0.337-0.193 0.504-0.291-0.379-0.777-1.568-0.862-2.082-0.184M4.661 3.614c0.002 1.035-0 2.070 0.002 3.105 0.186 0.001 0.372 0.001 0.557 0-0.003-0.7 0.009-1.4-0.006-2.1 0.433 0.712 0.906 1.399 1.356 2.1 0.168 0.001 0.336 0.001 0.504 0-0-1.035-0.004-2.071 0.001-3.106-0.186 0.004-0.372 0.003-0.558 0 0.006 0.683-0 1.365 0.003 2.048-0.428-0.689-0.877-1.365-1.317-2.047-0.181 0.001-0.362 0.001-0.543 0M8.351 3.615c-0 1.034-0.001 2.068 0 3.102 0.19 0.004 0.38 0.003 0.571 0.002 0.001-1.035-0.001-2.069 0.001-3.104-0.191 0-0.382 0-0.572 0M13.74 3.612c0.006 1.035 0.002 2.071 0.002 3.106 0.187 0 0.374 0 0.561-0 0.002-0.443 0-0.887 0.001-1.331 0.439 0.006 0.879-0.015 1.318 0.012-0.005 0.44 0.004 0.88-0.005 1.32 0.183-0.001 0.366 0 0.549-0.003 0.001-1.034 0-2.068 0-3.102-0.187 0.001-0.373 0.001-0.559-0.001 0.022 0.412 0.025 0.828-0.001 1.24-0.434-0.001-0.868 0-1.301-0-0.002-0.413 0.001-0.827-0.001-1.24-0.188 0.003-0.375 0.003-0.563-0M17.215 3.598c-0.001 0.18-0.001 0.361-0 0.542 0.291 0.002 0.581 0 0.872 0.001 0.001 0.859-0 1.718 0.001 2.578 0.188 0.001 0.375 0.001 0.563-0 0.001-0.859-0.001-1.718 0-2.577 0.288-0.001 0.577 0 0.865-0.001 0.001-0.181 0.001-0.362 0-0.543-0.767-0-1.534-0.001-2.301 0M15.953 9.392c-0.9 0.106-1.737 0.608-2.258 1.349-0.952 1.361-1.125 3.098-1.074 4.715 0.077 1.493 0.402 3.12 1.524 4.195 1.13 1.048 2.976 1.143 4.274 0.36 0.664-0.416 1.135-1.081 1.432-1.796 0.43-1.029 0.56-2.155 0.574-3.262-0.012-1.168-0.147-2.362-0.63-3.437-0.315-0.706-0.817-1.35-1.501-1.73-0.705-0.4-1.547-0.49-2.341-0.394M2.79 9.547c-0.001 0.611-0.001 1.223 0 1.834 1.732 0.001 3.464-0.001 5.195 0.001-0.834 1.188-1.56 2.464-2.046 3.836-0.594 1.635-0.832 3.381-0.844 5.115 0.635 0.001 1.269-0 1.904 0.001 0.033-1.657 0.337-3.305 0.867-4.874 0.476-1.393 1.144-2.734 2.082-3.875 0.075-0.102 0.204-0.19 0.184-0.332-0.002-0.569 0-1.138-0.001-1.706-2.447-0.001-4.894-0.001-7.34 0z"></path>
<path fill="#000" d="M16.193 11.19c0.714-0.162 1.466 0.234 1.78 0.885 0.576 1.135 0.58 2.458 0.512 3.7-0.080 0.837-0.225 1.733-0.778 2.4-0.516 0.639-1.563 0.725-2.182 0.19-0.424-0.361-0.639-0.9-0.778-1.425-0.207-0.832-0.24-1.698-0.205-2.552 0.049-0.79 0.151-1.605 0.528-2.314 0.228-0.434 0.629-0.8 1.123-0.885z"></path>
</svg>
