<svg xmlns="http://www.w3.org/2000/svg" width="24" height="24">
    <path fill="#080808" opacity=".3" d="M4.855 0h16.309l-.086.018c-.303.066-.614.026-.921.034-4.649.006-9.298-.014-13.947 0C5.726.045 5.242.07 4.759.034L4.855 0z"/>
    <path fill="#1a1919" d="M2 1.004c.189-.496.641-.976 1.208-.955.517-.006 1.034.009 1.551-.014.483.037.967.012 1.451.018 4.649-.014 9.298.006 13.947 0 .307-.008.618.032.921-.034.397.239.803.542.922 1.017v22.028c-.109.406-.419.72-.768.936H2.771c-.351-.213-.657-.527-.771-.93V1.004zm1.018-.82c-.526.127-.933.645-.939 1.185v21.367c-.003.673.615 1.272 1.291 1.239 5.753.004 11.507.003 17.26 0 .676.033 1.294-.563 1.293-1.235V1.364C21.917.696 21.301.107 20.629.14 14.998.135 9.367.14 3.736.137c-.24-.001-.483-.006-.719.046z"/>
    <path fill="#1a1919" d="M3.227.439c.238-.037.481-.022.721-.024h16.105c.296.003.598-.023.886.061.41.142.715.562.707.998-.002 7.071.001 14.141-.001 21.211a1.072 1.072 0 0 1-.702.953c-.271.086-.559.061-.838.064H3.894c-.279-.003-.568.023-.838-.064a1.071 1.071 0 0 1-.701-1.005c.002-7.053.001-14.105 0-21.158-.008-.49.38-.969.871-1.034zm.104.525c-.269.029-.464.297-.442.56.002 7.037-.002 14.075.002 21.112-.012.307.281.56.582.532h17.055c.302.028.596-.224.584-.533.003-7.037-.001-14.074.002-21.111.032-.324-.263-.601-.582-.575C14.986.945 9.441.949 3.895.947c-.188.002-.378-.012-.564.016z"/>
    <path fill="#fffffe" d="M3.018.184c.236-.053.479-.047.719-.046C9.368.141 14.999.136 20.63.141c.672-.033 1.288.556 1.294 1.224v21.376c.001.672-.617 1.268-1.293 1.235-5.753.003-11.507.004-17.26 0-.676.033-1.294-.566-1.291-1.239V1.37A1.271 1.271 0 0 1 3.019.185zm.209.255c-.491.065-.879.544-.871 1.034.001 7.053.002 14.105 0 21.158-.012.436.289.862.701 1.005.271.087.559.061.838.064h16.211c.279-.003.568.022.838-.064a1.07 1.07 0 0 0 .702-.953c.002-7.07-.001-14.141.001-21.211a1.073 1.073 0 0 0-.707-.998c-.288-.083-.591-.057-.886-.061H3.949c-.24.002-.482-.013-.721.024z"/>
    <path fill="#fffffe" d="M3.331.964c.186-.028.376-.014.564-.016C9.441.95 14.986.946 20.532.95c.318-.026.614.251.582.575-.002 7.037.001 14.074-.002 21.111.012.309-.282.561-.584.533H3.473c-.302.028-.594-.225-.582-.532-.003-7.037.001-14.074-.002-21.112-.022-.263.173-.531.442-.56zm4.27 1.598l-.079.121c-.43.141-.802.427-1.181.672-.417.084-.729.424-1.078.652-.169.142-.403.277-.436.513.148.257.457.363.678.549.653.544 1.304 1.095 2.005 1.577.187.154.444.162.671.112.255-.429-.013-.933.137-1.372.662.022 1.327.047 1.982.146-.007.15.015.312-.059.449-.262.469-.527.949-.634 1.481-.227.5-.12 1.077-.367 1.574-.243.017-.493-.002-.696-.149-.247-.176-.623.015-.628.315.009.527.361.954.582 1.409.344.532.554 1.167 1.034 1.599.272.229.659.132.894-.101.82-.739 1.563-1.56 2.303-2.377.195-.174.136-.451.117-.68-.475-.051-.988-.09-1.418.159-.12-.439.213-.819.178-1.256.128-.583.386-1.156.841-1.563.651-.742 1.786-1.001 2.679-.573.606.336 1.197.875 1.276 1.601.001.674.044 1.362-.125 2.021-.096.514-.048 1.046-.186 1.554-.127.459-.078.942-.173 1.405-.192.688-.093 1.418-.302 2.105-.035.559-.183 1.139-.016 1.689.072 0 .144.002.216.006.292.009.584.016.876.004.202.008.403.007.604.002l.172.01c.183-.42.293-.878.222-1.337l.005-.133c.014-.459.304-.876.205-1.344.007-.061.009-.121.006-.182.01-.223.051-.445.132-.654.188-.483-.011-1.023.186-1.505.124-.324.143-.683.073-1.022l.005-.031c.057-.307.093-.617.199-.913.075-.435.057-.885.021-1.324.011-.128.025-.258.011-.386.012-.163.033-.329.004-.491-.194-.579-.416-1.172-.851-1.619-.526-.556-1.164-1.023-1.885-1.266-.285-.088-.553-.256-.859-.247-1.174-.018-2.348-.015-3.522-.016-.779-.056-1.548-.279-2.335-.166-.144-.022-.289-.022-.434-.026.002-.202-.054-.433.088-.602.191-.239.112-.561.081-.837-.475-.113-.807.299-1.22.446zm-.005 14.826c-.568.224-.626 1.013-.373 1.493.264.488 1.077.486 1.341-.001a1.294 1.294 0 0 0-.002-1.179c-.183-.334-.625-.435-.966-.313zm1.329-.014v1.837h.226c.001-.525-.003-1.051.003-1.576.274.523.541 1.05.809 1.576h.272v-1.837l-.225.001c-.002.482.004.963-.003 1.444-.253-.478-.491-.963-.738-1.444h-.343zm3.316 0v1.837l1.062-.001a5.185 5.185 0 0 1-.001-.216h-.82v-1.621h-.241zm1.211 0v1.837h1.145a7.776 7.776 0 0 1 0-.216h-.904v-.682l.843-.001a7.776 7.776 0 0 1 0-.216h-.843v-.506h.904a7.776 7.776 0 0 1 0-.216h-1.145zm1.421 0v1.837a9.68 9.68 0 0 1 .241 0v-.886h.819a7.776 7.776 0 0 1 0-.216l-.819-.001a44.72 44.72 0 0 0 0-.518h.854a5.185 5.185 0 0 1 .001-.216h-1.095zm1.179 0v.216h.618l-.001 1.621a9.68 9.68 0 0 1 .241 0V17.59h.618a7.776 7.776 0 0 1 0-.216h-1.477zm-6.297 2.808c-.648.167-.744 1.033-.486 1.553.261.54 1.149.544 1.422.012.183-.362.183-.818.006-1.183-.165-.339-.592-.475-.942-.381zm5.053 0c-.648.167-.744 1.033-.486 1.552.261.541 1.15.544 1.422.012.183-.362.183-.819.006-1.183-.166-.339-.592-.475-.942-.381zm-9.965.012c-.214.637-.432 1.273-.642 1.912l.254-.001c.056-.178.114-.356.172-.534h.733l.174.535H5.8l-.644-1.912a16.328 16.328 0 0 0-.313 0zm1.09 0l-.001 1.912a10.5 10.5 0 0 1 .251 0l.001-.763h.292c.2.253.406.502.601.76.112-.007.223.012.334.002-.225-.275-.448-.551-.675-.824.32-.129.513-.546.308-.848-.255-.354-.741-.209-1.111-.239zm1.684 0l-.001 1.912a10.5 10.5 0 0 1 .251 0l.001-.763h.292c.2.253.406.502.601.76.112-.007.223.011.334.002-.225-.275-.448-.551-.675-.824.32-.129.513-.547.308-.848-.255-.353-.742-.208-1.111-.239zm3.313.002c.164.636.326 1.273.489 1.909h.277c.128-.526.25-1.054.38-1.579.141.524.26 1.053.393 1.579h.284l.48-1.911-.246-.001c-.128.533-.253 1.067-.383 1.6-.136-.532-.258-1.067-.389-1.6l-.257.001c-.131.514-.23 1.038-.386 1.546-.144-.513-.25-1.035-.386-1.55l-.254.006zm5.213-.002v1.911h.235c.001-.549-.001-1.099.001-1.649.285.548.565 1.098.846 1.649h.284c-.003-.638.002-1.276-.003-1.914a18.26 18.26 0 0 1-.234.004c-.001.501.004 1.002-.003 1.503-.265-.499-.507-1.009-.774-1.507-.118-.001-.235.005-.353.003zm1.736 0l.001 1.912h1.106l-.001-.225h-.855v-1.687a10.5 10.5 0 0 0-.251 0zm.952 0c.173.292.344.585.519.875.224.298.087.692.124 1.036.085-.001.169-.001.255 0 .006-.279-.014-.56.008-.839.187-.37.429-.711.634-1.072l-.266-.001c-.167.281-.331.564-.503.843-.163-.282-.327-.563-.492-.843l-.278.001z"/>
    <path fill="#fffffe" d="M7.652 17.599c.265-.135.633-.012.729.279.101.337.127.774-.147 1.039-.269.243-.751.103-.842-.251-.096-.353-.097-.859.261-1.067zM9.856 20.384c.889-.176.983 1.495.144 1.542-.763-.003-.815-1.352-.144-1.542zM14.908 20.384c.889-.176.983 1.495.144 1.542-.763-.003-.815-1.352-.144-1.542zM6.184 20.407c.161.005.327-.009.485.036.271.091.245.541-.005.642-.151.063-.319.043-.479.052-.002-.244-.001-.487 0-.731zM7.868 20.407c.161.005.327-.009.485.036.271.092.245.541-.005.642-.151.064-.319.044-.479.053-.002-.244-.001-.487 0-.731zM4.697 21.355c.098-.301.194-.602.295-.901.103.299.198.6.297.901h-.592z"/>
    <path fill="#889393" d="M7.601 2.562c.413-.147.745-.559 1.22-.446.031.276.109.598-.081.837-.142.169-.086.401-.088.602.145.004.291.004.434.026.361.065.716.169 1.083.191-.237.006-.473.031-.709.037l-.179-.002c-.306-.146-.816-.117-.874-.54.189-.28.284-.61.261-.948-.17.012-.351.013-.5.106-.974.591-1.966 1.152-2.902 1.802l.028-.153a12.93 12.93 0 0 0 1.047-.719c.379-.245.751-.531 1.181-.672l.079-.121z"/>
    <path fill="#1f302b" d="M8.167 2.425c.149-.093.33-.094.5-.106.024.338-.071.668-.261.948-.112.497.515.6.874.54l.179.002c.366.012.732.016 1.098.029.76.112 1.531.114 2.297.152-.348.02-.696.066-1.046.044-1.021-.062-2.043.013-3.064-.046-.362.004-.642-.484-.448-.792.104-.207.208-.416.288-.634-.39-.068-.678.213-.921.472-.419.356-.718.876-1.258 1.066-.136.18-.024.453-.107.662-.088.08-.194.136-.296.197.219.272.511.475.714.762-.536-.387-1.012-.855-1.578-1.201.043-.097.082-.196.125-.293.936-.65 1.928-1.212 2.902-1.802z"/>
    <path fill="#162424" d="M7.665 3.034c.243-.258.531-.54.921-.472-.081.218-.185.426-.288.634-.193.308.086.796.448.792 1.021.059 2.043-.015 3.064.046.349.022.697-.024 1.046-.044.855.068 1.731-.047 2.567.191.437.072.81.332 1.239.427.295.414.816.651.984 1.157.078.177.006.409-.176.487-.199.052-.407.052-.609.087.227.327.404.717.367 1.124-.043.296-.159.576-.288.845-.151-.413.046-.924-.316-1.257-.309-.745-.928-1.377-1.717-1.594a3.91 3.91 0 0 0-1.482.026c-1.115.348-1.944 1.391-2.099 2.541-.089.406-.205.812-.163 1.233.473.271.983-.094 1.481.022-.085.387-.422.628-.674.906-.595.614-1.148 1.273-1.798 1.829-.136.116-.355.231-.483.04-.421-.482-.666-1.086-.998-1.628-.218-.423-.541-.842-.493-1.345.143.018.289.036.424.09.218.242.554.258.831.389.148.229.021.493-.177.639.167.167.225.395.303.609.114.201.28.366.396.566.086-.003.172-.008.257-.01.177-.477.561-.826.908-1.178.138-.351-.287-.528-.424-.791a3.487 3.487 0 0 1 .181-1.446c.086-.236.015-.483-.118-.684.264-.321.553-.637.714-1.024.007-.152-.141-.263-.213-.385-.195.359-.491.678-.562 1.093-.028.201-.255.246-.403.333a6.18 6.18 0 0 0-.22 2.19l-.403-.001c-.009-.803.087-1.625.406-2.368.094-.212.154-.435.188-.663.184-.361.413-.754.238-1.167a13.265 13.265 0 0 0-2.383-.01l-.129.023c-.033.414.025.832-.049 1.243-.276-.016-.466-.235-.686-.373a3.191 3.191 0 0 1-.561-.433c-.203-.286-.495-.489-.714-.762.102-.061.207-.117.296-.197.083-.209-.029-.482.107-.662.54-.191.838-.71 1.258-1.066z"/>
    <path fill="#596666" d="M8.407 3.267c.058.423.568.394.874.54-.359.06-.986-.043-.874-.54z"/>
    <path fill="#bdc7c4" d="M5.263 4.006c.348-.228.661-.567 1.078-.652-.334.261-.689.493-1.047.719l-.028.153-.188.014-.053.331c.905.605 1.673 1.387 2.578 1.991.159.106.438.26.56.022.106-.425-.004-.872.057-1.304.542-.021 1.083-.007 1.625.001.249-.001.465.138.677.253-.099.531-.466.956-.628 1.466-.214.414-.211.886-.347 1.323-.101.324.011.76-.369.924a1.633 1.633 0 0 0-1.173-.178c-.013.466.291.847.478 1.251.363.583.627 1.232 1.078 1.756.199.247.588.168.79-.036.674-.607 1.278-1.286 1.901-1.944.213-.225.394-.477.557-.74-.114-.135-.231-.325-.437-.29-.346.037-.655.255-1.017.204-.028-.478-.001-.964.166-1.417.228-1.455 1.745-2.675 3.23-2.324.7.258 1.43.721 1.672 1.464.083.381.243.766.146 1.161-.093.385-.158.776-.142 1.173-.006.134-.01.267-.013.401-.004.439-.231.842-.206 1.284-.004.116-.002.232-.003.347-.072.359-.214.706-.195 1.079-.039.416.023.846-.114 1.249-.131.395-.12.817-.11 1.228l-.006.035c-.122.326-.214.666-.185 1.017l.198.037.023.199a3.893 3.893 0 0 0-.216-.006c-.167-.55-.019-1.13.016-1.689.209-.686.109-1.416.302-2.105.095-.464.046-.946.173-1.405.138-.508.09-1.04.186-1.554.169-.659.125-1.347.125-2.021-.078-.726-.669-1.265-1.276-1.601-.893-.428-2.029-.169-2.679.573-.455.406-.712.98-.841 1.563.034.437-.298.816-.178 1.256.429-.249.943-.209 1.418-.159.019.229.078.506-.117.68-.741.817-1.483 1.638-2.303 2.377-.234.233-.622.331-.894.101-.48-.432-.69-1.067-1.034-1.599-.221-.455-.572-.883-.582-1.409.006-.3.382-.491.628-.315.204.147.453.166.696.149.247-.497.141-1.074.367-1.574.107-.531.372-1.012.634-1.481.075-.137.053-.299.059-.449-.655-.099-1.321-.124-1.982-.146-.151.439.118.943-.137 1.372-.227.05-.483.042-.671-.112-.701-.482-1.352-1.033-2.005-1.577-.222-.186-.531-.292-.678-.549.033-.235.267-.371.436-.513z"/>
    <path fill="#c8cfce" d="M9.086 3.581c.786-.113 1.556.111 2.335.166 1.174.001 2.348-.003 3.522.016.307-.009.575.158.859.247l-.193.008a12.545 12.545 0 0 1-.432-.032c-.274-.11-.562-.196-.86-.183-1.385.004-2.766-.038-4.149-.032-.367-.022-.723-.126-1.083-.191z"/>
    <path fill="#6f7b79" d="M9.461 3.809c.236-.007.472-.031.709-.037 1.383-.006 2.764.035 4.149.032.298-.013.586.073.86.183-.518.039-1.031-.061-1.547-.087-1.021-.111-2.048-.064-3.073-.061-.366-.014-.733-.017-1.098-.029z"/>
    <path fill="#3b4a49" d="M10.559 3.838c1.024-.003 2.052-.05 3.073.061.516.026 1.028.126 1.547.087.144.013.287.024.432.032.335.226.763.298 1.052.591-.429-.095-.802-.355-1.239-.427-.836-.238-1.712-.123-2.567-.191-.766-.038-1.537-.041-2.297-.152z"/>
    <path fill="#9da3a2" d="M15.61 4.018l.193-.008c.721.243 1.359.709 1.885 1.266l-.025.179c-.306-.311-.594-.664-1.001-.846-.289-.293-.717-.365-1.052-.591z"/>
    <path fill="#5d6b69" d="M5.078 4.241l.188-.014c-.043.097-.083.196-.125.293.566.346 1.042.813 1.578 1.201.167.168.361.306.561.433.22.138.41.357.686.373l.172-.022c.045-.414-.035-.829.007-1.244.79-.076 1.593-.057 2.383.01.174.413-.054.806-.238 1.167-.335.608-.586 1.286-.609 1.985-.041.303-.157.588-.233.884-.284.039-.564-.027-.824-.137-.135-.054-.281-.072-.424-.09-.048.503.275.922.493 1.345.332.543.577 1.146.998 1.628.128.191.347.076.483-.04.65-.557 1.203-1.216 1.798-1.829.252-.278.588-.519.674-.906-.498-.116-1.008.248-1.481-.022-.043-.421.074-.827.163-1.233.155-1.151.984-2.193 2.099-2.541a3.93 3.93 0 0 1 1.482-.026c.789.217 1.408.849 1.717 1.594.008.076.014.153.018.23a3.452 3.452 0 0 1-.22-.29c-.242-.744-.972-1.206-1.672-1.464-1.485-.351-3.002.869-3.23 2.324-.167.453-.194.938-.166 1.417.362.051.671-.167 1.017-.204.207-.035.323.155.437.29a4.565 4.565 0 0 1-.557.74c-.623.658-1.227 1.337-1.901 1.944-.202.204-.591.283-.79.036-.451-.525-.715-1.174-1.078-1.756-.188-.404-.491-.784-.478-1.251.398-.09.819-.026 1.173.178.381-.164.269-.601.369-.924.136-.437.133-.909.347-1.323.162-.51.529-.935.628-1.466-.212-.114-.427-.253-.677-.253-.542-.008-1.083-.022-1.625-.001-.062.433.049.879-.057 1.304-.122.238-.401.084-.56-.022-.905-.604-1.673-1.386-2.578-1.991l.053-.331z"/>
    <path fill="#273537" d="M16.662 4.608c.407.182.695.536 1.001.846.208.534.606 1.005.648 1.594.066.653-.045 1.307-.003 1.961l-.004.039c-.123.408-.218.827-.214 1.256-.01.318-.065.635-.183.931-.058-.386.039-.76.124-1.132.053-1.181.484-2.416-.01-3.562l-.109.013c.071.595-.027 1.185-.168 1.762-.087.375.007.775-.134 1.139-.296.642-.272 1.368-.37 2.054-.061.125-.225.243-.367.195-.123-.296.154-.63-.037-.908-.068-.127-.225-.117-.346-.145-.058.596-.024 1.217-.287 1.772.034-.245.03-.494.04-.74.009-.4.193-.773.183-1.175l.003-.038c0-.576.199-1.127.209-1.701.022-.496.024-.994.005-1.49a5.782 5.782 0 0 0-.018-.23c.363.333.165.844.316 1.257.128-.268.245-.549.288-.845.037-.407-.14-.797-.367-1.124.202-.035.41-.035.609-.087.182-.078.254-.31.176-.487-.167-.506-.688-.743-.984-1.157z"/>
    <path fill="#34473f" d="M8.015 5.284l.129-.023c-.042.414.038.829-.007 1.244a8.959 8.959 0 0 1-.172.022c.074-.411.016-.829.049-1.243z"/>
    <path fill="#c1c9c7" d="M17.687 5.275c.434.447.656 1.04.851 1.619.029.162.008.328-.004.491-.197-.673-.324-1.443-.872-1.931l.025-.179z"/>
    <path fill="#778283" d="M17.663 5.455c.548.488.675 1.258.872 1.931.015.128 0 .258-.011.386-.03.419-.1.834-.216 1.238-.042-.654.069-1.308.003-1.961-.042-.589-.439-1.061-.648-1.594z"/>
    <path fill="#202c2f" d="M10.721 6.947c.071-.414.366-.733.562-1.093.072.122.22.233.213.385-.161.387-.45.704-.714 1.024.133.202.204.448.118.684-.156.463-.229.96-.181 1.446.136.263.562.44.424.791-.348.353-.731.701-.908 1.178-.086.002-.172.007-.257.01-.116-.199-.282-.365-.396-.566-.078-.214-.136-.443-.303-.609.198-.147.325-.411.177-.639-.277-.131-.613-.147-.831-.389.261.109.541.176.824.137.076-.295.192-.581.233-.884.023-.699.274-1.377.609-1.985a2.63 2.63 0 0 1-.188.663c-.319.744-.415 1.565-.406 2.368l.403.001a6.18 6.18 0 0 1 .22-2.19c.148-.087.375-.132.403-.333z"/>
    <path fill="#192829" d="M17.912 6.556l.109-.013c.494 1.145.063 2.381.01 3.562-.085.372-.182.746-.124 1.132.004.617-.145 1.213-.236 1.817.039.627-.245 1.214-.208 1.839-.049.376-.148.744-.239 1.112l-.419-.012c-.001-.473.027-.954.203-1.398.156-.422-.088-.83-.171-1.237.12-.054.258-.085.357-.175.115-.233.059-.503.055-.753a3.773 3.773 0 0 0-.463-.028c-.008.277.044.555.012.831-.099.303-.417.521-.382.872.059.561-.222 1.07-.235 1.625.014.179-.201.178-.323.226-.062-.398-.004-.798-.016-1.198.056-.377.19-.744.183-1.129-.001-.407.027-.821.178-1.203.263-.555.229-1.176.287-1.772.121.028.278.018.346.145.191.278-.085.613.037.908.143.048.306-.07.367-.195.098-.686.074-1.412.37-2.054.141-.364.046-.764.134-1.139.142-.577.239-1.167.168-1.762z"/>
    <path fill="#849292" d="M16.423 6.991c.067.102.143.196.22.29.019.496.017.994-.005 1.49-.072.184-.157.363-.212.554-.016-.397.049-.788.142-1.173.097-.395-.063-.78-.146-1.161z"/>
    <path fill="#c1c9c6" d="M18.308 9.01c.116-.404.186-.819.216-1.238.036.439.054.889-.021 1.324-.106.295-.143.606-.199.913.007-.32.002-.64.001-.96l.004-.039z"/>
    <path fill="#556463" d="M16.426 9.325c.054-.191.139-.37.212-.554-.011.574-.209 1.124-.209 1.701.005-.249-.017-.497-.015-.746.003-.133.007-.267.013-.401z"/>
    <path fill="#6d7a77" d="M18.091 10.305c-.004-.429.091-.848.214-1.256.001.32.006.64-.001.96l-.005.031c-.076.232-.161.464-.184.708-.005-.148-.018-.295-.023-.443z"/>
    <path fill="#8d9b99" d="M16.207 11.009c-.025-.442.203-.845.206-1.284-.002.249.021.497.015.746l-.003.038c-.081.163-.166.324-.219.499z"/>
    <path fill="#bdc5c2" d="M18.114 10.748c.024-.245.108-.477.184-.708.07.339.051.697-.073 1.022-.197.482.002 1.022-.186 1.505a2.037 2.037 0 0 0-.132.654c-.006-.2-.021-.4-.019-.601.049-.628.262-1.234.226-1.872z"/>
    <path fill="#5d6967" d="M17.907 11.236c.118-.296.173-.613.183-.931.005.148.018.295.023.443.035.637-.177 1.244-.226 1.872-.054.431-.216.846-.194 1.287l-.011.185a2.633 2.633 0 0 1-.221.867v-.067c-.036-.626.248-1.213.208-1.839.091-.604.241-1.199.236-1.817z"/>
    <path fill="#5b6d6a" d="M16.207 11.009c.053-.175.138-.337.219-.499.009.403-.174.775-.183 1.175-.01.246-.006.495-.04.74-.151.383-.179.796-.178 1.203.007.386-.126.752-.183 1.129l-.056.155c-.01-.411-.021-.833.11-1.228.136-.403.075-.833.114-1.249.171-.334.224-.707.195-1.079.001-.116-.001-.232.003-.347z"/>
    <path fill="#909e9a" d="M16.009 12.435c-.019-.373.123-.72.195-1.079.029.372-.024.745-.195 1.079z"/>
    <path fill="#2f3c3e" d="M16.785 12.402c.155-.001.309.01.463.028.004.249.06.52-.055.753-.099.09-.237.121-.357.175.083.407.327.815.171 1.237-.176.444-.204.925-.203 1.398l.419.012c.091-.368.189-.735.239-1.112v.067c-.004.212.006.423.005.635a2.105 2.105 0 0 1-.006.082c-.044.18-.107.355-.166.531a9.357 9.357 0 0 1-.604-.002c-.229-.255-.594-.181-.899-.203-.024-.352-.005-.703-.013-1.055l.006-.035.056-.155c.012.399-.046.8.016 1.198.122-.048.337-.047.323-.226.013-.555.294-1.064.235-1.625-.036-.351.282-.568.382-.872.032-.276-.02-.554-.012-.831z"/>
    <path fill="#8a9492" d="M17.694 13.907c-.023-.441.139-.856.194-1.287-.002.201.013.401.019.601.003.061.001.122-.006.182-.062.171-.143.334-.206.504z"/>
    <path fill="#c3ccc9" d="M17.694 13.907c.064-.17.145-.333.206-.504.099.468-.192.885-.205 1.344-.004-.218-.018-.436-.012-.655.003-.062.006-.124.011-.185z"/>
    <path fill="#899893" d="M17.463 14.959a2.69 2.69 0 0 0 .221-.867c-.006.218.008.436.012.655l-.005.133c-.049.245-.146.477-.222.715.001-.212-.009-.423-.005-.635z"/>
    <path fill="#c3ccc8" d="M17.468 15.594c.076-.237.173-.469.222-.715.071.459-.039.917-.222 1.337-.003-.181-.007-.361-.005-.541l.006-.082z"/>
    <path fill="#657671" d="M15.594 15.965c-.029-.352.064-.692.185-1.017.008.352-.011.703.013 1.055a13.759 13.759 0 0 0-.198-.037z"/>
    <path fill="#6e7b76" d="M17.296 16.207c.059-.176.123-.351.166-.531-.002.18.003.36.005.541l-.172-.01z"/>
    <path fill="#525f5b" d="M15.793 16.002c.305.022.67-.053.899.203-.292.013-.584.005-.876-.004l-.023-.199z"/>
    <path d="M7.596 17.388c.342-.122.784-.021.966.313.19.358.191.821.002 1.179-.264.487-1.077.489-1.341.001-.253-.48-.195-1.269.373-1.493zm.056.211c-.357.207-.357.714-.261 1.067.092.354.573.494.842.251.274-.265.248-.702.147-1.039-.096-.291-.464-.414-.729-.279zM8.925 17.374h.343c.247.481.486.966.738 1.444.007-.481.002-.962.003-1.444l.225-.001v1.837a12.33 12.33 0 0 0-.272 0c-.268-.526-.535-1.053-.809-1.576-.006.525-.002 1.051-.003 1.576a8.513 8.513 0 0 0-.226 0v-1.837zM12.241 17.374h.241v1.621h.82c-.001.072-.001.144.001.216l-1.062.001v-1.837zM13.452 17.374h1.145a7.776 7.776 0 0 0 0 .216h-.904v.506h.843a7.776 7.776 0 0 0 0 .216c-.281 0-.562-.001-.843.001v.682h.904a7.776 7.776 0 0 0 0 .216h-1.145v-1.837zM14.873 17.374h1.095l-.001.216h-.854v.518l.819.001a7.776 7.776 0 0 0 0 .216h-.819v.886a9.68 9.68 0 0 0-.241 0v-1.837zM16.052 17.374h1.477a7.776 7.776 0 0 0 0 .216h-.618v1.621a9.68 9.68 0 0 0-.241 0l.001-1.621h-.618a7.776 7.776 0 0 0 0-.216zM9.755 20.182c.351-.094.777.042.942.381.177.365.176.821-.006 1.183-.272.532-1.161.528-1.422-.012-.258-.519-.163-1.385.486-1.553zm.101.202c-.671.19-.619 1.538.144 1.542.838-.047.745-1.717-.144-1.542zM14.808 20.182c.351-.094.776.042.942.381.177.364.176.821-.006 1.183-.272.532-1.161.528-1.422-.012-.257-.519-.162-1.385.486-1.552zm.1.202c-.671.19-.619 1.538.144 1.542.838-.047.745-1.717-.144-1.542zM4.843 20.194h.313l.644 1.912h-.266l-.174-.535a89.548 89.548 0 0 0-.733 0c-.057.178-.116.355-.172.534l-.254.001c.211-.638.428-1.274.642-1.912zm-.146 1.161h.592c-.098-.301-.194-.602-.297-.901-.101.299-.197.6-.295.901zM5.933 20.194c.369.031.856-.114 1.111.239.205.302.012.718-.308.848.226.273.45.549.675.824-.112.009-.223-.009-.334-.002-.194-.258-.401-.507-.601-.76h-.292l-.001.763a10.5 10.5 0 0 0-.251 0l.001-1.912zm.251.213c-.001.244-.002.487 0 .731.16-.009.328.011.479-.052.25-.102.276-.551.005-.642-.157-.045-.324-.032-.485-.036zM7.617 20.194c.369.031.855-.114 1.111.239.205.302.012.719-.308.848.226.273.45.549.675.824-.112.009-.223-.009-.334-.002-.194-.258-.401-.507-.601-.76h-.292l-.001.763a10.5 10.5 0 0 0-.251 0l.001-1.912zm.251.213c-.001.244-.002.487 0 .731.16-.009.329.011.479-.053.25-.102.276-.551.005-.642-.157-.045-.324-.031-.485-.036zM10.93 20.196l.254-.006c.136.515.243 1.037.386 1.55.156-.508.255-1.032.386-1.546l.257-.001c.132.533.253 1.068.389 1.6.13-.533.254-1.067.383-1.6l.246.001-.48 1.911a13.443 13.443 0 0 0-.284 0c-.133-.526-.252-1.055-.393-1.579-.13.525-.252 1.053-.38 1.579a12.788 12.788 0 0 0-.277 0c-.163-.636-.325-1.273-.489-1.909zM16.143 20.194c.117.002.235-.004.353-.003.266.498.509 1.008.774 1.507.007-.501.002-1.002.003-1.503l.234-.004c.004.638 0 1.276.003 1.914h-.284c-.281-.551-.561-1.101-.846-1.649-.002.549-.001 1.099-.001 1.649a9.205 9.205 0 0 0-.235 0v-1.911zM17.879 20.194a10.5 10.5 0 0 1 .251 0v1.687h.855c-.001.075-.001.149.001.225H17.88l-.001-1.912zM18.831 20.194l.278-.001c.165.281.329.561.492.843.173-.278.336-.562.503-.843l.266.001c-.205.361-.447.702-.634 1.072-.023.279-.003.559-.008.839-.085-.001-.17-.001-.255 0-.037-.344.101-.737-.124-1.036-.175-.29-.346-.583-.519-.875z"/>
</svg>
