<!-- Generated by IcoMoon.io -->
<svg version="1.1" xmlns="http://www.w3.org/2000/svg" width="24" height="24" viewBox="0 0 24 24">
<title>regulatory--night-speed-limit-15--g1</title>
<path fill="#fff" d="M0.908 0h22.182c0.443 0.105 0.805 0.466 0.91 0.91v22.178c-0.103 0.444-0.466 0.807-0.91 0.912h-22.179c-0.443-0.104-0.805-0.465-0.911-0.908v-22.183c0.105-0.443 0.465-0.804 0.908-0.909M1.566 0.587c-0.558 0.060-1.007 0.584-0.991 1.143-0.001 6.846-0.001 13.693 0 20.539-0.021 0.621 0.535 1.176 1.155 1.155 6.846 0.001 13.692 0.001 20.539 0 0.621 0.021 1.176-0.534 1.155-1.155 0.001-6.846 0.001-13.692 0-20.539 0.007-0.431-0.248-0.853-0.639-1.038-0.247-0.129-0.532-0.121-0.802-0.118-6.64 0-13.281 0-19.921 0-0.165 0.001-0.332-0.008-0.496 0.012z"></path>
<path fill="#fff" d="M10.478 4.005c0.514-0.678 1.703-0.593 2.082 0.185-0.168 0.097-0.335 0.196-0.504 0.29-0.209-0.43-0.855-0.527-1.143-0.13-0.322 0.484-0.324 1.2 0.045 1.659 0.331 0.393 1.108 0.193 1.073-0.368-0.18-0-0.361-0-0.541-0.003-0.001-0.175-0.001-0.35-0-0.525 0.372-0 0.743 0.003 1.116-0.002-0.002 0.413 0.037 0.869-0.228 1.219-0.472 0.645-1.582 0.55-1.994-0.117-0.405-0.662-0.386-1.589 0.095-2.208z"></path>
<path fill="#fff" d="M4.661 3.614c0.181 0.001 0.362 0.001 0.543 0 0.44 0.682 0.888 1.358 1.317 2.046-0.004-0.683 0.002-1.365-0.003-2.047 0.186 0.003 0.372 0.003 0.558-0-0.005 1.035-0.002 2.071-0.001 3.106-0.168 0-0.336 0-0.504-0-0.451-0.701-0.923-1.388-1.356-2.1 0.015 0.699 0.003 1.4 0.006 2.1-0.186 0.001-0.371 0.001-0.557 0-0.004-1.035 0-2.070-0.002-3.105z"></path>
<path fill="#fff" d="M8.351 3.615c0.191 0 0.382 0 0.572 0-0.002 1.035 0 2.069-0.001 3.104-0.19 0.001-0.381 0.002-0.57-0.002-0.001-1.034-0.001-2.068-0-3.101z"></path>
<path fill="#fff" d="M13.74 3.612c0.188 0.004 0.375 0.003 0.563 0 0.003 0.413-0 0.827 0.001 1.24 0.433 0.001 0.866-0.001 1.299 0.001 0.031-0.411 0.024-0.828 0.003-1.241 0.187 0.002 0.373 0.001 0.56 0.001 0 1.034 0.001 2.068-0 3.102-0.183 0.004-0.366 0.002-0.549 0.003 0.009-0.44 0-0.88 0.005-1.32-0.438-0.029-0.878-0.007-1.318-0.013-0.002 0.443 0.001 0.887-0.001 1.331-0.187 0.001-0.374 0.001-0.561 0 0-1.035 0.004-2.071-0.002-3.106z"></path>
<path fill="#fff" d="M17.215 3.598c0.767-0.002 1.534-0.001 2.301-0 0.001 0.18 0.001 0.361 0 0.542-0.288 0.001-0.577 0-0.865 0.001-0.001 0.859 0 1.718-0 2.577-0.188 0.002-0.375 0.001-0.563 0-0.001-0.859 0-1.718-0.001-2.578-0.291-0-0.581 0.001-0.872-0.001-0.001-0.18-0.001-0.361 0.001-0.541z"></path>
<path fill="#fff" d="M6.422 9.55c0.491-0.003 0.982 0.005 1.474-0.004 0.019 3.595 0.003 7.192 0.008 10.788-0.63 0.001-1.26 0.001-1.89 0-0.001-2.717 0-5.434-0.001-8.152-0.565-0.002-1.13 0.001-1.695-0.001-0.002-0.488-0.001-0.975-0-1.463 0.516-0.012 1.065-0.051 1.505-0.348 0.294-0.188 0.483-0.497 0.599-0.819z"></path>
<path fill="#fff" d="M12.418 9.563c2.049-0.001 4.098-0.001 6.147 0 0 0.606 0.001 1.212 0 1.818-1.467 0.001-2.933-0-4.4 0.001-0.054 0.746-0.108 1.492-0.162 2.238 1.417-0.751 3.411-0.552 4.456 0.734 0.926 1.17 1.015 2.899 0.336 4.208-0.391 0.743-1.070 1.313-1.846 1.622-0.898 0.366-1.896 0.4-2.846 0.268-0.837-0.122-1.672-0.413-2.325-0.965 0.355-0.495 0.711-0.99 1.070-1.483 0.676 0.484 1.505 0.747 2.338 0.709 0.814 0.010 1.692-0.406 1.997-1.2 0.291-0.759 0.182-1.8-0.558-2.265-0.86-0.492-2.039-0.26-2.683 0.485-0.615-0.265-1.235-0.519-1.85-0.783 0.106-1.795 0.211-3.591 0.325-5.386z"></path>
<path fill="#000" d="M1.566 0.587c0.165-0.020 0.331-0.011 0.496-0.012 6.64-0 13.281 0 19.921-0 0.27-0.004 0.555-0.011 0.802 0.118 0.39 0.185 0.645 0.607 0.639 1.038 0.001 6.847 0.001 13.693 0 20.539 0.021 0.621-0.534 1.176-1.155 1.155-6.847 0.001-13.693 0.001-20.539 0-0.621 0.021-1.177-0.534-1.155-1.155-0.001-6.846-0.001-13.693 0-20.539-0.016-0.559 0.433-1.084 0.991-1.143M10.478 4.005c-0.481 0.62-0.501 1.546-0.095 2.208 0.411 0.667 1.522 0.762 1.994 0.117 0.264-0.351 0.225-0.806 0.228-1.219-0.372 0.005-0.744 0.002-1.116 0.002-0 0.175-0 0.35 0 0.525 0.18 0.002 0.361 0.002 0.541 0.003 0.035 0.562-0.742 0.762-1.073 0.368-0.369-0.459-0.367-1.175-0.045-1.659 0.288-0.398 0.934-0.3 1.143 0.13 0.17-0.094 0.337-0.193 0.504-0.29-0.379-0.778-1.568-0.863-2.082-0.185M4.661 3.614c0.003 1.035-0.001 2.070 0.002 3.105 0.186 0.001 0.371 0.001 0.557 0-0.003-0.7 0.009-1.4-0.006-2.1 0.433 0.711 0.905 1.399 1.356 2.1 0.168 0.001 0.336 0.001 0.504 0-0-1.035-0.004-2.071 0.001-3.106-0.186 0.004-0.372 0.003-0.558 0 0.006 0.682-0 1.365 0.003 2.047-0.429-0.689-0.877-1.365-1.317-2.046-0.181 0.001-0.362 0.001-0.543 0M8.351 3.615c-0 1.034-0.001 2.068 0 3.101 0.19 0.005 0.38 0.004 0.57 0.002 0.002-1.035-0-2.069 0.001-3.104-0.191 0-0.382 0-0.572 0M13.74 3.612c0.006 1.035 0.002 2.071 0.002 3.106 0.187 0 0.374 0 0.561-0 0.002-0.444-0-0.887 0.001-1.331 0.439 0.006 0.879-0.016 1.318 0.013-0.005 0.44 0.004 0.88-0.005 1.32 0.183-0.001 0.366 0 0.549-0.003 0.001-1.034 0-2.068 0-3.102-0.187 0-0.373 0.001-0.56-0.001 0.021 0.412 0.028 0.83-0.003 1.241-0.433-0.002-0.866 0-1.299-0.001-0.002-0.413 0.001-0.827-0.001-1.24-0.188 0.003-0.375 0.003-0.563-0M17.215 3.598c-0.002 0.18-0.002 0.361-0.001 0.541 0.291 0.002 0.581 0 0.872 0.001 0.001 0.859-0 1.718 0.001 2.578 0.188 0.001 0.375 0.001 0.563-0 0.001-0.859-0.001-1.718 0-2.577 0.288-0.001 0.577 0 0.865-0.001 0.001-0.181 0.001-0.362 0-0.542-0.767-0.001-1.534-0.002-2.301 0M6.422 9.55c-0.116 0.322-0.305 0.631-0.599 0.819-0.441 0.297-0.99 0.336-1.505 0.348-0.001 0.488-0.001 0.975 0 1.463 0.565 0.002 1.13-0 1.695 0.001 0.001 2.717-0 5.434 0.001 8.152 0.63 0.001 1.26 0.001 1.89 0-0.005-3.596 0.011-7.192-0.008-10.788-0.491 0.009-0.982 0.001-1.474 0.004M12.418 9.563c-0.114 1.795-0.219 3.591-0.325 5.386 0.615 0.264 1.235 0.518 1.85 0.783 0.645-0.745 1.823-0.977 2.683-0.485 0.74 0.465 0.849 1.506 0.558 2.265-0.305 0.794-1.183 1.21-1.997 1.2-0.833 0.038-1.662-0.225-2.338-0.709-0.359 0.493-0.715 0.987-1.070 1.483 0.653 0.552 1.488 0.843 2.325 0.965 0.95 0.133 1.948 0.098 2.846-0.268 0.776-0.309 1.455-0.879 1.846-1.622 0.68-1.309 0.591-3.038-0.336-4.208-1.045-1.286-3.040-1.485-4.456-0.734 0.054-0.746 0.107-1.492 0.162-2.238 1.467-0.001 2.933 0 4.4-0.001 0.001-0.606 0-1.212 0-1.818-2.049-0.001-4.098-0.001-6.147 0z"></path>
</svg>
