<?xml version="1.0" encoding="utf-8"?>
<!-- Generated by IcoMoon.io -->
<!DOCTYPE svg PUBLIC "-//W3C//DTD SVG 1.1//EN" "http://www.w3.org/Graphics/SVG/1.1/DTD/svg11.dtd">
<svg version="1.1" xmlns="http://www.w3.org/2000/svg" xmlns:xlink="http://www.w3.org/1999/xlink" width="24" height="24" viewBox="0 0 24 24">
<path fill="#000" opacity="0.98" d="M3 0h18v24h-18v-24M4.428 0.138c-0.726 0.052-1.324 0.728-1.299 1.454 0 6.938 0 13.877 0 20.816-0.029 0.751 0.612 1.453 1.369 1.464 5.001 0.003 10.002 0.002 15.004 0 0.764-0.002 1.415-0.708 1.385-1.466 0.001-6.937 0.001-13.873 0-20.81 0.033-0.797-0.686-1.506-1.481-1.468-4.993 0.004-9.986-0.015-14.978 0.010z"></path>
<path fill="#000" opacity="0.98" d="M4.534 0.44c4.952-0.014 9.905-0.005 14.857-0.005 0.638-0.039 1.221 0.522 1.187 1.165 0.004 6.799-0.001 13.598 0.002 20.396-0.002 0.344 0.032 0.717-0.161 1.023-0.203 0.354-0.607 0.562-1.012 0.547-4.959-0.001-9.918 0.005-14.876-0.003-0.612 0.007-1.128-0.562-1.093-1.166-0.001-6.93-0.001-13.861 0-20.791-0.034-0.607 0.487-1.166 1.096-1.166M4.323 1.117c-0.22 0.104-0.282 0.36-0.266 0.583 0.003 6.667 0.001 13.335 0.001 20.002 0.006 0.296-0.020 0.595 0.021 0.89 0.061 0.225 0.291 0.373 0.52 0.353 4.932 0.003 9.864 0.002 14.796 0.001 0.309 0.042 0.59-0.232 0.562-0.539 0.002-6.938 0.003-13.875-0.001-20.812 0.027-0.304-0.251-0.573-0.555-0.533-4.867-0.005-9.735 0.001-14.602-0.004-0.158 0.011-0.33-0.017-0.476 0.059z"></path>
<path fill="#000" opacity="0.98" d="M10.115 3.547c0.186 0 0.372 0 0.559 0 0.329 1.326 0.66 2.653 0.988 3.98-0.19 0-0.38 0-0.57 0-0.092-0.363-0.185-0.725-0.272-1.088-0.286-0.007-0.573-0.007-0.859-0.005-0.089 0.364-0.177 0.728-0.264 1.093-0.19 0-0.381 0-0.571 0 0.329-1.327 0.658-2.654 0.989-3.98M10.379 4.732c-0.093 0.382-0.185 0.765-0.276 1.148 0.19 0 0.38 0 0.57 0-0.097-0.383-0.193-0.766-0.294-1.148z"></path>
<path fill="#000" opacity="0.98" d="M12.62 4.893c-0.254-0.614 0.198-1.395 0.878-1.411 0.589-0.064 1.061 0.461 1.086 1.022-0.177 0.001-0.354 0.002-0.53 0.002-0.063-0.249-0.258-0.51-0.549-0.452-0.382 0.008-0.567 0.568-0.245 0.786 0.503 0.337 1.131 0.662 1.277 1.307 0.199 0.701-0.394 1.522-1.145 1.443-0.635-0.017-1.042-0.647-1.053-1.235 0.184-0.001 0.367-0.002 0.551-0.001 0.040 0.289 0.168 0.655 0.512 0.679 0.459 0.063 0.781-0.507 0.559-0.89-0.333-0.531-1.083-0.658-1.341-1.25z"></path>
<path fill="#000" opacity="0.98" d="M15.655 4.916c-0.266-0.604 0.161-1.395 0.837-1.431 0.599-0.085 1.097 0.447 1.12 1.021-0.178 0-0.355 0.001-0.532 0.001-0.065-0.261-0.279-0.526-0.58-0.449-0.391 0.037-0.526 0.623-0.174 0.812 0.517 0.328 1.144 0.686 1.252 1.35 0.152 0.694-0.455 1.462-1.184 1.368-0.625-0.030-1.016-0.654-1.028-1.233 0.184-0.001 0.368-0.002 0.552-0.002 0.043 0.28 0.148 0.629 0.477 0.675 0.477 0.097 0.827-0.503 0.585-0.898-0.334-0.514-1.055-0.644-1.325-1.214z"></path>
<path fill="#000" opacity="0.98" d="M6.605 3.547c0.527 0.026 1.071-0.067 1.586 0.074 0.719 0.266 0.83 1.304 0.386 1.854-0.354 0.397-0.928 0.293-1.401 0.305 0 0.582 0 1.164 0 1.746-0.19 0.001-0.38 0.001-0.571 0.001 0-1.327 0-2.653 0-3.98M7.176 4.106c0 0.376 0 0.751 0 1.127 0.242-0.001 0.486 0.012 0.727-0.010 0.511-0.105 0.499-0.992-0.009-1.098-0.238-0.033-0.479-0.016-0.718-0.019z"></path>
<path fill="#000" opacity="0.98" d="M7.039 10.014c0.186-0.001 0.373-0.001 0.56-0.001 0.113 0.706 0.22 1.412 0.338 2.118 0.126-0.707 0.257-1.412 0.386-2.118 0.15 0 0.299 0.001 0.449 0.001 0.123 0.705 0.251 1.41 0.373 2.116 0.122-0.705 0.232-1.412 0.351-2.117 0.186 0 0.373 0 0.559 0.001-0.215 1.326-0.428 2.653-0.642 3.979-0.163 0-0.327 0-0.49 0-0.125-0.693-0.246-1.387-0.379-2.079-0.122 0.694-0.25 1.387-0.374 2.081-0.169-0.002-0.338-0.004-0.506-0.008-0.199-1.326-0.417-2.649-0.625-3.973z"></path>
<path fill="#000" opacity="0.98" d="M10.678 10.014c0.186 0 0.372 0 0.558 0 0.001 1.326 0.001 2.653 0.001 3.98-0.187 0-0.373 0-0.56 0 0-1.327 0-2.653 0.001-3.98z"></path>
<path fill="#000" opacity="0.98" d="M11.85 10.013c0.675 0.001 1.35 0 2.025 0.001 0 0.177 0 0.354-0.001 0.531-0.241 0-0.482 0-0.723 0-0.001 1.15-0.001 2.299 0 3.448-0.193 0.001-0.385 0.001-0.577 0.001-0.001-1.15 0-2.299-0.001-3.449-0.241 0-0.483 0-0.724 0 0-0.177 0-0.355 0.001-0.532z"></path>
<path fill="#000" opacity="0.98" d="M14.497 10.014c0.191 0 0.381 0 0.571 0 0 0.541 0 1.081 0 1.621 0.363 0 0.726 0 1.088 0.001 0.002-0.541 0-1.082 0.002-1.623 0.19 0 0.38 0.001 0.57 0.001 0.001 1.327 0.001 2.653 0 3.98-0.19 0-0.38 0-0.57 0 0-0.599-0.003-1.199 0.002-1.798-0.364-0.009-0.728-0.007-1.092-0.006 0 0.601 0 1.202 0.001 1.803-0.191 0.001-0.382 0.001-0.572 0.001 0-1.327-0.001-2.654 0-3.98z"></path>
<path fill="#000" opacity="0.98" d="M7.037 16.849c0.308-0.497 1.077-0.587 1.495-0.183 0.249 0.221 0.334 0.557 0.392 0.872-0.19 0.001-0.379 0.003-0.569 0.005-0.056-0.27-0.203-0.644-0.552-0.568-0.414 0.023-0.513 0.498-0.539 0.83-0.033 0.594-0.067 1.217 0.135 1.786 0.091 0.297 0.442 0.466 0.726 0.334 0.196-0.101 0.184-0.347 0.229-0.531 0.189-0.001 0.379-0.001 0.568 0-0.037 0.291-0.1 0.599-0.309 0.821-0.39 0.459-1.209 0.406-1.544-0.092-0.302-0.443-0.34-1.003-0.365-1.523-0.011-0.593 0.010-1.232 0.333-1.751z"></path>
<path fill="#000" opacity="0.98" d="M9.396 20.46c0.327-1.327 0.658-2.653 0.988-3.98 0.186 0 0.372 0 0.558 0 0.332 1.326 0.66 2.652 0.99 3.979-0.191 0-0.381 0.001-0.572 0.001-0.090-0.365-0.183-0.729-0.275-1.093-0.285-0.001-0.57-0.001-0.855 0-0.088 0.364-0.176 0.729-0.264 1.093-0.19 0-0.38 0-0.57 0M10.373 18.813c0.19 0 0.38 0 0.569 0-0.097-0.383-0.194-0.766-0.292-1.15-0.095 0.383-0.186 0.766-0.277 1.15z"></path>
<path fill="#000" opacity="0.98" d="M12.533 16.48c0.518 0.020 1.047-0.053 1.557 0.060 0.853 0.244 0.912 1.63 0.11 1.981 0.188 0.646 0.377 1.292 0.565 1.939-0.195 0-0.39 0-0.584-0.001-0.176-0.625-0.35-1.251-0.532-1.874-0.182 0.001-0.363 0.002-0.544 0.003-0.001 0.624 0 1.248-0.001 1.872-0.19 0-0.38 0-0.57 0-0.001-1.326 0-2.653-0.001-3.98M13.105 17.039c-0.001 0.333 0 0.667 0 1.001 0.263-0.004 0.53 0.021 0.792-0.023 0.409-0.118 0.411-0.79 0.021-0.934-0.263-0.075-0.542-0.034-0.813-0.044z"></path>
<path fill="#000" opacity="0.98" d="M15.448 20.46c0-1.326-0.001-2.652 0-3.979 0.624 0 1.249 0 1.873 0 0 0.187 0 0.373 0 0.56-0.434 0-0.868 0-1.301 0-0.001 0.334-0.001 0.668 0 1.003 0.275-0.001 0.549-0.001 0.824-0.001 0 0.183 0 0.366-0.001 0.549-0.274 0-0.549 0-0.823 0-0.001 0.436-0.001 0.872 0 1.308 0.485 0 0.97-0.001 1.455 0.001-0.001 0.186-0.001 0.373-0.001 0.56-0.676 0-1.351 0-2.026-0.001z"></path>
<path fill="#fff" d="M4.428 0.138c4.992-0.025 9.985-0.006 14.978-0.010 0.795-0.038 1.514 0.671 1.481 1.468 0.001 6.937 0.001 13.873 0 20.81 0.030 0.758-0.621 1.464-1.385 1.466-5.002 0.002-10.003 0.003-15.004 0-0.757-0.011-1.398-0.713-1.369-1.464 0-6.939 0-13.878 0-20.816-0.025-0.726 0.573-1.402 1.299-1.454M4.534 0.44c-0.609 0-1.13 0.559-1.096 1.166-0.001 6.93-0.001 13.861 0 20.791-0.035 0.604 0.481 1.173 1.093 1.166 4.958 0.008 9.917 0.002 14.876 0.003 0.405 0.015 0.809-0.193 1.012-0.547 0.193-0.306 0.159-0.679 0.161-1.023-0.003-6.798 0.002-13.597-0.002-20.396 0.034-0.643-0.549-1.204-1.187-1.165-4.952 0-9.905-0.009-14.857 0.005z"></path>
<path fill="#fff" d="M4.323 1.117c0.146-0.076 0.318-0.048 0.476-0.059 4.867 0.005 9.735-0.001 14.602 0.004 0.304-0.040 0.582 0.229 0.555 0.533 0.004 6.937 0.003 13.874 0.001 20.812 0.028 0.307-0.253 0.581-0.562 0.539-4.932 0.001-9.864 0.002-14.796-0.001-0.229 0.020-0.459-0.128-0.52-0.353-0.041-0.295-0.015-0.594-0.021-0.89 0-6.667 0.002-13.335-0.001-20.002-0.016-0.223 0.046-0.479 0.266-0.583M10.115 3.547c-0.331 1.326-0.66 2.653-0.989 3.98 0.19 0 0.381 0 0.571 0 0.087-0.365 0.175-0.729 0.264-1.093 0.286-0.002 0.573-0.002 0.859 0.005 0.087 0.363 0.18 0.725 0.272 1.088 0.19 0 0.38 0 0.57 0-0.328-1.327-0.659-2.654-0.988-3.98-0.187 0-0.373 0-0.559 0M12.62 4.893c0.258 0.592 1.008 0.719 1.341 1.25 0.222 0.383-0.1 0.953-0.559 0.89-0.344-0.024-0.472-0.39-0.512-0.679-0.184-0.001-0.367 0-0.551 0.001 0.011 0.588 0.418 1.218 1.053 1.235 0.751 0.079 1.344-0.742 1.145-1.443-0.146-0.645-0.774-0.97-1.277-1.307-0.322-0.218-0.137-0.778 0.245-0.786 0.291-0.058 0.486 0.203 0.549 0.452 0.176 0 0.353-0.001 0.53-0.002-0.025-0.561-0.497-1.086-1.086-1.022-0.68 0.016-1.132 0.797-0.878 1.411M15.655 4.916c0.27 0.57 0.991 0.7 1.325 1.214 0.242 0.395-0.108 0.995-0.585 0.898-0.329-0.046-0.434-0.395-0.477-0.675-0.184 0-0.368 0.001-0.552 0.002 0.012 0.579 0.403 1.203 1.028 1.233 0.729 0.094 1.336-0.674 1.184-1.368-0.108-0.664-0.735-1.022-1.252-1.35-0.352-0.189-0.217-0.775 0.174-0.812 0.301-0.077 0.515 0.188 0.58 0.449 0.177 0 0.354-0.001 0.532-0.001-0.023-0.574-0.521-1.106-1.12-1.021-0.676 0.036-1.103 0.827-0.837 1.431M6.605 3.547c0 1.327 0 2.653 0 3.98 0.191 0 0.381 0 0.571-0.001 0-0.582 0-1.164 0-1.746 0.473-0.012 1.047 0.092 1.401-0.305 0.444-0.55 0.333-1.588-0.386-1.854-0.515-0.141-1.059-0.048-1.586-0.074M7.039 10.014c0.208 1.324 0.426 2.647 0.625 3.973 0.168 0.004 0.337 0.006 0.506 0.008 0.124-0.694 0.252-1.387 0.374-2.081 0.133 0.692 0.254 1.386 0.379 2.079 0.163 0 0.327 0 0.49 0 0.214-1.326 0.427-2.653 0.642-3.979-0.186-0.001-0.373-0.001-0.559-0.001-0.119 0.705-0.229 1.412-0.351 2.117-0.122-0.706-0.25-1.411-0.373-2.116-0.15 0-0.299-0.001-0.449-0.001-0.129 0.706-0.26 1.411-0.386 2.118-0.118-0.706-0.225-1.412-0.338-2.118-0.187 0-0.374 0-0.56 0.001M10.678 10.014c-0.001 1.327-0.001 2.653-0.001 3.98 0.187 0 0.373 0 0.56 0 0-1.327 0-2.654-0.001-3.98-0.186 0-0.372 0-0.558 0M11.85 10.013c-0.001 0.177-0.001 0.355-0.001 0.532 0.241 0 0.483 0 0.724 0 0.001 1.15 0 2.299 0.001 3.449 0.192 0 0.384 0 0.577-0.001-0.001-1.149-0.001-2.298 0-3.448 0.241 0 0.482 0 0.723 0 0.001-0.177 0.001-0.354 0.001-0.531-0.675-0.001-1.35 0-2.025-0.001M14.497 10.014c-0.001 1.326 0 2.653 0 3.98 0.19 0 0.381 0 0.572-0.001-0.001-0.601-0.001-1.202-0.001-1.803 0.364-0.001 0.728-0.003 1.092 0.006-0.005 0.599-0.002 1.199-0.002 1.798 0.19 0 0.38 0 0.57 0 0.001-1.327 0.001-2.653 0-3.98-0.19 0-0.38-0.001-0.57-0.001-0.002 0.541 0 1.082-0.002 1.623-0.362-0.001-0.725-0.001-1.088-0.001 0-0.54 0-1.080 0-1.621-0.19 0-0.38 0-0.571 0M7.037 16.849c-0.323 0.519-0.344 1.158-0.333 1.751 0.025 0.52 0.063 1.080 0.365 1.523 0.335 0.498 1.154 0.551 1.544 0.092 0.209-0.222 0.272-0.53 0.309-0.821-0.189-0.001-0.379-0.001-0.568 0-0.045 0.184-0.033 0.43-0.229 0.531-0.284 0.132-0.635-0.037-0.726-0.334-0.202-0.569-0.168-1.192-0.135-1.786 0.026-0.332 0.125-0.807 0.539-0.83 0.349-0.076 0.496 0.298 0.552 0.568 0.19-0.002 0.379-0.004 0.569-0.005-0.058-0.315-0.143-0.651-0.392-0.872-0.418-0.404-1.187-0.314-1.495 0.183M9.396 20.46c0.19 0 0.38 0 0.57 0 0.088-0.364 0.176-0.729 0.264-1.093 0.285-0.001 0.57-0.001 0.855 0 0.092 0.364 0.185 0.728 0.275 1.093 0.191 0 0.381-0.001 0.572-0.001-0.33-1.327-0.658-2.653-0.99-3.979-0.186 0-0.372 0-0.558 0-0.33 1.327-0.661 2.653-0.988 3.98M12.533 16.48c0.001 1.327 0 2.654 0.001 3.98 0.19 0 0.38 0 0.57 0 0.001-0.624 0-1.248 0.001-1.872 0.181-0.001 0.362-0.002 0.544-0.003 0.182 0.623 0.356 1.249 0.532 1.874 0.194 0.001 0.389 0.001 0.584 0.001-0.188-0.647-0.377-1.293-0.565-1.939 0.802-0.351 0.743-1.737-0.11-1.981-0.51-0.113-1.039-0.040-1.557-0.060M15.448 20.46c0.675 0.001 1.35 0.001 2.026 0.001 0-0.187 0-0.374 0.001-0.56-0.485-0.002-0.97-0.001-1.455-0.001-0.001-0.436-0.001-0.872 0-1.308 0.274 0 0.549 0 0.823 0 0.001-0.183 0.001-0.366 0.001-0.549-0.275 0-0.549 0-0.824 0.001-0.001-0.335-0.001-0.669 0-1.003 0.433 0 0.867 0 1.301 0 0-0.187 0-0.373 0-0.56-0.624 0-1.249 0-1.873 0-0.001 1.327 0 2.653 0 3.979z"></path>
<path fill="#fff" d="M7.176 4.106c0.239 0.003 0.48-0.014 0.718 0.019 0.508 0.106 0.52 0.993 0.009 1.098-0.241 0.022-0.485 0.009-0.727 0.010 0-0.376 0-0.751 0-1.127z"></path>
<path fill="#fff" d="M10.379 4.732c0.101 0.382 0.197 0.765 0.294 1.148-0.19 0-0.38 0-0.57 0 0.091-0.383 0.183-0.766 0.276-1.148z"></path>
<path fill="#fff" d="M13.105 17.039c0.271 0.010 0.55-0.031 0.813 0.044 0.39 0.144 0.388 0.816-0.021 0.934-0.262 0.044-0.529 0.019-0.792 0.023 0-0.334-0.001-0.668 0-1.001z"></path>
<path fill="#fff" d="M10.373 18.813c0.091-0.384 0.182-0.767 0.277-1.15 0.098 0.384 0.195 0.767 0.292 1.15-0.189 0-0.379 0-0.569 0z"></path>
</svg>
