<svg xmlns="http://www.w3.org/2000/svg" width="24" height="24">
    <path fill="#fff" d="M11.091 0h1.849c1.764.163 3.507.67 5.04 1.569a12.062 12.062 0 0 1 5.365 6.441c.356.992.553 2.034.654 3.081v1.847c-.164 1.753-.664 3.486-1.553 5.012a12.075 12.075 0 0 1-6.528 5.421c-.959.338-1.964.521-2.972.629h-1.885c-2.549-.219-5.035-1.236-6.955-2.936C1.741 19.034.254 16.049 0 12.948v-1.889c.123-1.24.39-2.472.873-3.624a12.11 12.11 0 0 1 5.031-5.801C7.478.699 9.27.156 11.091 0zm.275.596c-2.333.119-4.62.99-6.448 2.445a11.43 11.43 0 0 0-4.08 6.522 11.457 11.457 0 0 0 .204 5.665 11.428 11.428 0 0 0 4.276 6.033 11.371 11.371 0 0 0 6.211 2.151c3.061.146 6.152-1.024 8.357-3.151 2.055-1.948 3.343-4.686 3.511-7.514a11.376 11.376 0 0 0-1.014-5.508 11.457 11.457 0 0 0-6.115-5.835 11.35 11.35 0 0 0-4.902-.807z"/>
    <path fill="#fff" d="M9.043 1.591c3.007-.875 6.378-.34 8.973 1.41-1.522 1.549-3.066 3.078-4.604 4.612-.582-.684-1.449-1.133-2.352-1.158-1.001-.061-2.009.392-2.646 1.162-.453.556-.622 1.289-.624 1.994.002 1.205-.005 2.409.003 3.614a62.533 62.533 0 0 1-1.565 1.568c-.015-2.745.001-5.491-.008-8.237-.432-.027-.867-.002-1.3-.012-.14.007-.303-.033-.416.075-.483.363-.986.7-1.46 1.073-.014.574-.007 1.15-.003 1.725.521-.365 1.024-.755 1.545-1.118.012 2.705-.014 5.41.013 8.115-.515.549-1.059 1.077-1.597 1.605a10.83 10.83 0 0 1 .125-12.214A10.827 10.827 0 0 1 9.04 1.593zM13.738 8.149c1.589-1.599 3.185-3.191 4.78-4.783.075.056.152.109.225.167l-.022.047-4.839 4.839c-.052-.089-.106-.176-.144-.271zM14.014 9.143c1.731-1.74 3.47-3.473 5.206-5.208.068.071.147.132.214.204-.91.907-1.807 1.83-2.733 2.72-.932.844-1.741 1.81-2.657 2.674l-.03-.39zM17.975 6.45c.629-.628 1.254-1.259 1.887-1.883.069.069.138.14.2.217-.561.558-1.11 1.132-1.685 1.673-.134-.007-.268-.001-.402-.007zM20.444 5.257c.084.042.123.157.191.225-.394.397-.787.796-1.189 1.186a7.46 7.46 0 0 1-.294-.115c.426-.436.861-.865 1.292-1.297zM20.012 6.965c.325-.329.644-.668.987-.977a10.833 10.833 0 0 1 1.649 7.932c-.508 2.931-2.306 5.602-4.816 7.194a10.8 10.8 0 0 1-7.239 1.614 10.778 10.778 0 0 1-4.605-1.731c1.207-1.237 2.439-2.453 3.665-3.672 1.399.609 3.208.079 3.99-1.246.546-.94.372-2.065.389-3.101v-.03c.362-.377.735-.746 1.109-1.11.011.898-.001 1.796.006 2.695.015.727.232 1.479.741 2.017.964 1.051 2.641 1.34 3.894.653.673-.352 1.244-.943 1.454-1.687.205-.636.144-1.312.153-1.969-.005-1.39.009-2.78-.007-4.17-.019-.967-.518-1.925-1.369-2.412z"/>
    <path fill="#fff" d="M9.92 8.42c.669-.578 1.883-.432 2.297.387-.926.936-1.858 1.868-2.794 2.794-.001-.649-.003-1.297 0-1.945.002-.453.143-.931.496-1.235zM17.534 8.22c.15-.042.297-.12.457-.095-.378.387-.763.766-1.146 1.149-.029-.181.072-.344.126-.51.161-.202.343-.406.563-.543zM16.769 10.214c.676-.696 1.365-1.384 2.061-2.061.572.219.927.808.928 1.41.016 1.546.002 3.093.008 4.64.004.421-.052.871-.319 1.214-.46.611-1.406.697-2.034.308-.445-.283-.64-.827-.638-1.335-.007-1.392.004-2.783-.005-4.175zM15.131 9.298c.005.134.027.267.013.401-.361.372-.733.735-1.098 1.103-.011-.12-.002-.242-.017-.362l-.001-.03c.353-.383.734-.744 1.103-1.112zM9.418 12.47c.986-1.001 1.985-1.99 2.978-2.983.013.121.023.243.037.364-.981 1.022-2 2.01-3 3.015a8.776 8.776 0 0 1-.015-.397zM15.131 10.572c.01.131.016.262.017.394-.361.375-.735.739-1.102 1.107-.004-.121-.007-.243-.015-.363v-.03c.357-.379.732-.741 1.101-1.108zM9.419 13.738c.99-1 1.989-1.989 2.981-2.987.012.123.019.246.034.369-.976 1.025-2.002 2.012-3 3.02-.007-.134-.016-.268-.015-.402zM12.405 12.021c.009.134.011.268.014.402-.924.941-1.864 1.867-2.794 2.801a1.078 1.078 0 0 1-.123-.298c.965-.971 1.935-1.937 2.903-2.905zM12.407 13.295c.006.131.008.262.016.393a190.02 190.02 0 0 1-2.152 2.154l-.262-.146c.793-.806 1.596-1.603 2.398-2.401zM6.225 15.66c.508-.52 1.029-1.029 1.541-1.546.014.125.033.25.033.377-.506.532-1.035 1.045-1.556 1.564-.013-.131-.027-.263-.017-.395zM11.036 15.948c.438-.461.891-.911 1.35-1.351-.009.715-.627 1.357-1.35 1.351zM6.228 16.928c.542-.549 1.09-1.092 1.635-1.638.03.099.084.188.12.285-.559.599-1.16 1.168-1.737 1.753-.015-.133-.034-.266-.018-.4zM8.235 16.19c.068.075.135.153.181.244-1.213 1.208-2.42 2.422-3.633 3.63-.075-.064-.146-.133-.217-.202 1.22-1.227 2.446-2.447 3.668-3.672zM8.842 16.856a.787.787 0 0 1 .242.182c-1.204 1.195-2.398 2.401-3.603 3.597-.07-.068-.176-.108-.226-.19 1.194-1.198 2.393-2.392 3.587-3.589zM3.367 18.519c.395-.407.804-.801 1.2-1.208l.04.182c.062.008.124.014.187.016-.423.404-.823.862-1.26 1.231-.057-.073-.11-.149-.166-.221zM5.674 17.498l.391.011c-.641.643-1.282 1.286-1.926 1.925-.072-.068-.136-.144-.203-.216.581-.57 1.142-1.169 1.738-1.719z"/>
    <path d="M11.366.596a11.35 11.35 0 0 1 4.902.807 11.46 11.46 0 0 1 6.115 5.835 11.353 11.353 0 0 1 1.014 5.508c-.169 2.828-1.457 5.566-3.511 7.514-2.205 2.127-5.296 3.297-8.357 3.151a11.363 11.363 0 0 1-6.211-2.151 11.432 11.432 0 0 1-4.276-6.033 11.458 11.458 0 0 1-.204-5.665 11.44 11.44 0 0 1 4.08-6.522A11.361 11.361 0 0 1 11.366.595zm-2.323.995A10.824 10.824 0 0 0 3.13 5.803a10.695 10.695 0 0 0-1.786 4.319 10.824 10.824 0 0 0 1.661 7.895c.538-.528 1.082-1.056 1.597-1.605.557-.523 1.095-1.075 1.628-1.62a64.271 64.271 0 0 0 1.565-1.568c.554-.529 1.091-1.078 1.629-1.623.937-.926 1.868-1.858 2.794-2.794a67.32 67.32 0 0 0 1.195-1.195C14.95 6.079 16.495 4.549 18.017 3 15.422 1.251 12.051.716 9.044 1.59zm4.695 6.558c-.452.441-.896.891-1.342 1.338-.993.993-1.992 1.982-2.978 2.983-.557.541-1.099 1.098-1.651 1.644-.512.517-1.033 1.026-1.541 1.546-.558.545-1.102 1.105-1.659 1.65-.395.407-.805.801-1.2 1.208.057.073.109.149.166.221.437-.369.838-.828 1.26-1.231.484-.48.961-.968 1.45-1.445v-.009c.521-.519 1.05-1.032 1.556-1.564.557-.526 1.083-1.084 1.633-1.617v-.007c1-1.005 2.019-1.994 3-3.015.5-.458.964-.957 1.449-1.432L18.72 3.58l.022-.047c-.074-.058-.151-.111-.225-.167-1.596 1.592-3.192 3.184-4.78 4.783zm.276.994c-.542.532-1.074 1.074-1.614 1.608-.992.998-1.992 1.987-2.981 2.987-.523.513-1.037 1.035-1.556 1.552-.545.546-1.094 1.089-1.635 1.638-.185.189-.39.362-.554.57-.596.55-1.157 1.149-1.738 1.719.067.072.131.148.203.216.645-.639 1.285-1.282 1.926-1.925.064-.056.128-.113.18-.18.577-.585 1.178-1.154 1.737-1.753.5-.46.969-.959 1.451-1.436.998-1.007 2.025-1.995 3-3.02.556-.507 1.07-1.062 1.609-1.587.915-.864 1.725-1.83 2.657-2.674.927-.889 1.823-1.813 2.733-2.72-.067-.073-.145-.133-.214-.204-1.736 1.735-3.475 3.468-5.206 5.208zm3.961-2.693c-.949.946-1.893 1.897-2.843 2.84v.008c-.369.368-.75.729-1.103 1.112l.001.03c-.577.475-1.078 1.062-1.625 1.581-.967.968-1.938 1.935-2.903 2.905-.425.418-.844.843-1.266 1.264-1.223 1.224-2.449 2.445-3.668 3.672.07.069.141.138.217.202 1.213-1.207 2.42-2.422 3.633-3.63.401-.405.806-.806 1.207-1.209.93-.935 1.87-1.86 2.794-2.801.549-.533 1.085-1.081 1.627-1.62.366-.368.737-.731 1.098-1.103 1.08-1.079 2.171-2.148 3.233-3.243.574-.54 1.124-1.115 1.685-1.673a2.413 2.413 0 0 0-.2-.217c-.632.624-1.258 1.256-1.887 1.883zm2.469-1.193c-.431.432-.866.86-1.292 1.297l-.008-.003c-.499.51-1.008 1.012-1.513 1.517-.042.044-.096.087-.097.153-.219.137-.402.341-.563.543-.646.56-1.218 1.21-1.84 1.8v.008c-.369.367-.744.729-1.101 1.108v.03c-.575.477-1.071 1.062-1.621 1.576l-.002.009c-.802.798-1.605 1.595-2.398 2.401-.396.379-.777.775-1.167 1.16-1.194 1.198-2.393 2.392-3.587 3.589.051.082.156.122.226.19 1.205-1.195 2.399-2.401 3.603-3.597.392-.402.798-.791 1.187-1.196a190.02 190.02 0 0 0 2.152-2.154c.548-.53 1.082-1.076 1.621-1.615.368-.368.742-.732 1.102-1.107.571-.557 1.136-1.13 1.697-1.692.383-.383.767-.762 1.146-1.149.485-.477.976-.967 1.455-1.457.402-.39.795-.789 1.189-1.186-.068-.068-.107-.183-.191-.225zm-.432 1.708c-.399.391-.8.782-1.183 1.188-.696.677-1.385 1.365-2.061 2.061-.553.53-1.091 1.078-1.629 1.623-.374.365-.747.734-1.109 1.11v.03c-.579.489-1.087 1.077-1.642 1.601l-.003.018c-.459.44-.912.891-1.35 1.351l-.019.003c-.452.46-.917.908-1.365 1.374-1.226 1.219-2.458 2.436-3.665 3.672a10.783 10.783 0 0 0 4.605 1.731 10.8 10.8 0 0 0 7.239-1.614c2.51-1.593 4.308-4.263 4.816-7.194a10.828 10.828 0 0 0-1.649-7.932c-.343.309-.662.648-.987.977z"/>
    <path fill="gray" d="M15.132 9.29c.951-.944 1.895-1.894 2.843-2.84.134.005.268 0 .402.007-1.062 1.095-2.153 2.164-3.232 3.243.014-.135-.008-.268-.013-.401v-.008zM8.415 7.615a3.237 3.237 0 0 1 2.646-1.162c.903.025 1.77.474 2.352 1.158a67.32 67.32 0 0 1-1.195 1.195c-.414-.818-1.628-.965-2.297-.387-.353.304-.494.782-.496 1.235-.003.648-.001 1.297 0 1.945-.538.545-1.075 1.094-1.629 1.623-.008-1.205-.001-2.409-.003-3.614.003-.705.171-1.438.624-1.994zM19.143 6.55l.008.003c.097.041.195.08.294.115-.479.49-.97.98-1.455 1.457-.16-.025-.308.053-.457.095.001-.067.055-.11.097-.153.505-.505 1.014-1.006 1.513-1.517zM4.506 6.617c.113-.107.276-.068.416-.075.433.009.868-.015 1.3.012.009 2.745-.007 5.491.008 8.237-.534.545-1.071 1.097-1.628 1.62-.027-2.704-.001-5.41-.013-8.115-.521.364-1.024.754-1.545 1.118-.004-.575-.011-1.15.003-1.725.473-.373.977-.711 1.46-1.073zM18.83 8.153c.383-.406.784-.797 1.183-1.188.851.487 1.35 1.444 1.369 2.412.016 1.39.002 2.78.007 4.17-.009.658.052 1.333-.153 1.969-.21.743-.781 1.335-1.454 1.687-1.253.687-2.93.398-3.894-.653-.509-.538-.726-1.29-.741-2.017-.007-.899.005-1.797-.006-2.695.538-.546 1.076-1.094 1.629-1.623.009 1.392-.001 2.783.005 4.175-.002.509.193 1.053.638 1.335.628.389 1.574.303 2.034-.308.266-.343.323-.793.319-1.214-.006-1.546.008-3.093-.008-4.64-.001-.602-.356-1.191-.928-1.41zM12.396 9.487c.446-.447.89-.897 1.342-1.338.038.095.093.182.144.271-.485.475-.949.973-1.449 1.432-.014-.121-.024-.243-.037-.364zM15.131 10.564c.622-.59 1.194-1.24 1.84-1.8-.054.166-.155.329-.126.51-.561.562-1.126 1.134-1.697 1.692a5.74 5.74 0 0 0-.017-.394v-.008zM12.4 10.751c.54-.534 1.072-1.077 1.614-1.608.008.13.021.26.03.39-.54.525-1.053 1.08-1.609 1.587-.015-.123-.022-.246-.034-.369zM12.405 12.021c.547-.519 1.047-1.106 1.625-1.581.015.12.006.242.017.362-.543.54-1.078 1.088-1.628 1.62-.003-.134-.005-.268-.014-.402zM12.409 13.286c.55-.514 1.046-1.099 1.621-1.576.008.12.011.242.015.363-.539.539-1.073 1.085-1.621 1.615-.008-.131-.01-.262-.016-.393l.002-.009zM7.766 14.114c.552-.546 1.095-1.103 1.651-1.644.002.132.007.264.015.397v.007c-.55.533-1.076 1.091-1.633 1.617 0-.127-.019-.252-.033-.377zM12.39 14.579c.555-.524 1.063-1.112 1.642-1.601-.017 1.036.158 2.161-.389 3.101-.782 1.325-2.591 1.856-3.99 1.246.447-.465.913-.914 1.365-1.374l.019-.003c.723.006 1.341-.637 1.35-1.351l.003-.018zM7.863 15.29c.518-.518 1.033-1.039 1.556-1.552-.001.134.008.268.015.402-.482.477-.952.975-1.451 1.436-.036-.097-.089-.187-.12-.285zM8.235 16.19c.422-.421.841-.846 1.266-1.264.022.107.071.203.123.298-.402.404-.807.805-1.207 1.209a1.235 1.235 0 0 0-.181-.244zM4.566 17.311c.557-.546 1.101-1.106 1.659-1.65-.01.132.004.263.017.395v.009c-.488.476-.966.964-1.45 1.445a1.938 1.938 0 0 1-.187-.016 5.34 5.34 0 0 1-.04-.182zM8.842 16.856c.39-.385.772-.78 1.167-1.16l.262.146c-.389.405-.795.794-1.187 1.196a.768.768 0 0 0-.242-.182zM5.674 17.498c.164-.208.368-.381.554-.57-.016.134.003.267.018.4a1.391 1.391 0 0 1-.18.18l-.391-.011z"/>
</svg>
