<!-- Generated by IcoMoon.io -->
<svg version="1.1" xmlns="http://www.w3.org/2000/svg" width="24" height="24" viewBox="0 0 24 24">
<title>regulatory--slanted-parking--g1</title>
<path fill="#0066b3" d="M1.518 0h20.951c0.338 0.090 0.653 0.258 0.89 0.518-0.436-0.212-0.896-0.409-1.391-0.392-6.686 0.006-13.373-0.004-20.058 0.005-0.964-0.042-1.828 0.812-1.776 1.781-0.002 6.725-0.002 13.452 0 20.178-0.046 0.962 0.81 1.828 1.776 1.775 6.726 0 13.452 0 20.178 0 0.967 0.052 1.822-0.812 1.776-1.776 0.007-6.684-0.002-13.369 0.005-20.054 0.019-0.494-0.172-0.958-0.386-1.392 0.238 0.228 0.404 0.515 0.517 0.823v20.998c-0.176 0.754-0.768 1.352-1.518 1.537h-21.004c-0.726-0.209-1.298-0.788-1.478-1.524v-21.017c0.222-0.71 0.786-1.284 1.518-1.459z"></path>
<path fill="#0066b3" d="M1.711 0.988c0.222-0.072 0.458-0.073 0.689-0.078 6.439 0.007 12.878-0.001 19.318 0.004 0.695-0.060 1.352 0.532 1.318 1.237 0.010 6.524 0.001 13.051 0.004 19.576 0.062 0.676-0.499 1.339-1.19 1.316-6.565 0.011-13.129 0.005-19.694 0.004-0.715 0.049-1.32-0.624-1.249-1.327 0.002-6.518-0.004-13.038 0.004-19.556-0.020-0.514 0.312-1.015 0.803-1.175M3.294 2.449c-0.004 5.063 0.002 10.126-0.002 15.188 0.666 0.017 1.333 0.011 2 0.008-0.001-5.066 0.011-10.133-0.006-15.199-0.664 0.001-1.328 0-1.992 0.002M10.844 3.060c-1.416 1.153-2.614 2.58-3.952 3.834-0.385 0.296-0.586 0.904-0.199 1.283 2.912 2.933 5.843 5.849 8.765 8.77 0.292 0.329 0.842 0.341 1.14 0.016 1.284-1.279 2.566-2.56 3.844-3.844 0.353-0.326 0.278-0.905-0.077-1.2-2.84-2.84-5.681-5.682-8.518-8.527-0.25-0.268-0.632-0.497-1.003-0.331M14.684 18.468c0.406 0.167 0.817 0.334 1.256 0.385 0.001-0.085 0.004-0.254 0.005-0.34-0.403-0.091-1.033-0.637-1.261-0.046M18.812 18.185c-0.047 0.125-0.094 0.25-0.14 0.374-0.529 0.013-1.074-0.077-1.592 0.060 0.092 0.619 1.164 0.163 1.648 0.304 0 0.073 0 0.22 0 0.293-0.43 0.046-0.931-0.121-1.313 0.116-0.050 0.355-0.040 0.715-0.032 1.073-0.094 0.768 0.899 0.39 1.351 0.478-0.005 0.080-0.014 0.24-0.018 0.32-0.551 0.12-1.474-0.308-1.74 0.312 0.564 0.072 1.134 0.042 1.7 0.046-0.062 0.636 0.636 0.642 0.57 0.001 0.568-0.005 1.139 0.023 1.704-0.046-0.268-0.622-1.19-0.193-1.742-0.313-0.004-0.080-0.010-0.24-0.013-0.319 0.42-0.028 0.866 0.066 1.27-0.065 0.175-0.476 0.041-1.027 0.071-1.532-0.438-0.097-0.89-0.076-1.336-0.071 0-0.073-0.001-0.22-0.001-0.293 0.482-0.139 1.577 0.313 1.644-0.307-0.52-0.13-1.062-0.044-1.591-0.056-0.047-0.126-0.094-0.252-0.14-0.378-0.1 0-0.198 0.001-0.298 0.004M2.951 19.446c0.311 0.024 0.62 0.052 0.931 0.080 0.001 0.104 0.002 0.312 0.002 0.416-0.264 0.014-0.533 0.010-0.791 0.079-0.108 0.47 0.518 0.257 0.79 0.33 0.004 0.4 0.002 0.799-0.005 1.199-0.108 0.042-0.322 0.126-0.43 0.168 0.132 0.33 0.498 0.275 0.785 0.289 0.113-0.544 0.077-1.1 0.079-1.651 0.228-0.024 0.473 0.004 0.684-0.101 0.094-0.391-0.458-0.27-0.686-0.316 0.001-0.095 0.005-0.283 0.007-0.377 0.292-0.062 0.722-0.218 0.706-0.578-0.296-0.296-0.586-0.798-1.054-0.762-0.401 0.336-0.85 0.71-1.019 1.223M6.288 18.302c-0.116 0.752-0.010 1.524-0.055 2.284-0.39 0.17-1.253-0.034-1.234 0.565 0.419 0.034 0.826-0.102 1.234-0.175 0.006 0.341 0.012 0.682 0.025 1.022 0.631 0.128 0.389-0.647 0.428-1.015 0.132-0.116 0.263-0.233 0.392-0.35-0.13-0.082-0.259-0.162-0.39-0.242-0.025-0.732 0.060-1.471-0.064-2.196-0.084 0.026-0.253 0.082-0.337 0.108M10.462 18.256c-0.065 0.192-0.13 0.384-0.191 0.577-0.408 0.011-0.814 0.046-1.213 0.127-0.066-0.292-0.168-0.679-0.547-0.508 0.047 0.245 0.097 0.488 0.146 0.732-0.604 0.503-0.912 1.387-0.554 2.12 0.17 0.38 0.668 0.506 1.010 0.276 0.776-0.498 1.094-1.415 1.445-2.221 0.865 0.372 0.844 1.77-0.080 2.044-0.377 0.019-0.3 0.598 0.067 0.41 1.362-0.284 1.43-2.39 0.146-2.852 0.041-0.228 0.077-0.458 0.108-0.688-0.085-0.005-0.253-0.013-0.337-0.018M12.631 18.379c-0.122 0.713-0.041 1.447-0.032 2.168 0.424 0.041 0.851 0.043 1.276 0.035 0.018 0.146 0.037 0.292 0.055 0.438-0.095-0.144-0.191-0.286-0.289-0.427-0.152 0.36 0.088 0.667 0.286 0.946-0.16 0.046-0.319 0.092-0.479 0.138 0.004 0.070 0.012 0.208 0.016 0.276 0.192 0.025 0.385 0.048 0.578 0.068 0.047-0.060 0.143-0.18 0.19-0.24 0.65 0.242 1.373 0.116 2.051 0.108 0.362-0.41-0.432-0.394-0.689-0.382 0-0.313 0.001-0.626 0.004-0.938 0.216-0.010 0.431-0.019 0.647-0.030-0.007-0.086-0.020-0.262-0.028-0.349-0.206-0.008-0.414-0.016-0.622-0.023-0.001-0.258-0.002-0.515-0.004-0.772 0.251-0.016 0.502-0.032 0.752-0.053-0.013-0.088-0.038-0.263-0.050-0.35-0.632-0.025-1.264-0.024-1.896-0.002-0.010 0.090-0.031 0.269-0.042 0.358 0.257 0.018 0.515 0.032 0.772 0.047-0.002 0.254-0.004 0.509-0.006 0.763-0.246 0.031-0.781-0.071-0.68 0.341 0.221 0.062 0.452 0.064 0.68 0.080 0.001 0.307 0.002 0.616 0.004 0.924-0.284 0.017-0.569 0.036-0.852 0.070 0.034-0.421 0.046-0.845 0.017-1.267-0.2-0.070-0.462-0.090-0.534-0.33 0.161-0.042 0.323-0.083 0.486-0.124-0.002-0.054-0.008-0.162-0.011-0.217-0.166-0.047-0.33-0.096-0.494-0.146 0.164-0.152 0.374-0.235 0.577-0.32-0.148-0.164-0.361-0.229-0.563-0.3 0.13-0.2 0.377-0.215 0.583-0.276-0.28-0.536-1.184-0.259-1.702-0.212M5.254 18.601c0.067 0.391 0.397 0.666 0.712 0.874 0.036-0.071 0.108-0.211 0.144-0.281-0.238-0.223-0.46-0.857-0.856-0.593M5.042 19.458c-0.148 0.376 0.296 0.666 0.515 0.923 0.625-0.020-0.124-1.012-0.515-0.923M3.028 21.7c0.554 0.316 0.762-0.847 0.565-1.192-0.446 0.132-0.368 0.814-0.565 1.192M4.44 20.542c0.006 0.382 0.086 0.756 0.193 1.121 0.073 0.007 0.22 0.022 0.293 0.029 0.049-0.388-0.070-0.764-0.181-1.13-0.076-0.005-0.229-0.014-0.305-0.019M12.444 21.884c0.451-0.145 0.32-0.75 0.372-1.122-0.47-0.121-0.325 0.761-0.372 1.122M12.902 20.78c0.083 0.323-0.138 0.908 0.298 0.994 0.010-0.288 0.013-0.576 0.020-0.864 0.089 0.233 0.032 0.601 0.352 0.653-0.022-0.262-0.050-0.522-0.083-0.784-0.196 0.001-0.391 0.001-0.587 0.001z"></path>
<path fill="#0066b3" d="M10.19 3.985c0.299-0.256 0.532-0.79 0.976-0.748 0.078 0.376-0.595 1.195-0.976 0.748z"></path>
<path fill="#0066b3" d="M9.516 10.45c0.773-2.046 2.447-3.65 4.463-4.464 0.146 0.746 0.442 1.476 0.499 2.23-1.026 0.829-1.987 1.746-2.778 2.806-0.727-0.194-1.454-0.388-2.184-0.571z"></path>
<path fill="#0066b3" d="M14.417 6.496c1.487 1.393 2.91 2.858 4.336 4.314-0.702-0.156-1.618 0.074-2.112-0.571-0.557-0.605-1.192-1.139-1.722-1.766-0.234-0.637-0.34-1.318-0.502-1.976z"></path>
<path fill="#0066b3" d="M7.261 6.894c0.815-0.352-0.090 1.068-0.575 0.798 0.012-0.358 0.336-0.577 0.575-0.798z"></path>
<path fill="#0066b3" d="M9.977 10.932c0.817 0.259 1.847 0.173 2.43 0.901 0.434 0.445 0.875 0.886 1.321 1.319 0.636 0.502 0.415 1.415 0.563 2.12-1.448-1.435-2.912-2.858-4.314-4.34z"></path>
<path fill="#0066b3" d="M17.224 10.97c0.668 0.007 1.33 0.157 1.993 0.241-1.231 1.751-2.783 3.269-4.519 4.517-0.082-0.643-0.236-1.278-0.283-1.925 0.96-0.916 1.945-1.819 2.809-2.833z"></path>
<path fill="#0066b3" d="M13.044 18.676c0.108-0.004 0.216-0.006 0.324-0.010 0.014 0.071 0.041 0.211 0.054 0.282-0.145-0.002-0.289-0.005-0.434-0.007 0.014-0.066 0.042-0.199 0.056-0.265z"></path>
<path fill="#0066b3" d="M9.154 19.388c0.318-0.072 0.643-0.114 0.97-0.126-0.157 0.454-0.358 0.89-0.6 1.306-0.132-0.391-0.253-0.785-0.37-1.18z"></path>
<path fill="#0066b3" d="M12.934 19.529c0.126-0.302 0.444-0.326 0.53 0.022-0.176-0.004-0.354-0.011-0.53-0.022z"></path>
<path fill="#0066b3" d="M17.804 19.572c0.31-0.008 0.619-0.012 0.93-0.012-0.006 0.079-0.018 0.238-0.023 0.316-0.295-0.002-0.59-0.005-0.886-0.007-0.006-0.074-0.016-0.223-0.022-0.296z"></path>
<path fill="#0066b3" d="M19.193 19.561c0.31 0 0.619 0.002 0.929 0.010-0.006 0.074-0.017 0.223-0.023 0.299-0.295 0.001-0.592 0.004-0.888 0.006-0.005-0.078-0.013-0.236-0.018-0.314z"></path>
<path fill="#0066b3" d="M8.767 19.631c0.174 0.451 0.319 0.914 0.473 1.374-0.209 0.113-0.437 0.412-0.682 0.211-0.384-0.474-0.163-1.17 0.209-1.585z"></path>
<path fill="#0066b3" d="M12.994 19.934c0.14-0.006 0.281-0.008 0.421-0.010-0.010 0.074-0.028 0.222-0.037 0.296-0.114-0.004-0.228-0.006-0.342-0.008-0.011-0.070-0.031-0.209-0.042-0.278z"></path>
<path fill="#0066b3" d="M17.825 20.206c0.296-0.004 0.592-0.006 0.888-0.008 0.006 0.085 0.017 0.257 0.022 0.342-0.31-0.004-0.62-0.010-0.93-0.025 0.005-0.077 0.016-0.232 0.020-0.308z"></path>
<path fill="#0066b3" d="M19.21 20.197c0.296 0.002 0.594 0.004 0.892 0.007 0.005 0.078 0.014 0.234 0.020 0.312-0.31 0.013-0.619 0.019-0.929 0.022 0.004-0.085 0.012-0.256 0.017-0.341z"></path>
<path fill="#fff" d="M0.134 1.912c-0.052-0.968 0.812-1.823 1.776-1.781 6.685-0.008 13.372 0.001 20.058-0.005 0.494-0.017 0.955 0.18 1.391 0.392 0.043 0.040 0.084 0.080 0.124 0.124 0.215 0.434 0.406 0.898 0.386 1.392-0.007 6.685 0.002 13.37-0.005 20.054 0.046 0.964-0.809 1.828-1.776 1.776-6.726 0-13.452 0-20.178 0-0.966 0.053-1.822-0.812-1.776-1.775-0.002-6.726-0.002-13.453 0-20.178M1.711 0.988c-0.491 0.16-0.823 0.661-0.803 1.175-0.007 6.518-0.001 13.038-0.004 19.556-0.071 0.703 0.534 1.376 1.249 1.327 6.565 0.001 13.129 0.007 19.694-0.004 0.691 0.023 1.253-0.641 1.19-1.316-0.002-6.524 0.006-13.051-0.004-19.576 0.035-0.706-0.623-1.297-1.318-1.237-6.439-0.005-12.878 0.004-19.318-0.004-0.23 0.005-0.467 0.006-0.689 0.078z"></path>
<path fill="#fff" d="M3.294 2.449c0.664-0.002 1.328-0.001 1.992-0.002 0.017 5.066 0.005 10.133 0.006 15.199-0.667 0.002-1.334 0.008-2-0.008 0.005-5.063-0.001-10.126 0.002-15.188z"></path>
<path fill="#fff" d="M10.844 3.060c0.371-0.166 0.754 0.064 1.003 0.331 2.837 2.845 5.677 5.687 8.518 8.527 0.355 0.295 0.43 0.874 0.077 1.2-1.278 1.284-2.56 2.564-3.844 3.844-0.298 0.325-0.848 0.313-1.14-0.016-2.922-2.921-5.852-5.837-8.765-8.77-0.386-0.379-0.186-0.986 0.199-1.283 1.338-1.254 2.536-2.681 3.952-3.834M10.19 3.985c0.38 0.448 1.054-0.372 0.976-0.748-0.444-0.042-0.677 0.492-0.976 0.748M9.516 10.45c0.73 0.184 1.457 0.377 2.184 0.571 0.791-1.060 1.752-1.976 2.778-2.806-0.058-0.754-0.353-1.483-0.499-2.23-2.016 0.814-3.69 2.418-4.463 4.464M14.417 6.496c0.162 0.659 0.268 1.339 0.502 1.976 0.53 0.628 1.165 1.162 1.722 1.766 0.494 0.646 1.41 0.415 2.112 0.571-1.426-1.456-2.849-2.921-4.336-4.314M7.261 6.894c-0.239 0.221-0.563 0.44-0.575 0.798 0.485 0.27 1.39-1.15 0.575-0.798M9.977 10.932c1.402 1.482 2.866 2.905 4.314 4.34-0.148-0.706 0.073-1.619-0.563-2.12-0.446-0.433-0.887-0.874-1.321-1.319-0.583-0.728-1.613-0.642-2.43-0.901M17.224 10.97c-0.864 1.014-1.849 1.918-2.809 2.833 0.047 0.647 0.202 1.282 0.283 1.925 1.736-1.248 3.288-2.766 4.519-4.517-0.664-0.084-1.325-0.234-1.993-0.241z"></path>
<path fill="#fff" d="M14.684 18.468c0.228-0.592 0.858-0.046 1.261 0.046-0.001 0.085-0.004 0.254-0.005 0.34-0.439-0.052-0.851-0.218-1.256-0.385z"></path>
<path fill="#fff" d="M18.812 18.185c0.1-0.002 0.198-0.004 0.298-0.004 0.047 0.126 0.094 0.252 0.14 0.378 0.529 0.012 1.072-0.073 1.591 0.056-0.067 0.62-1.162 0.168-1.644 0.307 0 0.073 0.001 0.22 0.001 0.293 0.445-0.005 0.898-0.026 1.336 0.071-0.030 0.505 0.104 1.056-0.071 1.532-0.403 0.131-0.85 0.037-1.27 0.065 0.004 0.079 0.010 0.239 0.013 0.319 0.552 0.12 1.475-0.308 1.742 0.313-0.565 0.068-1.136 0.041-1.704 0.046 0.066 0.641-0.632 0.635-0.57-0.001-0.566-0.004-1.136 0.026-1.7-0.046 0.266-0.62 1.189-0.192 1.74-0.312 0.004-0.080 0.013-0.24 0.018-0.32-0.452-0.088-1.445 0.29-1.351-0.478-0.007-0.358-0.018-0.718 0.032-1.073 0.382-0.238 0.883-0.071 1.313-0.116 0-0.073 0-0.22 0-0.293-0.484-0.14-1.555 0.316-1.648-0.304 0.518-0.137 1.063-0.047 1.592-0.060 0.047-0.125 0.094-0.25 0.14-0.374M17.804 19.572c0.006 0.073 0.016 0.222 0.022 0.296 0.295 0.002 0.59 0.005 0.886 0.007 0.005-0.078 0.017-0.236 0.023-0.316-0.311 0-0.62 0.004-0.93 0.012M19.193 19.561c0.005 0.078 0.013 0.236 0.018 0.314 0.296-0.002 0.593-0.005 0.888-0.006 0.006-0.076 0.017-0.224 0.023-0.299-0.31-0.007-0.619-0.010-0.929-0.010M17.825 20.206c-0.005 0.077-0.016 0.232-0.020 0.308 0.31 0.016 0.62 0.022 0.93 0.025-0.005-0.085-0.016-0.257-0.022-0.342-0.296 0.002-0.592 0.005-0.888 0.008M19.21 20.197c-0.005 0.085-0.013 0.256-0.017 0.341 0.31-0.002 0.619-0.008 0.929-0.022-0.006-0.078-0.016-0.234-0.020-0.312-0.298-0.004-0.595-0.005-0.892-0.007z"></path>
<path fill="#fff" d="M2.951 19.446c0.169-0.512 0.618-0.887 1.019-1.223 0.468-0.036 0.757 0.466 1.054 0.762 0.017 0.36-0.414 0.516-0.706 0.578-0.002 0.094-0.006 0.282-0.007 0.377 0.228 0.046 0.78-0.076 0.686 0.316-0.211 0.104-0.456 0.077-0.684 0.101-0.002 0.551 0.034 1.108-0.079 1.651-0.287-0.014-0.653 0.041-0.785-0.289 0.108-0.042 0.322-0.126 0.43-0.168 0.007-0.4 0.008-0.799 0.005-1.199-0.271-0.073-0.898 0.14-0.79-0.33 0.258-0.070 0.527-0.065 0.791-0.079 0-0.104-0.001-0.312-0.002-0.416-0.311-0.029-0.62-0.056-0.931-0.080M3.595 19.135c0.355 0.005 0.712 0.005 1.068-0.001-0.191-0.206-0.384-0.412-0.576-0.616-0.166 0.205-0.33 0.41-0.492 0.617z"></path>
<path fill="#fff" d="M6.288 18.302c0.084-0.026 0.253-0.082 0.337-0.108 0.124 0.725 0.038 1.464 0.064 2.196 0.131 0.080 0.26 0.161 0.39 0.242-0.13 0.118-0.26 0.234-0.392 0.35-0.040 0.368 0.203 1.144-0.428 1.015-0.013-0.341-0.019-0.682-0.025-1.022-0.408 0.073-0.815 0.209-1.234 0.175-0.019-0.599 0.844-0.395 1.234-0.565 0.046-0.76-0.061-1.531 0.055-2.284z"></path>
<path fill="#fff" d="M10.462 18.256c0.084 0.005 0.252 0.013 0.337 0.018-0.031 0.229-0.067 0.46-0.108 0.688 1.284 0.462 1.216 2.568-0.146 2.852-0.367 0.187-0.444-0.391-0.067-0.41 0.924-0.274 0.946-1.672 0.080-2.044-0.35 0.806-0.668 1.723-1.445 2.221-0.342 0.23-0.84 0.104-1.010-0.276-0.358-0.733-0.049-1.618 0.554-2.12-0.049-0.244-0.1-0.487-0.146-0.732 0.379-0.172 0.481 0.216 0.547 0.508 0.4-0.082 0.805-0.116 1.213-0.127 0.061-0.193 0.126-0.385 0.191-0.577M9.154 19.388c0.116 0.395 0.238 0.788 0.37 1.18 0.242-0.415 0.443-0.852 0.6-1.306-0.326 0.012-0.652 0.054-0.97 0.126M8.767 19.631c-0.372 0.415-0.593 1.111-0.209 1.585 0.245 0.2 0.473-0.098 0.682-0.211-0.154-0.46-0.299-0.923-0.473-1.374z"></path>
<path fill="#fff" d="M12.631 18.379c0.517-0.047 1.422-0.324 1.702 0.212-0.206 0.061-0.454 0.076-0.583 0.276 0.202 0.071 0.415 0.136 0.563 0.3-0.203 0.085-0.413 0.168-0.577 0.32 0.164 0.050 0.329 0.1 0.494 0.146 0.002 0.055 0.008 0.163 0.011 0.217-0.163 0.041-0.325 0.082-0.486 0.124 0.072 0.24 0.334 0.26 0.534 0.33 0.029 0.422 0.017 0.846-0.017 1.267 0.283-0.034 0.568-0.053 0.852-0.070-0.001-0.308-0.002-0.617-0.004-0.924-0.228-0.017-0.46-0.018-0.68-0.080-0.101-0.412 0.434-0.31 0.68-0.341 0.002-0.254 0.004-0.509 0.006-0.763-0.257-0.014-0.515-0.029-0.772-0.047 0.011-0.089 0.032-0.268 0.042-0.358 0.632-0.022 1.264-0.023 1.896 0.002 0.012 0.088 0.037 0.263 0.050 0.35-0.251 0.020-0.502 0.037-0.752 0.053 0.001 0.257 0.002 0.514 0.004 0.772 0.208 0.007 0.415 0.014 0.622 0.023 0.007 0.088 0.020 0.263 0.028 0.349-0.216 0.011-0.431 0.020-0.647 0.030-0.002 0.312-0.004 0.625-0.004 0.938 0.257-0.012 1.051-0.029 0.689 0.382-0.678 0.008-1.4 0.134-2.051-0.108-0.047 0.060-0.143 0.18-0.19 0.24-0.193-0.020-0.386-0.043-0.578-0.068-0.004-0.068-0.012-0.206-0.016-0.276 0.16-0.046 0.319-0.092 0.479-0.138-0.198-0.278-0.438-0.586-0.286-0.946 0.098 0.142 0.194 0.283 0.289 0.427-0.018-0.146-0.037-0.292-0.055-0.438-0.425 0.008-0.852 0.006-1.276-0.035-0.008-0.721-0.090-1.456 0.032-2.168M13.044 18.676c-0.014 0.066-0.042 0.199-0.056 0.265 0.145 0.002 0.289 0.005 0.434 0.007-0.013-0.071-0.040-0.211-0.054-0.282-0.108 0.004-0.216 0.006-0.324 0.010M12.934 19.529c0.176 0.011 0.354 0.018 0.53 0.022-0.086-0.348-0.404-0.324-0.53-0.022M12.994 19.934c0.011 0.070 0.031 0.209 0.042 0.278 0.114 0.002 0.228 0.005 0.342 0.008 0.010-0.074 0.028-0.222 0.037-0.296-0.14 0.001-0.281 0.004-0.421 0.010z"></path>
<path fill="#fff" d="M5.254 18.601c0.396-0.264 0.618 0.37 0.856 0.593-0.036 0.070-0.108 0.21-0.144 0.281-0.314-0.208-0.644-0.482-0.712-0.874z"></path>
<path fill="#fff" d="M5.042 19.458c0.391-0.089 1.14 0.902 0.515 0.923-0.218-0.257-0.662-0.547-0.515-0.923z"></path>
<path fill="#fff" d="M3.028 21.7c0.197-0.378 0.119-1.060 0.565-1.192 0.197 0.344-0.011 1.507-0.565 1.192z"></path>
<path fill="#fff" d="M4.44 20.542c0.076 0.005 0.229 0.014 0.305 0.019 0.112 0.366 0.23 0.743 0.181 1.13-0.073-0.007-0.22-0.022-0.293-0.029-0.107-0.365-0.187-0.739-0.193-1.121z"></path>
<path fill="#fff" d="M12.444 21.884c0.047-0.361-0.098-1.243 0.372-1.122-0.052 0.372 0.079 0.977-0.372 1.122z"></path>
<path fill="#fff" d="M12.902 20.78c0.196 0 0.391 0 0.587-0.001 0.032 0.262 0.061 0.522 0.083 0.784-0.319-0.052-0.263-0.42-0.352-0.653-0.007 0.288-0.011 0.576-0.020 0.864-0.436-0.085-0.215-0.671-0.298-0.994z"></path>
<path fill="#0d6eb7" d="M3.595 19.135c0.162-0.206 0.326-0.412 0.492-0.617 0.192 0.204 0.385 0.409 0.576 0.616-0.356 0.006-0.713 0.006-1.068 0.001z"></path>
</svg>
