<!-- Generated by IcoMoon.io -->
<svg version="1.1" xmlns="http://www.w3.org/2000/svg" width="24" height="24" viewBox="0 0 24 24">
<title>regulatory--end-of-snowmobiles-only--g1</title>
<path fill="#0c479d" d="M10.717 0h2.546c2.378 0.339 4.698 1.251 6.523 2.838-1.133 1.149-2.281 2.284-3.421 3.427-0.509-0.74-0.89-1.569-0.965-2.474-0.082-0.78-1.294-1.064-1.667-0.351-0.223 0.613-0.129 1.319 0.103 1.919 0.277 0.022 0.552 0.059 0.827 0.107-0.106 0.728-0.511 1.377-0.753 2.069-0.78-0.223-1.6-0.023-2.183 0.536-0.556 0.742-1.028 1.546-1.586 2.288 0.278-1.666 1.727-3.343 0.835-5.036-0.768 1.39-1.491 2.807-2.273 4.19-1.82 0.145-3.549 1.214-4.403 2.841 0.839 0.995 2.087 1.503 3.288 1.912-0.271 0.363-0.479 0.801-0.856 1.064-1.036 0.37-2.159-0.176-2.911-0.886-0.293-0.235-0.473-0.725-0.909-0.695-0.383 0.033-0.577 0.493-0.38 0.81 0.548 1.349 2.101 1.829 3.395 2.143-1.028 1.030-2.053 2.061-3.087 3.085-1.585-1.82-2.491-4.133-2.838-6.502v-2.546c0.203-1.032 0.374-2.079 0.777-3.059 1.546-4.165 5.555-7.16 9.939-7.679z"></path>
<path fill="#0c479d" d="M17.155 8.224c1.332-1.34 2.669-2.675 4.010-4.007 1.582 1.82 2.49 4.132 2.836 6.5v2.547c-0.509 4.393-3.51 8.41-7.68 9.959-0.972 0.402-2.013 0.569-3.037 0.777h-2.547c-2.375-0.339-4.696-1.251-6.519-2.837 1.45-1.458 2.906-2.913 4.362-4.366 0.728-0.027 1.458 0.030 2.185-0.033 0.037-0.083 0.108-0.25 0.145-0.334-0.247-0.421-0.656-0.7-1.115-0.848 0.333-0.335 0.665-0.67 1.002-1 0.918-0.025 1.837-0.018 2.755-0.047-0.694 0.741-0.342 2.091 0.717 2.221 1.852 0.082 3.713 0.009 5.568 0.035 0.725 0.050 1.58-0.37 1.658-1.163 0.121-0.741-0.51-1.33-1.191-1.458-0.014-0.891 0.018-1.782-0.010-2.671-0.007-0.443-0.408-0.823-0.849-0.82-0.74-0.029-1.48-0.001-2.221-0.005 0.321-0.79 0.293-1.676-0.067-2.45z"></path>
<path fill="#0c479d" d="M12.040 8.516c0.544-0.593 1.333-0.034 1.947 0.12-0.107 0.1-0.214 0.198-0.317 0.303-0.811-0.077-1.092 0.809-1.414 1.372-0.407 0.481-0.856 0.925-1.304 1.367-0.227-0.2-0.441-0.413-0.638-0.642 0.55-0.856 1.122-1.702 1.726-2.52z"></path>
<path fill="#0c479d" d="M12.982 12.398c0.449-0.45 0.891-0.909 1.359-1.341-0.013 0.45-0.008 0.9-0.018 1.35-0.446 0.044-0.895 0.033-1.341-0.009z"></path>
<path fill="#ce252c" d="M19.786 2.838c0.498 0.419 0.961 0.88 1.379 1.379-1.341 1.332-2.678 2.667-4.010 4.007-0.95 0.933-1.881 1.885-2.813 2.833-0.468 0.432-0.91 0.891-1.359 1.341-0.734 0.724-1.46 1.456-2.187 2.185-0.337 0.33-0.669 0.665-1.002 1-0.407 0.403-0.809 0.81-1.214 1.214-1.456 1.453-2.911 2.907-4.362 4.366-0.5-0.417-0.961-0.879-1.379-1.377 1.034-1.024 2.060-2.054 3.087-3.085 1.679-1.671 3.35-3.35 5.027-5.023 0.449-0.442 0.897-0.886 1.304-1.367 0.52-0.404 0.957-0.9 1.414-1.372 0.103-0.104 0.21-0.202 0.317-0.303 0.8-0.783 1.583-1.581 2.377-2.371 1.14-1.143 2.288-2.277 3.421-3.427z"></path>
<path fill="#fff" d="M13.732 3.44c0.373-0.713 1.585-0.429 1.667 0.351 0.076 0.905 0.457 1.735 0.965 2.474-0.793 0.79-1.577 1.589-2.377 2.371-0.614-0.154-1.403-0.713-1.947-0.12-0.604 0.818-1.175 1.664-1.726 2.52 0.197 0.228 0.411 0.442 0.638 0.642-1.677 1.673-3.348 3.352-5.027 5.023-1.294-0.314-2.847-0.794-3.395-2.143-0.197-0.317-0.004-0.777 0.38-0.81 0.436-0.030 0.616 0.46 0.909 0.695 0.753 0.71 1.876 1.256 2.911 0.886 0.377-0.263 0.584-0.702 0.856-1.064-1.201-0.41-2.45-0.917-3.288-1.912 0.854-1.627 2.584-2.696 4.403-2.841 0.783-1.383 1.505-2.799 2.273-4.19 0.892 1.693-0.557 3.37-0.835 5.036 0.558-0.742 1.030-1.546 1.586-2.288 0.583-0.56 1.403-0.759 2.183-0.536 0.241-0.691 0.647-1.341 0.753-2.069-0.275-0.048-0.55-0.085-0.827-0.107-0.232-0.6-0.326-1.306-0.103-1.919z"></path>
<path fill="#fff" d="M14.341 11.057c0.933-0.948 1.864-1.9 2.813-2.833 0.36 0.773 0.387 1.659 0.067 2.45 0.741 0.004 1.482-0.023 2.221 0.005 0.441-0.003 0.843 0.377 0.849 0.82 0.029 0.89-0.004 1.78 0.010 2.671 0.681 0.128 1.312 0.717 1.191 1.458-0.078 0.793-0.933 1.213-1.658 1.163-1.855-0.026-3.716 0.047-5.568-0.035-1.059-0.13-1.411-1.48-0.717-2.221-0.918 0.029-1.837 0.022-2.755 0.047 0.728-0.729 1.453-1.461 2.187-2.185 0.446 0.042 0.895 0.053 1.341 0.009 0.010-0.45 0.005-0.9 0.018-1.35z"></path>
<path fill="#fff" d="M12.257 10.311c0.322-0.563 0.603-1.449 1.414-1.372-0.457 0.472-0.893 0.968-1.414 1.372z"></path>
<path fill="#fff" d="M8.579 16.797c0.406-0.404 0.807-0.811 1.214-1.214 0.459 0.147 0.869 0.427 1.115 0.848-0.037 0.083-0.108 0.25-0.145 0.334-0.727 0.063-1.457 0.005-2.185 0.033z"></path>
</svg>
