<!-- Generated by IcoMoon.io -->
<svg version="1.1" xmlns="http://www.w3.org/2000/svg" width="24" height="24" viewBox="0 0 24 24">
<title>regulatory--end-of-bicycles-only--g1</title>
<path fill="#03408b" d="M10.702 0h2.582c1.952 0.305 3.878 0.931 5.506 2.077-2.296 2.503-4.557 5.037-6.843 7.55-0.852-0.003-1.703-0.003-2.555 0.001 0.104-0.197 0.21-0.394 0.314-0.59-0.113-0.27-0.223-0.543-0.329-0.819 0.584-0.043 1.187 0.072 1.757-0.089-0.151-0.532-1.129-0.217-1.613-0.259-0.686 0.013-0.417 0.8-0.217 1.175-0.323 0.578-0.663 1.145-0.99 1.721-1.283-0.569-2.961-0.1-3.545 1.23-0.745 1.43 0.202 3.276 1.736 3.651-1.234 1.364-2.46 2.737-3.705 4.089-1.559-1.807-2.447-4.096-2.799-6.439v-2.582c0.223-1.197 0.465-2.405 0.977-3.52 1.658-3.921 5.525-6.681 9.726-7.196z"></path>
<path fill="#03408b" d="M21.161 4.215c1.582 1.815 2.486 4.123 2.839 6.486v2.583c-0.508 4.207-3.272 8.080-7.196 9.74-1.111 0.51-2.314 0.748-3.505 0.977h-2.583c-1.966-0.307-3.905-0.941-5.539-2.1 2.411-2.655 4.81-5.322 7.219-7.98 0.535-0.037 1.069-0.080 1.604-0.121 0.35 0.923 1.114 1.723 2.127 1.86 1.247 0.234 2.569-0.62 2.891-1.843 0.414-1.293-0.409-2.803-1.708-3.178-0.674-0.226-1.38-0.052-2.044 0.117 1.952-2.192 3.942-4.35 5.895-6.541z"></path>
<path fill="#03408b" d="M9.046 10.006c0.857-0.046 1.716-0.024 2.573-0.020-0.368 0.41-0.734 0.823-1.106 1.229-0.498-0.391-0.996-0.785-1.467-1.209z"></path>
<path fill="#03408b" d="M8.926 10.395c0.451 0.361 0.898 0.724 1.349 1.084-0.234 0.258-0.467 0.517-0.7 0.775-0.225-0.49-0.556-0.918-0.959-1.274 0.103-0.196 0.206-0.39 0.31-0.585z"></path>
<path fill="#03408b" d="M5.114 12.359c0.405-1.183 1.849-1.674 2.96-1.192-0.397 0.62-0.618 1.435-1.336 1.768-0.052 0.406 0.278 0.639 0.653 0.494 0.13-0.767 0.607-1.396 0.99-2.051 0.383 0.35 0.676 0.789 0.824 1.289-0.78 0.857-1.556 1.718-2.333 2.577-1.326-0.16-2.269-1.624-1.759-2.884z"></path>
<path fill="#03408b" d="M15.599 11.167c1.001-0.438 2.296-0.076 2.8 0.923 0.635 1.087 0.043 2.626-1.15 3.017-1.083 0.414-2.352-0.231-2.745-1.302 0.665-0.039 1.335-0.048 1.997-0.132 0.316-0.038 0.491-0.486 0.258-0.716-0.469-0.541-0.786-1.186-1.159-1.79z"></path>
<path fill="#03408b" d="M14.439 12.606c0.169-0.488 0.463-0.917 0.865-1.243 0.277 0.458 0.555 0.914 0.823 1.378-0.563-0.048-1.124-0.103-1.688-0.135z"></path>
<path fill="#03408b" d="M13.615 12.588c0.183-0.194 0.367-0.389 0.549-0.584-0.065 0.18-0.124 0.362-0.194 0.54-0.089 0.011-0.265 0.033-0.354 0.044z"></path>
<path fill="#d40303" d="M11.947 9.628c2.286-2.513 4.547-5.048 6.843-7.55 0.881 0.602 1.675 1.328 2.371 2.137-1.953 2.19-3.943 4.349-5.895 6.541-0.372 0.413-0.754 0.815-1.102 1.248-0.182 0.196-0.366 0.39-0.549 0.584-0.423 0.429-0.811 0.889-1.219 1.332-2.409 2.658-4.808 5.324-7.219 7.98-0.885-0.61-1.681-1.345-2.378-2.163 1.246-1.352 2.471-2.725 3.705-4.089 0.122-0.136 0.245-0.27 0.368-0.405 0.777-0.858 1.553-1.719 2.333-2.577 0.123-0.137 0.245-0.276 0.37-0.413 0.232-0.258 0.466-0.517 0.7-0.775 0.079-0.088 0.159-0.175 0.239-0.264 0.372-0.406 0.738-0.819 1.106-1.229 0.109-0.119 0.218-0.239 0.328-0.358z"></path>
<path fill="#fff" d="M9.304 9.046c-0.199-0.375-0.469-1.162 0.217-1.175 0.484 0.042 1.462-0.273 1.613 0.259-0.57 0.161-1.173 0.046-1.757 0.089 0.105 0.276 0.216 0.549 0.329 0.819-0.104 0.197-0.21 0.394-0.314 0.59 0.852-0.004 1.703-0.004 2.555-0.001-0.109 0.119-0.218 0.239-0.328 0.358-0.857-0.004-1.716-0.025-2.573 0.020 0.471 0.424 0.969 0.818 1.467 1.209-0.080 0.089-0.16 0.177-0.239 0.264-0.451-0.361-0.898-0.724-1.349-1.084-0.104 0.196-0.207 0.39-0.31 0.585 0.403 0.356 0.734 0.783 0.959 1.274-0.124 0.137-0.246 0.276-0.37 0.413-0.149-0.5-0.441-0.938-0.824-1.289-0.383 0.655-0.861 1.284-0.99 2.051-0.375 0.145-0.705-0.088-0.653-0.494 0.717-0.333 0.938-1.148 1.336-1.768-1.111-0.481-2.555 0.009-2.96 1.192-0.51 1.26 0.433 2.724 1.759 2.884-0.123 0.135-0.246 0.269-0.368 0.405-1.534-0.375-2.481-2.221-1.736-3.651 0.584-1.331 2.263-1.799 3.545-1.23 0.328-0.575 0.668-1.143 0.99-1.721z"></path>
<path fill="#fff" d="M15.266 10.756c0.664-0.169 1.37-0.343 2.044-0.117 1.299 0.376 2.122 1.886 1.708 3.178-0.323 1.223-1.644 2.076-2.891 1.843-1.013-0.137-1.777-0.937-2.127-1.86-0.535 0.041-1.069 0.084-1.604 0.121 0.408-0.443 0.796-0.903 1.219-1.332 0.089-0.011 0.265-0.033 0.354-0.044 0.070-0.178 0.13-0.359 0.194-0.54 0.348-0.433 0.73-0.836 1.102-1.248M15.599 11.167c0.373 0.604 0.691 1.25 1.159 1.79 0.234 0.23 0.058 0.678-0.258 0.716-0.663 0.084-1.332 0.093-1.997 0.132 0.394 1.070 1.662 1.716 2.745 1.302 1.194-0.391 1.785-1.93 1.15-3.017-0.504-0.999-1.799-1.361-2.8-0.923M14.439 12.606c0.564 0.032 1.125 0.086 1.688 0.135-0.268-0.463-0.546-0.919-0.823-1.378-0.401 0.326-0.696 0.756-0.865 1.243z"></path>
</svg>
