<svg xmlns="http://www.w3.org/2000/svg" width="24" height="24">
    <path fill="#c0111e" d="M10.622 0h2.737c1.136.236 2.287.453 3.353.933 3.949 1.626 6.73 5.486 7.288 9.689v2.737c-.237 1.136-.453 2.287-.933 3.353-1.626 3.949-5.486 6.73-9.689 7.288h-2.737c-1.136-.237-2.287-.453-3.353-.933C3.339 21.441.558 17.581 0 13.378v-2.737C.546 6.43 3.335 2.561 7.289.934 8.348.454 9.493.242 10.622.001zM5.886 4.679c.898.944 1.838 1.848 2.75 2.777.167.219.443.232.692.263-.099-.01-.298-.03-.398-.038a22.77 22.77 0 0 0 2.317 2.342c1.379 1.46 2.839 2.846 4.241 4.286.112.117.234.22.368.308l-.14.008.174.013c.248.315.528.607.868.826.875 1.05 1.899 1.995 2.864 2.972 3.23-3.664 2.996-9.728-.5-13.135-3.385-3.594-9.524-3.865-13.237-.621zM4.705 5.85c-3.25 3.712-2.99 9.867.621 13.247 3.398 3.512 9.466 3.717 13.134.505a297.116 297.116 0 0 0-3.462-3.459 6.058 6.058 0 0 0-.779-.798c-1.773-1.765-3.538-3.536-5.305-5.307a14.976 14.976 0 0 0-1.398-1.396c-.272-.272-.544-.545-.813-.819l-.174-.172c-.614-.596-1.2-1.218-1.824-1.801z"/>
    <path fill="#fff" d="M5.886 4.679c3.713-3.244 9.851-2.973 13.237.621 3.496 3.407 3.73 9.472.5 13.135-.966-.977-1.989-1.921-2.864-2.972.52.383 1.056.837 1.756.696a78.78 78.78 0 0 0 .069-1.535c-.898-.003-1.796.035-2.694.013l-.174-.013.14-.008c.928-.049 1.858-.006 2.784-.064-.908-.549-2.122-.109-3.152-.244-1.402-1.44-2.862-2.826-4.241-4.286.816.114 1.631-.054 2.448-.021.964-.023 1.931.219 2.887-.006.161-.887 1.416-.868 1.573.011.373 0 .745-.003 1.118-.008.325-1.152.806-2.634.052-3.678-2.057.006-4.114.006-6.171.001-.552.826-.721 1.991-.432 2.945l-.388-.069c-.051.203-.1.408-.15.611-.056-.008-.168-.028-.224-.038-.114-.322-.189-.656-.27-.988-.469-.048-.947-.044-1.41-.14-.356-.265-.611-.641-.952-.925-.248-.031-.525-.044-.692-.263-.912-.929-1.852-1.832-2.75-2.777zM17.12 9.505c-.713.285-.178 1.451.514 1.067.68-.302.161-1.419-.514-1.067zM4.705 5.85c.624.583 1.21 1.206 1.824 1.801-.387.315-.721.696-1.135.977-.64.13-1.303.099-1.938.258-.038.387-.078.775-.092 1.163.318.001.635.001.953-.001.168-.952 1.492-.96 1.673-.013.976.013 1.95.006 2.924.003 1.768 1.77 3.532 3.542 5.305 5.307a1.949 1.949 0 0 1-.453.134l-.124.455-.366-.013a24.304 24.304 0 0 1-.226-.96 20.567 20.567 0 0 0-1.443-.151c-.306-.322-.616-.642-.923-.963-.919.006-1.841-.034-2.759.013-.464.189-.73.689-1.165.936-.632.114-1.279.117-1.912.224-.054.392-.095.788-.104 1.184.322.001.642.004.964.006.121-.968 1.491-.973 1.629-.016.968.007 1.937 0 2.907.006.148-.977 1.494-.976 1.666-.011 1.029.023 2.057-.041 3.088-.047a297.109 297.109 0 0 1 3.462 3.459c-3.668 3.212-9.736 3.007-13.134-.505-3.611-3.38-3.871-9.535-.621-13.247zm.264 3.631c-.409.128-.542.72-.205.997.295.295.85.137.956-.263.154-.432-.319-.899-.751-.734zm1.284 6.221c-.658.343-.055 1.408.58 1.014.685-.336.062-1.441-.58-1.014zm4.529.008c-.377.208-.352.817.03 1.007.36.215.867-.071.867-.49.038-.45-.527-.784-.896-.517z"/>
    <path fill="#fff" d="M13.11 7.066c.493-.011.984-.01 1.475-.001.02.47.018.94 0 1.41a48.35 48.35 0 0 1-1.475-.001 23.606 23.606 0 0 1 0-1.408zM15.04 6.99c.322.007.645.007.967-.001-.01.414-.007.827-.013 1.24-.318.006-.635.007-.952.013.004-.416.004-.834-.003-1.251zM17.536 7.07a43.6 43.6 0 0 1 1.844-.006c.016.391.016.782.006 1.173-.62.01-1.238.013-1.856-.003-.004-.39-.004-.778.007-1.165zM5.716 8.641c.299-.306.621-.593.987-.817.27.274.541.546.813.819-.6.008-1.2.008-1.8-.001zM19.097 9.779c.082.082.082.082 0 0zM7.091 14.811c.488-.666 1.204-.929 2.015-.761l-.004.764c-.671 0-1.341.003-2.01-.003zM9.337 14.046c.315-.007.63-.003.944.016.083.25.171.497.258.745l-1.2-.003c0-.253-.001-.507-.003-.758z"/>
    <path fill="#030303" d="M13.153 6.322c2.057.004 4.114.004 6.171-.001.754 1.043.272 2.526-.052 3.678-.373.006-.745.008-1.118.008-.157-.88-1.412-.898-1.573-.011-.956.224-1.923-.017-2.887.006-.817-.032-1.632.136-2.448.021a22.77 22.77 0 0 1-2.317-2.342c.1.008.299.028.398.038.34.284.596.659.952.925.463.096.942.092 1.41.14.08.332.155.666.27.988.056.01.168.03.224.038.237.038.476.061.714.085a19.42 19.42 0 0 0-.176-.627c-.289-.954-.12-2.119.432-2.945zm-.043.744c-.014.469-.014.939 0 1.408.491.008.984.008 1.475.001.018-.47.02-.94 0-1.41-.491-.008-.983-.01-1.475.001zm1.93-.076c.007.416.007.834.003 1.251.316-.006.634-.007.952-.013.006-.412.003-.826.013-1.24-.322.008-.645.008-.967.001zm2.496.08c-.011.387-.011.775-.007 1.165.618.016 1.237.013 1.856.003.01-.391.01-.782-.006-1.173a41.985 41.985 0 0 0-1.844.006zm1.561 2.709c.082.082.082.082 0 0zM6.529 7.652l.174.172a5.188 5.188 0 0 0-.987.817c.6.01 1.2.01 1.8.001.5.431.96.905 1.398 1.396-.974.003-1.948.01-2.924-.003-.181-.947-1.505-.939-1.673.013-.318.003-.635.003-.953.001.014-.388.054-.776.092-1.163.635-.16 1.299-.128 1.938-.258.414-.281.748-.662 1.135-.977z"/>
    <path fill="#030303" d="M4.969 9.481c.432-.165.905.302.751.734-.106.4-.661.558-.956.263-.337-.277-.205-.868.205-.997zM17.12 9.505c.675-.352 1.194.765.514 1.067-.692.384-1.227-.782-.514-1.067zM6.761 14.797c.435-.247.7-.747 1.165-.936.918-.047 1.84-.007 2.759-.013.308.32.617.641.923.963.481.035.964.082 1.443.151.069.322.144.641.226.96.092.003.275.008.366.013l.124-.455c.155-.028.308-.069.453-.134.288.236.539.512.779.798-1.031.006-2.058.069-3.088.047-.172-.964-1.518-.966-1.666.011-.97-.006-1.938.001-2.907-.006-.138-.957-1.508-.953-1.629.016-.322-.001-.642-.004-.964-.006.01-.397.051-.792.104-1.184.632-.107 1.279-.11 1.912-.224zm.33.014c.669.006 1.34.003 2.01.003l.004-.764c-.81-.168-1.526.095-2.015.761zm2.246-.765c.001.251.003.505.003.758l1.2.003a41.014 41.014 0 0 1-.258-.745 11.9 11.9 0 0 0-.944-.016zM15.487 14.308c1.031.136 2.245-.305 3.152.244-.926.058-1.856.014-2.784.064a2.082 2.082 0 0 1-.368-.308zM15.889 14.637c.898.023 1.796-.016 2.694-.013a78.78 78.78 0 0 1-.069 1.535c-.7.141-1.237-.313-1.756-.696-.34-.219-.62-.511-.868-.826z"/>
    <path fill="#030303" d="M6.253 15.702c.642-.428 1.265.678.58 1.014-.635.394-1.238-.671-.58-1.014zM10.782 15.71c.37-.267.935.066.896.517 0 .419-.507.704-.867.49-.381-.189-.407-.799-.03-1.007z"/>
    <path fill="#505050" d="M12.333 9.198c.128.023.258.047.388.069.062.208.121.416.176.627-.239-.024-.477-.047-.714-.085.049-.203.099-.408.15-.611z"/>
</svg>
