<!-- Generated by IcoMoon.io -->
<svg version="1.1" xmlns="http://www.w3.org/2000/svg" width="18" height="24" viewBox="0 0 18 24">
<title>regulatory--one-way-left--g2</title>
<path fill="#131313" opacity="0.94" d="M1.251 0h15.452l0.127 0.127c-5.239-0.055-10.481-0.025-15.72-0.015l0.141-0.112z"></path>
<path fill="#fff" d="M0.095 1.215c0.136-0.516 0.535-0.897 1.015-1.103 5.239-0.010 10.481-0.040 15.72 0.015 0.074 0.015 0.148 0.029 0.223 0.042 0.029 0.175 0.222 0.232 0.371 0.261 0.044 0.045 0.088 0.090 0.132 0.136 0.177 0.314 0.334 0.655 0.329 1.024 0.006 7.027-0.002 14.055 0.004 21.083-0.046 0.158-0.096 0.316-0.161 0.468-0.186 0.203-0.381 0.398-0.587 0.581-0.132 0.055-0.268 0.103-0.402 0.154-5.163 0.013-10.326-0.009-15.488 0.011-0.572-0.155-1.020-0.595-1.166-1.172 0.031-7.166 0.012-14.334 0.010-21.5M1.239 0.458c-0.496 0.129-0.848 0.624-0.822 1.134-0.001 6.938-0.004 13.878 0.001 20.816-0.025 0.629 0.552 1.191 1.182 1.139 4.933-0.001 9.867 0 14.8-0.001 0.621 0.041 1.18-0.52 1.156-1.138 0.006-6.938 0.003-13.877 0.001-20.815 0.046-0.675-0.586-1.249-1.251-1.18-5.021 0.030-10.051-0.059-15.067 0.045z"></path>
<path fill="#fff" d="M1.436 1.053c4.955-0.046 9.914-0.007 14.871-0.020 0.333-0.048 0.673 0.211 0.629 0.565 0.005 6.901 0 13.803 0.002 20.704 0.049 0.319-0.191 0.658-0.534 0.622-4.935 0.006-9.872 0.003-14.808 0.001-0.301 0.038-0.582-0.219-0.556-0.524-0.006-6.934-0.003-13.868-0.002-20.802-0.021-0.248 0.14-0.512 0.398-0.546M3.934 2.545c-0.585 0.199-0.876 0.813-1.021 1.371-0.241 0.977-0.171 2.064 0.311 2.958 0.526 1.003 2.204 0.954 2.682-0.070 0.522-1.069 0.523-2.384 0.062-3.474-0.32-0.779-1.278-1.074-2.034-0.785M7.546 2.527c0 1.657 0.001 3.315 0 4.972 0.262 0 0.525 0.001 0.788 0.001 0.002-1.119-0.002-2.238 0.002-3.357 0.637 1.116 1.264 2.237 1.896 3.356 0.231 0.001 0.462 0 0.693 0.001 0-1.658 0.001-3.315-0.001-4.973-0.259 0-0.519 0-0.779 0-0.001 1.059 0.001 2.118-0.001 3.177-0.602-1.058-1.207-2.114-1.806-3.174-0.264-0.002-0.528-0.004-0.792-0.003M12.176 2.532c0.002 1.658-0.001 3.316 0.002 4.974 1.027 0.001 2.055 0.001 3.083 0 0-0.268 0-0.535 0.001-0.802-0.765-0.003-1.531 0-2.297-0.002-0.001-0.454-0.001-0.908 0-1.362 0.481 0 0.961 0 1.442-0.001 0-0.267 0-0.535 0-0.802-0.48-0.001-0.961 0-1.441-0.002-0.002-0.405-0.002-0.809-0.001-1.214 0.714-0.001 1.428 0 2.141-0.001 0-0.263 0-0.525 0-0.788-0.976-0.001-1.953-0.001-2.93 0M2.466 8.994c0.244 1.66 0.489 3.32 0.736 4.979 0.23 0 0.46 0 0.69 0.001 0.261-1.061 0.51-2.124 0.774-3.184 0.264 1.060 0.52 2.122 0.779 3.183 0.234 0 0.467 0 0.701 0 0.242-1.66 0.486-3.319 0.727-4.98-0.264 0-0.529 0-0.794 0.001-0.133 0.86-0.247 1.724-0.392 2.583-0.224-0.857-0.424-1.72-0.637-2.581-0.255-0.002-0.511-0.003-0.766-0.003-0.214 0.868-0.416 1.739-0.634 2.606-0.133-0.868-0.254-1.737-0.383-2.605-0.267 0-0.534-0.001-0.801 0M9.032 8.995c-0.568 1.66-1.14 3.317-1.705 4.977 0.279 0.001 0.559 0.001 0.839 0.001 0.165-0.468 0.313-0.942 0.501-1.401 0.512 0.014 1.024 0.006 1.535 0.008 0.164 0.465 0.325 0.93 0.488 1.394 0.278-0.001 0.557-0.001 0.836-0.002-0.565-1.661-1.137-3.319-1.706-4.979-0.263 0-0.526 0.001-0.788 0.002M11.569 8.995c0.46 0.75 0.926 1.497 1.39 2.245 0.638 0.767 0.242 1.825 0.351 2.734 0.262-0.001 0.524-0.001 0.787 0 0.015-0.721-0.027-1.445 0.018-2.164 0.534-0.956 1.144-1.871 1.7-2.815-0.305-0.002-0.61-0.002-0.915-0.002-0.405 0.638-0.803 1.279-1.208 1.917-0.397-0.637-0.788-1.279-1.186-1.917-0.312 0-0.624 0-0.937 0.002M7.398 15.493c-1.425 0.971-2.833 1.968-4.249 2.952 1.417 0.987 2.829 1.981 4.246 2.967 0.281 0.24 0.766-0.029 0.689-0.395-0.117-0.492-0.317-0.959-0.462-1.443 2.441 0 4.882-0.005 7.322 0.003 0.009-0.752 0.011-1.503-0.001-2.255-2.44 0.009-4.88 0.004-7.32 0.003 0.144-0.483 0.344-0.951 0.461-1.442 0.076-0.364-0.409-0.625-0.686-0.39z"></path>
<path fill="#fff" d="M4.142 3.35c0.373-0.21 0.911-0.096 1.092 0.314 0.381 0.807 0.358 1.784 0.041 2.609-0.137 0.413-0.611 0.633-1.015 0.468-0.565-0.268-0.625-0.994-0.675-1.543 0.005-0.631 0.017-1.421 0.557-1.848z"></path>
<path fill="#fff" d="M8.931 11.771c0.168-0.465 0.334-0.93 0.508-1.394 0.162 0.465 0.324 0.929 0.482 1.395-0.33 0.002-0.66 0.002-0.99-0.001z"></path>
<path fill="#363636" opacity="0.88" d="M17.053 0.169c0.168 0 0.297 0.12 0.371 0.261-0.149-0.029-0.342-0.086-0.371-0.261z"></path>
<path fill="#000" d="M1.239 0.458c5.016-0.104 10.046-0.015 15.067-0.045 0.665-0.069 1.297 0.505 1.251 1.18 0.002 6.938 0.005 13.877-0.001 20.815 0.024 0.618-0.535 1.179-1.156 1.138-4.933 0.001-9.867 0-14.8 0.001-0.63 0.052-1.207-0.51-1.182-1.139-0.005-6.938-0.002-13.878-0.001-20.816-0.026-0.51 0.326-1.005 0.822-1.134M1.436 1.053c-0.258 0.034-0.419 0.298-0.398 0.546-0.001 6.934-0.004 13.868 0.002 20.802-0.026 0.305 0.255 0.562 0.556 0.524 4.936 0.002 9.873 0.005 14.808-0.001 0.343 0.036 0.583-0.303 0.534-0.622-0.002-6.901 0.003-13.803-0.002-20.704 0.044-0.354-0.296-0.613-0.629-0.565-4.957 0.013-9.916-0.026-14.871 0.020z"></path>
<path fill="#000" d="M3.934 2.545c0.756-0.289 1.714 0.006 2.034 0.785 0.461 1.090 0.46 2.405-0.062 3.474-0.478 1.024-2.156 1.073-2.682 0.070-0.482-0.894-0.552-1.981-0.311-2.958 0.145-0.558 0.436-1.172 1.021-1.371M4.142 3.35c-0.54 0.427-0.552 1.217-0.557 1.848 0.050 0.549 0.11 1.275 0.675 1.543 0.404 0.165 0.878-0.055 1.015-0.468 0.317-0.825 0.34-1.802-0.041-2.609-0.181-0.41-0.719-0.524-1.092-0.314z"></path>
<path fill="#000" d="M7.546 2.527c0.264-0.001 0.528 0.001 0.792 0.003 0.599 1.060 1.204 2.116 1.806 3.174 0.002-1.059 0-2.118 0.001-3.177 0.26 0 0.52 0 0.779 0 0.002 1.658 0.001 3.315 0.001 4.973-0.231-0.001-0.462 0-0.693-0.001-0.632-1.119-1.259-2.24-1.896-3.356-0.004 1.119 0 2.238-0.002 3.357-0.263 0-0.526-0.001-0.788-0.001 0.001-1.657 0-3.315 0-4.972z"></path>
<path fill="#000" d="M12.176 2.532c0.977-0.001 1.954-0.001 2.93 0 0 0.263 0 0.525 0 0.788-0.713 0.001-1.427 0-2.141 0.001-0.001 0.405-0.001 0.809 0.001 1.214 0.48 0.002 0.961 0.001 1.441 0.002 0 0.267 0 0.535 0 0.802-0.481 0.001-0.961 0.001-1.442 0.001-0.001 0.454-0.001 0.908 0 1.362 0.766 0.002 1.532-0.001 2.297 0.002-0.001 0.267-0.001 0.534-0.001 0.802-1.028 0.001-2.056 0.001-3.083 0-0.003-1.658 0-3.316-0.002-4.974z"></path>
<path fill="#000" d="M2.466 8.994c0.267-0.001 0.534 0 0.801 0 0.129 0.868 0.25 1.737 0.383 2.605 0.218-0.867 0.42-1.738 0.634-2.606 0.255 0 0.511 0.001 0.766 0.003 0.213 0.861 0.413 1.724 0.637 2.581 0.145-0.859 0.259-1.723 0.392-2.583 0.265-0.001 0.53-0.001 0.794-0.001-0.241 1.661-0.485 3.32-0.727 4.98-0.234 0-0.467 0-0.701 0-0.259-1.061-0.515-2.123-0.779-3.183-0.264 1.060-0.513 2.123-0.774 3.184-0.23-0.001-0.46-0.001-0.69-0.001-0.247-1.659-0.492-3.319-0.736-4.979z"></path>
<path fill="#000" d="M9.032 8.995c0.262-0.001 0.525-0.002 0.788-0.002 0.569 1.66 1.141 3.318 1.706 4.979-0.279 0.001-0.558 0.001-0.836 0.002-0.163-0.464-0.324-0.929-0.488-1.394-0.511-0.002-1.023 0.006-1.535-0.008-0.188 0.459-0.336 0.933-0.501 1.401-0.28 0-0.56 0-0.839-0.001 0.565-1.66 1.137-3.317 1.705-4.977M8.931 11.771c0.33 0.003 0.66 0.003 0.99 0.001-0.158-0.466-0.32-0.93-0.482-1.395-0.174 0.464-0.34 0.929-0.508 1.394z"></path>
<path fill="#000" d="M11.569 8.995c0.313-0.002 0.625-0.002 0.937-0.002 0.398 0.638 0.789 1.28 1.186 1.917 0.405-0.638 0.803-1.279 1.208-1.917 0.305 0 0.61 0 0.915 0.002-0.556 0.944-1.166 1.859-1.7 2.815-0.045 0.719-0.003 1.443-0.018 2.164-0.263-0.001-0.525-0.001-0.787 0-0.109-0.909 0.287-1.967-0.351-2.734-0.464-0.748-0.93-1.495-1.39-2.245z"></path>
<path fill="#000" d="M7.398 15.493c0.277-0.235 0.762 0.026 0.686 0.39-0.117 0.491-0.317 0.959-0.461 1.442 2.44 0.001 4.88 0.006 7.32-0.003 0.012 0.752 0.010 1.503 0.001 2.255-2.44-0.008-4.881-0.003-7.322-0.003 0.145 0.484 0.345 0.951 0.462 1.443 0.077 0.366-0.408 0.635-0.689 0.395-1.417-0.986-2.829-1.98-4.246-2.967 1.416-0.984 2.824-1.981 4.249-2.952z"></path>
<path fill="#141414" opacity="0.82" d="M17.556 0.566c0.197 0.179 0.344 0.403 0.444 0.65v21.607l-0.111-0.15c-0.006-7.028 0.002-14.056-0.004-21.083 0.005-0.369-0.152-0.71-0.329-1.024z"></path>
<path fill="#121212" opacity="0.94" d="M0 1.075l0.095 0.14c0.002 7.166 0.021 14.334-0.010 21.5l-0.085 0.148v-21.788z"></path>
<path fill="#393939" opacity="0.85" d="M17.141 23.722c0.206-0.183 0.401-0.378 0.587-0.581-0.077 0.292-0.289 0.513-0.587 0.581z"></path>
<path fill="#101010" opacity="0.73" d="M1.251 23.887c5.162-0.020 10.325 0.002 15.488-0.011l-0.13 0.124h-15.213l-0.145-0.113z"></path>
</svg>
