<!-- Generated by IcoMoon.io -->
<svg version="1.1" xmlns="http://www.w3.org/2000/svg" width="23" height="24" viewBox="0 0 23 24">
<title>regulatory--fine-for-littering--g1</title>
<path fill="#acb9a7" d="M0 0h0.796c-0.695 1.447-0.346 3.076-0.395 4.615-0.060 4.846 0.189 9.69 0.143 14.536 0.039 1.364-0.198 2.799 0.351 4.094 1.062 0.286 2.172 0.196 3.258 0.203 6.307 0.016 12.614 0.222 18.923 0.173v0.378h-23.077v-24z"></path>
<path fill="#4a5754" d="M0.796 0h1.327c5.022 0.729 10.133 0.217 15.192 0.568 1.821 0.125 3.78-0.249 5.472 0.593-0.072 0.072-0.212 0.212-0.284 0.282-3.413-0.261-6.842-0.196-10.26-0.402-0.231 0.367-0.459 0.732-0.692 1.098-0.148-0.367-0.295-0.734-0.443-1.101-3.434 0.028-6.861-0.27-10.295-0.21 0.023 7.283-0.046 14.578 0.15 21.852-0.016 0.141-0.048 0.425-0.067 0.565-0.549-1.295-0.312-2.73-0.351-4.094 0.046-4.846-0.203-9.69-0.143-14.536 0.048-1.539-0.3-3.168 0.395-4.615z"></path>
<path fill="#a9b7ab" d="M2.123 0h20.954v1.583c-0.072-0.106-0.217-0.316-0.291-0.422-1.692-0.842-3.651-0.468-5.472-0.593-5.058-0.351-10.17 0.162-15.192-0.568z"></path>
<path fill="#b2cec4" d="M0.812 0.828c3.434-0.060 6.861 0.238 10.295 0.21 0.148 0.367 0.295 0.734 0.443 1.101 0.233-0.367 0.462-0.732 0.692-1.098 3.418 0.205 6.847 0.141 10.26 0.402-0.088 2.518 0.021 5.040 0.162 7.555 0.118 4.442-0.132 8.901 0.413 13.325v0.655c-2.845 0.108-5.693-0.014-8.541 0.007-0.863 0.018-1.717-0.125-2.536-0.392-1.336 0.528-2.767 0.18-4.152 0.171-2.296-0.030-4.592 0.048-6.886-0.083-0.196-7.274-0.127-14.568-0.15-21.852M2.225 4.274c0.353 0.672 1.062 1.124 1.235 1.899-0.489-0.106-0.976-0.226-1.461-0.344 0.275 0.478 0.556 0.951 0.845 1.419 0.503-0.475 1.152-1.073 0.953-1.844-0.298-0.72-0.918-1.237-1.419-1.809 0.452-0.035 0.907-0.067 1.359-0.108-0.298-0.413-0.612-0.815-0.939-1.205-0.473 0.547-0.812 1.26-0.572 1.992M4.318 3.005c0.254 1.193 0.189 2.421 0.185 3.632 0.055-0.002 0.164-0.005 0.219-0.007-0.032-1.265-0.018-2.529-0.009-3.794-0.099 0.042-0.295 0.125-0.395 0.168M6.088 2.742c-0.6 1.105-0.565 2.492-0.238 3.672 0.222 0.732 1.124 0.434 1.246-0.194 0.376-1.152 0.413-3.044-1.008-3.478M8.451 6.766c0.134 0.051 0.399 0.155 0.533 0.205 0.192-0.203 0.383-0.408 0.575-0.614-0.069-1.223 0.372-2.695-0.699-3.607-1.285 0.928-1.055 2.767-0.408 4.015M10.518 3.923c0.021 1.029-0.362 2.684 0.893 3.122 1.122-1.027 0.817-2.818 0.189-4.038-0.51 0.051-1.133 0.295-1.082 0.916M14.058 3.081c-0.132 1.325 0.122 2.642 0.212 3.962 0.097-0.531 0.125-1.073 0.134-1.611 0.279-0.125 0.561-0.245 0.842-0.365-0.383-0.323-0.824-0.584-1.161-0.955 0.475-0.376 1.087-0.528 1.641-0.755-0.508-0.295-1.101-0.277-1.668-0.277M16.297 2.878c-0.314 1.447-0.295 2.963 0.035 4.405 0.33-1.431 0.369-2.986-0.035-4.405M19.717 3.185c0 1.283 0.014 2.564 0.032 3.847 0.482 0.021 0.965 0.037 1.449 0.053-0.002-0.102-0.007-0.305-0.009-0.406-0.429-0.115-0.861-0.228-1.276-0.385-0.051-0.621 0.568-0.877 0.962-1.218-0.427-0.242-0.787-0.572-1.105-0.942 0.445-0.145 0.888-0.288 1.336-0.418 0.007-0.108 0.018-0.325 0.025-0.432-0.468-0.067-0.942-0.099-1.415-0.099M17.67 7.297c0.106-0.602 0.18-1.209 0.249-1.816 0.21 0.316 0.42 0.632 0.637 0.946 0.072 0.164 0.217 0.489 0.288 0.653l0.030 0.265c0.515-1.297 0.125-2.73 0.217-4.087-0.129 0.005-0.39 0.018-0.522 0.023 0.002 0.556 0.002 1.112-0.012 1.668-0.392-0.658-0.738-1.343-1.11-2.015-0.358 1.401-0.494 3.058 0.222 4.362M8.836 10.045c0.078 1.338-0.039 2.684 0.134 4.015 0.099-0.584 0.106-1.179 0.115-1.77 0.27-0.187 0.538-0.376 0.808-0.563-0.263-0.035-0.528-0.069-0.794-0.102-0.014-0.381-0.023-0.762-0.030-1.14 0.318 0 0.639 0 0.958 0 0.012-0.108 0.032-0.325 0.042-0.434-0.411-0.002-0.822-0.005-1.232-0.007M11.049 10.075c-0.397 1.281-0.598 2.799 0.277 3.932 0.238-0.032 0.475-0.067 0.713-0.108 0.422-1.262 0.45-2.668-0.171-3.872-0.275 0.016-0.547 0.032-0.819 0.048M13.288 13.978c0.005 0.099 0.014 0.3 0.018 0.399 0.208-0.625 0.335-1.276 0.429-1.927 0.224 0.699 0.508 1.405 1.101 1.878 0.007-1.341-0.138-2.684 0.005-4.025-0.085 0.023-0.261 0.067-0.348 0.088-0.408-0.148-0.817-0.291-1.23-0.427-0.203 1.327-0.037 2.682 0.025 4.013M3.318 16.948c-0.007 1.338 0.009 2.675 0.028 4.013 0.568 0.055 1.135 0.108 1.705 0.143-0.102-0.595-0.678-0.81-1.089-1.152-0.198-0.988-0.078-2.008-0.122-3.009-0.132 0.002-0.392 0.005-0.522 0.005M8.001 17.227c-0.512-0.108-1.032-0.192-1.553-0.242 0.111 0.132 0.332 0.392 0.443 0.524 0.122 1.124 0.15 2.255 0.138 3.385 0.125 0.012 0.374 0.039 0.498 0.053 0.185-1.165-0.586-2.811 0.568-3.605 1.574 0.395 0.835 2.453 0.997 3.628 0.125-0.018 0.372-0.055 0.494-0.074-0.023-1.325-0.231-2.739 0.508-3.93-0.708-0.028-1.419 0.030-2.093 0.261M5.398 19.844c0.005 0.392 0.042 1.422 0.653 1.038 0.125-1.382 0.141-2.808-0.231-4.156-0.789 0.84-0.348 2.086-0.422 3.118M10.708 20.97c0.473 0.060 0.946 0.111 1.419 0.159-0.002-0.196-0.005-0.392-0.007-0.591-0.422-0.081-0.863-0.143-1.232-0.385-0.046-0.591 0.524-0.849 0.895-1.191-0.288-0.205-0.575-0.408-0.861-0.614 0-0.111 0.005-0.332 0.005-0.441 0.466-0.21 0.932-0.418 1.389-0.644-0.487-0.157-0.988-0.33-1.509-0.286-0.263 1.311-0.037 2.663-0.099 3.992M12.722 16.987c-0.162 1.362-0.148 2.732-0.081 4.098 0.18 0 0.545 0.002 0.725 0.002 0.035-0.503 0.067-1.006 0.106-1.509 0.222 0.554 0.436 1.112 0.646 1.673 0.129-0.060 0.388-0.178 0.517-0.238-0.122-0.658-0.249-1.313-0.374-1.971 0.208-0.612-0.002-1.239-0.12-1.844-0.42-0.005-0.842-0.007-1.262 0-0.039-0.053-0.118-0.159-0.157-0.212M15.099 17.112c-0.007 1.297-0.014 2.594 0.074 3.888 0.108 0.062 0.323 0.187 0.432 0.249 0.037-1.343 0.014-2.686-0.030-4.029-0.12-0.028-0.355-0.081-0.475-0.108M16.193 21.201c0.129-0.028 0.39-0.085 0.522-0.113-0.005-0.598-0.002-1.195 0.002-1.793 0.335 0.72 0.708 1.422 1.163 2.070-0.025-1.458 0.385-3.069-0.27-4.428-0.118 0.602-0.201 1.214-0.27 1.825-0.18-0.226-0.36-0.452-0.542-0.676-0.069-0.18-0.208-0.54-0.277-0.72-0.002-0.104-0.007-0.312-0.009-0.415-0.815 1.216-0.217 2.864-0.318 4.251M18.812 20.086c-0.122 0.667 0.445 1.094 1.050 1.131 0.168-0.369 0.342-0.738 0.515-1.105-0.076-0.282-0.155-0.563-0.231-0.845-0.136-0.005-0.411-0.014-0.549-0.018 0.164 0.45 0.332 0.898 0.489 1.352-0.256 0.007-0.766 0.025-1.022 0.035-0.044-0.921-0.053-1.846-0.005-2.767 0.422-0.002 0.845-0.002 1.269-0.009-0.312-0.254-0.616-0.517-0.951-0.738-0.976 0.655-0.452 1.989-0.565 2.965z"></path>
<path fill="#69776f" d="M22.786 1.161c0.074 0.106 0.219 0.316 0.291 0.422v20.739c-0.545-4.424-0.295-8.882-0.413-13.325-0.141-2.515-0.249-5.038-0.162-7.555 0.072-0.069 0.212-0.21 0.284-0.282z"></path>
<path fill="#59605b" d="M2.225 4.274c-0.24-0.732 0.099-1.445 0.572-1.992 0.328 0.39 0.642 0.792 0.939 1.205-0.452 0.042-0.907 0.074-1.359 0.108 0.501 0.572 1.122 1.089 1.419 1.809 0.198 0.771-0.45 1.368-0.953 1.844-0.288-0.468-0.57-0.942-0.845-1.419 0.485 0.118 0.972 0.238 1.461 0.344-0.173-0.775-0.882-1.228-1.235-1.899z"></path>
<path fill="#59605b" d="M16.297 2.878c0.404 1.419 0.365 2.975 0.035 4.405-0.33-1.442-0.348-2.958-0.035-4.405z"></path>
<path fill="#000" d="M4.318 3.005c0.099-0.044 0.295-0.127 0.395-0.168-0.009 1.265-0.023 2.529 0.009 3.794-0.055 0.002-0.164 0.005-0.219 0.007 0.005-1.212 0.069-2.439-0.185-3.632z"></path>
<path fill="#000" d="M18.547 5.151c0.155 0.635 0.235 1.281 0.298 1.929-0.072-0.164-0.217-0.489-0.288-0.653-0.025-0.425-0.018-0.852-0.009-1.276z"></path>
<path fill="#000" d="M8.836 10.045c0.411 0.002 0.822 0.005 1.232 0.007-0.009 0.108-0.030 0.325-0.042 0.434-0.318 0-0.639 0-0.958 0 0.007 0.378 0.016 0.759 0.030 1.14 0.265 0.032 0.531 0.067 0.794 0.102-0.27 0.187-0.538 0.376-0.808 0.563-0.009 0.591-0.016 1.186-0.115 1.77-0.173-1.332-0.055-2.677-0.134-4.015z"></path>
<path fill="#000" d="M13.288 13.978c-0.062-1.332-0.228-2.686-0.025-4.013 0.413 0.136 0.822 0.279 1.23 0.427-0.415 0.106-0.828 0.215-1.242 0.328 0.014 0.196 0.044 0.591 0.058 0.787 0.429 0.245 0.856 0.494 1.272 0.762-0.395 0.016-0.792 0.028-1.186 0.039-0.044 0.556-0.088 1.112-0.106 1.671z"></path>
<path fill="#000" d="M6.448 16.985c0.522 0.051 1.041 0.134 1.553 0.242-0.367 0.104-0.732 0.224-1.11 0.282-0.111-0.132-0.332-0.392-0.443-0.524z"></path>
<path fill="#000" d="M12.879 17.199c0.42-0.007 0.842-0.005 1.262 0 0.118 0.605 0.328 1.232 0.12 1.844-0.498 0.291-1.043 0.12-1.53-0.102 0.526-0.078 1.055-0.136 1.581-0.194 0.035-0.787-0.45-1.186-1.191-1.218-0.081-0.108-0.162-0.219-0.242-0.33z"></path>
<path fill="#000" d="M16.595 19.184c-0.055-0.605-0.074-1.212-0.074-1.818 0.069 0.18 0.208 0.54 0.277 0.72-0.048 0.369-0.127 0.734-0.203 1.098z"></path>
<path fill="#000" d="M17.446 19.251c0.298 0.54 0.378 1.152 0.33 1.761-0.228-0.558-0.348-1.156-0.33-1.761z"></path>
<path fill="#273029" d="M6.088 2.742c1.422 0.434 1.385 2.326 1.008 3.478-0.122 0.628-1.025 0.925-1.246 0.194-0.328-1.179-0.362-2.566 0.238-3.672M6.025 3.526c-0.178 0.872-0.173 1.768 0.023 2.635 0.27 0.005 0.54-0.007 0.81-0.037 0.226-0.861 0.279-1.786-0.164-2.592-0.166 0-0.501-0.005-0.669-0.007z"></path>
<path fill="#262d2b" d="M8.451 6.766c-0.646-1.248-0.877-3.088 0.408-4.015 1.071 0.912 0.63 2.384 0.699 3.607-0.192 0.205-0.383 0.411-0.575 0.614-0.134-0.051-0.399-0.155-0.533-0.205M8.472 6.065c1.482 0.496 0.771-1.92 0.602-2.712-1.096 0.415-1.089 1.837-0.602 2.712z"></path>
<path fill="#26211c" d="M10.518 3.923c-0.051-0.621 0.572-0.865 1.082-0.916 0.628 1.221 0.932 3.012-0.189 4.038-1.255-0.438-0.872-2.093-0.893-3.122M10.945 6.452c0.312-0.118 0.623-0.235 0.932-0.353-0.009-0.738-0.012-1.477-0.014-2.215-0.305-0.145-0.609-0.295-0.914-0.443-0.277 0.985-0.27 2.024-0.005 3.012z"></path>
<path fill="#2d3128" d="M14.058 3.081c0.568 0 1.161-0.018 1.668 0.277-0.554 0.226-1.165 0.378-1.641 0.755 0.337 0.372 0.778 0.632 1.161 0.955-0.282 0.12-0.563 0.24-0.842 0.365-0.009 0.538-0.037 1.080-0.134 1.611-0.090-1.32-0.344-2.638-0.212-3.962z"></path>
<path fill="#343f38" d="M19.717 3.185c0.473 0 0.946 0.032 1.415 0.099-0.007 0.106-0.018 0.323-0.025 0.432-0.448 0.129-0.891 0.272-1.336 0.418 0.318 0.369 0.678 0.699 1.105 0.942-0.395 0.342-1.013 0.598-0.962 1.218 0.415 0.157 0.847 0.27 1.276 0.385 0.002 0.102 0.007 0.305 0.009 0.406-0.485-0.016-0.967-0.032-1.449-0.053-0.018-1.283-0.032-2.564-0.032-3.847z"></path>
<path fill="#6c7978" d="M17.67 7.297c-0.715-1.304-0.579-2.961-0.222-4.362 0.372 0.672 0.718 1.357 1.11 2.015 0.014-0.556 0.014-1.112 0.012-1.668 0.132-0.005 0.392-0.018 0.522-0.023-0.092 1.357 0.298 2.79-0.217 4.087l-0.030-0.265c-0.062-0.648-0.143-1.295-0.298-1.929-0.009 0.425-0.016 0.852 0.009 1.276-0.217-0.314-0.427-0.63-0.637-0.946-0.069 0.607-0.143 1.214-0.249 1.816M17.582 3.81c-0.205 0.222-0.18 0.637 0.030 0.847 0.365 0.005 0.323-0.849-0.030-0.847z"></path>
<path fill="#bbd9d1" d="M6.025 3.526c0.168 0.002 0.503 0.007 0.669 0.007 0.443 0.805 0.39 1.731 0.164 2.592-0.27 0.030-0.54 0.042-0.81 0.037-0.196-0.868-0.201-1.763-0.023-2.635z"></path>
<path fill="#bddad1" d="M8.472 6.065c-0.487-0.875-0.494-2.296 0.602-2.712 0.168 0.792 0.879 3.208-0.602 2.712z"></path>
<path fill="#b6d2cd" d="M10.945 6.452c-0.265-0.988-0.272-2.026 0.005-3.012 0.305 0.148 0.609 0.298 0.914 0.443 0.002 0.738 0.005 1.477 0.014 2.215-0.309 0.118-0.621 0.235-0.932 0.353z"></path>
<path fill="#0b0b0c" d="M17.582 3.81c0.353-0.002 0.395 0.852 0.030 0.847-0.21-0.21-0.235-0.625-0.030-0.847z"></path>
<path fill="#21261f" d="M11.049 10.075c0.272-0.016 0.545-0.032 0.819-0.048 0.621 1.205 0.593 2.61 0.171 3.872-0.238 0.042-0.475 0.076-0.713 0.108-0.875-1.133-0.674-2.652-0.277-3.932M10.929 11.054c-0.039 0.918-0.025 1.876 0.605 2.615 0.842-0.925 0.789-2.331 0.060-3.302-0.224 0.228-0.443 0.457-0.665 0.688z"></path>
<path fill="#21261f" d="M18.812 20.086c0.113-0.976-0.411-2.31 0.565-2.965 0.335 0.222 0.639 0.485 0.951 0.738-0.425 0.007-0.847 0.007-1.269 0.009-0.048 0.921-0.039 1.846 0.005 2.767 0.256-0.009 0.766-0.028 1.022-0.035-0.157-0.455-0.325-0.902-0.489-1.352 0.138 0.005 0.413 0.014 0.549 0.018 0.076 0.282 0.155 0.563 0.231 0.845-0.173 0.367-0.346 0.736-0.515 1.105-0.605-0.037-1.172-0.464-1.050-1.131z"></path>
<path fill="#abbeb6" d="M14.492 10.392c0.088-0.021 0.263-0.065 0.348-0.088-0.143 1.341 0.002 2.684-0.005 4.025-0.593-0.473-0.877-1.179-1.101-1.878-0.095 0.651-0.222 1.302-0.429 1.927-0.005-0.099-0.014-0.3-0.018-0.399 0.018-0.558 0.062-1.115 0.106-1.671 0.395-0.012 0.792-0.023 1.186-0.039-0.415-0.268-0.842-0.517-1.272-0.762-0.014-0.196-0.044-0.591-0.058-0.787 0.413-0.113 0.826-0.222 1.242-0.328z"></path>
<path fill="#b7d6cd" d="M10.929 11.054c0.222-0.231 0.441-0.459 0.665-0.688 0.729 0.972 0.782 2.377-0.060 3.302-0.63-0.738-0.644-1.696-0.605-2.615z"></path>
<path fill="#667670" d="M3.318 16.948c0.129 0 0.39-0.002 0.522-0.005 0.044 1.002-0.076 2.022 0.122 3.009 0.411 0.342 0.988 0.556 1.089 1.152-0.57-0.035-1.138-0.088-1.705-0.143-0.018-1.338-0.035-2.675-0.028-4.013z"></path>
<path fill="#5b6966" d="M8.001 17.227c0.674-0.231 1.385-0.288 2.093-0.261-0.738 1.191-0.531 2.605-0.508 3.93-0.122 0.018-0.369 0.055-0.494 0.074-0.162-1.175 0.577-3.233-0.997-3.628-1.154 0.794-0.383 2.439-0.568 3.605-0.125-0.014-0.374-0.042-0.498-0.053 0.012-1.131-0.016-2.262-0.138-3.385 0.378-0.058 0.743-0.178 1.11-0.282z"></path>
<path fill="#718279" d="M5.398 19.844c0.074-1.032-0.367-2.278 0.422-3.118 0.372 1.348 0.355 2.774 0.231 4.156-0.612 0.383-0.648-0.646-0.653-1.038z"></path>
<path fill="#39413d" d="M10.708 20.97c0.062-1.329-0.164-2.682 0.099-3.992 0.522-0.044 1.022 0.129 1.509 0.286-0.457 0.226-0.923 0.434-1.389 0.644 0 0.108-0.005 0.33-0.005 0.441 0.286 0.205 0.572 0.408 0.861 0.614-0.372 0.342-0.942 0.6-0.895 1.191 0.369 0.242 0.81 0.305 1.232 0.385 0.002 0.198 0.005 0.395 0.007 0.591-0.473-0.048-0.946-0.099-1.419-0.159z"></path>
<path fill="#8ea7a5" d="M12.722 16.987c0.039 0.053 0.118 0.159 0.157 0.212 0.081 0.111 0.162 0.222 0.242 0.33 0.741 0.032 1.225 0.432 1.191 1.218-0.526 0.058-1.055 0.115-1.581 0.194 0.487 0.222 1.032 0.392 1.53 0.102 0.125 0.658 0.252 1.313 0.374 1.971-0.129 0.060-0.388 0.178-0.517 0.238-0.21-0.561-0.425-1.119-0.646-1.673-0.039 0.503-0.072 1.006-0.106 1.509-0.18 0-0.545-0.002-0.725-0.002-0.067-1.366-0.081-2.737 0.081-4.098z"></path>
<path fill="#647674" d="M15.099 17.112c0.12 0.028 0.355 0.081 0.475 0.108 0.044 1.343 0.067 2.686 0.030 4.029-0.108-0.062-0.323-0.187-0.432-0.249-0.088-1.295-0.081-2.592-0.074-3.888z"></path>
<path fill="#757f76" d="M16.193 21.201c0.102-1.387-0.496-3.035 0.318-4.251 0.002 0.104 0.007 0.312 0.009 0.415 0 0.607 0.018 1.214 0.074 1.818 0.076-0.365 0.155-0.729 0.203-1.098 0.182 0.224 0.362 0.45 0.542 0.676 0.069-0.612 0.152-1.223 0.27-1.825 0.655 1.359 0.245 2.97 0.27 4.428-0.455-0.648-0.828-1.35-1.163-2.070-0.005 0.598-0.007 1.195-0.002 1.793-0.132 0.028-0.392 0.085-0.522 0.113M17.446 19.251c-0.018 0.605 0.102 1.202 0.33 1.761 0.048-0.609-0.032-1.221-0.33-1.761z"></path>
<path fill="#445150" d="M7.848 22.763c1.385 0.009 2.815 0.358 4.152-0.171 0.819 0.268 1.673 0.411 2.536 0.392 2.848-0.021 5.695 0.102 8.541-0.007v0.644c-6.309 0.048-12.616-0.157-18.923-0.173-1.087-0.007-2.197 0.083-3.258-0.203 0.018-0.141 0.051-0.425 0.067-0.565 2.294 0.132 4.59 0.053 6.886 0.083z"></path>
</svg>
