<!-- Generated by IcoMoon.io -->
<svg version="1.1" xmlns="http://www.w3.org/2000/svg" width="20" height="24" viewBox="0 0 20 24">
<title>regulatory--turn-left--g2</title>
<path fill="#080808" opacity="0.3" d="M2.855 0h16.311l-0.087 0.022c-0.268 0.061-0.544 0.024-0.816 0.031-4.684 0.006-9.368-0.014-14.053 0-0.483-0.007-0.966 0.017-1.448-0.016l0.093-0.036z"></path>
<path fill="#1a1919" d="M0 1.013c0.181-0.502 0.639-0.984 1.207-0.965 0.518-0.004 1.037 0.007 1.555-0.012 0.482 0.034 0.965 0.009 1.448 0.016 4.684-0.014 9.368 0.006 14.053 0 0.272-0.007 0.548 0.029 0.816-0.031 0.401 0.235 0.807 0.543 0.921 1.021v22.012c-0.103 0.413-0.417 0.733-0.774 0.946h-18.452c-0.356-0.21-0.665-0.529-0.775-0.937v-22.050M1.017 0.184c-0.526 0.128-0.932 0.645-0.938 1.185 0.001 7.123 0.001 14.245 0 21.368 0.001 0.517 0.369 1.009 0.857 1.174 0.242 0.072 0.498 0.069 0.748 0.067 5.649-0.003 11.297 0.003 16.946-0.003 0.675 0.033 1.294-0.563 1.293-1.235-0.001-7.125-0.001-14.251 0-21.376-0.006-0.668-0.622-1.257-1.293-1.225-5.648-0.005-11.297 0.001-16.946-0.003-0.223-0.002-0.448-0.002-0.667 0.046z"></path>
<path fill="#1a1919" d="M1.227 0.439c0.238-0.038 0.48-0.022 0.72-0.024 5.386 0 10.772 0 16.158 0 0.278 0.002 0.563-0.018 0.834 0.061 0.409 0.142 0.715 0.561 0.707 0.997-0.002 7.071 0.001 14.142-0.001 21.213-0.011 0.417-0.307 0.814-0.701 0.951-0.271 0.087-0.559 0.061-0.839 0.064-5.403 0-10.807 0-16.211 0-0.28-0.003-0.568 0.023-0.84-0.065-0.392-0.138-0.686-0.534-0.698-0.95-0.002-7.071 0.001-14.142-0.001-21.214-0.008-0.489 0.381-0.968 0.872-1.033M1.331 0.964c-0.268 0.028-0.464 0.296-0.442 0.559 0.002 7.038-0.001 14.075 0.002 21.113-0.012 0.306 0.281 0.558 0.581 0.531 5.686 0.001 11.371 0.001 17.057 0 0.301 0.028 0.595-0.224 0.583-0.532 0.001-7.055 0.002-14.111-0.001-21.165 0.008-0.331-0.323-0.558-0.634-0.523-5.715 0.012-11.433-0.021-17.146 0.016z"></path>
<path fill="#1a1919" d="M9.176 3.968c0.385-0.151 0.782 0.325 0.572 0.679-0.283 0.478-0.597 0.937-0.891 1.409 1.165 0.304 2.391 0.597 3.346 1.372 1.296 0.929 2.243 2.329 2.656 3.866 0.363 1.561 0.196 3.174 0.245 4.761-0.809 0-1.618 0.001-2.427-0.001-0.006-1.107 0.011-2.215-0.008-3.322-0.122-1.379-0.846-2.723-1.982-3.528-0.691-0.532-1.573-0.686-2.395-0.907 0.012 0.526 0.066 1.052 0.057 1.577-0.037 0.392-0.551 0.552-0.824 0.288-1.225-1.439-2.448-2.88-3.672-4.321 1.775-0.625 3.547-1.257 5.324-1.875z"></path>
<path fill="#1a1919" d="M4.861 17.334c0.54-0.114 1.116 0.167 1.341 0.673 0.414 0.979 0.419 2.197-0.214 3.086-0.533 0.593-1.673 0.482-2.033-0.253-0.427-0.905-0.46-2.021 0.022-2.913 0.152-0.343 0.513-0.573 0.884-0.593M4.916 17.979c-0.274 0.029-0.425 0.304-0.504 0.538-0.199 0.652-0.201 1.393 0.117 2.007 0.164 0.309 0.589 0.362 0.876 0.206 0.174-0.145 0.279-0.355 0.333-0.572 0.169-0.626 0.16-1.327-0.147-1.911-0.129-0.235-0.424-0.327-0.676-0.269z"></path>
<path fill="#1a1919" d="M7.355 17.381c0.211-0.001 0.422-0.001 0.633-0.001 0.491 0.853 0.975 1.709 1.466 2.562 0.003-0.854 0-1.708 0.002-2.562 0.211-0.001 0.422-0.001 0.634 0-0.001 1.339 0 2.678-0.001 4.017-0.186 0-0.373 0-0.559 0.002-0.518-0.902-1.022-1.813-1.539-2.715-0.004 0.905 0 1.809-0.002 2.714-0.212 0.001-0.424 0.002-0.636-0.005 0.006-1.337 0.001-2.675 0.003-4.013z"></path>
<path fill="#1a1919" d="M11.034 17.381c0.211-0.001 0.422-0.001 0.634 0 0.001 1.142-0.001 2.284 0.001 3.425 0.62 0.001 1.239 0 1.859 0.001 0.001 0.197 0.001 0.394 0 0.592-0.832 0-1.663 0.001-2.494-0.001 0.001-1.339-0.001-2.678 0.001-4.017z"></path>
<path fill="#1a1919" d="M12.994 17.381c0.254-0.001 0.508-0.001 0.762 0.001 0.323 0.513 0.625 1.038 0.964 1.54 0.322-0.515 0.643-1.029 0.967-1.542 0.248 0.001 0.496 0 0.744 0.001-0.456 0.757-0.935 1.501-1.382 2.263-0.032 0.583-0.003 1.17-0.013 1.755-0.212 0.001-0.423 0.001-0.634-0.001-0.002-0.553 0.002-1.107-0.001-1.661 0.006-0.081-0.038-0.149-0.077-0.215-0.446-0.712-0.888-1.427-1.331-2.141z"></path>
<path fill="#fffffe" d="M1.017 0.184c0.219-0.048 0.444-0.048 0.667-0.046 5.648 0.003 11.297-0.003 16.946 0.003 0.672-0.033 1.287 0.556 1.293 1.225-0.001 7.125-0.001 14.251 0 21.376 0.001 0.672-0.618 1.268-1.293 1.235-5.648 0.005-11.297 0-16.946 0.003-0.251 0.002-0.506 0.004-0.748-0.067-0.488-0.165-0.856-0.657-0.857-1.174 0.001-7.123 0.001-14.246 0-21.368 0.006-0.54 0.413-1.057 0.938-1.185M1.227 0.439c-0.491 0.065-0.879 0.544-0.872 1.033 0.002 7.072-0.001 14.143 0.001 21.214 0.012 0.416 0.306 0.812 0.698 0.95 0.272 0.087 0.56 0.062 0.84 0.065 5.404 0 10.807 0 16.211 0 0.28-0.003 0.568 0.023 0.839-0.064 0.394-0.137 0.689-0.534 0.701-0.951 0.002-7.071-0.001-14.142 0.001-21.213 0.007-0.436-0.298-0.855-0.707-0.997-0.271-0.079-0.556-0.059-0.834-0.061-5.386 0-10.772 0-16.158 0-0.24 0.003-0.482-0.014-0.72 0.024z"></path>
<path fill="#fffffe" d="M1.331 0.964c5.714-0.037 11.431-0.005 17.146-0.016 0.311-0.036 0.642 0.192 0.634 0.523 0.003 7.055 0.002 14.111 0.001 21.165 0.012 0.308-0.282 0.56-0.583 0.532-5.686 0.001-11.371 0.001-17.057 0-0.301 0.027-0.593-0.225-0.581-0.531-0.003-7.038 0.001-14.075-0.002-21.113-0.022-0.263 0.174-0.531 0.442-0.559M9.176 3.968c-1.777 0.618-3.549 1.25-5.324 1.875 1.224 1.441 2.447 2.882 3.672 4.321 0.273 0.264 0.787 0.104 0.824-0.288 0.009-0.525-0.045-1.052-0.057-1.577 0.822 0.221 1.705 0.375 2.395 0.907 1.136 0.805 1.861 2.148 1.982 3.528 0.019 1.107 0.002 2.215 0.008 3.322 0.809 0.001 1.618 0.001 2.427 0.001-0.049-1.587 0.118-3.2-0.245-4.761-0.414-1.537-1.36-2.937-2.656-3.866-0.955-0.775-2.181-1.068-3.346-1.372 0.293-0.472 0.608-0.931 0.891-1.409 0.21-0.354-0.187-0.831-0.572-0.679M4.861 17.334c-0.371 0.020-0.732 0.25-0.884 0.593-0.482 0.892-0.449 2.007-0.022 2.913 0.359 0.735 1.499 0.846 2.033 0.253 0.634-0.888 0.628-2.107 0.214-3.086-0.225-0.505-0.801-0.786-1.341-0.673M7.355 17.381c-0.002 1.337 0.003 2.675-0.003 4.013 0.212 0.007 0.424 0.006 0.636 0.005 0.002-0.905-0.002-1.809 0.002-2.714 0.517 0.903 1.021 1.813 1.539 2.715 0.186-0.002 0.373-0.002 0.559-0.002 0.001-1.339 0-2.678 0.001-4.017-0.212-0.001-0.423-0.001-0.634 0-0.002 0.854 0.001 1.708-0.002 2.562-0.491-0.853-0.976-1.709-1.466-2.562-0.211 0-0.422 0-0.633 0.001M11.034 17.381c-0.001 1.339 0 2.678-0.001 4.017 0.832 0.002 1.663 0.001 2.494 0.001 0.001-0.197 0.001-0.394 0-0.592-0.62-0.001-1.239 0.001-1.859-0.001-0.001-1.142 0-2.284-0.001-3.425-0.212-0.001-0.423-0.001-0.634 0M12.994 17.381c0.443 0.714 0.885 1.429 1.331 2.141 0.039 0.066 0.083 0.135 0.077 0.215 0.003 0.554-0.001 1.107 0.001 1.661 0.211 0.001 0.422 0.001 0.634 0.001 0.011-0.585-0.018-1.172 0.013-1.755 0.446-0.762 0.925-1.506 1.382-2.263-0.248-0.001-0.496 0-0.744-0.001-0.324 0.513-0.646 1.027-0.967 1.542-0.339-0.502-0.642-1.027-0.964-1.54-0.254-0.002-0.508-0.002-0.762-0.001z"></path>
<path fill="#fffffe" d="M4.916 17.979c0.252-0.058 0.547 0.034 0.676 0.269 0.307 0.583 0.316 1.284 0.147 1.911-0.054 0.217-0.159 0.427-0.333 0.572-0.287 0.156-0.713 0.103-0.876-0.206-0.318-0.615-0.316-1.356-0.117-2.007 0.079-0.235 0.23-0.509 0.504-0.538z"></path>
</svg>
