<svg xmlns="http://www.w3.org/2000/svg" width="24" height="24">
    <path fill="#fdfdfd" d="M0 0h1.079C.87.128.666.266.462.403c.433-.14.871-.292 1.332-.287C7.997.123 14.198.117 20.4.12c.96.008 1.933-.068 2.879.145L22.901 0H24v1.214c-.11-.212-.228-.421-.346-.629.112.476.233.958.229 1.452-.008 6.041-.001 12.082-.004 18.122-.011.995.071 2.003-.14 2.984l.26-.259v1.115h-1.111c-.74-.154-1.498-.132-2.249-.12H3.359c-.742-.011-1.489-.037-2.22.12h-1.14v-.995c.151-.739.133-1.495.12-2.245 0-5.64.001-11.28-.001-16.92-.019-.94.086-1.89-.119-2.816V-.001zm1.372.432C.814.55.37 1.098.413 1.675c.004 6.884 0 13.769.001 20.654-.029.619.503 1.223 1.138 1.205 6.924.005 13.849-.004 20.773.004.658.038 1.258-.553 1.213-1.213-.005-6.923.005-13.847-.005-20.771-.001-.677-.68-1.194-1.328-1.142C15.261.431 8.314.39 1.372.432z"/>
    <path fill="#969696" d="M1.079 0h21.822l.378.265C22.333.051 21.36.128 20.4.12 14.198.118 7.997.124 1.794.116 1.333.111.895.262.462.403.666.266.87.128 1.079 0zM23.654.586c.118.208.235.416.346.629v21.671l-.26.259c.211-.982.13-1.99.14-2.984.002-6.041-.005-12.082.004-18.122.004-.494-.118-.976-.229-1.452z"/>
    <path fill="#020202" d="M1.372.432C8.314.39 15.261.431 22.205.412c.648-.052 1.327.466 1.328 1.142.01 6.924 0 13.848.005 20.771.044.66-.556 1.252-1.213 1.213-6.924-.007-13.849.001-20.773-.004-.635.018-1.166-.586-1.138-1.205C.413 15.443.416 8.559.413 1.675.37 1.098.814.549 1.372.432zm.117.578a.673.673 0 0 0-.497.672C.987 8.523.993 15.366.988 22.208c-.054.388.275.778.68.709 6.886.005 13.771.002 20.656.001a.55.55 0 0 0 .594-.594c.004-6.886 0-13.771.001-20.657.047-.389-.331-.722-.709-.677-6.907.012-13.817-.026-20.722.019z"/>
    <path fill="#020202" d="M14.082 6.407c1.064-.186 2.2.763 2.125 1.866-.023 1.11.047 2.227-.035 3.334-.263 1.438-2.35 1.902-3.235.773-.775-1.051-.341-2.414-.46-3.618-.137-1.043.505-2.198 1.604-2.354zm-.013.949c-.431.149-.67.593-.636 1.036.026 1.03-.061 2.071.049 3.095.25.851 1.612.764 1.78-.091.064-1.037.016-2.08.025-3.118.016-.598-.638-1.142-1.218-.922zM12.092 18.445c.155.01.311.019.466.03.52.775 1.012 1.568 1.522 2.35-.01-.791-.002-1.58-.006-2.37l.515.004c-.007 1.124.001 2.249-.006 3.373-.19-.052-.458.011-.556-.205-.486-.736-.958-1.481-1.441-2.218.023.793.017 1.586.013 2.381l-.508.016c.005-1.121.004-2.24.001-3.36z"/>
    <path fill="#fff" d="M1.489 1.01C8.394.964 15.303 1.003 22.211.991c.378-.046.756.288.709.677-.001 6.886.002 13.771-.001 20.657a.55.55 0 0 1-.594.594c-6.884.001-13.77.004-20.656-.001-.406.068-.734-.322-.68-.709C.994 15.367.988 8.524.993 1.683a.673.673 0 0 1 .497-.672zm9.473 1.2c-3.215.385-5.984 3.08-6.444 6.288-.289 1.297-.032 2.64.373 3.881 1.05 2.84 3.934 4.944 6.989 4.892 2.753.114 5.447-1.51 6.744-3.918 1.17-2.104 1.259-4.796.163-6.948-1.343-2.891-4.673-4.675-7.825-4.195zm-.739 16.215c-.659.008-1.192.61-1.184 1.255.018.581-.118 1.244.271 1.739.522.691 1.778.5 2.05-.334.085-.505.034-1.026.04-1.537.02-.622-.582-1.117-1.176-1.123zm-3.765.033l.004.47c.5-.005 1.002-.002 1.502-.013-.516.96-1.319 1.812-1.591 2.875.721.006 1.441 0 2.162.011l.013-.452c-.497-.002-.994 0-1.49-.001.488-.965 1.318-1.801 1.516-2.882-.706-.005-1.41 0-2.116-.007zm5.634-.013c.002 1.12.004 2.239-.001 3.36l.508-.016c.004-.794.01-1.588-.013-2.381.484.737.955 1.482 1.441 2.218.097.216.366.154.556.205.007-1.124-.001-2.249.006-3.373a88.417 88.417 0 0 1-.515-.004c.004.79-.004 1.579.006 2.37-.51-.781-1.002-1.574-1.522-2.35-.155-.011-.311-.02-.466-.03zm3.275.013c.008 1.111.007 2.222-.001 3.334.725.001 1.448.005 2.173.006l.011-.451c-.56.001-1.121 0-1.681.005.001-.341.001-.682-.006-1.022l1.429.001a67.827 67.827 0 0 0-.006-.454h-1.417c.001-.319 0-.638-.005-.958.558.007 1.116.004 1.674.01l.004-.47c-.725.006-1.45.008-2.174 0z"/>
    <path fill="#fff" d="M10.838 4.247c2.95-.704 6.149 1.482 6.626 4.463.457 2.316-.746 4.835-2.844 5.917-2.059 1.132-4.859.804-6.506-.904-1.775-1.616-2.23-4.465-1.084-6.568.731-1.493 2.197-2.555 3.808-2.909zM9.559 6.433c-.857.172-1.411.982-1.535 1.808.314.018.629.024.943.032.1-.311.198-.682.528-.823.602-.43 1.462.222 1.38.905-.052.33-.259.601-.462.854-.794.967-1.555 1.962-2.346 2.932.006.271.007.544.01.815 1.238.006 2.477.006 3.715.001a71.149 71.149 0 0 1 0-.924c-.828.016-1.657-.011-2.485.017.671-.803 1.307-1.633 1.962-2.449.274-.344.556-.734.523-1.2.167-1.184-1.091-2.25-2.233-1.968zm4.523-.026c-1.099.156-1.741 1.312-1.604 2.354.119 1.204-.316 2.567.46 3.618.886 1.129 2.972.665 3.235-.773.082-1.106.012-2.224.035-3.334.074-1.103-1.061-2.052-2.125-1.866z"/>
    <path fill="#fff" d="M14.069 7.356c.58-.221 1.234.324 1.218.922-.01 1.038.038 2.081-.025 3.118-.168.856-1.53.942-1.78.091-.11-1.024-.023-2.065-.049-3.095-.034-.443.205-.887.636-1.036z"/>
    <path fill="#929292" d="M0 1.024c.205.926.1 1.877.119 2.816C.121 9.48.12 15.12.12 20.76c.013.75.031 1.506-.12 2.245V1.023z"/>
    <path fill="#fc0102" d="M10.962 2.21c3.152-.48 6.482 1.304 7.825 4.195 1.096 2.152 1.007 4.844-.163 6.948-1.297 2.408-3.991 4.032-6.744 3.918-3.055.052-5.939-2.052-6.989-4.892-.406-1.241-.662-2.584-.373-3.881.46-3.208 3.229-5.903 6.444-6.288zm-.124 2.037c-1.61.354-3.077 1.416-3.808 2.909-1.146 2.102-.691 4.951 1.084 6.568 1.648 1.708 4.447 2.035 6.506.904 2.098-1.082 3.301-3.601 2.844-5.917-.478-2.981-3.677-5.167-6.626-4.463z"/>
    <path fill="#010101" d="M9.559 6.433c1.142-.282 2.4.784 2.233 1.968.032.466-.25.856-.523 1.2-.655.816-1.291 1.646-1.962 2.449.828-.028 1.657-.001 2.485-.017-.002.307-.002.616 0 .924-1.238.005-2.477.005-3.715-.001-.002-.271-.004-.544-.01-.815.791-.97 1.552-1.964 2.346-2.932.203-.253.41-.524.462-.854.082-.683-.778-1.334-1.38-.905-.33.142-.428.512-.528.823-.314-.008-.629-.014-.943-.032.124-.827.678-1.637 1.535-1.808zM10.223 18.425c.594.006 1.196.502 1.176 1.123-.006.511.046 1.032-.04 1.537-.271.834-1.528 1.025-2.05.334-.389-.494-.253-1.158-.271-1.739-.007-.646.526-1.247 1.184-1.255zm-.233.551c-.638.287-.421 1.11-.445 1.666-.034.502.595.912 1.024.614.529-.287.312-.978.355-1.464.088-.499-.436-1.025-.934-.816zM15.367 18.458c.725.008 1.45.006 2.174 0l-.004.47c-.558-.006-1.116-.002-1.674-.01.005.319.006.638.005.958h1.417l.006.454-1.429-.001c.007.341.007.682.006 1.022.56-.005 1.121-.004 1.681-.005l-.011.451c-.725-.001-1.448-.005-2.173-.006.008-1.111.01-2.222.001-3.334z"/>
    <path d="M6.458 18.458c.706.007 1.41.002 2.116.007-.198 1.081-1.027 1.918-1.516 2.882.497.001.994-.001 1.49.001l-.013.452c-.721-.011-1.441-.005-2.162-.011.272-1.063 1.075-1.915 1.591-2.875-.5.011-1.002.008-1.502.013l-.004-.47z"/>
    <path fill="#fefefe" d="M9.99 18.976c.498-.209 1.021.317.934.816-.043.486.174 1.177-.355 1.464-.428.298-1.057-.113-1.024-.614.024-.556-.193-1.379.445-1.666z"/>
    <path fill="#949494" d="M1.14 24c.731-.157 1.478-.131 2.22-.12h17.28c.751-.012 1.508-.034 2.249.12H1.14z"/>
</svg>
