<!-- Generated by IcoMoon.io -->
<svg version="1.1" xmlns="http://www.w3.org/2000/svg" width="30" height="24" viewBox="0 0 30 24">
<title>regulatory--passing-lane-ahead--g1</title>
<path fill="#080808" d="M1.208 0h27.56c0.269 0.087 0.511 0.239 0.687 0.462-0.321-0.183-0.666-0.36-1.046-0.348-8.939 0-17.879 0-26.818 0-0.379-0.012-0.724 0.163-1.044 0.346 0.174-0.213 0.403-0.369 0.661-0.46z"></path>
<path fill="#080808" d="M0.544 23.538c0.321 0.182 0.667 0.359 1.047 0.348 8.939 0 17.879 0 26.818 0 0.38 0.011 0.725-0.166 1.046-0.348-0.176 0.212-0.404 0.37-0.663 0.462h-27.56c-0.27-0.087-0.511-0.24-0.688-0.462z"></path>
<path fill="#fff" d="M0.547 0.46c0.32-0.183 0.665-0.358 1.044-0.346 8.939 0 17.879 0 26.818 0 0.38-0.012 0.725 0.165 1.046 0.348 0.035 0.034 0.069 0.069 0.104 0.105 0.012 0.162 0.103 0.307 0.25 0.38 0.019 0.107 0.036 0.213 0.053 0.32 0.042 7.177 0.045 14.359-0.001 21.536-0.021 0.082-0.042 0.164-0.062 0.247-0.14 0.080-0.228 0.223-0.24 0.384-0.035 0.034-0.070 0.069-0.104 0.104-0.321 0.182-0.666 0.359-1.046 0.348-8.939 0-17.879 0-26.818 0-0.38 0.011-0.726-0.166-1.047-0.348-0.035-0.035-0.069-0.070-0.104-0.105-0.012-0.163-0.102-0.307-0.249-0.381-0.019-0.106-0.037-0.213-0.054-0.319-0.041-7.177-0.043-14.359 0.002-21.536 0.020-0.082 0.041-0.164 0.061-0.246 0.14-0.081 0.227-0.223 0.24-0.384 0.035-0.036 0.071-0.072 0.107-0.107M1.338 0.453c-0.534 0.085-0.933 0.605-0.909 1.141-0.002 6.937-0.003 13.875 0 20.813-0.036 0.633 0.532 1.197 1.164 1.165 8.938 0.005 17.877 0.005 26.815 0 0.631 0.031 1.197-0.532 1.162-1.165 0.004-6.938 0.004-13.876 0-20.815 0.040-0.677-0.601-1.239-1.264-1.168-8.989 0.020-17.981-0.036-26.968 0.029z"></path>
<path fill="#fff" d="M1.323 1.107c0.12-0.043 0.246-0.061 0.376-0.054 8.901 0.005 17.802-0.002 26.703 0.003 0.305-0.035 0.575 0.238 0.541 0.542 0.004 6.935 0.004 13.869 0 20.804 0.034 0.304-0.236 0.576-0.541 0.541-8.934 0.004-17.869 0.004-26.804 0-0.304 0.035-0.576-0.237-0.542-0.541-0.006-6.901 0.001-13.802-0.003-20.703-0.014-0.226 0.043-0.49 0.27-0.592M10.228 3.983c0.365 0.627 1.181 0.565 1.777 0.8 0.599 0.347 0.278 1.342-0.404 1.293-0.485 0.105-0.893-0.146-1.155-0.535-0.002-0.078-0.008-0.234-0.011-0.312-0.135 0.007-0.269 0.011-0.404 0.014 0.034 1.13 1.491 1.389 2.285 0.87 0.431-0.285 0.475-0.938 0.212-1.348-0.459-0.397-1.091-0.46-1.645-0.649-0.469-0.131-0.482-0.901-0.054-1.093 0.547-0.255 1.432-0.082 1.441 0.651 0.106-0.003 0.213-0.007 0.32-0.011 0.011-0.664-0.652-1.157-1.292-1.032-0.724-0.114-1.403 0.664-1.070 1.352M14.14 2.832c-0.52 0.328-0.532 1.212 0.031 1.502 0.541 0.409 1.595 0.132 1.768 0.96 0.030 1.111-1.918 1.035-1.923-0.041-0.12-0.017-0.239-0.034-0.359-0.050-0.059 1.143 1.399 1.416 2.2 0.947 0.538-0.325 0.59-1.309-0.020-1.585-0.449-0.231-0.955-0.304-1.425-0.478-0.348-0.127-0.342-0.59-0.222-0.878 0.394-0.42 1.103-0.351 1.541-0.030 0.043 0.164 0.088 0.329 0.131 0.494 0.108-0.005 0.216-0.010 0.325-0.015-0.002-1.027-1.332-1.303-2.047-0.826M24.261 2.763c-1.147 0.667-1.189 2.549-0.185 3.355 0.642 0.363 1.625 0.364 2.094-0.278 0.043-0.003 0.131-0.009 0.175-0.013 0.002 0.161 0.007 0.321 0.015 0.481l0.187-0.070c0.044-0.594 0.006-1.191 0.018-1.786-0.507-0.003-1.013-0.004-1.519 0.002-0.002 0.062-0.005 0.186-0.007 0.248 0.41 0.032 0.822 0.023 1.233 0.031-0.021 0.419-0.142 0.887-0.522 1.122-0.567 0.453-1.452 0.214-1.801-0.394-0.306-0.663-0.255-1.476 0.109-2.105 0.428-0.546 1.314-0.568 1.846-0.165 0.183 0.218 0.237 0.609 0.604 0.562-0.045-1.091-1.417-1.35-2.247-0.99M3.134 2.684c-0.011 1.191-0.001 2.383-0.006 3.575 0.117 0.002 0.234 0.004 0.351 0.006 0.003-0.512 0.001-1.025 0.003-1.537 0.55-0.033 1.139 0.035 1.656-0.188 0.709-0.332 0.664-1.523-0.088-1.777-0.626-0.154-1.278-0.067-1.916-0.079M6.075 6.261c0.123-0.002 0.246-0.005 0.37-0.008 0.126-0.359 0.246-0.72 0.334-1.090 0.56-0.019 1.12-0.003 1.68-0.015 0.156 0.361 0.271 0.737 0.392 1.11 0.116 0.002 0.234 0.003 0.351 0.005-0.386-1.183-0.921-2.314-1.29-3.503-0.137-0.035-0.274-0.070-0.411-0.104-0.522 1.183-0.962 2.4-1.426 3.605M17.554 2.76c0.010 1.166 0.003 2.332 0.004 3.497 0.091-0.001 0.272-0.002 0.363-0.003-0.050-1.203 0.097-2.425-0.078-3.614-0.072 0.030-0.217 0.090-0.289 0.12M19.348 2.729c0.019 1.177 0.004 2.354 0.008 3.531 0.095-0.001 0.287-0.003 0.382-0.004 0.005-1.032-0.015-2.064 0.012-3.096 0.652 1.061 1.336 2.11 2.068 3.116 0.14-0.012 0.281-0.024 0.421-0.036-0.003-1.165-0.006-2.331 0.002-3.496-0.13-0.013-0.26-0.027-0.389-0.040-0.013 1.014 0.011 2.029-0.013 3.042-0.599-0.712-1.053-1.542-1.587-2.306-0.245-0.302-0.406-0.947-0.904-0.711M8.077 9.793c0.037 1.217-0.071 2.443 0.058 3.652 0.723-0.025 1.447 0.016 2.17-0.020 0.017-0.067 0.052-0.203 0.070-0.27-0.612-0.164-1.252-0.047-1.877-0.082-0.022-1.099 0.016-2.198-0.020-3.297-0.134 0.012-0.267 0.018-0.401 0.017M12.481 9.833c-0.423 1.224-1.020 2.397-1.358 3.642 0.582-0.061 0.501-0.805 0.743-1.203 0.556 0.021 1.117-0.045 1.669 0.049 0.198 0.374 0.127 1.118 0.673 1.137-0.314-1.24-0.92-2.39-1.301-3.614-0.142-0.004-0.284-0.008-0.426-0.011M15.259 9.837c0.064 1.213-0.127 2.466 0.1 3.652 0.071-0.043 0.214-0.13 0.285-0.173 0-1-0.015-2 0.009-3 0.692 1.064 1.356 2.155 2.121 3.167 0.126-0.061 0.382-0.085 0.358-0.278 0.009-1.117-0.002-2.235 0.004-3.352-0.127-0.011-0.254-0.021-0.38-0.031-0.010 1.017 0.004 2.035-0.008 3.052-0.779-0.945-1.388-2.027-2.076-3.043-0.137 0.002-0.275 0.004-0.413 0.006M19.428 9.831c0.004 1.203-0.018 2.407 0.012 3.61 0.803-0.004 1.606-0.003 2.41 0 0.012-0.1 0.024-0.199 0.036-0.298-0.702-0.013-1.404-0.002-2.106-0.008-0.006-0.471-0.004-0.941-0.003-1.412 0.643-0.041 1.307 0.092 1.934-0.097-0.475-0.418-1.27-0.096-1.873-0.184-0.106-0.428-0.053-0.871-0.057-1.307 0.683-0.003 1.366 0.001 2.048-0.003 0.005-0.073 0.013-0.219 0.017-0.292-0.806-0.022-1.612-0.008-2.418-0.009M6.836 16.942c-0.394 1.228-1.042 2.369-1.338 3.627 0.099-0.015 0.199-0.030 0.299-0.045 0.142-0.357 0.276-0.717 0.387-1.085 0.549-0.016 1.098-0.009 1.648-0.006 0.16 0.365 0.286 0.744 0.417 1.12 0.118-0.003 0.235-0.005 0.353-0.008-0.477-1.202-0.874-2.443-1.429-3.611-0.113 0.002-0.225 0.005-0.337 0.008M9.649 16.941c-0.010 1.202-0.008 2.404-0.002 3.606 0.080 0.001 0.238 0.004 0.317 0.005 0.051-0.568-0.076-1.184 0.065-1.722 0.638-0.145 1.371-0.020 2.046-0.060 0.047 0.591-0.072 1.2 0.076 1.78 0.073 0.001 0.219 0.003 0.292 0.003-0.006-1.192 0.024-2.387-0.014-3.578-0.070-0.018-0.212-0.053-0.283-0.071-0.098 0.516-0.059 1.041-0.063 1.563-0.705-0.003-1.411 0.018-2.116-0.014 0.006-0.504 0.008-1.009-0.005-1.513-0.105 0-0.209 0.001-0.313 0.001M13.785 16.94c-0.027 1.202-0.007 2.405-0.011 3.608 0.819 0.007 1.637 0.006 2.456 0.001 0-0.073 0.002-0.217 0.003-0.289-0.697-0.006-1.394-0.001-2.090-0.003-0.002-0.475-0.002-0.951 0-1.426 0.606-0.001 1.211 0.001 1.817-0.002-0.001-0.071-0.002-0.213-0.003-0.284-0.603-0.002-1.206-0.001-1.809-0.001-0.009-0.429-0.008-0.858-0.003-1.288 0.675-0.002 1.35 0.005 2.026-0.004-0.004-0.104-0.008-0.207-0.011-0.31-0.792-0.006-1.584-0.004-2.375-0.002M18.462 16.941c-0.393 1.236-1.074 2.383-1.339 3.653 0.497-0.114 0.496-0.773 0.706-1.162 0.532-0.005 1.064 0 1.596-0.004 0.177 0.363 0.333 0.735 0.455 1.121 0.106 0 0.211 0.002 0.317 0.003-0.397-1.224-0.91-2.41-1.372-3.613-0.121 0.001-0.242 0.002-0.363 0.002M21.239 16.904c-0.020 1.23-0.014 2.461-0.005 3.691 0.684 0.005 1.481 0.201 2.087-0.189 0.672-0.255 0.865-1.058 0.839-1.705-0.011-0.6-0.163-1.39-0.829-1.582-0.558-0.476-1.413-0.093-2.092-0.215z"></path>
<path fill="#fff" d="M3.538 3.040c0.367-0.15 0.832-0.037 1.23 0.007 0.611 0.048 0.67 1.040 0.148 1.263-0.433 0.194-0.918 0.115-1.377 0.135-0.055-0.458-0.131-0.968-0.001-1.405z"></path>
<path fill="#fff" d="M7.623 3.070c0.283 0.571 0.509 1.168 0.678 1.783-0.437 0.007-0.875 0.007-1.312 0 0.127-0.623 0.441-1.181 0.634-1.783z"></path>
<path fill="#fff" d="M12.004 11.959c0.197-0.616 0.415-1.225 0.694-1.81 0.192 0.613 0.445 1.204 0.655 1.811-0.45-0.051-0.913 0.143-1.349-0.001z"></path>
<path fill="#fff" d="M21.561 17.262c0.559 0.002 1.138-0.068 1.679 0.108 0.86 0.635 0.845 2.137-0.022 2.76-0.527 0.204-1.107 0.113-1.658 0.119 0.002-0.995 0.001-1.991 0.001-2.987z"></path>
<path fill="#fff" d="M18.634 17.299c0.243 0.605 0.538 1.209 0.656 1.853-0.427-0.003-0.855-0.002-1.282-0.002 0.144-0.635 0.367-1.254 0.626-1.851z"></path>
<path fill="#fff" d="M7.027 17.292c0.189 0.631 0.549 1.204 0.665 1.858-0.43 0-0.861-0.001-1.292 0.002 0.128-0.643 0.355-1.265 0.627-1.86z"></path>
<path fill="#060606" d="M1.338 0.453c8.987-0.065 17.979-0.009 26.968-0.029 0.663-0.071 1.304 0.491 1.264 1.168 0.004 6.939 0.004 13.877 0 20.815 0.035 0.633-0.531 1.196-1.162 1.165-8.938 0.005-17.877 0.005-26.815 0-0.632 0.032-1.2-0.532-1.164-1.165-0.003-6.938-0.002-13.876 0-20.813-0.024-0.536 0.375-1.056 0.909-1.141M1.323 1.107c-0.227 0.102-0.284 0.366-0.27 0.592 0.004 6.901-0.003 13.802 0.003 20.703-0.034 0.304 0.238 0.576 0.542 0.541 8.935 0.004 17.87 0.004 26.804 0 0.305 0.035 0.575-0.237 0.541-0.541 0.004-6.935 0.004-13.869 0-20.804 0.034-0.304-0.236-0.577-0.541-0.542-8.901-0.005-17.802 0.002-26.703-0.003-0.13-0.007-0.256 0.011-0.376 0.054z"></path>
<path fill="#292929" opacity="0.9" d="M0.2 0.951c-0.017-0.171 0.077-0.325 0.24-0.384-0.013 0.161-0.1 0.303-0.24 0.384z"></path>
<path fill="#282828" opacity="0.89" d="M29.559 0.567c0.158 0.061 0.257 0.21 0.25 0.38-0.147-0.073-0.238-0.218-0.25-0.38z"></path>
<path fill="#282828" opacity="0.89" d="M0.191 23.052c0.147 0.074 0.237 0.218 0.249 0.381-0.158-0.062-0.257-0.211-0.249-0.381z"></path>
<path fill="#060606" d="M0 1.269l0.139-0.072c-0.045 7.177-0.043 14.359-0.002 21.536l-0.137 0.091v-21.555z"></path>
<path fill="#060606" d="M29.862 1.267l0.138-0.090v21.553l-0.139 0.073c0.046-7.177 0.043-14.359 0.001-21.536z"></path>
<path fill="#080808" d="M10.228 3.983c-0.333-0.688 0.346-1.466 1.070-1.352 0.64-0.125 1.303 0.368 1.292 1.032-0.107 0.004-0.214 0.008-0.32 0.011-0.009-0.733-0.894-0.906-1.441-0.651-0.428 0.192-0.415 0.962 0.054 1.093 0.554 0.189 1.186 0.252 1.645 0.649 0.263 0.41 0.219 1.063-0.212 1.348-0.794 0.519-2.251 0.26-2.285-0.87 0.135-0.003 0.269-0.007 0.404-0.014 0.003 0.078 0.009 0.234 0.011 0.312 0.262 0.389 0.67 0.64 1.155 0.535 0.682 0.049 1.003-0.946 0.404-1.293-0.596-0.235-1.412-0.173-1.777-0.8z"></path>
<path fill="#080808" d="M14.14 2.832c0.715-0.477 2.045-0.201 2.047 0.826-0.109 0.005-0.217 0.010-0.325 0.015-0.043-0.165-0.088-0.33-0.131-0.494-0.438-0.321-1.147-0.39-1.541 0.030-0.12 0.288-0.126 0.751 0.222 0.878 0.47 0.174 0.976 0.247 1.425 0.478 0.61 0.276 0.558 1.26 0.020 1.585-0.801 0.469-2.259 0.196-2.2-0.947 0.12 0.016 0.239 0.033 0.359 0.050 0.005 1.076 1.953 1.152 1.923 0.041-0.173-0.828-1.227-0.551-1.768-0.96-0.563-0.29-0.551-1.174-0.031-1.502z"></path>
<path fill="#080808" d="M24.261 2.763c0.83-0.36 2.202-0.101 2.247 0.99-0.367 0.047-0.421-0.344-0.604-0.562-0.532-0.403-1.418-0.381-1.846 0.165-0.364 0.629-0.415 1.442-0.109 2.105 0.349 0.608 1.234 0.847 1.801 0.394 0.38-0.235 0.501-0.703 0.522-1.122-0.411-0.008-0.823 0.001-1.233-0.031 0.002-0.062 0.005-0.186 0.007-0.248 0.506-0.006 1.012-0.005 1.519-0.002-0.012 0.595 0.026 1.192-0.018 1.786l-0.187 0.070c-0.008-0.16-0.013-0.32-0.015-0.481-0.044 0.004-0.132 0.010-0.175 0.013-0.469 0.642-1.452 0.641-2.094 0.278-1.004-0.806-0.962-2.688 0.185-3.355z"></path>
<path fill="#080808" d="M19.348 2.729c0.498-0.236 0.659 0.409 0.904 0.711 0.534 0.764 0.988 1.594 1.587 2.306 0.024-1.013 0-2.028 0.013-3.042 0.129 0.013 0.259 0.027 0.389 0.040-0.008 1.165-0.005 2.331-0.002 3.496-0.14 0.012-0.281 0.024-0.421 0.036-0.732-1.006-1.416-2.055-2.068-3.116-0.027 1.032-0.007 2.064-0.012 3.096-0.095 0.001-0.287 0.003-0.382 0.004-0.004-1.177 0.011-2.354-0.008-3.531z"></path>
<path fill="#0b0b0b" d="M3.134 2.684c0.638 0.012 1.29-0.075 1.916 0.079 0.752 0.254 0.797 1.445 0.088 1.777-0.517 0.223-1.106 0.155-1.656 0.188-0.002 0.512 0 1.025-0.003 1.537-0.117-0.002-0.234-0.004-0.351-0.006 0.005-1.192-0.005-2.384 0.006-3.575M3.538 3.040c-0.13 0.437-0.054 0.947 0.001 1.405 0.459-0.020 0.944 0.059 1.377-0.135 0.522-0.223 0.463-1.215-0.148-1.263-0.398-0.044-0.863-0.157-1.23-0.007z"></path>
<path fill="#070707" d="M6.075 6.261c0.464-1.205 0.904-2.422 1.426-3.605 0.137 0.034 0.274 0.069 0.411 0.104 0.369 1.189 0.904 2.32 1.29 3.503-0.117-0.002-0.235-0.003-0.351-0.005-0.121-0.373-0.236-0.749-0.392-1.11-0.56 0.012-1.12-0.004-1.68 0.015-0.088 0.37-0.208 0.731-0.334 1.090-0.124 0.003-0.247 0.006-0.37 0.008M7.623 3.070c-0.193 0.602-0.507 1.16-0.634 1.783 0.437 0.007 0.875 0.007 1.312 0-0.169-0.615-0.395-1.212-0.678-1.783z"></path>
<path fill="#070707" d="M12.481 9.833c0.142 0.003 0.284 0.007 0.426 0.011 0.381 1.224 0.987 2.374 1.301 3.614-0.546-0.019-0.475-0.763-0.673-1.137-0.552-0.094-1.113-0.028-1.669-0.049-0.242 0.398-0.161 1.142-0.743 1.203 0.338-1.245 0.935-2.418 1.358-3.642M12.004 11.959c0.436 0.144 0.899-0.050 1.349 0.001-0.21-0.607-0.463-1.198-0.655-1.811-0.279 0.585-0.497 1.194-0.694 1.81z"></path>
<path fill="#070707" d="M18.462 16.941c0.121 0 0.242-0.001 0.363-0.002 0.462 1.203 0.975 2.389 1.372 3.613-0.106-0.001-0.211-0.003-0.317-0.003-0.122-0.386-0.278-0.758-0.455-1.121-0.532 0.004-1.064-0.001-1.596 0.004-0.21 0.389-0.209 1.048-0.706 1.162 0.265-1.27 0.946-2.417 1.339-3.653M18.634 17.299c-0.259 0.597-0.482 1.216-0.626 1.851 0.427 0 0.855-0.001 1.282 0.002-0.118-0.644-0.413-1.248-0.656-1.853z"></path>
<path fill="#030303" d="M17.554 2.76c0.072-0.030 0.217-0.090 0.289-0.12 0.175 1.189 0.028 2.411 0.078 3.614-0.091 0.001-0.272 0.002-0.363 0.003-0.001-1.165 0.006-2.331-0.004-3.497z"></path>
<path fill="#030303" d="M8.077 9.793c0.071 0.044 0.211 0.131 0.281 0.174 0.037 1.069-0.041 2.139 0.043 3.205 0.658 0.022 1.317 0.033 1.974-0.017-0.018 0.067-0.053 0.203-0.070 0.27-0.723 0.036-1.447-0.005-2.17 0.020-0.129-1.209-0.021-2.435-0.058-3.652z"></path>
<path fill="#737373" d="M8.077 9.793c0.134 0.001 0.267-0.005 0.401-0.017 0.036 1.099-0.002 2.198 0.020 3.297 0.625 0.035 1.265-0.082 1.877 0.082-0.657 0.050-1.316 0.039-1.974 0.017-0.084-1.066-0.006-2.136-0.043-3.205-0.070-0.043-0.21-0.13-0.281-0.174z"></path>
<path fill="#090909" d="M15.259 9.837c0.138-0.002 0.276-0.004 0.413-0.006 0.688 1.016 1.297 2.098 2.076 3.043 0.012-1.017-0.002-2.035 0.008-3.052 0.126 0.010 0.253 0.020 0.38 0.031-0.006 1.117 0.005 2.235-0.004 3.352 0.024 0.193-0.232 0.217-0.358 0.278-0.765-1.012-1.429-2.103-2.121-3.167-0.024 1-0.009 2-0.009 3-0.071 0.043-0.214 0.13-0.285 0.173-0.227-1.186-0.036-2.439-0.1-3.652z"></path>
<path fill="#090909" d="M6.836 16.942c0.112-0.003 0.224-0.006 0.337-0.008 0.555 1.168 0.952 2.409 1.429 3.611-0.118 0.003-0.235 0.005-0.353 0.008-0.131-0.376-0.257-0.755-0.417-1.12-0.55-0.003-1.099-0.010-1.648 0.006-0.111 0.368-0.245 0.728-0.387 1.085-0.1 0.015-0.2 0.030-0.299 0.045 0.296-1.258 0.944-2.399 1.338-3.627M7.027 17.292c-0.272 0.595-0.499 1.217-0.627 1.86 0.431-0.003 0.862-0.002 1.292-0.002-0.116-0.654-0.476-1.227-0.665-1.858z"></path>
<path fill="#0a0a0a" d="M19.428 9.831c0.806 0.001 1.612-0.013 2.418 0.009-0.004 0.073-0.012 0.219-0.017 0.292-0.682 0.004-1.365 0-2.048 0.003 0.004 0.436-0.049 0.879 0.057 1.307 0.603 0.088 1.398-0.234 1.873 0.184-0.627 0.189-1.291 0.056-1.934 0.097-0.001 0.471-0.003 0.941 0.003 1.412 0.702 0.006 1.404-0.005 2.106 0.008-0.012 0.099-0.024 0.198-0.036 0.298-0.804-0.003-1.607-0.004-2.41 0-0.030-1.203-0.008-2.407-0.012-3.61z"></path>
<path fill="#0a0a0a" d="M9.649 16.941c0.104 0 0.208-0.001 0.313-0.001 0.013 0.504 0.011 1.009 0.005 1.513 0.705 0.032 1.411 0.011 2.116 0.014 0.004-0.522-0.035-1.047 0.063-1.563 0.071 0.018 0.213 0.053 0.283 0.071 0.038 1.191 0.008 2.386 0.014 3.578-0.073 0-0.219-0.002-0.292-0.003-0.148-0.58-0.029-1.189-0.076-1.78-0.675 0.040-1.408-0.085-2.046 0.060-0.141 0.538-0.014 1.154-0.065 1.722-0.079-0.001-0.237-0.004-0.317-0.005-0.006-1.202-0.008-2.404 0.002-3.606z"></path>
<path fill="#0f0f0f" d="M13.785 16.94c0.791-0.002 1.583-0.004 2.375 0.002 0.003 0.103 0.007 0.206 0.011 0.31-0.676 0.009-1.351 0.002-2.026 0.004-0.005 0.43-0.006 0.859 0.003 1.288 0.603 0 1.206-0.001 1.809 0.001 0.001 0.071 0.002 0.213 0.003 0.284-0.606 0.003-1.211 0.001-1.817 0.002-0.002 0.475-0.002 0.951 0 1.426 0.696 0.002 1.393-0.003 2.090 0.003-0.001 0.072-0.003 0.216-0.003 0.289-0.819 0.005-1.637 0.006-2.456-0.001 0.004-1.203-0.016-2.406 0.011-3.608z"></path>
<path fill="#979797" d="M21.239 16.904c0.679 0.122 1.534-0.261 2.092 0.215-0.659-0.129-1.332-0.184-2.003-0.145-0.054 1.173-0.042 2.35-0.007 3.524 0.667 0.036 1.338 0.004 2-0.092-0.606 0.39-1.403 0.194-2.087 0.189-0.009-1.23-0.015-2.461 0.005-3.691z"></path>
<path fill="#010101" d="M21.328 16.974c0.671-0.039 1.344 0.016 2.003 0.145 0.666 0.192 0.818 0.982 0.829 1.582 0.026 0.647-0.167 1.45-0.839 1.705-0.662 0.096-1.333 0.128-2 0.092-0.035-1.174-0.047-2.351 0.007-3.524M21.561 17.262c0 0.996 0.001 1.992-0.001 2.987 0.551-0.006 1.131 0.085 1.658-0.119 0.867-0.623 0.882-2.125 0.022-2.76-0.541-0.176-1.12-0.106-1.679-0.108z"></path>
<path fill="#272727" opacity="0.89" d="M29.559 23.434c0.012-0.161 0.1-0.304 0.24-0.384 0.016 0.17-0.078 0.325-0.24 0.384z"></path>
</svg>
