<svg xmlns="http://www.w3.org/2000/svg" width="24" height="24">
    <path fill="#cc0303" d="M3.156 3.92C5.409 1.446 8.765-.069 12.128.118 17.882.021 23.21 4.871 23.735 10.586c.015 1.486.139 3.005-.267 4.454-1.157 4.556-5.24 8.275-9.94 8.807-1.421.088-2.869.142-4.266-.171C4.439 22.656.648 18.346 0 13.495V10.54C.396 8.095 1.403 5.7 3.156 3.92zm6.722-1.175c-3.868.791-6.979 4.226-7.414 8.147 6.291.001 12.583.003 18.874-.001-.291-2.345-1.474-4.565-3.283-6.089-2.202-1.921-5.329-2.691-8.177-2.057zM2.479 13.311c.343 2.386 1.605 4.624 3.495 6.123 2.182 1.781 5.186 2.487 7.933 1.874 3.823-.779 6.911-4.139 7.413-8.002-6.281-.001-12.56-.013-18.841.005z"/>
    <path fill="#fff" d="M9.878 2.745c2.848-.634 5.974.135 8.177 2.057 1.809 1.524 2.992 3.744 3.283 6.089-6.291.004-12.583.003-18.874.001.435-3.922 3.546-7.356 7.414-8.147zm.286 1.289c-.738 1.324-1.296 2.746-2.123 4.02-.089.158-.092.345-.133.518.227.033.529.126.61-.174.627-1.434 1.333-2.831 2.029-4.233.347-.023.694-.047 1.042-.08 0-.094.003-.281.004-.375-.47.028-1.177-.213-1.429.324zm-1.578.601c.015.323.04.645.086.964.551.036.707-.53.871-.938a12.19 12.19 0 0 0-.956-.026zm4.397-.055c.014.204.029.409.052.613.841.143 1.702.14 2.549.056.005-.223.008-.447.008-.67-.869 0-1.74-.003-2.609.001zm-2.212 3.037c.808-.013 1.617.022 2.423.097.341-.647.821-1.302 1.565-1.497.619-.13 1.256-.121 1.884-.162l-.001-.576c-1.209.008-2.418.028-3.627.036-.018.499-.034.998-.05 1.496-.592-.027-1.203.068-1.785-.046-.352-.549-.633-1.14-1-1.681-.738.798.117 1.658.59 2.334zm-4.318.114c-.373 1.15.628 2.473 1.85 2.344 1.48.032 2.403-1.938 1.374-3.038-.332-.481-.412.202-.171.443.577.859-.078 2.106-1.077 2.217-1.074.197-2.05-1.067-1.552-2.051.287-.702 1.084-.927 1.777-.924a32.52 32.52 0 0 1-.01-.317c-.928-.154-1.97.368-2.189 1.326zm7.079.008c.591-.134.863-.803 1.474-.906.906-.313 1.969.513 1.882 1.467.04.863-.891 1.523-1.697 1.429-.624-.065-.971-.684-1.57-.807.414 1.257 2.202 1.523 3.119.673.802-.725.731-2.186-.16-2.812-1.003-.781-2.7-.297-3.049.957zm-2.392.055c-.411.222-.4.889.034 1.079.437.333 1.058-.189.932-.682-.056-.44-.615-.624-.966-.397zm1.106.154l-.013.86c1.033-.04 2.083.093 3.103-.101.364-.027.392-.675.017-.687-1.028-.133-2.073-.045-3.107-.073zM2.479 13.311c6.281-.018 12.56-.006 18.841-.005-.502 3.863-3.59 7.223-7.413 8.002-2.747.613-5.751-.093-7.933-1.874-1.891-1.499-3.152-3.737-3.495-6.123zm7.281.79c.171.757-.189 1.462-.652 2.041-.776-.176-1.654-.033-2.165.633-.716.811-.447 2.196.469 2.741.959.678 2.503.023 2.697-1.131.207-.775-.16-1.536-.724-2.053.101-.17.203-.338.306-.507.78.673 1.532 1.381 2.348 2.011.377.333.905.246 1.367.292.305.911 1.114 1.837 2.173 1.651 1.259-.135 1.961-1.68 1.357-2.756-.437-.878-1.513-1.112-2.391-.831-.212-.332-.563-.671-.485-1.099.2-.244.461-.426.686-.645-.571-.115-1.15-.024-1.721.041.29.146.578.292.859.453-.137.142-.266.341-.491.323-1.117.065-2.239.003-3.357.037.092-.343.084-.697.031-1.046.426-.056.862-.092 1.265-.249-.509-.063-1.108-.199-1.57.093z"/>
    <path fill="#fff" d="M9.858 15.596c1.205-.013 2.411-.055 3.615-.008-.34.743-.735 1.459-1.129 2.175-.83-.721-1.658-1.444-2.487-2.168zM13.831 15.608c.839.711-.282 1.381-.415 2.157a41.818 41.818 0 0 1-.712-.01c.347-.73.715-1.45 1.127-2.147zM7.61 16.542c.414-.254.913-.198 1.367-.116-.217.532-.529 1.016-.871 1.476.018.212.237.223.393.286.172-.563.43-1.099.82-1.543.53.541.761 1.403.343 2.081-.394.826-1.584 1.025-2.261.433-.855-.624-.742-2.14.208-2.616zM14.722 16.437c.756-.273 1.663.049 1.999.797.532.956-.277 2.351-1.4 2.239-.762.009-1.381-.587-1.538-1.309.589-.078 1.185.023 1.772-.059.029-.633-.665-1.061-.832-1.669z"/>
    <path fill="#fff" d="M13.783 17.711c.094-.423.319-.799.631-1.098.263.36.499.739.709 1.132-.447.027-.896.036-1.339-.034z"/>
    <path fill="#030303" d="M10.164 4.034c.251-.537.959-.296 1.429-.324-.001.094-.004.281-.004.375-.347.033-.694.057-1.042.08-.696 1.402-1.402 2.8-2.029 4.233-.082.3-.383.207-.61.174.041-.174.043-.36.133-.518.827-1.274 1.385-2.696 2.123-4.02zM8.586 4.635c.319-.004.638.004.956.026-.163.409-.319.974-.871.938-.046-.319-.07-.641-.086-.964zM12.983 4.58c.869-.004 1.74-.001 2.609-.001 0 .223-.003.447-.008.67-.848.084-1.708.087-2.549-.056a14.07 14.07 0 0 1-.052-.613z"/>
    <path fill="#030303" d="M10.771 7.617c-.472-.675-1.328-1.536-.59-2.334.366.541.647 1.132 1 1.681.582.114 1.192.019 1.785.046.015-.498.032-.997.05-1.496 1.209-.008 2.418-.028 3.627-.036l.001.576c-.628.041-1.265.032-1.884.162-.744.195-1.224.85-1.565 1.497a22.288 22.288 0 0 0-2.423-.097zM6.453 7.731c.22-.959 1.261-1.481 2.189-1.326l.01.317c-.693-.003-1.49.222-1.777.924-.498.984.479 2.248 1.552 2.051 1-.111 1.654-1.358 1.077-2.217-.241-.241-.161-.924.171-.443 1.029 1.1.106 3.07-1.374 3.038-1.222.129-2.223-1.194-1.85-2.344z"/>
    <path fill="#030303" d="M13.532 7.739c.349-1.255 2.045-1.739 3.049-.957.891.627.961 2.087.16 2.812-.917.85-2.705.585-3.119-.673.599.123.946.742 1.57.807.806.094 1.736-.566 1.697-1.429.087-.954-.975-1.78-1.882-1.467-.611.103-.883.772-1.474.906zM11.14 7.794c.351-.227.91-.043.966.397.126.493-.495 1.015-.932.682-.434-.19-.446-.857-.034-1.079z"/>
    <path fill="#030303" d="M12.246 7.948c1.034.028 2.08-.06 3.107.073.375.011.347.66-.017.687-1.02.194-2.071.061-3.103.101l.013-.86zM9.76 14.101c.462-.292 1.061-.156 1.57-.093-.403.157-.839.193-1.265.249.054.349.061.702-.031 1.046 1.118-.034 2.24.028 3.357-.037.226.018.355-.181.491-.323a17.134 17.134 0 0 0-.859-.453c.571-.065 1.15-.156 1.721-.041-.225.218-.485.401-.686.645-.078.428.273.767.485 1.099.878-.281 1.954-.047 2.391.831.604 1.076-.098 2.621-1.357 2.756-1.058.186-1.868-.739-2.173-1.651-.462-.046-.991.041-1.367-.292-.816-.629-1.568-1.338-2.348-2.011-.103.169-.206.337-.306.507.564.517.931 1.278.724 2.053-.194 1.154-1.739 1.809-2.697 1.131-.915-.545-1.185-1.93-.469-2.741.511-.666 1.389-.809 2.165-.633.463-.58.823-1.284.652-2.041zm.098 1.495c.829.724 1.657 1.446 2.487 2.168.393-.716.789-1.432 1.129-2.175-1.204-.047-2.41-.005-3.615.008zm3.973.012c-.412.697-.78 1.417-1.127 2.147.236.005.474.009.712.01.133-.776 1.254-1.446.415-2.157zm-6.221.934c-.95.476-1.063 1.991-.208 2.616.677.592 1.866.393 2.261-.433.417-.678.186-1.54-.343-2.081-.389.444-.647.98-.82 1.543-.156-.063-.375-.074-.393-.286.342-.46.654-.943.871-1.476-.454-.082-.954-.138-1.367.116zm7.112-.105c.167.608.862 1.035.832 1.669-.587.082-1.183-.019-1.772.059.157.721.776 1.317 1.538 1.309 1.123.112 1.933-1.283 1.4-2.239-.336-.748-1.243-1.07-1.999-.797zm-.939 1.274c.443.07.892.061 1.339.034a9.41 9.41 0 0 0-.709-1.132 2.193 2.193 0 0 0-.631 1.098z"/>
</svg>
