<!-- Generated by IcoMoon.io -->
<svg version="1.1" xmlns="http://www.w3.org/2000/svg" width="24" height="24" viewBox="0 0 24 24">
<title>regulatory--maximum-speed-limit-led-55--g2</title>
<path fill="#fff" d="M3.125 0h17.746c0.488 0.154 0.756 0.684 0.747 1.172 0.001 7.219 0.001 14.438 0 21.656 0.009 0.488-0.258 1.016-0.745 1.172h-17.743c-0.489-0.154-0.757-0.684-0.748-1.172-0.001-7.219-0.001-14.438 0-21.656-0.010-0.488 0.257-1.015 0.743-1.172M3.629 0.592c-0.487 0.102-0.77 0.625-0.765 1.094 0 6.876 0 13.753 0 20.629-0.001 0.403 0.195 0.828 0.56 1.022 0.215 0.117 0.466 0.085 0.701 0.089 5.36-0.001 10.721 0.001 16.081-0.001 0.568 0.005 0.941-0.589 0.93-1.11-0-6.877-0-13.753 0-20.629 0-0.403-0.195-0.829-0.56-1.023-0.215-0.117-0.466-0.084-0.701-0.088-5.235 0-10.469 0-15.703 0-0.181 0.002-0.364-0.013-0.543 0.016z"></path>
<path fill="#fff" d="M4.049 1.196c0.070-0.016 0.143-0.019 0.215-0.021 5.063 0.001 10.126 0 15.189 0 0.233 0.003 0.486-0.029 0.696 0.097 0.355 0.203 0.517 0.629 0.513 1.022-0.001 6.486 0.002 12.973-0.001 19.459 0.006 0.495-0.331 1.065-0.875 1.070-5.19 0.002-10.381 0.002-15.571 0-0.544-0.004-0.882-0.575-0.875-1.070-0.003-6.486-0-12.973-0.001-19.459-0.012-0.458 0.233-0.983 0.711-1.099M5.234 3.031c-0.306 0.306-0.289 0.879 0.057 1.148 0.335 0.274 0.794 0.301 1.148 0.536 0.238 0.141 0.192 0.534-0.062 0.63-0.374 0.168-0.811-0.059-0.964-0.422-0.173 0.065-0.346 0.128-0.518 0.195 0.227 0.797 1.306 1.075 1.94 0.59 0.406-0.306 0.456-0.979 0.087-1.334-0.329-0.321-0.814-0.363-1.199-0.584-0.163-0.087-0.177-0.336-0.023-0.438 0.283-0.181 0.697-0.063 0.848 0.237 0.166-0.057 0.332-0.113 0.499-0.167-0.198-0.765-1.297-0.913-1.812-0.391M7.933 2.775c-0.006 1.041 0.002 2.083-0.004 3.124 0.187-0.003 0.374-0.002 0.561-0.001 0.004-0.391 0.001-0.782 0.002-1.173 0.443-0.027 0.93 0.089 1.331-0.156 0.506-0.303 0.593-1.083 0.195-1.507-0.213-0.221-0.533-0.29-0.829-0.29-0.419 0-0.837-0.003-1.256 0.003M10.891 2.777c-0.008 1.040-0 2.080-0.004 3.12 0.71-0.002 1.42 0.001 2.13-0.001 0.003-0.18 0.003-0.361-0-0.541-0.522-0.005-1.043-0.001-1.565-0.003 0-0.262 0-0.525 0.001-0.787 0.301 0 0.603 0.001 0.905 0 0.003-0.178 0.005-0.356 0.003-0.533-0.303-0.001-0.606 0-0.908-0.001 0-0.237 0-0.475 0-0.713 0.49 0 0.98 0.001 1.469-0 0.003-0.18 0.003-0.36-0-0.541-0.677-0.003-1.353-0.004-2.030 0M13.745 2.778c-0.006 1.040 0.002 2.081-0.004 3.121 0.71-0.006 1.42 0.002 2.13-0.004 0.005-0.18 0.005-0.36 0-0.54-0.522-0.004-1.045-0.001-1.568-0.002 0-0.263 0-0.525 0-0.787 0.302 0 0.604 0 0.906-0 0.005-0.178 0.008-0.356 0.005-0.533-0.304-0.001-0.607-0-0.911-0 0-0.238 0-0.475 0-0.713 0.49-0.002 0.981 0.004 1.471-0.003 0.004-0.18 0.004-0.36 0-0.539-0.677-0.003-1.354-0.005-2.031 0.001M16.587 2.775c-0.002 1.041-0.003 2.082 0.001 3.123 0.655-0.033 1.415 0.137 1.957-0.336 0.655-0.61 0.66-1.804 0.024-2.428-0.54-0.491-1.318-0.332-1.981-0.359M6.352 7.419c-0.005 1.038-0.002 2.077-0.002 3.115 0.682 0.001 1.364 0 2.046 0 0.001-0.182 0.001-0.364 0-0.547-0.494-0.003-0.988 0-1.481-0.001-0.002-0.856 0.003-1.711-0.002-2.567-0.187-0.003-0.374-0.003-0.561 0M9.038 7.418c-0.002 1.039-0 2.078-0.001 3.117 0.188 0.001 0.377 0 0.566-0.002 0.003-1.039 0.003-2.077 0-3.116-0.188-0.004-0.377-0.004-0.565 0.001M10.516 7.418c-0.006 1.039-0.001 2.078-0.002 3.116 0.188 0 0.375 0.001 0.563 0 0.001-0.624 0.006-1.247-0.003-1.871 0.275 0.654 0.568 1.301 0.853 1.951 0.285-0.653 0.593-1.296 0.852-1.959-0.015 0.626-0.003 1.252-0.007 1.879 0.188 0.001 0.377 0.001 0.565-0.001 0.002-1.039 0.004-2.078-0.001-3.118-0.18-0.001-0.36-0.001-0.54 0-0.287 0.666-0.596 1.322-0.863 1.996-0.263-0.673-0.574-1.326-0.853-1.993-0.188-0.006-0.376-0.007-0.564-0.001M14.254 7.415c0 1.040 0.001 2.081-0.001 3.121 0.185-0.002 0.37-0.002 0.556-0-0.001-1.040 0-2.080-0.001-3.12-0.185-0.001-0.369-0.001-0.554-0M15.528 7.41c-0.003 0.181-0.002 0.363-0 0.545 0.29 0.002 0.581 0.001 0.871 0.001 0 0.859-0 1.718 0 2.578 0.188 0 0.375 0 0.563-0.001 0.001-0.859 0-1.718 0.001-2.577 0.288-0 0.577-0 0.865-0 0.001-0.182 0.001-0.365-0.001-0.547-0.766-0-1.533-0.002-2.299 0.001M5.198 11.555c-0.196 0.060-0.417 0.212-0.409 0.441-0.001 2.877 0 5.754-0 8.632-0.002 0.344 0.399 0.501 0.692 0.499 4.346 0.001 8.692 0.001 13.038 0 0.293 0.001 0.694-0.155 0.692-0.499-0-2.877 0-5.754-0-8.632 0.001-0.281-0.3-0.434-0.542-0.471-0.153-0.030-0.311-0.063-0.467-0.037-0.398 0.027-0.801 0.030-1.199-0.002-0.016 0-0.049 0-0.065 0-0.399 0.031-0.802 0.030-1.201 0-0.016 0-0.049-0.001-0.065-0.001-0.399 0.033-0.802 0.030-1.201 0.002-0.016-0-0.049-0.002-0.065-0.003-0.412 0.033-0.828 0.032-1.24 0l-0.032-0c-0.833 0.035-1.672 0.032-2.506 0.001-0.016 0-0.049-0-0.065-0-0.398 0.032-0.802 0.030-1.201 0.001-0.016 0-0.049-0.001-0.065-0.001-0.399 0.033-0.802 0.030-1.201 0.002-0.016-0-0.049-0.002-0.065-0.003-0.412 0.033-0.829 0.033-1.24 0l-0.032-0c-0.412 0.033-0.828 0.032-1.24 0-0.112-0.022-0.219 0.029-0.32 0.070z"></path>
<path fill="#fff" d="M8.491 3.319c0.293 0.009 0.59-0.020 0.881 0.014 0.394 0.073 0.417 0.717 0.036 0.825-0.303 0.045-0.612 0.009-0.917 0.020 0-0.286 0-0.572 0-0.859z"></path>
<path fill="#fff" d="M17.147 3.318c0.366 0.008 0.818-0.075 1.074 0.259 0.332 0.461 0.324 1.201-0.1 1.604-0.269 0.236-0.646 0.16-0.973 0.172-0-0.678 0.001-1.356-0-2.034z"></path>
<path fill="#000" d="M3.629 0.592c0.179-0.029 0.362-0.014 0.543-0.016 5.235-0 10.469 0 15.703-0 0.234 0.004 0.486-0.029 0.701 0.088 0.366 0.194 0.56 0.62 0.56 1.023-0 6.876-0 13.753 0 20.629 0.011 0.521-0.361 1.115-0.93 1.11-5.361 0.002-10.721 0-16.081 0.001-0.235-0.004-0.486 0.028-0.701-0.089-0.365-0.194-0.561-0.62-0.56-1.022 0-6.876 0-13.753 0-20.629-0.005-0.469 0.278-0.992 0.765-1.094M4.049 1.196c-0.478 0.116-0.723 0.641-0.711 1.099 0.001 6.486-0.002 12.973 0.001 19.459-0.007 0.495 0.331 1.066 0.875 1.070 5.19 0.002 10.38 0.002 15.571 0 0.543-0.004 0.881-0.575 0.875-1.070 0.003-6.486 0-12.973 0.001-19.459 0.004-0.393-0.158-0.82-0.513-1.022-0.21-0.127-0.463-0.095-0.696-0.098-5.063 0-10.126 0.001-15.189 0-0.072 0.002-0.144 0.004-0.215 0.021z"></path>
<path fill="#000" d="M5.234 3.031c0.515-0.522 1.614-0.375 1.812 0.391-0.167 0.054-0.333 0.111-0.499 0.167-0.151-0.3-0.565-0.418-0.848-0.237-0.154 0.102-0.14 0.352 0.023 0.438 0.385 0.221 0.87 0.263 1.199 0.584 0.369 0.354 0.32 1.028-0.087 1.334-0.634 0.485-1.713 0.207-1.94-0.59 0.172-0.067 0.345-0.131 0.518-0.195 0.152 0.363 0.59 0.59 0.964 0.422 0.255-0.095 0.3-0.489 0.062-0.63-0.354-0.235-0.813-0.262-1.148-0.536-0.346-0.27-0.363-0.842-0.057-1.148z"></path>
<path fill="#000" d="M7.933 2.775c0.419-0.006 0.837-0.002 1.256-0.003 0.296 0 0.616 0.069 0.829 0.29 0.398 0.424 0.311 1.204-0.195 1.507-0.4 0.245-0.888 0.129-1.331 0.156-0.001 0.391 0.002 0.782-0.002 1.173-0.187-0.001-0.374-0.002-0.561 0.001 0.006-1.042-0.002-2.083 0.004-3.124M8.491 3.319c0 0.286 0 0.573 0 0.859 0.305-0.011 0.615 0.025 0.917-0.020 0.381-0.108 0.358-0.752-0.036-0.825-0.292-0.034-0.588-0.005-0.881-0.014z"></path>
<path fill="#000" d="M10.891 2.777c0.677-0.005 1.353-0.003 2.030-0 0.004 0.18 0.004 0.36 0 0.541-0.489 0.002-0.979 0.001-1.469 0 0 0.238 0 0.475 0 0.713 0.303 0.001 0.606 0 0.908 0.001 0.002 0.178 0 0.355-0.003 0.533-0.302 0.001-0.603 0-0.905 0-0.001 0.262-0.001 0.525-0.001 0.787 0.522 0.002 1.043-0.002 1.565 0.003 0.003 0.18 0.004 0.36 0 0.541-0.71 0.003-1.42-0-2.13 0.001 0.003-1.040-0.004-2.080 0.004-3.12z"></path>
<path fill="#000" d="M13.745 2.778c0.677-0.006 1.354-0.004 2.031-0.001 0.003 0.18 0.004 0.359-0 0.539-0.49 0.007-0.981 0.001-1.471 0.003 0 0.238 0 0.475-0 0.713 0.304 0 0.607-0 0.911 0 0.003 0.178 0 0.356-0.005 0.533-0.302 0.001-0.604 0-0.906 0 0 0.262 0 0.525 0 0.787 0.523 0.001 1.045-0.002 1.568 0.002 0.004 0.18 0.004 0.36-0 0.54-0.71 0.006-1.42-0.002-2.13 0.004 0.006-1.040-0.002-2.081 0.004-3.121z"></path>
<path fill="#000" d="M16.587 2.775c0.664 0.027 1.441-0.133 1.981 0.359 0.637 0.624 0.631 1.818-0.024 2.428-0.541 0.473-1.302 0.303-1.957 0.336-0.004-1.041-0.003-2.082-0.001-3.123M17.147 3.318c0.001 0.678 0 1.356 0 2.034 0.327-0.011 0.704 0.064 0.973-0.172 0.425-0.402 0.433-1.142 0.1-1.604-0.255-0.333-0.708-0.251-1.074-0.259z"></path>
<path fill="#000" d="M6.352 7.419c0.187-0.003 0.374-0.003 0.561 0 0.005 0.856 0 1.711 0.002 2.567 0.494 0.001 0.987-0.002 1.481 0.001 0.001 0.182 0.001 0.364 0 0.547-0.682 0-1.364 0.001-2.046-0 0-1.038-0.003-2.077 0.002-3.115z"></path>
<path fill="#000" d="M9.038 7.418c0.188-0.005 0.376-0.005 0.565-0.001 0.003 1.039 0.003 2.077 0 3.116-0.188 0.002-0.377 0.003-0.566 0.002 0-1.039-0.001-2.078 0.001-3.117z"></path>
<path fill="#000" d="M10.516 7.418c0.188-0.006 0.376-0.005 0.564 0.001 0.278 0.667 0.59 1.32 0.853 1.993 0.267-0.674 0.576-1.33 0.862-1.996 0.18-0.001 0.36-0.001 0.54 0 0.005 1.039 0.003 2.078 0.001 3.118-0.188 0.002-0.377 0.002-0.565 0.001 0.004-0.626-0.008-1.253 0.007-1.879-0.259 0.663-0.567 1.306-0.852 1.959-0.285-0.65-0.578-1.297-0.853-1.951 0.009 0.624 0.005 1.247 0.003 1.871-0.188 0-0.375 0-0.563-0 0.001-1.039-0.004-2.077 0.002-3.116z"></path>
<path fill="#000" d="M14.254 7.415c0.185-0.001 0.369-0.001 0.554 0 0.001 1.040-0 2.080 0.001 3.12-0.186-0.001-0.371-0.001-0.556 0 0.002-1.040 0.001-2.081 0.001-3.121z"></path>
<path fill="#000" d="M15.528 7.41c0.766-0.003 1.533-0.001 2.299-0.001 0.002 0.182 0.002 0.365 0.001 0.547-0.288 0-0.577 0-0.865 0-0.001 0.859 0 1.718-0.001 2.577-0.188 0.001-0.375 0.001-0.563 0.001-0.001-0.859 0-1.718-0-2.578-0.291-0-0.581 0-0.871-0.001-0.002-0.182-0.002-0.364 0-0.545z"></path>
<path fill="#000" d="M5.518 11.485c0.412 0.032 0.828 0.033 1.24-0-0.232 0.052-0.441 0.231-0.483 0.471-0.063 0.347 0.326 0.679 0.659 0.567 0.268-0.077 0.434-0.397 0.331-0.658-0.072-0.205-0.272-0.33-0.475-0.379 0.412 0.032 0.828 0.033 1.24-0-0.232 0.052-0.441 0.231-0.483 0.471-0.062 0.346 0.323 0.676 0.656 0.568 0.271-0.076 0.444-0.403 0.332-0.666-0.071-0.191-0.254-0.308-0.44-0.369 0.399 0.028 0.802 0.031 1.201-0.002-0.23 0.055-0.436 0.235-0.477 0.475-0.057 0.344 0.324 0.669 0.655 0.563 0.275-0.075 0.448-0.409 0.331-0.674-0.075-0.189-0.257-0.306-0.444-0.364 0.399 0.030 0.803 0.031 1.201-0.001-0.228 0.059-0.432 0.239-0.47 0.478-0.053 0.34 0.32 0.662 0.648 0.562 0.27-0.070 0.444-0.385 0.348-0.649-0.069-0.204-0.262-0.334-0.462-0.39 0.834 0.031 1.673 0.033 2.506-0.001-0.231 0.052-0.439 0.231-0.481 0.471-0.063 0.348 0.327 0.68 0.661 0.566 0.269-0.078 0.434-0.401 0.327-0.662-0.075-0.202-0.272-0.326-0.475-0.374 0.412 0.032 0.828 0.033 1.24-0-0.231 0.053-0.438 0.232-0.48 0.471-0.061 0.345 0.321 0.675 0.653 0.569 0.274-0.074 0.445-0.403 0.334-0.668-0.072-0.191-0.255-0.308-0.442-0.368 0.399 0.028 0.802 0.030 1.201-0.002-0.23 0.056-0.435 0.237-0.475 0.476-0.059 0.355 0.35 0.687 0.686 0.552 0.258-0.090 0.412-0.409 0.3-0.664-0.075-0.189-0.258-0.306-0.446-0.363 0.399 0.030 0.802 0.031 1.201-0-0.227 0.059-0.431 0.239-0.468 0.478-0.056 0.353 0.349 0.682 0.683 0.551 0.251-0.085 0.405-0.386 0.313-0.638-0.068-0.205-0.262-0.334-0.462-0.39 0.398 0.032 0.801 0.029 1.199 0.002-0.226 0.061-0.427 0.245-0.461 0.484-0.047 0.348 0.346 0.669 0.677 0.545 0.256-0.083 0.413-0.388 0.319-0.643-0.054-0.174-0.219-0.274-0.356-0.377 0.096 0.008 0.192 0.017 0.288 0.028 0.243 0.037 0.544 0.19 0.542 0.471 0.001 2.878 0 5.755 0 8.632 0.001 0.344-0.4 0.5-0.692 0.499-4.346 0.001-8.692 0.001-13.038 0-0.293 0.002-0.694-0.155-0.692-0.499 0-2.878-0-5.755 0-8.632-0.007-0.229 0.213-0.381 0.409-0.441l0.086-0.031c-0.107 0.131-0.256 0.25-0.282 0.428-0.066 0.351 0.33 0.686 0.666 0.567 0.262-0.080 0.424-0.392 0.326-0.651-0.072-0.206-0.272-0.335-0.476-0.384M5.359 12.818c-0.174 0.063-0.306 0.224-0.352 0.401-0.082 0.341 0.281 0.68 0.615 0.602 0.214-0.046 0.386-0.243 0.399-0.462 0.032-0.336-0.334-0.658-0.662-0.542M13 12.821c-0.169 0.066-0.298 0.223-0.343 0.397-0.085 0.351 0.303 0.701 0.644 0.597 0.202-0.057 0.36-0.248 0.37-0.458 0.030-0.337-0.343-0.659-0.671-0.535M5.495 14.083c-0.385 0.003-0.663 0.526-0.384 0.822 0.205 0.28 0.673 0.265 0.841-0.045 0.215-0.326-0.084-0.787-0.457-0.777M6.766 14.083c-0.396 0.003-0.67 0.555-0.364 0.842 0.218 0.275 0.69 0.226 0.838-0.094 0.185-0.326-0.113-0.758-0.474-0.748M8.032 14.083c-0.241 0.008-0.44 0.219-0.486 0.447-0.059 0.344 0.324 0.662 0.652 0.56 0.233-0.063 0.402-0.31 0.367-0.551-0.039-0.25-0.276-0.463-0.533-0.457M9.298 14.084c-0.228 0.010-0.412 0.203-0.472 0.413-0.090 0.35 0.3 0.696 0.638 0.595 0.238-0.061 0.41-0.312 0.373-0.556-0.042-0.251-0.281-0.465-0.539-0.453M13.141 14.083c-0.395 0.004-0.667 0.554-0.363 0.841 0.217 0.276 0.69 0.229 0.839-0.092 0.185-0.327-0.114-0.759-0.476-0.749M14.407 14.084c-0.24 0.009-0.437 0.219-0.483 0.447-0.059 0.343 0.322 0.661 0.649 0.561 0.193-0.052 0.345-0.228 0.368-0.426 0.041-0.3-0.236-0.591-0.534-0.581M15.673 14.084c-0.24 0.013-0.435 0.225-0.478 0.453-0.052 0.338 0.32 0.65 0.645 0.556 0.239-0.060 0.413-0.313 0.374-0.558-0.042-0.25-0.283-0.464-0.54-0.451M16.939 14.085c-0.238 0.016-0.431 0.228-0.471 0.456-0.041 0.273 0.194 0.521 0.452 0.565 0.265 0.042 0.534-0.168 0.566-0.433 0.048-0.306-0.241-0.609-0.547-0.588M10.421 15.39c-0.178 0.080-0.315 0.26-0.333 0.455-0.019 0.261 0.207 0.488 0.453 0.532 0.268 0.044 0.541-0.17 0.569-0.439 0.053-0.354-0.351-0.695-0.689-0.548M18.062 15.394c-0.227 0.106-0.392 0.386-0.299 0.634 0.089 0.233 0.359 0.408 0.61 0.341 0.216-0.049 0.387-0.255 0.39-0.478 0.013-0.34-0.379-0.644-0.701-0.497M10.422 16.663c-0.309 0.122-0.46 0.571-0.196 0.814 0.227 0.281 0.715 0.21 0.847-0.128 0.189-0.382-0.26-0.857-0.65-0.687M18.066 16.665c-0.174 0.082-0.309 0.258-0.328 0.451-0.021 0.267 0.214 0.501 0.468 0.537 0.266 0.033 0.531-0.181 0.555-0.449 0.046-0.354-0.359-0.69-0.695-0.54M5.358 17.925c-0.175 0.063-0.308 0.225-0.353 0.403-0.078 0.347 0.306 0.68 0.64 0.583 0.199-0.052 0.359-0.235 0.375-0.442 0.038-0.338-0.334-0.659-0.662-0.544M10.465 17.92c-0.188 0.060-0.331 0.233-0.372 0.423-0.053 0.281 0.192 0.545 0.461 0.582 0.254 0.032 0.509-0.161 0.551-0.413 0.073-0.346-0.3-0.697-0.64-0.592M13 17.928c-0.325 0.112-0.486 0.582-0.21 0.828 0.224 0.27 0.694 0.205 0.833-0.118 0.202-0.374-0.229-0.86-0.623-0.71M18.107 17.923c-0.179 0.061-0.316 0.225-0.361 0.407-0.075 0.337 0.285 0.662 0.613 0.588 0.212-0.042 0.385-0.232 0.402-0.448 0.037-0.336-0.326-0.655-0.654-0.547M6.669 19.187c-0.352 0.082-0.546 0.579-0.259 0.84 0.225 0.274 0.703 0.208 0.839-0.12 0.186-0.358-0.197-0.817-0.58-0.719M7.936 19.189c-0.346 0.086-0.538 0.575-0.257 0.834 0.223 0.276 0.702 0.214 0.841-0.114 0.193-0.359-0.199-0.825-0.584-0.72M9.203 19.191c-0.2 0.059-0.354 0.247-0.386 0.45-0.035 0.274 0.204 0.522 0.465 0.558 0.245 0.031 0.489-0.146 0.545-0.384 0.098-0.348-0.276-0.724-0.624-0.624M14.311 19.189c-0.189 0.052-0.333 0.222-0.383 0.409-0.077 0.333 0.272 0.66 0.599 0.596 0.208-0.035 0.382-0.213 0.412-0.421 0.060-0.337-0.296-0.674-0.628-0.584M15.578 19.191c-0.339 0.092-0.527 0.57-0.253 0.829 0.221 0.277 0.698 0.222 0.842-0.104 0.2-0.362-0.2-0.839-0.589-0.725M16.845 19.192c-0.333 0.095-0.518 0.564-0.25 0.823 0.218 0.278 0.695 0.23 0.842-0.094 0.206-0.365-0.199-0.851-0.592-0.729z"></path>
<path fill="#ccc" d="M5.198 11.555c0.101-0.042 0.208-0.093 0.32-0.070 0.204 0.049 0.404 0.178 0.476 0.384 0.098 0.259-0.064 0.571-0.326 0.651-0.335 0.119-0.731-0.216-0.666-0.567 0.026-0.179 0.175-0.297 0.282-0.428l-0.086 0.031z"></path>
<path fill="#ccc" d="M6.758 11.484l0.032 0c0.203 0.049 0.403 0.174 0.475 0.379 0.103 0.261-0.063 0.581-0.331 0.658-0.333 0.112-0.722-0.219-0.659-0.567 0.042-0.24 0.251-0.419 0.483-0.471z"></path>
<path fill="#ccc" d="M8.030 11.484c0.016 0.001 0.048 0.002 0.065 0.003 0.186 0.061 0.369 0.179 0.44 0.369 0.112 0.263-0.061 0.59-0.332 0.666-0.333 0.109-0.718-0.221-0.656-0.568 0.042-0.24 0.251-0.419 0.483-0.471z"></path>
<path fill="#ccc" d="M9.296 11.485c0.016 0 0.049 0.001 0.065 0.001 0.187 0.058 0.37 0.174 0.444 0.364 0.117 0.265-0.056 0.598-0.331 0.674-0.331 0.105-0.712-0.219-0.655-0.563 0.040-0.24 0.247-0.42 0.477-0.475z"></path>
<path fill="#ccc" d="M10.561 11.485c0.016 0 0.049 0 0.065 0 0.199 0.057 0.393 0.187 0.462 0.39 0.096 0.264-0.079 0.579-0.348 0.649-0.329 0.1-0.702-0.222-0.648-0.562 0.038-0.239 0.242-0.42 0.47-0.478z"></path>
<path fill="#ccc" d="M13.133 11.484l0.032 0c0.202 0.048 0.399 0.172 0.475 0.374 0.107 0.261-0.058 0.585-0.327 0.662-0.334 0.113-0.724-0.218-0.661-0.566 0.042-0.24 0.25-0.419 0.481-0.471z"></path>
<path fill="#ccc" d="M14.405 11.484c0.016 0.001 0.048 0.002 0.065 0.003 0.187 0.060 0.37 0.178 0.442 0.368 0.111 0.265-0.060 0.594-0.334 0.668-0.332 0.106-0.714-0.224-0.653-0.569 0.043-0.239 0.249-0.418 0.48-0.471z"></path>
<path fill="#ccc" d="M15.671 11.485c0.016 0 0.049 0.001 0.065 0.001 0.188 0.058 0.371 0.174 0.446 0.363 0.112 0.255-0.042 0.574-0.3 0.664-0.336 0.135-0.744-0.197-0.686-0.552 0.039-0.24 0.245-0.42 0.475-0.476z"></path>
<path fill="#ccc" d="M16.937 11.486c0.016 0 0.049 0 0.065 0 0.2 0.056 0.394 0.186 0.462 0.39 0.092 0.252-0.062 0.553-0.313 0.638-0.334 0.132-0.739-0.197-0.683-0.551 0.037-0.239 0.241-0.419 0.468-0.478z"></path>
<path fill="#ccc" d="M18.201 11.488c0.156-0.026 0.314 0.007 0.467 0.037-0.096-0.011-0.192-0.021-0.288-0.028 0.137 0.103 0.302 0.202 0.356 0.377 0.094 0.255-0.063 0.56-0.319 0.643-0.33 0.124-0.724-0.197-0.677-0.545 0.034-0.239 0.234-0.423 0.461-0.484z"></path>
<path fill="#ccc" d="M5.359 12.818c0.328-0.116 0.694 0.206 0.662 0.542-0.013 0.219-0.185 0.416-0.399 0.462-0.334 0.078-0.697-0.262-0.615-0.602 0.046-0.178 0.178-0.338 0.352-0.401z"></path>
<path fill="#ccc" d="M13 12.821c0.328-0.124 0.7 0.198 0.671 0.535-0.011 0.21-0.168 0.401-0.37 0.458-0.341 0.105-0.729-0.246-0.644-0.597 0.045-0.174 0.174-0.331 0.343-0.397z"></path>
<path fill="#ccc" d="M5.495 14.083c0.373-0.010 0.672 0.451 0.457 0.777-0.168 0.31-0.636 0.325-0.841 0.045-0.279-0.296-0.001-0.819 0.384-0.822z"></path>
<path fill="#ccc" d="M6.766 14.083c0.361-0.010 0.659 0.422 0.474 0.748-0.148 0.321-0.62 0.369-0.838 0.094-0.306-0.287-0.032-0.84 0.364-0.842z"></path>
<path fill="#ccc" d="M8.032 14.083c0.257-0.007 0.494 0.206 0.533 0.457 0.035 0.24-0.134 0.488-0.367 0.551-0.328 0.102-0.711-0.217-0.652-0.56 0.046-0.228 0.244-0.439 0.486-0.447z"></path>
<path fill="#ccc" d="M9.298 14.084c0.258-0.012 0.497 0.202 0.539 0.453 0.037 0.244-0.135 0.495-0.373 0.556-0.338 0.1-0.728-0.245-0.638-0.595 0.060-0.211 0.244-0.403 0.472-0.413z"></path>
<path fill="#ccc" d="M13.141 14.083c0.361-0.011 0.661 0.422 0.476 0.749-0.149 0.321-0.622 0.368-0.839 0.092-0.304-0.287-0.031-0.837 0.363-0.841z"></path>
<path fill="#ccc" d="M14.407 14.084c0.298-0.010 0.576 0.282 0.534 0.581-0.023 0.198-0.175 0.374-0.368 0.426-0.328 0.1-0.708-0.218-0.649-0.561 0.046-0.227 0.242-0.438 0.483-0.447z"></path>
<path fill="#ccc" d="M15.673 14.084c0.258-0.013 0.498 0.201 0.54 0.451 0.039 0.245-0.135 0.497-0.374 0.558-0.325 0.094-0.697-0.218-0.645-0.556 0.043-0.228 0.238-0.44 0.478-0.453z"></path>
<path fill="#ccc" d="M16.939 14.085c0.305-0.021 0.595 0.282 0.547 0.588-0.032 0.265-0.3 0.474-0.566 0.433-0.258-0.045-0.493-0.293-0.452-0.565 0.040-0.228 0.233-0.439 0.471-0.456z"></path>
<path fill="#ccc" d="M10.421 15.39c0.337-0.147 0.742 0.194 0.689 0.548-0.028 0.269-0.301 0.483-0.569 0.439-0.246-0.044-0.472-0.271-0.453-0.532 0.018-0.195 0.155-0.375 0.333-0.455z"></path>
<path fill="#ccc" d="M18.062 15.394c0.322-0.147 0.714 0.157 0.701 0.497-0.003 0.223-0.173 0.428-0.39 0.478-0.251 0.067-0.521-0.107-0.61-0.341-0.094-0.248 0.071-0.528 0.299-0.634z"></path>
<path fill="#ccc" d="M10.422 16.663c0.39-0.17 0.839 0.305 0.65 0.687-0.132 0.337-0.62 0.409-0.847 0.128-0.264-0.243-0.113-0.692 0.196-0.814z"></path>
<path fill="#ccc" d="M18.066 16.665c0.336-0.15 0.741 0.186 0.695 0.54-0.024 0.267-0.288 0.482-0.555 0.449-0.254-0.036-0.489-0.27-0.468-0.537 0.018-0.194 0.153-0.369 0.328-0.451z"></path>
<path fill="#ccc" d="M5.358 17.925c0.328-0.115 0.7 0.206 0.662 0.544-0.016 0.207-0.176 0.39-0.375 0.442-0.334 0.097-0.718-0.236-0.64-0.583 0.045-0.179 0.178-0.34 0.353-0.403z"></path>
<path fill="#ccc" d="M10.465 17.92c0.341-0.105 0.713 0.246 0.64 0.592-0.042 0.252-0.297 0.446-0.551 0.413-0.269-0.038-0.514-0.301-0.461-0.582 0.041-0.19 0.184-0.364 0.372-0.423z"></path>
<path fill="#ccc" d="M13 17.928c0.395-0.15 0.825 0.336 0.623 0.71-0.139 0.322-0.609 0.387-0.833 0.118-0.277-0.246-0.116-0.716 0.21-0.828z"></path>
<path fill="#ccc" d="M18.107 17.923c0.328-0.107 0.691 0.212 0.654 0.547-0.017 0.216-0.19 0.406-0.402 0.448-0.328 0.074-0.687-0.252-0.613-0.588 0.045-0.182 0.182-0.346 0.361-0.407z"></path>
<path fill="#ccc" d="M6.669 19.187c0.383-0.098 0.766 0.361 0.58 0.719-0.136 0.328-0.615 0.395-0.839 0.12-0.287-0.26-0.092-0.758 0.259-0.84z"></path>
<path fill="#ccc" d="M7.936 19.189c0.385-0.105 0.777 0.361 0.584 0.72-0.139 0.328-0.618 0.39-0.841 0.114-0.281-0.259-0.089-0.748 0.257-0.834z"></path>
<path fill="#ccc" d="M9.203 19.191c0.348-0.1 0.722 0.276 0.624 0.624-0.055 0.238-0.3 0.416-0.545 0.384-0.261-0.037-0.5-0.285-0.465-0.558 0.031-0.204 0.186-0.392 0.386-0.45z"></path>
<path fill="#ccc" d="M14.311 19.189c0.332-0.090 0.688 0.247 0.628 0.584-0.030 0.208-0.204 0.386-0.412 0.421-0.326 0.063-0.675-0.263-0.599-0.596 0.049-0.187 0.194-0.356 0.383-0.409z"></path>
<path fill="#ccc" d="M15.578 19.191c0.39-0.114 0.789 0.363 0.589 0.725-0.144 0.326-0.621 0.381-0.842 0.104-0.275-0.259-0.086-0.737 0.253-0.829z"></path>
<path fill="#ccc" d="M16.845 19.192c0.394-0.122 0.799 0.364 0.592 0.729-0.148 0.324-0.624 0.372-0.842 0.094-0.269-0.259-0.083-0.728 0.25-0.823z"></path>
</svg>
