<?xml version="1.0" encoding="utf-8"?>
<!-- Generated by IcoMoon.io -->
<!DOCTYPE svg PUBLIC "-//W3C//DTD SVG 1.1//EN" "http://www.w3.org/Graphics/SVG/1.1/DTD/svg11.dtd">
<svg version="1.1" xmlns="http://www.w3.org/2000/svg" xmlns:xlink="http://www.w3.org/1999/xlink" width="24" height="24" viewBox="0 0 24 24">
<path fill="#fff" d="M12.018 0.146c-6.547 0-11.854 5.307-11.854 11.854s5.307 11.854 11.854 11.854c6.547 0 11.854-5.307 11.854-11.854s-5.307-11.854-11.854-11.854z"></path>
<path fill="#287ac8" d="M12.018 0.772c-6.201 0-11.228 5.027-11.228 11.228s5.027 11.228 11.228 11.228c6.201 0 11.228-5.027 11.228-11.228s-5.027-11.228-11.228-11.228zM5.895 11.532l3.612-5.984 1.736 1.048-3.612 5.984c0 0 2.417 0.848 2.469 0.879 0.198 0.12 0.262 0.378 0.142 0.576-0.046 0.076-0.113 0.132-0.189 0.166l-5.76 2.546c-0.107 0.029-0.225 0.017-0.328-0.045s-0.168-0.161-0.192-0.269l-0.427-6.277c0 0 0.017-0.17 0.063-0.246 0.12-0.198 0.377-0.262 0.576-0.142 0.052 0.031 1.909 1.764 1.909 1.764zM18.102 11.532c0 0 1.858-1.733 1.909-1.764 0.198-0.12 0.456-0.056 0.576 0.142 0.046 0.076 0.063 0.246 0.063 0.246l-0.427 6.277c-0.024 0.108-0.090 0.207-0.192 0.269s-0.221 0.074-0.327 0.045l-5.76-2.546c-0.076-0.034-0.143-0.090-0.189-0.166-0.12-0.198-0.056-0.456 0.142-0.576 0.052-0.031 2.469-0.879 2.469-0.879l-3.612-5.984 1.736-1.048 3.612 5.984z"></path>
</svg>
