<?xml version="1.0" encoding="utf-8"?>
<!-- Generated by IcoMoon.io -->
<!DOCTYPE svg PUBLIC "-//W3C//DTD SVG 1.1//EN" "http://www.w3.org/Graphics/SVG/1.1/DTD/svg11.dtd">
<svg version="1.1" xmlns="http://www.w3.org/2000/svg" xmlns:xlink="http://www.w3.org/1999/xlink" width="24" height="24" viewBox="0 0 24 24">
<path fill="#fff" d="M23.586 12c0 6.399-5.187 11.586-11.586 11.586s-11.586-5.187-11.586-11.586c0-6.399 5.187-11.586 11.586-11.586s11.586 5.187 11.586 11.586z"></path>
<path fill="none" stroke="#c00" stroke-width="3.1034" stroke-miterlimit="4" stroke-linecap="butt" stroke-linejoin="miter" d="M21.6 12c0 5.302-4.298 9.6-9.6 9.6s-9.6-4.298-9.6-9.6c0-5.302 4.298-9.6 9.6-9.6s9.6 4.298 9.6 9.6z"></path>
<path fill="#000" d="M14.093 14.858c-1.369-0.069-3.383 0.172-4.059-0.685-0.31-1.63-1.195-2.451-2.714-2.467-0.933-1.802 0.761-2.084 1.918-2.547 0.074 0.837 0.028 1.708 1.353 2.197 0.053-0.259 0.162-0.471 0.509-0.478l1.958 0.008 1.385-1.082c0.224 0.356 0.668 0.812 0.669 1.067l2.101 0.008c0.153 0.13 0.283 0.476-0.024 0.82-1.259-0.038-3.547 0.099-3.096 3.16z"></path>
<path fill="#000" d="M10.677 7.969l0.006-0.742 0.831-0.113v-0.589l-0.848 0.141c0.062-0.531 0.404-0.914 1.155-1.025 0.472 0.033 0.967 0.059 1.248 0.942 0.082 0.35 0.031 0.704-0.186 1.010-0.704-0.386-1.231-0.122-1.711 0.31l-0.494 0.067z"></path>
<path fill="#000" d="M9.23 9.573l2.475-1.87c0.333-0.177 0.7-0.211 1.138 0.056 0.375 0.341 1.008 1.284 1.512 1.926l-1.409 1.055-1.353-1.882-2.141 1.64c-0.165-0.288-0.203-0.625-0.223-0.923z"></path>
<path fill="none" stroke="#000" stroke-width="1.1586" stroke-miterlimit="4" stroke-linecap="round" stroke-linejoin="round" d="M9.341 14.082c0 0.981-0.795 1.776-1.776 1.776s-1.776-0.795-1.776-1.776c0-0.981 0.795-1.776 1.776-1.776s1.776 0.795 1.776 1.776v0z"></path>
<path fill="none" stroke="#000" stroke-width="1.1586" stroke-miterlimit="4" stroke-linecap="round" stroke-linejoin="round" d="M18.148 14.084c0 0.981-0.795 1.776-1.776 1.776s-1.776-0.795-1.776-1.776c0-0.981 0.795-1.776 1.776-1.776s1.776 0.795 1.776 1.776v0z"></path>
</svg>
