<!-- Generated by IcoMoon.io -->
<svg version="1.1" xmlns="http://www.w3.org/2000/svg" width="24" height="24" viewBox="0 0 24 24">
<title>regulatory--vehicles-carrying-dangerous-goods-only--g1</title>
<path fill="#03559b" d="M10.657 0h2.661c1.146 0.222 2.303 0.447 3.375 0.925 3.966 1.626 6.769 5.508 7.307 9.732v2.662c-0.222 1.144-0.448 2.301-0.927 3.372-1.626 3.966-5.506 6.77-9.73 7.308h-2.662c-1.146-0.222-2.301-0.448-3.372-0.927-3.966-1.626-6.77-5.506-7.308-9.732v-2.659c0.524-4.235 3.336-8.127 7.308-9.757 1.064-0.477 2.214-0.696 3.349-0.925M10.733 3.945c-1.816 0.191-3.679 0.885-4.897 2.297-0.839 0.952-1.161 2.368-0.653 3.554 0.673 1.6 2.29 2.561 3.887 3.051 2.368 0.671 5.036 0.488 7.193-0.746 1.176-0.684 2.238-1.799 2.381-3.209 0.153-1.303-0.583-2.55-1.58-3.336-1.766-1.398-4.129-1.83-6.33-1.611M4.937 12.341c-0.007 0.757-0.007 1.514 0 2.271 4.575 0.007 9.152 0.006 13.727 0 0.007-0.757 0.007-1.514 0-2.271-0.658 0.028-1.336-0.078-1.98 0.051-2.947 1.727-6.842 1.723-9.786-0.007-0.642-0.112-1.31-0.022-1.962-0.044M5.853 15.058c-0.010 1.371-0.006 2.743-0.001 4.113 0.53 0.008 1.060 0.010 1.59 0 0-1.371 0.006-2.741-0.003-4.112-0.529-0.006-1.057-0.006-1.586-0.001M7.91 15.060c-0.003 1.371-0.006 2.741 0.001 4.112 0.529 0.007 1.057 0.007 1.587-0.001 0.008-0.567 0.001-1.136 0.006-1.704 0.469-0.012 0.938-0.015 1.405 0.004 0.379 0.706 1.396 0.72 1.773 0.004 0.47-0.026 0.943-0.021 1.415-0.008 0.004 0.567-0.001 1.135 0.006 1.704 0.529 0.008 1.057 0.008 1.584 0 0.007-1.369 0.007-2.74 0-4.111-0.529-0.008-1.056-0.008-1.584 0-0.007 0.57-0.001 1.139-0.004 1.708-0.469 0.008-0.938 0.011-1.405 0-0.373-0.732-1.416-0.72-1.792 0.001-0.465 0.008-0.931 0.006-1.396 0.001-0.007-0.572 0.003-1.142-0.010-1.713-0.529-0.004-1.057-0.004-1.586 0.003M16.16 19.163c0.53 0.021 1.060 0.018 1.59 0.010 0.006-1.372 0.004-2.743 0.001-4.113-0.529-0.006-1.057-0.006-1.586-0.001-0.014 1.368-0.003 2.737-0.006 4.105z"></path>
<path fill="#fff" d="M10.733 3.945c2.202-0.219 4.564 0.212 6.33 1.611 0.997 0.787 1.733 2.034 1.58 3.336-0.143 1.409-1.204 2.525-2.381 3.209-2.157 1.235-4.825 1.418-7.193 0.746-1.597-0.49-3.214-1.451-3.887-3.051-0.508-1.186-0.186-2.603 0.653-3.554 1.218-1.412 3.081-2.106 4.897-2.297M7.353 8.557c1.482 1.486 2.965 2.969 4.448 4.453 1.482-1.484 2.966-2.966 4.448-4.45-1.471-1.497-2.956-2.98-4.449-4.453-1.489 1.476-2.973 2.958-4.446 4.45z"></path>
<path fill="#fff" d="M4.937 12.341c0.652 0.022 1.319-0.068 1.962 0.044 2.944 1.73 6.839 1.734 9.786 0.007 0.644-0.129 1.322-0.024 1.98-0.051 0.007 0.757 0.007 1.514 0 2.271-4.575 0.006-9.152 0.007-13.727 0-0.007-0.757-0.007-1.514 0-2.271z"></path>
<path fill="#fff" d="M5.853 15.058c0.529-0.004 1.057-0.004 1.586 0.001 0.008 1.371 0.003 2.741 0.003 4.112-0.53 0.010-1.060 0.008-1.59 0-0.004-1.371-0.008-2.743 0.001-4.113z"></path>
<path fill="#fff" d="M7.91 15.060c0.529-0.007 1.057-0.007 1.586-0.003 0.012 0.572 0.003 1.142 0.010 1.713 0.465 0.004 0.931 0.007 1.396-0.001 0.376-0.721 1.419-0.734 1.792-0.001 0.468 0.011 0.936 0.008 1.405 0 0.003-0.569-0.003-1.138 0.004-1.708 0.529-0.008 1.056-0.008 1.584 0 0.007 1.371 0.007 2.741 0 4.111-0.527 0.008-1.056 0.008-1.584 0-0.007-0.569-0.001-1.136-0.006-1.704-0.472-0.012-0.945-0.018-1.415 0.008-0.377 0.716-1.394 0.702-1.773-0.004-0.468-0.019-0.936-0.017-1.405-0.004-0.004 0.567 0.003 1.136-0.006 1.704-0.53 0.008-1.059 0.008-1.587 0.001-0.007-1.371-0.004-2.741-0.001-4.112z"></path>
<path fill="#fff" d="M16.16 19.163c0.003-1.368-0.008-2.737 0.006-4.105 0.529-0.004 1.057-0.004 1.586 0.001 0.003 1.371 0.004 2.741-0.001 4.113-0.53 0.008-1.060 0.011-1.59-0.010z"></path>
<path fill="#ff6903" d="M7.353 8.557c1.473-1.493 2.958-2.974 4.446-4.45 1.493 1.473 2.979 2.956 4.449 4.453-1.482 1.484-2.966 2.966-4.448 4.45-1.483-1.484-2.966-2.967-4.448-4.453z"></path>
</svg>
