<!-- Generated by IcoMoon.io -->
<svg version="1.1" xmlns="http://www.w3.org/2000/svg" width="24" height="24" viewBox="0 0 24 24">
<title>regulatory--no-vehicles-carrying-dangerous-goods--g2</title>
<path fill="#ed1c23" d="M10.744 0h2.491c4.146 0.471 7.975 3.15 9.69 6.973 0.568 1.187 0.855 2.479 1.075 3.769v2.493c-0.471 4.146-3.15 7.974-6.972 9.69-1.188 0.568-2.48 0.855-3.77 1.075h-2.494c-4.146-0.471-7.974-3.15-9.689-6.973-0.569-1.187-0.855-2.479-1.075-3.769v-2.494c0.217-1.331 0.522-2.663 1.118-3.882 1.73-3.773 5.523-6.402 9.625-6.882M6.493 4.809c1.062 1.071 2.13 2.137 3.199 3.2-1.197-0.032-2.403 0.058-3.596-0.039-0.531-0.383-0.937-0.912-1.416-1.356-2.101 2.773-2.344 6.792-0.556 9.781 1.24 2.139 3.399 3.729 5.824 4.225 2.472 0.548 5.145-0.058 7.173-1.562-1.061-1.069-2.126-2.132-3.194-3.194 1.192 0.034 2.391-0.051 3.58 0.036 0.54 0.369 0.94 0.905 1.419 1.345 2.104-2.771 2.342-6.792 0.552-9.78-1.201-2.077-3.274-3.628-5.614-4.166-2.522-0.609-5.293-0.048-7.372 1.508z"></path>
<path fill="#fff" d="M6.493 4.809c2.078-1.557 4.85-2.117 7.372-1.508 2.34 0.538 4.413 2.089 5.614 4.166 1.79 2.987 1.551 7.008-0.552 9.78-0.479-0.44-0.878-0.976-1.419-1.345-1.189-0.087-2.388-0.003-3.58-0.036 1.067 1.062 2.133 2.125 3.194 3.194-2.029 1.504-4.701 2.11-7.173 1.562-2.425-0.496-4.584-2.086-5.824-4.225-1.787-2.989-1.545-7.008 0.556-9.781 0.479 0.444 0.885 0.972 1.416 1.356 1.193 0.097 2.399 0.007 3.596 0.039-1.069-1.063-2.137-2.129-3.199-3.2M6.030 8.61c-0.142 1.034-0.597 1.959-1.294 2.727 0.090 0.050 0.27 0.146 0.359 0.196 0.127-0.094 0.255-0.186 0.382-0.28-0.016 1.278-0.067 2.608-0.732 3.739 0.213 0.070 0.503 0.174 0.615-0.103 0.701-1.158 0.605-2.584 0.646-3.886 1.116-0.032 2.24 0.056 3.348-0.058 0.292-0.001 0.201-0.256 0.137-0.441-0.484-0.084-0.977-0.043-1.465-0.046 0.244-0.369 0.762-0.93 0.245-1.305-0.54-0.224-1.162-0.072-1.734-0.115-0.044-0.158-0.090-0.316-0.134-0.475-0.094 0.012-0.282 0.035-0.374 0.046M16.163 10.13c-0.184-0.001-0.366-0.001-0.55-0.003 0.007-0.51 0.122-1.779-0.66-1.082-0.093 0.015-0.279 0.044-0.371 0.060-0.028 1.065-0.29 2.112-0.271 3.175 0.72-0.227 0.542-1.094 0.735-1.669 0.044 0.701 0.035 1.404 0.034 2.106-0.366 0.17-0.736 0.335-1.095 0.519 0.194 0.567 0.727 0.247 1.113 0.101 0.122 0.627-0.379 1.781 0.496 1.92-0.001-0.744 0.034-1.488 0.035-2.231 0.243-0.166 0.485-0.327 0.729-0.489-0.206 0.595-0.575 1.142-0.657 1.775 0.071 0.071 0.215 0.213 0.286 0.284 0.732-1.247 1.267-2.657 1.294-4.118l0.217 0.017c-0.020 1.524-0.621 2.934-1.061 4.364 0.080 0.036 0.241 0.109 0.322 0.145 0.093-0.079 0.186-0.156 0.28-0.233 0.414 0.147 0.858 0.339 1.305 0.224 0.528-0.268 0.428-0.961 0.453-1.455-0.039-1.11 0.102-2.231-0.032-3.333-0.493-0.508-1.37-0.166-2.018-0.28 0.040-0.463 0.235-0.959 0.025-1.405-0.693 0.125-0.418 1.091-0.609 1.608M11.031 10.186c0.016-0.363 0.196-0.771 0.001-1.111-0.434-0.225-1.428-0.3-1.361 0.429-0.005 1.836-0.024 3.674 0.011 5.509-0.043 0.267 0.271 0.265 0.44 0.361 0.038-0.236 0.072-0.472 0.106-0.709 0.692-0.215 0.999-0.914 0.943-1.597 0.381 0.071 0.766 0.115 1.149 0.164-0.259 0.748-0.947 1.162-1.601 1.522-0.288 0.084-0.106 0.461 0.138 0.45 0.703-0.169 1.248-0.678 1.707-1.211 0.473 0.479 0.939 1.083 1.646 1.195 0.123-0.154 0.169-0.41-0.050-0.507-0.577-0.394-1.097-0.87-1.475-1.463 0.397-0.038 0.804-0.023 1.187-0.147 0.138-0.564 0.185-1.189 0.027-1.752-0.342-0.302-0.882-0.142-1.294-0.291 0.292-0.145 0.615-0.19 0.936-0.225 0.055-0.093 0.109-0.185 0.164-0.276 0.217-0.075 0.646-0.174 0.374-0.453-0.56-0.345-0.933-1.047-1.591-1.183-0.595 0.261-0.957 0.886-1.456 1.297M6.284 11.318c-0.017 1.25-0.035 2.501-0.051 3.752 0.81-0.008 1.625 0.084 2.431-0.009 0.717-0.169 0.74-1.062 0.692-1.653 0.028-0.265-0.21-0.611-0.476-0.361-0.134 0.479 0.056 1.044-0.248 1.468-0.611 0.102-1.235 0.017-1.852 0.017 0.005-0.382 0.009-0.763 0.012-1.144 0.54 0.225 1.385 0.65 1.805 0.027 0.088-0.605 0.178-1.29-0.032-1.87-0.636-0.471-1.539-0.13-2.281-0.227z"></path>
<path fill="#fff" d="M6.371 9.583c0.538 0 1.075-0.001 1.614 0.005-0.235 0.296-0.476 0.585-0.721 0.872-0.402-0.001-0.804-0.001-1.207-0.001 0.107-0.291 0.212-0.583 0.314-0.876z"></path>
<path fill="#fff" d="M10.205 11.028c0.146-0.465-0.355-1.609 0.375-1.55-0.066 0.53-0.233 1.038-0.375 1.55z"></path>
<path fill="#fff" d="M11.671 10.313c0.303-0.284 0.594-0.581 0.877-0.885 0.302 0.308 0.609 0.61 0.936 0.892-0.605-0.019-1.209-0.017-1.813-0.007z"></path>
<path fill="#fff" d="M10.894 10.407c0.381 0.312 0.833 0.499 1.333 0.481 0.001 0.052 0.005 0.16 0.007 0.213-0.335 0.064-0.788-0.070-1.032 0.228-0.106 0.449-0.062 0.918-0.087 1.377-0.392-0.712-0.444-1.523-0.22-2.299z"></path>
<path fill="#fff" d="M15.973 11.871c0.449-0.371 0.524-0.996 0.768-1.496-0.009 0.597-0.099 1.189-0.241 1.768-0.129-0.031-0.257-0.062-0.386-0.093-0.165 0.111-0.33 0.221-0.493 0.333-0.003-0.574-0.004-1.148-0.011-1.72 0.143 0 0.287 0.001 0.43 0.003-0.067 0.366-0.716 1.156-0.067 1.205z"></path>
<path fill="#fff" d="M17.166 14.309c0.602-1.259 0.634-2.686 1.063-3.974 0.084 1.39 0.043 2.789-0.030 4.179-0.346-0.059-0.689-0.133-1.034-0.205z"></path>
<path fill="#fff" d="M11.678 11.665c0.184 0 0.367 0 0.551 0.001 0.001 0.323 0.003 0.648 0.004 0.971-0.185 0.001-0.37 0.001-0.555 0.001 0-0.324 0-0.649 0-0.973z"></path>
<path fill="#fff" d="M12.768 11.674c0.227 0 0.452 0 0.677 0-0.007 0.32-0.012 0.642-0.020 0.964-0.217 0-0.434 0-0.652 0-0.001-0.322-0.003-0.644-0.005-0.964z"></path>
<path fill="#fff" d="M6.818 11.853c0.44 0 0.88 0 1.321 0.001-0.008 0.467-0.015 0.935-0.039 1.4-0.444-0.111-0.871-0.268-1.301-0.425 0.007-0.326 0.013-0.65 0.019-0.976z"></path>
<path fill="#fff" d="M10.215 11.874c0.342 0.713 0.661 1.636 0.040 2.298-0.082-0.763-0.052-1.533-0.040-2.298z"></path>
<path fill="#0366b3" d="M6.030 8.61c0.093-0.011 0.28-0.034 0.374-0.046 0.044 0.158 0.090 0.316 0.134 0.475 0.571 0.043 1.193-0.109 1.734 0.115 0.516 0.374-0.001 0.936-0.245 1.305 0.488 0.003 0.981-0.039 1.465 0.046 0.064 0.185 0.156 0.44-0.137 0.441-1.107 0.114-2.232 0.025-3.348 0.058-0.042 1.302 0.055 2.727-0.646 3.886-0.113 0.278-0.402 0.173-0.615 0.103 0.665-1.132 0.716-2.462 0.732-3.739-0.127 0.094-0.255 0.186-0.382 0.28-0.090-0.050-0.27-0.146-0.359-0.196 0.697-0.768 1.152-1.693 1.294-2.727M6.371 9.583c-0.102 0.292-0.206 0.585-0.314 0.876 0.402 0 0.804 0 1.207 0.001 0.245-0.287 0.487-0.575 0.721-0.871-0.539-0.007-1.077-0.005-1.614-0.005z"></path>
<path fill="#0366b3" d="M16.163 10.13c0.19-0.516-0.084-1.483 0.609-1.608 0.209 0.446 0.015 0.943-0.025 1.405 0.648 0.114 1.524-0.228 2.018 0.28 0.134 1.102-0.007 2.223 0.032 3.333-0.025 0.493 0.075 1.187-0.453 1.455-0.446 0.115-0.89-0.076-1.305-0.224-0.094 0.078-0.188 0.154-0.28 0.233-0.080-0.036-0.241-0.109-0.322-0.145 0.44-1.431 1.040-2.84 1.061-4.364l-0.217-0.017c-0.027 1.46-0.562 2.871-1.294 4.118-0.071-0.071-0.215-0.213-0.286-0.284 0.082-0.633 0.45-1.18 0.657-1.775-0.244 0.162-0.487 0.323-0.729 0.489-0.001 0.743-0.036 1.487-0.035 2.231-0.876-0.139-0.374-1.293-0.496-1.92-0.386 0.146-0.918 0.467-1.113-0.101 0.359-0.184 0.729-0.349 1.095-0.519 0.001-0.703 0.011-1.405-0.034-2.106-0.193 0.575-0.015 1.443-0.735 1.669-0.019-1.063 0.243-2.11 0.271-3.175 0.093-0.016 0.279-0.046 0.371-0.060 0.782-0.697 0.666 0.573 0.66 1.082 0.184 0.001 0.366 0.001 0.55 0.003M15.973 11.871c-0.649-0.050 0-0.839 0.067-1.205-0.143-0.001-0.287-0.003-0.43-0.003 0.007 0.573 0.008 1.146 0.011 1.72 0.164-0.111 0.329-0.221 0.493-0.333 0.129 0.031 0.257 0.062 0.386 0.093 0.142-0.579 0.232-1.172 0.241-1.768-0.244 0.5-0.319 1.125-0.768 1.496M17.166 14.309c0.345 0.072 0.688 0.146 1.034 0.205 0.072-1.39 0.114-2.789 0.030-4.179-0.429 1.289-0.461 2.715-1.063 3.974z"></path>
<path fill="#0366b3" d="M11.031 10.186c0.499-0.41 0.861-1.035 1.456-1.297 0.658 0.135 1.031 0.838 1.591 1.183 0.272 0.279-0.157 0.378-0.374 0.453-0.055 0.091-0.109 0.184-0.164 0.276-0.32 0.035-0.644 0.080-0.936 0.225 0.412 0.149 0.952-0.011 1.294 0.291 0.158 0.563 0.111 1.188-0.027 1.752-0.382 0.125-0.79 0.11-1.187 0.147 0.378 0.593 0.898 1.069 1.475 1.463 0.219 0.097 0.173 0.353 0.050 0.507-0.708-0.111-1.173-0.716-1.646-1.195-0.459 0.532-1.004 1.042-1.707 1.211-0.244 0.011-0.426-0.366-0.138-0.45 0.654-0.359 1.342-0.774 1.601-1.522-0.383-0.048-0.768-0.093-1.149-0.164 0.056 0.682-0.251 1.382-0.943 1.597-0.034 0.237-0.068 0.473-0.106 0.709-0.169-0.095-0.483-0.094-0.44-0.361-0.035-1.836-0.016-3.674-0.011-5.509-0.067-0.729 0.926-0.654 1.361-0.429 0.194 0.341 0.015 0.748-0.001 1.111M10.205 11.028c0.142-0.512 0.31-1.020 0.375-1.55-0.731-0.059-0.229 1.085-0.375 1.55M11.671 10.313c0.603-0.011 1.208-0.012 1.813 0.007-0.327-0.282-0.634-0.583-0.936-0.892-0.283 0.304-0.574 0.601-0.877 0.885M10.894 10.407c-0.224 0.776-0.172 1.587 0.22 2.299 0.025-0.459-0.019-0.928 0.087-1.377 0.244-0.298 0.697-0.164 1.032-0.228-0.001-0.054-0.005-0.161-0.007-0.213-0.5 0.017-0.952-0.169-1.333-0.481M11.678 11.665c0 0.324 0 0.649 0 0.973 0.185 0 0.37 0 0.555-0.001-0.001-0.323-0.003-0.648-0.004-0.971-0.184-0.001-0.367-0.001-0.551-0.001M12.768 11.674c0.003 0.32 0.004 0.642 0.005 0.964 0.217 0 0.434 0 0.652 0 0.008-0.322 0.013-0.644 0.020-0.964-0.225 0-0.45 0-0.677 0M10.215 11.874c-0.012 0.766-0.042 1.535 0.040 2.298 0.621-0.662 0.302-1.585-0.040-2.298z"></path>
<path fill="#0366b3" d="M6.284 11.318c0.741 0.097 1.645-0.244 2.281 0.227 0.21 0.581 0.121 1.266 0.032 1.87-0.42 0.623-1.264 0.198-1.805-0.027-0.003 0.381-0.007 0.762-0.012 1.144 0.617 0 1.24 0.084 1.852-0.017 0.304-0.424 0.114-0.99 0.248-1.468 0.265-0.251 0.504 0.095 0.476 0.361 0.048 0.591 0.025 1.484-0.692 1.653-0.806 0.094-1.621 0.001-2.431 0.009 0.016-1.251 0.034-2.502 0.051-3.752M6.818 11.853c-0.005 0.326-0.012 0.65-0.019 0.976 0.429 0.157 0.857 0.314 1.301 0.425 0.024-0.465 0.031-0.933 0.039-1.4-0.441-0.001-0.881-0.001-1.321-0.001z"></path>
</svg>
