<?xml version="1.0" encoding="utf-8"?>
<!-- Generated by IcoMoon.io -->
<!DOCTYPE svg PUBLIC "-//W3C//DTD SVG 1.1//EN" "http://www.w3.org/Graphics/SVG/1.1/DTD/svg11.dtd">
<svg version="1.1" xmlns="http://www.w3.org/2000/svg" xmlns:xlink="http://www.w3.org/1999/xlink" width="24" height="24" viewBox="0 0 24 24">
<path fill="#fff" d="M20.388 23.951c0.809 0 1.274-0.49 1.274-1.25v-21.371c0-0.76-0.466-1.25-1.274-1.25h-16.714c-0.809 0-1.274 0.49-1.274 1.25v21.371c0 0.76 0.466 1.25 1.274 1.25h16.714z"></path>
<path fill="#e22526" d="M20.388 23.412h-16.714c-0.441 0-0.735-0.27-0.735-0.711v-21.371c0-0.441 0.294-0.711 0.735-0.711h16.714c0.441 0 0.735 0.27 0.735 0.711v21.371c0 0.441-0.294 0.711-0.735 0.711zM20.633 1.33c0-0.147-0.098-0.221-0.245-0.221h-16.714c-0.147 0-0.245 0.074-0.245 0.221v21.371c0 0.147 0.098 0.221 0.245 0.221h16.714c0.147 0 0.245-0.073 0.245-0.221v-21.371z"></path>
<path fill="#e22526" d="M8.303 5.869h0.761l1.739 3.080v-3.080h0.739v4.826h-0.638l-1.862-3.297v3.297h-0.739v-4.826z"></path>
<path fill="#e22526" d="M13.17 10.254c-0.188-0.254-0.326-0.573-0.391-0.92-0.065-0.326-0.094-0.674-0.094-1.036 0-1.638 0.58-2.536 1.638-2.536 0.478 0 0.971 0.232 1.239 0.58 0.297 0.399 0.464 1.073 0.464 1.87 0 0.79-0.145 1.464-0.413 1.906-0.232 0.391-0.768 0.659-1.275 0.659-0.435 0-0.928-0.217-1.167-0.522zM15.293 8.29c0-1.188-0.312-1.79-0.913-1.79-0.304 0-0.602 0.174-0.725 0.428-0.145 0.283-0.232 0.804-0.232 1.333 0 0.413 0.065 0.899 0.159 1.21 0.109 0.362 0.384 0.565 0.754 0.565 0.638 0 0.957-0.58 0.957-1.747z"></path>
<path fill="#e22526" d="M4.106 14.281h1.202c0.485 0 0.84 0.434 0.84 1.021 0 0.479-0.209 0.88-0.525 1.004-0.096 0.039-0.226 0.062-0.384 0.079h-0.609v1.636h-0.525zM4.625 15.854h0.541c0.31 0.006 0.446-0.158 0.446-0.53 0-0.333-0.135-0.519-0.378-0.519h-0.609v1.049z"></path>
<path fill="#e22526" d="M7.075 14.264h0.525l0.919 3.757h-0.542l-0.271-1.049h-0.739l-0.271 1.049h-0.536zM7.583 16.435l-0.248-1.004-0.243 1.004h0.491z"></path>
<path fill="#e22526" d="M9.039 14.269h1.224c0.474 0 0.818 0.406 0.818 0.976 0 0.451-0.169 0.761-0.508 0.925l0.536 1.85h-0.553l-0.513-1.76h-0.468v1.76h-0.536zM10.133 15.725h0.051c0.237 0 0.378-0.169 0.378-0.457 0-0.316-0.13-0.479-0.372-0.479h-0.615v0.936h0.558z"></path>
<path fill="#e22526" d="M11.692 14.264h0.525v1.472l0.846-1.472h0.603l-0.739 1.32 0.823 2.437h-0.564l-0.615-1.822-0.355 0.62v1.201h-0.525v-3.757z"></path>
<path fill="#e22526" d="M14.269 18.020h0.536v-3.757h-0.536z"></path>
<path fill="#e22526" d="M15.366 14.264h0.536l0.998 2.234v-2.234h0.519l-0.011 3.757h-0.406l-1.111-2.454-0.011 2.454h-0.513v-3.757z"></path>
<path fill="#e22526" d="M20.010 16.227v0.795c0 0.666-0.384 1.094-0.964 1.094-0.35 0-0.694-0.197-0.84-0.491-0.158-0.316-0.254-0.874-0.254-1.472s0.113-1.213 0.282-1.517c0.141-0.265 0.474-0.446 0.807-0.446 0.53 0 0.965 0.434 0.965 0.976v0.034h-0.519c-0.006-0.293-0.175-0.479-0.44-0.479-0.214 0-0.372 0.135-0.44 0.378-0.073 0.259-0.135 0.728-0.135 1.049 0 0.288 0.045 0.688 0.113 0.976 0.073 0.322 0.22 0.474 0.463 0.474 0.265 0 0.434-0.192 0.434-0.491v-0.35l-0.406-0.006v-0.525h0.936z"></path>
</svg>
