<!-- Generated by IcoMoon.io -->
<svg version="1.1" xmlns="http://www.w3.org/2000/svg" width="24" height="24" viewBox="0 0 24 24">
<title>regulatory--maximum-speed-limit-led-60--g3</title>
<path fill="#000" d="M2.004 0h19.986c0.504 0.144 0.838 0.654 0.832 1.168 0.003 7.205 0 14.411 0.001 21.616 0.021 0.529-0.311 1.064-0.83 1.216h-19.983c-0.522-0.148-0.856-0.686-0.835-1.216 0.001-7.205-0.001-14.41 0.001-21.615-0.007-0.514 0.327-1.020 0.827-1.168M2.755 1.957c-0.46 0.393-0.484 1.193-0.022 1.593 0.46 0.41 1.119 0.437 1.622 0.769 0.316 0.191 0.268 0.72-0.072 0.859-0.511 0.242-1.131-0.064-1.335-0.571-0.239 0.089-0.479 0.175-0.716 0.267 0.327 1.169 2.014 1.508 2.826 0.655 0.423-0.474 0.405-1.31-0.096-1.724-0.375-0.317-0.862-0.439-1.313-0.607-0.158-0.064-0.329-0.136-0.422-0.287-0.105-0.175-0.006-0.42 0.177-0.499 0.384-0.164 0.912-0.041 1.088 0.367 0.231-0.076 0.463-0.152 0.693-0.231-0.259-1.025-1.699-1.223-2.429-0.592M6.398 1.647c-0.004 1.419-0.002 2.839-0 4.258 0.258 0.002 0.516 0.001 0.773 0.001 0-0.531-0-1.062 0-1.593 0.678-0.035 1.479 0.151 2.027-0.362 0.522-0.483 0.547-1.397 0.058-1.911-0.282-0.294-0.705-0.391-1.099-0.394-0.586 0-1.172-0.002-1.759 0.001M10.473 1.652c-0.005 1.417-0.002 2.835-0.001 4.253 0.974 0.002 1.948 0.001 2.922 0 0-0.246 0.002-0.492-0.002-0.737-0.715-0.006-1.43-0-2.145-0.003-0-0.362-0-0.725 0-1.087 0.413-0.001 0.827 0 1.241-0.001-0-0.245 0.001-0.49-0.002-0.735-0.413-0.006-0.825-0.001-1.238-0.003-0.001-0.316-0-0.632 0-0.948 0.672-0.001 1.343 0 2.016-0.001 0-0.246 0.002-0.492-0.002-0.737-0.929-0.005-1.858-0.003-2.787-0M14.394 1.653c-0.006 1.418-0.001 2.835-0.002 4.253 0.973 0 1.947 0 2.92-0 0.002-0.247 0.003-0.493-0.001-0.739-0.714-0.002-1.428 0-2.142-0.001-0.001-0.362-0-0.724-0-1.087 0.412-0.001 0.825 0 1.237-0.001 0-0.246 0.001-0.491-0.001-0.737-0.412-0.003-0.824 0-1.235-0.001-0.001-0.316-0-0.632-0-0.948 0.671-0.002 1.342 0.002 2.014-0.002 0.004-0.246 0.004-0.491 0-0.737-0.93-0.002-1.86-0.005-2.789 0.001M18.309 1.651c-0.005 1.418-0.004 2.836-0 4.254 0.807-0.041 1.684 0.146 2.423-0.27 0.717-0.402 1.008-1.287 0.939-2.070-0.038-0.688-0.393-1.396-1.037-1.698-0.726-0.341-1.551-0.18-2.324-0.217M4.233 6.567c-0.002 1.416-0.001 2.832-0 4.248 0.938 0.001 1.875 0 2.813 0 0-0.248 0-0.495 0-0.743-0.679-0.001-1.358 0-2.038-0.001-0.001-1.168 0.001-2.337-0.001-3.505-0.258-0.002-0.516-0.002-0.773 0M7.924 6.56c-0.001 1.418-0 2.837-0 4.255 0.257 0.001 0.515 0.001 0.772 0 0-1.419 0-2.837 0-4.256-0.257-0-0.515-0-0.772 0M9.956 6.56c-0.001 1.418-0.001 2.837 0 4.255 0.258 0.002 0.516 0.001 0.774 0.001-0.003-0.853 0.010-1.706-0.008-2.558 0.384 0.892 0.783 1.778 1.176 2.667 0.388-0.893 0.809-1.771 1.17-2.674-0.017 0.855-0.004 1.71-0.008 2.565 0.257 0 0.514 0 0.771 0 0-1.419 0-2.837 0-4.256-0.248-0-0.497-0-0.745 0-0.394 0.906-0.811 1.802-1.183 2.717-0.372-0.914-0.785-1.811-1.177-2.717-0.257-0-0.514-0.001-0.771 0M15.093 6.56c-0.001 1.418-0.001 2.837 0 4.256 0.257 0 0.514 0 0.771 0 0-1.418 0-2.837 0-4.256-0.257-0.001-0.514-0-0.771 0M16.855 6.557c-0.001 0.248-0 0.495 0 0.743 0.398 0 0.795-0 1.192 0 0.001 1.172-0 2.343 0.001 3.515 0.257 0 0.514 0 0.772 0 0-1.172-0-2.343 0-3.515 0.398-0.001 0.796 0 1.193-0 0.001-0.247 0.001-0.495 0-0.743-1.053 0-2.106-0-3.159 0M6.024 14.696c-1.016 1.030-1.634 2.425-1.77 3.862-0.096 0.967-0.010 1.985 0.441 2.86 0.322 0.633 0.868 1.155 1.533 1.413 1.273 0.489 2.869 0.237 3.803-0.799 1.093-1.177 1.096-3.185-0.007-4.356-1.057-1.186-3.083-1.26-4.261-0.219 0.453-1.726 1.975-3.045 3.688-3.444 0-0.377 0.001-0.754-0-1.131-1.286 0.254-2.511 0.87-3.428 1.814M15.858 12.903c-0.765 0.052-1.503 0.42-1.991 1.013-0.658 0.79-0.945 1.817-1.077 2.819-0.157 1.294-0.097 2.633 0.298 3.882 0.284 0.871 0.815 1.722 1.659 2.139 1.185 0.574 2.777 0.375 3.656-0.652 0.583-0.659 0.89-1.512 1.057-2.363 0.201-1.045 0.213-2.124 0.066-3.177-0.134-0.892-0.395-1.794-0.948-2.521-0.612-0.847-1.696-1.253-2.72-1.141z"></path>
<path fill="#000" d="M7.172 2.391c0.413 0.014 0.831-0.030 1.241 0.025 0.531 0.12 0.524 0.999 0 1.126-0.409 0.056-0.828 0.010-1.24 0.025-0.001-0.392-0.001-0.784-0-1.177z"></path>
<path fill="#000" d="M19.082 2.391c0.415 0.025 0.875-0.083 1.248 0.151 0.411 0.265 0.555 0.79 0.547 1.254 0.002 0.461-0.162 0.976-0.578 1.223-0.367 0.223-0.811 0.125-1.216 0.146-0-0.925 0-1.85 0-2.775z"></path>
<path fill="#000" d="M15.721 14.13c0.72-0.186 1.533 0.119 1.912 0.767 0.489 0.783 0.588 1.731 0.644 2.633 0.024 0.825-0.013 1.66-0.207 2.466-0.137 0.538-0.355 1.087-0.779 1.465-0.472 0.429-1.191 0.507-1.777 0.29-0.497-0.187-0.848-0.631-1.051-1.107-0.336-0.788-0.418-1.655-0.435-2.503-0.006-0.91 0.056-1.843 0.381-2.701 0.218-0.596 0.665-1.167 1.312-1.31z"></path>
<path fill="#000" d="M7.050 17.974c0.73-0.142 1.576 0.018 2.077 0.606 0.634 0.763 0.617 2.026-0.095 2.734-0.826 0.787-2.321 0.738-3.074-0.129-0.516-0.598-0.579-1.506-0.248-2.208 0.248-0.529 0.772-0.894 1.34-1.003z"></path>
<path fill="#fff" d="M2.755 1.957c0.73-0.632 2.17-0.434 2.429 0.592-0.23 0.078-0.462 0.155-0.693 0.231-0.176-0.408-0.704-0.531-1.088-0.367-0.182 0.078-0.282 0.324-0.177 0.499 0.093 0.15 0.264 0.223 0.422 0.287 0.451 0.168 0.938 0.29 1.313 0.607 0.501 0.413 0.519 1.249 0.096 1.724-0.811 0.853-2.499 0.513-2.826-0.655 0.238-0.092 0.477-0.178 0.716-0.267 0.205 0.507 0.824 0.813 1.335 0.571 0.339-0.139 0.388-0.668 0.072-0.859-0.503-0.331-1.163-0.359-1.622-0.769-0.462-0.4-0.439-1.2 0.022-1.593z"></path>
<path fill="#fff" d="M6.398 1.647c0.586-0.003 1.172-0.001 1.759-0.001 0.395 0.002 0.817 0.1 1.099 0.394 0.489 0.514 0.465 1.427-0.058 1.911-0.548 0.514-1.349 0.327-2.027 0.362-0.001 0.531 0 1.062-0 1.593-0.258 0-0.516 0.001-0.773-0.001-0.002-1.419-0.003-2.839 0-4.258M7.172 2.391c-0 0.392-0.001 0.784 0 1.177 0.413-0.015 0.831 0.031 1.24-0.025 0.524-0.127 0.531-1.006 0-1.126-0.41-0.056-0.828-0.011-1.241-0.025z"></path>
<path fill="#fff" d="M10.473 1.652c0.929-0.003 1.858-0.005 2.787 0 0.005 0.246 0.002 0.492 0.002 0.737-0.672 0.001-1.344-0-2.016 0.001-0 0.316-0.001 0.632 0 0.948 0.413 0.002 0.826-0.003 1.238 0.003 0.004 0.245 0.002 0.49 0.002 0.735-0.414 0.001-0.827 0-1.241 0.001-0 0.362-0 0.725 0 1.087 0.715 0.002 1.43-0.003 2.145 0.003 0.005 0.246 0.002 0.491 0.002 0.737-0.974 0-1.948 0.001-2.922-0-0.001-1.418-0.004-2.835 0.001-4.253z"></path>
<path fill="#fff" d="M14.394 1.653c0.93-0.006 1.86-0.003 2.789-0.001 0.003 0.246 0.004 0.491-0 0.737-0.671 0.005-1.343 0-2.014 0.002 0 0.316-0 0.632 0 0.948 0.412 0.001 0.824-0.001 1.235 0.001 0.002 0.246 0.001 0.491 0.001 0.737-0.412 0.001-0.824 0-1.237 0.001 0 0.362-0 0.724 0 1.087 0.714 0.002 1.428-0 2.142 0.001 0.004 0.246 0.003 0.493 0.001 0.739-0.974 0.001-1.947 0-2.92 0 0.001-1.417-0.004-2.835 0.002-4.253z"></path>
<path fill="#fff" d="M18.309 1.651c0.773 0.037 1.598-0.125 2.324 0.217 0.644 0.301 0.999 1.010 1.037 1.698 0.069 0.782-0.222 1.667-0.939 2.070-0.739 0.416-1.616 0.229-2.423 0.27-0.003-1.418-0.004-2.836 0-4.254M19.082 2.391c0 0.925-0 1.85 0 2.775 0.405-0.021 0.85 0.076 1.216-0.146 0.417-0.248 0.58-0.762 0.578-1.223 0.008-0.464-0.136-0.989-0.547-1.254-0.373-0.235-0.833-0.127-1.248-0.151z"></path>
<path fill="#fff" d="M4.233 6.567c0.258-0.002 0.516-0.002 0.773 0 0.003 1.168 0 2.337 0.001 3.505 0.679 0.001 1.358-0 2.038 0.001 0 0.247 0 0.495 0 0.743-0.938 0-1.875 0.001-2.813-0-0.001-1.416-0.001-2.832 0-4.248z"></path>
<path fill="#fff" d="M7.924 6.56c0.257-0 0.515-0 0.772 0 0 1.418 0 2.837 0 4.256-0.257 0-0.515 0.001-0.772-0 0-1.418-0.001-2.837 0-4.255z"></path>
<path fill="#fff" d="M9.956 6.56c0.257-0.001 0.514-0 0.771 0 0.391 0.906 0.804 1.803 1.177 2.717 0.372-0.915 0.789-1.811 1.183-2.717 0.248-0 0.497-0 0.745 0 0 1.418 0 2.837 0 4.256-0.257 0-0.514 0-0.771 0 0.003-0.855-0.009-1.71 0.008-2.565-0.361 0.903-0.782 1.782-1.17 2.674-0.393-0.889-0.792-1.775-1.176-2.667 0.018 0.852 0.005 1.705 0.008 2.558-0.258 0-0.516 0.001-0.774-0.001-0.001-1.418-0.001-2.836 0-4.255z"></path>
<path fill="#fff" d="M15.093 6.56c0.257-0 0.514-0.001 0.771 0 0 1.419 0 2.837 0 4.256-0.257 0-0.514 0-0.771 0-0.001-1.418-0.001-2.837 0-4.256z"></path>
<path fill="#fff" d="M16.855 6.557c1.053-0.001 2.106-0 3.159-0 0.001 0.248 0.001 0.496 0 0.743-0.398 0-0.795-0-1.193 0-0.001 1.172 0 2.343-0 3.515-0.257 0-0.515 0-0.772 0-0.001-1.172 0-2.343-0.001-3.515-0.398-0.001-0.795 0-1.192-0-0-0.248-0.001-0.495 0-0.743z"></path>
<path fill="#fff" d="M6.024 14.696c0.917-0.944 2.142-1.56 3.428-1.814 0.002 0.377 0.001 0.754 0 1.131-1.713 0.399-3.235 1.718-3.688 3.444 1.178-1.042 3.204-0.967 4.261 0.219 1.103 1.171 1.099 3.18 0.007 4.356-0.934 1.036-2.53 1.289-3.803 0.799-0.665-0.258-1.211-0.78-1.533-1.413-0.451-0.875-0.537-1.893-0.441-2.86 0.135-1.436 0.753-2.832 1.77-3.862M7.050 17.974c-0.568 0.109-1.092 0.474-1.34 1.003-0.331 0.702-0.268 1.61 0.248 2.208 0.753 0.867 2.247 0.916 3.074 0.129 0.712-0.708 0.728-1.972 0.095-2.734-0.5-0.587-1.347-0.748-2.077-0.606z"></path>
<path fill="#fff" d="M15.858 12.903c1.024-0.112 2.108 0.294 2.72 1.141 0.553 0.727 0.815 1.629 0.948 2.521 0.147 1.053 0.135 2.131-0.066 3.177-0.167 0.851-0.474 1.704-1.057 2.363-0.879 1.027-2.471 1.226-3.656 0.652-0.844-0.418-1.375-1.268-1.659-2.139-0.395-1.249-0.455-2.588-0.298-3.882 0.132-1.002 0.419-2.029 1.077-2.819 0.488-0.594 1.226-0.961 1.991-1.013M15.721 14.13c-0.647 0.143-1.094 0.714-1.312 1.31-0.325 0.859-0.387 1.791-0.381 2.701 0.016 0.848 0.099 1.715 0.435 2.503 0.203 0.476 0.554 0.921 1.051 1.107 0.585 0.217 1.305 0.139 1.777-0.29 0.424-0.378 0.642-0.927 0.779-1.465 0.194-0.806 0.231-1.641 0.207-2.466-0.056-0.902-0.154-1.85-0.644-2.633-0.379-0.648-1.192-0.953-1.912-0.767z"></path>
</svg>
