<svg xmlns="http://www.w3.org/2000/svg" width="24" height="24">
    <path d="M3.47 0h17.255c.56.181 1.024.683.996 1.297.011 7.101.002 14.203.004 21.304.038.591-.337 1.167-.912 1.332l-.27-.084c.591-.107 1.076-.628 1.018-1.249-.003-7.1.005-14.2-.004-21.3.029-.626-.535-1.169-1.156-1.136C14.901.155 9.4.162 3.9.16c-.475-.027-.97.226-1.149.681-.143.403-.078.84-.091 1.259.002 6.957.001 13.914 0 20.872l-.16-.177V.986A1.61 1.61 0 0 1 3.47 0z"/>
    <path d="M3.537.451C9.121.362 14.717.439 20.306.413c.512-.063 1.031.347 1 .881.009 7.103.002 14.206.004 21.309.057.511-.379 1.007-.902.963-5.539 0-11.077.002-16.616-.001-.514.034-.935-.458-.88-.959L2.911 1.394c-.038-.411.211-.844.626-.943zm.078.464c-.196.068-.244.297-.235.482v21.206c-.038.249.138.527.412.494 5.539.005 11.078.005 16.617 0 .281.037.476-.233.433-.495-.003-7.102.007-14.205-.005-21.307.031-.357-.357-.453-.637-.417C14.673.906 9.138.832 3.615.915z"/>
    <path d="M5.531 1.901l.662-.001c.001.554-.003 1.109.003 1.664.412-.552.813-1.111 1.224-1.663l.812-.001c-.404.557-.814 1.11-1.214 1.669.474.854.952 1.706 1.422 2.563l-.754.002c-.369-.659-.732-1.32-1.101-1.979-.585.506-.35 1.3-.392 1.976a70.65 70.65 0 0 0-.651.008c-.024-1.412-.003-2.825-.011-4.238zM9.239 1.905c.816-.003 1.632-.002 2.448-.001l-.001.667H9.902v1.053l1.364.001v.661l-1.364.001v1.192c.639-.001 1.278-.002 1.917 0v.66c-.859.002-1.718 0-2.577.001-.006-1.412 0-2.823-.003-4.235zM12.615 1.904c.816-.001 1.632-.001 2.448.001l-.001.665-1.784.001v1.053h1.361l.002.662-1.363.001v1.191c.639 0 1.278-.001 1.917.001v.66h-2.58V1.904zM15.99 1.9c.574.007 1.148-.015 1.721.009.577.019 1.09.512 1.123 1.091.062.581-.374 1.157-.946 1.263-.41.04-.824.009-1.236.017-.002.618.001 1.236-.003 1.854l-.659-.001V1.9zm.662.662v1.056c.38-.006.764.029 1.142-.019.454-.101.507-.802.079-.977-.393-.12-.816-.042-1.221-.06zM6.534 8.639c1.691-.199 3.383-.388 5.075-.573.407-.112.826.435.521.764-.357.362-.773.659-1.146 1.005a1501.66 1501.66 0 0 1 6.848 3.961c-.391.679-.786 1.355-1.175 2.035-2.286-1.313-4.568-2.635-6.854-3.949-.123.524-.164 1.069-.334 1.581-.205.34-.769.232-.884-.133-.688-1.562-1.363-3.129-2.051-4.691zM6.133 17.789l.68-.001v3.555h1.941l.006.671c-.876.018-1.752.008-2.628.006.003-1.411 0-2.821.001-4.231zM9.391 17.788c.847-.001 1.695-.001 2.542.001-.001.227-.006.454-.01.682-.617-.007-1.234-.003-1.851-.003l-.001 1.015c.428 0 .856-.001 1.283.004l-.001.676h-1.281c-.001.393-.002.786 0 1.179.646.002 1.293.001 1.939.001l.002.68H9.391v-4.235zM12.736 17.789c.875-.002 1.749-.002 2.624 0-.001.226-.001.452 0 .678l-1.943.001-.001 1.015 1.271.001-.001.679h-1.269l-.001 1.862a77.033 77.033 0 0 1-.682-.009c.006-1.409.001-2.818.002-4.227zM15.613 17.789c.873-.002 1.747-.002 2.62 0l.007.671c-.325.008-.65.009-.975.009 0 1.183-.003 2.365.001 3.548-.227.004-.454.006-.681.008v-3.557h-.972v-.679z"/>
    <path fill="#fff" d="M2.751.841C2.93.386 3.425.133 3.9.16 9.4.162 14.901.155 20.401.164c.621-.033 1.185.51 1.156 1.136.009 7.1.001 14.2.004 21.3.058.621-.427 1.142-1.018 1.249-5.605-.052-11.215-.032-16.823-.014-.508-.037-.882-.409-1.06-.863.001-6.958.002-13.915 0-20.872.013-.419-.052-.856.091-1.259zm.786-.39c-.415.099-.664.532-.626.943l.001 21.212c-.055.501.366.993.88.959 5.539.003 11.077.001 16.616.001.523.044.959-.452.902-.963-.002-7.103.005-14.206-.004-21.309.031-.534-.488-.944-1-.881C14.717.439 9.121.362 3.537.451z"/>
    <path fill="#fff" d="M3.615.915C9.138.832 14.673.906 20.2.878c.28-.036.668.06.637.417.012 7.102.002 14.205.005 21.307.043.262-.152.532-.433.495-5.539.005-11.078.005-16.617 0-.274.033-.45-.245-.412-.494V1.397c-.009-.185.039-.414.235-.482zm1.916.986c.008 1.413-.013 2.826.011 4.238.217-.004.434-.006.651-.008.042-.676-.193-1.47.392-1.976.369.659.732 1.32 1.101 1.979l.754-.002c-.47-.857-.948-1.709-1.422-2.563.4-.559.81-1.112 1.214-1.669l-.812.001c-.411.552-.812 1.111-1.224 1.663-.006-.555-.002-1.11-.003-1.664l-.662.001zm3.708.004c.003 1.412-.003 2.823.003 4.235.859-.001 1.718.001 2.577-.001v-.66c-.639-.002-1.278-.001-1.917 0a236.81 236.81 0 0 1 0-1.192l1.364-.001v-.661l-1.364-.001V2.571h1.784l.001-.667c-.816-.001-1.632-.002-2.448.001zm3.376-.001v4.235h2.58v-.66c-.639-.002-1.278-.001-1.917-.001V4.287l1.363-.001-.002-.662h-1.361V2.571l1.784-.001.001-.665c-.816-.002-1.632-.002-2.448-.001zM15.99 1.9v4.233l.659.001c.004-.618.001-1.236.003-1.854.412-.008.826.023 1.236-.017.572-.106 1.008-.682.946-1.263-.033-.579-.546-1.072-1.123-1.091-.573-.024-1.147-.002-1.721-.009zM6.534 8.639c.688 1.562 1.363 3.129 2.051 4.691.115.365.679.473.884.133.17-.512.211-1.057.334-1.581 2.286 1.314 4.568 2.636 6.854 3.949.389-.68.784-1.356 1.175-2.035a1501.66 1501.66 0 0 0-6.848-3.961c.373-.346.789-.643 1.146-1.005.305-.329-.114-.876-.521-.764-1.692.185-3.384.374-5.075.573zm-.401 9.15c-.001 1.41.002 2.82-.001 4.231.876.002 1.752.012 2.628-.006l-.006-.671H6.813v-3.555l-.68.001zm3.258-.001v4.235h2.622l-.002-.68c-.646 0-1.293.001-1.939-.001-.002-.393-.001-.786 0-1.179h1.281l.001-.676c-.427-.005-.855-.004-1.283-.004l.001-1.015c.617 0 1.234-.004 1.851.003.004-.228.009-.455.01-.682-.847-.002-1.695-.002-2.542-.001zm3.345.001c-.001 1.409.004 2.818-.002 4.227.227.004.454.007.682.009l.001-1.862h1.269l.001-.679-1.271-.001.001-1.015 1.943-.001a76.614 76.614 0 0 1 0-.678c-.875-.002-1.749-.002-2.624 0zm2.877 0v.679h.972v3.557c.227-.002.454-.004.681-.008-.004-1.183-.001-2.365-.001-3.548.325 0 .65-.001.975-.009l-.007-.671c-.873-.002-1.747-.002-2.62 0z"/>
    <path fill="#fff" d="M16.652 2.562c.405.018.828-.06 1.221.06.428.175.375.876-.079.977-.378.048-.762.013-1.142.019V2.562z"/>
    <path fill="#020202" opacity=".87" d="M2.5 22.795l.16.177c.178.454.552.826 1.06.863.454.089.92.042 1.379.037 5.187.018 10.376-.002 15.563.014l.151.047-.169.067H3.564a1.525 1.525 0 0 1-1.064-.958v-.247z"/>
</svg>
