<?xml version="1.0" encoding="utf-8"?>
<!-- Generated by IcoMoon.io -->
<!DOCTYPE svg PUBLIC "-//W3C//DTD SVG 1.1//EN" "http://www.w3.org/Graphics/SVG/1.1/DTD/svg11.dtd">
<svg version="1.1" xmlns="http://www.w3.org/2000/svg" xmlns:xlink="http://www.w3.org/1999/xlink" width="24" height="24" viewBox="0 0 24 24">
<path fill="#e41408" d="M11.442 0h1.010c2.533 0.114 5.026 1.025 7.002 2.618 2.089 1.661 3.601 4.034 4.202 6.637 0.649 2.747 0.289 5.719-1.009 8.228-1.477 2.892-4.177 5.132-7.3 6.031-0.938 0.281-1.913 0.419-2.888 0.485h-0.954c-2.694-0.122-5.346-1.146-7.379-2.926-2.401-2.056-3.918-5.095-4.127-8.249v-1.589c0.185-3.234 1.766-6.35 4.255-8.423 1.999-1.702 4.571-2.681 7.187-2.814M6.295 5.017c4.224 4.214 8.432 8.444 12.661 12.654 1.505-1.825 2.224-4.264 1.967-6.613-0.228-2.312-1.41-4.507-3.203-5.983-1.433-1.2-3.25-1.927-5.114-2.051-2.256-0.169-4.562 0.557-6.311 1.993M3.161 13.819c0.469 2.335 1.922 4.448 3.925 5.735 1.72 1.129 3.841 1.621 5.884 1.387 1.722-0.18 3.379-0.889 4.715-1.987-4.22-4.224-8.442-8.448-12.67-12.664-1.711 2.063-2.408 4.908-1.854 7.529z"></path>
<path fill="#19408b" d="M6.295 5.017c1.748-1.436 4.055-2.162 6.311-1.993 1.865 0.124 3.682 0.851 5.114 2.051 1.793 1.476 2.975 3.671 3.203 5.983 0.257 2.35-0.462 4.788-1.967 6.613-4.229-4.21-8.437-8.44-12.661-12.654z"></path>
<path fill="#19408b" d="M3.161 13.819c-0.554-2.621 0.143-5.466 1.854-7.529 4.228 4.216 8.449 8.44 12.67 12.664-1.336 1.098-2.993 1.807-4.715 1.987-2.042 0.234-4.164-0.258-5.884-1.387-2.003-1.286-3.456-3.4-3.925-5.735z"></path>
</svg>
