<svg xmlns="http://www.w3.org/2000/svg" width="24" height="24">
    <path fill="#fafbfb" d="M11.363 0h.082l.005.032.044-.032h.285l.023.001.013-.001h.653c.09.163.165.163.226 0h.064c.778.269 1.632.227 2.41.519 3.88 1.075 6.953 4.337 8.092 8.159.191.966.33 1.95.503 2.906v.061c-.185.078-.185.146 0 .203v.072c-.17.273-.109.611-.132.916-.206 3.807-2.438 7.414-5.692 9.377-1.67 1.122-3.681 1.536-5.641 1.787h-1.016l-.045-.011.015.011h-.153c-.791-.22-1.631-.213-2.407-.5C4.364 22.391.981 18.508.256 14.13c-.16-.557-.057-1.154-.255-1.7v-.091l.001-.026-.001-.015v-.158c.187-.107.187-.178 0-.214v-.012c.204-.493.089-1.034.165-1.548.381-2.628 1.681-5.124 3.6-6.96C5.745 1.337 8.587.342 11.364.001zm-.864.526a11.883 11.883 0 0 0-5.298 2.063C1.956 4.905.022 8.973.382 12.955c.258 4.33 3.216 8.395 7.3 9.895 3.41 1.338 7.482.87 10.477-1.244 3.138-2.154 5.18-5.897 5.084-9.724.057-3.273-1.488-6.474-3.92-8.634-2.357-2.137-5.68-3.122-8.824-2.722z"/>
    <path fill="#ca4c32" d="M10.499.526c3.144-.4 6.467.585 8.824 2.722 2.432 2.16 3.977 5.361 3.92 8.634.096 3.827-1.946 7.57-5.084 9.724-2.995 2.114-7.067 2.582-10.477 1.244-4.084-1.499-7.042-5.565-7.3-9.895-.36-3.983 1.574-8.051 4.819-10.366C6.765 1.478 8.6.781 10.499.526zM5.968 4.773c1.635 1.684 3.32 3.321 4.977 4.983-.16.36-.299.728-.478 1.08-.301.067-.606.118-.895.226C7.982 9.353 6.28 7.75 4.626 6.103a9.451 9.451 0 0 0-2.085 5.661c-.122 3.147 1.46 6.356 4.132 8.059 3.283 2.249 7.989 1.998 11.02-.574a39.735 39.735 0 0 0-.595-.638l-.122.023c.754-.162 1.359-.797 1.543-1.537l-.075.28c.17.179.35.35.545.503 1.062-1.295 1.714-2.904 1.951-4.556.53-3.462-1.048-7.19-3.994-9.119-3.269-2.254-7.96-2.008-10.978.569z"/>
    <path fill="#feffff" d="M5.968 4.773c3.018-2.577 7.71-2.823 10.978-.569 2.947 1.928 4.524 5.657 3.994 9.119-.236 1.653-.889 3.261-1.951 4.556a4.892 4.892 0 0 1-.545-.503l.075-.28c.614-1.684-1.268-3.408-2.894-2.679l-.278-.248c1.368-.61 3.005.189 3.469 1.584.091-.526.11-1.082.365-1.565.251-.561.953-.888.847-1.585.252-1.71 0-3.413-.176-5.115-.888-.056-1.539.662-2.019 1.314-.574 1.076.265 2.606-.808 3.474-.779.422-1.798.419-2.364 1.208-.171-.138-.34-.277-.51-.416.101-.82-.05-1.669-.5-2.368-.38-.615-.528-1.539-1.338-1.741-.6-.184-1.152.265-1.369.796-1.657-1.662-3.342-3.299-4.977-4.983zm5.485 2.176c-.674.304-.668 1.377-.008 1.691.568.353 1.398-.135 1.358-.803.086-.683-.756-1.251-1.35-.888zM2.541 11.764a9.447 9.447 0 0 1 2.085-5.661C6.28 7.75 7.982 9.354 9.572 11.062a11.18 11.18 0 0 1-1.099.425c.201.877 0 1.724-.409 2.512-.834-.302-1.834-.266-2.534.329-1.002.781-1.12 2.4-.254 3.326.91 1.097 2.817.947 3.61-.211.747-.981.455-2.423-.45-3.197l.201-.335c.456.397.917.789 1.371 1.19.017.441-.017.888.069 1.322.341.271.778.4 1.126.67.456.265.891-.156 1.116-.524l.2-.017.135.402c.356-.002.713-.004 1.07-.002.076-.094.152-.188.229-.28l.246.006c.198 1.274 1.476 2.304 2.777 1.957l.122-.023c.201.211.399.423.595.638-3.031 2.572-7.737 2.823-11.02.574-2.672-1.703-4.255-4.912-4.132-8.059z"/>
    <path fill="#feffff" d="M9.105 11.775l.377.278c.209-.07.418-.141.633-.192l.215-.043c.203.178.391.373.594.552-.519.473-1.189.558-1.863.482.102-.353.16-.719.044-1.078zM8.808 13.232c.38-.011.76-.01 1.142-.007.002.441.004.883-.015 1.325-.424-.298-.816-.637-1.229-.949l.102-.368zM12.292 13.883l.081-.002c.46.457.937.901 1.351 1.402-.094.314-.182.629-.272.943a40.23 40.23 0 0 1-1.302-.055c.214-.14.441-.265.631-.44-.057-.637-.374-1.22-.488-1.849zM11.154 14.108c.473.358.461 1.079.718 1.591-.261.006-.524.017-.785.032-.017-.542-.017-1.086.068-1.623zM5.594 14.98c.509-.707 1.466-.822 2.256-.615-.006.791-1.047 1.264-.864 2.046.453-.563.792-1.207 1.211-1.795.712.557.89 1.66.391 2.411-.485.764-1.568 1.094-2.37.633-.979-.449-1.282-1.843-.624-2.679zM15.904 14.828c1.324-.457 2.664.888 2.177 2.211-.811-.649-1.446-1.479-2.177-2.211zM14.038 15.501c.096.166.191.334.271.51l-.049.228-.418.013c.058-.252.118-.504.196-.751zM11.161 16.029l.361-.153.37.154.171.368c-.078.648-.978.662-1.074.015l.172-.385zM14.716 16.691c.198.025.418-.023.6.075.513.455.975.964 1.44 1.467-.953.13-1.973-.542-2.04-1.542z"/>
    <path fill="#1a1e24" d="M11.453 6.949c.594-.364 1.435.204 1.35.888.04.668-.79 1.156-1.358.803-.659-.314-.665-1.387.008-1.691z"/>
    <path fill="#161a1d" d="M17.834 8.802c.48-.652 1.131-1.37 2.019-1.314.176 1.701.428 3.405.176 5.115.106.697-.596 1.024-.847 1.585-.254.482-.273 1.038-.365 1.565-.465-1.395-2.102-2.193-3.469-1.584-.501.241-.902.645-1.218 1.095l-.258-.431c.183-.491.451-.949.79-1.349.567-.789 1.585-.787 2.364-1.208 1.073-.869.234-2.398.808-3.474z"/>
    <path fill="#191d21" d="M10.945 9.756c.216-.531.769-.98 1.369-.796.81.202.958 1.125 1.338 1.741.45.699.601 1.548.5 2.368-.04.241-.093.481-.145.72-.545.029-1.091.042-1.634.093l-.081.002c.114.629.431 1.212.488 1.849-.19.175-.417.299-.631.44.434.025.867.044 1.302.055.09-.315.178-.63.272-.943.046-.151.095-.302.147-.45.086.144.171.288.258.431a3.243 3.243 0 0 0-.091.238 9.745 9.745 0 0 0-.196.751l.418-.013.049-.228c.114-.731.653-1.306 1.316-1.594 1.627-.728 3.509.996 2.894 2.679-.184.74-.789 1.376-1.543 1.537-1.301.347-2.578-.683-2.777-1.957l-.246-.006-.229.28c-.358-.001-.714 0-1.07.002l-.135-.402-.2.017c-.225.368-.659.789-1.116.524-.348-.27-.785-.399-1.126-.67-.086-.435-.052-.882-.069-1.322-.454-.402-.915-.794-1.371-1.19l-.201.335c.905.775 1.198 2.216.45 3.197-.792 1.158-2.699 1.308-3.61.211-.866-.926-.747-2.545.254-3.326.7-.595 1.7-.631 2.534-.329.409-.788.61-1.635.409-2.512.375-.118.738-.27 1.099-.425.289-.108.594-.159.895-.226.178-.352.317-.72.478-1.08zm-.831 2.105c-.215.051-.424.122-.633.192l-.377-.278c.116.359.058.725-.044 1.078.674.076 1.344-.01 1.863-.482.223.032.466-.08.693-.114-.075-.311-.15-.623-.221-.934-.39.257-.827.43-1.281.538zm-1.306 1.371l-.102.368c.412.312.804.651 1.229.949.019-.442.018-.884.015-1.325-.381-.002-.762-.004-1.142.007zm2.346.876c-.084.537-.084 1.081-.068 1.623.261-.015.524-.026.785-.032-.257-.512-.245-1.233-.718-1.591zm-5.56.872c-.658.836-.355 2.23.624 2.679.802.461 1.886.131 2.37-.633.499-.751.321-1.853-.391-2.411-.418.588-.758 1.232-1.211 1.795-.183-.782.858-1.255.864-2.046-.79-.207-1.748-.091-2.256.615zm10.31-.152l-.029-.03c-.625.273-1.099.816-1.186 1.507.631.046 1.268.04 1.894.149l.03.326c-.431.045-.865.012-1.297-.013-.182-.097-.402-.05-.6-.075.067 1 1.087 1.672 2.04 1.542.605-.173 1.117-.589 1.325-1.194.487-1.324-.853-2.669-2.177-2.211zm-4.743 1.201l-.172.385c.096.646.996.632 1.074-.015a65.125 65.125 0 0 0-.171-.368l-.37-.154-.361.153z"/>
    <path fill="#da4d2d" d="M10.114 11.861a4.021 4.021 0 0 0 1.281-.538c.071.311.146.623.221.934-.227.034-.469.146-.693.114-.203-.179-.391-.374-.594-.552l-.215.043z"/>
    <path fill="#be462c" d="M14.152 13.068c.17.139.339.278.51.416a4.532 4.532 0 0 0-.79 1.349c-.052.149-.101.299-.147.45-.413-.501-.891-.945-1.351-1.402.543-.051 1.088-.064 1.634-.093.052-.239.105-.479.145-.72z"/>
    <path fill="#b94734" d="M14.129 15.264c.316-.45.716-.854 1.218-1.095l.278.248c-.663.289-1.202.864-1.316 1.594a6.062 6.062 0 0 0-.271-.51c.027-.081.058-.159.091-.238z"/>
    <path fill="#dc4d2d" d="M14.69 16.305c.087-.69.561-1.233 1.186-1.507l.029.03c.731.732 1.365 1.562 2.177 2.211-.208.605-.72 1.021-1.325 1.194-.465-.504-.927-1.012-1.44-1.467.432.025.866.058 1.297.013-.007-.081-.021-.245-.03-.326-.626-.108-1.263-.102-1.894-.149z"/>
</svg>
