<!-- Generated by IcoMoon.io -->
<svg version="1.1" xmlns="http://www.w3.org/2000/svg" width="24" height="24" viewBox="0 0 24 24">
<title>regulatory--no-pedestrians--g1</title>
<path fill="#da251d" d="M10.557 0h2.901c1.316 0.245 2.641 0.551 3.827 1.194 3.665 1.698 6.175 5.411 6.715 9.377v2.871c-0.249 1.321-0.553 2.65-1.195 3.844-1.699 3.663-5.407 6.175-9.373 6.715h-2.872c-1.321-0.249-2.652-0.552-3.844-1.195-3.664-1.699-6.176-5.408-6.716-9.374v-2.871c0.545-3.962 3.053-7.668 6.715-9.365 1.192-0.643 2.522-0.954 3.843-1.195M10.955 1.852c-4.84 0.359-9.105 4.466-9.493 9.33-0.331 3.174 0.92 6.445 3.283 8.586 1.992 1.852 4.726 2.893 7.448 2.798 3.895-0.009 7.65-2.414 9.315-5.931 1.694-3.436 1.218-7.795-1.182-10.782-2.174-2.821-5.833-4.362-9.37-4.002z"></path>
<path fill="#fff" d="M10.955 1.852c3.537-0.361 7.196 1.181 9.37 4.002 2.4 2.987 2.876 7.346 1.182 10.782-1.665 3.517-5.42 5.922-9.315 5.931-2.722 0.095-5.456-0.946-7.448-2.798-2.363-2.141-3.614-5.412-3.283-8.586 0.389-4.864 4.654-8.971 9.493-9.33M12.092 2.758c-0.51 0.015-1.172 0.112-1.345 0.681-0.384 1.283 1.277 2.694 2.46 2.068 0.851-0.895 0.271-2.854-1.115-2.749M10.782 5.904c-0.882 0.696-1.726 1.441-2.599 2.15-0.29 0.219-0.548 0.536-0.521 0.923 0.010 1.013 0.008 2.030 0.095 3.040 0.232 0.467 1.078 0.313 1.14-0.208 0.105-0.829-0.094-1.681 0.050-2.5 0.494-0.67 1.256-1.077 1.884-1.611 0.003 1.328-0.045 2.657-0.026 3.985 0.010 0.438 0.468 0.633 0.756 0.883 1.010 0.829 2.155 1.514 3.065 2.453 0.643 1.38 0.999 2.888 1.638 4.269 0.461 0.778 1.787 0.186 1.482-0.68-0.477-1.49-1.087-2.947-1.663-4.401-0.847-0.997-2.010-1.666-2.949-2.572-0.037-1.443-0.083-2.884-0.089-4.328 0.076-0.56-0.488-0.851-0.871-1.128-0.407-0.227-0.945-0.635-1.391-0.275M13.539 8.945c0.008 0.648 0.014 1.298 0.037 1.947 0.621 0.465 1.165 1.042 1.838 1.432 0.728 0.326 1.224-0.747 0.689-1.215-0.848-0.728-1.706-1.448-2.564-2.164M10.804 12.839c-1.018 1.684-2.029 3.37-3.049 5.053-0.221 0.373-0.581 0.759-0.443 1.231 0.012 0.683 1.086 1.020 1.432 0.402 1.142-1.914 2.269-3.837 3.387-5.766-0.444-0.305-0.875-0.626-1.327-0.919z"></path>
<path fill="#1f1a17" d="M12.092 2.758c1.386-0.105 1.966 1.855 1.115 2.749-1.183 0.626-2.844-0.784-2.46-2.068 0.173-0.57 0.836-0.666 1.345-0.681z"></path>
<path fill="#1f1a17" d="M10.782 5.904c0.447-0.361 0.984 0.047 1.391 0.275 0.384 0.277 0.947 0.569 0.871 1.128 0.005 1.444 0.051 2.885 0.089 4.328 0.939 0.906 2.102 1.575 2.949 2.572 0.576 1.454 1.186 2.911 1.663 4.401 0.304 0.866-1.022 1.458-1.482 0.68-0.639-1.381-0.995-2.889-1.638-4.269-0.91-0.938-2.055-1.624-3.065-2.453-0.287-0.25-0.746-0.445-0.756-0.883-0.019-1.328 0.028-2.657 0.026-3.985-0.628 0.534-1.39 0.941-1.884 1.611-0.144 0.819 0.055 1.671-0.050 2.5-0.062 0.521-0.907 0.675-1.14 0.208-0.087-1.010-0.085-2.028-0.095-3.040-0.027-0.386 0.231-0.703 0.521-0.923 0.873-0.708 1.717-1.454 2.599-2.15z"></path>
<path fill="#1f1a17" d="M13.539 8.945c0.859 0.716 1.716 1.436 2.564 2.164 0.535 0.468 0.039 1.541-0.689 1.215-0.673-0.39-1.217-0.968-1.838-1.432-0.023-0.649-0.030-1.299-0.037-1.947z"></path>
<path fill="#1f1a17" d="M10.804 12.839c0.452 0.293 0.883 0.613 1.327 0.919-1.118 1.929-2.245 3.853-3.387 5.766-0.347 0.619-1.421 0.281-1.432-0.402-0.139-0.472 0.222-0.857 0.443-1.231 1.020-1.683 2.032-3.369 3.049-5.053z"></path>
</svg>
