<svg xmlns="http://www.w3.org/2000/svg" width="24" height="24">
    <path fill="#d40000" d="M11 0h1.968c1.45.208 2.903.518 4.224 1.174 3.805 1.783 6.413 5.671 6.808 9.834v1.948c-.298 2.722-1.414 5.375-3.341 7.344-1.998 2.117-4.784 3.378-7.66 3.701H11.03c-4.104-.388-7.957-2.918-9.769-6.647C.559 15.998.213 14.498 0 12.996v-1.958C.17 9.923.355 8.8.778 7.748c1.294-3.472 4.29-6.26 7.86-7.266.772-.234 1.572-.335 2.363-.48zm-.264 2.484c-3.584.426-6.769 3.078-7.858 6.515-.9 2.704-.514 5.803 1.048 8.191 1.847 2.92 5.356 4.686 8.804 4.38 3.592-.23 6.902-2.69 8.197-6.043 1.064-2.66.848-5.792-.583-8.276-1.849-3.344-5.825-5.32-9.608-4.766z"/>
    <path fill="#fff" d="M10.736 2.484c3.784-.553 7.759 1.422 9.608 4.766 1.432 2.484 1.648 5.616.583 8.276-1.295 3.353-4.606 5.813-8.197 6.043-3.449.306-6.958-1.46-8.804-4.38-1.561-2.388-1.948-5.488-1.048-8.191 1.088-3.437 4.273-6.089 7.858-6.515zM4.948 7.8c-.326.316-.647.636-.965.96l.962.96.901-.001a66.55 66.55 0 0 0-.551-.641c.63.004 1.259.002 1.889.002v-.641c-.631 0-1.262-.001-1.894.001l.559-.641h-.902zm13.202.001l.558.64c-.63-.002-1.261-.001-1.892-.001v.641c.63 0 1.259.001 1.889-.002a68.59 68.59 0 0 0-.551.641l.901.001c.322-.319.642-.64.962-.96a58.22 58.22 0 0 0-.965-.96l-.902.001zM3.985 10.633l-.001.998 1.439.001c.002 1.643 0 3.284 0 4.926h.984c.002-1.642-.001-3.283.002-4.926l1.428-.001-.001-.998a1647.8 1647.8 0 0 0-3.851 0zm3.917 5.926c.349.001.698.001 1.048-.001.128-.451.265-.9.401-1.349h1.925c.143.449.286.898.421 1.349.356.002.713.002 1.069.001-.643-1.976-1.289-3.952-1.937-5.926l-1.042-.002a1849.49 1849.49 0 0 0-1.885 5.928zm5.47-5.926c.503.947 1.012 1.89 1.519 2.834-.552 1.033-1.121 2.058-1.675 3.09.389.002.778.002 1.168.002.359-.665.716-1.331 1.078-1.993.392.647.724 1.328 1.087 1.993.392 0 .785 0 1.178-.002-.553-1.032-1.123-2.056-1.674-3.089.505-.946 1.016-1.888 1.518-2.836-.378-.001-.756-.002-1.134-.001-.328.584-.637 1.178-.966 1.763-.325-.586-.64-1.176-.964-1.762-.378-.002-.757-.002-1.135 0zm5.24-.001c-.002 1.976-.001 3.952-.001 5.928l.973-.001c0-1.975.001-3.95-.001-5.926l-.971-.001z"/>
    <path fill="#fff" d="M10.302 12.037c.224.721.442 1.445.661 2.168-.44.004-.881.004-1.321 0 .217-.724.431-1.448.66-2.168z"/>
    <path d="M4.948 7.8h.902l-.559.641c.631-.002 1.262-.001 1.894-.001v.641c-.63 0-1.259.001-1.889-.002.185.212.368.426.551.641l-.901.001c-.322-.319-.642-.64-.962-.96.318-.324.638-.644.965-.96zM18.15 7.801l.902-.001c.325.316.647.636.965.96l-.962.96-.901-.001c.182-.215.366-.428.551-.641-.63.004-1.259.002-1.889.002v-.641c.631 0 1.262-.001 1.892.001l-.558-.64zM3.985 10.633a1647.8 1647.8 0 0 1 3.851 0l.001.998-1.428.001c-.004 1.643 0 3.284-.002 4.926h-.984c0-1.642.002-3.283 0-4.926l-1.439-.001.001-.998zM7.902 16.559a1849.49 1849.49 0 0 1 1.885-5.928l1.042.002c.648 1.974 1.294 3.949 1.937 5.926-.356.001-.713.001-1.069-.001-.136-.451-.278-.9-.421-1.349H9.351c-.136.449-.272.898-.401 1.349-.349.002-.698.002-1.048.001zm2.4-4.522c-.229.72-.443 1.445-.66 2.168.44.004.881.004 1.321 0-.22-.724-.437-1.447-.661-2.168zM13.372 10.633c.378-.002.757-.002 1.135 0 .324.586.638 1.176.964 1.762.329-.584.638-1.178.966-1.763.378-.001.756 0 1.134.001-.502.948-1.013 1.89-1.518 2.836.551 1.033 1.121 2.057 1.674 3.089-.394.002-.786.002-1.178.002-.364-.665-.695-1.346-1.087-1.993-.361.662-.719 1.328-1.078 1.993-.39 0-.779 0-1.168-.002.554-1.032 1.123-2.057 1.675-3.09-.508-.944-1.016-1.888-1.519-2.834zM18.612 10.632l.971.001c.002 1.975.001 3.95.001 5.926l-.973.001c0-1.976-.001-3.952.001-5.928z"/>
</svg>
