<!-- Generated by IcoMoon.io -->
<svg version="1.1" xmlns="http://www.w3.org/2000/svg" width="18" height="24" viewBox="0 0 18 24">
<title>regulatory--pedestrians-push-button--g1</title>
<path fill="#231f20" d="M1.609 0h15.184c0.511 0.205 0.997 0.513 1.265 1.012v22.23c-0.257 0.287-0.543 0.55-0.869 0.757h-16.109c-0.537-0.403-0.922-0.977-1.080-1.631v-20.508c0.155-0.855 0.737-1.645 1.609-1.861M1.675 0.389c-0.869 0.27-1.321 1.192-1.327 2.052 0.005 6.489-0.003 12.979 0.005 19.467-0.005 1.021 0.826 1.939 1.855 1.975 4.625 0.005 9.25-0.002 13.876 0.003 0.874 0.031 1.685-0.671 1.852-1.51 0.015-6.761-0.001-13.523 0.008-20.285 0.043-0.981-0.89-1.842-1.864-1.745-4.8 0.035-9.612-0.052-14.405 0.043z"></path>
<path fill="#231f20" d="M0.936 1.858c0.094-0.572 0.672-1.106 1.273-1.046 4.664 0.006 9.327 0.006 13.99 0 0.693-0.066 1.294 0.608 1.276 1.279 0.002 6.684 0 13.369 0.001 20.053 0.005 0.494-0.338 0.899-0.747 1.136-0.331 0.059-0.659 0.15-0.998 0.14-4.469-0.006-8.938 0.001-13.407-0.003-0.635-0.020-1.407-0.437-1.392-1.156 0.006-6.8-0.005-13.602 0.005-20.402M1.746 1.991c0.002 6.602 0 13.203 0.001 19.805-0.017 0.253 0.127 0.471 0.23 0.691 4.76-0.001 9.52-0.003 14.28 0.001 0.096-0.097 0.192-0.193 0.289-0.289-0.005-6.779-0.002-13.559-0.001-20.338-0.22-0.103-0.438-0.247-0.691-0.23-4.433-0.001-8.866 0.001-13.299-0.001-0.319-0.034-0.567 0.191-0.809 0.361z"></path>
<path fill="#231f20" d="M9.015 1.984c0.719 0.013 1.342 0.682 2.097 0.509 0.49-0.146 0.861 0.316 1.276 0.496 0.897 0.412 1.892 0.597 2.874 0.636 0 0.728 0 1.457 0 2.186-1.199 0.083-2.408 0.249-3.542 0.668-0.545 0.082-1.138 0.113-1.658-0.11-0.64-0.788-1.445-1.417-2.111-2.175-0.984-0.044-1.986 0.099-2.959-0.085-0.15 0.042-0.301 0.080-0.452 0.119 0.007 0.454 0.002 0.909 0.003 1.364-0.311 0-0.621 0-0.932 0 0 1.36 0 2.718 0 4.078-0.155 0-0.311 0-0.466 0 0-2.292 0-4.582 0-6.874 0.155 0 0.311 0 0.466 0 0 0.195 0 0.389 0 0.584 0.282-0.002 0.563-0.002 0.845 0.001 0.12 0.129 0.247 0.254 0.373 0.379 0.059-0.123 0.12-0.246 0.182-0.367 1.374-0.092 2.737-0.31 4.113-0.377-0.118-0.312-0.487-0.767-0.108-1.031z"></path>
<path fill="#231f20" d="M6.408 7.573c0.294-0.001 0.586 0 0.88 0.001 0.094 0.094 0.19 0.19 0.285 0.284-0.001 0.197-0.001 0.395 0.002 0.593-0.097 0.096-0.192 0.192-0.288 0.288-0.177 0-0.354-0.001-0.53-0.001 0 0.31 0 0.621 0 0.932-0.087 0-0.262 0-0.35 0 0-0.699 0-1.398 0-2.097M6.757 7.922c0 0.155 0 0.311 0 0.466 0.078 0 0.233 0 0.311 0 0.049-0.058 0.147-0.175 0.195-0.233-0.048-0.058-0.146-0.175-0.195-0.233-0.078 0-0.233 0-0.311 0z"></path>
<path fill="#231f20" d="M7.922 7.573c0.087 0 0.262 0 0.35 0 0.002 0.565-0.012 1.131 0.019 1.696 0.797-0.142 0.324-1.131 0.446-1.696 0.087 0 0.263 0 0.351 0 0.001 0.603-0.002 1.207 0.002 1.81-0.097 0.096-0.192 0.191-0.288 0.287-0.198-0.001-0.396-0.001-0.594 0-0.096-0.096-0.191-0.191-0.288-0.285 0.005-0.605 0.001-1.208 0.002-1.812z"></path>
<path fill="#231f20" d="M9.424 8.356c-0.182-0.678 0.343-0.922 0.933-0.79 0.101 0.19 0.198 0.381 0.292 0.574-0.157 0.008-0.315 0.015-0.472 0.022-0.052-0.065-0.156-0.195-0.207-0.26-0.069 0.068-0.136 0.136-0.204 0.204 0.665 0.267 1.149 1.065 0.449 1.594-0.257-0.030-0.513-0.078-0.763-0.147-0.063-0.206-0.121-0.412-0.172-0.622 0.226 0.036 0.486 0.035 0.606 0.27 0.062 0.001 0.185 0.002 0.247 0.003 0.001-0.082 0.003-0.245 0.005-0.326-0.235-0.177-0.478-0.346-0.713-0.523z"></path>
<path fill="#231f20" d="M10.718 7.573c0.155 0 0.311 0 0.466 0 0 0.271 0 0.544 0 0.816 0.155 0 0.311 0 0.466 0 0-0.271 0-0.544 0-0.816 0.087 0 0.262 0 0.35 0 0 0.699 0 1.398 0 2.097-0.087 0-0.262 0-0.35 0 0-0.311 0-0.621 0-0.932-0.155 0-0.311 0-0.466 0 0 0.311 0 0.621 0 0.932-0.155 0-0.311 0-0.466 0 0-0.699 0-1.398 0-2.097z"></path>
<path fill="#231f20" d="M3.147 10.47c0.444-0.043 0.867 0.086 1.191 0.397-0.027 0.221-0.056 0.443-0.101 0.663 0.070 0.31 0.082 0.628 0.089 0.945-0.374 0.16-0.77 0.249-1.178 0.242-0.002-0.749-0.001-1.498 0-2.247M3.495 10.951c0 0.087 0 0.262 0 0.35 0.087 0 0.262 0 0.35 0 0-0.087 0-0.262 0-0.35-0.087 0-0.262 0-0.35 0M3.495 11.767c0 0.155 0 0.311 0 0.466 0.078 0 0.233 0 0.311 0 0.049-0.058 0.147-0.175 0.195-0.233-0.048-0.058-0.146-0.175-0.195-0.233-0.078 0-0.233 0-0.311 0z"></path>
<path fill="#231f20" d="M4.545 10.485c0.155 0 0.31 0 0.465 0 0 0.583 0 1.165 0 1.748 0.087 0 0.262 0 0.35 0 0-0.583 0-1.165 0-1.748 0.155 0 0.311 0 0.466 0 0 0.617 0 1.235 0 1.852-0.302 0.268-0.74 0.535-1.078 0.156-0.401-0.58-0.126-1.349-0.203-2.009z"></path>
<path fill="#231f20" d="M5.942 10.485c0.777 0 1.553 0 2.33 0 0 0.155 0 0.31 0 0.465-0.087 0-0.262 0.001-0.35 0.002 0 0.583 0 1.164 0 1.746-0.155 0-0.311 0-0.466 0 0-0.583 0-1.165 0-1.748-0.233 0-0.466 0-0.699 0 0 0.583 0 1.165 0 1.748-0.155 0-0.311 0-0.466 0 0-0.583 0-1.164 0-1.746-0.087-0.001-0.262-0.002-0.35-0.002 0-0.155 0-0.31 0-0.465z"></path>
<path fill="#231f20" d="M8.789 10.441c1.036-0.002 1.023 1.293 0.727 1.996-0.303 0.436-0.981 0.248-1.093-0.245-0.092-0.603-0.125-1.3 0.366-1.751M8.938 10.855c-0.241 0.474-0.241 1.001 0 1.475 0.405-0.346 0.405-1.129 0-1.475z"></path>
<path fill="#231f20" d="M9.903 10.485c0.144 0 0.288 0 0.431 0 0.135 0.393 0.289 0.781 0.495 1.142 0.010-0.381 0.007-0.761 0.006-1.142 0.087 0 0.262 0 0.35 0 0 0.737 0 1.476 0 2.214-0.139 0-0.276 0-0.414 0-0.093-0.318-0.235-0.62-0.394-0.91-0.010 0.303-0.009 0.607-0.010 0.91-0.155 0-0.309 0-0.464 0 0-0.737 0-1.476 0-2.214z"></path>
<path fill="#231f20" d="M12.699 10.485c0.388 0 0.777 0 1.165 0 0 0.155 0 0.31 0 0.465-0.087 0-0.262 0.002-0.35 0.002 0 0.583 0 1.164 0 1.746-0.155 0-0.311 0-0.466 0 0-0.583 0-1.164 0-1.746-0.087-0.001-0.262-0.002-0.35-0.002 0-0.155 0-0.31 0-0.465z"></path>
<path fill="#231f20" d="M14.187 12.495c-0.381-0.684-0.403-2.060 0.675-2.054 0.49 0.451 0.458 1.149 0.365 1.752-0.107 0.451-0.713 0.679-1.039 0.302M14.611 12.311c0.394-0.419 0.34-0.987 0.092-1.464-0.443 0.395-0.412 1.005-0.092 1.464z"></path>
<path fill="#231f20" d="M4.078 13.515c0.388 0 0.777 0 1.165 0 0 0.087 0 0.261 0 0.348-0.087 0.001-0.262 0.001-0.35 0.002 0 0.583 0 1.164 0 1.746-0.155 0-0.311 0-0.466 0 0-0.583 0-1.164 0-1.746-0.087-0.001-0.262-0.001-0.35-0.002 0-0.087 0-0.261 0-0.348z"></path>
<path fill="#231f20" d="M5.36 13.515c0.155 0 0.31 0 0.466 0 0.044 0.612-0.133 1.27 0.156 1.84 0.367-0.539 0.127-1.231 0.192-1.84 0.155 0 0.31 0 0.465 0-0.055 0.698 0.172 1.47-0.228 2.097-0.274 0-0.549 0-0.823 0-0.401-0.627-0.174-1.399-0.228-2.097z"></path>
<path fill="#231f20" d="M6.99 13.515c0.292 0 0.586 0 0.878-0.002 0.096 0.097 0.191 0.192 0.288 0.288-0.002 0.199-0.001 0.4-0.001 0.599-0.080 0.075-0.16 0.148-0.239 0.224 0.105 0.323 0.189 0.652 0.27 0.982-0.155 0.003-0.311 0.007-0.466 0.009-0.043-0.266-0.105-0.528-0.165-0.79-0.054-0.047-0.162-0.139-0.216-0.184 0 0.324 0 0.648 0 0.972-0.087 0-0.262 0-0.35 0 0-0.699 0-1.398 0-2.097M7.339 13.813c0.006 0.197 0.014 0.393 0.024 0.59 0.188-0.091 0.372-0.191 0.549-0.301-0.19-0.1-0.38-0.197-0.573-0.289z"></path>
<path fill="#231f20" d="M8.388 13.515c0.137 0 0.276 0 0.414 0 0.092 0.318 0.235 0.619 0.394 0.91 0.010-0.304 0.009-0.607 0.010-0.91 0.154 0 0.309 0 0.464 0 0 0.699 0 1.398 0 2.097-0.14 0-0.28 0-0.418 0-0.157-0.346-0.327-0.686-0.511-1.019-0.005 0.339-0.003 0.679-0.002 1.019-0.087 0-0.262 0-0.35 0 0-0.699 0-1.398 0-2.097z"></path>
<path fill="#231f20" d="M11.662 13.513c0.186 0.001 0.373 0.001 0.559 0 0.518 0.558 0.483 1.464 0.132 2.099-0.261-0.001-0.522-0.001-0.784-0.001-0.358-0.637-0.452-1.534 0.093-2.098M11.656 14.563c0.089 0.264 0.161 0.536 0.282 0.79 0.353-0.487 0.353-1.093 0-1.58-0.121 0.253-0.193 0.525-0.282 0.79z"></path>
<path fill="#231f20" d="M12.932 13.516c0.086-0.001 0.259-0.002 0.345-0.002 0.137 0.35 0.28 0.699 0.465 1.026 0.009-0.341 0.007-0.684 0.006-1.025 0.087 0 0.262 0 0.35 0 0 0.699 0 1.398 0 2.097-0.139 0-0.276 0-0.414 0-0.093-0.318-0.235-0.62-0.394-0.91-0.010 0.303-0.009 0.607-0.010 0.91-0.086 0-0.26 0-0.347 0 0-0.699 0-1.398 0-2.096z"></path>
<path fill="#231f20" d="M4.285 16.485c0.36 0.001 0.513 0.291 0.601 0.593 0.009-0.202 0.020-0.403 0.035-0.605 0.345 0.064 0.503 0.311 0.468 0.652l0.086 0.001c0-0.196 0-0.39 0-0.586 0.163 0.002 0.326 0.003 0.49 0.006-0.174 0.691-0.276 1.397-0.4 2.097-0.072-0.001-0.217-0.002-0.288-0.003-0.087-0.227-0.171-0.454-0.264-0.678-0.007 0.226-0.007 0.452-0.009 0.678-0.085 0-0.256 0-0.341 0.001-0.143-0.715-0.304-1.431-0.379-2.157z"></path>
<path fill="#231f20" d="M6.423 16.544c0.141 0 0.281 0 0.422 0 0.196 0.693 0.296 1.409 0.508 2.097-0.15 0-0.299 0-0.45 0 0.028-0.322-0.108-0.571-0.426-0.662-0.010 0.366-0.141 0.722-0.569 0.72 0.112-0.73 0.32-1.443 0.515-2.155z"></path>
<path fill="#231f20" d="M7.456 16.544c0.331 0 0.662 0 0.993 0 0.107 0.106 0.216 0.211 0.325 0.316-0.184 0.6-0.334 1.186-0.021 1.781-0.147 0-0.294 0-0.44 0-0.091-0.355-0.209-0.706-0.374-1.035-0.019 0.344-0.019 0.69-0.019 1.035-0.155 0-0.309 0-0.464 0 0-0.699 0-1.398 0-2.097M7.9 16.879c0.022 0.195 0.049 0.388 0.082 0.581 0.161-0.148 0.282-0.33 0.362-0.534-0.111-0.012-0.333-0.036-0.444-0.048z"></path>
<path fill="#231f20" d="M8.971 16.545c0.085-0.001 0.257-0.002 0.343-0.002 0.185 0.326 0.326 0.675 0.473 1.019 0.008-0.34-0.005-0.679 0.001-1.018 0.087 0 0.261 0 0.348 0 0 0.699 0 1.397 0 2.096-0.087 0.001-0.262 0.002-0.35 0.002-0.169-0.337-0.289-0.696-0.457-1.033-0.014 0.344-0.012 0.689-0.010 1.032-0.087 0-0.261 0-0.348 0 0-0.699 0-1.398 0-2.096z"></path>
<path fill="#231f20" d="M10.485 16.544c0.087 0 0.262 0 0.35 0 0 0.699 0 1.398 0 2.097-0.087 0-0.262 0-0.35 0 0-0.699 0-1.398 0-2.097z"></path>
<path fill="#231f20" d="M11.184 16.544c0.142 0 0.284 0 0.426 0 0.136 0.298 0.256 0.603 0.388 0.904 0.003-0.302 0.003-0.602 0.001-0.904 0.155 0 0.311 0 0.466 0 0 0.699 0 1.398 0 2.097-0.142 0-0.284 0-0.426 0-0.136-0.298-0.256-0.603-0.388-0.904-0.003 0.301-0.003 0.602-0.001 0.904-0.156 0-0.311 0-0.466 0 0-0.699 0-1.398 0-2.097z"></path>
<path fill="#231f20" d="M12.968 16.544c0.256 0 0.514 0 0.771 0 0.1 0.188 0.197 0.377 0.289 0.57-0.153 0.006-0.305 0.010-0.458 0.015-0.101-0.1-0.204-0.199-0.306-0.298-0.086 0.48-0.35 1.269 0.308 1.432-0.113-0.221-0.241-0.432-0.35-0.654 0.26-0.012 0.521-0.017 0.783-0.022 0.022 0.396-0.122 0.762-0.384 1.056-0.19-0.001-0.379-0.001-0.569 0-0.481-0.592-0.468-1.46-0.084-2.098z"></path>
<path fill="#231f20" d="M5.592 19.456c0.087 0 0.262 0 0.35 0 0 0.583 0 1.165 0 1.748 0.271 0 0.544 0 0.816 0 0 0.155 0 0.31 0 0.466-0.388 0-0.777 0-1.165 0 0-0.737 0-1.476 0-2.214z"></path>
<path fill="#231f20" d="M6.874 19.456c0.087 0 0.262 0 0.35 0 0 0.737 0 1.476 0 2.214-0.087 0-0.262 0-0.35 0 0-0.737 0-1.476 0-2.214z"></path>
<path fill="#231f20" d="M7.978 19.409c0.267 0.058 0.521 0.157 0.767 0.273-0.005 0.099-0.015 0.296-0.021 0.395-0.224-0.043-0.445-0.097-0.664-0.16-0.162 0.438-0.151 0.897 0.020 1.33 0.099-0.054 0.199-0.108 0.298-0.163-0.1-0.146-0.202-0.289-0.306-0.43 0.228-0.021 0.458-0.033 0.686-0.043-0.012 0.315-0.043 0.629-0.134 0.932-0.218 0.061-0.437 0.118-0.657 0.164-0.579-0.607-0.578-1.699 0.012-2.299z"></path>
<path fill="#231f20" d="M9.087 19.456c0.087 0 0.262 0 0.35 0 0 0.271 0 0.543 0 0.816 0.155 0 0.311 0 0.466 0 0-0.273 0-0.544 0-0.816 0.087 0 0.262 0 0.35 0 0 0.737 0 1.476 0 2.214-0.087 0-0.262 0-0.35 0 0-0.311 0-0.621 0-0.932-0.155 0-0.311 0-0.466 0 0 0.311 0 0.621 0 0.932-0.087 0-0.262 0-0.35 0 0-0.737 0-1.476 0-2.214z"></path>
<path fill="#231f20" d="M10.485 19.456c0.35 0 0.699 0 1.049 0 0 0.155 0 0.31 0 0.465-0.087 0-0.262 0.002-0.35 0.002 0 0.583 0 1.164 0 1.746-0.087 0-0.262 0-0.35 0 0-0.583 0-1.164 0-1.746-0.087 0-0.262-0.002-0.35-0.002 0-0.155 0-0.31 0-0.465z"></path>
<path fill="#231f20" d="M11.766 19.68c0.242-0.115 0.494-0.213 0.757-0.273 0.163 0.212 0.315 0.433 0.457 0.661-0.318-0.042-0.63-0.118-0.946-0.171 0.269 0.358 0.807 0.509 0.864 1.003 0.117 0.296-0.191 0.536-0.329 0.771-0.172-0.001-0.344-0.001-0.515-0.001-0.135-0.135-0.269-0.269-0.405-0.402 0.002-0.085 0.009-0.254 0.013-0.339 0.211 0.037 0.437 0.065 0.555 0.271 0.062 0.001 0.184 0.003 0.246 0.006 0.001-0.082 0.003-0.245 0.005-0.327-0.232-0.174-0.468-0.34-0.7-0.515 0-0.227 0-0.456-0.001-0.684z"></path>
<path fill="#fff" d="M1.675 0.389c4.793-0.096 9.605-0.008 14.405-0.043 0.974-0.097 1.907 0.764 1.864 1.745-0.009 6.762 0.007 13.524-0.008 20.285-0.168 0.839-0.979 1.541-1.852 1.51-4.625-0.006-9.25 0.001-13.876-0.003-1.029-0.036-1.859-0.954-1.855-1.975-0.008-6.488 0-12.977-0.005-19.467 0.006-0.86 0.458-1.781 1.327-2.052M0.936 1.858c-0.009 6.8 0.001 13.602-0.005 20.402-0.015 0.719 0.757 1.136 1.392 1.156 4.469 0.005 8.938-0.002 13.407 0.003 0.339 0.010 0.668-0.080 0.998-0.14 0.409-0.237 0.751-0.642 0.747-1.136-0.001-6.684 0.001-13.369-0.001-20.053 0.019-0.671-0.583-1.346-1.276-1.279-4.663 0.006-9.326 0.006-13.99 0-0.601-0.059-1.179 0.474-1.273 1.046z"></path>
<path fill="#fff" d="M1.746 1.991c0.241-0.17 0.489-0.395 0.809-0.361 4.433 0.002 8.866 0 13.299 0.001 0.253-0.017 0.471 0.127 0.691 0.23-0.001 6.779-0.003 13.559 0.001 20.338-0.097 0.096-0.193 0.192-0.289 0.289-4.76-0.005-9.52-0.002-14.28-0.001-0.103-0.22-0.247-0.438-0.23-0.691-0.001-6.601 0.001-13.202-0.001-19.805M9.015 1.984c-0.379 0.264-0.009 0.719 0.108 1.031-1.376 0.068-2.739 0.285-4.113 0.377-0.062 0.121-0.122 0.243-0.182 0.367-0.126-0.125-0.253-0.249-0.373-0.379-0.282-0.003-0.563-0.003-0.845-0.001 0-0.195 0-0.389 0-0.584-0.155 0-0.311 0-0.466 0 0 2.292 0 4.582 0 6.874 0.155 0 0.311 0 0.466 0 0-1.36 0-2.718 0-4.078 0.311 0 0.621 0 0.932 0-0.001-0.456 0.003-0.91-0.003-1.364 0.151-0.038 0.302-0.077 0.452-0.119 0.973 0.184 1.975 0.041 2.959 0.085 0.666 0.758 1.471 1.388 2.111 2.175 0.52 0.223 1.113 0.191 1.658 0.11 1.134-0.418 2.343-0.585 3.542-0.668 0-0.728 0-1.457 0-2.186-0.982-0.040-1.977-0.224-2.874-0.636-0.415-0.181-0.785-0.642-1.276-0.496-0.755 0.172-1.378-0.496-2.097-0.509M6.408 7.573c0 0.699 0 1.398 0 2.097 0.087 0 0.262 0 0.35 0 0-0.311 0-0.622 0-0.932 0.176 0 0.353 0.001 0.53 0.001 0.096-0.096 0.191-0.192 0.288-0.288-0.003-0.198-0.003-0.396-0.002-0.593-0.096-0.094-0.191-0.19-0.285-0.284-0.294-0.001-0.586-0.002-0.88-0.001M7.922 7.573c-0.001 0.603 0.002 1.207-0.002 1.812 0.097 0.094 0.192 0.19 0.288 0.285 0.198-0.001 0.396-0.001 0.594 0 0.096-0.096 0.191-0.191 0.288-0.287-0.005-0.603-0.001-1.207-0.002-1.81-0.087 0-0.263 0-0.351 0-0.122 0.565 0.351 1.554-0.446 1.696-0.030-0.565-0.016-1.131-0.019-1.696-0.087 0-0.262 0-0.35 0M9.424 8.356c0.235 0.177 0.478 0.346 0.713 0.523-0.001 0.082-0.003 0.245-0.005 0.326-0.062-0.001-0.185-0.002-0.247-0.003-0.12-0.235-0.38-0.234-0.606-0.27 0.051 0.21 0.11 0.416 0.172 0.622 0.25 0.069 0.506 0.117 0.763 0.147 0.7-0.529 0.217-1.327-0.449-1.594 0.068-0.068 0.135-0.136 0.204-0.204 0.051 0.065 0.155 0.195 0.207 0.26 0.157-0.007 0.315-0.014 0.472-0.022-0.094-0.193-0.191-0.384-0.292-0.574-0.591-0.132-1.115 0.112-0.933 0.79M10.718 7.573c0 0.699 0 1.398 0 2.097 0.155 0 0.311 0 0.466 0 0-0.311 0-0.621 0-0.932 0.155 0 0.311 0 0.466 0 0 0.311 0 0.621 0 0.932 0.087 0 0.262 0 0.35 0 0-0.699 0-1.398 0-2.097-0.087 0-0.262 0-0.35 0 0 0.271 0 0.544 0 0.816-0.155 0-0.311 0-0.466 0 0-0.271 0-0.544 0-0.816-0.155 0-0.311 0-0.466 0M3.147 10.47c-0.001 0.749-0.002 1.498 0 2.247 0.408 0.007 0.804-0.083 1.178-0.242-0.007-0.317-0.019-0.635-0.089-0.945 0.045-0.22 0.075-0.442 0.101-0.663-0.324-0.311-0.747-0.44-1.191-0.397M4.545 10.485c0.077 0.659-0.198 1.428 0.203 2.009 0.338 0.379 0.776 0.112 1.078-0.156 0-0.617 0-1.235 0-1.852-0.155 0-0.311 0-0.466 0 0 0.583 0 1.165 0 1.748-0.087 0-0.262 0-0.35 0 0-0.583 0-1.165 0-1.748-0.155 0-0.31 0-0.465 0M5.942 10.485c0 0.155 0 0.31 0 0.465 0.087 0 0.262 0.001 0.35 0.002 0 0.583 0 1.164 0 1.746 0.155 0 0.311 0 0.466 0 0-0.583 0-1.165 0-1.748 0.233 0 0.466 0 0.699 0 0 0.583 0 1.165 0 1.748 0.155 0 0.311 0 0.466 0 0-0.583 0-1.164 0-1.746 0.087-0.001 0.262-0.002 0.35-0.002 0-0.155 0-0.31 0-0.465-0.777 0-1.553 0-2.33 0M8.789 10.441c-0.49 0.451-0.458 1.148-0.366 1.751 0.112 0.493 0.79 0.68 1.093 0.245 0.296-0.703 0.309-1.998-0.727-1.996M9.903 10.485c0 0.737 0 1.476 0 2.214 0.155 0 0.309 0 0.464 0 0.001-0.303 0-0.607 0.010-0.91 0.158 0.29 0.301 0.592 0.394 0.91 0.137 0 0.275 0 0.414 0 0-0.737 0-1.476 0-2.214-0.087 0-0.262 0-0.35 0 0.001 0.381 0.005 0.761-0.006 1.142-0.206-0.361-0.36-0.749-0.495-1.142-0.143 0-0.287 0-0.431 0M12.699 10.485c0 0.155 0 0.31 0 0.465 0.087 0 0.262 0.001 0.35 0.002 0 0.583 0 1.164 0 1.746 0.155 0 0.311 0 0.466 0 0-0.583 0-1.164 0-1.746 0.087 0 0.262-0.002 0.35-0.002 0-0.155 0-0.31 0-0.465-0.388 0-0.777 0-1.165 0M14.187 12.495c0.326 0.377 0.932 0.149 1.039-0.302 0.093-0.603 0.126-1.301-0.365-1.752-1.078-0.006-1.056 1.37-0.675 2.054M4.078 13.515c0 0.087 0 0.261 0 0.348 0.087 0.001 0.262 0.001 0.35 0.002 0 0.583 0 1.164 0 1.746 0.155 0 0.311 0 0.466 0 0-0.583 0-1.164 0-1.746 0.087-0.001 0.262-0.001 0.35-0.002 0-0.087 0-0.261 0-0.348-0.388 0-0.777 0-1.165 0M5.36 13.515c0.055 0.698-0.172 1.47 0.228 2.097 0.274 0 0.549 0 0.823 0 0.401-0.627 0.174-1.399 0.228-2.097-0.155 0-0.31 0-0.465 0-0.065 0.608 0.175 1.3-0.192 1.84-0.289-0.57-0.112-1.228-0.156-1.84-0.156 0-0.311 0-0.466 0M6.99 13.515c0 0.699 0 1.398 0 2.097 0.087 0 0.262 0 0.35 0 0-0.324 0-0.648 0-0.972 0.054 0.045 0.162 0.137 0.216 0.184 0.061 0.262 0.122 0.524 0.165 0.79 0.155-0.002 0.311-0.006 0.466-0.009-0.082-0.33-0.165-0.659-0.27-0.982 0.079-0.076 0.158-0.149 0.239-0.224 0-0.199-0.001-0.4 0.001-0.599-0.097-0.096-0.192-0.191-0.288-0.288-0.292 0.002-0.586 0.002-0.878 0.002M8.388 13.515c0 0.699 0 1.398 0 2.097 0.087 0 0.262 0 0.35 0-0.001-0.34-0.002-0.68 0.002-1.019 0.184 0.333 0.354 0.673 0.511 1.019 0.139 0 0.278 0 0.418 0 0-0.699 0-1.398 0-2.097-0.155 0-0.31 0-0.464 0-0.001 0.303 0 0.606-0.010 0.91-0.158-0.291-0.302-0.592-0.394-0.91-0.137 0-0.276 0-0.414 0M11.662 13.513c-0.545 0.564-0.451 1.461-0.093 2.098 0.262 0 0.523 0 0.784 0.001 0.352-0.635 0.387-1.541-0.132-2.099-0.186 0.001-0.373 0.001-0.559 0M12.932 13.516c0 0.698 0 1.397 0 2.096 0.087 0 0.261 0 0.347 0 0.001-0.303 0-0.607 0.010-0.91 0.158 0.29 0.301 0.592 0.394 0.91 0.137 0 0.275 0 0.414 0 0-0.699 0-1.398 0-2.097-0.087 0-0.262 0-0.35 0 0.001 0.341 0.003 0.684-0.006 1.025-0.185-0.327-0.327-0.677-0.465-1.026-0.086 0-0.259 0.001-0.345 0.002M4.285 16.485c0.075 0.726 0.235 1.441 0.379 2.157 0.085-0.001 0.256-0.001 0.341-0.001 0.002-0.226 0.002-0.452 0.009-0.678 0.093 0.224 0.177 0.451 0.264 0.678 0.071 0.001 0.216 0.002 0.288 0.003 0.123-0.7 0.226-1.406 0.4-2.097-0.164-0.002-0.327-0.003-0.49-0.006 0 0.196 0 0.39 0 0.586l-0.086-0.001c0.035-0.341-0.123-0.588-0.468-0.652-0.015 0.202-0.026 0.403-0.035 0.605-0.089-0.302-0.241-0.592-0.601-0.593M6.423 16.544c-0.195 0.712-0.403 1.425-0.515 2.155 0.428 0.002 0.558-0.354 0.569-0.72 0.318 0.091 0.454 0.34 0.426 0.662 0.15 0 0.299 0 0.45 0-0.212-0.689-0.312-1.404-0.508-2.097-0.141 0-0.281 0-0.422 0M7.456 16.544c0 0.699 0 1.398 0 2.097 0.155 0 0.309 0 0.464 0 0-0.345 0-0.691 0.019-1.035 0.165 0.329 0.283 0.679 0.374 1.035 0.147 0 0.294 0 0.44 0-0.313-0.595-0.163-1.181 0.021-1.781-0.11-0.105-0.218-0.21-0.325-0.316-0.331 0-0.662 0-0.993 0M8.971 16.545c0 0.698 0 1.397 0 2.096 0.087 0 0.261 0 0.348 0-0.001-0.344-0.003-0.689 0.010-1.032 0.168 0.338 0.288 0.697 0.457 1.033 0.087 0 0.262-0.001 0.35-0.002 0-0.699 0-1.397 0-2.096-0.087 0-0.261 0-0.348 0-0.006 0.339 0.007 0.678-0.001 1.018-0.147-0.345-0.288-0.693-0.473-1.019-0.085 0-0.257 0.001-0.343 0.002M10.485 16.544c0 0.699 0 1.398 0 2.097 0.087 0 0.262 0 0.35 0 0-0.699 0-1.398 0-2.097-0.087 0-0.262 0-0.35 0M11.184 16.544c0 0.699 0 1.398 0 2.097 0.155 0 0.31 0 0.466 0-0.002-0.302-0.002-0.603 0.001-0.904 0.132 0.301 0.252 0.606 0.388 0.904 0.142 0 0.284 0 0.426 0 0-0.699 0-1.398 0-2.097-0.155 0-0.311 0-0.466 0 0.002 0.302 0.002 0.602-0.001 0.904-0.132-0.301-0.252-0.606-0.388-0.904-0.142 0-0.284 0-0.426 0M12.968 16.544c-0.384 0.638-0.397 1.506 0.084 2.098 0.19-0.001 0.379-0.001 0.569 0 0.262-0.294 0.407-0.659 0.384-1.056-0.262 0.005-0.523 0.010-0.783 0.022 0.108 0.221 0.237 0.432 0.35 0.654-0.657-0.163-0.394-0.952-0.308-1.432 0.103 0.099 0.205 0.198 0.306 0.298 0.153-0.005 0.305-0.009 0.458-0.015-0.092-0.192-0.189-0.382-0.289-0.57-0.257 0-0.515 0-0.771 0M5.592 19.456c0 0.737 0 1.476 0 2.214 0.388 0 0.777 0 1.165 0 0-0.156 0-0.311 0-0.466-0.271 0-0.544 0-0.816 0 0-0.583 0-1.165 0-1.748-0.087 0-0.262 0-0.35 0M6.874 19.456c0 0.737 0 1.476 0 2.214 0.087 0 0.262 0 0.35 0 0-0.737 0-1.476 0-2.214-0.087 0-0.262 0-0.35 0M7.978 19.409c-0.59 0.6-0.591 1.692-0.012 2.299 0.22-0.047 0.439-0.104 0.657-0.164 0.091-0.303 0.122-0.617 0.134-0.932-0.228 0.010-0.458 0.022-0.686 0.043 0.105 0.141 0.206 0.284 0.306 0.43-0.099 0.055-0.199 0.11-0.298 0.163-0.171-0.433-0.182-0.892-0.020-1.33 0.219 0.063 0.44 0.117 0.664 0.16 0.006-0.099 0.016-0.296 0.021-0.395-0.246-0.115-0.5-0.214-0.767-0.273M9.087 19.456c0 0.737 0 1.476 0 2.214 0.087 0 0.262 0 0.35 0 0-0.311 0-0.621 0-0.932 0.155 0 0.311 0 0.466 0 0 0.311 0 0.621 0 0.932 0.087 0 0.262 0 0.35 0 0-0.737 0-1.476 0-2.214-0.087 0-0.262 0-0.35 0 0 0.271 0 0.543 0 0.816-0.155 0-0.311 0-0.466 0 0-0.273 0-0.544 0-0.816-0.087 0-0.262 0-0.35 0M10.485 19.456c0 0.155 0 0.31 0 0.465 0.087 0 0.262 0.002 0.35 0.002 0 0.583 0 1.164 0 1.746 0.087 0 0.262 0 0.35 0 0-0.583 0-1.164 0-1.746 0.087 0 0.262-0.002 0.35-0.002 0-0.155 0-0.31 0-0.465-0.35 0-0.699 0-1.049 0M11.766 19.68c0.001 0.228 0.001 0.457 0.001 0.684 0.232 0.175 0.468 0.341 0.7 0.515-0.001 0.083-0.003 0.246-0.005 0.327-0.062-0.002-0.184-0.005-0.246-0.006-0.118-0.206-0.344-0.234-0.555-0.271-0.003 0.085-0.010 0.254-0.013 0.339 0.136 0.133 0.27 0.267 0.405 0.402 0.171 0 0.343 0 0.515 0.001 0.137-0.235 0.445-0.475 0.329-0.771-0.057-0.494-0.595-0.645-0.864-1.003 0.316 0.054 0.628 0.129 0.946 0.171-0.142-0.227-0.294-0.449-0.457-0.661-0.263 0.059-0.515 0.157-0.757 0.273z"></path>
<path fill="#fff" d="M6.757 7.922c0.078 0 0.233 0 0.311 0 0.049 0.058 0.147 0.175 0.195 0.233-0.048 0.058-0.146 0.175-0.195 0.233-0.078 0-0.233 0-0.311 0 0-0.155 0-0.311 0-0.466z"></path>
<path fill="#fff" d="M3.495 10.951c0.087 0 0.262 0 0.35 0 0 0.087 0 0.262 0 0.35-0.087 0-0.262 0-0.35 0 0-0.087 0-0.262 0-0.35z"></path>
<path fill="#fff" d="M8.938 10.855c0.405 0.346 0.405 1.129 0 1.475-0.241-0.474-0.241-1.001 0-1.475z"></path>
<path fill="#fff" d="M14.611 12.311c-0.32-0.459-0.351-1.070 0.092-1.464 0.248 0.478 0.302 1.045-0.092 1.464z"></path>
<path fill="#fff" d="M3.495 11.767c0.078 0 0.233 0 0.311 0 0.049 0.058 0.147 0.175 0.195 0.233-0.048 0.058-0.146 0.175-0.195 0.233-0.078 0-0.233 0-0.311 0 0-0.155 0-0.311 0-0.466z"></path>
<path fill="#fff" d="M7.339 13.813c0.193 0.092 0.383 0.189 0.573 0.289-0.177 0.11-0.361 0.21-0.549 0.301-0.010-0.197-0.019-0.393-0.024-0.59z"></path>
<path fill="#fff" d="M11.656 14.563c0.089-0.264 0.161-0.537 0.282-0.79 0.353 0.487 0.353 1.093 0 1.58-0.121-0.254-0.193-0.525-0.282-0.79z"></path>
<path fill="#fff" d="M7.9 16.879c0.111 0.012 0.333 0.036 0.444 0.048-0.080 0.204-0.202 0.386-0.362 0.534-0.033-0.193-0.059-0.387-0.082-0.581z"></path>
</svg>
