<!-- Generated by IcoMoon.io -->
<svg version="1.1" xmlns="http://www.w3.org/2000/svg" width="24" height="24" viewBox="0 0 24 24">
<title>regulatory--axle-limit--g2</title>
<path fill="#ce171e" d="M11.011 0h2.065c2.779 0.31 5.515 1.413 7.491 3.432 2.148 2.082 3.224 5.016 3.554 7.939v1.47c-0.379 2.677-1.344 5.345-3.203 7.357-1.963 2.202-4.806 3.453-7.704 3.801h-2.266c-2.995-0.362-5.935-1.672-7.927-3.984-1.808-2.007-2.693-4.654-3.020-7.296v-1.55c0.375-2.855 1.458-5.701 3.549-7.743 1.966-2.015 4.694-3.115 7.462-3.428M6.051 4.66c1.715 1.719 3.428 3.441 5.157 5.145-0.008 0.048-0.025 0.144-0.035 0.191-0.9 0.066-1.803 0.083-2.705 0.125-0.406-0.417-0.816-0.832-1.243-1.229-0.021-0.294-0.013-0.589-0.027-0.882-0.292-0.005-0.586 0.005-0.877-0.033-0.508-0.529-1.048-1.028-1.545-1.569-0.057 0.030-0.169 0.089-0.224 0.119-0.046-0.046-0.139-0.136-0.185-0.182-2.137 2.709-2.585 6.604-1.154 9.737 1.401 3.168 4.658 5.391 8.113 5.584 2.287 0.159 4.573-0.616 6.397-1.982-0.064-0.064-0.191-0.191-0.253-0.254 0.057-0.019 0.169-0.058 0.226-0.077-2.736-2.78-5.522-5.51-8.263-8.285 0.622 0.022 1.245 0.041 1.867 0.075 0.069 0.21 0.141 0.418 0.21 0.628 0.362 0.011 0.722 0.010 1.084-0.001 0.041-0.156 0.081-0.311 0.122-0.467 2.215 2.247 4.462 4.465 6.695 6.695 1.527-2.009 2.269-4.625 1.891-7.131-0.421-3.284-2.703-6.235-5.776-7.468-3.086-1.328-6.831-0.798-9.475 1.26z"></path>
<path fill="#fff" d="M6.051 4.66c2.644-2.059 6.388-2.588 9.475-1.26 3.073 1.233 5.355 4.184 5.776 7.468 0.377 2.506-0.364 5.122-1.891 7.131-2.232-2.23-4.479-4.448-6.695-6.695 0.010-0.036 0.029-0.109 0.037-0.146 1.295-0.089 2.594-0.122 3.892-0.185 0.052 0.724 0.345 1.406 0.229 2.149 0.479 0.010 0.958 0.010 1.436-0.001 0.012-1.704 0.018-3.408-0.004-5.112-0.475-0.013-0.952-0.013-1.428 0.001 0.1 0.743-0.171 1.43-0.238 2.154-1.248-0.055-2.499-0.090-3.746-0.169-0.034-0.205-0.065-0.411-0.096-0.617-0.505-0.030-1.012-0.030-1.516 0.010-0.018 0.105-0.055 0.314-0.075 0.417-1.729-1.704-3.442-3.426-5.157-5.145z"></path>
<path fill="#fff" d="M4.367 6.346c0.046 0.046 0.139 0.136 0.185 0.182 0.447 0.455 0.918 0.888 1.34 1.368-0.27 1.715-0.053 3.489-0.113 5.228 0.478 0.008 0.956 0.008 1.435-0.004-0.087-0.733 0.157-1.428 0.224-2.147 0.549 0.021 1.096 0.045 1.644 0.078 2.793 2.796 5.591 5.586 8.388 8.379 0.063 0.064 0.189 0.191 0.253 0.254-1.824 1.365-4.11 2.141-6.397 1.982-3.455-0.193-6.712-2.416-8.113-5.584-1.43-3.133-0.983-7.029 1.154-9.737M8.775 14.568c-0.201 0.298-0.226 0.667-0.27 1.013 0.227 0 0.453 0 0.68 0 0.018-0.375 0.211-0.903 0.692-0.747 0.609 0.318 0.297 1.393-0.435 1.245 0.002 0.206 0.004 0.412 0.005 0.62 0.847-0.156 1.16 1.048 0.484 1.433-0.505 0.21-0.773-0.384-0.777-0.796-0.238 0-0.475 0-0.713 0.001 0.039 0.394 0.072 0.821 0.332 1.143 0.488 0.616 1.586 0.575 2.006-0.1 0.41-0.632 0.423-1.639-0.252-2.101 0.523-0.427 0.525-1.234 0.168-1.764-0.441-0.615-1.517-0.597-1.919 0.053M6.412 16.42c0.205 0.388 0.414 0.777 0.617 1.166-0.213 0.4-0.429 0.801-0.638 1.204 0.199 0 0.397 0 0.596 0 0.11-0.238 0.217-0.475 0.327-0.713 0.111 0.236 0.218 0.474 0.326 0.712 0.205 0 0.409 0 0.614 0-0.21-0.403-0.426-0.803-0.639-1.204 0.206-0.387 0.415-0.773 0.62-1.16-0.195 0.001-0.39 0.002-0.585 0.005-0.104 0.226-0.209 0.45-0.317 0.674-0.124-0.466-0.392-0.835-0.92-0.684z"></path>
<path fill="#fff" d="M7.374 9.372c0.267 0.248 0.531 0.499 0.783 0.762-0.241 0.011-0.481 0.022-0.721 0.034-0.013-0.265-0.025-0.532-0.062-0.796z"></path>
<path fill="#231f20" d="M5.778 13.124c0.060-1.739-0.157-3.513 0.113-5.228 0.107 0.021 0.322 0.062 0.429 0.082 0.291 0.037 0.585 0.028 0.877 0.033 0.013 0.293 0.006 0.587 0.027 0.882 0.042 0.162 0.094 0.322 0.15 0.48 0.036 0.264 0.048 0.531 0.062 0.796 0.24-0.012 0.48-0.023 0.721-0.034 0.077-0.004 0.234-0.010 0.311-0.013 0.902-0.042 1.805-0.059 2.705-0.125 0.010-0.047 0.027-0.142 0.035-0.191 0.019-0.104 0.057-0.312 0.075-0.417 0.504-0.040 1.011-0.040 1.516-0.010 0.031 0.206 0.063 0.412 0.096 0.617 1.247 0.078 2.498 0.113 3.746 0.169 0.066-0.724 0.338-1.411 0.238-2.154 0.476-0.014 0.953-0.014 1.428-0.001 0.022 1.704 0.016 3.408 0.004 5.112-0.479 0.011-0.958 0.011-1.436 0.001 0.116-0.743-0.177-1.426-0.229-2.149-1.298 0.063-2.597 0.095-3.892 0.185-0.008 0.037-0.028 0.11-0.037 0.146-0.041 0.156-0.081 0.311-0.122 0.467-0.362 0.011-0.722 0.012-1.084 0.001-0.069-0.21-0.141-0.418-0.21-0.628-0.622-0.034-1.245-0.053-1.867-0.075-0.088-0.005-0.263-0.013-0.351-0.017-0.548-0.034-1.095-0.058-1.644-0.078-0.068 0.719-0.311 1.413-0.224 2.147-0.479 0.012-0.958 0.012-1.435 0.004z"></path>
<path fill="#000" d="M8.775 14.568c0.402-0.65 1.477-0.668 1.919-0.053 0.357 0.531 0.356 1.337-0.168 1.764 0.675 0.462 0.662 1.469 0.252 2.101-0.42 0.675-1.517 0.716-2.006 0.1-0.259-0.322-0.293-0.749-0.332-1.143 0.238-0.001 0.475-0.001 0.713-0.001 0.004 0.412 0.271 1.006 0.777 0.796 0.677-0.385 0.363-1.588-0.484-1.433-0.001-0.207-0.002-0.414-0.005-0.62 0.732 0.148 1.044-0.926 0.435-1.245-0.481-0.157-0.674 0.371-0.692 0.747-0.227 0-0.453 0-0.68 0 0.045-0.346 0.069-0.715 0.27-1.013z"></path>
<path fill="#000" d="M6.412 16.42c0.528-0.151 0.796 0.218 0.92 0.684 0.109-0.224 0.213-0.449 0.317-0.674 0.195-0.002 0.39-0.004 0.585-0.005-0.205 0.387-0.414 0.773-0.62 1.16 0.213 0.4 0.429 0.801 0.639 1.204-0.205 0-0.409 0-0.614 0-0.107-0.238-0.215-0.475-0.326-0.712-0.11 0.238-0.217 0.475-0.327 0.713-0.199 0-0.397 0-0.596 0 0.209-0.403 0.425-0.803 0.638-1.204-0.204-0.39-0.412-0.778-0.617-1.166z"></path>
</svg>
