<!-- Generated by IcoMoon.io -->
<svg version="1.1" xmlns="http://www.w3.org/2000/svg" width="24" height="24" viewBox="0 0 24 24">
<title>regulatory--end-of-tractors-only--g1</title>
<path fill="#0e518d" d="M10.745 0h2.486c2.194 0.305 4.342 1.089 6.096 2.466-0.845 0.851-1.693 1.697-2.541 2.545-1.656 0.003-3.313-0.004-4.967 0.003 0.229 1.782-0.604 3.487-0.881 5.229-2.020 0.001-4.042-0.001-6.063-0.003-0.264 0.011-0.692 0.001-0.717 0.359-0.063 1.287-0.007 2.581-0.022 3.87 0.43 0.017 0.885 0.021 1.232-0.274 0.691-0.505 1.61-0.454 2.371-0.146-0.080 0.076-0.158 0.156-0.236 0.233-0.861-0.307-1.907-0.124-2.471 0.637-0.502 0.588-0.496 1.414-0.282 2.119-0.758 0.766-1.522 1.524-2.285 2.285-1.37-1.746-2.148-3.884-2.462-6.067v-2.486c0.187-1.058 0.382-2.123 0.79-3.124 1.559-4.153 5.57-7.145 9.955-7.646z"></path>
<path fill="#0e518d" d="M21.178 4.233c1.565 1.803 2.459 4.091 2.822 6.431v2.649c-0.521 4.435-3.6 8.471-7.829 9.976-0.909 0.352-1.873 0.516-2.823 0.711h-2.644c-2.358-0.347-4.658-1.251-6.471-2.823 1.073-1.040 2.098-2.132 3.191-3.154 0.491-0.216 0.866-0.6 1.085-1.088 0.518-0.571 1.081-1.101 1.622-1.651 0.729-0.004 1.458-0.005 2.188-0.004-0.113-0.81-0.065-1.642 0.228-2.409 0.305-0.336 0.646-0.634 0.997-0.92-0.764 1.007-1.13 2.353-0.732 3.583 0.465 1.619 2.123 2.792 3.811 2.651 1.891-0.070 3.524-1.787 3.508-3.678 0.063-1.705-1.203-3.328-2.867-3.696-1.166-0.311-2.388 0.078-3.342 0.764 0.278-0.343 0.571-0.674 0.897-0.973 1.531-0.597 3.33-0.219 4.514 0.913 0.161-0.16 0.322-0.319 0.484-0.477-0.464-0.547-1.004-1.033-1.431-1.61-0.099-0.779-0.008-1.572-0.038-2.356 0.943-0.945 1.892-1.884 2.83-2.835z"></path>
<path fill="#0e518d" d="M12.621 5.97c1.071-0.005 2.142 0.008 3.212-0.008-1.387 1.377-2.753 2.773-4.154 4.135 0.305-1.378 0.621-2.753 0.942-4.127z"></path>
<path fill="#0e518d" d="M15.997 9.423c0.464-0.467 0.928-0.932 1.394-1.396-0.003 0.465-0.008 0.931-0.009 1.398-0.462-0.001-0.923 0.001-1.385-0.001z"></path>
<path fill="#0e518d" d="M16.006 12.327c1.174-0.241 2.409 0.678 2.513 1.871 0.173 1.189-0.829 2.38-2.033 2.396-1.113 0.090-2.173-0.835-2.247-1.945-0.135-1.080 0.7-2.153 1.767-2.322M16.133 12.839c-0.79 0.109-1.428 0.868-1.371 1.669 0.012 0.832 0.758 1.563 1.59 1.56 0.901 0.040 1.714-0.794 1.648-1.696-0.008-0.932-0.952-1.701-1.867-1.534z"></path>
<path fill="#c1121c" d="M19.327 2.466c0.676 0.524 1.296 1.118 1.851 1.767-0.938 0.951-1.887 1.89-2.83 2.835-0.319 0.32-0.638 0.64-0.957 0.959-0.465 0.464-0.93 0.93-1.394 1.396-0.396 0.388-0.782 0.786-1.178 1.176-0.326 0.299-0.618 0.63-0.897 0.973-0.125 0.127-0.251 0.252-0.378 0.377-0.351 0.286-0.692 0.584-0.997 0.92-0.804 0.804-1.61 1.609-2.416 2.413-0.541 0.55-1.104 1.080-1.622 1.651-0.38 0.344-0.742 0.707-1.085 1.088-1.093 1.022-2.118 2.114-3.191 3.154-0.651-0.556-1.246-1.178-1.771-1.854 0.764-0.761 1.527-1.519 2.285-2.285 0.887-0.959 1.796-1.865 2.753-2.756 0.078-0.078 0.156-0.157 0.236-0.233 1.316-1.315 2.648-2.616 3.943-3.951 1.4-1.362 2.767-2.759 4.154-4.135 0.316-0.316 0.634-0.634 0.952-0.951 0.848-0.848 1.696-1.695 2.541-2.545z"></path>
<path fill="#f7fbf5" d="M11.818 5.014c1.655-0.007 3.311 0 4.967-0.003-0.318 0.316-0.636 0.634-0.952 0.951-1.071 0.016-2.142 0.003-3.212 0.008-0.32 1.374-0.637 2.749-0.942 4.127-1.295 1.335-2.627 2.636-3.943 3.951-0.761-0.307-1.68-0.359-2.371 0.146-0.347 0.295-0.802 0.291-1.232 0.274 0.016-1.29-0.041-2.583 0.022-3.87 0.025-0.357 0.454-0.348 0.717-0.359 2.022 0.001 4.043 0.004 6.063 0.003 0.277-1.742 1.11-3.447 0.881-5.229z"></path>
<path fill="#f7fbf5" d="M17.391 8.027c0.319-0.319 0.638-0.638 0.957-0.959 0.030 0.785-0.061 1.577 0.038 2.356 0.427 0.578 0.967 1.063 1.431 1.61-0.162 0.158-0.323 0.318-0.484 0.477-1.184-1.131-2.983-1.51-4.514-0.913 0.396-0.39 0.782-0.789 1.178-1.176 0.462 0.003 0.923 0 1.385 0.001 0.001-0.467 0.007-0.932 0.009-1.398z"></path>
<path fill="#f7fbf5" d="M13.923 11.573c0.953-0.686 2.176-1.075 3.342-0.764 1.664 0.368 2.93 1.991 2.867 3.696 0.016 1.891-1.617 3.608-3.508 3.678-1.688 0.141-3.345-1.031-3.811-2.651-0.398-1.23-0.032-2.575 0.732-3.583 0.128-0.125 0.253-0.251 0.378-0.377M16.006 12.327c-1.067 0.169-1.902 1.242-1.767 2.322 0.074 1.11 1.134 2.035 2.247 1.945 1.204-0.016 2.206-1.207 2.033-2.396-0.104-1.193-1.34-2.113-2.513-1.871z"></path>
<path fill="#f7fbf5" d="M16.133 12.839c0.915-0.167 1.859 0.601 1.867 1.534 0.066 0.902-0.748 1.735-1.648 1.696-0.832 0.003-1.578-0.728-1.59-1.56-0.057-0.802 0.582-1.56 1.371-1.669z"></path>
<path fill="#f7fbf5" d="M10.131 15.284c0.806-0.804 1.611-1.609 2.416-2.413-0.293 0.767-0.342 1.6-0.228 2.409-0.729-0.001-1.458 0-2.188 0.004z"></path>
<path fill="#f7fbf5" d="M5.029 14.918c0.564-0.761 1.61-0.944 2.471-0.637-0.957 0.891-1.866 1.797-2.753 2.756-0.214-0.705-0.22-1.531 0.282-2.119z"></path>
<path fill="#f7fbf5" d="M7.424 18.022c0.343-0.381 0.705-0.744 1.085-1.088-0.219 0.488-0.595 0.872-1.085 1.088z"></path>
</svg>
