<?xml version="1.0" encoding="utf-8"?>
<!-- Generated by IcoMoon.io -->
<!DOCTYPE svg PUBLIC "-//W3C//DTD SVG 1.1//EN" "http://www.w3.org/Graphics/SVG/1.1/DTD/svg11.dtd">
<svg version="1.1" xmlns="http://www.w3.org/2000/svg" xmlns:xlink="http://www.w3.org/1999/xlink" width="24" height="24" viewBox="0 0 24 24">
<path fill="#ed1c24" d="M11.471 0h1.007c2.64 0.13 5.245 1.1 7.258 2.827 2.531 2.106 4.093 5.288 4.265 8.573v1.108c-0.119 2.548-1.046 5.056-2.664 7.032-2.107 2.64-5.371 4.29-8.743 4.46h-1.144c-2.701-0.138-5.351-1.194-7.37-2.998-2.557-2.214-4.067-5.557-4.079-8.936v-0.127c0.008-3.467 1.602-6.888 4.268-9.107 1.997-1.72 4.58-2.683 7.202-2.832M10.62 3.446c-2.386 0.364-4.573 1.798-5.881 3.822-1.099 1.668-1.577 3.726-1.349 5.71 0.218 2.017 1.182 3.943 2.664 5.329 1.554 1.477 3.674 2.345 5.821 2.368 1.658 0.030 3.32-0.439 4.726-1.321 1.729-1.073 3.054-2.778 3.666-4.72 0.65-2.022 0.518-4.284-0.365-6.217-0.774-1.708-2.118-3.15-3.768-4.040-1.669-0.907-3.64-1.232-5.514-0.93z"></path>
<path fill="#fff" d="M10.62 3.446c1.874-0.302 3.845 0.023 5.514 0.93 1.65 0.89 2.994 2.333 3.768 4.040 0.883 1.933 1.015 4.195 0.365 6.217-0.612 1.942-1.937 3.647-3.666 4.72-1.405 0.882-3.067 1.351-4.726 1.321-2.147-0.023-4.267-0.89-5.821-2.368-1.482-1.386-2.446-3.312-2.664-5.329-0.228-1.984 0.25-4.042 1.349-5.71 1.308-2.024 3.496-3.458 5.881-3.822M5.419 9.6c0 1.307-0.001 2.614 0 3.92 0.226 0 0.45 0 0.674 0 0.001-0.557 0-1.115 0.001-1.672 0.35-0.011 0.734 0.054 1.050-0.14 0.749-0.449 0.64-1.846-0.251-2.065-0.486-0.086-0.984-0.026-1.475-0.043M8.202 9.607c0 1.304-0.001 2.609 0 3.913 0.644 0 1.289 0.001 1.934-0.001-0.001-0.208-0.001-0.415-0.001-0.623-0.419-0.001-0.838 0-1.255 0-0.002-0.371-0.002-0.742-0.001-1.111 0.382-0.001 0.762-0.001 1.144-0.001 0-0.208 0-0.416 0-0.624-0.382 0-0.763 0-1.144 0-0.001-0.308-0.001-0.617 0.001-0.924 0.418 0 0.836 0 1.255 0 0-0.21 0-0.42 0-0.63-0.644 0-1.289-0.001-1.933 0.001M11.534 9.6c-0.28 1.307-0.558 2.612-0.835 3.919 0.235 0 0.472 0.001 0.707 0.001 0.071-0.334 0.14-0.666 0.211-1 0.262-0.001 0.523-0.001 0.785 0 0.071 0.334 0.143 0.667 0.216 1 0.235 0 0.47-0.001 0.707-0.001-0.276-1.307-0.554-2.612-0.834-3.919-0.319 0-0.637 0-0.956 0M13.994 10.062c-0.216 0.582-0.137 1.216-0.154 1.823 0.016 0.485-0.017 1.042 0.316 1.436 0.409 0.406 1.105 0.35 1.537 0.010-0.017 0.259 0.227 0.187 0.401 0.192 0.001-0.71 0.001-1.421 0.001-2.13-0.389-0.001-0.776-0.001-1.164 0 0 0.206 0 0.414 0 0.622 0.163 0.001 0.328 0.002 0.491 0.004-0.013 0.271 0.026 0.556-0.071 0.815-0.108 0.3-0.596 0.343-0.737 0.049-0.15-0.313-0.086-0.673-0.102-1.008 0.019-0.499-0.044-1.007 0.049-1.5 0.049-0.358 0.588-0.448 0.751-0.13 0.068 0.182 0.082 0.38 0.113 0.571 0.224 0 0.45 0 0.676 0-0.028-0.426-0.083-0.961-0.52-1.171-0.524-0.221-1.34-0.191-1.588 0.418M16.66 9.606c-0.001 1.306-0.001 2.61 0 3.914 0.644 0.001 1.288 0 1.932 0.001 0-0.209 0-0.418 0-0.625-0.419 0-0.838-0.001-1.256 0-0.001-0.371-0.001-0.74-0.001-1.111 0.382-0.001 0.763-0.001 1.146-0.001 0-0.208 0-0.416 0-0.624-0.382 0-0.763 0-1.145 0-0.001-0.308-0.001-0.616-0.001-0.924 0.42 0 0.839 0 1.259-0.001-0.001-0.209-0.001-0.419-0.001-0.628-0.644-0.001-1.288-0.001-1.932-0.001M5.418 14.363c0 0.245 0 0.491 0 0.737 4.392 0 8.783 0 13.174-0.001 0-0.245 0.001-0.491 0.001-0.736-4.392-0.001-8.783-0.001-13.175 0z"></path>
<path fill="#fff" d="M6.095 10.23c0.224 0.018 0.47-0.042 0.679 0.055 0.268 0.223 0.259 0.754-0.065 0.923-0.204 0.025-0.409 0.016-0.614 0.018 0-0.332 0-0.665 0-0.996z"></path>
<path fill="#fff" d="M11.746 11.945c0.088-0.418 0.175-0.833 0.268-1.248 0.090 0.414 0.178 0.83 0.265 1.246-0.178 0.001-0.355 0.001-0.533 0.002z"></path>
<path fill="#000" d="M5.419 9.6c0.491 0.017 0.989-0.043 1.475 0.043 0.89 0.22 1 1.616 0.251 2.065-0.316 0.194-0.7 0.13-1.050 0.14-0.001 0.557 0 1.115-0.001 1.672-0.224 0-0.449 0-0.674 0-0.001-1.307 0-2.614 0-3.92M6.095 10.23c0 0.331 0 0.664 0 0.996 0.205-0.002 0.41 0.007 0.614-0.018 0.324-0.169 0.332-0.7 0.065-0.923-0.209-0.097-0.455-0.037-0.679-0.055z"></path>
<path fill="#000" d="M8.202 9.607c0.644-0.002 1.289-0.001 1.933-0.001 0 0.21 0 0.42 0 0.63-0.419 0-0.838 0-1.255 0-0.002 0.307-0.002 0.616-0.001 0.924 0.38 0 0.762 0 1.144 0 0 0.208 0 0.416 0 0.624-0.382 0-0.762 0-1.144 0.001-0.001 0.37-0.001 0.74 0.001 1.111 0.418 0 0.836-0.001 1.255 0 0 0.208 0 0.415 0.001 0.623-0.646 0.002-1.29 0.001-1.934 0.001-0.001-1.304 0-2.609 0-3.913z"></path>
<path fill="#000" d="M11.534 9.6c0.319 0 0.637 0 0.956 0 0.28 1.307 0.558 2.612 0.834 3.919-0.236 0-0.472 0.001-0.707 0.001-0.073-0.332-0.145-0.666-0.216-1-0.262-0.001-0.523-0.001-0.785 0-0.071 0.334-0.14 0.666-0.211 1-0.235 0-0.472-0.001-0.707-0.001 0.277-1.307 0.556-2.612 0.835-3.919M11.746 11.945c0.178-0.001 0.355-0.001 0.533-0.002-0.088-0.415-0.175-0.832-0.265-1.246-0.092 0.415-0.18 0.83-0.268 1.248z"></path>
<path fill="#000" d="M13.994 10.062c0.247-0.608 1.063-0.638 1.588-0.418 0.437 0.21 0.492 0.745 0.52 1.171-0.226 0-0.451 0-0.676 0-0.031-0.191-0.044-0.389-0.113-0.571-0.163-0.318-0.702-0.228-0.751 0.13-0.094 0.493-0.030 1.001-0.049 1.5 0.016 0.335-0.048 0.695 0.102 1.008 0.14 0.294 0.629 0.251 0.737-0.049 0.097-0.259 0.058-0.544 0.071-0.815-0.163-0.001-0.328-0.002-0.491-0.004 0-0.208 0-0.415 0-0.622 0.388-0.001 0.775-0.001 1.164 0 0 0.709 0 1.42-0.001 2.13-0.174-0.005-0.418 0.067-0.401-0.192-0.432 0.341-1.128 0.396-1.537-0.010-0.332-0.395-0.3-0.952-0.316-1.436 0.017-0.607-0.062-1.241 0.154-1.823z"></path>
<path fill="#000" d="M16.66 9.606c0.644 0 1.288 0 1.932 0.001 0 0.209 0 0.419 0.001 0.628-0.42 0.001-0.839 0.001-1.259 0.001 0 0.308 0 0.616 0.001 0.924 0.382 0 0.763 0 1.145 0 0 0.208 0 0.416 0 0.624-0.383 0-0.764 0-1.146 0.001 0 0.371 0 0.74 0.001 1.111 0.419-0.001 0.838 0 1.256 0 0 0.208 0 0.416 0 0.625-0.644-0.001-1.288 0-1.932-0.001-0.001-1.304-0.001-2.609 0-3.914z"></path>
<path fill="#000" d="M5.418 14.363c4.392-0.001 8.783-0.001 13.175 0 0 0.245-0.001 0.491-0.001 0.736-4.391 0.001-8.782 0.001-13.174 0.001 0-0.246 0-0.492 0-0.737z"></path>
</svg>
