<?xml version="1.0" encoding="utf-8"?>
<!-- Generated by IcoMoon.io -->
<!DOCTYPE svg PUBLIC "-//W3C//DTD SVG 1.1//EN" "http://www.w3.org/Graphics/SVG/1.1/DTD/svg11.dtd">
<svg version="1.1" xmlns="http://www.w3.org/2000/svg" xmlns:xlink="http://www.w3.org/1999/xlink" width="24" height="24" viewBox="0 0 24 24">
<path fill="#231f20" d="M11.387 23.694c0.376 0.374 0.984 0.374 1.36 0v0c0 0 11.044-11.044 11.045-11.045 0.374-0.376 0.374-0.985 0-1.361l-10.982-10.982c-0.375-0.374-0.985-0.374-1.361 0 0 0-11.044 11.044-11.045 11.045-0.374 0.376-0.375 0.985 0 1.361l10.982 10.982z"></path>
<path fill="#fff" d="M11.535 23.545c0.293 0.293 0.772 0.293 1.064 0l11.044-11.044c0.293-0.293 0.293-0.772 0-1.064l-10.982-10.982c-0.293-0.293-0.772-0.293-1.064 0l-11.044 11.044c-0.293 0.293-0.293 0.772 0 1.064l10.982 10.982z"></path>
<path fill="#edae15" d="M12.098 5.686l-6.314 6.314 6.314 6.314 6.314-6.314-6.314-6.314z"></path>
</svg>
