<?xml version="1.0" encoding="utf-8"?>
<!-- Generated by IcoMoon.io -->
<!DOCTYPE svg PUBLIC "-//W3C//DTD SVG 1.1//EN" "http://www.w3.org/Graphics/SVG/1.1/DTD/svg11.dtd">
<svg version="1.1" xmlns="http://www.w3.org/2000/svg" xmlns:xlink="http://www.w3.org/1999/xlink" width="24" height="24" viewBox="0 0 24 24">
<path fill="#c50000" d="M6.73 1.224c2.32-1.147 5.017-1.481 7.555-0.996 2.755 0.509 5.305 2.042 7.060 4.226 1.583 1.936 2.504 4.379 2.656 6.871v1.423c-0.19 2.664-1.236 5.273-3.036 7.258-2.062 2.344-5.078 3.776-8.185 3.994h-1.433c-1.597-0.106-3.181-0.497-4.615-1.212-2.696-1.297-4.853-3.659-5.92-6.451-1.061-2.731-1.061-5.849-0.026-8.587 1.056-2.825 3.228-5.215 5.945-6.526M10.748 2.376c-2.704 0.342-5.226 1.888-6.752 4.146-1.362 1.96-1.936 4.436-1.61 6.798 0.265 2.028 1.208 3.953 2.627 5.424 1.519 1.59 3.599 2.635 5.784 2.902 2.158 0.274 4.414-0.192 6.263-1.344 2.053-1.234 3.607-3.264 4.273-5.563 0.547-1.862 0.518-3.888-0.083-5.734-0.75-2.332-2.424-4.348-4.576-5.518-1.793-0.982-3.9-1.374-5.926-1.111z"></path>
<path fill="#fff" d="M10.748 2.376c2.026-0.263 4.133 0.13 5.926 1.111 2.152 1.17 3.826 3.186 4.576 5.518 0.601 1.846 0.63 3.871 0.083 5.734-0.666 2.299-2.22 4.33-4.273 5.563-1.849 1.152-4.105 1.618-6.263 1.344-2.185-0.266-4.265-1.312-5.784-2.902-1.418-1.471-2.362-3.396-2.627-5.424-0.325-2.362 0.248-4.838 1.61-6.798 1.526-2.258 4.049-3.804 6.752-4.146M12.846 8.396c-0.18 0.028-0.464 0.008-0.491 0.256-0.169 0.685-0.461 1.352-0.517 2.058 1.729-0.21 3.47-0.073 5.207-0.127 0.737-0.001 1.469 0.106 2.204 0.133 0.008-0.38-0.156-0.734-0.245-1.098-0.161-0.376-0.133-0.893-0.439-1.171-1.898-0.209-3.82-0.254-5.719-0.050M6.254 9.848c0.091 0.398 0.235 0.782 0.338 1.178-0.57-0.005-1.139-0.002-1.709-0.002 0 0.57 0 1.141 0 1.711 0.571 0 1.142 0.001 1.714 0-0.112 0.394-0.256 0.779-0.344 1.18-0.048 0.294 0.322 0.517 0.556 0.324 1.177-0.782 2.34-1.585 3.521-2.359-1.178-0.782-2.345-1.584-3.528-2.358-0.228-0.175-0.605 0.036-0.547 0.326M12.859 10.706c-0.474 0.089-1.094-0.058-1.42 0.386-0.289 0.484-0.217 1.084-0.203 1.622 0.034 0.346 0.116 0.842 0.536 0.904 2.55-0.041 5.102-0.029 7.651-0.008 0.29-0.109 0.35-0.446 0.414-0.712 0.102-0.558 0.092-1.153-0.114-1.687-0.084-0.223-0.294-0.389-0.533-0.404-0.794-0.092-1.594-0.166-2.394-0.154-1.313 0.006-2.629-0.054-3.938 0.053M11.675 13.708c-0.322-0.022-0.362 0.527-0.036 0.532 2.597 0.018 5.196 0.008 7.793 0.005 0.269 0.037 0.383-0.348 0.169-0.493-0.32-0.108-0.666-0.1-1-0.109-1.84 0.007-3.679-0.004-5.519 0.005-0.47 0.001-0.943-0.018-1.408 0.061M12.037 14.452c0 0.382-0.024 0.763 0.011 1.144 0.074 0.222 0.365 0.139 0.542 0.162 0.192-0.031 0.49 0.076 0.583-0.155 0.037-0.383 0.012-0.768 0.011-1.151-0.383-0.005-0.766-0.005-1.147 0M17.921 14.452c0.016 0.395-0.053 0.808 0.036 1.193 0.265 0.214 0.685 0.085 1.008 0.082 0.239-0.36 0.056-0.863 0.1-1.278-0.382-0.001-0.762-0.001-1.144 0.004z"></path>
<path fill="#fff" d="M12.821 8.999c1.795-0.157 3.612-0.227 5.404 0.004 0.158 0.427 0.312 0.858 0.462 1.289-2.108-0.156-4.228-0.166-6.337 0.001 0.151-0.433 0.301-0.868 0.472-1.294z"></path>
<path fill="#000" d="M12.846 8.396c1.9-0.204 3.821-0.158 5.719 0.050 0.306 0.278 0.278 0.796 0.439 1.171 0.089 0.364 0.253 0.718 0.245 1.098-0.736-0.028-1.468-0.134-2.204-0.133-1.736 0.054-3.478-0.083-5.207 0.127 0.056-0.706 0.348-1.373 0.517-2.058 0.026-0.247 0.311-0.228 0.491-0.256M12.821 8.999c-0.17 0.426-0.32 0.86-0.472 1.294 2.11-0.167 4.229-0.157 6.337-0.001-0.15-0.431-0.304-0.862-0.462-1.289-1.792-0.23-3.608-0.161-5.404-0.004z"></path>
<path fill="#000" d="M6.254 9.848c-0.058-0.29 0.319-0.502 0.547-0.326 1.183 0.774 2.35 1.576 3.528 2.358-1.181 0.774-2.344 1.577-3.521 2.359-0.234 0.193-0.604-0.030-0.556-0.324 0.089-0.401 0.233-0.786 0.344-1.18-0.571 0.001-1.142 0-1.714 0 0-0.57 0-1.141 0-1.711 0.57 0 1.139-0.002 1.709 0.002-0.103-0.396-0.247-0.78-0.338-1.178z"></path>
<path fill="#000" d="M12.859 10.706c1.309-0.107 2.626-0.047 3.938-0.053 0.8-0.012 1.6 0.061 2.394 0.154 0.239 0.016 0.449 0.181 0.533 0.404 0.206 0.534 0.216 1.129 0.114 1.687-0.064 0.265-0.124 0.602-0.414 0.712-2.549-0.020-5.101-0.032-7.651 0.008-0.42-0.061-0.503-0.558-0.536-0.904-0.014-0.539-0.086-1.139 0.203-1.622 0.325-0.444 0.946-0.298 1.42-0.386z"></path>
<path fill="#000" d="M11.675 13.708c0.464-0.079 0.937-0.060 1.408-0.061 1.84-0.008 3.679 0.002 5.519-0.005 0.334 0.010 0.679 0.001 1 0.109 0.214 0.145 0.1 0.53-0.169 0.493-2.597 0.004-5.196 0.013-7.793-0.005-0.326-0.005-0.286-0.553 0.036-0.532z"></path>
<path fill="#000" d="M12.037 14.452c0.382-0.005 0.764-0.005 1.147 0 0.001 0.383 0.026 0.768-0.011 1.151-0.094 0.23-0.391 0.124-0.583 0.155-0.178-0.023-0.468 0.060-0.542-0.162-0.035-0.38-0.011-0.762-0.011-1.144z"></path>
<path fill="#000" d="M17.921 14.452c0.382-0.005 0.762-0.005 1.144-0.004-0.043 0.415 0.139 0.918-0.1 1.278-0.323 0.004-0.743 0.132-1.008-0.082-0.089-0.385-0.020-0.798-0.036-1.193z"></path>
</svg>
