<?xml version="1.0" encoding="utf-8"?>
<!-- Generated by IcoMoon.io -->
<!DOCTYPE svg PUBLIC "-//W3C//DTD SVG 1.1//EN" "http://www.w3.org/Graphics/SVG/1.1/DTD/svg11.dtd">
<svg version="1.1" xmlns="http://www.w3.org/2000/svg" xmlns:xlink="http://www.w3.org/1999/xlink" width="24" height="24" viewBox="0 0 24 24">
<path fill="#000" d="M4.77 0h14.46v24h-14.46v-24M5.782 0.115c-0.505 0.096-0.921 0.564-0.914 1.087-0.007 7.030 0.001 14.061-0.004 21.091 0.009 0.327-0.043 0.679 0.119 0.98 0.193 0.408 0.651 0.658 1.097 0.633 3.816-0.001 7.631-0.002 11.447 0 0.327-0.008 0.68 0.043 0.978-0.125 0.411-0.189 0.66-0.643 0.631-1.091-0.003-7.164 0.004-14.329-0.003-21.494 0.008-0.625-0.588-1.146-1.202-1.103-3.753 0.002-7.504 0.001-11.256 0.001-0.297 0.003-0.596-0.017-0.892 0.020z"></path>
<path fill="#000" d="M6.010 0.345c3.973-0.008 7.946-0.003 11.919-0.003 0.53-0.038 1.001 0.44 0.959 0.969 0 7.13 0.001 14.258-0.001 21.388 0.038 0.522-0.429 0.99-0.951 0.957-3.976 0.002-7.952 0.006-11.928-0.002-0.505 0.009-0.929-0.457-0.895-0.956-0.002-7.131-0.001-14.261 0-21.393-0.037-0.501 0.389-0.972 0.897-0.96M5.919 0.858c-0.199 0.038-0.323 0.245-0.303 0.441-0.001 7.133-0.001 14.267 0 21.4-0.036 0.261 0.201 0.492 0.46 0.458 3.95 0 7.9 0 11.85 0 0.259 0.033 0.496-0.196 0.459-0.458 0.003-6.964-0.001-13.928 0.002-20.891-0.008-0.241 0.026-0.489-0.032-0.725-0.082-0.211-0.326-0.258-0.527-0.241-3.97 0.014-7.94-0.018-11.909 0.016z"></path>
<path fill="#000" d="M11.4 7.73c1.001-1.47 1.996-2.945 2.995-4.417 1.029 1.519 2.067 3.034 3.089 4.558 0.222 0.265-0.016 0.728-0.364 0.682-0.521-0.098-1.017-0.295-1.528-0.433-0.040 1.544 0.162 3.142-0.366 4.63-0.271 0.866-0.758 1.638-1.282 2.369-0.49 0.758-0.746 1.661-0.745 2.563-0.001 0.995 0.001 1.99 0 2.984-0.799 0-1.599 0-2.398 0 0.003-1.034-0.007-2.069 0.005-3.103 0.019-1.233 0.361-2.459 0.991-3.521 0.228-0.396 0.521-0.749 0.751-1.144 0.416-0.71 0.639-1.529 0.648-2.352 0.008-0.808 0-1.618 0.003-2.427-0.468 0.132-0.928 0.29-1.4 0.41-0.234 0.093-0.514-0.060-0.562-0.307-0.055-0.185 0.069-0.346 0.163-0.492z"></path>
<path fill="#000" d="M6.411 4.326c1.331-0.003 2.661-0.001 3.992-0.001-0.005 2.208-0.352 4.418-1.058 6.512-0.122 0.368-0.479 0.636-0.866 0.66-0.435 0.038-0.877-0.244-1.009-0.664-0.709-2.091-1.050-4.301-1.058-6.507z"></path>
<path fill="#fff" d="M5.782 0.115c0.295-0.037 0.594-0.017 0.892-0.020 3.752 0 7.503 0.001 11.256-0.001 0.614-0.043 1.21 0.478 1.202 1.103 0.007 7.165 0 14.33 0.003 21.494 0.029 0.448-0.22 0.902-0.631 1.091-0.298 0.168-0.651 0.116-0.978 0.125-3.816-0.002-7.631-0.001-11.447 0-0.446 0.025-0.904-0.225-1.097-0.633-0.162-0.301-0.109-0.653-0.119-0.98 0.005-7.030-0.003-14.061 0.004-21.091-0.007-0.522 0.409-0.99 0.914-1.087M6.010 0.345c-0.508-0.012-0.934 0.459-0.897 0.96-0.001 7.132-0.002 14.262 0 21.393-0.034 0.499 0.39 0.965 0.895 0.956 3.976 0.008 7.952 0.004 11.928 0.002 0.522 0.033 0.989-0.435 0.951-0.957 0.002-7.13 0.001-14.258 0.001-21.388 0.042-0.529-0.429-1.007-0.959-0.969-3.973 0-7.946-0.005-11.919 0.003z"></path>
<path fill="#fff" d="M5.919 0.858c3.969-0.034 7.939-0.002 11.909-0.016 0.201-0.017 0.445 0.030 0.527 0.241 0.058 0.236 0.024 0.484 0.032 0.725-0.003 6.963 0.001 13.927-0.002 20.891 0.037 0.262-0.2 0.491-0.459 0.458-3.95 0-7.9 0-11.85 0-0.259 0.034-0.496-0.197-0.46-0.458-0.001-7.133-0.001-14.267 0-21.4-0.020-0.196 0.104-0.403 0.303-0.441M11.4 7.73c-0.093 0.146-0.218 0.307-0.163 0.492 0.048 0.247 0.328 0.401 0.562 0.307 0.472-0.12 0.932-0.278 1.4-0.41-0.003 0.809 0.005 1.619-0.003 2.427-0.009 0.822-0.232 1.642-0.648 2.352-0.23 0.395-0.523 0.748-0.751 1.144-0.63 1.061-0.972 2.288-0.991 3.521-0.012 1.034-0.002 2.069-0.005 3.103 0.799 0 1.599 0 2.398 0 0.001-0.994-0.001-1.989 0-2.984-0.001-0.902 0.255-1.805 0.745-2.563 0.524-0.731 1.011-1.503 1.282-2.369 0.527-1.488 0.325-3.086 0.366-4.63 0.511 0.138 1.007 0.334 1.528 0.433 0.347 0.046 0.585-0.417 0.364-0.682-1.022-1.524-2.060-3.039-3.089-4.558-0.999 1.472-1.994 2.947-2.995 4.417M6.411 4.326c0.008 2.206 0.349 4.416 1.058 6.507 0.133 0.42 0.574 0.702 1.009 0.664 0.387-0.024 0.744-0.292 0.866-0.66 0.706-2.094 1.053-4.304 1.058-6.512-1.331 0-2.661-0.002-3.992 0.001z"></path>
</svg>
