<!-- Generated by IcoMoon.io -->
<svg version="1.1" xmlns="http://www.w3.org/2000/svg" width="24" height="24" viewBox="0 0 24 24">
<title>regulatory--no-u-turn--g1</title>
<path fill="#d71920" d="M10.254 0.574c2.389-0.343 4.89 0.082 7.018 1.23 2.573 1.358 4.574 3.752 5.472 6.52 0.714 2.171 0.75 4.559 0.108 6.752-0.683 2.356-2.156 4.471-4.121 5.938-2.020 1.525-4.559 2.344-7.090 2.281-2.742-0.044-5.444-1.134-7.463-2.988-1.74-1.586-2.981-3.721-3.468-6.028-0.59-2.734-0.144-5.683 1.268-8.101 1.709-3.004 4.847-5.143 8.275-5.604M6.071 4.674c0.775 0.824 1.556 1.643 2.339 2.461 0.61 0.643 1.218 1.288 1.832 1.926 1.648 1.744 3.308 3.476 4.957 5.22 0.893 0.932 1.78 1.871 2.671 2.804 0.304 0.32 0.607 0.64 0.91 0.96 1.82-2.016 2.675-4.855 2.257-7.54-0.329-2.287-1.568-4.421-3.376-5.856-1.65-1.333-3.779-2.056-5.899-2.020-2.053 0.018-4.098 0.746-5.692 2.044M2.657 12.607c0.178 2.404 1.351 4.715 3.19 6.275 1.742 1.522 4.075 2.336 6.385 2.239 1.752-0.058 3.47-0.644 4.915-1.632-0.324-0.335-0.646-0.672-0.966-1.010-0.336-0.355-0.674-0.71-1.012-1.064-1.802-1.901-3.614-3.792-5.41-5.699-0.817-0.84-1.614-1.7-2.429-2.544-0.925-0.982-1.86-1.957-2.788-2.936-1.39 1.794-2.076 4.11-1.886 6.372z"></path>
<path fill="#fff" d="M6.071 4.674c1.594-1.297 3.638-2.026 5.692-2.044 2.12-0.036 4.249 0.686 5.899 2.020 1.807 1.435 3.047 3.569 3.376 5.856 0.418 2.684-0.437 5.524-2.257 7.54-0.302-0.32-0.606-0.64-0.91-0.96-0.011-2.174 0.005-4.35-0.007-6.526-0.012-1.548-0.73-3.078-1.931-4.060-1.28-1.096-3.101-1.489-4.729-1.081-1.090 0.248-2.053 0.89-2.794 1.716-0.782-0.818-1.564-1.637-2.339-2.461z"></path>
<path fill="#fff" d="M2.657 12.607c-0.19-2.262 0.497-4.578 1.886-6.372 0.928 0.979 1.862 1.955 2.788 2.936-0.121 0.492-0.194 0.995-0.193 1.502-0.004 1.254 0 2.508-0.004 3.762-0.41-0.098-0.817-0.206-1.229-0.298 0.83 1.454 1.669 2.904 2.503 4.356 0.834-1.45 1.67-2.899 2.501-4.351-0.379 0.088-0.755 0.186-1.133 0.277-0.011-0.902 0.017-1.804-0.017-2.705 1.795 1.907 3.607 3.798 5.41 5.699 0.011 0.354 0.013 0.709 0.008 1.064 0.335 0.001 0.668 0.001 1.003 0 0.32 0.338 0.642 0.676 0.966 1.010-1.445 0.988-3.163 1.574-4.915 1.632-2.31 0.097-4.643-0.718-6.385-2.239-1.838-1.56-3.012-3.871-3.19-6.275z"></path>
<path fill="#fff" d="M10.242 9.061c0.674-0.967 1.987-1.422 3.107-1.027 1.028 0.334 1.8 1.327 1.841 2.412 0.025 1.278-0.018 2.557 0.010 3.835-1.649-1.744-3.31-3.476-4.957-5.22z"></path>
<path fill="#231f20" d="M11.203 5.419c1.628-0.408 3.449-0.014 4.729 1.081 1.201 0.982 1.919 2.512 1.931 4.060 0.012 2.176-0.004 4.351 0.007 6.526-0.892-0.934-1.778-1.872-2.671-2.804-0.028-1.278 0.016-2.557-0.010-3.835-0.041-1.085-0.812-2.078-1.841-2.412-1.12-0.395-2.432 0.060-3.107 1.027-0.614-0.638-1.223-1.283-1.832-1.926 0.74-0.826 1.704-1.468 2.794-1.716z"></path>
<path fill="#231f20" d="M7.331 9.172c0.815 0.844 1.612 1.704 2.429 2.544 0.034 0.901 0.006 1.802 0.017 2.705 0.378-0.091 0.754-0.19 1.133-0.277-0.83 1.452-1.667 2.902-2.501 4.351-0.834-1.452-1.673-2.902-2.503-4.356 0.412 0.091 0.818 0.199 1.229 0.298 0.004-1.254 0-2.508 0.004-3.762-0.001-0.508 0.072-1.010 0.193-1.502z"></path>
<path fill="#231f20" d="M15.169 17.414c0.337 0.354 0.676 0.709 1.012 1.064-0.335 0.001-0.668 0.001-1.003 0 0.005-0.355 0.002-0.71-0.008-1.064z"></path>
</svg>
