<?xml version="1.0" encoding="utf-8"?>
<!-- Generated by IcoMoon.io -->
<!DOCTYPE svg PUBLIC "-//W3C//DTD SVG 1.1//EN" "http://www.w3.org/Graphics/SVG/1.1/DTD/svg11.dtd">
<svg version="1.1" xmlns="http://www.w3.org/2000/svg" xmlns:xlink="http://www.w3.org/1999/xlink" width="24" height="24" viewBox="0 0 24 24">
<path fill="#c0111e" d="M11.386 0h1.162c2.732 0.142 5.414 1.2 7.451 3.038 2.436 2.152 3.9 5.328 4.002 8.573v0.754c-0.095 2.964-1.31 5.881-3.39 8-2.096 2.184-5.045 3.479-8.060 3.635h-1.096c-2.474-0.137-4.91-1.008-6.858-2.549-2.801-2.164-4.525-5.623-4.596-9.16v-0.58c0.066-3.049 1.336-6.056 3.505-8.204 2.070-2.104 4.944-3.336 7.88-3.508M10.63 2.381c-2.749 0.371-5.296 1.99-6.787 4.328-1.312 2-1.816 4.496-1.432 6.852 0.352 2.225 1.512 4.312 3.22 5.779 1.562 1.36 3.57 2.202 5.638 2.342 2.246 0.18 4.548-0.457 6.377-1.775 1.76-1.243 3.078-3.098 3.676-5.168 0.655-2.23 0.485-4.694-0.49-6.805-0.726-1.584-1.886-2.965-3.325-3.949-1.982-1.374-4.492-1.942-6.876-1.604z"></path>
<path fill="#fff" d="M10.63 2.381c2.384-0.337 4.894 0.23 6.876 1.604 1.439 0.984 2.599 2.365 3.325 3.949 0.974 2.111 1.145 4.576 0.49 6.805-0.598 2.070-1.915 3.925-3.676 5.168-1.829 1.318-4.13 1.955-6.377 1.775-2.068-0.14-4.075-0.983-5.638-2.342-1.708-1.468-2.868-3.554-3.22-5.779-0.384-2.356 0.12-4.852 1.432-6.852 1.492-2.339 4.038-3.958 6.787-4.328M7.496 9.437c-1.098 0.209-1.984 1.195-2.075 2.308-0.116 1.034 0.466 2.086 1.381 2.567 0.853 0.466 1.974 0.391 2.75-0.198 0.92-0.644 1.326-1.918 0.94-2.975-0.4-1.207-1.752-1.982-2.996-1.702M15.415 9.445c-1.051 0.216-1.903 1.142-2.030 2.207-0.139 0.964 0.322 1.979 1.134 2.513 0.863 0.612 2.114 0.598 2.963-0.036 0.823-0.566 1.262-1.637 1.062-2.618-0.23-1.405-1.742-2.408-3.128-2.065z"></path>
<path fill="#fff" d="M5.828 12.192c1.463 0 2.926-0.001 4.388 0.001-0.085 0.64-0.431 1.255-0.98 1.606-0.702 0.478-1.69 0.486-2.399 0.019-0.564-0.35-0.923-0.973-1.009-1.626z"></path>
<path fill="#fff" d="M13.782 12.193c1.463-0.002 2.926-0.001 4.388 0-0.088 0.648-0.443 1.271-1.004 1.621-0.71 0.47-1.699 0.463-2.404-0.016-0.548-0.353-0.898-0.965-0.98-1.606z"></path>
<path fill="#000" d="M7.496 9.437c1.244-0.281 2.597 0.494 2.996 1.702 0.386 1.057-0.019 2.33-0.94 2.975-0.776 0.589-1.897 0.664-2.75 0.198-0.916-0.481-1.498-1.532-1.381-2.567 0.091-1.112 0.977-2.099 2.075-2.308M5.828 12.192c0.086 0.653 0.445 1.276 1.009 1.626 0.709 0.467 1.697 0.458 2.399-0.019 0.55-0.35 0.895-0.966 0.98-1.606-1.463-0.002-2.926-0.001-4.388-0.001z"></path>
<path fill="#000" d="M15.415 9.445c1.386-0.343 2.898 0.66 3.128 2.065 0.2 0.982-0.239 2.052-1.062 2.618-0.848 0.634-2.1 0.648-2.963 0.036-0.812-0.534-1.273-1.549-1.134-2.513 0.127-1.064 0.979-1.991 2.030-2.207M13.782 12.193c0.083 0.641 0.432 1.253 0.98 1.606 0.704 0.479 1.693 0.486 2.404 0.016 0.562-0.35 0.917-0.973 1.004-1.621-1.463-0.001-2.926-0.002-4.388 0z"></path>
</svg>
