<!-- Generated by IcoMoon.io -->
<svg version="1.1" xmlns="http://www.w3.org/2000/svg" width="24" height="24" viewBox="0 0 24 24">
<title>regulatory--no-heavy-goods-vehicles-motorcycles-or-bicycles--g1</title>
<path fill="#cd171e" d="M10.71 0h2.561c4.311 0.511 8.273 3.405 9.871 7.47 0.436 1.029 0.651 2.13 0.858 3.222v2.596c-0.494 4.005-3.010 7.723-6.666 9.487-1.262 0.65-2.652 0.981-4.042 1.225h-2.57c-4.312-0.507-8.261-3.411-9.862-7.47-0.44-1.034-0.651-2.141-0.86-3.238v-2.569c0.204-1.104 0.42-2.214 0.86-3.254 1.597-4.059 5.545-6.951 9.85-7.47M7.103 4.12c-1.050 0.601-1.92 1.459-2.689 2.383 2.462 1.428 4.941 2.829 7.392 4.28 2.466-1.43 4.931-2.863 7.409-4.275-0.776-0.925-1.648-1.79-2.704-2.392-2.826-1.72-6.582-1.709-9.408 0.004M3.293 8.449c-1.099 2.605-0.938 5.7 0.474 8.155 1.401 2.535 4.059 4.271 6.917 4.653-0.012-2.853-0.001-5.707-0.005-8.56-2.466-1.409-4.923-2.835-7.386-4.249M12.931 12.703c-0.001 2.849 0.009 5.699-0.005 8.548 4.085-0.47 7.598-3.915 8.054-8.016 0.2-1.624-0.044-3.273-0.646-4.791-2.469 1.418-4.932 2.845-7.402 4.259z"></path>
<path fill="#fff" d="M7.103 4.12c2.826-1.712 6.582-1.724 9.408-0.004 1.056 0.602 1.928 1.467 2.704 2.392-2.478 1.411-4.943 2.845-7.409 4.275-2.451-1.45-4.93-2.851-7.392-4.28 0.769-0.924 1.64-1.782 2.689-2.383M10.816 4.539c-0.003 0.093-0.008 0.28-0.012 0.374-0.577-0.013-1.168-0.031-1.72 0.165-0.145 0.819-0.725 1.466-0.787 2.31-0.28 0.411 0.235 0.365 0.514 0.41 0.108 0.896 1.383 0.865 1.457-0.034 1.009-0.001 2.019-0.001 3.028 0 0.009 0.896 1.314 0.929 1.414 0.062 0.252-0.24 0.551-0.415 0.864-0.563 0-0.079 0.001-0.236 0.001-0.314l-0.001-0.198c-0.009-0.737-0.006-1.474 0.004-2.211-1.587 0-3.174 0.001-4.761-0.001z"></path>
<path fill="#fff" d="M9.291 5.345c0.365-0.147 0.791-0.043 1.182-0.070-0.004 0.315-0.005 0.63-0.006 0.946-0.509 0.006-1.016 0.005-1.524 0.006 0.118-0.293 0.217-0.594 0.349-0.882z"></path>
<path fill="#fff" d="M3.293 8.449c2.462 1.414 4.919 2.84 7.386 4.249 0.004 2.853-0.006 5.707 0.005 8.56-2.858-0.383-5.516-2.118-6.917-4.653-1.411-2.454-1.572-5.55-0.474-8.155M7.341 12.704c-0.073 0.144-0.145 0.288-0.219 0.431 0.082 0.179 0.162 0.358 0.245 0.537-0.262 0.311-0.453 0.768-0.902 0.838-0.361-0.021-0.688-0.205-1.035-0.289-0.121 0.342 0.374 1.118-0.236 1.074-0.942-0.090-1.194 1.449-0.35 1.786 0.593 0.276 1.066-0.219 1.472-0.576-0.093-0.372-0.228-0.733-0.446-1.051 0.058-0.108 0.118-0.217 0.176-0.324 0.147 0.224 0.291 0.453 0.436 0.678-0.006 0.224-0.009 0.45-0.010 0.676 0.549 0.18 1.129 0.117 1.696 0.125 0.499 0.843 1.526 0.499 1.95-0.218-0.090-0.292-0.128-0.594-0.145-0.898-0.252-0.171-0.494-0.358-0.693-0.59-0.108-0.026-0.217-0.052-0.326-0.077-0.211-0.488-0.52-0.921-0.882-1.309 0.345-0.547-0.17-1.066-0.73-0.813z"></path>
<path fill="#fff" d="M12.931 12.703c2.47-1.414 4.934-2.841 7.402-4.259 0.602 1.518 0.846 3.167 0.646 4.791-0.455 4.101-3.968 7.546-8.054 8.016 0.014-2.849 0.004-5.699 0.005-8.548M14.94 13.463c-0.010 0.102-0.029 0.306-0.038 0.407 0.131 0.061 0.263 0.122 0.396 0.183-0.097 0.258-0.188 0.52-0.275 0.782-0.872-0.324-1.945 0.436-1.699 1.391 0.147 1.096 1.849 1.264 2.253 0.256 0.4-0.637-0.189-1.206-0.429-1.758 0.464 0.345 0.812 0.815 1.199 1.239 0 0.091 0 0.272 0 0.363 0.217 0.149 0.435 0.318 0.371 0.619 0.080-0.016 0.243-0.047 0.323-0.062-0.052-0.080-0.154-0.241-0.206-0.322 0.148-0.114 0.235-0.394 0.455-0.346 0.205 0.463 0.559 0.97 1.13 0.938 0.952 0.138 1.697-1.126 1.090-1.88-0.349-0.515-1.033-0.592-1.579-0.38-0.144-0.227-0.292-0.45-0.44-0.673 0.198-0.171 0.402-0.335 0.601-0.505-0.392-0.084-0.794-0.082-1.191-0.047 0.173 0.17 0.358 0.324 0.538 0.485-0.65 0.009-1.299 0.001-1.949 0.003 0.013-0.056 0.038-0.169 0.051-0.224-0.174-0.087-0.348-0.176-0.519-0.266 0.275-0.025 0.55-0.058 0.822-0.101-0.292-0.099-0.602-0.093-0.904-0.101z"></path>
<path fill="#fff" d="M15.296 14.39c0.663-0.016 1.326 0.001 1.99-0.005-0.173 0.501-0.333 1.007-0.524 1.501-0.016-0.183-0.030-0.365-0.043-0.546-0.073 0.025-0.219 0.075-0.293 0.101 0.071 0.153 0.141 0.309 0.209 0.464-0.514-0.441-0.935-0.974-1.339-1.515z"></path>
<path fill="#fff" d="M18.013 15.053c0.787-0.319 1.75 0.375 1.43 1.253-0.33 0.95-1.719 0.774-1.972-0.143 0.426-0.043 0.855-0.006 1.28-0.047-0.18-0.396-0.515-0.693-0.738-1.064z"></path>
<path fill="#242021" d="M10.816 4.539c1.587 0.003 3.174 0.001 4.761 0.001-0.010 0.737-0.013 1.474-0.004 2.211-1.603 0.048-3.224-0.135-4.813 0.125 1.589 0.241 3.212 0.122 4.814 0.074 0 0.078-0.001 0.235-0.001 0.314-0.313 0.148-0.612 0.323-0.864 0.563-0.1 0.867-1.405 0.834-1.414-0.062-1.009-0.001-2.019-0.001-3.028 0-0.074 0.899-1.349 0.93-1.457 0.034-0.279-0.045-0.794 0.001-0.514-0.41 0.062-0.845 0.642-1.492 0.787-2.31 0.553-0.196 1.143-0.178 1.72-0.165 0.004-0.093 0.009-0.28 0.012-0.374M9.291 5.345c-0.132 0.288-0.231 0.589-0.349 0.882 0.509-0.001 1.016 0 1.524-0.006 0.001-0.315 0.003-0.63 0.006-0.946-0.39 0.027-0.817-0.077-1.182 0.070z"></path>
<path fill="#676364" d="M10.76 6.876c1.589-0.259 3.21-0.077 4.813-0.125l0.001 0.198c-1.602 0.048-3.225 0.167-4.814-0.074z"></path>
<path fill="#201d1e" d="M7.341 12.704c0.56-0.253 1.075 0.266 0.73 0.813 0.362 0.388 0.671 0.821 0.882 1.309 0.109 0.025 0.218 0.051 0.326 0.077 0.198 0.232 0.441 0.419 0.693 0.59 0.017 0.304 0.056 0.606 0.145 0.898-0.424 0.717-1.45 1.061-1.95 0.218-0.567-0.008-1.147 0.056-1.696-0.125 0.001-0.226 0.004-0.451 0.010-0.676-0.145-0.226-0.289-0.454-0.436-0.678-0.058 0.108-0.118 0.217-0.176 0.324 0.218 0.318 0.353 0.678 0.446 1.051-0.406 0.357-0.88 0.852-1.472 0.576-0.843-0.337-0.592-1.876 0.35-1.786 0.61 0.044 0.115-0.732 0.236-1.074 0.348 0.084 0.675 0.269 1.035 0.289 0.449-0.070 0.64-0.527 0.902-0.838-0.083-0.179-0.163-0.358-0.245-0.537 0.074-0.143 0.147-0.287 0.219-0.431M7.458 14.406c-0.138 0.131-0.276 0.259-0.415 0.39 0.249 0.106 0.509 0.096 0.759 0.006-0.114-0.132-0.23-0.263-0.344-0.397M6.422 15.189c0.082 0.158 0.163 0.318 0.244 0.477 0.232 0.013 0.464 0.023 0.697 0.027-0.25-0.27-0.618-0.357-0.941-0.505M8.112 15.418c0.097 0.152 0.195 0.306 0.289 0.461 0.113-0.157 0.227-0.314 0.34-0.471-0.209 0.004-0.419 0.006-0.629 0.010M4.884 16.66c0.512 0.449 1.178-0.314 0.734-0.81-0.022 0.227-0.040 0.453-0.052 0.681-0.197 0.045-0.397 0.082-0.597 0.113-0.065-0.14-0.128-0.28-0.193-0.42 0.154-0.179 0.313-0.357 0.461-0.541-0.454 0.080-0.794 0.645-0.353 0.977M7.562 15.788c0.051 0.087 0.152 0.262 0.202 0.349-0.058 0.13-0.117 0.261-0.174 0.392 0.187-0.093 0.37-0.191 0.55-0.294-0.093-0.204-0.188-0.407-0.283-0.61-0.074 0.040-0.222 0.123-0.296 0.163M9.011 15.623c0.184 0.228 0.379 0.448 0.588 0.654-0.023-0.34-0.265-0.572-0.588-0.654M8.859 16.699c0.602 0.306 0.296-0.453 0 0z"></path>
<path fill="#181617" d="M14.94 13.463c0.302 0.008 0.612 0.003 0.904 0.101-0.272 0.043-0.547 0.077-0.822 0.101 0.171 0.090 0.345 0.179 0.519 0.266-0.013 0.056-0.038 0.169-0.051 0.224 0.65-0.001 1.299 0.006 1.949-0.003-0.18-0.161-0.366-0.315-0.538-0.485 0.397-0.035 0.799-0.038 1.191 0.047-0.198 0.17-0.402 0.333-0.601 0.505 0.148 0.223 0.296 0.446 0.44 0.673 0.546-0.211 1.23-0.135 1.579 0.38 0.607 0.754-0.138 2.017-1.090 1.88-0.571 0.032-0.925-0.475-1.13-0.938-0.221-0.048-0.307 0.232-0.455 0.346 0.052 0.080 0.154 0.241 0.206 0.322-0.080 0.016-0.243 0.047-0.323 0.062 0.064-0.301-0.154-0.47-0.371-0.619 0-0.091 0-0.272 0-0.363-0.387-0.424-0.734-0.894-1.199-1.239 0.24 0.551 0.829 1.121 0.429 1.758-0.405 1.008-2.107 0.841-2.253-0.256-0.245-0.955 0.828-1.715 1.699-1.391 0.087-0.262 0.178-0.524 0.275-0.782-0.132-0.061-0.265-0.122-0.396-0.183 0.009-0.101 0.027-0.305 0.038-0.407M15.296 14.39c0.403 0.541 0.825 1.074 1.339 1.515-0.067-0.156-0.138-0.311-0.209-0.464 0.074-0.026 0.221-0.077 0.293-0.101 0.013 0.182 0.027 0.363 0.043 0.546 0.191-0.494 0.352-1 0.524-1.501-0.664 0.006-1.327-0.010-1.99 0.005M17.442 14.525c-0.158 0.496-0.339 0.985-0.479 1.485 0.518-0.043 0.418-0.741 0.776-1.024-0.101-0.153-0.2-0.307-0.297-0.462M13.491 15.955c-0.034 0.773 0.976 1.332 1.583 0.815 0.558-0.366 0.479-1.147 0.088-1.605-0.166 0.402-0.397 0.772-0.651 1.123-0.102-0.127-0.204-0.256-0.301-0.385 0.45-0.071 0.638-0.458 0.758-0.848-0.632-0.272-1.472 0.188-1.476 0.9M18.013 15.053c0.223 0.371 0.558 0.668 0.738 1.064-0.426 0.040-0.855 0.004-1.28 0.047 0.253 0.917 1.642 1.092 1.972 0.143 0.32-0.878-0.642-1.572-1.43-1.253M17.829 15.154c-0.135 0.259-0.262 0.523-0.365 0.797 0.292 0.004 0.585 0.001 0.878-0.005-0.161-0.271-0.333-0.533-0.514-0.791z"></path>
<path fill="#fffefe" d="M7.458 14.406c0.114 0.134 0.23 0.265 0.344 0.397-0.25 0.090-0.51 0.1-0.759-0.006 0.139-0.131 0.278-0.259 0.415-0.39z"></path>
<path fill="#fffefe" d="M17.442 14.525c0.097 0.154 0.196 0.309 0.297 0.462-0.358 0.283-0.258 0.981-0.776 1.024 0.14-0.501 0.32-0.99 0.479-1.485z"></path>
<path fill="#fffefe" d="M13.491 15.955c0.004-0.712 0.845-1.173 1.476-0.9-0.119 0.39-0.307 0.777-0.758 0.848 0.097 0.13 0.198 0.258 0.301 0.385 0.254-0.352 0.485-0.721 0.651-1.123 0.39 0.458 0.47 1.239-0.088 1.605-0.607 0.518-1.616-0.042-1.583-0.815z"></path>
<path fill="#fffefe" d="M4.884 16.66c-0.441-0.332-0.101-0.896 0.353-0.977-0.148 0.184-0.306 0.362-0.461 0.541 0.065 0.14 0.128 0.28 0.193 0.42 0.2-0.031 0.4-0.067 0.597-0.113 0.012-0.228 0.030-0.454 0.052-0.681 0.444 0.496-0.222 1.258-0.734 0.81z"></path>
<path fill="#fffefe" d="M7.562 15.788c0.074-0.040 0.222-0.123 0.296-0.163 0.095 0.202 0.189 0.406 0.283 0.61-0.18 0.104-0.363 0.201-0.55 0.294 0.057-0.131 0.115-0.262 0.174-0.392-0.051-0.087-0.152-0.262-0.202-0.349z"></path>
<path fill="#fffefe" d="M9.011 15.623c0.323 0.082 0.564 0.314 0.588 0.654-0.209-0.206-0.403-0.426-0.588-0.654z"></path>
<path fill="#fdfdfd" d="M6.422 15.189c0.323 0.148 0.69 0.235 0.941 0.505-0.232-0.004-0.464-0.014-0.697-0.027-0.080-0.16-0.162-0.319-0.244-0.477z"></path>
<path fill="#fdfdfd" d="M17.829 15.154c0.18 0.258 0.353 0.52 0.514 0.791-0.293 0.006-0.586 0.009-0.878 0.005 0.102-0.274 0.23-0.537 0.365-0.797z"></path>
<path fill="#7d797a" d="M8.112 15.418c0.21-0.004 0.42-0.006 0.629-0.010-0.113 0.157-0.227 0.314-0.34 0.471-0.095-0.154-0.192-0.309-0.289-0.461z"></path>
<path fill="#f4f2f3" d="M8.859 16.699c0.296-0.453 0.602 0.306 0 0z"></path>
</svg>
