<svg xmlns="http://www.w3.org/2000/svg" width="24" height="24">
    <path fill="#fff" d="M2.5 0h.815A1.009 1.009 0 0 0 2.5.751V0zM20.5 0h.866v24H2.5v-.813c.09.43.496.767.938.759H20.04c.22-.004.449.024.66-.058a.955.955 0 0 0 .623-.868V1.282c-.001-.254.029-.525-.1-.757-.135-.283-.418-.471-.723-.527z"/>
    <path fill="#fff" d="M3.366.571c.138-.023.278-.014.417-.015C9.289.557 14.794.555 20.3.557c.243-.027.481.172.465.423.003 7.318.001 14.637.001 21.955a.412.412 0 0 1-.424.454c-5.621.004-11.241.001-16.862.001-.23.018-.45-.179-.435-.414V.982a.397.397 0 0 1 .321-.411zm1.081 2.913c-.221.345-.159.859.176 1.11.353.273.829.255 1.218.446.148.065.252.228.213.392-.045.238-.294.366-.516.393-.418.083-.805-.166-1.051-.484-.151.096-.298.198-.446.299.468.643 1.428.96 2.131.514.528-.314.594-1.165.092-1.533-.393-.222-.864-.247-1.266-.447-.218-.101-.171-.445.044-.522.395-.175.841.01 1.129.3.138-.116.277-.231.412-.351-.33-.357-.813-.601-1.307-.564-.323.014-.655.165-.83.447zm6.482-.425c-.002 1.087-.001 2.175 0 3.262h2.384v-.545c-.602-.002-1.205.001-1.807-.001v-.929c.32-.002.641 0 .961-.001v-.556c-.319.001-.637-.002-.956.002-.012-.228-.004-.457-.006-.686.588-.002 1.176.001 1.764-.001v-.545h-2.341zm-3.445 0v3.272h.567c.001-.431-.001-.862.001-1.292.532-.041 1.128.122 1.6-.197.48-.316.545-1.078.14-1.48-.217-.219-.533-.3-.833-.3-.491-.005-.983-.001-1.474-.002zm6.471.001v3.271h2.385v-.554c-.602-.003-1.205 0-1.807-.001v-.93c.32-.001.641.001.962-.001V4.29c-.32-.001-.641.001-.962-.001a75.488 75.488 0 0 1 0-.673c.588-.001 1.176.001 1.763-.001V3.06a913.38 913.38 0 0 0-2.341 0zm3.037 0v3.271c.655-.018 1.395.107 1.951-.327.803-.602.811-1.963.043-2.596-.554-.473-1.325-.321-1.994-.348zM5.933 7.968v3.262h2.373v-.545H6.5c-.002-.905 0-1.81-.001-2.716a53.582 53.582 0 0 0-.567 0zm2.963 0v3.261h.566V7.968a53.393 53.393 0 0 0-.566 0zm1.433 0v3.262h.554c.003-.662 0-1.325.001-1.987.299.649.593 1.299.893 1.947.319-.65.624-1.307.945-1.956.003.665-.001 1.33.002 1.996h.554c-.002-1.087.021-2.174.011-3.262a56.843 56.843 0 0 0-.584 0c-.304.646-.61 1.29-.918 1.935l-.914-1.935a49.686 49.686 0 0 0-.546 0zm3.829 0v3.261h.566V7.968a53.393 53.393 0 0 0-.566 0zm1.198.001v.533c.295.002.591-.001.886.001.002.909-.001 1.817.001 2.726h.577c.002-.909-.001-1.818.001-2.726.299-.002.598 0 .897-.001.001-.178.001-.356 0-.534h-2.363zm.338 4.758c-1.012.082-1.928.725-2.403 1.613-.492.887-.637 1.926-.596 2.929.05 1.432.753 2.968 2.125 3.565.983.428 2.193.317 3.062-.32 1.1-.8 1.536-2.221 1.549-3.531.024-1.291-.314-2.705-1.336-3.572-.655-.559-1.554-.776-2.4-.684zm-6.582.222c-1.636 1.686-3.258 3.388-4.889 5.079v1.405c1.615.002 3.23-.001 4.844.001.001.559-.001 1.119.001 1.678h1.422v-1.689c.371-.002.741.001 1.112-.001v-1.368c-.374-.002-.748 0-1.123-.001v-5.122c-.454.011-.92-.026-1.367.018z"/>
    <path fill="#fff" d="M8.052 3.627c.402.024.82-.058 1.21.05.344.115.322.656-.024.75-.385.093-.792.021-1.186.043v-.843zM17.549 3.627c.432-.014.956-.028 1.246.356.308.435.335 1.123-.058 1.515-.32.295-.783.275-1.188.266V3.627zM15.906 14.133c.56-.063 1.148.164 1.493.615.447.57.583 1.316.6 2.024.022.832-.134 1.741-.726 2.366-.608.641-1.73.691-2.377.082-.55-.516-.737-1.296-.774-2.024-.033-.764.061-1.573.474-2.234.28-.457.77-.788 1.31-.829zM6.082 18.063c.998-1.043 1.991-2.089 2.995-3.126v3.126H6.082z"/>
    <path fill="#231f20" d="M3.315 0h17.186c.305.056.588.243.723.527.129.231.099.503.1.757v21.738a.958.958 0 0 1-.623.868c-.21.081-.44.054-.66.058H3.439a.972.972 0 0 1-.938-.759V.753c.091-.387.423-.69.815-.751zm.051.571a.397.397 0 0 0-.321.411v21.994c-.015.235.205.432.435.414 5.621 0 11.241.003 16.862-.001a.412.412 0 0 0 .424-.454c0-7.318.002-14.637-.001-21.955.016-.251-.222-.45-.465-.423C14.794.555 9.289.557 3.783.556c-.139.001-.279-.008-.417.015z"/>
    <path fill="#231f20" d="M4.447 3.484c.174-.282.507-.433.83-.447.494-.037.978.207 1.307.564-.135.119-.274.234-.412.351-.288-.29-.733-.475-1.129-.3-.215.076-.262.421-.044.522.402.2.873.225 1.266.447.502.367.436 1.219-.092 1.533-.703.445-1.663.129-2.131-.514.148-.101.295-.203.446-.299.246.318.633.566 1.051.484.222-.027.471-.154.516-.393.039-.163-.064-.327-.213-.392-.389-.191-.865-.173-1.218-.446-.335-.251-.397-.764-.176-1.11zM10.929 3.059h2.341v.545c-.588.002-1.176-.001-1.764.001.002.228-.006.457.006.686.318-.004.637-.001.956-.002v.556c-.32.002-.641-.001-.961.001v.929c.603.003 1.205 0 1.807.001v.545H10.93V3.059zM7.484 3.059c.491 0 .983-.003 1.474.002.3 0 .616.081.833.3.404.403.34 1.164-.14 1.48-.472.32-1.068.156-1.6.197-.002.431 0 .862-.001 1.292h-.567V3.058zm.568.568v.843c.394-.021.8.05 1.186-.043.347-.094.368-.635.024-.75-.391-.108-.809-.026-1.21-.05zM13.955 3.06h2.341v.555c-.588.002-1.176 0-1.763.001v.673c.321.002.641 0 .962.001v.555c-.32.002-.641 0-.962.001v.93c.603.002 1.205-.001 1.807.001v.554c-.795.002-1.59.001-2.385 0V3.06zM16.992 3.06c.669.027 1.44-.124 1.994.348.768.634.76 1.994-.043 2.596-.556.434-1.296.309-1.951.327V3.06zm.557.567v2.137c.405.009.868.029 1.188-.266.393-.393.366-1.081.058-1.515-.29-.383-.814-.37-1.246-.356zM5.933 7.968H6.5c.001.905-.001 1.81.001 2.716h1.806v.545H5.934V7.967zM8.896 7.968h.566v3.261c-.189.002-.378.002-.566 0V7.968zM10.329 7.968h.546l.914 1.935c.308-.644.614-1.289.918-1.935.194-.002.389-.001.584 0 .009 1.087-.013 2.175-.011 3.262h-.554c-.003-.665.001-1.33-.002-1.996-.321.649-.626 1.306-.945 1.956-.3-.648-.595-1.298-.893-1.947-.002.662.001 1.325-.001 1.987h-.554c-.002-1.087-.001-2.175 0-3.262zM14.158 7.968h.566v3.261c-.189.002-.378.001-.566 0V7.968zM15.356 7.969a620.42 620.42 0 0 1 2.363 0c.001.178.001.356 0 .534-.299.001-.598-.001-.897.001-.002.909.001 1.817-.001 2.726h-.577c-.002-.909.001-1.818-.001-2.726-.296-.002-.591.001-.886-.001a47.348 47.348 0 0 1 0-.533zM15.694 12.727c.847-.091 1.745.126 2.4.684 1.023.867 1.36 2.281 1.336 3.572-.013 1.31-.449 2.731-1.549 3.531-.869.637-2.079.748-3.062.32-1.372-.598-2.075-2.133-2.125-3.565-.042-1.002.104-2.042.595-2.929.476-.888 1.392-1.532 2.403-1.613zm.212 1.406c-.54.041-1.03.372-1.31.829-.413.661-.507 1.47-.474 2.234.037.728.225 1.508.774 2.024.646.61 1.769.56 2.377-.082.592-.625.749-1.534.726-2.366-.017-.707-.153-1.454-.6-2.024-.345-.451-.933-.678-1.493-.615zM9.112 12.949c.447-.044.913-.007 1.367-.018v5.122c.374.001.749-.001 1.123.001v1.368c-.37.002-.741-.001-1.112.001v1.689c-.474.002-.948.001-1.422 0-.002-.559 0-1.119-.001-1.678-1.615-.002-3.23 0-4.844-.001v-1.405c1.632-1.691 3.253-3.393 4.889-5.079zm-3.03 5.114h2.995v-3.126c-1.004 1.037-1.997 2.083-2.995 3.126z"/>
</svg>
