<svg xmlns="http://www.w3.org/2000/svg" width="24" height="24">
    <path fill="#d0191f" d="M10.557 0h2.865c3.661.536 7.096 2.668 8.946 5.908.873 1.412 1.308 3.028 1.632 4.642v2.88c-.541 3.659-2.668 7.093-5.908 8.944-1.412.87-3.028 1.304-4.639 1.626H10.57c-1.389-.278-2.783-.616-4.042-1.285C2.979 20.958.571 17.343 0 13.457v-2.89C.528 6.903 2.684 3.49 5.908 1.628 7.323.757 8.946.331 10.557.001zM8.112 3.38c-.309.039-.45.307-.467.592l-.018.01c-.975-.191-1.629.649-2.244 1.249C4.351 6.252 3.425 7.445 3.075 8.88c-1.23 2.919-.48 6.314 1.139 8.926.773.988 1.813 1.708 2.767 2.508 2.614 1.481 5.895 1.652 8.699.602.39-.099.664-.406.782-.782.907-.58 1.802-1.22 2.494-2.055 1.064-.191 1.244-1.42 1.71-2.209.612-.993.602-2.188.942-3.276.097-.768-.317-1.499-.335-2.268-.102-1.7-1.115-3.171-2.201-4.412-.337-.372-.45-.98-.972-1.151-1.172-.485-2.093-1.463-3.357-1.744-2.168-.745-4.493-.225-6.631.362z"/>
    <path fill="#a02822" d="M8.112 3.38c2.139-.587 4.463-1.106 6.631-.362 1.264.281 2.185 1.259 3.357 1.744.521.171.635.779.972 1.151 1.087 1.241 2.099 2.712 2.201 4.412.018.769.432 1.501.335 2.268-.34 1.088-.33 2.283-.942 3.276-.465.789-.646 2.019-1.71 2.209 1.647-2.045 2.581-4.779 2.07-7.399-.631-4.332-4.779-7.928-9.189-7.716-1.46-.049-2.877.413-4.192 1.008.016-.284.158-.552.467-.592zM5.384 5.231c.615-.6 1.269-1.44 2.244-1.249-2.07 1.198-3.782 3.12-4.445 5.446-.985 3.205-.13 7.039 2.453 9.266 2.732 2.896 7.414 3.413 10.828 1.44-.118.376-.393.684-.782.782-2.804 1.05-6.085.879-8.699-.602-.953-.801-1.994-1.521-2.767-2.508-1.619-2.612-2.369-6.007-1.139-8.926.35-1.435 1.276-2.628 2.308-3.649z"/>
    <path fill="#fffeff" d="M7.645 3.972c1.315-.595 2.732-1.057 4.192-1.008 4.41-.212 8.558 3.385 9.189 7.716.511 2.62-.422 5.354-2.07 7.399-.692.835-1.586 1.475-2.494 2.055-3.414 1.973-8.096 1.456-10.828-1.44-2.582-2.227-3.437-6.061-2.453-9.266.662-2.326 2.375-4.248 4.445-5.446l.018-.01zm9.007 7.275c-.136 1.11-.202 2.814 1.126 3.217.947.477 2.17-.179 2.425-1.172.067-.487.012-.978-.007-1.465-.6.002-1.2.003-1.8.026l.005.789c.357.01.715.018 1.073.033a6.32 6.32 0 0 1-.616 1.003c-.515.036-.94-.209-1.282-.572.09-.902-.283-2.007.577-2.633.493.012.927.258 1.139.71.33-.002.661-.008.991-.018-.164-.947-.958-1.517-1.876-1.618-.896.104-1.693.763-1.756 1.7zM4.475 9.712c-.457.473-1.088 1.121-.74 1.83.278.907 1.336 1.016 2.132 1.152.159.158.321.316.478.477a8.418 8.418 0 0 1-.924.695c-.728-.284-1.775-1.022-2.055.166 1.003.638 2.412.96 3.408.135.809-.907.026-2.54-1.185-2.497-.488.071-.888-.166-1.087-.612l.468-.515c.199-.01.396-.021.595-.033.431.322.975.492 1.346-.016l.013-.419c-.745-.452-1.614-.421-2.451-.363zm3.101-.002a148.039 148.039 0 0 0-.005 4.897c.325.015.653.028.98.039.002-.805-.007-1.613.025-2.416.301.536.516 1.113.717 1.693.278.028.557.054.837.079.233-.679.574-1.317.792-2.002l.094-.002c-.018.87-.016 1.741.005 2.61l.809.038a317.05 317.05 0 0 0-.003-4.973l-.825.018c-.429.955-.815 1.928-1.241 2.885A30.118 30.118 0 0 1 8.48 9.694c-.301.003-.602.008-.902.015zm5.953.043c-.713.237-1.164 1.011-1.042 1.754.104.86-.271 1.881.362 2.596.848.925 2.783.704 3.076-.644.048-.861.035-1.728.02-2.591-.268-1.036-1.47-1.414-2.415-1.115z"/>
    <path fill="#202020" d="M16.652 11.247c.062-.937.86-1.596 1.756-1.7.917.1 1.711.671 1.876 1.618-.33.01-.661.016-.991.018-.212-.452-.646-.699-1.139-.71-.86.626-.487 1.731-.577 2.633.342.363.768.608 1.282.572.238-.312.441-.651.616-1.003-.358-.015-.717-.023-1.073-.033l-.005-.789c.6-.023 1.2-.025 1.8-.026.018.487.074.978.007 1.465-.255.993-1.478 1.649-2.425 1.172-1.328-.403-1.262-2.107-1.126-3.217z"/>
    <path fill="#211e1e" d="M4.475 9.712c.837-.058 1.706-.089 2.451.363l-.013.419c-.372.508-.916.339-1.346.016-.199.012-.396.023-.595.033l-.468.515c.199.445.598.682 1.087.612 1.212-.043 1.994 1.59 1.185 2.497-.996.825-2.405.503-3.408-.135.279-1.188 1.327-.45 2.055-.166.322-.212.633-.441.924-.695-.158-.161-.319-.319-.478-.477-.796-.136-1.854-.245-2.132-1.152-.348-.708.283-1.356.74-1.83z"/>
    <path fill="#212121" d="M7.576 9.71c.301-.007.602-.012.902-.015a29.87 29.87 0 0 0 1.281 2.882c.426-.957.812-1.93 1.241-2.885l.825-.018c.018 1.657.012 3.314.003 4.973l-.809-.038a58.234 58.234 0 0 1-.005-2.61l-.094.002c-.219.685-.559 1.323-.792 2.002a76.478 76.478 0 0 1-.837-.079c-.201-.58-.416-1.157-.717-1.693-.031.804-.023 1.611-.025 2.416-.327-.012-.654-.025-.98-.039-.023-1.632-.026-3.265.005-4.897zM13.529 9.753c.945-.299 2.147.079 2.415 1.115.015.863.028 1.729-.02 2.591-.293 1.348-2.227 1.57-3.076.644-.633-.715-.258-1.736-.362-2.596-.122-.743.329-1.517 1.042-1.754zm-.207 3.343c.232.27.472.536.768.738.205-.087.413-.169.621-.247.128-.176.263-.348.401-.518.016-.61.015-1.22.008-1.83-.283-.263-.561-.533-.84-.797-1.241.299-.968 1.696-.958 2.653z"/>
    <path fill="#fdfdfd" d="M13.322 13.096c-.01-.957-.283-2.354.958-2.653.279.265.557.534.84.797.007.61.008 1.22-.008 1.83-.138.169-.273.342-.401.518-.209.077-.416.159-.621.247-.296-.202-.536-.468-.768-.738z"/>
</svg>
