<?xml version="1.0" encoding="utf-8"?>
<!-- Generated by IcoMoon.io -->
<!DOCTYPE svg PUBLIC "-//W3C//DTD SVG 1.1//EN" "http://www.w3.org/Graphics/SVG/1.1/DTD/svg11.dtd">
<svg version="1.1" xmlns="http://www.w3.org/2000/svg" xmlns:xlink="http://www.w3.org/1999/xlink" width="24" height="24" viewBox="0 0 24 24">
<path fill="#f7fbf5" d="M10.692 0h2.476c1.398 0.21 2.795 0.535 4.067 1.175 3.269 1.557 5.738 4.672 6.503 8.212 0.119 0.459 0.132 0.939 0.262 1.397v2.568l-0.061 0.095c-0.073-0.483-0.012-0.969-0.023-1.453-0.013-2.823-1.081-5.62-2.935-7.748-0.545-0.637-1.163-1.207-1.827-1.718-1.94-1.47-4.328-2.344-6.762-2.437-0.637-0.027-1.273 0.038-1.908-0.027l0.209-0.065z"></path>
<path fill="#f7fbf5" d="M9.762 4.028c0.322-0.593 1.087-0.37 1.633-0.408 0.001 0.25 0.003 0.502 0.001 0.753-0.337 0.003-0.673 0.003-1.008 0.003-0.129 0.291-0.254 0.583-0.376 0.875 0.455 0.016 0.912 0.005 1.368 0.035 0.185 0.376 0.505 0.697 0.618 1.1-0.14 0.48-0.342 0.939-0.473 1.422 0.147 0.202 0.296 0.404 0.451 0.601 0.441-0.013 0.882 0.001 1.321-0.022-0.25 0.248-0.5 0.496-0.749 0.745-0.269-0.003-0.541 0.023-0.809-0.020-0.277-0.077-0.454-0.322-0.596-0.556-0.493-0.817-0.989-1.632-1.501-2.438-0.119 0.256-0.227 0.515-0.321 0.78 0.686 0.447 1.11 1.274 1.007 2.096-0.094 1.055-1.046 1.946-2.108 1.957-1.113 0.068-2.161-0.85-2.255-1.959-0.125-0.973 0.497-1.941 1.403-2.288-0.031-0.113-0.093-0.34-0.124-0.454 0.33-0.086 0.672-0.094 1.010-0.072-0.005 0.099-0.016 0.296-0.020 0.395 0.104 0.010 0.314 0.031 0.42 0.042 0.387-0.854 0.697-1.744 1.106-2.587M6.725 9.065c0.168 0.972 1.42 1.486 2.223 0.912 0.827-0.494 0.884-1.865 0.056-2.371-0.205 0.438-0.35 0.909-0.592 1.329-0.14 0.258-0.592 0.292-0.648-0.046 0.121-0.549 0.419-1.042 0.599-1.574-0.967-0.168-1.88 0.794-1.637 1.75z"></path>
<path fill="#f7fbf5" d="M13.377 5.614c-0.11-0.222 0.141-0.359 0.326-0.346 0.909-0.026 1.821 0.013 2.73-0.020-0.326 0.325-0.65 0.652-0.981 0.97-0.365 0.031-0.721 0.157-0.977 0.428-0.142 0.19-0.471 0.167-0.577-0.048-0.183-0.323-0.356-0.652-0.522-0.985z"></path>
<path fill="#f7fbf5" d="M13.714 7.962c0.263-0.517 0.653-0.987 1.203-1.21-0.39 0.415-0.798 0.81-1.203 1.21z"></path>
<path fill="#f7fbf5" d="M17.109 8.121c0.18-0.183 0.361-0.365 0.544-0.545 0.556 0.9 0.389 2.165-0.434 2.847-0.71 0.635-1.809 0.682-2.615 0.202 0.179-0.18 0.359-0.36 0.539-0.539 0.618 0.258 1.405 0.117 1.805-0.445 0.337-0.428 0.374-1.029 0.162-1.521z"></path>
<path fill="#f7fbf5" d="M13.071 12.419c0.707-0.141 1.453-0.025 2.174-0.061 0 0.113 0.001 0.342 0.001 0.455-0.198 0.004-0.398 0.009-0.596 0.014-0.094 0.198-0.183 0.399-0.27 0.601 0.206 0.432 0.403 0.869 0.612 1.299 1.077-0.32 2.335 0.205 2.808 1.237 0.467 0.927 0.215 2.143-0.58 2.81-0.734 0.652-1.887 0.763-2.727 0.253-0.639-0.36-1.053-1.033-1.162-1.75-0.381-0.042-0.793 0.063-1.153-0.057-0.657-0.732-1.307-1.473-1.957-2.211 0.133-0.134 0.266-0.267 0.399-0.4 0.55 0.634 1.114 1.255 1.67 1.883 0.438-0.896 0.862-1.8 1.269-2.71-0.708 0.008-1.415-0.005-2.122 0.009 0.198-0.201 0.403-0.397 0.604-0.595 0.597 0.009 1.195 0.004 1.791 0.004 0.068-0.127 0.134-0.253 0.202-0.38-0.329-0.060-0.824 0.149-1.032-0.177 0.018-0.055 0.052-0.167 0.069-0.223M14.002 14.177c-0.361 0.852-0.784 1.675-1.162 2.519 0.124 0 0.372 0 0.496 0 0.099-0.713 0.52-1.363 1.139-1.735-0.13-0.279-0.262-0.557-0.391-0.836l-0.081 0.052M15.241 15.257c0.236 0.577 0.565 1.115 0.751 1.709-0.022 0.057-0.067 0.172-0.089 0.23-0.64 0.193-1.342-0.026-1.992 0.116 0.188 0.897 1.087 1.594 2.013 1.436 1.060-0.115 1.808-1.315 1.436-2.318-0.267-0.869-1.246-1.38-2.12-1.173M13.916 16.693c0.455 0.004 0.912 0.003 1.367 0.001-0.184-0.397-0.372-0.792-0.553-1.188-0.442 0.235-0.703 0.713-0.814 1.187z"></path>
<path fill="#f7fbf5" d="M9.536 15.691c0.137-0.137 0.275-0.275 0.413-0.412 0.533 0.539 0.823 1.32 0.691 2.077-0.142 1.015-1.020 1.868-2.040 1.975-0.734 0.102-1.475-0.193-1.997-0.706 0.137-0.137 0.273-0.274 0.41-0.41 0.653 0.685 1.843 0.745 2.517 0.060 0.742-0.659 0.724-1.913 0.005-2.584z"></path>
<path fill="#f7fbf5" d="M8.093 17.139c0.299-0.303 0.595-0.607 0.901-0.9-0.145 0.356-0.211 0.75-0.423 1.075-0.2 0.102-0.347-0.042-0.479-0.175z"></path>
<path fill="#0e518d" d="M4.201 2.842c1.763-1.509 3.973-2.511 6.282-2.777 0.635 0.065 1.272 0 1.908 0.027 2.434 0.093 4.822 0.967 6.762 2.437-0.908 0.905-1.813 1.813-2.72 2.72-0.909 0.033-1.821-0.007-2.73 0.020-0.185-0.013-0.436 0.124-0.326 0.346 0.166 0.333 0.339 0.661 0.522 0.985 0.106 0.215 0.434 0.239 0.577 0.048 0.256-0.271 0.612-0.397 0.977-0.428-0.175 0.181-0.351 0.361-0.536 0.532-0.549 0.223-0.939 0.694-1.203 1.21-0.137 0.143-0.275 0.284-0.416 0.424-0.44 0.023-0.88 0.009-1.321 0.022-0.155-0.197-0.304-0.399-0.451-0.601 0.132-0.483 0.334-0.942 0.473-1.422-0.113-0.403-0.433-0.724-0.618-1.1-0.457-0.030-0.913-0.020-1.368-0.035 0.121-0.292 0.247-0.584 0.376-0.875 0.335 0 0.672 0 1.008-0.003 0.001-0.25 0-0.502-0.001-0.753-0.547 0.038-1.311-0.185-1.633 0.408-0.41 0.843-0.719 1.732-1.106 2.587-0.106-0.010-0.316-0.031-0.42-0.042 0.004-0.099 0.014-0.296 0.020-0.395-0.338-0.022-0.68-0.014-1.010 0.072 0.031 0.113 0.093 0.34 0.124 0.454-0.907 0.347-1.529 1.315-1.403 2.288 0.094 1.109 1.143 2.027 2.255 1.959 1.062-0.010 2.014-0.901 2.108-1.957 0.103-0.822-0.321-1.649-1.007-2.096 0.094-0.265 0.202-0.524 0.321-0.78 0.513 0.806 1.008 1.621 1.501 2.438 0.142 0.233 0.32 0.479 0.596 0.556 0.267 0.043 0.54 0.017 0.809 0.020-3.372 3.383-6.763 6.747-10.126 10.141-1.12-1.477-1.897-3.213-2.24-5.035-0.053-0.334-0.087-0.674-0.184-1v-2.45c0.077-0.288 0.121-0.583 0.159-0.878 0.471-2.73 1.933-5.273 4.042-7.067z"></path>
<path fill="#0e518d" d="M20.98 4.247c1.853 2.127 2.922 4.925 2.935 7.748 0.012 0.484-0.050 0.97 0.023 1.453-0.27 2.559-1.46 4.994-3.231 6.852-1.757 1.835-4.102 3.108-6.609 3.539-0.291 0.039-0.582 0.081-0.863 0.162h-2.455c-2.427-0.323-4.795-1.273-6.643-2.905 0.818-0.827 1.645-1.646 2.467-2.47 0.522 0.513 1.263 0.807 1.997 0.706 1.020-0.107 1.898-0.96 2.040-1.975 0.132-0.757-0.158-1.538-0.691-2.077 0.090-0.091 0.18-0.181 0.271-0.271 0.65 0.738 1.299 1.479 1.957 2.211 0.36 0.12 0.772 0.016 1.153 0.057 0.11 0.717 0.523 1.39 1.162 1.75 0.84 0.51 1.993 0.399 2.727-0.253 0.796-0.667 1.047-1.882 0.58-2.81-0.473-1.032-1.731-1.556-2.808-1.237-0.209-0.43-0.406-0.867-0.612-1.299 0.087-0.202 0.176-0.403 0.27-0.601 0.198-0.005 0.398-0.010 0.596-0.014 0-0.113-0.001-0.342-0.001-0.455-0.721 0.037-1.467-0.080-2.174 0.061-0.017 0.056-0.051 0.168-0.069 0.223 0.207 0.326 0.703 0.117 1.032 0.177-0.068 0.127-0.134 0.253-0.202 0.38-0.596 0-1.193 0.005-1.791-0.004 0.847-0.863 1.709-1.714 2.563-2.57 0.806 0.48 1.906 0.433 2.615-0.202 0.823-0.682 0.99-1.947 0.434-2.847 1.109-1.111 2.219-2.22 3.327-3.329z"></path>
<path fill="#0e518d" d="M6.725 9.065c-0.243-0.956 0.67-1.919 1.637-1.75-0.18 0.532-0.477 1.025-0.599 1.574 0.056 0.338 0.509 0.304 0.648 0.046 0.243-0.42 0.387-0.891 0.592-1.329 0.828 0.506 0.771 1.877-0.056 2.371-0.802 0.574-2.054 0.060-2.223-0.912z"></path>
<path fill="#0e518d" d="M15.142 10.087c0.653-0.657 1.31-1.312 1.967-1.966 0.213 0.492 0.175 1.093-0.162 1.521-0.4 0.562-1.187 0.703-1.805 0.445z"></path>
<path fill="#0e518d" d="M10.62 14.607c0.273-0.273 0.544-0.545 0.817-0.818 0.707-0.014 1.414-0.001 2.122-0.009-0.407 0.91-0.831 1.814-1.269 2.71-0.556-0.629-1.119-1.25-1.67-1.883z"></path>
<path fill="#0e518d" d="M14.002 14.177l0.081-0.052c0.129 0.279 0.261 0.557 0.391 0.836-0.618 0.372-1.040 1.021-1.139 1.735-0.124 0-0.372 0-0.496 0 0.378-0.844 0.801-1.667 1.162-2.519z"></path>
<path fill="#0e518d" d="M15.241 15.257c0.874-0.207 1.852 0.304 2.12 1.173 0.372 1.003-0.376 2.203-1.436 2.318-0.926 0.158-1.825-0.539-2.013-1.436 0.65-0.142 1.351 0.077 1.992-0.116 0.022-0.057 0.067-0.172 0.089-0.23-0.187-0.593-0.515-1.132-0.751-1.709z"></path>
<path fill="#0e518d" d="M13.916 16.693c0.111-0.473 0.372-0.952 0.814-1.187 0.181 0.397 0.369 0.792 0.553 1.188-0.455 0.001-0.912 0.003-1.367-0.001z"></path>
<path fill="#0e518d" d="M8.995 16.239c0.177-0.185 0.359-0.367 0.541-0.548 0.719 0.67 0.737 1.925-0.005 2.584-0.674 0.685-1.864 0.625-2.517-0.060 0.359-0.36 0.716-0.721 1.080-1.076 0.132 0.133 0.279 0.277 0.479 0.175 0.211-0.325 0.278-0.719 0.423-1.075z"></path>
<path fill="#c1121c" d="M19.153 2.529c0.664 0.511 1.282 1.081 1.827 1.718-1.109 1.109-2.219 2.217-3.327 3.329-0.183 0.18-0.364 0.363-0.544 0.545-0.657 0.653-1.313 1.308-1.967 1.966-0.18 0.179-0.36 0.359-0.539 0.539-0.854 0.856-1.717 1.706-2.563 2.57-0.201 0.198-0.406 0.394-0.604 0.595-0.273 0.273-0.544 0.545-0.817 0.818-0.133 0.133-0.266 0.266-0.399 0.4-0.091 0.090-0.181 0.18-0.271 0.271-0.138 0.137-0.277 0.275-0.413 0.412-0.183 0.181-0.364 0.363-0.541 0.548-0.307 0.293-0.603 0.597-0.901 0.9-0.364 0.355-0.721 0.716-1.080 1.076-0.137 0.136-0.273 0.273-0.41 0.41-0.822 0.824-1.649 1.643-2.467 2.47-0.64-0.539-1.204-1.162-1.714-1.823 3.363-3.394 6.754-6.758 10.126-10.141 0.249-0.249 0.498-0.497 0.749-0.745 0.141-0.14 0.279-0.28 0.416-0.424 0.404-0.4 0.813-0.796 1.203-1.21 0.185-0.171 0.361-0.351 0.536-0.532 0.331-0.318 0.655-0.646 0.981-0.97 0.907-0.907 1.812-1.814 2.72-2.72z"></path>
</svg>
