<!-- Generated by IcoMoon.io -->
<svg version="1.1" xmlns="http://www.w3.org/2000/svg" width="24" height="24" viewBox="0 0 24 24">
<title>regulatory--turn-right--g1</title>
<path fill="#04408b" d="M10.734 0h2.511c4.506 0.503 8.608 3.656 10.085 7.966 0.335 0.892 0.487 1.836 0.67 2.767v2.513c-0.504 4.506-3.656 8.607-7.966 10.084-0.892 0.335-1.836 0.487-2.767 0.67h-2.511c-4.507-0.503-8.608-3.656-10.085-7.966-0.335-0.892-0.487-1.836-0.67-2.767v-2.511c0.178-0.94 0.333-1.89 0.67-2.789 1.474-4.305 5.566-7.452 10.064-7.966M12.603 7.151c0.29 1.086 0.766 2.116 1.033 3.208-3.733 0.107-7.474 0.017-11.21 0.045-0.011 1.086-0.005 2.172-0.004 3.257 3.572 0.011 7.144 0.004 10.716 0.003 0.166 0.020 0.39-0.044 0.481 0.142-0.281 1.036-0.703 2.029-1 3.060-0.162 0.453 0.452 0.866 0.818 0.55 2.848-1.795 5.712-3.57 8.551-5.379-2.843-1.789-5.686-3.577-8.545-5.342-0.335-0.282-0.906 0.025-0.842 0.457z"></path>
<path fill="#fff" d="M12.603 7.151c-0.064-0.432 0.507-0.74 0.842-0.457 2.859 1.765 5.702 3.554 8.545 5.342-2.839 1.81-5.703 3.584-8.551 5.379-0.366 0.316-0.98-0.097-0.818-0.55 0.297-1.032 0.719-2.025 1-3.060-0.091-0.186-0.316-0.122-0.481-0.142-3.572 0.001-7.144 0.008-10.716-0.003-0.001-1.085-0.007-2.171 0.004-3.257 3.735-0.028 7.477 0.062 11.21-0.045-0.267-1.091-0.743-2.122-1.033-3.208z"></path>
</svg>
