<svg xmlns="http://www.w3.org/2000/svg" width="24" height="24">
    <path fill="#035ca1" d="M10.493 0h3.016c3.796.566 7.351 2.887 9.113 6.337.702 1.291 1.122 2.714 1.377 4.157v3.016c-.566 3.794-2.885 7.35-6.333 9.116-1.285.695-2.695 1.13-4.131 1.375h-3.083c-3.785-.569-7.32-2.898-9.076-6.335C.674 16.373.254 14.95-.001 13.508v-3.016c.256-1.443.676-2.864 1.379-4.156C3.14 2.886 6.697.566 10.493.001zm-.916 1.627c-1.084.487-.278 2.349.82 1.743 1.067-.489.263-2.339-.82-1.743zm-.945 1.995c-.471 1.2-.947 2.397-1.427 3.592-.115.258-.107.543-.097.819.263-.023.528-.05.789-.102.38-.948.737-1.907 1.133-2.849.402 2.753-.953 5.337-1.019 8.045.338 0 .908.119.98-.35.314-1.376.507-2.778.847-4.148.365 1.388.556 2.82.942 4.201.069.536 1.017.376.901-.171-.26-2.517-.94-5.002-.82-7.551.352.944.605 1.928 1.007 2.851.128.293.479.193.729.21-.043-1.582-.823-3.043-1.137-4.585-.942-.005-1.885.017-2.828.035zm5.771 2.306c-.553.145-.686.968-.228 1.3.359.305.957.108 1.09-.337.22-.518-.313-1.149-.862-.964zm-2.45 2.613c.325 1.047 1.358.159 2.023.005.176 1.555-.563 2.991-.522 4.526.267.023.535.039.802.043.175-.764.223-1.551.368-2.32.249.772.37 1.577.582 2.36.27-.052.871.083.755-.368-.23-1.298-.861-2.538-.723-3.888.32.537.477 1.531 1.327 1.207-.337-.873-.897-1.63-1.337-2.451-1.188-.214-2.223.46-3.275.887zM9.35 14.435c-.513.406-.151 1.064.322 1.313-.18.527-.441 1.02-.682 1.52-1.012-.454-2.311-.149-2.893.827-.759 1.128-.164 2.834 1.128 3.25 1.294.52 2.9-.506 2.932-1.908.099-.78-.355-1.461-.866-1.998.369-.295.685.137.963.34.963.729 1.775 1.933 3.147 1.689.228 1.171 1.384 2.097 2.593 1.855 1.453-.198 2.327-2.01 1.548-3.262-.547-1.037-1.902-1.381-2.94-.909-.206-.318-.41-.637-.608-.957l.223-.571c.159-.02.317-.042.476-.063a2.21 2.21 0 0 0-.04-.487 24.534 24.534 0 0 0-1.758.014c-.01.123-.034.369-.046.493.31.017.622.023.933.039l-.189.368c-1.207.001-2.413-.008-3.62-.003l-.048-.453c-.25-.217-.466-.477-.489-.823.522-.068 1.136.138 1.564-.256-.543-.089-1.109-.134-1.65-.02z"/>
    <path fill="#035ca1" d="M9.912 16.4c1.197-.02 2.395-.021 3.593-.025-.408.828-.809 1.659-1.223 2.483-.858-.687-1.724-1.366-2.587-2.048.07-.138.143-.275.217-.411zM13.773 16.851c.257.022.293.381.438.558a3.103 3.103 0 0 0-.837 1.612l-.651-.012c.361-.713.663-1.458 1.05-2.159zM14.813 17.463c.933-.301 2.091.025 2.447 1.01.467 1.043-.347 2.345-1.474 2.435-.935.123-1.774-.608-1.973-1.493.65-.128 1.577.258 2.04-.241-.25-.623-.716-1.126-1.04-1.71zM6.455 18.335c.468-.828 1.559-1.075 2.396-.687-.256.63-.612 1.22-1.158 1.638.072.06.217.179.29.237.647-.325.878-1.046 1.221-1.63.309.408.608.877.557 1.411.018 1.123-1.223 2.03-2.287 1.651-1.079-.284-1.64-1.681-1.019-2.62z"/>
    <path fill="#035ca1" d="M13.793 18.976c.107-.45.313-.87.621-1.218.283.402.552.815.824 1.225-.481.003-.964.003-1.445-.007z"/>
    <path fill="#fff" d="M9.577 1.627c1.084-.596 1.887 1.253.82 1.743-1.098.607-1.904-1.256-.82-1.743z"/>
    <path fill="#fff" d="M8.632 3.622c.943-.018 1.886-.04 2.828-.035.314 1.542 1.094 3.003 1.137 4.585-.25-.017-.601.083-.729-.21-.402-.923-.655-1.907-1.007-2.851-.12 2.549.561 5.033.82 7.551.116.547-.832.707-.901.171-.386-1.381-.577-2.813-.942-4.201-.339 1.37-.532 2.772-.847 4.148-.072.468-.642.35-.98.35.065-2.708 1.42-5.292 1.019-8.045-.397.942-.754 1.9-1.133 2.849a7.533 7.533 0 0 1-.789.102c-.01-.277-.018-.561.097-.819.48-1.195.956-2.392 1.427-3.592zM14.403 5.928c.549-.185 1.083.446.862.964-.133.445-.732.642-1.09.337-.458-.333-.325-1.156.228-1.3z"/>
    <path fill="#fff" d="M11.953 8.541c1.053-.427 2.087-1.101 3.275-.887.44.82 1 1.578 1.337 2.451-.849.325-1.007-.669-1.327-1.207-.138 1.35.493 2.59.723 3.888.116.451-.485.316-.755.368-.211-.783-.333-1.587-.582-2.36-.145.77-.193 1.556-.368 2.32-.267-.004-.535-.02-.802-.043-.042-1.535.698-2.971.522-4.526-.665.154-1.698 1.042-2.023-.005zM9.35 14.435c.541-.115 1.107-.069 1.65.02-.428.394-1.042.188-1.564.256.023.346.239.607.489.823.016.15.033.301.048.453 1.207-.005 2.413.004 3.62.003l.189-.368c-.31-.016-.622-.022-.933-.039l.046-.493c.586-.026 1.173-.03 1.758-.014.029.16.048.322.04.487-.159.021-.317.043-.476.063l-.223.571c.198.321.402.639.608.957 1.038-.472 2.393-.128 2.94.909.779 1.252-.095 3.064-1.548 3.262-1.209.243-2.365-.683-2.593-1.855-1.372.244-2.185-.96-3.147-1.689-.278-.203-.593-.635-.963-.34.511.537.965 1.218.866 1.998-.033 1.402-1.638 2.429-2.932 1.908-1.293-.416-1.887-2.122-1.128-3.25.582-.976 1.881-1.281 2.893-.827.241-.5.502-.993.682-1.52-.473-.249-.835-.908-.322-1.313zm.562 1.965c-.073.136-.146.273-.217.411.862.682 1.728 1.36 2.587 2.048.415-.824.815-1.655 1.223-2.483-1.199.004-2.396.005-3.593.025zm3.861.451c-.387.7-.689 1.445-1.05 2.159l.651.012a3.103 3.103 0 0 1 .837-1.612c-.145-.177-.181-.536-.438-.558zm1.04.612c.323.584.789 1.087 1.04 1.71-.463.5-1.39.113-2.04.241.2.886 1.038 1.616 1.973 1.493 1.127-.09 1.941-1.392 1.474-2.435-.356-.985-1.514-1.311-2.447-1.01zm-8.358.872c-.621.939-.06 2.336 1.019 2.62 1.063.378 2.305-.528 2.287-1.651.051-.535-.248-1.003-.557-1.411-.343.584-.574 1.306-1.221 1.63a33.229 33.229 0 0 1-.29-.237c.547-.419.903-1.008 1.158-1.638-.837-.387-1.928-.141-2.396.687zm7.338.641c.481.009.964.009 1.445.007-.273-.41-.541-.823-.824-1.225a2.806 2.806 0 0 0-.621 1.218z"/>
</svg>
