<!-- Generated by IcoMoon.io -->
<svg version="1.1" xmlns="http://www.w3.org/2000/svg" width="32" height="24" viewBox="0 0 32 24">
<title>regulatory--your-speed--g1</title>
<path fill="#fff" d="M0.129 1.137c0.385-0.723 1.197-1.119 2.001-1.091 9.291 0.007 18.583-0.001 27.872 0.004 0.752 0.003 1.464 0.401 1.852 1.043 0.045 7.221-0.032 14.444 0.040 21.663-0.317 0.805-1.196 1.22-2.025 1.197-9.291-0.007-18.581 0.001-27.872-0.004-0.752-0.003-1.464-0.4-1.853-1.043-0.028-7.256 0.001-14.513-0.015-21.769M1.787 0.48c-0.571 0.071-1.225 0.472-1.196 1.12-0.007 6.933-0.007 13.867 0 20.801-0.017 0.781 0.863 1.165 1.535 1.141 9.249 0.003 18.499 0.003 27.748 0 0.673 0.024 1.552-0.361 1.535-1.141 0.008-6.935 0.008-13.868 0-20.803 0.012-0.839-0.96-1.196-1.668-1.144-9.317 0.020-18.637-0.032-27.953 0.025z"></path>
<path fill="#fff" d="M1.651 1.129c0.189-0.099 0.405-0.109 0.615-0.113 9.156 0.001 18.313 0.001 27.469 0 0.368-0.032 0.9 0.124 0.872 0.58 0.007 6.936 0.008 13.872 0 20.807 0.027 0.457-0.504 0.612-0.872 0.583-9.156-0.003-18.313-0.003-27.469 0-0.368 0.031-0.901-0.125-0.872-0.583-0.011-6.893 0-13.787-0.005-20.679-0.017-0.229 0.045-0.479 0.263-0.595M12.308 3.389c-0.961 0.219-1.601 1.105-1.831 2.019-0.319 1.319-0.268 2.844 0.531 3.987 0.904 1.295 3.075 1.299 3.984 0.008 0.885-1.292 0.921-3.064 0.364-4.492-0.452-1.177-1.832-1.884-3.048-1.521M4.376 3.424c0.631 1.325 1.363 2.603 1.992 3.928 0.123 0.956 0.017 1.935 0.051 2.899 0.373 0 0.748 0 1.121-0.001 0.12-1.241-0.337-2.637 0.439-3.728 0.541-1.029 1.059-2.072 1.608-3.097-0.436-0.003-0.872-0.004-1.307 0.001-0.421 0.9-0.837 1.801-1.293 2.684-0.453-0.892-0.865-1.805-1.328-2.693-0.428 0.007-0.855 0.005-1.283 0.008M16.965 3.424c0.059 1.821-0.144 3.665 0.149 5.469 0.385 1.98 3.793 2.003 4.179 0.021 0.224-1.82 0.069-3.664 0.109-5.493-0.361 0-0.723 0-1.084-0.003-0.020 1.439 0.007 2.877-0.013 4.315-0.029 0.455-0.039 1.033-0.483 1.296-0.631 0.396-1.625 0.020-1.673-0.773-0.139-1.608-0.008-3.229-0.072-4.841-0.371 0.005-0.741 0.008-1.112 0.009M22.983 10.249c0.375 0.001 0.751 0.001 1.125 0.001 0-0.957-0.001-1.913 0.001-2.871 0.419 0.001 0.913 0.011 1.16 0.415 0.52 0.783 0.933 1.633 1.392 2.452 0.451 0.005 0.903 0.007 1.353-0.004-0.597-1.008-0.945-2.216-1.876-2.987 1.7-0.303 1.923-2.996 0.42-3.681-1.163-0.296-2.383-0.092-3.569-0.155-0.013 2.276 0 4.553-0.007 6.829M3.739 13.875c-1 0.939-0.619 2.851 0.707 3.276 0.627 0.327 1.645 0.253 1.915 1.025 0.169 0.951-1.141 1.408-1.787 0.848-0.32-0.267-0.423-0.683-0.54-1.061-0.363 0.052-0.725 0.099-1.089 0.143 0.101 0.793 0.399 1.664 1.143 2.071 0.765 0.351 1.696 0.331 2.455-0.028 1.273-0.744 1.304-2.892 0.029-3.651-0.683-0.452-1.62-0.393-2.217-0.98-0.373-0.549 0.312-1.093 0.847-1.011 0.612-0.055 0.933 0.492 1.040 1.012 0.372-0.025 0.745-0.056 1.117-0.092-0.069-0.665-0.284-1.393-0.905-1.745-0.832-0.436-1.973-0.424-2.713 0.193M8.616 13.517c0.007 2.263 0.003 4.524 0.003 6.787 0.38 0.001 0.76 0.001 1.141 0.001-0.001-0.849 0.001-1.697-0.004-2.547 0.655-0.076 1.324-0.004 1.969-0.151 1.777-0.621 1.559-4.139-0.517-4.084-0.864-0.027-1.728-0.017-2.592-0.007M14.043 13.511c0.001 2.264 0.005 4.528-0.001 6.793 1.417 0.003 2.835 0.004 4.253-0.001-0.001-0.38-0.001-0.759-0.001-1.137-1.043-0.007-2.085-0.001-3.129-0.003-0.001-0.623-0.003-1.244 0.001-1.867 0.932-0.001 1.864 0 2.796 0 0-0.377 0-0.755 0.001-1.132-0.933-0.003-1.865 0-2.797-0.001-0.003-0.512-0.003-1.025 0-1.537 1.009-0.003 2.019 0.005 3.028-0.005-0.001-0.368-0.001-0.737 0-1.105-1.383-0.011-2.767-0.004-4.151-0.004M19.417 13.517c0.007 2.261 0.001 4.524 0.003 6.785 1.42 0.005 2.841 0.003 4.261 0.001-0.001-0.38-0.001-0.76-0.003-1.141-1.041-0.001-2.083 0.001-3.123-0.001 0.001-0.621-0.001-1.244 0.005-1.865 0.943-0.008 1.887 0.017 2.829-0.016-0.007-0.372-0.009-0.743-0.011-1.115-0.94-0.007-1.88-0.001-2.82-0.003-0.004-0.512-0.005-1.025 0.003-1.537 1.001 0 2.004 0 3.007 0-0.001-0.372-0.001-0.744 0-1.116-1.384 0.004-2.768-0.008-4.152 0.008M24.831 13.509c0.001 2.265 0.005 4.531-0.001 6.795 1.283-0.119 2.879 0.393 3.876-0.668 0.869-1.096 0.929-2.631 0.683-3.953-0.168-0.896-0.676-1.887-1.635-2.111-0.968-0.124-1.949-0.037-2.923-0.063z"></path>
<path fill="#fff" d="M12.569 4.567c0.907-0.351 1.812 0.453 1.896 1.347 0.169 1.064 0.184 2.528-0.881 3.14-0.957 0.492-1.996-0.431-2.049-1.399-0.143-1.067-0.169-2.623 1.035-3.088z"></path>
<path fill="#fff" d="M24.109 4.589c0.571 0.005 1.143-0.032 1.711 0.032 0.811 0.139 0.763 1.612-0.079 1.661-0.543 0.052-1.088 0.021-1.632 0.024-0.003-0.573-0.003-1.145 0-1.717z"></path>
<path fill="#fff" d="M9.764 14.624c0.499 0.013 1.017-0.052 1.497 0.113 0.716 0.351 0.62 1.647-0.196 1.808-0.431 0.076-0.869 0.044-1.304 0.049-0.003-0.657-0.005-1.315 0.003-1.971z"></path>
<path fill="#fff" d="M25.955 14.624c0.548 0.021 1.137-0.075 1.647 0.177 0.561 0.312 0.676 1.020 0.72 1.603 0.024 0.789 0.063 1.653-0.364 2.352-0.48 0.603-1.341 0.353-2.005 0.407 0-1.513-0.004-3.027 0.003-4.539z"></path>
<path fill="#040404" d="M1.787 0.48c9.316-0.057 18.636-0.005 27.953-0.025 0.708-0.052 1.68 0.305 1.668 1.144 0.008 6.935 0.008 13.868 0 20.803 0.017 0.78-0.861 1.165-1.535 1.141-9.249 0.003-18.499 0.003-27.748 0-0.672 0.024-1.552-0.36-1.535-1.141-0.007-6.935-0.007-13.868 0-20.801-0.029-0.648 0.625-1.049 1.196-1.12M1.517 0.812c9.655-0.033 19.312-0.036 28.968 0.001-0.673-0.225-1.389-0.125-2.085-0.139-8.267 0.001-16.533 0.001-24.8 0-0.695 0.013-1.409-0.087-2.083 0.137M1.651 1.129c-0.217 0.116-0.28 0.365-0.263 0.595 0.005 6.892-0.005 13.785 0.005 20.679-0.029 0.457 0.504 0.613 0.872 0.583 9.156-0.003 18.313-0.003 27.469 0 0.368 0.029 0.899-0.125 0.872-0.583 0.008-6.935 0.007-13.871 0-20.807 0.028-0.456-0.504-0.612-0.872-0.58-9.156 0.001-18.313 0.001-27.469 0-0.209 0.004-0.425 0.015-0.615 0.113M1.516 23.187c0.672 0.229 1.389 0.123 2.084 0.139 8.267-0.001 16.533-0.001 24.8 0 0.695-0.012 1.409 0.085 2.083-0.139-9.655 0.036-19.312 0.037-28.967 0z"></path>
<path fill="#202020" d="M1.517 0.812c0.673-0.224 1.388-0.124 2.083-0.137 8.267 0.001 16.533 0.001 24.8 0 0.696 0.013 1.412-0.087 2.085 0.139-9.656-0.037-19.313-0.035-28.968-0.001z"></path>
<path fill="#202020" d="M1.516 23.187c9.655 0.037 19.312 0.036 28.967 0-0.673 0.224-1.388 0.127-2.083 0.139-8.267-0.001-16.533-0.001-24.8 0-0.695-0.016-1.412 0.091-2.084-0.139z"></path>
<path fill="#101010" opacity="0.95" d="M0 1.332l0.129-0.195c0.016 7.256-0.013 14.513 0.015 21.769l-0.144-0.193v-21.381z"></path>
<path fill="#101010" opacity="0.95" d="M31.855 1.093l0.145 0.193v21.68l-0.105-0.211c-0.072-7.219 0.005-14.441-0.040-21.663z"></path>
<path fill="#000" d="M12.308 3.389c1.216-0.363 2.596 0.344 3.048 1.521 0.557 1.428 0.521 3.2-0.364 4.492-0.909 1.291-3.080 1.287-3.984-0.008-0.799-1.143-0.849-2.668-0.531-3.987 0.229-0.913 0.869-1.8 1.831-2.019M12.569 4.567c-1.204 0.465-1.177 2.021-1.035 3.088 0.053 0.968 1.092 1.891 2.049 1.399 1.065-0.612 1.051-2.076 0.881-3.14-0.084-0.893-0.989-1.697-1.896-1.347z"></path>
<path fill="#000" d="M4.376 3.424c0.428-0.003 0.855-0.001 1.283-0.008 0.463 0.888 0.875 1.801 1.328 2.693 0.456-0.883 0.872-1.784 1.293-2.684 0.435-0.005 0.871-0.004 1.307-0.001-0.549 1.025-1.067 2.068-1.608 3.097-0.776 1.091-0.319 2.487-0.439 3.728-0.373 0.001-0.748 0.001-1.121 0.001-0.033-0.964 0.072-1.943-0.051-2.899-0.629-1.325-1.361-2.603-1.992-3.928z"></path>
<path fill="#000" d="M16.965 3.424c0.371-0.001 0.741-0.004 1.112-0.009 0.064 1.612-0.067 3.233 0.072 4.841 0.048 0.793 1.043 1.169 1.673 0.773 0.444-0.263 0.453-0.841 0.483-1.296 0.020-1.437-0.007-2.876 0.013-4.315 0.361 0.003 0.723 0.003 1.084 0.003-0.040 1.829 0.115 3.673-0.109 5.493-0.385 1.981-3.793 1.959-4.179-0.021-0.293-1.804-0.091-3.648-0.149-5.469z"></path>
<path fill="#000" d="M22.983 10.249c0.007-2.276-0.007-4.553 0.007-6.829 1.187 0.063 2.407-0.141 3.569 0.155 1.503 0.685 1.28 3.379-0.42 3.681 0.931 0.771 1.279 1.979 1.876 2.987-0.451 0.011-0.903 0.009-1.353 0.004-0.459-0.819-0.872-1.669-1.392-2.452-0.247-0.404-0.741-0.413-1.16-0.415-0.003 0.957-0.001 1.913-0.001 2.871-0.375 0-0.751 0-1.125-0.001M24.109 4.589c-0.003 0.572-0.003 1.144 0 1.717 0.544-0.003 1.089 0.028 1.632-0.024 0.841-0.049 0.889-1.523 0.079-1.661-0.568-0.064-1.14-0.027-1.711-0.032z"></path>
<path fill="#000" d="M3.739 13.875c0.74-0.617 1.881-0.629 2.713-0.193 0.621 0.352 0.836 1.080 0.905 1.745-0.372 0.036-0.745 0.067-1.117 0.092-0.107-0.52-0.428-1.067-1.040-1.012-0.535-0.083-1.22 0.461-0.847 1.011 0.597 0.587 1.535 0.528 2.217 0.98 1.275 0.759 1.244 2.907-0.029 3.651-0.759 0.359-1.689 0.379-2.455 0.028-0.744-0.407-1.041-1.277-1.143-2.071 0.364-0.044 0.727-0.091 1.089-0.143 0.117 0.379 0.22 0.795 0.54 1.061 0.645 0.56 1.956 0.103 1.787-0.848-0.269-0.772-1.288-0.699-1.915-1.025-1.325-0.425-1.707-2.337-0.707-3.276z"></path>
<path fill="#000" d="M8.616 13.517c0.864-0.011 1.728-0.020 2.592 0.007 2.076-0.055 2.295 3.463 0.517 4.084-0.645 0.147-1.315 0.075-1.969 0.151 0.005 0.849 0.003 1.697 0.004 2.547-0.381 0-0.761 0-1.141-0.001 0-2.263 0.004-4.524-0.003-6.787M9.764 14.624c-0.008 0.656-0.005 1.313-0.003 1.971 0.435-0.005 0.873 0.027 1.304-0.049 0.816-0.161 0.912-1.457 0.196-1.808-0.48-0.165-0.999-0.1-1.497-0.113z"></path>
<path fill="#000" d="M14.043 13.511c1.384 0 2.768-0.007 4.151 0.004-0.001 0.368-0.001 0.737 0 1.105-1.009 0.011-2.019 0.003-3.028 0.005-0.003 0.512-0.003 1.025 0 1.537 0.932 0.001 1.864-0.001 2.797 0.001-0.001 0.377-0.001 0.755-0.001 1.132-0.932 0-1.864-0.001-2.796 0-0.004 0.623-0.003 1.244-0.001 1.867 1.044 0.001 2.087-0.004 3.129 0.003 0 0.379 0 0.757 0.001 1.137-1.419 0.005-2.836 0.004-4.253 0.001 0.007-2.265 0.003-4.529 0.001-6.793z"></path>
<path fill="#000" d="M19.417 13.517c1.384-0.016 2.768-0.004 4.152-0.008-0.001 0.372-0.001 0.744 0 1.116-1.003 0-2.005 0-3.007 0-0.008 0.512-0.007 1.025-0.003 1.537 0.94 0.001 1.88-0.004 2.82 0.003 0.001 0.372 0.004 0.743 0.011 1.115-0.943 0.033-1.887 0.008-2.829 0.016-0.007 0.621-0.004 1.244-0.005 1.865 1.040 0.003 2.081 0 3.123 0.001 0.001 0.381 0.001 0.761 0.003 1.141-1.42 0.001-2.841 0.004-4.261-0.001-0.001-2.261 0.004-4.524-0.003-6.785z"></path>
<path fill="#000" d="M24.831 13.509c0.973 0.025 1.955-0.061 2.923 0.063 0.959 0.224 1.467 1.215 1.635 2.111 0.247 1.323 0.187 2.857-0.683 3.953-0.997 1.061-2.593 0.549-3.876 0.668 0.007-2.264 0.003-4.529 0.001-6.795M25.955 14.624c-0.007 1.512-0.003 3.025-0.003 4.539 0.664-0.053 1.525 0.196 2.005-0.407 0.427-0.699 0.388-1.563 0.364-2.352-0.044-0.583-0.159-1.291-0.72-1.603-0.509-0.252-1.099-0.156-1.647-0.177z"></path>
</svg>
