<svg xmlns="http://www.w3.org/2000/svg" width="24" height="24">
    <path fill="#b31a36" opacity=".79" d="M10.739 0h2.495c.296.064.594.138.876.253a20.689 20.689 0 0 0-3.196-.125L10.739 0z"/>
    <path fill="#de0029" d="M9.34.346c.454-.181.943-.23 1.428-.21-.47.1-.947.176-1.428.21zM7.361.989a5.076 5.076 0 0 1 1.91-.625 23.15 23.15 0 0 1-1.91.625zM14.722.373a4.092 4.092 0 0 1 1.664.506 15.116 15.116 0 0 1-1.664-.506zM10.478.647a11.534 11.534 0 0 1 6.546 1.051c3.052 1.471 5.375 4.366 6.133 7.669.638 2.69.266 5.611-1.051 8.045-1.558 2.924-4.438 5.113-7.686 5.791-3.005.667-6.266.037-8.81-1.693-2.483-1.666-4.277-4.328-4.844-7.267-.582-2.898.002-6.013 1.628-8.485C4.18 2.988 7.205 1.06 10.478.647zM5.281 5.762c-.45.415-.481 1.268.029 1.649.544.349 1.237.304 1.804.598.245.126.208.508-.006.644-.52.3-1.352.188-1.511-.478-.246 0-.492.001-.739.004.041 1.266 1.66 1.567 2.592 1.079.67-.307.85-1.378.245-1.83-.554-.335-1.229-.349-1.822-.586-.277-.126-.216-.575.05-.684.474-.233 1.127-.062 1.286.48.25 0 .5 0 .75-.002-.095-1.273-1.822-1.598-2.678-.874zm7.953-.319c-1.417.22-1.762 2.042-1.178 3.148.614 1.152 2.522 1.17 3.174.044.366-.674.371-1.525.09-2.232-.326-.792-1.286-1.134-2.086-.96zm-4.893.058l-.001.679c.383.004.764.004 1.147-.002.052 1.061.007 2.125.023 3.188l.806.002c.005-1.061-.001-2.123.004-3.184.388-.002.776-.002 1.165-.002l.002-.68a366.582 366.582 0 0 0-3.146-.001zm7.822-.003a623.717 623.717 0 0 0 0 3.869h.804c0-.467.005-.932.002-1.399.487-.019.998.071 1.468-.097.912-.388.94-1.95-.023-2.287-.736-.174-1.502-.054-2.251-.085zm-5.854 6.359c-.356 1.073-.8 2.122-1.432 3.064.126.198.246.401.372.599.156-.23.31-.462.461-.694.004 1.129-.004 2.26.004 3.39h.634a484.65 484.65 0 0 0-.001-4.177c-.048-.697.42-1.274.614-1.915-.216-.091-.436-.175-.652-.266zm2.329.048l-.008.596c-.551.004-1.1.006-1.65-.005-.007.17-.012.34-.016.51 1.361.001 2.72.004 4.081-.001-.002-.168-.005-.335-.006-.503-.594 0-1.188.01-1.782-.01a57.947 57.947 0 0 0-.01-.592l-.61.004zm-1.245 1.409c-.004.439-.004.877 0 1.316 1.009.002 2.018.002 3.028 0 .004-.439.004-.877 0-1.316a382.034 382.034 0 0 0-3.028 0zm-.709 1.656c-.006.434-.005.87.004 1.306l.552-.005c-.004-.269.008-.536.005-.805 1.091-.004 2.182-.002 3.272 0-.005.263.008.527.005.791l.616-.002c.004-.427.004-.856 0-1.284-1.484-.004-2.969-.002-4.453 0zm.768.898l.002.522 1.218.004c.004.374.004.749-.005 1.123l-.608.004c.097.222.196.444.284.67.294-.086.678-.052.883-.317.073-.49.022-.988.041-1.48.356 0 .714-.001 1.072-.013l-.019-.517c-.956.004-1.913-.004-2.868.005zM16.574.923a.394.394 0 0 1 .362.19c-.191.049-.312-.014-.362-.19zM6.818 1.231a.393.393 0 0 1 .36-.196c-.049.176-.169.241-.36.196zM2.34 4.96a.527.527 0 0 1 .349-.439.547.547 0 0 1-.349.439z"/>
    <path fill="#de0029" d="M13.24 6.167c1.072-.466 1.716.87 1.411 1.747-.08.858-1.314 1.19-1.794.469-.402-.671-.389-1.816.383-2.216zM16.969 6.158c.325.005.655-.02.977.044.514.076.506.96.018 1.066-.33.053-.665.024-.996.026l.001-1.136zM.492 8.801a5.393 5.393 0 0 1 .762-2.034c-.236.684-.498 1.36-.762 2.034zM22.862 7.104c.16.037.234.144.222.32-.16-.04-.233-.146-.222-.32zM23.125 7.612c.457.943.725 1.993.74 3.042-.168-1.033-.455-2.038-.74-3.042zM23.123 16.391c.288-.998.569-1.998.742-3.024a7.237 7.237 0 0 1-.742 3.024zM11.941 13.746c.642-.004 1.284-.002 1.926-.002-.006.151-.017.302-.023.454-.634-.008-1.268-.004-1.902-.006l-.001-.445zM.376 14.723c.263.848.575 1.678.878 2.51-.455-.764-.776-1.624-.878-2.51zM22.888 16.934c-.044-.19.02-.31.193-.36a.377.377 0 0 1-.193.36zM21.416 19.373c.23-.427.505-.828.821-1.198a3.653 3.653 0 0 1-.821 1.198zM2.339 19.04a.542.542 0 0 1 .347.444.548.548 0 0 1-.347-.444zM2.83 19.64a.528.528 0 0 1 .347.444.566.566 0 0 1-.347-.444zM4.522 21.312c.2.032.367.16.439.35a.525.525 0 0 1-.439-.35zM18.176 22.237a6.893 6.893 0 0 1 1.204-.827 3.689 3.689 0 0 1-1.204.827zM16.577 23.083c.041-.158.149-.232.323-.221-.038.161-.146.234-.323.221zM13.349 23.864c1.033-.166 2.038-.452 3.041-.739-.942.455-1.991.736-3.041.739z"/>
    <path fill="#fff" d="M10.768.136l.146-.007a20.565 20.565 0 0 1 3.196.125l.052.022c.144.114.33.136.504.086l.056.012c.546.196 1.099.376 1.664.506l.188.043c.05.175.172.239.362.19a11.908 11.908 0 0 1 5.371 4.834c.008.181.073.431.292.452.008.054.028.162.036.217l.196.215.031.274c-.011.174.062.281.222.32l.041.187c.286 1.004.572 2.009.74 3.042l.006.146c.018.814.016 1.627-.001 2.441l-.006.126c-.173 1.026-.454 2.026-.742 3.024l-.042.184c-.173.05-.238.17-.193.36-.1.216-.202.431-.304.647a.503.503 0 0 0-.281.473l-.066.121c-.316.37-.59.77-.821 1.198a11.863 11.863 0 0 1-2.036 2.038c-.43.232-.833.51-1.204.827a5.365 5.365 0 0 1-.13.07c-.18.011-.426.074-.445.292l-.215.035c-.053.049-.16.148-.214.196l-.274.034c-.174-.011-.282.062-.323.221l-.187.042c-1.003.287-2.008.574-3.041.739l-.146.006c-1.993.152-3.977-.184-5.852-.852a44.02 44.02 0 0 1-.932-.439.488.488 0 0 0-.476-.275c-.334-.203-.66-.418-.98-.642a.553.553 0 0 0-.439-.35c-.478-.377-.934-.78-1.345-1.228a.526.526 0 0 0-.347-.444l-.144-.156a.542.542 0 0 0-.347-.444 19.231 19.231 0 0 1-.64-.983.512.512 0 0 0-.277-.48c-.055-.115-.112-.229-.168-.344-.304-.833-.616-1.662-.878-2.51l-.014-.056a.558.558 0 0 0-.083-.505l-.023-.055a16.282 16.282 0 0 1 0-4.225l.02-.055c.098-.142.174-.344.061-.502l.052-.061c.127-.11.155-.244.082-.4l.022-.062c.264-.674.526-1.35.762-2.034l.167-.344a.505.505 0 0 0 .277-.48c.203-.335.418-.661.642-.983a.549.549 0 0 0 .349-.439c1.087-1.404 2.538-2.513 4.129-3.289.191.046.311-.019.36-.196L7.36.994A23.15 23.15 0 0 0 9.27.369l.068-.018c.481-.034.958-.11 1.428-.21zm-.29.511c-3.274.413-6.299 2.341-8.084 5.111C.768 8.23.184 11.345.766 14.243c.568 2.939 2.362 5.602 4.844 7.267 2.544 1.73 5.806 2.36 8.81 1.693 3.248-.678 6.128-2.867 7.686-5.791 1.318-2.434 1.69-5.354 1.051-8.045-.758-3.304-3.082-6.198-6.133-7.669A11.534 11.534 0 0 0 10.478.647z"/>
    <path fill="#fff" d="M5.281 5.762c.857-.725 2.584-.4 2.678.874-.25.002-.5.002-.75.002-.16-.542-.812-.713-1.286-.48-.266.109-.328.558-.05.684.593.236 1.267.251 1.822.586.605.452.425 1.523-.245 1.83-.932.488-2.551.187-2.592-1.079.247-.002.493-.004.739-.004.158.666.991.778 1.511.478.214-.137.251-.518.006-.644-.566-.294-1.26-.248-1.804-.598-.51-.38-.479-1.234-.029-1.649zM13.234 5.443c.799-.174 1.759.168 2.086.96.281.707.276 1.558-.09 2.232-.652 1.126-2.56 1.108-3.174-.044-.583-1.105-.239-2.928 1.178-3.148zm.006.724c-.772.401-.785 1.546-.383 2.216.48.721 1.714.389 1.794-.469.305-.877-.34-2.213-1.411-1.747zM8.341 5.501c1.049-.002 2.098-.005 3.146.001l-.002.68c-.389 0-.778 0-1.165.002-.005 1.061.001 2.123-.004 3.184l-.806-.002c-.016-1.063.029-2.128-.023-3.188-.383.006-.764.006-1.147.002l.001-.679zM16.163 5.498c.749.031 1.516-.089 2.251.085.962.337.935 1.9.023 2.287-.469.168-.98.078-1.468.097.002.467-.002.932-.002 1.399h-.804c-.004-1.29-.004-2.58 0-3.869zm.806.66l-.001 1.136c.331-.002.666.026.996-.026.488-.106.496-.99-.018-1.066-.322-.065-.652-.04-.977-.044zM10.309 11.857c.216.091.436.175.652.266-.194.641-.662 1.218-.614 1.915.007 1.392.006 2.785.001 4.177h-.634c-.007-1.13 0-2.261-.004-3.39-.151.232-.305.463-.461.694-.126-.198-.246-.401-.372-.599.631-.942 1.075-1.991 1.432-3.064zM12.638 11.905l.61-.004.01.592c.594.019 1.188.01 1.782.01.001.168.004.335.006.503-1.361.005-2.72.002-4.081.001.004-.17.008-.34.016-.51.55.011 1.099.008 1.65.005l.008-.596zM11.393 13.314c1.009-.004 2.018-.004 3.028 0 .004.439.004.877 0 1.316-1.009.002-2.018.002-3.028 0a72.162 72.162 0 0 1 0-1.316zm.548.432l.001.445c.634.002 1.268-.002 1.902.006.006-.151.017-.302.023-.454-.642 0-1.284-.001-1.926.002zM10.684 14.97c1.484-.002 2.969-.004 4.453 0 .004.428.004.857 0 1.284l-.616.002c.004-.264-.01-.528-.005-.791-1.091-.002-2.182-.004-3.272 0 .004.269-.008.536-.005.805l-.552.005c-.008-.436-.01-.871-.004-1.306z"/>
    <path fill="#fff" d="M11.452 15.868c.955-.008 1.912-.001 2.868-.005l.019.517c-.358.012-.715.013-1.072.013-.019.492.032.99-.041 1.48-.205.265-.589.23-.883.317-.089-.226-.187-.448-.284-.67l.608-.004c.008-.374.008-.749.005-1.123-.406-.001-.811-.001-1.218-.004l-.002-.522z"/>
    <path fill="#c52f4a" opacity=".86" d="M14.161.275c.155-.146.382-.053.504.086a.557.557 0 0 1-.504-.086z"/>
    <path fill="#b62a44" opacity=".8" d="M1.421 6.422a.534.534 0 0 1 .277-.48.507.507 0 0 1-.277.48z"/>
    <path fill="#bd304a" opacity=".82" d="M22.308 5.946c.151.106.286.258.292.452-.218-.022-.283-.271-.292-.452zM22.303 18.054a.502.502 0 0 1 .281-.473.527.527 0 0 1-.281.473z"/>
    <path fill="#b21934" opacity=".79" d="M22.636 6.616l.196.215-.196-.215z"/>
    <path fill="#c32543" opacity=".86" d="M.389 9.263c-.079-.155-.053-.288.082-.4.073.156.046.289-.082.4z"/>
    <path fill="#c42b47" opacity=".85" d="M.276 9.826a.398.398 0 0 1 .061-.502c.113.157.037.36-.061.502z"/>
    <path fill="#b11d38" opacity=".78" d="M.071 10.618c.038-.251.083-.503.185-.737a16.282 16.282 0 0 0 0 4.225A5.59 5.59 0 0 1 0 13.262v-2.654l.071.01z"/>
    <path fill="#b91936" opacity=".82" d="M23.872 10.8l.128-.176v2.822l-.13-.205c.017-.814.019-1.627.001-2.441z"/>
    <path fill="#c42b47" opacity=".86" d="M.278 14.161a.558.558 0 0 1 .083.505c-.139-.122-.229-.35-.083-.505z"/>
    <path fill="#b62a43" opacity=".8" d="M1.422 17.578c.182.091.283.28.277.48a.53.53 0 0 1-.277-.48z"/>
    <path fill="#bb2944" opacity=".82" d="M5.941 22.304a.486.486 0 0 1 .476.275.533.533 0 0 1-.476-.275z"/>
    <path fill="#c02d48" opacity=".84" d="M17.602 22.598c.019-.217.265-.281.445-.292-.101.154-.252.289-.445.292z"/>
    <path fill="#b51c38" opacity=".8" d="M17.173 22.829c.054-.048.161-.146.214-.196-.053.049-.16.148-.214.196z"/>
    <path fill="#b1233d" opacity=".78" d="M7.35 23.018c1.876.668 3.859 1.004 5.852.852l.176.13h-2.624c-1.154-.239-2.366-.383-3.404-.982z"/>
</svg>
