<svg xmlns="http://www.w3.org/2000/svg" width="24" height="24">
    <path fill="#fff" d="M2.5 0h.686A.965.965 0 0 0 2.5.628V0zM20.883 0h.766v24h-.638a.958.958 0 0 0 .595-.942l.001-21.77c-.003-.268.025-.553-.105-.799a.97.97 0 0 0-.618-.49z"/>
    <path fill="#fff" d="M3.243.523a.711.711 0 0 1 .2-.029H20.62a.43.43 0 0 1 .469.447c.004 7.373 0 14.746.002 22.119.031.268-.197.518-.471.489H3.444a.432.432 0 0 1-.47-.446C2.97 15.73 2.973 8.357 2.972.985c-.016-.191.082-.395.27-.461zM4.671 3.16c-.466.301-.47 1.068 0 1.366.445.258.993.25 1.448.484.21.109.197.427-.001.541-.468.284-1.13.165-1.479-.258l-.479.364c.559.707 1.697.854 2.409.302.442-.337.401-1.083-.044-1.399-.424-.284-.959-.284-1.423-.467-.226-.078-.219-.422-.003-.51.394-.171.88-.053 1.184.245l.445-.393c-.516-.532-1.426-.684-2.058-.276zm2.884-.197v3.295h.611l.001-1.288c.406-.009.814.019 1.22-.017.502-.056.901-.543.862-1.045-.017-.504-.471-.909-.963-.935-.577-.022-1.154-.004-1.732-.009zm3.263 0v3.295h2.522v-.59h-1.911v-.902h1.009v-.6h-1.009v-.611h1.845v-.591h-2.458zm3.199 0v3.295h2.512v-.59l-1.9-.001v-.901h1.009v-.601h-1.009v-.611l1.845-.001v-.59h-2.459zm3.187 0v3.295c.394-.002.788.006 1.182-.003.581-.022 1.153-.38 1.378-.924.168-.41.179-.882.049-1.305-.191-.606-.799-1.027-1.425-1.055-.395-.017-.79-.004-1.185-.007zM6.01 7.9v3.295h2.458v-.505H6.601V7.9a58.214 58.214 0 0 0-.591 0zm3.026 0v3.295h.59V7.899h-.591zm1.45 0v3.296h.579c0-.668.002-1.336-.001-2.004.32.667.637 1.335.956 2.003.329-.659.639-1.328.965-1.99.004.663 0 1.327.002 1.99h.58V7.9h-.575c-.318.655-.651 1.303-.968 1.958-.322-.652-.64-1.306-.962-1.957l-.576-.001zm3.939 0v3.295h.59V7.9a58.214 58.214 0 0 0-.591 0zm1.159 0v.59h.944v2.704h.58V8.49h.944V7.9h-2.469zm.243 4.828c-.911.093-1.736.656-2.23 1.416-.762 1.202-.877 2.721-.612 4.092.19.966.671 1.929 1.516 2.48.714.493 1.631.583 2.47.456.805-.12 1.519-.627 1.976-1.289.833-1.267.966-2.896.653-4.351-.238-1.17-1.022-2.284-2.185-2.672a3.794 3.794 0 0 0-1.589-.131zm-11.526.12c.014.483.024.966.023 1.449h4.661c-1.072 1.498-1.841 3.234-2.111 5.063-.084.569-.095 1.145-.117 1.719.492.002.984.003 1.476 0 .003-1.268.224-2.54.732-3.706.471-1.131 1.066-2.255 2.014-3.06-.002-.488 0-.976-.001-1.464H4.3z"/>
    <path fill="#fff" d="M8.168 3.553c.404.021.819-.046 1.216.043.351.1.343.662-.016.746-.394.078-.802.018-1.201.037v-.826zM17.817 3.554c.304.007.627-.039.911.095.752.304.771 1.55.046 1.894-.289.174-.637.115-.957.124V3.554zM16.125 14.183c.482-.046 1.001.073 1.361.412.548.5.739 1.267.785 1.981.036.714-.024 1.456-.348 2.104-.218.447-.593.837-1.075.989-.63.191-1.382.042-1.83-.459-.499-.533-.647-1.29-.681-1.996-.037-.713.062-1.458.414-2.088.28-.501.784-.911 1.374-.943zM2.5 23.414a.982.982 0 0 0 .543.586H2.5v-.586z"/>
    <path fill="#030303" d="M3.186 0h17.697a.968.968 0 0 1 .618.49c.13.245.101.531.105.799l-.001 21.77a.958.958 0 0 1-.595.942H3.043a.982.982 0 0 1-.543-.586V.629a.965.965 0 0 1 .686-.628zm.057.523c-.188.066-.286.27-.27.461.001 7.373-.002 14.746.002 22.118a.432.432 0 0 0 .47.446h17.176c.273.029.502-.221.471-.489-.001-7.373.002-14.746-.002-22.119a.431.431 0 0 0-.469-.447H3.444a.711.711 0 0 0-.2.029z"/>
    <path fill="#030303" d="M4.671 3.16c.632-.409 1.541-.257 2.058.276l-.445.393c-.304-.298-.79-.416-1.184-.245-.215.087-.223.432.003.51.464.183.999.183 1.423.467.445.316.486 1.062.044 1.399-.713.552-1.85.405-2.409-.302l.479-.364c.348.423 1.011.541 1.479.258.198-.114.211-.432.001-.541-.456-.234-1.003-.226-1.448-.484-.471-.298-.467-1.065 0-1.366zM7.555 2.963c.577.005 1.155-.013 1.732.009.491.026.945.431.963.935.039.502-.36.99-.862 1.045-.405.036-.814.009-1.22.017l-.001 1.288h-.611V2.962zm.613.59v.826c.399-.019.807.041 1.201-.037.359-.084.367-.646.016-.746-.397-.09-.812-.023-1.216-.043zM10.818 2.963h2.458v.591h-1.845v.611h1.009v.6h-1.009v.902h1.911v.59H10.82V2.962zM14.017 2.963h2.459v.59l-1.845.001a62.22 62.22 0 0 0 0 .611h1.009v.601h-1.009v.901l1.9.001v.59h-2.512V2.963zM17.204 2.963c.395.003.79-.009 1.185.007.626.028 1.234.449 1.425 1.055.13.423.119.895-.049 1.305-.225.544-.797.902-1.378.924-.394.009-.788.002-1.182.003V2.962zm.613.591v2.113c.321-.009.668.051.957-.124.726-.343.706-1.59-.046-1.894-.285-.134-.608-.088-.911-.095zM6.01 7.9h.591v2.79h1.867v.505H6.01V7.9zM9.036 7.9h.591v3.296h-.59V7.901zM10.486 7.9l.576.001c.322.652.64 1.305.962 1.957.317-.656.65-1.303.968-1.958h.575v3.295h-.58c-.001-.663.002-1.327-.002-1.99-.325.662-.636 1.331-.965 1.99-.319-.668-.635-1.336-.956-2.003.003.668.001 1.336.001 2.004h-.579V7.9zM14.425 7.9h.591v3.295h-.59V7.9zM15.584 7.9h2.469v.59h-.944v2.704h-.58V8.49h-.944V7.9zM15.827 12.728a3.779 3.779 0 0 1 1.589.131c1.163.389 1.947 1.502 2.185 2.672.313 1.455.18 3.085-.653 4.351-.458.662-1.171 1.17-1.976 1.289-.839.127-1.756.037-2.47-.456-.844-.551-1.326-1.513-1.516-2.48-.265-1.371-.15-2.89.612-4.092.494-.76 1.318-1.322 2.23-1.416zm.298 1.455c-.591.033-1.094.442-1.374.943-.352.63-.451 1.375-.414 2.088.034.706.182 1.463.681 1.996.448.501 1.2.65 1.83.459.482-.152.857-.542 1.075-.989.324-.648.384-1.391.348-2.104-.046-.715-.237-1.481-.785-1.981-.36-.339-.879-.457-1.361-.412zM4.301 12.848h6.678c.001.488-.001.976.001 1.464-.948.805-1.543 1.929-2.014 3.06-.508 1.167-.729 2.438-.732 3.706-.492.003-.984.002-1.476 0 .022-.574.033-1.15.117-1.719.269-1.829 1.038-3.565 2.111-5.063H4.325c.001-.483-.009-.966-.023-1.449z"/>
</svg>
