<?xml version="1.0" encoding="utf-8"?>
<!-- Generated by IcoMoon.io -->
<!DOCTYPE svg PUBLIC "-//W3C//DTD SVG 1.1//EN" "http://www.w3.org/Graphics/SVG/1.1/DTD/svg11.dtd">
<svg version="1.1" xmlns="http://www.w3.org/2000/svg" xmlns:xlink="http://www.w3.org/1999/xlink" width="24" height="24" viewBox="0 0 24 24">
<path fill="#c50000" d="M7.072 1.064c2.246-1.024 4.813-1.298 7.234-0.833 2.862 0.533 5.496 2.173 7.252 4.494 1.466 1.903 2.314 4.26 2.443 6.656v1.23c-0.144 2.71-1.207 5.372-3.032 7.388-2.076 2.364-5.128 3.81-8.262 4h-1.258c-2.364-0.108-4.685-0.936-6.587-2.342-1.992-1.474-3.511-3.577-4.268-5.938-0.905-2.78-0.748-5.891 0.437-8.566 1.169-2.682 3.367-4.902 6.042-6.090M11.306 2.32c-2.878 0.193-5.623 1.753-7.26 4.128-1.397 1.973-1.991 4.482-1.661 6.874 0.263 2 1.184 3.902 2.573 5.365 1.422 1.513 3.347 2.545 5.393 2.893 2.291 0.4 4.729-0.046 6.707-1.277 1.978-1.188 3.493-3.115 4.196-5.311 0.568-1.754 0.622-3.672 0.15-5.456-0.572-2.21-1.964-4.194-3.84-5.495-1.805-1.272-4.058-1.874-6.258-1.721z"></path>
<path fill="#fff" d="M11.306 2.32c2.2-0.154 4.453 0.449 6.258 1.721 1.876 1.301 3.268 3.284 3.84 5.495 0.472 1.784 0.418 3.702-0.15 5.456-0.703 2.196-2.219 4.123-4.196 5.311-1.978 1.231-4.416 1.676-6.707 1.277-2.046-0.348-3.971-1.38-5.393-2.893-1.388-1.463-2.31-3.365-2.573-5.365-0.33-2.392 0.264-4.901 1.661-6.874 1.637-2.375 4.382-3.935 7.26-4.128M8.040 8.888c-0.211 0.216-0.072 0.614 0.232 0.643 0.439-0.061 0.854-0.232 1.285-0.334-0.002 3.173 0 6.347-0.001 9.521 0.67 0.002 1.339 0.001 2.008 0 0.006-0.632-0.010-1.266 0.006-1.9 0.274-1.729 2.057-3.005 3.784-2.746-0.108 0.431-0.269 0.847-0.361 1.282-0.044 0.349 0.425 0.56 0.673 0.324 1.211-0.834 2.424-1.667 3.632-2.504-1.235-0.874-2.455-1.766-3.7-2.626-0.257-0.2-0.666 0.058-0.606 0.376 0.112 0.425 0.259 0.84 0.38 1.262-1.357-0.155-2.766 0.269-3.808 1.153 0.002-1.375-0.007-2.752 0.005-4.127 0.385 0.109 0.764 0.24 1.153 0.337 0.313 0.089 0.586-0.323 0.392-0.58-0.828-1.234-1.678-2.453-2.52-3.678-0.859 1.193-1.706 2.395-2.555 3.595z"></path>
<path fill="#000" d="M8.040 8.888c0.848-1.2 1.696-2.402 2.555-3.595 0.842 1.225 1.692 2.444 2.52 3.678 0.193 0.257-0.079 0.668-0.392 0.58-0.389-0.097-0.768-0.228-1.153-0.337-0.012 1.375-0.002 2.752-0.005 4.127 1.042-0.884 2.45-1.308 3.808-1.153-0.121-0.422-0.269-0.838-0.38-1.262-0.060-0.318 0.349-0.576 0.606-0.376 1.244 0.859 2.465 1.752 3.7 2.626-1.208 0.838-2.422 1.67-3.632 2.504-0.248 0.236-0.718 0.025-0.673-0.324 0.092-0.434 0.253-0.851 0.361-1.282-1.727-0.259-3.51 1.016-3.784 2.746-0.016 0.634 0 1.267-0.006 1.9-0.668 0.001-1.338 0.002-2.008 0 0.001-3.174-0.001-6.348 0.001-9.521-0.431 0.102-0.846 0.272-1.285 0.334-0.304-0.029-0.443-0.427-0.232-0.643z"></path>
</svg>
