<!-- Generated by IcoMoon.io -->
<svg version="1.1" xmlns="http://www.w3.org/2000/svg" width="24" height="24" viewBox="0 0 24 24">
<title>regulatory--dual-path-pedestrians-and-bicycles--g1</title>
<path fill="#0379c1" d="M10.679 0h1.524c0.47 0.083 0.946 0.114 1.422 0.077 3.636 0.469 6.98 2.72 8.796 5.903 0.856 1.434 1.313 3.058 1.578 4.696v2.625c-0.237 1.435-0.596 2.864-1.278 4.158-1.797 3.609-5.505 6.080-9.491 6.542h-2.45c-1.427-0.226-2.852-0.57-4.144-1.238-3.658-1.778-6.173-5.511-6.637-9.531v-2.45c0.455-3.99 2.929-7.704 6.543-9.502 1.287-0.681 2.71-1.035 4.137-1.279M9.1 1.147c0 7.249 0.001 14.497 0 21.746 0.258 0.001 0.514 0.001 0.772 0.001 0-7.249 0-14.498 0-21.747-0.256 0-0.514 0-0.772 0M5.1 6.099c-0.24 0.416 0.088 0.842 0.259 1.213-0.441 0.205-1.118 0.299-1.17 0.897-0.386 1.22-0.371 2.604-1.081 3.696-0.191-0.024-0.383-0.046-0.576-0.070 0.298-0.368 0.31-1.076-0.284-1.121-0.577-0.018-0.648 0.666-0.381 1.044-0.81 0.41-0.736 1.415-0.712 2.184-0.055 0.278 0.26 0.254 0.439 0.323-0.097-0.481-0.058-0.976 0.129-1.432 0.209 1.116 0.020 2.289 0.065 3.43 0.549-0.391 0.408-1.135 0.751-1.654 0.046 0.451 0.045 0.905 0.044 1.357 0.186 0.114 0.373 0.227 0.562 0.339-0.359-0.617-0.062-1.298 0.241-1.862-0.070-0.67-0.31-1.308-0.435-1.968 0.353-0.16 0.7-0.333 1.030-0.533 0.024-0.984 0.617-1.846 0.915-2.764-0.030 1.718-0.092 3.435 0.124 5.144 0.036 0.662 0.229 1.36-0.083 1.988 0.274-0.165 0.54-0.341 0.8-0.524 0.065-1.215-0.039-2.455 0.287-3.641 0.136 1.229 0.214 2.472 0.097 3.707 0.196 0.151 0.387 0.307 0.576 0.466-0.082-1.182 0.253-2.34 0.289-3.518 0.141-1.243-0.112-2.477-0.17-3.716 0.521 0.769 0.696 1.72 0.527 2.63-0.092 0.368 0.332 0.403 0.57 0.269 0.014-1.189 0.055-2.389-0.28-3.546-0.097-0.715-0.898-0.908-1.464-1.132 0.183-0.386 0.513-0.848 0.229-1.27-0.27-0.491-1.068-0.428-1.299 0.065M18.19 9.525c-0.003 0.168-0.003 0.338-0.003 0.508 0.293 0.003 0.586 0.005 0.878 0.009-0.2 0.3-0.297 0.643-0.237 1.004-1.204-0.008-2.408-0.001-3.611-0.004-0.062-0.165-0.122-0.33-0.183-0.496 0.278-0.144 0.935-0.035 0.893-0.455-0.672-0.104-1.358-0.052-2.036-0.031 0.167 0.244 0.384 0.445 0.641 0.592 0.044 0.104 0.088 0.209 0.133 0.314-0.259 0.466-0.523 0.929-0.792 1.39-1.048-0.388-2.343 0.134-2.692 1.226-0.488 1.234 0.572 2.704 1.886 2.668 1.094 0.039 1.894-0.903 2.105-1.902 0.151 0.214 0.3 0.427 0.454 0.641-0.028 0.067-0.084 0.2-0.112 0.266-0.171 0.063-0.341 0.126-0.51 0.188 0.294 0.215 0.648 0.248 0.989 0.132-0.060-0.153-0.123-0.305-0.186-0.457 0.685 0.065 1.257-0.461 1.152-1.161 0.785-0.542 1.537-1.138 2.37-1.608-0.237 0.557-0.8 0.955-0.838 1.597-0.227 1.213 0.897 2.418 2.119 2.302 1.273-0.049 2.243-1.481 1.763-2.678-0.353-1.056-1.579-1.574-2.614-1.241-0.144-0.545-0.294-1.088-0.43-1.636 0.202-0.268 0.483-0.623 0.212-0.95-0.346-0.354-0.911-0.172-1.352-0.216z"></path>
<path fill="#0379c1" d="M15.403 11.546c1.186 0.018 2.377-0.049 3.561 0.029 0.207-0.035 0.147 0.294 0.006 0.339-0.797 0.582-1.611 1.142-2.425 1.7 0.053-0.137 0.107-0.274 0.162-0.41 0.117-0.023 0.352-0.069 0.469-0.092-0.2-0.378-0.651-0.251-0.988-0.205 0.098 0.147 0.199 0.294 0.299 0.441-0.131 0.028-0.261 0.054-0.392 0.082-0.245-0.623-0.469-1.254-0.692-1.885z"></path>
<path fill="#0379c1" d="M14.312 12.609c0.187-0.333 0.377-0.665 0.577-0.989 0.241 0.638 0.467 1.283 0.7 1.925-0.143 0.196-0.284 0.396-0.425 0.594-0.155-0.573-0.408-1.123-0.852-1.53z"></path>
<path fill="#0379c1" d="M11.97 13.355c0.368-0.499 1.029-0.596 1.601-0.479-0.275 0.495-0.572 0.98-0.812 1.494 0.586 0.070 1.176 0.062 1.765 0.060-0.173 0.764-0.922 1.394-1.727 1.196-1.006-0.155-1.49-1.504-0.828-2.272z"></path>
<path fill="#0379c1" d="M19.894 12.9c0.81-0.27 1.817 0.158 1.972 1.048 0.268 1.035-0.88 2.029-1.865 1.626-0.974-0.313-1.206-1.613-0.564-2.352 0.139 0.593 0.476 1.16 1.127 1.263 0.034-0.067 0.102-0.202 0.134-0.27-0.403-0.343-0.697-0.792-0.804-1.314z"></path>
<path fill="#0379c1" d="M14.021 13.141c0.212 0.275 0.387 0.579 0.509 0.906-0.348 0.009-0.695 0.010-1.042 0.010 0.173-0.308 0.351-0.613 0.533-0.916z"></path>
<path fill="#0379c1" d="M15.886 13.757c0.362-0.181 0.821 0.167 0.74 0.565-0.040 0.396-0.569 0.583-0.862 0.324-0.298-0.227-0.225-0.75 0.122-0.89z"></path>
<path fill="#72a1be" opacity="0.84" d="M12.204 0h1.181l0.241 0.077c-0.476 0.038-0.952 0.006-1.422-0.077z"></path>
<path fill="#fff" d="M9.1 1.147c0.258 0 0.515 0 0.772 0 0 7.249 0 14.498 0 21.747-0.258 0-0.514 0-0.772-0.001 0.001-7.249 0-14.497 0-21.746z"></path>
<path fill="#fff" d="M5.1 6.099c0.231-0.494 1.029-0.557 1.299-0.065 0.284 0.422-0.045 0.885-0.229 1.27 0.565 0.224 1.367 0.417 1.464 1.132 0.336 1.157 0.294 2.357 0.28 3.546-0.239 0.134-0.662 0.099-0.57-0.269 0.17-0.91-0.005-1.861-0.527-2.63 0.058 1.239 0.31 2.473 0.17 3.716-0.036 1.179-0.371 2.336-0.289 3.518-0.188-0.16-0.379-0.315-0.576-0.466 0.117-1.235 0.039-2.478-0.097-3.707-0.325 1.186-0.221 2.426-0.287 3.641-0.26 0.183-0.527 0.359-0.8 0.524 0.312-0.628 0.119-1.326 0.083-1.988-0.216-1.709-0.155-3.427-0.124-5.144-0.298 0.919-0.891 1.781-0.915 2.764-0.33 0.2-0.677 0.373-1.030 0.533 0.124 0.66 0.364 1.298 0.435 1.968-0.303 0.564-0.601 1.245-0.241 1.862-0.188-0.112-0.376-0.225-0.562-0.339 0.001-0.452 0.003-0.906-0.044-1.357-0.343 0.519-0.202 1.263-0.751 1.654-0.045-1.141 0.143-2.315-0.065-3.43-0.187 0.456-0.226 0.951-0.129 1.432-0.178-0.069-0.494-0.045-0.439-0.323-0.024-0.769-0.098-1.774 0.712-2.184-0.268-0.378-0.196-1.062 0.381-1.044 0.594 0.045 0.582 0.753 0.284 1.121 0.192 0.024 0.384 0.046 0.576 0.070 0.71-1.092 0.695-2.475 1.081-3.696 0.052-0.598 0.729-0.692 1.17-0.897-0.171-0.371-0.499-0.797-0.259-1.213z"></path>
<path fill="#fff" d="M18.19 9.525c0.441 0.044 1.007-0.138 1.352 0.216 0.27 0.327-0.010 0.682-0.212 0.95 0.136 0.548 0.285 1.091 0.43 1.636 1.034-0.333 2.261 0.186 2.614 1.241 0.48 1.196-0.49 2.629-1.763 2.678-1.221 0.116-2.346-1.089-2.119-2.302 0.038-0.642 0.601-1.040 0.838-1.597-0.833 0.47-1.584 1.067-2.37 1.608 0.104 0.7-0.467 1.226-1.152 1.161 0.063 0.152 0.126 0.304 0.186 0.457-0.341 0.116-0.695 0.083-0.989-0.132 0.17-0.063 0.339-0.126 0.51-0.188 0.028-0.067 0.084-0.2 0.112-0.266-0.153-0.214-0.303-0.427-0.454-0.641-0.211 0.999-1.010 1.941-2.105 1.902-1.314 0.036-2.374-1.434-1.886-2.668 0.348-1.092 1.644-1.615 2.692-1.226 0.269-0.461 0.533-0.924 0.792-1.39-0.045-0.106-0.089-0.21-0.133-0.314-0.256-0.147-0.474-0.348-0.641-0.592 0.677-0.020 1.363-0.073 2.036 0.031 0.041 0.42-0.616 0.31-0.893 0.455 0.062 0.166 0.122 0.332 0.183 0.496 1.204 0.003 2.408-0.004 3.611 0.004-0.059-0.361 0.038-0.704 0.237-1.004-0.293-0.004-0.586-0.006-0.878-0.009 0-0.17 0-0.339 0.003-0.508M15.403 11.546c0.224 0.631 0.447 1.262 0.692 1.885 0.131-0.028 0.261-0.054 0.392-0.082-0.101-0.147-0.201-0.294-0.299-0.441 0.337-0.046 0.788-0.173 0.988 0.205-0.117 0.023-0.352 0.069-0.469 0.092-0.055 0.136-0.109 0.273-0.162 0.41 0.814-0.558 1.628-1.118 2.425-1.7 0.141-0.045 0.201-0.374-0.006-0.339-1.184-0.078-2.375-0.011-3.561-0.029M14.312 12.609c0.444 0.407 0.697 0.957 0.852 1.53 0.141-0.199 0.281-0.398 0.425-0.594-0.232-0.642-0.459-1.287-0.7-1.925-0.2 0.324-0.39 0.656-0.577 0.989M11.97 13.355c-0.662 0.768-0.178 2.117 0.828 2.272 0.804 0.197 1.553-0.432 1.726-1.196-0.589 0.001-1.18 0.010-1.765-0.060 0.24-0.514 0.537-0.999 0.812-1.494-0.572-0.117-1.233-0.020-1.601 0.479M19.894 12.9c0.107 0.523 0.401 0.971 0.804 1.314-0.033 0.068-0.101 0.204-0.134 0.27-0.651-0.103-0.988-0.67-1.127-1.263-0.642 0.739-0.41 2.039 0.564 2.352 0.985 0.403 2.132-0.591 1.865-1.626-0.155-0.89-1.161-1.318-1.972-1.048M14.021 13.141c-0.182 0.303-0.359 0.608-0.533 0.916 0.347 0 0.694-0.001 1.042-0.010-0.122-0.327-0.297-0.631-0.509-0.906M15.886 13.757c-0.347 0.139-0.42 0.662-0.122 0.89 0.293 0.259 0.822 0.072 0.862-0.324 0.080-0.398-0.378-0.746-0.74-0.565z"></path>
</svg>
