<!-- Generated by IcoMoon.io -->
<svg version="1.1" xmlns="http://www.w3.org/2000/svg" width="24" height="24" viewBox="0 0 24 24">
<title>regulatory--no-low-speed-vehicles--g1</title>
<path fill="#fff" d="M10.624 0h2.693c0.417 0.116 0.85 0.159 1.273 0.255-3.163-0.486-6.548 0.046-9.215 1.899-0.64 0.368-1.1 1.009-1.789 1.287 1.85-1.938 4.426-3.024 7.038-3.441z"></path>
<path fill="#fff" d="M5.989 4.81c3.583-3.078 9.414-2.911 12.763 0.44 3.586 3.282 3.94 9.437 0.654 13.034-0.426-0.438-0.833-0.894-1.274-1.32-0.786-0.011-1.571-0.006-2.357-0.001 0.829 0.827 1.68 1.633 2.516 2.453-2.833 2.523-7.236 2.961-10.57 1.19-2.548-1.314-4.43-3.829-4.952-6.65-0.561-2.787 0.229-5.782 2.044-7.963 0.7 0.537 1.277 1.225 1.933 1.818 0.628-0.093 1.247-0.233 1.873-0.343-0.865-0.896-1.801-1.726-2.63-2.657M6.882 8.025c-0.494 1.105-0.409 2.556-1.306 3.414-0.015 0.767-0.021 1.536-0.027 2.304-0.068 0.052-0.204 0.153-0.272 0.205-0.006 0.424-0.050 0.854 0.029 1.275 0.491 0.102 0.995 0.029 1.492 0.053 0.010 0.497-0.020 0.995 0.024 1.49 0.472 0.070 0.954 0.063 1.427 0.001 0.045-0.502 0.015-1.006 0.025-1.51 2.579-0.003 5.156-0.003 7.733 0 0.008 0.502-0.017 1.007 0.024 1.51 0.473 0.063 0.956 0.067 1.427 0 0.045-0.497 0.014-0.995 0.025-1.492 0.497-0.024 1.002 0.049 1.493-0.054 0.074-0.42 0.033-0.848 0.027-1.273-0.067-0.052-0.204-0.156-0.271-0.208-0.006-0.767-0.013-1.536-0.027-2.304-0.899-0.857-0.812-2.311-1.309-3.414-3.441-0.769-7.074-0.772-10.515 0.001z"></path>
<path fill="#fff" d="M0.070 10.577c0.287-2.62 1.489-5.156 3.38-6.999-0.271 0.695-0.925 1.151-1.289 1.8-1.863 2.66-2.387 6.050-1.905 9.213-0.093-0.405-0.126-0.82-0.255-1.217v-3.011l0.070 0.213z"></path>
<path fill="#fff" d="M6.947 9.419c0.236-0.004 0.47-0.007 0.706-0.013 0.398 1.007 0.639 2.073 1.016 3.091 0.347-1.023 0.636-2.064 0.984-3.085 0.247-0.003 0.495-0.001 0.742 0.007-0.474 1.538-0.961 3.070-1.437 4.607-0.188 0.008-0.377 0.014-0.565 0.018-0.502-1.535-0.996-3.074-1.446-4.626z"></path>
<path fill="#fff" d="M14.025 9.419c0.247-0.007 0.495-0.008 0.744-0.007 0.354 1.027 0.645 2.073 0.991 3.102 0.357-1.027 0.624-2.087 1.005-3.106 0.236 0.004 0.47 0.007 0.706 0.011-0.442 1.552-0.938 3.089-1.439 4.623-0.194-0.045-0.547 0.119-0.607-0.159-0.469-1.487-0.939-2.975-1.4-4.464z"></path>
<path fill="#fff" d="M10.765 9.42c0.839 0.081 1.814-0.24 2.542 0.296 0.633 0.493 0.483 1.504-0.177 1.903 0.935 0.441 0.9 1.909-0.052 2.304-0.738 0.243-1.546 0.057-2.311 0.113-0.008-1.539-0.004-3.078-0.003-4.616M11.489 11.29c0.557 0.045 1.486 0.099 1.506-0.684-0.068-0.719-0.985-0.392-1.462-0.476-0.099 0.377-0.025 0.774-0.043 1.16M11.48 12.013c-0.004 0.427 0.001 0.854-0.007 1.281 0.444 0.031 0.918 0.087 1.347-0.043 0.54-0.279 0.261-1.122-0.273-1.222-0.354-0.042-0.71-0.018-1.066-0.015z"></path>
<path fill="#c0111e" d="M5.375 2.154c2.667-1.853 6.052-2.385 9.215-1.899 4.125 0.848 7.623 4.086 8.872 8.096 0.26 0.741 0.343 1.525 0.539 2.281v2.708c-0.218 0.984-0.37 1.99-0.756 2.929-1.524 4.165-5.507 7.167-9.876 7.73h-2.708c-4.973-0.594-9.414-4.457-10.404-9.409-0.483-3.163 0.042-6.554 1.905-9.213 0.364-0.649 1.019-1.105 1.289-1.8 0.046-0.045 0.092-0.091 0.137-0.137 0.689-0.278 1.148-0.918 1.789-1.287M5.989 4.81c0.829 0.931 1.765 1.761 2.63 2.657-0.625 0.11-1.245 0.25-1.873 0.343-0.656-0.593-1.232-1.281-1.933-1.818-1.815 2.181-2.605 5.177-2.044 7.963 0.522 2.821 2.404 5.336 4.952 6.65 3.333 1.771 7.737 1.333 10.57-1.19-0.836-0.82-1.687-1.626-2.516-2.453 0.786-0.004 1.571-0.010 2.357 0.001 0.441 0.426 0.848 0.882 1.274 1.32 3.286-3.597 2.932-9.752-0.654-13.034-3.349-3.35-9.18-3.518-12.763-0.44z"></path>
<path fill="#030303" d="M6.882 8.025c3.441-0.773 7.074-0.77 10.515-0.001 0.497 1.104 0.41 2.558 1.309 3.414 0.014 0.767 0.021 1.536 0.027 2.304 0.067 0.052 0.204 0.156 0.271 0.208 0.007 0.424 0.047 0.853-0.027 1.273-0.491 0.103-0.996 0.031-1.493 0.054-0.011 0.497 0.020 0.995-0.025 1.492-0.472 0.067-0.954 0.063-1.427 0-0.040-0.502-0.015-1.007-0.024-1.51-2.577-0.003-5.154-0.003-7.733 0-0.010 0.504 0.020 1.007-0.025 1.51-0.473 0.061-0.956 0.068-1.427-0.001-0.043-0.495-0.014-0.993-0.024-1.49-0.497-0.024-1 0.049-1.492-0.053-0.080-0.421-0.035-0.851-0.029-1.275 0.068-0.052 0.204-0.153 0.272-0.205 0.006-0.767 0.011-1.536 0.027-2.304 0.897-0.858 0.812-2.309 1.306-3.414M6.947 9.419c0.449 1.552 0.943 3.091 1.446 4.626 0.188-0.004 0.377-0.010 0.565-0.018 0.476-1.538 0.963-3.070 1.437-4.607-0.247-0.008-0.495-0.010-0.742-0.007-0.347 1.021-0.636 2.062-0.984 3.085-0.377-1.017-0.618-2.083-1.016-3.091-0.236 0.006-0.47 0.008-0.706 0.013M14.025 9.419c0.46 1.489 0.931 2.976 1.4 4.464 0.060 0.278 0.413 0.114 0.607 0.159 0.501-1.533 0.996-3.071 1.439-4.623-0.236-0.004-0.47-0.007-0.706-0.011-0.381 1.019-0.647 2.079-1.005 3.106-0.346-1.028-0.636-2.075-0.991-3.102-0.248-0.001-0.497 0-0.744 0.007M10.765 9.42c-0.001 1.538-0.006 3.077 0.003 4.616 0.765-0.056 1.573 0.13 2.311-0.113 0.952-0.395 0.987-1.863 0.052-2.304 0.66-0.399 0.811-1.411 0.177-1.903-0.728-0.536-1.704-0.215-2.542-0.296z"></path>
<path fill="#030303" d="M11.489 11.29c0.018-0.385-0.056-0.783 0.043-1.16 0.477 0.084 1.394-0.243 1.462 0.476-0.020 0.783-0.949 0.728-1.506 0.684z"></path>
<path fill="#030303" d="M11.48 12.013c0.356-0.003 0.712-0.027 1.066 0.015 0.534 0.1 0.813 0.943 0.273 1.222-0.428 0.13-0.903 0.074-1.347 0.043 0.008-0.427 0.003-0.854 0.007-1.281z"></path>
</svg>
