<svg xmlns="http://www.w3.org/2000/svg" width="24" height="24">
    <path fill="#e20a16" d="M11.134 0h1.474c4.53.218 8.783 3.182 10.48 7.397.499 1.145.734 2.377.913 3.607v2.034c-.406 4.211-3.096 8.13-6.977 9.865-1.236.6-2.591.88-3.938 1.097h-2.129c-4.021-.412-7.793-2.869-9.617-6.502C.546 15.988.136 14.305.001 12.61v-1.205c.128-1.578.481-3.148 1.178-4.576C2.969 2.977 6.92.347 11.134-.001zm-.41 2.092c-3.005.364-5.778 2.192-7.31 4.799-1.945 3.192-1.859 7.482.227 10.586 2.009 3.136 5.868 4.948 9.564 4.458 3.838-.419 7.253-3.281 8.357-6.977.878-2.806.437-5.99-1.194-8.438-2.023-3.16-5.928-4.95-9.643-4.428z"/>
    <path fill="#fff" d="M10.724 2.092c3.715-.522 7.62 1.268 9.643 4.428 1.631 2.448 2.072 5.633 1.194 8.438-1.104 3.696-4.519 6.558-8.357 6.977-3.696.49-7.555-1.322-9.564-4.458-2.086-3.104-2.172-7.394-.227-10.586 1.532-2.606 4.306-4.435 7.31-4.799zM6.185 6.599c-.002.403-.001.806.001 1.21.25-.184.498-.371.748-.554.007 1.778-.001 3.558.004 5.336.389.004.778.002 1.166-.001-.001-2.238.002-4.476-.002-6.714-.767-.181-1.382.227-1.916.724zm3.606 1.125c.378.005.756.006 1.134.001.115-.27.22-.596.521-.714.605-.298 1.362.502.958 1.076-.816 1.133-1.772 2.166-2.581 3.304-.036.401-.007.805-.012 1.207 1.283.002 2.567.002 3.85 0v-1.135h-2.429c.696-.938 1.499-1.801 2.15-2.772.656-1 .06-2.443-1.056-2.788-1.181-.432-2.534.582-2.534 1.82zm6.072-1.858c-.001.475 0 .95-.002 1.424l-.472.011c-.001.33-.001.66.001.991.156.002.313.006.47.01.025 1.139-.044 2.281.035 3.416.146.774 1.012.991 1.688.881.002-.334.002-.665-.002-.997a76.163 76.163 0 0 0-.676 0c-.09-1.097-.016-2.203-.038-3.304.229-.001.458-.002.688-.005.001-.331.001-.664-.001-.995l-.688-.004c.001-.476.001-.953-.001-1.429-.334-.004-.668-.002-1.002 0zM6.24 16.598l.61.001c-.084-1.123.772-2.232 1.937-2.243 2.141-.035 4.286-.034 6.427-.001 1.174.004 2.032 1.116 1.956 2.245l.605-.001c.116-1.457-1.058-2.839-2.537-2.862-2.191-.023-4.385-.043-6.575.011-1.435.074-2.53 1.44-2.423 2.85zm2.438-1.797c-.842.272-1.465 1.109-1.469 1.997-.04.93.607 1.83 1.494 2.104.845.283 1.847-.024 2.375-.744.63-.781.587-2.006-.097-2.742-.552-.644-1.504-.893-2.303-.614zm5.28-.001c-.842.274-1.465 1.11-1.469 1.998-.04.93.607 1.83 1.494 2.104.845.283 1.847-.024 2.376-.744.629-.781.586-2.006-.098-2.741-.552-.646-1.502-.894-2.303-.617z"/>
    <path fill="#fff" d="M8.916 15.737c.816-.383 1.822.426 1.633 1.303-.103.877-1.266 1.319-1.931.744-.707-.523-.532-1.75.298-2.047zM14.196 15.737c.817-.383 1.822.426 1.632 1.304-.101.841-1.183 1.296-1.862.793-.773-.488-.634-1.79.23-2.098z"/>
    <path d="M6.185 6.599c.534-.497 1.15-.905 1.916-.724.005 2.238.001 4.476.002 6.714-.389.004-.778.005-1.166.001-.005-1.778.004-3.558-.004-5.336-.25.184-.498.371-.748.554-.002-.403-.004-.806-.001-1.21zM9.791 7.724c0-1.238 1.354-2.252 2.534-1.82 1.116.344 1.712 1.788 1.056 2.788-.652.971-1.454 1.834-2.15 2.772h2.429v1.135c-1.283.002-2.567.002-3.85 0 .005-.402-.024-.806.012-1.207.809-1.138 1.765-2.171 2.581-3.304.404-.575-.353-1.374-.958-1.076-.301.118-.406.444-.521.714-.378.005-.756.004-1.134-.001zM15.863 5.866a55.78 55.78 0 0 1 1.002 0c.002.476.002.953.001 1.429l.688.004c.002.331.002.664.001.995l-.688.005c.023 1.1-.052 2.207.038 3.304h.676c.005.332.005.664.002.997-.677.11-1.542-.107-1.688-.881-.079-1.135-.01-2.278-.035-3.416l-.47-.01c-.002-.331-.002-.661-.001-.991l.472-.011c.002-.474.001-.949.002-1.424zM6.24 16.598c-.107-1.41.988-2.776 2.423-2.85 2.19-.054 4.384-.034 6.575-.011 1.478.023 2.653 1.405 2.537 2.862l-.605.001c.076-1.129-.782-2.242-1.956-2.245a205.517 205.517 0 0 0-6.427.001c-1.165.011-2.021 1.12-1.937 2.243l-.61-.001z"/>
    <path d="M8.678 14.801c.799-.278 1.751-.03 2.303.614.684.736.727 1.961.097 2.742-.528.72-1.53 1.027-2.375.744-.887-.274-1.534-1.174-1.494-2.104.004-.888.626-1.724 1.469-1.997zm.238.936c-.829.298-1.004 1.524-.298 2.047.665.575 1.828.133 1.931-.744.188-.877-.817-1.686-1.633-1.303zM13.958 14.8c.8-.277 1.751-.029 2.303.617.684.734.727 1.96.098 2.741-.529.72-1.531 1.027-2.376.744-.887-.274-1.534-1.174-1.494-2.104.004-.888.626-1.724 1.469-1.998zm.238.937c-.864.307-1.003 1.609-.23 2.098.679.503 1.762.048 1.862-.793.19-.878-.815-1.687-1.632-1.304z"/>
</svg>
