<svg xmlns="http://www.w3.org/2000/svg" width="24" height="24">
    <path fill="#1e1e1e" opacity=".92" d="M3.916 0h16.13l.172.111C14.845.071 9.47.133 4.097.08L3.916 0z"/>
    <path fill="#fff" d="M4.097.08C9.47.133 14.845.071 20.218.111c.176.079.352.157.523.246.532.412.897 1.05.858 1.736-.001 6.638.005 13.277-.003 19.916.015.653-.359 1.237-.853 1.635-.209.11-.431.192-.651.273-5.371-.044-10.744.002-16.115-.023a2.156 2.156 0 0 1-1.399-1.493c.054-6.973.002-13.95.026-20.924C2.841.794 3.39.257 4.097.08zm.145.282C3.456.459 2.826 1.207 2.868 2c0 6.667-.002 13.334.001 20.001-.033.872.756 1.658 1.629 1.619h15.205c.868.032 1.642-.752 1.612-1.618.004-6.668.002-13.336.001-20.004.052-.918-.797-1.728-1.709-1.658C14.486.355 9.362.311 4.242.362z"/>
    <path fill="#fff" d="M4.337.959C9.425.916 14.517.951 19.606.941c.588-.051 1.149.453 1.105 1.054.006 6.636.001 13.272.002 19.908.06.575-.419 1.138-1.008 1.114-5.07.005-10.14.004-15.21.001-.55.027-1.044-.464-1.02-1.014-.007-6.669-.004-13.339-.002-20.007-.032-.504.36-.985.864-1.038zm4.193.609C7.047 3.672 5.558 5.773 4.081 7.881c-.369.429.061 1.177.616 1.069.717-.187 1.408-.465 2.115-.686.004.946-.004 1.892.004 2.838.026 1.868.684 3.7 1.763 5.217.513.721 1.034 1.458 1.293 2.315.423 1.234.245 2.555.282 3.833h3.342c.042-2.104.063-4.311-.936-6.229-.469-1.102-1.496-1.845-1.95-2.95-.637-1.592-.361-3.34-.432-5.01.711.211 1.4.501 2.122.664.542.074.942-.609.611-1.044-1.455-2.114-2.92-4.221-4.381-6.33zm4.995 2.099c.011 3.159.546 6.338 1.736 9.271.301.887 1.345 1.432 2.229 1.06.751-.263 1.025-1.072 1.254-1.758.897-2.766 1.473-5.657 1.465-8.573h-6.684z"/>
    <path d="M4.242.362C9.362.311 14.486.355 19.607.34c.912-.07 1.761.74 1.709 1.658.001 6.668.003 13.336-.001 20.004.03.866-.744 1.65-1.612 1.618H4.498c-.873.039-1.662-.747-1.629-1.619C2.866 15.334 2.868 8.667 2.868 2 2.826 1.207 3.456.459 4.242.362zm.095.597c-.504.053-.896.534-.864 1.038-.002 6.668-.005 13.338.002 20.007-.024.55.47 1.041 1.02 1.014 5.07.003 10.14.004 15.21-.001.589.024 1.068-.539 1.008-1.114-.001-6.636.004-13.272-.002-19.908.044-.601-.517-1.105-1.105-1.054C14.517.951 9.425.916 4.337.959z"/>
    <path d="M8.53 1.568c1.461 2.109 2.926 4.216 4.381 6.33.331.435-.069 1.118-.611 1.044-.722-.163-1.411-.453-2.122-.664.071 1.67-.205 3.418.432 5.01.454 1.105 1.481 1.848 1.95 2.95.999 1.918.978 4.125.936 6.229h-3.342c-.037-1.278.141-2.599-.282-3.833-.259-.857-.78-1.594-1.293-2.315-1.079-1.517-1.737-3.349-1.763-5.217-.008-.946 0-1.892-.004-2.838-.707.221-1.398.499-2.115.686-.555.108-.985-.64-.616-1.069C5.558 5.773 7.047 3.672 8.53 1.568zM13.525 3.667h6.684c.008 2.916-.568 5.807-1.465 8.573-.229.686-.503 1.495-1.254 1.758-.884.372-1.928-.173-2.229-1.06-1.19-2.933-1.725-6.112-1.736-9.271z"/>
    <path fill="#181818" opacity=".89" d="M20.741.357c.548.197.789.766.959 1.275v20.729c-.166.513-.411 1.079-.957 1.283.494-.398.868-.982.853-1.635.008-6.639.002-13.278.003-19.916.039-.686-.326-1.324-.858-1.736z"/>
    <path fill="#181818" opacity=".93" d="M2.5 1.651l.104-.174c-.024 6.974.028 13.951-.026 20.924l-.078.181V1.651z"/>
    <path fill="#111" opacity=".93" d="M3.977 23.894c5.371.025 10.744-.021 16.115.023l.185.083H4.15l-.173-.106z"/>
</svg>
