<!-- Generated by IcoMoon.io -->
<svg version="1.1" xmlns="http://www.w3.org/2000/svg" width="24" height="24" viewBox="0 0 24 24">
<title>regulatory--no-parking--g6</title>
<path fill="#c0111e" d="M11.4 0h1.133c2.993 0.145 5.926 1.412 8.020 3.568 2.113 2.122 3.35 5.060 3.448 8.050v0.73c-0.090 2.972-1.307 5.898-3.394 8.022-2.092 2.178-5.033 3.47-8.042 3.631h-1.096c-2.964-0.148-5.869-1.396-7.958-3.512-2.17-2.146-3.44-5.15-3.51-8.198v-0.566c0.062-3.054 1.333-6.066 3.506-8.215 2.072-2.107 4.952-3.341 7.894-3.508M10.312 2.434c-2.312 0.396-4.46 1.672-5.912 3.515-1.39 1.73-2.149 3.952-2.111 6.172 0.016 2.122 0.766 4.223 2.080 5.888 1.349-1.348 2.702-2.692 4.044-4.048-0.001 1.080 0 2.16-0.001 3.24-0.806 0.81-1.621 1.613-2.422 2.43 2.292 1.82 5.425 2.515 8.268 1.814 2.288-0.541 4.358-1.954 5.701-3.883 1.283-1.814 1.898-4.081 1.727-6.294-0.136-1.927-0.88-3.796-2.072-5.31-0.941 0.824-1.889 1.64-2.864 2.422-0.046-0.742-0.245-1.482-0.637-2.117 0.637-0.629 1.265-1.267 1.901-1.898-2.141-1.694-5.011-2.42-7.7-1.931z"></path>
<path fill="#094ca1" d="M10.312 2.434c2.689-0.49 5.56 0.236 7.7 1.931-0.636 0.631-1.264 1.27-1.901 1.898-0.653-1.084-1.906-1.691-3.151-1.702-1.516-0.020-3.031-0.005-4.548-0.008-0.001 3.136 0 6.272 0 9.408-1.342 1.356-2.695 2.7-4.044 4.048-1.314-1.666-2.064-3.767-2.080-5.888-0.038-2.22 0.721-4.441 2.111-6.172 1.452-1.843 3.6-3.119 5.912-3.515z"></path>
<path fill="#094ca1" d="M16.748 8.38c0.976-0.781 1.924-1.597 2.864-2.422 1.193 1.514 1.937 3.383 2.072 5.31 0.172 2.213-0.444 4.48-1.727 6.294-1.343 1.93-3.413 3.342-5.701 3.883-2.843 0.701-5.976 0.006-8.268-1.814 0.8-0.817 1.615-1.62 2.422-2.43 0.001 0.746 0 1.493 0.001 2.238 0.71 0.001 1.421 0.001 2.131 0 0.001-2.178-0.001-4.356 0.001-6.534 0.876-0.007 1.752 0.010 2.628-0.007 1.039-0.034 2.113-0.443 2.761-1.285 0.702-0.911 0.869-2.113 0.815-3.233z"></path>
<path fill="#094ca1" d="M10.543 6.641c0.978 0.055 1.992-0.134 2.945 0.139 1.17 0.448 1.421 1.964 0.998 3.019-0.229 0.628-0.869 1.031-1.524 1.057-0.806 0.018-1.613 0.004-2.419 0.006 0-1.408-0.001-2.814 0-4.222z"></path>
<path fill="#fff" d="M8.412 4.553c1.517 0.004 3.032-0.012 4.548 0.008 1.246 0.011 2.498 0.618 3.151 1.702 0.392 0.635 0.592 1.375 0.637 2.117 0.054 1.12-0.113 2.322-0.815 3.233-0.648 0.842-1.722 1.252-2.761 1.285-0.876 0.017-1.752 0-2.628 0.007-0.002 2.178 0 4.356-0.001 6.534-0.71 0.001-1.421 0.001-2.131 0-0.001-0.745 0-1.492-0.001-2.238 0.001-1.080 0-2.16 0.001-3.24 0-3.136-0.001-6.272 0-9.408M10.543 6.641c-0.001 1.408 0 2.814 0 4.222 0.806-0.002 1.613 0.012 2.419-0.006 0.655-0.026 1.295-0.43 1.524-1.057 0.422-1.055 0.172-2.572-0.998-3.019-0.953-0.274-1.967-0.084-2.945-0.139z"></path>
</svg>
