<?xml version="1.0" encoding="utf-8"?>
<!-- Generated by IcoMoon.io -->
<!DOCTYPE svg PUBLIC "-//W3C//DTD SVG 1.1//EN" "http://www.w3.org/Graphics/SVG/1.1/DTD/svg11.dtd">
<svg version="1.1" xmlns="http://www.w3.org/2000/svg" xmlns:xlink="http://www.w3.org/1999/xlink" width="24" height="24" viewBox="0 0 24 24">
<path fill="#c48589" d="M10.45 1.076c0.058-0.21 0.326-0.149 0.487-0.136-0.109 0.158-0.317 0.167-0.487 0.136z"></path>
<path fill="#c48589" d="M12.586 0.946c0.195 0.002 0.512-0.114 0.609 0.125-0.209 0.037-0.447 0.033-0.609-0.125z"></path>
<path fill="#c48589" d="M9.622 1.183c0.065-0.141 0.182-0.187 0.352-0.137-0.069 0.145-0.186 0.192-0.352 0.137z"></path>
<path fill="#c48589" d="M13.554 1.045c0.173-0.047 0.288 0.004 0.348 0.151-0.164 0.045-0.281-0.006-0.348-0.151z"></path>
<path fill="#c48589" d="M14.141 1.165c0.169-0.048 0.286 0.001 0.351 0.147-0.164 0.048-0.281 0-0.351-0.147z"></path>
<path fill="#c48589" d="M14.616 1.293c0.056 0.005 0.166 0.014 0.22 0.020-0.084 0.162-0.157 0.155-0.22-0.020z"></path>
<path fill="#c48589" d="M7.488 1.77c0.065-0.031 0.197-0.091 0.262-0.122-0.065 0.031-0.197 0.091-0.262 0.122z"></path>
<path fill="#c48589" d="M15.826 1.687l0.032 0.014 0.027 0.011c-0.014-0.006-0.044-0.018-0.059-0.025z"></path>
<path fill="#c48589" d="M7.282 1.815l0.041-0.009c-0.021 0.013-0.064 0.037-0.085 0.048l0.044-0.039z"></path>
<path fill="#c48589" d="M16.206 1.823l0.030 0.009 0.040 0.022c-0.018-0.008-0.052-0.025-0.070-0.032z"></path>
<path fill="#c48589" d="M7.083 1.934l0.050-0.020c-0.022 0.012-0.069 0.035-0.091 0.047l0.041-0.027z"></path>
<path fill="#c48589" d="M16.392 1.912l0.056 0.022 0.045 0.034c-0.025-0.014-0.076-0.043-0.101-0.057z"></path>
<path fill="#c48589" d="M6.85 2.022l0.087-0.013-0.043 0.057-0.063 0.019 0.018-0.063z"></path>
<path fill="#c48589" d="M16.616 2.016l0.091 0.018 0.056 0.072c-0.037-0.022-0.11-0.067-0.147-0.090z"></path>
<path fill="#c48589" d="M16.86 2.152l0.038 0.018 0.025 0.014c-0.015-0.008-0.047-0.024-0.063-0.032z"></path>
<path fill="#c48589" d="M5.206 3.068c0.072-0.161 0.188-0.236 0.348-0.226-0.056 0.163-0.171 0.239-0.348 0.226z"></path>
<path fill="#c48589" d="M5.070 3.122l0.047-0.018-0.037 0.030-0.047 0.027 0.037-0.039z"></path>
<path fill="#c48589" d="M4.812 3.373c0.013-0.013 0.039-0.038 0.052-0.051-0.013 0.013-0.039 0.038-0.052 0.051z"></path>
<path fill="#c48589" d="M18.792 3.456c0.009 0.011 0.028 0.030 0.038 0.039-0.009-0.009-0.028-0.028-0.038-0.039z"></path>
<path fill="#c48589" d="M3.178 4.903l0.024-0.025c-0.011 0.014-0.032 0.043-0.043 0.056l0.019-0.031z"></path>
<path fill="#c48589" d="M2.675 5.622c-0.051-0.22 0.174-0.345 0.323-0.452 0.050 0.222-0.138 0.377-0.323 0.452z"></path>
<path fill="#c48589" d="M20.793 5.475c0.008 0.011 0.025 0.033 0.033 0.044-0.008-0.011-0.025-0.033-0.033-0.044z"></path>
<path fill="#c48589" d="M2.304 6.079c-0.005-0.155 0.067-0.264 0.218-0.329 0.026 0.179-0.046 0.288-0.218 0.329z"></path>
<path fill="#c48589" d="M2.055 6.414c0.018-0.158 0.102-0.249 0.249-0.272 0.008 0.18-0.074 0.271-0.249 0.272z"></path>
<path fill="#c48589" d="M1.399 7.63l0.015-0.026c-0.009 0.015-0.026 0.047-0.034 0.064l0.019-0.038z"></path>
<path fill="#c48589" d="M1.265 7.809l0.063-0.046c-0.017 0.026-0.048 0.078-0.065 0.104l0.002-0.058z"></path>
<path fill="#c48589" d="M22.225 7.941l0.020 0.035 0.020 0.047c-0.009-0.020-0.030-0.061-0.040-0.083z"></path>
<path fill="#c48589" d="M1.16 8.063l0.095-0.031c-0.034 0.070-0.104 0.212-0.138 0.281 0.011-0.063 0.033-0.188 0.044-0.251z"></path>
<path fill="#c48589" d="M22.321 8.135l0.025 0.041 0.009 0.030c-0.008-0.018-0.025-0.053-0.034-0.071z"></path>
<path fill="#c48589" d="M1.050 8.437l0.022-0.033c-0.009 0.018-0.026 0.053-0.035 0.071l0.013-0.038z"></path>
<path fill="#c48589" d="M0.66 9.582c0.163 0.082 0.158 0.155-0.017 0.219 0.005-0.054 0.013-0.163 0.017-0.219z"></path>
<path fill="#c48589" d="M0.527 10.282c-0.064-0.179-0.018-0.3 0.136-0.365 0.041 0.15-0.005 0.272-0.136 0.365z"></path>
<path fill="#c48589" d="M22.996 10.626c0.241 0.093 0.122 0.413 0.108 0.605-0.121-0.18-0.173-0.396-0.108-0.605z"></path>
<path fill="#c48589" d="M0.305 12.175c0-0.233-0.142-0.576 0.109-0.722 0.060 0.247 0.028 0.506-0.109 0.722z"></path>
<path fill="#c48589" d="M23.131 11.512c0.153 0.236 0.092 0.524 0.104 0.787-0.014 0.489 0.022 0.979-0.024 1.467l-0.074 0.142c0.028-0.798 0.035-1.598-0.006-2.396z"></path>
<path fill="#c48589" d="M0.294 13.241c0.171 0.155 0.161 0.4 0.121 0.606-0.223-0.115-0.122-0.409-0.121-0.606z"></path>
<path fill="#c48589" d="M22.981 14.673c-0.054-0.175 0.027-0.348 0.119-0.492 0.034 0.157 0.114 0.455-0.119 0.492z"></path>
<path fill="#c48589" d="M0.42 14.299c0.122 0.18 0.174 0.397 0.111 0.61-0.241-0.097-0.121-0.416-0.111-0.61z"></path>
<path fill="#c48589" d="M22.88 15.259c-0.054-0.167-0.009-0.284 0.135-0.354 0.053 0.168 0.008 0.286-0.135 0.354z"></path>
<path fill="#c48589" d="M0.531 14.953c0.112 0.471 0.261 0.933 0.329 1.414-0.043-0.116-0.085-0.231-0.126-0.345-0.046-0.117-0.092-0.233-0.137-0.349-0.063-0.235-0.071-0.479-0.065-0.72z"></path>
<path fill="#c48589" d="M0.877 16.446c0.037 0.059 0.11 0.177 0.147 0.235l-0.099-0.020c-0.012-0.054-0.035-0.162-0.047-0.215z"></path>
<path fill="#c48589" d="M1.031 16.852c0.002 0.006 0.008 0.017 0.011 0.022l-0.011-0.020v-0.002z"></path>
<path fill="#c48589" d="M22.462 16.884c0.007-0.012 0.022-0.035 0.030-0.048l-0.011 0.037-0.019 0.012z"></path>
<path fill="#c48589" d="M22.32 17.171c0.008-0.018 0.025-0.051 0.033-0.067l-0.012 0.027-0.021 0.040z"></path>
<path fill="#c48589" d="M22.228 17.349c0.009-0.018 0.028-0.054 0.038-0.072l-0.019 0.043-0.019 0.030z"></path>
<path fill="#c48589" d="M1.284 17.449c0.009 0.018 0.030 0.056 0.039 0.073l-0.030-0.041-0.009-0.032z"></path>
<path fill="#c48589" d="M1.381 17.628c0.012 0.018 0.033 0.054 0.045 0.072l-0.022-0.030-0.022-0.043z"></path>
<path fill="#c48589" d="M21.566 18.576c-0.053-0.181 0.079-0.339 0.229-0.419l0.013 0.085c-0.020 0.166-0.102 0.277-0.242 0.333z"></path>
<path fill="#c48589" d="M21.346 18.919c-0.008-0.167 0.067-0.259 0.226-0.277 0.017 0.164-0.059 0.257-0.226 0.277z"></path>
<path fill="#c48589" d="M2.195 18.988c0.157 0.041 0.234 0.141 0.229 0.294-0.173-0.025-0.249-0.123-0.229-0.294z"></path>
<path fill="#c48589" d="M21.106 19.33c-0.015-0.183 0.064-0.298 0.236-0.343-0.006 0.157-0.085 0.272-0.236 0.343z"></path>
<path fill="#c48589" d="M2.424 19.367c0.168 0.008 0.247 0.097 0.238 0.266-0.162-0.018-0.241-0.106-0.238-0.266z"></path>
<path fill="#c48589" d="M21.042 19.452l0.028-0.035-0.017 0.046-0.038 0.035 0.026-0.046z"></path>
<path fill="#c48589" d="M20.804 19.718c0.013-0.013 0.038-0.039 0.051-0.052-0.013 0.013-0.038 0.039-0.051 0.052z"></path>
<path fill="#c48589" d="M2.66 19.713c0.17 0.014 0.246 0.115 0.227 0.3-0.154-0.052-0.229-0.151-0.227-0.3z"></path>
<path fill="#c48589" d="M2.984 20.089c0.186 0 0.278 0.092 0.275 0.279-0.147-0.040-0.239-0.132-0.275-0.279z"></path>
<path fill="#c48589" d="M4.067 21.165c0.176-0.001 0.261 0.087 0.255 0.267-0.158-0.032-0.242-0.121-0.255-0.267z"></path>
<path fill="#c48589" d="M4.402 21.528c0.19-0.021 0.291 0.056 0.301 0.232-0.148-0.009-0.248-0.086-0.301-0.232z"></path>
<path fill="#c48589" d="M18.562 21.859c0.054-0.15 0.163-0.223 0.326-0.218-0.053 0.175-0.162 0.247-0.326 0.218z"></path>
<path fill="#c48589" d="M5.258 22.114c0.181-0.015 0.27 0.067 0.268 0.245-0.157-0.018-0.246-0.099-0.268-0.245z"></path>
<path fill="#c48589" d="M17.217 22.795c0.019-0.009 0.057-0.027 0.077-0.037l-0.032 0.019-0.045 0.018z"></path>
<path fill="#c48589" d="M16.956 22.936c0.038-0.022 0.112-0.067 0.15-0.090l-0.058 0.073-0.092 0.017z"></path>
<path fill="#c48589" d="M6.731 23.014c0.018 0.008 0.051 0.024 0.067 0.032l-0.040-0.018-0.027-0.014z"></path>
<path fill="#c48589" d="M16.746 23.029c0.024-0.012 0.072-0.035 0.097-0.047l-0.044 0.028-0.053 0.019z"></path>
<path fill="#c48589" d="M6.917 23.098c0.024 0.013 0.072 0.038 0.097 0.051l-0.052-0.021-0.045-0.030z"></path>
<path fill="#c48589" d="M16.571 23.12c0.015-0.008 0.048-0.025 0.064-0.033l-0.038 0.021-0.026 0.012z"></path>
<path fill="#c48589" d="M7.12 23.209c0.024 0.015 0.071 0.044 0.095 0.059l-0.051-0.002-0.044-0.057z"></path>
<path fill="#c48589" d="M16.299 23.26c0.013-0.008 0.039-0.025 0.053-0.033l-0.012 0.024-0.041 0.009z"></path>
<path fill="#c48589" d="M7.381 23.276c0.070 0.034 0.21 0.104 0.28 0.139-0.063-0.012-0.187-0.033-0.249-0.044l-0.031-0.096z"></path>
<path fill="#c48589" d="M15.917 23.384c0.019-0.008 0.058-0.025 0.077-0.034l-0.033 0.015-0.044 0.019z"></path>
<path fill="#c48589" d="M7.752 23.46c0.018 0.009 0.054 0.026 0.072 0.035l-0.038-0.012-0.034-0.024z"></path>
<path fill="#c48589" d="M15.742 23.479c0.018-0.011 0.054-0.030 0.072-0.039l-0.041 0.028-0.031 0.011z"></path>
<path fill="#e81828" d="M10.937 0.94c0.55 0.013 1.099 0.008 1.649 0.006 0.162 0.158 0.4 0.162 0.609 0.125 0.090-0.006 0.268-0.020 0.358-0.026 0.066 0.145 0.183 0.196 0.348 0.151 0.060-0.008 0.18-0.024 0.24-0.032 0.070 0.147 0.187 0.195 0.351 0.147l0.124-0.018c0.063 0.175 0.136 0.182 0.22 0.020 0.047 0.015 0.142 0.047 0.189 0.064 0.057 0.018 0.169 0.053 0.226 0.071 0.116 0.045 0.232 0.090 0.348 0.136 0.057 0.026 0.17 0.078 0.227 0.103 0.015 0.007 0.045 0.019 0.059 0.025 0.080 0.028 0.241 0.083 0.322 0.111 0.018 0.007 0.052 0.024 0.070 0.032l0.116 0.057c0.025 0.014 0.076 0.043 0.101 0.057l0.123 0.047c0.037 0.022 0.11 0.067 0.147 0.090l0.098 0.046c0.015 0.008 0.047 0.024 0.063 0.032l0.041 0.022c0.314 0.221 0.643 0.422 0.985 0.598l0.020 0.013c0.215 0.189 0.448 0.356 0.693 0.505 0.032 0.033 0.097 0.101 0.13 0.134 0.009 0.011 0.028 0.030 0.038 0.039l0.039 0.039c0.093 0.199 0.266 0.359 0.497 0.358 0.022 0.022 0.065 0.069 0.087 0.092 0.395 0.454 0.807 0.893 1.217 1.335 0.031 0.039 0.092 0.117 0.123 0.156 0.008 0.011 0.025 0.033 0.033 0.044l0.031 0.041c0.219 0.389 0.479 0.753 0.74 1.115 0.187 0.31 0.384 0.614 0.544 0.939 0.021 0.082 0.064 0.246 0.085 0.327 0.011 0.021 0.031 0.063 0.040 0.083l0.056 0.111c0.009 0.018 0.026 0.053 0.034 0.071 0.021 0.059 0.063 0.179 0.084 0.238 0.031 0.064 0.092 0.19 0.123 0.254 0.058 0.194 0.106 0.391 0.164 0.586 0.017 0.056 0.050 0.168 0.066 0.223 0.047 0.155 0.089 0.312 0.134 0.469 0.064 0.209 0.083 0.43 0.070 0.649-0.065 0.209-0.013 0.426 0.108 0.605 0.007 0.070 0.021 0.21 0.027 0.28 0.041 0.798 0.034 1.598 0.006 2.396-0.009 0.069-0.027 0.205-0.037 0.273-0.092 0.144-0.174 0.317-0.119 0.492 0.009 0.059 0.026 0.175 0.034 0.233-0.144 0.070-0.189 0.187-0.135 0.354 0.004 0.181-0.021 0.363-0.072 0.537-0.045 0.156-0.086 0.313-0.132 0.471-0.018 0.054-0.051 0.166-0.069 0.221-0.028 0.086-0.086 0.261-0.116 0.348-0.007 0.013-0.022 0.037-0.030 0.048l-0.109 0.22c-0.008 0.017-0.025 0.050-0.033 0.067l-0.054 0.105c-0.009 0.018-0.028 0.054-0.038 0.072-0.041 0.083-0.125 0.249-0.168 0.332-0.002 0.063-0.008 0.187-0.012 0.249-0.084 0.074-0.169 0.15-0.253 0.227-0.15 0.079-0.283 0.238-0.229 0.419l0.006 0.066c-0.158 0.018-0.234 0.11-0.226 0.277l-0.004 0.069c-0.173 0.045-0.252 0.16-0.236 0.343l-0.035 0.086-0.028 0.035-0.026 0.046c-0.040 0.043-0.121 0.126-0.161 0.168-0.013 0.013-0.038 0.039-0.051 0.052-0.046 0.047-0.138 0.141-0.184 0.187-0.149 0.064-0.216 0.179-0.203 0.342-0.024 0.021-0.072 0.061-0.096 0.083-0.372 0.274-0.677 0.623-0.998 0.954-0.148 0.116-0.292 0.236-0.435 0.358-0.163-0.006-0.272 0.067-0.326 0.218-0.13 0.17-0.299 0.303-0.481 0.414-0.053 0.039-0.16 0.117-0.213 0.157-0.125 0.073-0.249 0.151-0.376 0.225-0.050 0.026-0.149 0.078-0.197 0.104-0.020 0.009-0.058 0.027-0.077 0.037l-0.111 0.051c-0.038 0.022-0.112 0.067-0.15 0.090l-0.114 0.046c-0.025 0.012-0.073 0.035-0.097 0.047l-0.111 0.058c-0.015 0.008-0.048 0.025-0.064 0.033l-0.219 0.106c-0.014 0.008-0.040 0.025-0.053 0.033-0.077 0.022-0.229 0.067-0.305 0.090-0.019 0.009-0.058 0.026-0.077 0.034l-0.103 0.056c-0.018 0.009-0.054 0.028-0.072 0.039-0.093 0.032-0.281 0.097-0.375 0.129-0.060 0.018-0.181 0.053-0.241 0.071-0.123 0.035-0.368 0.105-0.491 0.141l-0.048-0.279c0.008 0.077 0.024 0.229 0.032 0.306-0.383 0.031-0.757 0.123-1.14 0.154h-3.555c-0.465 0.019-0.852-0.338-1.312-0.291l-0.104 0.005c-0.161-0.050-0.32-0.098-0.479-0.151-0.051-0.017-0.154-0.051-0.205-0.067-0.018-0.009-0.054-0.026-0.072-0.035l-0.091-0.044c-0.070-0.035-0.21-0.105-0.28-0.139l-0.167-0.008c-0.024-0.015-0.071-0.044-0.095-0.059l-0.105-0.060c-0.025-0.013-0.073-0.038-0.097-0.051l-0.119-0.052c-0.017-0.008-0.050-0.024-0.067-0.032l-0.202-0.099 0.103-0.239c-0.064 0.027-0.193 0.080-0.257 0.108-0.267-0.138-0.531-0.283-0.806-0.404l-0.043-0.020c0.001-0.177-0.087-0.26-0.268-0.245l-0.056 0.001c-0.025-0.219-0.238-0.358-0.448-0.349l-0.051-0.007c-0.011-0.176-0.111-0.253-0.301-0.232l-0.043-0.051-0.037-0.045c0.006-0.18-0.079-0.268-0.255-0.267l-0.037-0.012c-0.233-0.213-0.458-0.433-0.692-0.646-0.019-0.034-0.059-0.105-0.079-0.139 0.002-0.187-0.090-0.279-0.275-0.279l-0.045-0.035-0.052-0.040c0.019-0.186-0.057-0.286-0.227-0.3l0.001-0.080c0.009-0.169-0.070-0.258-0.238-0.266l0.001-0.084c0.005-0.154-0.072-0.253-0.229-0.294-0.106-0.114-0.2-0.238-0.287-0.365-0.064-0.13-0.129-0.259-0.196-0.387 0.025-0.199-0.059-0.398-0.248-0.481l-0.038-0.056c-0.012-0.018-0.033-0.054-0.045-0.072l-0.058-0.105c-0.009-0.018-0.030-0.056-0.039-0.073-0.018-0.060-0.053-0.181-0.071-0.241-0.044-0.083-0.129-0.251-0.171-0.333-0.002-0.006-0.008-0.017-0.011-0.022l-0.007-0.17c-0.037-0.058-0.11-0.176-0.147-0.235l-0.018-0.079c-0.067-0.481-0.216-0.943-0.329-1.414v-0.044c0.063-0.213 0.011-0.43-0.111-0.61-0.005-0.151-0.006-0.301-0.005-0.452 0.040-0.207 0.051-0.452-0.121-0.606 0.007-0.356 0-0.712 0.011-1.066 0.137-0.216 0.169-0.475 0.109-0.722-0.002-0.15-0.001-0.3 0.002-0.449 0.089-0.197 0.184-0.413 0.124-0.633l-0.013-0.089c0.131-0.093 0.177-0.215 0.136-0.365l-0.020-0.116c0.175-0.064 0.18-0.137 0.017-0.219 0.017-0.047 0.050-0.143 0.066-0.19 0.041-0.118 0.083-0.235 0.125-0.352 0.038-0.121 0.078-0.242 0.118-0.363 0.018-0.051 0.051-0.151 0.067-0.202 0.009-0.018 0.026-0.053 0.035-0.071l0.044-0.090c0.034-0.070 0.104-0.212 0.138-0.281l0.008-0.166c0.017-0.026 0.048-0.078 0.065-0.104l0.052-0.095c0.008-0.017 0.025-0.048 0.034-0.064l0.022-0.044c0.209-0.364 0.435-0.722 0.601-1.109l0.018-0.038c0.175-0.001 0.258-0.092 0.249-0.272v-0.063c0.171-0.040 0.244-0.15 0.218-0.329 0.039-0.032 0.116-0.097 0.154-0.129 0.184-0.074 0.372-0.229 0.323-0.452 0.040-0.059 0.121-0.177 0.161-0.236 0.011-0.013 0.032-0.041 0.043-0.056 0.032-0.037 0.097-0.109 0.13-0.145 0.326-0.254 0.628-0.543 0.874-0.878 0.019-0.022 0.059-0.067 0.079-0.090 0.163 0.013 0.277-0.056 0.34-0.205 0.046-0.047 0.139-0.141 0.187-0.187 0.013-0.013 0.039-0.038 0.052-0.051 0.043-0.040 0.126-0.121 0.169-0.161l0.047-0.027 0.037-0.030 0.089-0.037c0.176 0.013 0.292-0.063 0.348-0.226 0.109-0.106 0.231-0.2 0.354-0.291 0.153-0.096 0.305-0.19 0.458-0.287 0.155-0.061 0.31-0.124 0.468-0.18l0.063-0.019 0.043-0.057 0.104-0.047c0.022-0.012 0.069-0.035 0.091-0.047l0.105-0.060c0.021-0.012 0.064-0.035 0.085-0.048l0.166-0.035c0.065-0.031 0.197-0.091 0.262-0.122 0.045-0.018 0.134-0.053 0.177-0.072 0.056-0.019 0.167-0.058 0.222-0.077 0.118-0.043 0.236-0.084 0.356-0.124 0.155-0.043 0.311-0.080 0.466-0.121 0.209-0.071 0.432-0.087 0.65-0.071 0.167 0.054 0.284 0.008 0.352-0.137 0.158 0.009 0.317 0.020 0.475 0.030 0.17 0.031 0.378 0.022 0.487-0.136M9.983 3.656c-0.298 0.114-0.627 0.108-0.925 0.223-0.884 0.248-1.637 0.789-2.438 1.214 0.002 0.249 0.221 0.417 0.361 0.602 1.241 1.292 2.409 2.652 3.656 3.94 0.445 0.398 0.767 0.908 1.201 1.317 0.512 0.465 0.891 1.053 1.402 1.518 1.796 1.957 3.572 3.932 5.385 5.874 0.277-0.323 0.507-0.681 0.724-1.046 0.526-0.822 0.925-1.737 1.104-2.698 0.163-0.429 0.051-0.915 0.203-1.356-0.028-0.55 0.045-1.104-0.089-1.643-0.066-0.297 0.045-0.625-0.118-0.897-0.231-1.405-0.909-2.7-1.752-3.833-1.317-1.615-3.171-2.893-5.255-3.213-0.203-0.025-0.406-0.061-0.601-0.123-0.72-0.052-1.439-0.047-2.159-0.004-0.223 0.086-0.461 0.121-0.7 0.125M4.266 7.668c-0.53 0.907-1.033 1.862-1.192 2.913-0.193 0.345-0.011 0.774-0.202 1.122 0.033 0.746-0.079 1.501 0.079 2.239 0.050 0.259-0.012 0.543 0.125 0.781 0.272 1.367 1.020 2.584 1.85 3.683 1.285 1.481 3.044 2.577 4.97 2.986 0.303 0.071 0.644-0.024 0.916 0.16 0.63-0.047 1.264 0.021 1.892-0.031 0.427-0.124 0.882-0.071 1.303-0.223 0.848-0.206 1.65-0.567 2.381-1.042-0.112-0.311-0.375-0.517-0.601-0.741-1.467-1.697-3.009-3.328-4.469-5.029-2.231-2.444-4.41-4.944-6.661-7.367-0.179 0.143-0.265 0.365-0.393 0.549z"></path>
<path fill="#fff" d="M16.964 2.206c0.358 0.145 0.676 0.369 0.985 0.598-0.342-0.176-0.67-0.377-0.985-0.598z"></path>
<path fill="#fff" d="M17.969 2.817l0.104 0.061c0.208 0.13 0.429 0.251 0.589 0.443-0.245-0.149-0.478-0.316-0.693-0.505z"></path>
<path fill="#fff" d="M4.285 3.764c0.065-0.168 0.179-0.236 0.34-0.205-0.064 0.149-0.177 0.218-0.34 0.205z"></path>
<path fill="#fff" d="M9.983 3.656c0.239-0.005 0.476-0.039 0.7-0.125 0.72-0.044 1.439-0.048 2.159 0.004 0.195 0.061 0.397 0.098 0.601 0.123 2.084 0.32 3.938 1.598 5.255 3.213 0.843 1.133 1.522 2.428 1.752 3.833 0.163 0.272 0.052 0.601 0.118 0.897 0.134 0.539 0.060 1.094 0.089 1.643-0.153 0.441-0.040 0.927-0.203 1.356-0.18 0.961-0.578 1.876-1.104 2.698-0.216 0.365-0.447 0.724-0.724 1.046-1.814-1.941-3.589-3.917-5.385-5.874-0.511-0.465-0.89-1.053-1.402-1.518-0.434-0.409-0.757-0.919-1.201-1.317-1.246-1.289-2.414-2.648-3.656-3.94-0.139-0.184-0.358-0.352-0.361-0.602 0.8-0.426 1.554-0.966 2.438-1.214 0.298-0.116 0.627-0.11 0.925-0.223M10.992 4.664c-0.171 0.317-0.312 0.65-0.507 0.954 0.005 0.038 0.014 0.114 0.020 0.151l-0.131 0.045c-0.035 0.147-0.072 0.294-0.108 0.441-0.345 0.189-0.175 0.646-0.22 0.965 0.030 0.181-0.080 0.538 0.207 0.538 1.827 0.035 3.656 0.012 5.482 0.012-0.041-0.493 0.209-1.148-0.205-1.522-0.086-0.571-0.554-1.005-0.651-1.579-1.295-0.045-2.593-0.035-3.887-0.005M14.625 8.078c0.002 0.284-0.033 0.577 0.072 0.849 0.284-0.006 0.566-0.007 0.85-0.006 0-0.252 0-0.504 0.005-0.755-0.291-0.135-0.617-0.078-0.927-0.087M10.627 8.075c-0.001 0.284-0.002 0.566-0.004 0.85 0.19-0.002 0.381-0.004 0.571-0.005-0.002-0.279-0.002-0.557-0.001-0.835-0.189-0.004-0.377-0.007-0.566-0.011M16.623 8.918c0.063 0 0.188 0 0.251-0.001 0.001 0.074 0.002 0.222 0.002 0.296l-0.202 0.045c-0.009 0.076-0.030 0.227-0.039 0.303 0.39-0.005 0.753-0.223 1.147-0.136 0.142-0.582-0.488-0.876-0.965-0.861-0.173 0.007-0.126 0.242-0.194 0.355M16.819 9.783c-0.205 0.157-0.408 0.316-0.618 0.465-0.021 0.034-0.063 0.103-0.083 0.137-0.018-0.079-0.051-0.236-0.069-0.316-0.393 0.183-0.848 0.329-1.1 0.708-0.125 0.222-0.050 0.486-0.050 0.726 0.329 0.057 0.765-0.117 0.997 0.196 0.279 0.314 0.443 0.707 0.556 1.108 0.591 0.194 1.215 0.138 1.827 0.142-0.022-0.473 0.014-0.979 0.417-1.292-0.069 0.221-0.164 0.433-0.331 0.598-0.014 0.254-0.024 0.508-0.030 0.764 0.215 0.541 0.85 0.651 1.355 0.492 0.293-0.129 0.564-0.306 0.676-0.622 0.002-0.154 0.009-0.306 0.021-0.459-0.209-0.415-0.546-0.784-1.004-0.917 0.096 0.009 0.287 0.028 0.383 0.038-0.001-0.197-0.002-0.396-0.002-0.595-0.357 0.002-0.714 0.004-1.071-0.001-0.086-0.342-0.42-0.312-0.681-0.205 0.117-0.122 0.236-0.244 0.355-0.364-0.337-0.304-0.603-0.731-1.057-0.87-0.193 0.015-0.33 0.177-0.492 0.267M14.052 12.342c0.019 0.271-0.052 0.579 0.137 0.806 0.436 0.478 1.356 0.646 1.766 0.044 0.251-0.5 0.052-1.103-0.255-1.537-0.247-0.052-0.494-0.131-0.75-0.117-0.414 0.11-0.687 0.455-0.899 0.804z"></path>
<path fill="#fff" d="M18.869 3.534c0.231 0 0.387 0.176 0.497 0.358-0.231 0.001-0.403-0.16-0.497-0.358z"></path>
<path fill="#fff" d="M3.332 4.733c0.275-0.307 0.577-0.591 0.874-0.878-0.246 0.336-0.547 0.624-0.874 0.878z"></path>
<path fill="#fff" d="M19.453 3.984c0.427 0.424 0.897 0.817 1.217 1.335-0.409-0.442-0.822-0.881-1.217-1.335z"></path>
<path fill="#fff" d="M10.869 6.148c0.069-0.401 0.189-0.791 0.291-1.183 1.172 0.017 2.346-0.026 3.517 0.022 0.18 0.39 0.388 0.766 0.563 1.16-1.458 0.002-2.914 0-4.371 0.001z"></path>
<path fill="#fff" d="M20.856 5.56c0.255 0.319 0.512 0.642 0.689 1.013l0.051 0.102c-0.261-0.362-0.521-0.726-0.74-1.115z"></path>
<path fill="#fff" d="M1.741 6.916c0.092-0.158 0.192-0.313 0.296-0.465-0.166 0.387-0.391 0.745-0.601 1.109 0.056-0.235 0.188-0.437 0.305-0.644z"></path>
<path fill="#fff" d="M4.266 7.668c0.128-0.183 0.214-0.406 0.393-0.549 2.251 2.422 4.43 4.923 6.661 7.367 1.46 1.701 3.002 3.333 4.469 5.029 0.226 0.225 0.488 0.43 0.601 0.741-0.731 0.474-1.533 0.836-2.381 1.042-0.421 0.153-0.876 0.099-1.303 0.223-0.628 0.052-1.261-0.017-1.892 0.031-0.272-0.183-0.614-0.089-0.916-0.16-1.926-0.409-3.685-1.505-4.97-2.986-0.83-1.098-1.578-2.316-1.85-3.683-0.137-0.239-0.076-0.523-0.125-0.781-0.158-0.738-0.046-1.493-0.079-2.239 0.192-0.348 0.009-0.777 0.202-1.122 0.158-1.051 0.662-2.006 1.192-2.913M7.833 14.856c-0.124 0.575-0.491 1.055-0.715 1.59-0.689-0.114-1.328 0.424-1.497 1.066-0.206 0.634 0.31 1.245 0.874 1.468 0.355 0.135 0.728 0.123 1.086 0.011 0.443-0.218 0.726-0.659 0.825-1.131 0.086-0.533-0.199-1.068-0.648-1.349-0.171 0-0.235-0.101-0.216-0.262 0.067-0.005 0.202-0.015 0.27-0.020 0.428 0.524 0.874 1.036 1.28 1.578 0.305 0.018 0.61 0.020 0.915 0.025 0.050 0.492 0.287 0.936 0.735 1.169 0.523 0.101 1.139-0.026 1.439-0.504 0.271-0.322 0.311-0.764 0.203-1.157-0.128 0.533-0.351 1.094-0.848 1.384-0.215 0.040-0.455 0.187-0.657 0.031-0.365-0.158-0.527-0.579-0.57-0.948 0.369 0 0.737 0.002 1.107-0.002-0.192-0.385-0.377-0.776-0.567-1.162 0.31-0.155 0.638-0.091 0.958-0.019l0.020 0.063c0.26 0.116 0.394 0.365 0.511 0.609-0.028-0.715-0.792-1.075-1.429-0.927-0.168-0.245-0.338-0.486-0.506-0.729-0.001-0.045-0.004-0.135-0.005-0.179 0.167-0.096 0.333-0.192 0.502-0.283-0.007-0.054-0.021-0.164-0.028-0.22-0.382 0.005-0.764 0.005-1.146 0.005-0.065 0.074-0.13 0.149-0.196 0.223 0.227 0.026 0.454 0.040 0.682 0.050 0.026 0.196-0.182 0.304-0.345 0.292-0.67 0.009-1.341-0.012-2.010 0.011 0.11-0.194 0.231-0.382 0.351-0.57 0.098 0.008 0.294 0.027 0.393 0.035-0.001-0.079-0.001-0.239-0.001-0.318-0.262 0.020-0.536 0.030-0.766 0.17z"></path>
<path fill="#fff" d="M16.879 10.107c0.304 0.277 0.588 0.575 0.895 0.849-0.359 0.019-0.733-0.046-1.083 0.043-0.018 0.044-0.053 0.131-0.072 0.175-0.231 0.026-0.453-0.022-0.506-0.279 0.271-0.247 0.53-0.507 0.766-0.787z"></path>
<path fill="#fff" d="M0.416 11.003c-0.005-0.202-0.134-0.54 0.124-0.633 0.060 0.22-0.035 0.435-0.124 0.633z"></path>
<path fill="#fff" d="M14.811 11.909c0.329-0.202 0.716-0.105 0.893 0.24 0.038 0.292 0.061 0.589 0.005 0.881-0.162 0.087-0.322 0.175-0.482 0.264-0.216-0.057-0.411-0.161-0.572-0.316-0.168-0.364 0.005-0.735 0.157-1.069z"></path>
<path fill="#fff" d="M18.837 11.905c0.363-0.219 0.763-0.076 1.096 0.125 0.050 0.121 0.102 0.24 0.156 0.359 0.005 0.105 0.014 0.317 0.019 0.422-0.29 0.427-1.019 0.651-1.379 0.197-0.225-0.337-0.069-0.779 0.108-1.104z"></path>
<path fill="#fff" d="M7.744 15.857c0.777-0.014 1.557-0.043 2.333 0.017-0.213 0.545-0.427 1.094-0.569 1.662-0.659-0.478-1.155-1.141-1.764-1.679z"></path>
<path fill="#fff" d="M10.229 15.964c0.059 0.021 0.179 0.063 0.238 0.084 0.007 0.156 0.071 0.281 0.192 0.378-0.199 0.089-0.341 0.254-0.479 0.415-0.025 0.145-0.051 0.291-0.078 0.436 0.151-0.216 0.318-0.421 0.494-0.617 0.136 0.313 0.611 0.589 0.492 0.945-0.345 0.021-0.696 0.032-1.037-0.032-0.112 0.020-0.223 0.040-0.335 0.060 0.137-0.567 0.404-1.095 0.513-1.669z"></path>
<path fill="#fff" d="M6.188 17.002c0.249-0.262 0.618-0.326 0.959-0.387-0.044 0.312-0.137 0.614-0.27 0.899 0.006 0.060 0.018 0.181 0.024 0.241 0.057 0.015 0.169 0.046 0.226 0.060 0.115-0.383 0.207-0.772 0.316-1.156 0.32 0.14 0.544 0.395 0.694 0.706-0.009 0.202-0.011 0.407-0.008 0.61-0.054 0.103-0.099 0.209-0.134 0.322-0.223 0.248-0.479 0.534-0.837 0.556-0.24 0.045-0.46-0.073-0.68-0.148-0.144-0.143-0.291-0.284-0.441-0.42-0.233-0.401-0.206-0.961 0.151-1.283z"></path>
<path fill="#fff" d="M1.464 17.755c0.189 0.083 0.273 0.283 0.248 0.481-0.166-0.104-0.233-0.296-0.248-0.481z"></path>
<path fill="#fff" d="M20.417 20.246c-0.013-0.163 0.054-0.278 0.203-0.342 0.032 0.161-0.035 0.274-0.203 0.342z"></path>
<path fill="#fff" d="M19.323 21.283c0.32-0.331 0.625-0.68 0.998-0.954-0.323 0.327-0.625 0.681-0.998 0.954z"></path>
<path fill="#fff" d="M3.339 20.508c0.234 0.213 0.459 0.433 0.692 0.646-0.284-0.060-0.454-0.32-0.628-0.528l-0.064-0.117z"></path>
<path fill="#fff" d="M4.754 21.767c0.21-0.009 0.423 0.13 0.448 0.349-0.218 0.024-0.33-0.207-0.448-0.349z"></path>
<path fill="#fff" d="M5.568 22.379c0.275 0.122 0.539 0.266 0.806 0.404 0.064-0.027 0.193-0.080 0.257-0.108l-0.103 0.239c-0.201-0.104-0.406-0.206-0.611-0.301-0.118-0.074-0.233-0.156-0.349-0.234z"></path>
<path fill="#fff" d="M8.612 23.709c0.46-0.047 0.848 0.31 1.312 0.291h-0.85c-0.143-0.115-0.298-0.212-0.462-0.291z"></path>
<path fill="#fff" d="M14.619 23.846c-0.008-0.077-0.024-0.229-0.032-0.306l0.048 0.279c0.123-0.035 0.368-0.105 0.491-0.141-0.163 0.056-0.327 0.106-0.488 0.167 0.137 0.039 0.413 0.116 0.551 0.155h-1.71c0.383-0.031 0.757-0.123 1.14-0.154z"></path>
<path fill="#201820" d="M10.992 4.664c1.295-0.031 2.593-0.040 3.887 0.005 0.097 0.575 0.565 1.008 0.651 1.579 0.414 0.374 0.163 1.029 0.205 1.522-1.827 0-3.656 0.024-5.482-0.012-0.287 0-0.177-0.357-0.207-0.538 0.045-0.319-0.125-0.776 0.22-0.965 0.035-0.147 0.072-0.294 0.108-0.441l0.131-0.045c-0.006-0.038-0.015-0.114-0.020-0.151 0.195-0.304 0.336-0.637 0.507-0.954M10.869 6.148c1.457-0.001 2.913 0.001 4.371-0.001-0.175-0.394-0.383-0.77-0.563-1.16-1.172-0.048-2.346-0.006-3.517-0.022-0.102 0.393-0.222 0.783-0.291 1.183z"></path>
<path fill="#201820" d="M14.625 8.078c0.31 0.009 0.636-0.047 0.927 0.087-0.005 0.252-0.005 0.504-0.005 0.755-0.284-0.001-0.566 0-0.85 0.006-0.105-0.272-0.070-0.565-0.072-0.849z"></path>
<path fill="#201820" d="M10.627 8.075c0.189 0.004 0.377 0.007 0.566 0.011-0.001 0.278-0.001 0.556 0.001 0.835-0.19 0.001-0.381 0.002-0.571 0.005 0.001-0.284 0.002-0.566 0.004-0.85z"></path>
<path fill="#201820" d="M16.623 8.918c0.067-0.112 0.021-0.348 0.194-0.355 0.476-0.015 1.107 0.279 0.965 0.861-0.394-0.087-0.757 0.131-1.147 0.136 0.009-0.076 0.030-0.227 0.039-0.303l0.202-0.045c0-0.073-0.001-0.221-0.002-0.296-0.063 0.001-0.188 0.001-0.251 0.001z"></path>
<path fill="#201820" d="M16.819 9.783c0.162-0.090 0.299-0.252 0.492-0.267 0.454 0.139 0.72 0.566 1.057 0.87-0.118 0.121-0.238 0.242-0.355 0.364 0.261-0.108 0.595-0.137 0.681 0.205 0.357 0.005 0.714 0.004 1.071 0.001 0 0.199 0.001 0.397 0.002 0.595-0.096-0.009-0.287-0.028-0.383-0.038 0.458 0.134 0.794 0.502 1.004 0.917-0.012 0.153-0.019 0.305-0.021 0.459-0.112 0.316-0.383 0.493-0.676 0.622-0.505 0.16-1.14 0.050-1.355-0.492 0.006-0.255 0.015-0.51 0.030-0.764 0.167-0.166 0.262-0.377 0.331-0.598-0.403 0.313-0.44 0.819-0.417 1.292-0.611-0.004-1.235 0.052-1.827-0.142-0.112-0.401-0.277-0.793-0.556-1.108-0.232-0.313-0.668-0.139-0.997-0.196 0-0.24-0.076-0.504 0.050-0.726 0.252-0.38 0.707-0.525 1.099-0.708 0.018 0.079 0.051 0.236 0.069 0.316 0.020-0.034 0.061-0.103 0.083-0.137 0.21-0.149 0.414-0.307 0.618-0.465M16.879 10.107c-0.236 0.28-0.495 0.54-0.766 0.787 0.053 0.257 0.275 0.305 0.506 0.279 0.019-0.044 0.054-0.131 0.072-0.175 0.35-0.089 0.724-0.024 1.083-0.043-0.307-0.274-0.591-0.572-0.895-0.849M18.837 11.905c-0.176 0.325-0.332 0.767-0.108 1.104 0.359 0.454 1.089 0.229 1.379-0.197-0.005-0.105-0.014-0.317-0.019-0.422-0.054-0.119-0.106-0.239-0.156-0.359-0.333-0.201-0.733-0.344-1.096-0.125z"></path>
<path fill="#201820" d="M14.052 12.342c0.212-0.349 0.485-0.694 0.899-0.804 0.255-0.014 0.502 0.065 0.75 0.117 0.307 0.434 0.506 1.037 0.255 1.537-0.41 0.602-1.33 0.434-1.766-0.044-0.189-0.227-0.118-0.536-0.137-0.806M14.811 11.909c-0.153 0.333-0.325 0.705-0.157 1.069 0.161 0.155 0.356 0.259 0.572 0.316 0.161-0.089 0.32-0.176 0.482-0.264 0.057-0.292 0.033-0.589-0.005-0.881-0.176-0.345-0.564-0.442-0.893-0.24z"></path>
<path fill="#201820" d="M7.833 14.856c0.231-0.141 0.504-0.15 0.766-0.17 0 0.079 0 0.239 0.001 0.318-0.098-0.008-0.294-0.027-0.393-0.035-0.121 0.188-0.241 0.376-0.351 0.57 0.669-0.022 1.34-0.001 2.010-0.011 0.163 0.012 0.371-0.096 0.345-0.292-0.228-0.009-0.455-0.024-0.682-0.050 0.066-0.074 0.131-0.149 0.196-0.223 0.382 0 0.764 0 1.146-0.005 0.007 0.056 0.021 0.166 0.028 0.22-0.169 0.091-0.336 0.187-0.502 0.283 0.001 0.044 0.004 0.134 0.005 0.179 0.168 0.244 0.338 0.485 0.506 0.729 0.637-0.148 1.401 0.212 1.429 0.927-0.117-0.244-0.251-0.493-0.511-0.609l-0.020-0.063c-0.319-0.072-0.648-0.136-0.958 0.019 0.19 0.387 0.376 0.777 0.567 1.162-0.37 0.005-0.738 0.002-1.107 0.002 0.043 0.369 0.205 0.79 0.57 0.948 0.202 0.156 0.442 0.009 0.657-0.031 0.497-0.291 0.72-0.851 0.848-1.384 0.108 0.394 0.067 0.836-0.203 1.157-0.3 0.478-0.916 0.604-1.439 0.504-0.448-0.233-0.686-0.677-0.735-1.169-0.305-0.005-0.61-0.007-0.915-0.025-0.407-0.543-0.852-1.055-1.28-1.578-0.067 0.005-0.202 0.015-0.27 0.020-0.019 0.162 0.045 0.262 0.216 0.262 0.449 0.281 0.734 0.816 0.648 1.349-0.099 0.473-0.382 0.914-0.825 1.131-0.358 0.112-0.732 0.124-1.086-0.011-0.564-0.223-1.079-0.835-0.874-1.468 0.169-0.642 0.807-1.18 1.497-1.066 0.225-0.536 0.591-1.016 0.715-1.59M7.744 15.857c0.609 0.538 1.105 1.201 1.764 1.679 0.142-0.569 0.356-1.117 0.569-1.662-0.776-0.059-1.556-0.031-2.333-0.017M10.229 15.964c-0.109 0.575-0.376 1.102-0.513 1.669 0.111-0.020 0.222-0.040 0.335-0.060 0.341 0.064 0.692 0.053 1.037 0.032 0.119-0.356-0.356-0.631-0.492-0.945-0.176 0.196-0.343 0.401-0.494 0.617 0.027-0.145 0.053-0.291 0.078-0.436 0.138-0.161 0.28-0.326 0.479-0.415-0.121-0.097-0.184-0.222-0.192-0.378-0.059-0.021-0.179-0.063-0.238-0.084M6.188 17.002c-0.357 0.322-0.384 0.882-0.151 1.283 0.15 0.136 0.297 0.277 0.441 0.42 0.22 0.074 0.44 0.193 0.68 0.148 0.358-0.021 0.614-0.307 0.837-0.556 0.034-0.112 0.079-0.219 0.134-0.322-0.002-0.203-0.001-0.408 0.008-0.61-0.15-0.311-0.374-0.566-0.694-0.706-0.109 0.384-0.201 0.773-0.316 1.156-0.057-0.014-0.169-0.045-0.226-0.060-0.006-0.060-0.018-0.181-0.024-0.241 0.132-0.285 0.226-0.586 0.27-0.899-0.341 0.060-0.709 0.124-0.959 0.387z"></path>
</svg>
