<!-- Generated by IcoMoon.io -->
<svg version="1.1" xmlns="http://www.w3.org/2000/svg" width="24" height="24" viewBox="0 0 24 24">
<title>regulatory--stop--g8</title>
<path fill="#292929" opacity="0.96" d="M7.049 0h9.9c2.326 2.309 4.65 4.621 6.949 6.956l-0.006 0.141c-2.157-2.139-4.299-4.293-6.447-6.442-0.246-0.221-0.457-0.593-0.84-0.533-3.103 0.008-6.207 0.001-9.31 0.004-0.157-0.020-0.285 0.072-0.389 0.178-2.198 2.203-4.399 4.404-6.602 6.603-0.107 0.103-0.194 0.233-0.176 0.388-0.001 3.137-0.001 6.274 0 9.41-0.020 0.287 0.261 0.449 0.428 0.64 2.185 2.177 4.371 4.356 6.543 6.546l-0.141 0.007c-2.335-2.3-4.646-4.627-6.958-6.95v-9.897c2.338-2.361 4.691-4.71 7.049-7.051z"></path>
<path fill="#fff" d="M6.906 0.304c0.104-0.106 0.232-0.198 0.389-0.178 3.103-0.003 6.207 0.004 9.31-0.004 0.383-0.060 0.594 0.312 0.84 0.533 2.148 2.149 4.29 4.303 6.447 6.442-0.042 3.202-0.005 6.405-0.018 9.608 0.019 0.156-0.069 0.287-0.176 0.389-2.136 2.133-4.273 4.263-6.401 6.403-0.172 0.155-0.328 0.403-0.593 0.375-3.201 0.014-6.404-0.025-9.605 0.019-2.172-2.19-4.358-4.369-6.543-6.546-0.167-0.191-0.448-0.353-0.428-0.64-0.001-3.136-0.001-6.273 0-9.41-0.018-0.155 0.069-0.285 0.176-0.388 2.203-2.199 4.404-4.4 6.602-6.603M7.521 1.215c-2.119 2.081-4.225 4.185-6.305 6.306-0.043 2.981-0.044 5.976 0 8.957 2.076 2.129 4.206 4.21 6.3 6.323 2.989 0.008 5.979 0.009 8.968 0 2.105-2.107 4.21-4.213 6.318-6.317 0.010-2.99 0.009-5.98 0-8.97-2.113-2.093-4.193-4.224-6.323-6.298-2.982-0.045-5.976-0.044-8.958-0.001z"></path>
<path fill="#fff" d="M18.698 7.168c0.267-0.299 0.54-0.593 0.814-0.886 0.352 0.302 0.692 0.617 1.034 0.93-0.277 0.3-0.558 0.595-0.842 0.887-0.335-0.31-0.671-0.62-1.006-0.931z"></path>
<path fill="#fff" d="M16.864 7.401c0.267-0.304 0.54-0.604 0.816-0.901 0.341 0.307 0.683 0.613 1.023 0.922-0.272 0.302-0.548 0.6-0.825 0.897-0.346-0.298-0.68-0.608-1.014-0.918z"></path>
<path fill="#fff" d="M8.348 7.721c0.206-0.365 0.412-0.73 0.623-1.093 0.404 0.212 0.806 0.427 1.206 0.646-0.202 0.371-0.407 0.74-0.612 1.11-0.408-0.216-0.814-0.437-1.217-0.663z"></path>
<path fill="#fff" d="M18.171 9.271c0.233-0.371 0.685-0.622 1.126-0.506 0.613 0.144 0.934 0.759 1.138 1.3 0.588 1.541 0.431 3.214 0.452 4.828-4.696 0-9.392 0.002-14.088-0.001-1.453-0.074-3.209-0.044-4.247-1.237-0.857-1.167-0.161-2.623 0.384-3.76 0.102 0.042 0.203 0.085 0.304 0.13-0.247 0.639-0.659 1.302-0.479 2.013 0.204 0.732 0.974 1.080 1.649 1.259 1.953 0.467 3.98 0.233 5.967 0.287-0.648-0.244-1.508-0.502-1.671-1.278-0.059-0.841 0.349-1.682 0.937-2.266 0.451-0.455 1.278-0.321 1.574 0.243 0.554 1.003 0.434 2.199 0.458 3.303 2.859 0.001 5.719 0.001 8.578 0-0.010-0.416-0.061-0.831-0.152-1.237-0.54 0.144-1.107 0.366-1.67 0.209-0.438-0.106-0.801-0.493-0.828-0.951-0.046-0.808 0.118-1.654 0.568-2.336M18.535 11.16c0.379 0.175 0.797 0.019 1.144-0.157-0.22-0.381-0.485-0.871-0.976-0.911-0.501 0.050-0.608 0.858-0.168 1.068M9.724 11.7c-0.088 0.663 0.686 0.806 1.169 0.921-0.028-0.436-0.006-0.949-0.333-1.285-0.296-0.282-0.869-0.070-0.836 0.364z"></path>
<path fill="#b40a00" d="M7.521 1.215c2.982-0.043 5.976-0.044 8.958 0.001 2.13 2.074 4.21 4.205 6.323 6.298 0.009 2.99 0.010 5.98 0 8.97-2.108 2.104-4.213 4.21-6.318 6.317-2.989 0.009-5.979 0.008-8.968 0-2.094-2.113-4.224-4.194-6.3-6.323-0.044-2.981-0.043-5.976 0-8.957 2.080-2.121 4.186-4.225 6.305-6.306M18.698 7.168c0.335 0.311 0.671 0.621 1.006 0.931 0.284-0.292 0.565-0.587 0.842-0.887-0.342-0.313-0.682-0.628-1.034-0.93-0.274 0.293-0.547 0.587-0.814 0.886M16.864 7.401c0.334 0.31 0.668 0.62 1.014 0.918 0.277-0.297 0.553-0.595 0.825-0.897-0.34-0.309-0.682-0.615-1.023-0.922-0.276 0.297-0.549 0.597-0.816 0.901M8.348 7.721c0.403 0.226 0.809 0.447 1.217 0.663 0.205-0.37 0.41-0.739 0.612-1.11-0.4-0.219-0.802-0.434-1.206-0.646-0.211 0.363-0.417 0.728-0.623 1.093M18.171 9.271c-0.45 0.682-0.614 1.528-0.568 2.336 0.027 0.458 0.39 0.845 0.828 0.951 0.563 0.157 1.13-0.065 1.67-0.209 0.091 0.406 0.142 0.821 0.152 1.237-2.859 0.001-5.719 0.001-8.578 0-0.024-1.104 0.096-2.3-0.458-3.303-0.296-0.564-1.123-0.698-1.574-0.243-0.588 0.584-0.996 1.425-0.937 2.266 0.163 0.776 1.023 1.034 1.671 1.278-1.987-0.054-4.014 0.18-5.967-0.287-0.675-0.179-1.445-0.527-1.649-1.259-0.18-0.711 0.232-1.374 0.479-2.013-0.101-0.045-0.202-0.088-0.304-0.13-0.545 1.137-1.241 2.593-0.384 3.76 1.038 1.193 2.794 1.163 4.247 1.237 4.696 0.003 9.392 0.001 14.088 0.001-0.021-1.614 0.136-3.287-0.452-4.828-0.204-0.541-0.525-1.156-1.138-1.3-0.441-0.116-0.893 0.135-1.126 0.506z"></path>
<path fill="#b40a00" d="M18.535 11.16c-0.44-0.21-0.333-1.018 0.168-1.068 0.491 0.040 0.756 0.53 0.976 0.911-0.347 0.176-0.765 0.332-1.144 0.157z"></path>
<path fill="#b40a00" d="M9.724 11.7c-0.033-0.434 0.54-0.646 0.836-0.364 0.327 0.336 0.305 0.849 0.333 1.285-0.483-0.115-1.257-0.258-1.169-0.921z"></path>
<path fill="#171717" opacity="0.93" d="M23.898 6.956l0.102 0.12v9.877c-2.337 2.36-4.688 4.709-7.047 7.047h-9.875l-0.12-0.102 0.141-0.007c3.201-0.044 6.404-0.005 9.605-0.019 0.265 0.028 0.421-0.22 0.593-0.375 2.128-2.14 4.265-4.27 6.401-6.403 0.107-0.102 0.195-0.233 0.176-0.389 0.013-3.203-0.024-6.406 0.018-9.608l0.006-0.141z"></path>
</svg>
