<!-- Generated by IcoMoon.io -->
<svg version="1.1" xmlns="http://www.w3.org/2000/svg" width="24" height="24" viewBox="0 0 24 24">
<title>regulatory--no-abnormal-vehicles--g1</title>
<path fill="#e20a16" d="M11.077 0h1.555c4.52 0.229 8.761 3.19 10.454 7.397 0.493 1.129 0.722 2.345 0.913 3.556v2.15c-0.434 4.058-2.947 7.854-6.647 9.641-1.309 0.69-2.765 1.012-4.213 1.256h-2.245c-1.278-0.218-2.564-0.473-3.748-1.024-4.078-1.759-6.912-5.918-7.147-10.344v-1.255c0.234-4.458 3.113-8.647 7.234-10.386 1.216-0.548 2.534-0.79 3.844-0.991M8.508 2.636c-2.398 0.886-4.415 2.732-5.516 5.038-1.679 3.407-1.165 7.744 1.273 10.657 1.697-1.704 3.402-3.398 5.099-5.102 0.239-0.238 0.478-0.475 0.715-0.715 0.342-0.337 0.684-0.676 1.016-1.024 0.796-0.774 1.572-1.567 2.359-2.351 1.628-1.622 3.25-3.254 4.882-4.874-2.68-2.24-6.569-2.863-9.828-1.628M14.653 10.78c-0.242 0.236-0.482 0.475-0.721 0.715-0.342 0.338-0.684 0.677-1.016 1.024-0.793 0.775-1.571 1.566-2.356 2.347-1.63 1.624-3.247 3.258-4.883 4.874 2.408 2.008 5.789 2.752 8.82 1.952 3.433-0.857 6.28-3.672 7.169-7.098 0.845-3.058 0.092-6.464-1.902-8.921-1.714 1.692-3.413 3.398-5.111 5.106z"></path>
<path fill="#fff" d="M8.508 2.636c3.259-1.235 7.148-0.612 9.828 1.628-1.632 1.62-3.253 3.252-4.882 4.874-0.583-1.885-1.174-3.769-1.753-5.657-0.988-0.005-1.975-0.002-2.963-0.002-0.689 2.059-1.322 4.139-2.088 6.169-0.172 0.54-0.742 0.703-1.25 0.696 0 0.382 0.001 0.762 0 1.144 1.225-0.001 2.45-0.001 3.677 0-0.004-0.374-0.002-0.748 0.002-1.122-0.302-0.053-0.767 0.055-0.906-0.302-0.091-0.401 0.11-0.787 0.221-1.163 0.841 0.004 1.682 0.004 2.524 0 0.11 0.373 0.306 0.756 0.223 1.154-0.132 0.366-0.605 0.258-0.908 0.311 0.005 0.373 0.006 0.748 0.004 1.121 0.286 0.001 0.572 0 0.859 0.002-0.332 0.348-0.674 0.686-1.016 1.024-0.24 0.004-0.48 0.006-0.72 0.010 0 0.235 0.002 0.47 0.005 0.706-1.697 1.704-3.402 3.398-5.099 5.102-2.438-2.914-2.952-7.25-1.273-10.657 1.102-2.305 3.119-4.152 5.516-5.038z"></path>
<path fill="#fff" d="M9.685 5.005c0.308 0.976 0.614 1.952 0.92 2.929-0.63 0.002-1.26 0.002-1.89 0 0.323-0.977 0.643-1.955 0.97-2.929z"></path>
<path fill="#fff" d="M14.653 10.78c1.698-1.708 3.397-3.414 5.111-5.106 1.994 2.456 2.747 5.863 1.902 8.921-0.889 3.426-3.736 6.241-7.169 7.098-3.031 0.799-6.412 0.055-8.82-1.952 1.636-1.616 3.253-3.251 4.883-4.874 0.584 1.883 1.175 3.764 1.753 5.65 0.988 0.010 1.975 0.002 2.964 0.006 0.691-2.054 1.319-4.134 2.089-6.16 0.17-0.54 0.744-0.692 1.249-0.697-0.001-0.382-0.001-0.763 0.001-1.144-1.226-0.001-2.452 0-3.678-0.001 0.004 0.373 0.002 0.746-0.002 1.12 0.301 0.058 0.742-0.047 0.9 0.293 0.084 0.282-0.023 0.574-0.103 0.842-0.494 1.402-0.93 2.824-1.404 4.231-0.474-1.583-1.018-3.149-1.47-4.735-0.148-0.578 0.523-0.64 0.925-0.631-0.006-0.373-0.007-0.746-0.004-1.118-0.289-0.001-0.577-0.001-0.865-0.002 0.332-0.347 0.674-0.685 1.016-1.024 0.241-0.004 0.482-0.008 0.725-0.011-0.001-0.235-0.002-0.47-0.004-0.704z"></path>
<path fill="#000" d="M8.738 3.48c0.988 0 1.975-0.002 2.963 0.002 0.58 1.888 1.17 3.772 1.753 5.657-0.787 0.784-1.564 1.577-2.359 2.351-0.287-0.002-0.574-0.001-0.859-0.002 0.002-0.373 0.001-0.748-0.004-1.121 0.304-0.053 0.776 0.055 0.908-0.311 0.083-0.398-0.113-0.781-0.223-1.154-0.841 0.004-1.682 0.004-2.524 0-0.11 0.376-0.312 0.762-0.221 1.163 0.139 0.358 0.604 0.25 0.906 0.302-0.005 0.374-0.006 0.748-0.002 1.122-1.226-0.001-2.452-0.001-3.677 0 0.001-0.382 0-0.762 0-1.144 0.509 0.007 1.079-0.156 1.25-0.696 0.766-2.030 1.399-4.11 2.088-6.169M9.685 5.005c-0.326 0.974-0.647 1.952-0.97 2.929 0.63 0.002 1.26 0.002 1.89 0-0.306-0.977-0.612-1.954-0.92-2.929z"></path>
<path fill="#000" d="M13.932 11.495c0.239-0.24 0.479-0.479 0.721-0.715 0.001 0.234 0.002 0.469 0.004 0.704-0.242 0.002-0.484 0.007-0.725 0.011z"></path>
<path fill="#000" d="M9.359 12.523c0.24-0.004 0.48-0.006 0.72-0.010-0.238 0.24-0.476 0.478-0.715 0.715-0.002-0.235-0.005-0.47-0.005-0.706z"></path>
<path fill="#000" d="M10.56 14.866c0.785-0.781 1.562-1.572 2.356-2.347 0.288 0.001 0.576 0.001 0.865 0.002-0.004 0.372-0.002 0.745 0.004 1.118-0.402-0.008-1.073 0.053-0.925 0.631 0.452 1.586 0.996 3.152 1.47 4.735 0.474-1.408 0.91-2.83 1.404-4.231 0.080-0.269 0.187-0.56 0.103-0.842-0.158-0.34-0.599-0.235-0.9-0.293 0.005-0.373 0.006-0.746 0.002-1.12 1.226 0.001 2.452 0 3.678 0.001-0.002 0.38-0.002 0.762-0.001 1.144-0.505 0.005-1.079 0.157-1.249 0.697-0.77 2.026-1.398 4.105-2.089 6.16-0.989-0.004-1.976 0.004-2.964-0.006-0.578-1.885-1.169-3.767-1.753-5.65z"></path>
</svg>
