<!-- Generated by IcoMoon.io -->
<svg version="1.1" xmlns="http://www.w3.org/2000/svg" width="24" height="24" viewBox="0 0 24 24">
<title>regulatory--priority-road--g1</title>
<path fill="#000" opacity="0.96" d="M11.719 0h0.584c0.464 0.257 0.81 0.667 1.182 1.034 3.16 3.161 6.319 6.32 9.48 9.48 0.364 0.367 0.763 0.71 1.034 1.157v0.629c-0.27 0.42-0.652 0.748-1.001 1.099-3.16 3.16-6.318 6.32-9.479 9.48-0.391 0.386-0.756 0.804-1.21 1.121h-0.634c-0.45-0.269-0.787-0.678-1.157-1.040-3.161-3.16-6.32-6.32-9.48-9.48-0.365-0.37-0.773-0.71-1.040-1.163v-0.572c0.314-0.472 0.744-0.845 1.139-1.246 3.18-3.18 6.36-6.359 9.54-9.54 0.329-0.338 0.661-0.676 1.040-0.959M11.688 0.301c-3.762 3.625-7.406 7.387-11.123 11.065-0.388 0.292-0.493 0.91-0.1 1.243 3.665 3.658 7.324 7.321 10.988 10.979 0.28 0.304 0.803 0.287 1.074-0.020 3.682-3.678 7.361-7.361 11.044-11.038 0.334-0.299 0.302-0.858-0.034-1.141-3.618-3.625-7.243-7.244-10.864-10.867-0.238-0.276-0.656-0.419-0.986-0.221z"></path>
<path fill="#000" opacity="0.96" d="M12.012 4.942c2.364 2.347 4.72 4.704 7.067 7.068-2.36 2.352-4.717 4.706-7.067 7.069-2.354-2.358-4.711-4.715-7.069-7.070 2.346-2.365 4.702-4.722 7.069-7.067M5.218 12.007c2.262 2.267 4.526 4.531 6.793 6.794 2.264-2.266 4.529-4.53 6.794-6.794-2.256-2.274-4.523-4.538-6.794-6.796-2.273 2.256-4.54 4.52-6.793 6.796z"></path>
<path fill="#fff" d="M11.688 0.301c0.33-0.198 0.749-0.055 0.986 0.221 3.62 3.623 7.246 7.242 10.864 10.867 0.336 0.283 0.367 0.842 0.034 1.141-3.683 3.677-7.362 7.36-11.044 11.038-0.271 0.307-0.794 0.324-1.074 0.020-3.665-3.658-7.324-7.321-10.988-10.979-0.394-0.334-0.288-0.952 0.1-1.243 3.716-3.678 7.361-7.44 11.123-11.065M12.012 4.942c-2.368 2.345-4.723 4.702-7.069 7.067 2.358 2.356 4.715 4.712 7.069 7.070 2.35-2.363 4.706-4.717 7.067-7.069-2.347-2.364-4.703-4.721-7.067-7.068z"></path>
<path fill="#ff0" d="M5.218 12.007c2.254-2.275 4.52-4.54 6.793-6.796 2.272 2.257 4.538 4.522 6.794 6.796-2.266 2.264-4.53 4.529-6.794 6.794-2.267-2.263-4.531-4.528-6.793-6.794z"></path>
</svg>
