<!-- Generated by IcoMoon.io -->
<svg version="1.1" xmlns="http://www.w3.org/2000/svg" width="24" height="24" viewBox="0 0 24 24">
<title>regulatory--no-overtaking--g6</title>
<path fill="#be4838" d="M10.545 0h2.937c0.302 0.126 0.631 0.142 0.949 0.208 0.21 0.038 0.418 0.075 0.626 0.118 0.124 0.050 0.25 0.098 0.377 0.145 0.128 0.039 0.255 0.079 0.383 0.119 0.13 0.046 0.258 0.095 0.386 0.147 0.061 0.009 0.184 0.028 0.246 0.037 0.124 0.077 0.25 0.154 0.376 0.231 0.062 0.005 0.189 0.015 0.251 0.020 0.343 0.189 0.676 0.394 1.013 0.589 0.58 0.38 1.189 0.726 1.698 1.203 1.091 0.813 1.881 1.95 2.597 3.092 0.141 0.251 0.296 0.495 0.442 0.743 0.036 0.069 0.107 0.204 0.143 0.273 0.006 0.062 0.019 0.187 0.025 0.25 0.076 0.124 0.154 0.25 0.23 0.375 0.009 0.062 0.028 0.185 0.037 0.248 0.052 0.127 0.1 0.255 0.147 0.385 0.041 0.127 0.080 0.255 0.119 0.383 0.047 0.126 0.095 0.251 0.145 0.378 0.044 0.207 0.079 0.415 0.117 0.625 0.066 0.325 0.107 0.658 0.21 0.974v2.942c-0.126 0.301-0.141 0.63-0.208 0.945-0.037 0.21-0.072 0.418-0.117 0.626-0.052 0.127-0.105 0.255-0.159 0.381-0.011 0.060-0.034 0.18-0.046 0.24-0.072 0.173-0.14 0.348-0.212 0.522-0.008 0.062-0.024 0.187-0.032 0.249-0.077 0.126-0.155 0.251-0.232 0.377-0.005 0.063-0.015 0.189-0.020 0.251-0.875 1.531-1.825 3.091-3.256 4.165-0.801 0.687-1.733 1.2-2.641 1.732-0.061 0.005-0.185 0.017-0.248 0.023-0.127 0.071-0.253 0.142-0.378 0.215-0.132 0.034-0.264 0.071-0.395 0.11-0.126 0.042-0.251 0.085-0.378 0.13-0.13 0.043-0.258 0.089-0.386 0.136-0.057 0.019-0.171 0.057-0.23 0.076-0.208 0.050-0.42 0.089-0.631 0.128-0.326 0.065-0.659 0.105-0.976 0.208h-2.936c-0.301-0.126-0.631-0.142-0.949-0.208-0.208-0.039-0.418-0.075-0.625-0.119-0.126-0.050-0.253-0.098-0.378-0.143-0.128-0.039-0.255-0.079-0.383-0.121-0.13-0.046-0.258-0.094-0.385-0.146-0.061-0.009-0.183-0.028-0.244-0.037-0.126-0.077-0.253-0.155-0.38-0.231-0.062-0.005-0.185-0.018-0.248-0.023-0.127-0.071-0.254-0.14-0.382-0.207-0.211-0.13-0.42-0.259-0.635-0.382-0.884-0.522-1.695-1.152-2.455-1.84-0.716-0.79-1.369-1.637-1.901-2.564-0.104-0.177-0.213-0.349-0.319-0.524-0.069-0.126-0.137-0.253-0.206-0.378-0.006-0.062-0.019-0.188-0.025-0.25-0.076-0.126-0.152-0.251-0.23-0.377-0.009-0.061-0.028-0.184-0.037-0.246-0.052-0.127-0.1-0.255-0.146-0.385-0.043-0.127-0.084-0.255-0.122-0.382-0.044-0.128-0.090-0.254-0.138-0.38-0.056-0.263-0.103-0.526-0.164-0.787-0.036-0.276-0.072-0.552-0.168-0.815v-2.936c0.126-0.302 0.143-0.631 0.207-0.947 0.039-0.212 0.080-0.423 0.131-0.632 0.018-0.058 0.053-0.174 0.071-0.231 0.067-0.175 0.132-0.349 0.201-0.523 0.014-0.060 0.042-0.179 0.056-0.239 0.046-0.132 0.088-0.265 0.127-0.399 0.071-0.124 0.141-0.249 0.208-0.375 0.008-0.062 0.022-0.187 0.029-0.249 0.070-0.124 0.138-0.25 0.206-0.376 0.13-0.212 0.259-0.422 0.381-0.637 0.522-0.883 1.15-1.693 1.837-2.452 0.761-0.687 1.572-1.316 2.455-1.84 0.339-0.196 0.672-0.4 1.012-0.59 0.063-0.005 0.19-0.015 0.254-0.020 0.126-0.077 0.251-0.154 0.378-0.231 0.061-0.009 0.183-0.028 0.245-0.037 0.127-0.051 0.255-0.1 0.385-0.146 0.127-0.042 0.255-0.083 0.383-0.121 0.126-0.047 0.251-0.095 0.377-0.145 0.208-0.043 0.418-0.079 0.627-0.116 0.325-0.067 0.657-0.108 0.974-0.211M4.762 5.142c-1.895 2.085-2.918 4.983-2.579 7.796 0.224 2.347 1.359 4.579 3.076 6.187 1.557 1.553 3.672 2.564 5.874 2.71 0.001-0.78 0-1.561 0.003-2.34 0.617 0.359 1.223 0.739 1.86 1.062 0.009-0.646 0-1.293 0.018-1.939-0.618-0.376-1.258-0.717-1.898-1.053 0.051-1.916 0.009-3.834 0.024-5.75 0.004-0.366 0-0.733-0.039-1.096 0.679-0.356 1.322-0.776 1.975-1.177 0.083 1.2-0.011 2.405 0.053 3.606-0.348 0.417-0.766 0.782-1.053 1.244-0.103 0.707 0.020 1.422 0.034 2.132 0.334-0.399 0.668-0.797 0.997-1.201 0.011 2.17-0.018 4.34 0.001 6.51 1.807-0.131 3.511-0.917 4.942-2 2.011-1.544 3.385-3.872 3.788-6.373 0.262-1.902 0.090-3.896-0.703-5.661-1.359-3.206-4.545-5.582-8.025-5.874-0.001 0.737 0.001 1.472-0.003 2.208l0.206-0.009c-0.056 0.008-0.168 0.023-0.223 0.030l0.071 0.192c-0.339 0.42-0.787 0.766-1.045 1.242-0.061 0.7-0.006 1.403-0.014 2.103 0.35-0.375 0.669-0.776 1.008-1.161 0.013 0.399-0.032 0.8 0.005 1.197l0.070 0.071c-0.704 0.34-1.368 0.761-2.051 1.143 0.010-2.337 0.010-4.673 0-7.008-2.447 0.161-4.723 1.431-6.371 3.209z"></path>
<path fill="#fff" d="M4.762 5.142c1.648-1.778 3.924-3.048 6.371-3.209 0.010 2.335 0.010 4.672 0 7.008-1.006 0.569-2.019 1.125-3.016 1.71-0.499 0.274-0.827 0.833-0.801 1.404 0.001 1.486-0.008 2.971-0.003 4.457-0.019 0.444 0.234 0.869 0.623 1.078 1.067 0.635 2.132 1.27 3.199 1.902-0.003 0.78-0.001 1.561-0.003 2.34-2.202-0.146-4.317-1.157-5.874-2.71-1.717-1.608-2.852-3.84-3.076-6.187-0.339-2.813 0.684-5.71 2.579-7.796z"></path>
<path fill="#fff" d="M13.109 1.924c3.481 0.292 6.667 2.668 8.025 5.874 0.794 1.765 0.965 3.759 0.703 5.661-0.403 2.502-1.777 4.829-3.788 6.373-1.431 1.083-3.135 1.869-4.942 2-0.019-2.17 0.010-4.34-0.001-6.51 0.102-0.123 0.204-0.248 0.306-0.371 0.032 1.218 0.010 2.438 0.011 3.657 0.461 0.003 0.921 0.005 1.38 0.004-0.001-1.227-0.006-2.452 0.014-3.679 0.471 0.508 0.916 1.039 1.38 1.55 0.011-0.725 0.009-1.451 0.005-2.178-0.677-0.781-1.34-1.572-1.999-2.367-0.373 0.389-0.72 0.804-1.077 1.208-0.065-1.201 0.029-2.406-0.053-3.606 0.37-0.239 0.757-0.45 1.137-0.67 0.31-0.175 0.598-0.476 0.59-0.855 0.027-0.636-0.008-1.272 0.023-1.909 0.467 0.518 0.945 1.026 1.379 1.572-0.020-0.714 0.058-1.436-0.030-2.145-0.615-0.811-1.294-1.578-1.959-2.349-0.395 0.344-0.712 0.766-1.054 1.161l-0.071-0.192c0.056-0.008 0.168-0.023 0.223-0.030l-0.206 0.009c0.004-0.737 0.001-1.472 0.003-2.208z"></path>
<path fill="#fff" d="M13.109 6.53c0.126-0.143 0.254-0.286 0.381-0.429 0.014 0.488 0.015 0.975 0.020 1.463-0.11 0.075-0.218 0.154-0.326 0.235l-0.070-0.071c-0.037-0.397 0.008-0.799-0.005-1.197z"></path>
<path fill="#fff" d="M9.336 11.751c0.579-0.359 1.177-0.686 1.764-1.034 0.039 0.363 0.043 0.73 0.039 1.096-0.015 1.916 0.027 3.834-0.024 5.75-0.571-0.316-1.147-0.621-1.703-0.961-0.387-0.227-0.648-0.654-0.622-1.109 0-0.97-0.017-1.94 0.008-2.909-0.011-0.363 0.243-0.658 0.538-0.833z"></path>
<path fill="#1e2127" d="M13.159 4.345c0.342-0.395 0.659-0.817 1.054-1.161 0.665 0.771 1.345 1.538 1.959 2.349 0.089 0.709 0.010 1.431 0.030 2.145-0.434-0.546-0.912-1.054-1.379-1.572-0.030 0.636 0.004 1.272-0.023 1.909 0.008 0.378-0.281 0.679-0.59 0.855-0.38 0.221-0.767 0.432-1.137 0.67-0.653 0.401-1.295 0.822-1.975 1.177-0.587 0.348-1.185 0.674-1.764 1.034-0.296 0.175-0.55 0.47-0.538 0.833-0.024 0.969-0.008 1.939-0.008 2.909-0.025 0.455 0.235 0.881 0.622 1.109 0.556 0.34 1.131 0.645 1.703 0.961 0.64 0.335 1.28 0.677 1.898 1.053-0.018 0.646-0.009 1.293-0.018 1.939-0.637-0.323-1.243-0.702-1.86-1.062-1.067-0.632-2.132-1.267-3.199-1.902-0.39-0.21-0.643-0.634-0.623-1.078-0.005-1.486 0.004-2.971 0.003-4.457-0.025-0.571 0.302-1.13 0.801-1.404 0.997-0.585 2.010-1.142 3.016-1.71 0.683-0.382 1.347-0.803 2.051-1.143 0.108-0.081 0.216-0.16 0.326-0.235-0.005-0.488-0.006-0.975-0.020-1.463-0.127 0.143-0.255 0.286-0.381 0.429-0.339 0.385-0.658 0.786-1.008 1.161 0.008-0.7-0.047-1.403 0.014-2.103 0.258-0.476 0.706-0.822 1.045-1.242z"></path>
<path fill="#1e2127" d="M13.128 13.147c0.357-0.404 0.704-0.819 1.077-1.208 0.659 0.795 1.322 1.586 1.999 2.367 0.004 0.726 0.006 1.453-0.005 2.178-0.465-0.512-0.909-1.043-1.38-1.55-0.020 1.227-0.015 2.452-0.014 3.679-0.46 0.001-0.919-0.001-1.38-0.004-0.001-1.219 0.020-2.439-0.011-3.657-0.102 0.123-0.204 0.248-0.306 0.371-0.329 0.404-0.663 0.803-0.997 1.201-0.014-0.71-0.137-1.425-0.034-2.132 0.287-0.462 0.705-0.828 1.053-1.244z"></path>
</svg>
