<!-- Generated by IcoMoon.io -->
<svg version="1.1" xmlns="http://www.w3.org/2000/svg" width="14" height="24" viewBox="0 0 14 24">
<title>regulatory--bicycles-push-button--g1</title>
<path fill="#231f20" d="M1.5 0h11.612c0.537 0.122 1.003 0.447 1.307 0.904v22.384c-0.18 0.285-0.429 0.513-0.699 0.712h-12.842c-0.421-0.241-0.722-0.647-0.878-1.102v-21.603c0.22-0.678 0.782-1.198 1.5-1.295M1.519 0.313c-0.649 0.127-1.213 0.678-1.24 1.356-0.002 6.918 0.003 13.836-0.002 20.753-0.040 0.833 0.77 1.545 1.582 1.487 3.66-0.007 7.322 0.001 10.983-0.004 0.795-0.022 1.46-0.686 1.482-1.482 0.002-6.887 0.002-13.775 0-20.662-0.027-0.86-0.826-1.524-1.67-1.484-3.711 0.024-7.429-0.045-11.136 0.034z"></path>
<path fill="#231f20" d="M0.652 1.763c-0.015-0.536 0.464-1.074 1.019-1.021 3.786 0.006 7.574 0.002 11.36 0.002 0.433-0.012 0.843 0.398 0.831 0.831-0.005 7.044 0.004 14.088-0.005 21.132-0.061 0.578-0.697 0.806-1.201 0.826-3.537 0.007-7.074-0.002-10.611 0.005-0.274 0.007-0.54-0.066-0.808-0.111-0.292-0.266-0.61-0.57-0.584-1.003-0.001-6.886-0.002-13.774 0-20.66M1.624 1.395c-0.076 0.076-0.153 0.153-0.229 0.228 0 6.98 0 13.959 0 20.94 0.076 0.075 0.153 0.152 0.228 0.228 3.786 0 7.572 0 11.358 0 0.075-0.076 0.152-0.153 0.228-0.228 0-6.98 0-13.96 0-20.94-0.076-0.075-0.153-0.152-0.228-0.228-3.786 0-7.572 0-11.357 0z"></path>
<path fill="#231f20" d="M5.898 2.419c0.298 0 0.595 0 0.893 0 0 0.070 0 0.21 0 0.28-0.207-0.001-0.414-0.002-0.62-0.003 0.097 0.247 0.015 0.5-0.048 0.744 0.689 0.004 1.378 0.001 2.066 0.002l-0.002-0.064c-0.189-0.033-0.376-0.078-0.56-0.129 0.001-0.068 0.002-0.204 0.003-0.272 0.514 0.004 1.030-0.012 1.544 0.014-0.078 0.111-0.159 0.219-0.243 0.324-0.2 0.010-0.346 0.124-0.418 0.307 0.165 0.168 0.328 0.339 0.463 0.532 0.975-0.486 2.432 0.037 2.467 1.236 0.223 1.049-0.86 2.010-1.872 1.806-0.632-0.067-1.216-0.55-1.346-1.18-0.508-0.049-0.518 0.53-0.183 0.771-0.169 0.003-0.338 0.005-0.507 0.007 0-0.168 0-0.337 0-0.504-0.442-0.562-0.884-1.128-1.417-1.607 0.374 0.58 0.402 1.326-0.015 1.892-0.447 0.611-1.351 0.881-2.038 0.53-0.78-0.286-1.186-1.277-0.869-2.033 0.278-0.904 1.452-1.338 2.274-0.901 0.101-0.418 0.245-0.824 0.399-1.225-0.078-0.082-0.156-0.164-0.233-0.247 0.087-0.093 0.175-0.186 0.261-0.279M5.89 3.833c0.356 0.473 0.82 0.85 1.221 1.284 0.194 0 0.386 0 0.58 0 0.073-0.45 0.241-0.876 0.397-1.302-0.733 0.009-1.466-0.020-2.198 0.019M8.399 3.973c-0.155 0.571-0.327 1.139-0.51 1.7 0.071 0.001 0.213 0.002 0.285 0.002-0.052-0.491 0.21-0.925 0.487-1.305-0.091-0.129-0.179-0.261-0.261-0.397M3.446 5.682c0.132 0.753 0.91 1.441 1.688 1.125 0.829-0.264 1.144-1.343 0.57-2.007-0.29 0.365-0.552 0.753-0.908 1.060-0.060 0-0.179 0-0.237 0-0.001-0.11-0.001-0.22-0.001-0.329 0.333-0.285 0.619-0.621 0.779-1.034-0.864-0.428-1.828 0.273-1.891 1.184M9.253 4.5c0.223 0.293 0.435 0.597 0.7 0.856 0 0.099 0 0.198 0 0.298-0.393 0.091-0.785 0.186-1.187 0.224-0.037 0.041-0.112 0.123-0.149 0.164 0.286 0.632 1.076 0.951 1.711 0.662 0.514-0.199 0.831-0.778 0.74-1.318-0.115-0.816-1.097-1.279-1.816-0.886M8.524 5.6c0.251-0.052 0.501-0.108 0.757-0.13 0.036-0.041 0.111-0.123 0.148-0.165-0.17-0.18-0.34-0.362-0.476-0.569-0.247 0.229-0.37 0.539-0.429 0.864z"></path>
<path fill="#231f20" d="M7.198 7.808c0.647 0.127 1.276 0.749 1.966 0.464 1.12 0.536 2.287 1.144 3.58 1.032-0.012 0.64 0.024 1.283-0.014 1.922-0.114 0.192-0.36 0.099-0.542 0.124-0.894 0.028-1.768 0.264-2.618 0.531-0.57 0.139-1.373 0.186-1.707-0.404-0.193-0.284-0.514-0.432-0.793-0.614 0-0.060 0.001-0.18 0.001-0.239-0.292-0.3-0.78-0.4-0.885-0.857-0.906-0.025-1.817 0.055-2.718-0.045-0.101 0.064-0.203 0.126-0.305 0.187 0 0.386 0 0.773 0 1.16-0.279 0-0.558 0-0.837 0 0 1.302 0 2.605 0 3.907-0.155 0-0.31 0-0.465 0 0-2.109 0-4.217 0-6.326 0.155 0 0.31 0 0.465 0 0 0.155 0 0.31 0 0.465 0.258 0 0.514 0 0.772 0 0.138 0.381 0.37 0.284 0.574 0.015 1.204-0.165 2.429-0.18 3.62-0.4-0.075-0.073-0.152-0.144-0.228-0.215 0.030-0.236-0.077-0.536 0.134-0.708z"></path>
<path fill="#231f20" d="M5.023 13.203c0.338 0.001 0.82-0.049 0.967 0.341 0.156 0.233-0.029 0.48-0.132 0.69-0.185-0.001-0.371-0.002-0.556-0.003 0 0.248 0 0.497 0 0.745-0.070 0-0.209 0-0.279 0 0-0.592 0-1.182 0-1.774M5.298 13.577c0.005 0.14 0.011 0.281 0.018 0.421 0.231-0.029 0.375-0.173 0.404-0.404-0.14-0.007-0.281-0.013-0.421-0.018z"></path>
<path fill="#231f20" d="M6.233 13.209c0.070 0 0.21 0 0.28 0 0.011 0.466-0.060 0.948 0.097 1.398 0.069-0.001 0.206-0.003 0.274-0.004 0-0.465 0-0.93 0-1.394 0.124 0 0.247 0 0.371 0-0.046 0.631 0.279 1.75-0.673 1.8-0.116-0.12-0.233-0.239-0.35-0.356 0-0.482 0-0.963 0-1.444z"></path>
<path fill="#231f20" d="M7.552 13.304c0.281-0.145 0.577-0.083 0.826 0.095-0.004 0.073-0.009 0.222-0.012 0.297-0.208-0.033-0.415-0.078-0.623-0.111 0.169 0.246 0.431 0.397 0.647 0.594-0.013 0.236-0.045 0.472-0.11 0.7-0.287 0.14-0.589 0.094-0.841-0.092 0.001-0.124 0.003-0.247 0.005-0.369 0.059 0 0.176 0 0.233-0.001 0.074 0.074 0.147 0.149 0.22 0.222 0.054-0.043 0.162-0.128 0.216-0.171-0.273-0.389-0.911-0.602-0.562-1.165z"></path>
<path fill="#231f20" d="M8.558 13.209c0.070 0 0.209 0 0.279 0 0 0.217 0 0.434 0 0.651 0.124 0 0.247 0 0.372 0 0-0.217 0-0.434 0-0.651 0.124 0 0.248 0 0.372 0 0 0.589 0 1.179 0 1.767-0.124 0-0.248 0-0.372 0 0-0.248 0-0.496 0-0.744-0.125 0-0.248 0-0.372 0 0 0.248 0 0.496 0 0.744-0.070 0-0.209 0-0.279 0 0-0.589 0-1.179 0-1.767z"></path>
<path fill="#231f20" d="M4.093 15.618c0.282 0.002 0.565 0.017 0.834 0.103 0.089 0.24 0.12 0.497 0.038 0.744 0.039 0.197 0.059 0.398 0.074 0.598-0.083 0.079-0.165 0.159-0.247 0.239-0.233 0-0.466 0-0.7 0 0-0.562 0-1.123 0-1.685M4.404 15.836c-0.016 0.149-0.031 0.299-0.043 0.448 0.084-0.006 0.252-0.016 0.337-0.021-0.037-0.18-0.147-0.321-0.294-0.427M4.372 16.527c0.001 0.18 0.004 0.361 0.009 0.541 0.206-0.035 0.362-0.152 0.417-0.357-0.141-0.062-0.283-0.125-0.426-0.184z"></path>
<path fill="#231f20" d="M5.21 15.628c0.124 0 0.247 0 0.372 0 0.016 0.477-0.060 0.968 0.077 1.434 0.050-0.041 0.152-0.123 0.202-0.164-0.002-0.423-0.001-0.847-0.001-1.271 0.124 0 0.247 0 0.371 0-0.046 0.557 0.141 1.176-0.184 1.675-0.218-0.001-0.435-0.001-0.653 0-0.326-0.5-0.139-1.118-0.184-1.675z"></path>
<path fill="#231f20" d="M6.326 15.628c0.62 0 1.24 0 1.86 0 0 0.069 0 0.207 0 0.277-0.070 0.001-0.209 0.003-0.279 0.004 0 0.465 0 0.929 0 1.394-0.124 0-0.248 0-0.372 0 0-0.465 0-0.93 0-1.395-0.186 0-0.372 0-0.558 0 0 0.465 0 0.93 0 1.395-0.124 0-0.248 0-0.372 0 0-0.464 0-0.928 0-1.394-0.070-0.001-0.209-0.003-0.279-0.004 0-0.070 0-0.208 0-0.277z"></path>
<path fill="#231f20" d="M8.373 15.723c0.206-0.056 0.415-0.095 0.626-0.121 0.391 0.47 0.461 1.247 0.012 1.702-0.182-0.001-0.365-0.001-0.547-0.001-0.292-0.47-0.22-1.069-0.091-1.58M8.659 15.997c-0.154 0.35-0.128 0.741 0.1 1.052 0.043-0.038 0.129-0.115 0.172-0.153 0-0.299 0-0.596 0-0.895-0.068-0.001-0.204-0.003-0.272-0.004z"></path>
<path fill="#231f20" d="M9.488 15.628c0.113 0 0.227 0 0.34 0 0.106 0.238 0.207 0.478 0.309 0.719 0.005-0.24 0.003-0.479 0.003-0.719 0.124 0 0.247 0 0.371 0 0 0.558 0 1.116 0 1.674-0.113 0-0.227 0-0.34 0-0.106-0.238-0.207-0.479-0.309-0.719-0.005 0.239-0.003 0.479-0.003 0.719-0.124 0-0.247 0-0.371 0 0-0.558 0-1.116 0-1.674z"></path>
<path fill="#231f20" d="M2.233 18.047c0.31 0 0.62 0 0.93 0 0 0.070 0 0.209 0 0.279-0.186 0-0.372 0-0.558 0 0 0.124 0 0.247 0 0.371 0.124 0 0.248 0.001 0.372 0.002 0 0.069 0 0.208 0 0.277-0.124 0-0.248 0.001-0.372 0.002 0 0.247 0 0.495 0 0.743-0.124 0-0.248 0-0.372 0 0-0.558 0-1.116 0-1.674z"></path>
<path fill="#231f20" d="M3.542 18.044c0.184 0.001 0.367 0.002 0.552 0.003 0.292 0.469 0.219 1.068 0.091 1.58-0.206 0.056-0.415 0.095-0.626 0.121-0.409-0.471-0.42-1.226-0.017-1.703M3.627 18.454c0.028 0.329-0.121 0.758 0.223 0.963 0.214-0.353 0.194-0.786-0.050-1.117-0.044 0.038-0.13 0.115-0.173 0.154z"></path>
<path fill="#231f20" d="M4.558 18.047c0.269 0.001 0.54-0.017 0.807 0.014 0.215 0.155 0.093 0.46 0.128 0.687-0.067 0.062-0.133 0.126-0.2 0.189 0.109 0.265 0.193 0.54 0.223 0.827-0.529 0.024-0.345-0.606-0.644-0.871-0.039 0.274-0.040 0.552-0.040 0.829-0.069 0-0.207 0-0.275 0 0-0.558 0-1.116 0-1.674M4.837 18.326c0 0.124 0 0.247 0 0.372 0.062 0 0.185 0 0.247 0 0.039-0.047 0.118-0.14 0.157-0.186-0.039-0.047-0.118-0.14-0.157-0.186-0.062 0-0.185 0-0.247 0z"></path>
<path fill="#231f20" d="M6.977 18.045c0.211 0.001 0.423 0.002 0.635 0.002 0.047 0.152 0.095 0.303 0.138 0.457-0.067 0.003-0.201 0.008-0.268 0.011-0.069-0.074-0.139-0.148-0.207-0.22-0.26 0.323-0.22 0.725-0.079 1.088 0.083-0.044 0.166-0.089 0.249-0.133-0.112-0.095-0.185-0.219-0.241-0.352 0.172-0.009 0.344-0.014 0.517-0.019 0 0.205 0 0.409 0 0.614-0.076 0.075-0.153 0.152-0.229 0.228-0.137 0.001-0.273 0.002-0.409 0.003-0.42-0.443-0.393-1.173-0.106-1.679z"></path>
<path fill="#231f20" d="M8 18.047c0.269 0.001 0.54-0.017 0.807 0.014 0.216 0.157 0.092 0.465 0.128 0.693-0.042 0.035-0.127 0.107-0.169 0.142 0.077 0.269 0.142 0.541 0.19 0.819-0.071 0.002-0.211 0.007-0.282 0.009-0.105-0.283-0.166-0.592-0.357-0.833-0.041 0.275-0.042 0.553-0.042 0.831-0.069 0-0.207 0-0.275 0 0-0.558 0-1.116 0-1.674M8.279 18.326c0 0.124 0 0.247 0 0.372 0.062 0 0.185 0 0.247 0 0.039-0.047 0.118-0.14 0.157-0.186-0.039-0.047-0.118-0.14-0.157-0.186-0.062 0-0.185 0-0.247 0z"></path>
<path fill="#231f20" d="M9.116 18.047c0.31 0 0.62 0 0.93 0 0 0.070 0 0.209 0 0.279-0.186 0-0.372 0-0.558 0 0 0.124 0 0.247 0 0.371 0.124 0 0.248 0.001 0.372 0.002 0 0.069 0 0.208 0 0.277-0.124 0-0.248 0.001-0.372 0.002 0 0.124 0 0.247 0 0.371 0.186 0 0.372 0 0.558 0 0 0.124 0 0.247 0 0.372-0.31 0-0.62 0-0.93 0 0-0.558 0-1.116 0-1.674z"></path>
<path fill="#231f20" d="M10.233 18.047c0.31 0 0.62 0 0.93 0 0 0.070 0 0.209 0 0.279-0.217 0-0.434 0-0.651 0 0 0.124 0 0.247 0 0.371 0.124 0 0.248 0.001 0.372 0.002 0 0.069 0 0.208 0 0.277-0.124 0-0.248 0.001-0.372 0.002 0 0.124 0 0.247 0 0.371 0.217 0 0.434 0 0.651 0 0 0.124 0 0.247 0 0.372-0.31 0-0.62 0-0.93 0 0-0.558 0-1.116 0-1.674z"></path>
<path fill="#231f20" d="M11.349 18.048c0.068-0.002 0.205-0.004 0.273-0.005 0.144 0.261 0.263 0.536 0.377 0.813 0.005-0.271 0.003-0.54 0.002-0.81 0.070 0 0.209 0 0.279 0 0 0.557 0 1.115 0 1.673-0.068 0.002-0.205 0.004-0.273 0.005-0.145-0.261-0.263-0.537-0.377-0.813-0.005 0.27-0.003 0.54-0.002 0.81-0.070 0-0.209 0-0.279 0 0-0.558 0-1.115 0-1.673z"></path>
<path fill="#231f20" d="M4.93 20.372c0.070 0 0.209 0 0.279 0 0 0.465 0 0.93 0 1.395 0.186 0 0.372 0 0.558 0 0 0.124 0 0.247 0 0.372-0.279 0-0.558 0-0.837 0 0-0.589 0-1.179 0-1.767z"></path>
<path fill="#231f20" d="M5.954 20.372c0.070 0 0.209 0 0.279 0 0 0.589 0 1.179 0 1.767-0.070 0-0.209 0-0.279 0 0-0.589 0-1.179 0-1.767z"></path>
<path fill="#231f20" d="M6.616 20.472c0.166-0.048 0.331-0.092 0.5-0.129 0.141 0.164 0.282 0.33 0.395 0.516-0.21-0.022-0.419-0.060-0.622-0.116-0.117 0.356-0.237 0.931 0.222 1.091-0.089-0.175-0.185-0.344-0.274-0.519 0.202-0.008 0.404-0.013 0.606-0.016 0 0.173 0 0.346 0 0.519-0.109 0.107-0.216 0.214-0.323 0.322-0.096 0-0.191 0-0.286 0-0.1-0.103-0.202-0.207-0.304-0.309-0.159-0.455-0.084-0.92 0.087-1.359z"></path>
<path fill="#231f20" d="M7.628 20.372c0.124 0 0.247 0 0.372 0 0 0.217 0 0.433 0 0.651 0.124 0 0.247 0 0.372 0 0-0.218 0-0.434 0-0.651 0.070 0 0.209 0 0.279 0 0 0.589 0 1.179 0 1.767-0.070 0-0.209 0-0.279 0 0-0.248 0-0.497 0-0.744-0.124 0-0.248 0-0.372 0 0 0.247 0 0.496 0 0.744-0.124 0-0.248 0-0.372 0 0-0.589 0-1.179 0-1.767z"></path>
<path fill="#231f20" d="M8.744 20.372c0.31 0 0.62 0 0.93 0 0 0.123 0 0.247 0 0.37-0.070 0.001-0.209 0.003-0.279 0.004 0 0.465 0 0.929 0 1.393-0.070 0-0.209 0-0.279 0 0-0.465 0-0.93 0-1.394-0.124-0.001-0.248-0.002-0.372-0.002 0-0.124 0-0.247 0-0.371z"></path>
<path fill="#fff" d="M1.519 0.313c3.707-0.079 7.425-0.010 11.136-0.034 0.844-0.040 1.643 0.624 1.67 1.484 0.002 6.887 0.002 13.775 0 20.662-0.022 0.796-0.687 1.46-1.482 1.482-3.661 0.005-7.323-0.004-10.983 0.004-0.812 0.058-1.622-0.655-1.582-1.487 0.005-6.917 0-13.835 0.002-20.753 0.027-0.678 0.591-1.229 1.24-1.356M0.652 1.763c-0.002 6.886-0.001 13.774 0 20.66-0.026 0.433 0.292 0.737 0.584 1.003 0.269 0.045 0.534 0.118 0.808 0.111 3.537-0.007 7.074 0.003 10.611-0.005 0.504-0.020 1.14-0.248 1.201-0.826 0.008-7.044 0-14.088 0.005-21.132 0.012-0.433-0.398-0.843-0.831-0.831-3.786 0-7.574 0.004-11.36-0.002-0.554-0.053-1.033 0.486-1.019 1.021z"></path>
<path fill="#fff" d="M1.624 1.395c3.785 0 7.571 0 11.357 0 0.075 0.076 0.152 0.153 0.228 0.228 0 6.98 0 13.959 0 20.94-0.076 0.075-0.153 0.152-0.228 0.228-3.786 0-7.572 0-11.358 0-0.075-0.076-0.152-0.153-0.228-0.228 0-6.98 0-13.96 0-20.94 0.076-0.075 0.153-0.152 0.229-0.228M5.898 2.419c-0.087 0.093-0.174 0.186-0.261 0.279 0.077 0.083 0.155 0.165 0.233 0.247-0.154 0.401-0.298 0.807-0.399 1.225-0.822-0.436-1.996-0.003-2.274 0.901-0.317 0.756 0.089 1.747 0.869 2.033 0.687 0.351 1.592 0.081 2.038-0.53 0.417-0.567 0.389-1.313 0.015-1.892 0.533 0.479 0.975 1.046 1.417 1.607 0 0.167 0 0.336 0 0.504 0.169-0.003 0.338-0.005 0.507-0.007-0.335-0.241-0.325-0.82 0.183-0.771 0.13 0.631 0.714 1.113 1.346 1.18 1.011 0.205 2.095-0.756 1.872-1.806-0.035-1.199-1.492-1.722-2.467-1.236-0.135-0.193-0.299-0.364-0.463-0.532 0.072-0.183 0.218-0.297 0.418-0.307 0.084-0.105 0.165-0.213 0.243-0.324-0.514-0.026-1.030-0.010-1.544-0.014-0.001 0.068-0.002 0.204-0.003 0.272 0.184 0.051 0.371 0.096 0.56 0.129l0.002 0.064c-0.688-0.001-1.377 0.002-2.066-0.002 0.063-0.244 0.145-0.497 0.048-0.744 0.207 0.001 0.414 0.002 0.62 0.003 0-0.070 0-0.21 0-0.28-0.298 0-0.595 0-0.893 0M7.198 7.808c-0.211 0.172-0.104 0.472-0.134 0.708 0.076 0.071 0.153 0.142 0.228 0.215-1.192 0.22-2.417 0.235-3.62 0.4-0.204 0.269-0.436 0.367-0.574-0.015-0.258 0-0.514 0-0.772 0 0-0.155 0-0.31 0-0.465-0.155 0-0.31 0-0.465 0 0 2.109 0 4.217 0 6.326 0.155 0 0.31 0 0.465 0 0-1.302 0-2.605 0-3.907 0.279 0 0.558 0 0.837 0 0-0.387 0-0.774 0-1.16 0.102-0.061 0.204-0.123 0.305-0.187 0.901 0.1 1.812 0.020 2.718 0.045 0.105 0.457 0.593 0.556 0.885 0.857 0 0.060-0.001 0.18-0.001 0.239 0.279 0.182 0.6 0.33 0.793 0.614 0.334 0.59 1.137 0.542 1.707 0.404 0.849-0.267 1.724-0.503 2.618-0.531 0.182-0.025 0.428 0.068 0.542-0.124 0.038-0.639 0.002-1.282 0.014-1.922-1.293 0.113-2.46-0.496-3.58-1.032-0.689 0.285-1.319-0.337-1.966-0.464M5.023 13.203c0 0.592 0 1.182 0 1.774 0.070 0 0.209 0 0.279 0 0-0.248 0-0.497 0-0.745 0.185 0.001 0.371 0.002 0.556 0.003 0.103-0.21 0.288-0.458 0.132-0.69-0.148-0.391-0.63-0.34-0.967-0.341M6.233 13.209c0 0.481 0 0.962 0 1.444 0.117 0.117 0.233 0.236 0.35 0.356 0.952-0.050 0.626-1.169 0.673-1.8-0.124 0-0.247 0-0.371 0 0 0.464 0 0.929 0 1.394-0.069 0.001-0.206 0.003-0.274 0.004-0.156-0.45-0.086-0.932-0.097-1.398-0.070 0-0.21 0-0.28 0M7.552 13.304c-0.349 0.563 0.289 0.776 0.562 1.165-0.054 0.043-0.162 0.128-0.216 0.171-0.074-0.073-0.147-0.148-0.22-0.222-0.058 0.001-0.175 0.001-0.233 0.001-0.002 0.123-0.004 0.246-0.005 0.369 0.252 0.186 0.553 0.232 0.841 0.092 0.065-0.229 0.097-0.464 0.11-0.7-0.217-0.197-0.478-0.349-0.647-0.594 0.208 0.033 0.415 0.078 0.623 0.111 0.003-0.074 0.008-0.223 0.012-0.297-0.249-0.178-0.545-0.24-0.826-0.095M8.558 13.209c0 0.589 0 1.179 0 1.767 0.070 0 0.209 0 0.279 0 0-0.248 0-0.496 0-0.744 0.124 0 0.247 0 0.372 0 0 0.248 0 0.496 0 0.744 0.124 0 0.248 0 0.372 0 0-0.589 0-1.179 0-1.767-0.124 0-0.248 0-0.372 0 0 0.217 0 0.434 0 0.651-0.125 0-0.248 0-0.372 0 0-0.217 0-0.434 0-0.651-0.070 0-0.209 0-0.279 0M4.093 15.618c0 0.562 0 1.123 0 1.685 0.233 0 0.466 0 0.7 0 0.082-0.080 0.164-0.16 0.247-0.239-0.015-0.2-0.034-0.401-0.074-0.598 0.082-0.247 0.051-0.504-0.038-0.744-0.27-0.087-0.553-0.101-0.834-0.103M5.21 15.628c0.046 0.557-0.141 1.176 0.184 1.675 0.218-0.001 0.435-0.001 0.653 0 0.326-0.5 0.139-1.118 0.184-1.675-0.124 0-0.247 0-0.371 0 0 0.423-0.001 0.847 0.001 1.271-0.050 0.041-0.152 0.123-0.202 0.164-0.138-0.466-0.061-0.957-0.077-1.434-0.125 0-0.248 0-0.372 0M6.326 15.628c0 0.069 0 0.207 0 0.277 0.070 0.001 0.209 0.003 0.279 0.004 0 0.465 0 0.929 0 1.394 0.124 0 0.248 0 0.372 0 0-0.465 0-0.93 0-1.395 0.186 0 0.372 0 0.558 0 0 0.465 0 0.93 0 1.395 0.124 0 0.248 0 0.372 0 0-0.464 0-0.928 0-1.394 0.070-0.001 0.209-0.003 0.279-0.004 0-0.070 0-0.208 0-0.277-0.62 0-1.24 0-1.86 0M8.373 15.723c-0.128 0.512-0.201 1.111 0.091 1.58 0.182 0 0.365 0 0.547 0.001 0.449-0.455 0.379-1.233-0.012-1.702-0.211 0.026-0.42 0.065-0.626 0.121M9.488 15.628c0 0.558 0 1.116 0 1.674 0.124 0 0.247 0 0.371 0 0-0.24-0.002-0.48 0.003-0.719 0.101 0.24 0.203 0.481 0.309 0.719 0.113 0 0.227 0 0.34 0 0-0.558 0-1.116 0-1.674-0.124 0-0.247 0-0.371 0 0 0.24 0.002 0.479-0.003 0.719-0.102-0.241-0.203-0.481-0.309-0.719-0.113 0-0.227 0-0.34 0M2.233 18.047c0 0.558 0 1.116 0 1.674 0.124 0 0.248 0 0.372 0 0-0.248 0-0.496 0-0.743 0.124-0.001 0.248-0.002 0.372-0.002 0-0.069 0-0.208 0-0.277-0.124-0.001-0.248-0.002-0.372-0.002 0-0.124 0-0.247 0-0.371 0.186 0 0.372 0 0.558 0 0-0.070 0-0.209 0-0.279-0.31 0-0.62 0-0.93 0M3.542 18.044c-0.403 0.477-0.393 1.233 0.017 1.703 0.211-0.026 0.42-0.065 0.626-0.121 0.127-0.512 0.201-1.111-0.091-1.58-0.184-0.001-0.367-0.002-0.552-0.003M4.558 18.047c0 0.558 0 1.116 0 1.674 0.069 0 0.207 0 0.275 0 0-0.277 0.001-0.554 0.040-0.829 0.299 0.265 0.114 0.895 0.644 0.871-0.030-0.287-0.114-0.562-0.223-0.827 0.067-0.063 0.133-0.127 0.2-0.189-0.035-0.226 0.087-0.531-0.128-0.687-0.268-0.031-0.539-0.013-0.807-0.014M6.977 18.045c-0.287 0.506-0.313 1.236 0.106 1.679 0.137-0.001 0.273-0.002 0.409-0.003 0.076-0.076 0.153-0.153 0.229-0.228 0-0.205 0-0.409 0-0.614-0.173 0.005-0.345 0.009-0.517 0.019 0.056 0.133 0.129 0.257 0.241 0.352-0.084 0.044-0.167 0.089-0.249 0.133-0.141-0.364-0.181-0.766 0.079-1.088 0.069 0.073 0.139 0.146 0.207 0.22 0.067-0.003 0.201-0.008 0.268-0.011-0.043-0.153-0.090-0.305-0.138-0.457-0.212 0-0.424-0.001-0.635-0.002M8 18.047c0 0.558 0 1.116 0 1.674 0.069 0 0.207 0 0.275 0 0-0.277 0.001-0.555 0.042-0.831 0.191 0.242 0.252 0.551 0.357 0.833 0.071-0.003 0.211-0.007 0.282-0.009-0.047-0.277-0.113-0.55-0.19-0.819 0.042-0.035 0.127-0.107 0.169-0.142-0.036-0.228 0.087-0.536-0.128-0.693-0.268-0.031-0.539-0.013-0.807-0.014M9.116 18.047c0 0.558 0 1.116 0 1.674 0.31 0 0.62 0 0.93 0 0-0.125 0-0.248 0-0.372-0.186 0-0.372 0-0.558 0 0-0.124 0-0.247 0-0.371 0.124-0.001 0.248-0.002 0.372-0.002 0-0.069 0-0.208 0-0.277-0.124-0.001-0.248-0.002-0.372-0.002 0-0.124 0-0.247 0-0.371 0.186 0 0.372 0 0.558 0 0-0.070 0-0.209 0-0.279-0.31 0-0.62 0-0.93 0M10.233 18.047c0 0.558 0 1.116 0 1.674 0.31 0 0.62 0 0.93 0 0-0.125 0-0.248 0-0.372-0.217 0-0.434 0-0.651 0 0-0.124 0-0.247 0-0.371 0.124-0.001 0.248-0.002 0.372-0.002 0-0.069 0-0.208 0-0.277-0.124-0.001-0.248-0.002-0.372-0.002 0-0.124 0-0.247 0-0.371 0.217 0 0.434 0 0.651 0 0-0.070 0-0.209 0-0.279-0.31 0-0.62 0-0.93 0M11.349 18.048c0 0.557 0 1.114 0 1.673 0.070 0 0.209 0 0.279 0-0.001-0.27-0.003-0.54 0.002-0.81 0.113 0.276 0.232 0.552 0.377 0.813 0.068-0.001 0.205-0.003 0.273-0.005 0-0.557 0-1.115 0-1.673-0.070 0-0.209 0-0.279 0 0.001 0.27 0.003 0.54-0.002 0.81-0.113-0.277-0.233-0.552-0.377-0.813-0.068 0.001-0.205 0.003-0.273 0.005M4.93 20.372c0 0.589 0 1.179 0 1.767 0.279 0 0.558 0 0.837 0 0-0.125 0-0.248 0-0.372-0.186 0-0.372 0-0.558 0 0-0.465 0-0.93 0-1.395-0.070 0-0.209 0-0.279 0M5.954 20.372c0 0.589 0 1.179 0 1.767 0.070 0 0.209 0 0.279 0 0-0.589 0-1.179 0-1.767-0.070 0-0.209 0-0.279 0M6.616 20.472c-0.171 0.439-0.247 0.904-0.087 1.359 0.102 0.102 0.204 0.206 0.304 0.309 0.096 0 0.191 0 0.286 0 0.107-0.108 0.214-0.215 0.323-0.322 0-0.173 0-0.346 0-0.519-0.202 0.003-0.404 0.007-0.606 0.016 0.089 0.175 0.185 0.344 0.274 0.519-0.46-0.16-0.34-0.735-0.222-1.091 0.204 0.057 0.412 0.094 0.622 0.116-0.113-0.186-0.254-0.353-0.395-0.516-0.168 0.037-0.334 0.081-0.5 0.129M7.628 20.372c0 0.589 0 1.179 0 1.767 0.124 0 0.248 0 0.372 0 0-0.248 0-0.497 0-0.744 0.124 0 0.248 0 0.372 0 0 0.247 0 0.496 0 0.744 0.070 0 0.209 0 0.279 0 0-0.589 0-1.179 0-1.767-0.070 0-0.209 0-0.279 0 0 0.217 0 0.433 0 0.651-0.125 0-0.248 0-0.372 0 0-0.218 0-0.434 0-0.651-0.125 0-0.248 0-0.372 0M8.744 20.372c0 0.124 0 0.247 0 0.371 0.124 0 0.248 0.001 0.372 0.002 0 0.464 0 0.929 0 1.394 0.070 0 0.209 0 0.279 0 0-0.464 0-0.928 0-1.394 0.070-0.001 0.209-0.003 0.279-0.004 0-0.124 0-0.247 0-0.37-0.31 0-0.62 0-0.93 0z"></path>
<path fill="#fff" d="M5.89 3.833c0.732-0.039 1.465-0.009 2.198-0.019-0.156 0.426-0.325 0.852-0.397 1.302-0.193 0-0.386 0-0.58 0-0.401-0.434-0.865-0.81-1.221-1.284z"></path>
<path fill="#fff" d="M8.399 3.973c0.083 0.136 0.17 0.268 0.261 0.397-0.276 0.38-0.539 0.814-0.487 1.305-0.072 0-0.214-0.001-0.285-0.002 0.183-0.562 0.354-1.129 0.51-1.7z"></path>
<path fill="#fff" d="M3.446 5.682c0.063-0.911 1.027-1.612 1.891-1.184-0.16 0.412-0.446 0.749-0.779 1.034 0 0.11 0 0.22 0.001 0.329 0.059 0 0.178 0 0.237 0 0.356-0.308 0.618-0.696 0.908-1.060 0.574 0.663 0.259 1.742-0.57 2.007-0.779 0.316-1.556-0.371-1.688-1.125z"></path>
<path fill="#fff" d="M9.253 4.5c0.719-0.393 1.7 0.070 1.816 0.886 0.090 0.54-0.226 1.119-0.74 1.318-0.634 0.288-1.425-0.031-1.711-0.662 0.037-0.041 0.112-0.123 0.149-0.164 0.402-0.038 0.794-0.133 1.187-0.224 0-0.1 0-0.199 0-0.298-0.265-0.259-0.477-0.563-0.7-0.856z"></path>
<path fill="#fff" d="M8.524 5.6c0.059-0.326 0.181-0.635 0.429-0.864 0.137 0.207 0.306 0.39 0.476 0.569-0.037 0.042-0.112 0.124-0.148 0.165-0.256 0.022-0.506 0.078-0.757 0.13z"></path>
<path fill="#fff" d="M5.298 13.577c0.14 0.005 0.281 0.011 0.421 0.018-0.029 0.231-0.173 0.375-0.404 0.404-0.007-0.14-0.013-0.281-0.018-0.421z"></path>
<path fill="#fff" d="M4.404 15.836c0.147 0.106 0.257 0.247 0.294 0.427-0.085 0.006-0.253 0.016-0.337 0.021 0.012-0.15 0.027-0.3 0.043-0.448z"></path>
<path fill="#fff" d="M8.659 15.997c0.068 0.001 0.204 0.003 0.272 0.004 0 0.299 0 0.596 0 0.895-0.043 0.038-0.129 0.115-0.172 0.153-0.228-0.311-0.254-0.702-0.1-1.052z"></path>
<path fill="#fff" d="M4.372 16.527c0.143 0.060 0.285 0.122 0.426 0.184-0.055 0.206-0.211 0.322-0.417 0.357-0.006-0.18-0.008-0.361-0.009-0.541z"></path>
<path fill="#fff" d="M3.627 18.454c0.043-0.039 0.129-0.116 0.173-0.154 0.244 0.331 0.264 0.764 0.050 1.117-0.344-0.205-0.195-0.633-0.223-0.963z"></path>
<path fill="#fff" d="M4.837 18.326c0.062 0 0.185 0 0.247 0 0.039 0.047 0.118 0.14 0.157 0.186-0.039 0.046-0.118 0.14-0.157 0.186-0.062 0-0.185 0-0.247 0 0-0.125 0-0.248 0-0.372z"></path>
<path fill="#fff" d="M8.279 18.326c0.062 0 0.185 0 0.247 0 0.039 0.047 0.118 0.14 0.157 0.186-0.039 0.046-0.118 0.14-0.157 0.186-0.062 0-0.185 0-0.247 0 0-0.125 0-0.248 0-0.372z"></path>
</svg>
