<?xml version="1.0" encoding="utf-8"?>
<!-- Generated by IcoMoon.io -->
<!DOCTYPE svg PUBLIC "-//W3C//DTD SVG 1.1//EN" "http://www.w3.org/Graphics/SVG/1.1/DTD/svg11.dtd">
<svg version="1.1" xmlns="http://www.w3.org/2000/svg" xmlns:xlink="http://www.w3.org/1999/xlink" width="24" height="24" viewBox="0 0 24 24">
<path fill="#d12323" d="M11.466 0h1.021c2.694 0.127 5.346 1.146 7.374 2.934 2.518 2.159 4.045 5.399 4.139 8.712v0.743c-0.102 2.928-1.301 5.806-3.343 7.912-2.117 2.222-5.108 3.568-8.173 3.7h-0.97c-2.496-0.116-4.949-1.010-6.911-2.56-2.759-2.128-4.472-5.51-4.603-8.988v-0.869c0.107-3.034 1.399-6.010 3.576-8.13 2.080-2.086 4.956-3.306 7.89-3.454M10.625 3.338c-2.425 0.341-4.663 1.76-6.023 3.793-1.13 1.658-1.66 3.712-1.495 5.711 0.157 2.118 1.114 4.164 2.634 5.647 1.612 1.596 3.865 2.537 6.137 2.521 1.586 0.018 3.169-0.434 4.528-1.249 1.902-1.134 3.343-3.011 3.953-5.138 0.544-1.864 0.46-3.905-0.244-5.716-0.659-1.727-1.883-3.229-3.43-4.238-1.77-1.162-3.967-1.639-6.060-1.331z"></path>
<path fill="#fff" d="M10.625 3.338c2.093-0.308 4.29 0.169 6.060 1.331 1.547 1.009 2.771 2.512 3.43 4.238 0.703 1.811 0.787 3.852 0.244 5.716-0.61 2.128-2.051 4.004-3.953 5.138-1.358 0.815-2.941 1.267-4.528 1.249-2.272 0.016-4.525-0.925-6.137-2.521-1.52-1.483-2.477-3.529-2.634-5.647-0.164-1.999 0.365-4.052 1.495-5.711 1.36-2.033 3.598-3.452 6.023-3.793M5.665 6.761c-0.304 0.979-0.858 1.871-1.538 2.632 0.016 0.77 0.004 1.543 0.089 2.311 0.403-0.247 0.761-0.557 1.133-0.845 0.017 2.242 0.024 4.483 0.036 6.725 0.526 0 1.052 0 1.579 0.001 0-3.608 0.001-7.216-0.001-10.824-0.432-0.001-0.865-0.002-1.297 0M8.472 7.27c0.022 0.751-0.024 1.506 0.061 2.254 0.587-0.307 1.087-0.857 1.793-0.87 0.647-0.048 1.132 0.586 1.17 1.181-0.019 0.612-0.056 1.249-0.335 1.808-0.707 1.516-1.769 2.821-2.814 4.112-0.004 0.586-0.001 1.171-0.001 1.757 1.734 0.001 3.467 0 5.2 0 0-0.679 0.001-1.36-0.001-2.040-0.994-0.001-1.988-0.020-2.983-0.028 1.234-1.649 2.639-3.433 2.633-5.599 0.097-1.134-0.298-2.524-1.441-2.99-1.080-0.433-2.296-0.118-3.281 0.415M16.003 6.9c-0.637 0.209-1.121 0.742-1.388 1.343-0.497 1.099-0.566 2.329-0.534 3.518 0.030 0.96-0.025 1.93 0.118 2.882 0.196 0.887 0.523 1.83 1.268 2.404 0.58 0.464 1.375 0.439 2.072 0.348 0.852-0.133 1.577-0.754 1.922-1.534 0.464-1.016 0.514-2.159 0.55-3.259 0.010-1.28 0.011-2.593-0.384-3.826-0.28-0.877-0.935-1.71-1.866-1.925-0.578-0.109-1.192-0.133-1.758 0.048z"></path>
<path fill="#fff" d="M16.742 8.591c0.304-0.144 0.559 0.128 0.743 0.334 0.336 0.384 0.338 0.924 0.398 1.402 0.095 1.235 0.068 2.477-0.018 3.71-0.056 0.52-0.13 1.112-0.562 1.468-0.317 0.197-0.806 0.083-0.988-0.252-0.348-0.582-0.388-1.279-0.414-1.939-0.035-1.075-0.098-2.16 0.037-3.23 0.103-0.55 0.253-1.225 0.803-1.492z"></path>
<path fill="#0b0b10" d="M5.665 6.761c0.432-0.002 0.865-0.001 1.297 0 0.002 3.608 0.001 7.216 0.001 10.824-0.527-0.001-1.054-0.001-1.579-0.001-0.012-2.242-0.019-4.483-0.036-6.725-0.372 0.288-0.73 0.598-1.133 0.845-0.085-0.768-0.073-1.541-0.089-2.311 0.68-0.761 1.235-1.652 1.538-2.632z"></path>
<path fill="#0b0b10" d="M8.472 7.27c0.985-0.533 2.201-0.848 3.281-0.415 1.144 0.467 1.538 1.856 1.441 2.99 0.006 2.166-1.399 3.95-2.633 5.599 0.995 0.007 1.99 0.026 2.983 0.028 0.002 0.68 0.001 1.361 0.001 2.040-1.733 0-3.466 0.001-5.2 0 0-0.586-0.002-1.171 0.001-1.757 1.045-1.291 2.107-2.597 2.814-4.112 0.278-0.559 0.316-1.196 0.335-1.808-0.038-0.595-0.523-1.229-1.17-1.181-0.706 0.013-1.206 0.563-1.793 0.87-0.085-0.748-0.040-1.502-0.061-2.254z"></path>
<path fill="#0b0b10" d="M16.003 6.9c0.566-0.181 1.18-0.157 1.758-0.048 0.931 0.215 1.586 1.048 1.866 1.925 0.395 1.232 0.394 2.545 0.384 3.826-0.036 1.1-0.085 2.243-0.55 3.259-0.346 0.78-1.070 1.4-1.922 1.534-0.697 0.091-1.493 0.116-2.072-0.348-0.745-0.574-1.073-1.517-1.268-2.404-0.143-0.953-0.088-1.922-0.118-2.882-0.032-1.189 0.037-2.419 0.534-3.518 0.268-0.601 0.751-1.134 1.388-1.343M16.742 8.591c-0.55 0.266-0.7 0.942-0.803 1.492-0.136 1.070-0.072 2.155-0.037 3.23 0.026 0.66 0.066 1.357 0.414 1.939 0.181 0.335 0.671 0.449 0.988 0.252 0.432-0.355 0.505-0.948 0.562-1.468 0.086-1.234 0.113-2.476 0.018-3.71-0.060-0.478-0.062-1.018-0.398-1.402-0.184-0.205-0.439-0.478-0.743-0.334z"></path>
</svg>
