<!-- Generated by IcoMoon.io -->
<svg version="1.1" xmlns="http://www.w3.org/2000/svg" width="24" height="24" viewBox="0 0 24 24">
<title>regulatory--maximum-speed-limit-90--g1</title>
<path fill="#ce252c" d="M11.075 0h1.553c4.091 0.214 7.985 2.639 9.914 6.262 0.816 1.444 1.223 3.067 1.458 4.697v2.058c-0.392 4.004-2.819 7.766-6.42 9.608-1.402 0.768-2.968 1.151-4.54 1.375h-2.052c-4.093-0.398-7.926-2.936-9.728-6.656-0.714-1.372-1.050-2.893-1.26-4.414v-1.836c0.205-1.559 0.56-3.116 1.3-4.517 1.826-3.707 5.68-6.215 9.775-6.577M11.564 2.819c-2.869 0.103-5.624 1.673-7.205 4.064-1.586 2.329-1.986 5.406-1.070 8.069 1.162 3.574 4.704 6.2 8.465 6.248 3.586 0.145 7.103-2.050 8.587-5.308 1.133-2.4 1.146-5.291 0.038-7.702-1.487-3.365-5.136-5.611-8.815-5.372z"></path>
<path fill="#ffd100" d="M11.564 2.819c3.679-0.239 7.328 2.008 8.815 5.372 1.108 2.411 1.094 5.302-0.038 7.702-1.484 3.258-5.002 5.453-8.587 5.308-3.761-0.048-7.303-2.675-8.465-6.248-0.916-2.663-0.516-5.74 1.070-8.069 1.58-2.392 4.336-3.961 7.205-4.064M4.465 10.206c0.198 1.825 2.060 3.184 3.862 2.887-0.792 1.698-1.925 3.226-3.292 4.504 0.862 0.002 1.722 0.011 2.584-0.004 1.789-2.132 3.156-4.723 3.511-7.507 0.262-1.985-1.572-3.866-3.562-3.672-1.874 0.072-3.404 1.939-3.103 3.792M15.403 6.542c-1.088 0.349-1.88 1.295-2.374 2.291-0.871 2.018-0.864 4.406 0.036 6.414 0.622 1.226 1.786 2.402 3.258 2.351 1.787-0.020 3.086-1.672 3.532-3.266 0.635-2.244 0.439-4.945-1.152-6.757-0.785-0.94-2.113-1.427-3.3-1.032z"></path>
<path fill="#ffd100" d="M7.355 8.323c0.816-0.278 1.783 0.306 1.914 1.158 0.184 0.838-0.492 1.735-1.35 1.778-0.82 0.098-1.61-0.601-1.632-1.422-0.049-0.673 0.419-1.333 1.068-1.514z"></path>
<path fill="#ffd100" d="M15.99 8.318c0.811-0.224 1.439 0.524 1.79 1.152 0.719 1.558 0.722 3.427 0.037 4.997-0.281 0.518-0.685 1.046-1.264 1.24-0.79 0.19-1.381-0.538-1.739-1.136-0.733-1.546-0.739-3.409-0.077-4.98 0.269-0.532 0.671-1.068 1.252-1.272z"></path>
<path fill="#000" d="M4.465 10.206c-0.301-1.853 1.229-3.72 3.103-3.792 1.99-0.194 3.823 1.687 3.562 3.672-0.355 2.784-1.722 5.375-3.511 7.507-0.862 0.014-1.722 0.006-2.584 0.004 1.367-1.278 2.5-2.806 3.292-4.504-1.801 0.296-3.664-1.062-3.862-2.887M7.355 8.323c-0.649 0.181-1.117 0.841-1.068 1.514 0.022 0.821 0.812 1.52 1.632 1.422 0.858-0.043 1.534-0.941 1.35-1.778-0.131-0.852-1.098-1.436-1.914-1.158z"></path>
<path fill="#030200" d="M15.403 6.542c1.187-0.395 2.515 0.092 3.3 1.032 1.591 1.812 1.787 4.513 1.152 6.757-0.445 1.595-1.745 3.246-3.532 3.266-1.472 0.052-2.636-1.124-3.258-2.351-0.9-2.008-0.907-4.396-0.036-6.414 0.493-0.996 1.285-1.942 2.374-2.291M15.99 8.318c-0.581 0.204-0.983 0.74-1.252 1.272-0.662 1.571-0.656 3.434 0.077 4.98 0.358 0.599 0.949 1.326 1.739 1.136 0.578-0.193 0.983-0.721 1.264-1.24 0.685-1.57 0.682-3.439-0.037-4.997-0.352-0.628-0.979-1.376-1.79-1.152z"></path>
</svg>
