<svg xmlns="http://www.w3.org/2000/svg" width="24" height="24">
    <path fill="#2b3f73" d="M10.76 0h2.467c1.449.232 2.894.586 4.201 1.271 3.599 1.775 6.059 5.448 6.572 9.401v1.057c-8 0-16-.005-24 .003v-.964c.465-3.994 2.95-7.706 6.572-9.495C7.875.588 9.317.236 10.76.001zm1.676 1.206c-.422.325-.255.916-.24 1.369.169.132.67.41.245.564-.559.164-.525.774-.72 1.214-.479.283-1.12.311-1.608.021-.401.363-.475.923-.67 1.4-.486-.195-.908.014-.907.575.2.085.401.168.604.249l-.221.592c-.886-.179-2.112.323-2.077 1.363-.301 1.055.56 2.24 1.672 2.183.897-.046 1.547-.854 1.621-1.711 1.126.427 2.363.129 3.537.218.17 1.045 1.35 1.832 2.354 1.363.657-.228.879-.926 1.239-1.448.058-.76-.414-1.392-.982-1.839.235-.279.582-.315.923-.271l-.012-.302-.915-.009c-.128-.169-.159-.495-.425-.49-.716-.049-1.435.003-2.152-.025-.339-.716-.338-1.515-.055-2.248.225-.502-.222-.877-.43-1.28.11-.372.401-.717.31-1.126-.093-.459-.738-.67-1.09-.363z"/>
    <path fill="#2b3f73" d="M9.809 5.843c.152-1.003 1.205-.711 1.945-.73.111.201.222.405.332.608-.543.81-1.523.173-2.276.123zM9.178 7.333c.023-.081.068-.244.092-.325l.446.221c-.001.124-.001.37-.003.494-.178-.13-.357-.259-.535-.39zM12.008 7.568l.884.239c.026.188.05.378.074.566l-.388.479-.499-.006c-.025-.426-.048-.852-.07-1.277zM7.295 9.031c-.021-.739.695-1.253 1.392-1.209-.163.516-.365 1.021-.481 1.551.565-.214.501-.97.773-1.432.685.466.862 1.559.125 2.063-.716.606-1.857-.083-1.809-.973zM0 12.159c8 0 16 .006 24-.003v1.159c-.501 3.994-3.018 7.692-6.657 9.459-1.254.65-2.639.973-4.019 1.226h-2.625c-4.001-.494-7.706-3.008-9.47-6.657-.653-1.257-.973-2.643-1.23-4.025v-1.16zm9.95 2.306c-.347.235-.156.653 0 .937-.166.467-.369.92-.585 1.365-1.375-.548-3.003.597-2.941 2.074-.026 1.654 2.187 2.72 3.439 1.592 1.268-.863.956-2.857-.31-3.564l.232-.486c.675.65 1.337 1.315 2.014 1.965-.175.555.059 1.12.671 1.219l.101.289c.215.003.431.008.646.013-.879-.023-.363-.551-.034-.942l.423.006c.115 1.103 1.154 2.025 2.268 1.966 1.297-.008 2.453-1.381 2.014-2.665-.329-1.352-1.995-1.994-3.19-1.328a299.71 299.71 0 0 0-.61-.934l.241-.435c.143.004.288.006.432.009l.147-.326-.2-.25c-.381.053-.77.054-1.143.154.014.268.325.339.502.486l-.164.244c-1.299.006-2.597.001-3.895.004.077-.2.157-.4.237-.6l-.372-.352c.35-.597 1.147-.175 1.68-.452-.52-.105-1.103-.197-1.606.01z"/>
    <path fill="#2b3f73" d="M9.817 16.107c1.321-.026 2.644-.009 3.965-.01-.39.681-.717 1.399-1.146 2.057-.253-.031-.301-.299-.41-.483a52.09 52.09 0 0 0-.559.006c.25.142.59.25.528.615-.903-.592-1.592-1.452-2.378-2.186zM6.645 18.561c.12-1.214 1.479-2.055 2.622-1.613-.28.666-.657 1.292-.857 1.988.557-.484.689-1.267 1.061-1.88.546.381 1.001.956 1.009 1.649.101.987-.752 1.874-1.703 1.981-1.156.163-2.35-.942-2.132-2.125zM14.817 17.066c1.089-.587 2.604.005 2.892 1.236.396 1.209-.743 2.484-1.966 2.399-.972-.013-1.814-.818-1.954-1.766.741-.012 1.48-.001 2.221-.013-.401-.615-.81-1.227-1.192-1.855z"/>
    <path fill="#2b3f73" d="M13.803 18.694c.112-.57.386-1.094.804-1.501.347.494.671 1.003.999 1.51-.601-.003-1.203.003-1.803-.009z"/>
    <path fill="#fff" d="M12.436 1.206c.352-.307.997-.097 1.09.363.092.409-.2.755-.31 1.126.208.403.654.778.43 1.28-.283.733-.284 1.532.055 2.248.717.027 1.436-.025 2.152.025.266-.005.297.321.425.49l.915.009.012.302c-.341-.044-.688-.008-.923.271.568.446 1.04 1.079.982 1.839-.36.521-.582 1.219-1.239 1.448-1.004.47-2.183-.317-2.354-1.363-1.174-.089-2.41.209-3.537-.218-.074.857-.724 1.665-1.621 1.711-1.112.057-1.973-1.128-1.672-2.183-.035-1.04 1.191-1.542 2.077-1.363l.221-.592a29.387 29.387 0 0 1-.604-.249c-.001-.561.421-.77.907-.575.195-.477.268-1.037.67-1.4.488.29 1.129.262 1.608-.021.195-.44.161-1.05.72-1.214.425-.154-.076-.432-.245-.564-.015-.453-.182-1.044.24-1.369zM9.809 5.843c.754.05 1.733.688 2.276-.123l-.332-.608c-.739.019-1.792-.272-1.945.73zm-.631 1.49c.178.13.357.259.535.39.001-.124.001-.37.003-.494l-.446-.221c-.023.081-.068.244-.092.325zm1.427.636c.244.194.499.374.77.528a24.804 24.804 0 0 0-.157-1.008l-.581-.072c-.012.185-.022.369-.032.552zm1.403-.401c.022.426.045.852.07 1.277.166.003.333.005.499.006l.388-.479a36.512 36.512 0 0 0-.074-.566l-.884-.239zM7.295 9.031c-.048.89 1.093 1.579 1.809.973.737-.505.56-1.597-.125-2.063-.272.462-.208 1.218-.773 1.432.116-.53.319-1.035.481-1.551-.697-.044-1.413.47-1.392 1.209zm7.751-1.195c.16.315.332.625.525.919.183.115.338.265.445.455-.618.053-1.237.023-1.855.044.204.597.783 1.114 1.452.959.805-.126 1.24-1.164.765-1.827-.267-.47-.84-.557-1.332-.55zm-.885 1.003c.382.012.764.013 1.146.009-.174-.299-.35-.597-.533-.892a3.017 3.017 0 0 0-.613.883zM9.95 14.465c.503-.208 1.086-.115 1.606-.01-.533.276-1.33-.146-1.68.452.123.117.246.235.372.352-.08.2-.16.4-.237.6 1.298-.003 2.596.003 3.895-.004l.164-.244c-.177-.147-.488-.218-.502-.486.373-.099.763-.101 1.143-.154l.2.25-.147.326c-.145-.003-.289-.005-.432-.009l-.241.435c.204.311.408.622.61.934 1.195-.666 2.861-.025 3.19 1.328.439 1.284-.717 2.657-2.014 2.665-1.115.058-2.154-.863-2.268-1.966a30.044 30.044 0 0 0-.423-.006c-.329.391-.845.919.034.942-.215-.005-.431-.01-.646-.013l-.101-.289c-.612-.099-.846-.665-.671-1.219-.677-.65-1.339-1.315-2.014-1.965l-.232.486c1.266.707 1.578 2.701.31 3.564-1.252 1.128-3.465.062-3.439-1.592-.062-1.476 1.565-2.622 2.941-2.074.215-.445.418-.898.585-1.365-.156-.284-.347-.702 0-.937zm-.133 1.642c.786.734 1.475 1.594 2.378 2.186.062-.365-.277-.474-.528-.615.186-.004.373-.005.559-.006.11.183.157.452.41.483.428-.658.756-1.375 1.146-2.057-1.321.001-2.644-.015-3.965.01zm4.152.083c-.37.668-.728 1.345-1.095 2.015.101.169.2.339.298.51.143-.001.286-.003.431-.003.106-.653.414-1.254.921-1.685l-.555-.837zm-7.324 2.371c-.218 1.183.975 2.288 2.132 2.125.951-.107 1.804-.994 1.703-1.981-.008-.693-.463-1.268-1.009-1.649-.372.613-.503 1.396-1.061 1.88.2-.697.577-1.323.857-1.988-1.143-.443-2.502.399-2.622 1.613zm8.172-1.495c.382.628.791 1.24 1.192 1.855-.741.012-1.48.001-2.221.013.139.948.982 1.754 1.954 1.766 1.223.085 2.363-1.19 1.966-2.399-.288-1.231-1.803-1.823-2.892-1.236zm-1.014 1.628c.6.012 1.201.006 1.803.009-.328-.507-.652-1.015-.999-1.51-.418.406-.692.93-.804 1.501z"/>
    <path fill="#2e4276" d="M10.605 7.969l.032-.552.581.072c.059.335.112.671.157 1.008a6.03 6.03 0 0 1-.77-.528z"/>
    <path fill="#2c4073" d="M15.046 7.836c.492-.008 1.065.08 1.332.55.475.663.04 1.701-.765 1.827-.668.155-1.248-.361-1.452-.959.618-.021 1.237.009 1.855-.044a1.268 1.268 0 0 0-.445-.455 9.357 9.357 0 0 1-.525-.919z"/>
    <path fill="#2f4376" d="M14.161 8.839a3.03 3.03 0 0 1 .613-.883c.183.294.359.592.533.892-.382.004-.764.003-1.146-.009z"/>
    <path fill="#fffffe" d="M0 11.732c8-.008 16-.003 24-.003v.427c-8 .009-16 .003-24 .003v-.427z"/>
    <path fill="#2c4074" d="M13.969 16.19c.185.279.369.559.555.837-.507.431-.815 1.032-.921 1.685-.145 0-.288.001-.431.003-.098-.17-.197-.341-.298-.51.368-.671.725-1.347 1.095-2.015z"/>
</svg>
