<?xml version="1.0" encoding="utf-8"?>
<!-- Generated by IcoMoon.io -->
<!DOCTYPE svg PUBLIC "-//W3C//DTD SVG 1.1//EN" "http://www.w3.org/Graphics/SVG/1.1/DTD/svg11.dtd">
<svg version="1.1" xmlns="http://www.w3.org/2000/svg" xmlns:xlink="http://www.w3.org/1999/xlink" width="24" height="24" viewBox="0 0 24 24">
<path fill="#c0111e" d="M11.389 0h1.154c3.018 0.149 5.971 1.44 8.066 3.628 2.078 2.114 3.29 5.026 3.39 7.984v0.756c-0.096 2.994-1.337 5.94-3.455 8.064-2.084 2.14-4.994 3.406-7.969 3.569h-1.12c-2.962-0.151-5.861-1.398-7.949-3.514-2.167-2.146-3.438-5.149-3.508-8.195v-0.576c0.065-3.053 1.336-6.064 3.509-8.212 2.070-2.102 4.944-3.334 7.88-3.504M10.104 2.471c-2.466 0.469-4.716 1.952-6.122 4.031-1.154 1.67-1.748 3.712-1.692 5.74 0.040 2.016 0.738 4.002 1.946 5.614 1.466-1.47 2.936-2.936 4.404-4.405 0.661-0.661 1.322-1.321 1.982-1.984 0.215-0.212 0.428-0.426 0.636-0.644 0.502-0.479 0.982-0.98 1.477-1.464 1.703-1.712 3.418-3.415 5.122-5.128-2.183-1.646-5.074-2.3-7.753-1.759M13.567 12.328c-0.764 0.772-1.535 1.538-2.303 2.305-1.709 1.708-3.412 3.42-5.125 5.122 1.99 1.513 4.576 2.2 7.055 1.884 2.73-0.317 5.284-1.873 6.823-4.148 1.224-1.769 1.814-3.955 1.676-6.1-0.108-1.894-0.796-3.742-1.936-5.255-2.059 2.069-4.124 4.13-6.191 6.192z"></path>
<path fill="#fff" d="M10.104 2.471c2.68-0.541 5.57 0.113 7.753 1.759-1.704 1.712-3.419 3.415-5.122 5.128 0.016-1.812 0.002-3.624 0.006-5.436-0.494-0.001-0.989-0.001-1.483 0-0.001 2.299-0.001 4.6 0 6.9-0.208 0.218-0.421 0.432-0.636 0.644-0.542-0.122-1.105-0.427-1.288-0.988-0.253-0.768-0.144-1.589-0.167-2.382 0.432 0 0.864 0 1.296-0.002-0.787-1.325-1.577-2.648-2.371-3.97-0.794 1.321-1.583 2.646-2.371 3.971 0.425 0.001 0.85 0.001 1.274 0.001 0.008 1.229-0.049 2.472 0.205 3.682 0.098 0.44 0.236 0.895 0.541 1.241 0.233 0.253 0.586 0.322 0.898 0.431-1.468 1.469-2.938 2.935-4.404 4.405-1.208-1.612-1.907-3.598-1.946-5.614-0.056-2.028 0.538-4.069 1.692-5.74 1.406-2.078 3.656-3.562 6.122-4.031z"></path>
<path fill="#fff" d="M13.567 12.328c2.066-2.062 4.132-4.123 6.191-6.192 1.14 1.513 1.828 3.361 1.936 5.255 0.138 2.144-0.452 4.331-1.676 6.1-1.54 2.275-4.093 3.832-6.823 4.148-2.479 0.316-5.065-0.371-7.055-1.884 1.714-1.702 3.416-3.414 5.125-5.122-0.014 1.816-0.004 3.631-0.006 5.446 0.494 0.001 0.989 0.001 1.483 0 0.002-1.789-0.001-3.58 0.001-5.369 0.691 0.298 1.549 0.683 1.7 1.507 0.204 1.208 0.052 2.438 0.018 3.654 0.838 0.001 1.676 0.001 2.514 0.001 0.001-1.306 0.090-2.616-0.060-3.916-0.074-0.72-0.299-1.438-0.713-2.034-0.703-0.77-1.687-1.205-2.635-1.595z"></path>
<path fill="#000" d="M11.258 3.922c0.494-0.001 0.989-0.001 1.483 0-0.004 1.812 0.010 3.624-0.006 5.436-0.496 0.484-0.976 0.985-1.477 1.464-0.001-2.3-0.001-4.601 0-6.9z"></path>
<path fill="#000" d="M5.722 8.095c0.788-1.325 1.577-2.65 2.371-3.971 0.794 1.321 1.584 2.645 2.371 3.97-0.432 0.002-0.864 0.002-1.296 0.002 0.023 0.793-0.086 1.614 0.167 2.382 0.182 0.56 0.745 0.865 1.288 0.988-0.66 0.662-1.321 1.322-1.982 1.984-0.312-0.109-0.665-0.178-0.898-0.431-0.305-0.346-0.443-0.8-0.541-1.241-0.254-1.21-0.197-2.453-0.205-3.682-0.425 0-0.85 0-1.274-0.001z"></path>
<path fill="#000" d="M11.264 14.633c0.768-0.767 1.538-1.534 2.303-2.305 0.948 0.39 1.932 0.824 2.635 1.595 0.414 0.596 0.638 1.314 0.713 2.034 0.15 1.3 0.061 2.61 0.060 3.916-0.838 0-1.676 0-2.514-0.001 0.034-1.216 0.186-2.446-0.018-3.654-0.151-0.824-1.009-1.21-1.7-1.507-0.002 1.789 0.001 3.58-0.001 5.369-0.494 0.001-0.989 0.001-1.483 0 0.002-1.814-0.008-3.63 0.006-5.446z"></path>
</svg>
