<!-- Generated by IcoMoon.io -->
<svg version="1.1" xmlns="http://www.w3.org/2000/svg" width="24" height="24" viewBox="0 0 24 24">
<title>regulatory--end-of-maximum-speed-limit-50--g2</title>
<path fill="#000" d="M10.984 0h2.024c0.158 0.027 0.316 0.051 0.475 0.068 3.135 0.367 6.079 2.056 8.007 4.551 1.439 1.819 2.281 4.067 2.51 6.367v2.020c-0.182 1.718-0.666 3.415-1.536 4.915-1.534 2.727-4.173 4.81-7.189 5.651-0.737 0.22-1.501 0.323-2.261 0.428h-2.021c-1.741-0.181-3.457-0.684-4.974-1.567-2.696-1.543-4.757-4.162-5.592-7.158-0.219-0.737-0.324-1.5-0.427-2.26v-2.024c0.101-0.762 0.208-1.527 0.427-2.266 0.791-2.83 2.67-5.333 5.158-6.893 1.616-1.043 3.494-1.633 5.4-1.831M9.253 0.538c-1.672 0.397-3.249 1.174-4.592 2.245-2.378 1.88-3.984 4.71-4.351 7.722-0.42 3.18 0.534 6.508 2.586 8.974 0.693-0.822 1.385-1.645 2.073-2.472 0.395-0.472 0.802-0.935 1.181-1.418 1.004-1.164 1.981-2.354 2.972-3.53 0.426-0.501 0.844-1.007 1.268-1.508 0.825-1.002 1.688-1.977 2.49-2.995 0.507-0.571 1.020-1.149 1.469-1.766 0.116-0.075 0.195-0.193 0.285-0.296 1.050-1.253 2.103-2.504 3.152-3.758-2.557-1.462-5.674-1.884-8.534-1.197M18.91 7.132c-0.45 0.54-0.903 1.077-1.355 1.616-1.063 1.282-2.157 2.542-3.201 3.837-0.603 0.669-1.162 1.377-1.748 2.062-0.418 0.509-0.86 1-1.262 1.521-0.829 0.962-1.652 1.934-2.449 2.923-0.913 1.038-1.785 2.117-2.68 3.174 2.554 1.466 5.672 1.885 8.531 1.198 1.66-0.395 3.23-1.162 4.566-2.224 2.392-1.881 4.007-4.72 4.376-7.742 0.421-3.18-0.534-6.507-2.584-8.974-0.735 0.867-1.461 1.742-2.194 2.611z"></path>
<path fill="#fff" d="M9.253 0.538c2.86-0.688 5.977-0.266 8.534 1.197-1.049 1.254-2.102 2.505-3.152 3.758-0.090 0.103-0.169 0.22-0.285 0.296-0.68 0.384-1.216 1.026-1.469 1.766-0.802 1.019-1.665 1.993-2.49 2.995-0.388-0.375-0.864-0.677-1.395-0.797-0.861-0.2-1.792 0.053-2.454 0.633-0.004-0.985-0.002-1.97-0.001-2.955 1.558-0.012 3.117 0.002 4.675-0.007 0.003-0.673 0.006-1.345-0.001-2.018-2.109-0.002-4.217-0.003-6.326 0-0.004 2.475-0.003 4.95-0 7.425 0.547 0.001 1.094 0.009 1.641-0.004 0.222-0.458 0.563-0.908 1.073-1.057 0.512-0.131 1.105-0.058 1.521 0.288-0.991 1.176-1.968 2.366-2.972 3.53-0.495 0-0.989-0.006-1.484 0.001 0.043 0.482 0.135 0.962 0.302 1.418-0.688 0.827-1.38 1.65-2.073 2.472-2.052-2.467-3.007-5.795-2.586-8.974 0.367-3.012 1.973-5.842 4.351-7.722 1.342-1.071 2.92-1.849 4.592-2.245z"></path>
<path fill="#fff" d="M18.91 7.132c0.734-0.869 1.459-1.744 2.194-2.611 2.050 2.468 3.006 5.795 2.584 8.974-0.369 3.022-1.985 5.862-4.376 7.742-1.335 1.062-2.905 1.829-4.566 2.224-2.859 0.688-5.977 0.268-8.531-1.198 0.894-1.057 1.767-2.136 2.68-3.174 1.29-0.392 2.238-1.609 2.449-2.923 0.402-0.52 0.844-1.012 1.262-1.521-0.034 1.095 0.043 2.281 0.728 3.189 0.592 0.78 1.513 1.342 2.505 1.372 1.159 0.071 2.276-0.59 2.905-1.541 0.457-0.703 0.61-1.557 0.613-2.384 0-2.016 0.001-4.032 0-6.047 0-0.722-0.131-1.45-0.448-2.103z"></path>
<path fill="#fff" d="M17.555 8.747c0.034 0.239 0.056 0.48 0.053 0.721-0.001 1.891 0 3.782-0 5.673-0.001 0.539-0.101 1.114-0.462 1.535-0.5 0.613-1.497 0.69-2.112 0.211-0.484-0.376-0.66-1.014-0.673-1.604-0.010-0.9 0.003-1.8-0.007-2.7 1.044-1.295 2.138-2.555 3.201-3.837z"></path>
<path fill="#808080" d="M4.889 5.408c2.108-0.003 4.217-0.002 6.326-0 0.007 0.673 0.004 1.345 0.001 2.018-1.558 0.009-3.117-0.005-4.675 0.007-0.001 0.985-0.003 1.97 0.001 2.955 0.662-0.58 1.593-0.833 2.454-0.633 0.531 0.12 1.007 0.421 1.395 0.797-0.424 0.502-0.843 1.008-1.268 1.508-0.416-0.346-1.009-0.419-1.521-0.288-0.51 0.149-0.851 0.599-1.073 1.057-0.547 0.014-1.094 0.005-1.641 0.004-0.003-2.475-0.003-4.95 0-7.425z"></path>
<path fill="#808080" d="M12.882 7.555c0.252-0.74 0.788-1.382 1.469-1.766-0.449 0.617-0.961 1.195-1.469 1.766z"></path>
<path fill="#808080" d="M17.555 8.747c0.452-0.539 0.905-1.076 1.355-1.616 0.317 0.652 0.448 1.38 0.448 2.103 0.001 2.016 0 4.031 0 6.047-0.003 0.826-0.156 1.681-0.613 2.384-0.629 0.951-1.746 1.612-2.905 1.541-0.993-0.030-1.914-0.592-2.505-1.372-0.685-0.908-0.762-2.094-0.728-3.189 0.585-0.685 1.145-1.392 1.748-2.062 0.010 0.9-0.003 1.8 0.007 2.7 0.012 0.589 0.188 1.227 0.673 1.604 0.615 0.479 1.612 0.402 2.112-0.211 0.361-0.421 0.461-0.997 0.462-1.535 0.001-1.891-0-3.782 0-5.673 0.002-0.242-0.019-0.483-0.053-0.721z"></path>
<path fill="#808080" d="M4.667 15.59c0.495-0.007 0.989-0.001 1.484-0.001-0.38 0.484-0.786 0.947-1.181 1.418-0.168-0.455-0.26-0.935-0.302-1.418z"></path>
<path fill="#808080" d="M8.896 19.089c0.796-0.99 1.62-1.961 2.449-2.923-0.21 1.314-1.159 2.531-2.449 2.923z"></path>
</svg>
