<svg xmlns="http://www.w3.org/2000/svg" width="24" height="24">
    <path fill="#da251d" d="M10.564 0h2.879c3.858.527 7.443 2.905 9.221 6.398.721 1.283 1.06 2.73 1.336 4.163v2.883c-.528 3.858-2.906 7.44-6.398 9.219-1.284.721-2.731 1.061-4.166 1.338h-2.881c-3.857-.529-7.439-2.906-9.217-6.397C.617 16.318.277 14.872 0 13.437v-2.88c.279-1.431.616-2.876 1.336-4.158C3.117 2.905 6.702.525 10.564.001zm.25 1.744c-4.893.361-9.204 4.515-9.596 9.433-.336 3.207.931 6.512 3.318 8.676 2.046 1.904 4.864 2.951 7.659 2.827 3.892-.061 7.622-2.479 9.283-5.995 1.716-3.473 1.23-7.881-1.194-10.9-2.2-2.848-5.895-4.408-9.472-4.041z"/>
    <path fill="#fff" d="M10.814 1.744c3.577-.367 7.271 1.194 9.472 4.041 2.423 3.019 2.91 7.427 1.194 10.9-1.662 3.516-5.392 5.934-9.283 5.995-2.796.125-5.613-.922-7.659-2.827-2.387-2.164-3.654-5.469-3.318-8.676.392-4.918 4.703-9.072 9.596-9.433zm-4.194 6.8c.28.68 1.234.512 1.638.977.128.852-1.206.684-1.288-.036l-.584.067c.121.669.681 1.239 1.4 1.129.804.067 1.409-.852 1.003-1.555-.32-.649-1.287-.415-1.651-.965.083-.594 1.018-.401 1.143.112l.597-.044c-.115-.584-.593-1.066-1.222-.999-.697-.083-1.361.645-1.035 1.315zm2.569-1.239l.006.549.9.004c.001.915-.001 1.83.001 2.746.206.004.414.008.621.01l.001-2.757.9-.001.003-.558c-.811.003-1.623-.004-2.434.006zm3.567.014c-.974.362-1.103 1.641-.79 2.499.32.889 1.581 1.139 2.269.528.599-.532.619-1.449.411-2.166-.24-.763-1.161-1.148-1.89-.86zm2.485-.019c.003 1.104.003 2.207 0 3.311l.621-.001c.001-.409.001-.817-.003-1.226.397-.018.81.016 1.19-.126.714-.344.711-1.565-.018-1.889-.586-.128-1.195-.049-1.79-.069zM3.666 11.451c-.983.169-.854 1.648.114 1.712 5.314.054 10.633.012 15.949.022.614.053 1.304-.593.99-1.214-.256-.585-.973-.607-1.519-.586-5.176.052-10.365-.083-15.534.066zm-.184 2.751c-.006.767-.003 1.535-.001 2.301l.458.005c.003-.379.008-.759.047-1.135.262.352.455.745.645 1.139l.514-.013c-.201-.419-.409-.839-.693-1.209.108-.202.214-.405.319-.607.153-.157.304-.315.449-.479-.754-.206-.896.624-1.236 1.074a14.26 14.26 0 0 1-.044-1.074c-.152-.001-.305-.001-.457-.003zm2.532.009c-1.056.327-.947 2.231.209 2.32.769.153 1.388-.629 1.236-1.356-.003-.728-.785-1.187-1.445-.964zm1.809-.011c.003.768-.001 1.535.004 2.303l.435.003v-1.008c.297-.001.593-.004.89-.006l.001 1.016c.117-.001.35-.005.467-.008 0-.762-.003-1.524 0-2.287a75.36 75.36 0 0 1-.468-.014l-.001.908c-.296-.001-.593-.001-.889-.003l.003-.903h-.441zm4.155 0c.003.768 0 1.536.004 2.304l.436.001v-.855c.333-.035.699.019 1-.158.41-.296.357-1.066-.143-1.242-.427-.084-.865-.04-1.297-.051zm2.726-.004c-1.123.25-1.026 2.252.157 2.335.704.132 1.332-.528 1.216-1.225.092-.745-.673-1.326-1.373-1.11zm1.822.006c-.001.594.012 1.187-.012 1.78a2.884 2.884 0 0 0-.423.537c1.227.24.802-1.197.865-1.92l.666-.014c.006.638-.001 1.277.001 1.915l.464.008c.004-.768.001-1.536.004-2.303l-1.566-.003zm2.05-.002c0 .768-.003 1.536.003 2.304.493-.014 1.003.061 1.483-.082.486-.2.485-1.003.009-1.214-.336-.135-.708-.082-1.06-.101l.003-.906-.437-.001zm-8.663.002v.39l.66-.001v1.91l.429.008c.009-.637.001-1.275.006-1.912l.686-.01.005-.379c-.595-.005-1.192-.004-1.788-.005z"/>
    <path fill="#fff" d="M13.146 7.827c1.213-.187 1.345 2 .304 2.253-1.217.197-1.373-2.028-.304-2.253zM15.865 7.84c.379.029 1.079-.077 1.073.488-.006.56-.69.45-1.072.48a52.058 52.058 0 0 1-.001-.968zM6.27 14.574c.939-.182.987 1.589.087 1.566-.767-.047-.817-1.422-.087-1.566zM12.419 14.571c.282.054.8-.086.793.345-.003.428-.507.285-.789.349a53.621 53.621 0 0 1-.004-.694zM14.837 14.583c.944-.25 1.098 1.478.213 1.557-.799.031-.916-1.338-.213-1.557zM19.013 15.488c.431.006.999-.073.972.519-.319.07-.643.112-.968.138a47.818 47.818 0 0 1-.004-.656z"/>
    <path fill="#1f1a17" d="M6.62 8.544c-.326-.671.339-1.398 1.035-1.315.629-.067 1.107.415 1.222.999-.2.016-.398.03-.597.044-.125-.512-1.06-.706-1.143-.112.365.55 1.331.317 1.651.965.406.703-.198 1.623-1.003 1.555-.719.11-1.279-.459-1.4-1.129l.584-.067c.082.72 1.417.889 1.288.036-.405-.464-1.358-.297-1.638-.977zM9.189 7.305c.811-.01 1.623-.004 2.434-.006l-.003.558-.9.001-.001 2.757-.621-.01c-.003-.916 0-1.832-.001-2.746l-.9-.004a50.243 50.243 0 0 1-.006-.549zM12.756 7.319c.729-.288 1.65.097 1.89.86.208.717.188 1.635-.411 2.166-.688.611-1.949.361-2.269-.528-.313-.858-.184-2.137.79-2.499zm.39.508c-1.069.226-.913 2.451.304 2.253 1.042-.253.909-2.44-.304-2.253zM15.241 7.3c.595.019 1.204-.06 1.79.069.729.324.732 1.545.018 1.889-.38.141-.793.108-1.19.126.004.409.004.817.003 1.226l-.621.001c.003-1.104.003-2.207 0-3.311zm.624.54c-.003.323-.001.645.001.968.381-.03 1.065.08 1.072-.48.006-.564-.694-.459-1.073-.488zM3.666 11.451c5.168-.149 10.358-.014 15.534-.066.546-.021 1.264.001 1.519.586.314.621-.376 1.267-.99 1.214-5.316-.01-10.635.032-15.949-.022-.968-.065-1.098-1.544-.114-1.712zM3.482 14.202c.152.001.305.001.457.003.005.358.012.717.044 1.074.34-.45.483-1.28 1.236-1.074-.145.163-.296.322-.449.479-.105.202-.211.405-.319.607.284.37.492.79.693 1.209l-.514.013c-.189-.394-.383-.787-.645-1.139-.039.376-.044.756-.047 1.135l-.458-.005c-.001-.767-.005-1.535.001-2.301z"/>
    <path fill="#1f1a17" d="M6.014 14.211c.66-.223 1.443.236 1.445.964.152.726-.467 1.509-1.236 1.356-1.156-.088-1.265-1.993-.209-2.32zm.256.363c-.73.144-.68 1.519.087 1.566.9.023.852-1.747-.087-1.566zM14.704 14.196c.699-.215 1.465.366 1.373 1.11.117.697-.511 1.357-1.216 1.225-1.183-.083-1.28-2.085-.157-2.335zm.133.387c-.703.219-.586 1.588.213 1.557.885-.079.732-1.807-.213-1.557z"/>
    <path fill="#1b1613" d="M7.823 14.2h.441l-.003.903c.296.001.593.001.889.003l.001-.908c.118.004.352.012.468.014-.003.763 0 1.526 0 2.287l-.467.008-.001-1.016c-.297.003-.593.005-.89.006v1.008l-.435-.003c-.005-.768-.001-1.535-.004-2.303zM11.978 14.2c.432.01.87-.034 1.297.051.499.175.553.946.143 1.242-.301.178-.667.123-1 .158v.855l-.436-.001c-.004-.768-.001-1.536-.004-2.304zm.441.371c0 .231.001.462.004.694.282-.064.786.079.789-.349.008-.431-.511-.291-.793-.345zM16.526 14.202l1.566.003c-.003.767 0 1.535-.004 2.303a36.211 36.211 0 0 1-.464-.008c-.003-.638.005-1.277-.001-1.915l-.666.014c-.064.723.362 2.16-.865 1.92.119-.195.261-.375.423-.537.023-.593.01-1.186.012-1.78zM18.576 14.2l.437.001c-.001.302-.003.603-.003.906.352.019.724-.034 1.06.101.476.211.477 1.014-.009 1.214-.48.143-.99.067-1.483.082-.005-.768-.003-1.536-.003-2.304zm.437 1.288c0 .219.001.437.004.656a7.05 7.05 0 0 0 .968-.138c.027-.592-.541-.512-.972-.519zM9.913 14.202c.595.001 1.192 0 1.788.005l-.005.379-.686.01c-.005.637.003 1.275-.006 1.912l-.429-.008v-1.91l-.66.001v-.39z"/>
</svg>
