<?xml version="1.0" encoding="utf-8"?>
<!-- Generated by IcoMoon.io -->
<!DOCTYPE svg PUBLIC "-//W3C//DTD SVG 1.1//EN" "http://www.w3.org/Graphics/SVG/1.1/DTD/svg11.dtd">
<svg version="1.1" xmlns="http://www.w3.org/2000/svg" xmlns:xlink="http://www.w3.org/1999/xlink" width="24" height="24" viewBox="0 0 24 24">
<path fill="#0371b3" d="M0.065 0h11.656c-0.006 8 0.010 16-0.009 24h-11.241c-0.058-0.16-0.222-0.326-0.406-0.25v-23.75M3.625 9.162c-0.132 0.56-0.259 1.125-0.444 1.671-0.016-0.061-0.047-0.184-0.062-0.246-0.874-0.047-1.873 0.236-2.27 1.094-0.602 1.057 0.067 2.483 1.218 2.796-0.401-0.029-0.804-0.027-1.206-0.025l0.010 0.183c3.226-0.001 6.453 0 9.678-0.001l-0.004-0.184c-0.403 0-0.808-0.003-1.21 0.030 0.415-0.152 0.825-0.378 1.079-0.751 0.63-0.806 0.444-2.073-0.371-2.68-0.492-0.427-1.171-0.398-1.777-0.468l0.034 0.196c-0.541 0.019-0.659-0.58-0.907-0.939 0.138-0.139 0.276-0.275 0.416-0.411-0.030-0.038-0.090-0.115-0.119-0.154-0.284 0-0.567-0.001-0.851-0.001-0.003 0.052-0.005 0.153-0.008 0.204 0.215 0.025 0.431 0.051 0.643 0.088-0.071 0.043-0.213 0.128-0.283 0.171-1.179 0.043-2.361 0.001-3.542 0.017 0.026-0.099 0.079-0.294 0.105-0.392 0.244-0.030 0.489-0.056 0.734-0.078 0.018-0.042 0.053-0.126 0.071-0.169-0.313 0.006-0.624 0.026-0.935 0.052z"></path>
<path fill="#0371b3" d="M12.176 0h11.532c-0.013 0.184 0.062 0.258 0.227 0.221v23.227c-0.188 0.262-0.453 0.457-0.762 0.553h-10.995c-0.006-8-0.001-16-0.003-24M15.913 7.881c0.175 0.217 0.393 0.406 0.486 0.677-0.44 0.1-0.934 0.197-1.225 0.58-0.304 0.341-0.258 0.826-0.262 1.249 0.016 0.582-0.029 1.169 0.022 1.751 0.010 0.307 0.533 0.348 0.584 0.040 0.087-0.71-0.030-1.428 0.052-2.138 0.054-0.039 0.163-0.117 0.218-0.156 0.061 1.974-0.004 3.953 0.032 5.929-0.066 0.368 0.55 0.529 0.616 0.134 0.084-1.1-0.031-2.209 0.051-3.309 0.112-0.231 0.35-0.134 0.372 0.082 0.047 1.296-0.026 2.596 0.030 3.892 0.006 0.4 0.645 0.385 0.63-0.018 0.035-2.238-0.001-4.478 0.017-6.716 0.41 0.598 0.769 1.229 1.174 1.83 0.088 0.152 0.261 0.209 0.407 0.288 0.102 0.174 0.153 0.393 0.314 0.524 0.331 0.066 0.671 0.062 1.007 0.086-0.204 0.658-0.409 1.315-0.611 1.974 0.118 0 0.353 0 0.47 0.001 0.004 0.464-0.018 0.929 0.009 1.393-0.044 0.24 0.254 0.205 0.393 0.265 0.031-0.563 0.026-1.126 0.025-1.689 0.070 0.001 0.209 0.006 0.278 0.009 0.004 0.416-0.034 0.837 0.026 1.251 0.014 0.214 0.389 0.186 0.387-0.026 0.053-0.396 0.017-0.798 0.022-1.196 0.149-0.006 0.3-0.012 0.449-0.017-0.144-0.538-0.288-1.075-0.424-1.615 0.192 0.206 0.362 0.44 0.592 0.61 0.183 0.135 0.245-0.147 0.123-0.245-0.345-0.45-0.738-0.869-1.195-1.206 0.196-0.218 0.44-0.519 0.245-0.821-0.184-0.413-0.861-0.314-0.96 0.113-0.118 0.359 0.25 0.586 0.445 0.825-0.336 0.030-0.678 0.080-1.013 0.021-0.313-0.243-0.256-0.719-0.481-1.029-0.423-0.666-0.846-1.334-1.287-1.987-0.248-0.384-0.689-0.554-1.11-0.666 0.075-0.304 0.297-0.527 0.442-0.794 0.165-0.458-0.224-0.991-0.711-0.966-0.515-0.014-0.922 0.627-0.638 1.072z"></path>
<path fill="#0371b3" d="M3.518 9.882c1.27-0.006 2.539 0.004 3.808-0.006-0.451 0.733-0.637 1.627-1.214 2.277-0.030-0.315-0.043-0.632-0.067-0.948-0.065 0.332 0.121 0.826-0.287 0.973-0.489-0.378-0.931-0.813-1.398-1.219-0.014-0.047-0.044-0.141-0.058-0.188-0.378-0.134-0.839-0.427-0.782-0.887z"></path>
<path fill="#0371b3" d="M7.34 9.959c0.189 0.32 0.376 0.645 0.512 0.992-0.226 0.201-0.459 0.394-0.691 0.59 0.049 0.064 0.099 0.127 0.149 0.191 0.141-0.289 0.365-0.52 0.606-0.728 0.246 0.432 0.518 0.852 0.706 1.314-0.043 0.057-0.126 0.17-0.169 0.226-0.461 0.026-0.921 0.006-1.383 0.008-0.022-0.145-0.069-0.437-0.091-0.584-0.017 0.161-0.048 0.483-0.064 0.643-0.077-0.026-0.23-0.077-0.305-0.101-0.082-0.147-0.166-0.292-0.252-0.436 0.331-0.704 0.621-1.426 0.981-2.116M7.157 11.75l-0.1 0.058c-0.097 0.328 0.332 0.112 0.1-0.058z"></path>
<path fill="#0371b3" d="M3.478 10.834c0.009-0.162 0.018-0.326 0.029-0.488 0.725 0.586 1.373 1.26 2.085 1.862-0.038 0.102-0.11 0.306-0.147 0.407 0.122 0.231 0.298 0.423 0.519 0.563-0.009 0.237-0.022 0.474-0.039 0.71 0.083-0.010 0.248-0.031 0.33-0.042-0.032-0.049-0.099-0.148-0.131-0.197 0.004-0.152 0.009-0.304 0.014-0.454 0.18-0.125 0.348-0.266 0.496-0.428 0.060-0.005 0.18-0.013 0.24-0.018 0.090 0.798 0.65 1.501 1.427 1.723-1.731-0.031-3.465-0.043-5.197 0.006 0.987-0.294 1.692-1.401 1.373-2.414-0.126-0.541-0.547-0.939-0.998-1.23z"></path>
<path fill="#0371b3" d="M1.825 10.949c0.458-0.227 0.992-0.182 1.467-0.038-0.121 0.49-0.285 0.968-0.488 1.431-0.15 0.022-0.3 0.045-0.449 0.071-0.004 0.113-0.006 0.226-0.010 0.339 0.075 0.032 0.224 0.095 0.298 0.126 0.054-0.056 0.163-0.167 0.218-0.222 0.502 0.017 1.004 0.023 1.506 0.027-0.096 0.682-0.523 1.343-1.201 1.561-0.939 0.372-2.103-0.272-2.307-1.256-0.211-0.794 0.204-1.712 0.965-2.039z"></path>
<path fill="#0371b3" d="M7.995 10.975c0.446-0.157 0.947-0.252 1.402-0.077 0.39 0.126 0.682 0.427 0.965 0.708-0.374 0.27-0.771 0.505-1.183 0.708-0.169-0.036-0.339-0.070-0.507-0.102-0.224-0.414-0.451-0.825-0.677-1.238z"></path>
<path fill="#0371b3" d="M3.361 10.938c0.607 0.341 1.012 0.981 0.99 1.686-0.523-0.001-1.044-0.009-1.566-0.029 0.201-0.55 0.435-1.088 0.576-1.658z"></path>
<path fill="#0371b3" d="M9.222 12.34c0.401-0.2 0.787-0.428 1.164-0.673 0.546 0.946 0.070 2.29-0.994 2.602-1.092 0.427-2.32-0.501-2.344-1.642 0.468-0.003 0.938 0 1.408-0.008 0.035 0.078 0.105 0.232 0.14 0.31 0.154-0.009 0.318 0.018 0.464-0.047 0.157-0.132 0.117-0.363 0.162-0.542z"></path>
<path fill="#fff" d="M11.721 0h0.455c0.001 8-0.004 16 0.003 24h-0.467c0.019-8 0.003-16 0.009-24z"></path>
<path fill="#fff" d="M23.708 0h0.227v0.221c-0.165 0.038-0.24-0.036-0.227-0.221z"></path>
<path fill="#fff" d="M15.913 7.881c-0.284-0.445 0.123-1.086 0.638-1.072 0.486-0.025 0.876 0.509 0.711 0.966-0.145 0.267-0.367 0.49-0.442 0.794 0.422 0.112 0.863 0.282 1.11 0.666 0.441 0.654 0.864 1.322 1.287 1.987 0.226 0.31 0.169 0.786 0.481 1.029 0.335 0.060 0.677 0.009 1.013-0.021-0.195-0.239-0.563-0.466-0.445-0.825 0.099-0.427 0.776-0.525 0.96-0.113 0.195 0.302-0.049 0.603-0.245 0.821 0.457 0.337 0.85 0.756 1.195 1.206 0.122 0.099 0.060 0.38-0.123 0.245-0.23-0.17-0.4-0.403-0.592-0.61 0.136 0.54 0.28 1.077 0.424 1.615-0.149 0.005-0.3 0.010-0.449 0.017-0.005 0.398 0.031 0.8-0.022 1.196 0.003 0.211-0.372 0.24-0.387 0.026-0.060-0.414-0.022-0.834-0.026-1.251-0.069-0.003-0.208-0.008-0.278-0.009 0.001 0.563 0.006 1.126-0.025 1.689-0.139-0.060-0.437-0.025-0.393-0.265-0.027-0.464-0.005-0.929-0.009-1.393-0.117-0.001-0.352-0.001-0.47-0.001 0.202-0.659 0.407-1.317 0.611-1.974-0.336-0.023-0.676-0.019-1.007-0.086-0.161-0.131-0.211-0.35-0.314-0.524-0.147-0.079-0.319-0.136-0.407-0.288-0.405-0.602-0.764-1.232-1.174-1.83-0.018 2.238 0.018 4.478-0.017 6.716 0.014 0.403-0.624 0.418-0.63 0.018-0.056-1.296 0.017-2.596-0.030-3.892-0.022-0.215-0.261-0.313-0.372-0.082-0.082 1.1 0.034 2.209-0.051 3.309-0.066 0.396-0.682 0.235-0.616-0.134-0.036-1.976 0.029-3.954-0.032-5.929-0.054 0.039-0.163 0.117-0.218 0.156-0.082 0.71 0.035 1.428-0.052 2.138-0.051 0.307-0.573 0.267-0.584-0.040-0.051-0.582-0.006-1.169-0.022-1.751 0.004-0.423-0.042-0.908 0.262-1.249 0.291-0.383 0.785-0.48 1.225-0.58-0.093-0.271-0.311-0.461-0.486-0.677z"></path>
<path fill="#fff" d="M3.625 9.162c0.311-0.026 0.623-0.045 0.935-0.052-0.018 0.043-0.053 0.127-0.071 0.169-0.245 0.022-0.49 0.048-0.734 0.078-0.026 0.097-0.079 0.293-0.105 0.392 1.181-0.016 2.362 0.026 3.542-0.017 0.070-0.043 0.211-0.128 0.283-0.171-0.213-0.038-0.428-0.064-0.643-0.088 0.003-0.051 0.005-0.152 0.008-0.204 0.284 0 0.567 0.001 0.851 0.001 0.030 0.039 0.090 0.117 0.119 0.154-0.14 0.136-0.279 0.272-0.416 0.411 0.248 0.359 0.366 0.959 0.907 0.939l-0.034-0.196c0.606 0.070 1.286 0.042 1.777 0.468 0.815 0.607 1.002 1.875 0.371 2.68-0.254 0.374-0.664 0.599-1.079 0.751 0.402-0.032 0.807-0.030 1.21-0.030l0.004 0.184c-3.225 0.001-6.451 0-9.678 0.001l-0.010-0.183c0.402-0.003 0.806-0.004 1.206 0.025-1.151-0.313-1.82-1.738-1.218-2.796 0.397-0.858 1.396-1.14 2.27-1.094 0.016 0.062 0.047 0.186 0.062 0.246 0.184-0.546 0.311-1.11 0.444-1.671M3.518 9.882c-0.057 0.461 0.405 0.754 0.782 0.887 0.014 0.047 0.044 0.141 0.058 0.188 0.467 0.406 0.909 0.842 1.398 1.219 0.407-0.147 0.222-0.641 0.287-0.973 0.025 0.317 0.038 0.633 0.067 0.948 0.577-0.65 0.763-1.544 1.214-2.277-1.269 0.010-2.538 0-3.808 0.006M7.34 9.959c-0.359 0.69-0.65 1.411-0.981 2.116 0.086 0.144 0.17 0.289 0.252 0.436 0.075 0.025 0.228 0.075 0.305 0.101 0.016-0.161 0.047-0.483 0.064-0.643 0.022 0.147 0.069 0.438 0.091 0.584 0.462-0.001 0.922 0.018 1.383-0.008 0.043-0.056 0.126-0.169 0.169-0.226-0.188-0.462-0.459-0.882-0.706-1.314-0.241 0.208-0.464 0.438-0.606 0.728-0.051-0.064-0.1-0.127-0.149-0.191 0.232-0.196 0.466-0.389 0.691-0.59-0.136-0.348-0.323-0.672-0.512-0.992M3.478 10.834c0.45 0.291 0.872 0.689 0.998 1.23 0.319 1.013-0.385 2.12-1.373 2.414 1.732-0.049 3.466-0.038 5.197-0.006-0.777-0.222-1.338-0.925-1.427-1.723-0.060 0.005-0.18 0.013-0.24 0.018-0.148 0.162-0.315 0.304-0.496 0.428-0.005 0.15-0.010 0.302-0.014 0.454 0.032 0.049 0.099 0.148 0.131 0.197-0.082 0.010-0.246 0.031-0.33 0.042 0.017-0.236 0.030-0.472 0.039-0.71-0.221-0.14-0.397-0.332-0.519-0.563 0.036-0.101 0.109-0.305 0.147-0.407-0.712-0.602-1.36-1.275-2.085-1.862-0.010 0.162-0.019 0.326-0.029 0.488M1.825 10.949c-0.762 0.327-1.177 1.245-0.965 2.039 0.204 0.983 1.367 1.628 2.307 1.256 0.678-0.218 1.105-0.878 1.201-1.561-0.502-0.004-1.004-0.010-1.506-0.027-0.054 0.054-0.163 0.166-0.218 0.222-0.074-0.031-0.223-0.093-0.298-0.126 0.004-0.113 0.006-0.226 0.010-0.339 0.149-0.026 0.298-0.049 0.449-0.071 0.202-0.463 0.367-0.941 0.488-1.431-0.475-0.144-1.009-0.189-1.467 0.038M7.995 10.975c0.226 0.413 0.453 0.824 0.677 1.238 0.169 0.032 0.339 0.066 0.507 0.102 0.413-0.204 0.81-0.438 1.183-0.708-0.283-0.282-0.575-0.582-0.965-0.708-0.455-0.175-0.956-0.080-1.402 0.077M3.361 10.938c-0.141 0.57-0.375 1.108-0.576 1.658 0.522 0.019 1.043 0.027 1.566 0.029 0.022-0.706-0.383-1.345-0.99-1.686M9.222 12.34c-0.045 0.179-0.005 0.41-0.162 0.542-0.147 0.065-0.31 0.038-0.464 0.047-0.035-0.078-0.105-0.232-0.14-0.31-0.47 0.008-0.939 0.005-1.408 0.008 0.025 1.142 1.252 2.069 2.344 1.642 1.064-0.313 1.54-1.657 0.994-2.602-0.376 0.245-0.763 0.474-1.164 0.673z"></path>
<path fill="#fff" d="M7.157 11.75c0.232 0.17-0.197 0.387-0.1 0.058l0.1-0.058z"></path>
<path fill="#fff" d="M23.174 24c0.309-0.096 0.573-0.291 0.762-0.553v0.553h-0.762z"></path>
<path fill="#fff" d="M0.065 23.75c0.184-0.075 0.348 0.091 0.406 0.25h-0.406v-0.25z"></path>
</svg>
