<!-- Generated by IcoMoon.io -->
<svg version="1.1" xmlns="http://www.w3.org/2000/svg" width="24" height="24" viewBox="0 0 24 24">
<title>regulatory--night-speed-limit-55--g1</title>
<path fill="#fff" d="M0.908 0h22.181c0.444 0.104 0.806 0.466 0.91 0.91v22.178c-0.103 0.445-0.466 0.807-0.91 0.913h-22.179c-0.443-0.104-0.805-0.465-0.911-0.908v-22.182c0.104-0.443 0.465-0.804 0.908-0.91M1.566 0.587c-0.558 0.059-1.007 0.584-0.991 1.143-0.001 6.846-0.001 13.693 0 20.539-0.007 0.443 0.264 0.875 0.671 1.052 0.269 0.129 0.574 0.102 0.863 0.103 6.609 0 13.219 0 19.828 0 0.285 0.002 0.587 0.018 0.848-0.118 0.39-0.185 0.645-0.607 0.639-1.038 0.001-6.846 0.001-13.693 0-20.539 0.006-0.431-0.248-0.853-0.639-1.038-0.261-0.136-0.563-0.12-0.848-0.118-6.609 0-13.219 0-19.828 0-0.181 0.002-0.363-0.009-0.543 0.012z"></path>
<path fill="#fff" d="M10.8 3.723c0.588-0.363 1.441-0.161 1.761 0.466-0.168 0.098-0.335 0.196-0.504 0.292-0.211-0.428-0.855-0.528-1.144-0.13-0.322 0.483-0.325 1.2 0.044 1.658 0.333 0.394 1.103 0.193 1.076-0.367-0.182-0.002-0.363-0-0.545-0.003-0.001-0.175-0-0.35-0-0.525 0.372-0 0.743 0.003 1.115-0.002 0.008 0.462 0.030 0.998-0.335 1.345-0.553 0.532-1.591 0.356-1.94-0.33-0.406-0.768-0.298-1.902 0.472-2.403z"></path>
<path fill="#fff" d="M4.661 3.614c0.181 0.001 0.363 0.001 0.544 0 0.438 0.683 0.888 1.358 1.316 2.046-0.004-0.682 0.002-1.365-0.003-2.047 0.186 0.003 0.372 0.003 0.558-0-0.005 1.035-0.002 2.071-0.001 3.107-0.168-0-0.337-0-0.504-0-0.45-0.701-0.923-1.388-1.356-2.1 0.015 0.699 0.003 1.4 0.007 2.1-0.186 0-0.372 0-0.558-0-0.001-1.035 0.001-2.070-0.001-3.105z"></path>
<path fill="#fff" d="M8.351 3.614c0.191 0.001 0.382 0.001 0.572 0-0.002 1.035 0 2.070-0.001 3.105-0.19 0-0.381 0.001-0.571-0.002-0.001-1.034-0-2.068 0-3.103z"></path>
<path fill="#fff" d="M13.74 3.612c0.188 0.004 0.375 0.003 0.563 0 0.001 0.413 0 0.827 0 1.241 0.436-0.001 0.872 0.002 1.309-0.002 0.013-0.412 0.015-0.826-0.001-1.238 0.185 0.002 0.37 0.001 0.555 0.001 0 1.034 0 2.069-0 3.103-0.183 0.003-0.366 0.001-0.549 0.003 0.009-0.441 0-0.881 0.005-1.322-0.439-0.023-0.879-0.006-1.318-0.011-0 0.444 0 0.888-0 1.332-0.188 0-0.375 0-0.562 0 0.001-1.035 0.004-2.071-0.002-3.107z"></path>
<path fill="#fff" d="M17.215 3.598c0.767-0.001 1.534-0 2.302-0 0 0.181 0 0.362 0 0.543-0.289 0-0.577 0-0.866 0 0 0.859 0 1.718 0 2.578-0.188 0.001-0.376 0-0.563 0-0.001-0.859 0-1.719-0-2.578-0.291 0-0.582 0-0.872-0-0.001-0.181-0.001-0.362 0-0.542z"></path>
<path fill="#fff" d="M3.839 9.563c2.049 0 4.098 0 6.148 0 0 0.606 0 1.213 0 1.819-1.467 0-2.933 0-4.4 0-0.054 0.746-0.108 1.492-0.162 2.238 1.416-0.751 3.411-0.553 4.456 0.733 0.926 1.17 1.015 2.9 0.336 4.208-0.391 0.743-1.070 1.313-1.846 1.622-0.898 0.366-1.896 0.4-2.847 0.268-0.837-0.121-1.671-0.414-2.325-0.965 0.355-0.495 0.712-0.99 1.070-1.483 0.688 0.494 1.537 0.755 2.385 0.708 0.799-0.003 1.652-0.421 1.951-1.2 0.286-0.75 0.187-1.77-0.529-2.246-0.859-0.517-2.061-0.288-2.71 0.466-0.616-0.263-1.236-0.52-1.853-0.782 0.108-1.796 0.211-3.592 0.325-5.387z"></path>
<path fill="#fff" d="M13.908 9.563c2.050 0 4.1-0 6.15 0 0 0.606 0 1.212-0 1.818-1.467 0.001-2.933 0-4.4 0-0.058 0.746-0.108 1.493-0.164 2.239 1.418-0.754 3.418-0.553 4.462 0.738 0.933 1.185 1.013 2.942 0.302 4.254-0.405 0.737-1.095 1.296-1.877 1.594-0.877 0.342-1.844 0.373-2.768 0.247-0.844-0.12-1.685-0.413-2.344-0.967 0.356-0.495 0.712-0.99 1.070-1.484 0.691 0.495 1.543 0.756 2.393 0.708 0.811-0.004 1.675-0.442 1.958-1.24 0.268-0.75 0.156-1.763-0.568-2.22-0.858-0.496-2.044-0.269-2.687 0.48-0.617-0.262-1.235-0.52-1.852-0.781 0.106-1.796 0.214-3.592 0.324-5.388z"></path>
<path fill="#000" d="M1.566 0.587c0.18-0.022 0.362-0.010 0.543-0.012 6.609 0 13.219 0 19.828-0 0.285-0.002 0.587-0.019 0.848 0.118 0.391 0.185 0.645 0.607 0.639 1.038 0.001 6.846 0.001 13.693 0 20.539 0.006 0.431-0.248 0.853-0.639 1.038-0.261 0.136-0.563 0.12-0.848 0.118-6.609-0-13.219-0-19.828-0-0.289-0.001-0.594 0.026-0.863-0.103-0.407-0.178-0.678-0.609-0.671-1.052-0.001-6.846-0.001-13.693 0-20.539-0.016-0.559 0.433-1.084 0.991-1.143M10.8 3.723c-0.77 0.501-0.878 1.635-0.472 2.403 0.349 0.686 1.387 0.862 1.94 0.33 0.364-0.347 0.342-0.883 0.335-1.345-0.372 0.005-0.743 0.002-1.115 0.002 0 0.175-0 0.35 0 0.525 0.181 0.003 0.363 0.001 0.545 0.003 0.027 0.561-0.743 0.762-1.076 0.367-0.369-0.458-0.366-1.176-0.044-1.658 0.29-0.398 0.933-0.298 1.144 0.13 0.169-0.096 0.336-0.193 0.504-0.292-0.319-0.627-1.173-0.829-1.761-0.466M4.661 3.614c0.002 1.035 0 2.070 0.001 3.105 0.186 0.001 0.372 0.001 0.558 0-0.004-0.7 0.008-1.4-0.007-2.1 0.434 0.711 0.906 1.399 1.356 2.1 0.168 0 0.336 0 0.504 0-0-1.036-0.004-2.071 0.001-3.107-0.186 0.004-0.372 0.003-0.558 0 0.006 0.683-0 1.365 0.003 2.047-0.428-0.688-0.878-1.364-1.316-2.046-0.181 0.001-0.362 0.001-0.544 0M8.351 3.614c-0 1.035-0.001 2.069 0 3.103 0.19 0.003 0.381 0.002 0.571 0.002 0.001-1.035-0.001-2.070 0.001-3.105-0.191 0.001-0.382 0.001-0.572 0M13.74 3.612c0.006 1.035 0.003 2.071 0.002 3.107 0.187-0 0.374 0 0.562-0 0.001-0.444 0-0.888 0-1.332 0.439 0.005 0.879-0.012 1.318 0.011-0.005 0.441 0.004 0.881-0.005 1.322 0.183-0.002 0.366-0 0.549-0.003 0.001-1.034 0-2.069 0-3.103-0.185 0-0.37 0.001-0.555-0.001 0.016 0.413 0.014 0.826 0.001 1.238-0.436 0.004-0.872 0-1.309 0.002-0-0.414 0-0.827-0-1.241-0.188 0.003-0.376 0.003-0.563-0M17.215 3.598c-0.001 0.18-0.001 0.361-0 0.542 0.291 0.001 0.581 0.001 0.872 0 0 0.859-0 1.719 0 2.578 0.188 0 0.375 0 0.563-0 0-0.859 0-1.718 0-2.578 0.289 0 0.577 0 0.866 0 0-0.181 0-0.362 0-0.543-0.767 0-1.534-0.001-2.302 0M3.839 9.563c-0.114 1.795-0.217 3.592-0.325 5.387 0.617 0.262 1.236 0.519 1.853 0.782 0.65-0.754 1.852-0.983 2.71-0.466 0.715 0.476 0.815 1.497 0.529 2.246-0.299 0.779-1.152 1.197-1.951 1.2-0.848 0.046-1.697-0.214-2.385-0.708-0.358 0.493-0.715 0.988-1.070 1.483 0.654 0.55 1.487 0.843 2.325 0.965 0.951 0.133 1.949 0.098 2.847-0.268 0.776-0.309 1.455-0.879 1.846-1.622 0.68-1.309 0.591-3.039-0.336-4.208-1.046-1.286-3.040-1.484-4.456-0.733 0.054-0.746 0.107-1.492 0.162-2.238 1.467 0 2.933 0 4.4 0 0-0.606 0-1.213 0-1.819-2.049 0-4.098 0-6.148 0M13.908 9.563c-0.11 1.796-0.217 3.592-0.324 5.388 0.617 0.261 1.236 0.519 1.852 0.781 0.643-0.749 1.829-0.976 2.687-0.48 0.723 0.457 0.836 1.47 0.568 2.22-0.283 0.798-1.147 1.236-1.958 1.24-0.851 0.047-1.702-0.213-2.393-0.708-0.358 0.494-0.714 0.989-1.070 1.484 0.659 0.555 1.5 0.847 2.344 0.967 0.923 0.126 1.891 0.095 2.768-0.247 0.782-0.298 1.472-0.856 1.877-1.594 0.71-1.313 0.63-3.069-0.302-4.254-1.044-1.291-3.044-1.492-4.462-0.738 0.056-0.746 0.105-1.493 0.164-2.239 1.467-0 2.933 0.001 4.4-0 0.001-0.606 0-1.212 0-1.818-2.050-0.001-4.1-0-6.15-0z"></path>
</svg>
