<!-- Generated by IcoMoon.io -->
<svg version="1.1" xmlns="http://www.w3.org/2000/svg" width="24" height="24" viewBox="0 0 24 24">
<title>regulatory--truck-speed-limit-20--g1</title>
<path fill="#fff" d="M0.907 0h22.184c0.443 0.105 0.803 0.466 0.909 0.908v22.18c-0.104 0.444-0.466 0.805-0.908 0.911h-22.182c-0.443-0.105-0.803-0.465-0.91-0.907v-22.185c0.105-0.442 0.465-0.802 0.907-0.908M1.566 0.587c-0.559 0.060-1.007 0.584-0.991 1.144-0.001 6.846-0.001 13.692 0 20.538-0.023 0.641 0.567 1.201 1.204 1.156 6.83-0.001 13.66 0.001 20.49-0.001 0.621 0.021 1.177-0.534 1.155-1.155 0.001-6.846 0.001-13.692 0-20.538 0.021-0.621-0.534-1.177-1.156-1.155-6.735-0.001-13.471-0-20.206-0-0.165 0.001-0.332-0.008-0.496 0.012z"></path>
<path fill="#fff" d="M2.080 1.192c0.149-0.024 0.3-0.015 0.451-0.017 6.408 0.001 12.815-0.001 19.223 0.001 0.57-0.007 1.076 0.5 1.069 1.070 0.001 6.502 0.001 13.005 0 19.508 0.006 0.57-0.5 1.075-1.069 1.070-6.502 0.002-13.005 0.002-19.508 0-0.57 0.006-1.077-0.5-1.069-1.070-0.001-6.503-0.001-13.005 0-19.508-0.004-0.509 0.398-0.981 0.903-1.054M13.025 3.979c-0.458 0.612-0.477 1.498-0.142 2.17 0.297 0.602 1.128 0.788 1.688 0.454 0.223-0.134 0.375-0.354 0.481-0.586-0.172-0.068-0.345-0.134-0.518-0.199-0.163 0.375-0.689 0.547-0.991 0.23-0.394-0.454-0.394-1.188-0.093-1.691 0.257-0.403 0.897-0.312 1.096 0.104 0.169-0.075 0.337-0.151 0.504-0.23-0.314-0.79-1.52-0.917-2.025-0.252M19.81 3.826c-0.329 0.292-0.333 0.871 0.007 1.156 0.341 0.304 0.839 0.311 1.199 0.579 0.235 0.174 0.123 0.576-0.154 0.632-0.364 0.123-0.759-0.1-0.901-0.444-0.174 0.064-0.348 0.126-0.52 0.196 0.235 0.806 1.344 1.074 1.971 0.561 0.397-0.326 0.412-1.019 0.009-1.346-0.33-0.284-0.783-0.331-1.153-0.54-0.179-0.091-0.171-0.382 0.011-0.465 0.282-0.136 0.673-0.042 0.809 0.257 0.169-0.055 0.337-0.111 0.504-0.171-0.203-0.743-1.256-0.887-1.782-0.415M2.215 3.598c-0.002 0.18-0.002 0.36-0.001 0.541 0.291 0.003 0.581 0 0.872 0.001 0.002 0.859-0.001 1.718 0.001 2.578 0.188 0.001 0.375 0.001 0.563-0 0.001-0.859-0.001-1.718 0-2.577 0.288-0.001 0.577 0.001 0.865-0.001 0.001-0.181 0.001-0.362 0-0.542-0.767-0.001-1.534-0.002-2.301 0M5.601 6.697c0.187 0.003 0.375 0.003 0.562 0.001 0.005-0.399 0-0.798 0.002-1.197 0.202-0.001 0.404-0.002 0.605 0.001 0.197 0.399 0.39 0.8 0.591 1.196 0.21 0 0.419 0.002 0.629-0.002-0.199-0.42-0.408-0.834-0.608-1.253 0.584-0.201 0.788-0.975 0.461-1.473-0.172-0.27-0.506-0.378-0.811-0.381-0.477-0.003-0.953-0.001-1.43-0.001-0.002 1.036-0.003 2.073 0 3.109M9.099 3.614c0 0.64-0 1.279 0 1.919 0.003 0.354 0.097 0.739 0.382 0.973 0.416 0.324 1.031 0.334 1.497 0.112 0.363-0.183 0.535-0.6 0.544-0.989 0.007-0.672-0.002-1.345 0.004-2.017-0.188 0.002-0.375 0.002-0.562 0-0.003 0.641 0.003 1.282-0.002 1.923-0.008 0.224-0.054 0.494-0.274 0.607-0.233 0.107-0.519 0.108-0.752 0-0.22-0.113-0.269-0.384-0.269-0.609-0.003-0.64 0-1.28-0.001-1.92-0.189 0.001-0.378 0.001-0.568 0M16.137 3.614c0.003 1.035 0 2.070 0.002 3.104 0.188 0.002 0.375 0.002 0.563 0 0.013-0.293-0.020-0.591 0.015-0.881 0.165-0.22 0.349-0.426 0.518-0.643 0.27 0.509 0.54 1.017 0.812 1.524 0.218 0.001 0.436 0.001 0.655-0.001-0.362-0.666-0.724-1.331-1.088-1.996 0.288-0.375 0.592-0.736 0.881-1.11-0.222 0.004-0.444 0.003-0.666 0.003-0.372 0.478-0.749 0.952-1.125 1.427-0.001-0.476 0-0.952-0.001-1.429-0.188 0.002-0.377 0.002-0.566 0M2.998 11.713c0.566 0.26 1.132 0.518 1.699 0.775 0.194-0.444 0.496-0.863 0.936-1.090 0.661-0.325 1.529-0.349 2.143 0.094 0.593 0.43 0.668 1.342 0.242 1.915-0.458 0.639-1.217 0.928-1.867 1.322-1.133 0.673-2.152 1.609-2.723 2.814-0.419 0.865-0.595 1.833-0.59 2.79 2.483-0 4.967 0.003 7.451-0.002 0.004-0.61 0.004-1.221 0-1.831-1.729-0.002-3.457 0-5.186-0.001 0.183-0.663 0.643-1.21 1.178-1.625 0.817-0.652 1.808-1.035 2.626-1.686 0.508-0.396 0.939-0.918 1.132-1.541 0.351-1.138 0.135-2.502-0.747-3.346-0.823-0.8-2.042-1.039-3.152-0.915-1.362 0.142-2.644 1.034-3.141 2.326M16.515 9.392c-0.9 0.106-1.737 0.608-2.258 1.349-0.952 1.361-1.125 3.098-1.074 4.715 0.077 1.493 0.402 3.12 1.524 4.195 1.13 1.048 2.976 1.143 4.274 0.36 0.664-0.416 1.135-1.081 1.432-1.796 0.43-1.029 0.56-2.155 0.574-3.262-0.012-1.168-0.147-2.362-0.63-3.437-0.315-0.706-0.817-1.35-1.501-1.73-0.705-0.4-1.547-0.49-2.342-0.394z"></path>
<path fill="#fff" d="M6.165 4.122c0.315 0.009 0.633-0.022 0.946 0.017 0.392 0.053 0.412 0.715 0.030 0.799-0.322 0.046-0.652 0.009-0.976 0.021-0.001-0.279-0.001-0.558 0-0.837z"></path>
<path fill="#fff" d="M16.755 11.19c0.688-0.154 1.421 0.204 1.746 0.824 0.385 0.676 0.503 1.465 0.558 2.231 0.049 0.9 0.022 1.816-0.199 2.695-0.132 0.494-0.329 0.995-0.705 1.356-0.563 0.56-1.579 0.563-2.142 0.002-0.376-0.36-0.572-0.863-0.703-1.357-0.207-0.832-0.24-1.698-0.206-2.552 0.049-0.791 0.151-1.605 0.528-2.314 0.228-0.434 0.629-0.8 1.123-0.885z"></path>
<path fill="#000" d="M1.566 0.587c0.165-0.020 0.331-0.011 0.496-0.012 6.735 0 13.471-0.001 20.206 0 0.622-0.022 1.177 0.535 1.156 1.155 0.001 6.846 0.001 13.692-0 20.538 0.021 0.621-0.534 1.177-1.155 1.155-6.83 0.002-13.659-0-20.49 0.001-0.637 0.045-1.227-0.516-1.204-1.156-0.001-6.846-0.001-13.692 0-20.538-0.016-0.56 0.432-1.084 0.991-1.144M2.080 1.192c-0.505 0.073-0.907 0.545-0.903 1.054-0.001 6.502-0.001 13.005 0 19.508-0.008 0.57 0.5 1.075 1.069 1.070 6.502 0.002 13.005 0.002 19.508 0 0.57 0.006 1.075-0.5 1.069-1.070 0.001-6.503 0.001-13.005 0-19.508 0.007-0.57-0.499-1.076-1.069-1.070-6.407-0.003-12.815 0-19.223-0.001-0.15 0.001-0.302-0.007-0.451 0.017z"></path>
<path fill="#000" d="M13.025 3.979c0.505-0.665 1.711-0.538 2.025 0.252-0.167 0.079-0.335 0.155-0.504 0.23-0.199-0.416-0.839-0.507-1.096-0.104-0.3 0.503-0.3 1.237 0.093 1.691 0.302 0.317 0.828 0.145 0.991-0.23 0.173 0.065 0.346 0.131 0.518 0.199-0.106 0.232-0.258 0.452-0.481 0.586-0.56 0.333-1.391 0.148-1.688-0.454-0.335-0.672-0.316-1.558 0.142-2.17z"></path>
<path fill="#000" d="M19.81 3.826c0.526-0.473 1.579-0.328 1.782 0.415-0.167 0.060-0.335 0.116-0.504 0.171-0.136-0.299-0.526-0.393-0.809-0.257-0.182 0.084-0.19 0.374-0.011 0.465 0.369 0.21 0.822 0.256 1.153 0.54 0.403 0.327 0.387 1.020-0.009 1.346-0.627 0.514-1.736 0.246-1.971-0.561 0.172-0.070 0.346-0.132 0.52-0.196 0.142 0.344 0.537 0.567 0.901 0.444 0.277-0.057 0.389-0.458 0.154-0.632-0.36-0.268-0.857-0.276-1.199-0.579-0.34-0.285-0.336-0.865-0.007-1.156z"></path>
<path fill="#000" d="M2.215 3.598c0.767-0.002 1.534-0.001 2.301-0 0.001 0.18 0.001 0.361 0 0.542-0.288 0.002-0.577-0-0.865 0.001-0.001 0.859 0 1.718-0 2.577-0.188 0.002-0.375 0.002-0.563 0-0.002-0.859 0-1.718-0.001-2.578-0.291-0.001-0.581 0.002-0.872-0.001-0.001-0.18-0.001-0.36 0.001-0.541z"></path>
<path fill="#000" d="M5.601 6.697c-0.003-1.036-0.002-2.072 0-3.109 0.477 0 0.953-0.002 1.43 0.001 0.306 0.003 0.64 0.112 0.811 0.381 0.327 0.498 0.122 1.272-0.461 1.473 0.2 0.419 0.409 0.834 0.608 1.253-0.21 0.004-0.419 0.002-0.629 0.002-0.201-0.397-0.394-0.797-0.591-1.196-0.202-0.003-0.404-0.002-0.605-0.001-0.002 0.399 0.003 0.798-0.002 1.197-0.187 0.002-0.375 0.002-0.562-0.001M6.165 4.122c-0.001 0.279-0.001 0.558 0 0.837 0.325-0.012 0.654 0.025 0.976-0.021 0.382-0.084 0.362-0.746-0.030-0.799-0.313-0.039-0.631-0.008-0.946-0.017z"></path>
<path fill="#000" d="M9.099 3.614c0.189 0 0.379 0 0.568-0 0.001 0.64-0.002 1.28 0.001 1.92 0 0.225 0.049 0.496 0.269 0.609 0.232 0.108 0.519 0.107 0.752 0 0.22-0.113 0.266-0.383 0.274-0.607 0.005-0.641-0-1.282 0.002-1.923 0.187 0.002 0.374 0.002 0.562 0-0.007 0.672 0.002 1.345-0.004 2.017-0.009 0.389-0.181 0.805-0.544 0.989-0.465 0.222-1.080 0.212-1.497-0.112-0.285-0.234-0.379-0.619-0.382-0.973-0.001-0.639 0-1.279-0-1.919z"></path>
<path fill="#000" d="M16.137 3.614c0.189 0.001 0.377 0.001 0.566-0 0.001 0.476-0 0.953 0.001 1.429 0.376-0.475 0.754-0.949 1.125-1.427 0.222-0 0.444 0.001 0.666-0.003-0.289 0.374-0.593 0.735-0.881 1.11 0.364 0.665 0.726 1.33 1.088 1.996-0.218 0.002-0.437 0.002-0.655 0.001-0.272-0.507-0.542-1.016-0.812-1.524-0.169 0.217-0.353 0.423-0.518 0.643-0.035 0.29-0.002 0.588-0.015 0.881-0.188 0.002-0.376 0.002-0.563 0-0.001-1.035 0.001-2.069-0.002-3.104z"></path>
<path fill="#000" d="M2.998 11.713c0.497-1.292 1.779-2.185 3.141-2.326 1.11-0.124 2.329 0.116 3.152 0.915 0.883 0.844 1.098 2.208 0.747 3.346-0.192 0.623-0.623 1.145-1.132 1.541-0.817 0.65-1.809 1.034-2.626 1.686-0.535 0.415-0.994 0.961-1.178 1.625 1.729 0.001 3.457-0.001 5.186 0.001 0.004 0.61 0.004 1.221 0 1.831-2.484 0.005-4.967 0.001-7.451 0.002-0.006-0.957 0.171-1.925 0.59-2.79 0.57-1.206 1.59-2.141 2.723-2.814 0.649-0.395 1.409-0.683 1.867-1.322 0.426-0.572 0.351-1.485-0.242-1.915-0.614-0.443-1.481-0.42-2.143-0.094-0.44 0.227-0.742 0.646-0.936 1.090-0.567-0.257-1.133-0.515-1.699-0.775z"></path>
<path fill="#000" d="M16.515 9.392c0.795-0.096 1.636-0.006 2.342 0.394 0.683 0.379 1.185 1.024 1.501 1.73 0.484 1.075 0.619 2.269 0.63 3.437-0.015 1.107-0.144 2.233-0.574 3.262-0.297 0.715-0.769 1.38-1.432 1.796-1.298 0.784-3.144 0.688-4.274-0.36-1.123-1.075-1.447-2.702-1.524-4.195-0.051-1.617 0.122-3.354 1.074-4.715 0.521-0.741 1.357-1.243 2.257-1.349M16.755 11.19c-0.495 0.084-0.895 0.451-1.123 0.885-0.377 0.709-0.479 1.523-0.528 2.314-0.035 0.854-0.001 1.719 0.206 2.552 0.131 0.494 0.327 0.997 0.703 1.358 0.563 0.561 1.579 0.557 2.142-0.002 0.376-0.36 0.574-0.862 0.705-1.356 0.221-0.878 0.248-1.794 0.199-2.695-0.055-0.766-0.173-1.555-0.558-2.231-0.325-0.62-1.058-0.978-1.746-0.824z"></path>
</svg>
