<?xml version="1.0" encoding="utf-8"?>
<!-- Generated by IcoMoon.io -->
<!DOCTYPE svg PUBLIC "-//W3C//DTD SVG 1.1//EN" "http://www.w3.org/Graphics/SVG/1.1/DTD/svg11.dtd">
<svg version="1.1" xmlns="http://www.w3.org/2000/svg" xmlns:xlink="http://www.w3.org/1999/xlink" width="24" height="24" viewBox="0 0 24 24">
<path fill="#fff" d="M0 12c0-6.628 5.371-12 12-12s11.999 5.372 11.999 12-5.371 12-11.999 12c-6.629 0-12-5.372-12-12z"></path>
<path fill="#ed171f" d="M12 20.899c4.925 0 8.919-3.993 8.919-8.899 0-4.926-3.993-8.919-8.919-8.919-4.906 0-8.899 3.993-8.899 8.919 0 4.906 3.993 8.899 8.899 8.899zM0 12c0-6.628 5.372-12 12-12s12 5.372 12 12c0 6.628-5.372 12-12 12s-12-5.372-12-12z"></path>
<path fill="#000" d="M16.113 16.908h0.815l-0.123-0.61c0-0.041 0-0.082 0.041-0.102 0.020-0.021 0.061 0 0.101 0.021l1.365 0.978c0.041 0.019 0.061 0.061 0.061 0.081s-0.020 0.061-0.061 0.082l-1.365 0.957c-0.041 0.040-0.081 0.040-0.101 0.020-0.041-0.020-0.041-0.041-0.041-0.081l0.123-0.632h-0.815v-0.713zM7.926 16.908h-0.815l0.122-0.61c0.021-0.041 0.021-0.082-0.020-0.102s-0.061 0-0.102 0.021l-1.364 0.978c-0.041 0.019-0.061 0.061-0.061 0.081s0.020 0.061 0.061 0.082l1.364 0.957c0.041 0.040 0.061 0.040 0.102 0.020s0.041-0.041 0.020-0.081l-0.122-0.632h0.815v-0.713zM9.678 16.256v2.016h-0.428v-1.527h-0.325v-0.305h0.101c0.123 0 0.224-0.082 0.224-0.184h0.428zM11.144 16.602c0.244 0 0.448 0.163 0.448 0.693 0 0.265-0.061 0.713-0.448 0.713-0.366 0-0.428-0.448-0.428-0.713 0-0.53 0.244-0.693 0.428-0.693zM11.144 18.334c0.632 0 0.855-0.489 0.855-1.039s-0.224-1.1-0.855-1.1c-0.611 0-0.815 0.55-0.815 1.1s0.204 1.039 0.815 1.039zM12.916 16.745h0.346v0.143c0.204-0.224 0.57-0.224 0.753 0 0.306-0.326 0.917-0.184 0.958 0.285v1.1h-0.408v-1.018c0-0.184-0.203-0.224-0.366-0.123-0.021 0.041-0.021 0.123-0.021 0.204v0.937h-0.407v-0.937c0-0.448-0.448-0.265-0.448 0v0.937h-0.408v-1.527z"></path>
<path fill="#000" d="M9.637 11.98c-0.081 0-0.163-0.061-0.163-0.163v-5.132c0-0.102 0.081-0.183 0.163-0.183h8.492c0.102 0 0.183 0.081 0.183 0.183v5.132c0 0.101-0.081 0.163-0.183 0.163h-8.492zM13.343 14.525c-0.59 0-1.099-0.488-1.099-1.1s0.509-1.099 1.099-1.099c0.611 0 1.1 0.488 1.1 1.099s-0.489 1.1-1.1 1.1zM15.93 14.525c-0.611 0-1.099-0.488-1.099-1.1s0.488-1.099 1.099-1.099c0.59 0 1.1 0.488 1.1 1.099s-0.51 1.1-1.1 1.1zM7.987 14.525c0.611 0 1.1-0.488 1.1-1.079 0-0.611-0.489-1.1-1.1-1.1s-1.1 0.489-1.1 1.1c0 0.591 0.489 1.079 1.1 1.079zM9.576 13.426c-0.061 0-0.101-0.041-0.101-0.101v-0.917c0-0.041 0.040-0.081 0.101-0.081h2.322c0.041 0 0.081 0.041 0.081 0.081v0.917c0 0.061-0.041 0.101-0.081 0.101h-2.322zM8.15 10.208c0.061 0 0.102-0.061 0.102-0.102v-1.588c0-0.061-0.041-0.081-0.082-0.081h-1.446c-0.061 0-0.101 0.041-0.101 0.081l-0.407 1.588c-0.021 0.041 0.020 0.102 0.081 0.102h1.853zM8.069 11.98c-0.203 0-0.306 0.021-0.448 0.041-0.305 0.041-0.529 0.183-0.712 0.387-0.244 0.244-0.367 0.611-0.367 0.998h-0.428c-0.265 0-0.366-0.183-0.366-0.387v-2.81c0-0.082 0.021-0.143 0.021-0.143l0.488-1.894c0.041-0.143 0.163-0.224 0.306-0.224h2.322c0.101 0 0.183 0.081 0.183 0.163v3.707c0 0.101-0.082 0.163-0.183 0.163h-0.815z"></path>
</svg>
