<!-- Generated by IcoMoon.io -->
<svg version="1.1" xmlns="http://www.w3.org/2000/svg" width="24" height="24" viewBox="0 0 24 24">
<title>regulatory--no-overtaking--g6</title>
<path fill="#bc4939" d="M10.583 0h2.834c3.3 0.479 6.48 2.217 8.378 5.001 1.216 1.629 1.876 3.592 2.204 5.581v2.841c-0.477 3.269-2.188 6.417-4.926 8.32-1.65 1.242-3.638 1.926-5.66 2.258h-2.83c-3.27-0.476-6.422-2.184-8.325-4.926-1.244-1.647-1.928-3.637-2.259-5.658v-2.834c0.333-2.020 1.015-4.009 2.258-5.657 1.905-2.74 5.055-4.45 8.325-4.924M3.344 7.152c-1.119 2.006-1.488 4.417-1.032 6.667 0.804 4.18 4.526 7.723 8.819 8.019 0.005-0.78 0-1.561 0.008-2.34 0.611 0.364 1.225 0.721 1.849 1.064-0.023-0.654 0.121-1.345-0.061-1.976-0.564-0.418-1.224-0.683-1.83-1.035 0.066-2.272 0.075-4.554-0.003-6.825 0.687-0.377 1.352-0.789 2.013-1.209 0.015 1.208-0.032 2.415 0.028 3.622-0.335 0.417-0.785 0.757-1.016 1.247-0.086 0.705-0.011 1.418-0.016 2.127 0.344-0.385 0.674-0.783 1.003-1.182 0.009 2.169-0.009 4.338 0 6.507 1.778-0.14 3.457-0.893 4.875-1.95 3.050-2.26 4.551-6.323 3.79-10.032-0.738-4.163-4.439-7.583-8.659-7.935 0.001 0.815-0.024 1.632 0.023 2.446-0.328 0.42-0.791 0.752-1.012 1.244-0.083 0.682-0.013 1.373-0.019 2.058 0.344-0.363 0.67-0.74 0.997-1.119-0.004 0.414 0.013 0.829 0.050 1.242-0.674 0.378-1.343 0.762-2.014 1.147 0.003-2.337 0.011-4.673-0.005-7.008-3.265 0.249-6.253 2.362-7.787 5.223z"></path>
<path fill="#fff" d="M3.344 7.152c1.534-2.861 4.522-4.974 7.787-5.223 0.017 2.335 0.008 4.672 0.005 7.008-1.004 0.575-2.025 1.124-3.020 1.716-0.503 0.277-0.817 0.83-0.799 1.404-0.001 1.486-0.011 2.974-0.001 4.46-0.018 0.443 0.23 0.853 0.613 1.068 1.065 0.644 2.141 1.272 3.209 1.912-0.008 0.78-0.003 1.561-0.008 2.34-4.293-0.296-8.015-3.839-8.819-8.019-0.456-2.25-0.086-4.66 1.032-6.667z"></path>
<path fill="#fff" d="M13.111 1.919c4.22 0.352 7.921 3.773 8.659 7.935 0.761 3.709-0.74 7.771-3.79 10.032-1.418 1.058-3.097 1.811-4.875 1.95-0.009-2.169 0.009-4.338 0-6.507 0.103-0.124 0.206-0.248 0.31-0.371 0.027 1.216 0.009 2.433 0.010 3.65 0.46 0.001 0.919 0.004 1.379 0.004 0-1.224-0.010-2.448 0.018-3.672 0.467 0.504 0.912 1.029 1.374 1.538-0.102-0.884 0.342-1.992-0.414-2.674-0.541-0.61-1.055-1.242-1.58-1.864-0.366 0.391-0.715 0.796-1.068 1.199-0.060-1.206-0.013-2.414-0.028-3.622 0.546-0.4 1.332-0.577 1.643-1.224 0.136-0.716 0.024-1.455 0.074-2.18 0.471 0.508 0.935 1.022 1.38 1.553-0.104-0.872 0.326-1.956-0.408-2.635-0.543-0.611-1.059-1.246-1.583-1.872-0.371 0.392-0.729 0.796-1.078 1.206-0.047-0.814-0.022-1.63-0.023-2.446z"></path>
<path fill="#fff" d="M13.1 6.549c0.13-0.149 0.258-0.296 0.39-0.441 0.013 0.495 0.016 0.992 0.010 1.487-0.088 0.050-0.263 0.147-0.35 0.196-0.037-0.413-0.053-0.828-0.050-1.242z"></path>
<path fill="#fff" d="M8.785 12.946c-0.136-1.33 1.479-1.585 2.309-2.221 0.077 2.272 0.069 4.554 0.003 6.825-0.754-0.513-1.844-0.738-2.245-1.629-0.143-0.982-0.028-1.985-0.066-2.975z"></path>
<path fill="#1e2229" d="M13.134 4.364c0.349-0.41 0.707-0.814 1.078-1.206 0.524 0.626 1.040 1.261 1.583 1.872 0.734 0.679 0.303 1.763 0.408 2.635-0.446-0.531-0.909-1.045-1.38-1.553-0.050 0.725 0.062 1.464-0.074 2.18-0.311 0.648-1.097 0.824-1.643 1.224-0.66 0.42-1.326 0.832-2.013 1.209-0.829 0.636-2.444 0.891-2.309 2.221 0.038 0.99-0.077 1.994 0.066 2.975 0.401 0.891 1.491 1.116 2.245 1.629 0.606 0.352 1.266 0.617 1.83 1.035 0.182 0.631 0.038 1.322 0.061 1.976-0.623-0.343-1.238-0.7-1.849-1.064-1.068-0.64-2.144-1.269-3.209-1.912-0.383-0.215-0.631-0.625-0.613-1.068-0.010-1.486 0-2.974 0.001-4.46-0.018-0.574 0.296-1.128 0.799-1.404 0.994-0.592 2.015-1.14 3.020-1.716 0.67-0.385 1.34-0.768 2.014-1.147 0.088-0.048 0.263-0.146 0.35-0.196 0.006-0.495 0.003-0.992-0.010-1.487-0.132 0.145-0.26 0.292-0.39 0.441-0.326 0.378-0.653 0.756-0.997 1.119 0.006-0.686-0.063-1.377 0.019-2.058 0.221-0.493 0.684-0.824 1.012-1.244z"></path>
<path fill="#1d2126" d="M13.134 13.138c0.353-0.403 0.702-0.808 1.068-1.199 0.524 0.622 1.039 1.255 1.58 1.864 0.756 0.682 0.312 1.79 0.414 2.674-0.462-0.509-0.907-1.034-1.374-1.538-0.028 1.224-0.018 2.448-0.018 3.672-0.46 0-0.919-0.003-1.379-0.004-0.001-1.216 0.016-2.433-0.010-3.65-0.104 0.123-0.207 0.246-0.31 0.371-0.329 0.399-0.659 0.797-1.003 1.182 0.005-0.709-0.070-1.422 0.017-2.127 0.231-0.49 0.681-0.83 1.016-1.247z"></path>
</svg>
