<?xml version="1.0" encoding="utf-8"?>
<!-- Generated by IcoMoon.io -->
<!DOCTYPE svg PUBLIC "-//W3C//DTD SVG 1.1//EN" "http://www.w3.org/Graphics/SVG/1.1/DTD/svg11.dtd">
<svg version="1.1" xmlns="http://www.w3.org/2000/svg" xmlns:xlink="http://www.w3.org/1999/xlink" width="24" height="24" viewBox="0 0 24 24">
<path fill="#03559b" d="M10.915 0h1.995c2.676 0.213 5.275 1.328 7.24 3.163 2.222 2.026 3.608 4.911 3.85 7.905v1.846c-0.214 2.677-1.33 5.277-3.167 7.243-2.024 2.218-4.906 3.601-7.895 3.844h-1.972c-2.567-0.255-5.063-1.297-6.979-3.038-2.299-2.031-3.74-4.971-3.987-8.027v-1.967c0.285-3.019 1.706-5.919 3.985-7.93 1.904-1.732 4.38-2.765 6.93-3.039M10.423 5.44c-1.643 0.025-3.287 0.001-4.932 0.008-0.385-0.001-0.764 0.085-1.137 0.178 0.049 0.107 0.097 0.215 0.147 0.324-0.499 0.974-0.606 2.112-0.311 3.164 0.653 0.001 1.306 0 1.958 0 0.067-0.631 0.584-1.226 1.26-1.148 0.613 0.026 1.001 0.584 1.075 1.148 1.867 0.003 3.732-0.003 5.598 0.003 0.075-0.581 0.516-1.152 1.147-1.14 0.632-0.023 1.096 0.546 1.157 1.138 1.157 0.015 2.316 0.005 3.466-0.149-0.040-0.997 0.159-2.059-0.343-2.976 0.053-0.064 0.16-0.195 0.214-0.259-0.421-0.192-0.879-0.296-1.344-0.284-1.975 0.005-3.95 0-5.925 0.004-0.056-0.041-0.169-0.122-0.225-0.163-0.608-0.030-1.218-0.016-1.806 0.152M7.049 8.432c-0.47 0.174-0.592 0.867-0.199 1.184 0.385 0.376 1.108 0.112 1.166-0.421 0.104-0.518-0.488-0.989-0.967-0.763M14.999 8.419c-0.499 0.159-0.634 0.891-0.213 1.208 0.389 0.363 1.097 0.088 1.151-0.437 0.097-0.503-0.462-0.967-0.938-0.771M12.677 13.008c0.512 0.325 1.020 0.657 1.543 0.968-0.635-0.027-1.249 0.166-1.882 0.136-2.357 0.005-4.714 0.023-7.070 0.023-0.001 0.078-0.005 0.237-0.008 0.317 0.060 0.004 0.178 0.014 0.239 0.019-0.337 0.715-0.752 1.445-0.708 2.264 0.044 0.335-0.129 0.808 0.233 1.005 0.163 0.139 0.377 0.18 0.587 0.171 3.888-0.003 7.776-0.001 11.664-0.001 0.614-0.023 1.314 0.148 1.803-0.331-0.018-0.583 0.069-1.181-0.108-1.746-0.149-0.476-0.381-0.917-0.592-1.367l0.237-0.011c0-0.080 0-0.241 0-0.321-0.872 0-1.744-0.001-2.617 0.001-0.049-0.037-0.145-0.11-0.195-0.147-0.302-0.001-0.605-0.001-0.908-0.003 0.514-0.326 1.029-0.65 1.541-0.978-0.619-0.414-1.243-0.82-1.867-1.226-0.632 0.407-1.266 0.812-1.894 1.225M6.010 18.188c0.1 0.236 0.165 0.557 0.459 0.624 0.337 0.18 0.606-0.148 0.849-0.329 0.477-0.008 0.955-0.008 1.43 0.001 0.239 0.181 0.501 0.501 0.834 0.331 0.302-0.063 0.373-0.385 0.47-0.629-1.347-0.014-2.696-0.016-4.043 0.003M13.828 18.188c0.1 0.236 0.165 0.554 0.455 0.623 0.341 0.177 0.61-0.143 0.854-0.329 0.477-0.007 0.955-0.007 1.432 0.003 0.237 0.189 0.501 0.499 0.838 0.329 0.298-0.067 0.365-0.387 0.465-0.628-1.348-0.014-2.696-0.016-4.044 0.003z"></path>
<path fill="#03559b" d="M4.708 5.909c0.37-0.139 0.784-0.091 1.167-0.032 0.114 0.457 0.048 0.933 0.062 1.397-0.014 0.494 0.048 0.994-0.053 1.481-0.361 0.062-0.732 0.059-1.096 0.019-0.187-0.177-0.097-0.459-0.123-0.686 0.025-0.727-0.047-1.459 0.044-2.181z"></path>
<path fill="#03559b" d="M6.199 5.856c0.414-0.027 0.828-0.025 1.241-0.015 0.022 0.454 0.025 0.909 0.001 1.363-0.41-0.021-0.841 0.069-1.237-0.059-0.036-0.429-0.015-0.86-0.005-1.289z"></path>
<path fill="#03559b" d="M7.716 5.859c0.89-0.045 1.784-0.037 2.676-0.005 0.005 0.448 0.005 0.897-0.007 1.344-0.885 0.014-1.769 0.011-2.655 0.003-0.025-0.447-0.019-0.894-0.014-1.341z"></path>
<path fill="#03559b" d="M10.659 5.855c0.893-0.037 1.786-0.029 2.678-0.007 0.018 0.451 0.022 0.902-0.005 1.354-0.868-0.008-1.738 0.034-2.604-0.016-0.177-0.399-0.043-0.894-0.069-1.33z"></path>
<path fill="#03559b" d="M13.613 5.857c0.857-0.033 1.718-0.048 2.576-0.004 0.221 0.385 0.062 0.908 0.085 1.347-0.883 0.010-1.768 0.007-2.651 0.001-0.023-0.447-0.016-0.896-0.010-1.344z"></path>
<path fill="#03559b" d="M16.563 5.842c0.78-0.014 1.562-0.016 2.344 0.001 0.193 0.437 0.379 0.883 0.49 1.351-0.95 0.015-1.901 0.022-2.851-0.004-0.004-0.45-0.005-0.9 0.018-1.348z"></path>
<path fill="#03559b" d="M12.928 12.99c0.542-0.35 1.083-0.701 1.635-1.038 0.539 0.34 1.071 0.688 1.603 1.037-0.547 0.325-1.051 0.731-1.627 1.005-0.564-0.291-1.072-0.675-1.611-1.004z"></path>
<path fill="#03559b" d="M5.745 14.504c0.177-0.047 0.361-0.049 0.542-0.067 0.038 0.684 0.029 1.37 0.011 2.056-0.318-0.012-0.634-0.040-0.949-0.077-0.073-0.169-0.148-0.337-0.199-0.513 0.125-0.492 0.339-0.963 0.595-1.399z"></path>
<path fill="#03559b" d="M6.553 14.473c0.44-0.018 0.883-0.045 1.322 0.007 0.103 1.023 0.025 2.060 0.034 3.087-0.45 0.019-0.9 0.016-1.351 0.010-0.019-1.035-0.011-2.069-0.005-3.104z"></path>
<path fill="#03559b" d="M8.171 14.481c0.775-0.060 1.554-0.019 2.33-0.015 0.003 0.647 0.040 1.299-0.011 1.945-0.739 0.176-1.555 0.026-2.323 0.073-0.048-0.665-0.088-1.341 0.004-2.002z"></path>
<path fill="#03559b" d="M10.762 14.464c0.784-0.016 1.57-0.015 2.355-0.001 0.025 0.668 0.023 1.336 0.003 2.004-0.765 0.019-1.532 0.043-2.297-0.001-0.17-0.636-0.037-1.339-0.060-2.001z"></path>
<path fill="#03559b" d="M13.38 14.466c0.769-0.005 1.541-0.044 2.311 0.011 0.132 0.634 0.069 1.307 0.032 1.952-0.767 0.13-1.558 0.025-2.334 0.051-0.027-0.671-0.022-1.341-0.008-2.013z"></path>
<path fill="#03559b" d="M15.999 14.482c0.44-0.058 0.886-0.026 1.329-0.011 0.005 1.035 0.018 2.071-0.008 3.106-0.45 0.005-0.901 0.010-1.351-0.015 0.010-1.027-0.058-2.059 0.030-3.080z"></path>
<path fill="#03559b" d="M17.575 14.477c0.182-0.010 0.365-0.019 0.547-0.026 0.208 0.421 0.427 0.842 0.572 1.291 0.095 0.24-0.089 0.464-0.17 0.677-0.313 0.034-0.627 0.062-0.942 0.074-0.019-0.672-0.014-1.344-0.007-2.016z"></path>
<path fill="#fff" d="M10.423 5.44c0.588-0.169 1.199-0.182 1.806-0.152 0.056 0.041 0.169 0.122 0.225 0.163 1.975-0.004 3.95 0.001 5.925-0.004 0.465-0.012 0.923 0.092 1.344 0.284-0.053 0.064-0.16 0.195-0.214 0.259 0.502 0.917 0.303 1.979 0.343 2.976-1.149 0.155-2.308 0.165-3.466 0.149-0.062-0.592-0.525-1.162-1.157-1.138-0.631-0.012-1.071 0.558-1.147 1.14-1.867-0.005-3.732 0-5.598-0.003-0.074-0.564-0.462-1.122-1.075-1.148-0.676-0.078-1.193 0.517-1.26 1.148-0.653 0-1.306 0.001-1.958 0-0.295-1.052-0.188-2.19 0.311-3.164-0.049-0.108-0.097-0.217-0.147-0.324 0.373-0.093 0.752-0.18 1.137-0.178 1.644-0.007 3.289 0.016 4.932-0.008M4.708 5.909c-0.091 0.721-0.019 1.454-0.044 2.181 0.026 0.226-0.063 0.509 0.123 0.686 0.363 0.040 0.735 0.043 1.096-0.019 0.101-0.487 0.040-0.987 0.053-1.481-0.014-0.465 0.052-0.941-0.062-1.397-0.383-0.059-0.797-0.107-1.167 0.032M6.199 5.856c-0.010 0.429-0.030 0.86 0.005 1.289 0.396 0.128 0.827 0.038 1.237 0.059 0.023-0.454 0.021-0.909-0.001-1.363-0.413-0.010-0.827-0.012-1.241 0.015M7.716 5.859c-0.005 0.447-0.011 0.894 0.014 1.341 0.886 0.008 1.771 0.011 2.655-0.003 0.012-0.447 0.012-0.896 0.007-1.344-0.891-0.032-1.786-0.040-2.676 0.005M10.659 5.855c0.026 0.436-0.108 0.931 0.069 1.33 0.867 0.051 1.736 0.008 2.604 0.016 0.027-0.451 0.023-0.902 0.005-1.354-0.893-0.022-1.786-0.030-2.678 0.007M13.613 5.857c-0.007 0.448-0.014 0.897 0.010 1.344 0.883 0.005 1.768 0.008 2.651-0.001-0.023-0.439 0.136-0.961-0.085-1.347-0.857-0.044-1.718-0.029-2.576 0.004M16.563 5.842c-0.023 0.448-0.022 0.898-0.018 1.348 0.95 0.026 1.901 0.019 2.851 0.004-0.111-0.468-0.296-0.913-0.49-1.351-0.782-0.018-1.563-0.015-2.344-0.001z"></path>
<path fill="#fff" d="M7.049 8.432c0.479-0.226 1.071 0.244 0.967 0.763-0.058 0.533-0.78 0.797-1.166 0.421-0.394-0.317-0.272-1.009 0.199-1.184z"></path>
<path fill="#fff" d="M14.999 8.419c0.476-0.196 1.035 0.267 0.938 0.771-0.053 0.525-0.761 0.801-1.151 0.437-0.421-0.317-0.287-1.049 0.213-1.208z"></path>
<path fill="#fff" d="M12.677 13.008c0.628-0.413 1.262-0.817 1.894-1.225 0.624 0.406 1.248 0.812 1.867 1.226-0.513 0.328-1.027 0.651-1.541 0.978 0.303 0.001 0.606 0.001 0.908 0.003 0.049 0.037 0.145 0.11 0.195 0.147 0.872-0.003 1.744-0.001 2.617-0.001 0 0.080 0 0.241 0 0.321l-0.237 0.011c0.211 0.45 0.443 0.891 0.592 1.367 0.177 0.565 0.091 1.163 0.108 1.746-0.49 0.479-1.189 0.307-1.803 0.331-3.888 0-7.776-0.001-11.664 0.001-0.21 0.008-0.424-0.033-0.587-0.171-0.362-0.197-0.189-0.671-0.233-1.005-0.044-0.819 0.37-1.55 0.708-2.264-0.060-0.005-0.178-0.015-0.239-0.019 0.003-0.080 0.007-0.239 0.008-0.317 2.356 0 4.712-0.018 7.070-0.023 0.632 0.030 1.247-0.163 1.882-0.136-0.523-0.311-1.031-0.643-1.543-0.968M12.928 12.99c0.539 0.329 1.048 0.713 1.611 1.004 0.576-0.274 1.079-0.68 1.627-1.005-0.532-0.348-1.064-0.697-1.603-1.037-0.551 0.337-1.093 0.688-1.635 1.038M5.745 14.504c-0.256 0.436-0.47 0.907-0.595 1.399 0.051 0.176 0.126 0.344 0.199 0.513 0.315 0.037 0.631 0.064 0.949 0.077 0.018-0.686 0.027-1.371-0.011-2.056-0.181 0.018-0.365 0.021-0.542 0.067M6.553 14.473c-0.005 1.034-0.014 2.068 0.005 3.104 0.451 0.007 0.901 0.010 1.351-0.010-0.010-1.027 0.069-2.064-0.034-3.087-0.439-0.052-0.882-0.025-1.322-0.007M8.171 14.481c-0.092 0.661-0.052 1.337-0.004 2.002 0.768-0.047 1.584 0.103 2.323-0.073 0.051-0.646 0.014-1.297 0.011-1.945-0.776-0.004-1.555-0.045-2.33 0.015M10.762 14.464c0.023 0.662-0.11 1.365 0.060 2.001 0.765 0.044 1.532 0.021 2.297 0.001 0.021-0.668 0.022-1.336-0.003-2.004-0.784-0.014-1.57-0.015-2.355 0.001M13.38 14.466c-0.014 0.672-0.019 1.343 0.008 2.013 0.776-0.026 1.568 0.080 2.334-0.051 0.037-0.645 0.1-1.318-0.032-1.952-0.769-0.055-1.541-0.016-2.311-0.011M15.999 14.482c-0.088 1.022-0.021 2.053-0.030 3.080 0.45 0.025 0.901 0.021 1.351 0.015 0.026-1.035 0.014-2.071 0.008-3.106-0.443-0.015-0.889-0.047-1.329 0.011M17.575 14.477c-0.007 0.672-0.012 1.344 0.007 2.016 0.315-0.012 0.629-0.040 0.942-0.074 0.081-0.214 0.265-0.437 0.17-0.677-0.145-0.448-0.363-0.869-0.572-1.291-0.182 0.007-0.365 0.016-0.547 0.026z"></path>
<path fill="#fff" d="M6.010 18.188c1.347-0.019 2.696-0.016 4.043-0.003-0.097 0.244-0.169 0.566-0.47 0.629-0.333 0.17-0.595-0.149-0.834-0.331-0.476-0.010-0.953-0.010-1.43-0.001-0.243 0.181-0.512 0.509-0.849 0.329-0.295-0.067-0.359-0.388-0.459-0.624z"></path>
<path fill="#fff" d="M13.828 18.188c1.348-0.019 2.696-0.016 4.044-0.003-0.1 0.241-0.167 0.561-0.465 0.628-0.337 0.17-0.601-0.14-0.838-0.329-0.477-0.010-0.955-0.010-1.432-0.003-0.244 0.187-0.513 0.506-0.854 0.329-0.291-0.069-0.355-0.387-0.455-0.623z"></path>
</svg>
