<!-- Generated by IcoMoon.io -->
<svg version="1.1" xmlns="http://www.w3.org/2000/svg" width="24" height="24" viewBox="0 0 24 24">
<title>regulatory--no-overtaking--g7</title>
<path fill="#c50303" d="M10.804 0h2.367c0.961 0.171 1.932 0.328 2.852 0.672 3.394 1.186 6.172 3.985 7.334 7.388 0.325 0.886 0.469 1.821 0.643 2.744v2.369c-0.171 0.96-0.327 1.931-0.67 2.849-1.186 3.396-3.984 6.178-7.388 7.34-0.884 0.322-1.814 0.469-2.735 0.638h-2.393c-0.985-0.175-1.979-0.341-2.918-0.7-3.358-1.203-6.1-3.983-7.253-7.358-0.325-0.887-0.469-1.822-0.643-2.746v-2.368c0.25-1.724 0.734-3.433 1.645-4.932 1.896-3.28 5.412-5.464 9.159-5.895M5.877 4.378c0.559 0.564 1.12 1.126 1.685 1.684-0.356 0.568-0.725 1.128-1.084 1.694-0.653-0.673-1.323-1.33-1.985-1.993-2.232 2.696-2.764 6.648-1.331 9.839 0.96 2.198 2.785 3.995 4.99 4.936 3.175 1.391 7.076 0.837 9.743-1.375-1.44-1.444-2.888-2.882-4.324-4.33 0.921-0.007 1.841-0.010 2.762 0 0.977 0.986 1.965 1.963 2.944 2.947 1.463-1.789 2.235-4.123 2.122-6.431-0.109-3.192-1.97-6.241-4.743-7.819-3.314-1.976-7.81-1.617-10.778 0.847z"></path>
<path fill="#c50303" d="M10.539 9.058c0.495 0.468 0.969 0.958 1.452 1.438-0.101 0.641-0.559 1.111-0.816 1.68-0.021 0.050-0.063 0.151-0.084 0.2-0.302-0.311-0.602-0.624-0.91-0.929 0.398-0.727 0.394-1.584 0.358-2.388z"></path>
<path fill="#fff" d="M5.877 4.378c2.968-2.463 7.464-2.822 10.778-0.847 2.773 1.577 4.634 4.627 4.743 7.819 0.113 2.308-0.659 4.642-2.122 6.431-0.98-0.984-1.967-1.96-2.944-2.947-0.921-0.010-1.841-0.007-2.762 0 1.437 1.448 2.884 2.885 4.324 4.33-2.667 2.211-6.568 2.765-9.743 1.375-2.205-0.941-4.030-2.738-4.99-4.936-1.433-3.191-0.901-7.143 1.331-9.839 0.662 0.663 1.332 1.32 1.985 1.993-0.14 0.267-0.392 0.66-0.111 0.922 0.316 0.288 0.751 0.121 1.099 0 0.478 0.338 0.532 1.030 0.196 1.486-1.034 1.359-1.413 3.243-0.876 4.876 0.25 0.835 0.992 1.39 1.284 2.201 0.256 0.62 0.146 1.301 0.164 1.952 0.947 0.001 1.893 0.001 2.84 0-0.015-0.688 0.035-1.378-0.022-2.064-0.128-0.917-0.791-1.603-1.342-2.294-0.717-1.082-0.141-2.408 0.472-3.389 0.308 0.305 0.608 0.619 0.91 0.929 0.364 0.11 0.751 0.092 1.127 0.096 2.097-0.027 4.193 0.019 6.29-0.023-0.164-0.358-0.396-0.674-0.64-0.979-0.36-0.493-0.269-1.256-0.759-1.648-1.441-0.123-2.903-0.029-4.352-0.048-0.574-0.044-0.623 0.637-0.772 1.034-0.109 0.539-0.496 0.939-0.809 1.368 0.257-0.569 0.715-1.039 0.816-1.68-0.483-0.48-0.957-0.97-1.452-1.438-0.022-0.277-0.062-0.553-0.094-0.83 0.417 0.184 0.82 0.532 1.303 0.476 0.385-0.132 0.219-0.625 0.080-0.888-0.671-1.175-1.416-2.306-2.102-3.472-0.147-0.269-0.362-0.491-0.61-0.67-0.555 0.771-1.035 1.594-1.553 2.389-0.565-0.559-1.127-1.12-1.685-1.684M10.931 13.419c2.572 0.016 5.144 0.008 7.716 0.005 0.011-0.303-0.010-0.608-0.072-0.904-2.482-0.003-4.966 0.013-7.445-0.008-0.302 0.141-0.17 0.621-0.199 0.907M10.98 13.504c0.106 0.441 0.237 0.891 0.576 1.214 0.004 0.299 0.008 0.599 0.015 0.899 0.26 0.003 0.518 0.003 0.777 0.001 0.007-0.292 0.009-0.585 0.010-0.877 1.621 0.002 3.242-0.001 4.862 0 0.001 0.291 0.002 0.584 0.008 0.875 0.261 0.003 0.521 0.004 0.782 0.001 0.005-0.299 0.008-0.599 0.010-0.899 0.339-0.321 0.471-0.768 0.573-1.209-1.036 0.005-2.073 0.001-3.11-0.004 0.011 0.2 0.016 0.399 0.016 0.6-0.079-0.192-0.107-0.397-0.135-0.6-0.4-0.003-0.8-0.004-1.2-0.001 0.016 0.165 0.033 0.331 0.051 0.495l-0.175 0.002c0.016-0.166 0.032-0.333 0.045-0.5-1.035 0.009-2.071 0.019-3.105 0.002z"></path>
<path fill="#fff" d="M12.556 10.065c1.48-0.048 2.969-0.046 4.451-0.002 0.281 0.394 0.279 0.917 0.422 1.37-1.761 0-3.521-0.002-5.282 0.001 0.135-0.454 0.152-0.962 0.409-1.369M12.369 10.87c-0.037 0.159-0.073 0.319-0.11 0.478 0.194-0.001 0.388-0.002 0.583-0.003-0.157-0.158-0.315-0.316-0.472-0.475z"></path>
<path fill="#fff" d="M11.601 12.676c0.419-0.223 0.727 0.494 0.275 0.632-0.387 0.16-0.64-0.447-0.275-0.632z"></path>
<path fill="#fff" d="M12.468 12.67c0.409-0.196 0.707 0.472 0.284 0.635-0.398 0.179-0.67-0.449-0.284-0.635z"></path>
<path fill="#fff" d="M16.82 12.663c0.399-0.175 0.683 0.464 0.285 0.635-0.409 0.206-0.694-0.459-0.285-0.635z"></path>
<path fill="#fff" d="M17.691 12.66c0.389-0.155 0.663 0.463 0.276 0.634-0.413 0.223-0.707-0.473-0.276-0.634z"></path>
<path fill="#030303" d="M9.116 3.673c0.248 0.179 0.463 0.4 0.61 0.67 0.686 1.166 1.431 2.297 2.102 3.472 0.14 0.263 0.305 0.756-0.080 0.888-0.482 0.057-0.886-0.291-1.303-0.476 0.032 0.277 0.072 0.553 0.094 0.83 0.036 0.804 0.040 1.661-0.358 2.388-0.613 0.982-1.189 2.307-0.472 3.389 0.551 0.692 1.214 1.377 1.342 2.294 0.057 0.686 0.007 1.376 0.022 2.064-0.947 0.001-1.893 0.001-2.84 0-0.017-0.65 0.093-1.332-0.164-1.952-0.292-0.812-1.034-1.367-1.284-2.201-0.537-1.633-0.158-3.517 0.876-4.876 0.336-0.456 0.281-1.148-0.196-1.486-0.348 0.121-0.782 0.288-1.099 0-0.28-0.262-0.028-0.655 0.111-0.922 0.359-0.566 0.729-1.126 1.084-1.694 0.518-0.795 0.998-1.618 1.553-2.389z"></path>
<path fill="#030303" d="M11.985 10.808c0.149-0.397 0.199-1.078 0.772-1.034 1.449 0.019 2.911-0.075 4.352 0.048 0.49 0.393 0.399 1.155 0.759 1.648 0.244 0.304 0.477 0.621 0.64 0.979-2.097 0.041-4.193-0.004-6.29 0.023-0.376-0.004-0.763 0.014-1.127-0.096 0.021-0.049 0.063-0.149 0.084-0.2 0.313-0.429 0.7-0.829 0.809-1.368M12.556 10.065c-0.257 0.407-0.274 0.915-0.409 1.369 1.761-0.003 3.521-0.001 5.282-0.001-0.143-0.453-0.141-0.976-0.422-1.37-1.481-0.044-2.971-0.046-4.451 0.002z"></path>
<path fill="#030303" d="M10.931 13.419c0.028-0.286-0.104-0.766 0.199-0.907 2.48 0.021 4.964 0.004 7.445 0.008 0.062 0.297 0.083 0.601 0.072 0.904-2.572 0.002-5.144 0.011-7.716-0.005M11.601 12.676c-0.365 0.184-0.112 0.792 0.275 0.632 0.452-0.137 0.144-0.854-0.275-0.632M12.468 12.67c-0.386 0.185-0.115 0.814 0.284 0.635 0.423-0.163 0.125-0.831-0.284-0.635M16.82 12.663c-0.409 0.176-0.124 0.841 0.285 0.635 0.398-0.171 0.115-0.809-0.285-0.635M17.691 12.66c-0.431 0.16-0.137 0.856 0.276 0.634 0.387-0.171 0.113-0.789-0.276-0.634z"></path>
<path fill="#030303" d="M10.98 13.504c1.034 0.016 2.069 0.007 3.105-0.002-0.013 0.167-0.028 0.334-0.045 0.5l0.175-0.002c-0.019-0.165-0.035-0.331-0.051-0.495 0.4-0.003 0.8-0.002 1.2 0.001 0.028 0.203 0.057 0.408 0.135 0.6 0-0.201-0.005-0.4-0.016-0.6 1.037 0.005 2.074 0.010 3.11 0.004-0.101 0.441-0.233 0.888-0.573 1.209-0.002 0.3-0.004 0.6-0.010 0.899-0.261 0.003-0.521 0.002-0.782-0.001-0.005-0.291-0.007-0.584-0.008-0.875-1.62-0.001-3.241 0.002-4.862 0-0.001 0.292-0.003 0.585-0.010 0.877-0.259 0.002-0.517 0.002-0.777-0.001-0.008-0.3-0.011-0.6-0.015-0.899-0.339-0.323-0.47-0.773-0.576-1.214z"></path>
<path fill="#c80c0c" d="M12.369 10.87c0.157 0.158 0.315 0.316 0.472 0.475-0.194 0.001-0.388 0.002-0.583 0.003 0.037-0.159 0.073-0.319 0.11-0.478z"></path>
</svg>
