<!-- Generated by IcoMoon.io -->
<svg version="1.1" xmlns="http://www.w3.org/2000/svg" width="24" height="24" viewBox="0 0 24 24">
<title>regulatory--tanks-only--g1</title>
<path fill="#494949" opacity="0.73" d="M10.674 0h2.932l-0.218 0.115c-0.974-0.010-1.949-0.016-2.923 0.006l0.21-0.121z"></path>
<path fill="#fff" d="M8.669 0.478c0.595-0.138 1.193-0.26 1.795-0.356 0.974-0.022 1.949-0.016 2.923-0.006 2.912 0.311 5.66 1.796 7.603 3.974 1.553 1.823 2.612 4.080 2.899 6.466-0.001 0.91-0.004 1.819 0.001 2.728-0.169 1.844-0.838 3.62-1.835 5.174-1.858 2.992-5.149 4.988-8.623 5.435-0.907-0.002-1.813-0.004-2.719 0-1.84-0.175-3.619-0.84-5.171-1.837-2.96-1.838-4.958-5.082-5.422-8.521-0.022-0.972-0.013-1.944-0.006-2.916 0.47-4.554 3.812-8.6 8.159-10.003 0.164 0.048 0.296 0.002 0.395-0.137M10.844 0.534c-2.118 0.187-4.154 1.028-5.848 2.304-2.845 2.159-4.595 5.704-4.517 9.282-0.004 3.964 2.24 7.834 5.678 9.804 3.582 2.176 8.368 2.12 11.9-0.133 3.39-2.042 5.544-5.954 5.459-9.911 0.006-4.112-2.411-8.13-6.062-10.027-1.998-1.111-4.342-1.538-6.611-1.319z"></path>
<path fill="#fff" d="M10.722 3.77c3.235-0.534 6.719 1.045 8.371 3.89 1.592 2.5 1.645 5.897 0.133 8.446-1.436 2.647-4.458 4.338-7.464 4.205-1.972-0.002-3.869-0.852-5.347-2.124-2.646-2.354-3.532-6.467-1.978-9.668 1.12-2.509 3.574-4.349 6.284-4.748M10.358 8.971c-0.094 0.241-0.186 0.481-0.278 0.721-1.060-0.3-2.124-0.578-3.19-0.853-0.034 0.118-0.101 0.353-0.136 0.469 0.994 0.492 2.002 0.95 2.986 1.46-0.128 0.013-0.386 0.040-0.515 0.054-0.010 0.089-0.030 0.268-0.040 0.356-1.063 0.018-2.128-0.013-3.19 0.013-0.46-0.034-0.76 0.57-0.488 0.929 0.612 0.869 1.272 1.704 1.862 2.588 0.218 0.306 0.466 0.718 0.902 0.673 3.283 0.008 6.565 0.043 9.848 0.048 0.516 0.064 0.607-0.612 0.407-0.96-0.454-0.948-0.875-1.915-1.356-2.85-0.485-0.71-1.469-0.35-2.185-0.437-0.007-0.090-0.019-0.269-0.025-0.359-0.082-0.008-0.245-0.024-0.326-0.032-0.301-0.607-0.601-1.213-0.913-1.814-0.566-0.050-1.008-0.518-1.598-0.472-0.658-0.114-1.13 0.479-1.765 0.464z"></path>
<path fill="#494949" opacity="0.75" d="M8.274 0.614c0.096-0.146 0.228-0.192 0.395-0.137-0.098 0.139-0.23 0.185-0.395 0.137z"></path>
<path fill="#c1121c" d="M10.844 0.534c2.269-0.22 4.613 0.208 6.611 1.319 3.652 1.897 6.068 5.915 6.062 10.027 0.085 3.956-2.069 7.868-5.459 9.911-3.533 2.254-8.318 2.309-11.9 0.133-3.438-1.97-5.682-5.84-5.678-9.804-0.078-3.578 1.672-7.123 4.517-9.282 1.693-1.276 3.73-2.117 5.848-2.304M10.722 3.77c-2.711 0.4-5.165 2.239-6.284 4.748-1.554 3.202-0.668 7.314 1.978 9.668 1.478 1.272 3.376 2.122 5.347 2.124 3.006 0.133 6.028-1.558 7.464-4.205 1.512-2.549 1.459-5.946-0.133-8.446-1.652-2.845-5.136-4.424-8.371-3.89z"></path>
<path fill="#000" d="M10.358 8.971c0.635 0.014 1.108-0.578 1.765-0.464 0.59-0.047 1.032 0.421 1.598 0.472 0.312 0.601 0.612 1.207 0.913 1.814 0.082 0.008 0.245 0.024 0.326 0.032 0.006 0.090 0.018 0.269 0.025 0.359 0.716 0.086 1.7-0.274 2.185 0.437 0.481 0.935 0.902 1.902 1.356 2.85 0.2 0.348 0.109 1.024-0.407 0.96-3.283-0.005-6.565-0.040-9.848-0.048-0.437 0.044-0.684-0.367-0.902-0.673-0.59-0.884-1.25-1.72-1.862-2.588-0.271-0.359 0.029-0.962 0.488-0.929 1.062-0.026 2.126 0.005 3.19-0.013 0.010-0.089 0.030-0.268 0.040-0.356 0.128-0.014 0.386-0.041 0.515-0.054-0.984-0.51-1.992-0.968-2.986-1.46 0.035-0.116 0.102-0.352 0.136-0.469 1.066 0.275 2.13 0.553 3.19 0.853 0.092-0.24 0.185-0.48 0.278-0.721z"></path>
<path fill="#4a4a4a" opacity="0.74" d="M0 10.396l0.115 0.222c-0.007 0.972-0.016 1.944 0.006 2.916l-0.121-0.21v-2.928z"></path>
<path fill="#4d4d4d" opacity="0.76" d="M23.89 10.555l0.11 0.212v2.741l-0.109-0.226c-0.005-0.908-0.002-1.818-0.001-2.728z"></path>
<path fill="#545454" opacity="0.73" d="M10.714 23.892c0.906-0.004 1.812-0.002 2.719 0l-0.216 0.108h-2.724l0.221-0.108z"></path>
</svg>
