<!-- Generated by IcoMoon.io -->
<svg version="1.1" xmlns="http://www.w3.org/2000/svg" width="24" height="24" viewBox="0 0 24 24">
<title>regulatory--end-of-maximum-speed-limit-35--g1</title>
<path fill="#fff" d="M11.093 0h1.843c1.755 0.161 3.488 0.663 5.015 1.552 2.505 1.42 4.466 3.772 5.407 6.494 0.349 0.982 0.542 2.012 0.642 3.048v1.84c-0.163 1.766-0.671 3.511-1.57 5.046-1.537 2.7-4.162 4.757-7.155 5.592-0.76 0.224-1.547 0.338-2.332 0.428h-1.878c-1.721-0.157-3.416-0.648-4.925-1.499-2.655-1.479-4.714-3.995-5.616-6.9-0.278-0.862-0.427-1.759-0.525-2.657v-1.881c0.094-0.877 0.237-1.752 0.503-2.595 0.835-2.747 2.7-5.16 5.139-6.673 1.634-1.035 3.528-1.632 5.452-1.795M11.366 0.596c-2.155 0.11-4.272 0.862-6.022 2.123-2.383 1.695-4.065 4.341-4.582 7.22-0.592 3.156 0.23 6.544 2.219 9.067 1.792 2.325 4.515 3.908 7.424 4.306 3.22 0.47 6.617-0.526 9.064-2.673 2.293-1.965 3.75-4.876 3.928-7.893 0.128-1.882-0.224-3.795-1.014-5.508-1.196-2.63-3.432-4.764-6.116-5.836-1.547-0.626-3.235-0.903-4.902-0.807z"></path>
<path fill="#fff" d="M6.577 2.636c2-1.168 4.385-1.661 6.684-1.383 1.695 0.192 3.341 0.801 4.757 1.752-0.888 0.895-1.774 1.794-2.678 2.672-0.82-0.030-1.643-0.010-2.463-0.011-0.008 0.818-0.009 1.637 0.001 2.456l0.001 0.026c-0.636 0.638-1.268 1.282-1.914 1.909 0.413-1.68-0.531-3.55-2.111-4.235-1.083-0.44-2.408-0.427-3.395 0.248-0.956 0.644-1.65 1.714-1.71 2.88 0.624 0.005 1.249 0.006 1.874-0.001 0.115-0.812 0.811-1.497 1.641-1.531 0.928-0.072 1.833 0.69 1.897 1.623 0.083 0.683-0.256 1.409-0.877 1.728-0.519 0.289-1.129 0.218-1.697 0.249 0.010 0.552-0.019 1.105 0.015 1.656 0.532 0.015 1.089-0.063 1.591 0.161-0.847 0.856-1.702 1.704-2.553 2.556-0.028-0.063-0.057-0.126-0.084-0.188-0.622-0.022-1.245-0.006-1.867-0.008 0.058 0.566 0.245 1.121 0.534 1.611-0.4 0.408-0.804 0.814-1.214 1.213-1.654-2.445-2.227-5.582-1.55-8.454 0.649-2.887 2.556-5.456 5.121-6.928z"></path>
<path fill="#fff" d="M16.231 5.652c0.761-0.764 1.522-1.527 2.287-2.287 0.077 0.057 0.154 0.114 0.232 0.17-0.699 0.728-1.418 1.443-2.144 2.146-0.125-0.013-0.25-0.024-0.375-0.030z"></path>
<path fill="#fff" d="M17.501 5.649c0.575-0.569 1.142-1.146 1.718-1.713 0.074 0.066 0.145 0.134 0.216 0.203-0.52 0.515-1.025 1.046-1.559 1.546-0.125-0.015-0.25-0.026-0.375-0.036z"></path>
<path fill="#fff" d="M18.77 5.654c0.365-0.362 0.725-0.728 1.092-1.088 0.069 0.070 0.136 0.142 0.201 0.217-0.293 0.297-0.586 0.594-0.886 0.884-0.135-0.003-0.271-0.006-0.406-0.013z"></path>
<path fill="#fff" d="M19.675 6.038c0.252-0.272 0.514-0.539 0.789-0.787 0.056 0.078 0.113 0.155 0.171 0.232-0.308 0.314-0.621 0.623-0.932 0.934-0.011-0.126-0.018-0.253-0.028-0.379z"></path>
<path fill="#fff" d="M19.683 7.305c0.419-0.454 0.87-0.885 1.311-1.321 1.655 2.443 2.226 5.581 1.549 8.453-0.649 2.887-2.556 5.455-5.12 6.928-2.33 1.365-5.184 1.795-7.815 1.189-1.291-0.289-2.526-0.822-3.624-1.559 0.907-0.905 1.795-1.836 2.729-2.708 1.041-0.35 1.93-1.201 2.257-2.259 1.109-1.166 2.272-2.289 3.41-3.431 0.086-0.002 0.172-0.007 0.258-0.011 0.28-0.52 0.765-0.97 1.374-1.030 0.618-0.061 1.401 0.059 1.699 0.682 0.507 1.091 0.378 2.355 0.124 3.495-0.080 0.437-0.461 0.756-0.885 0.84-0.589 0.129-1.264 0.11-1.772-0.251-0.38-0.27-0.565-0.72-0.672-1.158-0.624-0.002-1.249-0.016-1.873 0.008 0.086 0.846 0.369 1.719 1.006 2.312 0.952 0.824 2.291 1.228 3.533 0.956 1.372-0.339 2.528-1.544 2.689-2.968 0.112-0.997 0.107-2.012-0.018-3.008-0.168-1.341-1.237-2.508-2.57-2.764 0.723-0.718 1.433-1.455 2.169-2.156 0.080-0.001 0.161 0.001 0.242 0.003-0.002-0.080-0.004-0.161-0.003-0.241z"></path>
<path fill="#fff" d="M14.658 8.494c0.318-0.316 0.633-0.636 0.953-0.95 0.135 0.002 0.269 0.005 0.404 0.015-0.444 0.448-0.888 0.895-1.339 1.337-0.023-0.133-0.030-0.267-0.018-0.401z"></path>
<path fill="#fff" d="M14.66 9.765c0.755-0.737 1.483-1.514 2.252-2.228 0.126 0.005 0.252 0.015 0.377 0.025-0.872 0.866-1.736 1.74-2.61 2.604-0.029-0.132-0.034-0.267-0.020-0.401z"></path>
<path fill="#fff" d="M16.008 9.696c0.721-0.721 1.433-1.457 2.171-2.159 0.126 0.004 0.252 0.014 0.378 0.024-0.7 0.698-1.395 1.402-2.1 2.096-0.15 0.010-0.3 0.022-0.449 0.038z"></path>
<path fill="#fff" d="M9.925 11.959c0.977-0.983 1.96-1.961 2.94-2.943 0.005 0.125 0.009 0.249 0.015 0.374l0.001 0.027c-0.906 0.915-1.818 1.825-2.732 2.733-0.074-0.065-0.149-0.128-0.224-0.191z"></path>
<path fill="#fff" d="M10.569 12.581c0.768-0.762 1.53-1.529 2.295-2.294 0.005 0.125 0.009 0.249 0.015 0.373l0.001 0.028c-0.715 0.728-1.439 1.447-2.163 2.165-0.050-0.090-0.1-0.181-0.149-0.272z"></path>
<path fill="#fff" d="M12.866 11.558c0.004 0.132 0.009 0.264 0.010 0.396-0.575 0.617-1.195 1.2-1.786 1.805-0.034-0.11-0.065-0.221-0.092-0.333 0.623-0.622 1.246-1.245 1.868-1.868z"></path>
<path fill="#fff" d="M11.184 14.523c0.637-0.652 1.285-1.295 1.933-1.935 0.127 0.003 0.254 0.010 0.379 0.035-0.758 0.761-1.518 1.52-2.279 2.279-0.023-0.125-0.030-0.252-0.033-0.379z"></path>
<path fill="#fff" d="M5.941 15.943c0.915-0.923 1.84-1.836 2.754-2.76 0.076 0.062 0.151 0.127 0.226 0.192-0.916 0.932-1.849 1.849-2.769 2.777-0.072-0.068-0.143-0.137-0.211-0.209z"></path>
<path fill="#fff" d="M6.643 16.511c0.852-0.855 1.707-1.707 2.56-2.561 0.030 0.105 0.060 0.21 0.095 0.314-0.77 0.795-1.556 1.578-2.349 2.35-0.101-0.036-0.203-0.070-0.306-0.103z"></path>
<path fill="#fff" d="M9.226 15.203c-0.005 0.232-0.129 0.434-0.234 0.633-0.144 0.166-0.301 0.323-0.468 0.465-0.203 0.099-0.404 0.268-0.641 0.246 0.443-0.452 0.892-0.9 1.343-1.344z"></path>
<path fill="#fff" d="M3.366 18.518c0.396-0.406 0.803-0.799 1.199-1.205 0.075 0.064 0.15 0.129 0.225 0.195-0.406 0.42-0.826 0.827-1.237 1.243-0.072-0.069-0.127-0.153-0.187-0.232z"></path>
<path fill="#fff" d="M3.938 19.218c0.438-0.444 0.881-0.885 1.324-1.325 0.084 0.056 0.168 0.112 0.251 0.171-0.459 0.455-0.913 0.916-1.373 1.37-0.070-0.070-0.137-0.142-0.202-0.216z"></path>
<path fill="#fff" d="M4.566 19.861c0.518-0.518 1.029-1.044 1.558-1.551 0.096 0.042 0.192 0.083 0.288 0.125-0.542 0.543-1.083 1.088-1.629 1.627-0.075-0.065-0.146-0.132-0.217-0.201z"></path>
<path fill="#fff" d="M5.25 20.447c0.657-0.642 1.29-1.313 1.959-1.941 0.126 0.007 0.251 0.018 0.377 0.027-0.702 0.699-1.399 1.403-2.103 2.1-0.080-0.060-0.164-0.115-0.232-0.187z"></path>
<path fill="#000" d="M11.366 0.596c1.667-0.097 3.354 0.18 4.902 0.807 2.684 1.072 4.92 3.206 6.116 5.836 0.79 1.713 1.142 3.626 1.014 5.508-0.179 3.017-1.635 5.927-3.928 7.893-2.447 2.146-5.844 3.143-9.064 2.673-2.91-0.398-5.632-1.98-7.424-4.306-1.988-2.523-2.81-5.91-2.219-9.067 0.517-2.88 2.198-5.525 4.582-7.22 1.75-1.262 3.867-2.013 6.022-2.123M6.577 2.636c-2.565 1.472-4.472 4.041-5.121 6.928-0.677 2.872-0.104 6.010 1.55 8.454 0.41-0.399 0.814-0.805 1.214-1.213 0.477-0.466 0.946-0.942 1.417-1.414 0.852-0.851 1.706-1.7 2.553-2.556 0.926-0.923 1.861-1.846 2.773-2.778 0.646-0.627 1.278-1.271 1.914-1.909l-0.001-0.026c0.847-0.784 1.65-1.623 2.462-2.445 0.904-0.878 1.79-1.777 2.678-2.672-1.416-0.951-3.061-1.56-4.757-1.752-2.299-0.278-4.684 0.215-6.684 1.383M16.231 5.652c-1.124 1.118-2.243 2.244-3.367 3.364-0.979 0.982-1.962 1.959-2.94 2.943-0.413 0.405-0.817 0.82-1.23 1.224-0.914 0.923-1.839 1.836-2.754 2.76-0.462 0.453-0.914 0.917-1.376 1.37-0.395 0.406-0.803 0.799-1.199 1.205 0.060 0.080 0.115 0.163 0.187 0.232 0.41-0.416 0.83-0.823 1.237-1.243 0.46-0.446 0.906-0.906 1.363-1.356 0.921-0.928 1.853-1.845 2.769-2.777 0.414-0.403 0.821-0.814 1.227-1.225 0.914-0.908 1.826-1.818 2.732-2.733l-0.001-0.027c0.073-0.043 0.137-0.098 0.195-0.16 1.174-1.186 2.37-2.351 3.533-3.548 0.725-0.703 1.445-1.417 2.144-2.146-0.078-0.056-0.155-0.113-0.232-0.17-0.765 0.759-1.526 1.523-2.287 2.287M17.501 5.649c-0.628 0.633-1.263 1.26-1.89 1.894-0.32 0.315-0.635 0.634-0.953 0.95-0.598 0.598-1.195 1.196-1.794 1.793-0.765 0.765-1.528 1.532-2.295 2.294-0.452 0.459-0.912 0.911-1.366 1.369-0.853 0.854-1.708 1.706-2.56 2.561-0.462 0.459-0.923 0.92-1.381 1.382-0.443 0.44-0.885 0.881-1.324 1.325 0.064 0.075 0.132 0.146 0.202 0.216 0.46-0.454 0.914-0.915 1.373-1.37 0.475-0.487 0.971-0.954 1.436-1.45 0.793-0.772 1.579-1.555 2.349-2.35 0.486-0.457 0.95-0.938 1.42-1.411 0.725-0.718 1.448-1.437 2.163-2.165l-0.001-0.028c0.629-0.551 1.2-1.18 1.796-1.765 0.45-0.442 0.894-0.889 1.339-1.337l0.008 0c0.61-0.632 1.252-1.234 1.853-1.874 0.534-0.5 1.039-1.031 1.559-1.546-0.071-0.069-0.142-0.136-0.216-0.202-0.576 0.568-1.143 1.145-1.718 1.713M18.77 5.654c-0.615 0.631-1.263 1.233-1.859 1.883-0.769 0.714-1.497 1.491-2.252 2.228-0.597 0.599-1.195 1.196-1.793 1.793-0.622 0.623-1.245 1.246-1.868 1.868-0.59 0.589-1.175 1.182-1.77 1.766l-0.001 0.011c-0.452 0.444-0.9 0.892-1.343 1.344-0.585 0.578-1.182 1.168-1.759 1.763-0.529 0.507-1.040 1.033-1.558 1.551 0.070 0.069 0.142 0.136 0.217 0.201 0.547-0.539 1.087-1.084 1.629-1.627l0.006 0.002c0.691-0.722 1.43-1.402 2.107-2.136 0.167-0.143 0.324-0.3 0.468-0.465 0.718-0.671 1.395-1.388 2.098-2.077 0.592-0.605 1.212-1.188 1.786-1.805 0.617-0.577 1.205-1.193 1.803-1.788 0.873-0.864 1.738-1.739 2.61-2.604 0.627-0.633 1.264-1.257 1.887-1.894 0.3-0.29 0.593-0.587 0.886-0.884-0.064-0.075-0.131-0.148-0.201-0.218-0.367 0.36-0.727 0.727-1.092 1.088M19.675 6.038c-0.509 0.489-1.013 0.985-1.496 1.5-0.738 0.701-1.449 1.437-2.171 2.159-0.966 0.957-1.933 1.923-2.891 2.891-0.648 0.641-1.296 1.284-1.933 1.935-1.329 1.323-2.666 2.64-3.975 3.984-0.669 0.628-1.302 1.298-1.959 1.941 0.068 0.072 0.153 0.127 0.232 0.187 0.704-0.697 1.401-1.401 2.103-2.1l0.008 0.001c1.201-1.214 2.406-2.425 3.624-3.622l-0.002-0.011c0.76-0.759 1.521-1.518 2.279-2.279l0.011 0.002c0.972-1 1.974-1.971 2.95-2.966 0.705-0.694 1.4-1.398 2.1-2.096l0.007 0c0.375-0.384 0.755-0.765 1.14-1.14l-0-0.007c0.311-0.311 0.624-0.62 0.932-0.934-0.058-0.077-0.115-0.154-0.171-0.232-0.275 0.248-0.537 0.515-0.789 0.787M19.683 7.305c-0.090 0.068-0.172 0.147-0.239 0.238-0.737 0.701-1.447 1.438-2.169 2.156-0.967 0.964-1.935 1.926-2.895 2.898-1.138 1.141-2.302 2.265-3.41 3.431-0.772 0.729-1.531 1.484-2.257 2.259-0.934 0.872-1.822 1.803-2.729 2.708 1.098 0.737 2.333 1.27 3.624 1.559 2.631 0.606 5.484 0.176 7.815-1.189 2.564-1.473 4.47-4.042 5.12-6.928 0.677-2.871 0.106-6.009-1.549-8.452-0.441 0.436-0.892 0.867-1.311 1.321z"></path>
<path fill="#808080" d="M5.458 6.070c0.986-0.675 2.311-0.688 3.395-0.248 1.581 0.685 2.524 2.555 2.111 4.235-0.912 0.932-1.847 1.855-2.773 2.778-0.502-0.225-1.059-0.146-1.591-0.161-0.034-0.55-0.005-1.104-0.015-1.656 0.569-0.031 1.178 0.040 1.697-0.249 0.621-0.319 0.96-1.044 0.877-1.728-0.064-0.933-0.969-1.695-1.897-1.623-0.83 0.034-1.526 0.72-1.641 1.531-0.624 0.007-1.249 0.006-1.874 0.001 0.060-1.166 0.754-2.237 1.71-2.88z"></path>
<path fill="#808080" d="M12.864 9.016c1.123-1.12 2.243-2.245 3.367-3.364 0.125 0.005 0.25 0.017 0.375 0.030-1.163 1.198-2.358 2.362-3.533 3.548-0.058 0.061-0.122 0.117-0.195 0.16-0.005-0.125-0.009-0.249-0.015-0.374z"></path>
<path fill="#808080" d="M15.611 7.544c0.627-0.634 1.262-1.261 1.89-1.894 0.125 0.010 0.25 0.021 0.375 0.036-0.602 0.639-1.243 1.242-1.853 1.874l-0.008-0c-0.135-0.010-0.269-0.013-0.404-0.015z"></path>
<path fill="#808080" d="M16.912 7.537c0.595-0.649 1.244-1.251 1.859-1.883 0.135 0.007 0.27 0.010 0.406 0.013-0.623 0.637-1.26 1.261-1.887 1.894-0.126-0.010-0.251-0.020-0.377-0.025z"></path>
<path fill="#808080" d="M12.877 5.666c0.821 0 1.643-0.020 2.463 0.011-0.812 0.823-1.616 1.661-2.462 2.445-0.010-0.819-0.008-1.638-0.001-2.456z"></path>
<path fill="#808080" d="M18.179 7.538c0.482-0.515 0.987-1.011 1.496-1.5 0.010 0.126 0.017 0.253 0.028 0.379l0 0.007c-0.385 0.375-0.765 0.755-1.14 1.14l-0.007-0c-0.126-0.011-0.252-0.021-0.378-0.024z"></path>
<path fill="#808080" d="M12.864 10.287c0.599-0.597 1.196-1.195 1.794-1.793-0.013 0.134-0.006 0.269 0.018 0.401-0.597 0.585-1.167 1.215-1.796 1.765-0.006-0.124-0.010-0.248-0.015-0.373z"></path>
<path fill="#808080" d="M13.117 12.587c0.959-0.968 1.925-1.934 2.891-2.891 0.149-0.016 0.299-0.028 0.449-0.038-0.976 0.996-1.978 1.966-2.95 2.966l-0.011-0.002c-0.125-0.025-0.252-0.032-0.379-0.035z"></path>
<path fill="#808080" d="M14.381 12.596c0.959-0.972 1.928-1.934 2.895-2.898 1.333 0.255 2.402 1.423 2.57 2.764 0.125 0.996 0.13 2.011 0.018 3.008-0.161 1.425-1.318 2.629-2.689 2.968-1.242 0.272-2.581-0.132-3.533-0.956-0.637-0.593-0.921-1.466-1.006-2.312 0.624-0.024 1.249-0.009 1.873-0.008 0.107 0.438 0.292 0.887 0.672 1.158 0.508 0.361 1.183 0.38 1.772 0.251 0.423-0.085 0.805-0.404 0.885-0.84 0.255-1.14 0.383-2.404-0.124-3.495-0.298-0.623-1.081-0.743-1.699-0.682-0.61 0.060-1.094 0.51-1.374 1.030-0.086 0.005-0.172 0.009-0.258 0.011z"></path>
<path fill="#808080" d="M12.866 11.558c0.598-0.597 1.196-1.195 1.793-1.793-0.015 0.134-0.009 0.269 0.020 0.401-0.598 0.595-1.185 1.211-1.803 1.788-0.001-0.132-0.007-0.264-0.010-0.396z"></path>
<path fill="#808080" d="M8.695 13.183c0.413-0.405 0.817-0.819 1.23-1.224 0.075 0.063 0.15 0.127 0.224 0.191-0.406 0.411-0.813 0.822-1.227 1.225-0.075-0.065-0.15-0.129-0.226-0.192z"></path>
<path fill="#808080" d="M9.203 13.95c0.454-0.457 0.914-0.91 1.366-1.369 0.049 0.091 0.099 0.181 0.149 0.272-0.471 0.473-0.934 0.954-1.42 1.411-0.035-0.104-0.065-0.209-0.095-0.314z"></path>
<path fill="#808080" d="M9.227 15.192c0.595-0.584 1.18-1.177 1.77-1.766 0.028 0.112 0.059 0.223 0.092 0.333-0.703 0.689-1.38 1.406-2.098 2.077 0.105-0.199 0.229-0.401 0.234-0.633l0.001-0.011z"></path>
<path fill="#808080" d="M7.209 18.507c1.308-1.343 2.645-2.661 3.975-3.984 0.003 0.127 0.010 0.254 0.033 0.379l0.002 0.011c-1.218 1.197-2.423 2.408-3.624 3.622l-0.008-0.001c-0.126-0.009-0.251-0.020-0.377-0.027z"></path>
<path fill="#808080" d="M3.686 15.195c0.622 0.003 1.245-0.014 1.867 0.008 0.028 0.062 0.056 0.125 0.084 0.188-0.472 0.472-0.94 0.948-1.417 1.414-0.289-0.49-0.476-1.045-0.534-1.611z"></path>
<path fill="#808080" d="M4.565 17.313c0.463-0.453 0.915-0.917 1.376-1.37 0.068 0.072 0.139 0.142 0.211 0.209-0.457 0.45-0.903 0.91-1.363 1.356-0.075-0.065-0.15-0.13-0.225-0.195z"></path>
<path fill="#808080" d="M8.714 18.286c0.726-0.775 1.485-1.53 2.257-2.259-0.327 1.058-1.216 1.909-2.257 2.259z"></path>
<path fill="#808080" d="M7.883 16.547c0.238 0.022 0.438-0.147 0.641-0.246-0.677 0.735-1.415 1.414-2.107 2.136l-0.006-0.002c-0.096-0.042-0.192-0.083-0.288-0.125 0.577-0.595 1.174-1.185 1.759-1.763z"></path>
<path fill="#808080" d="M5.262 17.893c0.458-0.462 0.919-0.923 1.381-1.382 0.102 0.033 0.204 0.067 0.306 0.103-0.465 0.496-0.96 0.963-1.436 1.45-0.083-0.059-0.167-0.115-0.251-0.171z"></path>
<path fill="#7f7f7f" d="M19.445 7.543c0.067-0.091 0.148-0.17 0.239-0.238-0.001 0.080 0.001 0.161 0.003 0.241-0.081-0.001-0.162-0.004-0.242-0.003z"></path>
</svg>
