<!-- Generated by IcoMoon.io -->
<svg version="1.1" xmlns="http://www.w3.org/2000/svg" width="24" height="24" viewBox="0 0 24 24">
<title>regulatory--end-of-no-horn--g1</title>
<path fill="#000" d="M10.934 0h2.112c0.838 0.16 1.688 0.275 2.503 0.535 3.547 1.067 6.496 3.896 7.735 7.384 0.374 0.971 0.526 2.002 0.715 3.019v2.101c-0.421 4.055-2.906 7.858-6.59 9.664-1.346 0.721-2.848 1.057-4.344 1.297h-2.112c-4.074-0.427-7.892-2.938-9.692-6.648-0.695-1.334-1.027-2.812-1.261-4.288v-2.11c0.186-1.058 0.352-2.13 0.75-3.136 1.258-3.444 4.187-6.228 7.7-7.285 0.809-0.258 1.652-0.37 2.484-0.534M1.782 7.048c-1.787 3.607-1.424 8.146 0.894 11.435 2.118-2.11 4.23-4.226 6.332-6.348 0.512-0.445 0.962-0.962 1.447-1.439 2.688-2.662 5.348-5.351 8.030-8.017-2.312-1.621-5.243-2.315-8.038-1.922-3.703 0.468-7.061 2.927-8.666 6.292M18.878 2.972c-2.567 2.564-5.13 5.134-7.699 7.696-0.426 0.457-0.944 0.84-1.266 1.384-0.428 0.146-0.668 0.587-0.848 0.974-0.516 0.444-0.895 1.088-1.558 1.319-1.512 1.505-3.018 3.017-4.528 4.525 0.073 0.101 0.146 0.203 0.22 0.304 1.71-1.782 3.608-3.41 5.14-5.339 0.199 0.17 0.618-0.251 0.462-0.451 0.2-0.172 0.362-0.38 0.52-0.592 0.457-0.044 0.707-0.476 1.019-0.76 0.419-0.397 0.828-0.804 1.213-1.234 2.566-2.508 5.081-5.069 7.622-7.601-0.098-0.076-0.197-0.151-0.296-0.226M12.287 10.792l-0.023-0.004c-0.377 0.4-0.788 0.768-1.13 1.199-0.294 0.178-0.502 0.466-0.752 0.697-0.239 0.23-0.469 0.469-0.692 0.714-0.476 0.464-1.049 0.887-1.26 1.548-0.079 0.004-0.239 0.011-0.318 0.013-1.532 1.525-3.061 3.053-4.585 4.585 0.061 0.067 0.182 0.203 0.242 0.27 1.481-1.469 2.948-2.95 4.427-4.42 0.236-0.229 0.338-0.551 0.48-0.84 0.085 0.004 0.256 0.011 0.341 0.014 0.384-0.386 0.782-0.76 1.145-1.166 0.281-0.168 0.461-0.467 0.674-0.71 0.311-0.178 0.527-0.481 0.767-0.74 0.416-0.299 0.736-0.748 1.12-1.099 2.378-2.353 4.735-4.728 7.102-7.093-0.070-0.059-0.208-0.176-0.277-0.235-2.422 2.42-4.852 4.834-7.259 7.267M13.32 10.985c0.247-0.018 0.536 0.023 0.706-0.202 2.129-2.142 4.285-4.26 6.398-6.418-0.065-0.061-0.194-0.184-0.259-0.246-2.281 2.29-4.586 4.554-6.845 6.865M20.719 4.771c-2.026 2.050-4.084 4.067-6.103 6.122-0.070 0.335-0.372 0.535-0.55 0.81-0.066 0.006-0.198 0.018-0.264 0.024-0.359 0.298-0.683 0.634-1 0.976-0.233 0.224-0.462 0.452-0.684 0.688-0.415 0.386-0.815 0.791-1.205 1.204 0.781 0.097 1.148-0.75 1.669-1.178 0.258-0.164 0.434-0.45 0.652-0.668 0.338-0.278 0.646-0.594 0.941-0.918l0.005 0.001c0.042-0.5 0.551-0.706 0.924-0.923 1.962-1.952 3.917-3.913 5.874-5.872-0.086-0.089-0.173-0.178-0.259-0.265M15.5 11.206c-0.194 0.194-0.385 0.391-0.572 0.59-0.31 0.293-0.608 0.595-0.907 0.898-0.238 0.228-0.47 0.462-0.696 0.701-0.386 0.373-0.762 0.757-1.142 1.136-0.241 0.229-0.473 0.468-0.698 0.714-2.027 1.991-4.024 4.013-6.034 6.022 2.192 1.562 4.946 2.298 7.626 2.030 3.946-0.332 7.582-2.93 9.223-6.527 1.705-3.605 1.297-8.087-1.027-11.327-1.928 1.916-3.841 3.848-5.772 5.762M11.594 12.688c-0.23 0.227-0.456 0.457-0.678 0.692-0.419 0.386-0.814 0.797-1.214 1.201 0.127-0.001 0.383-0.002 0.511-0.004 0.394-0.368 0.775-0.751 1.144-1.144l0.032 0.004c0.217-0.23 0.433-0.462 0.646-0.696 0.338-0.287 0.648-0.607 0.958-0.924-0.131 0.004-0.394 0.012-0.526 0.017-0.304 0.27-0.589 0.56-0.872 0.853M4.124 20.159c0.062 0.065 0.188 0.197 0.251 0.262 1.75-1.738 3.496-3.479 5.23-5.232-0.124 0.001-0.372 0.005-0.496 0.006-1.684 1.632-3.323 3.31-4.985 4.964M4.763 20.737c0.072 0.056 0.217 0.168 0.29 0.224 1.925-1.921 3.852-3.841 5.767-5.772-0.126 0.001-0.378 0.006-0.504 0.008-1.867 1.83-3.703 3.692-5.554 5.539z"></path>
<path fill="#fff" d="M1.782 7.048c1.606-3.365 4.963-5.824 8.666-6.292 2.795-0.392 5.725 0.301 8.038 1.922-2.682 2.666-5.342 5.356-8.030 8.017-1.229-0.132-2.474-0.106-3.692-0.317-1.198-0.269-1.925-1.421-2.075-2.578-0.349 0.077-0.271 0.451-0.288 0.72 0.008 1.961 0.007 3.922 0 5.882 0.008 0.254-0.034 0.589 0.286 0.667 0.122-0.827 0.373-1.702 1.079-2.225 0.901-0.767 2.152-0.575 3.244-0.712-2.102 2.122-4.214 4.238-6.332 6.348-2.318-3.289-2.681-7.828-0.894-11.435z"></path>
<path fill="#fff" d="M18.878 2.972c0.1 0.074 0.198 0.15 0.296 0.226-2.542 2.532-5.057 5.093-7.622 7.601-0.125-0.044-0.25-0.088-0.373-0.131 2.569-2.562 5.132-5.131 7.699-7.696z"></path>
<path fill="#fff" d="M12.287 10.792c2.407-2.434 4.837-4.847 7.259-7.267 0.070 0.059 0.208 0.176 0.277 0.235-2.366 2.365-4.723 4.74-7.102 7.093-0.145-0.020-0.29-0.041-0.434-0.061z"></path>
<path fill="#fff" d="M13.32 10.985c2.258-2.311 4.564-4.576 6.845-6.865 0.065 0.062 0.194 0.185 0.259 0.246-2.113 2.158-4.27 4.276-6.398 6.418-0.169 0.224-0.458 0.184-0.706 0.202z"></path>
<path fill="#fff" d="M20.719 4.771c0.086 0.088 0.173 0.176 0.259 0.265-1.957 1.958-3.912 3.919-5.874 5.872-0.373 0.217-0.882 0.422-0.924 0.923l-0.005-0.001c-0.125-0.034-0.248-0.068-0.373-0.102 0.066-0.006 0.198-0.018 0.264-0.024 0.178-0.275 0.48-0.475 0.55-0.81 2.020-2.056 4.078-4.073 6.103-6.122z"></path>
<path fill="#fff" d="M15.5 11.206c1.931-1.914 3.844-3.846 5.772-5.762 2.324 3.24 2.732 7.722 1.027 11.327-1.642 3.596-5.278 6.194-9.223 6.527-2.68 0.268-5.434-0.468-7.626-2.030 2.010-2.009 4.007-4.031 6.034-6.022 1.092 0.004 2.185 0.044 3.275-0.014 0.977-0.090 1.663-0.931 1.897-1.831 0.976-0.052 2.041-0.048 2.794 0.677 1.166-0.162 1.156-1.896 0.007-2.075-0.762 0.748-1.853 0.732-2.844 0.676-0.204-0.599-0.565-1.138-1.112-1.471z"></path>
<path fill="#fff" d="M14.021 12.694c0.299-0.302 0.598-0.605 0.907-0.898 0.377 0.204 0.691 0.5 0.894 0.88-0.6 0.017-1.201 0.012-1.801 0.018z"></path>
<path fill="#fff" d="M9.065 13.026c0.18-0.388 0.42-0.828 0.848-0.974 0.106-0.005 0.319-0.014 0.426-0.019-0.312 0.283-0.562 0.715-1.019 0.76-0.157 0.211-0.319 0.42-0.52 0.592-0.164 0.139-0.32 0.289-0.462 0.451-1.531 1.928-3.43 3.557-5.14 5.339-0.073-0.101-0.146-0.203-0.22-0.304 1.51-1.508 3.016-3.020 4.528-4.525 0.662-0.23 1.042-0.875 1.558-1.319z"></path>
<path fill="#fff" d="M10.381 12.684c0.251-0.232 0.458-0.52 0.752-0.697 0.118-0.008 0.35-0.026 0.468-0.035-0.24 0.259-0.456 0.563-0.767 0.74-0.151 0-0.302-0.004-0.454-0.008z"></path>
<path fill="#fff" d="M8.429 14.946c0.211-0.661 0.784-1.084 1.26-1.548 0.118 0.001 0.353 0.004 0.472 0.005-0.362 0.407-0.761 0.78-1.145 1.166-0.085-0.004-0.256-0.011-0.341-0.014-0.142 0.289-0.244 0.611-0.48 0.84-1.478 1.47-2.946 2.951-4.427 4.42-0.060-0.067-0.181-0.203-0.242-0.27 1.524-1.532 3.053-3.060 4.585-4.585 0.079-0.002 0.239-0.010 0.318-0.013z"></path>
<path fill="#fff" d="M12.182 14.531c0.38-0.379 0.756-0.763 1.142-1.136 0.833 0 1.666-0.013 2.5 0.010-0.182 0.491-0.502 1.031-1.075 1.1-0.852 0.077-1.711 0.013-2.567 0.026z"></path>
<path fill="#fff" d="M4.124 20.159c1.662-1.655 3.301-3.332 4.985-4.964 0.124-0.001 0.372-0.005 0.496-0.006-1.734 1.753-3.48 3.494-5.23 5.232-0.062-0.065-0.188-0.197-0.251-0.262z"></path>
<path fill="#fff" d="M4.763 20.737c1.85-1.847 3.686-3.709 5.554-5.539 0.126-0.002 0.378-0.007 0.504-0.008-1.915 1.931-3.842 3.851-5.767 5.772-0.073-0.056-0.218-0.168-0.29-0.224z"></path>
<path fill="#666" d="M4.4 8.521c0.017-0.269-0.061-0.643 0.288-0.72 0.15 1.157 0.877 2.309 2.075 2.578 1.218 0.211 2.464 0.185 3.692 0.317-0.485 0.476-0.935 0.994-1.447 1.439-1.092 0.137-2.342-0.055-3.244 0.712-0.706 0.523-0.956 1.398-1.079 2.225-0.319-0.078-0.277-0.413-0.286-0.667 0.007-1.961 0.008-3.922 0-5.882z"></path>
<path fill="#666" d="M14.928 11.796c0.187-0.199 0.378-0.396 0.572-0.59 0.547 0.334 0.908 0.872 1.112 1.471 0.991 0.056 2.082 0.072 2.844-0.676 1.148 0.179 1.159 1.913-0.007 2.075-0.752-0.725-1.818-0.728-2.794-0.677-0.234 0.9-0.92 1.741-1.897 1.831-1.090 0.059-2.183 0.018-3.275 0.014 0.226-0.246 0.457-0.485 0.698-0.714 0.856-0.013 1.715 0.050 2.567-0.026 0.574-0.070 0.893-0.61 1.075-1.1-0.834-0.023-1.667-0.010-2.5-0.010 0.226-0.239 0.458-0.473 0.696-0.701 0.6-0.006 1.201-0.001 1.801-0.018-0.203-0.379-0.517-0.676-0.894-0.88z"></path>
<path fill="#646464" d="M9.913 12.052c0.322-0.544 0.84-0.926 1.266-1.384 0.124 0.043 0.248 0.086 0.373 0.131-0.385 0.43-0.794 0.836-1.213 1.234-0.107 0.005-0.32 0.014-0.426 0.019z"></path>
<path fill="#696969" d="M12.264 10.788l0.023 0.004c0.144 0.020 0.289 0.041 0.434 0.061-0.384 0.352-0.703 0.8-1.12 1.099-0.118 0.008-0.35 0.026-0.468 0.035 0.342-0.431 0.754-0.799 1.13-1.199z"></path>
<path fill="#ececec" d="M12.803 12.703c0.317-0.342 0.641-0.678 1-0.976 0.125 0.034 0.248 0.068 0.373 0.102-0.295 0.324-0.602 0.64-0.941 0.918-0.108-0.011-0.324-0.034-0.432-0.044z"></path>
<path fill="#f2f2f2" d="M11.594 12.688c0.283-0.293 0.569-0.583 0.872-0.853 0.132-0.005 0.395-0.013 0.526-0.017-0.31 0.317-0.619 0.637-0.958 0.924-0.11-0.013-0.33-0.041-0.44-0.054z"></path>
<path fill="#6a6a6a" d="M9.689 13.398c0.223-0.245 0.454-0.484 0.692-0.714 0.151 0.005 0.302 0.008 0.454 0.008-0.214 0.244-0.394 0.542-0.674 0.71-0.119-0.001-0.354-0.004-0.472-0.005z"></path>
<path fill="#6a6a6a" d="M10.916 13.38c0.222-0.235 0.448-0.466 0.678-0.692 0.11 0.013 0.33 0.041 0.44 0.054-0.212 0.234-0.428 0.466-0.646 0.696l-0.032-0.004c-0.146-0.019-0.294-0.037-0.44-0.054z"></path>
<path fill="#6b6b6b" d="M12.119 13.391c0.222-0.235 0.451-0.463 0.684-0.688 0.108 0.011 0.324 0.034 0.432 0.044-0.217 0.218-0.394 0.504-0.652 0.668-0.155-0.007-0.31-0.014-0.464-0.025z"></path>
<path fill="#e3e3e3" d="M8.339 13.835c0.142-0.162 0.298-0.312 0.462-0.451 0.156 0.2-0.263 0.622-0.462 0.451z"></path>
<path fill="#f9f9f9" d="M9.702 14.581c0.401-0.404 0.796-0.815 1.214-1.201 0.146 0.017 0.294 0.035 0.44 0.054-0.368 0.392-0.75 0.775-1.144 1.144-0.128 0.001-0.384 0.002-0.511 0.004z"></path>
<path fill="#f7f7f7" d="M10.914 14.594c0.39-0.413 0.79-0.817 1.205-1.204 0.155 0.011 0.31 0.018 0.464 0.025-0.521 0.428-0.888 1.276-1.669 1.178z"></path>
</svg>
