<!-- Generated by IcoMoon.io -->
<svg version="1.1" xmlns="http://www.w3.org/2000/svg" width="24" height="24" viewBox="0 0 24 24">
<title>regulatory--no-u-turn--g1</title>
<path fill="#da251d" d="M10.508 0h2.995c2.625 0.414 5.141 1.58 7.024 3.474 1.893 1.883 3.066 4.399 3.474 7.026v3.011c-0.412 2.622-1.582 5.134-3.474 7.015-1.884 1.896-4.406 3.064-7.033 3.474h-2.996c-4.203-0.586-8.046-3.414-9.626-7.385-0.442-0.993-0.651-2.063-0.872-3.121v-2.996c0.414-2.625 1.58-5.141 3.474-7.024 1.886-1.894 4.406-3.065 7.034-3.474M5.604 3.726c0.698 0.763 1.436 1.489 2.164 2.224 0.554 0.583 1.12 1.158 1.697 1.718 1.551 1.582 3.097 3.17 4.656 4.744 0.784 0.798 1.531 1.642 2.385 2.367v0.068c1.194 1.209 2.389 2.417 3.572 3.636 2.050-2.469 2.823-5.93 1.998-9.034-0.696-2.754-2.611-5.151-5.104-6.499-3.522-1.952-8.142-1.638-11.367 0.777M3.743 5.493c-1.519 1.847-2.395 4.234-2.323 6.634-0.028 3.567 2.059 7 5.133 8.765 3.529 2.103 8.279 1.874 11.579-0.576-0.54-0.555-1.075-1.114-1.625-1.66-0.8-0.788-1.505-1.675-2.371-2.395v-0.074c-1.568-1.586-3.094-3.211-4.658-4.8-0.788-0.781-1.519-1.623-2.35-2.358-1.039-1.243-2.261-2.359-3.384-3.537z"></path>
<path fill="#fff" d="M5.604 3.726c3.225-2.415 7.845-2.729 11.367-0.777 2.493 1.348 4.408 3.746 5.104 6.499 0.825 3.105 0.052 6.566-1.998 9.034-1.183-1.219-2.378-2.427-3.572-3.636v-0.068c0.006-2.118 0.017-4.236 0.011-6.354-0.026-2.122-1.706-4.037-3.772-4.434-1.856-0.414-3.901 0.389-4.976 1.958-0.728-0.735-1.466-1.46-2.164-2.224z"></path>
<path fill="#fff" d="M3.743 5.493c1.123 1.178 2.345 2.294 3.384 3.537-0.001 1.526-0.020 3.051-0.037 4.578-0.679 0-1.357-0.003-2.036 0.003 1.040 1.864 2.101 3.716 3.148 5.575 1.075-1.852 2.111-3.728 3.161-5.594-0.628-0.010-1.256-0.008-1.884-0.006-0.003-0.733-0.001-1.464-0.001-2.197 1.564 1.589 3.091 3.214 4.658 4.8v0.074c-0.003 1.254 0.003 2.506 0.005 3.76 0.786 0.006 1.573 0.006 2.359 0 0.001-0.454 0.003-0.91 0.006-1.365 0.55 0.545 1.085 1.104 1.625 1.66-3.3 2.45-8.050 2.678-11.579 0.576-3.074-1.766-5.161-5.198-5.133-8.765-0.071-2.4 0.804-4.787 2.323-6.634z"></path>
<path fill="#fff" d="M9.465 7.669c0.446-0.996 1.579-1.621 2.658-1.412 1.089 0.161 2.057 1.157 1.997 2.289-0.005 1.289 0.006 2.577 0.001 3.867-1.559-1.574-3.105-3.162-4.656-4.744z"></path>
<path fill="#211c19" d="M7.768 5.95c1.075-1.569 3.12-2.372 4.976-1.958 2.067 0.397 3.747 2.312 3.772 4.434 0.005 2.118-0.005 4.236-0.011 6.354-0.854-0.725-1.601-1.569-2.385-2.367 0.005-1.289-0.006-2.577-0.001-3.867 0.060-1.132-0.908-2.128-1.997-2.289-1.079-0.209-2.212 0.416-2.658 1.412-0.577-0.56-1.143-1.135-1.697-1.718z"></path>
<path fill="#1f1a17" d="M7.127 9.031c0.831 0.735 1.563 1.577 2.35 2.358 0 0.733-0.001 1.464 0.001 2.197 0.628-0.001 1.256-0.004 1.884 0.006-1.049 1.866-2.086 3.742-3.161 5.594-1.047-1.859-2.108-3.711-3.148-5.575 0.679-0.005 1.357-0.003 2.036-0.003 0.017-1.527 0.036-3.052 0.037-4.578z"></path>
<path fill="#1f1a17" d="M14.136 16.263c0.866 0.72 1.57 1.607 2.371 2.395-0.004 0.454-0.005 0.91-0.006 1.365-0.786 0.006-1.573 0.006-2.359 0-0.003-1.254-0.008-2.506-0.005-3.76z"></path>
</svg>
