<!-- Generated by IcoMoon.io -->
<svg version="1.1" xmlns="http://www.w3.org/2000/svg" width="24" height="24" viewBox="0 0 24 24">
<title>regulatory--stop--g4</title>
<path fill="#d20000" d="M11.176 0h1.62c1.478 0.17 2.951 0.491 4.3 1.136 3.838 1.752 6.497 5.639 6.905 9.82v2.052c-0.382 4.164-3.007 8.044-6.808 9.823-1.294 0.646-2.717 0.954-4.136 1.169h-2.064c-1.468-0.209-2.935-0.54-4.265-1.217-3.872-1.856-6.511-5.906-6.727-10.187v-1.38c0.174-1.51 0.504-3.016 1.181-4.385 1.795-3.864 5.768-6.497 9.995-6.832M2.956 7.962c-1.141 2.539-1.14 5.558 0.004 8.096 1.544 3.536 5.299 5.952 9.162 5.861 3.786 0 7.421-2.396 8.938-5.861 1.144-2.539 1.144-5.556 0.004-8.096-1.529-3.508-5.23-5.92-9.062-5.861-3.826-0.052-7.519 2.357-9.044 5.861z"></path>
<path fill="#fff" d="M2.956 7.962c1.525-3.504 5.219-5.912 9.044-5.861 3.833-0.059 7.534 2.353 9.062 5.861-6.036-0.002-12.071 0-18.107 0z"></path>
<path fill="#fff" d="M4.327 9.972c0.905-0.497 2.305-0.346 2.809 0.65-0.229 0.090-0.458 0.179-0.688 0.266-0.416-0.524-1.247-0.587-1.796-0.247-0.257 0.139-0.389 0.598-0.035 0.704 0.718 0.257 1.588 0.142 2.189 0.686 0.606 0.523 0.412 1.578-0.256 1.962-0.928 0.562-2.394 0.433-2.959-0.584 0.227-0.095 0.454-0.188 0.682-0.281 0.419 0.5 1.168 0.552 1.742 0.328 0.378-0.125 0.587-0.722 0.191-0.952-0.701-0.395-1.634-0.152-2.263-0.725-0.565-0.523-0.253-1.494 0.384-1.808z"></path>
<path fill="#fff" d="M7.841 9.714c1.204-0.004 2.407-0.002 3.611-0.001 0 0.229 0 0.457 0.001 0.686-0.472 0-0.942 0.001-1.414 0.002-0.008 1.306 0.007 2.612-0.007 3.918-0.258 0-0.517-0.001-0.775 0-0.004-1.306 0.002-2.612-0.002-3.918-0.472-0.001-0.943-0.002-1.414-0.002 0.001-0.228 0.001-0.457 0-0.685z"></path>
<path fill="#fff" d="M13.234 9.754c0.834-0.090 1.93-0.215 2.456 0.605 0.475 0.737 0.208 1.668 0.268 2.492-0.001 1.032-1.098 1.644-2.038 1.466-0.986 0.16-1.95-0.709-1.822-1.716-0.044-1.030-0.157-2.545 1.135-2.848M13.351 10.475c-0.784 0.277-0.427 1.262-0.508 1.885-0.079 0.498 0.061 1.228 0.703 1.204 0.559-0.019 1.447 0.204 1.646-0.521 0.042-0.691 0.049-1.393-0.005-2.083-0.256-0.758-1.231-0.499-1.837-0.485z"></path>
<path fill="#fff" d="M16.662 9.714c0.99 0.035 1.996-0.085 2.976 0.067 0.961 0.278 1.018 1.776 0.085 2.135-0.734 0.214-1.524 0.048-2.28 0.101-0.001 0.768 0.002 1.535-0.001 2.303-0.26-0.001-0.521-0.001-0.78 0-0.004-1.536-0.002-3.071 0-4.606M17.444 10.434c-0.001 0.287-0.001 0.574 0 0.86 0.624-0.007 1.249 0.024 1.873-0.012 0.438-0.052 0.436-0.788-0.005-0.833-0.622-0.044-1.246-0.007-1.868-0.016z"></path>
<path fill="#fff" d="M2.959 16.058c6.034-0.001 12.066 0 18.1 0-1.517 3.464-5.152 5.861-8.938 5.861-3.863 0.091-7.618-2.324-9.162-5.861z"></path>
<path fill="#000" d="M2.956 7.962c6.036 0 12.071-0.002 18.107 0 1.14 2.54 1.14 5.557-0.004 8.096-6.034 0-12.066-0.001-18.1 0-1.144-2.538-1.145-5.557-0.004-8.096M4.327 9.972c-0.637 0.314-0.949 1.285-0.384 1.808 0.629 0.572 1.562 0.33 2.263 0.725 0.396 0.229 0.187 0.827-0.191 0.952-0.575 0.224-1.324 0.173-1.742-0.328-0.228 0.092-0.455 0.186-0.682 0.281 0.565 1.018 2.032 1.146 2.959 0.584 0.667-0.384 0.862-1.439 0.256-1.962-0.601-0.545-1.471-0.43-2.189-0.686-0.354-0.107-0.222-0.565 0.035-0.704 0.55-0.34 1.38-0.277 1.796 0.247 0.229-0.088 0.458-0.176 0.688-0.266-0.504-0.996-1.904-1.147-2.809-0.65M7.841 9.714c0.001 0.228 0.001 0.457 0 0.685 0.47 0 0.942 0.001 1.414 0.002 0.005 1.306-0.001 2.612 0.002 3.918 0.258-0.001 0.517 0 0.775 0 0.014-1.306-0.001-2.612 0.007-3.918 0.472-0.001 0.942-0.002 1.414-0.002-0.001-0.229-0.001-0.457-0.001-0.686-1.204-0.001-2.407-0.002-3.611 0.001M13.234 9.754c-1.292 0.302-1.18 1.818-1.135 2.848-0.128 1.007 0.835 1.876 1.822 1.716 0.94 0.178 2.036-0.434 2.038-1.466-0.060-0.824 0.208-1.756-0.268-2.492-0.527-0.82-1.622-0.695-2.456-0.605M16.662 9.714c-0.002 1.535-0.004 3.070 0 4.606 0.259-0.001 0.52-0.001 0.78 0 0.004-0.768 0-1.535 0.001-2.303 0.756-0.053 1.546 0.113 2.28-0.101 0.932-0.359 0.876-1.856-0.085-2.135-0.98-0.152-1.986-0.032-2.976-0.067z"></path>
<path fill="#000" d="M13.351 10.475c0.606-0.014 1.582-0.274 1.837 0.485 0.054 0.69 0.047 1.392 0.005 2.083-0.199 0.725-1.087 0.502-1.646 0.521-0.642 0.024-0.782-0.706-0.703-1.204 0.080-0.623-0.276-1.608 0.508-1.885z"></path>
<path fill="#000" d="M17.444 10.434c0.623 0.008 1.247-0.029 1.868 0.016 0.44 0.044 0.443 0.781 0.005 0.833-0.624 0.036-1.249 0.005-1.873 0.012-0.001-0.287-0.001-0.574 0-0.86z"></path>
</svg>
