<!-- Generated by IcoMoon.io -->
<svg version="1.1" xmlns="http://www.w3.org/2000/svg" width="24" height="24" viewBox="0 0 24 24">
<title>regulatory--no-straight-through--g1</title>
<path fill="#fafbfb" d="M11.424 0v0l-0.002 0.069c0.015-0.018 0.049-0.052 0.065-0.069h0.634c0.012 0.011 0.034 0.033 0.046 0.044l0.014-0.044h0.288c0.017 0.011 0.048 0.032 0.064 0.043l-0.014-0.043h0.050c2.729 0.358 5.538 1.31 7.476 3.361 1.611 1.497 2.716 3.486 3.299 5.596 0.157 0.746 0.238 1.509 0.418 2.248v1.742c-0.011 0.015-0.032 0.048-0.043 0.063l0.043-0.013v0.064c-0.329 0.399-0.139 0.909-0.302 1.359-0.896 4.302-4.283 8.063-8.584 9.124-0.629 0.232-1.307 0.257-1.943 0.456h-0.006c-0.048-0.188-0.119-0.188-0.214 0h-0.958c-0.011-0.011-0.034-0.033-0.045-0.045l-0.014 0.045h-0.289c-0.017-0.011-0.049-0.033-0.065-0.044l0.013 0.044h-0.278c-0.586-0.196-1.212-0.206-1.808-0.359-3.084-0.676-5.711-2.783-7.455-5.357-1.101-1.67-1.547-3.646-1.814-5.591v-0.118c0.187-0.051 0.187-0.122 0-0.216v-0.953c0.011-0.017 0.033-0.049 0.044-0.064l-0.044 0.013v-0.278c0.336-1.008 0.236-2.129 0.749-3.084 1.125-3.191 3.728-5.743 6.81-7.076 1.246-0.468 2.569-0.697 3.865-0.916M10.495 0.519c-2.885 0.337-5.549 1.9-7.39 4.125-2.97 3.322-3.517 8.475-1.541 12.434 0.645 1.404 1.713 2.557 2.83 3.601 2.661 2.456 6.569 3.441 10.082 2.59 4.583-1.024 8.181-5.134 8.76-9.766 0.626-4.167-1.31-8.545-4.72-10.987-2.305-1.623-5.219-2.395-8.021-1.997z"></path>
<path fill="#c44c3c" d="M10.495 0.519c2.802-0.398 5.716 0.374 8.021 1.997 3.41 2.442 5.347 6.82 4.72 10.987-0.579 4.632-4.177 8.742-8.76 9.766-3.513 0.851-7.421-0.134-10.082-2.59-1.117-1.044-2.185-2.197-2.83-3.601-1.976-3.959-1.429-9.112 1.541-12.434 1.842-2.225 4.505-3.788 7.39-4.125M6.068 4.751c0.93 0.974 1.878 1.931 2.842 2.872-0.44 0.474-1.059 0.948-0.87 1.685-1.119-1.054-2.108-2.246-3.259-3.261-0.855 1.043-1.476 2.273-1.811 3.579-1.194 3.86 0.751 8.276 4.125 10.371 3.247 2.070 7.776 1.738 10.69-0.779-1.461-1.51-2.936-3.010-4.41-4.508 0.007-0.841 0.008-1.682 0.006-2.524 1.889 1.906 3.777 3.813 5.663 5.722 2.538-2.963 2.797-7.564 0.781-10.876-1.697-2.825-5.017-4.564-8.299-4.42-1.989 0.091-3.946 0.836-5.457 2.14z"></path>
<path fill="#feffff" d="M6.068 4.751c1.511-1.303 3.468-2.048 5.457-2.14 3.282-0.144 6.602 1.594 8.299 4.42 2.016 3.312 1.757 7.913-0.781 10.876-1.886-1.909-3.773-3.816-5.663-5.722-0.004-0.851-0.007-1.701 0.017-2.552 0.791 0.827 1.578 1.661 2.369 2.488 0.093-1.031-0.011-2.065 0.063-3.096 0.094-0.606-0.442-0.971-0.792-1.368-1.023-1.123-2.041-2.251-3.061-3.379-1.047 1.092-2.025 2.248-3.067 3.345-0.964-0.941-1.912-1.897-2.842-2.872z"></path>
<path fill="#feffff" d="M4.781 6.046c1.151 1.016 2.14 2.208 3.259 3.261 0.029 0.955 0.086 1.91 0.087 2.867 0.444-0.473 0.895-0.941 1.351-1.403 0.356 0.362 0.716 0.724 1.105 1.053 0.046 2.645 0.002 5.291 0.020 7.937 0.912-0.006 1.825 0.002 2.737-0.001 0.029-1.684 0.001-3.367 0.034-5.051 1.474 1.498 2.949 2.998 4.41 4.508-2.913 2.518-7.442 2.849-10.69 0.779-3.374-2.095-5.319-6.511-4.125-10.371 0.335-1.306 0.955-2.535 1.811-3.579z"></path>
<path fill="#1e2125" d="M8.91 7.623c1.042-1.097 2.020-2.253 3.067-3.345 1.019 1.128 2.038 2.256 3.061 3.379 0.35 0.397 0.886 0.762 0.792 1.368-0.074 1.031 0.030 2.065-0.063 3.096-0.791-0.827-1.578-1.661-2.369-2.488-0.024 0.851-0.020 1.701-0.017 2.552 0.002 0.841 0.001 1.682-0.006 2.524-0.033 1.684-0.006 3.367-0.034 5.051-0.912 0.004-1.825-0.005-2.737 0.001-0.018-2.646 0.026-5.292-0.020-7.937 0.008-0.7 0.040-1.401-0.053-2.096-0.366 0.331-0.71 0.686-1.051 1.043-0.456 0.462-0.907 0.93-1.351 1.403-0.001-0.956-0.058-1.912-0.087-2.867-0.189-0.737 0.43-1.211 0.87-1.685z"></path>
<path fill="#c34a36" d="M9.478 10.771c0.341-0.358 0.686-0.712 1.051-1.043 0.094 0.695 0.062 1.396 0.053 2.096-0.389-0.329-0.749-0.69-1.105-1.053z"></path>
</svg>
