<!-- Generated by IcoMoon.io -->
<svg version="1.1" xmlns="http://www.w3.org/2000/svg" width="24" height="24" viewBox="0 0 24 24">
<title>regulatory--buses-and-taxi-only--g1</title>
<path fill="#003688" opacity="0.79" d="M0 0h0.652l-0.137 0.083c-0.166 0.132-0.314 0.284-0.443 0.452l-0.072 0.154v-0.689z"></path>
<path fill="#9ab2d7" opacity="0.96" d="M0.652 0h22.667l0.156 0.067c-1.502 0.11-3.010 0.029-4.514 0.053-6.148-0.024-12.298 0.049-18.445-0.037l0.137-0.083z"></path>
<path fill="#00388a" opacity="0.8" d="M23.318 0h0.682v0.618c-0.144-0.211-0.317-0.403-0.526-0.551l-0.156-0.067z"></path>
<path fill="#fff" d="M0.072 0.535c0.128-0.168 0.277-0.32 0.443-0.452 6.148 0.086 12.298 0.013 18.445 0.037 1.505-0.024 3.012 0.058 4.514-0.053 0.209 0.148 0.382 0.34 0.526 0.551v22.712c-0.121 0.288-0.336 0.523-0.612 0.67h-22.727c-0.235-0.125-0.445-0.293-0.595-0.512 0.124-6.186 0.018-12.379 0.053-18.568-0.020-1.462 0.052-2.926-0.047-4.385M0.648 0.516c-0.206 0.094-0.19 0.365-0.204 0.554 0.005 7.326-0.004 14.653 0.005 21.978-0.041 0.304 0.187 0.57 0.502 0.524 7.364 0.008 14.731 0.007 22.096 0.001 0.322 0.053 0.577-0.205 0.523-0.527 0.005-7.366 0.007-14.731-0.001-22.097 0.043-0.311-0.22-0.538-0.52-0.5-7.284-0.013-14.569 0.004-21.853-0.008-0.182 0.010-0.377-0.005-0.547 0.074z"></path>
<path fill="#fff" d="M3.418 3.064c6.101-0.011 12.202-0.007 18.302-0.002 0.256-0.044 0.463 0.16 0.432 0.416 0.005 1.805 0.018 3.611-0.011 5.416-1.223 0.036-2.446 0.010-3.668 0.017-0.043-0.678-0.392-1.381-1.082-1.59-1.093-0.446-2.371 0.402-2.354 1.591-2.351 0-4.702-0.002-7.051 0.001-0.011-1.018-0.944-1.872-1.967-1.682-0.865 0.055-1.451 0.856-1.486 1.68-0.728-0.007-1.462 0.042-2.185-0.065-0.006-0.85-0.058-1.704 0.017-2.55 0.316-1.087 0.688-2.16 1.054-3.232M3.636 3.918c-0.113 0.656-0.673 1.37-0.467 1.994 1.274 0.066 2.56 0.034 3.838 0.010 0.035-0.665 0.037-1.331-0.004-1.994-1.122-0.035-2.245-0.020-3.367-0.010M7.496 3.922c-0.064 0.666-0.061 1.338-0.006 2.005 1.483 0.028 2.968 0.030 4.45-0.001 0.043-0.667 0.043-1.338-0.010-2.005-1.478-0.019-2.957-0.020-4.434 0.001M12.438 3.926c-0.042 0.665-0.041 1.332-0.004 1.997 1.469 0.034 2.938 0.035 4.406-0.001 0.035-0.664 0.037-1.331-0.004-1.994-1.466-0.031-2.933-0.030-4.399-0.001M17.341 3.922c-0.050 0.667-0.049 1.338-0.006 2.004 1.47 0.025 2.942 0.041 4.412-0.008 0.010-0.654 0.061-1.314-0.028-1.964-1.454-0.096-2.92-0.030-4.379-0.031z"></path>
<path fill="#fff" d="M5.801 7.613c0.713-0.29 1.584 0.184 1.769 0.92 0.222 0.702-0.27 1.501-0.974 1.673-0.697 0.206-1.487-0.281-1.65-0.98-0.188-0.655 0.217-1.394 0.856-1.613z"></path>
<path fill="#fff" d="M16.354 7.592c0.822-0.296 1.796 0.414 1.759 1.288 0.035 0.718-0.606 1.354-1.312 1.373-0.707 0.035-1.368-0.57-1.397-1.278-0.050-0.607 0.368-1.207 0.949-1.382z"></path>
<path fill="#fff" d="M20.801 13.358c0.389-0.206 0.925 0.119 0.904 0.563 0.047 0.502-0.606 0.86-1.001 0.542-0.409-0.246-0.352-0.937 0.097-1.105z"></path>
<path fill="#fff" d="M2.784 13.457c1.66 0.005 3.319 0.004 4.978 0.001-0.002 0.396-0.002 0.793-0.001 1.189-0.613 0-1.228 0.001-1.841 0.001 0 2.066-0.002 4.133 0.001 6.199-0.432 0-0.863 0-1.294 0 0.007-2.066 0-4.133 0.004-6.199-0.616 0-1.23-0.001-1.846 0 0.002-0.397 0.002-0.794-0.001-1.192z"></path>
<path fill="#fff" d="M8.323 15.748c0.834-0.256 1.721-0.437 2.591-0.281 0.842 0.155 1.502 0.95 1.504 1.806 0.016 1.194-0.005 2.389 0.006 3.583-0.565 0.006-1.144-0.103-1.697 0.066-0.958 0.23-2.176-0.174-2.525-1.164-0.372-0.924 0.308-2.069 1.292-2.196 0.614-0.064 1.234-0.017 1.849-0.031-0.061-0.39-0.14-0.9-0.595-1.012-0.692-0.128-1.402 0.019-2.065 0.223-0.119-0.332-0.239-0.664-0.36-0.995M9.415 19.63c0.534 0.474 1.332 0.354 1.894-0.006-0.006-0.395-0.006-0.791-0.007-1.187-0.524 0.008-1.054-0.041-1.577 0.030-0.503 0.103-0.695 0.82-0.31 1.163z"></path>
<path fill="#fff" d="M14.11 15.557c0.444 0 0.889 0 1.333 0 0.302 0.493 0.608 0.984 0.916 1.474 0.306-0.491 0.612-0.982 0.916-1.475 0.444 0.001 0.888 0.001 1.333 0.001-0.524 0.854-1.054 1.706-1.577 2.561 0.563 0.911 1.122 1.824 1.693 2.73-0.432-0.004-0.866 0.028-1.297-0.018-0.434-0.488-0.698-1.103-1.069-1.64-0.344 0.552-0.69 1.104-1.032 1.66-0.442-0.001-0.882-0.001-1.322-0.001 0.565-0.908 1.128-1.819 1.69-2.73-0.524-0.854-1.058-1.705-1.583-2.561z"></path>
<path fill="#fff" d="M20.494 15.557c0.379 0 0.76 0 1.139 0 0.002 1.764-0.001 3.527 0.002 5.291-0.382 0-0.762 0-1.142 0 0.002-1.764-0.001-3.527 0.001-5.291z"></path>
<path fill="#0046ac" d="M0.648 0.516c0.17-0.079 0.365-0.065 0.547-0.074 7.284 0.012 14.569-0.005 21.853 0.008 0.3-0.037 0.563 0.19 0.52 0.5 0.008 7.366 0.006 14.731 0.001 22.097 0.054 0.322-0.202 0.58-0.523 0.527-7.364 0.006-14.731 0.007-22.096-0.001-0.314 0.046-0.542-0.221-0.502-0.524-0.008-7.325 0-14.652-0.005-21.978 0.014-0.19-0.002-0.461 0.204-0.554M3.418 3.064c-0.366 1.072-0.738 2.144-1.054 3.232-0.074 0.846-0.023 1.7-0.017 2.55 0.724 0.107 1.457 0.058 2.185 0.065 0.035-0.824 0.62-1.625 1.486-1.68 1.022-0.19 1.956 0.665 1.967 1.682 2.35-0.004 4.7-0.001 7.051-0.001-0.017-1.189 1.261-2.038 2.354-1.591 0.69 0.209 1.039 0.912 1.082 1.59 1.223-0.007 2.446 0.019 3.668-0.017 0.029-1.805 0.016-3.611 0.011-5.416 0.031-0.257-0.176-0.461-0.432-0.416-6.101-0.005-12.202-0.008-18.302 0.002M5.801 7.613c-0.638 0.218-1.044 0.958-0.856 1.613 0.163 0.7 0.953 1.187 1.65 0.98 0.704-0.172 1.196-0.971 0.974-1.673-0.185-0.737-1.056-1.211-1.769-0.92M16.354 7.592c-0.581 0.175-1 0.775-0.949 1.382 0.029 0.708 0.69 1.313 1.397 1.278 0.706-0.019 1.346-0.655 1.312-1.373 0.037-0.874-0.937-1.584-1.759-1.288M20.801 13.358c-0.449 0.168-0.506 0.859-0.097 1.105 0.395 0.318 1.048-0.041 1.001-0.542 0.022-0.444-0.515-0.769-0.904-0.563M2.784 13.457c0.004 0.397 0.004 0.794 0.001 1.192 0.616-0.001 1.23 0 1.846 0-0.004 2.066 0.004 4.133-0.004 6.199 0.431 0 0.862 0 1.294 0-0.004-2.066-0.001-4.133-0.001-6.199 0.613 0 1.228-0.001 1.841-0.001-0.001-0.396-0.001-0.793 0.001-1.189-1.658 0.002-3.318 0.004-4.978-0.001M8.323 15.748c0.121 0.331 0.241 0.662 0.36 0.995 0.664-0.204 1.373-0.352 2.065-0.223 0.455 0.112 0.534 0.622 0.595 1.012-0.616 0.014-1.235-0.032-1.849 0.031-0.984 0.127-1.664 1.272-1.292 2.196 0.349 0.99 1.567 1.394 2.525 1.164 0.553-0.169 1.132-0.060 1.697-0.066-0.011-1.194 0.010-2.389-0.006-3.583-0.001-0.856-0.661-1.651-1.504-1.806-0.87-0.156-1.757 0.025-2.591 0.281M14.11 15.557c0.524 0.856 1.058 1.706 1.583 2.561-0.562 0.911-1.124 1.822-1.69 2.73 0.44 0 0.881 0 1.322 0.001 0.342-0.556 0.688-1.108 1.032-1.66 0.371 0.538 0.635 1.152 1.069 1.64 0.431 0.046 0.865 0.014 1.297 0.018-0.571-0.906-1.13-1.819-1.693-2.73 0.523-0.854 1.052-1.706 1.577-2.561-0.445 0-0.889 0-1.333-0.001-0.304 0.493-0.61 0.984-0.916 1.475-0.307-0.49-0.613-0.98-0.916-1.474-0.444 0-0.889 0-1.333 0M20.494 15.557c-0.002 1.764 0.001 3.527-0.001 5.291 0.38 0 0.761 0 1.142 0-0.004-1.764 0-3.527-0.002-5.291-0.379 0-0.76 0-1.139 0z"></path>
<path fill="#0046ac" d="M3.636 3.918c1.122-0.011 2.245-0.025 3.367 0.010 0.041 0.664 0.038 1.33 0.004 1.994-1.278 0.024-2.563 0.056-3.838-0.010-0.206-0.624 0.354-1.338 0.467-1.994z"></path>
<path fill="#0046ac" d="M7.496 3.922c1.477-0.022 2.956-0.020 4.434-0.001 0.053 0.667 0.053 1.338 0.010 2.005-1.482 0.031-2.966 0.029-4.45 0.001-0.055-0.667-0.058-1.339 0.006-2.005z"></path>
<path fill="#0046ac" d="M12.438 3.926c1.466-0.029 2.933-0.030 4.399 0.001 0.041 0.664 0.038 1.331 0.004 1.994-1.469 0.036-2.938 0.035-4.406 0.001-0.037-0.665-0.038-1.332 0.004-1.997z"></path>
<path fill="#0046ac" d="M17.341 3.922c1.459 0.001 2.924-0.065 4.379 0.031 0.089 0.65 0.037 1.31 0.028 1.964-1.47 0.049-2.942 0.034-4.412 0.008-0.043-0.666-0.044-1.337 0.006-2.004z"></path>
<path fill="#0046ac" d="M9.415 19.63c-0.385-0.343-0.193-1.060 0.31-1.163 0.523-0.071 1.052-0.022 1.577-0.030 0.001 0.396 0.001 0.792 0.007 1.187-0.562 0.36-1.36 0.48-1.894 0.006z"></path>
<path fill="#0046ac" d="M23.388 24c0.276-0.146 0.491-0.382 0.612-0.67v0.67h-0.612z"></path>
<path fill="#b0c5e2" opacity="0.98" d="M0 0.689l0.072-0.154c0.098 1.459 0.026 2.923 0.047 4.385-0.035 6.188 0.071 12.382-0.053 18.568l-0.066-0.144v-22.655z"></path>
<path fill="#003c92" opacity="0.86" d="M0 23.344l0.066 0.144c0.15 0.22 0.36 0.388 0.595 0.512h-0.661v-0.656z"></path>
</svg>
