<?xml version="1.0" encoding="utf-8"?>
<!-- Generated by IcoMoon.io -->
<!DOCTYPE svg PUBLIC "-//W3C//DTD SVG 1.1//EN" "http://www.w3.org/Graphics/SVG/1.1/DTD/svg11.dtd">
<svg version="1.1" xmlns="http://www.w3.org/2000/svg" xmlns:xlink="http://www.w3.org/1999/xlink" width="24" height="24" viewBox="0 0 24 24">
<path fill="#c8141e" d="M11.837 0h0.313c2.867 0.040 5.706 1.126 7.838 3.046 2.384 2.106 3.845 5.186 4.012 8.36v1.165c-0.145 2.809-1.285 5.56-3.217 7.612-2.112 2.293-5.148 3.682-8.261 3.817h-1.086c-3.012-0.151-5.947-1.464-8.039-3.64-2.15-2.188-3.382-5.226-3.397-8.291v-0.131c0.014-3.179 1.344-6.329 3.64-8.532 2.165-2.13 5.162-3.362 8.197-3.407M9.173 2.831c-1.828 0.563-3.47 1.688-4.667 3.178 4.999-0.001 9.998 0 14.998 0-0.912-1.133-2.077-2.063-3.394-2.683-2.142-1.024-4.67-1.196-6.937-0.494M5.771 8.408c2.078 3.599 4.152 7.2 6.235 10.796 2.081-3.598 4.157-7.198 6.235-10.795-4.157-0.004-8.314 0-12.47-0.001M3.056 8.496c-0.533 1.416-0.758 2.951-0.604 4.458 0.209 2.216 1.231 4.34 2.824 5.893 1.423 1.41 3.301 2.346 5.28 2.65-2.497-4.336-5.008-8.663-7.5-13.001M13.453 21.498c3.164-0.461 6.007-2.621 7.302-5.544 1.062-2.324 1.118-5.069 0.197-7.448-2.497 4.332-4.999 8.662-7.499 12.992z"></path>
<path fill="#fff" d="M9.173 2.831c2.267-0.702 4.795-0.529 6.937 0.494 1.316 0.62 2.482 1.55 3.394 2.683-4.999 0-9.998-0.001-14.998 0 1.196-1.489 2.839-2.615 4.667-3.178z"></path>
<path fill="#fff" d="M5.771 8.408c4.157 0.001 8.314-0.002 12.47 0.001-2.078 3.598-4.154 7.198-6.235 10.795-2.083-3.596-4.157-7.198-6.235-10.796z"></path>
<path fill="#fff" d="M3.056 8.496c2.492 4.338 5.003 8.665 7.5 13.001-1.979-0.304-3.857-1.24-5.28-2.65-1.592-1.553-2.615-3.677-2.824-5.893-0.155-1.507 0.071-3.042 0.604-4.458z"></path>
<path fill="#fff" d="M13.453 21.498c2.5-4.331 5.002-8.66 7.499-12.992 0.922 2.38 0.865 5.124-0.197 7.448-1.295 2.923-4.138 5.083-7.302 5.544z"></path>
</svg>
