<svg xmlns="http://www.w3.org/2000/svg" width="24" height="24">
    <path fill="#0e518d" d="M10.708 0h2.571c2.207.327 4.367 1.121 6.121 2.524-1.664 1.673-3.338 3.336-5.004 5.007-2.415.008-4.829 0-7.244.004-.044 1.658.038 3.319-.091 4.973-.342-1.23-.32-2.528-.512-3.786l-2.858-.001c-.404.952-.856 1.887-1.222 2.854-.104.738.171 1.474.194 2.215-.284.203-.371.52-.368.853a86.15 86.15 0 0 0 1.833-.001c.096-.824.836-1.476 1.681-1.346.778.005 1.291.683 1.422 1.393l-.182.183c-.033-.69-.517-1.374-1.249-1.414-.899-.125-1.722.819-1.44 1.693.141.633.762.945 1.346 1.056-1.058 1.068-2.123 2.128-3.187 3.191-1.399-1.75-2.189-3.906-2.52-6.105v-2.571c.189-.973.359-1.957.719-2.887C2.224 3.601 6.268.528 10.707.001zM18.024 7.53c1.071-1.075 2.14-2.151 3.22-3.219 1.535 1.801 2.412 4.072 2.756 6.396v2.574c-.521 4.443-3.596 8.494-7.833 10.004-.895.349-1.846.509-2.78.716h-2.749c-2.298-.364-4.545-1.232-6.327-2.756 2.207-2.222 4.429-4.429 6.64-6.649.789-.015 1.578-.017 2.368-.025.393-1.676 2.395-1.377 3.695-1.395 1.043-.137 2.391.165 2.521 1.412.711.009 1.423.008 2.134.004.004-2.353.001-4.704.001-7.055-1.216-.007-2.432.003-3.646-.007zm-3.609 5.989c-.909.322-1.137 1.651-.393 2.26.717.715 2.077.247 2.229-.746.251-1.006-.897-1.941-1.836-1.514zm3.159-.024c-1.017.291-1.225 1.804-.345 2.38.791.622 2.086.022 2.136-.978.129-.939-.909-1.745-1.791-1.402z"/>
    <path fill="#0e518d" d="M4.147 9.394c.609-.007 1.22-.008 1.83-.004.046.69.076 1.381.108 2.072-.922.003-1.844.001-2.764.001.272-.69.554-1.377.825-2.069z"/>
    <path fill="#c1121c" d="M19.4 2.524c.674.53 1.292 1.131 1.844 1.787-1.08 1.068-2.149 2.144-3.22 3.219-2.363 2.35-4.713 4.714-7.073 7.065-2.21 2.219-4.432 4.427-6.64 6.649a12.656 12.656 0 0 1-1.791-1.846c1.064-1.063 2.13-2.123 3.187-3.191.448-.444.898-.887 1.342-1.336l.182-.183c2.391-2.383 4.776-4.771 7.164-7.156 1.667-1.671 3.34-3.334 5.004-5.007z"/>
    <path fill="#fff" d="M7.153 7.535c2.415-.004 4.829.004 7.244-.004-2.388 2.385-4.774 4.774-7.164 7.156-.131-.709-.644-1.387-1.422-1.393-.845-.129-1.585.522-1.681 1.346-.611.008-1.221.007-1.833.001-.003-.334.084-.65.368-.853-.022-.741-.298-1.477-.194-2.215.367-.967.819-1.902 1.222-2.854l2.858.001c.191 1.258.17 2.556.512 3.786.129-1.654.047-3.315.091-4.973zM4.147 9.394c-.272.692-.554 1.379-.825 2.069.92 0 1.842.001 2.764-.001-.032-.691-.062-1.382-.108-2.072-.611-.004-1.221-.003-1.83.004zM10.95 14.595c2.36-2.351 4.71-4.716 7.073-7.065 1.215.009 2.43 0 3.646.007 0 2.351.003 4.702-.001 7.055-.711.004-1.423.005-2.134-.004-.131-1.247-1.478-1.549-2.521-1.412-1.3.018-3.302-.281-3.695 1.395-.79.008-1.58.011-2.368.025z"/>
    <path fill="#fff" d="M4.361 15.15c-.282-.874.541-1.818 1.44-1.693.732.04 1.216.724 1.249 1.414-.444.448-.894.891-1.342 1.336-.584-.111-1.205-.423-1.346-1.056zM14.415 13.519c.939-.427 2.086.508 1.836 1.514-.152.993-1.511 1.461-2.229.746-.744-.609-.516-1.938.393-2.26zM17.574 13.495c.882-.343 1.92.463 1.791 1.402-.05 1.001-1.345 1.601-2.136.978-.88-.576-.671-2.089.345-2.38z"/>
</svg>
