<?xml version="1.0" encoding="utf-8"?>
<!-- Generated by IcoMoon.io -->
<!DOCTYPE svg PUBLIC "-//W3C//DTD SVG 1.1//EN" "http://www.w3.org/Graphics/SVG/1.1/DTD/svg11.dtd">
<svg version="1.1" xmlns="http://www.w3.org/2000/svg" xmlns:xlink="http://www.w3.org/1999/xlink" width="24" height="24" viewBox="0 0 24 24">
<path fill="#e41408" d="M9.006 0.378c2.704-0.704 5.65-0.409 8.168 0.798 2.503 1.198 4.559 3.296 5.708 5.821 1.26 2.731 1.426 5.944 0.462 8.792-0.856 2.564-2.61 4.819-4.891 6.27-2.006 1.303-4.416 1.976-6.808 1.897-3.276-0.062-6.474-1.585-8.638-4.038-1.786-1.998-2.828-4.604-3.008-7.271v-1.289c0.139-2.041 0.745-4.062 1.858-5.786 1.607-2.555 4.213-4.472 7.148-5.195M10.49 3.32c-2.726 0.443-5.165 2.279-6.38 4.753-1.048 2.093-1.201 4.609-0.42 6.815 0.472 1.358 1.29 2.592 2.351 3.562 1.687 1.568 4.014 2.418 6.314 2.31 2.12-0.082 4.198-0.973 5.72-2.452 2.416-2.264 3.323-5.956 2.251-9.086-0.744-2.278-2.467-4.214-4.644-5.214-1.606-0.76-3.446-0.977-5.192-0.688z"></path>
<path fill="#fff" d="M10.49 3.32c1.746-0.289 3.587-0.072 5.192 0.688 2.177 1 3.9 2.936 4.644 5.214 1.072 3.131 0.164 6.822-2.251 9.086-1.523 1.478-3.6 2.37-5.72 2.452-2.3 0.108-4.627-0.742-6.314-2.31-1.061-0.97-1.879-2.203-2.351-3.562-0.781-2.206-0.628-4.722 0.42-6.815 1.216-2.474 3.654-4.31 6.38-4.753M9.947 5.299c-0.551 0.119-0.888 0.611-1.271 0.979-0.343 0.304-0.43 0.77-0.595 1.177 0.362 0.066 0.574 0.419 0.925 0.509 0.215 0.066 0.454 0.108 0.583 0.312 0.224 0.343 0.649 0.374 1.006 0.487-0.343 0.092-0.732 0.079-1.004 0.34-0.38 0.383-0.972 0.246-1.418 0.508 0.082 0.044 0.163 0.088 0.247 0.128 0.17-0.070 0.346-0.126 0.526-0.167-0.235 0.272-0.587 0.379-0.902 0.109l0.162 0.33c-0.050-0.085-0.102-0.169-0.155-0.253l-0.184 0.175c0.044-0.353 0.072-0.708 0.098-1.062 0.022-0.443 0.209-0.88 0.068-1.322-0.301 0.503-0.289 1.112-0.266 1.679-0.034 0.611-0.199 1.207-0.221 1.819-0.040 0.834-0.054 1.669-0.035 2.504 0.014 0.7 0.247 1.366 0.41 2.039 0.106 0.391 0.164 0.811 0.426 1.136 0.148 0.607 0.778 0.82 1.142 1.264 1.116 0.64 2.461 0.556 3.706 0.548 0.372-0.048 0.904 0.082 1.044-0.388 0.052 0.010 0.157 0.029 0.21 0.038 0.364-0.317 0.822-0.542 1.070-0.974 0.265-0.449 0.63-0.856 0.75-1.375 0.439-1.436 0.487-2.951 0.576-4.44 0.030-0.72 0.142-1.472-0.119-2.166-0.227-0.619-0.283-1.309-0.66-1.867-0.203-0.628-0.61-1.153-1.1-1.582-0.449-0.316-1.020-0.317-1.537-0.43-1.151-0.13-2.348-0.44-3.482-0.056z"></path>
<path fill="#fff" d="M10.673 5.455c0.673-0.019 1.362-0.070 2.026 0.074-0.464 0.080-0.68 0.505-1.048 0.725-0.11-0.12-0.199-0.256-0.295-0.385-0.246-0.107-0.479-0.239-0.683-0.414z"></path>
<path fill="#fff" d="M9.148 6.030c0.29-0.218 0.612-0.396 0.928-0.576 0.187-0.060 0.323 0.116 0.457 0.212 0.295 0.247 0.605 0.479 0.877 0.752-0.37 0.028-0.778-0.056-1.102 0.167-0.331 0.23-0.754 0.115-1.123 0.215-0.27 0.108-0.53 0.245-0.826 0.271 0.245-0.361 0.514-0.704 0.788-1.042z"></path>
<path fill="#fff" d="M12.995 5.548c0.067 0.079 0.067 0.079 0 0z"></path>
<path fill="#fff" d="M12.464 6.060c0.31-0.347 0.808-0.365 1.219-0.522 0.077 0.626 0.131 1.279-0.005 1.9-0.181 0.064-0.374 0.085-0.554 0.154-0.208 0.163-0.308 0.42-0.456 0.632-0.349-0.587-0.632-1.222-0.772-1.892 0.094-0.024 0.282-0.073 0.377-0.097 0-0.097 0-0.292 0-0.389 0.065 0.071 0.128 0.143 0.191 0.215z"></path>
<path fill="#fff" d="M14.016 5.567c0.564 0.318 1.297 0.588 1.495 1.272 0.020 0.487-0.236 0.932-0.466 1.345-0.154-0.157-0.28-0.336-0.413-0.509-0.21-0.086-0.421-0.166-0.634-0.245-0.007-0.622-0.059-1.244 0.017-1.864z"></path>
<path fill="#fff" d="M10.583 6.719c0.025-0.161 0.114-0.193 0.266-0.098-0.028 0.161-0.116 0.193-0.266 0.098z"></path>
<path fill="#fff" d="M10.858 6.881c0.211-0.071 0.408-0.178 0.613-0.263-0.113 0.179-0.235 0.352-0.358 0.524 0.042 0.032 0.127 0.097 0.169 0.13-0.048-0.011-0.145-0.034-0.193-0.044-0.092 0.473-0.362 0.888-0.398 1.375-0.307-0.366-0.695-0.653-1.192-0.67-0.18-0.264-0.409-0.486-0.658-0.683 0.336-0.017 0.702 0.023 1-0.17 0.304-0.2 0.679-0.124 1.016-0.199z"></path>
<path fill="#fff" d="M11.67 6.695c0.34 0.526 0.637 1.104 0.737 1.727-0.037 0.481-0.272 0.926-0.338 1.406-0.4-0.335-0.815-0.677-1.092-1.124 0.046-0.328 0.24-0.632 0.277-0.971 0.16-0.337 0.325-0.673 0.416-1.038z"></path>
<path fill="#fff" d="M9.186 7.051c0.010-0.16 0.289-0.196 0.395-0.103-0.008 0.163-0.289 0.198-0.395 0.103z"></path>
<path fill="#fff" d="M15.25 8.398c0.077-0.436 0.271-0.84 0.442-1.246 0.343 0.606 0.667 1.261 0.721 1.961-0.166 0.416-0.547 0.697-0.907 0.938-0.024-0.276-0.029-0.552-0.062-0.826-0.074-0.274-0.264-0.532-0.193-0.828z"></path>
<path fill="#fff" d="M8.788 7.562c0.112-0.098 0.362 0.042 0.282 0.19-0.112 0.090-0.367-0.041-0.282-0.19z"></path>
<path fill="#fff" d="M13.235 8.059c0.216-0.2 0.475-0.506 0.802-0.328 0.424 0.287 0.913 0.607 1.001 1.156 0.047 0.6 0.341 1.166 0.268 1.776-0.125 0.58 0.185 1.153-0.004 1.734 0.092 0.041 0.275 0.122 0.367 0.164-0.041-0.2-0.283-0.569 0.065-0.618 0.277-0.050 0.572-0.050 0.839 0.052 0.026 0.727-0.097 1.47-0.199 2.195-0.325-0.36-1.014-0.707-0.809-1.285 0.024-0.076 0.071-0.228 0.094-0.305-0.076 0.029-0.228 0.086-0.305 0.115l0.005-0.229-0.1 0.018c-0.008 0.559 0.048 1.158-0.301 1.64l0.235-0.144c0.019 0.032 0.058 0.1 0.077 0.133 0.232 0.047 0.062-0.444 0.16-0.587 0.346 0.317 0.791 0.616 0.923 1.090-0.116 0.638-0.404 1.218-0.704 1.787-0.193-0.671-0.785-1.381-0.37-2.081l-0.061-0.056c-0.056-0.017-0.167-0.053-0.223-0.071-0.067 0.402-0.133 0.835-0.461 1.118l0.174 0.139c-0.080 0.071-0.241 0.211-0.323 0.281l0.004-0.311c-0.182 0.095-0.332 0.38-0.57 0.304-0.318-0.018-0.509-0.296-0.75-0.463-0.685-0.439-0.77-1.35-0.764-2.090 0.031-0.835-0.164-1.706 0.156-2.506 0.2-0.505-0.066-1.102 0.266-1.568 0.218-0.332 0.169-0.808 0.51-1.060z"></path>
<path fill="#fff" d="M13.108 7.8c0.060 0.083 0.060 0.083 0 0z"></path>
<path fill="#fff" d="M14.564 7.844c0.034 0.034 0.034 0.034 0 0z"></path>
<path fill="#fff" d="M9.906 8.207c0.115-0.096 0.353 0.060 0.26 0.202-0.115 0.104-0.347-0.062-0.26-0.202z"></path>
<path fill="#fff" d="M10.58 9.024c-0.143 0.379-0.257 0.779-0.096 1.175-0.077 0.193-0.173 0.382-0.223 0.584 0.067 0.26 0.157 0.515 0.21 0.779-0.223-0.16-0.424-0.348-0.629-0.528-0.257-0.253-0.689-0.103-0.941-0.371-0.277-0.264-0.65-0.358-1-0.488 0.248-0.059 0.505-0.088 0.75-0.163 0.256-0.102 0.442-0.326 0.698-0.43 0.232-0.073 0.478-0.079 0.71-0.144 0.202-0.097 0.348-0.276 0.52-0.414z"></path>
<path fill="#fff" d="M10.843 8.98c0.444 0.313 0.823 0.703 1.214 1.078-0.012 0.514-0.022 1.027-0.032 1.541-0.488 0.007-0.982 0.041-1.466-0.047 0.197-0.424 0.276-0.875 0.176-1.336 0.186-0.395 0.155-0.815 0.108-1.236z"></path>
<path fill="#fff" d="M15.245 9.157c0.167-0.023 0.199 0.268 0.094 0.354-0.163 0.016-0.206-0.268-0.094-0.354z"></path>
<path fill="#fff" d="M10.589 9.623c0.064 0.076 0.064 0.076 0 0z"></path>
<path fill="#fff" d="M15.542 10.44c0.208-0.412 0.581-0.702 0.918-1.002 0.114 0.773 0.13 1.554 0.148 2.333-0.361 0.001-0.726 0-1.082-0.067 0.174-0.415 0.136-0.842 0.017-1.264z"></path>
<path fill="#fff" d="M7.775 10.396c0.302 0.382 0.754 0.535 1.202 0.662 0.366 0.318 0.739 0.632 1.236 0.715-0.631-0.026-1.051 0.504-1.633 0.64-0.298 0.091-0.523 0.316-0.772 0.491-0.023-0.835-0.064-1.672-0.034-2.508z"></path>
<path fill="#fff" d="M10.463 10.644c0.193-0.054 0.253 0.017 0.18 0.214-0.196 0.052-0.256-0.019-0.18-0.214z"></path>
<path fill="#fff" d="M15.467 11.201c-0.148-0.092-0.148-0.181-0.001-0.268 0.149 0.088 0.149 0.178 0.001 0.268z"></path>
<path fill="#fff" d="M10.627 11.864c0.425-0.097 0.859-0.023 1.288 0.005 0.041 0.485 0.079 0.973 0.047 1.459-0.328 0.424-0.734 0.781-1.135 1.135 0.029-0.425-0.017-0.845-0.114-1.259-0.008-0.448-0.061-0.893-0.085-1.34z"></path>
<path fill="#fff" d="M9.11 12.491c0.485-0.005 0.931-0.215 1.232-0.596-0.094 0.606 0.14 1.187 0.074 1.789 0.029 0.301 0.162 0.583 0.21 0.882-0.355-0.27-0.678-0.634-1.15-0.685-0.365-0.029-0.523-0.419-0.847-0.536-0.247-0.091-0.508-0.14-0.758-0.216 0.467-0.095 0.946-0.23 1.238-0.637z"></path>
<path fill="#fff" d="M10.458 12.514c0.395-0.007-0.156 0.376 0 0z"></path>
<path fill="#fff" d="M8.447 12.589c0.19-0.104 0.248 0.202 0.062 0.235-0.19 0.097-0.241-0.194-0.062-0.235z"></path>
<path fill="#fff" d="M7.802 13.339c0.295 0.23 0.568 0.527 0.955 0.588 0.324 0.050 0.584 0.256 0.804 0.487-0.026-0.104-0.079-0.312-0.106-0.415 0.278 0.032 0.516 0.173 0.703 0.377-0.206-0.076-0.344-0.038-0.416 0.113 0.26 0.077 0.53 0.122 0.791 0.2-0.277 0.175-0.601 0.282-0.841 0.514-0.192 0.184-0.401 0.356-0.666 0.421 0.092 0.049 0.185 0.098 0.278 0.145-0.079 0.116-0.176 0.24-0.13 0.39 0.169-0.178 0.328-0.362 0.47-0.562 0.107-0.031 0.32-0.095 0.427-0.126-0.1-0.061-0.198-0.121-0.298-0.18 0.104-0.071 0.314-0.21 0.419-0.281-0.013 0.096-0.041 0.289-0.054 0.385 0.146-0.176 0.29-0.355 0.432-0.535 0.060 0.55 0.326 1.031 0.486 1.549 0.048-0.076 0.095-0.151 0.142-0.228 0.068 0.086 0.205 0.259 0.274 0.346-0.126-0.010-0.251-0.034-0.377-0.042 0.078 0.127 0.234 0.38 0.312 0.506-0.263-0.113-0.504-0.3-0.797-0.322-0.682-0.029-1.315-0.313-1.998-0.338l0.397-0.125c-0.082-0.144-0.106-0.308-0.107-0.473-0.15 0.167-0.305 0.33-0.461 0.492-0.095-0.392-0.182-0.787-0.346-1.158-0.24-0.544-0.22-1.151-0.295-1.729z"></path>
<path fill="#fff" d="M8.156 13.37c0.323 0.022 0.618 0.173 0.785 0.456-0.311-0.052-0.604-0.188-0.785-0.456z"></path>
<path fill="#fff" d="M10.566 13.838c-0.104-0.145-0.073-0.227 0.092-0.242 0.103 0.145 0.073 0.226-0.092 0.242z"></path>
<path fill="#fff" d="M10.885 14.881c0.227-0.55 0.724-0.932 1.182-1.286 0.050 0.436 0.256 0.844 0.278 1.28-0.089 0.69-0.406 1.327-0.714 1.944-0.184-0.67-0.589-1.256-0.746-1.938z"></path>
<path fill="#fff" d="M11.801 17.162c0.136-0.712 0.464-1.373 0.788-2.016 0.13 0.178 0.232 0.38 0.392 0.534 0.178 0.077 0.37 0.112 0.548 0.187 0.138 0.661 0.076 1.348 0.050 2.017 0.022 0.194-0.133 0.308-0.263 0.42l-0.112-0.264c-0.090 0.112-0.178 0.227-0.266 0.341-0.044-0.168-0.078-0.337-0.11-0.506-0.091-0.059-0.272-0.175-0.362-0.234-0.146 0.074-0.299 0.149-0.472 0.14 0.109-0.084 0.22-0.168 0.33-0.25-0.18-0.112-0.406-0.181-0.524-0.37z"></path>
<path fill="#fff" d="M14.91 15.167c0.269 0.508 0.611 1.051 0.588 1.64-0.323 0.438-0.725 0.842-1.184 1.142l0.126 0.164c-0.215 0.020-0.431 0.043-0.646 0.065-0.041-0.742-0.018-1.492 0.107-2.225 0.193-0.126 0.448-0.091 0.654-0.191 0.174-0.16 0.247-0.394 0.355-0.596z"></path>
<path fill="#fff" d="M10.831 15.391c0.144-0.083 0.293 0.163 0.191 0.274-0.146 0.085-0.284-0.164-0.191-0.274z"></path>
<path fill="#fff" d="M12.982 15.396c0.168-0.038 0.233 0.025 0.194 0.19-0.168 0.040-0.233-0.024-0.194-0.19z"></path>
<path fill="#fff" d="M15.978 15.992c0.074 0.065 0.074 0.065 0 0z"></path>
<path fill="#fff" d="M8.587 16.549c0.563 0.244 1.195 0.202 1.759 0.442 0.33 0.136 0.692 0.125 1.039 0.173-0.383 0.307-0.748 0.641-1.154 0.918-0.372-0.325-0.966-0.457-1.129-0.966-0.050 0.054-0.102 0.108-0.152 0.163-0.054-0.046-0.161-0.136-0.215-0.18 0.068-0.054 0.137-0.109 0.204-0.164-0.121-0.126-0.239-0.254-0.352-0.385z"></path>
<path fill="#fff" d="M9.17 16.556c0.11-0.088 0.391-0.052 0.406 0.109-0.112 0.078-0.396 0.054-0.406-0.109z"></path>
<path fill="#fff" d="M10.487 16.824c0.15-0.098 0.241-0.068 0.276 0.089-0.15 0.1-0.241 0.071-0.276-0.089z"></path>
<path fill="#fff" d="M10.753 18.115c0.293-0.29 0.632-0.528 0.976-0.752 0.103 0.425 0.476 0.586 0.85 0.716-0.569 0.36-1.211 0.042-1.825 0.036z"></path>
<path fill="#2b2728" d="M9.947 5.299c1.134-0.384 2.332-0.073 3.482 0.056 0.517 0.113 1.088 0.114 1.537 0.43 0.491 0.428 0.898 0.954 1.1 1.582 0.377 0.558 0.433 1.248 0.66 1.867 0.26 0.694 0.149 1.446 0.119 2.166-0.089 1.489-0.137 3.004-0.576 4.44-0.12 0.52-0.485 0.926-0.75 1.375-0.248 0.432-0.707 0.658-1.070 0.974-0.053-0.010-0.158-0.029-0.21-0.038-0.14 0.469-0.672 0.34-1.044 0.388-1.244 0.007-2.59 0.091-3.706-0.548-0.365-0.444-0.995-0.656-1.142-1.264-0.262-0.325-0.32-0.745-0.426-1.136-0.163-0.673-0.396-1.339-0.41-2.039-0.019-0.835-0.005-1.67 0.035-2.504 0.022-0.612 0.187-1.208 0.221-1.819-0.023-0.566-0.035-1.176 0.266-1.679 0.14 0.443-0.047 0.88-0.068 1.322-0.026 0.354-0.054 0.709-0.098 1.062l0.184-0.175c0.053 0.084 0.104 0.168 0.155 0.253l-0.162-0.33c0.316 0.27 0.667 0.163 0.902-0.109-0.18 0.041-0.355 0.097-0.526 0.167-0.084-0.041-0.166-0.084-0.247-0.128 0.446-0.262 1.038-0.125 1.418-0.508 0.272-0.26 0.661-0.247 1.004-0.34-0.356-0.113-0.781-0.144-1.006-0.487-0.13-0.204-0.368-0.246-0.583-0.312-0.352-0.090-0.563-0.443-0.925-0.509 0.166-0.407 0.252-0.874 0.595-1.177 0.383-0.368 0.72-0.86 1.271-0.979M10.673 5.455c0.204 0.175 0.437 0.307 0.683 0.414 0.096 0.13 0.185 0.265 0.295 0.385 0.367-0.22 0.583-0.644 1.048-0.725-0.664-0.144-1.352-0.094-2.026-0.074M9.148 6.030c-0.275 0.337-0.544 0.68-0.788 1.042 0.295-0.026 0.556-0.163 0.826-0.271 0.37-0.1 0.792 0.016 1.123-0.215 0.324-0.223 0.732-0.139 1.102-0.167-0.272-0.274-0.582-0.505-0.877-0.752-0.134-0.096-0.27-0.272-0.457-0.212-0.316 0.18-0.637 0.358-0.928 0.576M12.995 5.548c0.067 0.079 0.067 0.079 0 0M12.464 6.060c-0.062-0.072-0.126-0.144-0.191-0.215 0 0.097 0 0.292 0 0.389-0.095 0.024-0.283 0.073-0.377 0.097 0.139 0.671 0.422 1.306 0.772 1.892 0.148-0.212 0.248-0.469 0.456-0.632 0.18-0.068 0.373-0.090 0.554-0.154 0.136-0.62 0.082-1.273 0.005-1.9-0.412 0.157-0.91 0.175-1.219 0.522M14.016 5.567c-0.076 0.619-0.024 1.242-0.017 1.864 0.212 0.079 0.424 0.158 0.634 0.245 0.133 0.173 0.259 0.352 0.413 0.509 0.229-0.413 0.486-0.858 0.466-1.345-0.198-0.684-0.931-0.954-1.495-1.272M10.583 6.719c0.15 0.095 0.239 0.062 0.266-0.098-0.152-0.095-0.241-0.062-0.266 0.098M10.858 6.881c-0.337 0.076-0.713-0.001-1.016 0.199-0.298 0.193-0.664 0.154-1 0.17 0.248 0.197 0.478 0.419 0.658 0.683 0.497 0.017 0.884 0.304 1.192 0.67 0.036-0.487 0.306-0.902 0.398-1.375 0.048 0.011 0.145 0.034 0.193 0.044-0.042-0.032-0.127-0.097-0.169-0.13 0.122-0.173 0.245-0.346 0.358-0.524-0.205 0.085-0.402 0.192-0.613 0.263M11.67 6.695c-0.091 0.365-0.257 0.701-0.416 1.038-0.037 0.338-0.232 0.643-0.277 0.971 0.277 0.448 0.692 0.79 1.092 1.124 0.066-0.48 0.301-0.925 0.338-1.406-0.1-0.623-0.397-1.201-0.737-1.727M9.186 7.051c0.106 0.095 0.386 0.060 0.395-0.103-0.106-0.092-0.385-0.056-0.395 0.103M15.25 8.398c-0.071 0.296 0.119 0.554 0.193 0.828 0.034 0.274 0.038 0.55 0.062 0.826 0.36-0.241 0.742-0.522 0.907-0.938-0.054-0.7-0.378-1.355-0.721-1.961-0.17 0.406-0.365 0.81-0.442 1.246M8.788 7.562c-0.085 0.149 0.17 0.28 0.282 0.19 0.080-0.148-0.17-0.288-0.282-0.19M13.235 8.059c-0.341 0.252-0.292 0.727-0.51 1.060-0.332 0.467-0.066 1.063-0.266 1.568-0.32 0.799-0.125 1.67-0.156 2.506-0.006 0.74 0.079 1.651 0.764 2.090 0.241 0.167 0.432 0.445 0.75 0.463 0.238 0.077 0.388-0.209 0.57-0.304l-0.004 0.311c0.082-0.070 0.242-0.21 0.323-0.281l-0.174-0.139c0.328-0.283 0.394-0.716 0.461-1.118 0.056 0.018 0.167 0.054 0.223 0.071l0.061 0.056c-0.415 0.7 0.176 1.41 0.37 2.081 0.3-0.569 0.588-1.148 0.704-1.787-0.132-0.474-0.577-0.773-0.923-1.090-0.097 0.143 0.072 0.634-0.16 0.587-0.019-0.034-0.058-0.101-0.077-0.133l-0.235 0.144c0.349-0.482 0.293-1.081 0.301-1.64l0.1-0.018-0.005 0.229c0.077-0.029 0.229-0.086 0.305-0.115-0.023 0.077-0.070 0.229-0.094 0.305-0.205 0.578 0.484 0.925 0.809 1.285 0.102-0.725 0.226-1.468 0.199-2.195-0.266-0.102-0.562-0.102-0.839-0.052-0.348 0.049-0.106 0.418-0.065 0.618-0.092-0.042-0.275-0.124-0.367-0.164 0.188-0.581-0.121-1.154 0.004-1.734 0.073-0.61-0.221-1.176-0.268-1.776-0.088-0.548-0.577-0.869-1.001-1.156-0.326-0.179-0.586 0.127-0.802 0.328M13.108 7.8c0.060 0.083 0.060 0.083 0 0M14.564 7.844c0.034 0.034 0.034 0.034 0 0M9.906 8.207c-0.086 0.139 0.145 0.306 0.26 0.202 0.092-0.142-0.145-0.298-0.26-0.202M10.58 9.024c-0.172 0.138-0.318 0.317-0.52 0.414-0.233 0.065-0.479 0.071-0.71 0.144-0.257 0.103-0.443 0.328-0.698 0.43-0.245 0.076-0.502 0.104-0.75 0.163 0.349 0.131 0.722 0.224 1 0.488 0.252 0.268 0.684 0.118 0.941 0.371 0.205 0.18 0.406 0.368 0.629 0.528-0.053-0.264-0.143-0.518-0.21-0.779 0.050-0.203 0.146-0.391 0.223-0.584-0.161-0.396-0.047-0.796 0.096-1.175M10.843 8.98c0.047 0.421 0.078 0.841-0.108 1.236 0.1 0.461 0.020 0.912-0.176 1.336 0.485 0.088 0.978 0.054 1.466 0.047 0.011-0.514 0.020-1.027 0.032-1.541-0.391-0.374-0.77-0.764-1.214-1.078M15.245 9.157c-0.113 0.086-0.070 0.37 0.094 0.354 0.106-0.086 0.073-0.377-0.094-0.354M10.589 9.623c0.064 0.076 0.064 0.076 0 0M15.542 10.44c0.119 0.421 0.157 0.848-0.017 1.264 0.356 0.067 0.721 0.068 1.082 0.067-0.018-0.779-0.034-1.56-0.148-2.333-0.337 0.3-0.71 0.59-0.918 1.002M7.775 10.396c-0.030 0.836 0.011 1.673 0.034 2.508 0.248-0.175 0.474-0.4 0.772-0.491 0.582-0.136 1.002-0.666 1.633-0.64-0.497-0.083-0.87-0.397-1.236-0.715-0.449-0.127-0.9-0.281-1.202-0.662M10.463 10.644c-0.076 0.194-0.016 0.265 0.18 0.214 0.073-0.197 0.013-0.268-0.18-0.214M15.467 11.201c0.148-0.090 0.148-0.18-0.001-0.268-0.146 0.086-0.146 0.175 0.001 0.268M10.627 11.864c0.024 0.448 0.077 0.893 0.085 1.34 0.097 0.414 0.143 0.834 0.114 1.259 0.401-0.354 0.808-0.712 1.135-1.135 0.032-0.486-0.006-0.974-0.047-1.459-0.428-0.028-0.863-0.102-1.288-0.005M9.11 12.491c-0.293 0.407-0.772 0.542-1.238 0.637 0.251 0.076 0.511 0.125 0.758 0.216 0.324 0.118 0.482 0.508 0.847 0.536 0.472 0.052 0.794 0.415 1.15 0.685-0.048-0.299-0.181-0.581-0.21-0.882 0.066-0.602-0.168-1.183-0.074-1.789-0.301 0.382-0.748 0.592-1.232 0.596M10.458 12.514c-0.156 0.376 0.395-0.007 0 0M8.447 12.589c-0.179 0.041-0.127 0.332 0.062 0.235 0.186-0.034 0.127-0.34-0.062-0.235M7.802 13.339c0.076 0.578 0.055 1.186 0.295 1.729 0.163 0.371 0.251 0.766 0.346 1.158 0.156-0.162 0.311-0.325 0.461-0.492 0.001 0.164 0.025 0.329 0.107 0.473l-0.397 0.125c0.683 0.025 1.316 0.31 1.998 0.338 0.293 0.022 0.534 0.209 0.797 0.322-0.078-0.126-0.234-0.379-0.312-0.506 0.126 0.008 0.251 0.032 0.377 0.042-0.068-0.086-0.205-0.259-0.274-0.346-0.047 0.077-0.094 0.152-0.142 0.228-0.16-0.518-0.426-1-0.486-1.549-0.142 0.18-0.286 0.359-0.432 0.535 0.013-0.096 0.041-0.289 0.054-0.385-0.104 0.071-0.314 0.21-0.419 0.281 0.1 0.059 0.198 0.119 0.298 0.18-0.107 0.031-0.32 0.095-0.427 0.126-0.143 0.199-0.301 0.384-0.47 0.562-0.047-0.15 0.050-0.274 0.13-0.39-0.094-0.047-0.186-0.096-0.278-0.145 0.265-0.065 0.474-0.238 0.666-0.421 0.24-0.232 0.564-0.338 0.841-0.514-0.26-0.078-0.53-0.124-0.791-0.2 0.072-0.151 0.21-0.188 0.416-0.113-0.187-0.204-0.425-0.344-0.703-0.377 0.026 0.103 0.079 0.311 0.106 0.415-0.22-0.232-0.48-0.437-0.804-0.487-0.388-0.061-0.66-0.358-0.955-0.588M8.156 13.37c0.181 0.268 0.474 0.404 0.785 0.456-0.167-0.283-0.462-0.434-0.785-0.456M10.566 13.838c0.166-0.017 0.196-0.097 0.092-0.242-0.166 0.016-0.197 0.097-0.092 0.242M10.885 14.881c0.157 0.682 0.563 1.268 0.746 1.938 0.308-0.617 0.625-1.254 0.714-1.944-0.023-0.437-0.228-0.845-0.278-1.28-0.458 0.354-0.955 0.737-1.182 1.286M11.801 17.162c0.119 0.188 0.344 0.258 0.524 0.37-0.11 0.082-0.221 0.166-0.33 0.25 0.173 0.008 0.325-0.066 0.472-0.14 0.090 0.059 0.271 0.175 0.362 0.234 0.032 0.169 0.066 0.338 0.11 0.506 0.089-0.114 0.176-0.229 0.266-0.341l0.112 0.264c0.13-0.112 0.284-0.226 0.263-0.42 0.025-0.67 0.088-1.356-0.050-2.017-0.179-0.076-0.371-0.11-0.548-0.187-0.161-0.154-0.263-0.356-0.392-0.534-0.324 0.643-0.653 1.304-0.788 2.016M14.91 15.167c-0.108 0.203-0.181 0.437-0.355 0.596-0.206 0.1-0.461 0.065-0.654 0.191-0.125 0.733-0.148 1.483-0.107 2.225 0.215-0.022 0.431-0.044 0.646-0.065l-0.126-0.164c0.46-0.3 0.862-0.704 1.184-1.142 0.023-0.589-0.319-1.133-0.588-1.64M10.831 15.391c-0.094 0.109 0.044 0.359 0.191 0.274 0.102-0.11-0.047-0.356-0.191-0.274M12.982 15.396c-0.038 0.166 0.026 0.229 0.194 0.19 0.038-0.164-0.026-0.228-0.194-0.19M15.978 15.992c0.074 0.065 0.074 0.065 0 0M8.587 16.549c0.113 0.131 0.23 0.259 0.352 0.385-0.067 0.055-0.136 0.11-0.204 0.164 0.054 0.044 0.161 0.134 0.215 0.18 0.050-0.055 0.102-0.109 0.152-0.163 0.163 0.509 0.757 0.641 1.129 0.966 0.407-0.277 0.772-0.611 1.154-0.918-0.347-0.048-0.709-0.037-1.039-0.173-0.564-0.24-1.196-0.198-1.759-0.442M9.17 16.556c0.010 0.163 0.294 0.187 0.406 0.109-0.014-0.161-0.295-0.197-0.406-0.109M10.487 16.824c0.035 0.16 0.126 0.188 0.276 0.089-0.035-0.157-0.126-0.187-0.276-0.089M10.753 18.115c0.614 0.006 1.256 0.324 1.825-0.036-0.373-0.131-0.746-0.292-0.85-0.716-0.343 0.224-0.683 0.462-0.976 0.752z"></path>
</svg>
