<!-- Generated by IcoMoon.io -->
<svg version="1.1" xmlns="http://www.w3.org/2000/svg" width="24" height="24" viewBox="0 0 24 24">
<title>regulatory--weight-limit--g1</title>
<path fill="#8a3434" opacity="0.54" d="M10.766 0h0.21c-0.057 0.068-0.161 0.097-0.231 0.029l0.021-0.029z"></path>
<path fill="#8a3434" opacity="0.54" d="M0 10.77l0.028-0.022c0.069 0.068 0.041 0.173-0.028 0.23v-0.209z"></path>
<path fill="#8a3434" opacity="0.54" d="M0 13.025c0.068 0.057 0.097 0.161 0.029 0.23l-0.029-0.021v-0.209z"></path>
<path fill="#f00" d="M10.975 0h2.104c1.705 0.188 3.388 0.678 4.875 1.545 2.724 1.544 4.802 4.19 5.634 7.211 0.208 0.705 0.308 1.432 0.412 2.158v2.164c-0.188 1.694-0.671 3.366-1.528 4.845-1.547 2.751-4.217 4.847-7.265 5.676-0.693 0.202-1.409 0.299-2.121 0.402h-2.107c-0.057-0.068-0.161-0.097-0.23-0.028-2.278-0.243-4.484-1.139-6.267-2.581-2.489-1.978-4.133-4.972-4.454-8.136 0.068-0.069 0.039-0.173-0.029-0.23v-2.046c0.068-0.057 0.097-0.162 0.028-0.23 0.123-1.090 0.377-2.168 0.786-3.187 1.041-2.64 3.055-4.876 5.563-6.202 1.353-0.72 2.846-1.165 4.369-1.332 0.069 0.068 0.173 0.039 0.231-0.029M11.080 2.413c-2.845 0.253-5.522 1.863-7.095 4.245-1.811 2.665-2.122 6.258-0.812 9.2 1.098 2.54 3.346 4.547 5.995 5.349 2.009 0.618 4.22 0.557 6.189-0.178 2.513-0.924 4.59-2.949 5.58-5.437 0.767-1.898 0.899-4.042 0.384-6.021-0.672-2.635-2.527-4.931-4.952-6.157-1.62-0.832-3.478-1.173-5.288-1.002z"></path>
<path fill="#fff" d="M11.080 2.413c1.81-0.171 3.669 0.17 5.288 1.002 2.426 1.225 4.28 3.522 4.952 6.157 0.515 1.98 0.383 4.124-0.384 6.021-0.989 2.488-3.067 4.513-5.58 5.437-1.969 0.735-4.18 0.795-6.189 0.178-2.649-0.802-4.897-2.809-5.995-5.349-1.31-2.942-0.999-6.535 0.812-9.2 1.572-2.382 4.249-3.992 7.095-4.245M6.045 8.028c-0.114 1.553-0.221 3.106-0.325 4.659 0.625 0.008 1.251-0.013 1.875 0.014 0.382 0.032 0.808 0.125 1.057 0.443 0.453 0.623 0.304 1.73-0.488 2.004-0.858 0.278-1.818-0.1-2.407-0.748-0.17 0.42-0.336 0.841-0.508 1.26 0.642 0.683 1.599 1.038 2.53 0.986 0.589-0.010 1.18-0.239 1.588-0.67 0.596-0.608 0.781-1.51 0.725-2.335-0.036-0.752-0.357-1.54-1.014-1.953-0.64-0.403-1.424-0.386-2.152-0.38 0.039-0.64 0.085-1.279 0.129-1.919 0.895-0.002 1.79 0.002 2.685-0.002 0-0.453 0.001-0.906-0.001-1.358-1.231-0.002-2.462-0-3.694-0.001M11.226 8.029c-0.079 1.555-0.24 3.105-0.297 4.661 0.607 0.002 1.214-0.012 1.821 0.009 0.376 0.028 0.79 0.108 1.053 0.402 0.503 0.61 0.357 1.753-0.44 2.044-0.859 0.285-1.829-0.090-2.416-0.745-0.164 0.427-0.358 0.842-0.499 1.277 0.854 0.879 2.242 1.226 3.395 0.79 0.964-0.385 1.458-1.461 1.445-2.453 0.038-0.824-0.215-1.73-0.902-2.242-0.648-0.482-1.495-0.473-2.265-0.463 0.028-0.641 0.097-1.279 0.119-1.92 0.897-0.003 1.795 0.002 2.692-0.002-0.002-0.453 0.008-0.907-0.006-1.359-1.233 0-2.466-0.001-3.699 0M16.917 12.069c-0.001 0.265-0 0.531-0.001 0.796-0.144 0-0.288 0-0.432 0.001-0 0.239-0 0.477 0 0.715 0.143 0 0.287 0 0.431 0.001 0.001 0.566-0.001 1.132 0 1.698 0.002 0.299 0.047 0.614 0.223 0.864 0.283 0.416 0.965 0.457 1.305 0.093-0.029-0.221-0.122-0.428-0.172-0.645-0.132 0.109-0.308 0.2-0.48 0.133-0.171-0.069-0.216-0.275-0.217-0.441-0.003-0.567-0-1.134-0-1.702 0.233-0 0.467 0 0.701-0.001 0.002-0.238 0.001-0.477 0-0.715-0.234-0.001-0.468-0-0.702-0.001-0-0.265 0-0.531-0.001-0.796-0.219-0.001-0.438-0.001-0.657-0z"></path>
<path fill="#000" d="M6.045 8.028c1.231 0 2.463-0.001 3.694 0.001 0.002 0.453 0.001 0.906 0.001 1.358-0.895 0.004-1.79 0-2.685 0.002-0.044 0.64-0.090 1.279-0.129 1.919 0.728-0.006 1.512-0.022 2.152 0.38 0.657 0.413 0.978 1.201 1.014 1.953 0.057 0.825-0.129 1.727-0.725 2.335-0.408 0.431-0.999 0.66-1.588 0.67-0.931 0.052-1.888-0.303-2.53-0.986 0.172-0.419 0.338-0.84 0.508-1.26 0.589 0.648 1.549 1.026 2.407 0.748 0.791-0.275 0.941-1.381 0.488-2.004-0.249-0.319-0.674-0.411-1.057-0.443-0.624-0.026-1.25-0.006-1.875-0.014 0.104-1.553 0.211-3.107 0.325-4.659z"></path>
<path fill="#000" d="M11.226 8.029c1.233-0.001 2.467 0 3.699-0 0.013 0.453 0.004 0.906 0.006 1.359-0.898 0.004-1.795-0.001-2.692 0.002-0.022 0.641-0.091 1.279-0.119 1.92 0.77-0.011 1.617-0.019 2.265 0.463 0.687 0.511 0.94 1.418 0.902 2.242 0.013 0.992-0.481 2.068-1.445 2.453-1.153 0.436-2.541 0.089-3.395-0.79 0.141-0.435 0.335-0.851 0.499-1.277 0.588 0.655 1.557 1.030 2.416 0.745 0.797-0.291 0.943-1.434 0.44-2.044-0.263-0.294-0.677-0.375-1.053-0.402-0.607-0.021-1.214-0.007-1.821-0.009 0.057-1.556 0.217-3.106 0.297-4.661z"></path>
<path fill="#000" d="M16.917 12.069c0.219-0 0.438-0 0.657 0 0.001 0.265 0 0.531 0.001 0.796 0.234 0 0.468 0 0.702 0.001 0.001 0.238 0.001 0.477-0 0.715-0.234 0.002-0.467 0.001-0.701 0.001 0 0.567-0.002 1.134 0 1.702 0.001 0.165 0.045 0.371 0.217 0.441 0.172 0.067 0.349-0.023 0.48-0.133 0.051 0.217 0.144 0.424 0.172 0.645-0.34 0.364-1.022 0.323-1.305-0.093-0.176-0.25-0.221-0.565-0.223-0.864-0.001-0.566 0-1.132-0-1.698-0.144-0-0.288-0-0.431-0.001-0.001-0.238-0.001-0.477-0-0.715 0.144-0 0.288-0.001 0.432-0.001 0-0.265-0-0.531 0.001-0.796z"></path>
<path fill="#873333" opacity="0.53" d="M10.749 23.972c0.069-0.069 0.173-0.040 0.23 0.028h-0.209l-0.022-0.028z"></path>
</svg>
