<?xml version="1.0" encoding="utf-8"?>
<!-- Generated by IcoMoon.io -->
<!DOCTYPE svg PUBLIC "-//W3C//DTD SVG 1.1//EN" "http://www.w3.org/Graphics/SVG/1.1/DTD/svg11.dtd">
<svg version="1.1" xmlns="http://www.w3.org/2000/svg" xmlns:xlink="http://www.w3.org/1999/xlink" width="24" height="24" viewBox="0 0 24 24">
<path fill="#36515a" opacity="0.41" d="M6.065 1.765c3.431-2.012 7.915-2.071 11.398-0.148 0.392 0.217 0.798 0.432 1.108 0.764-0.452-0.259-0.892-0.54-1.352-0.782-2.174-1.123-4.717-1.562-7.135-1.147-2.113 0.316-4.118 1.262-5.74 2.648-0.588 0.5-1.080 1.097-1.62 1.645 0.834-1.255 2.058-2.214 3.342-2.981z"></path>
<path fill="#36515a" opacity="0.41" d="M3.126 19.242c0.928 0.962 1.936 1.87 3.121 2.506 3.004 1.687 6.768 1.927 9.954 0.613 0.934-0.35 1.764-0.905 2.611-1.417-0.257 0.298-0.602 0.49-0.936 0.686-3.344 2.060-7.754 2.216-11.249 0.428-0.907-0.446-1.742-1.032-2.496-1.704-0.371-0.334-0.788-0.65-1.006-1.112z"></path>
<path fill="#009acc" d="M10.082 0.452c2.418-0.415 4.961 0.024 7.135 1.147 0.461 0.242 0.9 0.523 1.352 0.782 2.96 2.020 4.835 5.55 4.852 9.134 0.131 3.644-1.679 7.272-4.609 9.427-0.847 0.512-1.678 1.067-2.611 1.417-3.186 1.314-6.95 1.074-9.954-0.613-1.186-0.636-2.194-1.543-3.121-2.506-0.857-0.953-1.537-2.071-1.979-3.275-0.282-0.995-0.523-2.002-0.737-3.013-0.17-2.423 0.238-4.992 1.625-7.028 0.163-0.409 0.512-0.71 0.665-1.123l0.023-0.056c0.54-0.548 1.032-1.145 1.62-1.645 1.621-1.386 3.626-2.333 5.74-2.648M6.268 8.274c-1.734 0.997-3.455 2.020-5.189 3.017 1.426 0.912 2.927 1.703 4.382 2.566 0.38 0.2 0.726 0.482 1.142 0.605 0.362 0.085 0.74-0.29 0.656-0.653-0.085-0.404-0.246-0.787-0.379-1.176 0.864-0.086 1.858-0.228 2.611 0.31 0.559 0.378 0.965 1.006 0.974 1.693 0.041 2.315-0.018 4.633 0.029 6.948 0.959 0.077 1.933 0.053 2.896 0 0.002-2.274-0.010-4.549 0.006-6.824-0.034-0.761 0.454-1.432 1.067-1.83 0.745-0.499 1.686-0.227 2.522-0.277-0.13 0.42-0.325 0.827-0.382 1.267-0.038 0.259 0.152 0.551 0.424 0.566 0.326 0.065 0.608-0.134 0.874-0.287 1.59-0.946 3.217-1.829 4.795-2.792-0.053-0.186-0.246-0.254-0.391-0.354-1.604-0.91-3.182-1.864-4.786-2.773-0.337-0.2-0.81-0.048-0.901 0.35 0.001 0.49 0.238 0.942 0.377 1.403-0.809 0.041-1.633-0.040-2.423 0.182-0.851 0.236-1.558 0.79-2.34 1.175-0.211 0.11-0.456 0.019-0.654-0.074-0.78-0.39-1.492-0.937-2.346-1.162-0.767-0.221-1.573-0.096-2.359-0.142 0.125-0.457 0.335-0.899 0.382-1.373-0.036-0.485-0.638-0.575-0.988-0.365z"></path>
<path fill="#fffffe" d="M2.143 5.472c0.181-0.226 0.355-0.46 0.557-0.67-0.152 0.413-0.502 0.714-0.665 1.123-1.387 2.036-1.795 4.606-1.625 7.028 0.214 1.012 0.455 2.018 0.737 3.013-0.359-0.502-0.304-1.148-0.502-1.715-0.062-0.169-0.134-0.334-0.208-0.497-0.203-2.041-0.104-4.158 0.656-6.084 0.239-0.782 0.733-1.451 1.049-2.2z"></path>
<path fill="#fffffe" d="M6.268 8.274c0.349-0.21 0.952-0.12 0.988 0.365-0.047 0.474-0.257 0.916-0.382 1.373 0.786 0.046 1.592-0.079 2.359 0.142 0.854 0.224 1.566 0.772 2.346 1.162 0.198 0.094 0.443 0.185 0.654 0.074 0.782-0.385 1.489-0.938 2.34-1.175 0.79-0.222 1.614-0.142 2.423-0.182-0.139-0.461-0.376-0.913-0.377-1.403 0.091-0.398 0.564-0.551 0.901-0.35 1.603 0.91 3.181 1.864 4.786 2.773 0.145 0.1 0.338 0.168 0.391 0.354-1.578 0.964-3.205 1.847-4.795 2.792-0.265 0.152-0.547 0.352-0.874 0.287-0.271-0.016-0.462-0.307-0.424-0.566 0.056-0.44 0.252-0.847 0.382-1.267-0.836 0.050-1.777-0.222-2.522 0.277-0.613 0.398-1.1 1.069-1.067 1.83-0.016 2.275-0.004 4.55-0.006 6.824-0.962 0.053-1.937 0.077-2.896 0-0.047-2.315 0.012-4.633-0.029-6.948-0.010-0.688-0.415-1.315-0.974-1.693-0.754-0.538-1.747-0.396-2.611-0.31 0.133 0.389 0.294 0.772 0.379 1.176 0.084 0.362-0.294 0.738-0.656 0.653-0.416-0.122-0.762-0.404-1.142-0.605-1.456-0.863-2.957-1.654-4.382-2.566 1.734-0.997 3.455-2.020 5.189-3.017z"></path>
</svg>
