<?xml version="1.0" encoding="utf-8"?>
<!-- Generated by IcoMoon.io -->
<!DOCTYPE svg PUBLIC "-//W3C//DTD SVG 1.1//EN" "http://www.w3.org/Graphics/SVG/1.1/DTD/svg11.dtd">
<svg version="1.1" xmlns="http://www.w3.org/2000/svg" xmlns:xlink="http://www.w3.org/1999/xlink" width="24" height="24" viewBox="0 0 24 24">
<path fill="#c50000" d="M7.078 1.062c2.275-1.037 4.882-1.302 7.33-0.81 2.965 0.577 5.674 2.35 7.406 4.823 1.313 1.837 2.062 4.055 2.186 6.306v1.223c-0.142 2.717-1.208 5.383-3.037 7.403-2.078 2.363-5.129 3.806-8.263 3.994h-1.242c-2.368-0.106-4.693-0.935-6.598-2.344-2.072-1.531-3.628-3.746-4.355-6.218-0.814-2.737-0.616-5.764 0.562-8.366 1.178-2.647 3.36-4.835 6.011-6.010M11.315 2.318c-2.767 0.185-5.417 1.63-7.072 3.857-1.183 1.564-1.868 3.494-1.937 5.454-0.088 2.065 0.508 4.156 1.685 5.856 1.418 2.104 3.701 3.6 6.196 4.063 1.837 0.354 3.779 0.164 5.508-0.552 2.435-0.988 4.422-3.012 5.368-5.462 0.73-1.87 0.86-3.967 0.364-5.914-0.559-2.246-1.964-4.266-3.868-5.585-1.801-1.267-4.049-1.867-6.244-1.717z"></path>
<path fill="#fff" d="M11.315 2.318c2.195-0.15 4.442 0.45 6.244 1.717 1.903 1.319 3.308 3.338 3.868 5.585 0.497 1.946 0.366 4.044-0.364 5.914-0.946 2.45-2.933 4.475-5.368 5.462-1.729 0.716-3.671 0.906-5.508 0.552-2.495-0.463-4.777-1.96-6.196-4.063-1.177-1.7-1.772-3.791-1.685-5.856 0.068-1.96 0.754-3.89 1.937-5.454 1.655-2.227 4.304-3.672 7.072-3.857M16.234 9.72c0.109 0.431 0.264 0.851 0.39 1.278-4.494 0.023-8.988 0.062-13.482 0.083 0.004 0.677 0.008 1.354 0.013 2.030 4.493-0.016 8.986-0.064 13.478-0.078-0.118 0.413-0.257 0.821-0.362 1.238-0.077 0.346 0.374 0.586 0.637 0.382 1.288-0.887 2.57-1.781 3.859-2.668-1.289-0.88-2.587-1.744-3.884-2.61-0.251-0.204-0.685 0.014-0.649 0.344z"></path>
<path fill="#000" d="M16.234 9.72c-0.036-0.33 0.398-0.548 0.649-0.344 1.297 0.866 2.596 1.73 3.884 2.61-1.289 0.887-2.572 1.781-3.859 2.668-0.263 0.204-0.714-0.036-0.637-0.382 0.106-0.418 0.245-0.826 0.362-1.238-4.493 0.014-8.986 0.062-13.478 0.078-0.005-0.677-0.010-1.354-0.013-2.030 4.494-0.020 8.988-0.060 13.482-0.083-0.126-0.427-0.281-0.847-0.39-1.278z"></path>
</svg>
