<svg xmlns="http://www.w3.org/2000/svg" width="24" height="24">
    <path fill="#035ab2" d="M10.78 0h.721c0 8-.001 16 .001 24h-.705c-4.1-.45-7.896-3.063-9.649-6.815-.613-1.245-.935-2.606-1.149-3.969v-2.412c.208-1.371.534-2.738 1.149-3.988C2.897 3.067 6.686.459 10.78 0zM5.312 6.361c-.401.121-.564.686-.273.993.29.361.953.211 1.054-.244.135-.444-.342-.909-.781-.749zm.129 1.438c-.463.291-.148.885-.094 1.3-.349.181-.699.361-1.047.543-.401-.554-.886-1.147-1.605-1.254-.533-.066-1.071-.125-1.548-.392l.286.492c-.14.737-.355 1.462-.455 2.207-.038.344.411.58.679.363.223-.373.435-.758.727-1.085.498.91.314 2.015.855 2.898-.419.082-.947-.015-1.276.301-.152.58-.095 1.212-.042 1.805.206.338.601.506.911.737.113-.717-.509-1.307-.281-2.062l1.559.001c.289.75.582 1.499.864 2.252-.111.219-.219.439-.326.661.423-.005 1.036-.178.968-.719-.173-.847-.599-1.617-.88-2.43.86.038 1.693-.19 2.528-.36.128.356.257.712.389 1.067-.384.316-.812.588-1.135.971-.013.415.129.816.223 1.217.377-.202.531-.572.476-.986.388-.34.829-.625 1.171-1.014.001-.322-.123-.629-.182-.942.799.604 1.275 1.453 1.331 2.457-.123.244-.245.489-.365.736.447-.003 1.063-.17 1.031-.732-.088-.69-.164-1.425-.527-2.035-.543-.678-.244-1.594-.299-2.388 1.15.34-.149 2.08 1.083 2.524-.063-.964.458-2.714-.951-2.872-.897-.454-1.892-.669-2.881-.363.247-.808-.154-1.619-.273-2.417-.022-.438-.535-.753-.911-.481zM12.479 0h.723c4.101.448 7.898 3.062 9.65 6.815.613 1.245.935 2.606 1.149 3.969v2.412c-.447 4.104-3.062 7.903-6.816 9.655-1.244.613-2.602.934-3.965 1.149h-.738c0-8 .001-16-.001-24zm3.129 6.638c-.831.095-1.205 1.254-.592 1.821.531.599 1.617.298 1.808-.465.229-.721-.476-1.502-1.216-1.356zm-.836 3.115a85.528 85.528 0 0 0-1.302 3.595c-.208.377.431.708.641.367.356-.687.556-1.443.858-2.153.28 2.223-1.217 4.116-1.625 6.216.051.579.973.727 1.146.145.504-1.279.932-2.589 1.436-3.868-.255 1.487.549 2.781 1.205 4.038.252.397.928.164.94-.289-.187-1.007-1.014-1.837-.945-2.901.016-1.131-.008-2.263.017-3.394.607.568.237 1.44.501 2.105.551.413.712-.415.633-.816.195-1.229-.824-2.099-1.346-3.095-.413-.86-1.811-.853-2.16.051zm5.177.431c-.576.157-.815.957-.397 1.394.402.506 1.299.328 1.491-.282.261-.642-.454-1.349-1.095-1.112zm-.438 2.467c-.351.853-.654 1.729-.956 2.6-.157.294.236.618.471.352.24-.418.356-.894.564-1.328.042 1.302-.812 2.397-1.039 3.646.069.378.646.485.795.108.367-.818.615-1.684.956-2.513-.127.976.286 1.89.81 2.684.229.198.613.016.644-.274-.116-.636-.613-1.163-.575-1.834.001-.766-.008-1.532.025-2.297.355.469.218 1.059.332 1.592.232.34.674-.012.583-.349.203-.989-.5-1.772-1.005-2.532-.371-.568-1.348-.484-1.605.146z"/>
    <path fill="#035ab2" d="M4.611 10.088c.278-.15.555-.306.832-.462.044.19.09.381.137.572-.153.091-.306.179-.46.266-.171-.125-.34-.252-.509-.377z"/>
    <path fill="#fff" d="M11.502 0h.977c.003 8 .001 16 .001 24h-.977c-.003-8-.001-16-.001-24zM5.312 6.361c.439-.16.915.305.781.749-.1.455-.764.605-1.054.244-.291-.307-.128-.872.273-.993zM15.608 6.638c.74-.146 1.445.634 1.216 1.356-.191.764-1.276 1.064-1.808.465-.613-.567-.239-1.726.592-1.821zM5.441 7.799c.376-.272.889.044.911.481.119.798.52 1.609.273 2.417.989-.306 1.985-.091 2.881.363 1.408.158.887 1.908.951 2.872-1.232-.444.067-2.184-1.083-2.524.055.794-.244 1.71.299 2.388.364.609.439 1.345.527 2.035.032.562-.584.729-1.031.732.12-.247.243-.492.365-.736-.055-1.004-.531-1.853-1.331-2.457.059.313.183.62.182.942-.342.389-.783.674-1.171 1.014.055.414-.099.785-.476.986-.094-.401-.236-.802-.223-1.217.323-.382.752-.654 1.135-.971-.132-.355-.261-.711-.389-1.067-.835.17-1.668.398-2.528.36.281.814.707 1.584.88 2.43.069.541-.545.713-.968.719.107-.222.215-.442.326-.661-.282-.753-.575-1.502-.864-2.252l-1.559-.001c-.228.756.394 1.345.281 2.062-.31-.231-.705-.4-.911-.737-.053-.593-.109-1.225.042-1.805.33-.315.857-.219 1.276-.301-.541-.884-.356-1.989-.855-2.898-.291.327-.504.712-.727 1.085-.268.218-.717-.018-.679-.363.1-.745.315-1.47.455-2.207a78.965 78.965 0 0 1-.286-.492c.477.266 1.015.326 1.548.392.719.107 1.204.7 1.605 1.254.348-.182.698-.363 1.047-.543-.054-.415-.369-1.009.094-1.3zm-.83 2.289c.169.125.338.252.509.377.154-.087.307-.175.46-.266-.047-.191-.094-.382-.137-.572a62.16 62.16 0 0 1-.832.462z"/>
    <path fill="#fff" d="M14.772 9.753c.349-.905 1.747-.911 2.16-.051.522.996 1.542 1.866 1.346 3.095.079.401-.082 1.229-.633.816-.264-.665.105-1.536-.501-2.105-.025 1.131-.001 2.263-.017 3.394-.069 1.064.758 1.894.945 2.901-.012.452-.688.686-.94.289-.657-1.257-1.46-2.55-1.205-4.038-.504 1.279-.932 2.589-1.436 3.868-.173.582-1.095.434-1.146-.145.407-2.101 1.904-3.993 1.625-6.216-.302.711-.502 1.466-.858 2.153-.21.342-.849.011-.641-.367a86.562 86.562 0 0 1 1.302-3.595zM19.949 10.184c.641-.237 1.356.469 1.095 1.112-.193.611-1.089.789-1.491.282-.418-.436-.179-1.237.397-1.394zM19.511 12.651c.257-.63 1.234-.715 1.605-.146.505.76 1.208 1.543 1.005 2.532.091.338-.351.69-.583.349-.115-.533.022-1.122-.332-1.592-.033.765-.024 1.531-.025 2.297-.038.671.459 1.199.575 1.834-.03.29-.414.472-.644.274-.524-.794-.936-1.708-.81-2.684-.342.829-.589 1.696-.956 2.513-.149.377-.727.27-.795-.108.227-1.249 1.081-2.345 1.039-3.646-.208.434-.324.91-.564 1.328-.235.266-.628-.058-.471-.352.302-.872.605-1.747.956-2.6z"/>
</svg>
