<svg xmlns="http://www.w3.org/2000/svg" width="24" height="24">
    <path fill="#c0111e" d="M10.706 0h2.573c1.444.24 2.884.598 4.185 1.287 3.587 1.788 6.05 5.46 6.535 9.418v2.575c-.494 4.179-3.229 8.028-7.109 9.709-1.138.527-2.369.792-3.596 1.011h-2.576c-4.179-.494-8.025-3.229-9.708-7.108-.525-1.138-.792-2.369-1.011-3.597v-2.576c.479-3.964 2.945-7.643 6.535-9.432C7.831.6 9.266.245 10.705 0zM4.505 5.827c.648.853 1.23 1.764 1.903 2.592l.125-.006-.057.04c.555 1.092 1.42 1.992 2.093 3.012l.258.156c.159.416.413.788.746 1.085.057.17.183.307.281.456.544.949 1.23 1.826 1.94 2.66.141.276.335.518.508.774.05.06.149.179.197.239 1.011 1.399 2.031 2.792 3.04 4.192 4.284-1.561 7.02-6.375 6.105-10.854-.52-2.947-2.499-5.57-5.168-6.913-3.952-2.093-9.218-.943-11.973 2.568zm-.904 1.332c-1.656 2.938-1.684 6.774.098 9.66l-.001.036c2 3.526 6.348 5.47 10.311 4.621-1.096-1.549-2.247-3.063-3.332-4.621a11.845 11.845 0 0 0-.513-.604c-.141-.341-.398-.618-.606-.917a16.515 16.515 0 0 1-.29-.48 3.102 3.102 0 0 0-.26-.158 6.726 6.726 0 0 0-.938-1.4l-.098-.141-.064.001-.291-.525c-.308-.354-.533-1.032-1.116-.903l.456-.187-.197-.043c-.354-.616-.811-1.163-1.236-1.731C4.859 8.915 4.254 8.02 3.6 7.16z"/>
    <path fill="#fff" d="M4.505 5.827c2.755-3.511 8.021-4.661 11.973-2.568 2.668 1.343 4.648 3.966 5.168 6.913.915 4.479-1.821 9.293-6.105 10.854-1.01-1.4-2.029-2.793-3.04-4.192.446.031.893.02 1.339.021.003-.527.004-1.055.006-1.582.197-.003.395-.006.592-.007.104.31.16.65.365.915.882.135 1.785.06 2.676.054.516.031.508-.621.643-.964l.622.001v1.582l1.591-.001c.001-1.183-.001-2.367-.001-3.55-.487-.004-.978-.004-1.46-.092.471-.162.973-.17 1.466-.18a15.723 15.723 0 0 0-.006-.22l-1.196-.001c-.222-.694-.331-1.464-.845-2.021l.324-.267.001-.442c.331-.041.663-.085.983-.183a7.891 7.891 0 0 0-1.187-.119c-.341-.558-.542-1.488-1.36-1.457-.648-.003-1.322-.088-1.953.089-.466.314-.623.905-.903 1.368-.379.018-.76.045-1.135.109.281.091.571.153.859.212.102.257.219.507.351.75-.474.541-.579 1.274-.794 1.937-.476.004-.957.013-1.422.138.527.125 1.071.136 1.602.243-.452.143-.927.132-1.395.143.023 1.096-.023 2.194.04 3.288-.173-.256-.368-.498-.508-.774-.04-.839-.011-1.68-.017-2.519-.477-.003-.957-.009-1.43-.089.459-.178.956-.17 1.441-.186v-.231c-.405-.006-.809-.007-1.214-.01-.223-.687-.322-1.463-.858-1.995l.349-.278-.016-.443c.349-.03.697-.068 1.041-.138-.406-.112-.825-.141-1.244-.16-.281-.466-.427-1.088-.926-1.375-.78-.156-1.606-.125-2.389.017l-.125.006c-.673-.828-1.255-1.738-1.903-2.592zm3.069.321c-1.196.175-.8 2.139.379 1.813 1.152-.204.764-2.088-.379-1.813zm8.523.007c-.707.128-.971 1.13-.416 1.586.489.491 1.426.182 1.529-.5.158-.631-.491-1.254-1.113-1.086zM3.601 7.159c.655.861 1.26 1.755 1.924 2.607-.339.03-.679.067-1.014.128.305.089.619.143.933.195-.004.102-.014.308-.02.41l.354.293c-.535.533-.635 1.308-.856 1.995-.402.001-.804.003-1.206.007l-.004.233c.48.017.974.007 1.429.187-.474.08-.956.085-1.434.088-.004 1.172.036 2.345-.007 3.516-1.782-2.886-1.754-6.721-.098-9.66z"/>
    <path fill="#fff" d="M8.812 9.586c.237-.092.373.476.115.507-.187-.074-.224-.356-.115-.507zM15.218 9.569c.318.028.114.615-.16.473-.146-.143-.028-.432.16-.473zM5.56 13.566c.209-.753.053-2.176 1.201-2.069l.197.043c-.114.047-.341.141-.456.187-.652.182-.491 1.044-.663 1.565.744.001 1.488 0 2.232.003l.219.268c-.91.004-1.821.001-2.731.003zM8.569 11.465c1.059-.176 1.204.929 1.285 1.697-.098-.149-.224-.285-.281-.456-.077-.471-.241-.936-.746-1.085l-.258-.156zM14.813 11.553c.996-.087 2.035-.121 3.025.021.605.45.45 1.351.645 2.009-1.451.01-2.904-.014-4.357-.009.219-.656.021-1.61.687-2.022zm-.414 1.741l3.812-.001c-.149-.5-.045-1.16-.471-1.524-.927-.108-1.882-.08-2.812-.017-.498.31-.368 1.038-.528 1.542z"/>
    <path fill="#fff" d="M6.237 12.65c.46-.01.922-.013 1.382-.02.097.175.195.349.291.525-.565.016-1.13.014-1.694.013l.021-.518zM14.799 12.649c1-.034 2.001-.014 3.002-.016l.051.53c-1.03.011-2.058.006-3.086.004.01-.173.021-.345.033-.518zM5.379 13.429c.141.4.153.828.182 1.248 1.149.01 2.299-.03 3.448.018.089.048.176.101.26.158-1.329.041-2.66.013-3.991.017.003-.481.009-.967.101-1.441zM13.845 14.873c.028-.459-.111-.978.187-1.375.044.391.054.784.055 1.177h4.444c.004-.405 0-.812.081-1.21.207.44.119.937.135 1.407h-4.902zM5.289 15.282l.594-.001c.108.31.159.658.381.913.89.106 1.795.058 2.691.036.467.013.467-.577.605-.896.209.3.466.577.606.917.017.2.031.403.043.605l.47-.001c1.085 1.558 2.235 3.072 3.332 4.621-3.964.849-8.312-1.095-10.311-4.621.528-.003 1.057-.001 1.585-.001.003-.523.004-1.047.006-1.571z"/>
    <path fill="#030303" d="M7.574 6.148c1.143-.274 1.531 1.609.379 1.813-1.179.325-1.575-1.639-.379-1.813zM16.097 6.155c.622-.168 1.271.456 1.113 1.086-.104.682-1.041.991-1.529.5-.555-.456-.291-1.458.416-1.586zM6.533 8.413c.782-.142 1.609-.173 2.389-.017.498.287.645.909.926 1.375.419.02.838.048 1.244.16-.344.07-.692.108-1.041.138l.016.443-.349.278c.535.533.635 1.308.858 1.995.405.003.809.004 1.214.01v.231c-.486.016-.983.009-1.441.186.473.081.953.087 1.43.089.006.839-.023 1.68.017 2.519-.71-.834-1.396-1.711-1.94-2.66-.081-.768-.226-1.873-1.285-1.697-.673-1.02-1.538-1.92-2.093-3.012l.057-.04zm2.279 1.173c-.109.151-.072.433.115.507.258-.031.122-.599-.115-.507zM15.099 8.409c.631-.178 1.305-.092 1.953-.089.818-.031 1.02.899 1.36 1.457a8.01 8.01 0 0 1 1.187.119c-.32.098-.652.142-.983.183l-.001.442-.324.267c.514.557.623 1.326.845 2.021l1.196.001.006.22c-.493.01-.994.018-1.466.18.481.088.973.088 1.46.092 0 1.183.003 2.367.001 3.55l-1.591.001v-1.582l-.622-.001c-.135.344-.128.996-.643.964-.89.006-1.794.081-2.676-.054-.204-.264-.261-.605-.365-.915-.197.001-.395.004-.592.007a417.13 417.13 0 0 1-.006 1.582c-.446-.001-.893.01-1.339-.021-.048-.06-.148-.179-.197-.239-.062-1.094-.017-2.191-.04-3.288.467-.011.943 0 1.395-.143-.531-.107-1.075-.118-1.602-.243.464-.125.946-.134 1.422-.138.214-.663.32-1.396.794-1.937a6.91 6.91 0 0 1-.351-.75 7.746 7.746 0 0 1-.859-.212 9.395 9.395 0 0 1 1.135-.109c.28-.463.437-1.054.903-1.368zm.119 1.16c-.189.041-.307.329-.16.473.274.142.479-.444.16-.473zm2.13.025c-.118.142-.062.423.126.476.278-.028.116-.582-.126-.476zm-2.535 1.959c-.666.412-.469 1.366-.687 2.022 1.453-.006 2.906.018 4.357.009-.195-.659-.04-1.559-.645-2.009-.99-.142-2.029-.108-3.025-.021zm-.968 3.32h4.902c-.016-.47.072-.967-.135-1.407-.081.398-.077.805-.081 1.21h-4.444a10.747 10.747 0 0 0-.055-1.177c-.298.396-.159.916-.187 1.375zM4.512 9.894c.335-.061.675-.098 1.014-.128.425.568.882 1.115 1.236 1.731-1.149-.107-.993 1.316-1.201 2.069.91-.001 1.821.001 2.731-.003.273.355.521.73.719 1.132-1.149-.048-2.299-.009-3.448-.018-.028-.42-.041-.848-.182-1.248-.092.474-.098.96-.101 1.441 1.331-.004 2.661.024 3.991-.017.094.162.19.322.29.48-.138.32-.138.909-.605.896-.896.023-1.801.071-2.691-.036-.222-.256-.273-.604-.381-.913l-.594.001c-.001.524-.003 1.048-.006 1.571-.528 0-1.057-.001-1.585.001l.001-.036c.043-1.172.003-2.345.007-3.516.479-.003.96-.009 1.434-.088-.454-.18-.949-.17-1.429-.187l.004-.233c.402-.004.804-.006 1.206-.007.222-.687.321-1.463.856-1.995l-.354-.293c.006-.102.016-.308.02-.41a7.575 7.575 0 0 1-.933-.195z"/>
    <path fill="#030303" d="M5.84 13.292c.172-.521.011-1.383.663-1.565.584-.129.808.55 1.116.903-.46.007-.922.01-1.382.02l-.021.518c.564.001 1.129.003 1.694-.013l.064-.001.098.141c-.744-.003-1.488-.001-2.232-.003zM8.827 11.621c.504.149.669.614.746 1.085a2.802 2.802 0 0 1-.746-1.085zM14.399 13.294c.16-.504.03-1.233.528-1.542.93-.062 1.884-.091 2.812.017.426.364.322 1.024.471 1.524l-3.812.001zm.4-.645c-.011.173-.023.345-.033.518 1.028.001 2.056.007 3.086-.004l-.051-.53c-1.001.001-2.002-.018-3.002.016zM10.165 16.25c.178.195.348.396.513.604l-.47.001a20.016 20.016 0 0 0-.043-.605z"/>
    <path fill="#a9a9a9" d="M17.348 9.594c.243-.107.405.447.126.476-.189-.053-.244-.334-.126-.476z"/>
</svg>
