<svg xmlns="http://www.w3.org/2000/svg" width="24" height="24">
    <path fill="#1a1919" d="M2 1.006c.184-.398.504-.784.939-.901C8.87.112 14.802.07 20.733.111c.552-.033 1.014.434 1.167.934v22.027c-.175.472-.577.855-1.086.929H3.097c-.506-.085-.918-.456-1.097-.931V1.007zM3.183.212C2.61.23 2.121.753 2.101 1.318c.002 7.159-.001 14.319.001 21.478.039.588.577 1.1 1.173 1.08 5.783.004 11.565.003 17.347 0 .611.025 1.167-.509 1.185-1.115V1.314C21.786.71 21.232.179 20.622.204 14.903.199 9.185.204 3.466.202c-.095-.001-.19 0-.284.01z"/>
    <path fill="#1a1919" d="M3.215.465C3.636.407 4.06.464 4.482.464h15.837c.206-.002.415-.007.616.049.358.128.6.501.611.876v21.335c-.029.258-.105.55-.35.685-.326.247-.756.203-1.14.207-5.455-.002-10.909 0-16.363-.001-.239-.001-.486.012-.716-.062-.397-.136-.655-.568-.614-.982.002-7.034 0-14.069.001-21.102-.042-.495.351-.973.852-1.003zm-.076.524c-.218.073-.313.34-.303.553.035.652.021 1.305.024 1.957v19.187c-.005.276.272.459.53.433 5.555.004 11.111-.001 16.666.002.304-.004.678.079.914-.166.115-.165.079-.382.081-.572V1.43c.012-.238-.176-.489-.431-.468C14.915.959 9.21.962 3.505.96c-.122.003-.247-.003-.366.029z"/>
    <path fill="#1a1919" d="M5.169 6.143c1.009-1.429 2.024-2.854 3.038-4.279 1.007 1.444 2.018 2.886 3.018 4.335.205.31-.107.739-.464.663-.474-.137-.94-.304-1.412-.451-.003 2.103-.001 4.206-.002 6.309.684-.856 1.483-1.621 2.409-2.211 1.007-.703 2.193-1.059 3.333-1.479-.287-.339-.572-.681-.863-1.017-.101-.099-.187-.228-.18-.375-.017-.288.315-.497.578-.435 1.698.377 3.396.758 5.094 1.136-.94 1.496-1.889 2.987-2.832 4.481-.224.257-.703.177-.785-.171-.06-.515-.089-1.034-.14-1.551-1.133.466-2.307.893-3.29 1.644-.79.637-1.524 1.366-2.045 2.243a8.445 8.445 0 0 0-1.277 4.351c-.003.708 0 1.416-.002 2.125H7.032V6.403c-.474.146-.95.285-1.419.442-.371.076-.67-.398-.443-.701z"/>
    <path fill="#fffffe" d="M3.183.212c.094-.01.189-.011.284-.01C9.186.204 14.904.199 20.623.204c.61-.025 1.164.506 1.185 1.11v21.447c-.018.606-.574 1.14-1.185 1.115-5.782.003-11.565.004-17.347 0-.596.02-1.134-.492-1.173-1.08-.002-7.159 0-14.318-.001-21.478.02-.564.509-1.087 1.082-1.106zm.032.253c-.501.03-.894.508-.852 1.003 0 7.034.001 14.068-.001 21.102-.041.413.217.846.614.982.23.075.477.061.716.062 5.455 0 10.909-.001 16.363.001.384-.003.814.041 1.14-.207.245-.135.321-.427.35-.685V1.388c-.011-.374-.252-.748-.611-.876-.201-.056-.41-.051-.616-.049H4.481c-.422 0-.846-.056-1.267.001z"/>
    <path fill="#fffffe" d="M3.139.989c.119-.032.244-.026.366-.029C9.21.962 14.915.959 20.62.962c.255-.021.442.23.431.468v20.953c-.002.19.034.407-.081.572-.236.245-.609.162-.914.166-5.555-.003-11.111.002-16.666-.002-.258.026-.534-.157-.53-.433V3.499c-.002-.652.012-1.305-.024-1.957-.011-.213.085-.48.303-.553zm2.03 5.154c-.226.303.072.777.443.701.469-.157.946-.296 1.419-.442V21.46h2.315c.002-.708-.001-1.416.002-2.125a8.464 8.464 0 0 1 1.277-4.351c.522-.877 1.256-1.606 2.045-2.243.984-.751 2.157-1.178 3.29-1.644.052.516.081 1.036.14 1.551.082.348.561.428.785.171.943-1.494 1.892-2.985 2.832-4.481-1.698-.378-3.396-.76-5.094-1.136-.263-.062-.595.147-.578.435-.008.147.079.276.18.375.291.336.576.677.863 1.017-1.14.42-2.327.777-3.333 1.479-.927.59-1.725 1.355-2.409 2.211.001-2.103-.002-4.206.002-6.309.471.147.938.314 1.412.451.357.076.669-.353.464-.663-1-1.449-2.011-2.891-3.018-4.335-1.014 1.426-2.029 2.851-3.038 4.279z"/>
</svg>
