<svg xmlns="http://www.w3.org/2000/svg" width="24" height="24">
    <path fill="#ec1d24" d="M1.317 1.333h21.454c.66.151 1.156.675 1.334 1.317v.501c-.173.576-.517 1.075-.812 1.594a47241.17 47241.17 0 0 1-9.829 17.045c-.252.485-.758.752-1.273.876h-.235c-.531-.112-1.05-.387-1.305-.886C7.224 15.841 3.804 9.9.375 3.964a5.293 5.293 0 0 1-.376-.83v-.341a1.825 1.825 0 0 1 1.317-1.46zM2.55 3.466c3.182 5.486 6.296 11.016 9.532 16.468 3.16-5.492 6.335-10.974 9.489-16.468-6.341-.004-12.681-.004-19.021 0z"/>
    <path fill="#fff" d="M2.55 3.466c6.341-.004 12.681-.004 19.021 0-3.154 5.493-6.329 10.976-9.489 16.468C8.846 14.482 5.732 8.953 2.55 3.466z"/>
</svg>
