<?xml version="1.0" encoding="utf-8"?>
<!-- Generated by IcoMoon.io -->
<!DOCTYPE svg PUBLIC "-//W3C//DTD SVG 1.1//EN" "http://www.w3.org/Graphics/SVG/1.1/DTD/svg11.dtd">
<svg version="1.1" xmlns="http://www.w3.org/2000/svg" xmlns:xlink="http://www.w3.org/1999/xlink" width="24" height="24" viewBox="0 0 24 24">
<path fill="#c50000" d="M12.544 0.023c-6.635-0.301-12.219 4.798-12.521 11.433s4.798 12.219 11.433 12.521c6.635 0.301 12.219-4.798 12.521-11.433s-4.798-12.219-11.433-12.521z"></path>
<path fill="#fff" d="M12.44 2.305v0c-5.355-0.243-9.893 3.9-10.136 9.255v0c-0.243 5.355 3.9 9.893 9.255 10.136v0c5.355 0.243 9.893-3.9 10.136-9.255v0c0.243-5.355-3.9-9.893-9.255-10.136z"></path>
<path fill="#000" stroke="#000" stroke-width="0.4567" stroke-miterlimit="10" stroke-linecap="butt" stroke-linejoin="miter" d="M5.891 9.658c0.402-1.043 0.803-2.087 1.206-3.13 0.183-0.293 0.323-0.448 0.786-0.465 2.656-0.010 5.495-0.018 8.152-0.027 0.323 0.017 0.576 0.173 0.76 0.466 0.445 1.078 0.89 2.156 1.336 3.234 0.131 0.215 0.017 0.328-0.34 0.337-3.879-0.008-7.759-0.017-11.638-0.026-0.423-0.075-0.286-0.241-0.261-0.389z"></path>
<path fill="#000" d="M4.608 14.808h14.283c0.187 0 0.341 0.113 0.341 0.252v0.196c0 0.138-0.154 0.251-0.341 0.251h-14.283c-0.188 0-0.341-0.113-0.341-0.251v-0.196c0-0.139 0.153-0.252 0.341-0.252z"></path>
<path fill="#000" d="M5.528 15.997h1.329c0.146 0 0.266 0.132 0.266 0.296v1.375c0 0.161-0.121 0.296-0.266 0.296h-1.329c-0.147 0-0.266-0.133-0.266-0.296v-1.375c0-0.163 0.119-0.296 0.266-0.296z"></path>
<path fill="#000" d="M16.705 15.997h1.33c0.147 0 0.267 0.132 0.267 0.296v1.375c0 0.161-0.12 0.296-0.267 0.296h-1.33c-0.146 0-0.264-0.133-0.264-0.296v-1.375c0-0.163 0.119-0.296 0.264-0.296z"></path>
<path fill="#000" stroke="#000" stroke-width="0.4567" stroke-miterlimit="10" stroke-linecap="butt" stroke-linejoin="miter" d="M5.603 10.719h12.79c0.35 0.017 0.558 0.208 0.628 0.569v3.028h-14.153v-3.052c0.092-0.338 0.292-0.553 0.735-0.544z"></path>
<path fill="#fff" d="M6.361 9.409c0.37-0.89 0.739-1.78 1.11-2.669 0.167-0.25 0.297-0.383 0.722-0.397 2.44-0.008 5.050-0.015 7.49-0.023 0.297 0.015 0.531 0.147 0.699 0.397 0.409 0.92 0.819 1.838 1.229 2.758 0.12 0.183 0.016 0.278-0.314 0.287-3.565-0.008-7.129-0.015-10.693-0.022-0.39-0.064-0.264-0.206-0.243-0.331z"></path>
<path fill="#fff" d="M6.35 11.677c0.557 0 1.009 0.446 1.009 0.995s-0.452 0.995-1.009 0.995c-0.557 0-1.009-0.446-1.009-0.995s0.452-0.995 1.009-0.995z"></path>
<path fill="#fff" d="M17.503 11.677c0.556 0 1.008 0.446 1.008 0.995s-0.452 0.995-1.008 0.995c-0.558 0-1.009-0.446-1.009-0.995s0.451-0.995 1.009-0.995z"></path>
<path fill="none" stroke="#c50000" stroke-width="2.512" stroke-miterlimit="10" stroke-linecap="butt" stroke-linejoin="miter" d="M4.213 4.464l15.072 15.072"></path>
</svg>
