<?xml version="1.0" encoding="utf-8"?>
<!-- Generated by IcoMoon.io -->
<!DOCTYPE svg PUBLIC "-//W3C//DTD SVG 1.1//EN" "http://www.w3.org/Graphics/SVG/1.1/DTD/svg11.dtd">
<svg version="1.1" xmlns="http://www.w3.org/2000/svg" xmlns:xlink="http://www.w3.org/1999/xlink" width="24" height="24" viewBox="0 0 24 24">
<path fill="#154889" d="M10.875 0h2.179c2.621 0.267 5.165 1.352 7.093 3.16 2.187 1.98 3.531 4.793 3.852 7.714v2.181c-0.266 2.589-1.325 5.106-3.098 7.023-1.983 2.226-4.823 3.597-7.775 3.922h-2.182c-2.591-0.266-5.106-1.325-7.024-3.098-2.226-1.984-3.597-4.825-3.921-7.776v-2.182c0.296-3.010 1.713-5.905 3.991-7.909 1.891-1.725 4.353-2.744 6.885-3.035M11.435 4.175c-0.591 0.125-1.033 0.708-0.985 1.311 0.021 0.677 0.667 1.258 1.345 1.195 0.753-0.023 1.349-0.826 1.153-1.555-0.134-0.664-0.859-1.108-1.514-0.95M10.907 8.015c-1.008 1.557-1.961 3.146-2.96 4.709 0.406 0.119 0.937 0.309 1.262-0.081 0.747-0.784 1.243-1.766 1.871-2.643 0.008 0.955 0.014 1.908 0.023 2.862 0.848-0.001 1.695 0.023 2.541 0.019 0.003-1.201 0-2.401 0.001-3.603 0.358 0.306 0.701 0.627 1.059 0.934 0.019 0.86 0.001 1.721 0.010 2.582 0.422-0.247 1.109-0.387 1.092-1.004 0.005-0.677 0.073-1.366-0.026-2.038-0.288-0.728-1.070-1.055-1.617-1.558-0.592-0.431-1.134-1.144-1.953-1.026-0.581-0.048-1.023 0.385-1.303 0.845M11.168 13.238c-0.139 0.606-0.502 1.12-0.79 1.661-0.935 1.648-1.813 3.328-2.7 5.002 0.48 0.022 1.045 0.132 1.437-0.225 0.363-0.337 0.608-0.779 0.846-1.21 0.805-1.499 1.555-3.027 2.345-4.534 1.149 2.045 2.283 4.099 3.427 6.148 0.191-0.373 0.428-0.736 0.514-1.152 0.062-0.437-0.16-0.846-0.344-1.227-0.551-1.042-1.114-2.080-1.694-3.108-0.239-0.433-0.569-0.842-0.606-1.354-0.812-0.001-1.624 0-2.436-0.001z"></path>
<path fill="#fff" d="M11.435 4.175c0.656-0.158 1.38 0.287 1.514 0.95 0.196 0.73-0.4 1.532-1.153 1.555-0.679 0.063-1.325-0.517-1.345-1.195-0.048-0.603 0.394-1.186 0.985-1.311z"></path>
<path fill="#fff" d="M10.907 8.015c0.28-0.459 0.721-0.893 1.303-0.845 0.819-0.118 1.36 0.595 1.953 1.026 0.547 0.503 1.329 0.83 1.617 1.558 0.099 0.672 0.032 1.36 0.026 2.038 0.018 0.617-0.669 0.757-1.092 1.004-0.008-0.861 0.010-1.723-0.010-2.582-0.358-0.307-0.701-0.628-1.059-0.934-0.001 1.201 0.001 2.401-0.001 3.603-0.846 0.004-1.694-0.021-2.541-0.019-0.010-0.955-0.015-1.908-0.023-2.862-0.628 0.876-1.123 1.858-1.871 2.643-0.325 0.389-0.856 0.2-1.262 0.081 0.998-1.563 1.952-3.153 2.96-4.709z"></path>
<path fill="#fff" d="M11.168 13.238c0.812 0.001 1.624 0 2.436 0.001 0.037 0.512 0.368 0.92 0.606 1.354 0.58 1.027 1.142 2.065 1.694 3.108 0.184 0.381 0.406 0.79 0.344 1.227-0.086 0.416-0.324 0.779-0.514 1.152-1.144-2.049-2.278-4.103-3.427-6.148-0.79 1.507-1.54 3.035-2.345 4.534-0.239 0.431-0.483 0.872-0.846 1.21-0.392 0.357-0.957 0.247-1.437 0.225 0.887-1.673 1.765-3.353 2.7-5.002 0.288-0.54 0.651-1.055 0.79-1.661z"></path>
</svg>
