<!-- Generated by IcoMoon.io -->
<svg version="1.1" xmlns="http://www.w3.org/2000/svg" width="19" height="24" viewBox="0 0 19 24">
<title>regulatory--maximum-speed-limit-75--g2</title>
<path fill="#fff" d="M0 0h0.683c-0.316 0.077-0.58 0.319-0.683 0.627v-0.627z"></path>
<path fill="#fff" d="M18.391 0h0.758v24h-0.637c0.377-0.145 0.618-0.542 0.593-0.943 0.001-7.271-0-14.541 0.001-21.812 0.080-0.52-0.164-1.116-0.715-1.245z"></path>
<path fill="#fff" d="M0.741 0.523c0.079-0.027 0.164-0.028 0.246-0.030 5.724 0.003 11.449-0.002 17.174 0.003 0.261-0.015 0.458 0.24 0.429 0.489-0.001 7.373 0.002 14.745-0.002 22.118 0.016 0.256-0.217 0.472-0.471 0.446-5.724 0.001-11.449 0.001-17.173 0-0.253 0.027-0.488-0.191-0.471-0.446-0.004-7.372-0.001-14.745-0.002-22.117-0.016-0.191 0.082-0.395 0.269-0.462M2.517 2.994c-0.317 0.087-0.61 0.328-0.679 0.659-0.093 0.374 0.107 0.801 0.469 0.947 0.346 0.135 0.716 0.196 1.070 0.307 0.146 0.046 0.318 0.107 0.38 0.261 0.069 0.177-0.058 0.362-0.22 0.432-0.468 0.213-1.067 0.095-1.397-0.307-0.16 0.121-0.32 0.242-0.479 0.365 0.558 0.708 1.696 0.853 2.409 0.302 0.441-0.337 0.401-1.083-0.045-1.399-0.424-0.284-0.958-0.285-1.422-0.467-0.227-0.078-0.219-0.423-0.003-0.51 0.394-0.17 0.88-0.053 1.182 0.246 0.148-0.131 0.298-0.261 0.444-0.393-0.43-0.452-1.118-0.606-1.71-0.442M5.055 2.963c-0 1.098-0.001 2.196 0 3.295 0.204 0 0.407 0 0.611 0 0.002-0.429-0.001-0.859 0.001-1.288 0.405-0.009 0.813 0.018 1.217-0.017 0.503-0.055 0.903-0.541 0.865-1.045-0.016-0.504-0.47-0.91-0.961-0.936-0.577-0.022-1.155-0.005-1.733-0.009M8.318 2.963c0 1.098-0.001 2.196 0 3.295 0.841 0.001 1.681 0 2.521 0 0.002-0.197 0.001-0.394 0-0.591-0.637-0.001-1.273 0-1.911-0 0-0.301 0-0.601 0-0.902 0.337-0.001 0.673 0.001 1.010-0.001-0-0.2-0-0.4 0-0.599-0.337-0.002-0.673 0-1.010-0.001-0-0.204-0-0.407 0-0.611 0.615-0.001 1.23 0 1.845 0 0.001-0.197 0-0.394 0-0.591-0.82 0-1.639-0-2.458 0M11.516 2.963c0 1.098-0 2.196 0.001 3.295 0.837 0.001 1.674 0.001 2.512 0 0.001-0.197 0-0.393 0.001-0.59-0.633-0.001-1.267 0-1.9-0.001-0.001-0.3-0.001-0.601 0-0.901 0.336-0.001 0.672 0 1.008-0 0-0.201 0-0.401 0-0.601-0.336-0-0.672 0.001-1.008-0-0.001-0.204-0.001-0.407 0-0.61 0.615-0.002 1.23 0.001 1.845-0.001 0.001-0.197 0-0.393 0-0.589-0.82-0.002-1.639-0.001-2.459-0M14.704 2.963c0.001 1.098 0 2.196 0.001 3.294 0.38 0 0.761 0.003 1.141-0.001 0.562-0.010 1.121-0.327 1.377-0.835 0.205-0.419 0.228-0.916 0.103-1.362-0.179-0.624-0.798-1.061-1.436-1.090-0.395-0.016-0.79-0.005-1.186-0.007M3.51 7.9c0 1.098-0.001 2.196 0 3.295 0.819 0.001 1.638 0 2.457 0 0.001-0.169 0.001-0.337 0-0.505-0.622-0-1.244 0.001-1.866-0-0.001-0.93-0-1.859 0-2.789-0.197-0.002-0.394-0.001-0.591-0M6.536 7.9c0 1.098-0 2.196 0.001 3.295 0.197 0.001 0.393 0 0.59 0.001 0.001-1.099 0-2.197 0-3.296-0.197-0-0.394-0-0.591 0M7.986 7.9c0 1.099-0 2.197 0 3.296 0.193 0 0.386 0 0.579 0 0.002-0.666 0.001-1.333 0-1.999 0.323 0.663 0.635 1.332 0.955 1.996 0.329-0.657 0.636-1.325 0.963-1.983 0.007 0.662 0 1.323 0.003 1.984 0.193 0.001 0.386 0.001 0.58 0 0.001-1.098 0-2.196 0.001-3.295-0.192-0.001-0.385-0.001-0.577 0-0.317 0.654-0.65 1.301-0.967 1.956-0.32-0.65-0.642-1.299-0.957-1.951-0.193-0.010-0.387-0.004-0.581-0.005M11.925 7.9c0 1.098-0.001 2.196 0 3.295 0.197 0 0.393 0.001 0.59-0 0.001-1.098 0-2.196 0.001-3.294-0.197-0.002-0.394-0.001-0.591-0M13.084 7.9c-0 0.197-0.001 0.393 0 0.59 0.315 0.001 0.629-0.001 0.944 0.001 0.001 0.901-0.001 1.802 0.001 2.704 0.193 0 0.386 0 0.579 0 0.002-0.902-0-1.803 0.001-2.704 0.315-0.002 0.629 0 0.944-0.001 0.001-0.197 0.001-0.394 0-0.59-0.823-0.001-1.646-0.001-2.469 0M1.802 12.848c0.013 0.483 0.024 0.965 0.022 1.448 1.554 0.002 3.108 0 4.661 0.001-1.072 1.498-1.842 3.235-2.111 5.065-0.084 0.568-0.094 1.144-0.116 1.717 0.492 0.002 0.984 0.003 1.476-0.001 0.003-1.268 0.225-2.54 0.732-3.706 0.472-1.129 1.063-2.254 2.012-3.056 0.003-0.489 0.001-0.979 0.001-1.468-2.226-0.001-4.452-0-6.678 0M10.984 12.87c-0.085 1.273-0.173 2.546-0.252 3.82 0.485 0.122 0.968 0.261 1.456 0.37 0.796-0.301 1.698-0.436 2.521-0.166 0.824 0.284 1.132 1.438 0.614 2.121-0.251 0.329-0.652 0.507-1.050 0.583-1.041 0.177-2.136-0.060-3.035-0.608-0.252 0.413-0.508 0.824-0.761 1.236 1.002 0.605 2.169 0.963 3.346 0.902 0.726-0.026 1.45-0.245 2.046-0.665 0.531-0.378 0.93-0.946 1.081-1.583 0.195-0.833 0.025-1.759-0.51-2.435-0.498-0.639-1.268-1.034-2.063-1.146-0.707-0.103-1.419 0.013-2.11 0.165 0.028-0.384 0.058-0.767 0.082-1.151 1.341-0.013 2.683-0.005 4.025-0.005 0.011-0.48 0.014-0.96 0.027-1.44-1.806-0-3.612-0.001-5.418 0z"></path>
<path fill="#fff" d="M5.668 3.554c0.395 0.015 0.796-0.036 1.186 0.032 0.356 0.074 0.396 0.632 0.046 0.745-0.4 0.1-0.823 0.024-1.232 0.048 0-0.275-0-0.55 0-0.826z"></path>
<path fill="#fff" d="M15.318 3.554c0.502-0.043 1.137 0.014 1.377 0.535 0.207 0.475 0.127 1.154-0.365 1.423-0.299 0.206-0.672 0.151-1.013 0.155-0-0.704-0.001-1.409 0-2.113z"></path>
<path fill="#fff" d="M0 23.415c0.088 0.261 0.289 0.477 0.543 0.585h-0.543v-0.585z"></path>
<path fill="#040404" d="M0.683 0h17.708c0.551 0.129 0.795 0.725 0.715 1.245-0.001 7.271 0 14.541-0.001 21.812 0.024 0.401-0.216 0.798-0.593 0.943h-17.969c-0.253-0.109-0.455-0.324-0.543-0.585v-22.788c0.103-0.308 0.367-0.55 0.683-0.627M0.741 0.523c-0.187 0.067-0.286 0.271-0.269 0.462 0.001 7.372-0.002 14.745 0.002 22.117-0.017 0.255 0.218 0.473 0.471 0.446 5.724 0.001 11.449 0.001 17.173 0 0.254 0.026 0.487-0.19 0.471-0.446 0.004-7.373 0.001-14.745 0.002-22.118 0.028-0.249-0.169-0.503-0.429-0.489-5.724-0.005-11.449 0-17.174-0.003-0.082 0.002-0.167 0.003-0.246 0.030z"></path>
<path fill="#040404" d="M2.517 2.994c0.593-0.164 1.281-0.010 1.71 0.442-0.147 0.133-0.296 0.262-0.444 0.393-0.302-0.298-0.789-0.415-1.182-0.246-0.216 0.087-0.224 0.433 0.003 0.51 0.464 0.182 0.998 0.183 1.422 0.467 0.446 0.316 0.486 1.062 0.045 1.399-0.713 0.551-1.851 0.406-2.409-0.302 0.158-0.123 0.319-0.244 0.479-0.364 0.33 0.402 0.93 0.52 1.397 0.307 0.161-0.070 0.289-0.255 0.22-0.432-0.062-0.155-0.234-0.215-0.38-0.261-0.354-0.11-0.724-0.171-1.070-0.307-0.362-0.146-0.562-0.573-0.469-0.947 0.070-0.332 0.362-0.573 0.679-0.659z"></path>
<path fill="#040404" d="M5.055 2.963c0.577 0.005 1.156-0.012 1.733 0.009 0.491 0.026 0.945 0.432 0.961 0.936 0.038 0.504-0.362 0.99-0.865 1.045-0.404 0.036-0.811 0.008-1.217 0.017-0.002 0.429 0.001 0.859-0.001 1.288-0.204-0-0.407 0-0.611-0-0.001-1.099-0.001-2.197-0-3.295M5.668 3.554c-0.001 0.275-0 0.55-0 0.826 0.409-0.024 0.832 0.052 1.232-0.048 0.351-0.113 0.311-0.671-0.046-0.745-0.39-0.068-0.791-0.017-1.186-0.032z"></path>
<path fill="#040404" d="M8.318 2.963c0.819-0.001 1.638-0 2.458-0 0 0.197 0 0.394-0 0.591-0.615 0-1.23-0.001-1.845 0-0.001 0.204-0.001 0.407-0 0.611 0.337 0.001 0.673-0.001 1.010 0.001-0 0.2-0 0.4 0 0.599-0.337 0.002-0.673 0-1.010 0.001 0 0.301 0 0.601 0 0.902 0.637 0 1.274-0.001 1.911 0 0 0.197 0.001 0.394-0 0.591-0.841-0-1.681 0-2.522-0-0.001-1.099-0-2.197-0-3.295z"></path>
<path fill="#040404" d="M11.516 2.963c0.82-0 1.64-0.001 2.459 0 0 0.197 0 0.393-0 0.589-0.615 0.002-1.23-0.001-1.845 0.001-0.001 0.204-0.001 0.407 0 0.61 0.336 0.001 0.672 0 1.008 0 0 0.201 0 0.401 0 0.601-0.336 0-0.672-0.001-1.008 0-0.001 0.3-0.001 0.601 0 0.901 0.633 0.001 1.267-0 1.9 0.001-0 0.197 0 0.393-0.001 0.59-0.837 0.001-1.674 0.001-2.512 0-0.001-1.098-0-2.196-0.001-3.295z"></path>
<path fill="#040404" d="M14.704 2.963c0.395 0.002 0.791-0.009 1.186 0.007 0.638 0.028 1.257 0.466 1.436 1.090 0.125 0.446 0.103 0.943-0.103 1.362-0.255 0.507-0.815 0.825-1.377 0.835-0.38 0.004-0.761 0.001-1.141 0.001-0.001-1.098 0-2.196-0.001-3.294M15.318 3.554c-0.001 0.704-0.001 1.409-0 2.113 0.341-0.005 0.714 0.050 1.013-0.155 0.492-0.269 0.572-0.948 0.365-1.423-0.24-0.52-0.875-0.577-1.377-0.535z"></path>
<path fill="#040404" d="M3.51 7.9c0.197-0.001 0.394-0.001 0.591 0-0 0.93-0.001 1.859 0 2.789 0.622 0.001 1.244 0 1.866 0 0.001 0.168 0.001 0.337 0 0.505-0.819-0-1.638 0-2.457-0-0.001-1.099-0-2.197-0-3.295z"></path>
<path fill="#040404" d="M6.536 7.9c0.197-0.001 0.394-0.001 0.591-0 0 1.099 0 2.197-0 3.296-0.197-0-0.393 0-0.59-0.001-0.001-1.098-0-2.196-0.001-3.295z"></path>
<path fill="#040404" d="M7.986 7.9c0.194 0.001 0.388-0.005 0.581 0.005 0.315 0.653 0.637 1.302 0.957 1.951 0.317-0.654 0.65-1.301 0.967-1.956 0.192-0.002 0.384-0.001 0.577-0-0 1.098 0 2.196-0.001 3.295-0.193 0.001-0.386 0.001-0.58 0-0.003-0.661 0.003-1.323-0.003-1.984-0.327 0.658-0.634 1.326-0.963 1.983-0.321-0.665-0.632-1.333-0.955-1.996 0.001 0.666 0.002 1.333 0 1.999-0.193 0-0.386 0-0.579 0-0.001-1.099-0-2.197-0-3.296z"></path>
<path fill="#040404" d="M11.925 7.9c0.197-0.001 0.394-0.001 0.591 0-0.001 1.098 0 2.196-0.001 3.294-0.197 0.001-0.393 0.001-0.59 0-0.001-1.099-0-2.197-0-3.295z"></path>
<path fill="#040404" d="M13.084 7.9c0.823-0.001 1.646-0.001 2.469 0 0 0.197 0.001 0.393-0 0.59-0.315 0.001-0.629-0.001-0.944 0.001-0.001 0.901 0.001 1.802-0.001 2.704-0.193 0-0.386 0-0.579 0-0.002-0.901 0-1.802-0.001-2.704-0.315-0.003-0.629 0-0.944-0.001-0.001-0.197-0.001-0.394-0-0.59z"></path>
<path fill="#040404" d="M1.802 12.848c2.226-0 4.452-0.001 6.678 0 0 0.489 0.002 0.979-0.001 1.468-0.949 0.802-1.54 1.927-2.012 3.056-0.507 1.166-0.729 2.438-0.732 3.706-0.492 0.004-0.984 0.003-1.476 0.001 0.022-0.573 0.032-1.149 0.116-1.717 0.269-1.83 1.038-3.567 2.111-5.065-1.554-0.001-3.108 0.001-4.661-0.001 0.001-0.483-0.009-0.966-0.022-1.448z"></path>
<path fill="#030303" d="M10.984 12.87c1.806-0.001 3.612-0 5.418 0-0.014 0.48-0.017 0.96-0.027 1.44-1.342 0-2.684-0.009-4.025 0.005-0.024 0.384-0.054 0.767-0.082 1.151 0.69-0.152 1.403-0.268 2.11-0.165 0.795 0.112 1.565 0.507 2.063 1.146 0.535 0.676 0.705 1.602 0.51 2.435-0.151 0.637-0.55 1.204-1.081 1.583-0.596 0.42-1.321 0.638-2.046 0.665-1.177 0.060-2.344-0.298-3.346-0.902 0.253-0.412 0.509-0.823 0.761-1.236 0.899 0.548 1.994 0.785 3.035 0.608 0.398-0.076 0.799-0.254 1.050-0.583 0.518-0.683 0.21-1.837-0.614-2.121-0.823-0.27-1.725-0.134-2.521 0.166-0.488-0.109-0.971-0.248-1.456-0.37 0.079-1.273 0.168-2.546 0.252-3.82z"></path>
</svg>
