<?xml version="1.0" encoding="utf-8"?>
<!-- Generated by IcoMoon.io -->
<!DOCTYPE svg PUBLIC "-//W3C//DTD SVG 1.1//EN" "http://www.w3.org/Graphics/SVG/1.1/DTD/svg11.dtd">
<svg version="1.1" xmlns="http://www.w3.org/2000/svg" xmlns:xlink="http://www.w3.org/1999/xlink" width="24" height="24" viewBox="0 0 24 24">
<path fill="#c0111e" d="M10.694 0h2.597c1.674 0.247 3.329 0.731 4.787 1.609 2.598 1.521 4.599 4.042 5.449 6.935 0.227 0.713 0.321 1.457 0.473 2.187v2.193c-0.219 2.735-1.387 5.392-3.296 7.367-2.015 2.145-4.845 3.473-7.773 3.709h-1.85c-2.802-0.225-5.517-1.441-7.508-3.428-2.067-2.004-3.343-4.776-3.572-7.642v-2.57l0.022 0.36c0.374-3.472 2.319-6.728 5.219-8.679 1.614-1.125 3.518-1.761 5.453-2.040M7.782 3.373c-0.035 0.020-0.105 0.057-0.14 0.077-2.032 0.984-3.64 2.739-4.568 4.785l-0.035 0.147c-1.387 3.166-0.85 7.063 1.31 9.758 1.39-1.39 2.781-2.78 4.171-4.172 0.025-0.025 0.077-0.077 0.102-0.102 0.356-0.368 0.741-0.709 1.077-1.095 1.042-0.989 2.037-2.029 3.061-3.038 0.474-0.481 0.954-0.954 1.429-1.434l0.022 0.015 0.074-0.112c1.242-1.238 2.481-2.477 3.719-3.717-2.835-2.266-6.966-2.717-10.222-1.111M16.183 9.583c1.799 1.362 3.62 2.693 5.428 4.040 0.417-2.63-0.313-5.406-1.959-7.497-1.158 1.151-2.302 2.315-3.469 3.458M13.913 11.866c-0.12 0.116-0.237 0.233-0.354 0.352-0.384 0.384-0.765 0.77-1.154 1.148-0.331 0.338-0.667 0.67-1.005 1.003-0.375 0.388-0.763 0.766-1.143 1.153-0.384 0.384-0.781 0.753-1.148 1.153-1.047 1.031-2.079 2.075-3.119 3.113 2.667 2.129 6.48 2.682 9.635 1.376l0.091 0.084-0.043-0.212 0.082 0.087c3-1.261 5.281-4.083 5.828-7.298-1.832-1.381-3.673-2.753-5.53-4.102-0.712 0.717-1.429 1.427-2.14 2.145z"></path>
<path fill="#fff" d="M7.782 3.373c3.257-1.606 7.387-1.155 10.222 1.111-1.238 1.24-2.477 2.48-3.719 3.717-2.166-1.613-4.337-3.216-6.504-4.828z"></path>
<path fill="#fff" d="M3.074 8.234c0.928-2.046 2.537-3.801 4.568-4.785 1.204 0.857 2.347 1.804 3.585 2.609-0.551-0.077-1.073 0.359-1.077 0.917-0.043 0.453 0.349 0.756 0.673 0.993-0.010 0.087-0.029 0.26-0.039 0.345-0.37 0.112-0.758 0.188-1.094 0.389-0.653 0.431-1.088 1.141-1.273 1.895-0.167 0.659-0.098 1.341-0.116 2.012-0.123 0.19-0.24 0.381-0.354 0.575-1.621-1.655-3.246-3.303-4.873-4.951z"></path>
<path fill="#fff" d="M16.183 9.583c1.167-1.143 2.311-2.307 3.469-3.458 1.647 2.092 2.376 4.867 1.959 7.497-1.808-1.347-3.629-2.678-5.428-4.040z"></path>
<path fill="#fff" d="M11.926 6.589c0.724 0.608 1.501 1.148 2.263 1.708-0.474 0.48-0.954 0.953-1.429 1.434-0.099-0.371-0.169-0.755-0.332-1.105-0.159-0.328-0.554-0.37-0.865-0.452 0.32-0.462 0.561-1.017 0.363-1.585z"></path>
<path fill="#fff" d="M4.349 18.138c-2.16-2.694-2.697-6.592-1.31-9.758 1.806 1.882 3.659 3.72 5.481 5.586-1.39 1.393-2.781 2.782-4.171 4.172z"></path>
<path fill="#fff" d="M13.913 11.866c0.712-0.717 1.429-1.427 2.14-2.145 1.857 1.349 3.698 2.721 5.53 4.102-0.547 3.215-2.828 6.036-5.828 7.298l-0.082-0.087c-0.943-0.971-1.902-1.93-2.848-2.9 0.409-0.109 0.825-0.211 1.2-0.413-0.335-0.172-0.71-0.1-1.067-0.067-0.148-1.434-0.321-2.867-0.553-4.289 0.389-0.378 0.77-0.765 1.154-1.148 0.127 0.064 0.254 0.13 0.382 0.195 0.043 0.098 0.133 0.294 0.176 0.392 0.258-0.038 0.516-0.075 0.776-0.112-0.047-0.172-0.093-0.342-0.141-0.512-0.299-0.050-0.583-0.153-0.839-0.315z"></path>
<path fill="#fff" d="M8.915 10.983c0.063-0.339 0.234-0.643 0.441-0.915 0.653 0.72 0.47 1.82 0.343 2.701-0.336 0.387-0.721 0.727-1.077 1.095-0.197-0.198-0.393-0.395-0.59-0.592 0.151 0 0.451 0.001 0.6 0.003-0.029-0.776 0.141-1.536 0.283-2.293z"></path>
<path fill="#fff" d="M10.257 15.522c0.38-0.387 0.767-0.765 1.143-1.153 0.661 0.875 0.511 2.020 0.684 3.043-0.585-0.653-1.225-1.254-1.827-1.891z"></path>
<path fill="#fff" d="M10.185 15.659c0.572 0.585 1.154 1.161 1.722 1.75 0.226 0.184 0.208 0.486 0.247 0.748 0.165 0.001 0.331 0.004 0.495 0.006 0.998 0.995 1.966 2.019 2.976 3.001-3.155 1.306-6.968 0.753-9.635-1.376 1.040-1.038 2.072-2.082 3.119-3.113-0.080 0.487-0.078 0.982-0.095 1.475 0.544-0.091 1.291 0.043 1.616-0.515-0.262 0.011-0.526 0.032-0.788 0.053 0.114-0.675 0.222-1.353 0.343-2.029z"></path>
<path fill="#030303" d="M7.642 3.449c0.035-0.020 0.105-0.057 0.14-0.077 2.167 1.612 4.338 3.215 6.504 4.828l-0.074 0.112-0.022-0.015c-0.762-0.56-1.539-1.1-2.263-1.708 0.198 0.568-0.043 1.123-0.363 1.585 0.311 0.082 0.706 0.124 0.865 0.452 0.163 0.35 0.233 0.734 0.332 1.105-1.024 1.009-2.019 2.048-3.061 3.038 0.127-0.882 0.31-1.981-0.343-2.701-0.207 0.272-0.378 0.576-0.441 0.915-0.142 0.756-0.313 1.517-0.283 2.293-0.149-0.001-0.449-0.003-0.6-0.003 0.197 0.197 0.393 0.393 0.59 0.592-0.025 0.025-0.077 0.077-0.102 0.102-1.822-1.866-3.675-3.703-5.481-5.586l0.035-0.147c1.627 1.648 3.251 3.296 4.873 4.951 0.114-0.194 0.232-0.385 0.354-0.575 0.018-0.671-0.052-1.353 0.116-2.012 0.184-0.753 0.62-1.464 1.273-1.895 0.336-0.201 0.724-0.278 1.094-0.389 0.010-0.085 0.029-0.258 0.039-0.345-0.324-0.237-0.716-0.54-0.673-0.993 0.004-0.558 0.526-0.993 1.077-0.917-1.238-0.805-2.38-1.753-3.585-2.609z"></path>
<path fill="#030303" d="M13.559 12.218c0.117-0.119 0.234-0.236 0.354-0.352 0.255 0.162 0.54 0.265 0.839 0.315 0.047 0.17 0.093 0.34 0.141 0.512-0.26 0.036-0.518 0.074-0.776 0.112-0.043-0.098-0.133-0.294-0.176-0.392-0.128-0.066-0.255-0.131-0.382-0.195z"></path>
<path fill="#030303" d="M11.4 14.369c0.338-0.333 0.674-0.666 1.005-1.003 0.232 1.422 0.405 2.855 0.553 4.289 0.357-0.033 0.733-0.105 1.067 0.067-0.375 0.202-0.791 0.304-1.2 0.413 0.946 0.97 1.905 1.928 2.848 2.9l0.043 0.212-0.091-0.084c-1.010-0.982-1.979-2.007-2.976-3.001-0.165-0.001-0.331-0.004-0.495-0.006-0.039-0.262-0.021-0.564-0.247-0.748-0.568-0.589-1.15-1.165-1.722-1.75-0.121 0.675-0.229 1.353-0.343 2.029 0.262-0.021 0.526-0.042 0.788-0.053-0.325 0.558-1.072 0.424-1.616 0.515 0.017-0.493 0.015-0.988 0.095-1.475 0.367-0.399 0.765-0.769 1.148-1.153 0.601 0.636 1.242 1.238 1.827 1.891-0.173-1.023-0.022-2.168-0.684-3.043z"></path>
</svg>
