<!-- Generated by IcoMoon.io -->
<svg version="1.1" xmlns="http://www.w3.org/2000/svg" width="19" height="24" viewBox="0 0 19 24">
<title>regulatory--keep-left--g2</title>
<path fill="#000" d="M0.97 0h17.255c0.56 0.181 1.024 0.683 0.996 1.297 0.011 7.101 0.002 14.203 0.004 21.304 0.038 0.591-0.337 1.167-0.912 1.332l-0.27-0.084c0.591-0.107 1.076-0.628 1.018-1.249-0.003-7.1 0.005-14.2-0.004-21.3 0.029-0.626-0.535-1.169-1.156-1.136-5.5-0.009-11.001-0.002-16.501-0.004-0.475-0.027-0.97 0.226-1.149 0.681-0.143 0.403-0.078 0.84-0.091 1.259 0.002 6.957 0.001 13.914 0 20.872-0.040-0.044-0.12-0.133-0.16-0.177v-21.809c0.155-0.461 0.517-0.816 0.97-0.986z"></path>
<path fill="#000" d="M1.037 0.451c5.584-0.089 11.18-0.012 16.769-0.038 0.512-0.063 1.031 0.347 1 0.881 0.009 7.103 0.002 14.206 0.004 21.309 0.057 0.511-0.379 1.007-0.902 0.963-5.539 0-11.077 0.002-16.616-0.001-0.514 0.034-0.935-0.458-0.88-0.959 0-7.070 0-14.141-0.001-21.212-0.038-0.411 0.211-0.844 0.626-0.943M1.115 0.915c-0.196 0.068-0.244 0.297-0.235 0.482 0 7.068-0.001 14.138 0 21.206-0.038 0.249 0.138 0.527 0.412 0.494 5.539 0.005 11.078 0.005 16.617 0 0.281 0.037 0.476-0.233 0.433-0.495-0.003-7.102 0.007-14.205-0.005-21.307 0.031-0.357-0.357-0.453-0.637-0.417-5.527 0.028-11.062-0.046-16.585 0.037z"></path>
<path fill="#000" d="M3.031 1.901c0.221-0.001 0.441-0.001 0.662-0.001 0.001 0.554-0.003 1.109 0.003 1.664 0.412-0.552 0.813-1.111 1.224-1.663 0.271-0.001 0.541-0.001 0.812-0.001-0.404 0.557-0.814 1.11-1.214 1.669 0.474 0.854 0.952 1.706 1.422 2.563-0.251 0.001-0.503 0.001-0.754 0.002-0.369-0.659-0.732-1.32-1.101-1.979-0.585 0.506-0.35 1.3-0.392 1.976-0.217 0.002-0.434 0.004-0.651 0.008-0.024-1.412-0.003-2.825-0.011-4.238z"></path>
<path fill="#000" d="M6.739 1.905c0.816-0.003 1.632-0.002 2.448-0.001 0 0.222-0.001 0.445-0.001 0.667-0.595 0-1.189-0.001-1.784 0-0.001 0.351-0.001 0.702 0 1.053 0.455 0.001 0.909 0.001 1.364 0.001 0 0.22 0 0.441 0 0.661-0.454 0.001-0.909 0.001-1.364 0.001-0.001 0.397-0.001 0.794 0 1.192 0.639-0.001 1.278-0.002 1.917 0 0 0.22 0 0.44 0 0.66-0.859 0.002-1.718 0-2.577 0.001-0.006-1.412 0-2.823-0.003-4.235z"></path>
<path fill="#000" d="M10.115 1.904c0.816-0.001 1.632-0.001 2.448 0.001-0.001 0.222-0.001 0.443-0.001 0.665-0.595 0.001-1.189 0-1.784 0.001-0.001 0.351-0.001 0.702 0 1.053 0.454 0.001 0.908 0.001 1.361 0 0.001 0.221 0.001 0.442 0.002 0.662-0.455 0.001-0.909 0-1.363 0.001-0.001 0.397-0.001 0.794 0 1.191 0.639 0 1.278-0.001 1.917 0.001 0 0.22 0 0.44 0 0.66-0.86 0.001-1.72 0.001-2.58 0 0-1.412 0-2.823 0-4.235z"></path>
<path fill="#000" d="M13.49 1.9c0.574 0.007 1.148-0.015 1.721 0.009 0.577 0.019 1.090 0.512 1.123 1.091 0.062 0.581-0.374 1.157-0.946 1.263-0.41 0.040-0.824 0.009-1.236 0.017-0.002 0.618 0.001 1.236-0.003 1.854-0.22-0.001-0.439-0.001-0.659-0.001-0.001-1.411-0.001-2.822 0-4.233M14.152 2.562c-0.001 0.352-0.001 0.704 0 1.056 0.38-0.006 0.764 0.029 1.142-0.019 0.454-0.101 0.507-0.802 0.079-0.977-0.393-0.12-0.816-0.042-1.221-0.060z"></path>
<path fill="#000" d="M4.034 8.639c1.691-0.199 3.383-0.388 5.075-0.573 0.407-0.112 0.826 0.435 0.521 0.764-0.357 0.362-0.773 0.659-1.146 1.005 2.286 1.315 4.569 2.634 6.848 3.961-0.391 0.679-0.786 1.355-1.175 2.035-2.286-1.313-4.568-2.635-6.854-3.949-0.123 0.524-0.164 1.069-0.334 1.581-0.205 0.34-0.769 0.232-0.884-0.133-0.688-1.562-1.363-3.129-2.051-4.691z"></path>
<path fill="#000" d="M3.633 17.789c0.227-0.001 0.453-0.001 0.68-0.001 0.001 1.185 0 2.37 0 3.555 0.647 0 1.294 0 1.941 0 0.002 0.224 0.003 0.447 0.006 0.671-0.876 0.018-1.752 0.008-2.628 0.006 0.003-1.411 0-2.821 0.001-4.231z"></path>
<path fill="#000" d="M6.891 17.788c0.847-0.001 1.695-0.001 2.542 0.001-0.001 0.227-0.006 0.454-0.010 0.682-0.617-0.007-1.234-0.003-1.851-0.003-0.001 0.338-0.001 0.677-0.001 1.015 0.428 0 0.856-0.001 1.283 0.004-0.001 0.225-0.001 0.45-0.001 0.676-0.427-0.001-0.854-0.001-1.281 0-0.001 0.393-0.002 0.786 0 1.179 0.646 0.002 1.293 0.001 1.939 0.001 0.001 0.226 0.002 0.453 0.002 0.68-0.874 0-1.748 0.001-2.622 0-0.001-1.412-0.001-2.823 0-4.235z"></path>
<path fill="#000" d="M10.236 17.789c0.875-0.002 1.749-0.002 2.624 0-0.001 0.226-0.001 0.452 0 0.678-0.648 0.001-1.296 0-1.943 0.001-0.001 0.338-0.001 0.677-0.001 1.015 0.424 0 0.847 0 1.271 0.001-0.001 0.226-0.001 0.452-0.001 0.679-0.423-0.001-0.846 0-1.269 0-0.001 0.621 0 1.241-0.001 1.862-0.228-0.002-0.455-0.005-0.682-0.009 0.006-1.409 0.001-2.818 0.002-4.227z"></path>
<path fill="#000" d="M13.113 17.789c0.873-0.002 1.747-0.002 2.62 0 0.002 0.223 0.004 0.447 0.007 0.671-0.325 0.008-0.65 0.009-0.975 0.009 0 1.183-0.003 2.365 0.001 3.548-0.227 0.004-0.454 0.006-0.681 0.008-0.001-1.186 0-2.372 0-3.557-0.324-0.001-0.648-0.001-0.972 0 0-0.227 0-0.453 0-0.679z"></path>
<path fill="#fff" d="M0.251 0.841c0.179-0.455 0.674-0.708 1.149-0.681 5.5 0.002 11.001-0.005 16.501 0.004 0.621-0.033 1.185 0.51 1.156 1.136 0.009 7.1 0.001 14.2 0.004 21.3 0.058 0.621-0.427 1.142-1.018 1.249-5.605-0.052-11.215-0.032-16.823-0.014-0.508-0.037-0.882-0.409-1.060-0.863 0.001-6.958 0.002-13.915 0-20.872 0.013-0.419-0.052-0.856 0.091-1.259M1.037 0.451c-0.415 0.099-0.664 0.532-0.626 0.943 0.001 7.071 0.001 14.142 0.001 21.212-0.055 0.501 0.366 0.993 0.88 0.959 5.539 0.003 11.077 0.001 16.616 0.001 0.523 0.044 0.959-0.452 0.902-0.963-0.002-7.103 0.005-14.206-0.004-21.309 0.031-0.534-0.488-0.944-1-0.881-5.589 0.026-11.185-0.051-16.769 0.038z"></path>
<path fill="#fff" d="M1.115 0.915c5.523-0.083 11.058-0.009 16.585-0.037 0.28-0.036 0.668 0.060 0.637 0.417 0.012 7.102 0.002 14.205 0.005 21.307 0.043 0.262-0.152 0.532-0.433 0.495-5.539 0.005-11.078 0.005-16.617 0-0.274 0.033-0.45-0.245-0.412-0.494-0.001-7.068 0-14.138 0-21.206-0.009-0.185 0.039-0.414 0.235-0.482M3.031 1.901c0.008 1.413-0.013 2.826 0.011 4.238 0.217-0.004 0.434-0.006 0.651-0.008 0.042-0.676-0.193-1.47 0.392-1.976 0.369 0.659 0.732 1.32 1.101 1.979 0.251-0.001 0.503-0.001 0.754-0.002-0.47-0.857-0.948-1.709-1.422-2.563 0.4-0.559 0.81-1.112 1.214-1.669-0.271 0-0.541 0-0.812 0.001-0.411 0.552-0.812 1.111-1.224 1.663-0.006-0.555-0.002-1.11-0.003-1.664-0.221 0-0.441 0-0.662 0.001M6.739 1.905c0.003 1.412-0.003 2.823 0.003 4.235 0.859-0.001 1.718 0.001 2.577-0.001 0-0.22 0-0.44 0-0.66-0.639-0.002-1.278-0.001-1.917 0-0.001-0.398-0.001-0.795 0-1.192 0.455 0 0.91 0 1.364-0.001 0-0.22 0-0.441 0-0.661-0.455 0-0.909 0-1.364-0.001-0.001-0.351-0.001-0.702 0-1.053 0.595-0.001 1.189 0 1.784 0 0-0.222 0.001-0.445 0.001-0.667-0.816-0.001-1.632-0.002-2.448 0.001M10.115 1.904c0 1.412 0 2.823 0 4.235 0.86 0.001 1.72 0.001 2.58 0 0-0.22 0-0.44 0-0.66-0.639-0.002-1.278-0.001-1.917-0.001-0.001-0.397-0.001-0.794 0-1.191 0.454-0.001 0.908 0 1.363-0.001-0.001-0.22-0.001-0.441-0.002-0.662-0.453 0.001-0.907 0.001-1.361 0-0.001-0.351-0.001-0.702 0-1.053 0.595-0.001 1.189 0 1.784-0.001 0-0.222 0-0.443 0.001-0.665-0.816-0.002-1.632-0.002-2.448-0.001M13.49 1.9c-0.001 1.411-0.001 2.822 0 4.233 0.22 0 0.439 0 0.659 0.001 0.004-0.618 0.001-1.236 0.003-1.854 0.412-0.008 0.826 0.023 1.236-0.017 0.572-0.106 1.008-0.682 0.946-1.263-0.033-0.579-0.546-1.072-1.123-1.091-0.573-0.024-1.147-0.002-1.721-0.009M4.034 8.639c0.688 1.562 1.363 3.129 2.051 4.691 0.115 0.365 0.679 0.473 0.884 0.133 0.17-0.512 0.211-1.057 0.334-1.581 2.286 1.314 4.568 2.636 6.854 3.949 0.389-0.68 0.784-1.356 1.175-2.035-2.279-1.327-4.562-2.646-6.848-3.961 0.373-0.346 0.789-0.643 1.146-1.005 0.305-0.329-0.114-0.876-0.521-0.764-1.692 0.185-3.384 0.374-5.075 0.573M3.633 17.789c-0.001 1.41 0.002 2.82-0.001 4.231 0.876 0.002 1.752 0.012 2.628-0.006-0.003-0.224-0.004-0.447-0.006-0.671-0.647 0-1.294 0-1.941 0 0-1.185 0.001-2.37 0-3.555-0.227 0-0.453 0-0.68 0.001M6.891 17.788c-0.001 1.412-0.001 2.823 0 4.235 0.874 0.001 1.748 0 2.622 0 0-0.227-0.001-0.454-0.002-0.68-0.646 0-1.293 0.001-1.939-0.001-0.002-0.393-0.001-0.786 0-1.179 0.427-0.001 0.854-0.001 1.281 0 0-0.226 0-0.451 0.001-0.676-0.427-0.005-0.855-0.004-1.283-0.004 0-0.338 0-0.677 0.001-1.015 0.617 0 1.234-0.004 1.851 0.003 0.004-0.228 0.009-0.455 0.010-0.682-0.847-0.002-1.695-0.002-2.542-0.001M10.236 17.789c-0.001 1.409 0.004 2.818-0.002 4.227 0.227 0.004 0.454 0.007 0.682 0.009 0.001-0.621 0-1.241 0.001-1.862 0.423 0 0.846-0.001 1.269 0 0-0.227 0-0.453 0.001-0.679-0.424-0.001-0.847-0.001-1.271-0.001 0-0.338 0-0.677 0.001-1.015 0.647-0.001 1.295 0 1.943-0.001-0.001-0.226-0.001-0.452 0-0.678-0.875-0.002-1.749-0.002-2.624 0M13.113 17.789c0 0.226 0 0.452 0 0.679 0.324-0.001 0.648-0.001 0.972 0 0 1.185-0.001 2.371 0 3.557 0.227-0.002 0.454-0.004 0.681-0.008-0.004-1.183-0.001-2.365-0.001-3.548 0.325 0 0.65-0.001 0.975-0.009-0.003-0.224-0.005-0.448-0.007-0.671-0.873-0.002-1.747-0.002-2.62 0z"></path>
<path fill="#fff" d="M14.152 2.562c0.405 0.018 0.828-0.060 1.221 0.060 0.428 0.175 0.375 0.876-0.079 0.977-0.378 0.048-0.762 0.013-1.142 0.019-0.001-0.352-0.001-0.704 0-1.056z"></path>
<path fill="#020202" opacity="0.87" d="M0 22.795c0.040 0.044 0.12 0.133 0.16 0.177 0.178 0.454 0.552 0.826 1.060 0.863 0.454 0.089 0.92 0.042 1.379 0.037 5.187 0.018 10.376-0.002 15.563 0.014l0.151 0.047-0.169 0.067h-17.080c-0.496-0.118-0.885-0.485-1.064-0.958v-0.247z"></path>
</svg>
