<svg xmlns="http://www.w3.org/2000/svg" width="24" height="24">
    <path fill="#d40000" d="M10.999 0h1.966c4.206.378 8.131 3.034 9.895 6.892.631 1.291.932 2.704 1.14 4.115v1.945c-.296 2.723-1.414 5.377-3.341 7.348-1.998 2.117-4.783 3.377-7.658 3.701h-1.967c-4.045-.383-7.852-2.842-9.692-6.49C.592 16.113.22 14.557 0 12.997v-1.956c.17-1.116.355-2.24.778-3.294C2.082 4.244 5.122 1.437 8.734.455 9.474.235 10.242.144 11 .001zm-.263 2.484c-3.584.426-6.768 3.077-7.858 6.515-.9 2.704-.514 5.804 1.048 8.191 1.847 2.92 5.357 4.686 8.804 4.38 3.592-.232 6.902-2.69 8.197-6.043 1.064-2.66.848-5.792-.583-8.276-1.849-3.344-5.825-5.32-9.608-4.766z"/>
    <path fill="#fff" d="M10.736 2.484c3.784-.553 7.759 1.422 9.608 4.766 1.432 2.484 1.648 5.616.583 8.276-1.295 3.353-4.606 5.812-8.197 6.043-3.448.306-6.958-1.46-8.804-4.38-1.561-2.387-1.948-5.488-1.048-8.191 1.09-3.438 4.273-6.089 7.858-6.515zm2.787 7.223c.476-.143.968-.227 1.466-.18-.613 4.012-4.337 7.211-8.388 7.254-.002.728-.001 1.457-.001 2.184 2.926-.059 5.807-1.339 7.786-3.498 1.444-1.531 2.39-3.499 2.762-5.566.485.113.914.367 1.315.654-.58-1.555-1.152-3.114-1.735-4.669-1.075 1.267-2.137 2.548-3.205 3.821z"/>
    <path d="M13.523 9.707c1.068-1.273 2.13-2.554 3.205-3.821.583 1.555 1.156 3.114 1.735 4.669-.401-.287-.83-.541-1.315-.654-.372 2.066-1.319 4.034-2.762 5.566-1.979 2.159-4.86 3.439-7.786 3.498 0-.727-.001-1.456.001-2.184 4.051-.043 7.775-3.242 8.388-7.254-.498-.047-.99.037-1.466.18z"/>
</svg>
