<?xml version="1.0" encoding="utf-8"?>
<!-- Generated by IcoMoon.io -->
<!DOCTYPE svg PUBLIC "-//W3C//DTD SVG 1.1//EN" "http://www.w3.org/Graphics/SVG/1.1/DTD/svg11.dtd">
<svg version="1.1" xmlns="http://www.w3.org/2000/svg" xmlns:xlink="http://www.w3.org/1999/xlink" width="24" height="24" viewBox="0 0 24 24">
<path fill="#fff" d="M2.465 22.726c0 0.678 0.549 1.195 1.228 1.195h16.607c0.678 0 1.227-0.517 1.227-1.195v-21.421c0-0.679-0.549-1.228-1.227-1.228h-16.607c-0.678 0-1.228 0.549-1.228 1.228v21.421z"></path>
<path fill="#000" d="M14.549 18.816h0.323l-1.357 3.167h-0.323l1.357-3.167zM15.422 18.816h0.614v1.002l0.129-0.097 0.258-0.13 0.162-0.032h0.323l0.13 0.032 0.097 0.065 0.129 0.065 0.097 0.129 0.065 0.097 0.065 0.129 0.065 0.161v1.745h-0.582v-1.422l-0.032-0.097-0.033-0.097-0.032-0.097-0.065-0.064-0.097-0.065-0.097-0.032h-0.194l-0.194 0.064-0.065 0.065-0.065 0.097-0.032 0.097-0.032 0.129v1.422h-0.614v-3.167zM8.475 19.624l-0.872 0.904 0.937 1.454h-0.743l-0.614-1.034-0.291 0.226v0.808h-0.614v-3.167h0.614v1.68l0.839-0.872h0.743zM10.801 19.624l0.129 0.064 0.194 0.194 0.194-0.194 0.129-0.064 0.129-0.065 0.162-0.033h0.129l0.259 0.065 0.129 0.065 0.097 0.065 0.097 0.097 0.097 0.13 0.065 0.097 0.032 0.162v1.777h-0.614v-1.615l-0.032-0.097-0.065-0.064-0.065-0.065-0.097-0.065h-0.194l-0.097 0.033-0.064 0.032-0.065 0.097-0.065 0.065-0.032 0.097v1.583h-0.646v-1.615l-0.032-0.097-0.065-0.064-0.097-0.065-0.065-0.065h-0.193l-0.097 0.033-0.065 0.032-0.097 0.097-0.033 0.065-0.064 0.194v1.487h-0.582v-2.358h0.549l0.032 0.161 0.162-0.097 0.129-0.064 0.161-0.065h0.42l0.129 0.065zM3.273 22.693c0 0.259 0.194 0.42 0.42 0.42h16.64c0.226 0 0.388-0.161 0.388-0.42v-21.421c0-0.226-0.162-0.388-0.388-0.388h-16.64c-0.226 0-0.42 0.161-0.42 0.388v21.421zM2.788 22.693v-21.421c0-0.485 0.42-0.872 0.904-0.872h16.64c0.485 0 0.872 0.388 0.872 0.872v21.421c0 0.517-0.388 0.905-0.872 0.905h-16.64c-0.484 0-0.904-0.387-0.904-0.905v0z"></path>
<path fill="#000" d="M11.432 2.471h0.354v2.355h-0.354v-2.355zM7.755 3.761c0 0 0 0.032 0.032 0.032h0.42v-0.032l-0.194-0.612c0-0.033-0.032-0.033-0.032-0.033s0 0.033-0.032 0.033l-0.194 0.58v0.032zM15.078 2.471h0.354v1.645c0.032 0.161 0.128 0.29 0.258 0.354 0.033 0.032 0.129 0.065 0.193 0.065 0.226 0 0.419-0.193 0.419-0.419v-1.645h0.355v1.677c0 0.29-0.193 0.58-0.516 0.71-0.097 0.032-0.193 0.032-0.291 0.032-0.484 0-0.773-0.451-0.773-0.71v-1.709zM9.336 4.826l0.613-1.194v-0.032l-0.549-1.129h0.387l0.355 0.678h0.032l0.323-0.678h0.419l-0.549 1.129v0.032l0.58 1.194h-0.419l-0.355-0.742h-0.032c0 0 0 0-0.033 0l-0.355 0.742h-0.419zM12.529 4.826v-2.355h0.356l0.547 1.322h0.033l0.516-1.322h0.387v2.355h-0.387v-1.258c-0.033 0-0.033 0.032-0.033 0.032l-0.516 1.226-0.483-1.258h-0.032c0 0-0.032 0-0.032 0.032v1.226h-0.356zM4.788 4.826v-2.355h0.387l0.516 1.322h0.032l0.516-1.322h0.387v2.355h-0.387v-1.258c-0.033 0-0.033 0.032-0.033 0.032l-0.516 1.226-0.484-1.258h-0.032c0 0-0.033 0-0.033 0.032v1.226h-0.355zM17.368 4.826v-2.355h0.387l0.516 1.322h0.065l0.516-1.322h0.354v2.355h-0.354v-1.226c0-0.032-0.032-0.032-0.032-0.032s0 0.032-0.032 0.032l-0.484 1.226-0.516-1.258c-0.032 0-0.032 0-0.032 0.032v1.226h-0.387zM6.981 4.826l0.806-2.355h0.387l0.806 2.355h-0.387l-0.226-0.646c0 0 0-0.032-0.033-0.032h-0.71c0 0 0 0.032-0.032 0.032l-0.226 0.646h-0.387z"></path>
<path fill="#000" d="M4.942 10.957v-0.867c0.402-0.018 0.684-0.045 0.845-0.080 0.256-0.057 0.465-0.17 0.626-0.34 0.11-0.116 0.194-0.271 0.25-0.465 0.033-0.116 0.049-0.203 0.049-0.259h1.059v6.481h-1.305v-4.47h-1.524zM10.553 13.958c0.122 0.395 0.372 0.592 0.751 0.592s0.626-0.197 0.744-0.592c0.118-0.395 0.177-0.965 0.177-1.71 0-0.781-0.059-1.359-0.177-1.734s-0.366-0.563-0.744-0.563c-0.378 0-0.629 0.188-0.751 0.563s-0.183 0.954-0.183 1.734c0 0.745 0.061 1.315 0.183 1.71v0zM13.041 9.772c0.332 0.581 0.498 1.406 0.498 2.476s-0.166 1.894-0.498 2.472c-0.332 0.578-0.911 0.867-1.736 0.867s-1.404-0.289-1.736-0.867c-0.332-0.578-0.498-1.402-0.498-2.472s0.166-1.895 0.498-2.476c0.332-0.581 0.911-0.872 1.736-0.872s1.404 0.291 1.736 0.872v0zM15.644 13.958c0.122 0.395 0.372 0.592 0.751 0.592s0.626-0.197 0.744-0.592c0.118-0.395 0.177-0.965 0.177-1.71 0-0.781-0.059-1.359-0.177-1.734s-0.366-0.563-0.744-0.563c-0.378 0-0.629 0.188-0.751 0.563s-0.183 0.954-0.183 1.734c0 0.745 0.061 1.315 0.183 1.71v0zM18.132 9.772c0.332 0.581 0.498 1.406 0.498 2.476s-0.166 1.894-0.498 2.472c-0.332 0.578-0.911 0.867-1.736 0.867s-1.404-0.289-1.736-0.867c-0.332-0.578-0.498-1.402-0.498-2.472s0.166-1.895 0.498-2.476c0.332-0.581 0.911-0.872 1.736-0.872s1.404 0.291 1.736 0.872v0z"></path>
</svg>
