<!-- Generated by IcoMoon.io -->
<svg version="1.1" xmlns="http://www.w3.org/2000/svg" width="24" height="24" viewBox="0 0 24 24">
<title>regulatory--no-go-straight-or-turn-left--g1</title>
<path fill="#c24434" d="M10.6 0h2.807c3.68 0.481 7.123 2.659 8.974 5.897 0.913 1.411 1.326 3.063 1.618 4.698v2.817c-0.485 3.709-2.698 7.172-5.976 9.014-1.395 0.885-3.018 1.283-4.625 1.573h-2.81c-3.679-0.483-7.121-2.659-8.968-5.899-0.913-1.412-1.327-3.065-1.621-4.702v-2.815c0.294-1.601 0.685-3.221 1.569-4.609 1.842-3.283 5.316-5.496 9.031-5.975M5.78 4.472c2.174 2.297 4.454 4.5 6.69 6.738 0.001 0.456-0.010 0.911-0.036 1.366-0.599-0.323-1.239-0.646-1.943-0.583-0.32-0.351-0.653-0.69-0.988-1.027l-0.073 0.065c0.141-0.131 0.275-0.269 0.408-0.407-0.314-0.013-0.628-0.020-0.942-0.015 0.055-0.001 0.165-0.003 0.22-0.004-1.568-1.579-3.141-3.155-4.711-4.733-3.060 3.727-2.937 9.672 0.435 13.162 3.344 3.731 9.678 4.098 13.414 0.758-1.081-1.082-2.137-2.19-3.261-3.228 0.006-0.9 0.005-1.799 0.001-2.699 1.562 1.502 3.057 3.071 4.595 4.598 2.791-3.456 2.96-8.754 0.287-12.323-1.399-1.96-3.592-3.266-5.936-3.742-2.855-0.622-5.916 0.236-8.16 2.075z"></path>
<path fill="#fff" d="M5.78 4.472c2.244-1.838 5.305-2.697 8.16-2.075 2.343 0.476 4.537 1.782 5.936 3.742 2.674 3.569 2.504 8.867-0.287 12.323-1.538-1.527-3.033-3.096-4.595-4.598 0.005-1.934-0.009-3.868 0.024-5.801 0.452 0.485 0.896 0.978 1.347 1.464-0.137-1.076 0.426-2.44-0.534-3.243-0.707-0.773-1.385-1.573-2.080-2.357-0.7 0.775-1.357 1.588-2.047 2.372-0.912 0.828-0.346 2.18-0.496 3.254 0.406-0.514 0.827-1.014 1.258-1.507 0.023 1.054 0.003 2.108 0.004 3.163-2.235-2.238-4.516-4.441-6.69-6.738z"></path>
<path fill="#fff" d="M4.405 5.872c1.569 1.578 3.143 3.154 4.711 4.733-0.055 0.001-0.165 0.003-0.22 0.004-0.616 0.079-1.385-0.196-1.86 0.319-0.836 0.823-1.696 1.62-2.534 2.439 0.901 0.971 1.857 1.89 2.802 2.818 0.834-0.008 1.67-0.008 2.506-0.014-0.477-0.465-0.949-0.935-1.416-1.407 0.807-0.023 1.615-0.029 2.421-0.008 0.842 0.005 1.542 0.766 1.611 1.582 0.087 0.942 0.013 1.891 0.036 2.837 0.838-0.003 1.677 0.006 2.516 0 0.005-0.871 0.001-1.742 0.015-2.612 1.123 1.038 2.18 2.146 3.261 3.228-3.736 3.34-10.070 2.973-13.414-0.758-3.371-3.491-3.494-9.435-0.435-13.162z"></path>
<path fill="#fff" d="M8.403 11.979c0.33-0.328 0.681-0.636 1.028-0.947l0.073-0.065c0.334 0.337 0.667 0.676 0.988 1.027-0.696 0.008-1.392 0.013-2.088-0.014z"></path>
<path fill="#15171e" d="M11.705 6.299c0.69-0.784 1.347-1.597 2.047-2.372 0.695 0.784 1.372 1.584 2.080 2.357 0.96 0.803 0.397 2.168 0.534 3.243-0.451-0.486-0.895-0.979-1.347-1.464-0.033 1.934-0.019 3.868-0.024 5.801 0.004 0.9 0.005 1.799-0.001 2.699-0.014 0.871-0.010 1.742-0.015 2.612-0.838 0.006-1.677-0.003-2.516 0-0.024-0.946 0.050-1.895-0.036-2.837-0.069-0.816-0.769-1.577-1.611-1.582-0.807-0.021-1.615-0.015-2.421 0.008 0.467 0.472 0.939 0.942 1.416 1.407-0.836 0.006-1.671 0.006-2.506 0.014-0.945-0.929-1.901-1.847-2.802-2.818 0.838-0.819 1.699-1.616 2.534-2.439 0.475-0.515 1.244-0.24 1.86-0.319 0.314-0.005 0.628 0.003 0.942 0.015-0.133 0.138-0.268 0.276-0.408 0.407-0.347 0.312-0.697 0.619-1.028 0.947 0.696 0.026 1.392 0.021 2.088 0.014 0.704-0.063 1.343 0.26 1.943 0.583 0.026-0.455 0.038-0.91 0.036-1.366-0.001-1.054 0.019-2.108-0.004-3.163-0.431 0.493-0.852 0.993-1.258 1.507 0.151-1.074-0.416-2.426 0.496-3.254z"></path>
</svg>
