<!-- Generated by IcoMoon.io -->
<svg version="1.1" xmlns="http://www.w3.org/2000/svg" width="24" height="24" viewBox="0 0 24 24">
<title>regulatory--end-of-snow-chains--g2</title>
<path fill="#0363b5" d="M10.748 0h2.493c0.814 0.151 1.633 0.29 2.422 0.544-0.279 0.634-0.578 1.257-0.87 1.883-1.932-0.020-3.862 0.004-5.794-0.014-0.364 0.014-0.817-0.025-1.063 0.303-0.587 0.811-0.886 1.79-1.427 2.627-0.338 0.507-1.246 0.595-1.229 1.312 0.018 1.072-0.047 2.148-0.012 3.219 0.017 0.498 0.539 0.631 0.925 0.757-0.021 0.43 0.061 0.853 0.145 1.273 0.61 0.027 1.22-0.009 1.827-0.055 0.014-0.438 0.020-0.877 0.027-1.315 0.939-0.001 1.88-0.007 2.819 0.004-0.381 0.819-0.759 1.638-1.147 2.453-0.244 0.124-0.487 0.25-0.728 0.377 0.094 0.19 0.189 0.381 0.278 0.574-0.014 0.033-0.044 0.097-0.059 0.128-0.331-0.003-0.663-0.026-0.994-0.050 0.091 0.417 0.24 0.82 0.466 1.184-0.102 0.215-0.203 0.432-0.305 0.648-0.441-0.043-0.877 0.038-1.293 0.179 0.203 0.34 0.411 0.68 0.616 1.019-0.254-0.023-0.51-0.048-0.764-0.073 0 0.364-0.001 0.728-0.007 1.093 0.099 0.013 0.299 0.042 0.399 0.055-0.616 1.36-1.287 2.693-1.87 4.067-3.104-1.893-5.127-5.272-5.603-8.849v-2.648c0.244-1.375 0.567-2.753 1.21-4.003 1.762-3.683 5.507-6.217 9.537-6.693z"></path>
<path fill="#0363b5" d="M18.4 1.82c3.115 1.917 5.157 5.32 5.6 8.93v2.491c-0.23 1.398-0.561 2.798-1.21 4.067-1.706 3.533-5.238 6.091-9.125 6.618-0.446-0.051-0.893-0.021-1.33 0.074h-0.453c-0.457-0.103-0.927-0.172-1.392-0.073-0.75-0.077-1.49-0.239-2.206-0.476 0.314-0.57 0.591-1.16 0.858-1.752 0.27 0.146 0.537 0.295 0.806 0.443 0.145-0.197 0.29-0.395 0.434-0.592 0.16 0.32 0.321 0.642 0.483 0.963 0.247-0.248 0.494-0.494 0.746-0.737-0.219-0.4-0.449-0.796-0.673-1.193 0.35-0.652 0.711-1.297 1.083-1.937 0.329 0.646 0.798 1.234 1.002 1.937-0.145 0.43-0.417 0.802-0.642 1.193 0.241 0.256 0.479 0.515 0.713 0.777 0.175-0.326 0.347-0.653 0.52-0.981 0.141 0.213 0.28 0.427 0.421 0.64 0.305-0.173 0.612-0.342 0.923-0.502-0.124-0.235-0.249-0.47-0.373-0.704 0.37 0.020 0.741 0.044 1.111 0.067-0.089-0.338-0.157-0.683-0.288-1.008-0.453-0.086-0.914-0.051-1.371-0.040-0.369-0.638-0.728-1.281-1.081-1.927 0.73-0.007 1.461-0.005 2.191-0.005 0.236 0.403 0.466 0.807 0.702 1.209 0.33-0.085 0.661-0.164 0.995-0.239-0.194-0.32-0.387-0.64-0.58-0.961 0.241-0.007 0.484-0.012 0.727-0.017-0.003-0.363-0.003-0.724 0-1.087-0.237-0.008-0.476-0.016-0.715-0.025 0.185-0.312 0.373-0.621 0.558-0.933-0.342-0.089-0.682-0.185-1.020-0.288-0.219 0.408-0.442 0.815-0.664 1.222-0.732 0.030-1.462 0.073-2.194 0.072 0.376-0.673 0.763-1.338 1.166-1.996 0.443 0.027 0.887 0.056 1.33 0.072 0.086-0.342 0.173-0.681 0.263-1.021-0.357 0.013-0.713 0.029-1.070 0.039 0.119-0.235 0.236-0.47 0.352-0.706-0.295-0.176-0.588-0.355-0.878-0.54-0.143 0.219-0.287 0.438-0.43 0.657-0.125-0.27-0.248-0.541-0.373-0.811 0.342-0.737 0.685-1.475 1.032-2.211 0.487 0.003 0.973 0.003 1.458 0.004 0.053 0.419-0.134 0.953 0.157 1.297 0.56 0.179 1.163 0.044 1.74 0.025 0.012-0.425 0.016-0.849 0.022-1.274 0.561 0.037 1.177-0.271 1.114-0.92-0.061-1.137 0.188-2.34-0.166-3.434-0.618-0.47-1.294-0.91-1.516-1.714 0.411-0.899 0.839-1.79 1.24-2.693z"></path>
<path fill="#0363b5" d="M7.193 5.767c0.563-0.845 0.617-2.525 1.928-2.478 1.756 0.005 3.511 0.003 5.267 0.005-0.386 0.827-0.77 1.654-1.156 2.481-2.013-0.009-4.027 0.005-6.039-0.008z"></path>
<path fill="#0363b5" d="M6.826 7.083c0.686-0.112 1.385 0.544 1.229 1.247-0.090 0.847-1.276 1.229-1.843 0.591-0.669-0.557-0.244-1.771 0.614-1.838z"></path>
<path fill="#0363b5" d="M17.002 7.080c0.667-0.064 1.323 0.595 1.166 1.272-0.14 0.875-1.433 1.234-1.934 0.46-0.579-0.626-0.050-1.698 0.768-1.732z"></path>
<path fill="#0363b5" d="M11.794 16.020c0.326-0.708 0.657-1.413 0.985-2.121 0.124 0.205 0.248 0.411 0.372 0.616-0.357 0.64-0.721 1.277-1.075 1.92-0.095-0.138-0.188-0.277-0.282-0.415z"></path>
<path fill="#0363b5" d="M10.898 17.965c0.243 0.652-0.494 1.165-0.755 1.701 0.217-0.582 0.464-1.152 0.755-1.701z"></path>
<path fill="#ef2921" d="M15.663 0.544c0.961 0.309 1.882 0.74 2.738 1.276-0.402 0.904-0.83 1.795-1.24 2.693-0.143 0.312-0.287 0.623-0.432 0.934-0.037 0.085-0.11 0.254-0.147 0.339-0.771 1.568-1.479 3.166-2.23 4.744-0.347 0.736-0.69 1.474-1.032 2.211-0.181 0.386-0.361 0.772-0.54 1.158-0.327 0.708-0.659 1.413-0.985 2.121-0.303 0.647-0.61 1.29-0.896 1.945-0.291 0.549-0.539 1.119-0.755 1.701-0.372 0.659-0.687 1.345-1 2.033-0.267 0.592-0.544 1.182-0.858 1.752-0.938-0.314-1.838-0.74-2.68-1.259 0.583-1.373 1.255-2.707 1.87-4.067 0.356-0.754 0.703-1.513 1.049-2.272 0.102-0.217 0.203-0.433 0.305-0.648 0.183-0.376 0.356-0.755 0.528-1.135 0.014-0.031 0.044-0.095 0.059-0.128 0.146-0.318 0.299-0.635 0.45-0.951 0.387-0.815 0.766-1.634 1.147-2.453 0.269-0.58 0.543-1.158 0.814-1.737 0.065-0.142 0.13-0.283 0.196-0.425 0.087-0.189 0.175-0.38 0.263-0.569 0.065-0.141 0.132-0.283 0.2-0.424 0.252-0.535 0.501-1.071 0.749-1.608 0.386-0.827 0.77-1.654 1.156-2.481 0.136-0.288 0.27-0.577 0.404-0.866 0.292-0.626 0.591-1.25 0.87-1.883z"></path>
<path fill="#fff" d="M7.936 2.716c0.247-0.327 0.699-0.288 1.063-0.303 1.932 0.018 3.862-0.005 5.794 0.014-0.134 0.29-0.269 0.578-0.404 0.866-1.756-0.003-3.511 0-5.267-0.005-1.311-0.047-1.364 1.633-1.928 2.478 2.013 0.013 4.027-0.001 6.039 0.008-0.248 0.537-0.497 1.073-0.749 1.608-1.243-0.013-2.486-0.007-3.729-0.003 0 0.104 0 0.316 0 0.421 1.177 0.005 2.353-0.003 3.53 0.005-0.089 0.189-0.176 0.38-0.263 0.569-1.088 0-2.176-0.001-3.265 0.001 0 0.106-0.001 0.317-0.001 0.423 1.023 0.005 2.047 0.005 3.070 0.001-0.271 0.579-0.545 1.157-0.814 1.737-0.939-0.010-1.88-0.005-2.819-0.004-0.008 0.438-0.013 0.877-0.027 1.315-0.608 0.046-1.217 0.082-1.827 0.055-0.083-0.42-0.166-0.843-0.145-1.273-0.386-0.125-0.908-0.258-0.925-0.757-0.035-1.071 0.030-2.147 0.012-3.219-0.017-0.717 0.891-0.805 1.229-1.312 0.541-0.837 0.84-1.816 1.427-2.627M6.826 7.083c-0.858 0.067-1.283 1.281-0.614 1.838 0.567 0.638 1.753 0.256 1.843-0.591 0.157-0.703-0.543-1.359-1.229-1.247z"></path>
<path fill="#fff" d="M16.728 5.447c0.145-0.31 0.288-0.622 0.432-0.934 0.222 0.803 0.897 1.244 1.516 1.714 0.353 1.094 0.104 2.297 0.166 3.434 0.063 0.648-0.553 0.956-1.114 0.92-0.007 0.425-0.010 0.849-0.022 1.274-0.577 0.020-1.18 0.154-1.74-0.025-0.291-0.343-0.103-0.878-0.157-1.297-0.485-0.001-0.972-0.001-1.458-0.004 0.751-1.578 1.46-3.176 2.23-4.744 0.218 0.052 0.335-0.217 0.147-0.339M17.002 7.080c-0.818 0.034-1.347 1.106-0.768 1.732 0.501 0.773 1.795 0.415 1.934-0.46 0.157-0.677-0.5-1.336-1.166-1.272z"></path>
<path fill="#fff" d="M13.319 12.741c0.125 0.27 0.248 0.541 0.373 0.811 0.143-0.219 0.287-0.438 0.43-0.657 0.29 0.185 0.583 0.364 0.878 0.54-0.116 0.236-0.233 0.471-0.352 0.706 0.356-0.010 0.712-0.026 1.070-0.039-0.090 0.34-0.177 0.68-0.263 1.021-0.443-0.016-0.887-0.044-1.33-0.072-0.403 0.657-0.79 1.323-1.166 1.996 0.732 0.001 1.462-0.042 2.194-0.072 0.222-0.407 0.445-0.814 0.664-1.222 0.338 0.103 0.678 0.2 1.020 0.288-0.185 0.312-0.373 0.621-0.558 0.933 0.239 0.009 0.477 0.017 0.715 0.025-0.003 0.363-0.003 0.724 0 1.087-0.243 0.005-0.485 0.010-0.727 0.017 0.193 0.321 0.386 0.642 0.58 0.961-0.334 0.074-0.665 0.154-0.995 0.239-0.236-0.402-0.466-0.806-0.702-1.209-0.73 0-1.461-0.001-2.191 0.005 0.353 0.646 0.712 1.289 1.081 1.927 0.457-0.010 0.918-0.046 1.371 0.040 0.132 0.325 0.2 0.67 0.288 1.008-0.37-0.022-0.741-0.047-1.111-0.067 0.124 0.235 0.249 0.47 0.373 0.704-0.312 0.16-0.618 0.329-0.923 0.502-0.141-0.214-0.28-0.428-0.421-0.64-0.173 0.327-0.346 0.655-0.52 0.981-0.235-0.262-0.472-0.522-0.713-0.777 0.224-0.391 0.497-0.763 0.642-1.193-0.203-0.703-0.673-1.291-1.002-1.937-0.372 0.64-0.733 1.285-1.083 1.937 0.224 0.398 0.454 0.793 0.673 1.193-0.252 0.243-0.5 0.489-0.746 0.737-0.162-0.321-0.322-0.643-0.483-0.963-0.145 0.197-0.29 0.395-0.434 0.592-0.269-0.149-0.536-0.297-0.806-0.443 0.313-0.689 0.629-1.375 1-2.033 0.261-0.536 0.998-1.049 0.755-1.701 0.286-0.655 0.593-1.298 0.896-1.945 0.094 0.138 0.187 0.277 0.282 0.415 0.353-0.643 0.717-1.28 1.075-1.92-0.124-0.205-0.248-0.411-0.372-0.616 0.179-0.386 0.359-0.772 0.54-1.158z"></path>
<path fill="#fff" d="M9.137 13.368c0.241-0.127 0.484-0.253 0.728-0.377-0.151 0.316-0.304 0.633-0.45 0.951-0.089-0.193-0.184-0.383-0.278-0.574z"></path>
<path fill="#fff" d="M8.362 14.020c0.331 0.023 0.663 0.047 0.994 0.050-0.172 0.38-0.346 0.759-0.528 1.135-0.226-0.364-0.374-0.767-0.466-1.184z"></path>
<path fill="#fff" d="M7.23 16.032c0.416-0.141 0.852-0.222 1.293-0.179-0.346 0.759-0.693 1.518-1.049 2.272-0.1-0.013-0.3-0.042-0.399-0.055 0.005-0.365 0.007-0.729 0.007-1.093 0.254 0.025 0.51 0.050 0.764 0.073-0.205-0.339-0.412-0.678-0.616-1.019z"></path>
<path fill="#4973ac" d="M16.728 5.447c0.188 0.123 0.070 0.391-0.147 0.339 0.038-0.085 0.111-0.254 0.147-0.339z"></path>
<path fill="#0361b4" d="M8.755 7.38c1.243-0.004 2.486-0.010 3.729 0.003-0.068 0.141-0.134 0.283-0.2 0.424-1.177-0.008-2.353 0-3.53-0.005 0-0.106 0-0.317 0-0.421z"></path>
<path fill="#0361b4" d="M8.756 8.377c1.089-0.003 2.177-0.001 3.265-0.001-0.065 0.142-0.13 0.283-0.196 0.425-1.024 0.004-2.048 0.004-3.070-0.001 0-0.106 0.001-0.317 0.001-0.423z"></path>
<path fill="#84a6c2" opacity="0.86" d="M10.49 23.927c0.464-0.099 0.935-0.030 1.392 0.073h-1.623l0.231-0.073z"></path>
<path fill="#80a0bb" opacity="0.83" d="M12.334 24c0.437-0.095 0.884-0.125 1.33-0.074l-0.241 0.074h-1.089z"></path>
</svg>
