<!-- Generated by IcoMoon.io -->
<svg version="1.1" xmlns="http://www.w3.org/2000/svg" width="24" height="24" viewBox="0 0 24 24">
<title>regulatory--no-pedestrians--g4</title>
<path fill="#fff" d="M10.605 0h2.732c0.901 0.207 1.831 0.322 2.692 0.678-0.978-0.121-1.912-0.483-2.902-0.537-1.744-0.226-3.462 0.186-5.154 0.537 0.843-0.353 1.755-0.455 2.633-0.678z"></path>
<path fill="#fff" d="M6.9 1.126c0.234-0.166 0.497-0.286 0.777-0.354-0.103 0.322-0.476 0.423-0.777 0.354z"></path>
<path fill="#fff" d="M16.323 0.772c0.279 0.068 0.543 0.187 0.776 0.356-0.301 0.067-0.673-0.033-0.776-0.356z"></path>
<path fill="#fff" d="M17.567 1.333c0.286 0.109 0.548 0.269 0.79 0.458-0.325 0.029-0.751-0.071-0.79-0.458z"></path>
<path fill="#fff" d="M9.232 2.814c2.967-0.901 6.343-0.26 8.77 1.669-1.228 1.245-2.478 2.47-3.706 3.716-2.118-1.574-4.259-3.121-6.349-4.732-0.060 0.040-0.119 0.081-0.179 0.12 1.155 0.747 2.214 1.631 3.339 2.425-1.136 0.067-1.222 1.591-0.254 1.995-0.060 0.487-0.659 0.405-0.992 0.606-0.887 0.46-1.401 1.447-1.522 2.411-0.114 0.726 0.172 1.554-0.389 2.15-1.635-1.638-3.247-3.301-4.878-4.942 1.155-2.577 3.434-4.638 6.16-5.418z"></path>
<path fill="#fff" d="M3.134 3.887c0.241-0.267 0.497-0.52 0.763-0.76-0.195 0.307-0.462 0.558-0.763 0.76z"></path>
<path fill="#fff" d="M20.101 3.126c0.268 0.241 0.525 0.497 0.766 0.765-0.304-0.201-0.572-0.453-0.766-0.765z"></path>
<path fill="#fff" d="M16.26 9.502c1.147-1.108 2.253-2.256 3.392-3.373 1.701 2.17 2.473 5.11 1.864 7.808-0.42 2.816-2.329 5.32-4.794 6.7-3.314 1.91-7.75 1.549-10.727-0.851 1.024-1.026 2.037-2.062 3.081-3.070-0.027 0.477-0.047 0.953-0.060 1.43 0.557-0.077 1.257 0.024 1.631-0.497-0.268 0.004-0.536 0.014-0.804 0.028 0.113-0.67 0.216-1.344 0.343-2.012 0.642 0.826 1.806 1.376 1.984 2.468 0.163 0.014 0.328 0.029 0.491 0.043 0.956 0.973 1.937 1.923 2.858 2.929 0.042-0.050 0.084-0.099 0.127-0.148-0.978-0.9-1.877-1.881-2.814-2.82 0.387-0.113 0.776-0.223 1.155-0.363-0.265-0.292-0.684-0.124-1.026-0.126-0.165-1.426-0.308-2.853-0.565-4.266 0.42-0.399 0.777-0.875 1.274-1.183 0.179 0.188 0.343 0.389 0.497 0.599 0.241-0.038 0.481-0.074 0.723-0.11-0.042-0.162-0.084-0.325-0.126-0.487-0.294-0.082-0.58-0.188-0.854-0.325 0.707-0.723 1.418-1.447 2.149-2.146 0.092 0.063 0.278 0.187 0.37 0.248-0.059-0.159-0.113-0.32-0.169-0.479M16.422 10.012c1.592 1.080 3.11 2.272 4.653 3.421 0.085 0.201 0.22 0.053 0.329 0.010-1.637-1.133-3.223-2.344-4.807-3.551-0.060 0.039-0.119 0.080-0.176 0.12z"></path>
<path fill="#fff" d="M11.972 6.65c0.73 0.56 1.472 1.101 2.21 1.649-0.469 0.477-0.936 0.954-1.422 1.413-0.128-0.678-0.338-1.528-1.189-1.547 0.31-0.445 0.497-0.967 0.4-1.515z"></path>
<path fill="#fff" d="M3.031 8.382c1.614 1.669 3.26 3.31 4.884 4.97 0.198 0.208 0.395 0.416 0.593 0.625-1.384 1.388-2.77 2.777-4.161 4.16-2.161-2.696-2.685-6.583-1.316-9.755z"></path>
<path fill="#fff" d="M8.627 13.238c0.078-1.070 0.087-2.258 0.721-3.17 0.663 0.695 0.456 1.773 0.378 2.641-0.311 0.42-0.72 0.755-1.081 1.13-0.194-0.17-0.387-0.343-0.583-0.512 0.188-0.032 0.377-0.061 0.565-0.089z"></path>
<path fill="#fff" d="M10.263 15.527c0.368-0.392 0.753-0.769 1.133-1.15 0.66 0.853 0.526 1.984 0.67 2.99-0.601-0.614-1.207-1.222-1.803-1.84z"></path>
<path fill="#c0111e" d="M7.972 0.678c1.693-0.352 3.41-0.763 5.154-0.537 0.991 0.054 1.924 0.416 2.902 0.537 0.098 0.032 0.197 0.063 0.294 0.093 0.103 0.322 0.474 0.423 0.776 0.356 0.158 0.067 0.313 0.137 0.469 0.205 0.039 0.387 0.465 0.487 0.79 0.458 0.628 0.38 1.227 0.813 1.744 1.335 0.194 0.311 0.462 0.564 0.766 0.765 1.76 1.815 2.736 4.25 3.133 6.72v2.754c-0.236 1.118-0.442 2.251-0.914 3.3-1.617 3.968-5.487 6.776-9.707 7.335h-2.736c-1.084-0.232-2.187-0.424-3.208-0.872-4.016-1.596-6.871-5.489-7.434-9.742v-2.757c0.388-2.478 1.372-4.919 3.134-6.741 0.301-0.202 0.568-0.453 0.763-0.76 0.871-0.834 1.888-1.535 3.003-2.001 0.301 0.068 0.674-0.032 0.777-0.354 0.098-0.031 0.197-0.061 0.294-0.093M9.232 2.814c-2.727 0.78-5.005 2.841-6.16 5.418-0.011 0.036-0.031 0.112-0.040 0.149-1.369 3.172-0.846 7.059 1.316 9.755 1.391-1.383 2.777-2.771 4.161-4.16-0.198-0.209-0.395-0.417-0.593-0.625l0.148-0.025c0.197 0.169 0.389 0.342 0.583 0.512 0.361-0.375 0.77-0.71 1.081-1.13 1.060-0.945 2.033-1.988 3.033-2.996 0.486-0.459 0.953-0.936 1.422-1.413 0.038-0.033 0.075-0.067 0.113-0.1 1.228-1.246 2.478-2.471 3.706-3.716-2.427-1.928-5.803-2.57-8.77-1.669M16.26 9.502c0.056 0.159 0.11 0.32 0.169 0.479-0.092-0.061-0.278-0.186-0.37-0.248-0.731 0.699-1.441 1.423-2.149 2.146-0.1 0.085-0.201 0.17-0.301 0.257l0.061 0.067c-0.497 0.308-0.854 0.784-1.274 1.183-0.339 0.325-0.675 0.653-1 0.992-0.38 0.381-0.765 0.758-1.133 1.15-0.412 0.381-0.809 0.777-1.187 1.19-1.044 1.007-2.057 2.044-3.081 3.070 2.978 2.4 7.413 2.761 10.727 0.851 2.466-1.38 4.374-3.885 4.794-6.7 0.608-2.699-0.163-5.639-1.864-7.808-1.139 1.116-2.245 2.265-3.392 3.373z"></path>
<path fill="#030303" d="M7.768 3.587c0.060-0.039 0.119-0.080 0.179-0.12 2.090 1.61 4.231 3.158 6.349 4.732-0.038 0.033-0.075 0.067-0.113 0.1-0.738-0.548-1.48-1.090-2.21-1.649 0.096 0.548-0.091 1.070-0.4 1.515 0.851 0.020 1.060 0.869 1.189 1.547-1 1.007-1.973 2.051-3.033 2.996 0.078-0.868 0.285-1.947-0.378-2.641-0.635 0.913-0.643 2.1-0.721 3.17-0.188 0.028-0.377 0.057-0.565 0.089l-0.148 0.025c-1.624-1.66-3.269-3.301-4.884-4.97 0.010-0.038 0.029-0.113 0.040-0.149 1.631 1.641 3.243 3.304 4.878 4.942 0.561-0.596 0.275-1.425 0.389-2.15 0.121-0.964 0.635-1.951 1.522-2.411 0.333-0.201 0.932-0.119 0.992-0.606-0.968-0.405-0.882-1.928 0.254-1.995-1.125-0.794-2.184-1.679-3.339-2.425z"></path>
<path fill="#030303" d="M16.422 10.012c0.057-0.040 0.116-0.081 0.176-0.12 1.584 1.207 3.17 2.418 4.807 3.551-0.109 0.043-0.244 0.191-0.329-0.010-1.543-1.15-3.061-2.341-4.653-3.421z"></path>
<path fill="#030303" d="M13.609 12.135c0.1-0.087 0.201-0.172 0.301-0.257 0.273 0.137 0.56 0.243 0.854 0.325 0.042 0.162 0.084 0.325 0.126 0.487-0.241 0.036-0.481 0.073-0.723 0.11-0.153-0.209-0.318-0.41-0.497-0.599l-0.061-0.067z"></path>
<path fill="#030303" d="M11.396 14.378c0.325-0.339 0.661-0.667 1-0.992 0.257 1.412 0.4 2.84 0.565 4.266 0.342 0.001 0.76-0.166 1.026 0.126-0.38 0.14-0.769 0.25-1.155 0.363 0.938 0.939 1.836 1.92 2.814 2.82-0.043 0.049-0.085 0.098-0.127 0.148-0.921-1.006-1.902-1.956-2.858-2.929-0.163-0.014-0.328-0.029-0.491-0.043-0.179-1.093-1.342-1.642-1.984-2.468-0.127 0.668-0.23 1.342-0.343 2.012 0.268-0.014 0.536-0.024 0.804-0.028-0.374 0.52-1.074 0.42-1.631 0.497 0.013-0.477 0.033-0.953 0.060-1.43 0.378-0.413 0.776-0.809 1.187-1.19 0.596 0.618 1.201 1.227 1.803 1.84-0.144-1.006-0.010-2.138-0.67-2.99z"></path>
</svg>
