<!-- Generated by IcoMoon.io -->
<svg version="1.1" xmlns="http://www.w3.org/2000/svg" width="24" height="24" viewBox="0 0 24 24">
<title>regulatory--end-of-maximum-speed-limit-75--g2</title>
<path fill="#000" d="M10.982 0h2.029c0.412 0.072 0.829 0.099 1.238 0.186 2.858 0.53 5.489 2.157 7.26 4.459 1.426 1.813 2.261 4.050 2.49 6.338v2.027c-0.073 0.412-0.1 0.83-0.187 1.24-0.533 2.869-2.17 5.508-4.485 7.281-1.81 1.413-4.034 2.243-6.311 2.469h-2.027c-1.74-0.182-3.454-0.685-4.971-1.567-2.696-1.543-4.757-4.163-5.592-7.158-0.219-0.736-0.323-1.499-0.427-2.257v-2.030c0.103-0.761 0.208-1.525 0.427-2.263 0.791-2.83 2.67-5.333 5.158-6.893 1.614-1.043 3.492-1.631 5.397-1.831M9.253 0.538c-1.672 0.397-3.249 1.174-4.591 2.245-2.365 1.87-3.968 4.68-4.345 7.675-0.435 3.194 0.518 6.543 2.58 9.021 1.449-1.719 2.89-3.445 4.338-5.166 0.076-0.092 0.162-0.18 0.217-0.287 1.134-1.292 2.229-2.636 3.331-3.949 0.682-0.802 1.36-1.608 2.031-2.421 0.639-0.745 1.265-1.501 1.896-2.253 1.028-1.221 2.054-2.445 3.078-3.668-2.556-1.463-5.673-1.885-8.534-1.197M19.138 6.878c-0.165 0.169-0.323 0.349-0.451 0.548l-0.022-0c-0.639 0.765-1.285 1.523-1.919 2.292l-0.013-0.003c-0.854 1.050-1.742 2.071-2.6 3.117-2.645 3.139-5.28 6.286-7.917 9.432 2.663 1.53 5.94 1.918 8.897 1.104 1.524-0.416 2.962-1.147 4.199-2.13 2.392-1.881 4.007-4.72 4.376-7.743 0.421-3.18-0.534-6.507-2.584-8.973-0.656 0.785-1.328 1.559-1.966 2.357z"></path>
<path fill="#fff" d="M9.253 0.538c2.86-0.688 5.977-0.266 8.534 1.197-1.025 1.223-2.050 2.447-3.078 3.668-0.632 0.008-1.265-0.002-1.897 0.005-0.004 0.75-0.006 1.499 0.001 2.249-0.67 0.812-1.348 1.619-2.031 2.421 0.159-0.701 0.454-1.367 0.667-2.054 0.083-0.28 0.235-0.55 0.217-0.85-0.007-0.588 0.003-1.177-0.005-1.765-2.251-0.003-4.501-0.002-6.752-0-0.009 1.326-0.006 2.651-0.002 3.977 0.582 0.005 1.163 0.005 1.745 0 0.010-0.652-0.007-1.305 0.008-1.957 1.013-0 2.026-0.001 3.040 0.001-0.741 2.202-1.515 4.393-2.249 6.597-0.055 0.108-0.141 0.195-0.217 0.287-1.447 1.721-2.889 3.447-4.338 5.166-2.062-2.478-3.015-5.828-2.58-9.021 0.377-2.995 1.98-5.805 4.345-7.675 1.342-1.071 2.92-1.849 4.591-2.245z"></path>
<path fill="#fff" d="M19.138 6.878c0.638-0.798 1.311-1.572 1.966-2.357 2.050 2.467 3.005 5.794 2.584 8.973-0.369 3.022-1.984 5.862-4.376 7.743-1.237 0.983-2.675 1.714-4.199 2.13-2.957 0.814-6.234 0.427-8.897-1.104 2.637-3.145 5.272-6.293 7.917-9.432 0.127-0.011 0.323 0.058 0.374-0.106 0.235-0.479 0.651-0.919 1.202-0.996 0.509-0.060 1.113 0.028 1.443 0.463 0.236 0.337 0.329 0.75 0.401 1.148 0.143 0.964 0.054 1.95-0.144 2.9-0.075 0.405-0.388 0.747-0.788 0.849-0.554 0.147-1.212 0.122-1.669-0.261-0.366-0.308-0.524-0.782-0.621-1.235-0.581-0.008-1.162-0.006-1.742-0.001 0.079 0.885 0.319 1.809 0.935 2.479 0.928 0.947 2.435 1.435 3.69 0.877 1.144-0.553 1.946-1.718 2.079-2.979 0.112-1.116 0.112-2.247-0.023-3.361-0.171-1.34-1.133-2.666-2.526-2.889 0.634-0.769 1.28-1.527 1.919-2.292l0.022 0c0.15 0.003 0.3 0.003 0.45 0 0.005-0.183 0-0.365 0-0.547z"></path>
<path fill="#808080" d="M4.909 5.407c2.25-0.002 4.501-0.003 6.752 0 0.008 0.588-0.002 1.177 0.005 1.765 0.018 0.3-0.134 0.57-0.217 0.85-0.213 0.687-0.508 1.353-0.667 2.054-1.102 1.313-2.197 2.656-3.331 3.949 0.734-2.204 1.508-4.395 2.249-6.597-1.013-0.002-2.027-0.001-3.040-0.001-0.015 0.652 0.002 1.305-0.008 1.957-0.582 0.005-1.163 0.005-1.745 0-0.004-1.326-0.007-2.652 0.002-3.977z"></path>
<path fill="#808080" d="M12.811 5.408c0.632-0.007 1.265 0.004 1.897-0.005-0.63 0.752-1.257 1.508-1.896 2.253-0.008-0.75-0.006-1.499-0.001-2.249z"></path>
<path fill="#808080" d="M18.687 7.425c0.128-0.199 0.286-0.378 0.451-0.548 0 0.182 0.005 0.365-0 0.548-0.15 0.003-0.3 0.003-0.45 0z"></path>
<path fill="#808080" d="M16.734 9.714l0.013 0.003c1.394 0.224 2.355 1.549 2.526 2.889 0.134 1.114 0.135 2.246 0.023 3.361-0.134 1.261-0.936 2.426-2.079 2.979-1.256 0.558-2.762 0.069-3.69-0.877-0.616-0.67-0.856-1.594-0.935-2.479 0.58-0.004 1.161-0.007 1.742 0.001 0.097 0.453 0.255 0.927 0.621 1.235 0.457 0.383 1.115 0.408 1.669 0.261 0.399-0.102 0.713-0.444 0.788-0.849 0.198-0.95 0.287-1.936 0.144-2.9-0.073-0.398-0.165-0.811-0.401-1.148-0.33-0.435-0.934-0.522-1.443-0.463-0.551 0.077-0.967 0.518-1.202 0.996-0.050 0.165-0.247 0.096-0.374 0.106 0.858-1.046 1.747-2.068 2.6-3.117z"></path>
</svg>
