<svg xmlns="http://www.w3.org/2000/svg" width="24" height="24">
    <path fill="#5c4b4c" opacity=".39" d="M11.177 0h1.607l.168.086c-.645.029-1.289.032-1.934.002L11.177 0z"/>
    <path fill="#c0111e" d="M2.36 4.989C4.354 2.205 7.602.358 11.018.088c.645.03 1.289.026 1.934-.002a12.09 12.09 0 0 1 6.157 2.289c2.666 1.942 4.477 5.032 4.816 8.315-.015.752.011 1.505-.003 2.257-.238 5.75-5.37 10.824-11.127 10.985-2.888.261-5.835-.663-8.111-2.446-2.625-2.034-4.319-5.2-4.592-8.506.03-.607.023-1.216-.008-1.824.169-2.213.986-4.366 2.277-6.168zm3.557-.197c.737.744 1.471 1.491 2.225 2.218 2.979 2.959 5.944 5.931 8.907 8.906.726.758 1.478 1.49 2.221 2.231 2.287-2.669 2.886-6.635 1.469-9.854-1.341-3.214-4.581-5.514-8.058-5.715-2.427-.168-4.913.626-6.763 2.214zm-3.094 9.515c.769 3.229 3.365 5.933 6.56 6.832 2.991.883 6.384.162 8.755-1.864-.734-.75-1.48-1.486-2.219-2.23-2.96-2.977-5.931-5.943-8.906-8.905a333.244 333.244 0 0 0-2.225-2.224c-1.954 2.266-2.698 5.493-1.965 8.391z"/>
    <path fill="#fff" d="M5.917 4.792c1.85-1.587 4.336-2.382 6.763-2.214 3.478.201 6.718 2.502 8.058 5.715 1.417 3.218.818 7.185-1.469 9.854-.743-.741-1.495-1.473-2.221-2.231 1.301-1.295 2.594-2.595 3.889-3.895-2.966-2.97-5.931-5.941-8.905-8.902a396.406 396.406 0 0 0-3.891 3.89c-.754-.727-1.488-1.474-2.225-2.218zM2.823 14.307c-.734-2.898.01-6.125 1.965-8.391.746.737 1.486 1.48 2.225 2.224-1.307 1.283-2.597 2.585-3.891 3.882l8.906 8.91c1.302-1.29 2.593-2.593 3.891-3.887.739.744 1.486 1.48 2.219 2.23-2.371 2.026-5.765 2.747-8.755 1.864-3.195-.899-5.791-3.603-6.56-6.832z"/>
    <path fill="#030303" d="M8.142 7.01a407.73 407.73 0 0 1 3.891-3.89c2.974 2.961 5.939 5.931 8.905 8.902-1.295 1.299-2.589 2.6-3.889 3.895a2337.161 2337.161 0 0 0-8.907-8.906zM3.121 12.023c1.295-1.297 2.584-2.599 3.891-3.882 2.975 2.962 5.946 5.928 8.906 8.905-1.298 1.294-2.59 2.597-3.891 3.887l-8.906-8.91z"/>
    <path fill="#7e3137" opacity=".61" d="M23.925 10.69c.127.747.081 1.507-.003 2.257.015-.752-.011-1.505.003-2.257z"/>
    <path fill="#514243" opacity=".35" d="M0 11.323l.083-.167c.031.608.038 1.217.008 1.824L0 12.83v-1.507z"/>
</svg>
