<?xml version="1.0" encoding="utf-8"?>
<!-- Generated by IcoMoon.io -->
<!DOCTYPE svg PUBLIC "-//W3C//DTD SVG 1.1//EN" "http://www.w3.org/Graphics/SVG/1.1/DTD/svg11.dtd">
<svg version="1.1" xmlns="http://www.w3.org/2000/svg" xmlns:xlink="http://www.w3.org/1999/xlink" width="24" height="24" viewBox="0 0 24 24">
<path fill="#c0111e" d="M11.082 0h1.876c2.818 0.246 5.55 1.478 7.54 3.499 2.030 1.998 3.269 4.747 3.503 7.58v1.923c-0.268 2.831-1.512 5.573-3.562 7.556-1.958 1.971-4.626 3.155-7.378 3.442h-2.067c-2.799-0.268-5.512-1.487-7.489-3.499-2.006-1.964-3.215-4.66-3.504-7.441v-1.954c0.224-2.842 1.467-5.6 3.5-7.604 2-2.030 4.748-3.27 7.581-3.501M9.418 2.333c-2.395 0.615-4.532 2.16-5.883 4.23-1.107 1.672-1.691 3.681-1.66 5.685 0.021 2.26 0.831 4.506 2.269 6.251 0.874-0.869 1.742-1.746 2.619-2.613 0.706-0.707 1.41-1.416 2.121-2.118 0.128-0.131 0.255-0.261 0.384-0.392 1.65-1.648 3.306-3.292 4.945-4.952 1.396-1.382 2.783-2.774 4.17-4.167-2.463-2.012-5.893-2.751-8.965-1.925M17.137 8.437c-1.786 1.796-3.589 3.576-5.368 5.379-2.056 2.046-4.109 4.096-6.153 6.154 2.317 1.921 5.525 2.692 8.463 2.054 2.262-0.466 4.344-1.747 5.788-3.549 1.642-2.005 2.445-4.662 2.209-7.242-0.167-2.003-0.963-3.94-2.227-5.501-0.908 0.898-1.804 1.808-2.712 2.706z"></path>
<path fill="#fff" d="M9.418 2.333c3.072-0.826 6.501-0.087 8.965 1.925-1.387 1.393-2.774 2.785-4.17 4.167-1.281 0.009-2.56 0.001-3.84 0.004-0.003 1.139 0 2.279-0.001 3.418-0.316 0.001-0.63 0.001-0.946 0.001-0.004-0.835 0.005-1.671-0.001-2.506-0.023-0.529-0.208-1.12-0.701-1.391-0.603-0.393-1.348-0.263-2.026-0.296-0.621 0.037-1.314-0.009-1.859 0.337-0.376 0.743-0.648 1.544-0.997 2.303-0.182 0.101-0.412 0.144-0.546 0.311-0.030 1.218 0 2.438-0.013 3.657 0.078 0.090 0.158 0.181 0.236 0.273 0.509-0.003 1.017-0.001 1.525-0.003 0.001-0.369 0.005-0.752 0.157-1.096 0.355-0.926 1.396-1.525 2.376-1.357 0.738 0.112 1.378 0.624 1.691 1.296-0.129 0.13-0.256 0.26-0.384 0.392-0.224-0.667-0.841-1.19-1.557-1.21-0.896-0.068-1.746 0.685-1.777 1.584-0.068 0.777 0.472 1.523 1.214 1.744-0.877 0.868-1.744 1.744-2.619 2.613-1.437-1.746-2.247-3.992-2.269-6.251-0.032-2.005 0.553-4.013 1.66-5.685 1.35-2.070 3.488-3.615 5.883-4.23z"></path>
<path fill="#fff" d="M17.137 8.437c0.908-0.898 1.804-1.808 2.712-2.706 1.264 1.561 2.060 3.498 2.227 5.501 0.236 2.579-0.567 5.237-2.209 7.242-1.444 1.803-3.525 3.083-5.788 3.549-2.938 0.638-6.147-0.133-8.463-2.054 2.044-2.058 4.096-4.108 6.153-6.154 0.875-0.010 1.751 0 2.626-0.006 0.227-1.040 1.195-1.88 2.279-1.845 1.075-0.023 2.029 0.813 2.255 1.845 0.594 0.004 1.186 0.003 1.78 0.001 0.001-1.794 0.001-3.587 0-5.381-1.191 0.004-2.381-0.009-3.571 0.008M16.071 12.662c-0.787 0.27-1.267 1.172-1.061 1.978 0.187 0.889 1.166 1.501 2.048 1.263 0.949-0.2 1.556-1.304 1.206-2.211-0.278-0.877-1.341-1.373-2.193-1.031z"></path>
<path fill="#fff" d="M5.339 8.574c0.709-0.001 1.416-0.001 2.123 0 0.063 0.555 0.12 1.109 0.179 1.664-0.978 0.001-1.955 0.001-2.934 0 0.21-0.556 0.419-1.11 0.632-1.664z"></path>
<path fill="#030303" d="M4.838 7.993c0.546-0.346 1.238-0.301 1.859-0.337 0.678 0.033 1.424-0.097 2.026 0.296 0.493 0.27 0.678 0.861 0.701 1.391 0.006 0.835-0.003 1.671 0.001 2.506 0.316 0 0.63 0 0.946-0.001 0.001-1.139-0.001-2.279 0.001-3.418 1.28-0.003 2.559 0.005 3.84-0.004-1.64 1.66-3.296 3.303-4.945 4.952-0.313-0.672-0.954-1.184-1.691-1.296-0.98-0.168-2.021 0.431-2.376 1.357-0.152 0.345-0.155 0.728-0.157 1.096-0.508 0.001-1.016 0-1.525 0.003-0.078-0.092-0.158-0.183-0.236-0.273 0.013-1.219-0.018-2.439 0.013-3.657 0.134-0.167 0.364-0.21 0.546-0.311 0.349-0.759 0.62-1.56 0.997-2.303M5.339 8.574c-0.212 0.553-0.422 1.108-0.632 1.664 0.979 0.001 1.957 0.001 2.934 0-0.059-0.555-0.116-1.109-0.179-1.664-0.707-0.001-1.415-0.001-2.123 0z"></path>
<path fill="#030303" d="M11.769 13.815c1.78-1.803 3.582-3.582 5.368-5.379 1.19-0.016 2.38-0.004 3.571-0.008 0.001 1.794 0.001 3.587 0 5.381-0.594 0.001-1.186 0.003-1.78-0.001-0.226-1.032-1.18-1.868-2.255-1.845-1.084-0.034-2.051 0.806-2.279 1.845-0.875 0.006-1.751-0.004-2.626 0.006z"></path>
<path fill="#030303" d="M5.549 14.142c0.032-0.899 0.882-1.652 1.777-1.584 0.716 0.020 1.334 0.543 1.557 1.21-0.711 0.702-1.415 1.411-2.121 2.118-0.741-0.221-1.282-0.968-1.214-1.744z"></path>
<path fill="#030303" d="M16.071 12.662c0.851-0.342 1.915 0.154 2.193 1.031 0.35 0.907-0.258 2.011-1.206 2.211-0.882 0.237-1.861-0.374-2.048-1.263-0.206-0.806 0.274-1.708 1.061-1.978z"></path>
</svg>
