<svg xmlns="http://www.w3.org/2000/svg" width="24" height="24">
    <path fill="#c1121c" d="M11.002 0h1.97c1.499.221 3.007.545 4.357 1.256 3.767 1.811 6.317 5.712 6.671 9.853v1.759c-.34 4.027-2.744 7.838-6.352 9.708-1.428.809-3.044 1.183-4.654 1.423H11.03c-1.499-.222-3.008-.545-4.36-1.258-3.766-1.81-6.319-5.708-6.671-9.85v-1.766c.343-4.211 2.978-8.166 6.83-9.95C8.13.516 9.57.221 11-.001zm-.033 3.18c-4.265.402-7.83 4.294-7.844 8.579-.196 4.025 2.736 7.886 6.638 8.84 2.628.685 5.557.102 7.69-1.591 2.875-2.174 4.145-6.192 3.036-9.624-1.154-3.997-5.39-6.776-9.52-6.204z"/>
    <path fill="#f7fbf5" d="M10.969 3.18c4.129-.572 8.365 2.207 9.52 6.204 1.109 3.432-.161 7.45-3.036 9.624-2.132 1.693-5.062 2.276-7.69 1.591-3.902-.954-6.834-4.816-6.638-8.84.014-4.285 3.58-8.177 7.844-8.579zm.712 2.872c-.982.182-1.458 1.214-1.594 2.108-.163 1.16-.134 2.489.617 3.454.686.877 2.2.79 2.779-.164.73-1.187.744-2.725.34-4.028-.258-.904-1.186-1.601-2.142-1.369zm-4.253.68l-.002.69c.242.004.484.001.726.005.004 1.564-.001 3.128.002 4.693h.888c0-2.005.001-4.012-.001-6.017-.252.001-.505.001-.757.005a1.602 1.602 0 0 1-.856.624zm8.132 2.884c-.166-.104-.358-.136-.547-.162-.012.887-.005 1.772-.005 2.659l.47.001c.018-.595-.035-1.193.02-1.787.036-.41.703-.55.835-.13.125.628.026 1.278.058 1.915l.5-.001c.014-.634-.044-1.272.048-1.901.022-.407.756-.377.749.032.066.62.013 1.247.029 1.868h.528c-.032-.742.079-1.498-.064-2.227-.24-.619-1.027-.541-1.462-.186-.326-.308-.803-.39-1.16-.083zm-9.823 6.138c.851.722 1.776 1.405 2.772 1.909.006-.486-.137-.953-.247-1.421 2.635-.004 5.27-.001 7.906-.001-.103.476-.292.948-.242 1.444.985-.516 1.861-1.224 2.765-1.868-.84-.736-1.788-1.367-2.753-1.928-.091.509.191.976.311 1.454-2.663.01-5.327-.01-7.99-.008.112-.473.258-.944.25-1.435-1.001.48-1.865 1.216-2.771 1.855z"/>
    <path fill="#f7fbf5" d="M11.688 7.006c.529-.298 1.088.188 1.27.673.356.911.328 1.967-.002 2.881-.174.498-.739.97-1.274.683-.656-.416-.715-1.295-.751-1.998 0-.78.049-1.756.758-2.239z"/>
    <path fill="#2a2d2f" d="M11.681 6.052c.956-.232 1.884.466 2.142 1.369.404 1.303.39 2.842-.34 4.028-.58.954-2.093 1.042-2.779.164-.751-.965-.78-2.293-.617-3.454.136-.894.612-1.926 1.594-2.108zm.007.954c-.709.484-.758 1.459-.758 2.239.036.703.095 1.582.751 1.998.535.287 1.1-.185 1.274-.683.33-.914.359-1.97.002-2.881-.181-.485-.74-.971-1.27-.673zM7.428 6.732c.348-.112.65-.319.856-.624.252-.004.505-.004.757-.005.002 2.005.001 4.012.001 6.017h-.888c-.004-1.565.001-3.13-.002-4.693-.242-.004-.484-.001-.726-.005l.002-.69zM15.56 9.616c.358-.307.834-.226 1.16.083.434-.355 1.222-.433 1.462.186.143.73.031 1.486.064 2.227h-.528c-.016-.622.037-1.248-.029-1.868.007-.409-.727-.439-.749-.032-.092.629-.034 1.267-.048 1.901l-.5.001c-.031-.637.067-1.288-.058-1.915-.132-.42-.799-.281-.835.13-.055.594-.002 1.192-.02 1.787l-.47-.001c0-.887-.007-1.772.005-2.659.19.026.382.058.547.162zM5.737 15.754c.906-.64 1.77-1.375 2.771-1.855.008.491-.138.962-.25 1.435 2.663-.001 5.327.018 7.99.008-.12-.479-.402-.946-.311-1.454.965.562 1.913 1.193 2.753 1.928-.904.644-1.78 1.352-2.765 1.868-.049-.496.139-.967.242-1.444-2.635 0-5.27-.002-7.906.001.11.468.253.935.247 1.421-.996-.504-1.921-1.187-2.772-1.909z"/>
</svg>
