<svg xmlns="http://www.w3.org/2000/svg" width="24" height="24">
    <path fill="#2c2c2c" d="M7.057 0h9.895A767.878 767.878 0 0 1 24 7.049v9.912c-2.337 2.354-4.687 4.696-7.036 7.039H7.058a735.053 735.053 0 0 1-6.952-6.953l.004-.14c2.361 2.29 4.625 4.694 7.015 6.946 3.055.058 6.117 0 9.174.028.27-.014.601.06.796-.181a4568 4568 0 0 1 6.604-6.603.556.556 0 0 0 .186-.49c-.004-3.071-.003-6.142 0-9.213.053-.356-.272-.568-.484-.795a1963.402 1963.402 0 0 1-5.95-5.95c-.245-.224-.464-.582-.846-.527-3.07.004-6.141.003-9.211 0-.379-.049-.595.311-.84.532-2.144 2.151-4.29 4.3-6.443 6.441l-.004-.14A747.099 747.099 0 0 1 7.057 0z"/>
    <path fill="#fff" d="M6.554.654c.245-.221.461-.581.84-.532 3.07.003 6.141.004 9.211 0 .382-.055.601.303.846.527 1.979 1.987 3.962 3.971 5.95 5.95.212.227.537.439.484.795-.003 3.071-.004 6.142 0 9.213a.556.556 0 0 1-.186.49 4568 4568 0 0 0-6.604 6.603c-.195.241-.526.167-.796.181-3.057-.028-6.119.03-9.174-.028-2.39-2.252-4.654-4.656-7.015-6.946.023-3.27.022-6.542.001-9.812C2.264 4.954 4.41 2.805 6.554.654zm.773.062A8233.677 8233.677 0 0 0 .719 7.324c-.003 3.118 0 6.236-.002 9.353 2.199 2.207 4.412 4.399 6.608 6.608 3.119.004 6.237.001 9.356.001 2.203-2.203 4.405-4.405 6.61-6.606.001-3.119.003-6.238-.002-9.358-2.205-2.201-4.404-4.408-6.61-6.608-3.118-.001-6.235-.003-9.352.002z"/>
    <path fill="#fff" d="M8.405 4.802c.114.021.229.043.337.087.424.185.856.349 1.29.51-.19.149-.408.293-.471.543-.27.772-.521 1.55-.847 2.301.148.07.297.139.445.21-.114.097-.23.194-.346.29.002 3.279.002 6.557 0 9.836l-1.451.002c-.011-2.482.013-4.964-.012-7.446-.331.514-.619 1.056-1.003 1.534a18.726 18.726 0 0 0-.455-1.231c-.103-.271-.166-.606-.005-.867 1.145-1.726 1.873-3.69 2.461-5.665l.057-.104z"/>
    <path fill="#fff" d="M12.824 4.802c.622.005 1.248-.037 1.866.055l-.112.122c-.361.218-.249.658-.266 1.011 1.111.002 2.222-.002 3.333.002.004.495.004.989.001 1.484-2.661.073-5.326-.03-7.988.048a88.755 88.755 0 0 1-.004-1.548c1.056.026 2.114.026 3.17.014V4.802zM10.464 8.053c2.116-.015 4.232 0 6.347-.008.012 1.045.005 2.089.005 3.134-2.116 0-4.232-.002-6.347.001-.007-1.043.002-2.085-.005-3.127zm1.412 1.162c0 .268 0 .535.002.803 1.139-.018 2.283.047 3.418-.03.044-.256.031-.517.031-.774-1.15-.026-2.301 0-3.451.001zM9.341 11.757c2.825 0 5.65-.006 8.475.003 0 .941.001 1.882-.001 2.823-.46.01-.919.008-1.378.005a94.88 94.88 0 0 0-.003-1.509c-1.925-.003-3.849-.001-5.774-.001-.008.511-.005 1.022-.004 1.533-.437.01-.874.01-1.31.007-.009-.953-.002-1.907-.005-2.861z"/>
    <path fill="#fff" d="M11.081 13.723c1.659-.007 3.318-.003 4.977-.002-.002.461-.002.923 0 1.384-.581.01-1.162.006-1.742.006-.02.801.057 1.611-.078 2.405-.049.407-.36.756-.753.864-.758.215-1.555.174-2.334.193-.086-.549-.263-1.077-.471-1.59.701.03 1.407.089 2.105-.007.071-.617.03-1.24.038-1.86-.581-.009-1.162-.002-1.743-.008-.002-.461-.002-.923.001-1.385z"/>
    <path fill="#af1e2d" d="M7.327.716c3.117-.005 6.234-.003 9.352-.002 2.206 2.2 4.405 4.407 6.61 6.608.005 3.12.003 6.239.002 9.358-2.205 2.201-4.407 4.403-6.61 6.606-3.119 0-6.237.003-9.356-.001-2.196-2.209-4.409-4.401-6.608-6.608.002-3.117-.001-6.235.002-9.353C2.92 5.12 5.123 2.918 7.327.716zM5.811 4.811c.03 1.917-.119 3.856.076 5.76-.161.261-.098.596.005.867a2.692 2.692 0 0 0-.101.762c.029 2.196-.013 4.393.02 6.589 4.126.023 8.252.018 12.377-.001.02-4.658.02-9.318 0-13.977-.862-.031-1.725.004-2.587-.018-.348-.007-.725-.027-1.023.186l.112-.122c-.618-.092-1.244-.05-1.866-.055V5.99a88.158 88.158 0 0 1-3.17-.014c1.017-.109 2.041.014 3.06-.064a8.442 8.442 0 0 0 0-1.102c-1.322.031-2.665-.119-3.972.079a1.703 1.703 0 0 0-.337-.087l-.057.104-.052-.077c-.825-.067-1.657-.024-2.485-.018z"/>
    <path fill="#c0111e" d="M5.811 4.811c.828-.006 1.66-.049 2.485.018l.052.077c-.588 1.975-1.316 3.939-2.461 5.665-.195-1.904-.046-3.843-.076-5.76zM8.742 4.889c1.307-.198 2.65-.048 3.972-.079.024.367.024.735 0 1.102-1.019.078-2.043-.045-3.06.064-.002.516-.003 1.032.004 1.548 2.662-.078 5.327.025 7.988-.048.003-.495.003-.989-.001-1.484-1.111-.004-2.222 0-3.333-.002.017-.353-.095-.793.266-1.011.298-.213.675-.193 1.023-.186.862.022 1.725-.013 2.587.018.02 4.659.02 9.319 0 13.977a1215.8 1215.8 0 0 1-12.377.001c-.033-2.196.009-4.393-.02-6.589a2.692 2.692 0 0 1 .101-.762c.17.404.314.817.455 1.231.384-.478.672-1.02 1.003-1.534.025 2.482.001 4.964.012 7.446l1.451-.002c.002-3.279.002-6.557 0-9.836.116-.096.232-.193.346-.29-.148-.071-.297-.14-.445-.21.326-.751.577-1.529.847-2.301.063-.25.281-.394.471-.543a24.678 24.678 0 0 1-1.29-.51zm1.722 3.164c.007 1.042-.002 2.084.005 3.127 2.115-.003 4.231-.001 6.347-.001 0-1.045.007-2.089-.005-3.134-2.115.008-4.231-.007-6.347.008zm-1.123 3.704c.003.954-.004 1.908.005 2.861.436.003.873.003 1.31-.007-.001-.511-.004-1.022.004-1.533 1.925 0 3.849-.002 5.774.001.006.503.005 1.006.003 1.509.459.003.918.005 1.378-.005.002-.941.001-1.882.001-2.823-2.825-.009-5.65-.003-8.475-.003zm1.74 1.966c-.003.462-.003.924-.001 1.385.581.006 1.162-.001 1.743.008-.008.62.033 1.243-.038 1.86-.698.096-1.404.037-2.105.007.208.513.385 1.041.471 1.59.779-.019 1.576.022 2.334-.193.393-.108.704-.457.753-.864.135-.794.058-1.604.078-2.405.58 0 1.161.004 1.742-.006-.002-.461-.002-.923 0-1.384-1.659-.001-3.318-.005-4.977.002z"/>
    <path fill="#c0111e" d="M11.876 9.215c1.15-.001 2.301-.027 3.451-.001 0 .257.013.518-.031.774-1.135.077-2.279.012-3.418.03-.002-.268-.002-.535-.002-.803z"/>
    <path fill="#030303" opacity=".95" d="M0 7.082l.107-.127.004.14c.021 3.27.022 6.542-.001 9.812l-.004.14L0 16.919V7.082z"/>
</svg>
