<!-- Generated by IcoMoon.io -->
<svg version="1.1" xmlns="http://www.w3.org/2000/svg" width="24" height="24" viewBox="0 0 24 24">
<title>regulatory--pedestrians-only--g1</title>
<path fill="#03408b" d="M10.751 0h2.478c4.347 0.485 8.336 3.418 9.929 7.516 0.434 1.033 0.644 2.138 0.842 3.236v2.477c-0.485 4.348-3.418 8.337-7.516 9.93-1.033 0.434-2.138 0.644-3.236 0.842h-2.478c-4.348-0.485-8.336-3.418-9.929-7.516-0.434-1.033-0.644-2.138-0.842-3.236v-2.478c0.191-1.105 0.407-2.215 0.842-3.255 1.59-4.093 5.57-7.019 9.909-7.516M8.514 4.013c-0.919 0.462-1.064 1.883-0.058 2.342-0.037 0.271-0.135 0.54-0.388 0.68-0.673 0.431-1.278 1.050-1.527 1.82-0.099 1.154-0.122 2.315-0.186 3.473 0.307-0.001 0.613-0.001 0.921-0.001 0.040-1.209 0.090-2.417 0.107-3.626 0.060 0.003 0.18 0.006 0.24 0.009 0.098 3.157 0.219 6.313 0.334 9.47 0.272-0.013 0.545-0.023 0.818-0.036-0.013-1.758-0.031-3.518-0.040-5.276 0.267 0.004 0.535 0.006 0.803 0.012 0.094 2.113 0.178 4.225 0.27 6.338 0.277 0.013 0.554 0.026 0.833 0.040-0.026-3.483-0.056-6.965-0.083-10.447 0.675 0.919 1.274 1.894 1.969 2.798 0.461 0.381 0.702 0.928 1.034 1.407 0.458 0.121 0.942 0.071 1.41 0.127-0.368 0.968-0.761 1.928-1.131 2.895 0.38 0.006 0.76 0.027 1.138 0.036 0.036 0.928-0.042 1.861 0.040 2.786 0.030 0.268 0.358 0.187 0.54 0.171 0.121-0.978 0.003-1.961 0.015-2.942 0.153-0.003 0.307-0.003 0.459-0.001 0.039 0.751-0.051 1.503 0.044 2.251 0.167-0.023 0.334-0.053 0.499-0.087 0.010-0.714 0.027-1.427 0.040-2.139 0.178 0.004 0.357 0.008 0.535 0.012-0.194-0.819-0.391-1.635-0.574-2.456 0.409 0.361 0.807 0.733 1.23 1.078-0.114-1.151-1.043-1.829-1.934-2.386 0.177-0.331 0.42-0.657 0.422-1.049-0.153-0.416-0.797-0.571-1.072-0.195-0.228 0.365 0.060 0.766 0.173 1.119-0.53 0.566-1.577 0.417-1.951-0.253-0.81-1.371-1.648-2.725-2.476-4.084-0.341-0.616-1.097-0.769-1.552-1.265 0.003-0.589 0.706-0.91 0.66-1.523 0.091-0.801-0.841-1.499-1.564-1.096z"></path>
<path fill="#fff" d="M8.514 4.013c0.724-0.403 1.656 0.295 1.564 1.096 0.046 0.613-0.657 0.934-0.66 1.523 0.454 0.497 1.21 0.649 1.552 1.265 0.828 1.359 1.666 2.713 2.476 4.084 0.373 0.67 1.421 0.819 1.951 0.253-0.113-0.353-0.402-0.755-0.173-1.119 0.275-0.376 0.919-0.221 1.072 0.195-0.003 0.391-0.245 0.717-0.422 1.049 0.891 0.557 1.82 1.235 1.934 2.386-0.422-0.345-0.82-0.717-1.23-1.078 0.182 0.821 0.38 1.638 0.574 2.456-0.178-0.004-0.357-0.008-0.535-0.012-0.013 0.712-0.030 1.426-0.040 2.139-0.166 0.035-0.332 0.064-0.499 0.087-0.095-0.748-0.005-1.5-0.044-2.251-0.153-0.001-0.307-0.001-0.459 0.001-0.013 0.981 0.105 1.964-0.015 2.942-0.182 0.017-0.511 0.098-0.54-0.171-0.082-0.925-0.004-1.858-0.040-2.786-0.379-0.009-0.759-0.030-1.138-0.036 0.37-0.968 0.762-1.928 1.131-2.895-0.468-0.056-0.952-0.006-1.41-0.127-0.332-0.479-0.574-1.025-1.034-1.407-0.694-0.904-1.294-1.879-1.969-2.798 0.027 3.482 0.058 6.964 0.083 10.447-0.279-0.014-0.556-0.027-0.833-0.040-0.091-2.113-0.176-4.225-0.27-6.338-0.268-0.005-0.536-0.008-0.803-0.012 0.009 1.758 0.027 3.518 0.040 5.276-0.272 0.013-0.545 0.023-0.818 0.036-0.114-3.157-0.236-6.313-0.334-9.47-0.060-0.003-0.18-0.006-0.24-0.009-0.017 1.209-0.067 2.417-0.107 3.626-0.308 0-0.615 0-0.921 0.001 0.064-1.158 0.087-2.319 0.186-3.473 0.249-0.77 0.855-1.389 1.527-1.82 0.253-0.14 0.35-0.409 0.388-0.68-1.006-0.459-0.861-1.88 0.058-2.342z"></path>
</svg>
