<!-- Generated by IcoMoon.io -->
<svg version="1.1" xmlns="http://www.w3.org/2000/svg" width="20" height="24" viewBox="0 0 20 24">
<title>regulatory--pass-with-care--g1</title>
<path fill="#111" opacity="0.94" d="M1.078 0h18.091l-0.193 0.071c-6.025 0.068-12.053 0.008-18.079 0.030l0.181-0.101z"></path>
<path fill="#111" opacity="0.94" d="M1.023 23.929c6.025-0.069 12.054-0.007 18.081-0.031l-0.182 0.102h-18.092l0.193-0.071z"></path>
<path fill="#fbfbfb" d="M0.099 0.87c0.17-0.341 0.452-0.609 0.798-0.769 6.026-0.022 12.054 0.038 18.079-0.030 0.45 0.144 0.822 0.466 0.962 0.927-0.058 0.431-0.047 0.868-0.044 1.302 0.006 6.943-0.008 13.886 0.007 20.829-0.172 0.34-0.452 0.608-0.797 0.769-6.027 0.024-12.056-0.038-18.081 0.031-0.45-0.144-0.821-0.466-0.962-0.926 0.059-0.432 0.048-0.868 0.045-1.303-0.007-6.943 0.008-13.886-0.007-20.83M1.142 0.362c-0.485 0.055-0.798 0.568-0.782 1.028 0.001 7.073 0.001 14.147 0 21.22-0.031 0.563 0.449 1.115 1.034 1.050 5.768-0.001 11.536 0.007 17.304-0.005 0.552 0.025 0.966-0.524 0.942-1.045-0.001-7.073-0.001-14.147 0-21.22 0.024-0.519-0.388-1.075-0.942-1.042-5.852 0.005-11.705-0.021-17.556 0.014z"></path>
<path fill="#060606" d="M1.142 0.362c5.851-0.035 11.704-0.009 17.556-0.014 0.554-0.033 0.966 0.523 0.942 1.042-0.001 7.073-0.001 14.147 0 21.22 0.024 0.521-0.39 1.070-0.942 1.045-5.768 0.012-11.536 0.004-17.304 0.005-0.585 0.065-1.065-0.487-1.034-1.050 0.001-7.073 0.001-14.147 0-21.22-0.016-0.46 0.297-0.973 0.782-1.028M0.856 1.053c0 7.298-0.001 14.596 0.001 21.895 0.163 0.101 0.33 0.227 0.534 0.21 5.739 0.002 11.479 0.002 17.218 0 0.204 0.017 0.371-0.109 0.534-0.211 0.001-7.298 0.001-14.596 0-21.894-0.163-0.102-0.329-0.229-0.534-0.211-5.739-0.002-11.478-0.002-17.218 0-0.204-0.018-0.371 0.108-0.535 0.211z"></path>
<path fill="#fff" d="M0.856 1.053c0.164-0.103 0.331-0.229 0.535-0.211 5.74-0.002 11.479-0.002 17.218 0 0.205-0.018 0.371 0.109 0.534 0.211 0.001 7.298 0.001 14.596 0 21.894-0.163 0.102-0.33 0.228-0.534 0.211-5.739 0.002-11.479 0.002-17.218 0-0.204 0.017-0.371-0.109-0.534-0.21-0.002-7.299-0.001-14.597-0.001-21.895M10.539 2.839c-0.204 0.56-0.203 1.319 0.299 1.726 0.535 0.391 1.241 0.387 1.818 0.685 0.481 0.273 0.173 1.062-0.355 1.028-0.552 0.142-1.127-0.178-1.161-0.776-0.27 0.004-0.54 0.004-0.81 0.009-0.075 1.21 1.288 1.919 2.335 1.543 1.049-0.247 1.453-1.756 0.673-2.493-0.619-0.49-1.511-0.381-2.122-0.889-0.243-1.061 1.559-1.1 1.584-0.1 0.269 0 0.537 0 0.806-0.004-0.052-0.356-0.103-0.74-0.352-1.019-0.684-0.836-2.273-0.752-2.715 0.29M14.829 4.37c0.496 0.602 1.371 0.538 2.015 0.881 0.329 0.182 0.304 0.706 0.001 0.901-0.57 0.343-1.484 0.121-1.523-0.648-0.27 0.002-0.541 0.002-0.811 0.007-0.061 1.179 1.23 1.899 2.275 1.56 1.057-0.204 1.503-1.664 0.793-2.449-0.544-0.513-1.372-0.44-1.99-0.81-0.412-0.302-0.082-1.001 0.408-0.96 0.492-0.105 0.923 0.234 0.98 0.722 0.269-0.002 0.538-0.002 0.807-0.005 0.049-1.068-1.081-1.833-2.072-1.531-1.039 0.167-1.394 1.521-0.883 2.332M2.281 2.134c0.001 1.621 0.001 3.242 0 4.863 0.292 0.011 0.583 0.013 0.874 0.014 0.001-0.585 0.001-1.17 0-1.755 0.714-0.015 1.695 0.15 2.108-0.598 0.363-0.803 0.319-2.139-0.675-2.45-0.755-0.16-1.54-0.043-2.307-0.074M7.212 2.134c-0.487 1.627-0.973 3.254-1.474 4.876 0.303-0.001 0.607-0.002 0.91-0.005 0.098-0.327 0.188-0.656 0.278-0.985 0.514-0.006 1.029-0.005 1.543-0.002 0.087 0.32 0.165 0.643 0.228 0.969 0.321 0.020 0.642 0.024 0.964 0.024-0.481-1.627-0.977-3.251-1.462-4.877-0.329-0.004-0.658-0.004-0.987 0M2.751 9.433c0.402 1.619 0.777 3.245 1.174 4.866 0.266 0.009 0.532 0.011 0.798 0.014 0.234-1.258 0.447-2.519 0.664-3.78 0.18 1.259 0.416 2.508 0.632 3.761 0.276 0.013 0.551 0.016 0.827 0.018 0.393-1.624 0.779-3.25 1.169-4.876-0.292-0.004-0.584-0.004-0.875-0.006-0.226 1.16-0.486 2.314-0.661 3.483-0.272-1.149-0.416-2.323-0.639-3.482-0.304 0.001-0.608 0.001-0.912 0.001-0.223 1.16-0.355 2.336-0.61 3.49-0.158-1.173-0.433-2.326-0.644-3.489-0.308-0.001-0.615-0.001-0.923 0M8.537 9.431c0.001 1.626 0 3.253 0 4.879 0.282 0 0.564 0 0.846 0 0-1.626-0.001-3.252 0-4.878-0.282 0-0.564 0-0.846-0.001M9.917 9.431c0 0.284 0 0.568 0 0.853 0.411-0.001 0.823-0.001 1.235-0.001 0.007 1.342 0.001 2.684 0.003 4.027 0.292 0 0.583 0 0.875 0 0.003-1.343-0.005-2.685 0.004-4.027 0.41 0 0.819 0 1.228 0 0-0.284-0.001-0.568 0-0.852-1.115 0.002-2.23 0.002-3.345 0M13.826 9.432c0.001 1.626 0 3.252 0.001 4.878 0.282 0 0.563 0 0.846 0-0.001-0.727 0-1.454-0.001-2.18 0.538 0 1.077 0 1.615-0.001-0.003 0.727-0.001 1.453-0.002 2.18 0.29 0 0.58 0 0.87 0.002 0-1.626-0.001-3.253 0-4.88-0.29 0.001-0.58 0.001-0.87 0.005 0.001 0.618 0 1.236 0.001 1.854-0.538-0.002-1.076-0.001-1.614-0.002 0.001-0.619 0-1.238 0.001-1.857-0.282 0.001-0.565 0.001-0.847 0.001M2.98 16.779c-1.265 0.635-1.405 2.365-1.040 3.581 0.223 0.964 1.284 1.633 2.244 1.316 0.758-0.219 1.143-0.995 1.28-1.716-0.286-0.003-0.571-0.004-0.857-0.003-0.083 0.622-0.748 1.183-1.351 0.79-0.818-0.664-0.748-2.011-0.267-2.859 0.455-0.714 1.547-0.318 1.625 0.474 0.289 0 0.578 0 0.867-0.005-0.060-1.202-1.381-2.102-2.501-1.578M7.512 16.739c-0.463 1.632-0.982 3.247-1.462 4.874 0.302-0.002 0.603-0.002 0.905-0.015 0.098-0.325 0.186-0.652 0.279-0.978 0.513-0.004 1.026-0.004 1.539 0.001 0.086 0.323 0.166 0.649 0.252 0.973 0.314 0.017 0.629 0.018 0.943 0.018-0.481-1.627-0.982-3.249-1.457-4.878-0.333-0.002-0.666-0.002-0.999 0.005M15.134 16.732c0.001 1.626 0.001 3.252 0.001 4.879 1.046 0 2.093 0 3.14 0-0.001-0.293-0.001-0.585 0-0.877-0.769 0.002-1.538 0.001-2.307 0 0-0.42 0-0.839 0.001-1.258 0.682-0.004 1.364 0.005 2.046-0.006 0-0.277 0-0.553 0-0.829-0.682-0.010-1.364-0.002-2.047-0.006 0-0.35 0-0.7 0.002-1.051 0.733-0.001 1.466-0.001 2.198 0 0-0.284 0-0.568 0-0.852-1.011 0.002-2.022 0.002-3.034 0M10.757 16.733c-0.001 1.627-0.001 3.255 0 4.882 0.288-0.003 0.576-0.008 0.863-0.024 0-0.635-0.005-1.27 0.005-1.905 0.454 0.047 1.024-0.129 1.394 0.196 0.273 0.527 0.063 1.165 0.22 1.729 0.326 0 0.652-0.001 0.978 0-0.424-0.724 0.149-1.813-0.685-2.326 0.941-0.548 0.76-2.262-0.335-2.501-0.807-0.108-1.628-0.025-2.44-0.051z"></path>
<path fill="#fff" d="M3.157 2.967c0.448 0.043 1.079-0.152 1.366 0.305 0.126 0.354 0.128 0.887-0.259 1.080-0.358 0.109-0.738 0.060-1.106 0.069-0.003-0.485-0.003-0.969-0.001-1.454z"></path>
<path fill="#fff" d="M7.164 5.16c0.196-0.622 0.329-1.262 0.54-1.88 0.18 0.623 0.34 1.252 0.512 1.878-0.351 0.004-0.702 0.003-1.052 0.002z"></path>
<path fill="#fff" d="M11.622 17.569c0.392 0.008 0.787-0.028 1.177 0.027 0.638 0.063 0.648 1.231-0.008 1.272-0.389 0.039-0.782 0.014-1.172 0.020 0-0.44-0.001-0.879 0.003-1.319z"></path>
<path fill="#fff" d="M8.001 17.926c0.222 0.598 0.332 1.229 0.527 1.835-0.353 0.002-0.707 0.002-1.060 0 0.199-0.605 0.325-1.232 0.533-1.835z"></path>
<path fill="#4c4c4c" opacity="0.95" d="M0 1.023l0.099-0.153c0.015 6.944 0 13.887 0.007 20.83 0.003 0.435 0.014 0.871-0.045 1.303l-0.061 0.182v-22.162z"></path>
<path fill="#4c4c4c" opacity="0.95" d="M19.938 0.998l0.062-0.183v22.16l-0.099 0.154c-0.015-6.943-0.001-13.886-0.007-20.829-0.003-0.434-0.014-0.871 0.044-1.302z"></path>
<path fill="#000" d="M10.539 2.839c0.442-1.042 2.031-1.126 2.715-0.29 0.249 0.279 0.3 0.663 0.352 1.019-0.269 0.004-0.537 0.004-0.806 0.004-0.025-1-1.827-0.961-1.584 0.1 0.611 0.508 1.503 0.399 2.122 0.889 0.78 0.737 0.376 2.246-0.673 2.493-1.047 0.376-2.41-0.333-2.335-1.543 0.27-0.005 0.54-0.005 0.81-0.009 0.034 0.598 0.609 0.918 1.161 0.776 0.528 0.034 0.836-0.755 0.355-1.028-0.577-0.298-1.283-0.294-1.818-0.685-0.502-0.407-0.503-1.166-0.299-1.726z"></path>
<path fill="#000" d="M14.829 4.37c-0.511-0.811-0.156-2.165 0.883-2.332 0.991-0.302 2.121 0.463 2.072 1.531-0.269 0.003-0.538 0.003-0.807 0.005-0.057-0.488-0.488-0.827-0.98-0.722-0.49-0.041-0.82 0.658-0.408 0.96 0.618 0.37 1.446 0.297 1.99 0.81 0.71 0.785 0.264 2.245-0.793 2.449-1.045 0.339-2.336-0.381-2.275-1.56 0.27-0.005 0.541-0.005 0.811-0.007 0.039 0.769 0.953 0.991 1.523 0.648 0.303-0.195 0.328-0.719-0.001-0.901-0.644-0.343-1.519-0.279-2.015-0.881z"></path>
<path fill="#000" d="M2.281 2.134c0.767 0.031 1.552-0.086 2.307 0.074 0.994 0.311 1.038 1.647 0.675 2.45-0.413 0.748-1.394 0.583-2.108 0.598 0.001 0.585 0.001 1.17 0 1.755-0.291-0.001-0.582-0.003-0.874-0.014 0.001-1.621 0.001-3.242 0-4.863M3.157 2.967c-0.002 0.485-0.002 0.969 0.001 1.454 0.368-0.009 0.748 0.040 1.106-0.069 0.387-0.193 0.385-0.726 0.259-1.080-0.287-0.457-0.918-0.262-1.366-0.305z"></path>
<path fill="#000" d="M7.212 2.134c0.329-0.004 0.658-0.004 0.987 0 0.485 1.626 0.981 3.25 1.462 4.877-0.322 0-0.643-0.004-0.964-0.024-0.063-0.326-0.141-0.649-0.228-0.969-0.514-0.003-1.029-0.004-1.543 0.002-0.090 0.329-0.18 0.658-0.278 0.985-0.303 0.003-0.607 0.004-0.91 0.005 0.501-1.622 0.987-3.249 1.474-4.876M7.164 5.16c0.35 0.001 0.701 0.002 1.052-0.002-0.172-0.626-0.332-1.255-0.512-1.878-0.211 0.618-0.344 1.258-0.54 1.88z"></path>
<path fill="#000" d="M2.751 9.433c0.308-0.001 0.615-0.001 0.923 0 0.211 1.163 0.486 2.316 0.644 3.489 0.255-1.154 0.387-2.33 0.61-3.49 0.304 0 0.608 0 0.912-0.001 0.223 1.159 0.367 2.333 0.639 3.482 0.175-1.169 0.435-2.323 0.661-3.483 0.291 0.002 0.583 0.002 0.875 0.006-0.39 1.626-0.776 3.252-1.169 4.876-0.276-0.002-0.551-0.005-0.827-0.018-0.216-1.253-0.452-2.502-0.632-3.761-0.217 1.261-0.43 2.522-0.664 3.78-0.266-0.003-0.532-0.005-0.798-0.014-0.397-1.621-0.772-3.247-1.174-4.866z"></path>
<path fill="#000" d="M8.537 9.431c0.282 0.001 0.564 0.001 0.846 0.001-0.001 1.626 0 3.252 0 4.878-0.282 0-0.564 0-0.846 0 0-1.626 0.001-3.253 0-4.879z"></path>
<path fill="#000" d="M9.917 9.431c1.115 0.002 2.23 0.002 3.345 0-0.001 0.284 0 0.568 0 0.852-0.409 0-0.818 0-1.228 0-0.009 1.342-0.001 2.684-0.004 4.027-0.292 0-0.583 0-0.875 0-0.002-1.343 0.004-2.685-0.003-4.027-0.412 0-0.824 0-1.235 0.001 0-0.285 0-0.569 0-0.853z"></path>
<path fill="#000" d="M13.826 9.432c0.282 0 0.565 0 0.847-0.001-0.001 0.619 0 1.238-0.001 1.857 0.538 0.001 1.076 0 1.614 0.002-0.001-0.618 0-1.236-0.001-1.854 0.29-0.004 0.58-0.004 0.87-0.005-0.001 1.627 0 3.254 0 4.88-0.29-0.002-0.58-0.002-0.87-0.002 0.001-0.727-0.001-1.453 0.002-2.18-0.538 0.001-1.077 0.001-1.615 0.001 0.001 0.726 0 1.453 0.001 2.18-0.283 0-0.564 0-0.846 0-0.001-1.626 0-3.252-0.001-4.878z"></path>
<path fill="#000" d="M2.98 16.779c1.12-0.524 2.441 0.376 2.501 1.578-0.289 0.005-0.578 0.005-0.867 0.005-0.078-0.792-1.17-1.188-1.625-0.474-0.481 0.848-0.551 2.195 0.267 2.859 0.603 0.393 1.268-0.168 1.351-0.79 0.286-0.001 0.571 0 0.857 0.003-0.137 0.721-0.522 1.497-1.28 1.716-0.96 0.317-2.021-0.352-2.244-1.316-0.365-1.216-0.225-2.946 1.040-3.581z"></path>
<path fill="#000" d="M7.512 16.739c0.333-0.007 0.666-0.007 0.999-0.005 0.475 1.629 0.976 3.251 1.457 4.878-0.314 0-0.629-0.001-0.943-0.018-0.086-0.324-0.166-0.65-0.252-0.973-0.513-0.005-1.026-0.005-1.539-0.001-0.093 0.326-0.181 0.653-0.279 0.978-0.302 0.013-0.603 0.013-0.905 0.015 0.48-1.627 0.999-3.242 1.462-4.874M8.001 17.926c-0.208 0.603-0.334 1.23-0.533 1.835 0.353 0.002 0.707 0.002 1.060 0-0.195-0.606-0.305-1.237-0.527-1.835z"></path>
<path fill="#000" d="M15.134 16.732c1.012 0.002 2.023 0.002 3.034 0 0 0.284 0 0.568 0 0.852-0.732-0.001-1.465-0.001-2.198 0-0.002 0.351-0.002 0.701-0.002 1.051 0.683 0.004 1.365-0.004 2.047 0.006 0 0.276 0 0.552 0 0.829-0.682 0.011-1.364 0.002-2.046 0.006-0.001 0.419-0.001 0.838-0.001 1.258 0.769 0.001 1.538 0.002 2.307 0-0.001 0.292-0.001 0.584 0 0.877-1.047 0-2.094 0-3.14 0 0-1.627 0-3.253-0.001-4.879z"></path>
<path fill="#000" d="M10.757 16.733c0.812 0.026 1.633-0.057 2.44 0.051 1.095 0.239 1.276 1.953 0.335 2.501 0.834 0.513 0.261 1.602 0.685 2.326-0.326-0.001-0.652 0-0.978 0-0.157-0.564 0.053-1.202-0.22-1.729-0.37-0.325-0.94-0.149-1.394-0.196-0.010 0.635-0.005 1.27-0.005 1.905-0.287 0.016-0.575 0.021-0.863 0.024-0.001-1.627-0.001-3.255 0-4.882M11.622 17.569c-0.004 0.44-0.003 0.879-0.003 1.319 0.39-0.006 0.783 0.019 1.172-0.020 0.656-0.041 0.646-1.209 0.008-1.272-0.39-0.055-0.785-0.019-1.177-0.027z"></path>
</svg>
