<?xml version="1.0" encoding="utf-8"?>
<!-- Generated by IcoMoon.io -->
<!DOCTYPE svg PUBLIC "-//W3C//DTD SVG 1.1//EN" "http://www.w3.org/Graphics/SVG/1.1/DTD/svg11.dtd">
<svg version="1.1" xmlns="http://www.w3.org/2000/svg" xmlns:xlink="http://www.w3.org/1999/xlink" width="24" height="24" viewBox="0 0 24 24">
<path fill="#c50000" d="M6.582 1.297c2.322-1.188 5.039-1.556 7.602-1.088 2.762 0.486 5.327 1.999 7.099 4.171 1.616 1.944 2.56 4.412 2.717 6.931v1.486c-0.211 2.791-1.368 5.513-3.326 7.525-2.044 2.155-4.915 3.46-7.87 3.678h-1.486c-1.531-0.109-3.052-0.47-4.436-1.14-2.766-1.282-4.986-3.679-6.071-6.526-1.016-2.617-1.058-5.592-0.149-8.245 0.991-2.918 3.162-5.414 5.92-6.792M6.166 4.249c-0.001 0.035-0.002 0.104-0.002 0.139 1.618 1.62 3.234 3.241 4.858 4.855 0.173 0.17 0.337 0.348 0.497 0.532l0.041-0.004c0.298 0.307 0.586 0.629 0.911 0.907 0.671 0.71 1.375 1.388 2.066 2.077 0.209 0.217 0.421 0.431 0.632 0.646 0.179 0.136 0.412 0.206 0.527 0.414 0.404 0.575 0.941 1.036 1.432 1.532 0.403 0.415 0.815 0.822 1.224 1.231 0.082 0.080 0.163 0.162 0.244 0.245 0.396 0.343 0.698 0.823 1.165 1.069 1.27-1.729 2.006-3.856 1.963-6.010-0.016-2.796-1.327-5.543-3.48-7.324-1.633-1.382-3.74-2.179-5.875-2.255-2.21-0.097-4.439 0.613-6.202 1.944M4.252 6.161c-1.532 2.015-2.215 4.644-1.867 7.151 0.32 2.484 1.666 4.808 3.64 6.347 2.095 1.656 4.894 2.378 7.529 1.94 1.579-0.232 3.058-0.918 4.346-1.846-0.144-0.272-0.402-0.455-0.608-0.676-1.25-1.262-2.521-2.504-3.762-3.775-0.307-0.289-0.601-0.593-0.904-0.888-0.209-0.2-0.389-0.432-0.623-0.605-0.401-0.439-0.827-0.858-1.258-1.265l0.025-0.017c-2.093-2.030-4.134-4.117-6.2-6.176-0.098-0.062-0.181-0.264-0.318-0.191z"></path>
<path fill="#fff" d="M6.166 4.249c1.763-1.331 3.991-2.041 6.202-1.944 2.135 0.076 4.242 0.872 5.875 2.255 2.153 1.781 3.464 4.528 3.48 7.324 0.043 2.154-0.694 4.28-1.963 6.010-0.467-0.246-0.769-0.726-1.165-1.069 0.42-0.424 0.749-0.962 0.804-1.567 0.139-1.033-0.476-2.102-1.432-2.512-0.803-0.364-1.769-0.228-2.48 0.276-0.13-0.133-0.283-0.216-0.463-0.248 0.042 0.208 0.247 0.409 0.145 0.629-0.211-0.215-0.424-0.428-0.632-0.646 0.13-0.331 0.278-0.655 0.372-0.998 0.108-0.41-0.078-0.818-0.26-1.177-0.493-0.959-0.954-1.933-1.456-2.887-0.12-0.277-0.523-0.428-0.732-0.156-0.502 0.548-0.955 1.141-1.439 1.706-1.624-1.614-3.24-3.235-4.858-4.855 0-0.035 0.001-0.104 0.002-0.139M10.979 5.477c-0.536 0.188-0.857 0.833-0.653 1.37 0.178 0.576 0.888 0.905 1.439 0.653 0.562-0.216 0.84-0.941 0.562-1.475-0.224-0.494-0.841-0.737-1.348-0.548z"></path>
<path fill="#fff" d="M4.252 6.161c0.137-0.073 0.22 0.128 0.318 0.191 2.066 2.059 4.108 4.146 6.2 6.176l-0.025 0.017c-0.288 0.044-0.485 0.384-0.33 0.648 0.318 0.682 0.654 1.356 0.982 2.034 0.138 0.314 0.476 0.458 0.792 0.526-0.137 0.402-0.406 0.914-0.066 1.29 0.232 0.27 0.653 0.101 0.794-0.178 0.256-0.497 0.434-1.033 0.612-1.562 1.241 1.271 2.512 2.513 3.762 3.775 0.206 0.221 0.464 0.403 0.608 0.676-1.289 0.928-2.767 1.614-4.346 1.846-2.635 0.438-5.434-0.284-7.529-1.94-1.974-1.538-3.319-3.863-3.64-6.347-0.348-2.507 0.335-5.136 1.867-7.151M8.399 12.931c-0.533-0.318-1.17-0.473-1.787-0.354-1.020 0.16-1.864 1.050-1.985 2.072-0.127 0.872 0.269 1.79 0.984 2.303 0.694 0.514 1.667 0.61 2.449 0.245 0.766-0.343 1.321-1.11 1.409-1.945 0.097-0.766-0.209-1.553-0.772-2.076 0.072-0.115 0.143-0.232 0.215-0.348 0.584 0.481 1.090 1.049 1.67 1.534l0.138-0.038c-0.325-0.738-1.064-1.172-1.574-1.774 0.44-0.032 0.952 0.071 1.284-0.295-0.385-0.013-0.77 0.008-1.154 0.028 0.095-0.256 0.307-0.467 0.3-0.754-0.554 0.282-0.726 0.998-1.177 1.403z"></path>
<path fill="#fff" d="M11.558 9.772c0.146-0.013 0.292-0.028 0.438-0.042 0.161 0.316 0.305 0.638 0.473 0.949-0.325-0.278-0.613-0.6-0.911-0.907z"></path>
<path fill="#fff" d="M6.122 13.093c0.661-0.336 1.471-0.253 2.095 0.126-0.246 0.362-0.498 0.721-0.752 1.078-0.114 0.233-0.457 0.102-0.572 0.341-0.158 0.28 0.127 0.64 0.44 0.54 0.292-0.085 0.208-0.438 0.372-0.63 0.259-0.368 0.524-0.732 0.78-1.102 0.544 0.518 0.791 1.328 0.59 2.058-0.226 0.928-1.151 1.625-2.107 1.571-0.991-0.017-1.888-0.833-2.003-1.816-0.131-0.872 0.359-1.79 1.157-2.166z"></path>
<path fill="#fff" d="M15.71 13.318c0.726-0.61 1.886-0.566 2.602 0.043 0.677 0.545 0.946 1.532 0.631 2.345-0.116 0.34-0.353 0.616-0.593 0.874-0.409-0.409-0.821-0.816-1.224-1.231 0.019-0.090 0.056-0.271 0.076-0.361-0.064-0.316-0.484-0.221-0.618-0.482-0.288-0.397-0.623-0.763-0.874-1.187z"></path>
<path fill="#fff" d="M12.002 13.81c0.234 0.173 0.414 0.404 0.623 0.605-0.040 0.118-0.078 0.236-0.118 0.354-0.172-0.318-0.328-0.644-0.505-0.959z"></path>
<path fill="#000" d="M10.979 5.477c0.506-0.188 1.123 0.054 1.348 0.548 0.278 0.534 0 1.259-0.562 1.475-0.551 0.252-1.261-0.077-1.439-0.653-0.204-0.538 0.116-1.182 0.653-1.37z"></path>
<path fill="#000" d="M12.46 7.537c0.209-0.272 0.612-0.121 0.732 0.156 0.502 0.954 0.962 1.928 1.456 2.887 0.182 0.359 0.368 0.767 0.26 1.177-0.094 0.343-0.242 0.667-0.372 0.998-0.691-0.689-1.396-1.367-2.066-2.077-0.168-0.311-0.312-0.634-0.473-0.949-0.146 0.014-0.292 0.029-0.438 0.042l-0.041 0.004c-0.16-0.184-0.324-0.361-0.497-0.532 0.484-0.565 0.937-1.158 1.439-1.706z"></path>
<path fill="#000" d="M8.399 12.931c0.451-0.404 0.623-1.121 1.177-1.403 0.007 0.287-0.205 0.498-0.3 0.754 0.384-0.019 0.769-0.041 1.154-0.028-0.332 0.366-0.844 0.263-1.284 0.295 0.51 0.601 1.249 1.036 1.574 1.774l-0.138 0.038c-0.581-0.485-1.086-1.052-1.67-1.534-0.072 0.116-0.143 0.233-0.215 0.348 0.563 0.523 0.869 1.31 0.772 2.076-0.088 0.835-0.643 1.602-1.409 1.945-0.782 0.365-1.756 0.269-2.449-0.245-0.715-0.512-1.111-1.43-0.984-2.303 0.121-1.022 0.965-1.913 1.985-2.072 0.617-0.119 1.254 0.036 1.787 0.354M6.122 13.093c-0.798 0.376-1.288 1.294-1.157 2.166 0.115 0.983 1.012 1.799 2.003 1.816 0.956 0.054 1.882-0.643 2.107-1.571 0.2-0.73-0.047-1.54-0.59-2.058-0.256 0.37-0.521 0.733-0.78 1.102-0.164 0.192-0.080 0.545-0.372 0.63-0.313 0.1-0.599-0.26-0.44-0.54 0.115-0.239 0.458-0.108 0.572-0.341 0.254-0.356 0.506-0.715 0.752-1.078-0.624-0.379-1.434-0.462-2.095-0.126z"></path>
<path fill="#000" d="M10.415 13.193c-0.155-0.264 0.042-0.604 0.33-0.648 0.431 0.407 0.857 0.826 1.258 1.265 0.178 0.314 0.334 0.641 0.505 0.959 0.040-0.118 0.078-0.236 0.118-0.354 0.302 0.295 0.596 0.599 0.904 0.888-0.178 0.529-0.356 1.066-0.612 1.562-0.142 0.278-0.563 0.448-0.794 0.178-0.34-0.376-0.071-0.888 0.066-1.29-0.316-0.067-0.654-0.211-0.792-0.526-0.328-0.678-0.664-1.352-0.982-2.034z"></path>
<path fill="#000" d="M15.486 13.021c0.712-0.504 1.678-0.64 2.48-0.276 0.955 0.409 1.571 1.478 1.432 2.512-0.055 0.605-0.384 1.144-0.804 1.567-0.080-0.083-0.162-0.164-0.244-0.245 0.24-0.258 0.476-0.534 0.593-0.874 0.314-0.812 0.046-1.8-0.631-2.345-0.715-0.61-1.876-0.653-2.602-0.043 0.251 0.424 0.586 0.79 0.874 1.187 0.134 0.262 0.554 0.167 0.618 0.482-0.019 0.090-0.056 0.271-0.076 0.361-0.491-0.497-1.027-0.958-1.432-1.532-0.115-0.208-0.348-0.278-0.527-0.414 0.102-0.22-0.103-0.421-0.145-0.629 0.18 0.032 0.334 0.115 0.463 0.248z"></path>
</svg>
