<svg xmlns="http://www.w3.org/2000/svg" width="24" height="24">
    <path fill="#5e5d65" d="M1.106.281A19.75 19.75 0 0 1 3.083.267c5.705 0 11.415-.012 17.118 0C13.837.286 7.469.25 1.105.281zM6.609 17.359c-.021-.588.219-1.137.266-1.717l.074.065c-.142.381-.099.791-.104 1.189l-.01.164c-.167.798-.053 1.624-.115 2.432-.098.535-.107 1.082-.107 1.625.08.289-.179.416-.277.642l-.093.017c.093-.322.308-.607.311-.953.084-1.152.019-2.309.056-3.463z"/>
    <path fill="#1a1919" d="M0 1.401C.211.905.593.472 1.106.282 7.47.251 13.838.287 20.202.268c.776.029 1.553-.002 2.329.026.615.111 1.108.674 1.232 1.27-.004 7.069.006 14.138-.002 21.206a1.902 1.902 0 0 1-1.067 1.231H1.068c-.541-.272-1.071-.751-1.067-1.404V1.402zM1.298.447C.622.539.096 1.222.147 1.897.151 8.791.146 15.686.149 22.58c.043.749.761 1.361 1.51 1.293 6.845-.003 13.691.003 20.536-.003.731.028 1.394-.613 1.408-1.339V1.753c-.016-.559-.419-1.08-.944-1.263-.305-.084-.624-.073-.936-.072H2.087c-.263.002-.528-.013-.79.029z"/>
    <path fill="#1a1919" d="M1.574.721c.439-.048.88.004 1.32.009C9.345.735 15.796.723 22.247.736c.516-.029.906.405 1.003.879.144.847.027 1.707.043 2.56v17.787c.013.434.039.941-.299 1.27-.375.355-.933.319-1.412.331-6.626-.001-13.251.005-19.877-.003-.58.03-1.193-.376-1.245-.982C.459 15.67.465 8.761.457 1.853.446 1.251.971.72 1.575.723zm-.399.787c-.295.406-.107.926-.126 1.386.003 6.561 0 13.122.001 19.683.088.352.496.398.8.392 2.994.005 5.989 0 8.982.002-.001-3.401.003-6.803-.002-10.205.198-.003.395-.002.593-.002-.001 3.402.001 6.804-.001 10.206 3.591-.003 7.182.006 10.773-.004.342.021.511-.328.504-.623.002-6.801 0-13.603.001-20.403.022-.301-.162-.642-.503-.618-6.83-.006-13.66 0-20.49-.003-.188 0-.425.005-.534.188z"/>
    <path fill="#1a1919" d="M17.721 8.698c-.144-.258.19-.559.442-.454 1.286.398 2.568.807 3.853 1.207-.833 1.061-1.687 2.107-2.526 3.164-.158.23-.575.144-.612-.139-.026-.374-.003-.749-.011-1.124-1.581.261-2.858 1.702-2.926 3.302-.007.876 0 1.752-.003 2.627-.574.002-1.149.002-1.723 0 .038-1.343-.16-2.721.227-4.03a5.411 5.411 0 0 1 2.033-2.754c.551-.43 1.232-.633 1.892-.831-.204-.33-.455-.63-.646-.969zM12.537 18.474c.429-.12.938 0 1.163.412.453.828.439 1.928-.136 2.694-.314.329-.849.325-1.24.15-.432-.28-.602-.841-.561-1.335.028-.432-.085-.895.13-1.294.105-.294.32-.572.645-.627zm.237.514c-.208.009-.357.192-.432.37-.195.528-.2 1.138.037 1.654.131.28.52.372.772.203a.822.822 0 0 0 .258-.455c.12-.501.124-1.053-.11-1.523a.49.49 0 0 0-.526-.249zM14.534 18.509c.176-.002.352-.003.528.002.37.706.814 1.372 1.187 2.077.004-.694-.004-1.388.004-2.082h.5c.006 1.094.004 2.188.001 3.281-.175-.028-.445.094-.523-.124-.368-.709-.783-1.392-1.18-2.086-.007.737.002 1.473-.004 2.21a6.752 6.752 0 0 1-.513-.007c.001-1.09.002-2.181-.001-3.272zM17.357 18.507c.167 0 .335 0 .503.002.005.928-.019 1.858.012 2.785.497.028.997.006 1.495.01.003.161.004.322 0 .483-.67.001-1.341.002-2.011 0-.003-1.093-.005-2.187.001-3.281zM19.443 18.508c.212.008.427-.023.637.018.253.407.502.818.761 1.222.277-.406.533-.826.802-1.238.189-.003.379-.004.569-.001-.281.583-.667 1.107-1.004 1.657-.059.099-.125.203-.114.323v1.295a6.864 6.864 0 0 1-.497 0c-.003-.432 0-.864 0-1.295.011-.157-.092-.284-.165-.412-.314-.533-.696-1.023-.988-1.569z"/>
    <path fill="#fffffe" d="M1.298.447c.261-.042.526-.027.79-.029h19.636c.313-.001.632-.012.936.072.525.183.928.704.944 1.263v20.778c-.014.726-.677 1.367-1.408 1.339-6.845.007-13.691 0-20.536.003-.749.067-1.468-.544-1.51-1.293C.147 15.685.151 8.791.148 1.897.097 1.222.622.539 1.299.447zm.276.274C.97.718.445 1.249.456 1.851c.008 6.908.002 13.817.003 20.725.052.606.665 1.012 1.245.982 6.626.009 13.251.002 19.877.003.479-.011 1.037.024 1.412-.331.339-.329.313-.836.299-1.27V4.173c-.016-.853.102-1.713-.043-2.56-.096-.474-.487-.908-1.003-.879C15.795.722 9.344.734 2.893.728c-.44-.004-.881-.057-1.32-.009z"/>
    <path fill="#fffffe" d="M1.175 1.508c.109-.183.345-.188.534-.188 6.83.002 13.66-.003 20.49.003.341-.025.525.316.503.618-.001 6.801.001 13.602-.001 20.403.008.295-.162.645-.504.623-3.591.01-7.182.001-10.773.004.002-3.402 0-6.804.001-10.206-.198 0-.395-.001-.593.002.005 3.402.001 6.803.002 10.205-2.994-.002-5.988.002-8.982-.002-.304.006-.712-.04-.8-.392-.001-6.561.002-13.122-.001-19.683.018-.46-.169-.979.126-1.386zm5.247 1.699c-.284.148-.281.493-.442.732-.08.135-.099.294-.133.444-.142.145-.191.341-.232.533-.216.447-.345.929-.553 1.379-.154.205-.12.473-.074.709l.166.028c.175.022.354.009.526.048.158.061.143.268.172.406.05.792.039 1.587.016 2.38.003.466-.167.905-.234 1.362h-.119c-.024-.145-.047-.291-.075-.435-.277-.057-.138-.44-.383-.539-.203-.493-.624-.856-.824-1.349l-.141-.049-.09-.189a5.942 5.942 0 0 0-.142-.052c-.172-.416-.077-.862.015-1.283.191-.141.208-.508-.041-.594-.039-.173-.171-.243-.343-.197-.129 0-.261-.011-.388.019-.589-.118-1.169.044-1.717.233-.105.2-.044.452-.022.67.07.309.026.638.152.933.159.416.075.882.258 1.289.091.284.101.584.148.876.073.15.194.276.228.444.147.023.297.05.446.031.114-.194-.016-.457.095-.66.191-.141.545-.127.614.14l.152.039.062.203.14.095c.075.153.175.29.291.415.161.284.341.559.482.855.028.268.241.462.278.725.028.224.207.394.221.622.033.311.21.586.232.899.047.587.239 1.151.257 1.741-.009 1.649-.001 3.301-.009 4.951-.028.249.082.471.169.695l.113.008.196.007.059-.004c.098.001.197.004.295.009l.093-.017c.082.001.165.001.247-.001.046-.193.054-.391.091-.585.073-.101.199-.177.188-.319.031-1.117.014-2.235.029-3.353a1.466 1.466 0 0 1 .147-.643c.189-.479-.11-1.088.276-1.491.065-.256.014-.526.069-.782.289-.145.193-.503.222-.766l.152-.049c.06-.191.083-.39.099-.588.291-.055.131-.401.312-.557.153-.137.085-.386.255-.508.134-.098.075-.308.213-.4.204-.116.079-.446.349-.497.026-.114.076-.218.195-.255.073-.22.263-.359.394-.541.236-.189.457-.465.799-.379.008.271.012.586.271.747.149-.012.299-.025.448-.039l.013-.163c.034-.171.034-.347.061-.519.026-.16.178-.272.178-.44.029-.302-.012-.621.126-.903.242-.197.04-.564.2-.809.093-.135.194-.277.146-.451l-.001-.016c.044-.166.014-.405.222-.458l.012-.217c.001-.158 0-.316-.005-.474a18.391 18.391 0 0 0-.332-.009c-.182 0-.365-.007-.546.018-.412-.039-.829-.02-1.242-.01a1.829 1.829 0 0 0-.405.02c-.04.168-.214.185-.349.242-.175.256-.032.603.181.787a.633.633 0 0 1 .012.769c-.193.21-.344.462-.488.709l-.106.075c-.182.306-.435.569-.594.888l-.089.049c-.157.409-.51.721-.62 1.148a9.86 9.86 0 0 1-.192.216 5.027 5.027 0 0 0-.173.059c.008-1.257.01-2.514.019-3.771-.003-.235.198-.396.265-.609.295-.107.613-.046.916-.107-.004-.319-.32-.531-.26-.87-.335-.156-.11-.62-.428-.801-.033-.151.014-.346-.117-.456-.196-.148-.13-.423-.203-.631-.229-.054-.185-.311-.225-.49l-.171-.034a5.301 5.301 0 0 0-.009-.178c-.055-.205-.308-.129-.464-.109zm11.299 5.491c.191.338.442.638.646.969-.66.197-1.34.4-1.892.831a5.411 5.411 0 0 0-2.033 2.754c-.387 1.309-.189 2.687-.227 4.03.574.002 1.149.002 1.723 0 .003-.876-.004-1.752.003-2.627.067-1.6 1.344-3.041 2.926-3.302.008.375-.015.75.011 1.124.037.283.454.369.612.139.839-1.057 1.692-2.103 2.526-3.164-1.285-.4-2.567-.809-3.853-1.207-.252-.105-.586.196-.442.454zm-5.184 9.776c-.324.056-.539.333-.645.627-.216.399-.102.862-.13 1.294-.041.493.129 1.054.561 1.335.391.175.927.179 1.24-.15.575-.766.589-1.866.136-2.694-.224-.412-.734-.531-1.163-.412zm1.997.035c.003 1.09.002 2.181.001 3.272.17.01.342.01.513.007.007-.737-.002-1.473.004-2.21.397.693.812 1.376 1.18 2.086.078.218.348.096.523.124a398.69 398.69 0 0 0-.001-3.281h-.5c-.009.694 0 1.388-.004 2.082-.372-.706-.816-1.371-1.187-2.077a13.277 13.277 0 0 0-.528-.002zm2.823-.002a398.717 398.717 0 0 0-.001 3.281c.67.003 1.341.002 2.011 0 .003-.161.003-.323 0-.483-.498-.005-.998.017-1.495-.01-.031-.927-.007-1.857-.012-2.785-.168-.002-.335-.002-.503-.002zm2.086.001c.292.546.674 1.037.988 1.569.074.128.176.255.165.412 0 .432-.002.863 0 1.295.166.006.332.006.497 0v-1.295c-.01-.12.055-.225.114-.323.337-.551.723-1.074 1.004-1.657-.19-.002-.38-.002-.569.001-.269.412-.525.832-.802 1.238-.259-.404-.508-.815-.761-1.222-.209-.04-.425-.01-.637-.018z"/>
    <path fill="#fffffe" d="M12.774 18.988a.49.49 0 0 1 .526.249c.233.469.229 1.022.11 1.523a.822.822 0 0 1-.258.455c-.252.169-.641.077-.772-.203-.237-.516-.232-1.126-.037-1.654.074-.178.223-.361.432-.37z"/>
    <path fill="#cfd0d1" d="M6.422 3.207c.156-.02.409-.096.464.109l-.058-.014c-.152-.012-.453-.124-.455.114-.004.226-.23.351-.247.571-.014.19-.2.303-.221.489-.043.292-.24.528-.29.82-.133.207-.236.429-.203.683l-.002.03c-.273.067-.217.384-.233.598a15.081 15.081 0 0 1-.024.425 8.198 8.198 0 0 1-.166-.028c-.046-.235-.08-.503.074-.709.208-.45.337-.932.553-1.379.042-.192.091-.388.232-.533.034-.15.053-.309.133-.444.161-.239.158-.585.442-.732z"/>
    <path fill="#9c9ea0" d="M6.373 3.416c.002-.238.303-.126.455-.114l.014.117a7.01 7.01 0 0 0-.113-.13c-.384-.04-.29.388-.48.589-.14.156-.062.4-.212.55a.387.387 0 0 0-.112.329l-.001.034c-.193.388-.329.799-.512 1.19-.033-.254.07-.477.203-.683.05-.291.247-.527.29-.82.021-.186.207-.299.221-.489.017-.221.243-.345.247-.571z"/>
    <path fill="#58595f" d="M6.249 3.877c.19-.201.095-.629.48-.589l.113.13c.011.096.023.193.039.289.239.066.159.35.289.508.184.213.123.524.286.752.203.587.527 1.129.646 1.741-.303.199-.766-.085-.985.263-.081.304-.006.626-.052.936-.048.542-.104 1.083-.102 1.627a7.35 7.35 0 0 0-.095 1.137c.009.215-.094.521.162.626a6.9 6.9 0 0 1 .094.171c.171-.048.324-.136.468-.238l-.04.18a.864.864 0 0 1-.702.046c-.08-.575.011-1.155-.016-1.732-.02-.823.014-1.645.058-2.466.009-.177.087-.34.165-.497.229-.018.457-.046.686-.066l.231-.02c.004-.25-.196-.423-.255-.654-.192-.581-.599-1.085-.671-1.703-.086-.266-.267-.491-.344-.763-.087.018-.213-.002-.233.114-.083.286-.286.521-.331.82-.012.127-.121.199-.215.267a.388.388 0 0 1 .112-.329c.15-.149.072-.394.212-.55z"/>
    <path fill="#b1b2b5" d="M6.828 3.302l.058.014c.004.059.007.119.009.178l.171.034c.04.179-.004.436.225.49.074.209.007.483.203.631.131.11.083.305.117.456.319.181.093.645.428.801-.059.34.257.552.26.87-.304.061-.621 0-.916.107-.067.213-.268.374-.265.609-.009 1.256-.011 2.514-.019 3.771-.1-.183-.065-.395-.051-.593.06-.92.063-1.843.017-2.763.046-.31-.029-.632.052-.936.219-.349.682-.064.985-.263-.119-.612-.443-1.154-.646-1.741-.162-.228-.102-.538-.286-.752-.129-.158-.05-.442-.289-.508a5.722 5.722 0 0 1-.053-.406z"/>
    <path fill="#18192e" d="M6.471 3.669c.02-.116.146-.096.233-.114.077.271.258.497.344.763.072.618.48 1.122.671 1.703.059.231.259.404.255.654l-.231.02c.011-.119.019-.238.028-.358-.125-.021-.253-.032-.373-.076-.074-.105-.093-.237-.129-.358-.141-.025-.336-.131-.428.034-.1.172-.312.094-.471.093l-.03.302c-.334-.018-.12-.381-.158-.585a.532.532 0 0 0 .18-.433c-.212-.004-.552-.027-.593.252-.016.203-.133.362-.274.499.119-.435.451-.812.428-1.276l.001-.034c.094-.068.203-.14.215-.267.045-.298.248-.534.331-.82z"/>
    <path fill="#50504f" d="M5.412 5.979c.184-.391.319-.801.512-1.19.023.463-.309.84-.428 1.276-.031.249-.297.448-.218.704.176.083.392-.021.584 0 .086.093.179.179.272.265a1.2 1.2 0 0 0-.74-.029c-.167.029-.192-.153-.224-.274a5.49 5.49 0 0 1 .006-.125c.019-.088.045-.175.071-.262.103-.084.177-.196.162-.335l.002-.03z"/>
    <path fill="#101018" d="M5.77 5.566c.041-.279.381-.256.593-.252a.534.534 0 0 1-.18.433c.038.204-.176.567.158.585l.03-.302c.16.001.371.079.471-.093.092-.165.286-.059.428-.034.036.121.054.253.129.358.12.045.248.055.373.076-.009.12-.017.239-.028.358-.229.02-.457.048-.686.066-.366-.057-.206.371-.242.593.006.216-.256.258-.417.297-.03-.189-.005-.379-.008-.569-.123-.17-.298-.341-.528-.314-.192-.021-.408.083-.584 0-.079-.256.187-.455.218-.704.141-.137.258-.296.274-.499z"/>
    <path fill="#8a8b8a" d="M5.177 6.607c.016-.213-.04-.53.233-.598.015.139-.059.251-.162.335a4.06 4.06 0 0 0-.071.262z"/>
    <path fill="#c9c9c7" d="M9.517 6.322c.134-.021.269-.028.405-.02a2.807 2.807 0 0 0-.302.242c-.119.006-.237.015-.356.024-.018.145-.037.292-.022.438.104.148.205.3.277.468l.141.057c.099.362-.211.656-.413.921a7.663 7.663 0 0 0-.078.191l-.141.047a5.848 5.848 0 0 1-.018.186c-.102.152-.231.284-.322.443l-.122.092c-.096.218-.257.399-.349.619l-.133.048-.012.064c-.112.192-.233.378-.338.574-.15.121-.161.319-.229.486-.115.084-.27.124-.405.061l.173-.059a9.86 9.86 0 0 0 .192-.216c.11-.427.463-.738.62-1.148l.089-.049c.159-.319.412-.582.594-.888l.106-.075c.144-.247.295-.499.488-.709a.633.633 0 0 0-.012-.769c-.212-.184-.356-.531-.181-.787.134-.057.308-.074.349-.242z"/>
    <path fill="#828588" d="M9.922 6.302c.413-.009.83-.028 1.242.01-.195.029-.392.034-.588.041-.332 0-.618.225-.956.191.096-.086.195-.17.302-.242z"/>
    <path fill="#46474b" d="M11.164 6.312c.181-.024.364-.017.546-.018l.129.123c-.011.172-.018.345-.03.517l-.011.075c-.1.219-.242.431-.232.683l-.002.037c-.078.306-.29.582-.232.914l-.002.034c-.069.331-.315.616-.232.974-.003.051-.007.102-.009.154-.016.318-.028.688-.346.859-.037-.066-.074-.131-.107-.199l-.006-.164a4.436 4.436 0 0 0-.044-.475 7.337 7.337 0 0 0-.209-.015c-.133-.004-.266.009-.397.02l-.097.184-.182.056-.077.165-.161.075c-.022.056-.045.113-.066.17l-.161.076-.067.162-.106.05a1.42 1.42 0 0 1-.053.03c-.072.082-.138.168-.21.249a1.687 1.687 0 0 1-.254.429c-.257.446-.518.89-.72 1.364-.126.493-.419.93-.493 1.44a3.797 3.797 0 0 0-.011.213c-.129.159-.211.35-.245.552-.092-.458.319-.82.216-1.275.28-.628.509-1.28.861-1.873.238-.357.419-.746.655-1.104l.113-.073.084-.147c.125-.118.251-.234.38-.349l.081-.139c.086-.075.17-.152.25-.233.24-.238.568-.295.891-.225.056.157.108.316.157.477.117-.477.336-.924.35-1.422.139-.286.208-.59.232-.906.219-.425.258-.906.381-1.362a8.073 8.073 0 0 0-.561.003c-.52.243-1.135.065-1.685.222-.053.237-.009.503.209.644.105.247.371.514.195.792-.192.166-.425.304-.481.574l-.166.019c.017-.066.032-.132.046-.199l.167-.067.065-.214.163-.05c.036-.167.074-.339.049-.51-.022-.236-.23-.388-.318-.597l-.168-.031a1.889 1.889 0 0 1 .022-.438c.119-.009.237-.018.356-.024.338.035.624-.191.956-.191.196-.007.393-.012.588-.041z"/>
    <path fill="#828381" d="M11.71 6.295c.111.002.221.006.332.009.005.158.006.316.005.474l-.181.021-.056.135c.011-.172.018-.345.03-.517l-.129-.123z"/>
    <path fill="#0f121e" d="M9.481 6.643c.55-.157 1.165.021 1.685-.222.187-.009.374-.007.561-.003-.123.456-.162.938-.381 1.362a2.47 2.47 0 0 1-.232.906c-.013.498-.233.945-.35 1.422-.048-.16-.1-.319-.157-.477-.323-.07-.651-.013-.891.225a6.098 6.098 0 0 1-.25.233 4.993 4.993 0 0 0-.081.139c-.129.114-.255.231-.38.349l-.084.147-.113.073c-.236.358-.418.747-.655 1.104-.352.593-.582 1.246-.861 1.873-.317.602-.354 1.312-.668 1.915-.073.272-.006.568-.113.834-.08.201-.15.405-.195.617-.303-.121-.375-.485-.373-.776.012-.285-.192-.521-.191-.804-.013-.318.031-.653-.103-.952-.176-.36-.148-.778-.326-1.139-.104-.626-.422-1.184-.657-1.767-.231-.504-.662-.877-.899-1.373-.083-.093-.184-.168-.277-.249a6.57 6.57 0 0 0-.138-.021c-.166-.252-.642-.356-.762-.014l-.171.04a4.719 4.719 0 0 1-.169.36c-.096-.296-.097-.607-.11-.913-.003-.222-.16-.397-.193-.611-.061-.392.017-.808-.146-1.181-.116-.268-.203-.562-.133-.854.12-.013.239-.027.358-.034.493.052.99-.009 1.482.045.101.009.134.123.192.19-.218.263-.357.579-.536.868-.169.227.059.469.156.675.084.079.164.163.24.25l.146.08c.177.411.376.848.711 1.157.148.259.159.676.504.753-.037.15-.104.303-.081.461.179.129.36.258.545.376.385.148.771-.136 1.163-.044.279.01.655.199.85-.089.113-.075.234-.143.326-.246.186-.169.029-.52.326-.596.025-.13.045-.261.062-.393.231-.164.288-.471.48-.674.171-.239.335-.483.495-.729l.158-.043-.006-.22.166-.019c.056-.27.289-.409.481-.574.176-.278-.09-.545-.195-.792-.217-.14-.262-.407-.209-.644z"/>
    <path fill="#cecdcd" d="M1.385 6.794c.547-.189 1.127-.351 1.717-.233-.374.14-.774.171-1.167.213-.157.021-.345-.018-.477.084-.026.113-.028.231-.031.346-.062.306.121.555.24.817l.001.081c-.065.436.048.854.23 1.246l.001.038c-.056.392.064.757.239 1.101l.004.037c.002.079.001.159.001.239.121.122.26.242.443.244.023-.239.043-.48.023-.719.15-.009.24-.118.306-.241l.075.002c.051.07.098.144.144.218l.181.013.057.004c.147.234.315.452.474.678l.124.06.053.18c.161.098.228.271.267.447l.148.083c.034.183.045.403.234.498.009.223.112.414.233.594.04.266.111.522.241.759.057.32.043.674.274.934-.019.315 0 .631.026.945.022.373.218.713.204 1.09.021 1.649.002 3.299-.004 4.948-.149-.383-.152-.796-.108-1.199.005-1.107.033-2.214.012-3.321a4.012 4.012 0 0 0-.13-.871c-.018-.59-.21-1.154-.257-1.741-.022-.314-.199-.588-.232-.899-.014-.228-.193-.397-.221-.622-.037-.264-.25-.458-.278-.725-.141-.296-.321-.571-.482-.855a1.715 1.715 0 0 1-.291-.415 6.87 6.87 0 0 0-.14-.095l-.062-.203-.152-.039c-.069-.267-.423-.281-.614-.14-.111.203.019.466-.095.66-.149.019-.299-.008-.446-.031-.034-.169-.155-.295-.228-.444-.047-.292-.057-.592-.148-.876-.183-.406-.1-.873-.258-1.289-.127-.296-.083-.625-.152-.933-.022-.218-.083-.47.022-.67z"/>
    <path fill="#8f9295" d="M3.101 6.56c.127-.031.258-.019.388-.019.516.252.373.937.12 1.333-.138.193-.043.446.124.586l.035.17c-.301-.218-.392-.684-.138-.97.109-.107.118-.263.126-.406.007-.151-.009-.301-.019-.451a3.915 3.915 0 0 0-.879-.01c-.308 0-.616-.01-.923-.019.393-.042.793-.073 1.167-.213z"/>
    <path fill="#c3c6c7" d="M3.489 6.541c.172-.046.304.025.343.197.249.086.232.453.041.594-.092.42-.187.867-.015 1.283L4 8.667l.09.189.141.049c.2.493.621.856.824 1.349.245.099.106.481.383.539.028.144.051.29.075.435h.119c.067-.456.238-.896.234-1.362.023-.793.035-1.588-.016-2.38-.029-.139-.014-.345-.172-.406-.172-.039-.351-.027-.526-.048l.018-.3c.032.12.056.303.224.274.174.029.376-.026.531.071.033.449-.067.909.062 1.351.099.305-.017.613-.046.918-.058.602-.002 1.211-.085 1.811-.108.086-.214.174-.321.261-.112-.261-.141-.565-.374-.757l-.024-.109-.134-.045c-.04-.185-.092-.378-.249-.499-.119-.188-.26-.365-.337-.576a.543.543 0 0 1-.21-.273c-.109-.186-.2-.436-.431-.495l-.009-.035-.035-.17c-.167-.14-.262-.393-.124-.586.253-.396.396-1.08-.12-1.333z"/>
    <path fill="#504e4c" d="M1.457 6.858c.132-.102.32-.063.477-.084.307.009.615.019.923.019-.277.021-.556.028-.833.057-.12.007-.239.021-.358.034-.069.292.018.586.133.854.162.373.085.789.146 1.181.033.214.19.39.193.611.013.306.014.618.11.913.062-.117.117-.238.169-.36l.171-.04c.008.082.015.163.021.245-.115.146-.092.34-.106.514l-.298-.113a4.64 4.64 0 0 1-.064-.164l-.004-.037c.079-.399-.166-.729-.239-1.101l-.001-.038c.072-.438-.11-.839-.23-1.246l-.001-.081c.053-.305-.099-.563-.24-.817.003-.116.005-.233.031-.346z"/>
    <path fill="#262630" d="M2.857 6.793c.293-.026.587-.03.879.01.01.15.026.3.019.451-.095.226-.29.386-.413.594-.093.162-.036.354-.014.527l.157.085.059.183.118.069c.371.433.635.94.99 1.384.102.212.209.422.32.63.233.138.164.431.251.648a.86.86 0 0 0 .597.24.435.435 0 0 0 .194-.369c.011-.292.134-.565.135-.858.006-1.117.058-2.241-.015-3.352-.093-.086-.186-.172-.272-.265.23-.027.405.144.528.314.003.19-.022.38.008.569.161-.039.424-.082.417-.297.037-.222-.123-.65.242-.593-.078.157-.156.32-.165.497a31.7 31.7 0 0 0-.058 2.466c.027.577-.064 1.157.016 1.732a.869.869 0 0 0 .702-.046l.04-.18a3.05 3.05 0 0 1 .033-.129c.198-.163.183-.463.4-.611l.037-.115.048-.037a6.425 6.425 0 0 1-.062.393c-.297.075-.14.426-.326.596-.092.102-.213.17-.326.246-.195.288-.571.099-.85.089-.392-.092-.778.192-1.163.044a10.75 10.75 0 0 1-.545-.376c-.023-.157.044-.31.081-.461-.345-.077-.356-.494-.504-.753-.335-.31-.533-.746-.711-1.157l-.146-.08a3.33 3.33 0 0 0-.24-.25c-.096-.206-.324-.448-.156-.675.18-.288.319-.605.536-.868-.058-.067-.091-.182-.192-.19-.492-.054-.989.007-1.482-.045.277-.03.555-.037.833-.057z"/>
    <path fill="#bebfbf" d="M11.865 6.799l.181-.021-.012.217c-.208.053-.178.293-.222.458a7.314 7.314 0 0 1-.014-.444l.011-.075c.018-.045.036-.09.056-.135z"/>
    <path fill="#979698" d="M5.394 7.005c.246-.071.5-.055.74.029-.067 1.002.089 2.016-.071 3.011-.168.441-.13.915-.189 1.375-.136.013-.278.062-.412.016-.097-.259-.256-.498-.301-.776.233.192.262.496.374.757.107-.087.213-.176.321-.261.083-.6.027-1.209.085-1.811.029-.305.145-.614.046-.918-.129-.442-.029-.902-.062-1.351-.156-.096-.357-.041-.531-.071z"/>
    <path fill="#5a5f68" d="M6.135 7.034c.073 1.111.02 2.235.015 3.352-.001.292-.124.566-.135.858a.434.434 0 0 1-.194.369.855.855 0 0 1-.597-.24c-.087-.217-.018-.51-.251-.648a16.923 16.923 0 0 1-.32-.63c-.356-.443-.619-.951-.99-1.384l-.118-.069-.059-.183-.157-.085c-.022-.173-.08-.365.014-.527.123-.208.318-.368.413-.594-.008.143-.017.299-.126.406-.254.286-.163.753.138.97l.009.035.044.164c.111.07.194.172.253.287l.134.043a.537.537 0 0 0 .21.273c.077.212.218.388.337.576.157.121.21.314.249.499l.134.045.024.109c.046.277.204.516.301.776.133.046.276-.003.412-.016.059-.46.021-.933.189-1.375.159-.996.004-2.01.071-3.011z"/>
    <path fill="#8b8b92" d="M9.242 7.006l.168.031c.089.209.296.361.318.597.025.171-.013.343-.049.51l-.163.05-.065.214-.167.067a4.758 4.758 0 0 1-.046.199 4.343 4.343 0 0 1-.099.175l-.13.029.018-.186.141-.047.078-.191c.202-.265.512-.559.413-.921l-.141-.057a2.62 2.62 0 0 0-.277-.468z"/>
    <path fill="#828387" d="M11.566 7.692c-.01-.252.132-.464.232-.683-.001.148.006.296.014.444l.001.016-.248.223z"/>
    <path fill="#91918f" d="M1.426 7.204c.141.254.293.512.24.817-.119-.262-.302-.511-.24-.817z"/>
    <path fill="#c1c3c4" d="M11.566 7.692l.248-.223c.048.175-.053.316-.146.451-.16.244.042.612-.2.809-.138.282-.097.601-.126.903 0 .168-.153.28-.178.44-.028.172-.027.348-.061.519.007-.262-.013-.524-.013-.786l.009-.154c.242-.269.249-.633.232-.974l.002-.034c.225-.253.269-.588.232-.914l.002-.037z"/>
    <path fill="#7e8186" d="M11.332 8.643c-.057-.333.154-.608.232-.914.037.326-.007.661-.232.914z"/>
    <path fill="#808686" d="M6.963 9.534c-.003-.544.054-1.085.102-1.627.046.92.043 1.843-.017 2.763-.014.198-.049.41.051.593.135.063.289.023.405-.061.067-.166.079-.365.229-.486.105-.195.226-.382.338-.574l-.009.232-.037.115c-.218.148-.203.448-.4.611l-.033.129c-.143.102-.297.19-.468.238l-.094-.171c-.256-.105-.154-.411-.162-.626 0-.382.037-.761.095-1.137z"/>
    <path fill="#90908e" d="M1.667 8.102c.12.407.302.808.23 1.246-.182-.392-.295-.81-.23-1.246z"/>
    <path fill="#909498" d="M3.777 8.664c.231.058.322.309.431.495l-.134-.043a.716.716 0 0 0-.253-.287 7.846 7.846 0 0 0-.044-.164z"/>
    <path fill="#545751" d="M9.139 8.847c.034-.058.068-.116.099-.175l.006.22-.158.043c-.16.246-.324.49-.495.729-.192.203-.25.509-.48.674l-.048.037a8.82 8.82 0 0 1 .009-.232l.012-.064.133-.048c.092-.22.252-.402.349-.619l.122-.092c.092-.159.221-.291.322-.443l.13-.029z"/>
    <path fill="#7e7e84" d="M11.098 9.652c-.083-.359.163-.643.232-.974.017.342.01.705-.232.974z"/>
    <path fill="#908d89" d="M1.899 9.386c.074.372.318.702.239 1.101-.175-.343-.296-.709-.239-1.101z"/>
    <path fill="#403f45" d="M2.588 10.043c.12-.342.596-.239.762.014.047.081.099.16.157.233l-.135-.007-.057-.004-.055-.215c-.09-.006-.179-.012-.269-.016l-.075-.002a35.651 35.651 0 0 1-.327-.004z"/>
    <path fill="#c1c2c2" d="M9.979 9.832c.132-.011.265-.024.397-.02.013.063.027.126.043.189a.404.404 0 0 1 .21.301l.006.164.006.328c-.259-.161-.263-.476-.271-.747-.342-.086-.563.19-.799.379-.131.182-.321.321-.394.541-.12.037-.169.141-.195.255-.269.05-.144.381-.349.497-.138.092-.079.302-.213.4-.169.122-.102.371-.255.508-.181.156-.021.502-.312.557a2.611 2.611 0 0 1-.099.588l-.152.049c-.028.263.068.622-.222.766-.056.257-.004.526-.069.782-.386.403-.087 1.012-.276 1.491a1.49 1.49 0 0 0-.147.643c-.016 1.117.002 2.236-.029 3.353.011.141-.115.218-.188.319-.037.194-.045.392-.091.585a6.78 6.78 0 0 1-.247.001c.099-.226.357-.353.277-.642.007-.352.256-.647.23-1.005 0-1.017.009-2.035-.008-3.052l.01-.164c.013-.24.04-.483.15-.701.169-.35-.006-.777.224-1.107.12-.174.102-.391.102-.591.002-.071.005-.142.011-.213l.152-.024c.057-.284.052-.595.254-.824.044-.358.303-.637.342-.995l.143-.092c.035-.18.068-.379.239-.483.088-.425.501-.674.601-1.096l.106-.05.067-.162.161-.076.066-.17.161-.075.077-.165a9.67 9.67 0 0 1 .182-.056l.097-.184z"/>
    <path fill="#7f7f82" d="M10.377 9.812l.209.015c.023.157.038.316.044.475a.407.407 0 0 0-.21-.301c-.016-.063-.029-.126-.043-.189z"/>
    <path fill="#91908d" d="M10.743 10.664c.318-.171.33-.541.346-.859 0 .262.02.524.013.786a4.47 4.47 0 0 1-.013.163c-.149.015-.298.027-.448.039l-.006-.328c.033.067.07.133.107.199z"/>
    <path fill="#9b9898" d="M2.588 10.043l.327.004c-.066.123-.156.232-.306.241a10.115 10.115 0 0 0-.021-.245z"/>
    <path fill="#939194" d="M2.991 10.049c.09.003.179.009.269.016l.055.215-.181-.013c-.046-.074-.092-.148-.144-.218z"/>
    <path fill="#282731" d="M3.351 10.057l.138.021c.094.081.194.156.277.249.237.496.668.869.899 1.373.235.583.554 1.141.657 1.767.178.36.15.778.326 1.139.134.3.09.634.103.952-.001.283.203.519.191.804-.002.291.07.655.373.776.045-.212.116-.416.195-.617.108-.266.04-.562.113-.834.314-.603.351-1.313.668-1.915.103.456-.308.817-.216 1.275-.009.214-.102.407-.2.593-.047.581-.287 1.129-.266 1.717-.037 1.154.028 2.311-.056 3.463-.002.346-.217.631-.311.953a7.263 7.263 0 0 0-.295-.009c-.024-.083-.037-.167-.064-.249a2.98 2.98 0 0 0 .021-.647c-.05-1.06.037-2.12.017-3.179.002-.514.028-1.048-.18-1.532-.071-.464-.025-.948-.2-1.392-.12-.323.005-.741-.279-.992a1.955 1.955 0 0 0-.212-.787c-.114-.53-.437-.98-.617-1.486l-.12-.1c-.129-.196-.276-.385-.355-.61l-.128-.054a2.479 2.479 0 0 0-.323-.45 2.112 2.112 0 0 1-.157-.233z"/>
    <path fill="#817d7b" d="M2.503 10.801c.013-.174-.009-.368.106-.514.019.24 0 .48-.023.719-.183-.001-.322-.121-.443-.244l-.001-.239c.02.055.042.11.064.164l.298.113z"/>
    <path fill="#7a797c" d="M3.372 10.283l.135.007c.121.139.235.286.323.45l.128.054c.079.225.226.414.355.61l.12.1c.18.507.503.956.617 1.486.131.243.191.512.212.787l.023.199c.146.145.139.351.133.541-.231-.26-.217-.615-.274-.934a2.253 2.253 0 0 1-.241-.759c-.121-.18-.224-.371-.233-.594-.189-.095-.2-.315-.234-.498a11.004 11.004 0 0 0-.148-.083c-.039-.175-.106-.349-.267-.447l-.053-.18-.124-.06c-.158-.226-.327-.444-.474-.678z"/>
    <path fill="#7f8185" d="M9.009 10.801a1.42 1.42 0 0 1 .053-.03c-.1.422-.513.67-.601 1.096-.171.104-.203.304-.239.483l-.143.092c-.039.358-.298.637-.342.995-.202.229-.197.54-.254.824l-.152.024c.074-.51.367-.948.493-1.44.202-.474.463-.918.72-1.364.109-.127.187-.276.254-.429.072-.082.138-.168.21-.249z"/>
    <path fill="#5d5b5f" d="M5.262 13.777c.284.251.159.668.279.992.175.444.129.928.2 1.392-.027.375.034.744.124 1.106.038.566.052 1.143-.086 1.698-.069.759-.032 1.524.001 2.285-.008.103.041.19.103.268.026.082.04.166.064.249l-.059.004-.017-.175-.166-.123c-.067-1.751.103-3.502-.032-5.251.036-.586-.242-1.123-.254-1.705.006-.19.012-.396-.133-.541a13.466 13.466 0 0 1-.023-.199z"/>
    <path fill="#919295" d="M5.419 14.517c.012.582.29 1.119.254 1.705.135 1.749-.035 3.5.032 5.251l.166.123.017.175-.196-.007a20.505 20.505 0 0 0-.047-.263c.006-1.649.025-3.298.004-4.948.013-.378-.183-.718-.204-1.09a6.777 6.777 0 0 1-.026-.945z"/>
    <path fill="#7c7c81" d="M7.075 15.049c.035-.202.116-.393.245-.552 0 .2.018.417-.102.591-.23.33-.055.757-.224 1.107-.11.217-.137.461-.15.701.006-.397-.037-.807.104-1.189l-.074-.065c.098-.185.191-.379.2-.593z"/>
    <path fill="#e5e5e5" d="M5.419 16.109c.068.286.126.576.13.871.021 1.107-.007 2.214-.012 3.321-.044.403-.041.816.108 1.199l.047.263-.113-.008c-.087-.225-.197-.446-.169-.695.007-1.65-.001-3.302.009-4.951z"/>
    <path fill="#434347" d="M5.741 16.16c.207.483.182 1.017.18 1.532.02 1.06-.067 2.119-.017 3.179a2.98 2.98 0 0 1-.021.647c-.062-.078-.111-.166-.103-.268-.034-.761-.071-1.526-.001-2.285.138-.555.124-1.132.086-1.698-.09-.362-.15-.731-.124-1.106z"/>
    <path fill="#7f7f85" d="M6.72 19.492c.062-.808-.052-1.634.115-2.432.018 1.017.009 2.035.008 3.052.026.358-.223.653-.23 1.005 0-.543.009-1.089.107-1.625z"/>
</svg>
