<!-- Generated by IcoMoon.io -->
<svg version="1.1" xmlns="http://www.w3.org/2000/svg" width="24" height="24" viewBox="0 0 24 24">
<title>regulatory--no-right-turn--g2</title>
<path fill="#ee1c23" d="M11.388 0h1.136c2.851 0.139 5.652 1.29 7.711 3.278 2.32 2.156 3.689 5.269 3.764 8.431v0.662c-0.097 2.59-1.019 5.152-2.665 7.16-2.119 2.659-5.408 4.301-8.798 4.468h-1.080c-3.046-0.157-6.010-1.483-8.114-3.696-2.044-2.102-3.238-4.978-3.342-7.903v-0.689c0.070-3.164 1.442-6.278 3.766-8.435 2.036-1.972 4.802-3.11 7.622-3.277M10.441 3.242c-2.293 0.388-4.398 1.74-5.725 3.647-1.072 1.512-1.642 3.368-1.613 5.221 0.018 2.035 0.768 4.050 2.078 5.605 0.823-0.833 1.663-1.651 2.479-2.492 0.985-0.96 1.945-1.946 2.924-2.911 0.694-0.696 1.385-1.394 2.086-2.082 0.961-0.98 1.943-1.942 2.909-2.917 0.714-0.708 1.421-1.423 2.136-2.131-1.979-1.678-4.722-2.414-7.274-1.939M17.633 7.472c-0.922 0.922-1.859 1.83-2.758 2.774-1.444 1.405-2.866 2.834-4.276 4.273-0.996 0.949-1.946 1.946-2.93 2.909-0.458 0.468-0.928 0.924-1.385 1.392 1.919 1.613 4.534 2.363 7.014 1.979 2.3-0.325 4.44-1.609 5.824-3.473 1.196-1.583 1.828-3.578 1.77-5.561-0.047-1.991-0.787-3.96-2.074-5.48-0.398 0.392-0.794 0.786-1.186 1.187z"></path>
<path fill="#fff" d="M10.441 3.242c2.552-0.475 5.296 0.262 7.274 1.939-0.715 0.708-1.422 1.423-2.136 2.131-1.352 0.001-2.705-0.006-4.057 0.002-1.036 0.010-2.072 0.433-2.783 1.194-0.685 0.701-1.072 1.673-1.076 2.651-0.006 1.354-0.001 2.708-0.002 4.063-0.816 0.841-1.656 1.66-2.479 2.492-1.31-1.555-2.060-3.57-2.078-5.605-0.029-1.853 0.541-3.709 1.613-5.221 1.327-1.907 3.432-3.259 5.725-3.647z"></path>
<path fill="#fff" d="M17.633 7.472c0.391-0.401 0.787-0.794 1.186-1.187 1.286 1.52 2.027 3.49 2.074 5.48 0.058 1.982-0.574 3.978-1.77 5.561-1.384 1.864-3.523 3.148-5.824 3.473-2.48 0.384-5.095-0.366-7.014-1.979 0.457-0.468 0.926-0.924 1.385-1.392-0.011 0.377-0.011 0.755-0.008 1.133 0.487-0.406 0.977-0.809 1.47-1.207 0.494 0.397 0.982 0.8 1.469 1.207 0-1.348 0-2.694 0-4.042 1.41-1.439 2.832-2.868 4.276-4.273 0.868 0.004 1.735-0.001 2.603 0.004 0.476-0.485 0.946-0.976 1.417-1.464-0.416-0.442-0.839-0.878-1.262-1.314z"></path>
<path fill="#fff" d="M10.885 10.522c0.481-0.454 1.199-0.198 1.786-0.292-0.701 0.688-1.392 1.386-2.086 2.082 0.089-0.59-0.176-1.316 0.3-1.79z"></path>
<path fill="#000" d="M8.74 8.509c0.71-0.761 1.747-1.184 2.783-1.194 1.352-0.008 2.705-0.001 4.057-0.002-0.966 0.976-1.948 1.937-2.909 2.917-0.587 0.094-1.304-0.162-1.786 0.292-0.476 0.474-0.211 1.2-0.3 1.79-0.979 0.965-1.939 1.951-2.924 2.911 0.001-1.355-0.004-2.71 0.002-4.063 0.005-0.978 0.391-1.95 1.076-2.651z"></path>
<path fill="#000" d="M14.875 10.247c0.899-0.944 1.836-1.853 2.758-2.774 0.424 0.436 0.846 0.872 1.262 1.314-0.472 0.488-0.941 0.979-1.417 1.464-0.868-0.005-1.735 0-2.603-0.004z"></path>
<path fill="#000" d="M7.669 17.429c0.984-0.962 1.934-1.96 2.93-2.909 0 1.348 0 2.694 0 4.042-0.487-0.407-0.974-0.81-1.469-1.207-0.493 0.398-0.983 0.802-1.47 1.207-0.002-0.378-0.002-0.756 0.008-1.133z"></path>
</svg>
