<!-- Generated by IcoMoon.io -->
<svg version="1.1" xmlns="http://www.w3.org/2000/svg" width="24" height="24" viewBox="0 0 24 24">
<title>regulatory--circular-intersection--g2</title>
<path fill="#060606" opacity="0.93" d="M1.274 0h21.437c0.383 0.121 0.754 0.33 0.931 0.709-0.386-0.284-0.815-0.57-1.316-0.545-6.884-0.006-13.769-0.006-20.652 0-0.832-0.061-1.571 0.678-1.507 1.511-0.002 6.883-0.002 13.768 0 20.651-0.032 0.493 0.258 0.906 0.528 1.289-0.062-0.013-0.188-0.041-0.251-0.055-0.161-0.272-0.316-0.547-0.444-0.836v-21.44c0.178-0.617 0.658-1.103 1.274-1.283z"></path>
<path fill="#fff" d="M0.167 1.675c-0.064-0.833 0.676-1.572 1.507-1.511 6.883-0.006 13.768-0.006 20.652 0 0.502-0.025 0.93 0.26 1.316 0.545 0.108 0.392 0.202 0.793 0.192 1.204-0.008 6.804 0.002 13.609-0.005 20.412 0.058 0.827-0.677 1.562-1.504 1.505-6.845 0.004-13.69-0.001-20.533 0.002-0.378 0.007-0.739-0.112-1.098-0.217-0.27-0.383-0.56-0.796-0.528-1.289-0.002-6.883-0.002-13.768 0-20.651M1.357 0.53c-0.53 0.088-0.898 0.616-0.857 1.141 0 6.886-0.001 13.771 0.001 20.658-0.058 0.643 0.527 1.225 1.17 1.166 6.886 0 13.771 0 20.658 0 0.642 0.058 1.22-0.527 1.165-1.166-0.001-6.925 0.010-13.849-0.005-20.773 0.016-0.668-0.653-1.138-1.283-1.062-6.949 0.026-13.903-0.046-20.85 0.036z"></path>
<path fill="#fff" d="M1.081 1.668c-0.050-0.342 0.247-0.64 0.589-0.593 6.886-0.005 13.774-0.006 20.659 0 0.341-0.046 0.634 0.253 0.587 0.593 0.002 6.888 0.002 13.776 0 20.664 0.047 0.337-0.248 0.63-0.586 0.58-3.196 0.001-6.392 0-9.588 0 0-3.64 0.001-7.279 0-10.92-0.193 0-0.386 0.001-0.578 0.001 0 3.64 0 7.279-0.001 10.919-3.498 0-6.996 0.001-10.494 0-0.338 0.052-0.638-0.24-0.588-0.581-0.004-6.887-0.002-13.775 0-20.663M5.989 4.567c0.106 0.566 0.782 0.082 1.128 0.031 0.017 1.039-0.036 2.080 0.042 3.116-0.853-0.392-1.793-0.527-2.725-0.522 0.076-0.38 0.461-0.882 0.030-1.17-0.931 0.576-1.818 1.219-2.717 1.843 0.917 0.598 1.784 1.268 2.72 1.837 0.428-0.298 0.038-0.803-0.036-1.189 1.78-0.121 3.593 0.902 4.298 2.56 0.694 1.492 0.376 3.311-0.652 4.571-1.088 1.478-0.989 3.376-0.961 5.114 0.442 0.001 0.883 0.001 1.325 0.001 0.047-1.172-0.16-2.398 0.286-3.518 0.294-0.808 0.941-1.422 1.249-2.224 0.818-1.867 0.481-4.142-0.788-5.728-1.044-1.345-0.685-3.119-0.746-4.693 0.353 0.060 1.027 0.534 1.123-0.035-0.536-0.92-1.201-1.765-1.784-2.658-0.589 0.892-1.252 1.741-1.792 2.663M17.208 1.902c-0.582 0.893-1.244 1.736-1.782 2.656 0.078 0.582 0.772 0.092 1.123 0.041-0.023 0.994-0.016 2.018 0.383 2.948 0.312 0.871 1.039 1.514 1.337 2.393 0.527 1.387 0.236 3.013-0.677 4.172-0.907 1.213-1.133 2.77-1.043 4.248 0.44 0 0.881 0 1.322 0-0.068-1.214 0.052-2.51 0.818-3.508 1.226-1.591 1.522-3.845 0.694-5.682-0.323-0.832-1.027-1.452-1.295-2.309-0.268-0.725-0.217-1.506-0.217-2.264 0.356 0.055 1.016 0.536 1.128-0.034-0.546-0.918-1.202-1.77-1.792-2.662M4.478 11.207c-0.761 0.132-1.352 0.86-1.326 1.631-0.016 0.875 0.772 1.661 1.648 1.633 0.878 0.029 1.664-0.758 1.65-1.633 0.048-1.012-0.988-1.861-1.972-1.631M14.326 19.249c-1.016 0.325-1.015 2.064-0.218 2.633 1.669 0.656 1.856-2.862 0.218-2.633M15.85 19.248c-0.011 0.89-0.002 1.781-0.006 2.671 0.104 0 0.313 0.001 0.418 0.001 0.001-0.595 0-1.19 0.002-1.786 0.484 0.569 0.575 1.642 1.364 1.825 0.038-0.895 0.010-1.792 0.018-2.688-0.104 0-0.313 0-0.418 0-0.001 0.558 0.001 1.117-0.002 1.675-0.476-0.535-0.559-1.643-1.376-1.699M18.091 19.278c0 0.882-0.001 1.764 0.001 2.646 0.518-0.151 1.666 0.371 1.661-0.386-0.415-0.005-0.829-0.004-1.244-0.002-0.001-0.752 0-1.505 0-2.257-0.104 0-0.313 0-0.418 0M19.846 19.267c0.518 0.815 1.169 1.619 0.932 2.654 0.14-0.001 0.281-0.001 0.42-0.002-0.234-1.030 0.406-1.835 0.92-2.647-0.166 0-0.33 0.001-0.494 0.002-0.212 0.341-0.426 0.679-0.642 1.018-0.21-0.334-0.418-0.668-0.616-1.008-0.174-0.006-0.348-0.012-0.521-0.017z"></path>
<path fill="#fff" d="M14.31 19.699c0.907-0.178 0.914 1.459 0.32 1.826-0.85 0.038-0.808-1.396-0.32-1.826z"></path>
<path fill="#000" d="M1.357 0.53c6.947-0.082 13.901-0.010 20.85-0.036 0.63-0.076 1.298 0.394 1.283 1.062 0.014 6.924 0.004 13.848 0.005 20.773 0.055 0.64-0.523 1.224-1.165 1.166-6.887 0-13.772 0-20.658 0-0.643 0.059-1.228-0.523-1.17-1.166-0.002-6.887-0.001-13.772-0.001-20.658-0.041-0.526 0.326-1.054 0.857-1.141M1.081 1.668c-0.002 6.888-0.004 13.776 0 20.663-0.050 0.341 0.25 0.632 0.588 0.581 3.498 0.001 6.996 0 10.494 0 0.001-3.64 0.001-7.279 0.001-10.919 0.192 0 0.385-0.001 0.578-0.001 0.001 3.641 0 7.28 0 10.92 3.196 0 6.392 0.001 9.588 0 0.337 0.050 0.632-0.242 0.586-0.58 0.002-6.888 0.002-13.776 0-20.664 0.047-0.34-0.246-0.638-0.587-0.593-6.886-0.006-13.774-0.005-20.659 0-0.342-0.047-0.64 0.251-0.589 0.593z"></path>
<path fill="#000" d="M5.989 4.567c0.54-0.922 1.202-1.771 1.792-2.663 0.583 0.893 1.248 1.738 1.784 2.658-0.096 0.569-0.77 0.095-1.123 0.035 0.061 1.574-0.298 3.348 0.746 4.693 1.27 1.585 1.607 3.86 0.788 5.728-0.308 0.802-0.955 1.416-1.249 2.224-0.445 1.121-0.239 2.346-0.286 3.518-0.442 0-0.883 0-1.325-0.001-0.028-1.739-0.127-3.636 0.961-5.114 1.027-1.26 1.345-3.079 0.652-4.571-0.706-1.657-2.519-2.681-4.298-2.56 0.074 0.386 0.464 0.892 0.036 1.189-0.936-0.569-1.804-1.24-2.72-1.837 0.899-0.624 1.786-1.267 2.717-1.843 0.431 0.288 0.046 0.79-0.030 1.17 0.932-0.005 1.872 0.13 2.725 0.522-0.078-1.037-0.025-2.077-0.042-3.116-0.346 0.050-1.022 0.535-1.128-0.031z"></path>
<path fill="#000" d="M17.208 1.902c0.589 0.892 1.246 1.744 1.792 2.662-0.112 0.57-0.772 0.089-1.128 0.034 0 0.758-0.050 1.54 0.217 2.264 0.268 0.857 0.972 1.477 1.295 2.309 0.828 1.837 0.533 4.091-0.694 5.682-0.767 0.997-0.887 2.293-0.818 3.508-0.442 0-0.882 0-1.322 0-0.090-1.478 0.136-3.035 1.043-4.248 0.913-1.159 1.204-2.785 0.677-4.172-0.298-0.878-1.025-1.522-1.337-2.393-0.398-0.93-0.406-1.955-0.383-2.948-0.352 0.052-1.045 0.541-1.123-0.041 0.538-0.919 1.2-1.763 1.782-2.656z"></path>
<path fill="#000" d="M4.478 11.207c0.984-0.23 2.020 0.619 1.972 1.631 0.014 0.875-0.772 1.662-1.65 1.633-0.876 0.028-1.663-0.758-1.648-1.633-0.026-0.77 0.565-1.499 1.326-1.631z"></path>
<path fill="#000" d="M14.326 19.249c1.638-0.229 1.451 3.289-0.218 2.633-0.797-0.569-0.798-2.308 0.218-2.633M14.31 19.699c-0.487 0.431-0.529 1.865 0.32 1.826 0.594-0.367 0.587-2.004-0.32-1.826z"></path>
<path fill="#000" d="M15.85 19.248c0.817 0.056 0.9 1.164 1.376 1.699 0.004-0.558 0.001-1.117 0.002-1.675 0.104 0 0.313 0 0.418 0-0.008 0.896 0.020 1.793-0.018 2.688-0.79-0.184-0.881-1.256-1.364-1.825-0.002 0.595-0.001 1.19-0.002 1.786-0.104 0-0.313-0.001-0.418-0.001 0.004-0.89-0.005-1.781 0.006-2.671z"></path>
<path fill="#000" d="M18.091 19.278c0.104 0 0.313 0 0.418 0 0 0.752-0.001 1.505 0 2.257 0.415-0.001 0.829-0.002 1.244 0.002 0.005 0.757-1.142 0.235-1.661 0.386-0.002-0.882-0.001-1.764-0.001-2.646z"></path>
<path fill="#000" d="M19.846 19.267c0.173 0.005 0.347 0.011 0.521 0.017 0.198 0.34 0.406 0.674 0.616 1.008 0.216-0.338 0.43-0.677 0.642-1.018 0.164-0.001 0.329-0.002 0.494-0.002-0.515 0.812-1.154 1.618-0.92 2.647-0.139 0.001-0.28 0.001-0.42 0.002 0.236-1.036-0.414-1.84-0.932-2.654z"></path>
<path fill="#080808" opacity="0.9" d="M23.642 0.709c0.126 0.174 0.247 0.35 0.358 0.535v21.466c-0.18 0.616-0.66 1.098-1.271 1.29h-21.478c-0.197-0.112-0.382-0.241-0.557-0.385 0.359 0.106 0.72 0.224 1.098 0.217 6.844-0.004 13.688 0.001 20.533-0.002 0.827 0.058 1.561-0.678 1.504-1.505 0.007-6.803-0.004-13.608 0.005-20.412 0.010-0.41-0.084-0.811-0.192-1.204z"></path>
</svg>
