<?xml version="1.0" encoding="utf-8"?>
<!-- Generated by IcoMoon.io -->
<!DOCTYPE svg PUBLIC "-//W3C//DTD SVG 1.1//EN" "http://www.w3.org/Graphics/SVG/1.1/DTD/svg11.dtd">
<svg version="1.1" xmlns="http://www.w3.org/2000/svg" xmlns:xlink="http://www.w3.org/1999/xlink" width="24" height="24" viewBox="0 0 24 24">
<path fill="#050505" d="M0.099 0h0.171c0 6.972 0 13.944 0 20.916-0.016 0.953 0.461 1.908 1.267 2.428 0.56 0.385 1.254 0.507 1.924 0.484 5.879-0.017 11.758 0.024 17.636-0.021l0.252 0.193h-18.69c-0.52-0.155-1.053-0.334-1.471-0.695-0.708-0.576-1.108-1.488-1.092-2.399 0.001-6.969-0.007-13.937 0.004-20.906z"></path>
<path fill="#050505" d="M23.73 0h0.174c0.001 6.97 0.002 13.941 0 20.911 0.020 1.118-0.622 2.221-1.619 2.735-0.24 0.115-0.501 0.273-0.776 0.226-0.028-0.019-0.087-0.056-0.115-0.074 1.284-0.267 2.318-1.438 2.332-2.762 0.009-7.012 0.001-14.024 0.004-21.036z"></path>
<path fill="#fff" d="M0.27 0h0.647c0.002 6.967-0.004 13.936 0.004 20.904-0.046 1.185 0.977 2.274 2.169 2.268 5.939 0.007 11.879 0.006 17.817 0 1.188 0.009 2.207-1.084 2.148-2.264 0-6.969 0.002-13.939-0.001-20.907h0.678c-0.002 7.012 0.005 14.024-0.004 21.036-0.014 1.325-1.048 2.495-2.332 2.762-0.074 0.002-0.224 0.006-0.298 0.009-5.879 0.045-11.758 0.004-17.636 0.021-0.669 0.024-1.363-0.099-1.924-0.484-0.805-0.521-1.283-1.476-1.267-2.428 0-6.972 0-13.944 0-20.916z"></path>
<path fill="#fff" d="M1.656 0h20.685c-0.002 6.971 0.004 13.944-0.004 20.915 0.040 0.834-0.714 1.58-1.55 1.517-5.65 0.005-11.301-0.001-16.951 0.004-0.459-0.009-0.949 0.049-1.374-0.158-0.51-0.246-0.818-0.805-0.8-1.365-0.007-6.971 0.004-13.941-0.005-20.912M2.85 1.027c-0.028 1.882-0.005 3.765-0.011 5.646 0.238-0.001 0.476-0.002 0.715-0.005-0.006-0.815-0.002-1.631-0.002-2.446 0.511 0.020 1.104-0.047 1.412-0.512 0.469-0.718 0.397-1.786-0.198-2.412-0.541-0.426-1.28-0.213-1.915-0.271M6.267 1.042c-0.366 1.882-0.771 3.756-1.142 5.638 0.247-0.006 0.494-0.011 0.74-0.020 0.094-0.5 0.204-0.997 0.311-1.496 0.306 0 0.612-0.001 0.919-0.002 0.115 0.502 0.216 1.007 0.325 1.511 0.25 0 0.499 0 0.747 0-0.388-1.882-0.779-3.762-1.17-5.644-0.242 0.002-0.486 0.006-0.73 0.014M8.463 1.032c-0.002 1.878 0.006 3.756-0.004 5.634 0.239 0.004 0.478 0.006 0.716 0.009 0.006-0.878-0.010-1.758 0.010-2.636 0.075-0.002 0.228-0.006 0.303-0.009 0.246 0.873 0.434 1.763 0.657 2.642 0.244 0 0.487 0 0.732 0-0.183-0.918-0.384-1.833-0.557-2.753 0.193-0.262 0.491-0.476 0.527-0.83 0.103-0.648 0.059-1.493-0.558-1.879-0.562-0.292-1.221-0.144-1.827-0.178M11.308 1.033c-0.004 1.877 0.007 3.753-0.005 5.63 0.239 0.005 0.479 0.009 0.718 0.012 0.006-0.661-0.007-1.321 0.002-1.981-0.010-0.249 0.153-0.449 0.285-0.643 0.236 0.875 0.499 1.741 0.732 2.615 0.26 0.011 0.52 0.004 0.778-0.016-0.354-1.222-0.672-2.456-1.006-3.684 0.308-0.646 0.621-1.289 0.923-1.937-0.276 0.001-0.553 0.001-0.829 0.002-0.296 0.588-0.569 1.189-0.881 1.769-0.016-0.593 0.015-1.184-0.021-1.775-0.233 0.002-0.464 0.005-0.696 0.007M14.25 1.031c-0.004 1.88 0 3.761-0.002 5.641 0.239 0 0.476 0 0.714 0-0.002-1.88 0.006-3.762-0.004-5.644-0.236 0.001-0.473 0.002-0.708 0.002M15.734 1.031c-0.001 1.88 0 3.761-0.001 5.641 0.238 0 0.476 0 0.714 0 0.027-1.079-0.057-2.164 0.048-3.239 0.327 1.087 0.705 2.159 1.054 3.239 0.204 0 0.411 0 0.616 0-0.004-1.88 0.002-3.761-0.002-5.64-0.238-0.001-0.474-0.004-0.71-0.006-0.032 0.908 0.024 1.817-0.033 2.725-0.339-0.903-0.642-1.819-0.979-2.722-0.236 0.001-0.471 0.001-0.706 0.001M19.127 1.436c-0.339 0.658-0.362 1.42-0.372 2.146 0.002 0.748-0.021 1.512 0.174 2.24 0.088 0.348 0.26 0.727 0.621 0.86 0.557 0.225 1.393 0.051 1.538-0.614 0.134-0.7 0.052-1.419 0.074-2.127-0.35-0.001-0.699-0.001-1.048 0 0 0.242-0.001 0.486-0.001 0.729 0.084 0.002 0.25 0.006 0.334 0.007-0.010 0.375 0.047 0.763-0.066 1.127-0.069 0.235-0.393 0.312-0.569 0.147-0.23-0.233-0.236-0.583-0.275-0.887-0.069-0.943-0.098-1.9 0.068-2.837 0.040-0.236 0.161-0.52 0.439-0.534 0.242-0.061 0.343 0.183 0.438 0.35 0.224 0.002 0.449 0.004 0.675 0.005-0.038-0.417-0.239-0.871-0.661-1.018-0.473-0.16-1.117-0.077-1.371 0.405M3.902 8.884c-0.27 1.355-0.569 2.706-0.819 4.065 0.168 0.001 0.335 0.004 0.504 0.005 0.089-0.361 0.169-0.724 0.239-1.087 0.22-0.004 0.44-0.007 0.661-0.014 0.084 0.365 0.169 0.73 0.242 1.097 0.178-0.001 0.358-0.002 0.537-0.004-0.28-1.355-0.562-2.708-0.841-4.063-0.174-0.001-0.349-0.001-0.522 0M5.822 8.884c-0.002 1.353 0.002 2.708-0.002 4.061 0.173 0.001 0.346 0.002 0.518 0.004 0.014-0.781-0.027-1.562 0.025-2.343 0.256 0.779 0.512 1.558 0.768 2.337 0.144 0.005 0.286 0.010 0.428 0.015 0.037-1.357 0.007-2.717 0.016-4.075-0.172 0-0.344 0-0.516 0-0.011 0.635 0.030 1.269-0.033 1.901-0.252-0.627-0.449-1.274-0.695-1.904-0.169 0.001-0.339 0.002-0.508 0.004M8.146 8.886c0.265 0.756 0.591 1.492 0.818 2.26 0.027 0.6-0.001 1.2 0.009 1.8 0.173 0.001 0.348 0.002 0.523 0.004 0.014-0.606-0.022-1.212 0.014-1.817 0.23-0.765 0.554-1.498 0.818-2.252-0.187 0.001-0.374 0.004-0.56 0.006-0.176 0.466-0.33 0.941-0.537 1.397-0.178-0.469-0.344-0.944-0.537-1.407-0.183 0.002-0.365 0.005-0.547 0.009M12.961 8.882c0 0.176 0 0.351 0 0.527 0.167 0 0.334 0.001 0.502 0.002 0.006 1.18-0.017 2.36 0.012 3.541 0.166-0.001 0.333-0.002 0.5-0.002 0.010-1.18 0-2.36 0.005-3.541 0.173 0 0.348 0 0.522 0 0-0.176 0-0.351 0-0.526-0.513-0.002-1.028-0.001-1.541-0.001M15.072 8.882c0.009 1.357-0.021 2.714 0.015 4.071 0.166-0.001 0.33-0.002 0.496-0.004 0.010-1.356 0.002-2.712 0.005-4.068-0.173 0-0.344 0-0.516 0M16.482 8.89c0.002 1.355-0.001 2.709 0.001 4.064 0.174-0.007 0.348-0.012 0.522-0.016-0.009-0.778-0.010-1.555-0.002-2.332 0.2 0.459 0.294 0.956 0.508 1.41 0.161-0.459 0.268-0.935 0.468-1.379 0.007 0.771 0 1.541 0.004 2.312 0.127-0.001 0.382-0.002 0.51-0.002-0.002-1.357 0-2.714-0.002-4.073-0.173 0.011-0.346 0.020-0.521 0.025-0.15 0.465-0.287 0.935-0.479 1.386-0.176-0.468-0.318-0.948-0.505-1.412-0.168 0.005-0.336 0.011-0.504 0.017M19.379 8.882c-0.006 1.351 0.011 2.701-0.009 4.052 0.52 0.026 1.040 0.015 1.561 0.009-0.001-0.173-0.002-0.346-0.004-0.52-0.344-0.002-0.688-0.004-1.032-0.004-0.001-0.475-0.001-0.95 0-1.425 0.218 0 0.434-0.001 0.652-0.001 0.002-0.176 0.004-0.351 0.005-0.527-0.219-0.004-0.439-0.007-0.658-0.014 0-0.348 0-0.694 0.001-1.042 0.324 0 0.648-0.001 0.974-0.001 0-0.176 0-0.351 0-0.527-0.497 0-0.993 0-1.491 0M7.106 14.766c-0.909 0.626-1.84 1.225-2.73 1.875 0.986 0.647 1.932 1.353 2.926 1.988 0.071-0.047 0.209-0.141 0.28-0.188-0.099-0.358-0.194-0.716-0.28-1.076 4.112 0 8.226 0.019 12.338-0.010-0.009-0.49-0.005-0.981-0.006-1.471-4.112-0.006-8.226 0.012-12.338-0.010 0.096-0.346 0.188-0.695 0.291-1.040-0.124-0.163-0.324-0.239-0.48-0.068z"></path>
<path fill="#fff" d="M9.178 1.758c0.302 0.030 0.739-0.072 0.899 0.267 0.116 0.329 0.106 0.7 0.024 1.034-0.156 0.36-0.619 0.216-0.923 0.252-0.002-0.518-0.002-1.035 0-1.554z"></path>
<path fill="#fff" d="M3.551 1.76c0.291 0.019 0.69-0.062 0.854 0.254 0.171 0.369 0.172 0.814 0.048 1.196-0.147 0.358-0.595 0.264-0.901 0.283-0.001-0.578 0-1.155-0.001-1.733z"></path>
<path fill="#fff" d="M6.63 3.010c0.147 0.468 0.21 0.955 0.309 1.434-0.203-0.009-0.407-0.015-0.61-0.020 0.113-0.468 0.203-0.941 0.301-1.414z"></path>
<path fill="#fff" d="M4.151 10.331c0.106 0.324 0.168 0.661 0.229 0.995-0.141 0.004-0.283 0.007-0.424 0.012 0.061-0.336 0.121-0.673 0.195-1.007z"></path>
<path fill="#bf2f37" d="M0.917 0h0.74c0.009 6.971-0.002 13.941 0.005 20.912-0.017 0.559 0.291 1.118 0.8 1.365 0.426 0.208 0.915 0.15 1.374 0.158 5.65-0.005 11.301 0.001 16.951-0.004 0.836 0.063 1.59-0.683 1.55-1.517 0.007-6.971 0.001-13.944 0.004-20.915h0.711c0.004 6.969 0.001 13.939 0.001 20.907 0.059 1.18-0.96 2.273-2.148 2.264-5.938 0.006-11.878 0.007-17.817 0-1.191 0.006-2.214-1.082-2.169-2.268-0.007-6.967-0.001-13.936-0.004-20.904z"></path>
<path fill="#bf2f37" d="M2.85 1.027c0.635 0.058 1.374-0.155 1.915 0.271 0.595 0.626 0.667 1.695 0.198 2.412-0.308 0.465-0.901 0.532-1.412 0.512 0 0.815-0.004 1.631 0.002 2.446-0.239 0.002-0.478 0.004-0.715 0.005 0.006-1.882-0.017-3.765 0.011-5.646M3.551 1.76c0.001 0.578 0 1.155 0.001 1.733 0.306-0.020 0.753 0.074 0.901-0.283 0.124-0.382 0.122-0.828-0.048-1.196-0.163-0.315-0.563-0.235-0.854-0.254z"></path>
<path fill="#bf2f37" d="M6.267 1.042c0.244-0.007 0.487-0.011 0.73-0.014 0.391 1.882 0.782 3.762 1.17 5.644-0.249 0-0.497 0-0.747 0-0.109-0.504-0.21-1.008-0.325-1.511-0.307 0.001-0.614 0.002-0.919 0.002-0.106 0.499-0.216 0.996-0.311 1.496-0.246 0.009-0.492 0.014-0.74 0.020 0.371-1.882 0.776-3.756 1.142-5.638M6.63 3.010c-0.098 0.473-0.188 0.946-0.301 1.414 0.203 0.005 0.407 0.011 0.61 0.020-0.099-0.479-0.162-0.966-0.309-1.434z"></path>
<path fill="#bf2f37" d="M8.463 1.032c0.606 0.035 1.266-0.114 1.827 0.178 0.617 0.386 0.661 1.231 0.558 1.879-0.036 0.354-0.334 0.568-0.527 0.83 0.173 0.919 0.374 1.835 0.557 2.753-0.245 0-0.489 0-0.732 0-0.223-0.88-0.411-1.769-0.657-2.642-0.075 0.002-0.228 0.006-0.303 0.009-0.020 0.878-0.004 1.758-0.010 2.636-0.239-0.002-0.478-0.005-0.716-0.009 0.010-1.878 0.001-3.756 0.004-5.634M9.178 1.758c-0.002 0.518-0.002 1.035 0 1.554 0.304-0.036 0.767 0.108 0.923-0.252 0.083-0.334 0.093-0.705-0.024-1.034-0.161-0.339-0.598-0.238-0.899-0.267z"></path>
<path fill="#bf2f37" d="M11.308 1.033c0.233-0.002 0.464-0.005 0.696-0.007 0.036 0.591 0.005 1.183 0.021 1.775 0.312-0.58 0.585-1.181 0.881-1.769 0.276-0.001 0.553-0.001 0.829-0.002-0.302 0.648-0.615 1.292-0.923 1.937 0.334 1.228 0.652 2.462 1.006 3.684-0.259 0.020-0.518 0.027-0.778 0.016-0.234-0.875-0.496-1.741-0.732-2.615-0.131 0.194-0.294 0.395-0.285 0.643-0.010 0.659 0.004 1.32-0.002 1.981-0.239-0.004-0.479-0.007-0.718-0.012 0.012-1.877 0.001-3.753 0.005-5.63z"></path>
<path fill="#bf2f37" d="M14.25 1.031c0.235 0 0.471-0.001 0.708-0.002 0.010 1.882 0.001 3.763 0.004 5.644-0.238 0-0.475 0-0.714 0 0.002-1.88-0.001-3.761 0.002-5.641z"></path>
<path fill="#bf2f37" d="M15.734 1.031c0.235 0 0.47 0 0.706-0.001 0.336 0.903 0.64 1.819 0.979 2.722 0.057-0.908 0.001-1.817 0.033-2.725 0.236 0.002 0.473 0.005 0.71 0.006 0.005 1.879-0.001 3.76 0.002 5.64-0.205 0-0.412 0-0.616 0-0.349-1.080-0.727-2.151-1.054-3.239-0.105 1.075-0.021 2.16-0.048 3.239-0.238 0-0.476 0-0.714 0 0.001-1.88 0-3.761 0.001-5.641z"></path>
<path fill="#bf2f37" d="M19.127 1.436c0.254-0.481 0.898-0.564 1.371-0.405 0.422 0.147 0.622 0.601 0.661 1.018-0.226-0.001-0.452-0.002-0.675-0.005-0.095-0.167-0.195-0.411-0.438-0.35-0.278 0.015-0.4 0.298-0.439 0.534-0.166 0.936-0.137 1.894-0.068 2.837 0.038 0.304 0.045 0.654 0.275 0.887 0.176 0.165 0.5 0.088 0.569-0.147 0.113-0.364 0.056-0.752 0.066-1.127-0.084-0.001-0.25-0.005-0.334-0.007 0-0.242 0.001-0.486 0.001-0.729 0.349-0.001 0.698-0.001 1.048 0-0.022 0.708 0.059 1.426-0.074 2.127-0.145 0.664-0.981 0.839-1.538 0.614-0.361-0.132-0.533-0.512-0.621-0.86-0.195-0.729-0.172-1.492-0.174-2.24 0.010-0.726 0.033-1.488 0.372-2.146z"></path>
<path fill="#bf2f37" d="M3.902 8.884c0.173-0.001 0.348-0.001 0.522 0 0.28 1.355 0.562 2.708 0.841 4.063-0.179 0.001-0.359 0.002-0.537 0.004-0.073-0.367-0.158-0.732-0.242-1.097-0.22 0.006-0.44 0.010-0.661 0.014-0.069 0.364-0.15 0.726-0.239 1.087-0.168-0.001-0.335-0.004-0.504-0.005 0.25-1.36 0.549-2.711 0.819-4.065M4.151 10.331c-0.074 0.334-0.135 0.671-0.195 1.007 0.141-0.005 0.283-0.009 0.424-0.012-0.061-0.334-0.122-0.671-0.229-0.995z"></path>
<path fill="#bf2f37" d="M5.822 8.884c0.169-0.001 0.339-0.002 0.508-0.004 0.246 0.63 0.443 1.277 0.695 1.904 0.063-0.632 0.022-1.267 0.033-1.901 0.172 0 0.344 0 0.516 0-0.009 1.358 0.021 2.718-0.016 4.075-0.142-0.005-0.285-0.010-0.428-0.015-0.256-0.779-0.512-1.558-0.768-2.337-0.052 0.781-0.011 1.562-0.025 2.343-0.172-0.001-0.345-0.002-0.518-0.004 0.005-1.353 0-2.708 0.002-4.061z"></path>
<path fill="#bf2f37" d="M8.146 8.886c0.182-0.004 0.364-0.006 0.547-0.009 0.193 0.463 0.359 0.938 0.537 1.407 0.207-0.455 0.361-0.93 0.537-1.397 0.187-0.002 0.374-0.005 0.56-0.006-0.264 0.753-0.588 1.487-0.818 2.252-0.036 0.605 0 1.211-0.014 1.817-0.176-0.001-0.35-0.002-0.523-0.004-0.010-0.6 0.019-1.2-0.009-1.8-0.226-0.768-0.553-1.504-0.818-2.26z"></path>
<path fill="#bf2f37" d="M12.961 8.882c0.513 0 1.028-0.001 1.541 0.001 0 0.174 0 0.35 0 0.526-0.174 0-0.349 0-0.522 0-0.005 1.18 0.005 2.36-0.005 3.541-0.167 0-0.334 0.001-0.5 0.002-0.030-1.18-0.006-2.36-0.012-3.541-0.168-0.001-0.335-0.002-0.502-0.002 0-0.176 0-0.351 0-0.527z"></path>
<path fill="#bf2f37" d="M15.072 8.882c0.172 0 0.343 0 0.516 0-0.002 1.356 0.005 2.712-0.005 4.068-0.166 0.001-0.33 0.002-0.496 0.004-0.036-1.357-0.006-2.714-0.015-4.071z"></path>
<path fill="#bf2f37" d="M16.482 8.89c0.167-0.006 0.335-0.012 0.504-0.017 0.187 0.464 0.329 0.944 0.505 1.412 0.192-0.45 0.329-0.92 0.479-1.386 0.174-0.005 0.348-0.014 0.521-0.025 0.002 1.358 0 2.715 0.002 4.073-0.127 0-0.382 0.001-0.51 0.002-0.004-0.771 0.004-1.541-0.004-2.312-0.199 0.444-0.307 0.92-0.468 1.379-0.214-0.454-0.308-0.951-0.508-1.41-0.007 0.777-0.006 1.554 0.002 2.332-0.174 0.004-0.348 0.009-0.522 0.016-0.002-1.355 0.001-2.709-0.001-4.064z"></path>
<path fill="#bf2f37" d="M19.379 8.882c0.497 0 0.993 0 1.491 0 0 0.176 0 0.351 0 0.527-0.325 0-0.649 0.001-0.974 0.001-0.001 0.348-0.001 0.694-0.001 1.042 0.219 0.006 0.439 0.010 0.658 0.014-0.001 0.176-0.002 0.351-0.005 0.527-0.218 0-0.434 0.001-0.652 0.001-0.001 0.475-0.001 0.95 0 1.425 0.344 0 0.688 0.001 1.032 0.004 0.001 0.173 0.002 0.346 0.004 0.52-0.521 0.006-1.042 0.017-1.561-0.009 0.020-1.351 0.002-2.701 0.009-4.052z"></path>
<path fill="#bf2f37" d="M7.106 14.766c0.156-0.171 0.356-0.095 0.48 0.068-0.103 0.345-0.194 0.694-0.291 1.040 4.112 0.022 8.226 0.004 12.338 0.010 0.001 0.49-0.002 0.981 0.006 1.471-4.112 0.028-8.226 0.010-12.338 0.010 0.085 0.36 0.181 0.719 0.28 1.076-0.071 0.047-0.209 0.141-0.28 0.188-0.993-0.635-1.94-1.341-2.926-1.988 0.891-0.651 1.821-1.249 2.73-1.875z"></path>
</svg>
