<!-- Generated by IcoMoon.io -->
<svg version="1.1" xmlns="http://www.w3.org/2000/svg" width="23" height="24" viewBox="0 0 23 24">
<title>regulatory--divided-highway-starts--g1</title>
<path fill="#d9251c" d="M5.215 2.041c2.076-1.194 4.42-2.15 6.865-1.928 2.657 0.227 5.366 1.181 7.278 3.101 0.995 0.885 1.705 2.019 2.475 3.091 1.682 3.392 1.91 7.575 0.27 11.027-0.73 1.559-1.917 2.829-3.142 4.012-1.464 1.518-3.533 2.268-5.565 2.656h-3.862c-4.879-0.989-8.918-5.22-9.533-10.182v-3.284c0.386-3.433 2.424-6.518 5.215-8.494M10.059 2.543c-3.629 0.823-6.566 3.799-7.659 7.311-1.572 5.628 3.268 11.839 9.044 11.998 3.807 0.013 7.505-2.406 8.89-5.976 1.473-3.487 0.671-7.826-2.039-10.488-2.096-2.146-5.242-3.357-8.235-2.845z"></path>
<path fill="#fefefe" d="M10.059 2.543c2.993-0.512 6.138 0.699 8.235 2.845 2.71 2.662 3.513 7.001 2.039 10.488-1.384 3.57-5.083 5.989-8.89 5.976-5.776-0.159-10.616-6.37-9.044-11.998 1.094-3.513 4.031-6.488 7.659-7.311M10.097 5.948c0.076 1.287-0.073 2.594 0.126 3.867 0.428 1.246 2.476 1.135 2.712-0.183 0.107-1.23 0.019-2.472 0.040-3.706-0.958 0.008-1.918 0.014-2.877 0.022M15.694 5.96c-0.011 1.85-0.432 3.778-1.655 5.221-0.617 0.833-1.624 1.216-2.36 1.91-0.103 1.241-0.003 2.495-0.041 3.743-0.326-0.195-0.666-0.362-0.992-0.558-0.105 0.060-0.316 0.18-0.423 0.24 0.366 1.206 1.48 2.103 2.276 3.066 0.661-1.078 1.969-1.866 2.208-3.126-0.523-0.148-1.001 0.095-1.43 0.369-0.013-0.965-0.011-1.93 0.003-2.894 2.828-1.558 4.097-4.872 4.018-7.974-0.534 0-1.068-0.002-1.604 0.003M6.86 6.168c-0.666 0.887-1.384 1.734-2.066 2.608-0.199 0.184-0.119 0.461-0.107 0.696 0.501 0.11 0.936-0.153 1.345-0.402 0.019 1.113-0.24 2.217-0.176 3.327 0.215 1.157 1.744 1.341 2.001 2.465 0.375 1.562 0.172 3.177 0.148 4.763 0.547-0.010 1.095-0.022 1.643-0.017 0.157-1.074-0.019-2.162 0.005-3.241-0.032-1.028 0.111-2.266-0.736-3.029-0.435-0.488-1.214-0.828-1.21-1.577-0.025-0.903-0.011-1.807 0.002-2.712 0.339 0.202 0.685 0.388 1.028 0.582 0.097-0.067 0.294-0.203 0.391-0.272-0.391-1.246-1.519-2.135-2.268-3.192z"></path>
<path fill="#0b0b0d" d="M10.097 5.948c0.958-0.008 1.918-0.014 2.877-0.022-0.021 1.235 0.067 2.476-0.040 3.707-0.235 1.318-2.284 1.429-2.712 0.183-0.199-1.273-0.049-2.58-0.126-3.867z"></path>
<path fill="#0b0c0d" d="M15.694 5.96c0.536-0.005 1.070-0.003 1.604-0.003 0.079 3.103-1.19 6.416-4.018 7.974-0.014 0.965-0.016 1.93-0.003 2.894 0.429-0.273 0.908-0.517 1.43-0.369-0.238 1.26-1.547 2.049-2.208 3.126-0.796-0.963-1.91-1.86-2.276-3.066 0.106-0.060 0.318-0.18 0.423-0.24 0.326 0.195 0.666 0.362 0.992 0.558 0.038-1.248-0.062-2.502 0.041-3.743 0.736-0.695 1.744-1.078 2.36-1.91 1.222-1.443 1.643-3.371 1.655-5.221z"></path>
<path fill="#0a0b0d" d="M6.86 6.168c0.749 1.057 1.877 1.945 2.268 3.192-0.097 0.068-0.294 0.205-0.391 0.272-0.343-0.194-0.69-0.38-1.028-0.582-0.013 0.904-0.027 1.809-0.002 2.712-0.005 0.749 0.774 1.089 1.21 1.577 0.847 0.763 0.704 2.001 0.736 3.029-0.024 1.079 0.153 2.166-0.005 3.241-0.548-0.005-1.097 0.008-1.643 0.017 0.024-1.586 0.227-3.201-0.148-4.763-0.257-1.124-1.787-1.308-2.001-2.465-0.064-1.109 0.195-2.214 0.176-3.327-0.408 0.25-0.844 0.512-1.345 0.402-0.013-0.235-0.092-0.512 0.107-0.696 0.682-0.874 1.4-1.721 2.066-2.608z"></path>
</svg>
