<?xml version="1.0" encoding="utf-8"?>
<!-- Generated by IcoMoon.io -->
<!DOCTYPE svg PUBLIC "-//W3C//DTD SVG 1.1//EN" "http://www.w3.org/Graphics/SVG/1.1/DTD/svg11.dtd">
<svg version="1.1" xmlns="http://www.w3.org/2000/svg" xmlns:xlink="http://www.w3.org/1999/xlink" width="24" height="24" viewBox="0 0 24 24">
<path fill="#fff" d="M23.911 1.649v20.689c0 0.872-0.713 1.585-1.585 1.585l-20.689 0c-0.872-0-1.585-0.714-1.585-1.585l0-20.689c-0-0.872 0.713-1.586 1.585-1.585h20.689c0.872 0 1.585 0.713 1.585 1.585z"></path>
<path fill="#000" d="M23.514 1.852l0 20.282c-0.001 0.766-0.626 1.391-1.392 1.392l-20.282-0c-0.766 0-1.392-0.626-1.391-1.391l-0-20.282c0-0.765 0.626-1.391 1.392-1.392l20.282 0c0.765 0 1.391 0.626 1.391 1.391z"></path>
<path fill="#fff" d="M22.851 1.982v20.023c0 0.472-0.386 0.858-0.858 0.858l-20.022-0c-0.472 0-0.858-0.386-0.858-0.858l-0-20.022c0.001-0.472 0.387-0.858 0.858-0.858h20.023c0.472 0 0.858 0.386 0.858 0.858z"></path>
<path fill="#000" d="M17.007 4.824c-1.265-0.892-2.87-1.524-4.442-1.654-2.368-0.211-4.783 0.616-6.582 2.189l-0.811-1.102c-0.098-0.13-0.195-0.227-0.357-0.227-0.243-0.016-0.454 0.179-0.454 0.406l-0.243 5.463 5.156-1.816c0.227-0.064 0.34-0.324 0.259-0.551-0.049-0.162-0.162-0.227-0.34-0.291l-1.28-0.454c1.248-0.973 2.885-1.427 4.458-1.297 1.184 0.113 2.383 0.584 3.308 1.281l1.329-1.945z"></path>
<path fill="#000" d="M3.080 11.033c-0.13 1.54 0.146 3.226 0.827 4.653 1.038 2.173 2.967 3.842 5.237 4.588l-0.535 1.249c-0.065 0.162-0.097 0.291-0.017 0.438 0.113 0.211 0.373 0.292 0.584 0.178l4.816-2.562-4.167-3.534c-0.179-0.146-0.454-0.13-0.616 0.064-0.097 0.13-0.097 0.26-0.065 0.438l0.243 1.345c-1.459-0.6-2.691-1.767-3.372-3.21-0.519-1.070-0.698-2.35-0.584-3.47l-2.351-0.178z"></path>
<path fill="#000" d="M15.45 19.901c1.395-0.648 2.724-1.751 3.615-3.048 1.362-1.978 1.832-4.491 1.329-6.809l1.362-0.163c0.162-0.032 0.291-0.064 0.389-0.211 0.113-0.194 0.049-0.47-0.146-0.6l-4.637-2.885-0.957 5.366c-0.048 0.243 0.113 0.47 0.357 0.502 0.162 0.033 0.276-0.048 0.422-0.162l1.037-0.859c0.211 1.54-0.178 3.194-1.086 4.507-0.664 0.973-1.67 1.783-2.724 2.254l1.038 2.107z"></path>
</svg>
