<!-- Generated by IcoMoon.io -->
<svg version="1.1" xmlns="http://www.w3.org/2000/svg" width="24" height="24" viewBox="0 0 24 24">
<title>regulatory--pedestrians-keep-left--g1</title>
<path fill="#ec1c24" d="M10.841 2.092c3.774-0.532 7.728 1.326 9.764 4.538 1.579 2.4 2.035 5.492 1.228 8.249-0.823 2.909-3.031 5.377-5.821 6.535-2.618 1.109-5.71 1.026-8.261-0.232-2.965-1.42-5.146-4.362-5.598-7.624-0.38-2.527 0.253-5.189 1.742-7.266 1.597-2.285 4.18-3.85 6.946-4.201M9.292 5.341c-2.554 1.054-4.388 3.648-4.484 6.414-0.132 2.148 0.809 4.261 2.341 5.743 0.199 0.184 0.395 0.385 0.656 0.479 2.039 1.625 5.016 1.898 7.363 0.797 1.55-0.704 2.838-1.966 3.574-3.502 1.093-2.195 0.943-4.942-0.364-7.014-1.784-3.022-5.875-4.357-9.086-2.917z"></path>
<path fill="#fff" d="M9.292 5.341c3.211-1.44 7.302-0.104 9.086 2.917 1.307 2.072 1.457 4.819 0.364 7.014-0.736 1.536-2.023 2.797-3.574 3.502-2.347 1.102-5.324 0.828-7.363-0.797 0.329-0.030 0.658-0.173 0.796-0.493 0.742-1.486 1.442-2.994 2.178-4.483 0.554 1.448 1.086 2.906 1.642 4.355 0.142 0.456 0.696 0.776 1.139 0.522 0.396-0.209 0.421-0.725 0.259-1.094-0.619-1.703-1.244-3.403-1.859-5.108-0.121-0.298 0.089-0.587 0.166-0.866 0.232 0.16 0.455 0.332 0.686 0.496 0 0.342-0.031 0.691 0.047 1.027 0.232 0.443 1.115 0.35 1.1-0.206-0.018-0.522 0.182-1.186-0.265-1.579-0.74-0.739-1.454-1.506-2.21-2.23-0.458-0.468-1.084 0.065-1.481 0.362-0.883 0.958-1.727 1.955-2.569 2.95-0.397 0.455 0.259 1.194 0.763 0.888 0.539-0.427 0.96-0.985 1.466-1.45 0.302 0.569-0.146 1.080-0.368 1.582-0.66 1.343-1.315 2.688-1.975 4.030-0.136 0.253-0.146 0.541-0.17 0.821-1.532-1.482-2.473-3.595-2.341-5.743 0.096-2.766 1.931-5.36 4.484-6.414M9.872 6.283c-0.671 0.19-0.886 1.148-0.361 1.607 0.474 0.49 1.398 0.253 1.578-0.406 0.264-0.703-0.515-1.474-1.217-1.201M14.436 11.957c0.737 0.472 1.484 0.924 2.221 1.397 0.005-0.229 0-0.458 0.005-0.688 0.7-0.006 1.399 0.006 2.099-0.010 0-0.463-0.001-0.928-0.002-1.391-0.7-0.004-1.399 0-2.098-0.002 0.004-0.229-0.004-0.458 0-0.686-0.752 0.444-1.489 0.912-2.225 1.38z"></path>
<path fill="#231f20" d="M9.872 6.283c0.702-0.272 1.481 0.498 1.217 1.201-0.18 0.659-1.104 0.895-1.578 0.406-0.524-0.458-0.31-1.417 0.361-1.607z"></path>
<path fill="#231f20" d="M10.002 8.678c0.397-0.298 1.022-0.83 1.481-0.362 0.756 0.724 1.47 1.49 2.21 2.23 0.448 0.394 0.247 1.057 0.265 1.579 0.014 0.557-0.869 0.649-1.1 0.206-0.078-0.336-0.047-0.685-0.047-1.027-0.232-0.163-0.455-0.336-0.686-0.496-0.077 0.28-0.287 0.569-0.166 0.866 0.614 1.705 1.24 3.406 1.859 5.108 0.162 0.37 0.137 0.886-0.259 1.094-0.443 0.254-0.997-0.066-1.139-0.522-0.556-1.448-1.087-2.906-1.642-4.355-0.736 1.489-1.436 2.998-2.178 4.483-0.138 0.32-0.467 0.463-0.796 0.493-0.262-0.094-0.457-0.295-0.656-0.479 0.024-0.28 0.035-0.568 0.17-0.821 0.66-1.342 1.315-2.687 1.975-4.030 0.222-0.502 0.671-1.013 0.368-1.582-0.506 0.464-0.928 1.022-1.466 1.45-0.504 0.306-1.16-0.433-0.763-0.888 0.842-0.995 1.686-1.992 2.569-2.95z"></path>
<path fill="#231f20" d="M14.436 11.957c0.736-0.468 1.472-0.936 2.225-1.38-0.004 0.228 0.004 0.457 0 0.686 0.698 0.002 1.398-0.001 2.098 0.002 0.001 0.463 0.002 0.928 0.002 1.391-0.7 0.016-1.399 0.004-2.099 0.010-0.005 0.229 0 0.458-0.005 0.688-0.737-0.473-1.484-0.925-2.221-1.397z"></path>
</svg>
