<?xml version="1.0" encoding="utf-8"?>
<!-- Generated by IcoMoon.io -->
<!DOCTYPE svg PUBLIC "-//W3C//DTD SVG 1.1//EN" "http://www.w3.org/Graphics/SVG/1.1/DTD/svg11.dtd">
<svg version="1.1" xmlns="http://www.w3.org/2000/svg" xmlns:xlink="http://www.w3.org/1999/xlink" width="24" height="24" viewBox="0 0 24 24">
<path fill="#ea2d2e" d="M5.646 1.818c2.711-1.72 6.139-2.244 9.248-1.462 2.358 0.564 4.513 1.9 6.113 3.716 1.873 2.111 2.945 4.902 2.993 7.723v0.41c-0.052 2.676-1.013 5.328-2.723 7.39-1.656 2.040-4.010 3.494-6.568 4.093-2.478 0.57-5.142 0.347-7.472-0.682-2.442-1.049-4.51-2.938-5.776-5.274-0.866-1.561-1.33-3.322-1.462-5.096v-1.072c0.125-3.918 2.3-7.698 5.646-9.748M6.058 4.445c1.499 1.44 2.94 2.94 4.426 4.393 1.351 1.366 2.712 2.723 4.074 4.076 1.513 1.529 3.043 3.040 4.558 4.567 0.122 0.116 0.248 0.229 0.382 0.335-0.070 0.136-0.137 0.271-0.203 0.409 0.203-0.032 0.254-0.248 0.323-0.408 1.747-2.216 2.376-5.243 1.734-7.984-0.496-2.186-1.794-4.174-3.59-5.514-1.673-1.267-3.775-1.951-5.874-1.915-2.1 0.006-4.174 0.754-5.828 2.040M4.379 6.138c-1.418 1.868-2.143 4.252-1.95 6.594 0.185 2.608 1.504 5.107 3.547 6.736 1.718 1.396 3.932 2.168 6.148 2.126 2.060-0.011 4.090-0.742 5.728-1.982-1.936-1.938-3.87-3.878-5.81-5.813-0.15-0.154-0.301-0.306-0.451-0.457l-0.122-0.002 0.032-0.058c-0.034-0.136-0.204-0.36-0.358-0.276l-0.008-0.118c-1.349-1.346-2.694-2.694-4.042-4.042-0.905-0.902-1.805-1.81-2.713-2.708z"></path>
<path fill="#fff" d="M6.058 4.445c1.655-1.286 3.728-2.034 5.828-2.040 2.099-0.036 4.201 0.648 5.874 1.915 1.796 1.34 3.095 3.328 3.59 5.514 0.642 2.741 0.013 5.767-1.734 7.984-0.068 0.16-0.12 0.376-0.323 0.408 0.066-0.138 0.133-0.274 0.203-0.409-0.133-0.106-0.259-0.218-0.382-0.335-1.514-1.528-3.044-3.038-4.558-4.567 0.114-0.001 0.341-0.002 0.454-0.004 0-1.357 0.001-2.713 0-4.070-1.51-0.002-3.018 0.002-4.528-0.002-1.486-1.453-2.927-2.953-4.426-4.393M12.522 3.653c-0.031 0.048-0.095 0.144-0.127 0.192 0.118 0.283 0.451 0.149 0.685 0.184v0.204c-0.424 0.012-0.851-0.031-1.272 0.023-0.21 0.162-0.385 0.362-0.572 0.547-0.587-0.409-1.46-0.385-1.956 0.158-0.6 0.586-0.527 1.674 0.149 2.17 0.638 0.541 1.705 0.354 2.137-0.359 0.347-0.512 0.276-1.195-0.052-1.698 0.154-0.146 0.305-0.295 0.457-0.443 0.425 0.004 0.851-0.013 1.273 0.026-0.314 0.352-0.677 0.724-0.679 1.231-0.090 0.916 0.835 1.735 1.733 1.532 0.889-0.137 1.46-1.194 1.078-2.012-0.276-0.713-1.123-1.048-1.837-0.828-0.085-0.283-0.055-0.582-0.094-0.872-0.28-0.145-0.62-0.071-0.923-0.055M15.394 9.718c-0.005 1.064 0.001 2.13-0.001 3.194 0.362 0 0.725 0.002 1.086-0.005 0.308-0.479 1.021-0.476 1.332 0 0.516 0.010 1.032 0.004 1.549 0.005-0.070-0.383 0.19-0.977-0.238-1.199-0.737-0.054-1.48 0.014-2.219-0.029-0.296-0.056-0.269-0.415-0.269-0.646 0.001-0.232-0.031-0.589 0.274-0.64 0.731-0.040 1.463 0 2.195-0.018-0.173-0.551-0.642-1.021-1.235-1.074-0.71-0.037-1.424-0.022-2.136-0.011-0.226-0.012-0.367 0.215-0.338 0.421M15.37 13.331c-0.014 0.356 0.277 0.53 0.605 0.482 0.242 0.42 0.678 0.758 1.184 0.727 0.488 0.011 0.914-0.314 1.135-0.733 0.282-0.012 0.566 0.013 0.846-0.029 0.203-0.056 0.196-0.286 0.239-0.45-0.488-0.001-0.977 0.001-1.465-0.002-0.076 0.311-0.274 0.624-0.613 0.682-0.448 0.116-0.857-0.25-0.924-0.679-0.336-0.001-0.671-0.001-1.007 0.002z"></path>
<path fill="#fff" d="M9.761 5.075c0.354-0.25 0.815-0.179 1.188-0.012-0.254 0.33-0.63 0.564-0.826 0.935 0.061 0.276 0.335 0.188 0.455 0.020 0.223-0.218 0.437-0.446 0.668-0.655 0.196 0.398 0.239 0.906-0.062 1.266-0.374 0.544-1.265 0.569-1.666 0.043-0.427-0.462-0.3-1.28 0.242-1.597z"></path>
<path fill="#fff" d="M13.738 4.922c0.292-0.016 0.611-0.031 0.859 0.151 0.461 0.274 0.643 0.917 0.388 1.39-0.22 0.454-0.779 0.704-1.262 0.547-0.527-0.146-0.878-0.74-0.738-1.273 0.048-0.252 0.23-0.442 0.384-0.635 0.251 0.336 0.294 0.882 0.67 1.084 0.049-0.047 0.146-0.14 0.196-0.187-0.134-0.372-0.338-0.714-0.496-1.076z"></path>
<path fill="#fff" d="M4.379 6.138c0.908 0.899 1.808 1.806 2.713 2.708-0.524 0.002-1.051-0.034-1.574 0.012-0.257 0.010-0.346 0.286-0.326 0.502-0.002 1.096-0.004 2.191 0.002 3.287-0.068 0.026-0.206 0.078-0.275 0.104-0.013 0.355-0.010 0.712 0.012 1.067 0.534 0.023 1.067 0.011 1.601 0.016 0.271 0.433 0.743 0.769 1.274 0.706 0.422-0.014 0.754-0.304 1.003-0.618 0.283 0.41 0.772 0.69 1.28 0.61 0.443-0.042 0.775-0.372 1.003-0.728 0.316-0.002 0.632-0.004 0.948-0.004 1.94 1.934 3.875 3.875 5.81 5.813-1.638 1.241-3.667 1.972-5.728 1.982-2.215 0.042-4.429-0.731-6.148-2.126-2.044-1.628-3.362-4.128-3.547-6.736-0.193-2.342 0.532-4.726 1.95-6.594M12.12 16.067c0.272 0.026 0.548 0.012 0.823 0.013 0.030 0.055 0.090 0.167 0.12 0.222-0.472 0.018-0.947-0.034-1.414 0.030-0.198 0.143-0.356 0.33-0.527 0.504-0.851 0.022-1.704-0.022-2.555 0.019-0.264 0.034-0.161 0.372-0.182 0.551-0.030 0.263 0.030 0.53 0.283 0.661-0.262 0.631-0.080 1.432 0.502 1.82 0.635 0.494 1.639 0.325 2.090-0.337 0.221-0.264 0.188-0.658 0.445-0.895 0.408-0.436 0.815-0.871 1.222-1.307-0.209 0.002-0.42-0.008-0.628 0.014-0.191 0.095-0.467 0.563-0.598 0.164 0.132-0.168 0.286-0.317 0.436-0.467 0.341-0.005 0.683-0.005 1.025-0.007 0.066-0.068 0.133-0.137 0.202-0.204 0.073 0.144 0.146 0.288 0.221 0.432-0.502 0.344-0.823 0.959-0.713 1.573 0.102 0.824 0.952 1.458 1.771 1.32 0.845-0.108 1.5-0.983 1.32-1.825-0.133-0.876-1.075-1.468-1.93-1.262-0.266-0.469-0.488-0.965-0.782-1.417-0.349-0.138-0.758-0.062-1.129-0.052-0.235 0.026-0.234 0.407-0.002 0.449z"></path>
<path fill="#fff" d="M7.34 12.626c0.522-0.324 1.248 0.222 1.082 0.812-0.085 0.516-0.767 0.768-1.171 0.442-0.433-0.293-0.385-1.027 0.089-1.254z"></path>
<path fill="#fff" d="M9.523 12.65c0.43-0.302 1.091 0.016 1.136 0.533 0.104 0.57-0.576 1.051-1.079 0.762-0.503-0.23-0.541-1.021-0.058-1.295z"></path>
<path fill="#fff" d="M11.142 13.006c0.154-0.084 0.324 0.14 0.358 0.276l-0.032 0.058c-0.070-0.012-0.209-0.034-0.28-0.044-0.011-0.072-0.034-0.216-0.046-0.289z"></path>
<path fill="#fff" d="M14.281 17.516c0.614-0.030 1.236 0.439 1.228 1.084 0.050 0.793-0.908 1.396-1.596 0.983-0.695-0.324-0.782-1.441-0.11-1.83 0.206 0.158 0.259 0.68 0.62 0.481 0.211-0.234-0.068-0.488-0.142-0.718z"></path>
<path fill="#fff" d="M9.248 18.043c0.535 0.011 1.070-0.002 1.606 0.012 0.048 0.094 0.097 0.186 0.148 0.28-0.388 0.007-0.775-0.020-1.16 0.020-0.193 0.086-0.19 0.355-0.005 0.449 0.41 0.030 0.822 0.004 1.234 0.014-0.091 0.29-0.233 0.592-0.517 0.737-0.487 0.314-1.21 0.080-1.429-0.452-0.174-0.344-0.088-0.754 0.125-1.060z"></path>
<path fill="#000" d="M12.522 3.653c0.302-0.016 0.643-0.090 0.923 0.055 0.038 0.29 0.008 0.589 0.094 0.872 0.714-0.22 1.561 0.115 1.837 0.828 0.383 0.818-0.188 1.876-1.078 2.012-0.898 0.203-1.823-0.617-1.733-1.532 0.002-0.508 0.365-0.88 0.679-1.231-0.422-0.040-0.848-0.023-1.273-0.026-0.152 0.148-0.304 0.296-0.457 0.443 0.328 0.503 0.398 1.186 0.052 1.698-0.432 0.713-1.499 0.9-2.137 0.359-0.676-0.496-0.749-1.584-0.149-2.17 0.496-0.544 1.369-0.568 1.956-0.158 0.187-0.185 0.362-0.385 0.572-0.547 0.421-0.054 0.848-0.011 1.272-0.023v-0.204c-0.234-0.035-0.568 0.1-0.685-0.184 0.032-0.048 0.096-0.144 0.127-0.192M9.761 5.075c-0.542 0.317-0.67 1.135-0.242 1.597 0.401 0.526 1.291 0.5 1.666-0.043 0.301-0.36 0.258-0.868 0.062-1.266-0.232 0.209-0.445 0.437-0.668 0.655-0.12 0.168-0.394 0.256-0.455-0.020 0.196-0.371 0.571-0.605 0.826-0.935-0.373-0.167-0.834-0.238-1.188 0.012M13.738 4.922c0.157 0.362 0.361 0.704 0.496 1.076-0.049 0.047-0.146 0.14-0.196 0.187-0.376-0.202-0.419-0.748-0.67-1.084-0.154 0.193-0.336 0.383-0.384 0.635-0.14 0.533 0.211 1.127 0.738 1.273 0.484 0.157 1.043-0.094 1.262-0.547 0.256-0.473 0.073-1.116-0.388-1.39-0.248-0.182-0.568-0.167-0.859-0.151z"></path>
<path fill="#000" d="M5.191 9.36c-0.019-0.216 0.070-0.492 0.326-0.502 0.523-0.046 1.050-0.010 1.574-0.012 1.348 1.348 2.693 2.695 4.042 4.042l0.008 0.118c0.012 0.073 0.035 0.217 0.046 0.289 0.071 0.011 0.21 0.032 0.28 0.044l0.122 0.002c0.15 0.151 0.301 0.304 0.451 0.457-0.316 0-0.632 0.001-0.948 0.004-0.228 0.356-0.56 0.686-1.003 0.728-0.509 0.080-0.997-0.199-1.28-0.61-0.25 0.314-0.581 0.604-1.003 0.618-0.532 0.064-1.003-0.272-1.274-0.706-0.534-0.005-1.067 0.007-1.601-0.016-0.022-0.355-0.025-0.712-0.012-1.067 0.068-0.026 0.206-0.078 0.275-0.104-0.006-1.096-0.005-2.191-0.002-3.287M7.34 12.626c-0.474 0.227-0.522 0.961-0.089 1.254 0.404 0.326 1.086 0.074 1.171-0.442 0.166-0.59-0.56-1.136-1.082-0.812M9.523 12.65c-0.484 0.274-0.445 1.064 0.058 1.295 0.503 0.289 1.183-0.192 1.079-0.762-0.046-0.517-0.707-0.835-1.136-0.533z"></path>
<path fill="#000" d="M10.483 8.838c1.51 0.005 3.018 0 4.528 0.002 0.001 1.357 0 2.713 0 4.070-0.113 0.001-0.34 0.002-0.454 0.004-1.362-1.354-2.723-2.711-4.074-4.076z"></path>
<path fill="#000" d="M15.394 9.718c-0.029-0.206 0.113-0.433 0.338-0.421 0.712-0.011 1.426-0.026 2.136 0.011 0.593 0.053 1.062 0.523 1.235 1.074-0.732 0.018-1.464-0.022-2.195 0.018-0.305 0.050-0.272 0.408-0.274 0.64 0 0.23-0.028 0.589 0.269 0.646 0.739 0.043 1.482-0.025 2.219 0.029 0.427 0.222 0.168 0.816 0.238 1.199-0.517-0.001-1.033 0.005-1.549-0.005-0.311-0.476-1.024-0.479-1.332 0-0.361 0.007-0.724 0.005-1.086 0.005 0.002-1.064-0.004-2.13 0.001-3.194z"></path>
<path fill="#000" d="M15.37 13.331c0.336-0.004 0.671-0.004 1.007-0.002 0.067 0.43 0.476 0.796 0.924 0.679 0.34-0.058 0.538-0.371 0.613-0.682 0.488 0.004 0.977 0.001 1.465 0.002-0.043 0.164-0.036 0.394-0.239 0.45-0.28 0.042-0.564 0.017-0.846 0.029-0.221 0.419-0.647 0.744-1.135 0.733-0.506 0.031-0.942-0.307-1.184-0.727-0.328 0.048-0.619-0.126-0.605-0.482z"></path>
<path fill="#000" d="M12.12 16.067c-0.232-0.042-0.233-0.422 0.002-0.449 0.371-0.011 0.78-0.086 1.129 0.052 0.294 0.452 0.516 0.948 0.782 1.417 0.854-0.205 1.796 0.386 1.93 1.262 0.18 0.842-0.475 1.717-1.32 1.825-0.82 0.138-1.669-0.496-1.771-1.32-0.11-0.614 0.211-1.229 0.713-1.573-0.074-0.144-0.148-0.288-0.221-0.432-0.068 0.067-0.136 0.136-0.202 0.204-0.342 0.002-0.684 0.002-1.025 0.007-0.15 0.15-0.304 0.299-0.436 0.467 0.131 0.398 0.407-0.070 0.598-0.164 0.208-0.023 0.419-0.012 0.628-0.014-0.407 0.436-0.814 0.871-1.222 1.307-0.257 0.238-0.224 0.631-0.445 0.895-0.451 0.662-1.456 0.832-2.090 0.337-0.582-0.389-0.763-1.189-0.502-1.82-0.253-0.131-0.313-0.398-0.283-0.661 0.022-0.179-0.082-0.517 0.182-0.551 0.851-0.041 1.704 0.002 2.555-0.019 0.17-0.174 0.329-0.361 0.527-0.504 0.467-0.064 0.942-0.012 1.414-0.030-0.030-0.055-0.090-0.167-0.12-0.222-0.275-0.001-0.551 0.013-0.823-0.013M14.281 17.516c0.073 0.229 0.353 0.484 0.142 0.718-0.361 0.199-0.414-0.323-0.62-0.481-0.672 0.389-0.584 1.506 0.11 1.83 0.688 0.413 1.646-0.19 1.596-0.983 0.008-0.644-0.613-1.114-1.228-1.084M9.248 18.043c-0.212 0.306-0.299 0.715-0.125 1.060 0.22 0.533 0.942 0.767 1.429 0.452 0.284-0.145 0.426-0.446 0.517-0.737-0.412-0.011-0.823 0.016-1.234-0.014-0.185-0.094-0.188-0.362 0.005-0.449 0.385-0.041 0.773-0.013 1.16-0.020-0.050-0.094-0.1-0.186-0.148-0.28-0.535-0.014-1.070-0.001-1.606-0.012z"></path>
</svg>
