<!-- Generated by IcoMoon.io -->
<svg version="1.1" xmlns="http://www.w3.org/2000/svg" width="24" height="24" viewBox="0 0 24 24">
<title>regulatory--dual-lanes-turn-left-no-u-turn--g1</title>
<path fill="#202020" opacity="0.29" d="M3.642 0.276c1.884-0.052 3.769-0.038 5.654-0.041 4.032-0.007 8.063 0.011 12.095 0.017 0.461 0.043 0.939-0.073 1.388 0.034-6.379-0.008-12.758 0-19.137-0.010z"></path>
<path fill="#1a1919" d="M0.098 1.516c0.159-0.573 0.624-1.116 1.23-1.225 0.771-0.019 1.543-0.005 2.315-0.016 6.379 0.010 12.758 0.002 19.137 0.010 0.496 0.21 0.876 0.625 1.078 1.12v21.174c0.010 0.66-0.522 1.159-1.079 1.421h-21.609c-0.615-0.274-1.157-0.908-1.076-1.613 0.002-6.957-0-13.915 0.003-20.871M1.436 0.443c-0.641 0.068-1.163 0.674-1.182 1.31 0.002 6.942-0.001 13.885 0.001 20.828 0.044 0.706 0.692 1.316 1.407 1.29 6.876 0.004 13.753 0.003 20.629 0 0.718 0.030 1.375-0.581 1.417-1.292 0.002-6.942-0-13.884 0.001-20.826-0.016-0.575-0.442-1.113-0.991-1.277-0.264-0.061-0.536-0.063-0.806-0.058-6.593 0-13.186 0-19.779 0-0.233 0.001-0.467-0.010-0.698 0.025z"></path>
<path fill="#1a1919" d="M1.54 0.741c6.49-0.026 12.981-0.001 19.471-0.012 0.543-0.006 1.1-0.091 1.63 0.063 0.369 0.089 0.617 0.434 0.728 0.778 0.074 0.469 0.030 0.946 0.028 1.419 0.001 6.529-0.001 13.059 0.001 19.588-0.053 0.605-0.665 1.012-1.245 0.981-6.609 0.009-13.219 0.001-19.829 0.004-0.447-0.012-0.933 0.025-1.329-0.224-0.298-0.195-0.429-0.56-0.432-0.904 0.005-6.26 0.001-12.52 0.002-18.781-0.033-0.654-0.056-1.312 0.027-1.963 0.079-0.47 0.427-0.952 0.947-0.949M1.156 1.94c-0.001 4.902 0.002 9.804-0.002 14.705-0.115-0.001-0.23 0.002-0.344 0.006-0.008 0.156-0.008 0.311 0 0.467 0.115 0.004 0.229 0.007 0.344 0.006 0.007 1.754-0.005 3.509 0.006 5.264-0.004 0.306 0.212 0.62 0.549 0.581 6.75 0.002 13.501 0.001 20.251 0.001 0.318 0.003 0.751-0.022 0.848-0.394-0.001-1.818-0.001-3.636 0-5.453 0.178 0.003 0.356 0.001 0.534-0.007 0.012-0.155 0.012-0.31 0-0.464-0.178-0.008-0.356-0.010-0.534-0.007 0-4.6-0.004-9.2 0.002-13.8-0.013-0.444 0.161-0.947-0.127-1.339-0.108-0.183-0.346-0.188-0.533-0.188-6.831 0.002-13.661-0.002-20.491 0.002-0.341-0.024-0.525 0.317-0.503 0.618z"></path>
<path fill="#1a1919" d="M15.759 2.609c0.309-0.157 0.763 0.199 0.617 0.536-0.257 0.487-0.619 0.912-0.873 1.399 0.746 0.291 1.542 0.48 2.22 0.925 1.916 1.21 3.351 3.312 3.463 5.61 0.031 0.114 0.048 0.232 0.045 0.351 0.008 1.234 0.004 2.467 0.003 3.7-0.793-0.003-1.587 0.006-2.38-0.005 0.004-1.216 0.002-2.432 0.001-3.648-0.086-2.227-1.881-4.247-4.086-4.592-0.037 0.549 0.048 1.109-0.051 1.652-0.054 0.309-0.414 0.248-0.645 0.251-1.076-1.284-2.102-2.612-3.144-3.924-0.15-0.206-0.329-0.393-0.456-0.614 1.764-0.536 3.51-1.14 5.285-1.641z"></path>
<path fill="#1a1919" d="M2.6 8.841c1.613-0.354 3.229-0.694 4.852-0.997 0.215-0.049 0.55 0.023 0.588 0.268-0.244 0.333-0.594 0.572-0.843 0.9 0.335 0.083 0.674 0.155 1.010 0.231 0.819 0.177 1.59 0.535 2.293 0.985 0.776 0.538 1.513 1.236 1.803 2.16 0.258 0.975 0.101 1.994 0.143 2.991-0.725 0-1.45 0.001-2.175-0.001-0.002-0.699-0.001-1.397 0-2.096 0.005-0.401-0.135-0.8-0.378-1.118-0.751-1.096-2.097-1.588-3.368-1.748-0.014 0.313 0.012 0.628-0.015 0.94-0.098 0.277-0.458 0.229-0.679 0.173-1.081-0.89-2.182-1.76-3.232-2.686z"></path>
<path fill="#fffffe" d="M1.436 0.443c0.231-0.035 0.465-0.024 0.698-0.025 6.593 0 13.186 0 19.779 0 0.269-0.005 0.542-0.002 0.806 0.058 0.549 0.164 0.975 0.702 0.991 1.277-0.002 6.942 0.001 13.884-0.001 20.826-0.043 0.711-0.699 1.322-1.417 1.292-6.877 0.003-13.753 0.004-20.629-0-0.715 0.026-1.363-0.584-1.407-1.29-0.002-6.942 0-13.885-0.001-20.828 0.019-0.636 0.542-1.242 1.182-1.31M1.54 0.741c-0.52-0.004-0.868 0.479-0.947 0.949-0.083 0.651-0.060 1.309-0.027 1.963-0.001 6.26 0.003 12.521-0.002 18.781 0.002 0.344 0.134 0.709 0.432 0.904 0.396 0.249 0.882 0.212 1.329 0.224 6.61-0.002 13.22 0.006 19.829-0.004 0.58 0.031 1.192-0.376 1.245-0.981-0.002-6.529 0-13.059-0.001-19.588 0.002-0.472 0.046-0.95-0.028-1.419-0.111-0.344-0.359-0.689-0.728-0.778-0.53-0.154-1.088-0.069-1.63-0.063-6.49 0.011-12.981-0.014-19.471 0.012z"></path>
<path fill="#fff" d="M1.156 1.94c-0.022-0.301 0.162-0.642 0.503-0.618 6.83-0.005 13.66-0 20.491-0.002 0.187 0 0.425 0.005 0.533 0.188 0.288 0.392 0.114 0.895 0.127 1.339-0.006 4.6-0.002 9.2-0.002 13.8-7.218 0.002-14.436 0.004-21.654-0.001 0.004-4.902 0-9.803 0.002-14.705M15.759 2.609c-1.775 0.5-3.521 1.104-5.285 1.641 0.127 0.222 0.306 0.408 0.456 0.614 1.042 1.312 2.068 2.64 3.144 3.924 0.231-0.003 0.591 0.058 0.645-0.251 0.1-0.543 0.015-1.103 0.051-1.652 2.206 0.345 4 2.365 4.086 4.592 0.001 1.216 0.003 2.432-0.001 3.648 0.793 0.011 1.587 0.001 2.38 0.005 0-1.233 0.004-2.466-0.003-3.7 0.003-0.119-0.014-0.237-0.045-0.351-0.112-2.298-1.547-4.399-3.463-5.61-0.678-0.445-1.474-0.634-2.22-0.925 0.254-0.487 0.617-0.912 0.873-1.399 0.146-0.337-0.308-0.693-0.617-0.536M8.063 7.115c0 0.063 0 0.127 0 0.19 0.024 0 0.071 0 0.095 0 0-0.063 0-0.127 0-0.19-0.024 0-0.071 0-0.095 0M2.6 8.841c1.051 0.926 2.151 1.796 3.232 2.686 0.222 0.056 0.582 0.105 0.679-0.173 0.027-0.312 0.001-0.627 0.015-0.94 1.27 0.16 2.616 0.652 3.368 1.748 0.242 0.319 0.383 0.717 0.378 1.118-0.001 0.699-0.002 1.398 0 2.096 0.725 0.002 1.45 0.001 2.175 0.001-0.042-0.996 0.115-2.015-0.143-2.991-0.291-0.924-1.027-1.622-1.803-2.16-0.703-0.45-1.474-0.808-2.293-0.985-0.337-0.076-0.675-0.148-1.010-0.231 0.249-0.329 0.599-0.567 0.843-0.9-0.038-0.245-0.373-0.318-0.588-0.268-1.623 0.303-3.239 0.644-4.852 0.997z"></path>
<path fill="#fff" d="M1.154 17.125c7.218-0.005 14.436-0.003 21.654-0.001-0.001 1.818-0.001 3.636 0 5.453-0.097 0.372-0.53 0.397-0.848 0.394-6.75 0-13.501 0.001-20.251-0.001-0.337 0.039-0.553-0.274-0.549-0.581-0.010-1.755 0.001-3.51-0.006-5.264M9.072 18.491c-0.038 0.586-0.010 1.173-0.017 1.76-0.010 0.332 0.091 0.712 0.403 0.881 0.404 0.202 0.897 0.223 1.324 0.081 0.361-0.12 0.583-0.491 0.589-0.861 0.018-0.62 0.003-1.24 0.008-1.861-0.216 0.057-0.618-0.129-0.705 0.112-0.024 0.006-0.071 0.019-0.095 0.025-0.011 0.631 0.026 1.265-0.020 1.894-0.010 0.28-0.353 0.29-0.552 0.213-0.206-0.088-0.24-0.336-0.243-0.534-0.007-0.57-0-1.141-0.003-1.711-0.23-0.001-0.459-0.001-0.688-0M4.996 18.61c-0.48 0.118-0.757 0.609-0.787 1.076-0.043 0.463 0.032 0.995 0.401 1.318 0.452 0.377 1.226 0.329 1.591-0.147 0.347-0.487 0.352-1.172 0.118-1.708-0.22-0.491-0.83-0.683-1.324-0.538M1.972 18.618c-0 0.861-0 1.723 0 2.584 0.106-0 0.212-0 0.318 0 0.002-0.74-0.002-1.481 0.002-2.221 0.388 0.735 0.763 1.477 1.139 2.218 0.129 0.003 0.258 0.003 0.388 0.003 0-0.862 0-1.724 0-2.585-0.106-0-0.212 0-0.318 0-0.002 0.679 0.002 1.358-0.002 2.038-0.353-0.675-0.692-1.358-1.038-2.037-0.162-0.002-0.325-0.002-0.488-0.001M13.374 18.618c0 0.101 0 0.202 0 0.304 0.289 0.001 0.579-0.001 0.868 0.001 0.001 0.759 0.001 1.519 0 2.279 0.113 0 0.227 0.001 0.341 0.001 0-0.758 0.001-1.517-0-2.276 0.29-0.009 0.58-0.002 0.87-0.005 0-0.101 0-0.202 0.001-0.303-0.694-0.002-1.387-0.001-2.081-0M15.647 18.617c0.003 0.577-0.007 1.155 0.005 1.732 0.006 0.292 0.107 0.609 0.371 0.766 0.305 0.175 0.697 0.18 1.020 0.052 0.304-0.126 0.458-0.458 0.464-0.773 0.018-0.592 0.003-1.185 0.008-1.778-0.115-0-0.229 0-0.343 0-0.012 0.635 0.027 1.273-0.021 1.905-0.063 0.576-1.051 0.593-1.135 0.021-0.059-0.639-0.010-1.285-0.027-1.927-0.114-0-0.228-0-0.342 0M18.051 18.618c-0 0.861-0 1.723 0 2.584 0.114-0 0.228-0 0.342-0.001 0-0.343-0.004-0.686 0.002-1.029 0.155 0.023 0.372-0.071 0.469 0.096 0.244 0.312 0.495 0.619 0.739 0.932 0.148 0.002 0.297 0.002 0.445 0.001-0.304-0.377-0.613-0.748-0.917-1.125 0.298-0.116 0.537-0.396 0.53-0.727 0.041-0.337-0.225-0.645-0.549-0.702-0.351-0.054-0.708-0.022-1.062-0.030M20.233 18.618c-0 0.861-0 1.723 0 2.584 0.106-0 0.212-0 0.318 0 0.002-0.74-0.002-1.481 0.002-2.221 0.388 0.735 0.763 1.477 1.139 2.218 0.129 0.003 0.258 0.003 0.387 0.003 0-0.862 0-1.724 0-2.585-0.106-0-0.212 0-0.318 0-0.002 0.679 0.002 1.358-0.002 2.038-0.353-0.675-0.692-1.358-1.038-2.037-0.163-0.002-0.325-0.002-0.488-0.001z"></path>
<path fill="#fff" d="M5.089 18.896c0.345-0.116 0.77 0.033 0.912 0.381 0.167 0.41 0.173 0.907-0.024 1.308-0.207 0.421-0.843 0.5-1.159 0.162-0.265-0.282-0.286-0.701-0.253-1.066 0.030-0.323 0.19-0.682 0.524-0.785z"></path>
<path fill="#fff" d="M18.392 18.91c0.257 0.008 0.544-0.044 0.772 0.104 0.195 0.151 0.161 0.447 0.069 0.647-0.175 0.286-0.557 0.212-0.84 0.226-0.002-0.326-0.002-0.652-0-0.978z"></path>
<path fill="#000" d="M0.811 16.652c0.114-0.004 0.229-0.008 0.344-0.006 7.218 0.005 14.436 0.003 21.654 0.001 0.178-0.003 0.356-0.001 0.534 0.007 0.012 0.154 0.012 0.309 0 0.464-0.178 0.008-0.356 0.010-0.534 0.007-7.218-0.002-14.436-0.004-21.654 0.001-0.115 0.001-0.229-0.002-0.344-0.006-0.008-0.156-0.008-0.311 0-0.467z"></path>
<path fill="#000" d="M9.072 18.491c0.23-0.001 0.459-0.001 0.688 0 0.002 0.571-0.004 1.141 0.003 1.711 0.003 0.197 0.037 0.446 0.243 0.534 0.198 0.076 0.541 0.067 0.552-0.213 0.046-0.629 0.009-1.263 0.020-1.894 0.024-0.006 0.071-0.019 0.095-0.025 0.087-0.241 0.489-0.055 0.705-0.112-0.004 0.62 0.010 1.241-0.008 1.861-0.006 0.37-0.228 0.741-0.589 0.861-0.427 0.143-0.92 0.121-1.324-0.081-0.313-0.169-0.414-0.549-0.403-0.881 0.007-0.587-0.021-1.174 0.017-1.76z"></path>
<path fill="#000" d="M4.996 18.61c0.494-0.145 1.104 0.046 1.324 0.538 0.234 0.536 0.229 1.221-0.118 1.708-0.365 0.476-1.14 0.524-1.591 0.147-0.369-0.323-0.444-0.855-0.401-1.318 0.030-0.466 0.307-0.958 0.787-1.076M5.089 18.896c-0.333 0.102-0.494 0.462-0.524 0.785-0.032 0.365-0.012 0.784 0.253 1.066 0.316 0.339 0.951 0.259 1.159-0.162 0.197-0.401 0.191-0.898 0.024-1.308-0.142-0.348-0.567-0.497-0.912-0.381z"></path>
<path fill="#000" d="M1.972 18.618c0.163-0.001 0.325-0.001 0.488 0.001 0.346 0.679 0.685 1.361 1.038 2.037 0.005-0.679 0-1.358 0.002-2.038 0.106-0 0.212-0.001 0.318-0 0 0.861 0 1.723 0 2.585-0.129 0-0.258-0-0.388-0.003-0.376-0.741-0.751-1.483-1.139-2.218-0.004 0.74 0 1.48-0.002 2.221-0.106-0-0.212-0-0.318 0-0-0.861-0-1.723 0-2.584z"></path>
<path fill="#000" d="M13.374 18.618c0.693-0 1.387-0.002 2.081 0-0.001 0.101-0.001 0.202-0.001 0.303-0.29 0.003-0.58-0.004-0.87 0.005 0.002 0.759 0.001 1.518 0 2.276-0.114 0-0.228-0-0.341-0.001 0.001-0.76 0.001-1.519 0-2.279-0.289-0.002-0.579 0-0.868-0.001-0-0.102-0-0.203-0-0.304z"></path>
<path fill="#000" d="M15.647 18.617c0.114-0 0.228-0 0.342 0 0.017 0.642-0.032 1.288 0.027 1.927 0.084 0.572 1.071 0.555 1.135-0.021 0.048-0.633 0.009-1.271 0.021-1.905 0.114-0 0.229-0.001 0.343-0-0.005 0.592 0.010 1.186-0.008 1.778-0.006 0.315-0.16 0.647-0.464 0.773-0.323 0.128-0.715 0.122-1.020-0.052-0.264-0.157-0.365-0.475-0.371-0.766-0.011-0.577-0.002-1.154-0.005-1.732z"></path>
<path fill="#000" d="M18.051 18.618c0.353 0.008 0.711-0.024 1.062 0.030 0.324 0.057 0.59 0.364 0.549 0.702 0.008 0.332-0.232 0.611-0.53 0.727 0.304 0.377 0.613 0.748 0.917 1.125-0.148 0.001-0.297 0.001-0.445-0.001-0.244-0.313-0.495-0.62-0.739-0.932-0.097-0.167-0.314-0.074-0.469-0.096-0.007 0.343-0.002 0.686-0.002 1.029-0.114 0-0.228 0-0.342 0.001-0-0.861-0-1.723 0-2.584M18.392 18.91c-0.001 0.326-0.001 0.652 0 0.978 0.283-0.015 0.666 0.060 0.84-0.226 0.092-0.2 0.126-0.496-0.069-0.647-0.228-0.148-0.515-0.096-0.772-0.104z"></path>
<path fill="#000" d="M20.233 18.618c0.163-0.001 0.325-0.001 0.488 0.001 0.346 0.679 0.685 1.361 1.038 2.037 0.005-0.679 0-1.358 0.002-2.038 0.106-0 0.212-0.001 0.318-0 0 0.861 0 1.723 0 2.585-0.129-0-0.258-0-0.387-0.003-0.377-0.741-0.751-1.483-1.139-2.218-0.004 0.74 0 1.48-0.002 2.221-0.106-0-0.212-0-0.318 0-0-0.861-0-1.723 0-2.584z"></path>
</svg>
