<svg xmlns="http://www.w3.org/2000/svg" width="24" height="24">
    <path fill="#2a2627" d="M6.239 0h12.054c1.285.103 2.612-.121 3.864.247.131.187.268.387.251.628-.211-.253-.417-.619-.8-.584C15.359.286 9.109.286 2.86.29c-.312-.029-.505.249-.653.479a1.316 1.316 0 0 0-.102.495c.004 7.202 0 14.404.002 21.606a.918.918 0 0 0 .132.463c.169.365.564.573.959.552 6.156.009 12.313-.019 18.468.013-.643.061-1.289.027-1.933.039-5.422.013-10.844.015-16.266-.003-.291-.002-.583.001-.871-.05-.297-.033-.429-.341-.596-.546V.715c.179-.395.575-.613.995-.645C4.075.015 5.158.04 6.238-.002z"/>
    <path fill="#787576" d="M2.207.77c.147-.231.341-.509.653-.479C9.109.287 15.359.286 21.608.292c.383-.035.589.331.8.584.005.181.005.362.013.543-.083.713-.02 1.431-.04 2.147-.035 6.479-.001 12.959-.017 19.438-.007.407-.433.602-.652.893l-.045.003c-6.155-.032-12.312-.005-18.468-.013-.395.021-.791-.187-.959-.552.263.199.543.431.89.429 6.047.003 12.095-.002 18.143.002.383.01.738-.237.939-.55.079-.263.032-.545.04-.815l-.001-20.267c-.003-.4.023-.802-.03-1.2-.183-.211-.365-.519-.683-.509C15.335.423 9.133.425 2.931.424c-.261-.031-.436.191-.545.395C2.327.804 2.267.786 2.208.77z"/>
    <path fill="#fff" d="M2.385.819c.109-.204.285-.426.545-.395C9.132.425 15.335.423 21.537.425c.317-.01.5.297.683.509-.02 7.045-.005 14.089-.007 21.133-.024.407.097.884-.179 1.228-.191.26-.543.26-.834.273-5.622-.005-11.245 0-16.867-.002-.619-.009-1.249.056-1.854-.112a3.613 3.613 0 0 1-.115-.92c.021-7.237-.02-14.476.02-21.714zm2.241 1.448c-.009.645-.005 1.291-.002 1.937-.019.216.174.415.385.425.342.022.684-.001 1.027 0 .095-.157.249-.437.033-.561-.277-.068-.571-.021-.853-.069-.038-.579.002-1.158-.019-1.736.01-.164-.106-.284-.204-.4-.143.108-.377.188-.366.403zm1.689-.159c-.075.626-.006 1.263-.033 1.893.009.221-.019.585.274.629.425.055.857.027 1.284.002.076-.192.13-.403.027-.596-.318.007-.636.007-.953-.013 0-.187.001-.375.003-.561.171-.045.385-.027.513-.166.025-.133-.037-.262-.065-.39a30.203 30.203 0 0 0-.411-.09 1.287 1.287 0 0 1-.033-.248c.307-.131.651-.054.964-.151.139-.241-.046-.607-.345-.571-.401.01-.963-.137-1.223.263zm1.716.099c-.014.706-.017 1.415.001 2.12-.025.319.547.469.615.135.063-.363.077-.744-.015-1.103.302.087.616-.067.399-.399l-.335.016a.954.954 0 0 1-.071-.472 6.691 6.691 0 0 1 1.184-.034c.059.553.003 1.109.026 1.664.007.204.127.425.319.506.219.053.289-.209.315-.373.061-.576-.012-1.157.035-1.734.191-.071.43-.099.547-.287-.049-.263-.326-.423-.581-.402-.601.005-1.201.007-1.802.002-.243.006-.625.043-.635.361zm4.845-.309c-.113.151-.133.335-.109.517l.461.045c.111.724-.183 1.535.182 2.199.165-.064.439-.091.428-.325.045-.631-.037-1.267.071-1.894l.452-.008c.043.642-.093 1.333.209 1.928.441.573 1.398.231 1.525-.426.016-.577.013-1.157.003-1.735-.001-.247-.293-.295-.483-.321-.299.657-.035 1.419-.159 2.118l-.337.037c-.152-.613-.035-1.248-.101-1.868-.113-.281-.403-.303-.612-.113-.478-.237-1.019-.131-1.531-.153zm3.813-.005c-.259.097-.223.417-.23.64.023.619-.031 1.242.029 1.859-.005.323.563.357.614.053.059-.307.032-.621.049-.931.154.304.265.627.409.935.111.239.553.272.554-.057.15-.377-.245-.668-.205-1.015.272-.339.285-.795.175-1.201a1.597 1.597 0 0 0-1.394-.284zm2.794.923c-.162-.284-.268-.603-.509-.841a21.81 21.81 0 0 1-.366-.009c-.189.261-.089.601-.111.9.053.563-.119 1.17.11 1.703.119-.005.238-.01.357-.013.199-.32.108-.705.153-1.06.317.365.337.934.817 1.147.081-.111.181-.223.171-.371.01-.67.006-1.341.002-2.011.015-.151-.101-.256-.187-.363-.484.07-.432.543-.437.918zm-6.164 3.398c-.026.861 0 1.725-.011 2.588-.036.299.282.518.556.493.419-.009.838.016 1.255-.013.341-.044.356-.599.029-.679-.323-.06-.655-.011-.981-.034-.068-.903.083-1.822-.084-2.715-.317-.166-.729-.024-.765.361zm2.743-.428c-.365-.003-.322.428-.327.681.031.879-.039 1.765.033 2.641.332.311.963.359 1.327.083.415.007.775-.381.777-.788a9.689 9.689 0 0 0 .005-1.607c-.01-.336-.235-.637-.525-.793-.283-.385-.875-.229-1.291-.218zm-9.7.284c.137.573.509 1.06.694 1.617.099.445-.003.905.056 1.354a.59.59 0 0 0 .763.095c.115-.499-.036-1.024.079-1.523.208-.426.431-.846.641-1.271.059-.15.091-.371-.044-.488a.575.575 0 0 0-.726.287c-.087.213-.177.427-.338.595-.148-.295-.268-.616-.487-.868-.203-.065-.676-.135-.638.201zm3.055-.227a.883.883 0 0 0-.123.489c.012.943-.017 1.886.016 2.828.193.009.385.01.578.002.032-.787.006-1.574.015-2.361-.008-.322.054-.669-.117-.961l-.369.004zm1.329.489c.011.867-.006 1.735.007 2.603-.013.368.443.401.713.392.419-.031.883.088 1.269-.121.268-.124.193-.598-.09-.643-.323-.061-.655-.031-.983-.042a3.755 3.755 0 0 1-.011-.571c.176-.028.361-.031.526-.104.261-.141.283-.557.037-.725-.174-.089-.375-.096-.563-.131.001-.104.004-.207.006-.311.348-.049.935.165 1.035-.317l-.027-.318-.037-.222a7.437 7.437 0 0 0-1.627-.019c-.269.009-.245.338-.255.53zM7.683 10.83c-.133.145-.337.277-.315.5-.001.58.001 1.16-.001 1.74-.025.232.189.369.327.52.369-.166.314-.594.439-.913.186.256.263.595.526.791.207.119.515-.019.501-.277.002-.677.02-1.356-.009-2.032-.033-.265-.322-.278-.531-.271-.116.231-.132.489-.148.742-.225-.308-.38-.697-.789-.799zm4.64.348c-.053.627-.005 1.262-.023 1.892-.036.27.237.397.421.524.321-.307.157-.782.207-1.173.111.034.291.015.279.18.039.367.126.766.483.955.17-.011.355-.123.399-.295-.133-.317-.243-.645-.255-.993.361-.323.409-.978-.05-1.236-.442-.22-1.179-.39-1.461.147zm2.03.219c.021.634-.035 1.273.028 1.904.257.473.896.204 1.327.263.094-.092.187-.185.282-.276.367.389.923.286 1.401.273.235-.007.359-.39.181-.523-.323-.067-.657-.041-.985-.058a1.912 1.912 0 0 1 .001-.555c.233.021.481.023.696-.083.145-.135.049-.337.012-.497a18.462 18.462 0 0 1-.565-.176c.099-.44.678-.068.909-.361.051-.229-.12-.503-.373-.475-.415.009-.991-.131-1.22.328-.041.67.015 1.344-.022 2.015-.256-.221-.605-.179-.918-.181a7.48 7.48 0 0 1 .005-.519c.171-.042.342-.087.513-.133 0-.157.047-.329-.027-.475-.13-.115-.323-.105-.482-.151l-.011-.264c.217-.011.437-.002.652-.042.281-.057.157-.486-.051-.561-.299-.041-.603-.023-.905-.016-.285-.009-.475.302-.448.563zm3.789-.592c-.176.131-.405.276-.383.529-.004.6-.003 1.2-.001 1.8-.025.27.269.368.454.485.25-.213.213-.577.41-.826.134.291.293.573.525.798.193-.066.485-.123.462-.388.017-.645.015-1.293.001-1.938.019-.277-.255-.395-.473-.466-.2.189-.224.464-.237.723-.207-.283-.408-.597-.758-.717zm-12.451.294c-.486.634-.413 1.535-.085 2.224.221.063.413.265.65.235.207-.103.427-.201.602-.353.067-.287.088-.583.148-.871.088-.379-.117-.737-.125-1.114-.289-.352-.857-.497-1.19-.121zm5.129-.082l-.26.005c-.155.49-.416.986-.288 1.515.129.423.235.976.735 1.102.765.243 1.434-.904.853-1.436-.28-.271-.643.035-.935.127.026-.312.121-.613.259-.893.248.204.612.368.875.091-.073-.273-.173-.591-.52-.573-.216-.11-.535-.118-.719.062zm-2.385 6.898c-.265.601.051 1.219.173 1.813.245.403.421.949.893 1.133.433.444 1.008.71 1.581.924 1.211.231 2.567.151 3.561-.657.215-.015.355-.181.49-.327.567-.543.845-1.32.973-2.078.09-1.531-.951-3.035-2.407-3.514-.687-.367-1.49-.15-2.233-.207-1.465.233-2.809 1.407-3.031 2.913z"/>
    <path fill="#fff" d="M16.634 6.617c.267-.011.563.157.583.445.019.377.033.761-.016 1.136-.06.255-.331.385-.576.327-.005-.636-.017-1.273.009-1.908z"/>
    <path fill="#d0cfcf" d="M2.105 1.265c.001-.17.037-.338.102-.495.059.017.119.034.178.049-.04 7.238.001 14.477-.02 21.714-.007.311.043.619.115.92.605.168 1.235.103 1.854.112 5.622.002 11.245-.003 16.867.002.291-.013.643-.013.834-.273.276-.344.155-.821.179-1.228.002-7.044-.013-14.089.007-21.133.053.398.027.8.03 1.2.001 6.755-.001 13.511.001 20.267-.008.271.039.552-.04.815-.201.313-.556.56-.939.55-6.047-.004-12.095.001-18.143-.002-.347.002-.627-.231-.89-.429a.923.923 0 0 1-.132-.463c-.002-7.202.002-14.404-.002-21.606z"/>
    <path fill="#1e1c1d" opacity=".6" d="M22.42 1.419l.047.113v1.967l-.087.067c.02-.715-.043-1.434.04-2.147z"/>
    <path fill="#b9b8b8" d="M4.626 2.267c-.011-.215.223-.295.366-.403.098.116.214.236.204.4.021.578-.019 1.157.019 1.736.282.048.576.001.853.069.216.124.063.403-.033.561-.343-.001-.685.022-1.027 0-.211-.011-.404-.209-.385-.425-.003-.645-.007-1.291.002-1.937zm.203-.076c-.002.695-.001 1.389-.001 2.083l.163.146c.328-.059.662-.054.994-.052l.069-.197c-.299-.049-.68.095-.923-.115-.12-.652.084-1.345-.104-1.987l-.198.122zM6.362 6.07c-.038-.337.435-.266.638-.201.219.252.339.573.487.868.161-.169.251-.383.338-.595a.574.574 0 0 1 .726-.287c.135.117.103.338.044.488-.21.425-.433.845-.641 1.271-.115.499.036 1.023-.079 1.523a.59.59 0 0 1-.763-.095c-.059-.449.043-.909-.056-1.354-.185-.557-.557-1.043-.694-1.617zm.641.034l-.387-.016c.013.477.329.873.505 1.304.317.483.143 1.077.189 1.617l.22.089c.094-.031.188-.063.283-.093.015-.491-.023-.985.022-1.475.173-.486.541-.919.553-1.453a1.805 1.805 0 0 0-.46.097c-.01.349-.256.607-.47.855a9.908 9.908 0 0 1-.455-.925z"/>
    <path fill="#d2d2d2" d="M6.315 2.108c.259-.399.821-.253 1.223-.263.299-.035.485.33.345.571-.313.097-.657.02-.964.151l.011-.144c.313.001.627-.022.935-.087l-.031-.253c-.408-.088-.838-.117-1.247-.026-.241.049-.187.357-.209.541.019.533-.029 1.07.025 1.601.009.177.175.29.341.299.333.029.679.047 1.007-.027.135-.097.089-.294.116-.437.103.193.049.404-.027.596-.427.025-.859.053-1.284-.002-.293-.044-.265-.408-.274-.629.027-.63-.042-1.267.033-1.893z"/>
    <path fill="#cac9ca" d="M8.031 2.207c.009-.318.392-.355.635-.361.601.005 1.201.003 1.802-.002.255-.021.532.139.581.402-.117.188-.356.215-.547.287-.047.577.027 1.158-.035 1.734-.025.163-.095.426-.315.373-.191-.081-.311-.302-.319-.506-.023-.555.033-1.111-.026-1.664a6.691 6.691 0 0 0-1.184.034l.011-.132c.462-.02.925-.017 1.387-.004.131.661.032 1.337.076 2.005l.203.004c.109-.653.02-1.316.064-1.973.189-.042.375-.103.544-.201-.37-.173-.784-.091-1.177-.102-.467.017-.938-.043-1.402.019-.227.075-.143.367-.163.549.033.563-.059 1.135.065 1.691l.289.033c.077-.341.003-.699.109-1.034.092.359.077.741.015 1.103-.068.335-.64.184-.615-.135a48.332 48.332 0 0 1-.001-2.12z"/>
    <path fill="#b6b5b5" d="M12.876 1.898c.511.022 1.053-.084 1.531.153.209-.19.499-.168.612.113.065.62-.051 1.255.101 1.868l.337-.037c.125-.699-.139-1.461.159-2.118.191.026.483.075.483.321.011.578.013 1.157-.003 1.735-.127.657-1.083.999-1.525.426-.303-.595-.166-1.286-.209-1.928l-.452.008c-.108.627-.027 1.263-.071 1.894.011.234-.263.261-.428.325-.365-.663-.071-1.475-.182-2.199l-.461-.045c-.024-.182-.005-.367.109-.517zm-.077.411c.162.051.362.043.491.159.117.659-.119 1.365.126 1.999.137-.055.351-.086.339-.279.031-.572-.02-1.145.019-1.717.165-.081.33-.163.491-.251-.355-.279-.834-.174-1.251-.169-.147-.007-.179.151-.215.259zm1.765.824c.02.376-.069.787.108 1.135.309.229.808.251 1.103-.006.264-.667.055-1.407.149-2.104l-.346.008c-.013.643.019 1.287-.02 1.93-.237.017-.666.119-.707-.223-.04-.55-.003-1.103-.014-1.655a9.084 9.084 0 0 0-.187-.156c-.159.336-.065.715-.087 1.071z"/>
    <path fill="#cccbcb" d="M16.689 1.893a1.597 1.597 0 0 1 1.394.284c.111.405.097.861-.175 1.201-.039.347.355.638.205 1.015-.001.329-.443.296-.554.057-.144-.308-.255-.631-.409-.935-.017.31.009.624-.049.931-.051.304-.619.27-.614-.053-.06-.617-.006-1.239-.029-1.859.007-.223-.029-.543.23-.64zm-.127.198a23.397 23.397 0 0 0-.009 2.168c0 .265.444.316.49.053.061-.319.004-.65.087-.967.443.272.219 1.137.865 1.127.222-.437-.373-.834-.115-1.262.259-.283.304-.821-.013-1.073-.409-.167-.881-.139-1.305-.045z"/>
    <path fill="#979596" d="M19.483 2.816c.005-.375-.047-.848.437-.918.085.107.201.212.187.363.004.67.008 1.341-.002 2.011.01.148-.091.261-.171.371-.48-.213-.5-.782-.817-1.147-.045.355.047.74-.153 1.06-.119.003-.238.008-.357.013-.229-.533-.057-1.14-.11-1.703.022-.299-.078-.639.111-.9.121.004.243.007.366.009.241.237.347.557.509.841zm-.848-.657a62.04 62.04 0 0 0 .001 2.157l.317-.078c.062-.305-.192-.953.262-.965.144.342.366.65.451 1.015l.318.037c.045-.728.051-1.462-.004-2.19-.483-.046-.279.494-.337.787-.448.193-.421-.528-.677-.758l-.331-.005zM16.577 6.444c.172-.136.379.013.505.141-.143-.044-.287-.081-.431-.12-.215.365-.125.8-.141 1.202.009.297-.039.607.063.893.142.045.291.062.437.087-.201.069-.487.121-.573-.138-.057-.455 0-.917-.025-1.375.011-.231-.044-.527.165-.69z"/>
    <path fill="#999898" d="M6.585 2.059c.409-.091.839-.062 1.247.026l.031.253a4.509 4.509 0 0 1-.935.087l-.011.144c.003.084.015.167.033.248.137.029.275.059.411.09.028.128.09.257.065.39-.128.139-.341.121-.513.166l-.003.561c.317.02.635.021.953.013-.027.143.019.34-.116.437-.328.075-.673.056-1.007.027-.166-.009-.332-.122-.341-.299-.055-.531-.006-1.068-.025-1.601.021-.185-.033-.492.209-.541zm-.083.121c-.041.65-.022 1.303-.017 1.954.009.363.474.255.715.273.186-.039.544.072.588-.185l-.025.006c-.291-.144-.659.041-.922-.145-.051-.238-.019-.483-.017-.724.161-.044.326-.076.492-.099l-.087-.143-.311-.029c-.12-.224-.109-.479-.092-.723.325-.093.669-.025.993-.118-.369-.171-.791-.065-1.183-.091l-.135.025z"/>
    <path fill="#838282" d="M12.799 2.309c.037-.107.069-.266.215-.259.417-.005.896-.11 1.251.169-.161.088-.326.17-.491.251-.039.572.012 1.145-.019 1.717.013.193-.202.225-.339.279-.245-.634-.009-1.34-.126-1.999-.129-.116-.329-.107-.491-.159zm.045-.069c.179.082.529.028.537.295.039.599-.021 1.2.028 1.799l.171-.084c.017-.595-.035-1.194.068-1.783.151-.089.301-.178.448-.272-.407-.057-.867-.139-1.251.045z"/>
    <path fill="#908e8f" d="M16.562 2.091c.424-.095.896-.123 1.305.045.317.253.272.79.013 1.073-.258.428.337.825.115 1.262-.646.01-.421-.855-.865-1.127-.083.317-.025.649-.087.967-.046.263-.49.213-.49-.053a23.751 23.751 0 0 1 .009-2.168zm.072.079a76.045 76.045 0 0 0 0 2.136l.337-.001c.051-.349-.14-.835.229-1.051.305.212.349.59.445.919.045.142.225.108.342.123-.137-.383-.462-.877-.127-1.24.221-.253.167-.737-.154-.885-.349-.099-.719-.055-1.072-.001z"/>
    <path fill="#514f4f" d="M4.829 2.191l.198-.122c.188.641-.016 1.335.104 1.987.243.21.624.066.923.115l-.069.197c-.332-.002-.666-.007-.994.052l-.163-.146c-.001-.694-.001-1.388.001-2.083z"/>
    <path fill="#737172" d="M6.502 2.18a6.39 6.39 0 0 1 .135-.025 45.073 45.073 0 0 0-.003 2.144c.377.013.762.033 1.129-.071l.025-.006c-.044.257-.402.146-.588.185-.241-.018-.706.089-.715-.273-.005-.651-.024-1.304.017-1.954z"/>
    <path fill="#2f2c2d" d="M6.637 2.155c.393.026.814-.08 1.183.091-.325.093-.669.025-.993.118-.017.245-.028.499.092.723l.311.029.087.143a3.896 3.896 0 0 0-.492.099c-.002.241-.034.486.017.724.263.187.631.001.922.145-.367.103-.752.083-1.129.071a46.438 46.438 0 0 1 .003-2.144z"/>
    <path fill="#434041" d="M8.169 2.667c.02-.181-.065-.474.163-.549.464-.063.935-.003 1.402-.019.393.011.807-.071 1.177.102a1.868 1.868 0 0 1-.544.201c-.044.657.045 1.321-.064 1.973l-.203-.004c-.044-.668.055-1.344-.076-2.005a19.438 19.438 0 0 0-1.387.004l-.011.132a.954.954 0 0 0 .071.472l.335-.016c.217.333-.097.487-.399.399-.106.335-.033.693-.109 1.034l-.289-.033c-.123-.556-.031-1.128-.065-1.691z"/>
    <path fill="#4c494a" d="M12.844 2.24c.384-.184.844-.102 1.251-.045a14.42 14.42 0 0 1-.448.272c-.103.589-.051 1.189-.068 1.783l-.171.084c-.049-.599.011-1.201-.028-1.799-.008-.267-.357-.213-.537-.295z"/>
    <path fill="#4b4949" d="M14.564 3.133c.022-.356-.072-.735.087-1.071.063.051.125.103.187.156.011.551-.026 1.105.014 1.655.041.343.469.241.707.223.039-.643.007-1.287.02-1.93l.346-.008c-.094.697.115 1.437-.149 2.104-.295.257-.794.235-1.103.006-.177-.348-.088-.759-.108-1.135z"/>
    <path fill="#403d3e" d="M16.634 2.17c.353-.054.723-.099 1.072.001.321.148.375.631.154.885-.335.363-.009.857.127 1.24-.117-.015-.297.019-.342-.123-.095-.329-.139-.707-.445-.919-.369.215-.179.702-.229 1.051l-.337.001a76.045 76.045 0 0 1 0-2.136zm.524.808l.261-.015c.072-.055.145-.108.218-.161l.001-.289a22.78 22.78 0 0 0-.167-.151c-.43-.125-.557.335-.312.617z"/>
    <path fill="#403d3d" d="M18.635 2.159l.331.005c.256.23.229.951.677.758.058-.293-.146-.833.337-.787.055.728.049 1.462.004 2.19l-.318-.037c-.085-.365-.307-.673-.451-1.015-.454.011-.2.659-.262.965-.106.026-.211.053-.317.078a57.445 57.445 0 0 1-.001-2.157z"/>
    <path fill="#f2f1f1" d="M17.158 2.978c-.245-.281-.118-.742.312-.617l.167.151-.001.289-.218.161-.261.015z"/>
    <path fill="#302d2f" d="M22.38 3.565l.087-.067v19.915c-.201.224-.418.507-.755.483.219-.291.645-.486.652-.893.015-6.479-.018-12.959.017-19.438z"/>
    <path fill="#bfbebf" d="M13.319 6.214c.035-.385.447-.527.765-.361.167.893.016 1.812.084 2.715.326.023.658-.026.981.034.327.081.311.635-.029.679-.417.029-.837.005-1.255.013-.274.025-.592-.194-.556-.493.011-.863-.015-1.727.011-2.588zm.3-.129c-.022.989-.011 1.978-.006 2.967.553-.049 1.169.133 1.677-.113-.383-.224-.869.013-1.241-.175-.095-.885.061-1.789-.083-2.669l-.348-.009z"/>
    <path fill="#e2e1e2" d="M16.062 5.786c.416-.011 1.007-.167 1.291.218-.413-.137-.885-.262-1.305-.088-.318.201-.219.633-.237.951.041.717-.058 1.444.044 2.154.32.302.837.131 1.239.171-.363.275-.995.227-1.327-.083-.071-.876-.002-1.762-.033-2.641.005-.253-.038-.684.327-.681z"/>
    <path fill="#8f8d8d" d="M9.417 5.843l.369-.004c.171.292.109.639.117.961-.009.787.017 1.575-.015 2.361a6.554 6.554 0 0 1-.578-.002c-.033-.942-.004-1.885-.016-2.828a.885.885 0 0 1 .123-.489zm.009.329c.009.953-.007 1.907.009 2.86l.337.013c.009-.987.027-1.976-.011-2.963l-.335.09z"/>
    <path fill="#dedddd" d="M10.746 6.332c.01-.192-.015-.521.255-.53a7.437 7.437 0 0 1 1.627.019l.037.222c-.413-.322-.981-.179-1.464-.167-.281-.004-.401.279-.383.521.003.823-.011 1.647.005 2.469-.005.368.461.309.71.323.437-.035.973.127 1.309-.241-.261-.484-.838-.257-1.265-.396-.098-.193-.116-.447-.005-.638.258-.129.573-.179.735-.447-.19-.273-.537-.297-.791-.47-.04-.167.015-.427.227-.429.325-.027.682.02.95-.208-.099.482-.687.267-1.035.317-.002.104-.005.207-.006.311.189.035.389.041.563.131.245.167.224.583-.037.725-.165.073-.35.076-.526.104-.011.19-.007.381.011.571.327.011.659-.019.983.042.283.045.358.519.09.643-.386.209-.849.09-1.269.121-.271.009-.726-.024-.713-.392-.013-.867.004-1.735-.007-2.603z"/>
    <path fill="#aeadad" d="M10.818 6.397c-.018-.242.103-.525.383-.521.483-.011 1.051-.155 1.464.167l.027.318c-.268.228-.625.181-.95.208-.211.001-.267.261-.227.429.255.173.601.197.791.47-.162.268-.477.317-.735.447-.111.191-.093.445.005.638.427.139 1.003-.088 1.265.396-.336.368-.871.206-1.309.241-.249-.014-.715.045-.71-.323-.016-.823-.002-1.646-.005-2.469zm.115-.193c-.044.933-.011 1.873-.014 2.809.565.154 1.219.174 1.778-.011-.241-.512-.945-.021-1.264-.429-.08-.254-.106-.587.065-.809.22-.121.527-.062.685-.298-.165-.205-.446-.157-.661-.257-.205-.193-.209-.625.071-.751.299-.083.62.008.919-.083.223-.253-.145-.447-.377-.393-.39.041-.929-.138-1.202.222z"/>
    <path fill="#b7b5b6" d="M16.048 5.916c.419-.174.892-.049 1.305.088.289.156.515.457.525.793a9.91 9.91 0 0 1-.005 1.607c-.003.407-.363.795-.777.788-.402-.04-.919.131-1.239-.171-.102-.71-.003-1.437-.044-2.154.018-.317-.081-.749.237-.951zm.045.111c-.17.109-.135.333-.143.505.009.757.002 1.514.001 2.271-.022.476.621.281.919.317.579.066.977-.526.943-1.054-.005-.631.152-1.421-.397-1.882-.382-.243-.899-.277-1.323-.157z"/>
    <path fill="#716f6f" d="M10.933 6.204c.273-.36.812-.181 1.202-.222.232-.054.6.14.377.393-.299.091-.62 0-.919.083-.281.125-.276.558-.071.751.215.101.496.052.661.257-.158.236-.465.177-.685.298-.171.222-.145.555-.065.809.319.409 1.023-.083 1.264.429-.559.185-1.213.165-1.778.011.003-.936-.03-1.875.014-2.809zm.167-.04c-.018.947-.001 1.894-.009 2.841.488.004 1.027.13 1.485-.067-.389-.127-.85.065-1.199-.18-.147-.342-.133-.77-.003-1.117.227-.085.477-.081.703-.172-.23-.076-.481-.078-.705-.173-.121-.275-.141-.64.021-.902.355-.176.773-.037 1.151-.123-.393-.303-.977-.127-1.444-.107z"/>
    <path fill="#797777" d="M16.093 6.027c.424-.119.941-.085 1.323.157.549.461.391 1.251.397 1.882.034.528-.364 1.12-.943 1.054-.298-.036-.941.159-.919-.317.001-.757.007-1.514-.001-2.271.008-.173-.027-.396.143-.505zm.006.128c.011.953-.046 1.915.027 2.861.352.031.716.049 1.064-.02.381-.198.535-.657.55-1.063.013-.489.067-1.029-.221-1.457-.274-.5-.95-.377-1.42-.322z"/>
    <path fill="#383637" d="M7.003 6.104c.137.315.286.626.455.925.214-.249.46-.506.47-.855.148-.053.303-.085.46-.097-.012.534-.381.967-.553 1.453-.045.49-.007.984-.022 1.475l-.283.093-.22-.089c-.047-.54.127-1.135-.189-1.617-.175-.431-.491-.827-.505-1.304l.387.016z"/>
    <path fill="#383536" d="M9.426 6.172l.335-.09c.037.987.019 1.975.011 2.963l-.337-.013c-.015-.953 0-1.907-.009-2.86z"/>
    <path fill="#2c2a2b" d="M11.1 6.164c.467-.02 1.051-.195 1.444.107-.378.087-.796-.053-1.151.123-.161.262-.142.627-.021.902.224.095.475.097.705.173-.226.091-.476.087-.703.172-.13.347-.145.775.003 1.117.349.245.81.053 1.199.18-.459.197-.997.071-1.485.067.008-.947-.009-1.894.009-2.841z"/>
    <path fill="#3e3b3c" d="M13.619 6.085l.348.009c.143.88-.012 1.784.083 2.669.371.187.857-.049 1.241.175-.508.247-1.125.065-1.677.113-.005-.989-.016-1.978.006-2.967z"/>
    <path fill="#2c292a" d="M16.099 6.155c.47-.055 1.146-.178 1.42.322.288.427.234.968.221 1.457-.015.405-.169.865-.55 1.063-.348.069-.712.051-1.064.02-.073-.946-.015-1.909-.027-2.861zm.387.195c-.259.134-.185.478-.202.717.031.509-.051 1.027.043 1.529.191.441.774.195.993-.084a3.386 3.386 0 0 0 .063-1.637c-.049-.392-.526-.703-.897-.525z"/>
    <path fill="#656364" d="M16.486 6.35c.371-.179.848.133.897.525a3.373 3.373 0 0 1-.063 1.637c-.219.279-.803.525-.993.084-.094-.502-.012-1.021-.043-1.529.017-.239-.057-.583.202-.717zm.091.094c-.209.163-.153.459-.165.69.025.458-.033.92.025 1.375.087.259.372.207.573.138.327-.187.316-.584.339-.912-.016-.382.065-.879-.267-1.15-.126-.127-.333-.277-.505-.141z"/>
    <path fill="#c0bfbf" d="M16.651 6.465c.144.039.289.076.431.12.332.271.251.768.267 1.15-.023.328-.011.725-.339.912-.147-.025-.295-.042-.437-.087-.102-.286-.055-.596-.063-.893.017-.402-.074-.837.141-1.202zm-.017.152c-.026.635-.013 1.272-.009 1.908.245.059.516-.072.576-.327.049-.375.035-.759.016-1.136-.02-.289-.317-.456-.583-.445zM12.323 11.178c.282-.537 1.019-.367 1.461-.147.459.258.411.913.05 1.236.012.348.123.676.255.993-.044.172-.229.284-.399.295-.357-.189-.443-.587-.483-.955.013-.165-.168-.146-.279-.18-.05.391.113.866-.207 1.173-.185-.127-.457-.254-.421-.524.017-.63-.03-1.265.023-1.892zm.246.008c-.02.698-.005 1.397-.005 2.096l.192.057c.109-.316.053-.653.07-.979.156-.004.311-.007.467-.008.062.334.116.679.328.957l.22-.003c.014-.387-.2-.727-.232-1.105.343-.238.421-.837.071-1.087-.359.012-.81-.127-1.111.072z"/>
    <path fill="#c0bebe" d="M7.683 10.83c.409.102.565.491.789.799.016-.253.032-.511.148-.742.209-.007.498.007.531.271.029.676.011 1.355.009 2.032.015.258-.294.397-.501.277-.263-.195-.34-.535-.526-.791-.125.319-.069.747-.439.913-.137-.151-.351-.288-.327-.52l.001-1.74c-.022-.223.182-.355.315-.5zm.982.218c-.087.346.067.749-.128 1.06-.439-.139-.257-1.108-.894-1.03-.141.562-.032 1.149-.07 1.721.005.195-.051.554.25.525.029-.413-.007-.828.034-1.241l.205.017c.251.413.347.975.758 1.256.095-.077.242-.137.207-.288-.003-.601.01-1.204-.007-1.805-.001-.176-.219-.154-.341-.169a1.25 1.25 0 0 0-.015-.047z"/>
    <path fill="#cac9c9" d="M14.353 11.397c-.027-.261.163-.572.448-.563.301-.007.605-.025.905.016.209.075.332.503.051.561-.215.04-.435.031-.652.042l.011.264c.159.045.352.036.482.151.073.146.027.319.027.475-.171.046-.341.091-.513.133a7.486 7.486 0 0 0-.005.519c.313.002.662-.04.918.181.037-.671-.019-1.345.022-2.015.229-.459.805-.319 1.22-.328.253-.028.425.246.373.475-.231.293-.81-.079-.909.361.187.061.376.121.565.176.037.159.133.361-.012.497-.215.106-.463.103-.696.083.164-.073.338-.117.511-.161l-.007-.333a30.515 30.515 0 0 1-.525-.109l-.002-.45c.319-.065.645-.078.969-.081a46.707 46.707 0 0 0-.113-.191c-.359.045-.813-.125-1.11.089-.036.703.001 1.409-.014 2.113.403.087.82.083 1.224.009l-.025-.205c-.279 0-.557.005-.835-.014l-.074-.112c.328.017.662-.009.985.058.179.133.055.516-.181.523-.479.013-1.034.116-1.401-.273-.095.091-.188.184-.282.276-.431-.059-1.07.211-1.327-.263-.063-.631-.007-1.27-.028-1.904zm.219-.211c-.021.702.001 1.405-.009 2.108a2.58 2.58 0 0 0 1.223.007l-.025-.195c-.31-.007-.632.038-.928-.079.007-.205-.023-.415.026-.617.175-.094.382-.101.575-.133l-.009-.352c-.212-.011-.423-.047-.607-.16-.117-.589.597-.441.958-.465l-.018-.193c-.384.037-.865-.129-1.187.08z"/>
    <path fill="#d8d7d7" d="M18.142 10.805c.35.119.551.433.758.717.013-.259.037-.535.237-.723.218.071.492.189.473.466.013.645.016 1.293-.001 1.938.023.265-.269.322-.462.388-.232-.225-.391-.507-.525-.798-.197.249-.16.613-.41.826-.185-.117-.479-.215-.454-.485-.001-.6-.003-1.2.001-1.8-.022-.253.207-.397.383-.529zm-.207.461a20.086 20.086 0 0 0-.005 1.869c-.029.226.331.386.41.137.069-.361.006-.733.053-1.097.215.357.395.735.609 1.093.101.24.529.116.5-.141.011-.656.003-1.313 0-1.969a11.517 11.517 0 0 0-.371-.181c-.223.305-.066.704-.202 1.039-.147-.284-.262-.584-.427-.857-.132-.223-.565-.195-.567.107z"/>
    <path fill="#585556" d="M5.691 11.099c.333-.376.901-.231 1.19.121.008.377.213.735.125 1.114-.06.288-.081.585-.148.871-.175.152-.395.251-.602.353-.237.029-.429-.173-.65-.235-.328-.689-.401-1.59.085-2.224zm.208.561c.003.457-.07.931.07 1.374l.398.011c.271-.308.196-.735.203-1.111-.001-.195-.007-.467-.231-.541-.183-.095-.473.04-.441.267z"/>
    <path fill="#494647" d="M10.82 11.017c.185-.18.503-.172.719-.062.225.147.381.389.238.655-.237-.176-.582-.387-.861-.178-.155.516-.092 1.078-.011 1.604.283.113.693.103.687-.295l-.295-.241a80.387 80.387 0 0 1-.012-.142c.183-.047.374-.057.557.001-.005.281.021.567-.031.845-.146.181-.401.214-.602.308-.215-.124-.591-.141-.615-.449-.063-.387-.239-.779-.111-1.171.089-.299.048-.678.336-.875z"/>
    <path fill="#d2d1d1" d="M10.56 11.023l.26-.005c-.288.197-.247.577-.336.875-.129.392.048.784.111 1.171.023.309.4.325.615.449.201-.094.456-.127.602-.308.052-.279.026-.564.031-.845a.995.995 0 0 0-.557-.001l.012.142c.097.081.196.161.295.241.006.399-.405.408-.687.295-.081-.526-.144-1.088.011-1.604.279-.209.624.002.861.178.143-.266-.013-.507-.238-.655.347-.017.447.3.52.573-.263.277-.627.113-.875-.091-.138.28-.233.581-.259.893.292-.091.655-.398.935-.127.581.532-.088 1.679-.853 1.436-.5-.126-.606-.679-.735-1.102-.128-.529.133-1.025.288-1.515z"/>
    <path fill="#999797" d="M17.935 11.266c.002-.303.435-.331.567-.107.165.273.281.573.427.857.136-.335-.021-.735.202-1.039.125.058.249.118.371.181.003.656.011 1.313 0 1.969.029.257-.399.381-.5.141-.215-.357-.394-.735-.609-1.093-.047.364.016.737-.053 1.097-.079.249-.439.089-.41-.137a19.747 19.747 0 0 1 .005-1.869zm.16-.123c-.005.718-.011 1.436.005 2.154h.136c.08-.429-.165-1.005.219-1.32.263.427.477.882.697 1.332l.099-.025c.282-.157.073-.608.129-.885-.077-.411.157-.949-.131-1.279l-.143.059c-.057.341.156.843-.224 1.041-.175-.339-.352-.677-.477-1.037l-.31-.04z"/>
    <path fill="#373535" d="M8.665 11.048l.015.047c.177.735.17 1.51.141 2.263-.411-.281-.507-.843-.758-1.256l-.205-.017c-.041.413-.005.827-.034 1.241-.301.029-.245-.33-.25-.525.038-.573-.071-1.159.07-1.721.637-.078.455.891.894 1.03.195-.311.041-.714.128-1.06zM16.311 11.189c.297-.215.751-.045 1.11-.089l.113.191c-.325.003-.65.016-.969.081l.002.45c.175.038.35.074.525.109l.007.333c-.173.044-.347.088-.511.161a1.877 1.877 0 0 0-.001.555l.074.112c.278.019.557.014.835.014l.025.205a3.113 3.113 0 0 1-1.224-.009c.015-.704-.022-1.41.014-2.113z"/>
    <path fill="#676565" d="M8.68 11.095c.123.015.34-.007.341.169.017.601.003 1.204.007 1.805.035.151-.112.211-.207.288.029-.753.037-1.528-.141-2.263z"/>
    <path fill="#3f3c3c" d="M12.569 11.186c.301-.199.752-.06 1.111-.072.35.251.273.849-.071 1.087.032.378.246.718.232 1.105l-.22.003c-.212-.278-.266-.623-.328-.957-.156.001-.311.004-.467.008-.017.326.039.663-.07.979a13.948 13.948 0 0 0-.192-.057c-.001-.699-.015-1.398.005-2.096zm.322.658c.195-.006.391.003.585-.019.149-.086.123-.349-.001-.449a2.63 2.63 0 0 0-.561-.007c-.157.109-.066.327-.023.475z"/>
    <path fill="#373536" d="M14.572 11.186c.321-.209.803-.043 1.187-.08l.018.193c-.361.023-1.075-.124-.958.465.183.113.395.149.607.16.003.117.005.235.009.352-.193.033-.4.039-.575.133-.049.201-.019.411-.026.617.296.117.618.073.928.079l.025.195a2.568 2.568 0 0 1-1.223-.007c.009-.703-.013-1.406.009-2.108z"/>
    <path fill="#2a2728" d="M18.095 11.143l.31.04c.125.361.302.699.477 1.037.38-.197.167-.699.224-1.041l.143-.059c-.031.721.006 1.443.002 2.164l-.099.025c-.221-.45-.435-.905-.697-1.332-.383.315-.139.891-.219 1.32H18.1c-.016-.718-.009-1.436-.005-2.154z"/>
    <path fill="#6e6b6c" d="M19.249 11.121c.289.329.055.868.131 1.279-.057.277.153.728-.129.885.004-.721-.033-1.443-.002-2.164z"/>
    <path fill="#fcfcfc" d="M5.899 11.66c-.033-.227.257-.363.441-.267.223.073.23.345.231.541-.007.377.068.803-.203 1.111l-.398-.011c-.14-.443-.067-.917-.07-1.374z"/>
    <path fill="#fafafa" d="M12.891 11.844c-.043-.149-.134-.367.023-.475a2.63 2.63 0 0 1 .561.007c.124.099.149.363.001.449-.195.022-.391.013-.585.019z"/>
    <path fill="#ccded1" d="M8.435 17.915c.221-1.507 1.565-2.681 3.031-2.913.743.057 1.545-.16 2.233.207 1.456.479 2.497 1.983 2.407 3.514-.128.758-.405 1.535-.973 2.078-.135.146-.275.312-.49.327.488-.439.913-.963 1.137-1.587a3.877 3.877 0 0 0-.001-2.149c-.526-1.441-2.061-2.404-3.579-2.332-1.557-.063-3.104.988-3.571 2.483a3.803 3.803 0 0 0-.031 1.737c.139.603.538 1.096.902 1.58-.471-.184-.647-.73-.893-1.133-.121-.595-.437-1.212-.173-1.813z"/>
    <path fill="#699f79" d="M8.629 17.544c.467-1.495 2.014-2.547 3.571-2.483 1.518-.072 3.053.891 3.579 2.332.201.699.203 1.449.001 2.149-.224.624-.649 1.148-1.137 1.587-.994.808-2.35.887-3.561.657-.573-.214-1.148-.48-1.581-.924-.364-.484-.763-.977-.902-1.58a3.79 3.79 0 0 1 .031-1.737zm3.058-2.323c-1.251.211-2.498 1.023-2.868 2.288-.37.824-.151 1.775.257 2.539.898 1.399 2.803 2.114 4.368 1.485 1.114-.327 2.017-1.28 2.305-2.398-.011-.619.141-1.301-.193-1.861-.634-1.449-2.329-2.292-3.869-2.053z"/>
    <path fill="#15682c" d="M11.687 15.221c1.539-.239 3.235.603 3.869 2.053.334.561.182 1.243.193 1.861-.288 1.118-1.191 2.071-2.305 2.398-1.565.629-3.47-.085-4.368-1.485-.408-.765-.627-1.715-.257-2.539.37-1.265 1.617-2.077 2.868-2.288z"/>
</svg>
