<!-- Generated by IcoMoon.io -->
<svg version="1.1" xmlns="http://www.w3.org/2000/svg" width="24" height="24" viewBox="0 0 24 24">
<title>regulatory--no-u-turn--g2</title>
<path fill="#c1121c" d="M11.010 0h1.926c4.216 0.365 8.154 3.029 9.924 6.893 0.631 1.29 0.931 2.702 1.14 4.114v1.934c-0.367 4.030-2.798 7.832-6.424 9.682-1.416 0.773-2.999 1.153-4.585 1.378h-1.927c-4.12-0.368-7.988-2.905-9.803-6.646-0.706-1.355-1.045-2.856-1.261-4.357v-1.945c0.196-1.459 0.52-2.916 1.18-4.242 1.776-3.809 5.668-6.419 9.83-6.81M11.084 3.17c-4.312 0.347-7.939 4.262-7.96 8.587-0.206 4.229 3.049 8.254 7.216 8.964 3.857 0.804 8.045-1.338 9.68-4.913 1.672-3.395 0.829-7.793-1.988-10.321-1.837-1.729-4.441-2.592-6.948-2.317z"></path>
<path fill="#f7fbf5" d="M11.084 3.17c2.507-0.275 5.111 0.588 6.948 2.317 2.818 2.528 3.66 6.926 1.988 10.321-1.636 3.575-5.824 5.717-9.68 4.913-4.166-0.71-7.422-4.735-7.216-8.964 0.020-4.325 3.648-8.24 7.96-8.587M8.552 6.629c-0.904 1.292-0.58 2.933-0.638 4.406-0.832-0.185-1.657-0.412-2.496-0.554-0.353-0.022-0.422 0.413-0.224 0.632 1.079 1.565 2.165 3.126 3.258 4.68 0.134 0.263 0.508 0.346 0.671 0.062 1.126-1.567 2.218-3.162 3.318-4.747 0.227-0.245 0.073-0.702-0.298-0.624-0.812 0.163-1.618 0.368-2.428 0.548 0.092-1.064-0.223-2.22 0.259-3.216 1.045-1.771 4.492-1.4 4.685 0.816 0.037 2.917 0.001 5.836 0.018 8.753 0.617-0.002 1.235-0.001 1.852-0.001 0.002-2.878 0.007-5.756-0.002-8.634 0.002-1.224-0.61-2.444-1.65-3.108-1.938-1.283-4.949-0.984-6.324 0.986z"></path>
<path fill="#2a2d2f" d="M8.552 6.629c1.375-1.97 4.386-2.269 6.324-0.986 1.040 0.664 1.652 1.884 1.65 3.108 0.010 2.878 0.005 5.756 0.002 8.634-0.617 0-1.235-0.001-1.852 0.001-0.017-2.917 0.019-5.836-0.018-8.753-0.193-2.216-3.64-2.587-4.685-0.816-0.482 0.996-0.167 2.152-0.259 3.216 0.81-0.18 1.615-0.385 2.428-0.548 0.371-0.078 0.524 0.379 0.298 0.624-1.1 1.585-2.192 3.18-3.318 4.747-0.163 0.283-0.536 0.2-0.671-0.062-1.093-1.554-2.179-3.115-3.258-4.68-0.198-0.22-0.128-0.654 0.224-0.632 0.839 0.143 1.664 0.37 2.496 0.554 0.059-1.474-0.265-3.114 0.638-4.406z"></path>
</svg>
