<!-- Generated by IcoMoon.io -->
<svg version="1.1" xmlns="http://www.w3.org/2000/svg" width="24" height="24" viewBox="0 0 24 24">
<title>regulatory--no-atvs--g1</title>
<path fill="#fff" d="M10.636 0h2.677c1.283 0.239 2.575 0.514 3.753 1.095-0.514-0.077-0.993-0.283-1.484-0.444-3.091-0.959-6.567-0.611-9.393 0.972-0.612 0.319-1.13 0.793-1.766 1.069 1.731-1.52 3.968-2.316 6.212-2.692z"></path>
<path fill="#fff" d="M17.713 1.425c0.441 0.234 0.868 0.497 1.272 0.792-0.473-0.174-0.92-0.423-1.272-0.792z"></path>
<path fill="#fff" d="M5.884 4.85c3.628-3.172 9.628-2.909 12.937 0.604 3.417 3.33 3.643 9.255 0.488 12.834-0.206-0.2-0.421-0.392-0.599-0.618 0.007-0.065 0.021-0.193 0.028-0.257 0.113 0 0.341 0.003 0.454 0.003 0.052-0.139 0.105-0.279 0.156-0.418 0.134-0.052 0.266-0.105 0.4-0.157 0.012-0.135 0.023-0.27 0.034-0.406 0.121-0.099 0.244-0.2 0.366-0.301-0.043-0.141-0.086-0.28-0.127-0.419 0.095-0.087 0.192-0.172 0.288-0.258-0.050-0.145-0.099-0.288-0.15-0.432 0.047-0.135 0.094-0.27 0.141-0.407-0.088-0.086-0.177-0.171-0.265-0.257 0.087-0.29 0.011-0.559-0.29-0.676 0.003-0.076 0.008-0.226 0.011-0.302-0.046-0.059-0.135-0.178-0.179-0.237-0.121 0.007-0.241 0.012-0.36 0.019 0.006-0.11 0.011-0.219 0.017-0.33-0.051-0.043-0.156-0.128-0.208-0.171-0.079 0-0.233-0.001-0.312-0.001-0.127-0.301-0.414-0.35-0.699-0.291-0.121-0.079-0.241-0.159-0.361-0.239-0.095 0.062-0.19 0.126-0.286 0.189-0.346-0.233-0.721 0.043-1.080 0.092-0.243 0.156-0.499 0.287-0.761 0.404-0.030 0.103-0.059 0.208-0.088 0.312-0.377 0.055-0.501 0.375-0.473 0.724-0.287-0.19-0.539-0.426-0.764-0.687 0.53-0.694 0.839-1.588 1.524-2.142 0.886-0.154 1.81-0.068 2.708-0.054 0.857 0.552 1.611 1.254 2.421 1.874 0.061-0.041 0.182-0.126 0.243-0.168-0.694-0.817-1.436-1.59-2.163-2.377-0.354-0.422-0.939-0.335-1.428-0.356-0.088-0.361 0.057-0.863-0.283-1.113-1.476 0.16-2.938 0.462-4.406 0.691-0.003 0.429-0.003 0.858 0 1.287 0.549 0.001 1.099 0.003 1.65 0.003-0.186 0.687-0.379 1.371-0.566 2.057-0.159-0.153-0.317-0.308-0.476-0.462l0.041-0.143c0.081-0.287 0.161-0.575 0.24-0.862-0.403-0.001-0.806 0.006-1.208-0.006-0.266-0.098-0.428-0.372-0.632-0.561 0.211 0.001 0.422 0.004 0.633 0.007 0.003-0.403 0.004-0.804 0.003-1.206-0.728-0.629-1.412-1.309-2.137-1.943-0.505-0.466-1.246-0.263-1.865-0.297l-0.079 0.001c-0.204-0.225-0.457-0.407-0.63-0.658l0.008-0.11c0.108-0.375 0.196-0.757 0.346-1.119 0.666-0.193 1.381 0.008 2.062-0.112 0.117-0.123 0.048-0.276 0.017-0.415-0.76 0.029-1.534-0.081-2.284 0.057-0.247 0.422-0.341 0.91-0.501 1.367-0.524-0.513-1.048-1.029-1.556-1.56z"></path>
<path fill="#fff" d="M2.774 4.303c0.459-0.57 0.967-1.105 1.56-1.537-0.452 0.575-0.975 1.098-1.56 1.537z"></path>
<path fill="#fff" d="M4.735 5.99c0.741 0.768 1.59 1.452 2.217 2.32-0.305 0.037-0.611 0.058-0.919 0.077-0.003 0.637-0.001 1.273-0.001 1.91-0.727 0.211-1.454 0.423-2.168 0.673 0.048 0.139 0.044 0.436 0.261 0.407 1.116-0.142 2.212-0.423 3.328-0.574 0.337-0.099 0.55 0.225 0.742 0.44 1.028 1.287 2.066 2.564 3.088 3.857 0.457 0.010 0.914 0.010 1.371 0.006 0-0.139 0.001-0.279 0.001-0.418-0.396-0.004-0.792-0.006-1.188-0.007-1.131-1.517-2.246-3.048-3.386-4.557-0.28-0.461-0.83-0.189-1.23-0.097 0.126-0.45 0.25-0.901 0.374-1.352l0.043-0.154c0.381 0.364 0.772 0.724 1.081 1.154 0.28 0.389 0.568 0.774 0.852 1.16 0.088 0.008 0.265 0.026 0.352 0.034l0.097 0.010c0.168 0.178 0.338 0.353 0.505 0.531-0.127 0-0.382 0.001-0.509 0.003 0.652 0.887 1.309 1.771 1.961 2.658 0.377-0.001 0.754-0.007 1.131-0.022l0.077-0.003c0.541 0.574 1.121 1.109 1.662 1.683 0.203 0.221 0.126 0.731 0.53 0.695-0.003 0.103-0.008 0.31-0.011 0.414 0.135 0.065 0.269 0.128 0.404 0.193 0.084 0.31 0.324 0.486 0.647 0.441 0.030 0.091 0.065 0.181 0.101 0.27 0.892 0.212 1.353 1.13 2.026 1.686-3.61 3.161-9.593 2.926-12.902-0.564-3.465-3.317-3.687-9.272-0.537-12.874M6.526 12.386c-0.101-0.086-0.2-0.171-0.299-0.257-0.145 0.109-0.29 0.221-0.433 0.332-0.063-0.036-0.19-0.106-0.254-0.141-0.154 0.092-0.279 0.219-0.361 0.382-0.179 0.025-0.356 0.062-0.526 0.127 0.006 0.087 0.015 0.262 0.019 0.349-0.356-0.066-0.571 0.222-0.465 0.552-0.332 0.077-0.455 0.404-0.247 0.673-0.323 0.105-0.316 0.452-0.137 0.683-0.149 0.247-0.163 0.531 0.091 0.714-0.011 0.178-0.017 0.357-0.014 0.537 0.077 0.029 0.232 0.084 0.309 0.112-0.057 0.31 0.119 0.604 0.469 0.575 0.015 0.083 0.047 0.247 0.063 0.33 0.059 0.034 0.178 0.103 0.237 0.138 0.065-0.019 0.194-0.057 0.259-0.074 0.025 0.073 0.073 0.221 0.098 0.294 0.081 0.034 0.244 0.102 0.326 0.137 0.062-0.044 0.186-0.135 0.25-0.179 0.116 0.314 0.497 0.432 0.695 0.121 0.228 0.258 0.617 0.207 0.713-0.138 0.072 0.041 0.214 0.127 0.286 0.17 0.19-0.094 0.342-0.226 0.363-0.451 0.095 0.030 0.192 0.059 0.287 0.090 0.087-0.074 0.175-0.15 0.262-0.225-0.011-0.070-0.036-0.211-0.047-0.281 0.090-0.001 0.272-0.004 0.361-0.004 0.099-0.174 0.159-0.361 0.166-0.561 0.199-0.050 0.284-0.217 0.357-0.389-0.037-0.068-0.112-0.203-0.149-0.27 0.062-0.055 0.189-0.168 0.252-0.225 0.008-0.066 0.025-0.2 0.033-0.266-0.068-0.052-0.2-0.157-0.266-0.21 0.063-0.050 0.193-0.148 0.258-0.197-0.008-0.066-0.026-0.199-0.034-0.265-0.068-0.058-0.203-0.172-0.27-0.229 0.241-0.291 0.011-0.588-0.305-0.646 0.028-0.095 0.055-0.192 0.083-0.287-0.046-0.063-0.135-0.188-0.179-0.251-0.114 0.007-0.228 0.014-0.341 0.022-0.041-0.177-0.087-0.35-0.137-0.523-0.108 0.006-0.321 0.018-0.428 0.025-0.021-0.361-0.404-0.356-0.665-0.295-0.183-0.222-0.528-0.306-0.681 0.003z"></path>
<path fill="#fff" d="M5.978 13.586c1.086-0.483 2.4 0.566 2.171 1.73-0.12 1.168-1.669 1.803-2.563 1.030-0.978-0.69-0.735-2.367 0.392-2.76M6.241 13.977c-0.865 0.203-1.121 1.459-0.411 1.988 0.623 0.566 1.739 0.166 1.866-0.665 0.194-0.808-0.669-1.592-1.455-1.323z"></path>
<path fill="#fff" d="M15.779 14.746c0.217-0.643 0.743-1.223 1.459-1.258 1.023-0.142 1.952 0.905 1.719 1.902-0.102 0.643-0.646 1.073-1.219 1.298-0.127-0.119-0.252-0.237-0.375-0.359 0.090-0.036 0.268-0.106 0.357-0.142 0.829-0.27 1.083-1.47 0.371-2.006-0.688-0.615-1.873-0.065-1.888 0.85l-0.030 0.143c-0.131-0.145-0.262-0.287-0.393-0.429z"></path>
<path fill="#c0111e" d="M6.189 1.623c2.826-1.583 6.302-1.931 9.393-0.972 0.491 0.161 0.97 0.367 1.484 0.444 0.223 0.095 0.439 0.207 0.647 0.33 0.352 0.368 0.799 0.618 1.272 0.792 2.799 1.908 4.545 5.098 5.015 8.418v2.706c-0.567 4.619-3.903 8.788-8.39 10.132-0.737 0.243-1.506 0.349-2.259 0.527h-2.684c-1.185-0.236-2.382-0.47-3.487-0.981-3.894-1.652-6.636-5.481-7.179-9.65v-2.796c0.383-2.273 1.219-4.532 2.774-6.27 0.585-0.439 1.108-0.961 1.56-1.537 0.029-0.025 0.059-0.050 0.090-0.074 0.636-0.276 1.153-0.75 1.766-1.069M5.884 4.85c0.508 0.531 1.032 1.047 1.556 1.56 0.088 0.106 0.189 0.194 0.305 0.265l0.055-0.043-0.008 0.11c0.174 0.251 0.426 0.433 0.63 0.658l0.079-0.001c1.069 1.194 2.276 2.261 3.366 3.439 0.204 0.189 0.366 0.463 0.632 0.561 0.274 0.363 0.596 0.684 0.934 0.989l0.034-0.121-0.041 0.143c0.159 0.154 0.317 0.309 0.476 0.462 0.101 0.099 0.2 0.199 0.299 0.298 0.225 0.261 0.477 0.497 0.764 0.687l-0.006 0.062c0.273 0.276 0.542 0.556 0.821 0.828 0.131 0.142 0.262 0.284 0.393 0.429l0.030-0.143c0.317 0.541 0.81 1.194 1.517 1.156-0.090 0.036-0.268 0.106-0.357 0.142 0.123 0.121 0.248 0.24 0.375 0.359 0.324 0.327 0.639 0.665 0.972 0.982 0.178 0.226 0.393 0.418 0.599 0.618 3.154-3.579 2.928-9.505-0.488-12.834-3.309-3.513-9.309-3.777-12.937-0.604M4.735 5.99c-3.15 3.603-2.928 9.557 0.537 12.874 3.309 3.49 9.292 3.726 12.902 0.564-0.673-0.556-1.134-1.473-2.026-1.686-0.036-0.090-0.070-0.179-0.101-0.27-0.218-0.444-0.581-0.851-1.040-1.048-0.404 0.036-0.327-0.474-0.53-0.695-0.541-0.574-1.121-1.109-1.662-1.683l-0.077 0.003c-0.814-0.926-1.732-1.749-2.583-2.639-0.167-0.178-0.337-0.353-0.505-0.531l-0.097-0.010c-0.356-0.44-0.753-0.851-1.204-1.194-0.309-0.43-0.701-0.79-1.081-1.154l-0.043 0.154 0.037-0.131c-0.057-0.062-0.17-0.183-0.226-0.244l-0.084 0.010c-0.626-0.868-1.476-1.552-2.217-2.32z"></path>
<path fill="#030303" d="M7.941 5.043c0.75-0.138 1.524-0.028 2.284-0.057 0.032 0.139 0.101 0.292-0.017 0.415-0.681 0.12-1.396-0.081-2.062 0.112-0.15 0.361-0.239 0.743-0.346 1.119l-0.055 0.043c-0.116-0.070-0.217-0.159-0.305-0.265 0.16-0.457 0.254-0.945 0.501-1.367z"></path>
<path fill="#030303" d="M8.501 7.399c0.619 0.033 1.36-0.17 1.865 0.297 0.724 0.634 1.408 1.314 2.137 1.943 0.001 0.401 0 0.803-0.003 1.206-0.211-0.003-0.422-0.006-0.633-0.007-1.090-1.178-2.297-2.244-3.366-3.439z"></path>
<path fill="#030303" d="M6.033 8.388c0.308-0.019 0.614-0.040 0.919-0.077l0.084-0.010c0.057 0.061 0.17 0.182 0.226 0.244l-0.037 0.131c-0.124 0.451-0.248 0.902-0.374 1.352 0.4-0.092 0.95-0.364 1.23 0.097 1.141 1.509 2.255 3.040 3.386 4.557 0.396 0.001 0.792 0.003 1.188 0.007 0 0.139-0.001 0.279-0.001 0.418-0.457 0.004-0.914 0.004-1.371-0.006-1.022-1.292-2.061-2.57-3.088-3.857-0.192-0.215-0.406-0.539-0.742-0.44-1.116 0.15-2.212 0.432-3.328 0.574-0.217 0.029-0.212-0.268-0.261-0.407 0.714-0.25 1.441-0.462 2.168-0.673 0-0.637-0.001-1.273 0.001-1.91z"></path>
<path fill="#030303" d="M12.817 9.526c1.468-0.229 2.93-0.531 4.406-0.691 0.339 0.25 0.194 0.752 0.283 1.113 0.488 0.021 1.073-0.066 1.428 0.356 0.727 0.786 1.469 1.56 2.163 2.377-0.061 0.043-0.182 0.127-0.243 0.168-0.81-0.621-1.564-1.323-2.421-1.874-0.898-0.014-1.822-0.101-2.708 0.054-0.686 0.554-0.994 1.448-1.524 2.142-0.099-0.099-0.199-0.199-0.299-0.298 0.186-0.686 0.379-1.37 0.566-2.057-0.55 0-1.101-0.001-1.65-0.003-0.003-0.429-0.003-0.858 0-1.287z"></path>
<path fill="#030303" d="M8.349 9.676c0.451 0.343 0.848 0.754 1.204 1.194-0.087-0.008-0.263-0.026-0.352-0.034-0.284-0.386-0.572-0.771-0.852-1.16z"></path>
<path fill="#030303" d="M9.646 11.414c0.127-0.001 0.382-0.003 0.509-0.003 0.851 0.89 1.77 1.713 2.583 2.639-0.377 0.015-0.754 0.021-1.131 0.022-0.652-0.887-1.309-1.771-1.961-2.658z"></path>
<path fill="#030303" d="M12.498 11.399c0.403 0.011 0.806 0.004 1.208 0.006-0.079 0.287-0.159 0.575-0.24 0.862l-0.034 0.121c-0.338-0.305-0.659-0.626-0.934-0.989z"></path>
<path fill="#030303" d="M6.526 12.386c0.153-0.309 0.498-0.225 0.681-0.003 0.261-0.061 0.644-0.066 0.665 0.295 0.106-0.007 0.32-0.019 0.428-0.025 0.050 0.172 0.095 0.346 0.137 0.523 0.113-0.008 0.226-0.015 0.341-0.022 0.044 0.063 0.134 0.188 0.179 0.251-0.028 0.095-0.055 0.192-0.083 0.287 0.316 0.058 0.546 0.354 0.305 0.646 0.068 0.057 0.203 0.171 0.27 0.229 0.008 0.066 0.026 0.199 0.034 0.265-0.065 0.050-0.194 0.148-0.258 0.197 0.066 0.052 0.199 0.157 0.266 0.21-0.008 0.066-0.025 0.2-0.033 0.266-0.063 0.057-0.19 0.17-0.252 0.225 0.037 0.068 0.112 0.203 0.149 0.27-0.073 0.172-0.159 0.339-0.357 0.389-0.007 0.2-0.066 0.388-0.166 0.561-0.090 0-0.272 0.003-0.361 0.004 0.011 0.070 0.036 0.211 0.047 0.281-0.087 0.074-0.175 0.15-0.262 0.225-0.095-0.030-0.192-0.059-0.287-0.090-0.021 0.225-0.172 0.357-0.363 0.451-0.072-0.043-0.214-0.128-0.286-0.17-0.097 0.345-0.486 0.396-0.713 0.138-0.199 0.31-0.579 0.193-0.695-0.121-0.063 0.044-0.188 0.135-0.25 0.179-0.081-0.034-0.244-0.102-0.326-0.137-0.025-0.073-0.073-0.221-0.098-0.294-0.065 0.018-0.194 0.055-0.259 0.074-0.059-0.034-0.178-0.103-0.237-0.138-0.017-0.083-0.048-0.247-0.063-0.33-0.35 0.029-0.526-0.265-0.469-0.575-0.077-0.028-0.232-0.083-0.309-0.112-0.003-0.179 0.003-0.359 0.014-0.537-0.254-0.183-0.24-0.468-0.091-0.714-0.179-0.23-0.186-0.578 0.137-0.683-0.208-0.269-0.086-0.596 0.247-0.673-0.106-0.33 0.109-0.618 0.465-0.552-0.004-0.087-0.014-0.262-0.019-0.349 0.17-0.065 0.346-0.102 0.526-0.127 0.083-0.163 0.207-0.29 0.361-0.382 0.063 0.034 0.19 0.105 0.254 0.141 0.143-0.112 0.288-0.223 0.433-0.332 0.099 0.086 0.199 0.171 0.299 0.257M5.978 13.586c-1.127 0.393-1.37 2.070-0.392 2.76 0.894 0.772 2.443 0.138 2.563-1.030 0.229-1.164-1.086-2.212-2.171-1.73z"></path>
<path fill="#030303" d="M16.287 12.417c0.359-0.050 0.734-0.326 1.080-0.092 0.095-0.063 0.19-0.127 0.286-0.189 0.12 0.080 0.24 0.16 0.361 0.239 0.286-0.059 0.572-0.010 0.699 0.291 0.079 0 0.233 0.001 0.312 0.001 0.052 0.043 0.157 0.128 0.208 0.171-0.006 0.11-0.011 0.219-0.017 0.33 0.119-0.007 0.239-0.012 0.36-0.019 0.044 0.059 0.134 0.178 0.179 0.237-0.003 0.076-0.008 0.226-0.011 0.302 0.301 0.117 0.377 0.386 0.29 0.676 0.088 0.086 0.177 0.171 0.265 0.257-0.047 0.137-0.094 0.272-0.141 0.407 0.051 0.143 0.101 0.287 0.15 0.432-0.097 0.086-0.193 0.171-0.288 0.258 0.041 0.139 0.084 0.279 0.127 0.419-0.121 0.101-0.244 0.201-0.366 0.301-0.011 0.135-0.022 0.27-0.034 0.406-0.134 0.052-0.266 0.105-0.4 0.157-0.051 0.139-0.103 0.279-0.156 0.418-0.113 0-0.341-0.003-0.454-0.003-0.007 0.063-0.021 0.192-0.028 0.257-0.334-0.317-0.648-0.655-0.972-0.982 0.574-0.225 1.117-0.655 1.219-1.298 0.233-0.997-0.695-2.044-1.719-1.902-0.716 0.034-1.243 0.615-1.459 1.258-0.279-0.272-0.548-0.552-0.821-0.828l0.006-0.062c-0.028-0.349 0.097-0.669 0.473-0.724 0.029-0.103 0.058-0.208 0.088-0.312 0.262-0.117 0.519-0.248 0.761-0.404z"></path>
<path fill="#030303" d="M6.241 13.977c0.786-0.269 1.65 0.514 1.455 1.323-0.127 0.83-1.243 1.23-1.866 0.665-0.71-0.528-0.454-1.785 0.411-1.988z"></path>
<path fill="#030303" d="M16.203 15.032c0.015-0.914 1.2-1.465 1.888-0.85 0.712 0.535 0.458 1.735-0.371 2.006-0.708 0.039-1.2-0.615-1.517-1.156z"></path>
<path fill="#030303" d="M15.007 16.425c0.459 0.197 0.822 0.604 1.040 1.048-0.323 0.044-0.563-0.131-0.647-0.441-0.135-0.065-0.269-0.128-0.404-0.193 0.003-0.103 0.008-0.31 0.011-0.414z"></path>
</svg>
