<!-- Generated by IcoMoon.io -->
<svg version="1.1" xmlns="http://www.w3.org/2000/svg" width="19" height="24" viewBox="0 0 19 24">
<title>regulatory--no-turn-on-red--g1</title>
<path fill="#1a1919" d="M0 0.924c0.189-0.363 0.473-0.742 0.891-0.84 5.743-0.040 11.488-0.007 17.231-0.014 0.358-0.036 0.64 0.246 0.858 0.492 0.193 0.194 0.151 0.487 0.186 0.735 0.033 0.846 0.021 1.693 0.051 2.539v19.2c-0.161 0.411-0.435 0.781-0.848 0.964h-17.563c-0.354-0.182-0.635-0.485-0.806-0.844v-22.232M1.068 0.178c-0.513 0.052-0.935 0.529-0.967 1.036-0.001 7.218-0.001 14.436 0 21.654 0.033 0.579 0.568 1.076 1.153 1.046 5.379 0.004 10.759 0 16.138 0.002 0.296-0.004 0.596 0.020 0.887-0.047 0.475-0.141 0.833-0.628 0.802-1.126-0.002-7.177 0-14.353-0.001-21.53-0.029-0.585-0.572-1.084-1.16-1.053-5.527-0.004-11.055 0-16.582-0.002-0.090 0-0.18 0.008-0.27 0.020z"></path>
<path fill="#1a1919" d="M0.986 0.424c0.168-0.041 0.342-0.038 0.514-0.036 5.473 0.001 10.945-0.001 16.417 0.001 0.479-0.025 0.92 0.388 0.932 0.865 0 7.191 0 14.382-0 21.574-0.016 0.474-0.456 0.882-0.932 0.858-5.554 0.001-11.107 0.002-16.66-0-0.475 0.022-0.913-0.385-0.928-0.857-0-7.191 0-14.383 0-21.574 0.011-0.376 0.293-0.731 0.656-0.829M1.107 0.909c-0.164 0.048-0.284 0.215-0.279 0.386 0 7.163 0 14.326 0 21.489-0.008 0.245 0.232 0.429 0.467 0.405 5.543-0.001 11.085 0.002 16.628-0.002 0.222 0.013 0.435-0.173 0.429-0.4 0.001-7.164 0-14.329 0-21.493 0.009-0.229-0.206-0.423-0.431-0.408-5.541-0.002-11.083 0-16.624-0.001-0.064 0.001-0.129 0.004-0.19 0.023z"></path>
<path fill="#1a1919" d="M11.451 2.256c0.538-0.088 1.113 0.093 1.481 0.5 0.756 0.941 0.743 2.388 0.013 3.34-0.549 0.632-1.6 0.717-2.251 0.197-0.75-0.615-0.909-1.716-0.697-2.62 0.131-0.711 0.705-1.363 1.453-1.417M11.528 3.017c-0.223 0.020-0.417 0.166-0.55 0.339-0.397 0.633-0.394 1.496-0.011 2.135 0.342 0.529 1.258 0.5 1.543-0.072 0.294-0.634 0.308-1.423-0.044-2.037-0.19-0.316-0.59-0.439-0.939-0.365z"></path>
<path fill="#1a1919" d="M5.514 2.306c0.25 0.011 0.511-0.026 0.754 0.017 0.654 0.924 1.296 1.859 1.946 2.786 0.001-0.934-0.001-1.869 0.001-2.803 0.243-0.001 0.486-0.002 0.73 0 0.001 1.417 0 2.834 0 4.251-0.219 0-0.439 0.002-0.658-0.001-0.676-0.974-1.35-1.949-2.028-2.921-0.002 0.974 0.001 1.948-0.002 2.921-0.248 0-0.496 0-0.744 0-0.001-1.417-0.001-2.835 0-4.252z"></path>
<path fill="#1a1919" d="M4.174 8.383c0.659-0.001 1.318-0.001 1.976 0 0.001 0.149 0.001 0.299 0 0.448-0.247 0.002-0.494-0.001-0.741 0.002-0.002 0.917 0.001 1.835-0.002 2.752-0.168 0-0.336 0-0.503-0-0.003-0.917 0-1.835-0.002-2.753-0.243-0.002-0.486 0.001-0.73-0.001-0.001-0.149-0.001-0.299 0-0.448z"></path>
<path fill="#1a1919" d="M6.613 8.383c0.169 0.003 0.34-0.011 0.508 0.009-0.009 0.689 0 1.378-0.004 2.068-0.005 0.178 0.063 0.354 0.175 0.492 0.208 0.227 0.613 0.227 0.821-0 0.111-0.138 0.18-0.313 0.175-0.492-0.003-0.69 0.002-1.38-0.003-2.071 0.169-0.013 0.338-0.005 0.507-0.006 0 0.707 0.002 1.414-0.001 2.12-0.018 0.329-0.113 0.693-0.397 0.892-0.401 0.335-1.042 0.318-1.426-0.036-0.255-0.203-0.334-0.547-0.354-0.856-0.003-0.707-0.001-1.414-0.001-2.12z"></path>
<path fill="#1a1919" d="M9.547 8.403c0.368-0.048 0.772-0.010 1.154-0.018 0.358-0.015 0.732 0.178 0.87 0.519 0.214 0.422 0.016 0.981-0.405 1.189 0.184 0.498 0.375 0.994 0.559 1.492-0.184 0-0.367 0.002-0.551-0.001-0.172-0.464-0.342-0.93-0.518-1.393-0.201 0.001-0.402 0-0.603 0.001-0.003 0.464 0 0.929-0.002 1.393-0.169 0-0.337 0.001-0.506-0 0.002-1.061-0.003-2.121 0.002-3.182M10.052 8.888c-0.001 0.262-0.002 0.524 0 0.786 0.242-0.002 0.484 0.008 0.725-0.006 0.268-0.006 0.492-0.344 0.321-0.578-0.237-0.337-0.703-0.156-1.047-0.202z"></path>
<path fill="#1a1919" d="M12.255 8.383c0.168-0.002 0.336-0.002 0.505 0 0.39 0.68 0.777 1.363 1.168 2.042 0.002-0.681-0.001-1.361 0.001-2.042 0.168-0.002 0.336-0.002 0.504-0 0.001 1.067 0.002 2.135 0 3.202-0.149 0.001-0.298 0-0.446 0.001-0.413-0.718-0.812-1.443-1.226-2.16-0.005 0.72-0 1.44-0.002 2.16-0.169 0.001-0.337 0.001-0.505 0-0-1.067-0-2.134 0-3.202z"></path>
<path fill="#1a1919" d="M7.715 13.473c0.403-0.1 0.859 0.024 1.091 0.384 0.298 0.51 0.35 1.134 0.266 1.71-0.063 0.424-0.229 0.896-0.636 1.101-0.451 0.183-1.052 0.088-1.312-0.36-0.373-0.73-0.405-1.651-0.010-2.38 0.107-0.238 0.345-0.416 0.602-0.456M7.755 14.002c-0.192 0.096-0.279 0.32-0.329 0.518-0.124 0.497-0.11 1.052 0.141 1.508 0.192 0.303 0.715 0.27 0.854-0.067 0.243-0.546 0.254-1.211-0.010-1.754-0.117-0.236-0.425-0.299-0.656-0.206z"></path>
<path fill="#1a1919" d="M9.805 13.498c0.166-0.002 0.332 0.001 0.498-0.003 0.4 0.675 0.777 1.363 1.173 2.039 0.005-0.679 0-1.357 0.003-2.036 0.168-0.001 0.336-0.002 0.505 0.001 0.001 1.067 0 2.134 0 3.201-0.151 0.002-0.302 0.003-0.453-0.002-0.405-0.722-0.812-1.443-1.221-2.162-0.002 0.722 0 1.443-0.001 2.164-0.168 0.001-0.336 0.001-0.505 0-0.001-1.067-0.001-2.134 0-3.201z"></path>
<path fill="#1a1919" d="M5.775 18.501c0.43 0.004 0.861-0.015 1.291 0.014 0.328 0.013 0.638 0.235 0.751 0.545 0.189 0.419-0.015 0.949-0.423 1.153 0.187 0.496 0.375 0.992 0.559 1.49-0.182 0.002-0.364 0-0.547 0.001-0.177-0.463-0.344-0.93-0.52-1.393-0.202-0.001-0.404-0.002-0.606 0-0.002 0.464 0 0.928-0.001 1.392-0.168 0.001-0.336 0.001-0.504 0.001-0.003-1.068-0.001-2.135-0.001-3.203M6.281 19.007c-0.002 0.262-0.002 0.523 0 0.785 0.341-0.044 0.794 0.13 1.037-0.189 0.184-0.229-0.033-0.576-0.303-0.591-0.244-0.013-0.49-0.004-0.734-0.005z"></path>
<path fill="#1a1919" d="M8.484 18.501c0.629-0.001 1.258-0 1.888-0 0.001 0.169 0.001 0.337 0 0.506-0.461 0.001-0.921-0.001-1.382 0.001-0.001 0.262-0.002 0.523 0 0.785 0.311 0.002 0.621-0.001 0.932 0.001 0 0.172 0 0.344 0 0.516-0.311 0.002-0.622-0.001-0.933 0.002-0.003 0.289 0.004 0.578-0.004 0.867 0.495 0.020 0.991 0.002 1.486 0.009 0.001 0.172 0.001 0.344 0 0.516-0.663 0.001-1.326 0.002-1.989-0 0-1.067-0.001-2.134 0-3.202z"></path>
<path fill="#1a1919" d="M11.001 18.501c0.465 0.011 0.934-0.030 1.397 0.033 0.326 0.103 0.535 0.422 0.648 0.728 0.199 0.587 0.188 1.254-0.069 1.822-0.169 0.302-0.444 0.606-0.816 0.617-0.386 0.007-0.772-0-1.159 0.003-0.006-1.068-0.002-2.136-0.002-3.204M11.507 19.007c-0.001 0.726-0.002 1.453 0 2.179 0.25-0.011 0.511 0.034 0.752-0.045 0.237-0.134 0.333-0.419 0.375-0.674 0.056-0.429 0.052-0.913-0.197-1.284-0.222-0.281-0.624-0.146-0.93-0.176z"></path>
<path fill="#fffffe" d="M1.068 0.178c0.090-0.012 0.18-0.019 0.27-0.020 5.527 0.002 11.055-0.002 16.582 0.002 0.588-0.031 1.131 0.469 1.16 1.053 0.001 7.176-0.001 14.353 0.001 21.53 0.030 0.498-0.327 0.985-0.802 1.126-0.291 0.066-0.591 0.043-0.887 0.047-5.379-0.001-10.759 0.002-16.138-0.002-0.585 0.029-1.12-0.468-1.153-1.046-0.001-7.218-0.001-14.436 0-21.654 0.032-0.507 0.454-0.984 0.967-1.036M0.986 0.424c-0.363 0.098-0.646 0.453-0.656 0.829 0 7.191-0 14.383 0 21.574 0.015 0.472 0.453 0.88 0.928 0.857 5.553 0.002 11.106 0.002 16.66 0 0.476 0.024 0.916-0.384 0.932-0.858 0.001-7.191 0-14.383 0-21.574-0.012-0.476-0.454-0.89-0.932-0.865-5.472-0.002-10.945 0-16.417-0.001-0.172-0.002-0.346-0.004-0.514 0.036z"></path>
<path fill="#fffffe" d="M1.107 0.909c0.061-0.018 0.126-0.021 0.19-0.023 5.541 0.001 11.083-0.001 16.624 0.001 0.226-0.015 0.44 0.179 0.431 0.408 0 7.164 0 14.328-0 21.493 0.006 0.227-0.207 0.412-0.429 0.4-5.543 0.004-11.085 0.001-16.628 0.002-0.235 0.024-0.475-0.16-0.467-0.405 0-7.163 0-14.326 0-21.489-0.005-0.171 0.115-0.338 0.279-0.386M11.451 2.256c-0.748 0.055-1.322 0.706-1.453 1.417-0.212 0.903-0.053 2.004 0.697 2.62 0.651 0.52 1.702 0.435 2.251-0.197 0.729-0.952 0.742-2.399-0.013-3.34-0.369-0.407-0.943-0.587-1.481-0.5M5.514 2.306c-0.001 1.417-0.001 2.835 0 4.252 0.248 0 0.496 0 0.744-0 0.002-0.974-0-1.948 0.002-2.921 0.678 0.972 1.352 1.947 2.028 2.921 0.219 0.002 0.438 0.001 0.658 0.001 0-1.417 0.001-2.835 0-4.251-0.243-0.002-0.486-0.002-0.73-0-0.002 0.934 0 1.869-0.001 2.803-0.651-0.927-1.292-1.862-1.946-2.786-0.243-0.043-0.504-0.006-0.754-0.017M4.174 8.383c-0.002 0.15-0.002 0.299-0 0.448 0.243 0.002 0.486-0 0.73 0.001 0.002 0.918-0.001 1.835 0.002 2.753 0.167 0.001 0.335 0.001 0.503 0 0.003-0.917 0-1.835 0.002-2.752 0.247-0.003 0.494 0 0.741-0.002 0-0.149 0-0.299-0-0.448-0.659-0.002-1.318-0.001-1.976-0M6.613 8.383c-0 0.707-0.002 1.414 0.001 2.12 0.019 0.309 0.099 0.654 0.354 0.856 0.384 0.354 1.025 0.371 1.426 0.036 0.284-0.199 0.379-0.564 0.397-0.892 0.003-0.707 0.001-1.413 0.001-2.12-0.169 0.001-0.339-0.007-0.507 0.006 0.005 0.69-0 1.38 0.003 2.071 0.005 0.178-0.063 0.354-0.175 0.492-0.208 0.228-0.613 0.228-0.821 0-0.112-0.138-0.18-0.314-0.175-0.492 0.004-0.69-0.004-1.379 0.004-2.068-0.169-0.020-0.339-0.006-0.508-0.009M9.547 8.403c-0.006 1.061-0.001 2.121-0.002 3.182 0.169 0.001 0.337 0.001 0.506 0 0.002-0.464-0.002-0.929 0.002-1.393 0.201-0.001 0.402-0 0.603-0.001 0.176 0.463 0.345 0.928 0.518 1.393 0.184 0.003 0.367 0.002 0.551 0.001-0.184-0.498-0.374-0.994-0.559-1.492 0.421-0.208 0.619-0.767 0.405-1.189-0.138-0.341-0.512-0.533-0.87-0.519-0.382 0.008-0.786-0.030-1.154 0.018M12.255 8.383c-0.001 1.067-0.001 2.134-0 3.202 0.168 0.001 0.336 0.001 0.505 0 0.002-0.72-0.003-1.44 0.002-2.16 0.414 0.717 0.813 1.443 1.226 2.16 0.149-0 0.298 0 0.446-0.001 0.002-1.067 0.001-2.135 0-3.202-0.168-0.001-0.336-0.001-0.504 0-0.002 0.681 0 1.361-0.001 2.042-0.391-0.679-0.778-1.362-1.168-2.042-0.169-0.002-0.337-0.002-0.505 0M7.715 13.473c-0.257 0.040-0.495 0.217-0.602 0.456-0.395 0.729-0.363 1.65 0.010 2.38 0.26 0.448 0.861 0.543 1.312 0.36 0.407-0.205 0.573-0.677 0.636-1.101 0.084-0.576 0.032-1.2-0.266-1.71-0.231-0.36-0.688-0.484-1.091-0.384M9.805 13.498c-0.001 1.067-0.001 2.134-0 3.201 0.168 0.001 0.336 0.001 0.505 0 0.001-0.721-0.001-1.443 0.001-2.164 0.409 0.72 0.816 1.44 1.221 2.162 0.151 0.004 0.302 0.003 0.453 0.002-0-1.067 0-2.134-0-3.201-0.169-0.002-0.337-0.002-0.505-0.001-0.003 0.679 0.002 1.358-0.003 2.036-0.396-0.677-0.774-1.365-1.173-2.039-0.166 0.004-0.332 0.001-0.498 0.003M5.775 18.501c0 1.067-0.002 2.135 0.001 3.203 0.168 0 0.336 0 0.504-0.001 0.001-0.464-0.001-0.928 0.001-1.392 0.202-0.002 0.404-0.002 0.606-0 0.176 0.463 0.343 0.93 0.52 1.393 0.182-0 0.364 0.001 0.547-0.001-0.184-0.497-0.372-0.994-0.559-1.49 0.407-0.204 0.612-0.734 0.423-1.153-0.113-0.31-0.423-0.532-0.751-0.545-0.43-0.029-0.861-0.009-1.291-0.014M8.484 18.501c-0.001 1.067-0 2.134-0 3.202 0.663 0.002 1.326 0.002 1.989 0 0.001-0.172 0.001-0.344 0-0.516-0.495-0.007-0.992 0.011-1.486-0.009 0.007-0.289 0.001-0.578 0.004-0.867 0.311-0.003 0.622 0 0.933-0.002 0-0.172 0-0.344-0-0.516-0.311-0.002-0.621 0.001-0.932-0.001-0.002-0.262-0.001-0.523 0-0.785 0.461-0.002 0.921 0 1.382-0.001 0-0.169 0.001-0.337-0-0.506-0.629 0-1.258-0-1.888 0M11.001 18.501c0 1.068-0.004 2.136 0.002 3.204 0.386-0.004 0.773 0.004 1.159-0.003 0.372-0.011 0.647-0.315 0.816-0.617 0.256-0.568 0.267-1.234 0.069-1.822-0.114-0.306-0.323-0.625-0.648-0.728-0.463-0.063-0.932-0.022-1.397-0.033z"></path>
<path fill="#fffffe" d="M11.528 3.017c0.349-0.074 0.75 0.049 0.939 0.365 0.352 0.615 0.338 1.403 0.044 2.037-0.285 0.572-1.201 0.601-1.543 0.072-0.384-0.639-0.387-1.502 0.011-2.135 0.133-0.173 0.327-0.319 0.55-0.339z"></path>
<path fill="#fffffe" d="M10.052 8.888c0.344 0.045 0.81-0.135 1.047 0.202 0.17 0.234-0.054 0.571-0.321 0.578-0.241 0.014-0.483 0.004-0.725 0.006-0.002-0.262-0.002-0.524-0-0.786z"></path>
<path fill="#fffffe" d="M7.755 14.002c0.231-0.093 0.539-0.031 0.656 0.206 0.264 0.542 0.253 1.207 0.010 1.754-0.139 0.337-0.662 0.37-0.854 0.067-0.252-0.456-0.266-1.011-0.141-1.508 0.050-0.198 0.137-0.422 0.329-0.518z"></path>
<path fill="#fffffe" d="M6.281 19.007c0.244 0.002 0.49-0.008 0.734 0.005 0.27 0.015 0.488 0.362 0.303 0.591-0.244 0.319-0.697 0.145-1.037 0.189-0.002-0.262-0.002-0.523 0-0.785z"></path>
<path fill="#fffffe" d="M11.507 19.007c0.306 0.031 0.708-0.104 0.93 0.176 0.249 0.372 0.253 0.855 0.197 1.284-0.042 0.255-0.137 0.54-0.375 0.674-0.242 0.078-0.502 0.033-0.752 0.045-0.002-0.726-0.001-1.453-0-2.179z"></path>
</svg>
