<!-- Generated by IcoMoon.io -->
<svg version="1.1" xmlns="http://www.w3.org/2000/svg" width="23" height="24" viewBox="0 0 23 24">
<title>regulatory--no-motor-vehicles--g6</title>
<path fill="#c0111e" d="M0 10.394c0.762-5.529 5.891-10.211 11.546-10.017 5.617-0.29 10.914 4.266 11.708 9.787 0.288 2.050 0.13 4.184-0.612 6.127-1.092 2.934-3.429 5.373-6.308 6.6-2.617 1.134-5.649 1.235-8.36 0.379-4.126-1.337-7.303-5.098-7.973-9.378v-3.498M5.626 4.937c0.732 0.662 1.337 1.567 2.191 2.032l-0.089 0.071c0.739 0.745 1.481 1.486 2.22 2.229 1.622 1.63 3.249 3.255 4.878 4.878 0.211 0.208 0.421 0.418 0.631 0.627 0.112 0.114 0.224 0.229 0.335 0.344 0.149 0.157 0.286 0.342 0.488 0.435 0.359 0.446 0.773 0.843 1.205 1.219 0.079 0.183 0.267 0.283 0.415 0.404 0.242 0.362 0.603 0.626 0.899 0.943 1.955-2.292 2.684-5.552 1.882-8.457-0.8-3.089-3.307-5.652-6.374-6.532-2.959-0.895-6.318-0.185-8.68 1.806M2.356 11.213c-0.397 3.619 1.574 7.334 4.769 9.066 3.291 1.885 7.703 1.447 10.568-1.037-0.212-0.214-0.423-0.427-0.637-0.638-0.1-0.092-0.199-0.183-0.299-0.275-0.179-0.183-0.323-0.426-0.567-0.525-0.129-0.161-0.262-0.318-0.396-0.474-0.361-0.346-0.706-0.708-1.074-1.045-0.098-0.102-0.196-0.205-0.292-0.308-0.101-0.098-0.202-0.197-0.302-0.294l0.053-0.126c-0.061 0.019-0.183 0.057-0.245 0.076l0.092-0.066c-0.174-0.172-0.351-0.342-0.53-0.508-0.483-0.452-0.906-0.972-1.428-1.38-0.394-0.525-0.903-0.944-1.353-1.418l-0.054 0.087c-0.019-0.065-0.060-0.192-0.080-0.257-0.8-0.713-1.515-1.517-2.297-2.249-0.473-0.474-0.955-0.941-1.416-1.426-0.069-0.066-0.138-0.13-0.207-0.196-0.414-0.333-0.701-0.914-1.248-1.021 0.048-0.014 0.144-0.042 0.192-0.057-0.363-0.357-0.728-0.713-1.086-1.074-1.216 1.448-1.994 3.262-2.163 5.148z"></path>
<path fill="#fff" d="M5.626 4.937c2.362-1.99 5.72-2.701 8.68-1.806 3.067 0.88 5.573 3.443 6.374 6.532 0.803 2.905 0.074 6.164-1.882 8.457-0.295-0.317-0.657-0.581-0.899-0.943 0.043-1.146-0.944-2.162-2.108-2.058-0.111-0.115-0.223-0.23-0.335-0.344 0.845-0.145 1.703 0.129 2.305 0.734-0.006-0.331-0.005-0.662-0.003-0.993-0.293-0.249-0.586-0.497-0.878-0.746-0.636 0.014-1.271 0.025-1.906 0.046-0.050 0.111-0.098 0.221-0.147 0.332-1.629-1.623-3.256-3.248-4.878-4.878 1.265 0.001 2.53-0.005 3.795 0.003 0.065-0.761 0.751-1.439 1.544-1.263 0.623 0.085 0.984 0.675 1.081 1.249 0.854-0.007 1.707-0.011 2.56-0.015-0.235-0.686-0.439-1.381-0.574-2.094-0.796-0.111-1.614-0.074-2.399-0.24-0.577-0.47-1.032-1.074-1.571-1.588-1.579 0-3.158 0-4.738 0-0.616 0.542-1.198 1.124-1.828 1.648-0.854-0.465-1.458-1.37-2.191-2.032M14.76 8.334c-0.719 0.188-0.932 1.241-0.327 1.683 0.541 0.508 1.526 0.109 1.589-0.623 0.121-0.678-0.616-1.294-1.262-1.061z"></path>
<path fill="#fff" d="M8.315 6.932c0.468-0.435 0.944-0.858 1.417-1.286 0.658 0.001 1.317 0 1.974 0.001 0 0.429 0.001 0.858 0.001 1.287-1.131 0-2.262 0.005-3.393-0.002z"></path>
<path fill="#fff" d="M12.119 5.639c0.515 0 1.029-0.001 1.544 0.002 0.16 0.429 0.323 0.857 0.487 1.286-0.677 0.001-1.354 0-2.031 0 0-0.429 0-0.859 0-1.288z"></path>
<path fill="#fff" d="M2.356 11.213c0.17-1.886 0.948-3.7 2.163-5.148 0.358 0.361 0.722 0.718 1.086 1.074-0.049 0.015-0.145 0.043-0.192 0.057-0.266 0.037-0.532 0.079-0.797 0.119-0.074 0.655-0.213 1.311-0.154 1.974 0.548 0 1.096 0.008 1.644 0.008 0.087-0.404 0.278-0.772 0.555-1.080 0.069 0.066 0.138 0.13 0.207 0.196-0.431 0.404-0.594 1.148-0.098 1.571 0.438 0.443 1.116 0.246 1.515-0.145 0.782 0.732 1.497 1.536 2.297 2.249-0.223 0.241-0.439 0.49-0.651 0.743-0.405-0.105-0.816-0.19-1.227-0.272-0.104 0.332-0.079 0.675 0.022 1.003 0.148 0.014 0.297 0.027 0.445 0.041-0.343 0.518-0.686 1.038-1.026 1.56-0.8-0.274-1.871-0.194-2.296 0.648-0.871 1.008-0.3 2.755 1.008 3.031 1.272 0.37 2.486-0.851 2.44-2.088-0.052-0.543-0.396-0.993-0.775-1.361 0.336-0.499 0.667-1.003 1.025-1.486 0.139 0.198 0.274 0.397 0.425 0.588-0.13 0.071-0.262 0.144-0.392 0.217 0.175 0.749 0.341 1.502 0.514 2.253 0.063 0.412 0.398 0.763 0.787 0.886 1.154 0.065 2.312 0.058 3.468 0.098 0.567 0.902 1.795 1.21 2.711 0.653 0.214 0.212 0.426 0.425 0.637 0.638-2.865 2.484-7.277 2.922-10.568 1.037-3.196-1.732-5.167-5.446-4.769-9.066z"></path>
<path fill="#fff" d="M10.661 12.346l0.054-0.087c0.449 0.474 0.959 0.893 1.353 1.418-0.649-0.436-1.417-0.503-2.148-0.242 0.249-0.362 0.513-0.713 0.74-1.089z"></path>
<path fill="#fff" d="M10.597 14.966c0.966 0.025 1.934 0.235 2.898 0.092 0.179 0.166 0.355 0.336 0.53 0.508l-0.092 0.066c-0.354 0.251-0.675 0.546-1.008 0.824-0.777-0.497-1.555-0.989-2.329-1.49z"></path>
<path fill="#fff" d="M16.279 15.554c0.593 0.175 1.025 0.634 1.205 1.219-0.431-0.376-0.846-0.773-1.205-1.219z"></path>
<path fill="#fff" d="M5.978 16.863c0.071-0.85 0.995-1.355 1.783-1.135-0.182 0.335-0.413 0.653-0.8 0.758-0.599 0.29-0.25 1.291 0.398 1.198 0.614-0.028 0.787-0.796 0.43-1.22 0.121-0.172 0.242-0.344 0.365-0.515 0.709 0.601 0.629 1.863-0.245 2.263-0.892 0.511-2.1-0.338-1.931-1.348z"></path>
<path fill="#fff" d="M14.125 15.682c0.101 0.097 0.202 0.196 0.302 0.294-0.155 0.357-0.257 0.732-0.326 1.115-0.131-0.002-0.262-0.005-0.392-0.007 0.053-0.489 0.203-0.96 0.415-1.403z"></path>
<path fill="#fff" d="M10.37 16.529c0.245-0.286 0.49-0.573 0.752-0.845-0.205 0.44-0.454 0.874-0.499 1.368 0.318 0.182 0.637 0.438 1.029 0.391 0.96-0.067 1.956 0.046 2.875-0.3 0.055-0.289 0.12-0.575 0.192-0.859 0.368 0.337 0.713 0.698 1.074 1.045-0.145 0.062-0.29 0.126-0.434 0.189 0.272 0.108 0.55 0.199 0.83 0.285 0.245 0.1 0.388 0.342 0.567 0.525-0.777 0.315-1.677 0.055-2.105-0.678-0.98 0.272-2.003 0.091-3.002 0.117-0.465 0.042-0.834-0.273-1.208-0.496-0.025-0.247-0.049-0.495-0.072-0.742z"></path>
<path fill="#fff" d="M7.178 16.574c0.325-0.113 0.677 0.232 0.572 0.558-0.075 0.322-0.524 0.452-0.754 0.211-0.258-0.222-0.142-0.685 0.182-0.769z"></path>
<path fill="#030303" d="M9.645 5.321c1.579 0 3.158 0 4.738 0 0.539 0.514 0.994 1.118 1.571 1.588 0.785 0.166 1.603 0.129 2.399 0.24 0.135 0.713 0.338 1.408 0.574 2.094-0.852 0.003-1.706 0.008-2.56 0.015-0.097-0.574-0.458-1.164-1.081-1.249-0.794-0.175-1.48 0.503-1.544 1.263-1.265-0.008-2.53-0.002-3.795-0.003-0.739-0.743-1.481-1.484-2.22-2.229l0.089-0.071c0.631-0.524 1.212-1.106 1.828-1.648M8.315 6.932c1.131 0.007 2.262 0.002 3.393 0.002 0-0.429-0.001-0.858-0.001-1.287-0.658-0.001-1.317 0-1.974-0.001-0.473 0.428-0.95 0.851-1.417 1.286M12.119 5.639c0 0.429 0 0.859 0 1.288 0.677 0 1.354 0.001 2.031 0-0.164-0.429-0.327-0.857-0.487-1.286-0.515-0.003-1.029-0.002-1.544-0.002z"></path>
<path fill="#030303" d="M4.615 7.315c0.265-0.040 0.531-0.082 0.797-0.119 0.547 0.108 0.833 0.688 1.248 1.021-0.276 0.308-0.468 0.676-0.555 1.080-0.548 0-1.096-0.008-1.644-0.008-0.059-0.663 0.080-1.319 0.154-1.974z"></path>
<path fill="#030303" d="M14.76 8.334c0.646-0.233 1.383 0.383 1.262 1.061-0.063 0.731-1.048 1.131-1.589 0.623-0.605-0.443-0.392-1.495 0.327-1.683z"></path>
<path fill="#030303" d="M6.769 9.985c-0.496-0.423-0.333-1.167 0.098-1.571 0.461 0.486 0.943 0.952 1.416 1.426-0.398 0.391-1.077 0.588-1.515 0.145z"></path>
<path fill="#030303" d="M10.58 12.089c0.020 0.065 0.061 0.192 0.080 0.257-0.228 0.376-0.491 0.727-0.74 1.089 0.73-0.26 1.499-0.194 2.148 0.242 0.522 0.408 0.944 0.928 1.428 1.38-0.965 0.144-1.932-0.067-2.898-0.092 0.773 0.5 1.552 0.993 2.329 1.49 0.333-0.278 0.653-0.573 1.008-0.824 0.061-0.019 0.183-0.057 0.245-0.076l-0.053 0.126c-0.213 0.443-0.362 0.914-0.415 1.403 0.13 0.002 0.26 0.005 0.392 0.007 0.069-0.383 0.171-0.758 0.326-1.115 0.096 0.103 0.194 0.206 0.292 0.308-0.072 0.284-0.137 0.571-0.192 0.859-0.919 0.346-1.915 0.233-2.875 0.3-0.392 0.048-0.711-0.208-1.029-0.391 0.045-0.494 0.294-0.927 0.499-1.368-0.262 0.272-0.507 0.558-0.752 0.845 0.024 0.247 0.048 0.495 0.072 0.742 0.374 0.223 0.743 0.538 1.208 0.496 1-0.026 2.022 0.155 3.002-0.117 0.428 0.734 1.328 0.993 2.105 0.678 0.1 0.092 0.199 0.183 0.299 0.275-0.916 0.557-2.144 0.249-2.711-0.653-1.156-0.041-2.314-0.034-3.468-0.098-0.388-0.123-0.723-0.474-0.787-0.886-0.173-0.751-0.338-1.503-0.514-2.253 0.13-0.074 0.262-0.146 0.392-0.217-0.151-0.19-0.285-0.389-0.425-0.588-0.358 0.483-0.688 0.987-1.025 1.486 0.379 0.368 0.723 0.817 0.775 1.361 0.046 1.236-1.167 2.458-2.44 2.088-1.308-0.275-1.878-2.023-1.008-3.031 0.425-0.841 1.495-0.922 2.296-0.648 0.34-0.522 0.683-1.042 1.026-1.56-0.148-0.014-0.297-0.027-0.445-0.041-0.101-0.328-0.126-0.671-0.022-1.003 0.411 0.082 0.822 0.166 1.227 0.272 0.212-0.252 0.428-0.502 0.651-0.743M5.978 16.863c-0.169 1.010 1.039 1.859 1.931 1.348 0.874-0.4 0.953-1.662 0.245-2.263-0.122 0.171-0.243 0.343-0.365 0.515 0.357 0.425 0.183 1.192-0.43 1.22-0.649 0.093-0.997-0.908-0.398-1.198 0.387-0.105 0.618-0.423 0.8-0.758-0.788-0.22-1.712 0.285-1.783 1.135M7.178 16.574c-0.324 0.084-0.44 0.547-0.182 0.769 0.23 0.241 0.679 0.111 0.754-0.211 0.105-0.326-0.247-0.671-0.572-0.558z"></path>
<path fill="#030303" d="M14.973 13.816c0.635-0.022 1.27-0.033 1.906-0.046 0.292 0.249 0.585 0.497 0.878 0.746-0.001 0.331-0.002 0.662 0.003 0.993-0.602-0.605-1.46-0.878-2.305-0.734-0.209-0.209-0.42-0.419-0.631-0.627 0.049-0.111 0.097-0.221 0.147-0.332z"></path>
<path fill="#030303" d="M15.791 15.119c1.164-0.104 2.151 0.912 2.108 2.058-0.148-0.121-0.336-0.221-0.415-0.404-0.18-0.585-0.611-1.044-1.205-1.219-0.202-0.093-0.338-0.277-0.488-0.435z"></path>
<path fill="#030303" d="M15.36 17.518c0.144-0.063 0.289-0.127 0.434-0.189 0.135 0.156 0.267 0.314 0.396 0.474-0.28-0.086-0.558-0.178-0.83-0.285z"></path>
</svg>
