<!-- Generated by IcoMoon.io -->
<svg version="1.1" xmlns="http://www.w3.org/2000/svg" width="24" height="24" viewBox="0 0 24 24">
<title>regulatory--no-lane-change-to-right--g1</title>
<path fill="#c0111e" d="M10.966 0h2.052c0.847 0.16 1.709 0.263 2.532 0.53 3.486 1.046 6.404 3.788 7.672 7.2 0.418 1.038 0.592 2.146 0.779 3.242v2.032c-0.398 4.063-2.876 7.888-6.568 9.697-1.362 0.728-2.884 1.064-4.398 1.298h-2.052c-4.060-0.402-7.876-2.881-9.688-6.566-0.721-1.368-1.069-2.886-1.295-4.404v-2.041c0.182-1.134 0.373-2.276 0.811-3.344 1.282-3.373 4.182-6.077 7.639-7.115 0.817-0.265 1.674-0.367 2.515-0.529M6.144 4.228c1.7 1.715 3.414 3.415 5.119 5.125 0.49 0.49 0.974 0.985 1.476 1.464 0.214 0.228 0.434 0.448 0.661 0.662 0.646 0.67 1.31 1.319 1.967 1.978 1.466 1.464 2.929 2.933 4.398 4.394 1.747-2.305 2.369-5.404 1.663-8.207-0.577-2.371-2.095-4.49-4.147-5.81-3.32-2.195-7.978-2.028-11.137 0.394M4.236 6.137c-1.77 2.334-2.387 5.479-1.639 8.309 0.632 2.503 2.323 4.71 4.567 5.984 3.282 1.927 7.68 1.649 10.694-0.673-1.709-1.705-3.413-3.415-5.122-5.119-0.767-0.773-1.541-1.541-2.309-2.312-2.066-2.062-4.126-4.128-6.192-6.188z"></path>
<path fill="#fff" d="M6.144 4.228c3.16-2.422 7.817-2.588 11.137-0.394 2.052 1.32 3.57 3.439 4.147 5.81 0.706 2.803 0.084 5.902-1.663 8.207-1.469-1.462-2.932-2.93-4.398-4.394 0.486-0.136 0.997-0.368 1.175-0.883 0.574-1.416 0.433-2.982 0.462-4.476 0.424-0.001 0.848-0.001 1.272-0.005-0.786-1.325-1.577-2.646-2.368-3.968-0.797 1.319-1.585 2.642-2.371 3.968 0.432 0.002 0.863 0.004 1.295 0.004-0.025 0.817 0.097 1.672-0.198 2.453-0.194 0.527-0.739 0.766-1.234 0.93-0.227-0.215-0.448-0.434-0.661-0.662 0.006-2.299 0.002-4.597 0.001-6.895-0.493-0.002-0.988-0.002-1.481 0 0 1.811-0.007 3.622 0.004 5.431-1.705-1.71-3.419-3.41-5.119-5.125z"></path>
<path fill="#fff" d="M4.236 6.137c2.066 2.060 4.126 4.127 6.192 6.188-1.001 0.442-2.126 0.871-2.77 1.805-0.961 1.752-0.587 3.83-0.634 5.741 0.838 0.002 1.675 0.002 2.514 0-0.036-1.2-0.181-2.412 0.005-3.606 0.132-0.853 1.007-1.249 1.711-1.559 0.008 1.79-0.001 3.582 0.005 5.372 0.493 0.001 0.988 0.001 1.481 0 0.001-1.814 0.007-3.628-0.004-5.441 1.709 1.704 3.413 3.414 5.122 5.119-3.014 2.322-7.412 2.6-10.694 0.673-2.244-1.274-3.935-3.481-4.567-5.984-0.748-2.83-0.131-5.975 1.639-8.309z"></path>
<path fill="#000" d="M11.26 3.922c0.493-0.002 0.988-0.002 1.481 0 0.001 2.298 0.005 4.596-0.001 6.895-0.502-0.479-0.986-0.974-1.476-1.464-0.011-1.81-0.004-3.62-0.004-5.431z"></path>
<path fill="#000" d="M13.537 8.093c0.786-1.326 1.574-2.65 2.371-3.968 0.791 1.322 1.582 2.644 2.368 3.968-0.424 0.004-0.848 0.004-1.272 0.005-0.029 1.494 0.112 3.060-0.462 4.476-0.178 0.515-0.689 0.748-1.175 0.883-0.656-0.659-1.321-1.308-1.967-1.978 0.494-0.164 1.039-0.403 1.234-0.93 0.295-0.781 0.173-1.636 0.198-2.453-0.432 0-0.863-0.001-1.295-0.004z"></path>
<path fill="#000" d="M7.658 14.13c0.643-0.934 1.769-1.363 2.77-1.805 0.768 0.772 1.542 1.54 2.309 2.312 0.011 1.813 0.005 3.626 0.004 5.441-0.493 0.001-0.988 0.001-1.481 0-0.006-1.79 0.004-3.582-0.005-5.372-0.704 0.31-1.579 0.706-1.711 1.559-0.186 1.194-0.041 2.406-0.005 3.606-0.839 0.002-1.676 0.002-2.514 0 0.047-1.91-0.328-3.989 0.634-5.741z"></path>
</svg>
