<?xml version="1.0" encoding="utf-8"?>
<!-- Generated by IcoMoon.io -->
<!DOCTYPE svg PUBLIC "-//W3C//DTD SVG 1.1//EN" "http://www.w3.org/Graphics/SVG/1.1/DTD/svg11.dtd">
<svg version="1.1" xmlns="http://www.w3.org/2000/svg" xmlns:xlink="http://www.w3.org/1999/xlink" width="24" height="24" viewBox="0 0 24 24">
<path fill="#fff" d="M23.956 21.963c0 1.101-0.892 1.993-1.993 1.993h-19.926c-1.1 0-1.993-0.892-1.993-1.993v-19.926c0-1.101 0.892-1.993 1.993-1.993h19.926c1.101 0 1.993 0.892 1.993 1.993v19.926z"></path>
<path fill="#000" d="M22.627 21.963c0 0.366-0.298 0.664-0.664 0.664h-19.926c-0.366 0-0.664-0.298-0.664-0.664v-19.926c0-0.366 0.298-0.664 0.664-0.664h19.926c0.366 0 0.664 0.298 0.664 0.664v19.926zM21.963 0.542h-19.926c-0.824 0-1.494 0.67-1.494 1.494v19.926c0 0.824 0.67 1.494 1.494 1.494h19.926c0.824 0 1.494-0.67 1.494-1.494v-19.926c0-0.824-0.67-1.494-1.494-1.494z"></path>
<path fill="#000" d="M12.232 6.086c0.383 0 0.696-0.313 0.696-0.696s-0.313-0.696-0.696-0.696c-0.383 0-0.696 0.313-0.696 0.696s0.313 0.696 0.696 0.696z"></path>
<path fill="#000" d="M6.144 12.275c-0.079 0.030-0.16 0.050-0.254-0.005-0.142-0.044-0.195-0.139-0.196-0.254 0.083 0.021 0.129 0.069 0.212 0.090 0.155 0.072 0.31 0.052 0.466-0.032 0.45-0.238 0.858-0.518 1.265-0.799 0.044 0.021 0.088 0.042 0.132 0.063-0.541 0.312-1.083 0.624-1.624 0.937zM6.039 11.507c0.296-0.090 0.557-0.265 0.783-0.524 0.266 0.004 0.504 0.085 0.714 0.243-0.314 0.231-0.635 0.448-0.963 0.651-0.232 0.117-0.464 0.226-0.683 0.101-0.053-0.028-0.085-0.071-0.095-0.127 0.081-0.115 0.162-0.229 0.243-0.344zM18.907 17.083c-0.258-0.701-0.415-1.465-0.423-2.322-0.040-0.105-0.081-0.21-0.121-0.315-0.265-0.299-0.511-0.646-0.714-1.101 0.036-0.056 0.073-0.113 0.109-0.169 0.356 0.596 0.755 0.784 1.173 0.786-0.313-0.587-0.454-1.252-0.423-1.996 0.147-1.421-0.644-2.154-2.37-2.201-0.87 0.058-1.762 0.198-2.491-0.266 0.043-1.341-0.028-2.622-0.762-3.556-0.229 0.14-0.465 0.237-0.714 0.242-0.101 0.512-0.202 1.024-0.302 1.536-0.013 0.094-0.045 0.158-0.097 0.194-0.508 0.391-1.016 0.782-1.524 1.173 0.153 0.109 0.306 0.218 0.46 0.327 0.314-0.194 0.629-0.387 0.943-0.581-0.020 0.117-0.040 0.234-0.060 0.351-0.033 0.123-0.081 0.2-0.145 0.23-0.218 0.133-0.435 0.266-0.653 0.399-0.137-0.048-0.274-0.097-0.411-0.145 0.052-0.056 0.105-0.113 0.157-0.169-0.121-0.089-0.242-0.177-0.363-0.266-0.121 0.109-0.242 0.218-0.363 0.327-1.211-0.322-2.403-0.59-3.556-0.738-0.091-0.133-0.206-0.266-0.375-0.399-0.032 0.032-0.065 0.064-0.097 0.097-0.065-0.040-0.129-0.081-0.194-0.121-0.008 0.056-0.016 0.113-0.024 0.169 0.056 0.161 0.113 0.323 0.169 0.484-0.372 0.863-0.748 1.729-0.943 2.455-0.041 0.093 0.004 0.169 0.060 0.242 0.157 0.182 0.348 0.295 0.544 0.399 0.044-0.008 0.089-0.016 0.133-0.024 0.089 0.133 0.211 0.215 0.339 0.29 0.11 0.048 0.211 0.048 0.302 0 0.564-0.339 1.129-0.677 1.693-1.016 0.133 0.133 0.266 0.266 0.399 0.399 0.095 0.097 0.171 0.193 0.23 0.29 0.089 0.298 0.177 0.597 0.266 0.895 0.043 0.113 0.054 0.226 0.060 0.339-0.077 0.516-0.153 1.032-0.23 1.548-0.022 0.069-0.037 0.14-0.067 0.204-0.273 0.581-0.502 1.134-0.754 1.658-0.171 0.354-0.524 0.619-0.751 0.932-0.018 0.074 0.019 0.091 0.073 0.109 0.282 0 0.564 0 0.847 0 0.036-0.028 0.073-0.056 0.109-0.085 0-0.223 0.139-0.382 0.375-0.496 0.051-0.018 0.070-0.084 0.085-0.157 0.147-0.676 0.409-1.343 0.992-1.983 0.054-0.066 0.091-0.151 0.109-0.254 0.039-0.177-0.102-0.203 0.653-0.98 0.5 1.004 1.061 1.977 1.959 2.854 0.042 0.099 0.121 0.161 0.218 0.206 0.037 0.031 0.065 0.072 0.085 0.121 0.028 0.202 0.056 0.403 0.085 0.605 0.006 0.061 0.030 0.078 0.073 0.048 0.218-0.181 0.435-0.363 0.653-0.544 0.014-0.044 0.010-0.089-0.012-0.133-0.085-0.085-0.169-0.169-0.254-0.254-0.036-0.040-0.073-0.081-0.109-0.121-0.032-0.064-0.064-0.129-0.097-0.193-0.032-0.040-0.064-0.081-0.097-0.121-0.361-0.285-0.606-0.652-0.786-1.064-0.075-0.145-0.131-0.29-0.169-0.435-0.038-0.343-0.089-0.685-0.181-1.028 1.281-0.006 2.361-0.12 2.999-0.472 0.142 0.963 0.076 1.946-0.363 2.963-0.086 0.254-0.211 0.502-0.423 0.738-0.193 0.181-0.424 0.353-0.532 0.556-0.042 0.059 0.013 0.094 0.048 0.133 0.326 0.004 0.653 0.008 0.98 0.012-0.029-0.108 0.022-0.2 0.085-0.29 0.081-0.048 0.161-0.097 0.242-0.145 0.021-0.005 0.033-0.037 0.036-0.097 0.105-0.623 0.402-1.119 0.726-1.596 0.052-0.060 0.105-0.121 0.157-0.181 0.085-0.152 0.115-0.314 0.109-0.484 0.004-0.109 0.008-0.218 0.012-0.327 0.091-0.404 0.211-0.72 0.375-0.907 0.496 0.46 0.992 0.919 1.488 1.379 0.177 0.141 0.234 0.403 0.315 0.641 0.060 0.339 0.121 0.677 0.181 1.016-0.002 0.099 0.044 0.167 0.097 0.23 0.094 0.161 0.191 0.322 0.23 0.484 0.040 0.036 0.081 0.073 0.121 0.109 0.198 0.176 0.395 0.32 0.593 0.46 0.040-0.238 0.081-0.476 0.121-0.714-0.105-0.060-0.21-0.121-0.314-0.181z"></path>
<path fill="#af1e2d" d="M18.651 17.242l-11.894-11.894c1.442-1.138 3.263-1.817 5.242-1.817 4.677 0 8.469 3.792 8.469 8.469 0 1.98-0.679 3.8-1.817 5.242zM12 20.468c-4.677 0-8.469-3.792-8.469-8.469 0-1.98 0.679-3.8 1.817-5.242l11.894 11.894c-1.442 1.138-3.263 1.817-5.242 1.817zM12 1.539c-5.778 0-10.461 4.684-10.461 10.461s4.684 10.461 10.461 10.461c5.778 0 10.461-4.684 10.461-10.461s-4.684-10.461-10.461-10.461z"></path>
</svg>
