<?xml version="1.0" encoding="utf-8"?>
<!-- Generated by IcoMoon.io -->
<!DOCTYPE svg PUBLIC "-//W3C//DTD SVG 1.1//EN" "http://www.w3.org/Graphics/SVG/1.1/DTD/svg11.dtd">
<svg version="1.1" xmlns="http://www.w3.org/2000/svg" xmlns:xlink="http://www.w3.org/1999/xlink" width="24" height="24" viewBox="0 0 24 24">
<path fill="#f00" d="M7.049 1.062c2.47-1.114 5.321-1.366 7.944-0.68 2.737 0.678 5.188 2.395 6.809 4.696 1.374 1.928 2.136 4.273 2.198 6.638v0.552c-0.066 2.969-1.273 5.894-3.34 8.029-2.101 2.21-5.066 3.548-8.111 3.703h-1.074c-2.453-0.126-4.862-0.994-6.802-2.504-2.84-2.158-4.601-5.64-4.674-9.204v-0.658c0.059-1.426 0.338-2.846 0.887-4.166 1.135-2.818 3.392-5.159 6.162-6.406M10.625 2.498c-2.749 0.374-5.276 2.028-6.746 4.376-1.273 2-1.751 4.483-1.327 6.816 0.402 2.314 1.703 4.453 3.563 5.885 1.47 1.154 3.289 1.86 5.154 1.994 2.179 0.176 4.414-0.432 6.203-1.69 1.775-1.226 3.116-3.067 3.726-5.137 0.586-1.95 0.528-4.086-0.166-5.999-0.858-2.416-2.734-4.452-5.077-5.491-1.654-0.764-3.53-1.003-5.329-0.755z"></path>
<path fill="#fff" d="M10.625 2.498c1.799-0.248 3.676-0.010 5.329 0.755 2.344 1.039 4.219 3.076 5.077 5.491 0.694 1.913 0.751 4.049 0.166 5.999-0.61 2.070-1.951 3.911-3.726 5.137-1.789 1.258-4.024 1.866-6.203 1.69-1.865-0.134-3.684-0.84-5.154-1.994-1.86-1.432-3.161-3.571-3.563-5.885-0.424-2.333 0.054-4.816 1.327-6.816 1.47-2.348 3.997-4.002 6.746-4.376M7.624 7.038c-0.949 0.424-1.492 1.484-1.412 2.503 0.48 0.006 0.959 0.001 1.439 0.002-0.042-0.474 0.028-1.022 0.478-1.288 0.622-0.449 1.577 0.096 1.543 0.85-0.046 0.599 0.187 1.354-0.331 1.806-0.332 0.328-0.838 0.226-1.258 0.241-0.001 0.434-0.001 0.869 0 1.303 0.49-0.006 1.070-0.050 1.428 0.358 0.446 0.458 0.281 1.138 0.312 1.712 0.023 0.458-0.158 0.952-0.554 1.211-0.491 0.301-1.206 0.166-1.529-0.32-0.268-0.355-0.224-0.821-0.227-1.24-0.481-0.001-0.962-0.001-1.442 0-0.036 0.679 0.058 1.4 0.492 1.95 0.516 0.737 1.423 1.158 2.32 1.061 0.971-0.068 1.828-0.761 2.202-1.642 0.272-0.631 0.16-1.332 0.178-1.998 0.007-0.695-0.377-1.378-0.994-1.708 0.512-0.377 0.835-0.992 0.846-1.63 0.001-0.704 0.077-1.457-0.271-2.102-0.576-1.126-2.082-1.644-3.218-1.070M12.974 6.944c0 1.71-0.002 3.419 0.001 5.129 0.479-0.004 0.958 0.001 1.436-0.004 0.536-0.796 2.005-0.452 2.066 0.528 0.011 0.798 0.026 1.6-0.010 2.398-0.096 0.914-1.447 1.217-1.993 0.524-0.313-0.376-0.302-0.889-0.298-1.351-0.481-0.001-0.962-0.001-1.442 0-0.018 0.605 0.032 1.242 0.366 1.766 0.478 0.758 1.354 1.284 2.262 1.261 1.264 0.010 2.483-1.034 2.544-2.322 0.040-0.794 0.025-1.592 0.012-2.388-0.019-0.804-0.512-1.572-1.249-1.902-0.702-0.371-1.556-0.299-2.255 0.041 0.001-0.792 0-1.584 0-2.376 1.105-0.001 2.21 0 3.314-0.001 0-0.434 0-0.869 0-1.303-1.585 0-3.17-0.001-4.756 0z"></path>
<path fill="#000" d="M7.624 7.038c1.136-0.574 2.642-0.055 3.218 1.070 0.348 0.646 0.272 1.398 0.271 2.102-0.011 0.637-0.334 1.253-0.846 1.63 0.617 0.33 1.001 1.013 0.994 1.708-0.018 0.666 0.095 1.367-0.178 1.998-0.374 0.881-1.231 1.573-2.202 1.642-0.896 0.097-1.804-0.324-2.32-1.061-0.434-0.55-0.528-1.271-0.492-1.95 0.48-0.001 0.961-0.001 1.442 0 0.002 0.419-0.041 0.884 0.227 1.24 0.323 0.486 1.038 0.622 1.529 0.32 0.396-0.259 0.577-0.752 0.554-1.211-0.031-0.575 0.134-1.254-0.312-1.712-0.358-0.408-0.938-0.364-1.428-0.358-0.001-0.434-0.001-0.869 0-1.303 0.42-0.016 0.925 0.086 1.258-0.241 0.518-0.452 0.286-1.207 0.331-1.806 0.034-0.754-0.922-1.298-1.543-0.85-0.45 0.265-0.52 0.814-0.478 1.288-0.48-0.001-0.959 0.004-1.439-0.002-0.079-1.019 0.463-2.080 1.412-2.503z"></path>
<path fill="#000" d="M12.974 6.944c1.585-0.001 3.17 0 4.756 0 0 0.434 0 0.869 0 1.303-1.104 0.001-2.209 0-3.314 0.001 0 0.792 0.001 1.584 0 2.376 0.698-0.34 1.553-0.412 2.255-0.041 0.737 0.33 1.23 1.098 1.249 1.902 0.013 0.796 0.028 1.594-0.012 2.388-0.061 1.288-1.28 2.332-2.544 2.322-0.908 0.023-1.784-0.503-2.262-1.261-0.334-0.524-0.384-1.162-0.366-1.766 0.48-0.001 0.961-0.001 1.442 0-0.005 0.462-0.016 0.976 0.298 1.351 0.546 0.692 1.897 0.39 1.993-0.524 0.036-0.798 0.020-1.6 0.010-2.398-0.061-0.98-1.53-1.324-2.066-0.528-0.479 0.005-0.958 0-1.436 0.004-0.004-1.71-0.001-3.419-0.001-5.129z"></path>
</svg>
