<!-- Generated by IcoMoon.io -->
<svg version="1.1" xmlns="http://www.w3.org/2000/svg" width="24" height="24" viewBox="0 0 24 24">
<title>regulatory--no-u-turn--g2</title>
<path fill="#c1121c" d="M11.566 0h0.835c2.924 0.102 5.796 1.298 7.9 3.336 2.282 2.168 3.641 5.262 3.7 8.408v0.485c-0.050 2.839-1.148 5.641-3.044 7.754-2.137 2.426-5.293 3.893-8.521 4.016h-0.841c-3.066-0.11-6.072-1.427-8.2-3.641-2.065-2.105-3.287-4.994-3.394-7.939v-0.728c0.073-3.042 1.351-6.034 3.515-8.176 2.111-2.138 5.052-3.402 8.051-3.516M10.853 3.196c-2.674 0.323-5.134 1.961-6.494 4.279-0.96 1.604-1.378 3.518-1.196 5.377 0.18 1.948 1.033 3.827 2.384 5.242 1.426 1.52 3.406 2.513 5.48 2.729 1.976 0.224 4.028-0.241 5.705-1.316 1.891-1.176 3.3-3.1 3.857-5.256 0.512-1.945 0.341-4.064-0.492-5.897-0.856-1.9-2.4-3.487-4.288-4.374-1.53-0.737-3.275-1.001-4.956-0.784z"></path>
<path fill="#f7fbf5" d="M10.853 3.196c1.681-0.217 3.426 0.047 4.956 0.784 1.888 0.887 3.432 2.474 4.288 4.374 0.833 1.832 1.004 3.952 0.492 5.897-0.557 2.156-1.966 4.080-3.857 5.256-1.676 1.075-3.728 1.541-5.705 1.316-2.075-0.216-4.055-1.208-5.48-2.729-1.351-1.415-2.204-3.294-2.384-5.242-0.181-1.859 0.236-3.773 1.196-5.377 1.361-2.318 3.821-3.956 6.494-4.279M10.649 5.116c-1.306 0.385-2.402 1.484-2.646 2.844-0.168 1.016-0.056 2.052-0.089 3.077-0.766-0.194-1.541-0.346-2.308-0.539-0.169-0.041-0.4-0.024-0.492 0.148-0.091 0.184 0.016 0.388 0.121 0.54 1.057 1.513 2.11 3.029 3.164 4.543 0.112 0.145 0.248 0.34 0.458 0.311 0.169-0.032 0.274-0.188 0.372-0.316 1.055-1.51 2.104-3.023 3.16-4.532 0.102-0.144 0.198-0.324 0.145-0.505-0.072-0.196-0.313-0.235-0.493-0.192-0.773 0.192-1.554 0.35-2.327 0.544 0.007-0.766-0.007-1.53 0.006-2.296 0.011-0.583 0.293-1.159 0.768-1.505 0.854-0.642 2.078-0.688 3.031-0.24 0.671 0.317 1.15 1.008 1.148 1.758 0.012 2.875 0.004 5.752 0.005 8.628 0.619 0.001 1.238 0.001 1.858 0-0.001-2.838 0.002-5.677-0.001-8.515 0.002-0.805-0.208-1.622-0.678-2.282-1.142-1.594-3.4-2.058-5.203-1.47z"></path>
<path fill="#2a2d2f" d="M10.649 5.116c1.804-0.588 4.061-0.124 5.203 1.47 0.47 0.66 0.68 1.477 0.678 2.282 0.004 2.838 0 5.677 0.001 8.515-0.619 0.001-1.238 0.001-1.858 0-0.001-2.876 0.007-5.753-0.005-8.628 0.001-0.75-0.478-1.441-1.148-1.758-0.953-0.448-2.177-0.402-3.031 0.24-0.475 0.346-0.757 0.922-0.768 1.505-0.013 0.766 0.001 1.53-0.006 2.296 0.773-0.193 1.554-0.352 2.327-0.544 0.18-0.043 0.421-0.004 0.493 0.192 0.053 0.181-0.043 0.361-0.145 0.505-1.056 1.51-2.105 3.023-3.16 4.532-0.098 0.127-0.203 0.283-0.372 0.316-0.21 0.029-0.347-0.166-0.458-0.311-1.055-1.514-2.107-3.030-3.164-4.543-0.106-0.152-0.212-0.356-0.121-0.54 0.092-0.172 0.323-0.188 0.492-0.148 0.767 0.193 1.542 0.344 2.308 0.539 0.032-1.025-0.079-2.060 0.089-3.077 0.244-1.36 1.34-2.459 2.646-2.844z"></path>
</svg>
