<?xml version="1.0" encoding="utf-8"?>
<!-- Generated by IcoMoon.io -->
<!DOCTYPE svg PUBLIC "-//W3C//DTD SVG 1.1//EN" "http://www.w3.org/Graphics/SVG/1.1/DTD/svg11.dtd">
<svg version="1.1" xmlns="http://www.w3.org/2000/svg" xmlns:xlink="http://www.w3.org/1999/xlink" width="24" height="24" viewBox="0 0 24 24">
<path fill="#e5312b" d="M11.436 0.277c2.612-0.149 5.266 0.617 7.398 2.134 2.11 1.474 3.703 3.664 4.462 6.122 0.806 2.552 0.709 5.378-0.281 7.866-0.924 2.377-2.648 4.434-4.828 5.756-2.526 1.552-5.654 2.093-8.554 1.465-2.644-0.556-5.077-2.060-6.756-4.177-1.752-2.182-2.671-5.005-2.569-7.8 0.079-2.4 0.923-4.765 2.366-6.683 2.040-2.755 5.34-4.511 8.761-4.684M10.859 3.209c-2.064 0.272-4.021 1.289-5.422 2.83-1.316 1.429-2.148 3.3-2.317 5.237-0.192 2.12 0.406 4.304 1.661 6.025 1.109 1.538 2.722 2.698 4.525 3.277 2.827 0.938 6.092 0.337 8.401-1.544 1.664-1.328 2.824-3.27 3.202-5.365 0.394-2.114-0.024-4.362-1.135-6.202-1.78-3.020-5.444-4.777-8.915-4.258z"></path>
<path fill="#fff" d="M10.859 3.209c3.47-0.52 7.135 1.237 8.915 4.258 1.111 1.84 1.529 4.087 1.135 6.202-0.378 2.095-1.537 4.037-3.202 5.365-2.309 1.882-5.574 2.483-8.401 1.544-1.804-0.58-3.416-1.739-4.525-3.277-1.255-1.721-1.853-3.905-1.661-6.025 0.169-1.937 1.001-3.808 2.317-5.237 1.4-1.541 3.358-2.557 5.422-2.83M13.794 7.58c-1 1.865-1.229 4.1-0.722 6.146 0.157 0.502 0.317 1.066 0.74 1.409 0.712 0.126 1.446-0.086 2.122-0.305 1.066-0.396 2.158-1.166 2.387-2.351 0.187-1.213-0.102-2.552-0.92-3.488-0.961-0.919-2.309-1.304-3.606-1.411M11.432 8.531c-0.895 0.217-1.753 0.562-2.626 0.854-0.601 0.234-1.232 0.413-1.789 0.743-0.361 0.186-0.109 0.859 0.299 0.714 1.328-0.335 2.611-0.836 3.896-1.304 0.318-0.166 0.902-0.299 0.815-0.766-0.042-0.292-0.371-0.301-0.595-0.241M11.273 10.158c-1.404 0.379-2.796 0.834-4.128 1.42-0.461 0.15-0.17 0.706 0.133 0.862 1.486-0.498 2.974-0.994 4.432-1.57 0.258-0.078 0.451-0.386 0.301-0.641-0.166-0.268-0.497-0.115-0.738-0.071M7.957 12.75c-0.37 0.164-0.798 0.257-1.091 0.551-0.028 0.282 0.181 0.486 0.349 0.68 1.322-0.451 2.651-0.89 3.956-1.39 0.289-0.128 0.635-0.218 0.82-0.498 0.067-0.264-0.184-0.572-0.464-0.484-1.22 0.271-2.396 0.714-3.57 1.14M7.604 14.418c-0.262 0.133-0.718 0.197-0.683 0.584-0.020 0.22 0.192 0.391 0.402 0.355 0.713-0.064 1.375-0.362 2.054-0.569 0.817-0.289 1.66-0.536 2.428-0.944 0.328-0.126 0.292-0.533 0.077-0.751-1.464 0.301-2.879 0.806-4.278 1.325M11.191 14.765c-1.156 0.33-2.293 0.724-3.418 1.147-0.276 0.121-0.601 0.206-0.782 0.466-0.017 0.22 0.054 0.552 0.336 0.542 0.422-0.020 0.816-0.205 1.219-0.319 1.087-0.378 2.198-0.715 3.233-1.228 0.246-0.083 0.378-0.394 0.222-0.614-0.241-0.169-0.548-0.038-0.81 0.006z"></path>
<path fill="#000" d="M13.794 7.58c1.297 0.107 2.645 0.492 3.606 1.411 0.818 0.936 1.108 2.275 0.92 3.488-0.229 1.184-1.321 1.955-2.387 2.351-0.676 0.218-1.41 0.431-2.122 0.305-0.424-0.343-0.583-0.907-0.74-1.409-0.506-2.046-0.277-4.282 0.722-6.146z"></path>
<path fill="#000" d="M11.432 8.531c0.224-0.060 0.553-0.050 0.595 0.241 0.088 0.467-0.497 0.6-0.815 0.766-1.285 0.468-2.568 0.97-3.896 1.304-0.408 0.145-0.66-0.528-0.299-0.714 0.557-0.33 1.188-0.509 1.789-0.743 0.872-0.293 1.73-0.637 2.626-0.854z"></path>
<path fill="#000" d="M11.273 10.158c0.241-0.044 0.572-0.197 0.738 0.071 0.15 0.254-0.043 0.563-0.301 0.641-1.458 0.576-2.946 1.072-4.432 1.57-0.304-0.156-0.594-0.712-0.133-0.862 1.332-0.586 2.724-1.040 4.128-1.42z"></path>
<path fill="#000" d="M7.957 12.75c1.174-0.426 2.35-0.869 3.57-1.14 0.281-0.089 0.532 0.22 0.464 0.484-0.185 0.28-0.53 0.37-0.82 0.498-1.306 0.499-2.634 0.938-3.956 1.39-0.168-0.194-0.377-0.398-0.349-0.68 0.293-0.294 0.721-0.386 1.091-0.551z"></path>
<path fill="#000" d="M7.604 14.418c1.399-0.518 2.814-1.024 4.278-1.325 0.215 0.218 0.251 0.625-0.077 0.751-0.768 0.408-1.61 0.655-2.428 0.944-0.679 0.206-1.342 0.505-2.054 0.569-0.21 0.036-0.422-0.136-0.402-0.355-0.035-0.388 0.421-0.451 0.683-0.584z"></path>
<path fill="#000" d="M11.191 14.765c0.262-0.044 0.569-0.175 0.81-0.006 0.156 0.221 0.024 0.532-0.222 0.614-1.034 0.512-2.146 0.85-3.233 1.228-0.403 0.114-0.797 0.299-1.219 0.319-0.282 0.010-0.353-0.323-0.336-0.542 0.181-0.259 0.506-0.344 0.782-0.466 1.124-0.424 2.262-0.817 3.418-1.147z"></path>
</svg>
