<!-- Generated by IcoMoon.io -->
<svg version="1.1" xmlns="http://www.w3.org/2000/svg" width="38" height="24" viewBox="0 0 38 24">
<title>regulatory--triple-lanes-turn-left-center-lane--g1</title>
<path fill="#1a1919" d="M1.191 0h36.327c-0.007 0.018-0.022 0.053-0.030 0.071 0.445 0.259 0.863 0.694 0.922 1.223 0.055 7.151-0.001 14.302 0.009 21.452-0.169 0.562-0.633 1.016-1.186 1.218-12.005-0.007-24.011-0.008-36.015 0.001-0.553-0.211-0.972-0.673-1.181-1.221 0.006-7.189 0.008-14.379-0-21.568 0.212-0.523 0.6-1.001 1.155-1.176M1.512 0.1c-0.762 0.058-1.391 0.801-1.342 1.559 0.001 6.935-0.001 13.871 0.001 20.806 0.061 0.759 0.76 1.412 1.53 1.384 11.669 0.001 23.338 0 35.008 0.001 0.817 0.057 1.584-0.654 1.59-1.469-0.003-6.974 0.001-13.948-0.002-20.922-0.066-0.747-0.746-1.388-1.504-1.374-11.562-0.005-23.125-0-34.688-0.002-0.198 0.002-0.396-0.010-0.593 0.017z"></path>
<path fill="#1a1919" d="M1.637 0.43c0.128-0.019 0.258-0.016 0.387-0.015 11.359 0 22.718 0 34.078 0 0.329 0.004 0.662-0.021 0.985 0.057 0.523 0.172 0.919 0.712 0.88 1.269-0 6.826-0.001 13.653 0 20.479 0.036 0.697-0.601 1.334-1.299 1.299-11.628 0-23.257 0.001-34.886-0.001-0.65 0.023-1.238-0.531-1.279-1.174 0-6.868 0-13.735-0-20.603-0.044-0.639 0.489-1.276 1.135-1.31M1.672 1.069c-0.289 0.028-0.521 0.303-0.532 0.588 0 6.869 0 13.737 0 20.606 0 0.335 0.306 0.625 0.64 0.616 11.63 0.003 23.257 0.001 34.888 0.001 0.342 0.018 0.662-0.276 0.66-0.621-0.001-6.866-0-13.732-0-20.598-0.005-0.395-0.408-0.664-0.781-0.607-11.575 0.001-23.151 0-34.727 0-0.050 0.001-0.099 0.006-0.148 0.016z"></path>
<path fill="#1a1919" d="M20.542 2.326c0.011-0.002 0.034-0.005 0.046-0.007 0.86 1.269 1.736 2.526 2.597 3.794 0.167 0.252-0.076 0.623-0.37 0.584-0.429-0.095-0.836-0.29-1.264-0.375 0.004 4.826 0.001 9.653-0.009 14.479-0.656 0.001-1.312-0.001-1.968 0.001-0.012-0.971 0.008-1.943 0.002-2.914-0.033-1.605-0.55-3.17-1.338-4.559-0.978-1.724-2.472-3.074-4.002-4.301-0.013 0.002-0.038 0.006-0.050 0.008-0.132 0.423-0.264 0.847-0.405 1.267-0.136 0.285-0.587 0.258-0.71-0.023-0.537-1.44-1.072-2.882-1.607-4.323 1.522 0.008 3.044 0.019 4.566 0.031 0.32-0.019 0.564 0.411 0.324 0.653-0.309 0.271-0.655 0.499-0.967 0.765 0.829 0.542 1.651 1.107 2.372 1.79 0.703 0.641 1.261 1.423 1.822 2.181-0.006-1.687-0.002-3.375-0.002-5.062-0.42 0.104-0.824 0.272-1.244 0.376-0.311 0.041-0.567-0.335-0.387-0.602 0.862-1.256 1.731-2.507 2.593-3.763z"></path>
<path fill="#1a1919" d="M2.192 8.757c1.472-0.508 2.936-1.038 4.407-1.548 0.315-0.118 0.635 0.264 0.476 0.556-0.231 0.4-0.51 0.775-0.733 1.179 0.816 0.218 1.653 0.424 2.383 0.865 0.535 0.37 1.056 0.777 1.463 1.289 0.559 0.723 1.013 1.552 1.181 2.459 0.218 1.216 0.118 2.458 0.14 3.686-0.669 0.001-1.338 0.003-2.007-0.001-0.009-0.905 0.005-1.811-0.006-2.716-0.096-1.294-0.844-2.542-1.979-3.186-0.516-0.268-1.089-0.389-1.648-0.533-0.013 0.443 0.056 0.89 0.034 1.332-0.052 0.307-0.435 0.411-0.667 0.231-1.007-1.191-2.020-2.377-3.029-3.567-0.004-0.012-0.012-0.036-0.015-0.049z"></path>
<path fill="#1a1919" d="M31.38 7.759c-0.149-0.288 0.159-0.661 0.469-0.552 1.472 0.508 2.936 1.037 4.407 1.548 0.012 0.062-0.052 0.098-0.083 0.142-0.986 1.159-1.971 2.319-2.956 3.479-0.238 0.177-0.618 0.064-0.665-0.245-0.025-0.437 0.063-0.896 0.026-1.321-0.558 0.147-1.13 0.265-1.645 0.535-1.143 0.653-1.893 1.919-1.973 3.226-0.003 0.886-0.005 1.772 0.001 2.658-0.667 0.036-1.344 0.008-2.016 0.014 0.037-1.346-0.108-2.718 0.223-4.037 0.362-1.249 1.141-2.384 2.204-3.139 0.788-0.635 1.799-0.865 2.753-1.126-0.244-0.396-0.511-0.78-0.746-1.182z"></path>
<path fill="#1a1919" d="M13.009 12.765c0.206-0.003 0.413-0 0.619-0.002l0.021 0.024c0.001 3.363 0.003 6.726-0.001 10.089-0.212-0.002-0.434 0.024-0.641-0.012 0-3.366-0-6.733 0.001-10.1z"></path>
<path fill="#1a1919" d="M24.828 12.766c0.21 0.011 0.446-0.032 0.642 0.020-0 3.364 0.003 6.727-0.002 10.091-0.21-0.005-0.444 0.031-0.64-0.017-0-3.365 0-6.73-0-10.094z"></path>
<path fill="#1a1919" d="M3.414 18.313c0.393-0.076 0.809 0.102 1.010 0.451 0.316 0.624 0.336 1.369 0.148 2.035-0.099 0.296-0.269 0.597-0.565 0.733-0.448 0.174-1.040 0.082-1.3-0.36-0.375-0.728-0.41-1.648-0.019-2.378 0.121-0.283 0.421-0.475 0.726-0.481M3.413 18.837c-0.176 0.021-0.276 0.196-0.344 0.341-0.194 0.549-0.202 1.192 0.081 1.712 0.201 0.307 0.722 0.256 0.862-0.085 0.235-0.552 0.246-1.218-0.028-1.759-0.108-0.197-0.363-0.272-0.571-0.208z"></path>
<path fill="#1a1919" d="M27.609 18.302c0.383-0.040 0.755 0.176 0.929 0.516 0.285 0.617 0.304 1.336 0.118 1.985-0.105 0.327-0.311 0.652-0.652 0.767-0.353 0.074-0.779 0.075-1.047-0.204-0.206-0.174-0.285-0.441-0.361-0.689-0.17-0.629-0.132-1.33 0.189-1.905 0.14-0.314 0.493-0.474 0.824-0.469M27.494 18.837c-0.184 0.027-0.289 0.215-0.353 0.372-0.181 0.54-0.184 1.166 0.089 1.676 0.198 0.312 0.724 0.263 0.865-0.080 0.232-0.544 0.244-1.196-0.013-1.734-0.1-0.215-0.37-0.303-0.588-0.234z"></path>
<path fill="#1a1919" d="M5.231 18.349c0.166 0.005 0.331-0.001 0.497 0.004 0.398 0.676 0.775 1.366 1.176 2.041-0.004-0.68-0.004-1.359 0-2.039 0.167-0.008 0.336-0.011 0.503 0.001-0.004 1.068 0.012 2.137-0.008 3.205-0.169-0.039-0.44 0.096-0.51-0.123-0.369-0.661-0.75-1.316-1.113-1.98l-0.045-0.016c-0.002 0.705 0 1.409-0.001 2.114-0.167 0.006-0.334 0-0.501 0.004-0.006-1.070-0.011-2.142 0.002-3.211z"></path>
<path fill="#1a1919" d="M9.517 18.35c0.201 0.012 0.416-0.022 0.61 0.016 0.26 0.399 0.495 0.816 0.76 1.212 0.272-0.401 0.511-0.826 0.784-1.227 0.195-0.002 0.39 0.003 0.585-0.003-0.358 0.614-0.748 1.209-1.108 1.821-0.019 0.461 0.028 0.942-0.023 1.39-0.158 0.001-0.315-0-0.473 0.001-0.031-0.463 0.001-0.932-0.015-1.397-0.367-0.607-0.754-1.204-1.119-1.813z"></path>
<path fill="#1a1919" d="M29.314 18.35c0.166 0.003 0.331-0 0.497 0.002 0.4 0.676 0.776 1.368 1.178 2.043-0.006-0.68-0.004-1.359-0.001-2.039 0.167-0.010 0.337-0.011 0.504 0-0.006 1.067 0.017 2.139-0.012 3.203-0.142-0.001-0.285 0-0.428-0.001-0.41-0.692-0.803-1.4-1.192-2.105l-0.045-0.011c-0.002 0.705 0.002 1.41-0.002 2.115-0.167 0.003-0.335 0.001-0.501 0.001-0.004-1.070-0.008-2.14 0.002-3.209z"></path>
<path fill="#1a1919" d="M32.106 18.35c0.154 0 0.308 0.001 0.462-0 0.048 0.898 0.008 1.823 0.020 2.731 0.495 0.013 0.991-0.001 1.487 0.006-0.001 0.157 0.007 0.316-0.005 0.473-0.656-0.004-1.313-0.001-1.969-0.002-0.042-0.998-0.005-2.017-0.018-3.022 0.011-0.060-0.025-0.139 0.023-0.186z"></path>
<path fill="#1a1919" d="M33.601 18.348c0.202 0.015 0.41-0.015 0.608 0.015 0.258 0.402 0.497 0.816 0.76 1.215 0.274-0.399 0.512-0.824 0.783-1.226 0.195-0.002 0.391 0 0.586-0.001-0.36 0.607-0.74 1.202-1.104 1.807-0.013 0.465-0.004 0.932-0.004 1.398-0.166 0.009-0.333 0-0.499 0.005-0.024-0.465 0.002-0.933-0.013-1.398-0.367-0.608-0.755-1.204-1.118-1.814z"></path>
<path fill="#1a1919" d="M8.001 18.357c0.167-0.010 0.337-0.012 0.504 0.001 0.002 0.909 0 1.817 0 2.726 0.495 0.010 0.991-0.003 1.487 0.006-0.001 0.157 0.005 0.314-0.004 0.471-0.656-0.002-1.312 0-1.968-0.001-0.048-1.052-0.009-2.138-0.019-3.203z"></path>
<path fill="#fffffe" d="M1.512 0.1c0.197-0.027 0.395-0.015 0.593-0.017 11.562 0.002 23.125-0.003 34.688 0.002 0.758-0.014 1.438 0.627 1.504 1.374 0.003 6.974-0.001 13.948 0.002 20.922-0.006 0.816-0.773 1.527-1.59 1.469-11.669-0.001-23.338 0-35.008-0.001-0.77 0.028-1.469-0.625-1.53-1.384-0.002-6.935 0-13.871-0.001-20.806-0.049-0.759 0.579-1.501 1.342-1.559M1.637 0.43c-0.646 0.034-1.179 0.671-1.135 1.31 0.001 6.868 0 13.735 0 20.603 0.042 0.642 0.629 1.196 1.279 1.174 11.628 0.002 23.257 0.001 34.886 0.001 0.698 0.035 1.335-0.602 1.299-1.299-0.001-6.826-0-13.653 0-20.479 0.039-0.557-0.357-1.097-0.88-1.269-0.323-0.078-0.656-0.053-0.985-0.057-11.359 0-22.718 0-34.078 0-0.129-0-0.259-0.004-0.387 0.015z"></path>
<path fill="#fffffe" d="M1.672 1.069c0.049-0.009 0.098-0.015 0.148-0.016 11.575-0 23.151 0 34.727-0 0.373-0.056 0.776 0.212 0.781 0.607 0 6.866-0 13.732 0 20.598 0.002 0.344-0.318 0.639-0.66 0.621-11.63 0-23.258 0.002-34.888-0.001-0.334 0.009-0.64-0.281-0.64-0.616 0-6.869 0-13.737 0-20.606 0.011-0.285 0.242-0.56 0.532-0.588M20.542 2.326c-0.863 1.256-1.731 2.507-2.593 3.763-0.181 0.267 0.075 0.643 0.387 0.602 0.42-0.104 0.824-0.272 1.244-0.376-0 1.687-0.004 3.375 0.002 5.062-0.561-0.758-1.119-1.539-1.822-2.181-0.722-0.684-1.543-1.248-2.372-1.79 0.312-0.266 0.658-0.495 0.967-0.765 0.24-0.242-0.004-0.672-0.324-0.653-1.522-0.012-3.044-0.023-4.566-0.031 0.535 1.441 1.070 2.883 1.607 4.323 0.123 0.281 0.574 0.308 0.71 0.023 0.141-0.42 0.273-0.844 0.405-1.267 0.013-0.002 0.038-0.006 0.050-0.008 1.53 1.226 3.024 2.576 4.002 4.301 0.788 1.389 1.305 2.954 1.338 4.559 0.006 0.971-0.013 1.943-0.002 2.914 0.656-0.002 1.312 0 1.968-0.001 0.009-4.826 0.013-9.653 0.009-14.479 0.427 0.085 0.835 0.28 1.264 0.375 0.294 0.039 0.537-0.332 0.37-0.584-0.861-1.268-1.737-2.525-2.597-3.794-0.011 0.002-0.034 0.005-0.046 0.007M2.192 8.757c0.004 0.012 0.011 0.036 0.015 0.049 1.009 1.189 2.021 2.376 3.029 3.567 0.232 0.18 0.616 0.076 0.667-0.231 0.023-0.442-0.047-0.89-0.034-1.332 0.559 0.145 1.131 0.265 1.648 0.533 1.135 0.643 1.883 1.892 1.979 3.186 0.012 0.905-0.002 1.811 0.006 2.716 0.669 0.004 1.338 0.002 2.007 0.001-0.023-1.228 0.078-2.47-0.14-3.686-0.168-0.907-0.621-1.735-1.181-2.459-0.407-0.512-0.928-0.919-1.463-1.289-0.73-0.442-1.567-0.647-2.383-0.865 0.223-0.404 0.502-0.779 0.733-1.179 0.159-0.293-0.161-0.674-0.476-0.557-1.471 0.51-2.936 1.039-4.407 1.548M31.38 7.759c0.235 0.401 0.501 0.786 0.746 1.182-0.954 0.261-1.965 0.491-2.753 1.126-1.063 0.755-1.842 1.89-2.204 3.139-0.331 1.319-0.186 2.691-0.223 4.037 0.671-0.006 1.348 0.021 2.016-0.014-0.006-0.886-0.004-1.772-0.001-2.658 0.080-1.307 0.83-2.573 1.973-3.226 0.515-0.27 1.087-0.389 1.645-0.535 0.037 0.425-0.051 0.884-0.026 1.321 0.047 0.31 0.427 0.422 0.665 0.245 0.985-1.16 1.97-2.32 2.956-3.479 0.030-0.045 0.095-0.080 0.083-0.142-1.471-0.51-2.936-1.039-4.407-1.548-0.31-0.108-0.619 0.264-0.469 0.552M13.009 12.765c-0.001 3.367-0 6.733-0.001 10.1 0.206 0.036 0.429 0.010 0.641 0.012 0.004-3.363 0.002-6.726 0.001-10.089l-0.021-0.024c-0.206 0.001-0.413-0.002-0.619 0.002M24.828 12.766c0 3.364 0 6.729 0 10.094 0.196 0.047 0.429 0.011 0.64 0.017 0.004-3.363 0.001-6.727 0.002-10.091-0.196-0.053-0.431-0.009-0.642-0.020M3.414 18.313c-0.305 0.006-0.605 0.198-0.726 0.481-0.391 0.73-0.356 1.65 0.019 2.378 0.26 0.442 0.853 0.534 1.3 0.36 0.296-0.136 0.466-0.437 0.565-0.733 0.188-0.666 0.168-1.411-0.148-2.035-0.202-0.349-0.617-0.528-1.010-0.451M27.609 18.302c-0.331-0.004-0.684 0.155-0.824 0.469-0.322 0.576-0.36 1.276-0.189 1.905 0.076 0.248 0.156 0.515 0.361 0.689 0.268 0.279 0.694 0.278 1.047 0.204 0.341-0.115 0.547-0.44 0.652-0.767 0.186-0.649 0.167-1.368-0.118-1.985-0.174-0.34-0.546-0.556-0.929-0.516M5.231 18.349c-0.013 1.070-0.009 2.141-0.002 3.211 0.167-0.003 0.334 0.002 0.501-0.004 0.001-0.705-0.001-1.409 0.001-2.114l0.045 0.016c0.363 0.664 0.744 1.319 1.113 1.98 0.070 0.219 0.341 0.083 0.51 0.123 0.020-1.067 0.004-2.137 0.008-3.205-0.167-0.011-0.336-0.009-0.503-0.001-0.004 0.679-0.004 1.359 0 2.039-0.401-0.675-0.777-1.365-1.176-2.041-0.166-0.005-0.331 0.001-0.497-0.004M9.517 18.35c0.365 0.609 0.751 1.205 1.119 1.813 0.017 0.465-0.015 0.934 0.015 1.397 0.157-0.001 0.315 0 0.473-0.001 0.051-0.448 0.004-0.929 0.023-1.39 0.36-0.612 0.75-1.208 1.108-1.821-0.195 0.006-0.39 0.001-0.585 0.003-0.273 0.401-0.512 0.826-0.784 1.227-0.265-0.396-0.5-0.813-0.76-1.212-0.193-0.038-0.408-0.004-0.61-0.016M29.314 18.35c-0.009 1.070-0.006 2.14-0.002 3.209 0.167 0 0.334 0.002 0.501-0.001 0.004-0.705 0-1.41 0.002-2.115l0.045 0.011c0.389 0.705 0.782 1.412 1.192 2.105 0.142 0.002 0.285 0 0.428 0.001 0.030-1.064 0.006-2.136 0.012-3.203-0.167-0.011-0.337-0.011-0.504-0-0.002 0.68-0.004 1.359 0.001 2.039-0.402-0.675-0.777-1.367-1.178-2.043-0.166-0.002-0.332 0.001-0.497-0.002M32.106 18.35c-0.048 0.047-0.013 0.126-0.023 0.186 0.013 1.006-0.024 2.025 0.018 3.022 0.656 0.001 1.313-0.002 1.969 0.002 0.012-0.157 0.004-0.316 0.005-0.473-0.495-0.008-0.991 0.006-1.487-0.006-0.012-0.909 0.028-1.833-0.020-2.731-0.154 0.001-0.308 0.001-0.462 0M33.601 18.348c0.363 0.61 0.75 1.206 1.118 1.814 0.015 0.465-0.011 0.933 0.013 1.398 0.166-0.005 0.333 0.004 0.499-0.005-0-0.466-0.009-0.933 0.004-1.398 0.364-0.605 0.744-1.2 1.104-1.807-0.195 0.002-0.391-0.001-0.586 0.001-0.271 0.402-0.51 0.827-0.783 1.226-0.262-0.399-0.501-0.813-0.76-1.215-0.198-0.030-0.407 0-0.608-0.015M8.001 18.357c0.010 1.065-0.029 2.15 0.019 3.203 0.656 0.001 1.312-0.001 1.968 0.001 0.009-0.157 0.003-0.314 0.004-0.471-0.495-0.009-0.991 0.004-1.487-0.006 0-0.909 0.002-1.817-0-2.726-0.167-0.013-0.337-0.011-0.504-0.001z"></path>
<path fill="#fffffe" d="M3.413 18.837c0.208-0.064 0.462 0.012 0.571 0.208 0.274 0.542 0.263 1.207 0.028 1.759-0.14 0.342-0.661 0.393-0.862 0.085-0.283-0.52-0.275-1.163-0.081-1.712 0.069-0.145 0.169-0.321 0.344-0.341z"></path>
<path fill="#fffffe" d="M27.494 18.837c0.218-0.068 0.488 0.019 0.588 0.234 0.257 0.538 0.245 1.19 0.013 1.734-0.141 0.343-0.667 0.391-0.865 0.080-0.274-0.51-0.27-1.136-0.089-1.676 0.064-0.157 0.169-0.345 0.353-0.372z"></path>
<path fill="#0a0a0a" opacity="0.21" d="M0 1.17l0.036 0.006c0.008 7.189 0.007 14.379 0 21.568l-0.036 0.004v-21.578z"></path>
<path fill="#050505" opacity="0.21" d="M1.217 23.965c12.005-0.009 24.011-0.008 36.015-0.001l0.005 0.036-36.020-0.035z"></path>
</svg>
