<?xml version="1.0" encoding="utf-8"?>
<!-- Generated by IcoMoon.io -->
<!DOCTYPE svg PUBLIC "-//W3C//DTD SVG 1.1//EN" "http://www.w3.org/Graphics/SVG/1.1/DTD/svg11.dtd">
<svg version="1.1" xmlns="http://www.w3.org/2000/svg" xmlns:xlink="http://www.w3.org/1999/xlink" width="24" height="24" viewBox="0 0 24 24">
<path fill="#e22526" d="M11.965 0.045c-6.602 0-11.955 5.352-11.955 11.955s5.352 11.955 11.955 11.955c6.602 0 11.955-5.352 11.955-11.955s-5.352-11.955-11.955-11.955z"></path>
<path fill="#fff" d="M20.559 12c0-4.746-3.848-8.594-8.594-8.594s-8.594 3.848-8.594 8.594c0 4.746 3.848 8.594 8.594 8.594s8.594-3.848 8.594-8.594z"></path>
<path fill="#231f20" d="M4.984 11.329l-0.385 0.391-0.003 1.54 0.414 0.412h0.101l-0.002 1c-0 0.099 0.080 0.18 0.179 0.18l0.519-0.001c0.099-0 0.18-0.081 0.18-0.18l0.002-0.998h4.184l-0.002 0.992c-0 0.099 0.080 0.18 0.179 0.18l0.519-0.001c0.099-0 0.181-0.081 0.181-0.181l0-0.991h0.102l0.417-0.422v-1.54l-0.385-0.39-0.637-1.574c0 0-1.523-0.212-2.465-0.212s-2.465 0.212-2.465 0.212zM5.426 12.87h-0.129c-0.041 0-0.075-0.034-0.075-0.075v-0.746c0-0.041 0.034-0.075 0.075-0.075h0.129c0.041 0 0.075 0.034 0.075 0.075v0.746c0 0.041-0.034 0.075-0.075 0.075zM10.861 12.87h-0.129c-0.041 0-0.075-0.034-0.075-0.075v-0.746c0-0.041 0.034-0.075 0.075-0.075h0.129c0.041 0 0.075 0.034 0.075 0.075v0.746c0 0.041-0.034 0.075-0.075 0.075zM8.919 12.833h-1.661c-0.041 0-0.075-0.034-0.075-0.075v-0.279c0-0.041 0.034-0.075 0.075-0.075h1.661c0.041 0 0.075 0.034 0.075 0.075v0.279c0 0.041-0.034 0.075-0.075 0.075zM8.081 11.115c-1.115 0.015-2.462 0.001-2.462 0.001l0.355-0.963c0.298-0.043 1.165-0.162 2.107-0.164s1.81 0.12 2.107 0.163l0.355 0.963c0 0-1.362-0.015-2.462 0zM12.776 11.329l-0.385 0.391-0.003 1.54 0.414 0.412h0.101l-0.002 1c-0 0.099 0.080 0.18 0.179 0.18l0.519-0.001c0.099-0 0.18-0.081 0.18-0.18l0.002-0.998h4.184l-0.002 0.992c-0 0.099 0.080 0.18 0.179 0.18l0.519-0.001c0.099-0 0.18-0.081 0.181-0.181l0-0.991h0.102l0.417-0.422v-1.54l-0.385-0.39-0.636-1.574c0 0-1.523-0.212-2.465-0.212s-2.465 0.212-2.465 0.212zM13.218 12.87h-0.129c-0.041 0-0.075-0.034-0.075-0.075v-0.746c0-0.041 0.034-0.075 0.075-0.075h0.129c0.041 0 0.075 0.034 0.075 0.075v0.746c0 0.041-0.034 0.075-0.075 0.075zM18.653 12.87h-0.13c-0.041 0-0.075-0.034-0.075-0.075v-0.746c0-0.041 0.034-0.075 0.075-0.075h0.13c0.041 0 0.075 0.034 0.075 0.075v0.746c0 0.041-0.034 0.075-0.075 0.075zM16.711 12.833h-1.661c-0.041 0-0.075-0.034-0.075-0.075v-0.279c0-0.041 0.034-0.075 0.075-0.075h1.661c0.041 0 0.075 0.034 0.075 0.075v0.279c0 0.041-0.034 0.075-0.075 0.075zM15.873 11.115c-1.115 0.015-2.462 0.001-2.462 0.001l0.355-0.963c0.298-0.043 1.165-0.162 2.107-0.164s1.81 0.12 2.107 0.163l0.355 0.963c0 0-1.362-0.015-2.462 0z"></path>
</svg>
