<svg xmlns="http://www.w3.org/2000/svg" width="24" height="24">
    <path fill="#035ca1" d="M10.544 0h2.929c3.848.532 7.414 2.918 9.189 6.398.723 1.284 1.061 2.733 1.338 4.168v2.867c-.52 3.83-2.861 7.389-6.31 9.184-1.31.747-2.788 1.104-4.256 1.383h-2.867c-3.862-.523-7.45-2.902-9.23-6.397C.616 16.328.281 14.889.001 13.465v-2.928c.274-1.426.611-2.866 1.331-4.142C3.108 2.908 6.685.513 10.545.001zm1.041 3.295c-.815.117-.955 1.174-.551 1.762.464.717 1.546 1.409 2.343.8.966-1.171-.265-3.219-1.792-2.562zM8.482 8.348c-1.204.789-.451 2.413-.637 3.592-.224.719.829 1.044 1.127.419.179-.859-.078-1.753.08-2.611.481-.701 1.278-1.099 1.908-1.65-.001 1.323-.049 2.646-.029 3.968-.017.342.291.546.525.736.865.645 1.714 1.312 2.578 1.958.339.261.704.536.859.952.468 1.238.885 2.495 1.358 3.728.171.509.846.81 1.278.418.518-.322.287-.999.118-1.454-.499-1.239-.938-2.504-1.453-3.734-.806-1.051-2.048-1.664-2.94-2.628-.169-1.535-.003-3.108-.15-4.65-.422-.619-1.184-1.127-1.936-1.177-.981.581-1.775 1.446-2.688 2.133zm5.179 1.042c.01.637.022 1.274.04 1.911.629.471 1.168 1.078 1.869 1.44.691.261 1.117-.743.64-1.187-.833-.738-1.703-1.437-2.549-2.164zm-6.064 9.378c-.223.335-.204.795-.008 1.136.32.413 1.1.453 1.326-.08 1.108-1.881 2.214-3.763 3.316-5.648-.433-.305-.864-.612-1.302-.911-1.116 1.83-2.204 3.678-3.331 5.503z"/>
    <path fill="#fff" d="M11.585 3.295c1.527-.656 2.758 1.391 1.792 2.562-.797.608-1.878-.083-2.343-.8-.403-.588-.263-1.645.551-1.762zM8.482 8.348c.913-.686 1.707-1.552 2.688-2.133.751.049 1.514.558 1.936 1.177.148 1.541-.018 3.115.15 4.65.891.964 2.134 1.578 2.94 2.628.515 1.23.954 2.495 1.453 3.734.169.455.4 1.133-.118 1.454-.432.392-1.107.091-1.278-.418-.474-1.234-.89-2.491-1.358-3.728-.154-.416-.52-.691-.859-.952-.864-.646-1.712-1.313-2.578-1.958-.235-.189-.542-.393-.525-.736-.021-1.322.027-2.645.029-3.968-.63.551-1.427.95-1.908 1.65-.158.859.099 1.753-.08 2.611-.298.625-1.352.3-1.127-.419.186-1.179-.567-2.803.637-3.592z"/>
    <path fill="#fff" d="M13.661 9.39c.846.726 1.716 1.426 2.549 2.164.477.444.052 1.448-.64 1.187-.702-.362-1.24-.969-1.869-1.44-.018-.637-.03-1.274-.04-1.911zM7.597 18.768c1.127-1.825 2.216-3.673 3.331-5.503.438.298.869.606 1.302.911a1773.645 1773.645 0 0 1-3.316 5.648c-.226.533-1.005.493-1.326.08-.196-.341-.215-.802.008-1.136z"/>
</svg>
