<!-- Generated by IcoMoon.io -->
<svg version="1.1" xmlns="http://www.w3.org/2000/svg" width="24" height="24" viewBox="0 0 24 24">
<title>regulatory--turn-left-or-right--g1</title>
<path fill="#035ca1" d="M10.494 0h3.015c2.741 0.432 5.37 1.72 7.276 3.752 1.724 1.856 2.822 4.246 3.214 6.743v3.015c-0.432 2.741-1.72 5.37-3.752 7.276-1.854 1.723-4.244 2.82-6.737 3.214h-0.398c0.003-3.442 0.001-6.885-0.003-10.327-0.001-0.552 0.086-1.264 0.685-1.483 0.79-0.279 1.644-0.076 2.46-0.088-0.001 0.87-0.009 1.739-0.008 2.609 2.33-1.276 4.671-2.539 6.992-3.833-2.29-1.423-4.573-2.857-6.874-4.264-0.047 0.933-0.024 1.869-0.042 2.804-1.542-0.039-3.365-0.265-4.435 1.125-0.53-0.578-1.16-1.156-1.967-1.268-0.764-0.090-1.537-0.034-2.303-0.055-0.015-0.951 0.020-1.901 0.046-2.85-2.417 1.31-4.816 2.653-7.224 3.981 2.321 1.433 4.669 2.821 7.002 4.233 0.021-0.896 0.016-1.793 0.030-2.69 0.758 0.021 1.527-0.054 2.277 0.093 0.57 0.117 0.847 0.744 0.811 1.279-0.012 3.579-0.032 7.157-0.036 10.736h-0.058c-2.73-0.444-5.351-1.724-7.251-3.752-1.724-1.856-2.822-4.248-3.214-6.743v-3.015c0.393-2.494 1.491-4.884 3.214-6.739 1.907-2.031 4.537-3.322 7.28-3.752z"></path>
<path fill="#fff" d="M0.44 10.35c2.408-1.327 4.807-2.671 7.224-3.981-0.025 0.949-0.060 1.9-0.046 2.85 0.767 0.021 1.539-0.035 2.303 0.055 0.807 0.113 1.437 0.69 1.967 1.268 1.070-1.39 2.893-1.164 4.435-1.125 0.017-0.935-0.005-1.87 0.042-2.804 2.301 1.406 4.584 2.841 6.874 4.264-2.321 1.294-4.662 2.557-6.992 3.833-0.001-0.87 0.007-1.739 0.008-2.609-0.817 0.012-1.671-0.19-2.46 0.088-0.599 0.219-0.686 0.93-0.685 1.483 0.004 3.442 0.005 6.885 0.003 10.327h-2.59c0.004-3.579 0.024-7.157 0.036-10.736 0.036-0.535-0.241-1.162-0.811-1.279-0.75-0.146-1.519-0.071-2.277-0.093-0.013 0.897-0.008 1.794-0.030 2.69-2.333-1.412-4.681-2.8-7.002-4.233z"></path>
</svg>
