<!-- Generated by IcoMoon.io -->
<svg version="1.1" xmlns="http://www.w3.org/2000/svg" width="31" height="24" viewBox="0 0 31 24">
<title>regulatory--one-way-right--g1</title>
<path fill="#fff" d="M0 0h31.13v2.017c-0.167-0.72-0.777-1.323-1.55-1.27-9.402-0.019-18.805 0.005-28.209-0.012-0.473-0.014-0.93 0.122-1.372 0.28v-1.016z"></path>
<path fill="#fff" d="M17.624 5.005c-0.172-0.779 0.87-1.33 1.416-0.744 2.983 2.621 5.937 5.271 8.899 7.915-2.967 2.638-5.925 5.287-8.89 7.927-0.553 0.588-1.607 0.043-1.423-0.75 0.355-1.565 0.835-3.103 1.228-4.661-5.388-0.009-10.776 0.002-16.162-0.005-0.003-1.671-0.003-3.343 0-5.014 5.388-0.007 10.774 0.003 16.162-0.005-0.391-1.558-0.871-3.096-1.23-4.663z"></path>
<path fill="#fff" d="M29.581 23.616c0.739 0.071 1.292-0.503 1.55-1.139v1.523h-31.13v-0.678c0.372 0.186 0.777 0.311 1.197 0.301 9.461-0.010 18.923 0 28.384-0.007z"></path>
<path fill="#03559b" d="M0 1.016c0.442-0.158 0.899-0.294 1.372-0.28 9.403 0.017 18.807-0.007 28.209 0.012 0.772-0.054 1.383 0.55 1.55 1.27v20.459c-0.257 0.637-0.81 1.21-1.55 1.139-9.461 0.007-18.923-0.003-28.384 0.007-0.419 0.010-0.824-0.115-1.197-0.301v-22.306M17.624 5.005c0.358 1.567 0.838 3.104 1.23 4.663-5.388 0.009-10.774-0.002-16.162 0.005-0.003 1.671-0.003 3.343 0 5.014 5.386 0.007 10.774-0.003 16.162 0.005-0.393 1.558-0.873 3.096-1.228 4.661-0.184 0.793 0.87 1.337 1.423 0.75 2.965-2.64 5.923-5.289 8.89-7.927-2.962-2.643-5.917-5.294-8.899-7.915-0.546-0.586-1.588-0.035-1.416 0.744z"></path>
</svg>
