<svg xmlns="http://www.w3.org/2000/svg" width="24" height="24">
    <path d="M11.028 0h1.924c.77.138 1.552.222 2.305.447 4.036 1.102 7.339 4.476 8.357 8.533.189.671.252 1.367.386 2.049v1.919c-.332 3.358-2.024 6.581-4.745 8.608-1.806 1.407-4.027 2.177-6.285 2.444h-1.92c-.821-.144-1.653-.239-2.45-.493-3.998-1.146-7.25-4.525-8.235-8.567C.19 14.294.129 13.627 0 12.972v-1.925c.255-2.218 1-4.4 2.358-6.19C4.378 2.081 7.631.343 11.028 0zM7.914 1.411C4.661 2.645 2.062 5.463 1.105 8.81.14 12.05.731 15.7 2.669 18.47c1.453-1.449 2.912-2.893 4.35-4.357.655-1.03 1.206-2.127 1.854-3.163.172.271.33.552.482.835.882-.863 1.733-1.755 2.63-2.602a3.053 3.053 0 0 1-.397-1.31c-.48.218-.915.705-1.476.618-.498-.193-.221-.777-.028-1.098.849-1.41 1.581-2.907 2.505-4.261.671 1.149 1.324 2.307 1.988 3.459 1.275-1.331 2.604-2.609 3.895-3.924C15.442.545 11.357.053 7.914 1.411zm6.916 5.614l.189.338c1.354-1.418 2.771-2.774 4.141-4.175l-.266-.201c-1.36 1.341-2.687 2.714-4.064 4.038zm.436.781c.018.19.015.38-.014.569 1.463-1.594 3.053-3.068 4.558-4.623l-.248-.216c-1.438 1.417-2.842 2.869-4.296 4.27zm-.845 2.042c.058.123.117.244.177.366 1.909-1.978 3.891-3.884 5.811-5.851l-.233-.227c-1.927 1.896-3.797 3.85-5.755 5.712zm.422.815l.185.34c1.948-2.017 3.963-3.97 5.933-5.966l-.2-.264c-1.979 1.956-3.921 3.951-5.918 5.89zm.428.774c.892 1.354 1.121 3.271.066 4.602-.829.922-1.69 1.817-2.547 2.713-.498-.313-.884-.775-1.323-1.164.755-.971 1.7-1.787 2.488-2.733.405-.618.32-1.443-.022-2.07-2.797 2.856-5.651 5.656-8.467 8.494 2.924 2.091 6.862 2.642 10.25 1.448 3.32-1.13 6.025-3.892 7.084-7.235 1.097-3.336.526-7.169-1.52-10.026-2.011 1.982-3.973 4.015-6.009 5.971zm-1.699-3.151l.173.348c.139-.135.275-.272.41-.411l-.338-.191-.245.254zm.423.794l.179.338c.298-.31.602-.615.921-.905a43.455 43.455 0 0 1-.514-.015c-.2.19-.395.385-.586.582zm-4.362 3.167l.153.294c.902-.826 1.721-1.74 2.623-2.566l-.178-.35c-.847.893-1.735 1.745-2.598 2.622zm.447.769l.153.315c.871-.857 1.725-1.731 2.602-2.581a55.772 55.772 0 0 1-.184-.336c-.831.892-1.717 1.732-2.571 2.602zm.439.778l.156.31c.866-.853 1.721-1.719 2.587-2.573l-.191-.324c-.822.89-1.706 1.72-2.552 2.587zm-1.058 2.278c-.136.145-.06.372-.086.551 1.444-1.417 2.841-2.881 4.31-4.272l-.182-.353c-1.319 1.386-2.701 2.711-4.042 4.074zm-2.474-1.185c-1.329 1.34-2.67 2.669-4.001 4.007l.205.263c1.598-1.59 3.197-3.179 4.779-4.785-.311.204-.735.217-.983.515zm2.389.515c.281-.267.553-.545.826-.821l-.316-.15c-.289.256-.626.531-.51.971zm-5.839 4.16l.217.245c1.502-1.485 2.99-2.985 4.484-4.478.181-.15.106-.403.127-.606-1.602 1.62-3.224 3.221-4.828 4.839zm.595.62l.252.224c1.282-1.294 2.577-2.575 3.861-3.868.175-.147.094-.4.121-.597-1.407 1.417-2.827 2.823-4.234 4.241zm4.28-3.059a960.131 960.131 0 0 0-3.639 3.638l.266.197c1.286-1.273 2.556-2.562 3.843-3.833l-.47-.002z"/>
    <path fill="#fff" d="M7.914 1.411C11.357.053 15.442.545 18.472 2.667c-1.291 1.315-2.62 2.593-3.895 3.924-.664-1.152-1.317-2.31-1.988-3.459-.924 1.354-1.656 2.851-2.505 4.261-.193.321-.47.905.028 1.098.561.087.996-.4 1.476-.618.036.461.163.91.397 1.31-.897.847-1.748 1.739-2.63 2.602-.152-.283-.31-.564-.482-.835-.648 1.036-1.199 2.133-1.854 3.163-1.438 1.464-2.897 2.908-4.35 4.357C.731 15.7.14 12.05 1.105 8.81c.957-3.347 3.556-6.165 6.809-7.399zM14.83 7.025c1.377-1.324 2.704-2.697 4.064-4.038l.266.201c-1.37 1.401-2.787 2.757-4.141 4.175l-.189-.338zM15.266 7.806c1.454-1.401 2.858-2.853 4.296-4.27l.248.216c-1.505 1.555-3.095 3.029-4.558 4.623.029-.189.032-.379.014-.569zM14.421 9.848c1.958-1.862 3.828-3.816 5.755-5.712l.233.227c-1.92 1.967-3.902 3.873-5.811 5.851-.06-.122-.119-.243-.177-.366zM14.843 10.663c1.997-1.939 3.939-3.934 5.918-5.89l.2.264c-1.97 1.996-3.985 3.949-5.933 5.966a56.856 56.856 0 0 1-.185-.34zM15.271 11.437c2.036-1.956 3.998-3.989 6.009-5.971 2.046 2.857 2.617 6.69 1.52 10.026-1.059 3.343-3.764 6.105-7.084 7.235-3.388 1.194-7.326.643-10.25-1.448 2.816-2.838 5.67-5.638 8.467-8.494.342.627.427 1.452.022 2.07-.788.946-1.733 1.762-2.488 2.733.439.389.825.851 1.323 1.164.857-.896 1.718-1.791 2.547-2.713 1.055-1.331.826-3.248-.066-4.602zM13.995 9.08c.191-.197.386-.392.586-.582.171.006.342.011.514.015-.319.29-.623.595-.921.905l-.179-.338zM9.633 12.247c.863-.877 1.751-1.729 2.598-2.622l.178.35c-.902.826-1.721 1.74-2.623 2.566l-.153-.294zM10.08 13.016c.854-.87 1.74-1.71 2.571-2.602l.184.336c-.877.85-1.731 1.724-2.602 2.581l-.153-.315zM10.519 13.794c.846-.867 1.73-1.697 2.552-2.587l.191.324c-.866.854-1.721 1.72-2.587 2.573l-.156-.31zM9.461 16.072c1.341-1.363 2.723-2.688 4.042-4.074l.182.353c-1.469 1.391-2.866 2.855-4.31 4.272.026-.179-.05-.406.086-.551zM6.987 14.887c.248-.298.672-.311.983-.515-1.582 1.606-3.181 3.195-4.779 4.785l-.205-.263c1.331-1.338 2.672-2.667 4.001-4.007zM3.537 19.562c1.604-1.618 3.226-3.219 4.828-4.839-.021.203.054.456-.127.606-1.494 1.493-2.982 2.993-4.484 4.478l-.217-.245zM4.132 20.182c1.407-1.418 2.827-2.824 4.234-4.241-.027.197.054.45-.121.597-1.284 1.293-2.579 2.574-3.861 3.868a50.7 50.7 0 0 0-.252-.224zM8.412 17.123l.47.002c-1.287 1.271-2.557 2.56-3.843 3.833l-.266-.197a960.131 960.131 0 0 1 3.639-3.638z"/>
    <path fill="#f3f3f3" d="M13.572 8.286l.245-.254.338.191a19.86 19.86 0 0 1-.41.411 56.222 56.222 0 0 1-.173-.348z"/>
    <path fill="#fefefe" d="M9.376 15.402c-.116-.44.221-.715.51-.971l.316.15c-.273.276-.545.554-.826.821z"/>
</svg>
