<!-- Generated by IcoMoon.io -->
<svg version="1.1" xmlns="http://www.w3.org/2000/svg" width="24" height="24" viewBox="0 0 24 24">
<title>regulatory--dual-path-bicycles-and-pedestrians--g1</title>
<path fill="#0379c1" d="M10.713 0h2.548c4.259 0.498 8.175 3.322 9.812 7.31 0.481 1.081 0.709 2.247 0.927 3.403v2.548c-0.498 4.259-3.323 8.175-7.311 9.812-1.081 0.481-2.247 0.709-3.402 0.927h-2.548c-4.259-0.497-8.174-3.322-9.812-7.31-0.48-1.081-0.709-2.247-0.927-3.403v-2.547c0.211-1.167 0.443-2.34 0.927-3.429 1.634-3.982 5.538-6.799 9.786-7.311M14.1 1.039c0.001 7.365 0.001 14.728 0 22.093 0.262 0 0.523 0 0.785 0-0.001-7.365-0.001-14.729-0.001-22.094-0.26 0-0.522 0-0.784 0.001M17.86 7.293c-0.576 0.227-1.39 0.424-1.487 1.15-0.329 1.157-0.318 2.355-0.274 3.545 0.071 0.057 0.216 0.171 0.287 0.227 0.17-0.14 0.36-0.292 0.273-0.537-0.166-0.894 0.037-1.822 0.544-2.574-0.041 1.011-0.232 2.013-0.213 3.027-0.010 1.448 0.401 2.867 0.333 4.315 0.198-0.153 0.391-0.311 0.582-0.474-0.114-1.252-0.038-2.514 0.102-3.76 0.328 1.205 0.225 2.463 0.291 3.696 0.263 0.189 0.532 0.369 0.813 0.531-0.319-0.636-0.12-1.346-0.086-2.017 0.221-1.735 0.158-3.48 0.128-5.224 0.304 0.932 0.905 1.806 0.927 2.805 0.336 0.204 0.689 0.38 1.048 0.541-0.126 0.671-0.366 1.321-0.444 2 0.314 0.571 0.611 1.263 0.25 1.889 0.19-0.114 0.38-0.226 0.569-0.341 0-0.46-0.005-0.919 0.045-1.376 0.35 0.525 0.203 1.28 0.762 1.675 0.050-1.158-0.149-2.351 0.068-3.483 0.19 0.463 0.229 0.965 0.133 1.454 0.18-0.070 0.497-0.046 0.443-0.327 0.026-0.781 0.101-1.804-0.724-2.219 0.273-0.384 0.199-1.081-0.388-1.062-0.604 0.045-0.589 0.765-0.287 1.14-0.195 0.023-0.391 0.046-0.586 0.070-0.717-1.111-0.705-2.515-1.095-3.754-0.052-0.608-0.742-0.703-1.19-0.911 0.471-0.527 0.486-1.624-0.412-1.642-0.917-0.006-0.868 1.111-0.411 1.634M4.274 9.769c-0.272 0.332 0.010 0.693 0.218 0.964-0.139 0.557-0.291 1.109-0.438 1.663-1.080-0.351-2.373 0.223-2.686 1.349-0.453 1.294 0.725 2.764 2.081 2.632 1.187-0.047 2.156-1.28 1.875-2.449-0.077-0.601-0.613-0.973-0.831-1.51 0.848 0.472 1.607 1.084 2.406 1.631-0.107 0.711 0.475 1.249 1.171 1.181-0.064 0.153-0.129 0.306-0.191 0.461 0.347 0.121 0.707 0.089 1.006-0.131-0.172-0.065-0.345-0.129-0.518-0.191-0.028-0.068-0.084-0.204-0.112-0.273 0.153-0.214 0.305-0.431 0.458-0.647 0.206 0.705 0.555 1.448 1.279 1.744 1.287 0.669 2.976-0.461 2.888-1.896 0.015-1.404-1.564-2.389-2.844-1.873-0.273-0.467-0.541-0.938-0.804-1.412 0.045-0.106 0.089-0.213 0.135-0.319 0.258-0.151 0.48-0.352 0.649-0.6-0.687-0.022-1.383-0.075-2.066 0.031-0.045 0.425 0.623 0.317 0.905 0.462-0.061 0.167-0.123 0.336-0.184 0.504-1.224 0.003-2.449-0.004-3.673 0.004 0.065-0.366-0.034-0.716-0.24-1.020 0.299-0.004 0.596-0.006 0.894-0.009 0-0.172 0-0.345-0.001-0.516-0.449 0.045-1.025-0.142-1.376 0.22z"></path>
<path fill="#0379c1" d="M4.671 11.653c1.266-0.11 2.54-0.031 3.809-0.050-0.227 0.641-0.454 1.282-0.702 1.915-0.133-0.028-0.266-0.056-0.397-0.083 0.101-0.148 0.203-0.296 0.304-0.446-0.342-0.051-0.803-0.18-1.003 0.206 0.119 0.023 0.356 0.069 0.475 0.092 0.054 0.138 0.107 0.276 0.161 0.414-0.864-0.693-1.991-1.15-2.646-2.048z"></path>
<path fill="#0379c1" d="M9.003 11.68c0.206 0.329 0.398 0.665 0.585 1.005-0.452 0.412-0.707 0.97-0.863 1.551-0.146-0.199-0.289-0.401-0.433-0.601 0.236-0.652 0.466-1.306 0.711-1.954z"></path>
<path fill="#0379c1" d="M1.894 14.165c0.082-0.961 1.157-1.489 2.023-1.186-0.109 0.531-0.41 0.986-0.818 1.335 0.034 0.068 0.103 0.204 0.138 0.273 0.659-0.105 1.001-0.68 1.145-1.279 0.62 0.721 0.446 1.967-0.471 2.346-0.964 0.479-2.196-0.424-2.017-1.49z"></path>
<path fill="#0379c1" d="M10.343 12.954c0.697-0.176 1.522 0.093 1.811 0.791 0.425 0.868-0.251 2.006-1.22 2.030-0.765 0.080-1.389-0.537-1.559-1.242 0.597-0.004 1.197 0.019 1.791-0.068-0.244-0.52-0.548-1.009-0.823-1.511z"></path>
<path fill="#0379c1" d="M9.86 13.217c0.2 0.305 0.387 0.619 0.568 0.936-0.354 0.003-0.707 0-1.061-0.009 0.129-0.327 0.296-0.637 0.493-0.927z"></path>
<path fill="#0379c1" d="M7.583 13.834c0.664-0.278 1.030 0.859 0.332 1.019-0.641 0.223-0.965-0.823-0.332-1.019z"></path>
<path fill="#fff" d="M14.1 1.039c0.262-0.001 0.523-0.001 0.784-0.001 0 7.365 0 14.729 0.001 22.094-0.262 0-0.523 0-0.785 0 0.001-7.365 0.001-14.728 0-22.093z"></path>
<path fill="#fff" d="M17.86 7.293c-0.457-0.523-0.506-1.64 0.411-1.634 0.899 0.018 0.883 1.114 0.412 1.642 0.448 0.208 1.137 0.304 1.19 0.911 0.391 1.24 0.378 2.644 1.095 3.754 0.195-0.024 0.391-0.047 0.586-0.070-0.301-0.375-0.317-1.095 0.287-1.14 0.587-0.019 0.661 0.678 0.388 1.062 0.825 0.415 0.749 1.437 0.724 2.219 0.054 0.281-0.263 0.257-0.443 0.327 0.096-0.489 0.057-0.991-0.133-1.454-0.217 1.131-0.018 2.325-0.068 3.483-0.559-0.394-0.412-1.15-0.762-1.675-0.050 0.457-0.045 0.917-0.045 1.376-0.189 0.115-0.379 0.227-0.569 0.341 0.361-0.627 0.064-1.319-0.25-1.889 0.078-0.679 0.318-1.329 0.444-2-0.359-0.161-0.712-0.337-1.048-0.541-0.022-0.998-0.623-1.873-0.927-2.805 0.031 1.744 0.093 3.489-0.128 5.224-0.034 0.671-0.234 1.381 0.086 2.017-0.281-0.162-0.55-0.342-0.813-0.531-0.066-1.233 0.037-2.491-0.291-3.696-0.14 1.246-0.216 2.507-0.102 3.76-0.191 0.162-0.384 0.32-0.582 0.474 0.068-1.448-0.343-2.867-0.333-4.315-0.019-1.014 0.172-2.016 0.213-3.027-0.507 0.752-0.71 1.68-0.544 2.574 0.087 0.245-0.103 0.397-0.273 0.537-0.071-0.056-0.216-0.17-0.287-0.227-0.043-1.19-0.055-2.389 0.274-3.545 0.097-0.726 0.911-0.923 1.487-1.15z"></path>
<path fill="#fff" d="M4.274 9.769c0.351-0.361 0.927-0.175 1.376-0.22 0.001 0.171 0.001 0.343 0.001 0.516-0.297 0.003-0.595 0.005-0.894 0.009 0.206 0.304 0.305 0.654 0.24 1.020 1.224-0.008 2.449-0.001 3.673-0.004 0.061-0.169 0.123-0.337 0.184-0.504-0.282-0.146-0.95-0.037-0.905-0.462 0.683-0.106 1.379-0.052 2.066-0.031-0.169 0.248-0.391 0.449-0.649 0.6-0.046 0.106-0.091 0.213-0.135 0.319 0.263 0.474 0.531 0.945 0.804 1.412 1.28-0.516 2.86 0.469 2.844 1.873 0.088 1.435-1.601 2.565-2.888 1.896-0.724-0.296-1.074-1.039-1.279-1.744-0.153 0.216-0.305 0.433-0.458 0.647 0.028 0.069 0.084 0.206 0.112 0.273 0.174 0.063 0.346 0.126 0.518 0.191-0.299 0.221-0.659 0.253-1.006 0.131 0.063-0.154 0.128-0.308 0.191-0.461-0.696 0.068-1.278-0.47-1.171-1.181-0.799-0.548-1.559-1.159-2.406-1.631 0.218 0.537 0.754 0.909 0.831 1.51 0.281 1.168-0.688 2.401-1.875 2.449-1.356 0.131-2.534-1.338-2.081-2.632 0.313-1.126 1.606-1.7 2.686-1.349 0.147-0.554 0.299-1.107 0.438-1.663-0.208-0.271-0.49-0.632-0.218-0.964M4.671 11.653c0.655 0.897 1.782 1.354 2.646 2.048-0.054-0.138-0.107-0.276-0.161-0.414-0.119-0.023-0.356-0.069-0.475-0.092 0.2-0.386 0.661-0.257 1.003-0.206-0.101 0.149-0.203 0.297-0.304 0.446 0.131 0.027 0.264 0.055 0.397 0.083 0.248-0.633 0.475-1.274 0.702-1.915-1.269 0.019-2.543-0.060-3.809 0.050M9.003 11.68c-0.245 0.649-0.475 1.302-0.711 1.954 0.144 0.2 0.287 0.402 0.433 0.601 0.156-0.581 0.411-1.139 0.863-1.551-0.186-0.34-0.379-0.675-0.585-1.005M1.894 14.165c-0.179 1.066 1.053 1.969 2.017 1.49 0.917-0.379 1.091-1.625 0.471-2.346-0.144 0.599-0.486 1.174-1.145 1.279-0.034-0.069-0.103-0.206-0.138-0.273 0.409-0.35 0.71-0.804 0.818-1.335-0.867-0.303-1.942 0.225-2.023 1.186M10.343 12.954c0.276 0.503 0.58 0.992 0.823 1.511-0.594 0.087-1.194 0.064-1.791 0.068 0.17 0.705 0.794 1.323 1.559 1.242 0.969-0.024 1.646-1.162 1.22-2.030-0.29-0.698-1.114-0.968-1.811-0.791M9.86 13.217c-0.197 0.29-0.364 0.6-0.493 0.927 0.354 0.009 0.707 0.011 1.061 0.009-0.181-0.317-0.368-0.631-0.568-0.936M7.583 13.834c-0.633 0.195-0.309 1.242 0.332 1.019 0.698-0.16 0.332-1.297-0.332-1.019z"></path>
</svg>
