<?xml version="1.0" encoding="utf-8"?>
<!-- Generated by IcoMoon.io -->
<!DOCTYPE svg PUBLIC "-//W3C//DTD SVG 1.1//EN" "http://www.w3.org/Graphics/SVG/1.1/DTD/svg11.dtd">
<svg version="1.1" xmlns="http://www.w3.org/2000/svg" xmlns:xlink="http://www.w3.org/1999/xlink" width="24" height="24" viewBox="0 0 24 24">
<path fill="#244ba6" d="M11.043 0h1.898c2.494 0.218 4.926 1.192 6.83 2.829 2.433 2.032 3.963 5.063 4.229 8.215v1.905c-0.221 2.493-1.195 4.923-2.83 6.825-2.031 2.431-5.060 3.959-8.211 4.227h-2.049c-2.59-0.283-5.1-1.346-7.019-3.123-2.243-2.021-3.642-4.916-3.891-7.92v-2.044c0.309-3.075 1.795-6.023 4.159-8.026 1.911-1.666 4.363-2.662 6.883-2.888M9.534 0.566c0 7.611 0 15.221 0 22.832 0.117 0 0.354 0 0.472 0 0-7.611 0-15.221 0-22.831-0.158 0-0.315-0.001-0.472-0.001M3.019 6.729c-0.36 0.278-0.174 0.752 0.074 1.035 0.326 0.014 0.733 0.024 0.841-0.36 0.276-0.532-0.49-1.091-0.915-0.675M2.466 8.206c-0.258 0.603-0.666 1.191-0.62 1.874 0.023 0.378-0.060 0.779 0.079 1.139 0.096 0.005 0.285 0.017 0.379 0.022 0.194-0.654-0.125-1.397 0.262-2.011 0.064 1.088-0.056 2.183 0.069 3.267-0.086 0.67-0.071 1.353-0.031 2.026 0.153 0.195 0.437 0.079 0.649 0.106 0.046-1.155-0.036-2.311 0.024-3.466 0.332-0.042 0.213 0.282 0.249 0.457 0.029 1.104-0.010 2.207-0.005 3.311 0.018 0.2-0.032 0.425 0.075 0.606 0.218 0.075 0.682 0.135 0.651-0.218 0.010-2.039 0-4.077 0.009-6.117 0.272 0.614 0.486 1.254 0.78 1.856 0.313 0.332 0.769 0.488 1.169 0.689 0.125-0.234 0.246-0.47 0.366-0.706 0.010 1.469-0.004 2.937 0.017 4.406 0.161-0.022 0.319-0.050 0.476-0.087 0.074-0.734-0.024-1.472 0.010-2.209 0.019-0.249-0.037-0.534 0.147-0.737 0.126 0.789 0.005 1.586 0.045 2.38 0.165 0.001 0.331 0.001 0.495 0 0.015-1.206-0.026-2.413 0.043-3.618 0.249 0.437 0.028 0.978 0.229 1.407 0.070-0.009 0.209-0.027 0.278-0.037 0.13-0.783-0.119-1.568-0.494-2.246-0.423-0.142-0.908-0.149-1.324 0.015-0.221 0.255-0.299 0.601-0.446 0.9-0.221-0.131-0.44-0.263-0.66-0.397-0.305-0.908-0.626-1.815-1.021-2.689-0.375-0.218-0.863-0.172-1.288-0.154-0.207 0.050-0.522-0.020-0.613 0.23M7.058 9.097c-0.272 0.060-0.465 0.309-0.388 0.591 0.046 0.462 0.803 0.566 0.942 0.109 0.23-0.338-0.189-0.822-0.554-0.7M14.459 9.057c0.074 0.497 0.374 0.906 0.596 1.343-0.188 0.309-0.373 0.62-0.554 0.933-1.034-0.447-2.332-0.093-2.964 0.845-0.832 1.158-0.24 3.049 1.141 3.463 0.682 0.26 1.467 0.144 2.080-0.235 0.703-0.454 1.139-1.298 1.054-2.138-0.029-0.725-0.475-1.357-1.052-1.767 0.154-0.286 0.309-0.571 0.467-0.854 0.448 0.791 0.905 1.578 1.353 2.371-0.351 0.412-0.028 1.112 0.527 1.015 0.471-0.086 0.512-0.65 0.329-1.007 0.424-0.799 0.873-1.584 1.309-2.377 0.157 0.282 0.311 0.566 0.466 0.85-0.775 0.586-1.217 1.6-0.943 2.56 0.262 1.371 1.953 2.108 3.183 1.526 1.375-0.514 1.805-2.471 0.866-3.564-0.666-0.839-1.869-1.102-2.846-0.687-0.184-0.315-0.369-0.628-0.554-0.941 0.087-0.146 0.174-0.29 0.26-0.435 0.241 0 0.484 0 0.726 0 0-0.197 0-0.393 0-0.59-0.585 0.091-1.169 0.189-1.751 0.295-0.005 0.071-0.014 0.216-0.018 0.287 0.234 0.005 0.467 0.009 0.701 0.013-0.045 0.065-0.134 0.194-0.179 0.259-1.116-0.001-2.23 0-3.345 0-0.157-0.287-0.315-0.574-0.472-0.86 0.472 0.001 0.945 0 1.417 0 0-0.077 0-0.23 0-0.306-0.6 0.001-1.199-0.001-1.797 0.003z"></path>
<path fill="#244ba6" d="M15.481 10.519c1.002 0.001 2.006-0.001 3.008 0.001-0.443 0.783-0.885 1.565-1.325 2.35-0.077 0.003-0.229 0.008-0.305 0.010-0.462-0.785-0.917-1.575-1.377-2.362z"></path>
<path fill="#244ba6" d="M11.552 12.816c0.184-0.683 0.804-1.151 1.464-1.326 0.448-0.13 0.91 0.005 1.352 0.097-0.289 0.53-0.597 1.048-0.885 1.579-0.064 0.023-0.193 0.069-0.258 0.093 0.003 0.249-0.008 0.54 0.334 0.485 0.206-0.151 0.189-0.439 0.303-0.649 0.227-0.463 0.52-0.892 0.775-1.342 0.421 0.363 0.763 0.84 0.846 1.402 0.235 1.154-0.785 2.351-1.951 2.35-1.316 0.047-2.475-1.427-1.981-2.69z"></path>
<path fill="#244ba6" d="M19.598 11.585c0.735-0.221 1.598-0.225 2.206 0.306 1.051 0.771 0.919 2.542-0.151 3.237-0.978 0.794-2.523 0.248-3.019-0.84-0.433-0.876-0.041-1.96 0.706-2.53 0.341 0.628 0.804 1.205 0.969 1.916 0.183 0.126 0.394 0.040 0.486-0.147 0.006-0.271-0.314-0.366-0.425-0.585-0.272-0.444-0.509-0.909-0.772-1.358z"></path>
<path fill="#fff" d="M9.534 0.566c0.157 0 0.314 0.001 0.472 0.001 0 7.61 0 15.22 0 22.831-0.119 0-0.355 0-0.472 0 0-7.611 0-15.221 0-22.832z"></path>
<path fill="#fff" d="M3.019 6.729c0.425-0.416 1.191 0.143 0.915 0.675-0.109 0.384-0.516 0.374-0.841 0.36-0.248-0.283-0.434-0.757-0.074-1.035z"></path>
<path fill="#fff" d="M2.466 8.206c0.091-0.25 0.406-0.18 0.613-0.23 0.425-0.018 0.913-0.064 1.288 0.154 0.396 0.873 0.716 1.781 1.021 2.689 0.22 0.134 0.439 0.266 0.66 0.397 0.147-0.299 0.225-0.645 0.446-0.9 0.416-0.165 0.901-0.157 1.324-0.015 0.375 0.678 0.624 1.463 0.494 2.246-0.069 0.010-0.208 0.028-0.278 0.037-0.2-0.429 0.020-0.97-0.229-1.407-0.069 1.205-0.028 2.411-0.043 3.618-0.165 0.001-0.331 0.001-0.495 0-0.040-0.794 0.082-1.591-0.045-2.38-0.184 0.203-0.128 0.488-0.147 0.737-0.034 0.737 0.064 1.474-0.010 2.209-0.157 0.037-0.315 0.065-0.476 0.087-0.020-1.468-0.006-2.936-0.017-4.406-0.12 0.236-0.241 0.472-0.366 0.706-0.401-0.202-0.857-0.357-1.169-0.689-0.294-0.603-0.508-1.242-0.78-1.856-0.009 2.040 0.001 4.079-0.009 6.117 0.031 0.354-0.433 0.294-0.651 0.218-0.107-0.181-0.057-0.406-0.075-0.606-0.005-1.104 0.034-2.207 0.005-3.311-0.036-0.175 0.083-0.499-0.249-0.457-0.060 1.155 0.022 2.311-0.024 3.466-0.212-0.027-0.495 0.089-0.649-0.106-0.041-0.673-0.055-1.356 0.031-2.026-0.125-1.084-0.005-2.179-0.069-3.267-0.387 0.614-0.068 1.357-0.262 2.011-0.094-0.005-0.283-0.017-0.379-0.022-0.139-0.36-0.056-0.761-0.079-1.139-0.046-0.683 0.363-1.271 0.62-1.874z"></path>
<path fill="#fff" d="M7.058 9.097c0.365-0.123 0.784 0.361 0.554 0.7-0.139 0.457-0.896 0.354-0.942-0.109-0.077-0.282 0.116-0.531 0.388-0.591z"></path>
<path fill="#fff" d="M14.459 9.057c0.599-0.004 1.197-0.001 1.797-0.003 0 0.077 0 0.23 0 0.306-0.472 0-0.945 0.001-1.417 0 0.157 0.286 0.315 0.573 0.472 0.86 1.114 0 2.229-0.001 3.345 0 0.045-0.065 0.134-0.194 0.179-0.259-0.234-0.004-0.467-0.008-0.701-0.013 0.004-0.071 0.013-0.216 0.018-0.287 0.582-0.106 1.167-0.204 1.751-0.295 0 0.197 0 0.393 0 0.59-0.243 0-0.485 0-0.726 0-0.087 0.146-0.174 0.29-0.26 0.435 0.185 0.313 0.37 0.626 0.554 0.941 0.977-0.415 2.179-0.152 2.846 0.687 0.94 1.093 0.509 3.050-0.866 3.564-1.229 0.582-2.921-0.154-3.183-1.526-0.273-0.96 0.169-1.974 0.943-2.56-0.154-0.285-0.309-0.568-0.466-0.85-0.435 0.793-0.885 1.578-1.309 2.377 0.183 0.357 0.142 0.922-0.329 1.007-0.555 0.097-0.878-0.603-0.527-1.015-0.448-0.793-0.905-1.579-1.353-2.371-0.158 0.283-0.313 0.568-0.467 0.854 0.577 0.41 1.023 1.042 1.052 1.767 0.084 0.84-0.351 1.684-1.054 2.138-0.613 0.379-1.398 0.495-2.080 0.235-1.381-0.415-1.974-2.306-1.141-3.463 0.632-0.938 1.93-1.292 2.964-0.845 0.181-0.313 0.366-0.624 0.554-0.933-0.222-0.437-0.522-0.846-0.596-1.343M15.481 10.519c0.461 0.786 0.915 1.577 1.377 2.362 0.077-0.003 0.229-0.008 0.305-0.010 0.44-0.785 0.882-1.568 1.325-2.35-1.002-0.003-2.006 0-3.008-0.001M11.552 12.816c-0.494 1.263 0.665 2.737 1.981 2.69 1.166 0.001 2.186-1.196 1.951-2.35-0.083-0.562-0.425-1.039-0.846-1.402-0.255 0.449-0.548 0.878-0.775 1.342-0.114 0.209-0.097 0.498-0.303 0.649-0.342 0.055-0.332-0.236-0.334-0.485 0.065-0.024 0.194-0.070 0.258-0.093 0.287-0.531 0.596-1.049 0.885-1.579-0.442-0.092-0.904-0.227-1.352-0.097-0.66 0.175-1.28 0.643-1.464 1.326M19.598 11.585c0.263 0.449 0.5 0.914 0.772 1.358 0.111 0.218 0.431 0.314 0.425 0.585-0.092 0.186-0.304 0.273-0.486 0.147-0.165-0.711-0.628-1.288-0.969-1.916-0.747 0.571-1.139 1.654-0.706 2.53 0.497 1.088 2.041 1.634 3.019 0.84 1.070-0.696 1.201-2.466 0.151-3.237-0.608-0.531-1.471-0.527-2.206-0.306z"></path>
</svg>
