<!-- Generated by IcoMoon.io -->
<svg version="1.1" xmlns="http://www.w3.org/2000/svg" width="24" height="24" viewBox="0 0 24 24">
<title>regulatory--maximum-speed-limit-led-30--g1</title>
<path fill="#000" d="M0 0h10.987c-1.906 0.198-3.786 0.788-5.402 1.831-2.488 1.56-4.367 4.064-5.158 6.893-0.219 0.742-0.327 1.508-0.427 2.273v-10.998z"></path>
<path fill="#000" d="M13.002 0h10.998v10.988c-0.227-2.29-1.063-4.529-2.49-6.343-1.796-2.335-4.476-3.974-7.38-4.481-0.374-0.074-0.754-0.099-1.129-0.164z"></path>
<path fill="#000" d="M11.408 1.195c1.729-0.097 3.483 0.23 5.060 0.947 2.69 1.208 4.833 3.567 5.774 6.362 0.943 2.73 0.725 5.836-0.598 8.404-1.334 2.643-3.8 4.687-6.65 5.492-1.785 0.513-3.701 0.56-5.506 0.125-2.867-0.668-5.412-2.576-6.87-5.132-1.452-2.494-1.826-5.58-1.029-8.352 0.79-2.831 2.799-5.289 5.409-6.638 1.361-0.713 2.876-1.126 4.41-1.208M7.065 7.25c-1.006 0.696-1.223 2.023-1.247 3.162 0.371 0.001 0.742 0.001 1.112-0 0.023-0.612 0.074-1.266 0.425-1.788 0.544-0.728 1.844-0.732 2.345 0.050 0.319 0.477 0.357 1.081 0.302 1.637-0.040 0.366-0.17 0.769-0.506 0.965-0.474 0.268-1.037 0.283-1.568 0.295-0 0.402-0.001 0.803 0 1.205 0.59 0.002 1.254-0.061 1.747 0.332 0.535 0.42 0.633 1.161 0.605 1.797-0.015 0.715-0.308 1.518-1.005 1.827-0.673 0.278-1.588 0.189-2.047-0.429-0.369-0.503-0.428-1.147-0.484-1.749-0.368 0-0.735-0-1.103 0.001 0.067 1.138 0.292 2.463 1.305 3.153 1.136 0.692 2.808 0.531 3.681-0.518 0.579-0.662 0.788-1.562 0.8-2.423-0.002-0.559-0.059-1.138-0.312-1.644-0.228-0.458-0.643-0.8-1.105-1.004 0.782-0.397 1.171-1.288 1.163-2.135 0.023-0.87-0.171-1.809-0.806-2.445-0.854-0.835-2.31-0.908-3.303-0.288M14.828 6.908c-0.867 0.177-1.467 0.952-1.777 1.736-0.439 1.206-0.547 2.503-0.555 3.778 0 1.101 0.062 2.213 0.348 3.281 0.192 0.69 0.487 1.388 1.027 1.879 0.803 0.737 2.18 0.715 2.953-0.055 0.509-0.491 0.791-1.163 0.979-1.833 0.283-1.049 0.346-2.143 0.345-3.225-0.006-1.077-0.080-2.163-0.367-3.205-0.178-0.627-0.423-1.264-0.883-1.741-0.518-0.559-1.335-0.776-2.072-0.615z"></path>
<path fill="#000" d="M15.114 8.141c0.416-0.081 0.858 0.092 1.118 0.424 0.339 0.417 0.487 0.952 0.596 1.469 0.197 1.017 0.205 2.060 0.184 3.092-0.032 0.82-0.090 1.65-0.318 2.443-0.125 0.407-0.299 0.823-0.63 1.106-0.397 0.345-1.046 0.371-1.451 0.026-0.401-0.339-0.578-0.861-0.708-1.353-0.262-1.095-0.277-2.229-0.263-3.348 0.031-0.885 0.088-1.784 0.364-2.632 0.172-0.532 0.507-1.124 1.109-1.226z"></path>
<path fill="#000" d="M0 13.013c0.103 0.761 0.208 1.525 0.427 2.263 0.835 2.995 2.896 5.615 5.592 7.157 1.52 0.884 3.237 1.387 4.98 1.567h-11v-10.987z"></path>
<path fill="#000" d="M22.464 17.92c0.87-1.501 1.355-3.201 1.536-4.92v11h-10.989c0.761-0.105 1.526-0.208 2.265-0.428 3.016-0.841 5.655-2.924 7.189-5.651z"></path>
<path fill="#f00" d="M10.987 0h2.015c0.375 0.065 0.755 0.090 1.129 0.164 2.904 0.508 5.584 2.146 7.38 4.481 1.427 1.815 2.262 4.053 2.49 6.343v2.011c-0.18 1.72-0.665 3.419-1.536 4.92-1.533 2.728-4.173 4.81-7.189 5.651-0.738 0.221-1.503 0.324-2.265 0.428h-2.011c-1.743-0.18-3.46-0.683-4.98-1.567-2.696-1.543-4.757-4.163-5.592-7.157-0.219-0.738-0.324-1.502-0.427-2.263v-2.015c0.1-0.765 0.208-1.531 0.427-2.273 0.791-2.83 2.67-5.333 5.158-6.893 1.616-1.044 3.495-1.633 5.402-1.831M11.408 1.195c-1.534 0.083-3.049 0.496-4.41 1.208-2.61 1.349-4.62 3.807-5.409 6.638-0.797 2.772-0.423 5.858 1.029 8.352 1.458 2.556 4.002 4.464 6.87 5.132 1.805 0.435 3.721 0.388 5.506-0.125 2.85-0.806 5.317-2.849 6.65-5.492 1.323-2.568 1.541-5.674 0.598-8.404-0.941-2.795-3.084-5.154-5.774-6.362-1.577-0.718-3.33-1.044-5.060-0.947z"></path>
<path fill="#fff" d="M7.065 7.25c0.994-0.62 2.45-0.548 3.303 0.288 0.635 0.636 0.829 1.575 0.806 2.445 0.009 0.848-0.381 1.738-1.162 2.135 0.462 0.204 0.877 0.546 1.105 1.004 0.253 0.507 0.31 1.085 0.312 1.644-0.012 0.861-0.221 1.761-0.8 2.423-0.873 1.049-2.545 1.21-3.681 0.518-1.013-0.69-1.238-2.016-1.305-3.153 0.368-0.001 0.735-0 1.103-0.001 0.056 0.602 0.114 1.245 0.484 1.749 0.459 0.618 1.373 0.708 2.047 0.429 0.697-0.308 0.99-1.111 1.005-1.827 0.028-0.637-0.070-1.377-0.605-1.797-0.493-0.393-1.157-0.33-1.747-0.332-0.001-0.402-0.001-0.803-0-1.205 0.53-0.012 1.094-0.027 1.568-0.295 0.336-0.196 0.466-0.599 0.506-0.965 0.055-0.555 0.017-1.16-0.302-1.637-0.501-0.781-1.801-0.778-2.345-0.050-0.352 0.522-0.402 1.176-0.425 1.788-0.37 0.002-0.741 0.001-1.112 0 0.023-1.139 0.24-2.466 1.247-3.162z"></path>
<path fill="#fff" d="M14.828 6.908c0.737-0.161 1.553 0.055 2.072 0.615 0.459 0.477 0.705 1.114 0.883 1.741 0.286 1.042 0.36 2.129 0.367 3.205 0.001 1.082-0.062 2.176-0.345 3.225-0.188 0.669-0.471 1.342-0.979 1.833-0.773 0.771-2.15 0.792-2.953 0.055-0.54-0.491-0.835-1.188-1.027-1.879-0.286-1.068-0.348-2.181-0.348-3.281 0.008-1.275 0.116-2.572 0.555-3.778 0.31-0.785 0.909-1.56 1.777-1.736M15.114 8.141c-0.602 0.102-0.937 0.694-1.109 1.226-0.276 0.848-0.333 1.747-0.364 2.632-0.014 1.119 0.001 2.254 0.263 3.348 0.13 0.493 0.307 1.014 0.708 1.353 0.405 0.345 1.054 0.32 1.451-0.026 0.331-0.283 0.506-0.699 0.63-1.106 0.229-0.793 0.286-1.622 0.318-2.443 0.021-1.033 0.013-2.075-0.184-3.092-0.109-0.518-0.256-1.052-0.596-1.469-0.26-0.332-0.703-0.505-1.118-0.424z"></path>
</svg>
