<svg xmlns="http://www.w3.org/2000/svg" width="24" height="24">
    <path fill="#e20a16" d="M11.069 0h1.565c4.519.23 8.759 3.19 10.453 7.397.492 1.127.722 2.339.913 3.546v2.173c-.224 1.398-.536 2.8-1.172 4.075-1.754 3.769-5.58 6.344-9.682 6.809h-2.264c-1.273-.221-2.555-.475-3.734-1.024C3.07 21.217.236 17.058.001 12.633v-1.259C.234 7.04 2.954 2.951 6.908 1.137 8.211.501 9.645.213 11.07-.001zM7.921 2.879C4.424 4.397 2.006 8.065 2.01 11.881c-.098 3.803 2.218 7.511 5.653 9.13.456-1.312.995-2.598 1.397-3.926.232-.536.472-1.078.601-1.649.236-.502.407-1.031.594-1.553.047-.127.091-.254.134-.382 1.372-3.728 2.729-7.462 4.076-11.198-2.168-.521-4.508-.347-6.545.576zm8.433.111c-.63 1.724-1.254 3.451-1.885 5.174-.04.169-.077.338-.114.508l-.061-.043c-.054.15-.109.301-.167.45a10.64 10.64 0 0 0-.086.467l-.18.049.054.139a1.431 1.431 0 0 0-.077.438c-.227-.011-.323.343-.192.497-.466.764-.677 1.673-.97 2.518l-.142.296a8.597 8.597 0 0 0-.133.402l-.048.004-.032.302-.056.004-.149.581c-.134.198-.205.431-.292.653a39.33 39.33 0 0 1-.172.482c-.703 1.932-1.412 3.862-2.107 5.797 2.166.53 4.51.354 6.544-.574 3.497-1.528 5.922-5.194 5.916-9.016.095-3.804-2.221-7.499-5.651-9.128z"/>
    <path fill="#fff" d="M7.921 2.879c2.036-.923 4.376-1.097 6.545-.576-1.348 3.737-2.705 7.47-4.076 11.198a21.812 21.812 0 0 1-4.637-.764c.542-.083 1.092-.235 1.399-.731.078.271.157.541.238.811.61.114 1.219.228 1.834.302-.217-.895-.313-1.818-.564-2.704-.169-.604-.88-1.084-1.469-.708-.62.5-.642 1.402-1.103 2.017-.324.312-.726.524-1.079.8-.578-.108-1.211-.736-1.766-.296 2.174 1.063 4.615 1.48 7.013 1.654-.187.522-.358 1.051-.594 1.553-.06-.442-.157-.877-.247-1.313a30.002 30.002 0 0 1-2.227-.341c-.805 1.216-1.12 2.629-1.352 4.046.942.106 1.098-.904 1.3-1.58.158-.695.623-1.247 1.033-1.807.296.882.625 1.753.893 2.644-.402 1.328-.941 2.615-1.397 3.926-3.436-1.619-5.752-5.327-5.653-9.13-.004-3.816 2.414-7.484 5.911-9.002zm-.914 5.085c-.498.232-.528 1.01-.054 1.285.455.314 1.148-.054 1.136-.608.04-.544-.612-.948-1.082-.677zM16.354 2.99c3.43 1.63 5.746 5.324 5.651 9.128.006 3.822-2.419 7.488-5.916 9.016-2.034.928-4.378 1.104-6.544.574.695-1.936 1.404-3.865 2.107-5.797 1.277 1.808 3.955 2.416 5.849 1.234 1.656-.968 2.544-3.1 1.974-4.946-.384-1.024-.166-2.132-.216-3.198-.05-.454.17-1.088-.31-1.37-.224.011-.498.143-.47.407-.05.773.014 1.548-.034 2.321-.823-.559.034-1.783-.769-2.348-.678-.288-1.308.305-1.841.653-.455-.166-.91-.335-1.367-.497.631-1.723 1.255-3.45 1.885-5.174zm1.082 3.387c-.443.226-.452.926-.022 1.17.426.293 1.066-.072 1.037-.587.018-.496-.594-.853-1.015-.583z"/>
    <path fill="#fff" d="M14.293 8.629l.061.043c.15.106.302.208.456.31-.228.031-.456.065-.684.097.058-.149.113-.3.167-.45zM14.04 9.546a9.087 9.087 0 0 1 1.06-.228l.007.827c-.319.055-.636.115-.953.179-.08-.196-.161-.392-.24-.589l-.054-.139.18-.049zM15.394 9.324c.425.055.842.146 1.254.264-.115.236-.149.538-.338.725-.311-.037-.613-.119-.919-.176l.004-.812zM16.937 9.689c.367.218.719.461 1.05.732-.188.188-.378.377-.565.566a9.29 9.29 0 0 0-.804-.544l.319-.755zM13.645 10.669c-.131-.154-.035-.508.192-.497.058.2-.031.378-.192.497zM17.624 11.185c.19-.193.379-.386.571-.577.263.341.493.707.707 1.08-.247.098-.494.198-.74.3a25.52 25.52 0 0 0-.538-.803zM18.278 12.242c.24-.096.479-.193.719-.287.127.408.224.826.27 1.252l-.817.001a17.423 17.423 0 0 0-.172-.966zM12.676 13.187c.862-.073 1.717-.202 2.574-.302.544-.083.674.836.133.925-1.006.217-2.036.313-3.062.382.007-.076.024-.227.032-.302l.048-.004c.946-.084 1.904-.114 2.83-.34.181-.032.209-.251.306-.372-1.007.043-1.997.256-3.002.31l.142-.296zM18.46 13.499c.271-.005.544.002.815-.002a8.62 8.62 0 0 1-.271 1.25 40.202 40.202 0 0 0-.715-.302c.067-.313.127-.628.172-.946zM12.115 14.776l.23-.05c.182.263.348.535.529.799l-.563.552a36.583 36.583 0 0 1-.488-.648c.086-.222.157-.455.292-.653zM18.164 14.706l.745.305c-.203.38-.449.736-.73 1.063-.178-.178-.365-.346-.526-.538.155-.286.338-.556.51-.83zM12.528 16.292c.182-.194.367-.388.551-.581.264.198.536.384.818.557-.106.242-.21.485-.314.727a6.053 6.053 0 0 1-1.055-.703zM16.619 16.28a13.1 13.1 0 0 0 .802-.562l.569.57a8.34 8.34 0 0 1-1.054.695c-.106-.234-.21-.469-.317-.703zM14.164 16.366c.311.079.624.146.94.203 0 .262 0 .522-.002.784a7.287 7.287 0 0 1-1.25-.235c.103-.251.208-.5.313-.751zM15.39 16.559c.326-.047.652-.107.974-.175l.277.736a8.474 8.474 0 0 1-1.244.236c-.005-.265-.006-.532-.007-.797z"/>
    <path d="M17.436 6.377c.421-.27 1.033.088 1.015.583.029.515-.611.88-1.037.587-.431-.244-.421-.944.022-1.17zM18.479 8.036c-.028-.264.246-.396.47-.407.48.282.259.917.31 1.37.05 1.066-.168 2.174.216 3.198.57 1.847-.318 3.978-1.974 4.946-1.894 1.182-4.572.575-5.849-1.234l.172-.482c.161.217.323.433.488.648l.563-.552c-.181-.264-.347-.536-.529-.799l-.23.05.149-.581.056-.004c1.026-.068 2.057-.164 3.062-.382.541-.089.41-1.008-.133-.925-.857.101-1.712.229-2.574.302.293-.845.504-1.753.97-2.518.161-.119.25-.296.192-.497.002-.149.028-.295.077-.438.079.197.16.394.24.589.317-.064.634-.124.953-.179l-.007-.827c-.356.06-.713.126-1.06.228.025-.156.054-.312.086-.467.228-.032.456-.066.684-.097a18.239 18.239 0 0 1-.456-.31c.037-.169.074-.338.114-.508.457.162.912.331 1.367.497.533-.348 1.163-.941 1.841-.653.803.565-.054 1.789.769 2.348.048-.773-.017-1.548.034-2.321zm-3.085 1.288l-.004.812c.306.058.608.139.919.176.19-.187.223-.488.338-.725a8.522 8.522 0 0 0-1.254-.264zm1.543.365c-.107.252-.214.503-.319.755.277.168.546.348.804.544.187-.19.377-.378.565-.566a8.536 8.536 0 0 0-1.05-.732zm.687 1.496c.184.264.364.532.538.803.246-.102.493-.202.74-.3a9.501 9.501 0 0 0-.707-1.08c-.192.191-.382.384-.571.577zm.654 1.057c.066.32.124.642.172.966l.817-.001a6.606 6.606 0 0 0-.27-1.252c-.24.094-.479.191-.719.287zm.182 1.257c-.044.318-.104.632-.172.946.239.098.478.199.715.302a8.62 8.62 0 0 0 .271-1.25c-.271.005-.544-.002-.815.002zm-.296 1.207c-.172.275-.355.545-.51.83.161.192.348.36.526.538a5.93 5.93 0 0 0 .73-1.063l-.745-.305zm-5.636 1.586c.326.271.679.506 1.055.703l.314-.727a10.607 10.607 0 0 1-.818-.557c-.184.193-.368.386-.551.581zm4.091-.012c.107.234.211.469.317.703a8.412 8.412 0 0 0 1.054-.695l-.569-.57c-.259.198-.528.384-.802.562zm-2.455.086c-.106.251-.21.5-.313.751.409.119.828.19 1.25.235.002-.262.002-.522.002-.784a13.102 13.102 0 0 1-.94-.203zm1.226.193c.001.265.002.532.007.797.42-.05.836-.125 1.244-.236l-.277-.736c-.323.068-.648.128-.974.175zM7.007 7.964c.47-.271 1.122.133 1.082.677.012.554-.682.923-1.136.608-.474-.275-.444-1.054.054-1.285zM7.19 9.708c.589-.376 1.3.104 1.469.708.251.886.347 1.808.564 2.704-.614-.074-1.224-.188-1.834-.302-.08-.27-.16-.54-.238-.811-.307.496-.857.648-1.399.731 1.513.422 3.068.677 4.637.764-.043.127-.088.254-.134.382-2.398-.174-4.838-.59-7.013-1.654.556-.439 1.188.188 1.766.296.353-.276.755-.488 1.079-.8.461-.616.482-1.517 1.103-2.017z"/>
    <path d="M12.534 13.483c1.006-.054 1.996-.266 3.002-.31-.097.121-.125.34-.306.372-.925.226-1.884.256-2.83.34.042-.136.085-.27.133-.402zM7.187 13.782c.739.138 1.481.259 2.227.341.09.436.187.871.247 1.313-.13.571-.37 1.112-.601 1.649-.268-.89-.596-1.762-.893-2.644-.41.56-.875 1.112-1.033 1.807-.202.677-.358 1.686-1.3 1.58.233-1.417.547-2.831 1.352-4.046z"/>
</svg>
