<svg xmlns="http://www.w3.org/2000/svg" width="24" height="24">
    <path fill="#fff" d="M.91 0h22.178c.445.103.808.467.912.912v22.174c-.102.446-.467.81-.912.914H.912a1.24 1.24 0 0 1-.913-.91V.911C.102.467.465.104.909 0zm.656.587C1.008.647.559 1.171.575 1.73v20.539c-.021.621.535 1.176 1.155 1.155h20.539c.621.021 1.176-.534 1.155-1.155V1.73c.021-.621-.534-1.177-1.155-1.155H2.062c-.165.001-.331-.008-.496.012z"/>
    <path fill="#fff" d="M2.08 1.192c.15-.024.301-.015.451-.017 6.408.001 12.815-.001 19.223.001.57-.007 1.075.5 1.069 1.069v19.508c.006.57-.499 1.074-1.069 1.069-6.502.002-13.005.002-19.508 0-.57.006-1.076-.499-1.069-1.069V2.245c-.004-.51.398-.981.903-1.054zm10.945 2.787c-.458.612-.477 1.498-.142 2.17.297.602 1.128.788 1.688.454.223-.134.375-.354.481-.586a29.282 29.282 0 0 0-.519-.199c-.163.375-.689.547-.99.231-.394-.454-.394-1.189-.094-1.692.258-.403.898-.311 1.096.104.168-.075.336-.151.503-.229-.311-.792-1.519-.918-2.024-.254zm6.785-.153c-.329.292-.333.871.007 1.156.341.304.839.311 1.199.579.235.174.123.576-.154.632-.365.123-.759-.1-.901-.444-.173.063-.347.128-.519.194.233.808 1.344 1.076 1.971.563.397-.326.412-1.019.009-1.346-.33-.284-.783-.33-1.152-.54-.18-.092-.171-.382.011-.466.283-.135.672-.041.808.258.169-.055.338-.111.504-.171-.202-.743-1.256-.888-1.782-.415zM2.215 3.598c-.002.18-.002.361 0 .541.29.003.581 0 .871.001.001.859-.001 1.718.001 2.578h.563c.001-.859-.001-1.718.001-2.577.288-.001.576.001.864-.001a48.96 48.96 0 0 0 0-.542c-.767-.001-1.534-.002-2.301 0zm3.387 3.099c.187.002.374.002.561 0 .005-.399 0-.798.002-1.197.202-.001.403-.002.605.001.197.398.391.799.592 1.196.21 0 .419.002.629-.002-.199-.42-.408-.834-.608-1.253.583-.201.788-.975.462-1.473-.172-.27-.506-.378-.812-.381-.477-.003-.953-.001-1.431 0-.001 1.036-.002 2.072.001 3.109zm3.497-3.083v1.919c.003.353.097.739.382.973.416.324 1.031.334 1.497.112.363-.183.535-.599.544-.989.007-.672-.002-1.345.004-2.017-.188.002-.375.002-.562 0-.003.641.003 1.282-.002 1.923-.008.224-.054.494-.274.607a.917.917 0 0 1-.752 0c-.22-.113-.268-.384-.269-.608-.003-.64 0-1.28-.001-1.92a53.77 53.77 0 0 1-.568 0zm7.038 0c.003 1.035 0 2.07.002 3.104.188.002.376.002.564 0 .012-.293-.02-.59.015-.88.164-.221.349-.426.518-.644.27.509.54 1.017.812 1.525.218 0 .436.001.655-.001l-1.088-1.997c.289-.374.592-.736.882-1.109-.222.004-.444.003-.666.003-.372.479-.75.953-1.126 1.428V3.614c-.189.002-.377.002-.566 0zm-.183 5.778c-.9.106-1.738.608-2.258 1.35-.952 1.361-1.125 3.098-1.074 4.714.077 1.493.402 3.12 1.524 4.196 1.13 1.048 2.976 1.144 4.274.36.664-.416 1.135-1.081 1.433-1.796.43-1.029.56-2.155.574-3.262-.012-1.168-.147-2.362-.63-3.437-.315-.706-.817-1.35-1.501-1.73-.705-.4-1.547-.489-2.341-.395zM2.79 9.547v1.833c1.732.001 3.464-.001 5.195.001-.834 1.189-1.56 2.464-2.046 3.836-.594 1.635-.832 3.381-.844 5.115.629-.001 1.259.005 1.888-.003.135-3.184 1.048-6.477 3.134-8.958.03-.606.005-1.217.012-1.826h-7.34z"/>
    <path fill="#fff" d="M6.165 4.122c.315.01.633-.022.946.017.392.053.412.715.03.799-.322.047-.652.009-.977.021v-.837zM16.193 11.19c.688-.154 1.421.204 1.746.825.385.676.503 1.465.558 2.231.049.9.022 1.816-.199 2.695-.132.494-.329.995-.705 1.356-.563.56-1.578.564-2.142.002-.376-.36-.572-.863-.703-1.357-.207-.833-.24-1.699-.206-2.553.049-.79.152-1.605.528-2.314.228-.434.629-.8 1.123-.885z"/>
    <path d="M1.566.587c.165-.02.331-.011.496-.012h20.207c.621-.022 1.176.534 1.155 1.155v20.539c.021.621-.534 1.176-1.155 1.155H1.73c-.621.021-1.177-.534-1.155-1.155V1.73c-.016-.56.433-1.084.991-1.143zm.514.605a1.084 1.084 0 0 0-.903 1.054v19.508c-.007.57.499 1.075 1.069 1.069 6.503.002 13.006.002 19.508 0 .57.005 1.075-.5 1.069-1.069V2.246c.007-.57-.499-1.076-1.069-1.069-6.408-.003-12.815 0-19.223-.001-.15.001-.302-.008-.451.017z"/>
    <path d="M13.025 3.979c.504-.665 1.713-.538 2.024.254-.167.077-.334.154-.503.229-.199-.415-.838-.507-1.096-.104-.3.503-.3 1.237.094 1.692.301.316.827.144.99-.231.173.066.347.131.519.199-.106.232-.259.452-.481.586-.56.333-1.391.148-1.688-.454-.335-.672-.316-1.559.142-2.17zM19.81 3.826c.526-.473 1.58-.328 1.782.415-.167.06-.336.116-.504.171-.136-.299-.525-.393-.808-.258-.182.084-.19.374-.011.466.369.21.822.256 1.152.54.403.328.388 1.02-.009 1.346-.627.514-1.738.246-1.971-.563.173-.067.346-.131.519-.194.143.344.537.568.901.444.277-.057.389-.458.154-.632-.36-.268-.858-.276-1.199-.579-.34-.285-.336-.865-.007-1.156zM2.215 3.598c.767-.002 1.534-.001 2.301 0v.542c-.288.002-.577 0-.864.001-.002.859 0 1.718-.001 2.577-.188.002-.375.001-.563 0-.002-.859 0-1.718-.001-2.578-.291-.001-.581.002-.871-.001a48.78 48.78 0 0 1 0-.541zM5.602 6.697a805.491 805.491 0 0 1-.001-3.109c.477 0 .954-.003 1.431 0 .306.003.64.112.812.381.327.498.121 1.272-.462 1.473.2.419.409.834.608 1.253-.21.004-.419.002-.629.002-.201-.397-.394-.798-.592-1.196-.202-.003-.403-.002-.605-.001-.002.399.003.798-.002 1.197-.187.002-.374.002-.561 0zm.563-2.575v.837c.325-.011.654.026.977-.021.381-.084.362-.745-.03-.799-.313-.039-.631-.007-.946-.017zM9.099 3.614h.568c.001.64-.002 1.281.001 1.92 0 .225.049.495.269.608a.917.917 0 0 0 .752 0c.22-.113.266-.383.274-.607.005-.641 0-1.282.002-1.923.187.002.374.002.562 0-.007.672.002 1.345-.004 2.017-.009.39-.181.805-.544.989-.465.222-1.08.212-1.497-.112-.285-.234-.379-.619-.382-.973V3.614zM16.137 3.614h.566v1.429c.376-.475.754-.949 1.126-1.428.222 0 .443.001.666-.003-.29.373-.593.735-.882 1.109.364.665.726 1.331 1.088 1.997-.218.002-.436.001-.655.001a445.12 445.12 0 0 1-.812-1.525c-.169.217-.354.423-.518.644-.035.29-.002.587-.015.88-.188.002-.376.002-.564 0-.002-1.035.001-2.07-.002-3.104zM15.954 9.392c.794-.095 1.636-.005 2.341.395.683.379 1.185 1.024 1.501 1.73.484 1.075.619 2.269.63 3.437-.015 1.107-.144 2.233-.574 3.262-.297.715-.769 1.38-1.433 1.796-1.298.784-3.144.688-4.274-.36-1.123-1.076-1.447-2.702-1.524-4.196-.051-1.617.122-3.353 1.074-4.714a3.262 3.262 0 0 1 2.258-1.35zm.239 1.798c-.495.084-.895.451-1.123.885-.376.709-.479 1.523-.528 2.314-.035.854-.001 1.72.206 2.553.131.494.327.997.703 1.357.564.562 1.579.557 2.142-.002.376-.36.574-.862.705-1.356.221-.878.248-1.794.199-2.695-.055-.765-.173-1.554-.558-2.231-.325-.62-1.058-.979-1.746-.825zM2.79 9.547h7.34c-.007.608.018 1.22-.012 1.826-2.086 2.481-2.999 5.774-3.134 8.958-.629.008-1.259.001-1.888.003.012-1.734.249-3.48.844-5.115.486-1.373 1.211-2.648 2.046-3.836-1.732-.002-3.464 0-5.195-.001V9.549z"/>
</svg>
