<svg xmlns="http://www.w3.org/2000/svg" width="24" height="24">
    <path d="M10.963 0h2.069c.186.035.374.06.561.082 3.039.385 5.888 2.011 7.794 4.406a11.964 11.964 0 0 1 2.519 5.825c.028.217.052.435.094.651v2.067c-.036.186-.06.374-.082.562-.388 3.051-2.025 5.909-4.433 7.815a11.939 11.939 0 0 1-5.932 2.514c-.173.02-.345.045-.517.077h-2.067c-1.732-.189-3.439-.687-4.95-1.567-2.696-1.543-4.757-4.162-5.592-7.157-.218-.73-.319-1.486-.427-2.238v-2.069c.228-2.227 1.023-4.405 2.387-6.19C4.292 2.228 7.245.482 10.407.082c.186-.022.372-.047.556-.082zM9.252.539a11.756 11.756 0 0 0-4.59 2.244C2.284 4.664.677 7.494.31 10.507c-.419 3.179.534 6.508 2.587 8.973 1.433-1.704 2.862-3.411 4.294-5.115.091-.111.196-.214.262-.343 1.138-1.292 2.234-2.637 3.336-3.954.704-.834 1.425-1.658 2.096-2.517.506-.567 1.017-1.142 1.461-1.758.099-.063.172-.158.247-.247 1.055-1.274 2.139-2.525 3.179-3.81C15.229.26 12.106-.144 9.252.538zm9.659 6.59c-.45.542-.905 1.08-1.358 1.62-1.061 1.285-2.165 2.542-3.2 3.842-.609.662-1.163 1.374-1.749 2.057-2.129 2.538-4.263 5.073-6.387 7.615 2.554 1.465 5.671 1.884 8.53 1.197a11.756 11.756 0 0 0 4.565-2.223c2.392-1.881 4.007-4.721 4.376-7.744.42-3.179-.533-6.508-2.586-8.973-.733.868-1.459 1.741-2.192 2.608z"/>
    <path fill="#fff" d="M9.252.539c2.853-.682 5.977-.278 8.52 1.198-1.04 1.285-2.124 2.535-3.179 3.81-.075.088-.148.184-.247.247a3.253 3.253 0 0 0-1.461 1.758c-.671.859-1.393 1.683-2.096 2.517.214-.909.609-1.77.862-2.67.03-.662.007-1.327.011-1.991-2.25-.002-4.499.001-6.749-.002-.019 1.327-.007 2.654-.006 3.981.582.004 1.164.004 1.747 0 .007-.653-.008-1.306.007-1.959 1.013.004 2.027 0 3.04.002-.742 2.2-1.515 4.391-2.248 6.593-.066.129-.171.232-.262.343-1.432 1.704-2.861 3.412-4.294 5.115C.844 17.015-.109 13.687.31 10.508c.367-3.013 1.973-5.843 4.352-7.724A11.728 11.728 0 0 1 9.252.54zM18.911 7.129c.733-.867 1.459-1.74 2.192-2.608 2.053 2.465 3.006 5.794 2.586 8.973-.369 3.023-1.985 5.863-4.376 7.744a11.742 11.742 0 0 1-4.565 2.223c-2.858.688-5.976.269-8.53-1.197 2.124-2.543 4.258-5.077 6.387-7.615-.029 1.094.045 2.279.73 3.186.61.806 1.575 1.376 2.602 1.374 1.105.033 2.153-.595 2.772-1.488.485-.712.647-1.591.65-2.439V9.234c.001-.723-.133-1.45-.447-2.105z"/>
    <path fill="#fff" d="M17.553 8.749c.034.222.056.447.055.672v5.719c-.001.539-.101 1.115-.462 1.536-.5.613-1.497.69-2.112.212-.485-.377-.661-1.015-.673-1.605-.011-.897.003-1.795-.008-2.692 1.035-1.3 2.139-2.558 3.2-3.842z"/>
    <path fill="gray" d="M4.912 5.405c2.25.003 4.499 0 6.749.002-.004.664.02 1.329-.011 1.991-.253.899-.648 1.761-.862 2.67-1.102 1.318-2.198 2.662-3.336 3.954.734-2.203 1.507-4.393 2.248-6.593-1.013-.002-2.027.002-3.04-.002-.015.652 0 1.306-.007 1.959-.582.004-1.164.004-1.747 0 0-1.327-.013-2.654.006-3.981zM12.885 7.551a3.253 3.253 0 0 1 1.461-1.758c-.443.616-.955 1.192-1.461 1.758zM17.553 8.749c.453-.54.908-1.078 1.358-1.62.314.655.448 1.382.447 2.105v6.048c-.003.848-.165 1.727-.65 2.439-.619.893-1.667 1.522-2.772 1.488-1.027.002-1.992-.568-2.602-1.374-.686-.907-.759-2.092-.73-3.186.586-.683 1.14-1.395 1.749-2.057.011.897-.003 1.795.008 2.692.012.59.188 1.228.673 1.605.615.478 1.612.401 2.112-.212.361-.421.461-.997.462-1.536V9.422a4.32 4.32 0 0 0-.055-.672z"/>
</svg>
