<!-- Generated by IcoMoon.io -->
<svg version="1.1" xmlns="http://www.w3.org/2000/svg" width="16" height="24" viewBox="0 0 16 24">
<title>regulatory--no-parking--g9</title>
<path fill="#fff" d="M1.659 0h0.299c-0.276 0.039-0.536 0.139-0.804 0.209 0.159-0.089 0.331-0.152 0.504-0.209z"></path>
<path fill="#fff" d="M1.731 0.206c0.298-0.054 0.601-0.041 0.902-0.042 3.775 0.001 7.55-0.002 11.325 0.001 1.163-0.048 2.107 1.089 1.954 2.222-0.002 6.306 0 12.612-0.001 18.918-0.003 0.408 0.029 0.83-0.114 1.221-0.262 0.757-1.033 1.294-1.835 1.276-3.879 0.006-7.757-0.001-11.635 0.003-0.509 0.001-1.037-0.129-1.442-0.449-0.449-0.381-0.696-0.973-0.681-1.559-0.002-6.409 0.001-12.818-0.001-19.227 0.001-0.367-0.018-0.745 0.105-1.097 0.208-0.634 0.771-1.131 1.423-1.268M1.731 0.634c-0.636 0.165-1.122 0.784-1.107 1.446 0 6.593-0.001 13.187 0.001 19.779-0.037 0.793 0.66 1.523 1.453 1.522 3.961 0.006 7.922 0.002 11.884 0.002 0.795 0.036 1.536-0.663 1.527-1.462 0.005-6.572-0.001-13.145 0.003-19.717 0.080-0.829-0.634-1.632-1.472-1.618-3.857-0.004-7.713 0-11.57-0.002-0.239 0.001-0.484-0.011-0.718 0.049z"></path>
<path fill="#fff" d="M1.852 1.12c0.216-0.050 0.439-0.030 0.658-0.034 3.816 0.001 7.632 0 11.448 0.001 0.542-0.030 1.044 0.446 1.029 0.991 0.001 6.594 0.001 13.189 0.001 19.783 0.029 0.53-0.432 1.021-0.964 1.019-3.962 0.006-7.924 0.002-11.886 0.002-0.522 0.026-1.010-0.436-1.009-0.959-0.003-6.615-0.001-13.229-0.001-19.844-0.017-0.437 0.31-0.841 0.723-0.959M7.371 2.111c-1.696 0.211-3.245 1.309-4.016 2.832-0.571 1.098-0.733 2.4-0.45 3.604 0.381 1.694 1.657 3.151 3.285 3.754 1.36 0.525 2.939 0.442 4.238-0.22 1.449-0.721 2.53-2.139 2.825-3.732 0.274-1.413-0.059-2.934-0.915-4.093-1.102-1.549-3.081-2.416-4.968-2.145M4.423 13.967c0.002 1.101-0.001 2.202 0.001 3.303 0.534-0.042 1.193 0.164 1.61-0.277 0.396-0.413 0.276-1.107-0.15-1.451 0.505-0.396 0.443-1.357-0.214-1.548-0.411-0.059-0.831-0.013-1.247-0.026M6.899 13.967c0.001 1.102-0.002 2.203 0.001 3.305 0.154 0.001 0.307 0.002 0.46 0.001 0.001-1.101 0.004-2.203-0.001-3.306-0.154-0.001-0.307-0.001-0.46-0.001M8.158 13.967c0.002 1.101-0.001 2.202 0.001 3.303 0.157 0.002 0.315 0.003 0.473 0.002 0.002-0.555-0.087-1.147 0.302-1.605 0.2 0.531 0.384 1.068 0.578 1.601 0.167 0.005 0.334 0.006 0.501 0.004-0.258-0.714-0.511-1.43-0.766-2.146 0.225-0.386 0.456-0.77 0.681-1.157-0.181-0.003-0.362-0.003-0.544 0.001-0.251 0.436-0.493 0.876-0.749 1.309-0.005-0.437 0.001-0.875-0.003-1.312-0.158-0.001-0.316 0-0.474 0.001M10.634 13.967c0.001 1.101-0.002 2.203 0.001 3.304 0.56 0.003 1.119 0.002 1.678 0.001 0.001-0.155 0.001-0.31 0-0.464-0.402-0.004-0.803-0.001-1.205-0.002-0.002-0.359 0.002-0.718-0.002-1.077 0.228-0.012 0.456-0.013 0.684-0.010 0-0.152-0.001-0.303-0.001-0.454-0.223-0.003-0.448-0.002-0.671 0.002-0.016-0.28-0.015-0.561-0.001-0.841 0.356 0.005 0.711 0.003 1.067 0.003 0.002-0.154 0.004-0.309 0.003-0.462-0.518-0.002-1.035-0.001-1.553-0.001M4.092 18.601c-0.001 1.101-0.004 2.202 0.002 3.302 0.56 0.002 1.119 0 1.679 0.001 0.001-0.146 0.001-0.293 0-0.438-0.402-0.010-0.804 0.009-1.206-0.011 0.004-0.95 0.001-1.899 0.002-2.848-0.159-0.005-0.318-0.006-0.477-0.006M6.789 18.728c-0.26 1.059-0.529 2.116-0.787 3.176 0.157 0 0.315-0.001 0.473-0.002 0.074-0.299 0.148-0.597 0.216-0.896 0.236-0.008 0.471-0.008 0.707-0.003 0.077 0.299 0.162 0.596 0.233 0.896 0.157 0.004 0.315 0.005 0.473 0.006-0.264-1.103-0.543-2.202-0.82-3.302-0.159 0.031-0.459-0.103-0.495 0.126M8.587 18.601c0 1.1-0.001 2.2 0.001 3.301 0.157 0.001 0.315 0.001 0.472 0.001 0.007-0.73-0.006-1.461 0.007-2.192 0.347 0.724 0.675 1.457 1.011 2.185 0.121 0.002 0.243 0.005 0.365 0.008 0-1.099 0-2.199 0.001-3.298-0.158-0.006-0.316-0.007-0.474-0.006-0.004 0.655 0.002 1.31-0.002 1.965-0.315-0.649-0.601-1.311-0.904-1.965-0.159-0.001-0.318-0.001-0.476 0M11.179 18.601c0.001 1.101-0.009 2.202 0.004 3.304 0.558-0.004 1.115-0.001 1.673-0.001 0.001-0.155 0.001-0.309 0.001-0.464-0.402-0.002-0.803 0.006-1.204-0.004-0.001-0.362-0.001-0.724 0.001-1.086 0.227 0 0.455-0.001 0.683-0.001 0.001-0.151 0.001-0.301 0.001-0.45-0.228 0-0.457-0.001-0.684-0.002 0-0.277-0.001-0.555 0.001-0.832 0.359-0.002 0.718 0.003 1.078-0.003 0.001-0.153 0.001-0.307 0-0.459-0.517-0.002-1.035-0.001-1.551-0.001z"></path>
<path fill="#fff" d="M16.062 1.809l0.040-0.083v20.543l-0.039-0.081c0.019-6.793 0.021-13.586-0.002-20.379z"></path>
<path fill="#fff" d="M5.196 3.924c1.443-1.249 3.698-1.37 5.284-0.319 0.993 0.632 1.705 1.679 1.94 2.832 0.29 1.314-0.064 2.747-0.932 3.776-0.76-0.75-1.513-1.507-2.267-2.264 1.098-0.234 1.845-1.473 1.482-2.548-0.243-0.835-1.085-1.429-1.947-1.425-1.084-0.009-2.168-0.002-3.252-0.002-0.001 0.086-0.001 0.172-0.001 0.259-0.104-0.102-0.206-0.204-0.307-0.309z"></path>
<path fill="#fff" d="M4.611 4.5c0.296 0.305 0.634 0.583 0.891 0.919 0.002 1.72-0.004 3.44 0.002 5.161 0.401 0.002 0.802 0.001 1.203 0-0.001-0.864-0.001-1.728-0.001-2.593 0.462-0.002 0.924 0 1.387-0.001 0.946 0.926 1.875 1.869 2.812 2.805-0.879 0.74-2.052 1.114-3.198 1.017-1.522-0.103-2.952-1.050-3.634-2.416-0.809-1.548-0.594-3.557 0.536-4.891z"></path>
<path fill="#fff" d="M6.703 5.155c0.603-0.002 1.206 0 1.809-0.002 0.282-0.003 0.586 0.032 0.812 0.216 0.381 0.293 0.383 0.964-0.023 1.237-0.35 0.266-0.815 0.185-1.224 0.197-0.452-0.469-0.958-0.902-1.368-1.403-0.002-0.082-0.004-0.163-0.005-0.245z"></path>
<path fill="#fff" d="M6.694 6.596c0.084 0.064 0.159 0.139 0.225 0.222-0.067-0.013-0.134-0.025-0.201-0.037-0.006-0.047-0.018-0.139-0.024-0.185z"></path>
<path fill="#fff" d="M4.899 14.431c0.221 0.004 0.446-0.023 0.664 0.024 0.25 0.108 0.219 0.456 0.132 0.666-0.153 0.292-0.531 0.168-0.796 0.191-0.002-0.294-0.002-0.587 0-0.881z"></path>
<path fill="#fff" d="M4.899 15.778c0.201 0.002 0.407-0.023 0.604 0.023 0.342 0.14 0.429 0.692 0.137 0.923-0.222 0.133-0.495 0.068-0.74 0.080-0.001-0.342-0.001-0.684 0-1.026z"></path>
<path fill="#fff" d="M6.814 20.533c0.069-0.307 0.137-0.614 0.227-0.915 0.093 0.302 0.161 0.612 0.239 0.918-0.156 0.001-0.311 0.001-0.467-0.002z"></path>
<path fill="#fff" d="M0.057 22.289c0.083 0.048 0.097 0.115 0.042 0.201-0.048-0.060-0.062-0.127-0.042-0.201z"></path>
<path fill="#fff" d="M1.999 23.968c4.098-0.004 8.197 0.017 12.296-0.010l0.077 0.043h-12.455l0.083-0.032z"></path>
<path fill="#2b2e34" d="M1.959 0h12.441c0.838 0.203 1.619 0.911 1.662 1.809 0.023 6.793 0.021 13.586 0.002 20.379-0.079 0.901-0.865 1.698-1.769 1.769-4.098 0.027-8.197 0.007-12.296 0.010-0.869-0.014-1.678-0.636-1.9-1.478 0.056-0.086 0.042-0.153-0.042-0.201 0.001-0.046 0.004-0.138 0.006-0.184-0.010-6.726 0.010-13.452-0.010-20.178-0.025-0.724 0.459-1.412 1.101-1.718 0.268-0.070 0.528-0.171 0.804-0.209M1.731 0.206c-0.652 0.137-1.215 0.634-1.423 1.268-0.124 0.351-0.104 0.73-0.105 1.097 0.001 6.409-0.001 12.818 0.001 19.227-0.015 0.587 0.231 1.178 0.681 1.559 0.405 0.32 0.933 0.449 1.442 0.449 3.879-0.004 7.757 0.002 11.635-0.003 0.801 0.018 1.573-0.519 1.835-1.276 0.143-0.391 0.111-0.812 0.114-1.221 0.001-6.306-0.001-12.612 0.001-18.918 0.154-1.133-0.79-2.27-1.954-2.222-3.775-0.003-7.55 0-11.325-0.001-0.301 0.001-0.604-0.012-0.902 0.042z"></path>
<path fill="#2b2e34" d="M5.504 3.973c1.084 0 2.168-0.007 3.252 0.002 0.862-0.004 1.704 0.59 1.947 1.425 0.362 1.075-0.384 2.314-1.482 2.548-0.384-0.379-0.766-0.761-1.144-1.146 0.41-0.012 0.874 0.069 1.224-0.197 0.406-0.273 0.404-0.943 0.023-1.237-0.226-0.184-0.53-0.219-0.812-0.216-0.602 0.002-1.206 0-1.809 0.002 0.001 0.081 0.002 0.163 0.005 0.245-0.437-0.35-0.801-0.782-1.205-1.168 0-0.087 0.001-0.173 0.001-0.259z"></path>
<path fill="#2b2e34" d="M5.503 5.419c0.424 0.362 0.812 0.768 1.191 1.177 0.006 0.046 0.018 0.138 0.024 0.185 0.067 0.012 0.134 0.024 0.201 0.037 0.408 0.37 0.789 0.773 1.176 1.168-0.462 0.001-0.924-0.001-1.387 0.001 0 0.864-0.001 1.728 0.001 2.593-0.401 0.001-0.802 0.002-1.203 0-0.006-1.72-0.001-3.441-0.002-5.161z"></path>
<path fill="#cf3113" d="M1.731 0.634c0.234-0.060 0.479-0.048 0.718-0.049 3.857 0.002 7.713-0.002 11.57 0.002 0.838-0.014 1.553 0.789 1.472 1.618-0.004 6.572 0.002 13.144-0.003 19.717 0.009 0.799-0.732 1.498-1.527 1.462-3.961-0.001-7.922 0.004-11.884-0.002-0.793 0.001-1.49-0.729-1.453-1.522-0.001-6.593-0.001-13.186-0.001-19.779-0.015-0.662 0.471-1.281 1.107-1.446M1.852 1.12c-0.413 0.118-0.74 0.522-0.723 0.959 0.001 6.615-0.002 13.229 0.001 19.844-0.001 0.523 0.487 0.985 1.009 0.959 3.962-0.001 7.924 0.004 11.886-0.002 0.532 0.002 0.993-0.489 0.964-1.019 0-6.594 0.001-13.189-0.001-19.783 0.015-0.544-0.487-1.021-1.029-0.991-3.816-0.001-7.632 0.001-11.448-0.001-0.219 0.004-0.443-0.017-0.658 0.034z"></path>
<path fill="#cf3113" d="M7.371 2.111c1.886-0.271 3.866 0.596 4.968 2.145 0.855 1.159 1.189 2.68 0.915 4.093-0.295 1.593-1.376 3.010-2.825 3.732-1.299 0.662-2.878 0.745-4.238 0.22-1.628-0.603-2.904-2.060-3.285-3.754-0.283-1.204-0.121-2.507 0.45-3.604 0.771-1.523 2.32-2.621 4.016-2.832M5.196 3.924c0.101 0.104 0.203 0.207 0.307 0.309 0.404 0.386 0.768 0.818 1.205 1.168 0.411 0.5 0.916 0.934 1.368 1.403 0.378 0.385 0.76 0.767 1.144 1.146 0.754 0.757 1.507 1.514 2.267 2.264 0.868-1.029 1.221-2.462 0.932-3.776-0.234-1.152-0.947-2.2-1.94-2.832-1.586-1.051-3.841-0.93-5.284 0.319M4.611 4.5c-1.13 1.335-1.345 3.343-0.536 4.891 0.681 1.366 2.112 2.312 3.634 2.416 1.146 0.097 2.319-0.277 3.198-1.017-0.937-0.936-1.866-1.879-2.812-2.805-0.387-0.394-0.767-0.797-1.176-1.168-0.067-0.083-0.141-0.158-0.225-0.222-0.378-0.409-0.767-0.816-1.191-1.177-0.257-0.336-0.595-0.614-0.891-0.919z"></path>
<path fill="#cf3113" d="M4.423 13.967c0.415 0.013 0.835-0.032 1.247 0.026 0.658 0.191 0.719 1.153 0.214 1.548 0.426 0.344 0.546 1.038 0.15 1.451-0.416 0.441-1.075 0.235-1.61 0.277-0.002-1.101 0.001-2.202-0.001-3.303M4.899 14.431c-0.002 0.294-0.002 0.587 0 0.881 0.264-0.023 0.643 0.101 0.796-0.191 0.088-0.21 0.119-0.558-0.132-0.666-0.218-0.047-0.443-0.020-0.664-0.024M4.899 15.778c-0.001 0.342-0.001 0.684 0 1.026 0.245-0.012 0.519 0.054 0.74-0.080 0.292-0.231 0.206-0.783-0.137-0.923-0.197-0.047-0.403-0.021-0.604-0.023z"></path>
<path fill="#cf3113" d="M6.899 13.967c0.154 0 0.307 0 0.46 0.001 0.005 1.102 0.002 2.204 0.001 3.306-0.154 0.001-0.307 0-0.46-0.001-0.004-1.101-0.001-2.203-0.001-3.305z"></path>
<path fill="#cf3113" d="M8.158 13.967c0.158-0.001 0.316-0.001 0.474-0.001 0.004 0.437-0.002 0.875 0.003 1.312 0.256-0.433 0.498-0.873 0.749-1.309 0.181-0.004 0.362-0.004 0.544-0.001-0.225 0.388-0.456 0.771-0.681 1.157 0.255 0.716 0.508 1.431 0.766 2.146-0.167 0.002-0.334 0.001-0.501-0.004-0.193-0.533-0.378-1.070-0.578-1.601-0.389 0.458-0.3 1.050-0.302 1.605-0.157 0.001-0.315 0-0.473-0.002-0.002-1.101 0.001-2.202-0.001-3.303z"></path>
<path fill="#cf3113" d="M10.634 13.967c0.518-0.001 1.035-0.001 1.553 0.001 0.001 0.154-0.001 0.308-0.003 0.462-0.356 0-0.711 0.002-1.067-0.003-0.015 0.28-0.015 0.56 0.001 0.841 0.223-0.004 0.448-0.005 0.671-0.002 0.001 0.151 0.001 0.302 0.001 0.454-0.228-0.003-0.456-0.002-0.684 0.010 0.004 0.359 0.001 0.718 0.002 1.077 0.402 0.001 0.803-0.002 1.205 0.002 0.001 0.154 0.001 0.309 0 0.464-0.56 0.001-1.119 0.002-1.678-0.001-0.004-1.101-0.001-2.203-0.001-3.304z"></path>
<path fill="#cf3113" d="M4.092 18.601c0.159-0.001 0.318 0.001 0.477 0.006-0.001 0.95 0.002 1.899-0.002 2.848 0.402 0.020 0.804 0.001 1.206 0.011 0.001 0.146 0.001 0.292 0 0.438-0.56-0.001-1.12 0.001-1.679-0.001-0.006-1.1-0.003-2.201-0.002-3.302z"></path>
<path fill="#cf3113" d="M6.789 18.728c0.037-0.229 0.336-0.094 0.495-0.126 0.277 1.1 0.556 2.199 0.82 3.302-0.158-0.001-0.316-0.001-0.473-0.006-0.072-0.301-0.157-0.597-0.233-0.896-0.236-0.005-0.471-0.005-0.707 0.003-0.069 0.299-0.142 0.598-0.216 0.896-0.157 0.001-0.315 0.002-0.473 0.002 0.258-1.060 0.527-2.117 0.787-3.176M6.814 20.533c0.156 0.003 0.311 0.004 0.467 0.002-0.078-0.306-0.146-0.615-0.239-0.918-0.091 0.301-0.158 0.609-0.227 0.915z"></path>
<path fill="#cf3113" d="M8.587 18.601c0.159-0.001 0.317-0.001 0.476 0 0.303 0.654 0.59 1.316 0.904 1.965 0.004-0.655-0.002-1.31 0.002-1.965 0.158-0.001 0.316 0.001 0.474 0.006-0.001 1.1-0.001 2.199-0.001 3.298-0.122-0.003-0.244-0.006-0.365-0.008-0.337-0.729-0.664-1.461-1.011-2.185-0.012 0.73 0.001 1.461-0.007 2.192-0.157 0-0.315-0.001-0.472-0.001-0.001-1.101-0.001-2.201-0.001-3.301z"></path>
<path fill="#cf3113" d="M11.179 18.601c0.517-0.001 1.034-0.001 1.551 0.001 0.001 0.152 0.001 0.306 0 0.459-0.359 0.006-0.719 0.001-1.078 0.003-0.002 0.277-0.001 0.555-0.001 0.832 0.228 0.002 0.456 0.002 0.684 0.002 0.001 0.149 0.001 0.299-0.001 0.45-0.228 0.001-0.456 0.001-0.683 0.001-0.002 0.362-0.002 0.724-0.001 1.086 0.401 0.010 0.803 0.002 1.204 0.004 0.001 0.155 0.001 0.309-0.001 0.464-0.558 0-1.115-0.002-1.673 0.001-0.013-1.101-0.004-2.202-0.004-3.304z"></path>
<path fill="#bebfc0" d="M0 1.858l0.053 0.070c0.020 6.726 0 13.452 0.010 20.178l-0.063-0.004v-20.244z"></path>
</svg>
