<?xml version="1.0" encoding="utf-8"?>
<!-- Generated by IcoMoon.io -->
<!DOCTYPE svg PUBLIC "-//W3C//DTD SVG 1.1//EN" "http://www.w3.org/Graphics/SVG/1.1/DTD/svg11.dtd">
<svg version="1.1" xmlns="http://www.w3.org/2000/svg" xmlns:xlink="http://www.w3.org/1999/xlink" width="24" height="24" viewBox="0 0 24 24">
<path fill="#d40000" d="M5.953 1.634c2.578-1.526 5.748-2.003 8.666-1.343 2.602 0.559 4.974 2.052 6.66 4.103 1.624 1.96 2.557 4.446 2.72 6.98v1.14c-0.134 2.629-1.121 5.214-2.834 7.22-2.098 2.516-5.264 4.066-8.527 4.265h-1.264c-3.101-0.186-6.119-1.585-8.212-3.889-1.886-2.029-2.992-4.727-3.163-7.486v-1.235c0.094-1.181 0.302-2.358 0.714-3.472 0.94-2.623 2.832-4.883 5.239-6.284M6.416 4.126c-1.751 1.231-3.067 3.070-3.672 5.123-0.692 2.308-0.472 4.868 0.598 7.027 2.687-1.625 5.375-3.25 8.068-4.865 0.001-3.017 0-6.035 0.001-9.052-1.782 0.125-3.544 0.715-4.994 1.766M12.589 2.359c0 3.017 0 6.035 0 9.052 2.694 1.614 5.38 3.24 8.068 4.864 0.83-1.688 1.16-3.617 0.919-5.484-0.248-2.057-1.196-4.014-2.636-5.501-1.651-1.729-3.967-2.779-6.35-2.93M3.928 17.302c1.531 2.324 4.096 3.944 6.864 4.274 2.284 0.304 4.649-0.275 6.565-1.543l0.011-0.058c0.752-0.484 1.421-1.091 1.994-1.775 0.229-0.276 0.47-0.559 0.581-0.908-0.3-0.224-0.612-0.432-0.922-0.643-2.354-1.379-4.674-2.821-7.021-4.214-2.695 1.615-5.383 3.242-8.072 4.867z"></path>
<path fill="#fff" d="M6.416 4.126c1.451-1.051 3.212-1.642 4.994-1.766-0.001 3.017 0 6.035-0.001 9.052-2.693 1.615-5.381 3.24-8.068 4.865-1.069-2.159-1.29-4.72-0.598-7.027 0.605-2.053 1.921-3.892 3.672-5.123M5.245 7.612c-0.193 0.482-0.298 0.996-0.449 1.493-0.4-0.017-0.835 0.019-1.141 0.307-0.584 0.458-0.655 1.412-0.134 1.945 0.487 0.576 1.474 0.588 1.974 0.022 0.545-0.534 0.482-1.541-0.149-1.981-0.145-0.138-0.406-0.216-0.344-0.481 0.554 0.412 1.066 0.875 1.594 1.316 0.026 0.216 0.001 0.503 0.251 0.598 0.288 0.146 0.488-0.139 0.672-0.311 0.077 0.342 0.192 0.698 0.472 0.931 0.54 0.522 1.514 0.44 1.962-0.164 0.494-0.583 0.332-1.561-0.313-1.963-0.404-0.283-0.925-0.252-1.373-0.103-0.163-0.269-0.328-0.536-0.49-0.805 0.041-0.122 0.080-0.245 0.12-0.367 0.119 0.001 0.358 0.001 0.476 0.001 0-0.104 0-0.312 0-0.415-0.5 0.004-1.002-0.023-1.501 0.030 0.211 0.272 0.574 0.282 0.869 0.398-0.049 0.044-0.145 0.134-0.194 0.179-0.766 0.040-1.535 0.005-2.302 0.014 0.060-0.191 0.116-0.384 0.196-0.568 0.149-0.038 0.299-0.067 0.451-0.088-0.011-0.050-0.032-0.151-0.044-0.2-0.2 0.046-0.491-0.007-0.601 0.212z"></path>
<path fill="#fff" d="M12.589 2.359c2.383 0.151 4.699 1.201 6.35 2.93 1.44 1.487 2.388 3.444 2.636 5.501 0.241 1.867-0.089 3.796-0.919 5.484-2.688-1.624-5.374-3.25-8.068-4.864 0-3.017 0-6.035 0-9.052M15.244 6.672c0 0.541 0 1.082 0.001 1.624-0.624 0-1.248 0-1.872 0 0.001 0.529 0 1.058 0.001 1.588 0.132 0.112 0.264 0.222 0.397 0.334-0.197 0.229-0.419 0.491-0.362 0.818 0.046 0.557 0.751 0.914 1.216 0.589 0.328-0.173 0.379-0.562 0.439-0.888 0.685-0.001 1.369 0.001 2.054-0.002 0.376 0.463 0.835 0.983 1.481 0.997 0.667 0.020 1.124-0.559 1.475-1.051 0.146 0 0.293 0 0.44-0.001 0-0.155-0.001-0.31-0.001-0.463-0.143 0-0.287 0.001-0.43 0.002-0.041-0.47-0.24-0.911-0.64-1.178-0.048-0.696-0.005-1.398-0.019-2.095-0.761 0-1.522 0-2.281 0-0.158 0.45-0.318 0.9-0.474 1.351-0.298 0-0.596 0-0.894 0 0-0.541 0-1.082 0-1.624-0.178 0-0.354 0-0.532 0z"></path>
<path fill="#fff" d="M17.434 7.409c0.163 0 0.326-0.001 0.491-0.001 0 0.296 0 0.592 0 0.888-0.258 0-0.516 0-0.773 0 0.094-0.295 0.188-0.592 0.282-0.887z"></path>
<path fill="#fff" d="M18.119 7.408c0.257 0 0.515 0 0.772 0 0 0.296 0 0.593 0 0.888-0.257 0-0.515 0-0.772 0 0-0.295 0-0.592 0-0.888z"></path>
<path fill="#fff" d="M5.113 8.48c0.81-0.036 1.621-0.006 2.431-0.019-0.168 0.52-0.334 1.040-0.499 1.561-0.070 0.019-0.209 0.058-0.278 0.077-0.473-0.401-0.95-0.797-1.428-1.193-0.145-0.094-0.202-0.262-0.226-0.426z"></path>
<path fill="#fff" d="M7.243 10.092c0.149-0.473 0.299-0.943 0.451-1.414 0.131 0.216 0.262 0.432 0.394 0.648-0.299 0.29-0.5 0.656-0.588 1.063-0.086-0.098-0.172-0.198-0.257-0.298z"></path>
<path fill="#fff" d="M3.731 9.619c0.257-0.277 0.65-0.306 1.004-0.325-0.095 0.401-0.22 0.794-0.409 1.16-0.062 0.197 0.301 0.296 0.352 0.103 0.023-0.412 0.133-0.808 0.268-1.194 0.512 0.253 0.859 0.85 0.667 1.417-0.19 0.719-1.148 1.061-1.744 0.608-0.589-0.376-0.66-1.306-0.138-1.77z"></path>
<path fill="#fff" d="M8.378 9.389c0.523-0.169 1.174-0.064 1.474 0.439 0.451 0.635 0.030 1.618-0.733 1.742-0.664 0.156-1.29-0.376-1.392-1.018 0.415 0.004 0.847-0.048 1.241 0.119 0.049-0.076 0.096-0.152 0.139-0.232-0.288-0.318-0.528-0.673-0.728-1.051z"></path>
<path fill="#fff" d="M7.723 10.342c0.086-0.313 0.248-0.595 0.46-0.84 0.181 0.276 0.353 0.558 0.522 0.841-0.328 0.001-0.654 0.002-0.982-0.001z"></path>
<path fill="#fff" d="M3.928 17.302c2.689-1.625 5.377-3.252 8.072-4.867 2.347 1.393 4.667 2.836 7.021 4.214-0.468-0.242-1.002-0.185-1.511-0.186 0.022 0.618 0.042 1.236 0.064 1.854 0.185 0.029 0.371 0.056 0.558 0.085-0.040 0.064-0.116 0.188-0.155 0.251-1.102-0.104-2.206-0.173-3.308-0.257-0.146-0.461-0.294-0.923-0.442-1.384-0.253 0.042-0.506 0.085-0.758 0.128-0.169-0.139-0.338-0.277-0.506-0.416-0.924 0.010-1.849 0.095-2.772 0.061-0.493-0.217-0.881-0.622-1.376-0.836-0.412-0.108-0.864-0.112-1.206-0.401 0.056 0.083 0.168 0.247 0.223 0.329-0.24 0.413-0.476 0.826-0.713 1.24 0.115 0.121 0.23 0.242 0.346 0.364 0.324-0.223 0.649-0.444 0.973-0.667 0.307 0.35 0.649 0.686 0.81 1.135-0.329 0.001-0.656-0.020-0.985-0.043 0 0.101 0 0.202-0.001 0.302 0.398 0.037 0.798 0.066 1.19 0.145-0.391 0.175-0.792 0.33-1.192 0.485-0.001 0.337-0.001 0.674-0.001 1.012 0.228 0.156 0.457 0.312 0.685 0.469 0.002-0.161 0.005-0.32 0.007-0.48-0.042-0.036-0.126-0.108-0.168-0.143 0.001-0.192 0.001-0.383 0.002-0.572 0.379-0.13 0.757-0.26 1.136-0.391 0.118 0.563 0.292 1.114 0.372 1.684-0.038 0.168-0.12 0.323-0.182 0.484 0.106-0.001 0.317-0.004 0.424-0.005 0.041-0.072 0.122-0.216 0.164-0.288-0.076-0.64-0.156-1.277-0.234-1.915 0.644-0.008 1.29-0.022 1.934-0.030 0.036 0.301 0.072 0.602 0.109 0.904-0.316 0.442-0.626 0.887-0.938 1.331 0.18 0 0.36 0 0.54 0.001 0.254-0.391 0.552-0.757 0.77-1.17 0.055-0.328 0.020-0.662 0.028-0.991 0.361 0.286 0.764 0.524 1.087 0.856 0.181 0.418 0.271 0.87 0.409 1.303 0.115-0.053 0.23-0.107 0.346-0.16-0.076-0.395-0.139-0.791-0.223-1.184-0.041-0.376-0.397-0.58-0.623-0.842 1.303 0.113 2.608 0.234 3.912 0.34-0.241 0.258-0.426 0.565-0.449 0.928l-0.011 0.058c-1.916 1.268-4.282 1.847-6.565 1.543-2.768-0.33-5.333-1.95-6.864-4.274z"></path>
<path fill="#fff" d="M13.687 18.324c-0.022-0.293-0.030-0.588 0.016-0.88 0.098 0.242 0.166 0.497 0.229 0.75 0.073 0.042 0.22 0.126 0.293 0.168-0.18-0.013-0.359-0.025-0.538-0.038z"></path>
<path fill="#000" d="M15.244 6.672c0.178 0 0.354 0 0.532 0 0 0.541 0 1.082 0 1.624 0.298 0 0.596 0 0.894 0 0.156-0.451 0.316-0.901 0.474-1.351 0.76 0 1.52 0 2.281 0 0.014 0.697-0.029 1.399 0.019 2.095 0.4 0.268 0.599 0.708 0.64 1.178 0.143-0.001 0.287-0.002 0.43-0.002 0 0.154 0.001 0.308 0.001 0.463-0.148 0.001-0.294 0.001-0.44 0.001-0.35 0.492-0.808 1.072-1.475 1.051-0.646-0.014-1.105-0.534-1.481-0.997-0.685 0.004-1.369 0.001-2.054 0.002-0.060 0.326-0.112 0.715-0.439 0.888-0.464 0.325-1.17-0.032-1.216-0.589-0.056-0.328 0.166-0.589 0.362-0.818-0.133-0.112-0.265-0.222-0.397-0.334-0.001-0.529 0-1.058-0.001-1.588 0.624 0 1.248 0 1.872 0-0.001-0.541-0.001-1.082-0.001-1.624M17.434 7.409c-0.094 0.295-0.188 0.592-0.282 0.887 0.257 0 0.515 0 0.773 0 0-0.296 0-0.592 0-0.888-0.164 0-0.328 0.001-0.491 0.001M18.119 7.408c0 0.296 0 0.593 0 0.888 0.257 0 0.515 0 0.772 0 0-0.295 0-0.592 0-0.888-0.257 0-0.515 0-0.772 0z"></path>
<path fill="#000" d="M5.245 7.612c0.11-0.22 0.401-0.167 0.601-0.212 0.012 0.049 0.034 0.15 0.044 0.2-0.152 0.020-0.302 0.049-0.451 0.088-0.079 0.184-0.136 0.377-0.196 0.568 0.767-0.010 1.536 0.025 2.302-0.014 0.049-0.044 0.145-0.134 0.194-0.179-0.295-0.116-0.658-0.126-0.869-0.398 0.499-0.053 1.001-0.026 1.501-0.030 0 0.103 0 0.311 0 0.415-0.119 0-0.358 0-0.476-0.001-0.040 0.122-0.079 0.245-0.12 0.367 0.162 0.269 0.326 0.536 0.49 0.805 0.448-0.149 0.968-0.18 1.373 0.103 0.646 0.402 0.808 1.38 0.313 1.963-0.448 0.605-1.422 0.686-1.962 0.164-0.28-0.233-0.395-0.589-0.472-0.931-0.184 0.172-0.384 0.457-0.672 0.311-0.25-0.095-0.224-0.382-0.251-0.598-0.528-0.442-1.039-0.905-1.594-1.316-0.061 0.265 0.199 0.343 0.344 0.481 0.631 0.44 0.694 1.447 0.149 1.981-0.5 0.566-1.487 0.554-1.974-0.022-0.521-0.533-0.45-1.487 0.134-1.945 0.306-0.288 0.742-0.324 1.141-0.307 0.151-0.497 0.256-1.010 0.449-1.493M5.113 8.48c0.024 0.164 0.080 0.332 0.226 0.426 0.478 0.396 0.955 0.792 1.428 1.193 0.070-0.019 0.209-0.058 0.278-0.077 0.166-0.521 0.331-1.042 0.499-1.561-0.81 0.013-1.621-0.017-2.431 0.019M7.243 10.092c0.085 0.1 0.17 0.199 0.257 0.298 0.088-0.407 0.289-0.773 0.588-1.063-0.132-0.216-0.263-0.432-0.394-0.648-0.152 0.47-0.302 0.941-0.451 1.414M3.731 9.619c-0.522 0.464-0.451 1.394 0.138 1.77 0.595 0.452 1.554 0.11 1.744-0.608 0.192-0.568-0.155-1.164-0.667-1.417-0.134 0.386-0.245 0.782-0.268 1.194-0.050 0.193-0.414 0.094-0.352-0.103 0.19-0.366 0.314-0.76 0.409-1.16-0.354 0.019-0.748 0.048-1.004 0.325M8.378 9.389c0.2 0.378 0.44 0.733 0.728 1.051-0.043 0.079-0.090 0.156-0.139 0.232-0.394-0.167-0.826-0.115-1.241-0.119 0.102 0.642 0.728 1.174 1.392 1.018 0.763-0.125 1.184-1.108 0.733-1.742-0.3-0.503-0.95-0.608-1.474-0.439M7.723 10.342c0.328 0.004 0.654 0.002 0.982 0.001-0.169-0.283-0.341-0.565-0.522-0.841-0.211 0.245-0.373 0.527-0.46 0.84z"></path>
<path fill="#000" d="M7.608 15.548c0.342 0.289 0.794 0.293 1.206 0.401 0.496 0.215 0.883 0.619 1.376 0.836 0.923 0.034 1.848-0.052 2.772-0.061 0.168 0.139 0.337 0.277 0.506 0.416 0.252-0.043 0.505-0.086 0.758-0.128 0.148 0.461 0.295 0.923 0.442 1.384 1.103 0.084 2.207 0.152 3.308 0.257 0.038-0.062 0.115-0.187 0.155-0.251-0.187-0.029-0.373-0.056-0.558-0.085-0.022-0.618-0.042-1.236-0.064-1.854 0.509 0.001 1.043-0.056 1.511 0.186 0.31 0.211 0.622 0.419 0.922 0.643-0.11 0.349-0.352 0.632-0.581 0.908-0.574 0.684-1.242 1.291-1.994 1.775 0.023-0.362 0.208-0.67 0.449-0.928-1.304-0.106-2.609-0.227-3.912-0.34 0.226 0.263 0.582 0.467 0.623 0.842 0.084 0.394 0.148 0.79 0.223 1.184-0.115 0.053-0.23 0.107-0.346 0.16-0.138-0.433-0.228-0.886-0.409-1.303-0.323-0.331-0.726-0.57-1.087-0.856-0.007 0.329 0.028 0.664-0.028 0.991-0.218 0.413-0.516 0.779-0.77 1.17-0.18-0.001-0.36-0.001-0.54-0.001 0.312-0.444 0.623-0.889 0.938-1.331-0.037-0.301-0.073-0.602-0.109-0.904-0.644 0.008-1.29 0.022-1.934 0.030 0.078 0.638 0.158 1.276 0.234 1.915-0.042 0.072-0.124 0.216-0.164 0.288-0.107 0.001-0.318 0.004-0.424 0.005 0.062-0.161 0.144-0.316 0.182-0.484-0.080-0.57-0.254-1.121-0.372-1.684-0.379 0.131-0.757 0.262-1.136 0.391-0.001 0.19-0.001 0.38-0.002 0.572 0.042 0.035 0.126 0.107 0.168 0.143-0.002 0.16-0.005 0.319-0.007 0.48-0.228-0.157-0.457-0.313-0.685-0.469 0-0.337 0-0.674 0.001-1.012 0.4-0.155 0.8-0.31 1.192-0.485-0.392-0.079-0.792-0.108-1.19-0.145 0.001-0.101 0.001-0.202 0.001-0.302 0.329 0.023 0.656 0.044 0.985 0.043-0.161-0.449-0.503-0.785-0.81-1.135-0.324 0.223-0.649 0.444-0.973 0.667-0.115-0.121-0.23-0.242-0.346-0.364 0.236-0.414 0.473-0.827 0.713-1.24-0.055-0.082-0.167-0.246-0.223-0.329M13.687 18.324c0.179 0.013 0.358 0.025 0.538 0.038-0.073-0.042-0.22-0.126-0.293-0.168-0.064-0.253-0.131-0.508-0.229-0.75-0.046 0.292-0.037 0.587-0.016 0.88z"></path>
</svg>
