<?xml version="1.0" encoding="utf-8"?>
<!-- Generated by IcoMoon.io -->
<!DOCTYPE svg PUBLIC "-//W3C//DTD SVG 1.1//EN" "http://www.w3.org/Graphics/SVG/1.1/DTD/svg11.dtd">
<svg version="1.1" xmlns="http://www.w3.org/2000/svg" xmlns:xlink="http://www.w3.org/1999/xlink" width="24" height="24" viewBox="0 0 24 24">
<path fill="#e41408" d="M0 12c0-6.627 5.373-12 12.001-12 6.627 0 12 5.372 12 12s-5.374 12-12 12c-6.628 0-12.001-5.373-12.001-12z"></path>
<path fill="#fff" d="M3.201 12c0-4.86 3.94-8.8 8.8-8.8s8.799 3.94 8.799 8.8c0 4.861-3.939 8.799-8.799 8.799s-8.8-3.939-8.8-8.799z"></path>
<path fill="#000" d="M6.529 15.257h1.494v-6.357h-1.326v0.277c0 0.331-0.334 0.664-0.664 0.664h-0.553v1.269h1.049v4.147z"></path>
<path fill="#000" d="M10.396 15.257h1.494v-6.357h-1.326v0.277c0 0.331-0.334 0.664-0.664 0.664h-0.553v1.269h1.049v4.147z"></path>
<path fill="#000" d="M18.428 10.659c-0.277-1.105-1.383-1.935-2.543-1.935-1.161 0-2.211 0.83-2.544 1.935-0.164 0.773-0.164 1.99 0 2.764 0.333 1.105 1.382 1.933 2.544 1.933 1.16 0 2.266-0.829 2.543-1.933 0.219-0.773 0.219-1.99 0-2.764zM17.045 12.926c-0.056 0.55-0.607 0.994-1.16 0.994s-1.052-0.444-1.161-0.994c-0.055-0.498-0.055-1.271 0-1.77 0.109-0.554 0.609-0.995 1.161-0.995s1.104 0.441 1.16 0.995c0.109 0.499 0.109 1.272 0 1.77z"></path>
</svg>
