<!-- Generated by IcoMoon.io -->
<svg version="1.1" xmlns="http://www.w3.org/2000/svg" width="24" height="24" viewBox="0 0 24 24">
<title>regulatory--weight-limit--g5</title>
<path fill="#ed171f" d="M10.924 0h2.117c4.21 0.416 8.124 3.108 9.857 6.99 0.622 1.294 0.911 2.71 1.103 4.123v1.73c-0.258 2.503-1.187 4.961-2.842 6.877-2.045 2.471-5.114 3.973-8.288 4.279h-1.72c-4.062-0.337-7.901-2.78-9.773-6.425-0.763-1.398-1.15-2.959-1.378-4.525v-2.090c0.2-1.366 0.494-2.731 1.094-3.983 1.733-3.87 5.633-6.55 9.829-6.977M10.848 3.176c-4.098 0.45-7.528 4.103-7.727 8.219-0.334 3.906 2.274 7.784 5.984 9.008 2.783 0.986 6.036 0.439 8.345-1.399 3.061-2.306 4.28-6.692 2.827-10.244-1.392-3.722-5.488-6.173-9.43-5.584z"></path>
<path fill="#fff" d="M10.848 3.176c3.942-0.589 8.038 1.861 9.43 5.584 1.453 3.552 0.234 7.938-2.827 10.244-2.309 1.838-5.562 2.386-8.345 1.399-3.71-1.224-6.318-5.102-5.984-9.008 0.199-4.116 3.629-7.769 7.727-8.219M15.527 6.022c0 0.263 0.001 0.524 0 0.787-0.109 0.004-0.33 0.011-0.44 0.014-0.002 0.163-0.004 0.326-0.004 0.49 0.112 0.004 0.334 0.011 0.445 0.014 0.026 0.607-0.059 1.226 0.047 1.828 0.222 0.469 0.848 0.348 1.259 0.252-0.017-0.166-0.032-0.33-0.048-0.494-0.203-0.006-0.406-0.011-0.608-0.019-0.048-0.522-0.023-1.048-0.026-1.571 0.228-0.002 0.456-0.004 0.684-0.005 0-0.167-0.001-0.332-0.001-0.499-0.228-0.001-0.455-0.002-0.683-0.005 0-0.331 0-0.662-0.004-0.992-0.208 0.066-0.414 0.133-0.62 0.2M7.493 6.769c0.19 0.116 0.38 0.23 0.571 0.344 0.16-0.214 0.296-0.491 0.578-0.558 0.388-0.124 0.83 0.371 0.566 0.72-0.426 0.625-1.099 1.020-1.645 1.531-0.001 0.216-0.004 0.432-0.004 0.648 0.818 0.001 1.638 0.004 2.456-0.001 0-0.215-0.001-0.43-0.001-0.643-0.499-0.004-0.998-0.001-1.498-0.004 0.505-0.502 1.274-0.864 1.421-1.624 0.134-0.678-0.504-1.32-1.178-1.242-0.562-0.029-0.994 0.383-1.267 0.828M11.676 6.029c-1.368 0.695-1.144 3.692 0.688 3.476 1.226-0.1 1.418-1.646 1.109-2.587-0.17-0.78-1.079-1.186-1.796-0.889M7.105 11.485c-0.011 1.256-0.011 2.513 0 3.769 1.919 0.018 3.84 0.013 5.759 0.001 0.012-1.259 0.016-2.518-0.001-3.776-1.919-0.020-3.84-0.034-5.758 0.006M13.446 11.478c-0.019 1.259-0.017 2.519-0.001 3.779 2.033 0.010 4.066 0.016 6.098-0.002 0.012-1.256 0.011-2.513 0-3.769-2.032-0.040-4.066-0.025-6.097-0.007M4.956 12.634c-0.317 0.833-0.461 1.716-0.392 2.605 0.038 0.392-0.19 1.102 0.418 1.096 0.052-0.948 1.048-1.196 1.83-1.080 0.007-0.889 0.017-1.781-0.005-2.67-0.613 0.007-1.258-0.095-1.85 0.049M5.813 15.546c-0.539 0.152-0.761 0.91-0.344 1.304 0.388 0.446 1.199 0.246 1.337-0.328 0.186-0.565-0.426-1.186-0.992-0.977M7.103 15.534c-0.004 0.253-0.004 0.505-0.002 0.758 0.568 0.006 1.136 0.005 1.704 0.001 0.002-0.252 0.004-0.505 0.002-0.757-0.568-0.014-1.136-0.012-1.704-0.002M9.539 15.558c-0.553 0.166-0.71 0.958-0.271 1.328 0.424 0.431 1.252 0.16 1.318-0.448 0.137-0.575-0.505-1.109-1.046-0.881M11.448 15.529c-0.966 0.169-0.662 1.78 0.311 1.558 0.994-0.152 0.683-1.823-0.311-1.558M14.454 15.546c-0.532 0.157-0.745 0.904-0.342 1.3 0.382 0.454 1.196 0.25 1.342-0.317 0.193-0.572-0.432-1.188-1-0.983M18.048 15.541c-0.56 0.139-0.761 0.918-0.346 1.315 0.389 0.445 1.199 0.229 1.332-0.34 0.196-0.57-0.424-1.165-0.986-0.976z"></path>
<path fill="#fff" d="M12.031 6.619c1.322-0.168 1.234 2.65-0.085 2.327-0.682-0.499-0.692-1.906 0.085-2.327z"></path>
<path fill="#fff" d="M5.198 12.924c0.358-0.016 0.714-0.017 1.072-0.008 0.006 0.386 0.006 0.774-0.001 1.16-0.458 0.007-0.916 0.007-1.374-0.002 0.094-0.385 0.2-0.767 0.304-1.15z"></path>
<path fill="#000" d="M15.527 6.022c0.206-0.067 0.413-0.134 0.62-0.2 0.004 0.33 0.004 0.661 0.004 0.992 0.228 0.002 0.455 0.004 0.683 0.005 0 0.167 0.001 0.332 0.001 0.499-0.228 0.001-0.456 0.002-0.684 0.005 0.004 0.523-0.022 1.049 0.026 1.571 0.203 0.008 0.406 0.013 0.608 0.019 0.016 0.164 0.031 0.329 0.048 0.494-0.41 0.096-1.037 0.217-1.259-0.252-0.106-0.601-0.020-1.22-0.047-1.828-0.112-0.004-0.334-0.011-0.445-0.014 0-0.163 0.001-0.326 0.004-0.49 0.11-0.004 0.331-0.011 0.44-0.014 0.001-0.263 0-0.524 0-0.787z"></path>
<path fill="#000" d="M7.493 6.769c0.274-0.445 0.706-0.857 1.267-0.828 0.674-0.078 1.313 0.564 1.178 1.242-0.146 0.76-0.916 1.122-1.421 1.624 0.499 0.002 0.998 0 1.498 0.004 0 0.214 0.001 0.428 0.001 0.643-0.818 0.005-1.638 0.002-2.456 0.001 0-0.216 0.002-0.432 0.004-0.648 0.546-0.511 1.219-0.906 1.645-1.531 0.264-0.349-0.179-0.844-0.566-0.72-0.282 0.067-0.419 0.344-0.578 0.558-0.191-0.114-0.382-0.228-0.571-0.344z"></path>
<path fill="#000" d="M11.676 6.029c0.718-0.296 1.626 0.109 1.796 0.889 0.31 0.941 0.118 2.488-1.109 2.587-1.831 0.216-2.056-2.782-0.688-3.476M12.031 6.619c-0.778 0.421-0.767 1.828-0.085 2.327 1.319 0.323 1.408-2.495 0.085-2.327z"></path>
<path fill="#000" d="M7.105 11.485c1.918-0.040 3.839-0.026 5.758-0.006 0.017 1.259 0.013 2.518 0.001 3.776-1.919 0.012-3.84 0.017-5.759-0.001-0.011-1.256-0.011-2.513 0-3.769z"></path>
<path fill="#000" d="M13.446 11.478c2.032-0.018 4.066-0.032 6.097 0.007 0.011 1.256 0.012 2.513 0 3.769-2.033 0.018-4.066 0.012-6.098 0.002-0.016-1.26-0.018-2.52 0.001-3.779z"></path>
<path fill="#000" d="M4.956 12.634c0.593-0.144 1.237-0.042 1.85-0.049 0.022 0.889 0.012 1.781 0.005 2.67-0.782-0.116-1.778 0.132-1.83 1.080-0.607 0.006-0.379-0.703-0.418-1.096-0.068-0.889 0.076-1.772 0.392-2.605M5.198 12.924c-0.103 0.383-0.21 0.764-0.304 1.15 0.458 0.010 0.916 0.010 1.374 0.002 0.007-0.386 0.007-0.774 0.001-1.16-0.358-0.008-0.714-0.007-1.072 0.008z"></path>
<path fill="#000" d="M5.813 15.546c0.566-0.209 1.178 0.412 0.992 0.977-0.138 0.574-0.949 0.774-1.337 0.328-0.416-0.395-0.194-1.152 0.344-1.304z"></path>
<path fill="#000" d="M7.103 15.534c0.568-0.010 1.136-0.012 1.704 0.002 0.001 0.252 0 0.505-0.002 0.757-0.568 0.004-1.136 0.005-1.704-0.001-0.001-0.253-0.001-0.505 0.002-0.758z"></path>
<path fill="#000" d="M9.539 15.558c0.541-0.228 1.183 0.306 1.046 0.881-0.066 0.607-0.894 0.878-1.318 0.448-0.439-0.371-0.282-1.163 0.271-1.328z"></path>
<path fill="#000" d="M11.448 15.529c0.994-0.265 1.304 1.405 0.311 1.558-0.973 0.222-1.277-1.388-0.311-1.558z"></path>
<path fill="#000" d="M14.454 15.546c0.568-0.205 1.193 0.41 1 0.983-0.145 0.566-0.96 0.77-1.342 0.317-0.403-0.396-0.19-1.142 0.342-1.3z"></path>
<path fill="#000" d="M18.048 15.541c0.563-0.19 1.182 0.406 0.986 0.976-0.133 0.569-0.943 0.785-1.332 0.34-0.415-0.397-0.215-1.176 0.346-1.315z"></path>
</svg>
