<!-- Generated by IcoMoon.io -->
<svg version="1.1" xmlns="http://www.w3.org/2000/svg" width="24" height="24" viewBox="0 0 24 24">
<title>regulatory--no-left-turn--g2</title>
<path fill="#000" d="M10.819 0h2.336c1.691 0.342 3.536 0.636 4.909 1.75-3.683-2.152-8.449-2.153-12.132 0 1.364-1.112 3.205-1.399 4.886-1.75z"></path>
<path fill="#000" d="M4.994 2.352c0.206-0.292 0.505-0.488 0.859-0.551-0.27 0.209-0.556 0.396-0.859 0.551z"></path>
<path fill="#000" d="M18.146 1.801c0.355 0.066 0.667 0.259 0.866 0.565-0.302-0.167-0.593-0.354-0.866-0.565z"></path>
<path fill="#000" d="M4.537 2.706c0.046-0.209 0.227-0.35 0.44-0.342-0.096 0.169-0.253 0.289-0.44 0.342z"></path>
<path fill="#000" d="M19.037 2.392c0.271-0.038 0.502 0.162 0.545 0.425-0.215-0.095-0.409-0.232-0.545-0.425z"></path>
<path fill="#000" d="M2.832 4.393c0.346-0.653 0.908-1.214 1.561-1.561-0.53 0.511-1.050 1.031-1.561 1.561z"></path>
<path fill="#000" d="M19.612 2.836c0.65 0.347 1.208 0.907 1.555 1.558-0.51-0.528-1.028-1.046-1.555-1.558z"></path>
<path fill="#000" d="M2.365 4.978c-0.011-0.214 0.131-0.394 0.34-0.439-0.052 0.186-0.17 0.344-0.34 0.439z"></path>
<path fill="#000" d="M1.8 5.856c0.061-0.354 0.262-0.653 0.552-0.862-0.156 0.305-0.343 0.592-0.552 0.862z"></path>
<path fill="#000" d="M21.638 4.99c0.296 0.208 0.497 0.51 0.56 0.868-0.211-0.272-0.402-0.562-0.56-0.868z"></path>
<path fill="#000" d="M0.737 8.142c0.109-0.799 0.469-1.606 1.010-2.206-0.368 0.721-0.712 1.454-1.010 2.206z"></path>
<path fill="#000" d="M22.249 5.936c1.108 1.368 1.406 3.202 1.751 4.886v2.327c-0.283 1.16-0.335 2.444-1.022 3.46 1.404-3.436 1.133-7.462-0.728-10.673z"></path>
<path fill="#000" d="M7.18 8.245c1.603-0.071 3.216-0.008 4.823-0.030 0.773-0.030 1.543 0.174 2.202 0.578-0.731 0.752-1.468 1.502-2.228 2.225-1.594-0.004-3.187-0.005-4.78 0.001-0.481-0.456-0.94-0.934-1.411-1.399 0.464-0.458 0.904-0.946 1.394-1.375z"></path>
<path fill="#000" d="M0 10.846c0.236-0.828 0.186-1.762 0.666-2.504-0.821 2.7-0.694 5.647 0.354 8.268-0.684-1.006-0.732-2.28-1.020-3.43v-2.334z"></path>
<path fill="#000" d="M12.983 12.188c0.748-0.776 1.514-1.534 2.284-2.287 0.324 0.562 0.517 1.199 0.515 1.85 0.006 2.154 0.001 4.309 0.001 6.463-0.468-0.463-0.926-0.936-1.4-1.393-0.474 0.457-0.934 0.929-1.4 1.393 0.004-2.009 0.002-4.018 0.001-6.026z"></path>
<path fill="#000" d="M1.076 16.733c0.238 0.437 0.464 0.878 0.674 1.328-0.383-0.338-0.604-0.827-0.674-1.328z"></path>
<path fill="#000" d="M22.392 17.832c0.133-0.386 0.335-0.743 0.529-1.1-0.037 0.421-0.223 0.809-0.529 1.1z"></path>
<path fill="#000" d="M22.045 18.385c0.058-0.173 0.121-0.386 0.312-0.454 0.022 0.211-0.12 0.385-0.312 0.454z"></path>
<path fill="#000" d="M1.804 18.142c0.214 0.271 0.402 0.56 0.56 0.866-0.3-0.204-0.496-0.51-0.56-0.866z"></path>
<path fill="#000" d="M21.181 19.592c0.234-0.382 0.505-0.738 0.786-1.085-0.122 0.444-0.41 0.822-0.786 1.085z"></path>
<path fill="#000" d="M2.388 19.032c0.19 0.14 0.342 0.323 0.43 0.544-0.282-0.018-0.432-0.286-0.43-0.544z"></path>
<path fill="#000" d="M2.834 19.607c0.511 0.529 1.038 1.042 1.56 1.559-0.649-0.348-1.212-0.908-1.56-1.559z"></path>
<path fill="#000" d="M19.73 21.049c0.48-0.469 0.946-0.954 1.424-1.427-0.319 0.595-0.818 1.123-1.424 1.427z"></path>
<path fill="#000" d="M4.426 21.182c0.22 0.088 0.406 0.238 0.545 0.43-0.259 0.002-0.526-0.149-0.545-0.43z"></path>
<path fill="#000" d="M18.508 21.971c0.349-0.289 0.712-0.564 1.097-0.804-0.264 0.383-0.65 0.67-1.097 0.804z"></path>
<path fill="#000" d="M4.997 21.636c0.49 0.266 0.94 0.601 1.439 0.852 3.416 1.868 7.722 1.814 11.156 0.016-1.248 0.972-2.909 1.162-4.412 1.496h-2.335c-2.069-0.362-4.26-0.919-5.848-2.364z"></path>
<path fill="#000" d="M17.927 22.325c0.119-0.144 0.282-0.241 0.462-0.286-0.048 0.21-0.25 0.342-0.462 0.286z"></path>
<path fill="#fff" d="M5.933 1.75c3.683-2.153 8.449-2.152 12.132 0 0.020 0.013 0.061 0.038 0.082 0.052 0.274 0.211 0.564 0.398 0.866 0.565 0.006 0.006 0.018 0.019 0.024 0.025 0.136 0.193 0.33 0.33 0.545 0.425 0.007 0.005 0.023 0.014 0.030 0.019 0.527 0.511 1.045 1.030 1.555 1.558 0.041 0.047 0.083 0.092 0.125 0.139 0.029 0.187 0.149 0.34 0.317 0.425 0.007 0.007 0.023 0.024 0.030 0.032 0.158 0.306 0.349 0.595 0.56 0.868 0.012 0.019 0.037 0.059 0.050 0.079 1.861 3.211 2.132 7.237 0.728 10.673-0.013 0.030-0.042 0.092-0.056 0.122-0.194 0.358-0.396 0.714-0.529 1.1-0.008 0.025-0.025 0.074-0.035 0.1-0.191 0.067-0.254 0.281-0.312 0.454-0.019 0.030-0.059 0.091-0.078 0.122-0.281 0.347-0.552 0.703-0.786 1.085-0.007 0.007-0.020 0.023-0.026 0.030-0.479 0.473-0.944 0.958-1.424 1.427-0.043 0.040-0.084 0.078-0.126 0.118-0.385 0.24-0.748 0.515-1.097 0.804-0.029 0.017-0.089 0.052-0.119 0.068-0.18 0.044-0.343 0.142-0.462 0.286-0.113 0.058-0.224 0.118-0.335 0.179-3.434 1.799-7.74 1.853-11.156-0.016-0.499-0.251-0.949-0.586-1.439-0.852-0.007-0.006-0.020-0.018-0.026-0.024-0.139-0.192-0.325-0.342-0.545-0.43-0.007-0.005-0.023-0.012-0.031-0.017-0.522-0.517-1.049-1.030-1.56-1.559-0.004-0.007-0.012-0.024-0.017-0.031-0.088-0.221-0.24-0.403-0.43-0.544-0.006-0.006-0.018-0.018-0.024-0.024-0.158-0.306-0.347-0.595-0.56-0.866-0.013-0.020-0.040-0.060-0.053-0.080-0.21-0.45-0.437-0.892-0.674-1.328-0.013-0.030-0.042-0.092-0.056-0.124-1.048-2.621-1.175-5.568-0.354-8.268 0.024-0.066 0.047-0.133 0.071-0.199 0.299-0.751 0.642-1.484 1.010-2.206 0.013-0.019 0.040-0.060 0.053-0.080 0.209-0.27 0.396-0.557 0.552-0.862 0.004-0.005 0.010-0.013 0.013-0.017 0.169-0.095 0.288-0.253 0.34-0.439 0.042-0.048 0.085-0.096 0.127-0.145 0.511-0.53 1.031-1.050 1.561-1.561 0.048-0.042 0.096-0.084 0.144-0.126 0.187-0.053 0.344-0.173 0.44-0.342 0.004-0.004 0.012-0.010 0.017-0.012 0.304-0.155 0.589-0.342 0.859-0.551 0.019-0.013 0.060-0.038 0.079-0.052M10.958 0.406c-2.494 0.215-4.908 1.267-6.758 2.952-2.788 2.486-4.241 6.364-3.751 10.069 0.413 3.594 2.634 6.902 5.78 8.678 2.468 1.421 5.471 1.89 8.251 1.265 3.151-0.672 5.971-2.734 7.582-5.524 1.48-2.515 1.94-5.599 1.285-8.441-0.762-3.425-3.174-6.433-6.352-7.921-1.867-0.896-3.976-1.26-6.037-1.079z"></path>
<path fill="#fff" d="M10.805 3.443c2.408-0.34 4.94 0.394 6.787 1.978-1.132 1.122-2.243 2.266-3.388 3.373-0.659-0.404-1.429-0.608-2.202-0.578-1.607 0.022-3.22-0.041-4.823 0.030-0.491 0.43-0.93 0.917-1.394 1.375 0.472 0.466 0.93 0.943 1.411 1.399 1.592-0.006 3.186-0.005 4.78-0.001-2.166 2.209-4.37 4.38-6.553 6.572-2.477-2.824-2.75-7.294-0.611-10.386 1.342-2.029 3.58-3.442 5.993-3.762z"></path>
<path fill="#fff" d="M18.646 6.505c2.471 2.85 2.647 7.362 0.448 10.418-1.213 1.748-3.086 3.040-5.171 3.496-2.568 0.608-5.399-0.065-7.42-1.765 2.162-2.154 4.306-4.326 6.48-6.466 0.001 2.009 0.002 4.018-0.001 6.026 0.467-0.464 0.926-0.936 1.4-1.393 0.474 0.457 0.932 0.93 1.4 1.393 0-2.154 0.005-4.309-0.001-6.463 0.002-0.652-0.191-1.289-0.515-1.85 1.114-1.145 2.262-2.255 3.379-3.396z"></path>
<path fill="#d40000" d="M10.958 0.406c2.062-0.181 4.17 0.182 6.037 1.079 3.178 1.488 5.59 4.496 6.352 7.921 0.655 2.842 0.194 5.926-1.285 8.441-1.61 2.79-4.43 4.852-7.582 5.524-2.78 0.625-5.783 0.156-8.251-1.265-3.146-1.776-5.368-5.084-5.78-8.678-0.49-3.706 0.964-7.583 3.751-10.069 1.85-1.685 4.265-2.737 6.758-2.952M10.805 3.443c-2.413 0.32-4.651 1.733-5.993 3.762-2.14 3.092-1.866 7.562 0.611 10.386 2.183-2.192 4.387-4.363 6.553-6.572 0.761-0.722 1.498-1.472 2.228-2.225 1.145-1.108 2.256-2.251 3.388-3.373-1.847-1.584-4.379-2.317-6.787-1.978M18.646 6.505c-1.117 1.141-2.266 2.251-3.379 3.396-0.769 0.754-1.536 1.511-2.284 2.287-2.174 2.14-4.318 4.312-6.48 6.466 2.021 1.7 4.852 2.374 7.42 1.765 2.084-0.456 3.958-1.747 5.171-3.496 2.2-3.056 2.023-7.568-0.448-10.418z"></path>
<path fill="#222" opacity="0.87" d="M21.292 4.532c0.208 0.034 0.323 0.224 0.317 0.425-0.168-0.085-0.288-0.238-0.317-0.425z"></path>
</svg>
