<?xml version="1.0" encoding="utf-8"?>
<!-- Generated by IcoMoon.io -->
<!DOCTYPE svg PUBLIC "-//W3C//DTD SVG 1.1//EN" "http://www.w3.org/Graphics/SVG/1.1/DTD/svg11.dtd">
<svg version="1.1" xmlns="http://www.w3.org/2000/svg" xmlns:xlink="http://www.w3.org/1999/xlink" width="24" height="24" viewBox="0 0 24 24">
<path fill="#ff0303" d="M11.099 0h1.792c2.845 0.219 5.6 1.47 7.611 3.499 2.025 2.006 3.273 4.753 3.499 7.59v1.808c-0.198 2.45-1.137 4.839-2.708 6.733-2.046 2.521-5.152 4.12-8.383 4.37h-1.959c-2.635-0.27-5.188-1.366-7.126-3.183-2.213-2.035-3.592-4.923-3.825-7.917v-1.788c0.241-3.241 1.847-6.356 4.373-8.405 1.893-1.57 4.279-2.509 6.726-2.707M10.473 3.57c-2.143 0.339-4.117 1.552-5.419 3.283-1.291 1.69-1.905 3.876-1.689 5.991 0.182 2.015 1.119 3.952 2.587 5.345 1.544 1.517 3.689 2.385 5.85 2.403 1.785 0.018 3.576-0.529 5.030-1.57 1.689-1.194 2.933-3.007 3.4-5.025 0.45-1.881 0.237-3.914-0.597-5.66-0.945-1.994-2.69-3.595-4.76-4.359-1.401-0.504-2.931-0.662-4.402-0.409z"></path>
<path fill="#fff" d="M10.473 3.57c1.471-0.253 3.001-0.095 4.402 0.409 2.070 0.764 3.816 2.364 4.76 4.359 0.834 1.745 1.047 3.778 0.597 5.66-0.467 2.018-1.711 3.831-3.4 5.025-1.454 1.041-3.244 1.588-5.030 1.57-2.161-0.018-4.306-0.886-5.85-2.403-1.468-1.394-2.405-3.33-2.587-5.345-0.216-2.115 0.398-4.301 1.689-5.991 1.301-1.731 3.275-2.944 5.419-3.283M12.109 7.256c-0.003 0.53-0.003 1.061-0.001 1.593 0.077 0 0.231 0.001 0.308 0.001 0.008-0.139 0.022-0.415 0.030-0.553 0.204 0.133 0.321 0.35 0.439 0.556 0.083-0.001 0.252-0.005 0.336-0.006-0.085-0.175-0.171-0.348-0.257-0.521 0.167-0.223 0.344-0.519 0.166-0.789-0.195-0.379-0.678-0.248-1.020-0.28M7.507 7.274c0 0.526-0.001 1.054 0.001 1.58 0.078 0 0.237-0.001 0.317-0.003 0.003-0.525 0.001-1.051 0.001-1.576-0.080 0-0.24-0.001-0.32-0.001M8.206 7.272c0 0.526 0 1.052 0 1.579 0.078 0 0.234-0.001 0.312-0.001 0.001-0.327 0-0.656 0.001-0.983 0.254 0.35 0.29 0.982 0.798 1.033 0.018-0.543 0.008-1.085 0.009-1.627h-0.311c-0.001 0.276-0.001 0.552-0.001 0.828-0.139-0.276-0.275-0.552-0.413-0.828-0.099 0-0.296 0-0.395 0M9.604 7.273c0 0.074 0 0.225 0 0.299 0.089 0.001 0.266 0.004 0.354 0.004-0.003 0.426-0.003 0.852-0.001 1.277 0.078 0 0.232 0.001 0.311 0.001 0-0.426 0-0.851 0-1.276 0.083 0 0.249-0.001 0.332-0.001 0-0.076-0.001-0.227-0.001-0.304-0.331 0-0.664 0-0.995 0M10.833 7.272c0 0.526-0.001 1.051 0 1.577 0.344 0.001 0.689 0.001 1.034 0.001 0-0.074 0.001-0.221 0.003-0.295-0.239 0-0.476 0-0.714 0 0-0.089-0.001-0.266-0.001-0.354 0.168-0.001 0.336-0.003 0.504-0.005-0.001-0.073-0.003-0.218-0.004-0.291-0.166 0-0.332 0-0.499 0 0-0.085-0.001-0.254-0.001-0.338 0.227 0 0.456-0.001 0.684 0 0-0.074 0-0.222 0-0.295-0.335 0-0.67 0-1.006 0M13.43 7.258c-0.001 0.533-0.003 1.065 0 1.598 0.372-0.028 0.915 0.107 1.111-0.316 0.089-0.34 0.131-0.751-0.062-1.061-0.248-0.325-0.703-0.184-1.050-0.221M14.877 7.274c0 0.526 0 1.054 0.001 1.58 0.078 0 0.235 0 0.314 0 0.001-0.526 0-1.054 0-1.58-0.078 0-0.236 0-0.316 0M15.486 7.273c-0.001 0.076-0.001 0.226-0.001 0.3 0.089 0 0.266 0.001 0.354 0.001-0.001 0.426-0.001 0.852 0 1.278 0.078 0 0.232 0.001 0.311 0.001 0.003-0.425 0.001-0.851 0.001-1.276 0.082 0 0.248-0.001 0.331-0.001-0.001-0.076-0.001-0.228-0.001-0.304-0.332 0-0.664 0-0.995 0M10.111 10.687c-0.141 0.548-0.314 1.088-0.415 1.647 0.255-0.124 0.476-0.335 0.77-0.362 0.092 0.203 0.266 0.307 0.479 0.334-0.128-0.545-0.284-1.083-0.431-1.622-0.135 0.001-0.27 0.003-0.403 0.004M12.074 10.695c-0.010 0.402 0.031 0.809-0.039 1.208-0.153 0.122-0.293 0.112-0.422-0.032-0.050-0.39-0.015-0.784-0.023-1.177-0.081 0-0.243 0-0.325 0 0.006 0.409-0.024 0.82 0.019 1.228 0.158 0.49 0.997 0.474 1.095-0.045 0.041-0.393 0.012-0.789 0.017-1.183-0.081 0-0.241 0-0.322 0.001M12.715 10.649c0.159 0.281 0.334 0.554 0.512 0.825-0.176 0.272-0.35 0.545-0.508 0.829 0.377 0.065 0.545-0.236 0.707-0.51 0.104 0.162 0.209 0.323 0.317 0.484 0.089-0.003 0.267-0.008 0.356-0.012-0.168-0.263-0.338-0.525-0.508-0.787 0.168-0.263 0.338-0.524 0.508-0.785-0.090 0-0.271-0.003-0.361-0.003-0.104 0.157-0.208 0.314-0.309 0.472-0.149-0.294-0.345-0.556-0.714-0.515M4.16 13.861c0 0.525 0 1.050 0 1.575h0.313c0-0.322-0.003-0.643-0.001-0.965 0.146 0.344 0.284 0.692 0.448 1.028 0.162-0.343 0.305-0.694 0.454-1.043 0 0.327-0.001 0.653-0.001 0.981 0.080 0 0.237 0 0.317 0 0-0.525 0-1.050 0-1.575-0.107 0-0.32 0-0.427 0-0.114 0.275-0.227 0.549-0.339 0.825-0.113-0.275-0.223-0.549-0.334-0.825-0.108 0-0.322 0-0.43 0M6.201 13.905c-0.51 0.353-0.463 1.445 0.222 1.558 0.608 0.033 0.753-0.756 0.581-1.203-0.082-0.344-0.493-0.534-0.803-0.355M7.228 13.862c0.001 0.074 0.003 0.226 0.003 0.302 0.089 0 0.263 0 0.352 0 0 0.425 0 0.85 0 1.276 0.104 0 0.208 0.001 0.313 0.001 0-0.424 0-0.848 0-1.272 0.082-0.001 0.248-0.003 0.33-0.003 0-0.077-0.001-0.23-0.001-0.305-0.332 0-0.664-0.001-0.996 0.001M8.741 13.881c-0.542 0.318-0.522 1.376 0.115 1.573 1.023 0.146 0.916-1.933-0.115-1.573M10.401 15.441c0.268 0.009 0.371-0.257 0.486-0.447-0.214 0.040-0.422 0.109-0.638 0.145-0.311-0.276-0.248-0.805 0.069-1.051 0.162 0.172 0.356 0.237 0.584 0.196-0.14-0.223-0.327-0.493-0.634-0.444-0.81 0.105-0.724 1.675 0.132 1.6M10.936 13.861c0.252 0.495 0.57 0.991 0.479 1.575 0.073 0 0.219 0.001 0.293 0.001-0.092-0.585 0.222-1.082 0.477-1.576-0.083 0-0.249 0-0.331 0-0.095 0.199-0.19 0.397-0.284 0.594-0.099-0.198-0.199-0.397-0.298-0.594-0.085 0-0.253 0-0.336 0M12.418 13.959c-0.335 0.327-0.336 0.915-0.068 1.286 0.228 0.32 0.855 0.266 0.901-0.177 0.078 0.122 0.155 0.243 0.234 0.364 0.299 0.005 0.598 0.005 0.897 0.004 0-0.071 0-0.214 0.001-0.286-0.214 0-0.429 0-0.642 0 0-0.439-0.001-0.879-0.003-1.319-0.277-0.014-0.376 0.112-0.298 0.379-0.085-0.032-0.254-0.096-0.339-0.128l0.199-0.042c-0.264-0.127-0.62-0.323-0.883-0.080M14.558 13.862c0 0.526 0 1.052 0 1.579 0.107 0 0.213-0.001 0.32-0.001 0-0.526 0.001-1.054-0.001-1.58-0.080 0.001-0.239 0.003-0.318 0.003M15.080 14.255c-0.031 0.51 0.67 0.386 0.853 0.75-0.271 0.249-0.643-0.040-0.959 0.096 0.176 0.123 0.327 0.329 0.561 0.343 0.318 0.058 0.726-0.191 0.647-0.552-0.067-0.415-0.58-0.404-0.873-0.576 0.216-0.285 0.581-0.060 0.874-0.127-0.228-0.422-1.038-0.498-1.104 0.067M16.332 13.861c-0.001 0.076-0.003 0.226-0.004 0.3 0.090 0.001 0.268 0.003 0.357 0.003 0 0.426 0 0.851 0 1.277 0.077 0 0.232 0 0.311 0 0-0.425 0-0.848 0-1.272 0.082-0.001 0.248-0.003 0.331-0.004 0-0.076 0-0.228 0-0.304-0.332 0-0.664 0-0.995 0M17.462 13.861c0 0.525-0.001 1.050-0.001 1.575 0.347 0 0.692 0 1.038 0 0-0.072 0-0.218 0-0.291-0.239 0-0.477 0-0.716-0.001 0.001-0.119 0.003-0.239 0.004-0.358 0.125 0 0.375 0 0.501 0 0-0.072 0-0.218 0-0.291-0.126 0-0.376 0-0.502 0-0.001-0.113-0.001-0.227-0.001-0.34 0.228-0.001 0.457-0.001 0.685-0.001 0.001-0.073 0.003-0.218 0.003-0.291-0.336 0-0.674 0-1.010 0M18.661 14.385c0.148 0.335 0.571 0.341 0.846 0.53-0.14 0.409-0.637 0.054-0.934 0.159 0.232 0.474 1.093 0.527 1.196-0.054 0.055-0.484-0.512-0.527-0.83-0.679 0.081-0.377 0.531-0.064 0.78-0.101-0.128-0.58-1.17-0.495-1.058 0.145z"></path>
<path fill="#fff" d="M12.433 8.123c-0.003-0.19-0.004-0.379-0.005-0.567 0.112 0.013 0.334 0.041 0.445 0.055 0.087 0.313-0.128 0.513-0.44 0.512z"></path>
<path fill="#fff" d="M13.76 7.53c0.155 0.054 0.365 0.031 0.471 0.18 0.055 0.24 0.050 0.497-0.019 0.734-0.139 0.073-0.296 0.087-0.445 0.122-0.014-0.345-0.014-0.69-0.006-1.036z"></path>
<path fill="#fff" d="M10.152 11.693c0.056-0.2 0.113-0.402 0.172-0.602 0.050 0.2 0.1 0.4 0.15 0.601-0.081 0.001-0.241 0.001-0.322 0.001z"></path>
<path fill="#fff" d="M6.441 15.206c-0.395-0.271-0.357-0.969 0.103-1.158 0.234 0.336 0.38 0.965-0.103 1.158z"></path>
<path fill="#fff" d="M8.886 14.136c0.485-0.017 0.498 0.877 0.099 1.074-0.399-0.173-0.412-0.812-0.099-1.074z"></path>
<path fill="#fff" d="M12.702 15.148c-0.298-0.252-0.302-0.913 0.116-1.032 0.077 0.064 0.23 0.191 0.307 0.255l0.074-0.191c0.077 0.060 0.153 0.122 0.228 0.185 0.004 0.175 0.013 0.525 0.017 0.699-0.255-0.074-0.503-0.009-0.742 0.083z"></path>
<path fill="#060606" d="M12.109 7.256c0.343 0.032 0.825-0.099 1.020 0.28 0.178 0.271 0.001 0.566-0.166 0.789 0.086 0.173 0.172 0.347 0.257 0.521-0.085 0.001-0.253 0.005-0.336 0.006-0.118-0.205-0.235-0.422-0.439-0.556-0.008 0.139-0.022 0.415-0.030 0.553-0.077 0-0.231-0.001-0.308-0.001-0.001-0.531-0.001-1.063 0.001-1.593M12.433 8.123c0.312 0.001 0.527-0.199 0.44-0.512-0.112-0.014-0.334-0.042-0.445-0.055 0.001 0.189 0.003 0.377 0.005 0.567z"></path>
<path fill="#060606" d="M7.507 7.274c0.080 0 0.24 0.001 0.32 0.001 0 0.525 0.001 1.051-0.001 1.576-0.080 0.001-0.239 0.003-0.317 0.003-0.003-0.526-0.001-1.054-0.001-1.58z"></path>
<path fill="#060606" d="M8.206 7.272c0.099 0 0.296 0 0.395 0 0.139 0.276 0.275 0.552 0.413 0.828 0-0.276 0-0.552 0.001-0.828h0.311c-0.001 0.543 0.009 1.085-0.009 1.627-0.508-0.051-0.544-0.683-0.798-1.033-0.001 0.327 0 0.656-0.001 0.983-0.078 0-0.234 0.001-0.312 0.001 0-0.526 0-1.052 0-1.579z"></path>
<path fill="#060606" d="M9.604 7.273c0.331 0 0.664 0 0.995 0 0 0.077 0.001 0.228 0.001 0.304-0.083 0-0.249 0.001-0.332 0.001 0 0.425 0 0.85 0 1.276-0.078 0-0.232-0.001-0.311-0.001-0.001-0.425-0.001-0.851 0.001-1.277-0.089 0-0.266-0.003-0.354-0.004 0-0.074 0-0.225 0-0.299z"></path>
<path fill="#060606" d="M10.833 7.272c0.336 0 0.671 0 1.006 0 0 0.073 0 0.221 0 0.295-0.228-0.001-0.457 0-0.684 0 0 0.083 0.001 0.253 0.001 0.338 0.167 0 0.334 0 0.499 0 0.001 0.073 0.003 0.218 0.004 0.291-0.168 0.003-0.336 0.004-0.504 0.005 0 0.089 0.001 0.266 0.001 0.354 0.237 0 0.475 0 0.714 0-0.001 0.074-0.003 0.221-0.003 0.295-0.345 0-0.69 0-1.034-0.001-0.001-0.526 0-1.051 0-1.577z"></path>
<path fill="#060606" d="M13.43 7.258c0.347 0.037 0.802-0.104 1.050 0.221 0.193 0.311 0.15 0.721 0.062 1.061-0.196 0.422-0.739 0.287-1.111 0.316-0.003-0.533-0.001-1.065 0-1.598M13.76 7.53c-0.008 0.345-0.008 0.69 0.006 1.036 0.149-0.035 0.307-0.049 0.445-0.122 0.069-0.237 0.074-0.494 0.019-0.734-0.107-0.149-0.316-0.126-0.471-0.18z"></path>
<path fill="#060606" d="M14.877 7.274c0.080 0 0.237 0 0.316 0 0 0.526 0.001 1.054 0 1.58-0.080 0-0.236 0-0.314 0-0.001-0.526-0.001-1.054-0.001-1.58z"></path>
<path fill="#060606" d="M15.486 7.273c0.331 0 0.662 0 0.995 0 0 0.076 0 0.228 0.001 0.304-0.083 0-0.249 0.001-0.331 0.001 0 0.425 0.001 0.851-0.001 1.276-0.078 0-0.232-0.001-0.311-0.001-0.001-0.426-0.001-0.852 0-1.278-0.089 0-0.266-0.001-0.354-0.001 0-0.074 0-0.225 0.001-0.3z"></path>
<path fill="#060606" d="M10.111 10.687c0.133-0.001 0.268-0.003 0.403-0.004 0.148 0.539 0.303 1.077 0.431 1.622-0.213-0.027-0.386-0.131-0.479-0.334-0.294 0.027-0.515 0.237-0.77 0.362 0.1-0.558 0.273-1.099 0.415-1.647M10.152 11.693c0.081 0 0.241 0 0.322-0.001-0.050-0.2-0.1-0.4-0.15-0.601-0.059 0.2-0.115 0.402-0.172 0.602z"></path>
<path fill="#060606" d="M12.074 10.695c0.081-0.001 0.241-0.001 0.322-0.001-0.005 0.394 0.024 0.791-0.017 1.183-0.098 0.519-0.937 0.535-1.095 0.045-0.044-0.408-0.013-0.819-0.019-1.228 0.082 0 0.244 0 0.325 0 0.008 0.393-0.027 0.787 0.023 1.177 0.13 0.144 0.27 0.154 0.422 0.032 0.069-0.399 0.028-0.806 0.039-1.208z"></path>
<path fill="#060606" d="M12.715 10.649c0.368-0.041 0.565 0.221 0.714 0.515 0.101-0.158 0.205-0.316 0.309-0.472 0.090 0 0.271 0.003 0.361 0.003-0.171 0.262-0.34 0.522-0.508 0.785 0.171 0.262 0.34 0.524 0.508 0.787-0.089 0.004-0.267 0.009-0.355 0.012-0.108-0.16-0.213-0.322-0.317-0.484-0.162 0.273-0.33 0.575-0.707 0.51 0.158-0.284 0.332-0.557 0.508-0.829-0.178-0.271-0.353-0.544-0.512-0.825z"></path>
<path fill="#060606" d="M4.16 13.861c0.108 0 0.322 0 0.43 0 0.11 0.276 0.221 0.551 0.334 0.825 0.112-0.276 0.225-0.551 0.339-0.825 0.108 0 0.321 0 0.427 0 0 0.525 0 1.050 0 1.575-0.080 0-0.237 0-0.317 0 0-0.327 0.001-0.653 0.001-0.981-0.149 0.349-0.293 0.701-0.454 1.043-0.164-0.336-0.302-0.684-0.448-1.028-0.001 0.322 0.001 0.643 0.001 0.965h-0.313c0-0.525 0-1.050 0-1.575z"></path>
<path fill="#060606" d="M6.201 13.905c0.311-0.178 0.721 0.012 0.803 0.355 0.172 0.447 0.027 1.236-0.581 1.203-0.685-0.113-0.732-1.205-0.222-1.558M6.441 15.206c0.483-0.193 0.336-0.821 0.103-1.158-0.459 0.189-0.498 0.887-0.103 1.158z"></path>
<path fill="#060606" d="M7.228 13.862c0.332-0.003 0.664-0.001 0.996-0.001 0 0.076 0.001 0.228 0.001 0.305-0.082 0-0.248 0.001-0.33 0.003 0 0.424 0 0.848 0 1.272-0.105 0-0.209-0.001-0.313-0.001 0-0.426 0-0.851 0-1.276-0.089 0-0.263 0-0.352 0 0-0.076-0.001-0.227-0.003-0.302z"></path>
<path fill="#060606" d="M8.741 13.881c1.032-0.359 1.138 1.72 0.115 1.573-0.638-0.198-0.657-1.255-0.115-1.573M8.886 14.136c-0.313 0.262-0.3 0.901 0.099 1.074 0.399-0.198 0.386-1.091-0.099-1.074z"></path>
<path fill="#060606" d="M10.401 15.441c-0.856 0.074-0.942-1.495-0.132-1.6 0.307-0.049 0.494 0.221 0.634 0.444-0.228 0.041-0.422-0.024-0.584-0.196-0.317 0.246-0.38 0.775-0.069 1.051 0.216-0.036 0.424-0.105 0.638-0.145-0.116 0.19-0.218 0.456-0.486 0.447z"></path>
<path fill="#060606" d="M10.936 13.861c0.083 0 0.252 0 0.336 0 0.099 0.198 0.199 0.397 0.298 0.594 0.094-0.198 0.189-0.395 0.284-0.594 0.082 0 0.248 0 0.331 0-0.255 0.494-0.57 0.991-0.477 1.576-0.073 0-0.219-0.001-0.293-0.001 0.091-0.584-0.227-1.079-0.479-1.575z"></path>
<path fill="#060606" d="M12.418 13.959c0.263-0.244 0.619-0.047 0.883 0.080l-0.199 0.042c0.085 0.032 0.254 0.096 0.339 0.128-0.078-0.267 0.021-0.393 0.298-0.379 0.001 0.44 0.003 0.88 0.003 1.319 0.213 0 0.427 0 0.642 0-0.001 0.072-0.001 0.216-0.001 0.286-0.299 0.001-0.598 0.001-0.897-0.004-0.078-0.122-0.155-0.243-0.234-0.364-0.046 0.443-0.673 0.497-0.901 0.177-0.268-0.371-0.267-0.959 0.068-1.286M12.702 15.148c0.239-0.092 0.486-0.158 0.742-0.083-0.004-0.175-0.013-0.525-0.017-0.699-0.076-0.063-0.151-0.125-0.228-0.185l-0.074 0.191c-0.077-0.064-0.23-0.191-0.307-0.255-0.417 0.119-0.413 0.78-0.115 1.032z"></path>
<path fill="#060606" d="M14.558 13.862c0.080 0 0.239-0.001 0.318-0.003 0.003 0.526 0.001 1.054 0.001 1.58-0.107 0-0.213 0.001-0.32 0.001 0-0.526 0-1.052 0-1.579z"></path>
<path fill="#060606" d="M15.080 14.255c0.065-0.565 0.875-0.489 1.104-0.067-0.293 0.067-0.658-0.158-0.874 0.127 0.293 0.172 0.806 0.162 0.873 0.576 0.080 0.361-0.329 0.61-0.647 0.552-0.234-0.014-0.385-0.219-0.561-0.343 0.316-0.136 0.688 0.153 0.959-0.096-0.184-0.363-0.884-0.24-0.853-0.75z"></path>
<path fill="#060606" d="M16.332 13.861c0.331 0 0.662 0 0.995 0 0 0.076 0 0.228 0 0.304-0.083 0.001-0.249 0.003-0.331 0.004 0 0.424 0 0.847 0 1.272-0.078 0-0.234 0-0.311 0 0-0.426 0-0.851 0-1.277-0.089 0-0.267-0.001-0.357-0.003 0.001-0.074 0.003-0.225 0.004-0.3z"></path>
<path fill="#060606" d="M17.462 13.861c0.336 0 0.674 0 1.010 0 0 0.073-0.001 0.218-0.003 0.291-0.228 0-0.457 0-0.685 0.001 0 0.113 0 0.227 0.001 0.34 0.126 0 0.376 0 0.502 0 0 0.073 0 0.219 0 0.291-0.126 0-0.376 0-0.501 0-0.001 0.119-0.003 0.239-0.004 0.358 0.239 0.001 0.477 0.001 0.716 0.001 0 0.073 0 0.219 0 0.291-0.347 0-0.692 0-1.038 0 0-0.525 0.001-1.050 0.001-1.575z"></path>
<path fill="#060606" d="M18.661 14.385c-0.113-0.64 0.929-0.725 1.058-0.145-0.249 0.037-0.699-0.276-0.78 0.101 0.318 0.151 0.886 0.195 0.83 0.679-0.103 0.581-0.964 0.527-1.196 0.054 0.298-0.105 0.794 0.25 0.934-0.159-0.275-0.189-0.698-0.195-0.846-0.53z"></path>
</svg>
