<!-- Generated by IcoMoon.io -->
<svg version="1.1" xmlns="http://www.w3.org/2000/svg" width="24" height="24" viewBox="0 0 24 24">
<title>regulatory--turn-right-ahead--g1</title>
<path fill="#045ca1" d="M10.462 0h3.084c2.987 0.516 5.896 1.97 7.784 4.386 1.443 1.727 2.269 3.878 2.669 6.074v3.087c-0.516 2.987-1.97 5.896-4.386 7.784-1.729 1.443-3.88 2.271-6.076 2.669h-3.084c-2.987-0.516-5.895-1.97-7.784-4.386-1.443-1.729-2.272-3.88-2.669-6.078v-3.083c0.402-2.193 1.228-4.341 2.669-6.067 1.891-2.417 4.803-3.876 7.793-4.386M15.458 6.181c-1.565 0.12-3.181-0.157-4.698 0.357-3.166 0.916-5.57 3.998-5.596 7.308-0.008 2.499-0.007 4.998 0 7.497 0.866 0.008 1.731 0.008 2.598 0 0.022-2.455-0.022-4.913 0.022-7.369 0.022-2.087 1.425-4.062 3.38-4.789 1.337-0.539 2.8-0.307 4.201-0.327 0.003 0.864-0.016 1.726-0.009 2.59 2.292-1.269 4.602-2.508 6.891-3.782-2.254-1.404-4.514-2.796-6.761-4.208-0.028 0.907-0.012 1.815-0.028 2.723z"></path>
<path fill="#fff" d="M15.458 6.181c0.016-0.909 0-1.816 0.028-2.723 2.247 1.412 4.507 2.804 6.761 4.208-2.289 1.274-4.6 2.513-6.891 3.782-0.007-0.864 0.012-1.726 0.009-2.59-1.402 0.020-2.864-0.212-4.201 0.327-1.954 0.728-3.357 2.702-3.38 4.789-0.045 2.455 0 4.913-0.022 7.369-0.866 0.008-1.731 0.008-2.598 0-0.007-2.499-0.008-4.998 0-7.497 0.026-3.31 2.43-6.392 5.596-7.308 1.518-0.514 3.133-0.237 4.698-0.357z"></path>
</svg>
