<!-- Generated by IcoMoon.io -->
<svg version="1.1" xmlns="http://www.w3.org/2000/svg" width="24" height="24" viewBox="0 0 24 24">
<title>regulatory--end-of-mopeds-and-bicycles-only--g1</title>
<path fill="#f7fbf5" d="M10.767 0h2.439c4.453 0.477 8.524 3.547 10.054 7.777 0.378 0.963 0.557 1.985 0.74 2.997v2.443c-0.086 0.415-0.145 0.835-0.231 1.248 0.556-3.599-0.331-7.462-2.785-10.214-0.547-0.635-1.162-1.208-1.826-1.717-2.7-2.112-6.274-2.806-9.622-2.303 0.41-0.085 0.823-0.143 1.231-0.231z"></path>
<path fill="#f7fbf5" d="M9.773 4.023c0.318-0.579 1.081-0.365 1.62-0.41 0.001 0.253 0.003 0.506 0.004 0.759-0.337 0-0.674 0.003-1.010 0.004-0.127 0.29-0.25 0.579-0.374 0.87 0.453 0.013 0.907 0.022 1.359 0.037 0.206 0.333 0.447 0.648 0.595 1.013-0.033 0.522-0.301 0.999-0.447 1.497 0.147 0.203 0.295 0.407 0.447 0.608 0.437-0.001 0.875 0 1.313 0-0.247 0.249-0.496 0.496-0.742 0.743-0.423-0.027-0.969 0.068-1.229-0.359-0.592-0.863-1.084-1.793-1.668-2.663-0.104 0.244-0.214 0.488-0.316 0.733 1.094 0.75 1.39 2.439 0.417 3.407-0.963 1.11-2.956 0.813-3.56-0.524-0.608-1.131 0.025-2.551 1.153-3.057-0.021-0.11-0.060-0.331-0.081-0.442 0.284-0.046 0.571-0.064 0.857-0.093 0.074 0.258 0.284 0.433 0.526 0.528 0.39-0.879 0.694-1.797 1.135-2.652M6.723 9.050c0.162 1.054 1.586 1.544 2.366 0.822 0.73-0.582 0.634-1.735-0.053-2.309-0.222 0.45-0.37 0.935-0.627 1.367-0.133 0.271-0.61 0.297-0.644-0.056 0.141-0.55 0.421-1.053 0.603-1.591-0.96-0.091-1.877 0.792-1.643 1.767z"></path>
<path fill="#f7fbf5" d="M13.306 5.37c1.028-0.223 2.086-0.056 3.127-0.119-0.318 0.318-0.638 0.634-0.961 0.946-0.471 0.081-0.862 0.355-1.272 0.582-0.536-0.215-0.65-0.93-0.893-1.409z"></path>
<path fill="#f7fbf5" d="M13.771 7.883c0.235-0.466 0.592-0.857 1.070-1.079-0.337 0.378-0.697 0.736-1.070 1.079z"></path>
<path fill="#f7fbf5" d="M17.135 8.097c0.177-0.179 0.355-0.356 0.532-0.535 0.574 1.006 0.333 2.407-0.678 3.033-0.712 0.498-1.651 0.413-2.401 0.048 0.179-0.179 0.359-0.357 0.539-0.536 1.243 0.548 2.558-0.768 2.009-2.010z"></path>
<path fill="#f7fbf5" d="M13.024 12.386c0.74-0.042 1.482-0.035 2.223-0.025 0 0.111-0.001 0.33-0.001 0.44-0.209 0.010-0.416 0.022-0.625 0.034-0.443 0.638 0.104 1.278 0.364 1.865 1.158-0.275 2.49 0.29 2.897 1.452 0.56 1.333-0.404 2.991-1.835 3.167-1.311 0.25-2.527-0.785-2.751-2.048-0.355 0-0.71 0-1.063 0.001-0.682-0.745-1.345-1.507-2.010-2.264 0.133-0.134 0.266-0.267 0.399-0.4 0.552 0.633 1.111 1.26 1.673 1.885 0.43-0.899 0.853-1.8 1.267-2.707-0.707-0.005-1.415-0.005-2.122 0.001 0.2-0.198 0.402-0.395 0.601-0.593 0.595 0.008 1.191 0.009 1.786 0.004 0.073-0.12 0.143-0.24 0.213-0.361-0.339-0.014-0.678-0.033-1.017-0.052 0.001-0.099 0.003-0.299 0.003-0.398M12.841 16.694c0.119 0 0.356 0.001 0.473 0.001 0.138-0.716 0.549-1.345 1.152-1.756-0.136-0.287-0.271-0.573-0.407-0.858-0.402 0.873-0.818 1.739-1.218 2.613M15.237 15.24c0.22 0.532 0.506 1.036 0.708 1.576 0.074 0.147 0.050 0.427-0.164 0.421-0.626 0.078-1.26 0.012-1.889 0.038 0.198 0.853 0.978 1.569 1.886 1.486 1.126-0.022 1.975-1.277 1.582-2.331-0.269-0.884-1.244-1.351-2.123-1.19M13.899 16.688c0.46 0.010 0.921 0.009 1.381 0.007-0.187-0.412-0.377-0.822-0.579-1.226-0.382 0.321-0.667 0.737-0.802 1.22z"></path>
<path fill="#f7fbf5" d="M9.554 15.674c0.136-0.138 0.274-0.274 0.411-0.411 0.897 0.923 0.96 2.537-0.018 3.425-0.901 0.922-2.455 0.822-3.359-0.046 0.134-0.137 0.27-0.273 0.404-0.408 0.699 0.629 1.855 0.745 2.543 0.038 0.754-0.674 0.681-1.886 0.018-2.598z"></path>
<path fill="#f7fbf5" d="M8.030 17.211c0.307-0.312 0.618-0.618 0.933-0.922-0.125 0.359-0.244 0.719-0.377 1.075-0.185-0.050-0.37-0.1-0.556-0.153z"></path>
<path fill="#0e518d" d="M9.536 0.231c3.348-0.502 6.922 0.192 9.622 2.303-0.92 0.895-1.817 1.812-2.726 2.717-1.041 0.063-2.099-0.104-3.127 0.119 0.244 0.479 0.357 1.193 0.893 1.409 0.41-0.227 0.801-0.501 1.272-0.582-0.207 0.205-0.413 0.412-0.63 0.608-0.477 0.222-0.835 0.613-1.070 1.079-0.16 0.175-0.323 0.348-0.49 0.518-0.438 0-0.877-0.001-1.313 0-0.153-0.201-0.3-0.404-0.447-0.608 0.146-0.498 0.415-0.976 0.447-1.497-0.147-0.365-0.389-0.681-0.595-1.013-0.453-0.014-0.907-0.023-1.359-0.037 0.124-0.291 0.248-0.58 0.374-0.87 0.335-0.001 0.673-0.004 1.010-0.004-0.001-0.253-0.003-0.506-0.004-0.759-0.539 0.044-1.302-0.17-1.62 0.41-0.441 0.854-0.745 1.773-1.135 2.652-0.241-0.095-0.451-0.27-0.526-0.528-0.286 0.029-0.573 0.047-0.857 0.093 0.021 0.111 0.060 0.333 0.081 0.442-1.128 0.506-1.761 1.927-1.153 3.057 0.604 1.337 2.597 1.634 3.56 0.524 0.973-0.968 0.677-2.657-0.417-3.407 0.102-0.245 0.211-0.489 0.316-0.733 0.584 0.87 1.076 1.8 1.668 2.663 0.26 0.427 0.806 0.331 1.229 0.359-3.372 3.376-6.757 6.738-10.115 10.127-1.35-1.739-2.116-3.861-2.423-6.027v-2.48c0.537-5.061 4.495-9.595 9.536-10.534z"></path>
<path fill="#0e518d" d="M17.667 7.563c1.103-1.106 2.204-2.215 3.317-3.312 2.453 2.752 3.34 6.616 2.785 10.214-0.939 5.039-5.469 8.992-10.525 9.535h-2.481c-2.422-0.329-4.78-1.278-6.626-2.903 0.811-0.823 1.633-1.637 2.451-2.453 0.904 0.867 2.457 0.968 3.359 0.046 0.978-0.888 0.916-2.502 0.018-3.425 0.086-0.085 0.171-0.171 0.257-0.256 0.665 0.758 1.328 1.52 2.010 2.264 0.353-0.001 0.708-0.001 1.063-0.001 0.224 1.263 1.44 2.298 2.751 2.048 1.431-0.176 2.395-1.834 1.835-3.167-0.407-1.162-1.739-1.727-2.897-1.452-0.26-0.587-0.807-1.227-0.364-1.865 0.209-0.012 0.416-0.023 0.625-0.034 0-0.11 0.001-0.329 0.001-0.44-0.741-0.010-1.483-0.017-2.223 0.025 0 0.099-0.001 0.299-0.003 0.398 0.339 0.020 0.678 0.038 1.017 0.052-0.069 0.121-0.14 0.241-0.213 0.361-0.595 0.005-1.191 0.004-1.786-0.004 0.845-0.854 1.694-1.705 2.547-2.55 0.75 0.365 1.689 0.45 2.401-0.048 1.011-0.626 1.252-2.027 0.678-3.033z"></path>
<path fill="#0e518d" d="M6.723 9.050c-0.233-0.976 0.683-1.859 1.643-1.767-0.181 0.539-0.462 1.041-0.603 1.591 0.034 0.353 0.511 0.327 0.644 0.056 0.257-0.432 0.406-0.917 0.627-1.367 0.687 0.574 0.784 1.727 0.053 2.309-0.78 0.723-2.204 0.232-2.366-0.822z"></path>
<path fill="#0e518d" d="M15.127 10.107c0.665-0.674 1.334-1.343 2.009-2.010 0.549 1.242-0.766 2.558-2.009 2.010z"></path>
<path fill="#0e518d" d="M10.621 14.607c0.271-0.274 0.544-0.548 0.818-0.82 0.707-0.007 1.415-0.007 2.122-0.001-0.413 0.907-0.836 1.808-1.267 2.707-0.562-0.625-1.122-1.252-1.673-1.885z"></path>
<path fill="#0e518d" d="M12.841 16.694c0.4-0.874 0.817-1.74 1.218-2.613 0.136 0.286 0.271 0.571 0.407 0.858-0.603 0.411-1.013 1.040-1.152 1.756-0.117 0-0.355-0.001-0.473-0.001z"></path>
<path fill="#0e518d" d="M15.237 15.24c0.879-0.162 1.855 0.305 2.123 1.19 0.393 1.054-0.457 2.309-1.582 2.331-0.908 0.083-1.688-0.633-1.886-1.486 0.629-0.026 1.263 0.040 1.889-0.038 0.214 0.005 0.239-0.274 0.164-0.421-0.202-0.54-0.488-1.043-0.708-1.576z"></path>
<path fill="#0e518d" d="M13.899 16.688c0.136-0.483 0.42-0.899 0.802-1.22 0.202 0.404 0.393 0.814 0.579 1.226-0.46 0.003-0.921 0.004-1.381-0.007z"></path>
<path fill="#0e518d" d="M8.962 16.289c0.192-0.21 0.393-0.412 0.592-0.614 0.663 0.712 0.736 1.924-0.018 2.598-0.689 0.707-1.844 0.591-2.543-0.038 0.342-0.344 0.691-0.682 1.037-1.024 0.185 0.052 0.37 0.103 0.556 0.153 0.133-0.356 0.252-0.716 0.377-1.075z"></path>
<path fill="#c1121c" d="M16.432 5.251c0.909-0.905 1.807-1.822 2.726-2.717 0.664 0.509 1.28 1.081 1.826 1.717-1.113 1.097-2.213 2.206-3.317 3.312-0.177 0.179-0.355 0.356-0.532 0.535-0.674 0.667-1.343 1.336-2.009 2.010-0.18 0.179-0.36 0.357-0.539 0.536-0.853 0.845-1.702 1.696-2.547 2.55-0.2 0.198-0.402 0.395-0.601 0.593-0.274 0.273-0.547 0.547-0.818 0.82-0.133 0.133-0.266 0.266-0.399 0.4-0.086 0.085-0.171 0.171-0.257 0.256-0.137 0.137-0.275 0.273-0.411 0.411-0.2 0.202-0.4 0.404-0.592 0.614-0.314 0.304-0.626 0.61-0.933 0.922-0.346 0.342-0.695 0.68-1.037 1.024-0.134 0.136-0.27 0.271-0.404 0.408-0.818 0.817-1.64 1.63-2.451 2.453-0.637-0.543-1.205-1.161-1.714-1.825 3.359-3.389 6.743-6.751 10.115-10.127 0.247-0.248 0.496-0.494 0.742-0.743 0.167-0.17 0.33-0.343 0.49-0.518 0.373-0.343 0.733-0.7 1.070-1.079 0.217-0.196 0.423-0.403 0.63-0.608 0.323-0.312 0.643-0.627 0.961-0.946z"></path>
</svg>
