<!-- Generated by IcoMoon.io -->
<svg version="1.1" xmlns="http://www.w3.org/2000/svg" width="24" height="24" viewBox="0 0 24 24">
<title>regulatory--night-speed-limit-80--g1</title>
<path fill="#fff" d="M0.913 0h22.172c0.447 0.101 0.814 0.468 0.915 0.915v22.168c-0.1 0.449-0.467 0.815-0.915 0.917h-22.169c-0.447-0.101-0.813-0.466-0.916-0.913v-22.173c0.101-0.447 0.467-0.812 0.913-0.914M1.566 0.587c-0.558 0.059-1.007 0.584-0.991 1.143-0.001 6.846-0.001 13.693 0 20.539-0.022 0.639 0.566 1.199 1.203 1.155 6.831-0.001 13.661 0.001 20.492-0.001 0.62 0.021 1.175-0.534 1.155-1.155 0.001-6.847 0.001-13.693 0-20.54 0.007-0.442-0.263-0.875-0.67-1.052-0.255-0.122-0.543-0.104-0.817-0.103-6.625 0-13.25 0-19.875 0-0.165 0.001-0.332-0.007-0.496 0.013z"></path>
<path fill="#fff" d="M10.478 4.005c0.514-0.678 1.703-0.592 2.082 0.184-0.167 0.098-0.334 0.196-0.504 0.291-0.201-0.404-0.788-0.525-1.099-0.181-0.374 0.476-0.378 1.236 0 1.71 0.332 0.394 1.108 0.193 1.074-0.368-0.18-0.001-0.361-0-0.541-0.003-0.001-0.175-0.001-0.35-0.001-0.525 0.372-0 0.743 0.003 1.115-0.002-0.002 0.413 0.037 0.869-0.228 1.22-0.473 0.645-1.582 0.549-1.993-0.118-0.405-0.662-0.386-1.589 0.095-2.208z"></path>
<path fill="#fff" d="M4.662 3.614c0.181 0.001 0.362 0.001 0.543 0 0.439 0.683 0.89 1.359 1.318 2.049-0.006-0.683 0.002-1.367-0.004-2.050 0.186 0.003 0.372 0.003 0.558-0-0.005 1.035-0.002 2.071-0.001 3.106-0.168 0-0.336 0-0.504 0-0.451-0.701-0.924-1.389-1.357-2.102 0.016 0.7 0.004 1.401 0.007 2.101-0.186 0.001-0.372 0.001-0.557 0-0.003-1.035 0-2.070-0.001-3.105z"></path>
<path fill="#fff" d="M8.351 3.615c0.191 0 0.382 0 0.572 0-0.002 1.035 0 2.069-0.001 3.104-0.19 0.001-0.38 0.002-0.57-0.002-0.001-1.034-0.001-2.068-0-3.102z"></path>
<path fill="#fff" d="M13.74 3.612c0.188 0.004 0.375 0.003 0.563 0 0.002 0.413-0 0.827 0.001 1.24 0.431-0.005 0.862 0.010 1.293-0.007 0.050-0.395 0.019-0.825 0.013-1.233 0.185 0.002 0.37 0.001 0.556 0.001 0 1.034 0.001 2.068-0 3.102-0.183 0.003-0.366 0.002-0.549 0.003 0.009-0.44 0-0.88 0.006-1.32-0.439-0.028-0.879-0.007-1.318-0.013-0.001 0.443 0.001 0.887-0.001 1.331-0.187 0.001-0.374 0.001-0.561 0 0-1.035 0.004-2.071-0.002-3.106z"></path>
<path fill="#fff" d="M17.215 3.598c0.767-0.002 1.534-0.001 2.301-0 0.001 0.181 0.001 0.362 0 0.543-0.288 0.001-0.577 0-0.865 0.001-0.001 0.859 0 1.718-0 2.577-0.188 0.001-0.376 0.001-0.563 0-0.001-0.859 0-1.718-0.001-2.578-0.291-0-0.581 0.001-0.871-0.001-0.001-0.18-0.001-0.361 0-0.542z"></path>
<path fill="#fff" d="M3.896 10.364c0.542-0.587 1.328-0.894 2.112-0.975 0.949-0.094 1.966 0.035 2.766 0.59 1.117 0.73 1.497 2.359 0.82 3.507-0.232 0.397-0.583 0.711-0.974 0.945 0.722 0.358 1.345 0.967 1.599 1.745 0.374 1.169 0.046 2.558-0.877 3.385-1.045 0.939-2.581 1.125-3.914 0.838-0.702-0.16-1.372-0.508-1.858-1.046-0.751-0.824-0.995-2.051-0.689-3.113 0.235-0.806 0.878-1.436 1.623-1.791-0.527-0.311-0.975-0.786-1.171-1.374-0.304-0.915-0.104-2.001 0.563-2.709M6.203 11.129c-0.389 0.061-0.776 0.266-0.971 0.619-0.289 0.511-0.131 1.222 0.356 1.554 0.608 0.422 1.519 0.391 2.073-0.111 0.453-0.406 0.507-1.18 0.090-1.63-0.384-0.421-1.008-0.516-1.548-0.432M6.203 15.393c-0.541 0.075-1.060 0.389-1.324 0.875-0.393 0.699-0.212 1.693 0.471 2.145 0.761 0.505 1.872 0.468 2.576-0.126 0.609-0.514 0.709-1.493 0.248-2.135-0.428-0.623-1.245-0.876-1.971-0.759z"></path>
<path fill="#fff" d="M16.566 9.397c0.763-0.098 1.568-0.026 2.26 0.326 0.655 0.328 1.166 0.898 1.497 1.544 0.448 0.861 0.639 1.831 0.717 2.791 0.084 1.242 0.010 2.512-0.371 3.703-0.284 0.875-0.783 1.721-1.571 2.229-1.307 0.812-3.189 0.715-4.326-0.358-1.114-1.086-1.433-2.713-1.506-4.208-0.047-1.619 0.13-3.362 1.1-4.716 0.514-0.714 1.326-1.2 2.199-1.312M16.848 11.189c-0.607 0.098-1.046 0.613-1.261 1.16-0.409 1.016-0.429 2.136-0.393 3.215 0.075 0.908 0.195 1.893 0.796 2.621 0.54 0.666 1.652 0.713 2.254 0.108 0.506-0.501 0.697-1.223 0.815-1.904 0.146-0.99 0.144-2.005-0.014-2.994-0.117-0.645-0.309-1.32-0.784-1.798-0.362-0.368-0.914-0.502-1.414-0.407z"></path>
<path fill="#000" d="M1.566 0.587c0.165-0.020 0.331-0.011 0.496-0.013 6.625 0 13.25 0 19.875 0 0.274-0 0.563-0.019 0.817 0.103 0.407 0.178 0.677 0.61 0.67 1.052 0.001 6.847 0.001 13.693 0 20.54 0.021 0.62-0.534 1.175-1.155 1.155-6.831 0.002-13.661-0-20.492 0.001-0.637 0.044-1.225-0.516-1.203-1.155-0.001-6.847-0.001-13.693 0-20.539-0.016-0.56 0.433-1.084 0.991-1.143M10.478 4.005c-0.481 0.62-0.501 1.546-0.095 2.208 0.411 0.667 1.521 0.762 1.993 0.118 0.264-0.351 0.226-0.806 0.228-1.22-0.372 0.005-0.743 0.002-1.115 0.002-0 0.175-0 0.35 0.001 0.525 0.18 0.002 0.361 0.002 0.541 0.003 0.034 0.562-0.742 0.762-1.074 0.368-0.378-0.474-0.374-1.234 0-1.71 0.311-0.345 0.898-0.223 1.099 0.181 0.17-0.095 0.337-0.193 0.504-0.291-0.38-0.776-1.568-0.863-2.082-0.184M4.662 3.614c0.002 1.035-0.001 2.070 0.001 3.105 0.186 0.001 0.372 0.001 0.557 0-0.003-0.7 0.009-1.401-0.007-2.101 0.433 0.713 0.906 1.401 1.357 2.102 0.168 0 0.336 0 0.504 0-0-1.035-0.004-2.071 0.001-3.106-0.186 0.004-0.372 0.003-0.558 0 0.006 0.683-0.001 1.367 0.004 2.050-0.428-0.69-0.878-1.366-1.318-2.049-0.181 0.001-0.362 0.001-0.543 0M8.351 3.615c-0 1.034-0.001 2.068 0 3.102 0.19 0.004 0.38 0.003 0.57 0.002 0.002-1.035-0-2.069 0.001-3.104-0.191 0-0.382 0-0.572 0M13.74 3.612c0.006 1.035 0.002 2.071 0.002 3.106 0.187 0 0.374 0 0.561-0 0.002-0.443 0-0.887 0.001-1.331 0.439 0.006 0.879-0.015 1.318 0.013-0.006 0.44 0.003 0.88-0.006 1.32 0.183-0.001 0.366 0 0.549-0.003 0.001-1.034 0-2.068 0-3.102-0.186 0-0.371 0.001-0.556-0.001 0.007 0.408 0.037 0.838-0.013 1.233-0.431 0.016-0.862 0.002-1.293 0.007-0.002-0.413 0.001-0.827-0.001-1.24-0.188 0.003-0.375 0.003-0.563-0M17.215 3.598c-0.002 0.181-0.002 0.361-0 0.542 0.29 0.002 0.581 0 0.871 0.001 0.001 0.859-0 1.718 0.001 2.578 0.188 0.001 0.375 0.001 0.563-0 0-0.859-0-1.718 0-2.577 0.288-0.001 0.577 0 0.865-0.001 0.001-0.181 0.001-0.362 0-0.543-0.767-0-1.534-0.001-2.301 0M3.896 10.364c-0.667 0.709-0.867 1.794-0.563 2.709 0.196 0.588 0.644 1.063 1.171 1.374-0.745 0.355-1.388 0.985-1.623 1.791-0.306 1.062-0.062 2.29 0.689 3.113 0.485 0.539 1.156 0.886 1.858 1.046 1.333 0.287 2.869 0.102 3.914-0.838 0.922-0.827 1.25-2.217 0.877-3.385-0.254-0.778-0.877-1.388-1.599-1.745 0.39-0.235 0.742-0.549 0.974-0.945 0.677-1.148 0.297-2.777-0.82-3.507-0.799-0.555-1.817-0.684-2.766-0.59-0.783 0.081-1.57 0.388-2.112 0.975M16.566 9.397c-0.873 0.112-1.685 0.597-2.199 1.312-0.969 1.354-1.147 3.097-1.1 4.716 0.073 1.495 0.391 3.122 1.506 4.208 1.137 1.072 3.019 1.17 4.326 0.358 0.788-0.508 1.288-1.354 1.571-2.229 0.382-1.192 0.455-2.461 0.371-3.703-0.078-0.96-0.269-1.93-0.717-2.791-0.331-0.646-0.842-1.216-1.497-1.544-0.693-0.352-1.498-0.424-2.26-0.326z"></path>
<path fill="#000" d="M6.203 11.129c0.54-0.084 1.163 0.011 1.548 0.432 0.417 0.45 0.363 1.224-0.090 1.63-0.554 0.502-1.465 0.533-2.073 0.111-0.488-0.332-0.645-1.043-0.356-1.554 0.195-0.353 0.583-0.558 0.971-0.619z"></path>
<path fill="#000" d="M16.848 11.189c0.5-0.095 1.052 0.039 1.414 0.407 0.474 0.477 0.667 1.153 0.784 1.798 0.158 0.989 0.159 2.004 0.014 2.994-0.118 0.681-0.309 1.403-0.815 1.904-0.602 0.605-1.715 0.558-2.254-0.108-0.601-0.728-0.721-1.712-0.796-2.621-0.036-1.079-0.015-2.198 0.393-3.215 0.215-0.547 0.653-1.062 1.261-1.16z"></path>
<path fill="#000" d="M6.203 15.393c0.726-0.116 1.543 0.136 1.971 0.759 0.461 0.642 0.361 1.621-0.248 2.135-0.704 0.594-1.815 0.631-2.576 0.126-0.683-0.453-0.864-1.446-0.471-2.145 0.264-0.487 0.783-0.8 1.324-0.875z"></path>
</svg>
