<svg xmlns="http://www.w3.org/2000/svg" width="24" height="24">
    <path fill="#c50000" d="M11.084 0h1.792c1.052.169 2.117.311 3.122.683 3.38 1.166 6.155 3.932 7.328 7.312.347.928.494 1.909.673 2.879v2.23c-.421 4.064-2.936 7.874-6.644 9.653-1.318.683-2.772 1.022-4.23 1.244h-2.232c-2.753-.34-5.432-1.512-7.384-3.51-2.039-2-3.212-4.751-3.51-7.571v-1.792c.185-1.237.395-2.483.888-3.64C2.232 4.1 5.219 1.424 8.734.457 9.501.229 10.3.146 11.084 0zm.003 2.338a9.735 9.735 0 0 0-6.626 3.559c-2.54 3.049-2.875 7.692-.8 11.074 1.793 3.085 5.389 4.993 8.95 4.733 3.672-.179 7.086-2.665 8.419-6.085 1.134-2.796.864-6.116-.733-8.68-1.866-3.125-5.592-4.979-9.209-4.601z"/>
    <path fill="#fff" d="M11.087 2.338c3.617-.378 7.343 1.476 9.209 4.601 1.597 2.563 1.867 5.884.733 8.68-1.333 3.42-4.747 5.906-8.419 6.085-3.56.26-7.157-1.648-8.95-4.733-2.075-3.382-1.74-8.024.8-11.074a9.735 9.735 0 0 1 6.626-3.559zM8.044 8.887c-.212.217-.078.619.233.643.437-.064.852-.224 1.278-.334.004 3.174 0 6.348.002 9.522.668.002 1.337.002 2.006 0 .017-.662-.034-1.328.023-1.988.319-1.694 2.072-2.902 3.769-2.663-.113.467-.32.916-.362 1.397.061.299.452.413.673.21 1.214-.826 2.42-1.664 3.63-2.498-1.235-.875-2.453-1.774-3.704-2.624-.246-.204-.666.056-.592.365.089.431.252.842.372 1.265a5.152 5.152 0 0 0-3.809 1.153c.002-1.374-.002-2.747.002-4.12.425.108.835.29 1.273.343.313-.026.443-.437.232-.658-.818-1.207-1.648-2.407-2.477-3.607-.854 1.195-1.708 2.39-2.55 3.594z"/>
    <path d="M8.044 8.887c.842-1.204 1.696-2.399 2.55-3.594.829 1.2 1.658 2.4 2.477 3.607.211.221.082.631-.232.658-.438-.053-.848-.235-1.273-.343-.005 1.373 0 2.746-.002 4.12a5.152 5.152 0 0 1 3.809-1.153c-.12-.422-.283-.834-.372-1.265-.074-.308.346-.569.592-.365 1.252.851 2.47 1.75 3.704 2.624-1.21.834-2.416 1.673-3.63 2.498-.221.203-.612.089-.673-.21.042-.481.25-.93.362-1.397-1.697-.239-3.45.968-3.769 2.663-.056.66-.006 1.326-.023 1.988-.67.002-1.338.002-2.006 0-.002-3.174.001-6.348-.002-9.522-.426.109-.841.27-1.278.334-.311-.024-.445-.426-.233-.643z"/>
</svg>
