<?xml version="1.0" encoding="utf-8"?>
<!-- Generated by IcoMoon.io -->
<!DOCTYPE svg PUBLIC "-//W3C//DTD SVG 1.1//EN" "http://www.w3.org/Graphics/SVG/1.1/DTD/svg11.dtd">
<svg version="1.1" xmlns="http://www.w3.org/2000/svg" xmlns:xlink="http://www.w3.org/1999/xlink" width="24" height="24" viewBox="0 0 24 24">
<path fill="#fffffe" d="M0 2.958h1.356c-0.559 0.153-0.951 0.625-1.24 1.101-0.005 0.111-0.016 0.221-0.019 0.332-0.002 5.073-0.001 10.146-0.002 15.219-0.009 0.283 0.136 0.538 0.282 0.77 0.209 0.329 0.552 0.569 0.929 0.662h-1.305v-18.084z"></path>
<path fill="#fffffe" d="M22.748 2.958h1.252v0.861c-0.031 0.061-0.060 0.122-0.089 0.183-0.013-0.065-0.034-0.131-0.005-0.196-0.113-0.057-0.165-0.178-0.252-0.264-0.204-0.203-0.473-0.321-0.699-0.497-0.060-0.048-0.132-0.073-0.206-0.087z"></path>
<path fill="#fffffe" d="M1.317 3.138c0.133-0.021 0.267-0.041 0.402-0.044 6.887-0.001 13.774 0 20.661-0 0.383-0.005 0.771 0.121 1.044 0.396 0.237 0.258 0.429 0.586 0.428 0.946-0.002 5.060 0 10.119-0.001 15.178-0.033 0.491-0.357 0.957-0.803 1.166-0.201 0.114-0.441 0.119-0.666 0.136-6.808 0-13.616-0-20.423 0-0.241 0.007-0.484-0.009-0.72-0.062-0.459-0.144-0.814-0.54-0.945-0.998-0.056-0.188-0.034-0.385-0.037-0.577-0-4.898 0.001-9.796-0-14.694-0.052-0.65 0.427-1.302 1.062-1.446M1.637 3.411c-0.262 0.005-0.533 0.083-0.717 0.279-0.217 0.262-0.347 0.596-0.349 0.938-0.004 4.946 0.003 9.893-0.003 14.839 0.013 0.234 0.049 0.48 0.197 0.671 0.127 0.202 0.347 0.322 0.572 0.385 0.326 0.084 0.666 0.072 1 0.079 6.616 0 13.233 0 19.85 0 0.334-0.001 0.687-0.057 0.956-0.271 0.203-0.189 0.383-0.436 0.398-0.722-0.005-5.055-0-10.11-0.002-15.165-0.008-0.291-0.175-0.547-0.367-0.753-0.128-0.148-0.324-0.203-0.506-0.253-0.517-0.111-1.048-0.036-1.572-0.031-6.485 0.004-12.971-0.005-19.455 0.005z"></path>
<path fill="#fffffe" d="M1.498 4.031c0.148-0.047 0.305-0.028 0.457-0.032 6.775 0 13.551 0 20.327 0 0.161 0.001 0.34 0.001 0.472 0.108 0.143 0.167 0.258 0.387 0.19 0.612-0 2.403 0 4.806 0 7.208-0.003 2.561 0.012 5.122 0.003 7.682-0.036 0.147-0.164 0.253-0.286 0.333-0.264 0.063-0.538 0.065-0.807 0.063-2.863-0-5.727 0-8.59 0-0.302 0.019-0.604 0.018-0.906 0-3.529 0-7.059-0-10.588 0-0.179 0.001-0.391-0.032-0.492-0.199-0.080-0.146-0.113-0.316-0.115-0.481 0.003-4.899-0.001-9.798 0.002-14.696-0.002-0.235 0.068-0.541 0.334-0.6M1.852 6.406c0.839 1.068 1.698 2.121 2.543 3.186 0.159 0.229 0.576 0.141 0.616-0.142 0.027-0.376-0.007-0.755 0.018-1.132 0.398 0.104 0.805 0.206 1.156 0.431 1.107 0.633 1.831 1.899 1.783 3.178-0.001 0.786 0 1.572-0 2.358 0.578 0.001 1.157 0 1.735 0 0.003-0.674 0.006-1.349 0.010-2.023 0.019-0.814-0.066-1.648-0.373-2.408-0.397-0.942-1.041-1.785-1.882-2.373-0.561-0.445-1.256-0.658-1.933-0.856 0.192-0.297 0.402-0.583 0.598-0.877 0.063-0.1 0.12-0.232 0.066-0.347-0.089-0.155-0.277-0.285-0.459-0.208-1.294 0.401-2.583 0.814-3.877 1.214M16.702 5.454c-1.034 0.322-2.073 0.633-3.102 0.971 0.835 1.15 1.791 2.205 2.654 3.334 0.102-0.003 0.205 0 0.307-0.006 0.14-0.028 0.197-0.185 0.206-0.311 0.016-0.361 0.003-0.722 0.009-1.083 0.719 0.14 1.425 0.453 1.934 0.991 0.5 0.495 0.852 1.142 0.999 1.829 0.012 0.008 0.036 0.024 0.049 0.032 0.062 1.063 0.017 2.128 0.031 3.193 0.584 0.012 1.167 0.002 1.751 0.005-0.007-0.907 0.011-1.815-0.025-2.721 0.013-0.57-0.105-1.137-0.303-1.67-0.443-1.198-1.364-2.181-2.465-2.808-0.392-0.21-0.814-0.359-1.236-0.496-0.027-0.006-0.080-0.017-0.106-0.022-0.037-0.019-0.074-0.038-0.112-0.056 0.185-0.253 0.345-0.523 0.537-0.772 0.071-0.105 0.139-0.216 0.171-0.339 0-0.196-0.208-0.356-0.398-0.321-0.305 0.060-0.6 0.165-0.899 0.25M12.508 9.739c0 3.423-0.001 6.845 0 10.268 0.196 0.006 0.392 0.002 0.587 0.004 0.016-3.423 0-6.846 0.008-10.269-0.198-0.004-0.397-0.002-0.596-0.002M2.6 15.444c-0.15 0.052-0.292 0.144-0.394 0.266-0.481 0.738-0.488 1.731-0.098 2.509 0.134 0.219 0.35 0.412 0.614 0.445 0.344 0.062 0.745 0.013 0.983-0.267 0.407-0.569 0.471-1.314 0.325-1.982-0.076-0.292-0.167-0.606-0.409-0.804-0.269-0.261-0.682-0.246-1.021-0.166M4.605 15.449c-0.001 1.061 0 2.122-0.001 3.183 0.17 0 0.341 0 0.511 0 0-0.711-0.001-1.422 0-2.133 0.43 0.697 0.8 1.433 1.22 2.137 0.148-0.005 0.295-0.004 0.443-0.005-0.001-1.061 0-2.121-0-3.182-0.166-0-0.332-0-0.498 0-0.001 0.673-0 1.346-0 2.020-0.4-0.667-0.773-1.35-1.167-2.021-0.169 0.002-0.338 0.001-0.508 0.001M7.349 15.45c0.004 1.062-0.008 2.125 0.006 3.187 0.656-0.012 1.312 0.003 1.968-0.008-0.002-0.153-0.002-0.306-0.002-0.459-0.491-0.001-0.983 0.003-1.474-0.002 0.003-0.906 0.002-1.812 0-2.719-0.166 0.001-0.332 0.001-0.498 0.001M9.385 15.451c0.315 0.514 0.641 1.021 0.96 1.531 0.054 0.094 0.131 0.179 0.161 0.286 0.012 0.457-0.011 0.914 0.011 1.37 0.161-0.009 0.323-0.008 0.484-0.001 0.013-0.408 0.004-0.816 0.005-1.224 0.004-0.073-0.012-0.155 0.032-0.219 0.355-0.582 0.72-1.157 1.068-1.743-0.19-0.001-0.38 0.002-0.57-0.003-0.271 0.4-0.507 0.824-0.786 1.219-0.255-0.407-0.509-0.816-0.771-1.218-0.198 0.004-0.397 0-0.595 0.004M13.943 15.806c-0.322 0.521-0.379 1.157-0.296 1.753 0.032 0.063 0.037 0.133 0.034 0.203 0.007 0.004 0.021 0.014 0.029 0.018 0.063 0.193 0.108 0.403 0.248 0.559 0.352 0.467 1.237 0.404 1.454-0.165 0.332-0.65 0.31-1.437 0.056-2.109-0.105-0.281-0.353-0.532-0.661-0.567-0.314-0.035-0.671 0.037-0.865 0.308M18.596 15.543c-0.012 1.014 0.004 2.029-0.008 3.043 0.59 0.009 1.179-0.001 1.769 0.005 0-0.145 0-0.289 0-0.434-0.437 0.004-0.873-0.001-1.309 0.003-0.003-0.822-0.002-1.643 0-2.465-0.006-0.051 0.016-0.118-0.039-0.148-0.138-0.010-0.276-0.001-0.414-0.003M16.113 15.543c-0.006 1.015 0.001 2.030-0.004 3.045 0.155 0.002 0.309 0.002 0.464 0.001-0.003-0.68-0.002-1.36-0-2.040 0.147 0.209 0.246 0.447 0.369 0.671 0.247 0.454 0.478 0.917 0.728 1.369 0.133-0 0.265-0 0.398 0.002-0.006-1.018 0.009-2.035-0.008-3.053-0.142 0.005-0.284 0.005-0.425 0.002-0.012 0.628-0.003 1.256-0.005 1.884l-0.063-0.040c-0.338-0.611-0.661-1.232-0.999-1.843-0.151 0.001-0.303 0.001-0.454 0.001M20.436 15.542c0.309 0.587 0.678 1.144 1.003 1.724-0.005 0.441-0.002 0.883-0.001 1.324 0.149-0.001 0.299-0.001 0.449 0 0.003-0.407 0.001-0.815 0.001-1.222-0.012-0.154 0.105-0.271 0.17-0.4 0.264-0.475 0.564-0.932 0.807-1.418-0.166-0.011-0.332-0.006-0.498-0.007-0.229 0.383-0.467 0.761-0.678 1.154-0.013-0.006-0.039-0.018-0.052-0.024-0.234-0.373-0.444-0.761-0.68-1.131-0.174 0.004-0.347 0.002-0.521 0.001z"></path>
<path fill="#fffffe" d="M2.701 15.969c0.228-0.121 0.551-0.074 0.689 0.158 0.267 0.509 0.254 1.126 0.081 1.662-0.071 0.158-0.18 0.343-0.368 0.368-0.211 0.058-0.462-0.027-0.564-0.228-0.198-0.392-0.231-0.849-0.16-1.277 0.051-0.248 0.117-0.517 0.322-0.684z"></path>
<path fill="#fffffe" d="M14.593 15.97c0.172 0.002 0.364 0.077 0.438 0.244 0.217 0.462 0.206 1.001 0.086 1.488-0.032 0.159-0.133 0.292-0.241 0.407-0.133 0.046-0.281 0.079-0.414 0.016-0.211-0.085-0.27-0.33-0.332-0.526-0.047-0.246-0.093-0.5-0.045-0.75 0.042-0.269 0.073-0.573 0.277-0.774 0.058-0.070 0.153-0.075 0.232-0.106z"></path>
<path fill="#fffffe" d="M23.941 19.987c0.049-0.269 0.038-0.543 0.059-0.815v1.87h-1.204c0.525-0.131 0.964-0.548 1.145-1.055z"></path>
<path fill="#1a1919" d="M1.356 2.958h21.392c0.074 0.014 0.146 0.039 0.206 0.087 0.226 0.176 0.495 0.293 0.699 0.497 0.087 0.085 0.139 0.207 0.252 0.264-0.029 0.065-0.008 0.131 0.005 0.196 0.029-0.061 0.059-0.122 0.089-0.183v15.353c-0.021 0.271-0.010 0.546-0.059 0.815-0.181 0.507-0.62 0.924-1.145 1.055h-21.491c-0.376-0.094-0.72-0.333-0.928-0.662-0.146-0.231-0.291-0.487-0.282-0.77 0.001-5.073 0-10.146 0.002-15.219 0.003-0.111 0.014-0.221 0.019-0.332 0.289-0.476 0.681-0.949 1.24-1.101M1.317 3.138c-0.635 0.144-1.114 0.796-1.062 1.446 0.001 4.898 0 9.796 0 14.694 0.003 0.192-0.019 0.39 0.037 0.577 0.131 0.458 0.486 0.854 0.945 0.998 0.236 0.053 0.479 0.069 0.72 0.062 6.808-0 13.616 0 20.423 0 0.225-0.017 0.464-0.022 0.666-0.136 0.446-0.209 0.77-0.675 0.803-1.166 0.001-5.059-0.001-10.118 0.001-15.178 0.001-0.359-0.191-0.688-0.428-0.946-0.274-0.275-0.661-0.401-1.044-0.396-6.887 0-13.774-0-20.661 0-0.135 0.003-0.269 0.023-0.402 0.044z"></path>
<path fill="#1a1919" d="M1.637 3.411c6.485-0.010 12.97-0 19.455-0.005 0.523-0.005 1.054-0.080 1.572 0.031 0.181 0.050 0.377 0.105 0.506 0.253 0.192 0.206 0.359 0.462 0.367 0.753 0.002 5.055-0.002 10.11 0.002 15.165-0.016 0.286-0.195 0.533-0.398 0.722-0.269 0.213-0.621 0.269-0.956 0.271-6.616 0-13.233 0-19.85 0-0.334-0.007-0.673 0.006-1-0.079-0.224-0.063-0.445-0.182-0.572-0.385-0.148-0.191-0.184-0.437-0.197-0.671 0.006-4.946-0-9.893 0.003-14.839 0.002-0.341 0.133-0.676 0.349-0.938 0.184-0.196 0.455-0.273 0.717-0.279M1.498 4.031c-0.266 0.059-0.335 0.365-0.334 0.6-0.003 4.898 0.001 9.797-0.002 14.696 0.002 0.165 0.035 0.334 0.115 0.481 0.102 0.167 0.313 0.2 0.492 0.199 3.529-0.001 7.059-0 10.588-0 0.302 0.018 0.605 0.019 0.906 0 2.863 0 5.727-0 8.59 0 0.27 0.002 0.543-0 0.807-0.063 0.122-0.080 0.25-0.186 0.286-0.333 0.009-2.561-0.006-5.122-0.003-7.682 0-2.402-0-4.805 0-7.208 0.068-0.224-0.048-0.444-0.19-0.612-0.132-0.107-0.311-0.107-0.472-0.108-6.775 0-13.551 0-20.327-0-0.152 0.004-0.309-0.016-0.457 0.032z"></path>
<path fill="#1a1919" d="M1.852 6.406c1.294-0.4 2.583-0.813 3.877-1.214 0.182-0.076 0.37 0.054 0.459 0.208 0.054 0.115-0.004 0.248-0.066 0.347-0.197 0.294-0.407 0.58-0.598 0.877 0.677 0.198 1.372 0.411 1.933 0.856 0.841 0.587 1.485 1.431 1.882 2.373 0.306 0.761 0.392 1.594 0.373 2.408-0.003 0.674-0.007 1.349-0.010 2.023-0.578 0-1.157 0.001-1.735 0 0-0.786-0-1.572 0-2.358 0.048-1.279-0.676-2.545-1.783-3.178-0.351-0.226-0.758-0.327-1.156-0.431-0.024 0.376 0.010 0.755-0.018 1.132-0.039 0.283-0.457 0.371-0.616 0.142-0.845-1.064-1.704-2.118-2.543-3.186z"></path>
<path fill="#1a1919" d="M16.702 5.454c0.299-0.085 0.594-0.189 0.899-0.25 0.19-0.036 0.399 0.125 0.398 0.321-0.032 0.124-0.1 0.234-0.171 0.339-0.192 0.248-0.353 0.518-0.537 0.772 0.037 0.019 0.074 0.037 0.112 0.056 0.027 0.005 0.080 0.017 0.106 0.022 0.422 0.136 0.844 0.285 1.236 0.496 1.101 0.627 2.022 1.61 2.465 2.808 0.198 0.533 0.316 1.1 0.303 1.67 0.036 0.907 0.018 1.814 0.025 2.721-0.584-0.003-1.167 0.007-1.751-0.005-0.014-1.064 0.031-2.129-0.031-3.193-0.012-0.008-0.036-0.024-0.049-0.032-0.146-0.687-0.499-1.335-0.999-1.829-0.51-0.538-1.215-0.851-1.934-0.991-0.005 0.361 0.007 0.722-0.009 1.083-0.009 0.126-0.066 0.283-0.206 0.311-0.102 0.007-0.205 0.003-0.307 0.006-0.863-1.129-1.82-2.184-2.654-3.334 1.029-0.338 2.067-0.649 3.102-0.971z"></path>
<path fill="#1a1919" d="M12.508 9.739c0.198 0 0.397-0.001 0.596 0.002-0.008 3.423 0.008 6.846-0.008 10.269-0.196-0.002-0.391 0.002-0.587-0.004-0.001-3.423-0-6.845-0-10.268z"></path>
<path fill="#1a1919" d="M2.6 15.444c0.339-0.080 0.752-0.095 1.021 0.166 0.243 0.198 0.333 0.513 0.409 0.804 0.146 0.668 0.081 1.413-0.325 1.982-0.239 0.28-0.64 0.329-0.983 0.267-0.264-0.032-0.48-0.225-0.614-0.445-0.39-0.778-0.384-1.771 0.098-2.509 0.102-0.123 0.244-0.214 0.394-0.266M2.701 15.969c-0.205 0.167-0.271 0.437-0.322 0.684-0.072 0.428-0.038 0.885 0.16 1.277 0.103 0.2 0.354 0.286 0.564 0.228 0.188-0.026 0.297-0.21 0.368-0.368 0.174-0.537 0.186-1.153-0.081-1.662-0.138-0.233-0.461-0.279-0.689-0.158z"></path>
<path fill="#1a1919" d="M4.605 15.449c0.169 0 0.338 0.001 0.508-0.001 0.394 0.671 0.767 1.354 1.167 2.021 0-0.673-0.001-1.346 0-2.020 0.166-0 0.332-0 0.498 0 0 1.061-0.001 2.121 0 3.182-0.148 0-0.295 0-0.443 0.005-0.42-0.704-0.789-1.44-1.22-2.137-0.001 0.711 0 1.422-0 2.133-0.171 0-0.341 0-0.511-0 0.001-1.061-0-2.122 0.001-3.183z"></path>
<path fill="#1a1919" d="M7.349 15.45c0.166 0 0.332 0 0.498-0.001 0.002 0.907 0.003 1.813-0 2.719 0.491 0.006 0.982 0.001 1.474 0.002 0 0.153 0 0.306 0.002 0.459-0.656 0.010-1.312-0.004-1.968 0.008-0.014-1.063-0.002-2.125-0.006-3.187z"></path>
<path fill="#1a1919" d="M9.385 15.451c0.198-0.003 0.397 0 0.595-0.004 0.262 0.402 0.516 0.811 0.771 1.218 0.279-0.395 0.514-0.819 0.786-1.219 0.19 0.006 0.38 0.002 0.57 0.003-0.348 0.586-0.714 1.161-1.068 1.743-0.044 0.064-0.028 0.146-0.032 0.219-0.001 0.408 0.008 0.816-0.005 1.224-0.161-0.007-0.323-0.007-0.484 0.001-0.022-0.456 0-0.914-0.011-1.37-0.030-0.106-0.107-0.191-0.161-0.286-0.319-0.511-0.645-1.017-0.96-1.531z"></path>
<path fill="#1a1919" d="M13.943 15.806c0.193-0.271 0.551-0.344 0.865-0.308 0.308 0.035 0.556 0.286 0.661 0.567 0.253 0.672 0.276 1.459-0.056 2.109-0.218 0.569-1.102 0.632-1.454 0.165-0.14-0.156-0.185-0.366-0.248-0.559-0.008-0.004-0.022-0.014-0.029-0.018 0.003-0.071-0.001-0.14-0.034-0.203-0.083-0.595-0.025-1.231 0.296-1.753M14.593 15.97c-0.079 0.031-0.175 0.036-0.232 0.106-0.204 0.201-0.235 0.505-0.277 0.774-0.048 0.25-0.002 0.504 0.045 0.75 0.062 0.196 0.121 0.44 0.332 0.526 0.134 0.063 0.282 0.030 0.414-0.016 0.109-0.116 0.209-0.248 0.241-0.407 0.119-0.487 0.13-1.026-0.086-1.488-0.074-0.167-0.265-0.242-0.438-0.244z"></path>
<path fill="#1a1919" d="M18.596 15.543c0.138 0.002 0.276-0.006 0.414 0.003 0.055 0.031 0.032 0.097 0.039 0.148-0.002 0.822-0.003 1.644 0 2.465 0.436-0.004 0.872 0.001 1.309-0.003-0 0.145-0 0.289-0 0.434-0.589-0.006-1.179 0.004-1.769-0.005 0.012-1.014-0.004-2.029 0.008-3.043z"></path>
<path fill="#1a1919" d="M16.113 15.543c0.151 0 0.303 0 0.454-0.001 0.338 0.612 0.661 1.232 0.999 1.843l0.063 0.040c0.002-0.628-0.008-1.256 0.005-1.884 0.141 0.003 0.283 0.003 0.425-0.002 0.017 1.017 0.002 2.035 0.008 3.053-0.133-0.003-0.265-0.003-0.398-0.002-0.25-0.453-0.481-0.915-0.728-1.369-0.123-0.224-0.222-0.461-0.369-0.671-0.001 0.68-0.002 1.36 0 2.040-0.155 0.001-0.309 0.001-0.464-0.001 0.005-1.015-0.002-2.030 0.004-3.045z"></path>
<path fill="#1a1919" d="M20.436 15.542c0.174 0.001 0.347 0.003 0.521-0.001 0.237 0.371 0.447 0.759 0.68 1.131 0.013 0.006 0.039 0.019 0.052 0.024 0.21-0.393 0.449-0.771 0.678-1.154 0.166 0 0.332-0.004 0.498 0.007-0.243 0.486-0.543 0.943-0.807 1.418-0.065 0.129-0.182 0.246-0.17 0.4 0 0.407 0.002 0.814-0.001 1.222-0.15-0.001-0.3-0.001-0.449 0-0.001-0.441-0.004-0.883 0.001-1.324-0.324-0.58-0.694-1.137-1.003-1.724z"></path>
</svg>
