<!-- Generated by IcoMoon.io -->
<svg version="1.1" xmlns="http://www.w3.org/2000/svg" width="24" height="24" viewBox="0 0 24 24">
<title>regulatory--maximum-speed-limit-led-85--g3</title>
<path fill="#000" d="M2.006 0h19.982c0.505 0.143 0.84 0.653 0.834 1.168 0.001 7.222 0.001 14.443 0 21.665 0.005 0.514-0.329 1.021-0.831 1.168h-19.98c-0.505-0.142-0.841-0.653-0.835-1.168-0.001-7.221-0.001-14.443 0-21.664-0.007-0.514 0.328-1.021 0.829-1.168M2.706 2.003c-0.414 0.405-0.416 1.162 0.028 1.546 0.467 0.419 1.147 0.435 1.65 0.79 0.303 0.211 0.217 0.738-0.132 0.853-0.508 0.215-1.101-0.090-1.302-0.585-0.239 0.088-0.479 0.174-0.716 0.266 0.327 1.18 2.049 1.515 2.847 0.63 0.4-0.478 0.375-1.291-0.118-1.698-0.375-0.317-0.862-0.439-1.313-0.607-0.158-0.064-0.329-0.136-0.422-0.287-0.106-0.175-0.006-0.42 0.177-0.499 0.384-0.164 0.913-0.042 1.087 0.367 0.231-0.075 0.462-0.151 0.692-0.23-0.262-1.048-1.766-1.235-2.477-0.545M6.399 1.647c-0.005 1.419-0.003 2.838-0 4.257 0.258 0.004 0.515 0.002 0.773 0.001 0.001-0.531-0.001-1.062 0-1.593 0.431-0.011 0.865 0.023 1.294-0.023 0.489-0.060 0.936-0.409 1.075-0.888 0.239-0.682-0.141-1.554-0.886-1.696-0.743-0.125-1.505-0.033-2.256-0.059M10.474 1.653c-0.006 1.417-0.003 2.835-0.002 4.252 0.974 0.003 1.948 0.002 2.922 0-0-0.246 0.003-0.491-0.003-0.736-0.715-0.008-1.43-0-2.144-0.004-0.001-0.362-0.001-0.724-0-1.087 0.413-0.002 0.827 0.001 1.241-0.001-0.001-0.245 0.003-0.49-0.003-0.735-0.413-0.008-0.825-0.001-1.238-0.004-0.001-0.316-0.001-0.632-0-0.948 0.672-0.002 1.343 0.001 2.015-0.001 0-0.245 0.003-0.491-0.002-0.736-0.928-0.006-1.857-0.004-2.785-0M14.395 1.654c-0.007 1.417-0.001 2.835-0.003 4.252 0.974 0 1.947 0.001 2.92-0 0.002-0.246 0.004-0.492-0.001-0.739-0.714-0.002-1.427 0-2.141-0.001-0.001-0.362-0-0.724 0-1.087 0.412-0.001 0.824 0 1.236-0.001 0-0.246 0.002-0.491-0.001-0.736-0.412-0.004-0.823 0-1.235-0.002-0.001-0.316-0-0.632-0-0.948 0.671-0.003 1.342 0.003 2.013-0.003 0.005-0.245 0.005-0.49 0-0.735-0.93-0.003-1.859-0.006-2.788 0.001M18.31 1.651c-0.006 1.418-0.004 2.836-0 4.254 0.806-0.041 1.684 0.146 2.422-0.27 0.717-0.402 1.008-1.287 0.939-2.070-0.038-0.688-0.393-1.396-1.037-1.698-0.726-0.341-1.55-0.18-2.324-0.216M4.233 6.567c-0.002 1.416-0.001 2.832 0 4.247 0.937 0.002 1.875 0.002 2.812 0 0.002-0.247 0-0.495 0-0.742-0.679-0.002-1.358 0-2.038-0.001-0.001-1.168 0.002-2.336-0.001-3.504-0.258-0.002-0.516-0.003-0.773 0M7.924 6.56c-0.002 1.418-0 2.837-0 4.255 0.257 0.001 0.515 0.001 0.772 0 0-1.418 0-2.837 0-4.255-0.258-0.001-0.515-0.001-0.772-0M9.956 6.56c-0.002 1.418-0.002 2.836 0 4.254 0.258 0.002 0.516 0.001 0.773 0-0.004-0.854 0.012-1.708-0.009-2.561 0.385 0.893 0.783 1.78 1.177 2.669 0.39-0.892 0.81-1.77 1.171-2.674-0.017 0.855-0.005 1.711-0.008 2.566 0.256 0.002 0.513 0.001 0.77 0 0.001-1.418 0.001-2.837 0-4.255-0.248-0.001-0.496-0.001-0.744-0-0.395 0.905-0.81 1.802-1.184 2.716-0.373-0.914-0.785-1.811-1.177-2.716-0.256-0.001-0.513-0.001-0.769 0M15.093 6.56c-0.002 1.418-0.002 2.837-0 4.255 0.257 0.001 0.514 0.001 0.77 0 0.001-1.418 0.001-2.836 0-4.255-0.257-0.001-0.514-0.001-0.77-0M16.855 6.557c-0 0.248-0.001 0.495 0 0.742 0.397 0.002 0.794-0 1.192 0.001 0.002 1.172-0.001 2.343 0.001 3.515 0.257 0 0.514 0.001 0.771-0 0.001-1.172 0-2.343 0-3.515 0.398-0.001 0.796 0 1.194-0 0.001-0.248 0.001-0.495 0-0.743-1.053-0.001-2.106-0.001-3.159 0M5.275 13.947c-0.591 0.738-0.698 1.837-0.23 2.663 0.21 0.376 0.54 0.674 0.913 0.883-0.47 0.214-0.883 0.554-1.17 0.983-0.714 1.056-0.606 2.588 0.255 3.529 0.646 0.726 1.639 1.081 2.597 1.059 1.002 0.023 2.046-0.366 2.686-1.158 0.746-0.905 0.849-2.277 0.256-3.287-0.29-0.498-0.749-0.886-1.27-1.125 0.84-0.405 1.326-1.368 1.204-2.285-0.079-0.881-0.684-1.666-1.485-2.023-1.234-0.563-2.889-0.339-3.757 0.761M13.747 13.069c-0.199 1.66-0.391 3.321-0.581 4.982 0.382 0.137 0.766 0.268 1.149 0.403 0.101 0.060 0.164-0.059 0.232-0.113 0.528-0.495 1.281-0.696 1.992-0.653 0.555 0.034 1.108 0.298 1.429 0.762 0.583 0.839 0.491 2.106-0.274 2.805-0.593 0.57-1.47 0.719-2.262 0.606-0.695-0.069-1.335-0.407-1.847-0.873-0.256 0.328-0.515 0.653-0.763 0.987 0.803 0.786 1.972 1.079 3.068 1.088 1.097 0.046 2.242-0.359 2.969-1.202 1.093-1.226 1.1-3.292-0.053-4.48-1.104-1.148-3.057-1.198-4.317-0.28 0.124-0.949 0.243-1.899 0.368-2.848 1.391-0.002 2.782 0 4.173-0.001 0.002-0.395 0.002-0.789 0-1.184-1.762-0.001-3.523-0.001-5.284 0z"></path>
<path fill="#000" d="M7.172 2.391c0.413 0.013 0.831-0.030 1.241 0.025 0.531 0.121 0.524 0.998 0 1.126-0.409 0.056-0.828 0.010-1.241 0.024-0.002-0.392-0.001-0.784-0-1.176z"></path>
<path fill="#000" d="M19.082 2.391c0.415 0.024 0.875-0.084 1.248 0.15 0.411 0.265 0.555 0.79 0.547 1.254 0.002 0.461-0.162 0.976-0.578 1.223-0.367 0.223-0.811 0.125-1.216 0.146-0.001-0.925-0-1.85-0-2.775z"></path>
<path fill="#000" d="M7.19 14.129c0.542-0.112 1.162-0.035 1.59 0.341 0.596 0.514 0.63 1.553 0.037 2.083-0.615 0.547-1.633 0.57-2.281 0.069-0.54-0.417-0.638-1.236-0.307-1.812 0.199-0.356 0.568-0.593 0.96-0.681z"></path>
<path fill="#000" d="M7.425 18.068c0.683-0.074 1.413 0.194 1.834 0.749 0.502 0.638 0.52 1.603 0.057 2.266-0.629 0.871-1.956 1.001-2.847 0.479-0.851-0.501-1.073-1.722-0.58-2.547 0.312-0.547 0.913-0.899 1.536-0.947z"></path>
<path fill="#fff" d="M2.706 2.003c0.711-0.69 2.215-0.503 2.477 0.545-0.23 0.079-0.461 0.155-0.692 0.23-0.174-0.409-0.703-0.53-1.087-0.367-0.182 0.078-0.283 0.324-0.177 0.499 0.093 0.15 0.264 0.223 0.422 0.287 0.451 0.168 0.938 0.29 1.313 0.607 0.493 0.406 0.518 1.22 0.118 1.698-0.797 0.885-2.52 0.551-2.847-0.63 0.237-0.092 0.477-0.179 0.716-0.266 0.201 0.495 0.794 0.8 1.302 0.585 0.349-0.114 0.435-0.641 0.132-0.853-0.503-0.354-1.182-0.371-1.65-0.79-0.443-0.384-0.442-1.141-0.028-1.546z"></path>
<path fill="#fff" d="M6.399 1.647c0.751 0.025 1.513-0.066 2.256 0.059 0.745 0.142 1.125 1.014 0.886 1.696-0.139 0.479-0.585 0.828-1.075 0.888-0.429 0.046-0.863 0.012-1.294 0.023-0.001 0.531 0 1.062-0 1.593-0.258 0-0.515 0.002-0.773-0.001-0.003-1.419-0.004-2.838 0-4.257M7.172 2.391c-0 0.392-0.001 0.784 0 1.176 0.413-0.014 0.832 0.031 1.241-0.024 0.523-0.128 0.53-1.005-0-1.126-0.41-0.055-0.828-0.012-1.241-0.025z"></path>
<path fill="#fff" d="M10.474 1.653c0.928-0.004 1.857-0.005 2.785 0 0.006 0.246 0.003 0.491 0.002 0.736-0.672 0.002-1.343-0-2.015 0.001-0 0.316-0.001 0.632 0 0.948 0.413 0.003 0.825-0.004 1.238 0.004 0.006 0.245 0.002 0.489 0.003 0.735-0.413 0.002-0.827-0.001-1.241 0.001-0 0.362-0.001 0.725 0 1.087 0.714 0.003 1.429-0.004 2.144 0.004 0.006 0.245 0.002 0.491 0.003 0.736-0.974 0.001-1.948 0.002-2.922-0-0.001-1.418-0.004-2.835 0.002-4.252z"></path>
<path fill="#fff" d="M14.395 1.654c0.93-0.007 1.859-0.004 2.788-0.001 0.004 0.245 0.005 0.49-0 0.735-0.671 0.006-1.342 0-2.013 0.003 0 0.316-0 0.632 0 0.948 0.412 0.002 0.823-0.002 1.235 0.002 0.003 0.245 0.001 0.491 0.001 0.736-0.412 0.001-0.824-0-1.236 0.001-0 0.362-0.001 0.724 0 1.087 0.714 0.002 1.427-0.001 2.141 0.001 0.005 0.247 0.003 0.493 0.001 0.739-0.974 0.002-1.947 0.001-2.92 0 0.001-1.417-0.004-2.835 0.003-4.252z"></path>
<path fill="#fff" d="M18.31 1.651c0.773 0.036 1.598-0.125 2.324 0.216 0.645 0.301 0.999 1.010 1.037 1.698 0.069 0.782-0.222 1.667-0.939 2.070-0.738 0.416-1.616 0.229-2.422 0.27-0.004-1.418-0.005-2.836 0-4.254M19.082 2.391c0 0.925-0.001 1.85 0 2.775 0.405-0.022 0.849 0.077 1.216-0.146 0.417-0.247 0.581-0.763 0.578-1.223 0.008-0.465-0.136-0.99-0.547-1.254-0.373-0.234-0.832-0.127-1.248-0.15z"></path>
<path fill="#fff" d="M4.233 6.567c0.258-0.003 0.516-0.002 0.773 0 0.003 1.168 0 2.336 0.001 3.504 0.679 0.001 1.358-0.001 2.038 0.001 0 0.247 0.002 0.495-0 0.742-0.938 0.002-1.875 0.002-2.812 0-0.001-1.416-0.002-2.832 0-4.247z"></path>
<path fill="#fff" d="M7.924 6.56c0.257-0 0.515-0.001 0.772 0-0 1.418 0 2.837-0 4.255-0.257 0-0.515 0-0.772-0 0-1.418-0.001-2.837 0-4.255z"></path>
<path fill="#fff" d="M9.956 6.56c0.256-0.001 0.513-0.001 0.769 0 0.393 0.905 0.804 1.802 1.177 2.716 0.373-0.915 0.788-1.811 1.184-2.716 0.248-0.001 0.496-0.001 0.744 0 0.001 1.418 0.001 2.836 0 4.255-0.257 0.001-0.514 0.001-0.77-0 0.002-0.855-0.010-1.71 0.008-2.566-0.361 0.904-0.781 1.783-1.171 2.674-0.394-0.889-0.792-1.776-1.177-2.669 0.022 0.853 0.006 1.707 0.009 2.561-0.258 0.001-0.516 0.002-0.773-0-0.002-1.418-0.002-2.836 0-4.254z"></path>
<path fill="#fff" d="M15.093 6.56c0.256-0 0.513-0.001 0.77 0 0 1.418 0.001 2.837-0 4.255-0.256 0.001-0.513 0.001-0.77 0-0.001-1.418-0.001-2.837 0-4.255z"></path>
<path fill="#fff" d="M16.855 6.557c1.053-0.001 2.106-0.001 3.159 0 0.001 0.248 0.001 0.495 0 0.743-0.398 0.001-0.796-0-1.194 0-0 1.171 0.001 2.343-0 3.515-0.257 0.001-0.514 0-0.771 0-0.002-1.172 0.001-2.343-0.001-3.515-0.398-0.001-0.795 0.001-1.192-0.001-0.002-0.248-0.001-0.495-0-0.743z"></path>
<path fill="#fff" d="M5.275 13.947c0.868-1.1 2.523-1.323 3.757-0.761 0.801 0.357 1.406 1.142 1.485 2.023 0.121 0.917-0.364 1.88-1.204 2.285 0.522 0.238 0.98 0.627 1.27 1.125 0.593 1.010 0.49 2.382-0.256 3.287-0.64 0.792-1.685 1.181-2.686 1.158-0.959 0.022-1.951-0.333-2.597-1.059-0.861-0.941-0.969-2.473-0.255-3.529 0.286-0.43 0.7-0.77 1.17-0.983-0.374-0.209-0.703-0.507-0.913-0.883-0.468-0.826-0.36-1.925 0.23-2.663M7.19 14.129c-0.393 0.087-0.761 0.325-0.96 0.681-0.331 0.576-0.233 1.395 0.307 1.812 0.648 0.501 1.666 0.478 2.281-0.069 0.593-0.53 0.559-1.569-0.037-2.083-0.428-0.376-1.048-0.453-1.59-0.341M7.425 18.068c-0.623 0.048-1.224 0.399-1.536 0.947-0.493 0.825-0.271 2.046 0.58 2.547 0.891 0.522 2.219 0.392 2.847-0.479 0.463-0.663 0.445-1.628-0.057-2.266-0.421-0.555-1.151-0.822-1.834-0.749z"></path>
<path fill="#fff" d="M13.747 13.069c1.761-0.001 3.523-0.001 5.284 0 0.001 0.394 0.002 0.789-0 1.184-1.391 0.001-2.782-0.001-4.173 0.001-0.125 0.949-0.244 1.899-0.368 2.848 1.26-0.918 3.213-0.868 4.317 0.28 1.153 1.189 1.146 3.254 0.053 4.48-0.727 0.843-1.871 1.249-2.969 1.202-1.095-0.009-2.265-0.302-3.068-1.088 0.248-0.333 0.507-0.659 0.763-0.987 0.512 0.466 1.152 0.804 1.847 0.873 0.791 0.113 1.668-0.036 2.262-0.606 0.765-0.699 0.857-1.967 0.274-2.805-0.321-0.464-0.873-0.728-1.429-0.762-0.711-0.042-1.463 0.159-1.992 0.653-0.068 0.054-0.131 0.173-0.232 0.113-0.383-0.135-0.767-0.266-1.149-0.403 0.19-1.661 0.382-3.322 0.581-4.982M14.078 21.431c0.024 0.024 0.024 0.024 0 0z"></path>
<path fill="#c1c1c1" d="M14.078 21.431c0.024 0.024 0.024 0.024 0 0z"></path>
</svg>
