<!-- Generated by IcoMoon.io -->
<svg version="1.1" xmlns="http://www.w3.org/2000/svg" width="16" height="24" viewBox="0 0 16 24">
<title>regulatory--end-of-pedestrians-only--g3</title>
<path fill="#595959" d="M0.881 0h14.221c0.417 0.147 0.734 0.474 0.898 0.881v22.222c-0.152 0.413-0.474 0.733-0.88 0.898h-14.222c-0.415-0.15-0.734-0.476-0.898-0.882v-22.226c0.152-0.411 0.474-0.731 0.881-0.892M0.9 0.109c-0.473 0.13-0.847 0.591-0.821 1.090 0.002 7.229-0.001 14.458 0.002 21.686 0.018 0.566 0.55 1.063 1.118 1.036 4.534-0.002 9.069-0.002 13.603 0 0.567 0.026 1.098-0.47 1.118-1.036 0.002-7.229-0.001-14.458 0.002-21.686 0.032-0.601-0.522-1.147-1.121-1.123-4.48-0.005-8.959 0-13.439-0.002-0.154 0.004-0.311-0.005-0.461 0.036z"></path>
<path fill="#fff" d="M0.9 0.109c0.15-0.041 0.307-0.032 0.461-0.036 4.48 0.002 8.959-0.002 13.439 0.002 0.598-0.024 1.153 0.522 1.121 1.123-0.002 7.229 0.001 14.458-0.002 21.686-0.019 0.566-0.55 1.062-1.118 1.036-4.534-0.002-9.069-0.002-13.603 0-0.567 0.027-1.1-0.47-1.118-1.036-0.002-7.229 0.001-14.458-0.002-21.686-0.026-0.498 0.348-0.96 0.821-1.090M0.91 0.599c-0.258 0.118-0.399 0.405-0.378 0.682 0.001 7.146 0.001 14.291 0 21.437-0.042 0.379 0.274 0.764 0.666 0.742 4.534 0.002 9.068 0.002 13.602 0 0.391 0.022 0.706-0.363 0.666-0.741-0.001-7.146-0.001-14.292-0.001-21.438 0.042-0.382-0.275-0.761-0.667-0.745-4.479-0.009-8.959 0.001-13.438-0.005-0.151 0.006-0.311-0.002-0.45 0.067z"></path>
<path fill="#fff" d="M0.8 1.275c-0.044-0.274 0.201-0.518 0.475-0.475 4.483 0 8.967 0 13.45 0.001 0.212-0.031 0.492 0.14 0.455 0.37-0.764 0.87-1.544 1.728-2.314 2.594-0.111-0.018-0.222-0.038-0.332-0.060 0.123-0.711-0.726-1.045-1.27-0.728-0.003-0.182-0.002-0.363 0.014-0.543 0.148-0.022 0.381 0.024 0.322-0.205-0.345-0.007-0.69-0.010-1.034 0.002-0.066 0.246 0.216 0.137 0.327 0.243 0.006 0.642 0.008 1.286-0.001 1.928-0.102 0.115-0.392-0.005-0.329 0.244 0.346 0.007 0.692 0.006 1.038 0.002 0.057-0.228-0.175-0.181-0.322-0.201-0.032-0.387-0.010-0.776-0.012-1.163 0.172-0.199 0.471-0.265 0.708-0.15 0.232 0.182 0.182 0.518 0.193 0.78 0.186-0.003 0.37-0.004 0.556-0.002-0.922 1.050-1.857 2.086-2.79 3.126-1.294-0.422-2.752-0.43-4.026 0.069 1.28-0.433 2.737-0.518 4.009-0.024-0.075 0.072-0.151 0.145-0.226 0.217-1.542-0.51-3.306-0.284-4.665 0.607-2.23 1.386-3.152 4.483-1.999 6.851-0.731 0.843-1.486 1.667-2.226 2.502-0.002-5.329 0-10.658-0.001-15.986M3.454 2.804c-0.074 0.542-0.016 1.091-0.037 1.636-0.121 0.024-0.442-0.008-0.31 0.204 0.348 0.014 0.698 0.015 1.046-0.009 0.035-0.226-0.233-0.156-0.373-0.197 0.032-0.567-0.079-1.155 0.067-1.708 0.222-0.576 1.194-0.384 1.186 0.239-0.244 0.005-0.512-0.008-0.715 0.153-0.35 0.29-0.314 0.971 0.127 1.158 0.262 0.071 0.599 0.057 0.774-0.182 0.197-0.263 0.146-0.613 0.163-0.921 0.17-0.026 0.19 0.15 0.242 0.268 0.106 0.002 0.212 0.004 0.318 0.006 0.058-0.343-0.248-0.534-0.557-0.484-0.034-0.982-1.73-1.1-1.932-0.162M6.351 2.746c-0.044 0.55 0.005 1.104-0.022 1.655-0.099 0.118-0.395-0.009-0.329 0.246 0.347 0.006 0.694 0.005 1.042 0.002 0.057-0.229-0.175-0.181-0.322-0.2-0.026-0.573-0.030-1.15 0-1.722 0.176-0.493 1.014-0.438 1.119 0.076 0.022 0.546 0.015 1.095 0.001 1.642-0.147 0.026-0.395-0.031-0.338 0.202 0.352 0.006 0.704 0.006 1.056 0 0.051-0.23-0.208-0.176-0.352-0.215-0.010-0.553 0.034-1.11-0.021-1.659-0.221-0.801-1.574-0.801-1.834-0.026M8.811 2.718c-0.058 0.7 0.858 0.695 1.187 1.135 0.241 0.37-0.261 0.794-0.618 0.605-0.23-0.079-0.319-0.318-0.379-0.532-0.114 0.008-0.228 0.016-0.341 0.026 0.008 0.639 0.8 0.931 1.313 0.661 0.36-0.143 0.587-0.611 0.37-0.96-0.269-0.374-0.806-0.393-1.107-0.729-0.196-0.252 0.073-0.608 0.369-0.536 0.246 0.028 0.339 0.272 0.389 0.48 0.111-0.001 0.222-0.001 0.334-0.001 0.057-0.85-1.378-0.938-1.516-0.149M2.641 14.672c-0.441-1.257-0.482-2.614-0.166-3.904-0.42 1.255-0.374 2.693 0.166 3.904z"></path>
<path fill="#fff" d="M10.107 7.425c1.698-1.897 3.391-3.798 5.091-5.693 0.002 0.224 0.002 0.449 0.002 0.673-1.558 1.746-3.121 3.487-4.677 5.234-0.14-0.070-0.278-0.141-0.416-0.214z"></path>
<path fill="#fff" d="M10.864 7.83c1.443-1.617 2.884-3.236 4.334-4.847 0.004 0.226 0.004 0.451-0.002 0.677-1.326 1.473-2.638 2.958-3.966 4.428-0.122-0.086-0.244-0.172-0.366-0.258z"></path>
<path fill="#fff" d="M4.865 4.086c-0.694 0.171-0.524-1.171 0.158-0.901-0.022 0.298 0.062 0.66-0.158 0.901z"></path>
<path fill="#fff" d="M11.554 8.302c1.219-1.353 2.429-2.715 3.644-4.072-0.032 0.276 0.108 0.625-0.138 0.83-1.065 1.186-2.129 2.373-3.186 3.565-0.108-0.106-0.215-0.214-0.321-0.323z"></path>
<path fill="#fff" d="M12.128 8.913c1.026-1.141 2.042-2.291 3.070-3.43 0.003 0.224 0.002 0.449 0 0.673-0.921 1.036-1.854 2.062-2.768 3.102-0.102-0.114-0.202-0.23-0.302-0.346z"></path>
<path fill="#fff" d="M12.637 9.591c0.862-0.944 1.7-1.91 2.561-2.854 0.006 5.329 0.001 10.658 0.002 15.988 0.041 0.271-0.202 0.518-0.475 0.474-4.51-0.002-9.021 0.005-13.531-0.003-0.218 0.019-0.523-0.28-0.302-0.465 1.589-1.765 3.16-3.545 4.754-5.306 2.342 1.2 5.45 0.334 6.88-1.86 1.206-1.734 1.249-4.164 0.126-5.95l-0.014-0.026M13.526 10.77c0.089 0.704 0.31 1.409 0.204 2.125-0.029 0.352-0.117 0.698-0.115 1.054 0.274-1.035 0.262-2.163-0.089-3.178z"></path>
<path fill="#fff" d="M7.346 8.861c0.242-0.341 0.698-0.209 1.015-0.066-0.253 0.3-0.516 0.59-0.783 0.878-0.216-0.202-0.438-0.523-0.232-0.811z"></path>
<path fill="#fff" d="M7.927 9.885c0.225-0.281 0.46-0.555 0.722-0.802-0.001 0.198 0.002 0.398 0 0.597-0.054 0.062-0.105 0.126-0.155 0.19-0.186 0.046-0.378 0.050-0.566 0.014z"></path>
<path fill="#fff" d="M6.906 11.005c0.288-0.32 0.574-0.642 0.863-0.962 0.138 0.070 0.275 0.141 0.413 0.212-0.293 0.329-0.583 0.66-0.883 0.983-0.021-0.108-0.041-0.217-0.060-0.325-0.111 0.030-0.223 0.058-0.333 0.092z"></path>
<path fill="#fff" d="M6.098 11.317c-0.062-0.418 0.294-0.702 0.676-0.75-0.214 0.261-0.437 0.513-0.676 0.75z"></path>
<path fill="#fff" d="M7.262 11.858c0.394-0.439 0.786-0.878 1.179-1.318 0.001 0.201 0.004 0.402 0.013 0.603l0.002 0.045c-0.394 0.446-0.776 0.906-1.2 1.325 0.002-0.218 0-0.437 0.006-0.655z"></path>
<path fill="#fff" d="M6.094 11.923c0.183-0.214 0.364-0.43 0.569-0.624 0.002 0.21 0.010 0.421 0.015 0.631-0.174 0.21-0.357 0.412-0.545 0.61-0.014-0.19-0.026-0.381-0.037-0.571l-0.002-0.046z"></path>
<path fill="#fff" d="M6.915 13.595c0.526-0.789 1.256-1.426 1.846-2.163 0.101 0.11 0.202 0.221 0.303 0.331-0.149 0.178-0.296 0.367-0.508 0.474-0.68 0.962-1.546 1.79-2.318 2.682 0.161-0.474 0.493-0.862 0.677-1.325z"></path>
<path fill="#fff" d="M9.334 12.038c0.108 0.106 0.215 0.214 0.322 0.321-0.125 0.139-0.25 0.278-0.378 0.414-0.101-0.114-0.201-0.227-0.3-0.341 0.12-0.131 0.238-0.262 0.357-0.394z"></path>
<path fill="#fff" d="M8.686 12.766c0.107 0.106 0.214 0.214 0.32 0.321-0.187 0.206-0.372 0.415-0.559 0.622-0.106-0.107-0.211-0.214-0.316-0.322 0.184-0.208 0.369-0.415 0.555-0.621z"></path>
<path fill="#fff" d="M8.743 13.94c0.194-0.199 0.373-0.411 0.565-0.612 0.305 0.726 0.422 1.516 0.623 2.274 0.142 0.37-0.44 0.635-0.626 0.292-0.242-0.625-0.287-1.311-0.552-1.93l-0.010-0.025z"></path>
<path fill="#fff" d="M7.272 14.358c-0.164 0.507-0.521 0.92-0.726 1.409-0.049 0.087-0.11 0.167-0.167 0.25-0.181 0.033-0.378 0.054-0.506-0.108 0.471-0.513 0.921-1.045 1.399-1.55z"></path>
<path fill="#fff" d="M0.801 17.84c0.798-0.9 1.605-1.793 2.404-2.691 0.084 0.129 0.169 0.258 0.254 0.387-0.882 0.995-1.769 1.986-2.657 2.976-0.003-0.224-0.002-0.448-0.001-0.672z"></path>
<path fill="#fff" d="M0.936 18.936c0.921-1.022 1.833-2.050 2.751-3.074 0.095 0.118 0.19 0.235 0.285 0.354-1.058 1.181-2.114 2.365-3.17 3.547 0.030-0.274-0.104-0.619 0.134-0.827z"></path>
<path fill="#fff" d="M0.804 20.335c1.156-1.286 2.3-2.583 3.462-3.864 0.106 0.105 0.211 0.21 0.318 0.314-1.263 1.407-2.519 2.822-3.782 4.23-0.003-0.227-0.003-0.454 0.002-0.68z"></path>
<path fill="#fff" d="M0.8 21.595c1.356-1.534 2.729-3.054 4.090-4.583 0.134 0.074 0.267 0.149 0.402 0.223-1.492 1.68-2.992 3.353-4.49 5.027-0.002-0.222-0.002-0.445-0.002-0.667z"></path>
<path fill="#000" d="M0.91 0.599c0.139-0.070 0.299-0.062 0.45-0.067 4.479 0.006 8.959-0.004 13.438 0.005 0.392-0.016 0.71 0.362 0.667 0.745 0 7.146 0 14.291 0.001 21.438 0.040 0.378-0.275 0.763-0.666 0.741-4.534 0.002-9.068 0.002-13.602 0-0.392 0.022-0.709-0.362-0.666-0.742 0.001-7.146 0.001-14.291 0-21.437-0.022-0.278 0.12-0.564 0.378-0.682M0.8 1.275c0.001 5.329-0.002 10.658 0.001 15.986 0.741-0.835 1.495-1.659 2.226-2.502 1.031-1.139 2.069-2.285 3.071-3.442 0.239-0.238 0.462-0.49 0.676-0.75 0.295-0.259 0.53-0.604 0.804-0.894 0.267-0.287 0.53-0.578 0.783-0.878 0.451-0.491 0.9-0.984 1.33-1.494 0.075-0.072 0.151-0.145 0.226-0.217-1.272-0.494-2.729-0.409-4.009 0.024 1.274-0.499 2.732-0.49 4.026-0.069 0.934-1.039 1.869-2.076 2.79-3.126-0.186-0.002-0.37-0.002-0.556 0.002-0.010-0.262 0.039-0.598-0.193-0.78-0.237-0.115-0.536-0.050-0.708 0.15 0.002 0.387-0.020 0.776 0.012 1.163 0.146 0.020 0.378-0.027 0.322 0.201-0.346 0.003-0.693 0.005-1.038-0.002-0.063-0.249 0.226-0.129 0.329-0.244 0.009-0.642 0.007-1.286 0.001-1.928-0.111-0.106-0.394 0.003-0.327-0.243 0.345-0.012 0.69-0.010 1.034-0.002 0.059 0.229-0.174 0.183-0.322 0.205-0.017 0.18-0.018 0.362-0.014 0.543 0.544-0.317 1.394 0.017 1.27 0.728 0.11 0.022 0.221 0.042 0.332 0.060 0.77-0.866 1.55-1.724 2.314-2.594 0.037-0.23-0.243-0.401-0.455-0.37-4.483-0.001-8.967-0.001-13.45-0.001-0.274-0.043-0.519 0.201-0.475 0.475M10.107 7.425c-0.482 0.556-1.002 1.083-1.458 1.658-0.262 0.246-0.497 0.521-0.722 0.802l-0.020-0.003c-0.046 0.054-0.092 0.107-0.138 0.161-0.29 0.32-0.575 0.642-0.863 0.962-0.106 0.067-0.202 0.177-0.244 0.294-0.205 0.194-0.386 0.41-0.569 0.624l0.002 0.046c-1.015 1.006-1.92 2.128-2.891 3.18-0.799 0.898-1.606 1.791-2.404 2.691-0.002 0.224-0.002 0.448 0.001 0.672 0.888-0.99 1.775-1.981 2.657-2.976 0.895-0.995 1.791-1.99 2.674-2.996 0.188-0.198 0.371-0.399 0.545-0.61 0.209-0.223 0.411-0.453 0.626-0.671l-0.004-0.022c0.3-0.323 0.59-0.654 0.883-0.983 0.115-0.118 0.221-0.246 0.311-0.384 0.050-0.065 0.102-0.129 0.155-0.19 0.674-0.629 1.24-1.37 1.874-2.041 1.556-1.747 3.119-3.489 4.677-5.234 0.001-0.224 0.001-0.449-0.002-0.673-1.7 1.895-3.394 3.796-5.091 5.693M10.864 7.83c-0.81 0.901-1.616 1.806-2.423 2.71-0.394 0.439-0.786 0.878-1.179 1.318-1.193 1.334-2.384 2.669-3.574 4.004-0.918 1.023-1.83 2.052-2.751 3.074-0.238 0.208-0.104 0.553-0.134 0.827 1.057-1.182 2.112-2.366 3.17-3.547 1.088-1.238 2.222-2.45 3.283-3.702 0.424-0.418 0.806-0.878 1.2-1.325l-0.002-0.045c0.976-0.966 1.849-2.041 2.776-3.056 1.329-1.47 2.641-2.955 3.966-4.428 0.006-0.226 0.006-0.451 0.002-0.677-1.45 1.611-2.89 3.23-4.334 4.847M11.554 8.302c-0.927 1.047-1.862 2.086-2.794 3.13-0.59 0.737-1.319 1.374-1.846 2.163-0.138 0.053-0.238 0.161-0.332 0.27-0.766 0.874-1.555 1.729-2.318 2.606-1.162 1.281-2.306 2.578-3.462 3.864-0.006 0.226-0.006 0.453-0.002 0.68 1.262-1.408 2.518-2.822 3.782-4.23 0.542-0.63 1.126-1.23 1.655-1.866 0.772-0.893 1.638-1.721 2.318-2.682 0.212-0.107 0.359-0.296 0.508-0.474 0.942-1.041 1.869-2.096 2.811-3.138 1.057-1.192 2.121-2.379 3.186-3.565 0.246-0.206 0.106-0.554 0.138-0.83-1.215 1.357-2.425 2.719-3.644 4.072M12.128 8.913c-0.93 1.042-1.862 2.084-2.794 3.126-0.118 0.132-0.237 0.263-0.357 0.394-0.098 0.11-0.196 0.221-0.292 0.333-0.186 0.206-0.371 0.413-0.555 0.621-0.268 0.339-0.617 0.618-0.858 0.972-0.478 0.506-0.928 1.038-1.399 1.55-0.326 0.369-0.655 0.735-0.983 1.103-1.361 1.53-2.734 3.049-4.090 4.583 0 0.222-0.001 0.445 0.002 0.667 1.498-1.674 2.998-3.347 4.49-5.027 0.368-0.401 0.73-0.808 1.087-1.218 0.058-0.082 0.118-0.162 0.167-0.25 0.694-0.622 1.261-1.38 1.901-2.059 0.187-0.206 0.372-0.415 0.559-0.622 0.092-0.103 0.182-0.208 0.272-0.313 0.128-0.137 0.254-0.275 0.378-0.414 0.922-1.036 1.845-2.072 2.774-3.101 0.914-1.041 1.847-2.066 2.768-3.102 0.002-0.224 0.003-0.449 0-0.673-1.029 1.138-2.045 2.289-3.070 3.43M12.637 9.591l0.014 0.026c-1.147 1.204-2.231 2.473-3.343 3.711-0.192 0.201-0.371 0.413-0.565 0.612l0.010 0.025c-1.056 1.134-2.078 2.303-3.107 3.462-1.594 1.761-3.165 3.541-4.754 5.306-0.222 0.185 0.083 0.484 0.302 0.465 4.51 0.008 9.021 0.001 13.531 0.003 0.273 0.044 0.516-0.203 0.475-0.474-0.002-5.33 0.003-10.659-0.002-15.988-0.861 0.944-1.699 1.91-2.561 2.854z"></path>
<path fill="#000" d="M3.454 2.804c0.202-0.938 1.898-0.82 1.932 0.162 0.309-0.050 0.614 0.141 0.557 0.484-0.106-0.002-0.212-0.003-0.318-0.006-0.053-0.118-0.072-0.294-0.242-0.268-0.018 0.308 0.034 0.658-0.163 0.921-0.175 0.239-0.512 0.254-0.774 0.182-0.441-0.186-0.477-0.867-0.127-1.158 0.203-0.161 0.471-0.148 0.715-0.153 0.008-0.623-0.963-0.815-1.186-0.239-0.146 0.553-0.035 1.141-0.067 1.708 0.14 0.041 0.408-0.029 0.373 0.197-0.348 0.024-0.698 0.022-1.046 0.009-0.132-0.212 0.19-0.18 0.31-0.204 0.021-0.545-0.037-1.094 0.037-1.636M4.865 4.086c0.219-0.241 0.136-0.603 0.158-0.901-0.682-0.27-0.851 1.072-0.158 0.901z"></path>
<path fill="#000" d="M6.351 2.746c0.26-0.774 1.614-0.774 1.834 0.026 0.054 0.55 0.011 1.106 0.021 1.659 0.144 0.039 0.403-0.014 0.352 0.215-0.352 0.006-0.704 0.006-1.056 0-0.058-0.234 0.19-0.176 0.338-0.202 0.014-0.547 0.021-1.096-0.001-1.642-0.105-0.514-0.943-0.569-1.119-0.076-0.030 0.572-0.026 1.15 0 1.722 0.147 0.019 0.379-0.029 0.322 0.2-0.347 0.003-0.694 0.004-1.042-0.002-0.066-0.254 0.23-0.127 0.329-0.246 0.026-0.551-0.022-1.106 0.022-1.655z"></path>
<path fill="#000" d="M8.811 2.718c0.138-0.79 1.573-0.701 1.516 0.149-0.111 0-0.222 0-0.334 0.001-0.050-0.208-0.143-0.452-0.389-0.48-0.296-0.072-0.565 0.284-0.369 0.536 0.302 0.336 0.838 0.354 1.107 0.729 0.217 0.349-0.010 0.817-0.37 0.96-0.513 0.27-1.305-0.022-1.313-0.661 0.113-0.010 0.227-0.018 0.341-0.026 0.060 0.214 0.15 0.453 0.379 0.532 0.358 0.19 0.859-0.234 0.618-0.605-0.33-0.44-1.245-0.435-1.187-1.135z"></path>
<path fill="#7f7f7f" d="M5.026 7.908c1.358-0.891 3.123-1.117 4.665-0.607-0.43 0.51-0.878 1.002-1.33 1.494-0.317-0.142-0.774-0.274-1.015 0.066-0.206 0.288 0.016 0.61 0.232 0.811-0.274 0.29-0.509 0.635-0.804 0.894-0.382 0.048-0.738 0.332-0.676 0.75-1.002 1.158-2.040 2.303-3.071 3.442-1.153-2.368-0.23-5.465 1.999-6.851z"></path>
<path fill="#7f7f7f" d="M8.649 9.083c0.457-0.575 0.977-1.102 1.458-1.658 0.138 0.074 0.276 0.145 0.416 0.214-0.634 0.67-1.2 1.412-1.874 2.041 0.002-0.199-0.001-0.398 0-0.597z"></path>
<path fill="#7f7f7f" d="M8.441 10.541c0.807-0.904 1.613-1.81 2.423-2.71 0.122 0.086 0.244 0.171 0.366 0.258-0.927 1.015-1.8 2.090-2.776 3.056-0.009-0.201-0.012-0.402-0.013-0.603z"></path>
<path fill="#7f7f7f" d="M8.761 11.432c0.931-1.043 1.866-2.082 2.794-3.13 0.106 0.11 0.213 0.217 0.321 0.323-0.942 1.042-1.869 2.097-2.811 3.138-0.101-0.11-0.202-0.221-0.303-0.331z"></path>
<path fill="#7f7f7f" d="M9.334 12.038c0.931-1.042 1.863-2.083 2.794-3.126 0.1 0.116 0.201 0.231 0.302 0.346-0.93 1.029-1.852 2.065-2.774 3.101-0.106-0.107-0.214-0.214-0.322-0.321z"></path>
<path fill="#7f7f7f" d="M9.308 13.328c1.112-1.238 2.196-2.507 3.343-3.711 1.123 1.786 1.081 4.216-0.126 5.95-1.43 2.194-4.538 3.060-6.88 1.86 1.030-1.158 2.051-2.327 3.107-3.462 0.265 0.618 0.31 1.305 0.552 1.93 0.186 0.343 0.768 0.078 0.626-0.292-0.201-0.758-0.318-1.549-0.623-2.274z"></path>
<path fill="#7f7f7f" d="M7.907 9.882l0.020 0.003c0.189 0.036 0.381 0.032 0.566-0.014-0.090 0.138-0.196 0.266-0.311 0.384-0.138-0.071-0.275-0.142-0.413-0.212 0.046-0.054 0.091-0.107 0.138-0.161z"></path>
<path fill="#7f7f7f" d="M2.641 14.672c-0.541-1.211-0.586-2.649-0.166-3.904-0.316 1.29-0.274 2.647 0.166 3.904z"></path>
<path fill="#7f7f7f" d="M13.526 10.77c0.35 1.015 0.362 2.143 0.089 3.178-0.002-0.355 0.086-0.702 0.115-1.054 0.106-0.716-0.115-1.421-0.204-2.125z"></path>
<path fill="#7f7f7f" d="M6.906 11.005c0.11-0.034 0.222-0.062 0.333-0.092 0.019 0.108 0.039 0.217 0.060 0.325l0.004 0.022c-0.214 0.218-0.417 0.448-0.626 0.671-0.006-0.21-0.014-0.421-0.015-0.631 0.042-0.118 0.138-0.227 0.244-0.294z"></path>
<path fill="#7f7f7f" d="M3.687 15.862c1.19-1.335 2.382-2.67 3.574-4.004-0.006 0.218-0.004 0.437-0.006 0.655-1.061 1.253-2.195 2.464-3.283 3.702-0.094-0.118-0.19-0.236-0.285-0.354z"></path>
<path fill="#7f7f7f" d="M3.205 15.149c0.971-1.052 1.876-2.174 2.891-3.18 0.011 0.19 0.022 0.381 0.037 0.571-0.883 1.006-1.779 2.001-2.674 2.996-0.085-0.129-0.17-0.258-0.254-0.387z"></path>
<path fill="#7f7f7f" d="M8.686 12.766c0.096-0.112 0.194-0.223 0.292-0.333 0.099 0.114 0.199 0.227 0.3 0.341-0.090 0.105-0.18 0.21-0.272 0.313-0.106-0.107-0.213-0.214-0.32-0.321z"></path>
<path fill="#7f7f7f" d="M7.272 14.358c0.242-0.354 0.59-0.633 0.858-0.972 0.105 0.107 0.21 0.214 0.316 0.322-0.64 0.679-1.206 1.437-1.901 2.059 0.206-0.489 0.562-0.902 0.726-1.409z"></path>
<path fill="#7f7f7f" d="M6.583 13.865c0.094-0.109 0.194-0.217 0.332-0.27-0.184 0.463-0.516 0.851-0.677 1.325-0.529 0.635-1.114 1.236-1.655 1.866-0.106-0.105-0.212-0.21-0.318-0.314 0.762-0.878 1.551-1.733 2.318-2.606z"></path>
<path fill="#7f7f7f" d="M4.89 17.012c0.328-0.368 0.657-0.734 0.983-1.103 0.127 0.162 0.325 0.141 0.506 0.108-0.358 0.41-0.719 0.818-1.087 1.218-0.134-0.074-0.268-0.149-0.402-0.223z"></path>
</svg>
