<svg xmlns="http://www.w3.org/2000/svg" width="24" height="24">
    <path d="M0 0h10.983C9.078.199 7.2.788 5.585 1.831A12.06 12.06 0 0 0 .427 8.724C.208 9.463.102 10.227 0 10.989V0zM13.01 0H24v10.984c-.228-2.277-1.055-4.504-2.469-6.313-1.789-2.338-4.462-3.983-7.362-4.5C13.786.095 13.395.067 13.01 0z"/>
    <path d="M11.408 1.195a10.809 10.809 0 0 1 5.092.962 10.862 10.862 0 0 1 5.742 6.347c.943 2.73.725 5.835-.598 8.404-1.268 2.507-3.55 4.479-6.219 5.358-1.916.641-4.012.73-5.974.251-2.864-.678-5.4-2.594-6.85-5.153-1.616-2.787-1.87-6.308-.683-9.302a10.86 10.86 0 0 1 6.009-6.088 10.793 10.793 0 0 1 3.48-.779zM7.153 7.297c-.927.66-1.268 1.884-1.116 2.973.059.723.545 1.31 1.099 1.734a2.988 2.988 0 0 0-1.419 2.386c-.098 1.209.288 2.552 1.327 3.269.776.537 1.832.592 2.692.234 1.019-.448 1.651-1.526 1.746-2.61.082-.713.014-1.468-.328-2.11-.25-.477-.647-.863-1.102-1.145.463-.359.911-.804 1.052-1.392.276-1.144.006-2.501-.949-3.261-.839-.665-2.129-.693-3.002-.078zm7.675-.389c-.867.177-1.467.952-1.777 1.737-.434 1.191-.544 2.472-.554 3.731-.003 1.091.056 2.192.328 3.253.189.706.479 1.422 1.023 1.932.799.758 2.196.745 2.977-.034.518-.5.802-1.187.99-1.87.274-1.038.337-2.118.335-3.188-.006-1.077-.081-2.163-.367-3.205-.178-.627-.423-1.264-.882-1.741-.518-.56-1.335-.776-2.072-.615z"/>
    <path d="M8.365 8.14c.488-.075 1.031.08 1.338.484.446.594.472 1.46.145 2.114-.389.776-1.539.949-2.175.387-.636-.583-.672-1.635-.265-2.357.206-.338.563-.581.958-.627zM15.114 8.141c.416-.081.858.092 1.118.424.33.405.479.924.587 1.427.206 1.03.214 2.087.193 3.135-.032.82-.09 1.65-.318 2.443-.125.406-.299.823-.63 1.106-.397.345-1.046.371-1.452.026-.401-.34-.578-.862-.708-1.355-.262-1.094-.277-2.228-.263-3.347.03-.861.086-1.733.341-2.561.171-.556.503-1.188 1.132-1.297zM8.221 12.679c.5-.097 1.058-.005 1.448.339.593.502.76 1.337.679 2.078-.054.63-.37 1.27-.938 1.583-.592.313-1.389.267-1.895-.192-.558-.496-.73-1.289-.668-2.007.043-.796.544-1.643 1.373-1.802zM0 13.017c.106.784.217 1.571.448 2.331.848 2.965 2.897 5.555 5.572 7.085 1.517.882 3.231 1.385 4.971 1.567H0V13.017zM23.821 14.208c.081-.397.11-.801.179-1.2v10.991H13.016c2.234-.223 4.416-1.023 6.206-2.388 2.381-1.783 4.066-4.474 4.599-7.404z"/>
    <path fill="red" d="M10.983 0h2.027c.385.067.775.094 1.159.171 2.9.517 5.573 2.163 7.362 4.5C22.945 6.48 23.773 8.706 24 10.984v2.025c-.069.398-.098.803-.179 1.2-.532 2.93-2.218 5.621-4.599 7.404-1.79 1.365-3.973 2.165-6.206 2.388h-2.025c-1.74-.182-3.454-.685-4.971-1.567-2.674-1.53-4.724-4.12-5.572-7.085C.217 14.59.106 13.803 0 13.018V10.99c.102-.762.208-1.526.427-2.265a12.053 12.053 0 0 1 5.158-6.893C7.2.789 9.078.2 10.983.001zm.425 1.195a10.756 10.756 0 0 0-3.48.779 10.86 10.86 0 0 0-6.009 6.088c-1.187 2.993-.933 6.515.683 9.302 1.449 2.559 3.986 4.475 6.85 5.153 1.963.48 4.058.39 5.974-.251 2.669-.879 4.951-2.851 6.219-5.358 1.322-2.569 1.54-5.674.598-8.404a10.862 10.862 0 0 0-5.742-6.347 10.82 10.82 0 0 0-5.092-.962z"/>
    <path fill="#fff" d="M7.153 7.297c.874-.615 2.163-.587 3.002.078.955.76 1.225 2.117.949 3.261-.142.588-.589 1.034-1.052 1.392.455.282.852.668 1.102 1.145.342.642.411 1.397.328 2.11-.094 1.084-.727 2.162-1.746 2.61-.86.358-1.917.302-2.692-.234-1.039-.716-1.425-2.06-1.327-3.269a2.99 2.99 0 0 1 1.419-2.386c-.554-.424-1.041-1.012-1.099-1.734-.152-1.089.189-2.314 1.116-2.973zm1.212.843a1.321 1.321 0 0 0-.958.627c-.407.722-.37 1.774.265 2.357.636.562 1.786.39 2.175-.387.327-.654.301-1.52-.145-2.114-.307-.404-.85-.558-1.338-.484zm-.144 4.539c-.829.159-1.33 1.006-1.373 1.802-.062.718.11 1.511.668 2.007.505.459 1.303.505 1.895.192.568-.313.884-.953.938-1.583.081-.741-.086-1.576-.679-2.078-.39-.345-.948-.436-1.448-.339zM14.828 6.908c.737-.161 1.554.056 2.072.615.459.477.704 1.114.882 1.741.286 1.042.361 2.129.367 3.205.002 1.069-.06 2.15-.335 3.188-.188.683-.472 1.37-.99 1.87-.781.779-2.178.791-2.977.034-.544-.51-.834-1.225-1.023-1.932-.271-1.061-.331-2.162-.328-3.253.01-1.259.12-2.54.554-3.731.31-.785.909-1.56 1.777-1.737zm.286 1.233c-.63.109-.961.741-1.132 1.297-.255.828-.311 1.7-.341 2.561-.014 1.119.001 2.253.263 3.347.13.493.307 1.014.708 1.355.405.345 1.055.319 1.452-.026.331-.283.505-.699.63-1.106.229-.793.286-1.622.318-2.443.021-1.047.013-2.104-.193-3.135-.108-.503-.256-1.021-.587-1.427a1.162 1.162 0 0 0-1.118-.424z"/>
</svg>
