<svg xmlns="http://www.w3.org/2000/svg" width="24" height="24">
    <path fill="#050505" opacity=".93" d="M1.286 0h21.406c.394.112.754.337.96.698-.404-.257-.821-.563-1.326-.535C15.443.158 8.558.158 1.674.164.842.103.103.842.166 1.674c-.002 6.884-.002 13.768 0 20.652-.03.491.254.904.522 1.286a21.435 21.435 0 0 0-.246-.05A8.482 8.482 0 0 1 0 22.71V1.301A1.845 1.845 0 0 1 1.286 0z"/>
    <path fill="#fff" d="M.166 1.674C.104.842.843.103 1.674.164 8.558.158 15.443.158 22.326.163c.505-.028.922.278 1.326.535.084.401.191.802.181 1.214-.007 6.804.002 13.608-.004 20.412.059.828-.677 1.561-1.504 1.505-6.402.002-12.804 0-19.206.001-.815-.011-1.656.091-2.432-.218-.268-.383-.552-.796-.522-1.286-.002-6.884-.002-13.768 0-20.652zM1.357.53C.827.616.459 1.144.5 1.671v20.658c-.056.643.528 1.225 1.171 1.166h20.658c.642.056 1.219-.527 1.165-1.166-.001-6.924.008-13.849-.005-20.773.016-.667-.652-1.138-1.282-1.061C15.258.52 8.303.449 1.356.53z"/>
    <path fill="#fff" d="M1.081 1.668a.526.526 0 0 1 .588-.592c6.887-.007 13.775-.008 20.662.001a.527.527 0 0 1 .586.589c.001 6.888.002 13.778-.001 20.666a.514.514 0 0 1-.583.578c-3.197.002-6.394 0-9.589 0l-.001-10.919-.577-.001-.001 10.92H1.67a.514.514 0 0 1-.587-.578c-.004-6.889-.004-13.777 0-20.665zM5.99 4.567c.1.568.782.082 1.127.031.016 1.039-.036 2.08.042 3.116-.853-.392-1.794-.528-2.725-.521.074-.382.463-.884.03-1.171-.934.572-1.814 1.226-2.722 1.838.916.602 1.788 1.271 2.724 1.843.431-.299.035-.803-.035-1.19 1.717-.109 3.473.826 4.222 2.396.781 1.517.498 3.431-.576 4.734-1.088 1.478-.989 3.377-.96 5.116h1.324c.047-1.142-.15-2.33.253-3.428.282-.85.962-1.483 1.283-2.315.818-1.867.48-4.142-.79-5.726-1.043-1.346-.685-3.119-.746-4.693.323.102.644.205.971.293.056-.15.236-.314.086-.468-.556-.85-1.15-1.676-1.718-2.519-.588.893-1.25 1.741-1.789 2.664zm12.893 5.803c-.362.378.294.725.475 1.032-1.559.497-2.92 1.728-3.271 3.367-.238 1.18-.077 2.395-.124 3.59h1.324c.047-1.118-.109-2.255.109-3.359.277-1.216 1.354-2.015 2.483-2.389.035.323.071.647.115.97l.307.124c.654-.886 1.192-1.85 1.787-2.777-1.072-.152-2.129-.488-3.205-.558zm-14.403.837c-.802.136-1.406.936-1.322 1.744.044.833.806 1.546 1.643 1.52.878.029 1.664-.76 1.649-1.634.048-1.012-.986-1.859-1.969-1.63zm9.847 8.041c-.865.226-.871 1.406-.646 2.104.168.773 1.394.835 1.609.061.328-.77.176-2.33-.964-2.165zm1.517.026l.001 2.646.416-.001.001-1.788c.486.569.575 1.669 1.381 1.823.006-.894.001-1.788.002-2.682h-.418l-.001 1.692c-.326-.565-.643-1.135-.974-1.698l-.409.008zm2.247.004v2.647l1.643-.001c-.001-.097-.002-.292-.004-.389h-1.222l-.001-2.257h-.416zm1.753-.01c.521.812 1.169 1.618.934 2.652h.42c-.233-1.03.403-1.837.92-2.648l-.493.001-.643 1.02c-.21-.336-.42-.673-.623-1.014l-.515-.011z"/>
    <path fill="#fff" d="M14.312 19.7c.996-.245.967 2.062-.018 1.796-.438-.445-.438-1.367.018-1.796z"/>
    <path d="M1.357.53C8.304.45 15.259.52 22.208.495c.63-.077 1.297.394 1.282 1.061.013 6.924.004 13.849.005 20.773.054.64-.523 1.223-1.165 1.166H1.672c-.643.059-1.228-.523-1.171-1.166V1.671C.46 1.144.827.616 1.358.53zm-.276 1.138c-.004 6.888-.004 13.776 0 20.665-.05.34.25.63.587.578h10.495l.001-10.92.577.001.001 10.919c3.196 0 6.392.002 9.589 0 .336.05.63-.241.583-.578.004-6.888.002-13.778.001-20.666a.526.526 0 0 0-.586-.589 8370.95 8370.95 0 0 0-20.662-.001.526.526 0 0 0-.588.592z"/>
    <path d="M5.99 4.567c.539-.923 1.201-1.771 1.789-2.664.569.842 1.163 1.669 1.718 2.519.15.154-.03.318-.086.468-.326-.088-.648-.191-.971-.293.061 1.574-.296 3.347.746 4.693 1.27 1.584 1.608 3.859.79 5.726-.32.832-1.001 1.465-1.283 2.315-.403 1.098-.206 2.286-.253 3.428H7.116c-.029-1.739-.128-3.637.96-5.116 1.074-1.303 1.357-3.217.576-4.734-.749-1.571-2.504-2.506-4.222-2.396.07.388.466.892.035 1.19-.936-.572-1.808-1.241-2.724-1.843.907-.612 1.788-1.266 2.722-1.838.433.287.044.79-.03 1.171.931-.007 1.872.128 2.725.521-.078-1.037-.026-2.077-.042-3.116-.344.05-1.027.536-1.127-.031zM18.883 10.37c1.076.07 2.134.406 3.205.558-.595.926-1.133 1.891-1.787 2.777l-.307-.124c-.044-.323-.08-.647-.115-.97-1.129.374-2.206 1.174-2.483 2.389-.218 1.104-.062 2.24-.109 3.359h-1.324c.047-1.195-.114-2.411.124-3.59.352-1.639 1.712-2.87 3.271-3.367-.181-.307-.838-.654-.475-1.032z"/>
    <path d="M4.48 11.207c.983-.229 2.017.618 1.969 1.63.016.875-.77 1.663-1.649 1.634-.836.025-1.598-.688-1.643-1.52-.084-.808.521-1.608 1.322-1.744zM14.327 19.248c1.14-.166 1.291 1.394.964 2.165-.215.774-1.441.712-1.609-.061-.226-.697-.22-1.878.646-2.104zm-.015.452c-.456.43-.456 1.351-.018 1.796.985.265 1.014-2.041.018-1.796zM15.844 19.274l.409-.008c.331.563.648 1.133.974 1.698l.001-1.692h.418c-.001.894.004 1.788-.002 2.682-.806-.154-.895-1.254-1.381-1.823l-.001 1.788-.416.001-.001-2.646zM18.091 19.278h.416l.001 2.257h1.222c.001.097.002.292.004.389l-1.643.001v-2.647zM19.844 19.268l.515.011c.203.341.413.678.623 1.014.215-.34.43-.68.643-1.02l.493-.001c-.517.811-1.153 1.619-.92 2.648h-.42c.235-1.034-.413-1.84-.934-2.652z"/>
    <path fill="#080808" opacity=".9" d="M23.652.698c.12.185.239.371.348.563v21.425A1.878 1.878 0 0 1 22.715 24H1.272a3.633 3.633 0 0 1-.584-.388c.776.31 1.618.208 2.432.218 6.402-.001 12.804.001 19.206-.001.827.056 1.562-.677 1.504-1.505.006-6.804-.004-13.608.004-20.412.01-.413-.097-.814-.181-1.214z"/>
</svg>
