<svg xmlns="http://www.w3.org/2000/svg" width="24" height="24">
    <path d="M2.006 0h19.983c.505.143.839.653.834 1.168v21.665c.005.514-.329 1.021-.831 1.168H2.012c-.505-.143-.841-.653-.835-1.168V1.168C1.17.655 1.505.148 2.006 0zm.749 1.957c-.46.393-.484 1.193-.022 1.593.459.41 1.119.437 1.622.769.316.191.268.721-.072.86-.511.241-1.131-.064-1.335-.571-.239.088-.479.173-.716.266.329 1.192 2.086 1.521 2.868.603.377-.481.345-1.273-.14-1.672-.385-.325-.887-.444-1.348-.62-.166-.069-.353-.159-.419-.34a.378.378 0 0 1 .208-.432c.384-.164.913-.042 1.087.367.231-.075.462-.151.691-.231-.255-1.026-1.699-1.223-2.427-.592zm3.644-.31c-.004 1.419-.003 2.838-.001 4.258.258.003.516.001.773.001V4.313c.431-.011.864.023 1.294-.023.489-.06.936-.409 1.075-.888.239-.682-.141-1.554-.886-1.696-.743-.125-1.505-.033-2.256-.059zm4.074.005c-.006 1.417-.002 2.835-.001 4.252.974.003 1.948.002 2.922 0 0-.246.003-.491-.003-.736-.715-.008-1.43 0-2.144-.004V4.077c.413-.002.827 0 1.24-.001 0-.245.003-.49-.002-.735-.413-.007-.825 0-1.238-.004v-.948c.672-.002 1.343.001 2.015-.001 0-.245.003-.491-.002-.736-.929-.006-1.858-.004-2.786-.001zm3.922.002c-.007 1.417-.001 2.835-.003 4.252h2.92c.002-.246.004-.492-.001-.739-.713-.002-1.427.001-2.141-.001V4.079l1.236-.001c0-.246.002-.491-.001-.736-.412-.004-.823 0-1.234-.002v-.948c.671-.003 1.342.003 2.013-.003.005-.245.005-.491 0-.736-.93-.003-1.859-.006-2.788.001zm3.915-.003a603.22 603.22 0 0 0 0 4.254c.806-.041 1.684.146 2.422-.27.717-.402 1.008-1.287.939-2.07-.038-.687-.393-1.396-1.037-1.698-.726-.341-1.55-.18-2.324-.216zM4.233 6.567c-.002 1.416-.001 2.832 0 4.247.937.002 1.875.001 2.812 0v-.742c-.679-.002-1.358 0-2.037-.001-.002-1.168.001-2.336-.002-3.504a39.836 39.836 0 0 0-.773 0zm3.691-.007v4.254c.258.002.515.001.772 0V6.559a99.33 99.33 0 0 0-.772 0zm2.032 0c-.002 1.418-.002 2.836 0 4.254.258.002.516.001.773 0-.003-.853.011-1.706-.008-2.559.384.893.783 1.779 1.176 2.668.389-.892.81-1.77 1.171-2.674-.017.855-.005 1.711-.008 2.566h.77V6.56a92.256 92.256 0 0 0-.744 0c-.396.905-.809 1.802-1.184 2.715-.373-.914-.785-1.81-1.177-2.715h-.77zm5.137 0v4.255h.77c.002-1.418.001-2.837 0-4.255a98.817 98.817 0 0 0-.77 0zm1.763-.003c-.001.248-.002.495 0 .743h1.192c.002 1.172-.001 2.343.001 3.515h.772c.001-1.171-.001-2.343.001-3.514.398-.002.795 0 1.193-.001v-.743a1662.16 1662.16 0 0 0-3.158 0zM5.785 13.378c-.618.357-1.111.939-1.319 1.627.377.176.76.341 1.139.514.191-.666.715-1.248 1.415-1.377.773-.172 1.714-.054 2.229.608.492.623.38 1.568-.142 2.138-.588.677-1.414 1.066-2.152 1.549-.81.527-1.565 1.184-2.045 2.034-.417.727-.599 1.572-.593 2.406h6.649c0-.413.003-.826-.002-1.239-1.723-.002-3.445.001-5.168-.002.132-.648.555-1.197 1.056-1.612 1.062-.899 2.459-1.361 3.371-2.443.774-.897.863-2.278.299-3.303-.379-.687-1.095-1.134-1.85-1.296-.966-.202-2.023-.109-2.886.396zm7.962-.308a926.09 926.09 0 0 0-.581 4.982c.394.139.788.28 1.185.413.065.031.105-.042.148-.075.528-.528 1.308-.745 2.04-.701.555.034 1.108.298 1.429.762.583.839.491 2.107-.274 2.805-.593.57-1.47.719-2.262.607-.696-.069-1.335-.408-1.847-.874-.255.328-.515.653-.762.987.802.786 1.972 1.079 3.067 1.088 1.097.046 2.242-.359 2.969-1.202 1.093-1.226 1.1-3.291-.053-4.48-1.104-1.148-3.057-1.198-4.317-.28.124-.949.244-1.899.368-2.848 1.391-.002 2.782 0 4.173-.001.002-.395.002-.789 0-1.184h-5.284z"/>
    <path d="M7.172 2.391c.413.014.831-.03 1.241.025.531.121.524.998 0 1.126-.409.056-.827.011-1.24.024-.002-.392-.001-.784 0-1.176zM19.082 2.391c.415.024.875-.084 1.248.15.411.265.555.79.547 1.254.002.461-.162.976-.578 1.223-.367.223-.811.125-1.216.146V2.389z"/>
    <path fill="#fff" d="M2.755 1.957c.728-.631 2.172-.434 2.427.592-.23.079-.461.155-.691.231-.175-.409-.704-.53-1.088-.367a.376.376 0 0 0-.208.432c.066.181.253.271.419.34.46.176.963.295 1.348.62.484.399.517 1.191.14 1.672-.782.918-2.539.589-2.868-.603.237-.093.477-.179.716-.266.204.507.824.812 1.335.571.339-.139.388-.668.072-.86-.503-.331-1.163-.359-1.622-.769-.462-.4-.438-1.2.022-1.593zM6.399 1.647c.751.026 1.513-.067 2.256.059.745.142 1.125 1.014.886 1.696-.139.479-.585.828-1.075.888-.43.046-.863.012-1.294.023v1.593c-.258 0-.516.002-.773-.001-.002-1.419-.003-2.838.001-4.258zm.773.744v1.176c.413-.014.832.031 1.24-.024.524-.128.531-1.005 0-1.126-.41-.055-.828-.011-1.241-.025zM10.473 1.652c.929-.003 1.858-.005 2.786.001.005.246.002.491.002.736-.672.002-1.343 0-2.015.001v.948c.413.003.825-.003 1.238.004.005.245.002.49.002.735-.413.001-.827-.001-1.24.001v1.087c.714.003 1.429-.004 2.144.004.006.245.002.491.003.736-.974.001-1.948.002-2.922 0-.001-1.418-.004-2.835.001-4.253zM14.395 1.654c.93-.007 1.859-.004 2.788-.001.004.245.005.491 0 .736-.671.006-1.342 0-2.013.003v.948c.411.002.823-.001 1.234.002.003.245.001.491.001.736l-1.236.001v1.087c.713.002 1.427-.001 2.141.001.005.247.003.493.001.739-.974.002-1.947.001-2.92 0 .001-1.417-.004-2.835.003-4.252zM18.31 1.651c.773.037 1.598-.125 2.324.216.645.302.999 1.011 1.037 1.698.069.783-.222 1.667-.939 2.07-.738.416-1.616.229-2.422.27a670.243 670.243 0 0 1 0-4.254zm.772.74v2.775c.405-.021.849.077 1.216-.146.417-.247.581-.762.578-1.223.008-.465-.136-.99-.547-1.254-.373-.234-.833-.127-1.248-.15zM4.233 6.567c.258-.003.516-.002.773 0 .003 1.168 0 2.336.002 3.504.679.002 1.358 0 2.037.001v.742H4.233c-.001-1.416-.002-2.832 0-4.247zM7.924 6.56h.772v4.255h-.772V6.561zM9.956 6.56c.256-.002.513-.001.77 0 .392.905.804 1.802 1.177 2.715.375-.914.788-1.811 1.184-2.715h.744v4.255h-.77c.002-.855-.01-1.711.008-2.566-.361.904-.782 1.782-1.171 2.674-.393-.889-.792-1.775-1.176-2.668.019.853.005 1.706.008 2.559-.258.001-.516.002-.773 0-.002-1.418-.002-2.836 0-4.254zM15.093 6.56h.77c.001 1.418.002 2.837 0 4.255h-.77V6.56zM16.856 6.557h3.158V7.3c-.398.001-.795-.001-1.193.001-.002 1.171 0 2.343-.001 3.514h-.772c-.002-1.172.001-2.343-.001-3.515h-1.192c-.002-.248-.001-.495 0-.743zM5.785 13.378c.862-.505 1.92-.598 2.886-.396.755.162 1.471.609 1.85 1.296.564 1.025.475 2.406-.299 3.303-.912 1.082-2.309 1.544-3.371 2.443-.501.414-.923.963-1.056 1.612 1.723.003 3.446 0 5.168.002.005.413.002.826.002 1.239a7368.2 7368.2 0 0 1-6.649 0c-.006-.834.176-1.679.593-2.406.48-.85 1.235-1.507 2.045-2.034.738-.483 1.564-.872 2.153-1.549.522-.57.634-1.515.142-2.138-.515-.662-1.456-.78-2.229-.608-.7.129-1.224.711-1.415 1.377-.379-.173-.762-.338-1.139-.514.208-.687.701-1.269 1.319-1.627zM13.747 13.07c1.762-.002 3.523-.001 5.284 0 .001.394.002.789 0 1.184-1.391.001-2.782-.001-4.173.001-.125.949-.244 1.899-.368 2.848 1.26-.918 3.213-.868 4.317.28 1.153 1.189 1.146 3.254.053 4.48-.727.843-1.871 1.249-2.969 1.202-1.095-.009-2.265-.302-3.068-1.088.247-.334.507-.659.762-.987.512.465 1.151.804 1.847.874.791.112 1.668-.036 2.262-.607.765-.699.857-1.967.274-2.805-.321-.464-.873-.728-1.429-.762-.733-.044-1.512.172-2.04.701-.043.033-.083.107-.148.075-.396-.133-.79-.274-1.185-.413.19-1.661.382-3.322.581-4.982zm.331 8.361c.023.024.023.024 0 0z"/>
    <path fill="#c1c1c1" d="M14.078 21.431c.023.024.023.024 0 0z"/>
</svg>
