<?xml version="1.0" encoding="utf-8"?>
<!-- Generated by IcoMoon.io -->
<!DOCTYPE svg PUBLIC "-//W3C//DTD SVG 1.1//EN" "http://www.w3.org/Graphics/SVG/1.1/DTD/svg11.dtd">
<svg version="1.1" xmlns="http://www.w3.org/2000/svg" xmlns:xlink="http://www.w3.org/1999/xlink" width="24" height="24" viewBox="0 0 24 24">
<path fill="#c0111e" d="M6.018 1.583c2.473-1.427 5.466-1.907 8.266-1.363 3.013 0.553 5.768 2.342 7.523 4.849 1.36 1.906 2.11 4.222 2.194 6.557v0.719c-0.089 2.974-1.307 5.9-3.394 8.024-2.098 2.184-5.050 3.48-8.068 3.631h-1.056c-2.514-0.128-4.991-1.025-6.958-2.605-2.762-2.167-4.457-5.603-4.525-9.112v-0.548c0.041-1.457 0.324-2.911 0.878-4.26 0.988-2.467 2.833-4.574 5.14-5.892M10.622 2.382c-2.722 0.37-5.244 1.961-6.739 4.265-1.342 2.012-1.861 4.537-1.471 6.919 0.352 2.222 1.511 4.307 3.217 5.773 1.562 1.361 3.571 2.204 5.64 2.344 2.244 0.18 4.541-0.456 6.368-1.77 1.74-1.226 3.048-3.049 3.658-5.087 0.655-2.158 0.535-4.543-0.344-6.619-0.718-1.702-1.93-3.188-3.455-4.229-1.984-1.37-4.492-1.936-6.874-1.596z"></path>
<path fill="#fff" d="M10.622 2.382c2.382-0.34 4.89 0.226 6.874 1.596 1.525 1.040 2.737 2.527 3.455 4.229 0.88 2.076 1 4.462 0.344 6.619-0.61 2.038-1.918 3.86-3.658 5.087-1.828 1.314-4.124 1.95-6.368 1.77-2.069-0.139-4.078-0.983-5.64-2.344-1.706-1.466-2.866-3.551-3.217-5.773-0.39-2.382 0.13-4.907 1.471-6.919 1.495-2.304 4.018-3.895 6.739-4.265M3.383 8.904c0 0.349 0 0.698 0 1.048 0.547 0.001 1.094 0 1.64 0.001 0.001 1.711 0 3.422 0.001 5.135 0.372 0.001 0.745 0 1.117 0 0.002-1.711 0-3.424 0.001-5.135 0.546-0.001 1.091 0 1.637-0.001 0-0.349 0-0.698 0-1.048-1.465 0-2.93 0-4.397 0M9.52 8.905c-0.716 2.062-1.44 4.12-2.152 6.182 0.395 0 0.79 0.001 1.184-0.001 0.15-0.468 0.3-0.935 0.456-1.399 0.737 0.002 1.474-0.002 2.21 0.002 0.16 0.464 0.323 0.929 0.478 1.394 0.406 0.007 0.812 0.004 1.218 0.005-0.736-2.064-1.474-4.126-2.216-6.186-0.394 0.002-0.786 0-1.178 0.002M13.123 8.904c0.572 0.988 1.146 1.974 1.715 2.964-0.631 1.072-1.265 2.143-1.888 3.22 0.446 0 0.893 0.001 1.339 0 0.406-0.714 0.817-1.424 1.229-2.135 0.404 0.713 0.821 1.418 1.22 2.134 0.449 0.004 0.899 0.001 1.348 0.001-0.622-1.062-1.254-2.119-1.886-3.178 0.569-1.004 1.146-2.005 1.723-3.005-0.432-0.001-0.865-0.002-1.297 0-0.365 0.661-0.726 1.324-1.086 1.986-0.371-0.662-0.737-1.328-1.114-1.987-0.434 0-0.869 0-1.303 0M18.631 8.904c0 2.062 0 4.123 0 6.184 0.372 0 0.744 0 1.116 0 0.001-2.062 0-4.122 0.001-6.184-0.373 0-0.745 0-1.117 0z"></path>
<path fill="#fff" d="M9.35 12.64c0.251-0.761 0.487-1.526 0.75-2.284 0.254 0.761 0.506 1.523 0.758 2.284-0.503 0.001-1.006 0.001-1.508 0z"></path>
<path fill="#000" d="M3.383 8.904c1.466 0 2.932 0 4.397 0 0 0.349 0 0.698 0 1.048-0.546 0.001-1.091 0-1.637 0.001-0.001 1.711 0.001 3.424-0.001 5.135-0.372 0-0.745 0.001-1.117 0-0.001-1.712 0-3.424-0.001-5.135-0.546-0.001-1.093 0-1.64-0.001 0-0.349 0-0.698 0-1.048z"></path>
<path fill="#000" d="M9.52 8.905c0.392-0.002 0.785 0 1.178-0.002 0.743 2.060 1.481 4.122 2.216 6.186-0.406-0.001-0.812 0.002-1.218-0.005-0.155-0.466-0.318-0.93-0.478-1.394-0.737-0.005-1.474 0-2.21-0.002-0.156 0.464-0.306 0.931-0.456 1.399-0.395 0.002-0.79 0.001-1.184 0.001 0.712-2.063 1.435-4.121 2.152-6.182M9.35 12.64c0.503 0.001 1.006 0.001 1.508 0-0.252-0.761-0.504-1.523-0.758-2.284-0.263 0.757-0.499 1.523-0.75 2.284z"></path>
<path fill="#000" d="M13.123 8.904c0.434 0 0.869 0 1.303 0 0.377 0.659 0.743 1.325 1.114 1.987 0.36-0.662 0.721-1.325 1.086-1.986 0.432-0.002 0.865-0.001 1.297 0-0.577 1-1.154 2-1.723 3.005 0.632 1.058 1.265 2.116 1.886 3.178-0.449 0-0.899 0.002-1.348-0.001-0.4-0.715-0.816-1.421-1.22-2.134-0.412 0.71-0.823 1.421-1.229 2.135-0.446 0.001-0.893 0-1.339 0 0.623-1.076 1.256-2.148 1.888-3.22-0.569-0.99-1.142-1.976-1.715-2.964z"></path>
<path fill="#000" d="M18.631 8.904c0.372 0 0.744 0 1.117 0-0.001 2.062 0 4.122-0.001 6.184-0.372 0-0.744 0-1.116 0 0-2.060 0-4.122 0-6.184z"></path>
</svg>
