<!-- Generated by IcoMoon.io -->
<svg version="1.1" xmlns="http://www.w3.org/2000/svg" width="24" height="24" viewBox="0 0 24 24">
<title>regulatory--end-of-maximum-speed-limit-65--g2</title>
<path fill="#000" d="M10.981 0h2.027c0.208 0.050 0.422 0.053 0.632 0.087 3.077 0.405 5.954 2.078 7.849 4.532 1.439 1.817 2.28 4.065 2.51 6.363v2.025c-0.185 1.74-0.679 3.459-1.57 4.973-1.8 3.177-5.12 5.441-8.744 5.926-0.222 0.037-0.45 0.039-0.668 0.094h-2.025c-1.74-0.181-3.456-0.684-4.974-1.567-2.662-1.524-4.707-4.098-5.56-7.048-0.238-0.77-0.351-1.57-0.459-2.366v-2.028c0.102-0.762 0.208-1.527 0.427-2.266 0.788-2.819 2.655-5.314 5.13-6.875 1.62-1.055 3.51-1.649 5.424-1.85M4.738 2.724c-2.408 1.869-4.041 4.708-4.421 7.734-0.438 3.195 0.521 6.541 2.578 9.024 0.694-0.826 1.393-1.65 2.079-2.482 0.481-0.561 0.955-1.129 1.426-1.697 0.693-0.818 1.383-1.641 2.069-2.466h0.002c0.439-0.525 0.885-1.045 1.318-1.575 1.028-1.23 2.087-2.45 3.084-3.696 0.634-0.699 1.224-1.442 1.833-2.165 1.040-1.215 2.050-2.46 3.096-3.669-1.643-0.91-3.499-1.454-5.382-1.507-2.75-0.112-5.525 0.791-7.682 2.499M19.193 6.803l0 0.030c-0.198 0.166-0.36 0.381-0.505 0.593l-0.023 0.002c-0.641 0.758-1.277 1.52-1.915 2.28-0.87 1.042-1.751 2.075-2.614 3.123-0.927 1.104-1.882 2.199-2.773 3.326-0.846 0.955-1.668 1.942-2.467 2.936-0.915 1.031-1.787 2.115-2.68 3.172 2.665 1.527 5.94 1.917 8.897 1.102 1.514-0.413 2.943-1.137 4.174-2.111 2.315-1.81 3.91-4.516 4.353-7.422 0.533-3.279-0.411-6.758-2.535-9.313-0.64 0.758-1.281 1.516-1.912 2.281z"></path>
<path fill="#fff" d="M4.738 2.724c2.158-1.708 4.932-2.611 7.682-2.499 1.883 0.054 3.738 0.597 5.382 1.507-1.046 1.209-2.056 2.453-3.096 3.669-0.608 0.013-1.216-0.001-1.824 0.007-0.030 0.718-0.010 1.439-0.009 2.158-0.998 1.246-2.056 2.467-3.084 3.696-0.623-0.315-1.37-0.366-2.028-0.131 0.811-1.911 1.648-3.81 2.456-5.722-0.647-0.001-1.295-0.012-1.942 0.005-1.033 2.35-2.040 4.713-3.062 7.067-0.662 1.395-0.771 3.065-0.24 4.519-0.686 0.833-1.385 1.656-2.079 2.482-2.056-2.482-3.016-5.829-2.578-9.024 0.38-3.027 2.014-5.865 4.421-7.734z"></path>
<path fill="#fff" d="M19.193 6.803c0.631-0.765 1.272-1.523 1.912-2.281 2.124 2.555 3.068 6.034 2.535 9.313-0.443 2.906-2.039 5.612-4.353 7.422-1.23 0.974-2.66 1.697-4.174 2.111-2.957 0.815-6.232 0.424-8.897-1.102 0.893-1.056 1.765-2.14 2.68-3.172 0.583-0.166 1.103-0.507 1.537-0.925 0.535-0.534 0.819-1.274 0.93-2.011 0.891-1.127 1.846-2.221 2.773-3.326 0.123 0.001 0.247 0.011 0.37-0.003 0.24-0.472 0.596-0.946 1.139-1.073 0.63-0.14 1.456 0.033 1.716 0.697 0.47 1.165 0.351 2.471 0.13 3.679-0.053 0.421-0.335 0.814-0.75 0.939-0.589 0.18-1.315 0.15-1.785-0.293-0.332-0.309-0.466-0.757-0.569-1.184-0.578-0.009-1.157-0.010-1.736 0 0.072 0.882 0.317 1.8 0.926 2.469 0.847 0.863 2.15 1.348 3.343 1.014 1.328-0.428 2.279-1.721 2.431-3.091 0.114-1.074 0.109-2.163-0.001-3.238-0.129-1.41-1.131-2.837-2.602-3.040 0.638-0.76 1.274-1.522 1.915-2.28l0.023-0.002c0.169 0 0.338 0.008 0.508-0.002 0.012-0.197 0.007-0.395-0.002-0.591l-0-0.030z"></path>
<path fill="#fff" d="M6.911 13.286c0.382-0.433 1.006-0.579 1.558-0.449-0.686 0.825-1.376 1.647-2.069 2.466-0.026-0.695 0.023-1.474 0.511-2.017z"></path>
<path fill="#808080" d="M8.275 5.414c0.646-0.017 1.295-0.007 1.942-0.005-0.809 1.912-1.645 3.811-2.456 5.722 0.659-0.235 1.405-0.184 2.028 0.131-0.433 0.53-0.878 1.050-1.318 1.575h-0.002c-0.552-0.131-1.176 0.015-1.558 0.449-0.488 0.543-0.537 1.322-0.511 2.017-0.472 0.569-0.945 1.136-1.426 1.697-0.532-1.454-0.422-3.124 0.24-4.519 1.023-2.355 2.030-4.717 3.062-7.067z"></path>
<path fill="#808080" d="M12.883 5.408c0.608-0.008 1.216 0.006 1.824-0.007-0.609 0.723-1.199 1.465-1.833 2.165-0.001-0.719-0.021-1.44 0.009-2.158z"></path>
<path fill="#808080" d="M18.688 7.426c0.146-0.213 0.308-0.428 0.505-0.593 0.009 0.196 0.015 0.394 0.002 0.591-0.169 0.011-0.338 0.003-0.508 0.002z"></path>
<path fill="#808080" d="M14.136 12.831c0.862-1.048 1.743-2.081 2.614-3.123 1.472 0.203 2.473 1.63 2.602 3.040 0.11 1.074 0.115 2.163 0.001 3.238-0.152 1.37-1.104 2.663-2.431 3.091-1.193 0.334-2.496-0.151-3.343-1.014-0.609-0.669-0.855-1.588-0.926-2.469 0.578-0.010 1.157-0.009 1.736-0 0.103 0.427 0.237 0.875 0.569 1.184 0.469 0.443 1.195 0.473 1.785 0.293 0.415-0.125 0.697-0.518 0.75-0.939 0.221-1.208 0.34-2.513-0.13-3.679-0.26-0.663-1.086-0.837-1.716-0.697-0.543 0.127-0.9 0.602-1.139 1.073-0.123 0.014-0.247 0.005-0.37 0.003z"></path>
<path fill="#808080" d="M8.896 19.093c0.799-0.994 1.621-1.981 2.467-2.936-0.111 0.737-0.395 1.477-0.93 2.011-0.434 0.418-0.955 0.758-1.538 0.925z"></path>
</svg>
