<!-- Generated by IcoMoon.io -->
<svg version="1.1" xmlns="http://www.w3.org/2000/svg" width="24" height="24" viewBox="0 0 24 24">
<title>regulatory--end-of-maximum-speed-limit-120--g2</title>
<path fill="#000" d="M10.974 0h2.043c0.424 0.075 0.854 0.104 1.275 0.194 2.842 0.538 5.455 2.16 7.217 4.451 1.425 1.811 2.258 4.045 2.49 6.33v2.040c-0.074 0.409-0.1 0.826-0.187 1.234-0.525 2.826-2.12 5.429-4.381 7.2-1.602 1.266-3.53 2.114-5.548 2.427-0.285 0.050-0.576 0.063-0.859 0.123h-2.041c-1.738-0.185-3.45-0.686-4.965-1.567-2.696-1.543-4.757-4.163-5.592-7.158-0.218-0.734-0.321-1.493-0.427-2.249v-2.043c0.104-0.759 0.208-1.521 0.427-2.258 0.791-2.829 2.67-5.332 5.158-6.893 1.613-1.042 3.488-1.629 5.389-1.831M9.065 0.585c-1.602 0.409-3.112 1.168-4.403 2.199-2.378 1.88-3.984 4.71-4.352 7.723-0.42 3.18 0.535 6.507 2.587 8.973 0.743-0.881 1.485-1.763 2.222-2.649 0.511-0.608 1.035-1.215 1.531-1.83 1.81-2.136 3.605-4.286 5.402-6.433 0.354-0.409 0.696-0.828 1.046-1.241 1.563-1.864 3.128-3.726 4.69-5.591-2.613-1.494-5.811-1.902-8.722-1.15M19.321 6.643c-0.374 0.446-0.749 0.892-1.122 1.339-0.587 0.713-1.208 1.406-1.771 2.134-0.529 0.578-1.020 1.197-1.523 1.797-1.234 1.455-2.453 2.922-3.682 4.381-0.487 0.58-0.974 1.161-1.461 1.741-1.182 1.41-2.367 2.816-3.545 4.228 2.674 1.537 5.967 1.92 8.932 1.094 1.511-0.418 2.936-1.145 4.163-2.12 2.392-1.881 4.007-4.721 4.376-7.743 0.421-3.179-0.534-6.506-2.584-8.973-0.598 0.705-1.188 1.415-1.784 2.122z"></path>
<path fill="#fff" d="M9.065 0.585c2.911-0.752 6.109-0.344 8.722 1.15-1.561 1.865-3.127 3.727-4.69 5.591-0.721-1.008-2.163-1.442-3.294-0.895-1.167 0.583-1.823 1.914-1.787 3.192 0.5 0.004 0.999 0.006 1.499-0.001 0.037-0.616 0.3-1.282 0.89-1.559 0.579-0.293 1.33-0.063 1.646 0.504-1.798 2.147-3.592 4.297-5.402 6.433-0.034-2.887-0.004-5.775-0.015-8.662-0.463-0.007-0.925-0.004-1.388-0.003-0.1-0.010-0.178 0.056-0.248 0.117-0.433 0.372-0.875 0.734-1.311 1.104-0.014 0.619-0.007 1.238-0.003 1.857 0.487-0.385 0.945-0.805 1.43-1.193 0.010 2.87 0 5.74 0.005 8.61-0.737 0.886-1.479 1.768-2.222 2.649-2.052-2.466-3.006-5.794-2.587-8.973 0.367-3.012 1.973-5.843 4.352-7.723 1.291-1.031 2.801-1.79 4.403-2.199z"></path>
<path fill="#fff" d="M19.321 6.643c0.595-0.707 1.185-1.417 1.784-2.122 2.050 2.467 3.005 5.794 2.584 8.973-0.369 3.023-1.984 5.863-4.376 7.743-1.227 0.975-2.652 1.702-4.163 2.12-2.966 0.826-6.259 0.442-8.932-1.094 1.178-1.412 2.363-2.819 3.545-4.228 1.354-0.009 2.709 0 4.063-0.005 0.010-0.577 0.007-1.154 0.002-1.731-0.868-0.009-1.736 0.003-2.604-0.006 1.229-1.459 2.448-2.926 3.682-4.381 0.036 1.029-0.008 2.060 0.023 3.090 0.031 0.824 0.29 1.68 0.9 2.262 0.75 0.789 1.976 1.093 2.989 0.666 0.777-0.326 1.426-0.979 1.688-1.787 0.285-0.804 0.199-1.667 0.212-2.504-0.008-1.47 0.016-2.94-0.012-4.41-0.030-1.022-0.527-2.016-1.385-2.588z"></path>
<path fill="#fff" d="M16.428 10.116c0.563-0.728 1.184-1.421 1.771-2.134 0.677 0.19 1.005 0.922 1.005 1.576 0.012 1.673 0.001 3.347 0.005 5.020-0.001 0.49-0.079 1.022-0.422 1.397-0.483 0.56-1.465 0.554-1.945-0.007-0.313-0.351-0.405-0.837-0.41-1.294-0.006-1.52 0.005-3.039-0.005-4.559z"></path>
<path fill="#808080" d="M9.803 6.43c1.131-0.547 2.573-0.113 3.294 0.895-0.35 0.412-0.692 0.832-1.046 1.241-0.316-0.567-1.067-0.797-1.646-0.504-0.59 0.277-0.854 0.943-0.89 1.559-0.5 0.007-0.999 0.005-1.499 0.001-0.037-1.278 0.62-2.609 1.787-3.192z"></path>
<path fill="#808080" d="M4.997 6.451c0.071-0.060 0.149-0.127 0.248-0.117 0.463-0 0.925-0.004 1.388 0.003 0.012 2.887-0.018 5.775 0.015 8.662-0.496 0.615-1.020 1.223-1.531 1.83-0.005-2.87 0.005-5.74-0.005-8.61-0.485 0.387-0.944 0.807-1.43 1.193-0.003-0.619-0.011-1.238 0.003-1.857 0.436-0.37 0.878-0.732 1.311-1.104z"></path>
<path fill="#808080" d="M18.199 7.982c0.373-0.447 0.748-0.893 1.122-1.339 0.858 0.572 1.355 1.566 1.385 2.588 0.028 1.47 0.004 2.94 0.012 4.41-0.013 0.836 0.073 1.7-0.212 2.504-0.262 0.808-0.911 1.461-1.688 1.787-1.013 0.427-2.24 0.123-2.989-0.666-0.61-0.582-0.869-1.439-0.9-2.262-0.031-1.030 0.013-2.061-0.023-3.090 0.503-0.6 0.994-1.219 1.523-1.797 0.010 1.52-0 3.039 0.005 4.559 0.004 0.457 0.097 0.943 0.41 1.294 0.48 0.561 1.462 0.566 1.945 0.007 0.343-0.375 0.421-0.907 0.422-1.397-0.004-1.673 0.007-3.347-0.005-5.020-0-0.655-0.329-1.387-1.005-1.576z"></path>
<path fill="#808080" d="M9.762 18.035c0.487-0.58 0.974-1.161 1.461-1.741 0.868 0.008 1.736-0.003 2.604 0.006 0.005 0.577 0.008 1.154-0.002 1.731-1.354 0.005-2.709-0.005-4.063 0.005z"></path>
</svg>
