<!-- Generated by IcoMoon.io -->
<svg version="1.1" xmlns="http://www.w3.org/2000/svg" width="24" height="24" viewBox="0 0 24 24">
<title>regulatory--no-hand-carts--g2</title>
<path fill="#c24836" d="M10.838 0.449c0.32-0.169 0.694-0.070 1.038-0.096 0.311 0.024 0.655-0.072 0.934 0.108 0.352 0.033 0.724-0.049 1.057 0.094 0.195 0.032 0.392 0.058 0.583 0.11 0.158 0.040 0.317 0.077 0.473 0.127 0.157 0.033 0.314 0.067 0.469 0.109 0.119 0.040 0.236 0.083 0.355 0.127 0.119 0.037 0.238 0.076 0.356 0.116 0.114 0.036 0.227 0.074 0.34 0.114 0.16 0.083 0.322 0.166 0.484 0.247 0.368 0.182 0.697 0.435 1.078 0.594 1.138 0.809 2.295 1.653 3.1 2.816 0.223 0.323 0.48 0.624 0.671 0.968 0.107 0.204 0.238 0.394 0.359 0.59 0.055 0.115 0.112 0.229 0.168 0.343 0.063 0.127 0.128 0.253 0.191 0.38 0.075 0.201 0.15 0.403 0.238 0.599 0.042 0.112 0.082 0.223 0.12 0.336 0.043 0.118 0.084 0.236 0.125 0.356 0.045 0.153 0.081 0.31 0.118 0.466 0.052 0.191 0.081 0.389 0.114 0.586 0.055 0.194 0.083 0.393 0.119 0.592 0.127 0.337 0.067 0.705 0.094 1.057 0.153 0.244 0.096 0.537 0.11 0.809-0.017 0.272 0.049 0.568-0.112 0.811-0.030 0.35 0.042 0.721-0.095 1.056-0.032 0.195-0.061 0.391-0.109 0.583-0.040 0.158-0.078 0.316-0.126 0.472-0.036 0.157-0.070 0.314-0.113 0.469-0.040 0.119-0.082 0.238-0.126 0.355-0.038 0.12-0.077 0.239-0.118 0.356-0.037 0.116-0.074 0.232-0.113 0.346-0.033 0.059-0.1 0.178-0.134 0.238-0.029 0.059-0.086 0.179-0.114 0.24-0.031 0.057-0.093 0.172-0.124 0.229-0.058 0.13-0.119 0.257-0.176 0.386-0.139 0.232-0.29 0.455-0.419 0.693-0.097 0.166-0.206 0.326-0.305 0.491-0.132 0.156-0.261 0.315-0.364 0.493-0.575 0.601-1.164 1.192-1.767 1.766-0.177 0.102-0.336 0.23-0.493 0.361-0.286 0.177-0.558 0.377-0.848 0.549-0.204 0.108-0.397 0.239-0.593 0.362-0.059 0.027-0.178 0.081-0.238 0.108-0.113 0.061-0.226 0.122-0.339 0.184-0.248 0.101-0.5 0.191-0.744 0.302-0.112 0.042-0.223 0.082-0.335 0.12-0.118 0.043-0.236 0.084-0.355 0.125-0.154 0.044-0.311 0.080-0.467 0.116-0.194 0.052-0.391 0.081-0.588 0.114-0.194 0.052-0.393 0.083-0.59 0.12-0.292 0.115-0.611 0.074-0.917 0.081-0.683-0.013-1.366 0.014-2.048-0.015-0.222-0.116-0.478-0.105-0.719-0.135-0.245-0.074-0.5-0.102-0.746-0.168-0.158-0.036-0.316-0.069-0.472-0.11-0.112-0.040-0.222-0.084-0.333-0.13-0.196-0.089-0.398-0.165-0.598-0.246-0.198-0.083-0.402-0.156-0.604-0.228-0.058-0.032-0.173-0.095-0.23-0.127-0.128-0.058-0.254-0.119-0.383-0.177-0.422-0.197-0.795-0.478-1.187-0.725-0.152-0.128-0.305-0.254-0.472-0.365-0.168-0.134-0.337-0.265-0.524-0.374 0-0.025-0.001-0.075-0.001-0.1-0.501-0.298-0.878-0.76-1.226-1.219-0.307-0.326-0.576-0.682-0.835-1.046-0.052-0.12-0.103-0.24-0.156-0.359-0.103-0.16-0.214-0.316-0.315-0.478-0.116-0.245-0.239-0.488-0.366-0.727-0.038-0.113-0.075-0.227-0.109-0.34-0.057-0.151-0.108-0.304-0.165-0.455-0.072-0.164-0.143-0.328-0.206-0.494-0.043-0.154-0.075-0.31-0.112-0.466-0.055-0.195-0.076-0.396-0.101-0.596-0.052-0.12-0.103-0.24-0.152-0.361-0.099-0.337-0.050-0.693-0.072-1.037-0.191-0.317-0.077-0.701-0.107-1.049 0.026-0.348-0.077-0.728 0.105-1.047 0.024-0.314-0.026-0.643 0.096-0.941 0.032-0.195 0.058-0.392 0.11-0.583 0.039-0.158 0.077-0.316 0.125-0.472 0.034-0.149 0.069-0.297 0.113-0.442 0.095-0.201 0.173-0.409 0.252-0.617 0.031-0.121 0.065-0.241 0.101-0.361 0.070-0.201 0.156-0.394 0.25-0.585 0.122-0.238 0.242-0.476 0.355-0.716 0.404-0.617 0.803-1.238 1.263-1.813 0.733-0.769 1.49-1.531 2.404-2.084 0.238-0.127 0.462-0.279 0.7-0.408 0.165-0.097 0.322-0.208 0.486-0.309 0.162-0.077 0.323-0.156 0.487-0.232 0.058-0.036 0.176-0.109 0.234-0.145 0.151-0.038 0.303-0.065 0.454-0.095 0.125-0.042 0.25-0.080 0.377-0.114 0.059-0.036 0.178-0.109 0.238-0.146 0.15-0.038 0.302-0.068 0.454-0.1 0.156-0.049 0.315-0.088 0.473-0.127 0.191-0.051 0.389-0.077 0.583-0.109 0.225-0.091 0.469-0.083 0.707-0.106M9.006 3.108c-1.024 0.383-2.035 0.886-2.84 1.638 0.17 0.232 0.379 0.43 0.583 0.631 1.501 1.429 2.865 2.995 4.373 4.416-0.61 0.233-1.211 0.488-1.802 0.763-1.248-1.373-2.607-2.642-3.909-3.964-0.19-0.188-0.373-0.393-0.608-0.526-2.476 2.843-2.81 7.265-0.948 10.517 0.866 1.539 2.179 2.818 3.74 3.644 3.128 1.785 7.32 1.426 10.098-0.866 0.134-0.086 0.149-0.261 0.012-0.35-1.454-1.507-2.885-3.037-4.411-4.47 0.090-0.364 0.042-0.744 0.116-1.11 0.291-0.189 0.619-0.311 0.931-0.461 0.438 0.517 0.942 0.972 1.408 1.464 1.142 1.155 2.255 2.337 3.403 3.485 2.481-2.901 2.855-7.369 0.915-10.653-1.224-2.078-3.267-3.668-5.588-4.328-1.788-0.465-3.732-0.504-5.474 0.17z"></path>
<path fill="#c24836" d="M9.764 11.025c0.6-0.265 1.194-0.542 1.798-0.796 0.668 0.689 1.364 1.349 2.026 2.042-0.198 0.068-0.391 0.175-0.605 0.183-0.326-0.349-0.602-0.77-1.056-0.966-0.558-0.312-1.219-0.316-1.831-0.191l-0.021-0.017c-0.103-0.086-0.207-0.171-0.31-0.255z"></path>
<path fill="#c24836" d="M10.704 11.928c1.139-0.076 2.122 0.974 2.073 2.095l-0.14-0.132c-0.667-0.632-1.267-1.331-1.933-1.963z"></path>
<path fill="#fff" d="M9.006 3.108c1.742-0.674 3.686-0.634 5.474-0.17 2.32 0.661 4.364 2.25 5.588 4.328 1.94 3.284 1.566 7.751-0.915 10.653-1.148-1.148-2.261-2.33-3.403-3.485-0.466-0.492-0.97-0.947-1.408-1.464 1.972-0.896 3.93-1.823 5.909-2.709-0.002-0.217-0.004-0.435-0.006-0.652-1.95 0.722-3.855 1.555-5.802 2.288-0.333-0.815-0.658-1.632-0.996-2.445 0.179-0.069 0.359-0.138 0.538-0.206-0.084-0.176-0.17-0.352-0.255-0.526-0.863 0.373-1.742 0.707-2.607 1.073-1.509-1.421-2.873-2.987-4.373-4.416-0.204-0.201-0.413-0.399-0.583-0.631 0.804-0.752 1.815-1.256 2.84-1.638z"></path>
<path fill="#fff" d="M4.804 6.067c0.235 0.133 0.418 0.339 0.608 0.526 1.302 1.321 2.661 2.59 3.909 3.964-1.473 0.604-2.937 1.233-4.422 1.808 0.050 0.194 0.102 0.386 0.154 0.58 0.279-0.105 0.56-0.21 0.839-0.316 0.377 0.84 0.724 1.695 1.049 2.557-0.608 0.29-1.22 0.575-1.837 0.847 0.198 0.187 0.399 0.372 0.6 0.556 0.918-0.392 1.827-0.81 2.758-1.175-0.095-0.22-0.182-0.444-0.299-0.653-0.236-0.020-0.455 0.087-0.677 0.15-0.301-0.86-0.644-1.705-0.933-2.57 0.55-0.232 1.107-0.449 1.667-0.657 0.102 0.326 0.396 0.671 0.215 1.018-0.247 0.568-0.39 1.208-0.209 1.818 0.259 1.145 1.387 2.079 2.583 1.97 1.149 0.008 2.179-0.859 2.486-1.947 1.527 1.433 2.957 2.963 4.411 4.47 0.137 0.089 0.122 0.265-0.012 0.35-2.778 2.292-6.97 2.651-10.098 0.866-1.561-0.826-2.874-2.105-3.74-3.644-1.862-3.252-1.528-7.674 0.948-10.517z"></path>
<path fill="#fff" d="M11.562 10.229c0.461-0.185 0.921-0.375 1.384-0.557 0.29 0.75 0.617 1.485 0.892 2.241 0.128 0.201-0.128 0.259-0.251 0.359-0.662-0.694-1.358-1.353-2.026-2.042z"></path>
<path fill="#fff" d="M8.781 11.462c0.324-0.152 0.651-0.299 0.983-0.437 0.103 0.084 0.207 0.17 0.31 0.255-0.386 0.183-0.749 0.413-1.062 0.707-0.078-0.175-0.157-0.349-0.23-0.525z"></path>
<path fill="#fff" d="M8.829 13.907c-0.029-1.013 0.848-1.983 1.875-1.979 0.667 0.632 1.267 1.331 1.933 1.963 0.032 0.031 0.096 0.093 0.128 0.124-0.083 0.719-0.518 1.391-1.182 1.7-0.428 0.225-0.924 0.181-1.388 0.133-0.795-0.295-1.403-1.075-1.366-1.94M10.383 13.268c-0.484 0.254-0.482 1.029 0 1.283 0.454 0.321 1.139-0.112 1.097-0.649 0.045-0.542-0.645-0.967-1.097-0.634z"></path>
<path fill="#fff" d="M23.43 14.993c0.075 0.087 0.075 0.087 0 0z"></path>
<path fill="#fff" d="M23.3 15.24c0.385 0.029-0.184 0.36 0 0z"></path>
<path fill="#fff" d="M7.147 22.839c0.082 0.078 0.082 0.078 0 0z"></path>
<path fill="#fff" d="M10.605 23.777c0.356-0.188 0.031 0.385 0 0z"></path>
<path fill="#fff" d="M12.233 23.932l0.063-0.004 0.017 0.071h-0.071l-0.008-0.068z"></path>
<path fill="#292c31" d="M11.123 9.794c0.865-0.366 1.744-0.7 2.607-1.073 0.086 0.175 0.171 0.35 0.255 0.526-0.179 0.068-0.359 0.137-0.538 0.206 0.337 0.813 0.663 1.63 0.996 2.445 1.946-0.733 3.852-1.566 5.802-2.288 0.002 0.217 0.004 0.435 0.006 0.652-1.978 0.886-3.936 1.813-5.909 2.709-0.312 0.15-0.64 0.272-0.931 0.461-0.075 0.366-0.026 0.746-0.116 1.11-0.307 1.088-1.337 1.956-2.486 1.947-1.196 0.109-2.324-0.825-2.583-1.97-0.181-0.61-0.038-1.25 0.209-1.818 0.181-0.347-0.113-0.693-0.215-1.018-0.56 0.208-1.117 0.425-1.667 0.657 0.289 0.865 0.632 1.71 0.933 2.57 0.222-0.063 0.441-0.17 0.677-0.15 0.118 0.209 0.204 0.434 0.299 0.653-0.93 0.365-1.839 0.783-2.758 1.175-0.201-0.184-0.402-0.37-0.6-0.556 0.617-0.272 1.229-0.557 1.837-0.847-0.326-0.861-0.672-1.717-1.049-2.557-0.279 0.106-0.56 0.211-0.839 0.316-0.052-0.194-0.105-0.386-0.154-0.58 1.485-0.575 2.949-1.205 4.422-1.808 0.592-0.274 1.193-0.53 1.802-0.763M11.562 10.229c-0.604 0.254-1.198 0.531-1.798 0.796-0.331 0.138-0.658 0.285-0.983 0.437 0.074 0.176 0.152 0.35 0.23 0.525 0.314-0.293 0.676-0.524 1.062-0.707l0.021 0.017c0.612-0.125 1.272-0.121 1.831 0.191 0.454 0.196 0.731 0.617 1.056 0.966 0.214-0.008 0.406-0.115 0.605-0.183 0.122-0.1 0.379-0.158 0.251-0.359-0.276-0.756-0.602-1.491-0.892-2.241-0.463 0.182-0.923 0.372-1.384 0.557M8.829 13.907c-0.037 0.865 0.571 1.646 1.366 1.94 0.463 0.048 0.96 0.091 1.388-0.133 0.664-0.309 1.099-0.981 1.182-1.7-0.032-0.031-0.096-0.093-0.128-0.124l0.14 0.132c0.049-1.12-0.934-2.171-2.073-2.095-1.027-0.004-1.903 0.966-1.875 1.979z"></path>
<path fill="#292c31" d="M10.383 13.268c0.451-0.333 1.142 0.093 1.097 0.634 0.043 0.537-0.643 0.97-1.097 0.649-0.482-0.254-0.484-1.029 0-1.283z"></path>
</svg>
