<!-- Generated by IcoMoon.io -->
<svg version="1.1" xmlns="http://www.w3.org/2000/svg" width="24" height="24" viewBox="0 0 24 24">
<title>regulatory--no-motor-vehicle-trailers--g1</title>
<path fill="#d71920" d="M10.139 0.449c2.566-0.416 5.274 0.018 7.549 1.286 2.472 1.338 4.423 3.601 5.389 6.24 0.865 2.335 0.955 4.946 0.26 7.337-0.655 2.281-2.032 4.346-3.875 5.84-2.082 1.708-4.77 2.66-7.464 2.64-2.688-0.004-5.363-0.973-7.428-2.693-1.958-1.604-3.374-3.862-3.955-6.326-0.622-2.597-0.331-5.405 0.83-7.811 1.614-3.409 4.961-5.935 8.693-6.514M6.134 4.578c1 1.057 2.003 2.111 3.006 3.163 1.804 1.903 3.613 3.8 5.418 5.704 0.151 0.158 0.304 0.318 0.456 0.476 0.656 0.695 1.315 1.387 1.976 2.077 0.732 0.779 1.471 1.55 2.207 2.326 1.91-2.14 2.747-5.174 2.218-7.992-0.431-2.416-1.844-4.639-3.856-6.046-1.394-1.003-3.071-1.6-4.783-1.728-2.365-0.193-4.781 0.55-6.642 2.020M2.532 12.245c0.037 2.348 0.995 4.666 2.623 6.359 1.54 1.624 3.671 2.676 5.898 2.902 2.264 0.247 4.614-0.36 6.469-1.686-1.423-1.499-2.848-2.996-4.271-4.494-0.446-0.469-0.89-0.938-1.338-1.406-0.148-0.16-0.299-0.317-0.452-0.473-1.224-1.294-2.449-2.587-3.683-3.872-1.068-1.14-2.154-2.264-3.226-3.403-1.348 1.712-2.077 3.895-2.021 6.074z"></path>
<path fill="#fff" d="M6.134 4.578c1.861-1.47 4.277-2.213 6.642-2.020 1.712 0.128 3.389 0.725 4.783 1.728 2.011 1.406 3.425 3.63 3.856 6.046 0.529 2.818-0.307 5.852-2.218 7.992-0.736-0.775-1.475-1.547-2.207-2.326 0.132-0.212 0.235-0.443 0.307-0.683 0.493-0.002 0.985 0 1.478-0.001 0.001-0.466 0.001-0.93 0-1.394-1.254 0-2.508-0.001-3.762 0.001-0.152-0.158-0.305-0.318-0.456-0.476 1.405 0.005 2.812 0.001 4.218 0.001 0.001-1.898 0.001-3.798 0-5.696-3.212-0.006-6.424 0.011-9.636-0.008-1.003-1.052-2.006-2.106-3.006-3.163z"></path>
<path fill="#fff" d="M2.532 12.245c-0.056-2.179 0.673-4.362 2.021-6.074 1.072 1.139 2.158 2.263 3.226 3.403 0.001 1.291 0 2.581 0.001 3.872 1.228 0.002 2.455 0.001 3.682 0 0.154 0.156 0.305 0.313 0.452 0.473-1.398 0.018-2.8-0.030-4.196 0.023-0.828 0.514-1.606 1.12-2.408 1.676 0.070 0.095 0.139 0.19 0.209 0.284 0.754-0.538 1.513-1.069 2.266-1.61-0.005 0.341-0.005 0.682-0.004 1.022 0.308 0 0.618-0.001 0.926-0.001 0.098 0.546 0.55 1.042 1.134 1.022 0.589 0.024 1.043-0.474 1.141-1.022 0.757 0.007 1.514-0.011 2.27 0.012 1.423 1.498 2.848 2.995 4.271 4.494-1.855 1.326-4.205 1.933-6.469 1.686-2.227-0.226-4.358-1.278-5.898-2.902-1.628-1.693-2.586-4.010-2.623-6.359z"></path>
<path fill="#001323" d="M9.14 7.741c3.212 0.019 6.424 0.002 9.636 0.008 0.001 1.898 0.001 3.798 0 5.696-1.406 0-2.813 0.004-4.218-0.001-1.805-1.903-3.614-3.8-5.418-5.704z"></path>
<path fill="#001323" d="M7.778 9.574c1.234 1.285 2.459 2.579 3.683 3.872-1.226 0.001-2.454 0.002-3.682 0-0.001-1.291 0-2.581-0.001-3.872z"></path>
<path fill="#001323" d="M7.717 13.942c1.397-0.053 2.798-0.005 4.196-0.023 0.448 0.468 0.892 0.937 1.338 1.406-0.756-0.023-1.513-0.005-2.27-0.012-0.098 0.548-0.552 1.046-1.141 1.022-0.584 0.019-1.036-0.476-1.134-1.022-0.308 0-0.618 0.001-0.926 0.001-0.001-0.341-0.001-0.682 0.004-1.022-0.752 0.541-1.512 1.073-2.266 1.61-0.070-0.095-0.139-0.19-0.209-0.284 0.803-0.557 1.58-1.163 2.408-1.676z"></path>
<path fill="#001323" d="M15.014 13.921c1.254-0.002 2.508-0.001 3.762-0.001 0.001 0.464 0.001 0.929 0 1.394-0.493 0.001-0.985-0.001-1.478 0.001-0.072 0.24-0.175 0.47-0.307 0.683-0.661-0.69-1.32-1.382-1.976-2.077z"></path>
</svg>
