<!-- Generated by IcoMoon.io -->
<svg version="1.1" xmlns="http://www.w3.org/2000/svg" width="24" height="24" viewBox="0 0 24 24">
<title>regulatory--maximum-speed-limit-35--g1</title>
<path fill="#f00" d="M11.087 0h1.789c1.486 0.182 2.969 0.511 4.319 1.175 3.828 1.798 6.457 5.728 6.805 9.926v1.498c-0.145 2.255-0.883 4.476-2.201 6.319-2.021 2.908-5.377 4.756-8.887 5.082h-1.789c-4.052-0.337-7.874-2.783-9.742-6.414-0.784-1.445-1.186-3.059-1.381-4.681v-1.774c0.328-4.212 2.969-8.156 6.805-9.958 1.339-0.659 2.81-0.983 4.282-1.174M10.733 2.484c-3.548 0.424-6.708 3.029-7.823 6.42-0.94 2.726-0.563 5.87 1.016 8.285 1.847 2.922 5.358 4.688 8.807 4.381 3.59-0.232 6.901-2.692 8.195-6.043 1.063-2.659 0.848-5.791-0.582-8.275-1.85-3.346-5.827-5.322-9.613-4.768z"></path>
<path fill="#fff" d="M10.733 2.484c3.786-0.554 7.763 1.422 9.613 4.768 1.43 2.484 1.645 5.616 0.582 8.275-1.294 3.352-4.604 5.812-8.195 6.043-3.449 0.307-6.96-1.459-8.807-4.381-1.579-2.414-1.956-5.558-1.016-8.285 1.115-3.391 4.274-5.996 7.823-6.42M7.717 6.995c-1.012 0.398-1.566 1.492-1.523 2.545 0.482 0.006 0.965 0.002 1.447 0.005-0.023-0.475 0.034-1.032 0.494-1.294 0.626-0.442 1.58 0.113 1.534 0.871-0.032 0.593 0.176 1.338-0.328 1.787-0.335 0.326-0.838 0.228-1.261 0.246 0 0.432 0 0.864-0.001 1.296 0.49 0.006 1.073-0.047 1.43 0.362 0.48 0.527 0.278 1.302 0.3 1.946-0.005 0.748-0.793 1.362-1.514 1.074-0.703-0.211-0.846-1.022-0.79-1.658-0.48 0-0.96 0-1.44 0.001-0.194 1.416 0.86 2.918 2.327 3.007 1.494 0.197 2.946-1.156 2.872-2.656 0.077-0.974-0.002-2.153-0.966-2.683 0.971-0.767 0.91-2.116 0.738-3.215-0.312-1.403-2.016-2.232-3.319-1.636M12.974 6.944c-0.001 1.71-0.002 3.419 0 5.128 0.574-0.073 1.271 0.208 1.724-0.259 0.635-0.46 1.73-0.036 1.776 0.782 0.019 0.8 0.034 1.606-0.010 2.405-0.094 0.91-1.439 1.207-1.985 0.524-0.319-0.376-0.3-0.894-0.31-1.356-0.48-0.001-0.961-0.001-1.441 0.001-0.157 1.297 0.666 2.62 1.95 2.942 1.498 0.444 3.238-0.763 3.236-2.351-0.016-0.973 0.124-1.974-0.118-2.927-0.436-1.356-2.178-1.865-3.384-1.218 0.004-0.79 0-1.578 0.002-2.368 1.104-0.002 2.209 0 3.313-0.001 0-0.434 0-0.869 0.001-1.303-1.586 0-3.172-0.001-4.757 0z"></path>
<path fill="#000" d="M7.717 6.995c1.303-0.596 3.007 0.233 3.319 1.636 0.172 1.099 0.233 2.448-0.738 3.215 0.964 0.53 1.043 1.709 0.966 2.683 0.074 1.5-1.378 2.852-2.872 2.656-1.466-0.089-2.521-1.591-2.327-3.007 0.48-0.001 0.96-0.001 1.44-0.001-0.056 0.636 0.086 1.447 0.79 1.658 0.721 0.288 1.51-0.326 1.514-1.074-0.022-0.644 0.18-1.42-0.3-1.946-0.358-0.409-0.941-0.356-1.43-0.362 0.001-0.432 0.001-0.864 0.001-1.296 0.424-0.018 0.926 0.080 1.261-0.246 0.504-0.449 0.295-1.194 0.328-1.787 0.047-0.758-0.907-1.313-1.534-0.871-0.461 0.262-0.517 0.818-0.494 1.294-0.482-0.002-0.965 0.001-1.447-0.005-0.043-1.054 0.511-2.147 1.523-2.545z"></path>
<path fill="#000" d="M12.974 6.944c1.585-0.001 3.17 0 4.757 0-0.001 0.434-0.001 0.869-0.001 1.303-1.104 0.001-2.209-0.001-3.313 0.001-0.002 0.79 0.001 1.578-0.002 2.368 1.206-0.647 2.948-0.138 3.384 1.218 0.241 0.953 0.102 1.954 0.118 2.927 0.001 1.588-1.739 2.795-3.236 2.351-1.284-0.323-2.107-1.645-1.95-2.942 0.48-0.002 0.961-0.002 1.441-0.001 0.010 0.462-0.010 0.98 0.31 1.356 0.546 0.683 1.891 0.385 1.985-0.524 0.043-0.799 0.029-1.604 0.010-2.405-0.046-0.818-1.141-1.242-1.776-0.782-0.454 0.467-1.151 0.186-1.724 0.259-0.002-1.709-0.001-3.418 0-5.128z"></path>
</svg>
