<?xml version="1.0" encoding="utf-8"?>
<!-- Generated by IcoMoon.io -->
<!DOCTYPE svg PUBLIC "-//W3C//DTD SVG 1.1//EN" "http://www.w3.org/Graphics/SVG/1.1/DTD/svg11.dtd">
<svg version="1.1" xmlns="http://www.w3.org/2000/svg" xmlns:xlink="http://www.w3.org/1999/xlink" width="24" height="24" viewBox="0 0 24 24">
<path fill="#d71920" d="M11.309 0.509c2.755-0.167 5.568 0.686 7.733 2.406 1.841 1.433 3.221 3.445 3.895 5.678 0.737 2.422 0.638 5.089-0.284 7.448-1.032 2.683-3.125 4.942-5.726 6.169-2.37 1.153-5.15 1.422-7.704 0.78-2.61-0.647-4.962-2.254-6.521-4.442-1.434-1.991-2.19-4.454-2.124-6.906 0.043-2.316 0.824-4.607 2.194-6.473 1.966-2.723 5.184-4.478 8.538-4.661M11.314 2.688c-2.992 0.188-5.813 1.96-7.308 4.554-1.282 2.166-1.603 4.867-0.886 7.278 0.521 1.8 1.62 3.422 3.078 4.597 1.624 1.32 3.712 2.059 5.804 2.046 1.945 0.008 3.887-0.626 5.452-1.782 1.602-1.169 2.821-2.862 3.395-4.763 0.574-1.861 0.538-3.905-0.106-5.744-0.762-2.219-2.41-4.12-4.5-5.185-1.506-0.788-3.236-1.123-4.93-1.001z"></path>
<path fill="#fff" d="M11.314 2.688c1.693-0.122 3.424 0.212 4.93 1.001 2.090 1.066 3.738 2.966 4.5 5.185 0.643 1.84 0.679 3.883 0.106 5.744-0.574 1.901-1.793 3.594-3.395 4.763-1.565 1.156-3.506 1.79-5.452 1.782-2.093 0.013-4.181-0.726-5.804-2.046-1.458-1.175-2.557-2.797-3.078-4.597-0.718-2.411-0.396-5.112 0.886-7.278 1.495-2.594 4.316-4.366 7.308-4.554M11.083 7.193c2.137 0.001 4.274 0.001 6.412 0.001 0.001-0.448 0.001-0.895 0-1.342-2.137 0.002-4.274 0-6.412 0.001-0.001 0.446-0.001 0.893 0 1.339M11.083 7.848c-0.002 2.74 0.002 5.48-0.002 8.22 0.058 0.012 0.173 0.036 0.232 0.049-0.005 0.686-0.002 1.373-0.002 2.059 0.133 0 0.402 0 0.535 0 0-0.419 0.001-0.838 0-1.256 0.691 0.002 1.381-0.005 2.072 0.005 0.115 0.119 0.205 0.302 0.394 0.313 0.242 0.058 0.413-0.149 0.542-0.319 0.625 0.001 1.252 0.001 1.877 0.001 0 0.419 0 0.838 0 1.256 0.179 0 0.358 0 0.536 0 0-0.692 0-1.385 0-2.077 0.056-0.001 0.17-0.005 0.228-0.006 0-2.749 0-5.497 0-8.245-2.137 0-4.274 0-6.412 0M6.952 10.381c0.072 0.3 0.145 0.599 0.22 0.899-0.664 0-1.326 0-1.99 0 0.001 0.648 0 1.296 0.001 1.944 0.659 0 1.316 0 1.975 0-0.068 0.28-0.136 0.558-0.204 0.838 1.066-0.617 2.134-1.229 3.198-1.846-1.063-0.617-2.129-1.231-3.2-1.835z"></path>
<path fill="#fff" d="M12.692 15.536c1.063-0.001 2.126 0 3.19 0 0.002 0.187 0.005 0.374 0.008 0.562 0.28-0.001 0.56-0.002 0.841-0.002 0 0.184 0 0.367 0 0.552-0.629 0-1.258 0.004-1.885-0.002-0.13-0.119-0.24-0.313-0.442-0.304-0.221-0.037-0.349 0.169-0.485 0.302-0.691 0.010-1.384 0.001-2.075 0.004 0-0.184 0-0.367 0-0.551 0.282-0.001 0.564-0.001 0.845-0.001 0.001-0.186 0.001-0.373 0.002-0.559z"></path>
<path fill="#231f20" d="M11.083 7.193c-0.001-0.446-0.001-0.893 0-1.339 2.137-0.001 4.274 0.001 6.412-0.001 0.001 0.446 0.001 0.894 0 1.342-2.137 0-4.274 0-6.412-0.001z"></path>
<path fill="#231f20" d="M11.083 7.848c2.137 0 4.274 0 6.412 0 0 2.748 0 5.496 0 8.245-0.058 0.001-0.172 0.005-0.228 0.006 0 0.692 0 1.385 0 2.077-0.179 0-0.358 0-0.536 0 0-0.419 0-0.838 0-1.256-0.625 0-1.252 0-1.877-0.001-0.13 0.17-0.3 0.377-0.542 0.319-0.188-0.011-0.278-0.194-0.394-0.313-0.691-0.010-1.381-0.002-2.072-0.005 0.001 0.419 0 0.838 0 1.256-0.133 0-0.402 0-0.535 0 0-0.686-0.002-1.373 0.002-2.059-0.059-0.013-0.174-0.037-0.232-0.049 0.005-2.74 0-5.48 0.002-8.22M12.692 15.536c-0.001 0.186-0.001 0.373-0.002 0.559-0.281 0-0.563 0-0.845 0.001 0 0.184 0 0.367 0 0.551 0.691-0.002 1.384 0.006 2.075-0.004 0.136-0.133 0.264-0.34 0.485-0.302 0.202-0.010 0.312 0.185 0.442 0.304 0.628 0.006 1.256 0.002 1.885 0.002 0-0.185 0-0.368 0-0.552-0.281 0-0.562 0.001-0.841 0.002-0.004-0.187-0.006-0.374-0.008-0.562-1.063 0-2.126-0.001-3.19 0z"></path>
<path fill="#231f20" d="M6.952 10.381c1.072 0.604 2.137 1.218 3.2 1.835-1.064 0.617-2.132 1.229-3.198 1.846 0.068-0.28 0.136-0.558 0.204-0.838-0.659 0-1.316 0-1.975 0-0.001-0.648 0-1.296-0.001-1.944 0.664 0 1.326 0 1.99 0-0.074-0.3-0.148-0.599-0.22-0.899z"></path>
</svg>
