<!-- Generated by IcoMoon.io -->
<svg version="1.1" xmlns="http://www.w3.org/2000/svg" width="24" height="24" viewBox="0 0 24 24">
<title>regulatory--no-stopping--g5</title>
<path fill="#e20a16" d="M11.034 0h1.613c4.514 0.236 8.748 3.193 10.44 7.396 0.492 1.117 0.71 2.321 0.913 3.516v2.246c-0.18 0.862-0.294 1.742-0.588 2.578-1.129 3.527-3.996 6.426-7.5 7.616-0.881 0.324-1.813 0.452-2.726 0.648h-2.345c-3.974-0.472-7.696-2.897-9.502-6.502-0.79-1.499-1.194-3.169-1.339-4.85v-1.29c0.247-4.733 3.504-9.138 8.003-10.668 0.978-0.359 2.011-0.508 3.031-0.69M7.277 3.192c-3.192 1.682-5.31 5.195-5.267 8.808-0.052 3.874 2.4 7.652 5.98 9.144 0.378-1.201 0.788-2.39 1.154-3.594 0.598 0.313 1.246 0.53 1.913 0.638-0.404 1.192-0.779 2.394-1.176 3.589 3.042 0.685 6.365-0.178 8.699-2.239 2.819-2.412 4.078-6.458 3.108-10.043-0.744-2.912-2.878-5.471-5.664-6.628-0.385 1.218-0.792 2.429-1.178 3.647-0.606-0.358-1.283-0.594-1.982-0.678 0.588-1.126 0.822-2.414 1.267-3.605-2.304-0.493-4.776-0.157-6.853 0.96z"></path>
<path fill="#e20a16" d="M12.185 8.194c0.674 0.121 1.325 0.407 1.831 0.872-0.19 0.571-0.374 1.144-0.56 1.715-0.64-0.188-1.271-0.403-1.886-0.659 0.205-0.642 0.422-1.282 0.616-1.928z"></path>
<path fill="#e20a16" d="M10.8 12.482c0.635 0.204 1.279 0.38 1.909 0.598-0.296 0.917-0.6 1.83-0.889 2.749-0.677-0.092-1.332-0.34-1.89-0.734 0.325-0.858 0.578-1.742 0.87-2.612z"></path>
<path fill="#fff" d="M7.277 3.192c2.077-1.117 4.549-1.453 6.853-0.96-0.445 1.19-0.679 2.479-1.267 3.605-1.748-0.33-3.965 0.12-4.886 1.793-0.596 1.182-0.122 2.582 0.586 3.602 0.558 0.68 1.435 0.97 2.238 1.25-0.292 0.87-0.545 1.754-0.87 2.612-0.294-0.233-0.538-0.518-0.761-0.817-0.68 0.469-1.36 0.938-2.033 1.415 0.493 0.781 1.18 1.439 2.008 1.858-0.366 1.204-0.776 2.393-1.154 3.594-3.58-1.492-6.031-5.27-5.98-9.144-0.043-3.613 2.075-7.126 5.267-8.808z"></path>
<path fill="#fff" d="M16.024 2.868c2.786 1.157 4.92 3.715 5.664 6.628 0.97 3.584-0.289 7.631-3.108 10.043-2.334 2.062-5.657 2.924-8.699 2.239 0.397-1.195 0.772-2.398 1.176-3.589 1.898 0.308 4.195-0.101 5.344-1.79 0.775-1.194 0.492-2.767-0.179-3.941-0.622-0.942-1.735-1.356-2.766-1.676 0.186-0.571 0.371-1.144 0.56-1.715 0.132 0.125 0.259 0.256 0.386 0.385 0.638-0.512 1.28-1.020 1.916-1.536-0.39-0.56-0.886-1.048-1.474-1.4 0.386-1.218 0.793-2.429 1.178-3.647z"></path>
<path fill="#fff" d="M10.63 8.354c0.487-0.21 1.036-0.196 1.555-0.161-0.193 0.647-0.41 1.286-0.616 1.928-0.426-0.185-0.956-0.239-1.252-0.635-0.274-0.371-0.096-0.943 0.312-1.133z"></path>
<path fill="#fff" d="M12.709 13.080c0.744 0.262 1.915 0.667 1.694 1.674-0.394 0.984-1.648 1.174-2.584 1.075 0.289-0.919 0.593-1.832 0.889-2.749z"></path>
<path fill="#000" d="M7.976 7.63c0.922-1.673 3.138-2.123 4.886-1.793 0.7 0.084 1.376 0.32 1.982 0.678 0.588 0.353 1.084 0.84 1.474 1.4-0.636 0.516-1.278 1.024-1.916 1.536-0.127-0.13-0.254-0.26-0.386-0.385-0.506-0.466-1.157-0.751-1.831-0.872-0.52-0.035-1.068-0.049-1.555 0.161-0.408 0.19-0.586 0.762-0.312 1.133 0.295 0.396 0.826 0.45 1.252 0.635 0.616 0.256 1.247 0.47 1.886 0.659 1.031 0.32 2.144 0.734 2.766 1.676 0.671 1.174 0.954 2.747 0.179 3.941-1.148 1.69-3.445 2.099-5.344 1.79-0.667-0.108-1.315-0.325-1.913-0.638-0.828-0.419-1.514-1.076-2.008-1.858 0.673-0.476 1.352-0.946 2.033-1.415 0.223 0.299 0.467 0.584 0.761 0.817 0.558 0.395 1.213 0.642 1.89 0.734 0.936 0.098 2.19-0.091 2.584-1.075 0.221-1.007-0.95-1.412-1.694-1.674-0.63-0.217-1.274-0.394-1.909-0.598-0.803-0.281-1.68-0.57-2.238-1.25-0.708-1.020-1.182-2.42-0.586-3.602z"></path>
</svg>
