<!-- Generated by IcoMoon.io -->
<svg version="1.1" xmlns="http://www.w3.org/2000/svg" width="24" height="24" viewBox="0 0 24 24">
<title>regulatory--maximum-speed-limit-50--g1</title>
<path fill="#da251d" d="M10.541 0h2.931c2.19 0.373 4.373 1.186 6.091 2.639 2.453 1.92 3.976 4.853 4.437 7.902v2.931c-0.621 4.596-3.986 8.793-8.512 10.038-2.369 0.493-4.88 0.603-7.2-0.208-0.49-0.131-0.932-0.438-1.449-0.449-0.032-0.017-0.095-0.047-0.126-0.064-0.66-0.566-1.479-0.959-2.209-1.443-0.003-0.005-0.010-0.013-0.013-0.017-0.064-0.259-0.304-0.433-0.571-0.407-0.332-0.304-0.647-0.626-0.954-0.956 0.094-0.214-0.127-0.39-0.309-0.443-1.529-1.64-2.269-3.894-2.658-6.062v-2.934c0.43-2.608 1.547-5.19 3.496-7.031 1.844-1.953 4.429-3.074 7.045-3.497M10.824 1.467c-3.848 0.426-7.28 3.245-8.485 6.918-1.093 3.205-0.488 6.938 1.618 9.599 2.134 2.794 5.77 4.353 9.265 3.922 3.88-0.372 7.371-3.184 8.603-6.875 0.956-2.734 0.673-5.863-0.752-8.383-1.962-3.583-6.195-5.747-10.249-5.18z"></path>
<path fill="#fff" d="M10.824 1.467c4.054-0.567 8.287 1.597 10.249 5.18 1.425 2.521 1.708 5.65 0.752 8.383-1.232 3.691-4.723 6.503-8.603 6.875-3.495 0.431-7.131-1.128-9.265-3.922-2.106-2.661-2.712-6.394-1.618-9.599 1.205-3.673 4.637-6.492 8.485-6.918M14.933 7.377c-0.783 0.173-1.376 0.819-1.648 1.552-0.472 1.232-0.439 2.584-0.363 3.88 0.101 0.877 0.262 1.838 0.923 2.481 1.032 1.1 3.121 0.965 3.902-0.367 0.707-1.201 0.703-2.658 0.662-4.009-0.076-0.999-0.236-2.078-0.92-2.858-0.619-0.712-1.67-0.911-2.555-0.678M7.292 7.467c-0.28 1.468-0.544 2.94-0.838 4.406 0.441 0.107 0.896 0.16 1.349 0.181 0.511-0.57 1.496-0.853 2.097-0.264 0.652 0.741 0.603 2.152-0.219 2.757-0.773 0.504-1.726-0.2-1.807-1.033-0.531 0.035-1.059 0.114-1.589 0.163 0.074 1.83 2.227 2.781 3.809 2.191 1.853-0.62 2.508-3.201 1.337-4.71-0.702-0.977-2.080-1.245-3.151-0.756 0.109-0.457 0.163-0.924 0.255-1.385 1.016-0.122 2.065-0.013 3.093-0.053 0.005-0.498 0.004-0.997 0.001-1.496-1.44-0.067-2.897-0.064-4.338 0z"></path>
<path fill="#fff" d="M15.574 8.658c0.702-0.086 0.988 0.71 1.050 1.271 0.117 1.36 0.201 2.776-0.162 4.104-0.149 0.717-1.25 0.868-1.54 0.177-0.48-1.158-0.314-2.462-0.303-3.686 0.069-0.678 0.090-1.749 0.955-1.866z"></path>
<path fill="#fff" d="M2.658 19.523c0.182 0.053 0.403 0.228 0.309 0.443-0.159-0.101-0.291-0.248-0.309-0.443z"></path>
<path fill="#fff" d="M3.921 20.922c0.267-0.026 0.507 0.148 0.571 0.407-0.267 0.014-0.416-0.235-0.571-0.407z"></path>
<path fill="#fff" d="M4.505 21.346c0.73 0.484 1.549 0.877 2.209 1.443-0.791-0.376-1.631-0.767-2.209-1.443z"></path>
<path fill="#fff" d="M6.839 22.853c0.517 0.012 0.959 0.318 1.449 0.449 2.32 0.811 4.831 0.701 7.2 0.208-0.635 0.318-1.375 0.252-2.019 0.49h-2.972c-1.214-0.277-2.532-0.507-3.658-1.147z"></path>
<path fill="#1f1a17" d="M14.933 7.377c0.886-0.234 1.937-0.035 2.555 0.678 0.684 0.78 0.845 1.86 0.92 2.858 0.041 1.351 0.045 2.808-0.662 4.009-0.78 1.332-2.87 1.467-3.902 0.367-0.661-0.643-0.821-1.604-0.923-2.481-0.076-1.296-0.109-2.648 0.363-3.88 0.272-0.733 0.865-1.378 1.648-1.552M15.574 8.658c-0.865 0.117-0.886 1.188-0.955 1.866-0.012 1.224-0.177 2.528 0.303 3.686 0.29 0.69 1.391 0.54 1.54-0.177 0.363-1.328 0.279-2.744 0.162-4.104-0.062-0.561-0.348-1.357-1.050-1.271z"></path>
<path fill="#1f1a17" d="M7.292 7.467c1.441-0.064 2.898-0.067 4.338 0 0.003 0.499 0.004 0.999-0.001 1.496-1.028 0.040-2.077-0.069-3.093 0.053-0.092 0.461-0.146 0.928-0.255 1.385 1.070-0.489 2.449-0.221 3.151 0.756 1.17 1.509 0.516 4.090-1.337 4.71-1.582 0.59-3.735-0.361-3.809-2.191 0.53-0.049 1.058-0.128 1.589-0.163 0.081 0.833 1.034 1.538 1.807 1.033 0.823-0.605 0.871-2.016 0.219-2.757-0.601-0.589-1.586-0.305-2.097 0.264-0.453-0.021-0.907-0.074-1.349-0.181 0.294-1.466 0.558-2.938 0.838-4.406z"></path>
</svg>
