<!-- Generated by IcoMoon.io -->
<svg version="1.1" xmlns="http://www.w3.org/2000/svg" width="24" height="24" viewBox="0 0 24 24">
<title>regulatory--no-parking--g8</title>
<path fill="#e41408" d="M11.005 0h1.985c1.475 0.203 2.947 0.534 4.286 1.205 3.66 1.73 6.224 5.419 6.724 9.42v2.815c-0.553 4.481-3.75 8.52-8.050 9.953-0.804 0.282-1.642 0.442-2.476 0.607h-2.842c-4.47-0.538-8.508-3.714-9.955-7.994-0.359-0.966-0.514-1.988-0.678-3v-1.968c0.39-4.172 3.001-8.080 6.822-9.856 1.308-0.654 2.747-0.965 4.183-1.182M6.493 5.147c0.65 0.662 1.307 1.318 1.97 1.967 0.001 0.887 0.001 1.774 0.001 2.66-1.096-1.105-2.197-2.203-3.301-3.301-1.403 1.74-2.118 4.019-1.927 6.248 0.186 2.635 1.654 5.132 3.844 6.602 3.098 2.168 7.596 1.991 10.487-0.456-0.384-0.377-0.75-0.772-1.136-1.146l0.169 0.028c0.008-0.493 0.004-0.988 0.008-1.48 0.347 0 0.694 0.020 1.040 0.004 0.395 0.449 0.826 0.864 1.259 1.274 1.318-1.661 2.034-3.792 1.926-5.915-0.097-2.65-1.478-5.21-3.635-6.751-3.101-2.322-7.72-2.196-10.705 0.265z"></path>
<path fill="#e41408" d="M11.33 12.625c0.881-0.001 1.762-0.001 2.644 0.001 0.719 0.716 1.418 1.452 2.165 2.14 0.006 0.886 0.001 1.77 0.004 2.654-0.205-0.197-0.408-0.396-0.607-0.599 0.017-0.683-0.596-1.043-1.184-1.16-0.328-0.325-0.642-0.664-0.978-0.979 0.619-0.275 1.444-0.22 1.676 0.526 0.134-0.019 0.268-0.037 0.402-0.056-0.176-1.118-1.544-1.259-2.365-0.762-0.581-0.593-1.174-1.171-1.756-1.764z"></path>
<path fill="#e41408" d="M16.603 15.841c0.001-0.193 0.002-0.385 0.004-0.578 0.196 0.197 0.39 0.394 0.584 0.592-0.196-0.005-0.392-0.008-0.588-0.013z"></path>
<path fill="#19408b" d="M6.493 5.147c2.986-2.461 7.604-2.587 10.705-0.265 2.156 1.541 3.538 4.102 3.635 6.751 0.108 2.123-0.608 4.254-1.926 5.915-0.433-0.41-0.864-0.826-1.259-1.274 1.001 0.127 1.568-1.229 0.818-1.862-0.691-0.42-1.558-0.184-2.324-0.241-0.001 0.199-0.002 0.397-0.004 0.596-0.746-0.688-1.446-1.423-2.165-2.14 0.667-0.001 1.334-0.001 2.002-0.004 0.004-2.536 0.004-5.070 0-7.606-2.503-0.004-5.006-0.004-7.508 0-0.004 0.698-0.002 1.398-0.004 2.096-0.664-0.649-1.32-1.304-1.97-1.967z"></path>
<path fill="#19408b" d="M10.068 6.202c1.096 0.037 2.214-0.104 3.293 0.127 1.236 0.335 1.316 2.256 0.206 2.798-0.868 0.374-1.841 0.186-2.758 0.233 0 0.722 0.002 1.445-0.001 2.167-0.247 0-0.494 0-0.742 0-0.001-1.775-0.002-3.551 0.001-5.326M10.811 6.834c-0.002 0.634-0.001 1.267 0 1.902 0.743-0.034 1.51 0.095 2.233-0.116 0.739-0.251 0.72-1.489-0.031-1.711-0.724-0.145-1.469-0.052-2.202-0.074z"></path>
<path fill="#19408b" d="M5.164 6.473c1.104 1.098 2.206 2.196 3.301 3.301 0.001 0.95-0.002 1.9 0.002 2.849 0.954 0.005 1.909 0.001 2.863 0.002 0.582 0.593 1.175 1.171 1.756 1.764-0.162 0.36-0.358 0.806-0.080 1.166 0.464 0.584 1.333 0.446 1.907 0.857 0.311 0.275 0.082 0.798-0.294 0.872-0.616 0.233-1.342-0.076-1.516-0.732-0.14 0.011-0.281 0.022-0.421 0.034 0.11 1.456 2.522 1.646 2.854 0.235 0.199 0.203 0.402 0.402 0.607 0.599 0.001 0.086 0.001 0.173 0.002 0.26 0.095 0.012 0.191 0.025 0.286 0.041 0.386 0.374 0.752 0.769 1.136 1.146-2.891 2.447-7.388 2.624-10.487 0.456-2.19-1.47-3.658-3.967-3.844-6.602-0.191-2.23 0.524-4.508 1.927-6.248M5.572 14.17c0.001 1.182-0.001 2.363 0.001 3.544 0.149 0.005 0.296 0.010 0.444 0.016 0.025-0.56 0.023-1.122 0.018-1.682 0.605-0.002 1.21-0.004 1.816 0 0.001 0.556 0.001 1.111 0.002 1.668 0.148 0.004 0.296 0.007 0.445 0.013 0.034-1.187 0.011-2.374 0.013-3.562-0.154 0.002-0.307 0.004-0.461 0.004 0.001 0.485 0.001 0.97-0.001 1.453-0.604 0.004-1.208 0.004-1.813 0 0-0.485 0-0.971-0.004-1.457-0.154 0.002-0.307 0.004-0.461 0.004M10.002 14.215c-1.123 0.414-1.339 1.984-0.716 2.897 0.581 0.858 1.988 0.883 2.617 0.068 0.499-0.677 0.51-1.675 0.066-2.382-0.408-0.638-1.278-0.839-1.967-0.583z"></path>
<path fill="#19408b" d="M10.238 14.572c1.099-0.398 1.853 0.917 1.517 1.856-0.126 0.953-1.495 1.282-2.048 0.506-0.493-0.715-0.402-2.051 0.532-2.363z"></path>
<path fill="#19408b" d="M16.606 14.586c0.425 0.001 0.852-0.028 1.274 0.032 0.523 0.073 0.617 0.91 0.158 1.135-0.264 0.12-0.565 0.085-0.847 0.101-0.194-0.198-0.389-0.395-0.584-0.592-0.001-0.226-0.001-0.451-0.001-0.677z"></path>
<path fill="#19408b" d="M14.351 15.661c-0.533-0.066-1.277-0.287-0.978-0.979 0.336 0.316 0.65 0.654 0.978 0.979z"></path>
<path fill="#fff" d="M8.467 5.017c2.502-0.004 5.005-0.004 7.508 0 0.004 2.536 0.004 5.070 0 7.606-0.667 0.002-1.334 0.002-2.002 0.004-0.882-0.002-1.763-0.002-2.644-0.001-0.954-0.001-1.909 0.002-2.863-0.002-0.005-0.949-0.001-1.898-0.002-2.849 0-0.887 0-1.774-0.001-2.66 0.001-0.698 0-1.398 0.004-2.096M10.068 6.202c-0.004 1.775-0.002 3.551-0.001 5.326 0.247 0 0.494 0 0.742 0 0.004-0.722 0.001-1.445 0.001-2.167 0.917-0.047 1.89 0.142 2.758-0.233 1.11-0.542 1.030-2.464-0.206-2.798-1.079-0.232-2.197-0.090-3.293-0.127z"></path>
<path fill="#fff" d="M10.811 6.834c0.733 0.023 1.478-0.071 2.202 0.074 0.751 0.222 0.77 1.46 0.031 1.711-0.724 0.211-1.49 0.083-2.233 0.116-0.001-0.635-0.002-1.268 0-1.902z"></path>
<path fill="#fff" d="M5.572 14.17c0.154 0 0.307-0.001 0.461-0.004 0.004 0.486 0.004 0.972 0.004 1.457 0.605 0.004 1.21 0.004 1.813 0 0.002-0.484 0.002-0.968 0.001-1.453 0.154 0 0.307-0.001 0.461-0.004-0.002 1.188 0.020 2.375-0.013 3.562-0.149-0.006-0.298-0.010-0.445-0.013-0.001-0.557-0.001-1.112-0.002-1.668-0.606-0.004-1.211-0.002-1.816 0 0.005 0.56 0.007 1.122-0.018 1.682-0.148-0.006-0.295-0.011-0.444-0.016-0.002-1.181 0-2.362-0.001-3.544z"></path>
<path fill="#fff" d="M10.002 14.215c0.689-0.256 1.559-0.055 1.967 0.583 0.444 0.707 0.433 1.705-0.066 2.382-0.629 0.815-2.036 0.79-2.617-0.068-0.623-0.913-0.407-2.483 0.716-2.897M10.238 14.572c-0.934 0.312-1.025 1.648-0.532 2.363 0.553 0.775 1.922 0.446 2.048-0.506 0.336-0.94-0.418-2.255-1.517-1.856z"></path>
<path fill="#fff" d="M13.086 14.389c0.821-0.497 2.189-0.356 2.365 0.762-0.134 0.019-0.268 0.037-0.402 0.056-0.233-0.745-1.057-0.8-1.676-0.526-0.299 0.692 0.445 0.913 0.978 0.979 0.588 0.118 1.201 0.478 1.184 1.16-0.331 1.411-2.743 1.22-2.854-0.235 0.14-0.012 0.281-0.023 0.421-0.034 0.174 0.656 0.9 0.965 1.516 0.732 0.376-0.074 0.605-0.598 0.294-0.872-0.574-0.41-1.442-0.272-1.907-0.857-0.277-0.36-0.082-0.806 0.080-1.166z"></path>
<path fill="#fff" d="M16.142 14.17c0.767 0.058 1.633-0.179 2.324 0.241 0.75 0.634 0.182 1.99-0.818 1.862-0.347 0.017-0.694-0.004-1.040-0.004-0.005 0.492 0 0.986-0.008 1.48l-0.169-0.028c-0.095-0.016-0.191-0.029-0.286-0.041-0.001-0.088-0.001-0.174-0.002-0.26-0.002-0.884 0.002-1.769-0.004-2.654 0.001-0.199 0.002-0.397 0.004-0.596M16.606 14.586c0 0.226 0 0.451 0.001 0.677-0.001 0.193-0.002 0.385-0.004 0.578 0.196 0.005 0.392 0.008 0.588 0.013 0.282-0.016 0.583 0.019 0.847-0.101 0.458-0.226 0.365-1.062-0.158-1.135-0.422-0.060-0.85-0.031-1.274-0.032z"></path>
</svg>
