<!-- Generated by IcoMoon.io -->
<svg version="1.1" xmlns="http://www.w3.org/2000/svg" width="24" height="24" viewBox="0 0 24 24">
<title>regulatory--no-rickshaws--g3</title>
<path fill="#fafbfb" d="M11.363 0h0.082l0.005 0.032c0.011-0.008 0.033-0.024 0.044-0.032h0.285c0.006 0 0.017 0.001 0.023 0.001l0.013-0.001h0.653c0.090 0.163 0.165 0.163 0.226 0h0.064c0.778 0.269 1.632 0.227 2.41 0.519 3.88 1.075 6.953 4.337 8.092 8.159 0.191 0.966 0.33 1.95 0.503 2.906v0.061c-0.185 0.078-0.185 0.146 0 0.203v0.072c-0.17 0.273-0.109 0.611-0.132 0.916-0.206 3.807-2.438 7.414-5.692 9.377-1.67 1.122-3.681 1.536-5.641 1.787h-1.016c-0.012-0.002-0.034-0.008-0.045-0.011l0.015 0.011h-0.153c-0.791-0.22-1.631-0.213-2.407-0.5-4.328-1.109-7.711-4.992-8.436-9.37-0.16-0.557-0.057-1.154-0.255-1.7v-0.091c0-0.006 0.001-0.019 0.001-0.026l-0.001-0.015v-0.158c0.187-0.107 0.187-0.178 0-0.214v-0.012c0.204-0.493 0.089-1.034 0.165-1.548 0.381-2.628 1.681-5.124 3.6-6.96 1.979-2.069 4.821-3.064 7.598-3.405M10.499 0.526c-1.899 0.254-3.734 0.952-5.298 2.063-3.245 2.316-5.179 6.384-4.819 10.366 0.258 4.33 3.216 8.395 7.3 9.895 3.41 1.338 7.482 0.87 10.477-1.244 3.138-2.154 5.18-5.897 5.084-9.724 0.057-3.273-1.488-6.474-3.92-8.634-2.357-2.137-5.68-3.122-8.824-2.722z"></path>
<path fill="#ca4c32" d="M10.499 0.526c3.144-0.4 6.467 0.585 8.824 2.722 2.432 2.16 3.977 5.361 3.92 8.634 0.096 3.827-1.946 7.57-5.084 9.724-2.995 2.114-7.067 2.582-10.477 1.244-4.084-1.499-7.042-5.565-7.3-9.895-0.36-3.983 1.574-8.051 4.819-10.366 1.564-1.111 3.399-1.808 5.298-2.063M5.968 4.773c1.635 1.684 3.32 3.321 4.977 4.983-0.16 0.36-0.299 0.728-0.478 1.080-0.301 0.067-0.606 0.118-0.895 0.226-1.59-1.709-3.292-3.312-4.946-4.959-1.29 1.589-2.032 3.617-2.085 5.661-0.122 3.147 1.46 6.356 4.132 8.059 3.283 2.249 7.989 1.998 11.020-0.574-0.196-0.215-0.394-0.427-0.595-0.638l-0.122 0.023c0.754-0.162 1.359-0.797 1.543-1.537-0.019 0.070-0.056 0.21-0.075 0.28 0.17 0.179 0.35 0.35 0.545 0.503 1.062-1.295 1.714-2.904 1.951-4.556 0.53-3.462-1.048-7.19-3.994-9.119-3.269-2.254-7.96-2.008-10.978 0.569z"></path>
<path fill="#feffff" d="M5.968 4.773c3.018-2.577 7.71-2.823 10.978-0.569 2.947 1.928 4.524 5.657 3.994 9.119-0.236 1.653-0.889 3.261-1.951 4.556-0.195-0.152-0.375-0.323-0.545-0.503 0.019-0.070 0.056-0.21 0.075-0.28 0.614-1.684-1.268-3.408-2.894-2.679-0.093-0.082-0.185-0.165-0.278-0.248 1.368-0.61 3.005 0.189 3.469 1.584 0.091-0.526 0.11-1.082 0.365-1.565 0.251-0.561 0.953-0.888 0.847-1.585 0.252-1.71 0-3.413-0.176-5.115-0.888-0.056-1.539 0.662-2.019 1.314-0.574 1.076 0.265 2.606-0.808 3.474-0.779 0.422-1.798 0.419-2.364 1.208-0.171-0.138-0.34-0.277-0.51-0.416 0.101-0.82-0.050-1.669-0.5-2.368-0.38-0.615-0.528-1.539-1.338-1.741-0.6-0.184-1.152 0.265-1.369 0.796-1.657-1.662-3.342-3.299-4.977-4.983M11.453 6.949c-0.674 0.304-0.668 1.377-0.008 1.691 0.568 0.353 1.398-0.135 1.358-0.803 0.086-0.683-0.756-1.251-1.35-0.888z"></path>
<path fill="#feffff" d="M2.541 11.764c0.053-2.045 0.795-4.073 2.085-5.661 1.654 1.647 3.356 3.251 4.946 4.959-0.361 0.156-0.724 0.308-1.099 0.425 0.201 0.877 0 1.724-0.409 2.512-0.834-0.302-1.834-0.266-2.534 0.329-1.002 0.781-1.12 2.4-0.254 3.326 0.91 1.097 2.817 0.947 3.61-0.211 0.747-0.981 0.455-2.423-0.45-3.197 0.067-0.112 0.133-0.223 0.201-0.335 0.456 0.397 0.917 0.789 1.371 1.19 0.017 0.441-0.017 0.888 0.069 1.322 0.341 0.271 0.778 0.4 1.126 0.67 0.456 0.265 0.891-0.156 1.116-0.524 0.050-0.004 0.15-0.012 0.2-0.017 0.045 0.134 0.090 0.267 0.135 0.402 0.356-0.002 0.713-0.004 1.070-0.002 0.076-0.094 0.152-0.188 0.229-0.28 0.062 0.001 0.184 0.005 0.246 0.006 0.198 1.274 1.476 2.304 2.777 1.957l0.122-0.023c0.201 0.211 0.399 0.423 0.595 0.638-3.031 2.572-7.737 2.823-11.020 0.574-2.672-1.703-4.255-4.912-4.132-8.059z"></path>
<path fill="#feffff" d="M9.105 11.775c0.125 0.093 0.251 0.185 0.377 0.278 0.209-0.070 0.418-0.141 0.633-0.192 0.053-0.011 0.162-0.032 0.215-0.043 0.203 0.178 0.391 0.373 0.594 0.552-0.519 0.473-1.189 0.558-1.863 0.482 0.102-0.353 0.16-0.719 0.044-1.078z"></path>
<path fill="#feffff" d="M8.808 13.232c0.38-0.011 0.76-0.010 1.142-0.007 0.002 0.441 0.004 0.883-0.015 1.325-0.424-0.298-0.816-0.637-1.229-0.949 0.033-0.122 0.068-0.246 0.102-0.368z"></path>
<path fill="#feffff" d="M12.292 13.883l0.081-0.002c0.46 0.457 0.937 0.901 1.351 1.402-0.094 0.314-0.182 0.629-0.272 0.943-0.435-0.011-0.869-0.030-1.302-0.055 0.214-0.14 0.441-0.265 0.631-0.44-0.057-0.637-0.374-1.22-0.488-1.849z"></path>
<path fill="#feffff" d="M11.154 14.108c0.473 0.358 0.461 1.079 0.718 1.591-0.261 0.006-0.524 0.017-0.785 0.032-0.017-0.542-0.017-1.086 0.068-1.623z"></path>
<path fill="#feffff" d="M5.594 14.98c0.509-0.707 1.466-0.822 2.256-0.615-0.006 0.791-1.047 1.264-0.864 2.046 0.453-0.563 0.792-1.207 1.211-1.795 0.712 0.557 0.89 1.66 0.391 2.411-0.485 0.764-1.568 1.094-2.37 0.633-0.979-0.449-1.282-1.843-0.624-2.679z"></path>
<path fill="#feffff" d="M15.904 14.828c1.324-0.457 2.664 0.888 2.177 2.211-0.811-0.649-1.446-1.479-2.177-2.211z"></path>
<path fill="#feffff" d="M14.038 15.501c0.096 0.166 0.191 0.334 0.271 0.51-0.012 0.057-0.037 0.171-0.049 0.228-0.105 0.004-0.314 0.010-0.418 0.013 0.058-0.252 0.118-0.504 0.196-0.751z"></path>
<path fill="#feffff" d="M11.161 16.029c0.12-0.051 0.24-0.102 0.361-0.153 0.122 0.051 0.246 0.102 0.37 0.154 0.057 0.122 0.114 0.245 0.171 0.368-0.078 0.648-0.978 0.662-1.074 0.015 0.058-0.128 0.115-0.257 0.172-0.385z"></path>
<path fill="#feffff" d="M14.716 16.691c0.198 0.025 0.418-0.023 0.6 0.075 0.513 0.455 0.975 0.964 1.44 1.467-0.953 0.13-1.973-0.542-2.040-1.542z"></path>
<path fill="#1a1e24" d="M11.453 6.949c0.594-0.364 1.435 0.204 1.35 0.888 0.040 0.668-0.79 1.156-1.358 0.803-0.659-0.314-0.665-1.387 0.008-1.691z"></path>
<path fill="#161a1d" d="M17.834 8.802c0.48-0.652 1.131-1.37 2.019-1.314 0.176 1.701 0.428 3.405 0.176 5.115 0.106 0.697-0.596 1.024-0.847 1.585-0.254 0.482-0.273 1.038-0.365 1.565-0.465-1.395-2.102-2.193-3.469-1.584-0.501 0.241-0.902 0.645-1.218 1.095-0.087-0.144-0.172-0.288-0.258-0.431 0.183-0.491 0.451-0.949 0.79-1.349 0.567-0.789 1.585-0.787 2.364-1.208 1.073-0.869 0.234-2.398 0.808-3.474z"></path>
<path fill="#191d21" d="M10.945 9.756c0.216-0.531 0.769-0.98 1.369-0.796 0.81 0.202 0.958 1.125 1.338 1.741 0.45 0.699 0.601 1.548 0.5 2.368-0.040 0.241-0.093 0.481-0.145 0.72-0.545 0.029-1.091 0.042-1.634 0.093l-0.081 0.002c0.114 0.629 0.431 1.212 0.488 1.849-0.19 0.175-0.417 0.299-0.631 0.44 0.434 0.025 0.867 0.044 1.302 0.055 0.090-0.315 0.178-0.63 0.272-0.943 0.046-0.151 0.095-0.302 0.147-0.45 0.086 0.144 0.171 0.288 0.258 0.431-0.033 0.078-0.064 0.157-0.091 0.238-0.078 0.247-0.138 0.499-0.196 0.751 0.105-0.004 0.314-0.010 0.418-0.013 0.012-0.057 0.037-0.171 0.049-0.228 0.114-0.731 0.653-1.306 1.316-1.594 1.627-0.728 3.509 0.996 2.894 2.679-0.184 0.74-0.789 1.376-1.543 1.537-1.301 0.347-2.578-0.683-2.777-1.957-0.062-0.001-0.184-0.005-0.246-0.006-0.077 0.093-0.153 0.187-0.229 0.28-0.358-0.001-0.714 0-1.070 0.002-0.045-0.134-0.090-0.267-0.135-0.402-0.050 0.005-0.15 0.013-0.2 0.017-0.225 0.368-0.659 0.789-1.116 0.524-0.348-0.27-0.785-0.399-1.126-0.67-0.086-0.435-0.052-0.882-0.069-1.322-0.454-0.402-0.915-0.794-1.371-1.19-0.068 0.112-0.134 0.223-0.201 0.335 0.905 0.775 1.198 2.216 0.45 3.197-0.792 1.158-2.699 1.308-3.61 0.211-0.866-0.926-0.747-2.545 0.254-3.326 0.7-0.595 1.7-0.631 2.534-0.329 0.409-0.788 0.61-1.635 0.409-2.512 0.375-0.118 0.738-0.27 1.099-0.425 0.289-0.108 0.594-0.159 0.895-0.226 0.178-0.352 0.317-0.72 0.478-1.080M10.114 11.861c-0.215 0.051-0.424 0.122-0.633 0.192-0.126-0.093-0.252-0.185-0.377-0.278 0.116 0.359 0.058 0.725-0.044 1.078 0.674 0.076 1.344-0.010 1.863-0.482 0.223 0.032 0.466-0.080 0.693-0.114-0.075-0.311-0.15-0.623-0.221-0.934-0.39 0.257-0.827 0.43-1.281 0.538M8.808 13.232c-0.034 0.122-0.069 0.246-0.102 0.368 0.412 0.312 0.804 0.651 1.229 0.949 0.019-0.442 0.018-0.884 0.015-1.325-0.381-0.002-0.762-0.004-1.142 0.007M11.154 14.108c-0.084 0.537-0.084 1.081-0.068 1.623 0.261-0.015 0.524-0.026 0.785-0.032-0.257-0.512-0.245-1.233-0.718-1.591M5.594 14.98c-0.658 0.836-0.355 2.23 0.624 2.679 0.802 0.461 1.886 0.131 2.37-0.633 0.499-0.751 0.321-1.853-0.391-2.411-0.418 0.588-0.758 1.232-1.211 1.795-0.183-0.782 0.858-1.255 0.864-2.046-0.79-0.207-1.748-0.091-2.256 0.615M15.904 14.828l-0.029-0.030c-0.625 0.273-1.099 0.816-1.186 1.507 0.631 0.046 1.268 0.040 1.894 0.149 0.008 0.081 0.023 0.245 0.030 0.326-0.431 0.045-0.865 0.012-1.297-0.013-0.182-0.097-0.402-0.050-0.6-0.075 0.067 1 1.087 1.672 2.040 1.542 0.605-0.173 1.117-0.589 1.325-1.194 0.487-1.324-0.853-2.669-2.177-2.211M11.161 16.029c-0.057 0.128-0.114 0.257-0.172 0.385 0.096 0.646 0.996 0.632 1.074-0.015-0.057-0.124-0.114-0.246-0.171-0.368-0.124-0.052-0.247-0.103-0.37-0.154-0.121 0.051-0.241 0.102-0.361 0.153z"></path>
<path fill="#da4d2d" d="M10.114 11.861c0.454-0.108 0.891-0.282 1.281-0.538 0.071 0.311 0.146 0.623 0.221 0.934-0.227 0.034-0.469 0.146-0.693 0.114-0.203-0.179-0.391-0.374-0.594-0.552-0.053 0.011-0.162 0.032-0.215 0.043z"></path>
<path fill="#be462c" d="M14.152 13.068c0.17 0.139 0.339 0.278 0.51 0.416-0.339 0.399-0.607 0.858-0.79 1.349-0.052 0.149-0.101 0.299-0.147 0.45-0.413-0.501-0.891-0.945-1.351-1.402 0.543-0.051 1.088-0.064 1.634-0.093 0.052-0.239 0.105-0.479 0.145-0.72z"></path>
<path fill="#b94734" d="M14.129 15.264c0.316-0.45 0.716-0.854 1.218-1.095 0.093 0.083 0.185 0.166 0.278 0.248-0.663 0.289-1.202 0.864-1.316 1.594-0.080-0.176-0.175-0.343-0.271-0.51 0.027-0.081 0.058-0.159 0.091-0.238z"></path>
<path fill="#dc4d2d" d="M14.69 16.305c0.087-0.69 0.561-1.233 1.186-1.507l0.029 0.030c0.731 0.732 1.365 1.562 2.177 2.211-0.208 0.605-0.72 1.021-1.325 1.194-0.465-0.504-0.927-1.012-1.44-1.467 0.432 0.025 0.866 0.058 1.297 0.013-0.007-0.081-0.021-0.245-0.030-0.326-0.626-0.108-1.263-0.102-1.894-0.149z"></path>
</svg>
