<!-- Generated by IcoMoon.io -->
<svg version="1.1" xmlns="http://www.w3.org/2000/svg" width="24" height="24" viewBox="0 0 24 24">
<title>regulatory--light-rail-divided-highway--g1</title>
<path fill="#231f20" d="M1.366 0h21.269c0.612 0.1 1.136 0.531 1.365 1.105v21.952c-0.165 0.379-0.407 0.734-0.773 0.943h-22.391c-0.393-0.227-0.695-0.597-0.836-1.029v-21.783c0.197-0.621 0.736-1.059 1.366-1.188M1.451 0.268c-0.617 0.089-1.152 0.611-1.213 1.235 0 6.837 0 13.674 0 20.51 0.004 0.401-0.056 0.833 0.16 1.195 0.271 0.424 0.764 0.708 1.268 0.714 6.943-0.004 13.885 0 20.828-0.002 0.732-0.039 1.337-0.695 1.345-1.426 0.004-6.916 0.004-13.833 0-20.75-0.002-0.872-0.807-1.571-1.666-1.508-6.809 0.005-13.618 0.002-20.427 0.002-0.099 0-0.198 0.010-0.295 0.030z"></path>
<path fill="#231f20" d="M1.292 0.505c0.253-0.056 0.517-0.021 0.774-0.029 6.837 0.002 13.674 0.001 20.51 0.001 0.575 0.040 1.086 0.61 1.029 1.192-0.009 7.023 0.004 14.046-0.006 21.069-0.092 0.419-0.43 0.85-0.861 0.942-7.076 0.007-14.153-0.002-21.23 0.005-0.372 0.023-0.708-0.219-0.923-0.504-0.236-0.43-0.186-0.935-0.187-1.406-0.001-6.676 0.002-13.353-0.002-20.029 0.002-0.548 0.331-1.121 0.896-1.241M1.032 1.663c0.002 6.945 0.002 13.889 0 20.834-0.027 0.222 0.133 0.392 0.258 0.554 7.133-0.009 14.267-0.002 21.401-0.004 0.091-0.092 0.184-0.184 0.276-0.276 0-7.128 0-14.255 0-21.382-0.092-0.091-0.184-0.184-0.276-0.276-7.035-0.001-14.072 0.001-21.108-0.001-0.31-0.036-0.587 0.241-0.551 0.551z"></path>
<path fill="#231f20" d="M6.358 2.623c0.336 0.012 0.68-0.035 1.012 0.025 0.559 0.227 0.738 0.902 0.565 1.441-0.266 0.621-0.998 0.646-1.577 0.599 0-0.688 0-1.376 0-2.065M6.756 3.009c-0.002 0.401-0.001 0.802-0.001 1.203 0.146 0 0.292 0 0.439 0 0.119-0.121 0.239-0.241 0.362-0.358 0.101-0.482-0.308-0.933-0.801-0.845z"></path>
<path fill="#231f20" d="M8.344 2.623c0.159 0 0.318 0 0.477 0 0 0.689 0 1.377 0 2.066-0.159 0-0.318 0-0.477 0 0-0.689 0-1.377 0-2.066z"></path>
<path fill="#231f20" d="M9.041 2.624c0.157-0.001 0.314-0.002 0.47-0.003 0.185 0.381 0.263 0.888 0.501 1.194 0.238-0.307 0.316-0.813 0.501-1.194 0.157 0.001 0.314 0.002 0.47 0.003-0.246 0.691-0.494 1.381-0.758 2.065-0.142 0-0.285 0-0.428 0-0.261-0.685-0.528-1.368-0.757-2.065z"></path>
<path fill="#231f20" d="M11.205 2.623c0.159 0 0.318 0 0.477 0 0 0.689 0 1.377 0 2.066-0.159 0-0.318 0-0.477 0 0-0.689 0-1.377 0-2.066z"></path>
<path fill="#231f20" d="M12.079 2.623c0.345 0.005 0.691-0.017 1.035 0.008 0.634 0.188 0.802 1.026 0.526 1.555-0.334 0.528-1.008 0.539-1.562 0.501 0-0.688 0-1.376 0-2.065M12.557 3.009c-0.002 0.405-0.002 0.81 0 1.214 0.308 0.026 0.693-0.098 0.749-0.446 0.16-0.451-0.312-0.855-0.749-0.768z"></path>
<path fill="#231f20" d="M14.146 2.623c0.503 0 1.007 0 1.51 0 0 0.133 0 0.265 0 0.397-0.371 0-0.741 0-1.113 0 0 0.106 0 0.211 0 0.318 0.211 0 0.424 0 0.636 0 0 0.133 0 0.265 0 0.397-0.212 0-0.424 0-0.636 0 0 0.159 0 0.318 0 0.477 0.397 0 0.795 0 1.192 0 0 0.159 0 0.318 0 0.477-0.53 0-1.059 0-1.589 0 0-0.689 0-1.377 0-2.066z"></path>
<path fill="#231f20" d="M16.053 2.623c0.336 0.012 0.679-0.035 1.012 0.025 0.559 0.227 0.738 0.902 0.565 1.441-0.266 0.621-0.998 0.646-1.577 0.599 0-0.688 0-1.376 0-2.065M16.451 3.009c-0.002 0.401-0.001 0.802-0.001 1.203 0.146 0 0.292 0 0.439 0 0.119-0.121 0.239-0.241 0.362-0.358 0.101-0.482-0.308-0.933-0.801-0.845z"></path>
<path fill="#231f20" d="M4.911 5.785c0.297-0.176 0.558-0.458 0.922-0.48 0.071 0.074 0.143 0.148 0.215 0.221 0.017 0.377-0.145 0.722-0.267 1.068 3.741 0.004 7.484 0 11.225 0.002 0 0.556 0 1.113 0 1.669-1.404 0-2.808 0-4.212 0 0 0.61-0.001 1.218 0 1.828 0.059 0 0.176 0 0.234 0.001 0.002-0.060 0.007-0.18 0.010-0.239 0.288 0 0.576 0 0.865 0 0.002 0.060 0.006 0.179 0.008 0.238 0.209 0 0.418 0 0.628 0 0.002-0.060 0.006-0.179 0.008-0.238 0.288 0 0.577 0 0.866 0 0.002 0.060 0.006 0.179 0.008 0.238 0.183 0 0.366 0 0.548 0 0.002-0.060 0.006-0.179 0.008-0.238 0.315 0 0.63 0 0.946 0 0.002 0.060 0.006 0.179 0.008 0.238 0.183 0 0.366 0 0.548 0 0.002-0.060 0.006-0.179 0.008-0.238 0.288 0 0.577 0 0.866 0 0.002 0.060 0.006 0.179 0.008 0.238 0.209 0 0.418 0 0.628 0 0.002-0.060 0.006-0.179 0.008-0.238 0.288 0 0.577 0 0.866 0 0.002 0.060 0.006 0.179 0.008 0.238 0.209 0 0.418 0 0.628 0 0.002-0.060 0.006-0.179 0.008-0.238 0.281 0 0.562 0 0.842 0 0.019 0.125 0.054 0.243 0.188 0.288-0.017 0.172 0.075 0.424-0.16 0.473-0.001 0.207-0.001 0.415 0 0.623 0.203 0.040 0.155 0.239 0.163 0.393-0.135 0.044-0.172 0.163-0.191 0.289-0.281 0-0.561 0-0.842 0-0.002-0.060-0.006-0.179-0.008-0.238-0.21 0-0.419 0-0.628 0-0.002 0.060-0.006 0.179-0.008 0.238-0.289 0-0.578 0-0.866 0-0.002-0.060-0.006-0.179-0.008-0.238-0.21 0-0.419 0-0.628 0-0.002 0.060-0.006 0.179-0.008 0.238-0.289 0-0.578 0-0.866 0-0.002-0.060-0.006-0.179-0.008-0.238-0.183 0-0.366 0-0.548 0-0.002 0.060-0.006 0.179-0.008 0.238-0.315 0-0.63 0-0.946 0-0.002-0.060-0.006-0.179-0.008-0.238-0.183 0-0.366 0-0.548 0-0.002 0.060-0.006 0.179-0.008 0.238-0.289 0-0.578 0-0.866 0-0.002-0.060-0.006-0.179-0.008-0.238-0.21 0-0.419 0-0.628 0-0.002 0.060-0.006 0.179-0.008 0.238-0.289 0-0.578 0-0.865 0-0.002-0.060-0.007-0.179-0.010-0.239-0.058 0.001-0.175 0.001-0.234 0.001 0 0.344 0 0.689 0 1.033 0.059 0 0.176 0 0.234 0.001 0.002-0.060 0.007-0.18 0.010-0.239 0.288 0 0.576 0 0.865 0 0.002 0.060 0.006 0.179 0.008 0.238 0.209 0 0.418 0 0.628 0 0.002-0.060 0.006-0.179 0.008-0.238 0.288 0 0.577 0 0.866 0 0.002 0.060 0.006 0.179 0.008 0.238 0.183 0 0.366 0 0.548 0 0.002-0.060 0.006-0.179 0.008-0.238 0.315 0 0.63 0 0.946 0 0.002 0.060 0.006 0.179 0.008 0.238 0.183 0 0.366 0 0.548 0 0.002-0.060 0.006-0.179 0.008-0.238 0.288 0 0.577 0 0.866 0 0.002 0.060 0.006 0.179 0.008 0.238 0.209 0 0.418 0 0.628 0 0.002-0.060 0.006-0.179 0.008-0.238 0.288 0 0.577 0 0.866 0 0.002 0.060 0.006 0.179 0.008 0.238 0.209 0 0.418 0 0.628 0 0.002-0.060 0.006-0.179 0.008-0.238 0.281 0 0.562 0 0.842 0 0.018 0.126 0.056 0.246 0.191 0.289-0.008 0.153 0.040 0.353-0.163 0.393-0.001 0.207-0.001 0.416 0 0.623 0.232 0.048 0.143 0.296 0.16 0.466-0.075 0.068-0.147 0.14-0.217 0.214-0.257 0.003-0.514 0.003-0.771 0.002-0.093-0.251-0.636-0.251-0.728 0-0.261 0-0.521 0-0.782 0-0.093-0.251-0.636-0.251-0.728 0-0.261 0-0.521 0-0.782 0-0.073-0.247-0.575-0.247-0.648 0-0.287 0-0.575 0-0.861 0-0.073-0.247-0.575-0.247-0.648 0-0.261 0-0.521 0-0.782 0-0.093-0.251-0.635-0.251-0.728 0-0.26 0-0.52 0.001-0.78-0.001-0.043-0.133-0.16-0.167-0.284-0.183-0.006 0.617-0.002 1.235-0.003 1.852 1.808-0.002 3.615 0.003 5.423-0.002-0.041-0.432-0.39-0.855-0.161-1.279 0.199 0.014 0.424-0.021 0.587 0.122 0.954 0.72 1.991 1.33 2.918 2.082-1.023 0.671-2.068 1.31-3.099 1.968-0.175 0.139-0.359-0.059-0.521-0.124 0.023-0.412 0.198-0.793 0.333-1.178-1.509 0.006-3.019-0.008-4.528 0.006-0.527 0.023-0.885 0.457-0.975 0.949-0.522-0.002-1.044-0.001-1.566-0.001 0-0.318 0-0.636 0-0.954-1.404 0-2.808 0-4.212 0 0-0.53 0-1.059 0-1.589 1.404 0 2.808 0 4.212 0-0.002-0.622 0.005-1.245-0.005-1.868-0.238 0.308-0.647 0.176-0.982 0.198-0.094-0.25-0.636-0.25-0.728 0.001-0.261 0-0.521 0-0.782 0-0.093-0.251-0.635-0.251-0.728 0-0.261 0-0.521 0-0.782 0-0.073-0.247-0.575-0.247-0.648 0-0.287 0-0.575 0-0.861 0-0.073-0.247-0.575-0.247-0.648 0-0.261 0-0.521 0-0.782 0-0.093-0.251-0.635-0.251-0.728 0-0.257 0.001-0.514 0.001-0.771-0.002-0.070-0.074-0.142-0.145-0.217-0.214 0.016-0.17-0.073-0.418 0.16-0.466 0-0.207 0-0.416 0-0.623-0.203-0.040-0.155-0.239-0.163-0.393 0.135-0.044 0.172-0.163 0.191-0.289 0.281 0 0.561 0 0.842 0 0.002 0.060 0.006 0.179 0.008 0.238 0.209 0 0.418 0 0.628 0 0.002-0.060 0.006-0.179 0.008-0.238 0.288 0 0.577 0 0.866 0 0.002 0.060 0.006 0.179 0.008 0.238 0.183 0 0.366 0 0.548 0 0.002-0.060 0.006-0.179 0.008-0.238 0.315 0 0.63 0 0.946 0 0.002 0.060 0.006 0.179 0.008 0.238 0.183 0 0.366 0 0.548 0 0.002-0.060 0.006-0.179 0.008-0.238 0.288 0 0.577 0 0.866 0 0.002 0.060 0.006 0.179 0.008 0.238 0.209 0 0.418 0 0.628 0 0.002-0.060 0.006-0.179 0.008-0.238 0.288 0 0.577 0 0.866 0 0.002 0.060 0.006 0.179 0.008 0.238 0.209 0 0.418 0 0.628 0 0.002-0.060 0.006-0.179 0.008-0.238 0.288 0 0.577 0 0.866 0 0.002 0.060 0.006 0.179 0.008 0.238 0.039 0 0.116 0 0.155 0 0-0.344 0-0.689 0-1.033-0.039 0-0.116 0-0.155 0-0.002 0.060-0.006 0.179-0.008 0.238-0.289 0-0.578 0-0.866 0-0.002-0.060-0.006-0.179-0.008-0.238-0.21 0-0.419 0-0.628 0-0.002 0.060-0.006 0.179-0.008 0.238-0.289 0-0.578 0-0.866 0-0.002-0.060-0.006-0.179-0.008-0.238-0.21 0-0.419 0-0.628 0-0.002 0.060-0.006 0.179-0.008 0.238-0.289 0-0.578 0-0.866 0-0.002-0.060-0.006-0.179-0.008-0.238-0.183 0-0.366 0-0.548 0-0.002 0.060-0.006 0.179-0.008 0.238-0.315 0-0.63 0-0.946 0-0.002-0.060-0.006-0.179-0.008-0.238-0.183 0-0.366 0-0.548 0-0.002 0.060-0.006 0.179-0.008 0.238-0.289 0-0.578 0-0.866 0-0.002-0.060-0.006-0.179-0.008-0.238-0.21 0-0.419 0-0.628 0-0.002 0.060-0.006 0.179-0.008 0.238-0.281 0-0.562 0-0.842 0-0.018-0.126-0.056-0.246-0.191-0.289 0.008-0.153-0.040-0.353 0.163-0.393 0-0.208 0-0.416 0-0.623-0.234-0.049-0.143-0.301-0.16-0.473 0.133-0.045 0.168-0.164 0.188-0.288 0.281 0 0.561 0 0.842 0 0.002 0.060 0.006 0.179 0.008 0.238 0.209 0 0.418 0 0.628 0 0.002-0.060 0.006-0.179 0.008-0.238 0.288 0 0.577 0 0.866 0 0.002 0.060 0.006 0.179 0.008 0.238 0.183 0 0.366 0 0.548 0 0.002-0.060 0.006-0.179 0.008-0.238 0.315 0 0.63 0 0.946 0 0.002 0.060 0.006 0.179 0.008 0.238 0.183 0 0.366 0 0.548 0 0.002-0.060 0.006-0.179 0.008-0.238 0.288 0 0.577 0 0.866 0 0.002 0.060 0.006 0.179 0.008 0.238 0.209 0 0.418 0 0.628 0 0.002-0.060 0.006-0.179 0.008-0.238 0.288 0 0.577 0 0.866 0 0.002 0.060 0.006 0.179 0.008 0.238 0.209 0 0.418 0 0.628 0 0.002-0.060 0.006-0.179 0.008-0.238 0.288 0 0.577 0 0.866 0 0.002 0.060 0.006 0.179 0.008 0.238 0.039 0 0.116 0 0.154 0-0.043-0.507 0.145-1.1-0.223-1.523-0.191-0.139-0.392-0.321-0.643-0.306-1.511 0-3.021 0.002-4.531-0.001 0.113 0.385 0.27 0.767 0.241 1.177-0.164 0.045-0.353 0.167-0.513 0.045-1.040-0.673-2.059-1.38-3.099-2.053 0.794-0.594 1.667-1.074 2.475-1.647M3.576 10.57c0 0.238 0 0.477 0 0.715 0.212 0 0.424 0 0.636 0 0-0.238 0-0.477 0-0.715-0.212 0-0.424 0-0.636 0M5.086 10.57c0 0.238 0 0.477 0 0.715 0.185 0 0.371 0 0.556 0 0-0.238 0-0.477 0-0.715-0.185 0-0.371 0-0.556 0M6.596 10.57c0 0.238 0 0.477 0 0.715 0.185 0 0.371 0 0.556 0 0-0.238 0-0.477 0-0.715-0.185 0-0.371 0-0.556 0M8.027 10.57c0 0.238 0 0.477 0 0.715 0.212 0 0.424 0 0.636 0 0-0.238 0-0.477 0-0.715-0.212 0-0.424 0-0.636 0M9.536 10.57c0 0.238 0 0.477 0 0.715 0.212 0 0.424 0 0.636 0 0-0.238 0-0.477 0-0.715-0.212 0-0.424 0-0.636 0M11.046 10.57c0 0.238 0 0.477 0 0.715 0.040 0 0.119 0 0.159 0 0-0.238 0-0.477 0-0.715-0.040 0-0.119 0-0.159 0M12.795 10.57c0 0.238 0 0.477 0 0.715 0.060 0 0.179 0 0.238 0 0-0.238 0-0.477 0-0.715-0.060 0-0.179 0-0.238 0M13.907 10.57c0 0.238 0 0.477 0 0.715 0.212 0 0.424 0 0.636 0 0-0.238 0-0.477 0-0.715-0.212 0-0.424 0-0.636 0M15.417 10.57c0 0.238 0 0.477 0 0.715 0.185 0 0.37 0 0.556 0 0-0.238 0-0.477 0-0.715-0.186 0-0.371 0-0.556 0M16.927 10.57c0 0.238 0 0.477 0 0.715 0.185 0 0.37 0 0.556 0 0-0.238 0-0.477 0-0.715-0.186 0-0.371 0-0.556 0M18.358 10.57c0 0.238 0 0.477 0 0.715 0.211 0 0.424 0 0.636 0 0-0.238 0-0.477 0-0.715-0.212 0-0.424 0-0.636 0M19.868 10.57c0 0.238 0 0.477 0 0.715 0.211 0 0.424 0 0.636 0 0-0.238 0-0.477 0-0.715-0.212 0-0.424 0-0.636 0M3.576 13.113c0 0.238 0 0.477 0 0.715 0.212 0 0.424 0 0.636 0 0-0.238 0-0.477 0-0.715-0.212 0-0.424 0-0.636 0M5.086 13.113c0 0.238 0 0.477 0 0.715 0.185 0 0.371 0 0.556 0 0-0.238 0-0.477 0-0.715-0.185 0-0.371 0-0.556 0M6.596 13.113c0 0.238 0 0.477 0 0.715 0.185 0 0.371 0 0.556 0 0-0.238 0-0.477 0-0.715-0.185 0-0.371 0-0.556 0M8.027 13.113c0 0.238 0 0.477 0 0.715 0.212 0 0.424 0 0.636 0 0-0.238 0-0.477 0-0.715-0.212 0-0.424 0-0.636 0M9.536 13.113c0 0.238 0 0.477 0 0.715 0.212 0 0.424 0 0.636 0 0-0.238 0-0.477 0-0.715-0.212 0-0.424 0-0.636 0M11.046 13.113c0 0.238 0 0.477 0 0.715 0.040 0 0.119 0 0.159 0 0-0.238 0-0.477 0-0.715-0.040 0-0.119 0-0.159 0M12.795 13.113c0 0.238 0 0.477 0 0.715 0.060 0 0.179 0 0.238 0 0-0.238 0-0.477 0-0.715-0.060 0-0.179 0-0.238 0M13.907 13.113c0 0.238 0 0.477 0 0.715 0.212 0 0.424 0 0.636 0 0-0.238 0-0.477 0-0.715-0.212 0-0.424 0-0.636 0M15.417 13.113c0 0.238 0 0.477 0 0.715 0.185 0 0.37 0 0.556 0 0-0.238 0-0.477 0-0.715-0.186 0-0.371 0-0.556 0M16.927 13.113c0 0.238 0 0.477 0 0.715 0.185 0 0.37 0 0.556 0 0-0.238 0-0.477 0-0.715-0.186 0-0.371 0-0.556 0M18.358 13.113c0 0.238 0 0.477 0 0.715 0.211 0 0.424 0 0.636 0 0-0.238 0-0.477 0-0.715-0.212 0-0.424 0-0.636 0M19.868 13.113c0 0.238 0 0.477 0 0.715 0.211 0 0.424 0 0.636 0 0-0.238 0-0.477 0-0.715-0.212 0-0.424 0-0.636 0z"></path>
<path fill="#231f20" d="M8.921 19.496c0.42-0.125 0.985 0.093 1.040 0.573-0.126 0.038-0.253 0.079-0.377 0.123-0.082-0.082-0.164-0.163-0.245-0.245-0.116-0.001-0.232-0.002-0.347-0.003-0.339 0.384-0.343 1.058 0.182 1.278 0.111-0.075 0.223-0.149 0.331-0.227-0.072-0.006-0.215-0.017-0.288-0.022 0.001-0.157 0.001-0.313 0.001-0.469 0.265 0 0.531 0 0.796 0 0.002 0.309 0.054 0.675-0.216 0.897-0.231 0.281-0.613 0.213-0.933 0.218-0.728-0.434-0.761-1.771 0.056-2.123z"></path>
<path fill="#231f20" d="M5.404 19.55c0.133 0 0.265 0 0.397 0 0 0.238 0 0.477 0 0.715 0.292 0 0.583 0 0.874 0 0-0.238 0-0.477 0-0.715 0.133 0 0.265 0 0.397 0 0 0.689 0 1.377 0 2.066-0.133 0-0.265 0-0.397 0 0-0.292 0-0.583 0-0.874-0.292 0-0.583 0-0.874 0 0 0.292 0 0.583 0 0.874-0.133 0-0.265 0-0.397 0 0-0.689 0-1.377 0-2.066z"></path>
<path fill="#231f20" d="M7.55 19.55c0.133 0 0.265 0 0.397 0 0 0.689 0 1.377 0 2.066-0.133 0-0.265 0-0.397 0 0-0.689 0-1.377 0-2.066z"></path>
<path fill="#231f20" d="M10.411 19.55c0.133 0 0.265 0 0.397 0 0 0.238 0 0.477 0 0.715 0.265 0 0.53 0 0.795 0 0-0.238 0-0.477 0-0.715 0.159 0 0.318 0 0.477 0 0 0.689 0 1.377 0 2.066-0.159 0-0.318 0-0.477 0 0-0.292 0-0.583 0-0.874-0.265 0-0.53 0-0.795 0 0 0.292 0 0.583 0 0.874-0.133 0-0.265 0-0.397 0 0-0.689 0-1.377 0-2.066z"></path>
<path fill="#231f20" d="M12.302 19.551c0.158-0.002 0.316-0.002 0.475-0.002 0.046 0.254 0.103 0.506 0.106 0.765 0.033 0.035 0.1 0.104 0.134 0.138 0.040-0.306 0.095-0.61 0.187-0.905 0.148 0.001 0.296 0.002 0.443 0.002 0.090 0.331 0.179 0.664 0.206 1.008 0.131-0.323 0.141-0.675 0.228-1.008 0.148-0.001 0.296-0.002 0.445-0.003-0.153 0.687-0.225 1.39-0.392 2.073-0.149-0.002-0.297-0.002-0.446-0.003-0.072-0.398-0.152-0.799-0.312-1.173-0.098 0.397-0.041 1.439-0.681 1.116-0.161-0.649-0.226-1.348-0.393-2.007z"></path>
<path fill="#231f20" d="M15.423 19.546c0.148 0.002 0.296 0.003 0.444 0.004 0.288 0.685 0.593 1.365 0.852 2.061-0.161 0.004-0.321 0.006-0.481 0.008-0.063-0.161-0.123-0.323-0.188-0.483-0.26 0.004-0.519 0.005-0.778 0.002-0.091 0.159-0.176 0.322-0.265 0.482-0.135-0.002-0.27-0.004-0.405-0.006 0.178-0.716 0.535-1.385 0.821-2.067M15.617 20.22c-0.054 0.145-0.104 0.292-0.148 0.441 0.126-0.001 0.253-0.002 0.379-0.005-0.072-0.149-0.149-0.294-0.231-0.436z"></path>
<path fill="#231f20" d="M16.426 19.548c0.204 0.002 0.408 0.002 0.612 0.002 0.168 0.243 0.353 0.476 0.5 0.734 0.179-0.242 0.338-0.498 0.521-0.737 0.185 0.002 0.37 0.002 0.555 0.003-0.275 0.428-0.563 0.852-0.891 1.241-0.002 0.275-0.001 0.55-0.001 0.825-0.133 0-0.265 0-0.398 0-0.033-0.347 0.108-0.757-0.144-1.047-0.27-0.327-0.458-0.715-0.754-1.021z"></path>
<path fill="#fff" d="M1.451 0.268c0.097-0.020 0.195-0.030 0.295-0.030 6.809 0 13.618 0.003 20.427-0.002 0.859-0.063 1.663 0.637 1.666 1.508 0.004 6.916 0.004 13.833 0 20.75-0.007 0.73-0.613 1.387-1.345 1.426-6.943 0.002-13.885-0.002-20.828 0.002-0.505-0.006-0.997-0.289-1.268-0.714-0.215-0.362-0.156-0.794-0.16-1.195 0-6.837 0-13.674 0-20.51 0.060-0.624 0.595-1.146 1.213-1.235M1.292 0.505c-0.565 0.12-0.895 0.694-0.896 1.241 0.004 6.676 0.001 13.353 0.002 20.029 0.001 0.471-0.049 0.976 0.187 1.406 0.215 0.285 0.552 0.527 0.923 0.504 7.077-0.007 14.154 0.002 21.23-0.005 0.432-0.092 0.769-0.523 0.861-0.942 0.010-7.023-0.002-14.046 0.006-21.069 0.057-0.583-0.455-1.152-1.029-1.192-6.836 0-13.673 0.001-20.51-0.001-0.257 0.008-0.521-0.027-0.774 0.029z"></path>
<path fill="#fff" d="M1.032 1.663c-0.036-0.31 0.241-0.587 0.551-0.551 7.036 0.002 14.073 0 21.108 0.001 0.091 0.092 0.184 0.184 0.276 0.276 0 7.128 0 14.255 0 21.382-0.092 0.091-0.184 0.184-0.276 0.276-7.133 0.002-14.267-0.005-21.401 0.004-0.126-0.162-0.285-0.332-0.258-0.554 0.002-6.945 0.002-13.889 0-20.834M6.358 2.623c0 0.688 0 1.376 0 2.065 0.579 0.047 1.31 0.021 1.577-0.599 0.173-0.539-0.006-1.214-0.565-1.441-0.331-0.060-0.675-0.013-1.012-0.025M8.344 2.623c0 0.689 0 1.377 0 2.066 0.159 0 0.318 0 0.477 0 0-0.689 0-1.377 0-2.066-0.159 0-0.318 0-0.477 0M9.041 2.624c0.23 0.697 0.497 1.38 0.757 2.065 0.143 0 0.286 0 0.428 0 0.265-0.684 0.512-1.375 0.758-2.065-0.157-0.001-0.314-0.002-0.47-0.003-0.185 0.381-0.263 0.888-0.501 1.194-0.238-0.307-0.316-0.813-0.501-1.194-0.157 0.001-0.314 0.002-0.47 0.003M11.205 2.623c0 0.689 0 1.377 0 2.066 0.159 0 0.318 0 0.477 0 0-0.689 0-1.377 0-2.066-0.159 0-0.318 0-0.477 0M12.079 2.623c0 0.688 0 1.376 0 2.065 0.554 0.037 1.228 0.026 1.562-0.501 0.276-0.529 0.108-1.368-0.526-1.555-0.345-0.025-0.691-0.003-1.035-0.008M14.146 2.623c0 0.689 0 1.377 0 2.066 0.53 0 1.059 0 1.589 0 0-0.159 0-0.318 0-0.477-0.397 0-0.795 0-1.192 0 0-0.159 0-0.318 0-0.477 0.212 0 0.424 0 0.636 0 0-0.133 0-0.265 0-0.397-0.212 0-0.424 0-0.636 0 0-0.107 0-0.212 0-0.318 0.371 0 0.741 0 1.113 0 0-0.133 0-0.265 0-0.397-0.503 0-1.007 0-1.51 0M16.053 2.623c0 0.688 0 1.376 0 2.065 0.579 0.047 1.31 0.021 1.577-0.599 0.173-0.539-0.006-1.214-0.565-1.441-0.332-0.060-0.675-0.013-1.012-0.025M4.911 5.785c-0.808 0.574-1.681 1.053-2.475 1.647 1.040 0.672 2.059 1.38 3.099 2.053 0.16 0.122 0.349 0 0.513-0.045 0.029-0.41-0.128-0.792-0.241-1.177 1.51 0.003 3.020 0.001 4.531 0.001 0.251-0.015 0.452 0.167 0.643 0.306 0.369 0.423 0.18 1.016 0.223 1.523-0.038 0-0.115 0-0.154 0-0.002-0.060-0.006-0.179-0.008-0.238-0.289 0-0.578 0-0.866 0-0.002 0.060-0.006 0.179-0.008 0.238-0.21 0-0.419 0-0.628 0-0.002-0.060-0.006-0.179-0.008-0.238-0.289 0-0.578 0-0.866 0-0.002 0.060-0.006 0.179-0.008 0.238-0.21 0-0.419 0-0.628 0-0.002-0.060-0.006-0.179-0.008-0.238-0.289 0-0.578 0-0.866 0-0.002 0.060-0.006 0.179-0.008 0.238-0.183 0-0.366 0-0.548 0-0.002-0.060-0.006-0.179-0.008-0.238-0.315 0-0.63 0-0.946 0-0.002 0.060-0.006 0.179-0.008 0.238-0.183 0-0.366 0-0.548 0-0.002-0.060-0.006-0.179-0.008-0.238-0.289 0-0.578 0-0.866 0-0.002 0.060-0.006 0.179-0.008 0.238-0.21 0-0.419 0-0.628 0-0.002-0.060-0.006-0.179-0.008-0.238-0.281 0-0.562 0-0.842 0-0.019 0.125-0.055 0.243-0.188 0.288 0.017 0.172-0.075 0.424 0.16 0.473 0 0.207 0 0.415 0 0.623-0.203 0.040-0.155 0.239-0.163 0.393 0.135 0.044 0.172 0.163 0.191 0.289 0.281 0 0.561 0 0.842 0 0.002-0.060 0.006-0.179 0.008-0.238 0.209 0 0.418 0 0.628 0 0.002 0.060 0.006 0.179 0.008 0.238 0.288 0 0.577 0 0.866 0 0.002-0.060 0.006-0.179 0.008-0.238 0.183 0 0.366 0 0.548 0 0.002 0.060 0.006 0.179 0.008 0.238 0.315 0 0.63 0 0.946 0 0.002-0.060 0.006-0.179 0.008-0.238 0.183 0 0.366 0 0.548 0 0.002 0.060 0.006 0.179 0.008 0.238 0.288 0 0.577 0 0.866 0 0.002-0.060 0.006-0.179 0.008-0.238 0.209 0 0.418 0 0.628 0 0.002 0.060 0.006 0.179 0.008 0.238 0.288 0 0.577 0 0.866 0 0.002-0.060 0.006-0.179 0.008-0.238 0.209 0 0.418 0 0.628 0 0.002 0.060 0.006 0.179 0.008 0.238 0.288 0 0.577 0 0.866 0 0.002-0.060 0.006-0.179 0.008-0.238 0.039 0 0.116 0 0.155 0 0 0.344 0 0.689 0 1.033-0.039 0-0.116 0-0.155 0-0.002-0.060-0.006-0.179-0.008-0.238-0.289 0-0.578 0-0.866 0-0.002 0.060-0.006 0.179-0.008 0.238-0.21 0-0.419 0-0.628 0-0.002-0.060-0.006-0.179-0.008-0.238-0.289 0-0.578 0-0.866 0-0.002 0.060-0.006 0.179-0.008 0.238-0.21 0-0.419 0-0.628 0-0.002-0.060-0.006-0.179-0.008-0.238-0.289 0-0.578 0-0.866 0-0.002 0.060-0.006 0.179-0.008 0.238-0.183 0-0.366 0-0.548 0-0.002-0.060-0.006-0.179-0.008-0.238-0.315 0-0.63 0-0.946 0-0.002 0.060-0.006 0.179-0.008 0.238-0.183 0-0.366 0-0.548 0-0.002-0.060-0.006-0.179-0.008-0.238-0.289 0-0.578 0-0.866 0-0.002 0.060-0.006 0.179-0.008 0.238-0.21 0-0.419 0-0.628 0-0.002-0.060-0.006-0.179-0.008-0.238-0.281 0-0.562 0-0.842 0-0.018 0.126-0.056 0.246-0.191 0.289 0.008 0.153-0.040 0.353 0.163 0.393 0 0.207 0 0.416 0 0.623-0.233 0.048-0.144 0.296-0.16 0.466 0.075 0.068 0.147 0.14 0.217 0.214 0.257 0.003 0.513 0.003 0.771 0.002 0.093-0.251 0.635-0.251 0.728 0 0.261 0 0.521 0 0.782 0 0.073-0.247 0.575-0.247 0.648 0 0.287 0 0.575 0 0.861 0 0.073-0.247 0.575-0.247 0.648 0 0.261 0 0.521 0 0.782 0 0.093-0.251 0.635-0.251 0.728 0 0.261 0 0.521 0 0.782 0 0.092-0.251 0.634-0.251 0.728-0.001 0.335-0.022 0.744 0.11 0.982-0.198 0.010 0.622 0.002 1.245 0.005 1.868-1.404 0-2.808 0-4.212 0 0 0.53 0 1.059 0 1.589 1.404 0 2.808 0 4.212 0 0 0.318 0 0.636 0 0.954 0.522 0 1.044-0.001 1.566 0.001 0.090-0.492 0.448-0.926 0.975-0.949 1.509-0.014 3.019 0 4.528-0.006-0.135 0.385-0.31 0.765-0.333 1.178 0.161 0.065 0.346 0.263 0.521 0.124 1.032-0.658 2.077-1.297 3.099-1.968-0.927-0.752-1.964-1.362-2.918-2.082-0.163-0.144-0.388-0.108-0.587-0.122-0.229 0.424 0.121 0.848 0.161 1.279-1.808 0.006-3.615 0.001-5.423 0.002 0.002-0.617-0.003-1.235 0.003-1.852 0.124 0.016 0.241 0.050 0.284 0.183 0.26 0.002 0.52 0.001 0.78 0.001 0.093-0.251 0.635-0.251 0.728 0 0.261 0 0.521 0 0.782 0 0.073-0.247 0.575-0.247 0.648 0 0.287 0 0.575 0 0.861 0 0.073-0.247 0.575-0.247 0.648 0 0.261 0 0.521 0 0.782 0 0.092-0.251 0.635-0.251 0.728 0 0.261 0 0.521 0 0.782 0 0.092-0.251 0.635-0.251 0.728 0 0.257 0.001 0.514 0.001 0.771-0.002 0.070-0.074 0.142-0.145 0.217-0.214-0.017-0.17 0.072-0.418-0.16-0.466-0.001-0.207-0.001-0.416 0-0.623 0.203-0.040 0.155-0.239 0.163-0.393-0.135-0.044-0.172-0.163-0.191-0.289-0.281 0-0.561 0-0.842 0-0.002 0.060-0.006 0.179-0.008 0.238-0.21 0-0.419 0-0.628 0-0.002-0.060-0.006-0.179-0.008-0.238-0.289 0-0.578 0-0.866 0-0.002 0.060-0.006 0.179-0.008 0.238-0.21 0-0.419 0-0.628 0-0.002-0.060-0.006-0.179-0.008-0.238-0.289 0-0.578 0-0.866 0-0.002 0.060-0.006 0.179-0.008 0.238-0.183 0-0.366 0-0.548 0-0.002-0.060-0.006-0.179-0.008-0.238-0.315 0-0.63 0-0.946 0-0.002 0.060-0.006 0.179-0.008 0.238-0.183 0-0.366 0-0.548 0-0.002-0.060-0.006-0.179-0.008-0.238-0.289 0-0.578 0-0.866 0-0.002 0.060-0.006 0.179-0.008 0.238-0.21 0-0.419 0-0.628 0-0.002-0.060-0.006-0.179-0.008-0.238-0.289 0-0.578 0-0.865 0-0.002 0.060-0.007 0.179-0.010 0.239-0.058-0.001-0.175-0.001-0.234-0.001 0-0.344 0-0.689 0-1.033 0.059 0 0.176 0 0.234-0.001 0.002 0.060 0.007 0.18 0.010 0.239 0.288 0 0.576 0 0.865 0 0.002-0.060 0.006-0.179 0.008-0.238 0.209 0 0.418 0 0.628 0 0.002 0.060 0.006 0.179 0.008 0.238 0.288 0 0.577 0 0.866 0 0.002-0.060 0.006-0.179 0.008-0.238 0.183 0 0.366 0 0.548 0 0.002 0.060 0.006 0.179 0.008 0.238 0.315 0 0.63 0 0.946 0 0.002-0.060 0.006-0.179 0.008-0.238 0.183 0 0.366 0 0.548 0 0.002 0.060 0.006 0.179 0.008 0.238 0.288 0 0.577 0 0.866 0 0.002-0.060 0.006-0.179 0.008-0.238 0.209 0 0.418 0 0.628 0 0.002 0.060 0.006 0.179 0.008 0.238 0.288 0 0.577 0 0.866 0 0.002-0.060 0.006-0.179 0.008-0.238 0.209 0 0.418 0 0.628 0 0.002 0.060 0.006 0.179 0.008 0.238 0.281 0 0.562 0 0.842 0 0.018-0.126 0.056-0.246 0.191-0.289-0.008-0.153 0.040-0.353-0.163-0.393-0.001-0.208-0.001-0.416 0-0.623 0.234-0.049 0.143-0.301 0.16-0.473-0.134-0.045-0.168-0.164-0.188-0.288-0.281 0-0.561 0-0.842 0-0.002 0.060-0.006 0.179-0.008 0.238-0.21 0-0.419 0-0.628 0-0.002-0.060-0.006-0.179-0.008-0.238-0.289 0-0.578 0-0.866 0-0.002 0.060-0.006 0.179-0.008 0.238-0.21 0-0.419 0-0.628 0-0.002-0.060-0.006-0.179-0.008-0.238-0.289 0-0.578 0-0.866 0-0.002 0.060-0.006 0.179-0.008 0.238-0.183 0-0.366 0-0.548 0-0.002-0.060-0.006-0.179-0.008-0.238-0.315 0-0.63 0-0.946 0-0.002 0.060-0.006 0.179-0.008 0.238-0.183 0-0.366 0-0.548 0-0.002-0.060-0.006-0.179-0.008-0.238-0.289 0-0.578 0-0.866 0-0.002 0.060-0.006 0.179-0.008 0.238-0.21 0-0.419 0-0.628 0-0.002-0.060-0.006-0.179-0.008-0.238-0.289 0-0.578 0-0.865 0-0.002 0.060-0.007 0.179-0.010 0.239-0.058-0.001-0.175-0.001-0.234-0.001-0.001-0.61 0-1.218 0-1.828 1.404 0 2.808 0 4.212 0 0-0.556 0-1.113 0-1.669-3.741-0.002-7.484 0.002-11.225-0.002 0.122-0.346 0.285-0.691 0.267-1.068-0.072-0.073-0.145-0.147-0.215-0.221-0.364 0.022-0.625 0.304-0.922 0.48M8.921 19.496c-0.817 0.351-0.784 1.689-0.056 2.123 0.32-0.005 0.702 0.063 0.933-0.218 0.27-0.222 0.218-0.588 0.216-0.897-0.265 0-0.531 0-0.796 0 0 0.156 0 0.312-0.001 0.469 0.072 0.006 0.216 0.017 0.288 0.022-0.109 0.078-0.22 0.153-0.331 0.227-0.525-0.22-0.521-0.894-0.182-1.278 0.115 0.001 0.231 0.002 0.347 0.003 0.081 0.082 0.163 0.163 0.245 0.245 0.125-0.045 0.251-0.085 0.377-0.123-0.055-0.48-0.62-0.698-1.040-0.573M5.404 19.55c0 0.689 0 1.377 0 2.066 0.133 0 0.265 0 0.397 0 0-0.292 0-0.583 0-0.874 0.292 0 0.583 0 0.874 0 0 0.292 0 0.583 0 0.874 0.133 0 0.265 0 0.397 0 0-0.689 0-1.377 0-2.066-0.133 0-0.265 0-0.397 0 0 0.238 0 0.477 0 0.715-0.292 0-0.583 0-0.874 0 0-0.238 0-0.477 0-0.715-0.133 0-0.265 0-0.397 0M7.55 19.55c0 0.689 0 1.377 0 2.066 0.133 0 0.265 0 0.397 0 0-0.689 0-1.377 0-2.066-0.133 0-0.265 0-0.397 0M10.411 19.55c0 0.689 0 1.377 0 2.066 0.133 0 0.265 0 0.397 0 0-0.292 0-0.583 0-0.874 0.265 0 0.53 0 0.795 0 0 0.292 0 0.583 0 0.874 0.159 0 0.318 0 0.477 0 0-0.689 0-1.377 0-2.066-0.159 0-0.318 0-0.477 0 0 0.238 0 0.477 0 0.715-0.265 0-0.53 0-0.795 0 0-0.238 0-0.477 0-0.715-0.133 0-0.265 0-0.397 0M12.302 19.551c0.168 0.66 0.232 1.358 0.393 2.007 0.641 0.323 0.583-0.719 0.681-1.116 0.161 0.373 0.24 0.775 0.312 1.173 0.149 0.001 0.297 0.001 0.446 0.003 0.167-0.683 0.239-1.386 0.392-2.073-0.149 0.002-0.297 0.002-0.445 0.003-0.087 0.334-0.097 0.686-0.228 1.008-0.027-0.344-0.116-0.677-0.206-1.008-0.148-0.001-0.296-0.002-0.443-0.002-0.091 0.295-0.147 0.599-0.187 0.905-0.034-0.034-0.101-0.103-0.134-0.138-0.003-0.259-0.060-0.512-0.106-0.765-0.159 0.001-0.317 0.001-0.475 0.002M15.423 19.546c-0.286 0.682-0.643 1.351-0.821 2.067 0.134 0.002 0.269 0.004 0.405 0.006 0.090-0.16 0.175-0.323 0.265-0.482 0.259 0.002 0.518 0.002 0.778-0.002 0.065 0.16 0.126 0.322 0.188 0.483 0.16-0.002 0.32-0.004 0.481-0.008-0.259-0.696-0.563-1.376-0.852-2.061-0.149-0.001-0.296-0.002-0.444-0.004M16.426 19.548c0.296 0.306 0.484 0.695 0.754 1.021 0.252 0.289 0.111 0.699 0.144 1.047 0.133 0 0.265 0 0.398 0 0-0.275-0.001-0.55 0.001-0.825 0.328-0.389 0.616-0.813 0.891-1.241-0.185-0.001-0.37-0.002-0.555-0.003-0.184 0.238-0.343 0.495-0.521 0.737-0.147-0.257-0.331-0.49-0.5-0.734-0.203 0-0.408 0-0.612-0.002z"></path>
<path fill="#fff" d="M6.756 3.009c0.494-0.088 0.902 0.362 0.801 0.845-0.123 0.118-0.243 0.238-0.362 0.358-0.147 0-0.293 0-0.439 0 0-0.401-0.001-0.803 0.001-1.203z"></path>
<path fill="#fff" d="M12.557 3.009c0.438-0.087 0.909 0.318 0.749 0.768-0.056 0.348-0.441 0.472-0.749 0.446-0.002-0.405-0.002-0.81 0-1.214z"></path>
<path fill="#fff" d="M16.451 3.009c0.494-0.088 0.902 0.362 0.801 0.845-0.123 0.118-0.243 0.238-0.362 0.358-0.147 0-0.293 0-0.439 0 0-0.401-0.001-0.803 0.001-1.203z"></path>
<path fill="#fff" d="M3.576 10.57c0.212 0 0.424 0 0.636 0 0 0.238 0 0.477 0 0.715-0.212 0-0.424 0-0.636 0 0-0.238 0-0.477 0-0.715z"></path>
<path fill="#fff" d="M5.086 10.57c0.185 0 0.371 0 0.556 0 0 0.238 0 0.477 0 0.715-0.185 0-0.371 0-0.556 0 0-0.238 0-0.477 0-0.715z"></path>
<path fill="#fff" d="M6.596 10.57c0.185 0 0.371 0 0.556 0 0 0.238 0 0.477 0 0.715-0.185 0-0.371 0-0.556 0 0-0.238 0-0.477 0-0.715z"></path>
<path fill="#fff" d="M8.027 10.57c0.212 0 0.424 0 0.636 0 0 0.238 0 0.477 0 0.715-0.212 0-0.424 0-0.636 0 0-0.238 0-0.477 0-0.715z"></path>
<path fill="#fff" d="M9.536 10.57c0.212 0 0.424 0 0.636 0 0 0.238 0 0.477 0 0.715-0.212 0-0.424 0-0.636 0 0-0.238 0-0.477 0-0.715z"></path>
<path fill="#fff" d="M11.046 10.57c0.040 0 0.119 0 0.159 0 0 0.238 0 0.477 0 0.715-0.040 0-0.119 0-0.159 0 0-0.238 0-0.477 0-0.715z"></path>
<path fill="#fff" d="M12.795 10.57c0.060 0 0.179 0 0.238 0 0 0.238 0 0.477 0 0.715-0.060 0-0.179 0-0.238 0 0-0.238 0-0.477 0-0.715z"></path>
<path fill="#fff" d="M13.907 10.57c0.212 0 0.424 0 0.636 0 0 0.238 0 0.477 0 0.715-0.212 0-0.424 0-0.636 0 0-0.238 0-0.477 0-0.715z"></path>
<path fill="#fff" d="M15.417 10.57c0.185 0 0.37 0 0.556 0 0 0.238 0 0.477 0 0.715-0.186 0-0.371 0-0.556 0 0-0.238 0-0.477 0-0.715z"></path>
<path fill="#fff" d="M16.927 10.57c0.185 0 0.37 0 0.556 0 0 0.238 0 0.477 0 0.715-0.186 0-0.371 0-0.556 0 0-0.238 0-0.477 0-0.715z"></path>
<path fill="#fff" d="M18.358 10.57c0.211 0 0.424 0 0.636 0 0 0.238 0 0.477 0 0.715-0.212 0-0.424 0-0.636 0 0-0.238 0-0.477 0-0.715z"></path>
<path fill="#fff" d="M19.868 10.57c0.211 0 0.424 0 0.636 0 0 0.238 0 0.477 0 0.715-0.212 0-0.424 0-0.636 0 0-0.238 0-0.477 0-0.715z"></path>
<path fill="#fff" d="M3.576 13.113c0.212 0 0.424 0 0.636 0 0 0.238 0 0.477 0 0.715-0.212 0-0.424 0-0.636 0 0-0.238 0-0.477 0-0.715z"></path>
<path fill="#fff" d="M5.086 13.113c0.185 0 0.371 0 0.556 0 0 0.238 0 0.477 0 0.715-0.185 0-0.371 0-0.556 0 0-0.238 0-0.477 0-0.715z"></path>
<path fill="#fff" d="M6.596 13.113c0.185 0 0.371 0 0.556 0 0 0.238 0 0.477 0 0.715-0.185 0-0.371 0-0.556 0 0-0.238 0-0.477 0-0.715z"></path>
<path fill="#fff" d="M8.027 13.113c0.212 0 0.424 0 0.636 0 0 0.238 0 0.477 0 0.715-0.212 0-0.424 0-0.636 0 0-0.238 0-0.477 0-0.715z"></path>
<path fill="#fff" d="M9.536 13.113c0.212 0 0.424 0 0.636 0 0 0.238 0 0.477 0 0.715-0.212 0-0.424 0-0.636 0 0-0.238 0-0.477 0-0.715z"></path>
<path fill="#fff" d="M11.046 13.113c0.040 0 0.119 0 0.159 0 0 0.238 0 0.477 0 0.715-0.040 0-0.119 0-0.159 0 0-0.238 0-0.477 0-0.715z"></path>
<path fill="#fff" d="M12.795 13.113c0.060 0 0.179 0 0.238 0 0 0.238 0 0.477 0 0.715-0.060 0-0.179 0-0.238 0 0-0.238 0-0.477 0-0.715z"></path>
<path fill="#fff" d="M13.907 13.113c0.212 0 0.424 0 0.636 0 0 0.238 0 0.477 0 0.715-0.212 0-0.424 0-0.636 0 0-0.238 0-0.477 0-0.715z"></path>
<path fill="#fff" d="M15.417 13.113c0.185 0 0.37 0 0.556 0 0 0.238 0 0.477 0 0.715-0.186 0-0.371 0-0.556 0 0-0.238 0-0.477 0-0.715z"></path>
<path fill="#fff" d="M16.927 13.113c0.185 0 0.37 0 0.556 0 0 0.238 0 0.477 0 0.715-0.186 0-0.371 0-0.556 0 0-0.238 0-0.477 0-0.715z"></path>
<path fill="#fff" d="M18.358 13.113c0.211 0 0.424 0 0.636 0 0 0.238 0 0.477 0 0.715-0.212 0-0.424 0-0.636 0 0-0.238 0-0.477 0-0.715z"></path>
<path fill="#fff" d="M19.868 13.113c0.211 0 0.424 0 0.636 0 0 0.238 0 0.477 0 0.715-0.212 0-0.424 0-0.636 0 0-0.238 0-0.477 0-0.715z"></path>
<path fill="#fff" d="M15.617 20.22c0.083 0.142 0.16 0.288 0.231 0.436-0.126 0.002-0.253 0.004-0.379 0.005 0.044-0.149 0.094-0.296 0.148-0.441z"></path>
</svg>
