<svg xmlns="http://www.w3.org/2000/svg" width="24" height="24">
    <path fill="#f7fbf5" d="M10.767 0h2.439c4.453.477 8.524 3.547 10.054 7.777.378.963.557 1.985.74 2.997v2.443c-.086.415-.145.835-.231 1.248.556-3.599-.331-7.462-2.785-10.214a12.212 12.212 0 0 0-1.826-1.717C16.458.422 12.884-.272 9.536.231c.41-.085.823-.143 1.231-.231zM9.773 4.023c.318-.579 1.081-.365 1.62-.41l.004.759c-.337 0-.674.003-1.01.004-.127.29-.25.579-.374.87.453.013.907.022 1.359.037.206.333.447.648.595 1.013-.033.522-.301.999-.447 1.497.147.203.295.407.447.608h1.313c-.247.249-.496.496-.742.743-.423-.027-.969.068-1.229-.359-.592-.863-1.084-1.793-1.668-2.663-.104.244-.214.488-.316.733 1.094.75 1.39 2.439.417 3.407-.963 1.11-2.956.813-3.56-.524-.608-1.131.025-2.551 1.153-3.057l-.081-.442c.284-.046.571-.064.857-.093.074.258.284.433.526.528.39-.879.694-1.797 1.135-2.652zM6.723 9.05c.162 1.054 1.586 1.544 2.366.822.73-.582.634-1.735-.053-2.309-.222.45-.37.935-.627 1.367-.133.271-.61.297-.644-.056.141-.55.421-1.053.603-1.591-.96-.091-1.877.792-1.643 1.767z"/>
    <path fill="#f7fbf5" d="M13.306 5.37c1.028-.223 2.086-.056 3.127-.119-.318.318-.638.634-.961.946-.471.081-.862.355-1.272.582-.536-.215-.65-.93-.893-1.409zM13.771 7.883c.235-.466.592-.857 1.07-1.079a15.34 15.34 0 0 1-1.07 1.079zM17.135 8.097l.532-.535c.574 1.006.333 2.407-.678 3.033-.712.498-1.651.413-2.401.048l.539-.536c1.243.548 2.558-.768 2.009-2.01zM13.024 12.386c.74-.042 1.482-.035 2.223-.025l-.001.44c-.209.01-.416.022-.625.034-.443.638.104 1.278.364 1.865 1.158-.275 2.49.29 2.897 1.452.56 1.333-.404 2.991-1.835 3.167-1.311.25-2.527-.785-2.751-2.048l-1.063.001c-.682-.745-1.345-1.507-2.01-2.264l.399-.4c.552.633 1.111 1.26 1.673 1.885.43-.899.853-1.8 1.267-2.707-.707-.005-1.415-.005-2.122.001.2-.198.402-.395.601-.593.595.008 1.191.009 1.786.004.073-.12.143-.24.213-.361a69.224 69.224 0 0 1-1.017-.052l.003-.398zm-.183 4.308l.473.001a2.748 2.748 0 0 1 1.152-1.756l-.407-.858c-.402.873-.818 1.739-1.218 2.613zm2.396-1.454c.22.532.506 1.036.708 1.576.074.147.05.427-.164.421-.626.078-1.26.012-1.889.038.198.853.978 1.569 1.886 1.486 1.126-.022 1.975-1.277 1.582-2.331-.269-.884-1.244-1.351-2.123-1.19zm-1.338 1.448c.46.01.921.009 1.381.007a36.091 36.091 0 0 0-.579-1.226 2.46 2.46 0 0 0-.802 1.22zM9.554 15.674c.136-.138.274-.274.411-.411.897.923.96 2.537-.018 3.425-.901.922-2.455.822-3.359-.046.134-.137.27-.273.404-.408.699.629 1.855.745 2.543.038.754-.674.681-1.886.018-2.598z"/>
    <path fill="#f7fbf5" d="M8.03 17.211c.307-.312.618-.618.933-.922-.125.359-.244.719-.377 1.075-.185-.05-.37-.1-.556-.153z"/>
    <path fill="#0e518d" d="M9.536.231c3.348-.502 6.922.192 9.622 2.303-.92.895-1.817 1.812-2.726 2.717-1.041.063-2.099-.104-3.127.119.244.479.357 1.193.893 1.409.41-.227.801-.501 1.272-.582-.207.205-.413.412-.63.608-.477.222-.835.613-1.07 1.079-.16.175-.323.348-.49.518h-1.313c-.153-.201-.3-.404-.447-.608.146-.498.415-.976.447-1.497-.147-.365-.389-.681-.595-1.013-.453-.014-.907-.023-1.359-.037.124-.291.248-.58.374-.87.335-.001.673-.004 1.01-.004l-.004-.759c-.539.044-1.302-.17-1.62.41-.441.854-.745 1.773-1.135 2.652-.241-.095-.451-.27-.526-.528-.286.029-.573.047-.857.093.021.111.06.333.081.442-1.128.506-1.761 1.927-1.153 3.057.604 1.337 2.597 1.634 3.56.524.973-.968.677-2.657-.417-3.407.102-.245.211-.489.316-.733.584.87 1.076 1.8 1.668 2.663.26.427.806.331 1.229.359-3.372 3.376-6.757 6.738-10.115 10.127-1.35-1.739-2.116-3.861-2.423-6.027v-2.48C.538 5.705 4.496 1.171 9.537.232zM17.667 7.563c1.103-1.106 2.204-2.215 3.317-3.312 2.453 2.752 3.34 6.616 2.785 10.214C22.83 19.504 18.3 23.457 13.244 24h-2.481c-2.422-.329-4.78-1.278-6.626-2.903.811-.823 1.633-1.637 2.451-2.453.904.867 2.457.968 3.359.046.978-.888.916-2.502.018-3.425l.257-.256c.665.758 1.328 1.52 2.01 2.264l1.063-.001c.224 1.263 1.44 2.298 2.751 2.048 1.431-.176 2.395-1.834 1.835-3.167-.407-1.162-1.739-1.727-2.897-1.452-.26-.587-.807-1.227-.364-1.865l.625-.034.001-.44a31.687 31.687 0 0 0-2.223.025c0 .099-.001.299-.003.398.339.02.678.038 1.017.052-.069.121-.14.241-.213.361-.595.005-1.191.004-1.786-.004.845-.854 1.694-1.705 2.547-2.55.75.365 1.689.45 2.401-.048 1.011-.626 1.252-2.027.678-3.033z"/>
    <path fill="#0e518d" d="M6.723 9.05c-.233-.976.683-1.859 1.643-1.767-.181.539-.462 1.041-.603 1.591.034.353.511.327.644.056.257-.432.406-.917.627-1.367.687.574.784 1.727.053 2.309-.78.723-2.204.232-2.366-.822zM15.127 10.107c.665-.674 1.334-1.343 2.009-2.01.549 1.242-.766 2.558-2.009 2.01zM10.621 14.607c.271-.274.544-.548.818-.82.707-.007 1.415-.007 2.122-.001-.413.907-.836 1.808-1.267 2.707a156.412 156.412 0 0 1-1.673-1.885zM12.841 16.694c.4-.874.817-1.74 1.218-2.613l.407.858a2.752 2.752 0 0 0-1.152 1.756l-.473-.001zM15.237 15.24c.879-.162 1.855.305 2.123 1.19.393 1.054-.457 2.309-1.582 2.331-.908.083-1.688-.633-1.886-1.486.629-.026 1.263.04 1.889-.038.214.005.239-.274.164-.421-.202-.54-.488-1.043-.708-1.576z"/>
    <path fill="#0e518d" d="M13.899 16.688c.136-.483.42-.899.802-1.22.202.404.393.814.579 1.226-.46.003-.921.004-1.381-.007zM8.962 16.289c.192-.21.393-.412.592-.614.663.712.736 1.924-.018 2.598-.689.707-1.844.591-2.543-.038.342-.344.691-.682 1.037-1.024.185.052.37.103.556.153.133-.356.252-.716.377-1.075z"/>
    <path fill="#c1121c" d="M16.432 5.251c.909-.905 1.807-1.822 2.726-2.717.664.509 1.28 1.081 1.826 1.717-1.113 1.097-2.213 2.206-3.317 3.312l-.532.535c-.674.667-1.343 1.336-2.009 2.01l-.539.536c-.853.845-1.702 1.696-2.547 2.55-.2.198-.402.395-.601.593a210.543 210.543 0 0 0-1.217 1.22l-.257.256c-.137.137-.275.273-.411.411-.2.202-.4.404-.592.614-.314.304-.626.61-.933.922-.346.342-.695.68-1.037 1.024-.134.136-.27.271-.404.408-.818.817-1.64 1.63-2.451 2.453a11.896 11.896 0 0 1-1.714-1.825c3.359-3.389 6.743-6.751 10.115-10.127.247-.248.496-.494.742-.743.167-.17.33-.343.49-.518.373-.343.733-.7 1.07-1.079.217-.196.423-.403.63-.608.323-.312.643-.627.961-.946z"/>
</svg>
