<!-- Generated by IcoMoon.io -->
<svg version="1.1" xmlns="http://www.w3.org/2000/svg" width="24" height="24" viewBox="0 0 24 24">
<title>regulatory--no-buses--g3</title>
<path fill="#e20a16" d="M11.098 0h1.524c4.524 0.224 8.77 3.186 10.465 7.397 0.494 1.135 0.728 2.357 0.913 3.575v2.105c-0.42 4.069-2.941 7.877-6.647 9.666-1.315 0.694-2.777 1.020-4.232 1.258h-2.201c-1.288-0.211-2.582-0.473-3.774-1.024-4.079-1.762-6.916-5.924-7.146-10.352v-1.235c0.226-4.34 2.948-8.435 6.906-10.25 1.314-0.641 2.756-0.932 4.192-1.139M5.118 4.759c-2.801 2.596-3.845 6.865-2.579 10.465 0.662 1.957 1.956 3.683 3.623 4.901 1.144-1.968 2.275-3.943 3.416-5.914 0.574-0.998 1.156-1.993 1.724-2.995 0.384-0.655 0.77-1.309 1.129-1.98 0.174-0.27 0.336-0.548 0.496-0.828 1.062-1.841 2.129-3.68 3.186-5.524-3.604-1.658-8.155-0.904-10.996 1.874M15.239 8.407c-0.084 0.144-0.167 0.288-0.25 0.432l0.019 0.062c-0.535 0.726-0.924 1.546-1.39 2.316-0.568 1.002-1.183 1.979-1.704 3.006-1.387 2.268-2.674 4.607-4.018 6.904 2.084 0.937 4.489 1.136 6.696 0.54 3.622-0.937 6.553-4.069 7.229-7.752 0.776-3.745-0.852-7.825-3.972-10.030-0.874 1.506-1.742 3.014-2.611 4.522z"></path>
<path fill="#fff" d="M5.118 4.759c2.84-2.778 7.392-3.533 10.996-1.874-1.057 1.843-2.124 3.683-3.186 5.524-2.272 0-4.543-0.002-6.815 0.001-0.806-0.007-1.579 0.26-2.294 0.608 0.059 0.143 0.119 0.286 0.178 0.43-0.479 1.234-0.664 2.53-0.59 3.85-0.163 0.27-0.204 0.583-0.211 0.893 0.395 0.024 0.791 0.028 1.187 0.030 0.132-0.42 0.156-0.9 0.437-1.256 0.592-0.054 1.193-0.046 1.786-0.008 0.289 0.352 0.313 0.839 0.444 1.26 0.844 0 1.687 0.004 2.531-0.004-1.141 1.97-2.273 3.946-3.416 5.914-1.667-1.218-2.96-2.944-3.623-4.901-1.266-3.6-0.222-7.87 2.579-10.465M5.443 13.255c-0.709 0.169-0.966 1.159-0.433 1.654 0.49 0.552 1.494 0.284 1.662-0.428 0.24-0.712-0.521-1.463-1.229-1.225z"></path>
<path fill="#fff" d="M15.239 8.407c0.869-1.507 1.738-3.016 2.611-4.522 3.12 2.204 4.748 6.284 3.972 10.030-0.676 3.683-3.607 6.815-7.229 7.752-2.207 0.596-4.612 0.397-6.696-0.54 1.344-2.297 2.63-4.636 4.018-6.904 0.824-0.022 1.65-0.001 2.474-0.008 0.172-0.437 0.077-1.289 0.721-1.289 0.509-0.012 1.031-0.059 1.531 0.060 0.248 0.36 0.277 0.817 0.391 1.229 1.186-0.058 2.401 0.124 3.568-0.094 0.335-1.432 0.112-2.947-0.094-4.388-0.124-0.485-0.16-1.295-0.82-1.315-1.482-0.028-2.966 0-4.448-0.011M15.403 13.261c-0.724 0.191-0.94 1.229-0.359 1.697 0.53 0.517 1.519 0.172 1.63-0.556 0.178-0.706-0.592-1.386-1.271-1.141z"></path>
<path fill="#fff" d="M10.046 8.972c0.769-0.023 1.765-0.325 2.386 0.264-0.359 0.671-0.745 1.325-1.129 1.98-0.484-0.059-1.486 0.259-1.446-0.526 0.066-0.551-0.196-1.283 0.19-1.718z"></path>
<path fill="#fff" d="M15.757 8.934c0.648-0.032 1.308-0.056 1.954 0.016 0.42 0.264 0.205 0.841 0.262 1.25-0.031 0.329 0.108 0.898-0.334 0.994-0.636 0.041-1.278 0.042-1.913-0.001-0.448-0.236-0.23-0.827-0.284-1.231 0.035-0.336-0.118-0.907 0.316-1.027z"></path>
<path fill="#fff" d="M18.522 8.938c0.545-0.036 1.499-0.214 1.592 0.554 0.029 0.524 0.386 1.12 0.118 1.612-0.506 0.216-1.096 0.094-1.633 0.096-0.524-0.078-0.292-0.755-0.348-1.12 0.061-0.364-0.168-0.971 0.271-1.142z"></path>
<path fill="#fff" d="M13.619 11.218c0.466-0.77 0.854-1.59 1.39-2.316 0.226 0.707 0.216 1.494 0.061 2.213-0.461 0.179-0.97 0.082-1.451 0.103z"></path>
<path fill="#fff" d="M4.722 9.301c0.734-0.151 1.498-0.062 2.243-0.065 0.516-0.007 0.378 0.626 0.401 0.964-0.038 0.328 0.12 0.858-0.298 0.989-0.913 0.059-1.835 0.023-2.75 0.019-0.338 0.035-0.502-0.37-0.365-0.64 0.146-0.464 0.218-1.109 0.769-1.267z"></path>
<path fill="#fff" d="M7.841 9.278c0.564-0.025 1.804-0.37 1.727 0.553-0.018 1.147 0.035 2.299-0.026 3.445-0.062 0.432-0.589 0.324-0.901 0.346-0.324-0.036-0.874 0.124-0.972-0.31-0.054-1.075-0.001-2.155-0.024-3.232 0.020-0.271-0.071-0.625 0.197-0.803z"></path>
<path fill="#000" d="M3.818 9.018c0.715-0.348 1.488-0.616 2.294-0.608 2.272-0.004 4.543-0.001 6.815-0.001-0.16 0.28-0.322 0.558-0.496 0.828-0.62-0.589-1.616-0.287-2.386-0.264-0.385 0.436-0.124 1.168-0.19 1.718-0.040 0.785 0.962 0.467 1.446 0.526-0.569 1.002-1.151 1.997-1.724 2.995-0.844 0.007-1.687 0.004-2.531 0.004-0.131-0.421-0.155-0.908-0.444-1.26-0.593-0.037-1.194-0.046-1.786 0.008-0.281 0.356-0.305 0.836-0.437 1.256-0.396-0.002-0.792-0.006-1.187-0.030 0.007-0.31 0.048-0.623 0.211-0.893-0.073-1.32 0.112-2.616 0.59-3.85-0.059-0.144-0.119-0.287-0.178-0.43M4.722 9.301c-0.551 0.158-0.623 0.803-0.769 1.267-0.137 0.27 0.026 0.674 0.365 0.64 0.916 0.004 1.837 0.040 2.75-0.019 0.418-0.131 0.259-0.661 0.298-0.989-0.023-0.337 0.115-0.971-0.401-0.964-0.745 0.002-1.508-0.086-2.243 0.065M7.841 9.278c-0.268 0.178-0.176 0.532-0.197 0.803 0.023 1.076-0.030 2.156 0.024 3.232 0.098 0.433 0.648 0.274 0.972 0.31 0.312-0.022 0.839 0.086 0.901-0.346 0.061-1.146 0.008-2.298 0.026-3.445 0.077-0.923-1.163-0.578-1.727-0.553z"></path>
<path fill="#000" d="M15.239 8.407c1.482 0.011 2.966-0.017 4.448 0.011 0.66 0.020 0.696 0.83 0.82 1.315 0.205 1.441 0.428 2.957 0.094 4.388-1.166 0.217-2.382 0.036-3.568 0.094-0.114-0.412-0.143-0.869-0.391-1.229-0.5-0.119-1.022-0.072-1.531-0.060-0.644 0-0.55 0.852-0.721 1.289-0.824 0.007-1.65-0.013-2.474 0.008 0.521-1.027 1.136-2.004 1.704-3.006 0.481-0.022 0.99 0.076 1.451-0.103 0.155-0.719 0.164-1.506-0.061-2.213l-0.019-0.062c0.083-0.144 0.166-0.288 0.25-0.432M15.757 8.934c-0.433 0.12-0.281 0.691-0.316 1.027 0.054 0.404-0.163 0.995 0.284 1.231 0.635 0.043 1.277 0.042 1.913 0.001 0.442-0.096 0.302-0.665 0.334-0.994-0.056-0.409 0.158-0.986-0.262-1.25-0.646-0.072-1.306-0.048-1.954-0.016M18.522 8.938c-0.439 0.172-0.21 0.779-0.271 1.142 0.056 0.365-0.176 1.042 0.348 1.12 0.538-0.002 1.127 0.12 1.633-0.096 0.269-0.492-0.089-1.087-0.118-1.612-0.094-0.768-1.048-0.59-1.592-0.554z"></path>
<path fill="#000" d="M5.443 13.255c0.708-0.238 1.469 0.514 1.229 1.225-0.168 0.713-1.172 0.98-1.662 0.428-0.533-0.494-0.276-1.484 0.433-1.654z"></path>
<path fill="#000" d="M15.403 13.261c0.679-0.245 1.448 0.436 1.271 1.141-0.11 0.727-1.099 1.073-1.63 0.556-0.581-0.468-0.365-1.506 0.359-1.697z"></path>
</svg>
