<!-- Generated by IcoMoon.io -->
<svg version="1.1" xmlns="http://www.w3.org/2000/svg" width="24" height="24" viewBox="0 0 24 24">
<title>regulatory--night-speed-limit-75--g1</title>
<path fill="#fff" d="M0.909 0h22.178c0.445 0.103 0.809 0.467 0.912 0.912v22.174c-0.102 0.446-0.467 0.81-0.912 0.915h-22.175c-0.445-0.102-0.808-0.465-0.913-0.909v-22.179c0.103-0.444 0.466-0.807 0.909-0.911M1.566 0.587c-0.558 0.060-1.006 0.584-0.99 1.143-0.001 6.846-0.001 13.693 0 20.539-0.023 0.64 0.567 1.2 1.203 1.156 6.831-0.001 13.661 0.001 20.491-0.001 0.621 0.021 1.176-0.534 1.155-1.155 0.001-6.846 0.001-13.693 0-20.539 0.007-0.443-0.263-0.875-0.67-1.053-0.255-0.122-0.543-0.104-0.817-0.103-6.625 0-13.25 0-19.875 0-0.165 0.001-0.332-0.007-0.497 0.013z"></path>
<path fill="#fff" d="M10.478 4.006c0.514-0.678 1.703-0.593 2.082 0.184-0.167 0.098-0.335 0.196-0.504 0.291-0.201-0.404-0.789-0.525-1.1-0.18-0.374 0.476-0.377 1.235 0.001 1.71 0.331 0.393 1.107 0.193 1.073-0.368-0.18-0.001-0.361-0-0.542-0.003-0.001-0.175-0.001-0.35-0-0.525 0.372-0 0.743 0.003 1.115-0.002-0.002 0.413 0.037 0.869-0.227 1.219-0.472 0.645-1.582 0.55-1.994-0.117-0.405-0.662-0.386-1.588 0.095-2.208z"></path>
<path fill="#fff" d="M4.661 3.614c0.181 0.001 0.362 0.001 0.543 0 0.439 0.683 0.889 1.358 1.317 2.048-0.005-0.683 0.002-1.366-0.004-2.048 0.186 0.003 0.372 0.003 0.558-0-0.005 1.035-0.002 2.071-0.001 3.106-0.168 0-0.336 0-0.504-0-0.451-0.701-0.924-1.388-1.357-2.1 0.015 0.7 0.004 1.401 0.007 2.1-0.186 0.001-0.372 0.001-0.557 0-0.003-1.035 0-2.070-0.002-3.105z"></path>
<path fill="#fff" d="M8.351 3.615c0.191 0 0.382 0 0.572 0-0.002 1.035 0 2.069-0.001 3.104-0.19 0.001-0.381 0.002-0.57-0.002-0.001-1.034-0.001-2.068-0-3.102z"></path>
<path fill="#fff" d="M13.74 3.612c0.188 0.004 0.375 0.003 0.563 0 0.002 0.413-0 0.827 0.001 1.24 0.44-0.002 0.879 0.006 1.319-0.005-0.013-0.412 0.015-0.824-0.016-1.235 0.187 0.002 0.373 0.002 0.559 0.001 0 1.034 0.001 2.068-0 3.102-0.183 0.003-0.366 0.002-0.549 0.003 0.009-0.44 0-0.88 0.005-1.32-0.439-0.028-0.878-0.007-1.318-0.012-0.001 0.443 0.001 0.887-0.001 1.331-0.187 0.001-0.374 0.001-0.561 0 0-1.035 0.004-2.071-0.002-3.106z"></path>
<path fill="#fff" d="M17.215 3.598c0.767-0.002 1.534-0.001 2.301-0 0.001 0.181 0.001 0.362 0 0.543-0.288 0.001-0.577 0-0.865 0.001-0.001 0.859 0 1.718-0 2.577-0.188 0.001-0.376 0.001-0.563 0-0.001-0.859 0-1.718-0.001-2.578-0.291-0-0.581 0.001-0.872-0.001-0.001-0.18-0.001-0.361 0.001-0.542z"></path>
<path fill="#fff" d="M3.183 9.547c2.446-0.001 4.893-0.001 7.34 0-0.013 0.61 0.027 1.23-0.019 1.834-1.027 1.202-1.763 2.632-2.263 4.126-0.518 1.554-0.826 3.186-0.848 4.826-0.636 0.001-1.271 0.001-1.906 0 0.014-1.729 0.249-3.469 0.839-5.1 0.486-1.378 1.214-2.66 2.052-3.852-1.732-0.001-3.463 0-5.195-0.001-0.001-0.611-0.001-1.223 0-1.833z"></path>
<path fill="#fff" d="M13.402 9.563c2.049-0 4.098-0.001 6.147 0 0 0.606 0.001 1.212 0 1.818-1.467 0.001-2.933-0-4.4 0.001-0.054 0.746-0.108 1.492-0.162 2.238 1.416-0.751 3.411-0.552 4.456 0.733 0.926 1.17 1.015 2.9 0.336 4.208-0.386 0.732-1.051 1.297-1.813 1.609-0.906 0.378-1.918 0.416-2.88 0.281-0.837-0.122-1.671-0.414-2.324-0.965 0.354-0.496 0.711-0.99 1.069-1.483 0.689 0.495 1.537 0.755 2.385 0.708 0.811-0.001 1.677-0.436 1.964-1.233 0.273-0.753 0.159-1.775-0.571-2.231-0.86-0.492-2.039-0.261-2.683 0.485-0.615-0.265-1.235-0.519-1.851-0.783 0.107-1.795 0.211-3.591 0.325-5.386z"></path>
<path fill="#000" d="M1.566 0.587c0.165-0.020 0.331-0.011 0.497-0.013 6.625 0 13.25 0 19.875 0 0.274-0 0.563-0.019 0.817 0.103 0.407 0.178 0.677 0.61 0.67 1.053 0.001 6.846 0.001 13.693 0 20.539 0.021 0.621-0.534 1.176-1.155 1.155-6.83 0.002-13.66-0-20.491 0.001-0.637 0.044-1.226-0.516-1.203-1.156-0.001-6.846-0.001-13.693 0-20.539-0.016-0.559 0.433-1.084 0.99-1.143M10.478 4.006c-0.481 0.62-0.501 1.545-0.095 2.208 0.411 0.667 1.522 0.762 1.994 0.117 0.264-0.351 0.225-0.806 0.227-1.219-0.372 0.005-0.743 0.002-1.115 0.002-0 0.175-0 0.35 0 0.525 0.181 0.002 0.361 0.002 0.542 0.003 0.033 0.562-0.742 0.762-1.073 0.368-0.378-0.474-0.375-1.234-0.001-1.71 0.311-0.345 0.899-0.223 1.1 0.18 0.169-0.095 0.337-0.193 0.504-0.291-0.38-0.777-1.568-0.862-2.082-0.184M4.661 3.614c0.002 1.035-0.001 2.070 0.002 3.105 0.186 0.001 0.372 0.001 0.557 0-0.003-0.7 0.009-1.4-0.007-2.1 0.433 0.712 0.906 1.4 1.357 2.1 0.168 0.001 0.336 0.001 0.504 0-0-1.035-0.004-2.071 0.001-3.106-0.186 0.004-0.372 0.003-0.558 0 0.006 0.683-0.001 1.365 0.004 2.048-0.428-0.69-0.878-1.365-1.317-2.047-0.181 0.001-0.362 0.001-0.543 0M8.351 3.615c-0 1.034-0.001 2.068 0 3.102 0.19 0.004 0.38 0.003 0.57 0.002 0.002-1.035-0-2.069 0.001-3.104-0.191 0-0.382 0-0.572 0M13.74 3.612c0.006 1.035 0.002 2.071 0.002 3.106 0.187 0 0.374 0 0.561-0 0.002-0.443 0-0.887 0.001-1.331 0.439 0.006 0.879-0.015 1.318 0.012-0.005 0.44 0.004 0.88-0.005 1.32 0.183-0.001 0.366 0 0.549-0.003 0.001-1.034 0-2.068 0-3.102-0.187 0.001-0.373 0.001-0.559-0.001 0.031 0.411 0.003 0.824 0.016 1.235-0.439 0.010-0.879 0.002-1.319 0.005-0.002-0.413 0.001-0.827-0.001-1.24-0.188 0.003-0.375 0.003-0.563-0M17.215 3.598c-0.002 0.181-0.002 0.361-0.001 0.542 0.291 0.002 0.581 0 0.872 0.001 0.001 0.859-0 1.718 0.001 2.578 0.188 0.001 0.375 0.001 0.563-0 0-0.859-0-1.718 0-2.577 0.288-0.001 0.577 0 0.865-0.001 0.001-0.181 0.001-0.362 0-0.543-0.767-0-1.534-0.001-2.301 0M3.183 9.547c-0.001 0.611-0.001 1.222 0 1.833 1.732 0.001 3.463-0 5.195 0.001-0.838 1.193-1.566 2.474-2.052 3.852-0.59 1.631-0.825 3.371-0.839 5.1 0.636 0.001 1.271 0.001 1.906-0 0.022-1.64 0.329-3.271 0.847-4.826 0.5-1.494 1.236-2.924 2.263-4.126 0.046-0.604 0.007-1.224 0.019-1.834-2.447-0.001-4.894-0.001-7.34 0M13.402 9.563c-0.114 1.795-0.218 3.591-0.325 5.386 0.616 0.263 1.235 0.518 1.851 0.783 0.644-0.745 1.823-0.976 2.683-0.485 0.73 0.457 0.844 1.478 0.571 2.231-0.287 0.797-1.153 1.231-1.964 1.233-0.848 0.046-1.696-0.214-2.385-0.708-0.358 0.493-0.715 0.987-1.069 1.483 0.653 0.551 1.487 0.843 2.324 0.965 0.962 0.135 1.974 0.097 2.88-0.281 0.762-0.312 1.427-0.877 1.813-1.609 0.679-1.309 0.59-3.039-0.336-4.208-1.046-1.285-3.040-1.485-4.456-0.733 0.054-0.746 0.107-1.492 0.162-2.238 1.467-0.001 2.933 0 4.4-0.001 0.001-0.606 0-1.212 0-1.818-2.049-0.001-4.098-0-6.147 0z"></path>
</svg>
