<svg xmlns="http://www.w3.org/2000/svg" width="24" height="24">
    <path fill="#fff" d="M0 0h10.943a13.126 13.126 0 0 0-6.542 2.657l.151.145c4.186-3.552 10.89-3.5 15.019.119l.149-.145C17.82 1.24 15.501.3 13.08 0H24v10.896a12.917 12.917 0 0 0-2.764-6.625l-.167.17c3.607 4.126 3.649 10.807.118 14.994.055.059.11.118.167.176 1.448-1.883 2.386-4.134 2.646-6.499V24H13.178a13.111 13.111 0 0 0 6.419-2.658l-.146-.146c-2.79 2.328-6.707 3.209-10.23 2.334-4.055-.935-7.463-4.182-8.602-8.183C-.487 11.683.338 7.488 2.798 4.551l-.14-.151A13.108 13.108 0 0 0 0 10.796V.001zm11.197.404a11.598 11.598 0 0 0-6.865 2.851C1.643 5.577.136 9.183.384 12.729c.199 3.788 2.414 7.38 5.687 9.289 2.526 1.51 5.636 1.987 8.502 1.328 3.025-.674 5.732-2.627 7.339-5.274 1.543-2.497 2.069-5.59 1.459-8.459A11.63 11.63 0 0 0 11.197.403zM2.77 4.414A9.236 9.236 0 0 0 4.414 2.77 5.007 5.007 0 0 0 2.77 4.414zm18.075-.238l.264.066c-.388-.521-.832-1.022-1.4-1.35.277.509.812.806 1.136 1.284zm-1.199 16.847l.148.143c.502-.503 1.085-.948 1.434-1.58-.611.376-.983 1.038-1.582 1.438z"/>
    <path fill="#fff" d="M6.674 6.677c.932-.511 1.996-1.571 3.085-.787-.163.233-.26.646-.626.582-.596-.086-1.058.312-1.513.628.16.176.323.348.487.521-.035.696.778.704 1.127 1.146.866.946.978 2.43 2.114 3.163.527.42 1.41.592 1.84-.056.761-1.232 1.444-2.514 2.161-3.773-.474-.19-.967-.325-1.453-.476.065-.161.113-.33.2-.48.854-.08 1.717-.017 2.575-.044.409.337.39.755-.068 1.031.154.68.311 1.361.454 2.044 1.412-.268 2.866.481 3.67 1.63.376.502.355 1.172.69 1.697.211.336.22.74.191 1.123-.263.044-.527.083-.791.122-.427 1.705-2.234 2.854-3.96 2.576-1.244-.138-2.242-1.091-2.74-2.195-.899.149-1.928-.115-2.738.325.275.14.577.32.462.678-.545.031-1.091.018-1.637.014l-.073-.486.45-.041c.085-.253.172-.506.259-.76-.54-.542-.521-1.354-.163-1.991-.571-.397-1.085-.88-1.704-1.204.464.852.761 1.811.599 2.79l-.31.188c-.223.982-.842 1.884-1.75 2.345-1.458.773-3.448.332-4.404-1.025-.688-.911-.814-2.146-.469-3.217l-.199-.287c.474-.982 1.301-1.834 2.378-2.118.565-.184 1.172-.031 1.741-.151.064-.253.091-.514.126-.773-.208.017-.413.052-.622.061.001-.486-.127-1.02.138-1.463.259-.013.52-.026.779-.043-.374-.286-.841-.923-.306-1.295zm.98 2.715l-.004.58c.419.33.835.661 1.261.98-.109-.346-.223-.69-.33-1.038-.361-.068-.656-.287-.928-.522zm7.016 1.894c.384-.238.754-.497 1.124-.754-.07-.361-.138-.721-.214-1.08a42.825 42.825 0 0 0-.911 1.834zM3.914 12.427c.424.302.852.598 1.272.906.218-.097.438-.192.659-.283.13-.548.269-1.094.39-1.644a2.688 2.688 0 0 0-2.321 1.021zm13.76-1.014c-.052.296-.131.589-.288.848.006.235.016.47.026.706.462.028.821.289.937.745.515 0 1.03.001 1.546-.005-.138-1.156-1.027-2.19-2.221-2.294zm-10.412.4c-.172.611-.331 1.224-.499 1.836.545 0 1.091.002 1.636-.016-.112-.734-.488-1.429-1.136-1.82zm7.874 1.045c.515.064 1.032.113 1.548.167l-.011-.353c-.361-.155-.517-.5-.6-.862-.377.287-.696.64-.937 1.048zm-11.615.223c-.47 1.369.378 3.028 1.838 3.283 1.363.365 2.836-.604 2.998-2.015a39.359 39.359 0 0 0-1.718.005c-.33.344-.946.539-1.296.113-.388-.703-1.182-.971-1.822-1.386zm13.681 1.852c-.262.761-1.169.404-1.772.481.617.914 1.868 1.322 2.891.876.816-.314 1.35-1.092 1.541-1.922-.502-.006-1.007-.049-1.507.004-.353.248-.703.523-1.152.562zM0 13.19c.451 4.127 3.085 7.957 6.882 9.689 1.228.604 2.57.9 3.911 1.121H0V13.19z"/>
    <path fill="#545454" d="M10.943 0h2.137c2.42.3 4.74 1.24 6.64 2.776l-.149.145C15.442-.698 8.737-.75 4.552 2.802l-.151-.145A13.13 13.13 0 0 1 10.943 0z"/>
    <path fill="#092d78" d="M11.197.404a11.63 11.63 0 0 1 10.715 17.669c-1.607 2.647-4.314 4.6-7.339 5.274-2.866.659-5.976.181-8.502-1.328C2.799 20.11.583 16.518.384 12.73.136 9.184 1.643 5.578 4.332 3.256A11.598 11.598 0 0 1 11.197.405zM6.674 6.677c-.535.372-.068 1.009.306 1.295-.259.017-.52.03-.779.043-.265.443-.137.977-.138 1.463.209-.01.414-.044.622-.061-.035.259-.062.52-.126.773-.569.12-1.176-.032-1.741.151-1.078.284-1.904 1.136-2.378 2.118l.199.287c-.344 1.072-.218 2.306.469 3.217.956 1.357 2.946 1.798 4.404 1.025.907-.461 1.526-1.363 1.75-2.345l.31-.188c.162-.979-.134-1.938-.599-2.79.619.324 1.133.806 1.704 1.204-.358.637-.377 1.448.163 1.991-.088.253-.174.506-.259.76-.15.013-.3.026-.45.041l.073.486c.546.004 1.092.017 1.637-.014.115-.358-.187-.538-.462-.678.81-.44 1.84-.176 2.738-.325.498 1.104 1.495 2.057 2.74 2.195 1.726.277 3.533-.871 3.96-2.576.264-.04.528-.078.791-.122.029-.383.02-.787-.191-1.123-.335-.524-.314-1.195-.69-1.697-.804-1.148-2.257-1.897-3.67-1.63-.143-.683-.3-1.363-.454-2.044.458-.276.478-.694.068-1.031-.858.028-1.721-.036-2.575.044-.088.15-.136.319-.2.48.486.151.979.287 1.453.476-.718 1.259-1.4 2.54-2.161 3.773-.43.648-1.313.476-1.84.056-1.136-.733-1.248-2.218-2.114-3.163-.349-.442-1.162-.45-1.127-1.146-.164-.173-.328-.344-.487-.521.455-.316.917-.714 1.513-.628.366.064.463-.349.626-.582-1.09-.784-2.153.276-3.085.787z"/>
    <path fill="#092d78" d="M7.654 9.392c.271.235.566.454.928.522.107.348.221.692.33 1.038-.426-.319-.842-.65-1.261-.98l.004-.58zM14.67 11.286c.284-.62.596-1.228.911-1.834.076.359.144.719.214 1.08-.371.257-.74.516-1.124.754zM3.914 12.427a2.687 2.687 0 0 1 2.321-1.021c-.121.55-.26 1.096-.39 1.644-.221.091-.44.186-.659.283-.42-.308-.848-.604-1.272-.906zM17.674 11.413c1.194.104 2.083 1.139 2.221 2.294-.516.006-1.031.005-1.546.005-.116-.456-.475-.718-.937-.745-.011-.235-.02-.47-.026-.706.157-.259.236-.552.288-.848zM7.262 11.813c.648.391 1.025 1.086 1.136 1.82-.545.018-1.091.016-1.636.016.168-.612.328-1.225.499-1.836zM15.136 12.858c.241-.408.56-.761.937-1.048.083.361.239.707.6.862l.011.353c-.516-.054-1.033-.103-1.548-.167zM3.521 13.081c.64.415 1.434.683 1.822 1.386.35.426.966.232 1.296-.113a39.359 39.359 0 0 1 1.718-.005c-.162 1.411-1.634 2.38-2.998 2.015-1.46-.256-2.309-1.914-1.838-3.283zM17.202 14.933c.449-.038.799-.313 1.152-.562.5-.053 1.006-.01 1.507-.004-.191.83-.725 1.608-1.541 1.922-1.022.446-2.274.038-2.891-.876.604-.077 1.511.28 1.772-.481z"/>
    <path fill="#515151" d="M2.77 4.414A5.007 5.007 0 0 1 4.414 2.77 9.236 9.236 0 0 1 2.77 4.414z"/>
    <path fill="#535353" d="M20.845 4.176c-.324-.478-.859-.775-1.136-1.284.569.328 1.013.829 1.4 1.35l-.264-.066z"/>
    <path fill="#8b8b8b" d="M21.07 4.441c.055-.058.11-.114.167-.17a12.926 12.926 0 0 1 2.764 6.625v2.216c-.26 2.365-1.198 4.616-2.646 6.499l-.167-.176c3.532-4.187 3.49-10.868-.118-14.994z"/>
    <path fill="#4e4e4e" d="M2.658 4.399l.14.151C.338 7.488-.488 11.683.619 15.346c1.139 4.001 4.547 7.248 8.602 8.183 3.523.875 7.44-.006 10.23-2.334l.146.146a13.111 13.111 0 0 1-6.419 2.658h-2.386c-1.34-.221-2.683-.517-3.911-1.121C3.084 21.146.45 17.316-.001 13.189v-2.395a13.108 13.108 0 0 1 2.658-6.396zM19.646 21.023c.599-.4.971-1.062 1.582-1.438-.349.632-.932 1.078-1.434 1.58l-.148-.143z"/>
</svg>
