<!-- Generated by IcoMoon.io -->
<svg version="1.1" xmlns="http://www.w3.org/2000/svg" width="19" height="24" viewBox="0 0 19 24">
<title>regulatory--end-of-pedestrians-only--g4</title>
<path fill="#000" opacity="0.22" d="M0 0h0.252c0.060 0.145-0.107 0.314-0.252 0.255v-0.255z"></path>
<path fill="#000" d="M0.252 0h18.663c0.031 0.127 0.121 0.323 0.285 0.259v23.463c-0.113 0.057-0.26 0.129-0.256 0.278h-18.66c-0.059-0.125-0.158-0.224-0.284-0.281v-23.464c0.145 0.059 0.312-0.11 0.252-0.255M0.322 0.204c-0.176 0.102-0.157 0.322-0.163 0.496 0.005 7.567-0.001 15.135 0.003 22.702-0.046 0.264 0.171 0.484 0.436 0.431 6.001 0 12.003 0.001 18.004 0 0.263 0.048 0.482-0.168 0.436-0.432 0.002-7.601 0.002-15.202 0-22.803 0.045-0.264-0.172-0.485-0.437-0.436-5.967-0.005-11.934 0.001-17.901-0.004-0.129-0.004-0.255 0.011-0.378 0.046z"></path>
<path fill="#000" d="M6.662 7.061c0.279-0.347 0.963-0.283 1.114 0.162 0.129 0.347-0.054 0.698-0.147 1.029 0.349 0.179 0.845 0.184 1.034 0.579 0.268 0.444 0.531 0.893 0.735 1.371-0.94 1.271-1.936 2.5-2.916 3.74-0.004-0.529 0.009-1.058 0.069-1.583-0.062-0.029-0.188-0.087-0.251-0.116 0.011-0.255 0.022-0.51 0.035-0.765-0.445-0.4-0.923-0.775-1.271-1.268 0.428-0.782 0.844-1.757 1.849-1.885-0.221-0.376-0.487-0.83-0.251-1.264M8.174 9.52c0.054 0.298 0.129 0.593 0.214 0.884 0.082-0.131 0.163-0.263 0.243-0.395-0.148-0.167-0.299-0.332-0.457-0.489M5.94 10.103c0.12 0.143 0.244 0.281 0.374 0.414 0.029-0.278 0.045-0.558 0.043-0.838-0.142 0.138-0.28 0.28-0.417 0.424z"></path>
<path fill="#000" d="M10.633 12.852c0.625-1.236 1.662-2.213 2.465-3.336 0.358 0.461 0.61 1.019 0.647 1.606-0.046 0.378-0.259 0.711-0.341 1.081 0.128 0.263 0.379 0.444 0.57 0.662-0.139 0.19-0.258 0.394-0.341 0.615-0.347 0.108-0.697 0.207-1.045 0.311 0.299 0.293 0.408 0.698 0.33 1.107-0.124 0.578 0.437 1.022 0.313 1.596-0.226-0.089-0.499-0.189-0.559-0.455-0.125-0.819-0.532-1.551-0.806-2.321 0.221 0.713-0.167 1.468 0.153 2.155 0.249 0.457-0.282 1.178-0.8 1.028 0.037-0.435 0.362-0.853 0.181-1.29-0.21-0.62-0.306-1.266-0.39-1.912-0.182-0.071-0.364-0.14-0.546-0.211 0.054-0.213 0.111-0.424 0.169-0.636M12.771 10.383c-0.027 0.399-0.015 0.82 0.19 1.175 0.203-0.398 0.1-0.85-0.19-1.175z"></path>
<path fill="#000" d="M8.245 15.685c0.278-0.356 0.558-0.712 0.838-1.067 0.105 0.332 0.219 0.661 0.347 0.985-0.079 0.060-0.158 0.121-0.237 0.181 0.32 0.042 0.653 0.109 0.876 0.363-0.492 0.217-1.026 0.068-1.536 0.164-0.091-0.211-0.19-0.418-0.288-0.626z"></path>
<path fill="#000" opacity="0.21" d="M18.915 0h0.285v0.259c-0.164 0.064-0.254-0.132-0.285-0.259z"></path>
<path fill="#fff" d="M0.322 0.204c0.123-0.035 0.249-0.050 0.378-0.046 5.967 0.005 11.934-0.001 17.901 0.004 0.265-0.049 0.482 0.172 0.437 0.436 0.002 7.601 0.002 15.202 0 22.803 0.046 0.264-0.173 0.48-0.436 0.432-6.001 0.001-12.003 0-18.004 0-0.265 0.053-0.482-0.167-0.436-0.431-0.004-7.567 0.002-15.135-0.003-22.702 0.006-0.174-0.013-0.394 0.163-0.496M0.752 0.747c-0.009 7.505 0.017 15.011-0.019 22.515 5.903-0.032 11.808-0.007 17.711-0.017 0.012-7.506-0.020-15.013 0.022-22.519-5.904 0.040-11.809 0.011-17.714 0.021z"></path>
<path fill="#fff" d="M4.508 6.387c2.639 0 5.279-0.009 7.918 0.004-1.014 1.267-1.979 2.573-3.028 3.811-0.204-0.478-0.467-0.927-0.735-1.371-0.189-0.395-0.685-0.4-1.034-0.579 0.093-0.331 0.276-0.682 0.147-1.029-0.151-0.445-0.835-0.509-1.114-0.162-0.236 0.434 0.030 0.888 0.251 1.264-1.005 0.128-1.421 1.103-1.849 1.885 0.348 0.493 0.826 0.868 1.271 1.268-0.013 0.255-0.024 0.51-0.035 0.765 0.063 0.029 0.189 0.087 0.251 0.116-0.060 0.525-0.073 1.054-0.069 1.583-0.648 0.841-1.309 1.673-1.966 2.508-0.021-3.354-0.005-6.709-0.008-10.063z"></path>
<path fill="#fff" d="M13.098 9.516c0.529-0.677 1.060-1.353 1.592-2.028 0.003 3.373 0.002 6.745 0 10.118-2.648-0.006-5.297 0.021-7.944-0.014 0.496-0.638 0.998-1.272 1.499-1.907 0.098 0.208 0.197 0.415 0.288 0.626 0.51-0.096 1.044 0.053 1.536-0.164-0.223-0.254-0.556-0.321-0.876-0.363 0.079-0.060 0.158-0.121 0.237-0.181-0.128-0.324-0.242-0.653-0.347-0.985 0.535-0.656 1.018-1.357 1.597-1.977l-0.047 0.211c-0.058 0.212-0.115 0.423-0.169 0.636 0.182 0.071 0.364 0.14 0.546 0.211 0.084 0.646 0.18 1.292 0.39 1.912 0.181 0.437-0.144 0.855-0.181 1.29 0.518 0.15 1.049-0.571 0.8-1.028-0.32-0.687 0.068-1.442-0.153-2.155 0.274 0.77 0.681 1.502 0.806 2.321 0.060 0.266 0.333 0.366 0.559 0.455 0.124-0.574-0.437-1.018-0.313-1.596 0.078-0.409-0.031-0.814-0.33-1.107 0.348-0.104 0.698-0.203 1.045-0.311 0.083-0.221 0.202-0.425 0.341-0.615-0.191-0.218-0.442-0.399-0.57-0.662 0.082-0.37 0.295-0.703 0.341-1.081-0.037-0.587-0.289-1.145-0.647-1.606z"></path>
<path fill="#fff" d="M8.174 9.52c0.158 0.157 0.309 0.322 0.457 0.489-0.080 0.132-0.161 0.264-0.243 0.395-0.085-0.291-0.16-0.586-0.214-0.884z"></path>
<path fill="#fff" d="M12.771 10.383c0.29 0.325 0.393 0.777 0.19 1.175-0.205-0.355-0.217-0.776-0.19-1.175z"></path>
<path fill="#176fc1" d="M0.752 0.747c5.905-0.010 11.81 0.019 17.714-0.021-0.042 7.506-0.010 15.013-0.022 22.519-5.903 0.010-11.808-0.015-17.711 0.017 0.036-7.504 0.010-15.010 0.019-22.515M12.426 6.391c-2.639-0.013-5.279-0.004-7.918-0.004 0.003 3.354-0.013 6.709 0.008 10.063-1.125 1.432-2.248 2.865-3.379 4.293-0.683 0.647-0.282 1.666-0.382 2.494 0.516 0.006 1.032 0.005 1.548-0.002 1.484-1.879 2.958-3.765 4.443-5.643 2.647 0.035 5.296 0.008 7.944 0.014 0.002-3.373 0.003-6.745 0-10.118 1.227-1.575 2.483-3.129 3.693-4.716 0.147-0.654 0.025-1.355 0.061-2.028-0.52-0.008-1.040-0.004-1.56-0.004-1.5 1.872-2.968 3.771-4.458 5.651z"></path>
<path fill="#f03120" d="M12.426 6.391c1.49-1.88 2.958-3.779 4.458-5.651 0.52 0 1.040-0.004 1.56 0.004-0.036 0.673 0.086 1.374-0.061 2.028-1.21 1.587-2.466 3.141-3.693 4.716-0.532 0.675-1.063 1.351-1.592 2.028-0.803 1.123-1.84 2.1-2.465 3.336l0.047-0.211c-0.579 0.62-1.062 1.321-1.597 1.977-0.28 0.355-0.56 0.711-0.838 1.067-0.501 0.635-1.003 1.269-1.499 1.907-1.485 1.878-2.959 3.764-4.443 5.643-0.516 0.007-1.032 0.008-1.548 0.002 0.1-0.828-0.301-1.847 0.382-2.494 1.131-1.428 2.254-2.861 3.379-4.293 0.657-0.835 1.318-1.667 1.966-2.508 0.98-1.24 1.976-2.469 2.916-3.74 1.049-1.238 2.014-2.544 3.028-3.811z"></path>
<path fill="#f2f2f2" d="M5.94 10.103c0.137-0.144 0.275-0.286 0.417-0.424 0.002 0.28-0.014 0.56-0.043 0.838-0.13-0.133-0.254-0.271-0.374-0.414z"></path>
<path fill="#000" opacity="0.14" d="M0 23.719c0.126 0.057 0.225 0.156 0.284 0.281h-0.284v-0.281z"></path>
<path fill="#000" opacity="0.14" d="M18.944 24c-0.004-0.149 0.143-0.221 0.256-0.278v0.278h-0.256z"></path>
</svg>
