<svg xmlns="http://www.w3.org/2000/svg" width="24" height="24">
    <path fill="#d9112a" d="M7.073 0h10.035c2.323 2.279 4.596 4.611 6.923 6.888a381.469 381.469 0 0 0-.008 10.092c-2.328 2.287-4.616 4.613-6.929 6.914-3.33-.04-6.665-.054-9.994.008-2.329-2.311-4.631-4.651-6.972-6.95.008-3.339.031-6.68-.012-10.02C2.449 4.637 4.736 2.294 7.072 0zm2.039 4.915c-.855 2.936-2.492 5.61-4.616 7.798.318.28.646.552.993.796 1.038-.934 2.052-1.902 2.958-2.969 1.138.886 2.278 1.804 3.604 2.399.268-.252.531-.507.791-.769-1.106-.893-2.237-1.778-3.155-2.874-.11-.122-.223-.296-.074-.439.791-1.205 1.364-2.539 1.79-3.911a92.113 92.113 0 0 0-2.291-.032zm6.388.042c-.005 1.031.003 2.06-.003 3.09-1.032.005-2.062-.005-3.093.006-.004.447-.004.895.001 1.342 1.031.012 2.061.001 3.092.005.004 1.332-.003 2.664.004 3.997.63.013 1.262.009 1.894.008.009-2.818.008-5.638 0-8.458-.631 0-1.264-.005-1.896.009zm-4.342 8.645c-1.135 1.962-3.079 3.265-4.953 4.45.323.33.642.666.957 1.004 1.522-.757 3.021-1.609 4.252-2.799 1.87.925 3.773 1.989 5.892 2.163.148-.341.307-.678.47-1.013-1.77-.612-3.495-1.351-5.082-2.353.266-.515.629-.974.882-1.496-.806.004-1.612.018-2.418.045z"/>
    <path fill="#fff" d="M9.112 4.915c.764-.001 1.527.014 2.291.032-.426 1.372-1 2.705-1.79 3.911-.149.142-.036.317.074.439.918 1.096 2.048 1.98 3.155 2.874-.259.262-.522.517-.791.769-1.326-.594-2.465-1.513-3.604-2.399-.906 1.067-1.92 2.034-2.958 2.969a11.532 11.532 0 0 1-.993-.796c2.124-2.188 3.762-4.862 4.616-7.798zM15.5 4.957c.631-.014 1.264-.009 1.896-.009.008 2.82.009 5.639 0 8.458-.633.001-1.264.005-1.894-.008-.006-1.332 0-2.664-.004-3.997-1.031-.004-2.061.006-3.092-.005a66.715 66.715 0 0 1-.001-1.342c1.031-.012 2.061-.001 3.093-.006.005-1.031-.003-2.06.003-3.09zM11.158 13.602a84.783 84.783 0 0 1 2.418-.045c-.253.522-.616.982-.882 1.496 1.588 1.001 3.313 1.74 5.082 2.353-.163.335-.322.671-.47 1.013-2.119-.173-4.022-1.237-5.892-2.163-1.231 1.19-2.73 2.042-4.252 2.799a60.577 60.577 0 0 0-.957-1.004c1.874-1.185 3.818-2.487 4.953-4.45z"/>
    <path fill="#804f55" opacity=".54" d="M0 7.052l.117-.121c.042 3.339.019 6.68.012 10.02l-.128-.13V7.052z"/>
    <path fill="#d36a78" opacity=".91" d="M7.1 23.901c3.329-.062 6.664-.047 9.994-.008l-.119.107H7.212l-.112-.099z"/>
</svg>
