<!-- Generated by IcoMoon.io -->
<svg version="1.1" xmlns="http://www.w3.org/2000/svg" width="24" height="24" viewBox="0 0 24 24">
<title>regulatory--end-of-maximum-speed-limit-110--g2</title>
<path fill="#000" d="M10.98 0h2.031c0.144 0.026 0.289 0.049 0.435 0.063 3.149 0.358 6.108 2.051 8.043 4.556 1.438 1.817 2.28 4.064 2.51 6.362v2.029c-0.183 1.716-0.667 3.412-1.536 4.911-1.534 2.728-4.173 4.811-7.189 5.651-0.736 0.22-1.499 0.322-2.257 0.428h-2.029c-1.74-0.182-3.454-0.685-4.97-1.567-2.696-1.543-4.757-4.163-5.592-7.158-0.219-0.736-0.323-1.498-0.427-2.256v-2.032c0.102-0.761 0.208-1.525 0.427-2.263 0.791-2.83 2.67-5.333 5.158-6.893 1.614-1.043 3.491-1.631 5.395-1.831M9.253 0.538c-1.672 0.397-3.249 1.174-4.591 2.245-2.378 1.88-3.984 4.71-4.351 7.722-0.42 3.18 0.535 6.507 2.585 8.974 1.078-1.286 2.168-2.564 3.231-3.86 0.519-0.588 1.012-1.2 1.519-1.798 1.097-1.308 2.198-2.613 3.291-3.925 0.513-0.608 1.035-1.218 1.533-1.831 1.78-2.103 3.547-4.218 5.316-6.33-2.555-1.464-5.672-1.884-8.532-1.197M18.9 7.143c-0.351 0.425-0.709 0.844-1.061 1.268-0.805 0.96-1.613 1.916-2.414 2.88-0.509 0.594-1.006 1.198-1.511 1.795-0.487 0.585-0.983 1.163-1.465 1.753-0.513 0.596-1.013 1.204-1.52 1.805-1.571 1.874-3.144 3.746-4.715 5.62 2.664 1.53 5.941 1.919 8.899 1.104 1.524-0.416 2.962-1.147 4.199-2.13 2.392-1.881 4.007-4.721 4.376-7.743 0.422-3.18-0.535-6.505-2.583-8.973-0.74 0.87-1.468 1.751-2.206 2.622z"></path>
<path fill="#fff" d="M9.253 0.538c2.859-0.687 5.977-0.267 8.532 1.197-1.769 2.112-3.536 4.227-5.316 6.33-0.033-0.576-0.005-1.153-0.016-1.729-0.465-0.004-0.93-0.003-1.395-0.002-0.098-0.008-0.173 0.061-0.244 0.119-0.432 0.373-0.875 0.734-1.31 1.103-0.011 0.619-0.006 1.239-0.002 1.859 0.484-0.39 0.946-0.806 1.43-1.196 0.008 0.559 0 1.118 0.004 1.677-1.093 1.312-2.194 2.617-3.291 3.925-0.012-2.495 0.001-4.991-0.007-7.486-0.469-0.001-0.938-0.004-1.406 0-0.098-0.006-0.168 0.068-0.239 0.123-0.43 0.372-0.873 0.73-1.304 1.101-0.010 0.62-0.005 1.24-0.002 1.86 0.485-0.395 0.955-0.808 1.437-1.207 0.002 2.469-0.001 4.938 0.002 7.407-1.063 1.297-2.153 2.574-3.231 3.86-2.050-2.467-3.006-5.794-2.585-8.974 0.367-3.012 1.973-5.842 4.351-7.722 1.342-1.071 2.92-1.849 4.591-2.245z"></path>
<path fill="#fff" d="M18.9 7.143c0.738-0.871 1.466-1.752 2.206-2.622 2.047 2.468 3.005 5.794 2.583 8.973-0.369 3.023-1.984 5.863-4.376 7.743-1.237 0.983-2.675 1.714-4.199 2.13-2.958 0.814-6.235 0.426-8.899-1.104 1.571-1.874 3.144-3.746 4.715-5.62 0.014 0.48-0.001 0.96 0.008 1.44 0.504 0.006 1.009 0.005 1.514 0 0.002-1.081 0.007-2.163-0.002-3.245 0.482-0.59 0.978-1.167 1.465-1.753 0.011 0.622-0.006 1.245 0.009 1.868 0.022 0.725 0.208 1.472 0.665 2.050 0.503 0.619 1.244 1.077 2.054 1.113 1.235 0.096 2.433-0.765 2.839-1.917 0.189-0.518 0.238-1.074 0.231-1.622-0.002-1.704 0.003-3.408-0.002-5.112-0.005-0.835-0.246-1.691-0.81-2.323z"></path>
<path fill="#fff" d="M17.839 8.41c0.263 0.359 0.366 0.807 0.364 1.247 0.002 1.656 0.001 3.312 0 4.967 0 0.471-0.087 0.976-0.41 1.339-0.485 0.574-1.488 0.57-1.968-0.008-0.315-0.364-0.399-0.864-0.399-1.331-0.001-1.111 0.001-2.223-0.001-3.335 0.8-0.964 1.609-1.92 2.414-2.88z"></path>
<path fill="#808080" d="M5.994 6.459c0.070-0.055 0.141-0.129 0.239-0.123 0.468-0.004 0.938-0.001 1.406 0 0.008 2.496-0.006 4.991 0.007 7.486-0.508 0.598-1 1.21-1.519 1.798-0.003-2.469 0-4.938-0.002-7.407-0.482 0.399-0.952 0.811-1.437 1.207-0.003-0.62-0.008-1.24 0.002-1.86 0.431-0.371 0.874-0.728 1.304-1.101z"></path>
<path fill="#808080" d="M10.814 6.453c0.070-0.057 0.145-0.127 0.244-0.119 0.465-0.001 0.93-0.002 1.395 0.002 0.012 0.576-0.016 1.153 0.016 1.729-0.499 0.614-1.020 1.223-1.533 1.831-0.003-0.559 0.004-1.118-0.004-1.677-0.484 0.39-0.946 0.806-1.43 1.196-0.003-0.62-0.009-1.239 0.002-1.859 0.435-0.37 0.877-0.731 1.31-1.103z"></path>
<path fill="#808080" d="M17.839 8.41c0.352-0.424 0.71-0.843 1.061-1.268 0.564 0.632 0.805 1.488 0.81 2.323 0.006 1.704 0 3.408 0.002 5.112 0.007 0.548-0.041 1.104-0.231 1.622-0.406 1.151-1.604 2.012-2.839 1.917-0.81-0.036-1.552-0.495-2.054-1.113-0.457-0.578-0.643-1.325-0.665-2.050-0.015-0.623 0.001-1.246-0.009-1.868 0.505-0.598 1.002-1.201 1.511-1.795 0.002 1.111-0 2.223 0.001 3.335 0 0.467 0.084 0.967 0.399 1.331 0.48 0.577 1.483 0.582 1.968 0.008 0.323-0.363 0.41-0.868 0.41-1.339 0-1.656 0.002-3.312-0-4.967 0.001-0.44-0.101-0.888-0.364-1.247z"></path>
<path fill="#808080" d="M10.93 16.643c0.508-0.6 1.007-1.208 1.52-1.805 0.009 1.081 0.004 2.163 0.002 3.245-0.505 0.004-1.010 0.005-1.514-0-0.010-0.48 0.006-0.96-0.008-1.44z"></path>
</svg>
