<?xml version="1.0" encoding="utf-8"?>
<!-- Generated by IcoMoon.io -->
<!DOCTYPE svg PUBLIC "-//W3C//DTD SVG 1.1//EN" "http://www.w3.org/Graphics/SVG/1.1/DTD/svg11.dtd">
<svg version="1.1" xmlns="http://www.w3.org/2000/svg" xmlns:xlink="http://www.w3.org/1999/xlink" width="24" height="24" viewBox="0 0 24 24">
<path fill="#ee1c23" d="M11.334 0h1.234c2.863 0.158 5.671 1.324 7.728 3.334 2.278 2.154 3.628 5.231 3.704 8.36v0.84c-0.139 2.621-1.123 5.192-2.826 7.195-2.11 2.524-5.288 4.087-8.569 4.271h-1.176c-2.465-0.142-4.885-1.025-6.824-2.558-2.73-2.096-4.422-5.425-4.604-8.854v-0.991c0.104-3.065 1.42-6.072 3.636-8.197 2.038-2.032 4.84-3.208 7.698-3.4M6.882 4.716c-1.408 0.986-2.507 2.392-3.154 3.982-0.539 1.372-0.732 2.869-0.571 4.333 0.050 0.349 0.114 0.696 0.181 1.042 0.010 0.034 0.026 0.101 0.036 0.134 0.72 2.875 2.98 5.306 5.798 6.232 2.078 0.697 4.417 0.598 6.42-0.3 1.844-0.81 3.391-2.269 4.312-4.062 0.823-1.577 1.144-3.407 0.924-5.172-0.241-2.036-1.226-3.971-2.719-5.375-1.54-1.469-3.629-2.342-5.755-2.418-1.934-0.084-3.889 0.49-5.472 1.604z"></path>
<path fill="#fff" d="M6.882 4.716c1.583-1.115 3.538-1.688 5.472-1.604 2.126 0.076 4.216 0.949 5.755 2.418 1.493 1.404 2.478 3.338 2.719 5.375 0.22 1.765-0.101 3.595-0.924 5.172-0.92 1.793-2.467 3.252-4.312 4.062-2.003 0.898-4.342 0.997-6.42 0.3-2.819-0.925-5.078-3.356-5.798-6.232 0.096 0.335 0.337 0.586 0.599 0.8-0.090-0.023-0.271-0.071-0.361-0.095 0.050 0.056 0.151 0.169 0.203 0.226 4.946 0.032 9.896 0.005 14.844 0.014l0.002-0.216c-0.688 0.005-1.375-0.016-2.063 0.014 0.277-0.192 0.571-0.428 0.604-0.791 0.1-0.541-0.323-1.031-0.834-1.151 0.763 0.043 1.528 0.016 2.292 0.023 0-1.446 0-2.891 0-4.336-3.046-0.001-6.090 0-9.134 0-0.001 1.445 0 2.89-0.001 4.334 0.086 0 0.26 0.002 0.347 0.002 0 0.199 0 0.398 0 0.599-1.536-0.002-3.071 0.005-4.606-0.004-0.218-0.311-0.527-0.626-0.944-0.569-0.563-0.056-0.994 0.481-0.983 1.013-0.067-0.346-0.131-0.692-0.181-1.042 1.084 0.001 2.167 0.001 3.251 0.001 0-1.446 0-2.891 0-4.336-0.894 0-1.787-0.002-2.68 0.001 0.647-1.59 1.746-2.995 3.154-3.982z"></path>
<path fill="#fff" d="M12.035 13.843c0.001-0.271 0.001-0.541 0.001-0.811 1.349-0.008 2.699 0.018 4.048-0.016-0.511 0.115-0.914 0.619-0.815 1.15 0.040 0.358 0.319 0.612 0.613 0.781-1.589-0.017-3.18-0.024-4.77 0.004 0.425-0.203 0.586-0.713 0.338-1.118 0.194 0.005 0.39 0.007 0.584 0.011z"></path>
<path fill="#fff" d="M5.312 13.802c1.662 0.026 3.326-0.028 4.988 0.034-0.224 0.41-0.078 0.917 0.352 1.116-1.988-0.030-3.979-0.020-5.969-0.005 0.433-0.212 0.685-0.662 0.629-1.145z"></path>
<path fill="#000" d="M3.157 13.031c-0.161-1.464 0.032-2.962 0.571-4.333 0.893-0.004 1.786-0.001 2.68-0.001 0 1.445 0 2.89 0 4.336-1.084 0-2.167 0-3.251-0.001z"></path>
<path fill="#000" d="M9.526 8.696c3.044 0 6.089-0.001 9.134 0 0 1.445 0 2.89 0 4.336-0.764-0.007-1.529 0.020-2.292-0.023 0.511 0.12 0.934 0.61 0.834 1.151-0.032 0.362-0.326 0.599-0.604 0.791 0.688-0.030 1.375-0.010 2.063-0.014l-0.002 0.216c-4.948-0.010-9.898 0.018-14.844-0.014-0.052-0.056-0.152-0.169-0.203-0.226 0.090 0.024 0.271 0.072 0.361 0.095-0.262-0.215-0.503-0.466-0.599-0.8-0.010-0.034-0.026-0.101-0.036-0.134-0.011-0.532 0.42-1.069 0.983-1.013 0.418-0.058 0.726 0.258 0.944 0.569 1.535 0.008 3.070 0.001 4.606 0.004 0-0.2 0-0.4 0-0.599-0.086 0-0.26-0.002-0.347-0.002 0.001-1.445 0-2.89 0.001-4.334M12.035 13.843c-0.194-0.004-0.39-0.006-0.584-0.011 0.247 0.406 0.086 0.916-0.338 1.118 1.59-0.028 3.181-0.020 4.77-0.004-0.294-0.169-0.574-0.424-0.613-0.781-0.1-0.53 0.304-1.034 0.815-1.15-1.349 0.034-2.699 0.007-4.048 0.016 0 0.27 0 0.54-0.001 0.811M5.312 13.802c0.056 0.482-0.196 0.932-0.629 1.145 1.99-0.016 3.98-0.025 5.969 0.005-0.43-0.199-0.576-0.706-0.352-1.116-1.662-0.061-3.326-0.007-4.988-0.034z"></path>
</svg>
