<?xml version="1.0" encoding="utf-8"?>
<!-- Generated by IcoMoon.io -->
<!DOCTYPE svg PUBLIC "-//W3C//DTD SVG 1.1//EN" "http://www.w3.org/Graphics/SVG/1.1/DTD/svg11.dtd">
<svg version="1.1" xmlns="http://www.w3.org/2000/svg" xmlns:xlink="http://www.w3.org/1999/xlink" width="24" height="24" viewBox="0 0 24 24">
<path fill="#c50303" d="M8.72 0.458c2.134-0.592 4.428-0.599 6.559 0.004 3.158 0.877 5.899 3.125 7.384 6.046 1.246 2.411 1.626 5.25 1.086 7.907-0.438 2.177-1.498 4.225-3.028 5.834-2.082 2.236-5.057 3.589-8.102 3.751h-1.367c-2.412-0.168-4.777-1.045-6.677-2.548-2.693-2.081-4.374-5.358-4.576-8.748v-1.337c0.125-2.162 0.818-4.295 2.044-6.085 1.56-2.332 3.974-4.074 6.677-4.824M11.426 2.315c-2.717 0.144-5.339 1.495-7.024 3.632-1.188 1.477-1.926 3.31-2.087 5.2-0.21 2.282 0.424 4.63 1.76 6.493 1.458 2.056 3.743 3.515 6.232 3.934 2.216 0.397 4.568-0.011 6.515-1.142 2.047-1.16 3.634-3.103 4.376-5.334 0.608-1.798 0.661-3.774 0.173-5.606-0.58-2.188-1.958-4.153-3.818-5.442-1.769-1.246-3.967-1.873-6.127-1.734z"></path>
<path fill="#fff" d="M11.426 2.315c2.16-0.139 4.358 0.488 6.127 1.734 1.86 1.289 3.239 3.254 3.818 5.442 0.488 1.832 0.436 3.809-0.173 5.606-0.743 2.231-2.329 4.174-4.376 5.334-1.946 1.132-4.298 1.54-6.515 1.142-2.489-0.419-4.774-1.878-6.232-3.934-1.337-1.864-1.97-4.211-1.76-6.493 0.161-1.89 0.899-3.722 2.087-5.2 1.685-2.137 4.307-3.488 7.024-3.632M8.026 14.592c-0.202-0.378-0.385-0.767-0.602-1.136-0.168-0.288-0.62-0.187-0.712 0.11-0.318 1.552-0.611 3.108-0.919 4.662 1.42-0.272 2.845-0.515 4.265-0.784 0.203-0.054 0.461-0.018 0.6-0.208 0.152-0.168 0.122-0.467-0.083-0.58-0.362-0.226-0.75-0.407-1.116-0.624 3.198-3.152 6.39-6.31 9.584-9.466-0.473-0.485-0.946-0.97-1.427-1.446-3.2 3.154-6.396 6.311-9.59 9.47z"></path>
<path fill="#030303" d="M8.026 14.592c3.194-3.16 6.39-6.317 9.59-9.47 0.481 0.476 0.954 0.961 1.427 1.446-3.194 3.156-6.386 6.313-9.584 9.466 0.366 0.217 0.754 0.398 1.116 0.624 0.205 0.113 0.235 0.412 0.083 0.58-0.139 0.19-0.397 0.154-0.6 0.208-1.42 0.269-2.845 0.511-4.265 0.784 0.308-1.554 0.601-3.11 0.919-4.662 0.091-0.298 0.544-0.398 0.712-0.11 0.217 0.37 0.401 0.758 0.602 1.136z"></path>
</svg>
