<svg xmlns="http://www.w3.org/2000/svg" width="24" height="24">
    <path d="M10.991 0h2.014c.171.03.342.053.515.072 3.122.376 6.05 2.062 7.971 4.547 1.44 1.82 2.283 4.071 2.51 6.373v2.01c-.182 1.73-.673 3.44-1.553 4.947-1.536 2.714-4.167 4.784-7.172 5.622-.74.22-1.505.325-2.268.428h-2.011c-1.743-.18-3.458-.684-4.977-1.567-2.685-1.537-4.741-4.141-5.582-7.122-.225-.751-.335-1.528-.438-2.303v-2.014c.1-.764.208-1.53.427-2.27a12.059 12.059 0 0 1 5.129-6.875C7.18.793 9.071.196 10.991-.002zM9.066.585a11.738 11.738 0 0 0-4.404 2.199C2.284 4.664.678 7.494.311 10.506a11.802 11.802 0 0 0 2.587 8.978c.61-.734 1.229-1.461 1.838-2.195.453-.533.898-1.072 1.35-1.605.739-.887 1.486-1.767 2.223-2.655.939-1.109 1.867-2.227 2.805-3.336.563-.682 1.14-1.351 1.7-2.035.638-.746 1.265-1.501 1.895-2.254 1.033-1.22 2.05-2.453 3.087-3.668C15.178.246 11.982-.169 9.067.585zm10.073 6.292c-.166.17-.322.352-.454.549h-.021c-.638.765-1.283 1.524-1.919 2.291l-.01-.002c-.856 1.049-1.743 2.073-2.603 3.119-1.026 1.218-2.059 2.433-3.068 3.664-.681.798-1.373 1.593-2.018 2.419-.967 1.089-1.886 2.231-2.827 3.346 2.672 1.538 5.966 1.92 8.932 1.094a11.749 11.749 0 0 0 4.162-2.12c2.392-1.881 4.007-4.72 4.376-7.743.422-3.181-.537-6.507-2.585-8.977-.651.789-1.328 1.56-1.965 2.359z"/>
    <path fill="#fff" d="M9.066.585c2.915-.755 6.111-.339 8.729 1.151-1.037 1.215-2.055 2.448-3.087 3.668-.632.007-1.265-.003-1.897.005-.004.75-.006 1.5.002 2.249-.559.684-1.137 1.354-1.7 2.035.098-1.163-.242-2.361-1.011-3.249-.618-.776-1.623-1.185-2.606-1.129-.84.018-1.613.486-2.139 1.121a4.134 4.134 0 0 0-1.018 2.527c.579.003 1.159.007 1.739-.001.092-.58.379-1.166.922-1.444.53-.311 1.242-.21 1.692.198.929.77.919 2.44-.087 3.14-.474.338-1.08.283-1.63.288-.004.594-.005 1.189 0 1.783.445.015.903-.044 1.333.102-.737.888-1.485 1.769-2.223 2.655-.598-.093-1.21-.023-1.814-.041.074.567.212 1.13.463 1.645-.609.734-1.228 1.462-1.838 2.195a11.802 11.802 0 0 1-2.587-8.978C.676 7.493 2.282 4.663 4.66 2.783A11.752 11.752 0 0 1 9.064.584zM19.139 6.877c.637-.799 1.314-1.57 1.965-2.359 2.048 2.47 3.007 5.796 2.585 8.977-.369 3.022-1.985 5.862-4.376 7.743a11.749 11.749 0 0 1-4.162 2.12c-2.966.826-6.259.444-8.932-1.094.941-1.115 1.86-2.257 2.827-3.346 1-.438 1.73-1.378 2.018-2.419 1.009-1.231 2.042-2.446 3.068-3.664.106 0 .213-.005.32-.006.234-.492.621-.974 1.183-1.086.441-.071.935-.028 1.307.24.361.27.475.737.574 1.153.198 1.026.103 2.087-.107 3.104a1.089 1.089 0 0 1-.787.849c-.554.147-1.212.122-1.668-.261-.367-.308-.524-.783-.622-1.237a84.199 84.199 0 0 0-1.741 0c.079.886.319 1.809.935 2.48.936.955 2.463 1.443 3.723.863a3.8 3.8 0 0 0 2.043-2.928 15.464 15.464 0 0 0-.007-3.318c-.148-1.369-1.116-2.742-2.539-2.969.636-.767 1.281-1.526 1.919-2.291h.021c.151.004.302.003.453 0 .004-.183-.001-.366.001-.549z"/>
    <path fill="gray" d="M5.357 6.436c.526-.636 1.299-1.103 2.139-1.121.983-.056 1.988.353 2.606 1.129.769.888 1.109 2.086 1.011 3.249-.938 1.109-1.866 2.227-2.805 3.336-.43-.146-.888-.087-1.333-.102a96.338 96.338 0 0 1 0-1.783c.55-.006 1.156.05 1.63-.288 1.006-.699 1.016-2.37.087-3.14-.45-.407-1.162-.509-1.692-.198-.543.278-.83.864-.922 1.444-.58.008-1.16.004-1.739.001a4.129 4.129 0 0 1 1.018-2.527zM12.811 5.408c.632-.008 1.265.003 1.897-.005-.63.752-1.257 1.508-1.895 2.254-.008-.75-.006-1.5-.002-2.249zM18.685 7.426a3.85 3.85 0 0 1 .454-.549c-.002.183.003.366-.001.549a9.773 9.773 0 0 1-.453 0zM16.735 9.715l.01.002c1.423.227 2.391 1.6 2.539 2.969.12 1.101.125 2.217.007 3.318a3.799 3.799 0 0 1-2.043 2.928c-1.26.581-2.787.093-3.723-.863-.616-.67-.856-1.594-.935-2.48.58-.005 1.161-.006 1.741 0 .098.453.255.928.622 1.237.456.383 1.115.408 1.668.261.399-.102.713-.444.787-.849.21-1.016.306-2.078.107-3.104-.099-.416-.213-.883-.574-1.153-.372-.268-.866-.311-1.307-.24-.562.112-.949.593-1.183 1.086-.107.001-.214.005-.32.006.86-1.046 1.747-2.07 2.603-3.119zM4.272 15.643c.603.018 1.215-.052 1.814.041-.452.533-.897 1.072-1.35 1.605-.251-.516-.389-1.079-.463-1.645zM9.046 18.917c.645-.826 1.336-1.621 2.018-2.419-.288 1.042-1.018 1.981-2.018 2.419z"/>
</svg>
