<?xml version="1.0" encoding="utf-8"?>
<!-- Generated by IcoMoon.io -->
<!DOCTYPE svg PUBLIC "-//W3C//DTD SVG 1.1//EN" "http://www.w3.org/Graphics/SVG/1.1/DTD/svg11.dtd">
<svg version="1.1" xmlns="http://www.w3.org/2000/svg" xmlns:xlink="http://www.w3.org/1999/xlink" width="24" height="24" viewBox="0 0 24 24">
<path fill="#fff" d="M12.797 0.465l10.8 10.807c0.495 0.495 0.317 1.139-0.026 1.501l-10.736 10.769c-0.55 0.55-1.323 0.339-1.675-0.013l-10.672-10.654c-0.512-0.512-0.523-1.195-0.026-1.692 0 0 10.685-10.705 10.685-10.705 0.565-0.507 1.218-0.438 1.65-0.013z"></path>
<path fill="#f7ba0b" d="M5.226 12l6.774-6.774 6.774 6.774-6.774 6.774-6.774-6.774z"></path>
<path fill="none" stroke="#000" stroke-width="0.8816" stroke-miterlimit="4" stroke-linecap="butt" stroke-linejoin="miter" d="M5.204 16.804l11.694-11.684"></path>
<path fill="none" stroke="#000" stroke-width="0.3975" stroke-miterlimit="4" stroke-linecap="round" stroke-linejoin="round" d="M12.661 0.996l10.381 10.375c0.465 0.465 0.374 0.843 0.052 1.183l-10.481 10.484c-0.517 0.517-0.87 0.354-1.202 0.023l-10.393-10.383c-0.481-0.481-0.526-0.854-0.059-1.322 0 0 10.481-10.466 10.481-10.466 0.532-0.477 0.813-0.294 1.219 0.106z"></path>
<path fill="none" stroke="#000" stroke-width="0.8816" stroke-miterlimit="4" stroke-linecap="butt" stroke-linejoin="miter" d="M6.126 17.848l11.694-11.684"></path>
<path fill="none" stroke="#000" stroke-width="0.8816" stroke-miterlimit="4" stroke-linecap="butt" stroke-linejoin="miter" d="M7.164 18.802l11.694-11.684"></path>
</svg>
