<!-- Generated by IcoMoon.io -->
<svg version="1.1" xmlns="http://www.w3.org/2000/svg" width="24" height="24" viewBox="0 0 24 24">
<title>regulatory--keep-right--g6</title>
<path fill="#ec1c24" d="M10.85 0.348c4.48-0.554 9.117 1.782 11.395 5.668 1.72 2.83 2.14 6.4 1.136 9.555-1.101 3.56-3.988 6.503-7.529 7.664-3.269 1.108-7.015 0.667-9.932-1.179-3.929-2.399-6.189-7.226-5.431-11.78 0.709-5.141 5.192-9.441 10.361-9.928M10.705 3.614c-3.15 0.51-5.879 2.93-6.773 5.991-0.805 2.61-0.237 5.587 1.47 7.718 1.748 2.265 4.681 3.555 7.532 3.258 3.851-0.301 7.201-3.52 7.684-7.348 0.449-2.996-0.871-6.162-3.293-7.974-1.849-1.444-4.311-2.046-6.621-1.646z"></path>
<path fill="#fff" d="M10.705 3.614c2.309-0.4 4.772 0.202 6.621 1.646 2.423 1.812 3.742 4.978 3.293 7.974-0.483 3.827-3.833 7.047-7.684 7.348-2.852 0.297-5.784-0.993-7.532-3.258-1.707-2.132-2.275-5.108-1.47-7.718 0.893-3.062 3.623-5.482 6.773-5.991M11.709 7.698c-0.014 2.34 0.017 4.681-0.027 7.021 0.080 0.031 0.239 0.094 0.318 0.124-0.010 0.562-0.014 1.126 0.023 1.689 0.325 0.036 0.66 0.040 0.943-0.149-0.013-0.577-0.037-1.156 0.024-1.731 0.070 0.623 0.031 1.253 0.051 1.88 0.28 0.010 0.56 0.007 0.838-0.009 0.018-0.229 0.037-0.457 0.054-0.686 0.53-0.036 1.044 0.078 1.552 0.206 0.496-0.122 0.994-0.239 1.51-0.207 0.010 0.226 0.023 0.452 0.034 0.677 0.271-0.006 0.638 0.152 0.844-0.074 0.116-0.591-0.016-1.201 0.101-1.794 0.077 0.618 0.037 1.241 0.048 1.862 0.287 0.017 0.608 0.128 0.868-0.047 0.072-0.52 0.030-1.047 0.040-1.571 0.067-0.054 0.2-0.162 0.267-0.216 0.087-2.32 0.014-4.651 0.038-6.976-2.506-0.172-5.019-0.172-7.525 0M7.461 10.419c-0.003 0.274-0.006 0.547-0.007 0.821-0.825-0.006-1.649 0.003-2.474-0.010 0.009 0.555 0.007 1.109 0.006 1.663 0.822-0.003 1.644-0.001 2.467-0.001 0.003 0.268 0.006 0.538 0.010 0.807 0.871-0.555 1.751-1.098 2.627-1.644-0.871-0.554-1.744-1.103-2.629-1.635z"></path>
<path fill="#fff" d="M13.914 14.789c1.031-0.001 2.063-0.003 3.094 0.001-0.001 0.169-0.001 0.338-0.003 0.507-0.525 0.038-1.035-0.060-1.532-0.216-0.508 0.146-1.027 0.247-1.561 0.206 0-0.166 0-0.332 0.001-0.498z"></path>
<path fill="#231f20" d="M11.709 7.698c2.506-0.172 5.019-0.172 7.525 0-0.024 2.325 0.048 4.655-0.038 6.976-0.067 0.054-0.2 0.162-0.267 0.216-0.010 0.524 0.033 1.051-0.040 1.571-0.26 0.175-0.581 0.064-0.868 0.047-0.011-0.621 0.028-1.244-0.048-1.862-0.116 0.592 0.016 1.203-0.101 1.794-0.206 0.226-0.572 0.068-0.844 0.074-0.011-0.226-0.024-0.452-0.034-0.677-0.516-0.031-1.014 0.085-1.51 0.207-0.508-0.128-1.022-0.241-1.552-0.206-0.017 0.229-0.036 0.457-0.054 0.686-0.278 0.016-0.558 0.018-0.838 0.009-0.020-0.628 0.018-1.257-0.051-1.88-0.061 0.575-0.037 1.155-0.024 1.731-0.283 0.189-0.618 0.185-0.943 0.149-0.037-0.562-0.033-1.126-0.023-1.689-0.080-0.030-0.239-0.092-0.318-0.124 0.044-2.34 0.013-4.681 0.027-7.021M13.914 14.789c-0.001 0.166-0.001 0.332-0.001 0.498 0.534 0.041 1.052-0.060 1.561-0.206 0.497 0.156 1.007 0.254 1.532 0.216 0.001-0.169 0.001-0.338 0.003-0.507-1.031-0.004-2.063-0.003-3.094-0.001z"></path>
<path fill="#231f20" d="M7.461 10.419c0.885 0.531 1.758 1.081 2.629 1.635-0.876 0.547-1.757 1.089-2.627 1.644-0.004-0.268-0.007-0.538-0.010-0.807-0.822 0-1.644-0.001-2.467 0.001 0.001-0.554 0.003-1.108-0.006-1.663 0.825 0.013 1.649 0.004 2.474 0.010 0.001-0.274 0.004-0.547 0.007-0.821z"></path>
</svg>
