<!-- Generated by IcoMoon.io -->
<svg version="1.1" xmlns="http://www.w3.org/2000/svg" width="24" height="24" viewBox="0 0 24 24">
<title>regulatory--no-overtaking-by-heavy-goods-vehicles--g1</title>
<path fill="#000" d="M10.832 0h2.311c1.7 0.338 3.553 0.637 4.931 1.756-3.685-2.16-8.465-2.161-12.15 0 1.369-1.117 3.217-1.409 4.908-1.756z"></path>
<path fill="#000" d="M22.243 5.927c1.112 1.374 1.416 3.216 1.757 4.909v2.302c-0.282 1.168-0.335 2.461-1.026 3.481 1.409-3.44 1.138-7.476-0.731-10.692z"></path>
<path fill="#000" d="M14.3 11.656c1.103-0.172 2.233-0.131 3.341-0.035 0.659 0.055 0.733 0.835 1.013 1.294 0.072 0.342 0.448 0.48 0.5 0.82-0.416 0.019-0.834-0.006-1.25 0.031 0.106 0.476 0.854 0.112 1.229 0.229-0.002 0.374 0.040 0.882-0.373 1.064 0.006 0.214 0.001 0.427-0.038 0.638-0.353 0.041-0.71 0.050-1.062-0.004-0.041-0.239-0.044-0.482-0.043-0.725-1.022-0.007-2.045 0.012-3.067 0.008 0.259 0.81-0.515 0.865-1.103 0.728-0.035-0.221-0.042-0.443-0.037-0.665-0.068-0.031-0.206-0.092-0.275-0.124-0.102-0.283-0.128-0.583-0.119-0.883 0.373-0.121 1.198 0.258 1.244-0.244-0.43-0.040-0.878 0.064-1.295-0.067 0.049-0.202 0.21-0.304 0.388-0.38 0.335-0.541 0.325-1.388 0.948-1.687M14.55 12.047c-0.46 0.194-0.454 0.815-0.682 1.205 1.469-0.314 2.996-0.289 4.469-0.007-0.294-0.438-0.359-1.283-1.046-1.235-0.912-0.046-1.834-0.089-2.741 0.037M15.132 13.729c-0.013 0.215-0.013 0.43-0.001 0.644 0.602 0.024 1.205 0 1.808-0.005 0.029-0.217 0.028-0.437-0.005-0.653-0.601-0.008-1.201 0-1.802 0.013z"></path>
<path fill="#000" d="M4.986 21.624c0.736 0.444 1.457 0.92 2.251 1.259 3.281 1.469 7.186 1.27 10.362-0.379-1.258 0.968-2.921 1.168-4.433 1.496h-2.311c-2.076-0.361-4.284-0.919-5.869-2.376z"></path>
<path fill="#fff" d="M5.924 1.756c3.685-2.161 8.465-2.16 12.15 0 0.318 0.209 0.637 0.414 0.953 0.626 0.132 0.198 0.319 0.35 0.544 0.436 0.010 0.005 0.031 0.017 0.042 0.022 0.512 0.522 1.028 1.039 1.549 1.552 0.006 0.011 0.017 0.031 0.022 0.041 0.088 0.222 0.235 0.412 0.434 0.545 0.211 0.314 0.415 0.634 0.625 0.95 1.868 3.216 2.14 7.252 0.731 10.692-0.014 0.029-0.042 0.086-0.056 0.114-0.206 0.353-0.386 0.719-0.54 1.097-0.018 0.028-0.052 0.082-0.068 0.109-0.138 0.116-0.235 0.271-0.287 0.444-0.012 0.031-0.038 0.095-0.050 0.127-0.299 0.336-0.568 0.698-0.798 1.086-0.008 0.007-0.023 0.024-0.031 0.032-0.485 0.458-0.944 0.942-1.415 1.416-0.040 0.038-0.080 0.078-0.12 0.118-0.392 0.234-0.76 0.508-1.099 0.812-0.031 0.012-0.094 0.037-0.125 0.049-0.175 0.047-0.325 0.149-0.446 0.281-0.114 0.065-0.227 0.131-0.338 0.199-3.176 1.649-7.081 1.848-10.362 0.379-0.794-0.338-1.516-0.815-2.251-1.259-0.006-0.007-0.017-0.020-0.023-0.028-0.125-0.202-0.325-0.33-0.542-0.414-0.007-0.005-0.022-0.017-0.029-0.022-0.51-0.527-1.033-1.039-1.555-1.553-0.006-0.008-0.017-0.024-0.022-0.032-0.083-0.226-0.227-0.421-0.43-0.552-0.211-0.318-0.418-0.64-0.629-0.958-0.206-0.454-0.432-0.898-0.676-1.332-0.014-0.030-0.043-0.089-0.058-0.119-1.044-2.628-1.172-5.572-0.355-8.279 0.023-0.066 0.047-0.131 0.070-0.196 0.31-0.749 0.652-1.482 1.013-2.207 0.211-0.322 0.419-0.644 0.629-0.967 0.172-0.092 0.293-0.251 0.332-0.442 0.042-0.044 0.084-0.088 0.127-0.132 0.516-0.518 1.037-1.031 1.548-1.555 0.011-0.005 0.034-0.017 0.044-0.022 0.223-0.085 0.409-0.238 0.541-0.436 0.314-0.212 0.635-0.416 0.952-0.625M11.094 0.436c-3.985 0.265-7.702 2.779-9.463 6.358-1.79 3.503-1.61 7.919 0.475 11.257 2.024 3.36 5.849 5.538 9.774 5.55 3.859 0.067 7.667-1.961 9.78-5.186 1.649-2.453 2.285-5.551 1.758-8.456-0.533-3.083-2.389-5.905-5-7.624-2.134-1.436-4.764-2.1-7.324-1.898z"></path>
<path fill="#fff" d="M10.484 3.533c4.127-0.829 8.552 1.861 9.724 5.899 1.315 3.919-0.7 8.557-4.441 10.296-3.401 1.738-7.879 0.797-10.306-2.149-2.582-2.911-2.744-7.602-0.38-10.691 1.289-1.752 3.258-2.984 5.404-3.355M5.431 7.867c-0.019 2.114 0.013 4.23-0.010 6.343 2.152 0.007 4.304 0.004 6.456 0.004-0.050-2.111 0.076-4.262-0.054-6.349-2.12-0.25-4.272-0.253-6.392 0.002M14.3 11.656c-0.623 0.299-0.613 1.146-0.948 1.687-0.178 0.077-0.338 0.179-0.388 0.38 0.416 0.131 0.865 0.028 1.295 0.067-0.047 0.502-0.871 0.122-1.244 0.244-0.010 0.3 0.017 0.6 0.119 0.883 0.068 0.031 0.206 0.092 0.275 0.124-0.005 0.222 0.002 0.444 0.037 0.665 0.588 0.137 1.362 0.082 1.103-0.728 1.022 0.004 2.045-0.016 3.067-0.008-0.001 0.242 0.002 0.486 0.043 0.725 0.352 0.054 0.709 0.044 1.062 0.004 0.040-0.211 0.044-0.425 0.038-0.638 0.413-0.182 0.371-0.69 0.373-1.064-0.374-0.118-1.123 0.247-1.229-0.229 0.416-0.037 0.834-0.012 1.25-0.031-0.053-0.34-0.428-0.478-0.5-0.82-0.28-0.458-0.354-1.238-1.013-1.294-1.108-0.096-2.238-0.137-3.341 0.035M5.743 14.285c0 0.473-0.032 0.949 0.026 1.421 0.187 0.042 0.379 0.040 0.565-0.007 0.058-0.473 0.041-0.949 0.010-1.423-0.2 0.004-0.401 0.006-0.601 0.010M6.646 14.273c-0.005 0.484-0.058 0.974 0.036 1.453 0.18 0.017 0.36 0.011 0.539-0.017 0.038-0.222 0.050-0.449 0.048-0.673 0.332-0.006 0.664-0.008 0.996-0.002 0.221 0.277 0.576 0.284 0.796 0.002 0.331-0.008 0.662-0.007 0.994-0.004 0.005 0.223 0.023 0.446 0.048 0.67 0.185 0.043 0.374 0.042 0.56 0.004 0.053-0.474 0.048-0.954 0.004-1.428-0.187 0-0.376-0.001-0.563-0.002-0.019 0.168-0.038 0.337-0.058 0.505-0.484 0.012-0.997 0.077-1.399-0.251-0.373 0.361-0.907 0.251-1.376 0.241-0.007-0.166-0.013-0.331-0.020-0.496-0.202 0-0.402-0.001-0.604-0.002M10.972 14.274c-0.001 0.48-0.060 0.967 0.037 1.442 0.18 0.024 0.36 0.024 0.541 0 0.076-0.475 0.034-0.959 0.030-1.439-0.203 0-0.406-0.001-0.608-0.004z"></path>
<path fill="#fff" d="M14.55 12.047c0.907-0.126 1.829-0.083 2.741-0.037 0.688-0.048 0.752 0.797 1.046 1.235-1.472-0.282-3-0.307-4.469 0.007 0.228-0.39 0.222-1.010 0.682-1.205z"></path>
<path fill="#fff" d="M15.132 13.729c0.601-0.013 1.201-0.022 1.802-0.013 0.032 0.216 0.034 0.436 0.005 0.653-0.604 0.005-1.206 0.029-1.808 0.005-0.012-0.215-0.012-0.43 0.001-0.644z"></path>
<path fill="#d40000" d="M11.094 0.436c2.56-0.202 5.19 0.462 7.324 1.898 2.611 1.718 4.468 4.541 5 7.624 0.527 2.905-0.109 6.004-1.758 8.456-2.113 3.226-5.921 5.254-9.78 5.186-3.925-0.012-7.75-2.19-9.774-5.55-2.086-3.338-2.266-7.754-0.475-11.257 1.762-3.578 5.478-6.092 9.463-6.358M10.484 3.533c-2.146 0.371-4.115 1.603-5.404 3.355-2.364 3.089-2.202 7.78 0.38 10.691 2.426 2.946 6.905 3.887 10.306 2.149 3.742-1.739 5.756-6.377 4.441-10.296-1.171-4.038-5.597-6.728-9.724-5.899z"></path>
<path fill="#d40000" d="M5.431 7.867c2.12-0.256 4.272-0.252 6.392-0.002 0.13 2.087 0.004 4.238 0.054 6.349-2.152 0-4.304 0.004-6.456-0.004 0.023-2.113-0.010-4.229 0.010-6.343z"></path>
<path fill="#d40000" d="M5.743 14.285c0.2-0.004 0.401-0.006 0.601-0.010 0.031 0.474 0.048 0.95-0.010 1.423-0.186 0.047-0.378 0.049-0.565 0.007-0.059-0.472-0.026-0.948-0.026-1.421z"></path>
<path fill="#d40000" d="M6.646 14.273c0.202 0.001 0.402 0.002 0.604 0.002 0.007 0.164 0.013 0.33 0.020 0.496 0.469 0.010 1.003 0.12 1.376-0.241 0.402 0.328 0.916 0.263 1.399 0.251 0.019-0.168 0.038-0.337 0.058-0.505 0.187 0.001 0.376 0.002 0.563 0.002 0.044 0.474 0.049 0.954-0.004 1.428-0.186 0.038-0.376 0.040-0.56-0.004-0.025-0.223-0.043-0.446-0.048-0.67-0.331-0.004-0.662-0.005-0.994 0.004-0.22 0.282-0.575 0.275-0.796-0.002-0.332-0.006-0.664-0.004-0.996 0.002 0.002 0.224-0.010 0.451-0.048 0.673-0.179 0.028-0.359 0.034-0.539 0.017-0.094-0.479-0.041-0.97-0.036-1.453z"></path>
<path fill="#d40000" d="M10.972 14.274c0.203 0.002 0.406 0.004 0.608 0.004 0.004 0.48 0.046 0.964-0.030 1.439-0.181 0.024-0.361 0.024-0.541 0-0.097-0.475-0.038-0.962-0.037-1.442z"></path>
<path fill="#323232" opacity="0.91" d="M4.432 2.816c0.022-0.28 0.286-0.427 0.541-0.436-0.132 0.198-0.318 0.35-0.541 0.436z"></path>
<path fill="#303030" opacity="0.9" d="M19.027 2.382c0.256 0.008 0.52 0.156 0.544 0.436-0.224-0.085-0.412-0.238-0.544-0.436z"></path>
<path fill="#323232" opacity="0.88" d="M2.839 4.393c0.334-0.654 0.899-1.213 1.548-1.555-0.511 0.524-1.032 1.037-1.548 1.555z"></path>
<path fill="#313131" opacity="0.87" d="M19.613 2.839c0.65 0.34 1.21 0.901 1.549 1.552-0.521-0.512-1.037-1.030-1.549-1.552z"></path>
<path fill="#2f2f2f" opacity="0.9" d="M21.184 4.432c0.277 0.025 0.431 0.287 0.434 0.545-0.199-0.133-0.347-0.323-0.434-0.545z"></path>
<path fill="#252525" opacity="0.88" d="M2.38 4.967c-0.001-0.208 0.125-0.394 0.332-0.442-0.040 0.191-0.161 0.349-0.332 0.442z"></path>
<path fill="#212121" opacity="0.82" d="M0.738 8.141c0.094-0.802 0.46-1.619 1.013-2.207-0.361 0.725-0.703 1.458-1.013 2.207z"></path>
<path fill="#1a1a1a" opacity="0.84" d="M0 10.824c0.228-0.824 0.176-1.758 0.668-2.488-0.817 2.707-0.689 5.651 0.355 8.279-0.701-0.992-0.745-2.275-1.024-3.425v-2.366z"></path>
<path fill="#212121" opacity="0.83" d="M1.081 16.734c0.244 0.434 0.469 0.878 0.676 1.332-0.394-0.33-0.623-0.827-0.676-1.332z"></path>
<path fill="#212121" opacity="0.84" d="M22.378 17.83c0.154-0.378 0.334-0.744 0.54-1.097-0.025 0.424-0.209 0.827-0.54 1.097z"></path>
<path fill="#2c2c2c" opacity="0.91" d="M22.022 18.383c0.052-0.173 0.149-0.328 0.287-0.444 0.032 0.191-0.052 0.454-0.287 0.444z"></path>
<path fill="#232323" opacity="0.82" d="M21.174 19.596c0.23-0.388 0.499-0.75 0.798-1.086-0.126 0.445-0.406 0.836-0.798 1.086z"></path>
<path fill="#2b2b2b" opacity="0.87" d="M2.386 19.024c0.203 0.131 0.347 0.326 0.43 0.552-0.269-0.049-0.433-0.286-0.43-0.552z"></path>
<path fill="#2a2a2a" opacity="0.85" d="M2.837 19.608c0.522 0.514 1.045 1.026 1.555 1.553-0.655-0.337-1.216-0.9-1.555-1.553z"></path>
<path fill="#2c2c2c" opacity="0.86" d="M19.728 21.044c0.47-0.474 0.93-0.958 1.415-1.416-0.302 0.598-0.805 1.127-1.415 1.416z"></path>
<path fill="#282828" opacity="0.87" d="M4.421 21.182c0.217 0.084 0.418 0.212 0.542 0.414-0.269 0.036-0.49-0.158-0.542-0.414z"></path>
<path fill="#222" opacity="0.82" d="M18.509 21.974c0.34-0.305 0.707-0.578 1.099-0.812-0.253 0.397-0.65 0.68-1.099 0.812z"></path>
<path fill="#2a2a2a" opacity="0.91" d="M17.938 22.304c0.121-0.132 0.271-0.234 0.446-0.281 0.006 0.234-0.254 0.318-0.446 0.281z"></path>
</svg>
