<!-- Generated by IcoMoon.io -->
<svg version="1.1" xmlns="http://www.w3.org/2000/svg" width="24" height="24" viewBox="0 0 24 24">
<title>regulatory--maximum-speed-limit-led-100--g1</title>
<path fill="#000" d="M0 0h11c-0.547 0.080-1.098 0.137-1.637 0.266-2.874 0.633-5.478 2.38-7.174 4.784-1.255 1.741-1.983 3.829-2.19 5.959v-11.008z"></path>
<path fill="#000" d="M12.991 0h11.009v11.001c-0.21-2.127-0.936-4.213-2.19-5.952-1.688-2.392-4.275-4.135-7.134-4.775-0.554-0.134-1.122-0.195-1.685-0.275z"></path>
<path fill="#000" d="M11.409 1.195c1.869-0.105 3.765 0.286 5.438 1.128 2.525 1.256 4.515 3.54 5.408 6.216 0.929 2.722 0.707 5.812-0.61 8.37-1.278 2.529-3.59 4.513-6.289 5.381-1.909 0.623-3.993 0.702-5.942 0.218-2.859-0.689-5.387-2.611-6.828-5.173-1.601-2.783-1.849-6.29-0.666-9.273 1.020-2.636 3.12-4.828 5.709-5.962 1.192-0.528 2.479-0.835 3.78-0.905M6.363 7.62c-0.116 0.479-0.211 1-0.555 1.377-0.383 0.338-0.915 0.377-1.393 0.48-0.002 0.288-0.002 0.577 0 0.865 0.542 0.004 1.085 0.001 1.628 0.002 0 2.197-0 4.394 0 6.591 0.318 0 0.636 0 0.953-0 0-3.105 0-6.21 0-9.315-0.211-0.001-0.423-0.001-0.634 0M11.691 7.616c-0.603 0.058-1.094 0.493-1.403 0.988-0.404 0.656-0.54 1.432-0.647 2.183-0.125 1.089-0.123 2.194 0.001 3.283 0.114 0.843 0.302 1.72 0.829 2.41 0.362 0.486 0.967 0.775 1.574 0.732 0.683 0.009 1.298-0.431 1.625-1.011 0.523-0.899 0.653-1.961 0.716-2.981 0.031-1.511 0.029-3.107-0.658-4.493-0.356-0.754-1.199-1.258-2.037-1.111M17.544 7.604c-0.948 0.047-1.599 0.914-1.859 1.753-0.456 1.52-0.466 3.14-0.303 4.707 0.12 0.902 0.327 1.857 0.947 2.558 0.627 0.714 1.822 0.795 2.553 0.197 0.442-0.358 0.707-0.884 0.884-1.414 0.309-0.961 0.374-1.98 0.376-2.983-0.007-1.040-0.080-2.095-0.413-3.088-0.178-0.517-0.436-1.035-0.885-1.368-0.365-0.286-0.842-0.402-1.3-0.362z"></path>
<path fill="#000" d="M11.832 8.697c0.597-0.11 1.065 0.405 1.236 0.924 0.402 1.15 0.372 2.394 0.34 3.596-0.059 0.845-0.106 1.746-0.561 2.486-0.239 0.402-0.758 0.614-1.204 0.451-0.377-0.134-0.599-0.504-0.737-0.858-0.26-0.692-0.316-1.439-0.359-2.171-0.016-1.135-0.039-2.3 0.309-3.393 0.151-0.457 0.451-0.967 0.975-1.035z"></path>
<path fill="#000" d="M17.55 8.7c0.492-0.098 0.953 0.244 1.147 0.678 0.381 0.783 0.42 1.673 0.467 2.527 0.020 0.858-0.006 1.722-0.146 2.57-0.096 0.505-0.226 1.039-0.586 1.426-0.332 0.363-0.953 0.417-1.329 0.092-0.323-0.282-0.477-0.701-0.586-1.104-0.213-0.851-0.241-1.734-0.24-2.608 0.015-0.887 0.052-1.795 0.351-2.639 0.153-0.421 0.442-0.873 0.922-0.943z"></path>
<path fill="#000" d="M0 13c0.084 0.587 0.149 1.177 0.292 1.754 0.659 2.851 2.415 5.423 4.814 7.095 1.729 1.232 3.797 1.945 5.904 2.151h-11.010v-11z"></path>
<path fill="#000" d="M23.724 14.676c0.135-0.555 0.195-1.123 0.276-1.687v11.011h-11.002c2.128-0.209 4.212-0.937 5.952-2.19 2.392-1.688 4.134-4.275 4.774-7.134z"></path>
<path fill="#f00" d="M11 0h1.991c0.563 0.080 1.131 0.141 1.685 0.275 2.859 0.639 5.446 2.383 7.134 4.775 1.253 1.739 1.979 3.825 2.19 5.952v1.988c-0.081 0.564-0.141 1.132-0.276 1.687-0.64 2.859-2.382 5.446-4.774 7.134-1.74 1.253-3.824 1.981-5.952 2.19h-1.988c-2.107-0.206-4.175-0.918-5.904-2.151-2.399-1.672-4.155-4.245-4.814-7.095-0.143-0.577-0.209-1.167-0.292-1.754v-1.992c0.206-2.13 0.934-4.218 2.19-5.959 1.695-2.403 4.299-4.15 7.174-4.784 0.539-0.128 1.090-0.186 1.637-0.266M11.409 1.195c-1.301 0.070-2.589 0.377-3.78 0.905-2.589 1.133-4.69 3.325-5.709 5.962-1.183 2.984-0.935 6.49 0.666 9.273 1.441 2.562 3.969 4.484 6.828 5.173 1.95 0.484 4.033 0.405 5.942-0.218 2.699-0.868 5.011-2.852 6.289-5.381 1.317-2.558 1.538-5.648 0.61-8.37-0.893-2.676-2.882-4.96-5.408-6.216-1.672-0.842-3.569-1.233-5.438-1.128z"></path>
<path fill="#fff" d="M6.363 7.62c0.211-0.001 0.422-0.001 0.634 0-0 3.105 0 6.21-0 9.315-0.318 0-0.636 0-0.953 0-0-2.197 0-4.394 0-6.591-0.542-0.001-1.085 0.002-1.628-0.002-0.002-0.288-0.002-0.577 0-0.865 0.478-0.103 1.010-0.142 1.393-0.48 0.343-0.377 0.438-0.898 0.555-1.377z"></path>
<path fill="#fff" d="M11.691 7.616c0.838-0.147 1.681 0.357 2.037 1.111 0.687 1.386 0.69 2.981 0.658 4.492-0.063 1.020-0.193 2.082-0.716 2.981-0.327 0.58-0.942 1.020-1.625 1.011-0.607 0.043-1.212-0.246-1.574-0.732-0.527-0.69-0.715-1.567-0.829-2.41-0.124-1.089-0.127-2.194-0.001-3.283 0.107-0.751 0.243-1.527 0.647-2.183 0.309-0.495 0.8-0.93 1.403-0.988M11.832 8.697c-0.525 0.067-0.824 0.577-0.975 1.035-0.348 1.094-0.325 2.258-0.309 3.393 0.042 0.732 0.098 1.479 0.359 2.171 0.139 0.354 0.36 0.724 0.737 0.858 0.446 0.162 0.965-0.049 1.204-0.451 0.455-0.74 0.502-1.642 0.561-2.486 0.032-1.201 0.062-2.445-0.34-3.596-0.17-0.519-0.639-1.034-1.236-0.924z"></path>
<path fill="#fff" d="M17.544 7.604c0.458-0.040 0.935 0.076 1.3 0.362 0.449 0.333 0.707 0.852 0.885 1.368 0.333 0.992 0.406 2.048 0.413 3.088-0.003 1.003-0.067 2.022-0.376 2.983-0.177 0.531-0.442 1.056-0.884 1.414-0.731 0.598-1.926 0.517-2.553-0.197-0.62-0.701-0.826-1.656-0.947-2.558-0.163-1.567-0.152-3.187 0.303-4.707 0.26-0.84 0.911-1.706 1.859-1.753M17.55 8.7c-0.48 0.069-0.77 0.522-0.922 0.943-0.299 0.844-0.335 1.752-0.351 2.639-0.001 0.873 0.027 1.757 0.24 2.608 0.109 0.403 0.263 0.822 0.586 1.104 0.376 0.325 0.997 0.271 1.329-0.092 0.36-0.387 0.49-0.921 0.586-1.426 0.14-0.848 0.165-1.711 0.146-2.57-0.047-0.854-0.087-1.744-0.467-2.527-0.194-0.435-0.654-0.776-1.147-0.678z"></path>
</svg>
