<!-- Generated by IcoMoon.io -->
<svg version="1.1" xmlns="http://www.w3.org/2000/svg" width="24" height="24" viewBox="0 0 24 24">
<title>regulatory--no-vehicles-carrying-dangerous-water-pollutants--g1</title>
<path fill="#da251d" d="M10.559 0h2.886c3.015 0.462 5.947 1.936 7.858 4.352 1.479 1.759 2.333 3.956 2.697 6.206v2.888c-0.612 4.623-3.978 8.85-8.541 10.069-0.692 0.032-1.351 0.276-2.043 0.32-3.901 0.469-7.963-1.145-10.497-4.146-0.524-0.538-0.842-1.238-1.369-1.771-0.008-0.014-0.023-0.042-0.030-0.057-0.089-0.4-0.279-0.768-0.55-1.077-0.301-0.542-0.448-1.156-0.62-1.749 0.114-0.184 0.056-0.41-0.080-0.563l-0.055-0.077c0.14-0.177 0.048-0.41-0.070-0.568-0.015-0.055-0.043-0.164-0.058-0.218 0.177-0.25 0.057-0.56-0.088-0.791v-2.277c0.438-2.834 1.769-5.585 3.937-7.493 1.835-1.667 4.189-2.665 6.622-3.046M10.838 1.705c-3.738 0.417-7.088 3.111-8.33 6.657-1.135 3.126-0.626 6.803 1.374 9.47 2.065 2.86 5.695 4.5 9.206 4.107 3.784-0.319 7.227-2.978 8.533-6.536 1.058-2.767 0.82-5.995-0.646-8.57-1.935-3.549-6.128-5.688-10.137-5.128z"></path>
<path fill="#fff" d="M10.838 1.705c4.009-0.56 8.202 1.578 10.137 5.128 1.467 2.575 1.704 5.803 0.646 8.57-1.307 3.558-4.749 6.217-8.533 6.536-3.511 0.394-7.142-1.247-9.206-4.107-2-2.668-2.509-6.344-1.374-9.47 1.242-3.545 4.592-6.24 8.33-6.657M10.72 3.757c-1.464 0.26-3.098 0.83-3.848 2.216-0.554 1.060 0.154 2.265 1.076 2.837 1.868 1.209 4.255 1.38 6.395 0.949 1.316-0.303 2.761-0.888 3.402-2.161 0.507-0.982-0.098-2.114-0.928-2.692-1.746-1.234-4.030-1.462-6.097-1.148M6.489 9.662c-0.061 0.448-0.022 0.9-0.034 1.351 3.851 0.027 7.704 0.005 11.556 0.011 0.001-0.448 0.003-0.897-0.003-1.343-0.495 0.004-0.992-0.019-1.487 0.006-0.488 0.174-0.842 0.71-1.406 0.632-1.991-0.010-3.982 0.024-5.972 0.004-0.754-0.64-1.683-0.842-2.654-0.662M6.629 11.464c-0.008 1.317-0.003 2.632-0.004 3.948 0.409 0.008 0.818 0.008 1.227 0.001-0.001-1.317 0.003-2.632-0.003-3.948-0.406-0.003-0.814-0.003-1.22-0.001M8.309 11.483c-0.001 1.323 0.008 2.645 0.010 3.97 0.385 0.006 0.77 0.006 1.154 0 0.006-0.504-0.005-1.007 0.008-1.511 0.573-0.004 1.145 0.001 1.719 0 0.419 0.86 1.702 0.862 2.124 0.003 0.549-0.006 1.097-0.004 1.647-0.004 0.058 0.491 0.023 0.985 0.030 1.478 0.397 0.003 0.796 0.003 1.194 0.009 0.036-1.314 0.008-2.631 0.014-3.947-0.413-0.004-0.825-0.004-1.238 0.005-0.022 0.502-0.005 1.004-0.011 1.507-0.551 0.008-1.101 0.003-1.652 0.006-0.428-0.83-1.693-0.847-2.104 0.008-0.575-0.003-1.15 0.005-1.726-0.003-0.010-0.507-0.004-1.015-0.016-1.521-0.385-0.006-0.77-0.006-1.153 0M16.653 11.468c0 1.314 0 2.63 0 3.944 0.427 0.006 0.855 0.008 1.281-0.001 0.006-1.314 0.004-2.629 0.001-3.942-0.428-0.008-0.855-0.006-1.283-0.001M5.943 16.866c-0.107 0.189-0.022 0.43-0.039 0.64 0.561-0.446 1.22-0.838 1.961-0.829 1.322-0.114 2.396 0.871 3.684 0.961 1.252 0.156 2.47-0.239 3.605-0.726 1.152-0.49 2.476-0.175 3.422 0.599 0-0.215 0.001-0.428 0.004-0.643-0.498-0.372-1.088-0.623-1.686-0.778-1.255-0.194-2.296 0.645-3.473 0.881-1.074 0.23-2.196 0.070-3.238-0.235-0.73-0.212-1.394-0.692-2.183-0.664-0.762-0.033-1.457 0.364-2.056 0.794M5.898 18.105c-0.001 0.202-0.001 0.405 0.001 0.608 0.522-0.357 1.064-0.747 1.718-0.792 1.542-0.263 2.791 1.041 4.316 0.96 1.112 0.079 2.168-0.306 3.175-0.729 1.161-0.485 2.517-0.212 3.468 0.59 0.001-0.232-0.001-0.465-0.013-0.696-1.043-0.719-2.415-1.023-3.578-0.395-1.827 0.963-4.039 0.777-5.858-0.104-1.081-0.536-2.325-0.138-3.229 0.557z"></path>
<path fill="#fff" d="M0 12.817c0.145 0.231 0.264 0.541 0.088 0.791l-0.088-0.046v-0.745z"></path>
<path fill="#fff" d="M0.27 14.471c0.136 0.152 0.194 0.378 0.080 0.563-0.152-0.151-0.132-0.373-0.080-0.563z"></path>
<path fill="#fff" d="M0.97 16.782c0.27 0.309 0.461 0.677 0.55 1.077-0.277-0.302-0.451-0.681-0.55-1.077z"></path>
<path fill="#fff" d="M1.55 17.916c0.527 0.533 0.844 1.233 1.369 1.771 2.533 3.001 6.596 4.615 10.497 4.146 0.692-0.044 1.351-0.288 2.043-0.32-0.631 0.305-1.36 0.258-2.005 0.486h-2.928c-3.677-0.557-7.241-2.715-8.975-6.084z"></path>
<path fill="#1c1714" d="M10.72 3.757c2.066-0.314 4.35-0.086 6.097 1.148 0.83 0.578 1.435 1.71 0.928 2.692-0.641 1.274-2.086 1.858-3.402 2.161-2.14 0.432-4.527 0.26-6.395-0.949-0.922-0.571-1.629-1.777-1.076-2.837 0.749-1.385 2.384-1.956 3.848-2.216M10.836 3.98c-1.487 0.258-3.286 0.83-3.858 2.383-0.347 1.38 1.016 2.375 2.146 2.804 2.439 0.889 5.416 0.827 7.595-0.693 0.969-0.613 1.333-2.061 0.46-2.916-1.624-1.629-4.169-1.872-6.343-1.578z"></path>
<path fill="#1c1714" d="M6.489 9.662c0.971-0.18 1.9 0.022 2.654 0.662 1.99 0.020 3.981-0.014 5.972-0.004 0.564 0.077 0.918-0.458 1.406-0.632 0.495-0.025 0.992-0.003 1.487-0.006 0.005 0.447 0.004 0.895 0.003 1.343-3.851-0.006-7.704 0.015-11.556-0.011 0.013-0.451-0.027-0.903 0.034-1.351z"></path>
<path fill="#fff503" d="M10.836 3.98c2.174-0.293 4.719-0.051 6.343 1.578 0.874 0.855 0.509 2.302-0.46 2.916-2.179 1.52-5.156 1.582-7.595 0.693-1.13-0.429-2.493-1.423-2.146-2.804 0.571-1.553 2.371-2.126 3.858-2.383z"></path>
<path fill="#1f1a17" d="M6.629 11.464c0.406-0.001 0.814-0.001 1.22 0.001 0.005 1.316 0.001 2.631 0.003 3.948-0.409 0.006-0.818 0.006-1.227-0.001 0.001-1.316-0.004-2.631 0.004-3.948z"></path>
<path fill="#1f1a14" d="M8.309 11.483c0.383-0.006 0.768-0.006 1.153 0 0.013 0.507 0.006 1.015 0.016 1.521 0.575 0.008 1.15 0 1.726 0.003 0.411-0.855 1.676-0.838 2.104-0.008 0.551-0.004 1.101 0.001 1.652-0.006 0.006-0.503-0.010-1.006 0.011-1.507 0.413-0.009 0.825-0.009 1.238-0.005-0.006 1.316 0.022 2.632-0.014 3.947-0.397-0.006-0.796-0.006-1.194-0.009-0.008-0.493 0.028-0.987-0.030-1.478-0.55 0-1.098-0.003-1.647 0.004-0.423 0.86-1.705 0.857-2.124-0.003-0.574 0.001-1.147-0.004-1.719 0-0.013 0.504-0.001 1.007-0.008 1.511-0.385 0.006-0.77 0.006-1.154 0-0.003-1.324-0.011-2.646-0.010-3.97z"></path>
<path fill="#1e1914" d="M16.653 11.468c0.428-0.005 0.855-0.006 1.283 0.001 0.003 1.313 0.005 2.627-0.001 3.942-0.427 0.009-0.855 0.008-1.281 0.001 0-1.314 0-2.63 0-3.944z"></path>
<path fill="#f2afad" d="M0.146 13.826c0.118 0.157 0.21 0.391 0.070 0.568-0.147-0.156-0.121-0.38-0.070-0.568z"></path>
<path fill="#035ba1" d="M5.943 16.866c0.599-0.429 1.294-0.827 2.056-0.794 0.789-0.028 1.453 0.452 2.183 0.664 1.043 0.305 2.164 0.465 3.238 0.235 1.177-0.236 2.218-1.076 3.473-0.881 0.598 0.155 1.189 0.406 1.686 0.778-0.003 0.215-0.004 0.428-0.004 0.643-0.946-0.775-2.27-1.090-3.422-0.599-1.135 0.488-2.353 0.883-3.605 0.726-1.288-0.090-2.362-1.076-3.684-0.961-0.74-0.009-1.399 0.383-1.961 0.829 0.018-0.21-0.067-0.451 0.039-0.64z"></path>
<path fill="#035ba1" d="M5.898 18.105c0.904-0.696 2.149-1.093 3.229-0.557 1.818 0.881 4.030 1.067 5.858 0.104 1.163-0.629 2.536-0.324 3.578 0.395 0.011 0.231 0.014 0.463 0.013 0.696-0.951-0.803-2.307-1.076-3.468-0.59-1.007 0.423-2.062 0.808-3.175 0.729-1.525 0.081-2.775-1.223-4.316-0.96-0.654 0.046-1.196 0.436-1.718 0.792-0.003-0.203-0.003-0.406-0.001-0.608z"></path>
</svg>
