<svg xmlns="http://www.w3.org/2000/svg" width="24" height="24">
    <path fill="#037863" d="M10.679 0h2.597c4.72.531 8.966 3.994 10.26 8.589.211.689.312 1.406.465 2.111v2.566c-.525 4.723-3.992 8.974-8.589 10.269-.691.211-1.406.312-2.111.465h-2.567c-4.723-.526-8.973-3.993-10.269-8.588-.209-.684-.313-1.392-.463-2.09v-2.63C.333 8.365 1.224 6.096 2.76 4.298 4.714 1.898 7.636.416 10.681 0zm-.105 2.578c-3.141.466-5.951 2.626-7.243 5.523-1.349 2.922-1.085 6.521.693 9.207 2.347 3.76 7.447 5.422 11.554 3.739 4.378-1.608 7.058-6.672 5.882-11.196-1.022-4.772-6.079-8.167-10.886-7.273z"/>
    <path fill="#fff" d="M10.574 2.578c4.807-.894 9.864 2.501 10.886 7.273 1.176 4.524-1.505 9.587-5.882 11.196-4.107 1.683-9.207.021-11.554-3.739-1.778-2.686-2.042-6.285-.693-9.207 1.293-2.897 4.102-5.057 7.244-5.523zm-7.528 9.494c3.022 3.013 6.031 6.041 9.05 9.055 3.016-3.022 6.035-6.038 9.054-9.057a3356.303 3356.303 0 0 0-9.054-9.043c-3.025 3.006-6.036 6.025-9.05 9.044z"/>
    <path fill="#030303" d="M3.046 12.072c3.013-3.019 6.025-6.038 9.05-9.044 3.025 3.008 6.041 6.024 9.054 9.043-3.019 3.019-6.038 6.035-9.054 9.057-3.019-3.015-6.028-6.042-9.05-9.055z"/>
</svg>
