<!-- Generated by IcoMoon.io -->
<svg version="1.1" xmlns="http://www.w3.org/2000/svg" width="24" height="24" viewBox="0 0 24 24">
<title>regulatory--maximum-speed-limit-led-50--g2</title>
<path fill="#fff" d="M3.126 0h17.745c0.489 0.153 0.757 0.684 0.747 1.172 0.001 7.218 0.001 14.437 0 21.656 0.009 0.487-0.259 1.017-0.746 1.172h-17.741c-0.49-0.152-0.758-0.684-0.749-1.172-0.001-7.218-0.001-14.437 0-21.655-0.010-0.488 0.258-1.016 0.744-1.172M3.629 0.592c-0.47 0.097-0.751 0.593-0.764 1.045-0.002 6.892 0 13.785-0.001 20.678-0.001 0.403 0.195 0.828 0.56 1.023 0.2 0.109 0.435 0.087 0.654 0.088 5.376-0.001 10.752 0 16.128-0.001 0.549 0.006 0.92-0.555 0.928-1.061 0.003-6.892 0-13.785 0.001-20.678 0-0.403-0.195-0.829-0.561-1.023-0.215-0.117-0.466-0.084-0.7-0.088-5.345 0-10.689 0.001-16.033 0-0.071 0.001-0.143 0.003-0.213 0.017z"></path>
<path fill="#fff" d="M4.049 1.195c0.070-0.017 0.143-0.019 0.215-0.020 5.063 0.001 10.126 0 15.189 0 0.233 0.003 0.486-0.030 0.696 0.097 0.355 0.203 0.517 0.629 0.513 1.022-0.001 6.486 0.001 12.973-0.001 19.459 0.006 0.495-0.332 1.065-0.875 1.070-5.19 0.001-10.38 0.001-15.57 0-0.544-0.004-0.882-0.575-0.876-1.070-0.001-6.502-0.001-13.005 0-19.507 0.001-0.444 0.25-0.94 0.71-1.051M5.234 3.031c-0.306 0.306-0.289 0.879 0.057 1.148 0.342 0.283 0.821 0.299 1.174 0.557 0.225 0.161 0.14 0.551-0.121 0.622-0.371 0.142-0.783-0.083-0.931-0.436-0.172 0.066-0.345 0.127-0.517 0.195 0.223 0.798 1.305 1.075 1.938 0.591 0.407-0.306 0.456-0.979 0.088-1.334-0.33-0.321-0.814-0.363-1.2-0.584-0.162-0.087-0.177-0.336-0.022-0.438 0.282-0.181 0.699-0.064 0.847 0.238 0.165-0.058 0.331-0.113 0.498-0.168-0.194-0.766-1.297-0.912-1.81-0.391M7.933 2.775c-0.007 1.041 0.001 2.083-0.005 3.124 0.187-0.003 0.374-0.002 0.561-0.001 0.005-0.391 0-0.781 0.003-1.172 0.443-0.028 0.93 0.089 1.33-0.157 0.507-0.302 0.593-1.082 0.196-1.507-0.213-0.221-0.533-0.29-0.83-0.29-0.419 0.001-0.837-0.004-1.255 0.003M10.892 2.778c-0.008 1.040-0.001 2.079-0.004 3.119 0.71-0.002 1.42 0.002 2.13-0.002 0.003-0.18 0.004-0.36-0.001-0.54-0.521-0.007-1.043 0-1.564-0.004-0-0.262-0.001-0.524 0-0.786 0.301-0 0.603 0.001 0.904-0.001 0.005-0.178 0.004-0.355 0.003-0.532-0.303-0.002-0.606 0-0.908-0.001 0-0.237 0-0.474 0-0.712 0.49-0.002 0.979 0.002 1.469-0.002 0.003-0.18 0.004-0.36-0-0.54-0.677-0.004-1.353-0.005-2.030 0.001M13.745 2.778c-0.007 1.040 0.002 2.080-0.004 3.12 0.71-0.006 1.42 0.003 2.13-0.005 0.006-0.18 0.005-0.36 0.001-0.539-0.522-0.006-1.045-0-1.567-0.003-0.001-0.262-0.001-0.525 0-0.787 0.301-0 0.603 0 0.904-0 0.009-0.178 0.008-0.355 0.006-0.533-0.304-0.002-0.607 0-0.911-0.001 0-0.237-0-0.474 0-0.712 0.49-0.003 0.981 0.005 1.47-0.004 0.004-0.179 0.004-0.359 0-0.538-0.677-0.003-1.353-0.005-2.030 0.001M16.587 2.775c-0.002 1.041-0.004 2.082 0.001 3.122 0.655-0.032 1.415 0.136 1.956-0.336 0.648-0.603 0.658-1.773 0.048-2.406-0.536-0.516-1.333-0.356-2.005-0.381M6.353 7.419c-0.006 1.038-0.002 2.076-0.002 3.114 0.682 0.002 1.364 0.001 2.046 0.001 0.001-0.182 0.001-0.364-0-0.546-0.494-0.005-0.987 0-1.48-0.002-0.003-0.855 0.003-1.711-0.003-2.566-0.187-0.004-0.373-0.004-0.56 0M9.038 7.418c-0.003 1.039-0.001 2.078-0.001 3.117 0.188 0 0.376 0.001 0.565-0.002 0.003-1.039 0.004-2.077 0-3.116-0.188-0.004-0.376-0.004-0.564 0.001M10.516 7.418c-0.007 1.039-0.002 2.078-0.002 3.116 0.187 0.001 0.375 0.001 0.563 0 0.002-0.624 0.005-1.248-0.003-1.873 0.275 0.655 0.567 1.302 0.854 1.951 0.283-0.652 0.593-1.295 0.85-1.958-0.014 0.626-0.003 1.253-0.006 1.879 0.188 0.001 0.376 0.001 0.564-0.001 0.003-1.039 0.005-2.078-0.001-3.117-0.18-0.002-0.36-0.001-0.539 0-0.29 0.665-0.595 1.323-0.864 1.996-0.26-0.674-0.575-1.325-0.85-1.992-0.188-0.008-0.377-0.007-0.565-0.002M14.254 7.415c-0.001 1.041 0.001 2.081-0.001 3.121 0.185-0.002 0.37-0.001 0.555-0-0.001-1.040 0.001-2.080-0.001-3.12-0.185-0.002-0.369-0.002-0.553-0.001M15.528 7.41c-0.003 0.181-0.003 0.363 0 0.544 0.29 0.003 0.58 0 0.87 0.002 0.001 0.859-0 1.718 0.001 2.577 0.188 0.001 0.375 0.001 0.563-0 0.003-0.859-0-1.717 0.001-2.577 0.288-0.001 0.577 0 0.865-0 0.001-0.182 0.001-0.365-0.001-0.547-0.766-0.001-1.532-0.003-2.299 0.001M5.197 11.554c-0.195 0.063-0.417 0.213-0.409 0.442 0.001 2.892-0.002 5.784 0.001 8.677 0.037 0.318 0.41 0.453 0.691 0.454 4.346 0.001 8.692 0.001 13.038 0 0.28-0.001 0.653-0.136 0.69-0.454 0.004-2.892 0.001-5.785 0.002-8.677-0.001-0.296-0.324-0.444-0.577-0.477-0.543-0.045-1.091 0.018-1.633-0.034-0.016 0-0.048 0-0.064 0-0.399 0.032-0.803 0.031-1.202 0-0.016-0-0.047-0.001-0.063-0.001-0.399 0.033-0.803 0.031-1.203 0.001-0.016-0-0.047-0.001-0.063-0.002-1.258 0.035-2.522 0.033-3.78 0.001-0.016 0-0.047-0-0.063-0-0.399 0.032-0.803 0.032-1.202 0.001-0.016-0-0.048-0.001-0.064-0.001-0.399 0.034-0.803 0.031-1.202 0.002-0.016-0-0.047-0.001-0.063-0.002-0.412 0.033-0.83 0.033-1.242 0l-0.030 0c-0.412 0.033-0.829 0.032-1.241 0-0.112-0.023-0.22 0.027-0.32 0.069z"></path>
<path fill="#fff" d="M8.492 3.319c0.293 0.008 0.59-0.019 0.881 0.013 0.393 0.074 0.416 0.717 0.036 0.825-0.303 0.044-0.612 0.009-0.917 0.019-0.001-0.286-0.001-0.572 0-0.858z"></path>
<path fill="#fff" d="M17.147 3.318c0.356 0.010 0.79-0.075 1.052 0.234 0.348 0.442 0.347 1.16-0.031 1.584-0.264 0.282-0.675 0.209-1.020 0.216-0.001-0.678 0-1.356-0-2.034z"></path>
<path fill="#000" d="M3.629 0.592c0.070-0.014 0.142-0.016 0.213-0.017 5.344 0.001 10.688 0 16.033 0 0.234 0.004 0.486-0.029 0.7 0.088 0.366 0.194 0.561 0.62 0.561 1.023-0.001 6.893 0.001 13.785-0.001 20.678-0.008 0.505-0.379 1.067-0.928 1.061-5.376 0.001-10.752 0-16.128 0.001-0.219-0.001-0.454 0.021-0.654-0.088-0.365-0.195-0.561-0.62-0.56-1.023 0.001-6.892-0.001-13.785 0.001-20.678 0.013-0.453 0.294-0.948 0.764-1.045M4.049 1.195c-0.46 0.112-0.708 0.607-0.71 1.051-0.001 6.502-0.001 13.005 0 19.507-0.007 0.495 0.332 1.066 0.876 1.070 5.19 0.001 10.38 0.001 15.57 0 0.543-0.004 0.881-0.575 0.875-1.070 0.002-6.486 0-12.973 0.001-19.459 0.004-0.393-0.158-0.82-0.513-1.022-0.21-0.127-0.462-0.094-0.696-0.097-5.063 0-10.126 0-15.189-0-0.072 0.001-0.145 0.003-0.215 0.020z"></path>
<path fill="#000" d="M5.234 3.031c0.514-0.521 1.617-0.375 1.81 0.391-0.166 0.055-0.332 0.11-0.498 0.168-0.148-0.302-0.565-0.419-0.847-0.238-0.154 0.102-0.14 0.352 0.023 0.438 0.386 0.221 0.87 0.263 1.2 0.584 0.368 0.355 0.319 1.028-0.088 1.334-0.633 0.485-1.715 0.208-1.938-0.591 0.171-0.068 0.345-0.13 0.517-0.195 0.148 0.352 0.56 0.577 0.931 0.436 0.261-0.071 0.347-0.461 0.121-0.622-0.353-0.258-0.832-0.274-1.174-0.557-0.346-0.27-0.363-0.843-0.057-1.148z"></path>
<path fill="#000" d="M7.933 2.775c0.418-0.007 0.836-0.002 1.255-0.003 0.296-0 0.617 0.069 0.83 0.29 0.397 0.425 0.311 1.205-0.196 1.507-0.4 0.245-0.887 0.129-1.33 0.157-0.002 0.391 0.002 0.781-0.003 1.172-0.187-0.001-0.374-0.002-0.561 0.001 0.006-1.041-0.002-2.083 0.005-3.124M8.492 3.319c-0.001 0.286-0.001 0.572 0 0.858 0.305-0.010 0.614 0.025 0.917-0.019 0.381-0.108 0.358-0.752-0.036-0.825-0.292-0.032-0.588-0.005-0.881-0.013z"></path>
<path fill="#000" d="M10.892 2.778c0.676-0.006 1.353-0.005 2.030-0.001 0.004 0.18 0.004 0.36 0 0.54-0.49 0.004-0.979 0-1.469 0.002 0 0.237 0 0.474 0 0.712 0.303 0.002 0.606-0.001 0.908 0.001 0.001 0.178 0.001 0.355-0.003 0.532-0.301 0.002-0.603 0-0.904 0.001-0.002 0.262-0.001 0.524-0 0.786 0.521 0.004 1.042-0.003 1.564 0.004 0.005 0.18 0.004 0.36 0.001 0.54-0.71 0.004-1.42 0-2.13 0.002 0.003-1.040-0.005-2.079 0.004-3.119z"></path>
<path fill="#000" d="M13.745 2.778c0.677-0.007 1.353-0.004 2.030-0.001 0.004 0.18 0.004 0.359-0 0.538-0.49 0.009-0.98 0.001-1.47 0.004-0.001 0.237-0 0.474-0 0.712 0.304 0.001 0.607-0.001 0.911 0.001 0.001 0.178 0.003 0.355-0.006 0.533-0.301 0.001-0.603 0-0.904 0-0.001 0.262-0.001 0.525 0 0.787 0.522 0.002 1.045-0.003 1.567 0.003 0.004 0.18 0.005 0.36-0.001 0.539-0.71 0.007-1.42-0.001-2.13 0.005 0.006-1.040-0.002-2.080 0.004-3.12z"></path>
<path fill="#000" d="M16.587 2.775c0.673 0.025 1.469-0.135 2.005 0.381 0.61 0.633 0.6 1.802-0.048 2.406-0.541 0.473-1.301 0.304-1.956 0.336-0.005-1.041-0.003-2.082-0.001-3.122M17.147 3.318c0.001 0.678-0.001 1.356 0 2.034 0.345-0.007 0.757 0.067 1.020-0.216 0.378-0.424 0.379-1.142 0.031-1.584-0.262-0.309-0.696-0.224-1.052-0.234z"></path>
<path fill="#000" d="M6.353 7.419c0.187-0.004 0.373-0.004 0.56 0 0.007 0.855 0 1.711 0.003 2.566 0.494 0.003 0.987-0.002 1.48 0.002 0.002 0.182 0.001 0.364 0 0.546-0.682 0-1.364 0.001-2.046-0.001-0-1.038-0.004-2.076 0.002-3.114z"></path>
<path fill="#000" d="M9.038 7.418c0.188-0.005 0.376-0.005 0.564-0.001 0.004 1.039 0.003 2.077 0 3.116-0.188 0.003-0.376 0.002-0.565 0.002-0-1.039-0.002-2.078 0.001-3.117z"></path>
<path fill="#000" d="M10.516 7.418c0.188-0.005 0.376-0.007 0.565 0.002 0.276 0.667 0.591 1.318 0.85 1.992 0.269-0.673 0.575-1.332 0.864-1.996 0.18-0.001 0.359-0.002 0.539 0 0.006 1.039 0.004 2.078 0.001 3.117-0.188 0.003-0.376 0.002-0.564 0.001 0.003-0.626-0.008-1.253 0.006-1.879-0.258 0.663-0.567 1.305-0.85 1.958-0.287-0.649-0.579-1.297-0.854-1.951 0.008 0.624 0.005 1.249 0.003 1.873-0.188 0.001-0.375 0.001-0.563 0 0-1.039-0.005-2.078 0.002-3.116z"></path>
<path fill="#000" d="M14.254 7.415c0.184-0.001 0.368-0.001 0.553 0.001 0.002 1.040 0 2.079 0.001 3.12-0.185-0.001-0.37-0.001-0.555 0 0.002-1.040 0-2.080 0.001-3.121z"></path>
<path fill="#000" d="M15.528 7.41c0.766-0.004 1.533-0.002 2.299-0.001 0.003 0.182 0.002 0.364 0.001 0.547-0.288 0-0.577-0-0.865 0-0.002 0.859 0.001 1.718-0.001 2.577-0.188 0.002-0.375 0.001-0.563 0-0.001-0.859 0-1.718-0.001-2.577-0.29-0.001-0.58 0.001-0.87-0.002-0.003-0.181-0.003-0.363 0-0.544z"></path>
<path fill="#000" d="M5.518 11.485c0.412 0.032 0.829 0.033 1.241 0-0.233 0.050-0.44 0.23-0.484 0.47-0.062 0.347 0.326 0.679 0.66 0.567 0.268-0.076 0.434-0.396 0.331-0.657-0.073-0.206-0.272-0.331-0.476-0.38 0.412 0.033 0.83 0.033 1.242 0-0.232 0.051-0.44 0.231-0.484 0.471-0.062 0.346 0.323 0.676 0.656 0.568 0.271-0.076 0.444-0.403 0.332-0.667-0.072-0.191-0.255-0.308-0.441-0.37 0.399 0.030 0.803 0.032 1.202-0.002-0.231 0.055-0.436 0.236-0.477 0.475-0.057 0.344 0.324 0.669 0.654 0.564 0.275-0.075 0.449-0.409 0.331-0.674-0.075-0.189-0.257-0.306-0.445-0.364 0.399 0.031 0.803 0.031 1.202-0.001-0.228 0.059-0.432 0.24-0.471 0.478-0.053 0.34 0.32 0.662 0.649 0.562 0.269-0.071 0.443-0.385 0.348-0.649-0.069-0.204-0.262-0.334-0.463-0.391 1.258 0.032 2.522 0.034 3.78-0.001-0.232 0.052-0.438 0.232-0.481 0.471-0.061 0.345 0.321 0.675 0.653 0.569 0.274-0.074 0.445-0.403 0.334-0.668-0.072-0.192-0.255-0.309-0.442-0.37 0.399 0.030 0.803 0.031 1.203-0.001-0.231 0.055-0.435 0.237-0.476 0.476-0.058 0.355 0.35 0.687 0.686 0.552 0.258-0.090 0.413-0.409 0.3-0.664-0.075-0.189-0.259-0.306-0.447-0.363 0.399 0.031 0.803 0.031 1.202-0-0.228 0.059-0.431 0.24-0.469 0.478-0.056 0.353 0.348 0.682 0.683 0.551 0.251-0.086 0.405-0.387 0.313-0.639-0.069-0.205-0.263-0.334-0.463-0.39 0.542 0.053 1.090-0.010 1.633 0.034 0.253 0.032 0.576 0.181 0.577 0.477-0.001 2.892 0.002 5.785-0.002 8.677-0.037 0.317-0.41 0.453-0.69 0.454-4.346 0.001-8.692 0.001-13.038 0-0.281-0.001-0.653-0.136-0.691-0.454-0.003-2.892-0-5.784-0.001-8.677-0.008-0.23 0.214-0.38 0.409-0.443l0.087-0.023c-0.112 0.125-0.256 0.245-0.282 0.421-0.066 0.351 0.33 0.686 0.666 0.567 0.263-0.080 0.424-0.392 0.326-0.651-0.073-0.206-0.271-0.336-0.477-0.384M5.359 12.818c-0.174 0.063-0.307 0.224-0.353 0.402-0.081 0.34 0.282 0.68 0.615 0.602 0.214-0.046 0.386-0.243 0.399-0.462 0.032-0.335-0.334-0.658-0.661-0.542M13 12.821c-0.17 0.066-0.298 0.223-0.344 0.397-0.084 0.351 0.304 0.701 0.645 0.597 0.202-0.057 0.359-0.248 0.37-0.458 0.030-0.337-0.343-0.659-0.671-0.535M18.108 12.815c-0.187 0.065-0.33 0.241-0.366 0.434-0.055 0.335 0.304 0.653 0.63 0.57 0.21-0.049 0.377-0.243 0.39-0.458 0.031-0.333-0.327-0.653-0.654-0.546M5.495 14.083c-0.384 0.003-0.664 0.526-0.384 0.822 0.205 0.28 0.673 0.265 0.841-0.045 0.215-0.325-0.084-0.787-0.457-0.777M6.766 14.083c-0.244 0.004-0.446 0.217-0.492 0.448-0.047 0.269 0.177 0.515 0.428 0.571 0.266 0.054 0.545-0.147 0.585-0.413 0.060-0.304-0.217-0.61-0.521-0.606M8.032 14.084c-0.242 0.008-0.44 0.218-0.486 0.447-0.059 0.344 0.324 0.662 0.652 0.56 0.233-0.063 0.402-0.31 0.367-0.551-0.039-0.25-0.276-0.464-0.533-0.456M9.299 14.084c-0.229 0.010-0.412 0.203-0.473 0.413-0.090 0.351 0.3 0.697 0.639 0.596 0.238-0.061 0.409-0.312 0.372-0.556-0.043-0.25-0.281-0.464-0.539-0.452M13.141 14.083c-0.395 0.004-0.668 0.554-0.363 0.841 0.217 0.276 0.69 0.229 0.839-0.092 0.185-0.327-0.114-0.759-0.476-0.749M16.939 14.085c-0.239 0.016-0.431 0.228-0.471 0.456-0.041 0.273 0.194 0.521 0.452 0.565 0.265 0.042 0.534-0.168 0.566-0.432 0.049-0.306-0.241-0.609-0.547-0.589M18.204 14.085c-0.227 0.019-0.408 0.217-0.459 0.431-0.070 0.34 0.3 0.668 0.63 0.579 0.196-0.046 0.357-0.22 0.383-0.421 0.050-0.309-0.245-0.615-0.554-0.589M10.421 15.39c-0.178 0.080-0.315 0.26-0.333 0.455-0.019 0.261 0.207 0.488 0.453 0.532 0.268 0.043 0.541-0.171 0.569-0.439 0.054-0.354-0.351-0.695-0.689-0.548M12.957 15.4c-0.216 0.111-0.373 0.376-0.288 0.619 0.084 0.232 0.346 0.409 0.595 0.353 0.225-0.042 0.404-0.253 0.407-0.481 0.015-0.346-0.391-0.652-0.714-0.491M15.529 15.389c-0.169 0.071-0.296 0.235-0.333 0.414-0.059 0.341 0.319 0.66 0.646 0.563 0.21-0.056 0.372-0.256 0.376-0.474 0.012-0.336-0.367-0.637-0.689-0.503M18.063 15.393c-0.227 0.106-0.393 0.386-0.299 0.634 0.089 0.233 0.359 0.407 0.609 0.341 0.217-0.049 0.387-0.255 0.39-0.478 0.013-0.34-0.378-0.644-0.7-0.497M10.422 16.663c-0.177 0.079-0.313 0.255-0.334 0.449-0.023 0.269 0.212 0.506 0.469 0.542 0.266 0.033 0.531-0.182 0.554-0.45 0.047-0.351-0.353-0.685-0.688-0.541M12.997 16.656c-0.172 0.066-0.302 0.228-0.344 0.405-0.073 0.351 0.322 0.683 0.657 0.573 0.191-0.056 0.341-0.234 0.359-0.434 0.042-0.343-0.34-0.67-0.672-0.544M14.265 16.658c-0.17 0.068-0.299 0.23-0.339 0.407-0.068 0.347 0.318 0.675 0.65 0.571 0.197-0.054 0.351-0.237 0.367-0.441 0.038-0.344-0.347-0.669-0.678-0.538M18.066 16.665c-0.165 0.077-0.292 0.238-0.324 0.417-0.053 0.337 0.316 0.649 0.641 0.558 0.199-0.049 0.358-0.23 0.378-0.435 0.046-0.354-0.359-0.69-0.695-0.54M5.358 17.925c-0.188 0.068-0.333 0.251-0.36 0.449-0.030 0.266 0.197 0.503 0.448 0.549 0.258 0.043 0.525-0.151 0.568-0.408 0.077-0.352-0.311-0.711-0.655-0.59M10.465 17.92c-0.333 0.097-0.517 0.57-0.244 0.826 0.219 0.273 0.689 0.223 0.837-0.096 0.211-0.366-0.197-0.855-0.593-0.73M13 17.928c-0.184 0.071-0.325 0.249-0.352 0.444-0.031 0.264 0.192 0.498 0.438 0.549 0.264 0.051 0.54-0.151 0.579-0.415 0.069-0.352-0.323-0.706-0.665-0.578M18.107 17.923c-0.325 0.102-0.504 0.563-0.24 0.818 0.216 0.275 0.685 0.233 0.839-0.083 0.22-0.368-0.197-0.869-0.598-0.735M6.669 19.187c-0.191 0.049-0.339 0.218-0.39 0.405-0.082 0.338 0.276 0.671 0.606 0.6 0.202-0.038 0.37-0.21 0.402-0.413 0.067-0.336-0.286-0.677-0.619-0.593M7.935 19.189c-0.345 0.086-0.538 0.575-0.256 0.835 0.223 0.276 0.702 0.214 0.84-0.114 0.193-0.359-0.2-0.825-0.585-0.72M9.203 19.191c-0.34 0.090-0.529 0.57-0.254 0.83 0.221 0.276 0.698 0.221 0.841-0.105 0.201-0.361-0.198-0.838-0.587-0.725M14.311 19.189c-0.189 0.052-0.333 0.222-0.383 0.409-0.076 0.333 0.273 0.66 0.599 0.596 0.207-0.035 0.382-0.213 0.412-0.421 0.060-0.337-0.296-0.674-0.628-0.584M15.578 19.191c-0.199 0.060-0.353 0.247-0.385 0.451-0.033 0.273 0.203 0.519 0.464 0.557 0.258 0.035 0.516-0.165 0.555-0.421 0.064-0.339-0.299-0.683-0.633-0.587M16.845 19.192c-0.332 0.095-0.518 0.564-0.25 0.823 0.218 0.278 0.696 0.23 0.843-0.095 0.206-0.365-0.199-0.85-0.593-0.728z"></path>
<path fill="#ccc" d="M5.197 11.554c0.1-0.043 0.208-0.093 0.32-0.069 0.205 0.048 0.404 0.178 0.477 0.384 0.098 0.259-0.064 0.571-0.326 0.651-0.336 0.119-0.731-0.216-0.666-0.567 0.026-0.177 0.17-0.297 0.282-0.421l-0.087 0.023z"></path>
<path fill="#ccc" d="M6.758 11.485l0.030-0c0.204 0.049 0.404 0.174 0.476 0.38 0.103 0.261-0.063 0.581-0.331 0.657-0.334 0.112-0.721-0.219-0.66-0.567 0.044-0.24 0.251-0.42 0.484-0.47z"></path>
<path fill="#ccc" d="M8.031 11.484c0.016 0 0.047 0.001 0.063 0.002 0.187 0.061 0.369 0.179 0.441 0.37 0.112 0.263-0.061 0.591-0.332 0.667-0.332 0.109-0.718-0.222-0.656-0.568 0.044-0.24 0.251-0.42 0.484-0.471z"></path>
<path fill="#ccc" d="M9.296 11.484c0.016 0 0.048 0.001 0.064 0.001 0.188 0.058 0.37 0.175 0.445 0.364 0.118 0.265-0.056 0.599-0.331 0.674-0.33 0.105-0.711-0.22-0.654-0.564 0.041-0.24 0.247-0.42 0.477-0.475z"></path>
<path fill="#ccc" d="M10.562 11.485c0.016 0 0.047 0 0.063 0 0.2 0.057 0.393 0.187 0.463 0.391 0.096 0.264-0.079 0.578-0.348 0.649-0.329 0.1-0.702-0.222-0.649-0.563 0.039-0.239 0.242-0.42 0.471-0.478z"></path>
<path fill="#ccc" d="M14.406 11.484c0.016 0 0.047 0.001 0.063 0.002 0.187 0.060 0.37 0.178 0.443 0.37 0.111 0.264-0.060 0.593-0.334 0.667-0.332 0.106-0.714-0.224-0.653-0.569 0.044-0.239 0.25-0.419 0.481-0.471z"></path>
<path fill="#ccc" d="M15.672 11.485c0.016 0 0.047 0 0.063 0.001 0.188 0.058 0.371 0.174 0.447 0.363 0.113 0.255-0.042 0.574-0.3 0.664-0.336 0.135-0.744-0.197-0.686-0.552 0.040-0.24 0.245-0.421 0.476-0.476z"></path>
<path fill="#ccc" d="M16.937 11.485c0.016 0 0.048 0 0.064 0 0.2 0.056 0.394 0.186 0.463 0.39 0.092 0.252-0.062 0.553-0.313 0.639-0.334 0.131-0.738-0.198-0.683-0.551 0.038-0.239 0.241-0.42 0.469-0.478z"></path>
<path fill="#ccc" d="M5.359 12.818c0.328-0.116 0.694 0.207 0.661 0.542-0.013 0.219-0.185 0.416-0.399 0.462-0.333 0.078-0.697-0.262-0.615-0.602 0.046-0.178 0.179-0.338 0.353-0.402z"></path>
<path fill="#ccc" d="M13 12.821c0.328-0.124 0.7 0.198 0.671 0.535-0.011 0.21-0.168 0.401-0.37 0.458-0.341 0.105-0.729-0.246-0.645-0.597 0.046-0.174 0.174-0.331 0.344-0.397z"></path>
<path fill="#ccc" d="M18.108 12.815c0.327-0.107 0.685 0.213 0.654 0.546-0.014 0.216-0.181 0.41-0.39 0.458-0.326 0.083-0.685-0.236-0.63-0.57 0.037-0.193 0.18-0.369 0.366-0.434z"></path>
<path fill="#ccc" d="M5.495 14.083c0.373-0.010 0.672 0.451 0.457 0.777-0.168 0.31-0.636 0.325-0.841 0.045-0.28-0.295-0-0.819 0.384-0.822z"></path>
<path fill="#ccc" d="M6.766 14.083c0.304-0.004 0.581 0.301 0.521 0.606-0.040 0.266-0.319 0.467-0.585 0.413-0.251-0.056-0.476-0.302-0.428-0.571 0.046-0.231 0.248-0.443 0.492-0.448z"></path>
<path fill="#ccc" d="M8.032 14.084c0.257-0.008 0.494 0.206 0.533 0.456 0.035 0.241-0.134 0.488-0.367 0.551-0.328 0.102-0.711-0.217-0.652-0.56 0.046-0.228 0.244-0.439 0.486-0.447z"></path>
<path fill="#ccc" d="M9.299 14.084c0.258-0.012 0.496 0.202 0.539 0.452 0.037 0.244-0.135 0.495-0.372 0.556-0.339 0.101-0.729-0.245-0.639-0.596 0.060-0.21 0.244-0.403 0.473-0.413z"></path>
<path fill="#ccc" d="M13.141 14.083c0.361-0.011 0.66 0.422 0.476 0.749-0.149 0.321-0.622 0.368-0.839 0.092-0.304-0.287-0.031-0.837 0.363-0.841z"></path>
<path fill="#ccc" d="M16.939 14.085c0.306-0.021 0.595 0.283 0.547 0.589-0.032 0.264-0.3 0.474-0.566 0.432-0.258-0.045-0.493-0.293-0.452-0.565 0.040-0.227 0.232-0.439 0.471-0.456z"></path>
<path fill="#ccc" d="M18.204 14.085c0.308-0.025 0.604 0.28 0.554 0.589-0.026 0.201-0.187 0.375-0.383 0.421-0.33 0.088-0.7-0.239-0.63-0.579 0.051-0.214 0.232-0.412 0.459-0.431z"></path>
<path fill="#ccc" d="M10.421 15.39c0.337-0.147 0.742 0.194 0.689 0.548-0.028 0.269-0.301 0.482-0.569 0.439-0.246-0.045-0.472-0.271-0.453-0.532 0.018-0.195 0.155-0.375 0.333-0.455z"></path>
<path fill="#ccc" d="M12.957 15.4c0.323-0.161 0.729 0.145 0.714 0.491-0.003 0.229-0.182 0.439-0.407 0.481-0.249 0.055-0.511-0.122-0.595-0.353-0.085-0.243 0.072-0.508 0.288-0.619z"></path>
<path fill="#ccc" d="M15.529 15.389c0.322-0.134 0.701 0.167 0.689 0.503-0.004 0.217-0.166 0.418-0.376 0.474-0.327 0.097-0.705-0.221-0.646-0.563 0.037-0.179 0.164-0.343 0.333-0.414z"></path>
<path fill="#ccc" d="M18.063 15.393c0.322-0.146 0.713 0.157 0.7 0.497-0.003 0.223-0.173 0.428-0.39 0.478-0.251 0.067-0.52-0.107-0.609-0.341-0.094-0.248 0.072-0.528 0.299-0.634z"></path>
<path fill="#ccc" d="M10.422 16.663c0.335-0.144 0.735 0.19 0.688 0.541-0.023 0.267-0.287 0.483-0.554 0.45-0.256-0.036-0.492-0.273-0.469-0.542 0.021-0.193 0.158-0.37 0.334-0.449z"></path>
<path fill="#ccc" d="M12.997 16.656c0.331-0.126 0.713 0.201 0.672 0.544-0.018 0.2-0.168 0.378-0.359 0.434-0.335 0.11-0.729-0.222-0.657-0.573 0.042-0.178 0.172-0.339 0.344-0.405z"></path>
<path fill="#ccc" d="M14.265 16.658c0.331-0.131 0.717 0.194 0.678 0.538-0.016 0.203-0.171 0.387-0.367 0.441-0.332 0.103-0.718-0.225-0.65-0.571 0.040-0.177 0.169-0.338 0.339-0.407z"></path>
<path fill="#ccc" d="M18.066 16.665c0.336-0.15 0.741 0.186 0.695 0.54-0.020 0.205-0.18 0.386-0.378 0.435-0.324 0.091-0.694-0.22-0.641-0.558 0.033-0.179 0.159-0.34 0.324-0.417z"></path>
<path fill="#ccc" d="M5.358 17.925c0.344-0.121 0.733 0.237 0.655 0.59-0.043 0.257-0.309 0.451-0.568 0.408-0.251-0.047-0.479-0.283-0.448-0.549 0.028-0.198 0.172-0.38 0.36-0.449z"></path>
<path fill="#ccc" d="M10.465 17.92c0.396-0.125 0.804 0.364 0.593 0.73-0.148 0.319-0.618 0.369-0.837 0.096-0.273-0.256-0.090-0.729 0.244-0.826z"></path>
<path fill="#ccc" d="M13 17.928c0.342-0.128 0.735 0.225 0.665 0.578-0.039 0.264-0.315 0.466-0.579 0.415-0.247-0.051-0.469-0.285-0.438-0.549 0.027-0.195 0.168-0.374 0.352-0.444z"></path>
<path fill="#ccc" d="M18.107 17.923c0.401-0.134 0.818 0.367 0.598 0.735-0.153 0.317-0.623 0.359-0.839 0.083-0.264-0.256-0.085-0.717 0.24-0.818z"></path>
<path fill="#ccc" d="M6.669 19.187c0.333-0.084 0.685 0.257 0.619 0.593-0.032 0.203-0.201 0.375-0.402 0.413-0.33 0.071-0.688-0.262-0.606-0.6 0.051-0.187 0.198-0.356 0.39-0.405z"></path>
<path fill="#ccc" d="M7.935 19.189c0.385-0.105 0.777 0.361 0.585 0.72-0.139 0.328-0.617 0.39-0.84 0.114-0.282-0.26-0.090-0.749 0.256-0.835z"></path>
<path fill="#ccc" d="M9.203 19.191c0.389-0.113 0.788 0.364 0.587 0.725-0.142 0.326-0.62 0.381-0.841 0.105-0.276-0.259-0.087-0.74 0.254-0.83z"></path>
<path fill="#ccc" d="M14.311 19.189c0.332-0.090 0.689 0.247 0.628 0.584-0.030 0.208-0.204 0.386-0.412 0.421-0.326 0.063-0.675-0.263-0.599-0.596 0.049-0.187 0.193-0.356 0.383-0.409z"></path>
<path fill="#ccc" d="M15.578 19.191c0.335-0.097 0.697 0.248 0.633 0.587-0.038 0.256-0.296 0.457-0.555 0.421-0.26-0.038-0.497-0.285-0.464-0.557 0.032-0.204 0.186-0.391 0.385-0.451z"></path>
<path fill="#ccc" d="M16.845 19.192c0.393-0.122 0.799 0.364 0.592 0.728-0.147 0.325-0.624 0.373-0.843 0.095-0.268-0.259-0.082-0.728 0.25-0.823z"></path>
</svg>
