<!-- Generated by IcoMoon.io -->
<svg version="1.1" xmlns="http://www.w3.org/2000/svg" width="24" height="24" viewBox="0 0 24 24">
<title>regulatory--end-of-maximum-speed-limit-90--g1</title>
<path fill="#fff" d="M11.089 0h1.853c1.763 0.164 3.506 0.671 5.038 1.569 2.492 1.421 4.441 3.765 5.378 6.477 0.349 0.981 0.541 2.010 0.642 3.044v1.851c-0.165 1.752-0.664 3.484-1.553 5.009-1.425 2.518-3.792 4.483-6.528 5.421-0.958 0.338-1.963 0.521-2.97 0.629h-1.889c-2.549-0.22-5.033-1.236-6.953-2.936-2.364-2.030-3.851-5.014-4.106-8.115v-1.892c0.12-1.192 0.369-2.377 0.819-3.491 0.971-2.459 2.782-4.568 5.054-5.915 1.581-0.946 3.383-1.495 5.215-1.651M11.366 0.596c-2.333 0.119-4.62 0.99-6.448 2.445-2.059 1.616-3.528 3.963-4.080 6.523-0.405 1.865-0.34 3.834 0.204 5.664 0.703 2.412 2.236 4.569 4.276 6.034 1.799 1.305 3.989 2.068 6.211 2.151 3.061 0.145 6.152-1.025 8.357-3.151 2.043-1.938 3.328-4.655 3.508-7.467 0.137-1.898-0.213-3.829-1.011-5.556-1.196-2.63-3.432-4.764-6.115-5.836-1.547-0.626-3.235-0.903-4.902-0.807z"></path>
<path fill="#fff" d="M9.006 1.602c3.014-0.887 6.406-0.363 9.008 1.402-0.885 0.896-1.765 1.808-2.682 2.666-1.182 0.309-2.25 1.261-2.487 2.49-0.439 0.497-0.935 0.953-1.405 1.425 0.009-0.919-0.202-1.877-0.793-2.604-0.666-0.806-1.658-1.405-2.725-1.404-1.088-0.035-2.168 0.428-2.932 1.195-0.642 0.682-0.864 1.645-0.906 2.555-0.035 0.902 0.038 1.866 0.538 2.645 0.682 1.016 1.998 1.487 3.183 1.244-1.593 1.605-3.189 3.212-4.802 4.796-1.365-2.022-2.003-4.52-1.783-6.949 0.132-1.575 0.619-3.12 1.415-4.486 1.379-2.395 3.71-4.223 6.37-4.975z"></path>
<path fill="#fff" d="M16.37 5.512c0.715-0.715 1.428-1.434 2.148-2.145 0.078 0.052 0.151 0.11 0.227 0.165-0.64 0.687-1.327 1.355-2.003 2.012-0.124-0.009-0.248-0.017-0.372-0.033z"></path>
<path fill="#fff" d="M17.471 5.684c0.582-0.583 1.161-1.169 1.749-1.746 0.075 0.063 0.144 0.131 0.214 0.2-0.552 0.557-1.105 1.116-1.666 1.663l-0.021-0.004c-0.092-0.039-0.184-0.077-0.277-0.113z"></path>
<path fill="#fff" d="M18.347 6.077c0.506-0.503 1.005-1.012 1.515-1.51 0.069 0.069 0.138 0.138 0.197 0.216-0.482 0.496-0.978 0.981-1.467 1.472-0.088-0.051-0.171-0.11-0.246-0.178z"></path>
<path fill="#fff" d="M20.444 5.258c0.083 0.040 0.126 0.154 0.189 0.225-0.457 0.466-0.922 0.925-1.384 1.386-0.068-0.073-0.133-0.149-0.189-0.23 0.462-0.459 0.921-0.923 1.384-1.381z"></path>
<path fill="#fff" d="M19.586 7.395c0.463-0.474 0.927-0.953 1.411-1.404 1.858 2.734 2.33 6.341 1.257 9.465-0.944 2.846-3.136 5.244-5.883 6.444-3.314 1.495-7.376 1.147-10.38-0.903 2.224-2.254 4.47-4.492 6.718-6.723-0.024 0.98 0.060 2.040 0.693 2.84 0.978 1.259 2.792 1.748 4.276 1.175 0.797-0.311 1.53-0.871 1.922-1.645 0.287-0.563 0.391-1.204 0.389-1.832 0-1.859 0-3.718 0-5.577-0.001-0.631-0.104-1.277-0.403-1.84z"></path>
<path fill="#fff" d="M7.562 7.474c0.501-0.043 1.056 0.047 1.434 0.405 0.449 0.43 0.543 1.091 0.541 1.683-0.001 0.57-0.123 1.208-0.588 1.589-0.775 0.698-2.167 0.54-2.708-0.372-0.33-0.609-0.336-1.35-0.191-2.013 0.149-0.707 0.823-1.197 1.513-1.292z"></path>
<path fill="#fff" d="M15.616 7.546c0.158-0.047 0.324-0.128 0.493-0.082-0.488 0.49-0.975 0.981-1.468 1.466 0.010-0.184 0.064-0.361 0.126-0.533 0.273-0.293 0.559-0.576 0.85-0.851z"></path>
<path fill="#fff" d="M14.696 9.728c0.757-0.743 1.492-1.514 2.26-2.243 0.089 0.046 0.18 0.091 0.269 0.137-0.871 0.872-1.743 1.745-2.616 2.615-0.003-0.12-0.007-0.24-0.015-0.359-0.007-0.067 0.066-0.105 0.103-0.151z"></path>
<path fill="#fff" d="M14.603 11.104c1.027-1.040 2.062-2.075 3.102-3.102 0.053 0.082 0.107 0.165 0.16 0.248-1.068 1.081-2.149 2.151-3.222 3.227-0.053-0.118-0.040-0.248-0.040-0.373z"></path>
<path fill="#fff" d="M14.595 12.387c1.154-1.171 2.319-2.333 3.488-3.49 0.040 1.893 0.006 3.787 0.018 5.681 0.015 0.472-0.049 0.971-0.325 1.368-0.621 0.919-2.178 0.938-2.824 0.039-0.245-0.337-0.336-0.76-0.345-1.17-0.011-0.799 0.010-1.598-0.010-2.397l-0.001-0.032z"></path>
<path fill="#fff" d="M11.309 10.594c0.434-0.485 0.922-0.93 1.378-1.399 0.027 0.122 0.033 0.248 0.035 0.373-0.49 0.517-1.004 1.015-1.509 1.517-0.007-0.169 0.066-0.327 0.097-0.491z"></path>
<path fill="#fff" d="M10.321 12.851c0.768-0.814 1.582-1.587 2.366-2.386 0.031 0.13 0.033 0.266 0.022 0.399-0.885 0.891-1.774 1.779-2.664 2.665 0.006-0.245 0.204-0.445 0.276-0.677z"></path>
<path fill="#fff" d="M12.69 11.736c0.029 0.131 0.030 0.265 0.021 0.398-1.307 1.313-2.618 2.623-3.93 3.931-0.008-0.219 0.176-0.391 0.228-0.6 0.030-0.083 0.1-0.143 0.158-0.207 1.174-1.175 2.349-2.349 3.524-3.523z"></path>
<path fill="#fff" d="M12.694 13.010c0.021 0.129 0.024 0.261 0.019 0.391-2.406 2.415-4.817 4.824-7.23 7.231-0.073-0.063-0.18-0.107-0.225-0.189 0.667-0.658 1.314-1.341 1.998-1.98 0.324 0.129 0.39-0.25 0.489-0.466 0.045-0.1 0.133-0.172 0.206-0.25 1.582-1.578 3.157-3.164 4.743-4.738z"></path>
<path fill="#fff" d="M3.368 18.518c1.305-1.315 2.618-2.623 3.929-3.932 0.010 0.221-0.174 0.395-0.227 0.604-0.090 0.164-0.247 0.278-0.372 0.414-1.058 1.041-2.091 2.125-3.164 3.138-0.055-0.075-0.113-0.148-0.166-0.225z"></path>
<path fill="#fff" d="M3.94 19.218c0.692-0.703 1.393-1.399 2.092-2.095 0.012 0.217-0.175 0.391-0.227 0.599-0.502 0.612-1.115 1.14-1.667 1.711-0.068-0.069-0.138-0.138-0.198-0.215z"></path>
<path fill="#fff" d="M4.567 19.862c0.472-0.469 0.93-0.959 1.422-1.405 0.122 0.015 0.245 0.024 0.368 0.035-0.526 0.521-1.044 1.051-1.575 1.568-0.076-0.061-0.145-0.131-0.215-0.199z"></path>
<path fill="#000" d="M11.366 0.596c1.667-0.097 3.354 0.18 4.902 0.807 2.684 1.072 4.92 3.206 6.115 5.836 0.798 1.727 1.148 3.658 1.011 5.556-0.18 2.812-1.465 5.529-3.508 7.467-2.205 2.126-5.296 3.296-8.357 3.151-2.222-0.083-4.412-0.845-6.211-2.151-2.040-1.465-3.573-3.622-4.276-6.034-0.545-1.83-0.61-3.799-0.204-5.664 0.552-2.559 2.021-4.906 4.080-6.523 1.828-1.455 4.115-2.326 6.448-2.445M9.006 1.602c-2.661 0.751-4.992 2.58-6.37 4.975-0.796 1.366-1.283 2.911-1.415 4.486-0.22 2.429 0.419 4.927 1.783 6.949 1.613-1.584 3.209-3.191 4.802-4.796 1.215-1.197 2.429-2.417 3.634-3.631 0.47-0.472 0.966-0.928 1.405-1.425 0.686-0.623 1.318-1.309 1.984-1.957 0.165-0.18 0.364-0.331 0.503-0.533 0.917-0.858 1.798-1.77 2.682-2.666-2.602-1.765-5.994-2.288-9.008-1.402M16.37 5.512l-0.007-0c-1.221 1.23-2.445 2.458-3.677 3.676l0.001 0.007c-0.455 0.469-0.944 0.915-1.378 1.399-1.356 1.306-2.68 2.67-4.012 3.991-1.311 1.31-2.624 2.617-3.929 3.932 0.053 0.077 0.111 0.149 0.166 0.225 1.073-1.013 2.106-2.098 3.164-3.138 0.125-0.136 0.282-0.25 0.372-0.414 0.135-0.063 0.224-0.19 0.331-0.289 1.271-1.266 2.531-2.543 3.81-3.801l0-0.015c0.506-0.502 1.020-1 1.509-1.517 1.35-1.329 2.693-2.669 4.020-4.022 0.676-0.657 1.363-1.326 2.003-2.012-0.075-0.055-0.149-0.114-0.227-0.165-0.72 0.711-1.432 1.429-2.148 2.145M17.471 5.684c-0.619 0.62-1.247 1.232-1.854 1.862-0.291 0.275-0.577 0.558-0.85 0.851-0.705 0.676-1.384 1.38-2.079 2.067-0.784 0.799-1.598 1.573-2.366 2.386-1.446 1.403-2.866 2.855-4.289 4.272-0.699 0.697-1.4 1.392-2.092 2.095 0.060 0.077 0.13 0.145 0.198 0.215 0.552-0.572 1.164-1.1 1.667-1.711 0.091-0.026 0.151-0.105 0.217-0.167 1.338-1.343 2.691-2.686 4.022-4.026 0.891-0.886 1.779-1.774 2.664-2.665 0.645-0.642 1.293-1.287 1.932-1.932 0.493-0.485 0.98-0.976 1.468-1.466 0.54-0.556 1.127-1.086 1.638-1.668l0.021 0.004c0.561-0.547 1.114-1.106 1.666-1.663-0.070-0.068-0.14-0.137-0.214-0.2-0.588 0.577-1.167 1.163-1.749 1.746M18.347 6.077c-0.46 0.473-0.945 0.923-1.391 1.408-0.768 0.729-1.503 1.499-2.26 2.243-0.037 0.046-0.109 0.083-0.103 0.151-0.068 0.007-0.108 0.065-0.155 0.106-0.582 0.585-1.167 1.167-1.749 1.751-1.175 1.174-2.349 2.348-3.524 3.523-0.058 0.064-0.128 0.123-0.158 0.207-0.122 0.041-0.196 0.156-0.288 0.239-0.906 0.921-1.843 1.815-2.731 2.753-0.492 0.446-0.95 0.936-1.422 1.405 0.070 0.068 0.139 0.138 0.215 0.199 0.53-0.517 1.048-1.047 1.575-1.568 0.805-0.809 1.627-1.621 2.423-2.426 1.312-1.309 2.624-2.618 3.93-3.931 0.636-0.629 1.268-1.263 1.898-1.897 0.873-0.87 1.745-1.743 2.616-2.615 0.457-0.454 0.913-0.911 1.368-1.368 0.489-0.491 0.984-0.976 1.467-1.472-0.060-0.077-0.128-0.147-0.197-0.216-0.51 0.499-1.009 1.008-1.515 1.51M20.444 5.258c-0.463 0.458-0.922 0.922-1.384 1.381-0.45 0.456-0.912 0.9-1.355 1.363-1.041 1.027-2.075 2.062-3.102 3.102-0.645 0.623-1.266 1.271-1.91 1.896l0.001 0.010c-1.586 1.574-3.161 3.16-4.743 4.738-0.074 0.078-0.161 0.15-0.206 0.25-0.195 0.113-0.343 0.297-0.489 0.466-0.684 0.638-1.331 1.321-1.998 1.98 0.045 0.082 0.153 0.126 0.225 0.189 2.414-2.407 4.825-4.816 7.23-7.231 0.651-0.63 1.275-1.29 1.933-1.914l-0.003-0.010c1.073-1.076 2.154-2.146 3.222-3.227 0.467-0.455 0.924-0.919 1.384-1.38 0.462-0.461 0.927-0.92 1.384-1.386-0.063-0.072-0.107-0.185-0.189-0.225M19.586 7.395c-0.509 0.492-1.010 0.995-1.504 1.502-1.169 1.156-2.334 2.318-3.488 3.49l0.001 0.032c-0.076 0.010-0.119 0.083-0.173 0.129-0.567 0.578-1.158 1.142-1.713 1.726-2.248 2.231-4.494 4.469-6.718 6.723 3.005 2.049 7.066 2.398 10.38 0.903 2.747-1.2 4.94-3.598 5.883-6.444 1.073-3.124 0.601-6.731-1.257-9.465-0.485 0.451-0.949 0.93-1.411 1.404z"></path>
<path fill="#808080" d="M16.363 5.512l0.007 0c0.123 0.016 0.247 0.024 0.372 0.033-1.327 1.353-2.67 2.693-4.020 4.022-0.002-0.125-0.008-0.251-0.035-0.373l-0.001-0.007c1.232-1.218 2.457-2.445 3.677-3.676z"></path>
<path fill="#808080" d="M4.989 6.771c0.765-0.767 1.844-1.23 2.932-1.195 1.067-0 2.059 0.599 2.725 1.404 0.591 0.727 0.802 1.685 0.793 2.604-1.205 1.215-2.419 2.434-3.634 3.631-1.185 0.243-2.502-0.228-3.183-1.244-0.5-0.779-0.573-1.743-0.538-2.645 0.041-0.91 0.263-1.873 0.906-2.555M7.562 7.474c-0.69 0.095-1.364 0.585-1.513 1.292-0.145 0.663-0.138 1.404 0.191 2.013 0.541 0.912 1.934 1.070 2.708 0.372 0.465-0.381 0.586-1.018 0.588-1.589 0.002-0.592-0.092-1.253-0.541-1.683-0.378-0.358-0.933-0.448-1.434-0.405z"></path>
<path fill="#808080" d="M12.844 8.159c0.237-1.229 1.305-2.18 2.487-2.49-0.14 0.202-0.338 0.353-0.503 0.533-0.666 0.648-1.298 1.334-1.984 1.957z"></path>
<path fill="#808080" d="M15.616 7.546c0.607-0.63 1.236-1.243 1.854-1.862 0.092 0.036 0.185 0.074 0.277 0.112-0.511 0.583-1.098 1.112-1.638 1.668-0.168-0.047-0.334 0.034-0.493 0.082z"></path>
<path fill="#808080" d="M16.956 7.485c0.446-0.485 0.931-0.936 1.391-1.408 0.075 0.067 0.158 0.127 0.246 0.178-0.455 0.457-0.911 0.914-1.368 1.368-0.090-0.046-0.18-0.091-0.269-0.137z"></path>
<path fill="#808080" d="M17.705 8.002c0.443-0.463 0.905-0.907 1.355-1.363 0.057 0.082 0.121 0.158 0.189 0.23-0.46 0.461-0.917 0.926-1.384 1.38-0.053-0.083-0.107-0.165-0.16-0.248z"></path>
<path fill="#808080" d="M18.082 8.897c0.494-0.508 0.995-1.011 1.504-1.502 0.299 0.563 0.402 1.209 0.403 1.84 0 1.859 0 3.718 0 5.577 0.002 0.628-0.102 1.268-0.389 1.832-0.392 0.773-1.125 1.334-1.922 1.645-1.485 0.573-3.298 0.083-4.276-1.175-0.632-0.799-0.717-1.86-0.693-2.84 0.555-0.585 1.146-1.148 1.713-1.726 0.054-0.046 0.097-0.119 0.173-0.129 0.021 0.799-0 1.598 0.010 2.397 0.010 0.41 0.101 0.833 0.345 1.17 0.646 0.9 2.203 0.88 2.824-0.039 0.276-0.397 0.34-0.896 0.325-1.368-0.012-1.894 0.023-3.788-0.018-5.681z"></path>
<path fill="#808080" d="M12.687 10.464c0.695-0.686 1.375-1.391 2.079-2.067-0.061 0.172-0.115 0.35-0.126 0.533-0.638 0.645-1.286 1.29-1.932 1.932 0.011-0.133 0.009-0.269-0.022-0.399z"></path>
<path fill="#808080" d="M14.439 9.985c0.047-0.041 0.087-0.099 0.155-0.106 0.009 0.12 0.012 0.239 0.015 0.359-0.631 0.633-1.262 1.268-1.898 1.897 0.009-0.133 0.008-0.268-0.021-0.398 0.582-0.584 1.168-1.166 1.749-1.751z"></path>
<path fill="#808080" d="M7.297 14.586c1.332-1.322 2.656-2.685 4.012-3.991-0.031 0.164-0.104 0.322-0.097 0.491l-0 0.015c-1.279 1.258-2.539 2.535-3.81 3.801-0.108 0.098-0.196 0.226-0.331 0.289 0.053-0.21 0.238-0.383 0.227-0.604z"></path>
<path fill="#808080" d="M12.693 13c0.644-0.625 1.264-1.273 1.91-1.896 0 0.125-0.013 0.255 0.040 0.373l0.003 0.010c-0.657 0.624-1.282 1.284-1.933 1.914 0.005-0.131 0.001-0.262-0.019-0.391l-0.001-0.010z"></path>
<path fill="#808080" d="M6.032 17.122c1.422-1.417 2.843-2.869 4.289-4.272-0.072 0.232-0.27 0.433-0.276 0.677-1.332 1.34-2.685 2.683-4.022 4.026-0.066 0.063-0.126 0.141-0.217 0.167 0.052-0.208 0.239-0.382 0.227-0.599z"></path>
<path fill="#808080" d="M8.72 15.705c0.092-0.083 0.166-0.198 0.288-0.239-0.052 0.209-0.236 0.381-0.228 0.6-0.796 0.805-1.618 1.618-2.423 2.426-0.123-0.011-0.246-0.021-0.368-0.035 0.888-0.937 1.825-1.831 2.731-2.753z"></path>
<path fill="#808080" d="M7.255 18.464c0.146-0.169 0.295-0.352 0.489-0.466-0.099 0.216-0.165 0.595-0.489 0.466z"></path>
</svg>
