<!-- Generated by IcoMoon.io -->
<svg version="1.1" xmlns="http://www.w3.org/2000/svg" width="24" height="24" viewBox="0 0 24 24">
<title>regulatory--trams-and-buses-only--g1</title>
<path fill="#03559b" d="M10.726 0h2.523c4.142 0.476 7.964 3.153 9.677 6.974 0.562 1.182 0.854 2.467 1.074 3.752v2.523c-0.477 4.142-3.153 7.964-6.974 9.677-1.182 0.562-2.467 0.854-3.752 1.074h-2.525c-4.14-0.477-7.963-3.153-9.675-6.974-0.562-1.182-0.854-2.467-1.074-3.752v-2.525c0.213-1.293 0.509-2.585 1.074-3.776 1.71-3.815 5.521-6.484 9.652-6.974M10.633 5.398c-2.050 0.199-4.14-0.145-6.18 0.192-0.171 1.166-0.695 2.327-0.272 3.523 0.645 0.003 1.289 0 1.932 0.004 0.143-0.558 0.512-1.163 1.162-1.152 0.677-0.059 1.108 0.554 1.232 1.148 1.849 0.007 3.697-0.005 5.546 0.005 0.139-0.56 0.524-1.159 1.171-1.141 0.65-0.032 1.070 0.561 1.185 1.137 1.148 0.021 2.299 0.003 3.44-0.148-0.022-0.989 0.139-2.032-0.321-2.953 0.040-0.081 0.118-0.244 0.158-0.325-1.849-0.495-3.804-0.126-5.697-0.237-1.129 0.144-2.242-0.379-3.356-0.053M7.056 8.429c-0.513 0.178-0.602 0.959-0.136 1.241 0.411 0.311 1.067 0 1.1-0.509 0.074-0.503-0.496-0.945-0.964-0.732M15.002 8.419c-0.501 0.155-0.636 0.887-0.218 1.208 0.392 0.363 1.105 0.088 1.153-0.444 0.093-0.501-0.462-0.957-0.935-0.764M12.677 13.007c0.505 0.326 1.011 0.651 1.531 0.955-3.002 0.32-6.030 0.066-9.040 0.206 0.097 0.125 0.196 0.25 0.295 0.374-0.54 0.928-0.773 1.983-0.669 3.053 0.255 0.144 0.51 0.335 0.819 0.315 4.213 0.003 8.426 0.001 12.638 0.001 0.314 0.021 0.575-0.167 0.834-0.311 0.106-1.071-0.123-2.128-0.665-3.057 0.1-0.126 0.2-0.252 0.3-0.379-1.273-0.032-2.543-0.011-3.803-0.208 0.516-0.299 1.019-0.623 1.521-0.946-0.619-0.416-1.241-0.82-1.865-1.226-0.632 0.407-1.266 0.812-1.894 1.223M5.973 18.196c0.163 0.701 0.934 0.832 1.366 0.291 0.459-0.011 0.917-0.011 1.377-0.003 0.437 0.544 1.208 0.41 1.373-0.289-1.371-0.029-2.744-0.032-4.116 0.001M13.791 18.196c0.163 0.699 0.933 0.834 1.365 0.291 0.459-0.011 0.919-0.011 1.378-0.003 0.437 0.544 1.208 0.41 1.373-0.289-1.371-0.029-2.744-0.032-4.116 0.001z"></path>
<path fill="#03559b" d="M4.692 5.859c0.409-0.022 0.817-0.023 1.226-0.007 0.030 0.978 0.030 1.957 0.001 2.935-0.409 0.007-0.817 0.003-1.226-0.022-0.043-0.968-0.038-1.939-0.001-2.906z"></path>
<path fill="#03559b" d="M6.197 5.849c0.417-0.015 0.832-0.016 1.249-0.010 0.012 0.455 0.010 0.911-0.001 1.366-0.416 0-0.831-0.001-1.245-0.010-0.011-0.448-0.011-0.898-0.003-1.347z"></path>
<path fill="#03559b" d="M7.72 5.851c0.889-0.029 1.779-0.026 2.669-0.003 0.007 0.45 0.007 0.898 0.001 1.348-0.89 0.014-1.781 0.016-2.672-0.001-0.008-0.448-0.008-0.896 0.001-1.344z"></path>
<path fill="#03559b" d="M10.657 5.849c0.894-0.026 1.79-0.025 2.684-0.001 0.011 0.45 0.010 0.901-0.003 1.352-0.89-0.029-1.792 0.086-2.673-0.055-0.040-0.431-0.018-0.864-0.008-1.296z"></path>
<path fill="#03559b" d="M13.616 5.851c0.887-0.027 1.776-0.030 2.665 0.003 0.011 0.447 0.012 0.894 0.005 1.341-0.893 0.016-1.784 0.016-2.677 0-0.004-0.448-0.003-0.896 0.007-1.344z"></path>
<path fill="#03559b" d="M16.555 5.842c0.784-0.015 1.57-0.014 2.355-0.001 0.191 0.442 0.358 0.891 0.502 1.349-0.952 0.027-1.904 0.011-2.857 0.014-0.010-0.454-0.012-0.908 0-1.362z"></path>
<path fill="#03559b" d="M12.93 12.99c0.54-0.351 1.083-0.699 1.632-1.038 0.539 0.34 1.072 0.687 1.605 1.038-0.54 0.346-1.078 0.694-1.621 1.034-0.539-0.344-1.079-0.686-1.616-1.034z"></path>
<path fill="#03559b" d="M5.157 15.914c0.197-0.581 0.322-1.543 1.12-1.506 0.051 0.697 0.038 1.397 0.019 2.097-0.435-0.032-1.136 0.029-1.14-0.591z"></path>
<path fill="#03559b" d="M6.555 14.463c0.45-0.010 0.902-0.010 1.352 0.004 0.019 1.035 0.019 2.072 0 3.108-0.45 0.007-0.901 0.007-1.351 0.001-0.015-1.037-0.012-2.075-0.001-3.113z"></path>
<path fill="#03559b" d="M8.142 14.469c0.786-0.023 1.573-0.018 2.359-0.005 0.014 0.671 0.015 1.343-0.003 2.013-0.778-0.032-1.584 0.111-2.344-0.073-0.067-0.642-0.025-1.291-0.012-1.935z"></path>
<path fill="#03559b" d="M10.757 14.464c0.789-0.016 1.577-0.016 2.366 0.001 0.014 0.669 0.015 1.34-0.004 2.009-0.786 0.015-1.572 0.015-2.357 0-0.018-0.669-0.018-1.34-0.004-2.011z"></path>
<path fill="#03559b" d="M13.378 14.464c0.786-0.015 1.572-0.018 2.357 0.003 0.027 0.668 0.029 1.337-0.001 2.006-0.783 0.018-1.568 0.014-2.351 0.005-0.019-0.672-0.016-1.343-0.005-2.015z"></path>
<path fill="#03559b" d="M15.972 14.467c0.444 0.008 0.915-0.091 1.341 0.060 0.052 1.015 0.014 2.034 0.010 3.050-0.45 0.004-0.9 0.004-1.349-0.003-0.018-1.035-0.018-2.072-0.001-3.108z"></path>
<path fill="#03559b" d="M17.583 14.459c0.185 0.001 0.369 0.003 0.554 0.005 0.208 0.494 0.539 0.968 0.58 1.514-0.059 0.571-0.72 0.484-1.136 0.527-0.018-0.682-0.019-1.363 0.001-2.046z"></path>
<path fill="#fff" d="M10.633 5.398c1.114-0.325 2.227 0.197 3.356 0.053 1.893 0.111 3.848-0.258 5.697 0.237-0.040 0.081-0.118 0.244-0.158 0.325 0.459 0.92 0.299 1.964 0.321 2.953-1.141 0.151-2.292 0.169-3.44 0.148-0.115-0.576-0.535-1.168-1.185-1.137-0.647-0.018-1.033 0.581-1.171 1.141-1.849-0.011-3.697 0.001-5.546-0.005-0.123-0.594-0.554-1.207-1.232-1.148-0.65-0.011-1.019 0.594-1.162 1.152-0.643-0.004-1.288-0.001-1.932-0.004-0.424-1.196 0.1-2.357 0.272-3.523 2.039-0.337 4.129 0.007 6.18-0.192M4.692 5.859c-0.037 0.967-0.041 1.938 0.001 2.906 0.409 0.025 0.817 0.029 1.226 0.022 0.029-0.978 0.029-1.957-0.001-2.935-0.409-0.016-0.817-0.015-1.226 0.007M6.197 5.849c-0.008 0.448-0.008 0.898 0.003 1.347 0.414 0.008 0.83 0.010 1.245 0.010 0.011-0.455 0.014-0.911 0.001-1.366-0.417-0.007-0.832-0.005-1.249 0.010M7.72 5.851c-0.010 0.448-0.010 0.896-0.001 1.344 0.89 0.018 1.781 0.015 2.672 0.001 0.005-0.45 0.005-0.898-0.001-1.348-0.89-0.023-1.78-0.026-2.669 0.003M10.657 5.849c-0.010 0.432-0.032 0.865 0.008 1.296 0.88 0.141 1.783 0.026 2.673 0.055 0.012-0.451 0.014-0.902 0.003-1.352-0.894-0.023-1.79-0.025-2.684 0.001M13.616 5.851c-0.010 0.448-0.011 0.896-0.007 1.344 0.893 0.016 1.784 0.016 2.677 0 0.007-0.447 0.005-0.894-0.005-1.341-0.889-0.033-1.777-0.030-2.665-0.003M16.555 5.842c-0.012 0.454-0.010 0.908 0 1.362 0.953-0.003 1.905 0.014 2.857-0.014-0.144-0.458-0.311-0.908-0.502-1.349-0.784-0.012-1.57-0.014-2.355 0.001z"></path>
<path fill="#fff" d="M7.056 8.429c0.468-0.213 1.038 0.229 0.964 0.732-0.033 0.509-0.688 0.82-1.1 0.509-0.466-0.283-0.377-1.063 0.136-1.241z"></path>
<path fill="#fff" d="M15.002 8.419c0.473-0.193 1.029 0.263 0.935 0.764-0.048 0.532-0.761 0.808-1.153 0.444-0.418-0.321-0.283-1.053 0.218-1.208z"></path>
<path fill="#fff" d="M12.677 13.007c0.628-0.411 1.262-0.816 1.894-1.223 0.624 0.406 1.247 0.811 1.865 1.226-0.502 0.324-1.005 0.647-1.521 0.946 1.26 0.197 2.53 0.177 3.803 0.208-0.1 0.126-0.2 0.252-0.3 0.379 0.542 0.928 0.771 1.986 0.665 3.057-0.259 0.144-0.52 0.332-0.834 0.311-4.212 0-8.425 0.001-12.638-0.001-0.309 0.019-0.564-0.171-0.819-0.315-0.104-1.070 0.129-2.124 0.669-3.053-0.099-0.125-0.197-0.25-0.295-0.374 3.010-0.14 6.038 0.114 9.040-0.206-0.52-0.303-1.026-0.628-1.531-0.955M12.93 12.99c0.536 0.348 1.077 0.69 1.616 1.034 0.543-0.34 1.081-0.688 1.621-1.034-0.532-0.351-1.066-0.698-1.605-1.038-0.549 0.339-1.092 0.687-1.632 1.038M5.157 15.914c0.004 0.62 0.705 0.56 1.14 0.591 0.019-0.699 0.032-1.4-0.019-2.097-0.798-0.037-0.923 0.924-1.12 1.506M6.555 14.463c-0.011 1.038-0.014 2.076 0.001 3.113 0.45 0.005 0.901 0.005 1.351-0.001 0.019-1.035 0.019-2.072 0-3.108-0.45-0.014-0.902-0.014-1.352-0.004M8.142 14.469c-0.012 0.645-0.055 1.293 0.012 1.935 0.76 0.184 1.566 0.041 2.344 0.073 0.018-0.671 0.016-1.343 0.003-2.013-0.786-0.012-1.573-0.018-2.359 0.005M10.757 14.464c-0.014 0.671-0.014 1.341 0.004 2.011 0.786 0.015 1.572 0.015 2.357 0 0.019-0.669 0.018-1.34 0.004-2.009-0.789-0.018-1.577-0.018-2.366-0.001M13.378 14.464c-0.011 0.672-0.014 1.343 0.005 2.015 0.783 0.008 1.568 0.012 2.351-0.005 0.030-0.669 0.029-1.339 0.001-2.006-0.786-0.021-1.572-0.018-2.357-0.003M15.972 14.467c-0.016 1.035-0.016 2.072 0.001 3.108 0.45 0.007 0.9 0.007 1.349 0.003 0.004-1.016 0.043-2.035-0.010-3.050-0.427-0.151-0.897-0.052-1.341-0.060M17.583 14.459c-0.021 0.683-0.019 1.365-0.001 2.046 0.416-0.043 1.077 0.044 1.136-0.527-0.041-0.546-0.372-1.020-0.58-1.514-0.185-0.003-0.369-0.004-0.554-0.005z"></path>
<path fill="#fff" d="M5.973 18.196c1.371-0.033 2.744-0.030 4.116-0.001-0.165 0.699-0.935 0.834-1.373 0.289-0.459-0.008-0.917-0.008-1.377 0.003-0.432 0.542-1.203 0.41-1.366-0.291z"></path>
<path fill="#fff" d="M13.791 18.196c1.371-0.033 2.744-0.030 4.116-0.001-0.165 0.699-0.935 0.834-1.373 0.289-0.459-0.008-0.919-0.008-1.378 0.003-0.432 0.543-1.201 0.409-1.365-0.291z"></path>
</svg>
