<!-- Generated by IcoMoon.io -->
<svg version="1.1" xmlns="http://www.w3.org/2000/svg" width="24" height="24" viewBox="0 0 24 24">
<title>regulatory--no-carts--g3</title>
<path fill="#da251d" d="M10.563 0h2.881c2.363 0.377 4.677 1.317 6.472 2.926 2.255 1.929 3.651 4.719 4.084 7.635v2.883c-0.377 2.363-1.316 4.677-2.925 6.472-1.93 2.255-4.72 3.651-7.636 4.084h-2.883c-2.363-0.377-4.677-1.317-6.472-2.926-2.255-1.928-3.649-4.718-4.084-7.633v-2.885c0.436-2.913 1.829-5.702 4.084-7.63 1.797-1.611 4.112-2.551 6.479-2.926M10.696 1.724c-4.822 0.502-8.876 4.841-9.001 9.696-0.217 3.356 1.386 6.734 4.077 8.738 2.44 1.861 5.734 2.527 8.705 1.761 3.319-0.811 6.13-3.393 7.218-6.63 0.956-2.734 0.676-5.864-0.752-8.382-1.959-3.586-6.194-5.748-10.248-5.182z"></path>
<path fill="#fff" d="M10.696 1.724c4.054-0.566 8.29 1.597 10.248 5.182 1.428 2.518 1.708 5.648 0.752 8.382-1.088 3.237-3.899 5.819-7.218 6.63-2.971 0.766-6.266 0.1-8.705-1.761-2.691-2.003-4.294-5.381-4.077-8.738 0.125-4.855 4.179-9.194 9.001-9.696M4.55 6.684c-0.2 0.762-1.389 1.666-0.59 2.385 0.426-0.272 0.843-0.557 1.263-0.838 0.348 0.992 0.689 1.985 1.028 2.98-0.263-0.028-0.527-0.059-0.791-0.089-0.060 0.231-0.121 0.463-0.181 0.694 0.294 0.039 0.587 0.077 0.88 0.116-0.508 0.619-1.068 1.192-1.597 1.792 0.453 0.771 0.712 1.672 1.335 2.332 1.049-0.656-0.947-1.716-0.118-2.447 0.552-0.548 0.996-1.576 1.926-1.401 1.956 0.353 3.93 0.59 5.897 0.866 0.34 0.064 0.796 0.158 0.909 0.539 0.083 0.801-0.035 1.612 0.049 2.413 0.040 0.331 0.601 0.524 0.724 0.15 0.063-0.954 0.001-1.914 0.022-2.87 0.904 0.044 2.102 0.72 2.652-0.341-1.23-0.219-2.501-0.287-3.696-0.655-1.078-0.539-0.702-1.901-0.744-2.867 1.174 0.385-0.212 2.426 1.3 2.621-0.040-1.043 0.13-2.231-0.502-3.133-1.901-0.067-3.812 0.013-5.715 0.004-0.38-0.375-0.766-0.744-1.15-1.117 0.199-0.271 0.408-0.565 0.329-0.919-0.082-0.031-0.246-0.091-0.327-0.122-0.182 0.177-0.365 0.356-0.545 0.534-0.767-0.684-1.582-1.47-2.689-1.458-0.43 0.285 0.096 0.639 0.332 0.832M18.81 10.683c-0.041 0.708-0.010 1.419-0.035 2.129 1.097-0.191 2.287 0.599 2.281 1.77 0.208-0.003 0.373-0.101 0.402-0.32 0.3-1.188 0.166-2.431 0.059-3.636-0.897 0.032-1.835-0.095-2.707 0.056M7.625 16.175c-0.072 0.468 0.77 0.444 0.748-0.001 0.049-1.146-0.064-2.293-0.065-3.441-0.225-0.027-0.449-0.054-0.674-0.080-0.024 1.173-0.019 2.347-0.009 3.522M18.655 13.155c-1.146 0.344-1.482 1.997-0.553 2.754 0.834 0.818 2.392 0.35 2.659-0.78 0.4-1.195-0.938-2.453-2.106-1.974M13.226 13.566c-0.391 0.807-0.851 1.581-1.212 2.403-0.144 0.361 0.465 0.631 0.643 0.287 0.485-0.852 0.893-1.748 1.346-2.618-0.259-0.024-0.519-0.050-0.778-0.072z"></path>
<path fill="#fff" d="M18.902 13.903c0.622-0.289 1.363 0.459 1.079 1.081-0.182 0.562-0.99 0.757-1.389 0.307-0.449-0.404-0.259-1.206 0.309-1.387z"></path>
<path fill="#1f1a17" d="M4.55 6.684c-0.236-0.193-0.762-0.547-0.332-0.832 1.106-0.012 1.921 0.774 2.689 1.458 0.181-0.178 0.363-0.357 0.545-0.534 0.081 0.031 0.245 0.091 0.327 0.122 0.080 0.354-0.13 0.648-0.329 0.919 0.384 0.372 0.77 0.742 1.15 1.117 1.903 0.009 3.814-0.071 5.715-0.004 0.631 0.902 0.462 2.089 0.502 3.133-1.512-0.195-0.126-2.236-1.3-2.621 0.042 0.966-0.334 2.328 0.744 2.867 1.195 0.367 2.467 0.435 3.696 0.655-0.549 1.061-1.748 0.385-2.652 0.341-0.021 0.956 0.041 1.916-0.022 2.87-0.123 0.373-0.684 0.181-0.724-0.15-0.083-0.801 0.035-1.612-0.049-2.413-0.113-0.381-0.569-0.475-0.909-0.539-1.967-0.276-3.941-0.513-5.897-0.866-0.93-0.175-1.375 0.853-1.926 1.401-0.829 0.732 1.167 1.792 0.118 2.447-0.622-0.66-0.882-1.561-1.335-2.332 0.529-0.599 1.088-1.173 1.597-1.792-0.294-0.039-0.587-0.077-0.88-0.115 0.060-0.231 0.121-0.463 0.181-0.694 0.263 0.030 0.527 0.060 0.791 0.089-0.339-0.995-0.68-1.988-1.028-2.98-0.42 0.281-0.837 0.566-1.263 0.838-0.798-0.719 0.39-1.622 0.59-2.385z"></path>
<path fill="#1f1a17" d="M18.81 10.683c0.871-0.151 1.81-0.024 2.707-0.056 0.107 1.205 0.241 2.447-0.059 3.636-0.028 0.218-0.194 0.317-0.402 0.32 0.006-1.17-1.183-1.961-2.281-1.77 0.024-0.71-0.006-1.421 0.035-2.129z"></path>
<path fill="#1f1a17" d="M7.625 16.175c-0.010-1.174-0.015-2.349 0.009-3.522 0.225 0.026 0.449 0.053 0.674 0.080 0.001 1.147 0.114 2.295 0.065 3.441 0.022 0.445-0.82 0.47-0.748 0.001z"></path>
<path fill="#1f1a17" d="M18.655 13.155c1.168-0.479 2.507 0.779 2.106 1.974-0.267 1.131-1.825 1.598-2.659 0.78-0.929-0.757-0.593-2.41 0.553-2.754M18.902 13.903c-0.569 0.181-0.759 0.983-0.309 1.387 0.399 0.45 1.206 0.255 1.389-0.307 0.284-0.621-0.457-1.369-1.079-1.081z"></path>
<path fill="#1f1a17" d="M13.226 13.566c0.259 0.022 0.519 0.047 0.778 0.072-0.453 0.87-0.861 1.766-1.346 2.618-0.178 0.344-0.787 0.073-0.643-0.287 0.361-0.821 0.82-1.595 1.212-2.403z"></path>
</svg>
