<svg xmlns="http://www.w3.org/2000/svg" width="24" height="24">
    <path d="M11.857 0h.109C15.986 3.947 19.982 7.919 24 11.868v.089C20.026 15.961 16.069 19.985 12.104 24h-.07C8.027 20.032 4.007 16.078-.001 12.11v-.084C3.936 8.002 7.906 4.01 11.856 0zM.306 12.065c1.655 1.631 3.304 3.268 4.962 4.894.412-.394.816-.793 1.219-1.195a7383.51 7383.51 0 0 0 9.362-9.192c.406-.395.809-.792 1.216-1.187a796.094 796.094 0 0 0-5.15-5.081A6773.399 6773.399 0 0 0 .306 12.065zm18.326-5.128c-.404.397-.811.793-1.212 1.194a5410.877 5410.877 0 0 0-9.364 9.197c-.409.391-.812.79-1.211 1.192 1.745 1.717 3.474 3.451 5.233 5.152 3.857-3.911 7.706-7.829 11.58-11.722-1.609-1.726-3.35-3.344-5.027-5.012z"/>
    <path fill="#fff" d="M.306 12.065C4.17 8.139 8.041 4.221 11.915.304a771.374 771.374 0 0 1 5.15 5.081c-.407.395-.81.792-1.216 1.187-1.273-1.242-2.524-2.507-3.804-3.74-.118-.145-.238.056-.328.125-2.978 3.049-6.008 6.052-8.969 9.119 1.243 1.232 2.486 2.465 3.738 3.689-.403.402-.808.802-1.219 1.195-1.658-1.626-3.307-3.263-4.962-4.894zM18.632 6.937c1.676 1.668 3.418 3.287 5.027 5.012-3.874 3.893-7.723 7.811-11.58 11.722-1.759-1.7-3.488-3.434-5.233-5.152.398-.402.802-.8 1.211-1.192 1.361 1.295 2.645 2.674 4.037 3.934 3.06-3.097 6.114-6.199 9.174-9.298-1.238-1.319-2.566-2.555-3.847-3.833.401-.401.808-.797 1.212-1.194z"/>
    <path fill="#ff0" d="M11.718 2.956c.09-.068.21-.27.328-.125 1.28 1.234 2.531 2.498 3.804 3.74a9007.602 9007.602 0 0 1-9.362 9.192 722.35 722.35 0 0 1-3.738-3.689c2.96-3.067 5.99-6.07 8.969-9.119zM8.057 17.328c3.116-3.07 6.24-6.134 9.364-9.197 1.282 1.278 2.609 2.514 3.847 3.833-3.06 3.098-6.114 6.2-9.174 9.298-1.392-1.26-2.676-2.639-4.037-3.934z"/>
</svg>
