<?xml version="1.0" encoding="utf-8"?>
<!-- Generated by IcoMoon.io -->
<!DOCTYPE svg PUBLIC "-//W3C//DTD SVG 1.1//EN" "http://www.w3.org/Graphics/SVG/1.1/DTD/svg11.dtd">
<svg version="1.1" xmlns="http://www.w3.org/2000/svg" xmlns:xlink="http://www.w3.org/1999/xlink" width="63" height="24" viewBox="0 0 63 24">
<path fill="#fff" d="M1.944 23.865c-1.036-0.002-1.866-0.907-1.865-1.957l0.026-19.901c0.002-1.050 0.876-1.928 1.912-1.927l58.792 0.084c1.036 0 1.825 0.827 1.823 1.877v19.899c-0.001 1.050-0.902 1.98-1.938 1.98l-58.75-0.055z"></path>
<path fill="#2163ad" d="M0.85 22.132l0.028-20.128c0-0.525 0.422-0.951 0.94-0.951l58.941-0.082c0.518 0.002 1.094 0.401 1.094 0.926l-0.028 20.295c0 0.527-0.422 0.98-0.94 0.98l-59.099-0.086c-0.518 0-0.938-0.426-0.936-0.953z"></path>
<path fill="#fff" d="M55.629 12.053c0 0.090-0.045 0.246-0.105 0.292l-9.543 7.166c-0.168 0.126-0.36 0.128-0.539 0.017-0.181-0.115-0.267-0.292-0.224-0.502l0.876-4.344-38.629-0.053 0.006-5.287 38.629 0.055-0.863-4.346c-0.041-0.21 0.045-0.388 0.226-0.502 0.179-0.111 0.371-0.107 0.541 0.019l9.522 7.194c0.045 0.034 0.104 0.212 0.104 0.29z"></path>
</svg>
