<svg xmlns="http://www.w3.org/2000/svg" width="24" height="24">
    <path fill="#fff" d="M3.126 0h17.745c.489.153.757.684.747 1.172v21.655c.009.488-.258 1.017-.746 1.172H3.13c-.489-.153-.757-.684-.748-1.172V1.172C2.372.684 2.639.156 3.126 0zm.503.592c-.47.097-.751.593-.764 1.045-.002 6.892 0 13.785-.001 20.677-.001.403.195.829.56 1.023.2.11.435.087.654.089l16.128-.001c.55.006.92-.555.928-1.061.003-6.893 0-13.785.001-20.678 0-.403-.195-.829-.561-1.023-.214-.117-.466-.084-.7-.088H3.841a1.17 1.17 0 0 0-.213.017z"/>
    <path fill="#fff" d="M4.049 1.195c.07-.016.143-.019.216-.02h15.472c.565-.029.934.559.924 1.072.002 6.502.002 13.005 0 19.507.006.495-.332 1.065-.876 1.07H4.215c-.544-.004-.882-.575-.875-1.07-.002-6.486 0-12.972-.001-19.458-.012-.459.233-.983.71-1.1zm1.209 1.813c-.32.292-.324.865.008 1.15.335.293.81.317 1.173.557.238.141.192.535-.062.63-.374.167-.812-.058-.963-.423-.172.066-.346.127-.517.196.223.798 1.305 1.075 1.938.59.406-.306.455-.979.087-1.334-.33-.321-.814-.363-1.2-.584-.162-.087-.177-.337-.022-.439a.61.61 0 0 1 .847.238c.165-.058.331-.113.497-.168-.189-.756-1.263-.907-1.786-.415zm2.675-.233c-.007 1.041.001 2.083-.005 3.124.187-.003.374-.002.561-.001.005-.391 0-.782.003-1.172.443-.028.93.089 1.33-.157.507-.302.593-1.082.196-1.507-.213-.221-.533-.291-.829-.29-.419.001-.837-.004-1.255.003zm2.959.003c-.008 1.04-.001 2.079-.004 3.119.71-.002 1.42.002 2.13-.002.003-.18.004-.36-.001-.54-.521-.006-1.043 0-1.564-.003v-.787c.301 0 .603.001.904-.001.005-.178.005-.355.003-.532-.303-.002-.606 0-.908-.001v-.712c.489 0 .979.002 1.469-.001.004-.18.004-.36 0-.54-.677-.004-1.353-.005-2.03.001zm2.853 0c-.007 1.04.002 2.08-.004 3.12.71-.007 1.42.003 2.13-.005.005-.18.005-.36 0-.539-.522-.006-1.045 0-1.567-.003v-.787h.904c.01-.178.008-.356.007-.533-.304-.002-.607 0-.911-.001v-.712c.49-.004.981.006 1.471-.005.004-.179.004-.358 0-.537-.677-.003-1.353-.006-2.03.001zm2.842-.003c-.002 1.041-.004 2.082.001 3.122.655-.032 1.415.137 1.956-.336.649-.603.658-1.773.048-2.406-.537-.516-1.333-.356-2.005-.381zM6.353 7.419c-.006 1.038-.002 2.076-.002 3.114.682.002 1.364.001 2.046.001v-.546c-.494-.005-.987 0-1.48-.002-.003-.855.003-1.711-.003-2.566a13.068 13.068 0 0 0-.56 0zm2.685-.001c-.004 1.039-.001 2.078-.001 3.116.188.001.377.002.565-.001.003-1.039.004-2.077 0-3.116a11.783 11.783 0 0 0-.564.001zm1.478-.001c-.007 1.039-.002 2.078-.003 3.117h.563c.001-.623.005-1.246-.003-1.87.276.654.567 1.301.854 1.95.282-.653.592-1.296.85-1.959-.014.626-.003 1.252-.006 1.878.188.001.376.001.564-.001.003-1.039.006-2.078-.001-3.117-.18-.002-.359-.001-.539 0-.289.666-.598 1.323-.863 1.998-.261-.674-.576-1.326-.852-1.994a8.188 8.188 0 0 0-.565-.002zm3.738-.002c-.001 1.041.001 2.081-.001 3.121.185-.002.37-.001.555 0-.001-1.04.001-2.08-.001-3.12a33.98 33.98 0 0 0-.553-.001zm1.274-.005c-.003.181-.003.363 0 .544.29.003.58 0 .87.002l.001 2.577h.563c.003-.859 0-1.717.001-2.577h.865c.001-.182.001-.365-.001-.547-.766-.001-1.532-.003-2.299.001zM5.331 11.525c-.242.038-.543.19-.542.471.001 2.893-.002 5.785.001 8.678.037.317.411.452.691.453h13.038c.28-.001.653-.136.69-.453.004-2.892.001-5.785.002-8.678 0-.296-.324-.444-.577-.477-.543-.045-1.091.018-1.633-.034h-.064a7.78 7.78 0 0 1-1.202.001l-.063-.001a7.92 7.92 0 0 1-1.203.002 1.284 1.284 0 0 0-.063-.002c-1.68.035-3.366.031-5.046.001l-.064-.001c-.399.033-.803.03-1.202.002l-.063-.002c-.412.033-.83.032-1.242 0h-.03c-.474.055-.954-.015-1.428.04z"/>
    <path fill="#fff" d="M8.492 3.319c.293.008.589-.019.881.013.393.074.416.717.036.826-.302.044-.612.009-.917.02V3.32zM17.147 3.318c.356.01.79-.075 1.052.234.348.442.347 1.16-.031 1.584-.263.282-.675.208-1.02.216V3.318z"/>
    <path d="M3.629.592a1.17 1.17 0 0 1 .213-.017h16.033c.234.004.486-.03.7.088.366.194.561.62.561 1.023-.001 6.893.001 13.785-.001 20.678-.008.506-.378 1.067-.928 1.061l-16.128.001c-.219-.001-.454.021-.654-.089-.365-.194-.561-.62-.56-1.023.001-6.892-.001-13.785.001-20.677.013-.453.294-.948.764-1.045zm.42.603c-.477.117-.722.641-.71 1.1.001 6.486-.001 12.972.001 19.458-.007.495.331 1.066.875 1.07h15.57c.544-.004.881-.575.876-1.07.002-6.503.002-13.005 0-19.507.009-.513-.36-1.101-.924-1.072H4.265a1.047 1.047 0 0 0-.216.02z"/>
    <path d="M5.258 3.008c.523-.492 1.597-.341 1.786.415-.166.054-.332.11-.497.168a.61.61 0 0 0-.847-.238c-.155.102-.14.352.022.439.386.221.87.263 1.2.584.368.355.32 1.028-.087 1.334-.633.485-1.715.208-1.938-.59.171-.069.345-.13.517-.196.151.365.59.59.963.423.255-.096.3-.489.062-.63-.363-.24-.839-.264-1.173-.557-.332-.285-.328-.857-.008-1.15zM7.933 2.775c.418-.007.837-.002 1.255-.003.296 0 .616.069.829.29.397.425.311 1.205-.196 1.507-.4.245-.887.129-1.33.157-.002.39.002.781-.003 1.172-.187-.001-.374-.002-.561.001.006-1.041-.002-2.083.005-3.124zm.559.544v.858c.305-.01.615.024.917-.02.381-.109.358-.752-.036-.826-.292-.031-.588-.005-.881-.013zM10.892 2.778c.676-.006 1.353-.005 2.03-.001.004.18.004.36 0 .54-.49.003-.979.001-1.469.001v.712c.303.002.606-.001.908.001.001.178.001.355-.003.532-.301.002-.603 0-.904.001a68.82 68.82 0 0 0 0 .787c.521.002 1.042-.003 1.564.003.005.18.004.36.001.54-.71.004-1.42 0-2.13.002.003-1.04-.005-2.079.004-3.119zM13.745 2.778c.677-.007 1.353-.004 2.03-.001.004.179.004.358 0 .537-.49.01-.981.001-1.471.005v.712c.303.001.607-.001.911.001.001.178.004.356-.007.533h-.904v.787c.522.002 1.045-.003 1.567.003.004.18.005.359 0 .539-.71.008-1.42-.002-2.13.005.006-1.04-.002-2.08.004-3.12zM16.587 2.775c.673.025 1.469-.135 2.005.381.61.633.6 1.802-.048 2.406-.541.473-1.301.304-1.956.336a464.16 464.16 0 0 1-.001-3.122zm.56.543v2.034c.345-.007.757.067 1.02-.216.378-.424.379-1.142.031-1.584-.262-.309-.696-.224-1.052-.234zM6.353 7.419c.187-.004.373-.004.56 0 .007.855 0 1.711.003 2.566.494.002.987-.002 1.48.002.002.182.001.364 0 .546-.682 0-1.364.001-2.046-.001 0-1.038-.004-2.076.002-3.114zM9.038 7.418c.188-.005.376-.005.564-.001.004 1.039.003 2.077 0 3.116-.188.003-.377.002-.565.001 0-1.039-.002-2.077.001-3.116zM10.516 7.417a8.19 8.19 0 0 1 .565.002c.276.668.591 1.32.852 1.994.265-.675.574-1.333.863-1.998.18-.001.359-.002.539 0 .007 1.039.004 2.078.001 3.117-.188.003-.376.003-.564.001.003-.626-.008-1.252.006-1.878-.258.663-.569 1.305-.85 1.959-.286-.649-.578-1.297-.854-1.95.008.623.004 1.246.003 1.87h-.563c.001-1.039-.004-2.078.003-3.117zM14.254 7.415c.184-.001.369-.001.553.001.002 1.04 0 2.079.001 3.12h-.555c.002-1.04 0-2.08.001-3.121zM15.528 7.41c.766-.004 1.533-.002 2.299-.001.003.182.002.364.001.547h-.865c-.002.859.001 1.718-.001 2.577-.188.002-.375.001-.563 0l-.001-2.577c-.29-.001-.58.001-.87-.002a16.442 16.442 0 0 1 0-.544zM5.331 11.525c.474-.056.954.015 1.428-.04-.233.05-.441.23-.484.47-.062.347.326.679.66.567a.514.514 0 0 0 .331-.658c-.073-.205-.272-.331-.476-.379.412.032.83.033 1.242 0-.233.05-.44.231-.484.47-.062.346.323.676.656.568.271-.075.445-.403.332-.666-.072-.191-.255-.309-.441-.37a7.78 7.78 0 0 0 1.202-.002c-.231.054-.436.236-.477.475-.057.344.324.67.655.564.275-.075.449-.409.331-.674-.075-.189-.257-.306-.445-.363 1.68.03 3.366.033 5.046-.001-.232.051-.437.232-.481.47-.061.345.321.675.653.569.274-.074.445-.404.334-.668-.072-.191-.255-.309-.443-.368.399.028.803.03 1.203-.002-.231.054-.435.237-.476.476-.055.34.316.662.645.566.268-.068.446-.379.353-.643-.067-.206-.26-.338-.459-.397.399.03.803.031 1.202-.001-.228.059-.431.24-.469.478-.056.353.348.682.682.551a.514.514 0 0 0 .313-.639c-.069-.204-.263-.335-.463-.39.542.052 1.09-.011 1.633.034.253.032.577.181.577.477-.001 2.893.002 5.785-.002 8.678-.037.317-.41.452-.69.453H5.481c-.28-.001-.653-.136-.691-.453-.003-2.892 0-5.785-.001-8.678-.001-.281.3-.433.542-.471zm.028 1.293a.59.59 0 0 0-.353.401c-.082.341.282.681.616.602a.515.515 0 0 0 .398-.462c.032-.335-.334-.658-.662-.541zm5.107-.006c-.346.102-.521.601-.226.854.224.263.682.194.822-.121.204-.366-.198-.856-.596-.733zm2.534.009a.589.589 0 0 0-.343.397c-.085.352.303.702.644.597a.518.518 0 0 0 .37-.458c.03-.337-.343-.66-.671-.536zm5.108-.006a.58.58 0 0 0-.366.434c-.055.335.304.653.63.57a.517.517 0 0 0 .39-.458c.031-.333-.327-.653-.654-.546zM5.495 14.083c-.384.003-.664.526-.384.822.205.28.673.265.841-.045.215-.326-.084-.787-.457-.777zm7.646 0c-.244.005-.444.218-.49.448-.059.345.327.664.656.558.19-.055.34-.23.361-.427.04-.296-.232-.584-.527-.579zm3.798.002c-.239.016-.431.228-.471.456-.041.273.194.521.452.565a.512.512 0 0 0 .566-.432c.049-.306-.241-.609-.547-.589zm1.266 0c-.228.019-.409.217-.46.431-.07.34.3.668.63.579a.512.512 0 0 0 .383-.421c.05-.309-.245-.615-.553-.589zm-12.89 1.312c-.323.138-.443.625-.139.847.251.261.73.126.823-.217.137-.382-.314-.807-.684-.63zm1.267.002a.596.596 0 0 0-.307.397c-.065.347.324.674.656.565a.51.51 0 0 0 .364-.477c.01-.344-.392-.644-.713-.485zm1.306-.014c-.323.117-.478.588-.197.83.231.274.71.19.837-.143.183-.376-.254-.842-.64-.687zm1.266.003a.583.583 0 0 0-.334.413c-.06.343.32.663.648.564a.517.517 0 0 0 .374-.473c.012-.336-.366-.637-.688-.503zm3.803.012c-.216.111-.373.376-.288.619.085.232.346.409.596.354a.51.51 0 0 0 .407-.481c.015-.347-.391-.653-.714-.492zm2.572-.012a.586.586 0 0 0-.333.414c-.059.341.319.66.646.563a.514.514 0 0 0 .376-.474c.012-.336-.367-.637-.689-.503zm2.533.005c-.227.106-.392.386-.299.634.09.233.359.407.61.341a.512.512 0 0 0 .39-.478c.013-.34-.379-.644-.701-.497zm-12.706 1.26c-.333.11-.496.594-.207.839.227.262.689.19.825-.128.2-.373-.225-.854-.618-.711zm5.066.01c-.309.123-.461.571-.197.815.227.281.715.209.847-.128.189-.381-.26-.856-.65-.687zm2.575-.007a.583.583 0 0 0-.344.405c-.073.351.322.683.656.573a.512.512 0 0 0 .36-.434c.042-.343-.34-.671-.672-.545zm1.268.002a.581.581 0 0 0-.339.407c-.068.347.318.675.65.571a.51.51 0 0 0 .367-.441c.038-.344-.347-.669-.678-.538zm3.801.007a.586.586 0 0 0-.324.417c-.053.337.316.649.641.558a.51.51 0 0 0 .378-.435c.046-.354-.359-.69-.695-.54zm-12.707 1.26a.574.574 0 0 0-.361.449c-.03.266.197.503.448.549a.51.51 0 0 0 .568-.408c.077-.352-.311-.711-.655-.59zm5.106-.005c-.333.097-.517.57-.243.826.218.273.689.223.837-.097.211-.366-.197-.855-.593-.73zm2.535.008a.572.572 0 0 0-.352.445c-.031.263.192.497.438.548a.51.51 0 0 0 .579-.415c.069-.352-.323-.707-.665-.578zm5.107-.005c-.325.102-.504.563-.24.819.216.275.685.233.839-.084.22-.368-.197-.869-.598-.735zM6.669 19.187a.571.571 0 0 0-.389.406c-.082.337.276.67.606.599a.51.51 0 0 0 .402-.413c.066-.336-.286-.677-.619-.592zm1.266.002c-.345.086-.538.575-.256.834.224.276.702.214.841-.114.193-.359-.2-.825-.585-.72zm1.268.002c-.34.09-.529.57-.254.83.221.276.698.221.841-.105.201-.361-.198-.838-.587-.725zm5.108-.002a.574.574 0 0 0-.382.408c-.078.333.272.66.599.597a.515.515 0 0 0 .412-.421c.06-.336-.296-.674-.628-.584zm1.267.002a.573.573 0 0 0-.385.45c-.034.273.203.519.463.558a.511.511 0 0 0 .555-.421c.064-.339-.299-.683-.633-.587zm1.267.001c-.332.095-.518.564-.25.823.218.278.695.23.843-.094.207-.365-.199-.851-.593-.729z"/>
    <path fill="#ccc" d="M6.759 11.485h.03c.204.048.404.174.476.379a.514.514 0 0 1-.331.658c-.334.112-.722-.219-.66-.567.044-.24.251-.42.484-.47zM8.031 11.484l.063.002c.187.06.369.179.441.37.112.263-.061.591-.332.666-.333.108-.718-.222-.656-.568.044-.239.251-.42.484-.47zM9.296 11.485l.064.001c.188.057.37.174.445.363.118.265-.056.599-.331.674-.331.106-.712-.22-.655-.564.041-.239.247-.421.477-.475zM14.406 11.485l.063.002c.187.06.37.178.443.368.111.264-.06.594-.334.668-.332.106-.714-.224-.653-.569.044-.238.249-.419.481-.47zM15.672 11.485l.063.001c.2.059.393.191.459.397.093.264-.086.575-.353.643-.329.097-.7-.226-.645-.566.04-.239.245-.421.476-.476zM16.937 11.485h.064c.2.055.394.186.463.39a.514.514 0 0 1-.313.639c-.334.131-.739-.198-.683-.551.038-.239.241-.42.469-.478zM5.359 12.818c.328-.116.694.206.662.541a.518.518 0 0 1-.398.462c-.334.079-.697-.261-.616-.602a.585.585 0 0 1 .353-.401zM10.466 12.812c.397-.123.8.367.596.733-.14.315-.598.384-.822.121-.295-.253-.12-.752.226-.854zM13 12.821c.328-.124.7.198.671.536a.518.518 0 0 1-.37.458c-.341.105-.729-.246-.644-.597a.589.589 0 0 1 .343-.397zM18.108 12.815c.327-.107.685.213.654.546a.516.516 0 0 1-.39.458c-.325.083-.685-.235-.63-.57a.584.584 0 0 1 .366-.434zM5.495 14.083c.373-.01.672.451.457.777-.168.31-.636.325-.841.045-.28-.296 0-.819.384-.822zM13.141 14.083c.294-.005.567.283.527.579a.514.514 0 0 1-.361.427c-.329.106-.715-.213-.656-.558.046-.23.247-.442.49-.448zM16.939 14.085c.306-.021.595.283.547.589a.51.51 0 0 1-.566.432c-.258-.045-.493-.293-.452-.565.04-.227.232-.439.471-.456zM18.205 14.085c.308-.025.603.28.553.589a.512.512 0 0 1-.383.421c-.33.088-.7-.239-.63-.579.051-.214.232-.412.46-.431zM5.315 15.397c.37-.178.822.247.684.63-.093.344-.572.479-.823.217-.304-.222-.185-.709.139-.847zM6.582 15.399c.322-.159.723.141.713.485a.51.51 0 0 1-.364.477c-.331.108-.721-.218-.656-.565a.596.596 0 0 1 .307-.397zM7.888 15.385c.387-.155.824.311.64.687-.127.333-.606.417-.837.143-.281-.241-.126-.712.197-.83zM9.154 15.388c.322-.134.699.168.688.503a.517.517 0 0 1-.374.473c-.328.099-.708-.221-.648-.564a.585.585 0 0 1 .334-.413zM12.957 15.4c.323-.161.729.145.714.492a.51.51 0 0 1-.407.481c-.249.055-.511-.122-.596-.354-.085-.242.072-.508.288-.619zM15.529 15.388c.322-.134.701.167.689.503a.515.515 0 0 1-.376.474c-.327.097-.705-.221-.646-.563a.584.584 0 0 1 .333-.414zM18.062 15.393c.322-.146.714.157.701.497a.512.512 0 0 1-.39.478c-.251.067-.52-.107-.61-.341-.093-.248.072-.528.299-.634zM5.356 16.653c.394-.143.818.338.618.711-.137.318-.598.389-.825.128-.289-.244-.126-.729.207-.839zM10.422 16.663c.39-.169.839.306.65.687-.132.337-.62.409-.847.128-.264-.243-.113-.692.197-.815zM12.997 16.656c.331-.126.714.202.672.545a.513.513 0 0 1-.36.434c-.335.11-.729-.222-.656-.573a.58.58 0 0 1 .344-.405zM14.265 16.658c.331-.131.717.194.678.538a.514.514 0 0 1-.367.441c-.332.103-.718-.225-.65-.571a.583.583 0 0 1 .339-.407zM18.066 16.665c.336-.15.741.186.695.54a.512.512 0 0 1-.378.435c-.324.091-.694-.22-.641-.558a.589.589 0 0 1 .324-.417zM5.359 17.925c.344-.121.732.238.655.59a.51.51 0 0 1-.568.408c-.25-.047-.478-.283-.448-.549a.577.577 0 0 1 .361-.449zM10.465 17.92c.396-.125.804.364.593.73-.148.32-.618.37-.837.097-.273-.256-.09-.729.243-.826zM13 17.928c.342-.128.735.226.665.578a.51.51 0 0 1-.579.415c-.247-.051-.469-.285-.438-.548a.574.574 0 0 1 .352-.445zM18.107 17.923c.401-.134.818.367.598.735-.153.317-.623.359-.839.084-.264-.256-.085-.717.24-.819zM6.669 19.187c.333-.084.685.257.619.592a.513.513 0 0 1-.402.413c-.33.071-.688-.262-.606-.599a.571.571 0 0 1 .389-.406zM7.935 19.189c.385-.105.778.361.585.72-.139.328-.617.39-.841.114-.281-.259-.089-.748.256-.834zM9.203 19.191c.389-.113.788.364.587.725-.142.326-.62.381-.841.105-.276-.259-.087-.74.254-.83zM14.311 19.189c.332-.09.689.248.628.584a.513.513 0 0 1-.412.421c-.327.063-.676-.264-.599-.597a.575.575 0 0 1 .382-.408zM15.578 19.191c.335-.096.697.248.633.587a.51.51 0 0 1-.555.421c-.26-.038-.497-.285-.463-.558a.573.573 0 0 1 .385-.45zM16.845 19.192c.394-.122.799.364.592.729-.148.324-.624.372-.843.094-.268-.259-.082-.728.25-.823z"/>
</svg>
