<?xml version="1.0" encoding="utf-8"?>
<!-- Generated by IcoMoon.io -->
<!DOCTYPE svg PUBLIC "-//W3C//DTD SVG 1.1//EN" "http://www.w3.org/Graphics/SVG/1.1/DTD/svg11.dtd">
<svg version="1.1" xmlns="http://www.w3.org/2000/svg" xmlns:xlink="http://www.w3.org/1999/xlink" width="24" height="24" viewBox="0 0 24 24">
<path fill="#176fc1" d="M11.278 0h1.333c2.622 0.164 5.196 1.147 7.184 2.876 2.563 2.168 4.123 5.45 4.205 8.806v0.91c-0.167 2.828-1.32 5.596-3.283 7.646-2.087 2.226-5.042 3.576-8.083 3.762h-1.249c-2.845-0.17-5.622-1.351-7.678-3.334-2.204-2.081-3.526-5.023-3.707-8.042v-1.050c0.067-1.376 0.335-2.749 0.856-4.028 1.192-3.020 3.671-5.501 6.691-6.694 1.188-0.482 2.458-0.725 3.731-0.852M9.029 1.242c-0.124 0.325-0.247 0.652-0.372 0.978 0.283 0.098 0.565 0.197 0.847 0.296-0.212 0.641-0.431 1.282-0.641 1.924-0.775-0.24-1.664-0.192-2.336 0.294-0.743 0.508-1.174 1.435-1.062 2.33 0.085 0.86 0.66 1.645 1.447 1.999 0.901 0.416 2.047 0.233 2.756-0.468 0.718-0.667 0.968-1.774 0.613-2.686-0.202-0.592-0.67-1.036-1.192-1.354 0.064-0.179 0.127-0.358 0.192-0.536 0.611 0.677 1.241 1.336 1.861 2.002-0.133 0.328-0.277 0.703-0.083 1.039 0.163 0.374 0.583 0.502 0.953 0.554l-0.061 0.132c0.356-0.257 0.75-0.502 0.91-0.936 0.091 0.001 0.274 0.004 0.365 0.005 0.055 0.703 0.334 1.404 0.884 1.864 0.794 0.709 2.057 0.803 2.951 0.229 0.781-0.478 1.254-1.409 1.168-2.322-0.067-1.024-0.836-1.955-1.831-2.209-0.515-0.151-1.056-0.078-1.564 0.065-0.192-0.415-0.379-0.833-0.574-1.247 0.074-0.13 0.15-0.26 0.226-0.391 0.316 0.058 0.63 0.158 0.954 0.149 0.422-0.096 0.37-0.799-0.074-0.799-0.635-0.019-1.283-0.071-1.912 0.036-0.3 0.464 0.43 0.479 0.724 0.556-0.042 0.073-0.126 0.218-0.169 0.292-1.469 0.005-2.939 0.005-4.409 0 0.074-0.223 0.148-0.448 0.22-0.672-0.274-0.109-0.55-0.21-0.827-0.31 0.071-0.186 0.142-0.371 0.212-0.557 0.571 0.008 1.146-0.050 1.716 0.001 0.27 0.162 0.467 0.46 0.811 0.473-0.175-0.301-0.44-0.528-0.698-0.756-0.668 0.012-1.337 0.022-2.005 0.025M11.753 7.784c0 0.072 0 0.216 0 0.288 0.281 0 0.562 0 0.842 0 0-0.074 0-0.222-0.001-0.296-0.28 0.005-0.56 0.007-0.841 0.008M10.718 9.499c-0.26 0.006-0.533 0.007-0.757 0.161 0.216 0.074 0.436 0.139 0.656 0.199-0.004 0.36 0.109 0.703 0.32 0.995-0.566 0.443-1.368 0.557-1.826 1.134-0.422 1.454-0.463 2.98-0.442 4.486 0.050 0.007 0.154 0.022 0.205 0.029 0 0.251-0.049 0.512 0.030 0.756 0.107 0.296 0.49 0.149 0.655-0.018 0.016-0.236-0.12-0.442-0.197-0.656 0.22-0.962 0.050-1.991 0.434-2.922 0.17 0.654 0.365 1.366 0.115 2.027-0.125 0.32-0.204 0.658-0.181 1.004 0.314 0.17 0.194 0.544 0.224 0.83 0.006 1.423 0.287 2.824 0.462 4.231-0.169 0.050-0.342 0.090-0.503 0.162-0.208 0.089-0.121 0.332-0.038 0.479 0.221 0.38 0.617 0.612 0.986 0.827 0.328 0.122 0.398-0.32 0.427-0.545 0.076-1.037-0.060-2.077-0.215-3.102-0.082-0.562-0.030-1.138 0.139-1.68 0.194 0.379 0.479 0.744 0.492 1.187 0.041 0.896 0.090 1.795 0.031 2.692-0.071 0.098-0.134 0.202-0.193 0.307 0.113 0.36 0.354 0.664 0.605 0.937 0.164 0.174 0.43 0.097 0.642 0.127-0.028-0.371-0.127-0.73-0.289-1.063 0.074-0.014 0.224-0.043 0.299-0.058 0.062-1.061 0.020-2.124 0.053-3.186 0.019-0.734-0.139-1.472-0.497-2.118 0.118-0.090 0.287-0.136 0.354-0.281-0.068-0.401-0.263-0.77-0.313-1.176-0.086-0.538 0.012-1.079 0.126-1.603 0.1 0.96 0.43 1.877 0.942 2.694 0.148 0.409 0.227 0.838 0.365 1.249 0.13 0.404 0.612 0.461 0.948 0.612-0.38 0.458-0.802 0.88-1.258 1.262 0.167 0.245 0.499 0.452 0.402 0.792-0.038 0.622-0.166 1.273 0.083 1.87-0.18 0.133-0.287 0.371-0.122 0.564 0.114 0.258 0.625 0.359 0.626-0.017-0.032-0.728 0.002-1.46 0.244-2.156 0.048 0.324 0.040 0.682 0.257 0.949 0.179 0.229 0.361 0.468 0.352 0.778-0.104 0.16-0.296 0.31-0.218 0.524 0.413 0.18 0.676-0.31 0.916-0.562-0.16-0.324-0.373-0.625-0.474-0.974-0.040-0.286 0.047-0.574 0.16-0.834 0.151-0.125 0.343-0.196 0.51-0.3l-0.029 0.212c0.367 0.026 0.482-0.278 0.511-0.578 0.113-0.21 0.289-0.414 0.26-0.667-0.019-0.709-0.214-1.438-0.69-1.979 0.21-0.208 0.414-0.468 0.354-0.785-0.044-0.577-0.79-0.906-1.252-0.563-0.545 0.366-0.422 1.241 0.126 1.547-0.534 0.013-1.194 0.060-1.5-0.48 0.203-0.312 0.116-0.64-0.082-0.925-0.066-0.547-0.282-1.056-0.454-1.576-0.175-0.676-0.122-1.382-0.16-2.074-0.017-0.167 0.011-0.373-0.15-0.48-0.43-0.362-0.976-0.529-1.476-0.763 0.025-0.328 0.271-0.581 0.404-0.87 0.18 0.007 0.36 0.013 0.54 0.016-0.137-0.167-0.302-0.306-0.474-0.433 0.029-0.24 0.064-0.48 0.089-0.72-0.403-0.005-0.812-0.036-1.177-0.228-0.149 0.233-0.27 0.481-0.379 0.733z"></path>
<path fill="#176fc1" d="M9.493 3.329c1.44-0.002 2.88 0 4.32 0-0.514 0.809-1.015 1.627-1.537 2.431-0.176-0.022-0.352-0.042-0.527-0.061-0.038-0.149-0.076-0.298-0.113-0.446 0.085-0.002 0.257-0.008 0.342-0.011-0.002-0.070-0.006-0.21-0.008-0.28-0.263 0.086-0.524 0.172-0.788 0.254 0.084 0.011 0.252 0.031 0.336 0.042 0.044 0.239 0.109 0.498-0.136 0.644-0.671-0.714-1.334-1.434-2.012-2.142 0.041-0.144 0.083-0.288 0.124-0.432z"></path>
<path fill="#176fc1" d="M12.539 5.903c0.526-0.817 1.024-1.652 1.564-2.461 0.163 0.37 0.328 0.738 0.492 1.106-0.734 0.425-1.249 1.17-1.357 2.015-0.12-0.004-0.239-0.007-0.359-0.011-0.106-0.221-0.218-0.437-0.34-0.649z"></path>
<path fill="#176fc1" d="M5.89 6.713c0.014-0.89 0.685-1.716 1.552-1.918 0.422-0.124 0.86-0.034 1.278 0.056-0.245 0.72-0.383 1.517-0.971 2.053 0.3 0.026 0.554-0.161 0.676-0.425 0.227-0.479 0.346-0.998 0.526-1.495 0.325 0.227 0.647 0.485 0.82 0.851 0.44 0.811 0.238 1.906-0.472 2.498-0.526 0.473-1.301 0.631-1.973 0.415-0.862-0.258-1.488-1.135-1.435-2.036z"></path>
<path fill="#176fc1" d="M15.013 4.841c0.758-0.223 1.642-0.090 2.196 0.505 0.822 0.791 0.769 2.26-0.11 2.986-0.744 0.686-1.997 0.677-2.734-0.016-0.434-0.367-0.629-0.926-0.707-1.474 0.75 0.011 1.498 0.066 2.248 0.066-0.257-0.707-0.604-1.375-0.893-2.068z"></path>
<path fill="#176fc1" d="M13.674 6.574c0.115-0.677 0.516-1.266 1.099-1.626 0.259 0.566 0.512 1.134 0.766 1.703-0.622-0.023-1.244-0.042-1.865-0.077z"></path>
<path fill="#176fc1" d="M11.804 5.917c0.080 0.006 0.24 0.018 0.32 0.024-0.047 0.131-0.097 0.259-0.148 0.389-0.173-0.115-0.354-0.217-0.517-0.344 0.097 0.046 0.292 0.137 0.39 0.184l-0.046-0.252z"></path>
<path fill="#176fc1" d="M12.137 6.522c0.1-0.139 0.2-0.278 0.301-0.416 0.061 0.144 0.122 0.289 0.182 0.434-0.161-0.006-0.322-0.012-0.484-0.018z"></path>
<path fill="#176fc1" d="M11.275 6.181c0.382 0.311 0.678 0.714 0.695 1.226-0.234-0.088-0.526-0.125-0.665-0.361-0.197-0.254-0.089-0.583-0.030-0.865z"></path>
<path fill="#176fc1" d="M11.978 6.769c0.223 0.012 0.446 0.025 0.67 0.041-0.154 0.208-0.325 0.401-0.523 0.566-0.052-0.202-0.1-0.404-0.146-0.607z"></path>
<path fill="#176fc1" d="M16.142 18.422c0.143 0.194 0.344 0.388 0.318 0.653-0.037 0.346-0.32 0.601-0.374 0.944-0.036 0.008-0.108 0.023-0.145 0.030-0.018-0.55 0.016-1.105 0.202-1.627z"></path>
<path fill="#fff" d="M9.029 1.242c0.668-0.004 1.337-0.013 2.005-0.025 0.258 0.228 0.523 0.455 0.698 0.756-0.344-0.013-0.541-0.311-0.811-0.473-0.57-0.052-1.145 0.007-1.716-0.001-0.071 0.186-0.142 0.371-0.212 0.557 0.277 0.1 0.553 0.2 0.827 0.31-0.072 0.224-0.145 0.449-0.22 0.672 1.47 0.005 2.94 0.005 4.409 0 0.043-0.073 0.127-0.218 0.169-0.292-0.294-0.077-1.024-0.091-0.724-0.556 0.629-0.107 1.277-0.055 1.912-0.036 0.444 0 0.497 0.703 0.074 0.799-0.324 0.010-0.638-0.091-0.954-0.149-0.076 0.131-0.151 0.262-0.226 0.391 0.194 0.414 0.382 0.832 0.574 1.247 0.508-0.143 1.049-0.216 1.564-0.065 0.995 0.254 1.764 1.186 1.831 2.209 0.086 0.913-0.386 1.844-1.168 2.322-0.894 0.574-2.156 0.48-2.951-0.229-0.551-0.46-0.829-1.16-0.884-1.864-0.091-0.001-0.274-0.004-0.365-0.005-0.16 0.434-0.553 0.679-0.91 0.936l0.061-0.132c-0.37-0.053-0.79-0.18-0.953-0.554-0.194-0.336-0.050-0.712 0.083-1.039-0.62-0.666-1.25-1.325-1.861-2.002-0.065 0.179-0.128 0.358-0.192 0.536 0.522 0.318 0.99 0.762 1.192 1.354 0.355 0.912 0.104 2.018-0.613 2.686-0.709 0.701-1.855 0.884-2.756 0.468-0.787-0.354-1.362-1.139-1.447-1.999-0.112-0.895 0.319-1.823 1.062-2.33 0.672-0.486 1.561-0.534 2.336-0.294 0.21-0.642 0.428-1.283 0.641-1.924-0.282-0.1-0.564-0.198-0.847-0.296 0.125-0.326 0.248-0.653 0.372-0.978M9.493 3.329c-0.041 0.144-0.083 0.288-0.124 0.432 0.678 0.708 1.342 1.428 2.012 2.142 0.245-0.146 0.18-0.406 0.136-0.644-0.084-0.011-0.252-0.031-0.336-0.042 0.264-0.083 0.526-0.168 0.788-0.254 0.002 0.070 0.006 0.21 0.008 0.28-0.085 0.002-0.257 0.008-0.342 0.011 0.037 0.149 0.074 0.298 0.113 0.446 0.175 0.019 0.35 0.040 0.527 0.061 0.522-0.804 1.024-1.622 1.537-2.431-1.44 0-2.88-0.002-4.32 0M12.539 5.903c0.121 0.212 0.234 0.428 0.34 0.649 0.12 0.004 0.239 0.007 0.359 0.011 0.108-0.845 0.623-1.59 1.357-2.015-0.164-0.368-0.329-0.737-0.492-1.106-0.54 0.809-1.038 1.644-1.564 2.461M5.89 6.713c-0.053 0.901 0.574 1.778 1.435 2.036 0.672 0.216 1.447 0.058 1.973-0.415 0.709-0.593 0.912-1.687 0.472-2.498-0.173-0.366-0.494-0.624-0.82-0.851-0.18 0.497-0.299 1.016-0.526 1.495-0.121 0.264-0.376 0.451-0.676 0.425 0.588-0.536 0.726-1.333 0.971-2.053-0.418-0.090-0.856-0.18-1.278-0.056-0.866 0.202-1.537 1.027-1.552 1.918M15.013 4.841c0.289 0.692 0.636 1.361 0.893 2.068-0.75 0-1.498-0.055-2.248-0.066 0.078 0.547 0.272 1.106 0.707 1.474 0.737 0.692 1.99 0.702 2.734 0.016 0.88-0.726 0.932-2.195 0.11-2.986-0.554-0.595-1.438-0.728-2.196-0.505M13.674 6.574c0.62 0.035 1.243 0.054 1.865 0.077-0.253-0.569-0.506-1.136-0.766-1.703-0.583 0.36-0.984 0.949-1.099 1.626M11.804 5.917l0.046 0.252c-0.098-0.047-0.293-0.138-0.39-0.184 0.163 0.127 0.344 0.229 0.517 0.344 0.050-0.13 0.101-0.258 0.148-0.389-0.080-0.006-0.24-0.018-0.32-0.024M12.137 6.522c0.162 0.006 0.323 0.012 0.484 0.018-0.060-0.145-0.121-0.29-0.182-0.434-0.101 0.138-0.202 0.277-0.301 0.416M11.275 6.181c-0.059 0.282-0.167 0.611 0.030 0.865 0.139 0.236 0.431 0.274 0.665 0.361-0.017-0.512-0.313-0.916-0.695-1.226M11.978 6.769c0.047 0.203 0.095 0.406 0.146 0.607 0.198-0.166 0.37-0.359 0.523-0.566-0.223-0.016-0.446-0.029-0.67-0.041z"></path>
<path fill="#fff" d="M11.753 7.784c0.281-0.001 0.562-0.004 0.841-0.008 0.001 0.074 0.001 0.222 0.001 0.296-0.281 0-0.562 0-0.842 0 0-0.072 0-0.216 0-0.288z"></path>
<path fill="#fff" d="M10.718 9.499c0.109-0.252 0.23-0.5 0.379-0.733 0.365 0.192 0.774 0.223 1.177 0.228-0.025 0.24-0.060 0.48-0.089 0.72 0.172 0.127 0.337 0.266 0.474 0.433-0.18-0.002-0.36-0.008-0.54-0.016-0.133 0.289-0.379 0.542-0.404 0.87 0.5 0.234 1.046 0.401 1.476 0.763 0.161 0.107 0.133 0.313 0.15 0.48 0.037 0.691-0.016 1.398 0.16 2.074 0.172 0.52 0.388 1.028 0.454 1.576 0.198 0.286 0.284 0.613 0.082 0.925 0.306 0.54 0.966 0.493 1.5 0.48-0.548-0.306-0.671-1.181-0.126-1.547 0.462-0.343 1.207-0.014 1.252 0.563 0.060 0.317-0.144 0.577-0.354 0.785 0.476 0.541 0.671 1.27 0.69 1.979 0.029 0.253-0.148 0.457-0.26 0.667-0.029 0.3-0.144 0.605-0.511 0.578l0.029-0.212c-0.167 0.104-0.359 0.175-0.51 0.3-0.113 0.26-0.199 0.548-0.16 0.834 0.101 0.349 0.314 0.65 0.474 0.974-0.24 0.252-0.503 0.742-0.916 0.562-0.078-0.215 0.114-0.365 0.218-0.524 0.010-0.31-0.173-0.548-0.352-0.778-0.217-0.268-0.209-0.625-0.257-0.949-0.241 0.696-0.276 1.428-0.244 2.156-0.001 0.376-0.512 0.275-0.626 0.017-0.164-0.193-0.058-0.431 0.122-0.564-0.248-0.596-0.121-1.248-0.083-1.87 0.097-0.34-0.235-0.547-0.402-0.792 0.456-0.383 0.877-0.804 1.258-1.262-0.336-0.151-0.818-0.208-0.948-0.612-0.138-0.412-0.217-0.84-0.365-1.249-0.512-0.817-0.842-1.734-0.942-2.694-0.114 0.524-0.212 1.066-0.126 1.603 0.050 0.406 0.245 0.775 0.313 1.176-0.067 0.145-0.236 0.191-0.354 0.281 0.358 0.646 0.516 1.384 0.497 2.118-0.032 1.062 0.010 2.125-0.053 3.186-0.074 0.014-0.224 0.043-0.299 0.058 0.162 0.334 0.262 0.692 0.289 1.063-0.212-0.030-0.478 0.047-0.642-0.127-0.251-0.274-0.492-0.577-0.605-0.937 0.059-0.106 0.122-0.209 0.193-0.307 0.059-0.896 0.010-1.795-0.031-2.692-0.013-0.443-0.298-0.808-0.492-1.187-0.169 0.542-0.221 1.118-0.139 1.68 0.155 1.025 0.29 2.065 0.215 3.102-0.029 0.224-0.1 0.667-0.427 0.545-0.37-0.215-0.766-0.446-0.986-0.827-0.083-0.146-0.169-0.39 0.038-0.479 0.161-0.072 0.334-0.112 0.503-0.162-0.175-1.408-0.456-2.808-0.462-4.231-0.030-0.287 0.090-0.66-0.224-0.83-0.023-0.347 0.056-0.684 0.181-1.004 0.25-0.661 0.055-1.373-0.115-2.027-0.384 0.931-0.215 1.96-0.434 2.922 0.077 0.215 0.212 0.42 0.197 0.656-0.166 0.167-0.548 0.314-0.655 0.018-0.079-0.244-0.030-0.505-0.030-0.756-0.052-0.007-0.155-0.022-0.205-0.029-0.022-1.506 0.019-3.031 0.442-4.486 0.458-0.577 1.26-0.691 1.826-1.134-0.211-0.292-0.324-0.635-0.32-0.995-0.221-0.060-0.44-0.125-0.656-0.199 0.224-0.154 0.497-0.155 0.757-0.161M16.142 18.422c-0.186 0.522-0.22 1.078-0.202 1.627 0.037-0.007 0.109-0.022 0.145-0.030 0.054-0.343 0.337-0.599 0.374-0.944 0.026-0.265-0.175-0.458-0.318-0.653z"></path>
</svg>
