<!-- Generated by IcoMoon.io -->
<svg version="1.1" xmlns="http://www.w3.org/2000/svg" width="24" height="24" viewBox="0 0 24 24">
<title>regulatory--vehicles-only--g1</title>
<path fill="#035ca1" d="M10.528 0h2.948c3.912 0.56 7.586 3.004 9.287 6.619 0.661 1.214 0.983 2.563 1.237 3.91v2.948c-0.561 3.912-3.004 7.585-6.618 9.286-1.215 0.661-2.564 0.983-3.912 1.237h-2.949c-3.91-0.561-7.583-3.004-9.284-6.619-0.661-1.214-0.983-2.563-1.237-3.91v-2.948c0.257-1.345 0.577-2.692 1.237-3.903 1.701-3.617 5.378-6.062 9.291-6.619M7.090 9.834c-1.472 0.36-2.974 0.597-4.451 0.939-0.601 0.132-0.669 0.858-0.73 1.36-0.092 0.712 0.181 1.726 1.040 1.766 0.337-0.648 0.621-1.463 1.406-1.683 1.383-0.688 3.262 0.397 3.226 1.977 2.719 0.177 5.516 0.16 8.265 0.221 0.068-1.713 2.204-2.705 3.559-1.684 0.426 0.229 0.473 1.043 0.957 1.022 0.498-0.756 0.83-1.65 0.949-2.546-0.132-0.992-0.581-1.926-0.994-2.828-0.394-0.41-0.583-1.262-1.274-1.174-2.761 0.025-5.526-0.048-8.286-0.039-1.287 0.786-2.389 1.865-3.666 2.669M5.015 12.473c-0.881 0.126-1.585 0.974-1.532 1.865-0.010 0.986 0.91 1.857 1.897 1.777 0.99 0.014 1.848-0.927 1.766-1.91 0.001-1.068-1.087-1.934-2.13-1.731M17.423 12.874c-0.898 0.308-1.439 1.378-1.123 2.279 0.272 0.97 1.443 1.561 2.378 1.177 0.92-0.306 1.465-1.418 1.113-2.327-0.294-0.95-1.446-1.498-2.368-1.128z"></path>
<path fill="#035ca1" d="M8.022 10.577c1.008-0.906 1.972-1.872 3.025-2.723 2.571 0.026 5.15 0.079 7.726 0.114 0.302 0.513 0.599 1.029 0.888 1.549-0.182 0.337-0.268 0.757-0.541 1.028-3.698 0.040-7.399 0.022-11.098 0.032z"></path>
<path fill="#035ca1" d="M5 13.408c0.658-0.312 1.437 0.383 1.265 1.074-0.098 0.709-1.061 1.066-1.577 0.561-0.546-0.451-0.346-1.408 0.312-1.636z"></path>
<path fill="#035ca1" d="M17.699 13.709c0.6-0.308 1.383 0.246 1.309 0.912 0.033 0.723-0.866 1.201-1.459 0.81-0.636-0.374-0.546-1.466 0.15-1.721z"></path>
<path fill="#fff" d="M7.090 9.834c1.277-0.804 2.379-1.883 3.666-2.669 2.76-0.010 5.524 0.063 8.286 0.039 0.691-0.088 0.88 0.764 1.274 1.174 0.414 0.902 0.862 1.836 0.994 2.828-0.119 0.897-0.451 1.79-0.949 2.546-0.484 0.021-0.531-0.793-0.957-1.022-1.354-1.021-3.491-0.029-3.559 1.684-2.749-0.061-5.546-0.044-8.265-0.221 0.036-1.579-1.843-2.665-3.226-1.977-0.785 0.219-1.069 1.034-1.406 1.683-0.859-0.040-1.132-1.054-1.040-1.766 0.061-0.502 0.128-1.228 0.73-1.36 1.477-0.342 2.979-0.579 4.451-0.939M8.022 10.577c3.699-0.010 7.4 0.008 11.098-0.032 0.273-0.27 0.359-0.691 0.541-1.028-0.29-0.52-0.586-1.036-0.888-1.549-2.575-0.036-5.154-0.088-7.726-0.114-1.052 0.851-2.017 1.817-3.025 2.723z"></path>
<path fill="#fff" d="M5.015 12.473c1.043-0.203 2.131 0.663 2.13 1.731 0.083 0.983-0.775 1.924-1.766 1.91-0.986 0.080-1.906-0.79-1.897-1.777-0.052-0.891 0.651-1.739 1.532-1.865M5 13.408c-0.658 0.228-0.858 1.185-0.312 1.636 0.516 0.505 1.479 0.148 1.577-0.561 0.172-0.691-0.607-1.386-1.265-1.074z"></path>
<path fill="#fff" d="M17.423 12.874c0.923-0.37 2.074 0.178 2.368 1.128 0.352 0.909-0.193 2.021-1.113 2.327-0.935 0.385-2.106-0.207-2.378-1.177-0.316-0.901 0.225-1.971 1.123-2.279M17.699 13.709c-0.697 0.255-0.786 1.348-0.15 1.721 0.593 0.392 1.492-0.087 1.459-0.81 0.074-0.666-0.709-1.219-1.309-0.912z"></path>
</svg>
