<!-- Generated by IcoMoon.io -->
<svg version="1.1" xmlns="http://www.w3.org/2000/svg" width="24" height="24" viewBox="0 0 24 24">
<title>regulatory--no-stopping--g6</title>
<path fill="#c62363" d="M10.87 0h2.159c2.862 0.27 5.628 1.553 7.613 3.643 1.911 1.932 3.058 4.539 3.359 7.227v2.16c-0.271 2.862-1.554 5.628-3.644 7.613-1.932 1.91-4.538 3.056-7.225 3.357h-2.213c-2.809-0.29-5.526-1.533-7.492-3.575-1.948-1.939-3.121-4.575-3.425-7.295v-2.213c0.29-2.809 1.533-5.524 3.573-7.49 1.939-1.95 4.576-3.123 7.296-3.427M5.833 3.566c0.821 0.828 1.627 1.671 2.476 2.47-0.628-0.003-1.256-0.003-1.883-0.001-0.004 0.444-0.003 0.889 0 1.333 1.090 0.001 2.182 0.010 3.274-0.006 0.012 1.126-0.419 2.327-1.396 2.964-1.529-1.557-3.070-3.101-4.61-4.646-1.775 2.311-2.477 5.394-1.916 8.25 0.495 2.63 2.067 5.031 4.264 6.554 1.489 1.046 3.261 1.687 5.076 1.827 2.504 0.221 5.077-0.51 7.083-2.027-0.819-0.827-1.644-1.649-2.461-2.477 0.681-0.305 1.345-0.87 1.424-1.658 0.119-0.827-0.431-1.587-1.133-1.96-1.406-0.766-3.065-0.793-4.625-0.75-0.692-0.693-1.384-1.387-2.073-2.084 0.425-0.378 0.775-0.834 1.058-1.326 0.884 1.304 2.247 2.215 3.658 2.868 0.179-0.176 0.364-0.348 0.533-0.535 0.341 0.359 0.705 0.693 1.033 1.065 0 0.087 0 0.261-0.001 0.347 0.092 0.001 0.276 0.003 0.367 0.003 1.447 1.462 2.914 2.907 4.339 4.39 1.415-1.886 2.154-4.262 2.052-6.618-0.081-2.397-1.034-4.751-2.643-6.53-1.739-1.954-4.241-3.215-6.853-3.416-2.484-0.231-5.030 0.492-7.041 1.963z"></path>
<path fill="#c62363" d="M12.742 14.79c0.844 0.037 1.73 0.095 2.496 0.489 0.313 0.148 0.612 0.492 0.467 0.859-0.182 0.379-0.624 0.502-0.981 0.655-0.655-0.674-1.327-1.329-1.982-2.003z"></path>
<path fill="#fff" d="M5.833 3.566c2.012-1.471 4.557-2.194 7.041-1.963 2.612 0.201 5.114 1.462 6.853 3.416 1.609 1.779 2.561 4.133 2.643 6.53 0.102 2.356-0.637 4.732-2.052 6.618-1.425-1.483-2.892-2.927-4.339-4.39 0.364 0.001 0.729 0 1.095-0.001 0-2.689 0.001-5.378-0.001-8.068-0.486-0.001-0.973-0.001-1.459 0-0.004 0.978 0 1.954-0.003 2.932-0.959 0.003-1.917-0.001-2.877 0.001-0.001 0.444-0.001 0.889 0 1.333 0.96 0.003 1.919-0.001 2.879 0.003 0.001 1.15-0.001 2.301 0.001 3.45-0.327-0.372-0.692-0.707-1.033-1.065 0.237-0.276 0.45-0.57 0.667-0.861-1.204-0.527-2.603-0.883-3.447-1.967-0.499-0.601-0.681-1.397-0.681-2.164 1.077-0.003 2.156 0 3.234-0.001 0.001-0.444 0.001-0.89 0-1.335-2.015 0-4.030-0.001-6.044 0.001-0.849-0.799-1.655-1.641-2.476-2.47z"></path>
<path fill="#fff" d="M1.778 13.93c-0.561-2.856 0.141-5.939 1.916-8.25 1.541 1.545 3.081 3.089 4.61 4.646-0.847 0.544-1.796 0.905-2.721 1.295 0.336 0.487 0.705 0.954 1.151 1.347 0.948-0.388 1.837-0.924 2.599-1.612 0.689 0.698 1.381 1.391 2.073 2.084-1.15 0.059-2.354 0.21-3.35 0.834-0.591 0.36-1.034 1.013-0.99 1.726-0.001 0.701 0.493 1.295 1.080 1.625 1.119 0.644 2.446 0.769 3.711 0.791 1.311 0.012 2.673-0.056 3.883-0.609 0.816 0.828 1.641 1.65 2.461 2.477-2.006 1.517-4.579 2.247-7.083 2.027-1.815-0.139-3.587-0.781-5.076-1.827-2.197-1.523-3.769-3.924-4.264-6.554z"></path>
<path fill="#fff" d="M9.656 15.016c1.006-0.252 2.055-0.258 3.086-0.227 0.655 0.674 1.327 1.329 1.982 2.003-1.172 0.329-2.403 0.321-3.609 0.268-0.807-0.080-1.674-0.151-2.357-0.633-0.271-0.182-0.354-0.588-0.144-0.846 0.256-0.317 0.664-0.456 1.041-0.566z"></path>
<path fill="#030303" d="M15.61 8.64c0.003-0.978-0.001-1.954 0.003-2.932 0.486-0.001 0.973-0.001 1.459 0 0.003 2.69 0.001 5.379 0.001 8.068-0.366 0.001-0.73 0.003-1.095 0.001-0.092 0-0.276-0.001-0.367-0.003 0.001-0.086 0.001-0.259 0.001-0.347-0.003-1.15 0-2.301-0.001-3.45-0.96-0.004-1.919 0-2.879-0.003-0.001-0.444-0.001-0.889 0-1.333 0.96-0.003 1.919 0.001 2.877-0.001z"></path>
<path fill="#030303" d="M6.425 7.367c-0.003-0.444-0.004-0.889 0-1.333 0.627-0.001 1.255-0.001 1.883 0.001 2.015-0.003 4.030-0.001 6.044-0.001 0.001 0.444 0.001 0.89 0 1.335-1.079 0.001-2.157-0.001-3.234 0.001 0 0.767 0.182 1.563 0.681 2.164 0.844 1.084 2.243 1.44 3.447 1.967-0.216 0.29-0.43 0.585-0.667 0.861-0.169 0.187-0.354 0.359-0.533 0.535-1.41-0.653-2.773-1.564-3.658-2.868-0.283 0.492-0.633 0.948-1.058 1.326-0.761 0.687-1.65 1.224-2.599 1.612-0.446-0.393-0.815-0.859-1.151-1.347 0.926-0.39 1.874-0.751 2.721-1.295 0.976-0.637 1.407-1.839 1.396-2.964-1.092 0.016-2.184 0.007-3.274 0.006z"></path>
<path fill="#030303" d="M8.055 14.274c0.996-0.624 2.2-0.775 3.35-0.834 1.56-0.043 3.219-0.016 4.625 0.75 0.702 0.373 1.252 1.133 1.133 1.96-0.079 0.788-0.742 1.353-1.424 1.658-1.21 0.553-2.572 0.621-3.883 0.609-1.265-0.022-2.593-0.147-3.711-0.791-0.587-0.33-1.081-0.924-1.080-1.625-0.044-0.713 0.399-1.366 0.99-1.726M9.656 15.016c-0.378 0.11-0.785 0.249-1.041 0.566-0.21 0.258-0.127 0.664 0.144 0.846 0.683 0.481 1.55 0.553 2.357 0.633 1.206 0.053 2.437 0.061 3.609-0.268 0.357-0.153 0.799-0.276 0.981-0.655 0.145-0.367-0.154-0.711-0.467-0.859-0.766-0.394-1.652-0.452-2.496-0.489-1.031-0.031-2.080-0.025-3.086 0.227z"></path>
</svg>
