<?xml version="1.0" encoding="utf-8"?>
<!-- Generated by IcoMoon.io -->
<!DOCTYPE svg PUBLIC "-//W3C//DTD SVG 1.1//EN" "http://www.w3.org/Graphics/SVG/1.1/DTD/svg11.dtd">
<svg version="1.1" xmlns="http://www.w3.org/2000/svg" xmlns:xlink="http://www.w3.org/1999/xlink" width="24" height="24" viewBox="0 0 24 24">
<path fill="#0375bc" d="M0 2.17h21.763c-2.523 2.078-5.040 4.164-7.514 6.299-0.426-0.72-0.707-1.537-1.266-2.168-0.94-0.733-2.431-0.659-3.306 0.148-0.551 0.462-1.062 0.968-1.596 1.453 0.105 0.217 0.207 0.434 0.309 0.651-0.6 0-1.203 0-1.803 0-0.003 0.222-0.005 0.666-0.008 0.889 0.169 0.008 0.506 0.020 0.671 0.028 0.237 0.554 0.475 1.108 0.715 1.662-0.398 0.804-0.797 1.609-1.2 2.413-1.031-0.191-2.219-0.286-3.071 0.444-1.246 0.896-1.557 2.622-1.057 4.016-0.11 0.117-0.222 0.235-0.334 0.352-0.733 0.694-1.514 1.333-2.303 1.963v-18.151M10.849 3.102c-0.896 0.419-0.957 1.864-0.056 2.306 0.825 0.511 2.068-0.189 1.923-1.187 0.079-0.942-1.085-1.522-1.866-1.118z"></path>
<path fill="#0375bc" d="M17.362 8.643c2.209-1.856 4.427-3.697 6.638-5.548v18.248c-0.304 0.023-0.465 0.184-0.48 0.488h-21.988c0.894-0.646 1.703-1.399 2.558-2.091 1.003 0.291 2.168 0.424 3.064-0.227 0.904-0.567 1.282-1.609 1.537-2.589 0.209-0.028 0.626-0.079 0.835-0.105 0.214 0.426 0.817 0.868 0.378 1.361-0.199 0.11-0.603 0.324-0.804 0.431 0.557 0.235 1.144 0.184 1.713 0.033-0.179-0.214-0.357-0.431-0.536-0.646 0.511-0.281 1.328-0.35 1.45-1.042 0.191-0.337 0.115-1.111 0.687-0.932 0.294 1.129 0.383 2.298 0.559 3.449 0.426-0.003 0.85-0.003 1.277-0.005-0.071-1.555-0.043-3.128-0.391-4.657 0.95-0.661 1.9-1.328 2.862-1.971 0.056 0.209 0.169 0.628 0.225 0.837-1.302 0.906-2.012 2.612-1.453 4.146 0.5 1.757 2.701 2.75 4.315 1.831 2.119-1.047 2.285-4.379 0.368-5.711-0.73-0.613-1.723-0.544-2.612-0.521-0.276-1.121-0.574-2.239-0.853-3.36 0.22-0.472 0.424-0.952 0.651-1.42z"></path>
<path fill="#0375bc" d="M9.327 8.14c0.189-0.189 0.375-0.38 0.562-0.572-0.026 0.526-0.056 1.054 0.013 1.578-0.153-0.355-0.386-0.669-0.574-1.006z"></path>
<path fill="#0375bc" d="M7.961 9.429c0.299-0.036 0.597-0.074 0.899-0.11 0.266 0.488 0.536 0.973 0.812 1.455-0.375 0.005-0.751 0.013-1.126 0.015-0.197-0.454-0.391-0.906-0.585-1.361z"></path>
<path fill="#0375bc" d="M14.798 10.769c0.416-0.342 0.83-0.687 1.241-1.034 0.046 0.355 0.092 0.712 0.14 1.067-0.46-0.010-0.919-0.023-1.381-0.033z"></path>
<path fill="#0375bc" d="M8.801 11.441c0.286-0.005 0.572-0.008 0.855-0.010-0.13 0.345-0.23 0.7-0.365 1.044-0.123-0.26-0.368-0.776-0.49-1.034z"></path>
<path fill="#0375bc" d="M13.118 12.179c0.299-0.248 0.597-0.498 0.896-0.751 0.784 0.003 1.57 0.005 2.357 0.003 0.056 0.222 0.112 0.442 0.166 0.661-0.973 0.674-1.946 1.356-2.913 2.037-0.174-0.649-0.342-1.3-0.506-1.951z"></path>
<path fill="#0375bc" d="M8.306 11.939c0.156 0.36 0.309 0.723 0.462 1.085-0.498 0.403-0.993 0.814-1.478 1.233 0.243-0.812 0.618-1.573 1.016-2.318z"></path>
<path fill="#0375bc" d="M3.751 14.86c0.649-0.774 1.718-0.883 2.655-0.707-0.24 0.506-0.477 1.014-0.771 1.491-0.817 0.677-1.637 1.348-2.438 2.040-0.24-0.968-0.176-2.073 0.554-2.824z"></path>
<path fill="#0375bc" d="M17.734 14.104c1.292-0.281 2.686 0.508 3.023 1.803 0.495 1.455-0.544 3.222-2.094 3.396-1.534 0.186-2.86-1.34-2.699-2.824 0.031-0.832 0.546-1.532 1.157-2.055 0.207 1.024 0.49 2.086 1.363 2.757 0.717-0.472-0.107-0.98-0.306-1.494-0.207-0.511-0.314-1.052-0.444-1.583z"></path>
<path fill="#0375bc" d="M10.425 14.765c0.36-0.036 0.5 0.117 0.419 0.465-0.363 0.041-0.503-0.115-0.419-0.465z"></path>
<path fill="#0375bc" d="M11.617 14.926c0.567-0.255 0.534 0.608 0.056 0.661-0.508 0.232-0.406-0.569-0.056-0.661z"></path>
<path fill="#0375bc" d="M10.287 15.832c0.628-0.523 1.519 0.426 1.103 1.065-0.128 0.465-0.753 0.646-1.118 0.327-0.531-0.281-0.465-1.098 0.015-1.391z"></path>
<path fill="#0375bc" d="M6.020 18.148c0.363 0.191 0.715 0.406 1.067 0.618-0.717 0.452-1.547 0.6-2.38 0.452 0.304-0.255 0.603-0.511 0.909-0.763 0.1-0.077 0.301-0.23 0.403-0.306z"></path>
<path fill="#df032b" d="M21.763 2.17h2.237v0.924c-2.211 1.851-4.43 3.692-6.638 5.548-0.439 0.365-0.886 0.723-1.323 1.093-0.411 0.347-0.825 0.692-1.241 1.034-0.263 0.22-0.523 0.439-0.784 0.659-0.299 0.253-0.597 0.503-0.896 0.751-0.664 0.536-1.366 1.047-1.856 1.762-0.248 0.171-0.506 0.327-0.769 0.475-1.672 1.287-3.258 2.683-4.877 4.039-0.306 0.253-0.605 0.508-0.909 0.763-0.204 0.174-0.411 0.347-0.618 0.521-0.855 0.692-1.665 1.445-2.558 2.091h-1.103c0.033-0.296-0.11-0.472-0.429-0.531v-0.978c0.789-0.631 1.57-1.269 2.303-1.963l0.651 0.115c-0.094-0.059-0.281-0.171-0.375-0.23 0.204-0.189 0.411-0.375 0.618-0.559 0.802-0.692 1.621-1.363 2.438-2.040 0.559-0.452 1.116-0.909 1.654-1.386 0.485-0.419 0.98-0.83 1.478-1.233 1.399-1.251 3.028-2.272 4.223-3.73 0.447-0.232 0.878-0.493 1.259-0.825 2.474-2.134 4.991-4.22 7.514-6.299z"></path>
<path fill="#fff" d="M10.849 3.102c0.781-0.403 1.946 0.176 1.866 1.118 0.146 0.998-1.098 1.698-1.923 1.187-0.901-0.442-0.84-1.887 0.056-2.306z"></path>
<path fill="#fff" d="M9.677 6.449c0.876-0.807 2.367-0.881 3.306-0.148 0.559 0.631 0.84 1.448 1.266 2.168-0.38 0.332-0.812 0.592-1.259 0.825-1.195 1.458-2.824 2.479-4.223 3.73-0.153-0.363-0.306-0.725-0.462-1.085-0.398 0.746-0.774 1.506-1.016 2.318-0.539 0.477-1.095 0.934-1.654 1.386 0.294-0.477 0.531-0.986 0.771-1.491-0.937-0.176-2.007-0.066-2.655 0.707-0.73 0.751-0.794 1.856-0.554 2.824-0.207 0.184-0.414 0.37-0.618 0.559 0.094 0.059 0.281 0.171 0.375 0.23l-0.651-0.115c0.112-0.117 0.225-0.235 0.334-0.352-0.5-1.394-0.189-3.12 1.057-4.016 0.853-0.73 2.040-0.636 3.071-0.444 0.403-0.804 0.802-1.609 1.2-2.413-0.24-0.554-0.477-1.108-0.715-1.662-0.166-0.008-0.503-0.020-0.671-0.028 0.003-0.222 0.005-0.666 0.008-0.889 0.6 0 1.203 0 1.803 0-0.102-0.217-0.204-0.434-0.309-0.651 0.534-0.485 1.044-0.991 1.596-1.453M9.327 8.14c0.189 0.337 0.421 0.651 0.574 1.006-0.069-0.523-0.038-1.052-0.013-1.578-0.186 0.191-0.373 0.383-0.562 0.572M7.961 9.429c0.194 0.454 0.388 0.906 0.585 1.361 0.375-0.003 0.751-0.010 1.126-0.015-0.276-0.483-0.546-0.968-0.812-1.455-0.301 0.036-0.6 0.074-0.899 0.11M8.801 11.441c0.123 0.258 0.368 0.774 0.49 1.034 0.135-0.345 0.235-0.7 0.365-1.044-0.283 0.003-0.569 0.005-0.855 0.010z"></path>
<path fill="#fff" d="M16.039 9.735c0.437-0.37 0.883-0.728 1.323-1.093-0.227 0.467-0.431 0.947-0.651 1.42 0.278 1.121 0.577 2.239 0.853 3.36 0.889-0.023 1.882-0.092 2.612 0.521 1.917 1.333 1.751 4.665-0.368 5.711-1.614 0.919-3.814-0.074-4.315-1.831-0.559-1.534 0.151-3.24 1.453-4.146-0.056-0.209-0.169-0.628-0.225-0.837-0.963 0.643-1.912 1.31-2.862 1.971 0.347 1.529 0.319 3.102 0.391 4.657-0.426 0.003-0.85 0.003-1.277 0.005-0.176-1.151-0.266-2.321-0.559-3.449-0.572-0.179-0.495 0.595-0.687 0.932-0.123 0.692-0.94 0.761-1.45 1.042 0.179 0.214 0.357 0.431 0.536 0.646-0.569 0.151-1.157 0.202-1.713-0.033 0.202-0.107 0.605-0.322 0.804-0.431 0.439-0.493-0.163-0.934-0.378-1.361-0.209 0.026-0.626 0.077-0.835 0.105-0.255 0.98-0.633 2.022-1.537 2.589-0.896 0.651-2.060 0.518-3.064 0.227 0.207-0.174 0.414-0.347 0.618-0.521 0.832 0.148 1.662 0 2.38-0.452-0.352-0.212-0.705-0.426-1.067-0.618-0.102 0.077-0.304 0.23-0.403 0.306 1.619-1.356 3.204-2.752 4.877-4.039 0.263-0.148 0.521-0.304 0.769-0.475 0.49-0.715 1.192-1.226 1.856-1.762 0.163 0.651 0.332 1.302 0.506 1.951 0.968-0.682 1.94-1.363 2.913-2.037-0.054-0.22-0.11-0.439-0.166-0.661-0.786 0.003-1.573 0-2.357-0.003 0.26-0.22 0.521-0.439 0.784-0.659 0.462 0.010 0.922 0.023 1.381 0.033-0.049-0.355-0.094-0.712-0.14-1.067M17.734 14.104c0.13 0.531 0.237 1.072 0.444 1.583 0.199 0.513 1.024 1.021 0.306 1.494-0.873-0.671-1.157-1.734-1.363-2.757-0.61 0.523-1.126 1.223-1.157 2.055-0.161 1.483 1.164 3.010 2.699 2.824 1.55-0.174 2.589-1.94 2.094-3.396-0.337-1.294-1.731-2.083-3.023-1.803M10.425 14.765c-0.084 0.35 0.056 0.506 0.419 0.465 0.082-0.347-0.059-0.5-0.419-0.465M11.617 14.926c-0.35 0.092-0.452 0.894 0.056 0.661 0.477-0.054 0.511-0.917-0.056-0.661M10.287 15.832c-0.48 0.294-0.546 1.111-0.015 1.391 0.365 0.319 0.991 0.138 1.118-0.327 0.416-0.638-0.475-1.588-1.103-1.065z"></path>
<path fill="#fff" d="M0 21.299c0.319 0.059 0.462 0.235 0.429 0.531h-0.429v-0.531z"></path>
<path fill="#fff" d="M23.52 21.83c0.015-0.304 0.176-0.465 0.48-0.488v0.488h-0.48z"></path>
</svg>
