<!-- Generated by IcoMoon.io -->
<svg version="1.1" xmlns="http://www.w3.org/2000/svg" width="24" height="24" viewBox="0 0 24 24">
<title>regulatory--end-of-maximum-speed-limit-25--g1</title>
<path fill="#fff" d="M11.095 0h1.837c1.768 0.161 3.512 0.67 5.048 1.569 2.492 1.421 4.441 3.765 5.378 6.477 0.349 0.983 0.543 2.014 0.642 3.051v1.833c-0.161 1.757-0.664 3.492-1.553 5.021-1.535 2.714-4.168 4.784-7.172 5.622-0.762 0.224-1.549 0.339-2.336 0.428h-1.869c-1.723-0.156-3.42-0.648-4.93-1.499-2.632-1.467-4.68-3.953-5.593-6.828-0.292-0.885-0.449-1.808-0.547-2.732v-1.874c0.098-0.952 0.265-1.901 0.57-2.81 0.864-2.66 2.697-4.987 5.072-6.461 1.635-1.035 3.529-1.633 5.453-1.795M11.365 0.596c-2.155 0.11-4.272 0.862-6.022 2.123-2.383 1.696-4.065 4.341-4.582 7.221-0.593 3.166 0.237 6.565 2.239 9.091 1.792 2.311 4.505 3.883 7.403 4.281 3.22 0.47 6.617-0.526 9.065-2.672 2.293-1.966 3.75-4.876 3.928-7.893 0.128-1.882-0.224-3.795-1.014-5.508-1.197-2.63-3.432-4.764-6.116-5.836-1.548-0.626-3.235-0.903-4.902-0.807z"></path>
<path fill="#fff" d="M11.062 1.22c2.432-0.221 4.933 0.42 6.958 1.786-0.89 0.893-1.775 1.792-2.677 2.67-0.822-0.030-1.644-0.009-2.467-0.011-0.006 0.819-0.008 1.639 0.002 2.459l0.001 0.024c-0.528 0.529-1.051 1.062-1.587 1.582 0.143-1.157-0.252-2.375-1.123-3.165-0.92-0.912-2.345-1.206-3.577-0.862-1.522 0.454-2.631 1.994-2.572 3.584 0.625 0.005 1.251 0.007 1.876-0.001 0.039-0.377 0.124-0.762 0.348-1.075 0.43-0.643 1.295-0.906 2.024-0.678 1.113 0.357 1.53 1.904 0.807 2.806-1.654 2.093-3.331 4.17-4.993 6.257-0.097 0.107-0.052 0.258-0.061 0.389-0.309 0.363-0.677 0.69-1.014 1.034-1.655-2.444-2.228-5.582-1.552-8.455 0.65-2.887 2.557-5.456 5.121-6.928 1.366-0.796 2.91-1.283 4.485-1.416z"></path>
<path fill="#fff" d="M16.231 5.652c0.761-0.764 1.523-1.527 2.288-2.287 0.078 0.059 0.156 0.116 0.235 0.174-0.707 0.721-1.419 1.44-2.145 2.142-0.126-0.012-0.251-0.021-0.377-0.029z"></path>
<path fill="#fff" d="M17.5 5.65c0.576-0.569 1.143-1.146 1.72-1.715 0.073 0.067 0.144 0.135 0.216 0.203-0.519 0.515-1.026 1.043-1.556 1.545-0.126-0.014-0.253-0.024-0.379-0.034z"></path>
<path fill="#fff" d="M18.772 5.659c0.359-0.369 0.726-0.73 1.090-1.094 0.068 0.071 0.136 0.143 0.201 0.218-0.293 0.297-0.587 0.594-0.886 0.885-0.135-0.004-0.27-0.010-0.405-0.009z"></path>
<path fill="#fff" d="M20.451 5.247c0.064 0.076 0.127 0.154 0.185 0.236-0.309 0.314-0.622 0.624-0.934 0.935-0.010-0.127-0.019-0.253-0.023-0.38 0.239-0.279 0.52-0.523 0.772-0.791z"></path>
<path fill="#fff" d="M19.683 7.303c0.42-0.454 0.872-0.883 1.31-1.321 1.655 2.444 2.227 5.582 1.55 8.454-0.65 2.887-2.557 5.455-5.121 6.929-2.344 1.372-5.217 1.8-7.859 1.178-1.275-0.29-2.495-0.821-3.581-1.55 0.857-0.862 1.711-1.727 2.581-2.575 0.915 0.028 1.831 0.009 2.746 0.010 0.006-0.625 0.007-1.251-0-1.876-0.294-0.007-0.588 0.001-0.882-0.006 1.315-1.318 2.63-2.637 3.951-3.949 0.086-0.003 0.173-0.008 0.259-0.011 0.281-0.519 0.765-0.971 1.374-1.030 0.618-0.061 1.402 0.059 1.7 0.682 0.507 1.091 0.378 2.355 0.124 3.495-0.080 0.437-0.461 0.756-0.885 0.84-0.589 0.129-1.264 0.11-1.772-0.251-0.38-0.27-0.565-0.72-0.672-1.158-0.624-0.002-1.25-0.015-1.874 0.006 0.086 0.835 0.361 1.697 0.983 2.291 0.952 0.841 2.305 1.252 3.557 0.978 1.372-0.339 2.529-1.544 2.689-2.969 0.112-0.998 0.107-2.012-0.018-3.008-0.168-1.341-1.238-2.509-2.571-2.763 0.723-0.718 1.433-1.452 2.168-2.156 0.081-0 0.162 0.001 0.244 0.002-0.001-0.081-0.004-0.161-0.003-0.242z"></path>
<path fill="#fff" d="M14.657 8.495c0.319-0.316 0.634-0.636 0.954-0.952 0.135 0.002 0.27 0.006 0.405 0.014-0.445 0.449-0.89 0.9-1.343 1.34-0.015-0.134-0.023-0.268-0.015-0.402z"></path>
<path fill="#fff" d="M14.658 9.765c0.755-0.737 1.483-1.512 2.251-2.228 0.126 0.004 0.252 0.013 0.378 0.022-0.87 0.87-1.735 1.743-2.611 2.607-0.026-0.132-0.029-0.267-0.019-0.401z"></path>
<path fill="#fff" d="M16.008 9.696c0.722-0.72 1.433-1.455 2.17-2.158 0.127 0.003 0.254 0.012 0.381 0.022-0.699 0.7-1.396 1.403-2.1 2.098-0.15 0.009-0.3 0.024-0.45 0.038z"></path>
<path fill="#fff" d="M10.798 11.113c0.658-0.727 1.384-1.393 2.067-2.098 0.005 0.126 0.009 0.252 0.014 0.378l0.001 0.025c-1.011 1.013-2.018 2.031-3.038 3.033 0.235-0.495 0.704-0.847 0.955-1.339z"></path>
<path fill="#fff" d="M6.617 16.534c2.085-2.081 4.167-4.164 6.248-6.248 0.004 0.126 0.008 0.251 0.015 0.377l0.001 0.026c-1.959 1.957-3.907 3.936-5.885 5.87-0.127-0.005-0.253-0.015-0.38-0.025z"></path>
<path fill="#fff" d="M12.867 11.558c0.004 0.133 0.009 0.265 0.009 0.398-1.509 1.546-3.055 3.064-4.582 4.597-0.135-0.003-0.27-0.007-0.404-0.015 1.656-1.664 3.319-3.319 4.977-4.98z"></path>
<path fill="#fff" d="M9.165 16.539c1.313-1.321 2.632-2.639 3.952-3.953 0.128 0.007 0.255 0.018 0.383 0.031-1.31 1.315-2.622 2.627-3.937 3.937-0.133-0.004-0.265-0.008-0.398-0.015z"></path>
<path fill="#fff" d="M3.366 18.518c0.21-0.219 0.431-0.429 0.642-0.647 0.008 0.127 0.017 0.254 0.030 0.38-0.156 0.177-0.322 0.345-0.499 0.501-0.057-0.079-0.114-0.157-0.173-0.233z"></path>
<path fill="#fff" d="M3.938 19.218c0.262-0.266 0.525-0.531 0.793-0.791 0.135 0.003 0.27 0.009 0.405 0.009-0.328 0.337-0.663 0.667-0.996 0.999-0.069-0.071-0.137-0.143-0.202-0.217z"></path>
<path fill="#fff" d="M4.566 19.861c0.487-0.483 0.963-0.98 1.462-1.451 0.126 0.014 0.253 0.024 0.379 0.034-0.545 0.537-1.080 1.083-1.625 1.619-0.074-0.066-0.146-0.134-0.217-0.202z"></path>
<path fill="#fff" d="M5.248 20.449c0.687-0.675 1.355-1.37 2.050-2.036 0.126 0.012 0.252 0.021 0.378 0.029-0.729 0.733-1.46 1.464-2.193 2.193-0.082-0.057-0.159-0.12-0.235-0.185z"></path>
<path fill="#000" d="M11.365 0.596c1.667-0.097 3.354 0.18 4.902 0.807 2.684 1.072 4.919 3.206 6.116 5.836 0.79 1.713 1.142 3.626 1.014 5.508-0.179 3.017-1.635 5.927-3.928 7.893-2.448 2.146-5.845 3.143-9.065 2.672-2.898-0.398-5.611-1.969-7.403-4.281-2.002-2.526-2.832-5.925-2.239-9.091 0.517-2.88 2.199-5.525 4.582-7.221 1.75-1.262 3.866-2.013 6.022-2.123M11.062 1.22c-1.575 0.133-3.12 0.62-4.485 1.416-2.565 1.472-4.471 4.042-5.121 6.928-0.676 2.873-0.104 6.011 1.552 8.455 0.337-0.344 0.705-0.67 1.014-1.034 0.328-0.273 0.607-0.599 0.916-0.892 2.117-2.122 4.245-4.236 6.355-6.362 0.535-0.52 1.059-1.053 1.587-1.582l-0.001-0.024c0.846-0.788 1.65-1.626 2.465-2.448 0.903-0.879 1.787-1.778 2.677-2.67-2.025-1.366-4.525-2.007-6.958-1.786M16.231 5.652l-0.009-0.001c-1.111 1.129-2.238 2.243-3.357 3.364-0.683 0.705-1.409 1.371-2.067 2.098-0.205 0.139-0.354 0.342-0.537 0.507-2.085 2.084-4.166 4.17-6.253 6.251-0.211 0.218-0.432 0.428-0.642 0.647 0.059 0.076 0.117 0.155 0.173 0.233 0.176-0.156 0.343-0.324 0.499-0.501 1.936-1.897 3.826-3.84 5.764-5.735 0.019-0.019 0.032-0.040 0.041-0.065 1.020-1.003 2.027-2.020 3.038-3.033l-0.001-0.025c0.156-0.101 0.272-0.248 0.405-0.375 1.108-1.113 2.229-2.213 3.324-3.337 0.726-0.703 1.438-1.421 2.145-2.142-0.079-0.058-0.157-0.115-0.235-0.174-0.765 0.76-1.527 1.523-2.288 2.287M17.5 5.65c-0.627 0.633-1.261 1.26-1.889 1.893-0.32 0.315-0.635 0.636-0.954 0.952-0.596 0.598-1.194 1.195-1.792 1.792-2.082 2.084-4.164 4.167-6.248 6.248-0.627 0.633-1.262 1.258-1.887 1.893-0.268 0.26-0.531 0.525-0.793 0.791 0.065 0.074 0.133 0.146 0.202 0.217 0.333-0.332 0.668-0.662 0.996-0.999 0.62-0.621 1.261-1.233 1.861-1.876 1.978-1.934 3.925-3.912 5.885-5.87l-0.001-0.026c0.625-0.555 1.2-1.178 1.792-1.766 0.454-0.44 0.898-0.891 1.343-1.34l0.008 0c0.611-0.632 1.251-1.236 1.855-1.874 0.531-0.502 1.037-1.031 1.556-1.545-0.071-0.068-0.143-0.136-0.216-0.203-0.577 0.569-1.144 1.146-1.72 1.715M18.772 5.659c-0.62 0.622-1.264 1.233-1.862 1.878-0.768 0.717-1.497 1.492-2.251 2.228-0.596 0.599-1.194 1.195-1.792 1.792-1.658 1.662-3.321 3.317-4.977 4.98l-0.007-0c-0.612 0.63-1.25 1.235-1.855 1.872-0.499 0.471-0.975 0.968-1.462 1.451 0.071 0.068 0.143 0.136 0.217 0.202 0.545-0.536 1.080-1.082 1.625-1.619 0.626-0.633 1.26-1.259 1.887-1.891 1.527-1.532 3.073-3.050 4.582-4.597 0.618-0.575 1.193-1.195 1.802-1.779l-0.001-0.011c0.876-0.864 1.741-1.738 2.611-2.607l0.007 0c0.621-0.637 1.26-1.256 1.882-1.892 0.299-0.291 0.592-0.588 0.886-0.885-0.065-0.075-0.133-0.147-0.201-0.218-0.365 0.364-0.732 0.725-1.090 1.094M20.451 5.247c-0.252 0.268-0.533 0.511-0.772 0.791-0.514 0.485-1.015 0.987-1.501 1.5-0.737 0.702-1.448 1.437-2.17 2.158l-0.011 0.001c-0.954 0.969-1.925 1.921-2.88 2.889-1.32 1.314-2.639 2.632-3.952 3.953l-0.010-0c-0.611 0.632-1.251 1.237-1.857 1.875-0.696 0.666-1.363 1.362-2.050 2.036 0.076 0.065 0.153 0.128 0.235 0.185 0.733-0.728 1.464-1.46 2.193-2.193l0.009 0c0.617-0.637 1.256-1.254 1.877-1.888 1.315-1.309 2.627-2.622 3.937-3.937 0.987-0.981 1.977-1.97 2.958-2.96 0.705-0.695 1.401-1.398 2.1-2.098l0.008 0c0.374-0.383 0.753-0.763 1.136-1.136l-0-0.007c0.312-0.311 0.625-0.621 0.934-0.935-0.058-0.082-0.121-0.159-0.185-0.236M19.683 7.303c-0.090 0.070-0.171 0.15-0.241 0.24-0.735 0.704-1.445 1.438-2.168 2.156-0.966 0.965-1.935 1.927-2.895 2.898-1.321 1.312-2.636 2.631-3.951 3.949-0.623 0.622-1.253 1.238-1.864 1.872-0.87 0.848-1.725 1.714-2.581 2.575 1.086 0.728 2.305 1.26 3.581 1.55 2.642 0.622 5.515 0.194 7.859-1.178 2.564-1.474 4.471-4.042 5.121-6.929 0.677-2.872 0.105-6.010-1.55-8.454-0.438 0.439-0.89 0.867-1.31 1.321z"></path>
<path fill="#808080" d="M6.592 5.703c1.231-0.344 2.657-0.049 3.577 0.862 0.871 0.79 1.266 2.009 1.123 3.165-2.109 2.127-4.238 4.24-6.355 6.362-0.308 0.293-0.588 0.619-0.916 0.892 0.009-0.13-0.036-0.282 0.061-0.389 1.662-2.087 3.339-4.164 4.993-6.257 0.723-0.902 0.306-2.449-0.807-2.806-0.728-0.228-1.593 0.035-2.024 0.678-0.225 0.313-0.309 0.698-0.348 1.075-0.625 0.008-1.251 0.006-1.876 0.001-0.059-1.59 1.050-3.13 2.572-3.584z"></path>
<path fill="#808080" d="M16.222 5.651l0.009 0.001c0.126 0.008 0.252 0.017 0.377 0.029-1.095 1.125-2.217 2.224-3.324 3.337-0.133 0.127-0.249 0.274-0.405 0.375-0.005-0.126-0.009-0.252-0.014-0.378 1.119-1.121 2.246-2.235 3.357-3.364z"></path>
<path fill="#808080" d="M15.611 7.543c0.628-0.633 1.262-1.26 1.889-1.893 0.127 0.009 0.253 0.020 0.379 0.034-0.605 0.637-1.244 1.242-1.855 1.874l-0.008-0c-0.135-0.008-0.27-0.012-0.405-0.014z"></path>
<path fill="#808080" d="M16.91 7.537c0.598-0.645 1.242-1.257 1.862-1.878 0.135-0.001 0.27 0.005 0.405 0.009-0.622 0.636-1.261 1.255-1.882 1.892l-0.007-0c-0.126-0.009-0.252-0.018-0.378-0.022z"></path>
<path fill="#808080" d="M12.876 5.666c0.822 0.001 1.645-0.019 2.467 0.011-0.814 0.823-1.619 1.66-2.465 2.448-0.010-0.82-0.008-1.64-0.002-2.459z"></path>
<path fill="#808080" d="M18.178 7.538c0.486-0.513 0.987-1.015 1.501-1.5 0.004 0.127 0.013 0.253 0.023 0.38l0 0.007c-0.383 0.374-0.762 0.753-1.136 1.136l-0.008-0c-0.127-0.010-0.254-0.019-0.381-0.022z"></path>
<path fill="#808080" d="M12.865 10.286c0.598-0.596 1.195-1.193 1.792-1.792-0.008 0.135-0 0.269 0.015 0.402-0.592 0.588-1.167 1.211-1.792 1.766-0.006-0.126-0.010-0.251-0.015-0.377z"></path>
<path fill="#808080" d="M15.997 9.697l0.011-0.001c0.15-0.014 0.3-0.029 0.45-0.038-0.982 0.99-1.971 1.979-2.958 2.96-0.128-0.014-0.255-0.025-0.383-0.031 0.955-0.968 1.926-1.92 2.88-2.889z"></path>
<path fill="#808080" d="M14.379 12.597c0.96-0.971 1.929-1.933 2.895-2.898 1.334 0.255 2.403 1.422 2.571 2.763 0.125 0.996 0.13 2.011 0.018 3.008-0.16 1.425-1.317 2.629-2.689 2.969-1.252 0.273-2.605-0.137-3.557-0.978-0.622-0.593-0.897-1.455-0.983-2.291 0.624-0.021 1.249-0.008 1.874-0.006 0.107 0.438 0.293 0.887 0.672 1.158 0.508 0.36 1.183 0.38 1.772 0.251 0.423-0.085 0.805-0.404 0.885-0.84 0.255-1.14 0.383-2.404-0.124-3.495-0.298-0.623-1.081-0.743-1.7-0.682-0.61 0.060-1.094 0.511-1.374 1.030-0.086 0.004-0.173 0.008-0.259 0.011z"></path>
<path fill="#808080" d="M12.867 11.558c0.598-0.597 1.195-1.193 1.792-1.792-0.010 0.134-0.008 0.269 0.019 0.401l0.001 0.011c-0.609 0.584-1.185 1.204-1.802 1.779-0-0.133-0.006-0.266-0.009-0.398z"></path>
<path fill="#808080" d="M10.261 11.62c0.182-0.165 0.332-0.368 0.537-0.507-0.251 0.492-0.72 0.844-0.955 1.339-0.008 0.024-0.022 0.046-0.041 0.065-1.938 1.895-3.828 3.839-5.764 5.735-0.013-0.127-0.022-0.254-0.030-0.38 2.087-2.082 4.169-4.168 6.253-6.251z"></path>
<path fill="#808080" d="M4.73 18.427c0.624-0.635 1.26-1.26 1.887-1.893 0.127 0.010 0.253 0.020 0.38 0.025-0.6 0.643-1.241 1.255-1.861 1.876-0.135 0-0.27-0.006-0.405-0.009z"></path>
<path fill="#808080" d="M7.883 16.538l0.007 0c0.135 0.008 0.27 0.012 0.404 0.015-0.626 0.633-1.26 1.258-1.887 1.891-0.127-0.010-0.253-0.021-0.379-0.034 0.605-0.637 1.243-1.242 1.855-1.872z"></path>
<path fill="#808080" d="M9.155 16.538l0.010 0c0.132 0.007 0.265 0.011 0.397 0.015-0.621 0.634-1.26 1.251-1.877 1.888l-0.009-0c-0.126-0.008-0.252-0.017-0.378-0.029 0.606-0.638 1.245-1.243 1.857-1.875z"></path>
<path fill="#808080" d="M8.565 18.418c0.61-0.634 1.241-1.25 1.864-1.872 0.294 0.008 0.588-0.001 0.882 0.006 0.007 0.625 0.007 1.251 0 1.876-0.915-0.001-1.831 0.018-2.746-0.010z"></path>
<path fill="#7f7f7f" d="M19.442 7.543c0.070-0.090 0.151-0.17 0.241-0.24-0.001 0.081 0.001 0.161 0.003 0.242-0.082-0.001-0.163-0.003-0.244-0.002z"></path>
</svg>
