<svg xmlns="http://www.w3.org/2000/svg" width="24" height="24">
    <path fill="#2b2b2b" opacity=".91" d="M2.851 0h18.294l-.155.079C14.994.114 8.995.111 2.999.081L2.851 0z"/>
    <path fill="#fff" d="M2.999.081C8.995.111 14.994.114 20.99.079c.423.117.729.436.917.82-.002 7.363-.03 14.727.014 22.088-.116.425-.438.73-.823.92-6.062-.019-12.123.002-18.185-.01-.373-.149-.644-.443-.82-.797.02-7.401-.005-14.803.013-22.203.164-.393.48-.695.893-.816zm-.066.36c-.384.143-.596.562-.565.959.003 7.101-.004 14.201.004 21.302-.022.5.423.949.925.923 5.802.004 11.604.004 17.406 0 .502.025.944-.424.925-.923.009-7.1.001-14.202.004-21.303.06-.534-.384-1.05-.93-1.028C14.969.358 9.234.372 3.501.365c-.191.004-.388.005-.568.076z"/>
    <path fill="#fff" d="M3.043.943c.134-.088.304-.067.456-.077 5.702.005 11.403 0 17.105.002a.456.456 0 0 1 .528.528v21.208c.037.257-.14.546-.425.518-5.805.006-11.61.006-17.414 0-.286.029-.463-.261-.425-.518V1.396c-.003-.165.022-.356.175-.453zm1.669 2.271c-.475.3-.489 1.076-.014 1.383.436.261.973.262 1.424.489.219.103.208.43.008.547-.466.302-1.106.149-1.465-.253-.168.122-.33.252-.484.391.578.625 1.601.839 2.321.333.526-.318.491-1.162-.003-1.491-.457-.291-1.044-.249-1.502-.533-.157-.727.975-.556 1.302-.187l.445-.401c-.526-.501-1.402-.69-2.032-.278zm2.836-.188c.001 1.107-.002 2.215.002 3.322l.605-.002.001-1.305c.61-.056 1.385.191 1.84-.346.476-.511.209-1.439-.469-1.615-.65-.116-1.32-.028-1.979-.054zm3.257.001a614.202 614.202 0 0 0 0 3.325h2.492l.002-.595c-.628-.003-1.256-.001-1.884-.001a68.857 68.857 0 0 1 0-.909h.992v-.608l-.993-.001v-.615c.608-.001 1.216.001 1.824-.001l-.001-.596-2.432.001zm3.156-.001c-.003 1.108-.002 2.216-.001 3.325.831.002 1.661.001 2.492 0l-.001-.595c-.627-.003-1.254.003-1.882-.003l.002-.904.992-.002V4.24l-.993-.002v-.615c.608-.001 1.216.001 1.824-.001v-.595l-2.433-.001zm3.154 0c-.002 1.107-.001 2.213-.001 3.32.639-.034 1.339.126 1.92-.215 1.007-.561 1.04-2.229.068-2.84-.584-.4-1.325-.23-1.987-.265zM5.921 8.011c-.002 1.108-.001 2.216-.001 3.324.831.002 1.662.002 2.492 0v-.514c-.631-.001-1.262.001-1.893-.001-.002-.937.001-1.873-.002-2.809h-.596zm3.057 0a921.303 921.303 0 0 0 0 3.325h.598V8.011h-.598zm1.459-.003c.003 1.109-.004 2.218.003 3.327l.583-.002c.003-.673-.002-1.345.002-2.017.331.668.641 1.344.969 2.013.332-.669.647-1.347.981-2.015.004.673-.001 1.346.002 2.018l.582.003c.008-1.109.001-2.218.004-3.327l-.411-.006c-.038.149-.163.209-.299.249-.301.559-.528 1.158-.877 1.689-.287-.574-.561-1.155-.854-1.726-.169-.002-.349-.001-.368-.214l-.317.008zm3.987.003v3.325h.598c.002-1.108.002-2.217 0-3.325h-.598zm1.164 0v.585l.952.002c.003.913-.003 1.826.003 2.739l.58-.002c.003-.912 0-1.824.001-2.736l.956-.003v-.584a690.1 690.1 0 0 0-2.492-.001zm-6.241 5.784c-.01 1.261-.182 2.499-.25 3.757.498.093.983.308 1.487.328.826-.278 1.772-.43 2.594-.062.885.455.938 1.929.006 2.366-1.15.526-2.516.228-3.585-.363-.254.398-.507.796-.758 1.197 1.593.982 3.846 1.333 5.428.152 1.249-.93 1.372-2.929.306-4.042-.992-1.094-2.625-1.127-3.961-.787.026-.382.054-.764.084-1.146 1.32-.003 2.64.002 3.96-.002l.027-1.399c-1.779-.001-3.558-.002-5.338.001z"/>
    <path fill="#fff" d="M8.155 3.622c.401.01.807-.038 1.203.032.359.085.384.647.029.756-.405.077-.821.02-1.23.035-.002-.275-.002-.549-.002-.823zM17.721 3.618c.406.001.876-.04 1.192.27.458.466.408 1.401-.193 1.729-.298.189-.664.128-.998.137-.002-.712-.002-1.424-.001-2.136z"/>
    <path fill="#040404" d="M2.933.441c.18-.071.377-.072.568-.076C9.234.372 14.969.358 20.702.371c.546-.022.99.494.93 1.028-.003 7.101.005 14.203-.004 21.303.019.499-.423.948-.925.923-5.802.004-11.604.004-17.406 0-.502.026-.947-.423-.925-.923-.008-7.101-.001-14.201-.004-21.302-.031-.397.181-.816.565-.959zm.11.502c-.153.097-.178.288-.175.453v21.208c-.038.257.139.547.425.518 5.804.006 11.609.006 17.414 0 .285.028.462-.261.425-.518V1.396a.456.456 0 0 0-.528-.528C14.902.866 9.201.871 3.499.866c-.152.01-.322-.011-.456.077z"/>
    <path fill="#040404" d="M4.712 3.214c.63-.412 1.506-.223 2.032.278l-.445.401c-.327-.369-1.459-.54-1.302.187.458.284 1.045.242 1.502.533.494.329.529 1.173.003 1.491-.72.506-1.743.292-2.321-.333.154-.139.316-.269.484-.391.359.402.999.555 1.465.253.2-.117.211-.444-.008-.547-.451-.227-.988-.228-1.424-.489-.475-.307-.461-1.083.014-1.383zM7.548 3.026c.659.026 1.329-.062 1.979.054.678.176.945 1.104.469 1.615-.455.537-1.23.29-1.84.346l-.001 1.305-.605.002c-.004-1.107-.001-2.215-.002-3.322zm.607.596c0 .274 0 .548.002.823.409-.015.825.042 1.23-.035.355-.109.33-.671-.029-.756-.396-.07-.802-.022-1.203-.032zM10.805 3.027l2.432-.001.001.596c-.608.002-1.216 0-1.824.001v.615l.993.001v.608h-.992c-.002.303-.002.606 0 .909.628 0 1.256-.002 1.884.001l-.002.595h-2.492a614.202 614.202 0 0 1 0-3.325zM13.961 3.026l2.433.001v.595c-.608.002-1.216 0-1.824.001v.615l.993.002v.607l-.992.002-.002.904c.628.006 1.255 0 1.882.003l.001.595c-.831.001-1.661.002-2.492 0-.001-1.109-.002-2.217.001-3.325zM17.115 3.026c.662.035 1.403-.135 1.987.265.972.611.939 2.279-.068 2.84-.581.341-1.281.181-1.92.215 0-1.107-.001-2.213.001-3.32zm.606.592c-.001.712-.001 1.424.001 2.136.334-.009.7.052.998-.137.601-.328.651-1.263.193-1.729-.316-.31-.786-.269-1.192-.27zM5.921 8.011h.596c.003.936 0 1.872.002 2.809.631.002 1.262 0 1.893.001v.514c-.83.002-1.661.002-2.492 0 0-1.108-.001-2.216.001-3.324zM8.978 8.011h.598v3.325h-.598a921.303 921.303 0 0 1 0-3.325zM10.437 8.008L10.754 8c.019.213.199.212.368.214.293.571.567 1.152.854 1.726.349-.531.576-1.13.877-1.689.136-.04.261-.1.299-.249l.411.006c-.003 1.109.004 2.218-.004 3.327l-.582-.003c-.003-.672.002-1.345-.002-2.018-.334.668-.649 1.346-.981 2.015-.328-.669-.638-1.345-.969-2.013-.004.672.001 1.344-.002 2.017l-.583.002c-.007-1.109 0-2.218-.003-3.327zM14.424 8.011h.598c.002 1.108.002 2.217 0 3.325h-.598V8.011zM15.588 8.011a690.1 690.1 0 0 1 2.492.001v.584l-.956.003c-.001.912.002 1.824-.001 2.736l-.58.002c-.006-.913 0-1.826-.003-2.739l-.952-.002v-.585z"/>
    <path fill="#2b2b2b" opacity=".9" d="M2 .984l.106-.087c-.018 7.4.007 14.802-.013 22.203L2 22.957V.984zM21.907.899l.093.143v22.097l-.079-.152c-.044-7.361-.016-14.725-.014-22.088z"/>
    <path fill="#030303" d="M9.347 13.795c1.78-.003 3.559-.002 5.338-.001l-.027 1.399c-1.32.004-2.64-.001-3.96.002-.03.382-.058.764-.084 1.146 1.336-.34 2.969-.307 3.961.787 1.066 1.113.943 3.112-.306 4.042-1.582 1.181-3.835.83-5.428-.152.251-.401.504-.799.758-1.197 1.069.591 2.435.889 3.585.363.932-.437.879-1.911-.006-2.366-.822-.368-1.768-.216-2.594.062-.504-.02-.989-.235-1.487-.328.068-1.258.24-2.496.25-3.757z"/>
    <path fill="#1f1f1f" opacity=".92" d="M2.913 23.897c6.062.012 12.123-.009 18.185.01l-.142.093H2.994l-.081-.103z"/>
</svg>
