<!-- Generated by IcoMoon.io -->
<svg version="1.1" xmlns="http://www.w3.org/2000/svg" width="24" height="24" viewBox="0 0 24 24">
<title>regulatory--dual-lanes-go-straight-on-right--g1</title>
<path fill="#202020" opacity="0.29" d="M3.642 0.276c2.074-0.058 4.149-0.035 6.224-0.040 4.048-0.005 8.095 0.012 12.142 0.017 0.256 0.002 0.52-0.050 0.769 0.034-6.378-0.009-12.757 0.001-19.135-0.010z"></path>
<path fill="#1a1919" d="M0.1 1.516c0.175-0.66 0.785-1.293 1.513-1.235 0.676 0.003 1.352-0.003 2.029-0.005 6.378 0.011 12.757 0.001 19.135 0.010 0.499 0.205 0.882 0.627 1.081 1.125v21.155c0.016 0.666-0.518 1.178-1.085 1.434h-21.599c-0.619-0.27-1.159-0.907-1.081-1.613 0.007-6.957-0.003-13.915 0.007-20.871M1.437 0.443c-0.692 0.074-1.237 0.768-1.184 1.455 0.004 6.894-0.001 13.789 0.002 20.683 0.037 0.555 0.449 1.069 0.981 1.231 0.231 0.057 0.471 0.065 0.708 0.062 6.782-0.003 13.564 0.003 20.346-0.003 0.735 0.033 1.406-0.609 1.419-1.339-0.001-6.926-0-13.853 0-20.779-0.016-0.561-0.422-1.084-0.951-1.264-0.322-0.088-0.659-0.069-0.989-0.070-6.529 0-13.059 0-19.588 0-0.248 0.001-0.498-0.011-0.745 0.024z"></path>
<path fill="#1a1919" d="M1.54 0.741c6.49-0.026 12.981-0.001 19.471-0.012 0.519-0.006 1.048-0.082 1.559 0.043 0.506 0.1 0.851 0.628 0.834 1.127-0.015 6.908 0.002 13.818-0.009 20.726-0.087 0.604-0.71 0.973-1.289 0.935-6.641 0.004-13.283 0.003-19.924 0-0.459-0.009-0.997 0.004-1.34-0.354-0.318-0.331-0.287-0.821-0.276-1.245 0-6.119 0.001-12.238-0-18.357-0.036-0.615-0.048-1.233 0.018-1.846 0.058-0.494 0.411-1.020 0.957-1.017M1.232 1.564c-0.113 0.269-0.072 0.57-0.076 0.855 0.002 6.641-0.001 13.283 0.002 19.925-0.008 0.295 0.16 0.644 0.502 0.623 3.591 0.011 7.184 0 10.776 0.005-0.004-3.403-0.001-6.805-0.002-10.207 0.197-0 0.394-0 0.591 0-0.001 3.403 0.001 6.805-0.001 10.208 3.010-0.006 6.020 0.004 9.030-0.005 0.293 0.009 0.674-0.058 0.754-0.391 0.002-6.561-0.002-13.122 0.002-19.682-0.019-0.46 0.168-0.979-0.127-1.386-0.099-0.167-0.312-0.186-0.486-0.186-6.83-0.001-13.66-0-20.489-0-0.184-0.001-0.398 0.059-0.475 0.244z"></path>
<path fill="#1a1919" d="M14.346 4.050c0.019-0.041 0.087-0.078 0.113-0.022 0.749 1.048 1.473 2.115 2.173 3.196 0.162 0.216-0.127 0.511-0.355 0.444-0.345-0.087-0.677-0.216-1.022-0.305-0.001 1.455-0.012 2.91 0.006 4.366 0.382-0.537 0.768-1.074 1.221-1.555 0.702-0.733 1.54-1.319 2.388-1.87-0.267-0.239-0.578-0.428-0.825-0.688-0.201-0.18 0.020-0.515 0.26-0.499 1.287-0.018 2.575-0.005 3.863 0.011-0.398 1.125-0.817 2.243-1.248 3.355-0.059 0.171-0.151 0.329-0.281 0.456-0.158 0.008-0.338-0.043-0.402-0.203-0.14-0.352-0.228-0.723-0.36-1.078-0.904 0.671-1.725 1.453-2.469 2.296-1.009 1.112-1.685 2.504-2.010 3.965-0.117 0.39-0.111 0.8-0.142 1.203-0.008 1.66-0.001 3.319-0.005 4.979-0.556 0.004-1.113 0.001-1.669 0.001 0-4.158 0.002-8.316-0.002-12.474-0.060-0.753-0.018-1.51-0.041-2.264-0.359 0.1-0.706 0.242-1.073 0.307-0.245 0.053-0.428-0.271-0.283-0.465 0.683-1.077 1.415-2.123 2.163-3.155z"></path>
<path fill="#1a1919" d="M1.838 9.454c1.286-0.403 2.57-0.811 3.857-1.21 0.253-0.104 0.586 0.198 0.441 0.455-0.193 0.337-0.438 0.641-0.649 0.966 0.672 0.201 1.365 0.409 1.923 0.853 1.276 0.901 2.142 2.382 2.224 3.95 0.044 0.937 0.001 1.876 0.009 2.815-0.574 0-1.149 0-1.724 0-0.003-0.876 0.004-1.753-0.003-2.629-0.068-1.599-1.344-3.042-2.926-3.3-0.008 0.374 0.015 0.749-0.010 1.122-0.037 0.284-0.454 0.37-0.612 0.14-0.841-1.056-1.688-2.106-2.529-3.162z"></path>
<path fill="#1a1919" d="M2.624 18.427c0.439-0.129 0.97 0.002 1.189 0.432 0.373 0.783 0.378 1.788-0.132 2.512-0.415 0.45-1.291 0.381-1.585-0.178-0.369-0.734-0.379-1.657 0.026-2.379 0.099-0.194 0.294-0.332 0.502-0.388M2.818 18.91c-0.205 0.035-0.313 0.244-0.375 0.422-0.168 0.519-0.164 1.118 0.099 1.606 0.193 0.317 0.731 0.271 0.865-0.079 0.221-0.528 0.233-1.159-0.006-1.684-0.092-0.222-0.357-0.328-0.583-0.265z"></path>
<path fill="#1a1919" d="M4.578 18.441c0.169-0 0.338-0 0.507-0 0.387 0.671 0.769 1.345 1.157 2.016 0.002-0.672 0-1.344 0.001-2.015 0.165-0 0.33-0 0.496 0 0 1.054 0 2.109-0 3.164-0.148 0-0.297 0-0.446 0.001-0.405-0.713-0.8-1.431-1.206-2.144-0.002 0.714 0 1.429-0.001 2.142-0.169 0-0.338 0-0.507 0-0-1.054-0-2.109 0-3.164z"></path>
<path fill="#1a1919" d="M7.305 18.441c0.165-0 0.33-0 0.496 0 0 0.901 0 1.803 0 2.704 0.488 0.001 0.976-0 1.464 0 0 0.153 0 0.306 0 0.459-0.654 0.001-1.307-0-1.96 0.001-0.001-1.055-0-2.11-0-3.165z"></path>
<path fill="#1a1919" d="M9.327 18.442c0.199-0.001 0.398-0.001 0.598-0.002 0.258 0.403 0.512 0.809 0.767 1.214 0.263-0.402 0.511-0.812 0.773-1.215 0.191 0.001 0.382 0.001 0.574 0.002-0.313 0.51-0.626 1.019-0.941 1.527-0.069 0.118-0.17 0.232-0.157 0.378 0 0.42 0.002 0.84 0 1.259-0.165 0-0.331 0-0.496 0-0.011-0.463 0.021-0.93-0.015-1.391-0.353-0.599-0.742-1.179-1.105-1.772z"></path>
<path fill="#fffffe" d="M1.437 0.443c0.247-0.036 0.497-0.023 0.745-0.024 6.53 0 13.059 0 19.588 0 0.33 0.001 0.667-0.018 0.989 0.070 0.528 0.18 0.934 0.703 0.951 1.264-0 6.926-0.001 13.853 0 20.779-0.013 0.73-0.684 1.372-1.419 1.339-6.782 0.006-13.564 0-20.346 0.003-0.237 0.003-0.477-0.005-0.708-0.062-0.533-0.162-0.944-0.676-0.981-1.231-0.003-6.895 0.001-13.789-0.002-20.683-0.052-0.687 0.492-1.381 1.184-1.455M1.54 0.741c-0.546-0.003-0.899 0.523-0.957 1.017-0.066 0.613-0.053 1.231-0.018 1.846 0.002 6.119 0.001 12.238 0 18.357-0.011 0.424-0.042 0.914 0.276 1.245 0.343 0.358 0.881 0.346 1.34 0.354 6.641 0.002 13.283 0.003 19.924-0 0.579 0.038 1.202-0.331 1.289-0.935 0.011-6.908-0.006-13.818 0.009-20.726 0.018-0.499-0.328-1.027-0.834-1.127-0.511-0.124-1.040-0.049-1.559-0.043-6.49 0.011-12.981-0.014-19.471 0.012z"></path>
<path fill="#fffffe" d="M1.232 1.564c0.077-0.185 0.292-0.245 0.475-0.244 6.83 0 13.66-0 20.489 0 0.174 0 0.388 0.019 0.486 0.186 0.295 0.407 0.108 0.927 0.127 1.386-0.004 6.561 0 13.122-0.002 19.682-0.081 0.333-0.461 0.4-0.754 0.391-3.010 0.009-6.020-0-9.030 0.005 0.003-3.403 0-6.805 0.001-10.208-0.197-0-0.394-0-0.591 0 0.001 3.402-0.002 6.804 0.002 10.207-3.592-0.005-7.184 0.006-10.776-0.005-0.342 0.021-0.509-0.329-0.502-0.623-0.003-6.642 0-13.283-0.002-19.925 0.004-0.285-0.037-0.585 0.076-0.855M14.346 4.050c-0.748 1.032-1.48 2.078-2.163 3.155-0.145 0.194 0.038 0.518 0.283 0.465 0.367-0.065 0.715-0.207 1.073-0.307 0.023 0.755-0.019 1.512 0.041 2.264 0.004 4.158 0.002 8.316 0.002 12.474 0.556 0 1.112 0.002 1.669-0.001 0.004-1.66-0.002-3.319 0.005-4.979 0.032-0.403 0.026-0.812 0.142-1.203 0.324-1.461 1.001-2.853 2.010-3.965 0.745-0.843 1.566-1.625 2.469-2.296 0.132 0.355 0.22 0.726 0.36 1.078 0.064 0.16 0.244 0.211 0.402 0.203 0.129-0.127 0.222-0.285 0.281-0.456 0.431-1.113 0.849-2.231 1.248-3.355-1.288-0.016-2.576-0.030-3.863-0.011-0.24-0.016-0.461 0.319-0.26 0.499 0.247 0.26 0.558 0.449 0.825 0.688-0.848 0.552-1.685 1.137-2.388 1.87-0.453 0.481-0.839 1.018-1.221 1.555-0.018-1.455-0.007-2.91-0.006-4.366 0.344 0.089 0.677 0.219 1.022 0.305 0.228 0.067 0.517-0.228 0.355-0.444-0.7-1.081-1.423-2.149-2.173-3.196-0.027-0.056-0.094-0.019-0.113 0.022M1.838 9.454c0.841 1.055 1.688 2.106 2.529 3.162 0.158 0.23 0.576 0.144 0.612-0.14 0.026-0.373 0.003-0.748 0.010-1.122 1.582 0.258 2.858 1.701 2.926 3.3 0.007 0.876 0 1.753 0.003 2.629 0.574 0 1.149 0 1.724 0-0.007-0.938 0.035-1.877-0.009-2.815-0.083-1.568-0.948-3.049-2.224-3.95-0.558-0.443-1.251-0.652-1.923-0.853 0.211-0.325 0.456-0.629 0.649-0.966 0.145-0.258-0.188-0.56-0.441-0.455-1.287 0.399-2.571 0.807-3.857 1.21M2.624 18.427c-0.209 0.055-0.403 0.193-0.502 0.388-0.406 0.722-0.395 1.644-0.026 2.379 0.294 0.559 1.17 0.628 1.585 0.178 0.511-0.724 0.505-1.729 0.132-2.512-0.219-0.429-0.75-0.56-1.189-0.432M4.578 18.441c-0 1.055-0 2.109 0 3.164 0.169 0 0.338 0 0.507 0 0.001-0.714-0.001-1.428 0.001-2.142 0.406 0.712 0.801 1.431 1.206 2.144 0.149-0.001 0.297-0.001 0.446-0.001 0.001-1.054 0-2.109 0-3.164-0.166-0-0.331-0-0.496 0-0.001 0.672 0.001 1.343-0.001 2.015-0.388-0.671-0.77-1.345-1.157-2.016-0.169 0-0.338 0-0.507 0M7.305 18.441c0 1.055-0 2.11 0 3.165 0.653-0.001 1.306 0 1.96-0.001-0-0.153-0-0.306-0-0.459-0.488-0.001-0.976 0-1.464-0 0-0.901 0-1.803 0-2.704-0.166-0-0.331-0-0.496 0M9.327 18.442c0.363 0.594 0.751 1.173 1.105 1.772 0.037 0.461 0.004 0.928 0.015 1.391 0.165 0 0.331 0 0.496 0 0.001-0.42-0-0.84-0-1.259-0.014-0.146 0.088-0.26 0.157-0.378 0.315-0.508 0.628-1.017 0.941-1.527-0.192-0.001-0.383-0-0.574-0.002-0.262 0.402-0.51 0.813-0.773 1.215-0.256-0.405-0.509-0.811-0.767-1.214-0.2 0.001-0.399 0-0.598 0.002z"></path>
<path fill="#fffffe" d="M2.818 18.91c0.226-0.064 0.49 0.043 0.583 0.265 0.239 0.525 0.226 1.156 0.006 1.684-0.134 0.35-0.672 0.396-0.865 0.079-0.263-0.487-0.267-1.087-0.099-1.606 0.062-0.178 0.169-0.387 0.375-0.422z"></path>
</svg>
