<?xml version="1.0" encoding="utf-8"?>
<!-- Generated by IcoMoon.io -->
<!DOCTYPE svg PUBLIC "-//W3C//DTD SVG 1.1//EN" "http://www.w3.org/Graphics/SVG/1.1/DTD/svg11.dtd">
<svg version="1.1" xmlns="http://www.w3.org/2000/svg" xmlns:xlink="http://www.w3.org/1999/xlink" width="24" height="24" viewBox="0 0 24 24">
<path fill="#fffffe" d="M0.071 0h23.858v24h-1.304c0.378-0.089 0.72-0.33 0.929-0.657 0.146-0.23 0.289-0.484 0.281-0.765-0.001-6.974-0-13.948-0.003-20.922-0.057-0.55-0.452-1.044-0.948-1.274-0.281-0.135-0.599-0.091-0.9-0.098-6.766-0.020-13.532-0.004-20.298-0.006-0.248 0.002-0.513-0.006-0.732 0.128-0.444 0.217-0.766 0.649-0.882 1.126v-1.531z"></path>
<path fill="#fffffe" d="M1.283 0.461c0.211-0.038 0.425-0.049 0.637-0.043 6.562 0.001 13.124 0 19.686 0 0.363 0.004 0.731-0.024 1.089 0.060 0.457 0.141 0.809 0.534 0.942 0.988 0.059 0.201 0.033 0.412 0.038 0.618 0 6.767-0.001 13.534 0.001 20.301 0.046 0.56-0.302 1.121-0.807 1.356-0.196 0.107-0.427 0.114-0.645 0.13-6.626 0.001-13.252 0-19.877 0-0.379-0.007-0.763 0.028-1.136-0.058-0.537-0.16-0.952-0.676-0.99-1.235-0.002-6.895 0.001-13.789-0.001-20.683-0.050-0.648 0.43-1.297 1.064-1.436M1.468 0.746c-0.206 0.048-0.43 0.106-0.576 0.271-0.177 0.192-0.333 0.425-0.356 0.693-0.027 0.394-0.018 0.789-0.005 1.183 0 6.452 0 12.903 0 19.354 0.003 0.183-0.025 0.374 0.043 0.549 0.072 0.191 0.2 0.358 0.35 0.495 0.268 0.214 0.618 0.269 0.951 0.27 5.77 0.001 11.54 0 17.31 0 0.964-0.005 1.928 0.011 2.891-0.009 0.386-0.013 0.835-0.087 1.075-0.425 0.258-0.33 0.218-0.774 0.212-1.167-0-5.913 0-11.825 0-17.738-0.017-0.861 0.098-1.728-0.037-2.585-0.086-0.33-0.261-0.682-0.594-0.819-0.283-0.112-0.595-0.082-0.893-0.087-6.275 0-12.55 0-18.825-0-0.516-0.002-1.035-0.074-1.547 0.016z"></path>
<path fill="#fffffe" d="M1.461 1.352c0.102-0.032 0.212-0.028 0.318-0.031 6.735 0 13.469 0 20.205-0 0.213 0.002 0.465-0.028 0.635 0.129 0.205 0.241 0.148 0.585 0.155 0.878-0.002 6.669 0 13.338-0.001 20.008-0.008 0.152-0.039 0.307-0.114 0.44-0.101 0.165-0.31 0.196-0.487 0.196-3.413-0.001-6.826 0-10.239-0-0.38-0.009-0.759 0.035-1.139 0.001-2.799-0.002-5.598-0-8.397-0.001-0.331-0.002-0.669 0.016-0.994-0.064-0.121-0.078-0.248-0.184-0.283-0.33 0.005-6.513 0-13.027 0.002-19.541 0.003-0.379-0.051-0.757-0.036-1.136 0.046-0.215 0.141-0.483 0.375-0.55M8.961 4.338c-0.49 0.628-0.884 1.324-1.364 1.96-0.113 0.149-0.227 0.304-0.29 0.482-0.025 0.077 0.024 0.148 0.046 0.219 0.102 0.111 0.251 0.193 0.406 0.149 0.344-0.083 0.674-0.216 1.016-0.306 0.003 1.472 0.009 2.944-0.002 4.416-0.103-0.077-0.169-0.188-0.24-0.292-0.256-0.379-0.534-0.746-0.849-1.079-0.214-0.211-0.428-0.422-0.637-0.637-0.564-0.559-1.264-0.948-1.888-1.432 0.001-0.018 0.005-0.052 0.006-0.070 0.251-0.224 0.541-0.404 0.776-0.645 0.139-0.146 0.060-0.36-0.075-0.475-0.293-0.102-0.606-0.060-0.909-0.069-0.253 0.009-0.505-0.030-0.758-0.026-0.834-0.002-1.669-0.026-2.503-0.006 0.071 0.277 0.177 0.545 0.281 0.811 0.039 0.129 0.089 0.255 0.142 0.38 0.082 0.259 0.195 0.506 0.286 0.762 0.239 0.564 0.423 1.15 0.653 1.717 0.043 0.098 0.073 0.224 0.185 0.266 0.129 0.065 0.292 0.024 0.399-0.066 0.121-0.194 0.166-0.421 0.238-0.634 0.062-0.179 0.122-0.36 0.169-0.544 0.018 0.001 0.055 0.004 0.074 0.006 0.346 0.338 0.74 0.62 1.108 0.934 0.358 0.305 0.667 0.66 1.005 0.986 0.553 0.538 0.972 1.192 1.385 1.839 0.542 0.954 0.918 2.003 1.098 3.085 0.010 0.16 0.008 0.323 0.047 0.48 0.016 0.333 0.012 0.668 0.013 1.002-0.004 1.461 0.009 2.923 0.002 4.384 0.064 0.038 0.135 0.056 0.209 0.050 0.511 0 1.022 0.009 1.532 0.001 0.002-5.048-0.011-10.095 0.013-15.142 0.359 0.083 0.694 0.249 1.058 0.311 0.221 0.055 0.485-0.168 0.376-0.397-0.185-0.454-0.535-0.814-0.797-1.223-0.326-0.516-0.676-1.016-1.031-1.513-0.153-0.222-0.306-0.443-0.458-0.665-0.291 0.286-0.471 0.662-0.72 0.982M17.814 8.395c-0.104 0.114-0.046 0.283 0.028 0.397 0.198 0.293 0.403 0.581 0.6 0.874-0.544 0.161-1.096 0.327-1.586 0.619-0.554 0.364-1.080 0.789-1.474 1.327-0.436 0.579-0.791 1.233-0.949 1.945-0.096 0.439-0.153 0.887-0.157 1.337 0.003 0.796 0.008 1.592 0.011 2.389 0.575 0 1.15 0 1.725 0 0-0.735 0-1.469 0-2.204 0-0.206-0.007-0.412 0.016-0.618 0.141-1.279 1.027-2.45 2.231-2.914 0.222-0.081 0.451-0.136 0.679-0.195 0.009 0.359-0.006 0.719 0.007 1.077 0.003 0.209 0.228 0.368 0.427 0.307 0.106-0.010 0.175-0.095 0.235-0.175 0.825-1.040 1.662-2.069 2.484-3.111-1.173-0.366-2.345-0.737-3.518-1.104-0.144-0.043-0.285-0.099-0.434-0.124-0.133-0.017-0.243 0.079-0.323 0.172M10.904 12.766c0.002 3.4 0 6.801 0 10.201 0.197 0.011 0.394 0.011 0.591-0 0-3.4-0-6.801 0-10.202-0.197-0-0.394-0.001-0.591 0.001M12.9 18.532c-0.203 0.071-0.392 0.212-0.48 0.414-0.312 0.567-0.354 1.255-0.189 1.874 0.077 0.254 0.162 0.525 0.371 0.703 0.215 0.222 0.55 0.253 0.842 0.22 0.293-0.018 0.565-0.21 0.68-0.48 0.291-0.518 0.318-1.14 0.211-1.713-0.075-0.309-0.165-0.646-0.422-0.857-0.268-0.256-0.677-0.241-1.013-0.161M14.893 18.536c0 1.054 0 2.109 0 3.164 0.169 0 0.339 0 0.508 0 0.001-0.711-0.002-1.422 0.001-2.133 0.414 0.705 0.799 1.427 1.207 2.135 0.148-0.002 0.296-0.002 0.445-0.002 0-1.055 0-2.11 0-3.164-0.165-0-0.331-0-0.496-0-0.001 0.67 0 1.34-0 2.010-0.394-0.665-0.769-1.342-1.159-2.011-0.169 0.001-0.337 0-0.506 0.001M17.622 18.536c-0.001 1.054 0.001 2.108-0.001 3.163 0.654 0.002 1.308 0.002 1.962 0-0.001-0.153-0.001-0.305-0.001-0.458-0.489-0.001-0.977 0.002-1.465-0.002 0.003-0.901 0-1.802 0.001-2.703-0.165-0-0.331-0-0.496 0M19.643 18.536c0.35 0.561 0.702 1.12 1.056 1.678 0.033 0.055 0.071 0.111 0.064 0.179 0 0.434 0.002 0.869-0.002 1.303 0.166 0.001 0.331 0.005 0.496 0.004 0.014-0.463-0.012-0.928 0.012-1.391 0.355-0.596 0.729-1.181 1.087-1.775-0.191-0-0.382 0.001-0.573-0.002-0.264 0.401-0.507 0.815-0.776 1.213-0.255-0.406-0.508-0.812-0.768-1.214-0.199 0.003-0.397 0.001-0.596 0.003z"></path>
<path fill="#fffffe" d="M13 19.053c0.225-0.122 0.548-0.076 0.685 0.156 0.153 0.289 0.218 0.623 0.204 0.949-0.023 0.31-0.046 0.652-0.242 0.907-0.131 0.2-0.415 0.216-0.618 0.127-0.183-0.098-0.25-0.306-0.307-0.492-0.118-0.418-0.098-0.873 0.040-1.284 0.044-0.139 0.124-0.269 0.237-0.363z"></path>
<path fill="#fffffe" d="M0.071 22.126c0.040 0.361-0.036 0.763 0.177 1.083 0.22 0.384 0.593 0.689 1.026 0.791h-1.203v-1.874z"></path>
<path fill="#1a1919" d="M0.953 0.406c0.219-0.134 0.484-0.126 0.732-0.128 6.766 0.002 13.532-0.014 20.298 0.006 0.301 0.007 0.618-0.037 0.9 0.098 0.497 0.23 0.891 0.725 0.948 1.274 0.002 6.974 0.001 13.948 0.003 20.922 0.008 0.281-0.135 0.535-0.281 0.765-0.209 0.327-0.551 0.569-0.929 0.657h-21.351c-0.434-0.102-0.806-0.407-1.026-0.791-0.212-0.32-0.137-0.721-0.177-1.083v-20.595c0.117-0.476 0.438-0.909 0.882-1.126M1.283 0.461c-0.634 0.138-1.114 0.788-1.064 1.436 0.002 6.895-0 13.789 0.001 20.683 0.038 0.559 0.453 1.075 0.99 1.235 0.373 0.087 0.757 0.051 1.136 0.058 6.626-0 13.252 0 19.877-0 0.218-0.017 0.449-0.023 0.645-0.13 0.506-0.235 0.853-0.796 0.807-1.356-0.002-6.767-0-13.534-0.001-20.301-0.005-0.206 0.021-0.417-0.038-0.618-0.133-0.454-0.485-0.848-0.942-0.988-0.357-0.084-0.726-0.056-1.089-0.060-6.562 0-13.124 0-19.686-0-0.213-0.006-0.427 0.005-0.637 0.043z"></path>
<path fill="#1a1919" d="M1.468 0.746c0.512-0.090 1.031-0.018 1.547-0.016 6.275 0 12.55 0 18.825 0 0.298 0.005 0.61-0.026 0.893 0.087 0.333 0.138 0.508 0.489 0.594 0.819 0.135 0.857 0.020 1.724 0.037 2.585 0 5.912-0 11.825 0 17.738 0.006 0.393 0.046 0.838-0.212 1.167-0.24 0.339-0.689 0.413-1.075 0.425-0.964 0.020-1.928 0.004-2.891 0.009-5.77 0-11.54 0-17.31-0-0.333-0.001-0.683-0.056-0.951-0.27-0.15-0.137-0.277-0.304-0.35-0.495-0.068-0.175-0.040-0.366-0.043-0.549 0-6.451 0-12.902 0-19.354-0.013-0.394-0.022-0.789 0.005-1.183 0.022-0.268 0.179-0.501 0.356-0.693 0.146-0.166 0.369-0.223 0.576-0.271M1.461 1.352c-0.234 0.066-0.329 0.335-0.375 0.55-0.015 0.378 0.039 0.757 0.036 1.136-0.002 6.514 0.002 13.028-0.002 19.541 0.035 0.146 0.162 0.252 0.283 0.33 0.324 0.079 0.663 0.062 0.994 0.064 2.799 0 5.598-0.001 8.397 0.001 0.379 0.034 0.759-0.009 1.139-0.001 3.413 0 6.826-0 10.239 0 0.177 0 0.387-0.032 0.487-0.196 0.075-0.133 0.106-0.288 0.114-0.44 0.001-6.669-0.001-13.338 0.001-20.008-0.007-0.293 0.050-0.637-0.155-0.878-0.17-0.157-0.422-0.128-0.635-0.129-6.735 0.001-13.47 0-20.205 0-0.106 0.003-0.215-0.001-0.318 0.031z"></path>
<path fill="#1a1919" d="M8.961 4.338c0.249-0.32 0.429-0.697 0.72-0.982 0.152 0.222 0.305 0.444 0.458 0.665 0.355 0.497 0.705 0.997 1.031 1.513 0.262 0.409 0.611 0.769 0.797 1.223 0.109 0.229-0.155 0.452-0.376 0.397-0.363-0.062-0.699-0.228-1.058-0.311-0.024 5.048-0.011 10.095-0.013 15.142-0.51 0.009-1.021-0.001-1.532-0.001-0.074 0.005-0.146-0.012-0.209-0.050 0.007-1.461-0.006-2.923-0.002-4.384-0.001-0.334 0.003-0.669-0.013-1.002-0.040-0.157-0.037-0.319-0.047-0.48-0.181-1.082-0.557-2.132-1.098-3.085-0.413-0.646-0.832-1.301-1.385-1.839-0.338-0.325-0.647-0.681-1.005-0.986-0.367-0.314-0.761-0.597-1.108-0.934-0.018-0.001-0.056-0.004-0.074-0.006-0.047 0.184-0.107 0.364-0.169 0.544-0.072 0.213-0.116 0.441-0.238 0.634-0.107 0.090-0.269 0.131-0.399 0.066-0.112-0.042-0.142-0.167-0.185-0.266-0.231-0.567-0.414-1.153-0.653-1.717-0.090-0.257-0.203-0.503-0.286-0.762-0.053-0.125-0.103-0.25-0.142-0.38-0.103-0.267-0.21-0.534-0.281-0.811 0.834-0.020 1.669 0.004 2.503 0.006 0.253-0.005 0.505 0.035 0.758 0.026 0.304 0.009 0.616-0.032 0.909 0.069 0.136 0.116 0.215 0.33 0.075 0.475-0.236 0.241-0.526 0.421-0.776 0.645-0.001 0.018-0.005 0.052-0.006 0.070 0.624 0.484 1.324 0.873 1.888 1.432 0.21 0.215 0.423 0.427 0.637 0.637 0.315 0.333 0.593 0.7 0.849 1.079 0.072 0.104 0.138 0.215 0.24 0.292 0.010-1.472 0.005-2.944 0.002-4.416-0.342 0.090-0.672 0.223-1.016 0.306-0.155 0.044-0.304-0.037-0.406-0.149-0.022-0.071-0.071-0.142-0.046-0.219 0.064-0.178 0.177-0.332 0.29-0.482 0.48-0.637 0.874-1.332 1.364-1.96z"></path>
<path fill="#1a1919" d="M17.814 8.395c0.081-0.093 0.191-0.188 0.323-0.172 0.148 0.025 0.289 0.081 0.434 0.124 1.173 0.368 2.345 0.738 3.518 1.104-0.822 1.041-1.66 2.071-2.484 3.111-0.060 0.080-0.129 0.164-0.235 0.175-0.199 0.061-0.424-0.098-0.427-0.307-0.012-0.359 0.002-0.718-0.007-1.077-0.228 0.059-0.458 0.114-0.679 0.195-1.204 0.463-2.090 1.634-2.231 2.914-0.023 0.205-0.016 0.412-0.016 0.618 0 0.735 0 1.469 0 2.204-0.575 0-1.15 0-1.725 0-0.003-0.796-0.008-1.593-0.011-2.389 0.004-0.45 0.062-0.898 0.157-1.337 0.158-0.712 0.513-1.366 0.949-1.945 0.394-0.538 0.921-0.963 1.474-1.327 0.49-0.293 1.043-0.458 1.586-0.619-0.197-0.293-0.402-0.581-0.6-0.874-0.074-0.114-0.132-0.283-0.028-0.397z"></path>
<path fill="#1a1919" d="M10.904 12.766c0.197-0.002 0.394-0.001 0.591-0.001-0 3.401 0 6.802 0 10.202-0.197 0.012-0.394 0.011-0.591 0 0-3.4 0.001-6.801-0-10.201z"></path>
<path fill="#1a1919" d="M12.9 18.532c0.336-0.081 0.745-0.095 1.013 0.161 0.258 0.211 0.347 0.547 0.422 0.857 0.107 0.573 0.080 1.195-0.211 1.713-0.115 0.27-0.388 0.462-0.68 0.48-0.292 0.033-0.627 0.001-0.842-0.22-0.209-0.178-0.294-0.449-0.371-0.703-0.165-0.619-0.123-1.307 0.189-1.874 0.088-0.202 0.277-0.343 0.48-0.414M13 19.053c-0.113 0.094-0.193 0.224-0.237 0.363-0.138 0.411-0.158 0.867-0.040 1.284 0.056 0.186 0.124 0.394 0.307 0.492 0.202 0.089 0.487 0.073 0.618-0.127 0.196-0.256 0.219-0.597 0.242-0.907 0.014-0.326-0.051-0.66-0.204-0.949-0.137-0.232-0.46-0.278-0.685-0.156z"></path>
<path fill="#1a1919" d="M14.893 18.536c0.169-0 0.337 0 0.506-0.001 0.389 0.668 0.765 1.345 1.159 2.011 0.001-0.67-0-1.34 0-2.010 0.165 0 0.331 0 0.496 0 0 1.054 0 2.109 0 3.164-0.148-0-0.296-0-0.445 0.002-0.408-0.709-0.793-1.431-1.207-2.135-0.003 0.711 0 1.422-0.001 2.133-0.169 0-0.339 0-0.508 0 0-1.055 0-2.11 0-3.164z"></path>
<path fill="#1a1919" d="M17.622 18.536c0.165-0 0.331-0 0.496 0-0 0.901 0.002 1.802-0.001 2.703 0.489 0.004 0.977 0 1.465 0.002 0 0.153 0 0.305 0.001 0.458-0.654 0.002-1.308 0.002-1.962 0 0.003-1.054 0-2.109 0.001-3.163z"></path>
<path fill="#1a1919" d="M19.643 18.536c0.199-0.001 0.397 0 0.596-0.003 0.26 0.402 0.513 0.808 0.768 1.214 0.268-0.398 0.512-0.812 0.775-1.213 0.191 0.003 0.382 0.001 0.573 0.002-0.359 0.594-0.732 1.179-1.087 1.775-0.024 0.462 0.001 0.927-0.012 1.391-0.165 0.001-0.33-0.003-0.496-0.004 0.005-0.434 0.002-0.869 0.002-1.303 0.008-0.068-0.031-0.125-0.064-0.179-0.354-0.558-0.706-1.117-1.056-1.678z"></path>
</svg>
