<svg xmlns="http://www.w3.org/2000/svg" width="24" height="24">
    <path fill="#e20a16" d="M11.119 0h1.487c4.53.217 8.784 3.182 10.481 7.397.498 1.141.731 2.37.913 3.595v2.036c-.396 4.088-2.929 7.918-6.647 9.714-1.337.701-2.822 1.039-4.306 1.258h-2.082c-1.274-.196-2.552-.454-3.734-.985C3.105 21.269.223 17.075 0 12.61v-1.202C.222 6.656 3.492 2.224 8.005.69 9.009.326 10.068.166 11.119.001zM5.384 4.496c.883 1.614 1.838 3.188 2.742 4.79 1.01 1.75 2.032 3.494 3.036 5.246 1.334 2.323 2.677 4.642 4.016 6.962 2.275-.773 4.26-2.371 5.464-4.454 1.412-2.38 1.742-5.359.917-7.997-.977-3.234-3.708-5.869-6.986-6.7-3.173-.87-6.724-.022-9.188 2.152zM3.412 17.111c1.931 3.329 5.896 5.306 9.718 4.838-1.252-2.167-2.494-4.34-3.761-6.499-.347-.588-.631-1.219-1.061-1.753.059-.151-.088-.39-.28-.281l.137-.136c-.28-.379-.484-.806-.748-1.196-.235-.455-.496-.896-.756-1.337l-.246-.433C5.593 8.9 4.787 7.48 3.957 6.071c-2.369 3.133-2.598 7.688-.546 11.04z"/>
    <path fill="#fff" d="M5.384 4.496c2.465-2.173 6.016-3.022 9.188-2.152 3.278.83 6.01 3.466 6.986 6.7.826 2.638.496 5.617-.917 7.997-1.204 2.083-3.188 3.682-5.464 4.454-1.339-2.321-2.682-4.639-4.016-6.962 1.854.005 3.708.004 5.563.001.066-.724.631-1.402 1.394-1.404.802-.059 1.444.638 1.506 1.404.492.002.984.002 1.477.001-.001-1.77.007-3.539-.002-5.308.04-.445-.384-.792-.811-.739-3.805.002-7.613-.008-11.418.005-.456-.034-.665.419-.745.793-.904-1.602-1.859-3.176-2.742-4.79zm12.531 9.1c-.718.157-.971 1.182-.413 1.658.505.532 1.502.222 1.631-.496.19-.692-.536-1.38-1.218-1.163zM3.412 17.111c-2.052-3.352-1.823-7.907.546-11.04.829 1.409 1.636 2.83 2.458 4.243-.772.079-1.984-.346-2.267.678-.26.911-1.096 1.585-1.073 2.567-.097.317-.199.637-.176.976h1.01c.062-.76.695-1.456 1.492-1.404.769-.005 1.343.677 1.41 1.406.21-.004.421-.004.632-.001.078-.424.229-.85.584-1.12.192-.109.338.13.28.281-.938.73-.038 2.26 1.061 1.753 1.267 2.159 2.509 4.332 3.761 6.499-3.822.468-7.787-1.51-9.718-4.838zm1.665-3.508c-.732.178-.949 1.249-.34 1.697.532.487 1.489.13 1.586-.58.158-.691-.576-1.349-1.247-1.117z"/>
    <path fill="#fff" d="M11.194 9.526c.402-.366.865-.662 1.435-.535v5.033h-.872c-.004-1.332.002-2.665-.004-3.997-.185.139-.377.268-.56.409-.004-.304.002-.607.001-.91zM14.684 9.055c.832-.376 1.897.245 1.962 1.158a33.93 33.93 0 0 1-.004 2.611c-.094 1.025-1.427 1.606-2.24.973-.766-.499-.606-1.496-.612-2.278-.035-.88-.125-2.094.894-2.465zm.24.834c-.323.185-.272.595-.275.91.025.67-.041 1.344.034 2.01.138.518.971.508 1.091-.017.059-.815.025-1.639.018-2.458-.001-.418-.526-.67-.868-.445zM18.176 8.999c.186.001.372.002.559.001-.005.266.005.533-.002.799l.388.018c-.004.178-.004.355 0 .534l-.386.018c.004.606 0 1.213.002 1.819l.401.034c-.004.182-.005.366-.002.55-.364.025-.836-.046-.932-.466-.065-.629-.011-1.264-.024-1.895l-.271-.12c.001-.138 0-.275-.005-.412.068-.031.208-.091.276-.121-.004-.253-.002-.506-.002-.76zM4.226 11.885c.179-.377.305-.792.583-1.11.613-.072 1.235-.016 1.852-.028.26.44.521.882.756 1.337-1.018.1-2.044.047-3.065.036l-.126-.235z"/>
    <path d="M8.126 9.287c.08-.374.289-.827.745-.793 3.805-.013 7.613-.002 11.418-.005.427-.053.851.294.811.739.01 1.769.001 3.538.002 5.308-.493.001-.985.001-1.477-.001-.062-.766-.704-1.463-1.506-1.404-.763.002-1.328.68-1.394 1.404-1.855.002-3.709.004-5.563-.001-1.004-1.752-2.026-3.497-3.036-5.246zm3.068.239c.001.302-.005.606-.001.91.184-.142.376-.27.56-.409.006 1.332 0 2.665.004 3.997h.872V8.991c-.57-.127-1.033.169-1.435.535zm3.49-.471c-1.019.371-.929 1.585-.894 2.465.006.781-.154 1.778.612 2.278.814.632 2.147.052 2.24-.973.038-.869.031-1.742.004-2.611-.065-.913-1.13-1.534-1.962-1.158zm3.492-.056c0 .253-.001.506.002.76-.068.03-.208.09-.276.121.005.137.006.274.005.412l.271.12c.013.631-.041 1.266.024 1.895.096.42.569.491.932.466-.002-.184-.001-.367.002-.55l-.401-.034c-.002-.606.001-1.213-.002-1.819l.386-.018a11.883 11.883 0 0 1 0-.534l-.388-.018c.007-.266-.002-.533.002-.799-.187.001-.373 0-.559-.001z"/>
    <path d="M14.924 9.889c.342-.224.866.028.868.445.007.818.041 1.643-.018 2.458-.12.524-.953.535-1.091.017-.074-.666-.008-1.34-.034-2.01.002-.314-.048-.725.275-.91zM4.148 10.992c.283-1.024 1.495-.599 2.267-.678l.246.433c-.617.012-1.238-.044-1.852.028-.278.318-.404.733-.583 1.11l.126.235c1.021.011 2.047.064 3.065-.036.264.39.468.817.748 1.196l-.137.136c-.355.27-.506.696-.584 1.12a26.62 26.62 0 0 0-.632.001c-.067-.73-.641-1.411-1.41-1.406-.797-.052-1.429.644-1.492 1.404H2.9c-.023-.338.079-.659.176-.976-.023-.982.812-1.656 1.073-2.567z"/>
    <path d="M5.077 13.603c.671-.232 1.405.426 1.247 1.117-.097.709-1.055 1.067-1.586.58-.61-.448-.392-1.519.34-1.697zM17.915 13.596c.682-.217 1.408.47 1.218 1.163-.128.718-1.126 1.027-1.631.496-.558-.476-.305-1.501.413-1.658zM9.368 15.45c-1.099.506-1.999-1.024-1.061-1.753.43.534.714 1.165 1.061 1.753z"/>
</svg>
