<?xml version="1.0" encoding="utf-8"?>
<!-- Generated by IcoMoon.io -->
<!DOCTYPE svg PUBLIC "-//W3C//DTD SVG 1.1//EN" "http://www.w3.org/Graphics/SVG/1.1/DTD/svg11.dtd">
<svg version="1.1" xmlns="http://www.w3.org/2000/svg" xmlns:xlink="http://www.w3.org/1999/xlink" width="24" height="24" viewBox="0 0 24 24">
<path fill="#d71920" d="M10.388 0.577c2.447-0.356 5.011 0.095 7.174 1.3 2.531 1.384 4.489 3.772 5.36 6.521 0.739 2.302 0.718 4.84-0.058 7.129-0.817 2.424-2.476 4.556-4.628 5.938-2.346 1.534-5.273 2.146-8.036 1.684-2.437-0.385-4.728-1.603-6.427-3.389-1.762-1.836-2.888-4.273-3.113-6.811-0.259-2.671 0.461-5.424 2.011-7.618 1.771-2.558 4.632-4.328 7.717-4.753M6.632 4.358c1.846 1.932 3.682 3.871 5.525 5.806 0.176 0.188 0.355 0.374 0.535 0.56 0.128 0.138 0.26 0.274 0.395 0.407 0.685 0.746 1.393 1.472 2.089 2.209 1.366 1.435 2.728 2.873 4.096 4.306 1.474-1.84 2.203-4.253 1.981-6.6-0.198-2.376-1.376-4.645-3.19-6.19-1.661-1.445-3.863-2.244-6.062-2.227-1.912-0.002-3.815 0.617-5.369 1.729M2.861 13.076c0.283 2.252 1.442 4.381 3.18 5.843 1.732 1.492 4.034 2.292 6.318 2.203 1.936-0.058 3.832-0.761 5.362-1.942-1.675-1.769-3.355-3.534-5.035-5.297-0.721-0.764-1.448-1.524-2.172-2.287-1.828-1.919-3.652-3.844-5.483-5.761-1.721 1.952-2.518 4.664-2.17 7.241z"></path>
<path fill="#fff" d="M6.632 4.358c1.554-1.112 3.457-1.732 5.369-1.729 2.2-0.017 4.402 0.782 6.062 2.227 1.813 1.544 2.992 3.814 3.19 6.19 0.222 2.347-0.508 4.76-1.981 6.6-1.368-1.433-2.73-2.87-4.096-4.306 1.062-0.635 1.93-1.72 2.033-2.983 0.028-0.725 0.002-1.45 0.011-2.174 0.413 0.092 0.824 0.192 1.234 0.301-0.83-1.456-1.667-2.909-2.507-4.36-0.839 1.448-1.673 2.899-2.504 4.351 0.377-0.103 0.756-0.194 1.138-0.277-0.004 0.629 0.006 1.258-0.001 1.886 0.020 0.479-0.356 0.93-0.82 1.025-0.223 0.031-0.449 0.018-0.672 0.022-0.134-0.133-0.266-0.269-0.395-0.407-0.012-2.116-0.001-4.231-0.005-6.347-0.179-0.001-0.358-0.002-0.536-0.004 0.001 1.931-0.010 3.86 0.006 5.79-1.843-1.934-3.679-3.874-5.525-5.806z"></path>
<path fill="#fff" d="M2.861 13.076c-0.348-2.576 0.449-5.288 2.17-7.241 1.831 1.918 3.655 3.842 5.483 5.761-1.093 0.668-1.966 1.844-1.973 3.163-0.004 1.658-0.001 3.317-0.001 4.975 0.88 0.001 1.759 0.001 2.638 0 0.005-1.661-0.006-3.323 0.005-4.984-0.001-0.526 0.468-0.935 0.965-1.001 0.008 1.986 0.001 3.973 0.004 5.959 0.179 0 0.358 0 0.536 0 0-1.942 0.004-3.884-0.001-5.826 1.68 1.763 3.36 3.528 5.035 5.297-1.53 1.181-3.426 1.884-5.362 1.942-2.284 0.089-4.586-0.712-6.318-2.203-1.738-1.462-2.897-3.59-3.18-5.843z"></path>
<path fill="#231f20" d="M13.442 8.476c0.832-1.452 1.666-2.903 2.504-4.351 0.84 1.451 1.676 2.904 2.507 4.36-0.409-0.109-0.821-0.209-1.234-0.301-0.008 0.725 0.017 1.45-0.011 2.174-0.103 1.264-0.971 2.348-2.033 2.983-0.696-0.737-1.404-1.463-2.089-2.209 0.223-0.004 0.449 0.010 0.672-0.022 0.463-0.095 0.84-0.546 0.82-1.025 0.007-0.629-0.002-1.258 0.001-1.886-0.382 0.083-0.761 0.174-1.138 0.277z"></path>
<path fill="#231f20" d="M12.157 10.164c-0.016-1.93-0.005-3.859-0.006-5.79 0.179 0.001 0.358 0.002 0.536 0.004 0.004 2.116-0.007 4.231 0.005 6.347-0.18-0.186-0.359-0.372-0.535-0.56z"></path>
<path fill="#231f20" d="M8.54 14.76c0.007-1.319 0.88-2.495 1.973-3.163 0.724 0.763 1.451 1.523 2.172 2.287 0.005 1.942 0.001 3.884 0.001 5.826-0.179 0-0.358 0-0.536 0-0.002-1.986 0.005-3.973-0.004-5.959-0.497 0.066-0.966 0.475-0.965 1.001-0.011 1.661 0 3.323-0.005 4.984-0.878 0.001-1.758 0.001-2.638 0 0-1.658-0.002-3.317 0.001-4.975z"></path>
</svg>
