<?xml version="1.0" encoding="utf-8"?>
<!-- Generated by IcoMoon.io -->
<!DOCTYPE svg PUBLIC "-//W3C//DTD SVG 1.1//EN" "http://www.w3.org/Graphics/SVG/1.1/DTD/svg11.dtd">
<svg version="1.1" xmlns="http://www.w3.org/2000/svg" xmlns:xlink="http://www.w3.org/1999/xlink" width="24" height="24" viewBox="0 0 24 24">
<path fill="#ed1c24" d="M11.795 0h0.524c2.794 0.047 5.564 1.088 7.655 2.948 2.154 1.866 3.563 4.519 4.026 7.322v3.48c-0.462 3.032-2.095 5.875-4.505 7.777-1.71 1.36-3.81 2.191-5.971 2.472h-2.993c-2.641-0.37-5.18-1.564-7.038-3.494-2.050-2.088-3.304-4.919-3.493-7.837v-1.102c0.156-3.301 1.694-6.518 4.208-8.67 2.082-1.828 4.824-2.845 7.586-2.897M10.626 3.448c-1.276 0.216-2.513 0.692-3.568 1.445-1.457 1.008-2.56 2.491-3.182 4.144-0.703 1.862-0.72 3.97-0.053 5.845 0.692 2.008 2.143 3.743 3.998 4.777 3.010 1.697 7.027 1.38 9.696-0.832 1.978-1.582 3.209-4.052 3.265-6.587 0.095-3.128-1.657-6.234-4.385-7.771-1.732-0.991-3.806-1.34-5.772-1.021z"></path>
<path fill="#fff" d="M10.626 3.448c1.966-0.319 4.040 0.030 5.772 1.021 2.728 1.537 4.48 4.643 4.385 7.771-0.056 2.534-1.288 5.005-3.265 6.587-2.669 2.212-6.686 2.528-9.696 0.832-1.855-1.034-3.306-2.77-3.998-4.777-0.667-1.876-0.65-3.983 0.053-5.845 0.623-1.652 1.726-3.136 3.182-4.144 1.055-0.752 2.292-1.229 3.568-1.445M12.016 9.125c0.037 0.23 0.025 0.496 0.235 0.649-0.12 0.226-0.215 0.467-0.366 0.673-0.151 0.182-0.409 0.146-0.613 0.222-0.803 0.245-1.596 0.524-2.411 0.73-0.241 0.126 0.228 0.193 0.264 0.091 0.738-0.186 1.466-0.408 2.191-0.641 0.234-0.025 0.319 0.073 0.258 0.295-0.264 0.311-0.538 0.624-0.68 1.012-0.102-0.052-0.205-0.098-0.31-0.143 0.060 0.36 0.098 0.722 0.084 1.088 0.302 0 0.606-0.005 0.906 0.037-0.32 0.172-0.71 0.078-1.052 0.026-0.065-0.386-0.041-0.85-0.372-1.123-0.372-0.368-0.925-0.366-1.406-0.448l-0.148 0.080c0.030-0.059 0.090-0.175 0.12-0.234-0.665 0.169-1.346 0.233-2.032 0.234-0.43-0.151-0.664-0.533-0.906-0.887-0.288-0.143-0.587-0.271-0.815-0.506-0.002 0.106-0.007 0.318-0.011 0.425-0.074 0.080-0.15 0.161-0.226 0.242 0.010 0.422-0.305 0.731-0.506 1.070 0.098 0.106 0.198 0.211 0.299 0.316 0.331-0.152 0.696-0.197 1.052-0.257 0.085 0.419 0.184 0.858 0.506 1.166-0.086 0.263-0.192 0.52-0.257 0.79 0.005 0.298 0.026 0.598-0.047 0.89 0.426 0.048 0.306-0.37 0.307-0.636 0.108-0.205 0.239-0.398 0.361-0.594 0.364 0.448 0.745 1.022 1.369 1.087-0.019-0.083-0.058-0.25-0.077-0.334-0.074-0.002-0.222-0.010-0.295-0.013-0.251-0.323-0.443-0.701-0.404-1.121 0.584 0.148 1.181-0.023 1.752-0.149 0.248 0.618 0.085 1.292-0.29 1.818 0.088-0.013 0.262-0.040 0.348-0.053 0.179-0.428 0.362-0.854 0.556-1.277 0.142 0.13 0.306 0.244 0.41 0.408 0.080 0.312 0.14 0.631 0.269 0.929 0.055-0.064 0.163-0.192 0.217-0.256-0.289-0.414-0.136-0.948-0.365-1.384 0.049-0.080 0.198-0.205 0.050-0.277-0.281-0.235-0.11-0.65-0.048-0.949 0.52 0.463 0.065 1.196 0.326 1.769 0.068 0.022 0.205 0.064 0.274 0.085-0.004-0.161-0.007-0.322-0.010-0.482 0.277 0.040 0.558 0.049 0.836 0.010-0.358 0.19-0.602 0.617-0.42 1.014 0.191 0.588 1.123 0.658 1.41 0.118 0.248-0.388 0.061-0.902-0.312-1.133 0.18 0.018 0.361 0.035 0.542 0.049l0.008-0.336c-0.248-0.018-0.53 0.070-0.752-0.080 0.287-0.038 0.577-0.036 0.866-0.036 0 0.247 0 0.494 0.001 0.743 1.211 0.004 2.423-0.004 3.634 0.004 0.034 0.604 0.546 1.184 1.18 1.135 0.596 0.010 1.003-0.56 1.078-1.104 0.414 0 0.828 0.004 1.242-0.007-0.011-0.829 0.018-1.66-0.012-2.489-0.127-0.182-0.407-0.235-0.556-0.421-0.324-0.109-0.683-0.145-0.961-0.36-0.256-0.215-0.604-0.096-0.905-0.144-0.36-0.011-0.721-0.128-1.080-0.037-0.391-0.122-0.79 0.035-1.188-0.001-0.87-0.18-1.396 0.797-2.26 0.728 0.005-0.494 0.090-1.102-0.294-1.484 0.025-0.194 0.053-0.389 0.065-0.584-0.212-0.052-0.425-0.006-0.632 0.046z"></path>
<path fill="#fff" d="M11.748 10.969c0.088 0.073 0.088 0.073 0 0z"></path>
<path fill="#fff" d="M4.955 12.040c0.103-0.119 0.196-0.25 0.316-0.353 0.137-0.030 0.154 0.169 0.233 0.244-0.182 0.040-0.366 0.076-0.548 0.109z"></path>
<path fill="#fff" d="M10.984 12.498c0.35-0.149 0.56-0.47 0.862-0.685 0.012 0.316 0.010 0.631 0.008 0.946-0.342-0.002-0.684-0.002-1.026 0.001-0.004-0.126-0.006-0.252-0.010-0.378 0.042 0.029 0.124 0.086 0.166 0.116z"></path>
<path fill="#000" d="M12.016 9.125c0.208-0.052 0.42-0.097 0.632-0.046-0.012 0.196-0.040 0.39-0.065 0.584 0.384 0.383 0.299 0.99 0.294 1.484 0.864 0.068 1.39-0.908 2.26-0.728 0.398 0.036 0.797-0.121 1.188 0.001 0.359-0.091 0.72 0.026 1.080 0.037 0.301 0.048 0.649-0.071 0.905 0.144 0.278 0.215 0.637 0.251 0.961 0.36 0.149 0.186 0.428 0.239 0.556 0.421 0.030 0.829 0.001 1.66 0.012 2.489-0.414 0.011-0.828 0.007-1.242 0.007-0.074 0.544-0.481 1.114-1.078 1.104-0.634 0.049-1.146-0.532-1.18-1.135-1.211-0.007-2.423 0-3.634-0.004-0.001-0.248-0.001-0.496-0.001-0.743-0.289 0-0.58-0.002-0.866 0.036 0.222 0.15 0.504 0.062 0.752 0.080l-0.008 0.336c-0.181-0.014-0.362-0.031-0.542-0.049 0.373 0.23 0.56 0.745 0.312 1.133-0.287 0.54-1.219 0.47-1.41-0.118-0.182-0.397 0.062-0.824 0.42-1.014-0.278 0.040-0.559 0.030-0.836-0.010 0.002 0.161 0.006 0.322 0.010 0.482-0.068-0.022-0.205-0.064-0.274-0.085-0.262-0.572 0.193-1.306-0.326-1.769-0.062 0.299-0.233 0.714 0.048 0.949 0.148 0.072-0.001 0.197-0.050 0.277 0.229 0.436 0.076 0.97 0.365 1.384-0.054 0.064-0.162 0.192-0.217 0.256-0.128-0.298-0.188-0.617-0.269-0.929-0.104-0.164-0.269-0.278-0.41-0.408-0.193 0.422-0.377 0.848-0.556 1.277-0.086 0.013-0.26 0.040-0.348 0.053 0.376-0.526 0.539-1.2 0.29-1.818-0.571 0.126-1.168 0.296-1.752 0.149-0.038 0.42 0.154 0.798 0.404 1.121 0.073 0.004 0.221 0.011 0.295 0.013 0.019 0.084 0.058 0.251 0.077 0.334-0.624-0.065-1.006-0.64-1.369-1.087-0.122 0.196-0.253 0.389-0.361 0.594-0.001 0.266 0.119 0.684-0.307 0.636 0.073-0.293 0.052-0.593 0.047-0.89 0.065-0.27 0.17-0.527 0.257-0.79-0.323-0.308-0.421-0.748-0.506-1.166-0.356 0.060-0.721 0.104-1.052 0.257-0.101-0.104-0.2-0.21-0.299-0.316 0.202-0.34 0.516-0.648 0.506-1.070 0.076-0.082 0.151-0.162 0.226-0.242 0.004-0.107 0.008-0.319 0.011-0.425 0.228 0.235 0.527 0.364 0.815 0.506 0.242 0.354 0.476 0.736 0.906 0.887 0.685-0.001 1.367-0.065 2.032-0.234-0.030 0.059-0.090 0.175-0.12 0.234l0.148-0.080c0.481 0.082 1.034 0.079 1.406 0.448 0.331 0.274 0.307 0.737 0.372 1.123 0.342 0.052 0.732 0.145 1.052-0.026-0.3-0.042-0.604-0.037-0.906-0.037 0.014-0.366-0.024-0.728-0.084-1.088 0.104 0.044 0.208 0.091 0.31 0.143 0.143-0.388 0.416-0.701 0.68-1.012 0.061-0.222-0.024-0.32-0.258-0.295-0.725 0.233-1.453 0.455-2.191 0.641-0.036 0.102-0.505 0.035-0.264-0.091 0.815-0.205 1.608-0.485 2.411-0.73 0.204-0.076 0.462-0.040 0.613-0.222 0.151-0.206 0.246-0.448 0.366-0.673-0.21-0.154-0.198-0.419-0.235-0.649M11.748 10.969c0.088 0.073 0.088 0.073 0 0M4.955 12.040c0.182-0.034 0.366-0.070 0.548-0.109-0.079-0.074-0.096-0.274-0.233-0.244-0.12 0.103-0.212 0.234-0.316 0.353M10.984 12.498c-0.042-0.030-0.124-0.088-0.166-0.116 0.004 0.126 0.006 0.252 0.010 0.378 0.342-0.004 0.684-0.004 1.026-0.001 0.001-0.314 0.004-0.63-0.008-0.946-0.301 0.215-0.511 0.536-0.862 0.685z"></path>
</svg>
