<svg xmlns="http://www.w3.org/2000/svg" width="24" height="24">
    <path d="M0 2.069h23.834v19.862H0V2.069zm.604.604v18.826h22.625V2.673H.604z"/>
    <path fill="#fff" d="M.604 2.673h22.625v18.826H.604V2.673zm8.549.778c-.002.281-.094.722.321.72.051-.096.1-.193.15-.29.497.002.993 0 1.489.001.04.145.084.289.128.431-.695.025-1.397-.048-2.087.039-.652.074-1.12.696-1.116 1.335-.123 1.769-.709 3.552-.252 5.311l-.188.18c.002.332.002.662.002.994h1.675l-.158.175a73.033 73.033 0 0 1-.468-.007 6.533 6.533 0 0 0-.305.602c.159.004.319.006.478.007l-.206.348-.485-.007a7.19 7.19 0 0 0-.305.6l.498.017c-.08.143-.168.281-.247.425l-.521-.001c-.114.242-.262.465-.405.691H7.7l-.196.338c.199.002.399.017.581.105.115-.142.22-.292.32-.444 2.347-.002 4.694.004 7.04-.003.08.146.156.294.231.443.182-.084.383-.1.582-.112-.045-.108-.091-.216-.134-.324l.464-.003c-.123-.232-.239-.468-.368-.696l-.492.011a9.144 9.144 0 0 1-.219-.43c.157-.004.315-.006.473-.007-.107-.199-.207-.4-.301-.604l-.54.001c-.046-.114-.094-.226-.141-.339.164-.005.327-.008.492-.014-.115-.198-.235-.392-.334-.598l-.563-.001v-.171c.547-.002 1.093-.001 1.64-.001a6.441 6.441 0 0 0-.091-1.462c.054-.522.14-1.046.085-1.575-.199-1.318-.338-2.645-.535-3.965-.118-.418-.454-.828-.916-.851-.763-.018-1.528.001-2.291-.006l.205-.214.007-.218c.503 0 1.007.001 1.51-.001.048.097.098.194.15.29.414.002.323-.439.321-.72H9.152zm-2.92 13.245c-1.086.228-1.569 1.622-1.027 2.534.411.78 1.503 1.145 2.279.69 1.159-.429 1.328-2.249.295-2.911-.43-.354-1.017-.417-1.548-.313zm2.921.054v3.281h.691c.002-.708-.005-1.415.003-2.124.54.727 1.161 1.39 1.691 2.124h.723V16.75h-.691c-.003.708.007 1.414-.005 2.121-.604-.694-1.113-1.471-1.763-2.123-.217.002-.434.002-.65.002zm3.886 0v3.281h2.936v-.691h-2.159v-2.59h-.777zm2.031.008c.457.684 1.026 1.286 1.51 1.951-.002.44-.001.881-.001 1.323h.691l-.001-1.236c.508-.696 1.106-1.323 1.577-2.044-.306-.002-.612-.001-.918-.001-.298.425-.655.808-.956 1.231-.364-.396-.65-.857-1.035-1.234-.29.002-.578 0-.867.011z"/>
    <path fill="#fff" d="M11.658 3.882h.518v.223c-.086.041-.173.084-.259.127l-.259-.127v-.223zM9.758 4.573h4.318v1.036H9.758V4.573zM8.497 5.964c1.058.003 2.101-.204 3.161-.18v2.848c-1.186 0-2.37.001-3.556-.001.106-.746.187-1.494.271-2.241.017-.15-.038-.338.123-.426zM12.176 5.784c1.092-.005 2.171.153 3.262.17.133.887.232 1.783.281 2.678h-3.543V5.784zM8.593 9.834c.345.032.691.031 1.036.001l.217.221v.347c-.073.074-.145.146-.217.221a5.876 5.876 0 0 0-1.036.001l-.217-.222v-.346l.217-.223zM14.206 9.832c.173.009.346.021.518.041.422-.141.892.003.737.529-.075.077-.151.155-.223.233a2.504 2.504 0 0 1-.472-.08 1.936 1.936 0 0 1-.561.075c-.073-.076-.144-.151-.217-.225v-.345l.218-.225zM8.463 11.051h6.995v.343H8.463v-.343zM9.967 12.172c1.299.002 2.6.002 3.9 0l.157.174H9.81l.157-.174zM9.434 12.862c1.646.004 3.292.001 4.938.002.071.11.144.217.22.323l.004.194c-1.826-.002-3.653.008-5.479-.005.1-.175.209-.343.317-.514zM8.841 13.899c2.028 0 4.056.004 6.084-.002.097.172.188.347.284.521-2.201-.003-4.402.007-6.602-.005.077-.172.158-.342.235-.514zM6.497 17.385c.732-.19 1.581.683 1.158 1.393-.141.395-.554.519-.913.638a3.228 3.228 0 0 0-.388-.095c-.446-.21-.754-.7-.648-1.2.127-.354.451-.6.79-.736z"/>
    <path fill="#231f20" d="M9.153 3.451h5.528c.002.281.093.722-.321.72a15.893 15.893 0 0 1-.15-.29c-.503.002-1.007.001-1.51.001l-.007.218-.205.214c.763.007 1.528-.012 2.291.006.462.023.799.433.916.851.197 1.319.336 2.646.535 3.965.055.53-.032 1.053-.085 1.575.089.482.113.971.091 1.462-.547 0-1.093-.001-1.64.001v.171l.563.001c.099.205.219.4.334.598-.164.005-.327.008-.492.014l.141.339.54-.001c.094.204.194.406.301.604-.157.001-.315.002-.473.007.07.145.142.289.219.43.163-.003.327-.006.492-.011.128.229.244.464.368.696-.156 0-.31.001-.464.003.043.108.089.217.134.324-.199.012-.4.026-.582.112-.074-.15-.151-.297-.231-.443-2.346.007-4.693.001-7.04.003-.1.152-.205.301-.32.444-.182-.088-.382-.103-.581-.105l.196-.338h-.549c.143-.225.291-.449.405-.691l.521.001c.079-.143.167-.281.247-.425l-.498-.017c.093-.204.194-.405.305-.6l.485.007.206-.348c-.16-.002-.319-.003-.478-.007.092-.205.194-.406.305-.602l.468.007.158-.175H7.601c0-.332.001-.662-.002-.994l.188-.18c-.458-1.76.127-3.543.252-5.311-.003-.639.464-1.26 1.116-1.335.69-.087 1.392-.014 2.087-.039a10.202 10.202 0 0 1-.128-.431c-.496-.001-.992.001-1.489-.001-.049.097-.098.194-.15.29-.415.002-.323-.439-.321-.72zm2.505.431v.223c.086.041.173.084.259.127l.259-.127v-.223h-.518zm-1.9.691v1.036h4.318V4.573H9.758zM8.497 5.964c-.161.088-.106.277-.123.426-.084.747-.165 1.495-.271 2.241 1.186.002 2.37.001 3.556.001V5.784c-1.06-.025-2.103.183-3.161.18zm3.679-.18v2.848h3.543a29.001 29.001 0 0 0-.281-2.678c-1.091-.017-2.17-.175-3.262-.17zm-3.583 4.05l-.217.223v.346l.217.222a5.782 5.782 0 0 1 1.036-.001l.217-.221v-.347a44.814 44.814 0 0 1-.217-.221 5.876 5.876 0 0 1-1.036-.001zm5.613-.002l-.218.225v.345c.073.074.144.15.217.225.19-.003.379-.017.561-.075.154.044.312.066.472.08l.223-.233c.155-.525-.315-.67-.737-.529a8.96 8.96 0 0 0-.518-.041zm-5.743 1.219v.343h6.995v-.343H8.463zm1.504 1.121l-.157.174h4.214l-.157-.174c-1.299.002-2.6.002-3.9 0zm-.533.69c-.108.17-.217.339-.317.514 1.826.014 3.653.002 5.479.005l-.004-.194a7.66 7.66 0 0 1-.22-.323c-1.646-.001-3.292.002-4.938-.002zm-.593 1.037c-.077.172-.158.342-.235.514 2.201.012 4.402.002 6.602.005-.096-.174-.187-.349-.284-.521-2.028.006-4.055.002-6.084.002zM6.233 16.696c.53-.104 1.117-.041 1.548.313 1.033.662.865 2.483-.295 2.911-.776.454-1.868.091-2.279-.69-.542-.912-.059-2.306 1.027-2.534zm.264.689c-.339.136-.662.382-.79.736-.106.5.201.991.648 1.2.132.024.26.055.388.095.359-.119.772-.243.913-.638.422-.71-.425-1.583-1.158-1.393zM9.154 16.75c.217 0 .434 0 .65-.002.65.652 1.158 1.429 1.763 2.123.012-.708.002-1.414.005-2.121h.691v3.281h-.723c-.53-.734-1.151-1.397-1.691-2.124-.008.708-.001 1.415-.003 2.124h-.691V16.75zM13.04 16.75h.777v2.59h2.159v.691H13.04V16.75zM15.071 16.758c.289-.011.578-.007.867-.011.386.377.671.838 1.035 1.234.301-.424.658-.806.956-1.231.305 0 .612-.001.918.001-.472.721-1.069 1.348-1.577 2.044l.001 1.236h-.691c0-.441-.001-.882.001-1.323-.484-.665-1.054-1.266-1.51-1.951z"/>
</svg>
