<svg xmlns="http://www.w3.org/2000/svg" width="24" height="24">
    <path fill="#d02c2e" d="M11 0h1.97c4.148.378 8.018 2.972 9.814 6.75.715 1.442 1.085 3.03 1.216 4.628v1.236c-.223 4.588-3.275 8.886-7.573 10.534-1.212.491-2.503.746-3.803.852h-1.482c-2.84-.275-5.609-1.477-7.621-3.521C1.5 18.5.317 15.788 0 12.996V11.05c.174-1.118.36-2.245.784-3.301C2.096 4.251 5.129 1.451 8.734.457c.74-.223 1.511-.308 2.267-.456zM6.63 4.043c4.088 4.88 8.182 9.76 12.292 14.623 2.182-2.232 3.128-5.561 2.48-8.611a9.626 9.626 0 0 0-4.128-6.083C14.135 1.858 9.74 1.889 6.63 4.043zm-4.105 9.519c.388 2.448 1.787 4.706 3.782 6.17 3.157 2.387 7.807 2.484 11.063.235-4.079-4.88-8.172-9.75-12.251-14.63-2.14 2.095-3.086 5.286-2.594 8.225z"/>
    <path fill="#fff" d="M6.63 4.043c3.11-2.154 7.505-2.185 10.644-.071a9.623 9.623 0 0 1 4.128 6.083c.648 3.05-.299 6.379-2.48 8.611-4.11-4.864-8.203-9.743-12.292-14.623zM2.525 13.562c-.492-2.939.455-6.13 2.594-8.225 4.079 4.88 8.172 9.75 12.251 14.63-3.256 2.249-7.906 2.152-11.063-.235-1.996-1.464-3.395-3.722-3.782-6.17z"/>
</svg>
