<!-- Generated by IcoMoon.io -->
<svg version="1.1" xmlns="http://www.w3.org/2000/svg" width="24" height="24" viewBox="0 0 24 24">
<title>regulatory--no-goods-vehicle-trailers--g1</title>
<path fill="#868482" d="M10.712 0h2.582c0.922 0.193 1.876 0.31 2.74 0.709-1.296-0.245-2.579-0.631-3.913-0.584-1.28-0.065-2.52 0.286-3.774 0.466 0.752-0.325 1.576-0.4 2.365-0.59z"></path>
<path fill="#fff" d="M8.347 0.59c1.254-0.18 2.494-0.53 3.774-0.466 1.334-0.047 2.617 0.34 3.913 0.584 2.756 0.966 5.147 2.998 6.523 5.573 0.112 0.349 0.23 0.695 0.377 1.032 1.108 2.518 1.25 5.43 0.481 8.064-0.222 0.804-0.626 1.541-0.858 2.341-1.578 2.951-4.477 5.171-7.736 5.934-1.322 0.113-2.647 0.331-3.977 0.17-0.842-0.077-1.658-0.322-2.498-0.414-0.092-0.031-0.185-0.062-0.276-0.094-1.266-0.636-2.5-1.318-3.684-2.096-1.18-0.894-2.099-2.104-2.825-3.384-0.114-0.344-0.236-0.686-0.385-1.018-1.37-3.016-1.369-6.619-0.001-9.636 0.15-0.331 0.272-0.673 0.386-1.018 0.725-1.28 1.645-2.491 2.825-3.384 1.186-0.778 2.418-1.463 3.685-2.096 0.091-0.031 0.184-0.064 0.276-0.094M10.602 0.653c-3.366 0.395-6.48 2.406-8.267 5.28-1.523 2.394-2.077 5.37-1.554 8.155 0.552 3.072 2.446 5.86 5.072 7.537 2.447 1.591 5.521 2.171 8.382 1.597 3.643-0.69 6.846-3.284 8.294-6.695 1.602-3.632 1.109-8.084-1.268-11.267-2.371-3.316-6.616-5.164-10.66-4.608z"></path>
<path fill="#fff" d="M3.252 8.008c1.645-3.66 5.712-6.050 9.715-5.586 3.901 0.324 7.391 3.292 8.357 7.081 1.004 3.568-0.307 7.634-3.202 9.946-2.293 1.908-5.504 2.632-8.395 1.901-3.18-0.757-5.87-3.256-6.854-6.374 0.185 0.004 0.368 0.007 0.553 0.011 0.036-0.434 0.156-0.859 0.425-1.21 0.035-0.050 0.107-0.152 0.143-0.203-0.494 0.016-0.989-0.013-1.483 0.016-0.010-0.090-0.030-0.27-0.041-0.36 1.848 0.017 3.695-0.040 5.542-0.047 0.028-1.517 0.089-3.035 0.056-4.552 0.017-0.4-0.376-0.637-0.738-0.608-1.358-0.022-2.718 0.011-4.078-0.014M10.231 10.974c0 0.752-0.001 1.504 0.001 2.255 3.019 0.005 6.040 0.002 9.060 0.001 0.002-0.751 0-1.504 0.001-2.255-3.022 0.002-6.042 0.002-9.062-0.001M4.842 13.607c-0.973 0.092-1.532 1.368-0.906 2.134 0.553 0.833 1.952 0.679 2.322-0.246 0.467-0.905-0.421-2.076-1.416-1.888M6.012 13.589c0.403 0.389 0.566 0.926 0.661 1.463 0.482-0.001 0.965 0 1.448-0.005 0.019-0.2 0.041-0.401 0.062-0.6 0.596-0.001 1.193-0.002 1.789-0.005 0.172-0.281 0.344-0.56 0.517-0.84-1.493-0.016-2.986 0.006-4.478-0.013M11.21 13.644c-0.592 0.151-1.046 0.739-0.991 1.357-0.011 0.73 0.694 1.361 1.416 1.291 0.766-0.007 1.388-0.785 1.262-1.534-0.091-0.774-0.937-1.34-1.687-1.115M12.611 13.577c0.188 0.29 0.37 0.586 0.545 0.883 1.092-0.019 2.185 0 3.277-0.011 0.178-0.287 0.358-0.572 0.539-0.857-1.453-0.017-2.906-0.011-4.361-0.016M17.684 13.63c-0.588 0.16-1.037 0.75-0.982 1.367-0.004 0.728 0.698 1.357 1.422 1.284 0.756-0.019 1.379-0.775 1.258-1.522-0.083-0.791-0.935-1.356-1.698-1.129z"></path>
<path fill="#fff" d="M4.848 14.336c0.76-0.26 1.148 0.99 0.382 1.205-0.785 0.306-1.188-1.009-0.382-1.205z"></path>
<path fill="#fff" d="M11.444 14.328c0.827-0.197 1.030 1.207 0.179 1.243-0.778 0.139-0.944-1.146-0.179-1.243z"></path>
<path fill="#fff" d="M17.918 14.32c0.775-0.203 1.058 1.078 0.278 1.229-0.798 0.24-1.096-1.11-0.278-1.229z"></path>
<path fill="#da251d" d="M10.602 0.653c4.044-0.556 8.288 1.292 10.66 4.608 2.377 3.182 2.87 7.634 1.268 11.267-1.448 3.41-4.651 6.005-8.294 6.695-2.861 0.574-5.935-0.006-8.382-1.597-2.627-1.678-4.52-4.465-5.072-7.537-0.523-2.785 0.031-5.761 1.554-8.155 1.787-2.874 4.901-4.885 8.267-5.28M3.252 8.008c-0.751 1.626-0.978 3.449-0.782 5.221 0.011 0.090 0.031 0.27 0.041 0.36 0.494-0.029 0.989 0 1.483-0.016-0.036 0.050-0.108 0.152-0.143 0.203-0.324-0.277-0.869-0.030-1.274-0.132 0.089 0.445 0.186 0.89 0.296 1.331 0.984 3.119 3.674 5.617 6.854 6.374 2.891 0.731 6.102 0.007 8.395-1.901 2.894-2.311 4.206-6.378 3.202-9.946-0.966-3.79-4.456-6.757-8.357-7.081-4.003-0.464-8.070 1.926-9.715 5.586z"></path>
<path fill="#93908f" d="M4.386 2.78c1.043-0.968 2.321-1.692 3.685-2.096-1.267 0.634-2.5 1.319-3.685 2.096z"></path>
<path fill="#93908f" d="M4.386 21.22c1.184 0.779 2.418 1.46 3.684 2.096-1.363-0.406-2.641-1.129-3.684-2.096z"></path>
<path fill="#8f8c8b" d="M0 10.952c0.3-1.65 0.595-3.377 1.561-4.788-0.114 0.344-0.236 0.686-0.386 1.018-1.368 3.017-1.369 6.62 0.001 9.636 0.149 0.331 0.271 0.673 0.385 1.018-0.967-1.414-1.262-3.143-1.561-4.796v-2.087z"></path>
<path fill="#918f8d" d="M22.558 6.282c0.833 1.249 1.111 2.754 1.442 4.192v3.061c-0.335 1.434-0.61 2.938-1.442 4.184 0.232-0.8 0.636-1.537 0.858-2.341 0.769-2.634 0.626-5.546-0.481-8.064-0.146-0.337-0.265-0.683-0.377-1.032z"></path>
<path fill="#1f1a17" d="M3.252 8.008c1.36 0.025 2.719-0.007 4.078 0.014 0.362-0.029 0.755 0.209 0.738 0.608 0.032 1.517-0.029 3.035-0.056 4.552-1.847 0.007-3.694 0.064-5.542 0.047-0.196-1.772 0.031-3.595 0.782-5.221z"></path>
<path fill="#1f1a17" d="M10.231 10.974c3.020 0.004 6.041 0.004 9.062 0.001-0.001 0.751 0.001 1.504-0.001 2.255-3.020 0.001-6.041 0.004-9.060-0.001-0.002-0.751-0.001-1.502-0.001-2.255z"></path>
<path fill="#1f1a17" d="M4.842 13.607c0.995-0.188 1.883 0.983 1.416 1.888-0.37 0.925-1.769 1.079-2.322 0.246-0.626-0.766-0.067-2.041 0.906-2.134M4.848 14.336c-0.806 0.196-0.403 1.511 0.382 1.205 0.767-0.215 0.378-1.465-0.382-1.205z"></path>
<path fill="#1f1a17" d="M6.012 13.589c1.493 0.019 2.986-0.002 4.478 0.013-0.173 0.28-0.346 0.559-0.517 0.84-0.596 0.002-1.193 0.004-1.789 0.005-0.022 0.199-0.043 0.4-0.062 0.6-0.484 0.005-0.966 0.004-1.448 0.005-0.095-0.536-0.258-1.074-0.661-1.463z"></path>
<path fill="#1f1a17" d="M11.21 13.644c0.75-0.226 1.596 0.341 1.687 1.115 0.126 0.749-0.497 1.526-1.262 1.534-0.722 0.070-1.427-0.562-1.416-1.291-0.055-0.618 0.4-1.206 0.991-1.357M11.444 14.328c-0.766 0.097-0.599 1.382 0.179 1.243 0.851-0.036 0.648-1.44-0.179-1.243z"></path>
<path fill="#1f1a17" d="M12.611 13.577c1.454 0.005 2.908-0.001 4.361 0.016-0.181 0.284-0.361 0.57-0.539 0.857-1.092 0.011-2.185-0.008-3.277 0.011-0.175-0.298-0.356-0.593-0.545-0.883z"></path>
<path fill="#1f1a17" d="M17.684 13.63c0.763-0.227 1.615 0.338 1.698 1.129 0.121 0.746-0.502 1.502-1.258 1.522-0.724 0.073-1.426-0.556-1.422-1.284-0.055-0.617 0.394-1.207 0.982-1.367M17.918 14.32c-0.817 0.119-0.52 1.469 0.278 1.229 0.78-0.151 0.497-1.432-0.278-1.229z"></path>
<path fill="#1f1a17" d="M2.576 13.644c0.406 0.102 0.95-0.145 1.274 0.132-0.269 0.35-0.389 0.775-0.425 1.21-0.185-0.004-0.368-0.007-0.553-0.011-0.11-0.44-0.208-0.886-0.296-1.331z"></path>
<path fill="#888584" d="M8.346 23.41c0.84 0.092 1.656 0.337 2.498 0.414 1.33 0.161 2.654-0.058 3.977-0.17-0.502 0.162-1.022 0.244-1.538 0.347h-2.58c-0.786-0.193-1.607-0.268-2.357-0.59z"></path>
</svg>
