<?xml version="1.0" encoding="utf-8"?>
<!-- Generated by IcoMoon.io -->
<!DOCTYPE svg PUBLIC "-//W3C//DTD SVG 1.1//EN" "http://www.w3.org/Graphics/SVG/1.1/DTD/svg11.dtd">
<svg version="1.1" xmlns="http://www.w3.org/2000/svg" xmlns:xlink="http://www.w3.org/1999/xlink" width="24" height="24" viewBox="0 0 24 24">
<path fill="#d40303" d="M11.105 0h1.792c2.753 0.219 5.429 1.387 7.413 3.316 2.018 1.913 3.344 4.55 3.632 7.318-0.137 0.19-0.096 0.451 0.058 0.619v1.552l-0.066-0.026c-0.085 0.187-0.087 0.376-0.007 0.57-0.398 4.523-3.713 8.577-7.995 10.020-0.838 0.308-1.722 0.438-2.589 0.63h-2.534c-2.024-0.27-4.015-0.94-5.685-2.135-2.936-2.027-4.862-5.411-5.123-8.968v-1.803c0.229-2.839 1.469-5.593 3.504-7.593 2.003-2.036 4.76-3.277 7.6-3.501M11.008 3.076c-2.7 0.257-5.217 1.845-6.638 4.15-1.079 1.721-1.531 3.819-1.271 5.832 0.25 2.062 1.265 4.015 2.793 5.419 1.47 1.368 3.416 2.218 5.421 2.348 2.011 0.152 4.063-0.419 5.712-1.576 1.658-1.15 2.906-2.876 3.467-4.815 0.538-1.835 0.464-3.844-0.211-5.633-0.679-1.827-1.986-3.407-3.639-4.437-1.665-1.040-3.682-1.497-5.633-1.288z"></path>
<path fill="#fff" d="M11.008 3.076c1.951-0.209 3.968 0.249 5.633 1.288 1.653 1.030 2.96 2.61 3.639 4.437 0.675 1.789 0.75 3.798 0.211 5.633-0.561 1.939-1.809 3.665-3.467 4.815-1.649 1.156-3.701 1.727-5.712 1.576-2.005-0.129-3.951-0.98-5.421-2.348-1.528-1.404-2.543-3.358-2.793-5.419-0.26-2.013 0.192-4.111 1.271-5.832 1.421-2.304 3.938-3.892 6.638-4.15M10.092 4.858c-0.205 0.288 0.216 0.359 0.395 0.444-0.095 0.279-0.19 0.557-0.291 0.834-0.553-0.219-1.247-0.163-1.656 0.306-0.482 0.489-0.363 1.373 0.215 1.735 0.741 0.571 2.037 0.109 2.109-0.864 0.092-0.522-0.363-0.863-0.592-1.268 0.46 0.238 0.791 0.65 1.188 0.972-0.011 0.223-0.019 0.446-0.021 0.669 0.117-0.158 0.144-0.357 0.172-0.546 0.194 0.189 0.388 0.379 0.567 0.583-0.2-0.012-0.413-0.019-0.586 0.096 0.155 0.015 0.468 0.044 0.623 0.058-0.026 0.075-0.077 0.225-0.103 0.3 0.164-0.001 0.327-0.005 0.491-0.009-0.101-0.102-0.203-0.204-0.306-0.303 0.123-0.139 0.244-0.28 0.361-0.424 0.139 0.275 0.274 0.573 0.542 0.747 0.597 0.425 1.53 0.264 1.924-0.363 0.33-0.485 0.183-1.198-0.292-1.532-0.357-0.303-0.849-0.313-1.29-0.241-0.075-0.168-0.149-0.335-0.214-0.506 0.075-0.352 0.715-0.231 0.598-0.667-0.358 0.041-0.819-0.117-1.071 0.219 0.121 0.016 0.362 0.050 0.482 0.067-0.052 0.118-0.103 0.235-0.155 0.353-0.869 0.004-1.738 0-2.608 0.002 0.027-0.101 0.081-0.302 0.108-0.402-0.133-0.024-0.4-0.068-0.533-0.091 0.344-0.398 0.842 0.159 1.21-0.162-0.376-0.22-0.904-0.255-1.267-0.009M12.353 8.813c-0.031 0.122-0.062 0.245-0.093 0.367 0.372 0.209 0.276 0.669 0.356 1.023-0.193 0.025-0.386 0.050-0.577 0.081 0.152 0.383 0.257 0.785 0.338 1.189 0.077 0.048 0.157 0.097 0.236 0.144 0.025 0.126 0.048 0.25 0.073 0.376-0.112-0.021-0.223-0.042-0.335-0.063-0.037-0.485-0.434-0.829-0.772-1.133-0.545-0.194-1.072 0.317-1.629 0.169-0.47-0.067-0.524-0.669-0.918-0.856-0.238-0.098-0.487-0.163-0.724-0.266-0.061 0.082-0.122 0.165-0.183 0.247-0.019 0.381-0.010 0.762-0.024 1.143 0.368 0.246 0.361-0.266 0.435-0.497 0.249 0.359 0.506 0.756 0.489 1.212 0.051 0.337-0.542 0.506-0.316 0.857 0.159 0.354 0.267 0.731 0.433 1.083 0.257-0.432-0.234-0.812-0.266-1.242 0.169-0.086 0.339-0.169 0.512-0.247 0.205 0.495 0.57 0.975 0.383 1.541 0.137-0.090 0.249-0.203 0.335-0.342-0.163-0.409-0.274-0.839-0.306-1.28 0.332-0.021 0.663-0.047 0.991-0.097 0.070 0.194 0.235 0.372 0.205 0.589-0.203 0.358-0.445 0.695-0.612 1.074 0.073-0.016 0.22-0.046 0.293-0.062 0.255-0.419 0.468-0.864 0.817-1.221 0.526 0.261 0.163 0.868-0.041 1.232 0.067 0.014 0.203 0.041 0.27 0.056 0.223-0.374 0.218-0.818 0.302-1.232-0.063-0.224-0.275-0.387-0.378-0.598 0.068 0.011 0.204 0.036 0.271 0.047 0.131 0.308 0.288 0.621 0.643 0.708-0.066-0.214-0.146-0.423-0.22-0.633 0.3 0.048 0.598 0.101 0.899 0.143-0.067 0.405-0.076 0.868 0.216 1.191 0.3 0.395 0.931 0.466 1.299 0.126 0.293-0.228 0.367-0.609 0.413-0.956 0.392 0.075 0.783 0.152 1.181 0.192-0.039-0.387-0.48-0.305-0.747-0.407 0.148-0.392 0.293-0.785 0.43-1.18 0.136-0.026 0.272-0.052 0.408-0.080-0.16-0.153-0.307-0.317-0.464-0.474-0.055 0.047-0.164 0.139-0.219 0.185-0.807-0.103-1.6-0.297-2.405-0.419 0.137-0.588-0.244-1.083-0.622-1.481 0.040-0.020 0.122-0.060 0.162-0.080-0.098-0.086-0.199-0.169-0.3-0.251-0.081 0.041-0.162 0.081-0.242 0.122M13.316 14.43c0.134 0.33 0.425 0.612 0.383 0.994-0.021 0.25 0.101 0.589-0.175 0.737-0.433 0.142-0.892 0.172-1.336 0.266-0.524 0.081-1.032 0.269-1.567 0.252-0.189 0.055-0.378 0.106-0.565 0.167-0.127 0.002-0.254 0.002-0.379 0 0.192-0.092 0.394-0.159 0.611-0.141 0.097-0.053 0.192-0.107 0.286-0.164-0.316-0.027-0.689-0.082-0.948 0.153-0.444 0.466-1.14 0.317-1.706 0.49 0.015 0.086 0.045 0.259 0.058 0.344 0.394-0.072 0.788-0.142 1.179-0.231-0.065 0.522 0.142 1.078 0.645 1.308-0.693-0.041-1.388-0.010-2.080-0.022-0.002 0.036-0.009 0.109-0.011 0.146 2.611 0.002 5.224-0.007 7.835 0.006 0.264-0.011 0.548 0.029 0.79-0.106-0.245-0.037-0.494-0.046-0.742-0.051-0.204-0.68-0.561-1.341-0.533-2.069-0.047-0.288-0.256-0.535-0.247-0.839 0.022-0.468-0.449-0.693-0.781-0.915-0.021-0.155-0.041-0.311-0.061-0.465-0.242-0.131-0.46-0.019-0.655 0.141z"></path>
<path fill="#fff" d="M10.512 5.677c0.852-0.035 1.704-0.002 2.555-0.014-0.275 0.402-0.464 0.877-0.837 1.202-0.009 0.072-0.026 0.215-0.035 0.286-0.187-0.017-0.373-0.022-0.556-0.060 0.136-0.081 0.271-0.162 0.402-0.25-0.041-0.091-0.126-0.271-0.168-0.362-0.095 0.014-0.285 0.040-0.381 0.053 0.077 0.065 0.233 0.194 0.31 0.259-0.056 0.029-0.168 0.086-0.224 0.114-0.39-0.312-0.756-0.654-1.12-0.996 0.014-0.058 0.041-0.175 0.053-0.234z"></path>
<path fill="#fff" d="M12.48 6.892c0.259-0.397 0.496-0.807 0.767-1.194 0.034 0.101 0.101 0.303 0.133 0.405-0.409 0.262-0.681 0.665-0.776 1.142-0.031-0.088-0.093-0.265-0.124-0.353z"></path>
<path fill="#fff" d="M9.042 6.306c0.346-0.178 0.74-0.108 1.091 0.014-0.177 0.313-0.301 0.711-0.683 0.827-0.169 0.072 0.019 0.228 0.131 0.242 0.276-0.3 0.48-0.655 0.706-0.992 0.269 0.321 0.51 0.757 0.307 1.176-0.3 0.793-1.528 0.894-1.981 0.193-0.361-0.484-0.119-1.236 0.429-1.46z"></path>
<path fill="#fff" d="M13.628 6.208c0.514-0.070 1.125 0.063 1.368 0.574 0.337 0.604-0.16 1.379-0.819 1.44-0.586 0.128-1.13-0.284-1.323-0.819 0.274-0.034 0.548-0.057 0.824-0.073 0.148 0.067 0.419 0.226 0.522 0.019 0.18-0.19-0.113-0.347-0.252-0.435-0.113-0.233-0.219-0.468-0.32-0.705z"></path>
<path fill="#fff" d="M12.838 7.246c0.053-0.41 0.293-0.744 0.624-0.979 0.138 0.269 0.265 0.542 0.383 0.819-0.316 0.142-0.669 0.134-1.007 0.159z"></path>
<path fill="#fff" d="M12.327 7.119c0.419-0.021-0.159 0.387 0 0z"></path>
<path fill="#fff" d="M12.216 7.487c0.384-0.2 0.005 0.422 0 0z"></path>
<path fill="#fff" d="M23.942 10.635l0.058 0.061v0.558c-0.154-0.168-0.195-0.429-0.058-0.619z"></path>
<path fill="#fff" d="M11.902 11.863c-0.174-0.037-0.188-0.373-0.001-0.398 0.164 0.045 0.18 0.366 0.001 0.398z"></path>
<path fill="#fff" d="M13.464 12.392c0.143 0.017 0.286 0.037 0.429 0.057 0.027 0.051 0.082 0.15 0.109 0.2-0.149 0.034-0.361-0.060-0.471 0.068 0.155 0.050 0.312 0.099 0.469 0.148-0.174 0.112-0.313 0.312-0.536 0.326-0.027-0.266-0.002-0.533 0-0.8z"></path>
<path fill="#fff" d="M14.435 12.531c0.199 0.057 0.399 0.114 0.592 0.193-0.112 0.032-0.335 0.097-0.446 0.129 0.118 0.041 0.238 0.081 0.358 0.119-0.068 0.155-0.138 0.311-0.205 0.466l-0.065-0.23c-0.071 0.122-0.136 0.247-0.198 0.373-0.112 0.022-0.224 0.045-0.336 0.067 0.004-0.292-0.007-0.607 0.341-0.676-0.010-0.111-0.031-0.331-0.041-0.441z"></path>
<path fill="#fff" d="M23.934 12.78l0.066 0.026v0.531l-0.073 0.012c-0.080-0.194-0.077-0.383 0.007-0.57z"></path>
<path fill="#fff" d="M13.578 13.358c0.168-0.139 0.337-0.276 0.507-0.412-0.019 0.235-0.040 0.471-0.066 0.706-0.149-0.096-0.297-0.194-0.441-0.295z"></path>
<path fill="#fff" d="M11.018 16.938c0.91-0.133 1.806-0.343 2.713-0.478 0.006 0.216 0.050 0.458-0.129 0.621-0.3 0.357-0.145 0.873 0.012 1.26-0.134 0.092-0.238 0.282-0.427 0.244-0.863 0.012-1.725-0.016-2.588 0.015 0.573-0.341 0.745-1.093 0.418-1.661M12.325 16.926c0.343 0.297 0.295 0.783 0.43 1.179 0.029-0.040 0.088-0.118 0.117-0.158-0.029-0.42-0.172-0.824-0.189-1.246-0.119 0.075-0.24 0.147-0.358 0.225z"></path>
<path fill="#fff" d="M10.494 17.449c0.095-0.165 0.201-0.323 0.315-0.476 0.071 0.173 0.138 0.347 0.203 0.522-0.129-0.011-0.388-0.035-0.517-0.046z"></path>
<path fill="#fff" d="M9.486 17.235c0.225-0.086 0.418 0.301 0.121 0.331-0.233 0.085-0.376-0.27-0.121-0.331z"></path>
<path fill="#fff" d="M14.018 17.618c0.085-0.174 0.245-0.288 0.384-0.415 0.226 0.397 0.455 0.796 0.612 1.226-0.247 0.162-0.538 0.168-0.823 0.167-0.060-0.325-0.18-0.643-0.173-0.977z"></path>
<path fill="#fff" d="M9.339 17.616c0.183 0.010 0.366 0.020 0.548 0.030-0.138 0.159-0.286 0.308-0.436 0.456-0.027-0.122-0.085-0.364-0.112-0.486z"></path>
<path fill="#fff" d="M10.84 17.905c-0.368 0.039-0.187-0.545 0.067-0.251-0.016 0.062-0.051 0.188-0.067 0.251z"></path>
<path fill="#fff" d="M9.692 18.23c-0.025-0.136 0.082-0.362 0.249-0.266 0.090 0.122 0.081 0.242-0.026 0.361-0.056-0.024-0.167-0.071-0.223-0.095z"></path>
<path fill="#fff" d="M10.453 17.96c0.136-0.099 0.422 0.086 0.282 0.242-0.137 0.137-0.388-0.096-0.282-0.242z"></path>
<path fill="#fff" d="M10.208 18.044c0.137 0.029 0.205 0.117 0.206 0.266-0.063 0.146-0.158 0.167-0.282 0.065-0.067-0.139-0.041-0.25 0.076-0.331z"></path>
<path fill="#030303" d="M10.092 4.858c0.363-0.246 0.892-0.211 1.267 0.009-0.368 0.321-0.866-0.236-1.21 0.162 0.133 0.022 0.4 0.067 0.533 0.091-0.027 0.099-0.081 0.301-0.108 0.402 0.869-0.002 1.738 0.001 2.608-0.002 0.052-0.118 0.103-0.235 0.155-0.353-0.121-0.017-0.362-0.051-0.482-0.067 0.251-0.336 0.713-0.178 1.071-0.219 0.117 0.435-0.524 0.315-0.598 0.667 0.065 0.172 0.139 0.338 0.214 0.506 0.44-0.072 0.933-0.062 1.29 0.241 0.475 0.334 0.622 1.047 0.292 1.532-0.394 0.627-1.327 0.788-1.924 0.363-0.269-0.174-0.403-0.473-0.542-0.747-0.117 0.144-0.238 0.285-0.361 0.424 0.103 0.099 0.205 0.201 0.306 0.303-0.164 0.004-0.327 0.007-0.491 0.009 0.026-0.075 0.077-0.225 0.103-0.3-0.155-0.015-0.468-0.044-0.623-0.058 0.173-0.114 0.385-0.108 0.586-0.096-0.179-0.204-0.373-0.394-0.567-0.583-0.027 0.189-0.055 0.388-0.172 0.546 0.002-0.223 0.010-0.446 0.021-0.669-0.397-0.322-0.727-0.735-1.188-0.972 0.229 0.405 0.684 0.746 0.592 1.268-0.072 0.974-1.368 1.435-2.109 0.864-0.578-0.362-0.698-1.246-0.215-1.735 0.409-0.469 1.103-0.525 1.656-0.306 0.101-0.277 0.196-0.556 0.291-0.834-0.179-0.085-0.601-0.155-0.395-0.444M10.512 5.677c-0.012 0.058-0.040 0.175-0.053 0.234 0.364 0.342 0.73 0.684 1.12 0.996 0.056-0.029 0.168-0.086 0.224-0.114-0.077-0.065-0.233-0.194-0.31-0.259 0.096-0.014 0.286-0.040 0.381-0.053 0.042 0.091 0.127 0.271 0.168 0.362-0.131 0.088-0.266 0.169-0.402 0.25 0.183 0.037 0.369 0.042 0.556 0.060 0.009-0.071 0.026-0.214 0.035-0.286 0.373-0.326 0.562-0.801 0.837-1.202-0.852 0.011-1.704-0.021-2.555 0.014M12.48 6.892c0.031 0.088 0.093 0.265 0.124 0.353 0.095-0.476 0.367-0.879 0.776-1.142-0.032-0.102-0.099-0.305-0.133-0.405-0.271 0.387-0.509 0.797-0.767 1.194M9.042 6.306c-0.548 0.224-0.79 0.976-0.429 1.46 0.453 0.701 1.681 0.601 1.981-0.193 0.203-0.419-0.039-0.856-0.307-1.176-0.226 0.337-0.43 0.693-0.706 0.992-0.112-0.015-0.3-0.17-0.131-0.242 0.382-0.116 0.506-0.514 0.683-0.827-0.351-0.122-0.745-0.192-1.091-0.014M13.628 6.208c0.101 0.238 0.206 0.473 0.32 0.705 0.139 0.088 0.433 0.245 0.252 0.435-0.103 0.208-0.374 0.048-0.522-0.019-0.276 0.016-0.551 0.040-0.824 0.073 0.193 0.536 0.737 0.948 1.323 0.819 0.659-0.061 1.156-0.836 0.819-1.44-0.242-0.511-0.854-0.644-1.368-0.574M12.838 7.246c0.338-0.025 0.691-0.017 1.007-0.159-0.118-0.277-0.245-0.551-0.383-0.819-0.331 0.235-0.571 0.568-0.624 0.979M12.327 7.119c-0.159 0.387 0.419-0.021 0 0M12.216 7.487c0.005 0.422 0.384-0.2 0 0z"></path>
<path fill="#030303" d="M12.353 8.813c0.081-0.041 0.162-0.081 0.242-0.122 0.101 0.082 0.201 0.165 0.3 0.251-0.040 0.020-0.122 0.060-0.162 0.080 0.378 0.398 0.759 0.893 0.622 1.481 0.805 0.122 1.598 0.316 2.405 0.419 0.055-0.046 0.164-0.138 0.219-0.185 0.157 0.157 0.303 0.321 0.464 0.474-0.136 0.027-0.272 0.053-0.408 0.080-0.137 0.395-0.282 0.788-0.43 1.18 0.267 0.102 0.709 0.020 0.747 0.407-0.398-0.040-0.79-0.117-1.181-0.192-0.046 0.347-0.119 0.729-0.413 0.956-0.368 0.341-1 0.27-1.299-0.126-0.292-0.323-0.284-0.786-0.216-1.191-0.301-0.042-0.599-0.095-0.899-0.143 0.075 0.21 0.154 0.419 0.22 0.633-0.354-0.087-0.512-0.399-0.643-0.708-0.067-0.011-0.203-0.036-0.271-0.047 0.103 0.211 0.315 0.374 0.378 0.598-0.085 0.414-0.080 0.858-0.302 1.232-0.067-0.015-0.203-0.042-0.27-0.056 0.204-0.364 0.567-0.971 0.041-1.232-0.349 0.357-0.562 0.802-0.817 1.221-0.073 0.016-0.22 0.046-0.293 0.062 0.167-0.379 0.409-0.716 0.612-1.074 0.030-0.218-0.136-0.395-0.205-0.589-0.328 0.050-0.659 0.076-0.991 0.097 0.032 0.44 0.143 0.87 0.306 1.28-0.086 0.139-0.198 0.252-0.334 0.342 0.187-0.566-0.178-1.046-0.383-1.541-0.173 0.078-0.343 0.162-0.512 0.247 0.032 0.43 0.524 0.811 0.266 1.242-0.165-0.352-0.274-0.729-0.433-1.083-0.226-0.351 0.367-0.52 0.316-0.857 0.017-0.456-0.24-0.853-0.489-1.212-0.075 0.231-0.067 0.744-0.435 0.497 0.014-0.381 0.005-0.762 0.024-1.143 0.061-0.082 0.122-0.165 0.183-0.247 0.236 0.103 0.486 0.168 0.724 0.266 0.394 0.187 0.448 0.788 0.918 0.856 0.557 0.148 1.084-0.363 1.629-0.169 0.338 0.303 0.735 0.648 0.772 1.133 0.112 0.021 0.223 0.042 0.335 0.063-0.025-0.126-0.048-0.25-0.073-0.376-0.080-0.047-0.159-0.096-0.236-0.144-0.081-0.404-0.187-0.806-0.338-1.189 0.192-0.031 0.384-0.056 0.577-0.081-0.080-0.354 0.016-0.815-0.356-1.023 0.031-0.122 0.062-0.245 0.093-0.367M11.902 11.863c0.179-0.032 0.163-0.353-0.001-0.398-0.187 0.025-0.173 0.361 0.001 0.398M13.464 12.392c-0.002 0.266-0.027 0.533 0 0.8 0.223-0.014 0.362-0.214 0.536-0.326-0.157-0.048-0.313-0.098-0.469-0.148 0.111-0.128 0.322-0.035 0.471-0.068-0.027-0.050-0.082-0.149-0.109-0.2-0.143-0.020-0.286-0.040-0.429-0.057M14.435 12.531c0.010 0.111 0.031 0.331 0.041 0.441-0.348 0.070-0.337 0.384-0.341 0.676 0.112-0.022 0.224-0.045 0.336-0.067 0.062-0.126 0.127-0.251 0.198-0.373l0.065 0.23c0.067-0.155 0.137-0.311 0.205-0.466-0.121-0.039-0.24-0.078-0.358-0.119 0.112-0.032 0.335-0.097 0.446-0.129-0.193-0.078-0.393-0.136-0.592-0.193M13.578 13.358c0.144 0.101 0.292 0.199 0.441 0.295 0.026-0.235 0.047-0.471 0.066-0.706-0.17 0.136-0.339 0.272-0.507 0.412z"></path>
<path fill="#030303" d="M13.316 14.43c0.195-0.159 0.413-0.271 0.655-0.141 0.020 0.154 0.040 0.31 0.061 0.465 0.332 0.223 0.803 0.448 0.781 0.915-0.009 0.305 0.2 0.551 0.247 0.839-0.027 0.729 0.33 1.389 0.533 2.069 0.249 0.005 0.497 0.014 0.742 0.051-0.241 0.134-0.526 0.095-0.79 0.106-2.611-0.014-5.224-0.004-7.835-0.006 0.002-0.036 0.009-0.109 0.011-0.145 0.693 0.012 1.388-0.019 2.080 0.022-0.504-0.23-0.71-0.786-0.645-1.308-0.39 0.090-0.785 0.159-1.179 0.231-0.014-0.086-0.044-0.259-0.058-0.344 0.566-0.173 1.262-0.024 1.706-0.49 0.259-0.235 0.632-0.18 0.948-0.153-0.095 0.057-0.189 0.111-0.286 0.164-0.216-0.019-0.419 0.048-0.611 0.141 0.126 0.002 0.252 0.002 0.379 0 0.187-0.061 0.376-0.112 0.565-0.167 0.535 0.016 1.043-0.172 1.567-0.252 0.444-0.095 0.903-0.124 1.336-0.266 0.276-0.148 0.154-0.487 0.175-0.737 0.042-0.382-0.249-0.664-0.383-0.994M11.018 16.938c0.327 0.568 0.155 1.321-0.418 1.661 0.863-0.031 1.725-0.002 2.588-0.015 0.189 0.039 0.292-0.152 0.427-0.244-0.158-0.387-0.312-0.903-0.012-1.26 0.179-0.163 0.136-0.404 0.129-0.621-0.908 0.134-1.803 0.344-2.713 0.478M10.494 17.449c0.129 0.011 0.388 0.035 0.517 0.046-0.065-0.175-0.132-0.349-0.203-0.522-0.113 0.153-0.22 0.311-0.315 0.476M9.486 17.235c-0.255 0.061-0.112 0.415 0.121 0.331 0.297-0.030 0.104-0.417-0.121-0.331M14.018 17.618c-0.007 0.335 0.113 0.653 0.173 0.977 0.285 0.001 0.576-0.005 0.823-0.167-0.157-0.43-0.386-0.829-0.612-1.226-0.139 0.127-0.3 0.241-0.384 0.415M9.339 17.616c0.027 0.122 0.085 0.364 0.112 0.486 0.15-0.148 0.298-0.297 0.436-0.456-0.183-0.010-0.366-0.020-0.548-0.030M10.84 17.905c0.016-0.063 0.051-0.189 0.067-0.251-0.254-0.293-0.435 0.29-0.067 0.251M9.692 18.23c0.056 0.024 0.167 0.071 0.223 0.095 0.107-0.118 0.116-0.239 0.026-0.361-0.167-0.096-0.274 0.131-0.249 0.266M10.453 17.96c-0.106 0.147 0.146 0.379 0.282 0.242 0.139-0.157-0.147-0.342-0.282-0.242M10.208 18.044c-0.117 0.081-0.143 0.192-0.076 0.331 0.124 0.102 0.219 0.081 0.282-0.065-0.001-0.149-0.070-0.238-0.206-0.266z"></path>
<path fill="#030303" d="M12.325 16.926c0.118-0.078 0.239-0.15 0.358-0.225 0.017 0.422 0.16 0.826 0.189 1.246-0.029 0.040-0.088 0.118-0.117 0.158-0.136-0.395-0.087-0.882-0.43-1.179z"></path>
</svg>
