<svg xmlns="http://www.w3.org/2000/svg" width="24" height="24">
    <path fill="#6d6f73" d="M1.231 4h21.384c.526.157 1.009.531 1.155 1.08l-.071.147c-.169-.606-.731-1.106-1.377-1.091-6.962.004-13.923-.001-20.885.003C.715 4.157.146 4.808.09 5.506l-.089-.097v-.267c.153-.589.653-1.003 1.231-1.141z"/>
    <path fill="#fff" d="M.089 5.505c.056-.698.625-1.349 1.347-1.367 6.962-.004 13.923.001 20.885-.003.647-.015 1.209.485 1.377 1.091.019 4.395.009 8.791.005 13.186.027.742-.611 1.335-1.314 1.435-6.967-.005-13.934-.003-20.9-.001C.776 19.775.178 19.208.1 18.491.08 14.162.105 9.833.087 5.504zm1.312-1.053C.846 4.5.403 5.025.42 5.575c.001 4.283-.003 8.568.002 12.851-.003.602.553 1.124 1.153 1.093 6.893-.001 13.785.001 20.677-.001.598.028 1.157-.489 1.153-1.093.003-4.284.001-8.568.001-12.852.023-.619-.54-1.162-1.154-1.135-6.95.007-13.902-.019-20.851.013z"/>
    <path fill="#fff" d="M1.322 4.91c.106-.031.217-.036.326-.039 6.867.003 13.735-.003 20.601.003a.699.699 0 0 1 .727.701c.005 4.26.002 8.522.001 12.782.025.396-.325.756-.724.729H1.574c-.399.033-.747-.335-.723-.728C.846 14.12.85 9.882.848 5.644c-.021-.315.163-.637.473-.733zM16.29 6.811c.087.403.237.789.34 1.187-1.371.003-2.741.001-4.111.001v1.923c1.37.01 2.74 0 4.11.005-.099.409-.264.802-.341 1.216-.045.287.343.479.556.29 1.226-.814 2.441-1.646 3.657-2.473-1.228-.827-2.449-1.665-3.679-2.489-.227-.174-.612.049-.531.339zM6.561 8.49c.289.539.993.657 1.3 1.179.211.384-.132.943-.581.863-.335-.036-.451-.391-.493-.675-.181 0-.361.001-.541.003.019.415.185.853.553 1.079.487.317 1.205.135 1.487-.371.354-.559.137-1.323-.383-1.697-.297-.329-1.056-.434-.883-1.01.178-.459.895-.32.922.166l.525-.001c.009-.633-.623-1.173-1.249-.994-.62.129-.96.91-.657 1.459zM3.382 7.074c.003.968-.005 1.937.004 2.905-.013.513.381.982.877 1.087.633.161 1.316-.377 1.329-1.025.021-.987-.001-1.975.009-2.963a53.643 53.643 0 0 0-.569-.007c-.001.945.002 1.89-.001 2.835.018.292-.179.63-.499.632-.318.034-.585-.258-.581-.565-.017-.955.008-1.911-.01-2.866-.167-.075-.377-.021-.561-.033zm5.743-.001c-.001 1.317-.001 2.634 0 3.951h2.013l-.001-.556c-.48-.002-.961.001-1.441-.003-.001-.435.001-.869-.001-1.303h.821l-.002-.535-.818-.001c-.001-.333-.001-.666 0-.999h1.287l.001-.553c-.619 0-1.239-.001-1.858.001zm-6.722 5.846c-.434.129-.525.642-.576 1.029-.081.837-.124 1.709.121 2.523.167.555.995.659 1.349.233.159-.211.154-.49.165-.742l-.503-.001c-.041.174-.022.501-.28.481-.317-.034-.317-.44-.365-.681-.042-.71-.099-1.447.094-2.14.077-.311.501-.279.572.021.164.001.328.001.493-.001-.023-.532-.567-.909-1.07-.723zm6.601.288c-.288.416-.208 1.007.112 1.383.384.483 1.019 1.051.732 1.729-.28.349-.669-.079-.623-.415l-.501.004c.028.296.073.623.297.841.375.353 1.081.259 1.299-.228.295-.665-.027-1.447-.503-1.942-.277-.287-.678-.717-.362-1.12.257-.241.5.094.485.353.169-.001.339-.002.509-.005-.054-.257-.092-.545-.293-.735-.321-.305-.909-.235-1.151.135zm2.069.012c-.273.413-.192.987.115 1.361.335.434.819.841.816 1.437.033.225-.145.487-.395.421-.245-.051-.267-.337-.302-.537l-.503.008c.037.319.085.682.359.892.429.333 1.15.129 1.294-.411.226-.767-.229-1.523-.763-2.043-.265-.225-.419-.721-.081-.947.28-.118.388.195.411.411h.504c-.044-.266-.095-.555-.301-.749-.328-.296-.917-.221-1.152.158zm-6.88-.283c-.001 1.317-.002 2.634.001 3.951l.493.004c.009-.617.003-1.233.003-1.851.079.003.158.004.237.004.161.612.287 1.232.445 1.844.171-.001.342.001.513.002-.123-.654-.273-1.302-.396-1.956.523-.369.511-1.159.215-1.667-.349-.477-1.007-.3-1.511-.333zm2.77.023c-.593.346-.545 1.156-.565 1.754.014.623-.062 1.298.249 1.867.237.465.983.516 1.275.081.306-.447.299-1.017.31-1.536-.01-.611.049-1.261-.227-1.827-.181-.379-.673-.52-1.043-.339zm5.86-.024c.157 1.317.301 2.634.461 3.951l.427.005c.124-.711.216-1.427.361-2.135.157.704.242 1.421.38 2.129l.425.005c.153-1.319.309-2.637.458-3.955l-.513.001c-.075.592-.117 1.188-.215 1.777-.107-.592-.205-1.185-.315-1.777a30.388 30.388 0 0 0-.427 0c-.105.597-.207 1.193-.313 1.79-.094-.594-.138-1.194-.215-1.789l-.513-.001zm3.548.002c-.261 1.318-.534 2.633-.799 3.951h.514c.07-.351.143-.701.219-1.05.216-.001.433-.001.649-.003.087.349.148.703.225 1.053.177-.001.353.001.531.002-.281-1.317-.543-2.638-.825-3.955l-.513.001zm1.877-.001c.003 1.317-.004 2.635.004 3.953.503.001 1.005-.001 1.508.001l-.001-.455-1.012-.001c-.002-1.166.001-2.332-.001-3.498l-.498.001zm2.051-.001c.007 1.319-.009 2.637.008 3.955l.494-.003c.069-.617-.167-1.309.193-1.86.184.618.347 1.242.531 1.86l.535.001c-.223-.863-.483-1.717-.692-2.583.175-.472.437-.907.636-1.369l-.577-.001c-.212.411-.403.831-.621 1.239-.01-.413-.003-.826-.005-1.239l-.503-.001z"/>
    <path fill="#fff" d="M7.223 13.413c.299-.089.375.329.413.543.079.735.14 1.506-.049 2.229-.041.249-.395.363-.505.099-.252-.578-.153-1.232-.17-1.845.035-.345 0-.798.311-1.027zM4.687 14.526c.007-.362.001-.724.009-1.086.201.03.478-.041.612.154.109.252.108.554.017.812-.158.187-.426.113-.638.12zM16.415 15.321c.075-.34.142-.681.229-1.019.07.339.135.679.205 1.019h-.434z"/>
    <path fill="#2b2e34" d="M1.401 4.452c6.949-.032 13.901-.005 20.851-.013.615-.027 1.178.517 1.154 1.135 0 4.284.002 8.568-.001 12.852.003.603-.555 1.121-1.153 1.093l-20.677.001c-.599.031-1.156-.49-1.153-1.093C.417 14.144.421 9.859.42 5.576c-.017-.551.426-1.075.981-1.123zm-.079.458c-.309.096-.494.418-.473.733.002 4.238-.003 8.476.003 12.714-.025.393.323.761.723.728h20.679c.399.027.749-.333.724-.729.001-4.26.004-8.522-.001-12.782a.697.697 0 0 0-.727-.701c-6.867-.005-13.734 0-20.601-.003a1.233 1.233 0 0 0-.326.039zM0 5.409l.089.097c.018 4.329-.007 8.658.013 12.987l-.101-.041V5.409z"/>
    <path fill="#2b2e34" d="M16.29 6.811c-.081-.29.304-.513.531-.339 1.23.824 2.451 1.661 3.679 2.489-1.217.827-2.431 1.659-3.657 2.473-.213.189-.601-.003-.556-.29.077-.414.242-.807.341-1.216-1.37-.005-2.74.005-4.11-.005V8c1.37.001 2.741.002 4.111-.001-.103-.398-.253-.785-.34-1.187zM6.561 8.49c-.303-.549.037-1.33.657-1.459.625-.179 1.257.361 1.249.994l-.525.001c-.027-.486-.745-.625-.922-.166-.173.576.587.681.883 1.01.52.375.737 1.139.383 1.697-.282.506-1 .688-1.487.371-.368-.226-.533-.664-.553-1.079l.541-.003c.042.283.158.639.493.675.45.079.793-.479.581-.863-.307-.522-1.011-.64-1.3-1.179zM3.382 7.074c.184.013.393-.043.561.033.019.955-.007 1.911.01 2.866-.004.307.263.599.581.565.32-.002.517-.34.499-.632.003-.945 0-1.89.001-2.835.189.001.379.003.569.007-.01.987.011 1.975-.009 2.963-.014.647-.697 1.186-1.329 1.025-.497-.105-.891-.573-.877-1.087-.009-.968-.001-1.937-.004-2.905zM9.125 7.073l1.858-.001-.001.553H9.695c-.001.333-.001.666 0 .999l.818.001.002.535h-.821l.001 1.303c.48.004.961.001 1.441.003l.001.556H9.124c-.001-1.317-.001-2.634 0-3.951zM2.403 12.919c.503-.185 1.047.191 1.07.723-.164.002-.328.001-.493.001-.071-.3-.495-.332-.572-.021-.193.692-.136 1.43-.094 2.14.048.241.048.647.365.681.258.019.239-.307.28-.481l.503.001c-.011.252-.005.531-.165.742-.354.426-1.182.321-1.349-.233-.246-.814-.203-1.687-.121-2.523.051-.387.142-.901.576-1.029zM9.004 13.207c.243-.37.829-.441 1.151-.135.201.19.239.478.293.735-.17.003-.34.003-.509.005.015-.259-.227-.595-.485-.353-.316.403.085.833.362 1.12.477.495.798 1.277.503 1.942-.218.487-.923.581-1.299.228-.225-.218-.269-.545-.297-.841l.501-.004c-.046.337.343.764.623.415.287-.679-.348-1.246-.732-1.729-.32-.376-.399-.967-.112-1.383zM11.073 13.219c.235-.379.824-.454 1.152-.158.206.193.257.483.301.749h-.504c-.023-.215-.131-.529-.411-.411-.338.227-.184.723.081.947.533.521.989 1.277.763 2.043-.143.54-.865.744-1.294.411-.273-.21-.321-.573-.359-.892l.503-.008c.035.2.057.486.302.537.249.066.429-.196.395-.421.003-.595-.481-1.003-.816-1.437-.307-.373-.388-.947-.115-1.361zM4.193 12.936c.504.032 1.161-.145 1.511.333.295.507.307 1.298-.215 1.667.123.654.273 1.302.396 1.956-.171-.001-.342-.003-.513-.002-.159-.612-.283-1.232-.445-1.844-.079 0-.158-.001-.237-.004-.001.617.005 1.234-.003 1.851l-.493-.004c-.003-1.317-.001-2.634-.001-3.951zm.494 1.59c.212-.007.48.067.638-.12a1.142 1.142 0 0 0-.017-.812c-.134-.195-.411-.123-.612-.154-.008.362-.002.724-.009 1.086zM6.963 12.959c.369-.181.862-.041 1.043.339.275.566.216 1.216.227 1.827-.011.519-.003 1.09-.31 1.536-.293.435-1.038.384-1.275-.081-.311-.569-.235-1.243-.249-1.867.019-.598-.028-1.408.565-1.754zm.26.454c-.311.229-.275.682-.311 1.027.017.613-.082 1.267.17 1.845.11.264.464.15.505-.099.189-.723.129-1.493.049-2.229-.039-.213-.114-.633-.413-.543zM12.823 12.935l.513.001c.077.595.121 1.195.215 1.789.106-.597.208-1.193.313-1.79h.427c.11.592.209 1.185.315 1.777.097-.589.14-1.185.215-1.777l.513-.001c-.149 1.319-.305 2.637-.458 3.955l-.425-.005c-.138-.708-.223-1.425-.38-2.129-.144.707-.236 1.424-.361 2.135l-.427-.005c-.16-1.317-.304-2.634-.461-3.951zM16.371 12.937l.513-.001c.281 1.317.544 2.637.825 3.955-.177-.001-.353-.003-.531-.002-.077-.351-.139-.705-.225-1.053-.216.001-.433.001-.649.003-.075.349-.148.699-.219 1.05h-.514c.265-1.317.539-2.633.799-3.951zm.044 2.384h.434c-.069-.339-.135-.679-.205-1.019-.087.337-.155.679-.229 1.019zM18.248 12.936l.498-.001c.002 1.166-.001 2.332.001 3.498l1.012.001.001.455c-.503-.002-1.005 0-1.508-.001-.008-1.318-.001-2.635-.004-3.953zM20.299 12.935l.503.001c.003.413-.005.826.005 1.239.218-.408.409-.829.621-1.239l.577.001c-.199.462-.461.897-.636 1.369.209.866.469 1.72.692 2.583l-.535-.001c-.184-.618-.347-1.242-.531-1.86-.361.551-.125 1.243-.193 1.86l-.494.003c-.017-1.319-.001-2.637-.008-3.955zM1.331 19.928l.158-.081c6.967-.001 13.934-.004 20.9.001l.097.078-.13.011c-6.964-.009-13.928-.012-20.892.001l-.134-.01z"/>
    <path fill="#959799" d="M23.699 5.227l.071-.147.059.164v13.534c-.159.602-.691 1.145-1.341 1.148l-.097-.078c.703-.1 1.341-.693 1.314-1.435.003-4.395.014-8.791-.005-13.186zM0 18.451l.101.041c.077.717.675 1.284 1.389 1.355l-.158.081c-.643-.019-1.171-.562-1.331-1.16v-.317z"/>
    <path fill="#f2f2f2" d="M1.465 19.938c6.964-.013 13.928-.01 20.892-.001l-.108.063H1.569l-.105-.062z"/>
</svg>
