<!-- Generated by IcoMoon.io -->
<svg version="1.1" xmlns="http://www.w3.org/2000/svg" width="24" height="24" viewBox="0 0 24 24">
<title>regulatory--end-of-maximum-speed-limit-40--g1</title>
<path fill="#fff" d="M11.094 0h1.838c1.768 0.161 3.512 0.67 5.048 1.569 2.492 1.421 4.441 3.765 5.378 6.477 0.349 0.983 0.543 2.013 0.642 3.050v1.835c-0.161 1.757-0.664 3.491-1.553 5.020-1.535 2.714-4.168 4.784-7.172 5.621-0.761 0.224-1.548 0.338-2.335 0.428h-1.871c-1.723-0.156-3.419-0.648-4.929-1.499-2.632-1.467-4.68-3.953-5.593-6.828-0.292-0.885-0.448-1.807-0.547-2.731v-1.875c0.094-0.89 0.241-1.778 0.513-2.633 0.84-2.733 2.7-5.131 5.128-6.638 1.635-1.035 3.529-1.632 5.453-1.795M11.366 0.596c-2.155 0.11-4.272 0.862-6.022 2.123-2.383 1.696-4.065 4.341-4.582 7.221-0.593 3.166 0.237 6.566 2.239 9.091 1.792 2.312 4.505 3.883 7.403 4.281 3.22 0.47 6.617-0.526 9.065-2.673 2.293-1.965 3.75-4.876 3.928-7.893 0.127-1.87-0.219-3.77-0.999-5.474-1.193-2.645-3.436-4.793-6.131-5.869-1.547-0.626-3.235-0.903-4.902-0.807z"></path>
<path fill="#fff" d="M7.030 2.387c2.218-1.158 4.844-1.499 7.286-0.959 1.32 0.285 2.582 0.826 3.703 1.578-0.84 0.852-1.692 1.692-2.535 2.541-0.045 0.040-0.086 0.095-0.15 0.105-1.245 0.299-2.355 1.311-2.581 2.602-0.928 0.97-1.892 1.916-2.85 2.86-0.316-0.023-0.632-0.015-0.948-0.010-0.009 0.317-0.005 0.634 0.003 0.952-0.888 0.917-1.799 1.82-2.711 2.715-0.171-0.011-0.341-0.012-0.511-0.027 1.422-3.027 2.861-6.046 4.275-9.077-0.696-0.007-1.392-0.005-2.087-0.001-1.391 2.946-2.756 5.903-4.141 8.851-0.057 0.122-0.128 0.247-0.122 0.387 0.003 0.544-0.004 1.088 0.004 1.632 0.273 0.007 0.547-0.005 0.819 0.009-0.491 0.493-0.981 0.987-1.477 1.475-1.759-2.593-2.288-5.968-1.417-8.977 0.792-2.843 2.815-5.31 5.44-6.655z"></path>
<path fill="#fff" d="M16.363 5.517c0.72-0.715 1.434-1.437 2.156-2.151 0.078 0.058 0.156 0.116 0.234 0.173-0.659 0.679-1.334 1.345-2.007 2.011-0.128-0.011-0.255-0.022-0.383-0.033z"></path>
<path fill="#fff" d="M17.458 5.692c0.591-0.581 1.171-1.174 1.762-1.755 0.073 0.066 0.144 0.134 0.216 0.203-0.563 0.562-1.121 1.131-1.692 1.686-0.095-0.046-0.19-0.090-0.285-0.134z"></path>
<path fill="#fff" d="M18.315 6.111c0.516-0.515 1.029-1.032 1.547-1.545 0.069 0.070 0.136 0.143 0.201 0.218-0.498 0.503-1 1.003-1.501 1.503-0.083-0.059-0.165-0.117-0.247-0.175z"></path>
<path fill="#fff" d="M20.451 5.247c0.065 0.075 0.126 0.155 0.184 0.235-0.471 0.477-0.946 0.949-1.42 1.422-0.067-0.073-0.132-0.145-0.199-0.217 0.475-0.483 0.959-0.958 1.435-1.44z"></path>
<path fill="#fff" d="M19.543 7.433c0.48-0.488 0.963-0.972 1.451-1.451 1.655 2.444 2.227 5.582 1.549 8.454-0.649 2.887-2.557 5.455-5.12 6.929-2.344 1.372-5.217 1.8-7.86 1.177-1.275-0.29-2.494-0.821-3.58-1.549 0.984-0.994 1.976-1.981 2.967-2.969 0 0.132 0.001 0.264 0.005 0.396 0.626 0.004 1.252 0.005 1.878-0 0.010-0.626-0.003-1.252 0.006-1.877 0.338-0.013 0.675 0.002 1.013-0.007 0.006-0.468 0.008-0.936-0.003-1.403 0.259-0.279 0.535-0.542 0.805-0.811-0.017 0.773 0.014 1.58 0.37 2.285 0.377 0.778 1.1 1.345 1.89 1.665 1.398 0.558 3.096 0.177 4.124-0.922 0.624-0.645 0.883-1.562 0.885-2.443 0.002-1.89 0-3.78 0.001-5.671 0-0.617-0.1-1.246-0.381-1.801z"></path>
<path fill="#fff" d="M15.662 7.501c0.159-0.043 0.323-0.061 0.487-0.081-0.516 0.529-1.041 1.049-1.565 1.568-0.005-0.154 0.021-0.306 0.060-0.455 0.315-0.364 0.673-0.696 1.019-1.032z"></path>
<path fill="#fff" d="M14.52 9.923c0.787-0.823 1.603-1.624 2.415-2.422 0.087 0.050 0.174 0.1 0.261 0.152-0.882 0.883-1.766 1.763-2.646 2.647-0.010-0.126-0.022-0.251-0.030-0.377z"></path>
<path fill="#fff" d="M14.521 11.191c1.035-1.063 2.094-2.103 3.143-3.153 0.053 0.085 0.107 0.17 0.16 0.255-1.089 1.095-2.182 2.185-3.275 3.277-0.008-0.127-0.017-0.253-0.028-0.379z"></path>
<path fill="#fff" d="M14.525 12.457c1.152-1.177 2.326-2.333 3.491-3.499 0.056 1.762 0.009 3.528 0.024 5.292 0.008 0.562 0.022 1.171-0.301 1.66-0.607 0.961-2.218 0.987-2.865 0.057-0.227-0.32-0.318-0.717-0.332-1.104-0.018-0.802 0.015-1.604-0.018-2.405z"></path>
<path fill="#fff" d="M10.815 11.063c0.611-0.606 1.218-1.216 1.826-1.825 0.009 0.127 0.019 0.254 0.024 0.381-0.587 0.629-1.218 1.221-1.819 1.838-0.008-0.132-0.018-0.263-0.031-0.395z"></path>
<path fill="#fff" d="M10.832 12.325c0.599-0.609 1.208-1.208 1.81-1.815 0.009 0.126 0.019 0.251 0.025 0.377-0.581 0.634-1.22 1.227-1.822 1.845-0.007-0.136-0.010-0.272-0.013-0.407z"></path>
<path fill="#fff" d="M12.645 11.78c0.008 0.135 0.012 0.27 0.015 0.405-0.6 0.609-1.21 1.209-1.812 1.817-0.009-0.127-0.020-0.253-0.033-0.379 0.596-0.628 1.222-1.227 1.83-1.844z"></path>
<path fill="#fff" d="M7.135 14.745c0.603-0.6 1.204-1.201 1.804-1.804 0.009 0.127 0.019 0.254 0.023 0.381-0.465 0.499-0.957 0.98-1.449 1.453-0.126-0.013-0.253-0.022-0.379-0.030z"></path>
<path fill="#fff" d="M12.645 13.054c0.007 0.134 0.012 0.267 0.016 0.4-0.433 0.439-0.868 0.877-1.309 1.308-0.135-0.005-0.269-0.008-0.403-0.013 0.566-0.565 1.131-1.131 1.696-1.696z"></path>
<path fill="#fff" d="M8.407 14.744c0.179-0.176 0.356-0.354 0.533-0.533 0.010 0.126 0.017 0.251 0.022 0.377l0.001 0.031c-0.058 0.054-0.117 0.107-0.178 0.158-0.126-0.014-0.252-0.024-0.378-0.034z"></path>
<path fill="#fff" d="M3.366 18.518c0.657-0.664 1.319-1.322 1.98-1.982 0.133 0 0.265 0.004 0.397 0.016-0.733 0.735-1.458 1.48-2.207 2.197-0.055-0.079-0.113-0.156-0.171-0.232z"></path>
<path fill="#fff" d="M3.938 19.218c0.89-0.896 1.785-1.787 2.678-2.68 0.135-0.001 0.27 0.004 0.405 0.019-0.961 0.958-1.919 1.92-2.88 2.878-0.069-0.071-0.137-0.143-0.202-0.217z"></path>
<path fill="#fff" d="M7.887 16.538c0.135-0.003 0.271 0.002 0.406 0.020-1.172 1.166-2.337 2.34-3.51 3.505-0.074-0.066-0.146-0.133-0.217-0.202 1.105-1.11 2.214-2.215 3.321-3.322z"></path>
<path fill="#fff" d="M8.944 16.759c0.006 0.133 0.010 0.265 0.014 0.398-1.155 1.163-2.315 2.321-3.476 3.478-0.076-0.059-0.153-0.116-0.232-0.172 1.216-1.248 2.46-2.471 3.693-3.704z"></path>
<path fill="#000" d="M11.366 0.596c1.666-0.097 3.354 0.18 4.902 0.807 2.695 1.076 4.938 3.225 6.131 5.869 0.78 1.704 1.126 3.604 0.999 5.474-0.179 3.017-1.635 5.928-3.928 7.893-2.448 2.146-5.845 3.143-9.065 2.673-2.898-0.398-5.611-1.969-7.403-4.281-2.002-2.525-2.832-5.925-2.239-9.091 0.517-2.88 2.199-5.525 4.582-7.221 1.75-1.262 3.867-2.013 6.022-2.123M7.030 2.387c-2.625 1.345-4.648 3.812-5.44 6.655-0.871 3.008-0.341 6.383 1.417 8.977 0.496-0.488 0.986-0.982 1.477-1.475 0.589-0.591 1.188-1.171 1.764-1.774 0.912-0.895 1.823-1.798 2.711-2.715 0.329-0.299 0.64-0.618 0.945-0.941 0.958-0.944 1.922-1.89 2.85-2.86 0.751-0.7 1.457-1.449 2.19-2.169 0.129-0.145 0.301-0.257 0.39-0.433 0.064-0.010 0.104-0.066 0.15-0.105 0.843-0.849 1.695-1.689 2.535-2.541-1.121-0.752-2.384-1.292-3.703-1.578-2.442-0.54-5.069-0.199-7.286 0.959M16.363 5.517c-1.239 1.242-2.48 2.482-3.721 3.721-0.608 0.609-1.215 1.219-1.826 1.825-0.623 0.628-1.25 1.253-1.876 1.878-0.6 0.602-1.201 1.204-1.804 1.804-0.594 0.599-1.194 1.192-1.788 1.792-0.661 0.66-1.324 1.319-1.98 1.982 0.058 0.076 0.115 0.153 0.171 0.232 0.75-0.717 1.475-1.462 2.207-2.197l0.011 0.001c0.577-0.601 1.186-1.172 1.758-1.778 0.492-0.473 0.983-0.954 1.449-1.453 0.645-0.603 1.252-1.247 1.884-1.864 0.601-0.617 1.232-1.209 1.819-1.838 1.376-1.339 2.723-2.71 4.080-4.069 0.673-0.666 1.348-1.332 2.007-2.011-0.079-0.058-0.157-0.116-0.234-0.173-0.722 0.714-1.435 1.436-2.156 2.151M17.458 5.692c-0.593 0.608-1.209 1.195-1.795 1.809-0.346 0.336-0.704 0.668-1.019 1.032-0.69 0.632-1.33 1.323-2.002 1.976-0.601 0.607-1.211 1.206-1.81 1.815-0.635 0.624-1.26 1.26-1.892 1.887-0.177 0.179-0.354 0.357-0.533 0.533-0.595 0.6-1.195 1.195-1.791 1.793-0.892 0.893-1.788 1.784-2.678 2.68 0.065 0.074 0.133 0.146 0.202 0.217 0.962-0.957 1.919-1.92 2.88-2.878 0.585-0.595 1.19-1.173 1.765-1.779 0.060-0.051 0.12-0.104 0.178-0.158l-0.001-0.031c0.651-0.592 1.251-1.243 1.883-1.857 0.602-0.619 1.241-1.212 1.822-1.845 0.661-0.606 1.27-1.268 1.917-1.89v-0.009c0.525-0.519 1.050-1.039 1.565-1.568 0.535-0.524 1.069-1.058 1.594-1.595 0.571-0.555 1.129-1.124 1.692-1.686-0.071-0.069-0.143-0.137-0.216-0.203-0.591 0.582-1.171 1.174-1.762 1.755M18.315 6.111c-0.458 0.465-0.931 0.915-1.379 1.39-0.813 0.799-1.628 1.6-2.415 2.422-0.643 0.6-1.248 1.241-1.876 1.857-0.607 0.617-1.234 1.216-1.83 1.844-0.989 0.958-1.95 1.945-2.928 2.915-1.107 1.108-2.216 2.213-3.321 3.323 0.071 0.069 0.143 0.136 0.217 0.202 1.173-1.165 2.338-2.339 3.51-3.505 0.851-0.853 1.702-1.706 2.556-2.556 0.601-0.608 1.211-1.208 1.812-1.817 0.634-0.625 1.259-1.26 1.891-1.886 0.88-0.885 1.764-1.765 2.646-2.647 0.455-0.456 0.912-0.909 1.365-1.366 0.502-0.5 1.004-0.999 1.501-1.503-0.064-0.075-0.132-0.148-0.201-0.218-0.518 0.513-1.032 1.030-1.547 1.545M20.451 5.247c-0.476 0.482-0.96 0.957-1.435 1.44-0.454 0.447-0.904 0.898-1.352 1.351-1.049 1.050-2.108 2.090-3.143 3.153-0.638 0.608-1.249 1.244-1.876 1.863-0.565 0.565-1.13 1.131-1.696 1.696-0.669 0.666-1.332 1.338-2.005 2v0.009c-1.233 1.233-2.477 2.456-3.693 3.704 0.078 0.055 0.155 0.112 0.232 0.172 1.161-1.157 2.321-2.315 3.476-3.478 0.802-0.795 1.601-1.591 2.394-2.395 0.442-0.431 0.877-0.869 1.309-1.308 0.635-0.62 1.252-1.258 1.888-1.877l-0-0.007c1.093-1.091 2.186-2.182 3.275-3.277 0.466-0.46 0.929-0.924 1.391-1.389 0.474-0.473 0.95-0.945 1.42-1.422-0.058-0.081-0.119-0.16-0.184-0.235M19.543 7.433c-0.514 0.504-1.020 1.014-1.527 1.525-1.164 1.166-2.339 2.322-3.491 3.499-0.634 0.61-1.249 1.241-1.871 1.864-0.27 0.269-0.546 0.532-0.805 0.811-0.975 0.954-1.934 1.927-2.899 2.892-0.991 0.988-1.982 1.975-2.967 2.969 1.086 0.728 2.305 1.26 3.58 1.549 2.643 0.622 5.516 0.195 7.86-1.177 2.564-1.473 4.471-4.042 5.12-6.929 0.677-2.872 0.105-6.010-1.549-8.454-0.488 0.48-0.972 0.963-1.451 1.451z"></path>
<path fill="#808080" d="M12.642 9.238c1.241-1.239 2.482-2.48 3.721-3.721 0.128 0.012 0.255 0.022 0.383 0.033-1.357 1.359-2.705 2.73-4.080 4.069-0.005-0.127-0.015-0.254-0.024-0.381z"></path>
<path fill="#808080" d="M7.924 5.665c0.696-0.004 1.392-0.006 2.087 0.001-1.414 3.030-2.852 6.050-4.275 9.077 0.17 0.015 0.341 0.016 0.511 0.027-0.576 0.603-1.176 1.184-1.764 1.774-0.273-0.014-0.546-0.002-0.819-0.009-0.008-0.544-0.001-1.088-0.004-1.632-0.006-0.14 0.065-0.264 0.122-0.387 1.385-2.948 2.75-5.906 4.141-8.851z"></path>
<path fill="#808080" d="M12.754 8.254c0.226-1.29 1.335-2.303 2.581-2.602-0.090 0.176-0.262 0.288-0.39 0.433-0.733 0.72-1.44 1.469-2.19 2.169z"></path>
<path fill="#808080" d="M15.662 7.501c0.586-0.615 1.202-1.201 1.795-1.809 0.095 0.044 0.191 0.088 0.285 0.134-0.525 0.537-1.059 1.071-1.594 1.595-0.163 0.020-0.327 0.038-0.487 0.081z"></path>
<path fill="#808080" d="M16.936 7.5c0.448-0.474 0.921-0.925 1.379-1.39 0.082 0.059 0.164 0.117 0.247 0.175-0.453 0.457-0.91 0.911-1.365 1.366-0.086-0.052-0.173-0.102-0.261-0.152z"></path>
<path fill="#808080" d="M17.664 8.038c0.448-0.453 0.898-0.904 1.352-1.351 0.067 0.072 0.132 0.144 0.199 0.217-0.462 0.465-0.924 0.929-1.391 1.389-0.053-0.085-0.106-0.17-0.16-0.255z"></path>
<path fill="#808080" d="M18.015 8.958c0.507-0.51 1.013-1.021 1.527-1.525 0.281 0.555 0.382 1.184 0.381 1.801-0 1.89 0.001 3.781-0.001 5.671-0.003 0.881-0.262 1.798-0.885 2.443-1.028 1.099-2.726 1.48-4.124 0.922-0.79-0.32-1.513-0.887-1.89-1.665-0.356-0.705-0.387-1.512-0.37-2.285 0.622-0.623 1.237-1.253 1.871-1.864 0.033 0.801-0 1.604 0.018 2.405 0.014 0.387 0.105 0.784 0.332 1.104 0.647 0.93 2.257 0.905 2.865-0.057 0.323-0.489 0.308-1.098 0.301-1.66-0.015-1.763 0.032-3.529-0.024-5.292z"></path>
<path fill="#808080" d="M12.642 10.509c0.672-0.653 1.312-1.344 2.002-1.976-0.039 0.149-0.065 0.301-0.060 0.455v0.009c-0.647 0.621-1.256 1.284-1.917 1.89-0.006-0.126-0.015-0.252-0.025-0.377z"></path>
<path fill="#808080" d="M12.645 11.78c0.628-0.616 1.233-1.257 1.876-1.857 0.008 0.126 0.020 0.251 0.030 0.377-0.632 0.626-1.257 1.26-1.891 1.886-0.003-0.135-0.008-0.27-0.015-0.405z"></path>
<path fill="#808080" d="M8.939 12.941c0.626-0.625 1.253-1.25 1.876-1.878 0.013 0.131 0.022 0.262 0.031 0.395-0.632 0.617-1.239 1.261-1.884 1.864-0.004-0.127-0.014-0.254-0.023-0.381z"></path>
<path fill="#808080" d="M8.956 11.104c0.316-0.005 0.632-0.013 0.948 0.010-0.305 0.323-0.617 0.642-0.945 0.941-0.008-0.317-0.012-0.635-0.003-0.952z"></path>
<path fill="#808080" d="M12.645 13.054c0.627-0.619 1.238-1.255 1.876-1.863 0.011 0.126 0.020 0.252 0.028 0.379l0 0.007c-0.636 0.619-1.253 1.257-1.888 1.877-0.005-0.134-0.009-0.267-0.016-0.4z"></path>
<path fill="#808080" d="M8.94 14.212c0.632-0.627 1.257-1.262 1.892-1.887 0.003 0.135 0.006 0.271 0.013 0.407-0.632 0.614-1.232 1.265-1.883 1.857-0.005-0.126-0.012-0.252-0.022-0.377z"></path>
<path fill="#808080" d="M7.887 16.538c0.978-0.97 1.939-1.957 2.928-2.915 0.014 0.126 0.024 0.252 0.033 0.379-0.854 0.85-1.705 1.703-2.556 2.556-0.135-0.017-0.27-0.023-0.406-0.020z"></path>
<path fill="#808080" d="M5.347 16.536c0.594-0.599 1.194-1.192 1.788-1.792 0.126 0.009 0.253 0.018 0.379 0.030-0.572 0.607-1.181 1.178-1.758 1.778l-0.011-0.001c-0.132-0.012-0.265-0.016-0.398-0.016z"></path>
<path fill="#808080" d="M6.615 16.538c0.596-0.599 1.196-1.193 1.791-1.793 0.126 0.009 0.252 0.020 0.378 0.034-0.575 0.606-1.179 1.184-1.765 1.779-0.135-0.015-0.27-0.021-0.405-0.019z"></path>
<path fill="#808080" d="M8.944 16.75c0.673-0.662 1.336-1.334 2.005-2 0.135 0.005 0.269 0.008 0.403 0.013-0.793 0.803-1.592 1.6-2.394 2.395-0.004-0.133-0.008-0.265-0.014-0.398v-0.009z"></path>
<path fill="#808080" d="M8.95 18.024c0.965-0.965 1.924-1.937 2.899-2.892 0.012 0.467 0.009 0.936 0.003 1.403-0.338 0.009-0.676-0.007-1.013 0.007-0.009 0.625 0.004 1.251-0.006 1.877-0.626 0.005-1.252 0.004-1.878 0-0.003-0.132-0.004-0.264-0.005-0.396z"></path>
</svg>
