<!-- Generated by IcoMoon.io -->
<svg version="1.1" xmlns="http://www.w3.org/2000/svg" width="19" height="24" viewBox="0 0 19 24">
<title>regulatory--maximum-speed-limit-90--g3</title>
<path fill="#040404" d="M1.079 0h17.067c0.491 0.143 0.876 0.514 1.054 0.99v21.966c-0.082 0.17-0.19 0.326-0.309 0.472 0.082-0.302 0.202-0.601 0.199-0.919-0.002-7.040 0.004-14.080-0.002-21.12 0.040-0.694-0.586-1.307-1.278-1.26-5.472-0.003-10.943-0.004-16.414 0.001-0.692-0.042-1.311 0.573-1.266 1.266-0.002 7.069-0.005 14.139 0.001 21.209-0.023 0.601 0.443 1.133 1.029 1.234l-0.171 0.088c-0.489-0.134-0.835-0.544-0.989-1.015v-21.823c0.14-0.529 0.553-0.942 1.079-1.089z"></path>
<path fill="#040404" d="M1.031 0.435c0.184-0.056 0.379-0.053 0.569-0.057 5.401 0.006 10.803-0.002 16.205 0.004 0.562-0.047 1.076 0.449 1.030 1.015 0.002 7.069 0.005 14.138-0.001 21.206 0.032 0.552-0.476 1.036-1.025 0.985-5.472 0-10.945 0.001-16.417 0-0.542 0.044-1.040-0.438-1.008-0.982-0.005-7.070-0.003-14.141-0.001-21.211-0.024-0.418 0.244-0.837 0.648-0.96M1.125 0.909c-0.23 0.096-0.278 0.366-0.266 0.588 0.005 7.035-0.004 14.071 0.005 21.107-0.029 0.294 0.239 0.541 0.528 0.506 5.472 0.004 10.944 0.002 16.416 0.001 0.298 0.040 0.575-0.209 0.547-0.512 0.006-7.066 0.003-14.132 0.002-21.199 0.036-0.312-0.241-0.58-0.552-0.543-5.402-0.008-10.804 0.002-16.206-0.005-0.159 0.006-0.324-0.003-0.474 0.057z"></path>
<path fill="#040404" d="M1.972 3.242c0.149 0.004 0.299 0.009 0.449 0.015 0.186 0.578 0.383 1.152 0.581 1.726 0.206-0.577 0.4-1.159 0.603-1.737 0.146 0 0.291 0 0.436 0 0.002 1.056 0.002 2.111 0 3.167-0.148 0-0.296 0-0.444 0-0.002-0.569 0.002-1.139-0.004-1.709-0.199 0.561-0.377 1.129-0.582 1.688-0.223-0.559-0.393-1.136-0.6-1.7-0.004 0.574 0 1.148-0.002 1.721-0.146 0-0.292 0-0.438 0-0.001-1.057-0.001-2.114 0.001-3.171z"></path>
<path fill="#040404" d="M5.163 3.241c0.146-0.001 0.292-0.002 0.439-0.003 0.27 1.057 0.533 2.117 0.798 3.175-0.152 0-0.303 0-0.455-0.001-0.076-0.295-0.154-0.59-0.232-0.885-0.213 0-0.425 0.001-0.638 0.001-0.074 0.295-0.148 0.59-0.221 0.884-0.152 0.001-0.303 0.001-0.455 0.001 0.253-1.058 0.509-2.115 0.764-3.172M5.386 4.255c-0.071 0.271-0.138 0.543-0.202 0.816 0.138 0.001 0.276 0.002 0.414 0.004-0.068-0.274-0.137-0.548-0.212-0.82z"></path>
<path fill="#040404" d="M6.78 3.232c0.16 0 0.32 0.001 0.479 0.001 0.14 0.323 0.279 0.646 0.42 0.968 0.137-0.326 0.275-0.653 0.423-0.975 0.158 0.004 0.316 0.007 0.475 0.009-0.219 0.518-0.441 1.035-0.658 1.554 0.231 0.541 0.467 1.081 0.695 1.624-0.161 0-0.32 0-0.48 0-0.149-0.348-0.3-0.694-0.456-1.039-0.152 0.346-0.302 0.692-0.451 1.040-0.16-0.001-0.321-0.001-0.482-0.002 0.226-0.543 0.462-1.083 0.691-1.625-0.217-0.519-0.44-1.035-0.656-1.555z"></path>
<path fill="#040404" d="M9.050 3.237c0.153 0 0.306 0 0.459 0 0.003 1.060 0.002 2.12 0.001 3.181-0.154-0.001-0.307-0.001-0.46-0.001-0.001-1.060-0.001-2.12 0-3.18z"></path>
<path fill="#040404" d="M10.124 3.245c0.147 0.001 0.293 0.001 0.44 0.001 0.199 0.581 0.393 1.163 0.59 1.744 0.203-0.581 0.4-1.164 0.605-1.745 0.145 0.001 0.291 0.001 0.436 0.001 0.001 1.056 0.001 2.112 0 3.168-0.149-0.001-0.297-0.001-0.446-0.001-0.002-0.569 0.001-1.138-0.002-1.706-0.202 0.568-0.389 1.141-0.587 1.71-0.203-0.577-0.396-1.157-0.597-1.734-0.001 0.576 0.001 1.153-0.001 1.73-0.147 0-0.293 0-0.439 0 0-1.056-0.002-2.112 0.001-3.168z"></path>
<path fill="#040404" d="M12.789 3.233c0.146-0.001 0.292-0.002 0.438-0.003 0.021 0.844-0.031 1.69 0.024 2.532 0.085 0.433 0.808 0.37 0.819-0.075 0.039-0.817 0.002-1.637 0.017-2.456 0.149 0.001 0.298 0.002 0.448 0.003-0.028 0.883 0.058 1.775-0.044 2.652-0.205 0.791-1.472 0.804-1.665 0-0.086-0.879-0.015-1.769-0.037-2.653z"></path>
<path fill="#040404" d="M15.135 3.246c0.145 0 0.291-0.001 0.437-0.001 0.203 0.58 0.395 1.163 0.593 1.744 0.204-0.58 0.401-1.161 0.603-1.742 0.145-0.001 0.29-0.001 0.436-0.002 0.004 1.056 0.001 2.112 0.001 3.168-0.148 0-0.297 0-0.445 0-0.002-0.569 0.001-1.139-0.001-1.708-0.203 0.568-0.389 1.142-0.589 1.711-0.201-0.576-0.394-1.154-0.596-1.729-0.001 0.575 0.001 1.151-0.001 1.726-0.147 0-0.293 0-0.439 0 0-1.056-0.001-2.111 0.001-3.167z"></path>
<path fill="#fff" d="M0.13 1.396c-0.045-0.693 0.574-1.308 1.266-1.266 5.471-0.005 10.942-0.004 16.414-0.001 0.692-0.047 1.318 0.566 1.278 1.26 0.006 7.040 0 14.080 0.002 21.12 0.003 0.318-0.117 0.617-0.199 0.919-0.255 0.137-0.489 0.329-0.776 0.394-5.651 0.004-11.305-0.031-16.955 0.017-0.586-0.101-1.052-0.633-1.029-1.234-0.006-7.070-0.003-14.14-0.001-21.209M1.031 0.435c-0.404 0.123-0.672 0.542-0.648 0.96-0.002 7.070-0.004 14.141 0.001 21.211-0.032 0.544 0.466 1.026 1.008 0.982 5.472 0.001 10.945 0 16.417 0 0.549 0.051 1.057-0.433 1.025-0.985 0.006-7.068 0.003-14.137 0.001-21.206 0.046-0.566-0.468-1.062-1.030-1.015-5.402-0.006-10.804 0.002-16.205-0.004-0.19 0.004-0.385 0.001-0.569 0.057z"></path>
<path fill="#fff" d="M1.125 0.909c0.15-0.060 0.315-0.051 0.474-0.057 5.402 0.007 10.804-0.003 16.206 0.005 0.311-0.037 0.588 0.231 0.552 0.543 0.001 7.067 0.004 14.133-0.002 21.199 0.028 0.303-0.249 0.552-0.547 0.512-5.472 0.001-10.944 0.003-16.416-0.001-0.289 0.035-0.557-0.212-0.528-0.506-0.009-7.036 0-14.072-0.005-21.107-0.012-0.222 0.036-0.492 0.266-0.588M1.972 3.242c-0.002 1.057-0.002 2.114-0.001 3.171 0.146 0 0.292 0 0.438 0 0.002-0.573-0.002-1.147 0.002-1.721 0.207 0.564 0.377 1.141 0.6 1.7 0.205-0.559 0.383-1.127 0.582-1.688 0.006 0.57 0.002 1.14 0.004 1.709 0.148 0 0.296 0 0.444 0 0.002-1.056 0.002-2.111 0-3.167-0.145 0-0.29 0-0.436 0-0.203 0.578-0.397 1.16-0.603 1.737-0.198-0.574-0.395-1.148-0.581-1.726-0.15-0.006-0.3-0.011-0.449-0.015M5.163 3.241c-0.255 1.057-0.511 2.114-0.764 3.172 0.152 0 0.303 0 0.455-0.001 0.073-0.294 0.147-0.589 0.221-0.884 0.213 0 0.425-0.001 0.638-0.001 0.078 0.295 0.156 0.59 0.232 0.885 0.152 0.001 0.303 0.001 0.455 0.001-0.265-1.058-0.528-2.118-0.798-3.175-0.147 0.001-0.293 0.002-0.439 0.003M6.78 3.232c0.216 0.52 0.439 1.036 0.656 1.555-0.229 0.542-0.465 1.082-0.691 1.625 0.161 0.001 0.322 0.001 0.482 0.002 0.149-0.348 0.299-0.694 0.451-1.040 0.156 0.345 0.307 0.691 0.456 1.039 0.16 0 0.319 0 0.48 0-0.228-0.543-0.464-1.083-0.695-1.624 0.217-0.519 0.439-1.036 0.658-1.554-0.159-0.002-0.317-0.005-0.475-0.009-0.148 0.322-0.286 0.649-0.423 0.975-0.141-0.322-0.28-0.645-0.42-0.968-0.159 0-0.319-0.001-0.479-0.001M9.050 3.237c-0.001 1.060-0.001 2.12 0 3.18 0.153 0 0.306 0 0.46 0.001 0.001-1.061 0.002-2.121-0.001-3.181-0.153 0-0.306 0-0.459 0M10.124 3.245c-0.003 1.056-0.001 2.112-0.001 3.168 0.146 0 0.292 0 0.439 0 0.002-0.577 0-1.154 0.001-1.73 0.201 0.577 0.394 1.157 0.597 1.734 0.198-0.569 0.385-1.142 0.587-1.71 0.003 0.568 0 1.137 0.002 1.706 0.149 0 0.297 0 0.446 0.001 0.001-1.056 0.001-2.112 0-3.168-0.145 0-0.291 0-0.436-0.001-0.205 0.581-0.402 1.164-0.605 1.745-0.197-0.581-0.391-1.163-0.59-1.744-0.147 0-0.293 0-0.44-0.001M12.789 3.233c0.022 0.884-0.049 1.774 0.037 2.653 0.193 0.804 1.46 0.791 1.665 0 0.102-0.877 0.016-1.769 0.044-2.652-0.15-0.001-0.299-0.002-0.448-0.003-0.015 0.819 0.022 1.639-0.017 2.456-0.011 0.445-0.734 0.508-0.819 0.075-0.055-0.842-0.003-1.688-0.024-2.532-0.146 0.001-0.292 0.002-0.438 0.003M15.135 3.246c-0.002 1.056-0.001 2.111-0.001 3.167 0.146 0 0.292 0 0.439 0 0.002-0.575 0-1.151 0.001-1.726 0.202 0.575 0.395 1.153 0.596 1.729 0.2-0.569 0.386-1.143 0.589-1.711 0.002 0.569-0.001 1.139 0.001 1.708 0.148 0 0.297 0 0.445 0 0-1.056 0.003-2.112-0.001-3.168-0.146 0.001-0.291 0.001-0.436 0.002-0.202 0.581-0.399 1.162-0.603 1.742-0.198-0.581-0.39-1.164-0.593-1.744-0.146 0-0.292 0.001-0.437 0.001M3.524 10.225c-1.085 1.015-1.309 2.719-0.824 4.076 0.667 1.773 3.389 2.467 4.66 0.962-0.080 0.822-0.089 1.769-0.699 2.402-0.654 0.666-1.961 0.355-2.087-0.626-0.643-0.002-1.287-0.004-1.93 0.001 0.1 0.536 0.232 1.098 0.609 1.514 1.17 1.354 3.496 1.422 4.753 0.153 0.755-0.777 1.072-1.86 1.214-2.909 0.166-1.325 0.131-2.691-0.23-3.982-0.27-0.935-0.893-1.818-1.827-2.179-1.192-0.468-2.69-0.322-3.639 0.588M12.746 9.472c-1.45 0.237-2.193 1.704-2.366 3.031-0.242 1.764-0.282 3.648 0.392 5.326 0.842 2.347 4.806 2.354 5.689 0.034 0.661-1.629 0.63-3.446 0.438-5.166-0.156-0.925-0.42-1.909-1.115-2.581-0.814-0.74-2.002-0.821-3.038-0.644z"></path>
<path fill="#fff" d="M5.386 4.255c0.075 0.272 0.144 0.546 0.212 0.82-0.138-0.002-0.276-0.003-0.414-0.004 0.064-0.273 0.131-0.545 0.202-0.816z"></path>
<path fill="#fff" d="M5.527 11.031c0.622-0.138 1.32 0.176 1.565 0.777 0.268 0.681 0.287 1.526-0.127 2.152-0.571 0.806-2.036 0.734-2.384-0.241-0.353-0.932-0.213-2.429 0.946-2.688z"></path>
<path fill="#fff" d="M13.237 11.052c0.692-0.235 1.453 0.234 1.555 0.956 0.335 1.678 0.364 3.462-0.064 5.124-0.165 0.847-1.315 1.115-1.911 0.552-0.411-0.473-0.484-1.13-0.547-1.729-0.070-1.177-0.093-2.368 0.069-3.539 0.089-0.544 0.302-1.199 0.898-1.364z"></path>
<path fill="#000" d="M3.524 10.225c0.949-0.91 2.447-1.056 3.639-0.588 0.934 0.361 1.557 1.244 1.827 2.179 0.361 1.291 0.396 2.657 0.23 3.982-0.142 1.049-0.459 2.132-1.214 2.909-1.257 1.269-3.583 1.201-4.753-0.153-0.377-0.416-0.509-0.978-0.609-1.514 0.643-0.005 1.287-0.003 1.93-0.001 0.126 0.981 1.433 1.292 2.087 0.626 0.61-0.633 0.619-1.58 0.699-2.402-1.271 1.505-3.993 0.811-4.66-0.962-0.485-1.357-0.261-3.061 0.824-4.076M5.527 11.031c-1.159 0.259-1.299 1.756-0.946 2.688 0.348 0.975 1.813 1.047 2.384 0.241 0.414-0.626 0.395-1.471 0.127-2.152-0.245-0.601-0.943-0.915-1.565-0.777z"></path>
<path fill="#000" d="M12.746 9.472c1.036-0.177 2.224-0.096 3.038 0.644 0.695 0.672 0.959 1.656 1.115 2.581 0.192 1.72 0.223 3.537-0.438 5.166-0.883 2.32-4.847 2.313-5.689-0.034-0.674-1.678-0.634-3.562-0.392-5.326 0.173-1.327 0.916-2.794 2.366-3.031M13.237 11.052c-0.596 0.165-0.809 0.82-0.898 1.364-0.162 1.171-0.139 2.362-0.069 3.539 0.063 0.599 0.136 1.256 0.547 1.729 0.596 0.563 1.746 0.295 1.911-0.552 0.428-1.662 0.399-3.446 0.064-5.124-0.102-0.722-0.863-1.191-1.555-0.956z"></path>
<path fill="#060606" opacity="0.76" d="M18.115 23.822c0.287-0.065 0.521-0.257 0.776-0.394-0.148 0.313-0.466 0.466-0.778 0.572h-16.94l-0.184-0.073c4.634-0.109 9.274-0.015 13.911-0.047 1.071-0.031 2.149 0.071 3.215-0.058z"></path>
<path fill="#767676" d="M1.16 23.839c5.65-0.048 11.304-0.013 16.955-0.017-1.066 0.129-2.144 0.027-3.215 0.058-4.637 0.032-9.277-0.062-13.911 0.047l0.171-0.088z"></path>
</svg>
