<svg xmlns="http://www.w3.org/2000/svg" width="24" height="24">
    <path fill="#747775" opacity=".73" d="M10.577 0h2.917l-.228.102c-.828 0-1.656.006-2.483-.01L10.577 0z"/>
    <path fill="#f7fbf5" d="M.101 10.721C.564 5.243 5.301.526 10.783.093c.827.016 1.655.01 2.483.01 5.488.448 10.194 5.198 10.642 10.678-.017.834-.012 1.667-.011 2.501-.469 5.47-5.196 10.165-10.662 10.625-.838-.014-1.675-.011-2.513-.007C5.248 23.427.54 18.699.091 13.221c.02-.833.013-1.666.01-2.498zm15.764-9.156C12.205 7.89 8.558 14.223 4.896 20.548c.224.18.448.361.672.544 1.332-2.284 2.665-4.567 3.96-6.871.089.223.174.446.257.672-1.277 2.149-2.507 4.325-3.76 6.487.245.148.492.292.738.438 3.709-6.421 7.416-12.842 11.12-19.265-.246-.143-.492-.284-.739-.425-1.889 3.268-3.794 6.527-5.653 9.812-.07-.245-.14-.488-.217-.73 1.812-3.095 3.592-6.209 5.387-9.312-.264-.114-.53-.224-.796-.334zM14.761 9.05l-.446.01c-.409.68-.479 1.578-1.153 2.075-.293.187-.13.547-.085.818A2022.492 2022.492 0 0 0 7.24 22.061c.264.113.529.223.794.332 1.729-3.012 3.493-6.005 5.196-9.032l.356.324c.005.444.016.888.052 1.331l1.046.002c.042-.456.05-.914.052-1.372 1.738-.011 3.475-.011 5.213 0 .002.456.011.913.049 1.369l1.049.001c.032-.406.017-.814.068-1.217.102-.366.565-.553.574-.956.029-.538.001-1.076-.014-1.614-.824-.434-.809-1.507-1.355-2.135a17.97 17.97 0 0 0-4.522-.168 590.015 590.015 0 0 0 3.216-5.562l-.679-.518c-1.2 2.063-2.405 4.123-3.574 6.204zm-10.697.046c-.503.696-.583 1.663-1.328 2.196-.001.726-.272 1.644.35 2.189.4.4.168 1.027.246 1.531.362.001.725-.002 1.086-.014l.04-1.368c1.434.013 2.869.018 4.304 0 .521-.92 1.092-1.814 1.564-2.762-2.201-.031-4.4-.042-6.6-.028.175-.43.313-.881.564-1.274 1.812-.391 3.698-.294 5.528-.047.188.43.382.859.616 1.267.409-.574-.142-1.159-.336-1.706-1.999-.27-4.042-.325-6.034.017z"/>
    <path fill="#f7fbf5" d="M15.586 9.3c1.513.024 3.032-.036 4.532.223.2.437.39.88.553 1.332-1.938.002-3.877-.035-5.816-.022-.244.445-.512.881-.858 1.256.516-.938 1.067-1.855 1.589-2.79zM21.05 11.476c.488.221.202.902.193 1.319-.372-.336-.168-.882-.193-1.319zM5.905 12.36c.763-.028 1.528-.019 2.292-.011l-.004.361c-.763.004-1.526.008-2.29-.006l.001-.344zM16.198 12.349c.763-.01 1.526-.01 2.29 0l-.004.361c-.761.005-1.523.005-2.285 0l-.001-.361z"/>
    <path fill="#2a2d2f" d="M15.865 1.565c.265.109.532.22.796.334-1.795 3.103-3.575 6.217-5.387 9.312a62.11 62.11 0 0 0-1.746 3.01c-1.295 2.304-2.628 4.588-3.96 6.871-.224-.182-.448-.364-.672-.544C8.558 14.223 12.205 7.89 15.865 1.565zM11.491 11.94c1.859-3.286 3.764-6.545 5.653-9.812.247.14.493.282.739.425-3.704 6.422-7.411 12.844-11.12 19.265-.246-.146-.493-.29-.738-.438 1.253-2.162 2.483-4.338 3.76-6.487a69.12 69.12 0 0 0 1.706-2.952zM14.761 9.05c1.169-2.081 2.374-4.141 3.574-6.204l.679.518a590.015 590.015 0 0 1-3.216 5.562c-.072.124-.143.248-.212.373-.522.935-1.073 1.852-1.589 2.79a8.902 8.902 0 0 0-.767 1.271c-1.703 3.028-3.467 6.02-5.196 9.032-.265-.109-.53-.22-.794-.332 1.938-3.373 3.88-6.745 5.837-10.108a55.873 55.873 0 0 0 1.685-2.903z"/>
    <path fill="#8f9695" d="M4.064 9.096c1.992-.342 4.034-.287 6.034-.017.194.547.745 1.133.336 1.706a13.334 13.334 0 0 1-.616-1.267c-1.83-.247-3.716-.344-5.528.047-.251.394-.389.845-.564 1.274 2.2-.014 4.399-.004 6.6.028-.472.948-1.043 1.842-1.564 2.762-1.435.018-2.87.013-4.304 0-.013.456-.025.912-.04 1.368-.361.012-.724.016-1.086.014-.078-.504.154-1.132-.246-1.531-.623-.545-.352-1.463-.35-2.189.745-.533.826-1.5 1.328-2.196zm-.946 2.366c-.025.436-.023.872.01 1.307.39-.224.406-1.111-.01-1.307zm2.787.898l-.001.344c.763.014 1.526.01 2.29.006 0-.09.002-.271.004-.361-.764-.008-1.529-.017-2.292.011zM15.586 9.3c.07-.125.14-.25.212-.373a17.97 17.97 0 0 1 4.522.168c.546.628.53 1.7 1.355 2.135.016.538.043 1.076.014 1.614-.008.403-.472.59-.574.956-.052.403-.036.811-.068 1.217l-1.049-.001a17.393 17.393 0 0 1-.049-1.369 411.752 411.752 0 0 0-5.213 0c-.001.457-.01.916-.052 1.372l-1.046-.002a19.074 19.074 0 0 1-.052-1.331l-.356-.324c.224-.442.472-.872.767-1.271.346-.376.614-.811.858-1.256 1.939-.013 3.878.024 5.816.022a17.374 17.374 0 0 0-.553-1.332c-1.5-.259-3.019-.199-4.532-.223zm5.464 2.176c.025.437-.179.983.193 1.319.008-.416.295-1.098-.193-1.319zm-4.852.873l.001.361c.762.005 1.524.005 2.285 0 .001-.091.002-.271.004-.361-.763-.01-1.526-.01-2.29 0zM9.528 14.22a62.592 62.592 0 0 1 1.746-3.01c.077.241.148.485.217.73a69.12 69.12 0 0 1-1.706 2.952 25.848 25.848 0 0 0-.257-.672z"/>
    <path fill="#919897" d="M14.315 9.06c.149-.002.298-.006.446-.01a55.164 55.164 0 0 1-1.685 2.903c-.044-.271-.208-.631.085-.818.674-.497.744-1.394 1.153-2.075z"/>
    <path fill="#777a78" opacity=".75" d="M0 10.494l.101.227c.004.833.011 1.666-.01 2.498L0 13.427v-2.933z"/>
    <path fill="#767877" opacity=".74" d="M23.908 10.78l.092-.208v2.927l-.103-.218c-.001-.834-.006-1.667.011-2.501z"/>
    <path fill="#f2f6f1" d="M3.118 11.462c.415.196.4 1.082.01 1.307a9.999 9.999 0 0 1-.01-1.307z"/>
    <path fill="#727472" opacity=".74" d="M10.722 23.898c.838-.004 1.675-.007 2.513.007l.214.095h-2.951l.224-.102z"/>
</svg>
