<!-- Generated by IcoMoon.io -->
<svg version="1.1" xmlns="http://www.w3.org/2000/svg" width="24" height="24" viewBox="0 0 24 24">
<title>regulatory--circular-intersection--g3</title>
<path fill="#050505" opacity="0.93" d="M1.286 0h21.406c0.394 0.112 0.754 0.337 0.96 0.698-0.404-0.257-0.821-0.563-1.326-0.535-6.883-0.005-13.768-0.005-20.652 0.001-0.832-0.061-1.571 0.678-1.508 1.51-0.002 6.884-0.002 13.768 0 20.652-0.030 0.491 0.254 0.904 0.522 1.286-0.061-0.013-0.185-0.038-0.246-0.050-0.16-0.277-0.314-0.558-0.442-0.852v-21.409c0.167-0.632 0.659-1.124 1.286-1.301z"></path>
<path fill="#fff" d="M0.166 1.674c-0.062-0.832 0.677-1.571 1.508-1.51 6.884-0.006 13.769-0.006 20.652-0.001 0.505-0.028 0.922 0.278 1.326 0.535 0.084 0.401 0.191 0.802 0.181 1.214-0.007 6.804 0.002 13.608-0.004 20.412 0.059 0.828-0.677 1.561-1.504 1.505-6.402 0.002-12.804 0-19.206 0.001-0.815-0.011-1.656 0.091-2.432-0.218-0.268-0.383-0.552-0.796-0.522-1.286-0.002-6.884-0.002-13.768 0-20.652M1.357 0.53c-0.53 0.086-0.898 0.614-0.857 1.141-0.001 6.886-0.001 13.772 0 20.658-0.056 0.643 0.528 1.225 1.171 1.166 6.886 0 13.772 0 20.658 0 0.642 0.056 1.219-0.527 1.165-1.166-0.001-6.924 0.008-13.849-0.005-20.773 0.016-0.667-0.652-1.138-1.282-1.061-6.949 0.025-13.904-0.046-20.851 0.035z"></path>
<path fill="#fff" d="M1.081 1.668c-0.050-0.342 0.248-0.635 0.588-0.592 6.887-0.007 13.775-0.008 20.662 0.001 0.338-0.043 0.631 0.251 0.586 0.589 0.001 6.888 0.002 13.778-0.001 20.666 0.047 0.337-0.247 0.629-0.583 0.578-3.197 0.002-6.394 0-9.589 0 0-3.64 0-7.279-0.001-10.919-0.192-0.001-0.385-0.001-0.577-0.001-0.001 3.641 0 7.28-0.001 10.92-3.498 0-6.997 0.001-10.495 0-0.337 0.052-0.637-0.239-0.587-0.578-0.004-6.889-0.004-13.777 0-20.665M5.99 4.567c0.1 0.568 0.782 0.082 1.127 0.031 0.016 1.039-0.036 2.080 0.042 3.116-0.853-0.392-1.794-0.528-2.725-0.521 0.074-0.382 0.463-0.884 0.030-1.171-0.934 0.572-1.814 1.226-2.722 1.838 0.916 0.602 1.788 1.271 2.724 1.843 0.431-0.299 0.035-0.803-0.035-1.19 1.717-0.109 3.473 0.826 4.222 2.396 0.781 1.517 0.498 3.431-0.576 4.734-1.088 1.478-0.989 3.377-0.96 5.116 0.442 0 0.883 0 1.324 0 0.047-1.142-0.15-2.33 0.253-3.428 0.282-0.85 0.962-1.483 1.283-2.315 0.818-1.867 0.48-4.142-0.79-5.726-1.043-1.346-0.685-3.119-0.746-4.693 0.323 0.102 0.644 0.205 0.971 0.293 0.056-0.15 0.236-0.314 0.086-0.468-0.556-0.85-1.15-1.676-1.718-2.519-0.588 0.893-1.25 1.741-1.789 2.664M18.883 10.37c-0.362 0.378 0.294 0.725 0.475 1.032-1.559 0.497-2.92 1.728-3.271 3.367-0.238 1.18-0.077 2.395-0.124 3.59 0.442 0 0.882 0 1.324 0 0.047-1.118-0.109-2.255 0.109-3.359 0.277-1.216 1.354-2.015 2.483-2.389 0.035 0.323 0.071 0.647 0.115 0.97 0.077 0.031 0.23 0.092 0.307 0.124 0.654-0.886 1.192-1.85 1.787-2.777-1.072-0.152-2.129-0.488-3.205-0.558M4.48 11.207c-0.802 0.136-1.406 0.936-1.322 1.744 0.044 0.833 0.806 1.546 1.643 1.52 0.878 0.029 1.664-0.76 1.649-1.634 0.048-1.012-0.986-1.859-1.969-1.63M14.327 19.248c-0.865 0.226-0.871 1.406-0.646 2.104 0.168 0.773 1.394 0.835 1.609 0.061 0.328-0.77 0.176-2.33-0.964-2.165M15.844 19.274c0 0.882 0 1.764 0.001 2.646 0.103 0 0.312-0.001 0.416-0.001 0.001-0.596 0-1.192 0.001-1.788 0.486 0.569 0.575 1.669 1.381 1.823 0.006-0.894 0.001-1.788 0.002-2.682-0.104 0-0.313 0-0.418 0-0.001 0.564 0 1.128-0.001 1.692-0.326-0.565-0.643-1.135-0.974-1.698-0.102 0.002-0.307 0.007-0.409 0.008M18.091 19.278c-0.001 0.882-0.001 1.764 0 2.647 0.547 0 1.096 0 1.643-0.001-0.001-0.097-0.002-0.292-0.004-0.389-0.408-0.001-0.815 0-1.222 0-0.001-0.752 0-1.505-0.001-2.257-0.104 0-0.312 0-0.416 0M19.844 19.268c0.521 0.812 1.169 1.618 0.934 2.652 0.139 0 0.28 0 0.42 0-0.233-1.030 0.403-1.837 0.92-2.648-0.164 0-0.329 0-0.493 0.001-0.214 0.34-0.428 0.68-0.643 1.020-0.21-0.336-0.42-0.673-0.623-1.014-0.172-0.004-0.343-0.007-0.515-0.011z"></path>
<path fill="#fff" d="M14.312 19.7c0.996-0.245 0.967 2.062-0.018 1.796-0.438-0.445-0.438-1.367 0.018-1.796z"></path>
<path fill="#000" d="M1.357 0.53c6.947-0.080 13.902-0.010 20.851-0.035 0.63-0.077 1.297 0.394 1.282 1.061 0.013 6.924 0.004 13.849 0.005 20.773 0.054 0.64-0.523 1.223-1.165 1.166-6.886 0-13.772 0-20.658 0-0.643 0.059-1.228-0.523-1.171-1.166-0.001-6.886-0.001-13.772 0-20.658-0.041-0.527 0.326-1.055 0.857-1.141M1.081 1.668c-0.004 6.888-0.004 13.776 0 20.665-0.050 0.34 0.25 0.63 0.587 0.578 3.498 0.001 6.997 0 10.495 0 0.001-3.64 0-7.279 0.001-10.92 0.192 0 0.385 0 0.577 0.001 0.001 3.64 0.001 7.279 0.001 10.919 3.196 0 6.392 0.002 9.589 0 0.336 0.050 0.63-0.241 0.583-0.578 0.004-6.888 0.002-13.778 0.001-20.666 0.046-0.338-0.247-0.632-0.586-0.589-6.887-0.010-13.775-0.008-20.662-0.001-0.34-0.043-0.638 0.25-0.588 0.592z"></path>
<path fill="#000" d="M5.99 4.567c0.539-0.923 1.201-1.771 1.789-2.664 0.569 0.842 1.163 1.669 1.718 2.519 0.15 0.154-0.030 0.318-0.086 0.468-0.326-0.088-0.648-0.191-0.971-0.293 0.061 1.574-0.296 3.347 0.746 4.693 1.27 1.584 1.608 3.859 0.79 5.726-0.32 0.832-1.001 1.465-1.283 2.315-0.403 1.098-0.206 2.286-0.253 3.428-0.44 0-0.882 0-1.324 0-0.029-1.739-0.128-3.637 0.96-5.116 1.074-1.303 1.357-3.217 0.576-4.734-0.749-1.571-2.504-2.506-4.222-2.396 0.070 0.388 0.466 0.892 0.035 1.19-0.936-0.572-1.808-1.241-2.724-1.843 0.907-0.612 1.788-1.266 2.722-1.838 0.433 0.287 0.044 0.79-0.030 1.171 0.931-0.007 1.872 0.128 2.725 0.521-0.078-1.037-0.026-2.077-0.042-3.116-0.344 0.050-1.027 0.536-1.127-0.031z"></path>
<path fill="#000" d="M18.883 10.37c1.076 0.070 2.134 0.406 3.205 0.558-0.595 0.926-1.133 1.891-1.787 2.777-0.077-0.031-0.23-0.092-0.307-0.124-0.044-0.323-0.080-0.647-0.115-0.97-1.129 0.374-2.206 1.174-2.483 2.389-0.218 1.104-0.062 2.24-0.109 3.359-0.442 0-0.882 0-1.324 0 0.047-1.195-0.114-2.411 0.124-3.59 0.352-1.639 1.712-2.87 3.271-3.367-0.181-0.307-0.838-0.654-0.475-1.032z"></path>
<path fill="#000" d="M4.48 11.207c0.983-0.229 2.017 0.618 1.969 1.63 0.016 0.875-0.77 1.663-1.649 1.634-0.836 0.025-1.598-0.688-1.643-1.52-0.084-0.808 0.521-1.608 1.322-1.744z"></path>
<path fill="#000" d="M14.327 19.248c1.14-0.166 1.291 1.394 0.964 2.165-0.215 0.774-1.441 0.712-1.609-0.061-0.226-0.697-0.22-1.878 0.646-2.104M14.312 19.7c-0.456 0.43-0.456 1.351-0.018 1.796 0.985 0.265 1.014-2.041 0.018-1.796z"></path>
<path fill="#000" d="M15.844 19.274c0.102-0.001 0.307-0.006 0.409-0.008 0.331 0.563 0.648 1.133 0.974 1.698 0.001-0.564 0-1.128 0.001-1.692 0.104 0 0.313 0 0.418 0-0.001 0.894 0.004 1.788-0.002 2.682-0.806-0.154-0.895-1.254-1.381-1.823-0.001 0.596 0 1.192-0.001 1.788-0.104 0-0.313 0.001-0.416 0.001-0.001-0.882-0.001-1.764-0.001-2.646z"></path>
<path fill="#000" d="M18.091 19.278c0.104 0 0.312 0 0.416 0 0.001 0.752 0 1.505 0.001 2.257 0.407 0 0.814-0.001 1.222 0 0.001 0.097 0.002 0.292 0.004 0.389-0.547 0.001-1.096 0.001-1.643 0.001-0.001-0.883-0.001-1.765 0-2.647z"></path>
<path fill="#000" d="M19.844 19.268c0.172 0.004 0.343 0.007 0.515 0.011 0.203 0.341 0.413 0.678 0.623 1.014 0.215-0.34 0.43-0.68 0.643-1.020 0.164-0.001 0.329-0.001 0.493-0.001-0.517 0.811-1.153 1.619-0.92 2.648-0.14 0-0.281 0-0.42 0 0.235-1.034-0.413-1.84-0.934-2.652z"></path>
<path fill="#080808" opacity="0.9" d="M23.652 0.698c0.12 0.185 0.239 0.371 0.348 0.563v21.425c-0.168 0.634-0.659 1.128-1.285 1.314h-21.443c-0.208-0.11-0.402-0.241-0.584-0.388 0.776 0.31 1.618 0.208 2.432 0.218 6.402-0.001 12.804 0.001 19.206-0.001 0.827 0.056 1.562-0.677 1.504-1.505 0.006-6.804-0.004-13.608 0.004-20.412 0.010-0.413-0.097-0.814-0.181-1.214z"></path>
</svg>
