<svg xmlns="http://www.w3.org/2000/svg" width="24" height="24">
    <path fill="#037863" d="M10.615 0h2.743c1.036.221 2.09.406 3.073.819 4.087 1.561 7.003 5.499 7.568 9.807v2.732c-.6 4.786-4.179 9.13-8.921 10.265-.201-.123-.459-.086-.593.114l-.048.011c-2.897.389-5.956.004-8.473-1.554C2.382 20.085.029 16.028.078 11.862a6.116 6.116 0 0 0-.079-1.411v-.063C.676 6.181 3.548 2.355 7.566.82 8.541.409 9.588.228 10.614.001zM6.228 3.612C2.384 6.269.914 11.731 2.896 15.964c.356.728.716 1.495 1.288 2.077.33.501.76.923 1.21 1.314.124.149.28.266.43.386.541.414 1.108.794 1.717 1.099.143.062.286.124.428.188 2.577 1.246 5.683 1.185 8.291.058l.001-.083c.168-.054.337-.109.505-.168.588-.332 1.168-.683 1.692-1.112v-.103c.148-.091.295-.183.443-.276a8.835 8.835 0 0 0 1.167-1.255c.451-.668.926-1.33 1.217-2.087l.086-.001c1.421-3.172 1.119-7.074-.914-9.914-.455-.524-.899-1.058-1.357-1.578C15.766 1.16 10.005.79 6.23 3.612z"/>
    <path fill="#fff" d="M6.228 3.612c3.775-2.822 9.537-2.452 12.87.897-1.142 1.538-2.25 3.099-3.379 4.647-.521-.283-1.037-.574-1.556-.859-.648.643-1.297 1.283-1.935 1.934-.687-.658-1.359-1.332-2.04-1.994-1.103.599-2.2 1.212-3.301 1.817-.862.45-1.497 1.361-1.486 2.35-.01 1.186.007 2.372-.003 3.559-.834.003-1.669 0-2.503.003-1.982-4.233-.512-9.695 3.332-12.352zm5.121-1.216c-2.252.535-3.07 3.713-1.357 5.268 1.586 1.738 4.825.839 5.284-1.47.673-2.241-1.709-4.539-3.927-3.797z"/>
    <path fill="#fff" d="M11.634 2.818c1.434-.361 3.01.695 3.222 2.157.288 1.446-.834 2.959-2.297 3.113-1.455.229-2.921-.96-3.01-2.426-.143-1.298.81-2.583 2.084-2.844zM20.455 6.087c2.033 2.84 2.335 6.742.914 9.914l-.086.001c-.792.008-1.583.007-2.375.003-.017-1.247.028-2.494-.019-3.739-.037-.903-.641-1.661-1.379-2.13a1160.08 1160.08 0 0 0 2.945-4.05zM7.006 10.462a294.564 294.564 0 0 1 3.087-1.655c.71.67 1.406 1.353 2.101 2.037.699-.657 1.382-1.328 2.073-1.992.403.211.801.433 1.197.657-1.247 1.748-2.534 3.468-3.785 5.211-.312.364-.212.847-.069 1.258l-.394.048c.011.68.007 1.36.006 2.04.829-.074 1.742.208 2.502-.214.785.414 1.698.177 2.543.234-.001.972.007 1.945-.006 2.917l-.001.083c-2.608 1.127-5.714 1.188-8.291-.058.018-.999.004-1.997.011-2.994.989.036 1.981-.079 2.968.026.008-.698.007-1.396.001-2.094-.981.154-1.967-.094-2.954-.001-.007-1.274 0-2.548-.006-3.822-.112.001-.335.001-.448.003-.004 2.898-.003 5.797 0 8.695a10.788 10.788 0 0 1-1.717-1.099c.014-2.446 0-4.892.006-7.338-.026-.808.469-1.571 1.177-1.942z"/>
    <path fill="#fff" d="M0 10.451c.086.466.102.938.079 1.411-.05 4.167 2.303 8.223 5.886 10.332 2.517 1.559 5.577 1.943 8.473 1.554-.348.088-.698.161-1.044.251h-2.728c-4.622-.563-8.792-3.902-10.139-8.39-.243-.735-.346-1.506-.526-2.258V10.45zM13.193 15.948c1.418-1.763 2.677-3.651 4.04-5.458.692.388 1.228 1.095 1.218 1.914.017 2.406 0 4.811.007 7.217v.103c-.524.429-1.105.779-1.692 1.112-.001-2.894.004-5.789-.003-8.684l-.481.003c-.004 1.281.001 2.564-.003 3.846-.846.054-1.745-.163-2.542.207a37.94 37.94 0 0 0-.543-.259z"/>
    <path fill="#fff" d="M4.183 18.041c.403.008.804.004 1.207.003-.001.437-.01.874.003 1.312-.45-.392-.88-.814-1.21-1.314zM18.899 18.087c.39.001.779 0 1.168.003a8.777 8.777 0 0 1-1.167 1.255c-.003-.419-.001-.839-.001-1.258z"/>
    <path fill="#030303" d="M11.349 2.396c2.218-.742 4.6 1.556 3.927 3.797-.459 2.309-3.698 3.208-5.284 1.47-1.713-1.554-.895-4.732 1.357-5.268zm.285.422c-1.274.261-2.228 1.546-2.084 2.844.088 1.466 1.554 2.655 3.01 2.426 1.462-.154 2.585-1.668 2.297-3.113-.212-1.462-1.788-2.519-3.222-2.157z"/>
    <path fill="#030303" d="M19.098 4.509c.458.52.902 1.054 1.357 1.578a1160.08 1160.08 0 0 1-2.945 4.05c.738.469 1.342 1.226 1.379 2.13.047 1.246.003 2.492.019 3.739.792.004 1.583.006 2.375-.003-.291.757-.766 1.419-1.217 2.087-.389-.003-.778-.001-1.168-.003 0 .419-.001.839.001 1.258-.148.092-.295.185-.443.276-.007-2.406.01-4.811-.007-7.217.01-.819-.526-1.527-1.218-1.914-1.363 1.807-2.622 3.695-4.04 5.458.181.084.363.171.543.259.797-.37 1.697-.153 2.542-.207.004-1.281-.001-2.564.003-3.846.12 0 .361-.001.481-.003.007 2.895.001 5.79.003 8.684-.168.059-.337.114-.505.168.012-.972.004-1.945.006-2.917-.846-.058-1.759.179-2.543-.234-.76.422-1.673.139-2.502.214.001-.68.006-1.36-.006-2.04l.394-.048c-.143-.411-.243-.894.069-1.258 1.251-1.743 2.538-3.463 3.785-5.211a44.753 44.753 0 0 0-1.197-.657c-.691.663-1.374 1.335-2.073 1.992-.695-.684-1.39-1.367-2.101-2.037a337.4 337.4 0 0 0-3.087 1.655c-.708.371-1.203 1.134-1.177 1.942-.006 2.446.008 4.892-.006 7.338-.15-.12-.306-.237-.43-.386-.012-.437-.004-.874-.003-1.312-.403.001-.804.006-1.207-.003-.572-.582-.932-1.349-1.288-2.077.834-.003 1.669 0 2.503-.003.01-1.186-.007-2.372.003-3.559-.011-.989.623-1.901 1.486-2.35 1.101-.604 2.197-1.218 3.301-1.817.681.662 1.353 1.337 2.04 1.994.639-.651 1.287-1.291 1.935-1.934.519.286 1.034.577 1.556.859 1.13-1.548 2.237-3.109 3.379-4.647z"/>
    <path fill="#030303" d="M7.541 12.146c.113-.001.337-.001.448-.003.006 1.274-.001 2.548.006 3.822.988-.092 1.974.156 2.954.001.006.698.007 1.396-.001 2.094-.988-.105-1.979.01-2.968-.026-.007.997.007 1.996-.011 2.994-.142-.063-.284-.126-.428-.188-.003-2.898-.004-5.797 0-8.695z"/>
    <path fill="#aabfbb" opacity=".84" d="M14.486 23.738c.134-.2.392-.237.593-.114a.7.7 0 0 1-.593.114z"/>
</svg>
