<svg xmlns="http://www.w3.org/2000/svg" width="24" height="24">
    <path fill="#0084e7" opacity=".91" d="M0 0h.804L.668.08C.424.226.218.43.076.679l-.077.148V0zM23.076 0H24v.805l-.079-.134c-.163-.268-.388-.512-.694-.611L23.076 0zM0 23.2l.079.132c.162.271.396.504.701.607L.924 24H0v-.8zM23.92 23.318l.08-.152V24h-.8l.138-.085c.24-.148.444-.349.582-.596z"/>
    <path fill="#dbecfa" opacity=".98" d="M.804 0h22.272l.151.06c-.422.031-.844.071-1.267.064C14.863.083 7.764.171.668.081l.136-.08z"/>
    <path fill="#fff" d="M.077.679C.219.431.425.227.669.08c7.096.09 14.195.002 21.292.043.424.007.845-.032 1.267-.064.306.098.53.343.694.611-.064 7.547-.061 15.101-.001 22.648a1.646 1.646 0 0 1-.582.596c-7.057-.082-14.118-.004-21.178-.038-.461-.008-.92.029-1.38.062-.305-.103-.539-.336-.701-.607.042-.456.065-.913.059-1.372C.099 14.866.145 7.771.078.678zm.48.521C.565 8.484.546 15.774.569 23.054a.61.61 0 0 0 .382.376c7.279.029 14.567-.001 21.848.012a.574.574 0 0 0 .666-.641c-.01-7.286.02-14.581-.011-21.863a.653.653 0 0 0-.389-.376C15.781.515 8.487.557 1.2.544a.575.575 0 0 0-.643.655z"/>
    <path fill="#fff" d="M4.268 3.769c.044-.248.313-.292.522-.281h13.834l-.372.373c-.373.004-.748.005-1.121.01-.007.368-.006.737.002 1.105-.182.182-.364.367-.546.551.013-.553.014-1.105.001-1.657-.973-.006-1.946-.007-2.92.001-.012.766-.01 1.531-.001 2.297.762.011 1.524.016 2.285-.006-1.114 1.109-2.221 2.222-3.335 3.331-1.391 0-2.782.013-4.172-.006-.092-.636-.452-1.298-1.126-1.453-.955-.312-1.985.446-2.01 1.446-.634.029-1.268.023-1.903.005-.204-1.961.386-3.841.862-5.716zm.354.103c-.242 1.014-.478 2.029-.732 3.04.78.053 1.562.013 2.342.023.13-1.022.242-2.046.356-3.07-.655-.001-1.312-.01-1.967.007zm2.502-.004c-.092.762-.178 1.525-.269 2.287.932.03 1.866.004 2.8.017.037-.768.01-1.536.017-2.303-.85-.008-1.698-.007-2.548-.001zm3.081-.002c-.01.768-.006 1.536-.002 2.304.974.007 1.95.007 2.926 0 .005-.769.016-1.537-.006-2.305-.973.004-1.945 0-2.917.001zM20.154 5.734l.559-.566c-.031 1.277 0 2.555-.013 3.832.012.197-.056.48-.301.48-.785.043-1.573.013-2.359.01-.085-.414-.234-.815-.496-1.15.71-.712 1.421-1.424 2.135-2.132l.43-.053.046-.42z"/>
    <path fill="#fff" d="M6.403 8.455c.714-.344 1.668.206 1.621 1.027.065.877-1 1.465-1.732 1.022-.768-.424-.73-1.727.11-2.05zM15.577 10.306a550.73 550.73 0 0 1 1.709-1.709c.418.51.491 1.343-.055 1.789-.484.414-1.186.289-1.654-.08zM5.106 14.68c.779-.017 1.558.005 2.336-.013-.294.296-.592.589-.892.881-.478-.089-.965-.08-1.448-.082l.004-.786zM9.998 15.886c.408-.42.822-.834 1.237-1.246.481 1.778.949 3.56 1.417 5.344l-.768.016c-.101-.299-.193-.6-.282-.902a27.843 27.843 0 0 0-1.609-.001c-.089.302-.181.604-.282.904a66.597 66.597 0 0 0-.774-.014c.341-1.369.752-2.722 1.061-4.099zm.224 2.391c.384.018.768.017 1.152-.002-.204-.592-.293-1.29-.571-1.813-.286.467-.373 1.231-.581 1.816zM13.46 14.671c.301-.002.602-.001.902.005.241.499.449 1.013.703 1.505.226-.504.446-1.009.686-1.507.3-.004.599-.004.898.005-.374.836-.766 1.666-1.136 2.504.413.938.853 1.866 1.27 2.803-.299.007-.596.008-.894.006-.287-.59-.542-1.195-.822-1.788-.32.576-.547 1.196-.841 1.786-.298.004-.596.005-.894.004.408-.943.856-1.868 1.267-2.809-.37-.842-.768-1.672-1.139-2.513zM18.043 14.677c.264-.005.527-.006.791-.006.011 1.776.013 3.553-.001 5.33-.263-.001-.526-.004-.788-.006-.005-1.774-.004-3.546-.001-5.318zM6.442 19.43c.259-.26.521-.517.782-.775.018.45.014.901-.001 1.351a11.183 11.183 0 0 1-.798-.036l.017-.54z"/>
    <path fill="#0091ff" d="M.557 1.2A.575.575 0 0 1 1.2.545C8.488.558 15.781.516 23.065.563c-.51.03-1.063-.101-1.546.061-.995.923-1.924 1.918-2.896 2.864H4.789c-.209-.011-.478.032-.522.281-.475 1.874-1.066 3.755-.862 5.716.635.018 1.27.024 1.903-.005.025-1 1.055-1.758 2.01-1.446.673.155 1.033.817 1.126 1.453 1.391.019 2.782.006 4.172.006-1.723 1.727-3.45 3.449-5.176 5.173-.779.018-1.558-.004-2.336.013l-.004.786c.484.001.971-.007 1.448.082a1225.717 1225.717 0 0 1-5.7 5.702c-.526.444-.223 1.21-.282 1.805C.543 15.774.562 8.484.554 1.2zm5.846 7.255c-.84.323-.878 1.626-.11 2.05.732.443 1.796-.145 1.732-1.022.047-.821-.907-1.372-1.621-1.027zM23.454.938c.031 7.282.001 14.576.011 21.863a.575.575 0 0 1-.666.641c-7.282-.013-14.569.017-21.848-.012.592-.06 1.356.242 1.789-.292 1.222-1.247 2.471-2.47 3.702-3.708l-.017.54c.265.023.532.032.798.036a17.9 17.9 0 0 0 .001-1.351 278.64 278.64 0 0 1 2.774-2.77c-.308 1.378-.72 2.73-1.061 4.099.258.004.516.008.774.014.101-.3.193-.601.282-.904a29.763 29.763 0 0 1 1.609.001c.089.302.181.604.282.902l.768-.016a749.673 749.673 0 0 0-1.417-5.344c1.445-1.448 2.893-2.892 4.342-4.334.468.37 1.17.494 1.654.08.546-.446.473-1.279.055-1.789l.258-.258c.262.335.41.736.496 1.15.786.004 1.574.034 2.359-.01.245 0 .313-.283.301-.48.013-1.277-.018-2.555.013-3.832.916-.919 1.843-1.825 2.747-2.754.005-.492.014-.984-.006-1.475zM13.46 14.671c.371.841.769 1.67 1.139 2.513-.412.941-.859 1.866-1.267 2.809.298.001.596 0 .894-.004.294-.589.521-1.21.841-1.786.28.593.535 1.198.822 1.788.298.002.595.001.894-.006-.416-.937-.857-1.865-1.27-2.803.371-.839.762-1.668 1.136-2.504a24.427 24.427 0 0 0-.898-.005c-.24.498-.461 1.003-.686 1.507-.254-.492-.462-1.006-.703-1.505a33.88 33.88 0 0 0-.902-.005zm4.583.006c-.002 1.772-.004 3.545.001 5.318l.788.006c.014-1.777.012-3.554.001-5.33-.264 0-.527.001-.791.006z"/>
    <path fill="#0091ff" d="M4.622 3.872c.655-.017 1.312-.008 1.967-.007-.114 1.024-.227 2.047-.356 3.07-.78-.01-1.562.03-2.342-.023.254-1.01.49-2.026.732-3.04zM7.124 3.868c.85-.006 1.698-.007 2.548.001-.007.767.02 1.535-.017 2.303-.934-.013-1.867.013-2.8-.017.091-.762.176-1.525.269-2.287zM10.205 3.866c.972-.001 1.944.002 2.917-.001.022.768.011 1.536.006 2.305-.976.007-1.951.007-2.926 0-.004-.768-.007-1.536.002-2.304zM13.669 3.871c.973-.008 1.946-.007 2.92-.001.013.552.012 1.104-.001 1.657l-.635.635c-.761.022-1.523.017-2.285.006a87.94 87.94 0 0 1 .001-2.297zM17.131 3.871c.373-.005.748-.006 1.121-.01-.371.373-.744.744-1.118 1.115-.008-.368-.01-.737-.002-1.105zM19.679 6.206c.158-.157.317-.314.475-.473l-.046.42-.43.053zM10.222 18.277c.208-.584.295-1.349.581-1.816.278.523.367 1.222.571 1.813-.384.019-.768.02-1.152.002z"/>
    <path fill="#ff163c" d="M21.52.624c.482-.162 1.036-.031 1.546-.061.18.058.316.204.389.376.02.491.011.983.006 1.475-.904.929-1.831 1.835-2.747 2.754l-.559.566-.475.473c-.714.708-1.424 1.421-2.135 2.132l-.258.258a550.73 550.73 0 0 0-1.709 1.709 1970.732 1970.732 0 0 0-4.342 4.334c-.415.412-.829.826-1.237 1.246-.934.914-1.854 1.842-2.774 2.77-.262.258-.523.515-.782.775-1.231 1.238-2.48 2.461-3.702 3.708-.433.534-1.198.232-1.789.292a.614.614 0 0 1-.382-.376c.059-.595-.244-1.361.282-1.805 1.904-1.896 3.808-3.793 5.7-5.702.3-.292.598-.584.892-.881 1.726-1.724 3.452-3.446 5.176-5.173 1.114-1.109 2.221-2.222 3.335-3.331l.635-.635.546-.551c.374-.371.748-.742 1.118-1.115l.372-.373c.972-.947 1.901-1.942 2.896-2.864z"/>
    <path fill="#deeffc" d="M0 .827L.077.679C.144 7.772.099 14.867.138 21.96c.006.458-.017.916-.059 1.372L0 23.2V.827z"/>
    <path fill="#d4eafb" d="M23.921.671L24 .805v22.361l-.08.152c-.06-7.547-.062-15.101.001-22.648z"/>
    <path fill="#cbe4f7" opacity=".97" d="M.78 23.939c.46-.034.919-.071 1.38-.062 7.06.035 14.12-.043 21.178.038L23.2 24H.924l-.144-.061z"/>
</svg>
