<?xml version="1.0" encoding="utf-8"?>
<!-- Generated by IcoMoon.io -->
<!DOCTYPE svg PUBLIC "-//W3C//DTD SVG 1.1//EN" "http://www.w3.org/Graphics/SVG/1.1/DTD/svg11.dtd">
<svg version="1.1" xmlns="http://www.w3.org/2000/svg" xmlns:xlink="http://www.w3.org/1999/xlink" width="24" height="24" viewBox="0 0 24 24">
<path fill="#c0111e" d="M11.222 0h1.444c2.92 0.19 5.772 1.417 7.83 3.51 2.131 2.111 3.385 5.047 3.504 8.039v0.898c-0.124 3.108-1.478 6.151-3.755 8.279-2.034 1.946-4.772 3.084-7.572 3.275h-1.342c-2.886-0.192-5.707-1.398-7.759-3.45-2.196-2.14-3.49-5.152-3.572-8.214v-0.665c0.080-3.665 1.943-7.242 4.927-9.378 1.82-1.358 4.044-2.094 6.295-2.293M10.638 2.378c-2.695 0.364-5.2 1.922-6.703 4.192-1.376 2.022-1.918 4.577-1.524 6.988 0.349 2.226 1.511 4.313 3.218 5.782 1.562 1.361 3.571 2.204 5.64 2.344 2.186 0.174 4.424-0.424 6.228-1.672 1.788-1.216 3.143-3.052 3.778-5.117 0.677-2.174 0.566-4.588-0.324-6.685-0.661-1.568-1.74-2.958-3.104-3.978-2.028-1.547-4.687-2.207-7.208-1.853z"></path>
<path fill="#c0111e" d="M6.485 15.563c0.102-0.157 0.124-0.347 0.176-0.523 0.012 0.192-0.060 0.484 0.179 0.564 0.422 0.054 0.852 0.007 1.277 0.001 0.358-0.134 0.786-0.132 1.145-0.005 0.367 0.022 0.736 0.019 1.103 0.041-0.481 0.149-0.996 0.046-1.49 0.054-0.839 0.010-1.678 0.036-2.516 0-0.67-0.031-1.351 0.094-2.014-0.038l0.020-0.002c0.36-0.050 0.726-0.020 1.087-0.070 0.336-0.101 0.69-0.070 1.033-0.022z"></path>
<path fill="#fff" d="M10.638 2.378c2.521-0.354 5.18 0.306 7.208 1.853 1.364 1.020 2.443 2.41 3.104 3.978 0.89 2.098 1.001 4.511 0.324 6.685-0.635 2.065-1.99 3.901-3.778 5.117-1.804 1.248-4.042 1.846-6.228 1.672-2.069-0.139-4.078-0.983-5.64-2.344-1.708-1.469-2.869-3.556-3.218-5.782-0.394-2.411 0.148-4.966 1.524-6.988 1.504-2.269 4.008-3.828 6.703-4.192M12.127 6.874c-0.024 2.345 0.004 4.688-0.013 7.033-0.41 0.268-0.238 0.808-0.25 1.219 0.128 0.256 0.488 0.305 0.725 0.45 0.001 0.409-0.032 0.822 0.017 1.229 0.070 0.138 0.181 0.307 0.355 0.302 0.366 0.013 0.732 0.011 1.098 0.001 0.179 0.022 0.293-0.156 0.343-0.302 0.108-0.366-0.028-0.764 0.086-1.126 0.226 0.046 0.354 0.263 0.56 0.348 0.733 0.338 1.642 0.197 2.232-0.354 0.26 0.38-0.126 1.068 0.325 1.411 0.456 0.041 0.93 0.060 1.382-0.008 0.449-0.364 0.16-1.025 0.251-1.519 0.241-0.102 0.476-0.217 0.71-0.336-0.029-0.44 0.184-1.018-0.247-1.315-0.016-2.344 0.008-4.687-0.012-7.031-2.521 0.005-5.042 0.010-7.564-0.002M5.292 12.485c-0.655 0.733-1.055 1.674-1.229 2.634-0.089 0.444 0.085 0.875 0.072 1.318 0.012 0.154-0.018 0.326 0.079 0.46 0.178 0.275 0.569 0.257 0.844 0.173 0.356-0.151 0.275-0.589 0.289-0.896 1.338 0.054 2.678 0.053 4.016 0 0.026 0.294-0.077 0.708 0.242 0.876 0.245 0.104 0.568 0.109 0.797-0.038 0.28-0.265 0.12-0.684 0.203-1.018 0.092-0.384 0.078-0.786-0.012-1.169-0.226-0.86-0.586-1.709-1.202-2.364-0.283-0.312-0.734-0.253-1.114-0.272-0.757-0.002-1.513-0.016-2.269 0.013-0.264-0.002-0.539 0.080-0.716 0.284z"></path>
<path fill="#fff" d="M5.513 12.718c0.157-0.332 0.563-0.223 0.856-0.251 0.874 0.008 1.751-0.037 2.622 0.036 0.45 0.481 0.74 1.114 1.048 1.696-1.786-0.030-3.572-0.034-5.358 0.002 0.212-0.528 0.552-0.991 0.833-1.483z"></path>
<path fill="#fff" d="M4.325 14.9c0.343-0.007 0.686-0.007 1.030 0.005-0.013 0.23 0.020 0.461 0.097 0.679-0.361 0.049-0.727 0.019-1.087 0.070l-0.080 0.010 0.062-0.32c0.304-0.032 0.61 0.012 0.911-0.030-0.295-0.096-0.624-0.029-0.934-0.046 0-0.092 0.001-0.275 0.001-0.367z"></path>
<path fill="#fff" d="M9.356 14.899c0.349-0.006 0.698-0.007 1.048 0.011-0.011 0.121-0.022 0.244-0.034 0.366-0.341-0.012-0.683-0.011-1.024 0 0.002-0.095 0.007-0.282 0.010-0.377z"></path>
<path fill="#fff" d="M6.661 15.040l-0.001-0.062c0.466 0.040 0.934 0.019 1.4 0.025 0.016 0.2 0.035 0.402 0.056 0.602-0.425 0.006-0.854 0.053-1.277-0.001-0.239-0.080-0.167-0.372-0.179-0.564z"></path>
<path fill="#fff" d="M9.262 15.6c0.143-0.474 0.749-0.206 1.112-0.252-0.002 0.073-0.007 0.22-0.010 0.293-0.367-0.022-0.736-0.019-1.103-0.041z"></path>
<path fill="#000" d="M12.127 6.874c2.521 0.012 5.042 0.007 7.564 0.002 0.020 2.344-0.004 4.687 0.012 7.031 0.431 0.298 0.218 0.875 0.247 1.315-0.234 0.119-0.469 0.234-0.71 0.336-0.091 0.494 0.198 1.156-0.251 1.519-0.452 0.068-0.926 0.049-1.382 0.008-0.451-0.343-0.065-1.031-0.325-1.411-0.59 0.551-1.499 0.692-2.232 0.354-0.206-0.085-0.335-0.302-0.56-0.348-0.114 0.361 0.022 0.76-0.086 1.126-0.050 0.146-0.164 0.324-0.343 0.302-0.366 0.010-0.732 0.012-1.098-0.001-0.174 0.005-0.286-0.164-0.355-0.302-0.049-0.407-0.016-0.82-0.017-1.229-0.236-0.145-0.596-0.194-0.725-0.45 0.012-0.412-0.161-0.952 0.25-1.219 0.017-2.345-0.011-4.688 0.013-7.033z"></path>
<path fill="#000" d="M5.292 12.485c0.178-0.204 0.452-0.287 0.716-0.284 0.756-0.029 1.512-0.016 2.269-0.013 0.379 0.019 0.83-0.040 1.114 0.272 0.617 0.655 0.977 1.504 1.202 2.364 0.090 0.383 0.104 0.785 0.012 1.169-0.083 0.334 0.077 0.752-0.203 1.018-0.229 0.148-0.552 0.143-0.797 0.038-0.319-0.168-0.216-0.582-0.242-0.876-1.338 0.053-2.678 0.054-4.016 0-0.014 0.307 0.067 0.745-0.289 0.896-0.275 0.084-0.666 0.102-0.844-0.173-0.097-0.133-0.067-0.306-0.079-0.46 0.013-0.443-0.161-0.874-0.072-1.318 0.174-0.96 0.574-1.901 1.229-2.634M5.513 12.718c-0.281 0.492-0.62 0.955-0.833 1.483 1.786-0.036 3.572-0.032 5.358-0.002-0.307-0.582-0.598-1.214-1.048-1.696-0.871-0.073-1.748-0.028-2.622-0.036-0.293 0.028-0.698-0.082-0.856 0.251M4.325 14.9c0 0.092-0.001 0.275-0.001 0.367 0.31 0.017 0.638-0.050 0.934 0.046-0.301 0.042-0.607-0.002-0.911 0.030l-0.062 0.32 0.060-0.007c0.662 0.132 1.344 0.007 2.014 0.038 0.839 0.036 1.678 0.010 2.516 0 0.494-0.008 1.009 0.095 1.49-0.054 0.002-0.073 0.007-0.22 0.010-0.293-0.364 0.046-0.97-0.222-1.112 0.252-0.359-0.127-0.787-0.13-1.145 0.005-0.022-0.2-0.041-0.402-0.056-0.602-0.467-0.006-0.935 0.014-1.4-0.025l0.001 0.062c-0.053 0.176-0.074 0.366-0.176 0.523-0.343-0.048-0.697-0.079-1.033 0.022-0.077-0.218-0.11-0.449-0.097-0.679-0.343-0.012-0.686-0.012-1.030-0.005M9.356 14.899c-0.002 0.095-0.007 0.282-0.010 0.377 0.341-0.011 0.683-0.012 1.024 0 0.012-0.122 0.023-0.245 0.034-0.366-0.349-0.018-0.698-0.017-1.048-0.011z"></path>
</svg>
