<!-- Generated by IcoMoon.io -->
<svg version="1.1" xmlns="http://www.w3.org/2000/svg" width="20" height="24" viewBox="0 0 20 24">
<title>regulatory--left-turn-yield-on-green--g1</title>
<path fill="#2a2627" d="M4.239 0h12.054c1.285 0.103 2.612-0.121 3.864 0.247 0.131 0.187 0.268 0.387 0.251 0.628-0.211-0.253-0.417-0.619-0.8-0.584-6.249-0.005-12.499-0.005-18.748-0.001-0.312-0.029-0.505 0.249-0.653 0.479-0.065 0.157-0.101 0.325-0.102 0.495 0.004 7.202 0 14.404 0.002 21.606 0.003 0.163 0.047 0.325 0.132 0.463 0.169 0.365 0.564 0.573 0.959 0.552 6.156 0.009 12.313-0.019 18.468 0.013-0.643 0.061-1.289 0.027-1.933 0.039-5.422 0.013-10.844 0.015-16.266-0.003-0.291-0.002-0.583 0.001-0.871-0.050-0.297-0.033-0.429-0.341-0.596-0.546v-22.623c0.179-0.395 0.575-0.613 0.995-0.645 1.080-0.055 2.163-0.030 3.243-0.072z"></path>
<path fill="#787576" d="M0.207 0.77c0.147-0.231 0.341-0.509 0.653-0.479 6.249-0.004 12.499-0.005 18.748 0.001 0.383-0.035 0.589 0.331 0.8 0.584 0.005 0.181 0.005 0.362 0.013 0.543-0.083 0.713-0.020 1.431-0.040 2.147-0.035 6.479-0.001 12.959-0.017 19.438-0.007 0.407-0.433 0.602-0.652 0.893l-0.045 0.003c-6.155-0.032-12.312-0.005-18.468-0.013-0.395 0.021-0.791-0.187-0.959-0.552 0.263 0.199 0.543 0.431 0.89 0.429 6.047 0.003 12.095-0.002 18.143 0.002 0.383 0.010 0.738-0.237 0.939-0.55 0.079-0.263 0.032-0.545 0.040-0.815-0.001-6.755 0-13.511-0.001-20.267-0.003-0.4 0.023-0.802-0.030-1.2-0.183-0.211-0.365-0.519-0.683-0.509-6.203-0.002-12.405 0-18.607-0.001-0.261-0.031-0.436 0.191-0.545 0.395-0.059-0.015-0.119-0.033-0.178-0.049z"></path>
<path fill="#fff" d="M0.385 0.819c0.109-0.204 0.285-0.426 0.545-0.395 6.202 0.001 12.405-0.001 18.607 0.001 0.317-0.010 0.5 0.297 0.683 0.509-0.020 7.045-0.005 14.089-0.007 21.133-0.024 0.407 0.097 0.884-0.179 1.228-0.191 0.26-0.543 0.26-0.834 0.273-5.622-0.005-11.245 0-16.867-0.002-0.619-0.009-1.249 0.056-1.854-0.112-0.072-0.301-0.122-0.609-0.115-0.92 0.021-7.237-0.020-14.476 0.020-21.714M2.626 2.267c-0.009 0.645-0.005 1.291-0.002 1.937-0.019 0.216 0.174 0.415 0.385 0.425 0.342 0.022 0.684-0.001 1.027 0 0.095-0.157 0.249-0.437 0.033-0.561-0.277-0.068-0.571-0.021-0.853-0.069-0.038-0.579 0.002-1.158-0.019-1.736 0.010-0.164-0.106-0.284-0.204-0.4-0.143 0.108-0.377 0.188-0.366 0.403M4.315 2.108c-0.075 0.626-0.006 1.263-0.033 1.893 0.009 0.221-0.019 0.585 0.274 0.629 0.425 0.055 0.857 0.027 1.284 0.002 0.076-0.192 0.13-0.403 0.027-0.596-0.318 0.007-0.636 0.007-0.953-0.013 0-0.187 0.001-0.375 0.003-0.561 0.171-0.045 0.385-0.027 0.513-0.166 0.025-0.133-0.037-0.262-0.065-0.39-0.137-0.031-0.274-0.061-0.411-0.090-0.019-0.081-0.030-0.164-0.033-0.248 0.307-0.131 0.651-0.054 0.964-0.151 0.139-0.241-0.046-0.607-0.345-0.571-0.401 0.010-0.963-0.137-1.223 0.263M6.031 2.207c-0.014 0.706-0.017 1.415 0.001 2.12-0.025 0.319 0.547 0.469 0.615 0.135 0.063-0.363 0.077-0.744-0.015-1.103 0.302 0.087 0.616-0.067 0.399-0.399-0.112 0.005-0.224 0.010-0.335 0.016-0.065-0.149-0.086-0.311-0.071-0.472 0.393-0.041 0.789-0.063 1.184-0.034 0.059 0.553 0.003 1.109 0.026 1.664 0.007 0.204 0.127 0.425 0.319 0.506 0.219 0.053 0.289-0.209 0.315-0.373 0.061-0.576-0.012-1.157 0.035-1.734 0.191-0.071 0.43-0.099 0.547-0.287-0.049-0.263-0.326-0.423-0.581-0.402-0.601 0.005-1.201 0.007-1.802 0.002-0.243 0.006-0.625 0.043-0.635 0.361M10.876 1.898c-0.113 0.151-0.133 0.335-0.109 0.517 0.154 0.015 0.307 0.029 0.461 0.045 0.111 0.724-0.183 1.535 0.182 2.199 0.165-0.064 0.439-0.091 0.428-0.325 0.045-0.631-0.037-1.267 0.071-1.894 0.151-0.003 0.301-0.006 0.452-0.008 0.043 0.642-0.093 1.333 0.209 1.928 0.441 0.573 1.398 0.231 1.525-0.426 0.016-0.577 0.013-1.157 0.003-1.735-0.001-0.247-0.293-0.295-0.483-0.321-0.299 0.657-0.035 1.419-0.159 2.118-0.113 0.013-0.225 0.025-0.337 0.037-0.152-0.613-0.035-1.248-0.101-1.868-0.113-0.281-0.403-0.303-0.612-0.113-0.478-0.237-1.019-0.131-1.531-0.153M14.689 1.893c-0.259 0.097-0.223 0.417-0.23 0.64 0.023 0.619-0.031 1.242 0.029 1.859-0.005 0.323 0.563 0.357 0.614 0.053 0.059-0.307 0.032-0.621 0.049-0.931 0.154 0.304 0.265 0.627 0.409 0.935 0.111 0.239 0.553 0.272 0.554-0.057 0.15-0.377-0.245-0.668-0.205-1.015 0.272-0.339 0.285-0.795 0.175-1.201-0.381-0.3-0.925-0.421-1.394-0.284M17.483 2.816c-0.162-0.284-0.268-0.603-0.509-0.841-0.123-0.002-0.245-0.005-0.366-0.009-0.189 0.261-0.089 0.601-0.111 0.9 0.053 0.563-0.119 1.17 0.11 1.703 0.119-0.005 0.238-0.010 0.357-0.013 0.199-0.32 0.108-0.705 0.153-1.060 0.317 0.365 0.337 0.934 0.817 1.147 0.081-0.111 0.181-0.223 0.171-0.371 0.010-0.67 0.006-1.341 0.002-2.011 0.015-0.151-0.101-0.256-0.187-0.363-0.484 0.070-0.432 0.543-0.437 0.918M11.319 6.214c-0.026 0.861 0 1.725-0.011 2.588-0.036 0.299 0.282 0.518 0.556 0.493 0.419-0.009 0.838 0.016 1.255-0.013 0.341-0.044 0.356-0.599 0.029-0.679-0.323-0.060-0.655-0.011-0.981-0.034-0.068-0.903 0.083-1.822-0.084-2.715-0.317-0.166-0.729-0.024-0.765 0.361M14.062 5.786c-0.365-0.003-0.322 0.428-0.327 0.681 0.031 0.879-0.039 1.765 0.033 2.641 0.332 0.311 0.963 0.359 1.327 0.083 0.415 0.007 0.775-0.381 0.777-0.788 0.043-0.534 0.051-1.073 0.005-1.607-0.010-0.336-0.235-0.637-0.525-0.793-0.283-0.385-0.875-0.229-1.291-0.218M4.362 6.070c0.137 0.573 0.509 1.060 0.694 1.617 0.099 0.445-0.003 0.905 0.056 1.354 0.178 0.215 0.536 0.257 0.763 0.095 0.115-0.499-0.036-1.024 0.079-1.523 0.208-0.426 0.431-0.846 0.641-1.271 0.059-0.15 0.091-0.371-0.044-0.488-0.274-0.109-0.604 0.018-0.726 0.287-0.087 0.213-0.177 0.427-0.338 0.595-0.148-0.295-0.268-0.616-0.487-0.868-0.203-0.065-0.676-0.135-0.638 0.201M7.417 5.843c-0.082 0.15-0.136 0.315-0.123 0.489 0.012 0.943-0.017 1.886 0.016 2.828 0.193 0.009 0.385 0.010 0.578 0.002 0.032-0.787 0.006-1.574 0.015-2.361-0.008-0.322 0.054-0.669-0.117-0.961-0.123 0.002-0.247 0.003-0.369 0.004M8.746 6.332c0.011 0.867-0.006 1.735 0.007 2.603-0.013 0.368 0.443 0.401 0.713 0.392 0.419-0.031 0.883 0.088 1.269-0.121 0.268-0.124 0.193-0.598-0.090-0.643-0.323-0.061-0.655-0.031-0.983-0.042-0.018-0.19-0.022-0.381-0.011-0.571 0.176-0.028 0.361-0.031 0.526-0.104 0.261-0.141 0.283-0.557 0.037-0.725-0.174-0.089-0.375-0.096-0.563-0.131 0.001-0.104 0.004-0.207 0.006-0.311 0.348-0.049 0.935 0.165 1.035-0.317-0.010-0.106-0.019-0.212-0.027-0.318-0.013-0.074-0.025-0.148-0.037-0.222-0.538-0.074-1.087-0.064-1.627-0.019-0.269 0.009-0.245 0.338-0.255 0.53M5.683 10.83c-0.133 0.145-0.337 0.277-0.315 0.5-0.001 0.58 0.001 1.16-0.001 1.74-0.025 0.232 0.189 0.369 0.327 0.52 0.369-0.166 0.314-0.594 0.439-0.913 0.186 0.256 0.263 0.595 0.526 0.791 0.207 0.119 0.515-0.019 0.501-0.277 0.002-0.677 0.020-1.356-0.009-2.032-0.033-0.265-0.322-0.278-0.531-0.271-0.116 0.231-0.132 0.489-0.148 0.742-0.225-0.308-0.38-0.697-0.789-0.799M10.323 11.178c-0.053 0.627-0.005 1.262-0.023 1.892-0.036 0.27 0.237 0.397 0.421 0.524 0.321-0.307 0.157-0.782 0.207-1.173 0.111 0.034 0.291 0.015 0.279 0.18 0.039 0.367 0.126 0.766 0.483 0.955 0.17-0.011 0.355-0.123 0.399-0.295-0.133-0.317-0.243-0.645-0.255-0.993 0.361-0.323 0.409-0.978-0.050-1.236-0.442-0.22-1.179-0.39-1.461 0.147M12.353 11.397c0.021 0.634-0.035 1.273 0.028 1.904 0.257 0.473 0.896 0.204 1.327 0.263 0.094-0.092 0.187-0.185 0.282-0.276 0.367 0.389 0.923 0.286 1.401 0.273 0.235-0.007 0.359-0.39 0.181-0.523-0.323-0.067-0.657-0.041-0.985-0.058-0.030-0.183-0.023-0.371 0.001-0.555 0.233 0.021 0.481 0.023 0.696-0.083 0.145-0.135 0.049-0.337 0.012-0.497-0.189-0.055-0.378-0.115-0.565-0.176 0.099-0.44 0.678-0.068 0.909-0.361 0.051-0.229-0.12-0.503-0.373-0.475-0.415 0.009-0.991-0.131-1.22 0.328-0.041 0.67 0.015 1.344-0.022 2.015-0.256-0.221-0.605-0.179-0.918-0.181-0.004-0.173-0.003-0.347 0.005-0.519 0.171-0.042 0.342-0.087 0.513-0.133 0-0.157 0.047-0.329-0.027-0.475-0.13-0.115-0.323-0.105-0.482-0.151-0.004-0.088-0.008-0.176-0.011-0.264 0.217-0.011 0.437-0.002 0.652-0.042 0.281-0.057 0.157-0.486-0.051-0.561-0.299-0.041-0.603-0.023-0.905-0.016-0.285-0.009-0.475 0.302-0.448 0.563M16.142 10.805c-0.176 0.131-0.405 0.276-0.383 0.529-0.004 0.6-0.003 1.2-0.001 1.8-0.025 0.27 0.269 0.368 0.454 0.485 0.25-0.213 0.213-0.577 0.41-0.826 0.134 0.291 0.293 0.573 0.525 0.798 0.193-0.066 0.485-0.123 0.462-0.388 0.017-0.645 0.015-1.293 0.001-1.938 0.019-0.277-0.255-0.395-0.473-0.466-0.2 0.189-0.224 0.464-0.237 0.723-0.207-0.283-0.408-0.597-0.758-0.717M3.691 11.099c-0.486 0.634-0.413 1.535-0.085 2.224 0.221 0.063 0.413 0.265 0.65 0.235 0.207-0.103 0.427-0.201 0.602-0.353 0.067-0.287 0.088-0.583 0.148-0.871 0.088-0.379-0.117-0.737-0.125-1.114-0.289-0.352-0.857-0.497-1.19-0.121M8.82 11.017c-0.087 0.001-0.173 0.003-0.26 0.005-0.155 0.49-0.416 0.986-0.288 1.515 0.129 0.423 0.235 0.976 0.735 1.102 0.765 0.243 1.434-0.904 0.853-1.436-0.28-0.271-0.643 0.035-0.935 0.127 0.026-0.312 0.121-0.613 0.259-0.893 0.248 0.204 0.612 0.368 0.875 0.091-0.073-0.273-0.173-0.591-0.52-0.573-0.216-0.11-0.535-0.118-0.719 0.062M6.435 17.915c-0.265 0.601 0.051 1.219 0.173 1.813 0.245 0.403 0.421 0.949 0.893 1.133 0.433 0.444 1.008 0.71 1.581 0.924 1.211 0.231 2.567 0.151 3.561-0.657 0.215-0.015 0.355-0.181 0.49-0.327 0.567-0.543 0.845-1.32 0.973-2.078 0.090-1.531-0.951-3.035-2.407-3.514-0.687-0.367-1.49-0.15-2.233-0.207-1.465 0.233-2.809 1.407-3.031 2.913z"></path>
<path fill="#fff" d="M14.634 6.617c0.267-0.011 0.563 0.157 0.583 0.445 0.019 0.377 0.033 0.761-0.016 1.136-0.060 0.255-0.331 0.385-0.576 0.327-0.005-0.636-0.017-1.273 0.009-1.908z"></path>
<path fill="#d0cfcf" d="M0.105 1.265c0.001-0.17 0.037-0.338 0.102-0.495 0.059 0.017 0.119 0.034 0.178 0.049-0.040 7.238 0.001 14.477-0.020 21.714-0.007 0.311 0.043 0.619 0.115 0.92 0.605 0.168 1.235 0.103 1.854 0.112 5.622 0.002 11.245-0.003 16.867 0.002 0.291-0.013 0.643-0.013 0.834-0.273 0.276-0.344 0.155-0.821 0.179-1.228 0.002-7.044-0.013-14.089 0.007-21.133 0.053 0.398 0.027 0.8 0.030 1.2 0.001 6.755-0.001 13.511 0.001 20.267-0.008 0.271 0.039 0.552-0.040 0.815-0.201 0.313-0.556 0.56-0.939 0.55-6.047-0.004-12.095 0.001-18.143-0.002-0.347 0.002-0.627-0.231-0.89-0.429-0.085-0.139-0.129-0.301-0.132-0.463-0.002-7.202 0.002-14.404-0.002-21.606z"></path>
<path fill="#1e1c1d" opacity="0.6" d="M20.42 1.419l0.047 0.113v1.967l-0.087 0.067c0.020-0.715-0.043-1.434 0.040-2.147z"></path>
<path fill="#b9b8b8" d="M2.626 2.267c-0.011-0.215 0.223-0.295 0.366-0.403 0.098 0.116 0.214 0.236 0.204 0.4 0.021 0.578-0.019 1.157 0.019 1.736 0.282 0.048 0.576 0.001 0.853 0.069 0.216 0.124 0.063 0.403-0.033 0.561-0.343-0.001-0.685 0.022-1.027 0-0.211-0.011-0.404-0.209-0.385-0.425-0.003-0.645-0.007-1.291 0.002-1.937M2.829 2.191c-0.002 0.695-0.001 1.389-0.001 2.083 0.054 0.049 0.109 0.098 0.163 0.146 0.328-0.059 0.662-0.054 0.994-0.052 0.023-0.066 0.046-0.132 0.069-0.197-0.299-0.049-0.68 0.095-0.923-0.115-0.12-0.652 0.084-1.345-0.104-1.987-0.050 0.031-0.149 0.092-0.198 0.122z"></path>
<path fill="#b9b8b8" d="M4.362 6.070c-0.038-0.337 0.435-0.266 0.638-0.201 0.219 0.252 0.339 0.573 0.487 0.868 0.161-0.169 0.251-0.383 0.338-0.595 0.122-0.269 0.452-0.397 0.726-0.287 0.135 0.117 0.103 0.338 0.044 0.488-0.21 0.425-0.433 0.845-0.641 1.271-0.115 0.499 0.036 1.023-0.079 1.523-0.227 0.161-0.585 0.12-0.763-0.095-0.059-0.449 0.043-0.909-0.056-1.354-0.185-0.557-0.557-1.043-0.694-1.617M5.003 6.104c-0.129-0.006-0.258-0.011-0.387-0.016 0.013 0.477 0.329 0.873 0.505 1.304 0.317 0.483 0.143 1.077 0.189 1.617 0.073 0.029 0.147 0.059 0.22 0.089 0.094-0.031 0.188-0.063 0.283-0.093 0.015-0.491-0.023-0.985 0.022-1.475 0.173-0.486 0.541-0.919 0.553-1.453-0.157 0.013-0.312 0.044-0.46 0.097-0.010 0.349-0.256 0.607-0.47 0.855-0.169-0.299-0.318-0.61-0.455-0.925z"></path>
<path fill="#d2d2d2" d="M4.315 2.108c0.259-0.399 0.821-0.253 1.223-0.263 0.299-0.035 0.485 0.33 0.345 0.571-0.313 0.097-0.657 0.020-0.964 0.151 0.003-0.036 0.008-0.108 0.011-0.144 0.313 0.001 0.627-0.022 0.935-0.087-0.011-0.084-0.021-0.169-0.031-0.253-0.408-0.088-0.838-0.117-1.247-0.026-0.241 0.049-0.187 0.357-0.209 0.541 0.019 0.533-0.029 1.070 0.025 1.601 0.009 0.177 0.175 0.29 0.341 0.299 0.333 0.029 0.679 0.047 1.007-0.027 0.135-0.097 0.089-0.294 0.116-0.437 0.103 0.193 0.049 0.404-0.027 0.596-0.427 0.025-0.859 0.053-1.284-0.002-0.293-0.044-0.265-0.408-0.274-0.629 0.027-0.63-0.042-1.267 0.033-1.893z"></path>
<path fill="#cac9ca" d="M6.031 2.207c0.009-0.318 0.392-0.355 0.635-0.361 0.601 0.005 1.201 0.003 1.802-0.002 0.255-0.021 0.532 0.139 0.581 0.402-0.117 0.188-0.356 0.215-0.547 0.287-0.047 0.577 0.027 1.158-0.035 1.734-0.025 0.163-0.095 0.426-0.315 0.373-0.191-0.081-0.311-0.302-0.319-0.506-0.023-0.555 0.033-1.111-0.026-1.664-0.395-0.029-0.791-0.007-1.184 0.034 0.003-0.033 0.008-0.099 0.011-0.132 0.462-0.020 0.925-0.017 1.387-0.004 0.131 0.661 0.032 1.337 0.076 2.005 0.068 0.001 0.135 0.003 0.203 0.004 0.109-0.653 0.020-1.316 0.064-1.973 0.189-0.042 0.375-0.103 0.544-0.201-0.37-0.173-0.784-0.091-1.177-0.102-0.467 0.017-0.938-0.043-1.402 0.019-0.227 0.075-0.143 0.367-0.163 0.549 0.033 0.563-0.059 1.135 0.065 1.691 0.072 0.008 0.217 0.025 0.289 0.033 0.077-0.341 0.003-0.699 0.109-1.034 0.092 0.359 0.077 0.741 0.015 1.103-0.068 0.335-0.64 0.184-0.615-0.135-0.017-0.705-0.015-1.414-0.001-2.12z"></path>
<path fill="#b6b5b5" d="M10.876 1.898c0.511 0.022 1.053-0.084 1.531 0.153 0.209-0.19 0.499-0.168 0.612 0.113 0.065 0.62-0.051 1.255 0.101 1.868 0.112-0.012 0.224-0.024 0.337-0.037 0.125-0.699-0.139-1.461 0.159-2.118 0.191 0.026 0.483 0.075 0.483 0.321 0.011 0.578 0.013 1.157-0.003 1.735-0.127 0.657-1.083 0.999-1.525 0.426-0.303-0.595-0.166-1.286-0.209-1.928-0.151 0.002-0.301 0.005-0.452 0.008-0.108 0.627-0.027 1.263-0.071 1.894 0.011 0.234-0.263 0.261-0.428 0.325-0.365-0.663-0.071-1.475-0.182-2.199-0.154-0.015-0.307-0.029-0.461-0.045-0.024-0.182-0.005-0.367 0.109-0.517M10.799 2.309c0.162 0.051 0.362 0.043 0.491 0.159 0.117 0.659-0.119 1.365 0.126 1.999 0.137-0.055 0.351-0.086 0.339-0.279 0.031-0.572-0.020-1.145 0.019-1.717 0.165-0.081 0.33-0.163 0.491-0.251-0.355-0.279-0.834-0.174-1.251-0.169-0.147-0.007-0.179 0.151-0.215 0.259M12.564 3.133c0.020 0.376-0.069 0.787 0.108 1.135 0.309 0.229 0.808 0.251 1.103-0.006 0.264-0.667 0.055-1.407 0.149-2.104-0.115 0.003-0.231 0.005-0.346 0.008-0.013 0.643 0.019 1.287-0.020 1.93-0.237 0.017-0.666 0.119-0.707-0.223-0.040-0.55-0.003-1.103-0.014-1.655-0.062-0.053-0.124-0.105-0.187-0.156-0.159 0.336-0.065 0.715-0.087 1.071z"></path>
<path fill="#cccbcb" d="M14.689 1.893c0.469-0.137 1.013-0.016 1.394 0.284 0.111 0.405 0.097 0.861-0.175 1.201-0.039 0.347 0.355 0.638 0.205 1.015-0.001 0.329-0.443 0.296-0.554 0.057-0.144-0.308-0.255-0.631-0.409-0.935-0.017 0.31 0.009 0.624-0.049 0.931-0.051 0.304-0.619 0.27-0.614-0.053-0.060-0.617-0.006-1.239-0.029-1.859 0.007-0.223-0.029-0.543 0.23-0.64M14.562 2.091c-0.041 0.721-0.035 1.447-0.009 2.168 0 0.265 0.444 0.316 0.49 0.053 0.061-0.319 0.004-0.65 0.087-0.967 0.443 0.272 0.219 1.137 0.865 1.127 0.222-0.437-0.373-0.834-0.115-1.262 0.259-0.283 0.304-0.821-0.013-1.073-0.409-0.167-0.881-0.139-1.305-0.045z"></path>
<path fill="#979596" d="M17.483 2.816c0.005-0.375-0.047-0.848 0.437-0.918 0.085 0.107 0.201 0.212 0.187 0.363 0.004 0.67 0.008 1.341-0.002 2.011 0.010 0.148-0.091 0.261-0.171 0.371-0.48-0.213-0.5-0.782-0.817-1.147-0.045 0.355 0.047 0.74-0.153 1.060-0.119 0.003-0.238 0.008-0.357 0.013-0.229-0.533-0.057-1.14-0.11-1.703 0.022-0.299-0.078-0.639 0.111-0.9 0.121 0.004 0.243 0.007 0.366 0.009 0.241 0.237 0.347 0.557 0.509 0.841M16.635 2.159c-0.011 0.719-0.013 1.438 0.001 2.157 0.105-0.025 0.211-0.052 0.317-0.078 0.062-0.305-0.192-0.953 0.262-0.965 0.144 0.342 0.366 0.65 0.451 1.015 0.106 0.013 0.211 0.025 0.318 0.037 0.045-0.728 0.051-1.462-0.004-2.19-0.483-0.046-0.279 0.494-0.337 0.787-0.448 0.193-0.421-0.528-0.677-0.758-0.111-0.001-0.221-0.003-0.331-0.005z"></path>
<path fill="#979596" d="M14.577 6.444c0.172-0.136 0.379 0.013 0.505 0.141-0.143-0.044-0.287-0.081-0.431-0.12-0.215 0.365-0.125 0.8-0.141 1.202 0.009 0.297-0.039 0.607 0.063 0.893 0.142 0.045 0.291 0.062 0.437 0.087-0.201 0.069-0.487 0.121-0.573-0.138-0.057-0.455 0-0.917-0.025-1.375 0.011-0.231-0.044-0.527 0.165-0.69z"></path>
<path fill="#999898" d="M4.585 2.059c0.409-0.091 0.839-0.062 1.247 0.026 0.010 0.084 0.021 0.169 0.031 0.253-0.307 0.065-0.621 0.087-0.935 0.087-0.003 0.036-0.008 0.108-0.011 0.144 0.003 0.084 0.015 0.167 0.033 0.248 0.137 0.029 0.275 0.059 0.411 0.090 0.028 0.128 0.090 0.257 0.065 0.39-0.128 0.139-0.341 0.121-0.513 0.166-0.002 0.187-0.003 0.374-0.003 0.561 0.317 0.020 0.635 0.021 0.953 0.013-0.027 0.143 0.019 0.34-0.116 0.437-0.328 0.075-0.673 0.056-1.007 0.027-0.166-0.009-0.332-0.122-0.341-0.299-0.055-0.531-0.006-1.068-0.025-1.601 0.021-0.185-0.033-0.492 0.209-0.541M4.502 2.18c-0.041 0.65-0.022 1.303-0.017 1.954 0.009 0.363 0.474 0.255 0.715 0.273 0.186-0.039 0.544 0.072 0.588-0.185l-0.025 0.006c-0.291-0.144-0.659 0.041-0.922-0.145-0.051-0.238-0.019-0.483-0.017-0.724 0.161-0.044 0.326-0.076 0.492-0.099-0.029-0.048-0.058-0.095-0.087-0.143-0.103-0.010-0.207-0.020-0.311-0.029-0.12-0.224-0.109-0.479-0.092-0.723 0.325-0.093 0.669-0.025 0.993-0.118-0.369-0.171-0.791-0.065-1.183-0.091-0.033 0.006-0.101 0.019-0.135 0.025z"></path>
<path fill="#838282" d="M10.799 2.309c0.037-0.107 0.069-0.266 0.215-0.259 0.417-0.005 0.896-0.11 1.251 0.169-0.161 0.088-0.326 0.17-0.491 0.251-0.039 0.572 0.012 1.145-0.019 1.717 0.013 0.193-0.202 0.225-0.339 0.279-0.245-0.634-0.009-1.34-0.126-1.999-0.129-0.116-0.329-0.107-0.491-0.159M10.844 2.24c0.179 0.082 0.529 0.028 0.537 0.295 0.039 0.599-0.021 1.2 0.028 1.799 0.057-0.028 0.114-0.056 0.171-0.084 0.017-0.595-0.035-1.194 0.068-1.783 0.151-0.089 0.301-0.178 0.448-0.272-0.407-0.057-0.867-0.139-1.251 0.045z"></path>
<path fill="#908e8f" d="M14.562 2.091c0.424-0.095 0.896-0.123 1.305 0.045 0.317 0.253 0.272 0.79 0.013 1.073-0.258 0.428 0.337 0.825 0.115 1.262-0.646 0.010-0.421-0.855-0.865-1.127-0.083 0.317-0.025 0.649-0.087 0.967-0.046 0.263-0.49 0.213-0.49-0.053-0.026-0.721-0.031-1.447 0.009-2.168M14.634 2.17c-0.011 0.712-0.009 1.424 0 2.136 0.112-0.001 0.225-0.001 0.337-0.001 0.051-0.349-0.14-0.835 0.229-1.051 0.305 0.212 0.349 0.59 0.445 0.919 0.045 0.142 0.225 0.108 0.342 0.123-0.137-0.383-0.462-0.877-0.127-1.24 0.221-0.253 0.167-0.737-0.154-0.885-0.349-0.099-0.719-0.055-1.072-0.001z"></path>
<path fill="#514f4f" d="M2.829 2.191c0.049-0.030 0.148-0.091 0.198-0.122 0.188 0.641-0.016 1.335 0.104 1.987 0.243 0.21 0.624 0.066 0.923 0.115-0.023 0.065-0.045 0.131-0.069 0.197-0.332-0.002-0.666-0.007-0.994 0.052-0.055-0.048-0.109-0.097-0.163-0.146-0.001-0.694-0.001-1.388 0.001-2.083z"></path>
<path fill="#737172" d="M4.502 2.18c0.034-0.007 0.101-0.019 0.135-0.025-0.019 0.715-0.018 1.429-0.003 2.144 0.377 0.013 0.762 0.033 1.129-0.071l0.025-0.006c-0.044 0.257-0.402 0.146-0.588 0.185-0.241-0.018-0.706 0.089-0.715-0.273-0.005-0.651-0.024-1.304 0.017-1.954z"></path>
<path fill="#2f2c2d" d="M4.637 2.155c0.393 0.026 0.814-0.080 1.183 0.091-0.325 0.093-0.669 0.025-0.993 0.118-0.017 0.245-0.028 0.499 0.092 0.723 0.104 0.009 0.207 0.019 0.311 0.029 0.029 0.048 0.058 0.095 0.087 0.143-0.166 0.023-0.331 0.055-0.492 0.099-0.002 0.241-0.034 0.486 0.017 0.724 0.263 0.187 0.631 0.001 0.922 0.145-0.367 0.103-0.752 0.083-1.129 0.071-0.015-0.715-0.015-1.429 0.003-2.144z"></path>
<path fill="#434041" d="M6.169 2.667c0.020-0.181-0.065-0.474 0.163-0.549 0.464-0.063 0.935-0.003 1.402-0.019 0.393 0.011 0.807-0.071 1.177 0.102-0.169 0.099-0.355 0.159-0.544 0.201-0.044 0.657 0.045 1.321-0.064 1.973-0.068-0.001-0.135-0.003-0.203-0.004-0.044-0.668 0.055-1.344-0.076-2.005-0.462-0.013-0.925-0.016-1.387 0.004-0.003 0.033-0.008 0.099-0.011 0.132-0.015 0.161 0.006 0.323 0.071 0.472 0.111-0.006 0.223-0.011 0.335-0.016 0.217 0.333-0.097 0.487-0.399 0.399-0.106 0.335-0.033 0.693-0.109 1.034-0.072-0.009-0.217-0.025-0.289-0.033-0.123-0.556-0.031-1.128-0.065-1.691z"></path>
<path fill="#4c494a" d="M10.844 2.24c0.384-0.184 0.844-0.102 1.251-0.045-0.147 0.094-0.297 0.183-0.448 0.272-0.103 0.589-0.051 1.189-0.068 1.783-0.057 0.028-0.113 0.056-0.171 0.084-0.049-0.599 0.011-1.201-0.028-1.799-0.008-0.267-0.357-0.213-0.537-0.295z"></path>
<path fill="#4b4949" d="M12.564 3.133c0.022-0.356-0.072-0.735 0.087-1.071 0.063 0.051 0.125 0.103 0.187 0.156 0.011 0.551-0.026 1.105 0.014 1.655 0.041 0.343 0.469 0.241 0.707 0.223 0.039-0.643 0.007-1.287 0.020-1.93 0.115-0.003 0.231-0.005 0.346-0.008-0.094 0.697 0.115 1.437-0.149 2.104-0.295 0.257-0.794 0.235-1.103 0.006-0.177-0.348-0.088-0.759-0.108-1.135z"></path>
<path fill="#403d3e" d="M14.634 2.17c0.353-0.054 0.723-0.099 1.072 0.001 0.321 0.148 0.375 0.631 0.154 0.885-0.335 0.363-0.009 0.857 0.127 1.24-0.117-0.015-0.297 0.019-0.342-0.123-0.095-0.329-0.139-0.707-0.445-0.919-0.369 0.215-0.179 0.702-0.229 1.051-0.113 0.001-0.225 0.001-0.337 0.001-0.009-0.712-0.011-1.424 0-2.136M15.158 2.978c0.065-0.003 0.195-0.011 0.261-0.015 0.072-0.055 0.145-0.108 0.218-0.161 0-0.096 0.001-0.193 0.001-0.289-0.056-0.051-0.111-0.101-0.167-0.151-0.43-0.125-0.557 0.335-0.312 0.617z"></path>
<path fill="#403d3d" d="M16.635 2.159c0.11 0.002 0.22 0.004 0.331 0.005 0.256 0.23 0.229 0.951 0.677 0.758 0.058-0.293-0.146-0.833 0.337-0.787 0.055 0.728 0.049 1.462 0.004 2.19-0.107-0.012-0.212-0.025-0.318-0.037-0.085-0.365-0.307-0.673-0.451-1.015-0.454 0.011-0.2 0.659-0.262 0.965-0.106 0.026-0.211 0.053-0.317 0.078-0.015-0.719-0.013-1.438-0.001-2.157z"></path>
<path fill="#f2f1f1" d="M15.158 2.978c-0.245-0.281-0.118-0.742 0.312-0.617 0.056 0.051 0.111 0.101 0.167 0.151 0 0.097-0.001 0.193-0.001 0.289-0.073 0.053-0.146 0.107-0.218 0.161-0.065 0.003-0.195 0.011-0.261 0.015z"></path>
<path fill="#302d2f" d="M20.38 3.565l0.087-0.067v19.915c-0.201 0.224-0.418 0.507-0.755 0.483 0.219-0.291 0.645-0.486 0.652-0.893 0.015-6.479-0.018-12.959 0.017-19.438z"></path>
<path fill="#bfbebf" d="M11.319 6.214c0.035-0.385 0.447-0.527 0.765-0.361 0.167 0.893 0.016 1.812 0.084 2.715 0.326 0.023 0.658-0.026 0.981 0.034 0.327 0.081 0.311 0.635-0.029 0.679-0.417 0.029-0.837 0.005-1.255 0.013-0.274 0.025-0.592-0.194-0.556-0.493 0.011-0.863-0.015-1.727 0.011-2.588M11.619 6.085c-0.022 0.989-0.011 1.978-0.006 2.967 0.553-0.049 1.169 0.133 1.677-0.113-0.383-0.224-0.869 0.013-1.241-0.175-0.095-0.885 0.061-1.789-0.083-2.669-0.116-0.003-0.232-0.006-0.348-0.009z"></path>
<path fill="#e2e1e2" d="M14.062 5.786c0.416-0.011 1.007-0.167 1.291 0.218-0.413-0.137-0.885-0.262-1.305-0.088-0.318 0.201-0.219 0.633-0.237 0.951 0.041 0.717-0.058 1.444 0.044 2.154 0.32 0.302 0.837 0.131 1.239 0.171-0.363 0.275-0.995 0.227-1.327-0.083-0.071-0.876-0.002-1.762-0.033-2.641 0.005-0.253-0.038-0.684 0.327-0.681z"></path>
<path fill="#8f8d8d" d="M7.417 5.843c0.123-0.001 0.246-0.002 0.369-0.004 0.171 0.292 0.109 0.639 0.117 0.961-0.009 0.787 0.017 1.575-0.015 2.361-0.193 0.008-0.385 0.007-0.578-0.002-0.033-0.942-0.004-1.885-0.016-2.828-0.013-0.173 0.041-0.339 0.123-0.489M7.426 6.172c0.009 0.953-0.007 1.907 0.009 2.86 0.112 0.004 0.225 0.009 0.337 0.013 0.009-0.987 0.027-1.976-0.011-2.963-0.112 0.030-0.223 0.060-0.335 0.090z"></path>
<path fill="#dedddd" d="M8.746 6.332c0.010-0.192-0.015-0.521 0.255-0.53 0.54-0.045 1.089-0.055 1.627 0.019 0.013 0.074 0.025 0.148 0.037 0.222-0.413-0.322-0.981-0.179-1.464-0.167-0.281-0.004-0.401 0.279-0.383 0.521 0.003 0.823-0.011 1.647 0.005 2.469-0.005 0.368 0.461 0.309 0.71 0.323 0.437-0.035 0.973 0.127 1.309-0.241-0.261-0.484-0.838-0.257-1.265-0.396-0.098-0.193-0.116-0.447-0.005-0.638 0.258-0.129 0.573-0.179 0.735-0.447-0.19-0.273-0.537-0.297-0.791-0.47-0.040-0.167 0.015-0.427 0.227-0.429 0.325-0.027 0.682 0.020 0.95-0.208-0.099 0.482-0.687 0.267-1.035 0.317-0.002 0.104-0.005 0.207-0.006 0.311 0.189 0.035 0.389 0.041 0.563 0.131 0.245 0.167 0.224 0.583-0.037 0.725-0.165 0.073-0.35 0.076-0.526 0.104-0.011 0.19-0.007 0.381 0.011 0.571 0.327 0.011 0.659-0.019 0.983 0.042 0.283 0.045 0.358 0.519 0.090 0.643-0.386 0.209-0.849 0.090-1.269 0.121-0.271 0.009-0.726-0.024-0.713-0.392-0.013-0.867 0.004-1.735-0.007-2.603z"></path>
<path fill="#aeadad" d="M8.818 6.397c-0.018-0.242 0.103-0.525 0.383-0.521 0.483-0.011 1.051-0.155 1.464 0.167 0.008 0.106 0.017 0.212 0.027 0.318-0.268 0.228-0.625 0.181-0.95 0.208-0.211 0.001-0.267 0.261-0.227 0.429 0.255 0.173 0.601 0.197 0.791 0.47-0.162 0.268-0.477 0.317-0.735 0.447-0.111 0.191-0.093 0.445 0.005 0.638 0.427 0.139 1.003-0.088 1.265 0.396-0.336 0.368-0.871 0.206-1.309 0.241-0.249-0.014-0.715 0.045-0.71-0.323-0.016-0.823-0.002-1.646-0.005-2.469M8.933 6.204c-0.044 0.933-0.011 1.873-0.014 2.809 0.565 0.154 1.219 0.174 1.778-0.011-0.241-0.512-0.945-0.021-1.264-0.429-0.080-0.254-0.106-0.587 0.065-0.809 0.22-0.121 0.527-0.062 0.685-0.298-0.165-0.205-0.446-0.157-0.661-0.257-0.205-0.193-0.209-0.625 0.071-0.751 0.299-0.083 0.62 0.008 0.919-0.083 0.223-0.253-0.145-0.447-0.377-0.393-0.39 0.041-0.929-0.138-1.202 0.222z"></path>
<path fill="#b7b5b6" d="M14.048 5.916c0.419-0.174 0.892-0.049 1.305 0.088 0.289 0.156 0.515 0.457 0.525 0.793 0.045 0.534 0.037 1.073-0.005 1.607-0.003 0.407-0.363 0.795-0.777 0.788-0.402-0.040-0.919 0.131-1.239-0.171-0.102-0.71-0.003-1.437-0.044-2.154 0.018-0.317-0.081-0.749 0.237-0.951M14.093 6.027c-0.17 0.109-0.135 0.333-0.143 0.505 0.009 0.757 0.002 1.514 0.001 2.271-0.022 0.476 0.621 0.281 0.919 0.317 0.579 0.066 0.977-0.526 0.943-1.054-0.005-0.631 0.152-1.421-0.397-1.882-0.382-0.243-0.899-0.277-1.323-0.157z"></path>
<path fill="#716f6f" d="M8.933 6.204c0.273-0.36 0.812-0.181 1.202-0.222 0.232-0.054 0.6 0.14 0.377 0.393-0.299 0.091-0.62 0-0.919 0.083-0.281 0.125-0.276 0.558-0.071 0.751 0.215 0.101 0.496 0.052 0.661 0.257-0.158 0.236-0.465 0.177-0.685 0.298-0.171 0.222-0.145 0.555-0.065 0.809 0.319 0.409 1.023-0.083 1.264 0.429-0.559 0.185-1.213 0.165-1.778 0.011 0.003-0.936-0.030-1.875 0.014-2.809M9.1 6.164c-0.018 0.947-0.001 1.894-0.009 2.841 0.488 0.004 1.027 0.13 1.485-0.067-0.389-0.127-0.85 0.065-1.199-0.18-0.147-0.342-0.133-0.77-0.003-1.117 0.227-0.085 0.477-0.081 0.703-0.172-0.23-0.076-0.481-0.078-0.705-0.173-0.121-0.275-0.141-0.64 0.021-0.902 0.355-0.176 0.773-0.037 1.151-0.123-0.393-0.303-0.977-0.127-1.444-0.107z"></path>
<path fill="#797777" d="M14.093 6.027c0.424-0.119 0.941-0.085 1.323 0.157 0.549 0.461 0.391 1.251 0.397 1.882 0.034 0.528-0.364 1.12-0.943 1.054-0.298-0.036-0.941 0.159-0.919-0.317 0.001-0.757 0.007-1.514-0.001-2.271 0.008-0.173-0.027-0.396 0.143-0.505M14.099 6.155c0.011 0.953-0.046 1.915 0.027 2.861 0.352 0.031 0.716 0.049 1.064-0.020 0.381-0.198 0.535-0.657 0.55-1.063 0.013-0.489 0.067-1.029-0.221-1.457-0.274-0.5-0.95-0.377-1.42-0.322z"></path>
<path fill="#383637" d="M5.003 6.104c0.137 0.315 0.286 0.626 0.455 0.925 0.214-0.249 0.46-0.506 0.47-0.855 0.148-0.053 0.303-0.085 0.46-0.097-0.012 0.534-0.381 0.967-0.553 1.453-0.045 0.49-0.007 0.984-0.022 1.475-0.095 0.031-0.189 0.062-0.283 0.093-0.073-0.030-0.147-0.059-0.22-0.089-0.047-0.54 0.127-1.135-0.189-1.617-0.175-0.431-0.491-0.827-0.505-1.304 0.129 0.005 0.257 0.010 0.387 0.016z"></path>
<path fill="#383536" d="M7.426 6.172c0.112-0.030 0.223-0.060 0.335-0.090 0.037 0.987 0.019 1.975 0.011 2.963-0.113-0.004-0.225-0.009-0.337-0.013-0.015-0.953 0-1.907-0.009-2.86z"></path>
<path fill="#2c2a2b" d="M9.1 6.164c0.467-0.020 1.051-0.195 1.444 0.107-0.378 0.087-0.796-0.053-1.151 0.123-0.161 0.262-0.142 0.627-0.021 0.902 0.224 0.095 0.475 0.097 0.705 0.173-0.226 0.091-0.476 0.087-0.703 0.172-0.13 0.347-0.145 0.775 0.003 1.117 0.349 0.245 0.81 0.053 1.199 0.18-0.459 0.197-0.997 0.071-1.485 0.067 0.008-0.947-0.009-1.894 0.009-2.841z"></path>
<path fill="#3e3b3c" d="M11.619 6.085c0.116 0.003 0.232 0.007 0.348 0.009 0.143 0.88-0.012 1.784 0.083 2.669 0.371 0.187 0.857-0.049 1.241 0.175-0.508 0.247-1.125 0.065-1.677 0.113-0.005-0.989-0.016-1.978 0.006-2.967z"></path>
<path fill="#2c292a" d="M14.099 6.155c0.47-0.055 1.146-0.178 1.42 0.322 0.288 0.427 0.234 0.968 0.221 1.457-0.015 0.405-0.169 0.865-0.55 1.063-0.348 0.069-0.712 0.051-1.064 0.020-0.073-0.946-0.015-1.909-0.027-2.861M14.486 6.35c-0.259 0.134-0.185 0.478-0.202 0.717 0.031 0.509-0.051 1.027 0.043 1.529 0.191 0.441 0.774 0.195 0.993-0.084 0.152-0.529 0.179-1.098 0.063-1.637-0.049-0.392-0.526-0.703-0.897-0.525z"></path>
<path fill="#656364" d="M14.486 6.35c0.371-0.179 0.848 0.133 0.897 0.525 0.117 0.539 0.089 1.109-0.063 1.637-0.219 0.279-0.803 0.525-0.993 0.084-0.094-0.502-0.012-1.021-0.043-1.529 0.017-0.239-0.057-0.583 0.202-0.717M14.577 6.444c-0.209 0.163-0.153 0.459-0.165 0.69 0.025 0.458-0.033 0.92 0.025 1.375 0.087 0.259 0.372 0.207 0.573 0.138 0.327-0.187 0.316-0.584 0.339-0.912-0.016-0.382 0.065-0.879-0.267-1.15-0.126-0.127-0.333-0.277-0.505-0.141z"></path>
<path fill="#c0bfbf" d="M14.651 6.465c0.144 0.039 0.289 0.076 0.431 0.12 0.332 0.271 0.251 0.768 0.267 1.15-0.023 0.328-0.011 0.725-0.339 0.912-0.147-0.025-0.295-0.042-0.437-0.087-0.102-0.286-0.055-0.596-0.063-0.893 0.017-0.402-0.074-0.837 0.141-1.202M14.634 6.617c-0.026 0.635-0.013 1.272-0.009 1.908 0.245 0.059 0.516-0.072 0.576-0.327 0.049-0.375 0.035-0.759 0.016-1.136-0.020-0.289-0.317-0.456-0.583-0.445z"></path>
<path fill="#c0bfbf" d="M10.323 11.178c0.282-0.537 1.019-0.367 1.461-0.147 0.459 0.258 0.411 0.913 0.050 1.236 0.012 0.348 0.123 0.676 0.255 0.993-0.044 0.172-0.229 0.284-0.399 0.295-0.357-0.189-0.443-0.587-0.483-0.955 0.013-0.165-0.168-0.146-0.279-0.18-0.050 0.391 0.113 0.866-0.207 1.173-0.185-0.127-0.457-0.254-0.421-0.524 0.017-0.63-0.030-1.265 0.023-1.892M10.569 11.186c-0.020 0.698-0.005 1.397-0.005 2.096 0.048 0.014 0.144 0.043 0.192 0.057 0.109-0.316 0.053-0.653 0.070-0.979 0.156-0.004 0.311-0.007 0.467-0.008 0.062 0.334 0.116 0.679 0.328 0.957 0.073-0.001 0.147-0.002 0.22-0.003 0.014-0.387-0.2-0.727-0.232-1.105 0.343-0.238 0.421-0.837 0.071-1.087-0.359 0.012-0.81-0.127-1.111 0.072z"></path>
<path fill="#c0bebe" d="M5.683 10.83c0.409 0.102 0.565 0.491 0.789 0.799 0.016-0.253 0.032-0.511 0.148-0.742 0.209-0.007 0.498 0.007 0.531 0.271 0.029 0.676 0.011 1.355 0.009 2.032 0.015 0.258-0.294 0.397-0.501 0.277-0.263-0.195-0.34-0.535-0.526-0.791-0.125 0.319-0.069 0.747-0.439 0.913-0.137-0.151-0.351-0.288-0.327-0.52 0.001-0.58 0-1.16 0.001-1.74-0.022-0.223 0.182-0.355 0.315-0.5M6.665 11.048c-0.087 0.346 0.067 0.749-0.128 1.060-0.439-0.139-0.257-1.108-0.894-1.030-0.141 0.562-0.032 1.149-0.070 1.721 0.005 0.195-0.051 0.554 0.25 0.525 0.029-0.413-0.007-0.828 0.034-1.241 0.068 0.005 0.137 0.011 0.205 0.017 0.251 0.413 0.347 0.975 0.758 1.256 0.095-0.077 0.242-0.137 0.207-0.288-0.003-0.601 0.010-1.204-0.007-1.805-0.001-0.176-0.219-0.154-0.341-0.169-0.003-0.011-0.011-0.035-0.015-0.047z"></path>
<path fill="#cac9c9" d="M12.353 11.397c-0.027-0.261 0.163-0.572 0.448-0.563 0.301-0.007 0.605-0.025 0.905 0.016 0.209 0.075 0.332 0.503 0.051 0.561-0.215 0.040-0.435 0.031-0.652 0.042 0.003 0.088 0.007 0.176 0.011 0.264 0.159 0.045 0.352 0.036 0.482 0.151 0.073 0.146 0.027 0.319 0.027 0.475-0.171 0.046-0.341 0.091-0.513 0.133-0.008 0.173-0.009 0.346-0.005 0.519 0.313 0.002 0.662-0.040 0.918 0.181 0.037-0.671-0.019-1.345 0.022-2.015 0.229-0.459 0.805-0.319 1.22-0.328 0.253-0.028 0.425 0.246 0.373 0.475-0.231 0.293-0.81-0.079-0.909 0.361 0.187 0.061 0.376 0.121 0.565 0.176 0.037 0.159 0.133 0.361-0.012 0.497-0.215 0.106-0.463 0.103-0.696 0.083 0.164-0.073 0.338-0.117 0.511-0.161-0.003-0.111-0.005-0.222-0.007-0.333-0.175-0.035-0.351-0.071-0.525-0.109-0.001-0.15-0.001-0.3-0.002-0.45 0.319-0.065 0.645-0.078 0.969-0.081-0.037-0.063-0.075-0.127-0.113-0.191-0.359 0.045-0.813-0.125-1.11 0.089-0.036 0.703 0.001 1.409-0.014 2.113 0.403 0.087 0.82 0.083 1.224 0.009-0.009-0.069-0.017-0.137-0.025-0.205-0.279 0-0.557 0.005-0.835-0.014-0.019-0.028-0.055-0.084-0.074-0.112 0.328 0.017 0.662-0.009 0.985 0.058 0.179 0.133 0.055 0.516-0.181 0.523-0.479 0.013-1.034 0.116-1.401-0.273-0.095 0.091-0.188 0.184-0.282 0.276-0.431-0.059-1.070 0.211-1.327-0.263-0.063-0.631-0.007-1.27-0.028-1.904M12.572 11.186c-0.021 0.702 0.001 1.405-0.009 2.108 0.395 0.105 0.826 0.098 1.223 0.007-0.009-0.065-0.017-0.131-0.025-0.195-0.31-0.007-0.632 0.038-0.928-0.079 0.007-0.205-0.023-0.415 0.026-0.617 0.175-0.094 0.382-0.101 0.575-0.133-0.003-0.117-0.006-0.235-0.009-0.352-0.212-0.011-0.423-0.047-0.607-0.16-0.117-0.589 0.597-0.441 0.958-0.465-0.006-0.065-0.012-0.129-0.018-0.193-0.384 0.037-0.865-0.129-1.187 0.080z"></path>
<path fill="#d8d7d7" d="M16.142 10.805c0.35 0.119 0.551 0.433 0.758 0.717 0.013-0.259 0.037-0.535 0.237-0.723 0.218 0.071 0.492 0.189 0.473 0.466 0.013 0.645 0.016 1.293-0.001 1.938 0.023 0.265-0.269 0.322-0.462 0.388-0.232-0.225-0.391-0.507-0.525-0.798-0.197 0.249-0.16 0.613-0.41 0.826-0.185-0.117-0.479-0.215-0.454-0.485-0.001-0.6-0.003-1.2 0.001-1.8-0.022-0.253 0.207-0.397 0.383-0.529M15.935 11.266c-0.035 0.621-0.028 1.247-0.005 1.869-0.029 0.226 0.331 0.386 0.41 0.137 0.069-0.361 0.006-0.733 0.053-1.097 0.215 0.357 0.395 0.735 0.609 1.093 0.101 0.24 0.529 0.116 0.5-0.141 0.011-0.656 0.003-1.313 0-1.969-0.123-0.063-0.247-0.123-0.371-0.181-0.223 0.305-0.066 0.704-0.202 1.039-0.147-0.284-0.262-0.584-0.427-0.857-0.132-0.223-0.565-0.195-0.567 0.107z"></path>
<path fill="#585556" d="M3.691 11.099c0.333-0.376 0.901-0.231 1.19 0.121 0.008 0.377 0.213 0.735 0.125 1.114-0.060 0.288-0.081 0.585-0.148 0.871-0.175 0.152-0.395 0.251-0.602 0.353-0.237 0.029-0.429-0.173-0.65-0.235-0.328-0.689-0.401-1.59 0.085-2.224M3.899 11.66c0.003 0.457-0.070 0.931 0.070 1.374 0.133 0.003 0.265 0.007 0.398 0.011 0.271-0.308 0.196-0.735 0.203-1.111-0.001-0.195-0.007-0.467-0.231-0.541-0.183-0.095-0.473 0.040-0.441 0.267z"></path>
<path fill="#494647" d="M8.82 11.017c0.185-0.18 0.503-0.172 0.719-0.062 0.225 0.147 0.381 0.389 0.238 0.655-0.237-0.176-0.582-0.387-0.861-0.178-0.155 0.516-0.092 1.078-0.011 1.604 0.283 0.113 0.693 0.103 0.687-0.295-0.099-0.080-0.197-0.16-0.295-0.241-0.003-0.035-0.009-0.106-0.012-0.142 0.183-0.047 0.374-0.057 0.557 0.001-0.005 0.281 0.021 0.567-0.031 0.845-0.146 0.181-0.401 0.214-0.602 0.308-0.215-0.124-0.591-0.141-0.615-0.449-0.063-0.387-0.239-0.779-0.111-1.171 0.089-0.299 0.048-0.678 0.336-0.875z"></path>
<path fill="#d2d1d1" d="M8.56 11.023c0.087-0.002 0.173-0.004 0.26-0.005-0.288 0.197-0.247 0.577-0.336 0.875-0.129 0.392 0.048 0.784 0.111 1.171 0.023 0.309 0.4 0.325 0.615 0.449 0.201-0.094 0.456-0.127 0.602-0.308 0.052-0.279 0.026-0.564 0.031-0.845-0.183-0.058-0.373-0.049-0.557-0.001 0.003 0.036 0.009 0.107 0.012 0.142 0.097 0.081 0.196 0.161 0.295 0.241 0.006 0.399-0.405 0.408-0.687 0.295-0.081-0.526-0.144-1.088 0.011-1.604 0.279-0.209 0.624 0.002 0.861 0.178 0.143-0.266-0.013-0.507-0.238-0.655 0.347-0.017 0.447 0.3 0.52 0.573-0.263 0.277-0.627 0.113-0.875-0.091-0.138 0.28-0.233 0.581-0.259 0.893 0.292-0.091 0.655-0.398 0.935-0.127 0.581 0.532-0.088 1.679-0.853 1.436-0.5-0.126-0.606-0.679-0.735-1.102-0.128-0.529 0.133-1.025 0.288-1.515z"></path>
<path fill="#999797" d="M15.935 11.266c0.002-0.303 0.435-0.331 0.567-0.107 0.165 0.273 0.281 0.573 0.427 0.857 0.136-0.335-0.021-0.735 0.202-1.039 0.125 0.058 0.249 0.118 0.371 0.181 0.003 0.656 0.011 1.313 0 1.969 0.029 0.257-0.399 0.381-0.5 0.141-0.215-0.357-0.394-0.735-0.609-1.093-0.047 0.364 0.016 0.737-0.053 1.097-0.079 0.249-0.439 0.089-0.41-0.137-0.023-0.621-0.031-1.248 0.005-1.869M16.095 11.143c-0.005 0.718-0.011 1.436 0.005 2.154 0.034 0 0.102 0 0.136 0 0.080-0.429-0.165-1.005 0.219-1.32 0.263 0.427 0.477 0.882 0.697 1.332 0.025-0.006 0.075-0.019 0.099-0.025 0.282-0.157 0.073-0.608 0.129-0.885-0.077-0.411 0.157-0.949-0.131-1.279-0.036 0.015-0.107 0.045-0.143 0.059-0.057 0.341 0.156 0.843-0.224 1.041-0.175-0.339-0.352-0.677-0.477-1.037-0.103-0.013-0.207-0.027-0.31-0.040z"></path>
<path fill="#373535" d="M6.665 11.048c0.004 0.012 0.011 0.035 0.015 0.047 0.177 0.735 0.17 1.51 0.141 2.263-0.411-0.281-0.507-0.843-0.758-1.256-0.069-0.006-0.137-0.012-0.205-0.017-0.041 0.413-0.005 0.827-0.034 1.241-0.301 0.029-0.245-0.33-0.25-0.525 0.038-0.573-0.071-1.159 0.070-1.721 0.637-0.078 0.455 0.891 0.894 1.030 0.195-0.311 0.041-0.714 0.128-1.060z"></path>
<path fill="#373535" d="M14.311 11.189c0.297-0.215 0.751-0.045 1.11-0.089 0.037 0.063 0.075 0.127 0.113 0.191-0.325 0.003-0.65 0.016-0.969 0.081 0.001 0.15 0.001 0.3 0.002 0.45 0.175 0.038 0.35 0.074 0.525 0.109 0.002 0.111 0.005 0.222 0.007 0.333-0.173 0.044-0.347 0.088-0.511 0.161-0.025 0.183-0.031 0.372-0.001 0.555 0.019 0.028 0.055 0.084 0.074 0.112 0.278 0.019 0.557 0.014 0.835 0.014 0.008 0.068 0.016 0.137 0.025 0.205-0.404 0.074-0.821 0.079-1.224-0.009 0.015-0.704-0.022-1.41 0.014-2.113z"></path>
<path fill="#676565" d="M6.68 11.095c0.123 0.015 0.34-0.007 0.341 0.169 0.017 0.601 0.003 1.204 0.007 1.805 0.035 0.151-0.112 0.211-0.207 0.288 0.029-0.753 0.037-1.528-0.141-2.263z"></path>
<path fill="#3f3c3c" d="M10.569 11.186c0.301-0.199 0.752-0.060 1.111-0.072 0.35 0.251 0.273 0.849-0.071 1.087 0.032 0.378 0.246 0.718 0.232 1.105-0.073 0.001-0.147 0.002-0.22 0.003-0.212-0.278-0.266-0.623-0.328-0.957-0.156 0.001-0.311 0.004-0.467 0.008-0.017 0.326 0.039 0.663-0.070 0.979-0.048-0.015-0.144-0.043-0.192-0.057-0.001-0.699-0.015-1.398 0.005-2.096M10.891 11.844c0.195-0.006 0.391 0.003 0.585-0.019 0.149-0.086 0.123-0.349-0.001-0.449-0.186-0.023-0.375-0.024-0.561-0.007-0.157 0.109-0.066 0.327-0.023 0.475z"></path>
<path fill="#373536" d="M12.572 11.186c0.321-0.209 0.803-0.043 1.187-0.080 0.006 0.064 0.012 0.129 0.018 0.193-0.361 0.023-1.075-0.124-0.958 0.465 0.183 0.113 0.395 0.149 0.607 0.16 0.003 0.117 0.005 0.235 0.009 0.352-0.193 0.033-0.4 0.039-0.575 0.133-0.049 0.201-0.019 0.411-0.026 0.617 0.296 0.117 0.618 0.073 0.928 0.079 0.008 0.065 0.017 0.13 0.025 0.195-0.397 0.091-0.828 0.099-1.223-0.007 0.009-0.703-0.013-1.406 0.009-2.108z"></path>
<path fill="#2a2728" d="M16.095 11.143c0.103 0.013 0.207 0.027 0.31 0.040 0.125 0.361 0.302 0.699 0.477 1.037 0.38-0.197 0.167-0.699 0.224-1.041 0.036-0.015 0.107-0.045 0.143-0.059-0.031 0.721 0.006 1.443 0.002 2.164-0.025 0.006-0.075 0.019-0.099 0.025-0.221-0.45-0.435-0.905-0.697-1.332-0.383 0.315-0.139 0.891-0.219 1.32-0.034 0-0.102 0-0.136 0-0.016-0.718-0.009-1.436-0.005-2.154z"></path>
<path fill="#6e6b6c" d="M17.249 11.121c0.289 0.329 0.055 0.868 0.131 1.279-0.057 0.277 0.153 0.728-0.129 0.885 0.004-0.721-0.033-1.443-0.002-2.164z"></path>
<path fill="#fcfcfc" d="M3.899 11.66c-0.033-0.227 0.257-0.363 0.441-0.267 0.223 0.073 0.23 0.345 0.231 0.541-0.007 0.377 0.068 0.803-0.203 1.111-0.133-0.004-0.265-0.008-0.398-0.011-0.14-0.443-0.067-0.917-0.070-1.374z"></path>
<path fill="#fafafa" d="M10.891 11.844c-0.043-0.149-0.134-0.367 0.023-0.475 0.186-0.017 0.375-0.016 0.561 0.007 0.124 0.099 0.149 0.363 0.001 0.449-0.195 0.022-0.391 0.013-0.585 0.019z"></path>
<path fill="#ccded1" d="M6.435 17.915c0.221-1.507 1.565-2.681 3.031-2.913 0.743 0.057 1.545-0.16 2.233 0.207 1.456 0.479 2.497 1.983 2.407 3.514-0.128 0.758-0.405 1.535-0.973 2.078-0.135 0.146-0.275 0.312-0.49 0.327 0.488-0.439 0.913-0.963 1.137-1.587 0.203-0.699 0.201-1.45-0.001-2.149-0.526-1.441-2.061-2.404-3.579-2.332-1.557-0.063-3.104 0.988-3.571 2.483-0.148 0.565-0.151 1.167-0.031 1.737 0.139 0.603 0.538 1.096 0.902 1.58-0.471-0.184-0.647-0.73-0.893-1.133-0.121-0.595-0.437-1.212-0.173-1.813z"></path>
<path fill="#699f79" d="M6.629 17.544c0.467-1.495 2.014-2.547 3.571-2.483 1.518-0.072 3.053 0.891 3.579 2.332 0.201 0.699 0.203 1.449 0.001 2.149-0.224 0.624-0.649 1.148-1.137 1.587-0.994 0.808-2.35 0.887-3.561 0.657-0.573-0.214-1.148-0.48-1.581-0.924-0.364-0.484-0.763-0.977-0.902-1.58-0.121-0.571-0.117-1.172 0.031-1.737M9.687 15.221c-1.251 0.211-2.498 1.023-2.868 2.288-0.37 0.824-0.151 1.775 0.257 2.539 0.898 1.399 2.803 2.114 4.368 1.485 1.114-0.327 2.017-1.28 2.305-2.398-0.011-0.619 0.141-1.301-0.193-1.861-0.634-1.449-2.329-2.292-3.869-2.053z"></path>
<path fill="#15682c" d="M9.687 15.221c1.539-0.239 3.235 0.603 3.869 2.053 0.334 0.561 0.182 1.243 0.193 1.861-0.288 1.118-1.191 2.071-2.305 2.398-1.565 0.629-3.47-0.085-4.368-1.485-0.408-0.765-0.627-1.715-0.257-2.539 0.37-1.265 1.617-2.077 2.868-2.288z"></path>
</svg>
