<!-- Generated by IcoMoon.io -->
<svg version="1.1" xmlns="http://www.w3.org/2000/svg" width="24" height="24" viewBox="0 0 24 24">
<title>regulatory--triple-lanes--g1</title>
<path fill="#c0111e" d="M10.98 0h2.021c1.38 0.208 2.766 0.486 4.033 1.096 3.893 1.734 6.564 5.677 6.966 9.893v2c-0.175 1.079-0.352 2.168-0.75 3.193-1.2 3.298-3.934 5.984-7.248 7.134-0.961 0.353-1.976 0.512-2.982 0.684h-2.021c-1.013-0.167-2.034-0.329-3.001-0.683-3.317-1.15-6.050-3.838-7.25-7.136-0.396-1.016-0.57-2.096-0.748-3.167v-2.010c0.388-4.164 2.99-8.064 6.805-9.834 1.306-0.652 2.742-0.954 4.175-1.17M10.968 2.339c-2.39 0.242-4.668 1.411-6.253 3.217-2.69 2.968-3.2 7.638-1.234 11.124 1.738 3.25 5.452 5.293 9.128 5.011 3.698-0.18 7.14-2.699 8.444-6.161 1.099-2.803 0.809-6.115-0.799-8.665-1.89-3.13-5.659-4.95-9.287-4.526z"></path>
<path fill="#fff" d="M10.968 2.339c3.628-0.424 7.397 1.397 9.287 4.526 1.608 2.55 1.898 5.862 0.799 8.665-1.304 3.462-4.746 5.981-8.444 6.161-3.677 0.282-7.391-1.762-9.128-5.011-1.967-3.486-1.457-8.156 1.234-11.124 1.585-1.806 3.863-2.975 6.253-3.217M5.686 13.603c-0.458-0.073-0.918-0.166-1.385-0.146 0.030 0.221 0.082 0.444 0.216 0.629 0.764 1.193 1.513 2.396 2.273 3.592 0.756-1.193 1.502-2.394 2.267-3.582 0.134-0.191 0.186-0.42 0.228-0.644-0.469-0.011-0.931 0.078-1.392 0.152-0.001-2.43-0.001-4.861-0.001-7.291-0.734 0-1.47 0-2.204 0-0.001 2.43 0 4.86-0.001 7.291M11.172 6.312c-0.001 2.43 0 4.861-0.001 7.291-0.457-0.073-0.917-0.16-1.382-0.158 0.022 0.206 0.066 0.416 0.185 0.593 0.772 1.211 1.534 2.428 2.302 3.641 0.788-1.254 1.584-2.504 2.37-3.76 0.119-0.148 0.065-0.336 0.065-0.506-0.446 0.052-0.889 0.119-1.332 0.192-0.001-2.431 0-4.861 0-7.292-0.736 0-1.471 0-2.206 0M17.212 6.314c-0.76 1.196-1.507 2.399-2.269 3.593-0.11 0.191-0.277 0.402-0.162 0.632 0.448 0.040 0.888-0.083 1.328-0.144 0.001 2.428 0 4.856 0 7.284 0.734 0 1.469 0 2.204 0 0.002-2.428 0-4.855 0.001-7.283 0.454 0.071 0.91 0.167 1.372 0.148-0.011-0.224-0.071-0.445-0.2-0.63-0.766-1.195-1.512-2.402-2.274-3.6z"></path>
<path fill="#000" d="M5.686 13.603c0.001-2.431 0-4.861 0.001-7.291 0.734 0 1.47 0 2.204 0 0 2.43 0 4.861 0.001 7.291 0.461-0.074 0.923-0.163 1.392-0.152-0.042 0.224-0.094 0.454-0.228 0.644-0.764 1.188-1.511 2.389-2.267 3.582-0.76-1.195-1.508-2.399-2.273-3.592-0.134-0.185-0.186-0.408-0.216-0.629 0.467-0.019 0.926 0.073 1.385 0.146z"></path>
<path fill="#000" d="M11.172 6.312c0.734 0 1.47 0 2.206 0 0 2.431-0.001 4.861 0 7.292 0.443-0.073 0.886-0.14 1.332-0.192 0 0.17 0.054 0.359-0.065 0.506-0.786 1.255-1.582 2.506-2.37 3.76-0.768-1.213-1.53-2.43-2.302-3.641-0.119-0.176-0.163-0.386-0.185-0.593 0.466-0.001 0.925 0.085 1.382 0.158 0.001-2.43 0-4.861 0.001-7.291z"></path>
<path fill="#000" d="M17.212 6.314c0.762 1.198 1.508 2.405 2.274 3.6 0.13 0.185 0.19 0.406 0.2 0.63-0.462 0.019-0.918-0.077-1.372-0.148-0.001 2.428 0.001 4.855-0.001 7.283-0.736 0-1.47 0-2.204 0 0-2.428 0.001-4.856 0-7.284-0.44 0.061-0.881 0.184-1.328 0.144-0.115-0.23 0.052-0.442 0.162-0.632 0.762-1.194 1.51-2.396 2.269-3.593z"></path>
</svg>
