<?xml version="1.0" encoding="utf-8"?>
<!-- Generated by IcoMoon.io -->
<!DOCTYPE svg PUBLIC "-//W3C//DTD SVG 1.1//EN" "http://www.w3.org/Graphics/SVG/1.1/DTD/svg11.dtd">
<svg version="1.1" xmlns="http://www.w3.org/2000/svg" xmlns:xlink="http://www.w3.org/1999/xlink" width="24" height="24" viewBox="0 0 24 24">
<path fill="#231f20" d="M17.978 7.475l-3.266 3.266v0.279c0 0.218 0.148 0.297 0.329 0.175l3.905-2.627c0.181-0.122 0.181-0.321 0-0.443zM7.614 14.79l2.788-2.788v-0.27c0-1.084 0.879-1.963 1.963-1.963h0.27l3.52-3.52-1.114-0.749c-0.181-0.122-0.329-0.043-0.329 0.175v1.266h-2.387c-2.602 0-4.712 2.11-4.712 4.712zM10.402 15.051l-2.788 2.788v1.29h2.788v-4.078z"></path>
<path fill="#e22526" d="M0.037 12c0 6.565 5.322 11.887 11.887 11.887s11.887-5.322 11.887-11.887-5.322-11.887-11.887-11.887c-6.565 0-11.887 5.322-11.887 11.887zM11.92 21.323c-2.184 0-4.192-0.751-5.781-2.009l13.092-13.092c1.258 1.589 2.009 3.597 2.009 5.781 0 5.147-4.173 9.32-9.32 9.32zM2.6 12.002c0-5.147 4.173-9.32 9.32-9.32 2.187 0 4.197 0.753 5.787 2.014l-13.093 13.093c-1.261-1.59-2.014-3.6-2.014-5.787z"></path>
</svg>
