<!-- Generated by IcoMoon.io -->
<svg version="1.1" xmlns="http://www.w3.org/2000/svg" width="24" height="24" viewBox="0 0 24 24">
<title>regulatory--bicycles-only--g4</title>
<path fill="#fff" d="M1.281 0h21.402l0.069 0.029c-0.939-0.024-1.878-0.006-2.817-0.012-6.245 0.005-12.491-0.011-18.736 0.008l0.082-0.025z"></path>
<path fill="#fff" d="M1.442 0.126c6.981-0.021 13.963-0.004 20.944-0.008 0.792-0.042 1.511 0.657 1.49 1.45 0.005 6.956 0.005 13.913 0 20.868 0.017 0.772-0.667 1.464-1.441 1.447-6.94 0.005-13.881 0.002-20.821 0.002-0.816 0.048-1.549-0.685-1.506-1.5-0.003-6.923-0.002-13.848-0-20.771-0.034-0.748 0.58-1.454 1.334-1.488M1.288 0.502c-0.498 0.109-0.853 0.609-0.831 1.112-0.001 6.941-0.003 13.881 0.001 20.822-0.015 0.591 0.514 1.119 1.105 1.1 6.842 0.004 13.684-0 20.526 0.002 0.293 0.003 0.606 0.012 0.87-0.137 0.366-0.194 0.586-0.608 0.571-1.019-0-6.937 0.003-13.875-0.002-20.813 0.017-0.59-0.507-1.119-1.099-1.102-6.84-0.005-13.68 0-20.52-0.002-0.208 0.001-0.419-0.011-0.623 0.037z"></path>
<path fill="#fff" d="M1.385 1.093c0.090-0.030 0.187-0.032 0.281-0.034 6.906 0.002 13.812-0.001 20.718 0.001 0.305-0.025 0.579 0.251 0.551 0.556 0.001 6.922 0 13.845 0 20.767 0.031 0.305-0.244 0.586-0.551 0.557-6.939-0.001-13.878 0.001-20.817-0.001-0.295 0.014-0.541-0.267-0.514-0.556 0-6.922 0-13.845 0-20.766-0.016-0.224 0.12-0.446 0.332-0.524M9.439 3.053c0.103 0.108 0.204 0.217 0.307 0.325-0.223 0.731-0.451 1.46-0.675 2.19-0.641-0.331-1.414-0.399-2.096-0.156-0.899 0.307-1.594 1.137-1.726 2.080-0.144 0.88 0.205 1.817 0.888 2.39 0.65 0.565 1.588 0.771 2.415 0.528 0.801-0.216 1.468-0.844 1.748-1.624 0.398-1.042 0.027-2.299-0.856-2.975 0.027-0.091 0.054-0.181 0.081-0.272 0.853 0.917 1.703 1.836 2.555 2.753-0.034 0.253 0.118 0.477 0.361 0.546 0.048 0.235 0.086 0.471 0.131 0.706-0.039 0.003-0.117 0.010-0.156 0.014 0.002 0.060 0.004 0.12 0.006 0.181 0.208 0 0.415 0 0.623 0-0.001-0.062-0.002-0.123-0.002-0.185-0.067-0.003-0.133-0.006-0.2-0.008-0.059-0.252-0.122-0.503-0.188-0.753 0.227-0.288 0.619-0.258 0.939-0.353 0.304 1.343 1.763 2.281 3.109 1.949 0.929-0.192 1.72-0.933 1.967-1.849 0.266-0.911-0.017-1.95-0.705-2.602-0.831-0.826-2.222-0.964-3.208-0.335-0.269-0.356-0.539-0.71-0.814-1.060 0.037-0.132 0.076-0.263 0.115-0.394 0.322-0.111 0.636-0.27 0.872-0.522-0.010-0.028-0.028-0.086-0.038-0.115-0.44-0.089-0.885 0.021-1.327 0.026-0.324 0.024-0.671-0.026-0.967 0.136 0.244 0.306 0.671 0.332 1.028 0.392-0.021 0.078-0.041 0.157-0.062 0.236-1.22 0-2.44-0-3.659 0 0.108-0.323 0.207-0.649 0.314-0.973-0.092-0.092-0.184-0.184-0.277-0.276 0.046-0.044 0.092-0.088 0.138-0.132 0.324 0.002 0.647-0 0.971 0.001-0.001-0.122-0.001-0.245-0.002-0.368-0.368 0.006-0.737-0.014-1.105 0.007-0.192 0.135-0.332 0.334-0.506 0.492M16.909 12.503c-0.391 0.235-0.588 0.816-0.295 1.2 0.314 0.396 0.913 0.307 1.257 0.656 0.237 0.284-0.008 0.723-0.353 0.756-0.334 0.073-0.638-0.168-0.741-0.474-0.154 0.049-0.309 0.098-0.463 0.146 0.115 0.353 0.367 0.683 0.74 0.782 0.468 0.152 1.030-0.033 1.277-0.469 0.233-0.386 0.16-0.962-0.227-1.224-0.311-0.223-0.726-0.212-1.038-0.426-0.203-0.177-0.042-0.496 0.183-0.562 0.261-0.113 0.531 0.048 0.661 0.276 0.154-0.051 0.309-0.1 0.462-0.152-0.21-0.573-0.944-0.844-1.464-0.509M2.844 12.398c0 1.061 0 2.122 0 3.184 0.166-0 0.331-0 0.496 0 0-0.629-0-1.257 0-1.886 0.251 0.6 0.485 1.207 0.738 1.806 0.248-0.589 0.474-1.187 0.729-1.774 0.012 0.618 0.002 1.235 0.005 1.852 0.166 0 0.333 0 0.499 0.001 0-1.061 0-2.123-0-3.184-0.167 0-0.333 0-0.499-0-0.242 0.607-0.485 1.213-0.735 1.816-0.248-0.605-0.491-1.212-0.738-1.817-0.165 0-0.331 0-0.496 0.001M7.002 12.398c-0.368 1.059-0.732 2.121-1.094 3.182 0.173 0.001 0.347 0.001 0.521 0.003 0.11-0.304 0.215-0.609 0.314-0.916 0.329-0 0.657 0.001 0.986-0.001 0.105 0.305 0.213 0.609 0.314 0.915 0.176 0.001 0.353 0.001 0.53 0.001-0.367-1.060-0.731-2.122-1.095-3.183-0.159-0-0.317-0.001-0.476-0.001M8.766 12.397c0.329 0.521 0.645 1.050 0.975 1.57 0.064 0.101 0.134 0.208 0.122 0.334 0.001 0.427-0.001 0.854-0 1.281 0.166 0 0.331-0 0.497 0 0-0.427-0.002-0.854-0.001-1.281-0.012-0.165 0.104-0.293 0.182-0.426 0.305-0.491 0.61-0.982 0.91-1.475-0.194-0.002-0.389-0.001-0.584-0.003-0.247 0.408-0.504 0.811-0.753 1.218-0.259-0.402-0.504-0.814-0.761-1.217-0.196 0-0.392 0-0.587-0M13.438 12.398c0.004 0.734-0.005 1.468 0.004 2.202 0.014 0.567 0.536 1.063 1.107 1.020 0.56-0.003 1.034-0.519 1.028-1.071 0.003-0.717-0-1.434 0.001-2.151-0.167 0-0.333 0-0.5 0-0.001 0.718 0.003 1.436-0.001 2.154 0.001 0.25-0.17 0.492-0.417 0.551-0.329 0.103-0.708-0.16-0.717-0.507-0.016-0.732-0-1.464-0.007-2.197-0.167-0-0.333-0-0.499-0.001M19.205 12.397c0.002 1.061 0 2.122 0.001 3.183 0.647 0.003 1.294-0 1.941 0.002-0-0.167-0-0.333 0-0.499-0.48-0.002-0.961-0-1.442-0.001-0-0.304 0-0.608-0-0.912 0.313 0.001 0.626 0.001 0.94 0 0-0.167 0-0.332 0-0.498-0.313-0-0.626 0-0.94-0.001 0-0.258 0-0.516-0-0.774 0.456 0.001 0.911 0 1.366 0-0-0.167-0-0.333-0.001-0.499-0.622-0.001-1.243 0.001-1.864-0.001M2.14 17.572c0 1.060-0.002 2.12 0.001 3.181 0.165-0.001 0.33-0.001 0.496 0-0.003-0.471-0-0.941-0.001-1.413 0.313 0 0.626 0 0.94 0 0-0.166 0-0.331 0-0.496-0.313 0-0.626 0-0.939 0-0-0.259-0-0.519-0-0.778 0.481 0 0.962 0 1.443 0-0.001-0.166-0.001-0.331-0.001-0.496-0.646 0-1.292-0-1.938 0M4.431 17.592c-0.009 0.716-0.003 1.433-0.003 2.15-0.004 0.576 0.525 1.093 1.105 1.049 0.553-0.004 1.026-0.501 1.029-1.049 0.005-0.724 0-1.448 0.002-2.171-0.166 0-0.331 0-0.496 0-0.002 0.723 0.005 1.447-0.002 2.171-0.001 0.301-0.278 0.567-0.579 0.553-0.297 0.003-0.56-0.261-0.559-0.558-0.010-0.722 0.001-1.444-0.005-2.167-0.163 0.006-0.332-0.022-0.49 0.022M6.912 17.57c0 1.060-0 2.121 0.001 3.181 0.646 0.001 1.292-0 1.938 0.001-0.001-0.166-0.002-0.332-0.002-0.498-0.48 0.002-0.96 0.001-1.44 0-0.001-0.895 0-1.789-0-2.684-0.166 0-0.331 0-0.496-0.001M9.098 17.571c0.001 1.060-0.002 2.121 0.001 3.181 0.647-0.001 1.294 0.001 1.941-0.001-0.002-0.165-0.002-0.33-0.003-0.495-0.48-0.001-0.96-0-1.441 0 0-0.895 0-1.79 0-2.686-0.167 0-0.333 0-0.499 0M12.527 17.571c0.001 1.060-0.002 2.12 0.001 3.181 0.647-0.001 1.294 0.001 1.941-0.001-0.002-0.165-0.002-0.33-0.003-0.495-0.481-0.001-0.962-0-1.443 0-0.001-0.895 0-1.79-0.001-2.685-0.165-0-0.331-0-0.496-0M14.618 20.749c0.174 0.002 0.347 0.003 0.521 0.004 0.106-0.305 0.215-0.608 0.312-0.916 0.33-0.002 0.66-0.001 0.989-0 0.102 0.306 0.206 0.611 0.313 0.915 0.175-0.001 0.351-0.001 0.527 0-0.367-1.060-0.726-2.124-1.098-3.183-0.157 0.001-0.314 0.001-0.471 0.001-0.37 1.057-0.733 2.117-1.093 3.178M17.427 17.571c0.001 1.060-0.002 2.12 0.002 3.181 0.165-0 0.329-0 0.494 0 0.003-0.701-0.004-1.403 0.004-2.104 0.401 0.697 0.787 1.402 1.178 2.104 0.153-0 0.306 0 0.459 0 0-1.060 0-2.121 0-3.181-0.166 0-0.331 0-0.497 0.001-0.001 0.698 0.006 1.396-0.004 2.095-0.405-0.692-0.785-1.397-1.178-2.095-0.153 0-0.306 0-0.458 0M19.913 17.571c0 1.059 0 2.119 0 3.178 0.646 0.006 1.292 0.001 1.939 0.003-0.001-0.165-0.001-0.331-0.001-0.496-0.48-0.001-0.961 0-1.441-0.001 0.001-0.305 0-0.609 0-0.914 0.313 0 0.627-0.001 0.941 0.001-0.001-0.166-0.001-0.331-0.001-0.496-0.313-0.001-0.626-0.001-0.939-0 0-0.26 0-0.519 0-0.778 0.456 0 0.912 0 1.368 0-0-0.165-0-0.33 0-0.494-0.622-0.004-1.243-0.001-1.865-0.002z"></path>
<path fill="#fff" d="M0 1.174l0.014 0.077c-0.015 6.538-0.002 13.077-0.006 19.614 0.002 0.644-0.010 1.289 0.017 1.932l-0.024-0.077v-21.547z"></path>
<path fill="#fff" d="M9.778 4.72c1.218 0 2.437 0 3.655 0-0.327 1.049-0.649 2.099-0.983 3.146-0.038-0.172-0.069-0.345-0.103-0.517 0.067 0 0.134 0 0.2 0 0-0.066 0-0.132 0-0.198-0.208 0-0.416 0-0.624 0-0 0.064-0.001 0.128-0.002 0.192 0.061 0.003 0.121 0.007 0.182 0.011 0.035 0.143 0.071 0.286 0.103 0.43-0.852-0.901-1.689-1.817-2.528-2.73 0.033-0.111 0.066-0.221 0.099-0.333z"></path>
<path fill="#fff" d="M13.799 5.013c0.219 0.271 0.425 0.552 0.637 0.829-0.626 0.537-0.964 1.373-0.902 2.194-0.244 0.051-0.488 0.103-0.732 0.151 0.331-1.058 0.662-2.117 0.997-3.174z"></path>
<path fill="#fff" d="M15.049 5.977c0.513-0.295 1.143-0.384 1.712-0.211 0.793 0.23 1.421 0.954 1.516 1.777 0.101 0.699-0.177 1.433-0.709 1.896-0.579 0.524-1.456 0.682-2.183 0.398-0.655-0.242-1.153-0.824-1.329-1.495 0.685-0.155 1.377-0.286 2.060-0.452 0.16-0.028 0.242-0.203 0.133-0.334-0.388-0.535-0.805-1.050-1.201-1.58z"></path>
<path fill="#fff" d="M6.556 6.164c0.666-0.513 1.628-0.557 2.354-0.145-0.273 0.658-0.623 1.369-1.295 1.694-0.267 0.251 0.146 0.611 0.388 0.39 0.116-0.204 0.246-0.401 0.428-0.553 0.374-0.35 0.643-0.793 0.851-1.257 0.478 0.439 0.752 1.094 0.698 1.745-0.047 0.868-0.68 1.659-1.512 1.907-1.013 0.334-2.206-0.223-2.606-1.21-0.394-0.882-0.094-2.006 0.693-2.569z"></path>
<path fill="#fff" d="M14 7.939c-0.032-0.648 0.245-1.286 0.719-1.724 0.34 0.457 0.692 0.907 1.031 1.365-0.583 0.12-1.166 0.244-1.75 0.36z"></path>
<path fill="#fff" d="M7.235 13.241c0.109 0.309 0.219 0.617 0.318 0.929-0.211 0-0.423 0.001-0.634-0 0.107-0.309 0.214-0.618 0.315-0.928z"></path>
<path fill="#fff" d="M15.945 18.407c0.107 0.312 0.212 0.624 0.321 0.935-0.213 0-0.425 0-0.637-0.001 0.105-0.312 0.216-0.621 0.316-0.934z"></path>
<path fill="#fff" d="M23.926 22.943c-0.041-0.060-0.036-0.116 0.016-0.168 0.032 0.060 0.027 0.116-0.016 0.168z"></path>
<path fill="#fff" d="M1.298 23.987c7.167-0.009 14.334 0.014 21.502-0.011l-0.080 0.024-21.421-0.013z"></path>
<path fill="#34373d" d="M0.014 1.251c0.116-0.599 0.59-1.092 1.185-1.226 6.245-0.019 12.49-0.003 18.736-0.008 0.939 0.005 1.878-0.013 2.817 0.012 0.631 0.127 1.158 0.668 1.223 1.315-0.036 0.236-0.024 0.476-0.024 0.714 0.001 6.885-0.002 13.769 0.001 20.653-0.003 0.016-0.009 0.048-0.012 0.064-0.052 0.052-0.057 0.109-0.016 0.168-0.156 0.516-0.608 0.905-1.126 1.033-7.167 0.025-14.335 0.002-21.502 0.011-0.617-0.093-1.141-0.579-1.274-1.19-0.026-0.644-0.014-1.288-0.017-1.932 0.004-6.538-0.008-13.077 0.006-19.614M1.442 0.126c-0.754 0.035-1.368 0.741-1.334 1.488-0.001 6.923-0.002 13.848 0 20.771-0.043 0.815 0.69 1.547 1.506 1.5 6.94 0 13.881 0.003 20.821-0.002 0.774 0.017 1.458-0.675 1.441-1.447 0.004-6.956 0.005-13.912-0-20.868 0.021-0.792-0.698-1.491-1.49-1.45-6.982 0.004-13.964-0.012-20.944 0.008z"></path>
<path fill="#2b2e34" d="M1.288 0.502c0.204-0.048 0.415-0.036 0.623-0.037 6.84 0.002 13.68-0.002 20.52 0.002 0.591-0.017 1.115 0.512 1.099 1.102 0.005 6.938 0.001 13.876 0.002 20.813 0.015 0.411-0.205 0.825-0.571 1.019-0.264 0.148-0.577 0.14-0.87 0.137-6.842-0.003-13.684 0.002-20.526-0.002-0.591 0.019-1.12-0.509-1.105-1.1-0.004-6.941-0.002-13.881-0.001-20.822-0.023-0.504 0.333-1.003 0.831-1.112M1.385 1.093c-0.211 0.078-0.348 0.3-0.332 0.524 0 6.922 0 13.844 0 20.766-0.027 0.289 0.218 0.57 0.514 0.556 6.939 0.003 13.878 0 20.817 0.001 0.306 0.028 0.582-0.252 0.551-0.557 0-6.922 0-13.845-0-20.767 0.029-0.305-0.246-0.582-0.551-0.556-6.906-0.002-13.812 0.001-20.718-0.001-0.094 0.002-0.191 0.004-0.281 0.034z"></path>
<path fill="#2b2e34" d="M9.439 3.053c0.174-0.158 0.313-0.357 0.506-0.492 0.368-0.021 0.737-0.001 1.105-0.007 0.001 0.123 0.001 0.245 0.002 0.368-0.324-0.002-0.647 0-0.971-0.001-0.046 0.044-0.092 0.088-0.138 0.132 0.093 0.092 0.185 0.184 0.277 0.276-0.107 0.324-0.206 0.65-0.314 0.973 1.22-0.001 2.44 0 3.659-0 0.021-0.078 0.041-0.157 0.062-0.236-0.358-0.060-0.784-0.086-1.028-0.392 0.296-0.162 0.643-0.112 0.967-0.136 0.442-0.006 0.887-0.116 1.327-0.026 0.010 0.028 0.028 0.086 0.038 0.115-0.237 0.251-0.55 0.41-0.872 0.522-0.039 0.131-0.078 0.263-0.115 0.394 0.275 0.351 0.545 0.705 0.814 1.060 0.985-0.629 2.377-0.491 3.208 0.335 0.688 0.652 0.971 1.691 0.705 2.602-0.247 0.917-1.038 1.658-1.967 1.849-1.346 0.332-2.805-0.606-3.109-1.949-0.321 0.095-0.712 0.065-0.939 0.353 0.066 0.25 0.129 0.501 0.188 0.753 0.067 0.002 0.133 0.005 0.2 0.008 0 0.062 0.001 0.123 0.002 0.185-0.208-0-0.415-0-0.623-0-0.002-0.060-0.004-0.12-0.006-0.181 0.039-0.004 0.117-0.011 0.156-0.014-0.046-0.235-0.083-0.471-0.131-0.706-0.244-0.069-0.395-0.293-0.361-0.546-0.852-0.917-1.703-1.836-2.555-2.753-0.026 0.091-0.054 0.181-0.081 0.272 0.883 0.676 1.253 1.933 0.856 2.975-0.28 0.779-0.947 1.407-1.748 1.624-0.826 0.243-1.765 0.037-2.415-0.528-0.683-0.573-1.032-1.51-0.888-2.39 0.132-0.942 0.827-1.773 1.726-2.080 0.682-0.242 1.455-0.174 2.096 0.156 0.224-0.73 0.452-1.459 0.675-2.19-0.103-0.108-0.204-0.217-0.307-0.325M9.778 4.72c-0.033 0.111-0.066 0.222-0.099 0.333 0.839 0.913 1.676 1.829 2.528 2.73-0.032-0.144-0.068-0.287-0.103-0.43-0.061-0.003-0.121-0.007-0.182-0.011 0.001-0.064 0.002-0.128 0.002-0.192 0.208 0 0.416 0 0.624 0-0 0.066-0 0.132-0 0.198-0.067 0-0.134 0-0.2 0 0.034 0.172 0.065 0.345 0.103 0.517 0.334-1.047 0.655-2.097 0.983-3.146-1.219-0-2.437 0-3.655-0M13.799 5.013c-0.335 1.057-0.666 2.116-0.997 3.174 0.244-0.048 0.488-0.1 0.732-0.151-0.062-0.821 0.276-1.657 0.902-2.194-0.212-0.277-0.418-0.558-0.637-0.829M15.049 5.977c0.396 0.53 0.813 1.045 1.201 1.58 0.109 0.131 0.027 0.305-0.133 0.334-0.683 0.166-1.375 0.296-2.060 0.452 0.176 0.671 0.673 1.253 1.329 1.495 0.727 0.285 1.604 0.126 2.183-0.398 0.532-0.463 0.81-1.197 0.709-1.896-0.095-0.824-0.723-1.548-1.516-1.777-0.569-0.173-1.2-0.085-1.712 0.211M6.556 6.164c-0.786 0.563-1.087 1.687-0.693 2.569 0.4 0.987 1.592 1.544 2.606 1.21 0.831-0.248 1.464-1.039 1.512-1.907 0.053-0.65-0.221-1.305-0.698-1.745-0.208 0.464-0.477 0.907-0.851 1.257-0.182 0.152-0.312 0.349-0.428 0.553-0.242 0.221-0.655-0.139-0.388-0.39 0.672-0.325 1.022-1.036 1.295-1.694-0.727-0.411-1.688-0.367-2.354 0.145M14 7.939c0.584-0.115 1.167-0.24 1.75-0.36-0.339-0.458-0.691-0.907-1.031-1.365-0.474 0.438-0.751 1.077-0.719 1.724z"></path>
<path fill="#2b2e34" d="M16.909 12.503c0.519-0.335 1.253-0.064 1.464 0.509-0.154 0.052-0.309 0.101-0.462 0.152-0.13-0.228-0.401-0.388-0.661-0.276-0.225 0.066-0.386 0.385-0.183 0.562 0.312 0.214 0.728 0.203 1.038 0.426 0.386 0.262 0.459 0.838 0.227 1.224-0.247 0.435-0.809 0.621-1.277 0.469-0.373-0.099-0.624-0.429-0.74-0.782 0.154-0.048 0.309-0.097 0.463-0.146 0.103 0.306 0.407 0.547 0.741 0.474 0.345-0.033 0.59-0.473 0.353-0.756-0.344-0.349-0.943-0.26-1.257-0.656-0.293-0.383-0.096-0.964 0.295-1.2z"></path>
<path fill="#2b2e34" d="M2.844 12.398c0.165-0 0.331-0 0.496-0.001 0.247 0.605 0.489 1.212 0.738 1.817 0.25-0.603 0.493-1.209 0.735-1.816 0.167 0 0.333 0 0.499 0 0 1.061 0 2.122 0 3.184-0.167-0-0.333-0-0.499-0.001-0.003-0.618 0.006-1.235-0.005-1.852-0.255 0.586-0.48 1.185-0.729 1.774-0.253-0.599-0.487-1.206-0.738-1.806-0 0.629 0 1.257 0 1.886-0.166-0-0.331-0-0.496 0 0-1.061 0-2.122 0-3.184z"></path>
<path fill="#2b2e34" d="M7.002 12.398c0.158 0 0.317 0 0.476 0.001 0.364 1.061 0.727 2.123 1.095 3.183-0.177-0-0.354-0-0.53-0.001-0.101-0.307-0.209-0.611-0.314-0.915-0.329 0.002-0.657 0.001-0.986 0.001-0.099 0.307-0.204 0.613-0.314 0.916-0.174-0.001-0.347-0.001-0.521-0.003 0.362-1.061 0.726-2.123 1.094-3.182M7.235 13.241c-0.102 0.311-0.209 0.619-0.315 0.928 0.211 0.001 0.423 0.001 0.634 0-0.099-0.312-0.209-0.62-0.318-0.929z"></path>
<path fill="#2b2e34" d="M8.766 12.397c0.195 0.001 0.391 0.001 0.587 0 0.257 0.404 0.502 0.815 0.761 1.217 0.248-0.408 0.506-0.81 0.753-1.218 0.194 0.001 0.389 0 0.584 0.003-0.3 0.494-0.605 0.984-0.91 1.475-0.077 0.133-0.194 0.261-0.182 0.426-0.001 0.427 0.001 0.854 0.001 1.281-0.166-0-0.331 0-0.497 0-0.001-0.427 0.002-0.854 0-1.281 0.011-0.125-0.059-0.233-0.122-0.334-0.331-0.52-0.647-1.049-0.975-1.57z"></path>
<path fill="#2b2e34" d="M13.438 12.398c0.167 0 0.333 0 0.499 0.001 0.006 0.732-0.009 1.465 0.007 2.197 0.009 0.347 0.388 0.61 0.717 0.507 0.247-0.059 0.419-0.301 0.417-0.551 0.004-0.718 0-1.436 0.001-2.154 0.167 0 0.333 0 0.5 0-0.002 0.717 0.002 1.434-0.001 2.151 0.006 0.552-0.468 1.068-1.028 1.071-0.571 0.043-1.094-0.453-1.107-1.020-0.010-0.734 0-1.468-0.004-2.202z"></path>
<path fill="#2b2e34" d="M19.205 12.397c0.621 0.002 1.243 0 1.864 0.001 0 0.166 0 0.332 0.001 0.499-0.456 0-0.911 0-1.366-0 0.001 0.258 0 0.516 0 0.774 0.313 0.001 0.626 0 0.94 0.001 0 0.166 0 0.332-0 0.498-0.313 0.001-0.626 0.001-0.94 0 0.001 0.304 0 0.608 0 0.912 0.481 0.001 0.961-0.001 1.442 0.001-0 0.166-0 0.332 0 0.499-0.647-0.002-1.294 0.001-1.941-0.002-0.001-1.061 0.001-2.122-0.001-3.183z"></path>
<path fill="#2b2e34" d="M2.14 17.572c0.646-0.001 1.292-0 1.938-0 0 0.166 0 0.331 0.001 0.496-0.481-0-0.962 0-1.443-0 0 0.259 0 0.519 0 0.778 0.313 0 0.626 0 0.939 0 0 0.165 0 0.331 0 0.496-0.313-0-0.626 0-0.94-0 0.001 0.471-0.001 0.942 0.001 1.413-0.166-0.001-0.331-0.001-0.496-0-0.003-1.060-0.001-2.121-0.001-3.181z"></path>
<path fill="#2b2e34" d="M4.431 17.592c0.159-0.044 0.327-0.016 0.49-0.022 0.006 0.722-0.005 1.445 0.005 2.167-0 0.297 0.262 0.561 0.559 0.558 0.301 0.013 0.578-0.253 0.579-0.553 0.007-0.723 0-1.447 0.002-2.171 0.166 0 0.331 0 0.496 0-0.001 0.723 0.003 1.447-0.002 2.171-0.003 0.548-0.475 1.045-1.029 1.049-0.58 0.044-1.109-0.473-1.105-1.049 0-0.717-0.006-1.434 0.003-2.15z"></path>
<path fill="#2b2e34" d="M6.912 17.57c0.166 0.001 0.331 0.001 0.496 0.001 0 0.895-0 1.789 0 2.684 0.48 0.001 0.96 0.001 1.44-0 0 0.166 0.001 0.332 0.002 0.498-0.646-0.001-1.292 0-1.938-0.001-0.001-1.060-0-2.121-0.001-3.181z"></path>
<path fill="#2b2e34" d="M9.098 17.571c0.167 0 0.333 0 0.499-0-0 0.895 0 1.79-0 2.686 0.48-0 0.961-0.001 1.441 0 0.001 0.165 0.001 0.33 0.003 0.495-0.647 0.002-1.294 0-1.941 0.001-0.003-1.060-0-2.12-0.001-3.181z"></path>
<path fill="#2b2e34" d="M12.527 17.571c0.165 0 0.331 0 0.496 0 0.001 0.895-0 1.79 0.001 2.685 0.481-0 0.962-0.001 1.443 0 0.001 0.165 0.001 0.33 0.003 0.495-0.647 0.002-1.294 0-1.941 0.001-0.003-1.060-0-2.12-0.001-3.181z"></path>
<path fill="#2b2e34" d="M14.618 20.749c0.36-1.060 0.723-2.12 1.093-3.178 0.157 0 0.314 0 0.471-0.001 0.371 1.059 0.73 2.122 1.098 3.183-0.175-0.001-0.351-0.001-0.527-0-0.107-0.305-0.211-0.609-0.313-0.915-0.33-0.001-0.659-0.001-0.989 0-0.097 0.308-0.206 0.611-0.312 0.916-0.174-0.001-0.347-0.002-0.521-0.004M15.945 18.407c-0.099 0.313-0.211 0.622-0.316 0.934 0.212 0.001 0.424 0.001 0.637 0.001-0.109-0.311-0.214-0.623-0.321-0.935z"></path>
<path fill="#2b2e34" d="M17.427 17.571c0.153 0 0.306 0 0.458 0 0.393 0.698 0.773 1.404 1.178 2.095 0.010-0.698 0.002-1.397 0.004-2.095 0.166-0 0.331-0 0.497-0.001 0 1.060 0 2.121 0 3.181-0.153 0-0.306-0-0.459 0-0.392-0.702-0.778-1.407-1.178-2.104-0.008 0.701-0.001 1.403-0.004 2.104-0.165-0-0.329-0-0.494 0-0.004-1.060-0.001-2.12-0.002-3.181z"></path>
<path fill="#2b2e34" d="M19.913 17.571c0.622 0.001 1.243-0.002 1.865 0.002-0 0.165-0 0.329 0 0.494-0.456-0-0.912 0-1.368-0 0 0.26 0 0.519 0 0.778 0.313-0.001 0.626-0.001 0.939 0 0 0.165 0 0.33 0.001 0.496-0.314-0.002-0.627-0-0.941-0.001 0 0.305 0 0.61-0 0.914 0.48 0.002 0.961 0 1.441 0.001 0 0.165 0 0.331 0.001 0.496-0.647-0.002-1.293 0.003-1.939-0.003 0-1.059 0-2.118 0-3.178z"></path>
<path fill="#898a8e" d="M23.975 1.344l0.025-0.086v21.381l-0.047 0.072c-0.003-6.885 0-13.769-0.001-20.653-0-0.238-0.012-0.478 0.024-0.714z"></path>
</svg>
