<!-- Generated by IcoMoon.io -->
<svg version="1.1" xmlns="http://www.w3.org/2000/svg" width="24" height="24" viewBox="0 0 24 24">
<title>regulatory--night-speed-limit-30--g1</title>
<path fill="#fff" d="M0.911 0h22.176c0.446 0.102 0.81 0.467 0.913 0.913v22.171c-0.101 0.447-0.467 0.812-0.913 0.915h-22.173c-0.446-0.102-0.81-0.466-0.914-0.911v-22.176c0.102-0.445 0.466-0.81 0.911-0.913M1.566 0.587c-0.558 0.060-1.006 0.584-0.99 1.143 0 6.862-0.003 13.723 0.002 20.585-0.001 0.644 0.615 1.173 1.25 1.111 6.814-0.002 13.628 0 20.443-0.001 0.621 0.021 1.176-0.534 1.155-1.155 0.001-6.846 0.001-13.693 0-20.539 0.021-0.621-0.534-1.177-1.155-1.155-6.72-0.001-13.44-0-20.16-0-0.181 0.002-0.363-0.009-0.544 0.012z"></path>
<path fill="#fff" d="M10.478 4.006c0.514-0.678 1.703-0.593 2.082 0.184-0.167 0.098-0.335 0.196-0.504 0.291-0.205-0.417-0.822-0.527-1.122-0.156-0.347 0.48-0.351 1.218 0.023 1.685 0.331 0.393 1.108 0.193 1.073-0.368-0.18-0.001-0.361-0-0.541-0.003-0.001-0.175-0.001-0.35-0.001-0.525 0.372-0 0.743 0.003 1.116-0.002-0.002 0.413 0.036 0.869-0.228 1.22-0.473 0.645-1.582 0.549-1.994-0.118-0.405-0.662-0.386-1.589 0.095-2.208z"></path>
<path fill="#fff" d="M4.662 3.614c0.181 0.001 0.362 0.001 0.543 0 0.439 0.683 0.889 1.358 1.317 2.048-0.005-0.683 0.002-1.366-0.004-2.049 0.186 0.003 0.372 0.003 0.558-0-0.005 1.035-0.002 2.071-0.001 3.106-0.168 0-0.336 0-0.504-0-0.451-0.7-0.924-1.388-1.357-2.1 0.015 0.7 0.004 1.4 0.007 2.1-0.186 0.001-0.372 0.001-0.557 0-0.003-1.035 0-2.070-0.001-3.105z"></path>
<path fill="#fff" d="M8.351 3.615c0.191 0 0.382 0 0.572 0-0.002 1.035 0 2.069-0.001 3.104-0.19 0.001-0.38 0.002-0.57-0.002-0.002-1.034-0.001-2.068-0-3.101z"></path>
<path fill="#fff" d="M13.74 3.612c0.188 0.004 0.375 0.003 0.563 0 0.003 0.413-0 0.827 0.001 1.24 0.431-0.004 0.863 0.009 1.294-0.006 0.045-0.399 0.024-0.826 0.008-1.234 0.187 0.002 0.373 0.001 0.559 0.001 0 1.034 0.001 2.068 0 3.102-0.183 0.004-0.366 0.002-0.549 0.003 0.009-0.44 0-0.88 0.005-1.32-0.438-0.029-0.878-0.007-1.318-0.013-0.002 0.443 0.001 0.887-0.001 1.331-0.187 0.001-0.374 0.001-0.561 0 0-1.035 0.004-2.071-0.002-3.106z"></path>
<path fill="#fff" d="M17.215 3.598c0.767-0.002 1.534-0.001 2.301-0 0.001 0.18 0.001 0.361 0 0.542-0.288 0.001-0.577-0-0.865 0.001-0.001 0.859 0 1.718-0 2.577-0.188 0.002-0.375 0.001-0.563 0-0.001-0.859 0-1.718-0.001-2.577-0.291-0.001-0.581 0.001-0.871-0.001-0.001-0.18-0.002-0.361 0-0.541z"></path>
<path fill="#fff" d="M4.701 9.761c1.357-0.66 3.16-0.544 4.282 0.521 0.872 0.812 1.13 2.189 0.63 3.266-0.218 0.479-0.6 0.869-1.052 1.133 0.738 0.307 1.364 0.927 1.579 1.709 0.288 1.111-0.010 2.405-0.874 3.19-0.595 0.547-1.393 0.826-2.187 0.91-0.966 0.104-1.988-0.038-2.824-0.556-0.734-0.445-1.277-1.16-1.589-1.952 0.577-0.23 1.153-0.462 1.731-0.69 0.318 0.726 0.98 1.331 1.792 1.407 0.529 0.053 1.1-0.009 1.548-0.318 0.767-0.518 0.784-1.8 0.061-2.363-0.644-0.495-1.5-0.341-2.254-0.372-0.005-0.6-0.004-1.201-0-1.802 0.388-0.010 0.776 0.009 1.163-0.011 0.481-0.035 0.963-0.319 1.138-0.784 0.22-0.582 0.073-1.364-0.503-1.683-0.532-0.282-1.21-0.269-1.743 0.005-0.372 0.194-0.638 0.535-0.833 0.898-0.577-0.227-1.161-0.439-1.733-0.677 0.326-0.776 0.911-1.451 1.67-1.827z"></path>
<path fill="#fff" d="M16.424 9.393c0.893-0.112 1.852 0.024 2.601 0.552 1.272 0.907 1.706 2.544 1.836 4.024 0.119 1.763-0.011 3.688-1.053 5.182-1.018 1.477-3.225 1.769-4.711 0.864-0.794-0.495-1.304-1.335-1.593-2.207-0.489-1.537-0.518-3.199-0.246-4.78 0.188-0.966 0.542-1.941 1.232-2.664 0.504-0.539 1.205-0.877 1.935-0.97M16.752 11.177c-0.504 0.058-0.931 0.406-1.172 0.84-0.389 0.694-0.503 1.5-0.555 2.283-0.044 0.88-0.015 1.773 0.197 2.632 0.133 0.506 0.334 1.023 0.726 1.387 0.567 0.54 1.561 0.53 2.118-0.020 0.359-0.34 0.555-0.81 0.688-1.278 0.241-0.886 0.265-1.814 0.225-2.726-0.052-0.763-0.162-1.547-0.531-2.228-0.306-0.618-1.006-1.013-1.695-0.89z"></path>
<path fill="#000" d="M1.566 0.587c0.18-0.022 0.363-0.010 0.544-0.012 6.72 0 13.44-0.001 20.16 0 0.621-0.022 1.176 0.534 1.155 1.155 0.001 6.847 0.001 13.693 0 20.539 0.021 0.621-0.534 1.176-1.155 1.155-6.814 0.002-13.628-0.001-20.443 0.001-0.634 0.062-1.251-0.467-1.25-1.111-0.005-6.862-0.002-13.723-0.002-20.585-0.016-0.559 0.433-1.083 0.99-1.143M10.478 4.006c-0.481 0.619-0.501 1.545-0.095 2.208 0.411 0.667 1.521 0.762 1.994 0.118 0.264-0.351 0.225-0.806 0.228-1.22-0.372 0.005-0.744 0.002-1.116 0.002-0 0.175-0 0.35 0.001 0.525 0.18 0.003 0.36 0.002 0.541 0.003 0.035 0.561-0.742 0.761-1.073 0.368-0.374-0.467-0.37-1.205-0.023-1.685 0.3-0.371 0.916-0.261 1.122 0.156 0.169-0.094 0.337-0.193 0.504-0.291-0.379-0.777-1.568-0.863-2.082-0.184M4.662 3.614c0.002 1.035-0.001 2.070 0.001 3.105 0.186 0.001 0.372 0.001 0.557 0-0.003-0.7 0.009-1.401-0.007-2.1 0.433 0.712 0.906 1.4 1.357 2.1 0.168 0.001 0.336 0.001 0.504 0-0-1.035-0.004-2.071 0.001-3.106-0.186 0.004-0.372 0.003-0.558 0 0.006 0.683-0.001 1.366 0.004 2.049-0.428-0.69-0.878-1.365-1.317-2.048-0.181 0.001-0.362 0.001-0.543 0M8.351 3.615c-0 1.034-0.001 2.068 0 3.101 0.19 0.005 0.38 0.003 0.57 0.002 0.002-1.035-0-2.069 0.001-3.104-0.191 0-0.382 0-0.572 0M13.74 3.612c0.006 1.035 0.002 2.071 0.002 3.106 0.187 0 0.374 0 0.561-0 0.002-0.444-0-0.887 0.001-1.331 0.439 0.006 0.879-0.016 1.318 0.013-0.005 0.44 0.004 0.88-0.005 1.32 0.183-0.001 0.366 0 0.549-0.003 0.001-1.034 0-2.068 0-3.102-0.186 0-0.373 0.001-0.559-0.001 0.016 0.408 0.037 0.835-0.008 1.234-0.431 0.015-0.863 0.001-1.294 0.006-0.002-0.413 0.001-0.827-0.001-1.24-0.188 0.003-0.375 0.003-0.563-0M17.215 3.598c-0.002 0.18-0.002 0.361-0 0.541 0.29 0.003 0.581 0 0.871 0.001 0.001 0.859-0 1.718 0.001 2.577 0.188 0.001 0.375 0.001 0.563-0 0.001-0.859-0.001-1.718 0-2.577 0.288-0.001 0.577 0 0.865-0.001 0.001-0.181 0.001-0.362 0-0.542-0.767-0.001-1.534-0.002-2.301 0M4.701 9.761c-0.759 0.376-1.343 1.051-1.67 1.827 0.573 0.238 1.156 0.45 1.733 0.677 0.195-0.363 0.462-0.704 0.833-0.898 0.533-0.273 1.211-0.286 1.743-0.005 0.577 0.319 0.723 1.102 0.503 1.683-0.175 0.465-0.657 0.749-1.138 0.784-0.387 0.021-0.775 0.001-1.163 0.011-0.003 0.601-0.004 1.202 0 1.802 0.755 0.031 1.61-0.123 2.254 0.372 0.722 0.563 0.706 1.845-0.061 2.363-0.448 0.309-1.019 0.372-1.548 0.318-0.812-0.076-1.474-0.681-1.792-1.407-0.577 0.229-1.154 0.461-1.731 0.69 0.312 0.793 0.855 1.507 1.589 1.952 0.836 0.519 1.858 0.66 2.824 0.556 0.794-0.084 1.592-0.363 2.187-0.91 0.864-0.785 1.162-2.079 0.874-3.19-0.215-0.782-0.84-1.402-1.579-1.709 0.451-0.264 0.834-0.654 1.052-1.133 0.5-1.078 0.242-2.454-0.63-3.266-1.122-1.065-2.926-1.181-4.283-0.521M16.424 9.393c-0.729 0.094-1.43 0.431-1.935 0.97-0.69 0.723-1.044 1.698-1.232 2.664-0.273 1.581-0.243 3.243 0.246 4.78 0.289 0.871 0.799 1.712 1.593 2.207 1.486 0.905 3.693 0.613 4.711-0.864 1.042-1.494 1.172-3.419 1.053-5.182-0.129-1.48-0.563-3.117-1.836-4.024-0.749-0.528-1.708-0.663-2.601-0.552z"></path>
<path fill="#000" d="M16.752 11.177c0.689-0.123 1.389 0.271 1.695 0.89 0.369 0.681 0.479 1.465 0.531 2.228 0.041 0.912 0.017 1.84-0.225 2.726-0.132 0.467-0.329 0.938-0.688 1.278-0.557 0.549-1.551 0.56-2.118 0.020-0.391-0.364-0.592-0.88-0.726-1.387-0.212-0.859-0.24-1.752-0.197-2.632 0.052-0.783 0.166-1.589 0.555-2.283 0.241-0.434 0.668-0.783 1.172-0.84z"></path>
</svg>
