<svg xmlns="http://www.w3.org/2000/svg" width="24" height="24">
    <path fill="#035ab2" d="M10.589 0h.927c.001 7.977.01 15.956-.005 23.934-.318.019-.646-.029-.956.066-2.298-.387-4.564-1.266-6.334-2.825C1.878 19.249.45 16.379.001 13.409v-2.801c.44-2.977 1.874-5.852 4.22-7.782C6.001 1.262 8.277.379 10.59 0zM5.674 6.193c-.44.1-.572.719-.24 1.011.308.311.894.117.977-.306.128-.421-.329-.829-.737-.705zm.112 1.368c-.456.29-.149.859-.115 1.27-.308.202-.641.359-.965.53-.521-.609-1.131-1.31-2.021-1.279-.396.102-.688-.184-1.044-.29.497.757-.158 1.648-.19 2.466-.183.451.523.803.751.377.093-.357.328-.64.606-.872.5.857.3 1.916.836 2.745-.421.13-1.067-.051-1.309.414-.023.568-.064 1.153.024 1.713.254.229.557.548.917.532.131-.315-.075-.58-.277-.799-.089-.345-.023-.72-.034-1.076.497-.015.996-.014 1.492-.001.309.717.587 1.45.862 2.182-.08.213-.202.407-.292.614.446.115 1.015-.212.919-.717-.232-.788-.586-1.537-.841-2.318.832.066 1.625-.214 2.437-.322.139.332.272.67.364 1.02-.28.244-.587.454-.869.696-.463.332-.06.937-.011 1.381.4-.106.541-.511.471-.886.354-.346.774-.618 1.123-.969.084-.303-.137-.613-.146-.922.955.641 1.663 1.995.949 3.037.472.105 1.043-.222.996-.749-.12-.826-.241-1.693-.814-2.341a13.53 13.53 0 0 1 0-1.878c1.167.234-.23 2.08 1.06 2.389-.022-.965.393-2.761-1.079-2.769-.788-.544-1.781-.589-2.68-.315.314-.742-.142-1.515-.22-2.27.009-.443-.484-.862-.899-.591zM12.472 0h.923c2.32.373 4.6 1.261 6.386 2.826C22.122 4.751 23.555 7.62 24 10.588v2.807c-.329 1.957-.974 3.896-2.15 5.517-1.925 2.757-5.06 4.684-8.419 5.016-.319-.005-.638.014-.957.008-.014-7.979-.011-15.957-.001-23.936zm2.874 2.317c-.984.364-.35 1.967.617 1.532 1.024-.327.369-2-.617-1.532zm-.467 2.354c-.336.91-.67 1.822-.986 2.74-.135.277.272.523.485.326.273-.509.373-1.097.67-1.593.195 1.672-.963 3.1-1.241 4.69.074.396.678.518.863.143.407-.977.684-2.006 1.114-2.972-.188 1.111.42 2.071.895 3.02.236.368.859.064.734-.345-.198-.554-.5-1.065-.709-1.614-.027-1-.022-2-.001-3 .566.37.116 1.112.421 1.584.499.235.48-.454.452-.757.13-.929-.679-1.577-1.072-2.332-.324-.654-1.388-.571-1.626.11zm3.911.335c-.443.175-.534.831-.153 1.118.373.343 1.047.073 1.085-.43.084-.486-.489-.92-.932-.688zm-.324 1.967c-.239.686-.541 1.356-.71 2.06.522.543.537-.543.859-.774-.075.911-.606 1.712-.82 2.593-.036.291.378.451.558.223.313-.62.471-1.31.777-1.934-.068.726.2 1.429.628 2.002.34.218.638-.251.387-.526-.55-.846-.305-1.871-.345-2.821.387.308.138.826.289 1.227l.311.027c.424-.876-.254-1.718-.754-2.397-.359-.38-1.034-.156-1.181.32zm-2.588 6.224c-.262.691-.421 1.417-.68 2.11-1.137-.191-2.281.855-2.006 2.02.184 1.243 1.877 1.817 2.778.943.94-.757.661-2.302-.368-2.839l.107-.328c.643.701 1.331 1.399 1.824 2.214.245.16.485-.077.724-.131.213.663.642 1.367 1.404 1.482 1.164.315 2.337-.91 1.997-2.063-.198-.945-1.245-1.463-2.149-1.255-.194-.474-.71-.986-.471-1.518.232-.05.577-.123.378-.433-.384-.04-.783-.064-1.162.018l.024.311.363.106-.121.262c-.836.013-1.672.009-2.507.001.033-.17.082-.336.147-.495.216-.063.446-.042.661-.102.103-.518-.643-.359-.943-.303z"/>
    <path fill="#035ab2" d="M4.995 9.767c.257-.131.511-.273.775-.389.065.18.117.368.129.56-.296.343-.726.206-.904-.171zM15.878 14.511c.841.004 1.684-.013 2.525.009a38.09 38.09 0 0 1-.654 2.118c-.714-.523-1.384-1.388-1.871-2.127zM18.249 16.861c-.097-.651.351-1.376.514-2.039.134.226.253.462.346.709-.46.317-.684.822-.86 1.33zM13.547 17.234c-.185-.872.671-1.704 1.538-1.542-.091.485-.364.927-.425 1.413l.254.109c.333-.378.393-.908.577-1.363.829.412.91 1.697.144 2.214-.734.597-1.951.093-2.089-.83zM19.675 15.715c.742-.185 1.56.363 1.637 1.129.115.726-.491 1.454-1.226 1.48-.656.063-1.279-.461-1.37-1.107.475-.032.954.026 1.426-.032.161-.494-.378-.966-.467-1.469z"/>
    <path fill="#035ab2" d="M18.783 16.792c-.057-.323.208-.712.491-.831.171.253.286.543.387.831-.294.004-.586.005-.878 0z"/>
    <path fill="#fff" d="M11.516 0h.956c-.01 7.979-.013 15.957.001 23.936.319.006.638-.013.957-.008l.134.071h-3.01c.31-.096.638-.047.956-.066.015-7.977.006-15.956.005-23.934zM15.346 2.317c.986-.469 1.64 1.205.617 1.532-.966.435-1.601-1.168-.617-1.532z"/>
    <path fill="#fff" d="M14.879 4.671c.239-.68 1.302-.763 1.626-.11.393.756 1.203 1.403 1.072 2.332.028.303.047.992-.452.757-.305-.472.144-1.214-.421-1.584-.02 1-.026 2 .001 3 .208.549.511 1.06.709 1.614.125.409-.498.712-.734.345-.475-.95-1.083-1.91-.895-3.02-.43.966-.707 1.995-1.114 2.972-.185.375-.789.253-.863-.143.278-1.591 1.436-3.018 1.241-4.69-.297.497-.397 1.084-.67 1.593-.213.198-.62-.049-.485-.326.315-.918.65-1.829.986-2.74zM18.79 5.006c.443-.232 1.016.202.932.688-.038.503-.712.774-1.085.43-.38-.287-.29-.943.153-1.118zM5.674 6.193c.407-.124.864.283.737.705-.083.424-.669.618-.977.306-.332-.292-.2-.911.24-1.011zM18.466 6.973c.147-.476.822-.701 1.181-.32.5.679 1.178 1.522.754 2.397l-.311-.027c-.151-.401.098-.919-.289-1.227.04.95-.206 1.975.345 2.821.251.274-.047.744-.387.526-.428-.573-.696-1.275-.628-2.002-.306.624-.465 1.314-.777 1.934-.18.227-.594.068-.558-.223.213-.881.744-1.681.82-2.593-.322.231-.337 1.316-.859.774.169-.705.471-1.375.71-2.06zM5.786 7.561c.415-.271.908.148.899.591.078.754.534 1.528.22 2.27.899-.273 1.892-.229 2.68.315 1.472.008 1.057 1.804 1.079 2.769-1.289-.309.107-2.155-1.06-2.389a13.53 13.53 0 0 0 0 1.878c.573.649.694 1.515.814 2.341.047.527-.523.854-.996.749.715-1.042.006-2.396-.949-3.037.009.309.23.619.146.922-.35.351-.77.623-1.123.969.07.375-.071.78-.471.886-.049-.444-.452-1.049.011-1.381.282-.241.59-.452.869-.696a7.78 7.78 0 0 0-.364-1.02c-.812.107-1.605.388-2.437.322.255.781.609 1.531.841 2.318.096.506-.474.832-.919.717.091-.207.212-.401.292-.614a49.158 49.158 0 0 0-.862-2.182 26.505 26.505 0 0 0-1.492.001c.011.356-.055.731.034 1.076.202.22.409.484.277.799-.36.015-.663-.304-.917-.532-.088-.56-.047-1.145-.024-1.713.241-.465.887-.283 1.309-.414-.536-.829-.336-1.888-.836-2.745-.278.232-.513.514-.606.872-.227.426-.933.074-.751-.377.032-.818.687-1.709.19-2.466.356.106.649.392 1.044.29.89-.031 1.5.67 2.021 1.279.324-.171.657-.328.965-.53-.034-.411-.341-.98.115-1.27zm-.791 2.206c.177.377.608.514.904.171a1.992 1.992 0 0 0-.129-.56c-.264.116-.518.258-.775.389zM15.878 13.197c.3-.056 1.047-.216.943.303-.216.06-.446.04-.661.102a2.68 2.68 0 0 0-.147.495c.835.008 1.671.011 2.507-.001l.121-.262-.363-.106-.024-.311c.379-.082.777-.057 1.162-.018.199.31-.146.383-.378.433-.239.532.277 1.044.471 1.518.904-.208 1.951.31 2.149 1.255.341 1.153-.832 2.378-1.997 2.063-.762-.115-1.191-.82-1.404-1.482-.239.055-.479.291-.724.131-.493-.814-1.181-1.513-1.824-2.214l-.107.328c1.029.537 1.307 2.082.368 2.839-.901.873-2.594.3-2.778-.943-.276-1.164.868-2.211 2.006-2.02.259-.693.419-1.42.68-2.11zm0 1.314c.488.739 1.158 1.603 1.871 2.127a38.09 38.09 0 0 0 .654-2.118c-.841-.022-1.684-.005-2.525-.009zm2.371 2.35c.176-.508.401-1.014.86-1.33a4.556 4.556 0 0 0-.346-.709c-.163.663-.611 1.388-.514 2.039zm-4.702.373c.138.923 1.354 1.427 2.089.83.766-.517.684-1.801-.144-2.214-.184.456-.244.986-.577 1.363l-.254-.109c.061-.486.334-.928.425-1.413-.867-.162-1.723.67-1.538 1.542zm6.128-1.519c.089.503.628.975.467 1.469-.472.057-.951 0-1.426.032.091.646.714 1.169 1.37 1.107.734-.026 1.34-.753 1.226-1.48-.077-.766-.895-1.314-1.637-1.129zm-.892 1.077c.292.005.585.004.878 0-.101-.289-.216-.578-.387-.831-.283.119-.549.508-.491.831z"/>
</svg>
