<!-- Generated by IcoMoon.io -->
<svg version="1.1" xmlns="http://www.w3.org/2000/svg" width="24" height="24" viewBox="0 0 24 24">
<title>regulatory--all-directions-permitted--g3</title>
<path fill="#000" d="M1.052 0h21.744c0.648 0.056 1.165 0.648 1.13 1.298 0.008 6.846 0 13.693 0.004 20.54-0.006 0.392 0.031 0.791-0.053 1.178-0.155 0.556-0.727 0.94-1.298 0.902-6.846 0-13.692-0.002-20.538 0.001-0.498-0.011-1.054 0.076-1.486-0.234-0.336-0.22-0.5-0.61-0.556-0.994v-21.422c-0.004-0.612 0.461-1.148 1.052-1.271M1.118 0.599c-0.313 0.073-0.552 0.382-0.528 0.706-0.006 6.926 0.001 13.853-0.004 20.778 0.012 0.338-0.062 0.733 0.182 1.010 0.157 0.2 0.424 0.238 0.662 0.229 7.084-0.006 14.168 0.002 21.252-0.004 0.4 0.013 0.71-0.368 0.667-0.754 0-7.082 0.001-14.165-0.001-21.247 0.048-0.432-0.354-0.784-0.774-0.739-6.884-0.006-13.769 0-20.653-0.004-0.269 0.004-0.539-0.014-0.804 0.024z"></path>
<path fill="#000" d="M9.312 2.72c1.086-0.001 2.172 0 3.258 0-0.001 1.574 0.002 3.15-0.002 4.726-0.066 0.674 0.373 1.276 0.865 1.688 0.548 0.454 1.199 0.857 1.932 0.866 1.662-0.019 3.324-0.004 4.986-0.008 0 1.069-0.001 2.138 0 3.208-1.666 0-3.33 0-4.996 0-3.061 0.012-5.852-2.59-6.044-5.646 0.002-1.612 0.001-3.223 0.001-4.834z"></path>
<path fill="#000" d="M1.853 9.755c2.101-0.001 4.201 0 6.302 0 0 0.593 0 1.186 0 1.778-2.101 0.001-4.201 0-6.302 0 0-0.593 0-1.186 0-1.778z"></path>
<path fill="#000" d="M11.027 14.663c0.593 0 1.186-0.001 1.78 0 0 2.094 0 4.187 0 6.28-0.593 0.001-1.186 0.001-1.778 0.001-0.002-2.094-0.001-4.187-0.001-6.281z"></path>
<path fill="#fff" d="M1.118 0.599c0.265-0.038 0.535-0.020 0.804-0.024 6.884 0.004 13.769-0.002 20.653 0.004 0.42-0.044 0.822 0.307 0.774 0.739 0.002 7.082 0.001 14.165 0.001 21.247 0.043 0.385-0.268 0.767-0.667 0.754-7.084 0.006-14.168-0.002-21.252 0.004-0.239 0.008-0.505-0.029-0.662-0.229-0.245-0.277-0.17-0.672-0.182-1.010 0.005-6.925-0.002-13.852 0.004-20.778-0.024-0.324 0.215-0.632 0.528-0.706M9.312 2.72c0 1.61 0.001 3.222-0.001 4.834 0.192 3.056 2.983 5.658 6.044 5.646 1.666 0 3.33 0 4.996 0-0.001-1.069 0-2.138 0-3.208-1.662 0.005-3.324-0.011-4.986 0.008-0.733-0.010-1.384-0.413-1.932-0.866-0.492-0.413-0.931-1.014-0.865-1.688 0.005-1.576 0.001-3.151 0.002-4.726-1.086 0-2.172-0.001-3.258 0M1.853 9.755c0 0.593 0 1.186 0 1.778 2.101 0 4.201 0.001 6.302 0 0-0.593 0-1.186 0-1.778-2.101 0-4.201-0.001-6.302 0M11.027 14.663c0 2.094-0.001 4.187 0.001 6.281 0.593 0 1.186 0 1.778-0.001 0-2.093 0-4.186 0-6.28-0.594-0.001-1.187 0-1.78 0z"></path>
</svg>
