<!-- Generated by IcoMoon.io -->
<svg version="1.1" xmlns="http://www.w3.org/2000/svg" width="23" height="24" viewBox="0 0 23 24">
<title>regulatory--no-pedestrians--g3</title>
<path fill="#dd8188" d="M0 0h23.469v0.106c-7.823-0.001-15.646-0.004-23.469 0.002v-0.108z"></path>
<path fill="#c0111e" d="M0 0.108c7.823-0.006 15.646-0.003 23.469-0.002v23.773c-7.434 0.019-14.866 0-22.3 0.010-0.39 0.001-0.782 0.007-1.169-0.042v-23.738M4.799 3.493c1.621 1.617 3.238 3.238 4.857 4.856-0.56 0.451-1.176 0.844-1.646 1.395-1.539-1.57-3.106-3.113-4.658-4.67-0.001 5.096-0.001 10.194 0 15.29 5.098 0.001 10.197-0.001 15.296 0.001-1.377-1.366-2.744-2.742-4.116-4.112 0.413-0.168 0.989-0.407 0.906-0.959-0.17-0.676-0.535-1.285-0.779-1.937 1.861 1.848 3.707 3.708 5.565 5.558 0.001-5.141 0.001-10.282 0-15.423-5.142 0-10.283-0.002-15.425 0z"></path>
<path fill="#fff" d="M4.799 3.493c5.142-0.002 10.283 0 15.425 0 0.001 5.141 0.001 10.282 0 15.423-1.857-1.85-3.704-3.71-5.565-5.558 0.244 0.652 0.61 1.261 0.779 1.937 0.083 0.552-0.493 0.791-0.906 0.959 1.372 1.37 2.739 2.746 4.116 4.112-5.099-0.002-10.198 0-15.296-0.001-0.001-5.096-0.001-10.194 0-15.29 1.552 1.558 3.119 3.101 4.658 4.67 0.47-0.551 1.086-0.944 1.646-1.395-1.619-1.618-3.237-3.239-4.857-4.856M10.735 4.375c-0.054 0.158-0.107 0.318-0.159 0.478-0.149 0.033-0.297 0.067-0.445 0.101 0.135 0.078 0.27 0.153 0.406 0.229 0.037 0.467 0.274 0.871 0.666 1.129-0.728 0.558-0.673 1.53-1.002 2.3-0.519 0.53-1.18 0.907-1.696 1.446 0.106 0.076 0.212 0.152 0.32 0.228 0.114-0.048 0.228-0.095 0.342-0.142 0.089 0.047 0.178 0.095 0.269 0.141 0.432-0.311 0.868-0.62 1.318-0.907 0.105 0.405 0.265 0.803 0.292 1.223-0.269 0.532-0.753 0.93-0.962 1.499-0.397 1.057-0.667 2.157-1.014 3.232-0.191 0.081-0.382 0.162-0.571 0.25 0.552 0.114 1.11 0.2 1.668 0.271 0.453-1.415 0.596-3.114 1.816-4.117 0.582 1.223 1.097 2.481 1.625 3.73-0.144 0.2-0.285 0.404-0.41 0.617 0.602-0.12 1.153-0.401 1.708-0.654-0.635-1.57-1.347-3.106-1.99-4.672 0.256-0.887-0.138-1.813-0.162-2.713 0.274 0.296 0.605 0.55 0.818 0.896 0.122 0.641 0.080 1.361 0.55 1.88 0.507-0.718 0.309-1.695 0.046-2.464-0.684-0.788-1.253-1.788-2.295-2.144 0.008-0.319 0.041-0.636 0.069-0.954 0.159-0.042 0.319-0.085 0.478-0.127-0.242-0.193-0.456-0.419-0.607-0.691-0.356-0.051-0.715-0.066-1.074-0.065M5.724 16.941c0.133 0.057 0.267 0.113 0.401 0.168-0.006 0.125-0.011 0.251-0.015 0.377-0.138 0.002-0.276 0.005-0.414 0.010-0.016 0.487-0.067 0.981 0.011 1.465-0.008 0.177 0.268 0.179 0.286 0.011 0.070-0.376 0.027-0.762 0.034-1.143 0.388 0.003 0.775 0.002 1.163-0.002 0 0.428-0.002 0.857 0.019 1.285 0.652-0.168 0.216-1.12 0.312-1.613-0.194-0.008-0.39-0.014-0.584-0.017 0.17-0.232 0.331-0.468 0.468-0.722-0.551 0.003-1.237-0.245-1.681 0.182M9.815 16.725c-0.157 0.013-0.211 0.106-0.161 0.281 0.425 0.083 0.871 0.083 1.296-0.001 0.022-0.511-0.784-0.267-1.134-0.28M12.762 16.662c-0.029 0.875-0.008 1.75-0.016 2.625-0.154-0.002-0.308-0.004-0.462-0.005-0.018-0.548 0.063-1.107-0.058-1.646-0.059 0.003-0.176 0.007-0.235 0.010-0.116 0.525-0.039 1.069-0.054 1.601-0.235 0.057-0.598-0.011-0.623 0.321 1.016 0.154 2.063 0.068 3.090 0.035-0.015-0.078-0.042-0.232-0.057-0.309-0.415-0.010-0.832-0.010-1.247-0.010 0.001-0.348 0.001-0.696 0.003-1.044 0.255-0.22 0.879-0.308 0.722-0.754-0.256 0.076-0.492 0.203-0.73 0.322 0.007-0.384 0.005-0.769-0.007-1.153-0.082 0.001-0.244 0.005-0.326 0.007M5.021 16.773c-0.135 0.125-0.139 0.508 0.075 0.512 0.359 0.042 0.136-0.813-0.075-0.512M8.136 17.487c0.427 0.191 0.897-0.315 0.891-0.72-0.426-0.024-0.635 0.457-0.891 0.72M9.474 17.791c0.277 0.030 0.555 0.047 0.834 0.058 0.139 0.566-0.336 1.525 0.323 1.803 0.044-0.598 0.029-1.198 0.023-1.797 0.164-0.016 0.328-0.033 0.492-0.050-0.002-0.075-0.006-0.227-0.008-0.304-0.531 0.078-1.371-0.294-1.663 0.289M4.602 17.721c0.141 0.084 0.282 0.169 0.426 0.252-0.004 0.331-0.004 0.663-0.010 0.994-0.117 0.191-0.225 0.388-0.321 0.59 0.156-0.028 0.312-0.055 0.468-0.085 0.674 0.157 1.373 0.088 2.059 0.097 0.199 0 0.665-0.031 0.393-0.312-0.734-0.102-1.48-0.005-2.219-0.057-0.041-0.508 0.016-1.022-0.051-1.527-0.169-0.262-0.53-0.053-0.745 0.049M8.185 18.588c0.149-0.027 0.298-0.055 0.447-0.084 0.072 0.362-0.219 1.009 0.267 1.129 0.198-0.518-0.045-1.104 0.199-1.612 0.057-0.141 0.142-0.293 0.038-0.436-0.416 0.211-0.811 0.542-0.95 1.004M6.34 18.138c0.050 0.062 0.15 0.184 0.2 0.244-0.056 0.118-0.113 0.237-0.169 0.355 0.087 0.104 0.174 0.209 0.26 0.314 0.091-0.103 0.183-0.206 0.274-0.308-0.056-0.121-0.113-0.241-0.168-0.361 0.048-0.059 0.143-0.176 0.191-0.235-0.091-0.087-0.184-0.175-0.274-0.262-0.105 0.084-0.209 0.169-0.314 0.253z"></path>
<path fill="#fff" d="M0 23.846c0.388 0.050 0.779 0.044 1.169 0.042 7.434-0.010 14.866 0.010 22.3-0.010v0.121h-23.469v-0.154z"></path>
<path fill="#0366b3" d="M10.735 4.375c0.359-0.001 0.718 0.014 1.074 0.065 0.152 0.272 0.365 0.498 0.607 0.691-0.159 0.042-0.319 0.085-0.478 0.127-0.028 0.318-0.061 0.635-0.069 0.954 1.042 0.356 1.611 1.356 2.295 2.144 0.263 0.769 0.461 1.746-0.046 2.464-0.47-0.518-0.428-1.238-0.55-1.88-0.212-0.346-0.544-0.6-0.818-0.896 0.024 0.901 0.418 1.827 0.162 2.713 0.644 1.565 1.355 3.102 1.99 4.672-0.554 0.253-1.105 0.534-1.708 0.654 0.125-0.213 0.265-0.417 0.41-0.617-0.528-1.249-1.043-2.506-1.625-3.73-1.22 1.004-1.362 2.703-1.816 4.117-0.559-0.071-1.116-0.157-1.668-0.271 0.189-0.087 0.38-0.169 0.571-0.25 0.347-1.075 0.617-2.175 1.014-3.232 0.209-0.569 0.693-0.967 0.962-1.499-0.027-0.421-0.187-0.819-0.292-1.223-0.45 0.287-0.886 0.596-1.318 0.907-0.090-0.047-0.179-0.095-0.269-0.141-0.114 0.048-0.228 0.095-0.342 0.142-0.107-0.076-0.213-0.152-0.32-0.228 0.516-0.539 1.177-0.916 1.696-1.446 0.329-0.77 0.274-1.743 1.002-2.3-0.392-0.258-0.629-0.662-0.666-1.129-0.136-0.076-0.271-0.152-0.406-0.229 0.148-0.034 0.296-0.068 0.445-0.101 0.052-0.16 0.105-0.32 0.159-0.478z"></path>
<path fill="#0366b3" d="M5.724 16.941c0.444-0.427 1.13-0.178 1.681-0.182-0.137 0.254-0.298 0.491-0.468 0.722 0.194 0.003 0.39 0.008 0.584 0.017-0.097 0.493 0.34 1.445-0.312 1.613-0.021-0.428-0.019-0.857-0.019-1.285-0.388 0.004-0.775 0.005-1.163 0.002-0.007 0.38 0.036 0.767-0.034 1.143-0.018 0.169-0.294 0.167-0.286-0.011-0.078-0.484-0.027-0.978-0.011-1.465 0.138-0.004 0.276-0.007 0.414-0.010 0.004-0.126 0.008-0.252 0.015-0.377-0.135-0.055-0.269-0.11-0.401-0.168M6.426 17.096c-0.027 0.541 0.533-0.193 0 0z"></path>
<path fill="#0366b3" d="M9.815 16.725c0.35 0.014 1.156-0.23 1.134 0.28-0.425 0.084-0.871 0.084-1.296 0.001-0.050-0.175 0.004-0.269 0.161-0.281z"></path>
<path fill="#0366b3" d="M12.762 16.662c0.082-0.002 0.244-0.006 0.326-0.007 0.013 0.384 0.015 0.769 0.007 1.153 0.238-0.119 0.474-0.245 0.73-0.322 0.157 0.446-0.467 0.534-0.722 0.754-0.002 0.348-0.002 0.696-0.003 1.044 0.415 0 0.832 0 1.247 0.010 0.015 0.078 0.042 0.232 0.057 0.309-1.027 0.033-2.074 0.119-3.090-0.035 0.025-0.331 0.389-0.263 0.623-0.321 0.015-0.532-0.062-1.077 0.054-1.601 0.058-0.002 0.175-0.006 0.235-0.010 0.121 0.539 0.040 1.098 0.058 1.646 0.154 0.001 0.308 0.003 0.462 0.005 0.007-0.875-0.013-1.75 0.016-2.625z"></path>
<path fill="#0366b3" d="M5.021 16.773c0.211-0.302 0.434 0.554 0.075 0.512-0.215-0.004-0.21-0.387-0.075-0.512z"></path>
<path fill="#0366b3" d="M8.136 17.487c0.256-0.263 0.465-0.744 0.891-0.72 0.006 0.405-0.464 0.911-0.891 0.72z"></path>
<path fill="#0366b3" d="M9.474 17.791c0.292-0.583 1.132-0.211 1.663-0.289 0.002 0.076 0.006 0.228 0.008 0.304-0.164 0.017-0.328 0.034-0.492 0.050 0.005 0.599 0.020 1.199-0.023 1.797-0.658-0.278-0.184-1.237-0.323-1.803-0.278-0.012-0.556-0.029-0.834-0.058z"></path>
<path fill="#0366b3" d="M4.602 17.721c0.216-0.102 0.577-0.311 0.745-0.049 0.067 0.505 0.010 1.019 0.051 1.527 0.739 0.052 1.486-0.045 2.219 0.057 0.272 0.281-0.194 0.312-0.393 0.312-0.686-0.008-1.385 0.061-2.059-0.097-0.156 0.030-0.312 0.057-0.468 0.085 0.096-0.203 0.204-0.399 0.321-0.59 0.005-0.331 0.005-0.663 0.010-0.994-0.143-0.083-0.285-0.168-0.426-0.252z"></path>
<path fill="#0366b3" d="M8.185 18.588c0.139-0.462 0.534-0.792 0.95-1.004 0.104 0.143 0.019 0.295-0.038 0.436-0.243 0.508-0.001 1.094-0.199 1.612-0.485-0.12-0.194-0.767-0.267-1.129-0.149 0.029-0.298 0.057-0.447 0.084z"></path>
<path fill="#0366b3" d="M6.34 18.138c0.105-0.084 0.209-0.169 0.314-0.253 0.090 0.087 0.183 0.175 0.274 0.262-0.048 0.058-0.143 0.175-0.191 0.235 0.055 0.12 0.112 0.24 0.168 0.361-0.091 0.102-0.183 0.205-0.274 0.308-0.086-0.105-0.173-0.21-0.26-0.314 0.056-0.118 0.113-0.237 0.169-0.355-0.050-0.061-0.15-0.183-0.2-0.244z"></path>
<path fill="#e4eff7" d="M6.426 17.096c0.533-0.193-0.027 0.541 0 0z"></path>
</svg>
