<!-- Generated by IcoMoon.io -->
<svg version="1.1" xmlns="http://www.w3.org/2000/svg" width="24" height="24" viewBox="0 0 24 24">
<title>regulatory--end-of-maximum-speed-limit-30--g1</title>
<path fill="#fff" d="M11.094 0h1.839c1.767 0.161 3.511 0.67 5.047 1.569 2.492 1.421 4.441 3.765 5.378 6.478 0.349 0.982 0.543 2.013 0.642 3.049v1.835c-0.162 1.768-0.67 3.513-1.57 5.049-1.537 2.7-4.162 4.757-7.155 5.592-0.761 0.224-1.548 0.338-2.334 0.428h-1.872c-1.723-0.156-3.419-0.648-4.928-1.499-2.632-1.467-4.68-3.953-5.593-6.828-0.292-0.885-0.448-1.807-0.547-2.731v-1.876c0.093-0.878 0.237-1.754 0.503-2.597 0.835-2.747 2.7-5.16 5.139-6.673 1.635-1.035 3.529-1.632 5.453-1.795M11.366 0.596c-2.156 0.11-4.272 0.862-6.022 2.123-2.383 1.696-4.065 4.341-4.582 7.221-0.593 3.166 0.236 6.566 2.238 9.091 1.792 2.312 4.505 3.884 7.404 4.281 3.22 0.47 6.617-0.526 9.064-2.672 2.294-1.966 3.75-4.876 3.929-7.894 0.127-1.87-0.219-3.77-0.999-5.474-1.192-2.645-3.436-4.793-6.13-5.87-1.548-0.626-3.235-0.903-4.902-0.807z"></path>
<path fill="#fff" d="M7.030 2.388c2.218-1.158 4.844-1.5 7.286-0.96 1.32 0.285 2.581 0.826 3.703 1.577-0.839 0.854-1.692 1.692-2.535 2.542-0.045 0.040-0.085 0.096-0.15 0.105-1.245 0.3-2.355 1.312-2.58 2.602-0.574 0.618-1.189 1.208-1.791 1.803 0.414-1.68-0.53-3.551-2.11-4.236-1.083-0.44-2.409-0.428-3.396 0.247-0.956 0.644-1.649 1.714-1.71 2.88 0.624 0.005 1.249 0.005 1.874-0 0.115-0.812 0.811-1.498 1.641-1.532 0.928-0.072 1.833 0.69 1.897 1.623 0.083 0.683-0.256 1.409-0.877 1.728-0.519 0.288-1.128 0.22-1.697 0.248 0.009 0.552-0.018 1.106 0.014 1.657 0.532 0.014 1.090-0.063 1.593 0.16-0.847 0.855-1.702 1.704-2.553 2.557-0.029-0.063-0.058-0.126-0.085-0.189-0.623-0.021-1.246-0.005-1.868-0.008 0.061 0.566 0.246 1.121 0.535 1.612-0.401 0.408-0.805 0.813-1.214 1.213-1.757-2.594-2.287-5.968-1.417-8.977 0.792-2.843 2.815-5.31 5.44-6.655z"></path>
<path fill="#fff" d="M16.365 5.517c0.717-0.718 1.433-1.437 2.153-2.152 0.081 0.058 0.163 0.116 0.234 0.186-0.672 0.663-1.331 1.339-2.006 1.998-0.128-0.012-0.255-0.022-0.382-0.033z"></path>
<path fill="#fff" d="M17.458 5.692c0.591-0.581 1.171-1.174 1.762-1.756 0.073 0.067 0.144 0.135 0.216 0.203-0.564 0.562-1.121 1.132-1.693 1.686-0.094-0.046-0.19-0.090-0.285-0.134z"></path>
<path fill="#fff" d="M18.315 6.111c0.516-0.515 1.030-1.032 1.547-1.545 0.069 0.071 0.136 0.143 0.202 0.217-0.499 0.503-1 1.004-1.502 1.503-0.082-0.059-0.165-0.117-0.247-0.175z"></path>
<path fill="#fff" d="M20.449 5.248c0.067 0.074 0.128 0.153 0.186 0.235-0.472 0.476-0.946 0.949-1.421 1.421-0.066-0.073-0.133-0.145-0.199-0.217 0.475-0.482 0.958-0.956 1.433-1.439z"></path>
<path fill="#fff" d="M19.543 7.433c0.48-0.487 0.963-0.972 1.452-1.451 1.654 2.445 2.226 5.582 1.549 8.454-0.649 2.887-2.557 5.455-5.12 6.929-2.344 1.372-5.217 1.8-7.86 1.177-1.275-0.289-2.493-0.821-3.579-1.548 0.906-0.905 1.795-1.835 2.728-2.707 1.043-0.351 1.932-1.202 2.259-2.261 0.532-0.591 1.123-1.135 1.682-1.705-0.017 0.774 0.014 1.581 0.37 2.286 0.377 0.778 1.1 1.345 1.89 1.665 1.409 0.563 3.122 0.17 4.148-0.946 0.608-0.645 0.86-1.549 0.863-2.419 0.002-1.89 0-3.781 0.001-5.671 0.001-0.617-0.1-1.246-0.381-1.801z"></path>
<path fill="#fff" d="M15.662 7.501c0.159-0.043 0.323-0.060 0.487-0.081-0.517 0.528-1.040 1.050-1.567 1.567-0-0.154 0.020-0.307 0.062-0.454 0.313-0.365 0.673-0.696 1.018-1.033z"></path>
<path fill="#fff" d="M14.517 9.921c0.794-0.818 1.604-1.623 2.419-2.421 0.087 0.051 0.174 0.101 0.261 0.153-0.882 0.882-1.766 1.762-2.646 2.647-0.009-0.127-0.020-0.253-0.034-0.379z"></path>
<path fill="#fff" d="M14.521 11.191c1.035-1.063 2.095-2.102 3.143-3.153 0.053 0.085 0.107 0.17 0.16 0.255-1.089 1.094-2.182 2.184-3.274 3.276-0.008-0.127-0.017-0.253-0.029-0.379z"></path>
<path fill="#fff" d="M14.525 12.457c1.155-1.175 2.323-2.339 3.495-3.497 0.046 1.84 0.007 3.683 0.021 5.524 0.012 0.498-0.029 1.031-0.32 1.454-0.622 0.935-2.205 0.949-2.847 0.029-0.226-0.321-0.317-0.717-0.331-1.104-0.018-0.802 0.015-1.604-0.018-2.405z"></path>
<path fill="#fff" d="M9.924 11.958c0.904-0.908 1.811-1.813 2.718-2.718 0.008 0.126 0.018 0.252 0.023 0.379-0.82 0.859-1.678 1.687-2.516 2.531-0.075-0.064-0.15-0.128-0.225-0.192z"></path>
<path fill="#fff" d="M10.568 12.582c0.693-0.689 1.383-1.381 2.073-2.072 0.008 0.125 0.019 0.251 0.025 0.376-0.622 0.674-1.3 1.312-1.947 1.967-0.051-0.090-0.101-0.181-0.151-0.271z"></path>
<path fill="#fff" d="M12.645 11.78c0.007 0.135 0.012 0.27 0.016 0.405-0.521 0.528-1.049 1.049-1.572 1.575-0.032-0.111-0.062-0.222-0.091-0.333 0.55-0.548 1.098-1.098 1.647-1.647z"></path>
<path fill="#fff" d="M12.645 13.054c0.006 0.133 0.011 0.267 0.016 0.4-0.478 0.487-0.964 0.966-1.446 1.449-0.019-0.126-0.028-0.254-0.033-0.381 0.48-0.496 0.976-0.978 1.462-1.469z"></path>
<path fill="#fff" d="M5.941 15.943c0.915-0.923 1.84-1.838 2.756-2.76 0.075 0.064 0.15 0.128 0.225 0.194-0.919 0.93-1.849 1.849-2.771 2.776-0.071-0.069-0.141-0.139-0.21-0.21z"></path>
<path fill="#fff" d="M6.643 16.511c0.852-0.855 1.707-1.708 2.56-2.562 0.030 0.106 0.060 0.211 0.094 0.316-0.771 0.794-1.556 1.576-2.348 2.349-0.102-0.036-0.204-0.070-0.307-0.104z"></path>
<path fill="#fff" d="M9.227 15.202c-0.009 0.231-0.128 0.436-0.235 0.634-0.144 0.166-0.3 0.322-0.468 0.465-0.203 0.102-0.405 0.265-0.643 0.249 0.443-0.455 0.893-0.902 1.346-1.348z"></path>
<path fill="#fff" d="M3.366 18.518c0.396-0.406 0.804-0.801 1.2-1.207 0.074 0.066 0.149 0.131 0.223 0.197-0.414 0.416-0.822 0.84-1.25 1.242-0.057-0.078-0.115-0.156-0.174-0.232z"></path>
<path fill="#fff" d="M3.937 19.218c0.44-0.444 0.882-0.885 1.325-1.325 0.084 0.056 0.168 0.113 0.252 0.17-0.459 0.457-0.915 0.916-1.374 1.372-0.069-0.071-0.137-0.143-0.203-0.217z"></path>
<path fill="#fff" d="M4.566 19.86c0.519-0.517 1.030-1.043 1.558-1.55 0.096 0.043 0.193 0.084 0.29 0.126-0.545 0.54-1.084 1.087-1.631 1.627-0.074-0.066-0.146-0.133-0.217-0.203z"></path>
<path fill="#fff" d="M5.249 20.449c0.656-0.645 1.294-1.309 1.958-1.945 0.127 0.012 0.255 0.021 0.383 0.030-0.708 0.695-1.402 1.404-2.108 2.1-0.081-0.058-0.159-0.12-0.234-0.186z"></path>
<path fill="#000" d="M11.366 0.596c1.666-0.097 3.354 0.18 4.902 0.807 2.694 1.076 4.938 3.225 6.13 5.87 0.78 1.704 1.126 3.604 0.999 5.474-0.179 3.017-1.635 5.928-3.929 7.894-2.447 2.146-5.844 3.143-9.064 2.672-2.899-0.398-5.612-1.969-7.404-4.281-2.002-2.525-2.832-5.925-2.238-9.091 0.517-2.88 2.198-5.525 4.582-7.221 1.75-1.261 3.867-2.013 6.022-2.123M7.030 2.388c-2.625 1.345-4.648 3.812-5.44 6.655-0.871 3.009-0.341 6.383 1.417 8.977 0.409-0.4 0.813-0.805 1.214-1.213 0.477-0.467 0.945-0.943 1.418-1.415 0.851-0.852 1.706-1.701 2.553-2.557 0.925-0.923 1.859-1.846 2.772-2.777 0.601-0.595 1.216-1.185 1.791-1.803 0.758-0.708 1.473-1.465 2.214-2.193 0.122-0.136 0.285-0.242 0.367-0.41 0.064-0.009 0.105-0.065 0.15-0.105 0.843-0.85 1.696-1.688 2.535-2.542-1.122-0.75-2.384-1.292-3.703-1.577-2.442-0.54-5.069-0.199-7.286 0.96M16.365 5.517l-0.006-0c-1.235 1.244-2.474 2.483-3.717 3.717l0 0.006c-0.907 0.905-1.814 1.811-2.718 2.718-0.412 0.406-0.816 0.818-1.228 1.224-0.916 0.923-1.84 1.837-2.756 2.76-0.461 0.454-0.914 0.916-1.375 1.369-0.397 0.406-0.804 0.801-1.2 1.207 0.059 0.077 0.117 0.154 0.174 0.232 0.428-0.402 0.835-0.826 1.25-1.242 0.458-0.448 0.906-0.906 1.362-1.357 0.922-0.927 1.852-1.846 2.771-2.776 0.413-0.404 0.82-0.815 1.228-1.226 0.838-0.844 1.696-1.672 2.516-2.531 1.376-1.339 2.723-2.71 4.080-4.069 0.675-0.66 1.335-1.335 2.006-1.998-0.072-0.070-0.153-0.128-0.234-0.186-0.72 0.715-1.436 1.434-2.153 2.152M17.458 5.692c-0.593 0.608-1.208 1.195-1.795 1.809-0.345 0.337-0.705 0.668-1.018 1.033-0.691 0.631-1.33 1.323-2.003 1.976-0.69 0.691-1.38 1.384-2.073 2.072-0.452 0.458-0.911 0.911-1.365 1.367-0.853 0.854-1.708 1.706-2.56 2.562-0.462 0.459-0.923 0.92-1.381 1.382-0.443 0.44-0.885 0.881-1.325 1.325 0.066 0.074 0.134 0.146 0.203 0.217 0.459-0.456 0.915-0.915 1.374-1.372 0.477-0.485 0.969-0.954 1.436-1.448 0.791-0.773 1.577-1.556 2.347-2.349 0.486-0.458 0.949-0.94 1.422-1.412 0.647-0.656 1.326-1.293 1.947-1.967 0.659-0.608 1.282-1.265 1.916-1.898 0.526-0.518 1.050-1.039 1.567-1.568 0.535-0.524 1.070-1.057 1.594-1.595 0.571-0.555 1.129-1.124 1.693-1.686-0.071-0.069-0.143-0.137-0.216-0.203-0.591 0.582-1.171 1.175-1.762 1.756M18.315 6.111c-0.458 0.464-0.93 0.915-1.379 1.389-0.815 0.798-1.625 1.603-2.419 2.421-0.638 0.606-1.246 1.242-1.873 1.859-0.549 0.549-1.097 1.098-1.647 1.647-0.59 0.587-1.173 1.181-1.769 1.763l-0.001 0.013c-0.452 0.445-0.903 0.893-1.346 1.348-0.587 0.577-1.18 1.167-1.758 1.761-0.528 0.508-1.039 1.034-1.558 1.55 0.071 0.069 0.143 0.137 0.217 0.203 0.547-0.539 1.086-1.086 1.631-1.627 0.699-0.716 1.432-1.402 2.111-2.136 0.167-0.142 0.324-0.299 0.468-0.465 0.718-0.671 1.394-1.388 2.096-2.076 0.523-0.525 1.050-1.047 1.572-1.575 0.633-0.626 1.258-1.26 1.89-1.886 0.88-0.885 1.763-1.765 2.646-2.647 0.454-0.457 0.911-0.909 1.365-1.367 0.502-0.5 1.004-1 1.502-1.503-0.066-0.075-0.133-0.147-0.202-0.217-0.517 0.514-1.031 1.030-1.547 1.545M20.449 5.248c-0.475 0.482-0.959 0.956-1.433 1.439-0.453 0.448-0.904 0.899-1.352 1.352-1.048 1.050-2.108 2.090-3.143 3.153-0.638 0.608-1.249 1.244-1.875 1.863-0.486 0.491-0.982 0.973-1.462 1.469-1.33 1.322-2.662 2.644-3.976 3.982-0.664 0.636-1.302 1.3-1.958 1.945 0.075 0.066 0.153 0.128 0.234 0.186 0.706-0.697 1.4-1.406 2.108-2.1 1.207-1.209 2.408-2.424 3.627-3.621l-0.001-0.011c0.482-0.483 0.968-0.962 1.446-1.449 0.635-0.62 1.252-1.258 1.888-1.877l-0-0.007c1.092-1.092 2.185-2.182 3.274-3.276 0.466-0.461 0.929-0.925 1.391-1.39 0.475-0.473 0.949-0.945 1.421-1.421-0.058-0.082-0.119-0.161-0.186-0.235M19.543 7.433c-0.51 0.505-1.027 1.012-1.523 1.527-1.172 1.158-2.34 2.322-3.495 3.497-0.634 0.61-1.249 1.241-1.872 1.863-0.559 0.57-1.149 1.114-1.682 1.705-0.773 0.731-1.532 1.486-2.259 2.261-0.933 0.872-1.822 1.803-2.728 2.707 1.086 0.727 2.304 1.259 3.579 1.548 2.643 0.623 5.516 0.195 7.86-1.177 2.563-1.474 4.47-4.042 5.12-6.929 0.677-2.872 0.105-6.009-1.549-8.454-0.488 0.479-0.972 0.964-1.452 1.451z"></path>
<path fill="#808080" d="M16.359 5.517l0.006 0c0.127 0.011 0.254 0.021 0.382 0.033-1.357 1.359-2.705 2.73-4.080 4.069-0.005-0.127-0.015-0.253-0.023-0.379l-0-0.006c1.244-1.235 2.482-2.474 3.717-3.717z"></path>
<path fill="#808080" d="M5.458 6.070c0.987-0.675 2.312-0.688 3.396-0.248 1.58 0.685 2.524 2.556 2.11 4.236-0.913 0.931-1.846 1.854-2.772 2.777-0.503-0.223-1.060-0.146-1.593-0.16-0.032-0.551-0.005-1.105-0.014-1.658 0.569-0.028 1.178 0.040 1.697-0.248 0.621-0.319 0.96-1.044 0.877-1.728-0.065-0.933-0.969-1.695-1.897-1.623-0.83 0.034-1.526 0.72-1.641 1.532-0.625 0.006-1.25 0.005-1.874 0 0.062-1.166 0.754-2.237 1.71-2.88z"></path>
<path fill="#808080" d="M12.754 8.255c0.226-1.291 1.335-2.303 2.58-2.603-0.082 0.168-0.245 0.273-0.367 0.41-0.741 0.728-1.455 1.485-2.214 2.193z"></path>
<path fill="#808080" d="M15.662 7.501c0.587-0.614 1.202-1.201 1.795-1.809 0.095 0.044 0.191 0.088 0.285 0.134-0.524 0.538-1.058 1.072-1.594 1.595-0.163 0.020-0.328 0.038-0.487 0.081z"></path>
<path fill="#808080" d="M16.936 7.5c0.448-0.474 0.92-0.925 1.379-1.389 0.082 0.059 0.165 0.117 0.247 0.175-0.453 0.457-0.91 0.91-1.365 1.367-0.087-0.052-0.174-0.102-0.261-0.153z"></path>
<path fill="#808080" d="M17.664 8.038c0.448-0.453 0.899-0.904 1.352-1.352 0.066 0.072 0.133 0.145 0.199 0.217-0.462 0.465-0.924 0.929-1.391 1.39-0.053-0.085-0.106-0.171-0.16-0.255z"></path>
<path fill="#808080" d="M18.020 8.96c0.495-0.515 1.013-1.022 1.523-1.527 0.281 0.555 0.382 1.184 0.381 1.801-0 1.89 0.001 3.78-0.001 5.671-0.003 0.87-0.255 1.774-0.863 2.419-1.026 1.117-2.739 1.509-4.148 0.946-0.79-0.32-1.513-0.887-1.89-1.665-0.356-0.705-0.387-1.512-0.37-2.286 0.622-0.622 1.237-1.253 1.872-1.863 0.033 0.801-0 1.604 0.018 2.405 0.014 0.387 0.105 0.784 0.331 1.104 0.641 0.92 2.225 0.906 2.847-0.029 0.291-0.423 0.331-0.955 0.32-1.454-0.014-1.841 0.026-3.684-0.021-5.524z"></path>
<path fill="#808080" d="M12.642 10.509c0.673-0.653 1.312-1.345 2.002-1.976-0.042 0.148-0.062 0.3-0.062 0.454-0.634 0.633-1.257 1.29-1.916 1.898-0.006-0.126-0.016-0.251-0.025-0.376z"></path>
<path fill="#808080" d="M12.645 11.78c0.626-0.617 1.235-1.253 1.873-1.859 0.014 0.126 0.024 0.252 0.034 0.379-0.632 0.626-1.258 1.26-1.89 1.886-0.004-0.135-0.009-0.27-0.016-0.405z"></path>
<path fill="#808080" d="M12.645 13.054c0.627-0.619 1.238-1.255 1.875-1.863 0.011 0.126 0.020 0.252 0.029 0.379l0 0.007c-0.636 0.619-1.253 1.257-1.888 1.877-0.006-0.134-0.010-0.267-0.016-0.4z"></path>
<path fill="#808080" d="M8.697 13.182c0.412-0.405 0.816-0.818 1.228-1.224 0.075 0.064 0.15 0.128 0.225 0.192-0.407 0.411-0.814 0.822-1.228 1.226-0.075-0.065-0.15-0.129-0.225-0.194z"></path>
<path fill="#808080" d="M9.203 13.949c0.454-0.456 0.913-0.909 1.365-1.367 0.050 0.090 0.1 0.181 0.151 0.271-0.473 0.472-0.936 0.954-1.422 1.412-0.034-0.105-0.065-0.21-0.094-0.316z"></path>
<path fill="#808080" d="M9.229 15.189c0.596-0.581 1.179-1.175 1.769-1.763 0.029 0.112 0.060 0.223 0.091 0.333-0.702 0.688-1.379 1.405-2.096 2.076 0.107-0.198 0.226-0.403 0.235-0.634l0.001-0.013z"></path>
<path fill="#808080" d="M7.207 18.504c1.314-1.338 2.646-2.659 3.976-3.982 0.005 0.127 0.014 0.255 0.033 0.381l0.001 0.011c-1.219 1.197-2.421 2.411-3.627 3.621-0.128-0.009-0.256-0.018-0.383-0.030z"></path>
<path fill="#808080" d="M3.685 15.194c0.623 0.003 1.246-0.013 1.868 0.008 0.028 0.063 0.057 0.126 0.085 0.189-0.473 0.472-0.941 0.947-1.418 1.415-0.289-0.491-0.474-1.046-0.535-1.612z"></path>
<path fill="#808080" d="M4.566 17.312c0.461-0.453 0.914-0.915 1.375-1.369 0.069 0.071 0.139 0.141 0.21 0.21-0.456 0.45-0.904 0.909-1.362 1.357-0.075-0.066-0.149-0.131-0.223-0.197z"></path>
<path fill="#808080" d="M8.712 18.287c0.727-0.775 1.486-1.53 2.259-2.261-0.327 1.059-1.216 1.911-2.259 2.261z"></path>
<path fill="#808080" d="M7.882 16.55c0.239 0.016 0.44-0.147 0.643-0.249-0.679 0.734-1.412 1.419-2.111 2.136-0.097-0.042-0.194-0.083-0.29-0.126 0.577-0.593 1.171-1.184 1.758-1.761z"></path>
<path fill="#808080" d="M5.262 17.893c0.459-0.462 0.92-0.922 1.381-1.382 0.103 0.034 0.205 0.067 0.307 0.104-0.467 0.494-0.96 0.963-1.436 1.448-0.084-0.057-0.168-0.113-0.252-0.17z"></path>
</svg>
