<!-- Generated by IcoMoon.io -->
<svg version="1.1" xmlns="http://www.w3.org/2000/svg" width="24" height="24" viewBox="0 0 24 24">
<title>regulatory--end-of-maximum-speed-limit-70--g1</title>
<path fill="#fff" d="M11.091 0h1.848c1.754 0.162 3.485 0.664 5.012 1.552 2.505 1.42 4.466 3.772 5.407 6.494 0.349 0.982 0.542 2.011 0.642 3.046v1.845c-0.163 1.754-0.665 3.487-1.553 5.013-1.535 2.714-4.167 4.784-7.172 5.621-0.76 0.224-1.545 0.337-2.33 0.428h-1.883c-1.72-0.158-3.414-0.648-4.921-1.499-2.633-1.468-4.681-3.954-5.593-6.829-0.291-0.883-0.447-1.803-0.547-2.726v-1.887c0.094-0.875 0.237-1.749 0.503-2.591 0.835-2.747 2.7-5.16 5.139-6.673 1.634-1.035 3.526-1.631 5.449-1.795M11.366 0.596c-2.156 0.11-4.272 0.862-6.022 2.123-2.383 1.696-4.065 4.341-4.582 7.22-0.594 3.166 0.236 6.567 2.239 9.092 1.792 2.312 4.505 3.883 7.404 4.281 3.22 0.47 6.616-0.526 9.064-2.672 2.294-1.966 3.75-4.876 3.929-7.893 0.127-1.87-0.219-3.77-0.999-5.475-1.193-2.645-3.436-4.793-6.131-5.869-1.547-0.626-3.235-0.904-4.902-0.807z"></path>
<path fill="#fff" d="M11.062 1.22c2.431-0.22 4.93 0.419 6.954 1.784-0.826 0.849-1.675 1.677-2.509 2.52-0.053 0.048-0.099 0.114-0.174 0.129-1.245 0.3-2.353 1.311-2.579 2.6-0.745 0.791-1.532 1.552-2.305 2.318 0.36-1.021 0.801-2.014 1.171-3.031 0.035-0.622 0.010-1.25 0.012-1.875-2.424-0.006-4.848-0.005-7.272 0-0.005 1.236-0.005 2.473 0 3.709 0.626 0.005 1.252 0.006 1.878-0.001 0.008-0.608-0.001-1.216 0.004-1.824 1.093-0.006 2.186-0.004 3.279-0.001-0.835 2.161-1.716 4.305-2.541 6.471-0.040 0.078-0.109 0.137-0.169 0.2-1.271 1.263-2.53 2.54-3.807 3.798-1.654-2.444-2.226-5.582-1.549-8.453 0.65-2.886 2.557-5.455 5.121-6.927 1.365-0.796 2.91-1.283 4.485-1.416z"></path>
<path fill="#fff" d="M16.368 5.514c0.715-0.717 1.431-1.434 2.149-2.148 0.077 0.058 0.155 0.114 0.234 0.169-0.653 0.687-1.335 1.348-2.007 2.017-0.126-0.012-0.252-0.024-0.377-0.037z"></path>
<path fill="#fff" d="M17.459 5.69c0.591-0.58 1.17-1.172 1.76-1.754 0.073 0.067 0.145 0.135 0.216 0.203-0.564 0.563-1.122 1.135-1.695 1.689-0.093-0.047-0.187-0.093-0.281-0.137z"></path>
<path fill="#fff" d="M18.315 6.11c0.516-0.515 1.029-1.033 1.547-1.545 0.068 0.071 0.135 0.143 0.201 0.218-0.498 0.504-1 1.004-1.502 1.504-0.082-0.059-0.165-0.118-0.246-0.176z"></path>
<path fill="#fff" d="M19.015 6.688c0.481-0.481 0.954-0.974 1.45-1.44 0.054 0.080 0.112 0.158 0.17 0.234-0.472 0.475-0.945 0.948-1.42 1.42-0.067-0.072-0.133-0.143-0.2-0.215z"></path>
<path fill="#fff" d="M19.542 7.435c0.48-0.488 0.961-0.975 1.453-1.45 1.654 2.444 2.225 5.581 1.548 8.452-0.65 2.887-2.557 5.454-5.12 6.928-2.344 1.372-5.218 1.8-7.86 1.177-1.274-0.29-2.492-0.82-3.577-1.547 2.213-2.233 4.442-4.451 6.667-6.673-0.016 0.773 0.015 1.58 0.371 2.285 0.377 0.778 1.1 1.344 1.89 1.664 1.398 0.558 3.097 0.177 4.125-0.922 0.623-0.645 0.883-1.561 0.885-2.443 0.002-1.875 0-3.75 0.001-5.625 0.004-0.631-0.091-1.279-0.382-1.846z"></path>
<path fill="#fff" d="M15.662 7.501c0.158-0.042 0.32-0.065 0.483-0.077-0.513 0.526-1.035 1.044-1.558 1.56-0.014-0.152 0.017-0.303 0.057-0.45 0.313-0.366 0.673-0.697 1.019-1.034z"></path>
<path fill="#fff" d="M14.52 9.924c0.788-0.824 1.604-1.627 2.419-2.426 0.086 0.052 0.171 0.105 0.255 0.158-0.882 0.878-1.762 1.758-2.64 2.64-0.013-0.124-0.026-0.248-0.034-0.373z"></path>
<path fill="#fff" d="M14.52 11.193c1.035-1.064 2.095-2.104 3.144-3.154 0.053 0.085 0.107 0.17 0.16 0.255-1.089 1.093-2.179 2.184-3.273 3.272-0.010-0.124-0.020-0.249-0.032-0.373z"></path>
<path fill="#fff" d="M14.524 12.459c1.154-1.175 2.321-2.338 3.493-3.495 0.052 1.761 0.008 3.525 0.023 5.286 0.008 0.562 0.022 1.171-0.301 1.66-0.607 0.962-2.218 0.986-2.865 0.057-0.227-0.32-0.318-0.717-0.332-1.104-0.019-0.801 0.017-1.603-0.018-2.403z"></path>
<path fill="#fff" d="M9.848 12.048c0.915-0.948 1.862-1.869 2.792-2.805 0.011 0.124 0.022 0.249 0.027 0.374-0.984 1.020-2 2.017-3.007 3.016 0.017-0.208 0.119-0.393 0.188-0.586z"></path>
<path fill="#fff" d="M9.012 14.16c1.188-1.234 2.423-2.427 3.627-3.648 0.012 0.124 0.023 0.248 0.029 0.374-1.256 1.305-2.562 2.579-3.846 3.862 0.024-0.207 0.123-0.393 0.19-0.587z"></path>
<path fill="#fff" d="M12.641 11.783c0.011 0.134 0.016 0.268 0.020 0.403-1.558 1.56-3.114 3.122-4.679 4.675 0.032-0.193 0.117-0.371 0.177-0.555 0.023-0.062 0.071-0.109 0.115-0.156 1.456-1.455 2.911-2.91 4.366-4.367z"></path>
<path fill="#fff" d="M12.645 13.057c0.003 0.132 0.012 0.264 0.018 0.396-2.39 2.397-4.785 4.789-7.179 7.181-0.082-0.059-0.162-0.119-0.236-0.187 2.471-2.459 4.928-4.931 7.397-7.391z"></path>
<path fill="#fff" d="M3.366 18.518c0.982-0.984 1.963-1.97 2.951-2.948-0.012 0.18-0.098 0.342-0.147 0.513-0.040 0.113-0.143 0.186-0.221 0.272-0.807 0.795-1.594 1.614-2.412 2.396-0.055-0.080-0.112-0.157-0.171-0.233z"></path>
<path fill="#fff" d="M3.938 19.218c0.511-0.513 1.020-1.029 1.538-1.535 0.001 0.181-0.093 0.342-0.142 0.512-0.347 0.452-0.803 0.823-1.195 1.239-0.068-0.071-0.136-0.143-0.201-0.217z"></path>
<path fill="#fff" d="M4.566 19.862c0.491-0.482 0.963-0.993 1.471-1.451 0.125 0.005 0.25 0.015 0.375 0.028-0.546 0.539-1.083 1.086-1.629 1.624-0.074-0.066-0.146-0.133-0.217-0.201z"></path>
<path fill="#000" d="M11.366 0.596c1.666-0.097 3.354 0.18 4.902 0.807 2.695 1.076 4.938 3.225 6.131 5.869 0.78 1.704 1.126 3.604 0.999 5.475-0.179 3.017-1.635 5.927-3.929 7.893-2.447 2.146-5.844 3.143-9.064 2.672-2.899-0.398-5.612-1.969-7.404-4.281-2.003-2.526-2.833-5.926-2.239-9.092 0.517-2.88 2.199-5.524 4.582-7.22 1.75-1.261 3.866-2.013 6.022-2.123M11.062 1.22c-1.575 0.133-3.12 0.62-4.485 1.416-2.565 1.472-4.471 4.041-5.121 6.927-0.677 2.872-0.105 6.009 1.549 8.453 1.277-1.258 2.536-2.535 3.807-3.798 0.060-0.063 0.129-0.121 0.169-0.2 0.192-0.136 0.34-0.32 0.51-0.48 0.984-0.99 1.984-1.971 2.958-2.968 0.773-0.766 1.56-1.527 2.305-2.318 0.743-0.691 1.441-1.433 2.167-2.145 0.135-0.153 0.316-0.271 0.412-0.456 0.075-0.015 0.12-0.082 0.174-0.129 0.833-0.843 1.682-1.67 2.509-2.52-2.024-1.365-4.523-2.004-6.954-1.784M16.368 5.514l-0.008-0c-1.235 1.246-2.476 2.487-3.722 3.722l0.001 0.008c-0.93 0.935-1.877 1.856-2.792 2.805-1.189 1.159-2.362 2.35-3.531 3.521-0.988 0.978-1.969 1.964-2.951 2.948 0.059 0.076 0.116 0.154 0.171 0.233 0.818-0.782 1.605-1.601 2.412-2.396 0.078-0.086 0.181-0.159 0.221-0.272 0.081-0.029 0.143-0.089 0.202-0.15 1.091-1.103 2.206-2.195 3.288-3.299 1.008-0.999 2.023-1.996 3.008-3.016 1.376-1.338 2.722-2.708 4.079-4.066 0.672-0.669 1.354-1.33 2.007-2.017-0.080-0.054-0.158-0.111-0.234-0.169-0.718 0.714-1.434 1.432-2.149 2.148M17.459 5.69c-0.594 0.609-1.21 1.196-1.797 1.811-0.345 0.337-0.705 0.668-1.019 1.034-0.693 0.631-1.331 1.325-2.005 1.977-1.203 1.221-2.439 2.414-3.627 3.648-1.195 1.154-2.368 2.352-3.536 3.523-0.518 0.506-1.027 1.021-1.538 1.535 0.065 0.074 0.133 0.146 0.201 0.217 0.393-0.417 0.848-0.787 1.195-1.239 0.075-0.036 0.14-0.088 0.197-0.149 1.093-1.102 2.206-2.197 3.291-3.3 1.284-1.283 2.59-2.557 3.846-3.862 0.662-0.606 1.271-1.27 1.92-1.892l-0-0.009c0.523-0.517 1.045-1.035 1.558-1.56l0.014-0.001c0.519-0.54 1.064-1.054 1.581-1.596 0.574-0.554 1.131-1.125 1.695-1.689-0.071-0.068-0.143-0.136-0.216-0.202-0.59 0.582-1.17 1.174-1.76 1.754M18.315 6.11c-0.457 0.465-0.93 0.913-1.376 1.388-0.815 0.799-1.632 1.602-2.419 2.426-0.645 0.6-1.249 1.243-1.879 1.859-1.455 1.456-2.91 2.911-4.366 4.367-0.044 0.047-0.092 0.094-0.115 0.156-0.203 0.122-0.343 0.32-0.517 0.477-0.532 0.546-1.094 1.065-1.606 1.628-0.508 0.458-0.98 0.969-1.471 1.451 0.071 0.068 0.143 0.135 0.217 0.201 0.547-0.538 1.084-1.086 1.629-1.624 0.519-0.529 1.057-1.048 1.57-1.578 1.565-1.553 3.12-3.116 4.679-4.675 0.634-0.627 1.26-1.261 1.893-1.889 0.878-0.882 1.758-1.762 2.64-2.64 0.453-0.459 0.913-0.911 1.367-1.37 0.502-0.5 1.004-1 1.502-1.504-0.065-0.074-0.132-0.147-0.201-0.218-0.518 0.512-1.031 1.030-1.547 1.545M19.015 6.688c-0.454 0.446-0.904 0.897-1.351 1.35-1.049 1.050-2.109 2.091-3.144 3.154-0.637 0.608-1.252 1.242-1.875 1.864-2.47 2.46-4.926 4.932-7.397 7.391 0.074 0.068 0.154 0.128 0.236 0.187 2.395-2.392 4.79-4.784 7.179-7.181 0.635-0.62 1.251-1.26 1.89-1.877l-0.001-0.010c1.094-1.088 2.184-2.179 3.273-3.272 0.466-0.461 0.929-0.925 1.391-1.39 0.474-0.472 0.948-0.945 1.42-1.42-0.059-0.077-0.116-0.155-0.17-0.234-0.496 0.466-0.968 0.958-1.45 1.44M19.542 7.435c-0.516 0.499-1.012 1.016-1.526 1.516l0.001 0.013c-1.172 1.157-2.34 2.32-3.493 3.495-0.635 0.61-1.25 1.24-1.872 1.863-2.224 2.222-4.454 4.44-6.667 6.673 1.085 0.727 2.303 1.258 3.577 1.547 2.643 0.622 5.516 0.195 7.86-1.177 2.563-1.474 4.47-4.042 5.12-6.928 0.677-2.871 0.106-6.008-1.548-8.452-0.492 0.476-0.974 0.962-1.453 1.45z"></path>
<path fill="#808080" d="M16.361 5.513l0.008 0c0.125 0.014 0.251 0.025 0.377 0.037-1.357 1.358-2.703 2.729-4.079 4.066-0.005-0.125-0.016-0.25-0.027-0.374l-0.001-0.008c1.246-1.235 2.488-2.476 3.722-3.722z"></path>
<path fill="#808080" d="M4.361 5.666c2.424-0.005 4.848-0.006 7.272 0-0.002 0.624 0.023 1.252-0.012 1.875-0.371 1.017-0.811 2.010-1.171 3.031-0.974 0.997-1.974 1.977-2.958 2.968-0.17 0.16-0.318 0.345-0.51 0.48 0.825-2.165 1.705-4.309 2.541-6.471-1.093-0.002-2.186-0.005-3.279 0.001-0.005 0.608 0.005 1.216-0.004 1.824-0.626 0.007-1.252 0.006-1.878 0.001-0.005-1.237-0.005-2.473 0-3.709z"></path>
<path fill="#808080" d="M12.755 8.253c0.226-1.29 1.335-2.301 2.579-2.6-0.096 0.184-0.277 0.302-0.412 0.456-0.726 0.711-1.424 1.453-2.167 2.145z"></path>
<path fill="#808080" d="M15.662 7.501c0.587-0.615 1.203-1.202 1.797-1.811 0.094 0.045 0.188 0.090 0.281 0.137-0.517 0.541-1.062 1.056-1.581 1.596l-0.014 0.001c-0.163 0.012-0.325 0.036-0.483 0.077z"></path>
<path fill="#808080" d="M16.939 7.498c0.446-0.475 0.919-0.923 1.376-1.388 0.082 0.059 0.164 0.117 0.246 0.176-0.454 0.459-0.914 0.911-1.367 1.37-0.084-0.054-0.169-0.106-0.255-0.158z"></path>
<path fill="#808080" d="M17.664 8.039c0.447-0.453 0.897-0.904 1.351-1.35 0.067 0.072 0.134 0.143 0.2 0.215-0.462 0.465-0.925 0.93-1.391 1.39-0.053-0.085-0.107-0.17-0.16-0.255z"></path>
<path fill="#808080" d="M18.016 8.951c0.514-0.5 1.011-1.017 1.526-1.516 0.29 0.568 0.385 1.215 0.382 1.846-0.001 1.875 0.001 3.75-0.001 5.625-0.003 0.881-0.262 1.797-0.885 2.443-1.028 1.099-2.727 1.48-4.125 0.922-0.789-0.32-1.512-0.886-1.89-1.664-0.356-0.705-0.387-1.511-0.371-2.285 0.622-0.623 1.237-1.253 1.872-1.863 0.035 0.801-0 1.603 0.018 2.403 0.014 0.387 0.105 0.784 0.332 1.104 0.647 0.93 2.257 0.905 2.865-0.057 0.323-0.489 0.308-1.098 0.301-1.66-0.015-1.762 0.030-3.525-0.023-5.286l-0.001-0.013z"></path>
<path fill="#808080" d="M12.638 10.512c0.674-0.652 1.313-1.346 2.005-1.977-0.039 0.146-0.070 0.297-0.057 0.45l0 0.009c-0.649 0.622-1.258 1.286-1.92 1.892-0.006-0.125-0.017-0.249-0.029-0.374z"></path>
<path fill="#808080" d="M12.641 11.783c0.63-0.615 1.234-1.259 1.879-1.859 0.008 0.125 0.021 0.248 0.034 0.373-0.633 0.627-1.259 1.262-1.893 1.889-0.003-0.135-0.009-0.269-0.020-0.403z"></path>
<path fill="#808080" d="M12.645 13.057c0.623-0.622 1.238-1.256 1.875-1.864 0.012 0.124 0.022 0.248 0.032 0.373l0.001 0.010c-0.638 0.617-1.254 1.257-1.89 1.877-0.006-0.132-0.015-0.264-0.018-0.396z"></path>
<path fill="#808080" d="M6.316 15.57c1.169-1.171 2.342-2.362 3.531-3.521-0.070 0.193-0.172 0.378-0.188 0.586-1.081 1.104-2.197 2.196-3.288 3.299-0.058 0.061-0.12 0.12-0.202 0.15 0.049-0.171 0.135-0.333 0.147-0.513z"></path>
<path fill="#808080" d="M5.475 17.683c1.168-1.171 2.341-2.369 3.536-3.523-0.067 0.194-0.166 0.381-0.19 0.587-1.085 1.102-2.198 2.197-3.291 3.3-0.057 0.060-0.121 0.113-0.197 0.149 0.049-0.17 0.143-0.331 0.142-0.512z"></path>
<path fill="#808080" d="M7.643 16.783c0.174-0.157 0.314-0.355 0.517-0.477-0.060 0.185-0.145 0.362-0.177 0.555-0.513 0.53-1.051 1.049-1.57 1.578-0.125-0.013-0.25-0.023-0.375-0.028 0.512-0.563 1.074-1.082 1.606-1.628z"></path>
</svg>
