<!-- Generated by IcoMoon.io -->
<svg version="1.1" xmlns="http://www.w3.org/2000/svg" width="24" height="24" viewBox="0 0 24 24">
<title>regulatory--end-of-shared-path-bicycles-and-pedestrians--g1</title>
<path fill="#0372bc" d="M10.479 0h3.049c2.455 0.408 4.853 1.422 6.649 3.177-1.065 0.895-2.128 1.791-3.203 2.674-0.248-1.067-1.333-1.71-2.395-1.475-0.261-0.548-0.514-1.283-0.041-1.795 0.015-0.076 0.048-0.226 0.063-0.301-0.475-0.012-0.95-0.025-1.425-0.037 0 0.108 0 0.326 0.001 0.435 0.225 0.008 0.45 0.014 0.676 0.021-0.001 0.261-0.003 0.523-0.004 0.783-1.266 0.005-2.533 0.004-3.8 0-0.005-0.272-0.010-0.546-0.014-0.819-0.142-0.071-0.283-0.145-0.422-0.217 0.217-0.077 0.432-0.157 0.65-0.234-0.030-0.103-0.089-0.311-0.12-0.415-0.43 0.117-0.843 0.305-1.143 0.644 0.203 0.197 0.401 0.399 0.613 0.587-0.035 0.436-0.119 0.867-0.236 1.288-0.917-0.049-1.892 0.483-2.080 1.435-0.311 1.2 0.915 2.427 2.115 2.123 1.045-0.174 1.708-1.381 1.328-2.363-0.172-0.579-0.863-0.799-0.994-1.395 0.538 0.423 0.979 0.95 1.44 1.453-0.094 0.573 0.25 0.975 0.782 1.126 0.147-0.132 0.292-0.265 0.435-0.4 0.31 0.012 0.621 0.026 0.93 0.037 0.166 0.674 0.61 1.232 1.249 1.512-1.339 1.137-2.677 2.272-4.044 3.374-0.018-0.345 0.088-0.77-0.2-1.036-0.375-0.403-1.137-0.295-1.361 0.217-0.231 0.508 0.205 0.974 0.391 1.421-0.813 0.261-1.693 0.799-1.666 1.77-1.933 1.657-3.897 3.279-5.855 4.906-0.987-1.495-1.539-3.23-1.848-4.985v-3.026c0.396-2.431 1.39-4.809 3.116-6.597 1.88-2.142 4.563-3.461 7.363-3.888z"></path>
<path fill="#0372bc" d="M10.258 3.929c1.101-0.010 2.201-0.001 3.302-0.006-0.437 0.489-0.876 0.978-1.307 1.474-0.245-0.041-0.492-0.071-0.737-0.103-0.418-0.455-0.841-0.907-1.258-1.364z"></path>
<path fill="#0372bc" d="M12.454 5.874c0.461-0.644 1.021-1.209 1.552-1.794 0.068 0.166 0.133 0.335 0.197 0.505-0.417 0.333-0.716 0.783-0.853 1.301-0.299 0-0.599-0.008-0.897-0.012z"></path>
<path fill="#0372bc" d="M7.706 6.325c-0.16-0.886 0.671-1.621 1.521-1.583-0.085 0.41-0.212 0.825-0.563 1.085-0.443 0.383 0.19 1.125 0.659 0.791 0.382-0.209 0.257-0.649 0.093-0.96 0.070-0.258 0.145-0.514 0.219-0.77 0.872 0.414 1.053 1.723 0.255 2.302-0.759 0.659-2.079 0.129-2.186-0.865z"></path>
<path fill="#0372bc" d="M14.797 4.774c0.899-0.146 1.717 0.505 1.77 1.413-0.523 0.452-1.050 0.898-1.591 1.328-0.604-0.169-1.045-0.625-1.225-1.221 0.45 0.019 0.883 0.143 1.289 0.332 0.465 0.28 0.955-0.561 0.471-0.827-0.364-0.243-0.599-0.606-0.715-1.025z"></path>
<path fill="#0372bc" d="M13.77 5.935c0.133-0.368 0.334-0.707 0.63-0.968 0.138 0.314 0.265 0.634 0.375 0.957-0.334 0.010-0.67 0.009-1.005 0.010z"></path>
<path fill="#0372bc" d="M12.226 14.227c3.35-2.835 6.719-5.648 10.093-8.455 0.89 1.432 1.387 3.066 1.681 4.716v3.031c-0.592 4.317-3.606 8.215-7.705 9.743-0.89 0.372-1.846 0.532-2.783 0.738h-3.030c-2.348-0.39-4.649-1.323-6.414-2.952 1.535-1.285 3.054-2.592 4.617-3.846 0.037 0.969-0.081 1.942 0.009 2.908-0.030 0.45 0.706 0.554 0.769 0.089 0.105-1.222 0.003-2.458 0.044-3.685 0.11-0.092 0.221-0.183 0.332-0.272 0.123 1.587-0.034 3.187 0.079 4.773 0.019 0.418 0.779 0.439 0.751-0.003 0.048-1.828 0.013-3.661 0.012-5.49 0.341-0.31 0.699-0.6 1.059-0.886 0.414 0.641 0.785 1.332 1.342 1.863 0.39 0.129 0.813 0.062 1.217 0.075-0.241 0.676-0.483 1.352-0.726 2.028 0.102 0.017 0.307 0.050 0.41 0.067 0.009 0.6-0.036 1.203 0.021 1.801 0.005 0.227 0.289 0.253 0.457 0.199 0.090-0.649 0.035-1.307 0.044-1.96 0.084-0.009 0.249-0.025 0.332-0.034 0.105 0.53-0.253 1.369 0.274 1.677 0.394-0.432 0.132-1.12 0.201-1.658 0.112-0.015 0.338-0.046 0.45-0.062-0.17-0.555-0.355-1.107-0.466-1.679 0.338 0.289 0.65 0.605 0.952 0.93 0.077-0.043 0.231-0.126 0.308-0.169-0.484-0.587-0.919-1.243-1.586-1.644 0.102-0.286 0.361-0.594 0.195-0.905-0.17-0.356-0.728-0.36-0.908-0.014-0.164 0.334 0.108 0.661 0.213 0.968-0.477-0.028-1.239 0.265-1.461-0.335-0.201-0.547-0.441-1.081-0.782-1.557z"></path>
<path fill="#fff" d="M9.001 2.44c0.301-0.339 0.714-0.526 1.143-0.644 0.031 0.105 0.090 0.312 0.12 0.415-0.218 0.076-0.434 0.156-0.65 0.234 0.139 0.072 0.28 0.146 0.422 0.217 0.004 0.274 0.009 0.547 0.014 0.819 1.267 0.004 2.534 0.005 3.8 0 0.001-0.261 0.003-0.523 0.004-0.783-0.226-0.006-0.452-0.013-0.676-0.021-0.001-0.108-0.001-0.326-0.001-0.435 0.475 0.013 0.95 0.026 1.425 0.037-0.015 0.075-0.048 0.225-0.063 0.301-0.472 0.512-0.219 1.246 0.041 1.795 1.062-0.235 2.147 0.408 2.395 1.475-0.137 0.11-0.272 0.222-0.406 0.337-0.053-0.908-0.871-1.559-1.77-1.413 0.116 0.418 0.351 0.782 0.715 1.025 0.484 0.266-0.006 1.107-0.471 0.827-0.406-0.188-0.839-0.312-1.289-0.332 0.179 0.596 0.621 1.052 1.225 1.221-0.133 0.107-0.265 0.218-0.394 0.329-0.639-0.28-1.083-0.839-1.249-1.512-0.31-0.012-0.621-0.026-0.93-0.037-0.143 0.135-0.288 0.268-0.435 0.4-0.532-0.151-0.876-0.554-0.782-1.126-0.461-0.503-0.902-1.030-1.44-1.453 0.13 0.596 0.822 0.815 0.994 1.395 0.381 0.982-0.283 2.188-1.328 2.363-1.2 0.305-2.426-0.923-2.115-2.123 0.188-0.952 1.163-1.484 2.080-1.435 0.117-0.421 0.201-0.852 0.236-1.288-0.212-0.188-0.41-0.39-0.613-0.587M10.258 3.929c0.417 0.457 0.84 0.908 1.258 1.364 0.245 0.032 0.492 0.062 0.737 0.103 0.431-0.495 0.87-0.985 1.307-1.474-1.101 0.005-2.201-0.004-3.302 0.006M12.454 5.874c0.298 0.004 0.597 0.012 0.897 0.012 0.137-0.517 0.436-0.968 0.853-1.301-0.065-0.169-0.129-0.338-0.197-0.505-0.532 0.585-1.092 1.15-1.552 1.794M7.706 6.325c0.107 0.994 1.427 1.524 2.186 0.865 0.797-0.579 0.617-1.888-0.255-2.302-0.075 0.257-0.15 0.512-0.219 0.77 0.164 0.311 0.289 0.751-0.093 0.96-0.47 0.334-1.102-0.408-0.659-0.791 0.351-0.261 0.477-0.675 0.563-1.085-0.85-0.037-1.681 0.697-1.521 1.583M13.77 5.935c0.335-0.001 0.671 0 1.005-0.010-0.111-0.324-0.237-0.644-0.375-0.957-0.295 0.261-0.497 0.6-0.63 0.968z"></path>
<path fill="#fff" d="M8.978 10.399c0.225-0.512 0.986-0.619 1.361-0.217 0.288 0.266 0.182 0.692 0.2 1.036-0.957 0.775-1.903 1.566-2.836 2.372-0.027-0.972 0.853-1.51 1.666-1.77-0.186-0.446-0.622-0.912-0.391-1.421z"></path>
<path fill="#fff" d="M11.739 14.635c0.165-0.133 0.326-0.27 0.486-0.408 0.341 0.476 0.581 1.010 0.782 1.557 0.222 0.6 0.983 0.307 1.461 0.335-0.105-0.307-0.377-0.634-0.213-0.968 0.181-0.346 0.738-0.342 0.908 0.014 0.166 0.311-0.093 0.618-0.195 0.905 0.667 0.401 1.102 1.057 1.586 1.644-0.077 0.043-0.231 0.126-0.308 0.169-0.302-0.325-0.614-0.641-0.952-0.93 0.111 0.572 0.295 1.124 0.466 1.679-0.112 0.015-0.338 0.046-0.45 0.062-0.070 0.538 0.192 1.226-0.201 1.658-0.526-0.308-0.169-1.147-0.274-1.677-0.083 0.009-0.248 0.025-0.332 0.034-0.009 0.653 0.046 1.311-0.044 1.96-0.168 0.054-0.452 0.028-0.457-0.199-0.057-0.599-0.012-1.201-0.021-1.801-0.103-0.017-0.308-0.050-0.41-0.067 0.244-0.676 0.485-1.352 0.726-2.028-0.404-0.013-0.827 0.054-1.217-0.075-0.557-0.532-0.928-1.222-1.342-1.863z"></path>
<path fill="#fff" d="M9.839 16.241c0.286-0.234 0.568-0.472 0.841-0.72 0.001 1.83 0.036 3.662-0.012 5.49 0.028 0.441-0.732 0.421-0.751 0.003-0.112-1.586 0.044-3.186-0.079-4.773z"></path>
<path fill="#fff" d="M8.685 17.201c0.277-0.225 0.55-0.455 0.822-0.688-0.041 1.227 0.061 2.463-0.044 3.685-0.063 0.465-0.799 0.361-0.769-0.089-0.090-0.966 0.028-1.939-0.009-2.908z"></path>
<path fill="#ed1c24" d="M16.974 5.85c1.075-0.883 2.138-1.778 3.203-2.674 0.834 0.757 1.551 1.637 2.142 2.595-3.374 2.808-6.743 5.621-10.093 8.455-0.16 0.138-0.321 0.275-0.486 0.408-0.36 0.286-0.719 0.577-1.059 0.886-0.274 0.248-0.555 0.486-0.841 0.72-0.111 0.089-0.222 0.181-0.332 0.272-0.272 0.232-0.545 0.463-0.822 0.688-1.563 1.254-3.081 2.561-4.617 3.846-0.85-0.746-1.601-1.604-2.221-2.552 1.959-1.627 3.923-3.249 5.855-4.906 0.933-0.805 1.879-1.596 2.836-2.372 1.366-1.102 2.705-2.237 4.044-3.374 0.129-0.111 0.261-0.222 0.394-0.329 0.541-0.43 1.068-0.876 1.591-1.328 0.134-0.115 0.27-0.227 0.406-0.337z"></path>
</svg>
