<!-- Generated by IcoMoon.io -->
<svg version="1.1" xmlns="http://www.w3.org/2000/svg" width="24" height="24" viewBox="0 0 24 24">
<title>regulatory--maximum-speed-limit-led-85--g2</title>
<path fill="#fff" d="M3.127 0h17.744c0.489 0.152 0.757 0.684 0.748 1.172 0.001 7.219 0.001 14.438 0 21.656 0.009 0.488-0.259 1.017-0.747 1.172h-17.74c-0.49-0.152-0.758-0.684-0.749-1.172-0.001-7.219-0.001-14.438 0-21.657-0.010-0.488 0.258-1.016 0.745-1.171M3.629 0.592c-0.47 0.097-0.751 0.593-0.764 1.045-0.002 6.892 0 13.785-0.001 20.678-0.001 0.403 0.195 0.828 0.56 1.022 0.2 0.11 0.435 0.087 0.654 0.089 5.376-0.001 10.752 0 16.128-0.001 0.55 0.006 0.921-0.555 0.929-1.061 0.001-6.909 0.001-13.818 0-20.727-0.008-0.505-0.378-1.068-0.928-1.061-5.455-0.002-10.911 0-16.366-0.001-0.071 0.001-0.143 0.003-0.212 0.017z"></path>
<path fill="#fff" d="M4.049 1.195c0.070-0.017 0.143-0.019 0.215-0.020 5.063 0.001 10.127 0 15.19 0 0.233 0.003 0.486-0.030 0.696 0.097 0.355 0.203 0.516 0.629 0.512 1.022-0.001 6.486 0.001 12.973-0.001 19.459 0.006 0.495-0.332 1.065-0.875 1.070-5.19 0.001-10.38 0.001-15.571 0-0.543-0.004-0.882-0.575-0.875-1.070-0.001-6.502-0.001-13.005 0-19.508 0.001-0.443 0.25-0.939 0.709-1.051M5.258 3.007c-0.32 0.293-0.324 0.866 0.008 1.151 0.334 0.293 0.81 0.317 1.173 0.557 0.237 0.141 0.192 0.535-0.062 0.63-0.374 0.167-0.813-0.058-0.964-0.422-0.172 0.066-0.346 0.127-0.517 0.196 0.223 0.798 1.305 1.075 1.938 0.59 0.407-0.306 0.456-0.979 0.088-1.334-0.33-0.321-0.814-0.363-1.2-0.584-0.162-0.087-0.176-0.336-0.022-0.438 0.282-0.18 0.699-0.065 0.847 0.238 0.165-0.058 0.331-0.113 0.497-0.168-0.188-0.756-1.263-0.907-1.786-0.415M7.933 2.775c-0.007 1.041 0.001 2.083-0.005 3.124 0.187-0.003 0.374-0.002 0.561-0.001 0.006-0.391 0-0.781 0.003-1.172 0.443-0.028 0.93 0.089 1.33-0.157 0.506-0.303 0.593-1.082 0.195-1.507-0.213-0.221-0.533-0.291-0.829-0.29-0.419 0.001-0.837-0.004-1.255 0.003M10.892 2.778c-0.009 1.040-0.001 2.079-0.004 3.119 0.71-0.002 1.42 0.002 2.13-0.002 0.003-0.18 0.004-0.36-0.001-0.54-0.521-0.007-1.043 0-1.564-0.004-0-0.262-0.001-0.524 0-0.786 0.301-0 0.603 0.001 0.904-0.001 0.006-0.178 0.005-0.355 0.003-0.532-0.303-0.002-0.605 0-0.908-0.002 0-0.237 0-0.474 0-0.711 0.489-0.002 0.979 0.002 1.468-0.002 0.004-0.18 0.004-0.36-0-0.54-0.676-0.004-1.353-0.005-2.029 0.001M13.745 2.778c-0.007 1.040 0.002 2.080-0.004 3.12 0.71-0.006 1.419 0.003 2.129-0.004 0.007-0.18 0.006-0.36 0.001-0.54-0.523-0.006-1.045 0-1.567-0.003-0.001-0.262-0.001-0.525 0-0.787 0.301-0 0.603 0.001 0.905-0.001 0.009-0.177 0.007-0.355 0.006-0.532-0.304-0.002-0.607 0-0.911-0.001 0-0.237-0-0.474 0-0.712 0.49-0.003 0.98 0.004 1.47-0.003 0.005-0.18 0.005-0.359 0-0.539-0.676-0.003-1.353-0.006-2.030 0.001M16.587 2.775c-0.002 1.041-0.004 2.082 0.001 3.122 0.655-0.032 1.415 0.136 1.956-0.336 0.648-0.603 0.658-1.773 0.048-2.406-0.536-0.516-1.333-0.356-2.005-0.381M6.353 7.419c-0.006 1.038-0.002 2.076-0.002 3.114 0.682 0.002 1.364 0.001 2.046 0 0.001-0.182 0.001-0.364-0-0.546-0.494-0.005-0.987 0-1.48-0.002-0.003-0.855 0.004-1.711-0.003-2.566-0.187-0.004-0.373-0.004-0.56 0M9.038 7.418c-0.003 1.039-0.001 2.077-0.001 3.116 0.188 0.001 0.376 0.002 0.565-0.001 0.003-1.039 0.004-2.077 0-3.116-0.188-0.004-0.376-0.004-0.564 0.001M10.516 7.418c-0.007 1.038-0.002 2.078-0.002 3.116 0.187 0.001 0.375 0.001 0.562 0 0.002-0.624 0.006-1.249-0.003-1.873 0.274 0.656 0.568 1.302 0.853 1.953 0.285-0.653 0.593-1.296 0.852-1.96-0.015 0.627-0.004 1.253-0.007 1.88 0.188 0.001 0.376 0.002 0.564-0.001 0.003-1.039 0.006-2.078-0.001-3.117-0.18-0.002-0.359-0.002-0.539 0-0.288 0.665-0.596 1.323-0.863 1.997-0.262-0.674-0.575-1.327-0.853-1.994-0.188-0.008-0.375-0.006-0.563-0.001M14.254 7.415c-0.001 1.040 0.001 2.080-0.001 3.12 0.185-0.002 0.37-0.001 0.555-0.001-0-1.040 0.001-2.079-0.001-3.119-0.185-0.002-0.369-0.002-0.553-0M15.528 7.41c-0.003 0.181-0.003 0.363 0 0.544 0.29 0.004 0.58 0 0.87 0.002 0.001 0.859-0 1.718 0.001 2.577 0.188 0.001 0.375 0.001 0.563-0 0.003-0.859-0-1.717 0.001-2.576 0.288-0.002 0.577 0 0.864-0.001 0.002-0.182 0.002-0.365-0.001-0.547-0.766-0.001-1.532-0.003-2.299 0.001M5.331 11.525c-0.242 0.038-0.543 0.19-0.542 0.471 0.001 2.893-0.002 5.785 0.001 8.678 0.037 0.317 0.41 0.452 0.69 0.453 4.346 0.001 8.693 0.001 13.039 0 0.28-0.001 0.653-0.136 0.69-0.454 0.003-2.892 0-5.785 0.001-8.677 0.001-0.282-0.3-0.434-0.543-0.472-0.153-0.030-0.31-0.060-0.465-0.038-0.399 0.029-0.803 0.031-1.202-0.001-0.015 0-0.047 0-0.063 0-0.399 0.032-0.804 0.031-1.203 0-0.015-0-0.047-0.001-0.062-0.001-0.399 0.033-0.804 0.031-1.204 0.002-0.015-0.001-0.047-0.002-0.062-0.002-0.412 0.033-0.83 0.033-1.242 0h-0.031c-1.256 0.035-2.518 0.032-3.774 0.001-0.015-0-0.047-0.001-0.062-0.001-0.399 0.033-0.804 0.031-1.204 0.001-0.016-0-0.047-0.001-0.063-0.002-0.412 0.033-0.829 0.033-1.241 0h-0.031c-0.474 0.056-0.954-0.015-1.428 0.041z"></path>
<path fill="#fff" d="M8.492 3.319c0.293 0.008 0.59-0.019 0.881 0.013 0.393 0.075 0.416 0.718 0.035 0.826-0.302 0.044-0.611 0.009-0.916 0.019-0.001-0.286-0.001-0.572 0-0.858z"></path>
<path fill="#fff" d="M17.147 3.319c0.366 0.007 0.818-0.075 1.073 0.258 0.338 0.469 0.326 1.233-0.127 1.625-0.27 0.213-0.63 0.138-0.946 0.15-0.001-0.678 0-1.356-0-2.033z"></path>
<path fill="#000" d="M3.629 0.592c0.070-0.014 0.141-0.016 0.212-0.017 5.455 0.001 10.911-0.001 16.366 0.001 0.549-0.007 0.92 0.556 0.928 1.061 0.001 6.909 0.001 13.818 0 20.727-0.008 0.506-0.379 1.067-0.929 1.061-5.376 0.001-10.752 0-16.128 0.001-0.219-0.001-0.454 0.022-0.654-0.089-0.365-0.194-0.561-0.62-0.56-1.022 0.001-6.893-0.001-13.785 0.001-20.678 0.013-0.453 0.294-0.948 0.764-1.045M4.049 1.195c-0.459 0.112-0.708 0.607-0.709 1.051-0.001 6.502-0.001 13.005 0 19.508-0.007 0.495 0.332 1.066 0.875 1.070 5.19 0.001 10.38 0.001 15.571 0 0.543-0.004 0.881-0.575 0.875-1.070 0.002-6.486 0-12.973 0.001-19.459 0.004-0.393-0.158-0.819-0.512-1.022-0.21-0.127-0.463-0.094-0.696-0.097-5.063-0-10.127 0-15.19-0-0.072 0.001-0.144 0.003-0.215 0.020z"></path>
<path fill="#000" d="M5.258 3.007c0.523-0.492 1.598-0.341 1.786 0.415-0.166 0.055-0.332 0.11-0.497 0.168-0.147-0.302-0.564-0.418-0.847-0.238-0.154 0.102-0.14 0.351 0.022 0.438 0.386 0.221 0.87 0.263 1.2 0.584 0.368 0.355 0.319 1.028-0.088 1.334-0.633 0.485-1.715 0.208-1.938-0.59 0.171-0.069 0.345-0.13 0.517-0.196 0.151 0.365 0.59 0.59 0.964 0.422 0.254-0.095 0.3-0.489 0.062-0.63-0.364-0.24-0.839-0.264-1.173-0.557-0.332-0.285-0.328-0.858-0.008-1.151z"></path>
<path fill="#000" d="M7.933 2.775c0.418-0.007 0.837-0.002 1.255-0.003 0.296-0 0.616 0.069 0.829 0.29 0.397 0.425 0.311 1.204-0.195 1.507-0.4 0.245-0.887 0.129-1.33 0.157-0.002 0.391 0.003 0.781-0.003 1.172-0.187-0.001-0.374-0.002-0.561 0.001 0.006-1.041-0.002-2.083 0.005-3.124M8.492 3.319c-0.001 0.286-0.001 0.572 0 0.858 0.305-0.010 0.614 0.024 0.916-0.019 0.381-0.108 0.358-0.751-0.035-0.826-0.292-0.031-0.588-0.005-0.881-0.013z"></path>
<path fill="#000" d="M10.892 2.778c0.676-0.006 1.353-0.005 2.029-0.001 0.005 0.18 0.005 0.36 0 0.54-0.489 0.004-0.979 0-1.468 0.002-0 0.237-0 0.474-0 0.711 0.303 0.002 0.605-0 0.908 0.002 0.002 0.178 0.002 0.355-0.003 0.532-0.301 0.002-0.602 0-0.904 0.001-0.002 0.262-0.001 0.524-0 0.786 0.521 0.004 1.042-0.003 1.564 0.004 0.005 0.18 0.004 0.36 0.001 0.54-0.71 0.004-1.42 0-2.13 0.002 0.003-1.040-0.005-2.079 0.004-3.119z"></path>
<path fill="#000" d="M13.745 2.778c0.677-0.007 1.353-0.004 2.030-0.001 0.004 0.18 0.005 0.359-0 0.539-0.49 0.007-0.98 0-1.47 0.003-0.001 0.237-0 0.474-0 0.712 0.303 0.001 0.607-0.001 0.911 0.001 0.001 0.178 0.003 0.355-0.006 0.532-0.301 0.002-0.603 0-0.905 0.001-0.001 0.262-0.001 0.524 0 0.787 0.522 0.003 1.044-0.003 1.567 0.003 0.005 0.18 0.005 0.36-0.001 0.54-0.71 0.007-1.419-0.002-2.129 0.004 0.006-1.040-0.002-2.080 0.004-3.12z"></path>
<path fill="#000" d="M16.587 2.775c0.673 0.025 1.469-0.135 2.005 0.381 0.61 0.633 0.6 1.802-0.048 2.406-0.541 0.473-1.301 0.304-1.956 0.336-0.005-1.041-0.003-2.082-0.001-3.122M17.147 3.319c0 0.678-0.001 1.356 0 2.033 0.317-0.013 0.677 0.063 0.946-0.15 0.453-0.391 0.464-1.156 0.127-1.625-0.255-0.334-0.708-0.252-1.073-0.258z"></path>
<path fill="#000" d="M6.353 7.419c0.187-0.004 0.373-0.004 0.56 0 0.007 0.855 0 1.711 0.003 2.566 0.494 0.003 0.987-0.002 1.48 0.002 0.002 0.182 0.001 0.364 0 0.546-0.682 0-1.364 0.002-2.046-0-0-1.038-0.004-2.076 0.002-3.114z"></path>
<path fill="#000" d="M9.038 7.418c0.188-0.006 0.376-0.006 0.564-0.001 0.004 1.039 0.003 2.077 0 3.116-0.188 0.003-0.376 0.002-0.565 0.001-0-1.039-0.002-2.077 0.001-3.116z"></path>
<path fill="#000" d="M10.516 7.418c0.188-0.005 0.376-0.007 0.563 0.001 0.278 0.668 0.591 1.32 0.853 1.994 0.267-0.674 0.575-1.332 0.863-1.997 0.18-0.002 0.36-0.002 0.539-0 0.007 1.039 0.005 2.078 0.001 3.117-0.188 0.003-0.376 0.002-0.564 0.001 0.003-0.627-0.008-1.253 0.007-1.88-0.258 0.664-0.567 1.307-0.852 1.96-0.285-0.651-0.579-1.297-0.853-1.953 0.008 0.624 0.005 1.249 0.003 1.873-0.188 0.001-0.375 0.001-0.562 0 0-1.039-0.005-2.078 0.002-3.116z"></path>
<path fill="#000" d="M14.254 7.415c0.184-0.002 0.368-0.002 0.553 0 0.002 1.040 0 2.079 0.001 3.119-0.185-0-0.37-0.001-0.555 0.001 0.002-1.040 0-2.080 0.001-3.12z"></path>
<path fill="#000" d="M15.528 7.41c0.766-0.004 1.532-0.002 2.299-0.001 0.003 0.182 0.003 0.364 0.001 0.547-0.288 0.001-0.576-0.001-0.864 0.001-0.002 0.859 0.001 1.717-0.001 2.576-0.188 0.002-0.375 0.001-0.563 0-0.001-0.859 0-1.718-0.001-2.577-0.29-0.002-0.58 0.002-0.87-0.002-0.003-0.181-0.003-0.363 0-0.544z"></path>
<path fill="#000" d="M5.331 11.525c0.473-0.056 0.954 0.015 1.428-0.041-0.233 0.050-0.441 0.232-0.484 0.471-0.061 0.347 0.326 0.678 0.66 0.566 0.268-0.077 0.434-0.396 0.331-0.658-0.073-0.205-0.272-0.331-0.476-0.38 0.412 0.033 0.83 0.033 1.241 0-0.233 0.050-0.44 0.232-0.484 0.471-0.061 0.346 0.323 0.676 0.656 0.568 0.271-0.076 0.444-0.403 0.332-0.666-0.072-0.191-0.255-0.309-0.442-0.37 0.399 0.030 0.804 0.031 1.204-0.001-0.232 0.053-0.437 0.236-0.478 0.476-0.056 0.344 0.324 0.669 0.655 0.563 0.275-0.076 0.449-0.409 0.331-0.674-0.075-0.189-0.257-0.307-0.445-0.364 1.256 0.031 2.518 0.033 3.774-0.001-0.367 0.057-0.648 0.529-0.382 0.841 0.206 0.307 0.713 0.278 0.865-0.064 0.183-0.335-0.107-0.724-0.453-0.777 0.412 0.033 0.83 0.033 1.242 0-0.232 0.051-0.438 0.233-0.482 0.471-0.060 0.345 0.321 0.675 0.653 0.568 0.274-0.075 0.445-0.404 0.334-0.668-0.072-0.191-0.255-0.309-0.443-0.369 0.399 0.029 0.804 0.031 1.204-0.002-0.231 0.054-0.436 0.237-0.477 0.476-0.054 0.34 0.316 0.661 0.645 0.565 0.268-0.068 0.446-0.379 0.354-0.643-0.067-0.207-0.26-0.338-0.46-0.398 0.399 0.031 0.804 0.031 1.203-0-0.228 0.058-0.431 0.24-0.469 0.479-0.053 0.339 0.319 0.66 0.647 0.562 0.27-0.069 0.446-0.385 0.349-0.65-0.069-0.205-0.263-0.335-0.464-0.391 0.399 0.032 0.803 0.030 1.202 0.001-0.227 0.061-0.428 0.246-0.463 0.485-0.047 0.348 0.346 0.669 0.677 0.546 0.269-0.087 0.426-0.418 0.306-0.677-0.063-0.158-0.216-0.248-0.347-0.341 0.098 0.007 0.195 0.015 0.292 0.026 0.242 0.038 0.544 0.19 0.543 0.472-0.001 2.892 0.002 5.785-0.001 8.677-0.038 0.317-0.41 0.453-0.69 0.454-4.346 0.001-8.692 0.001-13.039 0-0.28-0.001-0.653-0.136-0.69-0.453-0.003-2.893-0-5.785-0.001-8.678-0.001-0.281 0.3-0.433 0.542-0.471M5.359 12.817c-0.174 0.064-0.307 0.225-0.353 0.402-0.081 0.34 0.282 0.68 0.615 0.602 0.214-0.046 0.386-0.243 0.399-0.462 0.032-0.335-0.334-0.658-0.661-0.542M10.466 12.812c-0.346 0.102-0.521 0.602-0.225 0.854 0.224 0.263 0.681 0.194 0.821-0.12 0.205-0.366-0.198-0.857-0.595-0.734M13 12.821c-0.17 0.065-0.298 0.223-0.344 0.398-0.084 0.351 0.303 0.701 0.644 0.596 0.202-0.057 0.36-0.248 0.37-0.459 0.029-0.337-0.343-0.658-0.67-0.535M5.494 14.083c-0.384 0.003-0.663 0.526-0.383 0.822 0.205 0.28 0.673 0.265 0.841-0.045 0.215-0.326-0.084-0.787-0.457-0.777M10.563 14.085c-0.379 0.021-0.638 0.543-0.353 0.83 0.203 0.266 0.65 0.255 0.823-0.038 0.24-0.33-0.080-0.822-0.469-0.791M13.141 14.083c-0.243 0.005-0.444 0.218-0.49 0.448-0.059 0.345 0.327 0.664 0.656 0.558 0.19-0.055 0.34-0.229 0.361-0.427 0.039-0.296-0.233-0.585-0.528-0.579M14.407 14.084c-0.241 0.008-0.437 0.22-0.483 0.447-0.058 0.342 0.322 0.66 0.65 0.56 0.193-0.052 0.345-0.228 0.368-0.427 0.041-0.299-0.236-0.59-0.534-0.58M15.673 14.084c-0.241 0.012-0.435 0.225-0.478 0.453-0.052 0.338 0.32 0.649 0.645 0.556 0.239-0.060 0.413-0.312 0.374-0.557-0.042-0.25-0.283-0.465-0.54-0.451M16.938 14.085c-0.239 0.016-0.43 0.229-0.471 0.456-0.040 0.273 0.195 0.52 0.452 0.565 0.266 0.042 0.534-0.168 0.566-0.433 0.048-0.306-0.242-0.609-0.547-0.588M6.582 15.399c-0.317 0.141-0.435 0.619-0.136 0.842 0.249 0.263 0.731 0.132 0.825-0.213 0.141-0.384-0.317-0.814-0.69-0.629M7.888 15.385c-0.172 0.069-0.301 0.232-0.341 0.412-0.065 0.345 0.319 0.669 0.649 0.568 0.196-0.053 0.348-0.233 0.37-0.435 0.042-0.346-0.345-0.675-0.678-0.544M9.154 15.388c-0.169 0.072-0.297 0.234-0.334 0.413-0.060 0.343 0.32 0.662 0.648 0.563 0.209-0.056 0.369-0.257 0.374-0.473 0.012-0.336-0.366-0.637-0.688-0.503M18.063 15.393c-0.227 0.106-0.393 0.386-0.3 0.634 0.090 0.233 0.359 0.408 0.61 0.341 0.217-0.049 0.387-0.255 0.39-0.478 0.013-0.34-0.378-0.644-0.7-0.497M5.356 16.653c-0.334 0.11-0.496 0.594-0.208 0.839 0.227 0.262 0.689 0.19 0.826-0.128 0.199-0.372-0.225-0.853-0.618-0.711M10.422 16.663c-0.177 0.079-0.313 0.255-0.334 0.449-0.023 0.269 0.212 0.506 0.468 0.542 0.267 0.033 0.531-0.182 0.555-0.45 0.046-0.351-0.354-0.685-0.689-0.541M18.065 16.665c-0.164 0.077-0.291 0.238-0.324 0.417-0.053 0.337 0.316 0.649 0.64 0.558 0.199-0.049 0.359-0.231 0.379-0.435 0.046-0.354-0.36-0.689-0.695-0.539M5.359 17.925c-0.176 0.062-0.308 0.225-0.354 0.403-0.077 0.347 0.306 0.681 0.64 0.583 0.199-0.052 0.359-0.235 0.375-0.442 0.038-0.338-0.334-0.659-0.661-0.544M10.465 17.92c-0.333 0.097-0.517 0.57-0.243 0.826 0.219 0.273 0.689 0.223 0.837-0.097 0.21-0.366-0.197-0.854-0.593-0.73M13 17.928c-0.171 0.065-0.3 0.224-0.345 0.399-0.078 0.345 0.299 0.676 0.631 0.587 0.204-0.050 0.368-0.238 0.383-0.448 0.035-0.34-0.342-0.661-0.67-0.538M18.107 17.923c-0.179 0.061-0.315 0.225-0.361 0.406-0.075 0.337 0.285 0.662 0.612 0.589 0.212-0.042 0.385-0.232 0.403-0.448 0.038-0.336-0.326-0.655-0.654-0.547M6.669 19.187c-0.192 0.049-0.339 0.219-0.39 0.406-0.082 0.337 0.276 0.669 0.606 0.599 0.202-0.038 0.37-0.21 0.403-0.413 0.067-0.336-0.286-0.677-0.619-0.593M7.936 19.189c-0.346 0.086-0.538 0.575-0.257 0.834 0.223 0.276 0.702 0.214 0.841-0.114 0.193-0.359-0.199-0.825-0.584-0.72M9.203 19.191c-0.341 0.090-0.53 0.57-0.254 0.83 0.221 0.276 0.698 0.221 0.841-0.105 0.201-0.361-0.198-0.838-0.587-0.725M14.311 19.189c-0.344 0.088-0.535 0.573-0.255 0.833 0.223 0.277 0.703 0.217 0.842-0.113 0.191-0.36-0.2-0.827-0.586-0.72M15.578 19.191c-0.199 0.060-0.353 0.248-0.385 0.451-0.033 0.273 0.204 0.519 0.464 0.557 0.258 0.034 0.516-0.166 0.554-0.422 0.064-0.339-0.299-0.683-0.633-0.586M16.845 19.192c-0.332 0.095-0.518 0.564-0.25 0.823 0.218 0.278 0.695 0.23 0.843-0.094 0.207-0.364-0.199-0.851-0.593-0.729z"></path>
<path fill="#ccc" d="M6.758 11.484h0.031c0.204 0.048 0.403 0.175 0.476 0.38 0.103 0.262-0.063 0.581-0.331 0.658-0.333 0.112-0.721-0.219-0.66-0.566 0.043-0.24 0.251-0.421 0.484-0.471z"></path>
<path fill="#ccc" d="M8.031 11.484c0.016 0 0.047 0.001 0.063 0.002 0.187 0.061 0.37 0.179 0.442 0.37 0.112 0.263-0.061 0.59-0.332 0.666-0.332 0.108-0.717-0.221-0.656-0.568 0.044-0.239 0.251-0.42 0.484-0.471z"></path>
<path fill="#ccc" d="M9.297 11.485c0.015 0 0.047 0 0.062 0.001 0.188 0.057 0.371 0.175 0.445 0.364 0.118 0.265-0.056 0.598-0.331 0.674-0.331 0.106-0.711-0.219-0.655-0.563 0.041-0.24 0.247-0.422 0.478-0.476z"></path>
<path fill="#ccc" d="M13.133 11.484h0.031c0.346 0.053 0.636 0.442 0.453 0.777-0.153 0.343-0.66 0.371-0.865 0.064-0.266-0.312 0.014-0.784 0.382-0.841z"></path>
<path fill="#ccc" d="M14.406 11.484c0.015 0 0.047 0.001 0.062 0.002 0.188 0.060 0.371 0.178 0.443 0.369 0.112 0.264-0.060 0.593-0.334 0.668-0.332 0.106-0.714-0.224-0.653-0.568 0.044-0.239 0.25-0.42 0.482-0.471z"></path>
<path fill="#ccc" d="M15.672 11.485c0.015 0 0.047 0 0.062 0.001 0.2 0.060 0.394 0.191 0.46 0.398 0.092 0.264-0.086 0.574-0.354 0.643-0.329 0.096-0.699-0.225-0.645-0.565 0.041-0.24 0.246-0.422 0.477-0.476z"></path>
<path fill="#ccc" d="M16.938 11.485c0.016 0 0.047 0 0.063 0 0.201 0.056 0.395 0.186 0.464 0.391 0.097 0.265-0.079 0.58-0.349 0.65-0.328 0.098-0.7-0.223-0.647-0.562 0.038-0.239 0.241-0.42 0.469-0.479z"></path>
<path fill="#ccc" d="M18.203 11.487c0.156-0.022 0.313 0.008 0.465 0.038-0.098-0.010-0.195-0.019-0.292-0.026 0.131 0.093 0.284 0.183 0.347 0.341 0.12 0.259-0.038 0.591-0.306 0.677-0.33 0.124-0.724-0.197-0.677-0.546 0.035-0.239 0.235-0.424 0.463-0.485z"></path>
<path fill="#ccc" d="M5.359 12.817c0.328-0.116 0.694 0.207 0.661 0.542-0.013 0.219-0.185 0.416-0.399 0.462-0.333 0.078-0.697-0.262-0.615-0.602 0.046-0.178 0.179-0.338 0.353-0.402z"></path>
<path fill="#ccc" d="M10.466 12.812c0.397-0.123 0.8 0.367 0.595 0.734-0.14 0.315-0.597 0.384-0.821 0.12-0.295-0.252-0.121-0.752 0.225-0.854z"></path>
<path fill="#ccc" d="M13 12.821c0.327-0.123 0.699 0.198 0.67 0.535-0.011 0.21-0.168 0.402-0.37 0.459-0.341 0.105-0.728-0.245-0.644-0.596 0.046-0.174 0.174-0.332 0.344-0.398z"></path>
<path fill="#ccc" d="M5.494 14.083c0.374-0.010 0.673 0.451 0.457 0.777-0.168 0.31-0.636 0.325-0.841 0.045-0.28-0.295-0-0.818 0.383-0.822z"></path>
<path fill="#ccc" d="M10.563 14.085c0.389-0.031 0.709 0.461 0.469 0.791-0.173 0.293-0.62 0.305-0.823 0.038-0.285-0.286-0.026-0.809 0.353-0.83z"></path>
<path fill="#ccc" d="M13.141 14.083c0.295-0.005 0.567 0.283 0.528 0.579-0.021 0.197-0.172 0.372-0.361 0.427-0.329 0.106-0.715-0.213-0.656-0.558 0.046-0.229 0.247-0.442 0.49-0.448z"></path>
<path fill="#ccc" d="M14.407 14.084c0.298-0.010 0.575 0.281 0.534 0.58-0.023 0.199-0.175 0.375-0.368 0.427-0.328 0.1-0.707-0.218-0.65-0.56 0.046-0.227 0.242-0.439 0.483-0.447z"></path>
<path fill="#ccc" d="M15.673 14.084c0.258-0.013 0.498 0.201 0.54 0.451 0.039 0.245-0.135 0.497-0.374 0.557-0.324 0.093-0.696-0.218-0.645-0.556 0.043-0.228 0.237-0.441 0.478-0.453z"></path>
<path fill="#ccc" d="M16.938 14.085c0.305-0.021 0.595 0.282 0.547 0.588-0.031 0.265-0.3 0.475-0.566 0.433-0.257-0.045-0.492-0.292-0.452-0.565 0.040-0.227 0.232-0.44 0.471-0.456z"></path>
<path fill="#ccc" d="M6.582 15.399c0.372-0.185 0.83 0.245 0.69 0.629-0.095 0.345-0.576 0.476-0.825 0.213-0.299-0.223-0.181-0.701 0.136-0.842z"></path>
<path fill="#ccc" d="M7.888 15.385c0.333-0.131 0.72 0.198 0.678 0.544-0.022 0.202-0.174 0.382-0.37 0.435-0.33 0.101-0.713-0.223-0.649-0.568 0.039-0.18 0.169-0.343 0.341-0.412z"></path>
<path fill="#ccc" d="M9.154 15.388c0.322-0.133 0.699 0.168 0.688 0.503-0.005 0.217-0.165 0.418-0.374 0.473-0.328 0.099-0.708-0.221-0.648-0.563 0.037-0.179 0.165-0.342 0.334-0.413z"></path>
<path fill="#ccc" d="M18.063 15.393c0.322-0.146 0.713 0.157 0.7 0.497-0.003 0.223-0.173 0.428-0.39 0.478-0.251 0.067-0.52-0.107-0.61-0.341-0.094-0.248 0.072-0.528 0.3-0.634z"></path>
<path fill="#ccc" d="M5.356 16.653c0.393-0.142 0.817 0.338 0.618 0.711-0.137 0.318-0.599 0.39-0.826 0.128-0.289-0.244-0.126-0.729 0.208-0.839z"></path>
<path fill="#ccc" d="M10.422 16.663c0.334-0.144 0.735 0.19 0.689 0.541-0.023 0.267-0.288 0.483-0.555 0.45-0.256-0.036-0.492-0.273-0.468-0.542 0.021-0.193 0.158-0.37 0.334-0.449z"></path>
<path fill="#ccc" d="M18.065 16.665c0.336-0.15 0.742 0.185 0.695 0.539-0.020 0.205-0.18 0.386-0.379 0.435-0.324 0.091-0.693-0.22-0.64-0.558 0.033-0.179 0.16-0.34 0.324-0.417z"></path>
<path fill="#ccc" d="M5.359 17.925c0.328-0.115 0.7 0.206 0.661 0.544-0.016 0.207-0.176 0.39-0.375 0.442-0.334 0.098-0.718-0.236-0.64-0.583 0.045-0.179 0.178-0.341 0.354-0.403z"></path>
<path fill="#ccc" d="M10.465 17.92c0.397-0.124 0.804 0.364 0.593 0.73-0.148 0.32-0.618 0.37-0.837 0.097-0.274-0.256-0.090-0.73 0.243-0.826z"></path>
<path fill="#ccc" d="M13 17.928c0.328-0.123 0.705 0.198 0.67 0.538-0.015 0.21-0.179 0.398-0.383 0.448-0.333 0.090-0.709-0.242-0.631-0.587 0.044-0.175 0.173-0.334 0.345-0.399z"></path>
<path fill="#ccc" d="M18.107 17.923c0.328-0.107 0.691 0.212 0.654 0.547-0.017 0.216-0.191 0.406-0.403 0.448-0.327 0.074-0.687-0.252-0.612-0.589 0.045-0.181 0.182-0.345 0.361-0.406z"></path>
<path fill="#ccc" d="M6.669 19.187c0.333-0.084 0.685 0.257 0.619 0.593-0.032 0.203-0.201 0.375-0.403 0.413-0.33 0.070-0.687-0.262-0.606-0.599 0.051-0.188 0.198-0.357 0.39-0.406z"></path>
<path fill="#ccc" d="M7.936 19.189c0.385-0.105 0.777 0.362 0.584 0.72-0.139 0.328-0.618 0.39-0.841 0.114-0.281-0.26-0.089-0.749 0.257-0.834z"></path>
<path fill="#ccc" d="M9.203 19.191c0.389-0.113 0.788 0.364 0.587 0.725-0.143 0.326-0.62 0.381-0.841 0.105-0.276-0.26-0.087-0.74 0.254-0.83z"></path>
<path fill="#ccc" d="M14.311 19.189c0.386-0.106 0.777 0.36 0.586 0.72-0.139 0.329-0.619 0.39-0.842 0.113-0.279-0.26-0.088-0.745 0.255-0.833z"></path>
<path fill="#ccc" d="M15.578 19.191c0.335-0.096 0.697 0.248 0.633 0.586-0.038 0.256-0.296 0.457-0.554 0.422-0.26-0.038-0.497-0.285-0.464-0.557 0.032-0.204 0.186-0.392 0.385-0.451z"></path>
<path fill="#ccc" d="M16.845 19.192c0.394-0.122 0.799 0.365 0.592 0.729-0.148 0.324-0.625 0.372-0.843 0.094-0.268-0.259-0.082-0.728 0.25-0.823z"></path>
</svg>
