<?xml version="1.0" encoding="utf-8"?>
<!-- Generated by IcoMoon.io -->
<!DOCTYPE svg PUBLIC "-//W3C//DTD SVG 1.1//EN" "http://www.w3.org/Graphics/SVG/1.1/DTD/svg11.dtd">
<svg version="1.1" xmlns="http://www.w3.org/2000/svg" xmlns:xlink="http://www.w3.org/1999/xlink" width="24" height="24" viewBox="0 0 24 24">
<path fill="#f7fbf5" stroke="#c1121c" stroke-width="3.12" stroke-miterlimit="4" stroke-linecap="butt" stroke-linejoin="miter" d="M22.44 12c0 5.766-4.674 10.44-10.44 10.44s-10.44-4.674-10.44-10.44c0-5.766 4.674-10.44 10.44-10.44s10.44 4.674 10.44 10.44z"></path>
<path fill="#2a2d2f" d="M12.074 9.92h2.555v1.188c0 0.232 0.166 0.225 0.166 0.225h0.774c0 0 0.166 0.007 0.166-0.225v-1.188h0.074l0.521-0.595v-1.894l-0.521-0.391-0.753-1.904c-1.68-0.225-2.99-0.242-2.99-0.232 0-0.010-1.31 0.007-2.992 0.232l-0.75 1.904-0.521 0.391v1.894l0.521 0.595h0.074v1.188c0 0.232 0.166 0.225 0.166 0.225h0.771c0 0 0.168 0.007 0.168-0.225v-1.188h2.571z"></path>
<path fill="#f7fbf5" d="M12.066 6.911c0-0.010 2.201 0.056 3.278 0.138l0.008-0.003-0.574-1.455c-1.68-0.222-2.711-0.242-2.711-0.232 0-0.010-1.031 0.010-2.713 0.232l-0.574 1.455 0.010 0.003c1.074-0.082 3.277-0.148 3.277-0.138z"></path>
<path fill="#f7fbf5" d="M14.31 8.692h1.429c0.154 0 0.161-0.158 0.161-0.158v-0.738c0 0-0.008-0.158-0.161-0.158h-1.184c-0.153 0-0.207 0.107-0.227 0.154-0.033 0.076-0.186 0.742-0.186 0.742 0 0.151 0.169 0.158 0.169 0.158z"></path>
<path fill="#f7fbf5" d="M9.823 8.692h-1.43c-0.153 0-0.163-0.158-0.163-0.158v-0.738c0 0 0.010-0.158 0.163-0.158h1.185c0.153 0 0.207 0.107 0.227 0.154 0.033 0.076 0.187 0.742 0.187 0.742 0 0.151-0.169 0.158-0.169 0.158z"></path>
<path fill="#2a2d2f" d="M9.457 19.081c0.837 0 1.514-0.676 1.514-1.514s-0.677-1.514-1.514-1.514c-0.835 0-1.513 0.676-1.513 1.514s0.679 1.514 1.513 1.514z"></path>
<path fill="#f7fbf5" d="M9.455 18.529c0.531 0 0.963-0.431 0.963-0.962 0-0.534-0.431-0.965-0.963-0.965-0.533 0-0.965 0.431-0.965 0.965 0 0.531 0.431 0.962 0.965 0.962z"></path>
<path fill="#2a2d2f" d="M14.752 19.081c0.837 0 1.513-0.676 1.513-1.514s-0.676-1.514-1.513-1.514c-0.835 0-1.514 0.676-1.514 1.514s0.679 1.514 1.514 1.514z"></path>
<path fill="#f7fbf5" d="M14.749 18.529c0.531 0 0.962-0.431 0.962-0.962 0-0.534-0.431-0.965-0.962-0.965-0.534 0-0.965 0.431-0.965 0.965 0 0.531 0.431 0.962 0.965 0.962z"></path>
<path fill="#2a2d2f" d="M9.993 15.065l1.534-1.689c0.314-0.345 0.827-0.427 1.078-0.084 0.25 0.344 1.217 1.644 1.217 1.644 0.426 0.69-0.056 1.172-0.309 1.172-0.603 0-1.578 0-1.578 0l1.113 1.282-0.306 0.493-1.67-1.701c-0.179-0.168-0.151-0.64 0.127-0.707 0.281-0.063 1.264-0.334 1.264-0.334l-0.863-0.909-1.291 1.152-0.317-0.317z"></path>
<path fill="#2a2d2f" d="M12.204 12.925c-0.229-0.018-0.487 0.095-0.676 0.301l-0.059 0.064h-0.582v-0.437h0.5v-0.307h-0.5c0-1.113 1.468-1.085 1.468 0 0 0.13-0.151 0.378-0.151 0.378z"></path>
</svg>
