<!-- Generated by IcoMoon.io -->
<svg version="1.1" xmlns="http://www.w3.org/2000/svg" width="24" height="24" viewBox="0 0 24 24">
<title>regulatory--all-directions-permitted--g1</title>
<path fill="#0366b3" d="M10.689 0h2.533c4.043 0.46 7.801 3.003 9.567 6.691 0.65 1.272 0.982 2.671 1.21 4.072v2.457c-0.459 4.045-3.003 7.803-6.693 9.569-1.27 0.65-2.669 0.982-4.070 1.21h-2.521c-1.415-0.241-2.832-0.579-4.114-1.248-3.5-1.717-6.010-5.237-6.535-9.097 0.082-1.093 0.086-2.195-0.003-3.288 0.517-3.867 3.031-7.398 6.537-9.119 1.273-0.665 2.68-1 4.087-1.248M12.102 1.409c-0.854 1.41-1.69 2.833-2.511 4.263-0.202 0.305-0.376 1 0.192 0.985 0.566-0.155 0.977-0.623 1.461-0.935 0.004 1.645 0.007 3.29-0.001 4.933-0.72-0.719-1.405-1.473-2.134-2.182-0.438 0.363-0.854 0.75-1.243 1.165 1.114 1.307 2.44 2.433 3.46 3.814-1.625-1.337-3.801-1.449-5.81-1.376 0.321-0.494 0.807-0.917 0.942-1.509-0.078-0.515-0.686-0.322-0.986-0.141-1.435 0.823-2.86 1.664-4.274 2.521 1.359 0.857 2.763 1.643 4.145 2.465 0.329 0.173 0.934 0.496 1.111-0.025-0.085-0.625-0.623-1.057-0.94-1.573 1.6 0.008 3.58-0.287 4.692 1.165 1.663 2.165 0.833 5.044 1.055 7.553 0.565 0.022 1.13 0.021 1.694 0.008 0.102-1.616-0.175-3.275 0.313-4.848 0.29-1.034 0.944-2.039 1.971-2.455 1.113-0.458 2.348-0.239 3.518-0.284-0.316 0.489-0.772 0.909-0.942 1.478 0.014 0.57 0.697 0.373 1.007 0.176 1.423-0.827 2.853-1.65 4.255-2.516-1.407-0.858-2.829-1.694-4.257-2.516-0.309-0.196-0.974-0.389-1.006 0.17 0.166 0.57 0.622 0.99 0.937 1.48-1.99-0.060-4.209-0.010-5.778 1.398 0.008-2.967-0.003-5.935 0.005-8.902 0.527 0.313 0.968 0.925 1.62 0.927 0.467-0.23 0.121-0.797-0.040-1.122-0.82-1.371-1.589-2.774-2.455-4.117z"></path>
<path fill="#fff" d="M12.102 1.409c0.866 1.342 1.634 2.746 2.455 4.117 0.162 0.325 0.507 0.892 0.040 1.122-0.652-0.003-1.093-0.614-1.62-0.927-0.008 2.967 0.003 5.935-0.005 8.902 1.569-1.409 3.788-1.458 5.778-1.398-0.314-0.49-0.771-0.91-0.937-1.48 0.031-0.558 0.697-0.365 1.006-0.17 1.428 0.822 2.85 1.658 4.257 2.516-1.402 0.866-2.832 1.689-4.255 2.516-0.31 0.197-0.993 0.394-1.007-0.176 0.17-0.569 0.626-0.989 0.942-1.478-1.17 0.046-2.405-0.173-3.518 0.284-1.027 0.416-1.681 1.42-1.971 2.455-0.488 1.573-0.211 3.232-0.313 4.848-0.565 0.013-1.13 0.014-1.694-0.008-0.222-2.51 0.608-5.388-1.055-7.553-1.111-1.452-3.091-1.157-4.692-1.165 0.317 0.517 0.856 0.948 0.94 1.573-0.177 0.52-0.783 0.198-1.111 0.025-1.383-0.822-2.786-1.608-4.145-2.465 1.414-0.857 2.84-1.698 4.274-2.521 0.3-0.181 0.908-0.374 0.986 0.141-0.134 0.592-0.621 1.015-0.942 1.509 2.009-0.073 4.184 0.039 5.81 1.376-1.020-1.381-2.347-2.507-3.46-3.814 0.389-0.415 0.805-0.802 1.243-1.165 0.729 0.71 1.414 1.463 2.134 2.182 0.008-1.643 0.005-3.288 0.001-4.933-0.484 0.312-0.895 0.78-1.461 0.935-0.567 0.016-0.394-0.68-0.192-0.985 0.82-1.43 1.657-2.853 2.511-4.263z"></path>
<path fill="#93b2ca" opacity="0.89" d="M0 10.607l0.065-0.24c0.089 1.093 0.085 2.195 0.003 3.288l-0.068-0.239v-2.81z"></path>
</svg>
