<!-- Generated by IcoMoon.io -->
<svg version="1.1" xmlns="http://www.w3.org/2000/svg" width="24" height="24" viewBox="0 0 24 24">
<title>regulatory--low-beam-headlights--g2</title>
<path fill="#c0111e" d="M11.033 0h1.873c4.2 0.341 8.142 2.969 9.922 6.81 0.655 1.325 0.974 2.778 1.172 4.234v1.841c-0.338 4.11-2.845 7.988-6.565 9.817-1.385 0.734-2.928 1.084-4.469 1.298h-1.872c-4.229-0.352-8.194-3.012-9.96-6.894-0.632-1.3-0.937-2.723-1.134-4.146v-1.856c0.184-1.57 0.56-3.13 1.29-4.54 1.819-3.7 5.658-6.198 9.743-6.564M10.972 2.338c-2.392 0.244-4.67 1.411-6.258 3.218-2.689 2.969-3.199 7.639-1.231 11.125 1.738 3.25 5.452 5.292 9.128 5.010 3.698-0.18 7.139-2.7 8.443-6.162 1.099-2.803 0.809-6.114-0.799-8.665-1.89-3.128-5.657-4.948-9.283-4.526z"></path>
<path fill="#fff" d="M10.972 2.338c3.626-0.421 7.393 1.398 9.283 4.526 1.608 2.551 1.898 5.862 0.799 8.665-1.304 3.462-4.745 5.982-8.443 6.162-3.677 0.282-7.391-1.76-9.128-5.010-1.968-3.486-1.458-8.156 1.231-11.125 1.588-1.807 3.866-2.975 6.258-3.218M7.487 9.439c-1.225 0.233-2.161 1.441-2.074 2.687 0.037 1.35 1.272 2.536 2.627 2.485 1.346 0.030 2.558-1.153 2.594-2.492 0.132-1.64-1.547-3.074-3.148-2.68M15.412 9.445c-1.211 0.245-2.129 1.441-2.046 2.674 0.034 1.34 1.248 2.524 2.593 2.494 1.316 0.044 2.521-1.068 2.62-2.374 0.22-1.692-1.514-3.224-3.167-2.794z"></path>
<path fill="#fff" d="M5.822 12.196c1.466-0.006 2.933-0.004 4.399-0.001-0.121 1.075-1.082 1.99-2.18 1.968-1.112 0.042-2.093-0.88-2.219-1.967z"></path>
<path fill="#fff" d="M13.777 12.194c1.466-0.002 2.933-0.005 4.399 0.001-0.127 1.087-1.105 2.008-2.218 1.967-1.098 0.023-2.060-0.892-2.182-1.968z"></path>
<path fill="#000" d="M7.487 9.439c1.601-0.395 3.28 1.039 3.148 2.68-0.036 1.339-1.248 2.522-2.594 2.492-1.355 0.050-2.59-1.135-2.627-2.485-0.088-1.246 0.848-2.454 2.074-2.687M5.822 12.196c0.126 1.087 1.106 2.009 2.219 1.967 1.098 0.022 2.059-0.893 2.18-1.968-1.466-0.002-2.933-0.005-4.399 0.001z"></path>
<path fill="#000" d="M15.412 9.445c1.652-0.431 3.386 1.102 3.167 2.794-0.098 1.306-1.303 2.418-2.62 2.374-1.345 0.030-2.56-1.153-2.593-2.494-0.083-1.232 0.835-2.429 2.046-2.674M13.777 12.194c0.121 1.076 1.084 1.991 2.182 1.968 1.112 0.041 2.090-0.88 2.218-1.967-1.466-0.006-2.933-0.004-4.399-0.001z"></path>
</svg>
