<!-- Generated by IcoMoon.io -->
<svg version="1.1" xmlns="http://www.w3.org/2000/svg" width="33" height="24" viewBox="0 0 33 24">
<title>regulatory--pass-on-either-side--g2</title>
<path fill="#f2f7fa" d="M0 0h0.523c-0.094 0.27-0.204 0.568-0.476 0.707l-0.047-0.101v-0.606z"></path>
<path fill="#03559b" d="M0.523 0h32.852v24h-32.874c-0.086-0.277-0.188-0.581-0.456-0.735 0.223-0.863 0.131-1.761 0.144-2.64-0.009-5.751-0.008-11.501 0-17.25-0.015-0.891 0.084-1.798-0.143-2.668 0.272-0.139 0.383-0.437 0.476-0.707M11.355 3.471c-3.214 2.824-6.399 5.681-9.592 8.529 3.195 2.844 6.384 5.696 9.576 8.543 0.598 0.643 1.747 0.052 1.543-0.81-0.383-1.669-0.893-3.308-1.309-4.971 3.669-0.006 7.337-0.006 11.004 0-0.418 1.671-0.934 3.317-1.314 4.995-0.178 0.842 0.938 1.418 1.53 0.799 3.201-2.848 6.392-5.707 9.594-8.554-3.197-2.852-6.386-5.713-9.602-8.541-0.594-0.624-1.706-0.022-1.521 0.812 0.386 1.673 0.896 3.315 1.313 4.978-3.668 0.008-7.337 0.008-11.004 0 0.416-1.665 0.928-3.309 1.313-4.984 0.182-0.84-0.943-1.429-1.53-0.797z"></path>
<path fill="#508bbb" d="M0 0.606l0.047 0.101c0.227 0.87 0.128 1.777 0.143 2.668-0.008 5.749-0.009 11.499 0 17.25-0.013 0.879 0.079 1.777-0.144 2.64l-0.045 0.101v-22.761z"></path>
<path fill="#fff" d="M11.355 3.471c0.587-0.632 1.712-0.043 1.53 0.797-0.384 1.674-0.896 3.319-1.313 4.984 3.668 0.008 7.337 0.008 11.004 0-0.416-1.663-0.926-3.306-1.313-4.978-0.186-0.834 0.926-1.436 1.521-0.812 3.216 2.828 6.405 5.689 9.602 8.541-3.203 2.846-6.394 5.706-9.594 8.554-0.592 0.619-1.708 0.043-1.53-0.799 0.381-1.678 0.896-3.324 1.314-4.995-3.668-0.006-7.335-0.006-11.004 0 0.416 1.663 0.926 3.302 1.309 4.971 0.204 0.863-0.945 1.453-1.543 0.81-3.191-2.846-6.381-5.698-9.576-8.543 3.193-2.848 6.379-5.706 9.592-8.529z"></path>
<path fill="#ecf2f8" d="M0 23.366l0.045-0.101c0.268 0.154 0.369 0.457 0.456 0.735h-0.501v-0.634z"></path>
</svg>
