<?xml version="1.0" encoding="utf-8"?>
<!-- Generated by IcoMoon.io -->
<!DOCTYPE svg PUBLIC "-//W3C//DTD SVG 1.1//EN" "http://www.w3.org/Graphics/SVG/1.1/DTD/svg11.dtd">
<svg version="1.1" xmlns="http://www.w3.org/2000/svg" xmlns:xlink="http://www.w3.org/1999/xlink" width="24" height="24" viewBox="0 0 24 24">
<path fill="#fff" d="M3.662 23.942h16.773c0.809 0 1.275-0.49 1.275-1.251v-21.384c0-0.76-0.466-1.251-1.275-1.251h-16.773c-0.809 0-1.275 0.49-1.275 1.251v21.384c0 0.76 0.466 1.251 1.275 1.251z"></path>
<path fill="#231f20" d="M2.927 22.692c0 0.441 0.294 0.711 0.736 0.711h16.773c0.441 0 0.736-0.27 0.736-0.711v-21.384c0-0.441-0.294-0.711-0.736-0.711h-16.773c-0.441 0-0.736 0.27-0.736 0.711zM3.417 22.692v-21.384c0-0.147 0.098-0.221 0.245-0.221h16.773c0.147 0 0.245 0.073 0.245 0.221v21.384c0 0.147-0.098 0.221-0.245 0.221h-16.773c-0.147 0-0.245-0.073-0.245-0.221zM17.883 6.556l-2.918-4.169-2.894 4.169c-0.172 0.221-0.172 0.466-0.074 0.613 0.147 0.196 0.368 0.27 0.613 0.196l1.127-0.392v5.624c-0.932-0.842-2.131-1.554-3.842-1.952l0.711-1.004c0.147-0.221 0.123-0.441 0-0.637-0.123-0.147-0.392-0.196-0.638-0.098l-4.75 1.599 3.097 4.003c0.172 0.221 0.368 0.294 0.564 0.245 0.294-0.074 0.368-0.27 0.368-0.564l-0.024-1.126c4.283 0.997 4.515 4.432 4.515 4.578v3.826h2.391v-14.493l1.19 0.392c0.27 0.074 0.491 0 0.613-0.196 0.098-0.147 0.098-0.392-0.049-0.613z"></path>
</svg>
