<!-- Generated by IcoMoon.io -->
<svg version="1.1" xmlns="http://www.w3.org/2000/svg" width="24" height="24" viewBox="0 0 24 24">
<title>regulatory--no-heavy-goods-vehicles--g2</title>
<path fill="#e20a16" d="M11.119 0h1.487c4.53 0.217 8.784 3.182 10.481 7.397 0.498 1.141 0.731 2.37 0.913 3.595v2.036c-0.396 4.088-2.929 7.918-6.647 9.714-1.337 0.701-2.822 1.039-4.306 1.258h-2.082c-1.274-0.196-2.552-0.454-3.734-0.985-4.126-1.746-7.008-5.94-7.231-10.405v-1.202c0.222-4.752 3.492-9.184 8.005-10.718 1.004-0.364 2.063-0.524 3.114-0.689M5.384 4.496c0.883 1.614 1.838 3.188 2.742 4.79 1.010 1.75 2.032 3.494 3.036 5.246 1.334 2.323 2.677 4.642 4.016 6.962 2.275-0.773 4.26-2.371 5.464-4.454 1.412-2.38 1.742-5.359 0.917-7.997-0.977-3.234-3.708-5.869-6.986-6.7-3.173-0.87-6.724-0.022-9.188 2.152M3.412 17.111c1.931 3.329 5.896 5.306 9.718 4.838-1.252-2.167-2.494-4.34-3.761-6.499-0.347-0.588-0.631-1.219-1.061-1.753 0.059-0.151-0.088-0.39-0.28-0.281 0.035-0.034 0.103-0.102 0.137-0.136-0.28-0.379-0.484-0.806-0.748-1.196-0.235-0.455-0.496-0.896-0.756-1.337-0.082-0.145-0.164-0.289-0.246-0.433-0.822-1.414-1.628-2.834-2.458-4.243-2.369 3.133-2.598 7.688-0.546 11.040z"></path>
<path fill="#fff" d="M5.384 4.496c2.465-2.173 6.016-3.022 9.188-2.152 3.278 0.83 6.010 3.466 6.986 6.7 0.826 2.638 0.496 5.617-0.917 7.997-1.204 2.083-3.188 3.682-5.464 4.454-1.339-2.321-2.682-4.639-4.016-6.962 1.854 0.005 3.708 0.004 5.563 0.001 0.066-0.724 0.631-1.402 1.394-1.404 0.802-0.059 1.444 0.638 1.506 1.404 0.492 0.002 0.984 0.002 1.477 0.001-0.001-1.77 0.007-3.539-0.002-5.308 0.040-0.445-0.384-0.792-0.811-0.739-3.805 0.002-7.613-0.008-11.418 0.005-0.456-0.034-0.665 0.419-0.745 0.793-0.904-1.602-1.859-3.176-2.742-4.79M17.915 13.596c-0.718 0.157-0.971 1.182-0.413 1.658 0.505 0.532 1.502 0.222 1.631-0.496 0.19-0.692-0.536-1.38-1.218-1.163z"></path>
<path fill="#fff" d="M3.412 17.111c-2.052-3.352-1.823-7.907 0.546-11.040 0.829 1.409 1.636 2.83 2.458 4.243-0.772 0.079-1.984-0.346-2.267 0.678-0.26 0.911-1.096 1.585-1.073 2.567-0.097 0.317-0.199 0.637-0.176 0.976 0.336 0.001 0.673 0.001 1.010 0 0.062-0.76 0.695-1.456 1.492-1.404 0.769-0.005 1.343 0.677 1.41 1.406 0.21-0.004 0.421-0.004 0.632-0.001 0.078-0.424 0.229-0.85 0.584-1.12 0.192-0.109 0.338 0.13 0.28 0.281-0.938 0.73-0.038 2.26 1.061 1.753 1.267 2.159 2.509 4.332 3.761 6.499-3.822 0.468-7.787-1.51-9.718-4.838M5.077 13.603c-0.732 0.178-0.949 1.249-0.34 1.697 0.532 0.487 1.489 0.13 1.586-0.58 0.158-0.691-0.576-1.349-1.247-1.117z"></path>
<path fill="#fff" d="M11.194 9.526c0.402-0.366 0.865-0.662 1.435-0.535 0.001 1.678 0.001 3.355 0 5.033-0.29 0.001-0.582 0.001-0.872 0-0.004-1.332 0.002-2.665-0.004-3.997-0.185 0.139-0.377 0.268-0.56 0.409-0.004-0.304 0.002-0.607 0.001-0.91z"></path>
<path fill="#fff" d="M14.684 9.055c0.832-0.376 1.897 0.245 1.962 1.158 0.028 0.869 0.035 1.742-0.004 2.611-0.094 1.025-1.427 1.606-2.24 0.973-0.766-0.499-0.606-1.496-0.612-2.278-0.035-0.88-0.125-2.094 0.894-2.465M14.924 9.889c-0.323 0.185-0.272 0.595-0.275 0.91 0.025 0.67-0.041 1.344 0.034 2.010 0.138 0.518 0.971 0.508 1.091-0.017 0.059-0.815 0.025-1.639 0.018-2.458-0.001-0.418-0.526-0.67-0.868-0.445z"></path>
<path fill="#fff" d="M18.176 8.999c0.186 0.001 0.372 0.002 0.559 0.001-0.005 0.266 0.005 0.533-0.002 0.799 0.097 0.005 0.29 0.013 0.388 0.018-0.004 0.178-0.004 0.355 0 0.534-0.097 0.004-0.29 0.013-0.386 0.018 0.004 0.606 0 1.213 0.002 1.819 0.101 0.008 0.301 0.025 0.401 0.034-0.004 0.182-0.005 0.366-0.002 0.55-0.364 0.025-0.836-0.046-0.932-0.466-0.065-0.629-0.011-1.264-0.024-1.895-0.068-0.030-0.204-0.090-0.271-0.12 0.001-0.138 0-0.275-0.005-0.412 0.068-0.031 0.208-0.091 0.276-0.121-0.004-0.253-0.002-0.506-0.002-0.76z"></path>
<path fill="#fff" d="M4.226 11.885c0.179-0.377 0.305-0.792 0.583-1.11 0.613-0.072 1.235-0.016 1.852-0.028 0.26 0.44 0.521 0.882 0.756 1.337-1.018 0.1-2.044 0.047-3.065 0.036-0.031-0.059-0.095-0.176-0.126-0.235z"></path>
<path fill="#000" d="M8.126 9.287c0.080-0.374 0.289-0.827 0.745-0.793 3.805-0.013 7.613-0.002 11.418-0.005 0.427-0.053 0.851 0.294 0.811 0.739 0.010 1.769 0.001 3.538 0.002 5.308-0.493 0.001-0.985 0.001-1.477-0.001-0.062-0.766-0.704-1.463-1.506-1.404-0.763 0.002-1.328 0.68-1.394 1.404-1.855 0.002-3.709 0.004-5.563-0.001-1.004-1.752-2.026-3.497-3.036-5.246M11.194 9.526c0.001 0.302-0.005 0.606-0.001 0.91 0.184-0.142 0.376-0.27 0.56-0.409 0.006 1.332 0 2.665 0.004 3.997 0.29 0.001 0.582 0.001 0.872 0 0.001-1.678 0.001-3.355 0-5.033-0.57-0.127-1.033 0.169-1.435 0.535M14.684 9.055c-1.019 0.371-0.929 1.585-0.894 2.465 0.006 0.781-0.154 1.778 0.612 2.278 0.814 0.632 2.147 0.052 2.24-0.973 0.038-0.869 0.031-1.742 0.004-2.611-0.065-0.913-1.13-1.534-1.962-1.158M18.176 8.999c0 0.253-0.001 0.506 0.002 0.76-0.068 0.030-0.208 0.090-0.276 0.121 0.005 0.137 0.006 0.274 0.005 0.412 0.067 0.030 0.203 0.090 0.271 0.12 0.013 0.631-0.041 1.266 0.024 1.895 0.096 0.42 0.569 0.491 0.932 0.466-0.002-0.184-0.001-0.367 0.002-0.55-0.1-0.008-0.3-0.025-0.401-0.034-0.002-0.606 0.001-1.213-0.002-1.819 0.096-0.005 0.289-0.014 0.386-0.018-0.004-0.179-0.004-0.356 0-0.534-0.097-0.005-0.29-0.013-0.388-0.018 0.007-0.266-0.002-0.533 0.002-0.799-0.187 0.001-0.373 0-0.559-0.001z"></path>
<path fill="#000" d="M14.924 9.889c0.342-0.224 0.866 0.028 0.868 0.445 0.007 0.818 0.041 1.643-0.018 2.458-0.12 0.524-0.953 0.535-1.091 0.017-0.074-0.666-0.008-1.34-0.034-2.010 0.002-0.314-0.048-0.725 0.275-0.91z"></path>
<path fill="#000" d="M4.148 10.992c0.283-1.024 1.495-0.599 2.267-0.678 0.082 0.144 0.164 0.288 0.246 0.433-0.617 0.012-1.238-0.044-1.852 0.028-0.278 0.318-0.404 0.733-0.583 1.11 0.031 0.059 0.095 0.176 0.126 0.235 1.021 0.011 2.047 0.064 3.065-0.036 0.264 0.39 0.468 0.817 0.748 1.196-0.034 0.034-0.102 0.102-0.137 0.136-0.355 0.27-0.506 0.696-0.584 1.12-0.211-0.002-0.422-0.002-0.632 0.001-0.067-0.73-0.641-1.411-1.41-1.406-0.797-0.052-1.429 0.644-1.492 1.404-0.337 0.001-0.674 0.001-1.010 0-0.023-0.338 0.079-0.659 0.176-0.976-0.023-0.982 0.812-1.656 1.073-2.567z"></path>
<path fill="#000" d="M5.077 13.603c0.671-0.232 1.405 0.426 1.247 1.117-0.097 0.709-1.055 1.067-1.586 0.58-0.61-0.448-0.392-1.519 0.34-1.697z"></path>
<path fill="#000" d="M17.915 13.596c0.682-0.217 1.408 0.47 1.218 1.163-0.128 0.718-1.126 1.027-1.631 0.496-0.558-0.476-0.305-1.501 0.413-1.658z"></path>
<path fill="#000" d="M9.368 15.45c-1.099 0.506-1.999-1.024-1.061-1.753 0.43 0.534 0.714 1.165 1.061 1.753z"></path>
</svg>
