<!-- Generated by IcoMoon.io -->
<svg version="1.1" xmlns="http://www.w3.org/2000/svg" width="24" height="24" viewBox="0 0 24 24">
<title>regulatory--truck-speed-limit-50--g1</title>
<path fill="#fff" d="M0.914 0h22.171c0.448 0.101 0.814 0.468 0.915 0.916v22.167c-0.1 0.449-0.468 0.816-0.915 0.917h-22.169c-0.447-0.101-0.814-0.467-0.916-0.914v-22.172c0.101-0.447 0.467-0.813 0.914-0.914M1.566 0.587c-0.558 0.060-1.006 0.584-0.991 1.143-0.001 6.847-0.001 13.693 0 20.54-0.021 0.621 0.535 1.176 1.155 1.155 6.847 0.001 13.693 0.001 20.539 0 0.621 0.021 1.176-0.534 1.155-1.155 0.001-6.847 0.001-13.693 0-20.54 0.021-0.621-0.534-1.177-1.155-1.155-6.735-0.001-13.471-0-20.207-0-0.165 0.001-0.332-0.008-0.496 0.012z"></path>
<path fill="#fff" d="M2.080 1.192c0.149-0.024 0.301-0.015 0.451-0.017 6.408 0.001 12.816-0.001 19.223 0.001 0.57-0.006 1.074 0.499 1.068 1.069 0.001 6.503 0.001 13.006 0 19.509 0.006 0.569-0.499 1.074-1.068 1.069-6.503 0.002-13.006 0.002-19.509 0-0.569 0.005-1.075-0.499-1.068-1.069-0.001-6.503-0.001-13.006 0-19.509-0.003-0.509 0.398-0.98 0.903-1.053M13.025 3.979c-0.458 0.612-0.477 1.498-0.142 2.17 0.297 0.602 1.128 0.788 1.688 0.454 0.223-0.134 0.375-0.354 0.481-0.586-0.172-0.068-0.345-0.134-0.519-0.199-0.163 0.375-0.689 0.547-0.99 0.231-0.395-0.454-0.394-1.189-0.093-1.693 0.258-0.403 0.897-0.31 1.096 0.105 0.168-0.075 0.336-0.152 0.503-0.23-0.313-0.79-1.52-0.917-2.025-0.253M19.886 3.761c-0.384 0.263-0.44 0.882-0.095 1.199 0.34 0.325 0.856 0.328 1.224 0.603 0.234 0.173 0.123 0.573-0.152 0.631-0.365 0.124-0.761-0.099-0.904-0.444-0.171 0.062-0.341 0.128-0.512 0.187 0.212 0.818 1.341 1.082 1.964 0.57 0.397-0.326 0.413-1.019 0.010-1.346-0.322-0.275-0.758-0.331-1.124-0.523-0.186-0.075-0.218-0.359-0.045-0.466 0.28-0.163 0.696-0.068 0.835 0.24 0.169-0.054 0.337-0.11 0.505-0.17-0.192-0.712-1.159-0.868-1.705-0.481M2.215 3.598c-0.002 0.181-0.002 0.361-0 0.542 0.291 0.003 0.581 0 0.871 0.001 0.001 0.859-0 1.718 0.001 2.577 0.188 0.001 0.375 0.001 0.563-0 0.001-0.859-0-1.718 0.001-2.577 0.288-0.001 0.577 0 0.865-0.001 0.001-0.181 0.001-0.362 0-0.542-0.767-0.001-1.534-0.002-2.301 0M5.602 6.697c0.187 0.002 0.374 0.002 0.562 0 0.005-0.399 0-0.798 0.002-1.197 0.202-0.001 0.403-0.002 0.604 0 0.198 0.398 0.391 0.8 0.592 1.197 0.21 0.001 0.419 0.002 0.629-0.002-0.2-0.419-0.408-0.834-0.608-1.253 0.583-0.201 0.788-0.975 0.462-1.473-0.172-0.27-0.506-0.378-0.811-0.382-0.477-0.003-0.954-0.001-1.431-0-0.001 1.036-0.003 2.072 0.001 3.109M9.099 3.614c0 0.64-0 1.281 0 1.921 0.003 0.353 0.098 0.738 0.383 0.971 0.416 0.323 1.031 0.334 1.496 0.112 0.363-0.183 0.535-0.599 0.544-0.989 0.007-0.672-0.002-1.345 0.004-2.017-0.188 0.002-0.375 0.002-0.562 0-0.001 0.625 0 1.251-0.001 1.876-0.007 0.227-0.034 0.503-0.246 0.636-0.226 0.125-0.512 0.124-0.75 0.033-0.225-0.091-0.298-0.354-0.299-0.576-0.008-0.656-0.001-1.312-0.003-1.968-0.189 0.001-0.379 0.001-0.568 0M16.137 3.614c0.003 1.035-0.001 2.070 0.002 3.105 0.188 0.001 0.375 0.001 0.563-0 0.011-0.292-0.019-0.588 0.013-0.878 0.165-0.221 0.35-0.427 0.519-0.645 0.27 0.509 0.54 1.017 0.812 1.525 0.218 0 0.436 0.001 0.655-0.001-0.362-0.666-0.725-1.332-1.088-1.998 0.29-0.373 0.592-0.735 0.882-1.108-0.222 0.004-0.443 0.003-0.665 0.003-0.373 0.478-0.75 0.953-1.126 1.428-0.001-0.477 0-0.953-0-1.43-0.189 0.002-0.377 0.002-0.566 0M16.425 9.397c-1.063 0.127-1.998 0.831-2.494 1.768-0.795 1.478-0.898 3.224-0.762 4.867 0.142 1.428 0.584 2.988 1.797 3.876 1.393 0.968 3.543 0.81 4.669-0.506 0.533-0.607 0.847-1.374 1.040-2.151 0.264-1.109 0.309-2.262 0.208-3.394-0.090-0.915-0.293-1.836-0.731-2.652-0.337-0.631-0.848-1.183-1.497-1.498-0.686-0.339-1.478-0.407-2.229-0.31M3.445 9.563c-0.108 1.796-0.216 3.591-0.323 5.387 0.617 0.262 1.236 0.521 1.853 0.781 0.645-0.75 1.834-0.977 2.692-0.476 0.726 0.466 0.833 1.492 0.551 2.244-0.298 0.796-1.172 1.219-1.986 1.213-0.839 0.041-1.673-0.224-2.355-0.709-0.358 0.494-0.714 0.988-1.070 1.484 0.658 0.553 1.496 0.846 2.338 0.966 0.95 0.131 1.948 0.094 2.844-0.274 0.754-0.304 1.415-0.853 1.808-1.568 0.714-1.32 0.629-3.089-0.32-4.273-1.050-1.273-3.037-1.467-4.447-0.714 0.062-0.747 0.103-1.495 0.168-2.241 1.465-0.002 2.931 0.002 4.397-0.002 0.003-0.606 0.002-1.211 0.001-1.816-2.050-0.002-4.101-0.001-6.151-0z"></path>
<path fill="#fff" d="M6.165 4.122c0.315 0.010 0.633-0.022 0.946 0.017 0.392 0.052 0.413 0.713 0.032 0.799-0.323 0.047-0.653 0.009-0.979 0.021-0-0.279-0-0.558 0-0.837z"></path>
<path fill="#fff" d="M16.708 11.189c0.5-0.095 1.052 0.039 1.414 0.407 0.474 0.477 0.667 1.153 0.784 1.797 0.158 0.989 0.159 2.004 0.014 2.994-0.118 0.682-0.309 1.404-0.816 1.905-0.602 0.605-1.714 0.557-2.254-0.108-0.601-0.728-0.721-1.713-0.797-2.621-0.035-1.079-0.015-2.198 0.394-3.214 0.215-0.548 0.653-1.062 1.261-1.16z"></path>
<path fill="#000" d="M1.566 0.587c0.165-0.021 0.331-0.011 0.496-0.012 6.735 0 13.471-0.001 20.207 0 0.621-0.022 1.176 0.534 1.155 1.155 0.001 6.847 0.001 13.693 0 20.54 0.020 0.62-0.535 1.176-1.155 1.155-6.846 0.001-13.693 0.001-20.539 0-0.62 0.021-1.176-0.534-1.155-1.155-0.001-6.847-0.001-13.693 0-20.54-0.015-0.559 0.433-1.083 0.991-1.143M2.080 1.192c-0.504 0.073-0.906 0.544-0.903 1.053-0.001 6.503-0.001 13.006 0 19.509-0.007 0.57 0.499 1.074 1.068 1.069 6.503 0.002 13.006 0.002 19.509 0 0.569 0.005 1.074-0.5 1.068-1.069 0.001-6.503 0.001-13.006 0-19.509 0.006-0.57-0.499-1.075-1.068-1.069-6.408-0.003-12.816 0-19.223-0.001-0.15 0.001-0.302-0.007-0.451 0.017z"></path>
<path fill="#000" d="M13.025 3.979c0.505-0.665 1.712-0.538 2.025 0.253-0.167 0.078-0.335 0.154-0.503 0.23-0.199-0.415-0.838-0.508-1.096-0.105-0.301 0.503-0.301 1.238 0.093 1.693 0.302 0.316 0.827 0.144 0.99-0.231 0.173 0.066 0.347 0.131 0.519 0.199-0.107 0.232-0.259 0.452-0.481 0.586-0.56 0.333-1.391 0.148-1.688-0.454-0.335-0.672-0.316-1.558 0.142-2.17z"></path>
<path fill="#000" d="M19.886 3.761c0.546-0.387 1.514-0.231 1.705 0.481-0.167 0.060-0.336 0.116-0.505 0.17-0.139-0.308-0.555-0.402-0.835-0.24-0.172 0.107-0.141 0.391 0.045 0.466 0.366 0.191 0.802 0.248 1.124 0.523 0.403 0.328 0.387 1.020-0.010 1.346-0.623 0.512-1.752 0.247-1.964-0.57 0.172-0.060 0.341-0.125 0.512-0.187 0.143 0.345 0.539 0.568 0.904 0.444 0.275-0.058 0.386-0.458 0.152-0.631-0.368-0.275-0.884-0.277-1.224-0.603-0.345-0.317-0.289-0.936 0.095-1.199z"></path>
<path fill="#000" d="M2.215 3.598c0.767-0.002 1.534-0.001 2.301 0 0.001 0.18 0.001 0.361 0 0.542-0.288 0.001-0.577-0-0.865 0.001-0.001 0.859 0 1.718-0.001 2.577-0.188 0.002-0.375 0.001-0.563 0-0.001-0.859 0-1.718-0.001-2.577-0.291-0.001-0.581 0.001-0.871-0.001-0.001-0.18-0.001-0.361 0-0.542z"></path>
<path fill="#000" d="M5.602 6.697c-0.004-1.036-0.002-2.072-0.001-3.109 0.477-0 0.954-0.002 1.431 0 0.306 0.003 0.64 0.112 0.811 0.382 0.327 0.498 0.121 1.272-0.462 1.473 0.201 0.419 0.409 0.834 0.608 1.253-0.21 0.004-0.419 0.003-0.629 0.002-0.201-0.397-0.394-0.798-0.592-1.197-0.202-0.002-0.403-0.002-0.604-0-0.002 0.399 0.003 0.798-0.002 1.197-0.188 0.002-0.375 0.002-0.562-0M6.165 4.122c-0.001 0.279-0.001 0.558-0 0.837 0.326-0.012 0.656 0.027 0.979-0.021 0.38-0.086 0.36-0.747-0.032-0.799-0.313-0.039-0.631-0.007-0.946-0.017z"></path>
<path fill="#000" d="M9.099 3.614c0.189 0 0.379 0 0.568-0 0.002 0.656-0.005 1.313 0.003 1.968 0.001 0.222 0.074 0.485 0.299 0.576 0.237 0.091 0.524 0.092 0.75-0.033 0.211-0.134 0.239-0.409 0.246-0.636 0.001-0.625-0-1.251 0.001-1.876 0.187 0.002 0.374 0.002 0.562 0-0.007 0.672 0.002 1.345-0.004 2.017-0.009 0.39-0.181 0.805-0.544 0.989-0.465 0.222-1.080 0.211-1.496-0.112-0.285-0.233-0.38-0.618-0.383-0.971-0.001-0.64 0-1.281-0-1.921z"></path>
<path fill="#000" d="M16.137 3.614c0.188 0.001 0.377 0.001 0.566-0 0.001 0.477-0 0.953 0 1.43 0.376-0.476 0.754-0.95 1.126-1.428 0.222 0 0.443 0.001 0.665-0.003-0.29 0.373-0.592 0.735-0.882 1.108 0.363 0.666 0.726 1.332 1.088 1.998-0.218 0.002-0.436 0.001-0.655 0.001-0.272-0.508-0.542-1.016-0.812-1.525-0.169 0.218-0.355 0.424-0.519 0.645-0.032 0.29-0.002 0.586-0.013 0.878-0.188 0.002-0.376 0.001-0.563 0-0.003-1.035 0.001-2.070-0.002-3.105z"></path>
<path fill="#000" d="M16.425 9.397c0.751-0.097 1.543-0.029 2.229 0.31 0.648 0.315 1.16 0.867 1.497 1.498 0.438 0.816 0.641 1.736 0.731 2.652 0.101 1.133 0.056 2.286-0.208 3.394-0.192 0.777-0.507 1.544-1.040 2.151-1.125 1.315-3.276 1.473-4.669 0.506-1.213-0.888-1.655-2.448-1.797-3.876-0.135-1.643-0.032-3.388 0.762-4.867 0.496-0.937 1.431-1.642 2.494-1.768M16.708 11.189c-0.607 0.098-1.046 0.613-1.261 1.16-0.409 1.016-0.428 2.135-0.394 3.214 0.075 0.908 0.196 1.893 0.797 2.621 0.54 0.666 1.652 0.713 2.254 0.108 0.507-0.502 0.697-1.223 0.816-1.905 0.146-0.99 0.144-2.005-0.014-2.994-0.117-0.644-0.31-1.32-0.784-1.797-0.362-0.368-0.914-0.502-1.414-0.407z"></path>
<path fill="#000" d="M3.445 9.563c2.050-0 4.101-0.001 6.151 0 0.001 0.606 0.002 1.211-0.001 1.816-1.466 0.004-2.932-0-4.397 0.002-0.065 0.746-0.106 1.494-0.168 2.241 1.41-0.753 3.397-0.558 4.447 0.714 0.949 1.185 1.034 2.953 0.32 4.273-0.393 0.715-1.054 1.265-1.808 1.568-0.896 0.368-1.894 0.405-2.844 0.274-0.842-0.12-1.68-0.413-2.338-0.966 0.356-0.495 0.712-0.99 1.070-1.484 0.682 0.485 1.516 0.75 2.355 0.709 0.814 0.007 1.688-0.417 1.986-1.213 0.282-0.753 0.175-1.778-0.551-2.244-0.858-0.501-2.048-0.274-2.692 0.476-0.618-0.26-1.237-0.519-1.853-0.781 0.107-1.796 0.215-3.591 0.323-5.387z"></path>
</svg>
