<?xml version="1.0" encoding="utf-8"?>
<!-- Generated by IcoMoon.io -->
<!DOCTYPE svg PUBLIC "-//W3C//DTD SVG 1.1//EN" "http://www.w3.org/Graphics/SVG/1.1/DTD/svg11.dtd">
<svg version="1.1" xmlns="http://www.w3.org/2000/svg" xmlns:xlink="http://www.w3.org/1999/xlink" width="24" height="24" viewBox="0 0 24 24">
<path fill="#c0111e" d="M11.443 0h1.070c2.684 0.136 5.326 1.151 7.348 2.933 2.498 2.143 4.019 5.35 4.139 8.635v0.774c-0.089 2.947-1.292 5.846-3.348 7.963-2.1 2.204-5.057 3.536-8.094 3.695h-1.074c-2.485-0.125-4.927-1.015-6.882-2.56-2.801-2.162-4.532-5.622-4.602-9.161v-0.553c0.062-3.084 1.368-6.121 3.578-8.275 2.074-2.080 4.939-3.296 7.865-3.451M11.31 2.185c-2.948 0.182-5.758 1.792-7.416 4.234-1.152 1.66-1.764 3.684-1.732 5.704 0.019 2.309 0.892 4.598 2.417 6.331 1.466 1.688 3.521 2.867 5.729 3.236 2.332 0.418 4.814-0.050 6.826-1.304 1.913-1.164 3.407-3.004 4.146-5.118 0.69-1.944 0.74-4.108 0.149-6.083-0.581-1.967-1.799-3.737-3.426-4.984-1.88-1.469-4.315-2.185-6.692-2.016z"></path>
<path fill="#fff" d="M11.31 2.185c2.377-0.169 4.812 0.547 6.692 2.016 1.627 1.247 2.845 3.017 3.426 4.984 0.592 1.975 0.541 4.139-0.149 6.083-0.739 2.114-2.233 3.954-4.146 5.118-2.011 1.254-4.494 1.722-6.826 1.304-2.208-0.37-4.262-1.548-5.729-3.236-1.525-1.733-2.398-4.022-2.417-6.331-0.032-2.020 0.58-4.044 1.732-5.704 1.658-2.442 4.468-4.051 7.416-4.234M6.79 12.253c-0.161-0.344-0.286-0.707-0.474-1.038-0.209-0.283-0.694-0.124-0.718 0.222-0.324 1.468-0.638 2.938-0.955 4.406 1.484-0.338 2.976-0.647 4.462-0.982 0.322-0.047 0.43-0.548 0.137-0.706-0.324-0.19-0.682-0.311-1.022-0.466 1.259-1.262 2.52-2.52 3.781-3.78 1.261 1.259 2.522 2.519 3.782 3.78-0.343 0.155-0.702 0.276-1.026 0.467-0.294 0.16-0.182 0.661 0.142 0.706 1.484 0.334 2.975 0.642 4.458 0.98-0.325-1.494-0.632-2.993-0.977-4.482-0.064-0.306-0.508-0.396-0.694-0.151-0.188 0.334-0.314 0.696-0.476 1.043-1.748-1.729-3.468-3.487-5.208-5.222-1.747 1.73-3.461 3.496-5.212 5.222z"></path>
<path fill="#000" d="M6.79 12.253c1.751-1.727 3.464-3.492 5.212-5.222 1.74 1.735 3.46 3.493 5.208 5.222 0.162-0.347 0.288-0.709 0.476-1.043 0.186-0.245 0.63-0.155 0.694 0.151 0.344 1.489 0.652 2.988 0.977 4.482-1.483-0.338-2.974-0.647-4.458-0.98-0.324-0.044-0.436-0.546-0.142-0.706 0.324-0.191 0.683-0.312 1.026-0.467-1.26-1.261-2.521-2.521-3.782-3.78-1.261 1.26-2.522 2.518-3.781 3.78 0.341 0.155 0.698 0.276 1.022 0.466 0.293 0.157 0.185 0.659-0.137 0.706-1.486 0.335-2.977 0.643-4.462 0.982 0.317-1.469 0.631-2.939 0.955-4.406 0.024-0.346 0.509-0.505 0.718-0.222 0.188 0.331 0.313 0.694 0.474 1.038z"></path>
</svg>
