<svg xmlns="http://www.w3.org/2000/svg" width="24" height="24">
    <path d="M0 0h10.994c-1.91.196-3.791.787-5.409 1.831A12.06 12.06 0 0 0 .427 8.724C.208 9.467.099 10.235 0 11.002V0zM12.997 0H24v10.995c-.226-2.303-1.07-4.555-2.51-6.376C19.562 2.123 16.618.434 13.482.067a7.249 7.249 0 0 1-.485-.068z"/>
    <path d="M11.408 1.195c1.729-.097 3.483.23 5.06.947 2.69 1.208 4.833 3.567 5.774 6.362.943 2.73.725 5.835-.598 8.404-1.267 2.507-3.549 4.479-6.218 5.358a10.826 10.826 0 0 1-12.808-4.873c-1.452-2.494-1.826-5.58-1.029-8.352.788-2.82 2.783-5.269 5.378-6.622a10.792 10.792 0 0 1 4.441-1.224zM8.76 6.872c-.135.552-.245 1.148-.627 1.59-.441.416-1.076.47-1.643.583v1.005c.636.002 1.271-.003 1.906.002-.002 2.58.005 5.16-.003 7.739.368-.003.737.003 1.105-.004.002-3.638.008-7.277-.003-10.915a90.283 90.283 0 0 0-.736 0zm6.068.036c-.867.177-1.467.952-1.777 1.736-.439 1.206-.547 2.504-.555 3.778 0 1.101.063 2.213.349 3.281.192.69.487 1.388 1.027 1.879.802.737 2.18.715 2.953-.055.518-.5.802-1.187.99-1.87.274-1.038.337-2.118.335-3.188-.006-1.076-.08-2.163-.367-3.205-.178-.627-.423-1.264-.882-1.741-.518-.559-1.335-.776-2.072-.615z"/>
    <path d="M15.114 8.141c.415-.081.858.092 1.118.424.339.418.487.952.596 1.469.197 1.018.205 2.06.184 3.093-.031.808-.088 1.625-.308 2.407-.122.409-.291.828-.615 1.119-.395.365-1.063.401-1.477.048-.392-.33-.568-.837-.698-1.316-.271-1.106-.286-2.253-.272-3.385.029-.861.086-1.733.34-2.561.171-.555.503-1.188 1.133-1.297zM0 13.006c.104.788.217 1.579.448 2.342.848 2.965 2.897 5.554 5.572 7.085 1.521.884 3.24 1.389 4.985 1.567H0V13.006zM22.465 17.92c.87-1.503 1.356-3.204 1.535-4.926v11.005H13.005c.764-.103 1.53-.208 2.271-.428 3.016-.841 5.655-2.924 7.189-5.651z"/>
    <path fill="red" d="M10.994 0h2.003c.161.027.323.05.485.068 3.136.367 6.08 2.056 8.008 4.552 1.44 1.821 2.284 4.072 2.51 6.376v2c-.179 1.722-.665 3.423-1.535 4.926-1.534 2.728-4.173 4.81-7.189 5.651-.741.221-1.507.326-2.271.428h-2c-1.746-.178-3.464-.683-4.985-1.567-2.674-1.531-4.724-4.12-5.572-7.085-.231-.763-.345-1.553-.448-2.342v-2.003c.099-.767.208-1.535.427-2.278a12.06 12.06 0 0 1 5.158-6.893C7.203.789 9.084.198 10.994.002zm.414 1.195a10.797 10.797 0 0 0-4.441 1.224C4.372 3.772 2.376 6.221 1.589 9.041c-.797 2.772-.423 5.858 1.029 8.352 1.458 2.556 4.002 4.464 6.87 5.132 1.952.471 4.034.377 5.938-.259 2.669-.879 4.951-2.851 6.218-5.358 1.322-2.569 1.54-5.674.598-8.404-.941-2.795-3.084-5.154-5.774-6.362a10.808 10.808 0 0 0-5.06-.947z"/>
    <path fill="#fff" d="M8.76 6.872h.736c.012 3.638.005 7.277.003 10.915-.368.007-.737 0-1.105.004.008-2.58.001-5.16.003-7.739-.636-.006-1.271 0-1.906-.002-.002-.335-.001-.67 0-1.005.567-.112 1.202-.166 1.643-.583.382-.443.492-1.039.627-1.59zM14.828 6.908c.737-.161 1.554.055 2.072.615.459.478.705 1.114.882 1.741.286 1.042.36 2.129.367 3.205.002 1.07-.061 2.15-.335 3.188-.188.683-.472 1.37-.99 1.87-.773.771-2.151.792-2.953.055-.54-.491-.835-1.188-1.027-1.879-.286-1.068-.348-2.18-.349-3.281.008-1.275.116-2.572.555-3.778.31-.784.909-1.56 1.777-1.736zm.286 1.233c-.63.109-.961.742-1.133 1.297-.254.828-.311 1.7-.34 2.561-.014 1.132.001 2.28.272 3.385.13.48.307.986.698 1.316.414.353 1.082.317 1.477-.048.324-.292.493-.711.615-1.119.22-.782.277-1.599.307-2.407.021-1.033.013-2.075-.184-3.093-.109-.517-.256-1.051-.596-1.469a1.163 1.163 0 0 0-1.118-.424z"/>
</svg>
