<?xml version="1.0" encoding="utf-8"?>
<!-- Generated by IcoMoon.io -->
<!DOCTYPE svg PUBLIC "-//W3C//DTD SVG 1.1//EN" "http://www.w3.org/Graphics/SVG/1.1/DTD/svg11.dtd">
<svg version="1.1" xmlns="http://www.w3.org/2000/svg" xmlns:xlink="http://www.w3.org/1999/xlink" width="24" height="24" viewBox="0 0 24 24">
<path fill="#df032b" d="M9.987 0h4.070c0.421 0.154 0.853 0.271 1.281 0.399 0.242 0.083 0.485 0.171 0.727 0.259 0.109 0.024 0.33 0.069 0.442 0.093 0.549 0.295 1.107 0.573 1.673 0.836 1.687 1.079 3.149 2.554 4.239 4.234 0.147 0.323 0.299 0.649 0.449 0.974 0.128 0.23 0.259 0.463 0.39 0.696 0.019 0.112 0.057 0.335 0.078 0.447 0.090 0.24 0.181 0.482 0.266 0.725 0.133 0.447 0.257 0.896 0.397 1.338v4.040c-0.154 0.423-0.273 0.858-0.402 1.29-0.086 0.245-0.171 0.49-0.261 0.732-0.019 0.112-0.059 0.335-0.078 0.444-0.131 0.233-0.261 0.463-0.39 0.696-0.15 0.326-0.302 0.651-0.451 0.977-1.088 1.682-2.554 3.149-4.237 4.237-0.326 0.15-0.651 0.302-0.974 0.451-0.233 0.128-0.466 0.259-0.699 0.39-0.109 0.019-0.333 0.057-0.444 0.076-0.24 0.093-0.482 0.181-0.727 0.269-0.447 0.133-0.896 0.257-1.338 0.397h-4.040c-0.423-0.154-0.858-0.273-1.29-0.402-0.245-0.083-0.49-0.171-0.732-0.261-0.112-0.019-0.335-0.059-0.447-0.078-0.23-0.131-0.463-0.261-0.694-0.39-0.326-0.15-0.651-0.302-0.974-0.451-1.68-1.088-3.153-2.55-4.237-4.237-0.259-0.556-0.53-1.105-0.808-1.651-0.076-0.247-0.157-0.494-0.24-0.739-0.031-0.112-0.095-0.333-0.126-0.444-0.143-0.442-0.269-0.889-0.411-1.333v-4.075c0.152-0.421 0.269-0.855 0.397-1.286 0.040-0.114 0.121-0.34 0.159-0.454 0.036-0.097 0.109-0.288 0.145-0.383 0.064-0.131 0.19-0.392 0.254-0.523l0.124-0.454c0.017-0.024 0.048-0.074 0.064-0.1l0.090-0.126 0.033-0.045 0.019-0.043c0.074-0.176 0.226-0.53 0.299-0.708 0.209-0.335 0.425-0.668 0.625-1.008 0.853-0.879 1.72-1.747 2.6-2.6 0.34-0.2 0.67-0.416 1.008-0.625 0.176-0.074 0.532-0.223 0.708-0.299l0.043-0.019 0.045-0.033 0.128-0.093c0.026-0.017 0.076-0.048 0.102-0.064l0.449-0.119c0.131-0.064 0.392-0.192 0.523-0.257 0.095-0.036 0.285-0.109 0.38-0.145 0.116-0.043 0.345-0.124 0.461-0.166 0.442-0.131 0.889-0.252 1.331-0.39M6.157 4.522c1.326 1.326 2.645 2.654 3.978 3.973 0.2 0.207 0.397 0.413 0.592 0.627 0.204 0.19 0.404 0.392 0.63 0.558 0.064 0.064 0.19 0.19 0.254 0.252 0.378 0.447 0.772 0.884 1.245 1.233 0.449 0.44 0.891 0.891 1.309 1.364 1.849 1.853 3.7 3.702 5.551 5.553 2.117-2.695 2.699-6.528 1.307-9.683-1.297-3.149-4.363-5.489-7.751-5.867-2.519-0.345-5.114 0.451-7.114 1.989M3.137 15.655c1.195 3.080 4.066 5.425 7.321 5.981 2.669 0.509 5.489-0.273 7.625-1.92-0.787-0.789-1.578-1.573-2.36-2.367-0.055-0.050-0.164-0.15-0.219-0.2-2.628-2.645-5.263-5.28-7.903-7.91-0.062-0.057-0.185-0.171-0.247-0.228-0.166-0.285-0.28-0.62-0.566-0.813-0.893-0.52-1.535-1.347-2.274-2.051-2.055 2.657-2.683 6.383-1.378 9.507z"></path>
<path fill="#fff" d="M7.293 0.958c0.131-0.064 0.392-0.192 0.523-0.257-0.131 0.064-0.392 0.192-0.523 0.257z"></path>
<path fill="#fff" d="M6.803 1.088l0.040-0.012c-0.026 0.017-0.076 0.048-0.102 0.064l0.062-0.052z"></path>
<path fill="#fff" d="M6.561 1.269l0.052-0.036-0.045 0.033-0.043 0.019 0.036-0.017z"></path>
<path fill="#fff" d="M6.157 4.522c2.001-1.537 4.596-2.333 7.114-1.989 3.389 0.378 6.454 2.718 7.751 5.867 1.392 3.156 0.81 6.989-1.307 9.683-1.851-1.851-3.702-3.7-5.551-5.553 0.005-0.197 0.017-0.589 0.021-0.787 1.504 0 3.008-0.002 4.512 0-0.005-0.207-0.007-0.416-0.007-0.625-1.438 0.002-2.873 0.005-4.308 0.002 0.765-0.261 1.535-0.513 2.307-0.751-0.081-0.226-0.162-0.451-0.242-0.675-1.697-0.012-3.396 0.024-5.092-0.014-0.226-0.166-0.425-0.368-0.63-0.558 2.429 0.014 4.857 0.002 7.288 0.007-0.002 0.335-0.005 0.67-0.005 1.005 0.228 0.002 0.456 0.007 0.684 0.012 0-0.547 0-1.093 0-1.64-0.416 0-0.832 0-1.248 0 0-1.226-0.002-2.452 0.002-3.678-0.606 0.002-1.212 0.002-1.818 0.002 0.002 0.159 0.005 0.475 0.007 0.634 0.394 0 0.791 0 1.186 0 0 0.138-0.002 0.416-0.002 0.554-0.397 0-0.794 0-1.19 0 0.002 0.157 0.005 0.473 0.005 0.632 0.399 0.002 0.796 0.005 1.195 0.007-0.002 0.152-0.010 0.459-0.012 0.611-0.397 0-0.791-0.002-1.186-0.002 0 0.157 0.002 0.468 0.005 0.623 0.394 0 0.789 0 1.186 0 0 0.154 0 0.463 0 0.618-2.027 0-4.056 0-6.083 0 0-0.154 0-0.463 0-0.618 0.394 0 0.791 0 1.186 0 0.002-0.157 0.005-0.468 0.005-0.623-0.394 0-0.789 0.002-1.181 0.005-0.005-0.154-0.014-0.459-0.019-0.611 0.399-0.005 0.798-0.007 1.195-0.010 0.002-0.159 0.005-0.475 0.007-0.632-0.397 0-0.794 0-1.19 0 0-0.138-0.002-0.416-0.002-0.554 0.394 0 0.791 0 1.188 0 0-0.159 0.002-0.475 0.005-0.634-0.606 0-1.212 0-1.818 0 0.010 1.221-0.010 2.443 0.019 3.664-1.333-1.319-2.652-2.647-3.978-3.973M12.737 4.37c-0.043 0.131-0.128 0.387-0.169 0.518 0.166 0.088 0.499 0.261 0.665 0.349-0.162 0.093-0.485 0.276-0.646 0.368 0.038 0.121 0.112 0.364 0.147 0.482 0.347-0.173 0.691-0.354 1.031-0.537 0.418 0.207 0.844 0.394 1.288 0.537-0.014-0.435-0.321-0.67-0.661-0.867 0.152-0.088 0.456-0.259 0.608-0.347-0.043-0.124-0.128-0.371-0.169-0.494-0.347 0.183-0.694 0.366-1.038 0.551-0.352-0.188-0.703-0.375-1.057-0.561M13.202 7.321c-0.233 0.121-0.466 0.24-0.696 0.364 0.069 0.107 0.209 0.326 0.28 0.435 0.335-0.169 0.672-0.34 1.008-0.509 0.43 0.131 0.97 0.706 1.319 0.145-0.178-0.109-0.537-0.326-0.718-0.432 0.219-0.242 0.672-0.373 0.618-0.775-0.44-0.050-0.813 0.228-1.202 0.378-0.337-0.154-0.67-0.318-1.015-0.451-0.608 0.345 0.154 0.589 0.406 0.846z"></path>
<path fill="#fff" d="M3.137 15.655c-1.305-3.125-0.677-6.851 1.378-9.507 0.739 0.703 1.381 1.53 2.274 2.051 0.285 0.192 0.399 0.528 0.566 0.813-0.525-0.473-1.027-1.043-1.787-1.084-0.052 3.455-0.007 6.912-0.024 10.37 3.396 0 6.794 0 10.189 0-0.002-0.316-0.005-0.632-0.010-0.948 0.782 0.794 1.573 1.578 2.36 2.367-2.136 1.647-4.957 2.429-7.625 1.92-3.255-0.556-6.126-2.901-7.321-5.981z"></path>
<path fill="#fff" d="M1.269 6.561l0.017-0.036-0.019 0.043-0.033 0.045 0.036-0.052z"></path>
<path fill="#fff" d="M1.091 6.801l0.052-0.062c-0.017 0.026-0.048 0.076-0.064 0.1l0.012-0.038z"></path>
<path fill="#fff" d="M0.701 7.815c0.064-0.131 0.19-0.392 0.254-0.523-0.064 0.131-0.19 0.392-0.254 0.523z"></path>
<path fill="#fff" d="M7.602 9.239c2.64 2.63 5.275 5.266 7.903 7.91-0.461-0.326-0.808-0.97-1.45-0.91-2.15-0.012-4.301 0.005-6.451 0-0.002-2.333 0.002-4.667-0.002-7z"></path>
<path fill="#fff" d="M11.61 9.933c0.114 0.112 0.34 0.333 0.454 0.444 1.050 0 2.101-0.010 3.151 0.012-0.775 0.29-1.549 0.601-2.36 0.777-0.473-0.349-0.867-0.787-1.245-1.233z"></path>
<path fill="#000" d="M12.737 4.37c0.354 0.185 0.706 0.373 1.057 0.561 0.345-0.185 0.691-0.368 1.038-0.551 0.040 0.124 0.126 0.371 0.169 0.494-0.152 0.088-0.456 0.259-0.608 0.347 0.34 0.197 0.646 0.432 0.661 0.867-0.444-0.143-0.87-0.33-1.288-0.537-0.34 0.183-0.684 0.364-1.031 0.537-0.036-0.119-0.109-0.361-0.147-0.482 0.162-0.093 0.485-0.276 0.646-0.368-0.166-0.088-0.499-0.261-0.665-0.349 0.040-0.131 0.126-0.387 0.169-0.518z"></path>
<path fill="#000" d="M10.116 4.831c0.606 0 1.212 0 1.818 0-0.002 0.159-0.005 0.475-0.005 0.634-0.397 0-0.794 0-1.188 0 0 0.138 0.002 0.416 0.002 0.554 0.397 0 0.794 0 1.19 0-0.002 0.157-0.005 0.473-0.007 0.632-0.397 0.002-0.796 0.005-1.195 0.010 0.005 0.152 0.014 0.456 0.019 0.611 0.392-0.002 0.787-0.005 1.181-0.005 0 0.154-0.002 0.466-0.005 0.623-0.394 0-0.791 0-1.186 0 0 0.154 0 0.463 0 0.618 2.027 0 4.056 0 6.083 0 0-0.154 0-0.463 0-0.618-0.397 0-0.791 0-1.186 0-0.002-0.154-0.005-0.466-0.005-0.623 0.394 0 0.789 0.002 1.186 0.002 0.002-0.152 0.010-0.459 0.012-0.611-0.399-0.002-0.796-0.005-1.195-0.007 0-0.159-0.002-0.475-0.005-0.632 0.397 0 0.794 0 1.19 0 0-0.138 0.002-0.416 0.002-0.554-0.394 0-0.791 0-1.186 0-0.002-0.159-0.005-0.475-0.007-0.634 0.606 0 1.212 0 1.818-0.002-0.005 1.226-0.002 2.452-0.002 3.678 0.416 0 0.832 0 1.248 0 0 0.547 0 1.093 0 1.64-0.228-0.005-0.456-0.010-0.684-0.012 0-0.335 0.002-0.67 0.005-1.005-2.431-0.005-4.859 0.007-7.288-0.007-0.195-0.214-0.392-0.421-0.592-0.627-0.029-1.221-0.010-2.443-0.019-3.664z"></path>
<path fill="#000" d="M13.202 7.321c-0.252-0.257-1.015-0.501-0.406-0.846 0.345 0.133 0.677 0.297 1.015 0.451 0.39-0.15 0.763-0.428 1.202-0.378 0.055 0.402-0.399 0.532-0.618 0.775 0.181 0.107 0.539 0.323 0.718 0.432-0.349 0.561-0.889-0.014-1.319-0.145-0.335 0.169-0.672 0.34-1.008 0.509-0.071-0.109-0.211-0.328-0.28-0.435 0.23-0.124 0.463-0.242 0.696-0.364z"></path>
<path fill="#000" d="M5.544 18.297c0.017-3.457-0.029-6.915 0.024-10.37 0.76 0.040 1.262 0.611 1.787 1.084 0.062 0.057 0.185 0.171 0.247 0.228 0.005 2.333 0 4.667 0.002 7 2.15 0.005 4.301-0.012 6.451 0 0.642-0.059 0.989 0.585 1.45 0.91 0.055 0.050 0.164 0.15 0.219 0.2 0.005 0.316 0.007 0.632 0.010 0.948-3.396 0-6.794 0-10.189 0z"></path>
<path fill="#000" d="M11.356 9.681c1.697 0.038 3.396 0.002 5.092 0.014 0.081 0.223 0.162 0.449 0.242 0.675-0.772 0.238-1.542 0.49-2.307 0.751 1.435 0.002 2.87 0 4.308-0.002 0 0.209 0.002 0.418 0.007 0.625-1.504-0.002-3.008 0-4.512 0-0.005 0.197-0.017 0.589-0.021 0.787-0.418-0.473-0.86-0.924-1.309-1.364 0.81-0.176 1.585-0.487 2.36-0.777-1.050-0.021-2.101-0.012-3.151-0.012-0.114-0.112-0.34-0.333-0.454-0.444-0.064-0.062-0.19-0.188-0.254-0.252z"></path>
</svg>
