<?xml version="1.0" encoding="utf-8"?>
<!-- Generated by IcoMoon.io -->
<!DOCTYPE svg PUBLIC "-//W3C//DTD SVG 1.1//EN" "http://www.w3.org/Graphics/SVG/1.1/DTD/svg11.dtd">
<svg version="1.1" xmlns="http://www.w3.org/2000/svg" xmlns:xlink="http://www.w3.org/1999/xlink" width="24" height="24" viewBox="0 0 24 24">
<path fill="#ff0303" d="M11.127 0h1.724c2.86 0.202 5.624 1.464 7.65 3.493 2.029 2.023 3.29 4.782 3.499 7.639v1.729c-0.207 2.859-1.468 5.622-3.499 7.645-2.021 2.027-4.777 3.285-7.632 3.494h-1.723c-2.502-0.186-4.941-1.159-6.857-2.778-2.484-2.051-4.055-5.142-4.289-8.351v-1.725c0.227-3.213 1.798-6.308 4.282-8.362 1.914-1.62 4.348-2.591 6.844-2.783M10.493 1.964c-2.599 0.397-5.009 1.866-6.558 3.99-1.376 1.846-2.072 4.179-1.951 6.477 0.109 2.503 1.205 4.943 2.999 6.691 1.556 1.543 3.626 2.556 5.801 2.823 2.304 0.303 4.706-0.231 6.667-1.479 1.738-1.104 3.135-2.741 3.923-4.644 0.946-2.247 1.030-4.838 0.241-7.142-0.837-2.484-2.692-4.601-5.035-5.77-1.866-0.942-4.025-1.263-6.088-0.946z"></path>
<path fill="#fff" d="M10.493 1.964c2.063-0.317 4.222 0.004 6.088 0.946 2.343 1.169 4.198 3.286 5.035 5.77 0.789 2.304 0.705 4.896-0.241 7.142-0.788 1.904-2.185 3.54-3.923 4.644-1.961 1.248-4.363 1.782-6.667 1.479-2.175-0.268-4.246-1.28-5.801-2.823-1.794-1.748-2.89-4.188-2.999-6.691-0.121-2.298 0.576-4.632 1.951-6.477 1.549-2.124 3.959-3.592 6.558-3.99M11.192 6.922c-0.005 0.416-0.031 0.834 0.009 1.25 0.073 0.191 0.292 0.231 0.472 0.222 1.85 0 3.701 0.001 5.55-0.001 0.18 0.013 0.417-0.045 0.457-0.251 0.036-0.402 0.010-0.808 0.009-1.211-0.577-0.221-0.586-0.93-0.863-1.4-0.113-0.366-0.499-0.54-0.859-0.505-1.135 0.013-2.272-0.026-3.404 0.020-0.668 0.436-0.604 1.536-1.371 1.876M5.913 6.658c0.010 0.55 0.682 0.872 1.126 0.533-0.083 0.195-0.068 0.46-0.273 0.579-0.214 0.103-0.312-0.087-0.418-0.234-0.141 0.021-0.281 0.041-0.423 0.062 0.102 0.264 0.274 0.559 0.596 0.562 0.515 0.084 0.925-0.393 0.934-0.877 0.054-0.523 0.040-1.263-0.55-1.475-0.529-0.207-1.096 0.305-0.99 0.851M8.207 5.834c-0.563 0.377-0.472 1.194-0.371 1.776 0.089 0.587 0.984 0.766 1.267 0.237 0.246-0.484 0.225-1.076 0.084-1.587-0.107-0.411-0.609-0.609-0.98-0.426M11.741 8.561c0.003 0.205-0.004 0.41 0.018 0.613 0.053 0.364 0.558 0.493 0.817 0.259 0.255-0.214 0.143-0.584 0.172-0.871-0.336-0.003-0.671-0.003-1.006-0.001M16.132 8.561c0.008 0.226-0.016 0.459 0.034 0.681 0.128 0.39 0.739 0.41 0.919 0.049 0.082-0.234 0.041-0.488 0.054-0.73-0.336-0.001-0.671-0.001-1.007 0M11.299 10.921c-0.010 1.914 0 3.827-0.004 5.741 0.050 0.005 0.152 0.016 0.204 0.021 0.010 0.508-0.031 1.019 0.020 1.525 0.121 0.456 0.893 0.418 0.984-0.038 0.050-0.499 0.006-1 0.020-1.5 0.231 0 0.462-0.011 0.694 0.010 0.264 0.204 0.515 0.451 0.857 0.513 0.568 0.157 1.175-0.078 1.547-0.519 0.265-0.004 0.529-0.004 0.794-0.004 0.008 0.474-0.018 0.949 0.011 1.422 0.031 0.488 0.857 0.557 0.961 0.082 0.049-0.489 0.005-0.983 0.021-1.473 0.043-0.019 0.126-0.055 0.168-0.074 0.020-1.858 0.006-3.718 0.008-5.578 0.024-0.268-0.205-0.549-0.486-0.509-1.764-0.006-3.528-0.005-5.291-0.001-0.225-0.024-0.527 0.121-0.508 0.381M7.267 12.534c-0.124 0.45-0.136 0.954 0.040 1.392 0.175 0.434 0.779 0.572 1.143 0.297 0.449-0.342 0.378-1.189-0.176-1.385-0.224-0.089-0.446 0.014-0.643 0.113 0.065-0.205 0.044-0.506 0.29-0.592 0.187-0.072 0.298 0.106 0.386 0.236 0.103-0.011 0.309-0.035 0.413-0.046-0.080-0.202-0.171-0.434-0.391-0.519-0.416-0.181-0.941 0.067-1.063 0.504M9.489 12.019c-0.367 0.143-0.464 0.574-0.485 0.925-0.013 0.377-0.023 0.79 0.18 1.125 0.256 0.42 0.983 0.391 1.182-0.069 0.205-0.48 0.195-1.043 0.052-1.539-0.103-0.391-0.563-0.596-0.929-0.441z"></path>
<path fill="#fff" d="M12.038 6.651c0.227-0.418 0.344-0.912 0.658-1.275 1.17-0.013 2.346-0.044 3.513 0.018 0.276 0.381 0.416 0.842 0.633 1.258-1.602 0.001-3.203 0.001-4.805 0z"></path>
<path fill="#fff" d="M6.462 6.216c0.466-0.329 0.738 0.65 0.266 0.773-0.403 0.072-0.48-0.54-0.266-0.773z"></path>
<path fill="#fff" d="M8.429 6.157c0.182-0.074 0.322 0.084 0.343 0.25 0.059 0.4 0.070 0.819-0.028 1.214-0.073 0.275-0.464 0.186-0.464-0.085-0.031-0.444-0.163-1.015 0.148-1.378z"></path>
<path fill="#fff" d="M9.575 12.421c0.21-0.211 0.434 0.025 0.442 0.25 0.038 0.391 0.072 0.805-0.054 1.184-0.078 0.239-0.437 0.138-0.442-0.088-0.074-0.441-0.101-0.919 0.054-1.346z"></path>
<path fill="#fff" d="M7.754 13.268c0.465-0.503 0.822 0.606 0.289 0.73-0.351-0.015-0.449-0.476-0.289-0.73z"></path>
<path fill="#030303" d="M11.192 6.922c0.767-0.341 0.702-1.44 1.371-1.876 1.132-0.046 2.269-0.008 3.404-0.020 0.361-0.035 0.746 0.139 0.859 0.505 0.278 0.47 0.287 1.179 0.863 1.4 0.001 0.403 0.028 0.809-0.009 1.211-0.040 0.206-0.278 0.264-0.457 0.251-1.85 0.003-3.701 0.001-5.55 0.001-0.181 0.009-0.4-0.031-0.472-0.222-0.040-0.416-0.014-0.834-0.009-1.25M12.038 6.651c1.602 0.001 3.203 0.001 4.805 0-0.217-0.416-0.357-0.877-0.633-1.258-1.167-0.062-2.343-0.030-3.513-0.018-0.314 0.363-0.431 0.857-0.658 1.275z"></path>
<path fill="#030303" d="M5.913 6.658c-0.106-0.545 0.461-1.058 0.99-0.851 0.591 0.212 0.604 0.952 0.55 1.475-0.009 0.484-0.418 0.961-0.934 0.877-0.322-0.003-0.494-0.298-0.596-0.562 0.142-0.020 0.283-0.040 0.423-0.062 0.107 0.147 0.205 0.337 0.418 0.234 0.205-0.119 0.19-0.384 0.273-0.579-0.444 0.339-1.116 0.018-1.126-0.533M6.462 6.216c-0.214 0.232-0.137 0.844 0.266 0.773 0.471-0.123 0.2-1.102-0.266-0.773z"></path>
<path fill="#030303" d="M8.207 5.834c0.371-0.183 0.873 0.015 0.98 0.426 0.141 0.511 0.162 1.103-0.084 1.587-0.283 0.529-1.177 0.349-1.267-0.237-0.102-0.582-0.192-1.399 0.371-1.776M8.429 6.157c-0.312 0.363-0.18 0.935-0.148 1.378 0 0.271 0.391 0.361 0.464 0.085 0.098-0.395 0.087-0.814 0.028-1.214-0.021-0.166-0.161-0.324-0.343-0.25z"></path>
<path fill="#030303" d="M11.741 8.561c0.336-0.001 0.671-0.001 1.006 0.001-0.029 0.287 0.083 0.657-0.172 0.871-0.259 0.234-0.764 0.106-0.817-0.259-0.021-0.204-0.015-0.408-0.018-0.613z"></path>
<path fill="#030303" d="M16.132 8.561c0.336-0.001 0.671-0.001 1.007 0-0.013 0.243 0.028 0.496-0.054 0.73-0.18 0.361-0.79 0.341-0.919-0.049-0.050-0.222-0.026-0.455-0.034-0.681z"></path>
<path fill="#030303" d="M11.299 10.921c-0.019-0.26 0.283-0.405 0.508-0.381 1.763-0.004 3.527-0.005 5.291 0.001 0.281-0.040 0.51 0.241 0.486 0.509-0.001 1.86 0.013 3.719-0.008 5.578-0.043 0.019-0.126 0.055-0.168 0.074-0.016 0.49 0.028 0.984-0.021 1.473-0.104 0.475-0.93 0.406-0.961-0.082-0.029-0.474-0.004-0.949-0.011-1.422-0.265 0-0.529 0-0.794 0.004-0.372 0.441-0.979 0.676-1.547 0.519-0.342-0.062-0.593-0.309-0.857-0.513-0.231-0.021-0.462-0.010-0.694-0.010-0.014 0.5 0.030 1.001-0.020 1.5-0.090 0.456-0.863 0.494-0.984 0.038-0.052-0.506-0.010-1.018-0.020-1.525-0.052-0.005-0.153-0.016-0.204-0.021 0.004-1.914-0.006-3.827 0.004-5.741z"></path>
<path fill="#030303" d="M7.267 12.534c0.122-0.437 0.647-0.685 1.063-0.504 0.22 0.085 0.31 0.317 0.391 0.519-0.104 0.011-0.31 0.035-0.413 0.046-0.088-0.131-0.199-0.308-0.386-0.236-0.246 0.085-0.225 0.387-0.29 0.592 0.197-0.099 0.42-0.202 0.643-0.113 0.554 0.196 0.624 1.043 0.176 1.385-0.364 0.275-0.969 0.137-1.143-0.297-0.176-0.439-0.165-0.942-0.040-1.392M7.754 13.268c-0.16 0.254-0.062 0.715 0.289 0.73 0.533-0.124 0.176-1.233-0.289-0.73z"></path>
<path fill="#030303" d="M9.489 12.019c0.366-0.155 0.826 0.050 0.929 0.441 0.143 0.496 0.153 1.059-0.052 1.539-0.2 0.46-0.926 0.489-1.182 0.069-0.202-0.334-0.192-0.748-0.18-1.125 0.021-0.351 0.118-0.782 0.485-0.925M9.575 12.421c-0.155 0.427-0.128 0.905-0.054 1.346 0.005 0.226 0.364 0.327 0.442 0.088 0.126-0.378 0.092-0.793 0.054-1.184-0.009-0.225-0.232-0.461-0.442-0.25z"></path>
</svg>
