<svg xmlns="http://www.w3.org/2000/svg" width="24" height="24">
    <path fill="#fff" d="M.91 0h22.178c.445.103.808.467.912.912v22.174c-.102.446-.467.81-.912.914H.912a1.24 1.24 0 0 1-.913-.91V.911C.102.467.465.104.909 0zm.656.587C1.008.647.559 1.171.575 1.73v20.539c-.023.64.567 1.2 1.203 1.156 6.831-.001 13.661.001 20.491-.001.621.021 1.176-.534 1.155-1.155V1.73a1.148 1.148 0 0 0-.67-1.053c-.255-.122-.542-.104-.816-.103H2.063c-.165.001-.332-.008-.496.012z"/>
    <path fill="#fff" d="M10.478 4.005c.514-.678 1.703-.592 2.082.185-.167.098-.335.196-.504.291-.201-.404-.789-.525-1.1-.18-.374.476-.377 1.235.001 1.71.331.393 1.107.193 1.073-.368-.18-.001-.361 0-.541-.003l-.001-.525c.372 0 .743.003 1.116-.002-.002.413.037.869-.228 1.22-.472.644-1.582.549-1.993-.118-.406-.662-.386-1.589.095-2.208zM4.662 3.614c.181.001.362.001.543 0 .439.682.889 1.358 1.317 2.048-.004-.683.002-1.366-.004-2.048.186.003.372.003.558 0-.005 1.035-.002 2.071-.001 3.106h-.504c-.451-.701-.923-1.388-1.357-2.1.015.7.004 1.401.007 2.1h-.558l-.001-3.105zM8.351 3.615h.572c-.002 1.035 0 2.069-.001 3.104-.19.001-.38.002-.57-.002-.002-1.034-.001-2.068 0-3.102zM13.74 3.612c.188.004.375.003.563 0 .002.413 0 .827.001 1.24h1.302a9.329 9.329 0 0 0-.004-1.24c.188.002.376.001.564.001v3.102c-.183.004-.366.002-.549.003.009-.44 0-.88.005-1.32-.438-.028-.878-.007-1.318-.013-.002.443.001.887-.001 1.331h-.561c0-1.035.004-2.071-.002-3.106zM17.215 3.598c.767-.002 1.534-.001 2.301 0 .001.181.001.362 0 .543l-.865.001v2.577c-.188.002-.375.001-.563 0l-.001-2.578c-.291 0-.581.001-.871-.001a48.96 48.96 0 0 1 0-.542zM2.998 11.714c.498-1.293 1.78-2.186 3.143-2.327 1.015-.109 2.112.071 2.928.72 1.34 1.041 1.504 3.218.437 4.507-.856 1.02-2.175 1.434-3.199 2.241-.546.418-1.017.971-1.204 1.645 1.729.001 3.458-.001 5.187.001.002.611.004 1.222 0 1.832-2.484.004-4.967.001-7.451.001-.005-.957.172-1.925.59-2.79.576-1.216 1.607-2.156 2.752-2.832.642-.385 1.387-.675 1.838-1.305.426-.572.351-1.485-.242-1.915-.614-.443-1.482-.419-2.143-.093-.44.227-.742.645-.936 1.09-.567-.257-1.133-.516-1.7-.775zM16.516 9.392c.795-.095 1.636-.005 2.341.395.684.38 1.185 1.024 1.501 1.73.483 1.075.618 2.269.63 3.437-.015 1.107-.144 2.233-.574 3.262-.297.715-.769 1.38-1.433 1.796-1.298.784-3.144.688-4.274-.36-1.123-1.076-1.448-2.702-1.524-4.196-.051-1.616.122-3.353 1.074-4.714a3.262 3.262 0 0 1 2.258-1.35zm.239 1.798c-.495.084-.895.451-1.123.885-.376.709-.479 1.523-.528 2.313-.036.867-.001 1.747.215 2.59.139.512.354 1.035.768 1.388.619.534 1.666.449 2.182-.19.552-.668.698-1.564.778-2.401.068-1.242.063-2.565-.512-3.7-.315-.651-1.066-1.047-1.781-.885z"/>
    <path d="M1.566.587c.165-.02.331-.011.496-.012h19.875c.274 0 .562-.019.816.103.407.178.677.61.67 1.053V22.27c.021.621-.534 1.176-1.155 1.155-6.83.002-13.66 0-20.491.001C1.14 23.47.551 22.91.574 22.27V1.731c-.016-.56.433-1.084.991-1.143zm8.912 3.418c-.481.62-.501 1.546-.095 2.208.411.667 1.521.762 1.993.118.264-.351.225-.806.228-1.22-.372.005-.744.002-1.116.002l.001.525c.18.002.361.002.541.003.034.562-.742.762-1.073.368-.378-.474-.375-1.234-.001-1.71.311-.345.899-.223 1.1.18.169-.094.337-.193.504-.291-.379-.777-1.568-.862-2.082-.185zm-5.816-.391l.001 3.105h.558c-.003-.7.009-1.4-.007-2.1.434.712.906 1.4 1.357 2.1h.504c0-1.035-.004-2.071.001-3.106-.186.004-.372.003-.558 0 .006.683 0 1.365.004 2.048-.428-.69-.878-1.365-1.317-2.047-.181.001-.362.001-.543 0zm3.689.001v3.102c.19.004.38.003.57.002.002-1.035 0-2.069.001-3.104H8.35zm5.389-.003c.006 1.035.002 2.071.002 3.106h.561c.002-.443 0-.887.001-1.331.439.006.879-.015 1.318.013-.005.44.004.88-.005 1.32.183-.001.366 0 .549-.003V3.615c-.188 0-.376.001-.564-.001.031.412.027.828.004 1.24h-1.302c-.002-.413.001-.827-.001-1.24a17.61 17.61 0 0 1-.563 0zm3.475-.014c-.002.18-.002.361 0 .542.29.002.581 0 .871.001l.001 2.578h.563V4.142l.865-.001c.001-.181.001-.362 0-.543h-2.301zM2.998 11.714c.566.259 1.132.518 1.7.775.194-.445.496-.863.936-1.09.661-.326 1.529-.349 2.143.093.593.43.668 1.343.242 1.915-.45.63-1.196.92-1.838 1.305-1.145.675-2.176 1.615-2.752 2.832-.419.865-.595 1.833-.59 2.79 2.484 0 4.967.003 7.451-.001.004-.61.003-1.221 0-1.832-1.729-.002-3.458 0-5.187-.001.187-.674.658-1.227 1.204-1.645 1.024-.807 2.343-1.221 3.199-2.241 1.067-1.289.902-3.466-.437-4.507-.816-.649-1.912-.83-2.928-.72-1.362.141-2.645 1.034-3.143 2.327zm13.518-2.322c-.9.106-1.738.608-2.258 1.35-.952 1.361-1.125 3.098-1.074 4.714.077 1.493.402 3.12 1.524 4.196 1.13 1.048 2.976 1.144 4.274.36.664-.416 1.135-1.081 1.433-1.796.43-1.029.56-2.155.574-3.262-.012-1.168-.147-2.362-.63-3.437-.316-.705-.818-1.35-1.501-1.73-.705-.4-1.546-.49-2.341-.395z"/>
    <path d="M16.755 11.19c.714-.162 1.466.234 1.781.885.576 1.134.58 2.458.512 3.7-.081.837-.226 1.733-.778 2.401-.516.639-1.563.725-2.182.19-.414-.352-.629-.876-.768-1.388-.216-.844-.251-1.724-.215-2.59.049-.79.151-1.605.528-2.313.228-.434.628-.8 1.123-.885z"/>
</svg>
