<svg xmlns="http://www.w3.org/2000/svg" width="24" height="24">
    <path fill="#fff" d="M2.5 0h.692c-.379.126-.669.498-.661.903V23.14c-.005.371.242.708.573.86h-.605V0zM20.845 0h.614v.614A1.015 1.015 0 0 0 20.845 0z"/>
    <path fill="#fff" d="M3.416.532c.139-.023.28-.014.42-.015 5.545.001 11.09-.001 16.636.001.245-.028.485.173.468.426.003 7.371.001 14.741.001 22.112.027.244-.179.474-.427.458-5.66.004-11.321.001-16.982.001-.232.019-.454-.181-.439-.418V.946a.402.402 0 0 1 .323-.415zm1.088 2.934c-.218.339-.164.838.154 1.098.379.32.927.256 1.333.52.232.161.143.529-.093.64-.473.263-1.059.032-1.353-.389-.153.097-.301.199-.45.301.471.648 1.439.967 2.147.518.532-.317.598-1.174.092-1.544-.396-.223-.87-.249-1.275-.45-.219-.101-.172-.448.044-.525.399-.177.847.01 1.137.302.139-.117.279-.233.415-.353-.332-.359-.819-.605-1.316-.568-.326.014-.661.166-.835.45zm6.528-.428c-.002 1.095-.001 2.191 0 3.286h2.401v-.549c-.607-.002-1.214.001-1.82-.001v-.935c.323-.002.645 0 .969-.001v-.56c-.323-.003-.647.008-.97-.006.003-.228.001-.455.002-.683.592-.002 1.184.001 1.777-.001v-.549h-2.358zm-3.469 0v3.295h.571V5.031c.536-.041 1.136.123 1.611-.199.484-.318.549-1.085.141-1.491-.218-.221-.536-.302-.839-.302-.495-.005-.99-.001-1.484-.002zm6.517.001v3.295h2.402v-.558c-.607-.003-1.214 0-1.821-.001v-.936c.323-.001.646.001.969-.001a52.08 52.08 0 0 0 0-.559c-.323-.001-.646.001-.969-.001 0-.226-.001-.452 0-.678.592-.001 1.184.001 1.776-.001a52.08 52.08 0 0 0 0-.559h-2.358zm3.06 0v3.295c.65-.019 1.381.106 1.94-.311.832-.595.85-1.989.068-2.633-.558-.477-1.335-.324-2.008-.351zM6.001 7.982v3.285h2.391v-.549H6.573c-.002-.912 0-1.823-.001-2.735a54.34 54.34 0 0 0-.571 0zm2.984 0v3.285h.57V7.983a54.15 54.15 0 0 0-.57 0zm1.444 0v3.286h.558c.003-.667-.001-1.334.002-2.001.301.653.597 1.308.899 1.961.321-.655.628-1.316.951-1.97.004.67-.001 1.34.002 2.01h.558c-.002-1.095.021-2.19.011-3.285a38.417 38.417 0 0 0-.588.001c-.306.65-.615 1.299-.924 1.948-.308-.649-.614-1.3-.921-1.949a50.417 50.417 0 0 0-.55 0zm3.856 0v3.285h.57V7.983a54.15 54.15 0 0 0-.57 0zm1.206.001v.537c.298.002.595-.001.893.001.002.915-.001 1.83.001 2.746h.581c.002-.916-.001-1.831.001-2.746.301-.002.602 0 .904-.001v-.538H15.49zM5.094 14.257c.334.318.677.626 1.013.943.612-.558 1.445-.908 2.281-.748.359.062.732.206.954.508.248.324.162.878-.219 1.061-.361.19-.782.108-1.172.127-.001.474-.001.948 0 1.421.563-.016 1.205.002 1.63.427.334.316.394.865.145 1.25-.252.396-.708.607-1.154.7-.645.127-1.345.067-1.923-.262-.312-.168-.573-.408-.828-.651-.362.296-.725.592-1.087.89 1.122 1.302 3.053 1.863 4.674 1.247.783-.291 1.481-.898 1.737-1.71.321-.948-.092-2.043-.917-2.593.547-.599.807-1.482.5-2.257-.266-.736-.952-1.251-1.687-1.46-1.395-.418-2.915.136-3.946 1.106zm10.481-1.004a2.997 2.997 0 0 0-1.79.833c-.636.612-.982 1.469-1.124 2.328-.248 1.493-.012 3.192 1.078 4.318 1.02 1.093 2.846 1.25 4.05.373 1.093-.787 1.547-2.184 1.572-3.484.047-1.351-.305-2.854-1.407-3.735-.661-.53-1.546-.728-2.379-.634z"/>
    <path fill="#fff" d="M8.135 3.609c.334.001.669-.004 1.003.001.236 0 .49.181.47.437-.004.245-.244.406-.472.409-.334.006-.668.001-1.001.001v-.849zM17.7 3.61c.435-.014.963-.028 1.255.359.31.437.337 1.13-.059 1.525-.322.298-.789.277-1.197.269V3.61zM15.747 14.674c.608-.093 1.26.158 1.617.667.484.666.581 1.526.562 2.327-.03.754-.228 1.558-.791 2.097-.629.599-1.722.616-2.352.01-.516-.501-.709-1.239-.758-1.937-.043-.771.038-1.583.429-2.263.268-.473.745-.837 1.293-.9zM20.924 24a1 1 0 0 0 .534-.59V24h-.534z"/>
    <path fill="#231f20" d="M3.192 0h17.653c.285.1.511.331.614.614V23.41a1.003 1.003 0 0 1-.534.59H3.106c-.331-.151-.578-.489-.573-.86V.903C2.524.498 2.814.126 3.194 0zm.224.532a.399.399 0 0 0-.323.415v22.151c-.015.237.206.436.439.418 5.661 0 11.322.003 16.982-.001a.415.415 0 0 0 .427-.458c0-7.371.002-14.741-.001-22.112.016-.253-.223-.454-.468-.426C14.927.517 9.381.519 3.836.518c-.14.001-.281-.008-.42.015z"/>
    <path fill="#231f20" d="M4.504 3.466c.175-.284.51-.436.835-.45.498-.037.984.209 1.316.568-.136.12-.276.236-.415.353-.29-.292-.739-.479-1.137-.302-.216.077-.263.424-.044.525.405.201.879.227 1.275.45.505.37.44 1.227-.092 1.544-.708.449-1.676.13-2.147-.518.149-.102.298-.205.45-.301.294.421.88.652 1.353.389.236-.112.325-.48.093-.64-.406-.264-.954-.2-1.333-.52-.318-.26-.371-.759-.154-1.098zM11.032 3.038h2.358v.549c-.592.002-1.184-.001-1.777.001-.001.228.001.455-.002.683.323.014.647.003.97.006v.56c-.323.002-.646 0-.969.001v.935c.607.003 1.214 0 1.82.001v.549h-2.401V3.037zM7.563 3.038c.495 0 .99-.003 1.484.002.303 0 .62.081.839.302.408.405.343 1.172-.141 1.491-.475.322-1.075.157-1.611.199-.002.434 0 .868 0 1.302h-.571V3.039zm.572.571v.849c.333 0 .667.005 1.001-.001.228-.003.468-.165.472-.409.02-.256-.234-.437-.47-.437-.334-.006-.669 0-1.003-.001zM14.08 3.039h2.358v.559c-.592.002-1.184 0-1.776.001-.001.226-.001.452 0 .678.323.002.646 0 .969.001v.559c-.323.002-.646 0-.969.001v.936c.607.002 1.214-.001 1.821.001v.558c-.801.002-1.602.001-2.402 0V3.038zM17.14 3.039c.673.027 1.45-.125 2.008.351.782.644.764 2.037-.068 2.633-.559.417-1.29.293-1.94.311V3.039zm.56.571v2.153c.408.008.875.029 1.197-.269.395-.395.369-1.088.059-1.525-.292-.387-.82-.373-1.255-.358zM6.001 7.982h.571c.001.912-.001 1.823.001 2.735h1.819v.549H6.001V7.981zM8.985 7.982h.57v3.284c-.19.002-.38.002-.57 0V7.981zM10.429 7.982h.55c.308.649.614 1.3.921 1.949.309-.649.618-1.298.924-1.948.196-.002.392-.002.588-.001.009 1.095-.013 2.19-.011 3.285h-.558c-.003-.67.002-1.34-.002-2.01-.323.654-.63 1.315-.951 1.97-.302-.652-.598-1.307-.899-1.96-.003.667.001 1.334-.002 2.001h-.558c-.002-1.095-.001-2.191 0-3.286zM14.285 7.982h.57v3.284c-.19.002-.38.002-.57 0V7.981zM15.491 7.983c.794-.002 1.587-.001 2.381 0v.538c-.301.001-.602-.001-.904.001-.002.915.001 1.83-.001 2.746h-.581c-.002-.916.001-1.831-.001-2.746-.298-.002-.595 0-.893-.001v-.537zM5.094 14.257c1.031-.969 2.551-1.524 3.946-1.106.736.209 1.421.724 1.687 1.46.306.776.047 1.658-.5 2.257.825.549 1.237 1.644.917 2.593-.256.812-.954 1.419-1.737 1.71-1.621.616-3.553.056-4.674-1.247l1.087-.89c.254.243.516.483.828.651.578.328 1.279.388 1.923.262.446-.093.903-.304 1.154-.7.249-.385.19-.934-.145-1.25-.425-.426-1.066-.443-1.63-.427a336.54 336.54 0 0 1 0-1.421c.391-.019.811.063 1.172-.127.381-.184.468-.737.219-1.061-.223-.302-.595-.446-.954-.508-.836-.16-1.669.19-2.281.748-.335-.317-.678-.625-1.013-.943zM15.575 13.253c.833-.094 1.717.104 2.379.634 1.102.882 1.454 2.384 1.407 3.735-.025 1.3-.479 2.697-1.572 3.484-1.204.876-3.03.72-4.05-.373-1.089-1.126-1.325-2.825-1.078-4.318.142-.859.487-1.716 1.124-2.328a2.991 2.991 0 0 1 1.79-.833zm.172 1.421c-.548.063-1.025.427-1.293.9-.39.681-.471 1.493-.429 2.263.049.698.242 1.436.758 1.937.63.606 1.723.589 2.352-.01.562-.539.76-1.343.791-2.097.019-.801-.078-1.661-.562-2.327-.356-.508-1.008-.759-1.617-.667z"/>
</svg>
