<?xml version="1.0" encoding="utf-8"?>
<!-- Generated by IcoMoon.io -->
<!DOCTYPE svg PUBLIC "-//W3C//DTD SVG 1.1//EN" "http://www.w3.org/Graphics/SVG/1.1/DTD/svg11.dtd">
<svg version="1.1" xmlns="http://www.w3.org/2000/svg" xmlns:xlink="http://www.w3.org/1999/xlink" width="24" height="24" viewBox="0 0 24 24">
<path fill="#e41408" d="M11.507 0h0.996c2.717 0.13 5.387 1.175 7.421 2.99 2.471 2.15 3.971 5.344 4.076 8.616v0.884c-0.125 2.581-1.069 5.12-2.722 7.112-2.118 2.622-5.384 4.236-8.744 4.397h-1.008c-2.558-0.12-5.082-1.043-7.067-2.67-2.656-2.114-4.3-5.404-4.459-8.79v-0.917c0.097-3.306 1.625-6.535 4.138-8.688 2.028-1.784 4.676-2.809 7.369-2.935M10.852 3.076c-2.503 0.296-4.826 1.734-6.254 3.804-1.062 1.523-1.625 3.383-1.595 5.239 0.020 2.092 0.799 4.171 2.178 5.747 1.362 1.596 3.3 2.692 5.375 3.017 2.036 0.331 4.189-0.053 5.968-1.105 1.86-1.079 3.314-2.845 3.997-4.885 0.728-2.124 0.619-4.52-0.305-6.568-0.725-1.627-1.949-3.026-3.463-3.966-1.736-1.1-3.865-1.544-5.9-1.283z"></path>
<path fill="#e41408" d="M14.947 7.090c0.026 0 0.079 0.001 0.106 0.001 0.652 1.132 1.3 2.266 1.943 3.403-0.414 0.005-0.828-0.001-1.242 0.004-0.010 2.167 0.004 4.334-0.007 6.502-0.499 0-0.997 0.006-1.496-0.004-0.002-2.166 0.004-4.332-0.002-6.498-0.415-0.005-0.829 0.001-1.243-0.004 0.643-1.138 1.29-2.273 1.943-3.404z"></path>
<path fill="#f4b70d" d="M10.852 3.076c2.035-0.262 4.164 0.182 5.9 1.283 1.514 0.94 2.738 2.339 3.463 3.966 0.924 2.047 1.033 4.444 0.305 6.568-0.683 2.040-2.137 3.806-3.997 4.885-1.778 1.052-3.931 1.436-5.968 1.105-2.075-0.325-4.013-1.421-5.375-3.017-1.379-1.576-2.158-3.655-2.178-5.747-0.030-1.856 0.533-3.716 1.595-5.239 1.428-2.070 3.751-3.508 6.254-3.804M8.25 6.994c-0.001 2.335 0.001 4.67-0.001 7.006-0.415 0.002-0.832 0-1.247 0.001 0.662 1.166 1.334 2.329 1.998 3.497 0.665-1.166 1.334-2.33 1.998-3.497-0.415-0.001-0.832 0.001-1.247-0.001-0.002-2.334-0.001-4.669-0.001-7.004-0.499-0.005-1-0.004-1.5-0.001M14.947 7.090c-0.653 1.132-1.3 2.267-1.943 3.404 0.414 0.005 0.828-0.001 1.243 0.004 0.006 2.166 0 4.332 0.002 6.498 0.499 0.010 0.997 0.004 1.496 0.004 0.011-2.167-0.002-4.334 0.007-6.502 0.414-0.005 0.828 0.001 1.242-0.004-0.643-1.138-1.291-2.272-1.943-3.403-0.026 0-0.079-0.001-0.106-0.001z"></path>
<path fill="#000" d="M8.25 6.994c0.5-0.002 1.001-0.004 1.5 0.001 0 2.335-0.001 4.67 0.001 7.004 0.415 0.002 0.832 0 1.247 0.001-0.664 1.166-1.333 2.33-1.998 3.497-0.664-1.168-1.336-2.33-1.998-3.497 0.415-0.001 0.832 0.001 1.247-0.001 0.002-2.335 0-4.67 0.001-7.006z"></path>
</svg>
