<?xml version="1.0" encoding="utf-8"?>
<!-- Generated by IcoMoon.io -->
<!DOCTYPE svg PUBLIC "-//W3C//DTD SVG 1.1//EN" "http://www.w3.org/Graphics/SVG/1.1/DTD/svg11.dtd">
<svg version="1.1" xmlns="http://www.w3.org/2000/svg" xmlns:xlink="http://www.w3.org/1999/xlink" width="24" height="24" viewBox="0 0 24 24">
<path fill="#e20a16" d="M11.496 0h0.955c2.652 0.128 5.266 1.097 7.289 2.83 2.525 2.107 4.093 5.286 4.26 8.569v1.181c-0.144 2.863-1.334 5.664-3.332 7.726-2.083 2.194-5.020 3.527-8.038 3.695h-1.23c-2.996-0.161-5.915-1.475-7.999-3.638-2.156-2.191-3.383-5.239-3.401-8.31v-0.085c0.013-3.163 1.316-6.3 3.587-8.508 2.086-2.093 4.97-3.301 7.909-3.458M7.273 3.193c-2.039 1.097-3.68 2.917-4.54 5.069-0.952 2.34-0.966 5.044-0.037 7.393 0.82 2.093 2.366 3.886 4.312 5.012 1.315-2.286 2.633-4.57 3.955-6.851 0.187-0.336 0.394-0.662 0.563-1.008 0.083-0.125 0.157-0.256 0.223-0.389 0.184-0.276 0.347-0.565 0.512-0.851 1.578-2.747 3.167-5.486 4.748-8.231-2.94-1.706-6.748-1.771-9.737-0.145M18.64 4.516c-0.366 0.642-0.743 1.279-1.105 1.925-0.097 0.148-0.19 0.299-0.265 0.458-0.433 0.744-0.87 1.486-1.291 2.238-0.424 0.708-0.828 1.429-1.244 2.143-1.963 3.407-3.934 6.808-5.896 10.214 1.939 0.646 4.076 0.683 6.034 0.094 2.406-0.718 4.514-2.375 5.771-4.548 1.312-2.212 1.693-4.943 1.073-7.435-0.476-1.958-1.574-3.748-3.076-5.089z"></path>
<path fill="#fff" d="M7.273 3.193c2.989-1.626 6.797-1.561 9.737 0.145-1.582 2.744-3.17 5.484-4.748 8.231-0.257-0.977-1.295-1.648-2.291-1.388-0.174-0.427-0.347-0.854-0.522-1.28 0.047-0.128 0.094-0.257 0.14-0.385 0.077-0.010 0.232-0.028 0.31-0.037 0.008-0.142 0.018-0.283 0.028-0.426-0.546-0.022-1.096-0.047-1.642 0.002-0.050 0.084-0.092 0.173-0.127 0.265 0.3 0.070 0.601 0.131 0.902 0.19-0.022 0.078-0.066 0.235-0.088 0.313-1.13-0.007-2.261 0.023-3.39-0.016 0.090-0.293 0.134-0.61 0.294-0.877 0.251-0.166 0.569-0.085 0.85-0.136 0.25-0.108 0.095-0.475-0.148-0.46-0.396-0.031-0.936-0.046-1.14 0.374-0.295 0.806-0.536 1.633-0.811 2.448-0.593-0.067-1.231 0.056-1.658 0.499-0.811 0.758-0.739 2.236 0.2 2.86 0.894 0.702 2.368 0.331 2.797-0.728 0.454-0.907-0.004-2.036-0.882-2.488 0.054-0.164 0.109-0.329 0.163-0.492 0.698 0.806 1.403 1.609 2.106 2.412 0.293 0.38 0.828 0.182 1.237 0.229 0.241 1.026 1.369 1.642 2.372 1.368-1.322 2.281-2.64 4.565-3.955 6.851-1.945-1.127-3.492-2.92-4.312-5.012-0.929-2.35-0.914-5.053 0.037-7.393 0.859-2.152 2.501-3.972 4.54-5.069z"></path>
<path fill="#fff" d="M18.64 4.516c1.501 1.342 2.599 3.131 3.076 5.089 0.62 2.492 0.239 5.224-1.073 7.435-1.256 2.173-3.365 3.83-5.771 4.548-1.957 0.589-4.094 0.552-6.034-0.094 1.962-3.407 3.932-6.808 5.896-10.214-0.076 0.352-0.086 0.721-0.017 1.074 0.085 0.292 0.402 0.337 0.66 0.344 0.060-0.769 0.113-1.541 0.169-2.311 0.262-0.080 0.524-0.158 0.788-0.233-0.103 0.552-0.211 1.102-0.316 1.654 0.695 0 1.388 0 2.083 0 0.084-0.254 0.167-0.51 0.253-0.764 0.162 0.203 0.323 0.407 0.484 0.61 0.623 0.15 1.246 0.306 1.868 0.455 0.019-0.173 0.115-0.372-0.012-0.527-0.326-0.354-0.81-0.511-1.162-0.836-0.324-0.635-0.547-1.316-0.858-1.957-0.236-0.466-0.854-0.719-1.332-0.466-0.468 0.247-0.929 0.514-1.366 0.815 0.421-0.752 0.858-1.494 1.291-2.238-0.217 0.529 0.305 1.127 0.852 1.070 0.577 0.002 1.002-0.67 0.766-1.193-0.19-0.53-0.938-0.719-1.352-0.336 0.362-0.646 0.739-1.283 1.105-1.925M14.98 17.158c-0.076 0.45 0.34 0.797 0.763 0.791 0.456-1.4 0.907-2.802 1.367-4.201 0.325 0.508 0.679 1 0.979 1.523 0.262 0.683 0.444 1.396 0.698 2.081 0.179 0.409 0.674 0.565 1.087 0.462-0.179-0.864-0.365-1.724-0.547-2.587-0.035-0.182-0.114-0.35-0.203-0.512-0.428-0.788-0.845-1.584-1.267-2.376-0.648-0.002-1.295-0.001-1.942-0.001-0.31 1.608-0.647 3.211-0.936 4.822z"></path>
<path fill="#fff" d="M5.478 9.319c1.098-0.034 2.198-0.007 3.298-0.014-0.338 0.87-0.673 1.742-1.007 2.615-0.76-0.871-1.567-1.702-2.291-2.6z"></path>
<path fill="#fff" d="M9.182 9.547c0.114 0.268 0.224 0.536 0.335 0.806-0.596 0.329-0.917 0.96-1.026 1.61-0.060 0.002-0.179 0.008-0.239 0.011 0.299-0.814 0.622-1.618 0.93-2.428z"></path>
<path fill="#fff" d="M2.929 11.658c0.15-0.691 0.868-1.116 1.55-1.042-0.151 0.503-0.343 0.994-0.478 1.501-0.055 0.229 0.247 0.384 0.402 0.198 0.223-0.499 0.343-1.037 0.534-1.548 0.412 0.272 0.748 0.712 0.732 1.226 0.023 0.809-0.769 1.537-1.578 1.385-0.796-0.084-1.398-0.946-1.163-1.721z"></path>
<path fill="#fff" d="M10.14 10.633c0.312-0.001 0.644-0.024 0.929 0.131 0.589 0.292 0.888 1.032 0.68 1.656-0.066 0.133-0.14 0.264-0.223 0.389-0.348 0.575-1.156 0.76-1.736 0.439-0.332-0.157-0.536-0.479-0.697-0.796 0.551-0.038 1.117 0.061 1.658-0.050 0.229-0.043 0.028-0.316-0.036-0.421-0.263-0.415-0.383-0.899-0.575-1.348z"></path>
<path fill="#fff" d="M9.023 11.963c0.032-0.463 0.274-0.889 0.655-1.152 0.162 0.383 0.311 0.77 0.464 1.157-0.373 0.001-0.746 0.002-1.12-0.005z"></path>
<path fill="#000" d="M17.534 6.44c0.414-0.383 1.163-0.194 1.352 0.336 0.236 0.523-0.188 1.195-0.766 1.193-0.547 0.056-1.069-0.541-0.852-1.070 0.076-0.16 0.168-0.311 0.265-0.458z"></path>
<path fill="#000" d="M5.438 7.709c0.204-0.42 0.744-0.406 1.14-0.374 0.242-0.016 0.397 0.352 0.148 0.46-0.281 0.050-0.599-0.030-0.85 0.136-0.16 0.268-0.204 0.584-0.294 0.877 1.129 0.038 2.26 0.008 3.39 0.016 0.022-0.078 0.066-0.235 0.088-0.313-0.301-0.059-0.602-0.12-0.902-0.19 0.035-0.092 0.077-0.181 0.127-0.265 0.546-0.049 1.096-0.024 1.642-0.002-0.010 0.143-0.019 0.284-0.028 0.426-0.078 0.010-0.233 0.028-0.31 0.037-0.047 0.128-0.094 0.257-0.14 0.385 0.175 0.426 0.348 0.853 0.522 1.28 0.996-0.259 2.034 0.412 2.291 1.388-0.166 0.286-0.329 0.575-0.512 0.851 0.208-0.624-0.091-1.364-0.68-1.656-0.284-0.155-0.617-0.132-0.929-0.131 0.192 0.449 0.312 0.932 0.575 1.348 0.064 0.106 0.265 0.378 0.036 0.421-0.541 0.112-1.108 0.012-1.658 0.050 0.161 0.317 0.365 0.638 0.697 0.796 0.581 0.32 1.388 0.136 1.736-0.439-0.169 0.346-0.376 0.672-0.563 1.008-1.003 0.274-2.131-0.342-2.372-1.368-0.409-0.047-0.944 0.151-1.237-0.229-0.703-0.803-1.408-1.606-2.106-2.412-0.054 0.163-0.109 0.328-0.163 0.492 0.878 0.451 1.336 1.58 0.882 2.488-0.43 1.060-1.903 1.43-2.797 0.728-0.94-0.624-1.012-2.101-0.2-2.86 0.427-0.443 1.066-0.566 1.658-0.499 0.275-0.815 0.516-1.642 0.811-2.448M5.478 9.319c0.724 0.899 1.531 1.729 2.291 2.6 0.334-0.872 0.668-1.745 1.007-2.615-1.099 0.007-2.2-0.019-3.298 0.014M9.182 9.547c-0.308 0.81-0.631 1.614-0.93 2.428 0.060-0.002 0.179-0.008 0.239-0.011 0.109-0.65 0.43-1.282 1.026-1.61-0.11-0.27-0.221-0.539-0.335-0.806M2.929 11.658c-0.235 0.775 0.367 1.637 1.163 1.721 0.809 0.152 1.601-0.576 1.578-1.385 0.016-0.515-0.32-0.954-0.732-1.226-0.191 0.511-0.311 1.049-0.534 1.548-0.155 0.186-0.457 0.031-0.402-0.198 0.134-0.508 0.326-0.998 0.478-1.501-0.683-0.074-1.4 0.35-1.55 1.042M9.023 11.963c0.373 0.007 0.746 0.006 1.12 0.005-0.154-0.386-0.302-0.774-0.464-1.157-0.382 0.263-0.623 0.689-0.655 1.152z"></path>
<path fill="#000" d="M17.344 8.322c0.478-0.253 1.096 0 1.332 0.466 0.311 0.641 0.534 1.322 0.858 1.957 0.352 0.325 0.835 0.482 1.162 0.836 0.127 0.155 0.031 0.354 0.012 0.527-0.623-0.149-1.246-0.305-1.868-0.455-0.161-0.203-0.322-0.407-0.484-0.61-0.086 0.254-0.169 0.51-0.253 0.764-0.695 0-1.388 0-2.083 0 0.104-0.552 0.212-1.102 0.316-1.654-0.264 0.074-0.527 0.152-0.788 0.233-0.056 0.77-0.109 1.542-0.169 2.311-0.258-0.007-0.575-0.053-0.66-0.344-0.070-0.353-0.059-0.722 0.017-1.074 0.416-0.714 0.821-1.435 1.244-2.143 0.437-0.301 0.898-0.568 1.366-0.815z"></path>
<path fill="#000" d="M14.98 17.158c0.289-1.61 0.626-3.214 0.936-4.822 0.647 0 1.294-0.001 1.942 0.001 0.422 0.792 0.839 1.588 1.267 2.376 0.089 0.162 0.168 0.33 0.203 0.512 0.182 0.863 0.368 1.723 0.547 2.587-0.413 0.103-0.908-0.053-1.087-0.462-0.254-0.685-0.437-1.398-0.698-2.081-0.3-0.523-0.654-1.015-0.979-1.523-0.46 1.399-0.911 2.801-1.367 4.201-0.424 0.006-0.839-0.341-0.763-0.791z"></path>
</svg>
