<!-- Generated by IcoMoon.io -->
<svg version="1.1" xmlns="http://www.w3.org/2000/svg" width="36" height="24" viewBox="0 0 36 24">
<title>regulatory--wrong-way--g1</title>
<path fill="#fff" d="M0 0h1.699c-0.827 0.21-1.494 0.876-1.699 1.705v-1.705z"></path>
<path fill="#fff" d="M34.482 0h1.718v1.487c-0.239-0.772-0.929-1.345-1.718-1.487z"></path>
<path fill="#fff" d="M0.299 2.094c-0.012-0.985 0.954-1.773 1.895-1.795 10.637 0.002 21.275 0.002 31.912 0 0.787 0.012 1.559 0.552 1.779 1.318 0.168 0.511 0.109 1.055 0.116 1.583-0.002 6.302-0.002 12.604 0 18.906-0.013 0.848-0.614 1.602-1.396 1.894h-32.912c-0.743-0.246-1.359-0.885-1.39-1.695-0.009-6.737 0.001-13.474-0.004-20.211M1.838 0.535c-0.705 0.109-1.328 0.728-1.336 1.461-0.006 6.769 0.003 13.538-0.004 20.307-0.030 0.766 0.632 1.475 1.398 1.496 10.837 0.002 21.674 0.001 32.51 0.001 0.77-0.071 1.422-0.821 1.396-1.596-0.006-6.703 0.002-13.406-0.004-20.108-0.022-0.857-0.737-1.573-1.594-1.594-10.669-0.005-21.338 0-32.007-0.003-0.121 0.001-0.241 0.013-0.359 0.036z"></path>
<path fill="#fff" d="M17.837 4.635c0.59-0.068 1.27-0.13 1.77 0.26 0.644 0.46 0.844 1.286 0.968 2.024 0.094 1.083 0.040 2.255-0.556 3.199-0.565 0.847-1.789 0.968-2.635 0.501-0.922-0.685-1.108-1.946-1.089-3.019 0.021-1.115 0.301-2.612 1.542-2.965M18.133 5.531c-0.246 0.098-0.447 0.289-0.591 0.507-0.428 1.030-0.444 2.224-0.048 3.265 0.234 0.807 1.589 0.848 1.879 0.068 0.45-1.028 0.408-2.226 0.015-3.265-0.216-0.457-0.76-0.747-1.255-0.575z"></path>
<path fill="#fff" d="M28.118 5.118c0.975-1.063 3.071-0.497 3.296 0.957-0.294 0.17-0.629 0.244-0.949 0.347-0.168-0.542-0.804-1.020-1.362-0.716-0.492 0.232-0.572 0.839-0.679 1.313-0.053 0.749-0.089 1.538 0.217 2.243 0.209 0.313 0.557 0.606 0.961 0.543 0.523-0.063 0.862-0.598 0.822-1.103-0.342-0.002-0.683-0.002-1.024-0.002 0-0.367 0-0.733 0-1.1 0.7 0 1.399 0 2.099 0-0.007 0.837 0.123 1.766-0.412 2.484-0.773 1.142-2.741 1.016-3.342-0.231-0.344-0.9-0.562-1.898-0.37-2.858 0.087-0.668 0.22-1.402 0.743-1.877z"></path>
<path fill="#fff" d="M4.779 4.702c0.348 0.055 0.831-0.148 1.088 0.13 0.102 0.947 0.289 1.884 0.362 2.835 0.265-0.987 0.482-1.986 0.758-2.97 0.329 0.002 0.659 0.003 0.988 0.003 0.215 0.934 0.454 1.862 0.651 2.8l0.060 0.001c0.172-0.93 0.22-1.878 0.414-2.803 0.338 0.001 0.677 0.002 1.015 0.003-0.213 2.040-0.566 4.065-0.833 6.099-0.299 0-0.597 0.001-0.895 0.003-0.339-1.217-0.603-2.453-0.93-3.673-0.302 1.222-0.579 2.449-0.883 3.67-0.318 0-0.636 0-0.954 0-0.273-2.033-0.554-4.066-0.841-6.098z"></path>
<path fill="#fff" d="M11.2 4.7c0.945 0.038 1.906-0.078 2.841 0.057 1.427 0.403 1.577 2.606 0.237 3.231 0.319 0.948 0.729 1.862 1.046 2.81-0.375 0.002-0.749 0.002-1.123 0.004-0.348-0.898-0.711-1.792-1.026-2.702-0.325 0-0.65 0-0.975 0 0 0.9 0 1.8 0 2.7-0.333 0-0.667 0-1 0 0-2.033 0-4.067 0-6.1M12.1 5.601c0 0.533 0 1.066 0 1.598 0.555-0.019 1.116 0.048 1.666-0.031 0.358-0.078 0.408-0.482 0.534-0.763-0.076-0.194-0.148-0.389-0.22-0.585-0.601-0.359-1.318-0.183-1.98-0.219z"></path>
<path fill="#fff" d="M21.9 4.7c0.362 0 0.725 0 1.087-0.001 0.661 1.194 1.312 2.395 1.995 3.576 0.041-1.191 0.007-2.384 0.018-3.575 0.367 0 0.733 0 1.1 0 0 2.033 0 4.067 0 6.1-0.316 0-0.633 0-0.949 0-0.708-1.294-1.46-2.563-2.149-3.868-0.006 1.289 0 2.579-0.002 3.868-0.367 0-0.733 0-1.1 0 0-2.033 0-4.067 0-6.1z"></path>
<path fill="#fff" d="M10.036 13.698c0.349 0.001 0.697 0.002 1.045 0.002 0.124 0.854 0.266 1.708 0.333 2.569 0.039 0.040 0.116 0.121 0.155 0.162 0.173-0.921 0.441-1.82 0.657-2.731 0.321 0.034 0.724-0.091 0.994 0.074 0.27 0.922 0.404 1.9 0.749 2.805 0.042-0.968 0.267-1.915 0.35-2.879 0.365 0 0.729 0 1.094 0.001-0.292 1.8-0.507 3.614-0.778 5.419-0.055 0.218 0.022 0.497-0.162 0.663-0.281 0.035-0.565 0.018-0.847 0.019-0.285-1.226-0.658-2.433-0.875-3.674-0.402 1.201-0.579 2.461-0.938 3.674-0.304-0.001-0.609-0.001-0.914-0.001-0.338-2.026-0.578-4.068-0.863-6.103z"></path>
<path fill="#fff" d="M17.723 13.699c0.348 0.001 0.695 0.001 1.043 0.001 0.632 2.051 1.397 4.056 2.056 6.099-0.375 0.001-0.751 0.001-1.126 0.003-0.251-0.661-0.441-1.343-0.692-2.004-0.527 0.002-1.054 0.003-1.58 0.001-0.228 0.664-0.463 1.326-0.658 2.001-0.367 0-0.734 0.001-1.1-0.005 0.612-2.052 1.361-4.068 2.057-6.096M17.607 16.9c0.409 0 0.817 0.002 1.226-0.005-0.176-0.594-0.362-1.186-0.597-1.76-0.253 0.573-0.406 1.182-0.629 1.765z"></path>
<path fill="#fff" d="M20.99 13.698c0.431 0.002 0.862 0.002 1.294 0.002 0.415 0.763 0.905 1.481 1.35 2.226 0.448-0.75 0.896-1.5 1.378-2.228 0.411 0.001 0.822 0 1.234 0.010-0.559 0.949-1.156 1.875-1.718 2.823-0.134 0.241-0.345 0.469-0.328 0.763-0.006 0.835 0.004 1.671 0 2.506-0.367 0-0.733 0-1.1 0-0.124-1.12 0.337-2.411-0.429-3.369-0.565-0.908-1.107-1.831-1.681-2.733z"></path>
<path fill="#fff" d="M0 22.705c0.174 0.515 0.453 1.047 0.964 1.295h-0.964v-1.295z"></path>
<path fill="#fff" d="M35.342 24c0.353-0.304 0.687-0.65 0.858-1.094v1.094h-0.858z"></path>
<path fill="#231f20" d="M1.699 0h32.783c0.789 0.142 1.479 0.715 1.718 1.487v21.419c-0.171 0.444-0.505 0.79-0.858 1.094h-0.737c0.782-0.292 1.383-1.046 1.396-1.894-0.002-6.302-0.002-12.604 0-18.906-0.007-0.528 0.052-1.072-0.116-1.583-0.22-0.766-0.992-1.306-1.779-1.318-10.637 0.002-21.275 0.002-31.912 0-0.941 0.022-1.907 0.81-1.895 1.795 0.005 6.737-0.005 13.474 0.004 20.211 0.031 0.81 0.647 1.449 1.39 1.695h-0.729c-0.511-0.248-0.79-0.78-0.964-1.295v-21c0.205-0.829 0.872-1.495 1.699-1.705z"></path>
<path fill="#bf2e1a" d="M1.838 0.535c0.118-0.023 0.238-0.035 0.359-0.036 10.669 0.003 21.338-0.002 32.007 0.003 0.857 0.021 1.572 0.737 1.594 1.594 0.006 6.702-0.002 13.405 0.004 20.108 0.026 0.775-0.626 1.525-1.396 1.596-10.836 0-21.673 0.001-32.51-0.001-0.766-0.021-1.428-0.73-1.398-1.496 0.007-6.769-0.002-13.538 0.004-20.307 0.008-0.733 0.631-1.352 1.336-1.461M17.837 4.635c-1.241 0.353-1.521 1.85-1.542 2.965-0.019 1.073 0.167 2.334 1.089 3.019 0.846 0.467 2.070 0.346 2.635-0.501 0.596-0.944 0.65-2.116 0.556-3.199-0.124-0.738-0.324-1.564-0.968-2.024-0.5-0.39-1.18-0.328-1.77-0.26M28.118 5.118c-0.523 0.475-0.656 1.209-0.743 1.877-0.192 0.96 0.026 1.958 0.37 2.858 0.601 1.247 2.569 1.373 3.342 0.231 0.535-0.718 0.405-1.647 0.412-2.484-0.7 0-1.399 0-2.099 0 0 0.367 0 0.733 0 1.1 0.341 0 0.682 0 1.024 0.002 0.040 0.505-0.299 1.040-0.822 1.103-0.404 0.063-0.752-0.23-0.961-0.543-0.306-0.705-0.27-1.494-0.217-2.243 0.107-0.474 0.187-1.081 0.679-1.313 0.558-0.304 1.194 0.174 1.362 0.716 0.32-0.103 0.655-0.177 0.949-0.347-0.225-1.454-2.321-2.020-3.296-0.957M4.779 4.702c0.287 2.032 0.568 4.065 0.841 6.098 0.318 0 0.636 0 0.954 0 0.304-1.221 0.581-2.448 0.883-3.67 0.327 1.22 0.591 2.456 0.93 3.673 0.298-0.002 0.596-0.003 0.895-0.003 0.267-2.034 0.62-4.059 0.833-6.099-0.338-0.001-0.677-0.002-1.015-0.003-0.194 0.925-0.242 1.873-0.414 2.803l-0.060-0.001c-0.197-0.938-0.436-1.866-0.651-2.8-0.329 0-0.659-0.001-0.988-0.003-0.276 0.984-0.493 1.983-0.758 2.97-0.073-0.951-0.26-1.888-0.362-2.835-0.257-0.278-0.74-0.075-1.088-0.13M11.2 4.7c0 2.033 0 4.067 0 6.1 0.333 0 0.667 0 1 0 0-0.9 0-1.8 0-2.7 0.325 0 0.65 0 0.975 0 0.315 0.91 0.678 1.804 1.026 2.702 0.374-0.002 0.748-0.002 1.123-0.004-0.317-0.948-0.727-1.862-1.046-2.81 1.34-0.625 1.19-2.828-0.237-3.231-0.935-0.135-1.896-0.019-2.841-0.057M21.9 4.7c0 2.033 0 4.067 0 6.1 0.367 0 0.733 0 1.1 0 0.002-1.289-0.004-2.579 0.002-3.868 0.689 1.305 1.441 2.574 2.149 3.868 0.316 0 0.633 0 0.949 0 0-2.033 0-4.067 0-6.1-0.367 0-0.733 0-1.1 0-0.011 1.191 0.023 2.384-0.018 3.575-0.683-1.181-1.334-2.382-1.995-3.576-0.362 0.001-0.725 0.001-1.087 0.001M10.036 13.698c0.285 2.035 0.525 4.077 0.863 6.103 0.305 0 0.61 0 0.914 0.001 0.359-1.213 0.536-2.473 0.938-3.674 0.217 1.241 0.59 2.448 0.875 3.674 0.282-0.001 0.566 0.016 0.847-0.019 0.184-0.166 0.107-0.445 0.162-0.663 0.271-1.805 0.486-3.619 0.778-5.419-0.365-0.001-0.729-0.001-1.094-0.001-0.083 0.964-0.308 1.911-0.35 2.879-0.345-0.905-0.479-1.883-0.749-2.805-0.27-0.165-0.673-0.040-0.994-0.074-0.216 0.911-0.484 1.81-0.657 2.731-0.039-0.041-0.116-0.122-0.155-0.162-0.067-0.861-0.209-1.715-0.333-2.569-0.348 0-0.696-0.001-1.045-0.002M17.723 13.699c-0.696 2.028-1.445 4.044-2.057 6.096 0.366 0.006 0.733 0.005 1.1 0.005 0.195-0.675 0.43-1.337 0.658-2.001 0.526 0.002 1.053 0.001 1.58-0.001 0.251 0.661 0.441 1.343 0.692 2.004 0.375-0.002 0.751-0.002 1.126-0.003-0.659-2.043-1.424-4.048-2.056-6.099-0.348 0-0.695 0-1.043-0.001M20.99 13.698c0.574 0.902 1.116 1.825 1.681 2.733 0.766 0.958 0.305 2.249 0.429 3.369 0.367 0 0.733 0 1.1 0 0.004-0.835-0.006-1.671 0-2.506-0.017-0.294 0.194-0.522 0.328-0.763 0.562-0.948 1.159-1.874 1.718-2.823-0.412-0.010-0.823-0.009-1.234-0.010-0.482 0.728-0.93 1.478-1.378 2.228-0.445-0.745-0.935-1.463-1.35-2.226-0.432 0-0.863 0-1.294-0.002z"></path>
<path fill="#bf2e1a" d="M18.133 5.531c0.495-0.172 1.039 0.118 1.255 0.575 0.393 1.039 0.435 2.237-0.015 3.265-0.29 0.78-1.645 0.739-1.879-0.068-0.396-1.041-0.38-2.235 0.048-3.265 0.144-0.218 0.345-0.409 0.591-0.507z"></path>
<path fill="#bf2e1a" d="M12.1 5.601c0.662 0.036 1.379-0.14 1.98 0.219 0.072 0.196 0.144 0.391 0.22 0.585-0.126 0.281-0.176 0.685-0.534 0.763-0.55 0.079-1.111 0.012-1.666 0.031 0-0.532 0-1.065 0-1.598z"></path>
<path fill="#bf2e1a" d="M17.607 16.9c0.223-0.583 0.376-1.192 0.629-1.765 0.235 0.574 0.421 1.166 0.597 1.76-0.409 0.007-0.817 0.005-1.226 0.005z"></path>
</svg>
