<svg xmlns="http://www.w3.org/2000/svg" width="24" height="24">
    <path fill="#434041" d="M2.451 0h19.405c.113.033.227.07.338.111C15.444.094 8.694.117 1.944.1c.168-.041.337-.073.507-.1z"/>
    <path fill="#232021" d="M1.5.691c.086-.227.17-.534.444-.591 6.75.017 13.5-.005 20.25.011.552.249.417.963.465 1.456-.074.731-.029 1.469.025 2.201a7.12 7.12 0 0 0-.047.911c-.021 5.705-.007 11.41-.012 17.115-.009.637.084 1.307-.189 1.906a4.476 4.476 0 0 1-.244.253c-6.251-.03-12.502-.009-18.753-.024-.611-.008-1.29.11-1.817-.281-.042-.065-.086-.128-.122-.196v-.031c.053-.138.095-.282.097-.431-.007-7.24-.005-14.481-.001-21.721C1.587 1.08 1.539.898 1.5.714V.69zm.308.376c.003 7.333 0 14.667.002 22-.003.149.076.279.142.408l.087.14c6.573.04 13.148.006 19.721.017.378.041.576-.378.548-.701.003-7.221-.001-14.441.002-21.662-.003-.233-.037-.462-.064-.693L22.07.504c-.035-.085-.072-.17-.106-.255-.537-.043-1.076-.018-1.613-.023C14.378.228 8.404.221 2.431.229c-.432-.015-.63.471-.624.837z"/>
    <path fill="#5e5b5c" d="M1.808 1.067C1.802.701 2 .215 2.432.23 8.405.223 14.379.229 20.352.227c.537.005 1.076-.02 1.613.023.034.086.07.17.106.255-.498-.227-1.055-.151-1.584-.159-5.705 0-11.41.002-17.114-.001-.441.011-.942-.091-1.31.219L2.06.696c.005 7.144.001 14.287.002 21.431.003.448-.017.897.026 1.344l.003.04a5.475 5.475 0 0 1-.137-.037c-.067-.128-.145-.259-.142-.408-.002-7.333.001-14.667-.002-22z"/>
    <path fill="#979595" d="M2.062.565c.368-.31.869-.208 1.31-.219 5.705.003 11.41.001 17.114.001.529.008 1.086-.068 1.584.159.059.023.118.047.176.072.027.231.061.46.064.693-.003 7.22.001 14.441-.002 21.662.028.323-.17.742-.548.701-6.574-.011-13.149.023-19.721-.017l-.087-.14.137.037a.437.437 0 0 0 .251.005c6.473-.014 12.948-.001 19.421-.007.295.005.429-.324.416-.576-.002-7.267-.003-14.534.001-21.801-.005-.209-.027-.477-.255-.563-.41-.175-.87-.116-1.304-.124C14.981.451 9.343.449 3.705.449 3.155.436 2.599.437 2.06.567z"/>
    <path fill="#979595" d="M18.204 12.824c.498-.183 1.076-.047 1.603-.074.453.189.852.601.97 1.088.03.479.043.966-.011 1.443-.189.523-.65.98-1.219 1.05-.414.025-.828-.004-1.241.009-.215-.302-.11-.688-.132-1.032.022-.828-.042-1.661.031-2.485zm.117.056c-.029.965-.003 1.932-.015 2.899-.002.113-.007.319.162.299.536-.027 1.11.093 1.616-.124.745-.644.77-1.889.218-2.662-.478-.62-1.311-.371-1.982-.412z"/>
    <path fill="#d2d1d2" d="M2.062.565C2.601.435 3.156.434 3.707.447 9.345.446 14.982.449 20.621.446c.434.009.893-.051 1.304.124.229.086.251.354.255.563-.004 7.267-.003 14.534-.001 21.801.012.252-.121.582-.416.576-6.473.006-12.948-.007-19.421.007l-.001-.041c6.204.032 12.41 0 18.614.016.322.008.646.006.961-.064.287-.424.185-.955.195-1.434-.001-6.931-.002-13.864.001-20.794-.007-.203-.091-.389-.174-.57C21.3.56 20.659.598 20.019.591L3.573.59C3.067.581 2.553.565 2.059.697l.003-.132z"/>
    <path fill="#fff" d="M2.058.697C2.552.565 3.066.581 3.572.59 9.054.591 14.536.589 20.018.591c.64.007 1.281-.031 1.919.039.03 6.72.005 13.441.013 20.161-.01.879.029 1.76-.035 2.637-.316.07-.64.072-.961.064-6.205-.016-12.41.016-18.614-.016a.299.299 0 0 0-.253-.004c-.043-.447-.023-.896-.026-1.344-.001-7.144.003-14.287-.002-21.431zm12.574.675c-.847-.017-1.712.466-1.955 1.313-.578 1.213-.013 2.891 1.26 3.396.45.093.922.063 1.378.031.816-.205 1.362-.973 1.521-1.766.016-.423.029-.85-.01-1.273-.197-.632-.572-1.268-1.201-1.548a3.57 3.57 0 0 0-.993-.154zm-7.16.125c-.092.7-.023 1.409-.044 2.113.023.819-.051 1.643.046 2.458.342.045.733.13 1.048-.049.127-.864-.019-1.754.077-2.626.701.842 1.307 1.764 2.039 2.58.265.233 1.005.279.976-.219.01-1.318.005-2.636.003-3.954.035-.48-.567-.321-.868-.352-.086.043-.172.086-.259.127-.109.724.027 1.455-.06 2.18a21.972 21.972 0 0 1-.322-.207c-.444-.616-.918-1.212-1.388-1.809-.275-.419-.832-.263-1.249-.241zm1.507 6.309c-.09.801-.012 1.617-.039 2.424a.871.871 0 0 0 .714.947c.618.519 1.791.055 1.942-.731.374-.429.166-1.04.217-1.554-.039-.391.148-.922-.246-1.179a4.003 4.003 0 0 0-.618.059c-.045.751-.002 1.505-.054 2.255-.041.189-.166.346-.264.509a3.245 3.245 0 0 1-.786-.088c-.048-.786-.011-1.574-.021-2.361.074-.449-.596-.454-.846-.28zm3.526-.073c-.284.061-.274.396-.273.624.021.87-.018 1.742.017 2.611-.002.406.489.507.794.369.158-.459.029-.963.086-1.439.168.001.336-.001.504-.004.126.453.321.884.529 1.304.171.325.602.158.89.14.116-.579-.425-1.018-.474-1.574.176-.329.534-.596.502-1.007-.095-.568-.612-1.084-1.211-1.052-.454.011-.914-.039-1.364.028zm2.942.29c-.007.959.003 1.918-.005 2.876a.88.88 0 0 0 .102.438c.226-.005.453-.011.679-.02.158-.61.02-1.244.098-1.864.472.571.759 1.27 1.221 1.847.237.096.681.065.693-.27.013-1.042-.001-2.085.005-3.128-.225-.191-.52-.207-.793-.122-.035.565.002 1.132-.029 1.697-.518-.465-.752-1.15-1.203-1.665-.223-.151-.784-.166-.769.211zM6.21 7.775l.092.062-.094-.003.007.488c.265-.001.53.009.792.055-.118.856-.027 1.729-.051 2.593-.102.541.931.52.855.001.025-.857-.029-1.717.026-2.573.245.009.489-.013.73-.059a25.303 25.303 0 0 1-.004-.551c-.775-.104-1.576-.086-2.353-.011zm-1.879 4.966c-.534.176-.891.745-.9 1.298-.025.689-.106 1.508.46 2.02.605.604 1.835.412 2.155-.408.13-.523.455-1.068.193-1.608-.118-.533-.364-1.144-.936-1.31a4.773 4.773 0 0 0-.971.008zm2.43.137c-.013 1.011-.007 2.022-.005 3.032-.022.38.507.589.767.348.126-.626.003-1.277.08-1.911.464.602.777 1.308 1.247 1.905.207.174.732.16.707-.207a87.867 87.867 0 0 0-.007-3.247c-.253-.055-.548-.131-.786.005-.154.524-.019 1.084-.084 1.623-.357-.499-.63-1.057-1.028-1.525-.219-.279-.629-.18-.893-.023zm5.271.221c.003.937-.003 1.875.003 2.811-.027.375.517.608.753.329.117-.437.023-.903.059-1.352l.546-.007c.225.491.308 1.067.697 1.467.241.005.493.015.707-.114-.069-.548-.505-.973-.507-1.528.204-.26.419-.54.478-.872-.04-.614-.612-1.147-1.232-1.101-.398.012-.797-.015-1.195.011-.182.006-.338.17-.308.356zm3.328-.359c-.188-.004-.188.229-.194.364.003.932-.001 1.864.001 2.795.013.164.021.452.245.449.6.021 1.2-.001 1.8.011.196-.007.488.007.55-.233.043-.199.087-.528-.171-.592-.508-.112-1.034-.007-1.548-.067.003-.19.005-.379.006-.569.32-.019.649.026.963-.049.154-.217.098-.528.01-.764-.299-.155-.662-.054-.986-.092.015-.154.032-.308.051-.461.415-.017.837.043 1.247-.039.288-.065.3-.437.216-.663-.106-.144-.318-.089-.472-.108-.572.017-1.147-.021-1.717.019zm2.844.084c-.073.824-.009 1.657-.031 2.485.022.344-.082.73.132 1.032.414-.013.828.015 1.241-.009.568-.07 1.03-.527 1.219-1.05.055-.477.041-.964.011-1.443-.118-.487-.517-.899-.97-1.088-.527.027-1.105-.109-1.603.074zm-7.09 4.288c-.898.336-1.737 1.035-1.953 2.005-.444 1.485.775 3.082 2.252 3.303a1.82 1.82 0 0 0 1.459.009c1.053-.184 1.991-1.011 2.262-2.053.27-.591.042-1.237-.193-1.796-.423-.788-1.212-1.344-2.07-1.556-.582.011-1.199-.104-1.756.088z"/>
    <path fill="#fff" d="M14.369 2.443c.605-.269 1.387.314 1.328.967-.013.478.105 1.042-.275 1.416-.472.511-1.485.313-1.637-.398-.251-.679-.139-1.644.584-1.985zM4.38 13.778c.094-.275.507-.445.721-.196.509.502.437 1.353.037 1.9-.239-.009-.513.068-.725-.065a2.752 2.752 0 0 1-.033-1.639zM19.074 13.584c.232.008.465.013.696.035.161.031.132.231.168.353.056.505.134 1.105-.231 1.518a18.75 18.75 0 0 0-.668-.05c.002-.618-.044-1.24.034-1.856z"/>
    <path fill="#eae9e9" d="M21.937.63c.083.181.166.368.174.57-.003 6.931-.001 13.863-.001 20.794-.009.479.093 1.01-.195 1.434.064-.878.025-1.758.035-2.637-.009-6.72.017-13.441-.013-20.161z"/>
    <path fill="#4a4748" d="M1.5.715c.039.184.087.366.096.555-.005 7.24-.006 14.481.001 21.721a1.24 1.24 0 0 1-.097.431V.716z"/>
    <path fill="#bcbbbb" d="M14.632 1.372a3.56 3.56 0 0 1 .993.154c.628.28 1.004.915 1.201 1.548.039.423.026.85.01 1.273-.158.793-.705 1.561-1.521 1.766-.456.032-.928.062-1.378-.031-1.273-.505-1.838-2.183-1.26-3.396.243-.847 1.108-1.33 1.955-1.313zm-.008.13c-.593-.039-1.211.214-1.558.705-.602.889-.603 2.176.012 3.059.659.953 2.165 1.066 2.997.285.981-.989.946-2.833-.167-3.711-.355-.305-.834-.357-1.284-.338z"/>
    <path fill="#b4b3b3" d="M7.472 1.497c.417-.021.974-.178 1.249.241.47.597.944 1.193 1.388 1.809l.283.425.18-.039c.143-.822-.145-1.699.178-2.486.301.031.903-.128.868.352.003 1.318.007 2.636-.003 3.954.029.499-.711.452-.976.219-.732-.816-1.338-1.738-2.039-2.58-.096.872.05 1.762-.077 2.626-.315.179-.706.094-1.048.049-.097-.816-.023-1.639-.046-2.458.021-.704-.048-1.413.044-2.113zm.078.076c-.046 1.302-.005 2.607-.022 3.91.015.163-.026.359.085.495.269.049.544.015.81-.043.118-.862.004-1.736.068-2.603l.153-.096c.681.834 1.3 1.717 1.981 2.55.191.274.543.205.83.205.128-.986.023-1.99.056-2.984-.035-.476.084-.975-.076-1.435a6.142 6.142 0 0 1-.607-.007c-.237.874.035 1.828-.154 2.725a2.15 2.15 0 0 1-.529-.5c-.499-.679-1.029-1.334-1.534-2.009-.235-.356-.706-.196-1.06-.209z"/>
    <path fill="#dbdada" d="M10.49 1.574c.087-.041.173-.084.259-.127-.323.787-.035 1.664-.178 2.486l-.18.039-.283-.425c.107.07.214.138.322.207.086-.725-.049-1.456.06-2.18z"/>
    <path fill="#6f6d6d" d="M14.624 1.502c.45-.019.929.033 1.284.338 1.113.878 1.149 2.722.167 3.711-.832.781-2.338.668-2.997-.285-.615-.883-.614-2.17-.012-3.059.347-.491.965-.744 1.558-.705zm-.53.15a1.885 1.885 0 0 0-1.232 1.209c-.142.872-.176 1.915.515 2.576.652.6 1.696.708 2.419.168.495-.332.704-.915.853-1.464.132-.708-.144-1.445-.579-1.998-.487-.57-1.29-.603-1.976-.492z"/>
    <path fill="#646162" d="M7.55 1.573c.354.013.825-.147 1.06.209.505.675 1.035 1.33 1.534 2.009.142.199.328.36.529.5.189-.896-.083-1.851.154-2.725.015.748-.007 1.497.011 2.245a1.34 1.34 0 0 1-.157.69 2.685 2.685 0 0 1-.475-.441c-.56-.733-1.13-1.458-1.684-2.195-.199-.306-.592-.223-.9-.223-.007 1.403-.053 2.812.023 4.213.194-.007.388-.013.582-.015.147-.848-.007-1.714.076-2.566.016-.144.18-.185.275-.267.769.85 1.397 1.817 2.136 2.692.17.195.452.14.681.162.082-1.427.003-2.859.039-4.288.16.46.041.959.076 1.435-.033.993.072 1.998-.056 2.984-.287.001-.638.07-.83-.205-.681-.833-1.3-1.717-1.981-2.55l-.153.096c-.064.866.051 1.74-.068 2.603-.265.057-.54.092-.81.043-.111-.136-.07-.332-.085-.495.017-1.303-.024-2.607.022-3.91z"/>
    <path fill="#221f20" d="M7.621 1.642c.308.001.701-.082.9.223.554.737 1.124 1.462 1.684 2.195.134.171.305.307.475.441a1.34 1.34 0 0 0 .157-.69c-.018-.748.005-1.497-.011-2.245.202.013.404.015.607.007-.035 1.429.043 2.861-.039 4.288-.229-.022-.511.033-.681-.162-.739-.875-1.366-1.842-2.136-2.692-.095.082-.259.122-.275.267-.084.852.071 1.719-.076 2.566-.195.002-.388.007-.582.015-.077-1.401-.031-2.81-.023-4.213zM14.094 1.652c.687-.111 1.489-.078 1.976.492.435.553.711 1.29.579 1.998-.149.55-.358 1.132-.853 1.464-.723.54-1.767.431-2.419-.168-.692-.66-.657-1.703-.515-2.576a1.887 1.887 0 0 1 1.232-1.209zm.129.583c-.635.253-.892 1.001-.797 1.643-.128.906.802 1.78 1.702 1.465 1.133-.549 1.193-2.404.144-3.071-.333-.117-.705-.08-1.049-.037z"/>
    <path fill="#292727" opacity=".62" d="M22.659 1.567l.033.12v1.995l-.008.086c-.053-.731-.098-1.469-.025-2.201z"/>
    <path fill="#636061" d="M14.223 2.235c.344-.043.716-.08 1.049.037 1.05.667.989 2.522-.144 3.071-.9.315-1.83-.559-1.702-1.465-.096-.641.162-1.39.797-1.643zm.2.069c-1.243.382-1.227 2.547.015 2.937.599.168 1.28-.289 1.352-.905a3.67 3.67 0 0 0-.036-1.334 1.138 1.138 0 0 0-1.331-.699z"/>
    <path fill="#b9b7b8" d="M14.423 2.304a1.136 1.136 0 0 1 1.331.699c.099.436.1.892.036 1.334-.072.616-.753 1.073-1.352.905-1.243-.39-1.258-2.555-.015-2.937zm-.054.139c-.723.341-.836 1.306-.584 1.985.151.711 1.165.91 1.637.398.38-.374.263-.938.275-1.416.059-.654-.723-1.236-1.328-.967z"/>
    <path fill="#413f3f" d="M22.684 3.768l.008-.086v19.735c-.083.097-.17.189-.257.283.273-.599.18-1.269.189-1.906.005-5.705-.009-11.41.012-17.115a7.12 7.12 0 0 1 .047-.911z"/>
    <path fill="#bdbcbc" d="M8.979 7.806c.25-.174.919-.168.846.28.009.787-.027 1.575.021 2.361.257.063.521.089.786.088l-.039.057c-.304.289-.863-.009-.887-.4-.073-.78.049-1.568-.069-2.345a10.79 10.79 0 0 1-.568-.013c-.079.752-.034 1.51-.039 2.264-.023.435.286.769.585 1.042l.039.037a.872.872 0 0 1-.714-.947c.027-.807-.051-1.623.039-2.424z"/>
    <path fill="#cfcfcf" d="M12.505 7.733c.451-.067.911-.017 1.364-.028.599-.033 1.116.484 1.211 1.052.032.411-.326.679-.502 1.007.049.556.59.995.474 1.574-.288.019-.719.185-.89-.14a7.596 7.596 0 0 1-.529-1.304 21.17 21.17 0 0 1-.504.004c-.057.477.073.98-.086 1.439-.305.138-.796.037-.794-.369-.035-.869.004-1.741-.017-2.611-.001-.227-.011-.563.273-.624zm-.077.689c.051.947-.092 1.911.078 2.847.154-.003.31-.001.464.003.117-.459.05-.936.064-1.404.208-.057.424-.073.638-.065.221.426.375.882.581 1.314.099.281.452.128.673.144-.019-.574-.405-1.042-.509-1.597.447-.312.682-.969.296-1.423-.497-.616-1.349-.441-2.04-.451-.318.01-.231.419-.246.631z"/>
    <path fill="#969495" d="M15.447 8.023c-.015-.377.546-.362.769-.211.451.515.685 1.2 1.203 1.665.031-.566-.006-1.132.029-1.697.273-.085.568-.068.793.122-.006 1.043.007 2.086-.005 3.128-.013.335-.457.366-.693.27-.461-.577-.749-1.276-1.221-1.847-.078.62.06 1.254-.098 1.864-.227.009-.453.015-.679.02a.88.88 0 0 1-.102-.438c.007-.958-.003-1.917.005-2.876zm.244-.113c-.029 1.05.055 2.105-.073 3.149l.367.028c.126-.654.02-1.329.06-1.992.133.041.296.047.392.162.382.585.725 1.198 1.126 1.771.065.13.206.16.336.185.179-1.08.034-2.194.08-3.288-.143-.063-.295-.038-.441-.001-.031.618.042 1.241-.046 1.856a6.585 6.585 0 0 1-.15.035c-.429-.578-.743-1.236-1.194-1.798-.1-.156-.302-.091-.457-.106z"/>
    <path fill="#a8a6a6" d="M6.21 7.775c.777-.075 1.578-.092 2.353.011-.001.184.001.367.004.551a3.253 3.253 0 0 1-.73.059c-.055.856-.001 1.716-.026 2.573.076.519-.957.541-.855-.001.023-.863-.067-1.737.051-2.593.165.944-.031 1.909.114 2.857.199 0 .523.014.507-.272.019-.88.012-1.763.062-2.643.243-.057.495-.067.743-.076l-.013-.375c-.704-.064-1.412-.011-2.117-.03l-.092-.062z"/>
    <path fill="#b0afaf" d="M10.95 7.772c.204-.037.41-.053.618-.059.139.903.091 1.826.029 2.733-.151.787-1.324 1.251-1.942.731l-.039-.037c.732.386 1.848-.019 1.923-.907.035-.8.054-1.607-.023-2.405a6.062 6.062 0 0 1-.486.009c-.058.731.009 1.465-.033 2.195-.002.255-.211.427-.402.56l.039-.057c.098-.163.223-.32.264-.509.052-.75.009-1.504.054-2.255z"/>
    <path fill="#dad9d9" d="M11.568 7.713c.394.257.207.788.246 1.179-.051.515.157 1.125-.217 1.554.062-.907.11-1.83-.029-2.733z"/>
    <path fill="#817f80" d="M12.428 8.422c.015-.213-.072-.621.246-.631.691.01 1.544-.166 2.04.451.386.454.151 1.11-.296 1.423.104.556.489 1.024.509 1.597-.221-.015-.574.138-.673-.144-.206-.433-.36-.888-.581-1.314a2.075 2.075 0 0 0-.638.065c-.014.468.053.945-.064 1.404a8.973 8.973 0 0 0-.464-.003c-.17-.936-.027-1.9-.078-2.847zm.152-.515c-.023 1.076-.053 2.157.015 3.231l.302-.016c.072-.444-.075-.937.114-1.35.272-.095.739-.161.881.174.183.386.33.788.496 1.181l.322.007c.012-.524-.287-.993-.491-1.461.195-.219.494-.392.527-.711.053-.302-.034-.664-.321-.819-.547-.372-1.231-.203-1.846-.236z"/>
    <path fill="#656162" d="M6.301 7.836c.705.019 1.413-.034 2.117.03-.673.071-1.35.015-2.026.042l-.074.285c.286.049.834-.083.818.358.034.826-.011 1.653.011 2.48.129-.015.259-.021.389-.02.028-.877-.045-1.758.031-2.633l.12-.062c-.049.88-.042 1.763-.062 2.643.016.286-.308.272-.507.272-.144-.947.051-1.913-.114-2.857a4.56 4.56 0 0 0-.792-.055l-.007-.488.094.003z"/>
    <path fill="#727070" d="M9.07 7.834c.189.009.378.013.568.013.118.777-.004 1.566.069 2.345.024.39.583.689.887.4.191-.133.4-.305.402-.56.042-.731-.025-1.465.033-2.195.162.004.324.001.486-.009.078.798.058 1.606.023 2.405-.074.888-1.191 1.293-1.923.907-.299-.272-.608-.607-.585-1.042.005-.755-.039-1.512.039-2.264zm.089.266c-.03.62-.001 1.242-.013 1.863-.016.443.212.91.64 1.078.659.451 1.677-.165 1.668-.945.024-.725.043-1.455-.034-2.179l-.298-.011c-.095.79.037 1.594-.068 2.381-.171.275-.463.55-.798.577-.396-.106-.736-.478-.758-.899-.039-.695.055-1.397-.051-2.087-.106.051-.3.061-.287.222z"/>
    <path fill="#343132" d="M6.393 7.909c.675-.027 1.352.029 2.026-.042l.013.375c-.249.009-.5.018-.743.076l-.12.062c-.077.875-.003 1.756-.031 2.633-.13-.001-.26.005-.389.02-.023-.827.023-1.655-.011-2.48.015-.441-.532-.308-.818-.358l.074-.285z"/>
    <path fill="#272425" d="M9.159 8.1c-.013-.161.18-.171.287-.222.106.691.013 1.393.051 2.087.022.42.362.792.758.899.335-.027.627-.301.798-.577.106-.787-.027-1.59.068-2.381l.298.011c.078.723.058 1.453.034 2.179.009.78-1.009 1.396-1.668.945-.429-.168-.656-.635-.64-1.078.013-.621-.017-1.243.013-1.863zM18.321 12.88c.671.041 1.504-.208 1.981.412.552.773.527 2.018-.218 2.662-.507.217-1.08.097-1.616.124-.17.02-.164-.186-.162-.299.012-.967-.014-1.933.015-2.899zm.515.389c-.145.019-.134.191-.146.3-.018.535.001 1.072-.009 1.607.005.208-.018.495.221.585.361.133.779-.005 1.078-.222.162-.343.332-.716.325-1.102-.1-.429-.199-.966-.652-1.16-.265-.072-.549-.057-.817-.009z"/>
    <path fill="#2a2728" d="M12.58 7.907c.616.033 1.3-.136 1.846.236.287.155.374.517.321.819-.033.318-.332.492-.527.711.203.467.503.937.491 1.461a35.354 35.354 0 0 0-.322-.007c-.166-.392-.314-.795-.496-1.181-.142-.335-.609-.269-.881-.174-.189.413-.042.907-.114 1.35l-.302.016c-.068-1.074-.037-2.155-.015-3.231zm.483.52c-.074.262-.036.548-.015.816.423.061.878.053 1.195-.272-.026-.147.051-.345-.095-.443-.346-.034-.694.022-1.041-.002.273-.06.637.095.85-.126-.293.005-.619-.066-.894.027z"/>
    <path fill="#262324" d="M15.691 7.91c.154.015.356-.05.457.106.451.562.765 1.22 1.194 1.798l.15-.035c.088-.614.015-1.238.046-1.856.146-.037.298-.062.441.001-.045 1.094.1 2.208-.08 3.288-.13-.025-.271-.054-.336-.185-.401-.573-.744-1.186-1.126-1.771-.096-.115-.259-.12-.392-.162-.04.663.066 1.337-.06 1.992l-.367-.028c.128-1.045.044-2.099.073-3.149zM7.017 13.099c-.045-.237.217-.243.38-.245.437.497.78 1.086 1.068 1.68.044.231.258.348.48.264.207-.612-.063-1.29.181-1.903.138.271.178.576.162.876-.026.727.025 1.455-.031 2.181-.134.025-.268.05-.402.077-.342-.675-.816-1.272-1.151-1.949-.152-.082-.233.097-.225.225-.022.588.007 1.176-.014 1.764l-.404.023c-.104-.991-.021-1.996-.044-2.993z"/>
    <path fill="#f7f7f7" d="M13.063 8.427c.275-.093.601-.021.894-.027-.213.221-.576.067-.85.126.347.024.695-.032 1.041.002.146.098.069.295.095.443-.318.326-.772.333-1.195.272-.021-.269-.059-.554.015-.816z"/>
    <path fill="#c0bfc0" d="M4.331 12.741c.322-.041.648-.033.971-.008.572.166.818.777.936 1.31.262.54-.063 1.084-.193 1.608-.32.821-1.55 1.013-2.155.408-.566-.512-.485-1.331-.46-2.02.009-.553.366-1.121.9-1.298zm.199.062c-.574.107-.933.693-1.003 1.239-.02.53-.08 1.104.198 1.583.288.625 1.15.878 1.727.497.56-.292.648-.986.707-1.55-.036-.565-.121-1.213-.6-1.585-.273-.265-.685-.192-1.03-.185z"/>
    <path fill="#abaaaa" d="M6.761 12.878c.264-.158.674-.257.893.023.398.468.671 1.026 1.028 1.525.064-.539-.07-1.098.084-1.623.238-.136.533-.06.786-.005.028 1.082.019 2.165.007 3.247.025.368-.501.381-.707.207-.47-.598-.784-1.303-1.247-1.905-.077.634.046 1.284-.08 1.911-.26.241-.789.032-.767-.348-.003-1.01-.009-2.021.005-3.032zm.256.221c.023.997-.06 2.002.044 2.993.135-.009.269-.016.404-.023.021-.588-.008-1.176.014-1.764-.007-.128.073-.306.225-.225.335.677.81 1.274 1.151 1.949.171.14.384.138.574.037.009-1.066.025-2.133-.009-3.198a2.134 2.134 0 0 0-.592.035c-.009.549.007 1.098-.014 1.647l-.35-.017c-.287-.594-.631-1.183-1.068-1.68-.164.002-.425.008-.38.245z"/>
    <path fill="#acaaaa" d="M12.032 13.099c-.031-.186.126-.35.308-.356.398-.027.796.001 1.195-.011.62-.045 1.192.487 1.232 1.101-.059.333-.274.612-.478.872.001.555.438.979.507 1.528-.214.13-.466.12-.707.114-.389-.4-.471-.975-.697-1.467l-.546.007c-.035.449.058.915-.059 1.352-.236.279-.78.046-.753-.329-.006-.937.001-1.874-.003-2.811zm.267-.225a103.764 103.764 0 0 0-.001 3.205l.396-.001c.022-.392-.013-.786.019-1.177.181-.23.554-.077.816-.099.194.432.344.883.577 1.297.166 0 .48.003.392-.254-.122-.409-.406-.765-.427-1.209.489-.316.659-1.157.13-1.506-.537-.443-1.27-.205-1.903-.257z"/>
    <path fill="#bebebe" d="M15.36 12.74c.571-.04 1.145-.001 1.717-.019.154.019.366-.035.472.108.084.225.072.598-.216.663-.41.082-.832.023-1.247.039-.019.153-.036.307-.051.461.324.038.687-.063.986.092.088.236.144.547-.01.764-.314.076-.643.031-.963.049-.001.19-.003.379-.006.569.515.06 1.04-.045 1.548.067.258.064.214.394.171.592-.061.24-.354.226-.55.233-.6-.012-1.2.011-1.8-.011-.224.003-.233-.284-.245-.449-.003-.931.001-1.863-.001-2.795.006-.136.006-.368.194-.364zm-.073.107c-.079.773-.017 1.552-.038 2.328.013.318-.051.655.074.957.128.118.323.074.482.089.528-.019 1.058.022 1.584-.017.269-.056.333-.421.096-.567-.519-.127-1.086.09-1.586-.145.003-.207.006-.414.007-.621.358-.086.729-.039 1.088-.108-.011-.2.062-.457-.121-.6-.25-.045-.507.001-.757-.042-.308-.08-.278-.554-.084-.725.465-.107.952-.01 1.426-.061.035-.164.039-.332.023-.498-.729-.048-1.466-.064-2.193.009z"/>
    <path fill="#797677" d="M4.53 12.803c.345-.007.756-.08 1.03.185.479.372.564 1.02.6 1.585-.059.564-.146 1.257-.707 1.55-.578.381-1.439.128-1.727-.497-.277-.479-.218-1.053-.198-1.583.07-.546.429-1.132 1.003-1.239zm-.124.13c-.855.475-.992 1.674-.625 2.504.158.592.949.947 1.483.631.472-.168.701-.688.726-1.158.051-.61.031-1.321-.439-1.774-.291-.304-.767-.315-1.145-.203z"/>
    <path fill="#7a7878" d="M15.287 12.847c.727-.073 1.464-.057 2.193-.009.017.166.012.334-.023.498-.474.051-.961-.046-1.426.061-.194.171-.224.645.084.725.25.043.507-.003.757.042.183.143.11.4.121.6-.36.068-.731.021-1.088.108-.001.207-.004.414-.007.621.501.235 1.067.018 1.586.145.237.146.173.511-.096.567-.527.039-1.056-.002-1.584.017-.159-.015-.354.029-.482-.089-.124-.302-.061-.639-.074-.957.021-.776-.041-1.555.038-2.328zm.085.082a29.3 29.3 0 0 0-.006 3.08c.707.074 1.45.136 2.145-.023-.239-.482-.919-.128-1.348-.244-.491-.008-.504-.588-.391-.939.376-.116.773-.043 1.155-.122.095-.5-.491-.306-.784-.374-.558-.015-.599-1.094-.001-1.045.421-.015.844.022 1.265-.034-.005-.102-.011-.203-.015-.305a11.825 11.825 0 0 0-2.018.006z"/>
    <path fill="#272525" d="M4.406 12.933c.378-.112.853-.101 1.145.203.47.453.49 1.165.439 1.774-.025.47-.254.99-.726 1.158-.533.316-1.324-.039-1.483-.631-.367-.83-.23-2.029.625-2.504zm.195.337c-.451.249-.602.83-.653 1.306.095.509.259 1.243.909 1.245.621-.108.842-.827.759-1.381.086-.576-.325-1.405-1.015-1.171z"/>
    <path fill="#5a5858" d="M8.829 12.905c.195-.041.394-.051.592-.035.034 1.065.018 2.132.009 3.198-.191.101-.403.103-.574-.037.134-.027.268-.052.402-.077.056-.726.005-1.454.031-2.181a1.714 1.714 0 0 0-.162-.876c-.244.613.025 1.291-.181 1.903-.222.084-.436-.033-.48-.264l.35.017c.021-.548.005-1.098.014-1.647z"/>
    <path fill="#292627" d="M12.299 12.874c.633.052 1.366-.186 1.903.257.529.348.359 1.19-.13 1.506.021.443.305.8.427 1.209.088.257-.226.254-.392.254-.233-.414-.383-.865-.577-1.297-.262.022-.635-.131-.816.099-.033.391.003.785-.019 1.177l-.396.001c-.016-1.068-.016-2.137.001-3.205zm.521.397c-.251.201-.183.713-.04.984.383.172.939.135 1.243-.193.217-.317-.068-.767-.423-.805a3.283 3.283 0 0 0-.78.014z"/>
    <path fill="#2d2a2b" d="M15.372 12.929c.67-.064 1.348-.057 2.018-.006l.015.305c-.42.056-.844.019-1.265.034-.598-.049-.556 1.03.001 1.045.293.069.879-.126.784.374-.382.078-.78.005-1.155.122-.113.351-.1.931.391.939.43.116 1.109-.238 1.348.244-.695.159-1.438.098-2.145.023a29.3 29.3 0 0 1 .006-3.08z"/>
    <path fill="#737071" d="M4.601 13.27c.69-.235 1.101.595 1.015 1.171.083.554-.138 1.274-.759 1.381-.65-.003-.814-.737-.909-1.245.051-.476.202-1.058.653-1.306zm.084.076c-.374.142-.461.563-.561.904-.147.441.126.862.228 1.281.266.098.6.213.843.001.424-.389.37-1.03.29-1.545-.119-.324-.394-.758-.8-.64z"/>
    <path fill="#6c6a6a" d="M12.82 13.271c.257-.039.521-.037.78-.014.355.038.64.488.423.805-.304.328-.86.365-1.243.193-.143-.271-.211-.784.04-.984zm-.019.095c-.027.245-.13.54.045.753.36.154.788.07 1.118-.124-.003-.119-.003-.237-.005-.356-.255-.401-.754-.327-1.157-.273z"/>
    <path fill="#625f60" d="M18.836 13.269c.268-.048.552-.064.817.009.453.194.552.731.652 1.16.007.386-.162.759-.325 1.102-.3.217-.717.355-1.078.222-.239-.09-.215-.377-.221-.585.011-.535-.009-1.072.009-1.607.012-.109.001-.281.146-.3zm.203.064c-.287-.021-.267.302-.269.503.007.491-.004.982.003 1.473-.006.129.04.297.198.3.316.027.729.086.955-.191.217-.457.29-.987.126-1.473-.037-.485-.586-.708-1.013-.611z"/>
    <path fill="#b7b6b6" d="M4.685 13.346c.406-.118.681.316.8.64.08.515.134 1.156-.29 1.545-.243.213-.577.097-.843-.001-.102-.418-.375-.84-.228-1.281.1-.341.187-.762.561-.904zm-.305.432a2.76 2.76 0 0 0 .033 1.639c.213.132.487.056.725.065.399-.547.471-1.398-.037-1.9-.215-.249-.627-.08-.721.196z"/>
    <path fill="#aaa8a9" d="M12.801 13.366c.403-.053.903-.128 1.157.273a2.163 2.163 0 0 0-1.078-.171c-.011.18-.026.36-.044.54.376.011.752.002 1.128-.013-.33.194-.758.277-1.118.124-.175-.213-.072-.508-.045-.753z"/>
    <path fill="#a7a5a5" d="M19.039 13.333c.427-.097.975.126 1.013.611.164.486.091 1.016-.126 1.473-.227.277-.639.219-.955.191-.158-.002-.204-.17-.198-.3-.007-.491.005-.981-.003-1.473.003-.201-.017-.524.269-.503zm-.158.31c-.061.602-.011 1.213-.021 1.819.275.097.566.085.848.029.365-.413.287-1.013.231-1.518-.036-.122-.007-.322-.168-.353-.231-.221-.749-.359-.889.023z"/>
    <path fill="#fcfcfc" d="M12.88 13.468c.369-.027.74.015 1.078.171l.005.356c-.376.015-.752.023-1.128.013.018-.179.033-.359.044-.54z"/>
    <path fill="#dcdadb" d="M18.881 13.643c.14-.382.658-.245.889-.023-.231-.021-.464-.027-.696-.035-.078.616-.032 1.237-.034 1.856.223.013.445.029.668.05-.282.056-.573.068-.848-.029.009-.606-.04-1.217.021-1.819z"/>
    <path fill="#f28981" d="M11.114 17.112c.558-.193 1.175-.078 1.756-.088.858.212 1.647.767 2.07 1.556.235.56.463 1.205.193 1.796-.271 1.042-1.209 1.869-2.262 2.053a1.82 1.82 0 0 1-1.459-.009c-1.476-.221-2.695-1.818-2.252-3.303.217-.97 1.056-1.669 1.953-2.005zm.706.032c-1.019.134-2.028.748-2.401 1.741a2.512 2.512 0 0 0 .657 2.689c.83.765 2.057.889 3.111.608 1.081-.361 1.952-1.418 1.83-2.596-.064-1.56-1.733-2.619-3.197-2.443z"/>
    <path fill="#eb413b" d="M11.82 17.144c1.463-.176 3.133.882 3.197 2.443.122 1.178-.749 2.235-1.83 2.596-1.054.281-2.28.157-3.111-.608a2.512 2.512 0 0 1-.657-2.689c.373-.993 1.383-1.606 2.401-1.741z"/>
    <path fill="#bebdbe" d="M2.086 23.472a.299.299 0 0 1 .253.004l.001.041a.438.438 0 0 1-.251-.005l-.003-.04z"/>
    <path fill="#322e30" opacity=".93" d="M1.622 23.648c.527.39 1.206.273 1.817.281 6.251.015 12.502-.006 18.753.024l-.053.047H1.941a2.522 2.522 0 0 1-.318-.352z"/>
</svg>
