<!-- Generated by IcoMoon.io -->
<svg version="1.1" xmlns="http://www.w3.org/2000/svg" width="29" height="24" viewBox="0 0 29 24">
<title>regulatory--dual-lanes-go-left-or-right--g1</title>
<path fill="#2d2d2c" d="M0.148 1.363c-0.046-0.629 0.418-1.305 1.084-1.311 1.346-0.042 2.689 0.074 4.034 0.108 3.73 0.131 7.461 0.236 11.191 0.338 0.329 0.044 0.661 0.053 0.994 0.036 1.582 0.014 3.163 0.077 4.745 0.098 0.263 0.036 0.527 0.048 0.792 0.041 0.717 0.018 1.435-0.002 2.152 0.025 0.398 0.042 0.798 0.051 1.198 0.034 0.461 0.008 0.989 0.028 1.332 0.382 0.364 0.302 0.455 0.801 0.461 1.249-0.096 2.1 0.157 4.204 0.18 6.308-0.103 0.137-0.241 0.261-0.278 0.434-0.029 0.924 0.272 1.852 0.049 2.766-0.051-0.038-0.101-0.076-0.151-0.113-0.114-3.008-0.254-6.014-0.349-9.023-0.024-0.446 0.081-1.025-0.368-1.298-0.288-0.173-0.636-0.125-0.957-0.15-3.482-0.046-6.962-0.155-10.444-0.219l-0.053-0.004c-4.775-0.148-9.551-0.285-14.325-0.479-0.399-0.036-0.768 0.341-0.724 0.738 0.096 4.315 0.145 8.631 0.274 12.944 0.009 0.964-0.009 1.931 0.060 2.893 0.023 1.545 0.012 3.095 0.116 4.635 0.053 0.294 0.33 0.523 0.617 0.573 1.938 0.093 3.88 0.12 5.818 0.211 0.042 0.001 0.129 0.003 0.171 0.004 1.031 0.020 2.062 0.079 3.093 0.089 0.098 0.047 0.195 0.098 0.291 0.15-1.142 0.106-2.283-0.049-3.425-0.049-0.145-0.016-0.278 0.042-0.39 0.129 0.691 0.279 1.457-0.008 2.173 0.137 0.299 0.067 0.623-0.038 0.904 0.111-0.528 0.072-1.061 0.003-1.59 0.035-1.245-0.003-2.49-0.072-3.735-0.098-0.263-0.038-0.528-0.048-0.793-0.038-0.838-0.003-1.678-0.049-2.512-0.125-0.518-0.006-0.965-0.392-1.146-0.86-0.084-0.671-0.098-1.35-0.101-2.027 0.011-0.352 0.016-0.706-0.037-1.056-0.024-1.743-0.083-3.487-0.101-5.231 0.016-0.332 0.008-0.665-0.038-0.994-0.025-1.797-0.085-3.595-0.103-5.392 0.012-0.459 0.021-0.919-0.027-1.376-0.029-1.542-0.067-3.086-0.080-4.628z"></path>
<path fill="#2e2e2e" opacity="0.42" d="M16.457 0.498c0.331-0.036 0.665-0.019 0.994 0.036-0.332 0.017-0.665 0.008-0.994-0.036z"></path>
<path fill="#dcdbdb" d="M0.709 1.326c-0.044-0.397 0.325-0.775 0.724-0.738 4.774 0.194 9.55 0.332 14.325 0.479 0.005 0.067 0.009 0.134 0.014 0.201 0.049 0.042 0.098 0.084 0.146 0.126-0.425-0.152-0.867-0.257-1.309-0.114-0.602-0.206-1.235-0.062-1.85-0.145-1.849-0.074-3.698-0.088-5.546-0.172-1.129-0.043-2.259-0.061-3.386-0.138-0.792 0.049-1.585-0.015-2.375-0.057-0.243-0.005-0.54 0.119-0.544 0.402-0.020 0.575-0.022 1.154 0.055 1.726 0.009 1.132-0.008 2.262 0.034 3.394-0.035 0.624 0.093 1.249 0.003 1.871 0.006 0.653 0.159 1.303 0.075 1.958 0 1.153 0.051 2.3 0.065 3.451 0.128 0.336-0.126 0.744 0.142 1.026-0.2 0.357-0.142 0.792-0.042 1.171-0.043 0.060-0.086 0.12-0.129 0.181-0.014-0.561 0.004-1.126-0.13-1.676-0.129-4.313-0.178-8.629-0.274-12.944z"></path>
<path fill="#dcdbdb" d="M20.327 4.663c0.072-0.053 0.113-0.168 0.215-0.163 0.574-0.010 1.148-0.007 1.719 0.059 1.058 0.028 2.118 0.021 3.177 0.042 0.132-0.003 0.256 0.045 0.375 0.096-0.198 0.034-0.398 0.057-0.599 0.057-1.629-0.013-3.257-0.077-4.888-0.092z"></path>
<path fill="#323232" opacity="0.47" d="M22.195 0.633c0.264-0.032 0.532-0.016 0.792 0.041-0.265 0.007-0.529-0.005-0.792-0.041z"></path>
<path fill="#363636" opacity="0.61" d="M25.138 0.699c0.399-0.031 0.801-0.021 1.198 0.034-0.4 0.016-0.8 0.008-1.198-0.034z"></path>
<path fill="#c4c4c3" d="M0.909 1.169c0.003-0.283 0.3-0.407 0.544-0.402 0.79 0.042 1.582 0.107 2.375 0.057 1.127 0.077 2.257 0.095 3.386 0.138 0.061 0.187 0.174 0.349 0.325 0.473 0.176-0.103 0.374-0.131 0.555-0.016-0.162 0.111-0.321 0.228-0.479 0.345 0.202 0.206 0.315 0.475 0.33 0.763 0.13-0.325 0.472-0.429 0.754-0.583 0.055 0.014 0.11 0.029 0.165 0.042-0.064 0.057-0.128 0.114-0.191 0.17 0.082 0.13 0.157 0.265 0.261 0.38-0.088 0.053-0.176 0.107-0.263 0.161 0.17 0.034 0.343 0.030 0.514 0.025 0.037-0.085 0.073-0.169 0.111-0.253 0.023 0.197 0.124 0.451-0.061 0.602-0.175 0.042-0.362 0.041-0.52 0.136 0.2 0.149 0.389 0.314 0.54 0.514 0.127-0.129 0.255-0.256 0.382-0.385-0.094-0.049-0.187-0.099-0.281-0.148 0.261-0.445-0.161-0.951 0.064-1.427 0.032-0.014 0.096-0.041 0.128-0.055 0.008 0.304-0.1 0.626 0.045 0.911 0.018-0.211-0.071-0.548 0.228-0.583-0.029 0.238-0.053 0.477-0.066 0.716 0.062-0.015 0.124-0.030 0.185-0.045 0.007 0.086 0.023 0.172 0.030 0.258 0.042 0.036 0.085 0.073 0.126 0.111-0.005-0.284 0.237-0.456 0.44-0.611 0.123 0.094 0.247 0.188 0.371 0.281 0.062-0.111 0.067-0.234 0.038-0.356-0.296-0.049-0.729-0.044-0.765-0.432-0.139-0.010-0.278-0.018-0.416-0.026-0.106-0.129-0.165-0.333-0.334-0.388-0.172 0.062-0.329 0.158-0.496 0.23 0.046-0.2 0.181-0.356 0.351-0.464 0.111 0.083 0.226 0.113 0.342 0.021 0.247 0.356 0.749 0.383 0.881 0.846 0.217-0.102 0.263-0.343 0.312-0.553 0.325 0.039 0.377 0.435 0.626 0.599 0.119-0.087 0.228-0.216 0.389-0.195-0.085 0.132-0.178 0.258-0.271 0.385 0.083 0.008 0.165 0.018 0.249 0.027-0.098 0.152-0.167 0.319-0.225 0.489 0.042 0.047 0.084 0.095 0.126 0.142 0.092-0.261 0.219-0.517 0.219-0.8 0.375-0.095 0.639-0.379 0.893-0.651 0.004 0.146-0.025 0.286-0.072 0.423 0.075 0.133 0.137 0.274 0.194 0.416-0.254-0.152-0.55-0.388-0.784-0.072 0.122 0.253 0.334 0.44 0.544 0.619-0.079 0.142-0.159 0.285-0.238 0.428 0.053 0.022 0.107 0.044 0.161 0.067 0.075-0.13 0.15-0.26 0.226-0.39 0.132 0.132 0.266 0.263 0.405 0.387-0.017 0.027-0.051 0.081-0.068 0.108-0.118-0.051-0.236-0.103-0.353-0.158 0.119 0.129 0.162 0.289 0.098 0.455 0.142 0.027 0.281 0.068 0.42 0.109-0.089 0.080-0.178 0.16-0.269 0.239 0.269 0.448-0.226 0.704-0.574 0.846-0.062-0.13-0.125-0.26-0.19-0.388-0.178 0.087-0.267 0.251-0.294 0.44-0.15-0.047-0.31-0.089-0.441 0.025 0.483 0.176 0.754 0.672 0.952 1.115 0.029-0.091 0.059-0.182 0.089-0.272 0.215 0.304-0.109 0.485-0.376 0.545-0.119-0.189-0.183-0.404-0.214-0.624-0.083 0.145-0.196 0.28-0.239 0.444 0.187 0.389 0.11 0.897 0.521 1.157-0.014-0.185 0.004-0.37 0.014-0.554-0.118-0.092-0.282-0.148-0.317-0.31 0.149-0.014 0.299-0.023 0.449-0.031 0.246 0.315 0.685 0.429 0.84 0.833-0.115 0.062-0.229 0.122-0.344 0.183 0.129 0.353 0.022 0.717-0.062 1.065 0.211 0.038 0.431 0.036 0.602-0.114 0.042 0.111 0.042 0.228 0.023 0.345 0.043 0.058 0.087 0.116 0.131 0.174-0.014 0.019-0.044 0.058-0.059 0.078-0.322-0.105-0.681-0.505-0.995-0.174 0.025 0.115 0.046 0.23 0.068 0.345 0.044-0.1 0.090-0.198 0.136-0.297 0.067 0.099 0.135 0.198 0.208 0.293 0-0.090 0.001-0.178 0.002-0.267 0.214 0.114 0.459 0.209 0.602 0.416 0.159 0.222-0.053 0.514 0.137 0.727 0.058-0.034 0.116-0.068 0.175-0.103-0.027-0.081-0.053-0.163-0.079-0.245 0.191 0.062 0.379 0.136 0.561 0.22-0.092 0.123-0.184 0.246-0.276 0.369 0.237 0.212 0.535 0.024 0.65-0.219-0.064 0.36-0.121 0.755-0.364 1.043-0.344 0.169-0.745 0.027-1.104 0.142 0.116 0.126 0.228 0.256 0.332 0.393 0.057-0.078 0.117-0.153 0.174-0.23 0.098 0.186 0.222 0.356 0.357 0.517 0.013-0.004 0.039-0.012 0.052-0.016-0.081-0.23 0.1-0.404 0.235-0.564 0.115-0.007 0.23-0.015 0.345-0.023 0.057-0.053 0.114-0.105 0.171-0.157 0.072 0.302 0.263 0.592 0.616 0.486 0.003 0.183 0.029 0.364 0.084 0.539-0.124 0.059-0.249 0.118-0.373 0.178 0.111 0.137 0.345 0.252 0.27 0.463-0.051 0.17 0.157 0.219 0.267 0.286 0.152-0.183 0.301-0.37 0.442-0.562 0.225 0.3 0.040 0.576-0.301 0.631-0.004 0.142-0.010 0.283-0.017 0.425-0.193-0.034-0.227-0.218-0.254-0.382-0.029-0.014-0.086-0.041-0.115-0.055-0.156 0.241-0.309 0.494-0.573 0.628-0.122 0.196-0.234 0.575 0.063 0.663 0.080-0.111 0.169-0.229 0.312-0.258 0.029 0.116 0.062 0.23 0.091 0.346 0.055-0.011 0.111-0.022 0.167-0.033-0.109-0.269 0.127-0.359 0.344-0.255 0.057-0.116 0.062-0.232 0.040-0.362-0.265-0.074-0.545-0.055-0.722 0.181-0.023-0.197 0.067-0.366 0.189-0.513 0.268 0.112 0.55 0.189 0.836 0.242-0.094 0.419-0.442 0.695-0.586 1.090-0.219-0.008-0.416-0.103-0.615-0.183 0.088 0.173 0.22 0.316 0.371 0.436 0.051-0.063 0.102-0.127 0.153-0.19-0.059 0.276 0.117 0.569 0.392 0.332 0.089 0.010 0.182 0.051 0.271 0.021-0.136-0.287-0.208-0.596-0.162-0.913 0.189 0.084 0.275 0.258 0.279 0.458 0.158-0.057 0.327-0.090 0.49-0.026-0.009-0.2-0.003-0.399 0.010-0.598-0.057 0.064-0.114 0.127-0.171 0.19-0.075-0.14-0.183-0.261-0.247-0.408 0.080-0.133 0.187-0.244 0.31-0.338 0.009 0.138 0.018 0.276 0.029 0.414 0.133-0.296 0.045-0.609-0.049-0.899 0.060-0.26 0.213-0.498 0.224-0.772 0.008 1.095 0.090 2.187 0.081 3.281 0.778 0.064 1.56 0.072 2.341 0.067-0.010-0.899-0.076-1.795-0.088-2.694 0.191 0.072 0.325 0.225 0.443 0.385 0.183-0.226 0.405-0.464 0.39-0.777-0.098 0.144-0.197 0.287-0.296 0.43-0.106-0.11-0.192-0.235-0.241-0.379 0.173-0.090 0.341-0.186 0.511-0.282 0.012-0.165 0.011-0.341 0.119-0.478 0.081 0.125 0.121 0.267 0.143 0.413 0.022 0.010 0.066 0.029 0.088 0.038 0.036-0.206 0.058-0.416 0.075-0.625-0.233-0.038-0.443 0.092-0.66 0.154-0.005-0.197 0.133-0.339 0.254-0.476-0.055-0.163-0.094-0.332-0.079-0.504-0.057-0.016-0.114-0.034-0.17-0.050 0.083-0.172 0.206-0.394 0.424-0.25 0.031-0.044 0.042-0.1 0.069-0.146 0.237 0.016 0.398 0.178 0.51 0.374 0.184 0.003 0.369-0.010 0.549-0.046-0.043-0.153-0.103-0.3-0.18-0.44-0.049 0.103-0.097 0.206-0.144 0.311-0.284-0.071-0.473-0.343-0.427-0.637-0.083-0.008-0.168-0.016-0.25-0.025 0.121-0.071 0.257-0.108 0.399-0.101 0.010-0.11 0.024-0.219 0.034-0.329 0.146 0.146 0.323 0.257 0.536 0.256-0.066 0.081-0.131 0.163-0.195 0.245 0.094 0.112 0.198 0.212 0.342 0.254 0.031-0.116 0.064-0.231 0.094-0.347 0.377 0.106 0.749 0.38 1.153 0.266 0.105 0.198 0.204 0.398 0.308 0.596-0.163 0.159-0.323 0.351-0.239 0.594 0.091-0.133 0.178-0.269 0.265-0.406 0.187 0.138 0.383 0.262 0.583 0.382 0.061-0.072 0.129-0.139 0.189-0.211 0.080 0.008 0.159 0.016 0.239 0.024-0.050-0.089-0.099-0.178-0.148-0.268-0.142 0.070-0.284 0.139-0.421 0.218-0.031-0.009-0.093-0.027-0.124-0.036 0.083-0.139 0.186-0.264 0.299-0.379 0.339 0.181 0.78-0.302 1.019 0.162-0.047 0.050-0.092 0.101-0.138 0.151-0.090-0.070-0.181-0.139-0.271-0.209 0.077 0.295 0.241 0.552 0.389 0.815-0.047 0.125-0.191 0.157-0.293 0.222 0.003-0.141-0.007-0.282 0.019-0.421-0.427 0.115-0.39 0.661-0.015 0.814 0.111-0.126 0.222-0.252 0.325-0.386 0.145 0.151 0.265 0.372 0.496 0.39 0.153 0.028 0.358 0.051 0.379 0.246-0.048 0.254-0.091 0.511-0.036 0.768-0.328 0.116-0.513 0.405-0.65 0.706 0.274-0.004 0.442 0.2 0.343 0.466 0.137 0.012 0.28 0.014 0.405 0.079 0.029 0.142-0.031 0.283-0.053 0.422 0.159-0.080 0.318-0.162 0.464-0.266 0.006 0.023 0.018 0.069 0.023 0.092-0.055 0.078-0.105 0.159-0.159 0.238 0.233 0.031 0.472 0.068 0.707 0.026 0.133-0.123 0.090-0.323 0.098-0.485 0.044-0.038 0.088-0.077 0.133-0.114 0.048 0.178 0.096 0.358 0.134 0.539 0.235 0.098 0.481 0.166 0.73 0.217-0.040-0.095-0.079-0.19-0.119-0.284 0.033-0.040 0.066-0.081 0.1-0.122-0.14-0.184-0.016-0.392 0.064-0.571 0.021 0.229 0.031 0.466 0.144 0.672 0.086 2.423 0.235 4.853 0.282 7.286 0.027 0.41-0.414 0.678-0.786 0.643-4.206-0.096-8.411-0.216-12.615-0.338-0.017-0.094-0.036-0.189-0.048-0.283 0.006-0.539 0.187-1.1-0.065-1.612-0.048-2.515-0.163-5.026-0.222-7.539-0.206-0.013-0.413-0.021-0.619-0.022 0.139 2.342 0.141 4.69 0.255 7.033 0.005 0.373 0.072 0.784-0.189 1.092 0.311 0.369 0.181 0.879 0.272 1.318-0.61-0.050-1.223-0.014-1.833-0.059 0.466-0.078 0.939-0.010 1.406-0.061-0.373-0.2-0.797-0.026-1.194-0.070-1.326-0.145-2.663-0.060-3.992-0.149-0.323-0.074-0.66-0.034-0.946 0.137-0.042-0.001-0.129-0.003-0.171-0.004 0.035-0.051 0.070-0.101 0.106-0.152-0.537-0.035-1.074-0.064-1.612-0.046-0.599 0.016-1.199-0.152-1.796-0.043-0.273 0.034-0.534-0.097-0.808-0.091-0.59-0.046-1.203 0.111-1.775-0.083-0.353-0.204-0.442-0.616-0.393-0.994-0.050 0.209-0.111 0.414-0.159 0.624-0.104-1.54-0.093-3.089-0.116-4.635-0.069-0.962-0.051-1.929-0.060-2.893 0.134 0.55 0.116 1.115 0.13 1.676 0.042-0.061 0.085-0.121 0.129-0.181-0.1-0.379-0.158-0.814 0.042-1.171-0.267-0.282-0.014-0.689-0.142-1.026-0.014-1.151-0.065-2.298-0.065-3.451 0.085-0.654-0.068-1.305-0.075-1.958 0.090-0.622-0.038-1.247-0.003-1.871-0.042-1.132-0.025-2.262-0.034-3.394-0.077-0.572-0.075-1.151-0.055-1.726M2.761 4.347c0.821 1.475 1.553 2.998 2.361 4.48 0.144 0.304 0.634 0.317 0.777 0.005 0.162-0.347 0.192-0.74 0.295-1.107 0.568 0.281 1.078 0.673 1.621 1 0.957 0.563 1.584 1.646 1.558 2.762 0.024 1.409 0.103 2.816 0.094 4.226 0.773 0.045 1.548 0.057 2.322 0.077-0.083-1.661-0.079-3.326-0.167-4.986-0.185-0.977-0.566-1.93-1.198-2.704-0.693-0.839-1.653-1.379-2.557-1.955-0.167-0.113-0.379-0.184-0.485-0.365 0.284-0.254 0.605-0.47 0.86-0.753 0.22-0.304-0.097-0.731-0.442-0.716-1.667-0.062-3.334-0.111-5-0.178-0.142-0.024-0.095 0.149-0.040 0.213M3.303 17.807c-0.533 0.098-0.745 0.671-0.818 1.143-0.006 0.624-0.068 1.317 0.29 1.866 0.37 0.57 1.305 0.655 1.73 0.105 0.382-0.588 0.271-1.331 0.214-1.99-0.055-0.684-0.706-1.312-1.415-1.123M5.169 17.963c0.080 1.1 0.049 2.206 0.118 3.306 0.16 0.038 0.324 0.035 0.487 0.031 0.017-0.742-0.043-1.481-0.078-2.222 0.034 0.011 0.102 0.032 0.136 0.042 0.375 0.732 0.819 1.427 1.214 2.148 0.114 0.114 0.301 0.070 0.446 0.089 0.029-1.118-0.029-2.235-0.062-3.352-0.159-0.047-0.325-0.053-0.489-0.047-0.014 0.697 0.059 1.393 0.066 2.091-0.187-0.062-0.221-0.274-0.315-0.422-0.342-0.555-0.63-1.139-0.975-1.692-0.184-0.033-0.377-0.063-0.55 0.027M7.952 18c0.025 1.12 0.083 2.239 0.101 3.36 0.682 0.034 1.365 0.022 2.046 0.084-0.002-0.15-0.001-0.3 0-0.449-0.518-0.131-1.075 0.045-1.581-0.13 0.001-0.95-0.001-1.908-0.070-2.851-0.165-0.010-0.33-0.016-0.495-0.014M9.357 18.038c0.398 0.677 0.851 1.323 1.251 1.999 0.028 0.464 0.001 0.93 0.026 1.395 0.183 0.030 0.368 0.033 0.552 0.027-0.113-0.486-0.068-0.996-0.063-1.491 0.351-0.608 0.721-1.21 1.059-1.823-0.22-0.003-0.575-0.151-0.676 0.132-0.176 0.343-0.411 0.653-0.576 1.003-0.035 0.105-0.198 0.061-0.226-0.026-0.213-0.416-0.505-0.786-0.749-1.184-0.199-0.025-0.399-0.042-0.6-0.031M17.806 18.219c-0.657 0.007-1.007 0.686-1.028 1.265 0.002 0.503-0.027 1.033 0.181 1.505 0.204 0.608 1.009 0.936 1.575 0.623 0.345-0.157 0.501-0.541 0.565-0.891 0.036-0.518 0.077-1.054-0.094-1.554-0.088-0.56-0.63-1.001-1.199-0.948M19.543 18.331c0.061 1.097 0.036 2.204 0.126 3.3 0.101 0.162 0.358 0.082 0.52 0.064-0.102-0.721 0.003-1.456-0.118-2.176l0.107-0.003c0.465 0.737 0.861 1.519 1.37 2.229 0.144 0.009 0.286 0.025 0.429 0.037-0.057-1.122-0.079-2.247-0.117-3.37-0.172-0.023-0.345-0.043-0.518-0.059 0.041 0.699-0.028 1.407 0.107 2.1-0.252-0.081-0.315-0.372-0.44-0.574-0.307-0.512-0.624-1.019-0.93-1.532-0.179-0.006-0.358-0.012-0.537-0.016M22.377 18.405c0.047 1.090 0.103 2.181 0.099 3.272 0.057 0.145 0.235 0.105 0.358 0.12 0.591 0.002 1.181 0.038 1.772 0.037-0.007-0.155-0.018-0.309-0.031-0.463-0.522-0.039-1.052 0.018-1.569-0.072-0.036-0.9-0.075-1.8-0.080-2.702-0.010-0.28-0.366-0.168-0.548-0.193M23.861 18.42c0.148 0.439 0.511 0.768 0.718 1.181 0.185 0.369 0.6 0.666 0.544 1.117-0.005 0.36 0.026 0.719 0.008 1.080 0.177 0.082 0.377 0.053 0.567 0.064-0.038-0.471-0.014-0.946-0.075-1.415 0.337-0.652 0.745-1.27 1.113-1.906-0.195-0.036-0.392-0.050-0.591-0.053-0.245 0.419-0.518 0.824-0.734 1.26-0.479-0.242-0.587-0.944-1.005-1.284-0.181-0.029-0.364-0.031-0.546-0.042z"></path>
<path fill="#bfbfbf" d="M7.214 0.962c1.848 0.084 3.697 0.098 5.546 0.172 0.615 0.083 1.248-0.061 1.85 0.145 0.442-0.143 0.884-0.038 1.309 0.114-0.049-0.042-0.098-0.084-0.146-0.126-0.005-0.067-0.009-0.134-0.014-0.201l0.053 0.004c0.202 0.236 0.533 0.1 0.802 0.133 1.798 0.111 3.601 0.129 5.397 0.161 0.444 0.124 0.894-0.057 1.339 0.054 0.967 0.034 1.937-0.048 2.903 0.045 0.32-0.072 0.658 0.124 0.959-0.024 0.449 0.273 0.344 0.852 0.368 1.298 0.096 3.009 0.236 6.015 0.349 9.023 0.029 1.149 0.116 2.298 0.131 3.449-0.114-0.206-0.124-0.443-0.144-0.672-0.081 0.178-0.204 0.387-0.064 0.571-0.034 0.040-0.067 0.081-0.1 0.122 0.040 0.094 0.079 0.189 0.119 0.284-0.249-0.051-0.494-0.118-0.73-0.217-0.038-0.182-0.086-0.361-0.134-0.539-0.044 0.038-0.088 0.076-0.133 0.114-0.009 0.161 0.034 0.362-0.098 0.485-0.235 0.042-0.474 0.005-0.707-0.026 0.054-0.079 0.104-0.16 0.159-0.238-0.005-0.023-0.017-0.069-0.023-0.092-0.146 0.104-0.304 0.186-0.464 0.266 0.023-0.139 0.082-0.28 0.053-0.422-0.124-0.064-0.268-0.066-0.405-0.079 0.099-0.267-0.068-0.47-0.343-0.466 0.137-0.3 0.323-0.589 0.65-0.706-0.055-0.257-0.012-0.514 0.036-0.768-0.021-0.195-0.226-0.218-0.379-0.246-0.231-0.018-0.351-0.239-0.496-0.39-0.103 0.133-0.215 0.259-0.325 0.386-0.375-0.153-0.412-0.699 0.015-0.814-0.026 0.139-0.016 0.28-0.019 0.421 0.102-0.066 0.245-0.097 0.293-0.222-0.148-0.263-0.312-0.52-0.389-0.815 0.090 0.069 0.181 0.138 0.271 0.209 0.046-0.051 0.092-0.101 0.138-0.151-0.239-0.464-0.68 0.018-1.019-0.162-0.113 0.116-0.216 0.241-0.299 0.379 0.031 0.009 0.093 0.027 0.124 0.036 0.137-0.079 0.28-0.148 0.421-0.218 0.049 0.090 0.098 0.179 0.148 0.268-0.080-0.008-0.159-0.016-0.239-0.024-0.061 0.072-0.129 0.138-0.189 0.211-0.2-0.12-0.396-0.243-0.583-0.382-0.086 0.137-0.174 0.273-0.265 0.406-0.084-0.243 0.076-0.436 0.239-0.594-0.103-0.198-0.202-0.399-0.308-0.596-0.404 0.114-0.775-0.16-1.153-0.266-0.030 0.116-0.063 0.231-0.094 0.347-0.144-0.042-0.248-0.142-0.342-0.254 0.064-0.082 0.129-0.164 0.195-0.245-0.213 0.001-0.39-0.109-0.536-0.256-0.010 0.109-0.023 0.219-0.034 0.329-0.142-0.008-0.278 0.029-0.399 0.101 0.083 0.009 0.167 0.016 0.25 0.025-0.047 0.294 0.142 0.565 0.427 0.637 0.047-0.105 0.094-0.208 0.144-0.311 0.077 0.139 0.137 0.287 0.18 0.44-0.181 0.036-0.365 0.049-0.549 0.046-0.112-0.196-0.274-0.358-0.51-0.374-0.027 0.046-0.038 0.102-0.069 0.146-0.217-0.144-0.341 0.078-0.424 0.25 0.057 0.016 0.114 0.034 0.17 0.050-0.015 0.172 0.025 0.341 0.079 0.504-0.121 0.137-0.259 0.279-0.254 0.476 0.217-0.062 0.427-0.191 0.66-0.154-0.017 0.209-0.039 0.418-0.075 0.625-0.022-0.010-0.066-0.029-0.088-0.038-0.022-0.146-0.062-0.288-0.143-0.413-0.108 0.137-0.107 0.313-0.119 0.478-0.17 0.096-0.338 0.192-0.511 0.282 0.049 0.145 0.135 0.269 0.241 0.379 0.099-0.144 0.198-0.287 0.296-0.43 0.015 0.312-0.207 0.55-0.39 0.777-0.118-0.16-0.252-0.312-0.443-0.385-0.025-0.466 0.010-0.933-0.058-1.396-0.103-0.935 0.263-1.92 1-2.513 0.633-0.454 1.324-0.819 1.99-1.221 0.239 0.375 0.239 0.864 0.488 1.236 0.146 0.176 0.378 0.144 0.579 0.13 0.364-0.395 0.488-0.937 0.759-1.391 0.537-1.128 1.14-2.224 1.657-3.361-0.194-0.010-0.389-0.020-0.583-0.023 0.201 0 0.401-0.023 0.599-0.057-0.12-0.051-0.243-0.1-0.375-0.096-1.059-0.022-2.119-0.014-3.177-0.042-0.571-0.066-1.145-0.070-1.719-0.059-0.102-0.005-0.143 0.109-0.215 0.163-0.224 0.139-0.375 0.364-0.252 0.632 0.266 0.36 0.658 0.6 0.991 0.892-0.981 0.637-2.087 1.125-2.898 1.99-1.068 1.21-1.31 2.907-1.119 4.461-0.010 0.274-0.163 0.512-0.224 0.772 0.094 0.29 0.182 0.603 0.049 0.899-0.011-0.138-0.020-0.276-0.029-0.414-0.123 0.094-0.23 0.205-0.31 0.338 0.064 0.147 0.172 0.268 0.247 0.408 0.057-0.063 0.114-0.126 0.171-0.19-0.013 0.199-0.018 0.398-0.010 0.598-0.163-0.064-0.332-0.031-0.49 0.026-0.004-0.2-0.090-0.374-0.279-0.458-0.046 0.317 0.026 0.627 0.162 0.913-0.089 0.029-0.182-0.012-0.271-0.021-0.275 0.237-0.451-0.057-0.392-0.332-0.051 0.063-0.102 0.127-0.153 0.19-0.151-0.12-0.283-0.263-0.371-0.436 0.198 0.081 0.396 0.176 0.615 0.183 0.144-0.395 0.492-0.671 0.586-1.090-0.286-0.053-0.568-0.13-0.836-0.242-0.122 0.146-0.212 0.316-0.189 0.513 0.177-0.236 0.457-0.254 0.722-0.181 0.021 0.129 0.017 0.245-0.040 0.362-0.217-0.104-0.453-0.014-0.344 0.255-0.055 0.011-0.111 0.022-0.167 0.033-0.029-0.116-0.062-0.23-0.091-0.346-0.144 0.029-0.232 0.147-0.312 0.258-0.297-0.088-0.185-0.466-0.063-0.663 0.264-0.135 0.417-0.387 0.573-0.628 0.029 0.014 0.086 0.041 0.115 0.055 0.027 0.163 0.061 0.347 0.254 0.382 0.007-0.142 0.013-0.284 0.017-0.425 0.341-0.055 0.526-0.331 0.301-0.631-0.141 0.192-0.29 0.379-0.442 0.562-0.11-0.066-0.319-0.116-0.267-0.286 0.075-0.211-0.159-0.325-0.27-0.463 0.124-0.060 0.248-0.12 0.373-0.178-0.055-0.175-0.081-0.356-0.084-0.539-0.354 0.106-0.544-0.185-0.616-0.486-0.057 0.052-0.114 0.104-0.171 0.157-0.115 0.008-0.23 0.016-0.345 0.023-0.135 0.16-0.316 0.334-0.235 0.564-0.013 0.004-0.039 0.012-0.052 0.016-0.135-0.161-0.258-0.331-0.357-0.517-0.057 0.077-0.118 0.152-0.174 0.23-0.104-0.137-0.215-0.267-0.332-0.393 0.359-0.115 0.76 0.027 1.104-0.142 0.243-0.289 0.3-0.683 0.364-1.043-0.115 0.243-0.412 0.431-0.65 0.219 0.092-0.122 0.185-0.245 0.276-0.369-0.183-0.084-0.37-0.159-0.561-0.22 0.025 0.081 0.052 0.163 0.079 0.245-0.059 0.035-0.117 0.069-0.175 0.103-0.19-0.213 0.022-0.505-0.137-0.727-0.142-0.208-0.388-0.302-0.602-0.416-0.001 0.089-0.002 0.178-0.002 0.267-0.072-0.096-0.141-0.194-0.208-0.293-0.046 0.099-0.092 0.198-0.136 0.297-0.021-0.116-0.043-0.23-0.068-0.345 0.314-0.331 0.673 0.069 0.995 0.174 0.015-0.020 0.044-0.059 0.059-0.078-0.044-0.058-0.088-0.116-0.131-0.174 0.018-0.116 0.019-0.233-0.023-0.345-0.171 0.15-0.391 0.152-0.602 0.114 0.084-0.348 0.191-0.712 0.062-1.065 0.115-0.061 0.229-0.122 0.344-0.183-0.155-0.404-0.594-0.518-0.84-0.833-0.15 0.008-0.3 0.017-0.449 0.031 0.034 0.162 0.199 0.218 0.317 0.31-0.010 0.184-0.028 0.369-0.014 0.554-0.411-0.26-0.334-0.768-0.521-1.157 0.044-0.164 0.156-0.299 0.239-0.444 0.031 0.22 0.095 0.435 0.214 0.624 0.267-0.060 0.591-0.241 0.376-0.545-0.030 0.090-0.060 0.181-0.089 0.272-0.198-0.443-0.468-0.939-0.952-1.115 0.131-0.114 0.291-0.072 0.441-0.025 0.027-0.189 0.116-0.354 0.294-0.44 0.065 0.129 0.129 0.258 0.19 0.388 0.349-0.142 0.843-0.399 0.574-0.846 0.090-0.079 0.18-0.159 0.269-0.239-0.139-0.042-0.278-0.083-0.42-0.109 0.064-0.166 0.021-0.326-0.098-0.455 0.117 0.055 0.235 0.107 0.353 0.158 0.017-0.027 0.051-0.081 0.068-0.108-0.139-0.124-0.274-0.255-0.405-0.387-0.075 0.131-0.15 0.261-0.226 0.39-0.054-0.023-0.108-0.045-0.161-0.067 0.079-0.143 0.159-0.286 0.238-0.428-0.211-0.178-0.422-0.366-0.544-0.619 0.234-0.316 0.53-0.081 0.784 0.072-0.057-0.142-0.119-0.282-0.193-0.416 0.048-0.137 0.077-0.278 0.072-0.423-0.254 0.272-0.518 0.556-0.893 0.651-0.001 0.283-0.128 0.539-0.219 0.8-0.042-0.047-0.084-0.095-0.126-0.142 0.058-0.17 0.127-0.337 0.225-0.489-0.083-0.008-0.166-0.018-0.249-0.027 0.093-0.126 0.186-0.253 0.271-0.385-0.161-0.021-0.27 0.108-0.389 0.195-0.249-0.164-0.302-0.56-0.626-0.599-0.049 0.211-0.095 0.451-0.312 0.553-0.131-0.463-0.634-0.49-0.881-0.846-0.116 0.092-0.23 0.062-0.342-0.021-0.17 0.109-0.304 0.264-0.351 0.464 0.168-0.072 0.325-0.168 0.496-0.23 0.169 0.055 0.228 0.259 0.334 0.388 0.138 0.008 0.277 0.016 0.416 0.026 0.036 0.388 0.469 0.383 0.765 0.432 0.029 0.122 0.024 0.245-0.038 0.356-0.124-0.093-0.248-0.187-0.371-0.281-0.202 0.155-0.444 0.327-0.44 0.611-0.042-0.038-0.084-0.075-0.126-0.111-0.007-0.087-0.023-0.172-0.030-0.258-0.062 0.015-0.124 0.030-0.185 0.045 0.013-0.239 0.038-0.478 0.066-0.716-0.299 0.035-0.21 0.373-0.228 0.583-0.145-0.286-0.038-0.608-0.045-0.911-0.032 0.014-0.096 0.041-0.128 0.055-0.226 0.476 0.196 0.982-0.064 1.427 0.094 0.049 0.187 0.098 0.281 0.148-0.127 0.129-0.255 0.256-0.382 0.385-0.151-0.2-0.341-0.364-0.54-0.514 0.159-0.095 0.345-0.094 0.52-0.136 0.185-0.151 0.084-0.405 0.061-0.602-0.038 0.084-0.075 0.168-0.111 0.253-0.172 0.005-0.345 0.009-0.514-0.025 0.088-0.054 0.175-0.108 0.263-0.161-0.104-0.115-0.178-0.25-0.261-0.38 0.064-0.056 0.127-0.113 0.191-0.17-0.055-0.014-0.111-0.028-0.165-0.042-0.282 0.153-0.624 0.257-0.754 0.583-0.015-0.289-0.127-0.557-0.33-0.763 0.158-0.116 0.317-0.233 0.479-0.345-0.181-0.114-0.378-0.086-0.555 0.016-0.151-0.124-0.264-0.286-0.325-0.473M13.687 1.83c-0.102 0.297-0.070 0.634 0.215 0.815 0.116-0.008 0.231-0.012 0.347-0.013 0.17-0.235 0.192-0.577-0.008-0.801-0.161-0.152-0.375-0.059-0.553-0.001z"></path>
<path fill="#e2e2e1" d="M15.811 1.071c3.482 0.064 6.962 0.173 10.444 0.219 0.321 0.025 0.669-0.023 0.957 0.15-0.301 0.148-0.639-0.048-0.959 0.024-0.966-0.093-1.936-0.011-2.903-0.045-0.444-0.111-0.894 0.070-1.339-0.054-1.796-0.033-3.599-0.050-5.397-0.161-0.269-0.033-0.6 0.103-0.802-0.133z"></path>
<path fill="#5f5f5e" d="M13.687 1.83c0.178-0.058 0.392-0.152 0.553 0.001 0.2 0.224 0.178 0.566 0.008 0.801-0.116 0.001-0.231 0.005-0.347 0.013-0.285-0.181-0.317-0.518-0.215-0.815z"></path>
<path fill="#5f5f5e" d="M28.309 8.673c-0.023-2.104-0.276-4.209-0.18-6.308 0.158 1.85 0.148 3.714 0.248 5.569-0.017 0.718 0.112 1.434 0.049 2.15-0.147-0.455-0.041-0.944-0.118-1.411z"></path>
<path fill="#5f5f5e" d="M0.228 5.992c0.049 0.457 0.039 0.918 0.027 1.376-0.008-0.453-0.021-0.918-0.027-1.376z"></path>
<path fill="#5f5f5e" d="M0.497 18.985c0.053 0.349 0.048 0.704 0.037 1.056-0.013-0.352-0.031-0.704-0.037-1.056z"></path>
<path fill="#323232" d="M2.761 4.347c-0.055-0.064-0.103-0.237 0.040-0.213 1.666 0.067 3.333 0.116 5 0.178 0.345-0.015 0.663 0.412 0.442 0.716-0.255 0.283-0.576 0.499-0.86 0.753 0.106 0.181 0.318 0.252 0.485 0.365 0.905 0.576 1.865 1.116 2.557 1.955 0.632 0.774 1.013 1.727 1.198 2.704 0.088 1.66 0.084 3.325 0.167 4.986-0.774-0.021-1.549-0.032-2.322-0.077 0.009-1.41-0.070-2.818-0.094-4.226 0.025-1.116-0.601-2.198-1.558-2.762-0.543-0.328-1.053-0.719-1.621-1-0.103 0.367-0.133 0.76-0.295 1.107-0.144 0.311-0.633 0.298-0.777-0.005-0.808-1.482-1.541-3.005-2.361-4.48z"></path>
<path fill="#323232" d="M28.031 9.107c0.038-0.173 0.176-0.297 0.278-0.434 0.077 0.467-0.029 0.956 0.118 1.411 0.118 0.906 0.062 1.828 0.136 2.739 0.125 2.47 0.241 4.941 0.301 7.414-0.009 0.237 0 0.475 0.038 0.71 0.046 0.514 0.017 1.032 0.028 1.549 0.027 0.53-0.364 1.063-0.894 1.157-0.86 0.138-1.733 0.053-2.598 0.029-5.539-0.155-11.079-0.284-16.617-0.493 0.53-0.032 1.063 0.037 1.59-0.035-0.281-0.15-0.604-0.044-0.904-0.111-0.716-0.144-1.482 0.142-2.173-0.137 0.112-0.086 0.245-0.144 0.39-0.129 1.142 0 2.283 0.155 3.425 0.049-0.096-0.052-0.193-0.103-0.291-0.15 0.545 0 1.090 0.019 1.633 0.054 0.611 0.045 1.223 0.009 1.833 0.059-0.091-0.44 0.039-0.95-0.272-1.318 0.262-0.308 0.195-0.719 0.189-1.092-0.114-2.343-0.116-4.691-0.255-7.033 0.206 0.001 0.413 0.009 0.619 0.022 0.058 2.514 0.174 5.024 0.222 7.539-0.007 0.085-0.014 0.17-0.021 0.255-0.15 0.070-0.431 0.072-0.412 0.302 0.049 0.187 0.281 0.142 0.427 0.189 0.027 0.289 0.032 0.579 0.070 0.867 0.012 0.094 0.031 0.189 0.048 0.283 4.204 0.122 8.41 0.242 12.615 0.338 0.371 0.035 0.813-0.233 0.786-0.643-0.047-2.433-0.196-4.863-0.282-7.286-0.015-1.151-0.102-2.299-0.131-3.449 0.050 0.037 0.101 0.075 0.151 0.113 0.223-0.914-0.078-1.843-0.049-2.766z"></path>
<path fill="#323232" d="M19.543 18.331c0.179 0.003 0.358 0.010 0.537 0.016 0.306 0.513 0.623 1.019 0.93 1.532 0.125 0.202 0.189 0.493 0.44 0.574-0.135-0.693-0.066-1.4-0.107-2.1 0.173 0.016 0.345 0.036 0.518 0.059 0.038 1.123 0.059 2.248 0.117 3.37-0.144-0.012-0.286-0.028-0.429-0.037-0.509-0.71-0.905-1.492-1.37-2.229l-0.107 0.003c0.12 0.719 0.016 1.455 0.118 2.176-0.162 0.018-0.419 0.098-0.52-0.064-0.090-1.096-0.066-2.202-0.126-3.3z"></path>
<path fill="#323232" d="M23.861 18.42c0.182 0.011 0.365 0.013 0.546 0.042 0.418 0.34 0.526 1.042 1.005 1.284 0.215-0.436 0.488-0.841 0.734-1.26 0.198 0.003 0.396 0.017 0.591 0.053-0.368 0.637-0.776 1.254-1.113 1.906 0.061 0.47 0.037 0.944 0.075 1.415-0.19-0.010-0.39 0.018-0.567-0.064 0.018-0.36-0.012-0.72-0.008-1.080 0.055-0.451-0.36-0.748-0.544-1.117-0.207-0.413-0.57-0.742-0.718-1.181z"></path>
<path fill="#343433" d="M20.327 4.663c1.63 0.016 3.258 0.079 4.888 0.092 0.194 0.003 0.389 0.014 0.583 0.023-0.517 1.138-1.119 2.234-1.657 3.361-0.271 0.454-0.395 0.996-0.759 1.391-0.201 0.014-0.433 0.046-0.579-0.13-0.249-0.372-0.25-0.861-0.488-1.236-0.667 0.401-1.357 0.767-1.99 1.221-0.737 0.593-1.103 1.578-1 2.513 0.068 0.463 0.033 0.93 0.058 1.396 0.012 0.899 0.079 1.795 0.088 2.694-0.78 0.005-1.562-0.003-2.341-0.067 0.010-1.095-0.073-2.187-0.081-3.281-0.191-1.554 0.051-3.251 1.119-4.461 0.812-0.866 1.917-1.353 2.898-1.99-0.333-0.293-0.725-0.532-0.991-0.892-0.123-0.268 0.027-0.493 0.252-0.632z"></path>
<path fill="#313131" opacity="0.47" d="M0.358 12.76c0.046 0.33 0.054 0.662 0.038 0.994-0.051-0.329-0.072-0.663-0.038-0.994z"></path>
<path fill="#2b2b2b" d="M3.303 17.807c0.709-0.189 1.361 0.439 1.415 1.123 0.057 0.659 0.168 1.402-0.214 1.99-0.425 0.55-1.36 0.466-1.73-0.105-0.358-0.549-0.296-1.242-0.29-1.866 0.073-0.472 0.286-1.044 0.818-1.143M3.432 18.291c-0.297 0.073-0.425 0.403-0.446 0.68-0.023 0.477-0.036 0.972 0.129 1.428 0.111 0.334 0.55 0.514 0.853 0.317 0.191-0.14 0.278-0.386 0.304-0.614 0.024-0.501 0.071-1.036-0.178-1.493-0.099-0.258-0.403-0.369-0.661-0.317z"></path>
<path fill="#2b2b2a" d="M5.169 17.963c0.173-0.090 0.366-0.060 0.55-0.027 0.345 0.553 0.633 1.138 0.975 1.692 0.094 0.148 0.128 0.36 0.315 0.422-0.007-0.698-0.081-1.394-0.066-2.091 0.164-0.007 0.33 0 0.489 0.047 0.033 1.117 0.090 2.234 0.062 3.352-0.146-0.018-0.333 0.025-0.446-0.089-0.395-0.721-0.839-1.415-1.214-2.148-0.034-0.010-0.102-0.031-0.136-0.042 0.035 0.741 0.095 1.48 0.078 2.222-0.163 0.004-0.327 0.008-0.487-0.031-0.070-1.1-0.038-2.206-0.118-3.306z"></path>
<path fill="#2a2a2a" d="M7.952 18c0.165-0.002 0.33 0.004 0.495 0.014 0.069 0.942 0.071 1.9 0.070 2.851 0.506 0.175 1.063-0.001 1.581 0.13-0.001 0.149-0.002 0.299 0 0.449-0.68-0.062-1.364-0.051-2.046-0.084-0.017-1.121-0.076-2.24-0.101-3.36z"></path>
<path fill="#2d2d2d" d="M9.357 18.038c0.201-0.010 0.401 0.007 0.6 0.031 0.244 0.398 0.535 0.767 0.749 1.184 0.029 0.087 0.191 0.131 0.226 0.026 0.165-0.35 0.399-0.66 0.576-1.003 0.101-0.283 0.455-0.135 0.676-0.132-0.338 0.613-0.708 1.215-1.059 1.823-0.005 0.495-0.050 1.005 0.063 1.491-0.185 0.006-0.37 0.003-0.552-0.027-0.025-0.465 0.002-0.931-0.026-1.395-0.4-0.676-0.853-1.322-1.251-1.999z"></path>
<path fill="#303030" d="M17.806 18.219c0.569-0.053 1.112 0.388 1.199 0.948 0.172 0.501 0.13 1.036 0.094 1.554-0.064 0.35-0.22 0.734-0.565 0.891-0.566 0.313-1.371-0.015-1.575-0.623-0.207-0.472-0.178-1.002-0.181-1.505 0.021-0.579 0.371-1.258 1.028-1.265M17.659 18.763c-0.354 0.148-0.354 0.603-0.388 0.927 0.073 0.477-0.034 1.084 0.389 1.422 0.343 0.282 0.879 0.022 0.945-0.394 0.044-0.459 0.057-0.93-0.053-1.382-0.068-0.394-0.483-0.762-0.892-0.574z"></path>
<path fill="#c8c8c8" d="M3.432 18.291c0.258-0.051 0.562 0.059 0.661 0.317 0.249 0.457 0.202 0.993 0.178 1.493-0.026 0.228-0.113 0.474-0.304 0.614-0.302 0.198-0.741 0.018-0.853-0.317-0.164-0.455-0.152-0.951-0.129-1.428 0.021-0.277 0.15-0.607 0.446-0.68z"></path>
<path fill="#2f2f2e" d="M22.377 18.405c0.183 0.025 0.538-0.087 0.548 0.193 0.005 0.902 0.044 1.802 0.080 2.702 0.518 0.090 1.047 0.033 1.569 0.072 0.013 0.154 0.025 0.308 0.031 0.463-0.591 0.001-1.182-0.035-1.772-0.037-0.122-0.016-0.3 0.025-0.358-0.12 0.003-1.091-0.053-2.183-0.099-3.272z"></path>
<path fill="#c6c6c5" d="M17.659 18.763c0.409-0.189 0.825 0.18 0.892 0.574 0.111 0.452 0.097 0.923 0.053 1.382-0.066 0.416-0.602 0.676-0.945 0.394-0.423-0.338-0.316-0.946-0.389-1.422 0.034-0.324 0.035-0.779 0.388-0.927z"></path>
<path fill="#828282" d="M28.864 20.237c0.017 0.236 0.031 0.472 0.038 0.71-0.038-0.235-0.047-0.472-0.038-0.71z"></path>
<path fill="#828282" d="M14.828 20.905c0.252 0.512 0.071 1.073 0.065 1.612-0.038-0.288-0.043-0.578-0.070-0.867-0.146-0.047-0.378-0.002-0.427-0.189-0.020-0.229 0.261-0.231 0.412-0.302 0.008-0.085 0.014-0.17 0.021-0.255z"></path>
<path fill="#e7e6e6" d="M1.159 21.798c0.047-0.209 0.109-0.415 0.159-0.624-0.049 0.377 0.040 0.79 0.393 0.994 0.572 0.194 1.185 0.037 1.775 0.083 0.274-0.006 0.535 0.125 0.808 0.091 0.596-0.109 1.197 0.059 1.796 0.043 0.537-0.018 1.075 0.011 1.612 0.046-0.036 0.051-0.071 0.101-0.106 0.152-1.938-0.092-3.88-0.118-5.818-0.211-0.287-0.050-0.565-0.279-0.617-0.573z"></path>
<path fill="#e3e3e2" d="M7.765 22.586c0.287-0.171 0.624-0.211 0.946-0.137 1.33 0.089 2.666 0.004 3.992 0.149 0.397 0.044 0.821-0.131 1.194 0.070-0.468 0.051-0.94-0.017-1.406 0.061-0.544-0.035-1.089-0.054-1.634-0.054-1.031-0.010-2.062-0.069-3.093-0.089z"></path>
<path fill="#303030" opacity="0.41" d="M4.293 23.053c0.265-0.010 0.531 0 0.793 0.038-0.265 0.032-0.533 0.019-0.793-0.038z"></path>
</svg>
