<?xml version="1.0" encoding="utf-8"?>
<!-- Generated by IcoMoon.io -->
<!DOCTYPE svg PUBLIC "-//W3C//DTD SVG 1.1//EN" "http://www.w3.org/Graphics/SVG/1.1/DTD/svg11.dtd">
<svg version="1.1" xmlns="http://www.w3.org/2000/svg" xmlns:xlink="http://www.w3.org/1999/xlink" width="24" height="24" viewBox="0 0 24 24">
<path fill="#d71920" d="M10.146 0.806c2.44-0.401 5.008 0.005 7.192 1.169 2.614 1.367 4.649 3.794 5.542 6.605 0.779 2.41 0.722 5.080-0.16 7.453-0.835 2.276-2.424 4.266-4.456 5.588-1.913 1.266-4.217 1.936-6.512 1.872-2.988-0.040-5.923-1.348-7.986-3.503-1.888-1.938-3.032-4.574-3.173-7.274-0.14-2.395 0.497-4.829 1.808-6.84 1.716-2.678 4.598-4.579 7.745-5.070M10.374 2.969c-2.632 0.449-5.014 2.117-6.356 4.422-1.198 2.011-1.566 4.488-1.037 6.766 0.402 1.776 1.355 3.421 2.687 4.662 1.69 1.601 4.002 2.531 6.331 2.513 2.22 0.017 4.423-0.827 6.088-2.29 1.296-1.132 2.278-2.628 2.77-4.278 0.587-1.924 0.523-4.039-0.184-5.922-0.848-2.29-2.644-4.211-4.876-5.203-1.685-0.766-3.602-0.989-5.423-0.67z"></path>
<path fill="#fff" d="M10.374 2.969c1.82-0.319 3.738-0.096 5.423 0.67 2.232 0.992 4.027 2.914 4.876 5.203 0.707 1.883 0.77 3.998 0.184 5.922-0.492 1.65-1.474 3.146-2.77 4.278-1.664 1.463-3.868 2.306-6.088 2.29-2.329 0.018-4.642-0.912-6.331-2.513-1.332-1.241-2.285-2.886-2.687-4.662-0.529-2.278-0.161-4.754 1.037-6.766 1.343-2.305 3.725-3.973 6.356-4.422M9.629 5.539c-0.376 0.084-0.713 0.348-0.857 0.709-0.325 0.695 0.175 1.6 0.936 1.691 0.763 0.148 1.51-0.576 1.403-1.34-0.049-0.707-0.802-1.23-1.482-1.060M8.395 8.812c-0.932 1.064-1.83 2.158-2.755 3.227 0.114 0.2 0.224 0.402 0.344 0.599 0.852-0.881 1.726-1.742 2.557-2.644-0.012 1.229-0.006 2.459-0.004 3.688-0.006 0.253 0.037 0.526-0.108 0.751-0.601 1.123-1.147 2.278-1.771 3.389-0.251-0.154-0.511-0.288-0.775-0.413-0.083 0.132-0.164 0.265-0.245 0.398 0.599 0.3 1.2 0.599 1.792 0.916 0.73-1.406 1.44-2.822 2.18-4.224 0.34 0.004 0.68 0.004 1.020-0.002 0.158 1.454 0.342 2.909 0.472 4.367-0.216 0.001-0.433 0.004-0.649 0.006 0.010 0.155 0.018 0.31 0.026 0.464 0.587-0.040 1.174-0.041 1.76-0.050-0.13-1.67-0.432-3.325-0.611-4.991-0.016-1.159 0.012-2.318-0.013-3.478 0.157 0.298 0.39 0.568 0.451 0.91 0.157 0.642 0.334 1.28 0.487 1.925 0.2-0.055 0.398-0.118 0.598-0.179-0.119-0.864-0.156-1.739-0.263-2.602-0.4-0.7-0.845-1.372-1.268-2.057-1.075 0-2.15-0.001-3.226 0M14.363 12.346c1.049 0.638 2.128 1.225 3.185 1.848-0.071-0.278-0.139-0.557-0.208-0.835 0.659 0.002 1.318 0.001 1.976 0.001 0-0.648 0.001-1.296 0-1.944-0.662 0-1.326 0.001-1.988 0 0.074-0.301 0.149-0.602 0.222-0.904-1.063 0.611-2.131 1.212-3.187 1.834z"></path>
<path fill="#231f20" d="M9.629 5.539c0.68-0.17 1.433 0.353 1.482 1.060 0.107 0.764-0.64 1.488-1.403 1.34-0.761-0.091-1.261-0.996-0.936-1.691 0.144-0.361 0.481-0.625 0.857-0.709z"></path>
<path fill="#231f20" d="M8.395 8.812c1.075-0.001 2.15 0 3.226 0 0.424 0.685 0.869 1.357 1.268 2.057 0.107 0.863 0.144 1.738 0.263 2.602-0.199 0.061-0.397 0.124-0.598 0.179-0.154-0.644-0.33-1.283-0.487-1.925-0.061-0.342-0.294-0.612-0.451-0.91 0.025 1.159-0.002 2.318 0.013 3.478 0.179 1.666 0.481 3.32 0.611 4.991-0.587 0.010-1.174 0.011-1.76 0.050-0.008-0.155-0.017-0.31-0.026-0.464 0.216-0.002 0.433-0.005 0.649-0.006-0.13-1.458-0.313-2.912-0.472-4.367-0.34 0.006-0.68 0.006-1.020 0.002-0.74 1.402-1.451 2.818-2.18 4.224-0.592-0.317-1.193-0.616-1.792-0.916 0.080-0.133 0.162-0.266 0.245-0.398 0.264 0.125 0.524 0.259 0.775 0.413 0.624-1.111 1.17-2.266 1.771-3.389 0.145-0.226 0.102-0.498 0.108-0.751-0.002-1.229-0.008-2.459 0.004-3.688-0.832 0.901-1.705 1.763-2.557 2.644-0.12-0.197-0.23-0.398-0.344-0.599 0.925-1.069 1.823-2.162 2.755-3.227z"></path>
<path fill="#231f20" d="M14.363 12.346c1.056-0.622 2.124-1.223 3.187-1.834-0.073 0.301-0.148 0.602-0.222 0.904 0.662 0.001 1.326 0 1.988 0 0.001 0.648 0 1.296 0 1.944-0.659 0-1.318 0.001-1.976-0.001 0.068 0.278 0.137 0.557 0.208 0.835-1.057-0.623-2.136-1.21-3.185-1.848z"></path>
</svg>
