<svg xmlns="http://www.w3.org/2000/svg" width="24" height="24">
    <path fill="#ec1c24" d="M8.492.802c3.383-1.144 7.275-.619 10.229 1.39 2.607 1.72 4.416 4.511 5.06 7.555v4.406c-.618 3.08-2.459 5.901-5.092 7.628-2.812 1.904-6.471 2.462-9.731 1.516-4.392-1.203-7.768-5.154-8.459-9.63v-3.333C1.137 5.998 4.303 2.145 8.491.802zm2.414 2.718c-2.899.428-5.494 2.45-6.604 5.164-1.102 2.545-.813 5.618.713 7.929A8.618 8.618 0 0 0 10.71 20.4c3.002.565 6.244-.675 8.131-3.071 2.509-2.982 2.519-7.692.022-10.685-1.85-2.357-4.997-3.6-7.957-3.123z"/>
    <path fill="#fff" d="M10.906 3.52c2.96-.477 6.108.766 7.957 3.123 2.498 2.994 2.488 7.703-.022 10.685-1.887 2.396-5.129 3.636-8.131 3.071a8.618 8.618 0 0 1-5.695-3.787c-1.526-2.311-1.815-5.383-.713-7.929 1.109-2.713 3.705-4.735 6.604-5.164zM7.328 9.827c-.001.431-.001.864.004 1.295a6.058 6.058 0 0 0 1.354-.823c-.012 1.257-.004 2.516-.006 3.775h1.301V8.269l-1.036-.001c-.302.724-.897 1.266-1.617 1.559zm6.592-.858c-.43.647-.264 1.559.342 2.035-1.164.691-.892 2.827.47 3.094.667.125 1.444.128 2.009-.3.799-.723.779-2.156-.118-2.798.732-.627.746-1.926-.111-2.447-.808-.44-2.041-.415-2.593.417zm-9.339.835c-.345 1.42-.322 2.917.02 4.336.739-.716 1.466-1.444 2.199-2.166-.743-.721-1.469-1.457-2.219-2.17zm13.004 2.179c.727.726 1.457 1.449 2.194 2.166a9.234 9.234 0 0 0 .027-4.31c-.785.668-1.476 1.434-2.222 2.144zm-6.077.52l-.001 1.559c.233.012.466.023.698.036-.109.385-.369.686-.684.924.098.221.195.443.295.665 1.245-.565 1.098-2.051 1.066-3.185h-1.374zm-1.019 3.761c.006.982 0 1.963.004 2.945h.772c.158-.675-.345-1.897.303-2.226.195.723.049 1.486.093 2.226h.785c.034-.773-.099-1.568.118-2.324.612.566.149 1.578.292 2.324h.773c-.062-.862.142-1.769-.124-2.601-.227-.589-.934-.537-1.41-.319-.509-.253-1.072-.039-1.607-.024z"/>
    <path fill="#fff" d="M15.344 9.246c.742-.103.822 1.275.101 1.296-.693.029-.75-1.188-.101-1.296zM15.205 11.532c.969-.297 1.141 1.541.243 1.667-.757-.085-.838-1.309-.243-1.667z"/>
    <path fill="#231f20" d="M7.328 9.827c.72-.293 1.315-.835 1.617-1.559l1.036.001v5.805H8.68c.001-1.259-.006-2.518.006-3.775a5.963 5.963 0 0 1-1.354.823 69.879 69.879 0 0 1-.004-1.295zM13.92 8.969c.552-.832 1.785-.857 2.593-.417.857.522.842 1.821.111 2.447.897.642.917 2.075.118 2.798-.565.428-1.342.425-2.009.3-1.362-.267-1.634-2.403-.47-3.094-.606-.476-.772-1.388-.342-2.035zm1.424.277c-.65.108-.592 1.325.101 1.296.721-.022.641-1.4-.101-1.296zm-.139 2.286c-.595.358-.515 1.582.243 1.667.898-.126.726-1.965-.243-1.667zM4.581 9.804c.75.713 1.476 1.449 2.219 2.17-.733.721-1.46 1.45-2.199 2.166a9.251 9.251 0 0 1-.02-4.336zM17.585 11.983c.746-.71 1.437-1.476 2.222-2.144.339 1.413.313 2.9-.027 4.31-.737-.717-1.467-1.44-2.194-2.166zM11.508 12.503h1.374c.032 1.134.178 2.62-1.066 3.185l-.295-.665c.315-.239.575-.539.684-.924l-.698-.036.001-1.559zM10.489 16.264c.535-.014 1.098-.228 1.607.024.476-.218 1.183-.27 1.41.319.266.832.062 1.739.124 2.601h-.773c-.142-.746.32-1.758-.292-2.324-.217.756-.083 1.551-.118 2.324h-.785c-.045-.74.102-1.503-.093-2.226-.648.329-.145 1.551-.303 2.226h-.772c-.004-.982.001-1.963-.004-2.945z"/>
</svg>
