<!-- Generated by IcoMoon.io -->
<svg version="1.1" xmlns="http://www.w3.org/2000/svg" width="19" height="24" viewBox="0 0 19 24">
<title>regulatory--maximum-speed-limit-50--g3</title>
<path fill="#fff" d="M0 0h0.604c-0.273 0.094-0.499 0.308-0.604 0.579v-0.579z"></path>
<path fill="#fff" d="M18.194 0h0.653v0.779c-0.064-0.352-0.312-0.662-0.653-0.779z"></path>
<path fill="#fff" d="M0.827 0.529c0.138-0.022 0.279-0.013 0.418-0.015 5.525 0.001 11.051-0.001 16.576 0.001 0.245-0.028 0.484 0.172 0.467 0.425 0.003 7.344 0.001 14.689 0.001 22.033 0.027 0.243-0.179 0.472-0.426 0.456-5.641 0.004-11.281 0.001-16.922 0.001-0.232 0.018-0.452-0.18-0.437-0.416-0.001-7.357 0-14.715-0-22.072-0.013-0.192 0.13-0.383 0.322-0.413M1.911 3.454c-0.217 0.338-0.163 0.835 0.153 1.094 0.378 0.319 0.924 0.255 1.328 0.518 0.231 0.16 0.143 0.527-0.092 0.638-0.471 0.262-1.055 0.032-1.348-0.388-0.152 0.096-0.3 0.198-0.449 0.3 0.469 0.647 1.434 0.963 2.139 0.516 0.53-0.316 0.596-1.17 0.092-1.538-0.394-0.222-0.866-0.248-1.27-0.448-0.219-0.101-0.172-0.447 0.044-0.524 0.397-0.176 0.844 0.010 1.133 0.301 0.138-0.117 0.278-0.232 0.413-0.352-0.331-0.357-0.816-0.603-1.312-0.565-0.324 0.014-0.658 0.166-0.832 0.448M8.416 3.027c-0.002 1.091-0.001 2.183-0 3.274 0.798-0 1.595 0 2.393-0 0-0.182 0-0.364 0-0.547-0.605-0.002-1.209 0.001-1.814-0.001 0-0.311 0-0.622 0-0.932 0.322-0.002 0.643 0 0.965-0.001 0.001-0.186 0.001-0.372-0-0.558-0.322-0.003-0.644 0.007-0.966-0.006 0.003-0.227 0.001-0.453 0.002-0.68 0.59-0.002 1.18 0.001 1.77-0.001 0.001-0.182 0.001-0.364 0-0.547-0.783-0-1.566 0-2.349 0M4.959 3.027c-0.001 1.094-0.001 2.189-0 3.284 0.19 0.001 0.38 0.001 0.569-0 0-0.432-0.001-0.865 0-1.297 0.534-0.041 1.131 0.122 1.605-0.197 0.483-0.318 0.547-1.082 0.14-1.486-0.218-0.22-0.534-0.301-0.836-0.301-0.493-0.005-0.986-0.001-1.479-0.002M11.453 3.028c-0.001 1.094-0.001 2.189-0 3.283 0.798 0 1.596 0.001 2.394-0-0-0.185-0-0.371 0-0.556-0.605-0.003-1.209 0-1.814-0.001 0-0.311-0-0.622 0-0.933 0.322-0.001 0.644 0.001 0.965-0.001 0.001-0.186 0.001-0.372 0-0.557-0.322-0.001-0.644 0.001-0.966-0.001-0.001-0.225-0.001-0.45 0-0.675 0.59-0.001 1.18 0.001 1.77-0.001 0.001-0.186 0.001-0.371 0-0.557-0.783-0.001-1.567-0.001-2.35 0M14.501 3.028c-0.001 1.094-0.001 2.189-0 3.283 0.648-0.019 1.376 0.106 1.933-0.31 0.829-0.593 0.847-1.982 0.068-2.624-0.556-0.474-1.33-0.322-2.001-0.349M3.403 7.954c0 1.091-0.001 2.182 0 3.273 0.794 0 1.588 0 2.382 0 0.001-0.182 0.001-0.364 0-0.547-0.604-0.002-1.209 0-1.813-0.001-0.002-0.908 0-1.817-0.001-2.725-0.19-0.001-0.379-0.001-0.569-0M6.377 7.953c-0.002 1.091-0.001 2.182-0 3.273 0.189 0.001 0.379 0.001 0.568-0 0-1.091 0-2.181 0-3.272-0.189-0.001-0.379-0.001-0.568-0M7.814 7.953c-0 1.091-0.001 2.183 0 3.274 0.185 0 0.371 0 0.556 0 0.003-0.665-0.001-1.329 0.002-1.993 0.3 0.65 0.594 1.303 0.896 1.952 0.32-0.652 0.626-1.31 0.948-1.961 0.004 0.667-0 1.335 0.003 2.002 0.185 0 0.371 0 0.556 0-0.002-1.091 0.021-2.182 0.011-3.274-0.195-0.001-0.391-0.001-0.586 0.001-0.304 0.648-0.613 1.294-0.92 1.941-0.308-0.647-0.612-1.295-0.918-1.941-0.182-0.001-0.365-0.001-0.548-0M11.657 7.953c-0.002 1.091-0.001 2.182-0 3.273 0.189 0.001 0.379 0.001 0.568-0 0-1.091 0-2.181 0-3.272-0.189-0.001-0.379-0.001-0.568-0M12.859 7.954c-0 0.178-0 0.357 0 0.535 0.297 0.002 0.593-0.001 0.89 0.001 0.002 0.912-0.001 1.824 0.001 2.736 0.193 0 0.386 0 0.579 0 0.002-0.912-0.001-1.824 0.001-2.736 0.3-0.002 0.6 0 0.9-0.001 0.001-0.179 0.001-0.358 0-0.536-0.791-0-1.581-0.001-2.372 0M2.677 12.881c-0.092 1.322-0.187 2.645-0.285 3.967 0.388 0.129 0.779 0.248 1.167 0.377 0.163 0.068 0.316-0.064 0.47-0.101 0.723-0.256 1.568-0.507 2.296-0.137 0.661 0.314 0.981 1.164 0.693 1.836-0.242 0.608-0.896 0.952-1.526 0.984-0.959 0.046-1.886-0.274-2.755-0.647-0.221 0.422-0.448 0.84-0.666 1.264 1.090 0.477 2.266 0.841 3.469 0.767 0.752-0.044 1.505-0.319 2.060-0.837 0.968-0.858 1.148-2.404 0.486-3.498-0.45-0.784-1.297-1.327-2.201-1.393-0.686-0.040-1.377 0.070-2.024 0.298 0.029-0.502 0.047-1.005 0.078-1.507 1.309-0.001 2.618 0 3.927-0.001 0.004-0.458 0.021-0.915 0.022-1.373-1.737-0.001-3.475-0.001-5.212 0M12.854 12.987c-0.942 0.101-1.796 0.688-2.27 1.501-0.542 0.906-0.702 1.99-0.663 3.031 0.047 1.446 0.754 3.003 2.146 3.6 0.984 0.426 2.192 0.309 3.062-0.325 1.123-0.822 1.561-2.281 1.552-3.621 0.018-1.305-0.355-2.74-1.425-3.577-0.669-0.53-1.564-0.715-2.401-0.61z"></path>
<path fill="#fff" d="M5.529 3.597c0.333 0.001 0.666-0.005 0.999 0.001 0.235 0 0.489 0.181 0.468 0.436-0.004 0.244-0.244 0.405-0.47 0.408-0.333 0.006-0.665 0-0.998 0.002-0.001-0.283-0.001-0.565 0-0.847z"></path>
<path fill="#fff" d="M15.060 3.597c0.434-0.014 0.96-0.028 1.251 0.357 0.309 0.436 0.335 1.126-0.058 1.52-0.32 0.297-0.786 0.276-1.192 0.267-0.001-0.715-0.001-1.43 0-2.145z"></path>
<path fill="#fff" d="M13.066 14.397c0.457-0.063 0.948 0.039 1.308 0.338 0.592 0.483 0.802 1.277 0.859 2.008 0.066 0.916-0.049 1.94-0.696 2.644-0.592 0.654-1.711 0.723-2.37 0.134-0.519-0.459-0.73-1.164-0.795-1.834-0.066-0.808 0.003-1.666 0.41-2.385 0.264-0.473 0.738-0.839 1.285-0.905z"></path>
<path fill="#fff" d="M18.338 23.881c0.27-0.136 0.44-0.409 0.51-0.696v0.815h-18.848v-0.628c0.141 0.362 0.51 0.623 0.901 0.617 5.553 0 11.106-0 16.659 0 0.261 0 0.541 0.025 0.778-0.109z"></path>
<path fill="#231f20" d="M0.604 0h17.591c0.341 0.117 0.59 0.427 0.653 0.779v22.405c-0.070 0.287-0.24 0.56-0.51 0.696-0.237 0.134-0.516 0.109-0.778 0.109-5.553-0-11.106 0-16.659 0-0.392 0.006-0.76-0.255-0.901-0.617v-22.794c0.104-0.27 0.33-0.484 0.604-0.579M0.827 0.529c-0.192 0.030-0.336 0.221-0.322 0.413 0 7.357-0 14.715 0 22.072-0.015 0.236 0.205 0.435 0.437 0.416 5.64 0 11.281 0.003 16.921-0.001 0.247 0.016 0.453-0.213 0.426-0.456-0-7.344 0.002-14.689-0.001-22.033 0.017-0.252-0.222-0.453-0.467-0.425-5.525-0.002-11.051 0-16.576-0.001-0.14 0.001-0.28-0.008-0.418 0.015z"></path>
<path fill="#231f20" d="M1.911 3.454c0.174-0.283 0.508-0.434 0.832-0.448 0.496-0.037 0.981 0.208 1.312 0.565-0.136 0.12-0.275 0.236-0.413 0.352-0.289-0.291-0.736-0.477-1.133-0.301-0.216 0.077-0.262 0.423-0.044 0.524 0.404 0.2 0.876 0.226 1.27 0.448 0.504 0.369 0.438 1.223-0.092 1.538-0.706 0.447-1.67 0.13-2.139-0.516 0.149-0.102 0.297-0.204 0.449-0.3 0.293 0.419 0.877 0.65 1.348 0.388 0.235-0.111 0.324-0.478 0.092-0.638-0.404-0.263-0.951-0.199-1.328-0.518-0.316-0.259-0.37-0.756-0.153-1.094z"></path>
<path fill="#231f20" d="M8.416 3.027c0.783 0 1.566-0 2.349 0 0.001 0.182 0.001 0.364 0 0.547-0.59 0.002-1.18-0.001-1.77 0.001-0.001 0.227 0.001 0.453-0.002 0.68 0.322 0.013 0.644 0.003 0.966 0.006 0.001 0.186 0.001 0.372 0 0.558-0.322 0.002-0.644-0-0.965 0.001-0 0.31 0 0.621-0 0.932 0.604 0.003 1.209-0 1.814 0.001 0 0.182 0 0.365 0 0.547-0.798 0.001-1.595 0-2.393 0-0-1.091-0.001-2.183 0-3.274z"></path>
<path fill="#231f20" d="M4.959 3.027c0.493 0 0.986-0.003 1.479 0.002 0.302 0 0.618 0.081 0.836 0.301 0.406 0.404 0.342 1.168-0.14 1.486-0.474 0.32-1.072 0.156-1.605 0.197-0.002 0.432-0 0.865-0 1.297-0.19 0.001-0.38 0.001-0.569 0-0-1.094-0.001-2.189 0-3.284M5.529 3.597c-0.001 0.282-0.001 0.564 0 0.847 0.332-0.001 0.665 0.005 0.998-0.002 0.226-0.003 0.466-0.164 0.47-0.408 0.020-0.255-0.234-0.436-0.468-0.436-0.333-0.006-0.666-0-0.999-0.001z"></path>
<path fill="#231f20" d="M11.453 3.028c0.783-0.001 1.567-0.001 2.35-0 0.001 0.186 0.001 0.371 0 0.557-0.59 0.002-1.18 0-1.77 0.001-0.001 0.225-0.001 0.45-0 0.675 0.322 0.002 0.644 0 0.966 0.001 0 0.185 0 0.371-0 0.557-0.322 0.002-0.644-0-0.965 0.001-0.001 0.311 0 0.622-0 0.933 0.605 0.002 1.209-0.001 1.814 0.001-0 0.185-0 0.371 0 0.556-0.798 0.002-1.596 0.001-2.394 0-0-1.094-0.001-2.189 0-3.283z"></path>
<path fill="#231f20" d="M14.501 3.028c0.671 0.027 1.445-0.125 2.001 0.349 0.779 0.642 0.762 2.031-0.068 2.624-0.557 0.415-1.285 0.291-1.933 0.31-0-1.094-0.001-2.189 0-3.283M15.060 3.597c-0.001 0.715-0.001 1.43 0 2.145 0.407 0.009 0.872 0.029 1.192-0.267 0.394-0.394 0.368-1.084 0.058-1.52-0.291-0.385-0.817-0.371-1.251-0.357z"></path>
<path fill="#231f20" d="M3.403 7.954c0.19-0.001 0.379-0.001 0.569 0 0.001 0.908-0.001 1.817 0.001 2.725 0.604 0.001 1.209-0.001 1.813 0.001 0.001 0.182 0.001 0.364 0 0.547-0.794 0-1.588 0-2.382 0-0.001-1.091-0-2.182-0-3.273z"></path>
<path fill="#231f20" d="M6.377 7.953c0.189-0 0.379-0 0.568 0 0 1.091 0 2.181 0 3.272-0.189 0.002-0.379 0.002-0.568 0-0.001-1.091-0.002-2.182 0-3.273z"></path>
<path fill="#231f20" d="M7.814 7.953c0.182-0 0.365-0 0.548 0 0.307 0.647 0.611 1.295 0.918 1.941 0.307-0.647 0.616-1.293 0.92-1.941 0.195-0.002 0.391-0.002 0.586-0.001 0.009 1.091-0.013 2.182-0.011 3.274-0.185 0-0.371 0-0.556 0-0.003-0.668 0.002-1.335-0.003-2.002-0.322 0.651-0.627 1.309-0.948 1.961-0.302-0.649-0.596-1.302-0.896-1.952-0.003 0.665 0.001 1.329-0.002 1.993-0.185 0-0.371 0-0.556 0-0.002-1.091-0.001-2.183-0-3.274z"></path>
<path fill="#231f20" d="M11.657 7.953c0.189-0 0.379-0 0.568 0 0 1.091 0 2.181 0 3.272-0.189 0.002-0.379 0.002-0.568 0-0.001-1.091-0.002-2.182 0-3.273z"></path>
<path fill="#231f20" d="M12.859 7.954c0.791-0.002 1.581-0.001 2.372-0 0 0.179 0 0.357-0 0.536-0.3 0.001-0.6-0.001-0.9 0.001-0.002 0.912 0.001 1.824-0.001 2.736-0.193 0-0.386 0-0.579 0-0.002-0.912 0.001-1.824-0.001-2.736-0.297-0.002-0.593 0-0.89-0.001-0-0.179-0-0.357 0-0.535z"></path>
<path fill="#231f20" d="M2.677 12.881c1.738-0.001 3.475-0.001 5.212 0-0 0.458-0.018 0.915-0.022 1.373-1.309 0.001-2.618-0-3.927 0.001-0.030 0.502-0.049 1.005-0.078 1.507 0.647-0.228 1.339-0.338 2.024-0.298 0.904 0.066 1.75 0.608 2.201 1.393 0.662 1.094 0.482 2.64-0.486 3.498-0.555 0.518-1.308 0.793-2.060 0.837-1.203 0.074-2.379-0.29-3.469-0.767 0.218-0.423 0.445-0.842 0.666-1.264 0.869 0.373 1.796 0.693 2.755 0.647 0.63-0.031 1.285-0.376 1.526-0.984 0.288-0.673-0.032-1.522-0.693-1.836-0.729-0.37-1.573-0.12-2.296 0.137-0.155 0.036-0.307 0.169-0.47 0.101-0.388-0.129-0.779-0.248-1.167-0.377 0.098-1.322 0.192-2.644 0.285-3.967z"></path>
<path fill="#231f20" d="M12.854 12.987c0.837-0.105 1.732 0.080 2.401 0.61 1.070 0.838 1.443 2.272 1.425 3.577 0.009 1.34-0.429 2.799-1.552 3.621-0.87 0.634-2.078 0.751-3.062 0.325-1.391-0.597-2.099-2.154-2.146-3.6-0.039-1.041 0.121-2.124 0.663-3.031 0.474-0.814 1.328-1.401 2.27-1.501M13.066 14.397c-0.546 0.066-1.020 0.432-1.285 0.905-0.407 0.719-0.476 1.577-0.41 2.385 0.064 0.669 0.275 1.375 0.795 1.834 0.659 0.59 1.778 0.52 2.37-0.134 0.647-0.704 0.762-1.729 0.696-2.644-0.057-0.731-0.267-1.525-0.859-2.008-0.359-0.299-0.851-0.401-1.308-0.338z"></path>
</svg>
