<!-- Generated by IcoMoon.io -->
<svg version="1.1" xmlns="http://www.w3.org/2000/svg" width="36" height="24" viewBox="0 0 36 24">
<title>regulatory--use-crosswalk--g1</title>
<path fill="#6d6f73" d="M1.847 0h32.076c0.789 0.236 1.514 0.797 1.733 1.62-0.027 0.056-0.080 0.166-0.107 0.22-0.253-0.909-1.096-1.659-2.066-1.637-10.443 0.006-20.885-0.002-31.328 0.004-1.083 0.027-1.936 1.003-2.021 2.050l-0.133-0.145v-0.401c0.23-0.883 0.98-1.504 1.847-1.712z"></path>
<path fill="#fff" d="M0.133 2.258c0.084-1.047 0.938-2.023 2.021-2.050 10.443-0.006 20.885 0.002 31.328-0.004 0.97-0.023 1.813 0.728 2.066 1.637 0.029 6.592 0.013 13.187 0.008 19.779 0.040 1.113-0.917 2.002-1.971 2.153-10.45-0.008-20.901-0.004-31.35-0.002-1.070-0.106-1.966-0.957-2.083-2.032-0.030-6.493 0.008-12.987-0.019-19.48M2.102 0.678c-0.832 0.072-1.497 0.859-1.471 1.685 0.002 6.425-0.005 12.852 0.003 19.277-0.004 0.903 0.83 1.686 1.729 1.639 10.339-0.001 20.677 0.001 31.016-0.001 0.897 0.042 1.735-0.734 1.729-1.639 0.005-6.426 0.002-12.852 0.002-19.278 0.035-0.928-0.81-1.743-1.731-1.703-10.425 0.011-20.853-0.029-31.277 0.020z"></path>
<path fill="#fff" d="M1.983 1.365c0.159-0.047 0.325-0.054 0.489-0.059 10.301 0.004 20.602-0.004 30.902 0.004 0.58-0.038 1.112 0.469 1.090 1.052 0.008 6.39 0.003 12.783 0.002 19.173 0.037 0.594-0.487 1.134-1.086 1.093-10.34 0.002-20.679 0.001-31.019 0-0.598 0.049-1.121-0.502-1.084-1.092-0.008-6.357-0.001-12.714-0.004-19.071-0.032-0.473 0.245-0.956 0.709-1.1M24.435 4.217c0.131 0.604 0.355 1.184 0.51 1.781-2.056 0.004-4.112 0.002-6.167 0.001 0.002 0.962 0.002 1.923 0 2.885 2.055 0.015 4.11 0 6.165 0.007-0.149 0.614-0.396 1.203-0.512 1.824-0.068 0.431 0.514 0.718 0.834 0.435 1.839-1.221 3.661-2.469 5.486-3.709-1.842-1.241-3.674-2.497-5.519-3.733-0.341-0.261-0.918 0.074-0.797 0.509M9.841 6.735c0.434 0.809 1.489 0.986 1.95 1.769 0.316 0.576-0.198 1.414-0.872 1.295-0.503-0.054-0.677-0.587-0.74-1.013-0.271 0-0.542 0.002-0.812 0.004 0.029 0.622 0.277 1.279 0.829 1.618 0.73 0.475 1.807 0.202 2.23-0.557 0.531-0.838 0.206-1.984-0.574-2.546-0.445-0.493-1.584-0.651-1.325-1.515 0.267-0.689 1.342-0.48 1.383 0.249 0.263-0.001 0.524 0 0.787-0.001 0.013-0.95-0.935-1.759-1.873-1.491-0.93 0.194-1.44 1.365-0.985 2.189M5.073 4.611c0.004 1.452-0.008 2.905 0.006 4.357-0.020 0.77 0.572 1.473 1.316 1.631 0.949 0.242 1.974-0.566 1.994-1.537 0.031-1.48-0.001-2.962 0.014-4.444-0.284-0.005-0.569-0.009-0.853-0.010-0.001 1.417 0.003 2.835-0.001 4.252 0.027 0.438-0.269 0.945-0.749 0.948-0.477 0.051-0.878-0.387-0.871-0.848-0.026-1.433 0.012-2.867-0.015-4.299-0.251-0.113-0.565-0.031-0.842-0.049M13.687 4.61c-0.001 1.976-0.001 3.951 0 5.927 1.006 0.002 2.013 0.002 3.019 0 0-0.278-0.001-0.556-0.002-0.834-0.72-0.003-1.441 0.002-2.161-0.004-0.001-0.652 0.001-1.303-0.001-1.955 0.41 0.001 0.82 0.001 1.231 0-0.001-0.268-0.002-0.536-0.003-0.803-0.409-0.001-0.818 0-1.227-0.002-0.001-0.5-0.001-0.999 0-1.499 0.644 0 1.287 0.001 1.93 0 0-0.277 0.001-0.553 0.001-0.83-0.929 0-1.858-0.001-2.787 0.001M3.604 13.378c-0.651 0.193-0.788 0.963-0.864 1.544-0.122 1.255-0.186 2.564 0.182 3.784 0.251 0.832 1.493 0.989 2.024 0.35 0.239-0.317 0.231-0.735 0.247-1.113-0.251-0.001-0.503-0.001-0.754-0.001-0.061 0.261-0.033 0.751-0.42 0.722-0.476-0.051-0.476-0.66-0.548-1.022-0.063-1.065-0.149-2.171 0.141-3.21 0.115-0.467 0.751-0.419 0.858 0.031 0.246 0.001 0.492 0.002 0.739-0.001-0.034-0.798-0.85-1.363-1.605-1.085M13.506 13.811c-0.432 0.624-0.312 1.51 0.168 2.074 0.576 0.725 1.529 1.576 1.098 2.594-0.42 0.523-1.004-0.118-0.935-0.623-0.25 0.002-0.502 0.004-0.752 0.006 0.042 0.444 0.109 0.934 0.446 1.261 0.563 0.529 1.621 0.389 1.948-0.342 0.442-0.997-0.040-2.17-0.755-2.913-0.416-0.43-1.017-1.076-0.543-1.68 0.386-0.362 0.75 0.141 0.727 0.53 0.254-0.002 0.509-0.003 0.764-0.007-0.081-0.386-0.138-0.818-0.44-1.103-0.482-0.458-1.363-0.352-1.726 0.203M16.61 13.829c-0.41 0.62-0.288 1.481 0.172 2.042 0.502 0.651 1.229 1.262 1.224 2.155 0.050 0.338-0.218 0.73-0.592 0.631-0.368-0.076-0.401-0.506-0.453-0.806-0.252 0.004-0.504 0.009-0.755 0.012 0.056 0.478 0.128 1.023 0.538 1.338 0.644 0.5 1.725 0.194 1.941-0.616 0.339-1.151-0.344-2.285-1.144-3.065-0.398-0.337-0.628-1.081-0.122-1.421 0.42-0.177 0.582 0.293 0.616 0.616 0.251 0.001 0.504 0.001 0.756 0-0.066-0.399-0.142-0.833-0.451-1.123-0.492-0.444-1.376-0.331-1.728 0.237M6.29 13.404c-0.001 1.976-0.003 3.951 0.001 5.927 0.246 0.002 0.492 0.005 0.739 0.006 0.013-0.925 0.004-1.85 0.005-2.776 0.118 0.004 0.237 0.006 0.355 0.006 0.242 0.918 0.43 1.848 0.667 2.766 0.256-0.001 0.513 0.001 0.769 0.003-0.185-0.981-0.41-1.953-0.594-2.934 0.785-0.553 0.766-1.739 0.323-2.5-0.524-0.716-1.51-0.45-2.266-0.499M10.445 13.439c-0.889 0.519-0.818 1.734-0.847 2.631 0.021 0.935-0.093 1.947 0.373 2.801 0.355 0.697 1.474 0.774 1.913 0.122 0.459-0.67 0.448-1.525 0.465-2.304-0.015-0.917 0.073-1.892-0.34-2.741-0.271-0.569-1.010-0.78-1.564-0.508M19.234 13.403c0.235 1.975 0.451 3.951 0.691 5.926 0.213 0.003 0.426 0.005 0.64 0.008 0.186-1.066 0.324-2.141 0.541-3.202 0.235 1.056 0.363 2.132 0.57 3.194 0.212 0.003 0.425 0.005 0.638 0.007 0.23-1.978 0.464-3.955 0.687-5.933-0.258 0-0.514 0.001-0.769 0.001-0.112 0.888-0.176 1.782-0.322 2.666-0.16-0.888-0.308-1.778-0.473-2.666-0.213-0.001-0.426-0.001-0.64 0-0.157 0.895-0.31 1.79-0.469 2.685-0.141-0.891-0.207-1.791-0.323-2.684-0.256-0.001-0.513-0.002-0.769-0.002M24.557 13.406c-0.391 1.977-0.801 3.95-1.199 5.926 0.256 0.001 0.514-0.001 0.771 0 0.105-0.526 0.215-1.051 0.328-1.575 0.324-0.002 0.649-0.002 0.973-0.004 0.13 0.523 0.222 1.054 0.338 1.58 0.266-0.001 0.53 0.001 0.796 0.003-0.421-1.976-0.815-3.957-1.237-5.932-0.258 0-0.514 0.001-0.77 0.002M27.372 13.404c0.005 1.976-0.006 3.952 0.006 5.929 0.754 0.001 1.508-0.002 2.262 0.001-0.001-0.228-0.001-0.455-0.001-0.683-0.507-0.001-1.013-0.001-1.518-0.001-0.003-1.749 0.001-3.498-0.002-5.247-0.249 0-0.498 0.001-0.747 0.001M30.449 13.403c0.010 1.978-0.013 3.955 0.012 5.933 0.246-0.001 0.493-0.003 0.741-0.004 0.103-0.925-0.25-1.964 0.29-2.79 0.276 0.927 0.521 1.863 0.797 2.79 0.268 0 0.536 0.001 0.803 0.001-0.335-1.295-0.725-2.576-1.038-3.875 0.263-0.708 0.656-1.36 0.954-2.053-0.289-0.002-0.578-0.001-0.866-0.002-0.318 0.616-0.605 1.247-0.931 1.859-0.015-0.619-0.004-1.239-0.008-1.858-0.251 0-0.503-0.001-0.754-0.001z"></path>
<path fill="#fff" d="M10.835 14.12c0.449-0.134 0.562 0.494 0.62 0.815 0.119 1.103 0.21 2.259-0.073 3.344-0.061 0.374-0.592 0.545-0.757 0.149-0.378-0.867-0.23-1.848-0.255-2.768 0.053-0.517 0-1.197 0.466-1.54z"></path>
<path fill="#fff" d="M7.030 15.789c0.010-0.543 0.001-1.086 0.013-1.629 0.302 0.045 0.717-0.062 0.918 0.231 0.163 0.378 0.162 0.831 0.026 1.218-0.237 0.281-0.639 0.169-0.957 0.18z"></path>
<path fill="#fff" d="M24.622 16.982c0.112-0.51 0.213-1.022 0.344-1.528 0.105 0.509 0.203 1.019 0.307 1.528-0.217 0.001-0.434 0.001-0.651 0z"></path>
<path fill="#2b2e34" d="M2.102 0.678c10.424-0.048 20.852-0.008 31.277-0.020 0.922-0.040 1.767 0.775 1.731 1.703 0 6.426 0.003 12.852-0.002 19.278 0.005 0.904-0.832 1.681-1.729 1.639-10.339 0.002-20.677 0-31.016 0.001-0.899 0.047-1.734-0.735-1.729-1.639-0.008-6.425-0.001-12.852-0.003-19.277-0.026-0.826 0.639-1.613 1.471-1.685M1.983 1.365c-0.464 0.144-0.741 0.627-0.709 1.1 0.003 6.357-0.004 12.714 0.004 19.071-0.037 0.59 0.485 1.141 1.084 1.092 10.34 0.001 20.679 0.002 31.019 0 0.598 0.041 1.123-0.499 1.086-1.093 0.001-6.39 0.006-12.783-0.002-19.173 0.023-0.583-0.51-1.090-1.090-1.052-10.3-0.008-20.601 0-30.902-0.004-0.164 0.005-0.331 0.011-0.489 0.059z"></path>
<path fill="#2b2e34" d="M0 2.113l0.133 0.145c0.027 6.493-0.011 12.987 0.019 19.48l-0.151-0.061v-19.565z"></path>
<path fill="#2b2e34" d="M24.435 4.217c-0.121-0.435 0.456-0.769 0.797-0.509 1.845 1.236 3.677 2.492 5.519 3.733-1.825 1.24-3.647 2.489-5.486 3.709-0.32 0.283-0.902-0.004-0.834-0.435 0.116-0.621 0.363-1.21 0.512-1.824-2.055-0.007-4.11 0.008-6.165-0.007 0.002-0.962 0.002-1.923 0-2.885 2.055 0.001 4.111 0.003 6.167-0.001-0.155-0.597-0.379-1.177-0.51-1.781z"></path>
<path fill="#2b2e34" d="M9.841 6.735c-0.455-0.824 0.055-1.995 0.985-2.189 0.937-0.268 1.886 0.542 1.873 1.491-0.263 0.001-0.524 0-0.787 0.001-0.041-0.729-1.117-0.938-1.383-0.249-0.26 0.864 0.88 1.022 1.325 1.515 0.78 0.562 1.105 1.708 0.574 2.546-0.423 0.759-1.5 1.032-2.23 0.557-0.552-0.339-0.8-0.996-0.829-1.618 0.27-0.002 0.541-0.004 0.812-0.004 0.063 0.425 0.237 0.959 0.74 1.013 0.675 0.119 1.189-0.719 0.872-1.295-0.46-0.783-1.516-0.96-1.95-1.769z"></path>
<path fill="#2b2e34" d="M5.073 4.611c0.276 0.019 0.59-0.064 0.842 0.049 0.028 1.433-0.010 2.867 0.015 4.299-0.006 0.46 0.394 0.899 0.871 0.848 0.48-0.003 0.776-0.51 0.749-0.948 0.004-1.417 0-2.835 0.001-4.252 0.284 0.001 0.569 0.005 0.853 0.010-0.015 1.481 0.016 2.963-0.014 4.444-0.021 0.971-1.045 1.779-1.994 1.537-0.745-0.158-1.336-0.86-1.316-1.631-0.014-1.452-0.002-2.905-0.006-4.357z"></path>
<path fill="#2b2e34" d="M13.687 4.61c0.929-0.002 1.858-0.001 2.787-0.001 0 0.277-0.001 0.553-0.001 0.83-0.644 0.001-1.287 0-1.93 0-0.001 0.5-0.001 0.999 0 1.499 0.409 0.002 0.818 0.001 1.227 0.002 0.001 0.268 0.002 0.536 0.003 0.803-0.411 0.001-0.821 0.001-1.231 0 0.002 0.652 0 1.303 0.001 1.955 0.72 0.006 1.441 0.001 2.161 0.004 0.001 0.278 0.002 0.556 0.002 0.834-1.006 0.002-2.013 0.002-3.019 0-0.001-1.976-0.001-3.951 0-5.927z"></path>
<path fill="#2b2e34" d="M3.604 13.378c0.755-0.278 1.571 0.286 1.605 1.085-0.246 0.003-0.492 0.002-0.739 0.001-0.107-0.45-0.743-0.498-0.858-0.031-0.29 1.038-0.204 2.145-0.141 3.21 0.072 0.362 0.072 0.97 0.548 1.022 0.387 0.029 0.359-0.461 0.42-0.722 0.251 0 0.503 0 0.754 0.001-0.016 0.378-0.008 0.796-0.247 1.113-0.531 0.639-1.773 0.482-2.024-0.35-0.369-1.221-0.304-2.53-0.182-3.784 0.076-0.581 0.213-1.351 0.864-1.544z"></path>
<path fill="#2b2e34" d="M13.506 13.811c0.364-0.555 1.244-0.661 1.726-0.203 0.302 0.285 0.358 0.717 0.44 1.103-0.255 0.004-0.51 0.005-0.764 0.007 0.023-0.389-0.341-0.892-0.727-0.53-0.474 0.604 0.127 1.25 0.543 1.68 0.715 0.743 1.197 1.916 0.755 2.913-0.327 0.731-1.384 0.871-1.948 0.342-0.337-0.327-0.404-0.817-0.446-1.261 0.25-0.002 0.502-0.004 0.752-0.006-0.069 0.505 0.515 1.146 0.935 0.623 0.431-1.018-0.522-1.869-1.098-2.594-0.48-0.564-0.599-1.45-0.168-2.074z"></path>
<path fill="#2b2e34" d="M16.61 13.829c0.352-0.568 1.236-0.681 1.728-0.237 0.309 0.289 0.385 0.724 0.451 1.123-0.252 0.001-0.505 0.001-0.756 0-0.034-0.323-0.196-0.793-0.616-0.616-0.507 0.341-0.276 1.085 0.122 1.421 0.8 0.781 1.483 1.915 1.144 3.065-0.215 0.81-1.297 1.116-1.941 0.616-0.41-0.315-0.482-0.86-0.538-1.338 0.251-0.003 0.503-0.008 0.755-0.012 0.053 0.3 0.085 0.729 0.453 0.805 0.374 0.099 0.643-0.294 0.592-0.631 0.005-0.893-0.722-1.504-1.224-2.155-0.46-0.56-0.582-1.421-0.172-2.042z"></path>
<path fill="#2b2e34" d="M6.29 13.404c0.756 0.048 1.742-0.217 2.266 0.499 0.443 0.761 0.461 1.947-0.323 2.5 0.184 0.981 0.409 1.953 0.594 2.934-0.256-0.002-0.513-0.004-0.769-0.003-0.238-0.918-0.425-1.848-0.667-2.766-0.118 0-0.237-0.002-0.355-0.006-0.001 0.926 0.008 1.851-0.005 2.776-0.246-0.001-0.492-0.004-0.739-0.006-0.004-1.976-0.002-3.951-0.001-5.927M7.030 15.789c0.318-0.011 0.72 0.101 0.957-0.18 0.136-0.386 0.137-0.839-0.026-1.218-0.201-0.293-0.616-0.185-0.918-0.231-0.012 0.543-0.003 1.086-0.013 1.629z"></path>
<path fill="#2b2e34" d="M10.445 13.439c0.553-0.272 1.293-0.061 1.564 0.508 0.413 0.849 0.324 1.824 0.34 2.741-0.016 0.779-0.005 1.635-0.465 2.304-0.439 0.652-1.557 0.576-1.913-0.122-0.466-0.854-0.352-1.865-0.373-2.801 0.029-0.897-0.042-2.112 0.847-2.631M10.835 14.12c-0.466 0.343-0.413 1.023-0.466 1.54 0.026 0.92-0.123 1.9 0.255 2.768 0.165 0.396 0.696 0.225 0.757-0.149 0.283-1.085 0.193-2.24 0.073-3.344-0.058-0.32-0.171-0.949-0.62-0.815z"></path>
<path fill="#2b2e34" d="M19.234 13.403c0.256 0 0.513 0.001 0.769 0.002 0.116 0.893 0.182 1.793 0.323 2.684 0.159-0.895 0.312-1.79 0.469-2.685 0.213-0.001 0.426-0.001 0.64 0 0.165 0.888 0.313 1.778 0.473 2.666 0.146-0.884 0.21-1.778 0.322-2.666 0.255 0 0.512-0.001 0.769-0.001-0.224 1.978-0.457 3.955-0.687 5.933-0.212-0.002-0.425-0.004-0.638-0.007-0.207-1.062-0.335-2.138-0.57-3.194-0.216 1.061-0.354 2.136-0.541 3.202-0.213-0.003-0.426-0.005-0.64-0.008-0.24-1.975-0.456-3.951-0.691-5.926z"></path>
<path fill="#2b2e34" d="M24.557 13.406c0.256-0.001 0.513-0.002 0.77-0.002 0.422 1.975 0.816 3.956 1.237 5.932-0.266-0.002-0.53-0.004-0.796-0.003-0.115-0.526-0.208-1.057-0.338-1.58-0.324 0.002-0.649 0.002-0.973 0.004-0.112 0.524-0.222 1.049-0.328 1.575-0.258-0.001-0.515 0.001-0.771 0 0.398-1.976 0.808-3.949 1.199-5.926M24.622 16.982c0.217 0.001 0.434 0.001 0.651 0-0.104-0.509-0.202-1.019-0.307-1.528-0.131 0.506-0.232 1.018-0.344 1.528z"></path>
<path fill="#2b2e34" d="M27.372 13.404c0.249 0 0.498-0.001 0.747-0.001 0.003 1.749-0.001 3.498 0.002 5.247 0.506 0 1.011 0 1.518 0.001 0 0.228 0 0.455 0.001 0.683-0.754-0.003-1.508 0-2.262-0.001-0.012-1.977-0.001-3.953-0.006-5.929z"></path>
<path fill="#2b2e34" d="M30.449 13.403c0.251 0 0.503 0.001 0.754 0.001 0.004 0.619-0.007 1.239 0.008 1.858 0.327-0.612 0.613-1.243 0.931-1.859 0.288 0.001 0.577 0 0.866 0.002-0.298 0.693-0.691 1.345-0.954 2.053 0.313 1.299 0.704 2.58 1.038 3.875-0.268 0-0.536-0.001-0.803-0.001-0.276-0.927-0.521-1.863-0.797-2.79-0.541 0.826-0.187 1.865-0.29 2.79-0.247 0.001-0.494 0.003-0.741 0.004-0.026-1.978-0.002-3.955-0.012-5.933z"></path>
<path fill="#2b2e34" d="M1.997 23.892c0.060-0.031 0.177-0.091 0.237-0.122 10.45-0.002 20.901-0.006 31.35 0.002l0.146 0.117c-0.048 0.004-0.146 0.012-0.195 0.016-10.446-0.014-20.892-0.018-31.338 0.001-0.049-0.004-0.15-0.011-0.201-0.015z"></path>
<path fill="#959799" d="M35.548 1.841c0.027-0.055 0.080-0.165 0.107-0.22 0.022 0.062 0.066 0.184 0.088 0.246v20.301c-0.239 0.903-1.037 1.717-2.012 1.722l-0.146-0.117c1.055-0.15 2.012-1.039 1.971-2.153 0.005-6.592 0.021-13.187-0.008-19.779z"></path>
<path fill="#959799" d="M0 21.677l0.151 0.061c0.116 1.075 1.013 1.926 2.083 2.032-0.060 0.031-0.177 0.091-0.237 0.122-0.964-0.029-1.756-0.843-1.997-1.74v-0.475z"></path>
<path fill="#f2f2f2" d="M2.198 23.907c10.446-0.019 20.892-0.015 31.338-0.001l-0.162 0.094h-31.020l-0.157-0.093z"></path>
</svg>
