<svg xmlns="http://www.w3.org/2000/svg" width="24" height="24">
    <path fill="#fff" d="M11.103 0h1.815c1.773.157 3.523.668 5.063 1.569a12.068 12.068 0 0 1 5.378 6.477c.35.986.544 2.019.642 3.059v1.809c-.158 1.774-.668 3.525-1.57 5.066-1.537 2.7-4.162 4.757-7.155 5.592-.765.225-1.556.34-2.347.428h-1.844c-1.728-.152-3.43-.645-4.944-1.499C3.519 21.04 1.477 18.568.56 15.708c-.299-.9-.461-1.838-.559-2.778v-1.849c.097-.982.274-1.959.593-2.895a12.07 12.07 0 0 1 5.048-6.39C7.279.759 9.176.161 11.103.001zm.263.596a11.375 11.375 0 0 0-6.022 2.123A11.448 11.448 0 0 0 .775 9.872c-.615 3.175.203 6.593 2.206 9.134a11.443 11.443 0 0 0 7.005 4.239c1.884.336 3.854.195 5.667-.421 2.805-.934 5.203-3.014 6.533-5.654 1.562-3.029 1.649-6.766.229-9.864a11.462 11.462 0 0 0-6.146-5.903 11.378 11.378 0 0 0-4.902-.807z"/>
    <path fill="#fff" d="M7.03 2.387a10.835 10.835 0 0 1 10.99.618c-.84.852-1.692 1.692-2.535 2.542-.044.038-.082.09-.142.103-1.251.298-2.363 1.314-2.59 2.608-.425.466-.889.904-1.337 1.35.116-1.171-.326-2.387-1.218-3.165-.964-.909-2.441-1.136-3.676-.72-1.243.435-2.204 1.598-2.386 2.904-.088.621-.06 1.277.195 1.857.231.511.6.945 1.001 1.331-.839.568-1.406 1.514-1.454 2.532-.06.796.08 1.622.49 2.315-.451.455-.903.908-1.359 1.358C1.25 15.427.721 12.052 1.592 9.043c.792-2.843 2.815-5.31 5.44-6.655zM16.361 5.524c.715-.723 1.436-1.441 2.158-2.159.078.06.157.119.237.177a237.12 237.12 0 0 1-2.006 2.006 16.816 16.816 0 0 0-.388-.023zM17.455 5.695c.591-.584 1.174-1.177 1.765-1.76.073.067.144.135.216.204-.562.561-1.121 1.125-1.686 1.683a26.17 26.17 0 0 0-.295-.127zM18.314 6.112l1.547-1.547c.069.071.137.144.203.218-.5.502-1.001 1.003-1.503 1.503l-.248-.174zM19.017 6.684c.48-.48.955-.966 1.443-1.438.057.079.116.158.176.235-.472.477-.947.95-1.422 1.423l-.197-.221zM19.544 7.43c.481-.485.963-.969 1.45-1.448 1.654 2.444 2.227 5.581 1.55 8.453-.65 2.887-2.557 5.456-5.121 6.93a10.816 10.816 0 0 1-7.858 1.178 10.745 10.745 0 0 1-3.583-1.549c.858-.848 1.694-1.736 2.577-2.551 1.498-.261 2.825-1.507 3.033-3.037l.004-.027c.349-.356.704-.707 1.058-1.059-.02.774.013 1.582.369 2.287.377.778 1.1 1.345 1.89 1.665 1.408.563 3.121.17 4.147-.946.608-.645.86-1.548.862-2.418.002-1.89 0-3.781.001-5.671.002-.619-.104-1.247-.38-1.805z"/>
    <path fill="#fff" d="M7.563 7.425c.645-.071 1.324.218 1.701.749.311.473.336 1.085.205 1.622-.201.781-1.05 1.252-1.822 1.201-.713-.039-1.446-.515-1.609-1.24-.124-.557-.086-1.199.275-1.665a1.882 1.882 0 0 1 1.251-.667zM15.661 7.502c.162-.044.328-.067.495-.083-.527.524-1.045 1.057-1.58 1.573a2.41 2.41 0 0 1 .07-.463c.317-.36.671-.692 1.016-1.027zM14.521 9.915c.794-.813 1.601-1.613 2.408-2.412l.273.143c-.884.888-1.772 1.77-2.655 2.659a12.76 12.76 0 0 0-.026-.39zM14.523 11.186c1.037-1.059 2.093-2.1 3.141-3.149l.16.256c-1.092 1.095-2.185 2.19-3.282 3.281 0-.13-.009-.259-.019-.388zM14.527 12.454a383.995 383.995 0 0 1 3.495-3.496c.041 1.889.006 3.779.018 5.668.014.56-.108 1.171-.535 1.567-.847.818-2.545.504-2.859-.695-.226-.995-.043-2.032-.119-3.043zM10.754 11.159c.601-.67 1.265-1.283 1.897-1.925-.001.13.007.261.016.391-.757.781-1.537 1.541-2.303 2.313a10.569 10.569 0 0 1-.173-.119c.197-.212.413-.41.563-.661zM10.804 12.349c.613-.616 1.229-1.229 1.843-1.844.006.128.014.257.018.386-.532.579-1.116 1.122-1.667 1.688l-.193-.229zM12.649 11.776l.01.411c-.402.407-.809.81-1.213 1.215l-.124-.3c.443-.442.884-.885 1.327-1.326zM6.303 13.288c.501-.526 1.285-.731 1.985-.548-.823.827-1.647 1.652-2.475 2.474-.168-.669-.023-1.44.49-1.926zM6.087 15.795c.927-.93 1.855-1.858 2.785-2.785l.241.176c-.939.945-1.883 1.885-2.826 2.827l-.201-.218zM12.649 13.051l.012.405c-.332.341-.674.673-1.008 1.012-.013-.125-.026-.25-.041-.375.34-.353.692-.695 1.038-1.043zM6.763 16.391c.912-.915 1.827-1.827 2.74-2.741.05.089.099.178.15.266-.86.874-1.732 1.737-2.599 2.603a12.799 12.799 0 0 1-.291-.129zM9.779 14.647c-.007.15-.02.301-.035.451a72.518 72.518 0 0 1-1.495 1.492c-.152.031-.307.04-.461.056.656-.674 1.328-1.332 1.991-1.998zM3.366 18.519c.446-.455.902-.901 1.35-1.355l.216.204c-.463.462-.918.933-1.392 1.383a8.297 8.297 0 0 0-.174-.233zM3.937 19.218c.481-.486.966-.968 1.449-1.451l.249.172-1.496 1.495a6.942 6.942 0 0 1-.203-.217zM4.565 19.86c.547-.546 1.09-1.095 1.641-1.638l.297.125c-.576.57-1.144 1.146-1.72 1.716a10.654 10.654 0 0 1-.218-.203zM5.248 20.449c.657-.65 1.305-1.308 1.963-1.957l.381.032c-.699.707-1.404 1.409-2.109 2.111a4.653 4.653 0 0 1-.234-.186z"/>
    <path d="M11.366.596c1.666-.097 3.354.18 4.902.807a11.459 11.459 0 0 1 6.146 5.903c1.42 3.098 1.334 6.835-.229 9.864a11.457 11.457 0 0 1-6.533 5.654 11.443 11.443 0 0 1-5.667.421 11.449 11.449 0 0 1-7.005-4.239C.977 16.465.159 13.047.774 9.872a11.448 11.448 0 0 1 4.569-7.153A11.375 11.375 0 0 1 11.365.596zM7.03 2.387C4.405 3.732 2.382 6.199 1.59 9.042c-.871 3.009-.341 6.384 1.417 8.977.456-.449.908-.903 1.359-1.358.485-.48.968-.963 1.447-1.448.827-.822 1.652-1.647 2.475-2.474 1.044-1.042 2.093-2.083 3.127-3.131.449-.446.912-.884 1.337-1.35.726-.681 1.412-1.405 2.122-2.103.154-.17.348-.307.468-.505.06-.013.098-.065.142-.103.843-.849 1.695-1.689 2.535-2.542a10.835 10.835 0 0 0-10.99-.618zm9.331 3.137h-.008c-1.23 1.241-2.475 2.47-3.703 3.711-.632.641-1.296 1.255-1.897 1.925-.657.582-1.251 1.239-1.882 1.851-.93.927-1.858 1.856-2.785 2.785-.459.455-.913.915-1.372 1.369-.448.454-.904.9-1.35 1.355.059.076.117.154.174.233.474-.45.929-.922 1.392-1.383.455-.449.905-.903 1.357-1.355.942-.942 1.886-1.883 2.826-2.827.419-.413.833-.832 1.25-1.248.766-.772 1.546-1.532 2.303-2.313 1.37-1.35 2.725-2.715 4.083-4.078.673-.664 1.342-1.333 2.006-2.006-.08-.058-.158-.117-.237-.177-.721.718-1.442 1.436-2.158 2.159zm1.094.171c-.594.607-1.208 1.194-1.794 1.807-.345.334-.699.667-1.016 1.027-.687.636-1.328 1.322-1.998 1.976-.614.615-1.23 1.228-1.843 1.844-.435.433-.868.867-1.302 1.301-.913.914-1.828 1.826-2.74 2.741-.46.458-.918.916-1.376 1.376-.484.483-.968.965-1.449 1.451.066.074.134.146.203.217l1.496-1.495c.473-.473.947-.945 1.418-1.42.867-.867 1.739-1.729 2.599-2.603.455-.439.896-.893 1.345-1.338.552-.565 1.135-1.109 1.667-1.688.654-.613 1.283-1.264 1.911-1.899.535-.517 1.053-1.049 1.58-1.573.532-.531 1.066-1.061 1.594-1.597.565-.557 1.124-1.122 1.686-1.683a13.746 13.746 0 0 0-.216-.204c-.591.584-1.174 1.177-1.765 1.76zm.859.417c-.461.464-.93.921-1.384 1.391-.808.799-1.615 1.599-2.408 2.412-.634.61-1.247 1.242-1.872 1.861-.443.442-.884.885-1.327 1.326-.514.515-1.03 1.028-1.544 1.545-.663.667-1.335 1.324-1.991 1.998-.534.517-1.057 1.05-1.582 1.577-.551.542-1.094 1.092-1.641 1.638.071.069.144.137.218.203.576-.57 1.144-1.147 1.72-1.716.578-.59 1.175-1.162 1.746-1.758.508-.487 1.002-.99 1.495-1.492.574-.559 1.134-1.131 1.703-1.696.405-.405.811-.808 1.213-1.215.631-.625 1.256-1.257 1.887-1.883.883-.888 1.772-1.771 2.655-2.659.455-.452.908-.905 1.359-1.36.502-.5 1.003-1 1.503-1.503a10.654 10.654 0 0 0-.203-.218c-.517.515-1.032 1.031-1.547 1.547zm.703.572c-.453.449-.904.9-1.353 1.353-1.047 1.049-2.104 2.09-3.141 3.149-.635.611-1.249 1.244-1.874 1.865-.346.348-.698.69-1.038 1.043-1.472 1.461-2.936 2.93-4.401 4.399-.658.649-1.305 1.307-1.963 1.957.076.065.154.126.234.186.705-.702 1.41-1.403 2.109-2.111l.008.001c1.347-1.357 2.702-2.705 4.053-4.057.334-.339.676-.671 1.008-1.012.63-.624 1.258-1.252 1.882-1.882 1.097-1.091 2.19-2.185 3.282-3.281.465-.46.928-.924 1.389-1.388.475-.473.95-.946 1.422-1.423a7.982 7.982 0 0 1-.176-.235c-.487.472-.962.958-1.443 1.438zm.527.746c-.509.507-1.025 1.012-1.522 1.527a397.234 397.234 0 0 0-3.495 3.496c-.633.613-1.25 1.243-1.873 1.865-.354.352-.709.703-1.058 1.059l-.004.027c-.212.155-.377.362-.568.541-.817.837-1.677 1.636-2.466 2.496-.883.815-1.718 1.703-2.577 2.551a10.728 10.728 0 0 0 3.583 1.549c2.642.622 5.515.194 7.858-1.178 2.564-1.474 4.471-4.043 5.121-6.93.677-2.872.104-6.009-1.55-8.453-.487.479-.969.963-1.45 1.448z"/>
    <path fill="gray" d="M16.354 5.524h.008c.129.007.259.014.388.023-1.357 1.362-2.713 2.728-4.083 4.078a5.11 5.11 0 0 1-.016-.391c1.229-1.241 2.474-2.469 3.703-3.711zM6.52 5.723c1.236-.416 2.712-.189 3.676.72.893.778 1.334 1.994 1.218 3.165-1.034 1.048-2.083 2.09-3.127 3.131-.7-.183-1.484.022-1.985.548-.513.486-.658 1.257-.49 1.926-.48.485-.962.968-1.447 1.448-.411-.693-.55-1.519-.49-2.315.048-1.018.615-1.964 1.454-2.532-.401-.386-.77-.82-1.001-1.331-.255-.58-.283-1.237-.195-1.857.182-1.306 1.143-2.468 2.386-2.904zm1.043 1.702a1.882 1.882 0 0 0-1.251.667c-.361.466-.399 1.108-.275 1.665.163.725.896 1.201 1.609 1.24.773.051 1.621-.42 1.822-1.201.131-.537.106-1.149-.205-1.622-.377-.531-1.056-.82-1.701-.749zM12.752 8.258c.228-1.294 1.339-2.31 2.59-2.608-.12.198-.314.336-.468.505-.71.698-1.396 1.422-2.122 2.103zM15.661 7.502c.586-.613 1.2-1.2 1.794-1.807l.295.127c-.528.536-1.062 1.065-1.594 1.597-.166.017-.333.04-.495.083zM16.929 7.502c.455-.47.923-.927 1.384-1.391l.248.174c-.452.455-.905.908-1.359 1.36l-.273-.143zM17.664 8.038c.449-.454.9-.904 1.353-1.353l.197.221c-.462.464-.924.928-1.389 1.388l-.16-.256zM18.022 8.957c.497-.516 1.013-1.02 1.522-1.527.276.558.382 1.186.38 1.805 0 1.89.001 3.781-.001 5.671-.003.87-.255 1.774-.863 2.418-1.026 1.117-2.739 1.509-4.147.946-.79-.319-1.513-.887-1.89-1.665-.356-.706-.389-1.513-.369-2.288.623-.622 1.239-1.253 1.873-1.865.075 1.011-.108 2.048.119 3.043.314 1.199 2.013 1.514 2.859.695.428-.396.549-1.007.535-1.567-.012-1.889.023-3.779-.018-5.668zM12.647 10.505c.67-.654 1.312-1.341 1.998-1.976a2.41 2.41 0 0 0-.07.463c-.628.635-1.257 1.286-1.911 1.899-.004-.129-.012-.257-.018-.386zM12.649 11.776c.625-.619 1.238-1.251 1.872-1.861.011.129.019.259.026.39-.631.626-1.256 1.258-1.887 1.883l-.01-.411zM8.872 13.01c.631-.612 1.225-1.269 1.882-1.851-.15.251-.366.449-.563.661l.173.119c-.417.415-.831.834-1.25 1.248l-.241-.176zM12.649 13.051c.625-.621 1.239-1.253 1.874-1.865.01.129.019.258.019.388-.623.63-1.252 1.257-1.882 1.882l-.012-.405zM9.502 13.65c.434-.434.867-.868 1.302-1.301l.193.229c-.449.445-.89.899-1.345 1.338l-.15-.266zM9.779 14.647c.513-.517 1.029-1.03 1.544-1.545l.124.3c-.568.565-1.128 1.137-1.702 1.696.015-.15.029-.3.035-.451zM7.21 18.492c1.465-1.469 2.929-2.938 4.401-4.399.015.125.029.25.041.375-1.351 1.352-2.707 2.7-4.053 4.057l-.008-.001-.381-.032zM11.025 15.946c.191-.179.356-.386.568-.541-.209 1.53-1.536 2.776-3.033 3.037.789-.86 1.649-1.659 2.466-2.496zM4.715 17.164c.459-.454.913-.914 1.372-1.369.067.073.133.146.201.218-.452.451-.902.906-1.357 1.355l-.216-.204zM5.386 17.767c.458-.46.916-.918 1.376-1.376l.291.129c-.471.475-.945.947-1.418 1.42l-.249-.172zM6.206 18.223c.525-.528 1.047-1.06 1.582-1.577.154-.015.309-.024.461-.056-.57.597-1.168 1.169-1.746 1.758l-.297-.125z"/>
</svg>
