<!-- Generated by IcoMoon.io -->
<svg version="1.1" xmlns="http://www.w3.org/2000/svg" width="24" height="24" viewBox="0 0 24 24">
<title>regulatory--mopeds-and-bicycles-only--g1</title>
<path fill="#0e518d" d="M10.658 0h2.689c2.904 0.409 5.71 1.759 7.638 4.001-0.018 0.289 0.157 0.619 0.488 0.581 0.215 0.269 0.416 0.548 0.601 0.838-0.111 0.226 0.064 0.473 0.294 0.518 0.014 0.025 0.043 0.077 0.058 0.104 0.108 0.458 0.295 0.902 0.628 1.245 0.009 0.022 0.029 0.068 0.039 0.090 0.375 1.537 0.898 3.077 0.824 4.69 0.075 1.006-0.236 1.976-0.277 2.973-0.97 3.951-4.153 7.238-8.031 8.431-0.738 0.254-1.516 0.342-2.271 0.529h-2.66c-4.416-0.544-8.442-3.596-9.95-7.812-0.367-0.917-0.513-1.894-0.727-2.851v-2.658c0.542-4.383 3.546-8.383 7.718-9.916 0.943-0.387 1.951-0.544 2.94-0.762M9.689 3.913c-0.413 0.843-0.732 1.731-1.103 2.594-0.125-0.003-0.249-0.004-0.374-0.007-0.041-0.147-0.081-0.294-0.121-0.441-0.316-0.001-0.631 0.022-0.939 0.092 0.029 0.111 0.084 0.333 0.113 0.445-0.719 0.33-1.311 0.986-1.393 1.797-0.189 1.192 0.78 2.4 1.983 2.477 1.158 0.14 2.295-0.792 2.397-1.95 0.115-0.841-0.334-1.656-1.011-2.131 0.098-0.257 0.206-0.511 0.321-0.761 0.544 0.825 1.040 1.68 1.562 2.521 0.492 0.876 1.639 0.351 2.439 0.514 0.201 1.112 1.309 1.969 2.441 1.802 1.25-0.113 2.198-1.439 1.894-2.658-0.223-1.178-1.523-1.987-2.681-1.669-0.862 0.189-1.482 0.94-1.68 1.777-0.543 0.003-1.085-0.003-1.628 0.004-0.16-0.199-0.313-0.404-0.454-0.616 0.126-0.511 0.412-0.989 0.46-1.511-0.181-0.341-0.387-0.669-0.611-0.984-0.443-0.098-0.911-0.022-1.363-0.063 0.109-0.302 0.241-0.594 0.384-0.881 0.336 0.012 0.671 0.007 1.007-0.017-0.005-0.245-0.009-0.491-0.012-0.736-0.546 0.030-1.31-0.185-1.634 0.403M13.551 5.179c-0.434 0.050-0.168 0.504-0.038 0.72 0.201 0.282 0.289 0.864 0.748 0.77 0.805-0.825 2.041-0.481 3.066-0.644-0.005-0.289-0.017-0.578-0.033-0.867-1.247 0.014-2.497-0.029-3.743 0.021M9.809 12.035c-0.355 0.852-0.627 1.739-0.939 2.609-1.018-0.226-2.168 0.181-2.686 1.115-0.692 1.123-0.211 2.745 0.981 3.309 1.163 0.633 2.757 0.042 3.242-1.186 0.505-1.099-0.021-2.417-1.015-3.037 0.064-0.169 0.13-0.337 0.195-0.506 0.876 0.956 1.702 1.957 2.593 2.9 0.353-0.008 0.707-0.004 1.061-0.009 0.201 1.13 1.176 2.114 2.365 2.093 1.436 0.066 2.666-1.391 2.358-2.797-0.207-1.364-1.715-2.243-3.019-1.857-0.219-0.431-0.421-0.871-0.614-1.313 0.088-0.197 0.177-0.391 0.268-0.585 0.201-0.008 0.4-0.017 0.601-0.026 0-0.111 0-0.334 0-0.446-0.732 0.024-1.478-0.076-2.201 0.055-0.247 0.581 0.658 0.363 0.973 0.408-0.064 0.125-0.127 0.25-0.19 0.376-1.256 0.008-2.513 0.005-3.77 0.001 0.047-0.727 0.643-0.993 1.3-0.847 0.009-0.194 0.005-0.39-0.022-0.582-0.484 0.073-1.184-0.195-1.479 0.327z"></path>
<path fill="#0e518d" d="M6.628 8.967c-0.231-0.967 0.681-1.883 1.645-1.764-0.169 0.542-0.46 1.039-0.602 1.588 0.042 0.351 0.517 0.33 0.656 0.058 0.253-0.431 0.392-0.919 0.622-1.364 0.745 0.574 0.775 1.819-0.013 2.367-0.803 0.65-2.148 0.136-2.307-0.885z"></path>
<path fill="#0e518d" d="M14.308 8.316c0.226-0.862 1.262-1.37 2.067-0.96 0.927 0.392 1.117 1.773 0.346 2.412-0.767 0.738-2.132 0.3-2.41-0.706 0.515-0.033 1.035 0.012 1.55-0.028 0.341-0.031 0.452-0.624 0.077-0.686-0.54-0.063-1.087-0.004-1.63-0.033z"></path>
<path fill="#0e518d" d="M9.82 13.734c1.228-0.014 2.456-0.005 3.684-0.005-0.424 0.905-0.82 1.824-1.285 2.708-0.805-0.897-1.609-1.793-2.399-2.703z"></path>
<path fill="#0e518d" d="M12.782 16.656c0.399-0.875 0.809-1.744 1.225-2.611 0.144 0.281 0.282 0.565 0.407 0.856-0.611 0.399-1.023 1.037-1.151 1.756-0.119 0-0.361-0.001-0.48-0.001z"></path>
<path fill="#0e518d" d="M6.509 16.476c0.227-0.922 1.239-1.477 2.149-1.272-0.197 0.653-0.489 1.275-0.643 1.942 0.131 0.123 0.303 0.165 0.479 0.159 0.278-0.606 0.45-1.252 0.703-1.87 1.184 0.724 1.016 2.696-0.298 3.171-1.293 0.602-2.835-0.779-2.391-2.13z"></path>
<path fill="#0e518d" d="M15.196 15.203c0.914-0.203 1.928 0.354 2.157 1.279 0.306 1.002-0.455 2.14-1.496 2.24-0.926 0.143-1.853-0.563-1.988-1.483 0.622-0.029 1.247 0.034 1.868-0.033 0.206-0.016 0.25-0.274 0.169-0.428-0.209-0.538-0.493-1.041-0.71-1.575z"></path>
<path fill="#0e518d" d="M13.856 16.649c0.114-0.489 0.4-0.918 0.804-1.213 0.201 0.401 0.388 0.808 0.57 1.217-0.459 0.007-0.917 0.007-1.374-0.004z"></path>
<path fill="#f7fbf5" d="M9.689 3.913c0.324-0.588 1.089-0.372 1.634-0.403 0.003 0.245 0.007 0.49 0.012 0.736-0.336 0.024-0.671 0.029-1.007 0.017-0.143 0.287-0.275 0.58-0.384 0.881 0.451 0.041 0.919-0.035 1.363 0.063 0.224 0.315 0.43 0.643 0.611 0.984-0.049 0.522-0.334 0.999-0.46 1.511 0.14 0.212 0.294 0.417 0.454 0.616 0.543-0.007 1.085-0.001 1.628-0.004 0.198-0.837 0.818-1.588 1.68-1.777 1.158-0.317 2.458 0.492 2.681 1.67 0.304 1.22-0.644 2.546-1.894 2.658-1.132 0.167-2.24-0.69-2.441-1.802-0.8-0.163-1.948 0.362-2.439-0.514-0.522-0.841-1.018-1.696-1.562-2.521-0.115 0.249-0.223 0.504-0.321 0.761 0.677 0.475 1.127 1.29 1.011 2.131-0.102 1.158-1.239 2.090-2.397 1.95-1.203-0.077-2.172-1.285-1.983-2.477 0.081-0.81 0.674-1.466 1.393-1.797-0.029-0.111-0.084-0.333-0.113-0.445 0.308-0.070 0.623-0.093 0.939-0.092 0.039 0.147 0.080 0.294 0.121 0.441 0.125 0.003 0.249 0.004 0.374 0.007 0.371-0.863 0.69-1.751 1.103-2.594M6.628 8.967c0.159 1.022 1.504 1.536 2.307 0.885 0.788-0.548 0.758-1.793 0.013-2.367-0.229 0.445-0.369 0.932-0.622 1.364-0.139 0.273-0.614 0.294-0.656-0.058 0.142-0.55 0.433-1.047 0.602-1.588-0.964-0.119-1.875 0.797-1.645 1.764M14.308 8.316c0.543 0.029 1.090-0.030 1.63 0.033 0.375 0.062 0.264 0.654-0.077 0.686-0.515 0.039-1.035-0.005-1.55 0.028 0.278 1.006 1.643 1.444 2.41 0.706 0.771-0.639 0.581-2.020-0.346-2.412-0.805-0.41-1.841 0.098-2.067 0.96z"></path>
<path fill="#f7fbf5" d="M20.985 4.001c0.186 0.173 0.348 0.37 0.488 0.581-0.33 0.038-0.506-0.292-0.488-0.581z"></path>
<path fill="#f7fbf5" d="M13.551 5.179c1.246-0.050 2.496-0.007 3.743-0.021 0.016 0.289 0.028 0.578 0.033 0.867-1.026 0.163-2.261-0.181-3.066 0.644-0.459 0.094-0.547-0.488-0.748-0.77-0.13-0.216-0.396-0.67 0.038-0.72z"></path>
<path fill="#f7fbf5" d="M22.073 5.42c0.126 0.155 0.231 0.327 0.294 0.518-0.23-0.045-0.405-0.292-0.294-0.518z"></path>
<path fill="#f7fbf5" d="M22.425 6.042c0.258 0.388 0.455 0.812 0.628 1.245-0.333-0.342-0.521-0.787-0.628-1.245z"></path>
<path fill="#f7fbf5" d="M23.092 7.377c0.489 1.056 0.683 2.209 0.908 3.34v2.534c-0.146 0.59-0.197 1.201-0.361 1.789 0.041-0.997 0.351-1.967 0.277-2.973 0.075-1.613-0.449-3.153-0.824-4.69z"></path>
<path fill="#f7fbf5" d="M9.809 12.035c0.295-0.522 0.995-0.253 1.479-0.327 0.028 0.193 0.031 0.388 0.022 0.582-0.657-0.146-1.252 0.121-1.3 0.847 1.258 0.004 2.514 0.007 3.77-0.001 0.063-0.126 0.126-0.252 0.19-0.376-0.315-0.045-1.22 0.173-0.973-0.408 0.723-0.131 1.469-0.031 2.201-0.055 0 0.111 0 0.334 0 0.446-0.201 0.009-0.4 0.018-0.601 0.026-0.090 0.194-0.18 0.388-0.268 0.585 0.193 0.442 0.395 0.881 0.614 1.313 1.304-0.386 2.812 0.493 3.019 1.857 0.308 1.406-0.922 2.863-2.358 2.797-1.188 0.021-2.164-0.963-2.365-2.093-0.354 0.005-0.708 0.001-1.061 0.009-0.89-0.943-1.717-1.944-2.593-2.9-0.066 0.169-0.131 0.337-0.195 0.506 0.994 0.62 1.52 1.938 1.015 3.037-0.485 1.228-2.079 1.819-3.242 1.186-1.192-0.564-1.673-2.186-0.981-3.309 0.518-0.934 1.668-1.34 2.686-1.115 0.312-0.87 0.584-1.756 0.939-2.609M9.82 13.734c0.79 0.91 1.593 1.806 2.399 2.703 0.466-0.884 0.862-1.803 1.285-2.708-1.228 0-2.456-0.009-3.684 0.005M12.782 16.656c0.119 0 0.361 0.001 0.48 0.001 0.129-0.719 0.54-1.357 1.151-1.756-0.125-0.291-0.262-0.576-0.407-0.856-0.416 0.867-0.826 1.736-1.225 2.611M6.509 16.476c-0.445 1.351 1.098 2.732 2.391 2.13 1.314-0.475 1.482-2.447 0.298-3.171-0.253 0.618-0.425 1.264-0.703 1.87-0.176 0.007-0.348-0.035-0.479-0.159 0.153-0.668 0.446-1.289 0.643-1.942-0.91-0.205-1.923 0.35-2.149 1.272M15.196 15.203c0.216 0.534 0.501 1.037 0.71 1.575 0.081 0.153 0.037 0.412-0.169 0.428-0.62 0.067-1.246 0.004-1.868 0.033 0.135 0.921 1.062 1.626 1.988 1.483 1.041-0.1 1.802-1.238 1.496-2.24-0.23-0.925-1.243-1.482-2.157-1.279M13.856 16.649c0.458 0.010 0.915 0.010 1.374 0.004-0.182-0.409-0.37-0.816-0.57-1.217-0.404 0.295-0.69 0.724-0.804 1.213z"></path>
</svg>
