<!-- Generated by IcoMoon.io -->
<svg version="1.1" xmlns="http://www.w3.org/2000/svg" width="19" height="24" viewBox="0 0 19 24">
<title>regulatory--maximum-speed-limit-20--g3</title>
<path fill="#fff" d="M0 0h18.882v0.872c-0.058-0.316-0.259-0.612-0.559-0.743-0.228-0.112-0.486-0.084-0.732-0.086-5.564 0-11.128 0-16.692 0-0.392-0.006-0.761 0.258-0.899 0.623v-0.666z"></path>
<path fill="#fff" d="M0.828 0.617c0.138-0.023 0.28-0.014 0.419-0.015 5.535 0.001 11.071-0.001 16.606 0.001 0.245-0.028 0.484 0.172 0.468 0.425 0.003 7.357 0.001 14.715 0.001 22.073 0.027 0.244-0.179 0.473-0.427 0.456-5.65 0.004-11.301 0.001-16.951 0.001-0.232 0.018-0.452-0.18-0.438-0.416-0.001-7.371 0-14.742-0-22.113-0.013-0.192 0.131-0.383 0.323-0.413M1.882 3.601c-0.179 0.335-0.116 0.797 0.186 1.042 0.385 0.328 0.952 0.25 1.355 0.539 0.234 0.203 0.065 0.583-0.203 0.66-0.466 0.197-0.985-0.039-1.266-0.429-0.151 0.096-0.3 0.199-0.448 0.301 0.47 0.647 1.437 0.965 2.143 0.517 0.531-0.316 0.596-1.171 0.092-1.54-0.395-0.223-0.868-0.25-1.273-0.449-0.194-0.089-0.187-0.388-0.012-0.492 0.397-0.231 0.892-0.037 1.19 0.269 0.138-0.117 0.277-0.233 0.414-0.351-0.336-0.373-0.845-0.618-1.354-0.566-0.332 0.024-0.67 0.197-0.825 0.501M8.431 3.118c-0.002 1.093-0.001 2.187-0 3.28 0.799 0 1.598 0.001 2.397-0 0.001-0.182 0.001-0.365 0-0.548-0.606-0.002-1.211 0.001-1.817-0.001 0-0.311-0-0.622 0-0.934 0.322-0.002 0.644 0 0.966-0.001 0.001-0.186 0.001-0.372 0-0.559-0.322-0.001-0.644 0.001-0.966-0.001-0.001-0.229-0.001-0.458-0-0.686 0.591-0.002 1.182 0 1.773-0.001 0.001-0.182 0.001-0.365 0-0.548-0.785-0.001-1.569-0-2.354-0M4.968 3.119c-0.001 1.097-0.001 2.193-0 3.289 0.19 0.001 0.38 0.001 0.57-0 0.001-0.433-0.001-0.866 0.001-1.299 0.535-0.042 1.133 0.123 1.608-0.198 0.483-0.318 0.548-1.083 0.141-1.488-0.218-0.221-0.536-0.302-0.838-0.302-0.494-0.005-0.988-0.001-1.482-0.002M11.474 3.119c-0.001 1.096-0.001 2.193 0 3.289 0.799 0.001 1.598 0.001 2.397-0 0-0.186 0-0.372 0-0.557-0.606-0.003-1.211 0-1.817-0.001 0-0.312-0-0.623 0-0.935 0.322-0.001 0.645 0.001 0.967-0.001 0.001-0.186 0.001-0.372 0-0.558-0.322-0.001-0.644 0.001-0.966-0.001-0.001-0.226-0.001-0.451 0-0.677 0.591-0.001 1.182 0.001 1.773-0.001 0.001-0.186 0.001-0.372 0-0.558-0.785-0.001-1.569-0.001-2.354 0M14.527 3.119c-0.001 1.096-0.001 2.193 0 3.289 0.649-0.018 1.378 0.106 1.937-0.311 0.831-0.594 0.848-1.985 0.068-2.628-0.557-0.476-1.332-0.323-2.005-0.351M3.409 8.054c0 1.093-0.001 2.186 0 3.279 0.795 0 1.591 0 2.386 0 0.001-0.183 0.001-0.365 0-0.548-0.605-0.001-1.211 0-1.816-0-0.002-0.91 0-1.82-0.001-2.73-0.19-0.001-0.38-0.001-0.57-0M6.388 8.054c-0.001 1.093-0.001 2.186 0 3.279 0.19 0.001 0.379 0.001 0.569-0 0-1.092 0-2.185 0-3.278-0.19-0.001-0.38-0.001-0.569 0M7.828 8.054c-0.001 1.093-0.001 2.187 0 3.28 0.186 0 0.372 0 0.557 0 0.003-0.666-0-1.332 0.001-1.998 0.3 0.652 0.596 1.305 0.898 1.957 0.322-0.652 0.628-1.313 0.95-1.965 0.003 0.669-0.001 1.338 0.002 2.006 0.186 0 0.372 0 0.557 0-0.002-1.093 0.020-2.186 0.011-3.279-0.196-0.001-0.391-0.001-0.587 0-0.306 0.649-0.614 1.297-0.923 1.945-0.307-0.648-0.612-1.297-0.92-1.945-0.183-0.001-0.366-0.001-0.549-0M11.678 8.054c-0.001 1.093-0.001 2.186 0 3.279 0.19 0.001 0.379 0.001 0.569-0 0-1.092 0-2.185 0-3.278-0.19-0.001-0.38-0.001-0.569 0M12.882 8.055c-0 0.178-0 0.357 0 0.536 0.297 0.002 0.594-0.001 0.891 0.001 0.002 0.914-0.001 1.827 0.001 2.741 0.193 0 0.386 0 0.58 0 0.002-0.914-0.001-1.828 0.001-2.741 0.301-0.002 0.601 0 0.902-0.001 0.001-0.179 0.001-0.358 0-0.537-0.792-0-1.584-0.001-2.376 0M12.837 13.060c-0.749 0.073-1.469 0.429-1.965 0.997-0.564 0.632-0.863 1.458-0.983 2.287-0.216 1.468 0.041 3.125 1.124 4.213 1.018 1.064 2.814 1.21 4.004 0.351 1.151-0.819 1.59-2.305 1.586-3.661 0.007-1.32-0.375-2.772-1.475-3.601-0.648-0.49-1.491-0.671-2.291-0.587M2.439 14.329c0.289 0.337 0.575 0.675 0.867 1.009 0.538-0.464 1.198-0.812 1.916-0.868 0.622-0.052 1.312-0.017 1.831 0.37 0.372 0.265 0.491 0.885 0.137 1.212-0.301 0.247-0.695 0.328-1.058 0.444-0.818 0.244-1.629 0.595-2.257 1.188-0.965 0.891-1.409 2.218-1.413 3.51 2.072 0.001 4.144 0.001 6.215 0 0.001-0.458 0.001-0.917 0-1.375-1.514-0.001-3.027 0-4.541-0 0.076-0.538 0.506-0.903 0.875-1.256 0.862-0.748 2.121-0.72 3.009-1.427 0.748-0.634 0.946-1.801 0.463-2.652-0.429-0.779-1.3-1.205-2.153-1.329-1.394-0.228-2.835 0.26-3.891 1.175z"></path>
<path fill="#fff" d="M5.538 3.689c0.334 0 0.668-0.004 1.002 0.001 0.235 0 0.489 0.182 0.469 0.437-0.004 0.244-0.243 0.405-0.471 0.409-0.333 0.006-0.667 0.001-1 0.001-0.001-0.283-0.001-0.565 0-0.848z"></path>
<path fill="#fff" d="M15.087 3.689c0.434-0.014 0.961-0.028 1.253 0.358 0.31 0.437 0.336 1.128-0.059 1.523-0.321 0.297-0.788 0.277-1.194 0.268-0.001-0.716-0.001-1.432 0-2.148z"></path>
<path fill="#fff" d="M13.008 14.478c0.522-0.068 1.083 0.098 1.442 0.492 0.509 0.537 0.67 1.304 0.709 2.021 0.034 0.851-0.087 1.784-0.669 2.447-0.51 0.601-1.447 0.754-2.132 0.376-0.435-0.239-0.728-0.673-0.888-1.133-0.217-0.629-0.25-1.309-0.183-1.967 0.066-0.589 0.243-1.192 0.635-1.649 0.27-0.325 0.666-0.539 1.085-0.586z"></path>
<path fill="#fff" d="M18.396 24c0.256-0.149 0.427-0.414 0.486-0.702v0.702h-0.486z"></path>
<path fill="#fff" d="M0 23.499c0.085 0.21 0.239 0.387 0.435 0.501h-0.435v-0.501z"></path>
<path fill="#231f20" d="M0 0.666c0.138-0.365 0.507-0.628 0.899-0.623 5.564 0 11.128 0 16.692 0 0.245 0.002 0.504-0.026 0.732 0.086 0.3 0.131 0.501 0.427 0.559 0.743v22.427c-0.059 0.288-0.23 0.552-0.486 0.702h-17.96c-0.196-0.114-0.351-0.291-0.435-0.501v-22.834M0.828 0.617c-0.192 0.030-0.335 0.221-0.323 0.413 0 7.371-0 14.742 0 22.113-0.015 0.236 0.206 0.435 0.438 0.416 5.65 0 11.301 0.003 16.951-0.001 0.248 0.016 0.454-0.212 0.427-0.456-0-7.358 0.002-14.715-0.001-22.073 0.016-0.253-0.222-0.453-0.468-0.425-5.535-0.002-11.071 0-16.606-0.001-0.14 0.001-0.281-0.008-0.419 0.015z"></path>
<path fill="#231f20" d="M1.882 3.601c0.155-0.304 0.493-0.477 0.825-0.501 0.509-0.051 1.018 0.193 1.354 0.566-0.137 0.118-0.276 0.234-0.414 0.351-0.298-0.306-0.792-0.5-1.19-0.269-0.175 0.105-0.182 0.403 0.012 0.492 0.405 0.2 0.878 0.226 1.273 0.449 0.504 0.369 0.439 1.224-0.092 1.54-0.706 0.449-1.673 0.13-2.143-0.517 0.148-0.102 0.297-0.204 0.448-0.301 0.281 0.39 0.8 0.626 1.266 0.429 0.267-0.077 0.437-0.457 0.203-0.66-0.403-0.289-0.97-0.211-1.355-0.539-0.302-0.244-0.365-0.706-0.186-1.042z"></path>
<path fill="#231f20" d="M8.431 3.118c0.785 0 1.569-0 2.354 0 0.001 0.182 0.001 0.365 0 0.548-0.591 0.002-1.182-0.001-1.773 0.001-0 0.229-0.001 0.458 0 0.686 0.322 0.002 0.644 0 0.966 0.001 0.001 0.186 0.001 0.372 0 0.559-0.322 0.002-0.644-0.001-0.966 0.001-0.001 0.311-0 0.622-0 0.934 0.606 0.003 1.212-0 1.817 0.001 0 0.183 0 0.365-0 0.548-0.799 0.001-1.598 0-2.397 0-0.001-1.093-0.001-2.186 0-3.28z"></path>
<path fill="#231f20" d="M4.968 3.119c0.494 0 0.988-0.003 1.482 0.002 0.302 0 0.62 0.081 0.838 0.302 0.406 0.405 0.342 1.17-0.141 1.488-0.475 0.321-1.074 0.156-1.608 0.198-0.002 0.433 0 0.866-0.001 1.299-0.19 0.001-0.38 0.001-0.57 0-0-1.096-0.001-2.193 0-3.289M5.538 3.689c-0.001 0.283-0.001 0.565 0 0.848 0.333-0 0.667 0.005 1-0.001 0.227-0.003 0.466-0.164 0.471-0.409 0.020-0.255-0.234-0.436-0.469-0.437-0.334-0.006-0.668-0.001-1.002-0.001z"></path>
<path fill="#231f20" d="M11.474 3.119c0.785-0.001 1.569-0.001 2.354-0 0.001 0.186 0.001 0.372 0 0.558-0.591 0.002-1.182-0-1.773 0.001-0.001 0.225-0.001 0.451 0 0.677 0.322 0.002 0.644-0 0.966 0.001 0.001 0.186 0.001 0.372 0 0.558-0.322 0.002-0.645-0-0.967 0.001-0.001 0.311-0 0.623-0 0.935 0.606 0.002 1.212-0.001 1.817 0.001 0 0.186 0 0.372 0 0.557-0.799 0.002-1.598 0.001-2.397 0-0.001-1.096-0.001-2.193 0-3.289z"></path>
<path fill="#231f20" d="M14.527 3.119c0.672 0.027 1.447-0.125 2.005 0.351 0.78 0.643 0.763 2.034-0.068 2.628-0.559 0.416-1.288 0.292-1.937 0.311-0.001-1.096-0.001-2.193 0-3.289M15.087 3.689c-0.001 0.716-0.001 1.432 0 2.148 0.407 0.009 0.873 0.029 1.194-0.268 0.394-0.394 0.368-1.086 0.059-1.523-0.292-0.386-0.818-0.372-1.253-0.358z"></path>
<path fill="#231f20" d="M3.409 8.054c0.19-0.001 0.38-0.001 0.57 0 0.001 0.91-0.001 1.82 0.001 2.73 0.605 0.001 1.211-0.001 1.816 0 0.001 0.183 0.001 0.365 0 0.548-0.796 0-1.591 0-2.386 0-0.001-1.093-0-2.186-0-3.279z"></path>
<path fill="#231f20" d="M6.388 8.054c0.19-0.001 0.379-0.001 0.569 0 0 1.093 0 2.186 0 3.278-0.19 0.002-0.38 0.002-0.569 0-0.001-1.093-0.001-2.186 0-3.279z"></path>
<path fill="#231f20" d="M7.828 8.054c0.183-0 0.366-0 0.549 0 0.307 0.648 0.612 1.297 0.92 1.945 0.309-0.648 0.616-1.296 0.923-1.945 0.196-0.002 0.391-0.001 0.587-0 0.009 1.093-0.013 2.186-0.011 3.279-0.186 0-0.372 0-0.557 0-0.003-0.669 0.001-1.338-0.002-2.006-0.323 0.652-0.628 1.313-0.95 1.965-0.302-0.651-0.598-1.305-0.898-1.957-0.002 0.666 0.001 1.332-0.001 1.998-0.186 0-0.372 0-0.557 0-0.002-1.093-0.001-2.186-0-3.28z"></path>
<path fill="#231f20" d="M11.678 8.054c0.19-0.001 0.379-0.001 0.569 0 0 1.093 0 2.186 0 3.278-0.19 0.002-0.38 0.002-0.569 0-0.001-1.093-0.001-2.186 0-3.279z"></path>
<path fill="#231f20" d="M12.882 8.055c0.792-0.002 1.584-0.001 2.376-0 0.001 0.179 0.001 0.358 0 0.537-0.301 0.002-0.601-0.001-0.902 0.001-0.002 0.914 0.001 1.827-0.001 2.741-0.194 0-0.387 0-0.58 0-0.002-0.914 0.001-1.828-0.001-2.741-0.297-0.002-0.594 0.001-0.891-0.001-0.001-0.179-0.001-0.358-0-0.536z"></path>
<path fill="#231f20" d="M12.837 13.060c0.8-0.084 1.643 0.096 2.291 0.587 1.1 0.828 1.482 2.281 1.475 3.601 0.003 1.357-0.435 2.842-1.586 3.661-1.19 0.859-2.985 0.712-4.004-0.351-1.083-1.088-1.34-2.746-1.124-4.213 0.12-0.829 0.419-1.655 0.983-2.287 0.496-0.568 1.216-0.924 1.965-0.997M13.008 14.478c-0.419 0.047-0.815 0.262-1.085 0.586-0.393 0.457-0.569 1.060-0.635 1.649-0.067 0.658-0.034 1.338 0.183 1.967 0.16 0.46 0.453 0.895 0.888 1.133 0.685 0.378 1.622 0.225 2.132-0.376 0.582-0.663 0.702-1.596 0.669-2.447-0.039-0.717-0.2-1.483-0.709-2.021-0.36-0.394-0.92-0.56-1.442-0.492z"></path>
<path fill="#231f20" d="M2.439 14.329c1.056-0.915 2.498-1.403 3.891-1.175 0.853 0.124 1.723 0.55 2.153 1.329 0.483 0.851 0.286 2.018-0.463 2.652-0.887 0.707-2.147 0.678-3.009 1.427-0.369 0.353-0.799 0.719-0.875 1.256 1.514 0 3.027-0.001 4.541 0 0.001 0.458 0.001 0.917 0 1.375-2.071 0.001-4.143 0.001-6.215 0 0.003-1.292 0.448-2.619 1.413-3.51 0.628-0.593 1.439-0.944 2.257-1.188 0.363-0.117 0.757-0.197 1.058-0.444 0.354-0.326 0.234-0.947-0.137-1.212-0.519-0.387-1.209-0.422-1.831-0.37-0.717 0.057-1.377 0.405-1.916 0.868-0.291-0.335-0.578-0.673-0.867-1.009z"></path>
</svg>
