<?xml version="1.0" encoding="utf-8"?>
<!-- Generated by IcoMoon.io -->
<!DOCTYPE svg PUBLIC "-//W3C//DTD SVG 1.1//EN" "http://www.w3.org/Graphics/SVG/1.1/DTD/svg11.dtd">
<svg version="1.1" xmlns="http://www.w3.org/2000/svg" xmlns:xlink="http://www.w3.org/1999/xlink" width="24" height="24" viewBox="0 0 24 24">
<path fill="#1a1919" d="M3.319 0.081c5.786-0.031 11.573-0.009 17.359-0.009 0.283 0.060 0.508 0.277 0.692 0.491 0.079 0.081 0.133 0.186 0.144 0.3 0.036 0.305 0.060 0.612 0.056 0.919 0.021 1.019 0.028 2.038 0.037 3.056v18.201c-0.109 0.206-0.195 0.43-0.354 0.605-0.137 0.153-0.32 0.251-0.493 0.356h-17.565c-0.352-0.185-0.636-0.485-0.804-0.846v-22.233c0.11-0.202 0.232-0.402 0.404-0.558 0.149-0.129 0.317-0.272 0.523-0.283M3.346 0.195c-0.46 0.109-0.823 0.547-0.853 1.018-0 7.218-0 14.436 0 21.655 0.034 0.554 0.53 1.048 1.093 1.043 0.885 0.011 1.771 0.002 2.656 0.005 4.527 0 9.054 0 13.581 0 0.282-0.002 0.567 0.017 0.844-0.045 0.49-0.144 0.851-0.653 0.805-1.166-0.002-7.164-0-14.327-0.001-21.49-0.005-0.28-0.156-0.535-0.341-0.736-0.215-0.216-0.517-0.32-0.819-0.319-5.528-0.003-11.055 0-16.583-0.002-0.129-0-0.257 0.016-0.383 0.037z"></path>
<path fill="#1a1919" d="M3.341 0.434c0.114-0.030 0.232-0.044 0.35-0.046 5.447 0.001 10.893 0 16.34 0 0.232 0.002 0.481-0.018 0.696 0.088 0.293 0.142 0.508 0.453 0.516 0.781 0 7.189 0 14.379 0 21.568-0.011 0.338-0.243 0.653-0.549 0.789-0.133 0.054-0.279 0.066-0.421 0.072-5.406-0.001-10.811-0-16.217-0-0.244-0.003-0.494 0.018-0.732-0.051-0.332-0.122-0.587-0.45-0.601-0.806-0.001-7.164 0.001-14.328-0.001-21.492-0.027-0.394 0.249-0.78 0.619-0.903M3.534 0.9c-0.182 0.034-0.32 0.213-0.314 0.396 0 7.095 0 14.19-0 21.284 0.003 0.146-0.024 0.309 0.074 0.433 0.083 0.135 0.248 0.178 0.396 0.176 5.541-0.002 11.083 0.002 16.624-0.002 0.223 0.013 0.436-0.175 0.43-0.401 0-7.163-0-14.327 0-21.49 0.005-0.166-0.108-0.329-0.265-0.383-0.12-0.039-0.248-0.025-0.371-0.027-5.406 0-10.812 0-16.218 0-0.119 0.002-0.239-0.009-0.356 0.014z"></path>
<path fill="#1a1919" d="M14.072 2.236c0.34-0.002 0.689 0.073 0.967 0.279 0.3 0.178 0.474 0.491 0.619 0.796 0.161 0.344 0.237 0.725 0.219 1.105 0.033 0.593-0.178 1.178-0.52 1.656-0.324 0.379-0.829 0.593-1.328 0.555-0.478-0.001-0.935-0.244-1.232-0.612-0.31-0.454-0.506-1-0.491-1.555 0.002-0.527 0.088-1.084 0.399-1.524 0.289-0.457 0.837-0.701 1.367-0.701M13.991 3.007c-0.241 0.007-0.456 0.145-0.605 0.327-0.21 0.318-0.322 0.702-0.304 1.084-0.020 0.386 0.090 0.772 0.295 1.097 0.090 0.124 0.222 0.214 0.355 0.288 0.186 0.057 0.386 0.082 0.579 0.045 0.245-0.030 0.455-0.199 0.581-0.405 0.16-0.315 0.235-0.671 0.225-1.023 0.019-0.371-0.082-0.743-0.27-1.061-0.183-0.278-0.532-0.403-0.855-0.352z"></path>
<path fill="#1a1919" d="M7.906 2.306c0.247-0.001 0.494 0.002 0.741-0.002 0.658 0.932 1.306 1.872 1.96 2.807 0.001-0.935 0-1.87 0-2.805 0.244-0 0.487-0 0.731 0 0 1.417 0 2.835 0 4.253-0.219-0-0.439 0-0.658-0.001-0.675-0.975-1.352-1.949-2.029-2.923-0.001 0.975 0 1.949-0 2.924-0.249 0-0.497 0-0.745 0-0.001-1.418-0-2.835-0-4.253z"></path>
<path fill="#1a1919" d="M6.565 8.382c0.659 0 1.318-0 1.978 0-0 0.15-0 0.3 0 0.449-0.247 0-0.495 0-0.741 0 0 0.917-0.003 1.834 0.001 2.751-0.169 0.005-0.338 0.002-0.507 0.002-0-0.918 0-1.836 0-2.754-0.244-0-0.487 0-0.731 0-0-0.15-0-0.3 0-0.45z"></path>
<path fill="#1a1919" d="M9.004 8.382c0.168-0 0.336 0 0.505-0 0 0.679 0.002 1.359-0.001 2.038-0.011 0.174 0.042 0.347 0.141 0.489 0.185 0.263 0.61 0.283 0.836 0.064 0.124-0.139 0.199-0.325 0.193-0.512-0.002-0.692-0.001-1.385-0-2.077 0.168-0 0.336-0 0.505 0 0 0.679-0 1.358 0 2.036 0.003 0.258-0.056 0.52-0.181 0.746-0.24 0.351-0.698 0.539-1.115 0.452-0.273-0.045-0.521-0.208-0.688-0.426-0.139-0.23-0.199-0.503-0.197-0.77 0.001-0.679 0-1.359 0-2.038z"></path>
<path fill="#1a1919" d="M11.937 11.585c0-1.068-0-2.136 0-3.203 0.412 0.003 0.824-0.008 1.236 0.006 0.236 0.004 0.464 0.102 0.63 0.27 0.253 0.271 0.326 0.702 0.148 1.033-0.073 0.182-0.231 0.304-0.394 0.4 0.186 0.498 0.374 0.996 0.561 1.494-0.184 0-0.368 0-0.551-0-0.172-0.465-0.344-0.929-0.517-1.393-0.202 0-0.404 0-0.606 0-0.001 0.465 0 0.929-0.001 1.393-0.169 0-0.337 0-0.506 0M12.443 8.888c0 0.262-0 0.525 0 0.787 0.245-0.004 0.491 0.009 0.735-0.008 0.158-0.007 0.289-0.131 0.352-0.269 0.088-0.241-0.136-0.507-0.381-0.506-0.236-0.011-0.471-0.002-0.707-0.005z"></path>
<path fill="#1a1919" d="M14.646 11.585c0.002-1.069-0.004-2.137 0.003-3.206 0.167 0.004 0.335 0.002 0.503 0.002 0.39 0.681 0.779 1.363 1.169 2.045 0-0.682-0-1.363 0-2.045 0.168-0 0.337-0 0.506 0 0 1.068 0 2.135 0 3.203-0.15 0-0.3 0-0.449 0-0.409-0.722-0.816-1.446-1.226-2.169-0.001 0.723 0 1.445-0 2.168-0.168 0-0.337 0-0.505 0z"></path>
<path fill="#1a1919" d="M10.179 13.464c0.255-0.040 0.536-0.026 0.753 0.129 0.13 0.101 0.252 0.219 0.328 0.367 0.285 0.61 0.305 1.321 0.126 1.965-0.101 0.327-0.3 0.656-0.636 0.78-0.349 0.081-0.771 0.088-1.046-0.178-0.231-0.188-0.316-0.485-0.395-0.76-0.148-0.599-0.113-1.258 0.182-1.809 0.114-0.274 0.392-0.474 0.688-0.493M10.094 14.025c-0.136 0.118-0.225 0.281-0.266 0.455-0.137 0.507-0.127 1.078 0.129 1.547 0.144 0.233 0.456 0.246 0.687 0.15 0.092-0.107 0.191-0.216 0.23-0.356 0.172-0.53 0.176-1.137-0.086-1.639-0.138-0.237-0.465-0.273-0.694-0.158z"></path>
<path fill="#1a1919" d="M12.196 13.498c0.168-0 0.336 0.001 0.504-0.001 0.392 0.678 0.776 1.362 1.169 2.040 0.004-0.68 0-1.36 0.002-2.039 0.169 0 0.338-0.002 0.506 0.002-0.001 1.067-0 2.134-0 3.201-0.151 0-0.302 0.002-0.453-0.002-0.405-0.724-0.814-1.444-1.222-2.167 0 0.723 0 1.446 0 2.169-0.169 0-0.337 0-0.506-0 0-1.067 0-2.135 0-3.203z"></path>
<path fill="#1a1919" d="M8.166 18.5c0.346 0.001 0.692-0.002 1.039 0.001 0.183 0.009 0.373 0.006 0.545 0.079 0.195 0.091 0.366 0.245 0.445 0.448 0.209 0.421 0.011 0.977-0.41 1.182 0.187 0.497 0.374 0.995 0.561 1.492-0.184 0-0.367 0-0.55 0-0.173-0.464-0.345-0.929-0.517-1.394-0.202 0-0.405 0-0.607 0-0 0.464 0 0.929 0 1.393-0.169 0-0.337-0-0.506 0-0.001-1.068 0-2.136-0-3.204M8.672 19.007c-0 0.262-0 0.524 0 0.786 0.245-0.003 0.491 0.008 0.736-0.007 0.155-0.009 0.285-0.127 0.349-0.262 0.096-0.248-0.14-0.521-0.392-0.514-0.231-0.007-0.463-0.002-0.694-0.003z"></path>
<path fill="#1a1919" d="M10.875 18.5c0.629 0 1.259 0 1.888 0 0 0.169 0 0.337 0 0.506-0.461 0-0.921 0-1.382 0 0 0.262 0 0.524 0 0.786 0.311 0 0.622 0 0.933 0 0 0.172 0 0.344 0 0.517-0.311 0-0.622-0-0.933 0 0 0.292 0 0.584 0 0.876 0.495 0.001 0.989 0 1.484 0.001 0 0.172 0 0.344 0 0.516-0.663 0.001-1.326-0-1.989 0.001-0.002-1.068-0-2.136-0.001-3.204z"></path>
<path fill="#1a1919" d="M13.393 18.5c0.457 0.009 0.915-0.023 1.37 0.027 0.286 0.064 0.469 0.325 0.606 0.565 0.241 0.545 0.27 1.181 0.094 1.749-0.076 0.292-0.268 0.539-0.502 0.723-0.14 0.101-0.317 0.139-0.487 0.14-0.36-0.001-0.72-0-1.080-0-0.001-1.068-0-2.136-0-3.204M13.899 19.007c-0.001 0.664 0.001 1.327-0.001 1.991 0.005 0.060-0.012 0.129 0.011 0.186 0.214 0.002 0.431 0.014 0.645-0.014 0.202-0.027 0.315-0.224 0.392-0.392 0.146-0.416 0.141-0.877 0.029-1.301-0.060-0.196-0.177-0.418-0.399-0.455-0.224-0.034-0.452-0.009-0.677-0.016z"></path>
<path fill="#fffffe" d="M3.346 0.195c0.126-0.021 0.255-0.038 0.383-0.037 5.527 0.002 11.055-0.001 16.583 0.002 0.302-0.001 0.604 0.103 0.819 0.319 0.184 0.201 0.335 0.456 0.341 0.736 0 7.163-0.001 14.326 0.001 21.49 0.046 0.512-0.315 1.021-0.805 1.166-0.278 0.062-0.563 0.043-0.844 0.045-4.527 0-9.054 0-13.581 0-0.885-0.003-1.771 0.006-2.656-0.005-0.564 0.005-1.060-0.489-1.093-1.043-0-7.218-0-14.436 0-21.655 0.030-0.47 0.394-0.909 0.853-1.018M3.341 0.434c-0.371 0.123-0.646 0.509-0.619 0.903 0.002 7.164-0 14.328 0.001 21.492 0.014 0.356 0.27 0.685 0.601 0.806 0.238 0.069 0.488 0.048 0.732 0.051 5.406 0 10.811-0 16.217 0 0.142-0.006 0.288-0.018 0.421-0.072 0.306-0.136 0.538-0.451 0.549-0.789 0-7.189 0-14.379 0-21.568-0.008-0.328-0.223-0.639-0.516-0.781-0.215-0.106-0.463-0.086-0.696-0.088-5.447 0-10.893 0-16.34-0-0.118 0.002-0.236 0.016-0.35 0.046z"></path>
<path fill="#fffffe" d="M3.534 0.9c0.117-0.022 0.238-0.012 0.356-0.014 5.406 0 10.812 0 16.218 0 0.123 0.002 0.251-0.011 0.371 0.027 0.157 0.054 0.27 0.217 0.265 0.383-0 7.163 0 14.327 0 21.49 0.006 0.227-0.207 0.415-0.43 0.401-5.541 0.003-11.083 0-16.624 0.002-0.149 0.002-0.314-0.041-0.396-0.176-0.098-0.124-0.071-0.287-0.074-0.433 0-7.095 0-14.189 0-21.284-0.006-0.183 0.133-0.362 0.314-0.396M14.072 2.236c-0.531 0-1.078 0.244-1.367 0.701-0.311 0.44-0.397 0.996-0.399 1.524-0.015 0.555 0.181 1.1 0.491 1.555 0.297 0.368 0.754 0.611 1.232 0.612 0.499 0.039 1.005-0.175 1.328-0.555 0.341-0.478 0.553-1.064 0.52-1.656 0.019-0.379-0.058-0.761-0.219-1.105-0.146-0.305-0.319-0.619-0.619-0.796-0.278-0.206-0.627-0.281-0.967-0.279M7.906 2.306c0 1.417-0 2.835 0 4.253 0.248 0 0.497 0 0.745 0 0.001-0.975-0-1.949 0-2.924 0.677 0.974 1.353 1.948 2.029 2.923 0.219 0.001 0.438 0 0.658 0.001 0-1.418 0-2.835 0-4.253-0.244-0-0.487-0-0.731 0-0 0.935 0 1.87-0 2.805-0.654-0.935-1.302-1.875-1.96-2.807-0.247 0.005-0.494 0.001-0.741 0.002M6.565 8.382c-0 0.15-0 0.3 0 0.45 0.243 0 0.487-0 0.731 0 0 0.918-0 1.836 0 2.754 0.169-0.001 0.338 0.002 0.507-0.002-0.004-0.917-0.001-1.834-0.001-2.751 0.247 0 0.494 0 0.741-0-0-0.15-0-0.3 0-0.449-0.66-0-1.319 0-1.978 0M9.004 8.382c-0 0.679 0 1.359-0 2.038-0.002 0.267 0.058 0.54 0.197 0.77 0.167 0.219 0.415 0.381 0.688 0.426 0.418 0.088 0.875-0.101 1.115-0.452 0.125-0.227 0.184-0.488 0.181-0.746-0.001-0.679 0-1.358-0-2.036-0.169-0-0.337-0-0.505 0-0 0.692-0.001 1.384 0 2.077 0.005 0.187-0.069 0.374-0.193 0.512-0.226 0.22-0.651 0.199-0.836-0.064-0.099-0.142-0.152-0.315-0.141-0.489 0.002-0.679 0.001-1.358 0.001-2.038-0.169 0-0.337 0-0.505 0M11.937 11.585c0.169 0 0.337 0 0.506 0 0.001-0.465 0-0.929 0.001-1.393 0.202-0 0.404 0 0.606-0 0.173 0.464 0.345 0.929 0.517 1.393 0.184 0.001 0.367 0 0.551 0-0.186-0.498-0.374-0.995-0.561-1.494 0.163-0.096 0.321-0.219 0.394-0.4 0.179-0.331 0.105-0.761-0.148-1.033-0.165-0.168-0.394-0.266-0.63-0.27-0.412-0.014-0.824-0.003-1.236-0.006-0.001 1.067 0 2.135-0 3.203M14.646 11.585c0.168 0 0.337 0 0.505 0 0-0.723-0-1.445 0-2.168 0.409 0.722 0.816 1.446 1.226 2.169 0.15-0 0.299-0 0.449-0 0-1.068 0-2.135 0-3.203-0.169-0-0.337-0-0.506 0-0.001 0.681 0 1.363-0 2.045-0.39-0.681-0.779-1.363-1.169-2.045-0.168-0.001-0.335 0.002-0.503-0.002-0.007 1.068-0.001 2.137-0.003 3.206M10.179 13.464c-0.296 0.019-0.574 0.219-0.688 0.493-0.296 0.551-0.331 1.21-0.182 1.809 0.079 0.275 0.164 0.572 0.395 0.76 0.274 0.267 0.697 0.259 1.046 0.178 0.336-0.124 0.535-0.453 0.636-0.78 0.178-0.643 0.158-1.354-0.126-1.965-0.076-0.148-0.198-0.266-0.328-0.367-0.216-0.155-0.498-0.169-0.753-0.129M12.196 13.498c0 1.068 0 2.135 0 3.203 0.169 0 0.337 0 0.506 0 0-0.723 0-1.446 0-2.169 0.407 0.722 0.817 1.443 1.222 2.167 0.151 0.003 0.302 0.002 0.453 0.002 0-1.067-0.001-2.134 0-3.201-0.169-0.003-0.338-0.001-0.506-0.002-0.001 0.679 0.002 1.359-0.002 2.039-0.393-0.678-0.777-1.362-1.169-2.040-0.168 0.002-0.336 0-0.504 0.001M8.166 18.5c0 1.068-0 2.136 0 3.204 0.169-0 0.337 0 0.506 0 0-0.465-0-0.929 0-1.393 0.202-0 0.405-0 0.607-0 0.173 0.465 0.344 0.93 0.517 1.394 0.183-0 0.366 0 0.55-0-0.187-0.497-0.374-0.995-0.561-1.492 0.421-0.205 0.619-0.761 0.41-1.182-0.079-0.204-0.251-0.358-0.445-0.448-0.172-0.073-0.362-0.071-0.545-0.079-0.346-0.003-0.692-0-1.039-0.001M10.875 18.5c0 1.068-0.002 2.136 0.001 3.204 0.663-0.001 1.326 0 1.989-0.001 0-0.172 0-0.345 0-0.516-0.495-0.001-0.989 0-1.484-0.001 0-0.292 0-0.584 0-0.876 0.311-0.001 0.622 0 0.933-0-0-0.173 0-0.345-0-0.517-0.311-0-0.622 0-0.933-0 0-0.262 0-0.524 0-0.786 0.461-0 0.922 0 1.382-0 0-0.169 0-0.337 0-0.506-0.63 0-1.259 0-1.888 0M13.393 18.5c0 1.068-0 2.136 0 3.204 0.36 0 0.72-0 1.080 0 0.17-0.001 0.347-0.039 0.487-0.14 0.234-0.184 0.426-0.431 0.502-0.723 0.177-0.568 0.148-1.204-0.094-1.749-0.137-0.24-0.32-0.5-0.606-0.565-0.455-0.050-0.913-0.018-1.37-0.027z"></path>
<path fill="#fffffe" d="M13.991 3.007c0.323-0.050 0.671 0.075 0.855 0.352 0.188 0.318 0.29 0.69 0.27 1.061 0.009 0.353-0.066 0.708-0.225 1.023-0.126 0.206-0.336 0.375-0.581 0.405-0.193 0.037-0.393 0.012-0.579-0.045-0.133-0.074-0.264-0.163-0.355-0.288-0.206-0.325-0.315-0.712-0.295-1.097-0.018-0.382 0.094-0.766 0.304-1.084 0.149-0.182 0.364-0.32 0.605-0.327z"></path>
<path fill="#fffffe" d="M12.443 8.888c0.236 0.002 0.471-0.006 0.707 0.005 0.245-0.002 0.468 0.264 0.381 0.506-0.063 0.138-0.194 0.262-0.352 0.269-0.245 0.016-0.491 0.004-0.735 0.008-0.001-0.262-0-0.525-0-0.787z"></path>
<path fill="#fffffe" d="M10.094 14.025c0.23-0.115 0.557-0.079 0.694 0.158 0.263 0.501 0.259 1.109 0.086 1.639-0.040 0.139-0.138 0.249-0.23 0.356-0.231 0.096-0.543 0.083-0.687-0.15-0.257-0.469-0.266-1.040-0.129-1.547 0.041-0.174 0.129-0.338 0.266-0.455z"></path>
<path fill="#fffffe" d="M8.672 19.007c0.231 0.001 0.463-0.004 0.694 0.003 0.251-0.007 0.488 0.266 0.392 0.514-0.065 0.135-0.194 0.253-0.349 0.262-0.245 0.015-0.491 0.004-0.736 0.007-0-0.262-0-0.524 0-0.786z"></path>
<path fill="#fffffe" d="M13.899 19.007c0.225 0.007 0.453-0.018 0.677 0.016 0.222 0.038 0.339 0.259 0.399 0.455 0.112 0.424 0.117 0.885-0.029 1.301-0.077 0.167-0.19 0.365-0.392 0.392-0.213 0.028-0.43 0.016-0.645 0.014-0.024-0.057-0.006-0.126-0.011-0.186 0.002-0.664 0-1.328 0.001-1.991z"></path>
</svg>
