<svg xmlns="http://www.w3.org/2000/svg" width="24" height="24">
    <path fill="#038253" d="M10.807 0h2.366c4.458.463 8.537 3.529 10.078 7.757.386.979.569 2.017.75 3.05v2.366c-.463 4.459-3.529 8.537-7.757 10.078-.979.386-2.017.569-3.05.75h-2.367c-4.458-.463-8.535-3.529-10.076-7.757-.386-.979-.569-2.019-.75-3.05v-2.366c.22-1.457.571-2.907 1.255-4.221C3.045 2.957 6.786.448 10.808.001zm-.309 2.546c-2.552.366-4.918 1.813-6.427 3.901-2.279 3.043-2.495 7.44-.537 10.698 1.916 3.356 5.952 5.332 9.779 4.748 3.735-.48 7.025-3.32 8.042-6.946.775-2.627.383-5.576-1.079-7.895-1.978-3.278-6.001-5.131-9.779-4.505z"/>
    <path fill="#fff" d="M10.498 2.546c3.778-.626 7.801 1.227 9.779 4.505 1.461 2.319 1.853 5.268 1.079 7.895-1.017 3.626-4.307 6.466-8.042 6.946-3.827.585-7.863-1.391-9.779-4.748-1.958-3.258-1.742-7.655.537-10.698 1.509-2.088 3.874-3.535 6.427-3.901zm.473 1.163c-.321.17-.404.65-.135.904.314.366 1.006.14 1.019-.348.065-.461-.499-.789-.884-.556zm-.457 2.424c-.349.378-.82.619-1.221.936l.296.509c.531-.333 1.169-.52 1.59-1.005.153.334.308.667.46 1.002-.26.533-.583 1.038-.806 1.589-.097.715-.105 1.44-.168 2.16l.8.072c.067-.473.128-.946.188-1.417.018-.612.536-1.019.838-1.504.51.947 1.013 1.896 1.522 2.843l.676-.302c-.639-1.621-1.283-3.24-1.919-4.862l.446.102c.107.391.216.782.326 1.173.19.006.381.013.571.023-.095-.601-.198-1.2-.297-1.8-.636-.301-1.246-.672-1.908-.908-.779.07-1.023.834-1.392 1.39zm-.56 5.963c-.399.851-.716 1.742-1.081 2.61-1.202-.531-2.674.172-3.147 1.364-.418.985-.083 2.217.795 2.836 1.053.815 2.764.552 3.475-.592.633-.833.505-2.063-.182-2.823-.169-.226-.47-.379-.497-.687.948.76 1.829 1.603 2.742 2.404-.175.541.374.724.536 1.111l.284-.026c.095-.265.261-.492.422-.72l.303-.017c.305 1.446 2.04 2.311 3.374 1.673 1.208-.498 1.812-2.046 1.219-3.221-.541-1.232-2.136-1.711-3.326-1.158-.204-.32-.409-.638-.612-.958l.12-.326c.154-.043.31-.086.465-.126-.353-.506-1.186-.213-1.738-.309.182.299.542.328.848.406l-.114.191c-1.331.011-2.664-.083-3.996-.11l.446-1.109c.417-.004.835-.004 1.253-.005l.011-.474c-.53.034-1.088-.084-1.6.064z"/>
    <path fill="#fff" d="M9.678 14.042c1.358.039 2.715.089 4.073.132-.396.92-.683 1.889-1.156 2.773l.058-.48-.425.103c.101.127.203.253.301.383-1.099-.696-2.001-1.675-3.018-2.489.057-.14.113-.28.168-.422zM12.994 16.956c.359-.853.721-1.706 1.086-2.557.145.225.289.45.432.676a2.85 2.85 0 0 0-.987 2.025l-.318.046a19.234 19.234 0 0 0-.213-.19zM6.323 16.309c.385-.865 1.441-1.288 2.329-.979-.221.365-.402.758-.668 1.094-.179.182-.535.322-.44.639.069.381.664.485.827.12.097-.594.457-1.085.75-1.596.444.448.721 1.087.58 1.723-.159.972-1.259 1.638-2.196 1.337-.959-.25-1.627-1.408-1.182-2.338zM15.25 15.392c.984-.397 2.272.169 2.477 1.248.254.964-.474 1.998-1.45 2.131-.888.176-1.781-.44-2.028-1.29.563-.057 1.143-.229 1.701-.053.406.12.675-.57.279-.745-.487-.28-.664-.855-.98-1.29z"/>
    <path fill="#fff" d="M14.208 17.015a1.955 1.955 0 0 1 .662-1.379c.272.403.545.808.771 1.239-.476.057-.954.102-1.433.14z"/>
    <path fill="#030303" d="M10.971 3.709c.385-.233.949.095.884.556-.013.488-.706.714-1.019.348-.269-.254-.185-.734.135-.904z"/>
    <path fill="#030303" d="M10.514 6.133c.37-.556.613-1.32 1.392-1.39.662.235 1.272.607 1.908.908.099.6.202 1.199.297 1.8-.19-.01-.381-.017-.571-.023-.109-.391-.219-.782-.326-1.173l-.446-.102c.636 1.622 1.28 3.241 1.919 4.862l-.676.302c-.509-.947-1.012-1.896-1.522-2.843-.302.485-.82.892-.838 1.504-.059.472-.121.945-.188 1.417a99.05 99.05 0 0 0-.8-.072c.063-.72.07-1.445.168-2.16.222-.55.545-1.055.806-1.589-.152-.335-.307-.668-.46-1.002-.421.485-1.059.672-1.59 1.005l-.296-.509c.402-.317.872-.558 1.221-.936zM9.954 12.096c.512-.149 1.07-.03 1.6-.064l-.011.474c-.418.001-.836.001-1.253.005l-.446 1.109c1.332.027 2.665.121 3.996.11l.114-.191c-.307-.078-.667-.107-.848-.406.552.096 1.385-.197 1.738.309-.154.04-.31.083-.465.126l-.12.326c.203.32.408.638.612.958 1.189-.552 2.785-.074 3.326 1.158.593 1.175-.011 2.723-1.219 3.221-1.334.638-3.069-.227-3.374-1.673l-.303.017c-.16.228-.327.455-.422.72l-.284.026c-.162-.387-.71-.57-.536-1.111-.914-.801-1.794-1.643-2.742-2.404.026.308.328.461.497.687.687.76.815 1.99.182 2.823-.712 1.144-2.423 1.407-3.475.592-.878-.619-1.213-1.851-.795-2.836.473-1.192 1.945-1.895 3.147-1.364.365-.869.682-1.76 1.081-2.61zm-.276 1.946c-.055.141-.11.282-.168.422 1.017.814 1.919 1.793 3.018 2.489-.097-.13-.2-.255-.301-.383l.425-.103-.058.48c.473-.884.76-1.853 1.156-2.773-1.358-.043-2.715-.093-4.073-.132zm3.316 2.914l.213.19.318-.046a2.855 2.855 0 0 1 .987-2.025 398.4 398.4 0 0 0-.432-.676c-.365.851-.727 1.704-1.086 2.557zm-6.671-.647c-.444.93.223 2.089 1.182 2.338.936.302 2.036-.365 2.196-1.337.141-.636-.135-1.275-.58-1.723-.292.511-.652 1.002-.75 1.596-.163.365-.758.261-.827-.12-.095-.317.26-.457.44-.639.266-.336.447-.73.668-1.094-.888-.309-1.944.114-2.329.979zm8.927-.917c.316.435.493 1.01.98 1.29.396.175.127.865-.279.745-.558-.176-1.138-.004-1.701.053.247.851 1.141 1.466 2.028 1.29.975-.133 1.704-1.168 1.45-2.131-.206-1.079-1.493-1.644-2.477-1.248zm-1.042 1.623c.479-.038.956-.083 1.433-.14-.226-.431-.499-.836-.771-1.239a1.957 1.957 0 0 0-.662 1.379zm-1.91.57c.042.549.543-.056 0 0z"/>
    <path fill="#b8b8b8" d="M12.298 17.585c.543-.056.042.549 0 0z"/>
</svg>
