<svg xmlns="http://www.w3.org/2000/svg" width="24" height="24">
    <path fill="#fff" d="M3.127 0h17.744c.489.152.757.684.748 1.172v21.656c.009.488-.259 1.017-.747 1.172H3.132c-.49-.152-.758-.684-.749-1.172V1.171C2.373.683 2.641.155 3.128 0zm.502.592c-.47.097-.751.593-.764 1.045-.002 6.892 0 13.785-.001 20.678-.001.403.195.828.56 1.022.2.11.435.087.654.089l16.128-.001c.55.006.921-.555.929-1.061V1.637c-.008-.505-.378-1.068-.928-1.061C14.752.574 9.296.576 3.841.575a1.152 1.152 0 0 0-.212.017z"/>
    <path fill="#fff" d="M4.049 1.195a.967.967 0 0 1 .215-.02h15.19c.233.003.486-.03.696.097.355.203.516.629.512 1.022-.001 6.486.001 12.973-.001 19.459.006.495-.332 1.065-.875 1.07H4.215c-.543-.004-.882-.575-.875-1.07V2.245c.001-.443.25-.939.709-1.051zm1.209 1.812c-.32.293-.324.866.008 1.151.334.293.81.317 1.173.557.237.141.192.535-.062.63-.374.167-.813-.058-.964-.422-.172.066-.346.127-.517.196.223.798 1.305 1.075 1.938.59.407-.306.456-.979.088-1.334-.33-.321-.814-.363-1.2-.584-.162-.087-.176-.336-.022-.438a.609.609 0 0 1 .847.238c.165-.058.331-.113.497-.168-.188-.756-1.263-.907-1.786-.415zm2.675-.232c-.007 1.041.001 2.083-.005 3.124.187-.003.374-.002.561-.001.006-.391 0-.781.003-1.172.443-.028.93.089 1.33-.157.506-.303.593-1.082.195-1.507-.213-.221-.533-.291-.829-.29-.419.001-.837-.004-1.255.003zm2.959.003c-.009 1.04-.001 2.079-.004 3.119.71-.002 1.42.002 2.13-.002.003-.18.004-.36-.001-.54-.521-.007-1.043 0-1.564-.004v-.786c.301 0 .603.001.904-.001.006-.178.005-.355.003-.532-.303-.002-.605 0-.908-.002v-.711c.489-.002.979.002 1.468-.002.004-.18.004-.36 0-.54a137.23 137.23 0 0 0-2.029.001zm2.853 0c-.007 1.04.002 2.08-.004 3.12.71-.006 1.419.003 2.129-.004.007-.18.006-.36.001-.54-.523-.006-1.045 0-1.567-.003v-.787c.301 0 .603.001.905-.001.009-.177.007-.355.006-.532-.304-.002-.607 0-.911-.001v-.712c.49-.003.98.004 1.47-.003.005-.18.005-.359 0-.539-.676-.003-1.353-.006-2.03.001zm2.842-.003c-.002 1.041-.004 2.082.001 3.122.655-.032 1.415.136 1.956-.336.648-.603.658-1.773.048-2.406-.536-.516-1.333-.356-2.005-.381zM6.353 7.419c-.006 1.038-.002 2.076-.002 3.114.682.002 1.364.001 2.046 0v-.546c-.494-.005-.987 0-1.48-.002-.003-.855.004-1.711-.003-2.566a13.068 13.068 0 0 0-.56 0zm2.685-.001c-.003 1.039-.001 2.077-.001 3.116.188.001.376.002.565-.001.003-1.039.004-2.077 0-3.116a11.783 11.783 0 0 0-.564.001zm1.478 0c-.007 1.038-.002 2.078-.002 3.116h.562c.002-.624.006-1.249-.003-1.873.274.656.568 1.302.853 1.953.285-.653.593-1.296.852-1.96-.015.627-.004 1.253-.007 1.88.188.001.376.002.564-.001.003-1.039.006-2.078-.001-3.117a24.21 24.21 0 0 0-.539 0c-.288.665-.596 1.323-.863 1.997-.262-.674-.575-1.327-.853-1.994a8.13 8.13 0 0 0-.563-.001zm3.738-.003c-.001 1.04.001 2.08-.001 3.12.185-.002.37-.001.555-.001 0-1.04.001-2.079-.001-3.119a25.485 25.485 0 0 0-.553 0zm1.274-.005c-.003.181-.003.363 0 .544.29.004.58 0 .87.002l.001 2.577h.563c.003-.859 0-1.717.001-2.576.288-.002.577 0 .864-.001.002-.182.002-.365-.001-.547-.766-.001-1.532-.003-2.299.001zM5.331 11.525c-.242.038-.543.19-.542.471.001 2.893-.002 5.785.001 8.678.037.317.41.452.69.453h13.039c.28-.001.653-.136.69-.454.003-2.892 0-5.785.001-8.677.001-.282-.3-.434-.543-.472-.153-.03-.31-.06-.465-.038A7.907 7.907 0 0 1 17 11.485h-.063a7.669 7.669 0 0 1-1.203 0l-.062-.001a7.805 7.805 0 0 1-1.204.002 1.284 1.284 0 0 0-.062-.002c-.412.033-.83.033-1.242 0h-.031a71.947 71.947 0 0 1-3.774.001l-.062-.001a7.682 7.682 0 0 1-1.204.001l-.063-.002a7.79 7.79 0 0 1-1.241 0h-.031c-.474.056-.954-.015-1.428.041z"/>
    <path fill="#fff" d="M8.492 3.319c.293.008.59-.019.881.013.393.075.416.718.035.826-.302.044-.611.009-.916.019v-.858zM17.147 3.319c.366.007.818-.075 1.073.258.338.469.326 1.233-.127 1.625-.27.213-.63.138-.946.15V3.319z"/>
    <path d="M3.629.592c.07-.014.141-.016.212-.017C9.296.576 14.752.574 20.207.576c.549-.007.92.556.928 1.061v20.727c-.008.506-.379 1.067-.929 1.061l-16.128.001c-.219-.001-.454.022-.654-.089-.365-.194-.561-.62-.56-1.022.001-6.893-.001-13.785.001-20.678.013-.453.294-.948.764-1.045zm.42.603c-.459.112-.708.607-.709 1.051v19.508c-.007.495.332 1.066.875 1.07h15.571c.543-.004.881-.575.875-1.07.002-6.486 0-12.973.001-19.459.004-.393-.158-.819-.512-1.022-.21-.127-.463-.094-.696-.097H4.264a.973.973 0 0 0-.215.02z"/>
    <path d="M5.258 3.007c.523-.492 1.598-.341 1.786.415-.166.055-.332.11-.497.168a.61.61 0 0 0-.847-.238c-.154.102-.14.351.022.438.386.221.87.263 1.2.584.368.355.319 1.028-.088 1.334-.633.485-1.715.208-1.938-.59.171-.069.345-.13.517-.196.151.365.59.59.964.422.254-.095.3-.489.062-.63-.364-.24-.839-.264-1.173-.557-.332-.285-.328-.858-.008-1.151zM7.933 2.775c.418-.007.837-.002 1.255-.003.296 0 .616.069.829.29.397.425.311 1.204-.195 1.507-.4.245-.887.129-1.33.157-.002.391.003.781-.003 1.172-.187-.001-.374-.002-.561.001.006-1.041-.002-2.083.005-3.124zm.559.544v.858c.305-.01.614.024.916-.019.381-.108.358-.751-.035-.826-.292-.031-.588-.005-.881-.013zM10.892 2.778a137.23 137.23 0 0 1 2.029-.001c.005.18.005.36 0 .54-.489.004-.979 0-1.468.002v.711c.303.002.605 0 .908.002.002.178.002.355-.003.532-.301.002-.602 0-.904.001-.002.262-.001.524 0 .786.521.004 1.042-.003 1.564.004.005.18.004.36.001.54-.71.004-1.42 0-2.13.002.003-1.04-.005-2.079.004-3.119zM13.745 2.778c.677-.007 1.353-.004 2.03-.001.004.18.005.359 0 .539-.49.007-.98 0-1.47.003v.712c.303.001.607-.001.911.001.001.178.003.355-.006.532-.301.002-.603 0-.905.001v.787c.522.003 1.044-.003 1.567.003.005.18.005.36-.001.54-.71.007-1.419-.002-2.129.004.006-1.04-.002-2.08.004-3.12zM16.587 2.775c.673.025 1.469-.135 2.005.381.61.633.6 1.802-.048 2.406-.541.473-1.301.304-1.956.336a464.16 464.16 0 0 1-.001-3.122zm.56.544v2.033c.317-.013.677.063.946-.15.453-.391.464-1.156.127-1.625-.255-.334-.708-.252-1.073-.258zM6.353 7.419c.187-.004.373-.004.56 0 .007.855 0 1.711.003 2.566.494.003.987-.002 1.48.002.002.182.001.364 0 .546-.682 0-1.364.002-2.046 0 0-1.038-.004-2.076.002-3.114zM9.038 7.418c.188-.006.376-.006.564-.001.004 1.039.003 2.077 0 3.116-.188.003-.376.002-.565.001 0-1.039-.002-2.077.001-3.116zM10.516 7.418c.188-.005.376-.007.563.001.278.668.591 1.32.853 1.994.267-.674.575-1.332.863-1.997.18-.002.36-.002.539 0 .007 1.039.005 2.078.001 3.117-.188.003-.376.002-.564.001.003-.627-.008-1.253.007-1.88-.258.664-.567 1.307-.852 1.96-.285-.651-.579-1.297-.853-1.953.008.624.005 1.249.003 1.873a52.64 52.64 0 0 1-.562 0c0-1.039-.005-2.078.002-3.116zM14.254 7.415c.184-.002.368-.002.553 0 .002 1.04 0 2.079.001 3.119-.185 0-.37-.001-.555.001.002-1.04 0-2.08.001-3.12zM15.528 7.41c.766-.004 1.532-.002 2.299-.001.003.182.003.364.001.547-.288.001-.576-.001-.864.001-.002.859.001 1.717-.001 2.576-.188.002-.375.001-.563 0l-.001-2.577c-.29-.002-.58.002-.87-.002a16.442 16.442 0 0 1 0-.544zM5.331 11.525c.473-.056.954.015 1.428-.041-.233.05-.441.232-.484.471-.061.347.326.678.66.566a.514.514 0 0 0 .331-.658c-.073-.205-.272-.331-.476-.38.412.033.83.033 1.241 0-.233.05-.44.232-.484.471-.061.346.323.676.656.568.271-.076.444-.403.332-.666-.072-.191-.255-.309-.442-.37.399.03.804.031 1.204-.001-.232.053-.437.236-.478.476-.056.344.324.669.655.563.275-.076.449-.409.331-.674-.075-.189-.257-.307-.445-.364 1.256.031 2.518.033 3.774-.001-.367.057-.648.529-.382.841.206.307.713.278.865-.064.183-.335-.107-.724-.453-.777.412.033.83.033 1.242 0-.232.051-.438.233-.482.471-.06.345.321.675.653.568.274-.075.445-.404.334-.668-.072-.191-.255-.309-.443-.369.399.029.804.031 1.204-.002-.231.054-.436.237-.477.476-.054.34.316.661.645.565.268-.068.446-.379.354-.643-.067-.207-.26-.338-.46-.398.399.031.804.031 1.203 0-.228.058-.431.24-.469.479-.053.339.319.66.647.562a.514.514 0 0 0 .349-.65c-.069-.205-.263-.335-.464-.391.399.032.803.03 1.202.001-.227.061-.428.246-.463.485-.047.348.346.669.677.546.269-.087.426-.418.306-.677-.063-.158-.216-.248-.347-.341.098.007.195.015.292.026.242.038.544.19.543.472-.001 2.892.002 5.785-.001 8.677-.038.317-.41.453-.69.454H5.48c-.28-.001-.653-.136-.69-.453-.003-2.893 0-5.785-.001-8.678-.001-.281.3-.433.542-.471zm.028 1.292a.59.59 0 0 0-.353.402c-.081.34.282.68.615.602a.518.518 0 0 0 .399-.462c.032-.335-.334-.658-.661-.542zm5.107-.005c-.346.102-.521.602-.225.854.224.263.681.194.821-.12.205-.366-.198-.857-.595-.734zm2.534.009a.588.588 0 0 0-.344.398c-.084.351.303.701.644.596a.517.517 0 0 0 .37-.459c.029-.337-.343-.658-.67-.535zm-7.506 1.262c-.384.003-.663.526-.383.822.205.28.673.265.841-.045.215-.326-.084-.787-.457-.777zm5.069.002c-.379.021-.638.543-.353.83.203.266.65.255.823-.038.24-.33-.08-.822-.469-.791zm2.578-.002c-.243.005-.444.218-.49.448-.059.345.327.664.656.558a.512.512 0 0 0 .361-.427c.039-.296-.233-.585-.528-.579zm1.266.001c-.241.008-.437.22-.483.447-.058.342.322.66.65.56a.513.513 0 0 0 .368-.427c.041-.299-.236-.59-.534-.58zm1.266 0c-.241.012-.435.225-.478.453-.052.338.32.649.645.556a.512.512 0 0 0 .374-.557c-.042-.25-.283-.465-.54-.451zm1.265.001c-.239.016-.43.229-.471.456-.04.273.195.52.452.565a.51.51 0 0 0 .566-.433c.048-.306-.242-.609-.547-.588zM6.582 15.399c-.317.141-.435.619-.136.842.249.263.731.132.825-.213.141-.384-.317-.814-.69-.629zm1.306-.014a.585.585 0 0 0-.341.412c-.065.345.319.669.649.568a.518.518 0 0 0 .37-.435c.042-.346-.345-.675-.678-.544zm1.266.003a.585.585 0 0 0-.334.413c-.06.343.32.662.648.563a.516.516 0 0 0 .374-.473c.012-.336-.366-.637-.688-.503zm8.909.005c-.227.106-.393.386-.3.634.09.233.359.408.61.341a.512.512 0 0 0 .39-.478c.013-.34-.378-.644-.7-.497zm-12.707 1.26c-.334.11-.496.594-.208.839.227.262.689.19.826-.128.199-.372-.225-.853-.618-.711zm5.066.01a.575.575 0 0 0-.334.449c-.023.269.212.506.468.542a.512.512 0 0 0 .555-.45c.046-.351-.354-.685-.689-.541zm7.643.002a.591.591 0 0 0-.324.417c-.053.337.316.649.64.558a.513.513 0 0 0 .379-.435c.046-.354-.36-.689-.695-.539zm-12.706 1.26a.583.583 0 0 0-.354.403c-.077.347.306.681.64.583a.512.512 0 0 0 .375-.442c.038-.338-.334-.659-.661-.544zm5.106-.005c-.333.097-.517.57-.243.826.219.273.689.223.837-.097.21-.366-.197-.854-.593-.73zm2.535.008a.586.586 0 0 0-.345.399c-.078.345.299.676.631.587a.514.514 0 0 0 .383-.448c.035-.34-.342-.661-.67-.538zm5.107-.005a.583.583 0 0 0-.361.406c-.075.337.285.662.612.589a.513.513 0 0 0 .403-.448c.038-.336-.326-.655-.654-.547zM6.669 19.187a.572.572 0 0 0-.39.406c-.082.337.276.669.606.599a.514.514 0 0 0 .403-.413c.067-.336-.286-.677-.619-.593zm1.267.002c-.346.086-.538.575-.257.834.223.276.702.214.841-.114.193-.359-.199-.825-.584-.72zm1.267.002c-.341.09-.53.57-.254.83.221.276.698.221.841-.105.201-.361-.198-.838-.587-.725zm5.108-.002c-.344.088-.535.573-.255.833.223.277.703.217.842-.113.191-.36-.2-.827-.586-.72zm1.267.002a.574.574 0 0 0-.385.451c-.033.273.204.519.464.557a.512.512 0 0 0 .554-.422c.064-.339-.299-.683-.633-.586zm1.267.001c-.332.095-.518.564-.25.823.218.278.695.23.843-.094.207-.364-.199-.851-.593-.729z"/>
    <path fill="#ccc" d="M6.758 11.484h.031c.204.048.403.175.476.38a.514.514 0 0 1-.331.658c-.333.112-.721-.219-.66-.566.043-.24.251-.421.484-.471zM8.031 11.484l.063.002c.187.061.37.179.442.37.112.263-.061.59-.332.666-.332.108-.717-.221-.656-.568.044-.239.251-.42.484-.471zM9.297 11.485l.062.001c.188.057.371.175.445.364.118.265-.056.598-.331.674-.331.106-.711-.219-.655-.563.041-.24.247-.422.478-.476zM13.133 11.484h.031c.346.053.636.442.453.777-.153.343-.66.371-.865.064-.266-.312.014-.784.382-.841zM14.406 11.484l.062.002c.188.06.371.178.443.369.112.264-.06.593-.334.668-.332.106-.714-.224-.653-.568.044-.239.25-.42.482-.471zM15.672 11.485l.062.001c.2.06.394.191.46.398.092.264-.086.574-.354.643-.329.096-.699-.225-.645-.565.041-.24.246-.422.477-.476zM16.938 11.485h.063c.201.056.395.186.464.391.097.265-.079.58-.349.65-.328.098-.7-.223-.647-.562.038-.239.241-.42.469-.479zM18.203 11.487c.156-.022.313.008.465.038a9.88 9.88 0 0 0-.292-.026c.131.093.284.183.347.341.12.259-.038.591-.306.677-.33.124-.724-.197-.677-.546.035-.239.235-.424.463-.485zM5.359 12.817c.328-.116.694.207.661.542a.518.518 0 0 1-.399.462c-.333.078-.697-.262-.615-.602a.589.589 0 0 1 .353-.402zM10.466 12.812c.397-.123.8.367.595.734-.14.315-.597.384-.821.12-.295-.252-.121-.752.225-.854zM13 12.821c.327-.123.699.198.67.535a.52.52 0 0 1-.37.459c-.341.105-.728-.245-.644-.596a.592.592 0 0 1 .344-.398zM5.494 14.083c.374-.01.673.451.457.777-.168.31-.636.325-.841.045-.28-.295 0-.818.383-.822zM10.563 14.085c.389-.031.709.461.469.791-.173.293-.62.305-.823.038-.285-.286-.026-.809.353-.83zM13.141 14.083c.295-.005.567.283.528.579a.515.515 0 0 1-.361.427c-.329.106-.715-.213-.656-.558.046-.229.247-.442.49-.448zM14.407 14.084c.298-.01.575.281.534.58a.513.513 0 0 1-.368.427c-.328.1-.707-.218-.65-.56.046-.227.242-.439.483-.447zM15.673 14.084c.258-.013.498.201.54.451a.512.512 0 0 1-.374.557c-.324.093-.696-.218-.645-.556.043-.228.237-.441.478-.453zM16.938 14.085c.305-.021.595.282.547.588a.51.51 0 0 1-.566.433c-.257-.045-.492-.292-.452-.565.04-.227.232-.44.471-.456zM6.582 15.399c.372-.185.83.245.69.629-.095.345-.576.476-.825.213-.299-.223-.181-.701.136-.842zM7.888 15.385c.333-.131.72.198.678.544a.518.518 0 0 1-.37.435c-.33.101-.713-.223-.649-.568a.583.583 0 0 1 .341-.412zM9.154 15.388c.322-.133.699.168.688.503a.514.514 0 0 1-.374.473c-.328.099-.708-.221-.648-.563a.583.583 0 0 1 .334-.413zM18.063 15.393c.322-.146.713.157.7.497a.513.513 0 0 1-.39.478c-.251.067-.52-.107-.61-.341-.094-.248.072-.528.3-.634zM5.356 16.653c.393-.142.817.338.618.711-.137.318-.599.39-.826.128-.289-.244-.126-.729.208-.839zM10.422 16.663c.334-.144.735.19.689.541a.513.513 0 0 1-.555.45c-.256-.036-.492-.273-.468-.542a.579.579 0 0 1 .334-.449zM18.065 16.665c.336-.15.742.185.695.539a.512.512 0 0 1-.379.435c-.324.091-.693-.22-.64-.558a.591.591 0 0 1 .324-.417zM5.359 17.925c.328-.115.7.206.661.544a.512.512 0 0 1-.375.442c-.334.098-.718-.236-.64-.583a.579.579 0 0 1 .354-.403zM10.465 17.92c.397-.124.804.364.593.73-.148.32-.618.37-.837.097-.274-.256-.09-.73.243-.826zM13 17.928c.328-.123.705.198.67.538a.514.514 0 0 1-.383.448c-.333.09-.709-.242-.631-.587a.581.581 0 0 1 .345-.399zM18.107 17.923c.328-.107.691.212.654.547a.512.512 0 0 1-.403.448c-.327.074-.687-.252-.612-.589a.58.58 0 0 1 .361-.406zM6.669 19.187c.333-.084.685.257.619.593a.513.513 0 0 1-.403.413c-.33.07-.687-.262-.606-.599a.57.57 0 0 1 .39-.406zM7.936 19.189c.385-.105.777.362.584.72-.139.328-.618.39-.841.114-.281-.26-.089-.749.257-.834zM9.203 19.191c.389-.113.788.364.587.725-.143.326-.62.381-.841.105-.276-.26-.087-.74.254-.83zM14.311 19.189c.386-.106.777.36.586.72-.139.329-.619.39-.842.113-.279-.26-.088-.745.255-.833zM15.578 19.191c.335-.096.697.248.633.586a.512.512 0 0 1-.554.422c-.26-.038-.497-.285-.464-.557a.571.571 0 0 1 .385-.451zM16.845 19.192c.394-.122.799.365.592.729-.148.324-.625.372-.843.094-.268-.259-.082-.728.25-.823z"/>
</svg>
