<!-- Generated by IcoMoon.io -->
<svg version="1.1" xmlns="http://www.w3.org/2000/svg" width="30" height="24" viewBox="0 0 30 24">
<title>regulatory--divided-highway-crossing--g1</title>
<path fill="#231f20" d="M1.277 0h27.312c0.571 0.15 1.082 0.53 1.272 1.107v21.789c-0.134 0.511-0.543 0.903-1.020 1.105h-27.744c-0.556-0.168-0.97-0.634-1.097-1.198v-21.616c0.2-0.581 0.669-1.051 1.277-1.187M1.371 0.267c-0.606 0.13-1.143 0.673-1.135 1.313 0.005 7.002-0.001 14.003 0.002 21.004 0.070 0.706 0.716 1.249 1.419 1.255 8.688 0.006 17.377-0.001 26.065 0.003 0.4 0.007 0.82 0.019 1.189-0.158 0.482-0.306 0.794-0.848 0.792-1.423-0.003-6.868 0.003-13.736-0.003-20.604-0.008-0.726-0.61-1.379-1.338-1.419-8.741-0.002-17.483 0.001-26.224-0.002-0.255 0.006-0.516-0.025-0.768 0.030z"></path>
<path fill="#231f20" d="M1.211 0.505c0.051-0.008 0.153-0.022 0.204-0.030 8.981-0.002 17.964 0.002 26.945-0.002 0.584-0.030 1.137 0.523 1.107 1.107-0.004 7.002 0 14.003-0.002 21.004-0.037 0.515-0.505 0.982-1.019 1.019-8.982 0-17.964 0.001-26.947-0.001-0.501-0.018-1.011-0.413-1.024-0.939 0-7.083 0-14.166 0-21.248 0.019-0.42 0.34-0.787 0.736-0.91M1.030 1.737c-0.003 6.842 0.002 13.684-0.002 20.525-0.021 0.23 0.101 0.432 0.185 0.637 0.173 0.047 0.349 0.075 0.528 0.073 8.939-0.004 17.877-0.001 26.816-0.002 0.091-0.093 0.182-0.184 0.275-0.275 0-7.104 0-14.208 0-21.312-0.093-0.091-0.184-0.183-0.275-0.275-9.021 0.002-18.042-0.005-27.063 0.004-0.338-0.007-0.467 0.338-0.463 0.624z"></path>
<path fill="#231f20" d="M7.208 3.407c0.545 0.032 1.144-0.117 1.637 0.185 0.742 0.526 0.742 1.795 0 2.321-0.493 0.303-1.092 0.153-1.637 0.185 0-0.897 0-1.794 0-2.691M7.762 3.953c0 0.532 0 1.065 0 1.598 0.389 0.044 0.814-0.064 1.015-0.429 0.021-0.128 0.048-0.254 0.080-0.379-0.006-0.582-0.563-0.879-1.095-0.79z"></path>
<path fill="#231f20" d="M9.98 3.406c0.185 0 0.37 0 0.554 0 0 0.897 0 1.796 0 2.693-0.185 0-0.37 0-0.554 0 0-0.897 0-1.796 0-2.693z"></path>
<path fill="#231f20" d="M10.982 3.411c0.194-0.005 0.389-0.006 0.583-0.006 0.243 0.594 0.451 1.202 0.685 1.799 0.237-0.596 0.451-1.2 0.684-1.798 0.202 0 0.403 0 0.605 0-0.299 0.907-0.685 1.783-0.974 2.693-0.202 0-0.404 0-0.606-0.001-0.334-0.893-0.69-1.778-0.977-2.687z"></path>
<path fill="#231f20" d="M13.941 3.406c0.185 0 0.369 0 0.554 0 0 0.897 0 1.796 0 2.693-0.185 0-0.37 0-0.554 0 0-0.897 0-1.796 0-2.693z"></path>
<path fill="#231f20" d="M15.208 3.407c0.672 0.002 1.504-0.139 1.952 0.499 0.336 0.652 0.314 1.701-0.437 2.057-0.465 0.248-1.013 0.097-1.515 0.135 0-0.897 0-1.794 0-2.691M15.762 3.954c0 0.532 0 1.065 0 1.597 0.704 0.172 1.208-0.512 1.033-1.163-0.252-0.32-0.619-0.509-1.033-0.434z"></path>
<path fill="#231f20" d="M17.98 3.406c0.66 0 1.32 0 1.98 0 0 0.185 0 0.37 0 0.554-0.475 0-0.95 0-1.426 0 0 0.132 0 0.264 0 0.396 0.264 0 0.528 0 0.792 0 0 0.185 0 0.37 0 0.554-0.265 0-0.528 0-0.792 0 0 0.211 0 0.422 0 0.634 0.501 0 1.004 0 1.505 0 0 0.185 0 0.37 0 0.554-0.687 0-1.373 0-2.059 0 0-0.897 0-1.796 0-2.693z"></path>
<path fill="#231f20" d="M20.594 3.407c0.446 0.035 0.921-0.086 1.347 0.075 1.095 0.333 1.095 2.208 0 2.541-0.426 0.161-0.901 0.040-1.347 0.075 0-0.897 0-1.794 0-2.691M21.149 3.954c0 0.532 0 1.065 0 1.597 0.248-0.010 0.53 0.035 0.733-0.145 0.418-0.298 0.419-1.009 0-1.307-0.203-0.18-0.485-0.135-0.733-0.145z"></path>
<path fill="#231f20" d="M5.593 7.494c0.293-0.186 0.547-0.482 0.925-0.467 0.077 0.078 0.154 0.155 0.232 0.233-0.020 0.513-0.303 0.962-0.447 1.446 5.080 0.017 10.161 0.002 15.241 0.007 0 0.687 0 1.373 0 2.059-1.848 0-3.697 0-5.545 0 0 0.845 0 1.69 0 2.535 2.534 0 5.067 0 7.601 0-0.155-0.514-0.589-1.033-0.393-1.583 0.436-0.213 0.803 0.219 1.141 0.438 1.052 0.701 2.094 1.416 3.136 2.132 0.005 0.175-0.233 0.224-0.336 0.339-1.137 0.762-2.258 1.547-3.388 2.318-0.163 0.146-0.371 0.040-0.553 0.002-0.21-0.558 0.259-1.063 0.396-1.586-2.114 0.002-4.228-0.002-6.342 0.001-0.702 0.025-1.307 0.634-1.282 1.347-0.68-0.002-1.36-0.001-2.040-0.001 0-0.449 0-0.897 0-1.347-1.875 0-3.749 0-5.624 0 0-0.687 0-1.373 0-2.059 1.875 0 3.749 0 5.624 0-0.004-0.425 0.007-0.849-0.001-1.273-0.036-0.628-0.539-1.21-1.177-1.261-2.148-0.002-4.297-0.002-6.446 0 0.141 0.501 0.445 0.963 0.431 1.499-0.178 0.077-0.388 0.258-0.567 0.085-1.286-0.871-2.575-1.742-3.832-2.654 1.104-0.703 2.15-1.49 3.244-2.208z"></path>
<path fill="#231f20" d="M10.352 18.195c0.535-0.519 1.474-0.314 1.793 0.346-0.030 0.033-0.091 0.099-0.121 0.131-0.138 0.036-0.274 0.078-0.41 0.116-0.113-0.119-0.228-0.237-0.341-0.356-0.96-0.065-1.011 1.655-0.114 1.767 0.204-0.051 0.339-0.219 0.468-0.371-0.154-0.015-0.307-0.026-0.459-0.035 0-0.182 0-0.364 0-0.546 0.345 0 0.69 0 1.034 0 0.057 0.539-0.118 1.198-0.679 1.4-0.478 0.208-1.042-0.016-1.323-0.436-0.341-0.62-0.307-1.465 0.151-2.017z"></path>
<path fill="#231f20" d="M6.020 17.98c0.185 0 0.37 0 0.554 0 0 0.343 0 0.687 0 1.030 0.37 0 0.739 0 1.109 0 0-0.343 0-0.687 0-1.030 0.185 0 0.37 0 0.554 0 0 0.897 0 1.796 0 2.693-0.185 0-0.37 0-0.554 0 0-0.396 0-0.792 0-1.188-0.37 0-0.739 0-1.109 0 0 0.396 0 0.792 0 1.188-0.185 0-0.37 0-0.554 0 0-0.897 0-1.796 0-2.693z"></path>
<path fill="#231f20" d="M8.792 17.98c0.185 0 0.37 0 0.554 0 0 0.897 0 1.796 0 2.693-0.185 0-0.37 0-0.554 0 0-0.897 0-1.796 0-2.693z"></path>
<path fill="#231f20" d="M12.752 17.98c0.185 0 0.369 0 0.554 0 0 0.343 0 0.687 0 1.030 0.37 0 0.739 0 1.109 0 0-0.343 0-0.687 0-1.030 0.158 0 0.317 0 0.475 0 0 0.897 0 1.796 0 2.693-0.158 0-0.317 0-0.475 0 0-0.396 0-0.792 0-1.188-0.37 0-0.739 0-1.109 0 0 0.396 0 0.792 0 1.188-0.185 0-0.37 0-0.554 0 0-0.897 0-1.796 0-2.693z"></path>
<path fill="#231f20" d="M15.389 17.975c0.189 0.038 0.47-0.086 0.583 0.109 0.049 0.444 0.189 0.874 0.192 1.322l0.055-0.001c0.038-0.427 0.17-0.837 0.269-1.252 0.044-0.288 0.399-0.139 0.599-0.177 0.093 0.39 0.209 0.775 0.278 1.171 0.031 0.034 0.093 0.101 0.124 0.134 0.007-0.442 0.15-0.864 0.194-1.301 0.185 0.001 0.369 0.001 0.554 0.003-0.135 0.863-0.311 1.721-0.444 2.585-0.116 0.198-0.404 0.071-0.595 0.11-0.143-0.493-0.257-0.994-0.377-1.493-0.143 0.49-0.274 0.986-0.37 1.488-0.197 0-0.394 0-0.592 0-0.139-0.902-0.33-1.796-0.471-2.698z"></path>
<path fill="#231f20" d="M19.436 17.98c0.175 0 0.351 0 0.527 0.001 0.396 0.888 0.751 1.795 1.132 2.69-0.21 0.002-0.419 0.002-0.629 0.002-0.063-0.215-0.155-0.419-0.219-0.634-0.36 0-0.719-0.001-1.079 0.001-0.085 0.213-0.17 0.425-0.265 0.634-0.186-0.002-0.372-0.003-0.558-0.008 0.311-0.915 0.703-1.802 1.090-2.687M19.69 18.737c-0.085 0.253-0.185 0.5-0.283 0.748 0.192 0 0.384-0.001 0.577-0.002-0.092-0.251-0.192-0.498-0.294-0.745z"></path>
<path fill="#231f20" d="M21.122 17.98c0.23 0 0.459 0 0.689-0.001 0.23 0.312 0.444 0.635 0.662 0.956 0.349-0.2 0.477-0.662 0.749-0.958 0.221 0.002 0.442 0.003 0.664 0.012-0.337 0.532-0.71 1.041-1.074 1.554 0 0.376 0 0.753 0 1.13-0.185 0-0.371 0-0.555 0-0.045-0.441 0.135-0.955-0.169-1.331-0.333-0.446-0.638-0.912-0.965-1.362z"></path>
<path fill="#fff" d="M1.371 0.267c0.252-0.055 0.512-0.024 0.768-0.030 8.741 0.002 17.483-0.001 26.224 0.002 0.728 0.040 1.33 0.693 1.338 1.419 0.006 6.867 0 13.735 0.003 20.604 0.002 0.574-0.311 1.117-0.792 1.423-0.369 0.177-0.789 0.166-1.189 0.158-8.688-0.004-17.377 0.003-26.065-0.003-0.703-0.006-1.35-0.549-1.419-1.255-0.003-7.001 0.002-14.002-0.002-21.004-0.008-0.64 0.529-1.183 1.135-1.313M1.211 0.505c-0.396 0.124-0.717 0.49-0.736 0.91 0 7.083 0 14.166 0 21.248 0.013 0.526 0.523 0.921 1.024 0.939 8.982 0.002 17.964 0.001 26.947 0.001 0.515-0.037 0.982-0.505 1.019-1.019 0.002-7.001-0.002-14.002 0.002-21.004 0.030-0.584-0.523-1.137-1.107-1.107-8.981 0.004-17.964 0-26.945 0.002-0.051 0.008-0.154 0.022-0.204 0.030z"></path>
<path fill="#fff" d="M1.030 1.737c-0.004-0.286 0.125-0.631 0.463-0.624 9.021-0.009 18.042-0.002 27.063-0.004 0.091 0.092 0.182 0.184 0.275 0.275 0 7.104 0 14.208 0 21.312-0.093 0.091-0.184 0.182-0.275 0.275-8.939 0.001-17.877-0.002-26.816 0.002-0.179 0.002-0.356-0.026-0.528-0.073-0.084-0.204-0.205-0.406-0.185-0.637 0.004-6.841-0.001-13.683 0.002-20.525M7.208 3.407c0 0.897 0 1.794 0 2.691 0.545-0.032 1.144 0.117 1.637-0.185 0.742-0.526 0.742-1.795 0-2.321-0.493-0.303-1.092-0.153-1.637-0.185M9.98 3.406c0 0.897 0 1.796 0 2.693 0.185 0 0.37 0 0.554 0 0-0.897 0-1.796 0-2.693-0.185 0-0.37 0-0.554 0M10.982 3.411c0.287 0.909 0.642 1.794 0.977 2.687 0.202 0.001 0.404 0.001 0.606 0.001 0.289-0.91 0.676-1.786 0.974-2.693-0.202 0-0.403 0-0.605 0-0.232 0.598-0.447 1.202-0.684 1.798-0.234-0.597-0.442-1.205-0.685-1.799-0.194 0.001-0.389 0.002-0.583 0.006M13.941 3.406c0 0.897 0 1.796 0 2.693 0.185 0 0.369 0 0.554 0 0-0.897 0-1.796 0-2.693-0.185 0-0.37 0-0.554 0M15.208 3.407c0 0.897 0 1.794 0 2.691 0.502-0.039 1.050 0.112 1.515-0.135 0.751-0.356 0.773-1.405 0.437-2.057-0.448-0.638-1.28-0.497-1.952-0.499M17.98 3.406c0 0.897 0 1.796 0 2.693 0.687 0 1.373 0 2.059 0 0-0.185 0-0.37 0-0.554-0.501 0-1.004 0-1.505 0 0-0.211 0-0.422 0-0.634 0.264 0 0.528 0 0.792 0 0-0.185 0-0.37 0-0.554-0.264 0-0.528 0-0.792 0 0-0.132 0-0.264 0-0.396 0.475 0 0.95 0 1.426 0 0-0.185 0-0.37 0-0.554-0.66 0-1.32 0-1.98 0M20.594 3.407c0 0.897 0 1.794 0 2.691 0.446-0.035 0.921 0.086 1.347-0.075 1.095-0.333 1.095-2.208 0-2.541-0.426-0.161-0.901-0.040-1.347-0.075M5.593 7.494c-1.094 0.718-2.14 1.505-3.244 2.208 1.257 0.912 2.546 1.783 3.832 2.654 0.179 0.173 0.389-0.008 0.567-0.085 0.014-0.535-0.29-0.998-0.431-1.499 2.149-0.002 4.298-0.002 6.446 0 0.638 0.051 1.141 0.633 1.177 1.261 0.008 0.424-0.003 0.848 0.001 1.273-1.875 0-3.749 0-5.624 0 0 0.687 0 1.373 0 2.059 1.875 0 3.749 0 5.624 0 0 0.449 0 0.897 0 1.347 0.68 0 1.36-0.001 2.040 0.001-0.025-0.713 0.58-1.321 1.282-1.347 2.114-0.003 4.228 0.001 6.342-0.001-0.137 0.523-0.606 1.028-0.396 1.586 0.182 0.038 0.39 0.144 0.553-0.002 1.13-0.771 2.251-1.556 3.388-2.318 0.103-0.115 0.341-0.164 0.336-0.339-1.042-0.716-2.084-1.431-3.136-2.132-0.337-0.219-0.704-0.651-1.141-0.438-0.196 0.551 0.238 1.069 0.393 1.583-2.534 0-5.067 0-7.601 0 0-0.845 0-1.69 0-2.535 1.848 0 3.697 0 5.545 0 0-0.687 0-1.373 0-2.059-5.080-0.005-10.161 0.010-15.241-0.007 0.144-0.483 0.427-0.932 0.447-1.446-0.078-0.078-0.155-0.155-0.232-0.233-0.379-0.016-0.632 0.28-0.925 0.467M10.352 18.195c-0.458 0.552-0.493 1.396-0.151 2.017 0.281 0.421 0.845 0.645 1.323 0.436 0.561-0.202 0.736-0.861 0.679-1.4-0.345 0-0.69 0-1.034 0 0 0.181 0 0.364 0 0.546 0.153 0.009 0.306 0.020 0.459 0.035-0.129 0.153-0.264 0.321-0.468 0.371-0.897-0.112-0.846-1.832 0.114-1.767 0.112 0.12 0.227 0.238 0.341 0.356 0.136-0.039 0.272-0.080 0.41-0.116 0.030-0.032 0.091-0.098 0.121-0.131-0.319-0.66-1.259-0.865-1.793-0.346M6.020 17.98c0 0.897 0 1.796 0 2.693 0.185 0 0.37 0 0.554 0 0-0.396 0-0.792 0-1.188 0.37 0 0.739 0 1.109 0 0 0.396 0 0.792 0 1.188 0.185 0 0.37 0 0.554 0 0-0.897 0-1.796 0-2.693-0.185 0-0.37 0-0.554 0 0 0.343 0 0.687 0 1.030-0.37 0-0.739 0-1.109 0 0-0.343 0-0.687 0-1.030-0.185 0-0.37 0-0.554 0M8.792 17.98c0 0.897 0 1.796 0 2.693 0.185 0 0.37 0 0.554 0 0-0.897 0-1.796 0-2.693-0.185 0-0.37 0-0.554 0M12.752 17.98c0 0.897 0 1.796 0 2.693 0.185 0 0.369 0 0.554 0 0-0.396 0-0.792 0-1.188 0.37 0 0.739 0 1.109 0 0 0.396 0 0.792 0 1.188 0.158 0 0.317 0 0.475 0 0-0.897 0-1.796 0-2.693-0.158 0-0.317 0-0.475 0 0 0.343 0 0.687 0 1.030-0.37 0-0.739 0-1.109 0 0-0.343 0-0.687 0-1.030-0.185 0-0.37 0-0.554 0M15.389 17.975c0.142 0.902 0.333 1.796 0.471 2.698 0.197 0 0.394 0 0.592 0 0.096-0.502 0.227-0.998 0.37-1.488 0.12 0.499 0.234 1 0.377 1.493 0.191-0.040 0.478 0.088 0.595-0.11 0.133-0.864 0.308-1.722 0.444-2.585-0.185-0.002-0.37-0.002-0.554-0.003-0.044 0.437-0.187 0.859-0.194 1.301-0.031-0.033-0.093-0.1-0.124-0.134-0.069-0.395-0.185-0.781-0.278-1.171-0.2 0.039-0.555-0.11-0.599 0.177-0.098 0.415-0.23 0.825-0.269 1.252l-0.055 0.001c-0.004-0.448-0.143-0.878-0.192-1.322-0.113-0.196-0.394-0.071-0.583-0.109M19.436 17.98c-0.387 0.885-0.779 1.772-1.090 2.687 0.185 0.005 0.371 0.006 0.558 0.008 0.094-0.209 0.18-0.421 0.265-0.634 0.36-0.002 0.719-0.001 1.079-0.001 0.063 0.215 0.155 0.419 0.219 0.634 0.21 0 0.419-0.001 0.629-0.002-0.381-0.895-0.736-1.802-1.132-2.69-0.176-0.001-0.352-0.001-0.527-0.001M21.122 17.98c0.327 0.451 0.631 0.916 0.965 1.362 0.304 0.375 0.124 0.889 0.169 1.331 0.185 0 0.37 0 0.555 0 0-0.376 0-0.753 0-1.13 0.364-0.513 0.737-1.022 1.074-1.554-0.222-0.009-0.443-0.010-0.664-0.012-0.272 0.295-0.399 0.758-0.749 0.958-0.218-0.321-0.432-0.644-0.662-0.956-0.23 0.001-0.459 0.001-0.689 0.001z"></path>
<path fill="#fff" d="M7.762 3.953c0.531-0.090 1.089 0.208 1.095 0.79-0.032 0.125-0.059 0.252-0.080 0.379-0.2 0.365-0.626 0.474-1.015 0.429 0-0.533 0-1.066 0-1.598z"></path>
<path fill="#fff" d="M15.762 3.954c0.413-0.074 0.781 0.114 1.033 0.434 0.175 0.65-0.329 1.335-1.033 1.163 0-0.532 0-1.065 0-1.597z"></path>
<path fill="#fff" d="M21.149 3.954c0.248 0.010 0.53-0.035 0.733 0.145 0.419 0.298 0.418 1.009 0 1.307-0.203 0.18-0.485 0.135-0.733 0.145 0-0.532 0-1.065 0-1.597z"></path>
<path fill="#fff" d="M19.69 18.737c0.101 0.247 0.202 0.494 0.294 0.745-0.192 0.002-0.384 0.002-0.577 0.002 0.097-0.248 0.198-0.495 0.283-0.748z"></path>
</svg>
