<svg xmlns="http://www.w3.org/2000/svg" width="24" height="24">
    <path fill="#fff" d="M3.163 0h18.126c.326.262.595.602.679 1.02v21.619c-.018.702-.578 1.339-1.296 1.362H3.568c-.468-.089-.789-.448-1.068-.802V.802a1.94 1.94 0 0 1 .663-.8zm.403.15c-.549.164-.914.728-.886 1.293-.001 7.004-.005 14.009.002 21.012-.027.723.634 1.364 1.356 1.319 5.464-.001 10.929.005 16.393-.003.693.011 1.3-.619 1.282-1.308.007-7.009.003-14.019.002-21.028.049-.763-.645-1.41-1.398-1.364C15.237.06 10.156.072 5.074.065 4.571.071 4.056.019 3.565.151z"/>
    <path fill="#fff" d="M3.659.642c.153-.066.326-.065.489-.071 5.39.002 10.78-.002 16.171.002.486-.051.935.372.898.861.003 7.007.006 14.016-.001 21.023.021.475-.422.866-.889.821-5.429.001-10.861.003-16.291-.001-.504.04-.921-.432-.859-.925.002-6.97-.003-13.94.002-20.91a.823.823 0 0 1 .48-.8zm3.889 1.376c0 1.133-.003 2.266.001 3.399.849-.002 1.696.001 2.544-.001-.032-.193.063-.45-.067-.598-.619-.032-1.239-.002-1.859-.01l-.001-.927h1.015l.002-.625c-.338-.001-.676-.001-1.015.001l-.003-.627c.618-.001 1.236-.002 1.854.001l.009-.612h-2.48zm3.09-.007c0 1.134-.003 2.268.001 3.403l.598-.002c.003-.769-.007-1.539.006-2.308.548.761 1.071 1.539 1.606 2.308l.529.001c-.001-1.135.004-2.269-.003-3.404l-.584.004c-.002.746.001 1.491-.003 2.237-.516-.745-1.035-1.488-1.547-2.236a60.957 60.957 0 0 0-.604-.003zm3.496.002c.001 1.133-.005 2.266.003 3.4.637-.031 1.327.113 1.911-.211.981-.543 1.076-2.107.227-2.809-.592-.514-1.421-.362-2.14-.38zM6.61 7.818c.281.263.566.524.848.787.626-.631 1.844-.933 2.495-.202.332.653-.548.982-1.06.901.004.377.003.753.001 1.13.793-.18 1.819.564 1.325 1.406-.795.86-2.33.538-3.008-.333-.307.229-.613.457-.918.688.801 1.056 2.237 1.575 3.52 1.195.954-.241 1.787-1.133 1.689-2.161-.004-.571-.41-1.009-.803-1.371.616-.657.707-1.774.002-2.402-1.156-1.043-3.066-.716-4.09.362zm6.688-.885a388.179 388.179 0 0 0-.204 3.042c.384.093.759.226 1.151.28.671-.207 1.417-.356 2.092-.08.732.324.823 1.518.1 1.908-.931.489-2.063.207-2.945-.264l-.605.973c1.291.778 3.105 1.085 4.378.118 1.086-.801 1.1-2.586.075-3.442-.817-.742-2.011-.715-3.02-.474.02-.306.042-.612.064-.918l3.196-.001c.001-.378 0-.757.003-1.136-1.429-.013-2.856 0-4.285-.006zm-6.161 9.231c.3.148 1.007.171.766.673-.311.378-.83.073-.922-.334l-.431.059c.074.492.446.97.995.895.616.067 1.071-.621.809-1.169-.23-.549-.958-.43-1.325-.832.156-.279.445-.305.729-.253l.15.343.479-.032c-.055-.562-.604-.905-1.141-.753-.708.082-.78 1.201-.11 1.404zm1.899-1.387c.002.873.001 1.748 0 2.621l.445.026c.004-.333.004-.665.007-.997.301-.018.619.02.902-.102.525-.299.518-1.25-.048-1.496-.426-.099-.872-.037-1.306-.053zm2.347-.001c.003.881-.003 1.76.003 2.641.568.003 1.134.002 1.702.001l.008-.453c-.423 0-.846.002-1.268-.007l.007-.712h1.136v-.44l-1.139.001.001-.589 1.228-.001-.001-.44-1.677-.001zm2.331.002c-.007.872-.002 1.746-.003 2.618a15.92 15.92 0 0 0 1.734.003l-.014-.438c-.419.004-.838.003-1.258.002.027-.231-.06-.507.06-.709.363-.025.726-.005 1.09-.014l-.013-.435c-.377.001-.754 0-1.131.002l-.003-.587a99.88 99.88 0 0 1 1.224-.003l.012-.435c-.566-.01-1.131-.006-1.696-.005zm2.339.001c.005.881-.001 1.76.004 2.64.564-.038 1.337.158 1.688-.422a2.04 2.04 0 0 0-.021-1.839c-.361-.567-1.114-.337-1.672-.379zm-5.739 3.892c0 .872-.002 1.745.001 2.617l.459.01c.007-.879.003-1.756.002-2.635l-.462.007zm.972-.007c.001.876.003 1.75-.001 2.626l.421.009c.015-.658-.016-1.317.022-1.976.157.652.281 1.311.424 1.966l.447.003c.143-.654.268-1.312.436-1.96.03.653.006 1.307.012 1.96l.424-.001c-.003-.876.001-1.752-.003-2.628l-.686.003c-.134.587-.26 1.175-.402 1.76-.151-.582-.277-1.169-.406-1.756-.23-.004-.459-.006-.689-.007zm2.704-.002c-.007.873.004 1.746-.007 2.619.15.007.301.012.451.018.003-.877-.002-1.754.002-2.631l-.446-.006zm.806.005l.003.439.665.001c-.003.727-.003 1.454 0 2.182l.459.009c.006-.73.003-1.462.002-2.192l.669-.003-.007-.438c-.597.002-1.195 0-1.791.002zm-6.461.014c.001.871-.002 1.743.002 2.614.534-.003 1.067-.001 1.6-.003l-.005-.441H8.799c.004-.722.001-1.443.002-2.164l-.466-.006z"/>
    <path fill="#fff" d="M14.754 2.618c.411.004.893-.026 1.2.304.449.483.387 1.431-.232 1.75-.289.176-.642.116-.964.133-.01-.729-.004-1.459-.004-2.187zM9.486 15.207c.282.023.804-.058.809.361.048.456-.509.399-.809.425v-.786zM16.525 15.206c.972-.244 1.169.949.813 1.592-.195.24-.546.14-.814.176-.003-.59-.003-1.179.001-1.769z"/>
    <path fill="#050505" d="M3.566.15C4.057.018 4.572.071 5.075.064 10.156.071 15.237.059 20.318.07c.753-.046 1.447.601 1.398 1.364.001 7.009.005 14.019-.002 21.028.018.689-.589 1.319-1.282 1.308-5.464.008-10.929.002-16.393.003-.721.044-1.382-.596-1.356-1.319-.007-7.003-.003-14.008-.002-21.012-.028-.564.337-1.129.886-1.293zm.093.492a.824.824 0 0 0-.48.8c-.005 6.97 0 13.94-.002 20.91-.062.493.355.965.859.925 5.43.004 10.862.002 16.291.001.467.045.91-.346.889-.821.007-7.007.004-14.016.001-21.023.037-.489-.412-.913-.898-.861-5.39-.004-10.78 0-16.171-.002-.164.006-.336.005-.489.071z"/>
    <path fill="#050505" d="M7.548 2.018h2.48l-.009.612c-.618-.003-1.236-.002-1.854-.001l.003.627c.339-.002.677-.002 1.015-.001l-.002.625H8.166l.001.927c.62.008 1.24-.022 1.859.01.13.148.035.406.067.598-.848.002-1.695-.001-2.544.001-.004-1.133-.001-2.266-.001-3.399zM10.638 2.011l.604.003c.512.748 1.031 1.491 1.547 2.236.004-.746.001-1.491.003-2.237l.584-.004c.007 1.135.002 2.269.003 3.404l-.529-.001c-.535-.769-1.058-1.547-1.606-2.308-.013.769-.003 1.539-.006 2.308l-.598.002c-.004-1.135-.001-2.269-.001-3.403zM14.134 2.013c.719.019 1.548-.134 2.14.38.85.701.754 2.266-.227 2.809-.584.324-1.274.18-1.911.211-.008-1.134-.002-2.267-.003-3.4zm.62.605c0 .728-.006 1.458.004 2.187.322-.016.675.043.964-.133.619-.319.681-1.267.232-1.75-.307-.33-.789-.3-1.2-.304zM6.61 7.818c1.024-1.077 2.935-1.405 4.09-.362.705.628.614 1.745-.002 2.402.393.362.799.8.803 1.371.098 1.028-.735 1.92-1.689 2.161-1.282.38-2.718-.139-3.52-1.195.305-.231.611-.459.918-.688.678.87 2.213 1.193 3.008.333.494-.842-.531-1.586-1.325-1.406a70.94 70.94 0 0 0-.001-1.13c.512.08 1.392-.248 1.06-.901-.651-.731-1.869-.43-2.495.202-.282-.263-.567-.524-.848-.787zM13.298 6.933c1.429.006 2.856-.007 4.285.006-.003.379-.002.758-.003 1.136l-3.196.001c-.022.306-.044.612-.064.918 1.009-.241 2.203-.268 3.02.474 1.025.856 1.01 2.641-.075 3.442-1.273.966-3.087.659-4.378-.118l.605-.973c.882.471 2.014.753 2.945.264.723-.389.632-1.583-.1-1.908-.675-.276-1.421-.127-2.092.08-.391-.055-.766-.187-1.151-.28.065-1.014.131-2.028.204-3.042z"/>
    <path d="M7.137 16.164c-.67-.203-.597-1.322.11-1.404.538-.152 1.087.191 1.141.753l-.479.032-.15-.343c-.284-.051-.574-.026-.729.253.367.403 1.095.283 1.325.832.263.548-.193 1.236-.809 1.169-.549.075-.921-.403-.995-.895l.431-.059c.092.407.611.712.922.334.241-.502-.467-.524-.766-.673zM9.036 14.777c.434.015.88-.046 1.306.053.567.245.574 1.197.048 1.496-.283.122-.602.084-.902.102-.003.332-.003.664-.007.997l-.445-.026c.001-.873.002-1.748 0-2.621zm.45.43v.786c.3-.027.857.031.809-.425-.004-.418-.526-.338-.809-.361zM11.383 14.776l1.677.001.001.44-1.228.001-.001.589 1.139-.001v.44h-1.136l-.007.712c.422.009.845.007 1.268.007l-.008.453c-.568.001-1.134.002-1.702-.001-.006-.881 0-1.76-.003-2.641zM13.714 14.778c.566-.001 1.131-.005 1.696.005-.005.144-.009.289-.012.435a99.88 99.88 0 0 0-1.224.003l.003.587c.377-.002.754-.001 1.131-.002l.013.435c-.364.009-.727-.01-1.09.014-.119.202-.033.478-.06.709.419.001.838.002 1.258-.002l.014.438c-.578.03-1.157.03-1.734-.003.001-.872-.004-1.746.003-2.618zM16.053 14.779c.557.042 1.311-.187 1.672.379.301.549.304 1.281.021 1.839-.351.58-1.124.384-1.688.422-.005-.88.001-1.759-.004-2.64zm.472.427c-.004.589-.004 1.178-.001 1.769.268-.036.619.064.814-.176.356-.644.16-1.837-.813-1.592zM10.314 18.671l.462-.007c.001.879.005 1.756-.002 2.635l-.459-.01c-.003-.872-.001-1.745-.001-2.617zM11.286 18.664c.23.001.459.003.689.007.129.587.254 1.174.406 1.756.142-.585.268-1.173.402-1.76l.686-.003c.004.876 0 1.752.003 2.628l-.424.001c-.006-.653.018-1.307-.012-1.96-.168.648-.293 1.306-.436 1.96a33.304 33.304 0 0 0-.447-.003c-.143-.655-.268-1.314-.424-1.966-.038.658-.006 1.317-.022 1.976l-.421-.009c.004-.876.002-1.75.001-2.626zM13.99 18.662l.446.006c-.004.877.001 1.754-.002 2.631-.15-.005-.301-.01-.451-.018.011-.873 0-1.746.007-2.619zM14.796 18.667c.596-.002 1.194 0 1.791-.002l.007.438-.669.003c.001.73.004 1.462-.002 2.192a35.482 35.482 0 0 0-.459-.009c-.003-.727-.003-1.454 0-2.182l-.665-.001-.003-.439zM8.335 18.681l.466.006c-.001.721.002 1.442-.002 2.164h1.133l.005.441c-.533.002-1.066 0-1.6.003-.004-.871-.001-1.743-.002-2.614z"/>
</svg>
