<svg xmlns="http://www.w3.org/2000/svg" width="24" height="24">
    <path fill="#ec1d24" d="M11.069 0h1.561c4.583.223 8.869 3.274 10.524 7.561.455 1.081.652 2.242.846 3.391v2.066c-.396 4.063-2.894 7.872-6.576 9.686-1.358.721-2.867 1.074-4.379 1.295h-2.057c-4.006-.394-7.766-2.825-9.611-6.426C.56 16.053.14 14.35-.001 12.636v-1.267c.14-1.745.576-3.478 1.418-5.021 1.87-3.586 5.642-5.987 9.65-6.349zM6.118 4.412c4.489 4.492 8.98 8.983 13.47 13.472 1.843-2.339 2.478-5.56 1.675-8.425a9.637 9.637 0 0 0-4.59-5.846c-3.264-1.864-7.607-1.532-10.555.799zM4.397 6.128c-2.074 2.675-2.588 6.46-1.25 9.576 1.286 3.144 4.351 5.466 7.732 5.833 2.476.307 5.047-.421 7.013-1.952-4.501-4.482-8.959-9.011-13.494-13.457z"/>
    <path fill="#0079c1" d="M6.118 4.412c2.948-2.332 7.291-2.663 10.555-.799a9.637 9.637 0 0 1 4.59 5.846c.803 2.866.168 6.086-1.675 8.425-4.49-4.489-8.981-8.981-13.47-13.472zM4.397 6.128c4.535 4.446 8.993 8.975 13.494 13.457-1.966 1.531-4.537 2.26-7.013 1.952-3.38-.367-6.445-2.689-7.732-5.833-1.338-3.116-.823-6.901 1.25-9.576z"/>
</svg>
