<!-- Generated by IcoMoon.io -->
<svg version="1.1" xmlns="http://www.w3.org/2000/svg" width="24" height="24" viewBox="0 0 24 24">
<title>regulatory--turn-left-ahead--g2</title>
<path fill="#d71920" d="M11.33 0.547c2.794-0.163 5.647 0.721 7.819 2.495 1.662 1.325 2.938 3.128 3.636 5.136 0.829 2.36 0.852 4.996 0.060 7.368-0.878 2.676-2.794 4.99-5.251 6.362-2.006 1.136-4.363 1.64-6.658 1.416-2.588-0.227-5.078-1.392-6.928-3.214-1.934-1.874-3.164-4.458-3.39-7.142-0.23-2.513 0.401-5.094 1.776-7.211 1.927-3.028 5.348-5.028 8.935-5.21M10.372 2.842c-2.396 0.416-4.595 1.83-5.975 3.832-1.229 1.746-1.801 3.932-1.619 6.056 0.166 2.086 1.076 4.1 2.528 5.605 1.412 1.496 3.342 2.49 5.38 2.779 2.399 0.354 4.928-0.292 6.858-1.76 1.475-1.099 2.61-2.648 3.206-4.39 0.654-1.883 0.668-3.979 0.052-5.874-0.749-2.339-2.479-4.343-4.684-5.424-1.759-0.894-3.809-1.156-5.747-0.824z"></path>
<path fill="#fff" d="M10.372 2.842c1.938-0.331 3.988-0.070 5.747 0.824 2.204 1.081 3.935 3.085 4.684 5.424 0.617 1.895 0.602 3.991-0.052 5.874-0.596 1.741-1.732 3.29-3.206 4.39-1.93 1.469-4.459 2.114-6.858 1.76-2.038-0.289-3.967-1.283-5.38-2.779-1.452-1.505-2.363-3.52-2.528-5.605-0.182-2.124 0.39-4.31 1.619-6.056 1.38-2.002 3.578-3.415 5.975-3.832M4.696 8.16c1.458 0.826 2.909 1.666 4.363 2.5-0.091-0.38-0.186-0.76-0.278-1.139 1.434 0 2.869-0.004 4.304 0.001 0.552-0.026 1.055 0.484 1.039 1.033 0.004 2.65 0 5.299 0.002 7.949 0.88 0 1.76 0 2.64 0 0.001-2.569-0.001-5.138 0.001-7.709 0.118-2.048-1.762-3.968-3.81-3.907-1.398-0.001-2.796 0.001-4.194-0.001 0.098-0.41 0.2-0.821 0.3-1.231-1.466 0.817-2.904 1.684-4.368 2.504z"></path>
<path fill="#231f20" d="M4.696 8.16c1.464-0.821 2.902-1.687 4.368-2.504-0.1 0.41-0.202 0.821-0.3 1.231 1.398 0.002 2.796 0 4.194 0.001 2.048-0.061 3.928 1.859 3.81 3.907-0.002 2.57 0 5.14-0.001 7.709-0.88 0-1.76 0-2.64 0-0.002-2.65 0.001-5.299-0.002-7.949 0.016-0.55-0.487-1.060-1.039-1.033-1.435-0.005-2.87-0.001-4.304-0.001 0.092 0.379 0.187 0.758 0.278 1.139-1.454-0.834-2.905-1.674-4.363-2.5z"></path>
</svg>
