<?xml version="1.0" encoding="utf-8"?>
<!-- Generated by IcoMoon.io -->
<!DOCTYPE svg PUBLIC "-//W3C//DTD SVG 1.1//EN" "http://www.w3.org/Graphics/SVG/1.1/DTD/svg11.dtd">
<svg version="1.1" xmlns="http://www.w3.org/2000/svg" xmlns:xlink="http://www.w3.org/1999/xlink" width="24" height="24" viewBox="0 0 24 24">
<path fill="#fff" d="M0 12c0-6.628 5.371-12 12-12s11.999 5.372 11.999 12-5.371 12-11.999 12c-6.629 0-12-5.372-12-12z"></path>
<path fill="#ed171f" d="M12 20.899c4.925 0 8.919-3.993 8.919-8.899 0-4.926-3.993-8.919-8.919-8.919-4.906 0-8.899 3.993-8.899 8.919 0 4.906 3.993 8.899 8.899 8.899zM0 12c0-6.628 5.372-12 12-12s12 5.372 12 12c0 6.628-5.372 12-12 12s-12-5.372-12-12z"></path>
<path fill="#000" d="M7.767 16.338h-0.488l-0.589-0.914-0.223 0.264v0.65h-0.407v-2.052h0.407v0.853l0.731-0.853h0.508l-0.731 0.834 0.792 1.219zM9.718 15.322c0 0.589-0.325 1.077-0.976 1.077s-0.955-0.488-0.955-1.077 0.285-1.078 0.955-1.098c0.651 0 0.976 0.508 0.976 1.098zM9.312 15.322c0-0.407-0.183-0.731-0.569-0.731s-0.548 0.305-0.548 0.731c0 0.386 0.163 0.711 0.548 0.711s0.569-0.325 0.569-0.711zM11.67 16.338h-0.427l-0.935-1.423v1.423h-0.386v-2.052h0.447l0.915 1.423v-1.423h0.386v2.052zM13.336 14.651h-0.569v1.687h-0.406v-1.687h-0.57v-0.366h1.545v0.366zM15.083 16.338h-0.467l-0.447-0.792h-0.325v0.792h-0.386v-2.052h0.793c0.122 0 0.223 0 0.305 0.040 0.203 0.082 0.366 0.285 0.386 0.528 0 0.305-0.142 0.528-0.386 0.631l0.528 0.853zM14.535 14.895c0-0.122-0.061-0.265-0.305-0.265h-0.386v0.549h0.407c0.122 0 0.305-0.061 0.285-0.285zM17.115 15.322c0 0.589-0.346 1.077-0.975 1.077-0.651 0-0.956-0.488-0.956-1.077s0.285-1.078 0.956-1.098c0.65 0 0.975 0.508 0.975 1.098zM16.709 15.322c0-0.407-0.183-0.731-0.568-0.731s-0.57 0.305-0.57 0.731c0 0.386 0.183 0.711 0.57 0.711s0.568-0.325 0.568-0.711zM18.578 16.338h-1.199v-2.052h0.407v1.687h0.792v0.366zM8.54 9.51c0 0.569-0.508 1.098-1.321 1.098-0.63 0-1.036-0.244-1.423-0.651l0.467-0.447c0.223 0.244 0.488 0.467 0.914 0.467 0.224 0 0.671-0.061 0.691-0.447 0-0.386-0.427-0.407-0.854-0.468-0.203-0.040-0.386-0.081-0.548-0.142-0.326-0.183-0.549-0.427-0.57-0.874 0-0.61 0.528-1.036 1.22-1.056 0.528-0.021 0.996 0.142 1.341 0.548l-0.487 0.427c-0.183-0.244-0.427-0.366-0.772-0.366-0.285 0-0.63 0.122-0.61 0.427 0 0.182 0.102 0.305 0.549 0.386 0.711 0.101 1.402 0.243 1.402 1.097zM11.527 7.701h-0.996v2.805h-0.651v-2.805h-0.996v-0.63h2.642v0.63zM15.063 8.798c0 0.975-0.549 1.809-1.606 1.809-1.077 0-1.564-0.813-1.564-1.809s0.447-1.788 1.564-1.808c1.078-0.021 1.606 0.853 1.606 1.808zM14.392 8.798c0-0.65-0.285-1.219-0.915-1.219-0.65 0-0.955 0.528-0.955 1.219 0 0.671 0.305 1.199 0.955 1.199 0.63 0 0.915-0.528 0.915-1.199zM18.375 8.128c0 0.671-0.427 1.138-1.077 1.138h-0.691v1.24h-0.65v-3.434h1.32c0.671 0 1.098 0.508 1.098 1.056zM17.725 8.169c0-0.245-0.162-0.366-0.203-0.386-0.122-0.102-0.305-0.102-0.406-0.102h-0.508v0.995h0.508c0.101 0 0.285 0 0.406-0.101 0.041-0.020 0.203-0.162 0.203-0.406zM5.39 11.196h13.25c0.61 0 1.118 0.549 1.118 1.199s-0.508 1.199-1.118 1.199h-13.25c-0.61 0-1.117-0.549-1.117-1.199s0.507-1.199 1.117-1.199z"></path>
</svg>
