<!-- Generated by IcoMoon.io -->
<svg version="1.1" xmlns="http://www.w3.org/2000/svg" width="24" height="24" viewBox="0 0 24 24">
<title>regulatory--night-speed-limit-20--g1</title>
<path fill="#fff" d="M0.91 0h22.178c0.445 0.103 0.808 0.467 0.912 0.912v22.174c-0.102 0.446-0.467 0.81-0.912 0.914h-22.176c-0.445-0.103-0.808-0.466-0.913-0.91v-22.179c0.103-0.444 0.466-0.807 0.91-0.911M1.566 0.587c-0.558 0.060-1.007 0.584-0.991 1.143-0.001 6.846-0.001 13.693 0 20.539-0.023 0.64 0.567 1.2 1.203 1.156 6.831-0.001 13.661 0.001 20.491-0.001 0.621 0.021 1.176-0.534 1.155-1.155 0.001-6.846 0.001-13.693 0-20.539 0.007-0.443-0.263-0.875-0.67-1.053-0.255-0.122-0.542-0.104-0.816-0.103-6.625 0-13.25 0-19.875 0-0.165 0.001-0.332-0.008-0.496 0.012z"></path>
<path fill="#fff" d="M10.478 4.005c0.514-0.678 1.703-0.592 2.082 0.185-0.167 0.098-0.335 0.196-0.504 0.291-0.201-0.404-0.789-0.525-1.1-0.18-0.374 0.476-0.377 1.235 0.001 1.71 0.331 0.393 1.107 0.193 1.073-0.368-0.18-0.001-0.361-0-0.541-0.003-0.001-0.175-0.001-0.35-0.001-0.525 0.372-0 0.743 0.003 1.116-0.002-0.002 0.413 0.037 0.869-0.228 1.22-0.472 0.644-1.582 0.549-1.993-0.118-0.406-0.662-0.386-1.589 0.095-2.208z"></path>
<path fill="#fff" d="M4.662 3.614c0.181 0.001 0.362 0.001 0.543 0 0.439 0.682 0.889 1.358 1.317 2.048-0.004-0.683 0.002-1.366-0.004-2.048 0.186 0.003 0.372 0.003 0.558-0-0.005 1.035-0.002 2.071-0.001 3.106-0.168 0-0.336 0-0.504-0-0.451-0.701-0.923-1.388-1.357-2.1 0.015 0.7 0.004 1.401 0.007 2.1-0.186 0.001-0.372 0.001-0.558 0-0.001-1.035 0-2.070-0.001-3.105z"></path>
<path fill="#fff" d="M8.351 3.615c0.191 0 0.382 0 0.572 0-0.002 1.035 0 2.069-0.001 3.104-0.19 0.001-0.38 0.002-0.57-0.002-0.002-1.034-0.001-2.068-0-3.102z"></path>
<path fill="#fff" d="M13.74 3.612c0.188 0.004 0.375 0.003 0.563 0 0.002 0.413-0 0.827 0.001 1.24 0.434 0 0.868-0 1.302 0 0.023-0.412 0.028-0.829-0.004-1.24 0.188 0.002 0.376 0.001 0.564 0.001 0 1.034 0.001 2.068-0 3.102-0.183 0.004-0.366 0.002-0.549 0.003 0.009-0.44 0-0.88 0.005-1.32-0.438-0.028-0.878-0.007-1.318-0.013-0.002 0.443 0.001 0.887-0.001 1.331-0.187 0.001-0.374 0.001-0.561 0 0-1.035 0.004-2.071-0.002-3.106z"></path>
<path fill="#fff" d="M17.215 3.598c0.767-0.002 1.534-0.001 2.301-0 0.001 0.181 0.001 0.362 0 0.543-0.288 0.001-0.577 0-0.865 0.001-0.001 0.859 0 1.718-0 2.577-0.188 0.002-0.375 0.001-0.563 0-0.001-0.859 0-1.718-0.001-2.578-0.291-0-0.581 0.001-0.871-0.001-0.001-0.18-0.001-0.361 0-0.542z"></path>
<path fill="#fff" d="M2.998 11.714c0.498-1.293 1.78-2.186 3.143-2.327 1.015-0.109 2.112 0.071 2.928 0.72 1.34 1.041 1.504 3.218 0.437 4.507-0.856 1.020-2.175 1.434-3.199 2.241-0.546 0.418-1.017 0.971-1.204 1.645 1.729 0.001 3.458-0.001 5.187 0.001 0.002 0.611 0.004 1.222-0 1.832-2.484 0.004-4.967 0.001-7.451 0.001-0.005-0.957 0.172-1.925 0.59-2.79 0.576-1.216 1.607-2.156 2.752-2.832 0.642-0.385 1.387-0.675 1.838-1.305 0.426-0.572 0.351-1.485-0.242-1.915-0.614-0.443-1.482-0.419-2.143-0.093-0.44 0.227-0.742 0.645-0.936 1.090-0.567-0.257-1.133-0.516-1.7-0.775z"></path>
<path fill="#fff" d="M16.516 9.392c0.795-0.095 1.636-0.005 2.341 0.395 0.684 0.38 1.185 1.024 1.501 1.73 0.483 1.075 0.618 2.269 0.63 3.437-0.015 1.107-0.144 2.233-0.574 3.262-0.297 0.715-0.769 1.38-1.433 1.796-1.298 0.784-3.144 0.688-4.274-0.36-1.123-1.076-1.448-2.702-1.524-4.196-0.051-1.616 0.122-3.353 1.074-4.714 0.521-0.741 1.358-1.243 2.258-1.35M16.755 11.19c-0.495 0.084-0.895 0.451-1.123 0.885-0.376 0.709-0.479 1.523-0.528 2.313-0.036 0.867-0.001 1.747 0.215 2.59 0.139 0.512 0.354 1.035 0.768 1.388 0.619 0.534 1.666 0.449 2.182-0.19 0.552-0.668 0.698-1.564 0.778-2.401 0.068-1.242 0.063-2.565-0.512-3.7-0.315-0.651-1.066-1.047-1.781-0.885z"></path>
<path fill="#000" d="M1.566 0.587c0.165-0.020 0.331-0.011 0.496-0.012 6.625 0 13.25 0 19.875-0 0.274-0 0.562-0.019 0.816 0.103 0.407 0.178 0.677 0.61 0.67 1.053 0.001 6.846 0.001 13.693 0 20.539 0.021 0.621-0.534 1.176-1.155 1.155-6.83 0.002-13.66-0-20.491 0.001-0.637 0.044-1.226-0.516-1.203-1.156-0.001-6.846-0.001-13.693 0-20.539-0.016-0.56 0.433-1.084 0.991-1.143M10.478 4.005c-0.481 0.62-0.501 1.546-0.095 2.208 0.411 0.667 1.521 0.762 1.993 0.118 0.264-0.351 0.225-0.806 0.228-1.22-0.372 0.005-0.744 0.002-1.116 0.002-0 0.175-0 0.35 0.001 0.525 0.18 0.002 0.361 0.002 0.541 0.003 0.034 0.562-0.742 0.762-1.073 0.368-0.378-0.474-0.375-1.234-0.001-1.71 0.311-0.345 0.899-0.223 1.1 0.18 0.169-0.094 0.337-0.193 0.504-0.291-0.379-0.777-1.568-0.862-2.082-0.185M4.662 3.614c0.001 1.035-0 2.070 0.001 3.105 0.186 0.001 0.372 0.001 0.558 0-0.003-0.7 0.009-1.4-0.007-2.1 0.434 0.712 0.906 1.4 1.357 2.1 0.168 0.001 0.336 0.001 0.504 0-0-1.035-0.004-2.071 0.001-3.106-0.186 0.004-0.372 0.003-0.558 0 0.006 0.683-0 1.365 0.004 2.048-0.428-0.69-0.878-1.365-1.317-2.047-0.181 0.001-0.362 0.001-0.543 0M8.351 3.615c-0 1.034-0.001 2.068 0 3.102 0.19 0.004 0.38 0.003 0.57 0.002 0.002-1.035-0-2.069 0.001-3.104-0.191 0-0.382 0-0.572 0M13.74 3.612c0.006 1.035 0.002 2.071 0.002 3.106 0.187 0 0.374 0 0.561-0 0.002-0.443-0-0.887 0.001-1.331 0.439 0.006 0.879-0.015 1.318 0.013-0.005 0.44 0.004 0.88-0.005 1.32 0.183-0.001 0.366 0 0.549-0.003 0.001-1.034 0-2.068 0-3.102-0.188 0-0.376 0.001-0.564-0.001 0.031 0.412 0.027 0.828 0.004 1.24-0.434-0.001-0.868 0-1.302-0-0.002-0.413 0.001-0.827-0.001-1.24-0.188 0.003-0.375 0.003-0.563-0M17.215 3.598c-0.002 0.18-0.002 0.361-0 0.542 0.29 0.002 0.581 0 0.871 0.001 0.001 0.859-0 1.718 0.001 2.578 0.188 0.001 0.375 0.001 0.563-0 0.001-0.859-0.001-1.718 0-2.577 0.288-0.001 0.577 0 0.865-0.001 0.001-0.181 0.001-0.362 0-0.543-0.767-0-1.534-0.001-2.301 0M2.998 11.714c0.566 0.259 1.132 0.518 1.7 0.775 0.194-0.445 0.496-0.863 0.936-1.090 0.661-0.326 1.529-0.349 2.143 0.093 0.593 0.43 0.668 1.343 0.242 1.915-0.45 0.63-1.196 0.92-1.838 1.305-1.145 0.675-2.176 1.615-2.752 2.832-0.419 0.865-0.595 1.833-0.59 2.79 2.484-0 4.967 0.003 7.451-0.001 0.004-0.61 0.003-1.221 0-1.832-1.729-0.002-3.458 0-5.187-0.001 0.187-0.674 0.658-1.227 1.204-1.645 1.024-0.807 2.343-1.221 3.199-2.241 1.067-1.289 0.902-3.466-0.437-4.507-0.816-0.649-1.912-0.83-2.928-0.72-1.362 0.141-2.645 1.034-3.143 2.327M16.516 9.392c-0.9 0.106-1.738 0.608-2.258 1.35-0.952 1.361-1.125 3.098-1.074 4.714 0.077 1.493 0.402 3.12 1.524 4.196 1.13 1.048 2.976 1.144 4.274 0.36 0.664-0.416 1.135-1.081 1.433-1.796 0.43-1.029 0.56-2.155 0.574-3.262-0.012-1.168-0.147-2.362-0.63-3.437-0.316-0.705-0.818-1.35-1.501-1.73-0.705-0.4-1.546-0.49-2.341-0.395z"></path>
<path fill="#000" d="M16.755 11.19c0.714-0.162 1.466 0.234 1.781 0.885 0.576 1.134 0.58 2.458 0.512 3.7-0.081 0.837-0.226 1.733-0.778 2.401-0.516 0.639-1.563 0.725-2.182 0.19-0.414-0.352-0.629-0.876-0.768-1.388-0.216-0.844-0.251-1.724-0.215-2.59 0.049-0.79 0.151-1.605 0.528-2.313 0.228-0.434 0.628-0.8 1.123-0.885z"></path>
</svg>
