<?xml version="1.0" encoding="utf-8"?>
<!-- Generated by IcoMoon.io -->
<!DOCTYPE svg PUBLIC "-//W3C//DTD SVG 1.1//EN" "http://www.w3.org/Graphics/SVG/1.1/DTD/svg11.dtd">
<svg version="1.1" xmlns="http://www.w3.org/2000/svg" xmlns:xlink="http://www.w3.org/1999/xlink" width="24" height="24" viewBox="0 0 24 24">
<path fill="#ee1c23" d="M11.891 1.5h0.197c0.427 0.126 0.593 0.57 0.805 0.916 3.626 6.293 7.256 12.584 10.885 18.877 0.091 0.167 0.164 0.344 0.222 0.527v0.156c-0.054 0.294-0.307 0.461-0.582 0.524h-22.811c-0.275-0.048-0.521-0.208-0.607-0.482v-0.185c0.053-0.188 0.126-0.372 0.222-0.542 3.616-6.269 7.231-12.536 10.844-18.806 0.226-0.361 0.389-0.826 0.824-0.984M3.86 19.994c5.426 0.002 10.853 0.002 16.278 0.001-2.712-4.706-5.422-9.413-8.14-14.116-2.716 4.703-5.426 9.409-8.138 14.114z"></path>
<path fill="#fff" d="M3.86 19.994c2.712-4.705 5.423-9.412 8.138-14.114 2.718 4.703 5.428 9.409 8.14 14.116-5.425 0.001-10.852 0.001-16.278-0.001M10.812 12.913c-1.015 0.802-1.662 2.056-1.7 3.352-0.019 0.959-0.001 1.92-0.008 2.88 0.301-0.256 0.611-0.502 0.913-0.755 0.324 0.238 0.631 0.497 0.938 0.756 0.004-0.924-0.006-1.848 0.004-2.772 0.011-0.734 0.355-1.451 0.91-1.928 0.56-0.512 1.338-0.692 2.081-0.653 0.265-0.307 0.528-0.616 0.796-0.92-0.265-0.316-0.538-0.625-0.808-0.936-1.114-0.038-2.252 0.266-3.125 0.977z"></path>
<path fill="#000" d="M10.812 12.913c0.872-0.71 2.011-1.015 3.125-0.977 0.27 0.311 0.542 0.62 0.808 0.936-0.268 0.305-0.53 0.613-0.796 0.92-0.743-0.040-1.52 0.14-2.081 0.653-0.554 0.478-0.899 1.194-0.91 1.928-0.010 0.924 0 1.848-0.004 2.772-0.307-0.259-0.614-0.518-0.938-0.756-0.302 0.253-0.612 0.499-0.913 0.755 0.007-0.96-0.011-1.921 0.008-2.88 0.038-1.296 0.685-2.55 1.7-3.352z"></path>
</svg>
