<?xml version="1.0" encoding="utf-8"?>
<!-- Generated by IcoMoon.io -->
<!DOCTYPE svg PUBLIC "-//W3C//DTD SVG 1.1//EN" "http://www.w3.org/Graphics/SVG/1.1/DTD/svg11.dtd">
<svg version="1.1" xmlns="http://www.w3.org/2000/svg" xmlns:xlink="http://www.w3.org/1999/xlink" width="24" height="24" viewBox="0 0 24 24">
<path fill="#ff3319" d="M11.866 1.38h0.239c0.553 0.049 1.061 0.373 1.324 0.864 3.426 5.935 6.842 11.876 10.268 17.812 0.132 0.229 0.234 0.473 0.304 0.728v0.457c-0.095 0.703-0.673 1.277-1.373 1.379h-21.236c-1.096-0.12-1.763-1.475-1.157-2.406 3.448-5.992 6.902-11.98 10.354-17.969 0.254-0.479 0.744-0.794 1.278-0.865M2.519 20.5c6.326 0.001 12.654 0.001 18.98 0-3.162-5.488-6.323-10.975-9.491-16.459-3.167 5.484-6.329 10.972-9.49 16.459z"></path>
<path fill="#fff" d="M2.519 20.5c3.161-5.488 6.323-10.975 9.49-16.459 3.168 5.484 6.329 10.972 9.491 16.459-6.326 0.001-12.654 0.001-18.98 0M14.084 9.114c-0.046 0.227-0.084 0.455-0.115 0.684-0.096 0.058-0.192 0.116-0.288 0.176-0.558 0.842-0.574 1.867-0.781 2.822 0.112 0.756-0.391 1.406-0.54 2.123-0.083 0.43-0.406 0.738-0.634 1.092-0.098 0.355-0.040 0.736-0.132 1.093-0.199 0.299-0.49 0.52-0.74 0.772-0.511 0.638-1.060 1.27-1.324 2.060 3.602 0.007 7.206 0.002 10.81 0.002-2.090-3.606-4.154-7.226-6.256-10.825M12.772 9.905c-0.055 0.203-0.215 0.494 0 0.655 0.325 0.296 0.758-0.313 0.553-0.588-0.182-0.037-0.368-0.052-0.553-0.067M11.884 10.896c-0.059 0.413 0.294 0.668 0.578 0.89 0.074-0.054 0.223-0.162 0.298-0.216-0.002-0.269 0.038-0.551-0.068-0.806-0.262-0.212-0.552 0.044-0.808 0.132M10.279 12.058c-0.199 0.086-0.391 0.185-0.584 0.284-0.086 0.298-0.131 0.607-0.222 0.905-0.034 0.157-0.182 0.31-0.107 0.475 0.245 0.197 0.522 0.361 0.704 0.626 0.181 0.281 0.553 0.377 0.859 0.254 0.292-0.097 0.704-0.19 0.736-0.563 0.049-0.353 0.199-0.682 0.247-1.033-0.114-0.414-0.428-0.726-0.698-1.044-0.262-0.306-0.616 0.134-0.935 0.095M12.383 12.1c-0.089 0.308-0.010 0.584 0.307 0.701 0.054-0.163 0.108-0.325 0.161-0.488-0.046-0.066-0.137-0.197-0.181-0.263-0.072 0.013-0.215 0.038-0.287 0.050M7.518 14.315c-0.406 0.392-0.668 1.134-0.17 1.56 0.438 0.094 1.051 0.126 1.326-0.305 0.11-0.31 0.136-0.685-0.025-0.983-0.325-0.222-0.733-0.448-1.13-0.272M10.327 14.97c-0.209 0.212-0.16 0.545-0.168 0.817 0.244 0.217 0.524 0.39 0.84 0.481 0.137-0.192 0.265-0.389 0.4-0.581-0.092-0.282-0.19-0.563-0.277-0.846-0.268 0.001-0.584-0.090-0.794 0.128M6.784 16.226c-0.667 0.056-0.977 0.738-1.187 1.284-0.086 0.493-0.229 1.198 0.293 1.504 0.248 0.276 0.63 0.18 0.955 0.233 0.808 0.262 1.62-0.396 1.879-1.135 0.128-0.612-0.154-1.267-0.628-1.66-0.38-0.257-0.868-0.355-1.313-0.226M9.125 17.713c0.24 0.161 0.53 0.247 0.821 0.194 0.301-0.188 0.289-0.569 0.265-0.88-0.113-0.074-0.226-0.149-0.337-0.223-0.443 0.068-0.744 0.472-0.749 0.908z"></path>
<path fill="#000" d="M14.084 9.114c2.101 3.599 4.165 7.219 6.256 10.825-3.604 0-7.207 0.005-10.81-0.002 0.264-0.791 0.812-1.422 1.324-2.060 0.251-0.252 0.541-0.473 0.74-0.772 0.092-0.358 0.034-0.738 0.132-1.093 0.228-0.354 0.551-0.662 0.634-1.092 0.149-0.716 0.652-1.367 0.54-2.123 0.208-0.955 0.223-1.98 0.781-2.822 0.096-0.060 0.192-0.119 0.288-0.176 0.031-0.229 0.070-0.457 0.115-0.684z"></path>
<path fill="#000" d="M12.772 9.905c0.185 0.016 0.371 0.030 0.553 0.067 0.205 0.275-0.228 0.884-0.553 0.588-0.215-0.161-0.055-0.452 0-0.655z"></path>
<path fill="#000" d="M11.884 10.896c0.256-0.088 0.546-0.344 0.808-0.132 0.107 0.256 0.066 0.538 0.068 0.806-0.074 0.054-0.223 0.162-0.298 0.216-0.284-0.222-0.637-0.478-0.578-0.89z"></path>
<path fill="#000" d="M10.279 12.058c0.319 0.040 0.673-0.401 0.935-0.095 0.27 0.318 0.584 0.63 0.698 1.044-0.048 0.352-0.198 0.68-0.247 1.033-0.031 0.373-0.444 0.466-0.736 0.563-0.306 0.122-0.678 0.026-0.859-0.254-0.182-0.265-0.46-0.43-0.704-0.626-0.076-0.166 0.073-0.318 0.107-0.475 0.091-0.298 0.136-0.607 0.222-0.905 0.193-0.1 0.385-0.198 0.584-0.284z"></path>
<path fill="#000" d="M12.383 12.1c0.072-0.012 0.215-0.037 0.287-0.050 0.044 0.066 0.136 0.197 0.181 0.263-0.053 0.163-0.107 0.325-0.161 0.488-0.317-0.116-0.396-0.392-0.307-0.701z"></path>
<path fill="#000" d="M7.518 14.315c0.397-0.175 0.805 0.050 1.13 0.272 0.161 0.298 0.136 0.673 0.025 0.983-0.275 0.431-0.888 0.398-1.326 0.305-0.498-0.426-0.235-1.168 0.17-1.56z"></path>
<path fill="#000" d="M10.327 14.97c0.21-0.218 0.527-0.127 0.794-0.128 0.088 0.283 0.185 0.564 0.277 0.846-0.134 0.192-0.263 0.389-0.4 0.581-0.316-0.091-0.596-0.264-0.84-0.481 0.008-0.272-0.041-0.605 0.168-0.817z"></path>
<path fill="#000" d="M6.784 16.226c0.445-0.13 0.932-0.031 1.313 0.226 0.474 0.392 0.756 1.048 0.628 1.66-0.259 0.739-1.072 1.397-1.879 1.135-0.325-0.053-0.707 0.043-0.955-0.233-0.522-0.306-0.379-1.010-0.293-1.504 0.21-0.546 0.52-1.228 1.187-1.284z"></path>
<path fill="#000" d="M9.125 17.713c0.005-0.437 0.306-0.84 0.749-0.908 0.112 0.074 0.224 0.149 0.337 0.223 0.024 0.311 0.036 0.691-0.265 0.88-0.29 0.053-0.581-0.034-0.821-0.194z"></path>
</svg>
