<!-- Generated by IcoMoon.io -->
<svg version="1.1" xmlns="http://www.w3.org/2000/svg" width="24" height="24" viewBox="0 0 24 24">
<title>warning--closed-lane-in-triple-lanes--g2</title>
<path fill="#030304" d="M6.089 5.686c1.894-1.858 3.715-3.805 5.784-5.47 1.726 1.329 3.198 2.945 4.758 4.456 2.349 2.432 4.874 4.714 7.038 7.315-0.828 1.077-1.818 2.014-2.755 2.993-2.569 2.601-5.144 5.194-7.773 7.733-0.399 0.395-0.832 0.755-1.292 1.077-0.858-0.58-1.548-1.356-2.296-2.062-2.846-2.815-5.689-5.637-8.476-8.512-0.367-0.371-0.702-0.773-1.002-1.2 1.804-2.287 4.003-4.228 6.012-6.33M11.471 0.821c-3.604 3.585-7.2 7.181-10.791 10.781-0.333 0.232-0.177 0.63 0.085 0.845 3.581 3.566 7.15 7.149 10.741 10.704 0.332 0.371 0.748 0 0.988-0.274 3.58-3.653 7.288-7.184 10.816-10.884-0.363-0.52-0.825-0.957-1.277-1.4-3.239-3.232-6.475-6.469-9.713-9.701-0.216-0.268-0.616-0.399-0.849-0.073z"></path>
<path fill="#030304" d="M14.213 9.243c0.347-0.809 0.93-1.482 1.497-2.144 0.499 0.698 1.103 1.336 1.441 2.136-0.286 0.023-0.572 0.039-0.858 0.053-0.004 2.267 0.001 4.532-0.004 6.798-0.388 0-0.775 0-1.164 0-0.007-2.267 0-4.534-0.003-6.802-0.303-0.009-0.607-0.022-0.91-0.040z"></path>
<path fill="#ffdb03" d="M11.471 0.821c0.233-0.326 0.634-0.196 0.849 0.073 3.239 3.232 6.475 6.469 9.713 9.701 0.452 0.442 0.914 0.879 1.277 1.4-3.529 3.7-7.236 7.231-10.816 10.884-0.24 0.274-0.657 0.644-0.988 0.274-3.591-3.556-7.16-7.138-10.741-10.704-0.262-0.216-0.418-0.613-0.085-0.845 3.591-3.6 7.187-7.196 10.791-10.781M6.662 9.241c0.279 0.018 0.56 0.031 0.839 0.043 0.004 2.269 0 4.54 0.003 6.809 0.395 0.001 0.789 0.001 1.184 0.001 0.004-2.271-0.001-4.54 0.003-6.81 0.298-0.011 0.597-0.026 0.894-0.049-0.341-0.796-0.934-1.44-1.437-2.134-0.562 0.661-1.137 1.335-1.484 2.14M14.213 9.243c0.303 0.019 0.607 0.031 0.91 0.040 0.003 2.268-0.004 4.536 0.003 6.802 0.388 0 0.775 0 1.164 0 0.005-2.267 0-4.532 0.004-6.798 0.286-0.013 0.572-0.030 0.858-0.053-0.338-0.8-0.942-1.437-1.441-2.136-0.566 0.662-1.15 1.335-1.497 2.144M10.13 7.396c-0.004 0.669-0.058 1.342 0.012 2.008 0.34 0.035 0.684 0.013 1.022 0.062 0.183 2.199 0.070 4.413 0.116 6.619 0.396 0.001 0.793 0.001 1.189 0.003 0.009-2.237-0.001-4.472 0.005-6.709 0.376 0 0.754 0 1.131 0.003 0.035-0.661 0.034-1.324-0.004-1.985-1.157-0.003-2.314-0.003-3.472 0z"></path>
<path fill="#030303" d="M6.662 9.241c0.348-0.805 0.922-1.479 1.484-2.14 0.503 0.694 1.096 1.339 1.437 2.134-0.297 0.023-0.596 0.038-0.894 0.049-0.004 2.271 0.001 4.54-0.003 6.81-0.395 0-0.789 0-1.184-0.001-0.003-2.269 0.001-4.54-0.003-6.809-0.279-0.012-0.56-0.026-0.839-0.043z"></path>
<path fill="#030303" d="M11.316 9.382c0.386-0.001 0.773-0.003 1.158-0.004-0.007 2.237 0.004 4.472-0.005 6.709-0.396-0.001-0.793-0.001-1.189-0.003-0.011-2.234 0.073-4.468 0.036-6.702z"></path>
<path fill="#c0111e" d="M10.13 7.396c1.158-0.003 2.315-0.003 3.472 0 0.038 0.661 0.039 1.324 0.004 1.985-0.378-0.003-0.755-0.003-1.131-0.003-0.386 0.001-0.773 0.003-1.158 0.004 0.036 2.234-0.047 4.468-0.036 6.702-0.046-2.206 0.067-4.42-0.116-6.619-0.338-0.049-0.682-0.027-1.022-0.062-0.070-0.666-0.016-1.339-0.012-2.008z"></path>
</svg>
