<svg xmlns="http://www.w3.org/2000/svg" width="24" height="24">
    <path fill="#231f20" d="M11.683 1.138c.599-.114 1.219.11 1.639.544 3.276 3.122 6.547 6.251 9.815 9.382.718.637.712 1.843.028 2.502-3.136 3.145-6.277 6.284-9.419 9.425-.648.68-1.829.756-2.522.103-3.332-3.187-6.671-6.368-10.001-9.557-.672-.641-.632-1.807.026-2.442 3.073-3.09 6.157-6.168 9.238-9.248.325-.337.72-.637 1.196-.708zm.245.246c-.463.013-.877.266-1.19.594-3.077 3.082-6.162 6.154-9.234 9.241-.631.551-.677 1.628-.034 2.189 3.296 3.144 6.589 6.293 9.883 9.438.588.6 1.638.557 2.203-.053 3.143-3.136 6.281-6.276 9.416-9.416.581-.559.588-1.584-.026-2.12-3.241-3.119-6.5-6.22-9.75-9.329-.331-.337-.784-.58-1.268-.544z"/>
    <path fill="#231f20" d="M11.552 1.843c.61-.175 1.284.028 1.726.475 3.036 2.885 6.056 5.786 9.086 8.678.758.601.848 1.831.145 2.51-2.938 2.945-5.879 5.887-8.82 8.828-.64.678-1.819.73-2.485.064-3.104-2.976-6.221-5.944-9.325-8.92-.656-.641-.577-1.784.082-2.394C4.816 8.217 7.683 5.361 10.542 2.5c.281-.292.61-.558 1.01-.659zm.119.358c-.376.089-.66.364-.925.626-2.833 2.846-5.683 5.676-8.513 8.526-.546.487-.588 1.426-.03 1.92 3.092 2.948 6.176 5.904 9.266 8.854.503.502 1.385.48 1.89-.005 2.946-2.934 5.882-5.879 8.825-8.816.539-.49.587-1.42.034-1.916-3.035-2.927-6.094-5.828-9.138-8.744-.358-.374-.896-.583-1.409-.444z"/>
    <path fill="#231f20" d="M10.876 11.767c.365-1.763 3.337-1.86 3.668-.014.307-.008.613-.019.919-.034.361-1.633 3.275-1.787 3.524-.011.326-.001.654-.001.98.002-.017.85-.019 1.7-.054 2.55-5.152-.001-10.304-.014-15.456-.026-.006-.816-.004-1.632-.001-2.448.554-.002 1.11.005 1.666-.004.595-1.676 3.221-1.67 3.835-.007.306.001.612-.001.918-.008z"/>
    <path fill="#fff100" d="M11.928 1.384c.485-.036.937.206 1.268.544 3.25 3.109 6.509 6.21 9.75 9.329.614.536.607 1.561.026 2.12-3.136 3.14-6.274 6.281-9.416 9.416-.565.61-1.615.653-2.203.053-3.294-3.145-6.587-6.294-9.883-9.438-.643-.56-.598-1.638.034-2.189 3.072-3.088 6.157-6.16 9.234-9.241.313-.328.727-.581 1.19-.594zm-.376.459c-.401.101-.73.367-1.01.659-2.86 2.861-5.726 5.717-8.581 8.584-.659.61-.738 1.753-.082 2.394 3.104 2.976 6.221 5.944 9.325 8.92.666.666 1.846.614 2.485-.064 2.941-2.941 5.882-5.884 8.82-8.828.703-.679.613-1.909-.145-2.51-3.03-2.892-6.05-5.794-9.086-8.678-.442-.448-1.116-.65-1.726-.475z"/>
    <path fill="#fff100" d="M11.671 2.201c.512-.139 1.051.07 1.409.444 3.044 2.916 6.103 5.818 9.138 8.744.553.497.505 1.427-.034 1.916-2.942 2.938-5.879 5.882-8.825 8.816-.505.485-1.387.506-1.89.005-3.09-2.95-6.174-5.905-9.266-8.854-.558-.494-.516-1.433.03-1.92 2.83-2.85 5.68-5.68 8.513-8.526.265-.263.55-.538.925-.626zm-.795 9.566c-.306.007-.612.01-.918.008-.614-1.663-3.24-1.669-3.835.007-.556.008-1.111.001-1.666.004-.002.816-.005 1.632.001 2.448 5.152.012 10.304.025 15.456.026.035-.85.037-1.7.054-2.55a53.357 53.357 0 0 0-.98-.002c-.25-1.776-3.163-1.622-3.524.011-.306.014-.612.025-.919.034-.331-1.846-3.304-1.748-3.668.014z"/>
</svg>
