<!-- Generated by IcoMoon.io -->
<svg version="1.1" xmlns="http://www.w3.org/2000/svg" width="27" height="24" viewBox="0 0 27 24">
<title>warning--width-restriction--g1</title>
<path fill="#e20a16" d="M13.441 0h0.501c0.287 0.181 0.521 0.432 0.683 0.728 4.256 7.414 8.56 14.8 12.804 22.221v0.507c-0.156 0.158-0.313 0.315-0.483 0.458-7.059-0.114-14.124-0.016-21.186-0.048-1.755 0.021-3.512-0.052-5.266 0.048-0.176-0.148-0.335-0.311-0.494-0.476v-0.427c4.165-7.366 8.463-14.661 12.66-22.009 0.202-0.377 0.462-0.72 0.782-1.004M3.547 21.592c6.786 0.005 13.57 0.005 20.356 0-3.39-5.877-6.78-11.755-10.18-17.627-3.396 5.872-6.791 11.748-10.176 17.627z"></path>
<path fill="#fff" d="M3.547 21.592c3.385-5.879 6.78-11.755 10.176-17.627 3.4 5.872 6.79 11.75 10.18 17.627-6.786 0.005-13.57 0.005-20.356 0M11.325 13.897c0.125 0.007 0.374 0.022 0.499 0.029 0.128-0.562 0.952-0.693 1.096-0.074-0.259 1.016-1.513 1.546-1.572 2.64 0.686 0.004 1.371 0.003 2.056 0.001 0-0.174 0-0.347 0-0.521-0.447 0.001-0.894 0.001-1.341-0.001 0.409-0.569 0.911-1.072 1.266-1.677 0.31-0.642-0.28-1.443-0.981-1.384-0.538 0.027-0.871 0.521-1.023 0.987M15.050 13.289c0.001 0.139 0.005 0.413 0.007 0.55 0.173-0.122 0.347-0.244 0.521-0.366 0 1.007-0.001 2.013 0 3.020 0.122 0 0.365 0 0.485 0-0.001-1.196 0.004-2.392-0.003-3.588-0.381-0.008-0.713 0.163-1.011 0.384M8.057 14.857c-0.004 2.091-0.004 4.183 0 6.274 1.088-1.044 2.167-2.094 3.253-3.138-1.082-1.046-2.16-2.1-3.253-3.136M16.133 17.99c1.088 1.046 2.168 2.096 3.256 3.141 0.004-2.091 0.005-4.184 0-6.276-1.092 1.038-2.168 2.093-3.256 3.135M14.042 15.974c0.001 0.274 0.001 0.549 0.001 0.823 0.176-0.103 0.352-0.206 0.528-0.31-0.005-0.173-0.011-0.346-0.019-0.518-0.17 0.001-0.34 0.003-0.51 0.005M11.978 17.861c-0.021 0.867-0.007 1.733-0.010 2.6 0.169 0 0.337 0 0.506 0 0.018-0.591-0.055-1.19 0.052-1.775 0.151-0.42 0.897-0.361 0.945 0.1 0.063 0.554 0.018 1.115 0.026 1.673 0.17 0 0.339 0.001 0.509 0.003 0.011-0.554-0.033-1.109 0.026-1.659 0.027-0.498 0.856-0.539 0.96-0.066 0.086 0.569 0.021 1.149 0.038 1.724 0.125 0 0.376 0 0.502 0-0.030-0.683 0.081-1.382-0.073-2.053-0.255-0.635-1.105-0.614-1.572-0.229-0.389-0.292-0.879-0.35-1.315-0.126-0.197-0.069-0.396-0.132-0.595-0.192z"></path>
<path fill="#000" d="M11.325 13.897c0.152-0.466 0.485-0.96 1.023-0.987 0.701-0.059 1.291 0.742 0.981 1.384-0.355 0.605-0.857 1.108-1.266 1.677 0.447 0.003 0.894 0.003 1.341 0.001 0 0.174 0 0.347 0 0.521-0.684 0.001-1.37 0.003-2.056-0.001 0.059-1.094 1.312-1.624 1.572-2.64-0.144-0.619-0.968-0.488-1.096 0.074-0.125-0.007-0.374-0.022-0.499-0.029z"></path>
<path fill="#000" d="M15.050 13.289c0.298-0.221 0.629-0.392 1.011-0.384 0.007 1.196 0.001 2.392 0.003 3.588-0.121 0-0.363 0-0.485 0-0.001-1.007 0-2.013 0-3.020-0.174 0.122-0.348 0.244-0.521 0.366-0.001-0.137-0.005-0.411-0.007-0.55z"></path>
<path fill="#000" d="M8.057 14.857c1.093 1.037 2.171 2.090 3.253 3.136-1.086 1.044-2.165 2.094-3.253 3.138-0.004-2.091-0.004-4.183 0-6.274z"></path>
<path fill="#000" d="M16.133 17.99c1.088-1.042 2.164-2.097 3.256-3.135 0.005 2.091 0.004 4.184 0 6.276-1.088-1.045-2.168-2.094-3.256-3.141z"></path>
<path fill="#000" d="M14.042 15.974c0.17-0.003 0.34-0.004 0.51-0.005 0.008 0.173 0.014 0.346 0.019 0.518-0.176 0.104-0.352 0.207-0.528 0.31 0-0.274 0-0.549-0.001-0.823z"></path>
<path fill="#000" d="M11.978 17.861c0.199 0.060 0.398 0.123 0.595 0.192 0.436-0.224 0.926-0.166 1.315 0.126 0.466-0.385 1.317-0.406 1.572 0.229 0.154 0.671 0.043 1.37 0.073 2.053-0.126 0-0.377 0-0.502 0-0.018-0.575 0.048-1.155-0.038-1.724-0.104-0.473-0.933-0.432-0.96 0.066-0.059 0.55-0.015 1.105-0.026 1.659-0.17-0.001-0.339-0.003-0.509-0.003-0.008-0.558 0.037-1.119-0.026-1.673-0.048-0.461-0.794-0.52-0.945-0.1-0.107 0.584-0.034 1.184-0.052 1.775-0.169 0-0.337 0-0.506 0 0.003-0.867-0.011-1.733 0.010-2.6z"></path>
<path fill="#120102" opacity="0.08" d="M0 23.439c0.159 0.165 0.318 0.328 0.494 0.476l0.151 0.085h-0.645v-0.561z"></path>
<path fill="#190102" opacity="0.11" d="M26.946 23.915c0.17-0.143 0.326-0.3 0.483-0.458v0.543h-0.616l0.133-0.085z"></path>
<path fill="#c20813" opacity="0.86" d="M0.494 23.915c1.754-0.1 3.511-0.027 5.266-0.048 7.061 0.032 14.127-0.066 21.186 0.048l-0.133 0.085h-26.168l-0.151-0.085z"></path>
</svg>
