<svg xmlns="http://www.w3.org/2000/svg" width="24" height="24">
    <path fill="#ce252c" d="M11.709 1.333h.586c.579.157 1.117.499 1.404 1.036 3.289 5.702 6.57 11.41 9.86 17.111.162.288.297.588.41.899v.606a2.168 2.168 0 0 1-1.708 1.68H1.729a2.2 2.2 0 0 1-1.73-1.68v-.548c.216-.698.626-1.305.984-1.933 3.098-5.378 6.194-10.756 9.294-16.133.292-.547.839-.894 1.431-1.039zM2.481 20.399c6.339.011 12.677.012 19.017-.001A3749.507 3749.507 0 0 0 11.99 3.895 3457.544 3457.544 0 0 0 2.481 20.4z"/>
    <path fill="#ffd103" d="M2.481 20.399A3652.255 3652.255 0 0 1 11.99 3.894a3749.507 3749.507 0 0 1 9.508 16.503c-6.339.013-12.677.012-19.017.001zm13.134-6.445c-.571.233-.919.812-1.516.998-.766.252-1.627.415-2.404.118-.653-.259-1.324.089-1.992.02-.663-.044-1.27.304-1.707.777-.433-.034-.966-.014-1.178-.478.114-.292.194-.596.273-.899-.495-.517-1.208-.141-1.05.565a3.248 3.248 0 0 0-.203 1.807c.092.426.605.45.943.569.058.111.115.224.172.337-.94.612-.668 2.234.494 2.35 1.162.199 1.82-1.276 1.13-2.137.691-.266 1.444-.371 1.991-.929.172.45-.047.849-.338 1.18.402.386.815.76 1.228 1.134.007.139.014.278.023.417l.378.172.001-.626c-.31-.337-.684-.619-.949-.994.176-.496.561-.887.751-1.38.684.272 1.38.538 2.12.601.087.281.179.56.272.837-.236-.048-.471-.1-.703-.157l-.12-.38c-.196.061-.643-.084-.549.248.508.367 1.135.719 1.783.599.034-.379.047-.758.054-1.139.229.001.481-.048.685.083.76.475 1.639.916 2.02 1.782h.477c-.612-.905-1.487-1.575-2.205-2.385-.003-.79.359-1.463.802-2.092.609.037 1.363.778 1.797.045-.443-.446-.88-.897-1.304-1.359l-.024-.332c-.343.284-.743.478-1.153.644z"/>
    <path fill="#ffd103" d="M8.62 16.197a4.846 4.846 0 0 1 1.373-.873c-.106.278-.21.556-.31.836-.918.334-2.171.746-2.986.06.644.09 1.281-.087 1.923-.023zM9.176 16.606c.169-.061.34-.121.509-.18-.113.768-1.025.766-1.346 1.366a6.815 6.815 0 0 0-1.08-.206c.488-.516 1.214-.502 1.871-.545l.045-.435zM7.206 17.893c.34-.027.679.003 1.008.096-.196.228-.433.42-.736.475-.092-.189-.183-.38-.272-.571z"/>
    <path fill="#ffd103" d="M6.665 19.239c-.204-.465.068-.937.389-1.264.194.379.354.774.548 1.153.241-.345.525-.66.842-.936.194.428.302.98-.058 1.355-.46.581-1.492.399-1.721-.307z"/>
    <path fill="#030303" d="M15.615 13.954c.41-.166.81-.361 1.153-.644l.024.332c.424.462.861.913 1.304 1.359-.435.732-1.189-.008-1.797-.045-.443.629-.804 1.303-.802 2.092.718.81 1.594 1.48 2.205 2.385h-.477c-.38-.867-1.26-1.308-2.02-1.782-.205-.131-.457-.082-.685-.083-.007.38-.02.76-.054 1.139-.648.12-1.276-.233-1.783-.599-.093-.332.354-.187.549-.248l.12.38c.233.058.468.109.703.157a40.825 40.825 0 0 1-.272-.837c-.74-.062-1.436-.328-2.12-.601-.19.492-.575.884-.751 1.38.265.375.639.657.949.994l-.001.626-.378-.172-.023-.417c-.412-.374-.826-.748-1.228-1.134.292-.332.509-.731.338-1.18-.547.558-1.3.663-1.991.929.691.861.031 2.336-1.13 2.137-1.162-.116-1.434-1.739-.494-2.35l-.172-.337c-.338-.12-.851-.144-.943-.569a3.239 3.239 0 0 1 .203-1.807c-.158-.708.555-1.084 1.05-.565a8.091 8.091 0 0 1-.273.899c.212.464.746.444 1.178.478.436-.472 1.044-.821 1.707-.777.668.069 1.339-.278 1.992-.02.778.296 1.638.134 2.404-.118.596-.186.946-.766 1.516-.998zM8.62 16.197c-.641-.065-1.279.113-1.923.023.815.685 2.068.275 2.986-.06.1-.279.205-.557.31-.836a4.81 4.81 0 0 0-1.373.873zm.556.409l-.045.435c-.657.044-1.383.028-1.871.545.364.044.727.104 1.08.206.321-.601 1.233-.598 1.346-1.366-.17.059-.34.118-.509.18zm-1.97 1.287c.089.19.18.381.272.571.303-.054.54-.247.736-.475a2.857 2.857 0 0 0-1.008-.096zm-.541 1.346c.229.706 1.26.888 1.721.307.359-.375.252-.926.058-1.355a5.204 5.204 0 0 0-.842.936c-.194-.379-.354-.774-.548-1.153-.323.327-.593.799-.389 1.264z"/>
</svg>
