<svg xmlns="http://www.w3.org/2000/svg" width="24" height="24">
    <path fill="#ffdb00" d="M11.736 0h.479c.278.106.544.251.752.466 3.502 3.503 7.003 7.006 10.507 10.506.252.233.419.538.526.862v.239c-.085.298-.197.599-.425.817-3.541 3.542-7.085 7.082-10.624 10.626-.222.233-.512.38-.814.485h-.271c-.59-.126-.966-.614-1.372-1.015l-9.48-9.48c-.377-.385-.824-.732-1.015-1.255v-.485a1.83 1.83 0 0 1 .454-.744L11.021.454c.2-.202.452-.342.714-.452zm-.163.412C7.884 3.956 4.326 7.649.683 11.246c-.427.326-.544 1.008-.118 1.386 3.602 3.6 7.201 7.204 10.806 10.802a.863.863 0 0 0 1.246-.007c3.602-3.604 7.212-7.201 10.811-10.808.376-.348.322-.978-.06-1.3C19.81 7.753 16.246 4.192 12.684.631c-.27-.31-.748-.433-1.111-.218z"/>
    <path fill="#ffdb00" d="M11.916.761c.244-.055.422.15.583.299 3.517 3.526 7.046 7.04 10.562 10.568.198.163.258.492.046.671-3.577 3.587-7.164 7.166-10.742 10.753a.46.46 0 0 1-.731.002C8.054 19.468 4.465 15.89.889 12.301c-.216-.18-.156-.51.046-.676C4.47 8.075 8.022 4.541 11.562.997c.107-.091.209-.21.354-.236zm-4.072 8.01l-.35.385c3.574.007 7.146.006 10.72 0 .098-.131.198-.262.298-.392-3.556-.002-7.111-.014-10.667.007zm-3.01.75c-.82.226-1.216 1.291-.739 1.997.506.871 1.84.782 2.342-.049.816.256 1.637.496 2.452.756.57 1.001.936 2.246 2.032 2.813.007.41.006.822-.004 1.234-.527-.014-1.193.152-1.517-.395l-.256.191c.22.254.461.566.832.572 1.994.001 3.99.002 5.984-.001.505.025.874-.374 1.133-.758l-.253-.168c-.491.78-1.444.559-2.218.564a31.73 31.73 0 0 1 .001-1.234c.967-.012 1.934.011 2.902-.008.298.008.697-.154.664-.512.004-1.234.053-2.684-.883-3.629-.98-.817-2.365-.313-3.527-.451-.18-.218-.355-.44-.529-.664l-.475-.006c-.18.216-.305.485-.527.659-1.901.02-3.803.007-5.705.006-.23-.686-.997-1.159-1.709-.916z"/>
    <path fill="#ffdb00" d="M9.834 10.973c1.631-.011 3.262-.004 4.894-.004.005.738.002 1.475.001 2.213-1.106-.037-2.228.101-3.322-.101-.972-.194-1.609-1.144-1.573-2.108zM15.17 10.97c.541.024 1.102-.076 1.63.065.704.444.811 1.385.767 2.147-.799.004-1.598.005-2.398-.001-.001-.737-.004-1.474.001-2.21zM11.29 15.017c.988-.001 1.975-.004 2.963.001.005.418.005.835-.001 1.253-.986.002-1.974.001-2.96.001a40.388 40.388 0 0 1-.001-1.255z"/>
    <path d="M11.573.412c.364-.215.841-.091 1.111.218 3.562 3.562 7.126 7.122 10.684 10.688.382.322.436.952.06 1.3-3.599 3.607-7.208 7.205-10.811 10.808a.863.863 0 0 1-1.246.007C7.766 19.834 4.167 16.231.565 12.631c-.426-.378-.31-1.06.118-1.386C4.326 7.649 7.884 3.955 11.573.411zm.343.349c-.145.026-.247.145-.354.236C8.022 4.542 4.47 8.076.935 11.625c-.202.166-.262.496-.046.676 3.576 3.589 7.165 7.168 10.745 10.753a.46.46 0 0 0 .731-.002c3.578-3.587 7.165-7.166 10.742-10.753.212-.179.152-.508-.046-.671C19.545 8.1 16.016 4.585 12.499 1.06c-.161-.149-.34-.354-.583-.299z"/>
    <path d="M7.844 8.771c3.556-.022 7.111-.01 10.667-.007l-.298.392c-3.574.006-7.146.007-10.72 0l.35-.385zM4.834 9.521c.712-.244 1.478.229 1.709.916 1.902.001 3.804.014 5.705-.006.222-.174.347-.443.527-.659l.475.006c.174.223.349.445.529.664 1.162.138 2.546-.366 3.527.451.936.944.887 2.395.883 3.629.034.359-.366.521-.664.512-.967.019-1.934-.004-2.902.008-.008.412-.01.823-.001 1.234.774-.005 1.727.216 2.218-.564l.253.168c-.259.384-.628.784-1.133.758-1.994.004-3.99.002-5.984.001-.371-.006-.612-.318-.832-.572l.256-.191c.324.547.99.38 1.517.395.01-.412.011-.823.004-1.234-1.096-.566-1.462-1.812-2.032-2.813-.815-.26-1.636-.5-2.452-.756-.503.832-1.836.92-2.342.049-.476-.706-.08-1.771.739-1.997zm5 1.452c-.036.965.601 1.914 1.573 2.108 1.093.202 2.215.064 3.322.101.001-.738.004-1.475-.001-2.213-1.632 0-3.263-.007-4.894.004zm5.336-.003c-.005.737-.002 1.474-.001 2.21.799.006 1.598.005 2.398.001.044-.762-.062-1.703-.767-2.147-.528-.14-1.088-.041-1.63-.065zm-3.88 4.047c-.006.419-.006.836.001 1.255.986 0 1.974.001 2.96-.001.006-.418.006-.835.001-1.253-.988-.005-1.975-.002-2.963-.001z"/>
</svg>
