<!-- Generated by IcoMoon.io -->
<svg version="1.1" xmlns="http://www.w3.org/2000/svg" width="27" height="24" viewBox="0 0 27 24">
<title>warning--roundabout--g1</title>
<path fill="#ec1d24" d="M13.253 0h0.633c0.526 0.16 1.021 0.471 1.283 0.968 3.854 6.679 7.7 13.364 11.554 20.043 0.148 0.26 0.279 0.527 0.396 0.804v0.765c-0.194 0.698-0.753 1.25-1.458 1.42h-24.169c-0.74-0.159-1.298-0.757-1.492-1.477v-0.625c0.195-0.557 0.514-1.056 0.808-1.565 3.719-6.453 7.437-12.907 11.157-19.359 0.262-0.502 0.759-0.815 1.288-0.975M2.853 21.601c7.144 0.005 14.289 0.005 21.433-0.001-3.566-6.199-7.135-12.397-10.717-18.587-3.581 6.191-7.154 12.386-10.716 18.588z"></path>
<path fill="#fff" d="M2.853 21.601c3.562-6.202 7.135-12.397 10.716-18.588 3.582 6.19 7.151 12.388 10.717 18.587-7.144 0.007-14.289 0.007-21.433 0.001M14.355 10.037c-0.11 0.67-0.206 1.342-0.309 2.014 1.729 0.241 3.1 1.938 2.877 3.685-0.163 0.673 0.27 1.276 0.441 1.902 0.443-0.164 0.884-0.338 1.333-0.488 1.146-3.062-1.111-6.715-4.342-7.113M8.526 17.431c0.624-0.263 1.256-0.508 1.879-0.767-0.643-1.593 0.117-3.593 1.699-4.292 0.692-0.194 1.009-0.891 1.478-1.374-0.367-0.301-0.736-0.599-1.105-0.898-3.22 0.552-5.23 4.338-3.951 7.33M9.738 17.618c-0.062 0.477-0.225 0.952-0.209 1.435 2.094 2.487 6.358 2.324 8.292-0.274-0.529-0.418-1.060-0.833-1.592-1.247-1.071 1.355-3.188 1.704-4.593 0.664-0.503-0.5-1.256-0.423-1.898-0.578z"></path>
<path fill="#000" d="M14.355 10.037c3.231 0.399 5.487 4.052 4.342 7.113-0.449 0.151-0.889 0.324-1.333 0.488-0.171-0.626-0.603-1.23-0.441-1.902 0.222-1.748-1.148-3.444-2.877-3.685 0.103-0.671 0.199-1.344 0.309-2.014z"></path>
<path fill="#000" d="M8.526 17.431c-1.279-2.993 0.731-6.778 3.951-7.33 0.369 0.298 0.738 0.597 1.105 0.898-0.469 0.483-0.786 1.18-1.478 1.374-1.582 0.698-2.342 2.698-1.699 4.292-0.624 0.259-1.256 0.504-1.879 0.767z"></path>
<path fill="#000" d="M9.738 17.618c0.643 0.155 1.395 0.077 1.898 0.578 1.405 1.040 3.521 0.69 4.593-0.664 0.532 0.415 1.063 0.83 1.592 1.247-1.934 2.598-6.198 2.761-8.292 0.274-0.016-0.483 0.146-0.957 0.209-1.435z"></path>
</svg>
