<!-- Generated by IcoMoon.io -->
<svg version="1.1" xmlns="http://www.w3.org/2000/svg" width="27" height="24" viewBox="0 0 27 24">
<title>warning--camel-crossing--g1</title>
<path fill="#fff" d="M12.544 0.814c0.409-0.843 1.774-0.841 2.183 0 4.054 6.994 8.092 13.998 12.14 20.995 0.44 0.633 0.196 1.586-0.51 1.906-8.48 0.022-16.962 0.020-25.444 0.001-0.704-0.323-0.953-1.275-0.509-1.908 4.049-6.997 8.086-14 12.139-20.995M13.271 0.719c-0.206 0.11-0.327 0.319-0.447 0.51-4.006 6.946-8.028 13.885-12.034 20.831-0.404 0.526 0.033 1.355 0.702 1.28 8.096 0.008 16.193 0.008 24.289 0 0.668 0.075 1.105-0.753 0.704-1.279-4.025-6.975-8.059-13.946-12.089-20.918-0.192-0.412-0.705-0.659-1.125-0.424z"></path>
<path fill="#fff" d="M4.211 20.944c3.138-5.438 6.281-10.874 9.425-16.309 3.145 5.435 6.288 10.871 9.425 16.309-6.284 0.001-12.567 0.001-18.851 0M9.127 13.090c0.034 0.075 0.101 0.225 0.134 0.3 0.45 0.104 0.889 0.244 1.328 0.387 0.033 0.149 0.065 0.297 0.098 0.446 0.55 0.555 0.29 1.606 1.117 1.935 0.702 0.491 1.83-0.451 2.306 0.348-0.044 1.081 0.049 2.165 0.053 3.248 0.012 0.423-0.371 0.637-0.661 0.86 0.149 0.014 0.446 0.041 0.595 0.056 0.637-0.92 0.333-2.144 0.634-3.183 0.011 0.875 0.218 1.732 0.226 2.599-0.154 0.155-0.307 0.312-0.453 0.476 0.225-0.023 0.451-0.048 0.678-0.074-0.004-1.197 0.116-2.395 0.061-3.593 0.665-0.086 1.328-0.21 1.966-0.42 0.026 0.535 0.18 1.046 0.357 1.546 0.252 0.735-0.040 1.493-0.307 2.179-0.2 0.102-0.395 0.213-0.58 0.342 0.226 0.026 0.453 0.049 0.679 0.070 0.705-1.036 0.691-2.324 0.725-3.525 0.371 0.85 0.34 1.785 0.346 2.692 0.029 0.458-0.584 0.54-0.618 0.983 1.205 0.035 0.829-1.383 1.102-2.141-0.056-0.911-0.325-1.876 0.15-2.726 0.233 0.295 0.46 0.596 0.706 0.882-0.41-1.020-0.875-2.221-2.010-2.617-0.799-0.256-1.080-1.122-1.705-1.59-0.455-0.13-0.854 0.265-1.147 0.563-0.521 0.623-1.282 0.991-1.743 1.672-0.232 0.314-0.824 0.762-1.085 0.245-0.423-0.82-0.5-1.781-1.113-2.509-0.68-0.076-1.197 0.43-1.842 0.547z"></path>
<path fill="#c00" d="M13.271 0.719c0.42-0.235 0.933 0.012 1.125 0.424 4.030 6.972 8.063 13.943 12.089 20.918 0.401 0.526-0.035 1.354-0.704 1.279-8.096 0.008-16.193 0.008-24.289 0-0.67 0.075-1.106-0.754-0.702-1.28 4.006-6.946 8.028-13.885 12.034-20.831 0.12-0.191 0.241-0.4 0.447-0.51M4.211 20.944c6.284 0.001 12.567 0.001 18.851 0-3.138-5.438-6.281-10.874-9.425-16.309-3.145 5.435-6.288 10.871-9.425 16.309z"></path>
<path fill="#000" d="M9.127 13.090c0.645-0.117 1.162-0.623 1.842-0.547 0.612 0.728 0.69 1.69 1.113 2.509 0.262 0.517 0.854 0.068 1.085-0.245 0.461-0.68 1.222-1.049 1.743-1.672 0.293-0.299 0.691-0.693 1.147-0.563 0.625 0.468 0.905 1.334 1.705 1.59 1.135 0.395 1.6 1.597 2.010 2.617-0.247-0.286-0.473-0.588-0.706-0.882-0.475 0.85-0.206 1.815-0.15 2.726-0.273 0.758 0.104 2.176-1.102 2.141 0.034-0.443 0.646-0.525 0.618-0.983-0.007-0.907 0.025-1.842-0.346-2.692-0.034 1.201-0.020 2.489-0.725 3.525-0.226-0.020-0.453-0.044-0.679-0.070 0.184-0.13 0.379-0.24 0.58-0.342 0.267-0.686 0.559-1.444 0.307-2.179-0.177-0.5-0.331-1.012-0.357-1.546-0.638 0.21-1.301 0.334-1.966 0.42 0.055 1.199-0.065 2.396-0.061 3.593-0.226 0.026-0.453 0.050-0.678 0.074 0.146-0.164 0.299-0.32 0.453-0.476-0.008-0.867-0.215-1.724-0.226-2.599-0.301 1.039 0.003 2.262-0.634 3.183-0.149-0.015-0.446-0.042-0.595-0.056 0.29-0.224 0.674-0.438 0.661-0.86-0.004-1.083-0.097-2.167-0.053-3.248-0.476-0.799-1.604 0.143-2.306-0.348-0.826-0.329-0.567-1.38-1.117-1.935-0.033-0.149-0.065-0.297-0.098-0.446-0.439-0.143-0.878-0.284-1.328-0.387-0.033-0.075-0.1-0.225-0.134-0.3z"></path>
<path fill="#555" opacity="0.87" d="M0.914 23.716c8.482 0.019 16.964 0.020 25.444-0.001-0.48 0.235-1.025 0.134-1.538 0.15-7.73-0.001-15.46-0.005-23.19 0.003-0.248 0.008-0.49-0.052-0.716-0.151z"></path>
</svg>
