<svg xmlns="http://www.w3.org/2000/svg" width="24" height="24">
    <path fill="#231f20" d="M11.083.424c.704-.269 1.522-.04 2.033.499 3.376 3.226 6.755 6.449 10.124 9.682.728.66.718 1.894.014 2.568-3.232 3.25-6.487 6.476-9.72 9.725-.684.732-1.95.793-2.665.072L.622 13.176c-.73-.666-.689-1.902.016-2.57 3.15-3.172 6.324-6.32 9.478-9.488.283-.278.586-.559.967-.692zm.232.22c-.373.09-.674.343-.942.606C7.217 4.416 4.048 7.568.895 10.736c-.638.565-.724 1.649-.078 2.24 3.419 3.265 6.836 6.532 10.256 9.796.61.613 1.681.55 2.263-.071 3.205-3.197 6.394-6.41 9.605-9.601.682-.565.778-1.697.098-2.302-3.366-3.235-6.751-6.451-10.124-9.679-.41-.418-1.025-.641-1.601-.475z"/>
    <path fill="#231f20" d="M11.573 1.015c.618-.078 1.199.242 1.615.677 3.107 2.974 6.226 5.938 9.328 8.917.77.673.725 1.964-.044 2.621-3.004 2.998-6.002 6-9.001 9.001-.658.694-1.855.756-2.549.083-3.194-3.044-6.383-6.096-9.574-9.145-.744-.656-.708-1.902.017-2.56 2.956-2.966 5.921-5.923 8.88-8.886.353-.368.804-.676 1.328-.708zm-.371.485c-.344.143-.606.42-.868.674-2.89 2.91-5.807 5.795-8.692 8.71-.575.515-.613 1.495-.017 2.009 3.174 3.028 6.346 6.059 9.515 9.09.542.568 1.523.544 2.051-.031 3.023-3.017 6.04-6.04 9.062-9.056.569-.524.578-1.5-.019-2.006-3.142-3.022-6.301-6.025-9.452-9.036-.401-.415-1.04-.581-1.58-.353z"/>
    <path fill="#fff100" d="M11.315.644c.576-.166 1.19.058 1.601.475 3.373 3.228 6.758 6.444 10.124 9.679.679.605.583 1.736-.098 2.302-3.211 3.191-6.4 6.404-9.605 9.601-.582.62-1.654.684-2.263.071-3.42-3.264-6.838-6.53-10.256-9.796-.646-.592-.56-1.675.078-2.24 3.152-3.168 6.322-6.32 9.478-9.486.268-.263.569-.516.942-.606zm.258.371c-.524.032-.976.34-1.328.708-2.959 2.963-5.924 5.92-8.88 8.886-.725.658-.761 1.903-.017 2.56 3.191 3.049 6.379 6.101 9.574 9.145.694.673 1.891.611 2.549-.083 2.999-3.001 5.998-6.004 9.001-9.001.769-.656.815-1.948.044-2.621-3.102-2.98-6.221-5.944-9.328-8.917-.416-.434-.997-.755-1.615-.677z"/>
    <path fill="#fff100" d="M11.202 1.5c.54-.228 1.18-.062 1.58.353 3.151 3.011 6.311 6.014 9.452 9.036.598.506.588 1.482.019 2.006-3.023 3.017-6.04 6.04-9.062 9.056-.528.575-1.508.599-2.051.031-3.169-3.031-6.341-6.062-9.515-9.09-.596-.514-.558-1.494.017-2.009 2.885-2.915 5.802-5.8 8.692-8.71.262-.254.523-.532.868-.674zm-1.63 6.03c-.408.511-.283 1.22-.624 1.764-.949 2.401-1.051 5.096-.444 7.596-.431-.002-.863-.002-1.295-.002a12.09 12.09 0 0 1-.011.269c2.202.008 4.404.001 6.605.004v-.271l-4.69-.001a12.447 12.447 0 0 1 .084-6.551c.172.497.36 1.021.802 1.344-.058-.335-.216-.636-.415-.907l.36.157c-.058-.4-.274-.748-.548-1.036l.097-.162c.577.572 1.396 1.316 2.262 1.03a4.771 4.771 0 0 0-.988-.25l.404-.161a1.901 1.901 0 0 1-1.06-.286l.516-.174-.472.006-.234-.371-.292-.052c.002-.126.002-.253.002-.38a1.774 1.774 0 0 1 1.798 1.172c.114-.023.228-.046.342-.067l-.145-.154c-.212-.848-1.042-1.321-1.89-1.172.587-.498 1.278-.31 1.799.172l.055-.349a11.375 11.375 0 0 1-.641-.396c-.503.022-1.022.125-1.505-.078l.712-.101a18.937 18.937 0 0 0-.654-.164l.024-.068c.236.016.474.026.712.035.17-.263.358-.514.551-.761a6.144 6.144 0 0 0-.406-.026c.343-.052.644-.202.869-.469-.655.017-1.309.308-1.681.862zm2.466-.763a5.838 5.838 0 0 0 2.194.148 27.237 27.237 0 0 0-2.194-.148zm-.361.831c1.162.082 2.336.359 3.497.119-1.171.068-2.333-.221-3.497-.119zm-.534.466c.21.464.504-.313 0 0zm.696.949c.197.478.496-.311 0 0zm2.029.115c.599.08 1.213.151 1.808.004-.602-.024-1.207-.074-1.808-.004zm-1.11.614c.409.077.827.106 1.242.066a2.802 2.802 0 0 0-1.242-.066zm-.859.637c1.122.084 2.24.277 3.367.167l.002-.106c-1.129.173-2.25-.221-3.37-.061zm3.628.709c.397.107.811.137 1.219.09a3.382 3.382 0 0 0-1.219-.09zm-4.696.48c.394.114.808.137 1.213.084a3.78 3.78 0 0 0-1.213-.084z"/>
    <path d="M9.572 7.53c.372-.553 1.026-.845 1.681-.862a1.36 1.36 0 0 1-.869.469c-.227.066-.413.221-.61.346l.304.149-.546.089c.235.068.472.134.707.204a21.071 21.071 0 0 1-.712-.035l-.024.068c-.154.337-.15.709-.104 1.07l.338-.154c.848-.149 1.678.324 1.89 1.172l.145.154-.342.067a1.773 1.773 0 0 0-1.798-1.172c0 .127 0 .254-.002.38l.292.052.234.371.472-.006-.516.174a1.91 1.91 0 0 0 1.06.286c-.101.04-.304.12-.404.161.337.05.67.128.988.25-.866.287-1.685-.457-2.262-1.03a8.664 8.664 0 0 1-.097.162c.275.288.491.636.548 1.036l-.36-.157c.199.271.358.572.415.907-.442-.323-.63-.847-.802-1.344a12.447 12.447 0 0 0-.084 6.551l4.69.001v.271c-2.201-.002-4.403.005-6.605-.004.004-.067.008-.202.011-.269.432 0 .864 0 1.295.002-.607-2.5-.505-5.195.444-7.596.341-.544.216-1.253.624-1.764z"/>
    <path fill="#1e1c00" d="M12.038 6.767c.732.023 1.466.066 2.194.148a5.818 5.818 0 0 1-2.194-.148zM11.677 7.598c1.164-.102 2.326.187 3.497.119-1.16.24-2.335-.037-3.497-.119zM9.4 9.029c-.046-.361-.049-.733.104-1.07.218.052.437.106.654.164l-.712.101c.482.203 1.002.1 1.505.078.208.14.424.27.641.396l-.055.349c-.521-.481-1.212-.67-1.799-.172-.113.05-.226.102-.338.154zM13.868 9.128c.601-.071 1.206-.02 1.808.004-.595.148-1.21.077-1.808-.004zM12.758 9.742c.413-.066.84-.054 1.242.066-.415.04-.833.011-1.242-.066zM11.899 10.379c1.12-.16 2.24.234 3.37.061l-.002.106c-1.127.11-2.245-.083-3.367-.167zM15.527 11.088a3.382 3.382 0 0 1 1.219.09 3.255 3.255 0 0 1-1.219-.09zM10.831 11.568a3.778 3.778 0 0 1 1.213.084c-.406.053-.82.03-1.213-.084z"/>
    <path fill="#908800" d="M9.775 7.483c.197-.125.383-.28.61-.346.136.005.27.013.406.026-.193.247-.38.498-.551.761-.235-.07-.472-.136-.707-.204l.546-.089-.304-.149z"/>
    <path fill="#4d4900" d="M11.143 8.064c.504-.313.21.464 0 0z"/>
    <path fill="#686300" d="M11.839 9.013c.496-.311.197.478 0 0z"/>
</svg>
