<!-- Generated by IcoMoon.io -->
<svg version="1.1" xmlns="http://www.w3.org/2000/svg" width="30" height="24" viewBox="0 0 30 24">
<title>warning--triple-lanes-left-turn--g1</title>
<path fill="#ffd520" d="M0 0h30v24h-30v-24M0.503 0.503c-0.005 7.674-0.002 15.348-0.002 23.022 9.699 0.005 19.398 0.003 29.095 0-0.002-7.675 0.020-15.351-0.009-23.027-9.696 0.008-19.391-0.002-29.085 0.004z"></path>
<path fill="#ffd520" d="M1.005 1.005c9.364-0.006 18.729-0.003 28.092-0.002 0.003 7.341 0.006 14.682-0.002 22.023-9.364-0.006-18.729 0.008-28.093-0.008 0.002-7.338-0.003-14.676 0.003-22.014M1.65 4.604c0.598 1.857 1.184 3.717 1.847 5.551 0.075 0.358 0.612 0.462 0.804 0.141 0.294-0.537 0.436-1.142 0.679-1.701 1.722 0.675 2.892 2.396 3.042 4.218 0.112 2.241 0.016 4.49 0.052 6.733 0.794 0.006 1.587 0.008 2.381 0-0.006-2.27 0.018-4.538-0.012-6.805-0.093-2.617-1.802-4.946-4.038-6.201 0.477-0.423 1.011-0.781 1.464-1.231 0.295-0.288 0.003-0.796-0.385-0.753-1.944-0.029-3.889 0.015-5.833 0.048M10.361 4.605c0.597 1.854 1.184 3.712 1.843 5.545 0.073 0.358 0.607 0.47 0.803 0.149 0.299-0.536 0.439-1.143 0.683-1.704 1.803 0.704 2.982 2.549 3.065 4.455 0.066 2.164 0.006 4.332 0.032 6.496 0.793 0.006 1.587 0.006 2.38 0-0.006-2.27 0.018-4.541-0.012-6.81-0.093-2.614-1.803-4.941-4.039-6.195 0.476-0.421 1.003-0.78 1.456-1.224 0.306-0.273 0.023-0.801-0.367-0.762-1.947-0.029-3.895 0.015-5.842 0.049M19.196 4.604c0.599 1.86 1.185 3.724 1.849 5.56 0.080 0.356 0.614 0.449 0.801 0.129 0.294-0.535 0.436-1.139 0.679-1.698 1.721 0.676 2.894 2.396 3.042 4.22 0.112 2.241 0.017 4.489 0.053 6.732 0.793 0.006 1.587 0.008 2.382-0.001-0.009-2.268 0.017-4.536-0.014-6.803-0.093-2.616-1.8-4.946-4.038-6.201 0.475-0.428 1.012-0.783 1.465-1.234 0.29-0.29 0.003-0.789-0.384-0.752-1.944-0.029-3.891 0.017-5.837 0.048z"></path>
<path fill="#000" d="M0.503 0.503c9.694-0.006 19.389 0.003 29.085-0.005 0.028 7.676 0.007 15.351 0.009 23.027-9.698 0.003-19.396 0.005-29.095 0 0-7.674-0.003-15.348 0.002-23.022M1.005 1.005c-0.006 7.338-0.002 14.676-0.003 22.014 9.364 0.015 18.729 0.002 28.093 0.008 0.007-7.341 0.005-14.682 0.002-22.023-9.363-0.002-18.727-0.004-28.092 0.002z"></path>
<path fill="#000" d="M1.65 4.604c1.944-0.033 3.889-0.077 5.833-0.048 0.389-0.043 0.681 0.465 0.386 0.753-0.453 0.45-0.987 0.808-1.464 1.231 2.236 1.255 3.945 3.583 4.038 6.201 0.030 2.268 0.006 4.536 0.012 6.805-0.793 0.008-1.587 0.006-2.38 0-0.036-2.244 0.060-4.493-0.053-6.734-0.15-1.822-1.32-3.543-3.042-4.218-0.243 0.559-0.385 1.164-0.679 1.701-0.192 0.321-0.729 0.217-0.804-0.141-0.663-1.834-1.248-3.694-1.847-5.551z"></path>
<path fill="#000" d="M10.361 4.605c1.947-0.035 3.896-0.078 5.842-0.049 0.39-0.039 0.674 0.489 0.367 0.762-0.453 0.444-0.981 0.803-1.457 1.224 2.236 1.254 3.947 3.581 4.040 6.195 0.030 2.27 0.006 4.541 0.012 6.81-0.793 0.006-1.587 0.006-2.38 0-0.026-2.165 0.035-4.332-0.032-6.496-0.082-1.906-1.261-3.751-3.064-4.455-0.243 0.561-0.384 1.168-0.683 1.704-0.195 0.321-0.729 0.21-0.802-0.149-0.66-1.833-1.247-3.691-1.844-5.545z"></path>
<path fill="#000" d="M19.196 4.604c1.945-0.032 3.892-0.077 5.837-0.048 0.387-0.038 0.674 0.462 0.384 0.751-0.453 0.452-0.99 0.807-1.465 1.234 2.238 1.255 3.945 3.585 4.038 6.201 0.030 2.266 0.005 4.534 0.014 6.803-0.795 0.009-1.588 0.008-2.382 0.002-0.036-2.242 0.060-4.491-0.053-6.732-0.148-1.824-1.322-3.543-3.042-4.22-0.243 0.559-0.386 1.162-0.679 1.698-0.188 0.319-0.721 0.226-0.801-0.129-0.665-1.836-1.251-3.701-1.849-5.561z"></path>
</svg>
