<svg xmlns="http://www.w3.org/2000/svg" width="24" height="24">
    <path fill="#ffd520" d="M11.717 0h.527c.258.127.503.283.708.487 3.277 3.283 6.56 6.562 9.84 9.841.428.439.918.838 1.208 1.388v.53a2.631 2.631 0 0 1-.491.7c-3.287 3.274-6.562 6.56-9.845 9.839-.439.427-.834.919-1.384 1.214h-.538a2.775 2.775 0 0 1-.689-.492c-3.275-3.286-6.56-6.562-9.84-9.844-.427-.439-.919-.834-1.214-1.384v-.536c.254-.548.736-.932 1.148-1.356C4.428 7.107 7.71 3.829 10.988.546c.216-.214.463-.395.727-.547zm-.047.389c-.346.202-.596.524-.883.799C7.387 4.59 3.979 7.982.585 11.39c-.358.316-.359.906.01 1.214l10.801 10.802a.805.805 0 0 0 1.211.002c3.599-3.602 7.199-7.205 10.8-10.805.37-.308.368-.899.01-1.214C19.863 7.821 16.291 4.268 12.736.701c-.26-.287-.683-.524-1.064-.313z"/>
    <path fill="#ffd520" d="M11.815.89c.194-.221.409.036.565.167 3.342 3.34 6.68 6.68 10.024 10.019.283.296.626.552.815.924-.187.338-.5.58-.766.854-3.402 3.396-6.794 6.803-10.2 10.195-.155.211-.432.128-.57-.053C8.112 19.409 4.521 15.838.95 12.251c-.322-.253.025-.565.222-.758C4.732 7.971 8.238 4.39 11.815.89zM9.347 8.617c-.307.062-.69.247-.667.618-.017 1.91 0 3.823-.006 5.735l.743-.01c-.007.229.012.46.006.69-1.014-.006-2.028.001-3.042-.005l-.01.343c3.752.006 7.504.005 11.255.001l-.002-.366c-1.063-.002-2.126.007-3.19-.007l.018-.678.631.007c-.004-1.944.011-3.888-.005-5.831.028-.409-.487-.437-.757-.568l-.011-.052-.089.035c-1.619-.192-3.269-.217-4.874.086zm-2.325 1.528c-.444.246-.12.756.283.797-.474.503-.696 1.28-1.49 1.372l-.016.298c.341-.108.682-.215 1.03-.296.078 1.04-.36 2.035-.246 3.078.088 0 .262-.002.349-.004.008-.566.035-1.139.18-1.691.232.578.128 1.482.802 1.754-.128-.6-.245-1.204-.308-1.814l.299-.215c-.15-.809.718-2.186-.436-2.515.496-.318.076-1.072-.446-.763zm9.393.888c-.505.274-.455.914-.598 1.397l-.26.137-.155.503.6.132c-.059.337-.121.673-.209 1.004l.277.112c-.094.371-.179.743-.254 1.117l.346.001c.091-.419.173-.84.288-1.253.348.318.235.826.282 1.246l.307.016c.001-.386-.008-.773-.036-1.158l.328-.065a6.267 6.267 0 0 1-.3-1.685c.251.119.502.24.75.364l.158-.288c-.338-.217-.793-.414-.86-.863-.048-.292-.145-.574-.421-.721.313-.181.332-.736-.097-.76-.446-.016-.455.559-.145.764z"/>
    <path fill="#ffd520" d="M9.077 9.697a67.085 67.085 0 0 1 1.554.006c-.002.467-.002.935-.002 1.402-.518 0-1.037.001-1.555-.007l.004-1.4zM10.92 9.697c.672-.002 1.344-.002 2.016 0l-.001 1.408c-.671-.001-1.342-.002-2.011.001-.006-.469-.006-.94-.004-1.409zM13.202 9.696c.137.013.274.024.412.035.234.013.469.012.703-.004l.438-.034-.001 1.411h-1.55l-.001-1.409zM10.202 14.953a985.56 985.56 0 0 1 3.439 0l-.001.685c-1.146.002-2.292.002-3.438 0v-.685z"/>
    <path d="M11.67.389c.382-.211.804.026 1.064.313C16.29 4.27 19.861 7.823 23.415 11.39c.359.316.36.906-.01 1.214-3.601 3.6-7.201 7.202-10.8 10.805a.805.805 0 0 1-1.211-.002L.593 12.605c-.368-.308-.367-.899-.01-1.214 3.395-3.408 6.803-6.8 10.202-10.202.287-.275.538-.598.883-.799zm.145.501C8.238 4.39 4.733 7.971 1.172 11.493c-.197.193-.544.505-.222.758 3.571 3.587 7.162 7.158 10.733 10.745.138.181.415.264.57.053 3.406-3.392 6.798-6.799 10.2-10.195.265-.275.578-.516.766-.854-.188-.372-.532-.628-.815-.924-3.343-3.338-6.682-6.679-10.024-10.019-.156-.131-.371-.388-.565-.167z"/>
    <path d="M9.347 8.617c1.606-.304 3.256-.278 4.874-.086-.306.116-.601.257-.901.388.074.278.162.554.294.812a27.433 27.433 0 0 1-.412-.035l.001 1.409h1.55l.001-1.411-.438.034c.131-.384.127-.793.004-1.18.27.131.785.158.757.568.016 1.943.001 3.887.005 5.831l-.631-.007-.018.678c1.063.014 2.126.005 3.19.007l.002.366c-3.751.004-7.502.005-11.255-.001l.01-.343c1.014.006 2.028-.001 3.042.005.006-.23-.013-.461-.006-.69l-.743.01c.006-1.912-.011-3.824.006-5.735-.023-.371.36-.556.667-.618zm-.315.744c.342.016.685.02 1.027.019v-.433c-.389.006-.822.023-1.027.414zm.045.336c-.001.467-.001.934-.004 1.4.518.008 1.037.007 1.555.007 0-.467 0-.935.002-1.402-.518-.01-1.036-.008-1.554-.006zm1.843 0c-.002.469-.002.94.004 1.409.67-.004 1.34-.002 2.011-.001l.001-1.408c-.672-.002-1.344-.002-2.016 0zm-.718 5.256v.685c1.146.002 2.292.002 3.438 0l.001-.685a985.56 985.56 0 0 0-3.439 0z"/>
    <path d="M7.022 10.145c.522-.308.942.445.446.763 1.153.329.286 1.706.436 2.515l-.299.215c.064.611.18 1.214.308 1.814-.673-.272-.57-1.176-.802-1.754-.145.552-.172 1.124-.18 1.691l-.349.004c-.114-1.043.324-2.038.246-3.078-.348.082-.689.188-1.03.296l.016-.298c.794-.091 1.016-.869 1.49-1.372-.403-.041-.727-.551-.283-.797zM16.415 11.033c-.31-.205-.301-.78.145-.764.43.024.41.578.097.76.276.148.373.43.421.721.067.449.522.646.86.863l-.158.288a39.888 39.888 0 0 0-.75-.364c.02.574.126 1.139.3 1.685l-.328.065c.028.385.037.772.036 1.158l-.307-.016c-.047-.42.066-.928-.282-1.246-.115.413-.197.834-.288 1.253l-.346-.001c.076-.374.161-.746.254-1.117l-.277-.112c.088-.331.15-.667.209-1.004l-.6-.132c.05-.168.103-.336.155-.503l.26-.137c.143-.482.092-1.123.598-1.397z"/>
    <path fill="#c0111e" d="M14.221 8.531l.089-.035.011.052c.124.386.127.796-.004 1.18a5.686 5.686 0 0 1-.703.004 4.064 4.064 0 0 1-.294-.812c.3-.131.595-.271.901-.388z"/>
    <path fill="#d7581f" d="M9.032 9.361c.205-.391.638-.408 1.027-.414v.433c-.342.001-.685-.004-1.027-.019z"/>
</svg>
