<!-- Generated by IcoMoon.io -->
<svg version="1.1" xmlns="http://www.w3.org/2000/svg" width="24" height="24" viewBox="0 0 24 24">
<title>warning--logging-vehicles--g1</title>
<path fill="#c7a618" opacity="0.78" d="M11.696 0h0.506c0.287 0.152 0.544 0.354 0.772 0.583 3.229 3.252 6.475 6.486 9.713 9.728 0.464 0.48 1.010 0.906 1.313 1.517v0.232c-0.108 0.287-0.265 0.556-0.486 0.77-3.565 3.557-7.127 7.118-10.685 10.684-0.21 0.212-0.466 0.371-0.74 0.486h-0.166c-0.287-0.1-0.556-0.253-0.768-0.472-3.556-3.566-7.118-7.127-10.684-10.684-0.184-0.188-0.341-0.401-0.472-0.629v-0.444c0.288-0.569 0.796-0.972 1.231-1.421 2.942-2.939 5.88-5.881 8.82-8.821 0.533-0.526 1.032-1.093 1.645-1.53M11.689 0.298c-0.174 0.095-0.32 0.232-0.463 0.367-3.552 3.569-7.122 7.12-10.674 10.688-0.378 0.3-0.437 0.896-0.044 1.211 3.646 3.64 7.285 7.286 10.932 10.926 0.289 0.344 0.824 0.326 1.11-0.013 3.643-3.641 7.284-7.285 10.926-10.927 0.384-0.312 0.329-0.884-0.043-1.18-3.6-3.601-7.202-7.202-10.805-10.802-0.23-0.257-0.604-0.45-0.938-0.27z"></path>
<path fill="#000" d="M11.689 0.298c0.335-0.18 0.708 0.013 0.938 0.27 3.602 3.6 7.205 7.201 10.805 10.802 0.372 0.295 0.427 0.868 0.043 1.18-3.642 3.642-7.283 7.286-10.926 10.927-0.286 0.34-0.821 0.358-1.11 0.013-3.647-3.64-7.286-7.286-10.932-10.926-0.392-0.314-0.334-0.911 0.044-1.211 3.552-3.569 7.122-7.12 10.674-10.688 0.143-0.136 0.289-0.272 0.463-0.367M11.798 0.624c-3.661 3.538-7.211 7.201-10.837 10.778-0.265 0.228-0.592 0.635-0.214 0.928 3.552 3.568 7.127 7.115 10.676 10.687 0.22 0.254 0.599 0.58 0.888 0.218 3.63-3.613 7.243-7.243 10.87-10.86 0.265-0.199 0.289-0.566 0.017-0.77-3.572-3.589-7.164-7.16-10.739-10.747-0.172-0.156-0.42-0.415-0.661-0.234z"></path>
<path fill="#000" d="M9.785 9.55c0.062-0.020 0.186-0.059 0.248-0.079 0.012 0.173 0.024 0.346 0.036 0.518 1.014 0.020 2.029 0.038 3.044 0.066 0.059-0.233 0.121-0.466 0.226-0.683 0.048 0.226 0.086 0.455 0.121 0.683 1.052 0.019 2.106 0.044 3.158 0.070 0.047-0.258 0.096-0.517 0.208-0.757 0.053 0.252 0.090 0.506 0.12 0.761 1.183 0.053 2.378-0.032 3.553 0.144-1.175 0.228-2.393 0.062-3.584 0.121 0 0.067 0.001 0.202 0.001 0.27 1.114 0.005 2.228 0.020 3.343 0.029 0 0.059 0.001 0.174 0.002 0.233-1.115 0.007-2.23 0.024-3.344 0.029-0.001 0.065-0.004 0.197-0.004 0.262 1.105 0.002 2.212-0.002 3.318 0.004 0.007 0.076 0.020 0.226 0.026 0.301-1.114 0.037-2.227 0.036-3.342 0.050 0 0.067-0.001 0.202-0.001 0.269 0.949 0.011 1.9-0.024 2.848 0.025-0.084 0.13-0.142 0.336-0.338 0.311-0.835 0.035-1.673 0.019-2.508 0.035 0 0.070-0.001 0.209-0.001 0.277 1.013-0.004 2.026 0.012 3.038 0.010-0.005 0.090-0.012 0.268-0.016 0.356-1.008 0.001-2.015 0.014-3.022 0.011-0.001 0.073-0.001 0.218-0.002 0.29 0.1 0.004 0.296 0.010 0.396 0.012-0.006 0.354-0.010 0.709-0.040 1.063-0.058-0.182-0.109-0.365-0.158-0.548-0.197-0.004-0.392-0.007-0.589-0.011-0.349-0.456-0.923-0.371-1.278 0.025-0.367-0.443-0.955-0.436-1.326-0.001-0.354-0.404-0.93-0.472-1.28-0.022-0.71 0.013-1.42 0.005-2.129 0.008 0.014 0.167 0.030 0.332 0.046 0.499-0.054 0.004-0.161 0.011-0.214 0.014 0.036-0.161 0.073-0.322 0.109-0.482-0.3-0.026-0.601-0.049-0.9-0.094 0.128 0.343 0.008 0.838-0.434 0.824-0.415 0.014-0.56-0.433-0.456-0.772-0.461-0.238-1.028-0.53-1.421-0.006-0.18 0.008-0.361 0.014-0.541 0.023-0.001 0.164-0.001 0.33-0.002 0.496-0.406 0-0.811 0-1.216 0-0.002-0.158-0.004-0.318-0.005-0.476-0.373-0.056-0.7-0.247-1.048-0.378-0.304 0.040-0.544 0.254-0.811 0.385 0.062-0.452 0.090-0.908 0.13-1.363 0.421-0.090 1.147 0.198 1.223-0.414 0.043 0.127 0.083 0.256 0.122 0.385 0.274-0.002 0.546-0.002 0.82-0.001 0.001-0.187 0.005-0.374 0.010-0.56-0.301 0.004-0.604 0.008-0.904-0.023 0.408-0.119 0.835-0.11 1.255-0.115 0.026 0.554-0.104 1.145 0.134 1.668 0.132-0.629 0.076-1.274 0.083-1.912-0.432 0-0.866 0.007-1.295-0.056 0.474-0.102 0.961-0.077 1.442-0.077 0.001 0.637 0.001 1.276 0.001 1.914 1.057-0.002 2.116 0.005 3.173-0.005-0.008-0.064-0.026-0.19-0.035-0.253-0.905-0.025-1.817 0.062-2.718-0.024-0.042-0.139-0.056-0.286-0.072-0.43 0.978-0.050 1.963 0.070 2.934-0.077-0.952-0.186-1.93-0.018-2.892-0.072 0.002-0.148 0.002-0.295 0.002-0.442 0.923-0.006 1.846 0.001 2.768-0.005 0-0.049 0-0.148 0-0.197-0.904-0.005-1.807 0.032-2.711 0.016 0.030-0.14 0.055-0.282 0.106-0.416 0.906-0.112 1.858 0.148 2.736-0.145-1.464-0.175-2.946 0-4.417-0.050-0.004-0.162-0.007-0.325-0.010-0.487 1.475-0.071 2.97 0.144 4.432-0.077-1.432-0.133-2.874 0.002-4.309-0.046-0.002-0.179-0.005-0.358-0.008-0.538 1.393-0.007 2.785 0.049 4.178 0.066-0.002-0.108-0.007-0.323-0.011-0.43M10.049 10.433l0.006 0.166c1.036 0.005 2.070 0.023 3.106 0.028l-0.001-0.211c-1.037 0-2.074 0.018-3.11 0.018M13.313 10.452c1.030 0.422 2.248 0.091 3.352 0.204 0-0.064 0.001-0.192 0.002-0.257-1.118 0.017-2.238-0.022-3.354 0.053M9.942 11.088c1.068 0.316 2.252 0.121 3.36 0.098-1.036-0.396-2.258-0.115-3.36-0.098M13.304 11.034c0.444 0.361 1.055 0.143 1.576 0.198 0.624-0.094 1.392 0.228 1.908-0.221-1.158-0.073-2.326-0.043-3.484 0.023M10.054 11.65c0.002 0.052 0.005 0.155 0.007 0.206 1.038-0.001 2.077 0.002 3.115-0.002-0.002-0.058-0.006-0.173-0.007-0.23-1.039 0.004-2.077 0.022-3.115 0.026M13.312 11.641c0.142 0.108 0.288 0.236 0.482 0.206 0.954 0.008 1.908-0.006 2.862 0.001 0.002-0.066 0.007-0.198 0.010-0.264-1.118 0.016-2.238-0.012-3.354 0.056M9.934 12.389c1.073 0.136 2.16 0.049 3.239 0.073 0-0.054 0-0.16 0-0.212-1.076 0.060-2.182-0.1-3.239 0.139M13.424 12.24c0 0.059 0 0.176 0.001 0.234 1.078-0.002 2.156 0.012 3.235 0.005-0.002-0.066-0.006-0.199-0.008-0.265-1.076 0.004-2.152 0.025-3.228 0.026M10.127 12.923c-0.038 0.048-0.115 0.143-0.154 0.191 1.061 0.106 2.132 0.020 3.197 0.046-0.001-0.068-0.002-0.203-0.002-0.271-1.013 0.016-2.030-0.030-3.041 0.035M13.427 12.88c0 0.071 0 0.21 0.001 0.281 1.074 0 2.149 0 3.224-0.001 0.001-0.071 0.002-0.214 0.004-0.286-1.076-0.008-2.153 0.012-3.229 0.006M8.96 13.346c0.203 0.466 0.505-0.311 0 0z"></path>
<path fill="#000" d="M4.23 13.469c0.341-0.148 0.76 0.191 0.676 0.557-0.049 0.385-0.581 0.559-0.847 0.275-0.266-0.236-0.167-0.721 0.172-0.832z"></path>
<path fill="#000" d="M7.71 13.453c0.588-0.191 0.899 0.762 0.314 0.956-0.634 0.274-0.979-0.803-0.314-0.956z"></path>
<path fill="#000" d="M13.098 13.458c0.344-0.126 0.736 0.22 0.648 0.577-0.056 0.371-0.557 0.542-0.827 0.283-0.296-0.238-0.185-0.758 0.179-0.86z"></path>
<path fill="#000" d="M14.42 13.46c0.332-0.127 0.718 0.193 0.655 0.542-0.031 0.388-0.556 0.588-0.834 0.312-0.288-0.236-0.186-0.755 0.179-0.854z"></path>
<path fill="#000" d="M15.746 13.463c0.338-0.137 0.739 0.202 0.661 0.559-0.044 0.383-0.569 0.563-0.84 0.286-0.281-0.238-0.17-0.738 0.179-0.845z"></path>
<path fill="#ffd520" d="M11.798 0.624c0.241-0.181 0.49 0.078 0.661 0.234 3.575 3.587 7.166 7.158 10.739 10.747 0.272 0.204 0.248 0.571-0.017 0.77-3.626 3.617-7.24 7.247-10.87 10.86-0.289 0.361-0.668 0.036-0.888-0.218-3.55-3.572-7.124-7.12-10.676-10.687-0.378-0.293-0.052-0.7 0.214-0.928 3.626-3.577 7.176-7.241 10.837-10.778M9.785 9.55c0.004 0.107 0.008 0.322 0.011 0.43-1.393-0.017-2.785-0.073-4.178-0.066 0.004 0.18 0.006 0.359 0.008 0.538 1.435 0.048 2.878-0.088 4.309 0.046-1.462 0.221-2.957 0.006-4.432 0.077 0.002 0.162 0.006 0.325 0.010 0.487 1.471 0.050 2.953-0.125 4.417 0.050-0.878 0.293-1.83 0.034-2.736 0.145-0.050 0.134-0.076 0.276-0.106 0.416 0.904 0.017 1.807-0.020 2.711-0.016 0 0.049 0 0.148 0 0.197-0.923 0.006-1.846-0.001-2.768 0.005 0 0.146 0 0.294-0.002 0.442 0.962 0.054 1.94-0.114 2.892 0.072-0.971 0.146-1.956 0.026-2.934 0.077 0.016 0.144 0.030 0.29 0.072 0.43 0.901 0.086 1.813-0.001 2.718 0.024 0.008 0.064 0.026 0.19 0.035 0.253-1.057 0.010-2.116 0.002-3.173 0.005 0-0.638 0-1.277-0.001-1.914-0.481 0-0.968-0.025-1.442 0.077 0.428 0.064 0.863 0.056 1.295 0.056-0.007 0.637 0.049 1.283-0.083 1.912-0.239-0.523-0.108-1.114-0.134-1.668-0.42 0.005-0.847-0.004-1.255 0.115 0.3 0.031 0.602 0.026 0.904 0.023-0.005 0.186-0.008 0.373-0.010 0.56-0.274-0.001-0.546-0.001-0.82 0.001-0.040-0.13-0.079-0.258-0.122-0.385-0.076 0.612-0.802 0.324-1.223 0.414-0.040 0.455-0.067 0.911-0.13 1.363 0.268-0.131 0.508-0.346 0.811-0.385 0.348 0.131 0.674 0.322 1.048 0.378 0.001 0.158 0.002 0.318 0.005 0.476 0.404 0 0.81 0 1.216 0 0.001-0.166 0.001-0.331 0.002-0.496 0.18-0.008 0.361-0.014 0.541-0.023 0.392-0.524 0.96-0.232 1.421 0.006-0.104 0.338 0.041 0.786 0.456 0.772 0.443 0.013 0.563-0.481 0.434-0.824 0.299 0.044 0.6 0.067 0.9 0.094-0.036 0.161-0.073 0.322-0.109 0.482 0.053-0.004 0.16-0.011 0.214-0.014-0.016-0.167-0.031-0.332-0.046-0.499 0.709-0.004 1.418 0.005 2.129-0.008 0.35-0.45 0.926-0.383 1.28 0.022 0.371-0.434 0.959-0.442 1.326 0.001 0.355-0.396 0.929-0.481 1.278-0.025 0.197 0.004 0.392 0.007 0.589 0.011 0.049 0.184 0.101 0.366 0.158 0.548 0.030-0.354 0.034-0.709 0.040-1.063-0.1-0.002-0.296-0.008-0.396-0.012 0.001-0.072 0.001-0.217 0.002-0.29 1.007 0.004 2.014-0.010 3.022-0.011 0.004-0.089 0.011-0.266 0.016-0.356-1.013 0.002-2.026-0.013-3.038-0.010 0-0.068 0.001-0.208 0.001-0.277 0.835-0.016 1.673 0 2.508-0.035 0.197 0.025 0.254-0.181 0.338-0.311-0.948-0.049-1.898-0.014-2.848-0.025 0-0.067 0.001-0.202 0.001-0.269 1.115-0.014 2.228-0.013 3.342-0.050-0.006-0.076-0.019-0.226-0.026-0.301-1.106-0.006-2.213-0.001-3.318-0.004 0-0.065 0.002-0.197 0.004-0.262 1.115-0.005 2.23-0.022 3.344-0.029-0.001-0.059-0.002-0.174-0.002-0.233-1.115-0.008-2.23-0.024-3.343-0.029 0-0.068-0.001-0.203-0.001-0.27 1.192-0.059 2.41 0.107 3.584-0.121-1.175-0.176-2.37-0.091-3.553-0.144-0.030-0.254-0.067-0.509-0.12-0.761-0.112 0.24-0.161 0.499-0.208 0.757-1.052-0.025-2.106-0.050-3.158-0.070-0.035-0.228-0.073-0.457-0.121-0.683-0.104 0.217-0.167 0.45-0.226 0.683-1.015-0.028-2.030-0.046-3.044-0.066-0.012-0.173-0.024-0.346-0.036-0.518-0.062 0.020-0.186 0.059-0.248 0.079M4.23 13.469c-0.338 0.11-0.438 0.595-0.172 0.832 0.266 0.284 0.798 0.11 0.847-0.275 0.084-0.366-0.335-0.704-0.676-0.557M7.71 13.453c-0.665 0.154-0.319 1.23 0.314 0.956 0.584-0.194 0.274-1.147-0.314-0.956M13.098 13.458c-0.364 0.102-0.475 0.623-0.179 0.86 0.27 0.259 0.77 0.088 0.827-0.283 0.088-0.358-0.304-0.703-0.648-0.577M14.42 13.46c-0.365 0.1-0.467 0.618-0.179 0.854 0.278 0.276 0.803 0.076 0.834-0.312 0.062-0.349-0.323-0.67-0.655-0.542M15.746 13.463c-0.349 0.107-0.46 0.607-0.179 0.845 0.271 0.277 0.796 0.097 0.84-0.286 0.078-0.358-0.323-0.696-0.661-0.559z"></path>
<path fill="#ffd520" d="M10.049 10.433c1.037 0 2.074-0.018 3.11-0.018l0.001 0.211c-1.036-0.005-2.070-0.023-3.106-0.028l-0.006-0.166z"></path>
<path fill="#ffd520" d="M13.313 10.452c1.116-0.074 2.236-0.036 3.354-0.053-0.001 0.065-0.002 0.193-0.002 0.257-1.104-0.113-2.322 0.218-3.352-0.204z"></path>
<path fill="#ffd520" d="M9.942 11.088c1.102-0.017 2.324-0.298 3.36 0.098-1.108 0.023-2.292 0.217-3.36-0.098z"></path>
<path fill="#ffd520" d="M13.304 11.034c1.158-0.066 2.326-0.096 3.484-0.023-0.516 0.449-1.284 0.127-1.908 0.221-0.521-0.055-1.132 0.163-1.576-0.198z"></path>
<path fill="#ffd520" d="M10.054 11.65c1.038-0.005 2.076-0.023 3.115-0.026 0.001 0.058 0.005 0.173 0.007 0.23-1.038 0.005-2.077 0.001-3.115 0.002-0.002-0.052-0.005-0.155-0.007-0.206z"></path>
<path fill="#ffd520" d="M13.312 11.641c1.116-0.068 2.236-0.041 3.354-0.056-0.002 0.066-0.007 0.198-0.010 0.264-0.954-0.007-1.908 0.007-2.862-0.001-0.194 0.030-0.341-0.098-0.482-0.206z"></path>
<path fill="#ffd520" d="M9.934 12.389c1.057-0.239 2.162-0.079 3.239-0.139 0 0.053 0 0.158 0 0.212-1.079-0.024-2.166 0.062-3.239-0.073z"></path>
<path fill="#ffd520" d="M10.127 12.923c1.010-0.065 2.028-0.019 3.041-0.035 0 0.068 0.001 0.203 0.002 0.271-1.064-0.025-2.136 0.060-3.197-0.046 0.038-0.048 0.115-0.143 0.154-0.191z"></path>
<path fill="#ffd520" d="M13.427 12.88c1.076 0.006 2.153-0.014 3.229-0.006-0.001 0.072-0.002 0.215-0.004 0.286-1.075 0.001-2.15 0.001-3.224 0.001-0.001-0.071-0.001-0.21-0.001-0.281z"></path>
<path fill="#ffd520" d="M8.96 13.346c0.505-0.311 0.203 0.466 0 0z"></path>
<path fill="#f9d01f" d="M13.424 12.24c1.076-0.001 2.152-0.023 3.228-0.026 0.002 0.066 0.006 0.199 0.008 0.265-1.079 0.007-2.158-0.007-3.235-0.005-0.001-0.058-0.001-0.175-0.001-0.234z"></path>
</svg>
