<?xml version="1.0" encoding="utf-8"?>
<!-- Generated by IcoMoon.io -->
<!DOCTYPE svg PUBLIC "-//W3C//DTD SVG 1.1//EN" "http://www.w3.org/Graphics/SVG/1.1/DTD/svg11.dtd">
<svg version="1.1" xmlns="http://www.w3.org/2000/svg" xmlns:xlink="http://www.w3.org/1999/xlink" width="24" height="24" viewBox="0 0 24 24">
<path fill="#ef2b2f" d="M11.754 1.536h0.989c0.956 0.82 1.361 2.049 2.022 3.084 1.908 3.17 3.688 6.413 5.572 9.598 1.254 2.077 2.379 4.228 3.663 6.286v1.676c-0.205-0.129-0.572 0.004-0.499 0.284h-22.541c-0.303-0.434-0.793-0.931-0.584-1.507 0.278-0.77 0.77-1.436 1.164-2.15 1.336-2.413 2.786-4.764 4.155-7.16 1.041-1.945 2.22-3.813 3.312-5.729 0.935-1.448 1.536-3.124 2.748-4.381M9.564 8.619c-1.812 3.059-3.579 6.144-5.349 9.228-0.518 0.939-1.179 1.805-1.561 2.815 6.419 0.006 12.839 0.010 19.26-0.002-0.568-1.225-1.357-2.327-2.001-3.51-1.605-2.701-3.11-5.457-4.723-8.152-1.014-1.649-1.864-3.391-2.92-5.013-0.95 1.515-1.857 3.060-2.705 4.635z"></path>
<path fill="#fff" d="M9.564 8.619c0.849-1.574 1.755-3.12 2.705-4.635 1.056 1.622 1.907 3.364 2.92 5.013 1.613 2.696 3.118 5.451 4.723 8.152 0.643 1.183 1.432 2.285 2.001 3.51-6.42 0.012-12.841 0.008-19.26 0.002 0.382-1.010 1.043-1.876 1.561-2.815 1.77-3.084 3.537-6.169 5.349-9.228M10.201 9.571c0.227 0.3 0.618 0.384 0.947 0.526-0.186 0.338-0.505 0.645-0.499 1.054-0.040 0.338 0.129 0.768-0.202 1.006-0.478 0.468-1.202 0.77-1.338 1.494 0.123 0.033 0.365 0.1 0.486 0.132 0.447-0.311 0.96-0.382 1.488-0.244-0.19 0.444-0.605 0.876-0.484 1.394 0.265 0.593 0.791 1.023 1.077 1.605-0.071 0.455-0.415 0.818-0.655 1.198-1.027 0.459-2.083 0.858-3.158 1.192-0.34-0.188-0.685-0.367-1.027-0.553 0.002 0.472 0.221 1.198 0.829 1.054 2.156-0.708 4.255-1.58 6.39-2.348-0.156 0.359-0.313 0.718-0.511 1.056-1.029 0.543-2.133 0.931-3.183 1.434-0.33-0.182-0.66-0.361-0.985-0.551 0.065 0.365 0.027 0.854 0.436 1.031 0.298 0.081 0.589-0.040 0.86-0.156 2.634-1.208 5.311-2.331 7.908-3.621 0.006-0.29 0.006-0.578-0.008-0.868-0.388-0.123-0.829-0.109-1.164-0.371-0.839-0.589-1.653-1.213-2.492-1.803-0.015-0.676 0.227-1.446-0.202-2.039-0.326-0.432-0.685-0.843-1.066-1.229-0.403-0.42-1.033-0.311-1.555-0.38-0.163-0.549-0.138-1.277-0.71-1.588-0.851-0.367-1.724 0.858-1.183 1.572z"></path>
<path fill="#fff" d="M13.45 11.124c0.559 0.334 0.885 0.897 0.922 1.546-0.678-0.102-0.657-1.037-0.922-1.546z"></path>
<path fill="#fff" d="M10.322 13.114c0.445-0.447 0.945-0.837 1.394-1.281 0.152 0.202 0.294 0.411 0.43 0.624-0.278 0.259-0.53 0.559-0.858 0.755-0.324-0.006-0.645-0.058-0.966-0.098z"></path>
<path fill="#fff" d="M14.089 13.018c1.073 0.764 2.143 1.538 3.204 2.317 0.351 0.184 0.292 0.62 0.38 0.948-0.774 0.349-1.548 0.699-2.327 1.041-0.108-0.213-0.211-0.43-0.307-0.647 0.465-0.252 1.175-0.242 1.373-0.814-0.568-0.111-1.056 0.374-1.592 0.317-0.253-0.422-0.524-0.833-0.774-1.258-0.035-0.634 0.060-1.269 0.042-1.905z"></path>
<path fill="#fff" d="M11.737 14.763c0.067-0.513 0.756-0.712 1.156-0.97 0.013 0.493-0.046 0.995 0.052 1.482 0.365 0.424 0.762 0.822 1.079 1.288-0.386 0.188-0.783 0.355-1.187 0.505-0.234-0.829-0.659-1.576-1.1-2.306z"></path>
<path fill="#fff" d="M18.104 15.54c0.492-0.156 0.369 0.691-0.069 0.561-0.334-0.058-0.169-0.493 0.069-0.561z"></path>
<path fill="#201e1c" d="M10.201 9.571c-0.541-0.714 0.332-1.939 1.183-1.572 0.572 0.311 0.547 1.039 0.71 1.588 0.522 0.069 1.152-0.040 1.555 0.38 0.38 0.386 0.739 0.797 1.066 1.229 0.428 0.593 0.186 1.363 0.202 2.039 0.839 0.589 1.653 1.213 2.492 1.803 0.334 0.261 0.776 0.248 1.164 0.371 0.013 0.29 0.013 0.578 0.008 0.868-2.598 1.29-5.274 2.413-7.908 3.621-0.271 0.115-0.563 0.236-0.86 0.156-0.409-0.177-0.371-0.666-0.436-1.031 0.324 0.19 0.655 0.369 0.985 0.551 1.050-0.503 2.154-0.891 3.183-1.434 0.198-0.338 0.355-0.697 0.511-1.056-2.135 0.768-4.234 1.64-6.39 2.348-0.609 0.144-0.828-0.582-0.829-1.054 0.342 0.186 0.687 0.365 1.027 0.553 1.075-0.334 2.131-0.733 3.158-1.192 0.24-0.38 0.584-0.743 0.655-1.198-0.286-0.582-0.812-1.012-1.077-1.605-0.121-0.518 0.294-0.95 0.484-1.394-0.528-0.138-1.041-0.067-1.488 0.244-0.121-0.033-0.363-0.1-0.486-0.132 0.136-0.724 0.86-1.025 1.338-1.494 0.33-0.238 0.161-0.668 0.202-1.006-0.006-0.409 0.313-0.716 0.499-1.054-0.328-0.142-0.72-0.227-0.947-0.526M13.45 11.124c0.265 0.509 0.244 1.444 0.922 1.546-0.036-0.649-0.363-1.212-0.922-1.546M10.322 13.114c0.321 0.040 0.641 0.092 0.966 0.098 0.328-0.196 0.58-0.495 0.858-0.755-0.136-0.213-0.278-0.422-0.43-0.624-0.449 0.444-0.948 0.833-1.394 1.281M14.089 13.018c0.017 0.636-0.077 1.271-0.042 1.905 0.25 0.424 0.52 0.835 0.774 1.258 0.536 0.058 1.023-0.428 1.592-0.317-0.198 0.572-0.908 0.563-1.373 0.814 0.096 0.217 0.2 0.434 0.307 0.647 0.78-0.342 1.553-0.691 2.327-1.041-0.088-0.328-0.029-0.764-0.38-0.948-1.062-0.78-2.131-1.553-3.204-2.317M11.737 14.763c0.442 0.73 0.866 1.476 1.1 2.306 0.403-0.15 0.801-0.317 1.187-0.505-0.317-0.467-0.714-0.864-1.079-1.288-0.098-0.488-0.038-0.989-0.052-1.482-0.399 0.257-1.089 0.457-1.156 0.97M18.104 15.54c-0.238 0.067-0.403 0.503-0.069 0.561 0.438 0.131 0.561-0.716 0.069-0.561z"></path>
</svg>
