<!-- Generated by IcoMoon.io -->
<svg version="1.1" xmlns="http://www.w3.org/2000/svg" width="24" height="24" viewBox="0 0 24 24">
<title>warning--double-reverse-curve-right--g2</title>
<path fill="#ef7c23" d="M11.725 0h0.498c0.551 0.214 0.918 0.689 1.327 1.090 3.1 3.1 6.2 6.199 9.301 9.3 0.41 0.419 0.882 0.8 1.148 1.337v0.504c-0.22 0.545-0.698 0.906-1.094 1.315-3.121 3.119-6.24 6.239-9.36 9.359-0.398 0.394-0.764 0.841-1.274 1.096h-0.512c-0.509-0.217-0.86-0.656-1.243-1.036-3.139-3.14-6.281-6.28-9.421-9.42-0.392-0.397-0.84-0.763-1.094-1.273v-0.512c0.227-0.538 0.692-0.905 1.090-1.31 3.299-3.3 6.602-6.596 9.899-9.901 0.217-0.217 0.468-0.398 0.737-0.547M11.67 0.388c-0.127 0.066-0.236 0.162-0.341 0.258-3.581 3.582-7.17 7.157-10.744 10.745-0.359 0.314-0.361 0.907 0.008 1.214 3.601 3.6 7.201 7.201 10.801 10.802 0.307 0.368 0.901 0.367 1.211 0.002 3.599-3.602 7.199-7.205 10.8-10.805 0.371-0.307 0.368-0.9 0.010-1.214-3.576-3.587-7.163-7.165-10.744-10.747-0.248-0.268-0.654-0.445-1.002-0.256z"></path>
<path fill="#ef7c23" d="M11.743 0.944c0.289-0.348 0.601 0.091 0.821 0.292 3.546 3.604 7.204 7.106 10.69 10.764-3.551 3.677-7.226 7.237-10.817 10.878-0.168 0.196-0.469 0.46-0.691 0.174-3.6-3.598-7.201-7.196-10.795-10.8-0.263-0.188-0.084-0.475 0.104-0.636 3.568-3.552 7.114-7.128 10.688-10.672M7.28 7.921c0.179 0.577 0.955 0.091 1.393 0.106 0.065 0.696-0.062 1.429 0.174 2.096 0.487 0.823 1.547 0.978 2.188 1.642 0.634 0.569 0.811 1.556 0.385 2.299-0.557 1.264-2.326 1.402-2.75 2.752-0.15 0.814-0.042 1.65-0.061 2.473 0.462-0.001 0.925 0 1.388 0.004 0.041-0.797-0.188-1.746 0.426-2.384 0.565-0.559 1.249-0.988 1.781-1.584 1.037-0.98 1.232-2.705 0.506-3.919-0.56-0.988-1.631-1.458-2.587-1.958-0.054-0.485-0.017-0.974-0.026-1.462 0.396 0.022 1.34 0.506 1.361-0.137-0.628-1.246-1.298-2.485-2.088-3.637-0.798 1.172-1.492 2.428-2.089 3.71M12.701 7.432c-0.092 0.223-0.35 0.54-0.088 0.738 0.427 0.091 0.852-0.1 1.271-0.164 0.060 0.689-0.052 1.406 0.154 2.075 0.505 0.928 1.73 1.038 2.36 1.85 0.557 0.601 0.608 1.55 0.178 2.237-0.595 1.17-2.252 1.327-2.686 2.615-0.173 0.821-0.040 1.672-0.077 2.506 0.468 0.001 0.937 0.001 1.406-0.001 0.019-0.762-0.182-1.646 0.338-2.29 0.473-0.532 1.1-0.894 1.594-1.408 1.087-0.868 1.496-2.437 0.995-3.73-0.468-1.219-1.674-1.907-2.822-2.376-0.020-0.505-0.020-1.009-0.007-1.514 0.404 0.042 1.198 0.492 1.367-0.055-0.586-1.282-1.325-2.503-2.078-3.696-0.776 0.977-1.279 2.138-1.904 3.214z"></path>
<path fill="#000" d="M11.67 0.388c0.348-0.19 0.754-0.012 1.002 0.256 3.581 3.582 7.168 7.16 10.744 10.747 0.359 0.314 0.361 0.907-0.010 1.214-3.601 3.6-7.201 7.202-10.8 10.805-0.31 0.365-0.904 0.366-1.211-0.002-3.6-3.601-7.2-7.202-10.801-10.802-0.37-0.307-0.367-0.9-0.008-1.214 3.574-3.588 7.163-7.163 10.744-10.745 0.104-0.096 0.214-0.192 0.341-0.258M11.743 0.944c-3.575 3.544-7.121 7.12-10.688 10.672-0.188 0.161-0.367 0.448-0.104 0.636 3.594 3.604 7.195 7.202 10.795 10.8 0.222 0.286 0.523 0.022 0.691-0.174 3.59-3.641 7.266-7.201 10.817-10.878-3.486-3.658-7.144-7.16-10.69-10.764-0.22-0.2-0.532-0.64-0.821-0.292z"></path>
<path fill="#000" d="M7.28 7.921c0.598-1.283 1.291-2.538 2.089-3.71 0.79 1.152 1.46 2.392 2.088 3.637-0.020 0.643-0.965 0.158-1.361 0.137 0.010 0.487-0.028 0.977 0.026 1.462 0.956 0.5 2.027 0.971 2.587 1.958 0.726 1.214 0.53 2.939-0.506 3.919-0.532 0.596-1.216 1.025-1.781 1.584-0.614 0.638-0.385 1.588-0.426 2.384-0.463-0.004-0.926-0.005-1.388-0.004 0.019-0.823-0.089-1.66 0.061-2.473 0.425-1.35 2.194-1.488 2.75-2.752 0.426-0.743 0.248-1.73-0.385-2.299-0.641-0.664-1.7-0.818-2.188-1.642-0.236-0.667-0.109-1.4-0.174-2.096-0.438-0.014-1.214 0.472-1.393-0.106z"></path>
<path fill="#000" d="M12.701 7.432c0.625-1.075 1.128-2.237 1.904-3.214 0.754 1.193 1.493 2.414 2.078 3.696-0.169 0.547-0.962 0.097-1.367 0.055-0.013 0.505-0.013 1.009 0.007 1.514 1.148 0.469 2.354 1.157 2.822 2.376 0.502 1.292 0.092 2.862-0.995 3.73-0.493 0.514-1.121 0.876-1.594 1.408-0.521 0.643-0.319 1.528-0.338 2.29-0.469 0.002-0.938 0.002-1.406 0.001 0.037-0.834-0.096-1.685 0.077-2.506 0.433-1.288 2.090-1.445 2.686-2.615 0.431-0.686 0.379-1.636-0.178-2.237-0.63-0.812-1.855-0.923-2.36-1.85-0.205-0.668-0.094-1.386-0.154-2.075-0.419 0.065-0.844 0.256-1.271 0.164-0.263-0.198-0.005-0.515 0.088-0.738z"></path>
</svg>
