<?xml version="1.0" encoding="utf-8"?>
<!-- Generated by IcoMoon.io -->
<!DOCTYPE svg PUBLIC "-//W3C//DTD SVG 1.1//EN" "http://www.w3.org/Graphics/SVG/1.1/DTD/svg11.dtd">
<svg version="1.1" xmlns="http://www.w3.org/2000/svg" xmlns:xlink="http://www.w3.org/1999/xlink" width="24" height="24" viewBox="0 0 24 24">
<path fill="#ffd700" d="M23.472 10.717l-10.256-10.197c-0.675-0.671-1.824-0.621-2.552 0.111l-10.041 10.099c-0.728 0.732-0.771 1.881-0.096 2.552l10.256 10.197c0.675 0.672 1.824 0.622 2.552-0.111l10.041-10.098c0.728-0.733 0.771-1.882 0.096-2.553z"></path>
<path fill="#ffd700" d="M22.808 11.154l-10.026-9.969c-0.437-0.434-1.18-0.402-1.652 0.072l-9.881 9.938c-0.471 0.474-0.5 1.218-0.062 1.652l10.026 9.969c0.437 0.434 1.18 0.403 1.652-0.071l9.881-9.938c0.471-0.474 0.499-1.218 0.062-1.653z"></path>
<path fill="none" stroke="#000" stroke-width="0.7738" stroke-miterlimit="2.613" stroke-linecap="butt" stroke-linejoin="miter" d="M22.808 11.154l-10.027-9.969c-0.437-0.434-1.18-0.402-1.652 0.072l-9.881 9.939c-0.472 0.474-0.5 1.218-0.063 1.652l10.027 9.969c0.437 0.434 1.18 0.403 1.652-0.072l9.881-9.938c0.471-0.474 0.5-1.218 0.063-1.653z"></path>
<path fill="#000" d="M4.78 10.204h1.016c0.584 0.046 0.707 1.030 0 1.163h-1.016v-1.162zM4.036 9.497v4.489c0 0.013 0.012 0.028 0.028 0.028h0.69c0.017-0.001 0.027-0.014 0.027-0.027v-1.875c0.338 0 0.649 0 0.987 0 1.643-0.077 1.696-2.543-0.001-2.652l-1.696 0.008c-0.018-0.001-0.034 0.007-0.034 0.030z"></path>
<path fill="#000" d="M13.016 10.204h1.017c0.584 0.046 0.706 1.030 0 1.163h-1.017v-1.162zM12.271 9.495v4.491c0 0.013 0.011 0.028 0.028 0.028h0.687c0.016 0.001 0.029-0.011 0.029-0.028l0.008-1.874h0.72l0.731 1.885c0.005 0.011 0.014 0.018 0.027 0.018h0.728c0.025 0 0.032-0.025 0.025-0.041l-0.751-1.972c1.396-0.8 0.656-2.518-0.492-2.541l-1.709 0.007c-0.016 0.001-0.029 0.012-0.029 0.028z"></path>
<path fill="#000" d="M9.010 11.944h0.784l-0.397-1.191-0.387 1.191zM7.602 14.014c-0.038-0.001-0.037-0.023-0.030-0.049l1.46-4.479c0.006-0.012 0.017-0.019 0.029-0.018h0.681c0.015-0.001 0.028 0.007 0.031 0.018l1.463 4.49c0.007 0.019-0.008 0.039-0.026 0.039h-0.721c-0.014-0.001-0.024-0.008-0.028-0.020l-0.432-1.315h-1.255l-0.426 1.302c-0.007 0.023-0.018 0.033-0.041 0.032h-0.705z"></path>
<path fill="#000" d="M16.481 9.467h2.541c0.020 0.001 0.029 0.019 0.028 0.027v0.683c-0.003 0.016-0.012 0.028-0.040 0.026l-1.811-0.001-0.002 1.163 1.25 0.004c0.012 0.001 0.025 0.012 0.025 0.028v0.691c0 0.014-0.014 0.027-0.025 0.026l-1.248 0.001v1.159l1.949-0.002c0.012 0.001 0.026 0.010 0.027 0.028v0.685c0.002 0.018-0.012 0.031-0.028 0.031l-2.667 0.001c-0.015-0.002-0.025-0.015-0.025-0.028v-4.493c0.001-0.016 0.012-0.026 0.028-0.027z"></path>
</svg>
