<!-- Generated by IcoMoon.io -->
<svg version="1.1" xmlns="http://www.w3.org/2000/svg" width="24" height="24" viewBox="0 0 24 24">
<title>warning--steep-ascent--g3</title>
<path fill="#e0ba1c" opacity="0.94" d="M11.584 0h0.82c3.932 3.792 7.788 7.668 11.596 11.584v0.824c-3.792 3.928-7.668 7.784-11.584 11.592h-0.824c-3.928-3.792-7.784-7.668-11.592-11.584v-0.824c3.792-3.928 7.668-7.784 11.584-11.592M0.9 12c3.656 3.744 7.356 7.448 11.1 11.1 3.744-3.652 7.444-7.356 11.1-11.1-3.656-3.744-7.356-7.444-11.1-11.1-3.744 3.656-7.444 7.356-11.1 11.1z"></path>
<path fill="#ffd520" d="M0.9 12c3.656-3.744 7.356-7.444 11.1-11.1 3.744 3.656 7.444 7.356 11.1 11.1-3.656 3.744-7.356 7.448-11.1 11.1-3.744-3.652-7.444-7.356-11.1-11.1M12.572 6.788c-0.216 0.4-0.432 0.804-0.648 1.204-0.536-0.288-1.072-0.576-1.612-0.864-0.452 0.232-0.904 0.46-1.356 0.696-0.556-0.276-1.112-0.544-1.668-0.812-0.164 0.256-0.488 0.764-0.652 1.020 0.26 0.46 0.52 0.916 0.772 1.38-0.708-0.34-1.412-0.688-2.112-1.040 0.004 2.14 0.004 4.284 0 6.424 4.104 0.008 8.212 0.004 12.316 0.004-0.292-0.2-0.88-0.596-1.172-0.796 0.504-0.184 1.008-0.364 1.516-0.54 0.54-1 1.068-2.008 1.584-3.020-2.312-1.236-4.648-2.428-6.968-3.656M9.936 15.708c-0.804 1.116-1.384 3.744 0.784 3.532 1.016-0.98 0.812-3.212-0.784-3.532M11.452 17.204c0.384 0.356 0.776 0.708 1.172 1.052-0.088 0.36-0.176 0.724-0.268 1.088 0.372-0.268 0.744-0.536 1.116-0.804 0.46 0.296 0.924 0.588 1.396 0.872 0.552-1.168-0.232-2.244-0.7-3.268-0.26 0.308-0.516 0.616-0.776 0.928-0.344-0.38-0.688-0.764-1.032-1.144-0.304 0.424-0.608 0.852-0.908 1.276z"></path>
<path fill="#ffd520" d="M8.48 9.42c0.964 0.476 1.992 0.796 3.052 0.972-0.116 0.24-0.348 0.724-0.468 0.968-1.028-0.54-2.056-1.088-3.080-1.636 0.124-0.076 0.372-0.228 0.496-0.304z"></path>
<path fill="#ffd520" d="M12.072 11.872c0.22-0.256 0.44-0.516 0.66-0.772 1.064 0.576 2.14 1.14 3.22 1.688-0.104 0.212-0.308 0.628-0.408 0.836-1.16-0.576-2.32-1.16-3.472-1.752z"></path>
<path fill="#000" d="M12.572 6.788c2.32 1.228 4.656 2.42 6.968 3.656-0.516 1.012-1.044 2.020-1.584 3.020-0.508 0.176-1.012 0.356-1.516 0.54 0.292 0.2 0.88 0.596 1.172 0.796-4.104 0-8.212 0.004-12.316-0.004 0.004-2.14 0.004-4.284 0-6.424 0.7 0.352 1.404 0.7 2.112 1.040-0.252-0.464-0.512-0.92-0.772-1.38 0.164-0.256 0.488-0.764 0.652-1.020 0.556 0.268 1.112 0.536 1.668 0.812 0.452-0.236 0.904-0.464 1.356-0.696 0.54 0.288 1.076 0.576 1.612 0.864 0.216-0.4 0.432-0.804 0.648-1.204M8.48 9.42c-0.124 0.076-0.372 0.228-0.496 0.304 1.024 0.548 2.052 1.096 3.080 1.636 0.12-0.244 0.352-0.728 0.468-0.968-1.060-0.176-2.088-0.496-3.052-0.972M12.072 11.872c1.152 0.592 2.312 1.176 3.472 1.752 0.1-0.208 0.304-0.624 0.408-0.836-1.080-0.548-2.156-1.112-3.22-1.688-0.22 0.256-0.44 0.516-0.66 0.772z"></path>
<path fill="#af9216" d="M9.936 15.708c1.596 0.32 1.8 2.552 0.784 3.532-2.168 0.212-1.588-2.416-0.784-3.532z"></path>
<path fill="#7f6a10" d="M11.452 17.204c0.3-0.424 0.604-0.852 0.908-1.276 0.344 0.38 0.688 0.764 1.032 1.144 0.26-0.312 0.516-0.62 0.776-0.928 0.468 1.024 1.252 2.1 0.7 3.268-0.472-0.284-0.936-0.576-1.396-0.872-0.372 0.268-0.744 0.536-1.116 0.804 0.092-0.364 0.18-0.728 0.268-1.088-0.396-0.344-0.788-0.696-1.172-1.052z"></path>
</svg>
