<svg xmlns="http://www.w3.org/2000/svg" width="24" height="24">
    <path fill="#e20a16" d="M11.932 1.333h.473c.272.184.485.44.643.728 3.764 6.567 7.582 13.102 11.333 19.676v.46c-.14.134-.282.268-.433.39-6.193-.092-12.389-.013-18.584-.039-1.641.017-3.283-.043-4.923.039-.154-.128-.298-.268-.441-.406v-.39c3.685-6.524 7.491-12.98 11.208-19.486.194-.357.431-.689.724-.972zM3.151 20.526c6.033.004 12.065.004 18.097.001-3.016-5.225-6.028-10.45-9.05-15.669-3.019 5.22-6.036 10.443-9.046 15.668z"/>
    <path fill="#e20a16" d="M8.359 13.348c.706-.685 1.391-1.394 2.098-2.078 1.149.023 2.301-.032 3.449.023.709.548 1.279 1.261 1.94 1.868.214.256.602.459.579.837.007 1.084-.003 2.167-.001 3.252-.82.823-1.65 1.637-2.459 2.47-1.083.007-2.166.01-3.249.004-.194.023-.364-.071-.486-.213a343.26 343.26 0 0 0-2.255-2.26c.003-1.08-.009-2.16 0-3.24-.039-.29.207-.476.385-.662zm.539.779c-.525.712.061 1.609.883 1.652.096.42.036 1.012-.534.88a28.088 28.088 0 0 1-.095-.489l-.519.012c.056.456.318.995.86.951.86-.006 1.041-1.274.463-1.74-.36-.174-.972-.29-.755-.839.175-.474.644-.101.68.259l.42.006c.076-.745-.886-1.313-1.404-.692zm1.541-.235l.001.456c.181.003.364.004.545.006l.001 2.755h.459c.003-.918.001-1.837.001-2.755.181-.003.364-.004.546-.006v-.456h-1.553zm2.269.031c-.823.431-.374 1.549-.484 2.292-.16.829 1.076 1.27 1.457.511.193-.679.076-1.414.085-2.114.014-.521-.59-.906-1.058-.689zm1.528-.048v3.23c.115.001.344.004.459.004.003-.401.001-.802 0-1.204.969.112 1.329-1.036.879-1.736-.324-.387-.892-.275-1.337-.296z"/>
    <path fill="#e20a16" d="M12.82 14.365c.2-.101.492 0 .476.255.039.604.052 1.219-.011 1.822-.043.345-.66.252-.588-.106.022-.646-.166-1.381.124-1.972zM14.698 14.324c.185.03.37.063.555.096.072.446.092 1.091-.548 1.025-.007-.373-.01-.748-.006-1.122z"/>
    <path fill="#fff" d="M3.151 20.526c3.01-5.226 6.028-10.449 9.046-15.668 3.022 5.22 6.035 10.444 9.05 15.669-6.032.004-12.064.004-18.097-.001zm5.208-7.178c-.178.187-.424.372-.385.662-.009 1.08.003 2.16 0 3.24a320.35 320.35 0 0 1 2.255 2.26c.124.142.292.236.486.213 1.083.004 2.166.003 3.249-.004.81-.833 1.638-1.647 2.459-2.47-.001-1.084.009-2.167.001-3.252.023-.38-.364-.581-.579-.837-.66-.606-1.23-1.319-1.94-1.868-1.148-.055-2.3 0-3.449-.023-.707.685-1.392 1.394-2.098 2.078z"/>
    <path fill="#fff" d="M8.898 14.127c.516-.621 1.479-.053 1.404.692l-.42-.006c-.036-.36-.505-.732-.68-.259-.218.548.395.664.755.839.578.467.396 1.735-.463 1.74-.541.044-.804-.495-.86-.951l.519-.012c.03.164.062.325.095.489.569.132.63-.46.534-.88-.821-.043-1.408-.94-.883-1.652zM10.439 13.892h1.553v.456c-.181.003-.364.004-.546.006 0 .918.001 1.837-.001 2.755h-.459l-.001-2.755c-.181-.003-.364-.004-.545-.006l-.001-.456zM12.708 13.923c.468-.217 1.073.168 1.058.689-.01.7.108 1.435-.085 2.114-.38.759-1.617.318-1.457-.511.109-.742-.339-1.86.484-2.292zm.112.442c-.289.59-.101 1.325-.124 1.972-.073.357.545.451.588.106.063-.604.05-1.218.011-1.822.017-.255-.276-.356-.476-.255zM14.236 13.875c.446.022 1.013-.09 1.337.296.45.7.09 1.848-.879 1.736.001.401.003.802 0 1.204-.115-.001-.344-.004-.459-.004v-3.23zm.462.449c-.004.374-.001.748.006 1.122.64.066.62-.579.548-1.025-.185-.033-.37-.066-.555-.096z"/>
    <path fill="#120102" opacity=".08" d="M0 22.181c.144.138.288.278.441.406l.127.079H0v-.485z"/>
    <path fill="#190102" opacity=".11" d="M23.948 22.588c.151-.122.292-.256.433-.39v.469h-.542l.109-.079z"/>
    <path fill="#c20813" opacity=".86" d="M.441 22.588c1.64-.082 3.282-.022 4.923-.039 6.196.026 12.392-.052 18.584.039l-.109.079H.569l-.127-.079z"/>
</svg>
