<?xml version="1.0" encoding="utf-8"?>
<!-- Generated by IcoMoon.io -->
<!DOCTYPE svg PUBLIC "-//W3C//DTD SVG 1.1//EN" "http://www.w3.org/Graphics/SVG/1.1/DTD/svg11.dtd">
<svg version="1.1" xmlns="http://www.w3.org/2000/svg" xmlns:xlink="http://www.w3.org/1999/xlink" width="24" height="24" viewBox="0 0 24 24">
<path fill="#c0111e" d="M10.156 2.523c0.54-0.741 1.553-1.026 2.424-0.809 0.587 0.176 0.992 0.671 1.331 1.154 0.711 1.025 1.343 2.102 1.988 3.17 2.050 3.448 4.056 6.922 6.080 10.386 0.593 1.038 1.225 2.057 1.749 3.133 0.337 0.882 0.174 2.080-0.679 2.62-0.358 0.217-0.731 0.496-1.173 0.452-6.717-0.013-13.435 0.011-20.152-0.012-0.801-0.219-1.557-0.818-1.722-1.673v-0.899c0.29-0.837 0.752-1.598 1.173-2.371 2.385-4.182 4.85-8.318 7.291-12.467 0.55-0.903 1.063-1.832 1.691-2.685M11.882 3.929c-3.249 5.488-6.487 10.983-9.714 16.484 6.51 0.003 13.021 0.004 19.532 0-3.227-5.5-6.465-10.995-9.714-16.483-0.027 0-0.077 0-0.103-0.001z"></path>
<path fill="#fff" d="M11.882 3.929c0.027 0.001 0.077 0.001 0.103 0.001 3.249 5.488 6.487 10.983 9.714 16.483-6.51 0.004-13.021 0.003-19.532 0 3.227-5.501 6.465-10.996 9.714-16.484M9.855 8.44c-0.012 1.054-0.017 2.111 0.012 3.165 0.009 0.483 0.103 0.989 0.435 1.36 0.668 0.748 1.472 1.355 2.229 2.008 0.446 0.389 0.826 0.914 0.842 1.525 0.023 1.135 0.001 2.27 0.011 3.406 0.403 0 0.806 0 1.209-0.001-0.004-1.134 0.013-2.267-0.008-3.401-0.024-0.857-0.439-1.669-1.055-2.253-0.756-0.7-1.61-1.297-2.298-2.069-0.163-0.204-0.143-0.48-0.163-0.725-0.013-1.018-0.004-2.038-0.005-3.056-0.194-0.186-0.39-0.367-0.591-0.544-0.202 0.196-0.476 0.339-0.617 0.585M11.626 7.855c-0.001 1.082-0.001 2.165 0 3.247 0.203 0.159 0.404 0.322 0.598 0.495 0.216-0.164 0.432-0.329 0.647-0.495 0.003-1.083 0.001-2.165 0-3.247-0.415-0.001-0.83-0.001-1.245 0M11.532 16.402c0 1.164-0.001 2.328 0.001 3.493 0.415 0 0.831 0.001 1.248-0.001-0.004-1.168 0.007-2.335-0.007-3.502-0.203-0.159-0.402-0.324-0.605-0.483-0.216 0.16-0.427 0.326-0.638 0.493z"></path>
<path fill="#030303" d="M9.855 8.44c0.141-0.245 0.415-0.389 0.617-0.585 0.202 0.176 0.398 0.358 0.591 0.544 0.001 1.018-0.008 2.038 0.005 3.056 0.020 0.245 0 0.521 0.163 0.725 0.688 0.772 1.542 1.368 2.298 2.069 0.617 0.583 1.032 1.396 1.055 2.253 0.021 1.134 0.004 2.267 0.008 3.401-0.403 0.001-0.806 0.001-1.209 0.001-0.009-1.136 0.012-2.271-0.011-3.406-0.016-0.611-0.396-1.136-0.842-1.525-0.757-0.652-1.561-1.26-2.229-2.008-0.331-0.371-0.426-0.878-0.435-1.36-0.029-1.054-0.024-2.111-0.012-3.165z"></path>
<path fill="#030303" d="M11.626 7.855c0.415-0.001 0.83-0.001 1.245 0 0.001 1.082 0.003 2.164 0 3.247-0.215 0.166-0.431 0.33-0.647 0.495-0.194-0.172-0.395-0.335-0.598-0.495-0.001-1.082-0.001-2.165 0-3.247z"></path>
<path fill="#030303" d="M11.532 16.402c0.211-0.167 0.422-0.333 0.638-0.493 0.203 0.159 0.402 0.324 0.605 0.483 0.013 1.167 0.003 2.334 0.007 3.502-0.416 0.003-0.833 0.001-1.248 0.001-0.003-1.164-0.001-2.328-0.001-3.493z"></path>
</svg>
