<svg xmlns="http://www.w3.org/2000/svg" width="24" height="24">
    <path fill="#231f20" d="M11.807 1.145c.626-.138 1.271.125 1.706.576 3.253 3.109 6.51 6.215 9.757 9.329.734.64.731 1.864.031 2.528a10467.68 10467.68 0 0 1-9.424 9.425c-.674.701-1.904.731-2.584.022-3.306-3.175-6.634-6.33-9.94-9.504-.683-.664-.6-1.853.091-2.48 3.053-3.065 6.118-6.118 9.173-9.179.325-.336.714-.641 1.188-.716zm.341.236c-.497-.007-.944.258-1.276.61-3.076 3.084-6.163 6.157-9.236 9.245-.612.548-.656 1.601-.032 2.158 3.295 3.146 6.59 6.294 9.884 9.442.58.602 1.627.576 2.198-.025 3.144-3.138 6.283-6.281 9.424-9.422.596-.564.596-1.604-.03-2.146-3.222-3.1-6.467-6.176-9.695-9.27-.328-.332-.752-.607-1.237-.59z"/>
    <path fill="#231f20" d="M11.681 1.852c.638-.197 1.343.035 1.795.512 3.048 2.911 6.101 5.819 9.139 8.738.686.617.694 1.783.03 2.417-2.936 2.947-5.881 5.886-8.821 8.828-.646.674-1.828.71-2.488.037-3.085-2.957-6.178-5.906-9.265-8.858-.695-.628-.642-1.804.026-2.43 2.87-2.89 5.76-5.76 8.639-8.64.264-.269.574-.509.944-.605zm.117.357c-.373.092-.655.37-.919.63-2.832 2.848-5.687 5.676-8.513 8.53-.529.486-.571 1.402-.026 1.892 3.088 2.952 6.178 5.903 9.265 8.855.52.53 1.446.488 1.951-.04 2.94-2.94 5.882-5.878 8.82-8.818.512-.5.516-1.406-.026-1.886-3.038-2.926-6.101-5.827-9.148-8.744-.356-.372-.899-.57-1.404-.419z"/>
    <path fill="#231f20" d="M7.589 8.803a289.469 289.469 0 0 1 3.089-4.35 397.595 397.595 0 0 1 3.184 4.244c-.706-.07-1.408-.175-2.114-.246-.012.908-.107 1.813-.136 2.722.971.474 2.118.002 3.131.367 1 .245 1.525 1.291 1.546 2.255.026 1.586.005 3.173.016 4.759-.725 0-1.448-.026-2.173-.04a67.586 67.586 0 0 1-.077-3.398c-.004-.402-.038-.91-.461-1.1-1.033-.436-2.233.193-3.234-.374-.588-.314-.839-1.007-.83-1.643-.001-1.172.038-2.345.04-3.517-.66.103-1.316.232-1.979.322z"/>
    <path fill="#fff100" d="M12.148 1.381c.485-.017.91.258 1.237.59 3.228 3.094 6.473 6.17 9.695 9.27.626.541.626 1.582.03 2.146-3.14 3.142-6.28 6.284-9.424 9.422-.571.601-1.619.628-2.198.025l-9.884-9.442c-.624-.557-.58-1.609.032-2.158 3.073-3.088 6.161-6.161 9.236-9.245.331-.352.779-.617 1.276-.61zm-.467.471c-.371.096-.68.336-.944.605-2.879 2.88-5.768 5.75-8.639 8.64-.668.626-.721 1.802-.026 2.43 3.088 2.952 6.18 5.902 9.265 8.858.66.673 1.842.637 2.488-.037 2.94-2.942 5.885-5.881 8.821-8.828.664-.634.656-1.8-.03-2.417-3.038-2.92-6.091-5.827-9.139-8.738-.452-.478-1.157-.709-1.795-.512z"/>
    <path fill="#fff100" d="M11.798 2.209c.505-.151 1.048.047 1.404.419 3.047 2.917 6.109 5.819 9.148 8.744.542.48.539 1.386.026 1.886-2.938 2.94-5.88 5.878-8.82 8.818-.505.528-1.432.57-1.951.04-3.088-2.952-6.178-5.903-9.265-8.855-.545-.491-.503-1.406.026-1.892 2.826-2.854 5.681-5.682 8.513-8.53.264-.26.546-.538.919-.63zM7.589 8.803c.662-.09 1.319-.218 1.979-.322-.001 1.172-.041 2.345-.04 3.517-.008.636.242 1.328.83 1.643 1.001.568 2.201-.061 3.234.374.422.191.457.698.461 1.1.004 1.133.016 2.267.077 3.398.725.013 1.448.04 2.173.04-.011-1.586.011-3.173-.016-4.759-.02-.964-.546-2.01-1.546-2.255-1.013-.365-2.16.107-3.131-.367.029-.908.124-1.813.136-2.722.707.071 1.409.176 2.114.246a375.33 375.33 0 0 0-3.184-4.244 289.469 289.469 0 0 0-3.089 4.35z"/>
</svg>
