<!-- Generated by IcoMoon.io -->
<svg version="1.1" xmlns="http://www.w3.org/2000/svg" width="27" height="24" viewBox="0 0 27 24">
<title>warning--opening-or-swing-bridge--g1</title>
<path fill="#ec1d24" d="M13.247 0h0.649c0.521 0.165 1.006 0.476 1.27 0.968 3.855 6.679 7.702 13.364 11.555 20.045 0.146 0.259 0.278 0.526 0.396 0.8v0.778c-0.203 0.69-0.751 1.234-1.451 1.409h-24.183c-0.735-0.167-1.287-0.755-1.485-1.47v-0.639c0.118-0.3 0.252-0.591 0.41-0.872 3.856-6.679 7.702-13.365 11.557-20.045 0.264-0.496 0.755-0.812 1.281-0.975M2.85 21.601c7.146 0.005 14.293 0.005 21.439 0-3.569-6.199-7.138-12.399-10.72-18.591-3.58 6.193-7.153 12.391-10.719 18.591z"></path>
<path fill="#fff" d="M2.85 21.601c3.566-6.201 7.139-12.399 10.719-18.591 3.582 6.193 7.151 12.392 10.72 18.591-7.146 0.005-14.293 0.005-21.439 0M14.683 8.285c-2.548 2.533-5.078 5.085-7.619 7.623 0.366 0.363 0.729 0.727 1.092 1.094-0.607 0-1.215 0.001-1.821 0.004-0.725 1.28-1.452 2.559-2.176 3.837 1.33 0.004 2.66 0.001 3.991 0.001 0.009-0.212 0.020-0.423 0.037-0.633 0.64 0.153 1.154 0.713 1.85 0.637 0.708 0.060 1.186-0.687 1.898-0.58 0.575 0.091 1.007 0.633 1.626 0.576 0.617 0.064 1.055-0.468 1.624-0.575 0.715-0.122 1.193 0.628 1.898 0.578 0.706 0.089 1.222-0.492 1.877-0.626 0.012 0.209 0.024 0.418 0.034 0.628 1.329-0.008 2.659 0 3.988-0.005-0.725-1.279-1.452-2.557-2.178-3.837-0.607-0.004-1.215-0.004-1.822-0.003-0.001 0.462-0.004 0.926 0.003 1.388-0.565 0.023-1.006 0.381-1.501 0.597-0.812 0.263-1.36-0.666-2.16-0.567-0.574-0.047-0.998 0.389-1.502 0.571-0.758 0.205-1.265-0.671-2.023-0.571-0.796-0.088-1.348 0.842-2.159 0.561-0.485-0.221-0.926-0.565-1.482-0.591 0.005-0.465 0.004-0.93 0.005-1.395 2.544-2.536 5.073-5.086 7.615-7.623-0.361-0.366-0.724-0.731-1.093-1.089z"></path>
<path fill="#fff" d="M8.176 18.997c0.656 0.125 1.157 0.725 1.86 0.643 0.805 0.035 1.429-0.959 2.254-0.483 0.655 0.483 1.58 0.692 2.271 0.155 0.633-0.537 1.398-0.148 1.993 0.222 0.876 0.412 1.614-0.315 2.409-0.537 0.009 0.207 0.016 0.416 0.022 0.625-0.568 0.014-1.012 0.373-1.506 0.593-0.812 0.274-1.353-0.686-2.159-0.567-0.759-0.092-1.266 0.801-2.034 0.564-0.492-0.197-0.919-0.618-1.489-0.564-0.576-0.061-1.009 0.365-1.505 0.567-0.803 0.247-1.355-0.621-2.144-0.597 0.008-0.207 0.016-0.415 0.027-0.621z"></path>
<path fill="#000" d="M14.683 8.285c0.369 0.358 0.732 0.723 1.093 1.089-2.542 2.537-5.071 5.087-7.615 7.623-0.001 0.465 0 0.93-0.005 1.395 0.556 0.026 0.997 0.37 1.482 0.591 0.811 0.281 1.363-0.649 2.159-0.561 0.758-0.1 1.265 0.776 2.023 0.571 0.504-0.182 0.929-0.618 1.502-0.571 0.8-0.099 1.348 0.83 2.16 0.567 0.495-0.216 0.936-0.574 1.501-0.597-0.007-0.462-0.004-0.926-0.003-1.388 0.607-0.001 1.215-0.001 1.822 0.003 0.725 1.28 1.452 2.559 2.178 3.837-1.329 0.005-2.659-0.003-3.988 0.005-0.009-0.21-0.022-0.419-0.034-0.628-0.655 0.134-1.17 0.716-1.877 0.626-0.705 0.050-1.184-0.7-1.898-0.578-0.569 0.107-1.007 0.639-1.624 0.575-0.618 0.057-1.051-0.485-1.626-0.576-0.712-0.107-1.191 0.64-1.898 0.58-0.696 0.076-1.209-0.484-1.85-0.637-0.016 0.21-0.027 0.422-0.037 0.633-1.33 0-2.66 0.003-3.991-0.001 0.724-1.279 1.451-2.557 2.176-3.837 0.606-0.003 1.214-0.004 1.821-0.004-0.362-0.367-0.725-0.731-1.092-1.094 2.541-2.538 5.071-5.090 7.619-7.623M8.176 18.997c-0.011 0.206-0.019 0.414-0.027 0.621 0.789-0.024 1.341 0.843 2.144 0.597 0.496-0.202 0.929-0.628 1.505-0.567 0.569-0.054 0.997 0.367 1.489 0.564 0.767 0.237 1.275-0.656 2.034-0.564 0.805-0.119 1.346 0.841 2.159 0.567 0.495-0.22 0.938-0.579 1.506-0.593-0.005-0.209-0.012-0.418-0.022-0.625-0.796 0.222-1.534 0.949-2.409 0.537-0.595-0.37-1.36-0.759-1.993-0.222-0.692 0.537-1.616 0.328-2.271-0.155-0.824-0.476-1.448 0.518-2.254 0.483-0.704 0.083-1.204-0.518-1.86-0.643z"></path>
</svg>
