<svg xmlns="http://www.w3.org/2000/svg" width="24" height="24">
    <path fill="#d8b02b" opacity=".85" d="M11.705 0h.557c.502.221.851.653 1.231 1.027l9.42 9.419c.394.4.844.767 1.087 1.284v.458c-.181.545-.655.896-1.039 1.292l-9.54 9.54c-.372.365-.71.804-1.222.979h-.444c-.512-.212-.857-.658-1.242-1.033l-9.48-9.479c-.371-.374-.791-.72-1.033-1.2v-.574c.236-.518.692-.876 1.08-1.274l9.421-9.42c.373-.37.721-.786 1.204-1.02zm.109.306c-.233.047-.401.226-.568.38C7.692 4.252 4.124 7.807.57 11.372a.828.828 0 0 0 .006 1.247c3.601 3.602 7.206 7.202 10.807 10.802.312.366.917.358 1.228-.005l10.807-10.805a.833.833 0 0 0 .007-1.23C19.85 7.793 16.26 4.219 12.685.631c-.221-.235-.542-.414-.871-.326z"/>
    <path d="M11.814.306c.329-.088.65.091.871.326 3.575 3.588 7.165 7.162 10.74 10.75a.833.833 0 0 1-.007 1.23L12.611 23.417c-.311.362-.916.371-1.228.005-3.601-3.6-7.206-7.2-10.807-10.802a.828.828 0 0 1-.006-1.247C4.124 7.808 7.692 4.253 11.246.687c.167-.155.335-.334.568-.38zm.092.438c-.301.166-.516.446-.762.68C7.744 4.828 4.339 8.226.94 11.629c-.218.166-.286.492-.043.672 3.601 3.6 7.196 7.208 10.801 10.805a.381.381 0 0 0 .595-.008c3.601-3.6 7.206-7.2 10.801-10.807.233-.176.163-.496-.047-.656-3.539-3.542-7.084-7.08-10.621-10.624-.148-.127-.301-.318-.521-.266z"/>
    <path d="M8.023 6.586l.347.019c.256.446.5.898.775 1.333.016-.446.013-.893.012-1.338.085-.004.256-.01.341-.012.005.738.008 1.476-.002 2.213-.658-.13-.708-1.009-1.122-1.457-.012.473-.01.944-.008 1.417l-.342.011c-.005-.73-.005-1.458 0-2.186zM10.367 6.66c1.48-.695 1.585 2.59.086 2.095-.648-.433-.642-1.586-.086-2.095zm.209.29c-.347.373-.354 1.093-.005 1.47.824.244.838-1.71.005-1.47zM11.789 6.612c.432.089 1.331-.31 1.379.275l-.522.017c-.001.624.004 1.249-.005 1.874l-.343-.029c.005-.616.005-1.23.001-1.844l-.491-.017-.019-.276zM14.75 6.584l.336.019c.247.722.499 1.442.743 2.165h-.358l-.228-.611c-.227.002-.452.007-.679.011l-.194.584-.374.02c.245-.732.496-1.462.755-2.189zm-.061 1.22c.109.001.328.004.438.004l-.2-.571c-.082.188-.16.378-.238.568zM14.846 11.12c.169-.677 1.218-.649 1.385.018-.342.18-.653-.374-.954-.07-.258.391-.264.984-.007 1.376.278.217.595-.04.646-.335a33.832 33.832 0 0 1-.439-.036l.001-.329.749-.001c.043.45-.052 1.098-.624 1.121-.9.073-.996-1.126-.756-1.745zM5.303 10.66c.448-.006.895-.006 1.343-.001v.294l-.503.014c-.001.623.004 1.246-.002 1.867l-.342-.005c.001-.612-.004-1.225.008-1.837-.169-.026-.341-.028-.509-.054l.005-.278zM6.967 10.656h.338l.006.874c.263-.002.526-.006.79-.01 0-.289 0-.577.002-.864h.338c.005.726.005 1.451 0 2.177-.084.001-.253.002-.337.004-.004-.318-.004-.636-.004-.953-.264-.001-.527-.004-.791-.004-.001.317-.002.635-.005.953-.084.001-.252.004-.337.004-.007-.727-.005-1.453-.001-2.18zM8.964 10.656c.46.037 1.151-.16 1.38.382.164.314-.107.587-.246.845.089.326.229.635.341.954l-.367-.005c-.12-.317-.24-.632-.356-.95l-.407-.002c-.002.316-.002.63-.001.946l-.341.013c-.008-.727-.006-1.454-.002-2.182zm.343.331v.546c.223-.005.448-.017.671-.022.263-.479-.312-.57-.671-.524zM11.191 10.699c.996-.43 1.312.95 1.019 1.644-.11.614-1.066.72-1.294.138-.233-.56-.259-1.387.275-1.782zm.353.271c-.667.098-.599 1.77.185 1.493.319-.388.384-1.326-.185-1.493zM12.788 10.656h.34c.024.536-.049 1.081.043 1.613.09.354.662.318.719-.037.071-.522.016-1.051.034-1.576l.341.001c-.022.58.066 1.174-.062 1.744-.178.587-1.11.616-1.336.053-.158-.583-.054-1.2-.078-1.798zM16.693 10.656h.338c.004.292.005.582.01.874l.786-.008c.001-.288.001-.577.004-.865h.338c.005.728.007 1.456-.001 2.184h-.336c-.004-.319-.005-.638-.004-.956-.264-.002-.527-.004-.79-.004l-.007.956a37.859 37.859 0 0 0-.337-.002c-.005-.726-.004-1.452-.001-2.178zM7.072 15.24c.006-.714 1.078-.722 1.316-.138l-.239.095c-.229-.179-.817-.307-.732.157.242.193.568.233.824.402.404.326.217 1.096-.316 1.157-.427.11-.785-.2-.965-.556.386-.236.772.539 1.097.064.236-.688-1.087-.461-.986-1.181zM8.634 14.714c.449-.005.896-.005 1.345 0l-.001.294-.502.014c-.004.624.004 1.247-.006 1.871a37.635 37.635 0 0 0-.335-.002c-.008-.623-.001-1.246-.007-1.868l-.494-.014v-.294zM10.3 14.713c.455.036 1.136-.158 1.373.367.168.31-.059.611-.259.833.119.326.24.653.356.98l-.361-.005c-.121-.318-.242-.635-.36-.953h-.404l-.006.953-.334.002c-.014-.726-.007-1.453-.005-2.178zm.336.346c.002.178.006.356.011.535.269-.025.77.091.743-.332-.122-.3-.5-.175-.754-.203zM12.143 14.716c.427-.006.856-.006 1.283 0l.002.336c-.312.004-.625.005-.937.005l-.01.521c.214.004.426.01.64.013a38.56 38.56 0 0 1-.006.343c-.21.001-.419.005-.629.006l.001.595c.337.001.674.001 1.012.004.071.655-.931.235-1.356.348-.002-.724-.001-1.447 0-2.171zM13.862 14.714c.427-.005.853-.004 1.28.001l.001.337-.936.005-.01.512c.215.011.43.022.644.035v.319c-.214.008-.427.019-.641.029l.002.58 1.008.007v.347c-.445.001-.889.001-1.333.01-.04-.727-.012-1.454-.017-2.182zM15.355 14.722a35.15 35.15 0 0 1 1.378-.007c-.001.073-.002.22-.004.293l-.503.018c.001.622.008 1.244-.006 1.867l-.335-.005c-.004-.616.001-1.231-.002-1.847-.23-.04-.588.032-.528-.319z"/>
    <path fill="#ffd033" d="M11.906.744c.22-.052.373.139.521.266 3.538 3.544 7.082 7.081 10.621 10.624.21.161.28.48.047.656-3.595 3.607-7.2 7.207-10.801 10.807a.38.38 0 0 1-.595.008C8.094 19.509 4.499 15.9.898 12.3c-.242-.18-.175-.506.043-.672 3.398-3.403 6.804-6.8 10.204-10.205.246-.234.461-.515.762-.68zM8.023 6.586c-.005.728-.005 1.457 0 2.186l.342-.011c-.001-.473-.004-.944.008-1.417.414.448.464 1.327 1.122 1.457.011-.737.007-1.475.002-2.213-.085.002-.256.008-.341.012.001.445.004.892-.012 1.338-.275-.436-.52-.887-.775-1.333l-.347-.019zm2.344.074c-.556.509-.562 1.662.086 2.095 1.499.494 1.393-2.79-.086-2.095zm1.422-.048l.019.276.491.017c.004.614.004 1.229-.001 1.844l.343.029c.008-.625.004-1.25.005-1.874l.522-.017c-.048-.584-.947-.186-1.379-.275zm2.961-.028c-.259.727-.51 1.457-.755 2.189l.374-.02.194-.584.679-.011.228.611h.358c-.244-.722-.496-1.442-.743-2.165l-.336-.019zm.096 4.536c-.24.619-.144 1.818.756 1.745.572-.023.667-.671.624-1.121l-.749.001-.001.329.439.036c-.05.295-.367.552-.646.335-.257-.392-.251-.985.007-1.376.301-.305.612.25.954.07-.167-.667-1.216-.695-1.385-.018zm-9.543-.46l-.005.278c.168.026.34.028.509.054-.012.612-.007 1.225-.008 1.837l.342.005c.006-.622.001-1.244.002-1.867l.503-.014v-.294a54.658 54.658 0 0 0-1.343.001zm1.664-.004c-.004.727-.006 1.453.001 2.18.085 0 .253-.002.337-.004l.005-.953c.264 0 .527.002.791.004 0 .317 0 .635.004.953.084-.001.253-.002.337-.004.005-.726.005-1.451 0-2.177h-.338c-.002.287-.002.575-.002.864l-.79.01-.006-.874h-.338zm1.997 0c-.004.727-.006 1.454.002 2.182l.341-.013c-.001-.316-.001-.63.001-.946l.407.002c.116.318.236.634.356.95l.367.005c-.112-.319-.252-.628-.341-.954.139-.258.41-.53.246-.845-.229-.541-.92-.344-1.38-.382zm2.227.043c-.534.395-.508 1.222-.275 1.782.228.582 1.183.476 1.294-.138.293-.694-.023-2.074-1.019-1.644zm1.597-.043c.024.598-.08 1.214.078 1.798.226.563 1.158.534 1.336-.053.128-.57.041-1.164.062-1.744l-.341-.001c-.018.524.037 1.054-.034 1.576-.056.355-.629.391-.719.037-.092-.532-.019-1.076-.043-1.613h-.34zm3.905 0c-.002.726-.004 1.452.001 2.178l.337.002c.004-.319.005-.638.007-.956.263 0 .526.001.79.004-.001.318 0 .637.004.956h.336c.008-.728.006-1.456.001-2.184h-.338l-.004.865c-.263.004-.524.006-.786.008-.005-.292-.006-.582-.01-.874h-.338zM7.072 15.24c-.101.72 1.223.493.986 1.181-.325.475-.71-.3-1.097-.064.18.355.538.666.965.556.533-.061.72-.83.316-1.157-.257-.169-.582-.209-.824-.402-.085-.464.503-.336.732-.157l.239-.095c-.239-.584-1.31-.576-1.316.138zm1.562-.526v.294l.494.014c.006.623-.001 1.246.007 1.868l.335.002c.01-.624.002-1.247.006-1.871l.502-.014.001-.294a60.303 60.303 0 0 0-1.345 0zm1.666-.001c-.002.725-.01 1.452.005 2.178l.334-.002.006-.953h.404c.118.318.239.635.36.953l.361.005c-.116-.328-.238-.654-.356-.98.2-.222.427-.523.259-.833-.236-.526-.918-.331-1.373-.367zm1.843.003c-.001.724-.002 1.447 0 2.171.425-.113 1.427.307 1.356-.348l-1.012-.004-.001-.595c.21-.001.419-.005.629-.006l.006-.343c-.214-.004-.426-.01-.64-.013l.01-.521c.312 0 .625-.001.937-.005l-.002-.336a45.727 45.727 0 0 0-1.283 0zm1.719-.002c.005.727-.023 1.454.017 2.182.444-.008.888-.008 1.333-.01v-.347l-1.008-.007-.002-.58.641-.029v-.319c-.215-.013-.43-.024-.644-.035l.01-.512c.312-.001.624-.002.936-.005l-.001-.337a54.615 54.615 0 0 0-1.28-.001zm1.493.008c-.06.352.298.28.528.319.004.616-.001 1.231.002 1.847l.335.005c.014-.623.007-1.246.006-1.867l.503-.018c.001-.073.002-.22.004-.293a35.16 35.16 0 0 0-1.378.007z"/>
    <path fill="#ffd033" d="M10.576 6.95c.833-.24.82 1.714-.005 1.47-.349-.377-.342-1.097.005-1.47zM14.689 7.804c.078-.19.156-.379.238-.568l.2.571c-.11 0-.329-.002-.438-.004zM11.544 10.97c.569.167.504 1.105.185 1.493-.784.277-.852-1.394-.185-1.493zM9.307 10.987c.359-.046.934.046.671.524-.223.005-.448.017-.671.022v-.546zM10.636 15.059c.253.028.631-.097.754.203.028.424-.474.307-.743.332-.005-.179-.008-.358-.011-.535z"/>
</svg>
