<svg xmlns="http://www.w3.org/2000/svg" width="24" height="24">
    <path fill="#ffd033" d="M11.698 0h.528c.289.139.56.318.786.546 3.494 3.506 7.003 7 10.498 10.506.528.456.552 1.327.024 1.793-3.563 3.562-7.127 7.123-10.687 10.687-.439.499-1.272.527-1.727.034-3.325-3.317-6.641-6.642-9.964-9.961C.738 13.186.272 12.796 0 12.26v-.532c.223-.598.743-.992 1.172-1.434 3.262-3.26 6.523-6.52 9.781-9.784.216-.212.472-.379.744-.51zm-.129.422c-.342.202-.595.516-.877.79C7.355 4.555 4.009 7.891.673 11.234c-.431.362-.452 1.061-.024 1.433 3.54 3.541 7.084 7.081 10.627 10.62.342.394.996.412 1.349.024 3.55-3.535 7.087-7.081 10.632-10.62.421-.359.451-1.045.032-1.418C19.775 7.745 16.247 4.23 12.729.707c-.283-.319-.761-.494-1.16-.284z"/>
    <path fill="#ffd033" d="M11.696.901c.262-.222.577-.008.764.197 3.474 3.487 6.965 6.96 10.439 10.445.266.206.298.602.022.815-3.542 3.539-7.074 7.09-10.625 10.619-.278.312-.67.059-.877-.194C7.95 19.291 4.458 15.822.987 12.332c-.29-.228-.184-.624.074-.826C4.612 7.977 8.124 4.406 11.695.902zm-1.198 2.604c.001 2.221.002 4.442-.001 6.665.977-.966 1.948-1.938 2.934-2.893.01-1.258.001-2.515.002-3.773-.978.001-1.957-.001-2.935.001zm3.276 4.179c.179.193.358.385.54.576l-.536.54a74.007 74.007 0 0 0-.576-.544c-.184.184-.367.366-.552.547l.554.559c-.176.18-.352.36-.526.541a41.838 41.838 0 0 0-.57-.546l-.554.55.562.556c-.187.187-.374.374-.56.563l-.56-.559c-.186.185-.371.37-.558.554.184.192.37.382.554.572l-.55.541a98.329 98.329 0 0 0-.564-.556c-.18.184-.36.367-.539.552l.546.539c-.184.185-.364.374-.538.57-.192-.182-.383-.365-.576-.546l-.542.534.552.566-.542.551a296.73 296.73 0 0 1-.564-.56 94.38 94.38 0 0 1-.551.547c.185.19.372.377.559.564l-.552.554c.06.07.182.208.244.276l.577-.56.826.822c-.182.187-.366.373-.55.56l.248.277c.187-.185.376-.368.565-.551l.566.544.547-.542c-.185-.19-.371-.377-.556-.565l.551-.548.559.56c.182-.186.366-.371.55-.554-.186-.187-.372-.374-.557-.563.186-.184.372-.368.557-.554l.56.558c.184-.185.368-.368.553-.551l-.559-.565.55-.548.564.56.551-.558-.554-.572c.192-.176.383-.354.57-.536.18.185.361.37.542.553l.56-.557-.562-.564c.168-.17.334-.344.516-.5.24.115.403.34.594.517.181-.185.362-.37.546-.552l-.557-.562c.185-.184.37-.367.553-.552l.575.554c.181-.187.365-.373.548-.559a73.823 73.823 0 0 1-.557-.564l.538-.527c-.066-.068-.197-.208-.263-.277l-.556.533c-.276-.272-.55-.547-.823-.821l.535-.541a60.355 60.355 0 0 0-.247-.269l-.557.538c-.187-.182-.374-.366-.563-.548l-.544.544zm-3.279 8.972c.007 1.25.002 2.501.006 3.751h2.934c0-2.219.002-4.438-.001-6.656a335.59 335.59 0 0 0-2.939 2.905z"/>
    <path fill="#ffd033" d="M14.027 9.059c.193-.18.385-.36.576-.541l.82.829-.56.566a39.536 39.536 0 0 1-.835-.854zM12.937 10.171l.535-.546c.28.277.557.557.836.835l-.538.551c-.278-.28-.557-.559-.834-.84zM11.821 11.291l.558-.56c.276.275.55.551.827.824-.182.188-.366.377-.547.566-.283-.274-.56-.552-.838-.83zM10.706 12.39c.186-.179.371-.359.556-.54.275.28.552.556.827.835l-.548.54c-.278-.277-.557-.556-.834-.835zM9.602 13.494c.188-.181.376-.365.562-.55.272.282.55.559.824.839l-.554.553c-.28-.278-.557-.559-.832-.842zM9.043 14.058c.283.272.56.551.84.828l-.552.556-.826-.83.538-.553z"/>
    <path d="M11.569.422c.4-.21.877-.035 1.16.284 3.518 3.523 7.046 7.038 10.56 10.566.419.373.389 1.06-.032 1.418-3.545 3.539-7.082 7.085-10.632 10.62-.353.388-1.007.37-1.349-.024-3.544-3.539-7.087-7.079-10.627-10.62-.428-.372-.407-1.07.024-1.433C4.009 7.89 7.355 4.554 10.692 1.211c.282-.274.535-.588.877-.79zm.127.479C8.125 4.405 4.612 7.976 1.062 11.505c-.258.202-.365.598-.074.826 3.47 3.49 6.962 6.959 10.432 10.451.208.253.599.506.877.194 3.551-3.529 7.082-7.08 10.625-10.619.276-.212.245-.608-.022-.815-3.474-3.485-6.965-6.958-10.439-10.445-.187-.205-.503-.419-.764-.197z"/>
    <path d="M10.498 3.505c.978-.002 1.957 0 2.935-.001-.001 1.258.007 2.515-.002 3.773-.986.955-1.957 1.927-2.934 2.893.004-2.222.002-4.444.001-6.665zM13.774 7.684l.544-.544.563.548.557-.538.247.269-.535.541c.274.274.547.548.823.821.186-.176.371-.355.556-.533.066.07.197.209.263.277l-.538.527c.184.188.37.377.557.564-.184.186-.367.372-.548.559-.192-.185-.383-.371-.575-.554l-.553.552.557.562c-.184.182-.365.367-.546.552-.191-.178-.354-.402-.594-.517-.182.156-.348.33-.516.5l.562.564-.56.557-.542-.553c-.187.182-.378.36-.57.536l.554.572-.551.558-.564-.56c-.182.184-.366.366-.55.548l.559.565c-.185.182-.37.366-.553.551a295.14 295.14 0 0 0-.56-.558c-.185.186-.371.371-.557.554l.557.563c-.184.184-.367.368-.55.554l-.559-.56-.551.548.556.565-.547.542c-.19-.181-.378-.362-.566-.544-.19.182-.378.366-.565.551l-.248-.277.55-.56-.826-.822-.577.56a21.813 21.813 0 0 1-.244-.276c.184-.185.367-.37.552-.554-.187-.187-.374-.374-.559-.564.184-.181.367-.364.551-.547l.564.56.542-.551-.552-.566.542-.534c.193.181.384.364.576.546.174-.196.354-.385.538-.57l-.546-.539c.179-.185.359-.368.539-.552.188.184.377.37.564.556l.55-.541c-.185-.191-.371-.38-.554-.572l.558-.554.56.559.56-.563-.562-.556c.185-.182.37-.366.554-.55.191.18.382.362.57.546.174-.181.349-.361.526-.541-.185-.186-.371-.372-.554-.559.185-.181.368-.364.552-.547.193.18.385.361.576.544l.536-.54a58.427 58.427 0 0 1-.54-.576zm.253 1.375c.274.29.553.572.835.854.186-.19.373-.378.56-.566-.272-.277-.546-.553-.82-.829-.191.181-.383.361-.576.541zm-1.09 1.112c.277.281.556.56.834.84l.538-.551c-.28-.278-.557-.558-.836-.835l-.535.546zm-1.116 1.12c.277.278.554.557.838.83.181-.19.365-.378.547-.566-.277-.274-.551-.55-.827-.824l-.558.56zm-1.115 1.099c.277.28.556.558.834.835l.548-.54c-.275-.28-.552-.556-.827-.835-.185.181-.37.361-.556.54zm-1.104 1.104c.275.283.552.564.832.842l.554-.553c-.275-.28-.552-.557-.824-.839-.186.185-.373.368-.562.55zm-.559.564l-.538.553.826.83.552-.556c-.28-.277-.557-.556-.84-.828zM10.495 16.656c.972-.976 1.954-1.942 2.939-2.905.004 2.219.001 4.438.001 6.656h-2.934c-.004-1.25.001-2.501-.006-3.751z"/>
</svg>
