<?xml version="1.0" encoding="utf-8"?>
<!-- Generated by IcoMoon.io -->
<!DOCTYPE svg PUBLIC "-//W3C//DTD SVG 1.1//EN" "http://www.w3.org/Graphics/SVG/1.1/DTD/svg11.dtd">
<svg version="1.1" xmlns="http://www.w3.org/2000/svg" xmlns:xlink="http://www.w3.org/1999/xlink" width="24" height="24" viewBox="0 0 24 24">
<path fill="#ed1c24" d="M11.77 1.56h0.456c0.241 0.246 0.424 0.54 0.586 0.842 3.72 6.472 7.481 12.92 11.189 19.399v0.44c-0.148-0.031-0.221 0.035-0.22 0.198h-23.572c0.008-0.166-0.061-0.233-0.209-0.202v-0.436c3.695-6.448 7.434-12.87 11.141-19.312 0.176-0.331 0.372-0.655 0.629-0.931M11.996 5.18c-2.933 5.068-5.861 10.139-8.786 15.21 5.861 0.002 11.722 0.002 17.582 0.001-2.93-5.072-5.86-10.144-8.796-15.211z"></path>
<path fill="#fff" d="M11.996 5.18c2.936 5.068 5.866 10.139 8.796 15.211-5.861 0.001-11.722 0.001-17.582-0.001 2.926-5.071 5.854-10.142 8.786-15.21M12.688 10.304c0.11 0 0.33-0.001 0.44-0.001 0.029 0.895-0.064 1.796 0.058 2.687-0.898-0.545-2.090-0.524-3.016-0.061-0.886 0.468-1.261 1.504-1.277 2.456-0.102-0.001-0.304-0.001-0.404-0.002 0.202 0.594 0.401 1.189 0.602 1.783 0.202-0.594 0.401-1.189 0.602-1.782-0.157 0-0.314 0-0.472 0 0.046-0.528 0.122-1.079 0.43-1.528 0.323-0.514 0.904-0.826 1.498-0.896 0.683-0.096 1.448-0.035 1.998 0.424 0.61 0.499 0.815 1.34 0.772 2.099 0.010 0.892-0.73 1.548-0.82 2.42-0.046 0.654-0.004 1.313-0.018 1.968 0.084 0.001 0.251 0.002 0.335 0.002 0.007-0.586-0.010-1.172 0.004-1.758 0.026-0.634 0.389-1.176 0.655-1.729 0.307-0.863 0.236-1.86-0.203-2.666-0.185-0.39-0.406-0.787-0.408-1.23-0.007-0.728 0.002-1.457-0.001-2.185 0.142-0.001 0.284-0.001 0.427-0.001-0.2-0.593-0.398-1.187-0.601-1.778-0.204 0.592-0.402 1.186-0.601 1.78M11.384 8.904c-0.001 0.203-0.001 0.404 0 0.607 0.083 0 0.25 0.001 0.334 0.002 0-0.204 0.001-0.407 0.001-0.61-0.084 0-0.251 0-0.335 0M11.384 10.176c0 0.224 0 0.448-0.001 0.672 0.084 0 0.252 0 0.336 0-0.001-0.224-0.001-0.448 0-0.672-0.084 0-0.252 0-0.335 0M11.384 11.52c0 0.221 0 0.443 0 0.664 0.083 0 0.251 0 0.334 0.001 0-0.222 0-0.444 0.001-0.665-0.084 0-0.252 0-0.335 0M11.069 14.183c-0.458 0.193-0.766 0.695-0.726 1.193 0.024 0.648 0.641 1.194 1.29 1.135 0.733-0.019 1.307-0.799 1.106-1.505-0.154-0.713-1.009-1.133-1.67-0.823M11.384 17.84c0 0.223 0 0.448 0 0.671 0.083 0 0.251 0.001 0.335 0.001-0.001-0.224-0.001-0.449 0-0.673-0.084 0.001-0.252 0.001-0.335 0.001M11.384 19.184c0 0.221 0 0.442-0.001 0.664 0.084 0 0.252 0 0.336 0-0.001-0.222-0.001-0.443 0-0.664-0.084 0-0.252 0-0.335 0z"></path>
<path fill="#000" d="M12.688 10.304c0.199-0.594 0.397-1.188 0.601-1.78 0.203 0.592 0.401 1.186 0.601 1.778-0.143 0-0.286 0-0.427 0.001 0.004 0.728-0.006 1.457 0.001 2.185 0.002 0.443 0.223 0.84 0.408 1.23 0.439 0.806 0.51 1.804 0.203 2.666-0.266 0.553-0.629 1.096-0.655 1.729-0.013 0.586 0.004 1.172-0.004 1.758-0.084 0-0.251-0.001-0.335-0.002 0.014-0.655-0.028-1.314 0.018-1.968 0.090-0.872 0.829-1.529 0.82-2.42 0.043-0.758-0.162-1.6-0.772-2.099-0.55-0.458-1.315-0.52-1.998-0.424-0.594 0.071-1.175 0.383-1.498 0.896-0.307 0.449-0.384 1-0.43 1.528 0.157 0 0.314 0 0.472 0-0.202 0.593-0.401 1.188-0.602 1.782-0.202-0.594-0.401-1.189-0.602-1.783 0.101 0.001 0.302 0.001 0.404 0.002 0.016-0.953 0.391-1.988 1.277-2.456 0.925-0.463 2.118-0.484 3.016 0.061-0.121-0.89-0.029-1.792-0.058-2.687-0.11 0-0.33 0.001-0.44 0.001z"></path>
<path fill="#000" d="M11.384 8.904c0.084 0 0.251 0 0.335 0 0 0.203-0.001 0.406-0.001 0.61-0.084-0.001-0.251-0.002-0.334-0.002-0.001-0.203-0.001-0.404 0-0.607z"></path>
<path fill="#000" d="M11.384 10.176c0.083 0 0.251 0 0.335 0-0.001 0.224-0.001 0.448 0 0.672-0.084 0-0.252 0-0.336 0 0.001-0.224 0.001-0.448 0.001-0.672z"></path>
<path fill="#000" d="M11.384 11.52c0.083 0 0.251 0 0.335 0-0.001 0.221-0.001 0.443-0.001 0.665-0.083-0.001-0.251-0.001-0.334-0.001 0-0.221 0-0.443 0-0.664z"></path>
<path fill="#000" d="M11.069 14.183c0.661-0.31 1.517 0.11 1.67 0.823 0.2 0.706-0.373 1.486-1.106 1.505-0.649 0.059-1.266-0.487-1.29-1.135-0.040-0.498 0.268-1 0.726-1.193z"></path>
<path fill="#000" d="M11.384 17.84c0.083 0 0.251 0 0.335-0.001-0.001 0.224-0.001 0.449 0 0.673-0.084 0-0.252-0.001-0.335-0.001 0-0.223 0-0.448 0-0.671z"></path>
<path fill="#000" d="M11.384 19.184c0.083 0 0.251 0 0.335 0-0.001 0.221-0.001 0.442 0 0.664-0.084 0-0.252 0-0.336 0 0.001-0.222 0.001-0.443 0.001-0.664z"></path>
</svg>
