<!-- Generated by IcoMoon.io -->
<svg version="1.1" xmlns="http://www.w3.org/2000/svg" width="24" height="24" viewBox="0 0 24 24">
<title>warning--double-reverse-curve-left--g2</title>
<path fill="#ef7c23" d="M11.747 0h0.494c0.258 0.127 0.502 0.284 0.707 0.486 3.3 3.302 6.602 6.602 9.904 9.904 0.412 0.419 0.882 0.802 1.148 1.338v0.503c-0.223 0.542-0.697 0.906-1.094 1.314-3.12 3.12-6.241 6.24-9.361 9.36-0.397 0.394-0.763 0.836-1.27 1.096h-0.496c-0.551-0.215-0.913-0.697-1.324-1.094-3.101-3.101-6.2-6.2-9.301-9.3-0.41-0.422-0.889-0.799-1.154-1.339v-0.502c0.222-0.541 0.69-0.91 1.088-1.316 3.322-3.322 6.644-6.64 9.962-9.964 0.203-0.2 0.443-0.355 0.696-0.485M11.674 0.384c-0.155 0.080-0.283 0.199-0.409 0.318-3.556 3.566-7.127 7.12-10.68 10.688-0.36 0.314-0.361 0.907 0.008 1.214 3.601 3.6 7.201 7.202 10.8 10.806 0.311 0.365 0.904 0.365 1.213-0.002 3.599-3.602 7.2-7.204 10.801-10.804 0.368-0.307 0.367-0.9 0.008-1.214-3.574-3.589-7.164-7.164-10.745-10.746-0.246-0.269-0.649-0.445-0.997-0.26z"></path>
<path fill="#ef7c23" d="M11.437 1.236c0.218-0.198 0.527-0.635 0.816-0.293 3.576 3.544 7.122 7.121 10.691 10.673 0.19 0.155 0.361 0.448 0.107 0.634-3.595 3.605-7.198 7.206-10.8 10.804-0.222 0.282-0.52 0.018-0.688-0.175-3.589-3.642-7.266-7.201-10.817-10.878 3.488-3.656 7.145-7.16 10.691-10.764M7.315 7.914c0.174 0.547 0.959 0.098 1.366 0.056 0.014 0.504 0.016 1.009-0.007 1.513-0.988 0.414-2.002 0.947-2.58 1.889-0.586 0.918-0.557 2.108-0.15 3.090 0.546 1.018 1.558 1.645 2.386 2.407 0.648 0.631 0.436 1.608 0.45 2.418 0.47 0.004 0.94 0.004 1.409 0-0.036-0.834 0.097-1.687-0.078-2.509-0.436-1.285-2.090-1.442-2.684-2.611-0.431-0.686-0.379-1.634 0.178-2.237 0.63-0.811 1.854-0.923 2.359-1.849 0.209-0.67 0.091-1.391 0.156-2.082 0.408 0.044 1.398 0.526 1.361-0.162-0.617-1.243-1.258-2.497-2.074-3.625-0.77 1.188-1.498 2.42-2.090 3.702M12.898 7.132c-0.166 0.325-0.448 0.656-0.324 1.045 0.45 0.008 0.89-0.083 1.322-0.2-0.004 0.49 0.038 0.984-0.022 1.471-0.749 0.424-1.595 0.732-2.171 1.409-0.96 0.968-1.073 2.536-0.484 3.725 0.562 0.94 1.502 1.546 2.297 2.264 0.672 0.63 0.46 1.622 0.476 2.442 0.468 0.004 0.936 0.004 1.404 0-0.040-0.852 0.11-1.728-0.096-2.563-0.462-1.224-2.033-1.397-2.639-2.51-0.446-0.683-0.425-1.646 0.133-2.261 0.622-0.818 1.826-0.936 2.359-1.835 0.239-0.674 0.103-1.415 0.176-2.117 0.434 0.062 0.893 0.306 1.326 0.134 0.15-0.258-0.067-0.511-0.167-0.743-0.604-1.069-1.138-2.186-1.86-3.184-0.667 0.918-1.165 1.943-1.733 2.922z"></path>
<path fill="#030303" d="M11.674 0.384c0.348-0.185 0.751-0.008 0.997 0.26 3.581 3.582 7.171 7.157 10.745 10.746 0.359 0.314 0.36 0.907-0.008 1.214-3.601 3.6-7.202 7.201-10.801 10.804-0.31 0.367-0.902 0.367-1.213 0.002-3.599-3.604-7.199-7.206-10.8-10.806-0.37-0.307-0.368-0.9-0.008-1.214 3.553-3.569 7.124-7.122 10.68-10.688 0.126-0.119 0.254-0.238 0.409-0.318M11.437 1.236c-3.546 3.604-7.202 7.108-10.691 10.764 3.551 3.677 7.228 7.236 10.817 10.878 0.168 0.193 0.466 0.457 0.688 0.175 3.602-3.598 7.205-7.199 10.8-10.804 0.254-0.186 0.083-0.479-0.107-0.634-3.569-3.552-7.115-7.129-10.691-10.673-0.289-0.342-0.598 0.095-0.816 0.293z"></path>
<path fill="#030303" d="M7.315 7.914c0.593-1.282 1.32-2.514 2.090-3.702 0.816 1.128 1.457 2.382 2.074 3.625 0.037 0.688-0.953 0.206-1.361 0.162-0.065 0.691 0.053 1.412-0.156 2.082-0.505 0.926-1.729 1.038-2.359 1.849-0.557 0.602-0.608 1.55-0.178 2.237 0.594 1.169 2.249 1.326 2.684 2.611 0.175 0.822 0.042 1.675 0.078 2.509-0.469 0.004-0.938 0.004-1.409 0-0.014-0.81 0.198-1.787-0.45-2.418-0.828-0.762-1.84-1.39-2.386-2.407-0.407-0.982-0.436-2.172 0.15-3.090 0.578-0.942 1.592-1.475 2.58-1.889 0.023-0.504 0.022-1.009 0.007-1.513-0.407 0.042-1.192 0.491-1.366-0.056z"></path>
<path fill="#030303" d="M12.898 7.132c0.568-0.979 1.066-2.004 1.733-2.922 0.722 0.997 1.256 2.114 1.86 3.184 0.1 0.232 0.317 0.485 0.167 0.743-0.433 0.172-0.892-0.072-1.326-0.134-0.073 0.702 0.062 1.442-0.176 2.117-0.533 0.899-1.738 1.016-2.359 1.835-0.558 0.614-0.58 1.578-0.133 2.261 0.606 1.114 2.177 1.286 2.639 2.51 0.206 0.835 0.056 1.711 0.096 2.563-0.468 0.004-0.936 0.004-1.404 0-0.017-0.82 0.196-1.812-0.476-2.442-0.794-0.719-1.735-1.325-2.297-2.264-0.589-1.189-0.476-2.756 0.484-3.725 0.576-0.677 1.422-0.985 2.171-1.409 0.060-0.487 0.018-0.982 0.022-1.471-0.432 0.118-0.872 0.209-1.322 0.2-0.124-0.389 0.158-0.72 0.324-1.045z"></path>
</svg>
