<!-- Generated by IcoMoon.io -->
<svg version="1.1" xmlns="http://www.w3.org/2000/svg" width="24" height="24" viewBox="0 0 24 24">
<title>warning--detour-or-construction-ahead--g1</title>
<path fill="#ef7c23" d="M11.753 0h0.449c0.254 0.087 0.491 0.223 0.678 0.418 3.381 3.386 6.767 6.768 10.149 10.153 0.359 0.368 0.79 0.701 0.971 1.201v0.425c-0.087 0.228-0.197 0.452-0.373 0.626-3.418 3.416-6.835 6.834-10.252 10.252-0.35 0.347-0.675 0.754-1.156 0.925h-0.421c-0.251-0.093-0.486-0.229-0.673-0.423-3.396-3.405-6.8-6.801-10.198-10.203-0.345-0.352-0.759-0.671-0.927-1.153v-0.427c0.091-0.251 0.228-0.485 0.42-0.672 3.551-3.55 7.101-7.101 10.651-10.653 0.197-0.196 0.43-0.352 0.682-0.469M11.83 0.329c-0.195 0.040-0.351 0.174-0.492 0.306-3.484 3.484-6.966 6.97-10.453 10.451-0.249 0.256-0.587 0.517-0.572 0.914-0.015 0.398 0.332 0.65 0.581 0.906 3.52 3.514 7.034 7.035 10.554 10.55 0.286 0.309 0.817 0.308 1.106 0.001 3.638-3.63 7.267-7.27 10.902-10.904 0.332-0.309 0.293-0.871-0.042-1.162-3.582-3.586-7.165-7.173-10.75-10.757-0.212-0.223-0.52-0.385-0.834-0.305z"></path>
<path fill="#ef7c23" d="M11.924 0.816c0.156-0.046 0.28 0.075 0.385 0.169 3.568 3.569 7.139 7.136 10.705 10.707 0.187 0.14 0.253 0.408 0.041 0.56-3.601 3.601-7.201 7.204-10.804 10.802-0.129 0.172-0.374 0.172-0.502 0-3.604-3.598-7.203-7.201-10.804-10.802-0.206-0.152-0.141-0.421 0.041-0.56 3.448-3.454 6.903-6.901 10.35-10.355 0.189-0.18 0.354-0.396 0.588-0.521M12.012 2.906c-1.436 1.191-2.761 2.514-4.16 3.75-0.16 0.142-0.468 0.424-0.152 0.581 1.054-0.083 2.1-0.257 3.151-0.372 0.013 0.644 0 1.289 0.008 1.933 0.762 0.004 1.525 0.003 2.287 0 0.007-0.648-0.008-1.297 0.002-1.946 1.052 0.114 2.099 0.288 3.154 0.373 0.309-0.163 0.008-0.431-0.151-0.573-1.39-1.237-2.714-2.551-4.139-3.746M2.811 11.004c-0.213 0.613-0.244 1.356 0.041 1.95 0.356 0.517 1.193 0.184 1.154-0.427-0.073-0.002-0.219-0.007-0.291-0.010-0.077 0.249-0.362 0.521-0.586 0.248-0.19-0.512-0.217-1.126 0.009-1.63 0.181-0.251 0.448-0.023 0.578 0.154 0.073-0.003 0.219-0.010 0.293-0.013-0.062-0.586-0.918-0.827-1.198-0.272M4.737 10.737c-0.561 0.45-0.429 1.317-0.331 1.949 0.064 0.575 0.933 0.741 1.179 0.211 0.229-0.55 0.2-1.192 0.060-1.761-0.092-0.388-0.561-0.59-0.908-0.399M6.176 10.706c-0.012 0.817-0.006 1.635-0.004 2.453 0.086 0 0.257-0.001 0.343-0.001 0.004-0.469-0.002-0.938 0.006-1.407 0.228 0.461 0.429 0.935 0.65 1.4 0.109 0.006 0.218 0.012 0.327 0.020 0.036-0.816 0.012-1.634 0.014-2.45-0.084-0.001-0.253-0.002-0.338-0.002-0.010 0.517 0.002 1.034-0.008 1.551-0.256-0.504-0.479-1.023-0.72-1.534-0.067-0.008-0.203-0.023-0.27-0.030M8.016 11.212c-0.145 0.731 1.041 0.669 0.919 1.389-0.097 0.43-0.649 0.256-0.692-0.112-0.108-0.002-0.216-0.005-0.324-0.010 0.027 0.463 0.483 0.89 0.953 0.681 0.616-0.229 0.498-1.136-0.014-1.416-0.198-0.146-0.671-0.298-0.443-0.616 0.175-0.234 0.405 0 0.54 0.143 0.073 0.004 0.217 0.013 0.29 0.017 0.004-0.729-1.159-0.802-1.229-0.076M9.48 10.727c-0.001 0.074-0.005 0.222-0.006 0.296 0.144 0.007 0.289 0.014 0.434 0.021 0.012 0.709-0.006 1.419 0.010 2.128 0.112-0.003 0.224-0.006 0.336-0.008 0.007-0.707-0.002-1.414 0.004-2.121 0.146-0.005 0.292-0.010 0.438-0.016 0.003-0.099 0.006-0.199 0.009-0.298-0.408-0.006-0.817-0.006-1.225-0.002M10.98 10.729c-0.004 0.813-0.015 1.627 0.006 2.44 0.083 0 0.247-0.001 0.329-0.001 0.008-0.384 0.008-0.767 0.013-1.151 0.105 0.006 0.209 0.012 0.314 0.019 0.111 0.374 0.217 0.749 0.326 1.124 0.117 0.003 0.234 0.006 0.351 0.011-0.096-0.392-0.217-0.777-0.323-1.166 0.367-0.298 0.449-0.938 0.025-1.222-0.332-0.111-0.697-0.040-1.041-0.054M12.726 10.71c0.011 0.684-0.045 1.374 0.028 2.054 0.161 0.618 1.142 0.588 1.283-0.028 0.069-0.67 0.012-1.349 0.027-2.022-0.113-0.001-0.226-0.002-0.339-0.004-0.021 0.63 0.021 1.261-0.019 1.89 0.001 0.329-0.519 0.396-0.621 0.093-0.060-0.657-0.005-1.319-0.026-1.978-0.111-0.002-0.222-0.004-0.333-0.005M14.62 11.023c-0.204 0.606-0.229 1.327 0.038 1.916 0.344 0.535 1.222 0.208 1.16-0.42-0.070 0-0.209 0.001-0.279 0.001-0.085 0.243-0.37 0.52-0.594 0.244-0.188-0.51-0.21-1.111 0.001-1.616 0.173-0.268 0.453-0.042 0.588 0.136 0.072 0 0.217 0 0.289 0-0.045-0.605-0.942-0.837-1.203-0.261M15.999 10.727c0 0.073-0.001 0.218-0.001 0.291 0.146 0.012 0.293 0.023 0.439 0.044-0.005 0.701-0.008 1.402 0 2.103 0.111 0.002 0.224 0.003 0.336 0.004 0.012-0.709-0.003-1.418 0.008-2.126 0.148-0.007 0.296-0.013 0.445-0.019-0.002-0.075-0.005-0.223-0.006-0.297-0.407-0.003-0.814-0.003-1.221 0M17.507 10.708c-0.015 0.821-0.016 1.644 0.001 2.466 0.114-0.004 0.228-0.008 0.343-0.012 0.004-0.814 0.002-1.627 0.001-2.441-0.115-0.004-0.23-0.009-0.345-0.013M18.641 10.753c-0.529 0.462-0.395 1.297-0.308 1.919 0.057 0.575 0.919 0.763 1.176 0.236 0.241-0.551 0.214-1.204 0.065-1.777-0.094-0.398-0.589-0.592-0.933-0.378M20.014 10.706c-0.018 0.817-0.005 1.635-0.008 2.452 0.086 0.001 0.257 0.002 0.343 0.002 0.006-0.467-0.001-0.934 0.007-1.401 0.238 0.462 0.428 0.946 0.667 1.407 0.108-0.002 0.216-0.005 0.325-0.007 0.006-0.812 0.003-1.623 0.002-2.434-0.113-0.004-0.226-0.009-0.338-0.013-0.015 0.518 0.001 1.036-0.014 1.554-0.257-0.507-0.477-1.031-0.726-1.541-0.065-0.005-0.193-0.014-0.258-0.019z"></path>
<path fill="#ef7c23" d="M4.931 11.021c0.299-0.091 0.43 0.248 0.448 0.485 0.029 0.414 0.080 0.873-0.123 1.253-0.196 0.275-0.547 0.005-0.541-0.266-0.036-0.479-0.165-1.1 0.216-1.472z"></path>
<path fill="#ef7c23" d="M18.837 11.036c0.524-0.128 0.495 0.624 0.499 0.962 0.020 0.317-0.060 1.068-0.539 0.815-0.285-0.509-0.314-1.295 0.040-1.777z"></path>
<path fill="#ef7c23" d="M11.322 11.063c0.254 0.003 0.709-0.063 0.65 0.328 0.019 0.369-0.406 0.281-0.648 0.296-0.001-0.208-0.002-0.417-0.002-0.624z"></path>
<path fill="#000" d="M11.83 0.329c0.314-0.080 0.622 0.082 0.834 0.305 3.585 3.584 7.168 7.171 10.75 10.757 0.335 0.291 0.374 0.853 0.042 1.162-3.635 3.634-7.264 7.274-10.902 10.904-0.289 0.307-0.82 0.308-1.106-0.001-3.52-3.515-7.034-7.036-10.554-10.55-0.249-0.256-0.596-0.508-0.581-0.906-0.015-0.397 0.323-0.658 0.572-0.914 3.487-3.481 6.969-6.967 10.453-10.451 0.141-0.132 0.297-0.266 0.492-0.306M11.924 0.816c-0.234 0.125-0.399 0.341-0.588 0.521-3.447 3.454-6.902 6.901-10.35 10.355-0.182 0.139-0.247 0.408-0.041 0.56 3.601 3.601 7.2 7.204 10.804 10.802 0.128 0.172 0.373 0.172 0.502 0 3.603-3.598 7.203-7.201 10.804-10.802 0.212-0.152 0.146-0.42-0.041-0.56-3.566-3.571-7.137-7.138-10.705-10.707-0.105-0.094-0.229-0.215-0.385-0.169z"></path>
<path fill="#000" d="M12.012 2.906c1.425 1.195 2.749 2.509 4.139 3.746 0.159 0.142 0.46 0.41 0.151 0.573-1.055-0.085-2.102-0.259-3.154-0.373-0.010 0.649 0.005 1.298-0.002 1.946-0.762 0.003-1.525 0.004-2.287 0-0.008-0.644 0.005-1.289-0.008-1.933-1.051 0.115-2.097 0.289-3.151 0.372-0.316-0.157-0.008-0.439 0.152-0.581 1.399-1.236 2.724-2.559 4.16-3.75z"></path>
<path fill="#000" d="M2.811 11.004c0.28-0.555 1.136-0.314 1.198 0.272-0.074 0.003-0.22 0.010-0.293 0.013-0.13-0.177-0.397-0.405-0.578-0.154-0.226 0.504-0.199 1.118-0.009 1.63 0.224 0.273 0.509 0.001 0.586-0.248 0.072 0.003 0.218 0.008 0.291 0.010 0.039 0.611-0.798 0.944-1.154 0.427-0.285-0.594-0.254-1.337-0.041-1.95z"></path>
<path fill="#000" d="M4.737 10.737c0.347-0.191 0.816 0.011 0.908 0.399 0.14 0.569 0.169 1.211-0.060 1.761-0.246 0.53-1.115 0.364-1.179-0.211-0.098-0.632-0.23-1.499 0.331-1.949M4.931 11.021c-0.381 0.372-0.252 0.993-0.216 1.472-0.006 0.271 0.345 0.541 0.541 0.266 0.203-0.38 0.152-0.839 0.123-1.253-0.018-0.237-0.149-0.576-0.448-0.485z"></path>
<path fill="#000" d="M6.176 10.706c0.067 0.007 0.203 0.022 0.27 0.030 0.241 0.511 0.464 1.030 0.72 1.534 0.010-0.517-0.002-1.034 0.008-1.551 0.085 0 0.254 0.001 0.338 0.002-0.002 0.816 0.022 1.634-0.014 2.45-0.109-0.008-0.218-0.014-0.327-0.020-0.221-0.465-0.422-0.939-0.65-1.4-0.008 0.469-0.002 0.938-0.006 1.407-0.086 0-0.257 0.001-0.343 0.001-0.002-0.818-0.008-1.636 0.004-2.453z"></path>
<path fill="#000" d="M8.016 11.212c0.070-0.726 1.233-0.653 1.229 0.076-0.073-0.004-0.217-0.013-0.29-0.017-0.135-0.143-0.365-0.377-0.54-0.143-0.228 0.318 0.245 0.47 0.443 0.616 0.512 0.28 0.63 1.187 0.014 1.416-0.47 0.209-0.926-0.218-0.953-0.681 0.108 0.005 0.216 0.008 0.324 0.010 0.043 0.368 0.595 0.542 0.692 0.112 0.122-0.72-1.064-0.658-0.919-1.389z"></path>
<path fill="#000" d="M9.48 10.727c0.408-0.004 0.817-0.004 1.225 0.002-0.003 0.099-0.006 0.199-0.009 0.298-0.146 0.006-0.292 0.011-0.438 0.016-0.006 0.707 0.003 1.414-0.004 2.121-0.112 0.002-0.224 0.005-0.336 0.008-0.016-0.709 0.002-1.419-0.010-2.128-0.145-0.007-0.29-0.014-0.434-0.021 0.001-0.074 0.005-0.222 0.006-0.296z"></path>
<path fill="#000" d="M10.98 10.729c0.344 0.014 0.709-0.057 1.041 0.054 0.424 0.284 0.342 0.924-0.025 1.222 0.106 0.389 0.227 0.774 0.323 1.166-0.117-0.005-0.234-0.008-0.351-0.011-0.109-0.375-0.215-0.75-0.326-1.124-0.105-0.007-0.209-0.013-0.314-0.019-0.005 0.384-0.005 0.767-0.013 1.151-0.082 0-0.246 0.001-0.329 0.001-0.021-0.813-0.010-1.627-0.006-2.44M11.322 11.063c0 0.207 0.001 0.416 0.002 0.624 0.242-0.015 0.667 0.073 0.648-0.296 0.059-0.391-0.396-0.325-0.65-0.328z"></path>
<path fill="#000" d="M12.726 10.71c0.111 0.001 0.222 0.003 0.333 0.005 0.021 0.659-0.034 1.321 0.026 1.978 0.102 0.303 0.622 0.236 0.621-0.093 0.040-0.629-0.002-1.26 0.019-1.89 0.113 0.002 0.226 0.003 0.339 0.004-0.015 0.673 0.042 1.352-0.027 2.022-0.141 0.616-1.122 0.646-1.283 0.028-0.073-0.68-0.017-1.37-0.028-2.054z"></path>
<path fill="#000" d="M14.62 11.023c0.261-0.576 1.158-0.344 1.203 0.261-0.072 0-0.217 0-0.289 0-0.135-0.178-0.415-0.404-0.588-0.136-0.211 0.505-0.189 1.106-0.001 1.616 0.224 0.276 0.509-0.001 0.594-0.244 0.070 0 0.209-0.001 0.279-0.001 0.062 0.628-0.816 0.955-1.16 0.42-0.267-0.589-0.242-1.31-0.038-1.916z"></path>
<path fill="#000" d="M15.999 10.727c0.407-0.003 0.814-0.003 1.221 0 0.001 0.074 0.004 0.222 0.006 0.297-0.149 0.006-0.297 0.012-0.445 0.019-0.011 0.708 0.004 1.417-0.008 2.126-0.112-0.001-0.225-0.002-0.336-0.004-0.008-0.701-0.005-1.402 0-2.103-0.146-0.021-0.293-0.032-0.439-0.044 0-0.073 0.001-0.218 0.001-0.291z"></path>
<path fill="#000" d="M17.507 10.708c0.115 0.004 0.23 0.009 0.345 0.013 0.001 0.814 0.003 1.627-0.001 2.441-0.115 0.004-0.229 0.008-0.343 0.012-0.017-0.822-0.016-1.645-0.001-2.466z"></path>
<path fill="#000" d="M18.641 10.753c0.344-0.214 0.839-0.020 0.933 0.378 0.149 0.573 0.176 1.226-0.065 1.777-0.257 0.527-1.119 0.339-1.176-0.236-0.087-0.622-0.221-1.457 0.308-1.919M18.837 11.036c-0.354 0.482-0.325 1.268-0.040 1.777 0.479 0.253 0.559-0.498 0.539-0.815-0.004-0.338 0.025-1.090-0.499-0.962z"></path>
<path fill="#000" d="M20.014 10.706c0.065 0.005 0.193 0.014 0.258 0.019 0.249 0.51 0.469 1.034 0.726 1.541 0.015-0.518-0.001-1.036 0.014-1.554 0.112 0.004 0.225 0.009 0.338 0.013 0.001 0.811 0.004 1.622-0.002 2.434-0.109 0.002-0.217 0.005-0.325 0.007-0.239-0.461-0.429-0.945-0.667-1.407-0.008 0.467-0.001 0.934-0.007 1.401-0.086 0-0.257-0.001-0.343-0.002 0.003-0.817-0.010-1.635 0.008-2.452z"></path>
</svg>
