<?xml version="1.0" encoding="utf-8"?>
<!-- Generated by IcoMoon.io -->
<!DOCTYPE svg PUBLIC "-//W3C//DTD SVG 1.1//EN" "http://www.w3.org/Graphics/SVG/1.1/DTD/svg11.dtd">
<svg version="1.1" xmlns="http://www.w3.org/2000/svg" xmlns:xlink="http://www.w3.org/1999/xlink" width="24" height="24" viewBox="0 0 24 24">
<path fill="#ffd033" d="M11.944 0h0.084c0.52 0.012 0.876 0.412 1.209 0.757 3.448 3.454 6.903 6.9 10.349 10.354 0.485 0.436 0.51 1.258 0.032 1.708-3.578 3.588-7.166 7.166-10.745 10.751-0.292 0.312-0.744 0.475-1.164 0.365-0.448-0.105-0.73-0.496-1.045-0.798-3.264-3.271-6.534-6.537-9.801-9.805-0.359-0.364-0.824-0.713-0.863-1.268v-0.135c0.028-0.315 0.166-0.612 0.396-0.829 3.566-3.569 7.134-7.136 10.701-10.703 0.22-0.237 0.526-0.373 0.847-0.397M11.744 0.365c-0.213 0.049-0.38 0.198-0.532 0.345-3.516 3.518-7.035 7.033-10.551 10.552-0.407 0.352-0.443 1.037-0.032 1.401 3.548 3.553 7.102 7.101 10.648 10.656 0.343 0.399 1.014 0.425 1.375 0.039 3.45-3.451 6.9-6.903 10.351-10.353 0.279-0.281 0.645-0.569 0.634-1.007 0.023-0.464-0.363-0.774-0.658-1.071-3.419-3.417-6.84-6.833-10.257-10.252-0.243-0.267-0.623-0.412-0.978-0.31z"></path>
<path fill="#ffd033" d="M11.821 0.831c0.24-0.102 0.467 0.060 0.623 0.227 3.498 3.501 6.998 6.999 10.494 10.5 0.161 0.148 0.297 0.372 0.2 0.594-0.139 0.245-0.375 0.415-0.565 0.619-3.401 3.4-6.804 6.8-10.203 10.202-0.14 0.165-0.385 0.26-0.586 0.146-0.214-0.147-0.38-0.352-0.565-0.531-3.283-3.285-6.569-6.565-9.854-9.848-0.178-0.187-0.39-0.35-0.525-0.573-0.114-0.23 0.034-0.468 0.202-0.62 3.402-3.403 6.806-6.805 10.207-10.209 0.184-0.175 0.345-0.385 0.572-0.507M11.332 5.35c-0.571 0.262-0.591 1.274-0.015 1.528 0.475-0.002 1.131-0.204 1.143-0.781 0.065-0.578-0.623-1.028-1.128-0.747M10.575 7.371c-0.229 0.276-0.442 0.565-0.667 0.844-0.313 0.013-0.62 0.073-0.926 0.133-0.434 0.044-0.872 0.008-1.308 0.020-0.056 0.352 0.279 0.627 0.612 0.606-0.020 0.148-0.038 0.296-0.057 0.443-0.329 0.032-0.687-0.037-0.996 0.103-0.129 0.39 0.124 0.792 0.391 1.065-0.151 0.221-0.303 0.441-0.457 0.661-0.97-0.284-2.008-0.082-2.904 0.345 0.096 0.214 0.338 0.245 0.535 0.311 0.441 0.123 0.865 0.304 1.313 0.404 0.484-0.058 0.952-0.207 1.433-0.289-0.011 0.064-0.034 0.192-0.045 0.256-0.259 0.085-0.53 0.125-0.796 0.185-0.748 0.262-1.462-0.22-2.196-0.317-0.187-0.044-0.223 0.184-0.288 0.302 0.572 0.239 1.16 0.454 1.773 0.557 0.142 0.021 0.274-0.059 0.409-0.093 0.89-0.304 1.9-0.457 2.799-0.104 0.728 0.285 1.249 0.921 1.583 1.608 0.504-0.306 1.113-0.124 1.668-0.171 0.070 0.056 0.14 0.112 0.21 0.167 0.232-0.069 0.485-0.199 0.728-0.096 0.157 0.083 0.254 0.24 0.376 0.363 0.134-0.249 0.132-0.529 0.103-0.802-0.291 0.006-0.582 0.013-0.874 0.008 0.025-0.357 0.294-0.59 0.611-0.706 0.387-0.702 0.919-1.365 1.668-1.698 0.652-0.319 1.409-0.272 2.090-0.081-0.034-0.331-0.088-0.661-0.183-0.98-0.347-0.105-0.695-0.208-1.041-0.314-0.146 0.313-0.395 0.568-0.74 0.651-0.228-0.314-0.394-0.74-0.807-0.846-0.423-0.104-0.858 0.033-1.283 0.062-0.032-0.285-0.098-0.582-0.006-0.863 0.208-0.594-0.050-1.248-0.364-1.758-0.332-0.469-0.963-0.276-1.442-0.246-0.309 0.058-0.714-0.024-0.922 0.27M16.166 12.013c-0.011 0.079-0.033 0.237-0.044 0.316-0.059-0.069-0.177-0.205-0.236-0.273 0.012 0.091 0.037 0.274 0.049 0.365-0.064-0.067-0.193-0.203-0.257-0.271 0.009 0.097 0.029 0.291 0.039 0.388-0.061-0.069-0.182-0.208-0.242-0.277 0.008 0.098 0.024 0.293 0.033 0.391-0.064-0.055-0.192-0.166-0.256-0.222 0.015 0.089 0.045 0.267 0.060 0.356l-0.283-0.18 0.151 0.317c-0.073-0.039-0.22-0.116-0.294-0.155 0.044 0.078 0.131 0.235 0.175 0.313-0.075-0.035-0.224-0.106-0.299-0.141l0.176 0.306c-0.080-0.021-0.239-0.062-0.318-0.083l0.234 0.257c-0.081-0.003-0.245-0.011-0.326-0.014 0.063 0.053 0.189 0.159 0.252 0.212-0.079-0.005-0.237-0.014-0.315-0.019 0.067 0.053 0.202 0.159 0.269 0.212-0.088-0.002-0.265-0.006-0.353-0.008 0.077 0.054 0.232 0.161 0.309 0.215-0.078 0.018-0.235 0.054-0.313 0.072 0.065 0.035 0.195 0.106 0.26 0.142-0.066 0.042-0.197 0.126-0.262 0.168 0.082 0.013 0.245 0.041 0.327 0.054-0.083 0.041-0.248 0.121-0.331 0.161 0.093 0.016 0.281 0.048 0.374 0.064-0.101 0.069-0.202 0.138-0.303 0.207 0.090-0.002 0.27-0.006 0.36-0.008-0.103 0.070-0.206 0.139-0.308 0.209 0.092-0.003 0.276-0.008 0.368-0.011-0.073 0.098-0.146 0.197-0.218 0.296 0.118-0.029 0.236-0.057 0.354-0.086-0.050 0.081-0.15 0.241-0.2 0.321 0.081-0.031 0.243-0.092 0.323-0.122-0.037 0.084-0.112 0.251-0.15 0.335 0.080-0.039 0.241-0.117 0.321-0.157-0.038 0.079-0.114 0.237-0.152 0.316 0.078-0.042 0.234-0.127 0.313-0.17-0.031 0.081-0.092 0.242-0.123 0.323 0.099-0.069 0.197-0.138 0.296-0.207-0.013 0.087-0.039 0.26-0.052 0.347 0.062-0.062 0.187-0.184 0.249-0.246-0.011 0.089-0.032 0.265-0.043 0.353 0.063-0.067 0.19-0.2 0.253-0.267 0.001 0.086 0.002 0.256 0.003 0.341 0.077-0.092 0.154-0.184 0.232-0.276l0.037 0.339c0.049-0.079 0.146-0.238 0.195-0.317 0.004 0.085 0.011 0.256 0.015 0.342 0.059-0.11 0.119-0.219 0.179-0.328 0.018 0.080 0.054 0.241 0.072 0.321 0.033-0.085 0.097-0.255 0.13-0.34 0.029 0.084 0.086 0.253 0.115 0.337 0.019-0.087 0.057-0.263 0.076-0.35 0.053 0.070 0.16 0.21 0.213 0.28-0.009-0.086-0.026-0.258-0.035-0.344 0.060 0.067 0.18 0.2 0.24 0.266l-0.050-0.326c0.063 0.056 0.189 0.17 0.251 0.226-0.023-0.077-0.070-0.232-0.093-0.31l0.264 0.213c-0.026-0.082-0.077-0.244-0.103-0.325l0.281 0.196c-0.033-0.075-0.098-0.225-0.131-0.3l0.298 0.161c-0.040-0.071-0.119-0.214-0.159-0.286l0.317 0.117-0.19-0.273c0.081 0.027 0.244 0.082 0.325 0.11-0.048-0.073-0.145-0.218-0.193-0.29 0.085 0.008 0.254 0.024 0.339 0.032-0.056-0.059-0.169-0.178-0.225-0.238 0.084 0.008 0.251 0.026 0.334 0.034-0.060-0.062-0.18-0.187-0.24-0.25 0.082 0 0.246-0.002 0.327-0.003-0.074-0.052-0.223-0.155-0.298-0.207 0.089-0.013 0.267-0.038 0.356-0.051-0.1-0.065-0.2-0.132-0.299-0.198 0.084-0.009 0.25-0.029 0.334-0.039-0.080-0.041-0.239-0.122-0.319-0.162 0.082-0.032 0.247-0.096 0.329-0.128-0.089-0.019-0.265-0.057-0.354-0.075 0.084-0.051 0.25-0.151 0.334-0.201-0.094-0.002-0.281-0.006-0.374-0.008 0.092-0.078 0.185-0.155 0.278-0.233-0.085-0.002-0.253-0.005-0.337-0.007 0.059-0.068 0.176-0.204 0.235-0.272-0.087 0.014-0.261 0.041-0.347 0.055 0.062-0.065 0.186-0.196 0.248-0.262-0.094 0.011-0.281 0.034-0.375 0.046 0.050-0.074 0.149-0.222 0.199-0.296-0.088 0.022-0.264 0.065-0.352 0.087 0.043-0.113 0.085-0.227 0.127-0.34-0.111 0.052-0.221 0.105-0.332 0.158 0.041-0.112 0.082-0.224 0.122-0.336-0.084 0.045-0.254 0.135-0.338 0.18 0.031-0.081 0.093-0.244 0.123-0.326-0.069 0.054-0.208 0.161-0.278 0.215 0.020-0.083 0.059-0.249 0.079-0.332-0.063 0.072-0.188 0.217-0.25 0.29 0.011-0.092 0.033-0.276 0.044-0.368-0.068 0.069-0.203 0.207-0.271 0.276-0.005-0.086-0.014-0.26-0.019-0.347-0.080 0.098-0.161 0.197-0.241 0.295-0.014-0.084-0.041-0.253-0.054-0.337-0.068 0.1-0.132 0.202-0.197 0.304-0.052-0.107-0.106-0.213-0.16-0.319-0.016 0.088-0.046 0.262-0.061 0.349-0.082-0.090-0.158-0.183-0.243-0.269M4.44 13.27c0.001 0.087 0.004 0.262 0.006 0.349 0.073 0.157 0.101 0.339 0.227 0.467-0.038 0.024-0.114 0.072-0.152 0.096l0.271 0.033c-0.044 0.023-0.133 0.069-0.178 0.091 0.152 0.105 0.302 0.213 0.463 0.303-0.013 0.048-0.038 0.144-0.051 0.192 0.033-0.043 0.1-0.128 0.133-0.17 0.031 0.053 0.095 0.16 0.126 0.213 0.094 0.004 0.187 0.009 0.28 0.017 0.033-0.008 0.099-0.023 0.131-0.031 0.007 0.033 0.022 0.098 0.029 0.131 0.124-0.014 0.248-0.020 0.373-0.014-0.004-0.223-0.004-0.446-0.004-0.669-0.505-0.050-0.833-0.533-0.731-1.022-0.308 0.003-0.616 0.004-0.923 0.014M7.224 13.672l0.097 0.165c-0.059-0.051-0.177-0.155-0.236-0.207l0.032 0.283c-0.059-0.043-0.178-0.129-0.238-0.172l0.109 0.272c-0.045-0.023-0.134-0.068-0.179-0.091-0.047 0.166-0.117 0.316-0.318 0.251l0.11 0.030c-0.022 0.095-0.043 0.191-0.061 0.287-0.061 0.034-0.182 0.102-0.242 0.136 0.065 0.009 0.195 0.028 0.261 0.038-0.068 0.050-0.204 0.151-0.272 0.202 0.052 0.021 0.156 0.064 0.208 0.085-0.059 0.031-0.176 0.092-0.234 0.123 0.054 0.023 0.163 0.068 0.218 0.091-0.057 0.022-0.17 0.067-0.226 0.089 0.231 0.085 0.267 0.392 0.126 0.572l0.248-0.061-0.177 0.245 0.266-0.060c-0.033 0.063-0.098 0.188-0.131 0.251l0.236-0.115-0.117 0.257c0.064-0.025 0.192-0.076 0.256-0.101l-0.129 0.167c0.266-0.007 0.434 0.193 0.582 0.387l-0.112-0.267c0.163 0.104 0.378 0.152 0.463 0.346 0.006-0.039 0.018-0.117 0.025-0.156 0.169 0.022 0.339 0.037 0.509 0.057l0.027-0.151c0.026 0.042 0.080 0.126 0.106 0.168l0.101-0.076c0.186 0.128 0.295-0.126 0.382-0.247 0.088-0.025 0.176-0.050 0.265-0.074l-0.095-0.164c0.292 0.198 0.238-0.17 0.27-0.303l0.178 0.077c-0.040-0.056-0.121-0.168-0.161-0.224l0.178 0.045c0-0.232 0.015-0.462 0.023-0.693l0.197-0.034c-0.066-0.037-0.198-0.111-0.264-0.148 0.059-0.032 0.177-0.095 0.237-0.126-0.071-0.013-0.211-0.040-0.282-0.053 0.056-0.026 0.167-0.080 0.222-0.106-0.268-0.013-0.227-0.262-0.244-0.451-0.051 0.028-0.153 0.084-0.204 0.111 0.039-0.066 0.115-0.2 0.154-0.267-0.067 0.014-0.199 0.044-0.265 0.059l0.099-0.264-0.244 0.142c0.017-0.072 0.050-0.216 0.066-0.289-0.056 0.050-0.17 0.151-0.227 0.201 0.016-0.038 0.048-0.112 0.063-0.149-0.172-0.071-0.347-0.134-0.518-0.21-0.221-0.005-0.443-0.015-0.662 0.025l-0.017-0.197c-0.038 0.078-0.113 0.234-0.15 0.312l-0.038-0.19c-0.090 0.058-0.18 0.115-0.271 0.172z"></path>
<path fill="#ffd033" d="M11.007 5.821c0.243-0.137 0.574-0.176 0.829-0.053 0.23 0.126 0.142 0.408 0.115 0.615-0.327-0.124-0.686-0.203-0.974 0.054 0-0.205-0.024-0.415 0.030-0.616z"></path>
<path fill="#ffd033" d="M9.79 8.648c0.267-0.069 0.531-0.152 0.808-0.173 0.004 0.082 0.012 0.245 0.016 0.327-0.402 0.078-0.8 0.189-1.214 0.165-0.228 0.151-0.347 0.406-0.481 0.634-0.14-0.003-0.28-0.007-0.42-0.010 0.053-0.267 0.105-0.533 0.157-0.8-0.036-0.043-0.109-0.13-0.145-0.174 0.422 0.078 0.854 0.057 1.279 0.031z"></path>
<path fill="#ffd033" d="M9.374 9.353c0.429 0.008 0.859 0.001 1.286-0.050 0.020 0.081 0.059 0.242 0.079 0.322-0.034 0.046-0.102 0.139-0.136 0.185-0.385-0.046-0.78 0.058-1.076 0.314-0.167 0.117-0.385 0.389-0.592 0.177 0.038-0.355 0.242-0.661 0.439-0.948z"></path>
<path fill="#ffd033" d="M16.093 10.375c0.334-0.092 0.656 0.080 0.964 0.184 0.002 0.159 0.004 0.317 0.005 0.476-0.39-0.027-0.77-0.127-1.109-0.323 0.035-0.117 0.082-0.23 0.14-0.337z"></path>
<path fill="#ffd033" d="M4.925 11.672c0.479-0.11 0.966-0.328 1.465-0.226 0.348 0.070 0.723 0.068 1.038 0.251-0.418 0.176-0.871 0.263-1.317 0.326-0.4-0.096-0.817-0.163-1.186-0.351z"></path>
<path fill="#ffd033" d="M9.832 12.505c0.147 0.001 0.294 0.001 0.441 0.002 0.297 0.293 0.524 0.645 0.758 0.988 0.026 0.186-0.145 0.32-0.226 0.471-0.306-0.445-0.666-0.855-1.103-1.176 0.043-0.095 0.086-0.19 0.13-0.285z"></path>
<path fill="#ffd033" d="M11.1 12.513c0.509-0.022 1.093-0.161 1.546 0.14 0.374 0.328 0.155 0.874-0.004 1.257-0.335-0.15-0.070-0.558-0.233-0.813-0.161-0.266-0.517-0.232-0.786-0.255-0.156 0.093-0.334 0.125-0.512 0.142-0.005-0.157-0.008-0.314-0.011-0.471z"></path>
<path fill="#ffd033" d="M16.54 13.36c0.754-0.278 1.584 0.525 1.324 1.288-0.182 0.75-1.238 1.019-1.755 0.445-0.548-0.515-0.295-1.535 0.431-1.733M17.199 15.219c0.308-0.084 0.501-0.349 0.506-0.666-0.269 0.127-0.46 0.371-0.506 0.666z"></path>
<path fill="#ffd033" d="M7.932 14.453c0.555-0.183 1.157 0.378 1.009 0.944-0.094 0.57-0.864 0.847-1.295 0.458-0.506-0.37-0.321-1.255 0.286-1.402M8.422 15.914c0.238-0.097 0.363-0.304 0.386-0.551-0.201 0.123-0.365 0.303-0.386 0.551z"></path>
<path fill="#000" d="M11.744 0.365c0.355-0.102 0.735 0.043 0.978 0.31 3.417 3.419 6.838 6.835 10.257 10.252 0.295 0.297 0.681 0.607 0.658 1.071 0.011 0.438-0.355 0.726-0.634 1.007-3.451 3.45-6.901 6.902-10.351 10.353-0.361 0.386-1.032 0.36-1.375-0.039-3.546-3.555-7.1-7.103-10.648-10.656-0.411-0.364-0.375-1.049 0.032-1.401 3.516-3.519 7.035-7.034 10.551-10.552 0.152-0.147 0.319-0.296 0.532-0.345M11.821 0.831c-0.227 0.122-0.388 0.332-0.572 0.507-3.401 3.404-6.805 6.806-10.207 10.209-0.168 0.152-0.316 0.39-0.202 0.62 0.135 0.223 0.347 0.386 0.525 0.573 3.285 3.283 6.571 6.563 9.854 9.848 0.185 0.179 0.351 0.384 0.565 0.531 0.201 0.114 0.446 0.019 0.586-0.146 3.399-3.402 6.802-6.802 10.203-10.202 0.19-0.204 0.426-0.374 0.565-0.619 0.097-0.222-0.039-0.446-0.2-0.594-3.496-3.501-6.996-6.999-10.494-10.5-0.156-0.167-0.383-0.329-0.623-0.227z"></path>
<path fill="#000" d="M11.332 5.35c0.505-0.281 1.193 0.169 1.128 0.747-0.012 0.577-0.668 0.779-1.143 0.781-0.576-0.254-0.556-1.266 0.015-1.528M11.007 5.821c-0.054 0.201-0.030 0.411-0.030 0.616 0.288-0.257 0.647-0.178 0.974-0.054 0.027-0.207 0.115-0.489-0.115-0.615-0.255-0.123-0.586-0.084-0.829 0.053z"></path>
<path fill="#000" d="M10.575 7.371c0.208-0.294 0.613-0.212 0.922-0.27 0.479-0.030 1.11-0.223 1.442 0.246 0.314 0.51 0.572 1.164 0.364 1.758-0.092 0.281-0.026 0.578 0.006 0.863 0.425-0.029 0.86-0.166 1.283-0.062 0.413 0.106 0.579 0.532 0.807 0.846 0.345-0.083 0.594-0.338 0.74-0.651 0.346 0.106 0.694 0.209 1.041 0.314 0.095 0.319 0.149 0.649 0.183 0.98-0.681-0.191-1.438-0.238-2.090 0.081-0.749 0.333-1.281 0.996-1.668 1.698-0.317 0.116-0.586 0.349-0.611 0.706 0.292 0.005 0.583-0.002 0.874-0.008 0.029 0.273 0.031 0.553-0.103 0.802-0.122-0.123-0.219-0.28-0.376-0.363-0.243-0.103-0.496 0.027-0.728 0.096-0.070-0.055-0.14-0.111-0.21-0.167-0.555 0.047-1.164-0.135-1.668 0.171-0.334-0.687-0.855-1.323-1.583-1.608-0.899-0.353-1.909-0.2-2.799 0.104-0.135 0.034-0.267 0.114-0.409 0.093-0.613-0.103-1.201-0.318-1.773-0.557 0.065-0.118 0.101-0.346 0.288-0.302 0.734 0.097 1.448 0.579 2.196 0.317 0.266-0.060 0.537-0.1 0.796-0.185 0.011-0.064 0.034-0.192 0.045-0.256-0.481 0.082-0.949 0.231-1.433 0.289-0.448-0.1-0.872-0.281-1.313-0.404-0.197-0.066-0.439-0.097-0.535-0.311 0.896-0.427 1.934-0.629 2.904-0.345 0.154-0.22 0.306-0.44 0.457-0.661-0.267-0.273-0.52-0.675-0.391-1.065 0.309-0.14 0.667-0.071 0.996-0.103 0.019-0.147 0.037-0.295 0.057-0.443-0.333 0.021-0.668-0.254-0.612-0.606 0.436-0.012 0.874 0.024 1.308-0.020 0.306-0.060 0.613-0.12 0.926-0.133 0.225-0.279 0.438-0.568 0.667-0.844M9.79 8.648c-0.425 0.026-0.857 0.047-1.279-0.031 0.036 0.044 0.109 0.131 0.145 0.174-0.052 0.267-0.104 0.533-0.157 0.8 0.14 0.003 0.28 0.007 0.42 0.010 0.134-0.228 0.253-0.483 0.481-0.634 0.414 0.024 0.812-0.087 1.214-0.165-0.004-0.082-0.012-0.245-0.016-0.327-0.277 0.021-0.541 0.104-0.808 0.173M9.374 9.353c-0.197 0.287-0.401 0.593-0.439 0.948 0.207 0.212 0.425-0.060 0.592-0.177 0.296-0.256 0.691-0.36 1.076-0.314 0.034-0.046 0.102-0.139 0.136-0.185-0.020-0.080-0.059-0.241-0.079-0.322-0.427 0.051-0.857 0.058-1.286 0.050M16.093 10.375c-0.058 0.107-0.105 0.22-0.14 0.337 0.339 0.196 0.719 0.296 1.109 0.323-0.001-0.159-0.003-0.317-0.005-0.476-0.308-0.104-0.63-0.276-0.964-0.184M4.925 11.672c0.369 0.188 0.786 0.255 1.186 0.351 0.446-0.063 0.899-0.15 1.317-0.326-0.315-0.183-0.69-0.181-1.038-0.251-0.499-0.102-0.986 0.116-1.465 0.226M9.832 12.505c-0.044 0.095-0.087 0.19-0.13 0.285 0.437 0.321 0.797 0.731 1.103 1.176 0.081-0.151 0.252-0.285 0.226-0.471-0.234-0.343-0.461-0.695-0.758-0.988-0.147-0.001-0.294-0.001-0.441-0.002M11.1 12.513c0.003 0.157 0.006 0.314 0.011 0.471 0.178-0.017 0.356-0.049 0.512-0.142 0.269 0.023 0.625-0.011 0.786 0.255 0.163 0.255-0.102 0.663 0.233 0.813 0.159-0.383 0.378-0.929 0.004-1.257-0.453-0.301-1.037-0.162-1.546-0.14z"></path>
<path fill="#000" d="M16.166 12.013c0.085 0.086 0.161 0.179 0.243 0.269 0.015-0.087 0.045-0.261 0.061-0.349 0.054 0.106 0.108 0.212 0.16 0.319 0.065-0.102 0.129-0.204 0.197-0.304 0.013 0.084 0.040 0.253 0.054 0.337 0.080-0.098 0.161-0.197 0.241-0.295 0.005 0.087 0.014 0.261 0.019 0.347 0.068-0.069 0.203-0.207 0.271-0.276-0.011 0.092-0.033 0.276-0.044 0.368 0.062-0.073 0.187-0.218 0.25-0.29-0.020 0.083-0.059 0.249-0.079 0.332 0.070-0.054 0.209-0.161 0.278-0.215-0.030 0.082-0.092 0.245-0.123 0.326 0.084-0.045 0.254-0.135 0.338-0.18-0.040 0.112-0.081 0.224-0.122 0.336 0.111-0.053 0.221-0.106 0.332-0.158-0.042 0.113-0.084 0.227-0.127 0.34 0.088-0.022 0.264-0.065 0.352-0.087-0.050 0.074-0.149 0.222-0.199 0.296 0.094-0.012 0.281-0.035 0.375-0.046-0.062 0.066-0.186 0.197-0.248 0.262 0.086-0.014 0.26-0.041 0.347-0.055-0.059 0.068-0.176 0.204-0.235 0.272 0.084 0.002 0.252 0.005 0.337 0.007-0.093 0.078-0.186 0.155-0.278 0.233 0.093 0.002 0.28 0.006 0.374 0.008-0.084 0.050-0.25 0.15-0.334 0.201 0.089 0.018 0.265 0.056 0.354 0.075-0.082 0.032-0.247 0.096-0.329 0.128 0.080 0.040 0.239 0.121 0.319 0.162-0.084 0.010-0.25 0.030-0.334 0.039 0.099 0.066 0.199 0.133 0.299 0.198-0.089 0.013-0.267 0.038-0.356 0.051 0.075 0.052 0.224 0.155 0.298 0.207-0.081 0.001-0.245 0.003-0.327 0.003 0.060 0.063 0.18 0.188 0.24 0.25-0.083-0.008-0.25-0.026-0.334-0.034 0.056 0.060 0.169 0.179 0.225 0.238-0.085-0.008-0.254-0.024-0.339-0.032 0.048 0.072 0.145 0.217 0.193 0.29-0.081-0.028-0.244-0.083-0.325-0.11l0.19 0.273-0.317-0.117c0.040 0.072 0.119 0.215 0.159 0.286l-0.298-0.161c0.033 0.075 0.098 0.225 0.131 0.3l-0.281-0.196c0.026 0.081 0.077 0.243 0.103 0.325l-0.264-0.213c0.023 0.078 0.070 0.233 0.093 0.31-0.062-0.056-0.188-0.17-0.251-0.226l0.050 0.326c-0.060-0.066-0.18-0.199-0.24-0.266 0.009 0.086 0.026 0.258 0.035 0.344-0.053-0.070-0.16-0.21-0.213-0.28-0.019 0.087-0.057 0.263-0.076 0.35-0.029-0.084-0.086-0.253-0.115-0.337-0.033 0.085-0.097 0.255-0.13 0.34-0.018-0.080-0.054-0.241-0.072-0.321-0.060 0.109-0.12 0.218-0.179 0.328-0.004-0.086-0.011-0.257-0.015-0.342-0.049 0.079-0.146 0.238-0.195 0.317l-0.037-0.339c-0.078 0.092-0.155 0.184-0.232 0.276-0.001-0.085-0.002-0.255-0.003-0.341-0.063 0.067-0.19 0.2-0.253 0.267 0.011-0.088 0.032-0.264 0.043-0.353-0.062 0.062-0.187 0.184-0.249 0.246 0.013-0.087 0.039-0.26 0.052-0.347-0.099 0.069-0.197 0.138-0.296 0.207 0.031-0.081 0.092-0.242 0.123-0.323-0.079 0.043-0.235 0.128-0.313 0.17 0.038-0.079 0.114-0.237 0.152-0.316-0.080 0.040-0.241 0.118-0.321 0.157 0.038-0.084 0.113-0.251 0.15-0.335-0.080 0.030-0.242 0.091-0.323 0.122 0.050-0.080 0.15-0.24 0.2-0.321-0.118 0.029-0.236 0.057-0.354 0.086 0.072-0.099 0.145-0.198 0.218-0.296-0.092 0.003-0.276 0.008-0.368 0.011 0.102-0.070 0.205-0.139 0.308-0.209-0.090 0.002-0.27 0.006-0.36 0.008 0.101-0.069 0.202-0.138 0.303-0.207-0.093-0.016-0.281-0.048-0.374-0.064 0.083-0.040 0.248-0.12 0.331-0.161-0.082-0.013-0.245-0.041-0.327-0.054 0.065-0.042 0.196-0.126 0.262-0.168-0.065-0.036-0.195-0.107-0.26-0.142 0.078-0.018 0.235-0.054 0.313-0.072-0.077-0.054-0.232-0.161-0.309-0.215 0.088 0.002 0.265 0.006 0.353 0.008-0.067-0.053-0.202-0.159-0.269-0.212 0.078 0.005 0.236 0.014 0.315 0.019-0.063-0.053-0.189-0.159-0.252-0.212 0.081 0.003 0.245 0.011 0.326 0.014l-0.234-0.257c0.079 0.021 0.238 0.062 0.318 0.083l-0.176-0.306c0.075 0.035 0.224 0.106 0.299 0.141-0.044-0.078-0.131-0.235-0.175-0.313 0.074 0.039 0.221 0.116 0.294 0.155l-0.151-0.317 0.283 0.18c-0.015-0.089-0.045-0.267-0.060-0.356 0.064 0.056 0.192 0.167 0.256 0.222-0.009-0.098-0.025-0.293-0.033-0.391 0.060 0.069 0.181 0.208 0.242 0.277-0.010-0.097-0.030-0.291-0.039-0.388 0.064 0.068 0.193 0.204 0.257 0.271-0.012-0.091-0.037-0.274-0.049-0.365 0.059 0.068 0.177 0.204 0.236 0.273 0.011-0.079 0.033-0.237 0.044-0.316M16.54 13.36c-0.726 0.198-0.979 1.218-0.431 1.733 0.517 0.574 1.573 0.305 1.755-0.445 0.26-0.763-0.57-1.566-1.324-1.288z"></path>
<path fill="#000" d="M4.44 13.27c0.307-0.010 0.615-0.011 0.923-0.014-0.102 0.489 0.226 0.972 0.731 1.022 0 0.223 0 0.446 0.004 0.669-0.125-0.006-0.249 0-0.373 0.014-0.007-0.033-0.022-0.098-0.029-0.131-0.032 0.008-0.098 0.023-0.131 0.031-0.093-0.008-0.186-0.013-0.28-0.017-0.031-0.053-0.095-0.16-0.126-0.213-0.033 0.042-0.1 0.127-0.133 0.17 0.013-0.048 0.038-0.144 0.051-0.192-0.161-0.090-0.311-0.198-0.463-0.303 0.045-0.022 0.134-0.068 0.178-0.091l-0.271-0.033c0.038-0.024 0.114-0.072 0.152-0.096-0.126-0.128-0.154-0.31-0.227-0.467-0.002-0.087-0.005-0.262-0.006-0.349z"></path>
<path fill="#000" d="M7.224 13.672c0.091-0.057 0.181-0.114 0.271-0.172l0.038 0.19c0.037-0.078 0.112-0.234 0.15-0.312l0.017 0.197c0.219-0.040 0.441-0.030 0.662-0.025 0.171 0.076 0.346 0.139 0.518 0.21-0.015 0.037-0.047 0.111-0.063 0.149 0.057-0.050 0.171-0.151 0.227-0.201-0.016 0.073-0.049 0.217-0.066 0.289l0.244-0.142-0.099 0.264c0.066-0.015 0.198-0.045 0.265-0.059-0.039 0.067-0.115 0.201-0.154 0.267 0.051-0.027 0.153-0.083 0.204-0.111 0.017 0.189-0.024 0.438 0.244 0.451-0.055 0.026-0.166 0.080-0.222 0.106 0.071 0.013 0.211 0.040 0.282 0.053-0.060 0.031-0.178 0.094-0.237 0.126 0.066 0.037 0.198 0.111 0.264 0.148l-0.197 0.034c-0.008 0.231-0.023 0.461-0.023 0.693l-0.178-0.045c0.040 0.056 0.121 0.168 0.161 0.224l-0.178-0.077c-0.032 0.133 0.022 0.501-0.27 0.303l0.095 0.164c-0.089 0.024-0.177 0.049-0.265 0.074-0.087 0.121-0.196 0.375-0.382 0.247l-0.101 0.076c-0.026-0.042-0.080-0.126-0.106-0.168l-0.027 0.151c-0.17-0.020-0.34-0.035-0.509-0.057-0.007 0.039-0.019 0.117-0.025 0.156-0.085-0.194-0.3-0.242-0.463-0.346l0.112 0.267c-0.148-0.194-0.316-0.394-0.582-0.387l0.129-0.167c-0.064 0.025-0.192 0.076-0.256 0.101l0.117-0.257-0.236 0.115c0.033-0.063 0.098-0.188 0.131-0.251l-0.266 0.060 0.177-0.245-0.248 0.061c0.141-0.18 0.105-0.487-0.126-0.572 0.056-0.022 0.169-0.067 0.226-0.089-0.055-0.023-0.164-0.068-0.218-0.091 0.058-0.031 0.175-0.092 0.234-0.123-0.052-0.021-0.156-0.064-0.208-0.085 0.068-0.051 0.204-0.152 0.272-0.202-0.066-0.010-0.196-0.029-0.261-0.038 0.060-0.034 0.181-0.102 0.242-0.136 0.018-0.096 0.039-0.192 0.061-0.287l-0.11-0.030c0.201 0.065 0.271-0.085 0.318-0.251 0.045 0.023 0.134 0.068 0.179 0.091l-0.109-0.272c0.060 0.043 0.179 0.129 0.238 0.172l-0.032-0.283c0.059 0.052 0.177 0.156 0.236 0.207l-0.097-0.165M7.932 14.453c-0.607 0.147-0.792 1.032-0.286 1.402 0.431 0.389 1.201 0.112 1.295-0.458 0.148-0.566-0.454-1.127-1.009-0.944z"></path>
<path fill="#000" d="M17.199 15.219c0.046-0.295 0.237-0.539 0.506-0.666-0.005 0.317-0.198 0.582-0.506 0.666z"></path>
<path fill="#000" d="M8.422 15.914c0.021-0.248 0.185-0.428 0.386-0.551-0.023 0.247-0.148 0.454-0.386 0.551z"></path>
</svg>
