<svg xmlns="http://www.w3.org/2000/svg" width="24" height="24">
    <path fill="#d40000" d="M11.839 1.333h.48c.504.109.957.42 1.196.884 3.463 5.988 6.921 11.98 10.383 17.968.125.22.213.459.28.702v.38a1.716 1.716 0 0 1-1.341 1.399H1.358C.68 22.55.137 21.998.001 21.328v-.478c.068-.231.153-.458.272-.668 3.476-6.007 6.941-12.02 10.419-18.026.235-.436.676-.713 1.148-.824zm-.699 1.629C7.737 8.861 4.323 14.754.92 20.653c-.306.441-.029 1.084.479 1.212.439.14.904.092 1.357.091h18.667c.452.002.916.05 1.356-.092.497-.136.785-.768.473-1.207-3.466-6.01-6.944-12.013-10.412-18.022-.166-.335-.532-.584-.916-.494-.411.082-.591.498-.782.822z"/>
    <path fill="#febe0b" d="M11.14 2.962c.191-.324.372-.74.782-.822.384-.09.75.159.916.494 3.468 6.009 6.947 12.012 10.412 18.022.312.439.024 1.071-.473 1.207-7.126.006-14.253.004-21.38.001-.508-.127-.785-.771-.479-1.212C4.322 14.753 7.736 8.86 11.138 2.961zm1.21 8.286c-.121.431-.236.864-.348 1.298.124-.002.247-.002.372-.001.068-.332.138-.666.2-1 1.46-.015 2.921-.005 4.38-.005.079.381.153.764.235 1.145-.92.008-1.84-.001-2.759.004.275.706.21 1.604.806 2.14-.005.341-.002.683.003 1.023.515 0 1.028-.003 1.542.001l.003.862c.287.003.574.003.861 0 .001-.284.002-.566.001-.849l.287-.03c.003-.854.003-1.708 0-2.562-.542-.521-.485-1.358-.748-2.025-1.612-.005-3.224-.003-4.836-.002zm-3.324 1.419c-.095.343-.188.687-.274 1.033.126-.001.252 0 .378.002.049-.24.098-.48.145-.721 1.591-.005 3.181-.003 4.772-.002.087.418.171.836.252 1.255-.896.002-1.792-.003-2.688.002.252.667.198 1.503.776 1.996.064.479.005.968.027 1.45.482.004.964-.001 1.445.004l.003.939c.313.004.626.004.94 0 .001-.307.003-.612-.001-.919l.315-.034c.002-.935.006-1.87-.003-2.805-.597-.556-.522-1.479-.814-2.201-1.757.001-3.515-.004-5.272.003zM5.445 13.82c-.331.806-.236 1.852-.915 2.466-.011 1.058-.004 2.115-.004 3.172l.354.016c-.004.35-.002.7-.001 1.051.353.004.706.004 1.058.001-.001-.353.001-.706.001-1.058 1.648-.003 3.295-.003 4.943 0-.001.352.001.705.001 1.057.352.004.705.004 1.058 0 .001-.35.003-.7-.001-1.049l.355-.019c-.001-1.057.005-2.114-.004-3.171-.684-.612-.582-1.662-.917-2.468-1.976 0-3.952-.002-5.928.001z"/>
    <path fill="#febe0b" d="M5.727 14.177c1.788-.004 3.577-.003 5.365 0 .096.468.193.938.28 1.409-1.975-.003-3.951.003-5.926-.003.091-.469.185-.938.281-1.406z"/>
    <path d="M12.35 11.248c1.612-.001 3.223-.004 4.836.002.262.667.205 1.504.748 2.025.003.854.003 1.708 0 2.562l-.287.03c.001.283 0 .565-.001.849-.287.003-.574.003-.861 0l-.003-.862c-.514-.004-1.028-.001-1.542-.001a38.75 38.75 0 0 1-.003-1.023c-.596-.537-.532-1.435-.806-2.14.919-.005 1.839.004 2.759-.004-.082-.381-.156-.764-.235-1.145-1.46 0-2.92-.01-4.38.005-.062.334-.132.668-.2 1a15.377 15.377 0 0 0-.372.001c.112-.434.227-.867.348-1.298z"/>
    <path d="M9.026 12.667c1.757-.006 3.515-.002 5.272-.003.292.722.217 1.644.814 2.201.009.935.004 1.87.003 2.805l-.315.034c.004.307.002.612.001.919-.314.004-.627.004-.94 0l-.003-.939c-.482-.004-.964.001-1.445-.004-.021-.482.037-.971-.027-1.45-.578-.492-.524-1.329-.776-1.996.896-.004 1.792 0 2.688-.002a77.365 77.365 0 0 0-.252-1.255c-1.591-.001-3.181-.004-4.772.002-.047.241-.096.481-.145.721a15.85 15.85 0 0 0-.378-.002c.086-.346.179-.69.274-1.033z"/>
    <path d="M5.445 13.82c1.976-.003 3.952-.001 5.928-.001.335.805.234 1.856.917 2.468.009 1.057.003 2.114.004 3.171l-.355.019c.004.349.002.699.001 1.049-.353.004-.706.004-1.058 0 0-.352-.002-.705-.001-1.057-1.648-.003-3.295-.003-4.943 0 0 .352-.002.705-.001 1.058-.352.003-.705.003-1.058-.001-.001-.35-.004-.7.001-1.051l-.354-.016c0-1.058-.007-2.115.004-3.172.678-.613.584-1.66.915-2.466zm.282.357c-.096.468-.19.937-.281 1.406 1.975.005 3.951 0 5.926.003-.087-.471-.184-.94-.28-1.409-1.788-.003-3.577-.004-5.365 0z"/>
    <path fill="#a91400" opacity=".78" d="M1.398 21.864c7.126.004 14.253.005 21.38-.001-.439.141-.903.093-1.356.092H2.755c-.453.001-.918.05-1.357-.091z"/>
</svg>
