<?xml version="1.0" encoding="utf-8"?>
<!-- Generated by IcoMoon.io -->
<!DOCTYPE svg PUBLIC "-//W3C//DTD SVG 1.1//EN" "http://www.w3.org/Graphics/SVG/1.1/DTD/svg11.dtd">
<svg version="1.1" xmlns="http://www.w3.org/2000/svg" xmlns:xlink="http://www.w3.org/1999/xlink" width="24" height="24" viewBox="0 0 24 24">
<path fill="#e20a16" d="M11.92 1.5h0.131c0.504 0.062 0.697 0.57 0.923 0.95 3.6 6.244 7.206 12.484 10.807 18.726 0.077 0.139 0.151 0.28 0.22 0.424v0.319c-0.092 0.316-0.349 0.526-0.671 0.581h-22.57c-0.58 0.011-0.97-0.68-0.618-1.154 3.625-6.301 7.27-12.592 10.897-18.892 0.222-0.373 0.407-0.851 0.881-0.954M3.1 20.394c5.94 0.004 11.879 0.002 17.819 0.001-2.971-5.143-5.939-10.288-8.911-15.431-2.97 5.143-5.941 10.285-8.908 15.43z"></path>
<path fill="#fff" d="M3.1 20.394c2.966-5.144 5.938-10.286 8.908-15.43 2.972 5.143 5.94 10.288 8.911 15.431-5.94 0.001-11.879 0.002-17.819-0.001M8.963 12.298c-0.048 1.862-0.006 3.726 0.12 5.586 1.95 0.001 3.9 0 5.849 0 0.13-1.853 0.166-3.71 0.124-5.567-0.016-0.266-0.283-0.455-0.539-0.43-1.68-0.005-3.36-0.007-5.040 0.001-0.241-0.017-0.493 0.16-0.514 0.409M5.297 18.307c-0.108 0.415-0.025 0.862-0.048 1.289 1.001 0 2.002 0 3.004 0-0.001-1.307-0.001-2.614 0-3.92-0.48 0-0.959 0.001-1.438-0.001-0.508 0.877-1.025 1.748-1.518 2.633M15.764 15.677c0 1.307 0 2.612 0 3.919 1.001 0 2.002 0 3.002 0-0.022-0.425 0.056-0.866-0.043-1.28-0.49-0.886-1.018-1.751-1.512-2.634-0.482-0.008-0.965-0.006-1.447-0.005M8.66 17.114c-0.050 0.497 0.038 0.997 0.043 1.495 0.044 0.046 0.134 0.136 0.18 0.181-0.001 0.236-0.008 0.474 0.014 0.71 0.202 0.175 0.529 0.101 0.772 0.060 0.156-0.223 0.040-0.558 0.076-0.822 1.508 0.001 3.017 0.001 4.525 0 0 0.254-0.008 0.509 0.017 0.763 0.228 0.193 0.576 0.080 0.845 0.036-0.002-0.254 0.001-0.508 0-0.761 0.044-0.037 0.132-0.109 0.176-0.146 0.019-0.437 0.055-0.872 0.068-1.309 0.044-0.178-0.098-0.289-0.216-0.385-0.035 0.377-0.050 0.754-0.071 1.132-2.054-0.001-4.11 0.001-6.164-0.001-0.022-0.377-0.037-0.754-0.068-1.13-0.049 0.044-0.148 0.133-0.197 0.178z"></path>
<path fill="#fff" d="M9.287 12.31c-0.026-0.248 0.284-0.169 0.431-0.187 1.638 0.014 3.278-0.022 4.916 0.017l0.083 0.061c0.023 0.732 0.054 1.476-0.016 2.204-1.025 0.112-2.082 0.016-3.119 0.046-0.155-0.298-0.42-0.574-0.781-0.568-0.388-0.036-0.697 0.244-0.858 0.57-0.208-0.026-0.46 0.062-0.637-0.066-0.058-0.689-0.019-1.386-0.019-2.077z"></path>
<path fill="#fff" d="M9.379 15.464c1.765-0.030 3.534-0.004 5.3-0.012 0.040 0.362 0.037 0.727 0.004 1.090-1.789-0.011-3.58 0.012-5.369-0.012 0.034-0.346-0.094-0.76 0.065-1.066z"></path>
<path fill="#fff" d="M9.223 16.985c0.362-0.029 0.727-0.032 1.090 0.005 0.004 0.148 0.001 0.295-0.007 0.443-0.358 0.016-0.715 0.014-1.073 0.004-0.001-0.151-0.005-0.301-0.010-0.451z"></path>
<path fill="#fff" d="M13.702 16.99c0.362-0.036 0.727-0.036 1.090-0.001 0.001 0.15-0.002 0.299-0.011 0.448-0.359 0.011-0.718 0.012-1.076-0.005-0.007-0.148-0.007-0.295-0.002-0.442z"></path>
<path fill="#000" d="M8.963 12.298c0.020-0.25 0.272-0.426 0.514-0.409 1.68-0.008 3.36-0.006 5.040-0.001 0.256-0.025 0.523 0.163 0.539 0.43 0.042 1.856 0.006 3.714-0.124 5.567-1.949 0-3.899 0.001-5.849 0-0.126-1.86-0.168-3.724-0.12-5.586M9.287 12.31c0 0.691-0.038 1.388 0.019 2.077 0.178 0.128 0.43 0.040 0.637 0.066 0.161-0.326 0.47-0.606 0.858-0.57 0.361-0.006 0.626 0.27 0.781 0.568 1.037-0.030 2.094 0.066 3.119-0.046 0.070-0.728 0.038-1.472 0.016-2.204l-0.083-0.061c-1.638-0.038-3.278-0.002-4.916-0.017-0.146 0.018-0.457-0.061-0.431 0.187M9.379 15.464c-0.158 0.306-0.031 0.72-0.065 1.066 1.789 0.024 3.58 0.001 5.369 0.012 0.034-0.362 0.036-0.727-0.004-1.090-1.766 0.008-3.535-0.018-5.3 0.012M9.223 16.985c0.005 0.15 0.008 0.3 0.010 0.451 0.358 0.011 0.715 0.012 1.073-0.004 0.008-0.148 0.011-0.295 0.007-0.443-0.362-0.037-0.727-0.034-1.090-0.005M13.702 16.99c-0.005 0.146-0.005 0.294 0.002 0.442 0.359 0.017 0.718 0.016 1.076 0.005 0.008-0.149 0.012-0.298 0.011-0.448-0.362-0.035-0.727-0.035-1.090 0.001z"></path>
<path fill="#000" d="M5.297 18.307c0.493-0.884 1.010-1.756 1.518-2.633 0.479 0.002 0.958 0.001 1.438 0.001-0.001 1.307-0.001 2.614 0 3.92-1.002 0-2.003 0-3.004 0 0.023-0.427-0.060-0.874 0.048-1.289z"></path>
<path fill="#000" d="M15.764 15.677c0.482-0.001 0.965-0.004 1.447 0.005 0.494 0.883 1.022 1.748 1.512 2.634 0.1 0.414 0.022 0.856 0.043 1.28-1.001 0-2.002 0-3.002 0 0-1.307 0-2.612 0-3.919z"></path>
<path fill="#000" d="M8.66 17.114c0.049-0.044 0.148-0.133 0.197-0.178 0.031 0.377 0.047 0.754 0.068 1.13 2.054 0.002 4.11 0 6.164 0.001 0.020-0.378 0.036-0.755 0.071-1.132 0.118 0.096 0.26 0.208 0.216 0.385-0.013 0.437-0.049 0.872-0.068 1.309-0.044 0.037-0.132 0.109-0.176 0.146 0.001 0.253-0.002 0.506 0 0.761-0.269 0.044-0.617 0.157-0.845-0.036-0.025-0.254-0.017-0.509-0.017-0.763-1.508 0.001-3.017 0.001-4.525 0-0.036 0.264 0.080 0.599-0.076 0.822-0.242 0.041-0.57 0.115-0.772-0.060-0.023-0.236-0.016-0.474-0.014-0.71-0.046-0.046-0.136-0.136-0.18-0.181-0.005-0.498-0.094-0.998-0.043-1.495z"></path>
</svg>
