<?xml version="1.0" encoding="utf-8"?>
<!-- Generated by IcoMoon.io -->
<!DOCTYPE svg PUBLIC "-//W3C//DTD SVG 1.1//EN" "http://www.w3.org/Graphics/SVG/1.1/DTD/svg11.dtd">
<svg version="1.1" xmlns="http://www.w3.org/2000/svg" xmlns:xlink="http://www.w3.org/1999/xlink" width="24" height="24" viewBox="0 0 24 24">
<path fill="#231f20" d="M11.443 0.175c0.402-0.208 0.906-0.073 1.201 0.256 3.552 3.533 7.085 7.086 10.634 10.621 0.259 0.247 0.496 0.574 0.449 0.953-0.019 0.457-0.412 0.75-0.704 1.049-3.325 3.322-6.649 6.643-9.97 9.968-0.334 0.324-0.658 0.78-1.177 0.76-0.52 0.023-0.844-0.433-1.176-0.756-3.316-3.328-6.643-6.642-9.96-9.968-0.271-0.286-0.643-0.536-0.707-0.955-0.083-0.382 0.119-0.749 0.391-1.001 3.522-3.515 7.038-7.037 10.56-10.553 0.142-0.136 0.282-0.28 0.458-0.373M11.677 0.752c-0.229 0.167-0.415 0.383-0.616 0.581-3.38 3.38-6.762 6.76-10.142 10.14-0.149 0.157-0.366 0.348-0.266 0.589 0.205 0.313 0.51 0.54 0.766 0.809 3.235 3.241 6.475 6.476 9.71 9.716 0.206 0.194 0.38 0.437 0.637 0.569 0.197 0.076 0.365-0.082 0.496-0.206 3.356-3.364 6.721-6.721 10.081-10.081 0.252-0.264 0.554-0.488 0.751-0.8 0.102-0.236-0.103-0.431-0.252-0.584-3.522-3.522-7.045-7.044-10.568-10.566-0.148-0.155-0.389-0.325-0.596-0.166z"></path>
<path fill="#231f20" d="M11.586 7.982c1.253-0.662 2.503-1.332 3.766-1.976-0.062 1.416-0.121 2.832-0.184 4.248-0.227-0.241-0.455-0.481-0.686-0.718-0.748 1.178-1.5 2.353-2.237 3.538-0.278 0.427-0.467 0.92-0.457 1.435-0.019 1.457-0.002 2.914-0.008 4.37-0.702 0.001-1.404 0.001-2.105 0 0-1.814-0.002-3.629 0-5.442-0.008-0.342 0.102-0.674 0.292-0.958 0.881-1.382 1.759-2.766 2.635-4.152-0.338-0.115-0.674-0.236-1.015-0.346z"></path>
<path fill="#fd0" d="M11.677 0.752c0.208-0.16 0.449 0.011 0.596 0.166 3.523 3.522 7.046 7.044 10.568 10.566 0.149 0.154 0.354 0.348 0.252 0.584-0.197 0.312-0.499 0.536-0.751 0.8-3.36 3.36-6.725 6.718-10.081 10.081-0.131 0.125-0.299 0.282-0.496 0.206-0.257-0.132-0.431-0.374-0.637-0.569-3.235-3.24-6.475-6.475-9.71-9.716-0.256-0.269-0.56-0.496-0.766-0.809-0.1-0.241 0.118-0.432 0.266-0.589 3.38-3.38 6.762-6.76 10.142-10.14 0.2-0.198 0.386-0.414 0.616-0.581M11.586 7.982c0.341 0.109 0.677 0.23 1.015 0.346-0.876 1.386-1.754 2.77-2.635 4.152-0.19 0.283-0.3 0.616-0.292 0.958-0.002 1.813 0 3.628 0 5.442 0.701 0.001 1.403 0.001 2.105 0 0.006-1.457-0.011-2.914 0.008-4.37-0.010-0.515 0.179-1.008 0.457-1.435 0.737-1.184 1.489-2.359 2.237-3.538 0.232 0.236 0.46 0.476 0.686 0.718 0.062-1.416 0.121-2.832 0.184-4.248-1.262 0.644-2.513 1.314-3.766 1.976z"></path>
</svg>
