<svg xmlns="http://www.w3.org/2000/svg" width="24" height="24">
    <path fill="#fde012" d="M11.746 0h.509c.27.101.528.241.731.449 3.278 3.283 6.562 6.563 9.842 9.845.41.418.865.803 1.172 1.309v.83c-.458.665-1.104 1.169-1.651 1.756-3.31 3.257-6.517 6.624-9.89 9.811h-.844c-.43-.272-.763-.66-1.121-1.014-3.16-3.16-6.319-6.322-9.48-9.48C.646 13.132.22 12.788 0 12.298v-.53c.115-.269.268-.522.475-.73C3.996 7.517 7.518 3.996 11.036.473c.202-.204.45-.353.709-.473zm.176.29c-.271.028-.481.22-.67.401C7.694 4.254 4.13 7.811.573 11.376c-.414.341-.359 1 .041 1.328 3.582 3.578 7.158 7.164 10.744 10.74.367.396 1.016.362 1.369-.035 3.581-3.582 7.165-7.16 10.742-10.746.389-.341.388-.989-.02-1.314C19.891 7.787 16.329 4.228 12.77.668c-.221-.226-.516-.431-.848-.378z"/>
    <path fill="#fde012" d="M11.926.882c.212-.089.354.138.499.251 3.52 3.523 7.046 7.037 10.561 10.564.253.187.184.512-.053.674-3.55 3.535-7.082 7.086-10.63 10.622-.155.218-.443.18-.59-.024-3.56-3.564-7.129-7.121-10.684-10.69-.304-.234-.025-.569.186-.746C4.796 7.995 8.306 4.375 11.925.882zM6.9 12.004c.26.002.521.004.781.004.09-.479.398-.96.923-1.015.617-.104 1.129.426 1.204 1.009 1.735.014 3.47.006 5.206.004.086-.556.535-1.081 1.14-1.021.556.024.9.522.992 1.025.271-.001.542-.004.814-.01l-.005-.425-.547-.012c.001-.478 0-.956-.005-1.434l-1.554-.001c-.175-.52-.344-1.04-.523-1.558l-1.58-.001c-.005-.352-.004-.703-.007-1.054-2.276-.01-4.552.02-6.828.012-.023 1.493-.004 2.986-.01 4.477zm1.651-.819c-.715.11-.883 1.178-.278 1.537.493.374 1.276.001 1.332-.602.106-.574-.508-1.092-1.054-.935zm7.321.004c-.674.113-.892 1.079-.346 1.48.48.449 1.351.097 1.41-.548.108-.577-.516-1.098-1.064-.931zm-6.964 3.578l.305.18c-.006.702-.006 1.405-.001 2.108h.428c.002-.894.006-1.788-.002-2.681-.296.007-.584.116-.73.392zm1.819-.309c-.697.442-.634 1.496-.365 2.171.38.797 1.672.443 1.643-.424.246-.812-.2-2.228-1.278-1.747zm-3.795 1.273c.438.444.876.886 1.322 1.321l.001-1.08.437-.025-.004-.439-.432-.023c-.001-.359-.001-.716-.004-1.075-.444.438-.886.876-1.321 1.321zm9.178-1.32c-.002.358-.001.715-.005 1.074-.154.007-.308.016-.462.025l-.002.434.467.028c.001.36 0 .719.002 1.079.446-.433.882-.878 1.321-1.319a86.594 86.594 0 0 0-1.321-1.321zm-3.32.896c-.004.583-.004 1.166.001 1.748h.43c.086-.421-.216-1.08.233-1.326.575.109.221.913.317 1.326h.432c.079-.413-.256-1.334.404-1.314.328.347.118.884.175 1.314h.428c-.03-.503.108-1.06-.139-1.522-.232-.359-.695-.311-1.002-.086-.384-.259-.848-.151-1.279-.14z"/>
    <path fill="#fde012" d="M13.742 10.16c-.004-.443-.004-.886.002-1.327.46-.002.919-.002 1.379.001.15.43.295.863.433 1.298-.605.01-1.21.024-1.814.028zM11.076 14.79c.87.084.77 2.14-.193 1.814-.386-.454-.466-1.568.193-1.814z"/>
    <path d="M11.922.29c.332-.053.628.152.848.378 3.559 3.56 7.121 7.12 10.679 10.681.408.325.409.973.02 1.314-3.577 3.586-7.162 7.164-10.742 10.746-.353.397-1.002.431-1.369.035-3.586-3.576-7.162-7.162-10.744-10.74-.4-.329-.455-.988-.041-1.328C4.13 7.811 7.694 4.254 11.252.691c.188-.181.398-.373.67-.401zm.004.592C8.307 4.375 4.797 7.996 1.216 11.533c-.211.178-.49.512-.186.746 3.554 3.569 7.123 7.126 10.684 10.69.148.204.436.242.59.024 3.547-3.536 7.08-7.087 10.63-10.622.236-.162.306-.487.053-.674-3.515-3.527-7.042-7.04-10.561-10.564-.145-.113-.287-.34-.499-.251z"/>
    <path d="M6.9 12.004c.006-1.492-.013-2.984.01-4.477 2.276.008 4.552-.022 6.828-.012.004.35.002.702.007 1.054l1.58.001c.179.517.348 1.038.523 1.558l1.554.001c.005.478.006.956.005 1.434l.547.012.005.425a55.06 55.06 0 0 1-.814.01c-.092-.503-.437-1.001-.992-1.025-.605-.06-1.054.466-1.14 1.021-1.735.002-3.47.011-5.206-.004-.074-.583-.587-1.114-1.204-1.009-.524.055-.833.536-.923 1.015-.26 0-.521-.001-.781-.004zm6.842-1.844c.605-.004 1.21-.018 1.814-.028a45.897 45.897 0 0 0-.433-1.298c-.46-.004-.919-.004-1.379-.001a58.69 58.69 0 0 0-.002 1.327z"/>
    <path d="M8.551 11.185c.546-.157 1.159.361 1.054.935-.056.604-.839.977-1.332.602-.605-.359-.437-1.427.278-1.537zM15.872 11.189c.548-.167 1.172.354 1.064.931-.059.646-.93.997-1.41.548-.546-.401-.329-1.367.346-1.48zM8.908 14.767c.145-.276.433-.385.73-.392.008.893.005 1.787.002 2.681h-.428c-.005-.703-.005-1.406.001-2.108a24.273 24.273 0 0 0-.305-.18zM10.727 14.458c1.078-.481 1.524.935 1.278 1.747.029.866-1.262 1.22-1.643.424-.269-.674-.332-1.729.365-2.171zm.349.332c-.659.246-.58 1.361-.193 1.814.964.325 1.063-1.73.193-1.814zM6.932 15.731c.436-.445.877-.883 1.321-1.321l.004 1.075.432.023.004.439-.437.025-.001 1.08c-.446-.436-.884-.877-1.322-1.321zM16.11 14.411c.444.437.887.875 1.321 1.321-.439.44-.875.886-1.321 1.319-.002-.36-.001-.719-.002-1.079l-.467-.028.002-.434c.154-.01.308-.018.462-.025.004-.359.002-.716.005-1.074zM12.79 15.307c.431-.011.895-.119 1.279.14.307-.224.77-.272 1.002.086.247.462.109 1.019.139 1.522h-.428c-.058-.43.152-.967-.175-1.314-.66-.02-.325.901-.404 1.314h-.432c-.096-.413.258-1.217-.317-1.326-.449.246-.146.905-.233 1.326h-.43c-.005-.582-.005-1.165-.001-1.748z"/>
</svg>
