<?xml version="1.0" encoding="utf-8"?>
<!-- Generated by IcoMoon.io -->
<!DOCTYPE svg PUBLIC "-//W3C//DTD SVG 1.1//EN" "http://www.w3.org/Graphics/SVG/1.1/DTD/svg11.dtd">
<svg version="1.1" xmlns="http://www.w3.org/2000/svg" xmlns:xlink="http://www.w3.org/1999/xlink" width="24" height="24" viewBox="0 0 24 24">
<path fill="#ed1c24" d="M11.098 2.149c0.21-0.361 0.562-0.721 1.021-0.643 0.655 0.002 1.022 0.599 1.288 1.112 3.295 5.701 6.602 11.396 9.901 17.096 0.244 0.43 0.529 0.842 0.692 1.313v0.452c-0.089 0.455-0.404 0.829-0.822 1.020h-22.187c-0.565-0.139-0.942-0.67-0.991-1.234v-0.18c0.052-0.469 0.354-0.848 0.581-1.246 3.508-5.897 7.010-11.795 10.517-17.692M3.683 19.811c5.551 0.001 11.102 0.001 16.654 0-2.773-4.81-5.546-9.62-8.324-14.426-2.78 4.806-5.557 9.616-8.329 14.426z"></path>
<path fill="#fff" d="M3.683 19.811c2.772-4.811 5.549-9.62 8.329-14.426 2.778 4.806 5.551 9.617 8.324 14.426-5.551 0.001-11.102 0.001-16.654 0M11.045 8.612c-0.193 0.206-0.149 0.504-0.144 0.762-0.35 0.257-0.553 0.671-0.571 1.102-0.456 0.271-0.737 0.72-1.040 1.136-0.302 0.276-0.628 0.553-0.722 0.974-0.184 0.082-0.389 0.16-0.485 0.352-0.056 0.278-0.025 0.564-0.029 0.846-0.059 0.090-0.116 0.181-0.174 0.274 0.104 0.17 0.151 0.358 0.14 0.562-0.266-0.001-0.534-0.001-0.8-0.002-0.203 0.456-0.344 0.936-0.47 1.418 0.13 0.066 0.26 0.132 0.392 0.194-0.036 0.091-0.108 0.272-0.144 0.364-0.073 0.001-0.217 0.004-0.29 0.005 0 0.090-0.001 0.269-0.002 0.359-0.112-0.001-0.335-0.002-0.446-0.002 0.001 0.216 0.001 0.432 0 0.649 0.259 0 0.517 0 0.776 0.004 0.112 0.391 0.44 0.764 0.882 0.722 0.463 0.068 0.793-0.319 0.938-0.712 0.167 0 0.332 0 0.499 0.001 0.085 0.445 0.496 0.792 0.96 0.715 0.426 0.029 0.71-0.34 0.836-0.702 0.166-0.001 0.332-0.001 0.499 0 0.12 0.416 0.486 0.779 0.949 0.702 0.424 0.043 0.748-0.302 0.851-0.683 0.162-0.002 0.324-0.002 0.486-0.004 0.136 0.349 0.395 0.722 0.82 0.69 0.464 0.092 0.88-0.247 0.988-0.686 0.264-0.006 0.527-0.005 0.791-0.004 0-0.22 0.002-0.44 0.006-0.66-0.098 0.004-0.296 0.011-0.395 0.016 0-0.907 0-1.813 0-2.719 0.098 0.001 0.294 0.006 0.392 0.007 0.001-0.13 0.001-0.259 0.002-0.388-0.786 0.007-1.571 0.002-2.357 0.002-0.094 0.238-0.196 0.472-0.278 0.714-0.334 0.013-0.668 0.011-1.003 0.011 0.001-0.068 0.004-0.205 0.005-0.274-0.368 0.001-0.737 0.001-1.105 0.001 0.004 0.064 0.013 0.192 0.017 0.257-0.228-0.001-0.456-0.001-0.684 0-0.004-0.33-0.202-0.707-0.566-0.725-0.413-0.073-0.739 0.336-0.706 0.725-0.305-0.002-0.611-0.001-0.917 0-0.016-0.203 0.042-0.378 0.173-0.526-0.052-0.062-0.156-0.186-0.208-0.248-0.004-0.085-0.010-0.257-0.013-0.343 0.337-0.222 0.598-0.54 0.626-0.956 0.455 0.008 0.79-0.32 1.081-0.625 0.461-0.127 0.872-0.418 1.052-0.875 0.606-0.229 0.524-0.982 0.569-1.508 0.096-0.288 0.198-0.648-0.029-0.902-0.258-0.372-0.882-0.377-1.152-0.019M6.029 18.358v0.254c3.582 0.001 7.163 0.001 10.744 0l-0.001-0.254c-3.581-0.004-7.162-0.004-10.742 0z"></path>
<path fill="#fff" d="M14.216 15.091c0.048-0.29 0.096-0.581 0.145-0.871 0.232 0 0.464 0 0.697 0.001 0.012 0.29 0.025 0.581 0.040 0.87-0.295 0.001-0.589 0-0.882 0z"></path>
<path fill="#fff" d="M15.214 14.228c0.202-0.001 0.403-0.001 0.606 0 0 0.286 0 0.57 0 0.856-0.203 0-0.404 0-0.606 0-0.001-0.286 0-0.571 0-0.856z"></path>
<path fill="#000" d="M11.045 8.612c0.27-0.358 0.894-0.353 1.152 0.019 0.227 0.254 0.125 0.614 0.029 0.902-0.044 0.527 0.037 1.279-0.569 1.508-0.18 0.457-0.592 0.748-1.052 0.875-0.292 0.305-0.626 0.634-1.081 0.625-0.029 0.416-0.289 0.734-0.626 0.956 0.004 0.086 0.010 0.258 0.013 0.343 0.052 0.062 0.156 0.186 0.208 0.248-0.131 0.148-0.188 0.323-0.173 0.526 0.306-0.001 0.612-0.002 0.917 0-0.034-0.389 0.293-0.798 0.706-0.725 0.365 0.018 0.563 0.395 0.566 0.725 0.228-0.001 0.456-0.001 0.684 0-0.004-0.065-0.013-0.193-0.017-0.257 0.368 0 0.737 0 1.105-0.001-0.001 0.068-0.004 0.205-0.005 0.274 0.335 0 0.67 0.002 1.003-0.011 0.083-0.242 0.185-0.476 0.278-0.714 0.786 0 1.571 0.005 2.357-0.002-0.001 0.128-0.001 0.258-0.002 0.388-0.098-0.001-0.294-0.006-0.392-0.007 0 0.906 0 1.812 0 2.719 0.098-0.005 0.296-0.012 0.395-0.016-0.004 0.22-0.006 0.44-0.006 0.66-0.264-0.001-0.527-0.002-0.791 0.004-0.108 0.439-0.523 0.779-0.988 0.686-0.425 0.032-0.684-0.341-0.82-0.69-0.162 0.001-0.324 0.001-0.486 0.004-0.103 0.38-0.427 0.726-0.851 0.683-0.463 0.077-0.829-0.286-0.949-0.702-0.167-0.001-0.334-0.001-0.499 0-0.126 0.362-0.41 0.731-0.836 0.702-0.464 0.077-0.875-0.27-0.96-0.715-0.167-0.001-0.332-0.001-0.499-0.001-0.145 0.392-0.475 0.78-0.938 0.712-0.442 0.042-0.77-0.331-0.882-0.722-0.259-0.004-0.517-0.004-0.776-0.004 0.001-0.217 0.001-0.433 0-0.649 0.112 0 0.335 0.001 0.446 0.002 0.001-0.090 0.002-0.269 0.002-0.359 0.073-0.001 0.217-0.004 0.29-0.005 0.036-0.091 0.108-0.272 0.144-0.364-0.132-0.062-0.263-0.128-0.392-0.194 0.126-0.482 0.268-0.962 0.47-1.418 0.266 0.001 0.534 0.001 0.8 0.002 0.011-0.204-0.036-0.391-0.14-0.562 0.058-0.092 0.115-0.184 0.174-0.274 0.004-0.282-0.028-0.568 0.029-0.846 0.096-0.192 0.301-0.27 0.485-0.352 0.095-0.421 0.42-0.698 0.722-0.974 0.304-0.416 0.584-0.865 1.040-1.136 0.018-0.431 0.221-0.845 0.571-1.102-0.005-0.258-0.049-0.556 0.144-0.762M14.216 15.091c0.293 0 0.587 0.001 0.882 0-0.014-0.289-0.028-0.58-0.040-0.87-0.233-0.001-0.466-0.001-0.697-0.001-0.049 0.29-0.097 0.581-0.145 0.871M15.214 14.228c0 0.284-0.001 0.57 0 0.856 0.202 0 0.403 0 0.606 0 0-0.286 0-0.57 0-0.856-0.203-0.001-0.404-0.001-0.606 0z"></path>
<path fill="#000" d="M6.029 18.358c3.581-0.004 7.162-0.004 10.742 0l0.001 0.254c-3.581 0.001-7.162 0.001-10.744 0v-0.254z"></path>
</svg>
