<?xml version="1.0" encoding="utf-8"?>
<!-- Generated by IcoMoon.io -->
<!DOCTYPE svg PUBLIC "-//W3C//DTD SVG 1.1//EN" "http://www.w3.org/Graphics/SVG/1.1/DTD/svg11.dtd">
<svg version="1.1" xmlns="http://www.w3.org/2000/svg" xmlns:xlink="http://www.w3.org/1999/xlink" width="24" height="24" viewBox="0 0 24 24">
<path fill="#ec1d24" d="M11.869 1.38h0.188c0.358 0.037 0.72 0.145 0.991 0.392 0.344 0.312 0.53 0.75 0.768 1.141 3.294 5.716 6.584 11.434 9.883 17.147 0.13 0.228 0.23 0.472 0.3 0.725v0.455c-0.095 0.703-0.673 1.277-1.373 1.38h-21.236c-0.552-0.094-1.061-0.454-1.264-0.984-0.212-0.488-0.126-1.057 0.149-1.501 3.439-5.963 6.874-11.928 10.312-17.891 0.256-0.48 0.745-0.793 1.282-0.864M2.519 20.5c6.326 0.001 12.654 0.001 18.98 0-3.162-5.488-6.323-10.975-9.491-16.46-3.167 5.485-6.329 10.972-9.49 16.46z"></path>
<path fill="#fff" d="M2.519 20.5c3.161-5.489 6.323-10.975 9.49-16.46 3.168 5.485 6.329 10.973 9.491 16.46-6.326 0.001-12.654 0.001-18.98 0M12.060 8.416c-0.080 0.372-0.007 0.755 0.032 1.128-0.251 0.038-0.502 0.070-0.752 0.092-0.044-0.301-0.071-0.605-0.098-0.908-0.266 0.179-0.131 0.541-0.176 0.805-0.157-0.145-0.314-0.295-0.521-0.365 0.12 0.358 0.51 0.55 0.576 0.928-0.493-0.023-0.698-0.512-1.067-0.732l-0.088 0.138c0.173 0.305 0.389 0.631 0.73 0.762 0.474 0.161 0.691 0.661 1.062 0.965 0.458 0.488 1.13 0.748 1.801 0.658-0.204 0.378-0.401 0.762-0.626 1.128-0.396-0.047-0.78 0.066-1.171 0.094-1.066-0.056-2.13-0.572-3.198-0.265-0.592 0.21-1.345 0.647-1.24 1.384-0.018 0.259 0.16 0.438 0.403 0.487 0.151 0.294 0.292 0.604 0.534 0.836 0.158 0.166 0.367 0.334 0.358 0.588 0.019 0.31-0.378 0.503-0.271 0.824 0.152 0.166 0.4 0.186 0.564 0.335 0.403 0.506 0.738 1.061 1.135 1.568 0.001 0.076 0.005 0.229 0.006 0.305 0.212 0.122 0.427 0.286 0.686 0.191-0.208-0.616-0.683-1.072-0.98-1.634 0.282 0.145 0.553 0.311 0.826 0.472 0.022 0.048 0.065 0.143 0.086 0.19 0.142 0.038 0.276 0.092 0.404 0.163-0.043 0.163-0.112 0.317-0.175 0.473 0.192 0.236 0.319 0.511 0.379 0.81 0.092-0.019 0.276-0.056 0.367-0.076-0.28-0.817-0.048-1.723 0.395-2.438 0.828 0.004 1.392-0.664 2.123-0.937 0.242-0.064 0.526-0.32 0.317-0.576-0.32-0.208-0.689-0.319-1.032-0.482 0.154-0.246 0.463-0.364 0.562-0.643 0.174-0.521 0.652-0.888 0.716-1.456 0.361-0.133 0.731-0.224 1.118-0.223 0.187-0.128 0.256-0.36 0.35-0.554-0.275-0.122-0.554-0.245-0.786-0.442-0.265-0.246-0.666-0.246-0.923-0.503 0.352-0.167 0.736-0.391 0.792-0.818-0.082 0.060-0.247 0.18-0.33 0.24-0.013-0.119-0.041-0.356-0.055-0.476-0.062 0.194-0.121 0.39-0.176 0.587-0.068-0.239-0.022-0.566-0.282-0.696 0.001 0.259 0.119 0.607-0.175 0.756-0.172 0.142-0.377 0.005-0.552-0.047 0.119-0.21 0.342-0.402 0.317-0.667-0.001-0.377-0.233-0.695-0.503-0.937-0.118 0.304 0.263 0.514 0.248 0.817 0.046 0.256-0.248 0.584-0.499 0.395-0.79-0.49-1-1.494-1.046-2.358-0.041 0.030-0.124 0.089-0.164 0.118z"></path>
<path fill="#fff" d="M11.428 9.946c0.234-0.017 0.469-0.066 0.704-0.041 0.175 0.144 0.286 0.346 0.427 0.518 0.28 0.372 0.665 0.641 0.99 0.968-0.308 0.019-0.764 0.149-0.946-0.185-0.124-0.433-0.251-0.892-0.63-1.176-0.055 0.344 0.3 0.59 0.239 0.925-0.523 0.029-0.619-0.637-0.785-1.010z"></path>
<path fill="#fff" d="M9.81 16.216c0.096-0.214 0.144-0.446 0.214-0.67 0.548 0.224 1.136 0.323 1.727 0.349-0.040 0.286-0.084 0.57-0.149 0.851-0.115 0.067-0.233 0.132-0.35 0.197 0.001 0.096 0.004 0.288 0.005 0.384l0.203 0.006c-0.079 0.259-0.156 0.521-0.229 0.782-0.649-0.518-1.511-0.73-2.064-1.372 0.224-0.16 0.511-0.27 0.644-0.528z"></path>
<path fill="#fff" d="M12.139 16.811c0.122-0.364 0.282-0.866 0.706-0.961 0.341 0.074 0.676 0.178 1.022 0.227-0.528 0.35-1.133 0.54-1.728 0.734z"></path>
<path fill="#000" d="M12.060 8.416c0.041-0.029 0.124-0.088 0.164-0.118 0.047 0.864 0.257 1.868 1.046 2.358 0.251 0.19 0.545-0.139 0.499-0.395 0.014-0.304-0.366-0.514-0.248-0.817 0.27 0.242 0.502 0.56 0.503 0.937 0.025 0.265-0.198 0.457-0.317 0.667 0.175 0.052 0.38 0.188 0.552 0.047 0.294-0.149 0.176-0.497 0.175-0.756 0.26 0.13 0.214 0.457 0.282 0.696 0.055-0.197 0.114-0.392 0.176-0.587 0.014 0.12 0.042 0.358 0.055 0.476 0.083-0.060 0.248-0.18 0.33-0.24-0.056 0.427-0.44 0.652-0.792 0.818 0.257 0.257 0.658 0.257 0.923 0.503 0.232 0.197 0.511 0.319 0.786 0.442-0.095 0.194-0.163 0.426-0.35 0.554-0.388-0.001-0.757 0.090-1.118 0.223-0.065 0.568-0.542 0.935-0.716 1.456-0.098 0.28-0.408 0.397-0.562 0.643 0.343 0.163 0.712 0.275 1.032 0.482 0.209 0.256-0.074 0.512-0.317 0.576-0.731 0.274-1.295 0.941-2.123 0.937-0.443 0.715-0.674 1.621-0.395 2.438-0.091 0.019-0.275 0.056-0.367 0.076-0.060-0.299-0.187-0.574-0.379-0.81 0.064-0.156 0.132-0.31 0.175-0.473-0.128-0.071-0.263-0.125-0.404-0.163-0.022-0.047-0.065-0.142-0.086-0.19-0.272-0.161-0.544-0.326-0.826-0.472 0.298 0.563 0.773 1.019 0.98 1.634-0.259 0.095-0.474-0.068-0.686-0.191-0.001-0.076-0.005-0.229-0.006-0.305-0.397-0.508-0.732-1.062-1.135-1.568-0.164-0.149-0.412-0.169-0.564-0.335-0.107-0.322 0.29-0.515 0.271-0.824 0.010-0.254-0.199-0.422-0.358-0.588-0.242-0.233-0.383-0.542-0.534-0.836-0.244-0.049-0.421-0.228-0.403-0.487-0.106-0.737 0.648-1.174 1.24-1.384 1.068-0.307 2.132 0.209 3.198 0.265 0.391-0.028 0.775-0.14 1.171-0.094 0.226-0.366 0.422-0.75 0.626-1.128-0.671 0.090-1.343-0.169-1.801-0.658-0.371-0.304-0.588-0.804-1.062-0.965-0.341-0.131-0.557-0.457-0.73-0.762l0.088-0.138c0.368 0.22 0.574 0.709 1.067 0.732-0.066-0.378-0.456-0.57-0.576-0.928 0.206 0.070 0.364 0.22 0.521 0.365 0.046-0.264-0.090-0.626 0.176-0.805 0.028 0.304 0.054 0.607 0.098 0.908 0.251-0.023 0.502-0.054 0.752-0.092-0.040-0.373-0.113-0.756-0.032-1.128M11.428 9.946c0.166 0.373 0.262 1.039 0.785 1.010 0.061-0.335-0.294-0.581-0.239-0.925 0.379 0.284 0.506 0.743 0.63 1.176 0.181 0.334 0.637 0.204 0.946 0.185-0.325-0.328-0.71-0.596-0.99-0.968-0.142-0.173-0.252-0.374-0.427-0.518-0.235-0.025-0.47 0.024-0.704 0.041M9.81 16.216c-0.133 0.258-0.42 0.368-0.644 0.528 0.553 0.642 1.415 0.853 2.064 1.372 0.073-0.262 0.15-0.523 0.229-0.782l-0.203-0.006c-0.001-0.096-0.004-0.288-0.005-0.384 0.118-0.065 0.235-0.13 0.35-0.197 0.065-0.281 0.109-0.565 0.149-0.851-0.59-0.026-1.178-0.125-1.727-0.349-0.070 0.223-0.118 0.456-0.214 0.67M12.139 16.811c0.595-0.194 1.2-0.384 1.728-0.734-0.347-0.049-0.682-0.152-1.022-0.227-0.424 0.095-0.583 0.598-0.706 0.961z"></path>
</svg>
