<!-- Generated by IcoMoon.io -->
<svg version="1.1" xmlns="http://www.w3.org/2000/svg" width="24" height="24" viewBox="0 0 24 24">
<title>warning--turn-left--g1</title>
<path fill="#231f20" d="M12.16 1.128c0.667-0.167 1.375 0.102 1.835 0.594 3.1 3.103 6.205 6.2 9.301 9.307 0.68 0.637 0.742 1.824 0.053 2.478-3.308 3.173-6.628 6.336-9.94 9.506-0.706 0.706-1.949 0.643-2.614-0.088-3.134-3.145-6.286-6.275-9.414-9.425-0.751-0.736-0.59-2.034 0.233-2.648 3.197-3.043 6.38-6.1 9.575-9.146 0.275-0.262 0.593-0.497 0.971-0.578M12.287 1.378c-0.415 0.066-0.737 0.359-1.031 0.637-3.205 3.076-6.431 6.131-9.63 9.211-0.622 0.55-0.602 1.591 0.002 2.146 3.118 3.122 6.24 6.24 9.359 9.362 0.563 0.624 1.628 0.7 2.227 0.086 3.295-3.146 6.589-6.294 9.884-9.44 0.632-0.551 0.611-1.604-0.001-2.161-3.071-3.088-6.156-6.162-9.23-9.246-0.396-0.434-0.986-0.716-1.58-0.595z"></path>
<path fill="#231f20" d="M12.032 1.831c0.677-0.222 1.434 0.034 1.907 0.547 2.881 2.881 5.761 5.762 8.641 8.644 0.712 0.628 0.776 1.843 0.058 2.49-3.088 2.954-6.181 5.902-9.269 8.855-0.656 0.656-1.814 0.62-2.455-0.038-2.944-2.938-5.884-5.88-8.821-8.824-0.67-0.625-0.683-1.788-0.006-2.413 2.977-2.864 5.975-5.707 8.959-8.564 0.293-0.275 0.589-0.581 0.986-0.696M12.151 2.191c-0.31 0.094-0.546 0.326-0.778 0.541-2.982 2.86-5.981 5.701-8.957 8.566-0.612 0.504-0.593 1.494-0.001 2.005 2.928 2.914 5.84 5.843 8.767 8.756 0.498 0.512 1.398 0.552 1.913 0.043 3.092-2.951 6.18-5.906 9.271-8.858 0.578-0.509 0.509-1.464-0.056-1.956-2.872-2.887-5.756-5.762-8.636-8.642-0.38-0.407-0.974-0.636-1.523-0.455z"></path>
<path fill="#231f20" d="M9.953 6.586c0.349-0.257 1.028-0.002 0.89 0.488-0.217 0.56-0.564 1.061-0.82 1.606 1.582 0.004 3.163-0.078 4.744-0.041 0.88 0.008 1.84 0.612 1.898 1.554 0.018 2.724 0.020 5.448 0.032 8.172-0.894 0.007-1.788 0.024-2.682 0.028-0.007-2.252 0.006-4.505-0.006-6.757 0.041-0.356-0.254-0.662-0.607-0.661-1.001-0.038-2.004-0.025-3.007-0.038 0.188 0.679 0.491 1.386 0.342 2.1-0.114 0.367-0.57 0.238-0.798 0.066-1.644-1.076-3.304-2.128-4.943-3.211 1.658-1.093 3.283-2.236 4.956-3.305z"></path>
<path fill="#fff100" d="M12.287 1.378c0.594-0.121 1.184 0.161 1.58 0.595 3.074 3.084 6.16 6.158 9.23 9.246 0.612 0.557 0.634 1.61 0.001 2.161-3.295 3.146-6.589 6.294-9.884 9.44-0.599 0.613-1.664 0.538-2.227-0.086-3.119-3.122-6.241-6.24-9.359-9.362-0.605-0.554-0.624-1.596-0.002-2.146 3.199-3.080 6.425-6.136 9.63-9.211 0.294-0.278 0.616-0.571 1.031-0.637M12.032 1.831c-0.397 0.115-0.694 0.421-0.986 0.696-2.984 2.857-5.982 5.7-8.959 8.564-0.677 0.625-0.664 1.788 0.006 2.413 2.938 2.944 5.878 5.886 8.821 8.824 0.641 0.659 1.799 0.695 2.455 0.038 3.088-2.953 6.181-5.9 9.269-8.855 0.719-0.647 0.654-1.862-0.058-2.49-2.88-2.881-5.76-5.762-8.641-8.644-0.473-0.514-1.23-0.769-1.907-0.547z"></path>
<path fill="#fff100" d="M12.151 2.191c0.548-0.181 1.142 0.048 1.523 0.455 2.88 2.88 5.765 5.755 8.636 8.642 0.565 0.492 0.635 1.447 0.056 1.956-3.091 2.952-6.179 5.908-9.271 8.858-0.515 0.509-1.415 0.469-1.913-0.043-2.927-2.914-5.839-5.843-8.767-8.756-0.592-0.511-0.611-1.501 0.001-2.005 2.976-2.864 5.975-5.706 8.957-8.566 0.232-0.215 0.468-0.448 0.778-0.541M9.953 6.586c-1.673 1.069-3.298 2.212-4.956 3.305 1.639 1.084 3.299 2.135 4.943 3.211 0.228 0.172 0.684 0.301 0.798-0.066 0.149-0.714-0.154-1.421-0.342-2.1 1.003 0.013 2.006 0 3.007 0.038 0.353-0.001 0.648 0.305 0.607 0.661 0.012 2.252-0.001 4.505 0.006 6.757 0.894-0.004 1.788-0.020 2.682-0.028-0.012-2.724-0.014-5.448-0.032-8.172-0.059-0.942-1.019-1.546-1.898-1.554-1.58-0.037-3.162 0.044-4.744 0.041 0.256-0.545 0.602-1.045 0.82-1.606 0.138-0.491-0.541-0.745-0.89-0.488z"></path>
</svg>
