<!-- Generated by IcoMoon.io -->
<svg version="1.1" xmlns="http://www.w3.org/2000/svg" width="27" height="24" viewBox="0 0 27 24">
<title>warning--tunnel--g7</title>
<path fill="#ce252c" d="M13.201 0h0.568c0.685 0.14 1.325 0.539 1.656 1.168 3.551 6.154 7.098 12.309 10.648 18.463 0.345 0.614 0.76 1.204 0.927 1.9v0.457c-0.124 0.688-0.495 1.356-1.124 1.698-0.532 0.327-1.176 0.296-1.776 0.288-7.033-0.002-14.067-0.001-21.1 0-0.612-0.002-1.266 0.060-1.821-0.252-0.631-0.315-1.019-0.957-1.179-1.626v-0.576c0.141-0.653 0.53-1.203 0.852-1.775 3.584-6.214 7.165-12.431 10.753-18.642 0.328-0.596 0.949-0.955 1.596-1.103M13.472 2.894c-3.553 6.19-7.15 12.356-10.685 18.556 7.14 0.006 14.279 0.003 21.419 0.002-3.441-6.032-6.942-12.032-10.397-18.057-0.096-0.177-0.208-0.346-0.337-0.501z"></path>
<path fill="#ffd100" d="M13.472 2.894c0.129 0.155 0.241 0.324 0.337 0.501 3.455 6.025 6.956 12.025 10.397 18.057-7.14 0.001-14.279 0.004-21.419-0.002 3.535-6.2 7.132-12.366 10.685-18.556M10.416 11.696c0.31 0.866 0.633 1.728 0.942 2.596 1.326-0.674 2.946-0.685 4.268 0.003 0.32-0.865 0.634-1.732 0.948-2.599-2.052-0.005-4.105-0.004-6.158 0M7.779 14.527c0.744 0.296 1.483 0.603 2.227 0.9 0.313-0.336 0.655-0.644 1.024-0.916-0.38-0.855-0.752-1.715-1.149-2.562-0.719 0.844-1.416 1.707-2.102 2.578M17.115 11.967c-0.384 0.845-0.761 1.693-1.136 2.542 0.365 0.265 0.705 0.563 1.007 0.897 0.737-0.291 1.469-0.594 2.203-0.892-0.687-0.852-1.376-1.703-2.074-2.547M10.334 15.938c-0.051 0.942-0.009 1.89-0.020 2.835 2.121 0 4.242 0.001 6.363-0.001-0.010-0.943 0.028-1.888-0.017-2.829-1.429-2.096-4.896-2.1-6.326-0.005M7.615 15c-0.007 1.32-0.010 2.64 0.001 3.959 0.732 0.010 1.464 0.004 2.196 0.004 0.009-1.076 0.014-2.152-0.003-3.227-0.73-0.249-1.457-0.51-2.194-0.736M17.19 15.799c-0.020 1.046-0.005 2.092-0.006 3.138 0.723 0.007 1.446 0.001 2.168 0.004 0.017-1.306 0.003-2.613 0.008-3.92-0.72 0.258-1.5 0.432-2.17 0.778M5.791 19.282c-0.005 0.334-0.005 0.668 0.001 1.002 5.135 0.004 10.271 0.002 15.407 0.001 0.006-0.335 0.006-0.669-0.001-1.004-5.135-0.003-10.271-0.004-15.407 0.001z"></path>
<path fill="#000" d="M10.416 11.696c2.053-0.004 4.106-0.005 6.158 0-0.314 0.867-0.628 1.734-0.948 2.599-1.322-0.688-2.942-0.677-4.268-0.003-0.309-0.868-0.632-1.73-0.942-2.596z"></path>
<path fill="#000" d="M7.779 14.527c0.686-0.871 1.383-1.734 2.102-2.578 0.397 0.847 0.769 1.707 1.149 2.562-0.369 0.272-0.711 0.58-1.024 0.916-0.744-0.297-1.483-0.604-2.227-0.9z"></path>
<path fill="#000" d="M17.115 11.967c0.698 0.844 1.387 1.695 2.074 2.547-0.734 0.298-1.466 0.601-2.203 0.892-0.302-0.334-0.642-0.632-1.007-0.897 0.375-0.849 0.752-1.697 1.136-2.542z"></path>
<path fill="#000" d="M10.334 15.938c1.43-2.095 4.897-2.091 6.326 0.005 0.045 0.941 0.007 1.886 0.017 2.829-2.121 0.002-4.242 0.001-6.363 0.001 0.011-0.945-0.031-1.893 0.020-2.835z"></path>
<path fill="#000" d="M7.615 15c0.737 0.226 1.464 0.487 2.194 0.736 0.017 1.075 0.012 2.151 0.003 3.227-0.732 0-1.464 0.006-2.196-0.004-0.011-1.319-0.008-2.639-0.001-3.959z"></path>
<path fill="#000" d="M17.19 15.799c0.67-0.346 1.45-0.52 2.17-0.778-0.005 1.307 0.009 2.614-0.008 3.92-0.722-0.003-1.445 0.003-2.168-0.004 0.001-1.046-0.014-2.092 0.006-3.138z"></path>
<path fill="#000" d="M5.791 19.282c5.136-0.005 10.272-0.004 15.407-0.001 0.007 0.335 0.007 0.669 0.001 1.004-5.136 0.001-10.272 0.003-15.407-0.001-0.006-0.334-0.006-0.668-0.001-1.002z"></path>
</svg>
