<?xml version="1.0" encoding="utf-8"?>
<!-- Generated by IcoMoon.io -->
<!DOCTYPE svg PUBLIC "-//W3C//DTD SVG 1.1//EN" "http://www.w3.org/Graphics/SVG/1.1/DTD/svg11.dtd">
<svg version="1.1" xmlns="http://www.w3.org/2000/svg" xmlns:xlink="http://www.w3.org/1999/xlink" width="24" height="24" viewBox="0 0 24 24">
<path fill="#ee1c23" d="M11.884 1.5h0.212c0.254 0.096 0.445 0.293 0.572 0.529 3.542 6.14 7.084 12.282 10.625 18.424 0.25 0.445 0.546 0.87 0.707 1.36v0.163c-0.060 0.289-0.305 0.452-0.574 0.524h-22.832c-0.263-0.056-0.49-0.211-0.594-0.463v-0.211c0.14-0.47 0.425-0.876 0.664-1.3 3.556-6.167 7.112-12.332 10.668-18.499 0.125-0.229 0.311-0.42 0.552-0.527M3.86 19.996c5.426 0.001 10.853 0.001 16.279 0-2.713-4.705-5.423-9.413-8.141-14.116-2.716 4.703-5.426 9.409-8.138 14.116z"></path>
<path fill="#fff" d="M3.86 19.996c2.712-4.706 5.423-9.413 8.138-14.116 2.718 4.703 5.428 9.41 8.141 14.116-5.426 0.001-10.853 0.001-16.279 0M11.326 10.808c-0.326 0.13-0.468 0.475-0.65 0.749-0.214 0.029-0.478 0.030-0.593 0.25-0.232 0.364-0.464 0.73-0.658 1.116-0.122 0.205 0.017 0.419 0.091 0.612-0.056 0.144-0.142 0.282-0.16 0.438 0.018 0.259 0.328 0.438 0.556 0.304 0.122-0.094 0.203-0.229 0.301-0.346 0.754 0.45 1.516 0.884 2.263 1.343-0.118 0.234-0.284 0.594 0.024 0.761 0.284 0.186 0.512-0.11 0.648-0.325 0.209-0.028 0.468-0.012 0.593-0.22 0.25-0.372 0.48-0.76 0.686-1.158 0.12-0.197-0.029-0.401-0.086-0.587 0.158-0.3 0.412-0.606 0.342-0.968-0.042-0.349-0.346-0.563-0.626-0.721-0.661-0.382-1.312-0.784-1.972-1.169-0.226-0.14-0.511-0.176-0.76-0.078M7.53 15.269c-0.268 0.216-0.202 0.65 0.038 0.86 0.364 0.33 0.868 0.422 1.326 0.547-0.025 0.161-0.136 0.362 0.010 0.5 0.39 0.52 1.15 0.494 1.554 0.992-0.11 0.116-0.202 0.292-0.38 0.307-0.577 0.076-1.124-0.176-1.675-0.307 0.228 0.374 0.679 0.506 1.080 0.602 0.482 0.065 0.997 0.085 1.457-0.097 0.234-0.089 0.349-0.384 0.21-0.6-0.331-0.66-1.357-0.503-1.591-1.249 1.582 0.263 3.175 0.493 4.726 0.917 0.424 0.127 0.874 0.244 1.219 0.533 0.22 0.176 0.070 0.534-0.158 0.628-0.379 0.173-0.802 0.044-1.195 0.014 0.19 0.348 0.623 0.355 0.972 0.362 0.424 0.001 0.908-0.026 1.228-0.343 0.359-0.401 0.032-1.042-0.413-1.217-0.601-0.247-1.252-0.338-1.88-0.49-1.392-0.27-2.792-0.492-4.198-0.679 0.38-0.168 0.762-0.348 1.174-0.422 0.347-0.088 0.718-0.038 1.054-0.173-0.988-0.124-2.090-0.156-2.945 0.437-0.424-0.084-1.010-0.308-0.96-0.84 0.33-0.469 0.992-0.44 1.494-0.582-0.23-0.179-0.534-0.080-0.799-0.079-0.46 0.058-0.965 0.085-1.345 0.378z"></path>
<path fill="#fff" d="M11.177 11.872c0.149-0.178 0.208-0.478 0.461-0.536 0.784 0.403 1.522 0.89 2.282 1.336 0.38 0.178 0.018 0.54-0.095 0.78-0.884-0.524-1.768-1.051-2.648-1.579z"></path>
<path fill="#000" d="M11.326 10.808c0.248-0.098 0.534-0.062 0.76 0.078 0.66 0.385 1.31 0.787 1.972 1.169 0.281 0.158 0.584 0.372 0.626 0.721 0.070 0.362-0.184 0.668-0.342 0.968 0.058 0.186 0.206 0.39 0.086 0.587-0.206 0.398-0.437 0.786-0.686 1.158-0.125 0.208-0.384 0.192-0.593 0.22-0.136 0.215-0.364 0.511-0.648 0.325-0.308-0.167-0.142-0.527-0.024-0.761-0.748-0.458-1.51-0.893-2.263-1.343-0.098 0.116-0.179 0.252-0.301 0.346-0.228 0.134-0.538-0.044-0.556-0.304 0.018-0.156 0.103-0.294 0.16-0.438-0.074-0.193-0.214-0.407-0.091-0.612 0.193-0.386 0.426-0.752 0.658-1.116 0.115-0.22 0.379-0.221 0.593-0.25 0.182-0.274 0.324-0.619 0.65-0.749M11.177 11.872c0.881 0.528 1.764 1.055 2.648 1.579 0.113-0.24 0.475-0.602 0.095-0.78-0.761-0.445-1.499-0.932-2.282-1.336-0.253 0.059-0.312 0.359-0.461 0.536z"></path>
<path fill="#000" d="M7.53 15.269c0.38-0.293 0.886-0.32 1.345-0.378 0.265-0.001 0.569-0.1 0.799 0.079-0.502 0.142-1.164 0.113-1.494 0.582-0.050 0.532 0.536 0.756 0.96 0.84 0.854-0.593 1.957-0.56 2.945-0.437-0.336 0.134-0.707 0.085-1.054 0.173-0.412 0.074-0.793 0.254-1.174 0.422 1.405 0.187 2.806 0.409 4.198 0.679 0.629 0.151 1.279 0.242 1.88 0.49 0.445 0.175 0.772 0.816 0.413 1.217-0.319 0.317-0.804 0.344-1.228 0.343-0.349-0.007-0.782-0.014-0.972-0.362 0.394 0.030 0.816 0.158 1.195-0.014 0.228-0.094 0.378-0.451 0.158-0.628-0.346-0.289-0.796-0.406-1.219-0.533-1.55-0.424-3.144-0.654-4.726-0.917 0.234 0.746 1.26 0.589 1.591 1.249 0.139 0.216 0.024 0.511-0.21 0.6-0.46 0.182-0.974 0.162-1.457 0.097-0.401-0.096-0.852-0.228-1.080-0.602 0.551 0.131 1.098 0.383 1.675 0.307 0.179-0.016 0.27-0.191 0.38-0.307-0.404-0.498-1.164-0.473-1.554-0.992-0.145-0.138-0.035-0.34-0.010-0.5-0.458-0.125-0.962-0.217-1.326-0.547-0.24-0.21-0.306-0.644-0.038-0.86z"></path>
</svg>
