<?xml version="1.0" encoding="utf-8"?>
<!-- Generated by IcoMoon.io -->
<!DOCTYPE svg PUBLIC "-//W3C//DTD SVG 1.1//EN" "http://www.w3.org/Graphics/SVG/1.1/DTD/svg11.dtd">
<svg version="1.1" xmlns="http://www.w3.org/2000/svg" xmlns:xlink="http://www.w3.org/1999/xlink" width="24" height="24" viewBox="0 0 24 24">
<path fill="#ffd520" d="M11.58 0.209c0.294-0.217 0.722-0.131 0.958 0.131 3.697 3.674 7.394 7.35 11.087 11.028 0.331 0.271 0.413 0.812 0.077 1.114-3.607 3.596-7.222 7.183-10.826 10.781-0.256 0.239-0.49 0.581-0.874 0.592-0.397 0.020-0.642-0.328-0.896-0.571-3.611-3.593-7.223-7.184-10.834-10.776-0.248-0.22-0.33-0.617-0.14-0.899 0.163-0.238 0.385-0.427 0.586-0.632 3.409-3.389 6.82-6.775 10.226-10.165 0.21-0.204 0.404-0.425 0.637-0.601M11.807 0.342c-0.318 0.197-0.554 0.496-0.822 0.75-3.368 3.349-6.732 6.701-10.104 10.045-0.211 0.224-0.47 0.419-0.607 0.7-0.076 0.218 0.065 0.419 0.214 0.563 3.696 3.672 7.388 7.349 11.083 11.022 0.192 0.244 0.566 0.287 0.774 0.036 3.72-3.685 7.422-7.39 11.14-11.078 0.179-0.154 0.295-0.431 0.14-0.643-0.257-0.346-0.596-0.618-0.893-0.928-3.407-3.396-6.82-6.785-10.224-10.182-0.182-0.181-0.422-0.408-0.701-0.284z"></path>
<path fill="#ffd520" d="M11.35 1.207c0.204-0.205 0.414-0.404 0.632-0.593 3.818 3.766 7.616 7.554 11.406 11.348-3.781 3.806-7.596 7.582-11.404 11.362-0.23-0.2-0.45-0.413-0.665-0.63-3.58-3.581-7.183-7.138-10.754-10.728 3.58-3.602 7.195-7.168 10.784-10.759M13.474 8.816c-0.572-0.152-1.15-0.284-1.733-0.386-0.154 0.325-0.308 0.652-0.428 0.991 0.277 0.095 0.554 0.187 0.83 0.283 0.209-0.239 0.467-0.546 0.827-0.44 0.438 0.053 0.604 0.509 0.59 0.895 0.846 0.275 1.686 0.57 2.531 0.848 0.215-0.307 0.594-0.593 0.98-0.402 0.358 0.128 0.426 0.533 0.428 0.865 0.436 0.131 0.869 0.27 1.298 0.418 0.002-0.39 0.023-0.78 0.061-1.169-0.4-0.18-0.797-0.362-1.201-0.526-0.181-0.367-0.356-0.738-0.535-1.106-0.816-0.262-1.626-0.538-2.442-0.799-0.403 0.176-0.808 0.347-1.207 0.528M5.976 10.1c-0.083 0.018-0.247 0.052-0.33 0.070-0.002-0.055-0.006-0.164-0.008-0.22 0.086-0.040 0.257-0.119 0.342-0.158-0.31-0.055-0.626-0.049-0.936 0 0.12 0.052 0.362 0.155 0.484 0.206-0.274 0.368-0.666 0.613-1.024 0.889-0.166-0.101-0.332-0.199-0.49-0.314 0.058 0.116 0.172 0.347 0.228 0.462-0.149 0.163-0.29 0.334-0.422 0.511 0.349 0.308 0.696 0.62 1.062 0.91 0.061 0.208 0.067 0.475 0.287 0.587 0.344 0.217 0.833-0.107 0.772-0.506-0.007-0.286-0.316-0.376-0.504-0.521 0.19-0.055 0.398-0.073 0.566-0.188 0.247-0.139 0.486-0.474 0.779-0.226 0.194 0.038 0.391 0.071 0.588 0.095 0.198-0.089 0.4-0.17 0.599-0.259 0.102-0.128 0.21-0.252 0.322-0.373 0.106-0.353 0.103-0.719 0.053-1.080-0.179-0.209-0.37-0.408-0.575-0.592-0.022-0.011-0.064-0.035-0.085-0.046-0.288-0.061-0.582-0.085-0.864 0.018 0.061-0.149 0.121-0.298 0.176-0.448-0.388 0.35-0.906 0.629-1.019 1.183M12.623 9.446c-0.38 0.16-0.398 0.776-0.012 0.938 0.342 0.21 0.822-0.096 0.782-0.492-0.008-0.366-0.449-0.619-0.77-0.446M17.755 9.44c0.234 0.346 0.674 0.373 1.031 0.515 0.848 0.258 1.67 0.608 2.538 0.794-0.158-0.313-0.524-0.349-0.818-0.457-0.918-0.28-1.811-0.652-2.75-0.852M9.658 10.316c-1.999 1.39-3.988 2.795-5.982 4.189 0.3 0.299 0.602 0.596 0.9 0.899 4.936 0 9.871 0 14.808-0.001 0.678-0.682 1.362-1.358 2.045-2.036-3.322-1.116-6.649-2.216-9.979-3.31-0.596-0.223-1.282-0.115-1.792 0.259M16.573 10.754c-0.293 0.125-0.401 0.532-0.208 0.786 0.22 0.32 0.782 0.286 0.925-0.092 0.223-0.424-0.302-0.929-0.718-0.694M19.121 11.046c0.734 0.221 1.445 0.518 2.192 0.696-0.106-0.122-0.191-0.281-0.361-0.319-0.604-0.217-1.22-0.398-1.826-0.61-0.001 0.059-0.004 0.175-0.005 0.233M19.013 11.762c0.12 0.163 0.277 0.295 0.475 0.343 0.611 0.184 1.2 0.443 1.83 0.556-0.102-0.121-0.193-0.268-0.36-0.302-0.644-0.21-1.279-0.46-1.945-0.596z"></path>
<path fill="#ffd520" d="M13.729 8.885c0.316-0.142 0.631-0.284 0.949-0.421 0.343 0.113 0.684 0.23 1.024 0.353-0.074 0.218-0.149 0.437-0.222 0.655-0.584-0.192-1.168-0.391-1.751-0.587z"></path>
<path fill="#ffd520" d="M15.918 8.869c0.264 0.085 0.528 0.173 0.79 0.264 0.012 0.252 0.023 0.503 0.035 0.755-0.349-0.118-0.698-0.235-1.048-0.352 0.074-0.223 0.149-0.445 0.223-0.667z"></path>
<path fill="#ffd520" d="M6.979 10.044c0.316-0.163 0.738 0.101 0.708 0.46 0 0.366-0.466 0.594-0.761 0.386-0.313-0.182-0.277-0.702 0.053-0.846z"></path>
<path fill="#ffd520" d="M5.198 12.564c0.108-0.173 0.307-0.112 0.474-0.092-0.050 0.096-0.152 0.288-0.203 0.384-0.090-0.097-0.184-0.192-0.271-0.292z"></path>
<path fill="#000" d="M11.807 0.342c0.278-0.124 0.518 0.103 0.701 0.284 3.404 3.397 6.817 6.786 10.224 10.182 0.296 0.31 0.636 0.582 0.893 0.928 0.155 0.212 0.038 0.49-0.14 0.643-3.718 3.689-7.42 7.393-11.14 11.078-0.208 0.251-0.582 0.208-0.774-0.036-3.695-3.673-7.387-7.35-11.083-11.022-0.149-0.144-0.289-0.344-0.214-0.563 0.137-0.281 0.396-0.475 0.607-0.7 3.372-3.344 6.736-6.696 10.104-10.045 0.268-0.254 0.504-0.553 0.822-0.75M11.35 1.207c-3.589 3.592-7.205 7.157-10.784 10.759 3.571 3.59 7.175 7.147 10.754 10.728 0.215 0.217 0.434 0.43 0.665 0.63 3.808-3.78 7.622-7.555 11.404-11.362-3.79-3.794-7.588-7.583-11.406-11.348-0.218 0.188-0.428 0.388-0.632 0.593z"></path>
<path fill="#000" d="M13.474 8.816c0.4-0.181 0.804-0.352 1.207-0.528 0.816 0.262 1.626 0.538 2.442 0.799 0.179 0.368 0.354 0.739 0.535 1.106 0.404 0.163 0.802 0.346 1.201 0.526-0.038 0.389-0.059 0.779-0.061 1.169-0.43-0.148-0.863-0.287-1.298-0.418-0.002-0.332-0.071-0.737-0.428-0.865-0.386-0.191-0.766 0.095-0.98 0.402-0.845-0.278-1.685-0.574-2.531-0.848 0.013-0.386-0.152-0.842-0.59-0.895-0.36-0.106-0.618 0.202-0.827 0.44-0.276-0.096-0.553-0.188-0.83-0.283 0.12-0.34 0.275-0.666 0.428-0.991 0.583 0.102 1.16 0.234 1.733 0.386M13.729 8.885c0.583 0.196 1.166 0.395 1.751 0.587 0.073-0.218 0.148-0.437 0.222-0.655-0.34-0.122-0.68-0.24-1.024-0.353-0.318 0.137-0.634 0.28-0.949 0.421M15.918 8.869c-0.074 0.222-0.149 0.444-0.223 0.667 0.349 0.116 0.698 0.234 1.048 0.352-0.012-0.252-0.023-0.503-0.035-0.755-0.262-0.091-0.526-0.179-0.79-0.264z"></path>
<path fill="#000" d="M5.976 10.1c0.113-0.554 0.631-0.833 1.019-1.183-0.055 0.15-0.115 0.299-0.176 0.448 0.282-0.103 0.576-0.079 0.864-0.018 0.022 0.011 0.064 0.035 0.085 0.046 0.205 0.184 0.396 0.383 0.575 0.592 0.050 0.361 0.053 0.727-0.053 1.080-0.112 0.121-0.22 0.245-0.322 0.373-0.199 0.089-0.401 0.17-0.599 0.259-0.197-0.024-0.394-0.056-0.588-0.095-0.293-0.248-0.532 0.086-0.779 0.226-0.168 0.115-0.377 0.133-0.566 0.188 0.188 0.145 0.497 0.235 0.504 0.521 0.061 0.4-0.427 0.724-0.772 0.506-0.22-0.112-0.226-0.379-0.287-0.587-0.366-0.289-0.713-0.601-1.062-0.91 0.132-0.178 0.274-0.348 0.422-0.511-0.056-0.115-0.17-0.346-0.228-0.462 0.157 0.115 0.324 0.214 0.49 0.314 0.358-0.276 0.75-0.521 1.024-0.889-0.121-0.052-0.364-0.155-0.484-0.206 0.31-0.049 0.626-0.055 0.936 0-0.085 0.040-0.256 0.119-0.342 0.158 0.002 0.055 0.006 0.164 0.008 0.22 0.083-0.018 0.247-0.052 0.33-0.070M6.979 10.044c-0.33 0.144-0.366 0.664-0.053 0.846 0.295 0.208 0.761-0.020 0.761-0.386 0.030-0.359-0.392-0.623-0.708-0.46M5.198 12.564c0.088 0.1 0.181 0.194 0.271 0.292 0.050-0.096 0.152-0.288 0.203-0.384-0.167-0.019-0.366-0.080-0.474 0.092z"></path>
<path fill="#000" d="M12.623 9.446c0.322-0.173 0.762 0.080 0.77 0.446 0.040 0.396-0.44 0.702-0.782 0.492-0.386-0.162-0.368-0.779 0.012-0.938z"></path>
<path fill="#000" d="M17.755 9.44c0.94 0.2 1.832 0.572 2.75 0.852 0.294 0.108 0.66 0.144 0.818 0.457-0.868-0.186-1.69-0.536-2.538-0.794-0.356-0.142-0.797-0.169-1.031-0.515z"></path>
<path fill="#000" d="M9.658 10.316c0.51-0.374 1.195-0.482 1.792-0.259 3.33 1.093 6.658 2.194 9.979 3.31-0.683 0.678-1.367 1.355-2.045 2.036-4.937 0.001-9.872 0.001-14.808 0.001-0.298-0.302-0.6-0.6-0.9-0.899 1.994-1.394 3.983-2.8 5.982-4.189z"></path>
<path fill="#000" d="M16.573 10.754c0.415-0.235 0.941 0.27 0.718 0.694-0.143 0.378-0.706 0.413-0.925 0.092-0.193-0.254-0.085-0.661 0.208-0.786z"></path>
<path fill="#000" d="M19.121 11.046c0.001-0.058 0.004-0.174 0.005-0.233 0.606 0.211 1.223 0.392 1.826 0.61 0.17 0.038 0.256 0.197 0.361 0.319-0.748-0.178-1.458-0.475-2.192-0.696z"></path>
<path fill="#000" d="M19.013 11.762c0.666 0.137 1.301 0.386 1.945 0.596 0.167 0.035 0.258 0.181 0.36 0.302-0.63-0.113-1.219-0.372-1.83-0.556-0.198-0.048-0.355-0.18-0.475-0.343z"></path>
</svg>
