<?xml version="1.0" encoding="utf-8"?>
<!-- Generated by IcoMoon.io -->
<!DOCTYPE svg PUBLIC "-//W3C//DTD SVG 1.1//EN" "http://www.w3.org/Graphics/SVG/1.1/DTD/svg11.dtd">
<svg version="1.1" xmlns="http://www.w3.org/2000/svg" xmlns:xlink="http://www.w3.org/1999/xlink" width="24" height="24" viewBox="0 0 24 24">
<path fill="#ee1c23" d="M11.89 1.5h0.2c0.295 0.092 0.481 0.344 0.623 0.604 3.552 6.169 7.111 12.335 10.666 18.504 0.226 0.392 0.481 0.773 0.622 1.207v0.176c-0.065 0.283-0.307 0.444-0.576 0.509h-22.828c-0.268-0.056-0.512-0.203-0.596-0.476v-0.199c0.058-0.184 0.132-0.36 0.223-0.529 3.616-6.269 7.23-12.539 10.842-18.809 0.223-0.365 0.392-0.823 0.824-0.986M3.86 19.994c5.426 0.001 10.852 0.004 16.278-0.001-2.713-4.704-5.423-9.412-8.14-14.114-2.716 4.704-5.426 9.41-8.138 14.116z"></path>
<path fill="#fff" d="M3.86 19.994c2.712-4.705 5.423-9.412 8.138-14.116 2.717 4.703 5.426 9.41 8.14 14.114-5.426 0.005-10.852 0.002-16.278 0.001M10.037 10.781c-0.012 0.974 0.023 1.952-0.014 2.926-0.241 0.518-0.898 0.821-0.922 1.456-0.004 1.358 0.001 2.716-0.001 4.074 0.493 0 0.986 0 1.48 0 0.013-1.379-0.025-2.761 0.018-4.139 0.018-0.62 0.834-0.845 0.774-1.472-0.005-0.948-0.002-1.897-0.004-2.845-0.444 0-0.887 0.001-1.331 0.001M12.575 10.781c0 2.818 0 5.636 0 8.455 0.46 0 0.92 0 1.38 0 0.001-2.819 0-5.638 0.001-8.455-0.461-0.001-0.922-0.001-1.381 0z"></path>
<path fill="#000" d="M10.037 10.781c0.444 0 0.887-0.001 1.331-0.001 0.001 0.948-0.001 1.897 0.004 2.845 0.060 0.628-0.756 0.852-0.774 1.472-0.043 1.378-0.005 2.76-0.018 4.139-0.493 0-0.986 0-1.48 0 0.002-1.358-0.002-2.716 0.001-4.074 0.024-0.635 0.68-0.937 0.922-1.456 0.037-0.973 0.002-1.951 0.014-2.926z"></path>
<path fill="#000" d="M12.575 10.781c0.46-0.001 0.92-0.001 1.381 0-0.001 2.818 0 5.636-0.001 8.455-0.46 0-0.92 0-1.38 0 0-2.819 0-5.638 0-8.455z"></path>
</svg>
