<!-- Generated by IcoMoon.io -->
<svg version="1.1" xmlns="http://www.w3.org/2000/svg" width="24" height="24" viewBox="0 0 24 24">
<title>warning--railroad-intersection--g6</title>
<path fill="#ffd033" d="M11.704 0h0.517c0.294 0.134 0.565 0.314 0.791 0.546 3.494 3.506 7.002 7 10.498 10.505 0.529 0.456 0.552 1.331 0.023 1.795-3.562 3.562-7.126 7.122-10.686 10.687-0.438 0.5-1.274 0.526-1.728 0.032-3.343-3.337-6.68-6.682-10.022-10.021-0.397-0.4-0.847-0.772-1.096-1.291v-0.518c0.2-0.58 0.703-0.956 1.114-1.381 3.28-3.281 6.563-6.559 9.84-9.842 0.215-0.217 0.473-0.385 0.75-0.511M11.568 0.421c-0.174 0.095-0.316 0.235-0.457 0.37-3.475 3.485-6.961 6.96-10.438 10.444-0.431 0.359-0.451 1.062-0.025 1.433 3.541 3.541 7.085 7.080 10.627 10.62 0.34 0.394 1 0.413 1.351 0.024 3.548-3.534 7.085-7.081 10.63-10.619 0.424-0.356 0.454-1.049 0.035-1.42-3.516-3.527-7.042-7.044-10.561-10.567-0.282-0.323-0.762-0.491-1.162-0.284z"></path>
<path fill="#ffd033" d="M11.695 0.9c0.224-0.193 0.534-0.055 0.704 0.14 3.498 3.502 7.003 6.998 10.5 10.502 0.266 0.202 0.3 0.607 0.022 0.814-3.517 3.523-7.040 7.042-10.558 10.564-0.185 0.235-0.552 0.282-0.752 0.040-3.547-3.535-7.086-7.081-10.625-10.626-0.289-0.227-0.187-0.63 0.076-0.829 3.55-3.529 7.064-7.097 10.633-10.604M10.494 3.505c0.002 1.254-0.002 2.508 0.001 3.762 0.982 0.962 1.956 1.932 2.934 2.897 0.004-2.22 0.002-4.44 0.001-6.66-0.979 0.001-1.957-0.002-2.936 0.001M8.254 7.43c0.174 0.176 0.349 0.35 0.523 0.527-0.268 0.278-0.54 0.552-0.821 0.818-0.19-0.176-0.378-0.352-0.569-0.526-0.060 0.068-0.182 0.205-0.242 0.274 0.176 0.18 0.353 0.36 0.529 0.541-0.185 0.184-0.371 0.367-0.556 0.552 0.186 0.187 0.372 0.373 0.558 0.56 0.186-0.185 0.37-0.372 0.556-0.557 0.188 0.185 0.376 0.37 0.563 0.556-0.182 0.185-0.367 0.367-0.551 0.551 0.179 0.19 0.36 0.376 0.54 0.564 0.19-0.186 0.378-0.373 0.569-0.558 0.179 0.18 0.359 0.36 0.539 0.541-0.185 0.184-0.371 0.367-0.556 0.551 0.185 0.191 0.372 0.378 0.564 0.563 0.181-0.184 0.362-0.368 0.545-0.551 0.186 0.181 0.372 0.364 0.559 0.545-0.185 0.188-0.371 0.374-0.556 0.564 0.185 0.186 0.371 0.372 0.557 0.559 0.186-0.186 0.371-0.374 0.557-0.56 0.185 0.185 0.37 0.37 0.554 0.554-0.186 0.186-0.373 0.371-0.559 0.558 0.184 0.184 0.366 0.367 0.55 0.551 0.187-0.185 0.372-0.371 0.559-0.556 0.186 0.184 0.371 0.368 0.556 0.553-0.182 0.192-0.367 0.382-0.548 0.574 0.184 0.18 0.365 0.36 0.547 0.541 0.187-0.186 0.374-0.373 0.563-0.557 0.182 0.182 0.364 0.366 0.546 0.548-0.182 0.184-0.366 0.365-0.548 0.548 0.175 0.187 0.352 0.374 0.529 0.56 0.193-0.18 0.383-0.365 0.576-0.545 0.187 0.18 0.371 0.365 0.559 0.546 0.065-0.068 0.194-0.204 0.259-0.272-0.184-0.187-0.368-0.372-0.552-0.559 0.274-0.277 0.548-0.552 0.827-0.824 0.19 0.185 0.377 0.372 0.565 0.557 0.085-0.089 0.17-0.178 0.257-0.266-0.184-0.188-0.37-0.374-0.553-0.562 0.185-0.186 0.372-0.37 0.558-0.554-0.185-0.186-0.371-0.371-0.557-0.556-0.185 0.186-0.37 0.374-0.556 0.56-0.182-0.184-0.365-0.367-0.547-0.551 0.185-0.191 0.373-0.379 0.559-0.569-0.188-0.176-0.378-0.354-0.566-0.532-0.178 0.18-0.353 0.362-0.53 0.542-0.191-0.182-0.38-0.366-0.57-0.55 0.182-0.187 0.367-0.372 0.55-0.559-0.179-0.181-0.358-0.362-0.536-0.544-0.193 0.184-0.384 0.371-0.578 0.554-0.175-0.19-0.353-0.377-0.529-0.565 0.184-0.182 0.368-0.364 0.551-0.547-0.186-0.187-0.371-0.372-0.557-0.558-0.19 0.185-0.376 0.372-0.564 0.558-0.187-0.188-0.373-0.376-0.559-0.563 0.186-0.186 0.373-0.368 0.558-0.553-0.186-0.186-0.373-0.371-0.562-0.554-0.184 0.182-0.366 0.366-0.551 0.547-0.178-0.179-0.356-0.358-0.534-0.536 0.182-0.191 0.37-0.379 0.553-0.57-0.19-0.179-0.376-0.362-0.564-0.542-0.181 0.181-0.36 0.364-0.541 0.545-0.191-0.18-0.38-0.361-0.569-0.544 0.184-0.191 0.371-0.379 0.554-0.57-0.182-0.18-0.365-0.361-0.547-0.541-0.191 0.181-0.38 0.365-0.571 0.547-0.18-0.181-0.36-0.361-0.541-0.541-0.083 0.094-0.166 0.187-0.247 0.281M10.496 13.754c-0.007 2.216 0 4.433-0.004 6.649 0.978 0.008 1.956 0.004 2.934 0.002-0.011-1.241 0.029-2.485-0.012-3.725-0.916-1.024-1.948-1.951-2.918-2.927z"></path>
<path fill="#ffd033" d="M8.507 9.349c0.272-0.283 0.548-0.562 0.829-0.835 0.187 0.188 0.374 0.378 0.562 0.569-0.278 0.275-0.554 0.551-0.83 0.829-0.186-0.188-0.373-0.376-0.56-0.563z"></path>
<path fill="#ffd033" d="M9.618 10.465c0.276-0.282 0.554-0.562 0.836-0.836 0.18 0.179 0.359 0.358 0.539 0.536-0.275 0.284-0.552 0.564-0.833 0.842-0.18-0.181-0.361-0.362-0.542-0.542z"></path>
<path fill="#ffd033" d="M10.723 11.56c0.274-0.277 0.548-0.554 0.826-0.828 0.186 0.186 0.372 0.372 0.558 0.558-0.275 0.277-0.55 0.556-0.827 0.833-0.185-0.188-0.371-0.376-0.557-0.563z"></path>
<path fill="#ffd033" d="M12.654 11.855c0.19 0.176 0.379 0.354 0.569 0.53-0.275 0.289-0.559 0.57-0.851 0.842-0.175-0.185-0.35-0.371-0.524-0.557 0.272-0.269 0.541-0.54 0.806-0.816z"></path>
<path fill="#ffd033" d="M12.942 13.786c0.275-0.287 0.554-0.568 0.838-0.846 0.179 0.193 0.358 0.385 0.535 0.578-0.275 0.27-0.546 0.544-0.816 0.818-0.186-0.182-0.372-0.367-0.557-0.551z"></path>
<path fill="#ffd033" d="M14.046 14.888c0.276-0.277 0.552-0.554 0.832-0.828 0.182 0.181 0.365 0.364 0.547 0.546-0.272 0.281-0.548 0.558-0.826 0.834-0.185-0.185-0.368-0.368-0.553-0.552z"></path>
<path fill="#000" d="M11.568 0.421c0.4-0.206 0.88-0.038 1.162 0.284 3.52 3.523 7.045 7.040 10.561 10.567 0.419 0.371 0.389 1.063-0.035 1.42-3.545 3.538-7.081 7.085-10.63 10.619-0.352 0.389-1.012 0.37-1.351-0.024-3.542-3.54-7.086-7.079-10.627-10.62-0.426-0.371-0.406-1.074 0.025-1.433 3.476-3.484 6.962-6.959 10.438-10.444 0.142-0.134 0.283-0.275 0.457-0.37M11.695 0.9c-3.569 3.508-7.084 7.075-10.633 10.604-0.263 0.199-0.365 0.602-0.076 0.829 3.539 3.545 7.078 7.091 10.625 10.626 0.2 0.242 0.568 0.196 0.752-0.040 3.517-3.522 7.040-7.040 10.558-10.564 0.278-0.206 0.245-0.612-0.022-0.814-3.497-3.504-7.002-7.001-10.5-10.502-0.17-0.196-0.48-0.334-0.704-0.14z"></path>
<path fill="#000" d="M10.494 3.505c0.979-0.004 1.957 0 2.936-0.001 0.001 2.22 0.002 4.44-0.001 6.66-0.978-0.965-1.952-1.934-2.934-2.897-0.004-1.254 0.001-2.508-0.001-3.762z"></path>
<path fill="#000" d="M8.254 7.43c0.082-0.094 0.164-0.187 0.247-0.281 0.181 0.18 0.361 0.36 0.541 0.541 0.191-0.182 0.38-0.366 0.571-0.547 0.182 0.18 0.365 0.361 0.547 0.541-0.184 0.191-0.371 0.379-0.554 0.57 0.188 0.182 0.378 0.364 0.569 0.544 0.181-0.181 0.36-0.364 0.541-0.545 0.188 0.18 0.374 0.364 0.564 0.542-0.184 0.191-0.371 0.379-0.553 0.57 0.178 0.179 0.356 0.358 0.534 0.536 0.185-0.181 0.367-0.365 0.551-0.547 0.188 0.184 0.376 0.368 0.562 0.554-0.185 0.185-0.372 0.367-0.558 0.553 0.186 0.187 0.372 0.374 0.559 0.563 0.188-0.186 0.374-0.373 0.564-0.558 0.186 0.186 0.371 0.371 0.557 0.558-0.182 0.184-0.367 0.365-0.551 0.547 0.176 0.188 0.354 0.376 0.529 0.565 0.194-0.184 0.385-0.371 0.578-0.554 0.179 0.181 0.358 0.362 0.536 0.544-0.182 0.187-0.367 0.372-0.55 0.559 0.19 0.184 0.379 0.367 0.57 0.55 0.178-0.18 0.353-0.362 0.53-0.542 0.188 0.178 0.378 0.355 0.566 0.532-0.186 0.19-0.374 0.378-0.559 0.569 0.182 0.184 0.365 0.367 0.547 0.551 0.186-0.186 0.371-0.374 0.556-0.56 0.186 0.185 0.372 0.37 0.557 0.556-0.186 0.185-0.373 0.368-0.558 0.554 0.184 0.187 0.37 0.373 0.553 0.562-0.086 0.089-0.172 0.178-0.257 0.266-0.188-0.185-0.376-0.372-0.565-0.557-0.278 0.272-0.553 0.547-0.827 0.824 0.184 0.187 0.368 0.372 0.552 0.559-0.065 0.068-0.194 0.204-0.259 0.272-0.188-0.181-0.372-0.366-0.559-0.546-0.193 0.18-0.383 0.365-0.576 0.545-0.178-0.186-0.354-0.373-0.529-0.56 0.182-0.184 0.366-0.365 0.548-0.548-0.182-0.182-0.364-0.366-0.546-0.548-0.188 0.184-0.376 0.371-0.563 0.557-0.182-0.181-0.364-0.361-0.547-0.541 0.181-0.192 0.366-0.382 0.548-0.574-0.185-0.185-0.37-0.37-0.556-0.553-0.187 0.185-0.372 0.371-0.559 0.556-0.184-0.184-0.366-0.367-0.55-0.551 0.186-0.187 0.373-0.372 0.559-0.558-0.185-0.185-0.37-0.37-0.554-0.554-0.186 0.186-0.371 0.374-0.557 0.56-0.186-0.187-0.372-0.373-0.557-0.559 0.185-0.19 0.371-0.376 0.556-0.564-0.187-0.181-0.373-0.364-0.559-0.545-0.182 0.182-0.364 0.367-0.545 0.551-0.192-0.185-0.379-0.372-0.564-0.563 0.185-0.184 0.371-0.367 0.556-0.551-0.18-0.181-0.36-0.361-0.539-0.541-0.191 0.185-0.379 0.372-0.569 0.558-0.18-0.188-0.361-0.374-0.54-0.564 0.184-0.184 0.368-0.366 0.551-0.551-0.187-0.186-0.374-0.371-0.563-0.556-0.186 0.185-0.37 0.372-0.556 0.557-0.186-0.187-0.372-0.373-0.558-0.56 0.185-0.185 0.371-0.368 0.556-0.552-0.176-0.181-0.353-0.361-0.529-0.541 0.060-0.068 0.182-0.205 0.242-0.274 0.191 0.174 0.379 0.349 0.569 0.526 0.281-0.266 0.553-0.54 0.821-0.818-0.174-0.176-0.349-0.35-0.523-0.527M8.507 9.349c0.187 0.187 0.374 0.374 0.56 0.563 0.276-0.278 0.552-0.554 0.83-0.829-0.187-0.191-0.374-0.38-0.562-0.569-0.281 0.274-0.557 0.552-0.829 0.835M9.618 10.465c0.181 0.18 0.362 0.361 0.542 0.542 0.281-0.278 0.558-0.558 0.833-0.842-0.18-0.179-0.359-0.358-0.539-0.536-0.282 0.275-0.56 0.554-0.836 0.836M10.723 11.56c0.186 0.187 0.372 0.374 0.557 0.563 0.277-0.277 0.552-0.556 0.827-0.833-0.186-0.186-0.372-0.372-0.558-0.558-0.277 0.274-0.552 0.551-0.826 0.828M12.654 11.855c-0.265 0.276-0.534 0.547-0.806 0.816 0.174 0.186 0.349 0.372 0.524 0.557 0.292-0.272 0.576-0.553 0.851-0.842-0.19-0.176-0.379-0.354-0.569-0.53M12.942 13.786c0.185 0.184 0.371 0.368 0.557 0.551 0.27-0.275 0.541-0.548 0.816-0.818-0.178-0.193-0.356-0.385-0.535-0.578-0.283 0.278-0.563 0.559-0.838 0.846M14.046 14.888c0.185 0.184 0.368 0.367 0.553 0.552 0.277-0.276 0.553-0.553 0.826-0.834-0.182-0.182-0.365-0.365-0.547-0.546-0.28 0.274-0.556 0.551-0.832 0.828z"></path>
<path fill="#000" d="M10.496 13.754c0.971 0.976 2.003 1.903 2.918 2.927 0.041 1.24 0.001 2.484 0.012 3.725-0.978 0.001-1.956 0.006-2.934-0.002 0.004-2.216-0.004-4.433 0.004-6.649z"></path>
</svg>
