<svg xmlns="http://www.w3.org/2000/svg" width="24" height="24">
    <path fill="#ff0" d="M12.068 1.333h.372c.324.127.593.364.756.671 3.525 6.105 7.055 12.207 10.581 18.311.23.406.489.799.668 1.232v.469c-.144.352-.477.563-.836.65H.676A1.11 1.11 0 0 1 0 22.003v-.382c.16-.416.407-.789.627-1.175L11.278 2.025c.173-.316.455-.558.79-.692zm-.03.487c-.185.105-.312.284-.424.46C7.926 8.667 4.235 15.052.546 21.438c-.155.227-.154.596.127.723.295.11.619.059.926.07 7.262-.009 14.524.003 21.786-.006.446.076.78-.396.508-.776-3.675-6.396-7.38-12.777-11.064-19.169-.159-.261-.443-.655-.792-.46z"/>
    <path fill="#ff0" d="M11.671 5.628c.167-.285.3-.596.529-.84 3.022 5.254 6.02 10.524 9.03 15.786-6.04-.002-12.081.016-18.121.012 2.852-4.988 5.708-9.971 8.562-14.957zm-.283 2.368c-.159.282-.217.618-.444.861a24.43 24.43 0 0 0-.01.663c.042.029.126.09.169.119-.003.177-.004.353-.005.53h.358l.001-.563h1.571v.563h.322l-.007-.537.183-.122.012-.71-.187-.124c-.061-.222-.105-.455-.22-.658-.569-.102-1.167-.064-1.743-.022zm-1.992 2.471c-.171.292-.22.652-.469.897-.011.308-.049.643.162.899.004.158.005.316.006.474.124.004.248.005.373.008l.003-.589h1.647l.002.587.335-.001-.003-.578.188-.106.014-.749-.188-.107c-.069-.245-.115-.504-.248-.724-.598-.084-1.221-.069-1.822-.01zm3.171.871c-.3.257-.318.727-.477 1.079l-.252.134c-.011.375-.01.75-.002 1.125l.244.142c-.004.275-.003.549-.003.824l.541.001.001-.854h2.382v.853h.485c-.001-.285 0-.572-.003-.857.089-.036.178-.073.268-.108.016-.382.019-.765.019-1.148a46.534 46.534 0 0 0-.266-.101c-.15-.36-.095-.936-.503-1.108-.808-.024-1.63-.055-2.435.018zm-5.385 3.713l-.293.109c.072.524-.285 1.312.289 1.615l.001 1.008.672.001v-1.055h2.957v1.054h.601c0-.359.001-.719-.001-1.078.106-.032.212-.066.316-.102.044-.486.041-.975.03-1.463l-.312-.078c-.191-.449-.131-1.1-.572-1.386-.892-.095-1.801-.012-2.7-.042-.782-.088-.723.924-.989 1.417zm5.358 1.536c-.495.098-.352.643-.372 1.013.012.365-.106.878.359 1.003.002.395.001.789.002 1.184h.78v-1.22h3.428l.001 1.22h.696c0-.412.002-.825-.003-1.238.136-.068.374-.072.382-.27.05-.506.02-1.016.027-1.524-.843-.174-.314-1.534-1.129-1.756-1.036-.044-2.075-.006-3.112-.019-.843-.03-.741 1.068-1.059 1.606z"/>
    <path fill="#ff0" d="M11.331 8.743c.024-.248.06-.597.4-.534.485.062 1.484-.279 1.388.535-.596.004-1.193.005-1.788-.001zM9.344 11.249c.04-.194-.007-.525.266-.549a8.283 8.283 0 0 1 1.382.012c.256.033.177.357.221.539-.623.004-1.246.007-1.869-.001zM12.462 12.484c.014-.285-.042-.756.35-.8.665-.022 1.338-.041 2.001.012.383.055.281.516.302.788-.884.002-1.769.004-2.653-.001zM7.666 15.104c-.001-.358-.061-.934.424-.996.827-.021 1.662-.047 2.487.016.474.071.348.64.364.98-1.092-.001-2.183.002-3.275-.001zM13.549 15.533c.785-.062 1.577-.005 2.364-.028.33.009.788-.024.944.342.057.276.026.56.029.84l-3.789-.001c-.004-.409-.084-1.05.452-1.154z"/>
    <path fill="#e3001b" d="M12.038 1.82c.349-.196.633.198.792.46 3.684 6.392 7.389 12.772 11.064 19.169.272.38-.062.852-.508.776-7.262.009-14.524-.003-21.786.006-.308-.012-.631.04-.926-.07-.281-.127-.282-.496-.127-.723C4.236 15.052 7.927 8.666 11.615 2.28c.112-.176.239-.355.424-.46zm-.367 3.808c-2.853 4.987-5.71 9.97-8.562 14.957 6.04.004 12.081-.013 18.121-.012-3.011-5.262-6.008-10.532-9.03-15.786-.228.244-.362.555-.529.84z"/>
    <path d="M11.388 7.996c.576-.042 1.174-.08 1.743.022.116.203.159.436.22.658l.187.124-.012.71-.183.122.007.537h-.322v-.563h-1.571l-.001.563h-.358l.005-.53c-.043-.029-.127-.09-.169-.119.001-.221.003-.442.01-.663.227-.244.284-.58.444-.861zm-.057.747c.596.006 1.192.005 1.788.001.096-.814-.903-.473-1.388-.535-.34-.063-.376.286-.4.534zm-.279.354c.103.326.341.312.468.014l-.232-.131-.236.116zm2.043-.09c-.284.166.004.451.244.33.056-.17-.026-.428-.244-.33zM9.396 10.467c.601-.06 1.224-.074 1.822.01.133.22.179.479.248.724l.188.107-.014.749-.188.106.003.578-.335.001-.002-.587H9.471l-.003.589c-.125-.003-.249-.004-.373-.008a37.455 37.455 0 0 0-.006-.474c-.211-.256-.172-.59-.162-.899.25-.245.299-.604.469-.897zm-.052.782c.623.008 1.246.005 1.869.001-.044-.181.035-.506-.221-.539-.458-.051-.924-.037-1.382-.012-.273.024-.226.356-.266.549zm-.082.267c-.216-.001-.227.362-.006.38.27.058.303-.43.006-.38zm1.848.037c-.102.148.052.469.234.324.302-.093.008-.529-.234-.324zM12.567 11.338c.804-.073 1.627-.042 2.435-.018.408.172.353.748.503 1.108l.266.101c0 .382-.003.765-.019 1.148l-.268.108c.003.285.002.572.003.857h-.485v-.853H12.62l-.001.854-.541-.001c0-.275-.001-.549.003-.824a19.43 19.43 0 0 1-.244-.142c-.008-.375-.009-.75.002-1.125l.252-.134c.159-.352.177-.822.477-1.079zm-.105 1.146c.884.004 1.769.003 2.653.001-.021-.272.081-.733-.302-.788-.663-.053-1.336-.035-2.001-.012-.392.044-.336.515-.35.8zm-.255.42c-.31.165-.015.67.286.48.322-.17.019-.694-.286-.48zm2.849.012c-.304.205.076.689.343.439.289-.211-.072-.669-.343-.439zM7.182 15.051c.267-.493.207-1.505.989-1.417.899.029 1.807-.053 2.7.042.441.285.38.937.572 1.386l.312.078c.011.488.014.977-.03 1.463-.105.036-.211.07-.316.102.002.359.001.719.001 1.078h-.601v-1.054H7.852v1.055l-.672-.001-.001-1.008c-.574-.303-.217-1.091-.289-1.615.098-.037.196-.074.293-.109zm.484.053c1.092.003 2.183 0 3.275.001-.015-.34.11-.909-.364-.98-.825-.063-1.66-.037-2.487-.016-.485.061-.425.637-.424.996zm-.254.483c-.242.075-.328.428-.12.589.188.193.542.052.576-.205.044-.244-.221-.472-.456-.384zm3.557.001c-.421.129-.197.81.217.661.445-.116.208-.828-.217-.661zM12.54 16.587c.317-.539.216-1.636 1.059-1.606 1.037.012 2.076-.026 3.112.019.815.221.286 1.581 1.129 1.756-.006.508.023 1.018-.027 1.524-.008.198-.246.203-.382.27.004.413.003.826.003 1.238h-.696l-.001-1.22h-3.428v1.22h-.78c-.001-.395 0-.789-.002-1.184-.465-.124-.348-.637-.359-1.003.02-.371-.124-.916.372-1.013zm1.009-1.054c-.536.104-.455.745-.452 1.154l3.789.001c-.004-.28.028-.564-.029-.84-.156-.366-.614-.333-.944-.342-.788.022-1.58-.035-2.364.028zm-.811 1.735c-.268.126-.287.546-.032.697.259.188.66-.046.625-.364-.007-.283-.348-.471-.593-.332zm4.098.018c-.254.15-.238.565.028.695.261.159.629-.077.596-.381-.007-.298-.381-.484-.625-.314z"/>
    <path fill="red" d="M11.052 9.097l.236-.116.232.131c-.127.298-.365.312-.468-.014zM9.262 11.516c.297-.051.264.437-.006.38-.22-.018-.21-.38.006-.38zM12.207 12.904c.305-.214.608.31.286.48-.301.19-.596-.315-.286-.48zM15.056 12.916c.271-.23.632.228.343.439-.268.25-.647-.234-.343-.439zM7.412 15.587c.235-.088.5.14.456.384-.034.258-.388.398-.576.205-.208-.161-.122-.515.12-.589zM10.969 15.588c.425-.167.662.545.217.661-.414.148-.638-.532-.217-.661zM12.738 17.268c.245-.139.586.05.593.332.036.318-.366.553-.625.364-.255-.151-.236-.571.032-.697zM16.836 17.286c.244-.171.618.016.625.314.033.304-.335.54-.596.381-.267-.13-.283-.545-.028-.695z"/>
    <path fill="#e50000" d="M13.095 9.007c.219-.098.3.16.244.33-.241.121-.528-.164-.244-.33z"/>
    <path fill="#e90000" d="M11.11 11.553c.242-.205.536.23.234.324-.182.146-.336-.176-.234-.324z"/>
</svg>
