<!-- Generated by IcoMoon.io -->
<svg version="1.1" xmlns="http://www.w3.org/2000/svg" width="24" height="24" viewBox="0 0 24 24">
<title>warning--koala-crossing--g3</title>
<path fill="#030303" d="M11.769 0h0.464c2.93 2.85 5.82 5.74 8.721 8.62 0.919 0.924 1.855 1.833 2.751 2.78 0.146 0.185 0.421 0.391 0.29 0.656-0.2 0.413-0.579 0.698-0.879 1.034-3.136 3.186-6.287 6.358-9.452 9.516-0.495 0.479-0.957 1.002-1.527 1.393h-0.052c-0.404-0.148-0.69-0.488-0.999-0.771-3.431-3.376-6.846-6.77-10.241-10.182-0.297-0.316-0.621-0.618-0.845-0.993v-0.016c0.177-0.466 0.585-0.784 0.908-1.146 2.644-2.694 5.313-5.363 7.974-8.040 0.958-0.955 1.905-1.922 2.887-2.852M11.709 0.487c-0.067 0.038-0.128 0.087-0.185 0.14-0.962 0.952-1.895 1.931-2.854 2.886-2.591 2.581-5.149 5.194-7.734 7.781-0.155 0.164-0.349 0.307-0.434 0.524-0.079 0.228 0.002 0.486 0.181 0.644 1.888 1.87 3.753 3.761 5.654 5.618 1.729 1.709 3.442 3.435 5.17 5.145 0.153 0.145 0.326 0.317 0.555 0.3 0.23 0.023 0.414-0.14 0.562-0.294 2.566-2.593 5.135-5.181 7.711-7.763 1.011-1.041 2.039-2.066 3.063-3.094 0.241-0.221 0.248-0.656 0.002-0.876-1.779-1.77-3.547-3.551-5.343-5.305-1.873-1.857-3.725-3.734-5.613-5.576-0.177-0.211-0.495-0.242-0.734-0.131z"></path>
<path fill="#030303" d="M11.79 6.806c0.38-0.138 0.784 0.009 1.138 0.156 0.51 0.313 1.154-0.047 1.679 0.231 0.434 0.238 0.514 0.812 0.392 1.249-0.124 0.307-0.474 0.395-0.752 0.504-0.012 0.416 0.064 0.857-0.107 1.251-0.167 0.33-0.534 0.463-0.81 0.677 0.002 0.1 0.002 0.2 0.002 0.3 0.462 0.034 0.954-0.042 1.31-0.361 0.311-0.256 0.611-0.527 0.878-0.829 0.189-0.228 0.517-0.242 0.791-0.228 0.225 0.023 0.311 0.28 0.306 0.475-0.005 0.185 0.003 0.405-0.146 0.539-0.525 0.529-1.046 1.070-1.649 1.512-0.527 0.341-1.115 0.57-1.695 0.802-0.042 0.195-0.060 0.4-0.030 0.599 0.135 0.121 0.301 0.203 0.44 0.319 0.248 0.194 0.376 0.495 0.483 0.782 0.437 0.011 0.874 0.010 1.311 0 0.203 0.222 0.17 0.576 0.213 0.86-0.71 0.376-1.414 0.763-2.121 1.145-0.152 0.076-0.306 0.212-0.487 0.161-0.101-0.049-0.186-0.122-0.287-0.17-0.206-0.030-0.386 0.107-0.577 0.16-0.67 0.225-1.375 0.446-2.089 0.369-0.587-0.168-1.191-0.386-1.638-0.82-0.509-0.535-0.748-1.261-0.878-1.973-0.101-0.529-0.012-1.079 0.19-1.574 0.441-1.079 1.261-1.945 2.108-2.722 0.091-0.103 0.281-0.164 0.278-0.316-0.497-0.207-1.011-0.513-1.218-1.038-0.218-0.592 0.042-1.389 0.669-1.608 0.48-0.138 0.976-0.009 1.447 0.095 0.253-0.224 0.542-0.409 0.85-0.547M13.243 8.694c-0.019 0.34 0.478 0.495 0.675 0.235 0.183-0.197 0.079-0.51-0.139-0.636-0.104 0-0.209 0-0.313 0.001-0.121 0.1-0.253 0.226-0.223 0.4M11.546 8.397c-0.358 0.146-0.419 0.697-0.105 0.917 0.302 0.263 0.85 0.035 0.854-0.371 0.070-0.388-0.4-0.738-0.749-0.547M12.801 8.982c-0.406 0.289-0.417 0.985-0.054 1.314 0.101 0.113 0.267 0.092 0.402 0.073 0.395-0.233 0.451-0.803 0.242-1.178-0.104-0.206-0.379-0.356-0.59-0.208z"></path>
<path fill="#f9e825" d="M11.709 0.487c0.239-0.111 0.557-0.080 0.734 0.131 1.888 1.842 3.74 3.719 5.613 5.576 1.796 1.753 3.564 3.535 5.343 5.305 0.247 0.219 0.239 0.655-0.002 0.876-1.024 1.028-2.052 2.053-3.063 3.094-2.576 2.582-5.146 5.17-7.711 7.763-0.148 0.154-0.331 0.317-0.562 0.294-0.229 0.017-0.402-0.155-0.555-0.3-1.728-1.71-3.441-3.436-5.17-5.145-1.901-1.856-3.766-3.748-5.654-5.618-0.179-0.158-0.26-0.416-0.181-0.644 0.086-0.217 0.279-0.36 0.434-0.524 2.585-2.587 5.144-5.2 7.734-7.781 0.959-0.955 1.893-1.935 2.854-2.886 0.057-0.052 0.117-0.101 0.185-0.14M11.79 6.806c-0.308 0.139-0.597 0.324-0.85 0.547-0.471-0.104-0.967-0.233-1.447-0.095-0.628 0.22-0.887 1.017-0.669 1.608 0.207 0.525 0.722 0.831 1.218 1.038 0.003 0.152-0.187 0.213-0.278 0.316-0.848 0.776-1.668 1.642-2.108 2.722-0.203 0.494-0.292 1.044-0.19 1.574 0.13 0.712 0.37 1.438 0.878 1.973 0.447 0.434 1.051 0.651 1.638 0.82 0.715 0.077 1.419-0.143 2.089-0.369 0.192-0.053 0.371-0.191 0.577-0.16 0.1 0.048 0.186 0.121 0.287 0.17 0.181 0.051 0.335-0.085 0.487-0.161 0.707-0.382 1.41-0.769 2.121-1.145-0.043-0.284-0.011-0.638-0.213-0.86-0.437 0.010-0.875 0.011-1.311-0-0.106-0.288-0.235-0.588-0.483-0.782-0.139-0.116-0.305-0.198-0.44-0.319-0.030-0.199-0.012-0.403 0.030-0.599 0.58-0.233 1.168-0.461 1.695-0.802 0.603-0.442 1.124-0.983 1.649-1.512 0.149-0.135 0.141-0.355 0.146-0.539 0.005-0.195-0.081-0.452-0.306-0.475-0.273-0.013-0.601 0.001-0.791 0.228-0.266 0.302-0.567 0.573-0.878 0.829-0.356 0.319-0.849 0.395-1.31 0.361 0-0.1 0-0.2-0.002-0.3 0.277-0.215 0.643-0.347 0.81-0.677 0.171-0.394 0.094-0.835 0.107-1.251 0.278-0.109 0.629-0.198 0.752-0.504 0.122-0.437 0.042-1.011-0.392-1.249-0.525-0.277-1.169 0.082-1.679-0.231-0.354-0.147-0.757-0.294-1.138-0.156z"></path>
<path fill="#ffff03" d="M13.243 8.694c-0.030-0.173 0.102-0.3 0.223-0.4 0.104-0 0.209-0.001 0.313-0.001 0.218 0.126 0.322 0.438 0.139 0.636-0.198 0.26-0.695 0.105-0.675-0.235z"></path>
<path fill="#ffff03" d="M11.546 8.397c0.349-0.191 0.819 0.158 0.749 0.547-0.004 0.405-0.552 0.634-0.854 0.371-0.314-0.22-0.253-0.771 0.105-0.917z"></path>
<path fill="#ffff03" d="M12.801 8.982c0.211-0.148 0.487 0.002 0.59 0.208 0.209 0.375 0.153 0.945-0.242 1.178-0.135 0.020-0.301 0.040-0.402-0.073-0.363-0.329-0.352-1.025 0.054-1.314z"></path>
</svg>
