<!-- Generated by IcoMoon.io -->
<svg version="1.1" xmlns="http://www.w3.org/2000/svg" width="27" height="24" viewBox="0 0 27 24">
<title>warning--village--g1</title>
<path fill="#f6ea44" d="M13.116 0h0.723c0.463 0.221 0.816 0.607 1.061 1.053 3.984 7.045 8.107 14.013 12.042 21.081v0.664c-0.195 0.661-0.729 1.075-1.395 1.202h-24.669c-0.478-0.169-0.689-0.638-0.878-1.068v-0.667c3.944-7.157 8.069-14.213 12.082-21.332 0.232-0.415 0.619-0.715 1.034-0.932M13.369 0.378c-0.437 0.006-0.805 0.303-1.011 0.672-3.894 7.022-7.993 13.931-11.867 20.964-0.444 0.783 0.362 1.733 1.212 1.587 7.844-0.037 15.69-0.124 23.535-0.124 0.887 0.073 1.53-1.002 1.033-1.743-3.882-6.808-7.762-13.618-11.641-20.428-0.242-0.482-0.669-0.975-1.262-0.927z"></path>
<path fill="#1a2622" d="M13.369 0.378c0.593-0.048 1.020 0.446 1.262 0.927 3.879 6.81 7.759 13.62 11.641 20.428 0.497 0.742-0.146 1.816-1.033 1.743-7.846 0-15.691 0.087-23.535 0.124-0.85 0.146-1.657-0.804-1.212-1.587 3.874-7.033 7.973-13.942 11.867-20.964 0.206-0.369 0.574-0.666 1.011-0.672M3.052 21.541c6.893-0.028 13.787-0.136 20.682-0.105-0.444-0.996-1.067-1.9-1.578-2.861-2.948-5.045-5.726-10.188-8.728-15.201-3.464 6.051-6.945 12.096-10.376 18.167z"></path>
<path fill="#f2da34" d="M3.052 21.541c3.431-6.071 6.912-12.116 10.376-18.167 3.002 5.012 5.78 10.156 8.728 15.201 0.511 0.962 1.133 1.866 1.578 2.861-6.895-0.031-13.788 0.077-20.682 0.105M14.922 10.004c-0.652 1.494-1.346 2.971-2.004 4.462-0.186 0.257-0.011 0.413 0.255 0.458-0.152 0.279-0.302 0.559-0.455 0.838 0.125 0.011 0.376 0.034 0.502 0.046-0.2 0.406-0.398 0.811-0.591 1.22 0.607-0.005 1.214-0.005 1.821 0 0.009 0.943 0.011 1.886 0.005 2.829-0.833 0.005-1.666 0.015-2.499-0.005 0.015-2.172-0.006-4.345 0-6.516 0.3-0.008 0.602-0.015 0.904-0.023-1.092-0.859-2.162-1.747-3.266-2.59-1.98 3.492-4.012 6.955-5.94 10.478 6.463-0.048 12.926-0.119 19.39-0.132-0.26-0.412-0.522-0.824-0.785-1.234-2.369-0.005-4.738 0.014-7.107 0.005 0-0.943-0.006-1.886 0.002-2.829 0.643-0.005 1.287-0.002 1.931 0-0.164-0.406-0.333-0.81-0.506-1.211 0.113-0.012 0.341-0.036 0.454-0.046-0.163-0.286-0.325-0.574-0.488-0.861 0.104-0.015 0.313-0.045 0.417-0.060-0.655-1.62-1.27-3.262-2.039-4.829z"></path>
<path fill="#1a221e" d="M14.922 10.004c0.77 1.567 1.384 3.21 2.039 4.829-0.104 0.015-0.313 0.045-0.417 0.060 0.163 0.286 0.325 0.574 0.488 0.861-0.113 0.011-0.341 0.034-0.454 0.046 0.173 0.401 0.342 0.805 0.506 1.211-0.644-0.002-1.288-0.005-1.931 0-0.008 0.943-0.002 1.886-0.002 2.829 2.369 0.009 4.738-0.009 7.107-0.005 0.263 0.41 0.525 0.822 0.785 1.234-6.465 0.012-12.927 0.084-19.39 0.132 1.928-3.523 3.959-6.986 5.94-10.478 1.104 0.844 2.174 1.731 3.266 2.59-0.302 0.008-0.604 0.015-0.904 0.023-0.006 2.171 0.015 4.343 0 6.516 0.833 0.020 1.666 0.009 2.499 0.005 0.006-0.943 0.005-1.886-0.005-2.829-0.607-0.005-1.214-0.005-1.821 0 0.194-0.409 0.392-0.814 0.591-1.22-0.125-0.012-0.376-0.036-0.502-0.046 0.153-0.279 0.303-0.559 0.455-0.838-0.266-0.045-0.441-0.201-0.255-0.458 0.658-1.491 1.352-2.968 2.004-4.462M7.573 16.881c-0.002 0.31-0.003 0.619-0.005 0.927 0.271 0 0.542-0.002 0.811-0.002-0.002-0.314-0.003-0.627-0.003-0.941-0.268 0.006-0.536 0.011-0.804 0.015M8.775 16.862c0.002 0.316 0.003 0.632 0.005 0.948 0.303-0.005 0.609-0.009 0.914-0.015-0.005-0.303-0.008-0.607-0.009-0.91-0.302-0.009-0.605-0.015-0.909-0.022M7.576 18.234c-0.012 0.615-0.012 1.231 0.012 1.846 0.255-0.008 0.513-0.014 0.77-0.020 0.036-0.615 0.034-1.231 0.015-1.846-0.265 0.006-0.531 0.012-0.797 0.020M8.782 18.22c-0.008 0.602-0.009 1.203-0.014 1.804 0.303 0.014 0.607 0.025 0.91 0.033 0.014-0.618 0.015-1.236-0.029-1.85-0.288 0.005-0.578 0.009-0.867 0.014z"></path>
<path fill="#ead232" d="M7.573 16.881c0.268-0.005 0.536-0.009 0.804-0.015 0 0.314 0.002 0.627 0.003 0.941-0.269 0-0.54 0.002-0.811 0.002 0.002-0.308 0.003-0.618 0.005-0.927z"></path>
<path fill="#eed636" d="M8.775 16.862c0.303 0.006 0.607 0.012 0.909 0.022 0.002 0.303 0.005 0.607 0.009 0.91-0.305 0.006-0.61 0.011-0.914 0.015-0.002-0.316-0.003-0.632-0.005-0.948z"></path>
<path fill="#f2da35" d="M7.576 18.234c0.266-0.008 0.533-0.014 0.797-0.020 0.019 0.615 0.020 1.231-0.015 1.846-0.257 0.006-0.514 0.012-0.77 0.020-0.025-0.615-0.025-1.231-0.012-1.846z"></path>
<path fill="#f8dd36" d="M8.782 18.22c0.29-0.005 0.579-0.009 0.867-0.014 0.045 0.615 0.043 1.233 0.029 1.85-0.303-0.008-0.607-0.019-0.91-0.033 0.005-0.601 0.006-1.202 0.014-1.804z"></path>
</svg>
