<!-- Generated by IcoMoon.io -->
<svg version="1.1" xmlns="http://www.w3.org/2000/svg" width="27" height="24" viewBox="0 0 27 24">
<title>warning--restricted-zone--g1</title>
<path fill="#db0000" d="M13.338 0h0.644c0.912 0.198 1.681 0.815 2.127 1.625 3.299 5.609 6.593 11.219 9.889 16.829 0.469 0.822 1.031 1.612 1.275 2.54v0.935c-0.236 1.113-1.223 1.886-2.313 2.070h-22.608c-1.137-0.172-2.142-1.008-2.352-2.165v-0.74c0.225-0.965 0.805-1.781 1.29-2.626 3.316-5.639 6.623-11.281 9.944-16.917 0.447-0.785 1.214-1.37 2.104-1.55M13.004 3.728c-3.473 5.876-6.935 11.759-10.379 17.652 7.349 0.003 14.697 0.003 22.047 0-3.646-6.241-7.321-12.466-10.991-18.694-0.293 0.3-0.46 0.69-0.678 1.042z"></path>
<path fill="#db0000" d="M10.387 10.819c1.965 0.104 4.133-0.334 5.917 0.702 1.587 1.005 1.227 3.709-0.592 4.25 0.563 0.301 1.002 0.809 1.173 1.428 0.337 1.182 0.574 2.392 0.854 3.588-0.732 0.005-1.466 0.005-2.198 0.001-0.308-1.125-0.451-2.303-0.89-3.387-0.364-0.788-1.334-0.86-2.093-0.828-0.003 1.405 0.004 2.81-0.003 4.215-0.721 0.004-1.443 0.004-2.164 0-0.001-3.323-0.008-6.646-0.003-9.97M12.559 12.218c-0.004 0.989-0.005 1.976 0 2.965 0.784 0.008 1.706-0.001 2.281-0.619 0.485-0.627 0.431-1.83-0.405-2.135-0.597-0.226-1.249-0.194-1.876-0.21z"></path>
<path fill="#fff" d="M13.004 3.728c0.218-0.352 0.385-0.742 0.678-1.042 3.67 6.228 7.345 12.453 10.991 18.694-7.35 0.003-14.699 0.003-22.047 0 3.443-5.894 6.905-11.776 10.379-17.652M10.387 10.819c-0.005 3.323 0.001 6.646 0.003 9.97 0.721 0.004 1.443 0.004 2.164 0 0.007-1.405 0-2.81 0.003-4.215 0.76-0.033 1.729 0.040 2.093 0.828 0.439 1.084 0.582 2.262 0.89 3.387 0.732 0.004 1.466 0.004 2.198-0.001-0.28-1.196-0.517-2.405-0.854-3.588-0.17-0.619-0.61-1.126-1.173-1.428 1.819-0.541 2.179-3.245 0.592-4.25-1.784-1.036-3.952-0.599-5.917-0.702z"></path>
<path fill="#fff" d="M12.559 12.218c0.627 0.016 1.279-0.016 1.876 0.21 0.836 0.305 0.89 1.508 0.405 2.135-0.575 0.618-1.497 0.627-2.281 0.619-0.005-0.989-0.004-1.976 0-2.965z"></path>
</svg>
