<svg xmlns="http://www.w3.org/2000/svg" width="24" height="24">
    <path fill="#ef2b2f" d="M11.727 1.333h.939a278.83 278.83 0 0 1 10.283 18.068c.404.844.978 1.707.797 2.684-7.772-.174-15.593.332-23.335-.289C3.535 14.664 7.753 8.024 11.727 1.332zM2.504 20.675c6.456.049 12.915.013 19.374.02-3.157-5.626-6.476-11.163-9.633-16.788-3.364 5.517-6.518 11.165-9.741 16.768z"/>
    <path fill="#fff" d="M2.504 20.675c3.223-5.603 6.377-11.251 9.741-16.768 3.157 5.626 6.476 11.163 9.633 16.788-6.459-.006-12.918.029-19.374-.02zm4.369-6.768c1.329.739 2.629 1.526 3.955 2.268l.01-1.385c2.032-.01 4.063.02 6.095-.013-.004-.613-.006-1.224-.013-1.835-2.025-.013-4.05.004-6.075-.006l-.027-1.329c-1.319.762-2.639 1.516-3.945 2.3zm5.97 1.46c-.01.463-.016.923-.023 1.385-1.976.016-3.952-.006-5.927.01 0 .646 0 1.293.004 1.94 1.979.01 3.962-.01 5.94.006-.01.456-.02.912-.033 1.369 1.388-.716 2.701-1.563 4.067-2.32-1.286-.883-2.668-1.621-4.027-2.389z"/>
    <path fill="#201e1c" d="M6.873 13.907c1.307-.784 2.626-1.54 3.945-2.3l.027 1.329c2.025.01 4.05-.006 6.075.006.006.611.01 1.221.013 1.835-2.032.033-4.063.004-6.095.013l-.01 1.385c-1.326-.741-2.626-1.53-3.955-2.268z"/>
    <path fill="#201e1c" d="M12.843 15.367c1.359.768 2.74 1.507 4.027 2.389-1.365.758-2.678 1.605-4.067 2.32.013-.456.023-.912.033-1.369-1.979-.016-3.962.004-5.94-.006-.004-.646-.004-1.293-.004-1.94 1.976-.016 3.952.006 5.927-.01.006-.463.013-.923.023-1.385z"/>
</svg>
