<svg xmlns="http://www.w3.org/2000/svg" width="24" height="24">
    <path fill="#ef7c23" d="M11.753 0h.449c.254.087.491.223.678.418 3.381 3.386 6.767 6.768 10.149 10.153.359.368.79.701.971 1.201v.425c-.087.228-.197.452-.373.626-3.418 3.416-6.835 6.834-10.252 10.252-.35.347-.675.754-1.156.925h-.421a1.784 1.784 0 0 1-.673-.423c-3.396-3.405-6.8-6.801-10.198-10.203-.345-.352-.759-.671-.927-1.153v-.427c.091-.251.228-.485.42-.672C3.971 7.572 7.521 4.021 11.071.469A2.39 2.39 0 0 1 11.753 0zm.077.329c-.195.04-.351.174-.492.306C7.854 4.119 4.372 7.605.885 11.086c-.249.256-.587.517-.572.914-.015.398.332.65.581.906 3.52 3.514 7.034 7.035 10.554 10.55a.777.777 0 0 0 1.106.001c3.638-3.63 7.267-7.27 10.902-10.904.332-.309.293-.871-.042-1.162A21803.45 21803.45 0 0 0 12.664.634c-.212-.223-.52-.385-.834-.305z"/>
    <path fill="#ef7c23" d="M11.924.816c.156-.046.28.075.385.169 3.568 3.569 7.139 7.136 10.705 10.707.187.14.253.408.041.56-3.601 3.601-7.201 7.204-10.804 10.802a.309.309 0 0 1-.502 0C8.145 19.456 4.546 15.853.945 12.252c-.206-.152-.141-.421.041-.56 3.448-3.454 6.903-6.901 10.35-10.355.189-.18.354-.396.588-.521zm.088 2.09c-1.436 1.191-2.761 2.514-4.16 3.75-.16.142-.468.424-.152.581 1.054-.083 2.1-.257 3.151-.372.013.644 0 1.289.008 1.933.762.004 1.525.003 2.287 0 .007-.648-.008-1.297.002-1.946 1.052.114 2.099.288 3.154.373.309-.163.008-.431-.151-.573-1.39-1.237-2.714-2.551-4.139-3.746zm-9.201 8.098c-.213.613-.244 1.356.041 1.95.356.517 1.193.184 1.154-.427a27.338 27.338 0 0 1-.291-.01c-.077.249-.362.521-.586.248-.19-.512-.217-1.126.009-1.63.181-.251.448-.023.578.154l.293-.013c-.062-.586-.918-.827-1.198-.272zm1.926-.267c-.561.45-.429 1.317-.331 1.949.064.575.933.741 1.179.211.229-.55.2-1.192.06-1.761-.092-.388-.561-.59-.908-.399zm1.439-.031c-.012.817-.006 1.635-.004 2.453l.343-.001c.004-.469-.002-.938.006-1.407.228.461.429.935.65 1.4.109.006.218.012.327.02.036-.816.012-1.634.014-2.45a37.86 37.86 0 0 0-.338-.002c-.01.517.002 1.034-.008 1.551-.256-.504-.479-1.023-.72-1.534a24.752 24.752 0 0 0-.27-.03zm1.84.506c-.145.731 1.041.669.919 1.389-.097.43-.649.256-.692-.112a11.681 11.681 0 0 1-.324-.01c.027.463.483.89.953.681.616-.229.498-1.136-.014-1.416-.198-.146-.671-.298-.443-.616.175-.234.405 0 .54.143l.29.017c.004-.729-1.159-.802-1.229-.076zm1.464-.485l-.006.296.434.021c.012.709-.006 1.419.01 2.128l.336-.008c.007-.707-.002-1.414.004-2.121l.438-.016.009-.298a50.023 50.023 0 0 0-1.225-.002zm1.5.002c-.004.813-.015 1.627.006 2.44l.329-.001c.008-.384.008-.767.013-1.151l.314.019c.111.374.217.749.326 1.124.117.003.234.006.351.011-.096-.392-.217-.777-.323-1.166.367-.298.449-.938.025-1.222-.332-.111-.697-.04-1.041-.054zm1.746-.019c.011.684-.045 1.374.028 2.054.161.618 1.142.588 1.283-.028.069-.67.012-1.349.027-2.022a38.315 38.315 0 0 1-.339-.004c-.021.63.021 1.261-.019 1.89.001.329-.519.396-.621.093-.06-.657-.005-1.319-.026-1.978l-.333-.005zm1.894.313c-.204.606-.229 1.327.038 1.916.344.535 1.222.208 1.16-.42l-.279.001c-.085.243-.37.52-.594.244-.188-.51-.21-1.111.001-1.616.173-.268.453-.042.588.136h.289c-.045-.605-.942-.837-1.203-.261zm1.379-.296l-.001.291c.146.012.293.023.439.044-.005.701-.008 1.402 0 2.103l.336.004c.012-.709-.003-1.418.008-2.126l.445-.019a30.028 30.028 0 0 1-.006-.297 82.826 82.826 0 0 0-1.221 0zm1.508-.019c-.015.821-.016 1.644.001 2.466l.343-.012c.004-.814.002-1.627.001-2.441l-.345-.013zm1.134.045c-.529.462-.395 1.297-.308 1.919.057.575.919.763 1.176.236.241-.551.214-1.204.065-1.777-.094-.398-.589-.592-.933-.378zm1.373-.047c-.018.817-.005 1.635-.008 2.452l.343.002c.006-.467-.001-.934.007-1.401.238.462.428.946.667 1.407l.325-.007c.006-.812.003-1.623.002-2.434l-.338-.013c-.015.518.001 1.036-.014 1.554-.257-.507-.477-1.031-.726-1.541l-.258-.019z"/>
    <path fill="#ef7c23" d="M4.931 11.021c.299-.091.43.248.448.485.029.414.08.873-.123 1.253-.196.275-.547.005-.541-.266-.036-.479-.165-1.1.216-1.472zM18.837 11.036c.524-.128.495.624.499.962.02.317-.06 1.068-.539.815-.285-.509-.314-1.295.04-1.777zM11.322 11.063c.254.003.709-.063.65.328.019.369-.406.281-.648.296l-.002-.624z"/>
    <path d="M11.83.329c.314-.08.622.082.834.305 3.585 3.584 7.168 7.171 10.75 10.757.335.291.374.853.042 1.162-3.635 3.634-7.264 7.274-10.902 10.904a.777.777 0 0 1-1.106-.001C7.928 19.941 4.414 16.42.894 12.906.645 12.65.298 12.398.313 12c-.015-.397.323-.658.572-.914C4.372 7.605 7.854 4.119 11.338.635c.141-.132.297-.266.492-.306zm.094.487c-.234.125-.399.341-.588.521C7.889 4.791 4.434 8.238.986 11.692c-.182.139-.247.408-.041.56 3.601 3.601 7.2 7.204 10.804 10.802a.309.309 0 0 0 .502 0c3.603-3.598 7.203-7.201 10.804-10.802.212-.152.146-.42-.041-.56C19.448 8.121 15.877 4.554 12.309.985c-.105-.094-.229-.215-.385-.169z"/>
    <path d="M12.012 2.906c1.425 1.195 2.749 2.509 4.139 3.746.159.142.46.41.151.573-1.055-.085-2.102-.259-3.154-.373-.01.649.005 1.298-.002 1.946-.762.003-1.525.004-2.287 0-.008-.644.005-1.289-.008-1.933-1.051.115-2.097.289-3.151.372-.316-.157-.008-.439.152-.581 1.399-1.236 2.724-2.559 4.16-3.75zM2.811 11.004c.28-.555 1.136-.314 1.198.272l-.293.013c-.13-.177-.397-.405-.578-.154-.226.504-.199 1.118-.009 1.63.224.273.509.001.586-.248l.291.01c.039.611-.798.944-1.154.427-.285-.594-.254-1.337-.041-1.95zM4.737 10.737c.347-.191.816.011.908.399.14.569.169 1.211-.06 1.761-.246.53-1.115.364-1.179-.211-.098-.632-.23-1.499.331-1.949zm.194.284c-.381.372-.252.993-.216 1.472-.006.271.345.541.541.266.203-.38.152-.839.123-1.253-.018-.237-.149-.576-.448-.485zM6.176 10.706l.27.03c.241.511.464 1.03.72 1.534.01-.517-.002-1.034.008-1.551l.338.002c-.002.816.022 1.634-.014 2.45a17.922 17.922 0 0 0-.327-.02c-.221-.465-.422-.939-.65-1.4-.008.469-.002.938-.006 1.407l-.343.001c-.002-.818-.008-1.636.004-2.453zM8.016 11.212c.07-.726 1.233-.653 1.229.076l-.29-.017c-.135-.143-.365-.377-.54-.143-.228.318.245.47.443.616.512.28.63 1.187.014 1.416-.47.209-.926-.218-.953-.681.108.005.216.008.324.01.043.368.595.542.692.112.122-.72-1.064-.658-.919-1.389zM9.48 10.727c.408-.004.817-.004 1.225.002l-.009.298-.438.016c-.006.707.003 1.414-.004 2.121l-.336.008c-.016-.709.002-1.419-.01-2.128l-.434-.021.006-.296zM10.98 10.729c.344.014.709-.057 1.041.054.424.284.342.924-.025 1.222.106.389.227.774.323 1.166a20.564 20.564 0 0 0-.351-.011c-.109-.375-.215-.75-.326-1.124a33.046 33.046 0 0 0-.314-.019c-.005.384-.005.767-.013 1.151l-.329.001c-.021-.813-.01-1.627-.006-2.44zm.342.334l.002.624c.242-.015.667.073.648-.296.059-.391-.396-.325-.65-.328zM12.726 10.71l.333.005c.021.659-.034 1.321.026 1.978.102.303.622.236.621-.093.04-.629-.002-1.26.019-1.89l.339.004c-.015.673.042 1.352-.027 2.022-.141.616-1.122.646-1.283.028-.073-.68-.017-1.37-.028-2.054zM14.62 11.023c.261-.576 1.158-.344 1.203.261h-.289c-.135-.178-.415-.404-.588-.136-.211.505-.189 1.106-.001 1.616.224.276.509-.001.594-.244l.279-.001c.062.628-.816.955-1.16.42-.267-.589-.242-1.31-.038-1.916zM15.999 10.727c.407-.003.814-.003 1.221 0l.006.297-.445.019c-.011.708.004 1.417-.008 2.126l-.336-.004c-.008-.701-.005-1.402 0-2.103-.146-.021-.293-.032-.439-.044l.001-.291zM17.507 10.708l.345.013c.001.814.003 1.627-.001 2.441l-.343.012a63.352 63.352 0 0 1-.001-2.466zM18.641 10.753c.344-.214.839-.02.933.378.149.573.176 1.226-.065 1.777-.257.527-1.119.339-1.176-.236-.087-.622-.221-1.457.308-1.919zm.196.283c-.354.482-.325 1.268-.04 1.777.479.253.559-.498.539-.815-.004-.338.025-1.09-.499-.962zM20.014 10.706l.258.019c.249.51.469 1.034.726 1.541.015-.518-.001-1.036.014-1.554l.338.013c.001.811.004 1.622-.002 2.434l-.325.007c-.239-.461-.429-.945-.667-1.407-.008.467-.001.934-.007 1.401l-.343-.002c.003-.817-.01-1.635.008-2.452z"/>
</svg>
