<!-- Generated by IcoMoon.io -->
<svg version="1.1" xmlns="http://www.w3.org/2000/svg" width="24" height="24" viewBox="0 0 24 24">
<title>warning--keep-right--g1</title>
<path fill="#050505" d="M11.271 0.54c0.284-0.33 0.807-0.416 1.104-0.051 3.714 3.64 7.435 7.279 11.020 11.047 0.381 0.3 0.45 0.864 0.071 1.199-3.214 3.392-6.569 6.646-9.918 9.904-0.505 0.462-0.972 0.971-1.538 1.36h-0.293c-0.351-0.246-0.66-0.545-0.967-0.843-3.044-2.946-6.043-5.94-9.013-8.961-0.608-0.665-1.315-1.265-1.737-2.074v-0.147c0.159-0.31 0.386-0.579 0.632-0.824 3.5-3.583 7.041-7.126 10.639-10.611M11.686 0.768c-3.682 3.558-7.255 7.243-10.901 10.843-0.249 0.199-0.463 0.584-0.162 0.842 3.618 3.631 7.246 7.254 10.869 10.88 0.183 0.231 0.543 0.268 0.737 0.030 3.629-3.623 7.254-7.252 10.879-10.88 0.239-0.194 0.217-0.555-0.015-0.743-3.592-3.595-7.188-7.185-10.779-10.779-0.156-0.163-0.402-0.332-0.628-0.192z"></path>
<path fill="#fecf33" d="M11.686 0.768c0.226-0.14 0.472 0.029 0.628 0.192 3.591 3.594 7.187 7.184 10.779 10.779 0.232 0.189 0.254 0.549 0.015 0.743-3.625 3.628-7.25 7.256-10.879 10.88-0.194 0.238-0.555 0.201-0.737-0.030-3.623-3.626-7.251-7.249-10.869-10.88-0.3-0.257-0.087-0.642 0.162-0.842 3.646-3.6 7.219-7.285 10.901-10.843M8.026 7.181c-0.388 0.43-0.901 0.816-1.044 1.405 1.478 1.665 3.162 3.143 4.678 4.777 0.562 0.562 1.277 1.026 1.622 1.762-0.316 0.228-0.61 0.484-0.884 0.76-0.001 0.039-0.003 0.116-0.004 0.155 1.599 0.544 3.268 1.007 4.973 0.89-0.367-1.445-0.596-2.951-1.216-4.315-0.21-0.002-0.421-0.002-0.63-0.001-0.123 0.248-0.352 0.701-0.683 0.436-2.119-1.93-4.146-3.963-6.324-5.83-0.159-0.039-0.325-0.031-0.487-0.038z"></path>
<path fill="#141b19" d="M8.026 7.181c0.162 0.007 0.328-0.001 0.487 0.038 2.177 1.868 4.205 3.9 6.324 5.83 0.331 0.265 0.561-0.188 0.683-0.436 0.209-0.001 0.42-0.001 0.63 0.001 0.62 1.363 0.85 2.87 1.216 4.315-1.705 0.117-3.373-0.345-4.973-0.89 0.001-0.039 0.003-0.116 0.004-0.155 0.275-0.276 0.569-0.532 0.884-0.76-0.345-0.735-1.060-1.2-1.622-1.762-1.517-1.633-3.201-3.112-4.678-4.777 0.143-0.589 0.656-0.975 1.044-1.405z"></path>
</svg>
