<!-- Generated by IcoMoon.io -->
<svg version="1.1" xmlns="http://www.w3.org/2000/svg" width="24" height="24" viewBox="0 0 24 24">
<title>warning--narrow-bridge--g2</title>
<path fill="#ffd033" d="M11.738 0h0.461c0.248 0.107 0.488 0.242 0.682 0.434 3.361 3.361 6.72 6.722 10.086 10.079 0.394 0.398 0.862 0.769 1.033 1.327v0.272c-0.151 0.583-0.649 0.949-1.048 1.36-3.161 3.16-6.32 6.32-9.48 9.481-0.402 0.392-0.764 0.87-1.324 1.046h-0.264c-0.56-0.13-0.918-0.596-1.306-0.979-3.18-3.181-6.355-6.365-9.538-9.542-0.38-0.388-0.827-0.739-1.042-1.254v-0.438c0.191-0.533 0.646-0.888 1.028-1.278 3.14-3.139 6.281-6.28 9.421-9.419 0.402-0.394 0.768-0.846 1.289-1.090M11.579 0.422c-3.673 3.562-7.247 7.235-10.886 10.834-0.389 0.301-0.554 0.92-0.162 1.29 3.616 3.626 7.24 7.247 10.86 10.87 0.31 0.356 0.91 0.349 1.214-0.010 3.599-3.601 7.2-7.201 10.8-10.802 0.396-0.332 0.343-0.962-0.044-1.279-3.562-3.56-7.127-7.118-10.687-10.681-0.263-0.308-0.738-0.47-1.094-0.221z"></path>
<path fill="#ffd033" d="M11.911 0.75c0.216-0.055 0.372 0.134 0.516 0.26 3.536 3.545 7.084 7.081 10.62 10.626 0.204 0.16 0.275 0.475 0.048 0.65-3.6 3.606-7.204 7.21-10.808 10.81-0.174 0.224-0.493 0.157-0.646-0.053-3.578-3.584-7.164-7.162-10.741-10.746-0.236-0.179-0.169-0.502 0.044-0.667 3.536-3.546 7.084-7.082 10.622-10.628 0.106-0.094 0.208-0.204 0.344-0.252M7.57 5.894c-0.002 0.995-0.030 1.992 0.010 2.984 0.39 0.596 0.948 1.068 1.326 1.672 0.042 0.966 0 1.934 0.018 2.902-0.428 0.574-0.973 1.066-1.346 1.673-0.038 0.977-0.004 1.955-0.013 2.933 0.097-0.001 0.292-0.002 0.389-0.004 0.018-0.848-0.025-1.699 0.017-2.546 0.589-0.832 1.35-1.536 1.967-2.348 0.052-0.772 0.047-1.555 0.002-2.327-0.612-0.817-1.364-1.528-1.967-2.351-0.052-0.792 0.007-1.588-0.019-2.382 0.048-0.234-0.251-0.168-0.383-0.205M11.782 5.921c-0.007 0.846-0.005 1.693-0.001 2.54 0.143-0.016 0.288-0.020 0.432-0.017-0.007-0.841 0.001-1.681-0.006-2.522-0.142 0-0.283 0-0.425-0.001M16.034 5.92c-0.020 0.852 0.026 1.706-0.018 2.557-0.596 0.823-1.349 1.529-1.96 2.342-0.056 0.776-0.067 1.577 0.005 2.351 0.608 0.817 1.386 1.512 1.956 2.351 0.041 0.844-0.002 1.69 0.017 2.533 0.097 0 0.292 0.001 0.389 0.002-0.025-1 0.056-2.011-0.037-3.002-0.412-0.556-0.894-1.055-1.322-1.598 0.016-0.97-0.024-1.939 0.017-2.906 0.379-0.605 0.941-1.075 1.328-1.673 0.042-0.984 0.001-1.97 0.016-2.956-0.097 0-0.293-0.001-0.39-0.001M11.782 10.726c-0.006 0.846-0.008 1.692 0.001 2.538 0.142-0.004 0.282-0.005 0.424-0.006 0.005-0.844 0.005-1.687 0-2.53-0.142 0-0.283-0.001-0.425-0.002M11.782 15.532c-0.007 0.845-0.006 1.69 0 2.534 0.142-0.001 0.283-0.001 0.425-0.001 0.005-0.844 0.005-1.687 0-2.531-0.142 0-0.283-0.001-0.425-0.002z"></path>
<path fill="#000" d="M11.579 0.422c0.356-0.25 0.832-0.088 1.094 0.221 3.56 3.563 7.126 7.121 10.687 10.681 0.388 0.317 0.44 0.947 0.044 1.279-3.6 3.601-7.201 7.201-10.8 10.802-0.305 0.359-0.905 0.366-1.214 0.010-3.62-3.623-7.244-7.243-10.86-10.87-0.392-0.37-0.227-0.989 0.162-1.29 3.64-3.599 7.213-7.272 10.886-10.834M11.911 0.75c-0.137 0.048-0.239 0.158-0.344 0.252-3.539 3.546-7.086 7.082-10.622 10.628-0.214 0.166-0.281 0.488-0.044 0.667 3.577 3.584 7.163 7.162 10.741 10.746 0.152 0.21 0.472 0.277 0.646 0.053 3.605-3.6 7.208-7.204 10.808-10.81 0.227-0.175 0.156-0.491-0.048-0.65-3.536-3.545-7.084-7.081-10.62-10.626-0.144-0.126-0.3-0.316-0.516-0.26z"></path>
<path fill="#000" d="M7.57 5.894c0.132 0.037 0.431-0.029 0.383 0.205 0.026 0.794-0.032 1.59 0.019 2.382 0.602 0.823 1.355 1.534 1.967 2.351 0.044 0.772 0.049 1.555-0.002 2.327-0.617 0.812-1.378 1.517-1.967 2.348-0.042 0.847 0.001 1.698-0.017 2.546-0.097 0.001-0.292 0.002-0.389 0.004 0.010-0.978-0.025-1.956 0.013-2.933 0.373-0.607 0.918-1.099 1.346-1.673-0.018-0.967 0.024-1.936-0.018-2.902-0.378-0.604-0.936-1.075-1.326-1.672-0.040-0.992-0.012-1.99-0.010-2.984z"></path>
<path fill="#000" d="M16.034 5.92c0.097 0 0.293 0.001 0.39 0.001-0.014 0.985 0.026 1.972-0.016 2.956-0.388 0.598-0.949 1.068-1.328 1.673-0.041 0.967-0.001 1.937-0.017 2.906 0.428 0.544 0.911 1.043 1.322 1.598 0.094 0.991 0.012 2.003 0.037 3.002-0.097-0.001-0.292-0.002-0.389-0.002-0.019-0.844 0.024-1.69-0.017-2.533-0.57-0.839-1.348-1.534-1.956-2.351-0.072-0.774-0.061-1.574-0.005-2.351 0.611-0.814 1.363-1.519 1.96-2.342 0.044-0.851-0.002-1.705 0.018-2.557z"></path>
<path fill="#030201" d="M11.782 5.921c0.142 0.001 0.283 0.001 0.425 0.001 0.007 0.841-0.001 1.681 0.006 2.522-0.144-0.004-0.289 0.001-0.432 0.017-0.004-0.847-0.006-1.694 0.001-2.54z"></path>
<path fill="#030201" d="M11.782 10.726c0.142 0.001 0.283 0.002 0.425 0.002 0.005 0.842 0.005 1.686 0 2.53-0.142 0.001-0.282 0.002-0.424 0.006-0.010-0.846-0.007-1.692-0.001-2.538z"></path>
<path fill="#030201" d="M11.782 15.532c0.142 0.001 0.283 0.002 0.425 0.002 0.005 0.844 0.005 1.687 0 2.531-0.142 0-0.283 0-0.425 0.001-0.006-0.845-0.007-1.69 0-2.534z"></path>
</svg>
