<svg xmlns="http://www.w3.org/2000/svg" width="24" height="24">
    <path fill="#fde012" d="M11.693 0h.592c.272.138.527.313.744.529 3.236 3.245 6.474 6.487 9.714 9.728.45.46.966.877 1.258 1.465v.538a2.738 2.738 0 0 1-.478.698c-3.176 3.185-6.348 6.374-9.522 9.56-.517.51-.996 1.067-1.598 1.481h-.761a3.482 3.482 0 0 1-.68-.52c-3.29-3.31-6.586-6.614-9.878-9.923-.385-.391-.818-.751-1.082-1.243v-.612c.283-.553.778-.944 1.201-1.382C4.462 7.057 7.72 3.796 10.978.532c.212-.21.456-.386.716-.533zm-.129.406C7.88 3.953 4.32 7.642.679 11.24c-.42.334-.541 1.015-.115 1.396 3.593 3.606 7.192 7.21 10.789 10.811.336.362.953.362 1.283-.008 3.581-3.58 7.168-7.157 10.745-10.739.44-.385.376-1.099-.058-1.46-3.546-3.535-7.082-7.08-10.63-10.613-.276-.313-.758-.449-1.129-.22z"/>
    <path fill="#fde012" d="M11.804.98c.205-.218.444.034.601.176 3.515 3.526 7.044 7.038 10.549 10.573.245.176.15.45-.056.608-3.54 3.54-7.062 7.099-10.603 10.637-.154.205-.439.21-.589 0-3.554-3.568-7.11-7.134-10.66-10.706-.322-.234-.023-.534.175-.726C4.759 8.031 8.249 4.47 11.804.98zM7.6 6.811c-.246.492-.496.982-.746 1.471.308.16.619.318.93.475.394-.559 1.234-.511 1.529.119-.378-.466-1.258-.644-1.457.076-.222.827.94 1.188 1.36.506.296.187.613.338.907.529-2.237.049-4.476.004-6.713.023-.661.671-1.325 1.34-1.987 2.01 1.943 1.936 3.857 3.905 5.824 5.813.932.154 1.915.016 2.867.065.083.503.581.722.992.412.283.16.6.17.887.011a.9.9 0 0 0 .907-.012.767.767 0 0 0 .847.004c.289.152.614.182.9-.001.284.18.607.158.894-.001.407.311.974.085.954-.458-.194.476-.832.661-.95.029-.136.502-.742.596-.881.035-.18.51-.744.509-.913-.007-.109.524-.746.508-.858-.006-.156.51-.743.539-.904.011-.152.58-.74.442-.917-.03l-.158.433c-.566.126-.704-.456-.744-.889.292.223.635.294.937.05.278.192.594.19.886.023.299.17.623.172.907-.023.27.202.575.199.848.004a.792.792 0 0 0 .901.008.768.768 0 0 0 .889-.011c.335.275.737.164.97-.178l-.083-.248c-.125.557-.8.583-.883-.008-.118.545-.793.617-.872 0-.162.568-.764.577-.918.002-.077.566-.743.582-.86.03-.156.502-.707.564-.895.042-.182.516-.733.455-.89-.038-.121.197-.238.512-.533.433-.295-.156-.318-.526-.409-.81.317.115.648.145.964.013.284.127.583.11.869.001.289.114.593.131.88-.001.293.114.6.114.894.001.287.124.592.124.876-.007.284.124.588.137.872.006.42.218.958.106.992-.442-.236.396-.779.613-.968.053-.179.439-.725.487-.878-.005-.211.463-.746.473-.902-.031-.122.499-.716.516-.869.03-.176.457-.682.458-.904.031-.217.443-.696.407-.889-.026-.15.547-.869.414-.862-.136-.041-2.06-.004-4.123-.016-6.185.913.428 1.768.983 2.714 1.336-.252.556.221 1.277.856 1.042.547-.161.454-.78.379-1.212.203.276.188.616.156.937.311.157.62.318.928.481.228-.385.223-.853.064-1.264-.548-.61-1.295-1.027-1.75-1.724-.41-.504-.672-1.183-1.291-1.474-.583-.3-1.172-.589-1.751-.902-.53-.362-1.112.112-1.645.238-.424-.223-.854-.434-1.282-.652z"/>
    <path fill="#fde012" d="M9.197 7.604c.318-.084.631-.259.965-.244 1.2.583 2.597 1.06 3.185 2.375-1.403-.671-2.774-1.405-4.15-2.131zM8.441 8.684c.581-.157.779.829.197.917-.593.164-.798-.815-.197-.917zM12.935 11.185c.328-.282.77-.299 1.157-.137-.352.15-.788-.076-1.157.137zM13.343 11.302c.278-.127.642.036.686.349.083.371-.4.691-.707.469-.311-.175-.274-.646.02-.818z"/>
    <path d="M11.564.406c.371-.229.853-.094 1.129.22 3.547 3.533 7.084 7.078 10.63 10.613.433.361.498 1.075.058 1.46-3.577 3.582-7.164 7.159-10.745 10.739-.33.371-.947.371-1.283.008C7.755 19.845 4.157 16.241.564 12.635c-.426-.38-.305-1.062.115-1.396C4.32 7.641 7.88 3.953 11.564.405zm.24.574C8.25 4.471 4.759 8.031 1.221 11.542c-.198.192-.497.492-.175.726 3.55 3.572 7.105 7.139 10.66 10.706.15.21.436.205.589 0 3.541-3.538 7.063-7.097 10.603-10.637.206-.158.301-.432.056-.608-3.505-3.535-7.034-7.048-10.549-10.573-.157-.143-.396-.395-.601-.176z"/>
    <path d="M7.6 6.811c.427.217.858.428 1.282.652.533-.126 1.115-.6 1.645-.238.578.313 1.168.602 1.751.902.619.29.881.97 1.291 1.474.455.697 1.201 1.115 1.75 1.724.16.41.164.878-.064 1.264a50.81 50.81 0 0 0-.928-.481c.032-.322.047-.661-.156-.937.074.432.168 1.051-.379 1.212-.635.235-1.108-.486-.856-1.042-.947-.353-1.801-.907-2.714-1.336.012 2.062-.025 4.124.016 6.185-.007.55.712.683.862.136.193.433.672.469.889.026.222.427.727.426.904-.031.152.486.746.469.869-.03.156.504.691.494.902.031.154.492.7.444.878.005.19.56.732.343.968-.053-.035.547-.572.66-.992.442a1.042 1.042 0 0 1-.872-.006 1.05 1.05 0 0 1-.876.007 1.216 1.216 0 0 1-.894-.001c-.287.132-.59.115-.88.001-.286.109-.584.126-.869-.001-.316.132-.647.102-.964-.013.091.284.114.654.409.81.295.079.412-.236.533-.433.157.493.708.554.89.038.188.522.739.46.895-.042.118.552.784.536.86-.03.154.575.756.565.918-.002.079.617.755.545.872 0 .083.592.758.565.883.008l.083.248c-.233.342-.635.452-.97.178a.768.768 0 0 1-.889.011.794.794 0 0 1-.901-.008c-.274.196-.578.198-.848-.004-.284.194-.608.193-.907.023-.292.167-.607.169-.886-.023-.302.244-.646.173-.937-.05.04.433.178 1.015.744.889l.158-.433c.176.472.764.61.917.03.161.528.748.499.904-.011.112.514.749.53.858.006.169.516.733.517.913.007.139.562.745.467.881-.035.119.632.756.448.95-.029.02.544-.547.769-.954.458-.287.16-.61.181-.894.001-.286.184-.611.154-.9.001a.767.767 0 0 1-.847-.004.9.9 0 0 1-.907.012.88.88 0 0 1-.887-.011c-.412.311-.91.091-.992-.412-.952-.049-1.934.089-2.867-.065-1.967-1.908-3.881-3.877-5.824-5.813.662-.67 1.326-1.339 1.987-2.01 2.237-.019 4.476.026 6.713-.023-.294-.191-.611-.342-.907-.529-.42.682-1.582.32-1.36-.506.199-.72 1.079-.541 1.457-.076-.295-.63-1.135-.678-1.529-.119-.311-.157-.622-.316-.93-.475.251-.49.5-.979.746-1.471zm1.597.793c1.375.726 2.747 1.46 4.15 2.131-.588-1.315-1.985-1.792-3.185-2.375-.334-.016-.647.16-.965.244zm-.756 1.08c-.601.102-.396 1.081.197.917.582-.088.384-1.074-.197-.917zm4.494 2.501c.368-.212.805.013 1.157-.137-.386-.162-.829-.145-1.157.137zm.408.117c-.294.173-.331.643-.02.818.307.222.79-.098.707-.469-.044-.313-.408-.476-.686-.349z"/>
</svg>
