<svg xmlns="http://www.w3.org/2000/svg" width="24" height="24">
    <path fill="#eabe2e" opacity=".92" d="M11.812 0h.587c.275.144.528.328.748.549 3.276 3.269 6.56 6.531 9.842 9.795.447.461.978.868 1.253 1.464v.48c-.168.394-.469.705-.776.996-3.629 3.553-7.162 7.208-10.833 10.715h-1.057C7.954 20.492 4.426 16.886.829 13.352a6.936 6.936 0 0 1-.83-.941v-.65c.312-.594.847-1.013 1.308-1.485C4.566 7.029 7.833 3.79 11.088.54c.216-.212.461-.393.724-.542zm.227.287c-.278.021-.487.224-.681.404C7.777 4.264 4.18 7.821.6 11.394c-.375.32-.427.926-.047 1.264 3.641 3.633 7.292 7.256 10.936 10.887.324.375.936.367 1.259-.004 3.642-3.633 7.295-7.256 10.935-10.888.376-.338.32-.938-.048-1.257C20.056 7.824 16.458 4.269 12.881.694c-.225-.219-.504-.452-.841-.407z"/>
    <path d="M12.039.287c.337-.045.616.188.841.407 3.577 3.575 7.175 7.13 10.754 10.702.368.319.424.919.048 1.257-3.64 3.633-7.292 7.256-10.935 10.888-.324.371-.936.378-1.259.004C7.844 19.913 4.193 16.29.552 12.658c-.379-.338-.327-.944.047-1.264C4.178 7.821 7.776 4.264 11.357.691c.194-.179.404-.383.681-.404zm-.007.461c-.33.187-.566.492-.836.75C7.796 4.887 4.39 8.271.989 11.66c-.241.188-.331.525-.051.727 3.625 3.612 7.252 7.225 10.882 10.83.185.244.502.149.665-.063 3.602-3.595 7.217-7.179 10.818-10.776.272-.199.179-.531-.053-.714-3.564-3.552-7.133-7.096-10.693-10.65-.148-.13-.309-.304-.525-.268z"/>
    <path d="M10.795 7.686c.739.387 1.435.852 2.166 1.256l-.387.047c.267.366.533.732.775 1.115-.553-.392-1.059-.842-1.588-1.265l.084-.199a9.686 9.686 0 0 1-1.05-.954z"/>
    <path d="M7.542 7.995c.337-.098.695-.041 1.04-.033.027.537.019 1.076.041 1.615.526.021 1.053.036 1.577-.035-.396-.149-.818-.189-1.23-.265.349-.57 1.136-.324 1.697-.368.553.328.772 1.044 1.313 1.4.888.105 1.795.116 2.691.121.384-.219.661-.582.99-.87l-.148-.309c.507-.474.988-.976 1.509-1.434-.23.465-.492.915-.754 1.364.119.098.238.196.356.296-.503.326-1.002.658-1.501.993 1.097.045 2.193.096 3.29.131.371-.624 1.247-.615 1.548.065.293.018.587.028.88.042l.064.428c-.335.002-.668 0-1.001.005-.135.183-.268.366-.399.553.522.332 1.524.012 1.69.732-2.492-.402-4.975-.859-7.463-1.287.223.136.45.267.672.406l-.594.175c.196.038.394.07.593.103l.121.342c-.206.032-.411.065-.616.104.233.067.469.124.705.176l.141.381c-.252.038-.505.079-.754.136.448.095.987.099 1.05.667-.29.012-.581.024-.869.05.21.332.623.222.95.256l.196.589-.882.002.047.348c.629-.093 1.183.05 1.233.764-.359.002-.716.002-1.074.005l.115.565 1.144-.002c.127.36.253.721.377 1.082l-1.318.002.192 1.024h-.75c-.048-.331-.087-.665-.162-.992-1.181-.082-2.368-.011-3.552-.033l-.119 1.024h-.752l.165-1.024-1.268-.002c.113-.36.225-.721.339-1.081h1.107l.097-.565-1.024-.001.236-.749c.305-.004.611-.001.916-.005l.051-.36-.853-.002.19-.588c.314-.029.702.058.905-.253a18.57 18.57 0 0 0-.815-.053l.168-.512a6.95 6.95 0 0 0 .811-.143 10.08 10.08 0 0 0-.725-.159c.04-.124.081-.246.124-.37.223-.052.446-.108.667-.175a20.106 20.106 0 0 0-.587-.107l.112-.339c.187-.033.373-.067.559-.105l-.566-.178c.215-.139.433-.27.652-.402-2.807.405-5.599.936-8.415 1.263 1.059-.588 2.383-.495 3.55-.796a22.693 22.693 0 0 0-.607-.704c.143-.622.063-1.265.16-1.892.361-.027.737.019 1.088-.085.279-.268.402-.655.676-.926zm2.921 2.097c-.029.274-.065.548-.115.819.435-.034.873-.038 1.309-.048-.24-.315-.484-.628-.73-.939l-.464.168zm-3.105.823c-.052.176-.105.35-.16.526.747-.142 1.496-.27 2.244-.406a27.502 27.502 0 0 1-.321-.464l-1.762.344zm4.026.237l.001.161h1.97l.002-.161h-1.973zm5.269.128c.75.212 1.525.335 2.299.416a52.768 52.768 0 0 0-.275-.47c-.675.008-1.354-.044-2.024.055zm-5.322.349l.001.17c.739-.034 1.496.09 2.222-.096-.733-.136-1.482-.057-2.223-.074zm-.063.565l-.011.202c.799-.015 1.602.044 2.399-.047-.754-.31-1.595-.096-2.388-.155zm-.22.839c.892.098 1.799.084 2.692.008-.387-.322-.918-.158-1.376-.198-.44.032-.942-.109-1.316.189zm.067.607l-.048.27c.941-.019 1.888.073 2.822-.063-.839-.441-1.859-.102-2.773-.207zm-.034.922c-.05.07-.147.213-.196.284 1.006.063 2.016.019 3.023.028-.022-.118-.044-.235-.064-.353-.92.029-1.848-.061-2.762.041zm-.197 1.074l-.067.565c1.09.002 2.181-.001 3.272.002l-.068-.564c-1.046-.007-2.091-.002-3.137-.004z"/>
    <path d="M14.468 11.367c.742.385 1.448.833 2.162 1.265l-.393.022c.274.366.542.737.788 1.124-.548-.387-1.047-.832-1.573-1.245l.016-.258c-.349-.285-.69-.581-1-.908z"/>
    <path fill="#ffd033" d="M12.032.748c.216-.036.377.138.525.268 3.56 3.554 7.13 7.098 10.693 10.65.233.183.325.515.053.714-3.601 3.596-7.216 7.181-10.818 10.776-.164.212-.48.307-.665.063-3.63-3.605-7.257-7.218-10.882-10.83-.28-.202-.19-.539.051-.727C4.39 8.273 7.796 4.889 11.196 1.5c.27-.258.507-.564.836-.75zm-1.237 6.938c.322.347.68.658 1.05.954l-.084.199c.528.423 1.035.874 1.588 1.265-.241-.383-.508-.749-.775-1.115l.387-.047c-.731-.404-1.427-.869-2.166-1.256zm-3.253.309c-.274.272-.398.658-.676.926-.352.104-.727.058-1.088.085-.097.627-.017 1.27-.16 1.892.208.229.408.467.607.704-1.167.302-2.491.208-3.55.796 2.816-.327 5.607-.858 8.415-1.263-.219.132-.438.263-.652.402.142.045.424.135.566.178-.185.039-.372.073-.559.105l-.112.339c.195.033.392.068.587.107-.221.067-.444.122-.667.175-.042.124-.084.246-.124.37.242.046.485.095.725.159a6.95 6.95 0 0 1-.811.143c-.057.171-.113.341-.168.512.272.013.543.028.815.053-.204.312-.592.224-.905.253l-.19.588.853.002-.051.36c-.305.004-.611.001-.916.005l-.236.749 1.024.001-.097.565H9.065c-.114.36-.227.721-.339 1.081l1.268.002-.165 1.024h.752l.119-1.024c1.183.022 2.371-.05 3.552.033.075.326.114.661.162.992h.75l-.192-1.024 1.318-.002a138.4 138.4 0 0 0-.377-1.082l-1.144.002c-.039-.189-.078-.377-.115-.565.358-.002.715-.002 1.074-.005-.05-.714-.604-.857-1.233-.764l-.047-.348.882-.002-.196-.589c-.327-.034-.741.076-.95-.256.288-.025.579-.038.869-.05-.063-.567-.601-.572-1.05-.667.248-.057.502-.098.754-.136-.047-.127-.093-.255-.141-.381a11.342 11.342 0 0 1-.705-.176c.205-.039.41-.073.616-.104l-.121-.342c-.199-.033-.396-.065-.593-.103l.594-.175c-.222-.139-.448-.27-.672-.406 2.488.428 4.971.885 7.463 1.287-.166-.72-1.167-.4-1.69-.732.131-.187.264-.37.399-.553.333-.005.667-.002 1.001-.005-.022-.143-.044-.286-.064-.428-.293-.015-.587-.024-.88-.042-.301-.68-1.177-.69-1.548-.065-1.097-.035-2.193-.086-3.29-.131.498-.335.998-.667 1.501-.993l-.356-.296c.262-.448.524-.898.754-1.364-.521.458-1.002.96-1.509 1.434.048.103.098.206.148.309-.33.288-.606.651-.99.87-.896-.005-1.802-.016-2.691-.121-.541-.356-.76-1.072-1.313-1.4-.561.045-1.348-.201-1.697.368.412.076.834.116 1.23.265-.524.072-1.051.056-1.577.035-.022-.538-.015-1.078-.041-1.615-.345-.008-.703-.065-1.04.033zm6.926 3.372c.31.327.651.623 1 .908l-.016.258c.526.413 1.025.858 1.573 1.245a17.962 17.962 0 0 0-.788-1.124l.393-.022c-.714-.433-1.421-.88-2.162-1.265z"/>
    <path fill="#ffd033" d="M10.463 10.092c.154-.057.309-.113.464-.168.246.312.49.624.73.939-.436.011-.874.015-1.309.048.05-.272.086-.545.115-.819zM7.358 10.915l1.762-.344c.105.155.212.31.321.464-.748.136-1.497.264-2.244.406.055-.176.108-.35.16-.526zM11.384 11.152h1.973l-.002.161h-1.97l-.001-.161zM16.653 11.28c.67-.098 1.349-.046 2.024-.055l.275.47a13.669 13.669 0 0 1-2.299-.416zM11.115 13.64c.914.105 1.935-.234 2.773.207-.933.136-1.881.044-2.822.063l.048-.27zM11.081 14.562c.914-.102 1.842-.012 2.762-.041l.064.353c-1.007-.008-2.017.035-3.023-.028.05-.07.147-.213.196-.284zM10.884 15.636c1.046.001 2.091-.004 3.137.004l.068.564c-1.091-.004-2.182 0-3.272-.002l.067-.565z"/>
    <path fill="#fccd32" d="M11.331 11.629c.741.017 1.49-.062 2.223.074-.726.185-1.482.062-2.222.096l-.001-.17z"/>
    <path fill="#f9cb32" d="M11.268 12.194c.793.059 1.634-.155 2.388.155-.796.091-1.6.033-2.399.047l.011-.202z"/>
    <path fill="#dab12b" d="M11.048 13.033c.375-.298.876-.158 1.316-.189.458.04.989-.125 1.376.198-.893.075-1.8.09-2.692-.008z"/>
</svg>
