<!-- Generated by IcoMoon.io -->
<svg version="1.1" xmlns="http://www.w3.org/2000/svg" width="24" height="24" viewBox="0 0 24 24">
<title>warning--traffic-signals--g2</title>
<path fill="#f5c704" opacity="0.96" d="M11.699 0h0.599c0.27 0.136 0.522 0.308 0.736 0.523 2.874 2.887 5.76 5.764 8.639 8.645 0.787 0.796 1.656 1.52 2.328 2.422v0.788c-0.161 0.264-0.353 0.509-0.571 0.73-3.108 3.092-6.202 6.199-9.305 9.296-0.554 0.55-1.075 1.139-1.711 1.596h-0.768c-0.271-0.161-0.526-0.35-0.751-0.571-3.415-3.426-6.838-6.844-10.26-10.264-0.23-0.235-0.436-0.492-0.634-0.755v-0.75c0.323-0.582 0.851-1.002 1.308-1.472 3.22-3.222 6.444-6.438 9.659-9.665 0.215-0.212 0.466-0.383 0.732-0.523M11.67 0.379c-0.455 0.248-0.773 0.676-1.144 1.027-3.182 3.178-6.355 6.365-9.544 9.536-0.508 0.389-1.015 1.147-0.436 1.71 3.524 3.554 7.082 7.079 10.613 10.628 0.349 0.46 1.070 0.638 1.495 0.174 3.588-3.571 7.163-7.159 10.745-10.738 0.433-0.366 0.41-1.056-0.023-1.412-3.544-3.538-7.084-7.080-10.622-10.622-0.272-0.286-0.7-0.493-1.085-0.304z"></path>
<path fill="#000" d="M11.67 0.379c0.385-0.19 0.812 0.018 1.085 0.304 3.539 3.542 7.079 7.085 10.622 10.622 0.433 0.356 0.456 1.046 0.023 1.412-3.582 3.578-7.157 7.166-10.745 10.738-0.425 0.464-1.146 0.286-1.495-0.174-3.53-3.55-7.088-7.074-10.613-10.628-0.58-0.563-0.072-1.321 0.436-1.71 3.188-3.172 6.361-6.359 9.544-9.536 0.371-0.352 0.689-0.779 1.144-1.027M11.791 0.85c-3.646 3.56-7.218 7.2-10.83 10.796-0.336 0.241-0.169 0.638 0.107 0.845 3.529 3.511 7.045 7.038 10.568 10.555 0.19 0.248 0.538 0.254 0.728 0.004 3.562-3.562 7.127-7.121 10.686-10.685 0.252-0.19 0.239-0.535-0.010-0.721-3.538-3.544-7.082-7.081-10.62-10.624-0.157-0.164-0.415-0.359-0.63-0.17z"></path>
<path fill="#000" d="M11.345 5.371c-0.277-0.923 1.602-0.92 1.307-0.002 0.332 0.029 0.666 0.062 0.998 0.090 0.008 0.392 0.010 0.784 0.007 1.176 1.098 0.073 2.197 0.143 3.294 0.242-0.215 0.756-0.316 1.549-0.619 2.278-0.842 0.33-1.789 0.283-2.676 0.436-0.001 0.302-0.001 0.605 0 0.908 1.097 0.094 2.197 0.154 3.294 0.246-0.224 0.77-0.292 1.601-0.656 2.322-0.852 0.264-1.764 0.248-2.638 0.412-0.001 0.296-0.002 0.592-0.001 0.888 1.094 0.1 2.192 0.168 3.289 0.244-0.176 0.79-0.364 1.577-0.602 2.351-0.886 0.187-1.79 0.257-2.686 0.388-0.001 0.391 0.002 0.781-0.004 1.171-0.265-0.001-0.529-0.001-0.793-0.002-0.016 0.22-0.031 0.439-0.046 0.66-0.54 0.007-1.078 0.044-1.618 0.049-0.018-0.236-0.037-0.473-0.056-0.709-0.264 0.001-0.528 0.001-0.791 0.002 0.001-0.39 0-0.779 0.004-1.169-0.896-0.132-1.802-0.204-2.689-0.391-0.238-0.774-0.427-1.56-0.602-2.35 1.097-0.077 2.195-0.143 3.29-0.242-0.001-0.298-0.001-0.595-0.002-0.893-0.876-0.158-1.788-0.142-2.639-0.413-0.36-0.721-0.431-1.548-0.654-2.317 1.076-0.11 2.162-0.114 3.235-0.258 0.112-0.281 0.043-0.6 0.065-0.896-0.876-0.13-1.78-0.14-2.632-0.392-0.384-0.709-0.431-1.553-0.668-2.32 1.097-0.103 2.196-0.168 3.294-0.245-0.001-0.391 0.001-0.782-0.002-1.174 0.332-0.029 0.665-0.060 0.997-0.089M11.554 6.992c-0.734 0.282-0.962 1.336-0.391 1.885 0.587 0.654 1.82 0.331 1.978-0.546 0.246-0.874-0.761-1.742-1.586-1.339M11.68 10.853c-0.535 0.136-0.908 0.701-0.833 1.247 0.061 0.692 0.838 1.223 1.502 0.984 0.63-0.187 1-0.947 0.734-1.554-0.206-0.547-0.848-0.838-1.404-0.677M11.554 14.794c-0.736 0.28-0.962 1.337-0.395 1.888 0.582 0.648 1.807 0.342 1.978-0.527 0.264-0.881-0.748-1.765-1.583-1.361z"></path>
<path fill="#ffd005" d="M11.791 0.85c0.215-0.188 0.473 0.006 0.63 0.17 3.538 3.542 7.082 7.080 10.62 10.624 0.248 0.186 0.262 0.532 0.010 0.721-3.559 3.564-7.124 7.123-10.686 10.685-0.191 0.251-0.539 0.245-0.728-0.004-3.523-3.517-7.039-7.044-10.568-10.555-0.276-0.206-0.443-0.604-0.107-0.845 3.612-3.596 7.184-7.236 10.83-10.796M11.345 5.371c-0.332 0.029-0.665 0.060-0.997 0.089 0.004 0.391 0.001 0.782 0.002 1.174-1.098 0.077-2.197 0.142-3.294 0.245 0.238 0.767 0.284 1.61 0.668 2.32 0.852 0.252 1.756 0.263 2.632 0.392-0.022 0.296 0.047 0.616-0.065 0.896-1.073 0.144-2.159 0.148-3.235 0.258 0.223 0.769 0.294 1.596 0.654 2.317 0.851 0.271 1.763 0.254 2.639 0.413 0.001 0.298 0.001 0.595 0.002 0.893-1.096 0.1-2.194 0.166-3.29 0.242 0.175 0.79 0.365 1.576 0.602 2.35 0.887 0.187 1.793 0.259 2.689 0.391-0.004 0.39-0.002 0.779-0.004 1.169 0.263-0.001 0.527-0.001 0.791-0.002 0.019 0.236 0.038 0.473 0.056 0.709 0.54-0.005 1.078-0.042 1.618-0.049 0.014-0.221 0.030-0.44 0.046-0.66 0.264 0.001 0.528 0.001 0.793 0.002 0.006-0.39 0.002-0.78 0.004-1.171 0.895-0.131 1.8-0.2 2.686-0.388 0.239-0.774 0.426-1.561 0.602-2.351-1.097-0.076-2.195-0.144-3.289-0.244-0.001-0.296 0-0.592 0.001-0.888 0.874-0.163 1.786-0.148 2.638-0.412 0.365-0.721 0.432-1.552 0.656-2.322-1.097-0.092-2.197-0.152-3.294-0.246-0.001-0.304-0.001-0.606 0-0.908 0.887-0.152 1.834-0.106 2.676-0.436 0.304-0.728 0.404-1.522 0.619-2.278-1.097-0.1-2.196-0.169-3.294-0.242 0.002-0.392 0.001-0.784-0.007-1.176-0.332-0.028-0.666-0.061-0.998-0.090 0.295-0.918-1.584-0.92-1.307 0.002z"></path>
<path fill="#ed1c24" d="M11.554 6.992c0.826-0.403 1.832 0.466 1.586 1.339-0.157 0.877-1.391 1.2-1.978 0.546-0.571-0.55-0.343-1.603 0.391-1.885z"></path>
<path fill="#f7931d" d="M11.68 10.853c0.556-0.161 1.198 0.13 1.404 0.677 0.265 0.607-0.104 1.367-0.734 1.554-0.665 0.239-1.441-0.292-1.502-0.984-0.076-0.546 0.298-1.111 0.833-1.247z"></path>
<path fill="#00a650" d="M11.554 14.794c0.835-0.404 1.847 0.48 1.583 1.361-0.17 0.869-1.396 1.175-1.978 0.527-0.568-0.551-0.341-1.608 0.395-1.888z"></path>
</svg>
