<!-- Generated by IcoMoon.io -->
<svg version="1.1" xmlns="http://www.w3.org/2000/svg" width="28" height="24" viewBox="0 0 28 24">
<title>warning--cliff--g2</title>
<path fill="#ea1c05" d="M13.48 0h0.702c0.473 0.376 0.867 0.842 1.188 1.352 3.671 6.7 7.658 13.222 11.391 19.887 0.306 0.616 0.74 1.222 0.766 1.93-0.079 0.732-0.986 0.617-1.511 0.77-0.559-0.061-1.122-0.116-1.685-0.114-6.235 0.018-12.47 0.015-18.703 0.007-1.339 0.010-2.685-0.076-4.014 0.118-0.606-0.104-1.375-0.126-1.614-0.816v-0.124c0.432-0.927 0.94-1.814 1.443-2.703 3.593-6.26 7.215-12.503 10.901-18.708 0.314-0.574 0.65-1.149 1.135-1.597M11.249 7.806c-2.67 4.666-5.389 9.304-8.092 13.95 3.718 0 7.437 0.031 11.156-0.017l-0.164-0.2c0.048 0.056 0.144 0.172 0.192 0.23 3.388-0.033 6.776 0.010 10.164-0.023-3.559-6.139-7.142-12.263-10.633-18.437-0.938 1.458-1.821 2.964-2.623 4.497z"></path>
<path fill="#fff" d="M11.249 7.806c0.803-1.533 1.685-3.039 2.623-4.497 3.491 6.174 7.074 12.298 10.633 18.437-3.388 0.033-6.776-0.010-10.164 0.023-0.048-0.058-0.144-0.174-0.192-0.23-0.728-0.652-0.973-1.543-0.968-2.493 0.781-1.044-0.326-2.167 0.113-3.262 0.247-0.899 0.523-1.844 1.208-2.516-0.209-0.283-0.417-0.564-0.621-0.851-0.036 0.21-0.071 0.419-0.106 0.627-1.155 0.007-2.311 0.033-3.464-0.020-0.187-1.814 0.306-3.542 0.938-5.219M15.085 12.626l0.21 0.025c0.028 0.503 0.414 0.965 0.907 0.571 0.374 0.281 0.813 0.472 1.177 0.771 0.091 0.243 0.202 0.478 0.316 0.713 0.24-0.033 0.482-0.060 0.723-0.070 0.108-0.243 0.192-0.497 0.252-0.758-0.091-0.076-0.273-0.232-0.364-0.31-0.151-1.389-2.261-1.892-3.221-0.943z"></path>
<path fill="#fff" d="M16.193 12.387c0.796-0.25 1.531 0.415 2.057 0.93-0.778 0.026-1.374-0.634-2.057-0.93z"></path>
<path fill="#050505" d="M3.156 21.756c2.703-4.646 5.422-9.284 8.092-13.95-0.632 1.677-1.126 3.405-0.938 5.219 1.154 0.053 2.309 0.026 3.464 0.020 0.035-0.209 0.070-0.417 0.106-0.627 0.204 0.286 0.412 0.568 0.621 0.851-0.685 0.672-0.962 1.617-1.208 2.516-0.439 1.096 0.669 2.218-0.113 3.262-0.005 0.95 0.24 1.841 0.968 2.493l0.164 0.2c-3.719 0.048-7.438 0.017-11.156 0.017z"></path>
<path fill="#060606" d="M15.085 12.626c0.96-0.948 3.070-0.445 3.221 0.943 0.091 0.078 0.273 0.233 0.364 0.31-0.060 0.262-0.144 0.515-0.252 0.758-0.119-0.214-0.232-0.43-0.341-0.649-0.233 0.002-0.465 0.003-0.698 0.005-0.364-0.3-0.803-0.49-1.177-0.771-0.101-0.167-0.199-0.336-0.293-0.506-0.154-0.017-0.46-0.050-0.614-0.065l-0.21-0.025M16.193 12.387c0.684 0.296 1.279 0.957 2.057 0.93-0.526-0.515-1.261-1.18-2.057-0.93z"></path>
<path fill="#b0b0b1" d="M15.295 12.65c0.154 0.015 0.46 0.048 0.614 0.065 0.094 0.17 0.192 0.339 0.293 0.506-0.493 0.394-0.879-0.068-0.907-0.571z"></path>
<path fill="#bababa" d="M17.379 13.993c0.233-0.002 0.465-0.003 0.698-0.005 0.109 0.218 0.222 0.435 0.341 0.649-0.242 0.010-0.483 0.036-0.723 0.070-0.114-0.235-0.225-0.47-0.316-0.713z"></path>
<path fill="#dd3d38" opacity="0.94" d="M1.614 23.949c1.329-0.194 2.675-0.108 4.014-0.118 6.233 0.008 12.468 0.012 18.703-0.007 0.563-0.002 1.126 0.053 1.685 0.114l-0.276 0.061h-23.858l-0.268-0.051z"></path>
</svg>
