<!-- Generated by IcoMoon.io -->
<svg version="1.1" xmlns="http://www.w3.org/2000/svg" width="24" height="24" viewBox="0 0 24 24">
<title>warning--falling-rocks-or-debris-left--g4</title>
<path fill="#231f20" d="M11.57 0.78c0.653-0.11 1.3 0.199 1.736 0.672 3.078 3.083 6.164 6.157 9.238 9.244 0.704 0.647 0.761 1.867 0.037 2.522-3.314 3.167-6.626 6.337-9.942 9.503-0.686 0.666-1.872 0.614-2.531-0.066-3.16-3.163-6.329-6.318-9.48-9.488-0.694-0.697-0.601-1.926 0.155-2.542 3.19-3.050 6.384-6.098 9.572-9.151 0.335-0.33 0.732-0.636 1.214-0.694M11.32 1.12c-0.301 0.109-0.54 0.331-0.77 0.546-3.206 3.076-6.431 6.133-9.634 9.212-0.636 0.542-0.648 1.594-0.040 2.161 3.143 3.14 6.281 6.286 9.426 9.424 0.553 0.575 1.562 0.632 2.141 0.065 3.319-3.162 6.634-6.331 9.948-9.499 0.611-0.557 0.564-1.591-0.037-2.137-3.092-3.11-6.2-6.205-9.3-9.308-0.43-0.467-1.127-0.686-1.734-0.463z"></path>
<path fill="#231f20" d="M11.434 1.475c0.64-0.151 1.314 0.104 1.756 0.576 2.903 2.897 5.806 5.795 8.698 8.702 0.665 0.62 0.716 1.777 0.041 2.408-3.106 2.977-6.221 5.944-9.331 8.915-0.664 0.636-1.802 0.577-2.432-0.078-2.922-2.92-5.839-5.844-8.762-8.762-0.72-0.635-0.746-1.856-0.022-2.497 2.978-2.861 5.974-5.706 8.958-8.561 0.313-0.302 0.655-0.613 1.096-0.703M10.92 2.156c-0.755 0.689-1.483 1.409-2.222 2.116 0.257 0.396 0.514 0.79 0.776 1.181-0.122 0.274-0.248 0.546-0.376 0.817 0.214 0.461 0.439 0.914 0.652 1.374-0.222 0.456-0.436 0.917-0.653 1.375 0.239 0.448 0.484 0.893 0.73 1.337-0.367 0.78-0.752 1.55-1.117 2.33 0.353 0.662 0.701 1.327 1.050 1.991 0.419 0.002 0.836 0.004 1.254 0.002 0.214 0.432 0.425 0.864 0.636 1.296 0.085 0.001 0.254 0.002 0.34 0.002-0.008-0.269-0.016-0.538-0.019-0.808-0.138-0.050-0.276-0.101-0.414-0.15-0.016-0.238 0.092-0.432 0.275-0.577-0.008-0.089-0.018-0.178-0.026-0.265 0.421 0.006 0.859 0.056 1.262-0.102-0.418-0.048-0.838-0.040-1.256-0.036-0.047-0.244-0.098-0.487-0.162-0.727 0.211-0.48 0.656-0.796 0.88-1.27 0.222-0.409 0.454-0.989 1.026-0.919 1.232 0.031 2.482-0.106 3.703 0.043 0.73 0.532 0.792 1.589 1.384 2.258-0.449 0.019-0.93-0.074-1.343 0.15 0.426 0.050 0.854 0.036 1.282 0.030-0.002 0.131-0.005 0.263-0.007 0.394-0.422 0-0.854-0.043-1.264 0.088 0.41 0.070 0.828 0.062 1.243 0.060-0.005 0.097-0.011 0.194-0.016 0.29 0.091 0.078 0.184 0.156 0.274 0.235-0.004 0.068-0.013 0.204-0.018 0.272-0.13 0.077-0.262 0.154-0.392 0.229 0.002 0.236 0.004 0.474 0.005 0.712-0.396 0.103-0.815 0.138-1.218 0.054-0.168-0.24-0.080-0.554-0.108-0.828-1.265-0.004-2.53 0.022-3.796 0.014-0.002 0.283-0.011 0.568-0.030 0.851 0.738 0.010 1.478-0.023 2.216 0.007 0.204-0.017 0.244 0.223 0.349 0.344-3.635-0.014-7.271-0.077-10.906-0.115 1.843 1.837 3.679 3.682 5.522 5.518 0.508 0.536 1.436 0.56 1.954 0.024 3.052-2.912 6.097-5.828 9.154-8.735 0.613-0.485 0.658-1.466 0.079-1.997-2.912-2.93-5.839-5.848-8.764-8.766-0.494-0.529-1.4-0.61-1.938-0.101M12.762 12.78c1.625-0.067 3.256-0.155 4.879-0.024-0.259-0.392-0.346-1.136-0.949-1.090-0.965-0.026-1.93-0.023-2.894 0.011-0.626-0.055-0.752 0.701-1.036 1.103M14.167 13.471c0.035 0.203-0.157 0.604 0.156 0.632 0.61 0.048 1.222 0.002 1.832-0.008 0.010-0.21 0.016-0.419 0.019-0.629-0.668-0.046-1.339-0.029-2.008 0.005z"></path>
<path fill="#231f20" d="M10.042 6.65c-0.439-0.047-0.433-0.547 0.006-0.593 0.032 0.074 0.098 0.224 0.132 0.299-0.035 0.074-0.103 0.221-0.138 0.294z"></path>
<path fill="#231f20" d="M9.998 8.618c0.134 0.007 0.268 0.017 0.402 0.028 0.053 0.116 0.106 0.232 0.16 0.347-0.056 0.119-0.113 0.238-0.168 0.356-0.131 0.005-0.26 0.010-0.391 0.014-0.066-0.124-0.133-0.246-0.2-0.368 0.066-0.126 0.132-0.252 0.198-0.377z"></path>
<path fill="#231f20" d="M11.024 9.356c0.23 0.004 0.46 0.006 0.69 0.010 0.109 0.227 0.22 0.454 0.331 0.68-0.143 0.488-0.482 0.791-1.015 0.67-0.12-0.227-0.241-0.451-0.364-0.676 0.118-0.229 0.238-0.456 0.358-0.684z"></path>
<path fill="#231f20" d="M10.679 11.669c-0.167-0.157-0.251-0.607 0.109-0.499 0.23 0.155-0.032 0.34-0.109 0.499z"></path>
<path fill="#231f20" d="M10.565 12.721c0.072-0.132 0.145-0.264 0.22-0.396 0.096 0.001 0.287 0.002 0.383 0.002 0.068 0.131 0.138 0.263 0.206 0.395-0.068 0.13-0.138 0.259-0.208 0.39-0.096 0-0.287 0.001-0.382 0.001-0.074-0.131-0.148-0.262-0.22-0.392z"></path>
<path fill="#fff103" d="M11.32 1.12c0.607-0.223 1.304-0.004 1.734 0.463 3.1 3.103 6.208 6.198 9.3 9.308 0.601 0.546 0.648 1.58 0.037 2.137-3.314 3.168-6.629 6.337-9.948 9.499-0.578 0.568-1.588 0.51-2.141-0.065-3.145-3.138-6.283-6.283-9.426-9.424-0.608-0.568-0.596-1.619 0.040-2.161 3.203-3.079 6.427-6.137 9.634-9.212 0.23-0.215 0.469-0.437 0.77-0.546M11.434 1.475c-0.44 0.090-0.782 0.401-1.096 0.703-2.984 2.855-5.98 5.7-8.958 8.561-0.725 0.641-0.698 1.862 0.022 2.497 2.923 2.918 5.84 5.843 8.762 8.762 0.63 0.655 1.769 0.714 2.432 0.078 3.11-2.971 6.226-5.938 9.331-8.915 0.676-0.631 0.624-1.788-0.041-2.408-2.892-2.908-5.795-5.806-8.698-8.702-0.442-0.472-1.116-0.727-1.756-0.576z"></path>
<path fill="#fff103" d="M10.92 2.156c0.538-0.509 1.444-0.428 1.938 0.101 2.924 2.918 5.851 5.836 8.764 8.766 0.578 0.53 0.534 1.512-0.079 1.997-3.056 2.906-6.102 5.822-9.154 8.735-0.517 0.536-1.446 0.512-1.954-0.024-1.843-1.836-3.679-3.68-5.522-5.518 3.635 0.038 7.271 0.101 10.906 0.115-0.106-0.121-0.145-0.361-0.349-0.344-0.738-0.030-1.478 0.002-2.216-0.007 0.019-0.283 0.028-0.568 0.030-0.851 1.266 0.007 2.531-0.018 3.796-0.014 0.028 0.274-0.060 0.588 0.108 0.828 0.403 0.084 0.822 0.049 1.218-0.054-0.001-0.238-0.002-0.475-0.005-0.712 0.131-0.076 0.263-0.152 0.392-0.229 0.005-0.068 0.014-0.204 0.018-0.272-0.090-0.079-0.182-0.157-0.274-0.235 0.005-0.096 0.011-0.193 0.016-0.29-0.415 0.002-0.833 0.010-1.243-0.060 0.409-0.131 0.841-0.088 1.264-0.088 0.002-0.131 0.005-0.263 0.007-0.394-0.427 0.006-0.856 0.020-1.282-0.030 0.413-0.224 0.894-0.131 1.343-0.15-0.592-0.67-0.654-1.727-1.384-2.258-1.222-0.149-2.471-0.012-3.703-0.043-0.572-0.070-0.804 0.51-1.026 0.919-0.223 0.474-0.668 0.79-0.88 1.27 0.064 0.24 0.115 0.484 0.162 0.727 0.419-0.004 0.839-0.012 1.256 0.036-0.403 0.158-0.841 0.108-1.262 0.102 0.008 0.088 0.018 0.176 0.026 0.265-0.182 0.145-0.29 0.34-0.275 0.577 0.138 0.049 0.276 0.1 0.414 0.15 0.004 0.27 0.011 0.539 0.019 0.808-0.085 0-0.254-0.001-0.34-0.002-0.211-0.432-0.422-0.864-0.636-1.296-0.418 0.001-0.835 0-1.254-0.002-0.349-0.664-0.697-1.328-1.050-1.991 0.365-0.78 0.75-1.55 1.117-2.33-0.246-0.444-0.491-0.889-0.73-1.337 0.217-0.458 0.431-0.919 0.653-1.375-0.212-0.46-0.438-0.913-0.652-1.374 0.127-0.271 0.253-0.544 0.376-0.817-0.263-0.391-0.52-0.785-0.776-1.181 0.739-0.707 1.468-1.427 2.222-2.116M10.042 6.65c0.035-0.073 0.103-0.22 0.138-0.294-0.034-0.074-0.1-0.224-0.132-0.299-0.439 0.046-0.445 0.546-0.006 0.593M9.998 8.618c-0.066 0.125-0.132 0.251-0.198 0.377 0.067 0.122 0.134 0.245 0.2 0.368 0.131-0.005 0.26-0.010 0.391-0.014 0.055-0.119 0.112-0.238 0.168-0.356-0.054-0.115-0.107-0.23-0.16-0.347-0.134-0.011-0.268-0.020-0.402-0.028M11.024 9.356c-0.12 0.228-0.24 0.455-0.358 0.684 0.122 0.224 0.244 0.449 0.364 0.676 0.533 0.121 0.872-0.181 1.015-0.67-0.112-0.227-0.222-0.454-0.331-0.68-0.23-0.004-0.46-0.006-0.69-0.010M10.679 11.669c0.077-0.16 0.34-0.344 0.109-0.499-0.36-0.108-0.276 0.342-0.109 0.499M10.565 12.721c0.072 0.131 0.145 0.262 0.22 0.392 0.095 0 0.286-0.001 0.382-0.001 0.070-0.131 0.139-0.26 0.208-0.39-0.068-0.132-0.138-0.264-0.206-0.395-0.096 0-0.287-0.001-0.383-0.002-0.074 0.132-0.148 0.264-0.22 0.396z"></path>
<path fill="#fff103" d="M12.762 12.78c0.283-0.402 0.409-1.158 1.036-1.103 0.965-0.034 1.93-0.037 2.894-0.011 0.604-0.047 0.69 0.697 0.949 1.090-1.624-0.131-3.254-0.043-4.879 0.024z"></path>
<path fill="#fff103" d="M14.167 13.471c0.668-0.034 1.339-0.050 2.008-0.005-0.004 0.21-0.010 0.419-0.019 0.629-0.611 0.011-1.223 0.056-1.832 0.008-0.313-0.029-0.121-0.43-0.156-0.632z"></path>
</svg>
