<?xml version="1.0" encoding="utf-8"?>
<!-- Generated by IcoMoon.io -->
<!DOCTYPE svg PUBLIC "-//W3C//DTD SVG 1.1//EN" "http://www.w3.org/Graphics/SVG/1.1/DTD/svg11.dtd">
<svg version="1.1" xmlns="http://www.w3.org/2000/svg" xmlns:xlink="http://www.w3.org/1999/xlink" width="24" height="24" viewBox="0 0 24 24">
<path fill="#ffd520" d="M10.914 0.716c0.284-0.271 0.552-0.626 0.967-0.686 0.349-0.060 0.677 0.127 0.912 0.37 3.44 3.443 6.881 6.886 10.324 10.326 0.326 0.34 0.728 0.641 0.883 1.105v0.33c-0.113 0.457-0.511 0.739-0.82 1.062-3.482 3.48-6.964 6.96-10.441 10.445-0.152 0.156-0.347 0.259-0.55 0.332h-0.334c-0.461-0.119-0.743-0.522-1.069-0.833-3.358-3.36-6.714-6.721-10.076-10.076-0.271-0.286-0.638-0.547-0.684-0.97-0.058-0.354 0.151-0.67 0.391-0.905 3.499-3.499 7.001-6.997 10.496-10.5M11.681 0.298c-0.287 0.181-0.505 0.448-0.746 0.682-3.299 3.301-6.6 6.6-9.901 9.9-0.251 0.26-0.54 0.492-0.736 0.8-0.172 0.3-0.064 0.683 0.185 0.904 3.542 3.544 7.085 7.087 10.625 10.633 0.257 0.242 0.5 0.589 0.89 0.593 0.397 0.016 0.65-0.335 0.907-0.581 3.438-3.444 6.878-6.884 10.32-10.322 0.245-0.259 0.6-0.506 0.584-0.906 0.006-0.299-0.22-0.522-0.412-0.721-3.587-3.574-7.164-7.158-10.745-10.738-0.235-0.269-0.637-0.442-0.972-0.244z"></path>
<path fill="#ffd520" d="M11.804 0.631c0.203-0.161 0.452-0.010 0.601 0.151 3.602 3.6 7.202 7.204 10.804 10.805 0.137 0.145 0.301 0.308 0.245 0.529-0.167 0.282-0.433 0.486-0.656 0.721-3.481 3.48-6.961 6.962-10.442 10.444-0.124 0.126-0.298 0.241-0.481 0.158-0.289-0.197-0.51-0.474-0.761-0.715-3.44-3.44-6.878-6.883-10.321-10.321-0.137-0.139-0.29-0.308-0.21-0.52 0.186-0.292 0.458-0.514 0.696-0.76 3.262-3.26 6.521-6.521 9.781-9.782 0.246-0.239 0.469-0.504 0.745-0.71M7.728 6.058c-0.856 1.183-1.717 2.36-2.563 3.55-0.227 0.221-0.104 0.655 0.232 0.666 0.456-0.074 0.893-0.229 1.34-0.341 0.001 2.351 0.002 4.702 0.004 7.051 0.666 0 1.333 0 2 0.001 0.001-1.217-0.002-2.434-0.001-3.65 0.478 0.809 1.066 1.548 1.746 2.195 0.228-0.217 0.458-0.431 0.688-0.646-1.072-0.96-1.843-2.215-2.354-3.552-0.151-0.446-0.058-0.93-0.079-1.392 0.448 0.11 0.883 0.274 1.342 0.332 0.288-0.037 0.415-0.418 0.215-0.623-0.841-1.207-1.712-2.394-2.568-3.592M11.522 10.733c0.137 0.869-0.128 1.742-0.038 2.62 0.414 0 0.829 0 1.243-0.001 0.040-0.232 0.016-0.499 0.18-0.689 0.238-0.317 0.76-0.35 1.032-0.060 0.222 0.192 0.194 0.511 0.238 0.774 1.211 0 2.42-0.001 3.631 0.001 0.036-0.256 0.008-0.559 0.217-0.751 0.265-0.283 0.767-0.292 1.028 0.001 0.197 0.197 0.163 0.496 0.2 0.75 0.689-0.004 1.376-0.001 2.065-0.001-0.026-0.52 0.121-1.097-0.179-1.562-0.172-0.308-0.269-0.659-0.24-1.014-0.36-0.098-0.731-0.166-1.105-0.161-2.477 0-4.952 0.002-7.429-0.001-0.284-0.002-0.565 0.044-0.844 0.095M13.129 12.614c-0.39 0.228-0.31 0.881 0.121 1.009 0.353 0.142 0.774-0.158 0.758-0.538 0.017-0.431-0.53-0.728-0.88-0.472M18.26 12.594c-0.365 0.185-0.385 0.752-0.041 0.968 0.319 0.227 0.814 0.023 0.875-0.365 0.11-0.449-0.443-0.853-0.834-0.604z"></path>
<path fill="#ffd520" d="M13.138 11.222c0.618-0.090 1.244-0.032 1.867-0.043 0.12 0.217 0.223 0.443 0.304 0.679-0.601 0.011-1.202 0.007-1.804 0.001-0.126-0.21-0.25-0.422-0.367-0.637z"></path>
<path fill="#ffd520" d="M15.456 11.184c0.284-0.006 0.569-0.007 0.853 0 0.007 0.224 0.007 0.448 0.007 0.672-0.286 0.007-0.572 0.007-0.858 0.004-0.005-0.226-0.004-0.45-0.002-0.676z"></path>
<path fill="#ffd520" d="M16.414 11.215c0.62-0.046 1.256-0.085 1.872 0 0.134 0.191 0.228 0.404 0.335 0.611-0.61 0.068-1.223 0.031-1.835 0.036-0.127-0.214-0.251-0.43-0.372-0.647z"></path>
<path fill="#ffd520" d="M18.583 11.218c0.62-0.074 1.247-0.038 1.87-0.032 0.114 0.212 0.226 0.427 0.334 0.643-0.608 0.062-1.222 0.030-1.832 0.034-0.127-0.214-0.251-0.428-0.371-0.644z"></path>
<path fill="#ffd520" d="M11.738 11.288c0.25 0 0.499-0.001 0.749 0 0 0.298 0 0.596 0 0.895-0.286 0-0.57 0.001-0.856 0.001 0.034-0.299 0.070-0.598 0.107-0.896z"></path>
<path fill="#ffd520" d="M12.656 11.286c0.146 0.197 0.308 0.39 0.406 0.618-0.012 0.22-0.234 0.265-0.4 0.328-0.011-0.316-0.012-0.631-0.006-0.946z"></path>
<path fill="#000" d="M11.681 0.298c0.335-0.198 0.737-0.025 0.972 0.244 3.581 3.58 7.158 7.164 10.745 10.738 0.192 0.199 0.418 0.422 0.412 0.721 0.016 0.4-0.34 0.647-0.584 0.906-3.442 3.438-6.882 6.878-10.32 10.322-0.257 0.246-0.51 0.596-0.907 0.581-0.39-0.004-0.634-0.35-0.89-0.593-3.54-3.546-7.082-7.090-10.625-10.633-0.248-0.221-0.356-0.604-0.185-0.904 0.196-0.308 0.485-0.54 0.736-0.8 3.301-3.3 6.602-6.599 9.901-9.9 0.241-0.234 0.46-0.5 0.746-0.682M11.804 0.631c-0.276 0.206-0.499 0.472-0.745 0.71-3.26 3.262-6.52 6.522-9.781 9.782-0.238 0.246-0.51 0.468-0.696 0.76-0.080 0.211 0.073 0.38 0.21 0.52 3.443 3.438 6.881 6.881 10.321 10.321 0.251 0.241 0.472 0.518 0.761 0.715 0.184 0.083 0.358-0.032 0.481-0.158 3.481-3.481 6.961-6.964 10.442-10.444 0.223-0.235 0.49-0.439 0.656-0.721 0.056-0.221-0.108-0.384-0.245-0.529-3.601-3.601-7.201-7.205-10.804-10.805-0.149-0.161-0.398-0.312-0.601-0.151z"></path>
<path fill="#000" d="M7.728 6.058c0.856 1.198 1.727 2.384 2.568 3.592 0.2 0.205 0.073 0.586-0.215 0.623-0.458-0.059-0.894-0.222-1.342-0.332 0.022 0.462-0.072 0.946 0.079 1.392 0.511 1.337 1.283 2.592 2.354 3.552-0.229 0.215-0.46 0.428-0.688 0.646-0.68-0.647-1.268-1.386-1.746-2.195-0.001 1.217 0.002 2.434 0.001 3.65-0.667-0.001-1.334-0.001-2-0.001-0.001-2.35-0.002-4.7-0.004-7.051-0.448 0.112-0.884 0.266-1.34 0.341-0.336-0.011-0.458-0.445-0.232-0.666 0.846-1.189 1.708-2.366 2.563-3.55z"></path>
<path fill="#000" d="M11.522 10.733c0.278-0.050 0.559-0.097 0.844-0.095 2.477 0.004 4.952 0.001 7.429 0.001 0.374-0.005 0.745 0.062 1.105 0.161-0.029 0.355 0.068 0.706 0.24 1.014 0.3 0.466 0.152 1.043 0.179 1.562-0.689 0-1.376-0.002-2.065 0.001-0.037-0.254-0.004-0.553-0.2-0.75-0.262-0.293-0.763-0.284-1.028-0.001-0.209 0.192-0.181 0.496-0.217 0.751-1.211-0.002-2.42-0.001-3.631-0.001-0.043-0.263-0.016-0.582-0.238-0.774-0.272-0.29-0.794-0.257-1.032 0.060-0.164 0.19-0.14 0.457-0.18 0.689-0.414 0.001-0.829 0.001-1.243 0.001-0.090-0.877 0.175-1.751 0.038-2.62M13.138 11.222c0.118 0.215 0.241 0.427 0.367 0.637 0.601 0.006 1.202 0.010 1.804-0.001-0.080-0.236-0.184-0.462-0.304-0.679-0.623 0.011-1.249-0.047-1.867 0.043M15.456 11.184c-0.001 0.226-0.002 0.45 0.002 0.676 0.286 0.004 0.572 0.004 0.858-0.004 0-0.224 0-0.448-0.007-0.672-0.284-0.007-0.569-0.006-0.853 0M16.414 11.215c0.121 0.217 0.245 0.433 0.372 0.647 0.612-0.005 1.225 0.032 1.835-0.036-0.107-0.206-0.2-0.42-0.335-0.611-0.616-0.085-1.252-0.046-1.872 0M18.583 11.218c0.12 0.216 0.244 0.431 0.371 0.644 0.611-0.004 1.224 0.029 1.832-0.034-0.108-0.216-0.22-0.431-0.334-0.643-0.623-0.006-1.249-0.042-1.87 0.032M11.738 11.288c-0.037 0.299-0.073 0.598-0.107 0.896 0.286 0 0.57-0.001 0.856-0.001 0-0.299 0-0.598 0-0.895-0.25-0.001-0.499 0-0.749 0M12.656 11.286c-0.006 0.314-0.005 0.63 0.006 0.946 0.166-0.062 0.388-0.108 0.4-0.328-0.097-0.228-0.259-0.421-0.406-0.618z"></path>
<path fill="#000" d="M13.129 12.614c0.349-0.257 0.896 0.041 0.88 0.472 0.016 0.379-0.406 0.679-0.758 0.538-0.431-0.128-0.511-0.781-0.121-1.009z"></path>
<path fill="#000" d="M18.26 12.594c0.391-0.25 0.944 0.155 0.834 0.604-0.061 0.388-0.556 0.592-0.875 0.365-0.344-0.216-0.324-0.784 0.041-0.968z"></path>
</svg>
