<!-- Generated by IcoMoon.io -->
<svg version="1.1" xmlns="http://www.w3.org/2000/svg" width="24" height="24" viewBox="0 0 24 24">
<title>warning--soft-road-surface--g1</title>
<path fill="#bb9c17" opacity="0.73" d="M11.779 0h0.41c0.532 0.4 0.983 0.889 1.451 1.36 3.318 3.324 6.638 6.646 9.96 9.966 0.588 0.46 0.232 1.211-0.272 1.562-3.614 3.587-7.2 7.204-10.811 10.793-0.355 0.402-0.956 0.242-1.248-0.146-3.733-3.8-7.582-7.492-11.269-11.333v-0.414c0.306-0.491 0.752-0.866 1.153-1.274 3.121-3.12 6.24-6.24 9.36-9.36 0.406-0.401 0.782-0.841 1.266-1.153M11.819 0.302c-0.15 0.083-0.275 0.203-0.398 0.319-3.636 3.643-7.284 7.276-10.918 10.921-0.269 0.212-0.318 0.6-0.030 0.821 3.698 3.702 7.4 7.402 11.1 11.102 0.246 0.311 0.674 0.2 0.883-0.089 3.653-3.667 7.316-7.325 10.979-10.984 0.272-0.202 0.3-0.602 0.034-0.822-3.653-3.667-7.324-7.319-10.976-10.986-0.178-0.161-0.409-0.418-0.673-0.283z"></path>
<path fill="#000" d="M11.819 0.302c0.264-0.134 0.496 0.122 0.673 0.283 3.653 3.667 7.324 7.319 10.976 10.986 0.266 0.22 0.239 0.62-0.034 0.822-3.662 3.659-7.326 7.316-10.979 10.984-0.209 0.289-0.637 0.4-0.883 0.089-3.7-3.701-7.402-7.4-11.1-11.102-0.288-0.221-0.239-0.608 0.030-0.821 3.634-3.646 7.282-7.278 10.918-10.921 0.124-0.116 0.248-0.236 0.398-0.319M0.562 11.982c3.806 3.796 7.592 7.615 11.417 11.393 3.808-3.791 7.603-7.594 11.401-11.394-3.763-3.841-7.591-7.622-11.396-11.422-3.836 3.778-7.645 7.585-11.422 11.423z"></path>
<path fill="#000" d="M13.319 6.835c0.967-0.32 1.526 0.904 2.4 1.049 0.7-0.062 1.393-0.192 2.094-0.257 0.275 0.616 0.581 1.218 0.926 1.798-0.774 0.172-1.547 0.34-2.321 0.505-0.216-0.606-0.841-1.097-1.505-0.886-0.634 0.143-0.911 0.809-0.9 1.402-1.358 0.305-2.728 0.557-4.080 0.889 3.438 0.004 6.875-0.002 10.312 0.002 0 0.186-0.001 0.372-0.001 0.558-3.68 0.006-7.361-0.010-11.041 0.008-0.307 0.874-1.541 0.834-1.841-0.024-0.577 0.122-1.154 0.241-1.73 0.364-0.050-0.116-0.102-0.233-0.151-0.349-0.642 0.002-1.284 0.001-1.926 0.001-0.004-0.185-0.006-0.37-0.008-0.554 0.628-0.007 1.256-0.006 1.885-0.006-0.026-0.306-0.055-0.611-0.082-0.917 0.744-0.3 1.511-0.535 2.282-0.754 1.073-0.164 1.229-1.5 2.038-2.029 1.211-0.288 2.434-0.527 3.649-0.8M11.873 7.463c0.080 0.389 0.163 0.778 0.248 1.165 0.612-0.137 1.225-0.274 1.842-0.395-0.227-0.356-0.455-0.71-0.674-1.072-0.476 0.082-0.947 0.19-1.416 0.301M9.678 7.994c-0.376 0.426-0.667 0.918-1.004 1.374 1.028-0.203 2.050-0.437 3.076-0.652-0.080-0.388-0.164-0.776-0.247-1.164-0.606 0.148-1.255 0.181-1.824 0.442M7.201 11.434c0.346-0.246 0.61-0.69 1.078-0.689 0.476-0.018 0.751 0.425 1.094 0.679-0.053-1.212-2.137-1.205-2.172 0.010z"></path>
<path fill="#000" d="M15.047 9.293c0.638-0.172 1.274 0.524 1.055 1.145-0.164 0.668-1.129 0.882-1.556 0.338-0.461-0.485-0.157-1.376 0.502-1.483z"></path>
<path fill="#000" d="M10.906 12.505c0.338-0.151 0.685-0.282 1.037-0.402 0.066 0.181 0.133 0.364 0.2 0.546-0.415-0.018-0.89 0.175-1.237-0.144z"></path>
<path fill="#000" d="M13.379 12.148c0.172 0.041 0.343 0.082 0.514 0.122 0.122 0.257 0.244 0.514 0.361 0.773-0.384-0.198-0.763-0.408-1.152-0.601 0.094-0.097 0.186-0.196 0.277-0.294z"></path>
<path fill="#000" d="M16.765 13.014c0.284-0.378 0.65-0.679 1.072-0.894 0.166 0.174 0.33 0.347 0.496 0.521-0.222 0.217-0.444 0.434-0.667 0.652-0.299-0.095-0.6-0.187-0.9-0.278z"></path>
<path fill="#000" d="M9.425 12.631c0.148-0.157 0.295-0.316 0.444-0.473 0.222 0.114 0.44 0.238 0.665 0.35-0.085 0.214-0.166 0.43-0.245 0.646-0.287-0.176-0.576-0.35-0.864-0.523z"></path>
<path fill="#000" d="M15.385 12.258c0.286 0.204 0.569 0.409 0.852 0.617-0.091 0.142-0.184 0.283-0.275 0.426-0.334-0.119-0.668-0.235-1.002-0.353 0.14-0.23 0.283-0.46 0.425-0.69z"></path>
<path fill="#000" d="M4.864 12.37c0.503 0.138 1.013 0.252 1.505 0.426-0.080 0.144-0.174 0.28-0.263 0.418-0.358-0.078-0.718-0.151-1.078-0.226-0.054-0.206-0.109-0.413-0.164-0.618z"></path>
<path fill="#000" d="M3.161 13.386c0.179-0.182 0.36-0.364 0.542-0.542 0.145 0.127 0.29 0.254 0.436 0.383-0.095 0.119-0.191 0.236-0.287 0.354-0.23-0.066-0.461-0.131-0.691-0.194z"></path>
<path fill="#000" d="M12.034 13.208c0.428-0.1 0.907-0.188 1.157 0.268-0.134 0.19-0.271 0.379-0.428 0.551-0.248-0.268-0.49-0.541-0.728-0.818z"></path>
<path fill="#000" d="M5.63 14.104c0.328-0.3 0.65-0.606 1.010-0.868-0.019 0.179-0.041 0.359-0.065 0.539-0.197 0.128-0.394 0.259-0.59 0.39-0.089-0.014-0.266-0.046-0.355-0.061z"></path>
<path fill="#000" d="M10.028 13.456c0.328 0.074 0.665 0.092 0.994 0.018 0.043 0.161 0.086 0.32 0.131 0.481-0.365 0.058-0.722 0.151-1.066 0.288-0.016-0.263-0.037-0.524-0.059-0.787z"></path>
<path fill="#000" d="M14.944 13.369c0.211 0.209 0.409 0.43 0.604 0.655-0.042 0.154-0.085 0.306-0.127 0.46-0.146 0.054-0.294 0.108-0.44 0.162-0.029-0.425-0.055-0.851-0.036-1.277z"></path>
<path fill="#000" d="M8.293 13.722c0.266-0.102 0.546-0.162 0.824-0.221 0.107 0.232 0.214 0.463 0.319 0.695-0.353-0.168-0.991-0.085-1.144-0.474z"></path>
<path fill="#000" d="M6.704 14.658c0.115-0.281 0.233-0.562 0.35-0.842 0.102 0.097 0.204 0.194 0.306 0.292 0.073-0.005 0.148-0.011 0.221-0.016 0.089 0.251 0.202 0.491 0.337 0.72-0.404-0.056-0.81-0.103-1.214-0.154z"></path>
<path fill="#000" d="M4.094 14.404c0.188-0.091 0.373-0.187 0.569-0.259 0.194 0.362 0.403 0.715 0.665 1.034-0.287 0.028-0.575 0-0.853-0.074-0.125-0.235-0.252-0.468-0.38-0.701z"></path>
<path fill="#000" d="M6.004 15.647c0.235-0.031 0.472-0.064 0.707-0.095 0.066 0.053 0.199 0.158 0.265 0.211-0.041 0.293-0.060 0.614-0.298 0.824-0.232-0.308-0.452-0.625-0.674-0.941z"></path>
<path fill="#ffd520" d="M0.562 11.982c3.776-3.838 7.585-7.645 11.422-11.423 3.805 3.799 7.633 7.58 11.396 11.422-3.798 3.8-7.594 7.603-11.401 11.394-3.824-3.778-7.61-7.597-11.417-11.393M13.319 6.835c-1.216 0.274-2.438 0.512-3.649 0.8-0.809 0.529-0.965 1.865-2.038 2.029-0.772 0.218-1.538 0.454-2.282 0.754 0.026 0.306 0.055 0.611 0.082 0.917-0.629 0-1.258-0.001-1.885 0.006 0.002 0.185 0.005 0.37 0.008 0.554 0.642 0 1.284 0.001 1.926-0.001 0.049 0.116 0.101 0.233 0.151 0.349 0.576-0.122 1.153-0.241 1.73-0.364 0.3 0.858 1.534 0.898 1.841 0.024 3.68-0.018 7.361-0.002 11.041-0.008 0-0.186 0.001-0.372 0.001-0.558-3.437-0.005-6.874 0.001-10.312-0.002 1.352-0.332 2.722-0.584 4.080-0.889-0.011-0.593 0.266-1.259 0.9-1.402 0.664-0.211 1.289 0.28 1.505 0.886 0.774-0.166 1.547-0.334 2.321-0.505-0.346-0.58-0.652-1.182-0.926-1.798-0.701 0.065-1.394 0.194-2.094 0.257-0.874-0.145-1.433-1.369-2.4-1.049M15.047 9.293c-0.659 0.107-0.962 0.998-0.502 1.483 0.427 0.544 1.392 0.33 1.556-0.338 0.22-0.62-0.416-1.316-1.055-1.145M10.906 12.505c0.347 0.319 0.822 0.126 1.237 0.144-0.067-0.182-0.134-0.365-0.2-0.546-0.352 0.12-0.698 0.251-1.037 0.402M13.379 12.148c-0.091 0.098-0.184 0.197-0.277 0.294 0.389 0.193 0.768 0.403 1.152 0.601-0.118-0.259-0.239-0.516-0.361-0.773-0.17-0.041-0.342-0.082-0.514-0.122M16.765 13.014c0.3 0.091 0.601 0.184 0.9 0.278 0.223-0.217 0.445-0.434 0.667-0.652-0.166-0.174-0.33-0.347-0.496-0.521-0.421 0.215-0.787 0.516-1.072 0.894M9.425 12.631c0.288 0.173 0.577 0.347 0.864 0.523 0.079-0.216 0.16-0.432 0.245-0.646-0.224-0.113-0.443-0.236-0.665-0.35-0.149 0.157-0.296 0.316-0.444 0.473M15.385 12.258c-0.142 0.23-0.284 0.46-0.425 0.69 0.334 0.118 0.668 0.234 1.002 0.353 0.091-0.143 0.184-0.284 0.275-0.426-0.283-0.208-0.566-0.413-0.852-0.617M4.864 12.37c0.055 0.205 0.11 0.412 0.164 0.618 0.36 0.074 0.72 0.148 1.078 0.226 0.089-0.138 0.182-0.274 0.263-0.418-0.492-0.174-1.002-0.288-1.505-0.426M3.161 13.386c0.23 0.064 0.461 0.128 0.691 0.194 0.096-0.118 0.192-0.235 0.287-0.354-0.145-0.128-0.29-0.256-0.436-0.383-0.182 0.179-0.364 0.36-0.542 0.542M12.034 13.208c0.239 0.277 0.48 0.551 0.728 0.818 0.157-0.172 0.294-0.361 0.428-0.551-0.25-0.456-0.728-0.367-1.157-0.268M5.63 14.104c0.089 0.016 0.266 0.047 0.355 0.061 0.197-0.131 0.394-0.262 0.59-0.39 0.024-0.18 0.046-0.36 0.065-0.539-0.36 0.262-0.683 0.568-1.010 0.868M10.028 13.456c0.022 0.263 0.043 0.524 0.059 0.787 0.343-0.137 0.701-0.23 1.066-0.288-0.044-0.161-0.088-0.32-0.131-0.481-0.329 0.074-0.666 0.056-0.994-0.018M14.944 13.369c-0.019 0.426 0.007 0.852 0.036 1.277 0.146-0.054 0.294-0.108 0.44-0.162 0.042-0.154 0.085-0.306 0.127-0.46-0.194-0.226-0.392-0.446-0.604-0.655M8.293 13.722c0.152 0.389 0.791 0.306 1.144 0.474-0.106-0.232-0.212-0.463-0.319-0.695-0.278 0.059-0.558 0.119-0.824 0.221M6.704 14.658c0.404 0.050 0.81 0.097 1.214 0.154-0.136-0.229-0.248-0.469-0.337-0.72-0.073 0.005-0.148 0.011-0.221 0.016-0.102-0.097-0.204-0.194-0.306-0.292-0.118 0.281-0.235 0.562-0.35 0.842M4.094 14.404c0.128 0.233 0.256 0.466 0.38 0.701 0.278 0.074 0.566 0.102 0.853 0.074-0.262-0.319-0.47-0.672-0.665-1.034-0.196 0.072-0.38 0.168-0.569 0.259M6.004 15.647c0.222 0.316 0.443 0.632 0.674 0.941 0.238-0.21 0.257-0.532 0.298-0.824-0.066-0.053-0.199-0.158-0.265-0.211-0.235 0.031-0.472 0.064-0.707 0.095z"></path>
<path fill="#ffd520" d="M11.873 7.463c0.469-0.112 0.94-0.22 1.416-0.301 0.22 0.361 0.448 0.715 0.674 1.072-0.617 0.121-1.23 0.258-1.842 0.395-0.085-0.388-0.168-0.776-0.248-1.165z"></path>
<path fill="#ffd520" d="M9.678 7.994c0.569-0.26 1.218-0.294 1.824-0.442 0.083 0.388 0.167 0.776 0.247 1.164-1.026 0.215-2.047 0.449-3.076 0.652 0.337-0.456 0.629-0.948 1.004-1.374z"></path>
<path fill="#ffd520" d="M7.201 11.434c0.035-1.214 2.119-1.222 2.172-0.010-0.343-0.254-0.618-0.697-1.094-0.679-0.468-0.001-0.732 0.443-1.078 0.689z"></path>
</svg>
