<?xml version="1.0" encoding="utf-8"?>
<!-- Generated by IcoMoon.io -->
<!DOCTYPE svg PUBLIC "-//W3C//DTD SVG 1.1//EN" "http://www.w3.org/Graphics/SVG/1.1/DTD/svg11.dtd">
<svg version="1.1" xmlns="http://www.w3.org/2000/svg" xmlns:xlink="http://www.w3.org/1999/xlink" width="24" height="24" viewBox="0 0 24 24">
<path fill="#ffd700" d="M10.864 0.548c0.704-0.734 1.968-0.6 2.635 0.118 3.334 3.346 6.66 6.7 9.991 10.048 0.202 0.2 0.372 0.428 0.51 0.678v1.63c-0.203 0.329-0.496 0.583-0.767 0.852-3.289 3.271-6.58 6.539-9.866 9.811-0.125 0.115-0.262 0.217-0.4 0.316h-1.621c-0.436-0.199-0.739-0.578-1.072-0.907-3.215-3.229-6.426-6.462-9.642-9.69-0.708-0.679-0.804-1.945-0.055-2.632 3.427-3.409 6.852-6.82 10.286-10.223M11.689 0.548c-0.311 0.082-0.568 0.289-0.788 0.515-3.313 3.288-6.622 6.58-9.928 9.874-0.643 0.577-0.611 1.662-0.001 2.249 3.334 3.35 6.665 6.703 9.995 10.056 0.46 0.474 1.225 0.64 1.826 0.35 0.359-0.179 0.608-0.505 0.894-0.775 3.205-3.2 6.425-6.385 9.632-9.582 0.412-0.409 0.521-1.061 0.317-1.597-0.156-0.438-0.524-0.746-0.839-1.070-3.174-3.187-6.341-6.383-9.521-9.565-0.401-0.416-1.026-0.604-1.588-0.454z"></path>
<path fill="#ffd700" d="M11.782 1.351c0.383-0.196 0.81 0.031 1.072 0.322 3.248 3.268 6.499 6.533 9.743 9.806 0.295 0.258 0.484 0.712 0.264 1.075-0.216 0.294-0.503 0.526-0.756 0.786-3.151 3.13-6.298 6.263-9.446 9.395-0.196 0.203-0.508 0.276-0.773 0.179-0.282-0.090-0.467-0.335-0.67-0.533-3.227-3.252-6.46-6.498-9.688-9.749-0.34-0.326-0.324-0.918 0.059-1.204 3.265-3.257 6.542-6.503 9.81-9.756 0.121-0.115 0.238-0.239 0.385-0.322M13.174 5.38c0 0.292 0.001 0.582 0 0.874-0.074 0.001-0.223 0.006-0.298 0.007 0 0.222 0 0.443 0 0.665 0.084 0.001 0.251 0.004 0.334 0.005 0.028 0.466-0.065 0.947 0.060 1.4 0.152 0.427 0.692 0.528 1.052 0.305 0.047-0.257 0.1-0.514 0.156-0.768-0.179 0.064-0.443 0.271-0.611 0.084-0.047-0.343-0.012-0.694-0.017-1.039 0.098 0 0.294 0 0.392 0-0.001-0.221-0.001-0.44-0.001-0.661-0.094-0.001-0.281-0.004-0.374-0.005-0.001-0.395 0-0.791-0.002-1.186-0.233 0.101-0.463 0.208-0.691 0.319M9.295 5.785c0.178 0.179 0.361 0.352 0.546 0.523 0.356-0.35 0.924-0.532 1.376-0.25 0.186 0.065 0.248 0.324 0.104 0.463-0.367 0.088-0.763 0.113-1.078 0.346-0.665 0.406-0.973 1.224-0.857 1.979 0.934 0.004 1.867 0.001 2.801 0.001 0.002-0.287 0.001-0.575 0.001-0.862-0.631-0.010-1.262 0.013-1.892-0.017 0.281-0.713 1.196-0.43 1.62-0.977 0.377-0.364 0.372-1.028-0.029-1.373-0.709-0.704-1.948-0.551-2.593 0.166M10.238 10.664c0.571 0.628 1.192 1.211 1.777 1.825 0.578-0.61 1.176-1.2 1.734-1.828-1.169-0.035-2.342-0.040-3.511 0.002M6.694 13.552c0.006 0.926-0.004 1.853 0.004 2.779-0.029 0.163 0.076 0.361 0.266 0.33 0.472 0.004 0.946 0.019 1.417-0.010 0.031-0.028 0.095-0.082 0.126-0.109 0.058-0.394 0.017-0.793 0.026-1.189 0.767 0 1.532-0.004 2.299 0.002 0.24 0.407 0.672 0.726 1.165 0.685 0.456-0.001 0.832-0.314 1.058-0.685 0.85-0.006 1.699-0.002 2.549-0.002 0.066 0.418-0.154 0.959 0.137 1.296 0.504 0.029 1.012 0.024 1.516 0.005 0.226-0.035 0.17-0.293 0.186-0.455-0.001-0.882-0.002-1.764 0.001-2.645-0.019-0.168 0.048-0.425-0.161-0.499-0.517-0.025-1.039-0.034-1.555 0.006-0.263 0.344-0.064 0.851-0.124 1.259-0.848-0.001-1.696 0.004-2.544-0.002-0.187-0.304-0.456-0.578-0.817-0.655-0.559-0.161-1.152 0.157-1.416 0.655-0.764 0.006-1.53 0.002-2.294 0.002-0.067-0.407 0.155-0.938-0.142-1.262-0.515-0.031-1.034-0.030-1.55-0.001-0.193 0.090-0.132 0.328-0.148 0.496z"></path>
<path fill="#000" d="M11.689 0.548c0.562-0.15 1.187 0.037 1.588 0.454 3.18 3.182 6.347 6.378 9.521 9.565 0.314 0.324 0.683 0.632 0.839 1.070 0.204 0.536 0.095 1.188-0.317 1.597-3.208 3.197-6.427 6.382-9.632 9.582-0.286 0.27-0.535 0.596-0.894 0.775-0.601 0.289-1.367 0.124-1.826-0.35-3.33-3.353-6.661-6.706-9.995-10.056-0.61-0.587-0.642-1.672 0.001-2.249 3.306-3.294 6.614-6.586 9.928-9.874 0.221-0.226 0.478-0.433 0.788-0.515M11.782 1.351c-0.148 0.083-0.264 0.206-0.385 0.322-3.268 3.253-6.545 6.499-9.81 9.756-0.383 0.286-0.398 0.877-0.059 1.204 3.228 3.251 6.461 6.497 9.688 9.749 0.203 0.198 0.388 0.443 0.67 0.533 0.265 0.097 0.577 0.024 0.773-0.179 3.149-3.132 6.295-6.265 9.446-9.395 0.253-0.26 0.54-0.492 0.756-0.786 0.22-0.364 0.031-0.817-0.264-1.075-3.244-3.274-6.494-6.539-9.743-9.806-0.262-0.29-0.689-0.517-1.072-0.322z"></path>
<path fill="#000" d="M13.174 5.38c0.228-0.112 0.458-0.218 0.691-0.319 0.002 0.395 0.001 0.791 0.002 1.186 0.094 0.001 0.281 0.004 0.374 0.005 0 0.221 0 0.44 0.001 0.661-0.098 0-0.294 0-0.392 0 0.005 0.346-0.030 0.696 0.017 1.039 0.168 0.187 0.432-0.020 0.611-0.084-0.056 0.254-0.109 0.511-0.156 0.768-0.36 0.223-0.9 0.122-1.052-0.305-0.125-0.454-0.032-0.935-0.060-1.4-0.083-0.001-0.25-0.004-0.334-0.005 0-0.222 0-0.443 0-0.665 0.074-0.001 0.223-0.006 0.298-0.007 0.001-0.292 0-0.582 0-0.874z"></path>
<path fill="#000" d="M9.295 5.785c0.646-0.716 1.884-0.87 2.593-0.166 0.401 0.344 0.406 1.009 0.029 1.373-0.424 0.547-1.339 0.264-1.62 0.977 0.63 0.030 1.261 0.007 1.892 0.017 0 0.287 0.001 0.575-0.001 0.862-0.934 0-1.867 0.002-2.801-0.001-0.116-0.755 0.192-1.573 0.857-1.979 0.314-0.233 0.71-0.258 1.078-0.346 0.144-0.139 0.082-0.398-0.104-0.463-0.452-0.282-1.020-0.101-1.376 0.25-0.185-0.172-0.368-0.344-0.546-0.523z"></path>
<path fill="#000" d="M10.238 10.664c1.169-0.042 2.342-0.037 3.511-0.002-0.558 0.628-1.156 1.218-1.734 1.828-0.586-0.614-1.206-1.198-1.777-1.825z"></path>
<path fill="#000" d="M6.694 13.552c0.016-0.168-0.046-0.406 0.148-0.496 0.516-0.029 1.036-0.030 1.55 0.001 0.296 0.324 0.074 0.856 0.142 1.262 0.764 0 1.53 0.004 2.294-0.002 0.264-0.498 0.857-0.816 1.416-0.655 0.361 0.077 0.63 0.352 0.817 0.655 0.848 0.006 1.696 0.001 2.544 0.002 0.060-0.408-0.139-0.914 0.124-1.259 0.516-0.040 1.038-0.031 1.555-0.006 0.209 0.074 0.142 0.331 0.161 0.499-0.004 0.881-0.002 1.763-0.001 2.645-0.016 0.162 0.040 0.42-0.186 0.455-0.504 0.019-1.012 0.024-1.516-0.005-0.29-0.337-0.071-0.878-0.137-1.296-0.85 0-1.699-0.004-2.549 0.002-0.227 0.371-0.602 0.684-1.058 0.685-0.493 0.041-0.925-0.278-1.165-0.685-0.767-0.006-1.532-0.002-2.299-0.002-0.010 0.396 0.031 0.796-0.026 1.189-0.031 0.028-0.095 0.082-0.126 0.109-0.472 0.029-0.946 0.013-1.417 0.010-0.191 0.031-0.295-0.167-0.266-0.33-0.007-0.926 0.002-1.853-0.004-2.779z"></path>
</svg>
