<?xml version="1.0" encoding="utf-8"?>
<!-- Generated by IcoMoon.io -->
<!DOCTYPE svg PUBLIC "-//W3C//DTD SVG 1.1//EN" "http://www.w3.org/Graphics/SVG/1.1/DTD/svg11.dtd">
<svg version="1.1" xmlns="http://www.w3.org/2000/svg" xmlns:xlink="http://www.w3.org/1999/xlink" width="24" height="24" viewBox="0 0 24 24">
<path fill="#231f20" d="M11.603 0h0.479c0.348 0.103 0.595 0.379 0.842 0.629 3.481 3.481 6.962 6.962 10.444 10.444 0.338 0.305 0.461 0.834 0.228 1.238-0.184 0.288-0.455 0.505-0.691 0.748-3.26 3.26-6.522 6.52-9.782 9.78-0.263 0.253-0.493 0.551-0.81 0.74-0.398 0.217-0.912 0.1-1.212-0.23-3.434-3.45-6.884-6.884-10.327-10.326-0.306-0.312-0.695-0.6-0.773-1.060v-0.251c0.055-0.283 0.217-0.524 0.425-0.72 3.524-3.518 7.042-7.044 10.566-10.562 0.175-0.181 0.38-0.33 0.612-0.43M11.681 0.643c-0.118 0.077-0.218 0.178-0.319 0.275-3.497 3.505-7.003 7.001-10.5 10.506-0.145 0.138-0.316 0.322-0.229 0.54 0.14 0.247 0.373 0.42 0.566 0.623 3.446 3.436 6.887 6.877 10.328 10.318 0.148 0.191 0.451 0.239 0.616 0.041 3.43-3.41 6.844-6.839 10.268-10.255 0.222-0.23 0.481-0.43 0.66-0.697 0.108-0.209-0.047-0.412-0.194-0.545-3.541-3.546-7.086-7.090-10.631-10.632-0.139-0.15-0.361-0.304-0.565-0.173z"></path>
<path fill="#231f20" d="M9.181 5.899c0.51 0 1.019 0 1.529 0 0.001 3.61 0.001 7.219 0 10.829-0.51 0.001-1.020 0.001-1.529 0-0.001-3.61-0.002-7.219 0-10.829z"></path>
<path fill="#231f20" d="M13.078 5.896c0.511 0 1.021 0 1.532 0.001-0.001 1.322 0 2.646-0.002 3.968-0.020 0.17 0.097 0.306 0.18 0.44 0.487 0.712 0.959 1.434 1.444 2.148 0.086 0.113 0.124 0.239 0.113 0.38-0.002 1.295-0.001 2.591-0.002 3.886-0.503 0.001-1.006 0.001-1.508 0-0.001-1.296-0.004-2.592 0.001-3.888 0.018-0.149-0.043-0.284-0.13-0.401-0.509-0.742-1.008-1.489-1.517-2.231-0.080-0.102-0.118-0.218-0.11-0.349-0.001-1.318 0-2.636 0-3.955z"></path>
<path fill="#fd0" d="M11.681 0.643c0.204-0.131 0.426 0.023 0.565 0.173 3.545 3.542 7.090 7.086 10.631 10.632 0.148 0.133 0.302 0.336 0.194 0.545-0.179 0.268-0.438 0.467-0.66 0.697-3.425 3.416-6.839 6.845-10.268 10.255-0.164 0.198-0.468 0.15-0.616-0.041-3.442-3.44-6.882-6.882-10.328-10.318-0.193-0.203-0.426-0.376-0.566-0.623-0.086-0.218 0.084-0.402 0.229-0.54 3.497-3.505 7.003-7.001 10.5-10.506 0.101-0.097 0.202-0.198 0.319-0.275M9.181 5.899c-0.002 3.61-0.001 7.219 0 10.829 0.509 0.001 1.019 0.001 1.529 0 0.001-3.61 0.001-7.219 0-10.829-0.51 0-1.019 0-1.529 0M13.078 5.896c0 1.319-0.001 2.638 0 3.955-0.007 0.131 0.030 0.247 0.11 0.349 0.509 0.742 1.008 1.489 1.517 2.231 0.086 0.116 0.148 0.252 0.13 0.401-0.005 1.296-0.002 2.592-0.001 3.888 0.503 0.001 1.006 0.001 1.508 0 0.001-1.295 0-2.591 0.002-3.886 0.011-0.142-0.026-0.268-0.113-0.38-0.485-0.714-0.956-1.436-1.444-2.148-0.083-0.134-0.2-0.27-0.18-0.44 0.002-1.322 0.001-2.646 0.002-3.968-0.511-0.001-1.021-0.001-1.532-0.001z"></path>
</svg>
