<?xml version="1.0" encoding="utf-8"?>
<!-- Generated by IcoMoon.io -->
<!DOCTYPE svg PUBLIC "-//W3C//DTD SVG 1.1//EN" "http://www.w3.org/Graphics/SVG/1.1/DTD/svg11.dtd">
<svg version="1.1" xmlns="http://www.w3.org/2000/svg" xmlns:xlink="http://www.w3.org/1999/xlink" width="24" height="24" viewBox="0 0 24 24">
<path fill="#c0111e" d="M11.963 1.459h0.207c0.322 0.098 0.674 0.101 0.967 0.282 0.033 0.019 0.098 0.056 0.13 0.073 0.781 0.512 1.135 1.408 1.627 2.163 0.017 0.030 0.052 0.090 0.069 0.121 0.385 0.607 0.754 1.227 1.111 1.851l-0.003 0.103 0.085 0.052c0.133 0.151 0.22 0.333 0.313 0.509l-0.005 0.106 0.091 0.052c0.302 0.446 0.575 0.918 0.83 1.392 0.038 0.252 0.137 0.593 0.4 0.672l0.003 0.007c0.244 0.542 0.566 1.078 0.914 1.563l0.003 0.008c0.058 0.247 0.141 0.593 0.408 0.674l0.003 0.004c0.241 0.546 0.568 1.086 0.915 1.574l0.004 0.007c0.056 0.24 0.143 0.595 0.406 0.667l0.005 0.009c0.235 0.548 0.568 1.079 0.91 1.569l0.003 0.007c0.058 0.247 0.142 0.591 0.408 0.672l0.001 0.003c0.241 0.546 0.568 1.083 0.912 1.571l0.004 0.009c0.060 0.245 0.142 0.591 0.41 0.671l0.001 0.003c0.231 0.595 0.662 1.105 0.906 1.704v1.769c-0.025 0.024-0.074 0.073-0.098 0.098-0.22 0.45-0.656 0.83-1.123 1.017-0.028 0.027-0.086 0.077-0.115 0.102h-21.188c-0.030-0.025-0.091-0.076-0.122-0.101-0.464-0.175-0.851-0.556-1.116-0.967-0.024-0.040-0.072-0.119-0.095-0.159l-0.033-0.302-0.109 0.163v-0.754c0.123-0.265 0.054-0.569 0.102-0.851 0.184-0.346 0.412-0.683 0.542-1.050v-0.001c0.257-0.082 0.365-0.415 0.396-0.664l0.011-0.007c0.26-0.093 0.342-0.423 0.396-0.67l0.005-0.011c0.342-0.485 0.667-1.020 0.908-1.561l0.009-0.020c0.265-0.070 0.346-0.423 0.404-0.664l0.003-0.005c0.338-0.487 0.671-1.018 0.906-1.561l0.012-0.025c0.26-0.061 0.346-0.427 0.404-0.662l0.004-0.008c0.346-0.489 0.675-1.026 0.914-1.574v0c0.256-0.078 0.355-0.432 0.407-0.675 0.267-0.542 0.605-1.051 0.91-1.574 0.272-0.073 0.375-0.419 0.41-0.674 0.259-0.473 0.53-0.945 0.831-1.392l0.091-0.053-0.005-0.103c0.094-0.179 0.182-0.361 0.314-0.513l0.086-0.053-0.003-0.102c0.358-0.629 0.733-1.248 1.116-1.862 0.016-0.028 0.048-0.084 0.064-0.111 0.301-0.504 0.603-1.010 0.927-1.5 0.411-0.593 1.094-0.928 1.797-1.017M11.992 3.878c-3.222 5.495-6.475 10.972-9.693 16.471 6.512-0.003 13.024 0.003 19.535-0.003-3.223-5.496-6.472-10.978-9.697-16.471-0.037 0-0.11 0.001-0.146 0.003z"></path>
<path fill="#c18388" opacity="0.94" d="M13.136 1.741c0.033 0.019 0.098 0.056 0.13 0.073-0.032-0.017-0.097-0.054-0.13-0.073z"></path>
<path fill="#c18388" opacity="0.94" d="M9.176 4.087c0.016-0.028 0.048-0.084 0.064-0.111-0.016 0.028-0.048 0.084-0.064 0.111z"></path>
<path fill="#c18388" opacity="0.94" d="M14.893 3.977c0.017 0.030 0.052 0.090 0.069 0.121-0.017-0.030-0.052-0.090-0.069-0.121z"></path>
<path fill="#c18388" opacity="0.94" d="M7.982 6.004l0.077-0.056 0.003 0.102-0.086 0.053 0.007-0.099z"></path>
<path fill="#c18388" opacity="0.94" d="M16.073 5.948l0.077 0.056 0.005 0.099-0.085-0.052 0.003-0.103z"></path>
<path fill="#c18388" opacity="0.94" d="M7.585 6.675l0.077-0.058 0.005 0.103-0.091 0.053 0.009-0.098z"></path>
<path fill="#c18388" opacity="0.94" d="M16.468 6.613l0.078 0.058 0.008 0.099-0.091-0.052 0.005-0.106z"></path>
<path fill="#c18388" opacity="0.94" d="M0.142 21.315c0.024 0.040 0.072 0.119 0.095 0.159-0.024-0.040-0.072-0.119-0.095-0.159z"></path>
<path fill="#c18388" opacity="0.94" d="M23.902 21.422c0.024-0.025 0.073-0.074 0.098-0.098v0.081l-0.098 0.017z"></path>
<path fill="#c18388" opacity="0.94" d="M1.354 22.441c0.030 0.025 0.092 0.076 0.122 0.101h-0.099l-0.023-0.101z"></path>
<path fill="#c18388" opacity="0.94" d="M22.663 22.541c0.029-0.025 0.088-0.076 0.115-0.102l-0.021 0.102h-0.094z"></path>
<path fill="#fff" d="M11.992 3.878c0.036-0.001 0.109-0.003 0.146-0.003 3.225 5.493 6.473 10.975 9.697 16.471-6.512 0.005-13.024 0-19.535 0.003 3.218-5.499 6.471-10.976 9.693-16.471M10.438 10.714c-1.158 0.56-1.964 1.783-1.99 3.072-0.021 1.986 0.013 3.975-0.017 5.962 0.53-0.337 0.93-0.879 1.463-1.209 0.455 0.414 0.908 0.83 1.378 1.227 0.020-1.952 0-3.905 0.011-5.858 0.011-0.404 0.383-0.749 0.786-0.736 0.403-0.011 0.769 0.334 0.784 0.737 0.012 1.541-0.011 3.083 0.011 4.624 0.464 0.403 0.922 0.813 1.378 1.225 0.51-0.359 1.020-0.833 1.459-1.29-0.021-1.557 0.005-3.115-0.013-4.671-0.027-1.326-0.875-2.584-2.082-3.125-0.988-0.468-2.192-0.452-3.165 0.044z"></path>
<path fill="#fff" d="M6.334 8.839c0.174-0.208 0.221-0.488 0.41-0.674-0.034 0.255-0.138 0.601-0.41 0.674z"></path>
<path fill="#fff" d="M17.385 8.163c0.188 0.183 0.244 0.457 0.4 0.672-0.264-0.080-0.362-0.42-0.4-0.672z"></path>
<path fill="#fff" d="M17.788 8.842c0.312 0.513 0.634 1.032 0.914 1.563-0.347-0.485-0.67-1.021-0.914-1.563z"></path>
<path fill="#fff" d="M5.017 11.088c0.158-0.212 0.211-0.507 0.407-0.675-0.052 0.243-0.151 0.597-0.407 0.675z"></path>
<path fill="#fff" d="M18.704 10.413c0.202 0.163 0.248 0.463 0.408 0.674-0.268-0.081-0.35-0.427-0.408-0.674z"></path>
<path fill="#fff" d="M4.104 12.662c0.278-0.536 0.603-1.055 0.914-1.574-0.239 0.548-0.568 1.085-0.914 1.574z"></path>
<path fill="#fff" d="M19.115 11.090c0.313 0.516 0.635 1.037 0.915 1.574-0.347-0.488-0.674-1.028-0.915-1.574z"></path>
<path fill="#fff" d="M3.695 13.331c0.162-0.204 0.203-0.51 0.404-0.662-0.058 0.235-0.145 0.601-0.404 0.662z"></path>
<path fill="#fff" d="M20.034 12.671c0.2 0.154 0.244 0.46 0.406 0.667-0.263-0.072-0.35-0.427-0.406-0.667z"></path>
<path fill="#fff" d="M2.778 14.917c0.274-0.533 0.598-1.049 0.906-1.561-0.235 0.542-0.568 1.074-0.906 1.561z"></path>
<path fill="#fff" d="M20.445 13.347c0.306 0.517 0.632 1.033 0.91 1.569-0.342-0.489-0.675-1.021-0.91-1.569z"></path>
<path fill="#fff" d="M2.371 15.587c0.16-0.206 0.202-0.51 0.404-0.664-0.058 0.241-0.139 0.594-0.404 0.664z"></path>
<path fill="#fff" d="M21.357 14.922c0.203 0.158 0.247 0.463 0.408 0.672-0.267-0.081-0.35-0.426-0.408-0.672z"></path>
<path fill="#fff" d="M1.453 17.167c0.276-0.532 0.597-1.052 0.908-1.561-0.241 0.541-0.566 1.075-0.908 1.561z"></path>
<path fill="#fff" d="M21.767 15.597c0.31 0.516 0.635 1.036 0.912 1.571-0.345-0.488-0.671-1.025-0.912-1.571z"></path>
<path fill="#fff" d="M1.051 17.848c0.146-0.213 0.198-0.514 0.396-0.67-0.054 0.247-0.137 0.577-0.396 0.67z"></path>
<path fill="#fff" d="M22.683 17.178c0.206 0.155 0.245 0.464 0.41 0.671-0.268-0.080-0.35-0.426-0.41-0.671z"></path>
<path fill="#fff" d="M0.644 18.518c0.155-0.21 0.208-0.496 0.396-0.664-0.032 0.249-0.139 0.582-0.396 0.664z"></path>
<path fill="#fff" d="M23.094 17.852c0.318 0.464 0.556 1.048 0.906 1.451v0.253c-0.244-0.599-0.675-1.108-0.906-1.704z"></path>
<path fill="#fff" d="M0.102 19.57c0.064-0.387 0.361-0.705 0.542-1.050-0.13 0.367-0.358 0.704-0.542 1.050z"></path>
<path fill="#030303" d="M10.438 10.714c0.973-0.496 2.177-0.512 3.165-0.044 1.207 0.541 2.055 1.799 2.082 3.125 0.019 1.557-0.008 3.115 0.013 4.671-0.439 0.457-0.948 0.931-1.459 1.29-0.456-0.412-0.914-0.822-1.378-1.225-0.021-1.541 0.001-3.083-0.011-4.624-0.015-0.403-0.381-0.748-0.784-0.737-0.403-0.013-0.776 0.331-0.786 0.736-0.011 1.953 0.009 3.906-0.011 5.858-0.469-0.396-0.923-0.813-1.378-1.227-0.533 0.33-0.932 0.872-1.463 1.209 0.030-1.986-0.004-3.975 0.017-5.962 0.027-1.289 0.833-2.513 1.99-3.072z"></path>
</svg>
