<!-- Generated by IcoMoon.io -->
<svg version="1.1" xmlns="http://www.w3.org/2000/svg" width="24" height="24" viewBox="0 0 24 24">
<title>warning--dual-lanes-turn-left-or-right--g2</title>
<path fill="#bb9c17" opacity="0.73" d="M11.774 0h0.394c0.371 0.246 0.684 0.562 0.99 0.881 3.497 3.505 7.006 6.998 10.499 10.507 0.331 0.283 0.356 0.838 0.028 1.133-3.72 3.721-7.442 7.444-11.166 11.162-0.293 0.33-0.852 0.311-1.126-0.034-3.476-3.484-6.964-6.958-10.445-10.436-0.335-0.325-0.673-0.65-0.948-1.030v-0.386c0.241-0.434 0.63-0.754 0.973-1.104 3.2-3.199 6.4-6.401 9.6-9.6 0.385-0.38 0.743-0.797 1.201-1.093M11.816 0.296c-0.292 0.179-0.511 0.449-0.755 0.684-3.518 3.523-7.044 7.037-10.56 10.561-0.227 0.186-0.344 0.542-0.086 0.761 3.714 3.725 7.439 7.442 11.156 11.166 0.182 0.234 0.569 0.266 0.761 0.025 3.72-3.721 7.44-7.442 11.161-11.161 0.241-0.192 0.206-0.576-0.022-0.762-3.674-3.688-7.366-7.358-11.042-11.044-0.157-0.156-0.378-0.341-0.613-0.23z"></path>
<path fill="#000" d="M11.816 0.296c0.235-0.11 0.456 0.074 0.613 0.23 3.677 3.685 7.368 7.356 11.042 11.044 0.228 0.186 0.263 0.57 0.022 0.762-3.721 3.719-7.441 7.44-11.161 11.161-0.192 0.241-0.578 0.209-0.761-0.025-3.718-3.724-7.442-7.441-11.156-11.166-0.258-0.218-0.14-0.575 0.086-0.761 3.516-3.524 7.042-7.038 10.56-10.561 0.244-0.235 0.463-0.505 0.755-0.684M0.568 11.988c3.802 3.796 7.585 7.612 11.411 11.383 3.808-3.787 7.603-7.586 11.394-11.389-3.756-3.841-7.583-7.616-11.384-11.414-3.845 3.763-7.657 7.576-11.42 11.42z"></path>
<path fill="#000" d="M7.237 8.406c0.631-0.942 1.301-1.856 1.957-2.78 0.625 0.941 1.339 1.828 1.915 2.798-0.114 0.576-0.815 0.089-1.171 0.048-0.010 3.346 0 6.691-0.005 10.037-0.502 0.006-1.002 0.006-1.504 0-0.001-1.009 0-2.018 0.001-3.028 0.050-1.288-0.866-2.534-2.090-2.911-0.017 0.35 0.12 0.74-0.024 1.068-0.211 0.212-0.416-0.042-0.564-0.192-0.68-0.731-1.373-1.45-2.057-2.176 1.043-0.479 2.093-0.943 3.155-1.378 0.442 0.34-0.102 0.824-0.215 1.201 0.643 0.236 1.268 0.528 1.79 0.979 0.004-1.202 0.006-2.406-0.001-3.608-0.386 0.047-0.997 0.497-1.188-0.059z"></path>
<path fill="#000" d="M14.729 5.644c0.689 0.887 1.35 1.807 1.946 2.758-0.104 0.577-0.792 0.104-1.146 0.060-0.032 1.206-0.004 2.413-0.016 3.619 0.52-0.446 1.132-0.766 1.786-0.962-0.088-0.366-0.703-0.996-0.145-1.193 1.044 0.41 2.068 0.881 3.090 1.345-0.796 0.811-1.534 1.685-2.368 2.454-0.559-0.064-0.216-0.791-0.272-1.158-1.222 0.382-2.148 1.622-2.093 2.912 0.001 1.009 0.006 2.020-0.001 3.030-0.499 0.006-1 0.006-1.499 0-0.007-3.346-0.001-6.691-0.004-10.037-0.365 0.043-1.076 0.536-1.174-0.061 0.58-0.955 1.283-1.832 1.895-2.767z"></path>
<path fill="#000" d="M11.803 13.832c0.083-0.001 0.247-0.002 0.33-0.002 0.019 1.565 0.007 3.13 0.006 4.694-0.239 0.062-0.384-0.034-0.34-0.283 0.002-1.47-0.001-2.94 0.004-4.409z"></path>
<path fill="#ffd520" d="M0.568 11.988c3.763-3.845 7.576-7.657 11.42-11.42 3.802 3.798 7.628 7.573 11.384 11.414-3.791 3.803-7.586 7.602-11.394 11.389-3.826-3.772-7.609-7.588-11.411-11.383M7.237 8.406c0.191 0.556 0.802 0.106 1.188 0.059 0.007 1.202 0.005 2.406 0.001 3.608-0.522-0.451-1.147-0.743-1.79-0.979 0.113-0.377 0.656-0.862 0.215-1.201-1.062 0.434-2.112 0.899-3.155 1.378 0.684 0.726 1.376 1.445 2.057 2.176 0.148 0.15 0.353 0.404 0.564 0.192 0.144-0.328 0.007-0.718 0.024-1.068 1.224 0.377 2.141 1.624 2.090 2.911-0.001 1.009-0.002 2.018-0.001 3.028 0.502 0.006 1.002 0.006 1.504 0 0.005-3.346-0.005-6.691 0.005-10.037 0.356 0.041 1.057 0.528 1.171-0.048-0.576-0.971-1.29-1.858-1.915-2.798-0.656 0.924-1.326 1.838-1.957 2.78M14.729 5.644c-0.612 0.935-1.315 1.812-1.895 2.767 0.097 0.598 0.809 0.104 1.174 0.061 0.002 3.346-0.004 6.691 0.004 10.037 0.499 0.006 1 0.006 1.499 0 0.007-1.010 0.002-2.021 0.001-3.030-0.055-1.29 0.871-2.531 2.093-2.912 0.056 0.367-0.287 1.094 0.272 1.158 0.834-0.769 1.572-1.643 2.368-2.454-1.022-0.464-2.046-0.935-3.090-1.345-0.558 0.197 0.058 0.827 0.145 1.193-0.654 0.197-1.266 0.516-1.786 0.962 0.012-1.206-0.017-2.413 0.016-3.619 0.354 0.044 1.042 0.517 1.146-0.060-0.596-0.95-1.258-1.871-1.946-2.758M11.803 13.832c-0.005 1.469-0.001 2.939-0.004 4.409-0.044 0.25 0.101 0.346 0.34 0.283 0.001-1.565 0.013-3.13-0.006-4.694-0.083 0-0.247 0.001-0.33 0.002z"></path>
</svg>
