<svg xmlns="http://www.w3.org/2000/svg" width="24" height="24">
    <path fill="#e20a16" d="M11.966 1.333h.417c.234.139.437.328.569.569 3.802 6.612 7.637 13.207 11.428 19.826v.445c-.138.144-.275.289-.423.423-6.276-.111-12.558-.017-18.838-.047-1.563.022-3.128-.053-4.689.047-.148-.141-.29-.289-.431-.437v-.372C3.734 15.188 7.581 8.652 11.344 2.068c.15-.289.372-.529.621-.734zM3.154 20.526c6.03.004 12.061.004 18.093 0-3.013-5.224-6.027-10.449-9.049-15.668-3.02 5.22-6.036 10.44-9.044 15.668z"/>
    <path fill="#fff" d="M3.154 20.526c3.007-5.228 6.025-10.447 9.044-15.668 3.022 5.219 6.036 10.444 9.049 15.668-6.032.004-12.062.004-18.093 0zm3.974-5.953c.282.492.562.984.849 1.471.972-.577 1.96-1.128 2.94-1.692.003 1.788-.001 3.577.001 5.364h1.698c.003-2.113-.001-4.227.003-6.34.977-.569 1.963-1.124 2.94-1.692-.279-.493-.559-.986-.844-1.476-2.53 1.453-5.061 2.904-7.586 4.365z"/>
    <path d="M7.128 14.573c2.524-1.461 5.057-2.912 7.586-4.365.285.49.565.982.844 1.476-.978.568-1.964 1.123-2.94 1.692-.004 2.114 0 4.228-.003 6.34h-1.698c-.003-1.788.001-3.575-.001-5.364-.98.564-1.967 1.116-2.94 1.692-.286-.488-.567-.98-.849-1.471z"/>
    <path fill="#120102" opacity=".08" d="M0 22.158c.141.148.283.296.431.437l.144.071H0v-.508z"/>
    <path fill="#190102" opacity=".11" d="M23.958 22.596c.148-.134.285-.279.423-.423v.493h-.551l.128-.071z"/>
    <path fill="#c20813" opacity=".86" d="M.431 22.596c1.56-.101 3.125-.026 4.689-.047 6.279.03 12.561-.063 18.838.047l-.128.071H.576l-.144-.071z"/>
</svg>
