<?xml version="1.0" encoding="utf-8"?>
<!-- Generated by IcoMoon.io -->
<!DOCTYPE svg PUBLIC "-//W3C//DTD SVG 1.1//EN" "http://www.w3.org/Graphics/SVG/1.1/DTD/svg11.dtd">
<svg version="1.1" xmlns="http://www.w3.org/2000/svg" xmlns:xlink="http://www.w3.org/1999/xlink" width="24" height="24" viewBox="0 0 24 24">
<path fill="#0d1211" d="M11.468 0.587c0.178-0.161 0.375-0.356 0.634-0.347 0.329 0.027 0.563 0.29 0.79 0.499 3.581 3.498 7.133 7.025 10.618 10.617 0.178 0.176 0.332 0.377 0.438 0.605v0.163c-0.438 0.826-1.163 1.442-1.787 2.123-3.023 3.071-6.073 6.116-9.171 9.112-0.221 0.204-0.431 0.43-0.701 0.571-0.318 0.139-0.621-0.097-0.839-0.304-1.412-1.309-2.775-2.669-4.155-4.011-2.261-2.234-4.525-4.465-6.715-6.769-0.237-0.242-0.488-0.613-0.298-0.953 0.299-0.445 0.704-0.807 1.067-1.199 3.316-3.425 6.716-6.768 10.118-10.108M11.934 0.742c-0.262 0.137-0.446 0.377-0.657 0.577-3.469 3.475-6.946 6.944-10.417 10.417-0.237 0.189-0.26 0.551-0.015 0.747 3.625 3.626 7.249 7.252 10.876 10.876 0.191 0.24 0.557 0.199 0.737-0.031 3.608-3.605 7.209-7.216 10.817-10.822 0.269-0.201 0.245-0.593-0.016-0.789-3.572-3.575-7.151-7.146-10.721-10.723-0.159-0.151-0.365-0.348-0.604-0.25z"></path>
<path fill="#0d1211" d="M15.731 6.911c0.25-0.070 0.565-0.062 0.724 0.175 0.347 0.412 0.99 0.915 0.657 1.51-1.97 1.937-3.914 3.903-5.871 5.854-0.169 0.183-0.521 0.345-0.391 0.645 0.289 0.285 0.637 0.512 0.871 0.851-0.719 0.343-1.503 0.499-2.263 0.719-0.412 0.050-0.827 0.083-1.226 0.206-0.539 0.101-1.094 0.071-1.639 0.049 0.040-0.398 0.18-0.774 0.269-1.161 0.199-0.712 0.329-1.442 0.555-2.148 0.109-0.35 0.18-0.732 0.411-1.028 0.132-0.185 0.388-0.201 0.585-0.124 0.234 0.129 0.361 0.378 0.532 0.572 0.746-0.437 1.23-1.188 1.932-1.68 0.531-0.353 0.923-0.861 1.403-1.273 0.473-0.41 0.844-0.922 1.345-1.302 0.676-0.651 1.33-1.333 2.107-1.866z"></path>
<path fill="#fecf33" d="M11.934 0.742c0.239-0.098 0.444 0.099 0.604 0.25 3.57 3.578 7.149 7.148 10.721 10.723 0.261 0.196 0.285 0.588 0.016 0.789-3.608 3.606-7.209 7.217-10.817 10.822-0.181 0.23-0.546 0.271-0.737 0.031-3.627-3.623-7.251-7.25-10.876-10.876-0.245-0.195-0.222-0.558 0.015-0.747 3.471-3.473 6.948-6.942 10.417-10.417 0.21-0.2 0.394-0.44 0.657-0.577M15.731 6.911c-0.777 0.533-1.431 1.215-2.107 1.866-0.501 0.38-0.872 0.893-1.345 1.302-0.48 0.412-0.872 0.919-1.403 1.273-0.703 0.492-1.187 1.243-1.932 1.68-0.172-0.194-0.298-0.443-0.532-0.572-0.197-0.078-0.453-0.061-0.585 0.124-0.231 0.296-0.301 0.678-0.411 1.028-0.226 0.706-0.355 1.436-0.555 2.148-0.089 0.387-0.229 0.763-0.269 1.161 0.545 0.022 1.1 0.052 1.639-0.049 0.398-0.124 0.814-0.156 1.226-0.206 0.76-0.22 1.544-0.376 2.263-0.719-0.234-0.339-0.582-0.566-0.871-0.851-0.13-0.3 0.223-0.463 0.391-0.645 1.958-1.951 3.901-3.917 5.871-5.854 0.333-0.595-0.309-1.099-0.657-1.51-0.159-0.237-0.474-0.245-0.724-0.175z"></path>
</svg>
