<!-- Generated by IcoMoon.io -->
<svg version="1.1" xmlns="http://www.w3.org/2000/svg" width="27" height="24" viewBox="0 0 27 24">
<title>warning--y-roads--g2</title>
<path fill="#d02c2e" d="M13.26 0h0.575c0.552 0.133 1.063 0.458 1.334 0.968 3.704 6.423 7.405 12.849 11.108 19.272 0.298 0.518 0.618 1.025 0.842 1.58v0.754c-0.188 0.702-0.753 1.26-1.462 1.426h-24.157c-0.747-0.155-1.31-0.757-1.5-1.482v-0.61c0.19-0.563 0.511-1.062 0.807-1.572 3.719-6.454 7.439-12.91 11.159-19.363 0.262-0.503 0.762-0.816 1.294-0.974M2.852 21.601c7.144 0.005 14.29 0.005 21.436 0-3.566-6.201-7.138-12.399-10.719-18.59-3.58 6.193-7.153 12.389-10.717 18.59z"></path>
<path fill="#fff" d="M2.852 21.601c3.565-6.201 7.138-12.397 10.717-18.59 3.581 6.191 7.153 12.389 10.719 18.59-7.146 0.005-14.292 0.005-21.436 0M9.045 13.298c1.101 1.096 2.19 2.203 3.294 3.295 0.024 1.394 0 2.788 0.011 4.182 0.814 0.003 1.626 0.004 2.438 0 0.009-1.391-0.008-2.784 0.008-4.175 1.1-1.1 2.199-2.198 3.296-3.3-0.542-0.559-1.093-1.108-1.646-1.654-0.964 0.952-1.912 1.92-2.877 2.872-0.964-0.952-1.913-1.92-2.877-2.872-0.55 0.55-1.102 1.098-1.646 1.653z"></path>
<path fill="#000" d="M9.045 13.298c0.544-0.555 1.096-1.102 1.646-1.653 0.964 0.952 1.913 1.92 2.877 2.872 0.965-0.952 1.913-1.92 2.877-2.872 0.553 0.546 1.104 1.096 1.646 1.654-1.097 1.102-2.197 2.201-3.296 3.3-0.016 1.391 0.001 2.784-0.008 4.175-0.812 0.004-1.624 0.003-2.438 0-0.011-1.394 0.014-2.788-0.011-4.182-1.104-1.092-2.193-2.199-3.294-3.295z"></path>
</svg>
