<!-- Generated by IcoMoon.io -->
<svg version="1.1" xmlns="http://www.w3.org/2000/svg" width="24" height="24" viewBox="0 0 24 24">
<title>warning--low-flying-aircraft--g5</title>
<path fill="#231f20" d="M11.201 0.408c0.672-0.198 1.415 0.035 1.892 0.536 3.376 3.224 6.756 6.445 10.126 9.676 0.752 0.673 0.726 1.951-0.017 2.622-3.244 3.235-6.474 6.486-9.72 9.72-0.691 0.702-1.93 0.74-2.63 0.030-3.414-3.268-6.832-6.533-10.249-9.797-0.732-0.674-0.673-1.921 0.041-2.587 3.136-3.145 6.282-6.281 9.421-9.424 0.323-0.329 0.678-0.66 1.136-0.776M11.324 0.664c-0.43 0.1-0.762 0.41-1.064 0.714-3.134 3.146-6.286 6.275-9.414 9.427-0.616 0.559-0.668 1.619-0.047 2.195 3.416 3.26 6.829 6.524 10.242 9.788 0.592 0.605 1.655 0.577 2.239-0.023 3.247-3.235 6.482-6.482 9.728-9.719 0.624-0.575 0.659-1.655 0.013-2.227-3.366-3.234-6.749-6.45-10.122-9.676-0.401-0.414-1.008-0.631-1.576-0.48z"></path>
<path fill="#231f20" d="M11.194 1.112c0.647-0.211 1.379-0.001 1.846 0.486 3.154 3.006 6.305 6.016 9.451 9.029 0.745 0.638 0.755 1.879 0.046 2.548-3.037 3.043-6.079 6.082-9.121 9.121-0.682 0.688-1.902 0.691-2.574-0.013-3.182-3.059-6.388-6.095-9.569-9.155-0.674-0.647-0.625-1.813 0.040-2.45 2.868-2.894 5.761-5.764 8.638-8.65 0.367-0.36 0.728-0.775 1.244-0.916M11.312 1.481c-0.34 0.095-0.602 0.344-0.848 0.583-2.934 2.946-5.886 5.875-8.816 8.825-0.584 0.51-0.641 1.5-0.044 2.023 3.17 3.031 6.343 6.061 9.515 9.091 0.551 0.582 1.55 0.545 2.083-0.043 3.020-3.019 6.040-6.040 9.059-9.060 0.557-0.526 0.548-1.498-0.044-1.993-3.121-2.999-6.258-5.983-9.386-8.976-0.379-0.408-0.972-0.619-1.517-0.45z"></path>
<path fill="#231f20" d="M11.622 5.845c0.078-0.301 0.188-0.829 0.589-0.788 0.318 0.248 0.412 0.682 0.443 1.064 0.065 1.307 0.124 2.615 0.197 3.922 0.305 0.080 0.608 0.168 0.911 0.256 0.042-0.397 0.071-0.817 0.295-1.162 0.448 0.16 0.236 0.876 0.32 1.271 1.316 0.698 2.632 1.4 3.943 2.105 0.288 0.148 0.157 0.497-0.044 0.656-1.841-0.521-3.684-1.036-5.531-1.536-0.030 1.475-0.131 2.953-0.112 4.427 0.462 0.883 1.014 1.721 1.494 2.596-0.866 0.004-1.732-0.186-2.603-0.073-0.572-0.013-1.123 0.258-1.694 0.172 0.461-0.923 1.096-1.756 1.525-2.689 0.078-1.476 0.094-2.956 0.143-4.434-1.802 0.506-3.595 1.043-5.396 1.55-0.244 0.071-0.552 0.118-0.733-0.109-0.076-0.325 0.27-0.48 0.499-0.611 1.333-0.684 2.66-1.376 3.997-2.052 0.085-0.4-0.127-1.097 0.316-1.278 0.228 0.346 0.257 0.767 0.3 1.166 0.302-0.086 0.606-0.172 0.91-0.252 0.096-1.399 0.116-2.803 0.232-4.2z"></path>
<path fill="#fff100" d="M11.324 0.664c0.568-0.151 1.175 0.066 1.576 0.48 3.373 3.226 6.756 6.442 10.122 9.676 0.646 0.572 0.611 1.652-0.013 2.227-3.246 3.236-6.481 6.484-9.728 9.719-0.584 0.6-1.648 0.628-2.239 0.023-3.413-3.264-6.826-6.528-10.242-9.788-0.622-0.576-0.569-1.636 0.047-2.195 3.128-3.152 6.28-6.281 9.414-9.427 0.302-0.304 0.635-0.614 1.064-0.714M11.194 1.112c-0.516 0.14-0.877 0.556-1.244 0.916-2.876 2.886-5.77 5.755-8.638 8.65-0.665 0.637-0.714 1.804-0.040 2.45 3.181 3.060 6.386 6.096 9.569 9.155 0.672 0.704 1.892 0.701 2.574 0.013 3.042-3.040 6.084-6.078 9.121-9.121 0.709-0.668 0.7-1.909-0.046-2.548-3.146-3.013-6.298-6.023-9.451-9.029-0.467-0.487-1.199-0.697-1.846-0.486z"></path>
<path fill="#fff100" d="M11.312 1.481c0.545-0.169 1.138 0.042 1.517 0.45 3.128 2.993 6.265 5.977 9.386 8.976 0.593 0.496 0.601 1.468 0.044 1.993-3.019 3.020-6.038 6.041-9.059 9.060-0.533 0.588-1.532 0.625-2.083 0.043-3.172-3.030-6.344-6.060-9.515-9.091-0.596-0.523-0.54-1.513 0.044-2.023 2.93-2.95 5.882-5.879 8.816-8.825 0.246-0.239 0.509-0.488 0.848-0.583M11.622 5.845c-0.115 1.397-0.136 2.801-0.232 4.2-0.304 0.080-0.607 0.166-0.91 0.252-0.043-0.4-0.072-0.821-0.3-1.166-0.443 0.181-0.23 0.878-0.316 1.278-1.337 0.676-2.664 1.368-3.997 2.052-0.229 0.131-0.575 0.286-0.499 0.611 0.181 0.227 0.49 0.18 0.733 0.109 1.801-0.508 3.594-1.044 5.396-1.55-0.049 1.478-0.065 2.958-0.143 4.434-0.43 0.934-1.064 1.766-1.525 2.689 0.571 0.086 1.122-0.185 1.694-0.172 0.871-0.113 1.736 0.077 2.603 0.073-0.48-0.875-1.032-1.712-1.494-2.596-0.019-1.474 0.082-2.952 0.112-4.427 1.847 0.5 3.69 1.015 5.531 1.536 0.202-0.16 0.332-0.509 0.044-0.656-1.312-0.704-2.627-1.406-3.943-2.105-0.084-0.395 0.127-1.111-0.32-1.271-0.224 0.344-0.253 0.764-0.295 1.162-0.302-0.088-0.606-0.175-0.911-0.256-0.073-1.307-0.132-2.615-0.197-3.922-0.031-0.383-0.125-0.816-0.443-1.064-0.401-0.041-0.511 0.487-0.589 0.788z"></path>
</svg>
