<?xml version="1.0" encoding="utf-8"?>
<!-- Generated by IcoMoon.io -->
<!DOCTYPE svg PUBLIC "-//W3C//DTD SVG 1.1//EN" "http://www.w3.org/Graphics/SVG/1.1/DTD/svg11.dtd">
<svg version="1.1" xmlns="http://www.w3.org/2000/svg" xmlns:xlink="http://www.w3.org/1999/xlink" width="24" height="24" viewBox="0 0 24 24">
<path fill="#ffd033" d="M11.873 0h0.187c0.324 0.019 0.62 0.172 0.84 0.407 3.564 3.562 7.123 7.127 10.688 10.686 0.162 0.158 0.3 0.341 0.412 0.54v0.774c-0.086 0.169-0.191 0.331-0.325 0.466-3.342 3.338-6.68 6.68-10.021 10.020-0.41 0.371-0.739 0.848-1.24 1.108h-0.77c-0.15-0.086-0.3-0.176-0.425-0.298-3.479-3.482-6.961-6.96-10.44-10.442-0.32-0.319-0.714-0.626-0.779-1.106v-0.203c0.034-0.293 0.168-0.563 0.384-0.763 3.578-3.583 7.162-7.16 10.74-10.744 0.202-0.218 0.46-0.374 0.749-0.444M11.674 0.39c-0.127 0.068-0.229 0.173-0.332 0.271-3.563 3.56-7.123 7.124-10.686 10.685-0.217 0.198-0.391 0.475-0.343 0.781 0.034 0.349 0.338 0.563 0.562 0.797 3.521 3.52 7.042 7.039 10.56 10.562 0.203 0.209 0.515 0.329 0.803 0.238 0.332-0.098 0.539-0.401 0.781-0.626 3.398-3.403 6.802-6.803 10.202-10.204 0.216-0.224 0.503-0.438 0.528-0.775 0.041-0.287-0.109-0.556-0.313-0.744-3.581-3.582-7.16-7.165-10.746-10.744-0.241-0.292-0.668-0.418-1.015-0.241z"></path>
<path fill="#ffd033" d="M11.918 0.754c0.216-0.079 0.385 0.102 0.526 0.236 3.319 3.32 6.64 6.641 9.961 9.961 0.295 0.314 0.631 0.595 0.894 0.94 0.118 0.313-0.209 0.51-0.388 0.707-3.443 3.434-6.88 6.876-10.318 10.315-0.198 0.18-0.391 0.503-0.704 0.388-0.214-0.151-0.38-0.355-0.568-0.536-3.383-3.379-6.761-6.766-10.147-10.142-0.175-0.2-0.505-0.383-0.424-0.696 0.058-0.136 0.175-0.23 0.271-0.337 3.518-3.523 7.042-7.040 10.56-10.564 0.106-0.097 0.205-0.208 0.336-0.271M7.613 6.298c0.848 1.72 1.697 3.439 2.548 5.158 0.13 0.361 0.718 0.416 0.87 0.047 0.187-0.462 0.295-0.952 0.449-1.426 0.611 0.294 1.193 0.66 1.697 1.115 0.564 0.508 0.904 1.252 0.904 2.012 0.020 1.522 0.005 3.044 0.010 4.566 0.787-0.004 1.574 0 2.363-0.002 0.004-1.442 0.004-2.884 0.007-4.326-0.001-0.821-0.126-1.655-0.494-2.396 1.357 0.697 2.74 1.346 4.098 2.040 0.174-0.355 0.352-0.709 0.524-1.066-2.585-1.289-5.191-2.536-7.757-3.86 0.343-0.412 0.732-0.786 1.068-1.204 0.178-0.326-0.142-0.678-0.476-0.659-1.936-0.014-3.872 0.007-5.809 0.001z"></path>
<path fill="#000" d="M11.674 0.39c0.347-0.176 0.774-0.050 1.015 0.241 3.586 3.578 7.165 7.162 10.746 10.744 0.204 0.188 0.354 0.457 0.313 0.744-0.025 0.337-0.312 0.551-0.528 0.775-3.401 3.401-6.804 6.8-10.202 10.204-0.242 0.226-0.449 0.528-0.781 0.626-0.288 0.091-0.6-0.029-0.803-0.238-3.518-3.523-7.039-7.043-10.56-10.562-0.223-0.234-0.528-0.448-0.562-0.797-0.048-0.306 0.126-0.583 0.343-0.781 3.563-3.56 7.123-7.124 10.686-10.685 0.103-0.098 0.205-0.203 0.332-0.271M11.918 0.754c-0.131 0.064-0.23 0.174-0.336 0.271-3.518 3.523-7.042 7.040-10.56 10.564-0.096 0.107-0.214 0.202-0.271 0.337-0.082 0.313 0.248 0.496 0.424 0.696 3.386 3.377 6.764 6.763 10.147 10.142 0.187 0.181 0.354 0.385 0.568 0.536 0.313 0.115 0.506-0.208 0.704-0.388 3.438-3.439 6.875-6.881 10.318-10.315 0.179-0.197 0.505-0.394 0.388-0.707-0.263-0.344-0.599-0.625-0.894-0.94-3.322-3.32-6.642-6.641-9.961-9.961-0.14-0.134-0.31-0.316-0.526-0.236z"></path>
<path fill="#000" d="M7.613 6.298c1.937 0.006 3.874-0.016 5.809-0.001 0.335-0.019 0.654 0.332 0.476 0.659-0.336 0.418-0.725 0.792-1.068 1.204 2.566 1.325 5.172 2.572 7.757 3.86-0.173 0.356-0.35 0.71-0.524 1.066-1.358-0.694-2.741-1.343-4.098-2.040 0.368 0.742 0.493 1.576 0.494 2.396-0.004 1.442-0.004 2.884-0.007 4.326-0.788 0.002-1.576-0.001-2.363 0.002-0.005-1.522 0.011-3.044-0.010-4.566 0-0.761-0.34-1.505-0.904-2.012-0.504-0.455-1.086-0.821-1.697-1.115-0.154 0.474-0.262 0.964-0.449 1.426-0.152 0.37-0.74 0.314-0.87-0.047-0.851-1.718-1.699-3.438-2.548-5.158z"></path>
</svg>
