<!-- Generated by IcoMoon.io -->
<svg version="1.1" xmlns="http://www.w3.org/2000/svg" width="27" height="24" viewBox="0 0 27 24">
<title>warning--dip--g1</title>
<path fill="#ce252c" d="M13.115 0h0.647c0.68 0.147 1.315 0.541 1.642 1.169 3.519 6.107 7.036 12.214 10.555 18.321 0.364 0.646 0.786 1.269 1.007 1.983v0.597c-0.187 0.971-0.957 1.739-1.927 1.929h-23.095c-0.963-0.17-1.733-0.917-1.944-1.869v-0.667c0.2-0.692 0.611-1.286 0.959-1.907 3.533-6.129 7.061-12.26 10.594-18.39 0.313-0.611 0.924-0.979 1.563-1.168M2.792 21.445c7.124 0.019 14.249 0.016 21.373 0.003-3.537-6.194-7.089-12.383-10.687-18.542-3.6 6.156-7.15 12.347-10.687 18.539z"></path>
<path fill="#ffd100" d="M2.792 21.445c3.537-6.193 7.087-12.383 10.687-18.539 3.597 6.159 7.15 12.348 10.687 18.542-7.124 0.013-14.249 0.016-21.373-0.003M6.454 16.445c-0.007 1.118-0.007 2.236 0 3.353 4.683 0.005 9.365 0.005 14.047 0 0.009-1.118 0.008-2.236 0.001-3.355-0.632-0.008-1.266-0.005-1.898-0.001-1.451 1.503-3.561 2.37-5.655 2.191-1.735-0.128-3.387-0.938-4.59-2.188-0.635-0.009-1.27-0.008-1.905 0z"></path>
<path fill="#000" d="M6.454 16.445c0.635-0.008 1.27-0.009 1.905 0 1.203 1.25 2.854 2.060 4.59 2.188 2.094 0.179 4.204-0.688 5.655-2.191 0.632-0.004 1.266-0.007 1.898 0.001 0.007 1.119 0.008 2.237-0.001 3.355-4.681 0.005-9.364 0.005-14.047 0-0.007-1.118-0.007-2.236 0-3.353z"></path>
</svg>
