<svg xmlns="http://www.w3.org/2000/svg" width="24" height="24">
    <path fill="#605d5e" d="M11.647 0h.716c.121.049.251.088.348.178 3.486 3.488 6.975 6.974 10.46 10.461.304.315.69.585.813 1.029a.482.482 0 0 0 .001.583c-.072.245-.18.485-.363.667-3.568 3.568-7.137 7.135-10.704 10.704-.185.177-.432.259-.664.354a.43.43 0 0 0-.51 0c-.231-.096-.478-.178-.662-.354-3.607-3.61-7.218-7.218-10.825-10.827-.136-.135-.18-.328-.225-.508.036-.218.035-.44-.001-.658.089-.221.176-.454.345-.629C3.903 7.472 7.432 3.946 10.958.416c.193-.191.431-.332.689-.417zm.23.205a1.167 1.167 0 0 0-.694.354C7.645 4.103 4.101 7.643.561 11.185c-.442.399-.458 1.163-.015 1.566 3.552 3.555 7.108 7.109 10.66 10.664.388.44 1.135.465 1.54.035 3.569-3.567 7.137-7.137 10.704-10.705.456-.419.407-1.202-.056-1.597C19.866 7.622 16.338 4.094 12.813.564c-.241-.247-.587-.405-.936-.359z"/>
    <path fill="#fed24c" d="M11.877.205c.349-.045.695.112.936.359 3.525 3.529 7.053 7.057 10.581 10.584.463.396.512 1.178.056 1.597-3.568 3.568-7.135 7.138-10.704 10.705-.405.431-1.152.405-1.54-.035C7.654 19.86 4.098 16.307.546 12.751c-.443-.404-.426-1.168.015-1.566C4.101 7.643 7.644 4.103 11.183.559c.186-.186.427-.328.694-.354zm-.008.234c-.392.043-.641.379-.903.634C7.562 4.48 4.155 7.885.751 11.291c-.388.346-.403 1.003-.019 1.357 3.525 3.529 7.053 7.054 10.579 10.582.353.396 1.023.392 1.374-.006 3.525-3.528 7.055-7.053 10.578-10.583.377-.353.363-1-.018-1.344-3.512-3.516-7.028-7.028-10.54-10.545-.212-.225-.524-.365-.836-.315z"/>
    <path fill="#fed24c" d="M11.861.919c.189-.064.383.03.512.166 3.512 3.515 7.028 7.027 10.54 10.543a.48.48 0 0 1-.019.725c-3.499 3.502-7.001 7.001-10.498 10.503-.184.233-.551.281-.753.044-3.504-3.496-6.998-7.002-10.502-10.498-.246-.186-.311-.568-.059-.778 3.497-3.504 7.001-7 10.498-10.504.085-.077.172-.161.283-.2zm-.587 5.593c.193.084.431.081.592.228.089.268-.283.348-.439.488.315.216.755.345 1.092.097.529-.305.473-1.204-.109-1.417-.478-.215-.975.156-1.136.604zm.803 1.6c-.131.452-.111.941-.196 1.407-.567.306-1.125.628-1.695.925.028-.476.087-.949.104-1.426-.567.336-.713 1.1-1.238 1.488-.826.398-1.666.768-2.491 1.169.001.469-.428 1.068.045 1.423a7.072 7.072 0 0 0 1.775 1.326l-.065.219c-.446.154-.864.427-1.342.463-.582-.009-.952-.494-1.236-.938l-.287.166c.289.582.837 1.095 1.524 1.089 1.529.006 3.058.001 4.587.002l.001-.366c-.826-.039-1.699.142-2.467-.255l.039-.25c3.12.006 6.241-.004 9.361.005.212-.875-.135-1.811-.799-2.401.13-.384.259-.767.386-1.152-.245-.002-.491-.002-.735-.002-.246.334-.49.669-.735 1.005-.767.006-1.535.002-2.302.002.093-1.656-.248-3.37-1.093-4.802-.4.272-.781.581-1.14.904zm-.013 6.77c.289.328.696.584 1.148.568 1.138.001 2.275-.003 3.413.002.418.038.728-.298.996-.569a467.887 467.887 0 0 0-5.557-.001z"/>
    <path fill="#fed24c" d="M10.484 11.167a79.489 79.489 0 0 1 1.517-.595c.091.209.182.419.275.628-.375.349-.762.683-1.153 1.013a139.01 139.01 0 0 1-.639-1.046z"/>
    <path fill="#231f20" d="M11.869.439c.312-.05.624.089.836.315 3.512 3.516 7.027 7.029 10.54 10.545.381.344.395.991.018 1.344-3.523 3.529-7.052 7.055-10.578 10.583-.351.398-1.022.402-1.374.006C7.786 19.704 4.257 16.179.732 12.65c-.384-.354-.37-1.011.019-1.357C4.156 7.887 7.563 4.482 10.966 1.075c.263-.255.511-.591.903-.634zm-.008.48c-.111.039-.198.123-.283.2C8.082 4.623 4.577 8.12 1.08 11.623c-.252.211-.186.593.059.778 3.504 3.496 6.998 7.002 10.502 10.498.202.238.569.189.753-.044 3.498-3.503 7-7.001 10.498-10.503.221-.182.241-.534.019-.725-3.512-3.516-7.027-7.028-10.54-10.543-.129-.136-.323-.23-.512-.166z"/>
    <path fill="#231f20" d="M11.274 6.512c.161-.448.658-.819 1.136-.604.581.213.637 1.112.109 1.417-.337.247-.777.118-1.092-.097.156-.14.529-.221.439-.488-.161-.147-.399-.144-.592-.228zM12.077 8.112c.359-.324.74-.632 1.14-.904.845 1.433 1.186 3.147 1.093 4.802.767.001 1.535.004 2.302-.002.245-.336.488-.671.735-1.005.245 0 .491 0 .735.002-.126.385-.256.769-.386 1.152.664.59 1.011 1.526.799 2.401-3.12-.009-6.241.001-9.361-.005l-.039.25c.768.396 1.641.216 2.467.255l-.001.366c-1.528-.001-3.058.005-4.587-.002-.688.006-1.235-.507-1.524-1.089l.287-.166c.285.444.654.929 1.236.938.478-.036.896-.309 1.342-.463l.065-.219a7.12 7.12 0 0 1-1.775-1.326c-.474-.355-.045-.954-.045-1.423.825-.401 1.665-.771 2.491-1.169.525-.388.671-1.151 1.238-1.488-.017.477-.075.95-.104 1.426.571-.298 1.129-.619 1.695-.925.085-.465.065-.954.196-1.407zm-1.593 3.055c.211.35.425.698.639 1.046.391-.33.778-.664 1.153-1.013l-.275-.628c-.508.194-1.014.391-1.517.595z"/>
    <path fill="#231f20" d="M12.064 14.882c1.853-.01 3.705-.011 5.557.001-.268.272-.578.607-.996.569-1.138-.005-2.275-.001-3.413-.002-.452.015-.859-.241-1.148-.568z"/>
    <path fill="#b8b7b7" d="M0 11.51l.032.119c.036.218.036.44.001.658l-.032.122v-.9z"/>
    <path fill="#c5c4c4" d="M23.985 11.668l.015.035v.512l-.015.036a.482.482 0 0 1-.001-.583z"/>
    <path fill="#dbdada" d="M11.745 23.976a.43.43 0 0 1 .51 0l-.036.024h-.438l-.036-.024z"/>
</svg>
