<svg xmlns="http://www.w3.org/2000/svg" width="24" height="24">
    <path d="M11.917.415c.336-.059.62.158.844.382 3.516 3.526 7.046 7.037 10.561 10.564.379.325.414.974.024 1.304-3.56 3.56-7.123 7.118-10.682 10.68-.325.39-.995.377-1.319-.008-3.54-3.54-7.081-7.08-10.624-10.619-.378-.308-.458-.932-.084-1.277C4.164 7.887 7.724 4.365 11.256.814c.19-.173.386-.391.661-.398zm-.102.474C8.228 4.381 4.724 7.963 1.166 11.487c-.25.218-.541.583-.2.868 3.529 3.548 7.079 7.079 10.616 10.62.169.212.503.374.716.125 3.594-3.565 7.168-7.152 10.745-10.733.288-.212.163-.584-.079-.773-3.52-3.521-7.04-7.042-10.565-10.558a.511.511 0 0 0-.584-.148z"/>
    <path d="M13.301 5.942c.445.511.871 1.037 1.314 1.549-.659.152-1.33.242-1.992.373l.221-.439a5.228 5.228 0 0 0-2.801.367 8.778 8.778 0 0 1-.455-1.02c1.139-.534 2.428-.613 3.658-.421l.055-.409zM11.447 10.738c.906-.457 2.08.373 1.963 1.375.008 1.079-1.392 1.706-2.225 1.057-.872-.576-.712-2.051.262-2.432zM6.794 12.044c.446.511.877 1.036 1.312 1.558a81.043 81.043 0 0 0-.496-.006c.35.892.938 1.69 1.721 2.248-.205.319-.424.629-.656.929-.992-.748-1.782-1.766-2.172-2.953l-.404.085c.242-.617.454-1.244.696-1.86zM16.66 12.428c.367.034.734.076 1.1.116-.078 1.255-.641 2.441-1.462 3.382l.334.282c-.667.09-1.326.236-1.993.325.218-.634.443-1.266.689-1.89l.246.407c.601-.75.99-1.662 1.086-2.622z"/>
    <path fill="#ffef00" d="M11.815.889a.51.51 0 0 1 .584.148c3.524 3.516 7.045 7.037 10.565 10.558.242.188.367.56.079.773-3.577 3.581-7.151 7.168-10.745 10.733-.214.25-.547.088-.716-.125-3.538-3.541-7.087-7.072-10.616-10.62-.341-.284-.049-.649.2-.868C4.724 7.964 8.228 4.382 11.815.89zm1.486 5.053a57.28 57.28 0 0 0-.055.409c-1.23-.192-2.519-.113-3.658.421.125.352.287.688.455 1.02a5.228 5.228 0 0 1 2.801-.367c-.073.148-.148.293-.221.439.662-.131 1.333-.221 1.992-.373-.443-.512-.869-1.038-1.314-1.549zm-1.854 4.796c-.973.382-1.134 1.856-.262 2.432.833.649 2.233.022 2.225-1.057.116-1.002-1.057-1.832-1.963-1.375zm-4.653 1.306c-.242.616-.454 1.243-.696 1.86l.404-.085c.39 1.187 1.18 2.206 2.172 2.953.233-.3.451-.61.656-.929-.782-.558-1.37-1.356-1.721-2.248l.496.006c-.434-.522-.865-1.046-1.312-1.558zm9.866.384a5.011 5.011 0 0 1-1.086 2.622l-.246-.407c-.246.624-.47 1.256-.689 1.89.667-.089 1.326-.235 1.993-.325a83.36 83.36 0 0 0-.334-.282c.821-.941 1.384-2.126 1.462-3.382-.366-.041-.733-.083-1.1-.116z"/>
</svg>
