<!-- Generated by IcoMoon.io -->
<svg version="1.1" xmlns="http://www.w3.org/2000/svg" width="27" height="24" viewBox="0 0 27 24">
<title>warning--wild-animals--g6</title>
<path fill="#e20a16" d="M13.439 0h0.503c0.284 0.182 0.52 0.432 0.683 0.728 4.256 7.415 8.563 14.8 12.804 22.224v0.505c-0.155 0.16-0.315 0.315-0.484 0.461-1.849-0.104-3.7-0.029-5.55-0.051-6.961 0.022-13.924-0.045-20.884 0.034-0.189-0.126-0.35-0.289-0.51-0.45v-0.436c4.162-7.369 8.463-14.662 12.66-22.013 0.202-0.376 0.462-0.716 0.779-1.003M3.547 21.592c6.786 0.005 13.57 0.005 20.356 0.001-3.39-5.878-6.78-11.756-10.18-17.628-3.396 5.872-6.791 11.748-10.176 17.627z"></path>
<path fill="#fff" d="M3.547 21.592c3.385-5.879 6.78-11.755 10.176-17.627 3.4 5.872 6.79 11.75 10.18 17.628-6.786 0.004-13.57 0.004-20.356-0.001M11.805 11.379c0.252 0.206 0.52 0.389 0.787 0.575-0.513 0.299-1.070 0.2-1.594-0.021 0.398 0.232 0.827 0.61 1.311 0.369 0.664-0.326 1.374 0.425 1.995-0.049 0.335-0.241 0.746-0.261 1.138-0.166-0.335 0.23-0.754 0.287-1.066 0.557 0.237 0.086 0.469 0.187 0.712 0.261-0.373 0.794-1.304 0.077-1.835 0.621-0.783 0.697-1.795 1.026-2.81 1.196-0.701 0.133-1.23 1.090-1.989 0.701 0-0.147 0.001-0.439 0.001-0.586-0.197 0.278-0.586 0.761-0.185 1.038 0.241-0.005 0.477-0.062 0.715-0.101 0.066 0.595 0.103 1.196-0.103 1.771-0.355 0.236-0.725 0.446-1.107 0.636-0.276 0.679-0.672 1.365-1.359 1.694-0.373 0.123-0.229 0.554-0.261 0.853 0.986-0.374 1.201-1.55 2.013-2.124 0.358-0.117 0.747-0.126 1.094-0.284 0.686-0.295 0.815-1.271 1.609-1.4 0.658-0.080 1.33-0.026 1.987-0.134 0.091 0.073 0.18 0.145 0.269 0.218 0.768-0.001 1.506-0.196 2.22-0.464-0.107 0.355-0.235 0.704-0.379 1.046-0.333 0.144-0.665 0.295-1.008 0.418-0.021 0.158-0.051 0.314-0.088 0.47 0.402-0.214 0.843-0.369 1.214-0.636 0.306-0.525 0.586-1.072 0.824-1.632-0.171-0.215-0.468-0.148-0.706-0.195 0.155-0.778 1.227-0.909 1.208-1.758 0.010-0.82-0.034-1.954 1.056-2.038-0.022-0.084-0.067-0.25-0.089-0.333-1.056 0.027-2.054-0.396-3.112-0.318-0.834-0.377-1.664 0.413-2.466-0.184z"></path>
<path fill="#fff" d="M12.907 11.868c0.439-0.129 0.978-0.235 1.308 0.173-0.447 0.204-0.9 0.025-1.308-0.173z"></path>
<path fill="#000" d="M11.805 11.379c0.802 0.597 1.632-0.193 2.466 0.184 1.057-0.078 2.056 0.346 3.112 0.318 0.022 0.084 0.067 0.25 0.089 0.333-1.090 0.084-1.046 1.218-1.056 2.038 0.019 0.849-1.053 0.981-1.208 1.758 0.239 0.047 0.535-0.021 0.706 0.195-0.239 0.56-0.518 1.107-0.824 1.632-0.37 0.267-0.812 0.422-1.214 0.636 0.037-0.156 0.067-0.313 0.088-0.47 0.343-0.123 0.675-0.274 1.008-0.418 0.144-0.343 0.272-0.691 0.379-1.046-0.715 0.267-1.452 0.462-2.22 0.464-0.089-0.073-0.178-0.145-0.269-0.218-0.657 0.108-1.329 0.055-1.987 0.134-0.794 0.129-0.923 1.105-1.609 1.4-0.347 0.158-0.736 0.167-1.094 0.284-0.812 0.575-1.027 1.75-2.013 2.124 0.032-0.299-0.112-0.73 0.261-0.853 0.687-0.329 1.083-1.015 1.359-1.694 0.381-0.191 0.752-0.4 1.107-0.636 0.206-0.575 0.169-1.175 0.103-1.771-0.237 0.040-0.473 0.096-0.715 0.101-0.4-0.277-0.012-0.76 0.185-1.038 0 0.147-0.001 0.439-0.001 0.586 0.758 0.389 1.288-0.568 1.989-0.701 1.015-0.17 2.027-0.499 2.81-1.196 0.531-0.544 1.462 0.173 1.835-0.621-0.243-0.074-0.475-0.174-0.712-0.261 0.311-0.27 0.731-0.326 1.066-0.557-0.392-0.095-0.804-0.075-1.138 0.166-0.621 0.475-1.332-0.277-1.995 0.049-0.484 0.241-0.913-0.137-1.311-0.369 0.524 0.221 1.081 0.32 1.594 0.021-0.267-0.185-0.535-0.369-0.787-0.575M12.907 11.868c0.409 0.197 0.861 0.377 1.308 0.173-0.331-0.407-0.869-0.302-1.308-0.173z"></path>
<path fill="#120102" opacity="0.08" d="M0 23.451c0.16 0.16 0.321 0.324 0.51 0.45l0.149 0.099h-0.66v-0.549z"></path>
<path fill="#190102" opacity="0.11" d="M26.944 23.918c0.169-0.145 0.329-0.3 0.484-0.461v0.543h-0.619l0.134-0.082z"></path>
<path fill="#c20813" opacity="0.86" d="M0.51 23.901c6.96-0.080 13.923-0.012 20.884-0.034 1.85 0.022 3.701-0.053 5.55 0.051l-0.134 0.082h-26.15l-0.149-0.099z"></path>
</svg>
