<?xml version="1.0" encoding="utf-8"?>
<!-- Generated by IcoMoon.io -->
<!DOCTYPE svg PUBLIC "-//W3C//DTD SVG 1.1//EN" "http://www.w3.org/Graphics/SVG/1.1/DTD/svg11.dtd">
<svg version="1.1" xmlns="http://www.w3.org/2000/svg" xmlns:xlink="http://www.w3.org/1999/xlink" width="27" height="24" viewBox="0 0 27 24">
<path fill="#e22526" d="M26.099 23.865c1.025 0 1.444-0.726 0.932-1.614l-12.435-21.537c-0.512-0.888-1.351-0.888-1.863 0l-12.435 21.537c-0.512 0.888-0.093 1.614 0.932 1.614h24.869z"></path>
<path fill="#fff" d="M4.722 20.807h17.886l-8.943-15.49-8.943 15.49z"></path>
<path fill="#231f20" d="M13.18 20.354h6.945c0 0-2.063-2.757-2.416-3.159s-0.881-1.057-1.258-1.057c-0.377 0-0.755 0.73-0.906 1.132s-0.554 1.057-0.906 1.057c-0.352 0-0.579 0.327-0.579 0.327l-0.881 1.7z"></path>
<path fill="#231f20" d="M13.925 11.164c-0.428-0.113-0.867 0.143-0.979 0.571s0.143 0.866 0.571 0.979c0.428 0.113 0.867-0.143 0.979-0.571s-0.143-0.866-0.571-0.979z"></path>
<path fill="#231f20" d="M15.147 17.271l-1.683-0.931v-3.017c-0.026-0.222-0.14-0.468-0.333-0.62-0.206-0.162-0.483-0.2-0.736-0.16 0 0-0.788 0.085-1.052 0.135s-0.566 0.176-0.679 0.352c-0.102 0.159-0.953 1.388-0.954 1.389l-0.003 0.005 0.001 0.001c-0.029 0.062-0.006 0.137 0.055 0.171l0.869 0.481-0.031 0.055-2.038 5.223h0.554l2.189-3.826 0.981 1.17 0.151 2.656h0.528l0.126-2.82-0.691-1.48 2.618 1.448c0.064 0.035 0.144 0.012 0.18-0.052s0.012-0.144-0.052-0.18zM10.218 14.546l0.924-1.188 0.465 0.013-0.844 1.477zM12.199 15.622l0.617-0.893 0.086 1.3-0.691-0.382-0.012-0.025z"></path>
</svg>
