<!-- Generated by IcoMoon.io -->
<svg version="1.1" xmlns="http://www.w3.org/2000/svg" width="27" height="24" viewBox="0 0 27 24">
<title>warning--double-curve-first-right--g1</title>
<path fill="#ec1d24" d="M13.253 0h0.635c0.526 0.16 1.020 0.471 1.281 0.968 3.854 6.681 7.7 13.364 11.554 20.045 0.148 0.259 0.279 0.527 0.396 0.803v0.766c-0.194 0.697-0.753 1.249-1.456 1.418h-24.169c-0.742-0.159-1.3-0.757-1.493-1.477v-0.625c0.206-0.59 0.549-1.113 0.858-1.652 3.702-6.424 7.403-12.849 11.108-19.273 0.26-0.502 0.758-0.814 1.287-0.974M2.854 21.601c7.144 0.004 14.289 0.005 21.433 0-3.567-6.201-7.136-12.399-10.719-18.588-3.58 6.191-7.155 12.385-10.715 18.588z"></path>
<path fill="#fff" d="M2.854 21.601c3.559-6.203 7.135-12.397 10.715-18.588 3.582 6.19 7.151 12.388 10.719 18.588-7.144 0.005-14.289 0.004-21.433 0M16.167 10.019c-0.4 0.389-0.793 0.784-1.193 1.173-0.027 1.603-0.001 3.205-0.014 4.809-1.215-1.063-2.378-2.186-3.615-3.222-1.139-0.854-2.984-0.079-3.129 1.349-0.054 2.233-0.008 4.471-0.022 6.705 0.808 0.004 1.618 0.001 2.426 0.001-0.020-1.847-0.005-3.695-0.008-5.542 1.153 1.013 2.286 2.046 3.433 3.067 1.070 1.070 3.101 0.35 3.299-1.139 0.077-1.986 0.026-3.984 0.026-5.974-0.346-0.456-0.801-0.82-1.203-1.228z"></path>
<path fill="#000" d="M16.167 10.019c0.401 0.408 0.857 0.773 1.203 1.228 0 1.99 0.052 3.988-0.026 5.974-0.198 1.489-2.229 2.209-3.299 1.139-1.147-1.021-2.281-2.054-3.433-3.067 0.003 1.847-0.012 3.695 0.008 5.542-0.808 0-1.618 0.003-2.426-0.001 0.014-2.235-0.033-4.472 0.022-6.705 0.145-1.428 1.991-2.203 3.129-1.349 1.237 1.036 2.4 2.159 3.615 3.222 0.012-1.604-0.014-3.207 0.014-4.809 0.4-0.389 0.793-0.784 1.193-1.173z"></path>
</svg>
