<!-- Generated by IcoMoon.io -->
<svg version="1.1" xmlns="http://www.w3.org/2000/svg" width="24" height="24" viewBox="0 0 24 24">
<title>warning--ramp-closed--g1</title>
<path fill="#ef7c23" d="M11.755 0h0.44c0.256 0.085 0.497 0.22 0.684 0.417 3.381 3.387 6.767 6.768 10.15 10.154 0.36 0.369 0.794 0.702 0.971 1.206v0.412c-0.085 0.231-0.194 0.458-0.371 0.632-3.42 3.417-6.836 6.836-10.254 10.254-0.352 0.348-0.676 0.757-1.161 0.925h-0.409c-0.254-0.091-0.492-0.226-0.679-0.422-3.396-3.405-6.801-6.801-10.2-10.204-0.345-0.354-0.762-0.672-0.926-1.159v-0.415c0.090-0.253 0.225-0.49 0.418-0.677 3.553-3.55 7.103-7.102 10.654-10.654 0.197-0.197 0.431-0.353 0.683-0.469M11.831 0.329c-0.196 0.039-0.352 0.173-0.493 0.306-3.484 3.483-6.965 6.97-10.452 10.45-0.25 0.257-0.588 0.518-0.574 0.915-0.014 0.398 0.333 0.65 0.582 0.906 3.521 3.515 7.034 7.036 10.554 10.55 0.287 0.308 0.816 0.308 1.104 0.002 3.524-3.511 7.032-7.039 10.554-10.552 0.249-0.256 0.596-0.508 0.583-0.906 0.013-0.396-0.325-0.658-0.574-0.914-3.489-3.48-6.965-6.972-10.452-10.453-0.211-0.222-0.519-0.384-0.832-0.304z"></path>
<path fill="#ef7c23" d="M11.925 0.816c0.183-0.049 0.315 0.111 0.437 0.218 3.547 3.556 7.104 7.103 10.653 10.658 0.185 0.14 0.253 0.407 0.040 0.559-3.601 3.602-7.201 7.205-10.805 10.804-0.128 0.171-0.372 0.171-0.5 0-3.604-3.599-7.205-7.202-10.806-10.804-0.205-0.152-0.14-0.42 0.041-0.559 3.448-3.454 6.904-6.901 10.352-10.355 0.188-0.181 0.354-0.397 0.588-0.521M7.523 6.997c0.043 0.056 0.13 0.17 0.173 0.227 1.054-0.115 2.104-0.268 3.157-0.391 0.005 0.659-0.006 1.318 0 1.978 0.762 0.004 1.523 0.005 2.285 0 0.008-0.657-0.002-1.314 0.005-1.971 1.055 0.123 2.106 0.285 3.163 0.395 0.041-0.059 0.122-0.177 0.163-0.235-1.438-1.452-2.952-2.84-4.473-4.205-1.534 1.348-3.039 2.748-4.473 4.202M7.854 10.39c-0.005 0.83-0.007 1.659 0.002 2.489 0.095-0.002 0.284-0.006 0.379-0.008 0.003-0.361 0.003-0.722 0.005-1.083 0.15 0 0.299-0.002 0.449-0.004 0.137 0.364 0.269 0.729 0.41 1.091 0.132-0.001 0.263-0.001 0.395 0.001-0.13-0.38-0.273-0.756-0.4-1.137 0.314-0.249 0.486-0.711 0.222-1.060-0.345-0.445-0.979-0.255-1.462-0.289M10.605 10.383c-0.285 0.828-0.563 1.659-0.833 2.492 0.132-0.003 0.264-0.004 0.396-0.002 0.080-0.237 0.166-0.473 0.247-0.711 0.251-0.003 0.502-0.002 0.753 0.002 0.080 0.238 0.168 0.474 0.252 0.711 0.13-0.002 0.26-0.002 0.391 0-0.267-0.833-0.553-1.66-0.836-2.487-0.124 0.001-0.247 0-0.37-0.005M12.083 10.382c-0.006 0.83-0.007 1.661 0.001 2.492 0.126-0.002 0.252-0.002 0.379 0.001 0.003-0.455-0.002-0.91 0.012-1.364 0.207 0.443 0.367 0.904 0.558 1.354 0.188-0.46 0.357-0.927 0.554-1.384 0.006 0.464 0 0.929 0.009 1.393 0.125-0.002 0.249-0.001 0.373 0.002 0.005-0.83 0.004-1.66 0.001-2.49-0.126 0.003-0.251 0.002-0.375-0.001-0.198 0.471-0.371 0.952-0.566 1.425-0.196-0.47-0.374-0.946-0.565-1.417-0.127-0.001-0.254-0.004-0.381-0.011M14.516 10.39c-0.004 0.829-0.006 1.657 0.001 2.485 0.126-0.002 0.253-0.001 0.379 0.001 0.008-0.362 0.008-0.723 0.009-1.085 0.355-0.025 0.798 0.086 1.064-0.218 0.346-0.349 0.19-1.010-0.282-1.155-0.386-0.067-0.781-0.023-1.171-0.028M6.614 14.611c-0.467 0.544-0.455 1.396-0.134 2.010 0.321 0.549 1.224 0.447 1.434-0.149-0.079-0.030-0.236-0.090-0.314-0.12-0.195 0.194-0.539 0.385-0.756 0.109-0.286-0.46-0.294-1.136 0.038-1.576 0.226-0.254 0.544-0.038 0.72 0.157 0.080-0.025 0.241-0.075 0.321-0.1-0.167-0.54-0.912-0.751-1.309-0.331M8.328 14.437c-0.007 0.83-0.004 1.659-0.002 2.489 0.498 0.007 0.997 0.006 1.495 0 0-0.085 0-0.256 0-0.341-0.369-0.004-0.739-0.003-1.108-0.004-0.008-0.714 0.007-1.428-0.007-2.142-0.126 0.002-0.252 0.001-0.378-0.002M10.626 14.423c-0.643 0.239-0.628 1.072-0.574 1.639 0.006 0.488 0.4 1.002 0.93 0.906 0.601-0.074 0.759-0.761 0.746-1.267 0.082-0.632-0.33-1.542-1.102-1.278M12.311 15.493c0.225 0.434 1.087 0.162 1.041 0.787-0.124 0.522-0.768 0.285-0.933-0.083-0.112 0.040-0.224 0.079-0.336 0.117 0.192 0.489 0.796 0.858 1.29 0.565 0.544-0.3 0.447-1.221-0.155-1.388-0.234-0.099-0.734-0.079-0.605-0.466 0.13-0.384 0.574-0.234 0.764 0.012 0.076-0.033 0.227-0.098 0.303-0.13-0.145-0.254-0.36-0.513-0.678-0.521-0.554-0.063-1.011 0.637-0.691 1.107M14.178 14.432c-0.026 0.83-0.009 1.661-0.009 2.492 0.499 0.005 0.999 0.008 1.499-0.005-0.004-0.128-0.005-0.256-0.002-0.383-0.371-0.003-0.741-0.003-1.111-0.005-0.002-0.231-0.003-0.462-0.004-0.693 0.234 0 0.469-0.009 0.703-0.008 0-0.126 0.003-0.252 0.008-0.378-0.238-0.001-0.475-0.010-0.713-0.009 0.001-0.206 0.004-0.412 0.006-0.618 0.341 0.003 0.683 0.003 1.025-0.002-0.003-0.129-0.003-0.258 0-0.387-0.467-0.005-0.935-0.003-1.402-0.004M16.115 14.434c-0.004 0.83-0.004 1.66 0 2.49 0.468-0.002 1.059 0.106 1.377-0.333 0.366-0.558 0.363-1.388-0.082-1.903-0.335-0.354-0.861-0.241-1.295-0.254z"></path>
<path fill="#ef7c23" d="M8.236 10.772c0.291 0.015 0.824-0.112 0.828 0.325-0.042 0.415-0.542 0.279-0.828 0.296 0-0.207 0-0.414 0-0.621z"></path>
<path fill="#ef7c23" d="M14.902 10.78c0.23 0.001 0.463-0.018 0.691 0.023 0.253 0.071 0.236 0.505-0.006 0.575-0.228 0.032-0.458 0.015-0.687 0.015 0.001-0.205 0.001-0.409 0.002-0.613z"></path>
<path fill="#ef7c23" d="M10.787 11.043c0.089 0.239 0.168 0.481 0.243 0.724-0.163-0.001-0.325-0.003-0.487-0.004 0.078-0.241 0.159-0.481 0.244-0.72z"></path>
<path fill="#ef7c23" d="M10.642 14.836c0.734-0.317 0.782 0.784 0.674 1.26 0.039 0.437-0.593 0.708-0.798 0.274-0.151-0.48-0.226-1.13 0.124-1.534z"></path>
<path fill="#ef7c23" d="M16.502 14.808c1.169-0.261 1.177 2.023-0.005 1.741-0.003-0.581-0.011-1.161 0.005-1.741z"></path>
<path fill="#000" d="M11.831 0.329c0.313-0.080 0.621 0.082 0.832 0.304 3.487 3.481 6.963 6.973 10.452 10.453 0.249 0.256 0.587 0.518 0.574 0.914 0.013 0.398-0.334 0.65-0.583 0.906-3.522 3.513-7.030 7.041-10.554 10.552-0.288 0.306-0.817 0.306-1.104-0.002-3.52-3.514-7.033-7.035-10.554-10.55-0.249-0.256-0.596-0.508-0.582-0.906-0.014-0.397 0.324-0.658 0.574-0.915 3.487-3.48 6.968-6.967 10.452-10.45 0.141-0.133 0.297-0.267 0.493-0.306M11.925 0.816c-0.234 0.124-0.4 0.34-0.588 0.521-3.448 3.454-6.904 6.901-10.352 10.355-0.181 0.139-0.246 0.407-0.041 0.559 3.601 3.602 7.202 7.205 10.806 10.804 0.128 0.171 0.372 0.171 0.5 0 3.604-3.599 7.204-7.202 10.805-10.804 0.213-0.152 0.145-0.419-0.040-0.559-3.549-3.555-7.106-7.102-10.653-10.658-0.122-0.107-0.254-0.267-0.437-0.218z"></path>
<path fill="#000" d="M7.523 6.997c1.434-1.454 2.939-2.854 4.473-4.202 1.521 1.365 3.035 2.753 4.473 4.205-0.041 0.058-0.122 0.176-0.163 0.235-1.057-0.11-2.108-0.272-3.163-0.395-0.007 0.657 0.003 1.314-0.005 1.971-0.762 0.005-1.523 0.004-2.285 0-0.006-0.66 0.005-1.319 0-1.978-1.053 0.123-2.103 0.276-3.157 0.391-0.043-0.057-0.13-0.171-0.173-0.227z"></path>
<path fill="#000" d="M7.854 10.39c0.483 0.034 1.117-0.156 1.462 0.289 0.264 0.349 0.092 0.811-0.222 1.060 0.127 0.381 0.27 0.757 0.4 1.137-0.132-0.002-0.263-0.002-0.395-0.001-0.141-0.362-0.273-0.727-0.41-1.091-0.15 0.002-0.299 0.004-0.449 0.004-0.002 0.361-0.002 0.722-0.005 1.083-0.095 0.002-0.284 0.006-0.379 0.008-0.009-0.83-0.007-1.659-0.002-2.489M8.236 10.772c0 0.207 0 0.414 0 0.621 0.286-0.017 0.786 0.119 0.828-0.296-0.004-0.437-0.537-0.31-0.828-0.325z"></path>
<path fill="#000" d="M10.605 10.383c0.123 0.005 0.246 0.006 0.37 0.005 0.283 0.827 0.569 1.654 0.836 2.487-0.131-0.002-0.261-0.002-0.391 0-0.084-0.237-0.172-0.473-0.252-0.711-0.251-0.004-0.502-0.005-0.753-0.002-0.081 0.238-0.167 0.474-0.247 0.711-0.132-0.002-0.264-0.001-0.396 0.002 0.27-0.833 0.548-1.664 0.833-2.492M10.787 11.043c-0.085 0.239-0.166 0.479-0.244 0.72 0.162 0.001 0.324 0.003 0.487 0.004-0.075-0.243-0.154-0.485-0.243-0.724z"></path>
<path fill="#000" d="M12.083 10.382c0.127 0.007 0.254 0.010 0.381 0.011 0.191 0.471 0.369 0.947 0.565 1.417 0.195-0.473 0.368-0.954 0.566-1.425 0.124 0.003 0.249 0.004 0.375 0.001 0.003 0.83 0.004 1.66-0.001 2.49-0.124-0.003-0.248-0.004-0.373-0.002-0.009-0.464-0.003-0.929-0.009-1.393-0.197 0.457-0.366 0.924-0.554 1.384-0.191-0.45-0.351-0.911-0.558-1.354-0.014 0.454-0.009 0.909-0.012 1.364-0.127-0.003-0.253-0.003-0.379-0.001-0.008-0.831-0.007-1.662-0.001-2.492z"></path>
<path fill="#000" d="M14.516 10.39c0.39 0.005 0.785-0.039 1.171 0.028 0.472 0.145 0.628 0.806 0.282 1.155-0.266 0.304-0.709 0.193-1.064 0.218-0.001 0.362-0.001 0.723-0.009 1.085-0.126-0.002-0.253-0.003-0.379-0.001-0.007-0.828-0.005-1.656-0.001-2.485M14.902 10.78c-0.001 0.204-0.001 0.408-0.002 0.613 0.229 0 0.459 0.017 0.687-0.015 0.242-0.070 0.259-0.504 0.006-0.575-0.228-0.041-0.461-0.022-0.691-0.023z"></path>
<path fill="#000" d="M6.614 14.611c0.397-0.42 1.142-0.209 1.309 0.331-0.080 0.025-0.241 0.075-0.321 0.1-0.176-0.195-0.494-0.411-0.72-0.157-0.332 0.44-0.324 1.116-0.038 1.576 0.217 0.276 0.561 0.085 0.756-0.109 0.078 0.030 0.235 0.090 0.314 0.12-0.21 0.596-1.113 0.698-1.434 0.149-0.321-0.614-0.333-1.466 0.134-2.010z"></path>
<path fill="#000" d="M8.328 14.437c0.126 0.003 0.252 0.004 0.378 0.002 0.014 0.714-0.001 1.428 0.007 2.142 0.369 0.001 0.739 0 1.108 0.004 0 0.085 0 0.256 0 0.341-0.498 0.006-0.997 0.007-1.495 0-0.002-0.83-0.005-1.659 0.002-2.489z"></path>
<path fill="#000" d="M10.626 14.423c0.772-0.264 1.184 0.646 1.102 1.278 0.013 0.506-0.145 1.193-0.746 1.267-0.53 0.096-0.924-0.418-0.93-0.906-0.054-0.567-0.069-1.4 0.574-1.639M10.642 14.836c-0.35 0.404-0.275 1.054-0.124 1.534 0.205 0.434 0.837 0.163 0.798-0.274 0.108-0.476 0.060-1.577-0.674-1.26z"></path>
<path fill="#000" d="M12.311 15.493c-0.32-0.47 0.137-1.17 0.691-1.107 0.318 0.008 0.533 0.267 0.678 0.521-0.076 0.032-0.227 0.097-0.303 0.13-0.19-0.246-0.634-0.396-0.764-0.012-0.129 0.387 0.371 0.367 0.605 0.466 0.602 0.167 0.699 1.088 0.155 1.388-0.494 0.293-1.098-0.076-1.29-0.565 0.112-0.038 0.224-0.077 0.336-0.117 0.165 0.368 0.809 0.605 0.933 0.083 0.046-0.625-0.816-0.353-1.041-0.787z"></path>
<path fill="#000" d="M14.178 14.432c0.467 0.001 0.935-0.001 1.402 0.004-0.003 0.129-0.003 0.258 0 0.387-0.342 0.005-0.684 0.005-1.025 0.002-0.002 0.206-0.005 0.412-0.006 0.618 0.238-0.001 0.475 0.008 0.713 0.009-0.005 0.126-0.008 0.252-0.008 0.378-0.234-0.001-0.469 0.008-0.703 0.008 0.001 0.231 0.002 0.462 0.004 0.693 0.37 0.002 0.74 0.002 1.111 0.005-0.003 0.127-0.002 0.255 0.002 0.383-0.5 0.013-1 0.010-1.499 0.005 0-0.831-0.017-1.662 0.009-2.492z"></path>
<path fill="#000" d="M16.115 14.434c0.434 0.013 0.96-0.1 1.295 0.254 0.445 0.515 0.448 1.345 0.082 1.903-0.318 0.439-0.909 0.331-1.377 0.333-0.004-0.83-0.004-1.66 0-2.49M16.502 14.808c-0.016 0.58-0.008 1.16-0.005 1.741 1.182 0.282 1.174-2.002 0.005-1.741z"></path>
</svg>
