<?xml version="1.0" encoding="utf-8"?>
<!-- Generated by IcoMoon.io -->
<!DOCTYPE svg PUBLIC "-//W3C//DTD SVG 1.1//EN" "http://www.w3.org/Graphics/SVG/1.1/DTD/svg11.dtd">
<svg version="1.1" xmlns="http://www.w3.org/2000/svg" xmlns:xlink="http://www.w3.org/1999/xlink" width="24" height="24" viewBox="0 0 24 24">
<path fill="#ffd520" d="M11.658 0h0.553c0.209 0.118 0.422 0.233 0.584 0.413 3.596 3.6 7.196 7.196 10.793 10.795 0.124 0.142 0.298 0.256 0.338 0.454-0.031 0.010-0.095 0.029-0.126 0.037-0.19-0.281-0.445-0.504-0.682-0.744-3.499-3.497-6.994-6.998-10.495-10.493-0.308-0.388-0.924-0.367-1.222 0.020-3.644 3.641-7.285 7.283-10.926 10.926-0.312 0.256-0.412 0.751-0.139 1.073 3.708 3.712 7.416 7.421 11.123 11.132 0.278 0.326 0.833 0.334 1.116 0.011 3.677-3.683 7.356-7.364 11.036-11.042 0.169-0.155 0.294-0.388 0.227-0.624 0.040-0.050 0.12-0.151 0.161-0.202v0.284c0.098 0.326-0.156 0.514-0.336 0.713-3.541 3.538-7.076 7.080-10.618 10.618-0.23 0.228-0.443 0.485-0.742 0.629h-0.551c-0.128-0.060-0.246-0.136-0.352-0.228-3.643-3.64-7.283-7.285-10.926-10.925-0.169-0.178-0.403-0.342-0.39-0.62l-0.086 0.122v-0.57c0.126-0.115 0.17-0.29 0.295-0.406 3.642-3.649 7.291-7.291 10.934-10.939 0.182-0.162 0.353-0.389 0.637-0.353l-0.209-0.082z"></path>
<path fill="#ffd520" d="M11.772 0.622c0.215-0.202 0.51-0.044 0.666 0.146 3.637 3.641 7.28 7.274 10.914 10.919 0.198 0.155 0.226 0.475 0.026 0.641-3.64 3.641-7.282 7.279-10.919 10.921-0.155 0.211-0.475 0.392-0.698 0.166-3.71-3.697-7.409-7.406-11.114-11.108-0.21-0.19-0.114-0.511 0.089-0.664 3.68-3.671 7.342-7.363 11.036-11.021M13.352 5.413c-0.428 0.647-0.893 1.27-1.336 1.908-0.090 0.146-0.298 0.33-0.131 0.506 0.284 0.169 0.59-0.124 0.889-0.119-0.008 1.344-0.010 2.687 0.001 4.031-0.184-0.070-0.226-0.275-0.35-0.403-0.617-0.779-1.373-1.46-2.244-1.942-0.138-0.030-0.337-0.197-0.145-0.322 0.166-0.188 0.618-0.606 0.174-0.739-0.889 0.134-1.776 0.294-2.664 0.437 0.384 0.731 0.786 1.452 1.174 2.182 0.056 0.15 0.223 0.376 0.401 0.216 0.172-0.235 0.143-0.562 0.247-0.83 1.973 0.966 3.316 3.077 3.402 5.268-0.001 1.027 0.004 2.056-0.004 3.084 0.413 0.011 0.824 0.007 1.237 0.001 0.013-1.15-0.042-2.302 0.035-3.449 0.206-2.035 1.482-3.924 3.293-4.876 0.028 0 0.080 0 0.108 0 0.041 0.23 0.089 0.46 0.149 0.686 0.034 0.172 0.272 0.228 0.376 0.077 0.431-0.784 0.852-1.572 1.279-2.359-0.892-0.143-1.781-0.306-2.675-0.434l-0.144 0.043c-0.181 0.376 0.344 0.564 0.439 0.876-1.097 0.558-2.066 1.399-2.74 2.431l-0.136 0.054c0.020-1.339 0.012-2.68 0.005-4.020 0.26 0.022 0.499 0.146 0.757 0.191 0.235-0.017 0.26-0.322 0.098-0.45-0.476-0.68-0.947-1.364-1.427-2.040l-0.070-0.008M5.057 12.692l0.002 0.089c0.65 0.623 1.206 1.362 1.9 1.926 0.443-0.070 0.136-0.636 0.209-0.931 0.904 0.265 1.585 1.127 1.618 2.072 0.011 0.948 0.002 1.897 0.004 2.845 0.396 0.005 0.792 0 1.189 0.004 0.037-0.51 0.007-1.025 0.019-1.537-0.016-0.804 0.088-1.638-0.21-2.406-0.373-1.061-1.302-1.877-2.383-2.167 0.064-0.308 0.566-0.766 0.148-0.979-0.844 0.324-1.68 0.698-2.495 1.085M11.197 13.939c0.019 1.584 0.007 3.169 0.006 4.753 0.086 0.002 0.259 0.007 0.344 0.011 0.014-1.595 0.005-3.19 0.005-4.784-0.089 0.005-0.266 0.016-0.355 0.020z"></path>
<path fill="#000" d="M11.402 0.482c0.298-0.388 0.913-0.408 1.222-0.020 3.502 3.494 6.996 6.996 10.495 10.493 0.236 0.24 0.492 0.463 0.682 0.744-0.017 0.090-0.005 0.176 0.038 0.259 0.067 0.236-0.058 0.469-0.227 0.624-3.68 3.678-7.36 7.36-11.036 11.042-0.283 0.323-0.838 0.316-1.116-0.011-3.707-3.712-7.415-7.421-11.123-11.132-0.272-0.322-0.173-0.817 0.139-1.073 3.641-3.643 7.282-7.285 10.926-10.926M11.772 0.622c-3.695 3.658-7.356 7.35-11.036 11.021-0.203 0.152-0.299 0.474-0.089 0.664 3.706 3.702 7.404 7.411 11.114 11.108 0.223 0.227 0.544 0.046 0.698-0.166 3.637-3.642 7.279-7.28 10.919-10.921 0.199-0.166 0.172-0.486-0.026-0.641-3.634-3.644-7.277-7.278-10.914-10.919-0.156-0.191-0.451-0.348-0.666-0.146z"></path>
<path fill="#000" d="M13.352 5.413l0.070 0.008c0.48 0.676 0.95 1.36 1.427 2.040 0.162 0.128 0.137 0.433-0.098 0.45-0.258-0.044-0.497-0.169-0.757-0.191 0.007 1.34 0.016 2.681-0.005 4.020l0.136-0.054c0.673-1.032 1.643-1.873 2.74-2.431-0.095-0.312-0.62-0.5-0.439-0.876l0.144-0.043c0.894 0.128 1.783 0.292 2.675 0.434-0.427 0.787-0.848 1.576-1.279 2.359-0.103 0.151-0.342 0.095-0.376-0.077-0.060-0.227-0.108-0.456-0.149-0.686-0.028 0-0.080 0-0.108 0-1.811 0.952-3.086 2.84-3.293 4.876-0.077 1.147-0.022 2.299-0.035 3.449-0.413 0.006-0.824 0.010-1.237-0.001 0.007-1.028 0.002-2.057 0.004-3.084-0.086-2.191-1.429-4.302-3.402-5.268-0.104 0.269-0.076 0.595-0.247 0.83-0.178 0.16-0.344-0.066-0.401-0.216-0.388-0.73-0.79-1.451-1.174-2.182 0.888-0.143 1.775-0.302 2.664-0.437 0.444 0.133-0.008 0.551-0.174 0.739-0.192 0.125 0.007 0.292 0.145 0.322 0.871 0.481 1.627 1.163 2.244 1.942 0.125 0.128 0.167 0.334 0.35 0.403-0.011-1.344-0.010-2.687-0.001-4.031-0.299-0.005-0.605 0.288-0.889 0.119-0.167-0.176 0.041-0.36 0.131-0.506 0.443-0.638 0.907-1.261 1.336-1.908z"></path>
<path fill="#000" d="M5.057 12.692c0.815-0.386 1.651-0.761 2.495-1.085 0.419 0.214-0.084 0.671-0.148 0.979 1.081 0.29 2.010 1.106 2.383 2.167 0.298 0.768 0.194 1.602 0.21 2.406-0.012 0.512 0.018 1.027-0.019 1.537-0.397-0.004-0.793 0.001-1.189-0.004-0.001-0.948 0.007-1.897-0.004-2.845-0.032-0.946-0.714-1.807-1.618-2.072-0.073 0.295 0.234 0.862-0.209 0.931-0.694-0.564-1.249-1.303-1.9-1.926l-0.002-0.089z"></path>
<path fill="#000" d="M11.197 13.939c0.089-0.005 0.266-0.016 0.355-0.020 0 1.595 0.010 3.19-0.005 4.784-0.085-0.004-0.258-0.008-0.344-0.011 0.001-1.584 0.013-3.169-0.006-4.753z"></path>
</svg>
