<!-- Generated by IcoMoon.io -->
<svg version="1.1" xmlns="http://www.w3.org/2000/svg" width="24" height="24" viewBox="0 0 24 24">
<title>warning--entering-roadway-merge--g2</title>
<path fill="#fecf33" d="M11.726 0h0.516c0.242 0.098 0.476 0.226 0.664 0.413 3.542 3.539 7.080 7.082 10.622 10.621 0.199 0.198 0.352 0.438 0.472 0.691v0.51c-0.1 0.245-0.228 0.48-0.419 0.666-3.562 3.558-7.121 7.12-10.68 10.68-0.18 0.179-0.4 0.31-0.626 0.419h-0.521c-0.473-0.163-0.793-0.557-1.135-0.899-3.22-3.221-6.439-6.44-9.659-9.661-0.354-0.359-0.764-0.688-0.96-1.168v-0.52c0.175-0.499 0.594-0.836 0.953-1.2 3.181-3.179 6.36-6.36 9.54-9.54 0.38-0.371 0.725-0.809 1.234-1.013M11.675 0.407c-0.248 0.082-0.43 0.28-0.614 0.454-3.452 3.468-6.92 6.92-10.375 10.387-0.431 0.384-0.434 1.121 0.004 1.502 3.522 3.518 7.042 7.040 10.56 10.564 0.384 0.433 1.118 0.433 1.501-0.001 3.518-3.523 7.040-7.043 10.561-10.564 0.436-0.382 0.432-1.116 0.004-1.501-3.496-3.505-7.001-7.002-10.499-10.504-0.28-0.318-0.732-0.481-1.141-0.337z"></path>
<path fill="#fecf33" d="M11.786 0.874c0.282-0.104 0.584 0.029 0.775 0.241 3.442 3.442 6.883 6.882 10.325 10.324 0.319 0.256 0.377 0.776 0.058 1.057-3.482 3.482-6.962 6.968-10.448 10.448-0.257 0.283-0.736 0.284-0.992 0-3.485-3.48-6.965-6.966-10.447-10.448-0.322-0.28-0.262-0.803 0.059-1.058 3.418-3.424 6.845-6.838 10.26-10.262 0.125-0.114 0.246-0.247 0.412-0.301M8.352 12.53c0.012 0.413 0.619 0.638 0.852 0.27 0.299-0.455 0.53-0.95 0.8-1.423 1.057 1.012 1.633 2.44 1.844 3.868 0.254 1.834 0.173 3.69 0.184 5.534 0.578 0.017 1.157 0.032 1.734-0.007-0.010-2.010 0.073-4.037-0.334-6.019 0.96 0.955 1.915 1.914 2.873 2.87 0.613-0.631 1.259-1.231 1.847-1.886-2.090-2.086-4.182-4.17-6.265-6.263 0.496-0.31 1.044-0.53 1.523-0.865 0.3-0.275 0.061-0.802-0.33-0.814-1.94-0.386-3.884-0.752-5.827-1.129 0.306 1.963 0.739 3.91 1.099 5.864z"></path>
<path fill="#000" d="M11.675 0.407c0.409-0.144 0.862 0.019 1.141 0.337 3.498 3.502 7.003 6.998 10.499 10.504 0.428 0.385 0.432 1.12-0.004 1.501-3.521 3.521-7.043 7.040-10.561 10.564-0.383 0.434-1.117 0.434-1.501 0.001-3.518-3.523-7.038-7.045-10.56-10.564-0.438-0.382-0.434-1.118-0.004-1.502 3.455-3.467 6.923-6.919 10.375-10.387 0.185-0.174 0.366-0.372 0.614-0.454M11.786 0.874c-0.166 0.054-0.287 0.187-0.412 0.301-3.415 3.425-6.842 6.839-10.26 10.262-0.32 0.256-0.38 0.779-0.059 1.058 3.482 3.482 6.962 6.968 10.447 10.448 0.257 0.284 0.736 0.283 0.992 0 3.486-3.48 6.966-6.966 10.448-10.448 0.319-0.281 0.262-0.802-0.058-1.057-3.442-3.442-6.883-6.882-10.325-10.324-0.191-0.212-0.493-0.346-0.775-0.241z"></path>
<path fill="#000" d="M8.352 12.53c-0.36-1.955-0.793-3.901-1.099-5.864 1.943 0.377 3.887 0.743 5.827 1.129 0.391 0.012 0.63 0.539 0.33 0.814-0.479 0.335-1.027 0.556-1.523 0.865 2.083 2.093 4.175 4.177 6.265 6.263-0.588 0.655-1.234 1.255-1.847 1.886-0.958-0.956-1.913-1.915-2.873-2.87 0.407 1.982 0.324 4.009 0.334 6.019-0.577 0.040-1.156 0.024-1.734 0.007-0.011-1.844 0.071-3.701-0.184-5.534-0.211-1.428-0.787-2.856-1.844-3.868-0.27 0.473-0.502 0.968-0.8 1.423-0.233 0.368-0.84 0.143-0.852-0.27z"></path>
</svg>
