<?xml version="1.0" encoding="utf-8"?>
<!-- Generated by IcoMoon.io -->
<!DOCTYPE svg PUBLIC "-//W3C//DTD SVG 1.1//EN" "http://www.w3.org/Graphics/SVG/1.1/DTD/svg11.dtd">
<svg version="1.1" xmlns="http://www.w3.org/2000/svg" xmlns:xlink="http://www.w3.org/1999/xlink" width="24" height="24" viewBox="0 0 24 24">
<path fill="#fecf33" d="M11.96 0h0.049c0.337 0.012 0.66 0.155 0.888 0.405 3.567 3.567 7.134 7.133 10.7 10.702 0.233 0.218 0.376 0.518 0.403 0.837v0.092c-0.023 0.301-0.143 0.594-0.359 0.809-3.596 3.601-7.198 7.197-10.799 10.795-0.205 0.215-0.488 0.333-0.782 0.36h-0.114c-0.294-0.025-0.578-0.14-0.783-0.354-3.59-3.58-7.17-7.17-10.759-10.751-0.231-0.22-0.378-0.517-0.404-0.836v-0.107c0.021-0.324 0.168-0.627 0.404-0.847 3.565-3.568 7.132-7.133 10.697-10.699 0.222-0.242 0.532-0.386 0.859-0.406M11.844 0.348c-0.276 0.040-0.493 0.226-0.678 0.421-3.511 3.523-7.034 7.033-10.545 10.556-0.381 0.348-0.378 1.002 0 1.351 3.568 3.567 7.135 7.136 10.704 10.702 0.346 0.382 1.002 0.382 1.348 0 3.572-3.566 7.139-7.137 10.708-10.705 0.372-0.349 0.377-0.996 0-1.344-3.546-3.559-7.104-7.106-10.653-10.662-0.221-0.238-0.558-0.38-0.884-0.319z"></path>
<path fill="#fecf33" d="M11.826 0.836c0.205-0.093 0.426 0.011 0.566 0.166 3.536 3.532 7.069 7.067 10.603 10.601 0.226 0.175 0.278 0.541 0.050 0.737-3.481 3.486-6.968 6.968-10.449 10.454-0.175 0.16-0.327 0.407-0.593 0.404-0.269 0.008-0.423-0.242-0.598-0.403-3.398-3.401-6.798-6.801-10.199-10.2-0.16-0.176-0.406-0.329-0.404-0.594-0.007-0.189 0.132-0.327 0.252-0.453 3.502-3.495 7-6.994 10.498-10.493 0.085-0.080 0.169-0.165 0.274-0.219M7.825 7.541c-0.425 0.187-0.456 0.849-0.048 1.074 0.378 0.264 0.948-0.062 0.934-0.516 0.024-0.438-0.499-0.772-0.886-0.558M5.707 9.415c-0.251 0.164-0.15 0.49-0.101 0.728-0.245-0.060-0.492-0.116-0.738-0.172-0.057 0.237-0.114 0.475-0.169 0.713 0.708 0.154 1.419 0.294 2.122 0.47 0.201 0.393 0.407 0.784 0.612 1.175 0.239-0.052 0.478-0.105 0.716-0.159-0.052-0.255-0.105-0.511-0.157-0.766 2.626 0.567 5.25 1.141 7.877 1.699-0.157 0.209-0.314 0.418-0.47 0.628 0.194 0.148 0.386 0.298 0.577 0.45 0.348-0.268 0.704-0.527 1.048-0.802 0.716 0.128 1.422 0.311 2.133 0.464 0.051-0.241 0.101-0.482 0.149-0.723-0.249-0.057-0.5-0.108-0.752-0.146 0.157-0.205 0.398-0.482 0.207-0.743-0.319-0.54-0.649-1.075-0.98-1.607-0.333 0.077-0.709 0.056-0.986 0.285-0.288 0.208-0.594 0.39-0.872 0.61-0.16 0.113-0.091 0.319-0.073 0.478-0.049 0.111-0.099 0.222-0.15 0.333-2.412-0.513-4.82-1.051-7.233-1.559 0-0.123 0.001-0.246 0.004-0.368 0.075-0.123 0.19-0.243 0.166-0.4-0.155-0.342-0.379-0.646-0.559-0.975-0.155-0.328-0.502-0.479-0.778-0.685-0.53 0.358-1.074 0.698-1.593 1.072M17.033 9.451c-0.414 0.109-0.581 0.683-0.281 0.992 0.293 0.371 0.952 0.213 1.054-0.245 0.144-0.442-0.336-0.902-0.773-0.747M11.276 12.98c0.003 0.8 0 1.6 0.002 2.4 0.49 0 0.98 0 1.47 0 0.001-0.801-0.001-1.601 0.001-2.402-0.243-0.226-0.493-0.444-0.744-0.661-0.248 0.216-0.491 0.437-0.729 0.663z"></path>
<path fill="#fecf33" d="M7.192 9.89c0.162-0.175 0.325-0.348 0.49-0.519 0.2 0.237 0.396 0.478 0.592 0.719-0.022 0.208-0.044 0.417-0.066 0.626-0.137-0.031-0.274-0.061-0.411-0.092-0.204-0.243-0.406-0.487-0.605-0.734z"></path>
<path fill="#fecf33" d="M16.149 11.816c0.278-0.151 0.566-0.286 0.851-0.425 0.075 0.228 0.15 0.456 0.224 0.685-0.282 0.137-0.566 0.272-0.849 0.407-0.139-0.031-0.278-0.062-0.417-0.093 0.066-0.191 0.13-0.382 0.191-0.574z"></path>
<path fill="#000" d="M11.844 0.348c0.326-0.061 0.663 0.081 0.884 0.319 3.549 3.556 7.107 7.103 10.653 10.662 0.377 0.348 0.372 0.995 0 1.344-3.569 3.568-7.136 7.139-10.708 10.705-0.346 0.382-1.002 0.382-1.348 0-3.569-3.566-7.136-7.135-10.704-10.702-0.378-0.349-0.381-1.003 0-1.351 3.511-3.523 7.034-7.033 10.545-10.556 0.185-0.195 0.402-0.381 0.678-0.421M11.826 0.836c-0.105 0.054-0.189 0.139-0.274 0.219-3.498 3.499-6.996 6.998-10.498 10.493-0.12 0.126-0.259 0.264-0.252 0.453-0.002 0.265 0.244 0.418 0.404 0.594 3.401 3.399 6.801 6.799 10.199 10.2 0.175 0.161 0.329 0.411 0.598 0.403 0.266 0.003 0.418-0.244 0.593-0.404 3.481-3.486 6.968-6.968 10.449-10.454 0.228-0.196 0.176-0.562-0.050-0.737-3.534-3.534-7.067-7.069-10.603-10.601-0.14-0.155-0.361-0.259-0.566-0.166z"></path>
<path fill="#000" d="M7.825 7.541c0.387-0.214 0.91 0.12 0.886 0.558 0.014 0.454-0.556 0.78-0.934 0.516-0.408-0.225-0.377-0.887 0.048-1.074z"></path>
<path fill="#000" d="M5.707 9.415c0.519-0.374 1.063-0.714 1.593-1.072 0.276 0.206 0.623 0.357 0.778 0.685 0.18 0.329 0.404 0.633 0.559 0.975 0.024 0.157-0.091 0.277-0.166 0.4-0.003 0.122-0.004 0.245-0.004 0.368 2.413 0.508 4.821 1.046 7.233 1.559 0.051-0.111 0.101-0.222 0.15-0.333-0.018-0.159-0.087-0.365 0.073-0.478 0.278-0.22 0.584-0.402 0.872-0.61 0.277-0.229 0.653-0.208 0.986-0.285 0.331 0.532 0.661 1.067 0.98 1.607 0.191 0.261-0.050 0.538-0.207 0.743 0.252 0.038 0.503 0.089 0.752 0.146-0.048 0.241-0.098 0.482-0.149 0.723-0.711-0.153-1.417-0.336-2.133-0.464-0.344 0.275-0.7 0.534-1.048 0.802-0.191-0.152-0.383-0.302-0.577-0.45 0.156-0.21 0.313-0.419 0.47-0.628-2.627-0.558-5.251-1.132-7.877-1.699 0.052 0.255 0.105 0.511 0.157 0.766-0.238 0.054-0.477 0.107-0.716 0.159-0.205-0.391-0.411-0.782-0.612-1.175-0.703-0.176-1.414-0.316-2.122-0.47 0.055-0.238 0.112-0.476 0.169-0.713 0.246 0.056 0.493 0.112 0.738 0.172-0.049-0.238-0.15-0.564 0.101-0.728M7.192 9.89c0.199 0.247 0.401 0.491 0.605 0.734 0.137 0.031 0.274 0.061 0.411 0.092 0.022-0.209 0.044-0.418 0.066-0.626-0.196-0.241-0.392-0.482-0.592-0.719-0.165 0.171-0.328 0.344-0.49 0.519M16.149 11.816c-0.061 0.192-0.125 0.383-0.191 0.574 0.139 0.031 0.278 0.062 0.417 0.093 0.283-0.135 0.567-0.27 0.849-0.407-0.074-0.229-0.149-0.457-0.224-0.685-0.285 0.139-0.573 0.274-0.851 0.425z"></path>
<path fill="#000" d="M17.033 9.451c0.437-0.155 0.917 0.305 0.773 0.747-0.102 0.458-0.761 0.616-1.054 0.245-0.3-0.309-0.133-0.883 0.281-0.992z"></path>
<path fill="#000" d="M11.276 12.98c0.238-0.226 0.481-0.447 0.729-0.663 0.251 0.217 0.501 0.435 0.744 0.661-0.002 0.801 0 1.601-0.001 2.402-0.49 0-0.98 0-1.47 0-0.002-0.8 0.001-1.6-0.002-2.4z"></path>
</svg>
