<svg xmlns="http://www.w3.org/2000/svg" width="24" height="24">
    <path fill="#1b1b1b" opacity=".7" d="M11.729 1.333h.847c.116.138.227.279.335.423-.269-.222-.612-.288-.948-.334l-.236-.089z"/>
    <path fill="#fff" d="M11.964 1.422c.335.046.678.112.948.334.168.244.316.502.46.759.01.194.108.37.273.472.071.125.142.25.217.373a.564.564 0 0 0 .275.473c.073.134.148.267.223.4.026.18.1.42.318.433.004.045.014.132.02.177-.004.193.141.337.282.447.073.132.148.262.224.393a.57.57 0 0 0 .276.472c.071.131.145.26.218.39.026.18.1.422.318.436l.022.18c-.004.193.142.335.283.446.073.132.148.262.224.391a.572.572 0 0 0 .273.473c.071.125.142.25.216.374a.565.565 0 0 0 .276.473c.18.339.373.67.575.996a.57.57 0 0 0 .273.473c.071.125.142.25.216.374a.565.565 0 0 0 .276.473c.18.339.372.672.574.997a.575.575 0 0 0 .275.473c.071.124.142.25.216.374a.565.565 0 0 0 .276.473c.178.339.371.67.573.996a.576.576 0 0 0 .276.472c.069.125.141.252.214.375a.576.576 0 0 0 .276.473c.18.339.372.67.574.996a.572.572 0 0 0 .275.472c.071.125.142.252.216.375a.564.564 0 0 0 .276.472c.18.34.372.672.574.997a.572.572 0 0 0 .275.472c.069.128.141.255.214.381.01.2.121.378.303.465.411.596.228 1.448-.505 1.677-7.612-.076-15.229-.001-22.844-.036-.771-.385-.678-1.297-.21-1.887a.545.545 0 0 0 .284-.468c.073-.124.145-.25.216-.375a.577.577 0 0 0 .275-.472c.203-.325.395-.657.574-.997.17-.1.268-.276.276-.472.072-.124.145-.25.214-.375a.576.576 0 0 0 .276-.472c.203-.325.395-.659.574-.997.17-.1.268-.276.276-.472.073-.124.145-.25.216-.374a.582.582 0 0 0 .275-.473c.203-.325.395-.657.574-.996a.567.567 0 0 0 .276-.474c.073-.124.145-.249.216-.374a.57.57 0 0 0 .273-.473c.203-.325.396-.657.575-.996a.565.565 0 0 0 .276-.473c.073-.124.145-.249.216-.374a.574.574 0 0 0 .273-.473c.076-.129.151-.26.226-.391.139-.111.284-.255.282-.447l.022-.18c.218-.013.292-.255.318-.436.073-.131.148-.26.218-.39a.57.57 0 0 0 .276-.472c.076-.131.151-.26.224-.393.139-.111.285-.255.282-.447.006-.044.016-.132.02-.178.218-.012.292-.253.319-.434.075-.132.148-.263.22-.396a.57.57 0 0 0 .276-.473l.217-.374a.582.582 0 0 0 .272-.473c.204-.325.396-.659.577-.997a.57.57 0 0 0 .276-.473c.076-.128.15-.256.222-.385.144-.108.276-.257.283-.447.007-.047.024-.142.033-.189a.385.385 0 0 0 .303-.418c.162-.082.319-.172.482-.255zm.007.41c-.203.076-.309.276-.42.447C7.896 8.616 4.219 14.941.569 21.28c-.286.387.042.979.524.925 7.357.013 14.716.003 22.073.006.508.1.942-.485.631-.923-3.665-6.364-7.352-12.714-11.024-19.072-.14-.292-.473-.526-.802-.385z"/>
    <path fill="#fff" d="M4.128 19.844c2.682-4.64 5.356-9.284 8.055-13.916 2.692 4.634 5.37 9.277 8.052 13.916-5.369.001-10.739.001-16.108-.001zm4.215-5.546c-.244.351-.427.745-.387 1.182l-.571.004v.74c.196 0 .393.001.588.003-.004.372-.004.744 0 1.116-.196.004-.393.003-.588.007v.738c.195.004.391.003.587.007l-.001 1.175c.249-.003.498-.003.746-.001V18.09h1.172l.001 1.18c.247-.003.496-.001.744-.001l.001-1.179c.39.001.78.001 1.171-.001.003.394 0 .788.003 1.18l.744.001c.001-.394 0-.788.004-1.181.388.003.779.004 1.168.001.001.393-.001.787.001 1.179h.745l-.001-1.176 1.174-.001-.001 1.178h.745c.003-.391 0-.784.001-1.176.196-.003.391-.003.588-.004a61.397 61.397 0 0 1-.004-.744l-.584.003c.001-.373.001-.746-.003-1.118.195-.004.391-.004.588-.006a91.02 91.02 0 0 1 0-.739c-.19-.004-.38-.004-.571-.006.043-.439-.148-.83-.39-1.181-.246.35-.428.746-.388 1.185h-1.138c.039-.439-.142-.835-.39-1.185-.24.352-.431.745-.388 1.185-.378-.001-.757-.003-1.135.001.034-.44-.148-.835-.394-1.186-.244.351-.426.746-.39 1.185h-1.138c.036-.439-.148-.833-.388-1.186-.247.351-.429.746-.391 1.188-.38-.004-.759-.003-1.14-.003.043-.44-.148-.833-.39-1.184z"/>
    <path fill="#fff" d="M8.716 16.225c.393.003.784.003 1.176.001-.004.373-.004.748 0 1.122a76.833 76.833 0 0 0-1.176 0c.004-.374.004-.748 0-1.123zM10.634 16.227c.393.001.784.001 1.175-.001-.003.374-.003.748 0 1.123a76.702 76.702 0 0 0-1.175 0c.004-.374.004-.748 0-1.122zM12.553 16.225c.391.003.784.003 1.175.001-.004.374-.004.748-.003 1.123a76.322 76.322 0 0 0-1.172-.001c.003-.374.003-.748 0-1.123zM14.47 16.225c.391.003.782.003 1.175 0-.004.374-.004.748 0 1.123a76.702 76.702 0 0 0-1.175 0c.003-.374.003-.748 0-1.123z"/>
    <path fill="#323232" opacity=".81" d="M11.179 2.095a.493.493 0 0 1 .303-.418.386.386 0 0 1-.303.418z"/>
    <path fill="#cf181f" d="M11.971 1.832c.329-.141.662.094.802.385 3.672 6.358 7.359 12.708 11.024 19.072.311.437-.124 1.023-.631.923-7.357-.004-14.716.007-22.073-.006-.483.053-.811-.539-.524-.925C4.22 14.942 7.897 8.616 11.551 2.28c.111-.171.218-.372.42-.447zM4.128 19.844c5.369.003 10.739.003 16.108.001-2.682-4.64-5.36-9.283-8.052-13.916-2.699 4.631-5.373 9.276-8.055 13.916z"/>
    <path fill="#2b2b2b" opacity=".8" d="M10.863 2.732c-.004-.183.055-.443.283-.447-.006.19-.139.339-.283.447zM13.372 2.516a.424.424 0 0 1 .273.472.586.586 0 0 1-.273-.472z"/>
    <path fill="#313131" opacity=".82" d="M10.365 3.59a.437.437 0 0 1 .276-.473.57.57 0 0 1-.276.473z"/>
    <path fill="#303030" opacity=".82" d="M13.862 3.361a.437.437 0 0 1 .275.473.567.567 0 0 1-.275-.473zM9.025 5.908a.437.437 0 0 1 .276-.473.57.57 0 0 1-.276.473zM15.204 5.683a.436.436 0 0 1 .276.472.57.57 0 0 1-.276-.472zM7.683 8.227a.434.434 0 0 1 .276-.472.57.57 0 0 1-.276.472z"/>
    <path fill="#373737" opacity=".84" d="M14.359 4.234c.152.096.323.233.318.433-.218-.012-.292-.253-.318-.433z"/>
    <path fill="#2a2a2a" opacity=".8" d="M9.517 5.06a.426.426 0 0 1 .272-.473.58.58 0 0 1-.272.473z"/>
    <path fill="#292929" opacity=".8" d="M14.698 4.843c.226.007.283.266.282.447-.14-.111-.286-.255-.282-.447zM8.182 7.363c-.003-.181.056-.44.282-.447.004.193-.142.337-.282.447zM16.038 7.16c.226.007.285.265.283.446-.14-.111-.286-.253-.283-.446zM6.843 9.679c-.004-.181.056-.44.282-.447.003.193-.142.337-.282.447z"/>
    <path fill="#383838" opacity=".84" d="M8.484 6.738c-.004-.201.166-.337.319-.434-.027.18-.101.422-.319.434z"/>
    <path fill="#353535" opacity=".84" d="M15.698 6.545c.152.099.323.234.318.436-.218-.013-.292-.255-.318-.436zM7.146 9.052c-.004-.201.166-.338.318-.436-.026.18-.1.422-.318.436z"/>
    <path fill="#2f2f2f" opacity=".82" d="M16.545 7.998a.432.432 0 0 1 .273.473.572.572 0 0 1-.273-.473zM6.344 10.543a.431.431 0 0 1 .273-.473.577.577 0 0 1-.273.473z"/>
    <path fill="#343434" opacity=".84" d="M17.034 8.845a.44.44 0 0 1 .276.473.563.563 0 0 1-.276-.473zM5.852 11.39a.441.441 0 0 1 .276-.473.57.57 0 0 1-.276.473z"/>
    <path fill="#2e2e2e" opacity=".81" d="M17.886 10.314a.434.434 0 0 1 .273.473.57.57 0 0 1-.273-.473zM5.003 12.86a.434.434 0 0 1 .273-.473.57.57 0 0 1-.273.473zM19.226 12.631a.434.434 0 0 1 .275.473.578.578 0 0 1-.275-.473zM3.662 15.177a.431.431 0 0 1 .275-.473.582.582 0 0 1-.275.473z"/>
    <path fill="#343434" opacity=".84" d="M18.375 11.161a.44.44 0 0 1 .276.473.563.563 0 0 1-.276-.473zM4.51 13.708a.443.443 0 0 1 .276-.474.572.572 0 0 1-.276.474zM19.716 13.479a.44.44 0 0 1 .276.473.563.563 0 0 1-.276-.473zM3.171 16.023a.437.437 0 0 1 .276-.472.564.564 0 0 1-.276.472zM21.055 15.795a.438.438 0 0 1 .276.473.569.569 0 0 1-.276-.473z"/>
    <path d="M8.343 14.298c.243.351.433.744.39 1.184.38 0 .761-.001 1.14.003-.038-.441.144-.836.391-1.188.24.354.426.748.388 1.186h1.138c-.036-.439.147-.834.39-1.185.245.351.428.746.394 1.186a71.57 71.57 0 0 1 1.135-.001c-.043-.44.148-.833.388-1.185.247.35.429.746.39 1.185h1.138c-.039-.439.142-.835.388-1.185.242.351.433.742.39 1.181.19.003.38.003.571.006a91.02 91.02 0 0 0 0 .739c-.197.003-.394.003-.588.006.004.372.004.745.003 1.118l.584-.003c-.001.247.001.496.004.744-.196.001-.391.001-.588.004-.001.393.001.785-.001 1.176h-.745l.001-1.178-1.174.001.001 1.176h-.745c-.003-.393 0-.787-.001-1.179-.388.003-.779.001-1.168-.001-.004.394-.004.788-.004 1.181l-.744-.001c-.003-.393 0-.787-.003-1.18-.39.003-.78.003-1.171.001l-.001 1.179c-.247 0-.496-.001-.744.001l-.001-1.18H8.717v1.179a61.808 61.808 0 0 0-.746.001l.001-1.175c-.195-.004-.391-.003-.587-.007v-.738c.195-.004.391-.003.588-.007a51.896 51.896 0 0 1 0-1.116l-.588-.003v-.74c.19-.003.38-.004.571-.004-.04-.437.142-.831.387-1.182zm.373 1.927c.004.374.004.748 0 1.123.393-.003.784-.003 1.176 0a52.455 52.455 0 0 1 0-1.122c-.393.001-.784.001-1.176-.001zm1.918.002c.004.373.004.748 0 1.122.393-.003.784-.003 1.175 0a70.064 70.064 0 0 1 0-1.123c-.391.003-.782.003-1.175.001zm1.919-.002c.003.374.003.748 0 1.123.39-.001.781-.003 1.172.001-.001-.374-.001-.748.003-1.123-.391.001-.784.001-1.175-.001zm1.917 0c.003.374.003.748 0 1.123.391-.003.782-.003 1.175 0a52.549 52.549 0 0 1 0-1.123c-.393.003-.784.003-1.175 0z"/>
    <path fill="#2d2d2d" opacity=".81" d="M20.565 14.948a.432.432 0 0 1 .276.472.576.576 0 0 1-.276-.472zM2.321 17.492a.433.433 0 0 1 .276-.472.576.576 0 0 1-.276.472z"/>
    <path fill="#2c2c2c" opacity=".8" d="M21.907 17.264a.433.433 0 0 1 .275.472.575.575 0 0 1-.275-.472zM.981 19.808a.43.43 0 0 1 .275-.472.577.577 0 0 1-.275.472z"/>
    <path fill="#333" opacity=".83" d="M1.83 18.339a.439.439 0 0 1 .276-.472.573.573 0 0 1-.276.472zM22.396 18.111a.438.438 0 0 1 .276.472.56.56 0 0 1-.276-.472z"/>
    <path fill="#2b2b2b" opacity=".8" d="M23.247 19.58a.433.433 0 0 1 .275.472.575.575 0 0 1-.275-.472z"/>
    <path fill="#323232" opacity=".83" d="M.482 20.652a.452.452 0 0 1 .284-.468.542.542 0 0 1-.284.468zM23.736 20.434c.193.076.303.26.303.465a.533.533 0 0 1-.303-.465z"/>
    <path fill="#181818" opacity=".89" d="M.692 22.539c7.614.036 15.232-.039 22.844.036l.218.092H.839l-.148-.128z"/>
</svg>
