<!-- Generated by IcoMoon.io -->
<svg version="1.1" xmlns="http://www.w3.org/2000/svg" width="24" height="24" viewBox="0 0 24 24">
<title>warning--forest--g1</title>
<path fill="#ffde00" d="M11.808 0h0.39c0.38 0.108 0.738 0.296 1.012 0.588 3.42 3.421 6.841 6.842 10.264 10.262 0.227 0.223 0.396 0.497 0.527 0.786v0.722c-0.114 0.3-0.277 0.583-0.509 0.809-3.242 3.239-6.482 6.481-9.724 9.721-0.421 0.412-0.804 0.9-1.376 1.111h-0.727c-0.276-0.112-0.539-0.259-0.749-0.472-3.46-3.462-6.92-6.924-10.384-10.382-0.26-0.251-0.418-0.582-0.532-0.92v-0.379c0.101-0.366 0.271-0.714 0.551-0.977 3.439-3.44 6.883-6.876 10.321-10.318 0.257-0.266 0.589-0.434 0.936-0.552M11.558 0.406c-0.211 0.091-0.379 0.252-0.542 0.409-3.437 3.445-6.884 6.88-10.318 10.327-0.497 0.444-0.509 1.283-0.018 1.736 3.498 3.503 6.998 7.004 10.505 10.499 0.454 0.485 1.284 0.454 1.717-0.040 3.48-3.478 6.958-6.956 10.436-10.434 0.52-0.461 0.508-1.333-0.017-1.786-3.458-3.46-6.914-6.925-10.376-10.382-0.342-0.379-0.911-0.536-1.387-0.33z"></path>
<path fill="#ffde00" d="M11.92 0.757c0.307-0.056 0.574 0.139 0.775 0.348 3.44 3.44 6.88 6.884 10.318 10.327 0.349 0.288 0.371 0.86 0.019 1.156-3.481 3.48-6.962 6.962-10.445 10.442-0.293 0.352-0.868 0.334-1.152-0.019-3.481-3.482-6.966-6.961-10.445-10.446-0.326-0.287-0.306-0.83 0.018-1.11 3.413-3.43 6.845-6.841 10.256-10.272 0.19-0.176 0.382-0.396 0.655-0.426M11.233 4.526c0.085 0.026 0.256 0.080 0.341 0.107-0.203 0.698-0.492 1.367-0.838 2.005 0.101 0.012 0.301 0.034 0.402 0.046-0.239 0.679-0.532 1.343-0.924 1.95 0.553 0.094 1.116 0.103 1.675 0.056-0.042 0.197-0.084 0.394-0.126 0.59 0.204-0.001 0.409-0.001 0.614-0.001-0.041-0.197-0.082-0.392-0.121-0.589 0.558 0.048 1.12 0.037 1.673-0.058-0.39-0.607-0.685-1.268-0.922-1.949 0.101-0.011 0.301-0.034 0.402-0.044-0.348-0.647-0.653-1.321-0.836-2.035 0.089-0.011 0.264-0.032 0.353-0.043-0.329-0.532-0.607-1.092-0.853-1.667-0.246 0.56-0.508 1.116-0.84 1.632M5.78 9.766c0.089 0.012 0.266 0.035 0.355 0.047-0.186 0.713-0.487 1.387-0.84 2.030 0.101 0.014 0.304 0.042 0.404 0.055-0.242 0.672-0.527 1.331-0.917 1.932 0.551 0.104 1.112 0.107 1.67 0.066-0.043 0.197-0.084 0.394-0.127 0.59 0.206 0.001 0.413 0.004 0.62 0.007-0.042-0.199-0.083-0.398-0.122-0.596 0.556 0.040 1.116 0.036 1.666-0.065-0.39-0.602-0.671-1.264-0.919-1.933 0.101-0.014 0.302-0.044 0.403-0.059-0.347-0.644-0.65-1.314-0.836-2.023 0.086-0.013 0.259-0.041 0.346-0.054-0.318-0.533-0.599-1.087-0.842-1.657-0.262 0.566-0.524 1.133-0.86 1.66M17.497 8.108c-0.25 0.57-0.526 1.129-0.852 1.66 0.089 0.011 0.265 0.032 0.354 0.043-0.185 0.712-0.49 1.384-0.836 2.029 0.1 0.014 0.301 0.043 0.402 0.058-0.247 0.671-0.529 1.331-0.918 1.933 0.55 0.102 1.11 0.104 1.666 0.066-0.041 0.199-0.083 0.398-0.124 0.598 0.208-0.005 0.416-0.008 0.624-0.011-0.044-0.197-0.088-0.392-0.131-0.588 0.557 0.041 1.118 0.037 1.668-0.065-0.385-0.604-0.672-1.26-0.912-1.932 0.101-0.014 0.302-0.042 0.403-0.056-0.356-0.644-0.653-1.322-0.846-2.034 0.091-0.011 0.271-0.030 0.362-0.040-0.336-0.528-0.601-1.094-0.86-1.661M12.068 13.3c-0.24 0.577-0.52 1.138-0.853 1.667 0.089 0.014 0.266 0.044 0.355 0.059-0.187 0.708-0.491 1.378-0.833 2.023 0.101 0.010 0.302 0.030 0.403 0.041-0.242 0.678-0.532 1.342-0.924 1.948 0.552 0.1 1.115 0.108 1.673 0.061-0.042 0.197-0.084 0.394-0.127 0.59 0.206-0.001 0.413-0.002 0.62-0.002-0.044-0.196-0.086-0.39-0.13-0.586 0.558 0.043 1.12 0.035 1.672-0.060-0.383-0.61-0.678-1.267-0.92-1.944 0.101-0.013 0.301-0.040 0.402-0.053-0.342-0.644-0.647-1.312-0.83-2.020 0.090-0.014 0.269-0.044 0.359-0.059-0.344-0.524-0.612-1.093-0.866-1.666z"></path>
<path fill="#000" d="M11.558 0.406c0.476-0.206 1.045-0.049 1.387 0.33 3.462 3.457 6.918 6.923 10.376 10.382 0.524 0.452 0.536 1.325 0.017 1.786-3.479 3.478-6.956 6.956-10.436 10.434-0.433 0.493-1.264 0.524-1.717 0.040-3.506-3.494-7.007-6.996-10.505-10.499-0.491-0.454-0.479-1.292 0.018-1.736 3.433-3.448 6.881-6.882 10.318-10.327 0.163-0.157 0.331-0.318 0.542-0.409M11.92 0.757c-0.274 0.030-0.466 0.25-0.655 0.426-3.412 3.431-6.844 6.842-10.256 10.272-0.324 0.28-0.344 0.823-0.018 1.11 3.479 3.485 6.964 6.964 10.445 10.446 0.284 0.353 0.859 0.371 1.152 0.019 3.482-3.48 6.964-6.962 10.445-10.442 0.352-0.295 0.33-0.868-0.019-1.156-3.438-3.443-6.877-6.887-10.318-10.327-0.202-0.209-0.468-0.404-0.775-0.348z"></path>
<path fill="#000" d="M11.233 4.526c0.332-0.516 0.594-1.072 0.84-1.632 0.246 0.575 0.524 1.135 0.853 1.667-0.089 0.011-0.264 0.032-0.353 0.043 0.184 0.714 0.488 1.388 0.836 2.035-0.101 0.011-0.301 0.034-0.402 0.044 0.236 0.68 0.532 1.342 0.922 1.949-0.553 0.095-1.115 0.106-1.673 0.058 0.040 0.197 0.080 0.392 0.121 0.589-0.205 0-0.41 0-0.614 0.001 0.042-0.197 0.084-0.394 0.126-0.59-0.559 0.047-1.122 0.037-1.675-0.056 0.392-0.607 0.685-1.271 0.924-1.95-0.101-0.012-0.301-0.034-0.402-0.046 0.346-0.638 0.635-1.307 0.838-2.005-0.085-0.026-0.256-0.080-0.341-0.107z"></path>
<path fill="#000" d="M5.78 9.766c0.336-0.527 0.599-1.093 0.86-1.66 0.244 0.57 0.524 1.124 0.842 1.657-0.086 0.013-0.259 0.041-0.346 0.054 0.186 0.709 0.49 1.379 0.836 2.023-0.101 0.014-0.302 0.044-0.403 0.059 0.248 0.67 0.529 1.331 0.919 1.933-0.55 0.101-1.11 0.104-1.666 0.065 0.040 0.198 0.080 0.397 0.122 0.596-0.208-0.004-0.414-0.006-0.62-0.007 0.043-0.197 0.084-0.394 0.127-0.59-0.558 0.041-1.12 0.038-1.67-0.066 0.39-0.601 0.674-1.26 0.917-1.932-0.101-0.013-0.304-0.041-0.404-0.055 0.353-0.643 0.654-1.318 0.84-2.030-0.089-0.012-0.266-0.035-0.355-0.047z"></path>
<path fill="#000" d="M17.497 8.108c0.259 0.566 0.524 1.133 0.86 1.661-0.091 0.010-0.271 0.029-0.362 0.040 0.193 0.712 0.49 1.39 0.846 2.034-0.101 0.014-0.302 0.042-0.403 0.056 0.24 0.672 0.527 1.328 0.912 1.932-0.55 0.102-1.111 0.106-1.668 0.065 0.043 0.196 0.086 0.391 0.131 0.588-0.208 0.002-0.416 0.006-0.624 0.011 0.041-0.199 0.083-0.398 0.124-0.598-0.556 0.038-1.116 0.036-1.666-0.066 0.389-0.602 0.671-1.262 0.918-1.933-0.101-0.014-0.302-0.043-0.402-0.058 0.347-0.646 0.652-1.318 0.836-2.029-0.089-0.011-0.265-0.032-0.354-0.043 0.326-0.53 0.602-1.090 0.852-1.66z"></path>
<path fill="#000" d="M12.068 13.3c0.254 0.572 0.522 1.141 0.866 1.666-0.090 0.014-0.269 0.044-0.359 0.059 0.184 0.708 0.488 1.375 0.83 2.020-0.101 0.013-0.301 0.040-0.402 0.053 0.242 0.677 0.538 1.334 0.92 1.944-0.552 0.095-1.114 0.103-1.672 0.060 0.043 0.196 0.085 0.39 0.13 0.586-0.208 0-0.414 0.001-0.62 0.002 0.043-0.197 0.085-0.394 0.127-0.59-0.558 0.047-1.121 0.038-1.673-0.061 0.392-0.606 0.682-1.27 0.924-1.948-0.101-0.011-0.302-0.031-0.403-0.041 0.342-0.646 0.646-1.315 0.833-2.023-0.089-0.014-0.266-0.044-0.355-0.059 0.334-0.529 0.613-1.090 0.853-1.667z"></path>
</svg>
