<?xml version="1.0" encoding="utf-8"?>
<!-- Generated by IcoMoon.io -->
<!DOCTYPE svg PUBLIC "-//W3C//DTD SVG 1.1//EN" "http://www.w3.org/Graphics/SVG/1.1/DTD/svg11.dtd">
<svg version="1.1" xmlns="http://www.w3.org/2000/svg" xmlns:xlink="http://www.w3.org/1999/xlink" width="24" height="24" viewBox="0 0 24 24">
<path fill="#c0111e" d="M11.202 1.516h1.559c0.080 0.040 0.24 0.12 0.32 0.16l0.036 0.029 0.044 0.021c0.815 0.509 1.182 1.436 1.673 2.217 0.004 0.005 0.011 0.015 0.015 0.020 0.402 0.633 0.79 1.275 1.159 1.928l0.020 0.040 0.026 0.033c0.12 0.193 0.235 0.389 0.347 0.585l0.021 0.040 0.025 0.033c0.297 0.473 0.584 0.952 0.855 1.441-0.036 0.262 0.042 0.62 0.368 0.626l0.024 0.050c0.237 0.533 0.551 1.027 0.882 1.505l0.046 0.073c-0.032 0.26 0.049 0.613 0.372 0.613l0.026 0.057c0.239 0.534 0.546 1.035 0.884 1.513l0.036 0.058c-0.030 0.261 0.055 0.609 0.376 0.617l0.024 0.051c0.236 0.535 0.549 1.034 0.882 1.513l0.037 0.062c-0.038 0.26 0.053 0.605 0.373 0.608l0.034 0.075c0.265 0.496 0.487 1.039 0.847 1.47l0.053 0.067c-0.008 0.262 0.057 0.622 0.385 0.637l0.018 0.040c0.26 0.592 0.644 1.12 0.922 1.704 0.051 0.595 0.187 1.232-0.070 1.8l-0.011 0.024-0.015 0.025c-0.272 0.455-0.694 0.794-1.158 1.035-0.015 0.009-0.045 0.026-0.059 0.036l-0.082 0.050c-0.203-0.107-0.444-0.033-0.604 0.113h-19.784c-0.154-0.153-0.398-0.22-0.597-0.112l-0.087-0.051c-0.015-0.009-0.046-0.028-0.061-0.037-0.464-0.241-0.886-0.582-1.156-1.035l-0.016-0.025-0.011-0.024c-0.253-0.566-0.124-1.199-0.070-1.791 0.174-0.335 0.355-0.666 0.509-1.010l0.040-0.084c0.327 0.013 0.394-0.355 0.377-0.608l0.029-0.032c0.287-0.082 0.406-0.361 0.361-0.64l0.034-0.055c0.339-0.479 0.645-0.981 0.884-1.516l0.022-0.047c0.315-0.017 0.421-0.349 0.375-0.616l0.036-0.058c0.33-0.485 0.658-0.978 0.89-1.52l0.022-0.049c0.315-0.013 0.409-0.351 0.365-0.612l0.061-0.092c0.338-0.465 0.632-0.965 0.869-1.49l0.024-0.049c0.328-0.004 0.406-0.368 0.369-0.63 0.303-0.538 0.609-1.076 0.947-1.593 0.31-0.057 0.433-0.359 0.376-0.645 0.272-0.487 0.558-0.967 0.853-1.439l0.028-0.034 0.021-0.041c0.111-0.196 0.225-0.393 0.345-0.584l0.026-0.034 0.021-0.040c0.369-0.65 0.753-1.294 1.158-1.923 0.004-0.007 0.012-0.021 0.015-0.028 0.55-0.901 1.005-1.971 2.036-2.422M11.947 3.781c-3.233 5.455-6.45 10.921-9.659 16.39 6.475 0.001 12.949 0.001 19.424 0-3.207-5.461-6.417-10.921-9.647-16.367-0.029-0.005-0.088-0.017-0.117-0.022z"></path>
<path fill="#c0111e" d="M11.941 13.001c-0.004-0.282-0.004-0.566 0-0.848 1.010 0.005 2.022 0.005 3.032-0.001 0.007 0.278 0.011 0.555 0.017 0.833-1.017 0.030-2.033 0.003-3.049 0.016z"></path>
<path fill="#be8387" opacity="0.95" d="M13.081 1.676l0.045 0.021 0.034 0.029-0.044-0.021-0.036-0.029z"></path>
<path fill="#be8387" opacity="0.95" d="M9.152 3.967c0.004-0.007 0.012-0.021 0.015-0.028-0.003 0.007-0.011 0.021-0.015 0.028z"></path>
<path fill="#be8387" opacity="0.95" d="M14.834 3.943c0.004 0.005 0.011 0.015 0.015 0.020-0.004-0.005-0.011-0.015-0.015-0.020z"></path>
<path fill="#be8387" opacity="0.95" d="M7.967 5.924l0.026-0.034-0.021 0.040-0.026 0.034 0.021-0.040z"></path>
<path fill="#be8387" opacity="0.95" d="M16.007 5.891l0.025 0.034 0.021 0.038-0.026-0.033-0.020-0.040z"></path>
<path fill="#be8387" opacity="0.95" d="M7.575 6.582l0.026-0.034-0.021 0.041-0.028 0.034 0.022-0.041z"></path>
<path fill="#be8387" opacity="0.95" d="M16.4 6.549l0.025 0.034 0.021 0.038-0.025-0.033-0.021-0.040z"></path>
<path fill="#be8387" opacity="0.95" d="M0.179 21.199l0.011 0.024 0.016 0.025c-0.007-0.012-0.020-0.037-0.026-0.049z"></path>
<path fill="#be8387" opacity="0.95" d="M23.809 21.224l0.011-0.024c-0.007 0.012-0.018 0.037-0.025 0.049l0.015-0.025z"></path>
<path fill="#be8387" opacity="0.95" d="M1.362 22.283c0.015 0.009 0.046 0.028 0.061 0.037-0.015-0.009-0.046-0.028-0.061-0.037z"></path>
<path fill="#be8387" opacity="0.95" d="M22.577 22.32c0.015-0.009 0.045-0.026 0.059-0.036-0.015 0.009-0.045 0.026-0.059 0.036z"></path>
<path fill="#be8387" opacity="0.95" d="M1.51 22.371c0.199-0.108 0.443-0.041 0.597 0.112h-0.531l-0.066-0.112z"></path>
<path fill="#be8387" opacity="0.95" d="M21.891 22.484c0.16-0.146 0.401-0.22 0.604-0.113l-0.065 0.113h-0.539z"></path>
<path fill="#fff" d="M11.947 3.781c0.029 0.005 0.088 0.017 0.117 0.022 3.231 5.446 6.44 10.907 9.647 16.367-6.475 0.001-12.949 0.001-19.424 0 3.21-5.469 6.426-10.935 9.659-16.39M10.207 9.634c-0.378 0.406-0.794 0.778-1.159 1.195-0.065 0.348-0.020 0.709-0.025 1.063 0.183-0.104 0.367-0.207 0.55-0.313-0.009 2.59-0.001 5.178-0.004 7.768 0.433 0.001 0.865 0.001 1.298 0-0.001-2.59 0.005-5.181-0.003-7.772 0.182 0.107 0.365 0.212 0.55 0.318-0.009-0.355 0.047-0.721-0.030-1.067-0.367-0.421-0.777-0.802-1.176-1.192M11.941 13.001c1.015-0.013 2.032 0.015 3.049-0.016-0.007-0.278-0.011-0.555-0.017-0.833-1.010 0.007-2.022 0.007-3.032 0.001-0.004 0.282-0.004 0.566 0 0.848M12.679 13.387c-0.001 1.986 0 3.973 0 5.96 0.52 0.001 1.039 0.001 1.559 0 0-1.987 0-3.973 0-5.96-0.52-0.003-1.039-0.003-1.559 0z"></path>
<path fill="#fff" d="M6.323 8.706c0.069-0.244 0.199-0.463 0.376-0.645 0.057 0.286-0.066 0.588-0.376 0.645z"></path>
<path fill="#fff" d="M17.301 8.062c0.17 0.177 0.302 0.388 0.368 0.626-0.326-0.007-0.404-0.364-0.368-0.626z"></path>
<path fill="#fff" d="M17.693 8.739c0.306 0.495 0.611 0.99 0.882 1.505-0.331-0.477-0.645-0.972-0.882-1.505z"></path>
<path fill="#fff" d="M5.007 10.929c0.074-0.236 0.199-0.451 0.369-0.63 0.037 0.262-0.041 0.626-0.369 0.63z"></path>
<path fill="#fff" d="M18.621 10.316c0.181 0.165 0.303 0.38 0.372 0.613-0.323 0-0.404-0.353-0.372-0.613z"></path>
<path fill="#fff" d="M4.114 12.468c0.273-0.506 0.567-1.001 0.869-1.49-0.237 0.525-0.531 1.025-0.869 1.49z"></path>
<path fill="#fff" d="M19.019 10.986c0.307 0.497 0.609 0.996 0.884 1.513-0.338-0.477-0.645-0.978-0.884-1.513z"></path>
<path fill="#fff" d="M3.688 13.172c0.061-0.236 0.185-0.448 0.365-0.612 0.044 0.261-0.050 0.599-0.365 0.612z"></path>
<path fill="#fff" d="M19.938 12.556c0.183 0.165 0.307 0.381 0.376 0.617-0.32-0.008-0.406-0.356-0.376-0.617z"></path>
<path fill="#fff" d="M2.776 14.742c0.274-0.52 0.584-1.019 0.89-1.52-0.232 0.542-0.56 1.035-0.89 1.52z"></path>
<path fill="#fff" d="M20.338 13.225c0.303 0.498 0.611 0.996 0.882 1.513-0.334-0.479-0.646-0.977-0.882-1.513z"></path>
<path fill="#fff" d="M2.366 15.415c0.071-0.233 0.193-0.451 0.375-0.616 0.046 0.266-0.059 0.599-0.375 0.616z"></path>
<path fill="#fff" d="M21.257 14.8c0.182 0.162 0.303 0.376 0.373 0.608-0.32-0.003-0.411-0.348-0.373-0.608z"></path>
<path fill="#fff" d="M1.46 16.979c0.277-0.516 0.579-1.018 0.884-1.516-0.239 0.535-0.545 1.038-0.884 1.516z"></path>
<path fill="#fff" d="M21.665 15.483c0.299 0.48 0.592 0.965 0.847 1.47-0.36-0.431-0.582-0.975-0.847-1.47z"></path>
<path fill="#fff" d="M1.064 17.674c0.038-0.252 0.165-0.479 0.361-0.64 0.045 0.278-0.074 0.558-0.361 0.64z"></path>
<path fill="#fff" d="M22.564 17.020c0.189 0.17 0.313 0.396 0.385 0.637-0.328-0.015-0.393-0.375-0.385-0.637z"></path>
<path fill="#fff" d="M0.658 18.314c0.075-0.229 0.187-0.452 0.377-0.608 0.017 0.253-0.050 0.621-0.377 0.608z"></path>
<path fill="#fff" d="M22.967 17.697c0.309 0.564 0.742 1.079 0.922 1.704-0.278-0.584-0.662-1.112-0.922-1.704z"></path>
<path fill="#fff" d="M0.109 19.408c0.063-0.382 0.319-0.686 0.509-1.010-0.154 0.344-0.335 0.675-0.509 1.010z"></path>
<path fill="#030303" d="M10.207 9.634c0.4 0.39 0.81 0.771 1.176 1.192 0.078 0.345 0.021 0.712 0.030 1.067-0.185-0.105-0.368-0.211-0.55-0.318 0.008 2.591 0.001 5.182 0.003 7.772-0.433 0.001-0.865 0.001-1.298 0 0.003-2.59-0.005-5.178 0.004-7.768-0.183 0.105-0.367 0.208-0.55 0.313 0.005-0.353-0.040-0.715 0.025-1.063 0.365-0.417 0.781-0.789 1.159-1.195z"></path>
<path fill="#030303" d="M12.679 13.387c0.52-0.003 1.039-0.003 1.559 0 0 1.987 0 3.973 0 5.96-0.52 0.001-1.039 0.001-1.559 0 0-1.987-0.001-3.975 0-5.96z"></path>
</svg>
