<svg xmlns="http://www.w3.org/2000/svg" width="24" height="24">
    <path fill="#e20a16" d="M11.964 1.333h.411c.268.15.483.377.626.647 3.78 6.596 7.623 13.158 11.381 19.767v.428c-.14.144-.279.286-.427.423-1.684-.102-3.373-.029-5.059-.05-6.145.026-12.292-.052-18.436.039-.181-.108-.316-.276-.459-.429v-.362c3.711-6.58 7.555-13.089 11.3-19.651.162-.315.393-.587.664-.812zM3.15 20.527c6.032.004 12.065.004 18.097 0a12225.9 12225.9 0 0 0-9.049-15.671C9.178 10.077 6.162 15.3 3.15 20.527z"/>
    <path fill="#fff" d="M3.15 20.527c3.012-5.226 6.028-10.45 9.048-15.671 3.02 5.221 6.036 10.446 9.049 15.671-6.032.004-12.065.004-18.097 0zm3.982-6.005c-.033 1.73-.004 3.463-.013 5.195h.641l.001-1.178c.2 0 .4-.001.6-.004.014.294-.026.804.412.761 2.196.02 4.394-.001 6.591.01.213-.017.493.04.617-.189.085-.684.014-1.378.036-2.067.206.001.411.003.617.003l.001 2.665h.641c-.01-1.732.02-3.466-.013-5.196.009-.375-.639-.364-.613.004-.042.784 0 1.57-.016 2.356l-.616.001c-.02-.669.036-1.342-.027-2.009-.071-.28-.404-.234-.623-.245-2.199.011-4.398-.011-6.596.01-.433-.043-.396.468-.417.758-.197-.001-.395-.004-.593-.003-.007-.319.024-.643-.033-.958-.086-.303-.61-.236-.598.088z"/>
    <path fill="#fff" d="M8.818 18.865v-3.796c1.97-.003 3.939.003 5.908-.003-1.973 1.26-3.941 2.527-5.908 3.798zM9.688 18.859c1.96-1.268 3.925-2.53 5.891-3.79.004 1.266 0 2.53.001 3.795-1.964-.003-3.928.006-5.892-.004zM7.763 15.564l.616-.001.001 2.805a25.628 25.628 0 0 0-.62-.001c.003-.935-.001-1.868.003-2.803z"/>
    <path d="M7.132 14.522c-.011-.323.512-.391.598-.088.057.316.026.639.033.958.197-.001.395.001.593.003.02-.29-.016-.801.417-.758 2.198-.02 4.397.001 6.596-.01.218.011.552-.036.623.245.063.667.007 1.34.027 2.009l.616-.001c.016-.785-.026-1.572.016-2.356-.026-.37.621-.38.613-.004.034 1.731.004 3.465.013 5.196h-.641l-.001-2.665c-.206 0-.411-.001-.617-.003-.022.689.049 1.382-.036 2.067-.124.229-.404.172-.617.189-2.198-.011-4.395.01-6.591-.01-.437.044-.397-.467-.412-.761-.2.004-.4.004-.6.004l-.001 1.178H7.12c.01-1.731-.02-3.465.013-5.195zm1.686 4.343c1.966-1.271 3.934-2.54 5.908-3.798-1.969.004-3.938 0-5.908.003v3.796zm.87-.006c1.964.011 3.928.003 5.892.004-.001-1.266.003-2.53-.001-3.795-1.965 1.26-3.93 2.522-5.891 3.79zm-1.925-3.295c-.004.934 0 1.868-.003 2.803.206-.001.412-.001.62.001l-.001-2.805-.616.001z"/>
    <path fill="#120102" opacity=".08" d="M0 22.158c.142.152.276.321.459.429l.14.079H.001v-.508z"/>
    <path fill="#190102" opacity=".11" d="M23.955 22.598c.148-.137.286-.279.427-.423v.492h-.554l.127-.068z"/>
    <path fill="#c20813" opacity=".86" d="M.459 22.588c6.144-.092 12.292-.013 18.436-.039 1.686.02 3.374-.052 5.059.05l-.127.068H.598l-.14-.079z"/>
</svg>
