<!-- Generated by IcoMoon.io -->
<svg version="1.1" xmlns="http://www.w3.org/2000/svg" width="24" height="24" viewBox="0 0 24 24">
<title>warning--domestic-animals--g8</title>
<path fill="#d5bb0e" opacity="0.84" d="M11.711 0h0.554c0.283 0.131 0.546 0.305 0.766 0.526 3.256 3.266 6.52 6.522 9.779 9.784 0.43 0.439 0.931 0.838 1.19 1.411v0.529c-0.12 0.262-0.274 0.509-0.479 0.71-3.306 3.295-6.601 6.6-9.902 9.899-0.421 0.409-0.798 0.893-1.348 1.141h-0.517c-0.264-0.118-0.515-0.268-0.718-0.475-3.295-3.306-6.599-6.602-9.898-9.904-0.408-0.418-0.882-0.793-1.139-1.332v-0.559c0.232-0.559 0.712-0.944 1.126-1.364 3.282-3.281 6.563-6.56 9.841-9.844 0.217-0.215 0.472-0.385 0.744-0.522M11.683 0.307c-0.341 0.146-0.576 0.449-0.838 0.698-3.416 3.426-6.844 6.841-10.259 10.266-0.408 0.353-0.456 1.016-0.049 1.39 3.576 3.586 7.162 7.162 10.739 10.745 0.348 0.414 1.013 0.462 1.384 0.052 3.602-3.595 7.201-7.195 10.798-10.796 0.407-0.371 0.359-1.034-0.046-1.387-3.539-3.545-7.085-7.082-10.622-10.627-0.275-0.296-0.707-0.512-1.106-0.34z"></path>
<path fill="#000" d="M11.683 0.307c0.4-0.173 0.832 0.043 1.106 0.34 3.538 3.545 7.084 7.082 10.622 10.627 0.404 0.353 0.452 1.016 0.046 1.387-3.596 3.601-7.195 7.201-10.798 10.796-0.371 0.41-1.036 0.362-1.384-0.052-3.577-3.583-7.163-7.159-10.739-10.745-0.407-0.373-0.359-1.037 0.049-1.39 3.415-3.425 6.842-6.84 10.259-10.266 0.262-0.25 0.497-0.552 0.838-0.698M11.802 0.763c-3.64 3.512-7.165 7.156-10.769 10.711-0.252 0.2-0.462 0.594-0.168 0.858 3.57 3.59 7.162 7.163 10.739 10.748 0.199 0.259 0.59 0.256 0.791-0.001 3.56-3.563 7.123-7.124 10.684-10.687 0.256-0.2 0.256-0.587 0.004-0.79-3.512-3.529-7.043-7.040-10.558-10.567-0.184-0.188-0.442-0.419-0.722-0.272z"></path>
<path fill="#000" d="M13.645 7.883c0.664-0.436 1.462-0.572 2.243-0.578-0.188 0.082-0.377 0.16-0.565 0.24 0.535 0.49 0.503 1.346 1.223 1.672-0.035 0.276-0.113 0.695-0.47 0.682-0.439-0.090-0.846-0.317-1.301-0.354-0.362 0.556-1.217 0.731-1.236 1.494-0.023 0.64-0.515 1.043-1.006 1.367-0.132 1.168-0.762 2.531 0.032 3.584-0.209 0.025-0.418 0.047-0.626 0.064-0.331-0.582 0.020-1.241-0.217-1.84-0.215 0.706-0.427 1.574 0.18 2.148-0.25 0.034-0.502 0.031-0.751-0.005-0.188-1.188 0.211-2.383-0.056-3.572-1.177 0.046-2.334 0.559-3.488 0.062-0.196 0.269-0.443 0.493-0.739 0.646-0.011 0.086-0.034 0.26-0.044 0.348-0.058-0.095-0.114-0.188-0.172-0.283-0.042 0.089-0.126 0.266-0.168 0.355-0.040-0.168-0.080-0.334-0.121-0.5-0.676 0.763-0.008 1.865 0.577 2.479-0.215 0.053-0.446 0.15-0.662 0.044-0.451-0.577-0.349-1.408-0.852-1.966-0.26 0.534-0.142 1.13-0.080 1.694 0.163 0.162 0.322 0.329 0.472 0.503-0.199 0.019-0.397 0.034-0.596 0.047-0.098-0.181-0.208-0.355-0.34-0.515 0.014-0.678-0.104-1.345-0.169-2.017-0.092-0.452 0.436-0.696 0.5-1.094-0.163-0.544-0.253-1.106-0.15-1.673 0.066-0.215-0.226-0.245-0.347-0.34-0.080-0.202-0.167-0.402-0.272-0.59-0.151 1.41 0.253 2.827-0.065 4.217-0.038-0.102-0.076-0.204-0.113-0.307-0.050 0.178-0.101 0.355-0.154 0.533-0.083-0.691-0.050-1.39 0.065-2.074 0.155-1.076-0.121-2.161 0.020-3.234 0.062-0.649 0.871-0.606 1.321-0.846 0.827-0.476 1.771-0.114 2.632 0.044 1.124 0.271 2.254-0.125 3.376-0.2 0.709-0.030 1.49 0.208 2.122-0.234z"></path>
<path fill="#000" d="M18.233 12.479c0.252-0.546 0.69-1.116 1.376-0.92 0.086 0.367 0.209 0.724 0.358 1.070-0.182 0.036-0.366 0.066-0.55 0.1-0.475 1.15-1.249 2.328-0.874 3.626-0.449-0.272-0.23-0.869-0.348-1.297-0.274 0.433-0.181 0.948-0.066 1.415-0.644-0.302-0.194-1.188-0.515-1.728-0.434 0.044-0.874 0.031-1.306-0.035-0.32 0.452-0.547 0.988-0.278 1.528-0.073-0.011-0.218-0.031-0.292-0.042-0.049-0.287-0.088-0.575-0.14-0.86-0.233 0.341-0.042 0.751-0.017 1.123-0.523-0.283-0.445-1.091-0.348-1.6 0.312-0.564-0.449-1.16-0.012-1.678 0.72-0.928 2.138-0.115 3.011-0.702z"></path>
<path fill="#fee011" d="M11.802 0.763c0.281-0.146 0.539 0.084 0.722 0.272 3.515 3.527 7.045 7.038 10.558 10.567 0.252 0.203 0.252 0.589-0.004 0.79-3.56 3.563-7.123 7.124-10.684 10.687-0.2 0.257-0.592 0.26-0.791 0.001-3.577-3.586-7.169-7.158-10.739-10.748-0.294-0.264-0.084-0.658 0.168-0.858 3.604-3.556 7.129-7.199 10.769-10.711M13.645 7.883c-0.631 0.442-1.412 0.204-2.122 0.234-1.122 0.076-2.251 0.472-3.376 0.2-0.86-0.158-1.805-0.521-2.632-0.044-0.45 0.24-1.259 0.197-1.321 0.846-0.142 1.073 0.134 2.158-0.020 3.234-0.115 0.684-0.148 1.382-0.065 2.074 0.053-0.178 0.103-0.355 0.154-0.533 0.037 0.103 0.074 0.205 0.113 0.307 0.318-1.39-0.086-2.807 0.065-4.217 0.106 0.188 0.192 0.389 0.272 0.59 0.121 0.095 0.413 0.125 0.347 0.34-0.103 0.566-0.013 1.129 0.15 1.673-0.065 0.398-0.593 0.642-0.5 1.094 0.065 0.672 0.184 1.339 0.169 2.017 0.132 0.16 0.241 0.334 0.34 0.515 0.199-0.013 0.397-0.028 0.596-0.047-0.15-0.174-0.308-0.341-0.472-0.503-0.061-0.564-0.18-1.16 0.080-1.694 0.503 0.558 0.401 1.388 0.852 1.966 0.216 0.106 0.448 0.008 0.662-0.044-0.586-0.614-1.253-1.716-0.577-2.479 0.041 0.167 0.082 0.332 0.121 0.5 0.042-0.089 0.126-0.266 0.168-0.355 0.058 0.095 0.114 0.188 0.172 0.283 0.011-0.088 0.034-0.262 0.044-0.348 0.296-0.152 0.544-0.377 0.739-0.646 1.154 0.497 2.311-0.017 3.488-0.062 0.268 1.189-0.132 2.384 0.056 3.572 0.25 0.036 0.502 0.038 0.751 0.005-0.607-0.574-0.395-1.442-0.18-2.148 0.238 0.599-0.114 1.258 0.217 1.84 0.209-0.017 0.418-0.038 0.626-0.064-0.794-1.054-0.164-2.417-0.032-3.584 0.491-0.324 0.983-0.727 1.006-1.367 0.019-0.763 0.874-0.938 1.236-1.494 0.455 0.037 0.862 0.264 1.301 0.354 0.358 0.013 0.436-0.406 0.47-0.682-0.72-0.325-0.688-1.182-1.223-1.672 0.188-0.080 0.377-0.158 0.565-0.24-0.781 0.006-1.579 0.143-2.243 0.578M18.233 12.479c-0.872 0.587-2.291-0.226-3.011 0.702-0.437 0.517 0.324 1.114 0.012 1.678-0.097 0.509-0.175 1.316 0.348 1.6-0.025-0.372-0.216-0.782 0.017-1.123 0.053 0.286 0.091 0.574 0.14 0.86 0.073 0.011 0.218 0.031 0.292 0.042-0.269-0.54-0.042-1.075 0.278-1.528 0.432 0.066 0.871 0.079 1.306 0.035 0.32 0.54-0.13 1.426 0.515 1.728-0.115-0.467-0.208-0.982 0.066-1.415 0.118 0.428-0.101 1.025 0.348 1.297-0.376-1.298 0.398-2.477 0.874-3.626 0.184-0.034 0.367-0.064 0.55-0.1-0.149-0.347-0.271-0.703-0.358-1.070-0.686-0.196-1.124 0.374-1.376 0.92z"></path>
</svg>
