<svg xmlns="http://www.w3.org/2000/svg" width="24" height="24">
    <path fill="#ffd520" d="M3 0h17.975v24H3V0zm.503.502c-.003 7.673-.005 15.346.001 23.018 5.677 0 11.354.01 17.031-.005l.001-23.01C14.858.496 9.181.501 3.503.502z"/>
    <path fill="#ffd520" d="M4.005 1.003c5.342-.002 10.686-.007 16.029.003l.001 22.008c-5.343.017-10.687.004-16.03.006-.006-7.339-.005-14.678 0-22.017zm6.512 4.333c.47.418.977.792 1.456 1.2-2.249 1.241-3.974 3.593-4.049 6.215-.02 2.26-.011 4.523-.004 6.783.791 0 1.584.002 2.375-.001.015-2.124-.018-4.25.017-6.374.057-1.93 1.219-3.899 3.093-4.55.209.548.383 1.114.629 1.647.186.329.733.273.833-.094.658-1.841 1.252-3.703 1.848-5.565a206.291 206.291 0 0 0-5.887-.047c-.385-.005-.601.524-.311.786z"/>
    <path fill="#9c8214" opacity=".61" d="M20.975 0h.1v24h-.1V0z"/>
    <path d="M3.503.502C9.181.501 14.858.496 20.536.505l-.001 23.01c-5.677.015-11.354.005-17.031.005C3.498 15.848 3.5 8.175 3.503.502zm.502.501c-.005 7.339-.006 14.678 0 22.017 5.343-.002 10.687.011 16.03-.006l-.001-22.008c-5.343-.01-10.687-.005-16.029-.003z"/>
    <path d="M10.517 5.336c-.29-.262-.073-.791.311-.786a206.35 206.35 0 0 1 5.887.047c-.595 1.862-1.19 3.725-1.848 5.565-.1.368-.648.424-.833.094-.246-.533-.42-1.099-.629-1.647-1.874.651-3.036 2.62-3.093 4.55-.035 2.124-.002 4.25-.017 6.374-.791.003-1.584.001-2.375.001-.007-2.26-.016-4.523.004-6.783.075-2.622 1.8-4.974 4.049-6.215-.479-.408-.986-.782-1.456-1.2z"/>
</svg>
