<?xml version="1.0" encoding="utf-8"?>
<!-- Generated by IcoMoon.io -->
<!DOCTYPE svg PUBLIC "-//W3C//DTD SVG 1.1//EN" "http://www.w3.org/Graphics/SVG/1.1/DTD/svg11.dtd">
<svg version="1.1" xmlns="http://www.w3.org/2000/svg" xmlns:xlink="http://www.w3.org/1999/xlink" width="24" height="24" viewBox="0 0 24 24">
<path fill="#000" d="M11.678 1.489h0.52c0.257 0.125 0.546 0.248 0.679 0.525 3.649 6.308 7.294 12.619 10.941 18.928 0.072 0.108 0.105 0.228 0.102 0.359l0.081-0.076v0.417l-0.064 0.008c-0.025 0.379-0.349 0.759-0.739 0.784l0.077 0.077h-22.448c-0.331-0.141-0.737-0.372-0.748-0.784l-0.078 0.054v-0.472c0.105-0.338 0.345-0.61 0.462-0.942l0.125-0.003c-0.131 0.375-0.468 0.678-0.477 1.097-0.021 0.476 0.381 0.916 0.856 0.939 7.33 0.001 14.659-0.001 21.989 0.001 0.434 0.008 0.843-0.341 0.9-0.772 0.054-0.255-0.044-0.512-0.175-0.726-3.613-6.254-7.228-12.506-10.841-18.759-0.271-0.643-1.26-0.733-1.618-0.128-0.307 0.492-0.569 1.013-0.886 1.499l-0.045-0.143c0.334-0.464 0.571-0.993 0.888-1.47 0.135-0.174 0.328-0.336 0.561-0.335l-0.062-0.077z"></path>
<path fill="#000" d="M10.181 3.549l0.122 0.004-0.045 0.128c-0.625 1.039-1.197 2.115-1.84 3.14l-0.045-0.123c0.591-0.934 1.112-1.913 1.677-2.863 0.059-0.088 0.102-0.183 0.13-0.286z"></path>
<path fill="#000" d="M8.261 6.878l0.123 0.005c-0.719 1.311-1.486 2.604-2.242 3.897l-0.042-0.138c0.724-1.182 1.39-2.402 2.097-3.596 0.016-0.042 0.048-0.126 0.065-0.168z"></path>
<path fill="#000" d="M5.98 10.822l0.127-0.009c-0.833 1.548-1.767 3.049-2.618 4.59l-0.097 0.069-0.019-0.116c0.78-1.272 1.497-2.586 2.257-3.871 0.111-0.225 0.277-0.422 0.35-0.664z"></path>
<path fill="#000" d="M13.294 12.344c0.237-0.162 0.473-0.327 0.713-0.485 0.259 0.086 0.516 0.182 0.775 0.269 0.099 0.232 0.201 0.491 0.229 0.736-0.446 0.414-0.893 0.83-1.33 1.254-0.17 0.579-0.325 1.162-0.488 1.744-0.719 0.613-1.451 1.212-2.171 1.825-0.515 0.046-1.042-0.018-1.562-0.002-0.388 0.321-0.786 0.634-1.155 0.977-0.030 0.003-0.089 0.007-0.119 0.010-0.18-0.191-0.368-0.374-0.547-0.565-0.105-0.225-0.201-0.454-0.311-0.677 0.265-0.272 0.571-0.506 0.822-0.789-0.191-0.371-0.007-0.855 0.352-1.047 0.265-0.152 0.613-0.145 0.862 0.039 0.905-0.753 1.801-1.517 2.714-2.262-0.192-0.37-0.029-0.843 0.321-1.053 0.269-0.178 0.636-0.163 0.895 0.027M11.836 15.687c0.11 0.16 0.256 0.293 0.364 0.454 0.22-0.162 0.441-0.339 0.63-0.536 0.095-0.329 0.172-0.664 0.282-0.988-0.428 0.353-0.852 0.713-1.276 1.070M10.606 16.728l0.003 0.053c0.23 0.038 0.458 0.092 0.688 0.133 0.193-0.169 0.399-0.322 0.583-0.501-0.13-0.146-0.248-0.302-0.382-0.445-0.295 0.257-0.608 0.495-0.893 0.76z"></path>
<path fill="#000" d="M3.279 15.537c0.031 0.001 0.094 0.004 0.125 0.006-0.942 1.587-1.835 3.205-2.786 4.785l-0.045-0.133c0.185-0.237 0.306-0.516 0.467-0.769 0.743-1.298 1.505-2.586 2.239-3.889z"></path>
<path fill="#000" d="M6.293 18.695c3.799-0.003 7.597-0.003 11.396 0-0.008 0.158-0.004 0.316-0.003 0.474-3.795-0.007-7.591 0.002-11.386-0.004-0.017-0.156-0.003-0.314-0.006-0.47z"></path>
<path fill="#fff" d="M11.221 2.015c0.358-0.605 1.347-0.515 1.618 0.128 3.613 6.253 7.228 12.505 10.841 18.759 0.131 0.214 0.23 0.471 0.175 0.726-0.058 0.431-0.467 0.78-0.9 0.772-7.33-0.002-14.659 0-21.989-0.001-0.475-0.023-0.877-0.463-0.856-0.939 0.009-0.419 0.345-0.722 0.477-1.097 0.008-0.009 0.024-0.027 0.031-0.036 0.951-1.58 1.845-3.198 2.786-4.785-0.003-0.018-0.009-0.053-0.012-0.071l0.097-0.069c0.851-1.541 1.785-3.042 2.618-4.59 0.009-0.008 0.025-0.025 0.034-0.033 0.756-1.293 1.523-2.586 2.242-3.897 0.008-0.016 0.025-0.046 0.034-0.061 0.643-1.025 1.215-2.101 1.84-3.14l0.045-0.128c0.009-0.011 0.025-0.030 0.033-0.039 0.316-0.486 0.578-1.006 0.886-1.499M11.778 1.984c-0.178 0.063-0.288 0.225-0.375 0.383-3.615 6.258-7.232 12.515-10.846 18.774-0.274 0.369 0.027 0.948 0.489 0.919 7.303 0.002 14.607 0.003 21.911 0 0.439 0.010 0.727-0.535 0.477-0.896-3.635-6.298-7.274-12.593-10.912-18.889-0.133-0.263-0.467-0.412-0.745-0.291z"></path>
<path fill="#fff" d="M11.849 6.251c0.062-0.060 0.056-0.243 0.18-0.18 2.622 4.556 5.268 9.099 7.884 13.658-5.284 0.009-10.569-0.004-15.853 0.006 2.591-4.498 5.194-8.989 7.789-13.484M13.294 12.344c-0.259-0.19-0.626-0.205-0.895-0.027-0.35 0.209-0.513 0.683-0.321 1.053-0.913 0.745-1.809 1.509-2.714 2.262-0.249-0.184-0.597-0.192-0.862-0.039-0.359 0.192-0.543 0.675-0.352 1.047-0.25 0.283-0.556 0.518-0.822 0.789 0.11 0.223 0.206 0.452 0.311 0.677 0.179 0.191 0.367 0.374 0.547 0.565 0.030-0.003 0.089-0.007 0.119-0.010 0.37-0.342 0.767-0.655 1.155-0.977 0.519-0.017 1.047 0.048 1.562 0.002 0.72-0.612 1.452-1.211 2.171-1.825 0.163-0.582 0.318-1.165 0.488-1.744 0.437-0.424 0.884-0.84 1.33-1.254-0.028-0.245-0.13-0.504-0.229-0.736-0.259-0.087-0.516-0.183-0.775-0.269-0.24 0.159-0.476 0.323-0.713 0.485M6.293 18.695c0.003 0.156-0.011 0.314 0.006 0.47 3.795 0.006 7.591-0.003 11.386 0.004-0.001-0.158-0.004-0.316 0.003-0.474-3.799-0.003-7.597-0.003-11.396 0z"></path>
<path fill="#fff" d="M11.836 15.687c0.424-0.357 0.848-0.717 1.276-1.070-0.11 0.324-0.187 0.659-0.282 0.988-0.188 0.197-0.41 0.374-0.63 0.536-0.109-0.161-0.255-0.293-0.364-0.454z"></path>
<path fill="#fff" d="M10.606 16.728c0.286-0.265 0.598-0.504 0.893-0.76 0.134 0.143 0.252 0.299 0.382 0.445-0.184 0.179-0.391 0.332-0.583 0.501-0.23-0.041-0.458-0.095-0.688-0.133l-0.003-0.053z"></path>
<path fill="#cf181f" d="M11.778 1.984c0.278-0.121 0.611 0.028 0.745 0.291 3.639 6.296 7.277 12.591 10.912 18.889 0.25 0.361-0.039 0.906-0.477 0.896-7.304 0.003-14.608 0.002-21.911 0-0.462 0.029-0.763-0.55-0.489-0.919 3.613-6.259 7.231-12.516 10.846-18.774 0.087-0.158 0.197-0.32 0.375-0.383M11.849 6.251c-2.595 4.495-5.199 8.986-7.789 13.484 5.284-0.011 10.569 0.003 15.853-0.006-2.616-4.559-5.262-9.102-7.884-13.658-0.123-0.063-0.117 0.12-0.18 0.18z"></path>
</svg>
