<?xml version="1.0" encoding="utf-8"?>
<!-- Generated by IcoMoon.io -->
<!DOCTYPE svg PUBLIC "-//W3C//DTD SVG 1.1//EN" "http://www.w3.org/Graphics/SVG/1.1/DTD/svg11.dtd">
<svg version="1.1" xmlns="http://www.w3.org/2000/svg" xmlns:xlink="http://www.w3.org/1999/xlink" width="27" height="24" viewBox="0 0 27 24">
<path fill="#e22526" d="M26.138 23.902c1.028 0 1.449-0.728 0.935-1.619l-12.474-21.605c-0.514-0.89-1.355-0.89-1.869 0l-12.474 21.605c-0.514 0.89-0.094 1.619 0.935 1.619h24.947z"></path>
<path fill="#fff" d="M4.694 20.835h17.942l-8.971-15.538-8.971 15.538z"></path>
<path fill="#231f20" d="M13.708 8.527c-0.516 0-0.934 0.418-0.934 0.934s0.418 0.934 0.934 0.934c0.516 0 0.934-0.418 0.934-0.934s-0.418-0.934-0.934-0.934z"></path>
<path fill="#231f20" d="M15.35 17.028l-0.519-2.897 0.028-1.755 0.444 0.349 0.302 1.642h0.472l-0.085-1.906-1.396-1.562c-0.182-0.248-0.475-0.408-0.806-0.408-0.31 0-0.587 0.141-0.771 0.363l-2.745 2.664 0.349 0.349 2.095-1.519 0.274 1.849-1.821 5.897h0.594l2.085-4.359 0.708 1.972 1.614 2.434 0.5-0.406-1.321-2.708z"></path>
</svg>
