<!-- Generated by IcoMoon.io -->
<svg version="1.1" xmlns="http://www.w3.org/2000/svg" width="24" height="24" viewBox="0 0 24 24">
<title>warning--koala-crossing--g2</title>
<path fill="#d5bb0e" opacity="0.84" d="M11.705 0h0.571c0.277 0.134 0.536 0.307 0.755 0.526 3.256 3.265 6.52 6.522 9.779 9.784 0.43 0.438 0.925 0.836 1.19 1.404v0.55c-0.124 0.254-0.277 0.497-0.479 0.697-3.305 3.295-6.601 6.6-9.902 9.899-0.42 0.409-0.797 0.887-1.338 1.141h-0.54c-0.258-0.121-0.503-0.272-0.703-0.475-3.296-3.305-6.6-6.602-9.899-9.902-0.407-0.416-0.877-0.793-1.139-1.326v-0.576c0.252-0.578 0.757-0.974 1.186-1.415 3.262-3.26 6.523-6.52 9.781-9.784 0.216-0.212 0.469-0.384 0.738-0.522M11.682 0.307c-0.34 0.146-0.575 0.448-0.836 0.698-3.416 3.426-6.844 6.841-10.26 10.266-0.406 0.353-0.455 1.016-0.049 1.388 3.576 3.586 7.163 7.162 10.74 10.746 0.348 0.414 1.014 0.462 1.385 0.052 3.601-3.595 7.2-7.195 10.796-10.796 0.407-0.371 0.359-1.034-0.046-1.387-3.539-3.545-7.085-7.082-10.622-10.627-0.275-0.296-0.707-0.514-1.108-0.34z"></path>
<path fill="#000" d="M11.682 0.307c0.401-0.174 0.833 0.043 1.108 0.34 3.538 3.545 7.084 7.082 10.622 10.627 0.404 0.353 0.452 1.016 0.046 1.387-3.596 3.601-7.195 7.201-10.796 10.796-0.371 0.41-1.037 0.362-1.385-0.052-3.577-3.584-7.164-7.16-10.74-10.746-0.406-0.372-0.356-1.036 0.049-1.388 3.416-3.425 6.844-6.84 10.26-10.266 0.262-0.251 0.497-0.552 0.836-0.698M11.801 0.764c-3.638 3.512-7.165 7.154-10.766 10.71-0.253 0.2-0.463 0.594-0.17 0.857 3.571 3.592 7.163 7.163 10.739 10.75 0.199 0.258 0.592 0.256 0.792-0.001 3.56-3.563 7.123-7.123 10.684-10.686 0.256-0.2 0.256-0.589 0.004-0.791-3.512-3.529-7.043-7.040-10.556-10.567-0.184-0.19-0.444-0.42-0.725-0.271z"></path>
<path fill="#000" d="M15.272 5.408c0.433 0.034 0.901 0.088 1.238 0.394 0.404 0.28 0.413 0.834 0.752 1.169 0.468 0.517 0.998 1.037 1.106 1.763-0.688 0.232-0.77 1.229-0.175 1.609-0.311-0.468-0.491-1.307 0.241-1.474 0.169 0.222 0.428 0.422 0.434 0.725 0.097 0.533-0.5 0.719-0.775 1.061-0.382-0.058-0.768-0.091-1.152-0.047 0.342 0.047 0.686 0.070 1.030 0.107-0.215 0.184-0.433 0.362-0.635 0.559-0.562 0.164-1.144 0.304-1.73 0.209-0.144-0.134-0.289-0.269-0.433-0.403-0.060 0.444-0.338 0.959-0.857 0.914 0.167 0.138 0.335 0.275 0.504 0.41 0.115 0.346 0.274 0.682 0.304 1.051 0.235 0.116 0.472 0.23 0.706 0.348-0.023 0.062-0.068 0.186-0.092 0.247 0.32 0.276 0.632 0.564 0.895 0.896 0.464-0.212 1.048-0.55 1.446-0.040-0.479 0.088-0.954 0.2-1.442 0.204 0.576 0.376 1.644-0.089 1.772 0.824-0.371-0.362-0.868 0.284-1.128-0.343-0.218-0.017-0.437-0.032-0.655-0.046 0.256 0.152 0.654 0.197 0.708 0.553-0.065 0.006-0.194 0.017-0.259 0.023 0.029 0.254-0.002 0.511-0.161 0.722-0.020-0.098-0.059-0.296-0.078-0.396-0.071 0.055-0.214 0.163-0.284 0.217-0.012-0.275-0.022-0.551-0.020-0.826-0.158 0.181-0.325 0.356-0.485 0.538-0.127 0.007-0.256 0.014-0.383 0.023 0.073-0.215 0.155-0.427 0.241-0.636-0.232 0.037-0.463 0.149-0.7 0.116-0.606-0.494-1.426-0.607-2.036-1.098-0.269-0.23-0.463-0.553-0.805-0.69-0.149-0.494-0.31-0.988-0.406-1.496-0.15-0.743 0.454-1.484 0.097-2.207-0.019 0.742-0.257 1.45-0.28 2.19-0.617 0.5-1.498 0.076-2.208 0.322-0.872-0.011-1.733-0.299-2.456-0.779 0.425 0.368 0.085 0.692-0.323 0.839-0.002 0.331 0.013 0.69-0.164 0.985-0.418 0.356-0.985 0.36-1.502 0.406 0.264 0.017 0.528 0.018 0.793 0.020-0.043 0.414-0.194 0.799-0.442 1.134-0.083-0.115-0.166-0.229-0.248-0.342-0.15 0.187-0.292 0.38-0.431 0.576-0.061-0.205-0.122-0.41-0.179-0.616-0.062 0.088-0.124 0.175-0.186 0.264-0.119-0.509 0.258-0.87 0.605-1.17-0.236-0.31-0.542-0.614-0.581-1.021 0.142-0.649 0.772-1.162 0.634-1.873 0.059-0.089 0.116-0.178 0.175-0.266-0.164-1.291 0.443-2.512 1.255-3.462 0.902-0.307 1.589-1.135 2.606-1.091 1.153 0.352 2.378 0.594 3.578 0.854-0.061 0.281-0.14 0.558-0.235 0.83 0.142 0.142 0.061 0.326 0.028 0.493 0.054 0.005 0.162 0.014 0.217 0.019-0.031 0.076-0.094 0.226-0.125 0.3 0.077-0.014 0.23-0.043 0.307-0.058-0.037 0.133-0.113 0.398-0.15 0.53 0.085-0.065 0.256-0.197 0.341-0.263-0.001 0.162-0.004 0.324-0.005 0.487 0.059-0.024 0.178-0.072 0.236-0.095 0.018 0.091 0.054 0.275 0.072 0.367 0.121-0.128 0.241-0.257 0.362-0.384 0.014 0.096 0.042 0.288 0.056 0.384 0.157-0.194 0.314-0.388 0.476-0.578-0.037 0.235-0.077 0.469-0.119 0.704 0.056-0.056 0.169-0.167 0.224-0.222 0.029 0.122 0.086 0.368 0.114 0.491 0.246-0.334 0.376-0.731 0.377-1.147-0.103 0.251-0.205 0.503-0.317 0.75-0.059-0.322-0.091-0.653-0.222-0.955-0.137 0.162-0.272 0.324-0.403 0.491-0.019-0.098-0.058-0.294-0.078-0.392-0.074 0.114-0.15 0.227-0.224 0.341-0.073-0.092-0.145-0.185-0.218-0.277-0.084-0.397-0.41-0.93 0.084-1.192 0.462-0.47 1.103-0.167 1.643-0.067 0.149-0.371-0.319-0.473-0.581-0.534-0.726-0.223-1.235 0.476-1.799 0.796 0.092-0.283 0.163-0.574 0.181-0.872 0.637-0.673 1.768-0.482 2.48-0.052 0.383 0.644-0.244 1.136-0.776 1.382 0.535-0.037 1.134-0.322 1.056-0.953 0.12-0.808-0.888-0.859-1.441-0.96 0.509-0.287 0.983-0.686 1.008-1.318M6.098 10.631c0.091 0.473 0.311 0.961 0.725 1.231-0.203-0.43-0.496-0.814-0.725-1.231z"></path>
<path fill="#000" d="M10.698 12.966c0.4-0.050 0.799-0.109 1.182-0.236 0.094 0.346 0.221 0.688 0.24 1.049-0.359 0.174-0.731 0.324-1.074 0.53-0.061-0.059-0.184-0.178-0.244-0.236-0.132 0.157-0.262 0.317-0.392 0.475-0.024-0.472 0.371-0.696 0.743-0.862-0.216-0.196-0.348-0.455-0.455-0.72z"></path>
<path fill="#fee011" d="M11.801 0.764c0.281-0.149 0.541 0.082 0.725 0.271 3.514 3.527 7.044 7.038 10.556 10.567 0.252 0.202 0.252 0.59-0.004 0.791-3.56 3.563-7.123 7.123-10.684 10.686-0.2 0.257-0.593 0.259-0.792 0.001-3.576-3.587-7.168-7.158-10.739-10.75-0.293-0.263-0.083-0.656 0.17-0.857 3.601-3.556 7.128-7.198 10.766-10.71M15.272 5.408c-0.025 0.631-0.499 1.031-1.008 1.318 0.553 0.101 1.561 0.152 1.441 0.96 0.078 0.631-0.521 0.916-1.056 0.953 0.533-0.246 1.159-0.738 0.776-1.382-0.713-0.431-1.843-0.622-2.48 0.052-0.018 0.299-0.089 0.589-0.181 0.872 0.564-0.319 1.073-1.019 1.799-0.796 0.262 0.061 0.73 0.163 0.581 0.534-0.54-0.1-1.181-0.403-1.643 0.067-0.494 0.262-0.168 0.794-0.084 1.192 0.073 0.092 0.145 0.185 0.218 0.277 0.074-0.114 0.15-0.227 0.224-0.341 0.020 0.098 0.059 0.294 0.078 0.392 0.131-0.167 0.266-0.329 0.403-0.491 0.131 0.302 0.163 0.634 0.222 0.955 0.112-0.247 0.214-0.499 0.317-0.75-0.001 0.416-0.131 0.814-0.377 1.147-0.028-0.122-0.085-0.368-0.114-0.491-0.055 0.055-0.168 0.166-0.224 0.222 0.042-0.235 0.082-0.469 0.119-0.704-0.162 0.191-0.319 0.384-0.476 0.578-0.014-0.096-0.042-0.288-0.056-0.384-0.121 0.127-0.241 0.256-0.362 0.384-0.018-0.092-0.054-0.276-0.072-0.367-0.059 0.023-0.178 0.071-0.236 0.095 0.001-0.163 0.004-0.325 0.005-0.487-0.085 0.066-0.256 0.198-0.341 0.263 0.037-0.132 0.113-0.397 0.15-0.53-0.077 0.014-0.23 0.043-0.307 0.058 0.031-0.074 0.094-0.224 0.125-0.3-0.055-0.005-0.163-0.014-0.217-0.019 0.034-0.167 0.114-0.352-0.028-0.493 0.095-0.272 0.174-0.55 0.235-0.83-1.2-0.26-2.425-0.503-3.578-0.854-1.018-0.044-1.704 0.784-2.606 1.091-0.812 0.95-1.42 2.171-1.255 3.462-0.059 0.089-0.116 0.178-0.175 0.266 0.138 0.712-0.492 1.224-0.634 1.873 0.038 0.407 0.344 0.712 0.581 1.021-0.347 0.3-0.724 0.661-0.605 1.17 0.062-0.089 0.124-0.176 0.186-0.264 0.056 0.205 0.118 0.41 0.179 0.616 0.139-0.196 0.281-0.389 0.431-0.576 0.083 0.113 0.166 0.227 0.248 0.342 0.247-0.335 0.398-0.72 0.442-1.134-0.265-0.002-0.529-0.004-0.793-0.020 0.517-0.046 1.085-0.049 1.502-0.406 0.178-0.295 0.162-0.654 0.164-0.985 0.408-0.146 0.748-0.47 0.323-0.839 0.724 0.48 1.584 0.768 2.456 0.779 0.71-0.246 1.591 0.179 2.208-0.322 0.023-0.74 0.26-1.448 0.28-2.19 0.356 0.722-0.247 1.464-0.097 2.207 0.096 0.509 0.257 1.002 0.406 1.496 0.342 0.137 0.536 0.46 0.805 0.69 0.611 0.491 1.43 0.604 2.036 1.098 0.236 0.032 0.468-0.079 0.7-0.116-0.086 0.209-0.168 0.421-0.241 0.636 0.127-0.008 0.256-0.016 0.383-0.023 0.16-0.181 0.326-0.356 0.485-0.538-0.001 0.275 0.008 0.551 0.020 0.826 0.071-0.054 0.214-0.162 0.284-0.217 0.019 0.1 0.058 0.298 0.078 0.396 0.158-0.211 0.19-0.468 0.161-0.722 0.065-0.006 0.194-0.017 0.259-0.023-0.054-0.356-0.452-0.401-0.708-0.553 0.218 0.013 0.437 0.029 0.655 0.046 0.26 0.628 0.757-0.019 1.128 0.343-0.128-0.913-1.196-0.449-1.772-0.824 0.488-0.004 0.964-0.116 1.442-0.204-0.398-0.51-0.982-0.173-1.446 0.040-0.263-0.332-0.575-0.62-0.895-0.896 0.024-0.061 0.070-0.185 0.092-0.247-0.234-0.118-0.47-0.232-0.706-0.348-0.030-0.37-0.188-0.706-0.304-1.051-0.169-0.136-0.337-0.272-0.504-0.41 0.518 0.044 0.797-0.47 0.857-0.914 0.144 0.134 0.289 0.269 0.433 0.403 0.587 0.095 1.169-0.044 1.73-0.209 0.202-0.197 0.42-0.376 0.635-0.559-0.343-0.037-0.688-0.060-1.030-0.107 0.384-0.044 0.77-0.011 1.152 0.047 0.275-0.342 0.872-0.528 0.775-1.061-0.006-0.302-0.265-0.503-0.434-0.725-0.732 0.167-0.552 1.006-0.241 1.474-0.595-0.38-0.512-1.378 0.175-1.609-0.108-0.726-0.638-1.246-1.106-1.763-0.34-0.335-0.348-0.889-0.752-1.169-0.337-0.306-0.805-0.36-1.238-0.394M10.698 12.966c0.107 0.265 0.239 0.524 0.455 0.72-0.372 0.166-0.767 0.39-0.743 0.862 0.131-0.158 0.26-0.318 0.392-0.475 0.060 0.059 0.182 0.178 0.244 0.236 0.343-0.206 0.715-0.356 1.074-0.53-0.019-0.361-0.146-0.703-0.24-1.049-0.383 0.127-0.782 0.186-1.182 0.236z"></path>
<path fill="#fee011" d="M6.098 10.631c0.229 0.418 0.522 0.802 0.725 1.231-0.414-0.27-0.634-0.758-0.725-1.231z"></path>
</svg>
