<!-- Generated by IcoMoon.io -->
<svg version="1.1" xmlns="http://www.w3.org/2000/svg" width="24" height="24" viewBox="0 0 24 24">
<title>warning--pedestrians-crossing--g5</title>
<path fill="#c0111e" d="M10.595 2.191c0.637-0.484 1.542-0.591 2.265-0.237 0.606 0.287 1.036 0.833 1.359 1.405 2.93 4.909 5.818 9.843 8.679 14.792 0.265 0.483 0.578 0.943 0.797 1.451 0.211 0.643 0.16 1.381-0.138 1.988-0.355 0.556-0.985 0.957-1.652 0.981-1.422 0.090-2.847 0.090-4.271 0.118h-12.843c-1.036-0.070-2.077-0.037-3.109-0.15-0.713-0.153-1.405-0.692-1.551-1.435-0.156-0.656-0.11-1.384 0.268-1.959 3.001-5.205 6.037-10.391 9.112-15.554 0.306-0.505 0.599-1.044 1.086-1.399M2.275 20.388c6.439 0.001 12.879 0.001 19.318 0-3.21-5.469-6.426-10.934-9.659-16.388-3.234 5.454-6.451 10.919-9.659 16.388z"></path>
<path fill="#fff" d="M2.275 20.388c3.208-5.469 6.425-10.934 9.659-16.388 3.233 5.454 6.449 10.919 9.659 16.388-6.439 0.001-12.879 0.001-19.318 0M11.134 7.343c-0.080 0.425 0.4 0.732 0.287 1.137-0.846 0.358-1.444 1.138-1.651 2.024-0.168 0.53 0.028 1.069 0.139 1.587 0.113 0.371-0.045 0.745-0.096 1.111 0.212-0.218 0.422-0.451 0.544-0.733-0.016-0.435-0.173-0.868-0.083-1.306 0.090-0.384 0.262-0.749 0.517-1.052 0.012 0.91 0.161 1.9-0.303 2.729-0.584 1.298-1.011 2.675-1.816 3.862-0.22 0-0.441 0.001-0.661 0.001 0.001 0.076 0.005 0.228 0.007 0.303 0.11-0.005 0.33-0.017 0.442-0.022-0.018 0.115-0.055 0.346-0.072 0.463 0.473 0.351 0.982 0.681 1.537 0.89-0.144-0.47-0.429-0.875-0.584-1.339 0.334 0.001 0.669 0.001 1.003 0.001 0.001-0.075 0.001-0.224 0.001-0.298-0.282 0-0.565 0.001-0.847 0.007 0.863-0.921 1.353-2.1 2.012-3.158 0.413 0.652 0.696 1.374 1.052 2.056 0.185 0.341 0.285 0.716 0.361 1.094-0.244 0.001-0.487 0.001-0.73 0.003 0 0.073 0 0.222 0 0.295 0.253 0.001 0.506 0.001 0.759 0.004 0.063 0.404 0.056 0.82 0.16 1.217 0.555 0.283 1.287 0.024 1.708-0.401-0.277-0.043-0.553-0.076-0.83-0.106-0.056-0.233-0.096-0.472-0.132-0.709 0.193-0.001 0.384-0.003 0.577-0.004 0-0.073 0-0.222 0-0.295-0.189-0.001-0.378-0.001-0.567-0.001 0.055-1.626-0.89-3.045-1.104-4.624-0.049-0.46-0.033-0.925-0.009-1.385 0.29 0.334 0.509 0.727 0.817 1.045 0.428 0.328 0.927 0.544 1.38 0.837 0.176 0.087 0.367 0.289 0.577 0.156-0.012-0.066-0.037-0.199-0.049-0.266-0.601-0.622-1.414-1.043-1.92-1.76-0.31-0.668-0.396-1.412-0.678-2.089-0.228-0.156-0.522-0.13-0.78-0.182 0.258-0.455 0.547-1.077 0.168-1.548-0.363-0.449-1.229-0.151-1.134 0.458M5.567 16.703c0 0.073 0 0.222 0 0.296 0.174 0 0.349 0 0.523 0 0-0.075 0-0.223 0-0.298-0.174 0-0.35 0-0.523 0.001M6.771 16.703c0 0.073 0 0.222 0.001 0.296 0.321 0 0.643 0 0.965 0 0-0.075 0-0.223 0-0.298-0.323 0-0.644 0-0.967 0.001M10.87 16.702c0 0.075 0 0.223 0 0.298 0.296 0 0.593 0 0.889 0 0-0.075 0-0.223-0.001-0.296-0.295-0.001-0.591-0.001-0.888-0.001M14.812 16.702c0 0.075-0.001 0.223-0.001 0.298 0.332 0 0.662 0 0.994 0 0-0.075 0-0.223 0-0.296-0.33-0.001-0.662-0.001-0.993-0.001M16.24 16.702c0 0.075 0.001 0.223 0.001 0.298 0.3 0 0.602 0 0.904 0 0-0.075 0-0.223 0-0.296-0.302-0.001-0.603-0.001-0.905-0.001M17.519 16.703c0 0.073 0 0.222 0 0.296 0.211 0 0.422 0 0.633 0 0-0.075 0-0.223 0-0.296-0.211-0.001-0.422-0.001-0.633 0M4.241 19.565c0.013 0.067 0.039 0.201 0.051 0.268 0.165-0.001 0.33-0.003 0.496-0.003 0.001-0.076 0.005-0.227 0.007-0.303-0.185 0.010-0.369 0.022-0.553 0.038M5.116 19.536c0 0.073-0.001 0.22-0.001 0.294 0.321 0 0.644 0.001 0.965 0.001 0.001-0.1 0.003-0.197 0.005-0.295-0.324-0.001-0.647 0-0.969 0M6.546 19.536c0 0.073 0 0.22 0 0.295 0.323 0 0.644 0 0.967-0.001 0-0.098 0-0.197 0-0.294-0.323-0.001-0.645-0.001-0.967 0M8.004 19.536c0 0.073 0 0.22 0 0.294 0.323 0 0.644 0.001 0.967 0.001 0-0.1 0.001-0.198 0.001-0.295-0.323-0.001-0.645 0-0.968 0M9.342 19.536c0 0.073 0.001 0.22 0.001 0.295 0.323 0 0.644-0.001 0.967-0.001 0.001-0.073 0.001-0.22 0.001-0.294-0.323 0-0.647-0.001-0.969 0M10.713 19.831c0.321 0 0.644-0.001 0.965 0 0-0.075 0-0.222 0-0.295-0.321-0.001-0.644-0.001-0.965 0 0 0.098 0 0.195 0 0.295M12.109 19.538c0.001 0.073 0.004 0.219 0.005 0.292 0.323 0 0.644-0.001 0.967-0.001 0-0.073-0.001-0.222-0.001-0.295-0.324 0-0.648 0.001-0.97 0.004M13.466 19.83c0.321 0.001 0.644 0.001 0.967 0.001 0-0.075 0-0.222 0-0.295-0.321-0.001-0.644-0.001-0.965 0-0.001 0.097-0.001 0.195-0.001 0.294M14.897 19.831c0.323 0 0.644 0 0.967-0.001 0-0.073 0-0.22 0-0.294-0.323-0.001-0.647-0.001-0.969 0 0 0.098 0.001 0.195 0.003 0.295M16.25 19.536c0 0.073 0 0.22 0 0.295 0.321 0 0.643 0 0.965-0.001 0-0.098 0-0.195 0-0.294-0.323-0.001-0.644-0.001-0.965 0M17.617 19.536c0.001 0.073 0.001 0.22 0.001 0.294 0.323 0.001 0.644 0.001 0.967 0.001 0.001-0.075 0.003-0.222 0.003-0.295-0.324-0.001-0.647-0.001-0.971 0M19.032 19.536c0 0.073 0 0.222 0 0.295 0.188-0.001 0.375-0.001 0.564-0.001 0-0.098 0-0.197 0-0.295-0.189 0-0.376 0.001-0.564 0.001z"></path>
<path fill="#030303" d="M11.134 7.343c-0.094-0.609 0.771-0.906 1.134-0.458 0.379 0.471 0.090 1.092-0.168 1.548 0.258 0.052 0.552 0.026 0.78 0.182 0.282 0.677 0.369 1.422 0.678 2.089 0.506 0.717 1.319 1.138 1.92 1.76 0.012 0.067 0.037 0.201 0.049 0.266-0.21 0.132-0.401-0.070-0.577-0.156-0.452-0.292-0.952-0.509-1.38-0.837-0.308-0.319-0.527-0.711-0.817-1.045-0.024 0.46-0.039 0.925 0.009 1.385 0.214 1.579 1.159 2.998 1.104 4.624 0.189 0 0.378 0 0.567 0.001 0 0.073 0 0.222 0 0.295-0.193 0.001-0.384 0.003-0.577 0.004 0.037 0.237 0.076 0.476 0.132 0.71 0.277 0.030 0.553 0.063 0.83 0.106-0.421 0.425-1.153 0.685-1.708 0.401-0.104-0.397-0.097-0.813-0.16-1.217-0.253-0.003-0.506-0.003-0.759-0.004 0-0.073 0-0.222 0-0.295 0.244-0.001 0.487-0.001 0.731-0.003-0.076-0.378-0.176-0.753-0.361-1.094-0.355-0.682-0.639-1.405-1.052-2.056-0.658 1.058-1.149 2.237-2.012 3.158 0.282-0.005 0.565-0.007 0.847-0.007 0 0.073 0 0.223-0.001 0.298-0.334 0-0.669 0-1.003-0.001 0.155 0.464 0.439 0.87 0.584 1.339-0.555-0.21-1.064-0.539-1.537-0.89 0.017-0.117 0.054-0.348 0.072-0.463-0.111 0.005-0.332 0.017-0.442 0.022-0.001-0.075-0.005-0.227-0.007-0.303 0.22 0 0.441-0.001 0.661-0.001 0.805-1.187 1.233-2.564 1.816-3.862 0.464-0.829 0.315-1.819 0.303-2.729-0.254 0.303-0.426 0.668-0.517 1.052-0.090 0.438 0.067 0.871 0.083 1.306-0.122 0.282-0.332 0.515-0.544 0.733 0.051-0.366 0.209-0.74 0.096-1.111-0.111-0.518-0.307-1.057-0.139-1.587 0.207-0.885 0.805-1.666 1.651-2.024 0.113-0.405-0.367-0.712-0.287-1.137z"></path>
<path fill="#030303" d="M5.567 16.703c0.173-0.001 0.349-0.001 0.523-0.001 0 0.075 0 0.223 0 0.298-0.174 0-0.349 0-0.523 0 0-0.075 0-0.223 0-0.296z"></path>
<path fill="#030303" d="M6.771 16.703c0.323-0.001 0.644-0.001 0.967-0.001 0 0.075 0 0.223 0 0.298-0.323 0-0.644 0-0.965 0-0.001-0.075-0.001-0.223-0.001-0.296z"></path>
<path fill="#030303" d="M10.87 16.702c0.296 0 0.593 0 0.888 0.001 0.001 0.073 0.001 0.222 0.001 0.296-0.296 0-0.593 0-0.889 0 0-0.075 0-0.223 0-0.298z"></path>
<path fill="#030303" d="M14.812 16.702c0.33 0 0.662 0 0.993 0.001 0 0.073 0 0.222 0 0.296-0.332 0-0.662 0-0.994 0 0-0.075 0.001-0.223 0.001-0.298z"></path>
<path fill="#030303" d="M16.24 16.702c0.302 0 0.603 0 0.905 0.001 0 0.073 0 0.222 0 0.296-0.302 0-0.603 0-0.904 0 0-0.075-0.001-0.223-0.001-0.298z"></path>
<path fill="#030303" d="M17.519 16.703c0.211-0.001 0.422-0.001 0.633 0 0 0.073 0 0.222 0 0.296-0.211 0-0.422 0-0.633 0 0-0.075 0-0.223 0-0.296z"></path>
<path fill="#030303" d="M4.241 19.565c0.185-0.016 0.369-0.028 0.553-0.038-0.001 0.076-0.005 0.227-0.007 0.303-0.165 0-0.33 0.001-0.496 0.003-0.012-0.067-0.038-0.201-0.051-0.268z"></path>
<path fill="#030303" d="M5.116 19.536c0.323 0 0.645-0.001 0.969 0-0.003 0.098-0.004 0.195-0.005 0.295-0.321 0-0.644-0.001-0.965-0.001 0-0.073 0.001-0.22 0.001-0.294z"></path>
<path fill="#030303" d="M6.546 19.536c0.321-0.001 0.644-0.001 0.967 0 0 0.097 0 0.195 0 0.294-0.323 0.001-0.644 0.001-0.967 0.001 0-0.075 0-0.222 0-0.295z"></path>
<path fill="#030303" d="M8.004 19.536c0.323 0 0.645-0.001 0.968 0 0 0.097-0.001 0.195-0.001 0.295-0.323 0-0.644-0.001-0.967-0.001 0-0.073 0-0.22 0-0.294z"></path>
<path fill="#030303" d="M9.342 19.536c0.323-0.001 0.647 0 0.969 0 0 0.073 0 0.22-0.001 0.294-0.323 0-0.644 0.001-0.967 0.001 0-0.075-0.001-0.222-0.001-0.295z"></path>
<path fill="#030303" d="M10.713 19.831c0-0.1 0-0.197 0-0.295 0.321-0.001 0.644-0.001 0.965 0 0 0.073 0 0.22 0 0.295-0.321-0.001-0.644 0-0.965 0z"></path>
<path fill="#030303" d="M12.109 19.538c0.323-0.003 0.647-0.004 0.97-0.004 0 0.073 0.001 0.222 0.001 0.295-0.323 0-0.644 0.001-0.967 0.001-0.001-0.073-0.004-0.219-0.005-0.292z"></path>
<path fill="#030303" d="M13.466 19.83c0-0.098 0-0.197 0.001-0.294 0.321-0.001 0.644-0.001 0.965 0 0 0.073 0 0.22 0 0.295-0.323 0-0.645 0-0.967-0.001z"></path>
<path fill="#030303" d="M14.897 19.831c-0.001-0.1-0.003-0.197-0.003-0.295 0.323-0.001 0.647-0.001 0.969 0 0 0.073 0 0.22 0 0.294-0.323 0.001-0.644 0.001-0.967 0.001z"></path>
<path fill="#030303" d="M16.25 19.536c0.321-0.001 0.643-0.001 0.965 0 0 0.098 0 0.195 0 0.294-0.323 0.001-0.644 0.001-0.965 0.001 0-0.075 0-0.222 0-0.295z"></path>
<path fill="#030303" d="M17.617 19.536c0.324-0.001 0.647-0.001 0.971 0 0 0.073-0.001 0.22-0.003 0.295-0.323 0-0.644 0-0.967-0.001 0-0.073 0-0.22-0.001-0.294z"></path>
<path fill="#030303" d="M19.032 19.536c0.188 0 0.375-0.001 0.564-0.001 0 0.098 0 0.197 0 0.295-0.189 0-0.376 0-0.564 0.001 0-0.073 0-0.222 0-0.295z"></path>
</svg>
