<?xml version="1.0" encoding="utf-8"?>
<!-- Generated by IcoMoon.io -->
<!DOCTYPE svg PUBLIC "-//W3C//DTD SVG 1.1//EN" "http://www.w3.org/Graphics/SVG/1.1/DTD/svg11.dtd">
<svg version="1.1" xmlns="http://www.w3.org/2000/svg" xmlns:xlink="http://www.w3.org/1999/xlink" width="24" height="24" viewBox="0 0 24 24">
<path fill="#1f1917" d="M11.705 1.5h0.709c-0.068 0.034-0.204 0.102-0.272 0.136-0.323-0.061-0.643 0.14-0.778 0.43-0.23 0.43-0.523 0.832-0.709 1.283l-0.196 0.066c0.263-0.548 0.589-1.070 0.906-1.59 0.048-0.184 0.364-0.133 0.34-0.324z"></path>
<path fill="#1f1917" d="M12.374 1.668l0.214 0.049c3.823 6.584 7.61 13.195 11.412 19.789v0.49c-0.113 0.154-0.346 0.302-0.338 0.504h-23.252c-0.090-0.131-0.232-0.361-0.409-0.34v-0.646c0.902-1.657 1.908-3.259 2.794-4.924l0.161-0.030c-0.86 1.65-1.868 3.235-2.761 4.874-0.235 0.425 0.157 1 0.637 0.946 7.447-0.001 14.893 0 22.34-0.001 0.528 0.047 0.889-0.625 0.571-1.049-3.673-6.407-7.367-12.802-11.057-19.199-0.078-0.173-0.232-0.293-0.311-0.464z"></path>
<path fill="#1f1917" d="M9.326 5.286c0.398-0.589 0.709-1.235 1.093-1.834 0.038 0.004 0.115 0.013 0.154 0.018-0.439 0.64-0.761 1.358-1.201 1.994l-0.046-0.179z"></path>
<path fill="#1f1917" d="M9.163 5.574l0.145-0.038-0.035 0.166c-0.484 0.726-0.842 1.555-1.357 2.243l-0.030-0.16c0.448-0.722 0.876-1.462 1.277-2.21z"></path>
<path fill="#1f1917" d="M7.53 8.432c0.132-0.116 0.088-0.451 0.341-0.376-0.384 0.733-0.803 1.476-1.256 2.165l-0.046-0.157c0.346-0.528 0.635-1.091 0.961-1.632z"></path>
<path fill="#1f1917" d="M11.231 11.576c0.481-0.558 1.037-1.126 1.595-1.596 0.505 0.51 1.013 1.019 1.519 1.528 0.055 2.538-0.005 5.088 0.029 7.63l-0.077-0.014c-0.504-0.486-0.986-0.996-1.483-1.489-0.515 0.457-0.988 0.972-1.47 1.466-0.031 0.006-0.094 0.016-0.125 0.020 0.026-0.631 0.010-1.265 0.010-1.897-1.020-1.114-2.148-2.14-3.181-3.236 0.346-0.419 0.767-0.799 1.162-1.181 0.691 0.661 1.339 1.368 2.041 2.015-0.043-1.080-0.006-2.164-0.019-3.245z"></path>
<path fill="#1f1917" d="M6.394 10.351l0.16-0.016c-0.384 0.746-0.82 1.478-1.259 2.196l-0.052-0.18c0.407-0.652 0.802-1.316 1.151-2z"></path>
<path fill="#1f1917" d="M5.071 12.641l0.157-0.036c-0.245 0.611-0.673 1.144-0.944 1.748l-0.157 0.089c0.198-0.637 0.685-1.175 0.944-1.801z"></path>
<path fill="#1f1917" d="M4.018 14.49c0.037 0.008 0.114 0.025 0.151 0.034-0.397 0.647-0.743 1.328-1.156 1.964l-0.050-0.178c0.379-0.59 0.719-1.205 1.055-1.82z"></path>
<path fill="#fff" d="M11.364 2.065c0.134-0.289 0.455-0.491 0.778-0.43 0.074 0.026 0.152 0.037 0.233 0.032 0.079 0.172 0.233 0.292 0.311 0.464 3.69 6.397 7.384 12.792 11.057 19.199 0.318 0.424-0.043 1.096-0.571 1.049-7.447 0.001-14.893 0-22.34 0.001-0.48 0.054-0.872-0.521-0.637-0.946 0.893-1.639 1.901-3.224 2.761-4.874 0.016-0.018 0.044-0.055 0.059-0.073 0.413-0.636 0.758-1.318 1.156-1.964-0.011-0.020-0.031-0.061-0.042-0.082l0.157-0.089c0.271-0.605 0.7-1.138 0.944-1.748 0.017-0.018 0.049-0.055 0.066-0.073 0.439-0.718 0.875-1.45 1.259-2.196 0.004-0.023 0.012-0.067 0.016-0.089l0.046-0.025c0.454-0.689 0.872-1.432 1.256-2.165 0.012-0.029 0.035-0.085 0.046-0.113 0.515-0.688 0.874-1.517 1.357-2.243l0.035-0.166c0.016-0.018 0.048-0.053 0.064-0.071 0.44-0.636 0.762-1.355 1.201-1.994-0.029-0.014-0.085-0.042-0.114-0.056l0.196-0.066c0.186-0.451 0.479-0.853 0.709-1.283M11.892 2.005c-0.138 0.060-0.185 0.221-0.265 0.336-3.684 6.39-7.376 12.775-11.065 19.163-0.19 0.197-0.012 0.565 0.264 0.515 7.45-0.002 14.899 0.013 22.35 0.010 0.222 0.025 0.419-0.252 0.289-0.446-3.695-6.456-7.414-12.9-11.126-19.346-0.078-0.17-0.251-0.318-0.446-0.23z"></path>
<path fill="#fff" d="M3.146 20.318c2.962-5.104 5.906-10.217 8.858-15.326 2.87 4.968 5.731 9.941 8.591 14.915 0.078 0.156 0.202 0.289 0.246 0.463-5.788-0.014-11.576-0.001-17.364-0.007-0.083-0.011-0.248-0.034-0.331-0.044M11.231 11.576c0.013 1.081-0.024 2.165 0.019 3.245-0.702-0.647-1.35-1.354-2.041-2.015-0.395 0.382-0.816 0.762-1.162 1.181 1.033 1.097 2.161 2.123 3.181 3.236 0 0.632 0.017 1.266-0.010 1.897 0.031-0.005 0.094-0.014 0.125-0.020 0.482-0.494 0.955-1.009 1.47-1.466 0.497 0.493 0.979 1.003 1.483 1.489l0.077 0.014c-0.034-2.542 0.026-5.092-0.029-7.63-0.506-0.509-1.014-1.018-1.519-1.528-0.558 0.47-1.114 1.038-1.595 1.596z"></path>
<path fill="#da271d" d="M11.892 2.005c0.196-0.088 0.368 0.060 0.446 0.23 3.713 6.446 7.432 12.89 11.126 19.346 0.13 0.194-0.067 0.472-0.289 0.446-7.451 0.004-14.9-0.012-22.35-0.010-0.276 0.050-0.454-0.318-0.264-0.515 3.689-6.388 7.381-12.773 11.065-19.163 0.080-0.115 0.127-0.276 0.265-0.336M3.146 20.318c0.083 0.011 0.248 0.034 0.331 0.044 5.788 0.006 11.576-0.007 17.364 0.007-0.044-0.174-0.168-0.307-0.246-0.463-2.86-4.974-5.72-9.947-8.591-14.915-2.952 5.11-5.897 10.223-8.858 15.326z"></path>
</svg>
