<!-- Generated by IcoMoon.io -->
<svg version="1.1" xmlns="http://www.w3.org/2000/svg" width="24" height="24" viewBox="0 0 24 24">
<title>warning--trail-crossing--g6</title>
<path fill="#dbc10e" opacity="0.86" d="M11.68 0h0.604c0.272 0.139 0.524 0.316 0.74 0.532 3.238 3.244 6.481 6.482 9.721 9.722 0.451 0.464 0.982 0.881 1.255 1.484v0.422c-0.11 0.29-0.264 0.566-0.487 0.785-3.526 3.52-7.046 7.043-10.567 10.566-0.218 0.218-0.49 0.372-0.774 0.488h-0.326c-0.298-0.103-0.581-0.252-0.802-0.478-3.52-3.524-7.042-7.045-10.565-10.566-0.192-0.194-0.347-0.421-0.479-0.658v-0.604c0.272-0.59 0.797-0.998 1.24-1.454 3.221-3.221 6.445-6.438 9.661-9.664 0.229-0.229 0.491-0.426 0.779-0.577M11.676 0.286c-0.21 0.090-0.374 0.256-0.539 0.41-3.512 3.529-7.045 7.040-10.564 10.566-0.42 0.352-0.452 1.028-0.034 1.396 3.578 3.582 7.165 7.158 10.745 10.74 0.366 0.438 1.058 0.432 1.417-0.012 3.576-3.587 7.169-7.157 10.745-10.744 0.414-0.362 0.376-1.016-0.030-1.368-3.538-3.547-7.091-7.080-10.627-10.628-0.276-0.305-0.702-0.53-1.114-0.36z"></path>
<path fill="#000" d="M11.676 0.286c0.412-0.17 0.838 0.055 1.114 0.36 3.536 3.548 7.090 7.081 10.627 10.628 0.406 0.352 0.444 1.006 0.030 1.368-3.576 3.587-7.169 7.157-10.745 10.744-0.359 0.444-1.051 0.45-1.417 0.012-3.58-3.582-7.166-7.158-10.745-10.74-0.419-0.367-0.386-1.044 0.034-1.396 3.518-3.526 7.051-7.037 10.564-10.566 0.164-0.155 0.329-0.32 0.539-0.41M11.794 0.731c-3.667 3.535-7.219 7.2-10.843 10.784-0.306 0.224-0.355 0.647-0.032 0.884 3.499 3.502 7.012 6.991 10.502 10.501 0.221 0.256 0.606 0.576 0.899 0.224 3.59-3.574 7.17-7.159 10.753-10.74 0.263-0.205 0.294-0.584 0.019-0.796-3.509-3.53-7.042-7.039-10.554-10.568-0.193-0.179-0.463-0.475-0.744-0.29z"></path>
<path fill="#000" d="M9.703 5.017c-0.067-0.302 0.007-0.593 0.223-0.818 0.151 0.125 0.3 0.252 0.449 0.378-0.102 0.145-0.203 0.292-0.302 0.438 0.17 0.382 0.248 0.791 0.298 1.204 0.144 0.089 0.288 0.176 0.433 0.263 0.606-0.514 1.316-0.858 2.126-0.823-0.032 0.56 0.006 1.122 0.031 1.684-0.084 0.008-0.251 0.025-0.335 0.034-0.109-0.199-0.221-0.397-0.34-0.59-0.234 0.451-0.422 0.928-0.476 1.436 0.445 0.474 0.701 1.074 0.943 1.668-0.112 0.167-0.223 0.332-0.343 0.494 0.128-0.772-0.284-1.432-0.902-1.853-0.206 0.596-0.9 1.163-0.532 1.825-0.157 0.016-0.316 0.029-0.473 0.040 0.104-0.643 0.301-1.266 0.454-1.898-0.732 0.082-1.45-0.035-2.158-0.205-0.449 0.7-0.204 1.538 0.401 2.047-0.118 0.007-0.352 0.024-0.468 0.032-0.283-0.552-0.624-1.139-0.528-1.782-0.786 0.268-0.593 1.164-1.027 1.696-0.070-0.143-0.136-0.288-0.197-0.434 0.468-0.36 0.292-1.024 0.606-1.483-0.091-0.462-0.1-0.931-0.104-1.399-0.271 0.556-0.178 1.666-1.078 1.546 0.439-0.458 0.449-1.147 0.839-1.622 0.696-0.151 1.411-0.337 2.124-0.168-0.050-0.59 0.013-1.195 0.336-1.706M10.236 6.532c-0.156 0.156 0.13 0.377 0.269 0.233 0.161-0.156-0.128-0.372-0.269-0.233z"></path>
<path fill="#000" d="M14.908 5.405c0.408-0.161 0.617 0.532 0.203 0.629-0.378 0.149-0.586-0.503-0.203-0.629z"></path>
<path fill="#000" d="M15.746 5.857c0.169-0.050 0.343-0.091 0.518-0.118 0.173 0.523 0.485 1.097 0.202 1.639-0.281-0.487-0.518-0.997-0.72-1.522z"></path>
<path fill="#000" d="M15.16 6.802c-0.187-0.371 0.174-0.618 0.433-0.811 0.336 0.776 1.073 1.495 0.87 2.4-0.136 0.628 0.176 1.199 0.329 1.787-0.558-0.414-0.791-1.121-0.895-1.781-0.562 0.436-0.626 1.216-1.15 1.664-0.041-1.066 0.983-1.76 0.94-2.815-0.23 0.337-0.534 0.625-0.938 0.732 0.227-0.364 0.646-0.706 0.412-1.176z"></path>
<path fill="#000" d="M3.976 11.923c0.077 0.001 0.23 0.005 0.308 0.007 0.296 0.503 0.588 1.008 0.892 1.507 0.005-0.503 0.004-1.006 0.004-1.508 0.094 0 0.282-0.001 0.376-0.001-0.004 0.812 0.016 1.626-0.014 2.438-0.649-0.287-0.798-1.078-1.2-1.606-0.005 0.506-0.004 1.013-0.004 1.519-0.091 0-0.274 0-0.365 0 0.001-0.786-0.002-1.571 0.004-2.357z"></path>
<path fill="#000" d="M6.968 11.927c0.090 0 0.268-0.001 0.356-0.002 0.276 0.785 0.544 1.571 0.812 2.358-0.13-0.002-0.258-0.005-0.386-0.006-0.073-0.223-0.149-0.446-0.222-0.668-0.252 0-0.504 0-0.756 0.001-0.070 0.223-0.142 0.446-0.211 0.671-0.098-0.001-0.296-0.001-0.395-0.001 0.265-0.785 0.532-1.568 0.802-2.352M7.144 12.551c-0.078 0.232-0.155 0.464-0.23 0.697 0.119 0 0.358-0.001 0.476-0.002-0.082-0.232-0.163-0.463-0.246-0.695z"></path>
<path fill="#000" d="M8.514 11.928c0.478 0 0.955 0 1.434 0 0 0.086 0 0.258 0.001 0.344-0.18 0.001-0.36 0.002-0.54 0.005 0.001 0.668 0.001 1.336 0.001 2.004-0.089 0-0.265 0-0.354 0 0.001-0.668 0-1.336 0.002-2.004-0.182-0.002-0.364-0.004-0.545-0.005 0-0.085 0-0.258 0-0.344z"></path>
<path fill="#000" d="M10.526 11.936c0.122-0.006 0.245-0.012 0.368-0.018 0.006 0.788 0.002 1.576 0.004 2.364-0.094 0-0.278-0.001-0.371-0.001-0.001-0.781 0-1.564-0.001-2.345z"></path>
<path fill="#000" d="M12.048 11.935c1.015-0.329 1.315 1.046 1.060 1.765-0.091 0.708-1.18 0.865-1.438 0.191-0.22-0.619-0.287-1.589 0.378-1.956M12.274 12.269c-0.509 0.188-0.385 0.908-0.316 1.336 0.065 0.469 0.784 0.444 0.793-0.042 0.070-0.431 0.155-1.312-0.478-1.294z"></path>
<path fill="#000" d="M13.811 11.922c0.078 0.002 0.233 0.007 0.31 0.010 0.295 0.502 0.586 1.007 0.89 1.504 0.006-0.506 0.004-1.012 0.008-1.517 0.124 0.006 0.248 0.013 0.373 0.020-0.007 0.809 0.012 1.616-0.014 2.425-0.653-0.281-0.8-1.076-1.202-1.603-0.005 0.506-0.004 1.013-0.004 1.519-0.091 0-0.272 0-0.364 0 0-0.786-0.004-1.572 0.002-2.358z"></path>
<path fill="#000" d="M16.804 11.927c0.090 0 0.27 0 0.359 0 0.274 0.785 0.541 1.57 0.81 2.356-0.13-0.002-0.258-0.005-0.386-0.006-0.074-0.223-0.148-0.445-0.222-0.668-0.252 0-0.504 0-0.756 0.001-0.070 0.223-0.142 0.446-0.211 0.67-0.132 0-0.265 0.001-0.396 0.002 0.268-0.785 0.533-1.571 0.803-2.354M16.747 13.247c0.119 0 0.358 0 0.478 0-0.082-0.233-0.162-0.464-0.244-0.696-0.079 0.232-0.157 0.463-0.234 0.696z"></path>
<path fill="#000" d="M18.589 11.929c0.089-0.001 0.268-0.002 0.358-0.002 0.001 0.668 0 1.338 0.001 2.008 0.358 0 0.716 0 1.074 0.001 0.001 0.085 0.002 0.257 0.002 0.342-0.479 0.005-0.958 0.005-1.436 0.004 0-0.784-0.001-1.568 0.001-2.352z"></path>
<path fill="#000" d="M7.372 15.412c0.481-0.001 0.962-0.001 1.444-0.001-0.001 0.086-0.004 0.259-0.006 0.346-0.178 0.001-0.356 0.002-0.535 0.002 0.001 0.668 0.001 1.337 0.001 2.006-0.089-0.001-0.265-0.001-0.354-0.001 0-0.668 0-1.337 0.001-2.005-0.18-0.001-0.36-0.001-0.54-0.002-0.004-0.115-0.007-0.229-0.011-0.344z"></path>
<path fill="#000" d="M9.392 15.403c0.484 0.040 1.189-0.157 1.447 0.394 0.186 0.332-0.076 0.65-0.265 0.906 0.132 0.353 0.266 0.704 0.4 1.056-0.096 0-0.289 0.001-0.386 0.001-0.128-0.344-0.256-0.689-0.385-1.033-0.151 0-0.301 0.001-0.451 0.001-0.001 0.343 0 0.688-0.001 1.032-0.090 0-0.269 0-0.358 0 0-0.786-0.001-1.571 0-2.357M9.758 15.738c-0.004 0.214-0.006 0.427-0.007 0.641 0.264-0.064 0.743 0.071 0.785-0.31 0.002-0.391-0.521-0.265-0.778-0.331z"></path>
<path fill="#000" d="M12.21 15.414c0.12-0.005 0.24-0.010 0.36-0.013 0.277 0.784 0.542 1.571 0.811 2.358-0.095 0-0.287 0.001-0.382 0.001-0.074-0.224-0.15-0.448-0.223-0.671-0.253-0.001-0.504-0.001-0.756-0.001-0.071 0.223-0.142 0.445-0.211 0.668-0.132 0.002-0.265 0.004-0.397 0.005 0.265-0.784 0.533-1.565 0.798-2.347M12.158 16.726c0.12 0.001 0.359 0.002 0.478 0.002-0.080-0.23-0.162-0.46-0.244-0.689-0.078 0.228-0.156 0.457-0.234 0.686z"></path>
<path fill="#000" d="M13.999 15.416c0.091-0.002 0.276-0.008 0.368-0.011 0.004 0.786 0.001 1.572 0.002 2.358-0.092 0-0.277 0-0.371 0.001-0.001-0.784 0-1.566 0-2.348z"></path>
<path fill="#000" d="M15.182 15.412c0.089 0 0.269 0 0.358 0 0 0.668 0 1.337 0 2.005 0.359 0.001 0.718 0 1.076 0.001 0 0.086 0 0.259 0 0.346-0.478 0.001-0.956 0.001-1.434 0-0.001-0.785 0-1.568 0-2.352z"></path>
<path fill="#fee011" d="M11.794 0.731c0.281-0.185 0.551 0.112 0.744 0.29 3.512 3.529 7.045 7.038 10.554 10.568 0.275 0.211 0.244 0.59-0.019 0.796-3.583 3.581-7.163 7.166-10.753 10.74-0.293 0.352-0.678 0.031-0.899-0.224-3.491-3.51-7.003-7-10.502-10.501-0.323-0.238-0.274-0.66 0.032-0.884 3.624-3.584 7.176-7.249 10.843-10.784M9.703 5.017c-0.323 0.511-0.386 1.116-0.336 1.706-0.713-0.169-1.428 0.017-2.124 0.168-0.39 0.475-0.4 1.164-0.839 1.622 0.9 0.12 0.806-0.99 1.078-1.546 0.005 0.468 0.013 0.937 0.104 1.399-0.314 0.46-0.138 1.123-0.606 1.483 0.061 0.146 0.127 0.292 0.197 0.434 0.434-0.532 0.241-1.428 1.027-1.696-0.096 0.643 0.245 1.23 0.528 1.782 0.116-0.008 0.35-0.025 0.468-0.032-0.605-0.509-0.85-1.348-0.401-2.047 0.708 0.17 1.426 0.287 2.158 0.205-0.152 0.632-0.349 1.255-0.454 1.898 0.157-0.011 0.316-0.024 0.473-0.040-0.368-0.662 0.325-1.229 0.532-1.825 0.618 0.421 1.031 1.081 0.902 1.853 0.12-0.162 0.232-0.328 0.343-0.494-0.242-0.594-0.498-1.194-0.943-1.668 0.054-0.509 0.242-0.985 0.476-1.436 0.119 0.193 0.23 0.391 0.34 0.59 0.084-0.008 0.251-0.025 0.335-0.034-0.025-0.562-0.064-1.123-0.031-1.684-0.81-0.035-1.52 0.31-2.126 0.823-0.145-0.086-0.289-0.174-0.433-0.263-0.049-0.413-0.127-0.822-0.298-1.204 0.1-0.146 0.2-0.293 0.302-0.438-0.149-0.126-0.298-0.253-0.449-0.378-0.216 0.226-0.29 0.516-0.223 0.818M14.908 5.405c-0.383 0.126-0.175 0.778 0.203 0.629 0.414-0.097 0.205-0.79-0.203-0.629M15.746 5.857c0.202 0.524 0.439 1.034 0.72 1.522 0.283-0.542-0.029-1.116-0.202-1.639-0.175 0.026-0.349 0.067-0.518 0.118M15.16 6.802c0.234 0.47-0.185 0.812-0.412 1.176 0.404-0.107 0.708-0.395 0.938-0.732 0.043 1.055-0.98 1.75-0.94 2.815 0.523-0.449 0.588-1.229 1.15-1.664 0.104 0.66 0.337 1.367 0.895 1.781-0.152-0.588-0.464-1.159-0.329-1.787 0.203-0.905-0.534-1.624-0.87-2.4-0.259 0.193-0.62 0.44-0.433 0.811M3.976 11.923c-0.006 0.786-0.002 1.571-0.004 2.357 0.091 0 0.274 0 0.365 0 0-0.506-0.001-1.013 0.004-1.519 0.402 0.528 0.551 1.319 1.2 1.606 0.030-0.812 0.011-1.626 0.014-2.438-0.094 0-0.282 0.001-0.376 0.001 0 0.503 0.001 1.006-0.004 1.508-0.304-0.499-0.595-1.004-0.892-1.507-0.078-0.002-0.232-0.006-0.308-0.007M6.968 11.927c-0.27 0.784-0.536 1.567-0.802 2.352 0.098 0 0.296 0 0.395 0.001 0.070-0.224 0.142-0.448 0.211-0.671 0.252-0.001 0.504-0.001 0.756-0.001 0.073 0.222 0.149 0.445 0.222 0.668 0.128 0.001 0.257 0.004 0.386 0.006-0.269-0.787-0.536-1.573-0.812-2.358-0.089 0.001-0.266 0.002-0.356 0.002M8.514 11.928c0 0.086 0 0.259 0 0.344 0.181 0.001 0.362 0.002 0.545 0.005-0.002 0.668-0.001 1.336-0.002 2.004 0.089 0 0.265 0 0.354 0 0-0.668 0-1.336-0.001-2.004 0.18-0.002 0.36-0.004 0.54-0.005-0.001-0.086-0.001-0.258-0.001-0.344-0.479 0-0.956 0-1.434 0M10.526 11.936c0.001 0.781 0 1.564 0.001 2.345 0.092 0 0.277 0.001 0.371 0.001-0.001-0.788 0.002-1.576-0.004-2.364-0.124 0.006-0.246 0.012-0.368 0.018M12.048 11.935c-0.665 0.367-0.598 1.337-0.378 1.956 0.258 0.674 1.346 0.517 1.438-0.191 0.256-0.719-0.044-2.094-1.060-1.765M13.811 11.922c-0.006 0.786-0.002 1.572-0.002 2.358 0.091 0 0.272 0 0.364 0 0-0.506-0.001-1.013 0.004-1.519 0.402 0.527 0.55 1.322 1.202 1.603 0.026-0.809 0.007-1.616 0.014-2.425-0.125-0.007-0.25-0.014-0.373-0.020-0.005 0.505-0.002 1.010-0.008 1.517-0.305-0.497-0.595-1.002-0.89-1.504-0.077-0.002-0.232-0.007-0.31-0.010M16.804 11.927c-0.27 0.784-0.535 1.57-0.803 2.354 0.131-0.001 0.264-0.002 0.396-0.002 0.070-0.223 0.142-0.446 0.211-0.67 0.252-0.001 0.504-0.001 0.756-0.001 0.074 0.223 0.148 0.445 0.222 0.668 0.128 0.001 0.257 0.004 0.386 0.006-0.269-0.786-0.536-1.571-0.81-2.356-0.089 0-0.269 0-0.359 0M18.589 11.929c-0.002 0.784-0.001 1.568-0.001 2.352 0.479 0.001 0.958 0.001 1.436-0.004 0-0.085-0.001-0.257-0.002-0.342-0.358-0.001-0.716-0.001-1.074-0.001-0.001-0.67 0-1.339-0.001-2.008-0.090 0-0.269 0.001-0.358 0.002M7.372 15.412c0.004 0.115 0.007 0.229 0.011 0.344 0.18 0.001 0.36 0.001 0.54 0.002-0.001 0.668-0.001 1.337-0.001 2.005 0.089 0 0.265 0 0.354 0.001 0-0.67 0-1.338-0.001-2.006 0.179 0 0.358-0.001 0.535-0.002 0.002-0.086 0.005-0.259 0.006-0.346-0.481 0-0.962 0-1.444 0.001M9.392 15.403c-0.001 0.786 0 1.571 0 2.357 0.089 0 0.268 0 0.358 0 0.001-0.344 0-0.689 0.001-1.032 0.15 0 0.3-0.001 0.451-0.001 0.13 0.344 0.257 0.689 0.385 1.033 0.097 0 0.29-0.001 0.386-0.001-0.133-0.352-0.268-0.703-0.4-1.056 0.19-0.256 0.451-0.574 0.265-0.906-0.258-0.551-0.964-0.354-1.447-0.394M12.21 15.414c-0.265 0.782-0.533 1.564-0.798 2.347 0.132-0.001 0.265-0.002 0.397-0.005 0.070-0.223 0.14-0.445 0.211-0.668 0.252 0 0.503 0 0.756 0.001 0.073 0.223 0.149 0.446 0.223 0.671 0.095 0 0.287-0.001 0.382-0.001-0.269-0.787-0.534-1.574-0.811-2.358-0.12 0.004-0.24 0.008-0.36 0.013M13.999 15.416c0 0.782-0.001 1.565 0 2.348 0.094-0.001 0.278-0.001 0.371-0.001-0.001-0.786 0.001-1.572-0.002-2.358-0.092 0.002-0.277 0.008-0.368 0.011M15.182 15.412c0 0.784-0.001 1.567 0 2.352 0.478 0.001 0.956 0.001 1.434 0 0-0.086 0-0.259 0-0.346-0.359-0.001-0.718 0-1.076-0.001 0-0.668 0-1.337 0-2.005-0.089 0-0.269 0-0.358 0z"></path>
<path fill="#fee011" d="M10.236 6.532c0.14-0.139 0.43 0.077 0.269 0.233-0.139 0.144-0.425-0.077-0.269-0.233z"></path>
<path fill="#fee011" d="M12.274 12.269c0.632-0.018 0.547 0.863 0.478 1.294-0.010 0.486-0.728 0.511-0.793 0.042-0.070-0.427-0.193-1.147 0.316-1.336z"></path>
<path fill="#fee011" d="M7.144 12.551c0.083 0.232 0.164 0.463 0.246 0.695-0.119 0.001-0.358 0.002-0.476 0.002 0.076-0.233 0.152-0.466 0.23-0.697z"></path>
<path fill="#fee011" d="M16.747 13.247c0.077-0.233 0.155-0.464 0.234-0.696 0.082 0.232 0.162 0.463 0.244 0.696-0.12 0-0.359 0-0.478 0z"></path>
<path fill="#fee011" d="M9.758 15.738c0.257 0.066 0.78-0.060 0.778 0.331-0.042 0.38-0.521 0.246-0.785 0.31 0.001-0.214 0.004-0.427 0.007-0.641z"></path>
<path fill="#fee011" d="M12.158 16.726c0.078-0.229 0.156-0.458 0.234-0.686 0.082 0.229 0.163 0.458 0.244 0.689-0.119 0-0.358-0.001-0.478-0.002z"></path>
</svg>
