<?xml version="1.0" encoding="utf-8"?>
<!-- Generated by IcoMoon.io -->
<!DOCTYPE svg PUBLIC "-//W3C//DTD SVG 1.1//EN" "http://www.w3.org/Graphics/SVG/1.1/DTD/svg11.dtd">
<svg version="1.1" xmlns="http://www.w3.org/2000/svg" xmlns:xlink="http://www.w3.org/1999/xlink" width="27" height="24" viewBox="0 0 27 24">
<path fill="#e22526" d="M26.21 23.985c1.028 0 1.449-0.729 0.935-1.62l-12.479-21.614c-0.514-0.891-1.356-0.891-1.87 0l-12.479 21.614c-0.514 0.891-0.094 1.62 0.935 1.62h24.958z"></path>
<path fill="#fff" d="M4.756 20.917h17.95l-8.975-15.545-8.975 15.545z"></path>
<path fill="#231f20" d="M15.177 17.777c-0.022 0.035-0.042 0.071-0.062 0.108-0.287 0.46-0.798 0.767-1.38 0.767s-1.093-0.306-1.38-0.767c-0.022-0.035-0.042-0.071-0.062-0.108-0.287-0.46-0.798-0.767-1.38-0.767s-1.093 0.306-1.38 0.767c-0.022 0.035-0.042 0.071-0.062 0.108-0.287 0.46-0.798 0.767-1.38 0.767v1.484h11.284l0.004-1.484c-0.582 0-1.093-0.306-1.38-0.767-0.019-0.037-0.040-0.073-0.062-0.108-0.287-0.46-0.798-0.767-1.38-0.767s-1.093 0.306-1.38 0.767z"></path>
</svg>
