<?xml version="1.0" encoding="utf-8"?>
<!-- Generated by IcoMoon.io -->
<!DOCTYPE svg PUBLIC "-//W3C//DTD SVG 1.1//EN" "http://www.w3.org/Graphics/SVG/1.1/DTD/svg11.dtd">
<svg version="1.1" xmlns="http://www.w3.org/2000/svg" xmlns:xlink="http://www.w3.org/1999/xlink" width="24" height="24" viewBox="0 0 24 24">
<path fill="#fee011" d="M11.855 0h0.247c0.307 0.049 0.589 0.193 0.804 0.42 3.56 3.553 7.12 7.11 10.676 10.669 0.233 0.217 0.382 0.509 0.418 0.827v0.199c-0.049 0.302-0.199 0.576-0.426 0.781-3.558 3.563-7.117 7.124-10.674 10.688-0.202 0.22-0.474 0.35-0.762 0.415h-0.27c-0.293-0.054-0.572-0.179-0.779-0.397-3.456-3.47-6.914-6.94-10.372-10.409-0.308-0.298-0.652-0.606-0.718-1.055v-0.254c0.056-0.56 0.533-0.905 0.894-1.282 3.377-3.383 6.756-6.762 10.132-10.147 0.222-0.235 0.509-0.398 0.829-0.456M11.666 0.278c-0.188 0.067-0.332 0.215-0.475 0.349-3.456 3.468-6.923 6.926-10.38 10.392-0.27 0.274-0.628 0.558-0.592 0.986-0.005 0.421 0.364 0.684 0.625 0.956 3.516 3.523 7.039 7.039 10.553 10.564 0.314 0.329 0.883 0.32 1.199-0.001 3.524-3.521 7.044-7.045 10.568-10.565 0.235-0.242 0.545-0.47 0.592-0.829 0.065-0.33-0.085-0.658-0.326-0.877-3.56-3.558-7.118-7.12-10.68-10.675-0.264-0.299-0.701-0.45-1.084-0.3z"></path>
<path fill="#fee011" d="M11.788 0.732c0.221-0.132 0.479-0.006 0.629 0.174 3.559 3.559 7.124 7.111 10.681 10.674 0.174 0.152 0.278 0.403 0.155 0.622-0.169 0.23-0.391 0.414-0.589 0.618-3.442 3.444-6.888 6.882-10.333 10.322-0.164 0.192-0.506 0.19-0.667-0.007-3.623-3.616-7.259-7.219-10.874-10.841-0.263-0.251-0.072-0.606 0.161-0.794 3.389-3.368 6.77-6.744 10.157-10.115 0.226-0.218 0.431-0.461 0.682-0.653M10.594 9.604c0.017 0.87-0.676 1.483-1.116 2.159-0.398 0.605-1.007 1.153-1.028 1.926-0.014 1.639-0.002 3.28-0.006 4.92 0.785 0 1.57 0 2.353-0.001 0.007-1.442-0.010-2.885 0.007-4.328 0.012-0.914 0.731-1.565 1.176-2.296 0.445 0.736 1.165 1.388 1.174 2.308 0.014 1.439 0.001 2.878 0.006 4.316 0.785 0.001 1.57 0.001 2.354 0 0-1.601 0.004-3.203-0.001-4.804 0.005-0.401-0.131-0.79-0.362-1.114-0.463-0.654-0.944-1.296-1.409-1.948-0.236-0.331-0.382-0.728-0.378-1.136-0.005-1.416 0.001-2.831-0.001-4.246-0.922-0.001-1.843 0-2.765-0.001-0.005 1.415 0.004 2.83-0.004 4.244z"></path>
<path fill="#000" d="M11.666 0.278c0.383-0.15 0.82 0.001 1.084 0.3 3.562 3.556 7.12 7.117 10.68 10.675 0.241 0.22 0.391 0.547 0.326 0.877-0.047 0.359-0.356 0.587-0.592 0.829-3.524 3.52-7.044 7.044-10.568 10.565-0.316 0.322-0.884 0.33-1.199 0.001-3.514-3.524-7.037-7.040-10.553-10.564-0.262-0.272-0.63-0.535-0.625-0.956-0.036-0.428 0.322-0.713 0.592-0.986 3.457-3.466 6.924-6.924 10.38-10.392 0.143-0.134 0.287-0.282 0.475-0.349M11.788 0.732c-0.251 0.192-0.456 0.434-0.682 0.653-3.386 3.371-6.768 6.746-10.157 10.115-0.233 0.188-0.424 0.544-0.161 0.794 3.616 3.622 7.252 7.225 10.874 10.841 0.161 0.197 0.503 0.199 0.667 0.007 3.445-3.44 6.892-6.878 10.333-10.322 0.198-0.204 0.42-0.388 0.589-0.618 0.124-0.218 0.019-0.469-0.155-0.622-3.557-3.563-7.122-7.115-10.681-10.674-0.15-0.18-0.408-0.306-0.629-0.174z"></path>
<path fill="#000" d="M10.594 9.604c0.007-1.415-0.001-2.83 0.004-4.244 0.922 0.001 1.843 0 2.765 0.001 0.002 1.415-0.004 2.83 0.001 4.246-0.004 0.408 0.142 0.805 0.378 1.136 0.464 0.652 0.946 1.294 1.409 1.948 0.232 0.324 0.367 0.713 0.362 1.114 0.005 1.601 0.001 3.203 0.001 4.804-0.785 0.001-1.57 0.001-2.354 0-0.005-1.439 0.008-2.878-0.006-4.316-0.008-0.919-0.728-1.572-1.174-2.308-0.445 0.731-1.164 1.381-1.176 2.296-0.017 1.444 0 2.886-0.007 4.328-0.784 0.001-1.568 0.001-2.353 0.001 0.004-1.64-0.008-3.281 0.006-4.92 0.022-0.773 0.63-1.321 1.028-1.926 0.44-0.676 1.133-1.289 1.116-2.159z"></path>
</svg>
