<!-- Generated by IcoMoon.io -->
<svg version="1.1" xmlns="http://www.w3.org/2000/svg" width="24" height="24" viewBox="0 0 24 24">
<title>warning--speed-camera--g1</title>
<path fill="#ffdb00" d="M11.723 0h0.511c0.295 0.124 0.571 0.294 0.796 0.526 3.478 3.486 6.962 6.965 10.445 10.446 0.23 0.227 0.397 0.508 0.526 0.804v0.407c-0.115 0.282-0.258 0.559-0.476 0.776-3.502 3.5-7.006 7-10.504 10.505-0.227 0.232-0.508 0.402-0.8 0.536h-0.425c-0.304-0.125-0.59-0.294-0.82-0.53-3.497-3.506-7.002-7.006-10.506-10.507-0.197-0.202-0.342-0.445-0.469-0.695v-0.51c0.222-0.606 0.75-1.004 1.184-1.453 3.26-3.26 6.524-6.52 9.781-9.784 0.218-0.218 0.479-0.388 0.757-0.521M11.575 0.409c-3.672 3.521-7.211 7.198-10.837 10.771-0.443 0.34-0.628 1.036-0.167 1.444 3.575 3.588 7.166 7.162 10.746 10.746 0.322 0.386 0.95 0.433 1.296 0.053 3.59-3.575 7.165-7.165 10.753-10.744 0.422-0.346 0.422-1.015 0.007-1.366-3.534-3.55-7.082-7.086-10.619-10.632-0.287-0.323-0.782-0.533-1.18-0.272z"></path>
<path fill="#ffdb00" d="M11.915 0.751c0.211-0.048 0.374 0.125 0.518 0.25 3.5 3.503 7.003 7.002 10.508 10.5 0.271 0.209 0.433 0.618 0.104 0.86-3.559 3.563-7.122 7.127-10.685 10.687-0.186 0.238-0.538 0.247-0.727 0.007-3.565-3.56-7.123-7.129-10.687-10.691-0.294-0.215-0.216-0.602 0.047-0.804 3.359-3.364 6.726-6.719 10.081-10.085 0.269-0.252 0.499-0.568 0.84-0.725M10.963 5.452c-2.502 0.359-4.676 2.296-5.341 4.732-0.632 2.182-0.042 4.667 1.524 6.316 1.34 1.463 3.365 2.257 5.341 2.099 2.142-0.149 4.163-1.414 5.23-3.278 1.111-1.872 1.193-4.301 0.222-6.248-1.214-2.558-4.182-4.103-6.976-3.619z"></path>
<path fill="#000" d="M11.575 0.409c0.397-0.26 0.893-0.050 1.18 0.272 3.536 3.546 7.085 7.082 10.619 10.632 0.415 0.35 0.415 1.020-0.007 1.366-3.588 3.578-7.163 7.169-10.753 10.744-0.346 0.38-0.974 0.334-1.296-0.053-3.58-3.584-7.171-7.158-10.746-10.746-0.461-0.408-0.276-1.104 0.167-1.444 3.626-3.574 7.165-7.25 10.837-10.771M11.915 0.751c-0.341 0.157-0.571 0.473-0.84 0.725-3.355 3.366-6.722 6.721-10.081 10.085-0.263 0.202-0.341 0.589-0.047 0.804 3.564 3.562 7.122 7.13 10.687 10.691 0.19 0.24 0.541 0.23 0.727-0.007 3.563-3.56 7.126-7.124 10.685-10.687 0.329-0.242 0.167-0.652-0.104-0.86-3.505-3.498-7.008-6.997-10.508-10.5-0.144-0.125-0.307-0.298-0.518-0.25z"></path>
<path fill="#000" d="M10.963 5.452c2.794-0.484 5.761 1.061 6.976 3.619 0.971 1.948 0.889 4.376-0.222 6.248-1.067 1.865-3.088 3.13-5.23 3.278-1.976 0.158-4.001-0.636-5.341-2.099-1.566-1.649-2.156-4.134-1.524-6.316 0.665-2.436 2.839-4.373 5.341-4.732M8.69 7.972c-0.232 0.655 1.141 0.625 0.751 1.237-0.331 0.277-0.592-0.244-0.859-0.391-0.061 0.636 0.816 0.958 1.138 0.406 0.47-0.736-1.442-0.889-0.506-1.432 0.176 0.157 0.356 0.311 0.547 0.45 0.041-0.625-0.858-0.88-1.070-0.27M10.048 7.625c-0.002 0.618-0.001 1.237-0.001 1.855 0.062 0 0.186 0 0.247 0 0-0.228 0-0.456-0.001-0.683 0.39-0.008 0.955-0.115 0.883-0.636-0.007-0.596-0.713-0.524-1.128-0.536M11.435 7.642c0.001 0.614 0 1.229 0 1.843 0.42-0.004 0.852 0.034 1.252-0.124-0.33-0.079-0.668-0.096-1.007-0.11 0.002-0.202 0.004-0.404 0.005-0.606 0.299-0.024 0.599-0.055 0.892-0.126-0.294-0.084-0.598-0.119-0.9-0.149 0.004-0.176 0.006-0.353 0.008-0.529 0.265-0.001 0.53-0.001 0.796-0.001l-0.002-0.199c-0.348 0-0.696 0-1.043 0.001M12.814 7.634c-0.002 0.617-0.001 1.234-0.001 1.849 0.408 0.001 0.817 0.005 1.22-0.061-0.289-0.194-0.644-0.148-0.973-0.164 0-0.214 0-0.427 0-0.641 0.245-0.001 0.49-0.002 0.733-0.004 0.002-0.050 0.007-0.15 0.010-0.199-0.247-0.004-0.494-0.007-0.743-0.010 0-0.18 0-0.36 0-0.541 0.317-0.014 0.638-0.042 0.932-0.174-0.39-0.054-0.786-0.054-1.178-0.055M14.165 7.616c-0.011 0.629-0.008 1.259-0.004 1.888 0.612 0.091 1.264-0.292 1.136-0.984 0.101-0.682-0.558-0.973-1.133-0.904M8.276 11.152c-0.443 0.391-0.468 1.214-0.086 1.655 0.354 0.324 0.826 0.043 0.985-0.335-0.25 0.077-0.481 0.28-0.752 0.251-0.352-0.407-0.331-1.184 0.133-1.51 0.182 0.145 0.366 0.289 0.553 0.427-0.018-0.409-0.46-0.756-0.833-0.488M9.791 11.051c-0.181 0.63-0.368 1.258-0.536 1.891 0.065-0.010 0.197-0.030 0.262-0.040 0.048-0.184 0.095-0.367 0.143-0.55 0.158 0.001 0.317 0.001 0.475 0.001 0.047 0.184 0.095 0.368 0.143 0.552 0.066 0.008 0.197 0.024 0.262 0.032-0.168-0.625-0.355-1.246-0.53-1.87-0.054-0.005-0.162-0.013-0.217-0.018M10.692 11.076c-0.004 0.617-0.005 1.234 0.002 1.852 0.052 0 0.156 0 0.208 0.001 0.007-0.392 0.007-0.785 0.035-1.177 0.103 0.431 0.18 0.869 0.325 1.289 0.179-0.425 0.246-0.883 0.365-1.326 0.019 0.404 0.013 0.81 0.016 1.216 0.054-0.001 0.16-0.005 0.212-0.007 0.004-0.616 0.004-1.231 0-1.847-0.082 0-0.247 0.001-0.33 0.001-0.080 0.397-0.158 0.794-0.252 1.188-0.092-0.394-0.172-0.791-0.251-1.188-0.083 0-0.247-0.001-0.33-0.001M12.125 11.075c-0.002 0.617-0.001 1.232 0 1.849 0.406-0.013 0.842 0.065 1.213-0.145-0.322-0.049-0.646-0.064-0.97-0.071 0.001-0.206 0.001-0.413 0.001-0.618 0.29-0.017 0.586-0.038 0.848-0.174-0.282-0.040-0.565-0.061-0.848-0.076 0-0.179-0.001-0.356-0.004-0.534 0.311-0.017 0.623-0.040 0.929-0.096-0.362-0.184-0.778-0.127-1.17-0.136M13.472 11.063c-0.006 0.629-0.008 1.259 0.006 1.888 0.060-0.014 0.18-0.044 0.239-0.059 0-0.258 0-0.516 0.001-0.773 0.071 0.004 0.211 0.012 0.282 0.017 0.12 0.252 0.242 0.503 0.364 0.755 0.068 0.018 0.205 0.052 0.274 0.070-0.116-0.263-0.236-0.523-0.356-0.784 0.192-0.24 0.433-0.559 0.233-0.87-0.248-0.304-0.697-0.197-1.042-0.244M14.766 12.946c0.065-0.012 0.196-0.035 0.262-0.046 0.046-0.181 0.092-0.362 0.139-0.544 0.156-0.002 0.313-0.006 0.47-0.008 0.050 0.186 0.101 0.372 0.152 0.558 0.065 0.008 0.194 0.026 0.259 0.035-0.19-0.668-0.354-1.346-0.602-1.997-0.392 0.598-0.469 1.331-0.68 2.002M9.312 16.514c0.157-0.227 0.282-0.472 0.395-0.722 0.096 0 0.289 0.001 0.385 0.001 0.096 0.253 0.205 0.509 0.422 0.684-0.131-0.715-0.283-1.453-0.654-2.087-0.234 0.69-0.527 1.386-0.548 2.124M10.717 14.508c0.011 0.666-0.062 1.339 0.073 1.997 0.176-0.317 0.18-0.682 0.227-1.031 0.373 0.256 0.468 0.749 0.853 0.992-0.092-0.295-0.215-0.58-0.344-0.86 0.161-0.218 0.401-0.469 0.275-0.764-0.173-0.424-0.725-0.276-1.084-0.334M12.125 14.527c-0.001 0.613-0.001 1.226-0.001 1.841 0.366 0 0.731 0 1.097 0v-0.208c-0.283 0-0.565 0-0.848 0-0.001-0.214-0.002-0.427-0.004-0.64 0.283-0.016 0.568-0.038 0.85-0.077-0.264-0.137-0.559-0.157-0.85-0.173 0.001-0.181 0.002-0.362 0.004-0.542 0.266-0.001 0.532-0.001 0.798-0.002 0.002-0.049 0.006-0.145 0.008-0.193-0.352-0.005-0.703-0.006-1.054-0.006M13.951 14.488c-0.234 0.643-0.43 1.306-0.541 1.981 0.227-0.164 0.322-0.427 0.424-0.676 0.128-0.001 0.258-0.001 0.386-0.001 0.1 0.248 0.196 0.51 0.431 0.665-0.202-0.635-0.192-1.566-0.7-1.969z"></path>
<path fill="#000" d="M10.3 7.814c0.2 0.032 0.401 0.067 0.6 0.103 0.001 0.19 0 0.378-0.005 0.566-0.199 0.034-0.401 0.064-0.601 0.091 0.001-0.254 0.002-0.508 0.006-0.761z"></path>
<path fill="#000" d="M14.429 7.765c0.826 0.092 0.854 1.519-0.005 1.567-0.028-0.522-0.028-1.045 0.005-1.567z"></path>
<path fill="#000" d="M13.716 11.234c0.228 0.094 0.685 0.038 0.618 0.402-0.001 0.318-0.39 0.248-0.598 0.34-0.012-0.247-0.017-0.494-0.020-0.742z"></path>
<path fill="#000" d="M9.71 12.143c0.062-0.224 0.126-0.448 0.191-0.671 0.060 0.223 0.119 0.448 0.176 0.671-0.091 0-0.275 0-0.367 0z"></path>
<path fill="#000" d="M15.223 12.14c0.060-0.223 0.121-0.448 0.184-0.671 0.061 0.224 0.122 0.45 0.182 0.676-0.091-0.001-0.275-0.004-0.366-0.005z"></path>
<path fill="#000" d="M10.956 15.397c0.006-0.242 0.013-0.484 0.025-0.726 0.24 0.080 0.655 0.084 0.604 0.444-0.048 0.301-0.412 0.212-0.629 0.282z"></path>
<path fill="#000" d="M9.71 15.588c0.062-0.221 0.125-0.443 0.191-0.664 0.060 0.223 0.119 0.446 0.178 0.67-0.092-0.001-0.276-0.004-0.368-0.006z"></path>
<path fill="#000" d="M14.016 14.992c0.073 0.194 0.14 0.391 0.209 0.587-0.096 0.005-0.288 0.014-0.384 0.019 0.058-0.202 0.116-0.404 0.175-0.606z"></path>
<path fill="#fcdd09" d="M8.69 7.972c0.212-0.61 1.111-0.355 1.070 0.27-0.191-0.139-0.371-0.293-0.547-0.45-0.936 0.542 0.977 0.696 0.506 1.432-0.322 0.552-1.199 0.23-1.138-0.406 0.268 0.148 0.528 0.668 0.859 0.391 0.39-0.612-0.983-0.582-0.751-1.237z"></path>
<path fill="#fcdd09" d="M10.048 7.625c0.415 0.012 1.121-0.060 1.128 0.536 0.072 0.521-0.493 0.628-0.883 0.636 0.001 0.227 0.001 0.455 0.001 0.683-0.061 0-0.185 0-0.247 0 0-0.618-0.001-1.237 0.001-1.855M10.3 7.814c-0.004 0.253-0.005 0.506-0.006 0.761 0.2-0.028 0.402-0.058 0.601-0.091 0.005-0.188 0.006-0.377 0.005-0.566-0.199-0.036-0.4-0.071-0.6-0.103z"></path>
<path fill="#fcdd09" d="M11.435 7.642c0.347-0.001 0.695-0.001 1.043-0.001l0.002 0.199c-0.265 0-0.53 0-0.796 0.001-0.002 0.176-0.005 0.353-0.008 0.529 0.302 0.030 0.606 0.065 0.9 0.149-0.293 0.071-0.593 0.102-0.892 0.126-0.001 0.202-0.002 0.404-0.005 0.606 0.338 0.014 0.677 0.031 1.007 0.11-0.4 0.157-0.832 0.12-1.252 0.124 0-0.614 0.001-1.229 0-1.843z"></path>
<path fill="#fcdd09" d="M12.814 7.634c0.392 0.001 0.788 0.001 1.178 0.055-0.294 0.132-0.616 0.16-0.932 0.174 0 0.181 0 0.361 0 0.541 0.248 0.002 0.496 0.006 0.743 0.010-0.002 0.049-0.007 0.149-0.010 0.199-0.244 0.001-0.488 0.002-0.733 0.004 0 0.214 0 0.427 0 0.641 0.329 0.017 0.684-0.030 0.973 0.164-0.403 0.066-0.812 0.062-1.22 0.061 0-0.616-0.001-1.232 0.001-1.849z"></path>
<path fill="#fcdd09" d="M14.165 7.616c0.575-0.070 1.234 0.222 1.133 0.904 0.127 0.692-0.524 1.075-1.136 0.984-0.005-0.629-0.007-1.259 0.004-1.888M14.429 7.765c-0.032 0.522-0.032 1.045-0.005 1.567 0.859-0.048 0.83-1.475 0.005-1.567z"></path>
<path fill="#fcdd09" d="M8.276 11.152c0.373-0.268 0.815 0.079 0.833 0.488-0.187-0.138-0.371-0.282-0.553-0.427-0.464 0.325-0.485 1.103-0.133 1.51 0.271 0.029 0.503-0.174 0.752-0.251-0.16 0.378-0.631 0.659-0.985 0.335-0.382-0.44-0.356-1.264 0.086-1.655z"></path>
<path fill="#fcdd09" d="M9.791 11.051c0.055 0.005 0.163 0.013 0.217 0.018 0.175 0.624 0.362 1.244 0.53 1.87-0.065-0.008-0.196-0.024-0.262-0.032-0.048-0.184-0.096-0.368-0.143-0.552-0.158 0-0.317 0-0.475-0.001-0.048 0.182-0.095 0.366-0.143 0.55-0.065 0.010-0.197 0.030-0.262 0.040 0.168-0.634 0.355-1.261 0.536-1.891M9.71 12.143c0.092 0 0.276 0 0.367 0-0.058-0.223-0.116-0.448-0.176-0.671-0.065 0.223-0.128 0.446-0.191 0.671z"></path>
<path fill="#fcdd09" d="M12.125 11.075c0.392 0.008 0.808-0.048 1.17 0.136-0.306 0.056-0.618 0.079-0.929 0.096 0.002 0.178 0.004 0.355 0.004 0.534 0.283 0.014 0.566 0.036 0.848 0.076-0.263 0.136-0.558 0.157-0.848 0.174 0 0.205 0 0.412-0.001 0.618 0.324 0.007 0.648 0.022 0.97 0.071-0.371 0.21-0.808 0.132-1.213 0.145-0.001-0.617-0.002-1.232 0-1.849z"></path>
<path fill="#fcdd09" d="M13.472 11.063c0.344 0.047 0.793-0.060 1.042 0.244 0.2 0.311-0.041 0.63-0.233 0.87 0.12 0.26 0.24 0.521 0.356 0.784-0.068-0.018-0.205-0.052-0.274-0.070-0.121-0.252-0.244-0.503-0.364-0.755-0.071-0.005-0.211-0.013-0.282-0.017-0.001 0.257-0.001 0.515-0.001 0.773-0.059 0.014-0.179 0.044-0.239 0.059-0.014-0.629-0.012-1.259-0.006-1.888M13.716 11.234c0.004 0.247 0.008 0.494 0.020 0.742 0.208-0.091 0.596-0.022 0.598-0.34 0.067-0.364-0.39-0.308-0.618-0.402z"></path>
<path fill="#fcdd09" d="M14.766 12.946c0.211-0.671 0.288-1.404 0.68-2.002 0.248 0.65 0.413 1.328 0.602 1.997-0.065-0.008-0.194-0.026-0.259-0.035-0.052-0.186-0.102-0.372-0.152-0.558-0.157 0.002-0.314 0.006-0.47 0.008-0.047 0.181-0.094 0.362-0.139 0.544-0.066 0.011-0.197 0.034-0.262 0.046M15.223 12.14c0.091 0.001 0.275 0.004 0.366 0.005-0.060-0.226-0.121-0.451-0.182-0.676-0.062 0.223-0.124 0.448-0.184 0.671z"></path>
<path fill="#fcdd09" d="M9.312 16.514c0.022-0.738 0.314-1.434 0.548-2.124 0.371 0.634 0.523 1.372 0.654 2.087-0.217-0.175-0.326-0.431-0.422-0.684-0.096 0-0.289-0.001-0.385-0.001-0.113 0.251-0.238 0.496-0.395 0.722M9.71 15.588c0.092 0.002 0.276 0.005 0.368 0.006-0.059-0.223-0.118-0.446-0.178-0.67-0.066 0.221-0.128 0.443-0.191 0.664z"></path>
<path fill="#fcdd09" d="M10.717 14.508c0.359 0.058 0.911-0.090 1.084 0.334 0.126 0.295-0.114 0.546-0.275 0.764 0.13 0.281 0.252 0.565 0.344 0.86-0.385-0.244-0.48-0.737-0.853-0.992-0.047 0.349-0.050 0.714-0.227 1.031-0.136-0.658-0.062-1.331-0.073-1.997M10.956 15.397c0.217-0.070 0.581 0.019 0.629-0.282 0.052-0.36-0.364-0.364-0.604-0.444-0.012 0.242-0.019 0.484-0.025 0.726z"></path>
<path fill="#fcdd09" d="M12.125 14.527c0.35 0 0.702 0.001 1.054 0.006-0.002 0.048-0.006 0.144-0.008 0.193-0.266 0.001-0.532 0.001-0.798 0.002-0.001 0.18-0.002 0.361-0.004 0.542 0.29 0.016 0.586 0.036 0.85 0.173-0.282 0.038-0.566 0.061-0.85 0.077 0.001 0.212 0.002 0.426 0.004 0.64 0.283 0 0.565 0 0.848 0v0.208c-0.366 0-0.731 0-1.097 0 0-0.614 0-1.228 0.001-1.841z"></path>
<path fill="#fcdd09" d="M13.951 14.488c0.508 0.403 0.498 1.334 0.7 1.969-0.235-0.155-0.331-0.416-0.431-0.665-0.128 0-0.258 0-0.386 0.001-0.102 0.248-0.197 0.511-0.424 0.676 0.112-0.676 0.307-1.338 0.541-1.981M14.016 14.992c-0.059 0.202-0.118 0.404-0.175 0.606 0.096-0.005 0.288-0.014 0.384-0.019-0.068-0.196-0.136-0.392-0.209-0.587z"></path>
<path fill="#f5d709" d="M10.692 11.076c0.083 0 0.247 0.001 0.33 0.001 0.079 0.397 0.158 0.794 0.251 1.188 0.094-0.394 0.172-0.791 0.252-1.188 0.083 0 0.248-0.001 0.33-0.001 0.004 0.616 0.004 1.231 0 1.847-0.053 0.002-0.158 0.006-0.212 0.007-0.002-0.406 0.004-0.811-0.016-1.216-0.119 0.443-0.186 0.901-0.365 1.326-0.145-0.42-0.222-0.858-0.325-1.289-0.028 0.392-0.028 0.785-0.035 1.177-0.052-0.001-0.156-0.001-0.208-0.001-0.007-0.618-0.006-1.235-0.002-1.852z"></path>
</svg>
