<?xml version="1.0" encoding="utf-8"?>
<!-- Generated by IcoMoon.io -->
<!DOCTYPE svg PUBLIC "-//W3C//DTD SVG 1.1//EN" "http://www.w3.org/Graphics/SVG/1.1/DTD/svg11.dtd">
<svg version="1.1" xmlns="http://www.w3.org/2000/svg" xmlns:xlink="http://www.w3.org/1999/xlink" width="24" height="24" viewBox="0 0 24 24">
<path fill="#ffd033" d="M0.343 11.167l10.824-10.824c0.458-0.458 1.207-0.458 1.666 0l10.822 10.824c0.459 0.458 0.459 1.208 0 1.666l-10.822 10.824c-0.459 0.458-1.208 0.458-1.666 0l-10.824-10.824c-0.458-0.458-0.458-1.207 0-1.666z"></path>
<path fill="#000" d="M0.604 11.34l10.735-10.735c0.364-0.364 0.958-0.364 1.322 0l10.734 10.735c0.363 0.363 0.363 0.958 0 1.321l-10.734 10.735c-0.364 0.363-0.959 0.363-1.322 0l-10.735-10.735c-0.363-0.364-0.363-0.958 0-1.321z"></path>
<path fill="#ffd033" d="M0.94 11.67l10.73-10.73c0.181-0.182 0.479-0.182 0.661 0l10.729 10.73c0.182 0.182 0.182 0.478 0 0.66l-10.729 10.73c-0.182 0.182-0.48 0.182-0.661 0l-10.73-10.73c-0.182-0.181-0.182-0.478 0-0.66z"></path>
<path fill="#000" d="M10.799 18.158c0 0.264-0.228 0.48-0.516 0.48-0.275 0-0.504-0.216-0.504-0.48 0-0.24 0.228-0.432 0.504-0.432s0.516 0.192 0.516 0.432zM10.68 16.957c0 0.168-0.18 0.312-0.397 0.312-0.215 0-0.395-0.144-0.395-0.312 0-0.192 0.18-0.336 0.395-0.336 0.216 0 0.397 0.144 0.397 0.336zM11.255 18.146c0-0.264-0.108-0.492-0.336-0.66 0.144-0.156 0.228-0.324 0.228-0.516 0-0.444-0.408-0.816-0.864-0.816s-0.852 0.372-0.852 0.816c0 0.192 0.072 0.36 0.216 0.516-0.216 0.168-0.324 0.384-0.324 0.66 0 0.516 0.444 0.96 0.96 0.96s0.972-0.444 0.972-0.96z"></path>
<path fill="#000" d="M14.46 16.25h-0.42l-1.632 2.82h0.42l1.632-2.82z"></path>
<path fill="#000" d="M12.422 16.214c-0.192 0-0.326 0.061-0.422 0.193-0.108 0.156-0.184 0.403-0.184 0.679 0 0.204 0.047 0.434 0.119 0.578 0.096 0.204 0.228 0.303 0.468 0.303 0.18 0 0.329-0.061 0.413-0.193 0.12-0.144 0.193-0.412 0.193-0.688 0-0.216-0.047-0.413-0.119-0.569-0.096-0.204-0.252-0.303-0.468-0.303zM12.422 16.609c0.072 0 0.13 0.029 0.165 0.101 0.060 0.096 0.083 0.22 0.083 0.376 0 0.108-0.022 0.24-0.046 0.312-0.048 0.12-0.112 0.174-0.22 0.174-0.084 0-0.138-0.039-0.174-0.11-0.059-0.084-0.083-0.232-0.083-0.376 0-0.108 0.022-0.24 0.046-0.312 0.048-0.12 0.122-0.177 0.229-0.165z"></path>
<path fill="#000" d="M14.432 17.352c-0.192 0-0.336 0.052-0.431 0.184-0.108 0.168-0.174 0.422-0.174 0.698 0 0.204 0.048 0.428 0.119 0.56 0.096 0.216 0.238 0.312 0.477 0.312 0.18 0 0.317-0.061 0.413-0.193 0.12-0.156 0.184-0.415 0.184-0.679 0-0.216-0.048-0.434-0.119-0.578-0.108-0.216-0.252-0.303-0.468-0.303zM14.423 17.738c0.084 0.012 0.147 0.038 0.184 0.11 0.060 0.096 0.083 0.229 0.083 0.386 0 0.108-0.022 0.24-0.046 0.312-0.048 0.12-0.124 0.165-0.22 0.165-0.084 0-0.148-0.038-0.184-0.11-0.060-0.084-0.083-0.223-0.083-0.367 0-0.12 0.019-0.247 0.055-0.33 0.048-0.12 0.115-0.165 0.211-0.165z"></path>
<path fill="#000" d="M10.86 11.63c0.144-0.204 0.168-0.48 0.048-0.708-0.084-0.156-0.216-0.276-0.36-0.336l3.528-1.824c-0.036 0.156-0.024 0.324 0.060 0.48 0.12 0.228 0.348 0.372 0.6 0.372l-3.876 2.016zM6.828 13.694c0.132-0.204 0.156-0.468 0.036-0.696 0-0.012-0.012-0.024-0.012-0.036l1.944-1.008-0.18-0.36 0.996-0.516c-0.036 0.156-0.024 0.324 0.060 0.48 0.12 0.228 0.348 0.372 0.6 0.372l-3.444 1.764zM4.907 13.958l0.708-0.36c0 0.012 0.012 0.024 0.012 0.036 0.12 0.228 0.36 0.372 0.6 0.372l-1.596 0.828h12.563l-0.012-6.48-1.86 0.96c0.144-0.204 0.168-0.48 0.048-0.708-0.084-0.156-0.216-0.264-0.36-0.324l0.816-0.432-1.728-3.336-7.008 3.636 1.56 3.012-0.204 0.108-0.936-1.812-1.536 0.792v1.404l-1.584 0.804-0.108 0.3 0.624 1.2z"></path>
</svg>
