<?xml version="1.0" encoding="utf-8"?>
<!-- Generated by IcoMoon.io -->
<!DOCTYPE svg PUBLIC "-//W3C//DTD SVG 1.1//EN" "http://www.w3.org/Graphics/SVG/1.1/DTD/svg11.dtd">
<svg version="1.1" xmlns="http://www.w3.org/2000/svg" xmlns:xlink="http://www.w3.org/1999/xlink" width="24" height="24" viewBox="0 0 24 24">
<path fill="#1a1919" d="M11.023 0.487c0.219-0.209 0.47-0.436 0.79-0.447 0.288-0.008 0.631-0.011 0.837 0.226 2.361 2.28 4.678 4.605 7 6.924 1.195 1.201 2.4 2.394 3.56 3.629 0.181 0.202 0.373 0.396 0.54 0.61 0.176 0.221 0.183 0.526 0.142 0.793-0.1 0.307-0.352 0.528-0.557 0.766-1.1 1.157-2.227 2.288-3.353 3.42-2.327 2.33-4.649 4.665-7.009 6.962-0.251 0.252-0.552 0.5-0.922 0.533-0.39 0.034-0.736-0.204-1.002-0.465-1.397-1.35-2.768-2.726-4.146-4.095-2.068-2.070-4.148-4.129-6.176-6.239-0.249-0.283-0.55-0.543-0.682-0.906v-0.456c0.048-0.145 0.118-0.283 0.216-0.401 0.257-0.319 0.551-0.605 0.835-0.899 1.698-1.737 3.42-3.451 5.134-5.172 1.595-1.596 3.188-3.194 4.792-4.782M11.71 0.186c-0.311 0.063-0.529 0.306-0.74 0.524-3.428 3.428-6.856 6.856-10.284 10.283-0.229 0.212-0.446 0.463-0.51 0.777-0.082 0.365 0.092 0.737 0.344 0.994 3.517 3.518 7.036 7.035 10.553 10.554 0.172 0.186 0.373 0.364 0.627 0.422 0.19 0.033 0.387 0.033 0.576-0.003 0.243-0.062 0.438-0.232 0.605-0.412 3.518-3.521 7.039-7.039 10.558-10.559 0.219-0.227 0.382-0.533 0.364-0.856-0.021-0.311-0.195-0.591-0.415-0.802-3.56-3.556-7.115-7.116-10.674-10.673-0.262-0.251-0.654-0.329-1.002-0.248z"></path>
<path fill="#1a1919" d="M11.848 0.411c0.278-0.040 0.575 0.048 0.776 0.248 3.534 3.534 7.068 7.069 10.603 10.602 0.194 0.194 0.341 0.458 0.326 0.74-0.014 0.262-0.159 0.497-0.34 0.679-3.527 3.527-7.054 7.055-10.582 10.582-0.21 0.215-0.524 0.301-0.818 0.251-0.282-0.032-0.491-0.243-0.676-0.438-3.458-3.458-6.916-6.917-10.374-10.374-0.19-0.186-0.347-0.429-0.36-0.702-0.014-0.281 0.132-0.543 0.326-0.737 3.535-3.534 7.069-7.069 10.604-10.604 0.139-0.136 0.321-0.226 0.515-0.247M11.961 0.876c-0.222-0.010-0.363 0.176-0.504 0.316-3.413 3.414-6.827 6.827-10.24 10.24-0.126 0.13-0.283 0.25-0.329 0.434-0.045 0.169 0.041 0.341 0.161 0.457 3.458 3.457 6.916 6.915 10.373 10.373 0.093 0.091 0.179 0.189 0.279 0.271 0.174 0.135 0.444 0.119 0.6-0.038 3.483-3.481 6.963-6.964 10.446-10.445 0.124-0.128 0.281-0.247 0.323-0.43 0.047-0.174-0.049-0.346-0.171-0.464-3.528-3.526-7.054-7.054-10.582-10.58-0.092-0.097-0.225-0.141-0.356-0.135z"></path>
<path fill="#1a1919" d="M15.389 6.608c0.23 0 0.46 0 0.69 0 0.031 0.663 0.064 1.326 0.094 1.989 0.152 0.011 0.305 0.017 0.456 0.040 0.214 0.099 0.41 0.233 0.616 0.348 0.027 0.825 0.041 1.652 0.077 2.476 0.266 0.056 0.536 0.096 0.799 0.168 0.479 0.303 0.672 0.884 0.728 1.421 0.060 0.546-0.083 1.107-0.391 1.56-0.181 0.234-0.435 0.438-0.74 0.463-0.351 0.039-0.675-0.176-0.881-0.444-0.318-0.459-0.468-1.032-0.401-1.589-0.132-0.116-0.259-0.241-0.407-0.338-0.157 0.044-0.303 0.119-0.458 0.169 0.12 0.726 0.174 1.479-0.007 2.199-0.139 0.559-0.374 1.096-0.696 1.573-0.358 0.443-0.852 0.848-1.445 0.88-0.424 0.039-0.851-0.098-1.188-0.355-0.316-0.202-0.53-0.517-0.728-0.827-0.266-0.423-0.46-0.895-0.529-1.391-0.521-0.132-1.041-0.272-1.565-0.392-0.123 0.367-0.355 0.686-0.624 0.96-0.32 0.341-0.763 0.58-1.234 0.607-0.633 0.072-1.249-0.261-1.653-0.731-0.346-0.457-0.605-0.993-0.68-1.565-0.068-0.597 0.012-1.212 0.25-1.766 0.154-0.411 0.452-0.746 0.777-1.031-0.005-0.071-0.011-0.142-0.017-0.213-0.101 0-0.203 0-0.304 0-0.030-0.283 0.149-0.565 0.415-0.664 0.128-0.045 0.226-0.145 0.347-0.2 0.243-0.017 0.486-0.029 0.729-0.028 0.198-1.038 0.397-2.076 0.594-3.114 0.81-0.016 1.62-0.008 2.429-0.046 1.046 0 2.092-0.033 3.137-0.048 0.001 0.689-0.001 1.379 0.001 2.068 0.572-0.090 1.143-0.185 1.713-0.286 0.030-0.632 0.063-1.264 0.094-1.896M11.487 7.63c-0.016 0.846-0.033 1.692-0.047 2.538 0.517-0.125 1.029-0.267 1.544-0.399 0.003-0.762 0.001-1.523 0.001-2.285-0.499 0.048-0.999 0.093-1.498 0.145M8.798 7.534c-0.091 0.809-0.197 1.616-0.28 2.426 0.713 0.066 1.423 0.156 2.137 0.203 0.032-0.844 0.063-1.687 0.094-2.531-0.651-0.030-1.301-0.069-1.952-0.098M13.082 12.264c-0.153 0.162-0.269 0.36-0.337 0.573-0.283 0.842-0.282 1.779 0.003 2.62 0.069 0.216 0.187 0.418 0.346 0.58 0.082 0.055 0.181 0.076 0.273 0.109 0.122-0.045 0.27-0.067 0.344-0.188 0.244-0.29 0.335-0.669 0.414-1.031 0.134-0.757 0.086-1.56-0.211-2.274-0.103-0.187-0.213-0.42-0.441-0.473-0.134-0.049-0.281 0.007-0.392 0.084M17.593 12.649c-0.141 0.276-0.161 0.601-0.114 0.904 0.031 0.157 0.073 0.322 0.182 0.443 0.087 0.097 0.256 0.060 0.312-0.053 0.153-0.252 0.18-0.563 0.153-0.851-0.029-0.232-0.089-0.498-0.313-0.618-0.083 0.044-0.18 0.083-0.221 0.175M7.254 13.852c-0.044 0.308-0.002 0.654 0.219 0.89 0.121 0.138 0.349 0.164 0.494 0.049 0.188-0.144 0.258-0.386 0.298-0.61-0.333-0.121-0.675-0.215-1.011-0.329z"></path>
<path fill="#f9cc5f" d="M11.71 0.186c0.348-0.081 0.739-0.002 1.002 0.248 3.559 3.557 7.115 7.117 10.674 10.673 0.221 0.211 0.395 0.491 0.415 0.802 0.018 0.323-0.145 0.629-0.364 0.856-3.519 3.52-7.039 7.038-10.558 10.559-0.166 0.18-0.361 0.35-0.605 0.412-0.19 0.036-0.386 0.037-0.576 0.003-0.254-0.058-0.455-0.235-0.627-0.422-3.517-3.518-7.036-7.036-10.553-10.554-0.252-0.257-0.426-0.63-0.344-0.994 0.064-0.314 0.281-0.565 0.51-0.777 3.428-3.428 6.856-6.856 10.284-10.283 0.211-0.218 0.429-0.461 0.74-0.524M11.848 0.411c-0.194 0.022-0.376 0.111-0.515 0.247-3.535 3.534-7.069 7.069-10.604 10.603-0.193 0.194-0.34 0.456-0.326 0.737 0.013 0.273 0.17 0.515 0.36 0.702 3.459 3.457 6.917 6.916 10.374 10.374 0.185 0.195 0.393 0.406 0.676 0.438 0.294 0.050 0.607-0.036 0.818-0.251 3.528-3.527 7.054-7.054 10.582-10.582 0.18-0.182 0.326-0.417 0.34-0.679 0.015-0.282-0.132-0.546-0.326-0.74-3.534-3.534-7.068-7.069-10.603-10.602-0.201-0.2-0.498-0.288-0.776-0.248z"></path>
<path fill="#f9cc5f" d="M11.961 0.876c0.131-0.006 0.265 0.038 0.356 0.135 3.528 3.526 7.053 7.054 10.582 10.58 0.122 0.118 0.218 0.289 0.171 0.464-0.042 0.183-0.199 0.302-0.323 0.43-3.482 3.481-6.963 6.964-10.446 10.445-0.155 0.157-0.426 0.173-0.6 0.038-0.101-0.082-0.186-0.18-0.279-0.271-3.458-3.458-6.915-6.916-10.373-10.373-0.12-0.116-0.206-0.288-0.161-0.457 0.046-0.184 0.203-0.305 0.329-0.434 3.414-3.413 6.827-6.826 10.24-10.24 0.141-0.14 0.283-0.326 0.504-0.316M15.389 6.608c-0.032 0.632-0.065 1.264-0.094 1.896-0.57 0.101-1.141 0.196-1.713 0.286-0.003-0.689 0-1.379-0.001-2.068-1.045 0.015-2.091 0.048-3.137 0.048-0.809 0.038-1.62 0.030-2.429 0.046-0.198 1.038-0.397 2.076-0.594 3.114-0.243-0.001-0.486 0.012-0.729 0.028-0.121 0.055-0.219 0.155-0.347 0.2-0.266 0.098-0.446 0.381-0.415 0.664 0.101 0 0.203 0 0.304 0 0.006 0.071 0.012 0.142 0.017 0.213-0.326 0.285-0.623 0.62-0.777 1.031-0.238 0.554-0.317 1.169-0.25 1.766 0.075 0.572 0.334 1.108 0.68 1.565 0.403 0.47 1.019 0.803 1.653 0.731 0.471-0.027 0.914-0.266 1.234-0.607 0.269-0.274 0.501-0.593 0.624-0.96 0.524 0.12 1.044 0.26 1.565 0.392 0.069 0.496 0.263 0.969 0.529 1.391 0.198 0.31 0.413 0.624 0.728 0.827 0.337 0.257 0.764 0.395 1.188 0.355 0.593-0.032 1.087-0.437 1.445-0.88 0.322-0.477 0.557-1.014 0.696-1.573 0.181-0.72 0.128-1.474 0.007-2.199 0.155-0.051 0.301-0.125 0.458-0.169 0.148 0.097 0.275 0.222 0.407 0.338-0.067 0.556 0.083 1.129 0.401 1.589 0.207 0.267 0.53 0.483 0.881 0.444 0.305-0.025 0.559-0.229 0.74-0.463 0.308-0.454 0.45-1.014 0.391-1.56-0.056-0.537-0.25-1.118-0.728-1.421-0.262-0.072-0.533-0.112-0.799-0.168-0.036-0.825-0.049-1.651-0.077-2.476-0.206-0.115-0.402-0.249-0.616-0.348-0.151-0.023-0.304-0.029-0.456-0.040-0.030-0.663-0.063-1.326-0.094-1.989-0.23 0-0.46 0-0.69 0z"></path>
<path fill="#f9cc5f" d="M11.487 7.63c0.499-0.052 0.999-0.098 1.498-0.145 0 0.762 0.002 1.523-0.001 2.285-0.515 0.132-1.027 0.274-1.544 0.399 0.013-0.846 0.031-1.692 0.047-2.538z"></path>
<path fill="#f9cc5f" d="M8.798 7.534c0.651 0.029 1.301 0.068 1.952 0.098-0.031 0.844-0.063 1.687-0.094 2.531-0.714-0.048-1.424-0.138-2.137-0.203 0.083-0.81 0.189-1.617 0.28-2.426z"></path>
<path fill="#f9cc5f" d="M13.082 12.264c0.111-0.077 0.258-0.132 0.392-0.084 0.228 0.053 0.338 0.285 0.441 0.473 0.297 0.714 0.345 1.517 0.211 2.274-0.079 0.362-0.17 0.74-0.414 1.031-0.074 0.12-0.222 0.142-0.344 0.188-0.092-0.033-0.191-0.053-0.273-0.109-0.159-0.162-0.277-0.364-0.346-0.58-0.284-0.841-0.285-1.778-0.003-2.62 0.068-0.213 0.184-0.411 0.337-0.573z"></path>
<path fill="#f9cc5f" d="M17.593 12.649c0.042-0.092 0.138-0.131 0.221-0.175 0.224 0.12 0.284 0.386 0.313 0.618 0.027 0.288 0 0.599-0.153 0.851-0.057 0.113-0.225 0.15-0.312 0.053-0.109-0.122-0.151-0.287-0.182-0.443-0.047-0.302-0.027-0.627 0.114-0.904z"></path>
<path fill="#f9cc5f" d="M7.254 13.852c0.336 0.114 0.678 0.208 1.011 0.329-0.040 0.223-0.11 0.465-0.298 0.61-0.145 0.116-0.372 0.089-0.494-0.049-0.221-0.236-0.263-0.582-0.219-0.89z"></path>
</svg>
