<!-- Generated by IcoMoon.io -->
<svg version="1.1" xmlns="http://www.w3.org/2000/svg" width="24" height="24" viewBox="0 0 24 24">
<title>warning--divided-highway--g1</title>
<path fill="#eace0f" opacity="0.92" d="M11.72 0h0.52c0.242 0.1 0.476 0.226 0.664 0.412 3.546 3.536 7.086 7.080 10.63 10.619 0.202 0.197 0.355 0.437 0.467 0.695v0.52c-0.1 0.24-0.232 0.469-0.419 0.65-3.402 3.401-6.797 6.806-10.196 10.208-0.337 0.341-0.659 0.724-1.122 0.896h-0.517c-0.24-0.094-0.476-0.21-0.661-0.394-3.556-3.569-7.109-7.14-10.667-10.708-0.179-0.178-0.311-0.395-0.418-0.622v-0.529c0.174-0.532 0.632-0.876 1.004-1.264 3.317-3.325 6.64-6.643 9.953-9.971 0.215-0.223 0.476-0.396 0.763-0.514M11.672 0.281c-0.19 0.070-0.334 0.217-0.478 0.352-3.554 3.57-7.124 7.123-10.678 10.693-0.368 0.316-0.394 0.936-0.031 1.267 3.61 3.631 7.243 7.242 10.854 10.873 0.31 0.37 0.917 0.403 1.254 0.053 3.625-3.616 7.242-7.241 10.866-10.859 0.389-0.336 0.408-0.989 0.025-1.338-3.577-3.586-7.163-7.165-10.746-10.746-0.262-0.298-0.689-0.432-1.067-0.295z"></path>
<path fill="#000" d="M11.672 0.281c0.378-0.137 0.805-0.002 1.067 0.295 3.583 3.581 7.169 7.16 10.746 10.746 0.383 0.349 0.364 1.002-0.025 1.338-3.624 3.618-7.241 7.243-10.866 10.859-0.337 0.35-0.944 0.317-1.254-0.053-3.611-3.631-7.244-7.242-10.854-10.873-0.362-0.331-0.337-0.952 0.031-1.267 3.553-3.57 7.123-7.123 10.678-10.693 0.144-0.134 0.288-0.282 0.478-0.352M11.791 0.733c-3.647 3.556-7.223 7.189-10.847 10.771-0.271 0.202-0.409 0.612-0.1 0.852 3.605 3.595 7.213 7.188 10.822 10.78 0.191 0.232 0.563 0.172 0.73-0.058 3.578-3.582 7.169-7.152 10.744-10.739 0.245-0.203 0.194-0.575-0.043-0.761-3.556-3.562-7.121-7.114-10.68-10.672-0.151-0.173-0.406-0.312-0.625-0.174z"></path>
<path fill="#000" d="M8.441 9.841c0.017-1.495-0.023-2.992 0.019-4.487 0.779 0.012 1.558-0.001 2.336 0.008 0.011 1.456-0.014 2.912 0.011 4.368 0.029 0.892 0.724 1.534 1.172 2.243 0.45-0.713 1.146-1.36 1.171-2.256 0.024-1.451-0.002-2.903 0.012-4.355 0.782-0.006 1.565-0.006 2.348 0.001 0.010 1.492-0.002 2.983 0.006 4.475 0.137 1.742-1.787 2.66-2.131 4.248-0.059 1.504-0.004 3.012-0.028 4.518-0.92 0.005-1.841 0.007-2.761-0.001-0.016-1.482 0.025-2.966-0.018-4.447-0.287-1.632-2.286-2.55-2.138-4.315z"></path>
<path fill="#fee011" d="M11.791 0.733c0.22-0.138 0.474 0.001 0.625 0.174 3.559 3.558 7.124 7.11 10.68 10.672 0.238 0.186 0.288 0.558 0.043 0.761-3.575 3.587-7.165 7.157-10.744 10.739-0.167 0.229-0.539 0.289-0.73 0.058-3.608-3.592-7.217-7.184-10.822-10.78-0.31-0.24-0.172-0.65 0.1-0.852 3.624-3.582 7.2-7.216 10.847-10.771M8.441 9.841c-0.148 1.765 1.852 2.683 2.138 4.315 0.043 1.481 0.002 2.965 0.018 4.447 0.92 0.008 1.841 0.006 2.761 0.001 0.024-1.506-0.031-3.014 0.028-4.518 0.344-1.588 2.268-2.506 2.131-4.248-0.008-1.492 0.004-2.983-0.006-4.475-0.784-0.007-1.566-0.007-2.348-0.001-0.014 1.452 0.012 2.904-0.012 4.355-0.025 0.896-0.721 1.543-1.171 2.256-0.449-0.709-1.144-1.351-1.172-2.243-0.025-1.456 0-2.912-0.011-4.368-0.779-0.010-1.558 0.004-2.336-0.008-0.042 1.495-0.002 2.992-0.019 4.487z"></path>
</svg>
