<?xml version="1.0" encoding="utf-8"?>
<!-- Generated by IcoMoon.io -->
<!DOCTYPE svg PUBLIC "-//W3C//DTD SVG 1.1//EN" "http://www.w3.org/Graphics/SVG/1.1/DTD/svg11.dtd">
<svg version="1.1" xmlns="http://www.w3.org/2000/svg" xmlns:xlink="http://www.w3.org/1999/xlink" width="24" height="24" viewBox="0 0 24 24">
<path fill="#ffde00" d="M10.808 0.607c0.314-0.322 0.725-0.59 1.192-0.584 0.469-0.018 0.895 0.239 1.214 0.563 3.254 3.264 6.516 6.521 9.775 9.78 0.397 0.404 0.88 0.786 1.010 1.368v0.564c-0.086 0.335-0.266 0.635-0.514 0.875-3.281 3.278-6.56 6.559-9.841 9.839-0.394 0.392-0.77 0.866-1.343 0.989h-0.566c-0.313-0.079-0.599-0.244-0.823-0.475-3.48-3.485-6.966-6.961-10.444-10.447-0.599-0.564-0.583-1.592 0.023-2.144 3.433-3.448 6.881-6.882 10.316-10.326M11.556 0.407c-0.364 0.173-0.618 0.498-0.904 0.772-3.196 3.198-6.391 6.397-9.592 9.593-0.341 0.338-0.762 0.703-0.746 1.231-0.032 0.563 0.427 0.948 0.791 1.306 3.199 3.194 6.395 6.394 9.595 9.589 0.325 0.313 0.625 0.724 1.097 0.81 0.404 0.086 0.822-0.076 1.103-0.368 3.362-3.355 6.716-6.718 10.079-10.073 0.32-0.319 0.716-0.654 0.744-1.141 0.050-0.413-0.169-0.796-0.461-1.070-3.443-3.434-6.872-6.882-10.315-10.318-0.343-0.38-0.913-0.539-1.391-0.33z"></path>
<path fill="#ffde00" d="M11.807 0.781c0.305-0.103 0.62 0.046 0.829 0.268 3.306 3.296 6.596 6.607 9.901 9.905 0.22 0.223 0.458 0.43 0.642 0.685 0.203 0.3 0.113 0.719-0.15 0.952-3.481 3.479-6.96 6.961-10.442 10.439-0.232 0.264-0.65 0.35-0.948 0.15-0.276-0.204-0.498-0.468-0.743-0.707-3.12-3.12-6.24-6.239-9.36-9.359-0.239-0.246-0.512-0.466-0.702-0.754-0.187-0.33-0.038-0.736 0.233-0.968 3.358-3.364 6.726-6.718 10.078-10.088 0.204-0.191 0.391-0.425 0.662-0.522M6.662 8.083c-0.612 1.478-1.208 2.963-1.812 4.444-0.166 0.586-0.044 1.208-0.078 1.81 0.151 0 0.302 0 0.455 0 0.152-0.691 0.754-1.289 1.492-1.259 3.043-0.016 6.086 0.001 9.128-0.007 0.804-0.002 1.604-0.125 2.408-0.102 0.527 0.037 0.898 0.487 1.012 0.974 0.372 0.004 0.744-0.001 1.116 0.001-0.004-0.192-0.005-0.384 0-0.576-0.228 0.002-0.456-0.002-0.684-0.002-0.307-0.511-0.83-0.943-1.456-0.932-1.77-0.004-3.54 0-5.31-0.001-0.23-0.546-0.473-1.086-0.706-1.631-0.085-0.187-0.085-0.396-0.085-0.598 0.006-0.865 0.002-1.73 0.004-2.596-1.571 0.004-3.142-0.006-4.712 0.004-0.326-0.023-0.664 0.151-0.772 0.472M16.595 13.379c-3.289 0.071-6.582 0.002-9.872 0.035-0.559-0.010-1.080 0.438-1.134 0.998-0.103 0.647 0.463 1.3 1.121 1.272 2.962 0.011 5.923-0.001 8.884 0.006 0.348 0.001 0.715 0.031 1.034-0.136 0.637-0.286 1.301-0.515 1.922-0.833 0.52-0.284 0.454-1.162-0.116-1.35-0.599-0.156-1.228 0.010-1.838 0.007z"></path>
<path fill="#ffde00" d="M7.133 8.687c0.080-0.19 0.17-0.46 0.427-0.442 0.864-0.036 1.73-0.001 2.596-0.013 0 0.763 0 1.525 0.001 2.288-1.242-0.001-2.483 0-3.724-0.001 0.234-0.611 0.467-1.222 0.7-1.832z"></path>
<path fill="#ffde00" d="M6.346 10.816c1.267 0.001 2.534 0 3.802 0 0.001 0.374 0 0.748 0.001 1.121-1.409-0.001-2.816 0-4.225-0.001 0.139-0.373 0.281-0.746 0.422-1.12z"></path>
<path fill="#ffde00" d="M7.278 13.742c0.402 0.013 0.804 0.014 1.207 0-0.197 0.222-0.413 0.469-0.398 0.787-0.029 0.33 0.186 0.598 0.385 0.833-0.394-0.016-0.788-0.014-1.183 0 0.197-0.24 0.415-0.506 0.383-0.839 0.012-0.314-0.202-0.559-0.394-0.781z"></path>
<path fill="#ffde00" d="M11.951 13.734c0.407 0.013 0.812 0.014 1.218 0-0.196 0.224-0.415 0.469-0.406 0.79-0.030 0.331 0.181 0.601 0.382 0.839-0.392-0.016-0.784-0.014-1.176 0 0.196-0.241 0.414-0.51 0.38-0.842 0.010-0.316-0.209-0.559-0.398-0.786z"></path>
<path fill="#ffde00" d="M16.576 13.71c0.35-0.006 0.7-0.025 1.049-0.050-0.198 0.364-0.096 0.774 0.233 1.019-0.317 0.122-0.63 0.257-0.94 0.398 0.224-0.486 0.079-1.042-0.342-1.367z"></path>
<path fill="#ffde00" d="M9.624 13.74c0.395 0.016 0.79 0.017 1.184 0.001-0.18 0.227-0.391 0.468-0.384 0.778-0.037 0.334 0.187 0.6 0.379 0.844-0.392-0.014-0.785-0.016-1.177 0 0.494-0.424 0.499-1.2-0.002-1.622z"></path>
<path fill="#ffde00" d="M14.296 13.741c0.4 0.014 0.8 0.014 1.2 0.001-0.185 0.228-0.401 0.47-0.395 0.785-0.035 0.331 0.18 0.6 0.378 0.838-0.392-0.007-0.785-0.007-1.177 0 0.202-0.235 0.42-0.504 0.386-0.836 0.008-0.314-0.209-0.559-0.392-0.787z"></path>
<path fill="#000" d="M11.556 0.407c0.478-0.209 1.048-0.050 1.391 0.33 3.443 3.436 6.872 6.883 10.315 10.318 0.292 0.275 0.511 0.658 0.461 1.070-0.028 0.487-0.424 0.822-0.744 1.141-3.362 3.355-6.716 6.718-10.079 10.073-0.281 0.293-0.698 0.455-1.103 0.368-0.472-0.086-0.772-0.497-1.097-0.81-3.2-3.196-6.396-6.395-9.595-9.589-0.364-0.358-0.823-0.743-0.791-1.306-0.016-0.528 0.406-0.893 0.746-1.231 3.2-3.196 6.396-6.395 9.592-9.593 0.286-0.274 0.54-0.599 0.904-0.772M11.807 0.781c-0.271 0.097-0.458 0.331-0.662 0.522-3.352 3.371-6.72 6.725-10.078 10.088-0.271 0.233-0.42 0.638-0.233 0.968 0.19 0.288 0.463 0.508 0.702 0.754 3.12 3.12 6.24 6.239 9.36 9.359 0.245 0.239 0.467 0.503 0.743 0.707 0.298 0.2 0.716 0.114 0.948-0.15 3.482-3.478 6.961-6.96 10.442-10.439 0.263-0.233 0.353-0.652 0.15-0.952-0.184-0.256-0.422-0.462-0.642-0.685-3.305-3.298-6.595-6.608-9.901-9.905-0.209-0.222-0.524-0.371-0.829-0.268z"></path>
<path fill="#000" d="M6.662 8.083c0.108-0.32 0.445-0.494 0.772-0.472 1.571-0.010 3.142 0 4.712-0.004-0.001 0.865 0.002 1.73-0.004 2.596 0 0.202 0 0.41 0.085 0.598 0.233 0.545 0.475 1.085 0.706 1.631 1.77 0.001 3.54-0.002 5.31 0.001 0.625-0.011 1.148 0.421 1.456 0.932 0.228 0 0.456 0.005 0.684 0.002-0.005 0.192-0.004 0.384 0 0.576-0.372-0.002-0.744 0.002-1.116-0.001-0.114-0.487-0.485-0.937-1.012-0.974-0.804-0.023-1.604 0.1-2.408 0.102-3.042 0.008-6.085-0.008-9.128 0.007-0.738-0.030-1.339 0.568-1.492 1.259-0.152 0-0.304 0-0.455 0 0.034-0.601-0.088-1.224 0.078-1.81 0.604-1.481 1.2-2.965 1.812-4.444M7.133 8.687c-0.233 0.611-0.466 1.222-0.7 1.832 1.241 0.001 2.482 0 3.724 0.001-0.001-0.763-0.001-1.525-0.001-2.288-0.865 0.012-1.732-0.023-2.596 0.013-0.257-0.018-0.347 0.252-0.427 0.442M6.346 10.816c-0.142 0.373-0.283 0.746-0.422 1.12 1.409 0.001 2.816 0 4.225 0.001-0.001-0.373 0-0.746-0.001-1.121-1.267 0-2.534 0.001-3.802 0z"></path>
<path fill="#000" d="M16.595 13.379c0.611 0.002 1.24-0.163 1.838-0.007 0.57 0.188 0.636 1.066 0.116 1.35-0.622 0.318-1.285 0.547-1.922 0.833-0.319 0.167-0.686 0.137-1.034 0.136-2.96-0.007-5.922 0.005-8.884-0.006-0.658 0.028-1.224-0.625-1.121-1.272 0.054-0.56 0.575-1.008 1.134-0.998 3.29-0.032 6.583 0.036 9.872-0.035M7.278 13.742c0.192 0.222 0.406 0.467 0.394 0.781 0.032 0.332-0.186 0.599-0.383 0.839 0.395-0.014 0.79-0.016 1.183 0-0.199-0.235-0.414-0.503-0.385-0.833-0.014-0.318 0.202-0.565 0.398-0.787-0.403 0.014-0.805 0.013-1.207 0M11.951 13.734c0.19 0.227 0.408 0.47 0.398 0.786 0.034 0.332-0.185 0.601-0.38 0.842 0.392-0.014 0.784-0.016 1.176 0-0.2-0.238-0.412-0.508-0.382-0.839-0.010-0.32 0.21-0.565 0.406-0.79-0.406 0.014-0.811 0.013-1.218 0M16.576 13.71c0.421 0.325 0.566 0.881 0.342 1.367 0.31-0.142 0.623-0.276 0.94-0.398-0.329-0.245-0.431-0.655-0.233-1.019-0.349 0.025-0.698 0.044-1.049 0.050M9.624 13.74c0.502 0.422 0.497 1.199 0.002 1.622 0.392-0.016 0.785-0.014 1.177 0-0.192-0.244-0.416-0.51-0.379-0.844-0.007-0.31 0.204-0.551 0.384-0.778-0.395 0.016-0.79 0.014-1.184-0.001M14.296 13.741c0.184 0.228 0.401 0.473 0.392 0.787 0.034 0.332-0.185 0.601-0.386 0.836 0.392-0.007 0.785-0.007 1.177 0-0.198-0.238-0.413-0.506-0.378-0.838-0.006-0.314 0.21-0.557 0.395-0.785-0.4 0.013-0.8 0.013-1.2-0.001z"></path>
</svg>
