<!-- Generated by IcoMoon.io -->
<svg version="1.1" xmlns="http://www.w3.org/2000/svg" width="27" height="24" viewBox="0 0 27 24">
<title>warning--road-narrows-right--g1</title>
<path fill="#ec1d24" d="M13.172 0h0.685c0.534 0.155 1.036 0.471 1.298 0.976 3.852 6.679 7.7 13.363 11.553 20.042 0.153 0.268 0.29 0.545 0.412 0.828v0.667c-0.183 0.715-0.731 1.296-1.448 1.486h-24.214c-0.694-0.164-1.226-0.705-1.456-1.369v-0.805c0.102-0.248 0.214-0.491 0.346-0.725 3.868-6.709 7.734-13.421 11.603-20.13 0.251-0.484 0.731-0.777 1.223-0.969M2.828 21.603c7.144 0.003 14.289 0.001 21.435 0.001-3.555-6.203-7.128-12.397-10.713-18.582-3.593 6.182-7.15 12.386-10.721 18.58z"></path>
<path fill="#fff" d="M2.828 21.603c3.572-6.194 7.128-12.399 10.721-18.58 3.585 6.184 7.158 12.378 10.713 18.582-7.146 0-14.29 0.001-21.435-0.001M11.143 8.397c-0.004 4.13-0.001 8.26-0.001 12.391 0.601 0.008 1.2 0.005 1.801 0.001 0.005-4.13 0.005-8.262 0-12.392-0.599-0.005-1.199-0.007-1.799 0M14.153 8.397c0 1.317-0.003 2.633 0.001 3.95-0.004 0.747 0.222 1.504 0.694 2.091 0.367 0.515 0.915 1.001 0.883 1.689 0.009 1.554-0.003 3.108 0.005 4.662 0.599 0.004 1.199 0.004 1.799-0.001 0.007-1.505 0.001-3.010 0.003-4.515 0.012-0.778-0.229-1.561-0.716-2.174-0.346-0.508-0.876-0.965-0.881-1.628-0.019-1.356-0.001-2.713-0.007-4.069-0.594-0.024-1.188-0.016-1.782-0.004z"></path>
<path fill="#030303" d="M11.143 8.397c0.601-0.007 1.2-0.005 1.799 0 0.005 4.13 0.005 8.262 0 12.392-0.601 0.004-1.2 0.007-1.801-0.001 0-4.13-0.003-8.26 0.001-12.391z"></path>
<path fill="#030303" d="M14.153 8.397c0.594-0.012 1.188-0.020 1.782 0.004 0.005 1.356-0.012 2.713 0.007 4.069 0.005 0.663 0.536 1.12 0.881 1.628 0.487 0.613 0.728 1.395 0.716 2.174-0.001 1.505 0.004 3.010-0.003 4.515-0.601 0.005-1.2 0.005-1.799 0.001-0.008-1.554 0.004-3.108-0.005-4.662 0.033-0.689-0.515-1.174-0.883-1.689-0.472-0.587-0.698-1.344-0.694-2.091-0.004-1.317-0.001-2.633-0.001-3.95z"></path>
</svg>
