<!-- Generated by IcoMoon.io -->
<svg version="1.1" xmlns="http://www.w3.org/2000/svg" width="27" height="24" viewBox="0 0 27 24">
<title>warning--carts--g1</title>
<path fill="#ce252c" d="M13.085 0h0.688c0.674 0.152 1.302 0.545 1.631 1.169 3.503 6.078 7.003 12.158 10.505 18.236 0.379 0.665 0.804 1.311 1.057 2.037v0.646c-0.198 0.953-0.951 1.706-1.901 1.912h-23.141c-0.949-0.182-1.707-0.918-1.924-1.858v-0.693c0.224-0.712 0.642-1.333 1.007-1.975 3.516-6.102 7.030-12.205 10.547-18.306 0.31-0.6 0.907-0.965 1.532-1.168M2.791 21.445c7.124 0.020 14.25 0.016 21.376 0.001-3.538-6.196-7.098-12.383-10.688-18.547-3.595 6.162-7.149 12.352-10.688 18.546z"></path>
<path fill="#ffd100" d="M2.791 21.445c3.539-6.194 7.093-12.384 10.688-18.546 3.591 6.164 7.15 12.352 10.688 18.547-7.126 0.015-14.252 0.019-21.376-0.001M8.12 13.464c-0.013 0.097-0.039 0.29-0.053 0.386-0.462 0.526-0.967 1.011-1.445 1.521 0.473 0.867 1.321-0.051 2.017-0.036 0.495 0.707 0.89 1.445 0.897 2.329-0.783 0.934-1.813 1.658-2.47 2.701 0.181-0.003 0.363-0.003 0.545-0.003 0.378-0.998 1.417-1.452 2.245-2.009 0.232-0.177 0.527-0.090 0.79-0.058-0.011 0.409 0.004 0.817 0.046 1.223 0.717 0.208 1.427-0.256 2.001-0.643 0.138-0.384-0.402-0.216-0.616-0.262-0.031 0.098-0.094 0.295-0.125 0.394-0.26 0.081-0.527 0.14-0.796 0.186 0.102-0.316 0.209-0.628 0.307-0.945 0.845-0.049 1.619-0.392 2.405-0.666 0.154 0.58 0.671 0.983 0.814 1.551-0.276 0.436-0.728 0.724-1.054 1.119-0.001 0.233-0.001 0.467-0.001 0.701 0.138-0.069 0.278-0.133 0.419-0.196 0.011-0.156 0.023-0.313 0.034-0.469 0.458-0.429 0.934-0.84 1.381-1.282-0.336-0.363-0.604-0.813-0.367-1.312 0.603 0.667 1.484 0.682 2.221 1.067-0.791 0.957-0.007 2.604 1.277 2.373 1.298-0.132 1.614-1.966 0.547-2.64 0.066-0.129 0.131-0.26 0.197-0.39 0.414-0.117 1.045-0.183 1.081-0.729 0.050-0.639 0.055-1.352-0.27-1.923 0.245-0.767-0.619-1.285-1.126-0.635 0.043 0.332 0.116 0.661 0.27 0.96-0.177 0.587-0.849 0.535-1.34 0.568-0.499-0.58-1.258-0.947-2.032-0.866-0.677 0.085-1.344-0.317-2.010-0.053-0.901 0.373-1.908 0.191-2.803-0.104-0.713-0.208-1.099-0.933-1.797-1.166-0.436-0.158-0.851-0.368-1.188-0.69z"></path>
<path fill="#ffd100" d="M15.724 15.75c0.582 0.217 1.102 0.564 1.552 0.991 0.698-0.17 1.405 0.194 2.109-0.040-0.047 0.533-0.685 0.306-1.042 0.417-0.791 0.19-1.525-0.233-2.267-0.434-0.115-0.313-0.235-0.623-0.352-0.933z"></path>
<path fill="#ffd100" d="M16.098 16.974c0.181 0.070 0.361 0.143 0.543 0.214 0.019 0.16 0.039 0.322 0.061 0.483 0.736 0.062 1.575 0.004 2.093 0.635-0.421 0.018-0.837 0.085-1.234 0.228-0.262-0.747-1.429-0.634-1.463-1.56z"></path>
<path fill="#ffd100" d="M17.759 18.748c0.352-0.146 0.732-0.186 1.103-0.084-0.098 0.19-0.197 0.382-0.294 0.574-0.364 0.032-0.611-0.218-0.809-0.491z"></path>
<path fill="#ffd100" d="M18.373 19.998c0.337-0.344 0.372-0.868 0.651-1.258 0.835 0.549 0.591 1.997-0.433 2.128-1.022 0.213-1.702-1.056-1.137-1.87 0.387 0.249 0.682 0.609 0.918 1z"></path>
<path fill="#000" d="M8.12 13.464c0.337 0.322 0.752 0.533 1.188 0.69 0.698 0.233 1.084 0.959 1.797 1.166 0.895 0.295 1.902 0.477 2.803 0.104 0.666-0.264 1.333 0.138 2.010 0.053 0.774-0.081 1.533 0.286 2.032 0.866 0.491-0.032 1.164 0.019 1.34-0.568-0.154-0.299-0.227-0.628-0.27-0.96 0.507-0.65 1.371-0.132 1.126 0.635 0.325 0.57 0.32 1.284 0.27 1.923-0.036 0.546-0.667 0.612-1.081 0.729-0.066 0.129-0.131 0.26-0.197 0.39 1.067 0.674 0.751 2.508-0.547 2.64-1.284 0.231-2.068-1.416-1.277-2.373-0.736-0.384-1.618-0.399-2.221-1.067-0.237 0.499 0.031 0.949 0.367 1.312-0.446 0.442-0.922 0.853-1.381 1.282-0.011 0.156-0.023 0.313-0.034 0.469-0.142 0.062-0.282 0.127-0.419 0.196 0-0.235 0-0.468 0.001-0.701 0.326-0.395 0.778-0.684 1.054-1.119-0.143-0.568-0.661-0.971-0.814-1.551-0.786 0.274-1.56 0.618-2.405 0.666-0.098 0.317-0.205 0.63-0.307 0.945 0.268-0.046 0.535-0.105 0.796-0.186 0.031-0.098 0.094-0.295 0.125-0.394 0.214 0.046 0.754-0.123 0.616 0.262-0.574 0.387-1.284 0.851-2.001 0.643-0.042-0.406-0.057-0.814-0.046-1.223-0.263-0.032-0.558-0.119-0.79 0.058-0.828 0.557-1.867 1.011-2.245 2.009-0.182 0-0.364 0-0.545 0.003 0.657-1.042 1.687-1.766 2.47-2.701-0.007-0.883-0.402-1.622-0.897-2.329-0.696-0.015-1.544 0.903-2.017 0.036 0.479-0.51 0.983-0.995 1.445-1.521 0.013-0.096 0.039-0.289 0.053-0.386M15.724 15.75c0.117 0.31 0.237 0.62 0.352 0.933 0.742 0.201 1.475 0.624 2.267 0.434 0.357-0.111 0.995 0.116 1.042-0.417-0.704 0.235-1.41-0.129-2.109 0.040-0.45-0.427-0.969-0.774-1.552-0.991M16.098 16.974c0.034 0.926 1.201 0.813 1.463 1.56 0.396-0.143 0.813-0.21 1.234-0.228-0.518-0.631-1.356-0.573-2.093-0.635-0.022-0.16-0.042-0.322-0.061-0.483-0.182-0.071-0.363-0.144-0.543-0.214M17.759 18.748c0.198 0.272 0.445 0.523 0.809 0.491 0.097-0.193 0.196-0.384 0.294-0.574-0.371-0.102-0.751-0.062-1.103 0.084M18.373 19.998c-0.236-0.391-0.531-0.751-0.918-1-0.565 0.814 0.115 2.083 1.137 1.87 1.023-0.131 1.267-1.579 0.433-2.128-0.279 0.39-0.314 0.914-0.651 1.258z"></path>
</svg>
