<svg xmlns="http://www.w3.org/2000/svg" width="24" height="24">
    <path fill="#fecf33" d="M11.734 0h.499c.275.103.53.256.734.469 3.317 3.324 6.64 6.643 9.959 9.965.391.402.856.764 1.074 1.3v.491c-.162.514-.599.846-.96 1.216l-9.599 9.601c-.359.356-.691.764-1.174.959h-.504c-.244-.1-.48-.226-.665-.415C7.54 20.022 3.978 16.462.417 12.901a2.18 2.18 0 0 1-.418-.635v-.503c.169-.505.593-.844.953-1.21 3.181-3.179 6.36-6.36 9.54-9.54.382-.373.727-.814 1.241-1.013zm-.059.407c-.221.071-.389.24-.553.395C7.643 4.284 4.162 7.764.684 11.249c-.43.384-.432 1.118.004 1.5 3.524 3.518 7.04 7.044 10.561 10.565.384.433 1.117.433 1.501 0 3.518-3.524 7.04-7.045 10.562-10.565.433-.383.43-1.115.002-1.501C19.818 7.743 16.313 4.246 12.815.742c-.281-.314-.732-.479-1.141-.335z"/>
    <path fill="#fecf33" d="M11.923.892c.268-.043.497.133.672.313 3.416 3.424 6.841 6.838 10.256 10.261.299.246.361.731.055.998-3.454 3.467-6.92 6.92-10.378 10.385-.238.306-.731.362-.996.059a8566.63 8566.63 0 0 1-10.44-10.444c-.308-.265-.246-.752.054-.997 3.416-3.424 6.84-6.84 10.256-10.262.148-.138.307-.294.52-.313zm-1.395 2.622c-.023 1.166.026 2.335-.024 3.502-1.356-.01-2.711-.014-4.067.001.004.978-.002 1.956.004 2.934 1.361.008 2.72-.007 4.081.007.004 1.36-.001 2.719.001 4.079-1.361.011-2.722-.002-4.082.006a319.7 319.7 0 0 0 0 2.938c1.36.01 2.719-.001 4.079.005.006 1.159.001 2.317 0 3.476.979.024 1.958.005 2.938.011.017-5.653.01-11.305.007-16.958-.979-.004-1.957-.002-2.936 0z"/>
    <path d="M11.675.407c.409-.144.86.02 1.141.335 3.498 3.504 7.003 7.001 10.499 10.506.427.386.431 1.118-.002 1.501-3.522 3.52-7.044 7.04-10.562 10.565-.384.433-1.117.433-1.501 0C7.729 19.793 4.213 16.268.689 12.749c-.436-.382-.433-1.116-.004-1.5C4.163 7.764 7.644 4.284 11.123.802c.164-.155.332-.324.553-.395zm.248.485c-.212.019-.372.175-.52.313-3.416 3.422-6.84 6.839-10.256 10.262-.3.245-.362.732-.054.997a8566.63 8566.63 0 0 0 10.44 10.444c.265.304.758.247.996-.059 3.457-3.464 6.924-6.918 10.378-10.385.306-.268.244-.752-.055-.998-3.415-3.424-6.84-6.838-10.256-10.261-.175-.18-.404-.356-.672-.313z"/>
    <path d="M10.528 3.514c.979-.002 1.957-.004 2.936 0 .002 5.653.01 11.305-.007 16.958-.979-.006-1.958.013-2.938-.011.001-1.159.006-2.317 0-3.476-1.36-.006-2.719.005-4.079-.005a319.7 319.7 0 0 1 0-2.938c1.361-.008 2.722.005 4.082-.006-.002-1.36.002-2.719-.001-4.079-1.361-.014-2.72.001-4.081-.007-.006-.978 0-1.956-.004-2.934 1.356-.016 2.711-.011 4.067-.001.05-1.166.001-2.335.024-3.502z"/>
</svg>
