<!-- Generated by IcoMoon.io -->
<svg version="1.1" xmlns="http://www.w3.org/2000/svg" width="27" height="24" viewBox="0 0 27 24">
<title>warning--pedestrians-crossing--g8</title>
<path fill="#ef2b2f" d="M13.159 0h1.399c4.062 7.425 8.378 14.736 12.764 21.98v0.672c-1.647 1.060-3.678 0.779-5.535 0.868-7.111-0.007-14.219-0.133-21.33-0.192 0.181-1.34 0.702-2.599 1.366-3.77 3.582-6.631 7.418-13.122 11.335-19.558M2.784 21.762c7.274 0.044 14.548 0.022 21.822 0.011-3.589-6.321-7.281-12.58-10.874-18.897-3.726 6.247-7.314 12.583-10.948 18.886z"></path>
<path fill="#fff" d="M2.784 21.762c3.633-6.303 7.222-12.639 10.948-18.886 3.593 6.318 7.285 12.576 10.874 18.897-7.274 0.011-14.548 0.033-21.822-0.011M10.586 10.608c0.362 0.203 0.727 0.406 1.093 0.606-0.144 1.602-1.274 2.714-2.393 3.737-0.122 1.495 0.594 3.028 1.074 4.449-0.048-1.359-0.414-2.677-0.75-3.984 1.038-0.757 1.961-1.647 2.81-2.603 1.34 2.064 0.646 4.479 0.45 6.738-0.358 0.262-0.716 0.524-1.074 0.786 1.215 0.015 2.433 0.011 3.648-0.007 0.078-1.935 0.126-3.881-0.159-5.804 0.462-0.159 0.919-0.321 1.377-0.491-0.24 1.854-0.51 3.714-0.17 5.575-0.214 0.181-0.639 0.55-0.853 0.735 0.321 0 0.967 0.004 1.289 0.007 0.236-0.846 0.181-1.909 1.004-2.444 0.1 0.554 0.185 1.111 0.262 1.673-0.151 0.192-0.45 0.576-0.598 0.768 0.303 0.004 0.916 0.011 1.218 0.015 0.133-0.853-0.192-1.972 0.687-2.514-0.565-2.481-1.115-5.129-3.113-6.901-0.185-0.543-0.436-1.060-0.746-1.547-0.222 0.174-0.668 0.513-0.89 0.683-0.007 0.425-0.007 0.849-0.004 1.274 0.258 0.070 0.772 0.21 1.026 0.281 0.089 0.879 0.174 1.791-0.321 2.574-0.705-1.399-1.436-2.898-2.887-3.67-0.185-0.484-0.369-0.971-0.554-1.455-0.908 0.059-1.403 0.62-1.429 1.521M10.372 19.687c-0.569 1.111 1.222 0.063 0 0z"></path>
<path fill="#201e1c" d="M10.586 10.608c0.026-0.901 0.521-1.462 1.429-1.521 0.185 0.484 0.369 0.971 0.554 1.455 1.451 0.772 2.182 2.271 2.887 3.67 0.495-0.783 0.41-1.695 0.321-2.574-0.255-0.070-0.768-0.21-1.026-0.281-0.004-0.425-0.004-0.849 0.004-1.274 0.222-0.17 0.668-0.51 0.89-0.683 0.31 0.487 0.561 1.004 0.746 1.547 1.998 1.772 2.548 4.42 3.113 6.901-0.879 0.543-0.554 1.662-0.687 2.514-0.303-0.004-0.916-0.011-1.218-0.015 0.148-0.192 0.447-0.576 0.598-0.768-0.078-0.561-0.162-1.119-0.262-1.673-0.823 0.535-0.768 1.599-1.004 2.444-0.321-0.004-0.967-0.007-1.289-0.007 0.214-0.185 0.639-0.554 0.853-0.735-0.34-1.861-0.070-3.722 0.17-5.575-0.458 0.17-0.916 0.332-1.377 0.491 0.284 1.924 0.236 3.87 0.159 5.804-1.215 0.018-2.433 0.022-3.648 0.007 0.358-0.262 0.716-0.524 1.074-0.786 0.196-2.26 0.89-4.674-0.45-6.738-0.849 0.956-1.772 1.846-2.81 2.603 0.336 1.307 0.702 2.625 0.75 3.984-0.48-1.422-1.196-2.954-1.074-4.449 1.119-1.023 2.249-2.134 2.393-3.737-0.366-0.199-0.731-0.402-1.093-0.606M14.308 17.143c-0.273 1.052-0.532 2.105-0.786 3.161 1.455-0.384 0.764-2.071 0.786-3.161z"></path>
<path fill="#ededed" d="M14.308 17.143c-0.022 1.089 0.668 2.777-0.786 3.161 0.255-1.056 0.513-2.108 0.786-3.161z"></path>
<path fill="#575553" d="M10.372 19.687c1.222 0.063-0.569 1.111 0 0z"></path>
</svg>
