<?xml version="1.0" encoding="utf-8"?>
<!-- Generated by IcoMoon.io -->
<!DOCTYPE svg PUBLIC "-//W3C//DTD SVG 1.1//EN" "http://www.w3.org/Graphics/SVG/1.1/DTD/svg11.dtd">
<svg version="1.1" xmlns="http://www.w3.org/2000/svg" xmlns:xlink="http://www.w3.org/1999/xlink" width="24" height="24" viewBox="0 0 24 24">
<path fill="#fee011" d="M11.354 0.209c0.475-0.346 1.157-0.217 1.543 0.2 3.568 3.56 7.129 7.126 10.692 10.691 0.493 0.433 0.542 1.266 0.055 1.723-3.601 3.608-7.207 7.213-10.813 10.816-0.43 0.454-1.222 0.457-1.652 0.005-3.605-3.6-7.205-7.202-10.806-10.806-0.502-0.456-0.457-1.304 0.047-1.741 3.397-3.403 6.802-6.8 10.2-10.204 0.239-0.233 0.46-0.49 0.734-0.684M11.687 0.296c-0.19 0.068-0.338 0.21-0.482 0.344-3.52 3.522-7.040 7.044-10.562 10.564-0.252 0.235-0.451 0.568-0.385 0.926 0.048 0.388 0.383 0.635 0.636 0.896 3.485 3.476 6.96 6.962 10.442 10.44 0.343 0.376 0.978 0.38 1.325 0.008 3.606-3.601 7.208-7.206 10.812-10.811 0.403-0.37 0.358-1.048-0.049-1.397-3.538-3.546-7.084-7.084-10.622-10.628-0.272-0.31-0.709-0.499-1.114-0.343z"></path>
<path fill="#fee011" d="M11.803 0.763c0.248-0.131 0.503 0.037 0.666 0.218 3.298 3.3 6.596 6.598 9.894 9.896 0.275 0.284 0.578 0.544 0.827 0.852 0.174 0.203 0.080 0.506-0.109 0.662-3.562 3.564-7.127 7.124-10.687 10.69-0.144 0.163-0.39 0.269-0.594 0.149-0.256-0.174-0.452-0.416-0.673-0.63-3.4-3.406-6.804-6.805-10.205-10.208-0.16-0.143-0.268-0.384-0.156-0.588 0.187-0.284 0.457-0.502 0.691-0.745 3.203-3.202 6.406-6.404 9.606-9.607 0.242-0.234 0.461-0.499 0.74-0.689M9.458 4.828c-0.289 0.371-0.731 0.546-1.124 0.778 0.365 0.071 0.742 0.082 1.102 0.176 0.324 0.944-0.506 1.692-0.709 2.555-0.402 1.586 0.379 3.254 1.58 4.283 0.572 0.443 1.259 0.841 2.006 0.804 0.166 0.176 0.329 0.355 0.49 0.536 0.101 0.424 0.325 0.839 0.226 1.286-0.182 0.784-0.5 1.526-0.812 2.264-0.118 0.236-0.283 0.541-0.586 0.54-0.594 0.031-1.288-0.106-1.733 0.394 0.152 0.031 0.306 0.061 0.46 0.091 0.023 0.054 0.068 0.161 0.091 0.214 0.76-0.024 1.495-0.23 2.242-0.34 0.214 0.061 0.485 0.044 0.604 0.275 0.703-0.073 1.386-0.275 2.088-0.37 0-1.288-0.062-2.579 0.065-3.863-0.2-0.288-0.338-0.611-0.442-0.943 0.414-0.205 0.872-0.286 1.309-0.425 0.091 0.070 0.182 0.139 0.274 0.21 0.613 0.054 1.211 0.224 1.829 0.229 0.142-0.872-0.246-1.732-0.664-2.477-0.256-0.49-0.762-0.752-1.147-1.126-0.839-0.701-1.926-1.188-3.037-1.096-0.932 0.082-1.728 0.665-2.644 0.799-0.39 0.073-0.668-0.284-0.683-0.641-0.053-0.895 0.049-1.798 0.239-2.674 0.061-0.335 0.203-0.678 0.12-1.020-0.2-0.424-0.726-0.493-1.142-0.462z"></path>
<path fill="#fee011" d="M13.704 15.27c0.248-0.505 0.012-1.082 0.206-1.602 0.365 0.378 0.469 0.904 0.677 1.369 0.263 0.937 0.268 1.944 0.116 2.9-0.644 0.059-1.369-0.038-1.91 0.395-0.253-0.468 0.048-0.968 0.142-1.439 0.124-0.599 0.504-1.086 0.769-1.624z"></path>
<path fill="#030303" d="M11.687 0.296c0.404-0.156 0.841 0.034 1.114 0.343 3.539 3.545 7.085 7.082 10.622 10.628 0.407 0.349 0.452 1.027 0.049 1.397-3.604 3.605-7.206 7.21-10.812 10.811-0.347 0.372-0.982 0.367-1.325-0.008-3.482-3.478-6.958-6.964-10.442-10.44-0.253-0.262-0.588-0.509-0.636-0.896-0.066-0.359 0.133-0.691 0.385-0.926 3.522-3.52 7.043-7.042 10.562-10.564 0.144-0.134 0.293-0.276 0.482-0.344M11.803 0.763c-0.28 0.19-0.498 0.455-0.74 0.689-3.2 3.203-6.403 6.406-9.606 9.607-0.234 0.244-0.504 0.461-0.691 0.745-0.112 0.204-0.004 0.445 0.156 0.588 3.401 3.403 6.805 6.803 10.205 10.208 0.221 0.214 0.418 0.456 0.673 0.63 0.204 0.12 0.45 0.014 0.594-0.149 3.56-3.565 7.126-7.126 10.687-10.69 0.19-0.156 0.283-0.46 0.109-0.662-0.248-0.308-0.552-0.568-0.827-0.852-3.298-3.299-6.596-6.596-9.894-9.896-0.163-0.181-0.418-0.349-0.666-0.218z"></path>
<path fill="#030303" d="M9.458 4.828c0.416-0.031 0.942 0.038 1.142 0.462 0.083 0.342-0.059 0.685-0.12 1.020-0.19 0.876-0.292 1.778-0.239 2.674 0.014 0.356 0.293 0.714 0.683 0.641 0.916-0.134 1.711-0.718 2.644-0.799 1.111-0.092 2.198 0.395 3.037 1.096 0.385 0.373 0.892 0.636 1.147 1.126 0.418 0.745 0.805 1.604 0.664 2.477-0.618-0.005-1.216-0.175-1.829-0.229-0.091-0.071-0.182-0.14-0.274-0.21-0.437 0.139-0.895 0.22-1.309 0.425 0.103 0.332 0.241 0.655 0.442 0.943-0.127 1.284-0.065 2.575-0.065 3.863-0.702 0.095-1.385 0.296-2.088 0.37-0.119-0.23-0.39-0.214-0.604-0.275-0.746 0.109-1.482 0.316-2.242 0.34-0.023-0.053-0.068-0.16-0.091-0.214-0.154-0.030-0.307-0.060-0.46-0.091 0.445-0.499 1.139-0.362 1.733-0.394 0.302 0.001 0.468-0.304 0.586-0.54 0.312-0.738 0.63-1.481 0.812-2.264 0.1-0.448-0.125-0.863-0.226-1.286-0.161-0.181-0.324-0.36-0.49-0.536-0.748 0.037-1.434-0.361-2.006-0.804-1.201-1.028-1.982-2.696-1.58-4.283 0.203-0.863 1.033-1.61 0.709-2.555-0.36-0.095-0.737-0.106-1.102-0.176 0.394-0.232 0.835-0.407 1.124-0.778M13.704 15.27c-0.265 0.538-0.646 1.025-0.769 1.624-0.094 0.47-0.395 0.971-0.142 1.439 0.541-0.433 1.266-0.336 1.91-0.395 0.151-0.956 0.146-1.963-0.116-2.9-0.208-0.466-0.312-0.991-0.677-1.369-0.194 0.52 0.042 1.097-0.206 1.602z"></path>
</svg>
