<!-- Generated by IcoMoon.io -->
<svg version="1.1" xmlns="http://www.w3.org/2000/svg" width="24" height="24" viewBox="0 0 24 24">
<title>warning--bridge--g2</title>
<path fill="#000" d="M11.923 0.409c0.402-0.066 0.701 0.252 0.962 0.505 3.48 3.481 6.955 6.967 10.435 10.448 0.378 0.323 0.406 0.968 0.020 1.297-3.562 3.559-7.114 7.129-10.681 10.682-0.324 0.39-0.99 0.38-1.314-0.005-3.55-3.533-7.079-7.086-10.624-10.622-0.41-0.33-0.446-1-0.031-1.34 3.482-3.479 6.953-6.97 10.434-10.45 0.235-0.206 0.458-0.504 0.798-0.516M11.182 1.463c-3.299 3.3-6.587 6.613-9.895 9.904-0.203 0.184-0.379 0.396-0.521 0.63 0.113 0.292 0.332 0.512 0.557 0.721 3.446 3.433 6.874 6.884 10.319 10.319 0.181 0.241 0.541 0.25 0.725 0.006 3.563-3.557 7.116-7.122 10.675-10.682 0.282-0.209 0.158-0.576-0.078-0.763-3.505-3.496-7-7.002-10.498-10.506-0.132-0.137-0.302-0.226-0.467-0.317-0.322 0.167-0.569 0.431-0.817 0.689z"></path>
<path fill="#000" d="M9.764 9.88c1.256-1.058 3.223-1.063 4.481-0.005 1.362 1.1 3.198 0.654 4.802 0.75 0.001 0.932 0.002 1.864 0 2.795-1.878-0.001-3.756 0.008-5.633-0.005-0.012-0.811 0.014-1.621-0.013-2.431-0.802-0.652-2.002-0.654-2.795 0.013-0.016 0.806 0.001 1.613-0.007 2.419-1.879 0.010-3.758 0.005-5.638 0.004 0-0.932-0.002-1.865 0.001-2.797 1.604-0.092 3.439 0.35 4.801-0.743z"></path>
<path fill="#ffef00" d="M11.182 1.463c0.248-0.258 0.496-0.522 0.817-0.689 0.164 0.091 0.335 0.18 0.467 0.317 3.498 3.504 6.992 7.010 10.498 10.506 0.236 0.187 0.36 0.554 0.078 0.763-3.559 3.56-7.112 7.126-10.675 10.682-0.184 0.244-0.544 0.235-0.725-0.006-3.445-3.434-6.872-6.886-10.319-10.319-0.224-0.209-0.444-0.43-0.557-0.721 0.142-0.234 0.318-0.446 0.521-0.63 3.308-3.29 6.596-6.604 9.895-9.904M9.764 9.88c-1.362 1.093-3.197 0.65-4.801 0.743-0.004 0.932-0.001 1.865-0.001 2.797 1.879 0.001 3.758 0.006 5.638-0.004 0.008-0.806-0.008-1.613 0.007-2.419 0.793-0.667 1.993-0.665 2.795-0.013 0.028 0.81 0.001 1.62 0.013 2.431 1.877 0.013 3.755 0.004 5.633 0.005 0.002-0.931 0.001-1.862 0-2.795-1.604-0.096-3.44 0.35-4.802-0.75-1.258-1.058-3.224-1.054-4.481 0.005z"></path>
</svg>
