<svg xmlns="http://www.w3.org/2000/svg" width="24" height="24">
    <path fill="#231f20" d="M12.288.78c.62-.103 1.254.163 1.681.611 3.102 3.097 6.204 6.196 9.298 9.3.932.832.6 2.32-.392 2.945-3.172 3.028-6.34 6.059-9.51 9.088-.688.665-1.877.611-2.534-.072-3.156-3.166-6.325-6.318-9.478-9.487-.661-.67-.618-1.859.096-2.476 3.228-3.092 6.461-6.18 9.694-9.268.313-.313.696-.582 1.146-.641zm-.253.343c-.325.121-.575.373-.823.606-3.187 3.053-6.389 6.092-9.572 9.15-.634.539-.643 1.591-.04 2.156 3.143 3.14 6.282 6.284 9.425 9.422.551.58 1.564.638 2.143.072 3.319-3.162 6.632-6.332 9.948-9.498.614-.559.566-1.601-.041-2.147-3.091-3.109-6.198-6.203-9.296-9.304-.431-.472-1.135-.686-1.744-.458z"/>
    <path fill="#231f20" d="M12.151 1.476c.64-.152 1.321.097 1.762.572 2.903 2.896 5.804 5.794 8.698 8.7.668.622.719 1.787.04 2.419-3.084 2.958-6.184 5.899-9.266 8.857-.661.682-1.85.654-2.498-.031-2.938-2.941-5.88-5.88-8.818-8.821-.672-.638-.66-1.814.036-2.43 3-2.88 6.013-5.746 9.02-8.618.289-.286.618-.562 1.027-.648zm.121.362c-.385.065-.674.348-.946.607-2.981 2.861-5.983 5.699-8.957 8.567-.548.478-.558 1.388-.038 1.892l8.824 8.82c.504.541 1.445.571 1.961.031 3.085-2.954 6.181-5.897 9.264-8.852.532-.496.488-1.4-.036-1.885-2.89-2.91-5.8-5.803-8.699-8.706-.346-.368-.868-.587-1.373-.474z"/>
    <path fill="#231f20" d="M10.69 4.578c1.114.007 2.227.007 3.34 0 .001 1.903-.013 3.806.007 5.71 1.908.016 3.818-.029 5.726.022-.006 1.116 0 2.233-.004 3.35-1.909.014-3.82-.002-5.729.008-.006 1.902-.004 3.803-.001 5.705-1.112.005-2.226.004-3.34 0-.002-1.902.017-3.804-.01-5.705-1.909-.01-3.82.005-5.729-.007a943.042 943.042 0 0 1 0-3.364c1.907-.022 3.812-.002 5.719-.01.049-1.902.01-3.806.019-5.71z"/>
    <path fill="#fff100" d="M12.035 1.123c.608-.228 1.313-.013 1.744.458 3.098 3.101 6.205 6.194 9.296 9.304.607.546.655 1.588.041 2.147-3.316 3.166-6.629 6.336-9.948 9.498-.58.566-1.592.508-2.143-.072-3.143-3.138-6.282-6.282-9.425-9.422-.604-.565-.594-1.618.04-2.156 3.184-3.058 6.385-6.097 9.572-9.15.248-.233.498-.485.823-.606zm.116.353c-.409.086-.738.362-1.027.648-3.007 2.873-6.02 5.738-9.02 8.618-.696.616-.708 1.792-.036 2.43 2.938 2.941 5.88 5.88 8.818 8.821.648.685 1.837.713 2.498.031 3.083-2.958 6.182-5.899 9.266-8.857.679-.632.629-1.798-.04-2.419a3567.243 3567.243 0 0 0-8.698-8.7c-.44-.475-1.122-.725-1.762-.572z"/>
    <path fill="#fff100" d="M12.272 1.838c.505-.113 1.027.106 1.373.474 2.899 2.903 5.809 5.796 8.699 8.706.524.485.568 1.39.036 1.885-3.083 2.956-6.179 5.898-9.264 8.852-.516.54-1.457.51-1.961-.031l-8.824-8.82c-.52-.504-.51-1.415.038-1.892 2.974-2.868 5.976-5.706 8.957-8.567.271-.259.56-.542.946-.607zm-1.582 2.74c-.01 1.903.03 3.808-.019 5.71-1.907.007-3.812-.012-5.719.01a943.042 943.042 0 0 0 0 3.364c1.909.012 3.82-.002 5.729.007.026 1.901.007 3.803.01 5.705 1.114.004 2.227.005 3.34 0-.002-1.902-.005-3.803.001-5.705 1.909-.011 3.82.006 5.729-.008.004-1.117-.002-2.234.004-3.35-1.908-.05-3.818-.006-5.726-.022-.02-1.903-.006-3.806-.007-5.71-1.112.007-2.226.007-3.34 0z"/>
</svg>
