<svg xmlns="http://www.w3.org/2000/svg" width="24" height="24">
    <path fill="#c6a519" opacity=".78" d="M11.796 0h.456c.523.294.91.761 1.332 1.176l9.299 9.3c.386.388.798.757 1.117 1.206v.685c-3.23 3.401-6.625 6.652-9.919 9.994-.566.545-1.085 1.14-1.693 1.639h-.707c-3.43-3.257-6.707-6.682-10.076-10.003-.538-.565-1.148-1.067-1.604-1.705v-.481c.242-.473.658-.814 1.025-1.184l9.54-9.541c.389-.385.748-.814 1.231-1.085zm-.11.28C7.912 3.898 4.28 7.679.554 11.354c-.365.277-.508.85-.144 1.19 3.676 3.686 7.362 7.363 11.042 11.047.281.34.827.368 1.114.02 3.684-3.68 7.367-7.362 11.046-11.046.344-.29.312-.828-.022-1.112-3.634-3.648-7.283-7.282-10.918-10.93-.239-.272-.649-.442-.986-.244z"/>
    <path d="M11.686.28c.337-.198.748-.029.986.244 3.635 3.648 7.284 7.282 10.918 10.93.334.284.366.822.022 1.112a12781.78 12781.78 0 0 1-11.046 11.046c-.287.348-.833.319-1.114-.02C7.772 19.908 4.085 16.231.41 12.545c-.364-.341-.221-.913.144-1.19C4.28 7.681 7.912 3.899 11.686.281zm.339.248c-.211.006-.35.194-.499.319C7.933 4.453 4.324 8.043.731 11.651c-.235.18-.275.53-.022.715C4.37 16.028 8.03 19.693 11.696 23.35c.186.245.521.193.695-.035l10.925-10.924c.272-.197.239-.568-.018-.762-3.599-3.604-7.205-7.2-10.801-10.806-.14-.116-.274-.293-.472-.295z"/>
    <path d="M8.081 8.071c.386-.33 1.049.018.985.523-.114.646-.354 1.262-.509 1.9 3.93.006 7.859-.001 11.789.002-.002.996.012 1.991-.008 2.987-3.931-.007-7.861-.001-11.792-.004.158.631.394 1.243.506 1.884.065.539-.653.871-1.04.503l-5.309-3.872a415.081 415.081 0 0 1 5.378-3.923z"/>
    <path fill="#ffd520" d="M12.025.528c.198.002.331.179.472.295 3.596 3.606 7.202 7.202 10.801 10.806.257.194.29.565.018.762L12.391 23.315c-.174.228-.509.28-.695.035C8.03 19.694 4.37 16.029.709 12.366c-.253-.185-.214-.535.022-.715C4.324 8.044 7.933 4.453 11.526.847c.149-.125.288-.313.499-.319zM8.081 8.071a415.081 415.081 0 0 0-5.378 3.923l5.309 3.872c.388.368 1.105.036 1.04-.503-.113-.641-.348-1.253-.506-1.884 3.931.002 7.861-.004 11.792.004.02-.996.006-1.991.008-2.987-3.93-.004-7.859.004-11.789-.002.155-.637.395-1.254.509-1.9.064-.505-.599-.853-.985-.523z"/>
</svg>
