<?xml version="1.0" encoding="utf-8"?>
<!-- Generated by IcoMoon.io -->
<!DOCTYPE svg PUBLIC "-//W3C//DTD SVG 1.1//EN" "http://www.w3.org/Graphics/SVG/1.1/DTD/svg11.dtd">
<svg version="1.1" xmlns="http://www.w3.org/2000/svg" xmlns:xlink="http://www.w3.org/1999/xlink" width="27" height="24" viewBox="0 0 27 24">
<path fill="#ed1c24" d="M1.863 23.99c-0.564 0.057-0.89-0.124-1.273-0.544-0.687-0.679-0.789-1.699-0.225-2.446l11.371-20.069c0.034-0.091-0.079 0.102-0.034 0.023 0.237-0.396 0.609-0.714 1.060-0.861 0.856-0.272 1.701 0.068 2.141 0.815l11.528 20.352c0.281 0.476 0.27 0.94 0.079 1.484-0.293 0.793-1.037 1.257-1.837 1.246h-22.809z"></path>
<path fill="#fff" d="M3.565 20.944l9.489-16.739 9.489 16.739z"></path>
<path fill="#120c0e" d="M8.985 19.913c-0.259 0-0.428-0.283-0.293-0.51s0.451-0.226 0.586 0c0.135 0.227-0.034 0.51-0.293 0.51z"></path>
<path fill="#120c0e" d="M9.909 19.913c-0.259 0-0.417-0.283-0.293-0.51s0.451-0.226 0.575 0c0.124 0.227-0.033 0.51-0.281 0.51z"></path>
<path fill="#120c0e" d="M16.547 19.913c-0.27 0-0.439-0.283-0.304-0.51s0.462-0.226 0.597 0c0.135 0.227-0.034 0.51-0.293 0.51z"></path>
<path fill="#120c0e" d="M17.448 19.913c-0.259 0-0.428-0.283-0.293-0.51s0.451-0.226 0.586 0c0.135 0.227-0.034 0.51-0.293 0.51z"></path>
<path fill="#120c0e" d="M20.469 20.207h-14.515v-0.317h14.515v0.317z"></path>
<path fill="#120c0e" d="M6.427 19.573h1.837l0.293-0.475h1.758l0.271 0.475h5.274l0.248-0.464h1.758l0.281 0.521h1.837v-0.125h0.146v-0.306h-0.135v-1.37l-0.665-1.608h-1.623v-0.181h-8.982v0.102h-0.586l-0.372-0.17h-0.643l-0.112 0.17-0.642 1.676v1.28h-0.135v0.328h0.192z"></path>
<path fill="#fff" d="M10.709 17.852h-2.164v-1.348h2.164v1.348z"></path>
<path fill="#fff" d="M13.087 17.852h-2.175v-1.348h2.175v1.348z"></path>
<path fill="#fff" d="M15.454 17.852h-2.186v-1.348h2.186v1.348z"></path>
<path fill="#fff" d="M17.82 17.852h-2.186v-1.348h2.186v1.348z"></path>
<path fill="#fff" d="M18.474 17.852h-0.327v-1.348h0.327v1.348z"></path>
<path fill="#fff" d="M18.902 17.852h-0.315v-1.348h0.315v1.348z"></path>
<path fill="#fff" d="M8.253 17.852h-0.327v-1.348h0.327v1.348z"></path>
<path fill="#fff" d="M7.813 17.852h-0.327v-1.348h0.327v1.348z"></path>
<path fill="#fff" d="M6.574 17.863l0.53-1.348h0.248v1.348z"></path>
<path fill="#fff" d="M19.849 17.84l-0.564-1.337h-0.237v1.337z"></path>
<path fill="#120c0e" d="M8.478 15.19c-0.101 0-0.158-0.102-0.112-0.181s0.169-0.079 0.214 0c0.045 0.079-0.011 0.181-0.101 0.181z"></path>
<path fill="#120c0e" d="M9.955 14.341c-0.101 0-0.169-0.102-0.113-0.181 0.045-0.079 0.169-0.079 0.214 0 0.056 0.079-0.011 0.181-0.101 0.181z"></path>
<path fill="#120c0e" d="M11.284 15.236c-0.090 0-0.135-0.102-0.101-0.181 0.045-0.079 0.158-0.079 0.203 0s-0.011 0.181-0.101 0.181z"></path>
</svg>
