<?xml version="1.0" encoding="utf-8"?>
<!-- Generated by IcoMoon.io -->
<!DOCTYPE svg PUBLIC "-//W3C//DTD SVG 1.1//EN" "http://www.w3.org/Graphics/SVG/1.1/DTD/svg11.dtd">
<svg version="1.1" xmlns="http://www.w3.org/2000/svg" xmlns:xlink="http://www.w3.org/1999/xlink" width="24" height="24" viewBox="0 0 24 24">
<path fill="#c31926" d="M10.574 2.528c0.223-0.407 0.493-0.848 0.968-0.986 0.641-0.252 1.399 0.091 1.705 0.691 3.419 5.902 6.824 11.812 10.242 17.714 0.247 0.428 0.559 0.886 0.476 1.406-0.071 0.636-0.624 1.148-1.256 1.206h-21.395c-0.99-0.029-1.642-1.24-1.108-2.078 3.446-5.989 6.914-11.966 10.367-17.953M11.726 2.96c-3.44 5.96-6.886 11.917-10.328 17.876-0.052 0.145-0.294 0.374-0.076 0.492 1.237 0.037 2.477 0.004 3.715 0.016 5.88-0.010 11.761 0.019 17.64-0.014l0.085-0.092c-0.245-0.677-0.704-1.273-1.039-1.915-3.215-5.552-6.408-11.118-9.638-16.661-0.184 0.002-0.282 0.155-0.359 0.299z"></path>
<path fill="#fff" d="M11.726 2.96c0.077-0.144 0.175-0.296 0.359-0.299 3.23 5.543 6.424 11.108 9.638 16.661 0.335 0.642 0.794 1.238 1.039 1.915l-0.085 0.092c-5.879 0.034-11.76 0.005-17.64 0.014-1.238-0.012-2.478 0.022-3.715-0.016-0.218-0.118 0.024-0.347 0.076-0.492 3.443-5.959 6.888-11.916 10.328-17.876M10.914 6.335c0.023 0.646-0.040 1.296 0.034 1.939 0.304 0.836 1.272 1.267 1.463 2.168 0.102 0.344-0.128 0.655-0.367 0.876-0.858 0.75-1.898 1.288-2.652 2.155-0.526 0.563-0.776 1.368-0.576 2.122 0.194 1.031 1.088 1.667 1.738 2.41 0.595 0.654 0.287 1.6 0.362 2.392 0.356-0.366 0.721-0.725 1.082-1.086 0.36 0.362 0.73 0.716 1.084 1.085-0.025-0.752 0.055-1.513-0.044-2.261-0.343-1.096-1.446-1.69-1.99-2.663-0.118-0.238-0.196-0.539-0.047-0.78 0.251-0.448 0.682-0.751 1.063-1.080 0.799-0.664 1.71-1.25 2.276-2.143 0.448-0.68 0.253-1.588-0.174-2.228-0.307-0.49-0.82-0.835-1.045-1.375-0.086-0.504-0.019-1.021-0.037-1.53-0.354-0.371-0.722-0.726-1.086-1.087-0.364 0.361-0.727 0.719-1.084 1.087z"></path>
<path fill="#000" d="M10.914 6.335c0.356-0.368 0.72-0.726 1.084-1.087 0.364 0.361 0.732 0.716 1.086 1.087 0.018 0.509-0.049 1.026 0.037 1.53 0.226 0.54 0.738 0.886 1.045 1.375 0.427 0.641 0.622 1.548 0.174 2.228-0.566 0.893-1.477 1.48-2.276 2.143-0.382 0.329-0.812 0.632-1.063 1.080-0.149 0.241-0.071 0.542 0.047 0.78 0.544 0.973 1.646 1.567 1.99 2.663 0.1 0.748 0.019 1.508 0.044 2.261-0.354-0.368-0.724-0.722-1.084-1.085-0.361 0.361-0.726 0.72-1.082 1.086-0.076-0.792 0.233-1.738-0.362-2.392-0.649-0.743-1.543-1.379-1.738-2.41-0.2-0.754 0.050-1.559 0.576-2.122 0.754-0.868 1.794-1.405 2.652-2.155 0.239-0.221 0.469-0.532 0.367-0.876-0.191-0.901-1.159-1.332-1.463-2.168-0.073-0.643-0.011-1.294-0.034-1.939z"></path>
</svg>
