<?xml version="1.0" encoding="utf-8"?>
<!-- Generated by IcoMoon.io -->
<!DOCTYPE svg PUBLIC "-//W3C//DTD SVG 1.1//EN" "http://www.w3.org/Graphics/SVG/1.1/DTD/svg11.dtd">
<svg version="1.1" xmlns="http://www.w3.org/2000/svg" xmlns:xlink="http://www.w3.org/1999/xlink" width="24" height="24" viewBox="0 0 24 24">
<path fill="#000" d="M11.842 0h0.277c0.336 0.041 0.625 0.224 0.853 0.467 3.539 3.542 7.081 7.081 10.621 10.622 0.222 0.206 0.342 0.49 0.407 0.781v0.209c-0.054 0.28-0.148 0.563-0.36 0.764-3.575 3.587-7.16 7.164-10.739 10.747-0.203 0.221-0.481 0.348-0.772 0.409h-0.228c-0.307-0.046-0.598-0.178-0.81-0.408-3.58-3.583-7.162-7.164-10.739-10.748-0.193-0.185-0.292-0.438-0.353-0.692v-0.281c0.053-0.524 0.48-0.86 0.826-1.207 3.401-3.401 6.802-6.8 10.201-10.202 0.218-0.233 0.496-0.407 0.815-0.461M11.659 0.512c-0.22 0.128-0.386 0.326-0.568 0.502-3.458 3.462-6.922 6.918-10.38 10.38-0.335 0.282-0.376 0.845-0.048 1.148 3.576 3.581 7.158 7.157 10.734 10.738 0.278 0.334 0.835 0.371 1.141 0.054 3.5-3.497 6.996-6.998 10.496-10.495 0.198-0.21 0.467-0.398 0.509-0.707 0.066-0.306-0.098-0.596-0.317-0.797-3.546-3.536-7.084-7.084-10.631-10.62-0.228-0.26-0.622-0.359-0.937-0.203z"></path>
<path fill="#000" d="M13.56 5.31c0.066-0.133 0.131-0.265 0.197-0.398 0.258 0.632 0.544 1.254 0.791 1.891-0.696-0.048-1.392-0.101-2.088-0.151 0.122-0.13 0.245-0.26 0.367-0.39-0.905-0.288-1.921-0.044-2.623 0.586-0.176-0.356-0.346-0.716-0.518-1.074 1.088-0.838 2.62-1.022 3.875-0.463z"></path>
<path fill="#000" d="M11.575 10.031c1.075-0.264 2.25 0.533 2.406 1.628 0.215 1.088-0.635 2.227-1.739 2.334-1.062 0.16-2.135-0.677-2.243-1.745-0.152-1.002 0.58-2.033 1.576-2.218z"></path>
<path fill="#000" d="M4.94 14.125c0.414-0.546 0.823-1.094 1.244-1.636 0.3 0.637 0.612 1.267 0.91 1.906-0.132-0.034-0.395-0.1-0.526-0.133 0.2 0.935 0.922 1.699 1.823 2.002-0.226 0.328-0.448 0.658-0.673 0.985-1.277-0.539-2.194-1.776-2.351-3.152-0.143 0.010-0.286 0.019-0.427 0.029z"></path>
<path fill="#000" d="M17.446 13.123c0.397 0.031 0.793 0.060 1.19 0.090 0.182 1.367-0.432 2.774-1.536 3.592 0.080 0.122 0.161 0.244 0.242 0.366-0.677-0.104-1.36-0.161-2.039-0.256 0.391-0.58 0.784-1.158 1.18-1.734 0.052 0.172 0.103 0.343 0.155 0.515 0.69-0.647 1.014-1.645 0.808-2.573z"></path>
<path fill="#ffeb00" d="M11.659 0.512c0.316-0.156 0.709-0.058 0.937 0.203 3.547 3.536 7.085 7.084 10.631 10.62 0.218 0.2 0.383 0.491 0.317 0.797-0.042 0.308-0.311 0.497-0.509 0.707-3.5 3.497-6.996 6.998-10.496 10.495-0.306 0.317-0.863 0.28-1.141-0.054-3.576-3.581-7.158-7.157-10.734-10.738-0.328-0.304-0.287-0.866 0.048-1.148 3.458-3.462 6.922-6.918 10.38-10.38 0.181-0.175 0.348-0.373 0.568-0.502M13.56 5.31c-1.255-0.559-2.786-0.374-3.875 0.463 0.173 0.358 0.342 0.718 0.518 1.074 0.702-0.63 1.718-0.874 2.623-0.586-0.122 0.13-0.245 0.26-0.367 0.39 0.696 0.050 1.392 0.103 2.088 0.151-0.247-0.637-0.533-1.259-0.791-1.891-0.066 0.133-0.131 0.265-0.197 0.398M11.575 10.031c-0.996 0.185-1.728 1.216-1.576 2.218 0.108 1.068 1.181 1.904 2.243 1.745 1.104-0.107 1.954-1.246 1.739-2.334-0.156-1.096-1.331-1.892-2.406-1.628M4.94 14.125c0.142-0.010 0.284-0.019 0.427-0.029 0.157 1.376 1.074 2.614 2.351 3.152 0.226-0.328 0.448-0.658 0.673-0.985-0.901-0.302-1.622-1.067-1.823-2.002 0.131 0.034 0.394 0.1 0.526 0.133-0.298-0.638-0.61-1.268-0.91-1.906-0.421 0.541-0.83 1.090-1.244 1.636M17.446 13.123c0.206 0.928-0.118 1.926-0.808 2.573-0.052-0.172-0.103-0.343-0.155-0.515-0.396 0.576-0.788 1.154-1.18 1.734 0.679 0.095 1.362 0.151 2.039 0.256-0.082-0.122-0.162-0.244-0.242-0.366 1.104-0.817 1.718-2.225 1.536-3.592-0.397-0.030-0.793-0.059-1.19-0.090z"></path>
</svg>
