<!-- Generated by IcoMoon.io -->
<svg version="1.1" xmlns="http://www.w3.org/2000/svg" width="24" height="24" viewBox="0 0 24 24">
<title>warning--sand--g1</title>
<path fill="#c0111e" d="M11.821 1.38h0.335c0.529 0.070 1.010 0.389 1.258 0.865 3.438 5.964 6.875 11.928 10.312 17.893 0.227 0.378 0.33 0.84 0.217 1.274-0.142 0.625-0.694 1.108-1.322 1.207h-21.192c-0.731-0.076-1.331-0.684-1.428-1.406v-0.332c0.042-0.265 0.133-0.52 0.268-0.751 3.439-5.962 6.874-11.926 10.313-17.886 0.247-0.468 0.72-0.786 1.241-0.864M10.164 7.217c-2.548 4.429-5.111 8.85-7.652 13.283 6.323 0 12.644 0 18.967 0-3.15-5.488-6.316-10.966-9.473-16.45-0.64 1.040-1.224 2.113-1.842 3.167z"></path>
<path fill="#fff" d="M10.164 7.217c0.618-1.054 1.202-2.126 1.842-3.167 3.157 5.484 6.323 10.962 9.473 16.45-6.323 0-12.644 0-18.967 0 2.542-4.433 5.105-8.854 7.652-13.283M5.662 16.95c0.337 0.752 1.351 0.817 1.744 1.522 0.253 0.541-0.392 1.134-0.919 0.898-0.314-0.098-0.425-0.439-0.462-0.733-0.234 0-0.468 0-0.702 0.001-0.010 0.751 0.638 1.451 1.408 1.408 0.836 0.059 1.609-0.786 1.382-1.616-0.19-0.772-0.978-1.112-1.594-1.488-0.372-0.178-0.295-0.76 0.084-0.874 0.367-0.173 0.818 0.062 0.877 0.466 0.224 0 0.45-0.001 0.676-0.002-0.014-0.816-0.916-1.362-1.663-1.115-0.653 0.143-1.115 0.904-0.83 1.535M9.619 15.437c-0.42 1.511-0.841 3.022-1.258 4.534 0.241 0.001 0.484 0.001 0.727 0.001 0.109-0.414 0.221-0.827 0.336-1.24 0.36 0 0.72 0 1.080 0 0.121 0.412 0.238 0.824 0.353 1.238 0.242 0.001 0.485 0.001 0.727 0.001-0.416-1.512-0.836-3.024-1.258-4.536-0.236 0-0.473 0-0.708 0.001M12.031 15.437c0 1.511 0 3.023 0 4.535 0.242 0 0.485 0 0.727 0 0.001-1.012 0-2.024 0-3.036 0.521 1.010 1.042 2.022 1.558 3.035 0.184 0.001 0.368 0.001 0.552 0.001 0-1.512 0.001-3.024 0-4.536-0.242 0-0.485 0-0.726 0.001-0.001 0.906 0 1.812-0.001 2.718-0.454-0.902-0.925-1.796-1.367-2.705-0.247-0.016-0.496-0.018-0.743-0.013M15.72 15.436c-0.001 1.512-0.001 3.024 0 4.536 0.523-0.006 1.046 0.016 1.568-0.010 0.544-0.038 0.947-0.511 1.1-1.003 0.241-0.794 0.198-1.651 0.016-2.452-0.11-0.475-0.439-0.959-0.953-1.038-0.575-0.064-1.154-0.020-1.732-0.034z"></path>
<path fill="#fff" d="M16.447 16.076c0.396 0.020 0.941-0.109 1.18 0.305 0.25 0.478 0.211 1.043 0.212 1.565-0.036 0.431 0.008 0.961-0.367 1.26-0.302 0.202-0.684 0.104-1.024 0.126-0.002-1.085-0.001-2.171-0.001-3.256z"></path>
<path fill="#fff" d="M9.604 18.092c0.12-0.419 0.205-0.847 0.358-1.255 0.134 0.414 0.246 0.835 0.365 1.254-0.241 0.001-0.481 0.001-0.722 0.001z"></path>
<path fill="#000" d="M5.662 16.95c-0.284-0.631 0.178-1.392 0.83-1.535 0.748-0.247 1.649 0.299 1.663 1.115-0.226 0.001-0.451 0.002-0.676 0.002-0.059-0.403-0.51-0.638-0.877-0.466-0.379 0.114-0.456 0.696-0.084 0.874 0.616 0.376 1.404 0.716 1.594 1.488 0.227 0.83-0.546 1.675-1.382 1.616-0.769 0.043-1.417-0.656-1.408-1.408 0.234-0.001 0.468-0.001 0.702-0.001 0.037 0.294 0.148 0.635 0.462 0.733 0.527 0.236 1.172-0.356 0.919-0.898-0.392-0.704-1.406-0.769-1.744-1.522z"></path>
<path fill="#000" d="M9.619 15.437c0.235-0.001 0.472-0.001 0.708-0.001 0.421 1.512 0.841 3.024 1.258 4.536-0.242 0-0.485 0-0.727-0.001-0.115-0.414-0.232-0.827-0.353-1.238-0.36 0-0.72 0-1.080 0-0.115 0.413-0.227 0.826-0.336 1.24-0.244 0-0.486 0-0.727-0.001 0.416-1.512 0.838-3.023 1.258-4.534M9.604 18.092c0.241 0 0.481 0 0.722-0.001-0.119-0.419-0.23-0.84-0.365-1.254-0.152 0.408-0.238 0.836-0.358 1.255z"></path>
<path fill="#000" d="M12.031 15.437c0.247-0.005 0.496-0.002 0.743 0.013 0.442 0.908 0.913 1.802 1.367 2.705 0.001-0.906 0-1.812 0.001-2.718 0.241-0.001 0.484-0.001 0.726-0.001 0.001 1.512 0 3.024 0 4.536-0.184 0-0.368 0-0.552-0.001-0.516-1.013-1.037-2.024-1.558-3.035 0 1.012 0.001 2.024 0 3.036-0.242 0-0.485 0-0.727 0 0-1.512 0-3.024 0-4.535z"></path>
<path fill="#000" d="M15.72 15.436c0.577 0.013 1.157-0.030 1.732 0.034 0.514 0.079 0.842 0.563 0.953 1.038 0.182 0.8 0.226 1.657-0.016 2.452-0.154 0.492-0.557 0.965-1.1 1.003-0.522 0.025-1.045 0.004-1.568 0.010-0.001-1.512-0.001-3.024 0-4.536M16.447 16.076c0 1.085-0.001 2.171 0.001 3.256 0.34-0.022 0.721 0.076 1.024-0.126 0.376-0.299 0.331-0.829 0.367-1.26-0.001-0.522 0.037-1.087-0.212-1.565-0.239-0.414-0.784-0.284-1.18-0.305z"></path>
</svg>
