<?xml version="1.0" encoding="utf-8"?>
<!-- Generated by IcoMoon.io -->
<!DOCTYPE svg PUBLIC "-//W3C//DTD SVG 1.1//EN" "http://www.w3.org/Graphics/SVG/1.1/DTD/svg11.dtd">
<svg version="1.1" xmlns="http://www.w3.org/2000/svg" xmlns:xlink="http://www.w3.org/1999/xlink" width="24" height="24" viewBox="0 0 24 24">
<path fill="#cd1e00" d="M11.177 2.052c0.167-0.307 0.443-0.601 0.821-0.594 0.378-0.018 0.668 0.268 0.835 0.578 3.462 6.019 6.929 12.036 10.392 18.055 0.265 0.47 0.566 0.925 0.775 1.426v0.323c-0.151 0.653-0.871 0.738-1.434 0.72h-20.768c-0.269-0.017-0.805-0.052-1.074-0.070-0.62-0.040-0.898-0.836-0.551-1.31 3.661-6.379 7.342-12.749 11.004-19.128M3.768 19.982c5.495 0.004 10.99 0.001 16.484 0-2.747-4.766-5.485-9.538-8.242-14.299-2.759 4.759-5.495 9.533-8.243 14.299z"></path>
<path fill="#000" d="M3.768 19.982c2.748-4.766 5.484-9.54 8.243-14.299 2.756 4.762 5.495 9.533 8.242 14.299-5.495 0.001-10.99 0.004-16.484 0M7.754 13.573c0.012 0.103 0.037 0.312 0.050 0.416 0.438-0.378 0.907 0.256 0.637 0.666-0.115 0.016-0.346 0.048-0.462 0.064 0.349 0.095 0.785-0.067 1.060 0.222 0.355 0.372 0.901 0.437 1.277 0.782 0.325 0.294 0.762 0.419 1.099 0.692 0.336 0.446 0.342 1.054 0.356 1.59 0.002 0.389-0.407 0.497-0.637 0.726 0.282 0.088 0.541 0.337 0.852 0.281 0.282-0.37 0.751-0.731 0.696-1.242-0.196-0.38-0.491-0.698-0.702-1.069 0.151 0.074 0.336 0.114 0.428 0.27 0.262 0.392 0.574 0.788 0.647 1.267 0.113 0.394-0.383 0.562-0.392 0.934 0.098-0.073 0.294-0.221 0.392-0.295-0.078 0.094-0.234 0.281-0.311 0.374l0.32-0.144c0.064 0.33 0.51 0.158 0.566-0.074 0.13-0.356 0.43-0.647 0.457-1.038 0.050-0.604 0.174-1.242-0.106-1.811 0.491 0.197 0.343 0.778 0.371 1.193 0.476 0.157 0.96 0.307 1.463 0.356-0.176-0.386-0.391-0.751-0.62-1.106 0.476 0.106 0.52 0.654 0.817 0.96 0.246 0.269 0.487 0.562 0.522 0.941-0.137 0.173-0.258 0.366-0.247 0.595 0.062-0.062 0.188-0.187 0.251-0.25l0.038 0.319c0.046-0.078 0.137-0.235 0.182-0.313 0.024 0.065 0.070 0.194 0.092 0.259 0.166-0.071 0.348-0.114 0.493-0.226 0.299-0.594-0.019-1.25 0.066-1.876 0.064-0.448-0.128-0.866-0.313-1.261 0.030-0.035 0.089-0.104 0.119-0.139-0.332-0.372-0.654-0.781-1.1-1.022-0.613-0.27-1.301-0.235-1.955-0.217-0.607 0.030-1.188-0.178-1.788-0.227-0.814-0.072-1.655-0.101-2.419-0.421l0.068-0.115c-0.094 0.049-0.187 0.098-0.281 0.149l0.22 0.068c0.154 0.343-0.27 0.373-0.442 0.191 0.078-0.018 0.235-0.054 0.314-0.072-0.157-0.182-0.246-0.458-0.504-0.523-0.523-0.186-1.052 0.079-1.577 0.126M14.77 17.735c0.017 0.205 0.032 0.412 0.042 0.618-0.12 0.155-0.234 0.313-0.337 0.48 0.073-0.042 0.222-0.125 0.295-0.166l0.016 0.238c0.043-0.042 0.127-0.127 0.169-0.169 0.122 0.211 0.392 0.194 0.575 0.071 0.074-0.301 0.161-0.6 0.319-0.87-0.361-0.056-0.721-0.124-1.079-0.202z"></path>
<path fill="#000" d="M8.585 13.562c0.108-0.136 0.418 0.016 0.268 0.175-0.11 0.142-0.402-0.012-0.268-0.175z"></path>
<path fill="#fff" d="M7.754 13.573c0.524-0.047 1.054-0.312 1.577-0.126 0.258 0.065 0.347 0.341 0.504 0.523-0.079 0.018-0.236 0.054-0.314 0.072 0.172 0.182 0.595 0.152 0.442-0.191l-0.22-0.068c0.094-0.050 0.187-0.1 0.281-0.149l-0.068 0.115c0.764 0.32 1.606 0.349 2.419 0.421 0.6 0.049 1.181 0.257 1.788 0.227 0.654-0.018 1.342-0.053 1.955 0.217 0.446 0.241 0.768 0.65 1.1 1.022-0.030 0.035-0.089 0.104-0.119 0.139 0.185 0.395 0.377 0.814 0.313 1.261-0.085 0.625 0.233 1.282-0.066 1.876-0.145 0.112-0.328 0.155-0.493 0.226-0.023-0.065-0.068-0.194-0.092-0.259-0.046 0.078-0.137 0.235-0.182 0.313l-0.038-0.319c-0.062 0.062-0.188 0.187-0.251 0.25-0.011-0.229 0.11-0.422 0.247-0.595-0.035-0.379-0.276-0.672-0.522-0.941-0.298-0.306-0.341-0.854-0.817-0.96 0.229 0.355 0.444 0.72 0.62 1.106-0.503-0.049-0.986-0.199-1.463-0.356-0.028-0.415 0.12-0.996-0.371-1.193 0.28 0.569 0.156 1.207 0.106 1.811-0.028 0.391-0.328 0.682-0.457 1.038-0.056 0.233-0.503 0.404-0.566 0.074l-0.32 0.144c0.077-0.094 0.233-0.281 0.311-0.374-0.098 0.074-0.294 0.222-0.392 0.295 0.010-0.372 0.505-0.54 0.392-0.934-0.073-0.479-0.385-0.875-0.647-1.267-0.092-0.156-0.277-0.196-0.428-0.27 0.211 0.371 0.506 0.689 0.702 1.069 0.055 0.511-0.414 0.872-0.696 1.242-0.311 0.056-0.57-0.193-0.852-0.281 0.23-0.229 0.64-0.337 0.637-0.726-0.014-0.536-0.020-1.144-0.356-1.59-0.337-0.274-0.774-0.398-1.099-0.692-0.376-0.346-0.922-0.41-1.277-0.782-0.275-0.289-0.71-0.127-1.060-0.222 0.116-0.016 0.347-0.048 0.462-0.064 0.27-0.41-0.199-1.044-0.637-0.666-0.013-0.104-0.038-0.313-0.050-0.416M8.585 13.562c-0.134 0.163 0.157 0.317 0.268 0.175 0.15-0.16-0.16-0.311-0.268-0.175z"></path>
<path fill="#fff" d="M14.77 17.735c0.358 0.078 0.718 0.145 1.079 0.202-0.158 0.27-0.245 0.569-0.319 0.87-0.182 0.124-0.452 0.14-0.575-0.071-0.042 0.042-0.126 0.127-0.169 0.169l-0.016-0.238c-0.073 0.041-0.222 0.124-0.295 0.166 0.103-0.167 0.217-0.325 0.337-0.48-0.010-0.206-0.025-0.413-0.042-0.618z"></path>
</svg>
