<?xml version="1.0" encoding="utf-8"?>
<!-- Generated by IcoMoon.io -->
<!DOCTYPE svg PUBLIC "-//W3C//DTD SVG 1.1//EN" "http://www.w3.org/Graphics/SVG/1.1/DTD/svg11.dtd">
<svg version="1.1" xmlns="http://www.w3.org/2000/svg" xmlns:xlink="http://www.w3.org/1999/xlink" width="24" height="24" viewBox="0 0 24 24">
<path fill="#ed1c24" d="M11.891 1.5h0.16c0.443 0.024 0.85 0.277 1.058 0.67 3.413 5.873 6.821 11.748 10.235 17.621 0.191 0.341 0.424 0.665 0.553 1.037 0.22 0.677-0.266 1.488-0.982 1.574-0.436 0.043-0.874 0.013-1.309 0.018-6.763 0-13.526 0-20.288 0.001-0.692 0.055-1.238-0.563-1.318-1.211v-0.233c0.038-0.224 0.11-0.443 0.226-0.641 3.599-6.043 7.204-12.085 10.801-18.13 0.191-0.33 0.458-0.659 0.864-0.707M3.677 19.723c5.536 0.001 11.071 0.001 16.606 0-2.765-4.787-5.531-9.572-8.303-14.356-2.771 4.783-5.538 9.569-8.303 14.356z"></path>
<path fill="#fff" d="M3.677 19.723c2.765-4.787 5.532-9.572 8.303-14.356 2.772 4.783 5.538 9.569 8.303 14.356-5.534 0.001-11.070 0.001-16.606 0M11.028 13.284c-0.019 0.084-0.058 0.251-0.077 0.335 0.113 0.088 0.226 0.174 0.34 0.262 0.254-0.086 0.568-0.212 0.794 0.006 0.258 0.187 0.21 0.526 0.121 0.787 0.647 0.492 1.28 1.001 1.933 1.487 0.257-0.092 0.582-0.194 0.803 0.036 0.26 0.203 0.108 0.564 0.122 0.838 0.343-0.041 0.625-0.312 0.682-0.648-0.251-0.278-0.55-0.505-0.821-0.761-0.424-0.294-0.032-0.954-0.422-1.262-0.442-0.356-0.886-0.712-1.331-1.063-0.33-0.277-0.774 0.005-1.154-0.061-0.239-0.12-0.452-0.283-0.677-0.428-0.102 0.16-0.206 0.317-0.313 0.474M11.342 13.928c-0.107 0.272-0.17 0.648 0.148 0.808 0.431 0.264 0.949-0.35 0.602-0.725-0.184-0.253-0.5-0.144-0.75-0.083M8.87 14.123c-0.524 1.498-1.056 2.994-1.572 4.495 3.139-0.002 6.278-0.002 9.418 0 0.001-0.498 0.004-0.995-0.004-1.493-0.353-0.017-0.682 0.104-1.009 0.216-0.332 0.122-0.631-0.132-0.943-0.204-0.344-0.054-0.643 0.168-0.966 0.245-0.347 0.037-0.62-0.263-0.961-0.258-0.342-0.013-0.625 0.222-0.958 0.263-0.26-0.025-0.472-0.2-0.72-0.266-0.362-0.049-0.68 0.161-1.004 0.28-0.004-1.092-0.004-2.185 0-3.277-0.427 0.002-0.854 0.001-1.28 0M14.22 16.206c-0.089 0.232-0.229 0.518-0.011 0.728 0.254 0.325 0.876 0.115 0.808-0.318 0.064-0.451-0.475-0.547-0.797-0.41z"></path>
<path fill="#fff" d="M12.329 13.525c0.25-0.068 0.499-0.137 0.749-0.203 0.216 0.162 0.427 0.329 0.64 0.496-0.14 0.161-0.28 0.323-0.419 0.485-0.322-0.262-0.647-0.518-0.97-0.778z"></path>
<path fill="#fff" d="M13.829 13.918c0.239 0.179 0.473 0.364 0.703 0.553 0.001 0.278-0.006 0.556-0.012 0.834-0.362-0.305-0.733-0.601-1.103-0.898 0.137-0.163 0.274-0.328 0.412-0.49z"></path>
<path fill="#fff" d="M11.587 14.167c0.263-0.222 0.522 0.374 0.149 0.328-0.197 0.104-0.248-0.223-0.149-0.328z"></path>
<path fill="#fff" d="M14.437 16.504c0.137-0.167 0.427 0.067 0.26 0.226-0.14 0.158-0.421-0.066-0.26-0.226z"></path>
<path fill="#120c0e" d="M11.028 13.284c0.107-0.157 0.211-0.314 0.313-0.474 0.224 0.145 0.438 0.308 0.677 0.428 0.38 0.066 0.824-0.216 1.154 0.061 0.445 0.352 0.889 0.707 1.331 1.063 0.39 0.308-0.001 0.968 0.422 1.262 0.271 0.256 0.57 0.482 0.821 0.761-0.056 0.336-0.338 0.607-0.682 0.648-0.014-0.274 0.138-0.635-0.122-0.838-0.221-0.23-0.546-0.128-0.803-0.036-0.653-0.486-1.286-0.995-1.933-1.487 0.089-0.262 0.137-0.6-0.121-0.787-0.227-0.218-0.54-0.092-0.794-0.006-0.114-0.088-0.227-0.174-0.34-0.262 0.019-0.084 0.058-0.251 0.077-0.335M12.329 13.525c0.323 0.259 0.648 0.516 0.97 0.778 0.139-0.162 0.278-0.324 0.419-0.485-0.212-0.167-0.424-0.334-0.64-0.496-0.25 0.066-0.499 0.134-0.749 0.203M13.829 13.918c-0.138 0.162-0.275 0.326-0.412 0.49 0.37 0.296 0.74 0.593 1.103 0.898 0.006-0.278 0.013-0.556 0.012-0.834-0.23-0.19-0.464-0.374-0.703-0.553z"></path>
<path fill="#120c0e" d="M11.342 13.928c0.25-0.061 0.566-0.17 0.75 0.083 0.347 0.374-0.172 0.989-0.602 0.725-0.318-0.16-0.254-0.535-0.148-0.808M11.587 14.167c-0.1 0.104-0.048 0.432 0.149 0.328 0.373 0.047 0.114-0.55-0.149-0.328z"></path>
<path fill="#120c0e" d="M8.87 14.123c0.426 0.001 0.853 0.002 1.28 0-0.004 1.092-0.004 2.185 0 3.277 0.324-0.119 0.642-0.329 1.004-0.28 0.248 0.066 0.46 0.241 0.72 0.266 0.332-0.041 0.616-0.276 0.958-0.263 0.341-0.005 0.614 0.295 0.961 0.258 0.323-0.077 0.622-0.299 0.966-0.245 0.312 0.072 0.611 0.326 0.943 0.204 0.328-0.112 0.656-0.233 1.009-0.216 0.007 0.498 0.005 0.995 0.004 1.493-3.139-0.002-6.278-0.002-9.418 0 0.516-1.501 1.048-2.998 1.572-4.495z"></path>
<path fill="#120c0e" d="M14.22 16.206c0.322-0.137 0.86-0.041 0.797 0.41 0.068 0.433-0.553 0.643-0.808 0.318-0.218-0.21-0.078-0.497 0.011-0.728M14.437 16.504c-0.161 0.16 0.12 0.384 0.26 0.226 0.167-0.158-0.124-0.392-0.26-0.226z"></path>
</svg>
