<?xml version="1.0" encoding="utf-8"?>
<!-- Generated by IcoMoon.io -->
<!DOCTYPE svg PUBLIC "-//W3C//DTD SVG 1.1//EN" "http://www.w3.org/Graphics/SVG/1.1/DTD/svg11.dtd">
<svg version="1.1" xmlns="http://www.w3.org/2000/svg" xmlns:xlink="http://www.w3.org/1999/xlink" width="24" height="24" viewBox="0 0 24 24">
<path fill="#c59fa1" opacity="0.97" d="M11.81 1.451h0.367c0.324 0.080 0.61 0.286 0.761 0.586 3.52 6.098 7.039 12.197 10.558 18.295 0.174 0.304 0.36 0.602 0.503 0.922v0.476c-0.106 0.417-0.453 0.746-0.877 0.819h-22.307c-0.388-0.104-0.716-0.396-0.816-0.791v-0.506c0.206-0.486 0.508-0.923 0.76-1.385 3.429-5.942 6.858-11.884 10.287-17.826 0.15-0.304 0.437-0.511 0.763-0.591M11.879 1.531c-0.367 0.080-0.686 0.335-0.827 0.684-3.525 6.12-7.057 12.236-10.588 18.353-0.178 0.323-0.44 0.643-0.412 1.032 0.074 0.439 0.445 0.87 0.922 0.836 7.324 0.006 14.649 0.001 21.973 0.003 0.54 0.056 0.982-0.434 1.001-0.949-0.049-0.478-0.415-0.83-0.615-1.248-3.437-5.969-6.894-11.931-10.325-17.905-0.191-0.445-0.609-0.878-1.129-0.805z"></path>
<path fill="#fff" d="M11.879 1.531c0.52-0.073 0.938 0.36 1.129 0.805 3.431 5.974 6.888 11.936 10.325 17.905 0.2 0.418 0.565 0.77 0.615 1.248-0.019 0.514-0.462 1.005-1.001 0.949-7.324-0.002-14.649 0.004-21.973-0.003-0.477 0.034-0.848-0.397-0.922-0.836-0.027-0.389 0.235-0.709 0.412-1.032 3.531-6.116 7.063-12.232 10.588-18.353 0.142-0.349 0.461-0.604 0.827-0.684M11.713 2.084c-0.114 0.059-0.188 0.168-0.255 0.273-3.54 6.132-7.076 12.267-10.617 18.398-0.12 0.229-0.316 0.454-0.282 0.731 0.033 0.283 0.295 0.515 0.582 0.498 7.123 0.005 14.245-0.002 21.368 0.004 0.24-0.009 0.515 0.041 0.714-0.127 0.251-0.193 0.267-0.571 0.090-0.82-3.508-6.078-7.015-12.157-10.522-18.236-0.119-0.201-0.221-0.413-0.365-0.597-0.168-0.205-0.485-0.26-0.712-0.123z"></path>
<path fill="#fff" d="M11.987 6.059c2.64 4.529 5.249 9.077 7.869 13.618-5.24 0.001-10.481 0.001-15.721 0 2.608-4.544 5.24-9.075 7.852-13.618M9.925 12.24c0 0.179 0 0.36 0 0.54 1.502-0.001 3.005 0 4.508-0.001-0.001-0.179-0.001-0.359-0.001-0.538-1.502-0.001-3.005-0.001-4.507-0.001M9.948 13.427c0 0.181-0.001 0.363-0.002 0.545 1.716 0.006 3.431-0.006 5.147 0.006 0.004-0.184 0.006-0.367 0.009-0.551-1.718 0.002-3.436 0.002-5.154 0M11.246 14.537c0 0.183 0 0.366 0 0.549 1.495 0 2.99 0 4.484-0.001-0.001-0.183-0.001-0.367-0.001-0.549-1.495 0.001-2.989 0-4.484 0.001M9.749 14.974c-0.315 0.281-0.64 0.551-0.947 0.841-0.517-0.001-1.033 0-1.549 0-0.054 0.457-0.045 0.92 0.124 1.356 0.37 0.039 0.742 0.067 1.115 0.067 0.062 0.447 0.599 0.744 1.001 0.531 0.228-0.087 0.36-0.306 0.423-0.53 0.474 0.003 0.948-0.003 1.422 0.005 0.015-0.477 0.012-0.956-0.002-1.433-0.454 0.008-0.909 0.004-1.364 0.004 0.205-0.252 0.408-0.505 0.605-0.764 0.149 0 0.298 0.001 0.447 0.002-0.040-0.075-0.082-0.149-0.122-0.224-0.296 0.004-0.593-0.008-0.889 0.002-0.113-0.016-0.187 0.081-0.265 0.143M11.664 15.669c0 0.18 0 0.36 0 0.54 1.573 0 3.145 0 4.719 0-0.001-0.18-0.001-0.36-0.001-0.54-1.573 0-3.145 0-4.718 0M11.662 16.797c0.002 0.18 0.004 0.361 0.005 0.542 1.783-0.005 3.567-0.001 5.349-0.002-0.002-0.18-0.002-0.36-0.002-0.541-1.785 0.003-3.568 0-5.353 0.001M11.663 17.93c0 0.18 0 0.36 0.001 0.541 1.575 0.004 3.151 0.002 4.726 0.001-0.001-0.182-0.001-0.363 0-0.544-1.576 0.001-3.152-0.004-4.727 0.003z"></path>
<path fill="#ce161e" d="M11.713 2.084c0.227-0.137 0.544-0.082 0.712 0.123 0.144 0.184 0.246 0.396 0.365 0.597 3.508 6.079 7.015 12.158 10.522 18.236 0.178 0.25 0.162 0.627-0.090 0.82-0.199 0.169-0.474 0.119-0.714 0.127-7.123-0.005-14.245 0.002-21.368-0.004-0.287 0.017-0.549-0.215-0.582-0.498-0.034-0.276 0.163-0.501 0.282-0.731 3.541-6.131 7.077-12.266 10.617-18.398 0.067-0.105 0.141-0.215 0.255-0.273M11.987 6.059c-2.612 4.543-5.244 9.074-7.852 13.618 5.24 0.001 10.481 0.001 15.721 0-2.62-4.542-5.229-9.089-7.869-13.618z"></path>
<path fill="#231f20" d="M9.925 12.24c1.502 0 3.005 0 4.507 0.001 0 0.179 0 0.359 0.001 0.538-1.503 0.001-3.006 0-4.508 0.001 0-0.18 0-0.36 0-0.54z"></path>
<path fill="#231f20" d="M9.948 13.427c1.718 0.002 3.436 0.002 5.154 0-0.003 0.184-0.005 0.367-0.009 0.551-1.716-0.012-3.431 0-5.147-0.006 0.001-0.182 0.002-0.364 0.002-0.545z"></path>
<path fill="#231f20" d="M11.246 14.537c1.495-0.001 2.989 0 4.484-0.001 0 0.183 0 0.367 0.001 0.549-1.495 0.001-2.99 0.001-4.484 0.001 0-0.184 0-0.367 0-0.549z"></path>
<path fill="#231f20" d="M9.749 14.974c0.078-0.062 0.152-0.159 0.265-0.143 0.296-0.010 0.593 0.002 0.889-0.002 0.040 0.075 0.082 0.149 0.122 0.224-0.149-0.001-0.299-0.002-0.447-0.002-0.197 0.258-0.4 0.512-0.605 0.764 0.455-0.001 0.909 0.004 1.364-0.004 0.014 0.477 0.017 0.956 0.002 1.433-0.475-0.008-0.949-0.003-1.422-0.005-0.063 0.224-0.195 0.443-0.423 0.53-0.403 0.213-0.94-0.084-1.001-0.531-0.373 0-0.745-0.028-1.115-0.067-0.169-0.435-0.178-0.898-0.124-1.356 0.516 0 1.032-0.001 1.549 0 0.307-0.29 0.632-0.56 0.947-0.841z"></path>
<path fill="#231f20" d="M11.664 15.669c1.573 0 3.145 0 4.718 0 0 0.18 0 0.36 0.001 0.54-1.574 0-3.146 0-4.719 0 0-0.18 0-0.36 0-0.54z"></path>
<path fill="#231f20" d="M11.662 16.797c1.785-0.001 3.568 0.002 5.353-0.001 0 0.18 0 0.36 0.002 0.541-1.783 0.001-3.567-0.004-5.349 0.002-0.002-0.18-0.004-0.361-0.005-0.542z"></path>
<path fill="#231f20" d="M11.663 17.93c1.575-0.006 3.151-0.002 4.727-0.003-0.001 0.181-0.001 0.362 0 0.544-1.575 0.001-3.151 0.003-4.726-0.001-0.001-0.181-0.001-0.36-0.001-0.541z"></path>
</svg>
