<!-- Generated by IcoMoon.io -->
<svg version="1.1" xmlns="http://www.w3.org/2000/svg" width="27" height="24" viewBox="0 0 27 24">
<title>warning--bicycles-crossing--g1</title>
<path fill="#ec1d24" d="M13.243 0h0.652c0.557 0.168 1.051 0.527 1.323 1.051 3.832 6.655 7.668 13.308 11.504 19.961 0.146 0.262 0.279 0.53 0.396 0.805v0.776c-0.205 0.687-0.751 1.228-1.448 1.407h-24.187c-0.732-0.169-1.281-0.754-1.483-1.467v-0.636c0.117-0.301 0.251-0.595 0.41-0.877 3.856-6.679 7.702-13.367 11.558-20.047 0.267-0.491 0.753-0.807 1.276-0.972M2.849 21.601c7.147 0.005 14.294 0.004 21.443 0.001-3.573-6.199-7.142-12.401-10.723-18.595-3.578 6.195-7.151 12.393-10.72 18.594z"></path>
<path fill="#fff" d="M2.849 21.601c3.569-6.201 7.142-12.399 10.72-18.594 3.581 6.194 7.15 12.396 10.723 18.595-7.148 0.003-14.296 0.004-21.443-0.001M9.902 12.343c-0.263 0.409 0.023 0.847 0.348 1.113-0.171 0.742-0.388 1.474-0.576 2.212-1.603-0.59-3.543 0.621-3.562 2.361-0.142 1.673 1.599 3.143 3.226 2.698 1.559-0.327 2.491-2.216 1.79-3.65-0.179-0.545-0.819-0.812-0.868-1.407 1.068 0.649 2.053 1.428 3.097 2.115-0.205 0.857 0.536 1.611 1.39 1.49 0.038 0.028 0.111 0.087 0.149 0.115-0.471 0.329-0.161 0.607 0.282 0.664 0.184-0.062 0.369-0.122 0.555-0.178 0.001-0.079 0.003-0.235 0.003-0.313-0.115-0.001-0.347-0.003-0.462-0.003-0.072-0.153-0.142-0.305-0.213-0.457 0.226-0.258 0.415-0.546 0.648-0.799 0.18 1.296 1.234 2.476 2.595 2.489 1.707 0.114 3.155-1.723 2.622-3.356-0.384-1.492-2.151-2.296-3.558-1.727-0.279-0.767-1.219-1.436-0.885-2.297 0.367-0.123 0.66-0.373 0.83-0.721-0.873 0.018-1.783-0.127-2.636 0.065-0.046 0.533 0.803 0.381 1.167 0.555-0.080 0.217-0.161 0.435-0.241 0.654-1.588 0.001-3.176-0.001-4.762 0 0.18-0.477 0.034-0.923-0.304-1.283 0.397-0.035 0.797-0.041 1.197-0.043 0-0.217 0-0.435 0-0.652-0.601 0.068-1.421-0.231-1.832 0.355z"></path>
<path fill="#fff" d="M10.628 14.631c1.577-0.009 3.154-0.004 4.731-0.004-0.293 0.809-0.583 1.619-0.881 2.427-0.091 0.009-0.274 0.031-0.365 0.041-0.027-0.047-0.083-0.145-0.111-0.193 0.492-0.301 0.141-0.582-0.283-0.633-0.188 0.062-0.378 0.122-0.568 0.18 0.004 0.080 0.011 0.241 0.015 0.321 0.115-0.001 0.344-0.005 0.46-0.007 0.083 0.187 0.164 0.373 0.244 0.561-1.128-0.751-2.222-1.553-3.341-2.319 0.024-0.094 0.075-0.282 0.1-0.376z"></path>
<path fill="#fff" d="M16.042 14.72c0.255 0.441 0.504 0.884 0.761 1.325-0.61 0.488-0.938 1.209-1.089 1.962-0.222-0.232-0.393-0.503-0.591-0.754 0.316-0.841 0.607-1.691 0.919-2.533z"></path>
<path fill="#fff" d="M6.888 18.031c0.042-1.258 1.454-2.042 2.591-1.62-0.085 0.717-0.537 1.269-1.036 1.752 0.111 0.408 0.583 0.22 0.831 0.061 0.513-0.283 0.635-0.89 0.803-1.399 0.789 0.872 0.629 2.404-0.454 2.955-1.2 0.732-2.894-0.357-2.735-1.748z"></path>
<path fill="#fff" d="M17.764 16.39c0.906-0.277 1.993 0.142 2.336 1.058 0.485 1.087-0.327 2.475-1.523 2.546-0.999 0.138-1.863-0.656-2.061-1.596 0.755-0.019 1.513 0.039 2.264-0.057-0.248-0.696-0.674-1.303-1.017-1.951z"></path>
<path fill="#fff" d="M16.515 17.905c0.132-0.435 0.351-0.835 0.645-1.18 0.244 0.388 0.473 0.785 0.704 1.181-0.45 0.001-0.9 0.001-1.349-0.001z"></path>
<path fill="#fff" d="M14.146 17.536c0.438-0.213 1.022 0.132 0.993 0.633 0.012 0.521-0.643 0.853-1.066 0.567-0.449-0.256-0.405-1.002 0.073-1.2z"></path>
<path fill="#000" d="M9.902 12.343c0.411-0.586 1.231-0.287 1.832-0.355 0 0.217 0 0.435 0 0.652-0.4 0.003-0.8 0.008-1.197 0.043 0.338 0.359 0.484 0.805 0.304 1.283 1.586-0.001 3.174 0.001 4.762 0 0.080-0.218 0.161-0.437 0.241-0.654-0.365-0.174-1.214-0.022-1.167-0.555 0.853-0.193 1.763-0.047 2.636-0.065-0.169 0.348-0.462 0.598-0.83 0.721-0.334 0.861 0.606 1.529 0.885 2.297 1.407-0.568 3.174 0.236 3.558 1.727 0.533 1.633-0.915 3.47-2.622 3.356-1.361-0.014-2.415-1.193-2.595-2.489-0.233 0.252-0.422 0.541-0.648 0.799 0.071 0.152 0.141 0.304 0.213 0.457 0.115 0 0.347 0.001 0.462 0.003 0 0.079-0.001 0.235-0.003 0.313-0.186 0.056-0.37 0.115-0.555 0.178-0.443-0.057-0.753-0.335-0.282-0.664-0.038-0.028-0.111-0.087-0.149-0.115-0.854 0.121-1.595-0.633-1.39-1.49-1.044-0.687-2.028-1.466-3.097-2.115 0.049 0.595 0.689 0.862 0.868 1.407 0.701 1.435-0.231 3.323-1.79 3.65-1.627 0.445-3.368-1.025-3.226-2.698 0.019-1.74 1.959-2.95 3.562-2.361 0.188-0.738 0.405-1.47 0.576-2.212-0.325-0.266-0.612-0.704-0.348-1.113M10.628 14.631c-0.026 0.094-0.076 0.282-0.1 0.376 1.119 0.766 2.213 1.567 3.341 2.319-0.080-0.188-0.161-0.374-0.244-0.561-0.115 0.001-0.344 0.005-0.46 0.007-0.004-0.080-0.011-0.241-0.015-0.321 0.19-0.058 0.38-0.118 0.568-0.18 0.424 0.052 0.776 0.332 0.283 0.633 0.028 0.047 0.084 0.145 0.111 0.193 0.091-0.009 0.274-0.031 0.365-0.041 0.298-0.808 0.588-1.618 0.881-2.427-1.577 0-3.154-0.005-4.731 0.004M16.042 14.72c-0.312 0.842-0.603 1.692-0.919 2.533 0.198 0.251 0.369 0.522 0.591 0.754 0.151-0.753 0.479-1.474 1.089-1.962-0.256-0.441-0.506-0.884-0.761-1.325M6.888 18.031c-0.159 1.391 1.535 2.48 2.735 1.748 1.083-0.551 1.243-2.083 0.454-2.955-0.168 0.51-0.29 1.116-0.803 1.399-0.248 0.159-0.72 0.347-0.831-0.061 0.499-0.483 0.951-1.035 1.036-1.752-1.138-0.422-2.549 0.362-2.591 1.62M17.764 16.39c0.343 0.648 0.769 1.256 1.017 1.951-0.751 0.096-1.509 0.038-2.264 0.057 0.198 0.94 1.062 1.734 2.061 1.596 1.196-0.072 2.008-1.459 1.523-2.546-0.343-0.915-1.431-1.334-2.336-1.058M16.515 17.905c0.449 0.003 0.899 0.003 1.349 0.001-0.231-0.396-0.46-0.793-0.704-1.181-0.294 0.344-0.514 0.744-0.645 1.18M14.146 17.536c-0.479 0.198-0.522 0.944-0.073 1.2 0.423 0.286 1.078-0.046 1.066-0.567 0.030-0.502-0.555-0.846-0.993-0.633z"></path>
</svg>
