<?xml version="1.0" encoding="utf-8"?>
<!-- Generated by IcoMoon.io -->
<!DOCTYPE svg PUBLIC "-//W3C//DTD SVG 1.1//EN" "http://www.w3.org/Graphics/SVG/1.1/DTD/svg11.dtd">
<svg version="1.1" xmlns="http://www.w3.org/2000/svg" xmlns:xlink="http://www.w3.org/1999/xlink" width="24" height="24" viewBox="0 0 24 24">
<path fill="#ffd033" d="M11.822 0h0.283c0.305 0.054 0.576 0.216 0.791 0.436 3.498 3.494 6.992 6.995 10.492 10.489 0.604 0.443 0.742 1.403 0.151 1.915-3.426 3.421-6.847 6.846-10.271 10.268-0.246 0.232-0.456 0.511-0.751 0.682-0.451 0.248-1.055 0.15-1.404-0.228-3.58-3.581-7.162-7.162-10.742-10.742-0.198-0.185-0.305-0.438-0.371-0.696v-0.259c0.037-0.331 0.21-0.625 0.452-0.85 3.522-3.522 7.044-7.044 10.566-10.566 0.218-0.224 0.492-0.395 0.804-0.449M11.561 0.421c-0.173 0.090-0.307 0.236-0.446 0.368-3.338 3.341-6.68 6.68-10.019 10.021-0.199 0.204-0.416 0.394-0.592 0.619-0.26 0.342-0.22 0.87 0.086 1.171 3.583 3.583 7.165 7.168 10.751 10.748 0.342 0.342 0.961 0.322 1.286-0.036 3.562-3.563 7.124-7.127 10.688-10.687 0.389-0.355 0.362-1.020-0.030-1.362-3.539-3.542-7.078-7.084-10.622-10.62-0.271-0.302-0.736-0.402-1.103-0.223z"></path>
<path fill="#ffd033" d="M11.689 0.896c0.226-0.18 0.551-0.067 0.712 0.144 3.516 3.527 7.051 7.036 10.562 10.566 0.235 0.197 0.199 0.584-0.044 0.758-3.54 3.534-7.075 7.074-10.612 10.613-0.181 0.202-0.528 0.192-0.701-0.016-3.558-3.56-7.116-7.122-10.675-10.682-0.203-0.198-0.145-0.545 0.071-0.709 3.562-3.559 7.11-7.132 10.687-10.674M7.76 6.096c0.002 0.251 0.005 0.5 0.008 0.751-0.265 0-0.529 0.001-0.793 0.001 0 0.262 0 0.523 0.001 0.784 0.26 0 0.521 0 0.78-0.001 0.006 0.266 0.010 0.533 0.012 0.8-0.264 0-0.528 0.001-0.792 0.001-0.001 0.26-0.001 0.522 0 0.784 0.259 0 0.518 0 0.778-0.002 0.007 0.257 0.007 0.514 0.004 0.77-0.26 0-0.521 0-0.781 0-0.001 0.264-0.001 0.528 0 0.792 0.26 0 0.522 0 0.782 0.001 0.004 0.26 0.007 0.521 0.010 0.782-0.264 0-0.528 0-0.792 0-0.001 0.264-0.001 0.528 0 0.792 0.264 0 0.528 0 0.792 0.001 0 0.26 0 0.521 0 0.782-0.264 0.001-0.528 0.001-0.791 0-0.002 0.259-0.002 0.517-0.001 0.776 0.264 0 0.528 0 0.792 0.001 0.001 0.262 0 0.523-0.002 0.785-0.263-0.001-0.526-0.002-0.788-0.002-0.002 0.262-0.002 0.522-0.002 0.784 0.265 0.001 0.529 0.001 0.793 0.002 0 0.258 0 0.516 0 0.774-0.264 0.001-0.528 0.001-0.791 0-0.002 0.262-0.002 0.522-0.002 0.784 0.262 0 0.523 0.001 0.785 0.004 0.002 0.259 0.005 0.52 0.008 0.78 0.126 0 0.251 0.002 0.377 0.004 0.005-0.262 0.008-0.523 0.012-0.785 0.388-0.002 0.775-0.002 1.163 0 0 0.262 0 0.522 0 0.782 0.095 0 0.284 0 0.379 0 0-0.262 0-0.522 0.001-0.782 0.264-0.001 0.528-0.001 0.792-0.001 0.001-0.262 0.001-0.522 0-0.784-0.264 0-0.528 0-0.793-0.002 0-0.258 0-0.516 0.001-0.773 0.264-0.001 0.528-0.001 0.792-0.001 0.001-0.259 0.001-0.517 0-0.775-0.265 0-0.529-0.001-0.793-0.002 0-0.264 0-0.527 0.001-0.79 0.264-0.001 0.528-0.001 0.792-0.001 0.001-0.258 0.001-0.517 0-0.775-0.264 0-0.529 0-0.793-0.002 0-0.26 0-0.521 0.001-0.781 0.264-0.001 0.528-0.001 0.792-0.001 0-0.264 0.001-0.527 0.001-0.79-0.265-0.002-0.529-0.002-0.793-0.004-0.001-0.26-0.001-0.521 0-0.781 0.264-0.001 0.527-0.001 0.791-0.001 0.002-0.264 0.002-0.528 0-0.792-0.264 0-0.527 0-0.791-0.001-0.001-0.256-0.001-0.511 0-0.766 0.264-0.001 0.527-0.001 0.791-0.001 0.002-0.262 0.002-0.523-0.001-0.785-0.263 0.001-0.527 0.001-0.79 0-0.001-0.266-0.001-0.533 0-0.798 0.264-0.001 0.528-0.001 0.793-0.002 0-0.262-0.001-0.522-0.001-0.782-0.264 0-0.528 0-0.792-0.001-0.001-0.251-0.001-0.5-0.001-0.751-0.095 0-0.284 0-0.378 0-0.001 0.251-0.001 0.5-0.001 0.75-0.388 0.004-0.775 0.002-1.163 0.001-0.001-0.251-0.001-0.5-0.001-0.751-0.1 0-0.296 0-0.396 0M4.543 9.029c-0.002 0.978-0.004 1.956 0 2.934 0.678 0.001 1.356 0 2.033 0 0.002-0.978 0.002-1.956 0-2.934-0.677-0.001-1.355-0.001-2.033 0M10.955 9.029c-0.002 0.978-0.001 1.956-0.001 2.934 0.673 0.001 1.346-0.001 2.018 0.001 0.004 1.957-0.001 3.913 0.002 5.87 0.978-0.001 1.956 0 2.934-0.001 0.002-1.956-0.001-3.913 0.001-5.869 1.163-0.002 2.327 0.001 3.49-0.001 0.001-0.978 0.001-1.956 0-2.934-2.815-0.001-5.63-0.001-8.444 0z"></path>
<path fill="#ffd033" d="M8.149 7.633c0.39-0.002 0.779-0.001 1.169-0.002 0.004 0.27 0.004 0.54 0 0.81-0.39-0.001-0.779 0-1.169-0.001-0.001-0.269-0.001-0.538 0-0.806z"></path>
<path fill="#ffd033" d="M8.149 9.217c0.389-0.002 0.778-0.001 1.166-0.002 0.007 0.257 0.007 0.514 0 0.77-0.389-0.002-0.778 0-1.166-0.002-0.001-0.256-0.001-0.511 0-0.766z"></path>
<path fill="#ffd033" d="M8.149 10.777c0.386-0.002 0.772 0.002 1.158-0.007 0.019 0.263 0.017 0.527 0.010 0.791-0.389-0.001-0.779 0-1.168-0.002-0.001-0.26-0.001-0.521 0-0.781z"></path>
<path fill="#ffd033" d="M8.149 12.353c0.39-0.001 0.78-0.002 1.171 0.001 0.001 0.258 0 0.516-0.002 0.775-0.39-0.001-0.779-0.001-1.169-0.002-0.001-0.258-0.001-0.516 0-0.774z"></path>
<path fill="#ffd033" d="M8.149 13.913c0.39-0.001 0.78-0.002 1.171 0.001 0.001 0.26 0 0.522-0.002 0.782-0.39-0.001-0.779 0-1.169-0.001-0.001-0.262-0.001-0.522 0-0.782z"></path>
<path fill="#ffd033" d="M8.149 15.481c0.39-0.002 0.781-0.002 1.171 0 0.001 0.258 0 0.517-0.002 0.775-0.39-0.001-0.779 0-1.169-0.001-0.001-0.258-0.001-0.516 0-0.774z"></path>
<path fill="#000" d="M11.561 0.421c0.367-0.179 0.832-0.079 1.103 0.223 3.545 3.536 7.084 7.078 10.622 10.62 0.392 0.342 0.419 1.007 0.030 1.362-3.564 3.56-7.127 7.124-10.688 10.687-0.325 0.358-0.944 0.378-1.286 0.036-3.586-3.581-7.168-7.165-10.751-10.748-0.306-0.301-0.347-0.829-0.086-1.171 0.175-0.226 0.392-0.415 0.592-0.619 3.338-3.341 6.68-6.68 10.019-10.021 0.139-0.132 0.274-0.278 0.446-0.368M11.689 0.896c-3.577 3.542-7.126 7.115-10.687 10.674-0.216 0.164-0.274 0.511-0.071 0.709 3.559 3.56 7.117 7.122 10.675 10.682 0.173 0.208 0.52 0.217 0.701 0.016 3.536-3.539 7.072-7.079 10.612-10.613 0.244-0.174 0.28-0.562 0.044-0.758-3.511-3.53-7.046-7.039-10.562-10.566-0.161-0.211-0.486-0.324-0.712-0.144z"></path>
<path fill="#000" d="M7.76 6.096c0.1 0 0.296 0 0.396 0 0 0.251 0 0.5 0.001 0.751 0.388 0.001 0.775 0.002 1.163-0.001 0-0.25 0-0.499 0.001-0.75 0.094 0 0.283 0 0.378 0 0 0.251 0 0.5 0.001 0.751 0.264 0.001 0.528 0.001 0.792 0.001 0 0.26 0.001 0.521 0.001 0.782-0.265 0.001-0.529 0.001-0.793 0.002-0.001 0.265-0.001 0.532 0 0.798 0.263 0.001 0.527 0.001 0.79 0 0.004 0.262 0.004 0.523 0.001 0.785-0.264 0-0.527 0-0.791 0.001-0.001 0.254-0.001 0.51 0 0.766 0.264 0.001 0.527 0.001 0.791 0.001 0.002 0.264 0.002 0.528 0 0.792-0.264 0-0.527 0-0.791 0.001-0.001 0.26-0.001 0.521 0 0.781 0.264 0.001 0.528 0.001 0.793 0.004 0 0.263-0.001 0.526-0.001 0.79-0.264 0-0.528 0-0.792 0.001-0.001 0.26-0.001 0.521-0.001 0.781 0.264 0.002 0.529 0.002 0.793 0.002 0.001 0.258 0.001 0.517 0 0.775-0.264 0-0.528 0-0.792 0.001-0.001 0.263-0.001 0.526-0.001 0.79 0.264 0.001 0.528 0.002 0.793 0.002 0.001 0.258 0.001 0.516 0 0.775-0.264 0-0.528 0-0.792 0.001-0.001 0.257-0.001 0.515-0.001 0.773 0.265 0.002 0.529 0.002 0.793 0.002 0.001 0.262 0.001 0.522 0 0.784-0.264 0-0.528 0-0.792 0.001-0.001 0.26-0.001 0.521-0.001 0.782-0.095 0-0.284 0-0.379 0 0-0.26 0-0.521 0-0.782-0.388-0.002-0.775-0.002-1.163 0-0.004 0.262-0.007 0.523-0.012 0.785-0.126-0.001-0.251-0.004-0.377-0.004-0.004-0.26-0.006-0.521-0.008-0.78-0.262-0.002-0.523-0.004-0.785-0.004 0-0.262 0-0.522 0.002-0.784 0.263 0.001 0.527 0.001 0.791 0 0-0.258 0-0.516 0-0.774-0.264-0.001-0.528-0.001-0.793-0.002 0-0.262 0-0.522 0.002-0.784 0.263 0 0.526 0.001 0.788 0.002 0.002-0.262 0.004-0.523 0.002-0.785-0.264-0.001-0.528-0.001-0.792-0.001-0.001-0.259-0.001-0.517 0.001-0.776 0.263 0.001 0.527 0.001 0.791 0 0-0.262 0-0.522 0-0.782-0.264-0.001-0.528-0.001-0.792-0.001-0.001-0.264-0.001-0.528 0-0.792 0.264 0 0.528 0 0.792 0-0.002-0.262-0.006-0.522-0.010-0.782-0.26-0.001-0.522-0.001-0.782-0.001-0.001-0.264-0.001-0.528 0-0.792 0.26 0 0.521 0 0.781 0 0.004-0.257 0.004-0.514-0.004-0.77-0.259 0.002-0.518 0.002-0.778 0.002-0.001-0.262-0.001-0.523 0-0.784 0.264 0 0.528-0.001 0.792-0.001-0.002-0.268-0.006-0.534-0.012-0.8-0.259 0.001-0.52 0.001-0.78 0.001-0.001-0.26-0.001-0.522-0.001-0.784 0.264 0 0.528-0.001 0.793-0.001-0.004-0.251-0.006-0.5-0.008-0.751M8.149 7.633c-0.001 0.269-0.001 0.538 0 0.806 0.39 0.001 0.779 0 1.169 0.001 0.004-0.27 0.004-0.54 0-0.81-0.39 0.001-0.779 0-1.169 0.002M8.149 9.217c-0.001 0.254-0.001 0.51 0 0.766 0.389 0.002 0.778 0 1.166 0.002 0.007-0.257 0.007-0.514 0-0.77-0.389 0.001-0.778 0-1.166 0.002M8.149 10.777c-0.001 0.26-0.001 0.521 0 0.781 0.389 0.002 0.779 0.001 1.168 0.002 0.007-0.264 0.010-0.528-0.010-0.791-0.386 0.010-0.772 0.005-1.158 0.007M8.149 12.353c-0.001 0.258-0.001 0.516 0 0.774 0.39 0.001 0.779 0.001 1.169 0.002 0.002-0.259 0.004-0.517 0.002-0.775-0.391-0.004-0.781-0.002-1.171-0.001M8.149 13.913c-0.001 0.26-0.001 0.521 0 0.782 0.39 0.001 0.779 0 1.169 0.001 0.002-0.26 0.004-0.522 0.002-0.782-0.391-0.004-0.781-0.002-1.171-0.001M8.149 15.481c-0.001 0.258-0.001 0.516 0 0.774 0.39 0.001 0.779 0 1.169 0.001 0.002-0.258 0.004-0.517 0.002-0.775-0.39-0.002-0.781-0.002-1.171 0z"></path>
<path fill="#000" d="M4.543 9.029c0.678-0.001 1.356-0.001 2.033 0 0.002 0.978 0.002 1.956 0 2.934-0.677 0-1.355 0.001-2.033 0-0.004-0.978-0.002-1.956 0-2.934z"></path>
<path fill="#000" d="M10.955 9.029c2.814-0.001 5.629-0.001 8.444 0 0.001 0.978 0.001 1.956 0 2.934-1.163 0.002-2.327-0.001-3.49 0.001-0.002 1.956 0.001 3.913-0.001 5.869-0.978 0.001-1.956 0-2.934 0.001-0.004-1.957 0.001-3.913-0.002-5.87-0.672-0.002-1.345 0-2.018-0.001 0-0.978-0.001-1.956 0.001-2.934z"></path>
</svg>
