<?xml version="1.0" encoding="utf-8"?>
<!-- Generated by IcoMoon.io -->
<!DOCTYPE svg PUBLIC "-//W3C//DTD SVG 1.1//EN" "http://www.w3.org/Graphics/SVG/1.1/DTD/svg11.dtd">
<svg version="1.1" xmlns="http://www.w3.org/2000/svg" xmlns:xlink="http://www.w3.org/1999/xlink" width="24" height="24" viewBox="0 0 24 24">
<path fill="#fee011" d="M11.352 0.206c0.478-0.344 1.16-0.214 1.546 0.208 3.563 3.558 7.123 7.12 10.682 10.681 0.498 0.432 0.55 1.273 0.059 1.73-3.479 3.485-6.965 6.964-10.444 10.448-0.253 0.24-0.479 0.544-0.827 0.649-0.444 0.157-0.958 0.001-1.266-0.347-3.458-3.461-6.918-6.922-10.38-10.38-0.276-0.283-0.62-0.553-0.69-0.967-0.094-0.413 0.079-0.841 0.377-1.128 3.419-3.425 6.844-6.844 10.264-10.268 0.22-0.215 0.425-0.45 0.679-0.626M11.683 0.295c-0.187 0.066-0.334 0.205-0.475 0.338-3.522 3.523-7.045 7.046-10.568 10.568-0.253 0.234-0.449 0.564-0.388 0.922 0.053 0.424 0.43 0.679 0.701 0.967 3.44 3.44 6.883 6.88 10.322 10.325 0.216 0.23 0.532 0.386 0.854 0.33 0.389-0.050 0.635-0.386 0.898-0.64 3.337-3.342 6.678-6.68 10.019-10.020 0.272-0.288 0.652-0.545 0.698-0.972 0.056-0.352-0.136-0.677-0.385-0.907-3.546-3.541-7.085-7.088-10.632-10.628-0.258-0.286-0.674-0.415-1.044-0.283z"></path>
<path fill="#fee011" d="M11.798 0.76c0.251-0.119 0.504 0.032 0.667 0.22 3.377 3.379 6.756 6.757 10.134 10.135 0.215 0.223 0.46 0.422 0.634 0.682 0.104 0.206 0.017 0.452-0.151 0.594-3.479 3.482-6.965 6.959-10.44 10.446-0.21 0.193-0.416 0.514-0.749 0.433-0.275-0.094-0.44-0.361-0.649-0.548-3.44-3.444-6.882-6.884-10.325-10.325-0.173-0.144-0.263-0.392-0.157-0.602 0.158-0.234 0.379-0.416 0.575-0.618 3.401-3.4 6.8-6.799 10.2-10.201 0.080-0.080 0.167-0.152 0.262-0.215M11.75 6.134c-0.122 0.169 0.029 0.331 0.118 0.468 0.202-0.066 0.403-0.134 0.605-0.204-0.010 0.714-0.002 1.428-0.005 2.142-1.102 0.779-1.796 2.1-1.814 3.45-0.581-0.316-1.224-0.485-1.874-0.578 0.060-0.166 0.113-0.332 0.157-0.502 0.012-0.193-0.241-0.331-0.402-0.222-0.619 0.275-1.214 0.604-1.828 0.892-0.221 0.097-0.425 0.229-0.588 0.408 0.491 0.391 1.099 0.588 1.643 0.893 0.329 0.137 0.631 0.4 0.996 0.404 0.346-0.158 0.060-0.512 0.008-0.768 0.763 0.156 1.532 0.426 2.126 0.944 0.314 0.444 0.532 0.967 0.967 1.316 0.395 0.302 0.456 0.833 0.461 1.295 0.002 0.917-0.001 1.834 0 2.75 0.37 0 0.74 0.001 1.11 0.001 0-0.877 0-1.754 0.001-2.632 0-0.545-0.059-1.106-0.31-1.598-0.232-0.503-0.775-0.766-1.007-1.271-0.667-1.156-0.306-2.686 0.63-3.581 0.232-0.217 0.535-0.366 0.707-0.642 0.15-0.244 0.124-0.541 0.131-0.816-0.007-0.625 0.002-1.25-0.008-1.876 0.252 0.122 0.786 0.32 0.763-0.156-0.216-0.545-0.515-1.051-0.763-1.582-0.174-0.318-0.272-0.708-0.599-0.911-0.478 0.752-0.828 1.578-1.225 2.374M14.064 10.336c-0.743 0.164-1.292 0.916-1.213 1.674 0.042 0.877 0.911 1.602 1.783 1.475 0.878-0.085 1.566-0.989 1.396-1.86-0.119-0.895-1.098-1.529-1.966-1.289M5.086 13.74c-0.17 0.116-0.48 0.173-0.485 0.421 0.414 0.366 0.974 0.51 1.445 0.79 0.383 0.154 0.736 0.467 1.158 0.466 0.316-0.172 0.036-0.511-0.014-0.76 1.296 0.212 2.491 0.977 3.214 2.072 0.175 0.68 0.11 1.398 0.142 2.094 0.37 0.001 0.739 0.001 1.109 0-0.036-0.846 0.041-1.724-0.22-2.542-0.908-1.477-2.507-2.524-4.234-2.732 0.054-0.152 0.115-0.304 0.151-0.462 0.082-0.198-0.229-0.374-0.385-0.265-0.637 0.283-1.25 0.618-1.88 0.918z"></path>
<path fill="#000" d="M11.683 0.295c0.37-0.132 0.786-0.002 1.044 0.283 3.547 3.54 7.086 7.087 10.632 10.628 0.25 0.23 0.442 0.556 0.385 0.907-0.047 0.427-0.426 0.684-0.698 0.972-3.341 3.34-6.682 6.678-10.019 10.020-0.263 0.253-0.509 0.589-0.898 0.64-0.323 0.056-0.638-0.1-0.854-0.33-3.439-3.445-6.882-6.884-10.322-10.325-0.271-0.288-0.648-0.544-0.701-0.967-0.061-0.358 0.134-0.688 0.388-0.922 3.523-3.522 7.046-7.045 10.568-10.568 0.142-0.133 0.288-0.272 0.475-0.338M11.798 0.76c-0.095 0.062-0.181 0.134-0.262 0.215-3.4 3.402-6.799 6.802-10.2 10.201-0.196 0.202-0.416 0.384-0.575 0.618-0.106 0.21-0.016 0.458 0.157 0.602 3.443 3.44 6.884 6.881 10.325 10.325 0.209 0.187 0.374 0.455 0.649 0.548 0.332 0.080 0.539-0.24 0.749-0.433 3.475-3.487 6.961-6.964 10.44-10.446 0.168-0.142 0.256-0.388 0.151-0.594-0.174-0.259-0.419-0.458-0.634-0.682-3.378-3.378-6.757-6.756-10.134-10.135-0.163-0.187-0.416-0.338-0.667-0.22z"></path>
<path fill="#000" d="M11.75 6.134c0.397-0.796 0.748-1.621 1.225-2.374 0.326 0.203 0.425 0.593 0.599 0.911 0.248 0.53 0.547 1.037 0.763 1.582 0.023 0.476-0.511 0.278-0.763 0.156 0.011 0.625 0.001 1.25 0.008 1.876-0.007 0.275 0.019 0.572-0.131 0.816-0.172 0.276-0.475 0.425-0.707 0.642-0.936 0.895-1.297 2.425-0.63 3.581 0.232 0.505 0.775 0.768 1.007 1.271 0.251 0.492 0.31 1.054 0.31 1.598-0.001 0.877-0.001 1.754-0.001 2.632-0.37 0-0.74-0.001-1.11-0.001-0.001-0.917 0.002-1.834 0-2.75-0.005-0.462-0.066-0.992-0.461-1.295-0.436-0.349-0.653-0.872-0.967-1.316-0.594-0.518-1.363-0.788-2.126-0.944 0.052 0.256 0.337 0.61-0.008 0.768-0.365-0.005-0.667-0.268-0.996-0.404-0.544-0.305-1.152-0.502-1.643-0.893 0.163-0.179 0.367-0.311 0.588-0.408 0.613-0.288 1.208-0.617 1.828-0.892 0.161-0.109 0.414 0.029 0.402 0.222-0.044 0.169-0.097 0.336-0.157 0.502 0.65 0.094 1.294 0.263 1.874 0.578 0.018-1.35 0.713-2.671 1.814-3.45 0.002-0.714-0.005-1.428 0.005-2.142-0.202 0.070-0.403 0.138-0.605 0.204-0.089-0.137-0.24-0.299-0.118-0.468z"></path>
<path fill="#000" d="M14.064 10.336c0.868-0.24 1.847 0.394 1.966 1.289 0.17 0.871-0.517 1.775-1.396 1.86-0.872 0.127-1.741-0.598-1.783-1.475-0.079-0.758 0.47-1.51 1.213-1.674z"></path>
<path fill="#000" d="M5.086 13.74c0.63-0.3 1.243-0.635 1.88-0.918 0.156-0.109 0.467 0.067 0.385 0.265-0.036 0.158-0.097 0.31-0.151 0.462 1.727 0.209 3.325 1.255 4.234 2.732 0.26 0.817 0.184 1.696 0.22 2.542-0.37 0.001-0.739 0.001-1.109 0-0.031-0.696 0.034-1.414-0.142-2.094-0.722-1.096-1.918-1.86-3.214-2.072 0.050 0.248 0.33 0.588 0.014 0.76-0.422 0.001-0.775-0.312-1.158-0.466-0.47-0.28-1.031-0.424-1.445-0.79 0.005-0.248 0.314-0.305 0.485-0.421z"></path>
</svg>
