<!-- Generated by IcoMoon.io -->
<svg version="1.1" xmlns="http://www.w3.org/2000/svg" width="24" height="24" viewBox="0 0 24 24">
<title>warning--hairpin-curve-left--g1</title>
<path fill="#ffd033" d="M11.73 0h0.504c0.27 0.113 0.527 0.259 0.734 0.467 3.521 3.523 7.042 7.044 10.565 10.565 0.198 0.202 0.347 0.446 0.467 0.702v0.493c-0.102 0.245-0.227 0.485-0.414 0.676-3.54 3.541-7.085 7.080-10.621 10.625-0.2 0.199-0.442 0.352-0.696 0.473h-0.505c-0.242-0.103-0.478-0.229-0.667-0.414-3.54-3.541-7.079-7.084-10.624-10.621-0.2-0.202-0.353-0.444-0.473-0.7v-0.498c0.191-0.562 0.671-0.93 1.070-1.338 3.299-3.301 6.604-6.598 9.899-9.904 0.218-0.221 0.48-0.394 0.761-0.526M11.669 0.391c-0.214 0.089-0.378 0.259-0.542 0.416-3.494 3.508-7.006 6.998-10.498 10.507-0.391 0.354-0.39 1.015 0.004 1.367 3.56 3.563 7.123 7.123 10.685 10.686 0.348 0.396 1.016 0.396 1.366 0.001 3.541-3.541 7.080-7.086 10.625-10.624 0.432-0.349 0.484-1.051 0.062-1.43-3.533-3.548-7.080-7.085-10.621-10.626-0.266-0.298-0.696-0.451-1.080-0.298z"></path>
<path fill="#ffd033" d="M11.788 0.858c0.222-0.125 0.476-0.006 0.632 0.166 3.502 3.497 6.997 7.001 10.5 10.496 0.254 0.196 0.394 0.596 0.109 0.833-3.534 3.544-7.079 7.078-10.615 10.619-0.184 0.24-0.56 0.308-0.767 0.056-3.563-3.553-7.121-7.114-10.676-10.675-0.286-0.236-0.146-0.638 0.109-0.833 3.578-3.544 7.097-7.154 10.708-10.662M6.331 12.45c-0.467-0.151-0.918-0.362-1.402-0.452-0.313 0.053-0.461 0.472-0.235 0.702 0.881 1.218 1.787 2.417 2.674 3.631 0.94-1.216 1.882-2.429 2.801-3.66 0.203-0.226 0.052-0.595-0.224-0.672-0.52 0.080-1 0.316-1.505 0.452-0.174-2.112 1.87-4.020 3.966-3.631 1.559 0.206 2.849 1.606 2.918 3.176 0.035 1.446 0.012 2.893 0.029 4.339 0.701 0.001 1.402 0.001 2.102-0.001-0.025-1.606 0.060-3.216-0.049-4.819-0.299-2.827-3.042-5.099-5.88-4.841-2.922 0.119-5.372 2.861-5.195 5.776z"></path>
<path fill="#000" d="M11.669 0.391c0.384-0.154 0.814 0 1.080 0.298 3.541 3.541 7.088 7.078 10.621 10.626 0.421 0.379 0.37 1.081-0.062 1.43-3.545 3.538-7.084 7.082-10.625 10.624-0.349 0.395-1.018 0.395-1.366-0.001-3.562-3.563-7.124-7.123-10.685-10.686-0.394-0.352-0.395-1.013-0.004-1.367 3.492-3.509 7.003-7 10.498-10.507 0.164-0.157 0.329-0.328 0.542-0.416M11.788 0.858c-3.611 3.508-7.129 7.118-10.708 10.662-0.256 0.194-0.395 0.596-0.109 0.833 3.556 3.562 7.114 7.122 10.676 10.675 0.206 0.252 0.583 0.184 0.767-0.056 3.536-3.541 7.081-7.075 10.615-10.619 0.284-0.236 0.145-0.637-0.109-0.833-3.503-3.496-6.998-7-10.5-10.496-0.156-0.172-0.41-0.29-0.632-0.166z"></path>
<path fill="#000" d="M6.331 12.45c-0.178-2.915 2.273-5.657 5.195-5.776 2.838-0.258 5.581 2.014 5.88 4.841 0.109 1.603 0.024 3.214 0.049 4.819-0.701 0.002-1.402 0.002-2.102 0.001-0.017-1.446 0.006-2.893-0.029-4.339-0.070-1.571-1.36-2.97-2.918-3.176-2.096-0.389-4.14 1.519-3.966 3.631 0.505-0.137 0.985-0.372 1.505-0.452 0.276 0.077 0.427 0.446 0.224 0.672-0.919 1.231-1.861 2.444-2.801 3.66-0.887-1.214-1.793-2.413-2.674-3.631-0.226-0.23-0.078-0.649 0.235-0.702 0.484 0.090 0.935 0.301 1.402 0.452z"></path>
</svg>
