<?xml version="1.0" encoding="utf-8"?>
<!-- Generated by IcoMoon.io -->
<!DOCTYPE svg PUBLIC "-//W3C//DTD SVG 1.1//EN" "http://www.w3.org/Graphics/SVG/1.1/DTD/svg11.dtd">
<svg version="1.1" xmlns="http://www.w3.org/2000/svg" xmlns:xlink="http://www.w3.org/1999/xlink" width="24" height="24" viewBox="0 0 24 24">
<path fill="#fee011" d="M11.356 0.205c0.377-0.263 0.913-0.262 1.289 0.004 0.277 0.193 0.499 0.452 0.739 0.688 3.401 3.406 6.808 6.804 10.206 10.21 0.49 0.433 0.536 1.262 0.052 1.716-3.604 3.61-7.211 7.216-10.818 10.819-0.428 0.45-1.214 0.454-1.645 0.006-3.488-3.48-6.967-6.97-10.456-10.45-0.301-0.302-0.672-0.61-0.706-1.068-0.061-0.42 0.157-0.815 0.454-1.093 3.382-3.379 6.762-6.761 10.142-10.142 0.241-0.236 0.463-0.496 0.743-0.689M11.676 0.299c-0.186 0.068-0.332 0.209-0.475 0.341-3.538 3.542-7.081 7.079-10.618 10.622-0.407 0.346-0.462 1.022-0.062 1.393 3.582 3.59 7.174 7.171 10.756 10.762 0.271 0.306 0.736 0.442 1.112 0.25 0.3-0.168 0.516-0.448 0.761-0.684 3.3-3.3 6.598-6.601 9.9-9.899 0.3-0.308 0.719-0.61 0.702-1.088 0.017-0.444-0.349-0.744-0.632-1.031-3.468-3.457-6.925-6.928-10.392-10.386-0.26-0.287-0.682-0.416-1.051-0.28z"></path>
<path fill="#fee011" d="M11.8 0.761c0.245-0.121 0.498 0.031 0.66 0.214 3.379 3.38 6.76 6.761 10.14 10.14 0.217 0.223 0.464 0.425 0.636 0.689 0.103 0.205 0.008 0.445-0.155 0.588-3.564 3.564-7.129 7.128-10.691 10.694-0.144 0.162-0.378 0.253-0.586 0.156-0.282-0.196-0.497-0.468-0.742-0.704-3.302-3.298-6.598-6.604-9.904-9.898-0.218-0.22-0.568-0.486-0.4-0.839 0.174-0.259 0.418-0.461 0.635-0.682 3.241-3.241 6.482-6.482 9.722-9.724 0.222-0.217 0.422-0.461 0.683-0.635M12.864 5.968c-0.010 0.305-0.019 0.61-0.029 0.914 0.431 0.018 0.874-0.059 1.296 0.049-0.023 0.352-0.505 0.451-0.746 0.668-0.008 0.071-0.025 0.21-0.034 0.281-1.136-0.007-2.274 0.013-3.41-0.012 0.013-0.053 0.040-0.157 0.054-0.21 0.332-0.256 0.742-0.42 1.014-0.754 0.199-0.14-0.034-0.421-0.226-0.379-0.878-0.019-1.757 0.006-2.636-0.008-0.084 0.347 0.013 0.696 0.076 1.037 0.432 0.048 0.554 0.498 0.728 0.823-0.282 0.752-0.57 1.502-0.847 2.257-1.228-0.426-2.692 0.054-3.404 1.145-0.793 1.114-0.648 2.764 0.32 3.727 0.912 0.973 2.51 1.195 3.642 0.479 0.763-0.444 1.26-1.247 1.416-2.106 0.094 0.001 0.281 0.004 0.374 0.006 0.241 0.414 0.694 0.748 1.196 0.616 0.709-0.138 1.019-0.919 0.962-1.574 0.689-0.856 1.391-1.702 2.087-2.554 0.062 0.295 0.124 0.589 0.184 0.886-0.592 0.565-0.972 1.355-0.97 2.18-0.041 1.216 0.762 2.399 1.906 2.812 0.997 0.385 2.201 0.175 2.992-0.551 0.736-0.643 1.111-1.666 0.964-2.632-0.139-1.063-0.906-2.014-1.918-2.37-0.665-0.257-1.404-0.196-2.075 0.004-0.304-0.796-0.617-1.588-0.923-2.383-0.044-0.143-0.136-0.313-0.023-0.451 0.244-0.33 0.638-0.582 0.686-1.024 0.084-0.446-0.325-0.83-0.749-0.856-0.634-0.048-1.272-0.007-1.908-0.020z"></path>
<path fill="#fee011" d="M10.423 8.88c1.196 0 2.394 0.001 3.59-0.001 0.106 0.226 0.211 0.451 0.317 0.676-0.749 0.844-1.489 1.693-2.234 2.54-0.101 0.145-0.275 0.176-0.438 0.199-0.408-1.14-0.823-2.276-1.235-3.414z"></path>
<path fill="#fee011" d="M9.469 9.662c0.388 0.972 0.755 1.952 1.135 2.927-0.044 0.071-0.136 0.214-0.181 0.284-0.090-0.001-0.272-0.002-0.364-0.004-0.168-0.67-0.533-1.276-1.051-1.733 0.151-0.492 0.302-0.984 0.461-1.475z"></path>
<path fill="#fee011" d="M5.15 12.964c0.238-1.096 1.453-1.8 2.528-1.505-0.34 0.703-0.7 1.397-1.034 2.102 0.179 0.119 0.343 0.298 0.571 0.307 0.648 0.035 1.297-0.002 1.946 0.014-0.252 1.009-1.284 1.778-2.333 1.586-1.146-0.148-1.988-1.386-1.679-2.506z"></path>
<path fill="#fee011" d="M16.27 11.518c0.522-0.116 1.096-0.119 1.568 0.163 0.853 0.446 1.286 1.536 0.971 2.446-0.274 0.886-1.204 1.504-2.126 1.397-0.958-0.067-1.786-0.894-1.849-1.853-0.068-0.6 0.179-1.18 0.557-1.633 0.407 0.63 0.818 1.258 1.219 1.892 0.332-0.013 0.772-0.202 0.75-0.594-0.317-0.631-0.74-1.205-1.090-1.818z"></path>
<path fill="#fee011" d="M8.586 11.962c0.223 0.274 0.403 0.578 0.534 0.906-0.346 0.005-0.691 0.005-1.037 0.005 0.166-0.305 0.332-0.608 0.503-0.911z"></path>
<path fill="#000" d="M11.676 0.299c0.37-0.137 0.791-0.007 1.051 0.28 3.467 3.458 6.924 6.929 10.392 10.386 0.283 0.287 0.649 0.587 0.632 1.031 0.017 0.479-0.402 0.78-0.702 1.088-3.302 3.298-6.6 6.599-9.9 9.899-0.245 0.236-0.461 0.516-0.761 0.684-0.377 0.192-0.841 0.056-1.112-0.25-3.582-3.59-7.174-7.171-10.756-10.762-0.4-0.371-0.344-1.048 0.062-1.393 3.536-3.544 7.080-7.080 10.618-10.622 0.143-0.132 0.289-0.272 0.475-0.341M11.8 0.761c-0.26 0.174-0.461 0.418-0.683 0.635-3.24 3.241-6.481 6.482-9.722 9.724-0.217 0.221-0.461 0.422-0.635 0.682-0.168 0.353 0.181 0.619 0.4 0.839 3.306 3.294 6.601 6.6 9.904 9.898 0.245 0.236 0.46 0.509 0.742 0.704 0.208 0.097 0.442 0.006 0.586-0.156 3.562-3.566 7.127-7.13 10.691-10.694 0.163-0.143 0.258-0.383 0.155-0.588-0.172-0.264-0.419-0.466-0.636-0.689-3.38-3.379-6.761-6.76-10.14-10.14-0.162-0.182-0.415-0.335-0.66-0.214z"></path>
<path fill="#000" d="M12.864 5.968c0.636 0.013 1.274-0.028 1.908 0.020 0.424 0.025 0.833 0.409 0.749 0.856-0.048 0.442-0.443 0.694-0.686 1.024-0.113 0.138-0.022 0.308 0.023 0.451 0.306 0.796 0.619 1.588 0.923 2.383 0.671-0.199 1.41-0.26 2.075-0.004 1.012 0.356 1.778 1.307 1.918 2.37 0.148 0.966-0.228 1.988-0.964 2.632-0.791 0.726-1.994 0.936-2.992 0.551-1.144-0.413-1.946-1.596-1.906-2.812-0.002-0.826 0.378-1.615 0.97-2.18-0.060-0.296-0.121-0.59-0.184-0.886-0.696 0.852-1.398 1.698-2.087 2.554 0.056 0.655-0.253 1.436-0.962 1.574-0.503 0.132-0.955-0.202-1.196-0.616-0.094-0.002-0.281-0.005-0.374-0.006-0.156 0.859-0.653 1.662-1.416 2.106-1.132 0.716-2.73 0.494-3.642-0.479-0.968-0.964-1.114-2.614-0.32-3.727 0.713-1.091 2.177-1.571 3.404-1.145 0.277-0.755 0.565-1.505 0.847-2.257-0.174-0.325-0.296-0.775-0.728-0.823-0.062-0.341-0.16-0.69-0.076-1.037 0.88 0.014 1.758-0.011 2.636 0.008 0.192-0.042 0.425 0.239 0.226 0.379-0.272 0.334-0.682 0.498-1.014 0.754-0.014 0.053-0.041 0.157-0.054 0.21 1.136 0.025 2.274 0.005 3.41 0.012 0.008-0.071 0.025-0.21 0.034-0.281 0.241-0.217 0.724-0.317 0.746-0.668-0.422-0.108-0.865-0.031-1.296-0.049 0.010-0.305 0.019-0.61 0.029-0.914M10.423 8.88c0.412 1.138 0.827 2.274 1.235 3.414 0.163-0.023 0.337-0.054 0.438-0.199 0.745-0.847 1.486-1.697 2.234-2.54-0.106-0.224-0.211-0.45-0.317-0.676-1.196 0.002-2.394 0.001-3.59 0.001M9.469 9.662c-0.158 0.491-0.31 0.983-0.461 1.475 0.518 0.457 0.883 1.063 1.051 1.733 0.091 0.001 0.274 0.002 0.364 0.004 0.046-0.071 0.137-0.214 0.181-0.284-0.38-0.974-0.748-1.955-1.135-2.927M5.15 12.964c-0.31 1.12 0.533 2.358 1.679 2.506 1.049 0.192 2.081-0.577 2.333-1.586-0.649-0.017-1.298 0.020-1.946-0.014-0.228-0.010-0.392-0.188-0.571-0.307 0.335-0.706 0.695-1.399 1.034-2.102-1.075-0.295-2.291 0.409-2.528 1.505M16.27 11.518c0.349 0.613 0.773 1.187 1.090 1.818 0.022 0.392-0.418 0.581-0.75 0.594-0.401-0.635-0.812-1.262-1.219-1.892-0.378 0.454-0.625 1.033-0.557 1.633 0.064 0.959 0.892 1.786 1.849 1.853 0.923 0.107 1.853-0.511 2.126-1.397 0.316-0.91-0.118-1.999-0.971-2.446-0.473-0.282-1.046-0.28-1.568-0.163M8.586 11.962c-0.17 0.302-0.337 0.606-0.503 0.911 0.346 0 0.691 0 1.037-0.005-0.131-0.328-0.311-0.632-0.534-0.906z"></path>
</svg>
