<!-- Generated by IcoMoon.io -->
<svg version="1.1" xmlns="http://www.w3.org/2000/svg" width="27" height="24" viewBox="0 0 27 24">
<title>warning--bicycles-crossing--g4</title>
<path fill="#282828" opacity="0.84" d="M13.133 0h0.956c0.176 0.136 0.344 0.284 0.511 0.43-0.592-0.365-1.335-0.379-1.921 0.005 0.14-0.155 0.293-0.3 0.454-0.435z"></path>
<path fill="#fff" d="M12.679 0.435c0.586-0.385 1.33-0.371 1.921-0.005 0.029 0.023 0.083 0.068 0.11 0.091 0.025 0.196 0.104 0.466 0.344 0.476 0.007 0.052 0.018 0.157 0.025 0.209-0.005 0.213 0.16 0.37 0.318 0.487 0.079 0.149 0.161 0.297 0.244 0.446 0.019 0.221 0.142 0.42 0.349 0.509 0.010 0.050 0.030 0.15 0.040 0.2 0.010 0.213 0.161 0.375 0.333 0.481 0.072 0.158 0.147 0.316 0.214 0.477 0.044 0.198 0.157 0.368 0.322 0.487 0.080 0.143 0.161 0.288 0.243 0.431 0.011 0.22 0.124 0.416 0.318 0.524 0.022 0.042 0.064 0.125 0.085 0.168 0.012 0.22 0.131 0.416 0.326 0.521 0.068 0.154 0.14 0.307 0.203 0.462 0.045 0.2 0.168 0.372 0.345 0.477 0.068 0.157 0.14 0.314 0.205 0.473 0.044 0.198 0.16 0.368 0.327 0.484 0.082 0.154 0.164 0.31 0.247 0.464 0.038 0.192 0.117 0.458 0.355 0.469 0.007 0.053 0.018 0.162 0.025 0.215-0.007 0.217 0.166 0.372 0.335 0.479 0.071 0.161 0.146 0.319 0.213 0.483 0.044 0.198 0.158 0.37 0.326 0.484 0.078 0.147 0.157 0.295 0.237 0.44 0.020 0.22 0.143 0.417 0.35 0.507 0.010 0.049 0.030 0.15 0.040 0.2 0.010 0.211 0.161 0.374 0.333 0.48 0.072 0.16 0.146 0.316 0.213 0.477 0.044 0.198 0.158 0.37 0.323 0.487 0.079 0.147 0.16 0.293 0.24 0.439 0.019 0.22 0.142 0.419 0.35 0.507 0.010 0.050 0.030 0.151 0.040 0.202 0.010 0.211 0.161 0.374 0.333 0.48 0.071 0.158 0.146 0.316 0.213 0.477 0.044 0.196 0.158 0.368 0.322 0.487 0.082 0.146 0.164 0.292 0.247 0.438 0.012 0.217 0.123 0.413 0.312 0.525 0.079 0.15 0.16 0.299 0.24 0.449 0.038 0.192 0.116 0.458 0.355 0.469 0.005 0.055 0.018 0.162 0.023 0.217-0.005 0.215 0.168 0.371 0.337 0.477 0.071 0.161 0.146 0.319 0.211 0.483 0.044 0.198 0.16 0.368 0.329 0.484 0.078 0.147 0.157 0.295 0.237 0.443 0.020 0.22 0.143 0.419 0.35 0.507 0.010 0.049 0.030 0.147 0.040 0.196 0.011 0.209 0.153 0.371 0.31 0.494 0.087 0.145 0.176 0.29 0.265 0.435 0.269 0.495 0.434 1.035 0.513 1.591-0.225 0.41-0.528 0.783-0.931 1.027-8.386 0.067-16.777-0.048-25.16 0.057-0.415-0.228-0.772-0.551-1.006-0.965-0.031-0.607 0.175-1.182 0.464-1.707 0.089-0.147 0.177-0.295 0.265-0.442 0.153-0.123 0.316-0.278 0.312-0.491 0.005-0.053 0.018-0.161 0.025-0.215 0.239-0.011 0.316-0.277 0.355-0.469 0.080-0.151 0.162-0.301 0.243-0.453 0.188-0.113 0.3-0.31 0.312-0.526 0.082-0.145 0.162-0.288 0.243-0.432 0.164-0.119 0.278-0.29 0.323-0.487 0.065-0.161 0.14-0.319 0.211-0.479 0.172-0.106 0.325-0.267 0.335-0.48 0.010-0.050 0.029-0.15 0.040-0.2 0.207-0.090 0.329-0.289 0.349-0.509 0.080-0.146 0.161-0.292 0.239-0.438 0.166-0.117 0.281-0.289 0.325-0.487 0.067-0.161 0.14-0.319 0.211-0.477 0.172-0.106 0.325-0.269 0.334-0.48 0.010-0.050 0.029-0.15 0.038-0.2 0.207-0.089 0.33-0.286 0.35-0.506 0.080-0.149 0.161-0.296 0.239-0.443 0.166-0.116 0.282-0.286 0.327-0.484 0.063-0.155 0.134-0.308 0.2-0.461 0.198-0.102 0.316-0.301 0.327-0.522 0.027-0.044 0.080-0.131 0.108-0.175 0.199-0.218 0.386-0.46 0.449-0.754 0.015-0.049 0.044-0.146 0.059-0.195 0.203-0.095 0.323-0.295 0.34-0.514 0.080-0.146 0.162-0.292 0.241-0.438 0.165-0.119 0.278-0.289 0.323-0.487 0.067-0.161 0.14-0.318 0.211-0.477 0.172-0.106 0.323-0.267 0.334-0.48 0.011-0.050 0.030-0.15 0.041-0.2 0.207-0.090 0.329-0.288 0.349-0.509 0.080-0.146 0.161-0.292 0.24-0.438 0.165-0.119 0.278-0.289 0.323-0.487 0.064-0.155 0.135-0.307 0.203-0.46 0.198-0.104 0.315-0.303 0.325-0.524 0.027-0.041 0.079-0.124 0.105-0.165 0.218-0.217 0.374-0.484 0.454-0.781 0.019-0.045 0.057-0.135 0.076-0.18 0.173-0.108 0.292-0.281 0.337-0.481 0.063-0.155 0.134-0.308 0.2-0.461 0.199-0.104 0.316-0.301 0.327-0.522 0.027-0.044 0.080-0.131 0.108-0.175 0.199-0.218 0.386-0.46 0.449-0.755 0.015-0.046 0.042-0.142 0.057-0.19 0.205-0.095 0.322-0.299 0.329-0.521 0.162-0.254 0.312-0.518 0.513-0.746M13.261 0.59c-0.286 0.102-0.447 0.38-0.6 0.626-3.971 6.886-7.962 13.763-11.932 20.651-0.439 0.599 0 1.572 0.769 1.537 8.092 0.008 16.185 0.010 24.275-0.001 0.768 0.034 1.204-0.935 0.768-1.534-3.987-6.918-7.992-13.826-11.985-20.741-0.22-0.483-0.792-0.76-1.295-0.537z"></path>
<path fill="#fff" d="M4.362 20.8c3.089-5.348 6.176-10.696 9.273-16.039 3.097 5.343 6.184 10.691 9.274 16.039-6.183 0.001-12.365 0.001-18.547 0M14.358 10.27c-0.445 0.125-0.56 0.783-0.184 1.051 0.348 0.307 0.964 0.049 0.987-0.416 0.059-0.424-0.404-0.784-0.803-0.635M14.88 11.746c-0.746 0.704-1.477 1.425-2.197 2.156-0.225 0.168-0.083 0.449-0.061 0.674-0.642-0.16-1.42 0.079-0.929 0.837-0.64 0.945-1 2.115-1.887 2.865 0.119 0.115 0.243 0.228 0.397 0.295 0.334-0.783 0.783-1.507 1.215-2.239 0.678 0.551 1.362 1.094 2.035 1.653-0.256 1.113 0.964 0.832 1.645 0.768 0.288 1.631 2.81 1.775 3.375 0.255 0.672-1.376-0.81-2.945-2.239-2.483 0.019 0.068 0.055 0.203 0.072 0.271 0.739-0.15 1.602 0.125 1.901 0.869 0.447 0.916-0.282 2.096-1.294 2.129-0.679 0.086-1.189-0.43-1.597-0.893 0.532-0.394 1.406 0.086 1.78-0.54-0.615-0.776-1.065-1.661-1.583-2.5 0.076-0.12 0.154-0.239 0.232-0.357 0.233-0.098 0.509-0.21 0.578-0.484-0.39-0.005-0.78 0.026-1.167 0.068 0.255-0.172 0.641-0.215 0.802-0.5-0.008-0.851-0.125-1.7-0.206-2.547-0.015-0.401-0.62-0.635-0.87-0.295M8.318 18.273c-0.065 1.283 1.459 2.25 2.592 1.636 1.151-0.506 1.365-2.197 0.405-3-0.17 0.451 0.334 0.779 0.32 1.225 0.153 1.099-1.118 2.029-2.118 1.535-1.032-0.395-1.237-1.947-0.331-2.587 0.457-0.435 1.13-0.187 1.651-0.453-1.125-0.554-2.572 0.397-2.52 1.643z"></path>
<path fill="#fff" d="M12.836 14.78c0.533-0.485 1.083-0.953 1.619-1.436 0.106 0.28 0.213 0.56 0.319 0.841-0.577 0.51-2.080 0.627-1.715 1.643-0.45-0.003-0.899-0.001-1.349-0.003 0.079-0.143 0.16-0.284 0.24-0.425-0.083-0.2-0.164-0.401-0.243-0.601 0.376-0.016 0.753-0.019 1.129-0.019z"></path>
<path fill="#fff" d="M13.743 15.695c0.409-0.224 0.844-0.397 1.27-0.584 0.173 0.108 0.364 0.183 0.539 0.288-0.089 0.142-0.176 0.285-0.263 0.428-0.515-0.014-1.055 0.072-1.545-0.132z"></path>
<path fill="#fff" d="M11.467 16.062c0.58-0.040 1.162-0.026 1.743-0.025 0.301 0.661 0.593 1.328 0.946 1.965-1.068-0.355-1.815-1.271-2.689-1.94z"></path>
<path fill="#fff" d="M14.037 16.038c0.374-0.001 0.747-0.001 1.121 0-0.206 0.355-0.415 0.708-0.625 1.061-0.169-0.353-0.334-0.706-0.496-1.061z"></path>
<path fill="#fff" d="M14.525 17.995c0.132-0.695 0.464-1.316 0.859-1.895 0.39 0.64 0.781 1.278 1.166 1.92-0.419-0.026-0.836-0.055-1.256-0.072 0.142-0.299 0.303-0.586 0.476-0.869-0.053-0.042-0.158-0.13-0.211-0.173-0.352 0.393-0.325 1.158-1.034 1.090z"></path>
<path fill="#d40000" d="M13.261 0.59c0.503-0.222 1.076 0.055 1.295 0.537 3.993 6.915 7.998 13.823 11.985 20.741 0.436 0.599 0 1.568-0.768 1.534-8.090 0.011-16.184 0.010-24.275 0.001-0.769 0.035-1.208-0.938-0.769-1.537 3.97-6.888 7.961-13.765 11.932-20.651 0.153-0.245 0.314-0.524 0.6-0.626M4.362 20.8c6.181 0.001 12.364 0.001 18.547 0-3.090-5.348-6.177-10.696-9.274-16.039-3.097 5.343-6.184 10.691-9.273 16.039z"></path>
<path fill="#353535" opacity="0.88" d="M14.711 0.521c0.179 0.095 0.355 0.255 0.344 0.476-0.24-0.010-0.319-0.28-0.344-0.476z"></path>
<path fill="#2c2c2c" opacity="0.86" d="M11.838 1.702c-0.008-0.228 0.119-0.431 0.329-0.521-0.007 0.222-0.124 0.425-0.329 0.521z"></path>
<path fill="#2a2a2a" opacity="0.85" d="M15.079 1.205c0.25 0.001 0.325 0.284 0.318 0.487-0.158-0.117-0.323-0.274-0.318-0.487z"></path>
<path fill="#2a2a2a" opacity="0.85" d="M10.36 4.286c-0.012-0.209 0.079-0.496 0.337-0.481-0.045 0.2-0.164 0.374-0.337 0.481z"></path>
<path fill="#2d2d2d" opacity="0.84" d="M11.332 2.647c-0.007-0.314 0.091-0.69 0.449-0.755-0.063 0.296-0.25 0.537-0.449 0.755z"></path>
<path fill="#2f2f2f" opacity="0.87" d="M15.641 2.138c0.213 0.082 0.353 0.278 0.349 0.509-0.207-0.089-0.33-0.288-0.349-0.509z"></path>
<path fill="#252525" opacity="0.84" d="M10.897 3.344c-0.015-0.23 0.112-0.438 0.327-0.522-0.011 0.221-0.128 0.419-0.327 0.522z"></path>
<path fill="#232323" opacity="0.83" d="M16.030 2.847c0.25 0 0.331 0.277 0.333 0.481-0.172-0.106-0.323-0.269-0.333-0.481z"></path>
<path fill="#292929" opacity="0.85" d="M16.576 3.806c0.26-0.016 0.349 0.277 0.322 0.487-0.165-0.119-0.278-0.289-0.322-0.487z"></path>
<path fill="#2b2b2b" opacity="0.82" d="M9.829 5.247c-0.037-0.34 0.125-0.659 0.454-0.781-0.080 0.297-0.236 0.565-0.454 0.781z"></path>
<path fill="#2e2e2e" opacity="0.87" d="M17.141 4.724c0.218 0.082 0.341 0.295 0.318 0.524-0.194-0.108-0.307-0.304-0.318-0.524z"></path>
<path fill="#242424" opacity="0.83" d="M9.4 5.936c-0.016-0.23 0.109-0.438 0.325-0.524-0.010 0.221-0.127 0.42-0.325 0.524z"></path>
<path fill="#222" opacity="0.82" d="M17.543 5.415c0.218 0.082 0.344 0.29 0.326 0.521-0.195-0.105-0.314-0.301-0.326-0.521z"></path>
<path fill="#282828" opacity="0.85" d="M8.873 6.882c-0.027-0.21 0.063-0.503 0.323-0.487-0.045 0.198-0.158 0.368-0.323 0.487z"></path>
<path fill="#272727" opacity="0.84" d="M18.072 6.398c0.256-0.014 0.352 0.267 0.345 0.477-0.177-0.105-0.3-0.277-0.345-0.477z"></path>
<path fill="#2e2e2e" opacity="0.86" d="M8.284 7.829c-0.004-0.23 0.135-0.427 0.349-0.509-0.020 0.221-0.142 0.419-0.349 0.509z"></path>
<path fill="#2c2c2c" opacity="0.86" d="M18.622 7.349c0.259-0.016 0.35 0.274 0.327 0.484-0.168-0.116-0.284-0.286-0.327-0.484z"></path>
<path fill="#222" opacity="0.82" d="M7.909 8.509c0.001-0.203 0.085-0.48 0.334-0.48-0.011 0.213-0.162 0.374-0.334 0.48z"></path>
<path fill="#323232" opacity="0.87" d="M19.196 8.296c0.185 0.086 0.368 0.244 0.355 0.469-0.237-0.011-0.316-0.277-0.355-0.469z"></path>
<path fill="#282828" opacity="0.84" d="M7.375 9.473c-0.027-0.21 0.063-0.503 0.323-0.487-0.045 0.198-0.158 0.368-0.323 0.487z"></path>
<path fill="#252525" opacity="0.83" d="M19.575 8.981c0.245 0.004 0.326 0.277 0.335 0.479-0.169-0.106-0.342-0.262-0.335-0.479z"></path>
<path fill="#2d2d2d" opacity="0.85" d="M6.794 10.425c-0.008-0.23 0.123-0.434 0.34-0.514-0.016 0.22-0.136 0.419-0.34 0.514z"></path>
<path fill="#2a2a2a" opacity="0.85" d="M20.123 9.942c0.259-0.016 0.349 0.274 0.326 0.484-0.168-0.115-0.282-0.286-0.326-0.484z"></path>
<path fill="#000" d="M14.358 10.27c0.4-0.149 0.862 0.211 0.803 0.635-0.023 0.465-0.64 0.723-0.987 0.416-0.376-0.269-0.26-0.926 0.184-1.051z"></path>
<path fill="#000" d="M14.88 11.746c0.25-0.341 0.855-0.106 0.87 0.295 0.080 0.847 0.198 1.696 0.206 2.547-0.161 0.285-0.547 0.329-0.802 0.5 0.387-0.042 0.777-0.074 1.167-0.068-0.070 0.274-0.345 0.386-0.578 0.484-0.078 0.119-0.155 0.237-0.232 0.357 0.518 0.839 0.968 1.724 1.583 2.5-0.374 0.626-1.248 0.146-1.78 0.54 0.408 0.464 0.918 0.979 1.597 0.893 1.012-0.033 1.741-1.212 1.294-2.129-0.299-0.743-1.162-1.019-1.901-0.869-0.018-0.068-0.053-0.203-0.072-0.271 1.429-0.462 2.911 1.107 2.239 2.483-0.565 1.52-3.087 1.376-3.375-0.255-0.68 0.064-1.901 0.345-1.645-0.768-0.672-0.559-1.357-1.102-2.035-1.653-0.432 0.732-0.881 1.456-1.215 2.239-0.154-0.067-0.278-0.18-0.397-0.295 0.888-0.75 1.248-1.92 1.887-2.865-0.491-0.758 0.286-0.997 0.929-0.837-0.022-0.225-0.164-0.506 0.061-0.674 0.72-0.731 1.451-1.452 2.197-2.156M12.836 14.78c-0.376 0-0.753 0.003-1.129 0.019 0.079 0.2 0.16 0.401 0.243 0.601-0.080 0.142-0.161 0.282-0.24 0.425 0.45 0.001 0.899 0 1.349 0.003-0.364-1.016 1.139-1.133 1.715-1.643-0.106-0.281-0.213-0.562-0.319-0.841-0.536 0.483-1.085 0.95-1.619 1.436M13.743 15.695c0.49 0.205 1.030 0.119 1.545 0.132 0.087-0.143 0.175-0.286 0.263-0.428-0.175-0.105-0.365-0.18-0.539-0.288-0.425 0.187-0.86 0.36-1.27 0.584M11.467 16.062c0.874 0.67 1.621 1.586 2.689 1.94-0.353-0.637-0.645-1.304-0.946-1.965-0.581-0.001-1.163-0.015-1.743 0.025M14.037 16.038c0.162 0.355 0.327 0.708 0.496 1.061 0.21-0.353 0.419-0.706 0.625-1.061-0.374-0.001-0.747-0.001-1.121 0M14.525 17.995c0.709 0.068 0.682-0.697 1.034-1.090 0.053 0.044 0.158 0.131 0.211 0.173-0.173 0.282-0.334 0.57-0.476 0.869 0.42 0.018 0.837 0.046 1.256 0.072-0.385-0.642-0.776-1.28-1.166-1.92-0.395 0.58-0.727 1.2-0.859 1.895z"></path>
<path fill="#000" d="M8.318 18.273c-0.052-1.246 1.395-2.197 2.52-1.643-0.521 0.266-1.195 0.018-1.651 0.453-0.905 0.64-0.701 2.191 0.331 2.587 1 0.494 2.27-0.436 2.118-1.535 0.014-0.446-0.491-0.773-0.32-1.225 0.96 0.803 0.746 2.494-0.405 3-1.133 0.614-2.658-0.353-2.592-1.636z"></path>
<path fill="#2e2e2e" opacity="0.83" d="M6.286 11.374c-0.007-0.314 0.091-0.69 0.449-0.754-0.063 0.295-0.25 0.536-0.449 0.754z"></path>
<path fill="#313131" opacity="0.87" d="M20.686 10.867c0.213 0.080 0.355 0.275 0.35 0.507-0.207-0.090-0.33-0.288-0.35-0.507z"></path>
<path fill="#262626" opacity="0.84" d="M5.851 12.071c-0.015-0.23 0.112-0.438 0.327-0.522-0.011 0.221-0.13 0.42-0.327 0.522z"></path>
<path fill="#252525" opacity="0.82" d="M21.076 11.575c0.248 0 0.331 0.277 0.333 0.48-0.172-0.106-0.323-0.269-0.333-0.48z"></path>
<path fill="#2b2b2b" opacity="0.85" d="M5.324 13.016c-0.023-0.21 0.067-0.5 0.327-0.484-0.045 0.198-0.161 0.368-0.327 0.484z"></path>
<path fill="#2a2a2a" opacity="0.84" d="M21.622 12.532c0.259-0.015 0.349 0.277 0.323 0.487-0.165-0.117-0.28-0.289-0.323-0.487z"></path>
<path fill="#313131" opacity="0.87" d="M4.735 13.965c-0.004-0.23 0.136-0.425 0.35-0.506-0.020 0.22-0.143 0.417-0.35 0.506z"></path>
<path fill="#303030" opacity="0.86" d="M22.185 13.458c0.213 0.082 0.353 0.277 0.35 0.507-0.209-0.089-0.331-0.288-0.35-0.507z"></path>
<path fill="#252525" opacity="0.82" d="M4.362 14.645c0.003-0.205 0.085-0.48 0.334-0.48-0.010 0.211-0.162 0.374-0.334 0.48z"></path>
<path fill="#232323" opacity="0.82" d="M22.575 14.167c0.25-0.001 0.331 0.275 0.333 0.48-0.172-0.106-0.323-0.269-0.333-0.48z"></path>
<path fill="#2a2a2a" opacity="0.84" d="M3.826 15.61c-0.026-0.21 0.064-0.502 0.325-0.487-0.044 0.198-0.158 0.37-0.325 0.487z"></path>
<path fill="#292929" opacity="0.84" d="M23.12 15.124c0.26-0.018 0.35 0.275 0.322 0.487-0.164-0.119-0.278-0.29-0.322-0.487z"></path>
<path fill="#292929" opacity="0.84" d="M2.329 18.202c-0.029-0.21 0.061-0.503 0.323-0.487-0.045 0.196-0.16 0.368-0.323 0.487z"></path>
<path fill="#2f2f2f" opacity="0.86" d="M3.239 16.556c-0.004-0.23 0.135-0.427 0.349-0.509-0.020 0.22-0.142 0.419-0.349 0.509z"></path>
<path fill="#2e2e2e" opacity="0.85" d="M23.689 16.049c0.22 0.079 0.342 0.295 0.312 0.525-0.19-0.112-0.3-0.308-0.312-0.525z"></path>
<path fill="#2e2e2e" opacity="0.85" d="M1.774 19.16c-0.030-0.23 0.093-0.446 0.312-0.526-0.012 0.217-0.124 0.413-0.312 0.526z"></path>
<path fill="#232323" opacity="0.82" d="M2.864 17.236c0.003-0.203 0.086-0.48 0.335-0.48-0.011 0.213-0.164 0.374-0.335 0.48z"></path>
<path fill="#333" opacity="0.87" d="M24.241 17.022c0.185 0.086 0.368 0.245 0.355 0.469-0.239-0.011-0.316-0.277-0.355-0.469z"></path>
<path fill="#333" opacity="0.87" d="M1.177 20.082c-0.014-0.224 0.169-0.383 0.355-0.469-0.038 0.192-0.116 0.458-0.355 0.469z"></path>
<path fill="#272727" opacity="0.83" d="M24.619 17.708c0.247 0.003 0.327 0.275 0.337 0.477-0.169-0.106-0.342-0.262-0.337-0.477z"></path>
<path fill="#272727" opacity="0.83" d="M0.84 20.789c-0.014-0.205 0.060-0.49 0.312-0.491 0.004 0.213-0.16 0.368-0.312 0.491z"></path>
<path fill="#2c2c2c" opacity="0.85" d="M25.167 18.668c0.259-0.016 0.35 0.274 0.329 0.484-0.169-0.116-0.285-0.286-0.329-0.484z"></path>
<path fill="#323232" opacity="0.87" d="M25.733 19.595c0.213 0.080 0.355 0.275 0.35 0.507-0.207-0.089-0.33-0.288-0.35-0.507z"></path>
<path fill="#262626" opacity="0.82" d="M26.123 20.299c0.254 0 0.331 0.288 0.31 0.494-0.157-0.123-0.299-0.285-0.31-0.494z"></path>
<path fill="#1e1e1e" opacity="0.79" d="M0 22.013c0.176-0.273 0.378-0.526 0.575-0.783-0.289 0.525-0.495 1.1-0.464 1.707l-0.112-0.176v-0.749z"></path>
<path fill="#1d1d1d" opacity="0.78" d="M26.697 21.228c0.2 0.265 0.401 0.529 0.575 0.811v1.030l-0.063-0.25c-0.079-0.556-0.244-1.096-0.513-1.591z"></path>
<path fill="#111" opacity="0.94" d="M1.118 23.903c8.384-0.105 16.774 0.010 25.16-0.057l-0.222 0.154h-25.16l0.222-0.097z"></path>
</svg>
