<!-- Generated by IcoMoon.io -->
<svg version="1.1" xmlns="http://www.w3.org/2000/svg" width="24" height="24" viewBox="0 0 24 24">
<title>warning--road-widens-left--g1</title>
<path fill="#ddaa18" opacity="0.92" d="M11.603 0h0.55c0.538 0.211 0.898 0.679 1.298 1.069 3.325 3.318 6.649 6.636 9.971 9.956 0.509 0.44 0.532 1.285 0.024 1.736-3.563 3.56-7.128 7.118-10.691 10.679-0.421 0.478-1.228 0.509-1.67 0.043-3.388-3.376-6.757-6.769-10.142-10.147-0.353-0.349-0.744-0.686-0.942-1.156v-0.54c0.199-0.487 0.608-0.828 0.97-1.192 3.122-3.118 6.236-6.244 9.356-9.364 0.4-0.39 0.761-0.842 1.277-1.086M11.809 0.292c-0.305 0.029-0.535 0.251-0.744 0.454-3.478 3.484-6.962 6.961-10.44 10.445-0.396 0.338-0.467 0.979-0.077 1.352 3.526 3.55 7.079 7.072 10.609 10.618 0.343 0.422 1.020 0.506 1.402 0.088 3.55-3.535 7.087-7.084 10.63-10.625 0.46-0.378 0.42-1.094-0.025-1.468-3.478-3.482-6.958-6.965-10.439-10.444-0.24-0.241-0.556-0.472-0.916-0.42z"></path>
<path fill="#000" d="M11.809 0.292c0.36-0.052 0.676 0.179 0.916 0.42 3.481 3.479 6.961 6.961 10.439 10.444 0.445 0.373 0.485 1.090 0.025 1.468-3.542 3.541-7.080 7.090-10.63 10.625-0.382 0.419-1.058 0.335-1.402-0.088-3.53-3.546-7.084-7.068-10.609-10.618-0.39-0.373-0.319-1.014 0.077-1.352 3.478-3.484 6.962-6.961 10.44-10.445 0.209-0.203 0.439-0.425 0.744-0.454M11.803 0.876c-3.57 3.466-7.049 7.036-10.585 10.541-0.164 0.181-0.54 0.451-0.268 0.701 3.43 3.454 6.886 6.883 10.32 10.333 0.191 0.185 0.364 0.4 0.605 0.524 0.275-0.061 0.442-0.32 0.641-0.499 3.433-3.448 6.882-6.88 10.316-10.325 0.234-0.184 0.091-0.425-0.088-0.578-3.497-3.504-7.001-7.001-10.499-10.504-0.126-0.106-0.257-0.284-0.443-0.193z"></path>
<path fill="#000" d="M9.91 5.832c0.115 0 0.347 0 0.462 0 0.004 0.373 0.004 0.748 0 1.121-0.115 0-0.347 0-0.462 0-0.004-0.373-0.004-0.748 0-1.121z"></path>
<path fill="#000" d="M13.010 6.95c-0.001-0.376 0-0.751 0.007-1.127 0.114 0.004 0.343 0.011 0.458 0.014 0.002 0.372 0.002 0.745-0.002 1.118-0.155-0.006-0.31-0.008-0.463-0.006z"></path>
<path fill="#000" d="M13.015 8.335c0.155 0.010 0.31 0.018 0.464 0.023 0 0.466-0.001 0.93-0.007 1.394-0.154-0.012-0.307-0.018-0.461-0.019-0.002-0.467-0.002-0.932 0.004-1.398z"></path>
<path fill="#000" d="M9.91 8.344c0.115 0 0.346 0 0.462 0 0.005 0.467 0.004 0.934-0.001 1.4-0.115 0-0.346 0-0.461 0-0.005-0.467-0.005-0.934 0-1.4z"></path>
<path fill="#f1ba1b" d="M11.803 0.876c0.186-0.091 0.317 0.088 0.443 0.193 3.498 3.503 7.002 7 10.499 10.504 0.179 0.154 0.322 0.395 0.088 0.578-3.434 3.445-6.883 6.877-10.316 10.325-0.199 0.179-0.366 0.438-0.641 0.499-0.241-0.125-0.414-0.34-0.605-0.524-3.434-3.45-6.89-6.88-10.32-10.333-0.272-0.25 0.103-0.52 0.268-0.701 3.536-3.505 7.015-7.075 10.585-10.541M7.104 5.851c-0.004 1.651-0.001 3.302-0.002 4.955-0.018 0.25 0.098 0.484 0.288 0.642 0.914 0.826 1.843 1.637 2.749 2.472 0.005 1.391-0.002 2.782 0.002 4.172 0.608 0.007 1.216 0.006 1.824 0.001 0.002-1.552 0.001-3.104 0.002-4.656 0.029-0.221-0.11-0.4-0.264-0.538-0.919-0.839-1.865-1.65-2.776-2.498 0-1.517 0.006-3.034-0.002-4.55-0.607-0.006-1.214-0.006-1.822 0M9.91 5.832c-0.004 0.373-0.004 0.748 0 1.121 0.115 0 0.347 0 0.462 0 0.004-0.373 0.004-0.748 0-1.121-0.115 0-0.347 0-0.462 0M11.267 5.843c0.002 1.531-0.026 3.065 0.012 4.595 0.494 1 1.198 1.891 1.71 2.885 0.056 1.588 0.005 3.181 0.023 4.771 0.154-0.001 0.307 0.001 0.461 0.008 0.012-1.314 0-2.628 0.006-3.942 0.216-1.558-1.312-2.578-1.745-3.953-0.017-1.451 0-2.902-0.006-4.352-0.154 0-0.307-0.004-0.461-0.012M13.010 6.95c0.154-0.002 0.308 0 0.463 0.006 0.005-0.373 0.005-0.746 0.002-1.118-0.115-0.004-0.344-0.011-0.458-0.014-0.007 0.376-0.008 0.751-0.007 1.127M14.489 5.858c-0.006 4.079-0.005 8.159-0.001 12.238 0.582 0.005 1.164 0.005 1.746 0 0.004-4.079 0.005-8.159-0.001-12.238-0.581-0.007-1.163-0.007-1.744 0M13.015 8.335c-0.006 0.466-0.006 0.931-0.004 1.398 0.154 0.001 0.307 0.007 0.461 0.019 0.006-0.464 0.007-0.929 0.007-1.394-0.155-0.005-0.31-0.013-0.464-0.023M9.91 8.344c-0.005 0.467-0.005 0.934 0 1.4 0.115 0 0.346 0 0.461 0 0.005-0.467 0.006-0.934 0.001-1.4-0.116 0-0.347 0-0.462 0z"></path>
<path fill="#1f1a17" d="M7.104 5.851c0.607-0.006 1.214-0.006 1.822 0 0.008 1.517 0.002 3.034 0.002 4.55 0.911 0.848 1.856 1.66 2.776 2.498 0.154 0.138 0.293 0.317 0.264 0.538-0.001 1.552 0 3.104-0.002 4.656-0.608 0.005-1.216 0.006-1.824-0.001-0.005-1.391 0.002-2.782-0.002-4.172-0.906-0.835-1.835-1.646-2.749-2.472-0.19-0.158-0.306-0.392-0.288-0.642 0.001-1.652-0.001-3.304 0.002-4.955z"></path>
<path fill="#1f1a17" d="M11.267 5.843c0.154 0.008 0.307 0.012 0.461 0.012 0.006 1.451-0.011 2.902 0.006 4.352 0.433 1.375 1.961 2.395 1.745 3.953-0.006 1.314 0.006 2.628-0.006 3.942-0.154-0.007-0.307-0.010-0.461-0.008-0.018-1.59 0.034-3.184-0.023-4.771-0.512-0.994-1.216-1.885-1.71-2.885-0.038-1.53-0.010-3.064-0.012-4.595z"></path>
<path fill="#1f1a17" d="M14.489 5.858c0.581-0.007 1.163-0.007 1.744 0 0.006 4.079 0.005 8.159 0.001 12.238-0.582 0.005-1.164 0.005-1.746 0-0.004-4.079-0.005-8.159 0.001-12.238z"></path>
</svg>
