<svg xmlns="http://www.w3.org/2000/svg" width="24" height="24">
    <path fill="#050505" d="M11.58.274c.282-.329.87-.339 1.158-.013 2.418 2.364 4.797 4.768 7.174 7.173.34.348.686.691 1.01 1.054v8.752c-.084-.01-.092.148 0 .1v5.738c-.112.408-.471.763-.883.851-5.167.054-10.335.035-15.502.001-.493.035-.82-.429-1.039-.808V8.282C6.2 5.621 8.851 2.91 11.578.274zm.364.213c-2.642 2.611-5.258 5.252-7.89 7.874-.128.142-.33.267-.307.485v7.999a.388.388 0 0 0 .406.406h16c.219.02.428-.186.407-.405V8.847c.014-.132-.058-.247-.152-.33L12.486.593a.437.437 0 0 0-.541-.105zM4.077 17.345c-.078 0-.156.002-.233.011a.876.876 0 0 0-.103-.009l.015.093c5.568.024 11.137.002 16.705.012a.339.339 0 0 0 .272-.08l-.112-.022c-.13-.006-.261-.004-.391-.004a6212.37 6212.37 0 0 0-16.153-.001zm-.323.293c-.013 1.697-.001 3.395-.007 5.093-.016.51.438.967.944.98h14.847c.174-.008.385.04.517-.107.252-.045.462-.272.537-.514l.02.078c.049-.167.07-.34.068-.514-.003-1.642.003-3.285-.003-4.927.012-.126-.137-.095-.215-.1-5.569.01-11.139-.012-16.708.011z"/>
    <path fill="#050505" d="M13.023 3.489c.403-.149.915-.038 1.138.355.287.43.112 1.087-.357 1.31-.44.244-1.045.023-1.245-.434-.228-.446.008-1.038.464-1.23zM9.337 5.192c.5-.227 1.132.108 1.213.653.086.48-.3.967-.78 1.012-.48.055-.965-.368-.944-.857a.845.845 0 0 1 .511-.808z"/>
    <path fill="#050505" d="M13.38 5.371c.273.043.512-.083.758-.176.098.382.638.275.785.612.348.669.703 1.334 1.052 2.002.007.25-.096.496-.075.751.102-.008.203-.023.304-.041.105.153.108.345.168.517.064.288.193.564.193.863-.346.076-.677.212-1.024.283l.063.021c-.162.017-.441.029-.427.255.006.735-.095 1.465-.087 2.198.412.904.876 1.787 1.287 2.693-.25.106-.479.255-.735.345a279.75 279.75 0 0 1-1.386-2.592c-.133-.491-.269-.984-.367-1.483-.191.282-.293.612-.447.914-.103.178-.068.389-.111.582-.063.826-.186 1.647-.211 2.476-.272-.012-.6.074-.837-.074.016-.427.059-.852.044-1.28l.037.074c.014-.76.09-1.517.118-2.277.229-.784.507-1.558.731-2.343-.088-.481-.246-.948-.323-1.431l-.088-.068c-.073.132-.147.262-.224.391-.316.058-.622.162-.931.249-.048.129-.127.244-.181.371l.27.011c.048.385.171.757.212 1.143-.357.111-.727.167-1.09.256.04.496.307.949.403 1.438a2.837 2.837 0 0 1-.488.132c.061.303.203.583.255.888l.019-.062c.15.691.463 1.345.597 2.039-.14.043-.28.094-.428.103-.419-.964-.836-1.93-1.247-2.897-.155-.012-.343-.089-.482-.003-.388.988-.744 1.989-1.133 2.977-.145-.05-.306-.074-.428-.174.27-.964.513-1.936.777-2.902.034-.14-.147-.15-.237-.182.232-.789.514-1.565.75-2.352-.02-.193-.1-.377-.184-.55-.1.22-.042.545-.292.67-.312.198-.62.404-.924.614-.142.135-.362-.095-.371-.234.301-.281.586-.579.89-.857.129-.114.135-.298.192-.45.143-.431.258-.872.417-1.297.155-.213.358-.39.546-.575.288.176.601-.175.87.038.214.152.531.216.625.49.128.292.264.582.394.874.309-.055.607-.199.884-.339.205-.624.376-1.263.569-1.892.103-.3.525-.399.547-.737zm1.442 2.004c.01.467.134.923.194 1.385l.19-.01c.069-.193.135-.393.159-.597-.175-.261-.313-.564-.543-.778zm-4.102 1.29c-.025.223-.106.434-.128.657l.153.006c.11-.195.182-.433.071-.645l-.095-.018z"/>
    <path fill="#fecf45" d="M11.944.487a.437.437 0 0 1 .541.105l7.922 7.924c.094.084.166.198.152.33v7.999c.022.22-.188.426-.407.405h-16a.388.388 0 0 1-.406-.406V8.845c-.023-.218.179-.343.307-.485 2.632-2.623 5.248-5.263 7.89-7.874zm1.079 3.002c-.456.192-.692.785-.464 1.23.2.457.805.678 1.245.434.469-.223.643-.88.357-1.31-.223-.393-.735-.503-1.138-.355zM9.337 5.192A.845.845 0 0 0 8.826 6c-.021.488.464.912.944.857.481-.045.866-.532.78-1.012-.082-.544-.713-.88-1.213-.653zm4.043.179c-.022.338-.444.437-.547.737-.193.629-.363 1.268-.569 1.892-.277.14-.575.284-.884.339-.13-.292-.265-.582-.394-.874-.095-.273-.411-.338-.625-.49-.269-.212-.582.138-.87-.038-.188.185-.391.362-.546.575-.159.425-.274.866-.417 1.297-.057.152-.063.336-.192.45-.304.278-.59.575-.89.857.008.139.229.369.371.234.304-.21.612-.416.924-.614.249-.124.191-.45.292-.67.084.173.165.357.184.55-.236.787-.517 1.563-.75 2.352.09.032.271.042.237.182-.263.966-.506 1.938-.777 2.902.122.1.283.124.428.174.389-.988.745-1.989 1.133-2.977.138-.086.326-.008.482.003.411.968.828 1.933 1.247 2.897.148-.009.287-.06.428-.103-.134-.694-.447-1.348-.597-2.039l-.019.062c-.052-.305-.193-.586-.255-.888.166-.03.33-.073.488-.132-.096-.488-.362-.942-.403-1.438.362-.088.733-.145 1.09-.256-.041-.386-.163-.758-.212-1.143l-.27-.011c.054-.127.132-.242.181-.371.309-.087.615-.191.931-.249.077-.129.152-.259.224-.391l.088.068c.077.483.235.95.323 1.431-.223.785-.502 1.559-.731 2.343-.028.76-.105 1.516-.118 2.277l-.037-.074c.015.427-.028.853-.044 1.28.237.148.565.062.837.074.025-.829.148-1.65.211-2.476.043-.193.008-.405.111-.582.154-.302.256-.632.447-.914.098.5.235.992.367 1.483.456.867.921 1.73 1.386 2.592.256-.09.485-.24.735-.345-.411-.906-.875-1.789-1.287-2.693-.009-.733.092-1.463.087-2.198-.014-.227.265-.239.427-.255l-.063-.021c.347-.072.678-.207 1.024-.283 0-.299-.13-.575-.193-.863-.059-.172-.063-.363-.168-.517a3.466 3.466 0 0 1-.304.041c-.022-.255.082-.501.075-.751-.349-.668-.704-1.333-1.052-2.002-.148-.337-.687-.231-.785-.612-.245.092-.484.219-.758.176z"/>
    <path fill="#fecf45" d="M14.822 7.375c.23.214.368.517.543.778-.024.203-.09.403-.159.597l-.19.01c-.06-.462-.184-.918-.194-1.385zM3.892 17.702c.187-.04.38-.018.57-.021h15.5c.216-.003.432-.007.648.014.028 1.293.004 2.587.012 3.881-.009.504.024 1.01-.03 1.513-.075.242-.285.469-.537.514-5.133.006-10.267.002-15.4.002-.389.034-.758-.299-.794-.681-.043-.293-.028-.591-.029-.887-.001-1.359.002-2.718-.002-4.078.005-.088.003-.187.063-.258zm2.449 1.136c-.373 1.118-.767 2.229-1.12 3.353.145.003.291.002.436.002.104-.312.202-.625.305-.937.427-.003.853.001 1.279-.002.108.31.206.625.307.938.157.002.313.002.47.001-.375-1.118-.752-2.237-1.13-3.354h-.547zm1.962 0v3.353h.443c.002-.548 0-1.095.001-1.643.515-.002 1.031-.001 1.546 0v1.643h.443v-3.353a16.355 16.355 0 0 0-.443 0c-.002.438-.001.876 0 1.313-.516.002-1.032.002-1.548 0 .001-.438.002-.876 0-1.313a32.708 32.708 0 0 0-.443 0zm3.115 0v3.354h2.095v-.395c-.55-.002-1.101.001-1.651-.002v-1.247c.513-.002 1.025 0 1.538-.002v-.394c-.513-.002-1.026.002-1.539-.002.002-.306.001-.612 0-.917.55-.004 1.101 0 1.652-.002v-.394h-2.095zm3.385 0a1199.43 1199.43 0 0 0-1.131 3.354h.447c.104-.312.202-.625.305-.937.427-.003.853.001 1.279-.002.109.311.206.625.307.938.157.002.313.002.47.001-.375-1.118-.752-2.237-1.13-3.354h-.547zm2 0v3.354c.663-.023 1.4.108 1.983-.288.631-.439.787-1.323.566-2.023a1.436 1.436 0 0 0-.975-.95c-.511-.146-1.05-.077-1.574-.093z"/>
    <path fill="#fecf45" d="M17.246 21.806c.007-.863-.008-1.727.008-2.59.537-.013 1.199-.001 1.527.502.289.505.292 1.215-.069 1.686-.355.43-.96.415-1.466.402zM6.601 19.297c.181.523.348 1.051.519 1.577l-1.033.001c.17-.526.342-1.052.514-1.578zM15.063 19.297c.181.523.348 1.051.519 1.577l-1.033.001c.17-.526.342-1.052.514-1.578z"/>
    <path fill="#f4c742" d="M10.72 8.665l.095.018c.111.212.039.45-.071.645l-.153-.006c.022-.223.104-.434.128-.657z"/>
    <path fill="#a5872d" d="M4.077 17.345a6212.37 6212.37 0 0 1 16.153.001c-5.384.001-10.769.002-16.153-.001zM3.754 17.638c5.569-.023 11.139-.001 16.708-.011.078.005.227-.026.215.1.006 1.642 0 3.284.003 4.927.002.173-.019.347-.068.514l-.02-.078c.054-.503.02-1.009.03-1.513-.008-1.293.016-2.588-.012-3.881-.216-.021-.432-.017-.648-.014h-15.5c-.19.003-.383-.019-.57.021-.06.072-.058.17-.063.258.004 1.359.001 2.718.002 4.078.002.295-.014.593.029.887.037.382.405.715.794.681 5.133 0 10.267.004 15.4-.002-.131.148-.342.1-.517.107H4.69c-.506-.012-.96-.469-.944-.98.006-1.698-.007-3.395.007-5.093z"/>
    <path fill="#b3b3b3" d="M3.741 17.347c.034 0 .068.003.103.009.077.021.152.048.232.053L20 17.408c.207-.005.427.035.622-.058l.112.022a.334.334 0 0 1-.272.08c-5.568-.01-11.137.013-16.705-.012a2.996 2.996 0 0 1-.015-.093z"/>
    <path fill="#fff" d="M3.844 17.356c.078-.009.155-.012.233-.011 5.384.003 10.769.002 16.153.001.13 0 .261-.002.391.004-.195.093-.414.053-.622.058l-15.924.001c-.08-.004-.155-.032-.232-.053z"/>
    <path d="M6.341 18.838h.547a942.7 942.7 0 0 1 1.13 3.354c-.157.002-.313.002-.47-.001-.101-.313-.198-.628-.307-.938-.427.003-.853-.001-1.279.002-.103.312-.201.626-.305.937-.145.001-.291.001-.436-.002.353-1.123.747-2.235 1.12-3.353zm.26.459a415.17 415.17 0 0 0-.514 1.578l1.033-.001c-.171-.526-.338-1.054-.519-1.577zM8.303 18.838c.148-.002.295-.002.443 0 .002.438.001.875 0 1.313.516.002 1.032.002 1.548 0-.001-.438-.002-.876 0-1.313h.443v3.353h-.443c-.002-.548 0-1.095 0-1.643H8.748c-.001.548.001 1.095-.001 1.643h-.443v-3.353zM11.418 18.838h2.095v.394c-.551.002-1.102-.002-1.652.002v.917c.513.004 1.026 0 1.539.002v.394c-.513.002-1.025-.001-1.538.002v1.247c.55.002 1.101 0 1.651.002v.395h-2.095v-3.354zM14.803 18.838h.547a942.7 942.7 0 0 1 1.13 3.354c-.157.002-.313.002-.47-.001-.101-.313-.198-.628-.307-.938-.426.003-.852 0-1.279.002-.103.312-.201.626-.305.937h-.447c.375-1.118.752-2.237 1.131-3.354zm.26.459a415.17 415.17 0 0 0-.514 1.578l1.033-.001c-.171-.526-.338-1.054-.519-1.577zM16.803 18.838c.524.016 1.063-.053 1.574.093.46.125.833.497.975.95.222.7.065 1.584-.566 2.023-.583.397-1.32.265-1.983.288v-3.354zm.443 2.968c.507.014 1.111.029 1.466-.402.361-.471.358-1.181.069-1.686-.328-.503-.991-.515-1.527-.502-.016.863-.001 1.727-.008 2.59z"/>
</svg>
