<!-- Generated by IcoMoon.io -->
<svg version="1.1" xmlns="http://www.w3.org/2000/svg" width="27" height="24" viewBox="0 0 27 24">
<title>warning--uneven-road--g1</title>
<path fill="#ec1d24" d="M13.348 0h0.498c0.572 0.115 1.096 0.455 1.372 0.977 3.737 6.464 7.474 12.928 11.211 19.391 0.274 0.484 0.589 0.95 0.771 1.48v0.689c-0.165 0.732-0.761 1.318-1.497 1.463h-24.172c-0.777-0.135-1.381-0.775-1.531-1.54v-0.497c0.076-0.262 0.171-0.519 0.305-0.757 3.911-6.758 7.815-13.52 11.727-20.277 0.269-0.496 0.778-0.803 1.316-0.929M2.856 21.598c7.169 0.003 14.339 0.004 21.509 0-3.584-6.198-7.163-12.398-10.755-18.59-3.591 6.193-7.172 12.392-10.754 18.59z"></path>
<path fill="#fff" d="M2.856 21.598c3.582-6.198 7.163-12.397 10.754-18.59 3.592 6.192 7.171 12.392 10.755 18.59-7.17 0.004-14.34 0.003-21.509 0M8.561 16.469c-0.78 0.669-1.507 1.628-2.658 1.554 0.002 0.857 0 1.714 0.001 2.57 5.137 0 10.275 0.001 15.412 0 0.001-0.857 0.001-1.713 0-2.569-1.068 0.061-1.81-0.761-2.507-1.436-0.679-0.609-1.707-0.746-2.55-0.433-0.759 0.299-1.132 1.081-1.753 1.558-0.492 0.392-1.245 0.405-1.75 0.032-0.449-0.316-0.739-0.797-1.144-1.161-0.805-0.777-2.176-0.77-3.051-0.115z"></path>
<path fill="#000" d="M8.561 16.469c0.875-0.655 2.246-0.662 3.051 0.115 0.405 0.364 0.695 0.845 1.144 1.161 0.505 0.373 1.258 0.36 1.75-0.032 0.621-0.477 0.994-1.259 1.753-1.558 0.843-0.313 1.871-0.176 2.55 0.433 0.697 0.675 1.439 1.497 2.507 1.436 0.001 0.856 0.001 1.712 0 2.569-5.137 0.001-10.275 0-15.412 0-0.001-0.856 0.001-1.713-0.001-2.57 1.151 0.074 1.878-0.885 2.658-1.554z"></path>
</svg>
