<?xml version="1.0" encoding="utf-8"?>
<!-- Generated by IcoMoon.io -->
<!DOCTYPE svg PUBLIC "-//W3C//DTD SVG 1.1//EN" "http://www.w3.org/Graphics/SVG/1.1/DTD/svg11.dtd">
<svg version="1.1" xmlns="http://www.w3.org/2000/svg" xmlns:xlink="http://www.w3.org/1999/xlink" width="24" height="24" viewBox="0 0 24 24">
<path fill="#f7e237" d="M11.686 1.31h0.673c0.308 0.204 0.652 0.401 0.782 0.771 0.146 0.273 0.33 0.526 0.483 0.796 0.123 0.354 0.377 0.637 0.546 0.967 0.131 0.234 0.284 0.455 0.421 0.686 0.080 0.192 0.168 0.378 0.261 0.563 0.145 0.226 0.294 0.448 0.429 0.68 0.105 0.317 0.323 0.572 0.483 0.859 0.143 0.276 0.33 0.526 0.476 0.8 0.112 0.196 0.236 0.383 0.356 0.575 0.063 0.132 0.127 0.263 0.19 0.396 0.142 0.226 0.29 0.45 0.428 0.68 0.030 0.073 0.090 0.217 0.12 0.288 0.121 0.19 0.25 0.375 0.368 0.567 0.154 0.386 0.4 0.723 0.615 1.077 0.030 0.072 0.090 0.215 0.119 0.287 0.149 0.222 0.301 0.443 0.425 0.681 0.112 0.196 0.237 0.385 0.359 0.577 0.199 0.43 0.411 0.854 0.69 1.24 0.152 0.388 0.403 0.72 0.612 1.076 0.121 0.357 0.374 0.64 0.553 0.966 0.108 0.314 0.317 0.574 0.483 0.858 0.146 0.276 0.326 0.531 0.484 0.799 0.030 0.072 0.090 0.215 0.12 0.287 0.123 0.188 0.25 0.374 0.36 0.571 0.127 0.236 0.276 0.458 0.419 0.686 0.062 0.131 0.126 0.263 0.19 0.396 0.141 0.228 0.29 0.451 0.429 0.681 0.063 0.149 0.13 0.297 0.196 0.444 0.086 0.141 0.167 0.284 0.246 0.429v0.676c-0.088 0.123-0.171 0.25-0.25 0.381-0.023 0.225-0.164 0.36-0.382 0.404-0.192 0.077-0.385 0.153-0.574 0.237h-22.041c-0.254-0.139-0.492-0.32-0.582-0.607-0.043-0.080-0.128-0.24-0.171-0.32v-0.526c0.127-0.157 0.163-0.359 0.225-0.545 0.123-0.189 0.254-0.372 0.372-0.564 0.033-0.070 0.097-0.212 0.13-0.284 0.156-0.338 0.352-0.654 0.561-0.96 0.090-0.186 0.179-0.371 0.259-0.561 0.183-0.323 0.429-0.61 0.553-0.966 0.153-0.269 0.334-0.523 0.49-0.79 0.080-0.19 0.168-0.377 0.259-0.56 0.121-0.192 0.247-0.379 0.371-0.568 0.029-0.072 0.088-0.215 0.119-0.288 0.182-0.323 0.43-0.608 0.554-0.963 0.15-0.272 0.334-0.524 0.49-0.793 0.106-0.314 0.313-0.577 0.488-0.855 0.061-0.131 0.124-0.263 0.188-0.394 0.143-0.228 0.292-0.451 0.421-0.687 0.11-0.196 0.237-0.382 0.36-0.571 0.030-0.072 0.091-0.215 0.12-0.287 0.159-0.269 0.335-0.526 0.491-0.794 0.033-0.070 0.097-0.211 0.128-0.281 0.148-0.343 0.372-0.64 0.566-0.957 0.063-0.15 0.128-0.299 0.193-0.45 0.161-0.266 0.335-0.526 0.494-0.793 0.030-0.072 0.090-0.215 0.12-0.286 0.121-0.19 0.251-0.377 0.372-0.567 0.029-0.072 0.088-0.215 0.119-0.286 0.141-0.229 0.288-0.454 0.428-0.683 0.063-0.131 0.126-0.262 0.189-0.394 0.175-0.277 0.377-0.542 0.49-0.855 0.211-0.353 0.457-0.688 0.612-1.073 0.142-0.228 0.292-0.452 0.422-0.688 0.114-0.196 0.24-0.386 0.349-0.586 0.135-0.148 0.276-0.291 0.419-0.43 0.083-0.041 0.25-0.124 0.334-0.166M11.615 1.899c-0.255 0.084-0.441 0.292-0.571 0.519-0.724 1.261-1.441 2.523-2.161 3.785-2.59 4.658-5.301 9.247-7.897 13.901-0.211 0.399-0.488 0.771-0.614 1.21-0.132 0.596 0.372 1.252 0.997 1.203 7.037-0.036 14.076-0.097 21.113-0.124 0.503 0.050 1.018-0.302 1.095-0.814 0.128-0.497-0.254-0.906-0.469-1.314-3.484-5.956-6.839-11.988-10.313-17.948-0.23-0.404-0.749-0.575-1.181-0.417z"></path>
<path fill="#f7e237" d="M11.928 4.516c0.244 0.29 0.408 0.634 0.599 0.96 2.848 4.931 5.666 9.88 8.483 14.829 0.030 0.069 0.091 0.206 0.121 0.273-6.134 0-12.269 0.074-18.404 0.098 3.109-5.363 6.127-10.778 9.201-16.16M10.983 10.63c-0.654 0.263-1.379 0.385-1.968 0.79-0.458 0.261-0.128 0.817-0.124 1.219 0.098 0.364-0.146 0.687-0.316 0.986 0.175 0.346 0.429 0.639 0.679 0.931 1.688-0.601 3.364-1.236 5.062-1.804-0.021-0.408 0.028-0.825-0.074-1.223-0.157-0.143-0.379-0.182-0.543-0.317-0.35-0.299-0.537-0.768-0.943-1.003-0.625-0.12-1.19 0.257-1.771 0.421M9.247 14.688c0.041 0.145 0.083 0.288 0.121 0.434 0.083-0.063 0.248-0.19 0.331-0.254 0.094 0.27 0.186 0.542 0.272 0.817 0.229-0.088 0.452-0.19 0.668-0.308-0.069-0.225-0.135-0.448-0.201-0.673 0.993-0.397 1.988-0.794 2.983-1.189 0.097 0.23 0.182 0.466 0.259 0.705 0.246-0.083 0.491-0.166 0.738-0.243-0.077-0.217-0.16-0.432-0.246-0.646 0.070-0.055 0.21-0.163 0.28-0.218-0.026-0.074-0.077-0.226-0.103-0.302-1.705 0.614-3.404 1.244-5.102 1.876M12.274 15.004c0.001 0.899 0.003 1.799 0.001 2.698-0.317 0.208-0.615 0.459-0.975 0.59-0.546-0.007-0.967-0.477-1.526-0.472-0.666-0.113-1.138 0.512-1.777 0.537-0.552 0.070-0.977-0.406-1.516-0.428-0.652-0.003-1.183 0.483-1.819 0.601-0.117 0.229-0.226 0.462-0.323 0.701 0.648 0.181 1.174-0.287 1.728-0.52 0.601-0.157 1.068 0.364 1.644 0.408 0.706 0.137 1.215-0.575 1.91-0.527 0.579-0.059 0.999 0.448 1.557 0.494 0.399-0.105 0.781-0.28 1.099-0.545 0.001 0.108 0.001 0.321 0.003 0.428-0.338 0.368-0.88 0.629-1.367 0.389-0.647-0.319-1.422-0.446-2.097-0.142-0.236 0.186-0.502 0.324-0.797 0.392-0.298-0.099-0.588-0.218-0.868-0.357-0.626-0.32-1.419-0.201-1.959 0.237-0.297 0.221-0.687 0.142-0.975-0.051-0.146 0.178-0.274 0.371-0.375 0.579 0.441 0.281 1.069 0.579 1.534 0.181 0.472-0.437 1.292-0.588 1.79-0.112 0.306 0.27 0.721 0.257 1.105 0.243 0.444-0.317 0.939-0.703 1.52-0.626 0.502 0.043 0.887 0.441 1.386 0.499 0.385-0.080 0.745-0.247 1.103-0.407 0 0.112-0.001 0.338-0.001 0.45 2.742-0.003 5.486-0.046 8.228-0.039-0.942-1.753-1.879-3.51-2.855-5.244-1.793 0.026-3.588 0.021-5.381 0.043z"></path>
<path fill="#f7e237" d="M10.575 11.611c0.571-0.166 1.112-0.448 1.703-0.532 0.308-0.052 0.623 0.218 0.648 0.521-0.098 0.161-0.29 0.206-0.452 0.27-0.92 0.327-1.834 0.668-2.756 0.994-0.091-0.199-0.201-0.407-0.177-0.633 0.16-0.429 0.662-0.476 1.033-0.621z"></path>
<path fill="#1e2826" d="M11.615 1.899c0.432-0.159 0.95 0.012 1.181 0.417 3.474 5.96 6.829 11.992 10.313 17.948 0.215 0.408 0.597 0.818 0.469 1.314-0.077 0.512-0.592 0.863-1.095 0.814-7.037 0.028-14.076 0.088-21.113 0.124-0.625 0.050-1.13-0.607-0.997-1.203 0.126-0.439 0.403-0.811 0.614-1.21 2.596-4.654 5.306-9.243 7.897-13.901 0.72-1.262 1.437-2.524 2.161-3.785 0.13-0.226 0.316-0.434 0.571-0.519M11.928 4.516c-3.074 5.382-6.092 10.797-9.201 16.16 6.135-0.023 12.27-0.098 18.404-0.098-0.030-0.068-0.091-0.204-0.121-0.273-2.817-4.949-5.634-9.898-8.483-14.829-0.19-0.326-0.354-0.67-0.599-0.96z"></path>
<path fill="#1e2826" d="M10.983 10.63c0.581-0.164 1.146-0.541 1.771-0.421 0.407 0.234 0.593 0.703 0.943 1.003 0.164 0.135 0.386 0.174 0.543 0.317 0.102 0.399 0.054 0.815 0.074 1.223-1.698 0.568-3.374 1.203-5.062 1.804-0.25-0.292-0.503-0.585-0.679-0.931 0.17-0.299 0.414-0.622 0.316-0.986-0.004-0.403-0.334-0.959 0.124-1.219 0.589-0.406 1.314-0.527 1.968-0.79M10.575 11.611c-0.371 0.145-0.873 0.192-1.033 0.621-0.025 0.226 0.086 0.434 0.177 0.633 0.921-0.327 1.836-0.668 2.756-0.994 0.163-0.065 0.354-0.109 0.452-0.27-0.025-0.303-0.341-0.574-0.648-0.521-0.592 0.084-1.132 0.367-1.703 0.532z"></path>
<path fill="#1e2826" d="M9.247 14.688c1.698-0.632 3.397-1.262 5.102-1.876 0.026 0.076 0.077 0.228 0.103 0.302-0.070 0.055-0.21 0.163-0.28 0.218 0.086 0.214 0.168 0.429 0.246 0.646-0.247 0.077-0.492 0.16-0.738 0.243-0.077-0.239-0.163-0.474-0.259-0.705-0.996 0.394-1.99 0.792-2.983 1.189 0.066 0.225 0.132 0.448 0.201 0.673-0.215 0.117-0.439 0.219-0.668 0.308-0.086-0.274-0.178-0.546-0.272-0.817-0.083 0.063-0.248 0.19-0.331 0.254-0.039-0.146-0.080-0.29-0.121-0.434z"></path>
<path fill="#1e2826" d="M12.274 15.004c1.793-0.022 3.588-0.017 5.381-0.043 0.977 1.734 1.913 3.491 2.855 5.244-2.742-0.007-5.486 0.036-8.228 0.039 0-0.112 0.001-0.338 0.001-0.45-0.359 0.16-0.719 0.327-1.103 0.407-0.499-0.058-0.884-0.457-1.386-0.499-0.581-0.077-1.076 0.309-1.52 0.626-0.383 0.014-0.799 0.028-1.105-0.243-0.498-0.476-1.319-0.326-1.79 0.112-0.465 0.399-1.092 0.101-1.534-0.181 0.101-0.208 0.229-0.401 0.375-0.579 0.288 0.193 0.679 0.272 0.975 0.051 0.539-0.439 1.332-0.557 1.959-0.237 0.28 0.139 0.57 0.258 0.868 0.357 0.295-0.068 0.561-0.206 0.797-0.392 0.674-0.303 1.45-0.177 2.097 0.142 0.487 0.24 1.029-0.021 1.367-0.389-0.001-0.106-0.001-0.32-0.003-0.428-0.319 0.265-0.701 0.44-1.099 0.545-0.559-0.046-0.978-0.553-1.557-0.494-0.695-0.048-1.204 0.663-1.91 0.527-0.577-0.044-1.043-0.566-1.644-0.408-0.554 0.233-1.080 0.701-1.728 0.52 0.097-0.239 0.206-0.472 0.323-0.701 0.636-0.119 1.167-0.604 1.819-0.601 0.539 0.022 0.964 0.498 1.516 0.428 0.639-0.025 1.11-0.65 1.777-0.537 0.559-0.006 0.979 0.465 1.526 0.472 0.36-0.131 0.658-0.382 0.975-0.59 0.001-0.899 0-1.799-0.001-2.698z"></path>
</svg>
