<svg xmlns="http://www.w3.org/2000/svg" width="24" height="24">
    <path fill="#facf00" d="M11.591 0h.698c.479.124.929.359 1.27.721 3.238 3.241 6.484 6.476 9.718 9.722.83.778.842 2.219.014 3.004l-9.844 9.844c-.76.803-2.158.827-2.938.041C7.225 20.057 3.95 16.77.665 13.493c-.34-.319-.539-.749-.666-1.189v-.68c.152-.803.786-1.343 1.338-1.885 3.02-3.02 6.038-6.042 9.06-9.061.325-.335.75-.544 1.193-.677zm-.036.763c-.409.084-.734.364-1.016.655-3.1 3.102-6.206 6.197-9.3 9.306-.682.632-.696 1.807-.012 2.444 3.158 3.163 6.323 6.323 9.482 9.485.632.703 1.838.713 2.477.013 3.163-3.157 6.324-6.317 9.482-9.479.701-.647.69-1.841-.012-2.483-3.133-3.148-6.278-6.283-9.422-9.421a1.737 1.737 0 0 0-1.679-.521z"/>
    <path fill="#facf00" d="M11.57 1.62c.366-.209.82-.055 1.084.245 3.139 3.142 6.286 6.276 9.42 9.422.394.334.406.979.016 1.32-3.166 3.155-6.323 6.319-9.486 9.478-.337.397-.982.384-1.312-.014-3.16-3.163-6.324-6.32-9.486-9.48-.43-.389-.306-1.084.133-1.411 3.22-3.175 6.36-6.445 9.631-9.559zm-.322 5.653c.168 1.355.121 2.759.432 4.08.218-1.349.266-2.722.408-4.081l-.84.001zm-3.18.112c1.115 1.214 2.05 2.641 3.295 3.704C10.629 9.823 9.786 8.619 9 7.383c-.311.002-.622-.002-.932.001zm5.295 1.14c-.385.805-.816 1.589-1.169 2.41.738-.775 1.409-1.612 2.116-2.413-.316-.006-.631.002-.947.004zm2.614 1.454c-1.25.342-2.069 1.475-3.299 1.865-.803.317-.802 1.879.263 1.596.41.47 1.112.346 1.399-.187 1.33-.168 2.656-.368 3.988-.514.385.642 1.384.509 1.486-.269.277-.103.826-.06.793-.479-.214-.851-.414-1.824-1.181-2.359a8.681 8.681 0 0 0-3.449.347zm-11.885.85c-.154.486-.482.985-.248 1.501.326.097.654.184.988.252.242.488.884.632 1.249.186 1.27.144 2.539.292 3.808.454a.635.635 0 0 0 1.091.163c.88.308.895-.946.298-1.255-.683-.379-1.59-.236-2.171-.83-.714-.732-1.783-.8-2.743-.827-.77.053-1.48.467-2.27.356zm7.472 6.506h.84c-.137-1.363-.178-2.737-.392-4.09-.302 1.334-.281 2.73-.448 4.09zm.723-3.822c.74 1.271 1.579 2.484 2.372 3.722.308-.004.618-.004.928-.008-1.118-1.217-2.05-2.646-3.3-3.714zm-2.941 2.58c.313.006.626 0 .94.001.394-.81.821-1.604 1.186-2.428-.745.775-1.417 1.618-2.125 2.426z"/>
    <path fill="#facf00" d="M18.233 9.91c.628-.145 1.301-.02 1.492.68-.403.084-.809.15-1.217.203-.102-.29-.196-.586-.275-.883zM16.577 10.097c.426-.079.857-.136 1.289-.175.086.325.164.653.232.983-.49.083-.979.161-1.47.232a16.382 16.382 0 0 1-.05-1.039zM14.567 11.442c.362-.659.982-1.198 1.745-1.304-.001.349-.005.698-.01 1.049-.577.092-1.153.196-1.735.256zM5.82 11.153c.392-.464 1.04-.442 1.588-.364l.037.812c-.512-.179-1.332.023-1.625-.449zM7.608 10.804c.634.065 1.412.378 1.546 1.073-.478-.053-.95-.138-1.423-.221-.042-.284-.082-.568-.122-.852zM18.892 12.059c.52-.228.901.607.379.848-.55.296-.966-.635-.379-.848zM5.333 12.167c.448-.205.75.527.296.707-.45.208-.763-.541-.296-.707zM13.484 12.652c.593-.154.796.829.185.912-.569.116-.751-.793-.185-.912zM10.357 12.751c.427-.175.732.51.307.7-.463.263-.8-.539-.307-.7z"/>
    <path d="M11.555.763a1.736 1.736 0 0 1 1.679.521c3.144 3.138 6.289 6.274 9.422 9.421.702.642.713 1.836.012 2.483a8473.958 8473.958 0 0 1-9.482 9.479c-.638.7-1.844.69-2.477-.013-3.16-3.162-6.324-6.322-9.482-9.485-.684-.637-.67-1.812.012-2.444 3.094-3.109 6.2-6.204 9.3-9.306.282-.292.607-.571 1.016-.655zm.015.857c-3.271 3.114-6.412 6.384-9.631 9.559-.439.328-.563 1.022-.133 1.411 3.162 3.16 6.326 6.317 9.486 9.48.33.398.974.412 1.312.014 3.163-3.158 6.32-6.323 9.486-9.478.39-.341.378-.986-.016-1.32-3.134-3.146-6.281-6.281-9.42-9.422-.264-.3-.718-.454-1.084-.245z"/>
    <path d="M11.248 7.273l.84-.001c-.142 1.36-.19 2.732-.408 4.081-.311-1.321-.264-2.725-.432-4.08zM8.068 7.385c.311-.004.622.001.932-.001.786 1.236 1.628 2.44 2.363 3.706-1.246-1.063-2.18-2.49-3.295-3.704zM13.363 8.525c.316-.001.631-.01.947-.004-.707.802-1.378 1.638-2.116 2.413.353-.821.784-1.604 1.169-2.41zM15.977 9.979a8.7 8.7 0 0 1 3.449-.347c.767.535.967 1.508 1.181 2.359.032.419-.516.376-.793.479-.102.778-1.1.911-1.486.269-1.332.145-2.658.346-3.988.514-.287.533-.989.658-1.399.187-1.064.283-1.066-1.279-.263-1.596 1.23-.39 2.048-1.523 3.299-1.865zm2.256-.069c.079.298.173.593.275.883.408-.053.814-.119 1.217-.203-.191-.701-.864-.826-1.492-.68zm-1.656.187c.006.347.023.694.05 1.039.491-.071.98-.149 1.47-.232a16.5 16.5 0 0 0-.232-.983c-.432.04-.863.096-1.289.175zm-2.01 1.345c.582-.06 1.158-.163 1.735-.256.005-.35.008-.7.01-1.049-.763.107-1.382.646-1.745 1.304zm4.325.617c-.587.214-.17 1.145.379.848.522-.241.14-1.076-.379-.848zm-5.408.593c-.566.119-.384 1.028.185.912.611-.083.408-1.066-.185-.912zM4.092 10.829c.791.11 1.5-.304 2.27-.356.96.026 2.029.095 2.743.827.581.594 1.488.451 2.171.83.598.31.582 1.564-.298 1.255a.635.635 0 0 1-1.091-.163c-1.268-.162-2.538-.31-3.808-.454-.365.446-1.007.302-1.249-.186a11.623 11.623 0 0 1-.988-.252c-.234-.516.095-1.015.248-1.501zm1.728.324c.293.472 1.112.27 1.625.449l-.037-.812c-.547-.078-1.195-.101-1.588.364zm1.788-.349c.041.284.08.568.122.852.473.083.946.168 1.423.221-.133-.695-.912-1.008-1.546-1.073zm-2.275 1.363c-.467.166-.154.914.296.707.454-.18.151-.912-.296-.707zm5.024.584c-.493.161-.156.962.307.7.425-.19.12-.875-.307-.7zM11.564 17.335c.167-1.36.145-2.755.448-4.09.215 1.352.256 2.726.392 4.09h-.84zM12.287 13.513c1.25 1.068 2.182 2.497 3.3 3.714-.31.005-.619.005-.928.008-.793-1.238-1.632-2.452-2.372-3.722zM9.346 16.093c.708-.809 1.38-1.651 2.125-2.426-.365.823-.792 1.618-1.186 2.428-.313-.001-.626.005-.94-.001z"/>
</svg>
