<svg xmlns="http://www.w3.org/2000/svg" width="24" height="24">
    <path fill="#231f20" d="M11.203.41c.672-.203 1.409.035 1.888.535 3.379 3.222 6.757 6.445 10.129 9.674.724.65.734 1.882.042 2.558-3.262 3.26-6.516 6.528-9.781 9.785-.713.728-1.997.728-2.692-.028-3.39-3.253-6.794-6.491-10.188-9.739-.727-.678-.674-1.922.043-2.587 3.134-3.148 6.282-6.282 9.42-9.425.323-.328.678-.662 1.139-.774zm.123.254c-.431.098-.764.41-1.067.714C7.126 4.524 3.973 7.654.846 10.806c-.614.558-.67 1.618-.049 2.191 3.418 3.262 6.832 6.527 10.247 9.792.592.604 1.654.575 2.238-.022 3.245-3.239 6.481-6.486 9.728-9.722.623-.574.658-1.654.013-2.226-3.366-3.234-6.749-6.451-10.124-9.676-.4-.415-1.007-.631-1.573-.48z"/>
    <path fill="#231f20" d="M11.196 1.114a1.812 1.812 0 0 1 1.841.484c3.156 3.006 6.307 6.017 9.455 9.031.744.638.756 1.877.047 2.545-3.04 3.044-6.083 6.084-9.125 9.124-.659.661-1.829.697-2.507.044-3.209-3.074-6.431-6.136-9.636-9.215-.701-.671-.607-1.878.098-2.512 2.894-2.908 5.801-5.803 8.7-8.706.324-.326.668-.672 1.127-.796zm.12.37c-.368.101-.646.38-.911.64C7.49 5.05 4.557 7.96 1.647 10.89c-.584.509-.641 1.501-.044 2.023l9.515 9.091c.547.587 1.55.541 2.082-.042 3.022-3.02 6.041-6.043 9.062-9.064.554-.524.547-1.496-.046-1.992-3.122-2.998-6.258-5.983-9.388-8.975-.379-.408-.97-.623-1.513-.448z"/>
    <path fill="#231f20" d="M11.201 6.524c.596-.289 1.35.256 1.267.91-.031.685-.932 1.09-1.457.638-.542-.383-.425-1.306.19-1.548z"/>
    <path fill="#231f20" d="M11.387 8.737c.382-.29 1.001-.808 1.432-.323.755.764 1.544 1.504 2.246 2.316.088.444.06.911.02 1.36-.156.425-.869.427-1.046.017-.05-.304-.031-.612-.03-.918a12.516 12.516 0 0 0-.631-.442c-.061.241-.229.486-.149.742.578 1.723 1.29 3.403 1.826 5.137.15.776-1.028 1.067-1.326.368-.577-1.381-1.052-2.806-1.606-4.199-.722 1.426-1.36 2.894-2.111 4.303-.412.647-1.525.084-1.23-.634.746-1.64 1.583-3.24 2.357-4.867.102-.198-.026-.412-.054-.611-.486.432-.871.973-1.394 1.362-.512.232-1.075-.505-.659-.914.781-.901 1.548-1.818 2.354-2.698z"/>
    <path fill="#fff100" d="M11.326.664c.566-.151 1.174.065 1.573.48 3.376 3.224 6.758 6.442 10.124 9.676.644.572.61 1.652-.013 2.226-3.247 3.236-6.484 6.484-9.728 9.722-.584.596-1.646.625-2.238.022-3.415-3.265-6.829-6.53-10.247-9.792-.62-.574-.565-1.633.049-2.191 3.127-3.152 6.28-6.282 9.413-9.428.302-.304.636-.616 1.067-.714zm-.13.45c-.458.124-.803.469-1.127.796-2.899 2.903-5.806 5.798-8.7 8.706-.706.634-.799 1.841-.098 2.512 3.205 3.079 6.427 6.14 9.636 9.215.678.653 1.848.617 2.507-.044 3.042-3.04 6.085-6.079 9.125-9.124.709-.668.697-1.907-.047-2.545a5038.166 5038.166 0 0 0-9.455-9.031 1.816 1.816 0 0 0-1.841-.484z"/>
    <path fill="#fff100" d="M11.316 1.484c.544-.175 1.134.04 1.513.448 3.13 2.992 6.265 5.977 9.388 8.975.593.496.6 1.468.046 1.992-3.022 3.02-6.041 6.043-9.062 9.064-.532.583-1.535.629-2.082.042-3.17-3.031-6.343-6.061-9.515-9.091-.596-.522-.54-1.514.044-2.023 2.91-2.93 5.843-5.84 8.758-8.766.265-.259.542-.539.911-.64zm-.115 5.04c-.614.242-.732 1.165-.19 1.548.524.451 1.426.047 1.457-.638.083-.654-.671-1.199-1.267-.91zm.186 2.213c-.806.88-1.573 1.796-2.354 2.698-.416.409.146 1.146.659.914.523-.389.908-.93 1.394-1.362.028.199.156.413.054.611-.774 1.627-1.61 3.227-2.357 4.867-.295.718.818 1.28 1.23.634.751-1.409 1.388-2.878 2.111-4.303.553 1.393 1.028 2.818 1.606 4.199.298.698 1.476.408 1.326-.368-.536-1.734-1.248-3.414-1.826-5.137-.08-.256.088-.5.149-.742.215.14.425.288.631.442-.001.306-.02.614.03.918.178.41.89.408 1.046-.017.04-.449.067-.916-.02-1.36-.702-.812-1.492-1.552-2.246-2.316-.431-.485-1.05.032-1.432.323z"/>
</svg>
