<!-- Generated by IcoMoon.io -->
<svg version="1.1" xmlns="http://www.w3.org/2000/svg" width="24" height="24" viewBox="0 0 24 24">
<title>warning--y-roads--g1</title>
<path fill="#231f20" d="M11.563 1.139c0.638-0.212 1.38-0.035 1.849 0.448 3.296 3.145 6.596 6.287 9.882 9.444 0.709 0.652 0.67 1.867-0.035 2.509-3.139 3.14-6.277 6.282-9.42 9.42-0.661 0.668-1.84 0.708-2.519 0.046-3.313-3.169-6.63-6.335-9.942-9.505-0.71-0.646-0.665-1.852 0.025-2.495 2.99-3.011 6.001-6 8.994-9.007 0.342-0.34 0.69-0.714 1.165-0.859M11.684 1.384c-0.366 0.1-0.654 0.364-0.917 0.625-3.055 3.065-6.122 6.12-9.173 9.19-0.59 0.542-0.624 1.565-0.025 2.114 3.313 3.166 6.628 6.331 9.943 9.496 0.595 0.593 1.644 0.511 2.196-0.098 3.139-3.143 6.283-6.281 9.419-9.425 0.577-0.574 0.539-1.602-0.085-2.128-3.245-3.116-6.505-6.216-9.757-9.325-0.403-0.427-1.031-0.628-1.601-0.449z"></path>
<path fill="#231f20" d="M12.047 1.726c0.521-0.040 1.028 0.192 1.388 0.562 3.052 2.908 6.103 5.818 9.146 8.735 0.71 0.624 0.714 1.823 0.023 2.462-2.94 2.94-5.88 5.88-8.82 8.82-0.704 0.721-1.972 0.655-2.612-0.118-3.037-2.924-6.098-5.822-9.14-8.741-0.66-0.628-0.62-1.766 0.029-2.386 2.852-2.867 5.717-5.724 8.574-8.586 0.372-0.394 0.847-0.738 1.412-0.749M11.672 2.182c-0.335 0.115-0.586 0.377-0.83 0.622-2.831 2.852-5.696 5.67-8.518 8.531-0.559 0.527-0.506 1.492 0.092 1.968 3.077 2.924 6.14 5.863 9.215 8.79 0.536 0.515 1.456 0.425 1.946-0.11 2.902-2.902 5.796-5.809 8.704-8.704 0.583-0.499 0.629-1.482 0.028-1.986-3.040-2.922-6.095-5.827-9.14-8.743-0.378-0.395-0.978-0.564-1.496-0.367z"></path>
<path fill="#231f20" d="M5.341 9.505c0.745-0.752 1.492-1.504 2.246-2.246 1.703 1.642 3.347 3.344 5.032 5.005 1.56-1.524 3.076-3.094 4.64-4.613 0.761 0.727 1.483 1.493 2.244 2.219-1.798 1.889-3.668 3.714-5.524 5.548-0.006 1.745 0.007 3.491-0.006 5.236-1.064 0.005-2.13 0.005-3.194 0-0.011-1.847 0.004-3.694-0.006-5.54 0.018-0.154-0.109-0.259-0.2-0.362-1.745-1.747-3.503-3.482-5.232-5.245z"></path>
<path fill="#fff100" d="M11.684 1.384c0.57-0.179 1.198 0.022 1.601 0.449 3.252 3.109 6.512 6.209 9.757 9.325 0.624 0.526 0.662 1.554 0.085 2.128-3.136 3.144-6.28 6.282-9.419 9.425-0.552 0.61-1.601 0.691-2.196 0.098-3.316-3.164-6.63-6.33-9.943-9.496-0.599-0.55-0.565-1.572 0.025-2.114 3.050-3.070 6.118-6.125 9.173-9.19 0.263-0.262 0.551-0.526 0.917-0.625M12.047 1.726c-0.565 0.011-1.040 0.355-1.412 0.749-2.857 2.862-5.722 5.719-8.574 8.586-0.649 0.619-0.689 1.758-0.029 2.386 3.042 2.918 6.103 5.816 9.14 8.741 0.641 0.773 1.908 0.839 2.612 0.118 2.94-2.94 5.88-5.88 8.82-8.82 0.691-0.64 0.688-1.838-0.023-2.462-3.043-2.917-6.095-5.827-9.146-8.735-0.36-0.37-0.868-0.601-1.388-0.562z"></path>
<path fill="#fff100" d="M11.672 2.182c0.518-0.197 1.118-0.028 1.496 0.367 3.046 2.916 6.101 5.821 9.14 8.743 0.601 0.504 0.556 1.487-0.028 1.986-2.908 2.894-5.802 5.802-8.704 8.704-0.491 0.535-1.41 0.625-1.946 0.11-3.074-2.927-6.138-5.866-9.215-8.79-0.599-0.476-0.652-1.441-0.092-1.968 2.821-2.861 5.687-5.678 8.518-8.531 0.245-0.245 0.496-0.506 0.83-0.622M5.341 9.505c1.729 1.763 3.487 3.498 5.232 5.245 0.091 0.103 0.218 0.209 0.2 0.362 0.010 1.847-0.005 3.694 0.006 5.54 1.064 0.005 2.13 0.005 3.194 0 0.013-1.745 0-3.491 0.006-5.236 1.855-1.834 3.726-3.659 5.524-5.548-0.761-0.726-1.483-1.492-2.244-2.219-1.565 1.519-3.080 3.089-4.64 4.613-1.685-1.661-3.329-3.364-5.032-5.005-0.755 0.743-1.501 1.494-2.246 2.246z"></path>
</svg>
