<!-- Generated by IcoMoon.io -->
<svg version="1.1" xmlns="http://www.w3.org/2000/svg" width="27" height="24" viewBox="0 0 27 24">
<title>warning--gate--g1</title>
<path fill="#e20a16" d="M13.459 0h0.462c0.302 0.169 0.543 0.424 0.704 0.728 4.253 7.421 8.576 14.803 12.804 22.238v0.481c-0.158 0.162-0.314 0.322-0.48 0.476-1.895-0.115-3.795-0.033-5.691-0.056-6.913 0.029-13.829-0.059-20.741 0.044-0.204-0.122-0.355-0.311-0.516-0.483v-0.407c4.175-7.403 8.499-14.725 12.712-22.107 0.182-0.354 0.442-0.66 0.747-0.913M3.544 21.593c6.786 0.004 13.573 0.004 20.359 0-3.39-5.878-6.782-11.756-10.18-17.63-3.397 5.874-6.79 11.75-10.179 17.63z"></path>
<path fill="#fff" d="M3.544 21.593c3.389-5.879 6.782-11.756 10.179-17.63 3.398 5.874 6.79 11.752 10.18 17.63-6.786 0.004-13.573 0.004-20.359 0M8.024 14.837c-0.037 1.946-0.004 3.896-0.015 5.844 0.24 0 0.481 0 0.721 0 0-0.442 0.001-0.883 0.001-1.325 0.225 0 0.45-0.001 0.675-0.005 0.016 0.331-0.029 0.905 0.464 0.856 2.471 0.022 4.943-0.001 7.415 0.011 0.24-0.019 0.555 0.045 0.694-0.213 0.096-0.769 0.016-1.55 0.041-2.325 0.232 0.001 0.462 0.003 0.694 0.003 0.001 1 0 1.998 0.001 2.998 0.24 0 0.48 0 0.721 0-0.011-1.949 0.023-3.899-0.015-5.846 0.010-0.422-0.719-0.41-0.69 0.005-0.047 0.882 0 1.766-0.018 2.65-0.232 0.001-0.462 0.001-0.693 0.001-0.022-0.753 0.041-1.51-0.030-2.26-0.080-0.315-0.455-0.263-0.701-0.276-2.474 0.012-4.948-0.012-7.421 0.011-0.487-0.048-0.446 0.527-0.469 0.853-0.222-0.001-0.444-0.004-0.667-0.003-0.008-0.359 0.027-0.723-0.037-1.078-0.097-0.341-0.686-0.265-0.673 0.099z"></path>
<path fill="#fff" d="M9.92 19.723c0.001-1.424 0-2.847 0-4.271 2.216-0.003 4.431 0.003 6.646-0.003-2.22 1.417-4.434 2.843-6.646 4.273z"></path>
<path fill="#fff" d="M10.899 19.716c2.205-1.426 4.416-2.846 6.627-4.264 0.004 1.424 0 2.846 0.001 4.269-2.209-0.003-4.419 0.007-6.628-0.005z"></path>
<path fill="#fff" d="M8.733 16.010c0.23-0.001 0.461-0.001 0.693-0.001 0.001 1.052 0 2.104 0.001 3.156-0.233-0.003-0.465-0.003-0.697-0.001 0.003-1.052-0.001-2.102 0.003-3.153z"></path>
<path fill="#000" d="M8.024 14.837c-0.012-0.363 0.576-0.44 0.673-0.099 0.064 0.355 0.029 0.719 0.037 1.078 0.222-0.001 0.444 0.001 0.667 0.003 0.023-0.326-0.018-0.901 0.469-0.853 2.473-0.023 4.947 0.001 7.421-0.011 0.245 0.012 0.621-0.040 0.701 0.276 0.071 0.75 0.008 1.507 0.030 2.26 0.23 0 0.461 0 0.693-0.001 0.018-0.883-0.029-1.768 0.018-2.65-0.029-0.416 0.699-0.428 0.69-0.005 0.038 1.947 0.004 3.898 0.015 5.846-0.241 0-0.481 0-0.721 0-0.001-1 0-1.998-0.001-2.998-0.232 0-0.462-0.001-0.694-0.003-0.025 0.775 0.055 1.555-0.041 2.325-0.139 0.258-0.454 0.193-0.694 0.213-2.473-0.012-4.944 0.011-7.415-0.011-0.492 0.049-0.447-0.525-0.464-0.856-0.225 0.004-0.45 0.005-0.675 0.005 0 0.442-0.001 0.883-0.001 1.325-0.24 0-0.481 0-0.721 0 0.011-1.947-0.022-3.898 0.015-5.844M9.92 19.723c2.212-1.43 4.426-2.857 6.646-4.273-2.215 0.005-4.43 0-6.646 0.003 0 1.424 0.001 2.847 0 4.271M10.899 19.716c2.209 0.012 4.419 0.003 6.628 0.005-0.001-1.424 0.003-2.846-0.001-4.269-2.211 1.418-4.421 2.837-6.627 4.264M8.733 16.010c-0.004 1.051 0 2.101-0.003 3.153 0.232-0.001 0.464-0.001 0.697 0.001-0.001-1.052 0-2.104-0.001-3.156-0.232 0-0.462 0-0.693 0.001z"></path>
<path fill="#120102" opacity="0.08" d="M0 23.428c0.16 0.171 0.311 0.361 0.516 0.483l0.158 0.089h-0.673v-0.572z"></path>
<path fill="#190102" opacity="0.11" d="M26.949 23.923c0.166-0.154 0.322-0.314 0.48-0.476v0.553h-0.623l0.143-0.077z"></path>
<path fill="#c20813" opacity="0.86" d="M0.516 23.911c6.912-0.103 13.828-0.015 20.741-0.044 1.897 0.023 3.796-0.059 5.691 0.056l-0.143 0.077h-26.133l-0.158-0.089z"></path>
</svg>
