<?xml version="1.0" encoding="utf-8"?>
<!-- Generated by IcoMoon.io -->
<!DOCTYPE svg PUBLIC "-//W3C//DTD SVG 1.1//EN" "http://www.w3.org/Graphics/SVG/1.1/DTD/svg11.dtd">
<svg version="1.1" xmlns="http://www.w3.org/2000/svg" xmlns:xlink="http://www.w3.org/1999/xlink" width="24" height="24" viewBox="0 0 24 24">
<path fill="#ffd700" d="M10.867 0.546c0.704-0.731 1.962-0.596 2.628 0.118 3.317 3.324 6.619 6.661 9.935 9.986 0.221 0.22 0.416 0.466 0.57 0.737v1.639c-0.26 0.391-0.622 0.696-0.949 1.028-3.209 3.191-6.42 6.378-9.625 9.572-0.143 0.136-0.296 0.259-0.458 0.373h-1.626c-0.43-0.21-0.74-0.578-1.070-0.911-3.212-3.232-6.43-6.46-9.641-9.692-0.704-0.682-0.8-1.938-0.053-2.624 3.428-3.41 6.854-6.824 10.29-10.226M11.687 0.552c-0.341 0.085-0.607 0.328-0.848 0.57-3.289 3.27-6.58 6.54-9.865 9.815-0.643 0.577-0.613 1.662 0 2.249 3.329 3.35 6.66 6.698 9.986 10.050 0.574 0.613 1.656 0.688 2.246 0.059 3.365-3.356 6.744-6.701 10.11-10.057 0.624-0.606 0.514-1.684-0.107-2.251-3.289-3.313-6.581-6.624-9.877-9.93-0.407-0.448-1.055-0.67-1.645-0.504z"></path>
<path fill="#ffd700" d="M11.782 1.352c0.379-0.197 0.804 0.028 1.061 0.317 3.192 3.21 6.386 6.418 9.577 9.63 0.432 0.325 0.785 1.013 0.287 1.445-3.353 3.324-6.696 6.659-10.045 9.986-0.305 0.334-0.857 0.271-1.146-0.050-3.312-3.326-6.616-6.661-9.931-9.985-0.346-0.3-0.428-0.892-0.055-1.205 3.28-3.282 6.582-6.541 9.866-9.818 0.121-0.114 0.24-0.236 0.386-0.319M10.168 3.636c0.001 1.309-0.011 2.618 0.004 3.928 0.083 1.032 1.243 1.622 2.188 1.475 0.815-0.070 1.627-0.736 1.6-1.601 0-1.267 0.001-2.534-0.002-3.802-1.262-0.001-2.526-0.001-3.788 0M6.827 8.164c-0.588 1.090-1.214 2.158-1.792 3.253-0.164 0.245 0.080 0.587 0.364 0.539 0.421-0.155 0.804-0.395 1.205-0.592-0.012 1.32 0.29 2.682 1.057 3.775 0.296 0.456 0.852 0.7 1.050 1.224 0.281 0.702 0.328 1.469 0.361 2.216 0.528-0.019 1.057-0.037 1.585-0.055-0.136-1.139-0.125-2.354-0.73-3.371-0.336-0.691-1.057-1.1-1.342-1.822-0.323-0.631-0.308-1.351-0.325-2.040 0.444 0.152 0.863 0.415 1.336 0.461 0.286 0.018 0.344-0.36 0.192-0.541-0.695-1.054-1.442-2.072-2.152-3.116-0.131-0.16-0.223-0.383-0.433-0.45-0.179 0.126-0.266 0.336-0.377 0.518M16.531 7.889c-0.744 1.063-1.483 2.129-2.222 3.193-0.142 0.182-0.268 0.511-0.007 0.654 0.521 0.052 0.976-0.298 1.457-0.444 0.026 0.959-0.101 1.994-0.768 2.737-0.427 0.428-0.828 0.894-1.069 1.456-0.445 0.95-0.432 2.020-0.559 3.040 0.528 0.018 1.057 0.036 1.585 0.055 0.032-0.737 0.079-1.492 0.349-2.186 0.186-0.541 0.756-0.785 1.056-1.247 0.772-1.094 1.075-2.46 1.063-3.784 0.395 0.194 0.77 0.43 1.182 0.584 0.355 0.089 0.568-0.374 0.342-0.628-0.662-1.182-1.294-2.384-1.988-3.547-0.12-0.25-0.33-0.026-0.42 0.116z"></path>
<path fill="#000" d="M11.687 0.552c0.59-0.166 1.238 0.056 1.645 0.504 3.296 3.306 6.588 6.617 9.877 9.93 0.62 0.568 0.731 1.645 0.107 2.251-3.366 3.356-6.745 6.701-10.11 10.057-0.59 0.629-1.673 0.554-2.246-0.059-3.326-3.352-6.658-6.7-9.986-10.050-0.613-0.587-0.643-1.672 0-2.249 3.286-3.275 6.576-6.545 9.865-9.815 0.241-0.242 0.508-0.485 0.848-0.57M11.782 1.352c-0.146 0.083-0.265 0.205-0.386 0.319-3.284 3.277-6.587 6.536-9.866 9.818-0.373 0.313-0.29 0.905 0.055 1.205 3.316 3.324 6.619 6.659 9.931 9.985 0.289 0.322 0.841 0.384 1.146 0.050 3.349-3.328 6.692-6.662 10.045-9.986 0.498-0.432 0.145-1.12-0.287-1.445-3.191-3.212-6.385-6.42-9.577-9.63-0.257-0.289-0.682-0.514-1.061-0.317z"></path>
<path fill="#000" d="M10.168 3.636c1.262-0.001 2.526-0.001 3.788 0 0.004 1.267 0.002 2.534 0.002 3.802 0.028 0.865-0.785 1.531-1.6 1.601-0.944 0.148-2.105-0.443-2.188-1.475-0.014-1.309-0.002-2.618-0.004-3.928z"></path>
<path fill="#000" d="M6.827 8.164c0.11-0.182 0.198-0.392 0.377-0.518 0.21 0.067 0.302 0.29 0.433 0.45 0.709 1.044 1.457 2.063 2.152 3.116 0.152 0.181 0.094 0.559-0.192 0.541-0.473-0.046-0.892-0.308-1.336-0.461 0.017 0.689 0.002 1.409 0.325 2.040 0.284 0.721 1.006 1.13 1.342 1.822 0.605 1.016 0.594 2.232 0.73 3.371-0.528 0.018-1.057 0.036-1.585 0.055-0.034-0.748-0.080-1.514-0.361-2.216-0.198-0.524-0.754-0.768-1.050-1.224-0.767-1.093-1.069-2.455-1.057-3.775-0.401 0.197-0.784 0.437-1.205 0.592-0.283 0.048-0.528-0.294-0.364-0.539 0.577-1.096 1.204-2.164 1.792-3.253z"></path>
<path fill="#000" d="M16.531 7.889c0.090-0.143 0.3-0.366 0.42-0.116 0.695 1.163 1.326 2.365 1.988 3.547 0.226 0.253 0.013 0.716-0.342 0.628-0.412-0.155-0.787-0.39-1.182-0.584 0.012 1.324-0.292 2.689-1.063 3.784-0.3 0.462-0.87 0.706-1.056 1.247-0.27 0.695-0.317 1.45-0.349 2.186-0.528-0.019-1.057-0.037-1.585-0.055 0.127-1.020 0.114-2.089 0.559-3.040 0.241-0.562 0.642-1.027 1.069-1.456 0.667-0.743 0.794-1.778 0.768-2.737-0.481 0.146-0.936 0.496-1.457 0.444-0.26-0.143-0.134-0.472 0.007-0.654 0.739-1.064 1.478-2.13 2.222-3.193z"></path>
</svg>
