<?xml version="1.0" encoding="utf-8"?>
<!-- Generated by IcoMoon.io -->
<!DOCTYPE svg PUBLIC "-//W3C//DTD SVG 1.1//EN" "http://www.w3.org/Graphics/SVG/1.1/DTD/svg11.dtd">
<svg version="1.1" xmlns="http://www.w3.org/2000/svg" xmlns:xlink="http://www.w3.org/1999/xlink" width="24" height="24" viewBox="0 0 24 24">
<path fill="#fee011" d="M11.858 0h0.221c0.317 0.043 0.606 0.188 0.827 0.419 3.563 3.556 7.122 7.115 10.681 10.674 0.229 0.218 0.376 0.508 0.413 0.823v0.194c-0.052 0.301-0.194 0.575-0.421 0.78-3.4 3.403-6.797 6.809-10.198 10.21-0.364 0.361-0.704 0.812-1.244 0.9h-0.266c-0.294-0.056-0.575-0.179-0.782-0.398-3.454-3.468-6.908-6.936-10.364-10.402-0.312-0.299-0.656-0.612-0.724-1.064v-0.244c0.054-0.562 0.527-0.91 0.889-1.284 3.236-3.242 6.476-6.482 9.713-9.727 0.362-0.361 0.714-0.805 1.256-0.881M11.67 0.277c-0.218 0.080-0.379 0.258-0.542 0.413-3.533 3.552-7.086 7.084-10.618 10.636-0.368 0.32-0.394 0.944-0.024 1.273 3.631 3.648 7.278 7.282 10.912 10.926 0.313 0.331 0.888 0.322 1.2-0.004 3.625-3.617 7.242-7.242 10.866-10.859 0.394-0.337 0.406-0.998 0.023-1.348-3.576-3.584-7.16-7.163-10.742-10.742-0.264-0.294-0.695-0.442-1.074-0.295z"></path>
<path fill="#fee011" d="M11.786 0.734c0.22-0.136 0.478-0.008 0.628 0.169 3.559 3.562 7.129 7.114 10.686 10.679 0.236 0.184 0.282 0.557 0.041 0.757-3.598 3.605-7.206 7.202-10.811 10.801-0.162 0.191-0.5 0.191-0.662-0.001-3.608-3.596-7.22-7.189-10.826-10.788-0.266-0.208-0.209-0.592 0.043-0.784 3.425-3.415 6.853-6.828 10.279-10.241 0.204-0.2 0.394-0.42 0.623-0.593M14.617 9.841c-0.072 0.767-0.011 1.541-0.031 2.311-0.253-0.001-0.506-0.001-0.76 0 0.004-0.925 0-1.85 0.002-2.776-3.154-0.001-6.306-0.001-9.46 0 0.001 1.451 0 2.9 0.001 4.351 0.472 0 0.943 0.001 1.416-0.001 0.274-0.672 0.775-1.34 1.531-1.48 0.965-0.21 2.044 0.502 2.117 1.512 1.715 0 3.431 0.002 5.146-0.001 0.23-1.078 1.502-1.789 2.525-1.318 0.73 0.302 1.042 1.135 0.998 1.88 0.448-0.013 0.896 0.024 1.342-0.013 0.206-0.006 0.174-0.248 0.184-0.388-0.026-0.95-0.024-1.902-0.074-2.85-0.145-0.050-0.286-0.115-0.426-0.176-0.241-0.569-0.484-1.138-0.715-1.71-0.065-0.244-0.334-0.305-0.547-0.347-0.71-0.116-1.436-0.112-2.152-0.053-0.553 0.062-1.034 0.493-1.097 1.057M7.133 12.673c-0.344 0.139-0.625 0.422-0.762 0.767-0.313 0.721 0.127 1.62 0.874 1.844 0.858 0.312 1.848-0.454 1.796-1.355 0.022-0.936-1.056-1.646-1.908-1.256M15.989 12.616c-0.406 0.1-0.756 0.395-0.926 0.775-0.349 0.72 0.080 1.646 0.833 1.884 0.864 0.337 1.882-0.437 1.823-1.352 0.012-0.858-0.905-1.555-1.729-1.307z"></path>
<path fill="#fee011" d="M16.027 9.48c0.625-0.001 1.252 0.001 1.878-0.001 0.167 0.457 0.338 0.913 0.511 1.368-0.797 0.002-1.592 0.001-2.389 0.001 0-0.456 0-0.912 0-1.368z"></path>
<path fill="#000" d="M11.67 0.277c0.379-0.146 0.81 0.001 1.074 0.295 3.582 3.58 7.166 7.158 10.742 10.742 0.383 0.349 0.371 1.010-0.023 1.348-3.624 3.617-7.241 7.242-10.866 10.859-0.312 0.325-0.887 0.335-1.2 0.004-3.634-3.644-7.28-7.278-10.912-10.926-0.37-0.329-0.344-0.953 0.024-1.273 3.532-3.552 7.085-7.084 10.618-10.636 0.163-0.155 0.324-0.332 0.542-0.413M11.786 0.734c-0.229 0.173-0.419 0.392-0.623 0.593-3.426 3.413-6.854 6.826-10.279 10.241-0.252 0.192-0.31 0.576-0.043 0.784 3.606 3.599 7.218 7.192 10.826 10.788 0.162 0.192 0.5 0.192 0.662 0.001 3.605-3.599 7.213-7.196 10.811-10.801 0.241-0.2 0.196-0.574-0.041-0.757-3.557-3.565-7.127-7.117-10.686-10.679-0.15-0.178-0.408-0.305-0.628-0.169z"></path>
<path fill="#000" d="M14.617 9.841c0.062-0.564 0.544-0.995 1.097-1.057 0.715-0.059 1.441-0.064 2.152 0.053 0.214 0.042 0.482 0.103 0.547 0.347 0.232 0.572 0.474 1.141 0.715 1.71 0.14 0.061 0.281 0.126 0.426 0.176 0.050 0.948 0.048 1.9 0.074 2.85-0.010 0.139 0.023 0.382-0.184 0.388-0.445 0.037-0.894 0-1.342 0.013 0.043-0.745-0.269-1.578-0.998-1.88-1.022-0.472-2.294 0.24-2.525 1.318-1.715 0.004-3.431 0.001-5.146 0.001-0.073-1.010-1.152-1.722-2.117-1.512-0.756 0.139-1.258 0.808-1.531 1.48-0.473 0.002-0.944 0.001-1.416 0.001-0.001-1.451 0-2.9-0.001-4.351 3.154-0.001 6.306-0.001 9.46 0-0.002 0.925 0.001 1.85-0.002 2.776 0.253-0.001 0.506-0.001 0.76 0 0.020-0.77-0.041-1.544 0.031-2.311M16.027 9.48c0 0.456 0 0.912 0 1.368 0.797 0 1.592 0.001 2.389-0.001-0.173-0.455-0.344-0.911-0.511-1.368-0.626 0.002-1.253 0-1.878 0.001z"></path>
<path fill="#000" d="M7.133 12.673c0.852-0.39 1.93 0.32 1.908 1.256 0.052 0.901-0.938 1.667-1.796 1.355-0.746-0.224-1.187-1.123-0.874-1.844 0.137-0.344 0.418-0.628 0.762-0.767z"></path>
<path fill="#000" d="M15.989 12.616c0.824-0.248 1.741 0.449 1.729 1.307 0.059 0.916-0.959 1.69-1.823 1.352-0.752-0.238-1.182-1.164-0.833-1.884 0.17-0.38 0.521-0.676 0.926-0.775z"></path>
</svg>
