<svg xmlns="http://www.w3.org/2000/svg" width="24" height="24">
    <path d="M11.358 2.356a.749.749 0 0 1 1.202-.001C16 5.841 19.513 9.258 22.917 12.779v.438c-2.981 3.129-6.1 6.13-9.133 9.211-.545.525-1.036 1.111-1.641 1.572h-.364c-.614-.451-1.101-1.045-1.649-1.569-3.033-3.077-6.142-6.087-9.131-9.205v-.427C4.383 9.256 7.92 5.852 11.357 2.357zM1.534 13.022c3.475 3.478 6.941 6.965 10.425 10.435 3.483-3.471 6.95-6.957 10.425-10.435-3.449-3.511-6.94-6.984-10.424-10.461C8.476 6.039 4.985 9.512 1.534 13.022z"/>
    <path d="M11.011 6.739a1.43 1.43 0 0 1 1.163.068c.818.46.79 1.925-.132 2.251-.395.082-.828.098-1.211-.043-.741-.539-.72-1.906.18-2.276zM10.369 8.981c.42.274.878.49 1.392.483.216 1.782.39 3.568.591 5.352.699.629 1.388 1.268 2.096 1.887-.209-.433-.558-.856-.477-1.368.055-.445.565-.71.98-.583 1.036.279 2.064.586 3.096.881l-.004.191c-.833.884-1.654 1.78-2.499 2.652-.99-.003-1.979.005-2.969-.005.258-.681.653-1.295.98-1.943-.861-.772-1.7-1.57-2.585-2.315.659 1.337.331 2.831.342 4.262-.286 0-.572 0-.858.002-.066-1.188.279-2.523-.58-3.509-.155 1.167-.229 2.344-.384 3.511-.321-.004-.641-.005-.961-.014.082-1.966.023-3.957.296-5.905-.312-.361-.649-.699-.97-1.052.834-.846 1.683-1.678 2.514-2.528zm-1.342 2.443c.067.067.133.135.198.203.078-.197.155-.395.229-.594-.144.129-.285.26-.427.391zm1.874 2.101c.16.138.32.277.481.413a15.03 15.03 0 0 0-.239-1.479c-.089.353-.167.71-.242 1.066z"/>
    <path fill="#ff0" d="M1.534 13.022C4.985 9.512 8.476 6.039 11.96 2.561c3.484 3.477 6.975 6.95 10.424 10.461-3.475 3.478-6.942 6.964-10.425 10.435-3.484-3.47-6.95-6.957-10.425-10.435zm9.477-6.283c-.9.37-.921 1.737-.18 2.276.382.14.816.125 1.211.043.922-.325.949-1.791.132-2.251a1.43 1.43 0 0 0-1.163-.068zm-.642 2.242c-.831.85-1.68 1.682-2.514 2.528.321.353.658.691.97 1.052-.273 1.947-.214 3.939-.296 5.905.32.009.64.01.961.014.155-1.167.229-2.344.384-3.511.859.986.514 2.321.58 3.509.286-.002.572-.002.858-.002-.011-1.431.317-2.925-.342-4.262.885.744 1.724 1.543 2.585 2.315-.327.648-.722 1.262-.98 1.943.99.011 1.979.002 2.969.005.845-.872 1.666-1.768 2.499-2.652l.004-.191c-1.032-.295-2.06-.602-3.096-.881-.414-.127-.925.138-.98.583-.081.512.267.935.477 1.368-.708-.619-1.397-1.258-2.096-1.887-.201-1.784-.375-3.57-.591-5.352-.514.007-.972-.209-1.392-.483z"/>
    <path fill="#ff0" d="M9.027 11.424c.142-.132.284-.262.427-.391-.075.199-.151.397-.229.594l-.198-.203zM10.901 13.525c.076-.356.153-.713.242-1.066.098.49.19.982.239 1.479-.161-.136-.321-.275-.481-.413z"/>
</svg>
