<?xml version="1.0" encoding="utf-8"?>
<!-- Generated by IcoMoon.io -->
<!DOCTYPE svg PUBLIC "-//W3C//DTD SVG 1.1//EN" "http://www.w3.org/Graphics/SVG/1.1/DTD/svg11.dtd">
<svg version="1.1" xmlns="http://www.w3.org/2000/svg" xmlns:xlink="http://www.w3.org/1999/xlink" width="24" height="24" viewBox="0 0 24 24">
<path fill="#fee011" d="M11.91 0h0.162c0.344 0.052 0.64 0.246 0.874 0.496 3.515 3.524 7.040 7.038 10.555 10.562 0.494 0.425 0.551 1.25 0.072 1.709-3.452 3.467-6.92 6.919-10.374 10.385-0.332 0.33-0.679 0.76-1.194 0.754-0.596 0.056-0.99-0.455-1.368-0.829-3.234-3.242-6.474-6.479-9.713-9.718-0.36-0.372-0.82-0.708-0.924-1.248v-0.251c0.059-0.582 0.558-0.937 0.931-1.326 3.36-3.358 6.719-6.718 10.076-10.078 0.236-0.256 0.551-0.433 0.902-0.456M11.668 0.275c-0.221 0.073-0.388 0.245-0.553 0.4-3.496 3.504-7.001 7-10.496 10.504-0.414 0.347-0.524 1.015-0.114 1.409 3.445 3.469 6.911 6.919 10.363 10.382 0.288 0.289 0.577 0.647 1.013 0.691 0.331 0.060 0.628-0.143 0.847-0.367 3.535-3.551 7.085-7.090 10.625-10.636 0.426-0.378 0.409-1.067-0.013-1.44-3.492-3.51-7.004-7-10.495-10.51-0.294-0.314-0.731-0.594-1.176-0.433z"></path>
<path fill="#fee011" d="M11.791 0.764c0.247-0.126 0.482 0.068 0.647 0.235 3.322 3.32 6.64 6.644 9.966 9.96 0.253 0.265 0.55 0.499 0.745 0.814 0.167 0.256-0.064 0.517-0.236 0.692-3.526 3.512-7.042 7.036-10.562 10.553-0.144 0.167-0.368 0.253-0.578 0.157-0.287-0.196-0.508-0.47-0.756-0.709-3.342-3.341-6.679-6.685-10.024-10.024-0.138-0.151-0.318-0.329-0.272-0.554 0.122-0.299 0.388-0.503 0.604-0.731 3.38-3.377 6.758-6.757 10.136-10.136 0.102-0.095 0.205-0.194 0.331-0.257M12.408 2.698c-0.515 0.092-0.7 0.824-0.3 1.154 0.36 0.368 1.052 0.133 1.128-0.371 0.109-0.464-0.372-0.914-0.828-0.784M11.191 4.475c-0.307 0.466-0.59 0.946-0.893 1.414 0.228 0.401 0.458 0.8 0.686 1.201-0.192 0.648-0.152 1.328-0.115 1.994-0.344 0.565-0.691 1.13-1.033 1.699 0.181 0.128 0.361 0.258 0.54 0.389 0.511-0.842 1.268-1.56 1.512-2.54 0.152 0.26 0.362 0.518 0.35 0.838 0.024 0.556 0.031 1.111 0.053 1.667 0.232 0 0.464 0 0.697 0 0.005-0.706 0.068-1.411 0.042-2.116-0.138-0.607-0.367-1.189-0.536-1.788 0.136-0.319 0.245-0.648 0.299-0.99 0.373 0.138 0.748 0.274 1.117 0.422 0.059-0.143 0.116-0.287 0.175-0.43-0.254-0.106-0.511-0.21-0.769-0.308-0.134-0.436-0.214-0.889-0.38-1.315-0.167-0.382-0.599-0.472-0.936-0.641-0.276 0.152-0.636 0.216-0.809 0.504M12.456 12.617c-0.005 0.172-0.010 0.343-0.014 0.515 0.239 0.004 0.48-0.005 0.719 0.020 0.010 0.239-0.379 0.348-0.509 0.547-0.64 0.005-1.28 0.018-1.92-0.012 0.254-0.215 0.526-0.409 0.772-0.634-0.553-0.254-1.192-0.079-1.782-0.116 0.022 0.194 0.044 0.389 0.068 0.582 0.058 0.022 0.174 0.062 0.232 0.084 0.066 0.131 0.131 0.263 0.197 0.394-0.16 0.425-0.32 0.85-0.479 1.274-0.518-0.122-1.099-0.086-1.535 0.242-0.683 0.476-0.912 1.476-0.491 2.197 0.424 0.818 1.566 1.126 2.342 0.629 0.454-0.251 0.682-0.737 0.84-1.206 0.313 0.058 0.493 0.473 0.853 0.364 0.424-0.079 0.565-0.539 0.57-0.917 0.385-0.49 0.786-0.967 1.181-1.448 0.035 0.168 0.070 0.337 0.104 0.505-0.628 0.584-0.748 1.622-0.205 2.302 0.559 0.773 1.793 0.877 2.477 0.215 0.692-0.606 0.719-1.774 0.065-2.417-0.451-0.512-1.198-0.586-1.825-0.425-0.179-0.508-0.416-0.996-0.563-1.513 0.157-0.311 0.644-0.67 0.302-1.026-0.397-0.29-0.942-0.108-1.399-0.156z"></path>
<path fill="#fee011" d="M11.080 6.212c-0.226-0.046-0.132-0.528 0.085-0.44 0.058 0.133 0.065 0.368-0.085 0.44z"></path>
<path fill="#fee011" d="M11.059 14.28c0.683 0 1.366 0 2.048 0 0.062 0.127 0.125 0.256 0.187 0.384-0.486 0.539-0.952 1.096-1.45 1.622-0.362-0.624-0.512-1.343-0.786-2.006z"></path>
<path fill="#fee011" d="M10.517 14.72c0.209 0.576 0.463 1.136 0.643 1.723-0.072 0.092-0.166 0.132-0.282 0.119-0.151-0.367-0.337-0.722-0.623-1.006 0.086-0.28 0.173-0.558 0.262-0.836z"></path>
<path fill="#fee011" d="M8.059 16.576c0.156-0.622 0.832-0.943 1.435-0.845-0.191 0.419-0.406 0.827-0.607 1.241 0.436 0.296 0.984 0.132 1.474 0.175-0.186 0.474-0.586 0.91-1.129 0.916-0.758 0.049-1.408-0.757-1.172-1.487z"></path>
<path fill="#fee011" d="M14.398 15.767c0.566-0.114 1.214 0.136 1.427 0.703 0.31 0.674-0.198 1.541-0.936 1.601-0.618 0.097-1.246-0.394-1.302-1.015-0.064-0.359 0.118-0.688 0.3-0.979 0.257 0.377 0.497 0.762 0.752 1.139 0.14-0.091 0.292-0.172 0.404-0.3-0.154-0.414-0.437-0.762-0.646-1.148z"></path>
<path fill="#fee011" d="M10.013 16.042c0.109 0.168 0.217 0.337 0.322 0.509-0.206 0.005-0.412 0.008-0.618 0.012 0.098-0.174 0.197-0.348 0.296-0.521z"></path>
<path fill="#000" d="M11.668 0.275c0.445-0.161 0.882 0.119 1.176 0.433 3.491 3.51 7.003 7 10.495 10.51 0.422 0.373 0.439 1.062 0.013 1.44-3.54 3.546-7.090 7.085-10.625 10.636-0.22 0.224-0.516 0.427-0.847 0.367-0.436-0.044-0.725-0.402-1.013-0.691-3.452-3.463-6.918-6.913-10.363-10.382-0.41-0.394-0.3-1.062 0.114-1.409 3.496-3.504 7.001-7 10.496-10.504 0.166-0.155 0.332-0.326 0.553-0.4M11.791 0.764c-0.126 0.062-0.229 0.162-0.331 0.257-3.378 3.379-6.756 6.76-10.136 10.136-0.216 0.228-0.481 0.432-0.604 0.731-0.046 0.226 0.134 0.403 0.272 0.554 3.344 3.338 6.682 6.683 10.024 10.024 0.248 0.239 0.469 0.514 0.756 0.709 0.21 0.096 0.434 0.010 0.578-0.157 3.521-3.517 7.037-7.040 10.562-10.553 0.173-0.175 0.403-0.437 0.236-0.692-0.196-0.314-0.492-0.548-0.745-0.814-3.326-3.316-6.644-6.64-9.966-9.96-0.164-0.167-0.4-0.361-0.647-0.235z"></path>
<path fill="#000" d="M12.408 2.698c0.456-0.131 0.937 0.319 0.828 0.784-0.076 0.504-0.768 0.739-1.128 0.371-0.4-0.33-0.215-1.062 0.3-1.154z"></path>
<path fill="#000" d="M11.191 4.475c0.173-0.288 0.533-0.352 0.809-0.504 0.337 0.169 0.769 0.259 0.936 0.641 0.167 0.426 0.246 0.88 0.38 1.315 0.258 0.098 0.515 0.203 0.769 0.308-0.059 0.143-0.116 0.287-0.175 0.43-0.37-0.149-0.744-0.284-1.117-0.422-0.054 0.342-0.163 0.671-0.299 0.99 0.169 0.599 0.398 1.181 0.536 1.788 0.026 0.704-0.037 1.41-0.042 2.116-0.233 0-0.466 0-0.697 0-0.022-0.556-0.029-1.111-0.053-1.667 0.012-0.319-0.198-0.577-0.35-0.838-0.244 0.98-1.001 1.698-1.512 2.54-0.179-0.131-0.359-0.26-0.54-0.389 0.342-0.569 0.689-1.134 1.033-1.699-0.037-0.666-0.077-1.346 0.115-1.994-0.228-0.401-0.458-0.8-0.686-1.201 0.302-0.468 0.586-0.948 0.893-1.414M11.080 6.212c0.15-0.072 0.143-0.307 0.085-0.44-0.217-0.088-0.311 0.395-0.085 0.44z"></path>
<path fill="#000" d="M12.456 12.617c0.457 0.048 1.002-0.134 1.399 0.156 0.342 0.356-0.145 0.715-0.302 1.026 0.146 0.517 0.384 1.006 0.563 1.513 0.628-0.161 1.374-0.088 1.825 0.425 0.654 0.643 0.628 1.811-0.065 2.417-0.684 0.662-1.918 0.558-2.477-0.215-0.542-0.679-0.422-1.717 0.205-2.302-0.035-0.168-0.070-0.337-0.104-0.505-0.395 0.481-0.796 0.959-1.181 1.448-0.005 0.378-0.146 0.838-0.57 0.917-0.36 0.109-0.54-0.306-0.853-0.364-0.158 0.469-0.386 0.955-0.84 1.206-0.776 0.497-1.919 0.19-2.342-0.629-0.421-0.721-0.192-1.721 0.491-2.197 0.436-0.329 1.016-0.365 1.535-0.242 0.158-0.425 0.319-0.85 0.479-1.274-0.066-0.131-0.131-0.263-0.197-0.394-0.058-0.022-0.174-0.062-0.232-0.084-0.024-0.193-0.047-0.388-0.068-0.582 0.59 0.037 1.229-0.138 1.782 0.116-0.246 0.224-0.517 0.419-0.772 0.634 0.64 0.030 1.28 0.017 1.92 0.012 0.13-0.199 0.518-0.308 0.509-0.547-0.239-0.025-0.48-0.017-0.719-0.020 0.005-0.172 0.010-0.343 0.014-0.515M11.059 14.28c0.274 0.664 0.424 1.382 0.786 2.006 0.498-0.527 0.964-1.084 1.45-1.622-0.062-0.128-0.125-0.257-0.187-0.384-0.683 0-1.366 0-2.048 0M10.517 14.72c-0.089 0.278-0.175 0.557-0.262 0.836 0.286 0.283 0.472 0.638 0.623 1.006 0.116 0.013 0.21-0.026 0.282-0.119-0.18-0.587-0.434-1.147-0.643-1.723M8.059 16.576c-0.235 0.73 0.414 1.536 1.172 1.487 0.544-0.006 0.943-0.442 1.129-0.916-0.49-0.043-1.038 0.121-1.474-0.175 0.202-0.414 0.416-0.822 0.607-1.241-0.604-0.098-1.279 0.223-1.435 0.845M14.398 15.767c0.209 0.386 0.492 0.734 0.646 1.148-0.113 0.128-0.264 0.209-0.404 0.3-0.256-0.377-0.496-0.762-0.752-1.139-0.182 0.292-0.364 0.62-0.3 0.979 0.056 0.622 0.684 1.112 1.302 1.015 0.738-0.060 1.246-0.926 0.936-1.601-0.212-0.568-0.86-0.817-1.427-0.703M10.013 16.042c-0.1 0.173-0.198 0.347-0.296 0.521 0.206-0.004 0.412-0.007 0.618-0.012-0.104-0.172-0.212-0.341-0.322-0.509z"></path>
</svg>
