<!-- Generated by IcoMoon.io -->
<svg version="1.1" xmlns="http://www.w3.org/2000/svg" width="24" height="24" viewBox="0 0 24 24">
<title>warning--traffic-merges-left--g4</title>
<path fill="#030303" d="M11.046 0.642c0.26-0.422 0.755-0.376 1.186-0.364 3.869 3.782 7.796 7.521 11.494 11.471-0.043 0.35 0.113 0.804-0.22 1.053-2.571 2.481-5.023 5.144-7.642 7.535-1.449 0.587-2.365 2.128-3.617 3.091-0.387-0.012-0.787 0.055-1.165-0.058-3.536-3.513-7.044-7.058-10.586-10.569-0.347-0.266-0.171-0.752-0.22-1.122 1.009-1.165 2.281-2.079 3.204-3.317 2.377-2.701 5.083-5.109 7.567-7.72M0.911 11.838c3.288 3.525 6.853 6.818 10.201 10.303 0.312 0.228 0.703 0.948 1.122 0.512 3.571-3.377 7.058-6.844 10.563-10.288 0.59-0.402-0.090-0.908-0.387-1.235-3.421-3.38-6.775-6.833-10.265-10.138l-0.266 0.017c-3.658 3.606-7.33 7.203-10.968 10.829z"></path>
<path fill="#030303" d="M12.457 6.555c0.651-0.706 1.16-1.576 1.926-2.157 0.604 0.717 1.229 1.42 1.804 2.163-0.223 0.023-0.668 0.069-0.888 0.093-0.069 4.013 0.026 8.030-0.046 12.043-0.625 0.014-1.246 0.012-1.868-0.003-0.093-2.38 0.075-4.771-0.084-7.148-0.922 0.934-1.848 1.877-2.64 2.92-0.078 1.408 0.026 2.819-0.046 4.227-0.622 0.014-1.243 0.014-1.865 0.003-0.014-1.666-0.11-3.348 0.046-5.005 1.397-1.761 3.053-3.308 4.502-5.031 0.153-0.656 0.052-1.342 0.038-2.007-0.22-0.023-0.659-0.072-0.879-0.098z"></path>
<path fill="#cdcdcd" d="M12.231 0.278c0.168 0.003 0.506 0.014 0.674 0.020 3.6 3.597 7.2 7.197 10.797 10.797 0.006 0.162 0.017 0.489 0.023 0.653-3.698-3.95-7.625-7.689-11.494-11.471z"></path>
<path fill="#f5ae14" d="M0.911 11.838c3.638-3.626 7.31-7.223 10.968-10.829l0.266-0.017c3.49 3.305 6.844 6.758 10.265 10.138 0.298 0.327 0.977 0.833 0.387 1.235-3.505 3.444-6.992 6.911-10.563 10.288-0.419 0.437-0.81-0.283-1.122-0.512-3.348-3.484-6.914-6.778-10.201-10.303M12.457 6.555c0.22 0.026 0.659 0.075 0.879 0.098 0.014 0.665 0.116 1.35-0.038 2.007-1.449 1.723-3.106 3.27-4.502 5.031-0.156 1.657-0.061 3.34-0.046 5.005 0.622 0.012 1.243 0.012 1.865-0.003 0.072-1.408-0.032-2.819 0.046-4.227 0.792-1.044 1.718-1.987 2.64-2.92 0.159 2.377-0.009 4.768 0.084 7.148 0.622 0.014 1.243 0.017 1.868 0.003 0.072-4.013-0.023-8.030 0.046-12.043 0.22-0.023 0.665-0.069 0.888-0.093-0.575-0.743-1.2-1.446-1.804-2.163-0.766 0.581-1.275 1.452-1.926 2.157z"></path>
<path fill="#cecece" d="M0.275 11.679c0.396-1.339 1.946-2.753 3.204-3.317-0.922 1.238-2.195 2.151-3.204 3.317z"></path>
<path fill="#d6d6d6" d="M12.246 23.427c1.252-0.963 2.169-2.504 3.617-3.091-1.125 1.047-2.082 2.851-3.617 3.091z"></path>
</svg>
