<!-- Generated by IcoMoon.io -->
<svg version="1.1" xmlns="http://www.w3.org/2000/svg" width="24" height="24" viewBox="0 0 24 24">
<title>warning--triple-curve-left--g1</title>
<path fill="#ef7c23" d="M11.718 0h0.517c0.287 0.138 0.554 0.318 0.778 0.546 3.234 3.246 6.48 6.481 9.719 9.722 0.448 0.46 0.961 0.875 1.268 1.45v0.524c-0.13 0.257-0.287 0.499-0.491 0.703-3.266 3.254-6.522 6.52-9.784 9.779-0.461 0.448-0.874 0.964-1.446 1.276h-0.532c-0.252-0.132-0.491-0.292-0.692-0.492-3.256-3.265-6.521-6.521-9.78-9.782-0.448-0.461-0.964-0.874-1.276-1.446v-0.532c0.27-0.575 0.775-0.974 1.208-1.418 3.262-3.26 6.523-6.52 9.781-9.782 0.218-0.212 0.466-0.394 0.728-0.547M11.672 0.389c-0.392 0.235-0.677 0.607-1.004 0.919-3.343 3.338-6.685 6.679-10.026 10.019-0.39 0.319-0.45 0.942-0.048 1.278 3.601 3.6 7.201 7.201 10.801 10.802 0.312 0.367 0.898 0.366 1.211 0.002 3.599-3.602 7.199-7.205 10.8-10.806 0.368-0.31 0.367-0.895 0.008-1.212-3.552-3.57-7.124-7.122-10.68-10.69-0.263-0.283-0.682-0.527-1.062-0.313z"></path>
<path fill="#ef7c23" d="M10.958 1.717c0.335-0.324 0.629-0.706 1.042-0.937 0.264 0.145 0.475 0.362 0.685 0.575 3.508 3.565 7.118 7.033 10.576 10.644-3.539 3.654-7.193 7.198-10.763 10.82-0.188 0.197-0.496 0.538-0.751 0.232-3.406-3.392-6.797-6.802-10.201-10.195-0.262-0.275-0.58-0.51-0.752-0.856 0.173-0.379 0.523-0.629 0.802-0.924 3.124-3.116 6.241-6.24 9.364-9.359M7.244 5.898c-0.528 0.958-1.062 1.912-1.589 2.87-0.133 0.191-0.092 0.421-0.064 0.637 0.34-0.082 0.673-0.185 1.010-0.276 0.041 1.056-0.060 2.172 0.443 3.145 0.334 0.857 1.246 1.328 1.504 2.225 0.278 0.934 0.104 1.924 0.151 2.884 0.425 0 0.85 0 1.276 0 0.022-1.73 0.211-3.752-1.183-5.056-0.944-0.778-0.899-2.072-0.893-3.181 0.343 0.095 0.686 0.192 1.034 0.268 0.022-0.24 0.023-0.492-0.12-0.7-0.527-0.936-1.033-1.885-1.57-2.816M9.56 8.723c-0.133 0.202-0.127 0.445-0.122 0.676 0.352-0.073 0.7-0.166 1.046-0.264 0.037 1.074-0.059 2.212 0.464 3.193 0.326 0.792 1.153 1.238 1.438 2.052 0.35 0.961 0.14 2.005 0.197 3.004 0.425 0 0.848 0 1.273 0.001 0.028-1.741 0.205-3.774-1.2-5.080-0.937-0.773-0.871-2.063-0.878-3.16 0.334 0.070 0.682 0.278 1.022 0.185 0.14-0.253-0.064-0.502-0.166-0.727-0.508-0.895-0.992-1.805-1.5-2.7-0.538 0.934-1.049 1.88-1.574 2.82M13.51 8.596c-0.109 0.23-0.301 0.488-0.152 0.746 0.349 0.013 0.68-0.118 1.012-0.211 0.036 1.062-0.060 2.184 0.448 3.16 0.342 0.857 1.262 1.331 1.507 2.24 0.263 0.926 0.096 1.904 0.14 2.854 0.426-0.001 0.851-0.001 1.277-0.001-0.010-0.798 0.019-1.596-0.010-2.394-0.060-1.103-0.586-2.143-1.388-2.893-0.775-0.778-0.652-1.949-0.677-2.952 0.326 0.066 0.665 0.282 0.997 0.19 0.182-0.229-0.030-0.472-0.124-0.689-0.512-0.913-1.010-1.836-1.526-2.748-0.508 0.895-0.995 1.804-1.504 2.699z"></path>
<path fill="#000" d="M11.672 0.389c0.38-0.214 0.799 0.030 1.062 0.313 3.556 3.568 7.128 7.12 10.68 10.69 0.359 0.317 0.36 0.902-0.008 1.212-3.601 3.601-7.201 7.204-10.8 10.806-0.313 0.364-0.899 0.365-1.211-0.002-3.6-3.601-7.2-7.202-10.801-10.802-0.402-0.336-0.342-0.959 0.048-1.278 3.341-3.34 6.683-6.68 10.026-10.019 0.328-0.312 0.612-0.684 1.004-0.919M10.958 1.717c-3.122 3.119-6.24 6.242-9.364 9.359-0.278 0.295-0.629 0.545-0.802 0.924 0.173 0.346 0.491 0.581 0.752 0.856 3.404 3.394 6.796 6.803 10.201 10.195 0.256 0.306 0.563-0.035 0.751-0.232 3.57-3.623 7.224-7.166 10.763-10.82-3.457-3.611-7.068-7.079-10.576-10.644-0.21-0.212-0.421-0.43-0.685-0.575-0.413 0.232-0.707 0.613-1.042 0.937z"></path>
<path fill="#000" d="M7.244 5.898c0.536 0.931 1.043 1.88 1.57 2.816 0.143 0.208 0.142 0.46 0.12 0.7-0.348-0.076-0.691-0.173-1.034-0.268-0.006 1.109-0.052 2.404 0.893 3.181 1.394 1.303 1.205 3.325 1.183 5.056-0.426 0-0.851 0-1.276 0-0.047-0.96 0.127-1.95-0.151-2.884-0.258-0.896-1.17-1.368-1.504-2.225-0.503-0.973-0.402-2.089-0.443-3.145-0.337 0.091-0.671 0.194-1.010 0.276-0.029-0.216-0.070-0.446 0.064-0.637 0.527-0.959 1.061-1.913 1.589-2.87z"></path>
<path fill="#000" d="M9.56 8.723c0.526-0.94 1.037-1.886 1.574-2.82 0.508 0.895 0.992 1.805 1.5 2.7 0.102 0.226 0.306 0.474 0.166 0.727-0.341 0.094-0.689-0.115-1.022-0.185 0.007 1.097-0.059 2.387 0.878 3.16 1.405 1.306 1.228 3.338 1.2 5.080-0.425-0.001-0.848-0.001-1.273-0.001-0.056-0.998 0.154-2.042-0.197-3.004-0.284-0.814-1.111-1.26-1.438-2.052-0.523-0.982-0.427-2.119-0.464-3.193-0.347 0.098-0.695 0.191-1.046 0.264-0.005-0.23-0.011-0.474 0.122-0.676z"></path>
<path fill="#000" d="M13.51 8.596c0.509-0.895 0.996-1.804 1.504-2.699 0.516 0.912 1.014 1.835 1.526 2.748 0.094 0.217 0.306 0.46 0.124 0.689-0.332 0.092-0.671-0.124-0.997-0.19 0.025 1.003-0.098 2.174 0.677 2.952 0.803 0.75 1.328 1.79 1.388 2.893 0.029 0.798 0 1.596 0.010 2.394-0.426 0-0.851 0-1.277 0.001-0.044-0.949 0.122-1.927-0.14-2.854-0.245-0.91-1.165-1.384-1.507-2.24-0.508-0.976-0.412-2.098-0.448-3.16-0.331 0.094-0.662 0.224-1.012 0.211-0.149-0.258 0.043-0.516 0.152-0.746z"></path>
</svg>
