<!-- Generated by IcoMoon.io -->
<svg version="1.1" xmlns="http://www.w3.org/2000/svg" width="27" height="24" viewBox="0 0 27 24">
<title>warning--u-turn--g1</title>
<path fill="#c0111e" d="M13.42 0h0.58c0.906 0.146 1.691 0.722 2.137 1.515 3.804 6.241 7.46 12.572 11.183 18.863v2.272c-0.374 0.568-0.897 1.010-1.481 1.349h-24.201c-0.711-0.411-1.39-0.971-1.639-1.786v-0.741c0.077-0.462 0.077-0.96 0.312-1.378 3.695-6.223 7.306-12.498 11.084-18.672 0.423-0.755 1.195-1.23 2.024-1.423M2.628 21.499c7.405 0.009 14.811 0.009 22.216 0-3.683-6.291-7.38-12.577-11.108-18.844-3.73 6.266-7.425 12.552-11.108 18.844z"></path>
<path fill="#fff" d="M2.628 21.499c3.683-6.291 7.378-12.578 11.108-18.844 3.728 6.267 7.425 12.552 11.108 18.844-7.405 0.009-14.811 0.009-22.216 0M9.618 14.044c-0.017 2.267-0.008 4.536-0.005 6.803 0.537-0.438 1.019-0.942 1.567-1.368 0.622 0.315 1.085 0.945 1.656 1.372 0.023-2.269-0.032-4.539 0.026-6.805 0.121-0.931 1.627-0.93 1.746 0.001 0.062 1.792-0.001 3.589 0.030 5.383 0.545 0.469 1.067 0.963 1.62 1.423 0.525-0.479 1.057-0.951 1.594-1.416 0.011-1.849 0.027-3.698-0.008-5.546-0.094-2.317-2.45-4.155-4.72-3.749-1.9 0.245-3.488 1.971-3.506 3.9z"></path>
<path fill="#030303" d="M9.618 14.044c0.018-1.929 1.606-3.656 3.506-3.9 2.27-0.406 4.626 1.432 4.72 3.749 0.035 1.848 0.018 3.697 0.008 5.546-0.537 0.465-1.069 0.937-1.594 1.416-0.552-0.46-1.075-0.954-1.62-1.423-0.032-1.793 0.032-3.591-0.030-5.383-0.119-0.931-1.626-0.933-1.746-0.002-0.057 2.266-0.003 4.536-0.026 6.805-0.571-0.427-1.034-1.057-1.656-1.372-0.548 0.426-1.029 0.93-1.567 1.368-0.003-2.267-0.012-4.536 0.005-6.803z"></path>
</svg>
