<?xml version="1.0" encoding="utf-8"?>
<!-- Generated by IcoMoon.io -->
<!DOCTYPE svg PUBLIC "-//W3C//DTD SVG 1.1//EN" "http://www.w3.org/Graphics/SVG/1.1/DTD/svg11.dtd">
<svg version="1.1" xmlns="http://www.w3.org/2000/svg" xmlns:xlink="http://www.w3.org/1999/xlink" width="24" height="24" viewBox="0 0 24 24">
<path fill="#ffd520" d="M11.364 23.698l-11.062-11.062c-0.177-0.177-0.283-0.406-0.283-0.618 0-0.265 0.088-0.477 0.265-0.636l11.079-11.097c0.177-0.177 0.406-0.265 0.636-0.265s0.459 0.088 0.636 0.265l11.079 11.079c0.177 0.177 0.265 0.406 0.265 0.636s-0.088 0.459-0.265 0.636l-11.097 11.079c-0.159 0.177-0.371 0.265-0.636 0.265-0.212 0-0.442-0.106-0.618-0.283z"></path>
<path fill="#000" d="M11.472 23.603c0.292 0.292 0.764 0.292 1.057 0l11.076-11.076c0.292-0.292 0.292-0.765 0-1.058l-11.075-11.075c-0.292-0.292-0.767-0.292-1.059 0l-11.075 11.075c-0.292 0.292-0.292 0.766 0 1.058l11.076 11.076z"></path>
<path fill="#ffd520" d="M11.717 23.357l-11.076-11.076c-0.156-0.156-0.156-0.41 0-0.567l11.076-11.076c0.156-0.156 0.411-0.156 0.567 0l11.076 11.076c0.156 0.157 0.156 0.411 0 0.567l-11.076 11.076c-0.156 0.157-0.41 0.157-0.567 0z"></path>
<path fill="#000" d="M15.835 10.617v4.953h1.676v-4.951l0.777 0.21c0.113 0.051 0.247 0.024 0.331-0.067 0.095-0.102 0.103-0.258 0.019-0.369l-1.972-2.725-1.96 2.728c-0.076 0.102-0.076 0.244 0.003 0.344 0.076 0.098 0.206 0.135 0.321 0.093l0.804-0.216z"></path>
<path fill="#000" d="M8.148 13.401v-4.953h-1.676v4.952l-0.777-0.21c-0.113-0.051-0.247-0.024-0.331 0.067-0.095 0.102-0.103 0.258-0.019 0.369l1.972 2.725 1.96-2.728c0.076-0.102 0.076-0.244-0.003-0.344-0.076-0.098-0.206-0.135-0.321-0.093l-0.804 0.216z"></path>
<path fill="#000" d="M11.558 13.749h0.867v-3.497h-0.867v3.497z"></path>
<path fill="#000" d="M11.558 20.464h0.867v-3.497h-0.867v3.497z"></path>
<path fill="#000" d="M11.558 7.052h0.867v-3.497h-0.867v3.497z"></path>
</svg>
