<?xml version="1.0" encoding="utf-8"?>
<!-- Generated by IcoMoon.io -->
<!DOCTYPE svg PUBLIC "-//W3C//DTD SVG 1.1//EN" "http://www.w3.org/Graphics/SVG/1.1/DTD/svg11.dtd">
<svg version="1.1" xmlns="http://www.w3.org/2000/svg" xmlns:xlink="http://www.w3.org/1999/xlink" width="24" height="24" viewBox="0 0 24 24">
<path fill="#ff3319" d="M11.869 1.38h0.232c0.552 0.048 1.060 0.37 1.324 0.858 3.294 5.708 6.581 11.42 9.874 17.129 0.26 0.458 0.568 0.901 0.702 1.417v0.46c-0.097 0.702-0.673 1.273-1.372 1.376h-21.239c-0.552-0.095-1.062-0.456-1.265-0.988-0.211-0.488-0.122-1.055 0.152-1.5 3.44-5.964 6.875-11.933 10.316-17.897 0.256-0.475 0.744-0.786 1.276-0.856M2.519 20.5c6.326 0.001 12.654 0.001 18.98 0-3.163-5.488-6.324-10.976-9.491-16.46-3.166 5.485-6.329 10.972-9.49 16.46z"></path>
<path fill="#fff" d="M2.519 20.5c3.161-5.489 6.324-10.975 9.49-16.46 3.167 5.484 6.328 10.973 9.491 16.46-6.326 0.001-12.654 0.001-18.98 0M9.474 10.862c0.257 0.46 0.816 0.414 1.266 0.416-0.025 0.408-0.486 0.602-0.54 1.001-0.035 0.364 0.048 0.724 0.092 1.082 0.029 0.308 0.214 0.65 0.002 0.934-0.305 0.516-0.504 1.096-0.533 1.697-0.28 0.162-0.559 0.322-0.83 0.497-0.148-0.247-0.409-0.35-0.654-0.469-0.204-0.193-0.304-0.481-0.533-0.652-0.383-0.127-0.797-0.148-1.198-0.145-0.839 1.543-1.736 3.053-2.555 4.607 1.964-0.005 3.929-0.001 5.893-0.001-0.184-1.004-0.413-2.011-0.887-2.924 0.415-0.239 0.804-0.571 1.307-0.583 0.238-0.007 0.366-0.206 0.439-0.407 0.307-0.223 0.63-0.424 0.953-0.624-0.13 0.317-0.34 0.619-0.338 0.973-0.064 1.006-0.119 2.012-0.142 3.019-0.358 0.116-0.746 0.196-1.019 0.475 0.691 0.146 1.406 0.036 2.108 0.072 0.164-1.060 0.504-2.098 0.511-3.175 0.264-0.572 0.636-1.085 0.917-1.649 0.077 0.443 0.179 0.887 0.395 1.286 0.469 1.152 1.668 1.712 2.515 2.544 0.038 0.436-0.382 0.691-0.617 0.997 0.335-0.002 0.68 0.022 0.996-0.118 0.258-0.497 0.554-0.971 0.846-1.447-0.806-0.374-1.25-1.198-1.853-1.811-0.193-0.187-0.468-0.283-0.613-0.52-0.115-0.356-0.077-0.738-0.137-1.103-0.098-0.511-0.36-0.974-0.463-1.483 0.385 0.116 0.68-0.173 0.894-0.449-0.36-0.308-0.462-0.772-0.482-1.225-0.265-0.625-0.492-1.361-1.164-1.667-0.97-0.28-1.886 0.258-2.74 0.641 0.013-0.548-0.166-1.213-0.778-1.351-0.859-0.288-1.619 0.862-1.061 1.561z"></path>
<path fill="#fff" d="M13.396 11.057c0.306-0.029 0.74-0.085 0.889 0.264 0.169 0.493 0.42 0.97 0.468 1.496-0.026 0.053-0.077 0.158-0.102 0.211-0.426-0.652-0.845-1.308-1.255-1.972z"></path>
<path fill="#fff" d="M11.327 13.032c0.32 0.305 0.634 0.618 0.894 0.978-0.092 0.209-0.185 0.418-0.277 0.626-0.451 0.247-0.895 0.505-1.34 0.763 0.236-0.361 0.478-0.721 0.722-1.078 0-0.43-0.001-0.86 0.001-1.29z"></path>
<path fill="#000" d="M9.474 10.862c-0.558-0.7 0.202-1.849 1.061-1.561 0.612 0.138 0.791 0.803 0.778 1.351 0.853-0.383 1.77-0.92 2.74-0.641 0.672 0.306 0.899 1.042 1.164 1.667 0.020 0.454 0.122 0.917 0.482 1.225-0.214 0.276-0.509 0.565-0.894 0.449 0.103 0.509 0.365 0.972 0.463 1.483 0.060 0.365 0.022 0.746 0.137 1.103 0.145 0.236 0.42 0.332 0.613 0.52 0.602 0.613 1.046 1.436 1.853 1.811-0.292 0.476-0.588 0.95-0.846 1.447-0.316 0.139-0.661 0.115-0.996 0.118 0.235-0.306 0.655-0.562 0.617-0.997-0.847-0.832-2.046-1.392-2.515-2.544-0.216-0.4-0.318-0.844-0.395-1.286-0.281 0.564-0.653 1.076-0.917 1.649-0.007 1.078-0.347 2.116-0.511 3.175-0.702-0.036-1.417 0.074-2.108-0.072 0.272-0.28 0.661-0.359 1.019-0.475 0.023-1.007 0.078-2.014 0.142-3.019-0.001-0.354 0.209-0.656 0.338-0.973-0.323 0.2-0.646 0.401-0.953 0.624-0.073 0.2-0.202 0.4-0.439 0.407-0.503 0.012-0.892 0.344-1.307 0.583 0.474 0.913 0.703 1.92 0.887 2.924-1.964 0-3.929-0.004-5.893 0.001 0.818-1.554 1.716-3.064 2.555-4.607 0.401-0.002 0.815 0.018 1.198 0.145 0.229 0.17 0.329 0.458 0.533 0.652 0.245 0.119 0.506 0.222 0.654 0.469 0.271-0.175 0.551-0.335 0.83-0.497 0.029-0.601 0.228-1.181 0.533-1.697 0.211-0.283 0.026-0.625-0.002-0.934-0.044-0.359-0.127-0.719-0.092-1.082 0.054-0.398 0.515-0.593 0.54-1.001-0.45-0.002-1.009 0.043-1.266-0.416M13.396 11.057c0.41 0.664 0.829 1.32 1.255 1.972 0.025-0.053 0.076-0.158 0.102-0.211-0.048-0.527-0.299-1.003-0.468-1.496-0.149-0.349-0.583-0.293-0.889-0.264M11.327 13.032c-0.002 0.43-0.001 0.86-0.001 1.29-0.245 0.356-0.486 0.716-0.722 1.078 0.445-0.258 0.889-0.516 1.34-0.763 0.092-0.209 0.185-0.418 0.277-0.626-0.26-0.36-0.574-0.673-0.894-0.978z"></path>
</svg>
