<svg xmlns="http://www.w3.org/2000/svg" width="24" height="24">
    <path fill="#faeb41" d="M11.439 2.456h.852c.145.107.289.213.437.314 3.281 5.674 6.43 11.423 9.718 17.093.542.63.124 1.861-.767 1.812-6.746-.002-13.495-.007-20.243.002a5.186 5.186 0 0 1-.487-.801c.05-.533.148-1.072.489-1.505 3.205-5.522 6.33-11.097 9.564-16.601.148-.101.291-.206.434-.314zM3.007 20.081c5.84.01 11.68-.023 17.52-.023A1520.805 1520.805 0 0 1 11.85 4.716C8.912 9.844 5.983 14.975 3.007 20.081z"/>
    <path fill="#1f251e" d="M3.007 20.081C5.982 14.975 8.912 9.845 11.85 4.716a1531.88 1531.88 0 0 0 8.677 15.342c-5.84 0-11.68.034-17.52.023zm5.651-7.185c-.285.792-.885 1.529-.676 2.418.605.01 1.21.007 1.815.01.048.335-.118.774.146 1.035.632.06 1.268.012 1.901.021-.004.365-.09.753.044 1.104a34.15 34.15 0 0 0 3.996-.013c.133-.892-.434-1.616-.773-2.385-.468.004-.936.007-1.404.007-.18-.384-.361-.769-.55-1.15-.454-.004-.908-.002-1.362-.005a89.625 89.625 0 0 0-.492-1.037c-.882-.005-1.763-.007-2.644-.007zm-.419 2.601c.013.201.028.404.044.606l.326.002.062-.606-.432-.002zm1.84 1.087c.032.194.06.388.115.575.397.177.303-.351.392-.586-.169.002-.338.007-.506.01zm2.023 1.109c.013.206.027.413.044.619l.339-.018c.018-.197.034-.395.049-.591a63.733 63.733 0 0 1-.432-.01zm3.014.023c.035.194.062.39.118.579.402.203.28-.362.381-.591-.166.002-.333.007-.499.012z"/>
    <path fill="#fae63a" d="M8.658 12.896c.881.002 1.762.002 2.644.007.166.344.33.69.492 1.037.454.002.908.002 1.362.005.189.381.37.765.55 1.15.468 0 .936-.004 1.404-.007.339.769.905 1.492.773 2.385a34.591 34.591 0 0 1-3.996.013c-.134-.351-.048-.739-.044-1.104-.633-.009-1.27.04-1.901-.021-.264-.262-.098-.7-.146-1.035-.605-.004-1.21 0-1.815-.01-.209-.89.391-1.626.676-2.418zm.109.148c-.157.382-.308.766-.455 1.152.776-.097 1.672.244 2.356-.227.319-.013.637-.019.956-.025-.152-.295-.302-.593-.453-.89-.801.002-1.602-.007-2.404-.01zm1.875 1.084c-.152.377-.298.756-.451 1.132 1.12.076 2.221-.097 3.33-.18-.155-.31-.279-.636-.476-.922-.792-.127-1.603-.01-2.402-.031zm2.014 1.154c-.153.365-.302.732-.451 1.099 1.1.007 2.201 0 3.302.002l-.513-1.097c-.779-.009-1.558-.009-2.337-.005z"/>
    <path fill="#1f251f" d="M8.767 13.044c.802.004 1.603.012 2.404.01.151.296.3.594.453.89-.319.005-.637.012-.956.025-.685.471-1.58.13-2.356.227.147-.386.298-.77.455-1.152z"/>
    <path fill="#21271f" d="M10.642 14.128c.799.021 1.61-.095 2.402.031.197.286.321.612.476.922-1.109.083-2.21.256-3.33.18.153-.377.3-.756.451-1.132z"/>
    <path fill="#23271f" d="M12.656 15.282c.779-.004 1.558-.004 2.337.005l.513 1.097c-1.102-.002-2.201.005-3.302-.002.15-.367.298-.734.451-1.099z"/>
    <path fill="#fde63e" d="M8.239 15.497l.432.002-.062.606-.326-.002a43.22 43.22 0 0 1-.044-.606z"/>
    <path fill="#fde639" d="M10.079 16.584l.506-.01c-.089.235.005.762-.392.586-.055-.187-.083-.382-.115-.575z"/>
    <path fill="#f4e03c" d="M12.102 17.693l.432.01c-.016.196-.031.393-.049.591a38.47 38.47 0 0 1-.339.018 32.173 32.173 0 0 1-.044-.619z"/>
    <path fill="#fde63a" d="M15.116 17.716c.166-.005.333-.009.499-.012-.101.228.022.793-.381.591-.057-.19-.084-.386-.118-.579z"/>
</svg>
