<!-- Generated by IcoMoon.io -->
<svg version="1.1" xmlns="http://www.w3.org/2000/svg" width="24" height="24" viewBox="0 0 24 24">
<title>warning--crossroads--g3</title>
<path fill="#231f20" d="M12.288 0.78c0.62-0.103 1.254 0.163 1.681 0.611 3.102 3.097 6.204 6.196 9.298 9.3 0.932 0.832 0.6 2.32-0.392 2.945-3.172 3.028-6.34 6.059-9.51 9.088-0.688 0.665-1.877 0.611-2.534-0.072-3.156-3.166-6.325-6.318-9.478-9.487-0.661-0.67-0.618-1.859 0.096-2.476 3.228-3.092 6.461-6.18 9.694-9.268 0.313-0.313 0.696-0.582 1.146-0.641M12.035 1.123c-0.325 0.121-0.575 0.373-0.823 0.606-3.187 3.053-6.389 6.092-9.572 9.15-0.634 0.539-0.643 1.591-0.040 2.156 3.143 3.14 6.282 6.284 9.425 9.422 0.551 0.58 1.564 0.638 2.143 0.072 3.319-3.162 6.632-6.332 9.948-9.498 0.614-0.559 0.566-1.601-0.041-2.147-3.091-3.109-6.198-6.203-9.296-9.304-0.431-0.472-1.135-0.686-1.744-0.458z"></path>
<path fill="#231f20" d="M12.151 1.476c0.64-0.152 1.321 0.097 1.762 0.572 2.903 2.896 5.804 5.794 8.698 8.7 0.668 0.622 0.719 1.787 0.040 2.419-3.084 2.958-6.184 5.899-9.266 8.857-0.661 0.682-1.85 0.654-2.498-0.031-2.938-2.941-5.88-5.88-8.818-8.821-0.672-0.638-0.66-1.814 0.036-2.43 3-2.88 6.013-5.746 9.020-8.618 0.289-0.286 0.618-0.562 1.027-0.648M12.272 1.838c-0.385 0.065-0.674 0.348-0.946 0.607-2.981 2.861-5.983 5.699-8.957 8.567-0.548 0.478-0.558 1.388-0.038 1.892 2.94 2.94 5.882 5.88 8.824 8.82 0.504 0.541 1.445 0.571 1.961 0.031 3.085-2.954 6.181-5.897 9.264-8.852 0.532-0.496 0.488-1.4-0.036-1.885-2.89-2.91-5.8-5.803-8.699-8.706-0.346-0.368-0.868-0.587-1.373-0.474z"></path>
<path fill="#231f20" d="M10.69 4.578c1.114 0.007 2.227 0.007 3.34 0 0.001 1.903-0.013 3.806 0.007 5.71 1.908 0.016 3.818-0.029 5.726 0.022-0.006 1.116 0 2.233-0.004 3.35-1.909 0.014-3.82-0.002-5.729 0.008-0.006 1.902-0.004 3.803-0.001 5.705-1.112 0.005-2.226 0.004-3.34 0-0.002-1.902 0.017-3.804-0.010-5.705-1.909-0.010-3.82 0.005-5.729-0.007-0.002-1.121-0.002-2.243 0-3.364 1.907-0.022 3.812-0.002 5.719-0.010 0.049-1.902 0.010-3.806 0.019-5.71z"></path>
<path fill="#fff100" d="M12.035 1.123c0.608-0.228 1.313-0.013 1.744 0.458 3.098 3.101 6.205 6.194 9.296 9.304 0.607 0.546 0.655 1.588 0.041 2.147-3.316 3.166-6.629 6.336-9.948 9.498-0.58 0.566-1.592 0.508-2.143-0.072-3.143-3.138-6.282-6.282-9.425-9.422-0.604-0.565-0.594-1.618 0.040-2.156 3.184-3.058 6.385-6.097 9.572-9.15 0.248-0.233 0.498-0.485 0.823-0.606M12.151 1.476c-0.409 0.086-0.738 0.362-1.027 0.648-3.007 2.873-6.020 5.738-9.020 8.618-0.696 0.616-0.708 1.792-0.036 2.43 2.938 2.941 5.88 5.88 8.818 8.821 0.648 0.685 1.837 0.713 2.498 0.031 3.083-2.958 6.182-5.899 9.266-8.857 0.679-0.632 0.629-1.798-0.040-2.419-2.893-2.906-5.795-5.804-8.698-8.7-0.44-0.475-1.122-0.725-1.762-0.572z"></path>
<path fill="#fff100" d="M12.272 1.838c0.505-0.113 1.027 0.106 1.373 0.474 2.899 2.903 5.809 5.796 8.699 8.706 0.524 0.485 0.568 1.39 0.036 1.885-3.083 2.956-6.179 5.898-9.264 8.852-0.516 0.54-1.457 0.51-1.961-0.031-2.941-2.94-5.884-5.88-8.824-8.82-0.52-0.504-0.51-1.415 0.038-1.892 2.974-2.868 5.976-5.706 8.957-8.567 0.271-0.259 0.56-0.542 0.946-0.607M10.69 4.578c-0.010 1.903 0.030 3.808-0.019 5.71-1.907 0.007-3.812-0.012-5.719 0.010-0.002 1.121-0.002 2.243 0 3.364 1.909 0.012 3.82-0.002 5.729 0.007 0.026 1.901 0.007 3.803 0.010 5.705 1.114 0.004 2.227 0.005 3.34 0-0.002-1.902-0.005-3.803 0.001-5.705 1.909-0.011 3.82 0.006 5.729-0.008 0.004-1.117-0.002-2.234 0.004-3.35-1.908-0.050-3.818-0.006-5.726-0.022-0.020-1.903-0.006-3.806-0.007-5.71-1.112 0.007-2.226 0.007-3.34 0z"></path>
</svg>
