<?xml version="1.0" encoding="utf-8"?>
<!-- Generated by IcoMoon.io -->
<!DOCTYPE svg PUBLIC "-//W3C//DTD SVG 1.1//EN" "http://www.w3.org/Graphics/SVG/1.1/DTD/svg11.dtd">
<svg version="1.1" xmlns="http://www.w3.org/2000/svg" xmlns:xlink="http://www.w3.org/1999/xlink" width="24" height="24" viewBox="0 0 24 24">
<path fill="#c0111e" d="M10.297 2.258c0.826-0.755 2.236-0.855 3.092-0.099 0.495 0.554 0.854 1.213 1.26 1.832 2.754 4.472 5.386 9.015 8.038 13.547 0.448 0.817 0.988 1.59 1.313 2.468v1.621c-0.189 0.429-0.523 0.775-0.912 1.032h-22.312c-0.304-0.21-0.569-0.475-0.776-0.78v-2.259c0.449-0.853 0.945-1.679 1.427-2.514 2.682-4.59 5.387-9.166 8.14-13.714 0.247-0.375 0.444-0.787 0.731-1.134M11.871 4.049c-3.276 5.55-6.555 11.099-9.812 16.659 6.582 0.004 13.165 0.004 19.748 0-3.262-5.562-6.54-11.115-9.819-16.666-0.030 0.001-0.088 0.004-0.118 0.007z"></path>
<path fill="#fff" d="M11.871 4.049c0.030-0.003 0.088-0.005 0.118-0.007 3.278 5.551 6.556 11.104 9.819 16.666-6.583 0.004-13.166 0.004-19.748 0 3.257-5.56 6.536-11.11 9.812-16.659M9.187 10.335c-0.032 0.569 0.202 1.106 0.414 1.621 0.44 0.968 0.953 1.9 1.429 2.85-1.309 0.060-2.629 0.007-3.927 0.209-0.53 0.094-1.181 0.326-1.315 0.916-0.157 0.724 0.404 1.353 0.971 1.714 1.534 0.928 3.081 1.83 4.618 2.753 0.355-0.594 0.709-1.189 1.063-1.785-0.835-0.512-1.683-1.004-2.527-1.5 1.039-0.054 2.1 0.038 3.123-0.188 0.601-0.11 1-0.771 0.813-1.354-0.292-1.011-0.878-1.903-1.329-2.846 0.837 0.51 1.684 1.003 2.526 1.506 0.355-0.595 0.708-1.193 1.062-1.79-1.334-0.819-2.691-1.598-4.033-2.405-0.538-0.315-1.103-0.666-1.75-0.66-0.546-0.024-1.111 0.389-1.137 0.96z"></path>
<path fill="#030303" d="M9.187 10.335c0.025-0.571 0.591-0.984 1.137-0.96 0.646-0.007 1.212 0.345 1.75 0.66 1.342 0.807 2.699 1.586 4.033 2.405-0.354 0.597-0.707 1.195-1.062 1.79-0.842-0.503-1.689-0.996-2.526-1.506 0.45 0.944 1.036 1.836 1.329 2.846 0.188 0.583-0.212 1.244-0.813 1.354-1.023 0.225-2.084 0.134-3.123 0.188 0.845 0.496 1.692 0.988 2.527 1.5-0.354 0.595-0.708 1.191-1.063 1.785-1.537-0.922-3.084-1.825-4.618-2.753-0.567-0.361-1.128-0.99-0.971-1.714 0.134-0.59 0.786-0.822 1.315-0.916 1.298-0.202 2.619-0.149 3.927-0.209-0.476-0.951-0.99-1.882-1.429-2.85-0.212-0.515-0.446-1.053-0.414-1.621z"></path>
</svg>
