<?xml version="1.0" encoding="utf-8"?>
<!-- Generated by IcoMoon.io -->
<!DOCTYPE svg PUBLIC "-//W3C//DTD SVG 1.1//EN" "http://www.w3.org/Graphics/SVG/1.1/DTD/svg11.dtd">
<svg version="1.1" xmlns="http://www.w3.org/2000/svg" xmlns:xlink="http://www.w3.org/1999/xlink" width="24" height="24" viewBox="0 0 24 24">
<path fill="#fbef37" d="M11.736 1.93c0.13-0.105 0.264-0.108 0.397-0.008 0.357 0.042 0.609 0.341 0.758 0.645 0.132 0.265 0.308 0.504 0.458 0.759 0.028 0.068 0.084 0.203 0.111 0.271 0.113 0.182 0.243 0.354 0.354 0.538 0.058 0.127 0.115 0.254 0.174 0.38 0.135 0.216 0.283 0.425 0.409 0.647 0.028 0.068 0.084 0.205 0.113 0.271 0.136 0.216 0.287 0.424 0.404 0.65 0.104 0.188 0.229 0.361 0.333 0.548 0.169 0.311 0.39 0.594 0.525 0.923 0.191 0.365 0.451 0.687 0.662 1.040 0.139 0.327 0.329 0.624 0.518 0.923 0.117 0.226 0.266 0.433 0.397 0.65 0.153 0.366 0.388 0.687 0.581 1.031 0.104 0.188 0.231 0.359 0.341 0.543 0.059 0.126 0.117 0.253 0.176 0.379 0.11 0.184 0.239 0.354 0.346 0.539 0.139 0.327 0.328 0.626 0.527 0.918 0.059 0.126 0.117 0.253 0.176 0.38 0.11 0.182 0.24 0.354 0.353 0.538 0.028 0.068 0.084 0.203 0.111 0.271 0.126 0.222 0.275 0.429 0.409 0.647 0.059 0.126 0.118 0.253 0.177 0.379 0.109 0.184 0.237 0.355 0.341 0.542 0.135 0.264 0.311 0.504 0.46 0.759 0.028 0.068 0.084 0.205 0.111 0.271 0.136 0.216 0.286 0.424 0.413 0.647 0.028 0.068 0.084 0.205 0.113 0.273 0.113 0.182 0.241 0.355 0.346 0.543 0.115 0.227 0.265 0.434 0.396 0.653 0.139 0.367 0.418 0.662 0.536 1.036 0.106 0.209 0.115 0.46-0.007 0.665-0.058 0.379-0.39 0.698-0.763 0.766-0.146 0.064-0.298 0.093-0.456 0.085-5.089-0.001-10.178-0.013-15.267 0.007-0.056 0.029-0.17 0.088-0.227 0.117-1.7 0.009-3.399 0.011-5.099-0.001-0.273-0.143-0.555-0.319-0.73-0.581-0.117-0.501-0.147-1.066 0.243-1.456 0.142-0.325 0.33-0.624 0.525-0.919 0.142-0.324 0.327-0.626 0.531-0.914 0.028-0.068 0.084-0.206 0.111-0.274 0.127-0.222 0.277-0.43 0.413-0.647 0.028-0.068 0.084-0.203 0.111-0.271 0.127-0.222 0.277-0.429 0.413-0.645 0.028-0.068 0.084-0.203 0.111-0.271 0.127-0.222 0.275-0.43 0.412-0.647 0.029-0.067 0.088-0.199 0.118-0.266 0.152-0.319 0.34-0.618 0.527-0.917 0.117-0.228 0.268-0.437 0.403-0.653 0.030-0.067 0.089-0.199 0.119-0.266 0.152-0.32 0.337-0.62 0.531-0.915 0.143-0.324 0.333-0.622 0.522-0.921 0.117-0.227 0.265-0.435 0.399-0.653 0.104-0.212 0.207-0.425 0.308-0.639 0.11-0.184 0.237-0.355 0.346-0.539 0.062-0.126 0.123-0.251 0.186-0.375 0.030-0.067 0.090-0.199 0.121-0.266 0.113-0.184 0.241-0.355 0.353-0.539 0.030-0.066 0.092-0.199 0.122-0.266 0.062-0.125 0.123-0.249 0.185-0.375 0.109-0.184 0.237-0.355 0.349-0.539 0.030-0.066 0.092-0.199 0.122-0.265 0.063-0.125 0.125-0.25 0.185-0.376 0.109-0.185 0.237-0.357 0.349-0.54 0.030-0.067 0.092-0.199 0.122-0.265 0.062-0.125 0.125-0.249 0.185-0.374 0.132-0.219 0.283-0.426 0.399-0.653 0.105-0.188 0.232-0.361 0.342-0.544 0.085-0.178 0.17-0.355 0.25-0.535 0.123-0.222 0.271-0.428 0.404-0.644 0.104-0.212 0.206-0.426 0.304-0.641 0.105-0.231 0.292-0.403 0.511-0.523 0.129-0.038 0.257-0.075 0.387-0.11M11.45 2.278c-0.226 0.109-0.376 0.317-0.501 0.526-1.714 3.019-3.397 6.056-5.087 9.089-1.622 2.838-3.237 5.683-4.842 8.531-0.403 0.589 0.097 1.489 0.812 1.433 6.729-0.062 13.461-0.080 20.19-0.146 0.74 0.025 1.203-0.914 0.786-1.508-2.334-3.967-4.561-7.996-6.922-11.949-1.099-1.844-2.148-3.718-3.228-5.575-0.218-0.431-0.776-0.593-1.208-0.401z"></path>
<path fill="#fbef37" d="M6.222 14.744c1.871-3.344 3.7-6.713 5.634-10.022 2.889 5.123 5.923 10.163 8.829 15.276-5.841 0.079-11.684 0.076-17.525 0.136 0.997-1.81 2.052-3.587 3.062-5.39M10.905 8.441c-0.041 1.342 0.156 2.692 0.572 3.969 0.072 0.403 0.71 0.41 0.808 0.020 0.412-1.285 0.534-2.645 0.534-3.99-0.637 0.012-1.276 0.004-1.913 0.001M8.176 13.433c-0.056 0.404-0.016 0.813-0.024 1.22 0.273-0.287 0.539-0.582 0.807-0.876 0.016 0.649-0.016 1.298 0.014 1.948 0.017 0.357 0.258 0.694 0.594 0.816 0.462 0.156 0.976-0.066 1.423 0.142 0.173 0.622 0.059 1.284 0.079 1.921 0.548 0.018 1.096 0.016 1.645 0.017 0.016-0.607-0.030-1.216 0.024-1.82 0.21-0.358 0.695-0.178 1.032-0.239 0.534 0.060 1.031-0.403 1.027-0.935 0.022-0.627-0.007-1.254 0.008-1.881 0.266 0.29 0.532 0.578 0.808 0.858 0.003-0.407 0.001-0.814 0.003-1.221-0.413-0.464-0.839-0.917-1.266-1.369-0.407 0.462-0.813 0.921-1.226 1.374 0.003 0.412 0 0.822-0.004 1.233 0.285-0.286 0.555-0.588 0.825-0.888-0.021 0.61 0.080 1.237-0.049 1.836-0.46 0.337-1.099-0.012-1.576 0.286-0.203 0.117-0.317 0.33-0.45 0.514-0.161-0.327-0.443-0.674-0.851-0.63-0.375-0.071-0.889 0.155-1.162-0.177-0.104-0.585-0.020-1.189-0.046-1.782 0.269 0.283 0.534 0.569 0.81 0.842-0.001-0.409-0.008-0.818-0.009-1.228-0.413-0.442-0.83-0.88-1.237-1.33-0.388 0.467-0.837 0.881-1.199 1.369z"></path>
<path fill="#1f2521" d="M11.45 2.278c0.431-0.191 0.99-0.030 1.208 0.401 1.079 1.857 2.129 3.731 3.228 5.575 2.361 3.953 4.588 7.982 6.922 11.949 0.417 0.594-0.046 1.533-0.786 1.508-6.729 0.066-13.461 0.084-20.19 0.146-0.715 0.055-1.214-0.845-0.812-1.433 1.605-2.849 3.22-5.693 4.842-8.531 1.69-3.032 3.373-6.070 5.087-9.089 0.125-0.209 0.275-0.417 0.501-0.526M6.222 14.744c-1.010 1.803-2.066 3.58-3.062 5.39 5.841-0.060 11.684-0.058 17.525-0.136-2.906-5.113-5.94-10.153-8.829-15.276-1.934 3.309-3.763 6.678-5.634 10.022z"></path>
<path fill="#1f2521" d="M10.905 8.441c0.637 0.003 1.276 0.010 1.913-0.001 0 1.344-0.122 2.704-0.534 3.99-0.098 0.391-0.736 0.383-0.808-0.020-0.416-1.276-0.612-2.627-0.572-3.969z"></path>
<path fill="#1f2521" d="M8.176 13.433c0.362-0.488 0.81-0.902 1.199-1.369 0.407 0.45 0.824 0.888 1.237 1.33 0.001 0.409 0.008 0.818 0.009 1.228-0.277-0.273-0.542-0.559-0.81-0.842 0.026 0.593-0.058 1.197 0.046 1.782 0.273 0.332 0.787 0.106 1.162 0.177 0.408-0.045 0.69 0.303 0.851 0.63 0.132-0.184 0.247-0.397 0.45-0.514 0.477-0.298 1.116 0.051 1.576-0.286 0.129-0.599 0.028-1.226 0.049-1.836-0.27 0.3-0.54 0.602-0.825 0.888 0.004-0.41 0.007-0.821 0.004-1.233 0.413-0.454 0.82-0.913 1.226-1.374 0.426 0.452 0.852 0.905 1.266 1.369-0.001 0.407 0 0.814-0.003 1.221-0.275-0.279-0.542-0.568-0.808-0.858-0.014 0.627 0.014 1.254-0.008 1.881 0.004 0.532-0.493 0.995-1.027 0.935-0.337 0.060-0.822-0.119-1.032 0.239-0.054 0.605-0.008 1.213-0.024 1.82-0.548-0.001-1.096 0.001-1.645-0.017-0.020-0.637 0.094-1.3-0.079-1.921-0.447-0.207-0.961 0.014-1.423-0.142-0.336-0.122-0.577-0.459-0.594-0.816-0.030-0.649 0.001-1.298-0.014-1.948-0.268 0.294-0.534 0.589-0.807 0.876 0.008-0.407-0.033-0.816 0.024-1.22z"></path>
</svg>
