<!-- Generated by IcoMoon.io -->
<svg version="1.1" xmlns="http://www.w3.org/2000/svg" width="24" height="24" viewBox="0 0 24 24">
<title>warning--dead-end--g3</title>
<path fill="#ffd520" d="M11.791 0h0.391c0.466 0.258 0.802 0.679 1.187 1.036-0.46 0.455-0.914 0.913-1.374 1.368-0.46-0.455-0.914-0.913-1.373-1.368 0.38-0.355 0.719-0.764 1.169-1.036z"></path>
<path fill="#ffd520" d="M7.879 3.78c0.469-0.449 0.93-0.907 1.378-1.378 0.456 0.463 0.916 0.923 1.373 1.384 0.451-0.461 0.904-0.923 1.366-1.373 0.463 0.45 0.913 0.913 1.368 1.372 0.458-0.46 0.914-0.922 1.372-1.382 0.448 0.47 0.908 0.928 1.378 1.378-0.467 0.45-0.924 0.908-1.375 1.373 0.452 0.456 0.907 0.911 1.363 1.364 0.46-0.457 0.919-0.912 1.37-1.378 0.449 0.469 0.908 0.929 1.376 1.378-0.466 0.45-0.922 0.91-1.376 1.37 0.454 0.456 0.908 0.912 1.367 1.363 0.46-0.455 0.918-0.912 1.372-1.373 0.446 0.467 0.905 0.924 1.37 1.373-0.46 0.457-0.92 0.914-1.376 1.376 0.46 0.45 0.916 0.905 1.367 1.363-0.451 0.458-0.91 0.911-1.364 1.368 0.457 0.458 0.918 0.913 1.37 1.376-0.464 0.446-0.92 0.901-1.367 1.367-0.455-0.462-0.913-0.918-1.372-1.375-0.458 0.455-0.916 0.911-1.369 1.37 0.46 0.456 0.916 0.913 1.375 1.369-0.466 0.449-0.924 0.907-1.374 1.373-0.451-0.463-0.91-0.919-1.368-1.375-0.458 0.452-0.916 0.907-1.364 1.369 0.455 0.458 0.911 0.916 1.37 1.369-0.468 0.451-0.928 0.911-1.378 1.379-0.45-0.466-0.906-0.925-1.367-1.38-0.458 0.455-0.911 0.917-1.368 1.374-0.456-0.457-0.91-0.917-1.364-1.375-0.464 0.454-0.917 0.918-1.374 1.376-0.448-0.467-0.906-0.925-1.373-1.374 0.458-0.454 0.916-0.91 1.369-1.369-0.448-0.463-0.905-0.917-1.363-1.37-0.458 0.457-0.918 0.912-1.369 1.376-0.449-0.467-0.907-0.925-1.374-1.374 0.461-0.454 0.917-0.913 1.378-1.368-0.456-0.458-0.913-0.916-1.37-1.372-0.458 0.458-0.918 0.914-1.37 1.378-0.449-0.468-0.906-0.926-1.374-1.374 0.46-0.456 0.916-0.914 1.375-1.369-0.456-0.455-0.914-0.908-1.366-1.368 0.45-0.462 0.906-0.918 1.369-1.367-0.462-0.456-0.917-0.919-1.382-1.37 0.469-0.449 0.929-0.91 1.376-1.379 0.452 0.463 0.911 0.92 1.372 1.375 0.458-0.451 0.912-0.907 1.366-1.362-0.454-0.463-0.91-0.923-1.379-1.37 0.47-0.45 0.931-0.91 1.381-1.381 0.449 0.468 0.91 0.924 1.37 1.38 0.455-0.454 0.91-0.907 1.361-1.364-0.451-0.464-0.908-0.924-1.374-1.373M9.268 5.159c0.451 0.452 0.906 0.902 1.356 1.355-0.449 0.463-0.907 0.917-1.366 1.37-0.455-0.45-0.9-0.91-1.362-1.352-0.469 0.439-0.924 0.894-1.363 1.363 0.449 0.456 0.907 0.901 1.355 1.358-0.454 0.46-0.906 0.919-1.373 1.366-0.45-0.457-0.901-0.913-1.362-1.358-0.434 0.444-0.9 0.857-1.309 1.324 0.317 0.542 0.893 0.924 1.309 1.405-0.449 0.457-0.907 0.905-1.357 1.361 0.438 0.469 0.894 0.92 1.36 1.361 0.467-0.438 0.91-0.901 1.366-1.349 0.461 0.451 0.914 0.908 1.37 1.364-0.451 0.457-0.914 0.901-1.355 1.367 0.442 0.464 0.894 0.918 1.36 1.358 0.461-0.446 0.905-0.907 1.366-1.352 0.457 0.449 0.901 0.908 1.364 1.35-0.439 0.475-0.919 0.911-1.356 1.388 0.454 0.454 0.896 0.918 1.369 1.351 0.451-0.454 0.902-0.906 1.357-1.356 0.455 0.45 0.905 0.905 1.358 1.356 0.469-0.437 0.919-0.893 1.361-1.357-0.436-0.469-0.898-0.913-1.352-1.364 0.451-0.46 0.91-0.914 1.366-1.369 0.462 0.446 0.906 0.908 1.368 1.354 0.464-0.44 0.917-0.895 1.36-1.357-0.442-0.467-0.905-0.911-1.355-1.368 0.456-0.456 0.908-0.916 1.37-1.366 0.455 0.45 0.899 0.912 1.366 1.35 0.464-0.442 0.919-0.894 1.36-1.36-0.451-0.456-0.908-0.905-1.358-1.361 0.427-0.454 0.902-0.862 1.309-1.334-0.314-0.533-0.889-0.924-1.31-1.396-0.464 0.446-0.911 0.913-1.375 1.36-0.449-0.46-0.908-0.908-1.36-1.367 0.449-0.456 0.906-0.904 1.356-1.357-0.438-0.47-0.893-0.924-1.362-1.363-0.463 0.442-0.908 0.901-1.363 1.351-0.458-0.454-0.917-0.908-1.367-1.369 0.449-0.455 0.911-0.898 1.35-1.362-0.442-0.467-0.889-0.926-1.364-1.357-0.455 0.45-0.905 0.904-1.357 1.355-0.449-0.451-0.899-0.899-1.348-1.35-0.492 0.419-0.932 0.893-1.38 1.358z"></path>
<path fill="#ffd520" d="M5.302 11.989c2.225-2.236 4.454-4.468 6.694-6.69 2.239 2.221 4.47 4.453 6.694 6.691-2.224 2.238-4.458 4.468-6.694 6.695-2.233-2.23-4.469-4.457-6.694-6.696M13.258 8.174c-0.473 0.792-1.109 1.504-1.476 2.348 0.224 0.287 0.62-0.024 0.912-0.056-0.018 0.486 0.058 0.984-0.044 1.463-0.18 0.314-0.599 0.202-0.896 0.239-0.784-0.053-1.548 0.594-1.576 1.388-0.024 0.752-0.001 1.506-0.006 2.26 0.376 0 0.751 0 1.127-0.001 0.038-0.768-0.066-1.552 0.050-2.31 0.464-0.445 1.285-0.016 1.787-0.486 0.872-0.551 0.68-1.676 0.689-2.552 0.292 0.031 0.692 0.346 0.913 0.055-0.366-0.844-0.995-1.562-1.48-2.347z"></path>
<path fill="#ffd520" d="M0 11.808c0.262-0.466 0.684-0.804 1.042-1.189 0.457 0.456 0.917 0.911 1.367 1.373-0.452 0.46-0.911 0.913-1.366 1.37-0.359-0.37-0.738-0.722-1.043-1.14v-0.414z"></path>
<path fill="#ffd520" d="M21.582 11.992c0.451-0.462 0.911-0.917 1.368-1.373 0.362 0.385 0.776 0.73 1.050 1.188v0.353c-0.253 0.478-0.69 0.811-1.051 1.201-0.456-0.456-0.913-0.911-1.367-1.369z"></path>
<path fill="#ffd520" d="M10.626 22.944c0.455-0.456 0.91-0.914 1.37-1.367 0.458 0.454 0.913 0.911 1.37 1.367-0.376 0.364-0.73 0.755-1.16 1.056h-0.373c-0.482-0.251-0.814-0.695-1.207-1.056z"></path>
<path fill="#000" d="M9.257 2.402c0.44-0.47 0.898-0.925 1.366-1.367 0.458 0.455 0.913 0.913 1.373 1.368 0.46-0.455 0.914-0.913 1.374-1.368 0.468 0.443 0.925 0.896 1.366 1.367-0.457 0.461-0.913 0.923-1.372 1.382-0.455-0.458-0.905-0.922-1.368-1.372-0.462 0.45-0.914 0.912-1.366 1.373-0.457-0.461-0.917-0.92-1.373-1.384z"></path>
<path fill="#000" d="M6.522 5.137c0.44-0.463 0.893-0.916 1.357-1.357 0.466 0.449 0.923 0.908 1.374 1.373-0.451 0.457-0.906 0.911-1.361 1.364-0.461-0.456-0.922-0.912-1.37-1.38z"></path>
<path fill="#000" d="M9.268 5.159c0.448-0.466 0.888-0.94 1.38-1.358 0.449 0.451 0.899 0.899 1.348 1.35 0.452-0.451 0.902-0.905 1.357-1.355 0.475 0.431 0.923 0.89 1.364 1.357-0.439 0.464-0.901 0.907-1.35 1.362 0.45 0.461 0.908 0.916 1.367 1.369 0.455-0.45 0.9-0.91 1.363-1.351 0.469 0.439 0.924 0.893 1.362 1.363-0.45 0.454-0.907 0.901-1.356 1.357 0.451 0.458 0.911 0.907 1.36 1.367 0.464-0.446 0.911-0.913 1.375-1.36 0.421 0.472 0.996 0.863 1.31 1.396-0.407 0.473-0.882 0.881-1.309 1.334 0.45 0.456 0.907 0.905 1.358 1.361-0.44 0.466-0.895 0.918-1.36 1.36-0.467-0.438-0.911-0.9-1.366-1.35-0.462 0.45-0.914 0.91-1.37 1.366 0.45 0.457 0.913 0.901 1.355 1.368-0.443 0.462-0.895 0.917-1.36 1.357-0.462-0.445-0.906-0.907-1.368-1.354-0.456 0.455-0.914 0.91-1.366 1.369 0.455 0.451 0.917 0.895 1.352 1.364-0.442 0.464-0.892 0.92-1.361 1.357-0.454-0.451-0.904-0.906-1.358-1.356-0.455 0.45-0.906 0.902-1.357 1.356-0.473-0.433-0.916-0.898-1.369-1.351 0.437-0.478 0.917-0.913 1.356-1.388-0.463-0.442-0.907-0.901-1.364-1.35-0.461 0.445-0.905 0.906-1.366 1.352-0.466-0.44-0.918-0.894-1.36-1.358 0.44-0.466 0.904-0.91 1.355-1.367-0.456-0.456-0.91-0.913-1.37-1.364-0.456 0.448-0.899 0.911-1.366 1.349-0.466-0.44-0.922-0.892-1.36-1.361 0.45-0.456 0.908-0.904 1.357-1.361-0.416-0.481-0.992-0.863-1.309-1.405 0.409-0.467 0.875-0.88 1.309-1.324 0.461 0.445 0.912 0.901 1.362 1.358 0.467-0.446 0.919-0.906 1.373-1.366-0.448-0.457-0.906-0.902-1.355-1.358 0.439-0.469 0.894-0.924 1.363-1.363 0.462 0.443 0.907 0.902 1.362 1.352 0.458-0.454 0.917-0.907 1.366-1.37-0.45-0.452-0.905-0.902-1.356-1.355M5.302 11.989c2.225 2.239 4.46 4.466 6.694 6.696 2.236-2.227 4.47-4.457 6.694-6.695-2.224-2.238-4.454-4.47-6.694-6.691-2.239 2.222-4.469 4.454-6.694 6.69z"></path>
<path fill="#000" d="M14.737 5.153c0.451-0.464 0.908-0.923 1.375-1.373 0.463 0.443 0.917 0.895 1.358 1.36-0.451 0.466-0.911 0.92-1.37 1.378-0.456-0.454-0.911-0.908-1.363-1.364z"></path>
<path fill="#000" d="M3.782 7.876c0.442-0.464 0.894-0.916 1.358-1.357 0.469 0.448 0.925 0.907 1.379 1.37-0.454 0.455-0.907 0.911-1.366 1.362-0.461-0.455-0.919-0.912-1.372-1.375z"></path>
<path fill="#000" d="M17.471 7.888c0.455-0.461 0.911-0.92 1.376-1.37 0.466 0.442 0.92 0.895 1.362 1.361-0.454 0.461-0.912 0.918-1.372 1.373-0.458-0.451-0.913-0.907-1.367-1.363z"></path>
<path fill="#000" d="M13.258 8.174c0.485 0.785 1.114 1.504 1.48 2.347-0.221 0.29-0.622-0.024-0.913-0.055-0.008 0.876 0.184 2.002-0.689 2.552-0.502 0.47-1.322 0.041-1.787 0.486-0.116 0.758-0.012 1.542-0.050 2.31-0.376 0.001-0.751 0.001-1.127 0.001 0.005-0.754-0.018-1.507 0.006-2.26 0.028-0.794 0.792-1.441 1.576-1.388 0.298-0.037 0.716 0.076 0.896-0.239 0.102-0.479 0.026-0.977 0.044-1.463-0.292 0.032-0.688 0.343-0.912 0.056 0.367-0.845 1.003-1.556 1.476-2.348z"></path>
<path fill="#000" d="M21.58 9.251c0.47 0.442 0.928 0.899 1.37 1.368-0.457 0.456-0.917 0.911-1.368 1.373 0.454 0.458 0.911 0.913 1.367 1.369-0.446 0.469-0.905 0.926-1.373 1.374-0.452-0.463-0.913-0.918-1.37-1.376 0.455-0.457 0.913-0.91 1.364-1.368-0.451-0.458-0.907-0.913-1.367-1.363 0.456-0.462 0.917-0.919 1.376-1.376z"></path>
<path fill="#000" d="M1.042 10.619c0.442-0.468 0.895-0.924 1.364-1.364 0.466 0.451 0.92 0.914 1.382 1.37-0.463 0.449-0.919 0.905-1.369 1.367 0.451 0.46 0.91 0.913 1.366 1.368-0.46 0.455-0.916 0.913-1.375 1.369-0.469-0.443-0.923-0.9-1.367-1.367 0.455-0.457 0.913-0.911 1.366-1.37-0.45-0.462-0.91-0.917-1.367-1.373z"></path>
<path fill="#000" d="M3.784 16.103c0.452-0.463 0.912-0.919 1.37-1.378 0.457 0.456 0.914 0.913 1.37 1.372-0.461 0.455-0.917 0.914-1.378 1.368-0.466-0.443-0.92-0.898-1.363-1.362z"></path>
<path fill="#000" d="M17.468 16.097c0.454-0.46 0.911-0.916 1.369-1.37 0.458 0.457 0.917 0.913 1.372 1.375-0.445 0.466-0.9 0.92-1.366 1.364-0.46-0.456-0.916-0.913-1.375-1.369z"></path>
<path fill="#000" d="M6.521 18.839c0.451-0.464 0.911-0.919 1.369-1.376 0.458 0.454 0.916 0.907 1.363 1.37-0.454 0.46-0.911 0.916-1.369 1.369-0.466-0.443-0.919-0.898-1.363-1.363z"></path>
<path fill="#000" d="M14.737 18.833c0.449-0.462 0.906-0.917 1.364-1.369 0.458 0.456 0.917 0.912 1.368 1.375-0.443 0.466-0.898 0.919-1.362 1.363-0.46-0.454-0.916-0.911-1.37-1.369z"></path>
<path fill="#000" d="M9.257 21.576c0.457-0.458 0.91-0.923 1.374-1.376 0.455 0.458 0.908 0.918 1.364 1.375 0.457-0.457 0.91-0.919 1.368-1.374 0.461 0.455 0.917 0.914 1.367 1.38-0.442 0.468-0.898 0.92-1.363 1.363-0.457-0.456-0.912-0.913-1.37-1.367-0.461 0.452-0.916 0.911-1.37 1.367-0.469-0.443-0.926-0.899-1.369-1.368z"></path>
</svg>
