<!-- Generated by IcoMoon.io -->
<svg version="1.1" xmlns="http://www.w3.org/2000/svg" width="24" height="24" viewBox="0 0 24 24">
<title>warning--bicycles-crossing--g2</title>
<path fill="#d9a718" opacity="0.9" d="M11.617 0h0.56c0.254 0.108 0.493 0.253 0.689 0.449 3.497 3.506 6.997 7.009 10.498 10.512 0.545 0.44 0.625 1.325 0.083 1.802-3.558 3.564-7.117 7.126-10.676 10.69-0.427 0.482-1.237 0.494-1.673 0.018-3.365-3.358-6.73-6.716-10.092-10.076-0.37-0.372-0.796-0.715-1.006-1.211v-0.546c0.226-0.538 0.698-0.898 1.093-1.306 3.278-3.281 6.566-6.553 9.844-9.838 0.2-0.198 0.433-0.36 0.68-0.494M11.812 0.295c-0.27 0.036-0.493 0.206-0.682 0.391-3.5 3.504-7.004 7.003-10.504 10.507-0.416 0.361-0.446 1.039-0.022 1.408 3.538 3.538 7.075 7.078 10.614 10.614 0.367 0.42 1.055 0.407 1.408-0.024 3.539-3.546 7.088-7.082 10.624-10.631 0.424-0.38 0.33-1.057-0.083-1.406-3.458-3.463-6.919-6.923-10.379-10.384-0.256-0.26-0.587-0.532-0.977-0.475z"></path>
<path fill="#000" d="M11.812 0.295c0.39-0.056 0.721 0.215 0.977 0.475 3.46 3.461 6.92 6.92 10.379 10.384 0.413 0.349 0.506 1.026 0.083 1.406-3.535 3.548-7.085 7.085-10.624 10.631-0.353 0.431-1.040 0.444-1.408 0.024-3.539-3.536-7.076-7.076-10.614-10.614-0.425-0.368-0.395-1.046 0.022-1.408 3.499-3.504 7.003-7.003 10.504-10.507 0.188-0.185 0.412-0.355 0.682-0.391M1.222 11.422c-0.209 0.19-0.55 0.514-0.21 0.76 3.541 3.54 7.081 7.081 10.622 10.621 0.133 0.174 0.374 0.233 0.518 0.034 3.548-3.53 7.078-7.084 10.626-10.615 0.205-0.157 0.259-0.427 0.028-0.589-3.389-3.409-6.8-6.798-10.193-10.205-0.218-0.232-0.449-0.457-0.725-0.62-3.606 3.485-7.103 7.086-10.667 10.615z"></path>
<path fill="#f1ba1b" d="M1.222 11.422c3.564-3.529 7.061-7.13 10.667-10.615 0.276 0.163 0.506 0.389 0.725 0.62 3.392 3.407 6.804 6.796 10.193 10.205 0.232 0.162 0.178 0.432-0.028 0.589-3.548 3.532-7.078 7.085-10.626 10.615-0.144 0.199-0.385 0.14-0.518-0.034-3.541-3.54-7.081-7.081-10.622-10.621-0.34-0.246 0.001-0.57 0.21-0.76M13.135 7.016c-0.011 0.071-0.031 0.212-0.042 0.282 0.288 0.088 0.588 0.125 0.889 0.143-0.098 0.169-0.043 0.54-0.31 0.539-1.273 0.013-2.549-0.001-3.823 0.005 0.037-0.322 0.066-0.643 0.079-0.966-0.74 0.048-1.697-0.361-2.269 0.271-0.396 0.628 0.295 1.184 0.906 1.092-0.025-0.362-0.532-0.145-0.679-0.419-0.158-0.236-0.142-0.654 0.174-0.751 0.558-0.084 1.127-0.019 1.69-0.031-0.138 0.869-0.276 1.742-0.523 2.588-0.984-0.478-2.237-0.706-3.174 0.006-1.787 1.075-1.873 4.030-0.18 5.227 1.021 0.862 2.742 0.808 3.648-0.2 1.451-1.2 1.338-3.751-0.169-4.864 0.092-0.46 0.197-0.917 0.323-1.368 0.938 1.385 1.846 2.79 2.774 4.182 0.174 0.314 0.586 0.103 0.868 0.116 0.113 1.331 1.199 2.502 2.519 2.705 1.768 0.299 3.42-1.362 3.359-3.094 0.077-1.608-1.298-3.191-2.946-3.176-0.502 0.060-0.989 0.205-1.469 0.36-0.224-0.728-0.925-1.417-0.575-2.215 0.241-0.018 0.488-0.020 0.721-0.089 0.3-0.182 0.264-0.81-0.168-0.761-0.559 0.054-1.073 0.31-1.622 0.418z"></path>
<path fill="#f1ba1b" d="M9.763 8.228c1.324-0.007 2.647-0.008 3.971 0-0.372 1.457-0.745 2.914-1.136 4.366-0.955-1.448-1.897-2.905-2.834-4.366z"></path>
<path fill="#f1ba1b" d="M13.981 8.412c0.216 0.44 0.45 0.875 0.625 1.334-0.242 0.403-0.698 0.635-0.923 1.055-0.307 0.584-0.401 1.246-0.454 1.896-0.095 0-0.286 0.002-0.38 0.002 0.368-1.432 0.751-2.86 1.132-4.288z"></path>
<path fill="#f1ba1b" d="M6.442 9.803c0.857-0.415 1.879-0.323 2.675 0.186-0.238 0.806-0.655 1.579-1.292 2.14-0.205 0.010-0.41 0.040-0.599 0.124 0.006 0.143 0.013 0.287 0.020 0.43 0.368 0.241 0.677-0.002 0.761-0.386 0.577-0.606 1.073-1.313 1.294-2.135 1.32 1.050 1.451 3.331 0.121 4.422-0.978 1.086-2.92 0.997-3.834-0.126-1.301-1.352-0.864-3.874 0.854-4.654z"></path>
<path fill="#f1ba1b" d="M14.887 9.874c1.12-0.642 2.683-0.337 3.454 0.706 1.242 1.44 0.623 4.037-1.223 4.621-1.59 0.616-3.481-0.68-3.623-2.342 0.889-0.035 1.78-0.043 2.668-0.091 0.289 0.035 0.241-0.322 0.282-0.508-0.154-0.065-0.306-0.13-0.46-0.193-0.372-0.727-0.731-1.463-1.098-2.192z"></path>
<path fill="#f1ba1b" d="M13.508 12.703c-0.211-1.069 0.446-2.016 1.198-2.696 0.317 0.846 1.104 1.591 1.068 2.519-0.755 0.070-1.511 0.113-2.266 0.178z"></path>
<path fill="#1f1a17" d="M13.135 7.016c0.55-0.108 1.063-0.364 1.622-0.418 0.432-0.049 0.468 0.578 0.168 0.761-0.233 0.068-0.48 0.071-0.721 0.089-0.35 0.798 0.35 1.487 0.575 2.215 0.48-0.155 0.967-0.3 1.469-0.36 1.648-0.014 3.023 1.568 2.946 3.176 0.061 1.732-1.591 3.392-3.359 3.094-1.32-0.203-2.406-1.374-2.519-2.705-0.282-0.013-0.694 0.198-0.868-0.116-0.929-1.392-1.836-2.797-2.774-4.182-0.126 0.451-0.23 0.908-0.323 1.368 1.507 1.112 1.62 3.664 0.169 4.864-0.906 1.008-2.627 1.062-3.648 0.2-1.693-1.198-1.607-4.152 0.18-5.227 0.937-0.712 2.19-0.484 3.174-0.006 0.247-0.846 0.385-1.72 0.523-2.588-0.563 0.012-1.132-0.053-1.69 0.031-0.316 0.097-0.332 0.515-0.174 0.751 0.148 0.274 0.654 0.056 0.679 0.419-0.611 0.092-1.302-0.464-0.906-1.092 0.572-0.632 1.529-0.223 2.269-0.271-0.013 0.323-0.042 0.644-0.079 0.966 1.274-0.006 2.55 0.008 3.823-0.005 0.266 0.001 0.211-0.37 0.31-0.539-0.301-0.018-0.601-0.055-0.889-0.143 0.011-0.070 0.031-0.211 0.042-0.282M9.763 8.228c0.937 1.46 1.879 2.917 2.834 4.366 0.391-1.452 0.764-2.909 1.136-4.366-1.324-0.008-2.647-0.007-3.971 0M13.981 8.412c-0.38 1.428-0.763 2.856-1.132 4.288 0.095 0 0.286-0.002 0.38-0.002 0.053-0.65 0.146-1.312 0.454-1.896 0.224-0.42 0.68-0.652 0.923-1.055-0.175-0.46-0.409-0.894-0.625-1.334M6.442 9.803c-1.718 0.78-2.155 3.301-0.854 4.654 0.914 1.123 2.856 1.212 3.834 0.126 1.33-1.091 1.199-3.372-0.121-4.422-0.221 0.822-0.716 1.529-1.294 2.135-0.084 0.384-0.392 0.628-0.761 0.386-0.007-0.143-0.014-0.287-0.020-0.43 0.188-0.084 0.394-0.114 0.599-0.124 0.637-0.56 1.055-1.333 1.292-2.14-0.796-0.509-1.818-0.601-2.675-0.186M14.887 9.874c0.367 0.73 0.726 1.465 1.098 2.192 0.154 0.064 0.306 0.128 0.46 0.193-0.041 0.186 0.007 0.542-0.282 0.508-0.888 0.048-1.778 0.056-2.668 0.091 0.142 1.662 2.033 2.958 3.623 2.342 1.846-0.584 2.465-3.181 1.223-4.621-0.77-1.043-2.334-1.348-3.454-0.706M13.508 12.703c0.755-0.065 1.511-0.108 2.266-0.178 0.036-0.928-0.751-1.673-1.068-2.519-0.751 0.68-1.409 1.627-1.198 2.696z"></path>
</svg>
