<?xml version="1.0" encoding="utf-8"?>
<!-- Generated by IcoMoon.io -->
<!DOCTYPE svg PUBLIC "-//W3C//DTD SVG 1.1//EN" "http://www.w3.org/Graphics/SVG/1.1/DTD/svg11.dtd">
<svg version="1.1" xmlns="http://www.w3.org/2000/svg" xmlns:xlink="http://www.w3.org/1999/xlink" width="24" height="24" viewBox="0 0 24 24">
<path fill="#ee1c23" d="M11.897 1.5h0.2c0.258 0.091 0.446 0.293 0.572 0.529 3.527 6.118 7.054 12.234 10.578 18.352 0.259 0.47 0.577 0.913 0.752 1.426v0.211c-0.078 0.266-0.31 0.41-0.564 0.482h-22.842c-0.271-0.055-0.508-0.211-0.594-0.484v-0.19c0.060-0.184 0.133-0.362 0.224-0.533 3.614-6.266 7.228-12.533 10.838-18.802 0.226-0.366 0.395-0.832 0.834-0.992M11.903 6.043c-2.68 4.651-5.362 9.301-8.042 13.952 5.428 0.001 10.854 0 16.28 0-2.68-4.65-5.362-9.298-8.039-13.948-0.067-0.122-0.133-0.124-0.199-0.005z"></path>
<path fill="#fff" d="M11.903 6.043c0.066-0.119 0.132-0.118 0.199 0.005 2.677 4.65 5.359 9.298 8.039 13.948-5.426 0-10.853 0.001-16.28 0 2.681-4.651 5.363-9.301 8.042-13.952M10.044 10.78c0.001 2.82 0 5.639 0 8.458 0.461 0 0.922 0 1.381 0 0.001-2.819 0-5.639 0.001-8.458-0.461-0.001-0.922-0.001-1.382 0M12.631 10.78c0.002 0.985-0.004 1.97 0 2.957-0.018 0.313 0.271 0.504 0.449 0.72 0.254 0.25 0.355 0.617 0.343 0.965-0.005 1.272-0.001 2.544-0.002 3.816 0.493 0 0.986 0 1.48 0 0.002-1.312-0.004-2.624 0.004-3.937 0.025-0.421-0.236-0.786-0.522-1.068-0.164-0.187-0.41-0.355-0.418-0.629-0.005-0.941 0.002-1.883 0-2.824-0.445 0-0.889-0.001-1.333 0z"></path>
<path fill="#030303" d="M10.044 10.78c0.461-0.001 0.922-0.001 1.382 0-0.001 2.819 0 5.639-0.001 8.458-0.46 0-0.92 0-1.381 0 0-2.819 0.001-5.638 0-8.458z"></path>
<path fill="#030303" d="M12.631 10.78c0.444-0.001 0.888 0 1.333 0 0.002 0.941-0.005 1.883 0 2.824 0.007 0.274 0.253 0.442 0.418 0.629 0.286 0.282 0.547 0.647 0.522 1.068-0.007 1.313-0.001 2.626-0.004 3.937-0.493 0-0.986 0-1.48 0 0.001-1.272-0.002-2.544 0.002-3.816 0.012-0.348-0.089-0.715-0.343-0.965-0.178-0.216-0.467-0.407-0.449-0.72-0.004-0.986 0.002-1.972 0-2.957z"></path>
</svg>
