<?xml version="1.0" encoding="utf-8"?>
<!-- Generated by IcoMoon.io -->
<!DOCTYPE svg PUBLIC "-//W3C//DTD SVG 1.1//EN" "http://www.w3.org/Graphics/SVG/1.1/DTD/svg11.dtd">
<svg version="1.1" xmlns="http://www.w3.org/2000/svg" xmlns:xlink="http://www.w3.org/1999/xlink" width="24" height="24" viewBox="0 0 24 24">
<path fill="#fde012" d="M11.92 0h0.146c0.323 0.020 0.612 0.186 0.834 0.414 3.443 3.437 6.875 6.886 10.316 10.322 0.326 0.334 0.745 0.656 0.784 1.16v0.336c-0.082 0.221-0.188 0.438-0.361 0.604-3.396 3.407-6.79 6.816-10.184 10.225-0.353 0.349-0.679 0.756-1.158 0.938h-0.568c-0.527-0.17-0.866-0.628-1.249-0.997-3.172-3.187-6.344-6.374-9.518-9.559-0.385-0.398-0.89-0.763-0.961-1.357v-0.168c0.056-0.34 0.226-0.648 0.478-0.881 3.382-3.379 6.757-6.766 10.136-10.147 0.377-0.367 0.736-0.847 1.306-0.89M11.567 0.41c-0.28 0.197-0.503 0.46-0.746 0.696-3.384 3.374-6.761 6.757-10.145 10.132-0.434 0.356-0.498 1.075-0.062 1.457 3.581 3.584 7.169 7.163 10.752 10.746 0.328 0.371 0.954 0.367 1.286 0.002 3.595-3.602 7.193-7.204 10.787-10.808 0.394-0.35 0.332-1.007-0.059-1.333-3.557-3.563-7.115-7.124-10.674-10.685-0.276-0.317-0.774-0.437-1.139-0.206z"></path>
<path fill="#fde012" d="M11.801 0.984c0.21-0.242 0.439 0.036 0.607 0.179 3.491 3.508 6.996 7.001 10.487 10.506 0.094 0.101 0.173 0.211 0.238 0.332-0.064 0.122-0.143 0.234-0.239 0.334-3.541 3.548-7.074 7.103-10.613 10.654-0.139 0.198-0.426 0.188-0.568-0.004-3.541-3.544-7.069-7.103-10.61-10.646-0.090-0.119-0.263-0.232-0.208-0.402 0.144-0.246 0.37-0.431 0.565-0.635 3.182-3.178 6.355-6.365 9.536-9.544 0.268-0.259 0.508-0.547 0.804-0.774M15.122 7.46c-0.437-0.121-0.856-0.364-1.307-0.391-0.812 0.398-1.626 0.803-2.414 1.247-0.599 0.599-0.935 1.428-1.588 1.982-0.391 0.338-0.775 0.685-1.166 1.022-0.062 0.43-0.175 0.887 0.106 1.266 0.308-0.166 0.618-0.326 0.93-0.482-0.116-0.42-0.007-0.954 0.445-1.114 0.4-0.194 0.792 0.076 1.072 0.343 0.842-0.443 1.7-0.857 2.527-1.327 0.048 0.139 0.070 0.284 0.058 0.432-0.016 1.884 0.005 3.768-0.010 5.652-0.014 0.257-0.146 0.613-0.454 0.613-0.254 0.012-0.322-0.259-0.43-0.428-0.115 0.156-0.18 0.426-0.416 0.421-0.268 0.056-0.354-0.262-0.47-0.432-0.125 0.181-0.196 0.491-0.48 0.436-0.238 0.001-0.298-0.272-0.415-0.428-0.101 0.164-0.176 0.454-0.427 0.43-0.275 0.022-0.348-0.268-0.433-0.464-0.114 0.169-0.166 0.457-0.415 0.463-0.27 0.044-0.358-0.251-0.494-0.42-0.115 0.163-0.188 0.474-0.454 0.419-0.244 0.007-0.311-0.263-0.424-0.426-0.095 0.172-0.17 0.443-0.42 0.426-0.276 0.042-0.35-0.32-0.504-0.466 0.011 0.186 0.002 0.41 0.194 0.514 0.222 0.196 0.508 0.038 0.731-0.065 0.284 0.178 0.614 0.202 0.889-0.008 0.278 0.21 0.61 0.192 0.893 0.001 0.269 0.198 0.596 0.199 0.865-0.001 0.28 0.204 0.593 0.156 0.899 0.046 0.304 0.114 0.61 0.145 0.89-0.046 0.289 0.23 0.671 0.2 0.94-0.058-0.048 0.164-0.143 0.496-0.191 0.66 0.054 0.071 0.108 0.14 0.164 0.209-0.046 0.305-0.086 0.835-0.498 0.835-0.257 0.016-0.32-0.278-0.433-0.449-0.108 0.162-0.16 0.456-0.408 0.445-0.274 0.065-0.361-0.269-0.469-0.444-0.118 0.187-0.192 0.509-0.479 0.445-0.247 0.018-0.293-0.292-0.406-0.449-0.108 0.178-0.18 0.47-0.443 0.45-0.264 0.025-0.336-0.269-0.443-0.448-0.103 0.167-0.156 0.461-0.409 0.446-0.272 0.061-0.356-0.27-0.479-0.443-0.118 0.17-0.182 0.509-0.462 0.443-0.262 0.018-0.306-0.293-0.407-0.463-0.113 0.176-0.174 0.484-0.439 0.464-0.283 0.025-0.354-0.319-0.503-0.485 0.014 0.206 0.017 0.462 0.238 0.563 0.226 0.161 0.49 0.010 0.694-0.108 0.272 0.205 0.618 0.223 0.886-0.004 0.271 0.226 0.616 0.208 0.893 0.005 0.262 0.211 0.604 0.214 0.863-0.005 0.274 0.216 0.623 0.215 0.902 0.010 0.272 0.215 0.61 0.194 0.88-0.010 0.168 0.088 0.338 0.222 0.542 0.175 0.283-0.031 0.358-0.348 0.445-0.568 0.946 0.008 1.89-0.002 2.834 0.006 1.961-1.954 3.91-3.92 5.869-5.875-0.665-0.672-1.327-1.345-1.994-2.015-2.231-0.030-4.464 0.052-6.692-0.044 0.27-0.158 0.546-0.305 0.826-0.444-0.134-0.443 0.028-1.012 0.524-1.128 0.374-0.162 0.722 0.11 0.962 0.372 0.314-0.158 0.628-0.319 0.941-0.481-0.251-0.492-0.503-0.984-0.752-1.477-0.425 0.217-0.848 0.437-1.273 0.654M15.133 8.528c-0.45 0.205-0.51 0.899-0.084 1.163 0.416 0.38 1.158-0.012 1.118-0.563 0.032-0.509-0.61-0.862-1.034-0.6M10.219 11.068c-0.51 0.148-0.65 0.918-0.198 1.214 0.373 0.314 1.032 0.071 1.097-0.416 0.127-0.496-0.421-0.984-0.899-0.798M7.744 17.555c0.226 0.218 0.505 0.041 0.72-0.089 0.277 0.23 0.618 0.233 0.889-0.007 0.269 0.251 0.593 0.196 0.896 0.042 0.287 0.157 0.598 0.206 0.858-0.037 0.278 0.234 0.619 0.229 0.904 0.008 0.275 0.224 0.608 0.217 0.883-0.007 0.223 0.169 0.49 0.215 0.767 0.176-0.138-0.102-0.308-0.138-0.478-0.149-0.12-0.149-0.23-0.306-0.338-0.463-0.034 0.13-0.067 0.26-0.1 0.391-0.12 0.036-0.242 0.067-0.365 0.094-0.216-0.061-0.277-0.298-0.377-0.469-0.109 0.202-0.199 0.5-0.484 0.479-0.234-0.046-0.296-0.299-0.398-0.478-0.101 0.198-0.191 0.442-0.44 0.486-0.28-0.037-0.356-0.32-0.462-0.535-0.044 0.143-0.089 0.283-0.13 0.427-0.12 0.036-0.24 0.067-0.362 0.092-0.218-0.073-0.274-0.326-0.389-0.502-0.097 0.175-0.127 0.425-0.343 0.503-0.127-0.026-0.253-0.058-0.378-0.094-0.041-0.143-0.084-0.284-0.127-0.426-0.106 0.204-0.175 0.493-0.449 0.527-0.276-0.023-0.36-0.326-0.504-0.511 0.016 0.198 0 0.436 0.206 0.541z"></path>
<path fill="#fde012" d="M13.853 7.346c0.335 0.020 0.647 0.178 0.97 0.263-1.421 0.728-2.834 1.468-4.255 2.195 0.44-0.498 0.706-1.2 1.349-1.48 0.646-0.324 1.277-0.683 1.937-0.978z"></path>
<path fill="#fde012" d="M15.299 8.71c0.338-0.169 0.78 0.259 0.598 0.6-0.097 0.352-0.643 0.415-0.817 0.098-0.163-0.235-0.065-0.61 0.22-0.698z"></path>
<path fill="#fde012" d="M10.223 11.303c0.359-0.191 0.793 0.197 0.65 0.568-0.089 0.306-0.512 0.433-0.743 0.199-0.269-0.192-0.184-0.624 0.092-0.767z"></path>
<path fill="#030303" d="M11.567 0.41c0.365-0.23 0.863-0.11 1.139 0.206 3.559 3.56 7.117 7.122 10.674 10.685 0.391 0.326 0.452 0.983 0.059 1.333-3.594 3.605-7.192 7.206-10.787 10.808-0.332 0.365-0.959 0.368-1.286-0.002-3.583-3.583-7.171-7.162-10.752-10.746-0.436-0.382-0.372-1.1 0.062-1.457 3.384-3.374 6.761-6.757 10.145-10.132 0.244-0.236 0.467-0.499 0.746-0.696M11.801 0.984c-0.296 0.227-0.536 0.515-0.804 0.774-3.181 3.179-6.354 6.366-9.536 9.544-0.196 0.204-0.421 0.389-0.565 0.635-0.055 0.17 0.118 0.283 0.208 0.402 3.541 3.544 7.069 7.103 10.61 10.646 0.142 0.192 0.428 0.202 0.568 0.004 3.539-3.551 7.072-7.105 10.613-10.654 0.096-0.1 0.175-0.211 0.239-0.334-0.065-0.121-0.144-0.232-0.238-0.332-3.491-3.505-6.996-6.998-10.487-10.506-0.168-0.143-0.397-0.421-0.607-0.179z"></path>
<path fill="#030303" d="M15.122 7.46c0.425-0.217 0.848-0.437 1.273-0.654 0.25 0.493 0.502 0.985 0.752 1.477-0.313 0.162-0.626 0.323-0.941 0.481-0.24-0.262-0.588-0.534-0.962-0.372-0.497 0.116-0.659 0.685-0.524 1.128-0.28 0.139-0.556 0.286-0.826 0.444 2.228 0.096 4.462 0.014 6.692 0.044 0.667 0.67 1.33 1.343 1.994 2.015-1.96 1.955-3.908 3.922-5.869 5.875-0.944-0.008-1.889 0.002-2.834-0.006-0.088 0.22-0.162 0.536-0.445 0.568-0.204 0.047-0.374-0.088-0.542-0.175-0.27 0.204-0.607 0.224-0.88 0.010-0.28 0.205-0.629 0.206-0.902-0.010-0.259 0.218-0.601 0.216-0.863 0.005-0.277 0.203-0.622 0.221-0.893-0.005-0.268 0.227-0.613 0.209-0.886 0.004-0.204 0.118-0.468 0.269-0.694 0.108-0.221-0.101-0.223-0.356-0.238-0.563 0.149 0.166 0.22 0.51 0.503 0.485 0.265 0.019 0.326-0.288 0.439-0.464 0.101 0.17 0.145 0.481 0.407 0.463 0.28 0.066 0.344-0.272 0.462-0.443 0.122 0.173 0.206 0.504 0.479 0.443 0.253 0.014 0.306-0.28 0.409-0.446 0.107 0.179 0.179 0.473 0.443 0.448 0.263 0.020 0.335-0.272 0.443-0.45 0.113 0.157 0.158 0.467 0.406 0.449 0.287 0.064 0.361-0.258 0.479-0.445 0.108 0.175 0.196 0.509 0.469 0.444 0.248 0.011 0.3-0.283 0.408-0.445 0.113 0.17 0.176 0.464 0.433 0.449 0.412 0 0.452-0.53 0.498-0.835-0.056-0.068-0.11-0.138-0.164-0.209 0.048-0.164 0.143-0.496 0.191-0.66-0.269 0.258-0.65 0.288-0.94 0.058-0.281 0.191-0.587 0.16-0.89 0.046-0.306 0.11-0.619 0.158-0.899-0.046-0.269 0.2-0.596 0.199-0.865 0.001-0.283 0.191-0.614 0.209-0.893-0.001-0.275 0.21-0.605 0.186-0.889 0.008-0.223 0.103-0.509 0.26-0.731 0.065-0.192-0.103-0.184-0.328-0.194-0.514 0.154 0.145 0.228 0.508 0.504 0.466 0.25 0.017 0.325-0.254 0.42-0.426 0.113 0.163 0.18 0.433 0.424 0.426 0.265 0.055 0.338-0.256 0.454-0.419 0.137 0.169 0.224 0.464 0.494 0.42 0.25-0.006 0.301-0.294 0.415-0.463 0.085 0.197 0.158 0.486 0.433 0.464 0.251 0.024 0.326-0.265 0.427-0.43 0.118 0.156 0.178 0.43 0.415 0.428 0.284 0.055 0.355-0.254 0.48-0.436 0.116 0.17 0.203 0.488 0.47 0.432 0.236 0.005 0.301-0.265 0.416-0.421 0.108 0.169 0.175 0.44 0.43 0.428 0.307 0 0.439-0.356 0.454-0.613 0.014-1.884-0.006-3.768 0.010-5.652 0.012-0.148-0.010-0.293-0.058-0.432-0.827 0.47-1.685 0.884-2.527 1.327-0.28-0.268-0.672-0.538-1.072-0.343-0.452 0.16-0.562 0.694-0.445 1.114-0.312 0.156-0.622 0.317-0.93 0.482-0.281-0.379-0.168-0.836-0.106-1.266 0.391-0.337 0.775-0.684 1.166-1.022 0.653-0.554 0.989-1.384 1.588-1.982 0.788-0.444 1.602-0.848 2.414-1.247 0.451 0.028 0.87 0.27 1.307 0.391M13.853 7.346c-0.66 0.295-1.291 0.654-1.937 0.978-0.643 0.28-0.908 0.982-1.349 1.48 1.421-0.727 2.834-1.466 4.255-2.195-0.323-0.085-0.635-0.242-0.97-0.263z"></path>
<path fill="#030303" d="M15.133 8.528c0.425-0.262 1.067 0.091 1.034 0.6 0.040 0.551-0.702 0.943-1.118 0.563-0.426-0.264-0.366-0.958 0.084-1.163M15.299 8.71c-0.284 0.089-0.383 0.463-0.22 0.698 0.174 0.317 0.72 0.253 0.817-0.098 0.182-0.341-0.259-0.769-0.598-0.6z"></path>
<path fill="#030303" d="M10.219 11.068c0.478-0.186 1.026 0.302 0.899 0.798-0.065 0.487-0.724 0.731-1.097 0.416-0.452-0.296-0.312-1.067 0.198-1.214M10.223 11.303c-0.276 0.143-0.361 0.575-0.092 0.767 0.23 0.234 0.654 0.107 0.743-0.199 0.143-0.371-0.292-0.758-0.65-0.568z"></path>
<path fill="#030303" d="M7.744 17.555c-0.206-0.106-0.191-0.343-0.206-0.541 0.144 0.185 0.228 0.488 0.504 0.511 0.274-0.034 0.343-0.323 0.449-0.527 0.043 0.142 0.086 0.283 0.127 0.426 0.125 0.036 0.251 0.067 0.378 0.094 0.216-0.078 0.246-0.328 0.343-0.503 0.115 0.175 0.17 0.428 0.389 0.502 0.122-0.025 0.242-0.056 0.362-0.092 0.041-0.144 0.085-0.284 0.13-0.427 0.106 0.215 0.182 0.498 0.462 0.535 0.25-0.044 0.34-0.288 0.44-0.486 0.102 0.179 0.164 0.432 0.398 0.478 0.284 0.022 0.374-0.277 0.484-0.479 0.1 0.172 0.161 0.408 0.377 0.469 0.122-0.026 0.245-0.058 0.365-0.094 0.032-0.131 0.066-0.262 0.1-0.391 0.108 0.157 0.218 0.314 0.338 0.463 0.169 0.011 0.34 0.047 0.478 0.149-0.277 0.038-0.544-0.007-0.767-0.176-0.275 0.224-0.608 0.232-0.883 0.007-0.284 0.221-0.625 0.226-0.904-0.008-0.26 0.244-0.571 0.194-0.858 0.037-0.304 0.154-0.628 0.209-0.896-0.042-0.271 0.24-0.612 0.238-0.889 0.007-0.215 0.13-0.494 0.307-0.72 0.089z"></path>
</svg>
