<?xml version="1.0" encoding="utf-8"?>
<!-- Generated by IcoMoon.io -->
<!DOCTYPE svg PUBLIC "-//W3C//DTD SVG 1.1//EN" "http://www.w3.org/Graphics/SVG/1.1/DTD/svg11.dtd">
<svg version="1.1" xmlns="http://www.w3.org/2000/svg" xmlns:xlink="http://www.w3.org/1999/xlink" width="24" height="24" viewBox="0 0 24 24">
<path fill="#cd1e00" d="M11.216 1.987c0.142-0.253 0.366-0.481 0.667-0.52 0.38-0.070 0.74 0.175 0.91 0.504 3.538 6.142 7.072 12.286 10.608 18.427 0.212 0.367 0.442 0.726 0.599 1.122v0.31c-0.13 0.634-0.836 0.754-1.385 0.73h-20.712c-0.539-0.131-1.28 0.151-1.687-0.341-0.29-0.317-0.226-0.791 0-1.123 3.668-6.368 7.333-12.739 11-19.109M4.258 19.129c-0.162 0.289-0.325 0.578-0.518 0.85 5.504 0.011 11.009 0.004 16.514 0.004-2.748-4.769-5.492-9.54-8.243-14.306-2.59 4.482-5.167 8.97-7.753 13.453z"></path>
<path fill="#fff" d="M4.258 19.129c2.586-4.483 5.164-8.971 7.753-13.453 2.75 4.766 5.495 9.538 8.243 14.306-5.506 0-11.010 0.007-16.514-0.004 0.193-0.271 0.356-0.56 0.518-0.85M10.823 10.684c-0.313 0.079-0.534 0.403-0.498 0.724 0.062 0.51 0.449 0.986 0.954 1.11 0.43 0.090 0.826-0.343 0.719-0.764-0.065-0.556-0.552-1.214-1.175-1.069M8.368 13.080c-0.016 0.223 0.229 0.284 0.396 0.33 0.648 0.884 1.181 1.855 1.879 2.7l-0.12-0.041c-0.095 0.754-0.042 1.519-0.041 2.276 0.002 0.42 0.649 0.51 0.781 0.118 0.073-0.558 0.013-1.126 0.029-1.686 0.628-0.444 1.262-0.878 1.889-1.324 0.344 0.515 0.689 1.028 1.036 1.541 0.097 0.139 0.22 0.308 0.414 0.289 0.686 0.006 1.374 0.014 2.060-0.005 0.444 0.008 0.508-0.722 0.067-0.791-0.556-0.058-1.117-0.008-1.674-0.024-0.691-1.026-1.381-2.053-2.071-3.080 0.275 0 0.551 0 0.827 0.001 0.325 0.456 0.606 0.944 0.949 1.387 0.209 0.175 0.475 0.019 0.578-0.191 0.416-0.011 0.832 0 1.247-0.011-0.038-0.055-0.116-0.164-0.155-0.218-0.382-0.042-0.768-0.005-1.152-0.014-0.343-0.497-0.661-1.013-1.024-1.495-0.107-0.157-0.312-0.128-0.474-0.139-1.688 0.005-3.377-0.007-5.064 0.006-0.203-0.026-0.426 0.156-0.378 0.371M15.472 18.943c-0.208 0.229-0.53 0.15-0.803 0.175-0.101 0.152-0.065 0.256 0.107 0.311 0.36 0.148 0.788 0.031 1.045-0.254 0.718-0.74 1.435-1.481 2.159-2.214-0.053-0.091-0.158-0.275-0.211-0.366-0.77 0.778-1.523 1.573-2.297 2.348M8.172 18.713c0.079 0.431 0.494 0.762 0.934 0.733 1.488 0.006 2.975 0 4.463 0.002 0-0.158 0-0.316 0-0.473-1.525-0.002-3.050 0.005-4.574-0.002-0.346 0.019-0.512-0.319-0.643-0.578-0.22-0.088-0.216 0.174-0.179 0.318z"></path>
<path fill="#fff" d="M9.044 13.384c0.694 0.001 1.387 0 2.082 0.001 0.349 0.512 0.691 1.031 1.036 1.547-0.462 0.33-0.96 0.617-1.381 1.001-0.606-0.832-1.157-1.7-1.736-2.549z"></path>
<path fill="#000" d="M10.823 10.684c0.623-0.145 1.11 0.514 1.175 1.069 0.107 0.421-0.289 0.854-0.719 0.764-0.505-0.124-0.892-0.6-0.954-1.11-0.036-0.32 0.185-0.644 0.498-0.724z"></path>
<path fill="#000" d="M8.368 13.080c-0.048-0.215 0.175-0.397 0.378-0.371 1.687-0.013 3.376-0.001 5.064-0.006 0.162 0.011 0.367-0.018 0.474 0.139 0.362 0.482 0.68 0.998 1.024 1.495 0.384 0.010 0.77-0.028 1.152 0.014 0.038 0.054 0.116 0.163 0.155 0.218-0.415 0.011-0.83 0-1.247 0.011-0.103 0.21-0.37 0.366-0.578 0.191-0.343-0.443-0.624-0.931-0.949-1.387-0.276-0.001-0.552-0.001-0.827-0.001 0.69 1.027 1.38 2.054 2.071 3.080 0.557 0.016 1.118-0.034 1.674 0.024 0.44 0.068 0.377 0.799-0.067 0.791-0.686 0.019-1.374 0.011-2.060 0.005-0.194 0.019-0.317-0.15-0.414-0.289-0.347-0.512-0.691-1.026-1.036-1.541-0.626 0.445-1.261 0.88-1.889 1.324-0.016 0.56 0.044 1.128-0.029 1.686-0.132 0.392-0.779 0.302-0.781-0.118-0.001-0.757-0.054-1.523 0.041-2.276l0.12 0.041c-0.698-0.845-1.231-1.816-1.879-2.7-0.167-0.046-0.412-0.107-0.396-0.33M9.044 13.384c0.58 0.848 1.13 1.717 1.736 2.549 0.421-0.384 0.919-0.671 1.381-1.001-0.344-0.516-0.686-1.034-1.036-1.547-0.695-0.001-1.388 0-2.082-0.001z"></path>
<path fill="#000" d="M15.472 18.943c0.774-0.775 1.526-1.571 2.297-2.348 0.053 0.091 0.158 0.275 0.211 0.366-0.724 0.733-1.441 1.474-2.159 2.214-0.257 0.286-0.685 0.402-1.045 0.254-0.172-0.055-0.208-0.158-0.107-0.311 0.272-0.025 0.595 0.054 0.803-0.175z"></path>
<path fill="#000" d="M8.172 18.713c-0.037-0.144-0.041-0.406 0.179-0.318 0.131 0.259 0.298 0.598 0.643 0.578 1.524 0.007 3.049 0 4.574 0.002 0 0.157 0 0.314 0 0.473-1.488-0.002-2.975 0.004-4.463-0.002-0.439 0.029-0.854-0.302-0.934-0.733z"></path>
</svg>
