<!-- Generated by IcoMoon.io -->
<svg version="1.1" xmlns="http://www.w3.org/2000/svg" width="24" height="24" viewBox="0 0 24 24">
<title>warning--atv-crossing--g1</title>
<path fill="#ffd033" d="M11.752 0h0.467c0.511 0.167 0.852 0.597 1.221 0.961 3.381 3.385 6.768 6.764 10.147 10.152 0.482 0.437 0.509 1.251 0.034 1.702-3.579 3.591-7.17 7.171-10.752 10.758-0.448 0.51-1.3 0.52-1.755 0.014-3.363-3.369-6.732-6.735-10.098-10.102-0.375-0.383-0.82-0.73-1.016-1.247v-0.474c0.157-0.512 0.586-0.851 0.947-1.217 3.184-3.183 6.367-6.367 9.55-9.551 0.383-0.371 0.726-0.825 1.255-0.996M11.841 0.345c-0.251 0.031-0.455 0.195-0.63 0.366-3.515 3.518-7.035 7.032-10.549 10.551-0.408 0.355-0.443 1.036-0.031 1.402 3.548 3.554 7.102 7.102 10.649 10.658 0.345 0.395 1.010 0.422 1.372 0.035 3.566-3.568 7.137-7.133 10.699-10.705 0.394-0.361 0.365-1.022-0.027-1.374-3.51-3.524-7.038-7.030-10.549-10.553-0.236-0.256-0.576-0.448-0.934-0.38z"></path>
<path fill="#ffd033" d="M11.824 0.832c0.266-0.115 0.497 0.101 0.67 0.274 3.494 3.507 7.004 6.997 10.493 10.507 0.208 0.177 0.251 0.513 0.035 0.703-3.527 3.542-7.072 7.066-10.6 10.607-0.192 0.263-0.589 0.342-0.806 0.061-3.534-3.533-7.069-7.066-10.605-10.598-0.259-0.196-0.271-0.584-0.015-0.789 3.494-3.506 7.003-6.999 10.497-10.506 0.102-0.096 0.203-0.197 0.331-0.259M11.338 5.347c-0.573 0.256-0.593 1.269-0.026 1.529 0.458 0.001 1.085-0.178 1.141-0.719 0.115-0.591-0.586-1.101-1.115-0.81M9.909 8.21c-0.75 0.122-1.504 0.191-2.266 0.166 0.024 0.349 0.291 0.588 0.632 0.616-0.010 0.134-0.019 0.268-0.029 0.402-0.352 0.031-0.705 0.050-1.055 0.098-0.024 0.417 0.142 0.803 0.422 1.105-0.143 0.212-0.286 0.424-0.426 0.638-0.969-0.238-2.023-0.114-2.898 0.367 0.262 0.381 0.868 0.337 1.27 0.547 0.638 0.316 1.313-0.030 1.958-0.132 0.001 0.067 0.001 0.2 0.001 0.267-0.308 0.064-0.616 0.132-0.924 0.199-0.756 0.231-1.462-0.345-2.209-0.326-0.046 0.066-0.14 0.199-0.186 0.266 0.762 0.29 1.618 0.788 2.434 0.411 0.914-0.281 1.968-0.376 2.837 0.097 0.597 0.317 1.005 0.882 1.314 1.467 0.594-0.238 1.318-0.249 1.914-0.019 0.408-0.194 0.823-0.070 1.105 0.268 0.063-0.25 0.081-0.507 0.085-0.764-0.303-0.003-0.605-0.001-0.908-0.009 0.066-0.541 0.704-0.633 0.883-1.113 0.674-1.201 2.176-1.846 3.496-1.368-0.034-0.329-0.086-0.655-0.172-0.974-0.346-0.108-0.693-0.211-1.040-0.314-0.161 0.302-0.405 0.553-0.741 0.653-0.23-0.314-0.402-0.742-0.814-0.852-0.424-0.098-0.858 0.026-1.282 0.064-0.037-0.287-0.087-0.582-0.003-0.865 0.187-0.598-0.045-1.244-0.365-1.753-0.418-0.546-1.178-0.224-1.75-0.223-0.659-0.032-0.892 0.685-1.283 1.081M16.465 11.964c-0.017 0.080-0.052 0.24-0.069 0.32-0.051-0.064-0.151-0.191-0.202-0.255-0.038 0.088-0.077 0.177-0.115 0.265-0.042-0.057-0.125-0.171-0.166-0.228-0.003 0.068-0.010 0.203-0.014 0.27-0.053-0.040-0.16-0.12-0.213-0.16 0.003 0.084 0.010 0.252 0.013 0.337-0.071-0.079-0.142-0.157-0.213-0.234 0.004 0.082 0.011 0.248 0.015 0.33-0.087-0.045-0.174-0.090-0.261-0.135 0.016 0.066 0.047 0.196 0.062 0.261-0.052-0.009-0.156-0.026-0.208-0.034 0.012 0.039 0.038 0.119 0.050 0.159-0.11 0.055-0.219 0.111-0.328 0.166 0.020 0.044 0.061 0.131 0.081 0.174-0.050 0-0.151-0.001-0.201-0.001 0.026 0.049 0.078 0.148 0.104 0.198-0.049 0.001-0.147 0.005-0.196 0.006 0.022 0.047 0.067 0.141 0.089 0.188-0.051 0.012-0.154 0.037-0.205 0.049 0.054 0.026 0.109 0.052 0.164 0.078-0.171 0.19-0.018 0.483-0.209 0.663 0.024 0.012 0.073 0.037 0.098 0.049 0.016 0.098 0.034 0.196 0.053 0.294-0.022 0.040-0.065 0.12-0.087 0.16 0.045 0.006 0.137 0.017 0.182 0.023-0.022 0.045-0.066 0.136-0.088 0.181 0.054-0.001 0.16-0.003 0.213-0.004-0.042 0.091-0.085 0.183-0.127 0.274 0.103-0.020 0.206-0.039 0.309-0.059-0.066 0.096-0.131 0.192-0.197 0.288 0.075-0.020 0.225-0.061 0.3-0.081-0.027 0.075-0.081 0.226-0.107 0.302 0.091-0.042 0.183-0.083 0.275-0.124-0.015 0.040-0.045 0.121-0.060 0.161 0.088 0.062 0.174 0.127 0.258 0.195 0.034-0.012 0.101-0.036 0.134-0.049 0 0.054 0.001 0.16 0.001 0.214 0.051-0.030 0.154-0.088 0.206-0.117-0.002 0.055-0.006 0.166-0.007 0.221 0.057-0.035 0.171-0.105 0.229-0.14 0.003 0.059 0.009 0.177 0.012 0.236 0.076-0.070 0.151-0.139 0.227-0.209 0.021 0.102 0.043 0.204 0.066 0.306 0.037-0.065 0.111-0.194 0.149-0.258 0.010 0.067 0.031 0.2 0.041 0.267 0.056-0.083 0.112-0.166 0.167-0.25 0.012 0.058 0.036 0.173 0.048 0.231 0.023-0.040 0.069-0.119 0.091-0.158 0.154 0.007 0.308 0.014 0.461 0.024 0.011-0.045 0.032-0.136 0.043-0.181 0.048 0.070 0.096 0.14 0.145 0.21 0.001-0.070 0.003-0.212 0.004-0.282 0.044 0.031 0.133 0.093 0.178 0.124 0.050-0.082 0.099-0.165 0.15-0.246 0.166-0.069 0.293-0.197 0.425-0.314 0.095-0.154 0.206-0.298 0.324-0.435-0.016-0.034-0.049-0.101-0.065-0.134 0.052 0 0.157 0.002 0.209 0.002-0.029-0.054-0.087-0.162-0.116-0.216 0.053-0.005 0.158-0.014 0.211-0.018-0.064-0.067-0.128-0.133-0.192-0.2 0.046-0.018 0.136-0.052 0.182-0.070-0.024-0.047-0.072-0.142-0.096-0.189 0.058-0.009 0.175-0.028 0.233-0.037-0.057-0.030-0.171-0.090-0.228-0.12 0.064-0.063 0.128-0.126 0.192-0.189-0.056-0.014-0.167-0.043-0.222-0.057 0.081-0.066 0.163-0.131 0.245-0.197-0.083-0.003-0.248-0.009-0.331-0.012 0.075-0.067 0.15-0.133 0.225-0.2-0.069-0.016-0.209-0.047-0.278-0.063 0.049-0.058 0.149-0.174 0.199-0.232-0.069 0.007-0.207 0.021-0.276 0.028 0.040-0.060 0.121-0.179 0.162-0.239-0.081 0.008-0.243 0.023-0.324 0.031 0.034-0.067 0.104-0.202 0.139-0.27-0.076 0.013-0.227 0.038-0.303 0.051 0.034-0.101 0.068-0.202 0.103-0.304-0.101 0.040-0.201 0.079-0.302 0.119 0.029-0.098 0.059-0.196 0.088-0.293-0.058 0.025-0.175 0.074-0.233 0.099-0.077-0.105-0.153-0.211-0.227-0.318-0.041 0.043-0.123 0.129-0.164 0.172 0.003-0.078 0.009-0.233 0.011-0.31-0.081 0.086-0.161 0.174-0.242 0.261-0.015-0.076-0.043-0.227-0.058-0.302-0.048 0.053-0.143 0.16-0.191 0.214-0.045-0.094-0.089-0.188-0.134-0.281-0.024 0.070-0.072 0.209-0.096 0.279-0.072-0.092-0.143-0.184-0.215-0.275M4.422 13.276c-0.055 0.947 0.744 1.713 1.674 1.69-0.002-0.228-0.004-0.456-0.007-0.683-0.517-0.069-0.796-0.539-0.749-1.034-0.306 0.009-0.612 0.013-0.918 0.027M7.437 13.573c-0.835 0.327-1.338 1.35-0.959 2.19 0.399 1.152 2.151 1.348 2.851 0.38 0.189-0.355 0.31-0.76 0.31-1.163-0.122-0.99-1.229-1.807-2.202-1.407z"></path>
<path fill="#ffd033" d="M10.995 5.783c0.466-0.198 1.204-0.080 0.979 0.588-0.333-0.103-0.689-0.175-0.998 0.039 0.004-0.209 0.011-0.418 0.019-0.627z"></path>
<path fill="#ffd033" d="M8.636 8.643c0.664 0.089 1.322-0.017 1.965-0.174 0.002 0.083 0.007 0.249 0.009 0.332-0.406 0.085-0.813 0.199-1.233 0.154-0.177 0.201-0.333 0.419-0.472 0.649-0.134-0.005-0.267-0.009-0.4-0.013 0.063-0.313 0.115-0.629 0.131-0.948z"></path>
<path fill="#ffd033" d="M9.362 9.356c0.449 0.004 0.897-0.013 1.345-0.043 0.187 0.677-0.587 0.393-0.942 0.653-0.284 0.141-0.512 0.515-0.868 0.358 0.107-0.344 0.261-0.671 0.465-0.968z"></path>
<path fill="#ffd033" d="M15.989 10.698c-0.006-0.606 0.737-0.26 1.063-0.145 0.006 0.156 0.013 0.313 0.020 0.47-0.374-0.036-0.789-0.063-1.083-0.325z"></path>
<path fill="#ffd033" d="M4.936 11.672c0.804-0.313 1.702-0.316 2.499 0.021-0.797 0.37-1.716 0.407-2.499-0.021z"></path>
<path fill="#ffd033" d="M9.824 12.494c0.584-0.117 0.828 0.482 1.117 0.862 0.182 0.172 0.040 0.451-0.138 0.562-0.346-0.394-0.665-0.818-1.096-1.129 0.040-0.098 0.079-0.196 0.117-0.295z"></path>
<path fill="#ffd033" d="M11.095 12.511c0.51-0.018 1.094-0.158 1.55 0.14 0.37 0.32 0.147 0.837 0.033 1.223-0.052-0.016-0.157-0.048-0.209-0.064-0.021-0.271 0.076-0.613-0.15-0.821-0.365-0.255-0.811-0.099-1.197 0.007-0.010-0.162-0.019-0.324-0.027-0.485z"></path>
<path fill="#ffd033" d="M15.849 14.644c-0.264-0.779 0.607-1.586 1.365-1.27 0.737 0.235 0.926 1.293 0.328 1.782 0.052-0.202 0.112-0.401 0.16-0.604-0.244 0.128-0.4 0.355-0.535 0.587 0.098 0.006 0.294 0.019 0.392 0.025-0.567 0.47-1.529 0.212-1.71-0.52z"></path>
<path fill="#ffd033" d="M7.937 14.452c0.561-0.183 1.16 0.396 1 0.961-0.109 0.592-0.934 0.836-1.345 0.395-0.448-0.398-0.235-1.219 0.345-1.356z"></path>
<path fill="#000" d="M11.841 0.345c0.358-0.068 0.698 0.124 0.934 0.38 3.511 3.523 7.039 7.029 10.549 10.553 0.392 0.352 0.421 1.013 0.027 1.374-3.562 3.572-7.133 7.137-10.699 10.705-0.362 0.387-1.027 0.36-1.372-0.035-3.547-3.556-7.101-7.104-10.649-10.658-0.412-0.366-0.377-1.047 0.031-1.402 3.514-3.519 7.034-7.033 10.549-10.551 0.175-0.171 0.379-0.335 0.63-0.366M11.824 0.832c-0.128 0.062-0.229 0.163-0.331 0.259-3.494 3.507-7.003 7-10.497 10.506-0.256 0.205-0.244 0.593 0.015 0.789 3.536 3.532 7.071 7.065 10.605 10.598 0.217 0.281 0.614 0.202 0.806-0.061 3.528-3.541 7.073-7.065 10.6-10.607 0.216-0.19 0.173-0.526-0.035-0.703-3.489-3.51-6.999-7-10.493-10.507-0.173-0.173-0.404-0.389-0.67-0.274z"></path>
<path fill="#000" d="M11.338 5.347c0.529-0.291 1.23 0.219 1.115 0.81-0.056 0.541-0.683 0.72-1.141 0.719-0.567-0.26-0.547-1.273 0.026-1.529M10.995 5.783c-0.008 0.209-0.015 0.418-0.019 0.627 0.309-0.214 0.665-0.142 0.998-0.039 0.225-0.668-0.513-0.786-0.979-0.588z"></path>
<path fill="#000" d="M9.909 8.21c0.391-0.396 0.624-1.113 1.283-1.081 0.572-0.001 1.332-0.323 1.75 0.223 0.32 0.509 0.552 1.155 0.365 1.753-0.084 0.283-0.034 0.578 0.003 0.865 0.424-0.038 0.858-0.162 1.282-0.064 0.412 0.11 0.584 0.538 0.814 0.852 0.336-0.1 0.58-0.351 0.741-0.653 0.347 0.103 0.694 0.206 1.040 0.314 0.086 0.319 0.138 0.645 0.172 0.974-1.32-0.478-2.822 0.167-3.496 1.368-0.179 0.48-0.817 0.572-0.883 1.113 0.303 0.008 0.605 0.006 0.908 0.009-0.004 0.257-0.022 0.514-0.085 0.764-0.282-0.338-0.697-0.462-1.105-0.268-0.596-0.23-1.32-0.219-1.914 0.019-0.309-0.585-0.717-1.15-1.314-1.467-0.869-0.473-1.923-0.378-2.837-0.097-0.816 0.377-1.672-0.121-2.434-0.411 0.046-0.067 0.14-0.2 0.186-0.266 0.747-0.019 1.453 0.557 2.209 0.326 0.308-0.067 0.616-0.135 0.924-0.199 0-0.067 0-0.2-0.001-0.267-0.645 0.102-1.32 0.448-1.958 0.132-0.402-0.21-1.008-0.166-1.27-0.547 0.875-0.481 1.929-0.605 2.898-0.367 0.14-0.214 0.283-0.426 0.426-0.638-0.28-0.302-0.446-0.688-0.422-1.105 0.35-0.048 0.703-0.067 1.055-0.098 0.010-0.134 0.019-0.268 0.029-0.402-0.341-0.028-0.608-0.267-0.632-0.616 0.762 0.025 1.516-0.044 2.266-0.166M8.636 8.643c-0.016 0.319-0.068 0.635-0.131 0.948 0.133 0.004 0.266 0.008 0.4 0.013 0.139-0.23 0.295-0.448 0.472-0.649 0.42 0.045 0.827-0.069 1.233-0.154-0.002-0.083-0.007-0.249-0.009-0.332-0.643 0.157-1.301 0.263-1.965 0.174M9.362 9.356c-0.204 0.297-0.358 0.624-0.465 0.968 0.356 0.157 0.584-0.217 0.868-0.358 0.355-0.26 1.129 0.024 0.942-0.653-0.448 0.030-0.896 0.047-1.345 0.043M15.989 10.698c0.294 0.262 0.709 0.289 1.083 0.325-0.007-0.157-0.014-0.314-0.020-0.47-0.326-0.115-1.069-0.461-1.063 0.145M4.936 11.672c0.783 0.428 1.702 0.391 2.499 0.021-0.797-0.337-1.695-0.334-2.499-0.021M9.824 12.494c-0.038 0.099-0.077 0.197-0.117 0.295 0.431 0.311 0.75 0.735 1.096 1.129 0.178-0.111 0.32-0.39 0.138-0.562-0.289-0.38-0.533-0.979-1.117-0.862M11.095 12.511c0.008 0.161 0.017 0.323 0.027 0.485 0.386-0.106 0.832-0.262 1.197-0.007 0.226 0.208 0.129 0.55 0.15 0.821 0.052 0.016 0.157 0.048 0.209 0.064 0.114-0.386 0.337-0.903-0.033-1.223-0.456-0.298-1.040-0.158-1.55-0.14z"></path>
<path fill="#000" d="M16.465 11.964c0.072 0.091 0.143 0.183 0.215 0.275 0.024-0.070 0.072-0.209 0.096-0.279 0.045 0.093 0.089 0.187 0.134 0.281 0.048-0.054 0.143-0.161 0.191-0.214 0.015 0.075 0.043 0.226 0.058 0.302 0.081-0.087 0.161-0.175 0.242-0.261-0.002 0.077-0.008 0.232-0.011 0.31 0.041-0.043 0.123-0.129 0.164-0.172 0.074 0.107 0.15 0.213 0.227 0.318 0.058-0.025 0.175-0.074 0.233-0.099-0.029 0.097-0.059 0.195-0.088 0.293 0.101-0.040 0.201-0.079 0.302-0.119-0.035 0.102-0.069 0.203-0.103 0.304 0.076-0.013 0.227-0.038 0.303-0.051-0.035 0.068-0.105 0.203-0.139 0.27 0.081-0.008 0.243-0.023 0.324-0.031-0.041 0.060-0.122 0.179-0.162 0.239 0.069-0.007 0.207-0.021 0.276-0.028-0.050 0.058-0.15 0.174-0.199 0.232 0.069 0.016 0.209 0.047 0.278 0.063-0.075 0.067-0.15 0.133-0.225 0.2 0.083 0.003 0.248 0.009 0.331 0.012-0.082 0.066-0.164 0.131-0.245 0.197 0.055 0.014 0.166 0.043 0.222 0.057-0.064 0.063-0.128 0.126-0.192 0.189 0.057 0.030 0.171 0.090 0.228 0.12-0.058 0.009-0.175 0.028-0.233 0.037 0.024 0.047 0.072 0.142 0.096 0.189-0.046 0.018-0.136 0.052-0.182 0.070 0.064 0.067 0.128 0.133 0.192 0.2-0.053 0.004-0.158 0.013-0.211 0.018 0.029 0.054 0.087 0.162 0.116 0.216-0.052 0-0.157-0.002-0.209-0.002 0.016 0.033 0.049 0.1 0.065 0.134-0.118 0.137-0.229 0.281-0.324 0.435-0.132 0.117-0.259 0.245-0.425 0.314-0.051 0.081-0.1 0.164-0.15 0.246-0.045-0.031-0.134-0.093-0.178-0.124-0.001 0.070-0.003 0.212-0.004 0.282-0.049-0.070-0.097-0.14-0.145-0.21-0.011 0.045-0.032 0.136-0.043 0.181-0.153-0.010-0.307-0.017-0.461-0.024-0.022 0.039-0.068 0.118-0.091 0.158-0.012-0.058-0.036-0.173-0.048-0.231-0.055 0.084-0.111 0.167-0.167 0.25-0.010-0.067-0.031-0.2-0.041-0.267-0.038 0.064-0.112 0.193-0.149 0.258-0.023-0.102-0.045-0.204-0.066-0.306-0.076 0.070-0.151 0.139-0.227 0.209-0.003-0.059-0.009-0.177-0.012-0.236-0.058 0.035-0.172 0.105-0.229 0.14 0.001-0.055 0.005-0.166 0.007-0.221-0.052 0.029-0.155 0.087-0.206 0.117 0-0.054-0.001-0.16-0.001-0.214-0.033 0.013-0.1 0.037-0.134 0.049-0.084-0.068-0.17-0.133-0.258-0.195 0.015-0.040 0.045-0.121 0.060-0.161-0.092 0.041-0.184 0.082-0.275 0.124 0.026-0.076 0.080-0.227 0.107-0.302-0.075 0.020-0.225 0.061-0.3 0.081 0.066-0.096 0.131-0.192 0.197-0.288-0.103 0.020-0.206 0.039-0.309 0.059 0.042-0.091 0.085-0.183 0.127-0.274-0.053 0.001-0.159 0.003-0.213 0.004 0.022-0.045 0.066-0.136 0.088-0.181-0.045-0.006-0.137-0.017-0.182-0.023 0.022-0.040 0.065-0.12 0.087-0.16-0.019-0.098-0.037-0.196-0.053-0.294-0.025-0.012-0.074-0.037-0.098-0.049 0.191-0.18 0.038-0.473 0.209-0.663-0.055-0.026-0.11-0.052-0.164-0.078 0.051-0.012 0.154-0.037 0.205-0.049-0.022-0.047-0.067-0.141-0.089-0.188 0.049-0.001 0.147-0.005 0.196-0.006-0.026-0.050-0.078-0.149-0.104-0.198 0.050 0 0.151 0.001 0.201 0.001-0.020-0.043-0.061-0.13-0.081-0.174 0.109-0.055 0.218-0.111 0.328-0.166-0.012-0.040-0.038-0.12-0.050-0.159 0.052 0.008 0.156 0.025 0.208 0.034-0.015-0.065-0.046-0.195-0.062-0.261 0.087 0.045 0.174 0.090 0.261 0.135-0.004-0.082-0.011-0.248-0.015-0.33 0.071 0.077 0.142 0.155 0.213 0.234-0.003-0.085-0.010-0.253-0.013-0.337 0.053 0.040 0.16 0.12 0.213 0.16 0.004-0.067 0.011-0.202 0.014-0.27 0.041 0.057 0.124 0.171 0.166 0.228 0.038-0.088 0.077-0.177 0.115-0.265 0.051 0.064 0.151 0.191 0.202 0.255 0.017-0.080 0.052-0.24 0.069-0.32M15.849 14.644c0.181 0.732 1.143 0.99 1.71 0.52-0.098-0.006-0.294-0.019-0.392-0.025 0.135-0.232 0.291-0.459 0.535-0.587-0.048 0.203-0.108 0.402-0.16 0.604 0.598-0.489 0.409-1.547-0.328-1.782-0.758-0.316-1.629 0.491-1.365 1.27z"></path>
<path fill="#000" d="M4.422 13.276c0.306-0.014 0.612-0.018 0.918-0.027-0.047 0.495 0.232 0.965 0.749 1.034 0.003 0.227 0.005 0.455 0.007 0.683-0.93 0.023-1.729-0.743-1.674-1.69z"></path>
<path fill="#000" d="M7.437 13.573c0.973-0.4 2.080 0.417 2.202 1.407 0 0.403-0.121 0.808-0.31 1.163-0.7 0.968-2.452 0.772-2.851-0.38-0.379-0.84 0.124-1.863 0.959-2.19M7.937 14.452c-0.58 0.137-0.793 0.958-0.345 1.356 0.411 0.441 1.236 0.197 1.345-0.395 0.16-0.565-0.439-1.144-1-0.961z"></path>
</svg>
