<svg xmlns="http://www.w3.org/2000/svg" width="24" height="24">
    <path fill="#fecf33" d="M11.772 0h.43c.552.151.902.624 1.294 1.003l9.5 9.501c.377.386.829.737 1.004 1.269v.429c-.158.549-.625.902-1.006 1.292a28360.85 28360.85 0 0 1-9.502 9.498c-.387.374-.731.834-1.264 1.008h-.434a1.761 1.761 0 0 1-.685-.406c-3.369-3.365-6.735-6.734-10.103-10.1C.628 13.109.175 12.76 0 12.227v-.434c.148-.524.588-.867.953-1.239 3.184-3.183 6.368-6.366 9.55-9.551.386-.376.735-.833 1.269-1.003zm.07.348c-.248.037-.45.199-.624.369C7.706 4.239 4.185 7.753.67 11.273c-.413.349-.453 1.028-.049 1.4 3.566 3.571 7.135 7.139 10.706 10.705a.935.935 0 0 0 1.346-.001c3.572-3.565 7.14-7.134 10.705-10.704.54-.496.223-1.287-.297-1.654C19.626 7.573 16.18 4.118 12.73.668c-.229-.232-.558-.386-.888-.32z"/>
    <path fill="#fecf33" d="M11.836.836c.231-.114.453.061.61.217 3.515 3.519 7.037 7.033 10.551 10.553a.497.497 0 0 1-.002.784c-3.532 3.537-7.07 7.07-10.603 10.607a.495.495 0 0 1-.785 0C8.06 19.442 4.501 15.898.958 12.339c-.263-.224-.145-.598.093-.787 3.503-3.498 7.004-6.998 10.503-10.5.087-.08.176-.16.282-.216zM7.653 8.573l-.352-.205c-.552.312-1.074.681-1.59 1.049-.249.159-.137.478-.129.717-.24-.05-.478-.108-.718-.157-.053.236-.11.472-.164.708.709.152 1.421.294 2.124.471.199.395.408.786.611 1.18.237-.067.477-.12.718-.174-.05-.254-.11-.504-.162-.757 2.626.564 5.249 1.139 7.876 1.699-.155.21-.313.417-.468.626.193.148.385.298.575.451.353-.249.672-.549 1.045-.77.724.049 1.424.3 2.137.434.049-.243.099-.486.151-.729-.242-.052-.487-.093-.73-.139.119-.222.367-.481.185-.738-.306-.55-.657-1.074-.977-1.616-.749.019-1.358.494-1.904.953-.07.25-.084.511-.149.762-2.433-.521-4.863-1.059-7.297-1.575.057-.256.132-.507.19-.762-.196-.455-.487-.864-.758-1.277.292-.018.652-.052.782-.364.252-.455-.251-1.036-.738-.854-.459.132-.535.721-.258 1.067zm9.386.877c-.418.104-.587.682-.287.993.293.37.956.211 1.055-.248.139-.441-.334-.895-.768-.745zm-5.764 3.534c.005.799 0 1.597.003 2.396h1.469c.003-.8-.001-1.599.003-2.399a26.202 26.202 0 0 0-.746-.665c-.248.217-.491.441-.729.668z"/>
    <path fill="#fecf33" d="M7.192 9.887c.164-.171.327-.342.489-.515.365.372.745.805.528 1.365-.494-.052-.732-.509-1.017-.85zM15.951 12.408c.037-.597.568-.823 1.05-1.015.073.227.147.454.223.68-.401.187-.808.504-1.273.335z"/>
    <path d="M11.842.348c.33-.066.659.088.888.32 3.45 3.45 6.896 6.905 10.351 10.351.52.367.837 1.158.297 1.654-3.565 3.57-7.133 7.139-10.705 10.704a.935.935 0 0 1-1.346.001C7.756 19.812 4.187 16.244.621 12.673c-.404-.372-.364-1.051.049-1.4C4.185 7.753 7.706 4.239 11.218.717c.174-.17.376-.332.624-.369zm-.006.488a1.38 1.38 0 0 0-.282.216c-3.499 3.502-7 7.002-10.503 10.5-.238.189-.356.563-.093.787 3.543 3.559 7.102 7.103 10.649 10.658a.495.495 0 0 0 .785 0c3.533-3.537 7.071-7.07 10.603-10.607a.497.497 0 0 0 .002-.784c-3.514-3.52-7.036-7.034-10.551-10.553-.157-.156-.379-.331-.61-.217z"/>
    <path d="M7.653 8.573c-.277-.346-.201-.935.258-1.067.487-.182.99.399.738.854-.13.312-.49.346-.782.364.271.413.562.822.758 1.277-.058.255-.133.506-.19.762 2.434.516 4.864 1.054 7.297 1.575.065-.251.079-.512.149-.762.546-.459 1.155-.934 1.904-.953.32.542.671 1.066.977 1.616.182.257-.066.516-.185.738.243.046.488.087.73.139a62.89 62.89 0 0 0-.151.729c-.713-.134-1.413-.385-2.137-.434-.373.221-.692.521-1.045.77-.19-.153-.382-.303-.575-.451.155-.209.313-.416.468-.626-2.627-.56-5.25-1.135-7.876-1.699.052.253.112.503.162.757-.241.054-.481.107-.718.174-.203-.394-.412-.785-.611-1.18-.703-.177-1.415-.319-2.124-.471.054-.236.111-.472.164-.708.24.049.478.107.718.157-.008-.239-.12-.558.129-.717.516-.368 1.038-.737 1.59-1.049l.352.205zm-.461 1.314c.285.341.523.798 1.017.85.217-.56-.163-.993-.528-1.365-.162.173-.325.344-.489.515zm8.759 2.521c.465.169.872-.148 1.273-.335-.076-.226-.15-.453-.223-.68-.482.192-1.013.418-1.05 1.015z"/>
    <path d="M17.039 9.45c.434-.15.907.304.768.745-.099.459-.762.618-1.055.248-.3-.311-.131-.889.287-.993zM11.275 12.984c.238-.227.481-.451.729-.668.253.217.502.439.746.665-.004.8 0 1.599-.003 2.399h-1.469c-.003-.799.002-1.597-.003-2.396z"/>
</svg>
