<!-- Generated by IcoMoon.io -->
<svg version="1.1" xmlns="http://www.w3.org/2000/svg" width="27" height="24" viewBox="0 0 27 24">
<title>warning--low-flying-aircraft--g1</title>
<path fill="#ce252c" d="M13.218 0h0.529c0.695 0.128 1.344 0.534 1.678 1.168 3.734 6.47 7.462 12.943 11.197 19.412 0.177 0.305 0.289 0.642 0.378 0.982v0.407c-0.116 0.721-0.522 1.418-1.189 1.753-0.49 0.276-1.067 0.261-1.611 0.252-7.333-0.003-14.667 0.001-22-0.002-1.087 0.030-2.016-0.851-2.2-1.895v-0.538c0.129-0.663 0.529-1.216 0.852-1.793 3.584-6.215 7.165-12.431 10.754-18.643 0.33-0.599 0.957-0.963 1.612-1.103M13.48 2.888c-3.566 6.186-7.148 12.364-10.698 18.56 7.142 0.009 14.284 0.005 21.427 0.002-3.567-6.192-7.11-12.402-10.729-18.562z"></path>
<path fill="#ffd100" d="M13.48 2.888c3.619 6.16 7.162 12.37 10.729 18.562-7.143 0.003-14.285 0.007-21.427-0.002 3.55-6.196 7.132-12.374 10.698-18.56M10.864 14.285c-0.891 0.111-1.789 0.17-2.679 0.289-0.396 0.172-0.741 0.451-1.075 0.721 0.449 0.293 0.856 0.756 1.428 0.759 0.777 0.079 1.554 0.149 2.33 0.242 1.009 1.331 2.002 2.675 3.019 4.001 0.598-0.008 1.196 0 1.794-0.006-0.527-0.941-1.087-1.864-1.607-2.808-0.055-0.4-0.010-0.807-0.021-1.21 1-0.033 1.994-0.135 2.986-0.257 0.263 0.414 0.507 0.841 0.777 1.251 0.331 0.001 0.663 0.002 0.994-0.004-0.096-0.573-0.227-1.141-0.316-1.715 0.129-0.086 0.258-0.172 0.387-0.258-0.131-0.091-0.262-0.184-0.393-0.275 0.105-0.569 0.221-1.136 0.323-1.705-0.333-0.006-0.665-0.005-0.998-0.002-0.27 0.411-0.514 0.839-0.774 1.256-0.99-0.133-1.986-0.219-2.984-0.256 0.004-0.4-0.027-0.802 0.013-1.201 0.515-0.953 1.084-1.878 1.611-2.825-0.597-0.005-1.195-0.001-1.793-0.002-1.022 1.324-2.014 2.67-3.022 4.005z"></path>
<path fill="#000" d="M10.864 14.285c1.008-1.335 2-2.681 3.022-4.005 0.598 0.001 1.196-0.003 1.793 0.002-0.527 0.947-1.096 1.872-1.611 2.825-0.040 0.399-0.009 0.801-0.013 1.201 0.998 0.037 1.994 0.123 2.984 0.256 0.26-0.417 0.504-0.845 0.774-1.256 0.333-0.003 0.665-0.004 0.998 0.002-0.102 0.569-0.218 1.136-0.323 1.705 0.131 0.091 0.262 0.184 0.393 0.275-0.129 0.086-0.258 0.172-0.387 0.258 0.089 0.574 0.22 1.142 0.316 1.715-0.331 0.006-0.663 0.005-0.994 0.004-0.27-0.41-0.514-0.837-0.777-1.251-0.992 0.122-1.986 0.224-2.986 0.257 0.011 0.403-0.034 0.81 0.021 1.21 0.52 0.944 1.080 1.867 1.607 2.808-0.598 0.006-1.196-0.002-1.794 0.006-1.017-1.326-2.010-2.67-3.019-4.001-0.776-0.093-1.553-0.163-2.33-0.242-0.572-0.003-0.979-0.466-1.428-0.759 0.334-0.27 0.679-0.549 1.075-0.721 0.89-0.119 1.788-0.178 2.679-0.289z"></path>
</svg>
