<!-- Generated by IcoMoon.io -->
<svg version="1.1" xmlns="http://www.w3.org/2000/svg" width="24" height="24" viewBox="0 0 24 24">
<title>warning--double-side-roads-left--g1</title>
<path fill="#fecf33" d="M11.734 0h0.499c0.275 0.103 0.53 0.256 0.734 0.469 3.317 3.324 6.64 6.643 9.959 9.965 0.391 0.402 0.856 0.764 1.074 1.3v0.491c-0.162 0.514-0.599 0.846-0.96 1.216-3.199 3.2-6.4 6.401-9.599 9.601-0.359 0.356-0.691 0.764-1.174 0.959h-0.504c-0.244-0.1-0.48-0.226-0.665-0.415-3.558-3.564-7.12-7.124-10.681-10.685-0.181-0.18-0.31-0.404-0.418-0.635v-0.503c0.169-0.505 0.593-0.844 0.953-1.21 3.181-3.179 6.36-6.36 9.54-9.54 0.382-0.373 0.727-0.814 1.241-1.013M11.675 0.407c-0.221 0.071-0.389 0.24-0.553 0.395-3.479 3.482-6.96 6.962-10.438 10.447-0.43 0.384-0.432 1.118 0.004 1.5 3.524 3.518 7.040 7.044 10.561 10.565 0.384 0.433 1.117 0.433 1.501 0 3.518-3.524 7.040-7.045 10.562-10.565 0.433-0.383 0.43-1.115 0.002-1.501-3.496-3.505-7.001-7.002-10.499-10.506-0.281-0.314-0.732-0.479-1.141-0.335z"></path>
<path fill="#fecf33" d="M11.923 0.892c0.268-0.043 0.497 0.133 0.672 0.313 3.416 3.424 6.841 6.838 10.256 10.261 0.299 0.246 0.361 0.731 0.055 0.998-3.454 3.467-6.92 6.92-10.378 10.385-0.238 0.306-0.731 0.362-0.996 0.059-3.482-3.479-6.964-6.959-10.44-10.444-0.308-0.265-0.246-0.752 0.054-0.997 3.416-3.424 6.84-6.84 10.256-10.262 0.148-0.138 0.307-0.294 0.52-0.313M10.528 3.514c-0.023 1.166 0.026 2.335-0.024 3.502-1.356-0.010-2.711-0.014-4.067 0.001 0.004 0.978-0.002 1.956 0.004 2.934 1.361 0.008 2.72-0.007 4.081 0.007 0.004 1.36-0.001 2.719 0.001 4.079-1.361 0.011-2.722-0.002-4.082 0.006-0.004 0.979-0.005 1.958 0 2.938 1.36 0.010 2.719-0.001 4.079 0.005 0.006 1.159 0.001 2.317 0 3.476 0.979 0.024 1.958 0.005 2.938 0.011 0.017-5.653 0.010-11.305 0.007-16.958-0.979-0.004-1.957-0.002-2.936 0z"></path>
<path fill="#000" d="M11.675 0.407c0.409-0.144 0.86 0.020 1.141 0.335 3.498 3.504 7.003 7.001 10.499 10.506 0.427 0.386 0.431 1.118-0.002 1.501-3.522 3.52-7.044 7.040-10.562 10.565-0.384 0.433-1.117 0.433-1.501 0-3.521-3.521-7.037-7.046-10.561-10.565-0.436-0.382-0.433-1.116-0.004-1.5 3.478-3.485 6.959-6.965 10.438-10.447 0.164-0.155 0.332-0.324 0.553-0.395M11.923 0.892c-0.212 0.019-0.372 0.175-0.52 0.313-3.416 3.422-6.84 6.839-10.256 10.262-0.3 0.245-0.362 0.732-0.054 0.997 3.476 3.485 6.958 6.965 10.44 10.444 0.265 0.304 0.758 0.247 0.996-0.059 3.457-3.464 6.924-6.918 10.378-10.385 0.306-0.268 0.244-0.752-0.055-0.998-3.415-3.424-6.84-6.838-10.256-10.261-0.175-0.18-0.404-0.356-0.672-0.313z"></path>
<path fill="#000" d="M10.528 3.514c0.979-0.002 1.957-0.004 2.936 0 0.002 5.653 0.010 11.305-0.007 16.958-0.979-0.006-1.958 0.013-2.938-0.011 0.001-1.159 0.006-2.317 0-3.476-1.36-0.006-2.719 0.005-4.079-0.005-0.005-0.979-0.004-1.958 0-2.938 1.361-0.008 2.722 0.005 4.082-0.006-0.002-1.36 0.002-2.719-0.001-4.079-1.361-0.014-2.72 0.001-4.081-0.007-0.006-0.978 0-1.956-0.004-2.934 1.356-0.016 2.711-0.011 4.067-0.001 0.050-1.166 0.001-2.335 0.024-3.502z"></path>
</svg>
