<!-- Generated by IcoMoon.io -->
<svg version="1.1" xmlns="http://www.w3.org/2000/svg" width="24" height="24" viewBox="0 0 24 24">
<title>warning--junction-with-a-side-road-perpendicular-left--g2</title>
<path fill="#d5bb0e" opacity="0.84" d="M11.72 0h0.53c0.263 0.114 0.512 0.262 0.716 0.466 3.319 3.323 6.642 6.643 9.962 9.965 0.395 0.4 0.852 0.768 1.070 1.302v0.5c-0.103 0.241-0.229 0.479-0.419 0.665-3.564 3.559-7.123 7.122-10.684 10.684-0.182 0.182-0.409 0.308-0.64 0.419h-0.487c-0.245-0.101-0.485-0.224-0.672-0.415-3.559-3.564-7.121-7.124-10.682-10.685-0.178-0.18-0.306-0.398-0.416-0.623v-0.533c0.202-0.548 0.671-0.914 1.066-1.319 3.301-3.301 6.604-6.6 9.902-9.905 0.216-0.22 0.475-0.39 0.752-0.521M11.683 0.307c-0.185 0.070-0.334 0.204-0.475 0.337-3.538 3.545-7.084 7.082-10.622 10.627-0.407 0.352-0.455 1.018-0.049 1.39 3.599 3.602 7.199 7.205 10.802 10.802 0.348 0.376 0.974 0.373 1.321-0.004 3.602-3.598 7.201-7.199 10.8-10.8 0.404-0.371 0.356-1.036-0.048-1.386-3.539-3.545-7.085-7.082-10.624-10.627-0.272-0.3-0.706-0.511-1.105-0.34z"></path>
<path fill="#000" d="M11.683 0.307c0.4-0.172 0.833 0.040 1.105 0.34 3.539 3.545 7.085 7.082 10.624 10.627 0.404 0.35 0.452 1.015 0.048 1.386-3.599 3.601-7.198 7.202-10.8 10.8-0.347 0.377-0.973 0.379-1.321 0.004-3.604-3.598-7.204-7.2-10.802-10.802-0.406-0.372-0.358-1.038 0.049-1.39 3.539-3.545 7.085-7.082 10.622-10.627 0.142-0.133 0.29-0.268 0.475-0.337M11.803 0.758c-3.655 3.54-7.21 7.196-10.829 10.778-0.282 0.204-0.355 0.637-0.054 0.859 3.583 3.578 7.159 7.164 10.744 10.74 0.198 0.226 0.558 0.164 0.732-0.056 3.559-3.564 7.122-7.124 10.682-10.686 0.258-0.197 0.258-0.593 0.004-0.792-3.535-3.547-7.082-7.082-10.621-10.626-0.162-0.182-0.41-0.332-0.658-0.217z"></path>
<path fill="#000" d="M8.724 7.999c1.087-1.61 2.177-3.221 3.274-4.824 1.098 1.603 2.186 3.215 3.275 4.824 0.257 0.271 0.116 0.769-0.268 0.815-0.577-0.028-1.14-0.179-1.711-0.251-0.004 3.616 0.002 7.23-0.002 10.846-0.862 0.002-1.724 0.002-2.586 0-0.006-1.842 0.004-3.684-0.004-5.526-1.567-0.006-3.133 0-4.699-0.002-0.007-0.626-0.006-1.254-0.002-1.88 1.567-0.007 3.134 0.002 4.702-0.004 0.004-1.145 0.002-2.288 0.001-3.432-0.571 0.071-1.132 0.221-1.708 0.25-0.389-0.040-0.532-0.542-0.271-0.815z"></path>
<path fill="#fee011" d="M11.803 0.758c0.247-0.115 0.496 0.035 0.658 0.217 3.539 3.544 7.086 7.079 10.621 10.626 0.254 0.199 0.254 0.595-0.004 0.792-3.56 3.562-7.123 7.122-10.682 10.686-0.174 0.221-0.534 0.282-0.732 0.056-3.584-3.576-7.16-7.162-10.744-10.74-0.301-0.222-0.228-0.655 0.054-0.859 3.619-3.582 7.174-7.238 10.829-10.778M8.724 7.999c-0.26 0.272-0.118 0.775 0.271 0.815 0.576-0.029 1.136-0.179 1.708-0.25 0.001 1.144 0.002 2.287-0.001 3.432-1.567 0.006-3.134-0.004-4.702 0.004-0.004 0.626-0.005 1.254 0.002 1.88 1.566 0.002 3.132-0.004 4.699 0.002 0.007 1.842-0.002 3.684 0.004 5.526 0.862 0.002 1.724 0.002 2.586 0 0.005-3.616-0.001-7.23 0.002-10.846 0.571 0.072 1.134 0.223 1.711 0.251 0.384-0.046 0.524-0.544 0.268-0.815-1.088-1.609-2.177-3.221-3.275-4.824-1.097 1.603-2.186 3.214-3.274 4.824z"></path>
</svg>
