<?xml version="1.0" encoding="utf-8"?>
<!-- Generated by IcoMoon.io -->
<!DOCTYPE svg PUBLIC "-//W3C//DTD SVG 1.1//EN" "http://www.w3.org/Graphics/SVG/1.1/DTD/svg11.dtd">
<svg version="1.1" xmlns="http://www.w3.org/2000/svg" xmlns:xlink="http://www.w3.org/1999/xlink" width="24" height="24" viewBox="0 0 24 24">
<path fill="#ce252c" d="M10.973 1.621c0.881-0.571 2.182-0.259 2.689 0.664 3.342 5.782 6.668 11.574 10.004 17.359 0.452 0.702 0.412 1.679-0.138 2.316-0.355 0.45-0.922 0.667-1.478 0.72h-19.93c-0.443-0.029-0.906-0.098-1.272-0.366-0.823-0.547-1.090-1.747-0.568-2.59 3.228-5.616 6.468-11.225 9.696-16.84 0.27-0.463 0.515-0.984 0.996-1.264M2.464 20.414c6.354 0.002 12.708 0.002 19.062 0-3.172-5.518-6.349-11.033-9.53-16.546-3.181 5.513-6.358 11.029-9.532 16.546z"></path>
<path fill="#ffd100" d="M2.464 20.414c3.174-5.516 6.35-11.033 9.532-16.546 3.181 5.513 6.359 11.028 9.53 16.546-6.354 0.002-12.708 0.002-19.062 0M12.96 10.811c-0.083 0.358-0.068 0.755 0.085 1.093 0.167 0.058 0.346 0.060 0.52 0.085-0.12 0.431-0.308 0.836-0.481 1.248-0.244-0.037-0.488-0.055-0.734-0.044-0.233 0.16-0.533 0.247-0.679 0.508-0.299 0.438-0.59 0.881-0.893 1.316 0.202-0.578 0.395-1.159 0.599-1.738 0.19-0.44 0.181-0.943-0.041-1.37-0.442 0.78-0.85 1.578-1.28 2.364-0.060 0.2-0.29 0.167-0.45 0.215-0.967 0.15-1.811 0.8-2.286 1.644 0.53 0.574 1.25 0.916 1.985 1.147-0.208 0.236-0.328 0.634-0.682 0.683-0.73 0.132-1.411-0.331-1.856-0.869-0.168-0.252-0.556-0.097-0.553 0.191 0.14 0.64 0.743 1.007 1.309 1.23 1.042 0.44 2.191 0.226 3.287 0.282 0.18 0.004 0.563 0.026 0.451-0.263-0.378-0.548-1.121-0.604-1.727-0.647 0.104-0.162 0.208-0.324 0.311-0.486 1.003 0.138 2.020 0.028 3.029 0.040-0.116 0.21-0.26 0.432-0.214 0.684 0.031 0.433 0.488 0.691 0.888 0.668 1.085-0.005 2.17 0.008 3.254-0.006 0.462-0.001 0.922-0.407 0.832-0.894-0.037-0.368-0.379-0.586-0.709-0.664-0.010-0.547 0.019-1.094-0.011-1.642-0.008-0.238-0.226-0.444-0.461-0.455-0.458-0.030-0.919-0.006-1.379-0.010 0.157-0.414 0.208-0.883 0.024-1.297-0.256-0.584-0.412-1.214-0.769-1.751-0.244-0.356-0.274-0.793-0.379-1.199-0.134-0.414-0.815-0.488-0.989-0.065z"></path>
<path fill="#ffd100" d="M12.001 13.794c0.482-0.442 1.1 0.419 1.579-0.036 0.029 0.080 0.088 0.24 0.116 0.32-0.367 0.028-0.767-0.070-1.112 0.076-0.432 0.515-0.725 1.133-1.108 1.685-0.196-0.155-0.378-0.324-0.552-0.5 0.36-0.514 0.68-1.058 1.076-1.544z"></path>
<path fill="#ffd100" d="M12.85 14.971c0.274 0.030 0.545 0.079 0.817 0.119-0.455 0.167-0.305 0.698-0.325 1.074-0.38 0.025-0.763 0.014-1.135-0.073 0.234-0.362 0.452-0.733 0.643-1.12z"></path>
<path fill="#000" d="M12.96 10.811c0.174-0.424 0.854-0.349 0.989 0.065 0.106 0.406 0.136 0.842 0.379 1.199 0.358 0.536 0.514 1.166 0.769 1.751 0.184 0.414 0.133 0.883-0.024 1.297 0.46 0.004 0.92-0.020 1.379 0.010 0.235 0.011 0.452 0.217 0.461 0.455 0.030 0.547 0.001 1.094 0.011 1.642 0.33 0.078 0.672 0.295 0.709 0.664 0.090 0.487-0.37 0.893-0.832 0.894-1.085 0.014-2.17 0.001-3.254 0.006-0.4 0.023-0.857-0.235-0.888-0.668-0.047-0.252 0.097-0.474 0.214-0.684-1.009-0.012-2.026 0.098-3.029-0.040-0.103 0.162-0.206 0.324-0.311 0.486 0.606 0.043 1.349 0.098 1.727 0.647 0.112 0.289-0.271 0.266-0.451 0.263-1.096-0.056-2.245 0.158-3.287-0.282-0.566-0.223-1.169-0.59-1.309-1.23-0.002-0.288 0.385-0.443 0.553-0.191 0.445 0.538 1.127 1.001 1.856 0.869 0.354-0.049 0.474-0.446 0.682-0.683-0.734-0.232-1.454-0.574-1.985-1.147 0.475-0.844 1.319-1.494 2.286-1.644 0.16-0.048 0.39-0.014 0.45-0.215 0.431-0.786 0.839-1.584 1.28-2.364 0.222 0.427 0.23 0.93 0.041 1.37-0.204 0.578-0.397 1.159-0.599 1.738 0.302-0.436 0.594-0.878 0.893-1.316 0.146-0.26 0.446-0.348 0.679-0.508 0.246-0.011 0.491 0.007 0.734 0.044 0.173-0.412 0.361-0.817 0.481-1.248-0.174-0.025-0.353-0.028-0.52-0.085-0.154-0.338-0.168-0.736-0.085-1.093M12.001 13.794c-0.396 0.486-0.716 1.031-1.076 1.544 0.174 0.176 0.356 0.346 0.552 0.5 0.383-0.552 0.676-1.17 1.108-1.685 0.346-0.145 0.745-0.048 1.112-0.076-0.029-0.080-0.088-0.24-0.116-0.32-0.479 0.455-1.097-0.406-1.579 0.036M12.85 14.971c-0.191 0.386-0.409 0.757-0.643 1.12 0.372 0.088 0.755 0.098 1.135 0.073 0.020-0.376-0.13-0.907 0.325-1.074-0.272-0.040-0.544-0.089-0.817-0.119z"></path>
</svg>
