<!-- Generated by IcoMoon.io -->
<svg version="1.1" xmlns="http://www.w3.org/2000/svg" width="24" height="24" viewBox="0 0 24 24">
<title>warning--tractors--g4</title>
<path fill="#1a1919" d="M10.769 0.693c0.286-0.273 0.574-0.628 0.999-0.653 0.288-0.007 0.629-0.011 0.835 0.226 2.47 2.385 4.893 4.818 7.321 7.246 1.074 1.078 2.152 2.154 3.197 3.261 0.113 0.115 0.224 0.235 0.303 0.377-0.149-0.090-0.265-0.219-0.385-0.342-3.45-3.451-6.901-6.901-10.351-10.352-0.398-0.401-1.117-0.4-1.514 0.002-3.578 3.581-7.161 7.158-10.738 10.74-0.422 0.403-0.427 1.11-0.009 1.517 3.575 3.585 7.161 7.161 10.739 10.744 0.387 0.404 1.106 0.415 1.506 0.024 3.551-3.549 7.099-7.101 10.65-10.648 0.269-0.254 0.48-0.618 0.424-0.999-0.028-0.255-0.192-0.458-0.311-0.675 0.378 0.24 0.531 0.743 0.376 1.158-0.143 0.283-0.379 0.503-0.587 0.738-1.567 1.638-3.176 3.237-4.777 4.843-1.85 1.844-3.693 3.697-5.568 5.516-0.249 0.247-0.56 0.48-0.925 0.49-0.372 0.011-0.697-0.218-0.951-0.467-1.56-1.509-3.091-3.047-4.63-4.577-1.892-1.894-3.792-3.78-5.649-5.71-0.263-0.288-0.553-0.563-0.726-0.918v-0.518c0.156-0.389 0.479-0.671 0.757-0.972 3.311-3.377 6.664-6.711 10.012-10.050z"></path>
<path fill="#1a1919" d="M11.694 0.432c0.307-0.082 0.656 0 0.883 0.225 3.542 3.542 7.085 7.084 10.626 10.627 0.426 0.377 0.372 1.067-0.059 1.418-3.52 3.518-7.038 7.038-10.558 10.557-0.341 0.355-0.971 0.355-1.311-0.002-3.541-3.543-7.086-7.082-10.625-10.627-0.372-0.347-0.386-0.968-0.014-1.32 3.508-3.514 7.023-7.023 10.533-10.536 0.143-0.153 0.311-0.3 0.523-0.342M11.829 0.885c-0.161 0.021-0.266 0.158-0.375 0.264-3.487 3.49-6.978 6.977-10.465 10.466-0.201 0.176-0.208 0.505-0.008 0.685 3.541 3.544 7.085 7.086 10.627 10.628 0.169 0.174 0.479 0.175 0.648 0.001 3.49-3.487 6.977-6.977 10.467-10.465 0.142-0.139 0.319-0.291 0.313-0.509-0.002-0.203-0.163-0.347-0.297-0.478-3.49-3.487-6.977-6.977-10.467-10.465-0.111-0.122-0.286-0.153-0.442-0.126z"></path>
<path fill="#1a1919" d="M15.346 6.608c0.228 0 0.456 0 0.683 0 0.040 0.662 0.064 1.326 0.098 1.988 0.405-0.033 0.757 0.171 1.068 0.404 0.035 0.818 0.043 1.639 0.079 2.458 0.269 0.065 0.546 0.097 0.811 0.176 0.244 0.172 0.447 0.414 0.544 0.699 0.256 0.642 0.256 1.397-0.066 2.016-0.169 0.368-0.507 0.703-0.93 0.729-0.349 0.017-0.663-0.204-0.862-0.475-0.271-0.415-0.43-0.914-0.39-1.413 0.048-0.251-0.258-0.34-0.399-0.494-0.153 0.058-0.305 0.119-0.457 0.179 0.194 1.035 0.149 2.14-0.327 3.096-0.286 0.682-0.823 1.308-1.554 1.514-0.736 0.186-1.511-0.195-1.942-0.791-0.387-0.512-0.68-1.107-0.774-1.746-0.522-0.127-1.039-0.278-1.565-0.386-0.27 0.709-0.857 1.359-1.617 1.53-0.837 0.199-1.711-0.296-2.114-1.025-0.797-1.228-0.597-3.049 0.534-4.007 0.068-0.061 0.015-0.163 0.017-0.24-0.104 0.001-0.21 0.005-0.311-0.025-0.034-0.475 0.445-0.646 0.774-0.842 0.241-0.012 0.483-0.028 0.725-0.027 0.204-1.037 0.395-2.075 0.598-3.112 1.856-0.021 3.714-0.078 5.568-0.083 0 0.685-0.012 1.371 0.006 2.056 0.567-0.092 1.134-0.187 1.702-0.283 0.041-0.633 0.060-1.267 0.102-1.9M11.45 7.628c-0.036 0.845-0.038 1.692-0.054 2.539 0.516-0.121 1.026-0.265 1.539-0.398 0.008-0.76 0.003-1.521 0.002-2.282-0.496 0.043-0.992 0.093-1.488 0.141M8.751 7.536c-0.088 0.808-0.201 1.614-0.277 2.424 0.712 0.063 1.421 0.158 2.134 0.201 0.031-0.843 0.066-1.686 0.093-2.529-0.65-0.027-1.3-0.074-1.95-0.096M13.294 12.16c-0.337 0.042-0.49 0.398-0.595 0.679-0.297 0.889-0.284 1.886 0.056 2.761 0.11 0.224 0.25 0.497 0.528 0.531 0.318 0.023 0.494-0.294 0.608-0.544 0.348-0.913 0.35-1.958 0.006-2.872-0.113-0.251-0.284-0.564-0.602-0.555M17.69 12.511c-0.321 0.241-0.3 0.731-0.246 1.091 0.034 0.195 0.162 0.559 0.42 0.413 0.277-0.326 0.268-0.818 0.158-1.211-0.041-0.14-0.156-0.361-0.331-0.293M7.604 14.85c0.378 0.089 0.578-0.356 0.613-0.662-0.323-0.138-0.67-0.215-1-0.336-0.074 0.355 0.015 0.846 0.387 0.998z"></path>
<path fill="#f9cc5f" d="M11.175 0.458c0.397-0.402 1.116-0.403 1.514-0.002 3.45 3.451 6.9 6.901 10.351 10.352 0.12 0.123 0.236 0.252 0.385 0.342 0.003 0.003 0.009 0.008 0.012 0.011 0.119 0.217 0.283 0.42 0.311 0.675 0.056 0.382-0.155 0.745-0.424 0.999-3.551 3.548-7.099 7.1-10.65 10.648-0.4 0.391-1.119 0.381-1.506-0.024-3.578-3.583-7.163-7.158-10.739-10.744-0.418-0.408-0.413-1.114 0.009-1.517 3.577-3.583 7.159-7.159 10.738-10.74M11.694 0.432c-0.212 0.042-0.381 0.188-0.524 0.342-3.51 3.513-7.025 7.022-10.533 10.536-0.372 0.352-0.359 0.973 0.014 1.32 3.539 3.545 7.084 7.085 10.625 10.627 0.34 0.357 0.97 0.357 1.311 0.002 3.519-3.518 7.038-7.039 10.558-10.557 0.431-0.35 0.485-1.041 0.059-1.418-3.541-3.543-7.084-7.085-10.626-10.627-0.227-0.225-0.577-0.307-0.883-0.225z"></path>
<path fill="#f9cc5f" d="M11.829 0.885c0.157-0.027 0.331 0.004 0.442 0.126 3.49 3.488 6.977 6.978 10.467 10.465 0.134 0.131 0.295 0.275 0.297 0.478 0.006 0.218-0.171 0.37-0.313 0.509-3.49 3.488-6.977 6.978-10.467 10.465-0.169 0.174-0.479 0.173-0.648-0.001-3.543-3.542-7.086-7.084-10.627-10.628-0.2-0.18-0.192-0.508 0.008-0.685 3.487-3.49 6.978-6.976 10.465-10.466 0.109-0.106 0.214-0.243 0.375-0.264M15.346 6.608c-0.042 0.633-0.060 1.267-0.102 1.9-0.567 0.096-1.134 0.191-1.702 0.283-0.018-0.685-0.006-1.371-0.006-2.056-1.854 0.005-3.712 0.062-5.568 0.083-0.202 1.037-0.393 2.075-0.598 3.112-0.242-0.002-0.483 0.014-0.725 0.027-0.328 0.196-0.808 0.367-0.774 0.842 0.101 0.029 0.207 0.026 0.311 0.025-0.002 0.077 0.051 0.179-0.017 0.24-1.131 0.957-1.331 2.779-0.534 4.007 0.403 0.729 1.277 1.224 2.114 1.025 0.76-0.171 1.347-0.821 1.617-1.53 0.526 0.109 1.043 0.259 1.565 0.386 0.094 0.639 0.387 1.234 0.774 1.746 0.431 0.595 1.206 0.977 1.942 0.791 0.731-0.207 1.268-0.832 1.554-1.514 0.476-0.956 0.521-2.062 0.327-3.096 0.152-0.060 0.304-0.121 0.457-0.179 0.141 0.153 0.447 0.243 0.399 0.494-0.040 0.499 0.119 0.998 0.39 1.413 0.2 0.271 0.513 0.491 0.862 0.475 0.423-0.027 0.761-0.361 0.93-0.729 0.323-0.619 0.323-1.374 0.066-2.016-0.097-0.285-0.3-0.527-0.544-0.699-0.265-0.080-0.542-0.111-0.811-0.176-0.036-0.819-0.044-1.64-0.079-2.458-0.311-0.233-0.663-0.437-1.068-0.404-0.035-0.663-0.058-1.326-0.098-1.988-0.228-0-0.456 0-0.683-0z"></path>
<path fill="#f9cc5f" d="M11.45 7.628c0.496-0.048 0.992-0.098 1.488-0.141 0.001 0.761 0.006 1.522-0.002 2.282-0.513 0.133-1.024 0.277-1.539 0.398 0.015-0.846 0.017-1.694 0.054-2.539z"></path>
<path fill="#f9cc5f" d="M8.751 7.536c0.65 0.022 1.3 0.068 1.95 0.096-0.027 0.843-0.062 1.686-0.093 2.529-0.713-0.043-1.422-0.138-2.134-0.201 0.076-0.81 0.188-1.616 0.277-2.424z"></path>
<path fill="#f9cc5f" d="M13.294 12.16c0.318-0.010 0.489 0.304 0.602 0.555 0.344 0.914 0.343 1.958-0.006 2.872-0.114 0.251-0.289 0.567-0.608 0.544-0.278-0.034-0.417-0.306-0.528-0.531-0.339-0.875-0.353-1.872-0.056-2.761 0.105-0.28 0.258-0.637 0.595-0.679z"></path>
<path fill="#f9cc5f" d="M17.69 12.511c0.175-0.068 0.29 0.153 0.331 0.293 0.111 0.393 0.12 0.885-0.158 1.211-0.258 0.146-0.386-0.218-0.42-0.413-0.054-0.36-0.075-0.85 0.246-1.091z"></path>
<path fill="#f9cc5f" d="M7.604 14.85c-0.372-0.152-0.461-0.642-0.387-0.998 0.33 0.121 0.676 0.197 1 0.336-0.036 0.306-0.235 0.751-0.613 0.662z"></path>
</svg>
