<!-- Generated by IcoMoon.io -->
<svg version="1.1" xmlns="http://www.w3.org/2000/svg" width="24" height="24" viewBox="0 0 24 24">
<title>warning--weight-limit--g5</title>
<path fill="#000" d="M11.695 0h0.584c0.252 0.119 0.491 0.269 0.691 0.464 3.299 3.304 6.601 6.602 9.901 9.904 0.41 0.418 0.887 0.798 1.128 1.348v0.535c-0.12 0.26-0.269 0.51-0.474 0.712-3.521 3.522-7.043 7.043-10.561 10.567-0.198 0.193-0.433 0.344-0.679 0.47h-0.551c-0.539-0.214-0.904-0.676-1.304-1.070-3.098-3.102-6.2-6.199-9.296-9.304-0.406-0.419-0.886-0.79-1.134-1.332v-0.572c0.224-0.562 0.716-0.936 1.124-1.357 3.28-3.282 6.564-6.558 9.839-9.844 0.212-0.214 0.462-0.388 0.732-0.521M11.669 0.509c-3.678 3.51-7.212 7.192-10.84 10.763-0.39 0.29-0.557 0.905-0.167 1.267 3.576 3.584 7.16 7.162 10.738 10.744 0.301 0.359 0.895 0.355 1.195-0.004 3.578-3.583 7.164-7.159 10.74-10.746 0.35-0.33 0.25-0.91-0.106-1.196-3.546-3.535-7.082-7.082-10.628-10.618-0.229-0.257-0.616-0.365-0.932-0.21z"></path>
<path fill="#000" d="M11.802 9.412c0.862-0.168 1.912 0.104 2.302 0.962 0.426 0.958 0.421 2.106 0.073 3.086-0.49 1.326-2.448 1.532-3.389 0.593-0.684-0.778-0.678-1.91-0.556-2.881 0.098-0.835 0.692-1.65 1.57-1.76M12.035 10.361c-0.984 0.308-0.862 1.638-0.716 2.448 0.097 0.818 1.254 1.174 1.751 0.498 0.404-0.678 0.361-1.552 0.164-2.291-0.134-0.514-0.698-0.791-1.199-0.655z"></path>
<path fill="#000" d="M8.101 9.492c0.314-0.041 0.632-0.034 0.949-0.024 0.005 1.715 0.004 3.431 0.001 5.147-0.348 0.002-0.696 0.002-1.044-0.001-0.007-1.145 0-2.29-0.004-3.434-0.278-0.004-0.557-0.004-0.836-0.007-0.002-0.294-0.004-0.589-0.002-0.883 0.476-0.011 0.883-0.302 0.936-0.797z"></path>
<path fill="#000" d="M15.658 10.738c0.179-0.074 0.355-0.151 0.533-0.228 0 0.383 0.004 0.767 0.004 1.15 0.211 0.002 0.422 0.006 0.634 0.010-0.001 0.181-0.001 0.361 0 0.542-0.211 0.002-0.422 0.006-0.632 0.010-0.006 0.57-0.006 1.139 0.005 1.709 0.186 0.059 0.38 0.077 0.575 0.073 0.017 0.182 0.034 0.366 0.052 0.548-0.397 0.109-0.985 0.133-1.133-0.354-0.090-0.65-0.012-1.313-0.042-1.968-0.106-0.006-0.316-0.019-0.421-0.025 0.001-0.176 0.001-0.353 0-0.528 0.106-0.006 0.316-0.019 0.421-0.025 0.001-0.305 0.004-0.608 0.006-0.913z"></path>
<path fill="#ffeb00" d="M11.669 0.509c0.317-0.155 0.703-0.047 0.932 0.21 3.546 3.535 7.082 7.082 10.628 10.618 0.355 0.287 0.456 0.866 0.106 1.196-3.576 3.587-7.162 7.163-10.74 10.746-0.3 0.359-0.894 0.362-1.195 0.004-3.577-3.582-7.162-7.159-10.738-10.744-0.39-0.362-0.223-0.977 0.167-1.267 3.628-3.571 7.162-7.253 10.84-10.763M11.802 9.412c-0.877 0.11-1.471 0.925-1.57 1.76-0.122 0.971-0.128 2.104 0.556 2.881 0.941 0.94 2.899 0.733 3.389-0.593 0.348-0.98 0.353-2.129-0.073-3.086-0.39-0.858-1.44-1.13-2.302-0.962M8.101 9.492c-0.053 0.494-0.46 0.786-0.936 0.797-0.001 0.294 0 0.589 0.002 0.883 0.28 0.004 0.558 0.004 0.836 0.007 0.004 1.145-0.004 2.29 0.004 3.434 0.348 0.004 0.696 0.004 1.044 0.001 0.002-1.716 0.004-3.432-0.001-5.147-0.317-0.010-0.635-0.017-0.949 0.024M15.658 10.738c-0.002 0.305-0.005 0.608-0.006 0.913-0.106 0.006-0.316 0.019-0.421 0.025 0.001 0.175 0.001 0.352 0 0.528 0.106 0.006 0.316 0.019 0.421 0.025 0.030 0.655-0.048 1.318 0.042 1.968 0.148 0.487 0.736 0.463 1.133 0.354-0.018-0.182-0.035-0.366-0.052-0.548-0.194 0.004-0.389-0.014-0.575-0.073-0.011-0.57-0.011-1.139-0.005-1.709 0.21-0.004 0.421-0.007 0.632-0.010-0.001-0.181-0.001-0.361 0-0.542-0.211-0.004-0.422-0.007-0.634-0.010 0-0.383-0.004-0.767-0.004-1.15-0.178 0.077-0.354 0.154-0.533 0.228z"></path>
<path fill="#ffeb00" d="M12.035 10.361c0.5-0.136 1.064 0.142 1.199 0.655 0.197 0.739 0.24 1.613-0.164 2.291-0.497 0.676-1.654 0.32-1.751-0.498-0.145-0.81-0.268-2.14 0.716-2.448z"></path>
</svg>
