<?xml version="1.0" encoding="utf-8"?>
<!-- Generated by IcoMoon.io -->
<!DOCTYPE svg PUBLIC "-//W3C//DTD SVG 1.1//EN" "http://www.w3.org/Graphics/SVG/1.1/DTD/svg11.dtd">
<svg version="1.1" xmlns="http://www.w3.org/2000/svg" xmlns:xlink="http://www.w3.org/1999/xlink" width="24" height="24" viewBox="0 0 24 24">
<path fill="#ffd700" d="M0.526 10.784l10.238-10.037c0.675-0.661 1.821-0.612 2.548 0.109l10.023 9.939c0.728 0.721 0.77 1.852 0.096 2.513l-10.238 10.035c-0.674 0.661-1.82 0.612-2.548-0.109l-10.024-9.938c-0.727-0.721-0.77-1.852-0.096-2.512z"></path>
<path fill="#ffd700" d="M1.186 11.213l10.009-9.811c0.437-0.428 1.178-0.396 1.648 0.071l9.865 9.782c0.471 0.466 0.498 1.199 0.062 1.626l-10.008 9.81c-0.437 0.428-1.178 0.396-1.649-0.070l-9.864-9.783c-0.471-0.466-0.499-1.198-0.063-1.625z"></path>
<path fill="none" stroke="#000" stroke-width="0.7722" stroke-miterlimit="2.613" stroke-linecap="butt" stroke-linejoin="miter" d="M1.186 11.213l10.009-9.811c0.436-0.428 1.178-0.396 1.648 0.071l9.865 9.781c0.471 0.467 0.498 1.199 0.063 1.626l-10.009 9.812c-0.436 0.427-1.178 0.395-1.649-0.072l-9.864-9.782c-0.471-0.466-0.498-1.198-0.062-1.625z"></path>
<path fill="#000" d="M5.773 9.786c-0.012 0.069-0.081 0.146 0.133 0.182 1.958 0.004 3.915 0.008 5.873 0.012 0.181-0.005 0.238-0.057 0.173-0.158-0.225-0.505-0.45-1.009-0.675-1.514-0.093-0.137-0.221-0.21-0.384-0.218-1.34 0.004-2.774 0.008-4.114 0.013-0.233 0.008-0.304 0.080-0.397 0.218-0.203 0.488-0.406 0.977-0.609 1.466zM5.514 9.922c0.221-0.573 0.441-1.146 0.663-1.719 0.101-0.161 0.177-0.246 0.432-0.256 1.458-0.005 3.018-0.010 4.477-0.015 0.177 0.009 0.316 0.095 0.417 0.256 0.245 0.592 0.489 1.184 0.734 1.776 0.072 0.118 0.009 0.18-0.186 0.185-2.131-0.005-4.261-0.009-6.392-0.014-0.232-0.041-0.157-0.132-0.144-0.214z"></path>
<path fill="#000" d="M4.809 12.75h7.844c0.103 0 0.187 0.062 0.187 0.138v0.107c0 0.076-0.085 0.138-0.187 0.138h-7.844c-0.103 0-0.187-0.062-0.187-0.138v-0.107c0-0.076 0.084-0.138 0.187-0.138z"></path>
<path fill="#000" d="M5.315 13.404h0.73c0.080 0 0.146 0.072 0.146 0.163v0.755c0 0.089-0.066 0.163-0.146 0.163h-0.73c-0.081 0-0.146-0.073-0.146-0.163v-0.755c0-0.090 0.065-0.163 0.146-0.163z"></path>
<path fill="#000" d="M11.453 13.404h0.73c0.081 0 0.147 0.072 0.147 0.163v0.755c0 0.089-0.065 0.163-0.147 0.163h-0.73c-0.080 0-0.145-0.073-0.145-0.163v-0.755c0-0.090 0.065-0.163 0.145-0.163z"></path>
<path fill="#000" d="M5.766 11.031c-0.306 0-0.554 0.245-0.554 0.546s0.248 0.546 0.554 0.546c0.306 0 0.554-0.245 0.554-0.546s-0.248-0.546-0.554-0.546zM11.892 11.031c-0.307 0-0.555 0.245-0.555 0.546s0.248 0.546 0.555 0.546c0.305 0 0.553-0.245 0.553-0.546s-0.248-0.546-0.553-0.546zM5.356 10.505h7.024c0.192 0.009 0.307 0.114 0.345 0.312v1.663h-7.772v-1.676c0.050-0.186 0.16-0.304 0.403-0.299z"></path>
<path fill="#000" d="M12.985 13.675c1.38-1.14 2.759-2.28 4.139-3.42 0.158-0.152 0.342-0.065 0.121 0.197-1.403 1.109-2.806 2.217-4.209 3.327-0.094 0.050-0.123-0.048-0.051-0.104z"></path>
<path fill="#000" d="M12.97 14.019c1.439-0.758 2.907-1.489 4.375-2.16 0.137-0.098 0.232 0.040 0.056 0.185-1.379 0.613-2.755 1.275-4.132 1.975 1.764-0.601 3.528-1.169 5.292-1.713 0.14-0.029 0.191 0.117 0.022 0.175-1.831 0.554-3.661 1.115-5.492 1.756-0.136 0.015-0.191-0.135-0.121-0.217z"></path>
<path fill="#000" d="M12.992 14.4c1.736-0.352 3.482-0.659 5.248-0.894 0.108-0.025 0.174 0.111-0.011 0.152-1.735 0.245-3.514 0.525-5.248 0.829-0.077-0.015-0.034-0.086 0.011-0.088z"></path>
<path fill="#000" d="M18.428 9.35l-0.045-0.010h-0.021c-0.012 0-0.034 0-0.045 0-0.040 0-0.081 0-0.121 0-0.011 0-0.033 0-0.044 0 0 0.010-0.022 0.021-0.033 0.021l-0.011 0.011c0 0.011-0.011 0.022-0.023 0.032v0.022c-0.010 0-0.010 0.011-0.010 0.022 0 0.025 0 0.051 0 0.076 0 0.011 0 0.033 0 0.044-0.011 0-0.022 0.022-0.022 0.033l-0.022 0.022h-0.023c0 0.011 0 0.032 0 0.044h-0.010c0 0.036 0 0.072 0 0.109 0 0.011 0 0.032 0 0.043 0 0.040 0 0.080 0 0.12 0 0.011 0 0.032 0 0.044 0.010 0 0.010 0.022 0.010 0.033l0.012 0.011 0.011 0.011h0.022c0 0.022 0.011 0 0.011 0.022h0.033c0.011 0 0.033 0 0.044 0 0 0.011 0.011 0.011 0.022 0.011l0.011 0.011h0.144c0.094-0.006 0.049 0.013 0.111 0.011 0.010 0 0.032 0 0.044 0 0.040 0 0.081 0 0.121 0 0.011 0 0.033 0 0.044 0v-0.011h0.055l0.043-0.043v-0.022c0.011 0 0.011-0.022 0.011-0.033 0-0.036 0-0.073 0-0.109 0-0.011 0-0.033 0-0.044l0.022-0.022c0.022 0 0-0.011 0.022-0.011 0-0.011 0.011-0.032 0.022-0.032 0-0.040 0-0.080 0-0.12 0-0.011 0-0.032 0-0.043-0.011 0-0.011-0.011-0.011-0.022-0.011 0-0.011-0.011-0.011-0.022-0.011 0-0.011-0.011-0.011-0.022-0.011 0-0.011-0.011-0.011-0.022l-0.022-0.022-0.011-0.011-0.022-0.022h-0.022l-0.011-0.011c0-0.022-0.011 0-0.011-0.022h-0.022c0-0.011-0.022-0.011-0.034-0.011 0-0.011-0.021-0.011-0.032-0.011-0.030 0-0.059 0-0.089 0-0.010 0-0.033 0-0.044 0l-0.022-0.054z"></path>
<path fill="#000" d="M18.737 10.888c0 0-0.055-0.055-0.066-0.055 0-0.022-0.011 0-0.011-0.022h-0.022c0-0.011-0.011-0.011-0.023-0.011 0-0.022-0.010 0-0.010-0.022h-0.022l-0.011-0.011h-0.033l-0.011-0.011h-0.034c-0.029 0-0.059 0-0.088 0-0.033 0-0.066 0-0.099 0h-0.066c-0.011 0-0.033 0-0.044 0l-0.022 0.011h-0.033c-0.011 0-0.022 0.011-0.044 0.011l-0.012 0.011-0.010 0.011v0.032l-0.011 0.011v0.022c-0.011 0-0.011 0.011-0.011 0.022l-0.011 0.011v0.12c0 0.032 0 0.065 0 0.098 0 0.011 0 0.033 0 0.044 0 0.040 0 0.080 0 0.12 0 0.011 0 0.033 0 0.044 0.011 0 0.011 0.011 0.011 0.022l0.011 0.011 0.011 0.011 0.010 0.011 0.012 0.011h0.022l0.011 0.011c0.056-0.003-0.009 0.016 0.088 0.011 0.011 0 0.033 0 0.044 0 0.040 0 0.081 0 0.121 0 0.011 0 0.033 0 0.045 0 0 0.011 0.010 0.011 0.021 0.011 0 0.022 0.011 0 0.011 0.022h0.023l0.010 0.011h0.1c0.011 0 0.033 0 0.044 0l0.011-0.011v-0.022l0.011-0.011v-0.022l0.011-0.011h0.033c0.011 0 0.033 0 0.044 0l0.011-0.011c0.011 0 0.033 0 0.044 0v-0.022l0.011-0.011v-0.076c0-0.011 0-0.033 0-0.044l0.011-0.011c0.022 0 0-0.011 0.022-0.011v-0.022c0.022 0 0-0.011 0.022-0.011 0-0.032 0-0.065 0-0.098 0-0.011 0-0.033 0-0.044-0.011 0-0.011-0.011-0.011-0.022l-0.022-0.022h-0.022l-0.032-0.032c0-0.011-0.011-0.033-0.022-0.033v-0.022l-0.011-0.011-0.011-0.011v0.022z"></path>
<path fill="#000" d="M20.416 11.259c-0.011 0-0.055-0.011-0.055-0.022h-0.033v-0.011c-0.040 0-0.081 0-0.121 0-0.011 0-0.033 0-0.044 0-0.040 0-0.081 0-0.121 0-0.011 0-0.034 0-0.044 0v0.022h-0.034c0 0.011-0.010 0.011-0.022 0.011-0.111 0.1 0.001 0.030-0.11 0.131-0.011 0-0.022 0.011-0.033 0.011l-0.022 0.022v0.088c0 0.011 0 0.032 0 0.043-0.011 0-0.011 0.011-0.011 0.022-0.022 0 0 0.011-0.022 0.011v0.022c-0.011 0-0.011 0.011-0.011 0.022l-0.011 0.011v0.087c0 0.025 0 0.051 0 0.077 0 0.011 0 0.032 0 0.043 0 0.040 0 0.080 0 0.12 0 0.010 0 0.032 0 0.043h0.011v0.022c0 0.011 0 0.033 0 0.044l0.011 0.011 0.011 0.011h0.022c0.011 0 0.033 0 0.044 0l0.022 0.011h0.055c0.022 0 0.044 0 0.066 0 0.012 0 0.034 0 0.044 0 0.041 0 0.082 0 0.122 0 0.011 0 0.044 0 0.055 0 0 0.011 0.022 0.011 0.033 0.011 0.037 0 0.073 0 0.11 0 0.011 0 0.033 0 0.044 0 0-0.022 0.011 0 0.011-0.022h0.033v-0.055c0-0.011 0-0.032 0-0.043l0.011-0.011 0.011-0.011 0.011-0.010h0.022c0-0.022 0.011 0 0.011-0.022h0.023l0.010-0.011 0.011-0.011 0.012-0.011c0-0.011 0-0.032 0-0.044l0.011-0.011v-0.065c0-0.029 0-0.058 0-0.088 0-0.037 0-0.073 0-0.109 0-0.011 0-0.032 0-0.044 0-0.040 0-0.080 0-0.12 0-0.011 0-0.032 0-0.043-0.011 0-0.011-0.011-0.011-0.022-0.023 0 0-0.011-0.023-0.011v-0.022l-0.010-0.011c-0.023 0 0-0.011-0.023-0.011v-0.022c-0.021 0 0-0.011-0.021-0.011 0-0.022-0.023-0.022-0.023-0.032l-0.021 0.011z"></path>
<path fill="#000" d="M19.632 13.036c-0.011 0-0.033-0.021-0.044-0.032-0.011 0-0.033-0.011-0.033-0.022-0.033 0-0.066 0-0.1 0-0.010 0-0.032 0-0.044 0 0 0.011-0.010 0.011-0.021 0.011l-0.012 0.011-0.011 0.011c0 0.021-0.011 0-0.011 0.021-0.010 0-0.022 0.011-0.022 0.022l-0.011 0.011h-0.022v0.011h-0.022c-0.011 0-0.033 0-0.044 0l-0.011 0.011h-0.044c-0.011 0-0.033 0-0.044 0 0 0.011-0.012 0.011-0.022 0.011l-0.032 0.032-0.011 0.010v0.022c-0.011 0-0.011 0.011-0.011 0.022l-0.012 0.010c-0.022 0 0 0.010-0.022 0.010v0.022c-0.022 0 0 0.011-0.022 0.011 0 0.030 0 0.058 0 0.088 0 0.011 0 0.032 0 0.043s0.012 0.022 0.012 0.033c0 0.030 0 0.058 0 0.088 0 0.011 0 0.033 0 0.043 0.010 0 0.010 0.011 0.010 0.022 0.012 0 0.034 0.022 0.045 0.022 0.022 0.021 0.044 0.044 0.066 0.065 0 0.022 0.011 0 0.011 0.022l0.022 0.011v0.032h0.011v0.011l0.011 0.011c0 0.011 0.033 0.044 0.033 0.044 0.022 0 0.033 0.010 0.044 0.010h0.055c0.011 0 0.023 0.011 0.033 0.011h0.034c0.011 0 0.033 0 0.043 0 0 0.011 0.022 0.011 0.034 0.011l0.021 0.022h0.044c0.022 0 0.045 0 0.067 0 0.011 0 0.033 0 0.044 0 0.040 0 0.081 0 0.121 0 0.011 0 0.033 0 0.044 0 0-0.011 0.022-0.011 0.033-0.011v-0.066c0 0 0.011-0.021 0.022-0.021 0-0.011 0-0.032 0-0.044h0.012v-0.043h0.010v-0.022c0-0.011 0-0.032 0-0.043 0-0.040 0-0.081 0-0.12 0-0.011 0-0.032 0-0.043h0.011v-0.022c0-0.011 0-0.033 0-0.043h0.011c0 0 0.012-0.033 0.023-0.033 0-0.011 0-0.032 0-0.043 0-0.030 0-0.059 0-0.088 0-0.011 0-0.033 0-0.044-0.011 0-0.011-0.021-0.011-0.032-0.012 0-0.012-0.011-0.012-0.022l-0.022-0.022-0.010-0.011-0.013-0.007h-0.022c0-0.022-0.011 0-0.011-0.022-0.011 0-0.033 0-0.044 0-0.113-0.006-0.049 0.014-0.121 0.010-0.011 0-0.033 0-0.033 0z"></path>
</svg>
