<!-- Generated by IcoMoon.io -->
<svg version="1.1" xmlns="http://www.w3.org/2000/svg" width="27" height="24" viewBox="0 0 27 24">
<title>warning--pass-left-or-right--g3</title>
<path fill="#ea1c03" d="M12.495 1.025c0.325-0.764 1.473-0.933 1.884-0.157 3.639 5.938 6.918 12.088 10.45 18.088 0.694 1.31 1.629 2.488 2.19 3.869v0.088c-0.29 1.061-1.448 1.010-2.326 0.974-1.888-0.112-3.783 0.030-5.674 0.012-3.894 0.038-7.793-0.149-11.685 0.005-1.893-0.001-3.786-0.032-5.678-0.048-0.608-0.020-1.374-0.018-1.656-0.675v-0.226c0.231-0.767 0.619-1.469 1.020-2.157 3.909-6.542 7.494-13.272 11.475-19.771M6.548 15.597c-1.061 2.091-2.325 4.078-3.517 6.097 6.965 0.008 13.929-0.008 20.894 0.003-1.638-2.806-3.381-5.57-4.824-8.48-1.843-3.22-3.778-6.38-5.636-9.591-2.279 4.006-4.738 7.909-6.916 11.971z"></path>
<path fill="#fff" d="M6.548 15.597c2.178-4.062 4.637-7.965 6.916-11.971 1.858 3.211 3.793 6.371 5.636 9.591 1.443 2.91 3.186 5.674 4.824 8.48-6.965-0.011-13.929 0.005-20.894-0.003 1.192-2.018 2.456-4.006 3.517-6.097M8.542 17.173c-0.19-0.112-0.389-0.207-0.58-0.315 0.072 0.875 0.097 1.755 0.134 2.634 0.854-0.27 1.611-0.785 2.415-1.174-0.187-0.107-0.365-0.229-0.552-0.338 1.099-1.846 2.159-3.715 3.223-5.58-0.472-0.272-0.945-0.543-1.425-0.802-1.093 1.846-2.119 3.73-3.215 5.576M13.792 12.397c1.055 1.87 2.122 3.734 3.215 5.583-0.1 0.060-0.3 0.181-0.4 0.241 0.569 0.679 1.52 0.878 2.266 1.324 0.044-0.895 0.075-1.792 0.116-2.688-0.187 0.106-0.377 0.207-0.565 0.314-1.088-1.848-2.128-3.722-3.209-5.574-0.482 0.255-0.952 0.528-1.423 0.8z"></path>
<path fill="#030303" d="M8.542 17.173c1.096-1.846 2.122-3.73 3.215-5.576 0.48 0.258 0.952 0.53 1.425 0.802-1.064 1.866-2.124 3.734-3.223 5.58 0.187 0.109 0.365 0.231 0.552 0.338-0.805 0.389-1.561 0.904-2.415 1.174-0.038-0.878-0.062-1.758-0.134-2.634 0.19 0.109 0.389 0.204 0.58 0.315z"></path>
<path fill="#030303" d="M13.792 12.397c0.471-0.272 0.942-0.545 1.423-0.8 1.081 1.852 2.121 3.727 3.209 5.574 0.187-0.107 0.377-0.208 0.565-0.314-0.041 0.897-0.072 1.793-0.116 2.688-0.746-0.445-1.697-0.645-2.266-1.324 0.1-0.060 0.3-0.181 0.4-0.241-1.093-1.849-2.16-3.713-3.215-5.583z"></path>
<path fill="#8b2816" opacity="0.59" d="M7.334 23.902c3.891-0.154 7.79 0.033 11.685-0.005 1.891 0.018 3.786-0.124 5.674-0.012l-0.177 0.115h-16.965l-0.217-0.098z"></path>
</svg>
