<!-- Generated by IcoMoon.io -->
<svg version="1.1" xmlns="http://www.w3.org/2000/svg" width="27" height="24" viewBox="0 0 27 24">
<title>warning--soft-shoulder--g3</title>
<path fill="#ec1d24" d="M13.291 0h0.576c0.561 0.133 1.066 0.481 1.335 0.998 3.914 6.782 7.849 13.554 11.754 20.341 0.623 1.082-0.182 2.514-1.392 2.661h-23.964c-0.785-0.131-1.431-0.734-1.6-1.513v-0.581c0.080-0.269 0.184-0.532 0.322-0.776 3.887-6.717 7.77-13.436 11.655-20.154 0.268-0.506 0.768-0.836 1.314-0.976M13.582 3.042c-3.583 6.19-7.164 12.381-10.739 18.575 7.16 0.005 14.321 0.004 21.482 0.001-3.582-6.192-7.139-12.398-10.743-18.576z"></path>
<path fill="#fff" d="M13.582 3.042c3.604 6.178 7.161 12.384 10.743 18.576-7.161 0.003-14.322 0.004-21.482-0.001 3.575-6.194 7.156-12.385 10.739-18.575M13.935 12.039c-1.267 0.332-2.533 0.666-3.796 1.013-0.437 0.094-0.806 0.485-0.791 0.947 0.021 0.667 0.135 1.328 0.183 1.993-0.344 0.208-0.462 0.607-0.297 0.974 0.238 0.617 0.18 1.418 0.766 1.839 0.161 0.386 0.224 0.806 0.338 1.208 0.409 0.182 0.904 0.085 1.151-0.306-0.105-0.393-0.213-0.784-0.319-1.176 1.544-0.303 3.057-0.73 4.554-1.212 0.107 0.392 0.212 0.785 0.322 1.176 0.404 0.209 0.864 0.056 1.126-0.299-0.106-0.415-0.218-0.829-0.322-1.244 0.287-0.42 0.036-0.899-0.065-1.334-0.158-0.518-0.184-1.338-0.914-1.323-0.281-0.582-0.51-1.189-0.805-1.764-0.201-0.407-0.696-0.622-1.131-0.492M14.909 18.832c-0.001 0.658-0.001 1.316-0.001 1.975 2.584-0.001 5.167 0.001 7.75-0.001-0.376-0.658-0.754-1.314-1.129-1.972-2.207-0.004-4.414-0.001-6.62-0.002M13.722 19.827c0.227-0.257 0.387-0.566 0.501-0.888-0.233 0.253-0.397 0.561-0.501 0.888M8.746 19.474c0.134 0.051 0.268 0.103 0.402 0.153 0.040-0.163 0.079-0.327 0.115-0.491-0.219 0.036-0.399 0.149-0.517 0.338M9.468 19.047c0.181 0.504 0.070 1.083 0.391 1.54-0.194-0.501-0.037-1.106-0.391-1.54M7.699 19.294c-0.025 0.12-0.050 0.241-0.076 0.361 0.126 0.029 0.251 0.059 0.377 0.089 0-0.151 0-0.302 0-0.452-0.075 0-0.226 0.002-0.301 0.002M12.409 19.16c-0.131 0.403-0.212 0.825-0.214 1.249 0.162-0.394 0.225-0.825 0.214-1.249M5.657 19.298c-0.010 0.364 0.039 0.731 0.162 1.075 0.018-0.364-0.028-0.735-0.162-1.075M6.018 19.511c0.263 0.357 0.76 0.1 0.274-0.193-0.069 0.048-0.206 0.145-0.274 0.193M11.633 19.309c0.257 0.346 0.232 0.767 0.274 1.174 0.095-0.415 0.151-0.923-0.274-1.174M12.88 19.43c0.109 0.089 0.218 0.178 0.327 0.268 0.033-0.089 0.065-0.177 0.098-0.264-0.142-0.002-0.284-0.003-0.425-0.004M6.541 20.305c0.215-0.233 0.354-0.522 0.451-0.821-0.213 0.234-0.366 0.516-0.451 0.821M8.397 19.612c-0.024 0.347-0.026 0.696-0.006 1.044 0.13-0.336 0.137-0.707 0.006-1.044M4.934 20.54c0.204-0.253 0.35-0.545 0.448-0.852-0.218 0.241-0.366 0.537-0.448 0.852M7.177 19.731c0.096 0.275 0.233 0.54 0.446 0.743-0.095-0.275-0.235-0.538-0.446-0.743M8.758 19.801c0.215 0.237 0.405 0.494 0.587 0.757-0.068-0.336-0.245-0.646-0.587-0.757M14.074 20.236c0.134 0.18 0.269 0.361 0.423 0.526-0.080-0.183-0.173-0.359-0.271-0.533 0.057-0.168 0.112-0.337 0.159-0.508-0.113 0.166-0.212 0.34-0.311 0.515M12.866 19.829c0.069 0.347 0.216 0.679 0.441 0.954-0.097-0.338-0.233-0.669-0.441-0.954M13.409 20.079c0.031 0.112 0.064 0.225 0.096 0.338 0.068-0.009 0.205-0.027 0.273-0.036-0.011-0.128-0.023-0.255-0.035-0.383-0.112 0.026-0.223 0.052-0.334 0.081M11.304 20.267c-0.152 0.135 0.076 0.378 0.199 0.189 0.166-0.142-0.069-0.354-0.199-0.189M6.232 20.275c-0.179 0.056-0.109 0.363 0.083 0.303 0.19-0.043 0.096-0.354-0.083-0.303M10.875 20.29c-0.138 0.073-0.297 0.146-0.379 0.287 0.067 0.186 0.706-0.326 0.379-0.287M6.924 20.495c0.004 0.144 0.216 0.217 0.331 0.159 0.107-0.185-0.25-0.36-0.331-0.159M12.449 20.396c-0.115 0.132 0.107 0.336 0.22 0.193 0.11-0.134-0.105-0.34-0.22-0.193z"></path>
<path fill="#fff" d="M13.834 12.736c0.813-0.329 1.57 0.712 1.296 1.4-0.73 0.304-1.548 0.373-2.311 0.594-0.888 0.201-1.731 0.57-2.62 0.76-0.415 0.016-0.401-0.51-0.436-0.798-0.080-0.407 0.144-0.841 0.537-0.984 1.136-0.458 2.331-0.755 3.534-0.972z"></path>
<path fill="#040404" d="M13.935 12.039c0.435-0.13 0.93 0.085 1.131 0.492 0.295 0.575 0.524 1.182 0.805 1.764 0.73-0.015 0.756 0.805 0.914 1.323 0.101 0.435 0.352 0.914 0.065 1.334 0.104 0.415 0.216 0.829 0.322 1.244-0.262 0.355-0.722 0.508-1.126 0.299-0.11-0.391-0.215-0.784-0.322-1.176-1.497 0.482-3.010 0.909-4.554 1.212 0.106 0.392 0.214 0.783 0.319 1.176-0.247 0.391-0.742 0.488-1.151 0.306-0.114-0.402-0.177-0.822-0.338-1.208-0.586-0.421-0.528-1.222-0.766-1.839-0.165-0.367-0.047-0.766 0.297-0.974-0.048-0.665-0.162-1.326-0.183-1.993-0.015-0.462 0.354-0.853 0.791-0.947 1.263-0.347 2.529-0.681 3.796-1.013M13.834 12.736c-1.203 0.217-2.398 0.514-3.534 0.972-0.393 0.143-0.617 0.577-0.537 0.984 0.035 0.288 0.021 0.814 0.436 0.798 0.889-0.19 1.732-0.559 2.62-0.76 0.763-0.221 1.581-0.29 2.311-0.594 0.274-0.688-0.483-1.729-1.296-1.4z"></path>
<path fill="#040404" d="M14.909 18.832c2.206 0.001 4.413-0.002 6.62 0.002 0.375 0.658 0.753 1.314 1.129 1.972-2.583 0.002-5.166 0-7.75 0.001 0-0.659 0-1.317 0.001-1.975z"></path>
<path fill="#040404" d="M13.722 19.827c0.104-0.327 0.268-0.635 0.501-0.888-0.114 0.322-0.274 0.631-0.501 0.888z"></path>
<path fill="#040404" d="M8.746 19.474c0.118-0.189 0.298-0.302 0.517-0.338-0.036 0.164-0.075 0.328-0.115 0.491-0.134-0.050-0.268-0.102-0.402-0.153z"></path>
<path fill="#040404" d="M9.468 19.047c0.354 0.434 0.197 1.039 0.391 1.54-0.321-0.457-0.21-1.036-0.391-1.54z"></path>
<path fill="#040404" d="M12.409 19.16c0.011 0.424-0.052 0.855-0.214 1.249 0.002-0.424 0.083-0.846 0.214-1.249z"></path>
<path fill="#040404" d="M5.657 19.298c0.134 0.34 0.18 0.711 0.162 1.075-0.123-0.344-0.172-0.711-0.162-1.075z"></path>
<path fill="#040404" d="M11.633 19.309c0.425 0.251 0.369 0.759 0.274 1.174-0.042-0.407-0.017-0.828-0.274-1.174z"></path>
<path fill="#040404" d="M12.88 19.43c0.141 0.001 0.283 0.002 0.425 0.004-0.033 0.087-0.065 0.175-0.098 0.264-0.109-0.090-0.218-0.179-0.327-0.268z"></path>
<path fill="#040404" d="M6.541 20.305c0.085-0.305 0.238-0.587 0.451-0.821-0.097 0.299-0.236 0.588-0.451 0.821z"></path>
<path fill="#040404" d="M8.397 19.612c0.131 0.337 0.124 0.708-0.006 1.044-0.020-0.348-0.018-0.697 0.006-1.044z"></path>
<path fill="#040404" d="M4.934 20.54c0.082-0.315 0.23-0.611 0.448-0.852-0.098 0.307-0.244 0.599-0.448 0.852z"></path>
<path fill="#040404" d="M7.177 19.731c0.211 0.205 0.351 0.468 0.446 0.743-0.213-0.203-0.35-0.468-0.446-0.743z"></path>
<path fill="#040404" d="M8.758 19.801c0.342 0.111 0.519 0.421 0.587 0.757-0.182-0.263-0.372-0.52-0.587-0.757z"></path>
<path fill="#040404" d="M14.074 20.236c0.099-0.175 0.198-0.349 0.311-0.515-0.047 0.171-0.102 0.34-0.159 0.508 0.098 0.174 0.191 0.35 0.271 0.533-0.154-0.165-0.289-0.346-0.423-0.526z"></path>
<path fill="#040404" d="M12.866 19.829c0.208 0.285 0.344 0.616 0.441 0.954-0.225-0.275-0.372-0.607-0.441-0.954z"></path>
<path fill="#040404" d="M13.409 20.079c0.111-0.029 0.222-0.055 0.334-0.081 0.012 0.128 0.024 0.255 0.035 0.383-0.068 0.009-0.205 0.027-0.273 0.036-0.032-0.113-0.065-0.226-0.096-0.338z"></path>
<path fill="#040404" d="M11.304 20.267c0.13-0.165 0.365 0.047 0.199 0.189-0.123 0.189-0.351-0.054-0.199-0.189z"></path>
<path fill="#040404" d="M6.232 20.275c0.179-0.051 0.273 0.26 0.083 0.303-0.192 0.060-0.262-0.247-0.083-0.303z"></path>
<path fill="#040404" d="M10.875 20.29c0.327-0.039-0.312 0.473-0.379 0.287 0.082-0.141 0.241-0.214 0.379-0.287z"></path>
<path fill="#040404" d="M6.924 20.495c0.081-0.201 0.438-0.026 0.331 0.159-0.115 0.058-0.327-0.015-0.331-0.159z"></path>
<path fill="#040404" d="M12.449 20.396c0.115-0.147 0.33 0.059 0.22 0.193-0.113 0.143-0.335-0.061-0.22-0.193z"></path>
<path fill="#111" d="M7.699 19.294c0.075 0 0.226-0.002 0.301-0.002 0 0.15 0 0.301 0 0.452-0.126-0.030-0.251-0.060-0.377-0.089 0.026-0.12 0.051-0.241 0.076-0.361z"></path>
<path fill="#1a1a1a" d="M6.018 19.511c0.068-0.048 0.205-0.145 0.274-0.193 0.486 0.293-0.011 0.55-0.274 0.193z"></path>
</svg>
