<!-- Generated by IcoMoon.io -->
<svg version="1.1" xmlns="http://www.w3.org/2000/svg" width="27" height="24" viewBox="0 0 27 24">
<title>warning--stop-ahead--g6</title>
<path fill="#cc9214" opacity="0.8" d="M13.256 0h0.613c0.576 0.159 1.036 0.575 1.299 1.106 3.963 6.946 8.043 13.829 11.951 20.805v0.822c-0.232 0.758-0.963 1.296-1.763 1.243-7.864 0-15.729 0.003-23.592-0.001-0.83 0.047-1.538-0.552-1.764-1.325v-0.595c0.199-0.561 0.519-1.067 0.818-1.58 3.771-6.53 7.536-13.064 11.308-19.593 0.235-0.442 0.67-0.719 1.13-0.883M13.197 0.327c-0.423 0.118-0.728 0.458-0.926 0.834-3.927 6.824-7.875 13.637-11.797 20.464-0.575 0.839 0.141 2.083 1.14 2.065 7.962 0.014 15.925 0.008 23.889 0.001 1.040 0.052 1.742-1.226 1.172-2.088-3.951-6.857-7.908-13.71-11.863-20.564-0.296-0.565-0.993-0.918-1.615-0.712z"></path>
<path fill="#000" d="M13.197 0.327c0.622-0.206 1.319 0.146 1.615 0.712 3.955 6.854 7.912 13.707 11.863 20.564 0.571 0.862-0.132 2.14-1.172 2.088-7.963 0.007-15.927 0.012-23.889-0.001-0.999 0.018-1.715-1.226-1.14-2.065 3.921-6.827 7.87-13.639 11.797-20.464 0.198-0.376 0.503-0.716 0.926-0.834M3.14 21.456c6.96 0.007 13.919 0.005 20.879 0-3.473-6.031-6.955-12.056-10.435-18.081-3.498 6.016-6.967 12.052-10.443 18.081z"></path>
<path fill="#000" d="M9.567 15.599c0.773-1.134 1.262-2.427 1.65-3.736 0.324 0.125 0.649 0.248 0.978 0.365-0.125 0.136-0.247 0.274-0.366 0.414 0.689-0.049 1.379-0.026 2.069-0.035 0.001-0.255 0.003-0.51 0.005-0.765 0.328 0.018 0.658 0.038 0.987 0.058-0.037 0.232-0.071 0.465-0.1 0.698 0.682 0.023 1.364 0.007 2.046 0.015 0 0.302-0.001 0.606-0.003 0.908-1.615 0.003-3.23 0.003-4.845 0-0.007-0.292-0.018-0.583-0.038-0.875-0.163 0.477-0.59 0.975-0.404 1.497-0.176 2.035-0.024 4.095-0.077 6.14-0.294 0-0.588 0.001-0.883 0.003-0.012-1.508 0.005-3.017-0.009-4.526-0.195 0.309-0.393 0.616-0.597 0.919-0.136-0.361-0.274-0.721-0.414-1.081z"></path>
<path fill="#000" d="M12.477 13.858c1.284-0.001 2.568 0 3.854 0 0.009 0.637 0.008 1.276 0.001 1.913-1.285 0.005-2.571 0.004-3.855 0.001-0.007-0.639-0.007-1.276 0-1.915M13.341 14.564c-0.004 0.16-0.007 0.319-0.011 0.479 0.698 0.014 1.397 0.014 2.095 0-0.004-0.16-0.008-0.319-0.011-0.479-0.692-0.003-1.382-0.003-2.073 0z"></path>
<path fill="#000" d="M11.801 16.111c1.71-0.004 3.421-0.005 5.132 0 0.005 0.58 0.005 1.162-0.001 1.742-0.273 0-0.546 0-0.82 0.001-0.007-0.304-0.011-0.607-0.016-0.911-1.166-0.007-2.331-0.005-3.497-0.001-0.003 0.306-0.005 0.613-0.008 0.921-0.263-0.001-0.526-0.001-0.789 0.001-0.007-0.584-0.007-1.17 0-1.753z"></path>
<path fill="#000" d="M12.853 17.314c1.009-0.005 2.018-0.005 3.026 0 0 0.281 0 0.561 0.001 0.843-0.357 0.003-0.713 0.004-1.068 0.008-0.042 0.583 0.117 1.233-0.172 1.768-0.449 0.441-1.159 0.311-1.734 0.343-0.089-0.325-0.187-0.648-0.286-0.971 0.422 0.018 0.845 0.023 1.268 0.009 0.012-0.382 0.015-0.763 0.014-1.144-0.35-0.009-0.7-0.011-1.048-0.015 0-0.281 0-0.561 0-0.842z"></path>
<path fill="#ffb71a" d="M3.14 21.456c3.477-6.030 6.945-12.065 10.443-18.081 3.481 6.026 6.963 12.050 10.435 18.081-6.96 0.005-13.919 0.007-20.879 0M9.567 15.599c0.14 0.359 0.278 0.72 0.414 1.081 0.203-0.304 0.401-0.61 0.597-0.919 0.015 1.509-0.003 3.018 0.009 4.526 0.294-0.001 0.588-0.003 0.883-0.003 0.053-2.045-0.099-4.104 0.077-6.14-0.186-0.522 0.241-1.020 0.404-1.497 0.020 0.292 0.031 0.583 0.038 0.875 1.615 0.003 3.23 0.003 4.845 0 0.001-0.302 0.003-0.606 0.003-0.908-0.682-0.008-1.364 0.008-2.046-0.015 0.030-0.233 0.064-0.466 0.1-0.698-0.329-0.020-0.659-0.041-0.987-0.058-0.003 0.255-0.004 0.51-0.005 0.765-0.69 0.009-1.38-0.014-2.069 0.035 0.119-0.14 0.241-0.278 0.366-0.414-0.328-0.117-0.654-0.24-0.978-0.365-0.388 1.308-0.877 2.602-1.65 3.736M12.477 13.858c-0.007 0.639-0.007 1.276 0 1.915 1.284 0.003 2.57 0.004 3.855-0.001 0.007-0.637 0.008-1.276-0.001-1.913-1.285 0-2.569-0.001-3.854 0M11.801 16.111c-0.007 0.583-0.007 1.169 0 1.753 0.263-0.003 0.526-0.003 0.789-0.001 0.003-0.308 0.005-0.614 0.008-0.921 1.166-0.004 2.331-0.005 3.497 0.001 0.005 0.304 0.009 0.607 0.016 0.911 0.274-0.001 0.548-0.001 0.82-0.001 0.007-0.58 0.007-1.162 0.001-1.742-1.711-0.005-3.422-0.004-5.132 0M12.853 17.314c0 0.281 0 0.561 0 0.842 0.348 0.004 0.698 0.005 1.048 0.015 0.001 0.381-0.001 0.762-0.014 1.144-0.423 0.014-0.846 0.008-1.268-0.009 0.099 0.323 0.197 0.645 0.286 0.971 0.575-0.033 1.285 0.098 1.734-0.343 0.289-0.536 0.13-1.185 0.172-1.768 0.355-0.004 0.712-0.005 1.068-0.008-0.001-0.282-0.001-0.563-0.001-0.843-1.009-0.005-2.018-0.005-3.026 0z"></path>
<path fill="#ffb71a" d="M13.341 14.564c0.692-0.003 1.382-0.003 2.073 0 0.003 0.16 0.007 0.319 0.011 0.479-0.698 0.014-1.397 0.014-2.095 0 0.004-0.16 0.007-0.319 0.011-0.479z"></path>
</svg>
