<?xml version="1.0" encoding="utf-8"?>
<!-- Generated by IcoMoon.io -->
<!DOCTYPE svg PUBLIC "-//W3C//DTD SVG 1.1//EN" "http://www.w3.org/Graphics/SVG/1.1/DTD/svg11.dtd">
<svg version="1.1" xmlns="http://www.w3.org/2000/svg" xmlns:xlink="http://www.w3.org/1999/xlink" width="24" height="24" viewBox="0 0 24 24">
<path fill="#ffd520" d="M11.452 0.284c0.282-0.342 0.811-0.344 1.093 0 3.432 3.415 6.85 6.847 10.278 10.267 0.385 0.383 0.751 0.786 1.177 1.124v0.064c-0.017 0.025-0.052 0.076-0.070 0.101 0.095 0.27-0.026 0.53-0.224 0.713-3.319 3.317-6.638 6.635-9.956 9.954-0.512 0.497-0.998 1.024-1.538 1.493h-0.42c-3.54-3.468-7.019-6.998-10.537-10.489-0.42-0.466-0.966-0.833-1.254-1.404v-0.074c0.029-0.256 0.17-0.475 0.347-0.652 3.704-3.696 7.399-7.402 11.105-11.096M11.689 0.3c-3.781 3.738-7.519 7.522-11.287 11.274-0.241 0.191-0.314 0.581-0.055 0.791 3.62 3.625 7.248 7.244 10.868 10.868 0.283 0.27 0.654 0.826 1.085 0.473 3.696-3.668 7.366-7.366 11.057-11.039 0.181-0.2 0.451-0.373 0.468-0.67-0.023-0.294-0.289-0.469-0.47-0.67-3.644-3.638-7.285-7.282-10.925-10.926-0.179-0.211-0.521-0.317-0.74-0.102z"></path>
<path fill="#ffd520" d="M10.55 1.906c0.484-0.474 0.947-0.968 1.448-1.424 3.089 3.031 6.125 6.116 9.193 9.169 0.773 0.786 1.574 1.543 2.326 2.35-3.829 3.85-7.668 7.69-11.518 11.518-3.85-3.828-7.69-7.669-11.519-11.518 3.332-3.389 6.718-6.726 10.069-10.094M9.972 4.111c0.025 0.992-0.090 2.003 0.16 2.976 0.283 1.159 0.965 2.21 1.885 2.966 1.067 0.84 2.454 1.211 3.8 1.126-0.121 0.432-0.299 0.853-0.347 1.302 0.056 0.312 0.462 0.412 0.682 0.202 1.21-0.856 2.434-1.692 3.643-2.548-1.226-0.83-2.45-1.666-3.682-2.489-0.232-0.214-0.64-0.043-0.654 0.27 0.070 0.431 0.227 0.842 0.336 1.264-0.548 0.059-1.118 0.064-1.639-0.145-1.231-0.424-2.089-1.638-2.195-2.92-0.042-0.666-0.008-1.336-0.018-2.003-0.658-0.001-1.315 0-1.972-0.001M7.915 11.262c-1.253 0.834-2.471 1.723-3.716 2.57 1.24 0.828 2.459 1.686 3.7 2.512 0.229 0.192 0.618 0.037 0.641-0.265-0.066-0.437-0.226-0.851-0.336-1.277 0.71-0.101 1.462-0.014 2.092 0.342 1.079 0.569 1.735 1.778 1.758 2.981 0.011 0.58-0.001 1.159 0.004 1.739 0.656 0.001 1.314 0 1.97 0.001-0.022-1.008 0.092-2.038-0.174-3.024-0.298-1.128-0.947-2.173-1.859-2.905-1.064-0.852-2.462-1.218-3.812-1.127 0.116-0.428 0.292-0.844 0.347-1.286-0.030-0.281-0.39-0.448-0.613-0.26z"></path>
<path fill="#000" d="M11.689 0.3c0.22-0.215 0.562-0.109 0.74 0.102 3.64 3.644 7.28 7.288 10.925 10.926 0.181 0.2 0.448 0.376 0.47 0.67-0.017 0.296-0.287 0.469-0.468 0.67-3.691 3.673-7.361 7.37-11.057 11.039-0.431 0.353-0.802-0.203-1.085-0.473-3.62-3.624-7.248-7.243-10.868-10.868-0.259-0.21-0.186-0.6 0.055-0.791 3.768-3.752 7.506-7.536 11.287-11.274M10.55 1.906c-3.352 3.368-6.737 6.706-10.069 10.094 3.829 3.848 7.669 7.69 11.519 11.518 3.85-3.828 7.688-7.668 11.518-11.518-0.751-0.806-1.553-1.564-2.326-2.35-3.068-3.053-6.104-6.138-9.193-9.169-0.502 0.456-0.965 0.95-1.448 1.424z"></path>
<path fill="#000" d="M9.972 4.111c0.656 0.001 1.314 0 1.972 0.001 0.010 0.667-0.024 1.337 0.018 2.003 0.106 1.282 0.964 2.496 2.195 2.92 0.521 0.209 1.091 0.204 1.639 0.145-0.109-0.421-0.266-0.833-0.336-1.264 0.014-0.313 0.422-0.484 0.654-0.27 1.231 0.823 2.455 1.658 3.682 2.489-1.21 0.856-2.434 1.692-3.643 2.548-0.22 0.21-0.625 0.11-0.682-0.202 0.048-0.449 0.226-0.87 0.347-1.302-1.346 0.085-2.734-0.286-3.8-1.126-0.92-0.756-1.602-1.807-1.885-2.966-0.25-0.973-0.134-1.984-0.16-2.976z"></path>
<path fill="#000" d="M7.915 11.262c0.223-0.187 0.583-0.020 0.613 0.26-0.055 0.443-0.23 0.858-0.347 1.286 1.35-0.091 2.748 0.275 3.812 1.127 0.912 0.732 1.561 1.777 1.859 2.905 0.266 0.986 0.152 2.016 0.174 3.024-0.656-0.001-1.314 0-1.97-0.001-0.005-0.58 0.007-1.159-0.004-1.739-0.023-1.202-0.679-2.412-1.758-2.981-0.63-0.356-1.381-0.443-2.092-0.342 0.11 0.426 0.27 0.84 0.336 1.277-0.023 0.302-0.412 0.457-0.641 0.265-1.241-0.826-2.46-1.684-3.7-2.512 1.246-0.847 2.464-1.736 3.716-2.57z"></path>
</svg>
