<?xml version="1.0" encoding="utf-8"?>
<!-- Generated by IcoMoon.io -->
<!DOCTYPE svg PUBLIC "-//W3C//DTD SVG 1.1//EN" "http://www.w3.org/Graphics/SVG/1.1/DTD/svg11.dtd">
<svg version="1.1" xmlns="http://www.w3.org/2000/svg" xmlns:xlink="http://www.w3.org/1999/xlink" width="24" height="24" viewBox="0 0 24 24">
<path fill="#fcec38" d="M11.512 1.534c0.263-0.124 0.561-0.079 0.843-0.088 0.297 0.332 0.683 0.603 0.851 1.029 0.134 0.232 0.291 0.448 0.412 0.687 0.109 0.196 0.243 0.375 0.357 0.567 0.062 0.134 0.124 0.268 0.186 0.403 0.116 0.193 0.251 0.372 0.371 0.564 0.029 0.072 0.087 0.215 0.117 0.286 0.19 0.32 0.419 0.619 0.56 0.968 0.126 0.234 0.281 0.451 0.418 0.68 0.163 0.383 0.408 0.723 0.612 1.086 0.132 0.233 0.291 0.451 0.414 0.69 0.108 0.196 0.24 0.375 0.349 0.571 0.145 0.277 0.334 0.53 0.477 0.808 0.109 0.196 0.243 0.375 0.357 0.568 0.062 0.134 0.126 0.268 0.188 0.401 0.208 0.306 0.407 0.622 0.554 0.964 0.113 0.193 0.247 0.372 0.363 0.564 0.062 0.134 0.124 0.269 0.186 0.404 0.116 0.19 0.25 0.37 0.364 0.56 0.062 0.135 0.124 0.269 0.188 0.404 0.141 0.228 0.297 0.444 0.429 0.677 0.063 0.15 0.132 0.299 0.196 0.45 0.19 0.32 0.418 0.618 0.559 0.966 0.126 0.236 0.283 0.451 0.423 0.677 0.033 0.070 0.097 0.21 0.13 0.28 0.066 0.132 0.131 0.265 0.196 0.4 0.114 0.19 0.247 0.37 0.363 0.56 0.062 0.135 0.124 0.269 0.188 0.404 0.207 0.308 0.406 0.622 0.554 0.964 0.112 0.193 0.246 0.372 0.361 0.564 0.062 0.134 0.124 0.268 0.188 0.401 0.178 0.277 0.361 0.552 0.517 0.844 0.127 0.303 0.098 0.644 0.014 0.954-0.163 0.222-0.35 0.422-0.537 0.623-0.919 0.003-1.837-0.012-2.756 0.010-0.219 0.194-0.516 0.112-0.778 0.13-6.163-0.006-12.326-0.003-18.487-0.001-0.163-0.001-0.323-0.023-0.48-0.066-0.223-0.145-0.412-0.334-0.557-0.559-0.088-0.354-0.119-0.745 0.014-1.092 0.154-0.291 0.339-0.567 0.52-0.843 0.032-0.070 0.095-0.21 0.128-0.279 0.066-0.132 0.131-0.266 0.196-0.399 0.114-0.193 0.248-0.374 0.366-0.566 0.032-0.069 0.097-0.208 0.128-0.277 0.095-0.185 0.188-0.372 0.273-0.563 0.128-0.233 0.284-0.451 0.423-0.677 0.109-0.225 0.218-0.45 0.324-0.676 0.116-0.192 0.25-0.372 0.366-0.564 0.062-0.134 0.124-0.268 0.186-0.401 0.141-0.228 0.298-0.446 0.43-0.679 0.030-0.072 0.088-0.215 0.117-0.287 0.119-0.192 0.255-0.371 0.372-0.564 0.032-0.070 0.098-0.21 0.131-0.28 0.032-0.070 0.097-0.211 0.128-0.281 0.215-0.354 0.454-0.695 0.618-1.079 0.113-0.194 0.246-0.377 0.354-0.572 0.203-0.361 0.448-0.699 0.611-1.083 0.112-0.193 0.244-0.375 0.356-0.568 0.252-0.404 0.428-0.846 0.692-1.241 0.11-0.225 0.219-0.45 0.328-0.674 0.114-0.193 0.248-0.374 0.363-0.568 0.148-0.341 0.346-0.655 0.553-0.964 0.062-0.131 0.126-0.263 0.189-0.394 0.135-0.299 0.323-0.571 0.498-0.847 0.149-0.342 0.349-0.654 0.548-0.968 0.121-0.241 0.28-0.459 0.425-0.687 0.029-0.070 0.088-0.214 0.119-0.286 0.236-0.414 0.534-0.789 0.764-1.206 0.137-0.367 0.348-0.785 0.788-0.829M11.636 1.79c-0.508 0.141-0.716 0.674-0.971 1.081-1.372 2.323-2.719 4.661-4.004 7.033-1.954 3.386-3.873 6.792-5.76 10.217-0.183 0.342-0.433 0.663-0.517 1.050-0.094 0.579 0.412 1.159 1.003 1.12 7.036-0.026 14.072-0.022 21.108-0.063 0.458 0.014 0.905-0.292 1.011-0.749 0.131-0.378-0.070-0.757-0.257-1.077-1.778-3.017-3.414-6.114-5.201-9.127-1.782-2.975-3.474-6.004-5.232-8.994-0.221-0.408-0.734-0.618-1.179-0.49z"></path>
<path fill="#fcec38" d="M11.917 4.354c1.283 2.076 2.448 4.223 3.674 6.332 1.844 3.243 3.81 6.418 5.549 9.719-6.137 0.023-12.273 0.022-18.408 0.073 1.29-2.303 2.594-4.599 3.91-6.887 1.694-3.114 3.472-6.185 5.274-9.237M9.921 8.343c-1.123 1.975-2.2 3.977-3.268 5.982-1.066 1.906-2.123 3.817-3.166 5.735 5.65-0.048 11.301-0.041 16.95-0.070-0.103-0.201-0.207-0.403-0.31-0.603-1.055-0.090-2.113-0.068-3.167 0.004-0.695 0.048-1.168-0.583-1.274-1.207-0.145-0.034-0.288-0.068-0.43-0.102-0.070-0.566-0.739-0.735-0.801-1.295-0.363-0.92-0.128-1.916-0.237-2.869-0.066-0.032-0.196-0.092-0.262-0.123 0.003-0.276 0.004-0.553 0.003-0.83-0.56 0.003-0.295 0.56-0.295 0.908-0.731-0.003-1.459 0.023-2.19 0.022 0.066-1.081-0.055-2.153-0.211-3.219 0.048-0.648 0.19-1.308 0.488-1.891-0.023-0.335-0.034-0.672-0.026-1.008-0.27-0.299-0.549-0.589-0.834-0.873-0.462 0.374-0.673 0.943-0.968 1.44z"></path>
<path fill="#1d2725" d="M11.636 1.79c0.446-0.128 0.959 0.081 1.179 0.49 1.757 2.99 3.45 6.019 5.232 8.994 1.788 3.012 3.423 6.11 5.201 9.127 0.186 0.32 0.388 0.699 0.257 1.077-0.106 0.457-0.553 0.763-1.011 0.749-7.036 0.041-14.072 0.037-21.108 0.063-0.59 0.039-1.097-0.541-1.003-1.12 0.084-0.386 0.334-0.708 0.517-1.050 1.887-3.425 3.806-6.83 5.76-10.217 1.286-2.372 2.632-4.71 4.004-7.033 0.255-0.407 0.463-0.941 0.971-1.081M11.917 4.354c-1.803 3.052-3.581 6.123-5.274 9.237-1.316 2.288-2.621 4.583-3.91 6.887 6.135-0.051 12.272-0.050 18.408-0.073-1.739-3.301-3.705-6.476-5.549-9.719-1.226-2.109-2.392-4.257-3.674-6.332z"></path>
<path fill="#1d2725" d="M9.921 8.343c0.295-0.497 0.506-1.066 0.968-1.44 0.286 0.284 0.564 0.574 0.834 0.873-0.008 0.337 0.003 0.673 0.026 1.008-0.298 0.583-0.44 1.243-0.488 1.891 0.156 1.066 0.277 2.138 0.211 3.219 0.731 0.001 1.459-0.025 2.19-0.022 0-0.348-0.265-0.905 0.295-0.908 0.001 0.277 0 0.554-0.003 0.83 0.066 0.030 0.196 0.091 0.262 0.123 0.109 0.953-0.126 1.949 0.237 2.869 0.062 0.56 0.731 0.73 0.801 1.295 0.142 0.034 0.286 0.068 0.43 0.102 0.106 0.623 0.579 1.255 1.274 1.207 1.054-0.072 2.112-0.094 3.167-0.004 0.103 0.2 0.207 0.401 0.31 0.603-5.65 0.029-11.301 0.022-16.95 0.070 1.043-1.919 2.099-3.829 3.166-5.735 1.068-2.006 2.145-4.007 3.268-5.982z"></path>
</svg>
