<svg xmlns="http://www.w3.org/2000/svg" width="24" height="24">
    <path fill="#fecf33" d="M11.73 0h.506c.27.11.527.258.732.468 3.521 3.522 7.042 7.043 10.565 10.564.202.2.349.446.467.704v.492c-.101.245-.224.486-.416.673-3.536 3.545-7.084 7.08-10.62 10.627-.197.202-.44.353-.695.472h-.506c-.242-.101-.479-.226-.666-.414C7.538 20.024 3.976 16.464.415 12.904a2.372 2.372 0 0 1-.414-.638v-.499c.176-.535.63-.888 1.009-1.276C4.351 7.15 7.693 3.809 11.032.467c.2-.199.444-.347.698-.467zm-.062.391c-.188.074-.335.221-.48.356C7.69 4.25 4.187 7.748.688 11.251c-.431.35-.48 1.055-.055 1.432 3.562 3.562 7.124 7.123 10.685 10.686.352.391 1.014.39 1.366 0 3.56-3.564 7.123-7.124 10.685-10.687.421-.377.373-1.08-.056-1.43C19.793 7.73 16.273 4.209 12.751.69c-.265-.299-.697-.45-1.081-.298z"/>
    <path fill="#fecf33" d="M11.788.857c.223-.12.479-.01.632.167A26264.1 26264.1 0 0 1 22.976 11.58c.239.185.3.568.054.773a8956.277 8956.277 0 0 1-10.678 10.676c-.205.251-.586.186-.767-.056-3.536-3.542-7.081-7.078-10.616-10.62-.282-.235-.148-.641.11-.834C4.657 7.975 8.178 4.367 11.787.857zm-2 5.687c-.246.053-.607.089-.608.42.24.362.718.455 1.064.694-1.691 1.706-3.398 3.396-5.092 5.1.388.395.778.786 1.174 1.174 1.704-1.696 3.396-3.402 5.101-5.095.269.325.438 1.334.974.936.326-1.272.516-2.58.786-3.866-1.136.193-2.266.431-3.4.638zm6.165.363c.15.143.295.293.454.428.288-.288.577-.575.86-.868-.146-.146-.29-.294-.437-.44a55.98 55.98 0 0 0-.877.88zm-.667.659c-.29.289-.581.58-.869.871l.44.443c.295-.288.588-.581.876-.877a36.657 36.657 0 0 0-.448-.437zm-2.404 2.411l.44.438c.347-.395 1.238-.876.448-1.316-.307.282-.601.577-.888.878zm.804 1.065c-.431.56.606.734.931.994-.697.608-1.331 1.397-1.366 2.364a263.052 263.052 0 0 0-.002 5.33c.552-.002 1.104 0 1.656-.005.014-1.736-.012-3.473.012-5.209.016-.569.502-.937.88-1.295.251.331.439 1.346.988.913.319-1.271.51-2.575.77-3.862-1.291.246-2.598.44-3.869.769zm-7.58 5.728l.415.422c1.452-1.405 2.869-2.848 4.31-4.265-.146.559-.262 1.13-.254 1.71-.007 2.062-.025 4.123-.019 6.185.202 0 .403.008.606.008.066-2.144.005-4.294.046-6.439.043-1.242.599-2.429 1.451-3.323l-.437-.433c-2.044 2.04-4.087 4.081-6.118 6.134z"/>
    <path d="M11.668.391c.384-.152.816-.001 1.081.298 3.522 3.52 7.043 7.04 10.562 10.562.43.35.478 1.054.056 1.43-3.562 3.563-7.124 7.123-10.685 10.687-.352.39-1.014.391-1.366 0-3.56-3.563-7.123-7.124-10.685-10.686-.425-.377-.376-1.081.055-1.432C4.185 7.747 7.688 4.249 11.186.746c.145-.136.292-.282.48-.356zm.12.466C8.18 4.367 4.659 7.975 1.08 11.519c-.258.193-.392.599-.11.834 3.535 3.542 7.08 7.078 10.616 10.62.181.242.562.307.767.056 3.562-3.554 7.12-7.115 10.678-10.676.246-.205.185-.588-.054-.773C19.46 8.06 15.94 4.542 12.421 1.024c-.154-.176-.409-.287-.632-.167z"/>
    <path d="M9.788 6.544c1.134-.208 2.263-.445 3.4-.638-.27 1.286-.46 2.594-.786 3.866-.536.398-.706-.611-.974-.936-1.705 1.693-3.397 3.4-5.101 5.095a86.632 86.632 0 0 1-1.174-1.174c1.693-1.704 3.401-3.394 5.092-5.1-.347-.239-.824-.331-1.064-.694.001-.331.362-.367.608-.42zM15.953 6.907c.29-.295.581-.59.877-.88.146.146.29.294.437.44-.283.293-.572.58-.86.868-.158-.136-.304-.286-.454-.428zM15.286 7.566c.15.144.299.289.448.437-.288.296-.581.589-.876.877l-.44-.443c.288-.292.578-.582.869-.871zM12.882 9.977c.287-.301.581-.596.888-.878.791.44-.101.922-.448 1.316l-.44-.438zM13.686 11.042c1.271-.329 2.578-.523 3.869-.769-.26 1.286-.451 2.591-.77 3.862-.548.433-.737-.582-.988-.913-.378.358-.864.726-.88 1.295-.024 1.736.002 3.473-.012 5.209-.552.005-1.104.002-1.656.005-.013-1.776-.019-3.554.002-5.33.035-.967.668-1.756 1.366-2.364-.325-.259-1.362-.433-.931-.994zM6.106 16.77c2.03-2.053 4.074-4.094 6.118-6.134.145.144.29.289.437.433-.852.894-1.408 2.081-1.451 3.323-.041 2.146.02 4.295-.046 6.439-.203 0-.404-.008-.606-.008-.006-2.062.012-4.123.019-6.185-.007-.58.108-1.151.254-1.71-1.441 1.417-2.858 2.86-4.31 4.265-.138-.142-.277-.282-.415-.422z"/>
</svg>
