<?xml version="1.0" encoding="utf-8"?>
<!-- Generated by IcoMoon.io -->
<!DOCTYPE svg PUBLIC "-//W3C//DTD SVG 1.1//EN" "http://www.w3.org/Graphics/SVG/1.1/DTD/svg11.dtd">
<svg version="1.1" xmlns="http://www.w3.org/2000/svg" xmlns:xlink="http://www.w3.org/1999/xlink" width="24" height="24" viewBox="0 0 24 24">
<path fill="#f8e236" d="M11.471 1.931c0.46-0.182 0.984-0.105 1.347 0.237 0.135 0.223 0.285 0.436 0.406 0.668 0.127 0.224 0.276 0.436 0.407 0.659 0.028 0.068 0.084 0.206 0.111 0.274 0.141 0.217 0.29 0.428 0.418 0.652 0.029 0.069 0.085 0.206 0.114 0.274 0.138 0.217 0.288 0.43 0.418 0.654 0.028 0.069 0.084 0.206 0.111 0.274 0.141 0.216 0.292 0.427 0.41 0.658 0.126 0.225 0.276 0.436 0.404 0.66 0.030 0.068 0.093 0.202 0.125 0.269 0.030 0.068 0.093 0.202 0.123 0.269 0.202 0.294 0.4 0.594 0.533 0.928 0.199 0.296 0.398 0.594 0.532 0.927 0.134 0.22 0.285 0.431 0.412 0.656 0.029 0.068 0.085 0.206 0.113 0.274 0.139 0.216 0.29 0.426 0.415 0.651 0.080 0.182 0.166 0.361 0.251 0.54 0.137 0.22 0.286 0.431 0.416 0.656 0.028 0.068 0.084 0.206 0.11 0.273 0.206 0.293 0.402 0.594 0.537 0.927 0.134 0.221 0.285 0.431 0.414 0.655 0.028 0.069 0.084 0.206 0.113 0.274 0.139 0.216 0.29 0.427 0.408 0.658 0.126 0.225 0.276 0.436 0.407 0.659 0.028 0.069 0.084 0.207 0.111 0.274 0.141 0.217 0.292 0.427 0.408 0.658 0.126 0.225 0.276 0.436 0.408 0.658 0.028 0.070 0.084 0.212 0.11 0.282 0.208 0.289 0.403 0.589 0.536 0.922 0.198 0.296 0.396 0.594 0.532 0.927 0.133 0.221 0.282 0.432 0.419 0.651 0.058 0.298 0.343 0.675 0.175 0.949 0.074 0.452-0.321 0.712-0.609 0.983-1.351 0.040-2.706-0.003-4.057 0.019-0.156-0.070-0.414 0.293-0.414-0.021-0.103 0.111-0.228 0.162-0.375 0.151-5.35 0-10.699-0.005-16.050 0.003-0.16 0.012-0.314-0.015-0.46-0.080-0.228-0.115-0.407-0.294-0.524-0.521-0.139-0.39-0.13-0.855 0.092-1.215 0.034-0.064 0.102-0.192 0.137-0.257 0.143-0.329 0.337-0.63 0.537-0.926 0.133-0.334 0.33-0.635 0.534-0.928 0.028-0.068 0.084-0.206 0.111-0.274 0.129-0.224 0.278-0.435 0.418-0.652 0.029-0.069 0.085-0.207 0.114-0.276 0.129-0.224 0.278-0.436 0.416-0.654 0.029-0.069 0.085-0.206 0.114-0.274 0.129-0.224 0.278-0.436 0.416-0.654 0.029-0.069 0.085-0.206 0.113-0.273 0.129-0.225 0.278-0.436 0.419-0.655 0.028-0.068 0.084-0.206 0.113-0.273 0.127-0.225 0.277-0.436 0.415-0.655 0.084-0.182 0.17-0.361 0.256-0.541 0.101-0.122 0.198-0.249 0.28-0.385 0.028-0.069 0.081-0.208 0.109-0.277 0.13-0.223 0.278-0.435 0.416-0.654 0.030-0.068 0.091-0.202 0.122-0.269 0.149-0.325 0.339-0.628 0.54-0.924 0.133-0.334 0.333-0.632 0.53-0.93 0.13-0.334 0.339-0.626 0.524-0.931 0.115-0.232 0.268-0.442 0.408-0.659 0.028-0.069 0.084-0.206 0.113-0.273 0.129-0.225 0.277-0.438 0.415-0.656 0.085-0.179 0.17-0.358 0.251-0.54 0.127-0.224 0.277-0.434 0.404-0.658 0.117-0.231 0.268-0.439 0.403-0.659 0.133-0.334 0.339-0.627 0.525-0.932 0.115-0.231 0.268-0.439 0.403-0.659 0.133-0.333 0.335-0.628 0.528-0.93 0.098-0.28 0.288-0.512 0.558-0.642M11.215 2.86c-1.665 2.973-3.404 5.905-5.065 8.88-0.065 0.023-0.195 0.066-0.26 0.089 0.062 0.138 0.074 0.289-0.027 0.416-1.498 2.645-3.030 5.273-4.541 7.911-0.386 0.533-0.024 1.416 0.662 1.429 6.278 0.011 12.557-0.065 18.835-0.090 0.469-0.016 0.949 0.042 1.411-0.061 0.532-0.21 0.712-0.92 0.411-1.387-0.826-1.469-1.669-2.928-2.511-4.388-2.503-4.24-4.845-8.574-7.329-12.825-0.324-0.589-1.284-0.575-1.586 0.025z"></path>
<path fill="#f8e236" d="M12.005 4.87c2.916 4.95 5.654 10.003 8.559 14.96-5.718 0.036-11.434 0.069-17.151 0.078 2.033-3.52 4.014-7.070 6.066-10.579 0.843-1.486 1.691-2.969 2.526-4.459M3.913 19.684c5.443 0.050 10.888-0.072 16.332-0.060-1.421-2.472-2.803-4.964-4.19-7.453-4.031 2.53-8.094 5.011-12.142 7.513z"></path>
<path fill="#f8e236" d="M10.213 17.003c1.339-0.796 2.67-1.603 3.996-2.42 0.127 0.196 0.253 0.392 0.379 0.589-1.333 0.8-2.667 1.598-3.981 2.427 0.333 0.053 0.667 0.102 0.998 0.164-0.272 0.199-0.532 0.443-0.862 0.538-0.505-0.044-1.002-0.15-1.5-0.245 0.164-0.488 0.252-1.001 0.444-1.478 0.231-0.247 0.548-0.389 0.827-0.57-0.098 0.333-0.202 0.664-0.304 0.996z"></path>
<path fill="#1c2524" d="M11.215 2.86c0.302-0.601 1.262-0.614 1.586-0.025 2.484 4.251 4.825 8.584 7.329 12.825 0.842 1.46 1.685 2.918 2.511 4.388 0.301 0.467 0.121 1.177-0.411 1.387-0.461 0.103-0.941 0.045-1.411 0.061-6.278 0.025-12.557 0.101-18.835 0.090-0.686-0.013-1.048-0.896-0.662-1.429 1.512-2.637 3.043-5.265 4.541-7.911 0.101-0.127 0.089-0.278 0.027-0.416 0.065-0.023 0.195-0.066 0.26-0.089 1.661-2.975 3.4-5.907 5.065-8.88M12.005 4.87c-0.835 1.49-1.683 2.973-2.526 4.459-2.053 3.509-4.034 7.058-6.066 10.579 5.718-0.009 11.434-0.042 17.151-0.078-2.905-4.956-5.643-10.010-8.559-14.96z"></path>
<path fill="#1c2524" d="M3.913 19.684c4.048-2.502 8.111-4.983 12.142-7.513 1.387 2.489 2.769 4.982 4.19 7.453-5.444-0.012-10.889 0.11-16.332 0.060M10.213 17.003c0.102-0.331 0.206-0.663 0.304-0.996-0.28 0.182-0.597 0.324-0.827 0.57-0.192 0.477-0.28 0.99-0.444 1.478 0.497 0.095 0.994 0.202 1.5 0.245 0.33-0.095 0.59-0.339 0.862-0.538-0.332-0.062-0.666-0.111-0.998-0.164 1.314-0.829 2.648-1.627 3.981-2.427-0.126-0.196-0.252-0.392-0.379-0.589-1.326 0.817-2.657 1.624-3.996 2.42z"></path>
</svg>
