<svg xmlns="http://www.w3.org/2000/svg" width="24" height="24">
    <path fill="#ec1d24" d="M11.831 1.333h.501c.473.115.921.38 1.162.815 3.336 5.761 6.664 11.527 9.998 17.289.241.422.506.834.685 1.287v.667a1.755 1.755 0 0 1-1.317 1.276H1.341C.669 22.535.155 21.989 0 21.332v-.502c.077-.244.175-.482.304-.704C3.77 14.139 7.228 8.147 10.694 2.16c.233-.434.676-.695 1.137-.826zM2.54 20.532c6.372.003 12.745.004 19.116 0-3.183-5.509-6.364-11.02-9.558-16.523C8.904 9.512 5.722 15.022 2.54 20.532z"/>
    <path fill="#fff" d="M2.54 20.532c3.182-5.509 6.364-11.02 9.558-16.523 3.194 5.503 6.375 11.013 9.558 16.523-6.372.004-12.744.003-19.116 0zm8.702-9.16l-.078.169c-.793-.008-1.585-.002-2.378-.004-.551.932-1.112 1.86-1.644 2.803-.033 1.883-.004 3.769-.014 5.652 3.313.003 6.626.001 9.939.001-.009-1.887.024-3.777-.016-5.661-.54-.939-1.084-1.878-1.654-2.8-.795.014-1.589-.003-2.384.01l-.066-.175a27.69 27.69 0 0 0-1.705.005z"/>
    <path fill="#fff" d="M11.436 11.54c.442-.004.883-.003 1.324-.001a46.23 46.23 0 0 1-.138.908c-.349-.03-.7-.033-1.049.005a71.859 71.859 0 0 1-.138-.913zM8.935 11.706c.348-.004.697-.001 1.044-.004.172.306.33.619.491.931a8.996 8.996 0 0 0-.543.342c-.33-.423-.662-.845-.992-1.269zM10.196 11.706c.354-.004.708-.004 1.061 0 .03.2.062.4.099.6-.24.081-.482.156-.717.251-.163-.276-.298-.565-.443-.851zM12.842 12.31l.1-.606c.352-.001.705-.002 1.057.002-.14.285-.287.57-.431.854a11.508 11.508 0 0 0-.726-.25zM13.725 12.632c.159-.311.32-.621.487-.928.348-.001.698-.002 1.046.001-.325.427-.661.845-.988 1.27-.179-.12-.36-.234-.545-.343zM8.009 13.193c.253-.452.524-.893.792-1.337.332.407.658.82.987 1.229a5.242 5.242 0 0 0-.664.756c-.372-.216-.74-.439-1.115-.649zM14.406 13.089c.329-.412.654-.826.988-1.232.265.446.549.882.786 1.343-.377.204-.74.429-1.112.642a4.517 4.517 0 0 0-.662-.753z"/>
    <path fill="#fff" d="M8.744 15.548c.063-1.448 1.184-2.72 2.579-3.059l.132.166a3.32 3.32 0 0 1 1.291.004l.115-.172c1.401.331 2.526 1.609 2.591 3.06.023 1.422.004 2.845.01 4.268h-.522c-.01-1.423.016-2.846-.013-4.268-.077-1.436-1.402-2.643-2.836-2.601-1.428-.033-2.743 1.171-2.82 2.6-.028 1.422-.002 2.846-.013 4.269l-.521-.001c.006-1.422-.012-2.845.009-4.268zM7.308 14.389c.204-.345.404-.692.613-1.034.373.209.744.423 1.107.65a4.705 4.705 0 0 0-.335.791c-.462-.134-.924-.267-1.385-.407zM15.169 14.011c.357-.237.732-.444 1.105-.654.209.341.409.689.613 1.034-.459.14-.92.268-1.378.407a6.29 6.29 0 0 0-.34-.787zM7.295 14.59c.453.123.91.237 1.353.396a5.97 5.97 0 0 0-.108.775c-.414.004-.828.003-1.243.001-.002-.391-.001-.781-.002-1.172zM15.554 14.973c.446-.135.894-.266 1.346-.383.001.39.002.78-.001 1.172-.414.003-.828.002-1.242.001-.025-.265-.06-.528-.103-.789zM7.298 15.944c.416.001.831 0 1.247.002.004.278.004.557.001.836-.416.002-.832.002-1.249.001-.003-.28-.003-.559.001-.839zM15.65 15.944c.417.001.834-.001 1.25.002.002.279.001.557-.001.836-.417.002-.833.001-1.249.001-.004-.28-.004-.559 0-.839zM7.297 16.961c.416-.002.833-.002 1.249.001.004.278.004.556 0 .835-.416.003-.833.003-1.249.001a38.829 38.829 0 0 1 0-.836zM15.649 16.961c.416-.002.833-.002 1.25.001.003.278.003.556-.001.835-.416.003-.833.003-1.249.001a38.829 38.829 0 0 1 0-.836zM7.297 17.966c.416-.001.833-.002 1.249.001.004.278.004.558-.004.837H7.298a33.442 33.442 0 0 1-.001-.838zM15.649 17.966c.417-.001.833-.002 1.25.001.003.278.003.557-.002.836-.415.002-.831.001-1.247.001a33.442 33.442 0 0 1-.001-.838zM7.296 18.982c.417-.003.833-.003 1.25.001.003.278.003.557 0 .836-.416.003-.833.002-1.25.001a58.381 58.381 0 0 1 0-.837zM15.649 18.982c.416-.003.833-.003 1.249.001.004.278.004.557.001.836-.417.003-.834.002-1.251.001-.002-.279-.002-.558.001-.837z"/>
    <path d="M11.242 11.372a27.69 27.69 0 0 1 1.705-.005l.066.175c.795-.012 1.589.004 2.384-.01.57.922 1.115 1.861 1.654 2.8.04 1.884.007 3.774.016 5.661-3.313 0-6.626.002-9.939-.001.01-1.884-.019-3.77.014-5.652.532-.943 1.092-1.871 1.644-2.803.793.002 1.585-.004 2.378.004l.078-.169zm.194.168c.044.304.09.609.138.913.348-.038.7-.036 1.049-.005.049-.302.095-.605.138-.908a97.376 97.376 0 0 0-1.324.001zm-2.501.166c.33.424.662.846.992 1.269.177-.121.358-.235.543-.342-.161-.312-.319-.625-.491-.931-.348.003-.696 0-1.044.004zm1.261 0c.145.285.28.575.443.851.236-.095.477-.17.717-.251-.036-.2-.068-.4-.099-.6a46.907 46.907 0 0 0-1.061 0zm2.646.604c.244.076.488.156.726.25.144-.284.291-.569.431-.854a74.485 74.485 0 0 0-1.057-.002l-.1.606zm.883.322c.185.109.366.223.545.343.327-.425.663-.844.988-1.27a91.177 91.177 0 0 0-1.046-.001c-.167.307-.328.617-.487.928zm-5.716.561c.375.21.743.433 1.115.649.195-.274.42-.525.664-.756-.329-.41-.654-.822-.987-1.229-.268.444-.539.885-.792 1.337zm6.397-.104c.247.227.471.477.662.753.372-.212.735-.438 1.112-.642-.236-.461-.521-.897-.786-1.343-.334.406-.66.82-.988 1.232zm-5.662 2.459c-.021 1.422-.003 2.845-.009 4.268l.521.001c.012-1.423-.014-2.847.013-4.269.076-1.429 1.391-2.633 2.82-2.6 1.435-.042 2.759 1.165 2.836 2.601.029 1.422.004 2.845.013 4.268h.522c-.005-1.423.013-2.846-.01-4.268-.065-1.451-1.19-2.729-2.591-3.06l-.115.172a3.3 3.3 0 0 0-1.291-.004l-.132-.166c-1.395.339-2.516 1.611-2.579 3.059zm-1.436-1.159c.46.14.923.273 1.385.407.087-.274.2-.538.335-.791a26.048 26.048 0 0 0-1.107-.65c-.209.342-.409.689-.613 1.034zm7.861-.378c.134.252.243.518.34.787.458-.14.919-.267 1.378-.407-.204-.345-.404-.692-.613-1.034-.372.211-.748.417-1.105.654zm-7.874.579c.001.39 0 .78.002 1.172.414.002.828.003 1.243-.001.02-.26.055-.519.108-.775-.443-.158-.9-.273-1.353-.396zm8.259.383c.043.261.078.524.103.789.413.001.828.002 1.242-.001.003-.391.002-.781.001-1.172-.452.117-.9.248-1.346.383zm-8.256.971c-.004.28-.004.559-.001.839.417.001.833.001 1.249-.001.004-.279.004-.558-.001-.836-.416-.002-.831-.001-1.247-.002zm8.352 0c-.004.28-.004.559 0 .839.416 0 .832.001 1.249-.001.002-.279.003-.557.001-.836-.416-.003-.833-.001-1.25-.002zm-8.353 1.017c-.003.279-.003.557 0 .836.416.002.833.002 1.249-.001.004-.278.004-.556 0-.835-.416-.003-.833-.003-1.249-.001zm8.352 0c-.003.279-.003.557 0 .836.416.002.833.002 1.249-.001.004-.278.004-.556.001-.835-.417-.003-.834-.003-1.25-.001zm-8.352 1.005c-.003.279-.003.559.001.838h1.244c.007-.279.007-.559.004-.837-.416-.003-.833-.002-1.249-.001zm8.352 0c-.003.279-.003.559.001.838.416 0 .832.001 1.247-.001.004-.279.004-.558.002-.836-.417-.003-.833-.002-1.25-.001zm-8.353 1.016c-.002.279-.002.558 0 .837.417.001.834.002 1.25-.001.003-.278.003-.557 0-.836a74.406 74.406 0 0 0-1.25-.001zm8.353 0c-.003.279-.003.558-.001.837.417.001.834.002 1.251-.001.003-.278.003-.557-.001-.836a74.287 74.287 0 0 0-1.249-.001z"/>
</svg>
