<!-- Generated by IcoMoon.io -->
<svg version="1.1" xmlns="http://www.w3.org/2000/svg" width="17" height="24" viewBox="0 0 17 24">
<title>warning--school-zone--g2</title>
<path fill="#050505" d="M8.080 0.274c0.282-0.329 0.87-0.339 1.158-0.013 2.418 2.364 4.797 4.768 7.174 7.173 0.34 0.348 0.686 0.691 1.010 1.054v8.752c-0.084-0.010-0.092 0.148 0 0.1v5.738c-0.112 0.408-0.471 0.763-0.883 0.851-5.167 0.054-10.335 0.035-15.502 0.001-0.493 0.035-0.82-0.429-1.039-0.808v-14.84c2.702-2.661 5.353-5.372 8.080-8.008M8.444 0.487c-2.642 2.611-5.258 5.252-7.89 7.874-0.128 0.142-0.33 0.267-0.307 0.485-0 2.666-0.001 5.333 0 7.999-0.020 0.219 0.187 0.427 0.406 0.406 5.333-0.001 10.667 0 16-0 0.219 0.020 0.428-0.186 0.407-0.405 0-2.667 0.001-5.333-0-7.999 0.014-0.132-0.058-0.247-0.152-0.33-2.64-2.642-5.281-5.283-7.922-7.924-0.126-0.159-0.366-0.202-0.541-0.105M0.577 17.345c-0.078-0-0.156 0.002-0.233 0.011-0.034-0.005-0.068-0.008-0.103-0.009 0.003 0.023 0.011 0.070 0.015 0.093 5.568 0.024 11.137 0.002 16.705 0.012 0.099 0.009 0.198-0.010 0.272-0.080-0.037-0.008-0.075-0.015-0.112-0.022-0.13-0.006-0.261-0.004-0.391-0.004-5.384-0.008-10.769-0.007-16.153-0.001M0.254 17.638c-0.013 1.697-0.001 3.395-0.007 5.093-0.016 0.51 0.438 0.967 0.944 0.98 4.949 0 9.898-0.001 14.847 0 0.174-0.008 0.385 0.040 0.517-0.107 0.252-0.045 0.462-0.272 0.537-0.514 0.005 0.019 0.015 0.058 0.020 0.078 0.049-0.167 0.070-0.34 0.068-0.514-0.003-1.642 0.003-3.285-0.003-4.927 0.012-0.126-0.137-0.095-0.215-0.1-5.569 0.010-11.139-0.012-16.708 0.011z"></path>
<path fill="#050505" d="M9.523 3.489c0.403-0.149 0.915-0.038 1.138 0.355 0.287 0.43 0.112 1.087-0.357 1.31-0.44 0.244-1.045 0.023-1.245-0.434-0.228-0.446 0.008-1.038 0.464-1.23z"></path>
<path fill="#050505" d="M5.837 5.192c0.5-0.227 1.132 0.108 1.213 0.653 0.086 0.48-0.3 0.967-0.78 1.012-0.48 0.055-0.965-0.368-0.944-0.857-0.022-0.343 0.198-0.675 0.511-0.808z"></path>
<path fill="#050505" d="M9.88 5.371c0.273 0.043 0.512-0.083 0.758-0.176 0.098 0.382 0.638 0.275 0.785 0.612 0.348 0.669 0.703 1.334 1.052 2.002 0.007 0.25-0.096 0.496-0.075 0.751 0.102-0.008 0.203-0.023 0.304-0.041 0.105 0.153 0.108 0.345 0.168 0.517 0.064 0.288 0.193 0.564 0.193 0.863-0.346 0.076-0.677 0.212-1.024 0.283 0.021 0.007 0.042 0.013 0.063 0.021-0.162 0.017-0.441 0.029-0.427 0.255 0.006 0.735-0.095 1.465-0.087 2.198 0.412 0.904 0.876 1.787 1.287 2.693-0.25 0.106-0.479 0.255-0.735 0.345-0.465-0.862-0.93-1.725-1.386-2.592-0.133-0.491-0.269-0.984-0.367-1.483-0.191 0.282-0.293 0.612-0.447 0.914-0.103 0.178-0.068 0.389-0.111 0.582-0.063 0.826-0.186 1.647-0.211 2.476-0.272-0.012-0.6 0.074-0.837-0.074 0.016-0.427 0.059-0.852 0.044-1.28 0.012 0.025 0.025 0.049 0.037 0.074 0.014-0.76 0.090-1.517 0.118-2.277 0.229-0.784 0.507-1.558 0.731-2.343-0.088-0.481-0.246-0.948-0.323-1.431-0.022-0.017-0.066-0.051-0.088-0.068-0.073 0.132-0.147 0.262-0.224 0.391-0.316 0.058-0.622 0.162-0.931 0.249-0.048 0.129-0.127 0.244-0.181 0.371 0.090 0.003 0.18 0.007 0.27 0.011 0.048 0.385 0.171 0.757 0.212 1.143-0.357 0.111-0.727 0.167-1.090 0.256 0.040 0.496 0.307 0.949 0.403 1.438-0.158 0.059-0.322 0.102-0.488 0.132 0.061 0.303 0.203 0.583 0.255 0.888 0.006-0.021 0.013-0.042 0.019-0.062 0.15 0.691 0.463 1.345 0.597 2.039-0.14 0.043-0.28 0.094-0.428 0.103-0.419-0.964-0.836-1.93-1.247-2.897-0.155-0.012-0.343-0.089-0.482-0.003-0.388 0.988-0.744 1.989-1.133 2.977-0.145-0.050-0.306-0.074-0.428-0.174 0.27-0.964 0.513-1.936 0.777-2.902 0.034-0.14-0.147-0.15-0.237-0.182 0.232-0.789 0.514-1.565 0.75-2.352-0.020-0.193-0.1-0.377-0.184-0.55-0.1 0.22-0.042 0.545-0.292 0.67-0.312 0.198-0.62 0.404-0.924 0.614-0.142 0.135-0.362-0.095-0.371-0.234 0.301-0.281 0.586-0.579 0.89-0.857 0.129-0.114 0.135-0.298 0.192-0.45 0.143-0.431 0.258-0.872 0.417-1.297 0.155-0.213 0.358-0.39 0.546-0.575 0.288 0.176 0.601-0.175 0.87 0.038 0.214 0.152 0.531 0.216 0.625 0.49 0.128 0.292 0.264 0.582 0.394 0.874 0.309-0.055 0.607-0.199 0.884-0.339 0.205-0.624 0.376-1.263 0.569-1.892 0.103-0.3 0.525-0.399 0.547-0.737M11.322 7.375c0.010 0.467 0.134 0.923 0.194 1.385 0.063-0.003 0.126-0.007 0.19-0.010 0.069-0.193 0.135-0.393 0.159-0.597-0.175-0.261-0.313-0.564-0.543-0.778M7.22 8.665c-0.025 0.223-0.106 0.434-0.128 0.657 0.051 0.002 0.102 0.004 0.153 0.006 0.11-0.195 0.182-0.433 0.071-0.645-0.032-0.006-0.063-0.012-0.095-0.018z"></path>
<path fill="#fecf45" d="M8.444 0.487c0.175-0.097 0.415-0.054 0.541 0.105 2.641 2.641 5.282 5.282 7.922 7.924 0.094 0.084 0.166 0.198 0.152 0.33 0.001 2.666 0 5.333 0 7.999 0.022 0.22-0.188 0.426-0.407 0.405-5.333 0.001-10.667-0-16 0-0.219 0.021-0.426-0.187-0.406-0.406-0.001-2.666-0-5.333 0-7.999-0.023-0.218 0.179-0.343 0.307-0.485 2.632-2.623 5.248-5.263 7.89-7.874M9.523 3.489c-0.456 0.192-0.692 0.785-0.464 1.23 0.2 0.457 0.805 0.678 1.245 0.434 0.469-0.223 0.643-0.88 0.357-1.31-0.223-0.393-0.735-0.503-1.138-0.355M5.837 5.192c-0.313 0.133-0.533 0.465-0.511 0.808-0.021 0.488 0.464 0.912 0.944 0.857 0.481-0.045 0.866-0.532 0.78-1.012-0.082-0.544-0.713-0.88-1.213-0.653M9.88 5.371c-0.022 0.338-0.444 0.437-0.547 0.737-0.193 0.629-0.363 1.268-0.569 1.892-0.277 0.14-0.575 0.284-0.884 0.339-0.13-0.292-0.265-0.582-0.394-0.874-0.095-0.273-0.411-0.338-0.625-0.49-0.269-0.212-0.582 0.138-0.87-0.038-0.188 0.185-0.391 0.362-0.546 0.575-0.159 0.425-0.274 0.866-0.417 1.297-0.057 0.152-0.063 0.336-0.192 0.45-0.304 0.278-0.59 0.575-0.89 0.857 0.008 0.139 0.229 0.369 0.371 0.234 0.304-0.21 0.612-0.416 0.924-0.614 0.249-0.124 0.191-0.45 0.292-0.67 0.084 0.173 0.165 0.357 0.184 0.55-0.236 0.787-0.517 1.563-0.75 2.352 0.090 0.032 0.271 0.042 0.237 0.182-0.263 0.966-0.506 1.938-0.777 2.902 0.122 0.1 0.283 0.124 0.428 0.174 0.389-0.988 0.745-1.989 1.133-2.977 0.138-0.086 0.326-0.008 0.482 0.003 0.411 0.968 0.828 1.933 1.247 2.897 0.148-0.009 0.287-0.060 0.428-0.103-0.134-0.694-0.447-1.348-0.597-2.039-0.007 0.020-0.013 0.041-0.019 0.062-0.052-0.305-0.193-0.586-0.255-0.888 0.166-0.030 0.33-0.073 0.488-0.132-0.096-0.488-0.362-0.942-0.403-1.438 0.362-0.088 0.733-0.145 1.090-0.256-0.041-0.386-0.163-0.758-0.212-1.143-0.090-0.004-0.18-0.007-0.27-0.011 0.054-0.127 0.132-0.242 0.181-0.371 0.309-0.087 0.615-0.191 0.931-0.249 0.077-0.129 0.152-0.259 0.224-0.391 0.022 0.017 0.066 0.051 0.088 0.068 0.077 0.483 0.235 0.95 0.323 1.431-0.223 0.785-0.502 1.559-0.731 2.343-0.028 0.76-0.105 1.516-0.118 2.277-0.012-0.025-0.025-0.049-0.037-0.074 0.015 0.427-0.028 0.853-0.044 1.28 0.237 0.148 0.565 0.062 0.837 0.074 0.025-0.829 0.148-1.65 0.211-2.476 0.043-0.193 0.008-0.405 0.111-0.582 0.154-0.302 0.256-0.632 0.447-0.914 0.098 0.5 0.235 0.992 0.367 1.483 0.456 0.867 0.921 1.73 1.386 2.592 0.256-0.090 0.485-0.24 0.735-0.345-0.411-0.906-0.875-1.789-1.287-2.693-0.009-0.733 0.092-1.463 0.087-2.198-0.014-0.227 0.265-0.239 0.427-0.255-0.021-0.007-0.042-0.014-0.063-0.021 0.347-0.072 0.678-0.207 1.024-0.283 0-0.299-0.13-0.575-0.193-0.863-0.059-0.172-0.063-0.363-0.168-0.517-0.101 0.018-0.202 0.032-0.304 0.041-0.022-0.255 0.082-0.501 0.075-0.751-0.349-0.668-0.704-1.333-1.052-2.002-0.148-0.337-0.687-0.231-0.785-0.612-0.245 0.092-0.484 0.219-0.758 0.176z"></path>
<path fill="#fecf45" d="M11.322 7.375c0.23 0.214 0.368 0.517 0.543 0.778-0.024 0.203-0.090 0.403-0.159 0.597-0.063 0.003-0.127 0.007-0.19 0.010-0.060-0.462-0.184-0.918-0.194-1.385z"></path>
<path fill="#fecf45" d="M0.392 17.702c0.187-0.040 0.38-0.018 0.57-0.021 5.167 0 10.333 0 15.5 0 0.216-0.003 0.432-0.007 0.648 0.014 0.028 1.293 0.004 2.587 0.012 3.881-0.009 0.504 0.024 1.010-0.030 1.513-0.075 0.242-0.285 0.469-0.537 0.514-5.133 0.006-10.267 0.002-15.4 0.002-0.389 0.034-0.758-0.299-0.794-0.681-0.043-0.293-0.028-0.591-0.029-0.887-0.001-1.359 0.002-2.718-0.002-4.078 0.005-0.088 0.003-0.187 0.063-0.258M2.841 18.838c-0.373 1.118-0.767 2.229-1.12 3.353 0.145 0.003 0.291 0.002 0.436 0.002 0.104-0.312 0.202-0.625 0.305-0.937 0.427-0.003 0.853 0.001 1.279-0.002 0.108 0.31 0.206 0.625 0.307 0.938 0.157 0.002 0.313 0.002 0.47 0.001-0.375-1.118-0.752-2.237-1.13-3.354-0.182-0.001-0.365-0-0.547 0M4.803 18.838c-0.001 1.118-0.001 2.235 0 3.353 0.148 0.001 0.295 0.001 0.443 0 0.002-0.548 0-1.095 0.001-1.643 0.515-0.002 1.031-0.001 1.546-0 0 0.548-0.001 1.095 0 1.643 0.148 0.001 0.295 0.001 0.443 0 0-1.118 0.001-2.236-0-3.353-0.148-0.002-0.295-0.002-0.443-0-0.002 0.438-0.001 0.876 0 1.313-0.516 0.002-1.032 0.002-1.548 0 0.001-0.438 0.002-0.876 0-1.313-0.147-0.001-0.295-0.001-0.443 0M7.918 18.838c-0.001 1.118-0.001 2.236 0 3.354 0.698 0.001 1.397 0 2.095 0 0.001-0.132 0.001-0.263 0-0.395-0.55-0.002-1.101 0.001-1.651-0.002-0-0.415-0-0.831 0-1.247 0.513-0.002 1.025 0 1.538-0.002 0.001-0.132 0.001-0.263 0-0.394-0.513-0.002-1.026 0.002-1.539-0.002 0.002-0.306 0.001-0.612 0-0.917 0.55-0.004 1.101 0 1.652-0.002 0.001-0.132 0.001-0.263 0-0.394-0.698-0.001-1.397-0.001-2.095 0M11.303 18.838c-0.379 1.117-0.755 2.235-1.131 3.354 0.149 0.001 0.298 0.001 0.447 0 0.104-0.312 0.202-0.625 0.305-0.937 0.427-0.003 0.853 0.001 1.279-0.002 0.109 0.311 0.206 0.625 0.307 0.938 0.157 0.002 0.313 0.002 0.47 0.001-0.375-1.118-0.752-2.237-1.13-3.354-0.182-0.001-0.365-0-0.547 0M13.303 18.838c-0.001 1.118-0.001 2.236 0 3.354 0.663-0.023 1.4 0.108 1.983-0.288 0.631-0.439 0.787-1.323 0.566-2.023-0.141-0.453-0.515-0.825-0.975-0.95-0.511-0.146-1.050-0.077-1.574-0.093z"></path>
<path fill="#fecf45" d="M13.746 21.806c0.007-0.863-0.008-1.727 0.008-2.59 0.537-0.013 1.199-0.001 1.527 0.502 0.289 0.505 0.292 1.215-0.069 1.686-0.355 0.43-0.96 0.415-1.466 0.402z"></path>
<path fill="#fecf45" d="M3.101 19.297c0.181 0.523 0.348 1.051 0.519 1.577-0.345 0.001-0.689 0-1.033 0.001 0.17-0.526 0.342-1.052 0.514-1.578z"></path>
<path fill="#fecf45" d="M11.563 19.297c0.181 0.523 0.348 1.051 0.519 1.577-0.345 0.001-0.689 0-1.033 0.001 0.17-0.526 0.342-1.052 0.514-1.578z"></path>
<path fill="#f4c742" d="M7.22 8.665c0.032 0.006 0.063 0.012 0.095 0.018 0.111 0.212 0.039 0.45-0.071 0.645-0.051-0.002-0.102-0.004-0.153-0.006 0.022-0.223 0.104-0.434 0.128-0.657z"></path>
<path fill="#a5872d" d="M0.577 17.345c5.384-0.006 10.769-0.007 16.153 0.001-5.384 0.001-10.769 0.002-16.153-0.001z"></path>
<path fill="#a5872d" d="M0.254 17.638c5.569-0.023 11.139-0.001 16.708-0.011 0.078 0.005 0.227-0.026 0.215 0.1 0.006 1.642 0 3.284 0.003 4.927 0.002 0.173-0.019 0.347-0.068 0.514-0.005-0.020-0.015-0.058-0.020-0.078 0.054-0.503 0.020-1.009 0.030-1.513-0.008-1.293 0.016-2.588-0.012-3.881-0.216-0.021-0.432-0.017-0.648-0.014-5.167-0-10.333 0-15.5-0-0.19 0.003-0.383-0.019-0.57 0.021-0.060 0.072-0.058 0.17-0.063 0.258 0.004 1.359 0.001 2.718 0.002 4.078 0.002 0.295-0.014 0.593 0.029 0.887 0.037 0.382 0.405 0.715 0.794 0.681 5.133 0 10.267 0.004 15.4-0.002-0.131 0.148-0.342 0.1-0.517 0.107-4.949-0.001-9.898-0-14.847-0-0.506-0.012-0.96-0.469-0.944-0.98 0.006-1.698-0.007-3.395 0.007-5.093z"></path>
<path fill="#b3b3b3" d="M0.241 17.347c0.034 0 0.068 0.003 0.103 0.009 0.077 0.021 0.152 0.048 0.232 0.053 5.308-0.001 10.616-0 15.924-0.001 0.207-0.005 0.427 0.035 0.622-0.058 0.037 0.007 0.074 0.014 0.112 0.022-0.074 0.070-0.172 0.090-0.272 0.080-5.568-0.010-11.137 0.013-16.705-0.012-0.004-0.023-0.012-0.070-0.015-0.093z"></path>
<path fill="#fff" d="M0.344 17.356c0.078-0.009 0.155-0.012 0.233-0.011 5.384 0.003 10.769 0.002 16.153 0.001 0.13 0 0.261-0.002 0.391 0.004-0.195 0.093-0.414 0.053-0.622 0.058-5.308 0-10.617-0-15.924 0.001-0.080-0.004-0.155-0.032-0.232-0.053z"></path>
<path fill="#000" d="M2.841 18.838c0.182-0 0.365-0.001 0.547 0 0.379 1.117 0.755 2.235 1.13 3.354-0.157 0.002-0.313 0.002-0.47-0.001-0.101-0.313-0.198-0.628-0.307-0.938-0.427 0.003-0.853-0.001-1.279 0.002-0.103 0.312-0.201 0.626-0.305 0.937-0.145 0.001-0.291 0.001-0.436-0.002 0.353-1.123 0.747-2.235 1.12-3.353M3.101 19.297c-0.172 0.525-0.344 1.052-0.514 1.578 0.344-0.001 0.689 0 1.033-0.001-0.171-0.526-0.338-1.054-0.519-1.577z"></path>
<path fill="#000" d="M4.803 18.838c0.148-0.002 0.295-0.002 0.443-0 0.002 0.438 0.001 0.875 0 1.313 0.516 0.002 1.032 0.002 1.548 0-0.001-0.438-0.002-0.876 0-1.313 0.147-0.001 0.295-0.001 0.443 0 0.001 1.118 0.001 2.235 0 3.353-0.148 0.001-0.296 0.001-0.443 0-0.002-0.548 0-1.095-0-1.643-0.515-0.001-1.031-0.001-1.546 0-0.001 0.548 0.001 1.095-0.001 1.643-0.148 0.001-0.295 0.001-0.443 0-0.001-1.118-0.001-2.236 0-3.353z"></path>
<path fill="#000" d="M7.918 18.838c0.698-0.001 1.397-0.001 2.095 0 0.001 0.131 0.001 0.263 0 0.394-0.551 0.002-1.102-0.002-1.652 0.002 0.001 0.306 0.001 0.612-0 0.917 0.513 0.004 1.026 0 1.539 0.002 0.001 0.131 0.001 0.263 0 0.394-0.513 0.002-1.025-0.001-1.538 0.002-0 0.415-0 0.831 0 1.247 0.55 0.002 1.101-0 1.651 0.002 0.001 0.132 0.001 0.263 0 0.395-0.698 0-1.397 0.001-2.095 0-0.001-1.118-0.001-2.236 0-3.354z"></path>
<path fill="#000" d="M11.303 18.838c0.182-0 0.365-0.001 0.547 0 0.379 1.117 0.755 2.235 1.13 3.354-0.157 0.002-0.313 0.002-0.47-0.001-0.101-0.313-0.198-0.628-0.307-0.938-0.426 0.003-0.852-0-1.279 0.002-0.103 0.312-0.201 0.626-0.305 0.937-0.149 0-0.298 0.001-0.447-0 0.375-1.118 0.752-2.237 1.131-3.354M11.563 19.297c-0.172 0.525-0.344 1.052-0.514 1.578 0.344-0.001 0.689 0 1.033-0.001-0.171-0.526-0.338-1.054-0.519-1.577z"></path>
<path fill="#000" d="M13.303 18.838c0.524 0.016 1.063-0.053 1.574 0.093 0.46 0.125 0.833 0.497 0.975 0.95 0.222 0.7 0.065 1.584-0.566 2.023-0.583 0.397-1.32 0.265-1.983 0.288-0.001-1.118-0.001-2.236 0-3.354M13.746 21.806c0.507 0.014 1.111 0.029 1.466-0.402 0.361-0.471 0.358-1.181 0.069-1.686-0.328-0.503-0.991-0.515-1.527-0.502-0.016 0.863-0.001 1.727-0.008 2.59z"></path>
</svg>
