<svg xmlns="http://www.w3.org/2000/svg" width="24" height="24">
    <path fill="#fff043" d="M11.123 1.716c.553-.431 1.619-.392 1.931.329 3.491 6.221 7.01 12.426 10.581 18.601.432.676.132 1.577-.602 1.882-7.427 0-14.853-.003-22.28.002a32.57 32.57 0 0 0-.618-.615c-.083-.658.075-1.312.532-1.803l.044-.253a956.18 956.18 0 0 1 6.06-10.514c1.428-2.556 2.844-5.118 4.35-7.628zm.478.047c-.288.124-.454.404-.608.66-1.267 2.22-2.564 4.422-3.78 6.671C4.985 13.011 2.645 16.867.514 20.84c-.299.595.184 1.41.861 1.385 7.02-.041 14.044-.062 21.065-.043.79.121 1.421-.8 1.007-1.488A2426.53 2426.53 0 0 1 12.966 2.26c-.236-.501-.863-.736-1.365-.497z"/>
    <path fill="#252a27" d="M11.601 1.763c.502-.239 1.13-.004 1.365.497a2426.53 2426.53 0 0 0 10.481 18.434c.414.688-.218 1.609-1.007 1.488-7.02-.02-14.044.002-21.065.043-.677.025-1.16-.79-.861-1.385 2.131-3.972 4.47-7.828 6.699-11.746 1.217-2.249 2.515-4.451 3.78-6.671.154-.256.321-.535.608-.66zM2.812 20.376c6.034-.003 12.069-.035 18.1-.04.062-.068.184-.206.245-.276a7.435 7.435 0 0 1-1.006.157c-.75-.949-1.572-1.839-2.326-2.787.274.041.614-.03.801.226.681.768 1.412 1.495 2.046 2.302l.148-.194c-2.969-5.123-5.85-10.296-8.769-15.447C8.919 9.64 5.959 15.061 2.81 20.375z"/>
    <path fill="#f9e538" d="M2.812 20.376C5.961 15.062 8.92 9.641 12.053 4.318c2.919 5.15 5.8 10.324 8.769 15.447l-.148.194c-.635-.808-1.365-1.534-2.046-2.302-.188-.256-.527-.184-.801-.226.755.948 1.576 1.837 2.326 2.787.34-.022.673-.088 1.006-.157l-.245.276c-6.031.005-12.067.037-18.1.04zm8.025-9.872c-.146.396-.245.819-.524 1.149.118.444.259.884.424 1.313l.319-.066c.02-.103.06-.311.078-.414a45.958 45.958 0 0 0 1.78-.04l.077.435.306.015c.163-.435.322-.871.452-1.317-.334-.364-.331-1.148-.939-1.152-.655-.007-1.328-.068-1.972.077zm-.886 2.253c-.469.532.63.062 0 0zm4.001.024c-.095.544.555-.073 0 0zm-4.412.414c-.505.717.867-.212 0 0zm4.718-.006c.043.62.629-.12 0 0zm-5.11.525c-.135.07-.331.218-.274.391.216.141.673-.467.274-.391zm5.613.01c-.078.179.19.41.361.331.077-.179-.188-.41-.361-.331zM8.824 15.78c1.297.343 2.173-.716 3.17-1.316.984.549 1.824 1.606 3.077 1.312a117.37 117.37 0 0 0-3.079-1.855c-1.053.625-2.123 1.222-3.168 1.86zm6.3-1.463c.204.244.409.487.615.728l.459.03c-.228-.248-.46-.494-.692-.739l-.381-.02zm-7.309.775l.436-.002c.23-.253.452-.515.658-.788-.5.032-.79.45-1.094.79zm8.218.331c.389.45.779.899 1.174 1.343.133-.002.402-.002.535-.002a56.143 56.143 0 0 1-1.165-1.328c-.181-.005-.364-.01-.544-.013zm-9.741 1.354c.188.002.374.002.562.002.384-.439.756-.889 1.126-1.34-.13.008-.391.023-.52.032-.379.446-.77.881-1.167 1.308zm5.711-.262c-2.096 1.207-4.168 2.458-6.254 3.682.983-.093 2.148.339 2.973-.373 1.084-.757 2.198-1.468 3.3-2.198 1.255.811 2.458 1.7 3.715 2.507.811.143 1.657.018 2.482.058-2.089-1.195-4.132-2.47-6.216-3.675zm-6.436.979c-.838.926-1.711 1.818-2.56 2.732.276-.003.553-.005.83-.01.793-.914 1.592-1.824 2.377-2.746-.216.008-.431.017-.647.023z"/>
    <path fill="#282e25" d="M10.837 10.504c.644-.146 1.317-.084 1.972-.077.608.004.604.788.939 1.152-.13.446-.289.883-.452 1.317l-.306-.015-.077-.435c-.593.025-1.187.038-1.78.04a30.1 30.1 0 0 0-.078.414l-.319.066a12.792 12.792 0 0 1-.424-1.313c.279-.331.379-.753.524-1.149zm.141.858c.715.023 1.431.032 2.144-.028-.087-.344-.379-.522-.725-.469-.499.045-1.336-.224-1.419.497z"/>
    <path fill="#feea36" d="M10.978 11.362c.083-.721.921-.452 1.419-.497.347-.052.638.125.725.469-.713.06-1.43.051-2.144.028z"/>
    <path fill="#5a531c" d="M9.951 12.757c.63.062-.469.532 0 0z"/>
    <path fill="#504a15" d="M13.952 12.781c.555-.073-.095.544 0 0z"/>
    <path fill="#252b25" d="M9.54 13.195c.867-.212-.505.717 0 0zM15.124 14.317l.381.02c.233.245.464.492.692.739a70.678 70.678 0 0 1-.459-.03 71.609 71.609 0 0 1-.615-.728zM16.033 15.423l.544.013c.38.45.772.889 1.165 1.328-.133 0-.402 0-.535.002a125.28 125.28 0 0 1-1.174-1.343zM6.292 16.777a38.3 38.3 0 0 0 1.167-1.308c.13-.008.391-.023.52-.032-.371.452-.742.901-1.126 1.34-.188 0-.374 0-.562-.002zM12.003 16.515c2.084 1.204 4.126 2.48 6.216 3.675-.824-.04-1.671.085-2.482-.058-1.257-.806-2.46-1.696-3.715-2.507-1.102.731-2.217 1.441-3.3 2.198-.824.712-1.99.279-2.973.373 2.086-1.224 4.158-2.475 6.254-3.682z"/>
    <path fill="#403b15" d="M14.258 13.189c.629-.12.043.62 0 0z"/>
    <path fill="#3f3d18" d="M9.148 13.714c.399-.076-.058.532-.274.391-.056-.173.139-.321.274-.391z"/>
    <path fill="#3e3b1a" d="M14.761 13.724c.172-.08.437.151.361.331-.171.08-.439-.151-.361-.331z"/>
    <path fill="#2a2d23" d="M8.824 15.78c1.046-.637 2.116-1.235 3.168-1.86a121.93 121.93 0 0 1 3.079 1.855c-1.254.294-2.093-.763-3.077-1.312-.996.6-1.873 1.659-3.17 1.316z"/>
    <path fill="#383316" d="M7.815 15.092c.304-.34.595-.758 1.094-.79-.205.274-.428.535-.658.788l-.436.002z"/>
    <path fill="#262d24" d="M5.567 17.494l.647-.023c-.785.922-1.584 1.832-2.377 2.746l-.83.01c.849-.914 1.722-1.805 2.56-2.732z"/>
</svg>
