<?xml version="1.0" encoding="utf-8"?>
<!-- Generated by IcoMoon.io -->
<!DOCTYPE svg PUBLIC "-//W3C//DTD SVG 1.1//EN" "http://www.w3.org/Graphics/SVG/1.1/DTD/svg11.dtd">
<svg version="1.1" xmlns="http://www.w3.org/2000/svg" xmlns:xlink="http://www.w3.org/1999/xlink" width="24" height="24" viewBox="0 0 24 24">
<path fill="#ffd520" d="M11.682 0h0.050c-0.017 0.018-0.049 0.053-0.066 0.070 0.311-0.109 0.66-0.037 0.878 0.21 3.668 3.658 7.326 7.328 10.994 10.987 0.193 0.198 0.421 0.427 0.38 0.732 0.016 0.335-0.281 0.544-0.484 0.762-3.642 3.635-7.278 7.276-10.915 10.913-0.265 0.314-0.787 0.331-1.061 0.020-3.618-3.619-7.235-7.238-10.855-10.854-0.229-0.248-0.568-0.469-0.577-0.842-0.025-0.25 0.13-0.461 0.295-0.628 3.784-3.793 7.583-7.57 11.359-11.37M11.791 0.282c-0.196 0.108-0.337 0.288-0.498 0.439-3.6 3.605-7.204 7.204-10.804 10.807-0.24 0.178-0.33 0.562-0.089 0.778 3.74 3.744 7.483 7.486 11.226 11.228 0.185 0.223 0.552 0.2 0.731-0.019 3.736-3.746 7.483-7.482 11.219-11.228 0.218-0.211 0.132-0.566-0.088-0.74-3.658-3.662-7.32-7.318-10.976-10.98-0.18-0.196-0.437-0.424-0.721-0.284z"></path>
<path fill="#ffd520" d="M11.357 1.151c0.203-0.206 0.404-0.419 0.64-0.59 3.468 3.427 6.899 6.892 10.352 10.334 0.344 0.366 0.74 0.688 1.040 1.096-3.803 3.793-7.59 7.601-11.398 11.387-0.212-0.179-0.41-0.372-0.602-0.571-3.604-3.606-7.202-7.216-10.813-10.812 0.067-0.098 0.14-0.193 0.221-0.283 3.52-3.52 7.039-7.039 10.56-10.56M7.5 5.648c-0.001 3.304 0.001 6.606-0.001 9.91 0.721 0.004 1.441 0.002 2.162 0-0.001-1.279-0.002-2.558 0-3.838 1.138 0.002 2.274-0.006 3.41 0.002 0.482-0.030 0.937 0.395 0.908 0.884 0.005 1.984-0.006 3.968-0.006 5.952 0.743 0.001 1.487 0.001 2.231 0 0-2.027 0.013-4.055-0.001-6.083-0.035-1.531-1.361-2.879-2.89-2.946-1.217-0.024-2.435-0.004-3.653-0.011-0.002-1.29 0-2.581-0.001-3.871-0.72-0.001-1.44 0-2.16 0z"></path>
<path fill="#000" d="M11.791 0.282c0.284-0.139 0.541 0.089 0.721 0.284 3.656 3.662 7.319 7.318 10.976 10.98 0.22 0.174 0.306 0.529 0.088 0.74-3.736 3.746-7.483 7.482-11.219 11.228-0.179 0.22-0.546 0.242-0.731 0.019-3.743-3.743-7.486-7.484-11.226-11.228-0.241-0.216-0.151-0.6 0.089-0.778 3.6-3.604 7.204-7.202 10.804-10.807 0.161-0.151 0.302-0.331 0.498-0.439M11.357 1.151c-3.521 3.521-7.040 7.040-10.56 10.56-0.080 0.090-0.154 0.185-0.221 0.283 3.611 3.596 7.21 7.206 10.813 10.812 0.192 0.199 0.39 0.392 0.602 0.571 3.808-3.786 7.595-7.594 11.398-11.387-0.3-0.408-0.696-0.73-1.040-1.096-3.454-3.443-6.884-6.907-10.352-10.334-0.235 0.172-0.437 0.384-0.64 0.59z"></path>
<path fill="#000" d="M7.5 5.648c0.72 0 1.44-0.001 2.16 0 0.001 1.29-0.001 2.581 0.001 3.871 1.218 0.007 2.436-0.013 3.653 0.011 1.529 0.067 2.855 1.415 2.89 2.946 0.014 2.028 0.001 4.056 0.001 6.083-0.744 0.001-1.488 0.001-2.231 0 0-1.984 0.011-3.968 0.006-5.952 0.029-0.49-0.426-0.914-0.908-0.884-1.136-0.008-2.273 0-3.41-0.002-0.002 1.279-0.001 2.558 0 3.838-0.721 0.002-1.441 0.004-2.162 0 0.002-3.304 0-6.606 0.001-9.91z"></path>
</svg>
