<!-- Generated by IcoMoon.io -->
<svg version="1.1" xmlns="http://www.w3.org/2000/svg" width="27" height="24" viewBox="0 0 27 24">
<title>warning--dangerous-crosswinds-left--g2</title>
<path fill="#ec1d24" d="M13.346 0h0.509c0.568 0.12 1.087 0.458 1.363 0.977 3.712 6.422 7.425 12.843 11.138 19.265 0.297 0.526 0.641 1.032 0.844 1.605v0.698c-0.171 0.726-0.76 1.307-1.493 1.455h-24.182c-0.771-0.14-1.368-0.772-1.525-1.531v-0.514c0.081-0.258 0.174-0.512 0.305-0.748 3.897-6.738 7.793-13.477 11.688-20.215 0.271-0.522 0.787-0.863 1.353-0.992M2.855 21.598c7.17 0.003 14.34 0.003 21.51 0-3.584-6.197-7.163-12.398-10.755-18.591-3.591 6.193-7.172 12.393-10.755 18.591z"></path>
<path fill="#fff" d="M2.855 21.598c3.583-6.198 7.164-12.398 10.755-18.591 3.592 6.193 7.171 12.394 10.755 18.591-7.17 0.003-14.34 0.003-21.51 0M9.022 13.829c-0.006-0.141-0.012-0.282-0.016-0.422-0.256 0-0.512 0-0.768 0 0.002 2.476-0.003 4.951 0.002 7.426 0.256 0 0.513 0 0.77 0 0.007-2.242-0.011-4.484 0.009-6.725 0.541 0.085 0.913 0.537 1.366 0.805 0.327 0.293 0.796 0.164 1.179 0.32 0.684 0.25 1.274 0.712 1.977 0.921 1.023 0.306 2.136 0.339 3.167 0.050 0.844-0.233 1.727 0.031 2.498 0.383 0.175-0.551 0.358-1.099 0.526-1.653-0.988-0.641-2.155-0.983-3.33-1.013-0.572-0.012-1.173 0.121-1.721-0.105-0.486-0.219-0.808-0.681-1.295-0.9-0.767-0.36-1.64-0.413-2.474-0.401-0.684 0.341-1.137 1.106-1.89 1.314z"></path>
<path fill="#fff" d="M9.34 13.964c0.496-0.41 0.997-0.815 1.501-1.217-0.051 0.722-0.104 1.443-0.158 2.165-0.45-0.314-0.894-0.634-1.343-0.948z"></path>
<path fill="#000" d="M9.022 13.829c0.753-0.208 1.206-0.973 1.89-1.314 0.834-0.012 1.707 0.041 2.474 0.401 0.487 0.219 0.809 0.681 1.295 0.9 0.548 0.226 1.149 0.093 1.721 0.105 1.175 0.030 2.342 0.372 3.33 1.013-0.168 0.554-0.351 1.102-0.526 1.653-0.771-0.352-1.654-0.616-2.498-0.383-1.031 0.289-2.144 0.256-3.167-0.050-0.703-0.209-1.293-0.671-1.977-0.921-0.383-0.156-0.852-0.027-1.179-0.32-0.453-0.268-0.825-0.72-1.366-0.805-0.020 2.241-0.002 4.483-0.009 6.725-0.257 0-0.514 0-0.77 0-0.005-2.475 0-4.95-0.002-7.426 0.256 0 0.512 0 0.768 0 0.004 0.14 0.010 0.281 0.016 0.422M9.34 13.964c0.449 0.314 0.893 0.634 1.343 0.948 0.054-0.722 0.107-1.443 0.158-2.165-0.504 0.402-1.005 0.807-1.501 1.217z"></path>
</svg>
