<!-- Generated by IcoMoon.io -->
<svg version="1.1" xmlns="http://www.w3.org/2000/svg" width="24" height="24" viewBox="0 0 24 24">
<title>warning--roadworks--g10</title>
<path fill="#000" d="M11.557 0.286c0.479-0.215 0.98 0.055 1.3 0.414 3.475 3.487 6.962 6.962 10.438 10.45 0.482 0.406 0.481 1.177 0.012 1.591-3.512 3.532-7.039 7.048-10.562 10.568-0.39 0.456-1.142 0.533-1.56 0.072-3.547-3.535-7.087-7.080-10.627-10.624-0.504-0.415-0.476-1.208 0.014-1.622 3.431-3.449 6.882-6.881 10.316-10.327 0.205-0.194 0.407-0.407 0.67-0.522M11.796 0.745c-0.166 0.064-0.296 0.187-0.425 0.304-3.474 3.488-6.962 6.962-10.436 10.451-0.248 0.205-0.337 0.6-0.064 0.827 3.535 3.546 7.076 7.087 10.616 10.628 0.23 0.301 0.666 0.288 0.896-0.006 3.518-3.524 7.045-7.042 10.562-10.567 0.28-0.229 0.256-0.643-0.020-0.864-3.494-3.509-7.006-7-10.501-10.507-0.167-0.157-0.379-0.353-0.629-0.265z"></path>
<path fill="#000" d="M10.492 5.66c0.158-0.269 0.295-0.662 0.67-0.67 0.438-0.059 0.666 0.36 0.856 0.676-0.509 0.010-1.018 0.010-1.525-0.006z"></path>
<path fill="#000" d="M10.507 5.924c0.486-0.018 0.973-0.018 1.46 0.002-0.235 0.763-1.223 0.754-1.46-0.002z"></path>
<path fill="#000" d="M10.738 6.892c0.584-0.474 1.289 0.066 1.058 0.768 0.696 0.314 1.597 0.306 2.116 0.923-0.739-0.053-1.426-0.347-2.14-0.514 0.026 0.452 0.104 0.9 0.238 1.333-0.436-0.002-0.872-0.002-1.308-0.004 0.024-0.835-0.056-1.675 0.036-2.507z"></path>
<path fill="#000" d="M7.8 7.045c0.145-0.082 0.29-0.163 0.436-0.245 0.694 0.774 0.6 1.811 0.577 2.773 1.585 0.006 3.17-0.002 4.756 0.005 0.322-0.538 0.631-1.082 0.947-1.624 0.118 0.114 0.235 0.227 0.353 0.341 0 0.812-0.005 1.625 0.004 2.438 0.664-0.359 1.324-0.725 1.988-1.084-0.14-0.595 0.282-1.068 0.875-0.781 0.216 1.769 0.343 3.548 0.58 5.316 0.33-0.112 0.281-0.478 0.313-0.756 0.056-0.914 0.119-1.83 0.193-2.743 0.665 0.62 1.3 1.273 1.955 1.904 0.264 0.317 0.708 0.182 1.064 0.214-0.821 0.796-1.646 1.585-2.466 2.383-0.55-0.008-1.105 0.054-1.65-0.031-0.27-0.304-0.305-0.731-0.343-1.117-0.061-1.15-0.216-2.291-0.341-3.436-0.464 0.256-0.92 0.523-1.374 0.796 0 0.644-0.002 1.289-0.001 1.934-2.821 0.011-5.642-0.008-8.464 0.010-0.63 0.007-1.224-0.281-1.86-0.212 0-0.348 0.001-0.697 0-1.046 0.269-0.002 0.536-0.005 0.805-0.008 0-0.546 0.002-1.093 0.002-1.64 0.356-0.002 0.713-0.004 1.069-0.006 0.002-0.284 0.005-0.568 0.007-0.851 0.311-0.001 0.622-0.004 0.934-0.004-0.022-0.852 0.167-1.783-0.359-2.53z"></path>
<path fill="#000" d="M4.855 13.648c3.616-0.097 7.244-0.006 10.865-0.044 0.383 0.016 0.853-0.068 1.139 0.254 0.538 0.5 0.296 1.729-0.534 1.714-3.762 0.004-7.526 0.017-11.287-0.006-1.051 0.005-1.133-1.68-0.182-1.918M5.033 13.894c-0.725 0.062-0.818 1.319-0.106 1.45 0.542 0.074 1.091 0.022 1.637 0.032-0.038-0.18-0.074-0.361-0.109-0.541-0.139-0.014-0.28-0.029-0.42-0.043-0.002-0.095-0.007-0.286-0.010-0.38 0.174-0.005 0.347-0.008 0.52-0.012-0.028-0.157-0.054-0.314-0.080-0.47 0.163 0.008 0.328 0.013 0.491 0.013-0.022 0.152-0.043 0.306-0.067 0.46 0.287-0.004 0.572-0.004 0.859-0.001-0.029-0.155-0.056-0.308-0.084-0.463 0.163-0.001 0.326-0.001 0.49-0.002-0.019 0.155-0.040 0.311-0.061 0.467 0.331-0.001 0.661-0.001 0.992 0-0.022-0.16-0.043-0.319-0.064-0.479 0.166-0.002 0.331-0.005 0.497-0.007-0.034 0.162-0.068 0.324-0.103 0.485 0.364-0.004 0.727-0.004 1.092 0-0.036-0.161-0.070-0.323-0.103-0.484 0.166 0 0.33 0.002 0.496 0.002-0.020 0.162-0.041 0.323-0.062 0.485 0.346-0.004 0.691-0.006 1.038-0.005l-0.044-0.119c0.018-0.090 0.055-0.269 0.073-0.358 0.097-0.001 0.292-0.001 0.389-0.002-0.036 0.161-0.072 0.322-0.109 0.482 0.325-0.001 0.649-0.002 0.974-0.001-0.019-0.161-0.036-0.32-0.053-0.481 0.162 0.001 0.325 0.001 0.487 0-0.030 0.16-0.060 0.322-0.091 0.481 0.33 0 0.661-0.001 0.992-0.001-0.004-0.164-0.006-0.328-0.007-0.492 0.11-0.001 0.334-0.005 0.445-0.007-0.004 0.164-0.008 0.329-0.016 0.492 0.092 0.007 0.276 0.022 0.368 0.029-0.004 0.090-0.011 0.269-0.013 0.359-0.076 0.014-0.227 0.044-0.302 0.059-0.042 0.18-0.089 0.359-0.138 0.536 0.532-0.011 1.068 0.046 1.595-0.036 0.662-0.18 0.715-1.264 0.029-1.452-2.522-0.148-5.051-0.032-7.576-0.078-1.282-0.002-2.567-0.041-3.845 0.084M6.935 14.809c-0.013 0.19-0.030 0.378-0.048 0.568 0.286-0.001 0.572-0.001 0.859 0-0.020-0.188-0.037-0.376-0.050-0.564-0.254 0-0.508-0.001-0.761-0.004M8.135 14.812c-0.012 0.188-0.029 0.376-0.048 0.564 0.356-0.002 0.714 0.001 1.070 0.008-0.052-0.191-0.1-0.383-0.146-0.576-0.292 0.004-0.584 0.004-0.876 0.004M9.529 14.809c-0.044 0.19-0.089 0.379-0.136 0.568 0.378-0.001 0.755-0.001 1.133 0-0.047-0.188-0.092-0.378-0.136-0.568-0.287 0.002-0.575 0.002-0.862 0M10.909 14.809c-0.047 0.192-0.095 0.384-0.146 0.575 0.386-0.010 0.774-0.010 1.16-0.002-0.047-0.191-0.096-0.382-0.145-0.571-0.29 0.001-0.58 0.001-0.869-0.001M12.3 14.81c-0.044 0.188-0.091 0.378-0.14 0.566 0.334-0.001 0.668-0.001 1.002 0-0.018-0.19-0.032-0.379-0.044-0.569-0.272 0.004-0.545 0.004-0.817 0.002M13.549 14.814c-0.012 0.187-0.029 0.376-0.048 0.563 0.361-0.002 0.721-0.001 1.082 0.001-0.047-0.19-0.091-0.379-0.134-0.57-0.3 0.005-0.6 0.006-0.9 0.006z"></path>
<path fill="#e94e1b" d="M11.796 0.745c0.25-0.088 0.462 0.108 0.629 0.265 3.496 3.508 7.007 6.998 10.501 10.507 0.276 0.221 0.3 0.635 0.020 0.864-3.517 3.526-7.044 7.043-10.562 10.567-0.23 0.294-0.666 0.307-0.896 0.006-3.54-3.541-7.081-7.082-10.616-10.628-0.274-0.227-0.185-0.622 0.064-0.827 3.474-3.488 6.962-6.962 10.436-10.451 0.128-0.116 0.259-0.24 0.425-0.304M10.492 5.66c0.508 0.016 1.016 0.016 1.525 0.006-0.19-0.316-0.418-0.734-0.856-0.676-0.374 0.007-0.511 0.401-0.67 0.67M10.507 5.924c0.238 0.756 1.225 0.766 1.46 0.002-0.487-0.020-0.974-0.020-1.46-0.002M10.738 6.892c-0.092 0.832-0.012 1.672-0.036 2.507 0.436 0.001 0.872 0.001 1.308 0.004-0.133-0.433-0.211-0.881-0.238-1.333 0.714 0.167 1.4 0.461 2.14 0.514-0.518-0.617-1.42-0.608-2.116-0.923 0.23-0.702-0.474-1.242-1.058-0.768M7.8 7.045c0.526 0.746 0.337 1.678 0.359 2.53-0.312 0-0.623 0.002-0.934 0.004-0.002 0.283-0.005 0.566-0.007 0.851-0.356 0.002-0.713 0.004-1.069 0.006 0 0.547-0.002 1.094-0.002 1.64-0.269 0.004-0.536 0.006-0.805 0.008 0.001 0.349 0 0.698 0 1.046 0.636-0.068 1.23 0.22 1.86 0.212 2.821-0.018 5.642 0.001 8.464-0.010-0.001-0.646 0.001-1.29 0.001-1.934 0.454-0.272 0.91-0.54 1.374-0.796 0.125 1.145 0.28 2.286 0.341 3.436 0.038 0.386 0.073 0.814 0.343 1.117 0.545 0.085 1.1 0.023 1.65 0.031 0.82-0.798 1.645-1.588 2.466-2.383-0.356-0.031-0.8 0.103-1.064-0.214-0.655-0.631-1.29-1.284-1.955-1.904-0.074 0.913-0.137 1.829-0.193 2.743-0.032 0.278 0.017 0.644-0.313 0.756-0.236-1.768-0.364-3.547-0.58-5.316-0.593-0.287-1.015 0.186-0.875 0.781-0.665 0.359-1.325 0.725-1.988 1.084-0.008-0.814-0.004-1.626-0.004-2.438-0.118-0.114-0.235-0.227-0.353-0.341-0.316 0.541-0.625 1.086-0.947 1.624-1.585-0.007-3.17 0.001-4.756-0.005 0.023-0.962 0.116-1.999-0.577-2.773-0.145 0.082-0.29 0.163-0.436 0.245M4.855 13.648c-0.95 0.238-0.869 1.922 0.182 1.918 3.761 0.023 7.525 0.010 11.287 0.006 0.83 0.016 1.072-1.213 0.534-1.714-0.286-0.323-0.756-0.239-1.139-0.254-3.62 0.038-7.249-0.053-10.865 0.044z"></path>
<path fill="#e94e1b" d="M4.927 15.343c-0.713-0.131-0.619-1.387 0.106-1.45 0.478-0.024 0.955 0.010 1.432 0.035 0.026 0.156 0.053 0.313 0.080 0.47-0.173 0.004-0.346 0.007-0.52 0.012 0.002 0.095 0.007 0.286 0.010 0.38 0.14 0.014 0.281 0.029 0.42 0.043 0.035 0.18 0.071 0.361 0.109 0.541-0.546-0.011-1.094 0.042-1.637-0.032z"></path>
<path fill="#e94e1b" d="M6.955 13.942c0.236-0.001 0.472-0.004 0.708-0.005 0.028 0.155 0.055 0.308 0.084 0.463-0.287-0.002-0.572-0.002-0.859 0.001 0.024-0.154 0.046-0.307 0.067-0.46z"></path>
<path fill="#e94e1b" d="M8.153 13.934c0.289-0.002 0.578-0.007 0.868-0.012 0.020 0.16 0.042 0.319 0.064 0.479-0.331-0.001-0.661-0.001-0.992 0 0.022-0.156 0.042-0.312 0.061-0.467z"></path>
<path fill="#e94e1b" d="M9.517 13.915c0.295-0.002 0.59-0.002 0.886 0.001 0.034 0.161 0.067 0.323 0.103 0.484-0.365-0.004-0.728-0.004-1.092 0 0.035-0.161 0.070-0.323 0.103-0.485z"></path>
<path fill="#e94e1b" d="M10.898 13.919c0.266-0.001 0.532-0.004 0.798-0.006 0.044 0.121 0.089 0.245 0.133 0.367l0.044 0.119c-0.347-0.001-0.692 0.001-1.038 0.005 0.022-0.162 0.042-0.323 0.062-0.485z"></path>
<path fill="#e94e1b" d="M12.292 13.92c0.27-0.001 0.541-0.001 0.812 0 0.017 0.161 0.034 0.32 0.053 0.481-0.325-0.001-0.649 0-0.974 0.001 0.037-0.161 0.073-0.322 0.109-0.482z"></path>
<path fill="#e94e1b" d="M13.591 13.92c0.298-0.004 0.595-0.008 0.894-0.012 0.001 0.164 0.004 0.328 0.007 0.492-0.331 0-0.662 0.001-0.992 0.001 0.031-0.16 0.061-0.322 0.091-0.481z"></path>
<path fill="#e94e1b" d="M14.93 13.901c0.508-0.007 1.015-0.034 1.523-0.013 0.686 0.188 0.634 1.272-0.029 1.452-0.527 0.082-1.063 0.025-1.595 0.036 0.049-0.178 0.096-0.356 0.138-0.536 0.076-0.014 0.227-0.044 0.302-0.059 0.002-0.090 0.010-0.269 0.013-0.359-0.092-0.007-0.276-0.022-0.368-0.029 0.007-0.163 0.012-0.328 0.016-0.492z"></path>
<path fill="#e94e1b" d="M6.935 14.809c0.253 0.002 0.506 0.004 0.761 0.004 0.013 0.188 0.030 0.376 0.050 0.564-0.287-0.001-0.574-0.001-0.859 0 0.018-0.19 0.035-0.378 0.048-0.568z"></path>
<path fill="#e94e1b" d="M8.135 14.812c0.292 0 0.584 0 0.876-0.004 0.047 0.193 0.095 0.385 0.146 0.576-0.356-0.007-0.714-0.011-1.070-0.008 0.019-0.188 0.036-0.376 0.048-0.564z"></path>
<path fill="#e94e1b" d="M9.529 14.809c0.287 0.002 0.575 0.002 0.862 0 0.043 0.19 0.089 0.379 0.136 0.568-0.378-0.001-0.755-0.001-1.133 0 0.047-0.188 0.091-0.378 0.136-0.568z"></path>
<path fill="#e94e1b" d="M10.909 14.809c0.289 0.002 0.578 0.002 0.869 0.001 0.049 0.19 0.098 0.38 0.145 0.571-0.386-0.007-0.774-0.007-1.16 0.002 0.052-0.191 0.1-0.383 0.146-0.575z"></path>
<path fill="#e94e1b" d="M12.3 14.81c0.272 0.001 0.545 0.001 0.817-0.002 0.012 0.19 0.026 0.379 0.044 0.569-0.334-0.001-0.668-0.001-1.002 0 0.049-0.188 0.096-0.378 0.14-0.566z"></path>
<path fill="#e94e1b" d="M13.549 14.814c0.3 0 0.6-0.001 0.9-0.006 0.043 0.191 0.088 0.38 0.134 0.57-0.361-0.002-0.721-0.004-1.082-0.001 0.019-0.187 0.036-0.376 0.048-0.563z"></path>
<path fill="#5a1e0b" d="M5.033 13.894c1.278-0.125 2.563-0.086 3.845-0.084 2.525 0.046 5.053-0.070 7.576 0.078-0.508-0.020-1.015 0.006-1.523 0.013-0.112 0.002-0.335 0.006-0.445 0.007-0.299 0.004-0.596 0.008-0.894 0.012-0.162 0.001-0.325 0.001-0.487 0-0.271-0.001-0.542-0.001-0.812 0-0.097 0.001-0.292 0.001-0.389 0.002-0.018 0.089-0.055 0.268-0.073 0.358-0.044-0.122-0.089-0.246-0.133-0.367-0.266 0.002-0.532 0.005-0.798 0.006-0.166 0-0.33-0.002-0.496-0.002-0.295-0.004-0.59-0.004-0.886-0.001-0.166 0.002-0.331 0.005-0.497 0.007-0.289 0.005-0.578 0.010-0.868 0.012-0.163 0.001-0.326 0.001-0.49 0.002-0.236 0.001-0.472 0.004-0.708 0.005-0.163 0-0.328-0.005-0.491-0.013-0.476-0.025-0.954-0.059-1.432-0.035z"></path>
</svg>
