<?xml version="1.0" encoding="utf-8"?>
<!-- Generated by IcoMoon.io -->
<!DOCTYPE svg PUBLIC "-//W3C//DTD SVG 1.1//EN" "http://www.w3.org/Graphics/SVG/1.1/DTD/svg11.dtd">
<svg version="1.1" xmlns="http://www.w3.org/2000/svg" xmlns:xlink="http://www.w3.org/1999/xlink" width="24" height="24" viewBox="0 0 24 24">
<path fill="#ffdb00" d="M11.845 0h0.266c0.329 0.059 0.625 0.227 0.856 0.466 3.502 3.503 7.003 7.006 10.507 10.506 0.312 0.293 0.553 0.701 0.49 1.144-0.042 0.515-0.47 0.852-0.805 1.194-3.284 3.28-6.566 6.56-9.846 9.845-0.362 0.361-0.742 0.828-1.304 0.817-0.575 0.036-0.968-0.434-1.333-0.804-3.419-3.422-6.84-6.844-10.262-10.262-0.216-0.208-0.347-0.482-0.413-0.772v-0.253c0.046-0.332 0.212-0.632 0.455-0.86 3.361-3.362 6.725-6.722 10.084-10.085 0.382-0.377 0.745-0.84 1.307-0.935M11.568 0.414c-0.12 0.074-0.224 0.17-0.328 0.268-3.52 3.521-7.037 7.048-10.56 10.566-0.232 0.217-0.432 0.514-0.383 0.848 0.041 0.422 0.426 0.676 0.692 0.962 3.322 3.318 6.641 6.637 9.96 9.958 0.299 0.284 0.584 0.701 1.048 0.682 0.431 0.014 0.703-0.362 0.982-0.631 3.34-3.344 6.685-6.68 10.027-10.022 0.258-0.276 0.619-0.52 0.673-0.922 0.061-0.34-0.137-0.648-0.373-0.87-3.541-3.54-7.081-7.082-10.622-10.622-0.271-0.308-0.751-0.436-1.116-0.216z"></path>
<path fill="#ffdb00" d="M11.822 0.792c0.228-0.12 0.458 0.046 0.612 0.206 3.522 3.521 7.044 7.044 10.567 10.564 0.215 0.176 0.358 0.521 0.107 0.734-3.577 3.589-7.165 7.17-10.745 10.757-0.186 0.241-0.551 0.241-0.734-0.002-3.539-3.541-7.076-7.085-10.62-10.62-0.168-0.149-0.346-0.38-0.218-0.612 0.167-0.263 0.414-0.461 0.628-0.684 3.221-3.22 6.442-6.437 9.662-9.655 0.244-0.233 0.457-0.504 0.742-0.688M4.756 9.59c0.072 0.044 0.214 0.132 0.284 0.175-0.018 0.323 0.214 0.902-0.262 0.96 0.319 0.142 0.676 0.068 1.013 0.083 0 0.076 0 0.227 0 0.304-0.384 0-0.769 0-1.153 0-0.162 0.653-0.324 1.304-0.481 1.958-0.13 0-0.258 0.001-0.388 0.002 0 0.144 0 0.288 0 0.431 1.198 0 2.395 0.001 3.594 0 0.054 0.472 0.413 0.925 0.923 0.904 0.505 0.014 0.857-0.437 0.912-0.904 2.459 0.001 4.918-0.001 7.378 0.001 0.056 0.434 0.353 0.869 0.823 0.896 0.539 0.078 0.961-0.395 1.012-0.899 0.431 0.002 0.863 0.001 1.295 0.001 0-0.108 0-0.324 0-0.432-0.181 0-0.362 0-0.544 0-0.071-0.671-0.144-1.342-0.216-2.012-0.984-0.095-1.969-0.192-2.953-0.287-0.090-0.305 0.107-0.846-0.286-0.942-0.014 0.509 0.050 1.031-0.113 1.524-0.156-0.001-0.313-0.002-0.469-0.004-0.084-0.34-0.097-0.721-0.355-0.986 0.034-0.037 0.1-0.112 0.132-0.149-0.044-0.215 0.094-0.319 0.292-0.371-0.084 0.028-0.252 0.083-0.337 0.11l-0.014-0.298c-0.217 0.094-0.412 0.24-0.47 0.482-0.354-0.096-0.716-0.146-1.079-0.185-0.025-0.042-0.076-0.125-0.101-0.167-0.3-0.006-0.6-0.005-0.9-0.005 0 0.443 0 0.886 0 1.328-0.408 0-0.816 0-1.224 0-0.001-0.076-0.002-0.227-0.004-0.302 0.312-0.001 0.624-0.002 0.936-0.002l0.006-0.149c-0.053-0.006-0.157-0.018-0.21-0.024 0.001-0.288 0.001-0.575 0.007-0.862 0.064-0.052 0.191-0.155 0.254-0.208-2.178-0.034-4.356-0.001-6.534-0.016-0.257-0.005-0.514 0.004-0.768 0.041z"></path>
<path fill="#ffdb00" d="M5.204 9.712c0.196 0 0.391 0 0.587 0.001 0 0.311 0 0.623 0 0.935-0.196 0-0.391 0-0.587 0-0.001-0.312 0-0.624 0-0.936z"></path>
<path fill="#ffdb00" d="M5.936 9.712c0.196 0 0.392 0 0.588 0 0 0.312 0 0.624 0 0.936-0.196 0-0.392 0-0.588 0 0-0.312 0-0.624 0-0.936z"></path>
<path fill="#ffdb00" d="M6.67 9.712c0.196 0 0.391 0 0.588 0 0 0.312 0 0.624 0 0.936-0.197 0-0.392 0-0.588 0-0.001-0.312 0-0.624 0-0.936z"></path>
<path fill="#ffdb00" d="M7.402 9.713c0.196-0.001 0.392-0.001 0.588-0.001 0 0.312 0 0.624 0 0.936-0.196 0-0.392 0-0.588 0 0-0.312 0-0.624 0-0.935z"></path>
<path fill="#ffdb00" d="M8.135 9.712c0.196 0 0.391 0 0.587 0 0 0.312 0.001 0.624 0.001 0.937-0.197-0.001-0.392-0.001-0.588-0.001 0-0.312 0-0.624 0-0.936z"></path>
<path fill="#ffdb00" d="M8.868 9.712c0.196 0 0.391 0 0.587 0 0 0.312 0 0.624 0.001 0.937-0.197-0.001-0.392-0.001-0.588-0.001 0-0.312 0-0.624 0-0.936z"></path>
<path fill="#ffdb00" d="M9.6 9.712c0.197 0 0.392 0 0.588 0.001 0 0.311 0 0.623 0 0.935-0.196 0-0.391 0-0.587 0.001-0.001-0.313-0.001-0.625-0.001-0.937z"></path>
<path fill="#ffdb00" d="M10.333 9.712c0.196 0 0.392 0 0.588 0 0 0.312 0 0.624 0 0.936-0.196 0-0.392 0-0.588 0.001 0-0.313 0-0.625 0-0.937z"></path>
<path fill="#ffdb00" d="M11.066 9.712c0.196 0 0.391 0 0.588 0 0 0.312 0 0.624 0 0.936-0.197 0-0.392 0-0.588 0 0-0.312 0-0.624 0-0.936z"></path>
<path fill="#ffdb00" d="M14.062 10.147c0.154 0.017 0.307 0.029 0.461 0.038l-0.073 0.103 0.14 0.064c-0.313 0.185-0.323 0.559-0.424 0.866-0.029-0.358 0.024-0.728-0.104-1.072z"></path>
<path fill="#ffdb00" d="M5.936 10.808c1.662-0.001 3.323 0 4.985 0 0 0.076 0 0.228 0 0.304-1.662 0-3.323 0-4.985 0 0-0.076 0-0.228 0-0.304z"></path>
<path fill="#000" d="M11.568 0.414c0.365-0.22 0.845-0.092 1.116 0.216 3.541 3.54 7.081 7.082 10.622 10.622 0.236 0.222 0.434 0.53 0.373 0.87-0.054 0.402-0.415 0.646-0.673 0.922-3.342 3.342-6.688 6.678-10.027 10.022-0.278 0.269-0.551 0.646-0.982 0.631-0.463 0.019-0.749-0.397-1.048-0.682-3.319-3.32-6.638-6.64-9.96-9.958-0.266-0.287-0.652-0.54-0.692-0.962-0.049-0.335 0.151-0.631 0.383-0.848 3.523-3.518 7.040-7.045 10.56-10.566 0.103-0.097 0.208-0.193 0.328-0.268M11.822 0.792c-0.284 0.184-0.498 0.455-0.742 0.688-3.221 3.218-6.442 6.436-9.662 9.655-0.214 0.223-0.461 0.421-0.628 0.684-0.127 0.232 0.050 0.463 0.218 0.612 3.544 3.535 7.081 7.079 10.62 10.62 0.184 0.244 0.548 0.244 0.734 0.002 3.58-3.587 7.168-7.168 10.745-10.757 0.251-0.214 0.108-0.558-0.107-0.734-3.523-3.52-7.045-7.043-10.567-10.564-0.154-0.161-0.384-0.326-0.612-0.206z"></path>
<path fill="#000" d="M4.756 9.59c0.254-0.037 0.511-0.046 0.768-0.041 2.178 0.014 4.356-0.018 6.534 0.016-0.064 0.053-0.191 0.156-0.254 0.208-0.006 0.287-0.006 0.574-0.007 0.862 0.053 0.006 0.157 0.018 0.21 0.024l-0.006 0.149c-0.312 0-0.624 0.001-0.936 0.002 0.001 0.076 0.002 0.227 0.004 0.302 0.408 0 0.816 0 1.224 0 0-0.443 0-0.886 0-1.328 0.3 0 0.6-0.001 0.9 0.005 0.025 0.042 0.076 0.125 0.101 0.167 0.362 0.038 0.725 0.089 1.079 0.185 0.059-0.242 0.253-0.389 0.47-0.482l0.014 0.298c0.085-0.028 0.253-0.083 0.337-0.11-0.198 0.052-0.336 0.156-0.292 0.371-0.032 0.037-0.098 0.112-0.132 0.149 0.258 0.265 0.271 0.647 0.355 0.986 0.156 0.001 0.313 0.002 0.469 0.004 0.163-0.493 0.098-1.015 0.113-1.524 0.392 0.096 0.196 0.637 0.286 0.942 0.984 0.095 1.969 0.192 2.953 0.287 0.072 0.671 0.145 1.342 0.216 2.012 0.181 0 0.362 0 0.544 0 0 0.108 0 0.324 0 0.432-0.432 0-0.864 0.001-1.295-0.001-0.050 0.504-0.473 0.977-1.012 0.899-0.47-0.028-0.767-0.462-0.823-0.896-2.46-0.002-4.919 0-7.378-0.001-0.055 0.467-0.407 0.918-0.912 0.904-0.51 0.022-0.869-0.432-0.923-0.904-1.199 0.001-2.396 0-3.594 0 0-0.143 0-0.287 0-0.431 0.13-0.001 0.258-0.002 0.388-0.002 0.157-0.654 0.319-1.306 0.481-1.958 0.384 0 0.769 0 1.153 0 0-0.077 0-0.228 0-0.304-0.337-0.014-0.694 0.059-1.013-0.083 0.475-0.058 0.244-0.637 0.262-0.96-0.071-0.043-0.212-0.131-0.284-0.175M5.204 9.712c0 0.312-0.001 0.624 0 0.936 0.196 0 0.391 0 0.587 0 0-0.312 0-0.624 0-0.935-0.196-0.001-0.391-0.001-0.587-0.001M5.936 9.712c0 0.312 0 0.624 0 0.936 0.196 0 0.392 0 0.588 0 0-0.312 0-0.624 0-0.936-0.196 0-0.392 0-0.588 0M6.67 9.712c0 0.312-0.001 0.624 0 0.936 0.196 0 0.391 0 0.588 0 0-0.312 0-0.624 0-0.936-0.197 0-0.392 0-0.588 0M7.402 9.713c0 0.311 0 0.623 0 0.935 0.196 0 0.392 0 0.588 0 0-0.312 0-0.624 0-0.936-0.196 0-0.392 0-0.588 0.001M8.135 9.712c0 0.312 0 0.624 0 0.936 0.196 0 0.391 0 0.588 0.001 0-0.313-0.001-0.625-0.001-0.937-0.196 0-0.391 0-0.587 0M8.868 9.712c0 0.312 0 0.624 0 0.936 0.196 0 0.391 0 0.588 0.001-0.001-0.313-0.001-0.625-0.001-0.937-0.196 0-0.391 0-0.587 0M9.6 9.712c0 0.312 0 0.624 0.001 0.937 0.196-0.001 0.391-0.001 0.587-0.001 0-0.312 0-0.624 0-0.935-0.196-0.001-0.391-0.001-0.588-0.001M10.333 9.712c0 0.312 0 0.624 0 0.937 0.196-0.001 0.392-0.001 0.588-0.001 0-0.312 0-0.624 0-0.936-0.196 0-0.392 0-0.588 0M11.066 9.712c0 0.312 0 0.624 0 0.936 0.196 0 0.391 0 0.588 0 0-0.312 0-0.624 0-0.936-0.197 0-0.392 0-0.588 0M14.062 10.147c0.128 0.343 0.076 0.714 0.104 1.072 0.101-0.307 0.11-0.682 0.424-0.866l-0.14-0.064 0.073-0.103c-0.154-0.010-0.307-0.022-0.461-0.038M5.936 10.808c0 0.076 0 0.228 0 0.304 1.662 0 3.323 0 4.985 0 0-0.076 0-0.228 0-0.304-1.662 0-3.323-0.001-4.985 0z"></path>
</svg>
