<?xml version="1.0" encoding="utf-8"?>
<!-- Generated by IcoMoon.io -->
<!DOCTYPE svg PUBLIC "-//W3C//DTD SVG 1.1//EN" "http://www.w3.org/Graphics/SVG/1.1/DTD/svg11.dtd">
<svg version="1.1" xmlns="http://www.w3.org/2000/svg" xmlns:xlink="http://www.w3.org/1999/xlink" width="24" height="24" viewBox="0 0 24 24">
<path fill="#ffd033" d="M0.344 11.167l10.824-10.823c0.458-0.458 1.207-0.458 1.665 0l10.824 10.823c0.458 0.458 0.458 1.207 0 1.665l-10.824 10.824c-0.458 0.458-1.207 0.458-1.665 0l-10.824-10.824c-0.458-0.458-0.458-1.208 0-1.665z"></path>
<path fill="#000" d="M0.604 11.339l10.735-10.735c0.363-0.363 0.958-0.363 1.321 0l10.735 10.735c0.363 0.363 0.363 0.958 0 1.322l-10.735 10.735c-0.363 0.364-0.958 0.364-1.321 0l-10.735-10.735c-0.363-0.364-0.363-0.958 0-1.322z"></path>
<path fill="#ffd033" d="M0.94 11.67l10.73-10.729c0.181-0.182 0.479-0.182 0.66 0l10.73 10.729c0.181 0.182 0.181 0.479 0 0.66l-10.73 10.73c-0.181 0.182-0.479 0.182-0.66 0l-10.73-10.73c-0.182-0.182-0.182-0.479 0-0.66z"></path>
<path fill="#000" d="M11.24 14.83l0.175-0.101c0.093-0.053 0.206-0.044 0.289 0.015-0.010-0.102 0.039-0.204 0.132-0.258l0.174-0.101c0.127-0.073 0.291-0.029 0.364 0.098l0.445 0.77c0.073 0.127 0.029 0.291-0.098 0.365l-0.175 0.1c-0.093 0.054-0.206 0.045-0.289-0.014 0.010 0.101-0.038 0.204-0.131 0.258l-0.175 0.1c-0.128 0.073-0.291 0.030-0.365-0.097l-0.445-0.77c-0.073-0.127-0.029-0.291 0.098-0.365z"></path>
<path fill="#000" d="M14.074 13.193l0.175-0.101c0.094-0.054 0.206-0.044 0.289 0.015-0.010-0.101 0.039-0.204 0.132-0.258l0.175-0.101c0.127-0.073 0.291-0.029 0.365 0.098l0.445 0.77c0.073 0.127 0.029 0.291-0.098 0.365l-0.175 0.1c-0.094 0.054-0.207 0.045-0.289-0.014 0.010 0.101-0.039 0.204-0.132 0.258l-0.175 0.1c-0.127 0.073-0.291 0.030-0.365-0.097l-0.445-0.77c-0.073-0.127-0.029-0.291 0.098-0.365z"></path>
<path fill="#000" d="M8.196 10.105l4.079-2.355 2.709 4.692-4.079 2.355-2.709-4.692z"></path>
<path fill="#000" d="M18.495 11.301l-0.001 0.744 0.65-0.194c0.090-0.025 0.156-0.035 0.226 0.012 0.099 0.068 0.125 0.203 0.057 0.302l-1.522 2.25-1.524-2.25c-0.067-0.099-0.042-0.234 0.058-0.302 0.066-0.045 0.135-0.037 0.216-0.016l0.66 0.199 0.002-0.744c0.002-2.919-2.378-5.299-5.297-5.299s-5.299 2.38-5.299 5.299v1.818h-1.177v-1.818c0-3.567 2.909-6.477 6.476-6.477s6.476 2.909 6.475 6.477z"></path>
<path fill="#000" d="M6.722 16.345h10.597v0.589h-10.597v-0.589z"></path>
</svg>
