<svg xmlns="http://www.w3.org/2000/svg" width="24" height="24">
    <path fill="#ffd520" d="M11.729 0h.491c.27.118.526.274.732.486 3.295 3.305 6.601 6.601 9.9 9.904.412.421.887.802 1.148 1.342v.494c-.204.522-.654.872-1.034 1.26-3.142 3.139-6.281 6.28-9.421 9.42-.4.392-.763.845-1.278 1.094h-.503c-.514-.214-.863-.656-1.248-1.036l-9.36-9.36c-.41-.422-.892-.798-1.156-1.338v-.503c.223-.541.692-.907 1.088-1.315 3.3-3.3 6.604-6.598 9.9-9.901.217-.218.469-.4.74-.547zm-.058.386a1.622 1.622 0 0 0-.342.259C7.749 4.227 4.16 7.802.585 11.39c-.359.313-.361.907.008 1.214 3.601 3.6 7.202 7.2 10.801 10.804a.806.806 0 0 0 1.212.001 18335 18335 0 0 1 10.799-10.805c.371-.306.37-.9.01-1.214C19.839 7.803 16.252 4.226 12.671.644c-.247-.27-.653-.445-1.001-.258z"/>
    <path fill="#ffd520" d="M11.816.887c.227-.229.457.088.626.229 3.516 3.524 7.042 7.039 10.56 10.561.185.163.283.402.048.574a7330.539 7330.539 0 0 1-10.798 10.801c-.155.212-.434.127-.571-.056C8.11 19.409 4.522 15.838.948 12.252c-.292-.218-.032-.527.164-.697C4.689 8.009 8.22 4.413 11.815.887zm-.92 1.831c-.676 1.19-1.159 2.479-1.674 3.745-.154.432-.394.877-.281 1.349.475-.151.948-.31 1.422-.462.002 4.054-.001 8.107.001 12.161l1.626.001c.006-1.716-.001-3.433.004-5.15a101.57 101.57 0 0 1 1.656.001l-.013 1.229-.536.016.002.996.553.008c.001.26.002.521.005.782-.187.004-.374.007-.56.012l.004 1.015.553.007.002.964.59.001c.005-.384.01-.768.013-1.152l.722-.001c0 .383.001.766.005 1.148.2-.005.402-.008.602-.012l-.001-.955.541-.011-.001-1.012c-.18-.005-.361-.008-.541-.012l.001-.774.54-.011.002-.997-.565-.01c.001-.412.005-.823.011-1.234.558-.002 1.116-.002 1.675-.001v-1.488c-.562 0-1.123 0-1.685-.002a160 160 0 0 1-.001-1.2l.553-.012.002-.92-.554-.018-.001-.889.541-.012-.001-.984-.542-.024.004-.936-.604-.002-.002 1.111-.736.001a50.854 50.854 0 0 0-.013-1.103l-.592.01-.002.943-.541.011.001 1.006.544.012c-.002.288-.005.575-.006.863l-.539.004.013.946.541.011c0 .391.001.782.004 1.175-.547.017-1.096.014-1.644.01-.002-1.843-.002-3.686 0-5.53.464.174.932.385 1.44.367-.457-1.627-1.223-3.151-1.948-4.673-.101-.224-.355-.654-.59-.317z"/>
    <path fill="#ffd520" d="M14.226 9.674l.721-.004c.004.392.004.786 0 1.178l-.721-.004V9.673zM14.249 11.486c.24-.008.48-.014.721-.02-.011.445.016.894-.034 1.338-.169.15-.466.034-.682.073-.001-.464-.002-.928-.006-1.391zM14.263 14.393h.722v1.375l-.722-.001c-.002-.458-.002-.916 0-1.374zM14.278 16.424h.708c.006.373.01.746.013 1.12h-.722c-.002-.373-.002-.746.001-1.12z"/>
    <path d="M11.671.386c.348-.187.754-.012 1.001.258 3.581 3.582 7.168 7.159 10.744 10.746.36.314.361.908-.01 1.214-3.601 3.599-7.201 7.202-10.799 10.805a.806.806 0 0 1-1.212-.001c-3.599-3.604-7.2-7.204-10.801-10.804-.37-.307-.367-.901-.008-1.214C4.161 7.802 7.75 4.227 11.33.645c.106-.097.214-.193.342-.259zm.145.501C8.221 4.413 4.69 8.009 1.113 11.555c-.197.17-.456.479-.164.697 3.574 3.586 7.162 7.157 10.733 10.744.137.184.416.269.571.056 3.601-3.598 7.204-7.198 10.798-10.801.235-.172.137-.41-.048-.574-3.518-3.522-7.044-7.037-10.56-10.561-.169-.142-.4-.458-.626-.229z"/>
    <path d="M10.896 2.718c.235-.337.49.092.59.317.725 1.522 1.49 3.046 1.948 4.673-.508.018-.976-.193-1.44-.367-.002 1.843-.002 3.686 0 5.53.548.005 1.097.007 1.644-.01-.002-.392-.004-.784-.004-1.175l-.541-.011-.013-.946.539-.004c.001-.288.004-.575.006-.863-.181-.005-.362-.008-.544-.012l-.001-1.006.541-.011.002-.943c.197-.002.395-.006.592-.01.01.368.012.736.013 1.103l.736-.001.002-1.111.604.002-.004.936.542.024.001.984-.541.012.001.889.554.018-.002.92-.553.012c-.001.4-.001.8.001 1.2.562.002 1.123.002 1.685.002v1.488c-.559-.001-1.117-.001-1.675.001-.006.41-.01.822-.011 1.234.187.002.376.006.565.01l-.002.997-.54.011-.001.774c.18.004.361.007.541.012l.001 1.012-.541.011.001.955c-.2.004-.402.007-.602.012-.004-.383-.005-.766-.005-1.148l-.722.001-.013 1.152-.59-.001-.002-.964-.553-.007-.004-1.015c.186-.005.373-.008.56-.012l-.005-.782a50.985 50.985 0 0 0-.553-.008l-.002-.996.536-.016c.005-.409.01-.82.013-1.229a101.57 101.57 0 0 0-1.656-.001c-.005 1.717.002 3.434-.004 5.15l-1.626-.001c-.002-4.054.001-8.107-.001-12.161-.474.152-.947.311-1.422.462-.113-.472.127-.917.281-1.349.515-1.266.998-2.555 1.674-3.745zm3.33 6.956v1.171l.721.004c.004-.392.004-.786 0-1.178l-.721.004zm.023 1.812c.004.463.005.926.006 1.391.216-.04.512.077.682-.073.049-.444.023-.893.034-1.338-.241.006-.481.012-.721.02zm.014 2.907c-.002.458-.002.916 0 1.374l.722.001v-1.375h-.722zm.015 2.031c-.004.373-.004.746-.001 1.12h.722c-.004-.373-.007-.746-.013-1.12h-.708z"/>
</svg>
