<!-- Generated by IcoMoon.io -->
<svg version="1.1" xmlns="http://www.w3.org/2000/svg" width="27" height="24" viewBox="0 0 27 24">
<title>warning--wind--g1</title>
<path fill="#c0111e" d="M13.201 0h0.696c0.519 0.165 1.001 0.479 1.257 0.974 3.87 6.711 7.737 13.422 11.604 20.134 0.146 0.263 0.263 0.541 0.361 0.826v0.538c-0.163 0.736-0.724 1.345-1.462 1.528h-24.161c-0.735-0.159-1.298-0.74-1.496-1.456v-0.666c0.111-0.297 0.241-0.588 0.399-0.864 3.859-6.678 7.704-13.364 11.559-20.043 0.258-0.488 0.734-0.799 1.243-0.971M2.843 21.601c7.14 0.005 14.281 0.004 21.421 0-3.557-6.202-7.13-12.397-10.706-18.59-3.58 6.193-7.155 12.386-10.715 18.59z"></path>
<path fill="#fff" d="M2.843 21.601c3.559-6.203 7.135-12.397 10.715-18.59 3.577 6.193 7.15 12.388 10.706 18.59-7.14 0.004-14.281 0.005-21.421 0M6.777 16.229c0.281 1.603 0.571 3.204 0.858 4.805 0.229-0.001 0.458-0.003 0.689-0.004 0.174-0.827 0.328-1.658 0.513-2.484 0.18 0.828 0.34 1.661 0.519 2.488 0.22-0.001 0.439-0.001 0.659 0 0.298-1.601 0.588-3.204 0.877-4.807-0.252 0-0.504-0.001-0.757-0.001-0.167 0.847-0.317 1.698-0.481 2.546-0.179-0.847-0.335-1.7-0.515-2.548-0.203 0-0.407 0.001-0.609 0.001-0.188 0.847-0.342 1.702-0.538 2.546-0.146-0.852-0.3-1.702-0.46-2.551-0.251 0.003-0.503 0.004-0.755 0.007M11.643 16.233c-0.003 1.601-0.003 3.203 0 4.804 0.252-0.001 0.506-0.001 0.759 0 0.004-1.601 0.004-3.203 0-4.804-0.254 0-0.506 0-0.759 0M13.607 21.035c0.258 0 0.517 0 0.776 0 0.005-1.068-0.003-2.138 0.004-3.207 0.56 1.062 1.116 2.126 1.665 3.193 0.201 0.007 0.401 0.012 0.602 0.019 0.004-1.605 0.003-3.209 0-4.814-0.258 0-0.517 0-0.776 0-0.005 0.957 0.003 1.916-0.004 2.873-0.503-0.956-0.988-1.92-1.494-2.873-0.258 0-0.517 0.001-0.776 0.001 0.003 1.601-0.001 3.204 0.003 4.807M17.841 16.228c-0.004 1.601-0.004 3.203 0 4.805 0.826-0.087 1.862 0.274 2.5-0.423 0.762-1.022 0.641-2.483 0.249-3.631-0.484-1.071-1.824-0.683-2.75-0.751z"></path>
<path fill="#fff" d="M18.621 20.355c0-1.153-0.011-2.306 0.005-3.459 0.458 0.016 1.115-0.094 1.322 0.446 0.259 0.803 0.22 1.699 0.043 2.517-0.186 0.593-0.881 0.514-1.371 0.496z"></path>
<path fill="#000" d="M6.777 16.229c0.252-0.003 0.504-0.004 0.755-0.007 0.16 0.849 0.313 1.699 0.46 2.551 0.197-0.845 0.35-1.699 0.538-2.546 0.202 0 0.405-0.001 0.609-0.001 0.18 0.847 0.336 1.7 0.515 2.548 0.164-0.849 0.315-1.699 0.481-2.546 0.252 0 0.504 0.001 0.757 0.001-0.289 1.603-0.579 3.205-0.877 4.807-0.22-0.001-0.439-0.001-0.659 0-0.179-0.827-0.339-1.66-0.519-2.488-0.184 0.826-0.339 1.657-0.513 2.484-0.231 0.001-0.46 0.003-0.689 0.004-0.287-1.601-0.578-3.203-0.858-4.805z"></path>
<path fill="#000" d="M11.643 16.233c0.254 0 0.506 0 0.759 0 0.004 1.601 0.004 3.203 0 4.804-0.254-0.001-0.507-0.001-0.759 0-0.003-1.601-0.003-3.203 0-4.804z"></path>
<path fill="#000" d="M13.607 21.035c-0.004-1.603 0-3.205-0.003-4.807 0.259 0 0.518-0.001 0.776-0.001 0.506 0.953 0.991 1.917 1.494 2.873 0.007-0.957-0.001-1.916 0.004-2.873 0.259 0 0.518 0 0.776 0 0.003 1.604 0.004 3.208 0 4.814-0.201-0.007-0.401-0.012-0.602-0.019-0.549-1.067-1.105-2.132-1.665-3.193-0.007 1.068 0.001 2.138-0.004 3.207-0.259 0-0.518 0-0.776 0z"></path>
<path fill="#000" d="M17.841 16.228c0.926 0.068 2.266-0.32 2.75 0.751 0.392 1.148 0.513 2.609-0.249 3.631-0.639 0.697-1.675 0.336-2.5 0.423-0.004-1.603-0.004-3.204 0-4.805M18.621 20.355c0.489 0.018 1.185 0.096 1.371-0.496 0.176-0.818 0.216-1.714-0.043-2.517-0.207-0.54-0.864-0.43-1.322-0.446-0.016 1.153-0.005 2.306-0.005 3.459z"></path>
</svg>
