<?xml version="1.0" encoding="utf-8"?>
<!-- Generated by IcoMoon.io -->
<!DOCTYPE svg PUBLIC "-//W3C//DTD SVG 1.1//EN" "http://www.w3.org/Graphics/SVG/1.1/DTD/svg11.dtd">
<svg version="1.1" xmlns="http://www.w3.org/2000/svg" xmlns:xlink="http://www.w3.org/1999/xlink" width="24" height="24" viewBox="0 0 24 24">
<path fill="#fce837" d="M11.723 1.31h0.633c0.356 0.212 0.683 0.491 0.854 0.879 0.11 0.197 0.233 0.388 0.348 0.582 0.177 0.374 0.4 0.721 0.619 1.070 0.065 0.152 0.132 0.302 0.197 0.452 0.163 0.265 0.331 0.524 0.487 0.792 0.171 0.283 0.348 0.564 0.491 0.862 0.13 0.233 0.274 0.458 0.41 0.687 0.132 0.234 0.277 0.459 0.415 0.691 0.153 0.268 0.32 0.526 0.472 0.793 0.157 0.337 0.367 0.643 0.55 0.964 0.142 0.301 0.32 0.581 0.502 0.859 0.061 0.13 0.123 0.261 0.186 0.39 0.179 0.279 0.359 0.557 0.501 0.859 0.152 0.266 0.317 0.524 0.468 0.79 0.141 0.301 0.321 0.579 0.501 0.857 0.062 0.13 0.123 0.259 0.183 0.39 0.12 0.192 0.25 0.378 0.367 0.572 0.226 0.535 0.561 1.011 0.825 1.527 0.131 0.233 0.276 0.458 0.411 0.688 0.132 0.232 0.277 0.458 0.414 0.688 0.152 0.268 0.321 0.526 0.472 0.793 0.141 0.301 0.32 0.578 0.492 0.861 0.186 0.323 0.399 0.63 0.554 0.97 0.153 0.268 0.321 0.526 0.479 0.79 0.033 0.072 0.098 0.214 0.13 0.284 0.106 0.207 0.214 0.414 0.317 0.622v0.45c-0.106 0.199-0.21 0.399-0.31 0.601-0.164 0.105-0.321 0.219-0.474 0.338-0.85 0.008-1.699-0.021-2.549 0.022-0.207 0.097-0.434 0.121-0.659 0.12-5.706-0.008-11.412-0.001-17.119-0.004-0.705-0.011-1.412 0.034-2.114-0.043-0.207-0.171-0.404-0.352-0.601-0.531-0.057-0.182-0.113-0.363-0.172-0.543v-0.148c0.080-0.199 0.152-0.399 0.233-0.596 0.119-0.189 0.246-0.372 0.366-0.56 0.033-0.070 0.099-0.212 0.131-0.283 0.033-0.072 0.098-0.215 0.13-0.287 0.139-0.229 0.286-0.452 0.428-0.677 0.109-0.223 0.214-0.447 0.321-0.669 0.142-0.228 0.291-0.45 0.43-0.677 0.029-0.073 0.087-0.218 0.117-0.291 0.123-0.19 0.252-0.375 0.375-0.566 0.032-0.070 0.095-0.212 0.128-0.283 0.063-0.13 0.127-0.261 0.19-0.39 0.12-0.193 0.25-0.379 0.371-0.572 0.059-0.131 0.119-0.262 0.178-0.394 0.123-0.192 0.254-0.377 0.375-0.568 0.030-0.073 0.090-0.218 0.12-0.29 0.196-0.316 0.403-0.626 0.561-0.963 0.185-0.321 0.393-0.63 0.552-0.967 0.131-0.233 0.274-0.457 0.41-0.688 0.132-0.233 0.283-0.455 0.426-0.683 0.029-0.072 0.090-0.214 0.12-0.284 0.218-0.349 0.439-0.698 0.623-1.066 0.032-0.072 0.092-0.214 0.123-0.284 0.145-0.225 0.294-0.448 0.433-0.677 0.066-0.152 0.132-0.303 0.199-0.455 0.138-0.229 0.286-0.454 0.423-0.684 0.182-0.323 0.39-0.63 0.56-0.96 0.030-0.072 0.091-0.214 0.121-0.286 0.194-0.317 0.404-0.628 0.56-0.967 0.131-0.232 0.279-0.455 0.419-0.681 0.061-0.13 0.123-0.261 0.185-0.39 0.141-0.228 0.29-0.451 0.419-0.686 0.114-0.197 0.243-0.386 0.361-0.579 0.062-0.13 0.123-0.261 0.183-0.39 0.12-0.197 0.25-0.388 0.366-0.588 0.135-0.146 0.272-0.29 0.408-0.434 0.094-0.040 0.281-0.12 0.375-0.16M11.505 1.781c-0.207 0.112-0.332 0.317-0.451 0.512-1.061 1.84-2.12 3.681-3.163 5.532-2.444 4.31-4.983 8.568-7.363 12.914-0.378 0.611 0.101 1.517 0.83 1.501 6.994-0.010 13.99-0.103 20.986-0.123 0.302-0.012 0.634-0.011 0.884-0.207 0.458-0.31 0.526-0.989 0.228-1.432-1.414-2.412-2.828-4.823-4.199-7.259-2.092-3.688-4.233-7.35-6.354-11.022-0.247-0.502-0.917-0.706-1.399-0.417z"></path>
<path fill="#fce837" d="M11.727 4.756c0.086-0.15 0.186-0.292 0.305-0.419 3.112 5.291 6.148 10.628 9.189 15.959-6.153 0.037-12.306 0.066-18.458 0.12 3.001-5.212 5.956-10.451 8.964-15.659M13.018 6.832c-0.272 0.281-0.537 0.571-0.806 0.855 0.007 0.35 0.006 0.702-0.028 1.051 0.404 0.767 0.6 1.684 0.412 2.542-0.177 0.839-0.138 1.695-0.138 2.546-0.716-0.033-1.433-0.019-2.149-0.036-0.006-0.348 0.19-0.836-0.303-0.916-0.004 0.299-0.003 0.599 0 0.898-0.080 0.006-0.24 0.018-0.319 0.023-0.010 0.756 0.040 1.516-0.021 2.27-0.113 0.549-0.194 1.219-0.778 1.469-0.055 0.163-0.11 0.327-0.166 0.492-0.159 0.044-0.317 0.088-0.474 0.134-0.061 0.614-0.548 1.199-1.196 1.194-1.069-0.054-2.141-0.074-3.21 0.017-0.11 0.206-0.222 0.411-0.331 0.618 5.647-0.032 11.295-0.068 16.943-0.102-2.292-4.211-4.652-8.383-6.999-12.564-0.114-0.19-0.28-0.339-0.44-0.492z"></path>
<path fill="#1e2927" d="M11.505 1.781c0.481-0.29 1.152-0.086 1.399 0.417 2.121 3.672 4.262 7.334 6.354 11.022 1.371 2.436 2.785 4.847 4.199 7.259 0.298 0.443 0.23 1.121-0.228 1.432-0.25 0.196-0.582 0.194-0.884 0.207-6.996 0.019-13.992 0.113-20.986 0.123-0.73 0.017-1.208-0.89-0.83-1.501 2.379-4.346 4.919-8.604 7.363-12.914 1.043-1.851 2.102-3.692 3.163-5.532 0.119-0.194 0.244-0.4 0.451-0.512M11.727 4.756c-3.008 5.208-5.963 10.447-8.964 15.659 6.152-0.054 12.305-0.083 18.458-0.12-3.041-5.331-6.077-10.668-9.189-15.959-0.119 0.127-0.219 0.269-0.305 0.419z"></path>
<path fill="#1e2927" d="M13.018 6.832c0.16 0.153 0.326 0.302 0.44 0.492 2.346 4.181 4.706 8.353 6.999 12.564-5.648 0.034-11.297 0.070-16.943 0.102 0.109-0.207 0.221-0.412 0.331-0.618 1.069-0.091 2.141-0.070 3.21-0.017 0.648 0.004 1.135-0.581 1.196-1.194 0.157-0.046 0.316-0.090 0.474-0.134 0.055-0.166 0.11-0.33 0.166-0.492 0.583-0.25 0.665-0.92 0.778-1.469 0.061-0.754 0.011-1.514 0.021-2.27 0.079-0.006 0.239-0.018 0.319-0.023-0.003-0.299-0.004-0.599 0-0.898 0.494 0.080 0.298 0.568 0.303 0.916 0.716 0.017 1.433 0.003 2.149 0.036 0-0.851-0.039-1.708 0.138-2.546 0.188-0.858-0.008-1.775-0.412-2.542 0.033-0.349 0.034-0.701 0.028-1.051 0.269-0.284 0.534-0.574 0.806-0.855z"></path>
</svg>
