<svg xmlns="http://www.w3.org/2000/svg" width="24" height="24">
    <path fill="#ec1d24" d="M11.78 1.333h.561c.47.141.908.419 1.142.86 3.427 5.937 6.844 11.88 10.271 17.818.129.231.248.468.351.715v.678a1.792 1.792 0 0 1-1.294 1.262H1.327C.667 22.524.172 21.993 0 21.353V20.8c.196-.552.518-1.043.807-1.548 3.276-5.684 6.551-11.371 9.829-17.053.234-.444.674-.724 1.144-.867zM2.535 20.534c6.352.004 12.704.004 19.055 0-3.172-5.51-6.343-11.021-9.529-16.524a7760.82 7760.82 0 0 0-9.526 16.524z"/>
    <path fill="#fff" d="M2.535 20.534C5.704 15.021 8.88 9.514 12.061 4.01c3.186 5.503 6.356 11.014 9.529 16.524-6.352.004-12.704.004-19.055 0zm6.781-9.37c-.81.189-.58 1.236-.769 1.858.2.478.074.981-.035 1.466.24.287.623.364.956.194.061-.339.124-.677.183-1.017 1.274.281 2.556.531 3.853.675-.058.332-.111.663-.177.992.233.301.627.351.957.19.059-.351.125-.699.189-1.049.487-.389.364-1.09.521-1.632.113-.317-.089-.57-.329-.749-.092-.759.386-1.98-.57-2.326-1.199-.216-2.4-.475-3.611-.604-.886.196-.823 1.337-1.168 2.004zm-2.276 4.08c-.446.217-.627.964-.092 1.188 1.304.573 2.74.742 4.141.908.394.66 1.141.901 1.75 1.291.435.453-.146.932-.514 1.172.556-.014 1.114.02 1.67-.013.34-.323.511-.912.199-1.315-.43-.583-1.146-.836-1.812-1.04 1.588.135 3.322-.284 4.794.475.732.576-.146 1.378-.517 1.889.59.004 1.181.003 1.772.001.101-.697.413-1.457.076-2.134-.393-.697-1.264-.87-1.997-.932-1.498-.047-2.999.014-4.496-.046.494-.493 1.185-.671 1.839-.84-.996-.342-2.241-.134-2.837.803-1.044-.104-2.178-.071-3.126-.549-.153-.675.81-.815 1.255-1.074-.708-.187-1.497-.285-2.103.22z"/>
    <path fill="#fff" d="M9.828 10.99c-.047-.506.16-1.238.772-1.262 1.127.05 2.251.26 3.33.581.578.217.536.991.312 1.453-1.469-.267-2.939-.542-4.415-.772z"/>
    <path d="M9.316 11.164c.345-.667.282-1.808 1.168-2.004 1.212.129 2.412.388 3.611.604.956.346.478 1.567.57 2.326.24.18.443.433.329.749-.156.542-.034 1.243-.521 1.632-.064.349-.13.698-.189 1.049-.331.16-.724.111-.957-.19.067-.329.119-.66.177-.992-1.298-.145-2.58-.394-3.853-.675-.059.34-.122.678-.183 1.017a.77.77 0 0 1-.956-.194c.108-.484.235-.988.035-1.466.189-.622-.041-1.668.769-1.858zm.512-.174c1.476.23 2.946.506 4.415.772.224-.463.265-1.236-.312-1.453a13.81 13.81 0 0 0-3.33-.581c-.612.024-.82.756-.772 1.262zM7.04 15.244c.606-.506 1.396-.407 2.103-.22-.444.26-1.408.399-1.255 1.074.948.478 2.083.446 3.126.549.596-.937 1.842-1.145 2.837-.803-.654.169-1.345.348-1.839.84 1.497.06 2.997-.001 4.496.046.732.063 1.604.236 1.997.932.338.677.025 1.438-.076 2.134-.59.001-1.181.004-1.772-.001.372-.511 1.25-1.313.517-1.889-1.472-.758-3.206-.34-4.794-.475.667.204 1.382.457 1.812 1.04.312.403.141.992-.199 1.315-.556.033-1.114-.001-1.67.013.368-.238.948-.718.514-1.172-.609-.389-1.356-.63-1.75-1.291-1.402-.165-2.837-.334-4.141-.908-.534-.223-.353-.971.092-1.188z"/>
</svg>
