<svg xmlns="http://www.w3.org/2000/svg" width="24" height="24">
    <path fill="#db0000" d="M11.853 1.333h.578c.81.178 1.491.726 1.889 1.444 2.931 4.986 5.86 9.972 8.789 14.959.418.73.916 1.433 1.133 2.257v.836c-.212.987-1.087 1.673-2.053 1.837H2.087C1.078 22.51.189 21.77 0 20.742v-.663c.203-.857.716-1.58 1.147-2.332C4.095 12.736 7.036 7.719 9.986 2.71a2.823 2.823 0 0 1 1.868-1.377zm-9.52 19.005c6.532.003 13.064.003 19.597 0a3506.721 3506.721 0 0 0-9.799-16.654 3225.639 3225.639 0 0 0-9.799 16.654z"/>
    <path fill="#fff" d="M2.333 20.338a3155.16 3155.16 0 0 1 9.799-16.654 3557.553 3557.553 0 0 1 9.799 16.654c-6.533.003-13.066.003-19.597 0zm3.213-4.555c-.003 1.324-.001 2.649 0 3.973.628.011 1.572.146 1.78-.651a14.41 14.41 0 0 0-.003-2.692c-.244-.756-1.15-.647-1.777-.63zm2.987-.003c-.296 1.326-.593 2.651-.886 3.977a60 60 0 0 1 .6 0c.05-.286.111-.57.161-.856.244 0 .49.003.736.001.047.286.109.57.156.854h.611c-.293-1.326-.59-2.65-.884-3.974-.164.001-.33 0-.493-.003zm1.671 0c-.004 1.326 0 2.652-.001 3.978h.564c.006-.78-.012-1.56.012-2.34.314.772.58 1.563.876 2.342.176-.004.351-.004.527-.004v-3.974h-.564c-.006.793.001 1.586-.009 2.378-.298-.789-.58-1.584-.87-2.376-.178 0-.356-.003-.536-.004zm2.365.513c-.058.976-.063 1.96-.026 2.936.127.61.866.597 1.34.463.204.036.411.064.62.077.043-.8.03-1.603.047-2.404-.348-.001-.696-.001-1.043.001a29.13 29.13 0 0 1-.009.59c.154.004.308.012.462.027a9.967 9.967 0 0 1-.051 1.036c-.267.017-.671.172-.834-.121-.037-.76-.024-1.526.011-2.284.05-.417.582-.244.863-.249.018.167.04.333.066.5.176 0 .353.003.53.004.004-.411.033-1.026-.487-1.133-.523-.108-1.4-.142-1.49.557zm2.411-.511c-.003 1.324-.001 2.65-.001 3.974.566.003 1.131.003 1.696-.001-.003-.19-.003-.38-.003-.571l-1.131-.001v-1.169l.999-.006a15.667 15.667 0 0 1-.004-.531c-.332.004-.663-.001-.994 0 0-.39.001-.78.004-1.171.376.001.753 0 1.13-.001-.004-.176-.004-.35-.003-.524h-1.692zm2.21.001c-.003 1.324-.001 2.65-.001 3.974.189-.003.378-.001.567.001l.001-1.713c.119.012.239.017.359.017.174.566.351 1.131.531 1.694h.597c-.193-.601-.397-1.197-.586-1.8.53-.401.588-1.2.294-1.756-.383-.596-1.172-.382-1.764-.418z"/>
    <path fill="#fff" d="M6.109 19.24c-.004-.98-.01-1.961.004-2.94.239.046.623-.001.684.316.036.761.034 1.529 0 2.29-.02.357-.436.311-.687.334zM17.76 16.302c1.074-.356 1.069 1.618.001 1.266a59.363 59.363 0 0 1-.001-1.266zM8.511 18.377c.084-.471.164-.944.263-1.412.094.469.18.94.266 1.412h-.529z"/>
    <path d="M5.546 15.783c.627-.017 1.532-.124 1.777.63.087.889.084 1.803.003 2.692-.207.796-1.151.662-1.78.651-.001-1.324-.003-2.65 0-3.973zm.563 3.457c.252-.023.668.023.687-.334.034-.761.036-1.529 0-2.29-.06-.317-.444-.27-.684-.316-.013.98-.007 1.96-.004 2.94zM8.533 15.78c.164.003.329.004.493.003.294 1.324.591 2.649.884 3.974h-.611c-.047-.284-.109-.569-.156-.854-.246.001-.491-.001-.736-.001-.05.286-.111.57-.161.856a60 60 0 0 0-.6 0c.293-1.326.59-2.651.886-3.977zm-.022 2.597h.529c-.086-.471-.171-.943-.266-1.412-.098.468-.18.94-.263 1.412zM10.204 15.78c.18.003.357.004.536.004.291.791.572 1.587.87 2.376.01-.793.003-1.586.009-2.378h.564v3.974c-.176-.001-.351 0-.527.004-.296-.78-.563-1.57-.876-2.342-.024.78-.006 1.56-.012 2.34a53.016 53.016 0 0 0-.564 0c.001-1.326-.003-2.652.001-3.978zM12.569 16.293c.09-.7.967-.666 1.49-.557.52.108.491.723.487 1.133-.177-.001-.354-.004-.53-.004a11.775 11.775 0 0 1-.066-.5c-.281.004-.813-.169-.863.249a23.512 23.512 0 0 0-.011 2.284c.163.293.567.138.834.121.036-.346.05-.691.051-1.036a7.153 7.153 0 0 0-.462-.027l.009-.59c.347-.003.694-.003 1.043-.001-.017.801-.004 1.604-.047 2.404a5.614 5.614 0 0 1-.62-.077c-.476.134-1.213.147-1.34-.463-.037-.976-.033-1.96.026-2.936zM14.98 15.782h1.692c-.003.173-.001.348.003.524-.377.001-.754.003-1.13.001-.003.39-.004.78-.004 1.171.331-.001.662.004.994 0a23.5 23.5 0 0 0 .004.531l-.999.006v1.169l1.131.001c0 .19 0 .38.003.571-.564.004-1.13.004-1.696.001 0-1.324-.001-2.65.001-3.974zM17.19 15.783c.591.036 1.38-.177 1.764.418.293.556.236 1.356-.294 1.756.188.603.393 1.199.586 1.8a59.402 59.402 0 0 0-.597 0c-.18-.564-.356-1.129-.531-1.694-.12 0-.24-.004-.359-.017l-.001 1.713a17.862 17.862 0 0 0-.567-.001c0-1.324-.001-2.65.001-3.974zm.57.519c-.004.422-.004.844.001 1.266 1.068.353 1.073-1.622-.001-1.266z"/>
</svg>
