<!-- Generated by IcoMoon.io -->
<svg version="1.1" xmlns="http://www.w3.org/2000/svg" width="24" height="24" viewBox="0 0 24 24">
<title>warning--low-flying-aircraft--g8</title>
<path fill="#c5a518" opacity="0.77" d="M11.706 0h0.542c0.354 0.133 0.679 0.337 0.943 0.608 3.432 3.45 6.889 6.875 10.318 10.326 0.582 0.556 0.569 1.559-0.019 2.104-3.48 3.487-6.964 6.972-10.45 10.452-0.546 0.584-1.55 0.6-2.102 0.017-3.449-3.433-6.875-6.889-10.326-10.32-0.27-0.259-0.474-0.577-0.612-0.923v-0.539c0.122-0.352 0.314-0.677 0.581-0.938 3.164-3.157 6.324-6.319 9.485-9.48 0.498-0.49 0.955-1.072 1.64-1.307M11.813 0.295c-0.36 0.050-0.644 0.296-0.894 0.541-3.395 3.406-6.802 6.799-10.198 10.202-0.51 0.442-0.604 1.285-0.090 1.762 3.499 3.504 7 7.010 10.502 10.511 0.444 0.49 1.277 0.468 1.714-0.018 3.481-3.482 6.964-6.965 10.445-10.447 0.515-0.464 0.484-1.333-0.037-1.78-3.415-3.426-6.847-6.833-10.259-10.261-0.301-0.322-0.724-0.595-1.183-0.51z"></path>
<path fill="#000" d="M11.813 0.295c0.46-0.085 0.882 0.188 1.183 0.51 3.412 3.428 6.844 6.835 10.259 10.261 0.521 0.446 0.552 1.315 0.037 1.78-3.481 3.482-6.964 6.965-10.445 10.447-0.437 0.486-1.27 0.508-1.714 0.018-3.503-3.5-7.003-7.007-10.502-10.511-0.514-0.476-0.42-1.32 0.090-1.762 3.396-3.403 6.803-6.797 10.198-10.202 0.25-0.245 0.534-0.491 0.894-0.541M11.684 0.773c-0.3 0.166-0.518 0.437-0.761 0.671-3.314 3.326-6.647 6.636-9.958 9.966-0.344 0.304-0.33 0.863 0.020 1.157 3.461 3.461 6.926 6.92 10.385 10.386 0.29 0.361 0.864 0.4 1.171 0.037 3.485-3.479 6.968-6.962 10.45-10.446 0.356-0.311 0.314-0.878-0.037-1.174-3.437-3.445-6.882-6.883-10.324-10.324-0.234-0.254-0.608-0.444-0.947-0.274z"></path>
<path fill="#000" d="M13.513 6.668c0.938-0.169 1.859-0.446 2.804-0.563 0.408 0.026 0.451 0.689 0.048 0.762-1.123 0.276-2.264 0.479-3.392 0.734-0.241 0.085-0.457-0.059-0.665-0.158-0.294 0.052-0.587 0.112-0.878 0.172 0.092 0.44 0.185 0.881 0.28 1.32 0.848-0.221 1.724-0.593 2.612-0.455 1.192 0.284 1.408 2.13 0.302 2.663-0.733 0.224-1.495 0.386-2.255 0.486-2.172-0.044-4.345-0.144-6.517-0.208-0.136 1.012-1.268 1.739-2.221 1.278-1.081-0.434-1.243-2.099-0.253-2.722 0.821-0.618 2.024-0.152 2.396 0.758 1.908-0.575 3.811-1.164 5.718-1.74-0.094-0.445-0.187-0.889-0.281-1.334-0.554 0.066-1.072 0.251-1.507 0.598-1.244 0.295-2.502 0.554-3.758 0.796-0.472 0.126-0.652-0.677-0.166-0.749 1.217-0.286 2.443-0.535 3.666-0.794 0.235-0.079 0.451 0.049 0.656 0.149 0.724-0.14 1.447-0.288 2.161-0.47 0.269-0.43 0.814-0.407 1.249-0.522M12.376 8.95c0.434 0.739 0.864 1.481 1.301 2.22 0.978 0.011 1.81-1.066 1.224-1.954-0.56-0.906-1.706-0.425-2.525-0.266M3.539 11.28c0.013 0.864 1.248 0.907 1.5 0.149-0.358-0.047-0.716-0.077-1.074-0.124 0.335-0.138 0.68-0.246 1.019-0.373-0.384-0.625-1.468-0.452-1.445 0.348z"></path>
<path fill="#000" d="M15.18 11.459c0.637-0.202 0.962 0.859 0.313 1.031-1.999 0.458-4.013 0.881-6.024 1.283-0.644 0.151-0.866-0.923-0.22-1.042 1.97-0.448 3.952-0.858 5.93-1.272z"></path>
<path fill="#000" d="M5.015 15.805c5.916-1.291 11.839-2.555 17.764-3.814-3.584 3.606-7.192 7.192-10.781 10.794-1.105-1.11-2.215-2.215-3.322-3.323 1.331-0.712 2.664-1.418 3.994-2.134-0.192-0.131-0.383-0.26-0.575-0.39-1.355 0.626-2.711 1.25-4.057 1.896-1.004-1.014-2.020-2.016-3.023-3.030M17.576 14.41c0.772 0.181 1.444-0.502 2.062-0.877-0.739 0.149-1.393 0.546-2.062 0.877M16.058 15.103c-0.851 0.365-1.679 0.78-2.52 1.164 0.176 0.106 0.354 0.209 0.532 0.314 0.866-0.454 1.739-0.896 2.585-1.387-0.194-0.041-0.398-0.196-0.596-0.091z"></path>
<path fill="#ffd520" d="M11.684 0.773c0.338-0.17 0.713 0.019 0.947 0.274 3.442 3.44 6.887 6.878 10.324 10.324 0.352 0.295 0.394 0.863 0.037 1.174-3.481 3.484-6.965 6.967-10.45 10.446-0.307 0.362-0.881 0.324-1.171-0.037-3.458-3.466-6.924-6.925-10.385-10.386-0.35-0.294-0.365-0.853-0.020-1.157 3.311-3.33 6.643-6.64 9.958-9.966 0.242-0.234 0.461-0.505 0.761-0.671M13.513 6.668c-0.436 0.115-0.98 0.092-1.249 0.522-0.714 0.182-1.438 0.33-2.161 0.47-0.205-0.1-0.421-0.228-0.656-0.149-1.223 0.259-2.449 0.509-3.666 0.794-0.486 0.072-0.306 0.875 0.166 0.749 1.256-0.241 2.514-0.5 3.758-0.796 0.436-0.347 0.953-0.532 1.507-0.598 0.094 0.445 0.187 0.889 0.281 1.334-1.907 0.576-3.81 1.165-5.718 1.74-0.372-0.911-1.576-1.376-2.396-0.758-0.99 0.623-0.828 2.287 0.253 2.722 0.953 0.461 2.086-0.266 2.221-1.278 2.172 0.064 4.345 0.163 6.517 0.208 0.76-0.1 1.522-0.262 2.255-0.486 1.105-0.533 0.889-2.378-0.302-2.663-0.888-0.138-1.764 0.234-2.612 0.455-0.095-0.439-0.187-0.88-0.28-1.32 0.292-0.060 0.584-0.12 0.878-0.172 0.208 0.1 0.424 0.244 0.665 0.158 1.128-0.256 2.269-0.458 3.392-0.734 0.403-0.073 0.36-0.736-0.048-0.762-0.946 0.116-1.866 0.394-2.804 0.563M15.18 11.459c-1.979 0.414-3.96 0.824-5.93 1.272-0.647 0.119-0.425 1.193 0.22 1.042 2.011-0.402 4.025-0.824 6.024-1.283 0.649-0.172 0.324-1.232-0.313-1.031M5.015 15.805c1.003 1.014 2.018 2.016 3.023 3.030 1.346-0.646 2.702-1.27 4.057-1.896 0.192 0.13 0.383 0.259 0.575 0.39-1.33 0.715-2.663 1.422-3.994 2.134 1.106 1.108 2.216 2.213 3.322 3.323 3.589-3.602 7.196-7.188 10.781-10.794-5.924 1.259-11.848 2.522-17.764 3.814z"></path>
<path fill="#ffd520" d="M12.376 8.95c0.818-0.158 1.964-0.64 2.525 0.266 0.586 0.888-0.246 1.964-1.224 1.954-0.437-0.739-0.866-1.481-1.301-2.22z"></path>
<path fill="#ffd520" d="M3.539 11.28c-0.023-0.8 1.061-0.973 1.445-0.348-0.338 0.127-0.684 0.235-1.019 0.373 0.358 0.047 0.716 0.077 1.074 0.124-0.252 0.758-1.487 0.715-1.5-0.149z"></path>
<path fill="#ffd520" d="M17.576 14.41c0.668-0.331 1.322-0.728 2.062-0.877-0.618 0.376-1.29 1.058-2.062 0.877z"></path>
<path fill="#ffd520" d="M16.058 15.103c0.198-0.104 0.402 0.050 0.596 0.091-0.846 0.491-1.718 0.934-2.585 1.387-0.178-0.106-0.355-0.209-0.532-0.314 0.841-0.384 1.669-0.799 2.52-1.164z"></path>
</svg>
