<!-- Generated by IcoMoon.io -->
<svg version="1.1" xmlns="http://www.w3.org/2000/svg" width="24" height="24" viewBox="0 0 24 24">
<title>warning--playground--g3</title>
<path fill="#fecf33" d="M11.772 0h0.43c0.552 0.151 0.902 0.624 1.294 1.003 3.167 3.168 6.333 6.335 9.5 9.501 0.377 0.386 0.829 0.737 1.004 1.269v0.429c-0.158 0.549-0.625 0.902-1.006 1.292-3.167 3.167-6.334 6.333-9.502 9.498-0.387 0.374-0.731 0.834-1.264 1.008h-0.434c-0.253-0.088-0.495-0.214-0.685-0.406-3.369-3.365-6.735-6.734-10.103-10.1-0.378-0.385-0.831-0.734-1.006-1.267v-0.434c0.148-0.524 0.588-0.867 0.953-1.239 3.184-3.183 6.368-6.366 9.55-9.551 0.386-0.376 0.735-0.833 1.269-1.003M11.842 0.348c-0.248 0.037-0.45 0.199-0.624 0.369-3.512 3.522-7.033 7.036-10.548 10.556-0.413 0.349-0.453 1.028-0.049 1.4 3.566 3.571 7.135 7.139 10.706 10.705 0.349 0.381 0.997 0.38 1.346-0.001 3.572-3.565 7.14-7.134 10.705-10.704 0.54-0.496 0.223-1.287-0.297-1.654-3.455-3.446-6.901-6.901-10.351-10.351-0.229-0.232-0.558-0.386-0.888-0.32z"></path>
<path fill="#fecf33" d="M11.836 0.836c0.231-0.114 0.453 0.061 0.61 0.217 3.515 3.519 7.037 7.033 10.551 10.553 0.252 0.201 0.257 0.586-0.002 0.784-3.532 3.537-7.070 7.070-10.603 10.607-0.198 0.257-0.587 0.258-0.785 0-3.547-3.555-7.106-7.099-10.649-10.658-0.263-0.224-0.145-0.598 0.093-0.787 3.503-3.498 7.004-6.998 10.503-10.5 0.087-0.080 0.176-0.16 0.282-0.216M7.653 8.573c-0.088-0.051-0.264-0.153-0.352-0.205-0.552 0.312-1.074 0.681-1.59 1.049-0.249 0.159-0.137 0.478-0.129 0.717-0.24-0.050-0.478-0.108-0.718-0.157-0.053 0.236-0.11 0.472-0.164 0.708 0.709 0.152 1.421 0.294 2.124 0.471 0.199 0.395 0.408 0.786 0.611 1.18 0.237-0.067 0.477-0.12 0.718-0.174-0.050-0.254-0.11-0.504-0.162-0.757 2.626 0.564 5.249 1.139 7.876 1.699-0.155 0.21-0.313 0.417-0.468 0.626 0.193 0.148 0.385 0.298 0.575 0.451 0.353-0.249 0.672-0.549 1.045-0.77 0.724 0.049 1.424 0.3 2.137 0.434 0.049-0.243 0.099-0.486 0.151-0.729-0.242-0.052-0.487-0.093-0.73-0.139 0.119-0.222 0.367-0.481 0.185-0.738-0.306-0.55-0.657-1.074-0.977-1.616-0.749 0.019-1.358 0.494-1.904 0.953-0.070 0.25-0.084 0.511-0.149 0.762-2.433-0.521-4.863-1.059-7.297-1.575 0.057-0.256 0.132-0.507 0.19-0.762-0.196-0.455-0.487-0.864-0.758-1.277 0.292-0.018 0.652-0.052 0.782-0.364 0.252-0.455-0.251-1.036-0.738-0.854-0.459 0.132-0.535 0.721-0.258 1.067M17.039 9.45c-0.418 0.104-0.587 0.682-0.287 0.993 0.293 0.37 0.956 0.211 1.055-0.248 0.139-0.441-0.334-0.895-0.768-0.745M11.275 12.984c0.005 0.799 0 1.597 0.003 2.396 0.49 0 0.979 0 1.469 0 0.003-0.8-0.001-1.599 0.003-2.399-0.244-0.226-0.493-0.448-0.746-0.665-0.248 0.217-0.491 0.441-0.729 0.668z"></path>
<path fill="#fecf33" d="M7.192 9.887c0.164-0.171 0.327-0.342 0.489-0.515 0.365 0.372 0.745 0.805 0.528 1.365-0.494-0.052-0.732-0.509-1.017-0.85z"></path>
<path fill="#fecf33" d="M15.951 12.408c0.037-0.597 0.568-0.823 1.050-1.015 0.073 0.227 0.147 0.454 0.223 0.68-0.401 0.187-0.808 0.504-1.273 0.335z"></path>
<path fill="#000" d="M11.842 0.348c0.33-0.066 0.659 0.088 0.888 0.32 3.45 3.45 6.896 6.905 10.351 10.351 0.52 0.367 0.837 1.158 0.297 1.654-3.565 3.57-7.133 7.139-10.705 10.704-0.349 0.381-0.997 0.382-1.346 0.001-3.571-3.566-7.14-7.134-10.706-10.705-0.404-0.372-0.364-1.051 0.049-1.4 3.515-3.52 7.036-7.034 10.548-10.556 0.174-0.17 0.376-0.332 0.624-0.369M11.836 0.836c-0.106 0.056-0.195 0.136-0.282 0.216-3.499 3.502-7 7.002-10.503 10.5-0.238 0.189-0.356 0.563-0.093 0.787 3.543 3.559 7.102 7.103 10.649 10.658 0.198 0.258 0.587 0.257 0.785 0 3.533-3.537 7.071-7.070 10.603-10.607 0.259-0.198 0.254-0.583 0.002-0.784-3.514-3.52-7.036-7.034-10.551-10.553-0.157-0.156-0.379-0.331-0.61-0.217z"></path>
<path fill="#000" d="M7.653 8.573c-0.277-0.346-0.201-0.935 0.258-1.067 0.487-0.182 0.99 0.399 0.738 0.854-0.13 0.312-0.49 0.346-0.782 0.364 0.271 0.413 0.562 0.822 0.758 1.277-0.058 0.255-0.133 0.506-0.19 0.762 2.434 0.516 4.864 1.054 7.297 1.575 0.065-0.251 0.079-0.512 0.149-0.762 0.546-0.459 1.155-0.934 1.904-0.953 0.32 0.542 0.671 1.066 0.977 1.616 0.182 0.257-0.066 0.516-0.185 0.738 0.243 0.046 0.488 0.087 0.73 0.139-0.052 0.243-0.102 0.486-0.151 0.729-0.713-0.134-1.413-0.385-2.137-0.434-0.373 0.221-0.692 0.521-1.045 0.77-0.19-0.153-0.382-0.303-0.575-0.451 0.155-0.209 0.313-0.416 0.468-0.626-2.627-0.56-5.25-1.135-7.876-1.699 0.052 0.253 0.112 0.503 0.162 0.757-0.241 0.054-0.481 0.107-0.718 0.174-0.203-0.394-0.412-0.785-0.611-1.18-0.703-0.177-1.415-0.319-2.124-0.471 0.054-0.236 0.111-0.472 0.164-0.708 0.24 0.049 0.478 0.107 0.718 0.157-0.008-0.239-0.12-0.558 0.129-0.717 0.516-0.368 1.038-0.737 1.59-1.049 0.088 0.052 0.264 0.154 0.352 0.205M7.192 9.887c0.285 0.341 0.523 0.798 1.017 0.85 0.217-0.56-0.163-0.993-0.528-1.365-0.162 0.173-0.325 0.344-0.489 0.515M15.951 12.408c0.465 0.169 0.872-0.148 1.273-0.335-0.076-0.226-0.15-0.453-0.223-0.68-0.482 0.192-1.013 0.418-1.050 1.015z"></path>
<path fill="#000" d="M17.039 9.45c0.434-0.15 0.907 0.304 0.768 0.745-0.099 0.459-0.762 0.618-1.055 0.248-0.3-0.311-0.131-0.889 0.287-0.993z"></path>
<path fill="#000" d="M11.275 12.984c0.238-0.227 0.481-0.451 0.729-0.668 0.253 0.217 0.502 0.439 0.746 0.665-0.004 0.8 0 1.599-0.003 2.399-0.49 0-0.979 0-1.469 0-0.003-0.799 0.002-1.597-0.003-2.396z"></path>
</svg>
