<?xml version="1.0" encoding="utf-8"?>
<!-- Generated by IcoMoon.io -->
<!DOCTYPE svg PUBLIC "-//W3C//DTD SVG 1.1//EN" "http://www.w3.org/Graphics/SVG/1.1/DTD/svg11.dtd">
<svg version="1.1" xmlns="http://www.w3.org/2000/svg" xmlns:xlink="http://www.w3.org/1999/xlink" width="24" height="24" viewBox="0 0 24 24">
<path fill="#ed1c24" d="M12.026 1.489h0.076c0.573 0.031 1.105 0.368 1.374 0.873 3.427 5.893 6.85 11.788 10.275 17.68 0.106 0.179 0.197 0.368 0.248 0.57v0.493c-0.099 0.66-0.597 1.235-1.246 1.405h-21.694c-0.55-0.302-0.993-0.841-1.061-1.479v-0.24c0.028-0.493 0.362-0.875 0.586-1.29 3.334-5.744 6.67-11.488 10.004-17.232 0.296-0.494 0.87-0.774 1.437-0.78M3.296 19.852c5.646 0.005 11.293 0 16.94 0.003-2.821-4.859-5.65-9.714-8.475-14.571-2.827 4.853-5.643 9.712-8.465 14.568z"></path>
<path fill="#fff" d="M3.296 19.852c2.821-4.856 5.637-9.716 8.465-14.568 2.826 4.857 5.654 9.712 8.475 14.571-5.647-0.003-11.294 0.003-16.94-0.003M10.16 15.59c-0.663 0.371-1.011 1.119-1.703 1.45-0.762 0.454-1.675 0.264-2.514 0.304 0 0.347 0 0.693 0 1.039 4.045 0.005 8.089-0.010 12.134-0.005 0.005-0.37 0.010-0.74 0.013-1.11-0.512-0.001-1.026 0.003-1.538-0.001-0.585-0.001-1.154-0.231-1.605-0.597-0.309-0.245-0.523-0.587-0.831-0.832-1.094-0.9-2.758-1.002-3.957-0.247z"></path>
<path fill="#120c0e" d="M10.16 15.59c1.198-0.755 2.862-0.653 3.957 0.247 0.308 0.245 0.522 0.587 0.831 0.832 0.451 0.366 1.020 0.597 1.605 0.597 0.512 0.003 1.026 0 1.538 0.001-0.003 0.37-0.008 0.74-0.013 1.11-4.045-0.004-8.089 0.010-12.134 0.005 0-0.346 0-0.692 0-1.039 0.839-0.040 1.752 0.15 2.514-0.304 0.692-0.331 1.040-1.078 1.703-1.45z"></path>
</svg>
