<!-- Generated by IcoMoon.io -->
<svg version="1.1" xmlns="http://www.w3.org/2000/svg" width="24" height="24" viewBox="0 0 24 24">
<title>warning--winding-road-first-left--g1</title>
<path fill="#231f20" d="M11.927 1.139c0.596-0.118 1.213 0.118 1.633 0.545 3.276 3.122 6.548 6.25 9.815 9.383 0.716 0.636 0.707 1.837 0.029 2.497-3.138 3.144-6.281 6.282-9.42 9.424-0.668 0.707-1.898 0.755-2.586 0.052-3.306-3.173-6.63-6.33-9.938-9.5-0.674-0.642-0.634-1.811 0.029-2.448 3.070-3.090 6.16-6.162 9.236-9.246 0.325-0.341 0.725-0.637 1.202-0.706M12.163 1.384c-0.462 0.013-0.875 0.264-1.187 0.592-3.095 3.103-6.205 6.193-9.294 9.305-0.589 0.558-0.592 1.591 0.025 2.13 3.296 3.145 6.59 6.293 9.884 9.439 0.588 0.598 1.637 0.551 2.2-0.056 3.142-3.139 6.282-6.278 9.42-9.42 0.577-0.559 0.581-1.576-0.026-2.114-3.242-3.118-6.505-6.216-9.756-9.326-0.329-0.34-0.78-0.587-1.266-0.548z"></path>
<path fill="#231f20" d="M11.797 1.844c0.64-0.188 1.333 0.058 1.782 0.533 3.030 2.892 6.060 5.784 9.083 8.682 0.712 0.606 0.757 1.79 0.086 2.444-2.934 2.948-5.882 5.884-8.82 8.828-0.638 0.679-1.818 0.736-2.485 0.070-3.086-2.956-6.178-5.908-9.268-8.858-0.713-0.63-0.664-1.829 0.022-2.46 2.874-2.89 5.762-5.762 8.644-8.644 0.264-0.271 0.582-0.505 0.956-0.595M11.916 2.202c-0.378 0.083-0.667 0.358-0.932 0.622-2.833 2.848-5.686 5.675-8.513 8.527-0.548 0.488-0.593 1.429-0.030 1.924 3.092 2.95 6.176 5.906 9.269 8.856 0.527 0.523 1.451 0.464 1.95-0.067 2.939-2.944 5.885-5.879 8.822-8.824 0.518-0.518 0.48-1.442-0.086-1.91-3.022-2.899-6.056-5.785-9.083-8.68-0.353-0.374-0.887-0.59-1.397-0.448z"></path>
<path fill="#231f20" d="M9.204 7.847c0.994-1.367 1.982-2.737 3.004-4.084 1.021 1.309 2.040 2.62 3.049 3.937-0.626 0.007-1.254 0.001-1.88 0.004 0.004 0.34 0.011 0.68 0.022 1.020 1.15 0.344 2.168 1.24 2.447 2.435 0.444 1.537-0.541 3.415-2.166 3.689-0.682 0.002-1.81-0.115-1.997 0.755 0.025 0.898 1.076 0.863 1.644 1.184 0.634 0.983 0.188 2.25 0.373 3.35-0.73 0.002-1.46 0.002-2.19 0-0.071-0.542-0.089-1.090-0.13-1.634-0.96-0.32-1.942-0.943-2.213-1.981-0.412-1.571 0.762-3.21 2.255-3.655 0.647-0.103 1.454-0.053 1.872-0.661 0.317-0.418 0.007-1.028-0.468-1.145-0.515-0.146-1.082-0.288-1.423-0.739-0.588-0.73-0.54-1.72-0.616-2.603-0.528 0.048-1.055 0.085-1.583 0.128z"></path>
<path fill="#fff100" d="M12.163 1.384c0.486-0.038 0.937 0.209 1.266 0.548 3.251 3.11 6.514 6.209 9.756 9.326 0.607 0.539 0.604 1.555 0.026 2.114-3.138 3.142-6.278 6.281-9.42 9.42-0.563 0.607-1.612 0.654-2.2 0.056-3.294-3.146-6.588-6.294-9.884-9.439-0.617-0.539-0.614-1.572-0.025-2.13 3.089-3.112 6.199-6.202 9.294-9.305 0.312-0.328 0.725-0.578 1.187-0.592M11.797 1.844c-0.374 0.090-0.692 0.324-0.956 0.595-2.881 2.881-5.77 5.754-8.644 8.644-0.685 0.631-0.734 1.83-0.022 2.46 3.090 2.951 6.181 5.903 9.268 8.858 0.667 0.666 1.847 0.61 2.485-0.070 2.938-2.945 5.886-5.88 8.82-8.828 0.671-0.654 0.625-1.838-0.086-2.444-3.023-2.898-6.053-5.79-9.083-8.682-0.449-0.475-1.142-0.721-1.782-0.533z"></path>
<path fill="#fff100" d="M11.916 2.202c0.51-0.143 1.044 0.073 1.397 0.448 3.026 2.894 6.061 5.78 9.083 8.68 0.566 0.468 0.605 1.392 0.086 1.91-2.938 2.945-5.884 5.88-8.822 8.824-0.499 0.532-1.423 0.59-1.95 0.067-3.092-2.95-6.176-5.906-9.269-8.856-0.563-0.494-0.518-1.435 0.030-1.924 2.827-2.852 5.68-5.68 8.513-8.527 0.265-0.264 0.554-0.539 0.932-0.622M9.204 7.847c0.528-0.043 1.055-0.080 1.583-0.128 0.076 0.883 0.028 1.873 0.616 2.603 0.341 0.451 0.908 0.593 1.423 0.739 0.475 0.116 0.785 0.727 0.468 1.145-0.418 0.608-1.225 0.558-1.872 0.661-1.493 0.445-2.666 2.084-2.255 3.655 0.271 1.038 1.253 1.661 2.213 1.981 0.041 0.545 0.059 1.092 0.13 1.634 0.73 0.002 1.46 0.002 2.19 0-0.185-1.1 0.26-2.368-0.373-3.35-0.568-0.322-1.619-0.287-1.644-1.184 0.187-0.87 1.315-0.752 1.997-0.755 1.625-0.274 2.61-2.152 2.166-3.689-0.278-1.195-1.297-2.090-2.447-2.435-0.011-0.34-0.018-0.68-0.022-1.020 0.626-0.002 1.254 0.004 1.88-0.004-1.009-1.318-2.028-2.628-3.049-3.937-1.021 1.346-2.010 2.717-3.004 4.084z"></path>
</svg>
