<!-- Generated by IcoMoon.io -->
<svg version="1.1" xmlns="http://www.w3.org/2000/svg" width="24" height="24" viewBox="0 0 24 24">
<title>warning--railroad-intersection--g2</title>
<path fill="#ffd033" d="M11.698 0h0.528c0.289 0.139 0.56 0.318 0.786 0.546 3.494 3.506 7.003 7 10.498 10.506 0.528 0.456 0.552 1.327 0.024 1.793-3.563 3.562-7.127 7.123-10.687 10.687-0.439 0.499-1.272 0.527-1.727 0.034-3.325-3.317-6.641-6.642-9.964-9.961-0.418-0.419-0.884-0.809-1.156-1.345v-0.532c0.223-0.598 0.743-0.992 1.172-1.434 3.262-3.26 6.523-6.52 9.781-9.784 0.216-0.212 0.472-0.379 0.744-0.51M11.569 0.422c-0.342 0.202-0.595 0.516-0.877 0.79-3.337 3.343-6.683 6.679-10.019 10.022-0.431 0.362-0.452 1.061-0.024 1.433 3.54 3.541 7.084 7.081 10.627 10.62 0.342 0.394 0.996 0.412 1.349 0.024 3.55-3.535 7.087-7.081 10.632-10.62 0.421-0.359 0.451-1.045 0.032-1.418-3.514-3.528-7.042-7.043-10.56-10.566-0.283-0.319-0.761-0.494-1.16-0.284z"></path>
<path fill="#ffd033" d="M11.696 0.901c0.262-0.222 0.577-0.008 0.764 0.197 3.474 3.487 6.965 6.96 10.439 10.445 0.266 0.206 0.298 0.602 0.022 0.815-3.542 3.539-7.074 7.090-10.625 10.619-0.278 0.312-0.67 0.059-0.877-0.194-3.469-3.492-6.961-6.961-10.432-10.451-0.29-0.228-0.184-0.624 0.074-0.826 3.551-3.529 7.063-7.1 10.634-10.604M10.498 3.505c0.001 2.221 0.002 4.442-0.001 6.665 0.977-0.966 1.948-1.938 2.934-2.893 0.010-1.258 0.001-2.515 0.002-3.773-0.978 0.001-1.957-0.001-2.935 0.001M13.774 7.684c0.179 0.193 0.358 0.385 0.54 0.576-0.179 0.18-0.358 0.36-0.536 0.54-0.191-0.182-0.383-0.364-0.576-0.544-0.184 0.184-0.367 0.366-0.552 0.547 0.184 0.187 0.37 0.373 0.554 0.559-0.176 0.18-0.352 0.36-0.526 0.541-0.188-0.184-0.379-0.366-0.57-0.546-0.185 0.184-0.37 0.367-0.554 0.55 0.187 0.186 0.374 0.371 0.562 0.556-0.187 0.187-0.374 0.374-0.56 0.563-0.187-0.186-0.373-0.373-0.56-0.559-0.186 0.185-0.371 0.37-0.558 0.554 0.184 0.192 0.37 0.382 0.554 0.572-0.184 0.18-0.366 0.361-0.55 0.541-0.187-0.186-0.376-0.372-0.564-0.556-0.18 0.184-0.36 0.367-0.539 0.552 0.182 0.179 0.364 0.359 0.546 0.539-0.184 0.185-0.364 0.374-0.538 0.57-0.192-0.182-0.383-0.365-0.576-0.546-0.18 0.178-0.361 0.356-0.542 0.534 0.184 0.19 0.368 0.377 0.552 0.566-0.181 0.184-0.361 0.367-0.542 0.551-0.188-0.186-0.376-0.373-0.564-0.56-0.184 0.184-0.367 0.366-0.551 0.547 0.185 0.19 0.372 0.377 0.559 0.564-0.185 0.185-0.368 0.37-0.552 0.554 0.060 0.070 0.182 0.208 0.244 0.276 0.192-0.187 0.384-0.374 0.577-0.56 0.275 0.275 0.55 0.548 0.826 0.822-0.182 0.187-0.366 0.373-0.55 0.56 0.062 0.070 0.186 0.208 0.248 0.277 0.187-0.185 0.376-0.368 0.565-0.551 0.188 0.181 0.377 0.362 0.566 0.544 0.182-0.181 0.365-0.362 0.547-0.542-0.185-0.19-0.371-0.377-0.556-0.565 0.184-0.182 0.367-0.366 0.551-0.548 0.186 0.187 0.373 0.373 0.559 0.56 0.182-0.186 0.366-0.371 0.55-0.554-0.186-0.187-0.372-0.374-0.557-0.563 0.186-0.184 0.372-0.368 0.557-0.554 0.187 0.186 0.374 0.372 0.56 0.558 0.184-0.185 0.368-0.368 0.553-0.551-0.186-0.188-0.373-0.377-0.559-0.565 0.184-0.182 0.367-0.365 0.55-0.548 0.188 0.187 0.376 0.373 0.564 0.56 0.184-0.186 0.367-0.372 0.551-0.558-0.185-0.191-0.37-0.382-0.554-0.572 0.192-0.176 0.383-0.354 0.57-0.536 0.18 0.185 0.361 0.37 0.542 0.553 0.187-0.185 0.373-0.371 0.56-0.557-0.187-0.188-0.374-0.376-0.562-0.564 0.168-0.17 0.334-0.344 0.516-0.5 0.24 0.115 0.403 0.34 0.594 0.517 0.181-0.185 0.362-0.37 0.546-0.552-0.186-0.187-0.372-0.374-0.557-0.562 0.185-0.184 0.37-0.367 0.553-0.552 0.192 0.184 0.383 0.37 0.575 0.554 0.181-0.187 0.365-0.373 0.548-0.559-0.187-0.187-0.373-0.376-0.557-0.564 0.179-0.175 0.358-0.352 0.538-0.527-0.066-0.068-0.197-0.208-0.263-0.277-0.185 0.178-0.37 0.356-0.556 0.533-0.276-0.272-0.55-0.547-0.823-0.821 0.179-0.18 0.358-0.361 0.535-0.541-0.061-0.067-0.185-0.202-0.247-0.269-0.186 0.179-0.371 0.359-0.557 0.538-0.187-0.182-0.374-0.366-0.563-0.548-0.181 0.181-0.362 0.362-0.544 0.544M10.495 16.656c0.007 1.25 0.002 2.501 0.006 3.751 0.978 0.001 1.956 0.001 2.934 0 0-2.219 0.002-4.438-0.001-6.656-0.985 0.964-1.967 1.93-2.939 2.905z"></path>
<path fill="#ffd033" d="M14.027 9.059c0.193-0.18 0.385-0.36 0.576-0.541 0.274 0.276 0.547 0.552 0.82 0.829-0.187 0.188-0.374 0.377-0.56 0.566-0.282-0.282-0.562-0.564-0.835-0.854z"></path>
<path fill="#ffd033" d="M12.937 10.171c0.178-0.182 0.356-0.364 0.535-0.546 0.28 0.277 0.557 0.557 0.836 0.835-0.18 0.184-0.359 0.367-0.538 0.551-0.278-0.28-0.557-0.559-0.834-0.84z"></path>
<path fill="#ffd033" d="M11.821 11.291c0.186-0.187 0.372-0.373 0.558-0.56 0.276 0.275 0.55 0.551 0.827 0.824-0.182 0.188-0.366 0.377-0.547 0.566-0.283-0.274-0.56-0.552-0.838-0.83z"></path>
<path fill="#ffd033" d="M10.706 12.39c0.186-0.179 0.371-0.359 0.556-0.54 0.275 0.28 0.552 0.556 0.827 0.835-0.184 0.18-0.366 0.36-0.548 0.54-0.278-0.277-0.557-0.556-0.834-0.835z"></path>
<path fill="#ffd033" d="M9.602 13.494c0.188-0.181 0.376-0.365 0.562-0.55 0.272 0.282 0.55 0.559 0.824 0.839-0.185 0.184-0.37 0.368-0.554 0.553-0.28-0.278-0.557-0.559-0.832-0.842z"></path>
<path fill="#ffd033" d="M9.043 14.058c0.283 0.272 0.56 0.551 0.84 0.828-0.185 0.185-0.368 0.37-0.552 0.556-0.276-0.276-0.551-0.553-0.826-0.83 0.179-0.184 0.359-0.368 0.538-0.553z"></path>
<path fill="#000" d="M11.569 0.422c0.4-0.21 0.877-0.035 1.16 0.284 3.518 3.523 7.046 7.038 10.56 10.566 0.419 0.373 0.389 1.060-0.032 1.418-3.545 3.539-7.082 7.085-10.632 10.62-0.353 0.388-1.007 0.37-1.349-0.024-3.544-3.539-7.087-7.079-10.627-10.62-0.428-0.372-0.407-1.070 0.024-1.433 3.336-3.343 6.682-6.679 10.019-10.022 0.282-0.274 0.535-0.588 0.877-0.79M11.696 0.901c-3.571 3.504-7.084 7.075-10.634 10.604-0.258 0.202-0.365 0.598-0.074 0.826 3.47 3.49 6.962 6.959 10.432 10.451 0.208 0.253 0.599 0.506 0.877 0.194 3.551-3.529 7.082-7.080 10.625-10.619 0.276-0.212 0.245-0.608-0.022-0.815-3.474-3.485-6.965-6.958-10.439-10.445-0.187-0.205-0.503-0.419-0.764-0.197z"></path>
<path fill="#000" d="M10.498 3.505c0.978-0.002 1.957 0 2.935-0.001-0.001 1.258 0.007 2.515-0.002 3.773-0.986 0.955-1.957 1.927-2.934 2.893 0.004-2.222 0.002-4.444 0.001-6.665z"></path>
<path fill="#000" d="M13.774 7.684c0.181-0.181 0.362-0.362 0.544-0.544 0.188 0.182 0.376 0.366 0.563 0.548 0.186-0.179 0.371-0.359 0.557-0.538 0.062 0.067 0.186 0.202 0.247 0.269-0.178 0.18-0.356 0.361-0.535 0.541 0.274 0.274 0.547 0.548 0.823 0.821 0.186-0.176 0.371-0.355 0.556-0.533 0.066 0.070 0.197 0.209 0.263 0.277-0.18 0.175-0.359 0.352-0.538 0.527 0.184 0.188 0.37 0.377 0.557 0.564-0.184 0.186-0.367 0.372-0.548 0.559-0.192-0.185-0.383-0.371-0.575-0.554-0.184 0.185-0.368 0.368-0.553 0.552 0.185 0.187 0.371 0.374 0.557 0.562-0.184 0.182-0.365 0.367-0.546 0.552-0.191-0.178-0.354-0.402-0.594-0.517-0.182 0.156-0.348 0.33-0.516 0.5 0.187 0.188 0.374 0.376 0.562 0.564-0.187 0.186-0.373 0.372-0.56 0.557-0.181-0.184-0.362-0.368-0.542-0.553-0.187 0.182-0.378 0.36-0.57 0.536 0.185 0.191 0.37 0.382 0.554 0.572-0.184 0.186-0.367 0.372-0.551 0.558-0.188-0.187-0.376-0.373-0.564-0.56-0.182 0.184-0.366 0.366-0.55 0.548 0.186 0.188 0.373 0.377 0.559 0.565-0.185 0.182-0.37 0.366-0.553 0.551-0.186-0.186-0.373-0.372-0.56-0.558-0.185 0.186-0.371 0.371-0.557 0.554 0.185 0.188 0.371 0.376 0.557 0.563-0.184 0.184-0.367 0.368-0.55 0.554-0.186-0.187-0.373-0.373-0.559-0.56-0.184 0.182-0.367 0.366-0.551 0.548 0.185 0.188 0.371 0.376 0.556 0.565-0.182 0.18-0.365 0.361-0.547 0.542-0.19-0.181-0.378-0.362-0.566-0.544-0.19 0.182-0.378 0.366-0.565 0.551-0.062-0.070-0.186-0.208-0.248-0.277 0.184-0.187 0.367-0.373 0.55-0.56-0.276-0.274-0.551-0.547-0.826-0.822-0.193 0.186-0.385 0.373-0.577 0.56-0.061-0.068-0.184-0.206-0.244-0.276 0.184-0.185 0.367-0.37 0.552-0.554-0.187-0.187-0.374-0.374-0.559-0.564 0.184-0.181 0.367-0.364 0.551-0.547 0.188 0.187 0.376 0.374 0.564 0.56 0.181-0.184 0.361-0.367 0.542-0.551-0.184-0.19-0.368-0.377-0.552-0.566 0.181-0.178 0.362-0.356 0.542-0.534 0.193 0.181 0.384 0.364 0.576 0.546 0.174-0.196 0.354-0.385 0.538-0.57-0.182-0.18-0.364-0.36-0.546-0.539 0.179-0.185 0.359-0.368 0.539-0.552 0.188 0.184 0.377 0.37 0.564 0.556 0.184-0.18 0.366-0.361 0.55-0.541-0.185-0.191-0.371-0.38-0.554-0.572 0.187-0.185 0.372-0.37 0.558-0.554 0.187 0.186 0.373 0.373 0.56 0.559 0.186-0.188 0.373-0.376 0.56-0.563-0.187-0.185-0.374-0.37-0.562-0.556 0.185-0.182 0.37-0.366 0.554-0.55 0.191 0.18 0.382 0.362 0.57 0.546 0.174-0.181 0.349-0.361 0.526-0.541-0.185-0.186-0.371-0.372-0.554-0.559 0.185-0.181 0.368-0.364 0.552-0.547 0.193 0.18 0.385 0.361 0.576 0.544 0.179-0.18 0.358-0.36 0.536-0.54-0.182-0.191-0.361-0.383-0.54-0.576M14.027 9.059c0.274 0.29 0.553 0.572 0.835 0.854 0.186-0.19 0.373-0.378 0.56-0.566-0.272-0.277-0.546-0.553-0.82-0.829-0.191 0.181-0.383 0.361-0.576 0.541M12.937 10.171c0.277 0.281 0.556 0.56 0.834 0.84 0.179-0.184 0.358-0.367 0.538-0.551-0.28-0.278-0.557-0.558-0.836-0.835-0.179 0.182-0.358 0.364-0.535 0.546M11.821 11.291c0.277 0.278 0.554 0.557 0.838 0.83 0.181-0.19 0.365-0.378 0.547-0.566-0.277-0.274-0.551-0.55-0.827-0.824-0.186 0.187-0.372 0.373-0.558 0.56M10.706 12.39c0.277 0.28 0.556 0.558 0.834 0.835 0.182-0.18 0.365-0.36 0.548-0.54-0.275-0.28-0.552-0.556-0.827-0.835-0.185 0.181-0.37 0.361-0.556 0.54M9.602 13.494c0.275 0.283 0.552 0.564 0.832 0.842 0.185-0.185 0.37-0.37 0.554-0.553-0.275-0.28-0.552-0.557-0.824-0.839-0.186 0.185-0.373 0.368-0.562 0.55M9.043 14.058c-0.179 0.185-0.359 0.37-0.538 0.553 0.275 0.277 0.55 0.554 0.826 0.83 0.184-0.186 0.367-0.371 0.552-0.556-0.28-0.277-0.557-0.556-0.84-0.828z"></path>
<path fill="#000" d="M10.495 16.656c0.972-0.976 1.954-1.942 2.939-2.905 0.004 2.219 0.001 4.438 0.001 6.656-0.978 0.001-1.956 0.001-2.934 0-0.004-1.25 0.001-2.501-0.006-3.751z"></path>
</svg>
