<?xml version="1.0" encoding="utf-8"?>
<!-- Generated by IcoMoon.io -->
<!DOCTYPE svg PUBLIC "-//W3C//DTD SVG 1.1//EN" "http://www.w3.org/Graphics/SVG/1.1/DTD/svg11.dtd">
<svg version="1.1" xmlns="http://www.w3.org/2000/svg" xmlns:xlink="http://www.w3.org/1999/xlink" width="24" height="24" viewBox="0 0 24 24">
<path fill="#fee011" d="M12.832 0.352l10.816 10.816c0.46 0.46 0.46 1.205 0 1.664l-10.816 10.816c-0.46 0.46-1.205 0.46-1.664 0l-10.816-10.816c-0.46-0.46-0.46-1.205 0-1.664l10.816-10.816c0.46-0.46 1.205-0.46 1.664 0z"></path>
<path fill="#000" d="M12.666 0.518l10.816 10.816c0.368 0.368 0.368 0.964 0 1.331l-10.816 10.816c-0.368 0.368-0.964 0.368-1.331 0l-10.816-10.816c-0.368-0.368-0.368-0.964 0-1.331l10.816-10.816c0.368-0.368 0.964-0.368 1.331 0z"></path>
<path fill="#fee011" d="M12.333 0.851l10.816 10.816c0.184 0.184 0.184 0.482 0 0.666l-10.816 10.816c-0.184 0.184-0.482 0.184-0.666 0l-10.816-10.816c-0.184-0.184-0.184-0.482 0-0.666l10.816-10.816c0.184-0.184 0.482-0.184 0.666 0z"></path>
<path fill="#000" d="M13.392 18.766c-0.136-0.042-0.136-0.041-0.415-0.083-0.172-0.012-0.344-0.024-0.516-0.036-0.237-0.083-0.451-0.119-0.569-0.16h-0.397c-0.036-0.041-0.071-0.083-0.113-0.125v-0.237c-0.154-0.652-0.154-0.652-0.391-1.506-0.053-0.136-0.107-0.273-0.16-0.415-0.474-0.789-0.474-0.789-0.551-0.966-0.036-0.136-0.077-0.273-0.119-0.415 0.012-0.255 0.024-0.51 0.036-0.771-0.077-0.279-0.077-0.279-0.107-0.308-0.018-0-0.036 0-0.059 0-0.154 0.19-0.161 0.19-0.315 0.445-0.024 0.125-0.047 0.249-0.077 0.379-0.119 0.237-0.16 0.273-0.279 0.551-0.012 0.119-0.024 0.237-0.036 0.356-0.024 0.101-0.053 0.208-0.083 0.314-0.012 0.196-0.024 0.391-0.036 0.593 0.018 0.379 0 0.397 0.018 0.735-0.012 0.036-0.024 0.077-0.042 0.119 0.059 0.415 0.059 0.415 0.119 0.67 0.053 0.030 0.053 0.030 0.231 0.065h0.611c0.213 0.036 0.433 0.077 0.652 0.119 0.148 0.083 0.302 0.166 0.457 0.249 0.006 0.012 0.012 0.024 0.018 0.041-0.030 0.030-0.059 0.059-0.095 0.089-0.119 0.006-0.243 0.018-0.368 0.030v0.178c-0.166 0.006-0.166 0.006-0.64-0.030-0.415-0.16-0.415-0.16-0.617-0.202-0.202-0.012-0.403-0.024-0.611-0.036-0.101-0.036-0.208-0.077-0.314-0.119-0.012-0.166 0.006-0.249-0.012-0.682 0.012-0.261 0.024-0.522 0.036-0.789-0.012-0.587-0.024-1.174-0.036-1.761-0.041-0.219-0.041-0.219-0.059-0.611 0.077-0.119 0.154-0.237 0.237-0.356 0.154-0.397 0.154-0.397 0.178-0.534-0.012-0.024-0.024-0.053-0.041-0.083-0.125-0.071-0.267-0.107-0.326-0.148-0.237-0.053-0.474-0.107-0.712-0.16-0.136-0.089-0.136-0.089-0.196-0.095-0.178 0.154-0.178 0.154-0.314 0.237-0.237-0-0.237 0-0.439 0.036-0.030 0.012-0.059 0.024-0.095 0.042-0.261 0.018-0.32 0-0.415 0.012-0.101 0.089-0.101 0.089-0.202 0.125-0.213-0.018-0.297-0.059-0.356-0.059-0.012 0.012-0.024 0.024-0.036 0.041-0.053 0.006-0.107 0.012-0.16 0.018-0.036-0.030-0.077-0.059-0.119-0.089-0.006-0.041-0.018-0.089-0.030-0.136 0.012-0.154 0.024-0.314 0.036-0.474 0.077-0.297 0.154-0.593 0.237-0.889 0.13-0.267 0.261-0.534 0.397-0.806 0.077-0.119 0.154-0.237 0.237-0.356 0.006-0.030 0.018-0.065 0.030-0.101 0.030-0.006 0.065-0.018 0.101-0.030 0.083-0.083 0.166-0.172 0.255-0.261 0.083-0.048 0.172-0.101 0.261-0.154 0.101-0.107 0.208-0.213 0.314-0.32 1.004-0.801 2.409-1.42 3.804-0.907 0.528 0.196 1.053 0.391 1.581 0.593 0.683 0.127 0.902-0.069 0.995-0.662 0.036-0.985-0.1-2.171-0.378-3.163-0.021-0.13-0.044-0.297 0-0.474 0.168-0.384 0.747-0.562 1.221-0.427 0.036 0.059 0.071 0.125 0.107 0.19 0.225 0.16 0.225 0.16 0.522 0.32 0.113 0.047 0.225 0.095 0.338 0.142 0.006 0.095 0.006 0.095-0.018 0.119-0.415 0.041-0.415 0.042-0.617 0.083h-0.273c-0.085 0.029-0.125 0.093-0.154 0.166-0.089 0.669 0.045 0.965 0.38 1.542 0.101 0.231 0.207 0.462 0.314 0.694 0.307 1.017 0.172 1.89-0.237 2.846-0.693 1.275-1.468 2.077-2.876 2.461-0.148-0.006-0.296-0.012-0.451-0.024-0.012 0.036-0.024 0.071-0.036 0.113-0.107 0.077-0.107 0.077-0.451 0.474v0.219c-0.16 0.314-0.16 0.314-0.202 0.474-0.018 0.451-0.018 0.451 0 0.593 0.107 0.338 0.213 0.682 0.32 1.026 0.184 0.445 0.368 0.895 0.551 1.346 0.077 0.095 0.154 0.196 0.237 0.297 0.059 0.036 0.124 0.071 0.19 0.107 0.119 0.018 0.711 0 1.168 0.018 0.083 0.024 0.166 0.047 0.255 0.077 0.279 0.16 0.279 0.16 0.344 0.231 0 0.030 0 0.059-0.006 0.089-0.101 0.036-0.101 0.036-0.451 0.071 0 0.059 0 0.059 0.041 0.095-0.006 0.030-0.012 0.065-0.018 0.101-0.047 0.030-0.047 0.030-0.207 0.030z"></path>
</svg>
