<?xml version="1.0" encoding="utf-8"?>
<!-- Generated by IcoMoon.io -->
<!DOCTYPE svg PUBLIC "-//W3C//DTD SVG 1.1//EN" "http://www.w3.org/Graphics/SVG/1.1/DTD/svg11.dtd">
<svg version="1.1" xmlns="http://www.w3.org/2000/svg" xmlns:xlink="http://www.w3.org/1999/xlink" width="24" height="24" viewBox="0 0 24 24">
<path fill="#d02c2e" d="M11.9 1.38h0.176c0.562 0.035 1.085 0.364 1.35 0.86 3.322 5.76 6.641 11.524 9.962 17.284 0.23 0.41 0.51 0.805 0.611 1.273v0.436c-0.088 0.708-0.678 1.294-1.384 1.387h-21.216c-0.755-0.096-1.357-0.756-1.4-1.512v-0.134c0.031-0.296 0.121-0.583 0.276-0.838 3.439-5.963 6.874-11.929 10.313-17.892 0.258-0.488 0.764-0.811 1.312-0.864M2.519 20.498c6.326 0.002 12.653 0.001 18.979 0.001-1.896-3.3-3.803-6.592-5.698-9.893-0.082 0.036-0.163 0.072-0.244 0.109-0.008-0.049-0.024-0.149-0.032-0.198 0.073 0.022 0.221 0.064 0.294 0.085-1.304-2.167-2.53-4.38-3.81-6.562-3.168 5.483-6.328 10.97-9.49 16.457z"></path>
<path fill="#fff" d="M2.519 20.498c3.162-5.486 6.322-10.974 9.49-16.457 1.28 2.182 2.506 4.394 3.81 6.562-0.073-0.022-0.221-0.064-0.294-0.085 0.008 0.049 0.024 0.149 0.032 0.198 0.080-0.037 0.162-0.073 0.244-0.109 1.895 3.301 3.802 6.593 5.698 9.893-6.326 0-12.653 0.001-18.979-0.001M9.347 9.782c0.028 1.553-0.061 3.112 0.071 4.661 0.404 1.004 1.1 1.872 1.529 2.867 0.064 0.851 0.040 1.706 0.056 2.56 0.647 0.001 1.294 0 1.94 0-0.013-0.725 0.044-1.448 0.038-2.173 0.016-0.232-0.006-0.486 0.124-0.69 0.367-0.629 0.726-1.264 1.097-1.89 0.178-0.324 0.391-0.655 0.38-1.038 0.024-1.433 0.019-2.864 0.024-4.296-0.58-0.004-1.159-0.002-1.739-0.002-0.011 1.332 0.007 2.664-0.020 3.995-0.013 0.574-0.45 0.989-0.709 1.465-0.097-0.010-0.29-0.028-0.388-0.037-0.175-0.408-0.497-0.743-0.638-1.162-0.025-1.418-0.006-2.838-0.011-4.256-0.584-0.008-1.17-0.006-1.754-0.002z"></path>
<path fill="#030303" d="M9.347 9.782c0.584-0.004 1.17-0.006 1.754 0.002 0.005 1.418-0.014 2.838 0.011 4.256 0.142 0.419 0.463 0.754 0.638 1.162 0.097 0.010 0.29 0.028 0.388 0.037 0.259-0.476 0.696-0.892 0.709-1.465 0.028-1.331 0.010-2.663 0.020-3.995 0.58 0 1.159-0.001 1.739 0.002-0.005 1.432 0 2.863-0.024 4.296 0.011 0.383-0.203 0.714-0.38 1.038-0.371 0.626-0.73 1.261-1.097 1.89-0.13 0.204-0.108 0.458-0.124 0.69 0.006 0.725-0.052 1.448-0.038 2.173-0.647 0-1.294 0.001-1.94 0-0.017-0.853 0.007-1.709-0.056-2.56-0.428-0.995-1.124-1.862-1.529-2.867-0.132-1.549-0.043-3.108-0.071-4.661z"></path>
</svg>
