<!-- Generated by IcoMoon.io -->
<svg version="1.1" xmlns="http://www.w3.org/2000/svg" width="27" height="24" viewBox="0 0 27 24">
<title>warning--children--g3</title>
<path fill="#ec1d24" d="M13.246 0h0.645c0.561 0.167 1.055 0.526 1.327 1.049 3.832 6.656 7.668 13.31 11.504 19.963 0.146 0.26 0.279 0.529 0.396 0.804v0.773c-0.202 0.69-0.751 1.233-1.449 1.41h-24.184c-0.734-0.168-1.285-0.755-1.485-1.47v-0.632c0.117-0.302 0.251-0.597 0.41-0.879 3.856-6.679 7.702-13.365 11.557-20.046 0.267-0.494 0.754-0.809 1.28-0.974M2.849 21.601c7.147 0.005 14.294 0.004 21.441 0.001-3.572-6.201-7.14-12.401-10.721-18.594-3.578 6.194-7.151 12.392-10.72 18.593z"></path>
<path fill="#fff" d="M2.849 21.601c3.569-6.201 7.142-12.399 10.72-18.593 3.581 6.193 7.15 12.393 10.721 18.594-7.147 0.003-14.294 0.004-21.441-0.001M12.984 6.894c-0.287 0.572 0.163 1.117 0.385 1.619-0.565 0.266-1.467 0.361-1.576 1.108-0.37 1.543-0.704 3.096-1.104 4.631-0.149 0.159-0.258 0.348-0.347 0.546-0.298-0.018-0.597-0.034-0.892-0.081 0.457-0.462 0.48-1.378-0.278-1.521-0.811-0.111-1.082 0.926-0.563 1.439-1.227 0.521-1.018 2.037-1.024 3.12 0.035 0.382 0.472 0.278 0.716 0.183-0.080-0.146-0.161-0.292-0.243-0.437 0.075-0.446 0.145-0.894 0.271-1.327 0.424 0.548 0.092 1.265 0.088 1.886 0.072 0.915 0.174 1.856-0.061 2.758 0.986-0.355 0.545-1.593 1.155-2.243 0.053 0.618 0.028 1.238 0.035 1.858 0.256 0.174 0.523 0.334 0.809 0.456-0.085-0.216-0.194-0.422-0.297-0.629 0.075-0.66 0.16-1.333 0.626-1.841-0.104-0.951-0.45-1.859-0.636-2.797 0.544-0.216 1.071-0.479 1.535-0.839-0.058-0.119-0.118-0.237-0.176-0.355 0.461-1.123 0.872-2.264 1.336-3.386-0.182 3.064 0.035 6.117 0.335 9.167-0.113 0.205-0.247 0.399-0.35 0.61 0.472 0 0.835-0.381 1.136-0.701 0.149-1.669-0.030-3.382 0.423-5.018 0.174 1.704 0.29 3.425 0.136 5.136 0.213 0.205 0.427 0.409 0.641 0.613 0.053-0.020 0.159-0.062 0.212-0.084-0.091-0.264-0.16-0.546-0.106-0.827 0.222-1.788 0.498-3.577 0.514-5.382-0.085-1.208-0.239-2.411-0.327-3.619 0.719 1.055 1.021 2.388 0.721 3.639-0.126 0.414 0.515 0.721 0.735 0.332 0.207-1.76 0.089-3.635-0.473-5.352-0.423-0.61-1.207-0.815-1.871-1.059 0.273-0.529 0.743-1.158 0.336-1.748-0.388-0.694-1.539-0.584-1.824 0.146z"></path>
<path fill="#040404" d="M12.984 6.894c0.285-0.731 1.436-0.841 1.824-0.146 0.407 0.59-0.064 1.219-0.336 1.748 0.664 0.244 1.448 0.449 1.871 1.059 0.563 1.717 0.681 3.592 0.473 5.352-0.22 0.389-0.861 0.081-0.735-0.332 0.3-1.252-0.003-2.584-0.721-3.639 0.088 1.208 0.241 2.411 0.327 3.619-0.016 1.805-0.292 3.593-0.514 5.382-0.054 0.281 0.015 0.563 0.106 0.827-0.053 0.022-0.159 0.064-0.212 0.084-0.214-0.203-0.428-0.408-0.641-0.613 0.155-1.711 0.038-3.432-0.136-5.136-0.453 1.637-0.274 3.349-0.423 5.018-0.301 0.32-0.664 0.701-1.136 0.701 0.103-0.212 0.237-0.405 0.35-0.61-0.3-3.051-0.517-6.103-0.335-9.167-0.464 1.121-0.875 2.263-1.336 3.386 0.058 0.118 0.118 0.236 0.176 0.355-0.464 0.361-0.991 0.624-1.535 0.839 0.186 0.938 0.532 1.847 0.636 2.797-0.466 0.508-0.552 1.181-0.626 1.841 0.103 0.207 0.212 0.414 0.297 0.629-0.286-0.122-0.553-0.282-0.809-0.456-0.007-0.62 0.018-1.239-0.035-1.858-0.61 0.649-0.17 1.887-1.155 2.243 0.235-0.902 0.133-1.843 0.061-2.758 0.004-0.621 0.336-1.338-0.088-1.886-0.126 0.434-0.197 0.881-0.271 1.327 0.081 0.145 0.163 0.29 0.243 0.437-0.244 0.095-0.681 0.199-0.716-0.183 0.005-1.083-0.203-2.599 1.024-3.12-0.519-0.513-0.248-1.55 0.563-1.439 0.758 0.144 0.735 1.059 0.278 1.521 0.296 0.047 0.594 0.064 0.892 0.081 0.089-0.198 0.198-0.388 0.347-0.546 0.4-1.535 0.734-3.087 1.104-4.63 0.108-0.747 1.010-0.842 1.576-1.108-0.222-0.502-0.673-1.047-0.385-1.619z"></path>
</svg>
