<svg xmlns="http://www.w3.org/2000/svg" width="24" height="24">
    <path fill="#ef7c23" d="M11.716 0h.526c.283.14.547.32.77.546 3.235 3.245 6.48 6.481 9.72 9.722.448.458.956.876 1.268 1.447v.532a2.848 2.848 0 0 1-.49.697c-3.265 3.256-6.523 6.52-9.785 9.78-.46.449-.875.96-1.444 1.276h-.539a3.025 3.025 0 0 1-.686-.491c-3.258-3.264-6.522-6.523-9.782-9.785C.826 13.266.315 12.85 0 12.283v-.54c.29-.594.818-1.009 1.268-1.474 3.221-3.221 6.444-6.438 9.66-9.662.235-.235.5-.439.787-.607zm-.041.389c-.395.234-.679.606-1.007.919C7.325 4.646 3.983 7.987.642 11.328c-.389.319-.449.94-.048 1.276l10.801 10.804a.805.805 0 0 0 1.21.002c3.6-3.601 7.2-7.205 10.801-10.806.403-.336.342-.956-.048-1.276C19.817 7.786 16.272 4.247 12.734.702c-.263-.281-.68-.527-1.06-.313z"/>
    <path fill="#ef7c23" d="M10.957 1.717c.334-.325.634-.702 1.043-.938.287.162.515.404.745.636 3.488 3.545 7.078 6.994 10.517 10.584-3.54 3.653-7.193 7.196-10.763 10.82-.19.194-.493.535-.749.233-3.588-3.571-7.16-7.16-10.744-10.738-.228-.167-.24-.464-.008-.635 3.314-3.325 6.641-6.64 9.959-9.962zM8.59 5.578c-.332.996-.652 1.996-.982 2.993-.077.289-.306.487-.516.683.04 1.024.1 2.047.149 3.07l-.416.025.001 1.019c.641.001 1.282.002 1.922 0l.002 1.52h1.567c.001-.485.001-.97.004-1.454 1.163-.006 2.326.012 3.49.007l.016 1.447h1.592l.001-1.519h1.85c.001-.332.001-.665.004-.997-.096-.016-.289-.044-.385-.06-.102-1.264.497-2.695-.299-3.81-.367-.956-.622-1.952-.949-2.923-2.351-.002-4.7-.002-7.051 0zm-2.483 9.711c-.017.426-.011.852-.006 1.278 3.976-.007 7.951-.043 11.927-.032a47.741 47.741 0 0 0-.02-1.254c-.384.128-.624.442-.746.815-.066-.001-.196-.006-.262-.008-.14-.302-.274-.743-.684-.74-.44-.038-.598.427-.745.749l-.362-.007c-.138-.307-.277-.751-.694-.742-.442-.032-.556.455-.762.738-.379-.04-.34-.738-.794-.73-.476-.067-.666.427-.817.778l-.308-.023c-.146-.295-.275-.725-.673-.738-.498-.029-.65.556-.94.851-.173-.324-.287-.838-.74-.851-.442-.044-.604.425-.757.743l-.319.006c-.143-.349-.354-.844-.824-.74-.458.002-.406.76-.811.72-.187-.296-.364-.607-.66-.811z"/>
    <path fill="#ef7c23" d="M9.164 6.265c1.912-.002 3.824-.001 5.737-.001.214 1.015.425 2.03.636 3.046-1.182.001-2.363.011-3.544-.006a1.84 1.84 0 0 0-1.186-.775c.194-.305.539-.664.308-1.043-.212-.443-.912-.445-1.13-.005-.228.372.089.744.262 1.063-.653.028-1.099.509-1.601.856.089-1.057.353-2.088.517-3.134z"/>
    <path d="M11.675.389c.379-.214.797.032 1.06.313 3.538 3.545 7.082 7.084 10.624 10.626.39.319.451.94.048 1.276-3.601 3.601-7.201 7.205-10.801 10.806a.805.805 0 0 1-1.21-.002L.595 12.604c-.401-.336-.341-.956.048-1.276 3.341-3.341 6.683-6.682 10.026-10.02.328-.313.612-.685 1.007-.919zm-.718 1.328C7.639 5.04 4.313 8.354.998 11.679c-.232.17-.22.468.008.635 3.583 3.577 7.156 7.166 10.744 10.738.256.302.559-.038.749-.233 3.57-3.624 7.223-7.168 10.763-10.82-3.439-3.59-7.028-7.039-10.517-10.584-.23-.232-.458-.474-.745-.636-.409.236-.709.613-1.043.938z"/>
    <path d="M8.59 5.578c2.351-.002 4.7-.002 7.051 0 .328.971.582 1.967.949 2.923.796 1.115.197 2.546.299 3.81.096.016.289.044.385.06l-.004.997h-1.85l-.001 1.519h-1.592l-.016-1.447c-1.164.005-2.327-.013-3.49-.007l-.004 1.454H8.75l-.002-1.52c-.641.002-1.282.001-1.922 0l-.001-1.019.416-.025c-.049-1.022-.109-2.046-.149-3.07.21-.196.439-.394.516-.683.33-.997.649-1.997.982-2.993zm.574.687C9 7.311 8.736 8.342 8.647 9.399c.502-.347.948-.828 1.601-.856-.173-.319-.49-.691-.262-1.063.218-.44.918-.438 1.13.005.23.379-.114.738-.308 1.043.488.091.905.368 1.186.775 1.181.017 2.362.007 3.544.006-.211-1.015-.422-2.03-.636-3.046-1.913 0-3.826-.001-5.737.001zM6.107 15.289c.296.204.473.515.66.811.406.04.353-.718.811-.72.47-.103.682.391.824.74l.319-.006c.154-.318.316-.787.757-.743.454.013.568.527.74.851.289-.295.442-.88.94-.851.398.013.527.443.673.738l.308.023c.151-.35.341-.845.817-.778.455-.008.415.69.794.73.206-.283.32-.77.762-.738.416-.01.556.434.694.742l.362.007c.148-.322.305-.787.745-.749.41-.002.544.438.684.74.066.002.196.007.262.008.122-.373.362-.686.746-.815.013.419.018.836.02 1.254-3.976-.011-7.951.025-11.927.032-.005-.426-.011-.852.006-1.278z"/>
</svg>
