<!-- Generated by IcoMoon.io -->
<svg version="1.1" xmlns="http://www.w3.org/2000/svg" width="24" height="24" viewBox="0 0 24 24">
<title>warning--junction-with-a-side-road-acute-right--g1</title>
<path fill="#fee011" d="M11.446 0.15c0.389-0.222 0.906-0.179 1.256 0.098 0.269 0.209 0.496 0.467 0.737 0.704 3.282 3.281 6.562 6.564 9.846 9.844 0.34 0.325 0.728 0.698 0.702 1.212 0.013 0.443-0.29 0.79-0.595 1.070-3.528 3.517-7.044 7.045-10.57 10.565-0.43 0.449-1.218 0.45-1.648 0.001-3.486-3.479-6.965-6.967-10.451-10.447-0.301-0.301-0.673-0.607-0.706-1.066-0.065-0.42 0.155-0.816 0.452-1.096 3.383-3.379 6.762-6.762 10.142-10.142 0.266-0.258 0.508-0.554 0.833-0.744M11.677 0.298c-0.293 0.116-0.497 0.372-0.719 0.584-3.456 3.463-6.922 6.919-10.378 10.384-0.409 0.347-0.456 1.028-0.053 1.398 3.578 3.583 7.164 7.16 10.741 10.746 0.217 0.232 0.532 0.392 0.857 0.336 0.419-0.056 0.674-0.428 0.96-0.698 3.458-3.462 6.919-6.922 10.379-10.381 0.404-0.367 0.362-1.049-0.046-1.396-3.563-3.566-7.126-7.13-10.692-10.692-0.259-0.288-0.68-0.416-1.050-0.281z"></path>
<path fill="#fee011" d="M11.796 0.76c0.251-0.118 0.503 0.030 0.667 0.217 3.318 3.322 6.64 6.638 9.958 9.96 0.272 0.289 0.593 0.54 0.821 0.87 0.155 0.354-0.186 0.616-0.406 0.834-3.324 3.313-6.637 6.637-9.959 9.954-0.221 0.216-0.419 0.458-0.672 0.64-0.212 0.108-0.46 0.018-0.605-0.155-3.456-3.464-6.919-6.923-10.38-10.382-0.187-0.214-0.496-0.388-0.503-0.701-0.013-0.191 0.133-0.325 0.25-0.452 3.526-3.522 7.049-7.046 10.571-10.572 0.080-0.078 0.166-0.149 0.258-0.212M9.646 19.344c0.882 0 1.764 0 2.647 0 0.065-1.921-0.208-3.893 0.347-5.765 0.57-2.008 1.844-3.806 3.554-5.003 0.199-0.604 0.397-1.207 0.592-1.812-0.602-0.185-1.194-0.398-1.798-0.58-1.494 1.001-2.8 2.303-3.721 3.854 0.002-1.8 0-3.599 0.001-5.399-0.54 0-1.080 0-1.62-0.002-0.006 4.902-0.002 9.804-0.002 14.706z"></path>
<path fill="#000" d="M11.677 0.298c0.37-0.136 0.791-0.007 1.050 0.281 3.566 3.562 7.129 7.126 10.692 10.692 0.408 0.347 0.45 1.028 0.046 1.396-3.46 3.46-6.92 6.919-10.379 10.381-0.286 0.27-0.541 0.642-0.96 0.698-0.325 0.056-0.64-0.104-0.857-0.336-3.577-3.586-7.163-7.163-10.741-10.746-0.403-0.37-0.356-1.051 0.053-1.398 3.456-3.464 6.922-6.92 10.378-10.384 0.222-0.212 0.426-0.468 0.719-0.584M11.796 0.76c-0.092 0.064-0.178 0.134-0.258 0.212-3.522 3.526-7.045 7.050-10.571 10.572-0.116 0.127-0.263 0.262-0.25 0.452 0.007 0.313 0.316 0.487 0.503 0.701 3.461 3.46 6.924 6.918 10.38 10.382 0.145 0.173 0.392 0.263 0.605 0.155 0.253-0.181 0.451-0.424 0.672-0.64 3.322-3.317 6.635-6.641 9.959-9.954 0.22-0.218 0.56-0.48 0.406-0.834-0.228-0.33-0.548-0.581-0.821-0.87-3.318-3.322-6.64-6.638-9.958-9.96-0.164-0.187-0.416-0.335-0.667-0.217z"></path>
<path fill="#000" d="M9.646 19.344c0-4.902-0.004-9.804 0.002-14.706 0.54 0.002 1.080 0.002 1.62 0.002-0.001 1.8 0.001 3.599-0.001 5.399 0.922-1.552 2.227-2.854 3.721-3.854 0.604 0.181 1.195 0.395 1.798 0.58-0.194 0.605-0.392 1.208-0.592 1.812-1.71 1.196-2.984 2.995-3.554 5.003-0.554 1.872-0.282 3.844-0.347 5.765-0.883 0-1.765 0-2.647 0z"></path>
</svg>
