<!-- Generated by IcoMoon.io -->
<svg version="1.1" xmlns="http://www.w3.org/2000/svg" width="24" height="24" viewBox="0 0 24 24">
<title>warning--pavement-ends--g5</title>
<path fill="#231f20" d="M11.448 0.907c0.625-0.13 1.271 0.119 1.709 0.57 3.313 3.168 6.64 6.323 9.937 9.506 0.769 0.727 0.599 2.033-0.203 2.668-3.127 3.114-6.241 6.242-9.367 9.359-0.679 0.696-1.907 0.72-2.59 0.016-3.332-3.19-6.671-6.373-10.003-9.562-0.726-0.66-0.677-1.89 0.032-2.544 3.049-3.070 6.119-6.12 9.174-9.184 0.364-0.371 0.776-0.748 1.31-0.829M11.204 1.262c-0.295 0.113-0.532 0.331-0.755 0.547-3.092 3.109-6.204 6.198-9.293 9.308-0.607 0.55-0.649 1.596-0.032 2.153 3.336 3.187 6.672 6.376 10.008 9.562 0.582 0.602 1.619 0.574 2.198-0.016 3.168-3.156 6.324-6.324 9.49-9.481 0.636-0.565 0.679-1.652 0.023-2.218-3.284-3.157-6.586-6.296-9.877-9.445-0.443-0.469-1.156-0.668-1.762-0.41z"></path>
<path fill="#231f20" d="M11.323 1.619c0.637-0.184 1.334 0.034 1.789 0.505 3.092 2.948 6.182 5.899 9.264 8.857 0.684 0.62 0.691 1.782 0.032 2.422-2.975 2.989-5.963 5.964-8.942 8.947-0.65 0.668-1.826 0.697-2.489 0.030-3.126-2.994-6.26-5.981-9.386-8.976-0.678-0.632-0.632-1.796 0.031-2.423 2.828-2.85 5.678-5.68 8.515-8.524 0.343-0.341 0.696-0.722 1.186-0.839M11.561 1.958c-0.391 0.058-0.704 0.318-0.973 0.589-2.893 2.909-5.809 5.795-8.696 8.71-0.545 0.509-0.544 1.452 0.028 1.942 3.115 2.968 6.223 5.942 9.336 8.912 0.518 0.521 1.434 0.485 1.942-0.035 2.981-2.978 5.963-5.957 8.939-8.94 0.54-0.526 0.493-1.465-0.086-1.944-3.040-2.922-6.098-5.826-9.145-8.742-0.344-0.356-0.839-0.6-1.343-0.492z"></path>
<path fill="#fff100" d="M11.204 1.262c0.606-0.258 1.319-0.059 1.762 0.41 3.292 3.149 6.593 6.288 9.877 9.445 0.656 0.565 0.613 1.652-0.023 2.218-3.166 3.157-6.322 6.325-9.49 9.481-0.58 0.589-1.616 0.618-2.198 0.016-3.336-3.186-6.672-6.374-10.008-9.562-0.617-0.557-0.575-1.603 0.032-2.153 3.089-3.11 6.2-6.199 9.293-9.308 0.223-0.216 0.46-0.434 0.755-0.547M11.323 1.619c-0.49 0.116-0.842 0.498-1.186 0.839-2.837 2.844-5.687 5.674-8.515 8.524-0.664 0.626-0.709 1.79-0.031 2.423 3.126 2.995 6.26 5.982 9.386 8.976 0.662 0.667 1.838 0.638 2.489-0.030 2.98-2.983 5.968-5.958 8.942-8.947 0.659-0.64 0.652-1.801-0.032-2.422-3.082-2.958-6.172-5.909-9.264-8.857-0.455-0.472-1.152-0.689-1.789-0.505z"></path>
<path fill="#fff100" d="M11.561 1.958c0.504-0.108 0.998 0.136 1.343 0.492 3.047 2.916 6.106 5.82 9.145 8.742 0.58 0.479 0.626 1.418 0.086 1.944-2.976 2.983-5.958 5.962-8.939 8.94-0.508 0.52-1.423 0.556-1.942 0.035-3.113-2.97-6.221-5.945-9.336-8.912-0.571-0.49-0.572-1.433-0.028-1.942 2.887-2.915 5.803-5.801 8.696-8.71 0.269-0.271 0.582-0.532 0.973-0.589M12.22 6.88c-0.076 0.172 0.222 0.301 0.358 0.238 0.062-0.166-0.223-0.307-0.358-0.238M11.426 6.961c-0.116 0.556 0.557-0.122 0 0M12.714 7.128c-0.122 0.568 0.545-0.144 0 0M10.981 7.224c-0.119 0.474 0.481-0.053 0 0M11.89 7.244c-0.184 0.36 0.402 0.016 0 0M11.454 7.601c-0.166 0.592 0.619 0.014 0 0M12.244 7.588c-0.115 0.558 0.553-0.124 0 0M10.846 7.694c0.24 0.458 0.516-0.282 0 0M12.858 7.673c-0.112 0.157 0.149 0.386 0.3 0.283 0.101-0.162-0.142-0.402-0.3-0.283M10.574 7.97c-0.157 0.018-0.239 0.253-0.115 0.358 0.212 0.12 0.37-0.343 0.115-0.358M12.403 8.075c-0.116 0.554 0.556-0.128 0 0M11.405 8.216c-0.104 0.48 0.479-0.095 0 0M12.144 8.444c-0.125 0.553 0.557-0.118 0 0M12.748 8.42c-0.124 0.554 0.558-0.121 0 0M10.945 8.546c-0.145 0.138 0.046 0.463 0.234 0.398 0.126-0.143-0.031-0.484-0.234-0.398M13.336 8.56c-0.199 0.619 0.59 0.002 0 0M10.594 8.884c-0.154 0.115-0.005 0.455 0.181 0.31 0.152-0.115 0.006-0.455-0.181-0.31M12.515 8.876c-0.251 0.614 0.592-0.018 0 0M11.525 9.122c-0.115 0.556 0.556-0.109 0 0M12.997 9.118c-0.122 0.559 0.552-0.119 0 0M12.040 9.407c-0.137 0.562 0.553-0.138 0 0M12.614 9.389c-0.418 0.46 0.593 0.186 0 0M13.331 9.391c-0.126 0.558 0.553-0.115 0 0M10.279 9.491c-0.042 0.599 0.613-0.24 0 0M10.948 9.515c-0.419 0.276 0.386 0.277 0 0M10.35 9.894c-0.089 0.088-0.178 0.175-0.266 0.263 0.156 0.002 0.312 0.005 0.468 0.007-0.067-0.091-0.133-0.18-0.202-0.27M10.804 9.905c-0.208 0.587 0.63-0.059 0 0M11.274 9.928c-0.125 0.157 0.115 0.401 0.276 0.286 0.118-0.148-0.125-0.408-0.276-0.286M11.737 9.92c-0.191 0.172 0.132 0.39 0.281 0.233 0.193-0.17-0.133-0.396-0.281-0.233M12.299 9.865c-0.192 0.167 0.119 0.406 0.271 0.241 0.188-0.162-0.124-0.408-0.271-0.241M12.768 9.874c-0.114 0.577 0.536-0.139 0 0M13.626 9.88c-0.119 0.482 0.475-0.072 0 0M9.278 10.307c-0.572 2.449-1.147 4.898-1.716 7.348 0.395 0.001 0.79 0.002 1.184 0 0.431-2.452 0.858-4.904 1.282-7.358-0.251 0.001-0.5 0.005-0.75 0.011M10.168 10.304c-0.38 2.449-0.761 4.9-1.135 7.35 0.899 0.002 1.799 0.002 2.698 0 0.018-0.568 0.034-1.135 0.053-1.703 0.134 0 0.269 0.001 0.404 0.001 0.017 0.568 0.034 1.135 0.053 1.702 0.899 0.002 1.798 0.004 2.696 0-0.376-2.452-0.755-4.902-1.136-7.352-0.557-0.011-1.114 0.001-1.67 0.005-0.002 0.172-0.004 0.344-0.005 0.516-0.070 0.001-0.21 0.002-0.281 0.002-0.001-0.17-0.004-0.342-0.005-0.512-0.557-0.011-1.115-0.034-1.672-0.008M13.974 10.302c0.425 2.452 0.85 4.902 1.282 7.352 0.395 0.002 0.79 0.001 1.184 0.001-0.57-2.45-1.144-4.9-1.717-7.35-0.25-0.002-0.499-0.004-0.749-0.004z"></path>
<path fill="#fff100" d="M11.834 11.28c0.076 0 0.224 0 0.3 0 0.006 0.264 0.012 0.527 0.017 0.791-0.084 0.001-0.251 0.001-0.334 0.002 0.005-0.265 0.010-0.529 0.017-0.793z"></path>
<path fill="#fff100" d="M11.831 13.019c0.076-0.002 0.227-0.005 0.302-0.007 0.018 0.409 0.028 0.818 0.042 1.228-0.126 0.006-0.251 0.012-0.376 0.018 0.006-0.413 0.018-0.826 0.031-1.238z"></path>
<path fill="#000" d="M12.22 6.88c0.134-0.070 0.42 0.072 0.358 0.238-0.136 0.064-0.433-0.066-0.358-0.238z"></path>
<path fill="#000" d="M12.714 7.128c0.545-0.144-0.122 0.568 0 0z"></path>
<path fill="#000" d="M11.454 7.601c0.619 0.014-0.166 0.592 0 0z"></path>
<path fill="#000" d="M10.846 7.694c0.516-0.282 0.24 0.458 0 0z"></path>
<path fill="#000" d="M12.858 7.673c0.158-0.119 0.401 0.121 0.3 0.283-0.151 0.103-0.412-0.126-0.3-0.283z"></path>
<path fill="#000" d="M10.574 7.97c0.254 0.014 0.097 0.478-0.115 0.358-0.124-0.104-0.042-0.34 0.115-0.358z"></path>
<path fill="#000" d="M10.945 8.546c0.203-0.085 0.36 0.256 0.234 0.398-0.188 0.065-0.379-0.26-0.234-0.398z"></path>
<path fill="#000" d="M12.614 9.389c0.593 0.186-0.418 0.46 0 0z"></path>
<path fill="#000" d="M10.279 9.491c0.613-0.24-0.042 0.599 0 0z"></path>
<path fill="#000" d="M10.35 9.894c0.068 0.090 0.134 0.179 0.202 0.27-0.156-0.002-0.312-0.005-0.468-0.007 0.089-0.088 0.178-0.175 0.266-0.263z"></path>
<path fill="#000" d="M10.804 9.905c0.63-0.059-0.208 0.587 0 0z"></path>
<path fill="#000" d="M11.274 9.928c0.151-0.122 0.394 0.138 0.276 0.286-0.161 0.115-0.401-0.128-0.276-0.286z"></path>
<path fill="#000" d="M11.737 9.92c0.148-0.163 0.474 0.062 0.281 0.233-0.149 0.157-0.472-0.061-0.281-0.233z"></path>
<path fill="#000" d="M12.299 9.865c0.148-0.167 0.46 0.079 0.271 0.241-0.152 0.164-0.463-0.074-0.271-0.241z"></path>
<path fill="#000" d="M12.768 9.874c0.536-0.139-0.114 0.577 0 0z"></path>
<path fill="#000" d="M9.278 10.307c0.25-0.006 0.499-0.010 0.75-0.011-0.424 2.454-0.851 4.907-1.282 7.358-0.395 0.002-0.79 0.001-1.184 0 0.569-2.449 1.144-4.898 1.716-7.348z"></path>
<path fill="#000" d="M10.168 10.304c0.557-0.025 1.115-0.002 1.672 0.008 0.001 0.17 0.004 0.342 0.005 0.512 0.071 0 0.211-0.001 0.281-0.002 0.001-0.172 0.002-0.344 0.005-0.516 0.557-0.004 1.114-0.016 1.67-0.005 0.382 2.45 0.761 4.901 1.136 7.352-0.899 0.004-1.798 0.002-2.696 0-0.019-0.566-0.036-1.134-0.053-1.702-0.136 0-0.27-0.001-0.404-0.001-0.019 0.568-0.035 1.135-0.053 1.703-0.899 0.002-1.799 0.002-2.698 0 0.374-2.45 0.755-4.901 1.135-7.35M11.834 11.28c-0.007 0.264-0.012 0.528-0.017 0.793 0.083-0.001 0.25-0.001 0.334-0.002-0.005-0.264-0.011-0.527-0.017-0.791-0.076 0-0.224 0-0.3 0M11.831 13.019c-0.013 0.413-0.025 0.826-0.031 1.238 0.125-0.006 0.25-0.012 0.376-0.018-0.014-0.409-0.024-0.818-0.042-1.228-0.076 0.002-0.227 0.005-0.302 0.007z"></path>
<path fill="#000" d="M13.974 10.302c0.25 0 0.499 0.001 0.749 0.004 0.574 2.45 1.147 4.9 1.717 7.35-0.395 0-0.79 0.001-1.184-0.001-0.432-2.45-0.857-4.901-1.282-7.352z"></path>
<path fill="#363300" d="M11.426 6.961c0.557-0.122-0.116 0.556 0 0z"></path>
<path fill="#474300" d="M10.981 7.224c0.481-0.053-0.119 0.474 0 0z"></path>
<path fill="#333000" d="M11.89 7.244c0.402 0.016-0.184 0.36 0 0z"></path>
<path fill="#676200" d="M12.244 7.588c0.553-0.124-0.115 0.558 0 0z"></path>
<path fill="#212000" d="M12.403 8.075c0.556-0.128-0.116 0.554 0 0z"></path>
<path fill="#212000" d="M12.515 8.876c0.592-0.018-0.251 0.614 0 0z"></path>
<path fill="#312f00" d="M11.405 8.216c0.479-0.095-0.104 0.48 0 0z"></path>
<path fill="#232100" d="M12.144 8.444c0.557-0.118-0.125 0.553 0 0z"></path>
<path fill="#110" d="M12.748 8.42c0.558-0.121-0.124 0.554 0 0z"></path>
<path fill="#110" d="M11.525 9.122c0.556-0.109-0.115 0.556 0 0z"></path>
<path fill="#635d00" d="M13.336 8.56c0.59 0.002-0.199 0.619 0 0z"></path>
<path fill="#2b2900" d="M10.594 8.884c0.187-0.145 0.334 0.194 0.181 0.31-0.186 0.145-0.335-0.194-0.181-0.31z"></path>
<path fill="#353200" d="M12.997 9.118c0.552-0.119-0.122 0.559 0 0z"></path>
<path fill="#373400" d="M12.040 9.407c0.553-0.138-0.137 0.562 0 0z"></path>
<path fill="#272500" d="M13.331 9.391c0.553-0.115-0.126 0.558 0 0z"></path>
<path fill="#171600" d="M10.948 9.515c0.386 0.277-0.419 0.276 0 0z"></path>
<path fill="#393600" d="M13.626 9.88c0.475-0.072-0.119 0.482 0 0z"></path>
</svg>
