<svg xmlns="http://www.w3.org/2000/svg" width="24" height="24">
    <path fill="#c31926" d="M11.605 1.714h.55c.478.131.854.477 1.072.915C16.73 8.64 20.32 14.602 23.782 20.634v.567a1.689 1.689 0 0 1-1.062 1.084H1.092A1.682 1.682 0 0 1 0 21.234v-.58C3.442 14.605 7.055 8.648 10.555 2.628a1.76 1.76 0 0 1 1.05-.915zm.09 1.351C8.186 9.041 4.646 15 1.167 20.993a.887.887 0 0 0 .492.105c6.863-.007 13.727.001 20.59-.003a.877.877 0 0 0 .369-.1C19.16 15.023 15.626 9.094 12.139 3.137c-.061-.222-.352-.345-.443-.073z"/>
    <path fill="#fff" d="M11.695 3.065c.092-.273.383-.15.443.073 3.488 5.956 7.022 11.886 10.479 17.858a.873.873 0 0 1-.369.1c-6.863.005-13.727-.003-20.59.003a.905.905 0 0 1-.492-.105C4.645 15.001 8.185 9.042 11.694 3.066zm-4.828 8.548c.651.66 1.307 1.317 1.967 1.967 2.038.003 4.077.003 6.113 0 .661-.651 1.317-1.307 1.968-1.967-.549-.564-1.114-1.109-1.672-1.664-1.125 1.105-2.231 2.229-3.352 3.338-1.121-1.109-2.229-2.233-3.353-3.338-.558.553-1.123 1.101-1.671 1.664zm.037 2.343c-.003.208-.003.417-.006.624-.089.003-.269.01-.359.015l.001.741.358.013c.003.22.003.44.006.661h.575l.006-.669.744.001c.003.221.003.443.006.666l.574.001.006-.669.748.001c0 .216-.003.433-.006.649.194.009.389.016.583.024.003-.226.005-.451.009-.676l.743.003c.003.221.003.441.005.663l.558.015c.016-.226.024-.452.027-.678l.742-.001c.003.222.003.445.006.667l.574.001c.003-.222.003-.445.006-.667l.743-.001.007.669h.575c.003-.222.003-.446.006-.667.254-.001.507-.001.761 0 .001.222.003.443.003.666h.577c.003-.222.003-.445.005-.667h.764c.001.225.001.449.003.673l.584-.021a46.23 46.23 0 0 1-.005-.645l.408-.012.001-.743-.406-.012c-.003-.208-.003-.417-.005-.626h-.575c-.003.212-.003.423-.005.635-.255-.003-.509-.003-.764-.005l-.005-.63h-.575l-.006.632h-.759l-.006-.632h-.575l-.007.633-.743-.001-.006-.632h-.574l-.006.632h-.746c-.003-.211-.003-.421-.005-.632h-.572c-.003.213-.013.426-.021.639a35.922 35.922 0 0 0-.734-.006c-.003-.211-.003-.422-.005-.633h-.575c-.003.211-.003.421-.005.632h-.746l-.006-.632h-.574l-.006.632h-.744l-.006-.632h-.575zm1.927 2.398c-.663.645-1.315 1.302-1.967 1.959.566.549 1.111 1.12 1.673 1.671 1.124-1.108 2.229-2.235 3.353-3.341 1.125 1.107 2.229 2.233 3.352 3.341.564-.55 1.108-1.121 1.673-1.671-.651-.657-1.302-1.315-1.965-1.959-2.041-.003-4.08-.005-6.119 0z"/>
    <path d="M6.867 11.613c.549-.562 1.113-1.111 1.671-1.664 1.125 1.105 2.232 2.229 3.353 3.338 1.121-1.109 2.227-2.233 3.352-3.338.558.554 1.124 1.1 1.672 1.664-.651.66-1.307 1.317-1.968 1.967-2.037.003-4.075.003-6.113 0-.66-.651-1.317-1.307-1.967-1.967zM6.904 13.956h.575l.006.632h.744l.006-.632h.574l.006.632h.746l.005-.632h.575c.003.211.003.422.005.633.245 0 .489.001.734.006.009-.213.018-.426.021-.639h.572c.003.211.003.421.005.632h.746l.006-.632h.574l.006.632.743.001.007-.633h.575l.006.632h.759l.006-.632h.575c.003.211.003.42.005.63l.764.005.005-.635h.575l.005.626.406.012-.001.743-.408.012c0 .214.003.429.005.645-.195.009-.39.015-.584.021-.003-.224-.003-.448-.003-.673h-.764c-.003.222-.003.445-.005.667h-.577c-.001-.222-.003-.443-.003-.666a96.52 96.52 0 0 0-.761 0c-.003.221-.003.445-.006.667h-.575c-.003-.224-.003-.446-.007-.669l-.743.001c-.003.222-.003.445-.006.667l-.574-.001c-.003-.222-.003-.445-.006-.667l-.742.001c-.003.226-.009.452-.027.678-.185-.006-.372-.01-.558-.015-.003-.221-.003-.441-.005-.663l-.743-.003c-.005.226-.006.451-.009.676a56.793 56.793 0 0 1-.583-.024c.003-.216.006-.433.006-.649l-.748-.001c-.003.222-.003.445-.006.669l-.574-.001c-.003-.222-.003-.445-.006-.666l-.744-.001c-.003.222-.003.445-.006.669h-.575c-.003-.221-.003-.441-.006-.661l-.358-.013-.001-.741c.09-.003.27-.01.359-.015.003-.208.003-.417.006-.624zM8.831 16.354c2.039-.005 4.078-.003 6.119 0 .663.644 1.314 1.302 1.965 1.959-.565.549-1.109 1.12-1.673 1.671-1.123-1.108-2.227-2.235-3.352-3.341-1.125 1.107-2.229 2.233-3.353 3.341-.562-.55-1.107-1.121-1.673-1.671.651-.657 1.303-1.314 1.967-1.959z"/>
</svg>
