<?xml version="1.0" encoding="utf-8"?>
<!-- Generated by IcoMoon.io -->
<!DOCTYPE svg PUBLIC "-//W3C//DTD SVG 1.1//EN" "http://www.w3.org/Graphics/SVG/1.1/DTD/svg11.dtd">
<svg version="1.1" xmlns="http://www.w3.org/2000/svg" xmlns:xlink="http://www.w3.org/1999/xlink" width="24" height="24" viewBox="0 0 24 24">
<path fill="#ef7c23" d="M11.926 0h0.11c0.328 0.031 0.63 0.185 0.853 0.426 3.559 3.563 7.122 7.123 10.684 10.684 0.211 0.2 0.361 0.455 0.427 0.739v0.266c-0.066 0.491-0.467 0.803-0.793 1.129-3.322 3.319-6.642 6.641-9.962 9.961-0.325 0.324-0.635 0.724-1.121 0.794h-0.25c-0.264-0.054-0.511-0.176-0.697-0.373-3.599-3.601-7.201-7.201-10.802-10.801-0.194-0.182-0.311-0.425-0.374-0.68v-0.272c0.055-0.295 0.21-0.556 0.425-0.76 3.541-3.542 7.085-7.081 10.625-10.625 0.238-0.244 0.527-0.456 0.876-0.488M11.57 0.442c-0.086 0.062-0.167 0.131-0.242 0.206-3.482 3.479-6.964 6.959-10.445 10.438-0.25 0.258-0.589 0.515-0.571 0.914-0.018 0.372 0.292 0.616 0.527 0.851 3.54 3.535 7.074 7.076 10.613 10.61 0.311 0.331 0.876 0.284 1.162-0.056 3.613-3.624 7.237-7.24 10.852-10.862 0.328-0.308 0.28-0.866-0.050-1.153-3.576-3.584-7.159-7.162-10.74-10.742-0.265-0.312-0.75-0.463-1.104-0.205z"></path>
<path fill="#ef7c23" d="M11.806 0.887c0.162-0.178 0.395-0.030 0.515 0.114 3.446 3.434 6.882 6.88 10.325 10.318 0.179 0.181 0.374 0.35 0.523 0.559 0.104 0.176-0.065 0.324-0.174 0.438-3.606 3.594-7.195 7.206-10.805 10.796-0.365 0.245-0.614-0.287-0.869-0.479-3.472-3.486-6.961-6.955-10.43-10.442-0.199-0.196 0.010-0.436 0.164-0.575 3.589-3.571 7.151-7.171 10.751-10.729M8.161 6.119c-0.151 0.203-0.301 0.455-0.223 0.719 0.068 0.282 0.401 0.413 0.66 0.311 0.582-0.203 1.15-0.442 1.728-0.654-0.007 0.875-0.050 1.775 0.21 2.622 0.089 0.319 0.353 0.538 0.583 0.757 0.762 0.65 1.562 1.254 2.396 1.807 0.458 0.324 0.865 0.953 0.532 1.504-0.48 0.737-1.302 1.156-2.059 1.558-1.055 0.506-1.794 1.6-1.874 2.767-0.067 1.207-0.076 2.418-0.014 3.626 0.91 0.001 1.818 0.001 2.728 0 0.002-0.805 0-1.612 0.001-2.417 0.020-0.445 0.047-0.913 0.244-1.32 0.57-0.77 1.523-1.103 2.203-1.757 0.828-0.678 1.296-1.733 1.309-2.798 0.072-1.031-0.482-1.974-1.135-2.726-0.554-0.683-1.381-1.039-2.101-1.51-0.632-0.461-0.522-1.315-0.553-2 0.548 0.156 1.058 0.431 1.616 0.552 0.49 0.096 0.707-0.551 0.421-0.88-1.117-1.554-2.258-3.091-3.383-4.64-1.105 1.486-2.188 2.989-3.288 4.48z"></path>
<path fill="#000" d="M11.57 0.442c0.354-0.258 0.839-0.107 1.104 0.205 3.581 3.581 7.164 7.158 10.74 10.742 0.33 0.287 0.378 0.845 0.050 1.153-3.614 3.623-7.238 7.238-10.852 10.862-0.286 0.341-0.851 0.388-1.162 0.056-3.539-3.534-7.073-7.075-10.613-10.61-0.235-0.235-0.545-0.479-0.527-0.851-0.018-0.4 0.322-0.656 0.571-0.914 3.481-3.479 6.962-6.959 10.445-10.438 0.076-0.076 0.156-0.144 0.242-0.206M11.806 0.887c-3.6 3.558-7.162 7.158-10.751 10.729-0.155 0.139-0.364 0.379-0.164 0.575 3.469 3.487 6.959 6.956 10.43 10.442 0.254 0.192 0.504 0.724 0.869 0.479 3.61-3.59 7.199-7.202 10.805-10.796 0.109-0.114 0.278-0.262 0.174-0.438-0.149-0.209-0.344-0.378-0.523-0.559-3.443-3.438-6.878-6.883-10.325-10.318-0.12-0.144-0.353-0.292-0.515-0.114z"></path>
<path fill="#000" d="M8.161 6.119c1.1-1.49 2.183-2.994 3.288-4.48 1.124 1.549 2.266 3.086 3.383 4.64 0.286 0.329 0.068 0.976-0.421 0.88-0.558-0.121-1.068-0.396-1.616-0.552 0.031 0.685-0.079 1.54 0.553 2 0.72 0.47 1.547 0.827 2.101 1.51 0.653 0.752 1.207 1.696 1.135 2.726-0.013 1.066-0.481 2.12-1.309 2.798-0.68 0.654-1.633 0.986-2.203 1.757-0.197 0.407-0.223 0.875-0.244 1.32-0.001 0.805 0.001 1.612-0.001 2.417-0.91 0.001-1.818 0.001-2.728 0-0.061-1.208-0.053-2.419 0.014-3.626 0.080-1.168 0.82-2.261 1.874-2.767 0.757-0.402 1.579-0.821 2.059-1.558 0.334-0.551-0.073-1.18-0.532-1.504-0.834-0.553-1.634-1.157-2.396-1.807-0.23-0.22-0.494-0.438-0.583-0.757-0.26-0.847-0.217-1.747-0.21-2.622-0.578 0.212-1.146 0.451-1.728 0.654-0.259 0.102-0.592-0.029-0.66-0.311-0.078-0.264 0.072-0.516 0.223-0.719z"></path>
</svg>
