<!-- Generated by IcoMoon.io -->
<svg version="1.1" xmlns="http://www.w3.org/2000/svg" width="27" height="24" viewBox="0 0 27 24">
<title>warning--checkpoint--g1</title>
<path fill="#d02c2e" d="M13.227 0h0.655c0.603 0.164 1.113 0.572 1.388 1.135 3.931 6.894 7.974 13.727 11.848 20.652v0.854c-0.236 0.651-0.754 1.176-1.428 1.359h-24.247c-0.702-0.19-1.231-0.754-1.444-1.441v-0.717c3.843-6.921 7.898-13.73 11.814-20.613 0.278-0.59 0.784-1.045 1.413-1.228M2.865 21.6c7.139 0.005 14.279 0.011 21.42-0.001-3.567-6.194-7.12-12.395-10.717-18.569-3.585 6.179-7.161 12.366-10.702 18.571z"></path>
<path fill="#fff" d="M2.865 21.6c3.542-6.205 7.117-12.392 10.702-18.571 3.597 6.175 7.15 12.376 10.717 18.569-7.14 0.012-14.281 0.007-21.42 0.001M7.98 14.401c-0.167 0.005-0.334 0.009-0.499 0.015-0.003 0.069-0.008 0.206-0.011 0.275 0.292 0.004 0.584 0.008 0.876 0.009 0.004 1.611-0.007 3.222 0.007 4.833-0.681 0.038-1.363 0.009-2.045 0.022 0 0.259-0.001 0.518-0.004 0.777 1.727 0.022 3.454-0.011 5.18 0.016 0.282 0.271 0.517 0.612 0.858 0.809 3.361 0.028 6.725 0.005 10.088 0.011 0-0.274 0-0.548 0-0.82-1.001-0.004-2 0.007-2.999-0.005 0-1.216 0-2.433 0-3.649 0.255 0.141 0.508 0.283 0.763 0.424 0.005 0.247 0.009 0.492 0.014 0.739-0.113 0.003-0.336 0.008-0.449 0.012-0.003 0.3-0.005 0.599-0.009 0.899 0.4 0.019 0.8 0.019 1.2 0.015 0.001-0.294 0.005-0.588 0.011-0.883-0.153-0.019-0.306-0.039-0.46-0.062 0.003-0.184 0.005-0.367 0.007-0.552 0.216 0.113 0.43 0.226 0.644 0.339-0.008-0.21-0.016-0.422-0.024-0.632-1.178-0.645-2.338-1.327-3.515-1.977 0.268-1.092-1.094-1.906-1.904-1.106-0.77-0.418-1.512-0.894-2.302-1.268-0.285-0.16-0.579 0.376-0.252 0.496 0.755 0.43 1.51 0.858 2.273 1.279-0.221 1.056 1.087 1.73 1.886 1.082 0.485 0.29 0.983 0.561 1.471 0.849 0.011 1.332-0.001 2.664 0.007 3.997-1.793 0.026-3.584 0.005-5.376 0.009-0.007-1.257 0.003-2.514-0.009-3.771-0.164 0.001-0.327 0.001-0.489 0.003-0.009 1.269 0.009 2.538-0.009 3.806-0.607-0.133-0.815-0.948-1.498-0.892 0.007-1.601 0.001-3.201 0.009-4.801 0.275-0.001 0.552-0.003 0.827-0.005-0.004-0.068-0.014-0.202-0.019-0.27-0.652 0.138-0.809-0.597-1.121-0.995-0.43-0.778-1.101-1.448-1.296-2.335-0.456 1.173-1.219 2.205-1.828 3.307z"></path>
<path fill="#000" d="M7.98 14.401c0.609-1.102 1.372-2.134 1.828-3.307 0.195 0.887 0.866 1.557 1.296 2.335 0.312 0.399 0.469 1.134 1.121 0.995 0.005 0.068 0.015 0.202 0.019 0.27-0.275 0.003-0.552 0.004-0.827 0.005-0.008 1.6-0.003 3.2-0.009 4.801 0.683-0.056 0.891 0.759 1.498 0.892 0.019-1.268 0-2.537 0.009-3.806 0.163-0.001 0.325-0.001 0.489-0.003 0.012 1.257 0.003 2.514 0.009 3.771 1.793-0.004 3.584 0.016 5.376-0.009-0.008-1.333 0.004-2.666-0.007-3.997-0.488-0.287-0.986-0.559-1.471-0.849-0.799 0.648-2.107-0.026-1.886-1.082-0.762-0.42-1.517-0.849-2.273-1.279-0.327-0.121-0.033-0.656 0.252-0.496 0.79 0.374 1.532 0.85 2.302 1.268 0.809-0.8 2.172 0.015 1.904 1.106 1.177 0.649 2.336 1.332 3.515 1.977 0.008 0.21 0.016 0.422 0.024 0.632-0.214-0.113-0.428-0.226-0.644-0.339-0.001 0.184-0.004 0.367-0.007 0.552 0.153 0.023 0.306 0.043 0.46 0.062-0.005 0.294-0.009 0.588-0.011 0.883-0.4 0.004-0.8 0.004-1.2-0.015 0.004-0.3 0.007-0.599 0.009-0.899 0.113-0.004 0.336-0.009 0.449-0.012-0.004-0.247-0.008-0.492-0.014-0.739-0.255-0.141-0.508-0.283-0.763-0.424 0 1.216 0 2.433 0 3.649 0.999 0.012 1.999 0.001 2.999 0.005 0 0.273 0 0.546 0 0.82-3.363-0.005-6.727 0.018-10.088-0.011-0.342-0.198-0.576-0.538-0.858-0.809-1.726-0.027-3.452 0.005-5.18-0.016 0.003-0.259 0.004-0.518 0.004-0.777 0.682-0.012 1.364 0.016 2.045-0.022-0.014-1.611-0.003-3.222-0.007-4.833-0.292-0.001-0.584-0.005-0.876-0.009 0.003-0.069 0.008-0.206 0.011-0.275 0.165-0.005 0.332-0.009 0.499-0.015z"></path>
</svg>
