<svg xmlns="http://www.w3.org/2000/svg" width="24" height="24">
    <path fill="#d5bb0e" opacity=".84" d="M11.714 0h.552c.282.131.545.301.766.521 3.239 3.244 6.481 6.484 9.722 9.725.446.46.97.871 1.246 1.465v.551a2.48 2.48 0 0 1-.475.701c-3.286 3.276-6.562 6.559-9.844 9.84-.443.427-.833.937-1.409 1.198h-.512a2.323 2.323 0 0 1-.719-.478C7.524 19.999 4.002 16.478.479 12.958A2.76 2.76 0 0 1 0 12.276v-.528c.239-.594.756-.992 1.189-1.439 3.262-3.26 6.524-6.52 9.781-9.784.217-.215.473-.386.744-.526zm-.03.308c-.182.073-.332.205-.474.337C7.672 4.191 4.125 7.729.588 11.273c-.403.354-.455 1.014-.047 1.386 3.596 3.602 7.196 7.204 10.8 10.8.372.409 1.034.36 1.382-.054 3.577-3.583 7.164-7.159 10.739-10.745.408-.374.359-1.036-.048-1.39C19.876 7.724 16.329 4.186 12.792.642c-.276-.294-.708-.514-1.108-.335z"/>
    <path fill="#030303" d="M11.684.308c.4-.179.832.041 1.108.335 3.538 3.545 7.085 7.082 10.622 10.628.407.354.456 1.015.048 1.39-3.575 3.586-7.162 7.162-10.739 10.745-.348.414-1.01.463-1.382.054a7854.948 7854.948 0 0 1-10.8-10.8c-.408-.372-.356-1.032.047-1.386C4.126 7.729 7.673 4.192 11.21.646c.142-.132.292-.264.474-.337zm.124.458C8.164 4.274 4.639 7.922 1.034 11.478c-.29.217-.449.656-.112.914 3.559 3.563 7.123 7.124 10.684 10.686.2.257.588.26.788.001 3.56-3.563 7.124-7.123 10.684-10.686.259-.2.26-.589.004-.792-3.514-3.528-7.044-7.04-10.558-10.567-.182-.185-.44-.421-.716-.269z"/>
    <path fill="#030303" d="M9.523 4.842c.466-.112 1.19.174 1.099.749-.224 1.145-.493 2.311-.364 3.486.032.326.318.608.661.546.956-.138 1.784-.766 2.765-.806 1.222-.058 2.363.564 3.236 1.374 1.046.731 1.518 2.06 1.558 3.295-.738.008-1.523-.05-2.194-.382-.433.109-.869.218-1.282.392.122.482.527.9.414 1.424-.109 1.136-.005 2.278-.053 3.415-.686.061-1.348.265-2.029.346a3.374 3.374 0 0 0-.656-.32c.6-.401 1.333-.4 2.027-.421.226-1.452.106-3.068-.798-4.282-.174.606.058 1.294-.323 1.843-.601.87-.82 1.919-1.01 2.94-.676.095-1.343.25-2.024.311a10.064 10.064 0 0 0-.634-.376c.635-.656 1.855.126 2.26-.792.347-.799.713-1.61.866-2.472-.002-.599-.19-1.297-.721-1.639-2.224-.233-3.913-2.545-3.672-4.723.067-1.061 1.092-1.871.815-2.981-.377-.055-.755-.102-1.13-.164.424-.211.81-.484 1.189-.763z"/>
    <path fill="#fee011" d="M11.808.766c.276-.152.534.084.716.269 3.514 3.527 7.044 7.039 10.558 10.567a.501.501 0 0 1-.004.792c-3.559 3.563-7.123 7.123-10.684 10.686a.498.498 0 0 1-.788-.001C8.046 19.517 4.482 15.956.922 12.393c-.337-.258-.179-.697.112-.914C4.639 7.922 8.163 4.274 11.808.767zM9.523 4.842c-.379.28-.766.552-1.189.763.376.062.754.109 1.13.164.277 1.11-.748 1.92-.815 2.981-.241 2.178 1.448 4.49 3.672 4.723.532.342.719 1.04.721 1.639-.154.862-.52 1.673-.866 2.472-.404.918-1.625.136-2.26.792.215.119.428.241.634.376.682-.061 1.349-.216 2.024-.311.191-1.021.409-2.07 1.01-2.94.38-.55.149-1.237.323-1.843.904 1.213 1.024 2.83.798 4.282-.694.022-1.427.02-2.027.421.226.09.454.182.656.32.682-.08 1.343-.284 2.029-.346.048-1.138-.056-2.279.053-3.415.113-.524-.292-.942-.414-1.424.413-.174.848-.283 1.282-.392.671.331 1.456.39 2.194.382-.04-1.235-.511-2.564-1.558-3.295-.874-.81-2.015-1.432-3.236-1.374-.98.041-1.808.668-2.765.806-.343.062-.629-.22-.661-.546-.13-1.175.139-2.341.364-3.486.091-.575-.634-.86-1.099-.749z"/>
</svg>
