<!-- Generated by IcoMoon.io -->
<svg version="1.1" xmlns="http://www.w3.org/2000/svg" width="27" height="24" viewBox="0 0 27 24">
<title>warning--road-blocks--g1</title>
<path fill="#2c2825" opacity="0.87" d="M13.555 0h0.565c0.041 0.071 0.125 0.215 0.166 0.288-0.269-0.055-0.554-0.091-0.795-0.229l0.064-0.059z"></path>
<path fill="#fff" d="M13.491 0.059c0.241 0.139 0.527 0.174 0.795 0.229 0.192 0.344 0.394 0.684 0.591 1.026 0.088 0.311 0.254 0.588 0.468 0.83 0.021 0.032 0.063 0.095 0.084 0.126 0.092 0.304 0.247 0.588 0.461 0.826 0.021 0.025 0.060 0.074 0.081 0.099 0.24 0.565 0.547 1.099 0.916 1.589 0.012 0.025 0.036 0.074 0.047 0.099 0.096 0.304 0.255 0.583 0.462 0.826 0.023 0.032 0.071 0.093 0.095 0.125 0.084 0.309 0.243 0.59 0.458 0.827 0.019 0.025 0.060 0.074 0.080 0.099 0.241 0.565 0.544 1.104 0.923 1.589 0.010 0.026 0.029 0.078 0.038 0.104 0.095 0.302 0.259 0.576 0.465 0.816 0.019 0.023 0.058 0.071 0.077 0.096 0.241 0.564 0.553 1.097 0.912 1.594 0.014 0.025 0.040 0.071 0.053 0.096 0.093 0.307 0.256 0.587 0.469 0.828 0.021 0.032 0.063 0.095 0.084 0.126 0.093 0.306 0.251 0.588 0.459 0.831 0.025 0.032 0.071 0.093 0.096 0.123 0.077 0.315 0.248 0.594 0.464 0.834 0.022 0.032 0.063 0.097 0.084 0.13 0.091 0.304 0.245 0.587 0.459 0.824 0.021 0.025 0.060 0.074 0.081 0.099 0.237 0.566 0.546 1.099 0.913 1.591 0.011 0.025 0.036 0.074 0.047 0.097 0.092 0.309 0.256 0.587 0.469 0.83 0.021 0.032 0.062 0.095 0.082 0.126 0.093 0.306 0.252 0.587 0.461 0.831 0.023 0.030 0.071 0.093 0.095 0.125 0.077 0.315 0.25 0.592 0.465 0.832 0.021 0.032 0.062 0.097 0.082 0.13 0.091 0.304 0.245 0.587 0.459 0.824 0.021 0.025 0.060 0.074 0.081 0.099 0.236 0.561 0.544 1.089 0.902 1.581 0.011 0.018 0.033 0.055 0.044 0.073 0.4 0.551 0.817 1.694-0.182 1.86-8.706 0.008-17.416 0.052-26.12-0.022-0.228-0.252-0.473-0.529-0.409-0.894 0.425-0.598 0.789-1.241 1.092-1.91 0.019-0.025 0.060-0.074 0.081-0.099 0.214-0.239 0.372-0.52 0.457-0.828 0.025-0.032 0.071-0.095 0.096-0.125 0.207-0.244 0.366-0.525 0.459-0.832 0.021-0.030 0.063-0.093 0.084-0.125 0.213-0.241 0.376-0.52 0.469-0.828 0.014-0.023 0.040-0.071 0.053-0.096 0.359-0.496 0.669-1.029 0.909-1.594 0.019-0.025 0.059-0.073 0.080-0.097 0.214-0.236 0.368-0.52 0.461-0.826 0.021-0.032 0.062-0.095 0.084-0.126 0.213-0.241 0.377-0.52 0.469-0.828 0.011-0.025 0.034-0.073 0.047-0.097 0.368-0.491 0.676-1.026 0.915-1.591 0.021-0.025 0.060-0.074 0.081-0.099 0.214-0.237 0.373-0.518 0.455-0.828 0.025-0.030 0.073-0.093 0.096-0.125 0.207-0.241 0.366-0.521 0.462-0.826 0.011-0.023 0.033-0.073 0.045-0.097 0.372-0.49 0.677-1.026 0.92-1.589 0.019-0.025 0.059-0.074 0.080-0.099 0.204-0.239 0.368-0.513 0.464-0.813 0.011-0.027 0.030-0.080 0.040-0.107 0.379-0.484 0.682-1.023 0.923-1.588 0.021-0.025 0.060-0.074 0.081-0.099 0.214-0.236 0.369-0.518 0.462-0.824 0.021-0.032 0.063-0.095 0.084-0.126 0.213-0.241 0.377-0.52 0.47-0.828 0.014-0.023 0.040-0.070 0.053-0.095 0.358-0.495 0.665-1.027 0.913-1.587 0.203-0.34 0.398-0.684 0.597-1.027 0.457-0.612 0.769-1.315 1.205-1.942 0.056-0.043 0.167-0.128 0.224-0.171M13.609 0.571c-0.16 0.067-0.221 0.25-0.317 0.381-4.208 7.307-8.434 14.604-12.647 21.909-0.21 0.235-0.021 0.651 0.307 0.586 8.507 0.001 17.017 0.029 25.524 0.005 0.314 0.052 0.498-0.346 0.3-0.575-4.213-7.352-8.444-14.695-12.676-22.036-0.095-0.181-0.267-0.358-0.491-0.27z"></path>
<path fill="#fff" d="M3.563 21.559c3.398-5.851 6.776-11.711 10.154-17.572 3.386 5.852 6.746 11.719 10.129 17.572-6.761 0-13.522 0-20.283 0M9.765 14.868c-0.003 0.232-0.005 0.465-0.008 0.697-0.528 0.016-1.056-0.004-1.583 0.014-0.019 0.754-0.001 1.507-0.010 2.261 0.531 0.036 1.064 0.005 1.596 0.019 0 0.562 0.004 1.123-0.005 1.684-0.329-0.014-0.805-0.095-0.813 0.37-0.512 0.001-1.023-0.004-1.535 0.001-0.001 0.261-0.003 0.521-0.001 0.782 4.284 0.007 8.567 0.003 12.85 0.003 0.001-0.262 0.001-0.523 0-0.784-0.517-0.004-1.035 0-1.554 0-0.021-0.093-0.063-0.278-0.085-0.37-0.236 0.001-0.473 0-0.709-0.005-0.007-0.56-0.005-1.12-0.004-1.68 0.561-0.010 1.123 0.007 1.684-0.011 0.005-0.758 0.001-1.515 0.003-2.274-0.561-0.008-1.122 0.004-1.683-0.010-0.004-0.232-0.007-0.462-0.011-0.694-0.313-0.011-0.625-0.010-0.938 0.007-0.005 0.232-0.014 0.465-0.022 0.698-2.074-0.012-4.149-0.001-6.222-0.007-0.003-0.233-0.007-0.466-0.010-0.699-0.314-0.004-0.627-0.004-0.941-0.001z"></path>
<path fill="#fff" d="M8.33 15.739c0.455-0.007 0.911-0.004 1.366-0.005-0.466 0.625-0.875 1.293-1.367 1.899-0.004-0.631-0.005-1.262 0.001-1.894z"></path>
<path fill="#fff" d="M11.044 15.736c0.477-0.003 0.955 0.001 1.432-0.005-0.459 0.651-0.911 1.307-1.369 1.957-0.475 0.008-0.948 0.005-1.422 0 0.454-0.649 0.913-1.296 1.359-1.952z"></path>
<path fill="#fff" d="M13.825 15.737c0.48-0.005 0.96 0 1.44-0.005-0.465 0.645-0.917 1.297-1.367 1.953-0.479 0.012-0.957 0.008-1.436 0.004 0.462-0.645 0.917-1.296 1.363-1.952z"></path>
<path fill="#fff" d="M16.62 15.736c0.475-0.003 0.95-0.001 1.425-0.001-0.464 0.645-0.915 1.299-1.366 1.952-0.477 0.011-0.955 0.007-1.432 0.001 0.465-0.646 0.912-1.304 1.373-1.952z"></path>
<path fill="#fff" d="M19.432 15.71c-0.012 0.66-0.001 1.321-0.010 1.98-0.462 0.004-0.926 0.003-1.388-0.003 0.469-0.657 0.915-1.33 1.397-1.978z"></path>
<path fill="#fff" d="M10.718 17.857c2.074-0.004 4.149-0.001 6.224 0 0.004 0.562 0.004 1.123-0.004 1.685-0.23 0.001-0.459 0.001-0.688 0.003-0.018 0.091-0.052 0.273-0.069 0.363-1.566 0.008-3.132 0.003-4.697 0.003-0.018-0.084-0.055-0.252-0.073-0.337-0.229-0.032-0.459-0.037-0.69-0.033-0.004-0.561-0.005-1.123-0.003-1.684z"></path>
<path fill="#373331" opacity="0.83" d="M12.062 2.172c0.243-0.708 0.553-1.525 1.205-1.942-0.436 0.627-0.749 1.33-1.205 1.942z"></path>
<path fill="#da271d" d="M13.609 0.571c0.224-0.088 0.396 0.089 0.491 0.27 4.232 7.341 8.463 14.684 12.676 22.036 0.197 0.229 0.014 0.627-0.3 0.575-8.507 0.023-17.017-0.004-25.524-0.005-0.328 0.066-0.517-0.351-0.307-0.586 4.213-7.304 8.44-14.602 12.647-21.909 0.096-0.132 0.156-0.314 0.317-0.381M3.563 21.559c6.761 0 13.522 0 20.283 0-3.383-5.853-6.743-11.72-10.129-17.572-3.378 5.861-6.756 11.722-10.154 17.572z"></path>
<path fill="#383432" opacity="0.86" d="M14.877 1.314c0.337 0.136 0.491 0.481 0.468 0.83-0.214-0.241-0.38-0.518-0.468-0.83z"></path>
<path fill="#3c3836" opacity="0.88" d="M15.429 2.27c0.324 0.139 0.505 0.479 0.461 0.826-0.214-0.237-0.369-0.521-0.461-0.826z"></path>
<path fill="#3c3836" opacity="0.88" d="M24.758 18.45c0.332 0.143 0.483 0.485 0.465 0.832-0.215-0.24-0.388-0.517-0.465-0.832z"></path>
<path fill="#3c3836" opacity="0.88" d="M1.253 20.924c-0.045-0.348 0.139-0.682 0.457-0.828-0.085 0.309-0.243 0.59-0.457 0.828z"></path>
<path fill="#34302e" opacity="0.82" d="M10.552 4.786c0.14-0.603 0.448-1.173 0.913-1.587-0.248 0.56-0.555 1.092-0.913 1.587z"></path>
<path fill="#373432" opacity="0.84" d="M15.97 3.194c0.458 0.422 0.76 0.99 0.916 1.589-0.369-0.491-0.676-1.024-0.916-1.589z"></path>
<path fill="#373432" opacity="0.84" d="M22.692 14.85c0.458 0.422 0.76 0.99 0.913 1.591-0.368-0.492-0.676-1.024-0.913-1.591z"></path>
<path fill="#373230" opacity="0.86" d="M10.028 5.709c-0.025-0.348 0.13-0.698 0.47-0.828-0.093 0.309-0.258 0.587-0.47 0.828z"></path>
<path fill="#373230" opacity="0.86" d="M23.652 16.538c0.339 0.133 0.494 0.481 0.469 0.83-0.213-0.243-0.377-0.521-0.469-0.83z"></path>
<path fill="#393532" opacity="0.87" d="M16.933 4.882c0.325 0.136 0.516 0.477 0.462 0.826-0.207-0.243-0.366-0.521-0.462-0.826z"></path>
<path fill="#3b3836" opacity="0.87" d="M9.482 6.66c-0.045-0.347 0.139-0.684 0.462-0.824-0.093 0.306-0.248 0.588-0.462 0.824z"></path>
<path fill="#3d3937" opacity="0.89" d="M17.49 5.833c0.317 0.147 0.503 0.479 0.458 0.827-0.215-0.237-0.374-0.518-0.458-0.827z"></path>
<path fill="#373432" opacity="0.84" d="M8.478 8.347c0.165-0.597 0.464-1.164 0.923-1.588-0.241 0.565-0.544 1.104-0.923 1.588z"></path>
<path fill="#373432" opacity="0.84" d="M25.846 20.336c0.451 0.421 0.765 0.979 0.902 1.581-0.358-0.492-0.667-1.020-0.902-1.581z"></path>
<path fill="#383432" opacity="0.84" d="M18.027 6.758c0.462 0.422 0.757 0.993 0.923 1.589-0.379-0.485-0.682-1.024-0.923-1.589z"></path>
<path fill="#3a3634" opacity="0.87" d="M7.975 9.267c-0.034-0.336 0.123-0.705 0.464-0.813-0.096 0.3-0.259 0.575-0.464 0.813z"></path>
<path fill="#393533" opacity="0.87" d="M18.989 8.452c0.339 0.111 0.499 0.48 0.465 0.816-0.206-0.24-0.37-0.514-0.465-0.816z"></path>
<path fill="#393533" opacity="0.87" d="M24.203 17.494c0.322 0.141 0.513 0.481 0.461 0.831-0.208-0.244-0.368-0.525-0.461-0.831z"></path>
<path fill="#373331" opacity="0.83" d="M6.975 10.955c0.158-0.599 0.459-1.168 0.92-1.589-0.243 0.564-0.549 1.1-0.92 1.589z"></path>
<path fill="#34312f" opacity="0.82" d="M19.531 9.364c0.459 0.421 0.775 0.987 0.912 1.594-0.359-0.496-0.671-1.030-0.912-1.594z"></path>
<path fill="#383432" opacity="0.87" d="M6.468 11.878c-0.051-0.347 0.134-0.69 0.462-0.826-0.096 0.304-0.255 0.584-0.462 0.826z"></path>
<path fill="#34312f" opacity="0.85" d="M20.496 11.054c0.34 0.13 0.492 0.48 0.469 0.828-0.213-0.241-0.376-0.521-0.469-0.828z"></path>
<path fill="#3d3937" opacity="0.88" d="M5.916 12.831c-0.047-0.348 0.139-0.68 0.455-0.828-0.082 0.31-0.241 0.591-0.455 0.828z"></path>
<path fill="#383432" opacity="0.87" d="M21.049 12.008c0.322 0.141 0.512 0.481 0.459 0.831-0.208-0.243-0.366-0.525-0.459-0.831z"></path>
<path fill="#373331" opacity="0.84" d="M4.921 14.521c0.152-0.601 0.458-1.167 0.915-1.591-0.239 0.565-0.547 1.1-0.915 1.591z"></path>
<path fill="#3b3835" opacity="0.88" d="M21.604 12.963c0.332 0.143 0.481 0.487 0.464 0.834-0.215-0.24-0.387-0.518-0.464-0.834z"></path>
<path fill="#3e3a38" opacity="0.89" d="M22.151 13.927c0.324 0.139 0.503 0.477 0.459 0.824-0.214-0.237-0.369-0.52-0.459-0.824z"></path>
<path fill="#373431" opacity="0.86" d="M4.405 15.446c-0.025-0.348 0.129-0.697 0.469-0.828-0.092 0.309-0.256 0.587-0.469 0.828z"></path>
<path fill="#201b18" d="M9.765 14.868c0.314-0.003 0.627-0.003 0.941 0.001 0.003 0.233 0.007 0.466 0.010 0.699 2.074 0.005 4.149-0.005 6.222 0.007 0.008-0.233 0.016-0.466 0.022-0.698 0.313-0.016 0.625-0.018 0.938-0.007 0.004 0.232 0.007 0.462 0.011 0.694 0.561 0.014 1.122 0.001 1.683 0.010-0.001 0.758 0.003 1.515-0.003 2.274-0.561 0.018-1.123 0.001-1.684 0.011-0.001 0.56-0.003 1.12 0.004 1.68 0.236 0.005 0.473 0.007 0.709 0.005 0.022 0.092 0.064 0.277 0.085 0.37 0.518 0 1.037-0.004 1.554 0 0.001 0.262 0.001 0.523 0 0.784-4.283 0-8.566 0.004-12.85-0.003-0.001-0.261 0-0.521 0.001-0.782 0.512-0.005 1.023 0 1.535-0.001 0.008-0.465 0.484-0.384 0.813-0.37 0.010-0.561 0.005-1.122 0.005-1.684-0.532-0.014-1.066 0.016-1.596-0.019 0.008-0.754-0.010-1.507 0.010-2.261 0.527-0.018 1.055 0.003 1.583-0.014 0.003-0.232 0.005-0.465 0.008-0.697M8.33 15.739c-0.007 0.632-0.005 1.263-0.001 1.894l-0.064 0.080c0.473-0.022 0.948-0.018 1.421-0.025 0.475 0.005 0.948 0.008 1.422 0 0.451 0.010 0.902 0.012 1.355 0.001 0.479 0.004 0.957 0.008 1.436-0.004 0.45 0.012 0.9 0.016 1.349 0.003 0.477 0.005 0.955 0.010 1.432-0.001 0.451 0.011 0.904 0.014 1.355 0.001 0.462 0.005 0.926 0.007 1.388 0.003 0.008-0.66-0.003-1.321 0.010-1.98-0.462 0.012-0.924 0.016-1.387 0.025-0.475 0-0.95-0.001-1.425 0.001-0.451-0.021-0.904-0.025-1.355-0.004-0.48 0.005-0.96 0-1.44 0.005-0.45-0.019-0.9-0.029-1.349-0.007-0.477 0.007-0.955 0.003-1.432 0.005-0.45-0.015-0.9-0.018-1.348-0.003-0.455 0.001-0.911-0.001-1.366 0.005M10.718 17.857c-0.003 0.561-0.001 1.123 0.003 1.684 0.23-0.004 0.461 0.001 0.69 0.033 0.018 0.085 0.055 0.254 0.073 0.337 1.565 0 3.131 0.005 4.697-0.003 0.016-0.091 0.051-0.273 0.069-0.363 0.229-0.001 0.458-0.001 0.688-0.003 0.008-0.562 0.008-1.123 0.004-1.685-2.075-0.001-4.15-0.004-6.224 0z"></path>
<path fill="#3a3735" opacity="0.87" d="M3.861 16.398c-0.047-0.347 0.137-0.686 0.461-0.826-0.093 0.306-0.247 0.59-0.461 0.826z"></path>
<path fill="#d9261c" d="M9.696 15.733c0.448-0.015 0.898-0.012 1.348 0.003-0.446 0.656-0.905 1.303-1.359 1.952-0.473 0.007-0.948 0.003-1.421 0.025l0.064-0.080c0.492-0.606 0.901-1.274 1.367-1.899z"></path>
<path fill="#d9261c" d="M12.476 15.73c0.45-0.022 0.9-0.012 1.349 0.007-0.446 0.656-0.901 1.307-1.363 1.952-0.453 0.011-0.904 0.008-1.355-0.001 0.458-0.65 0.909-1.306 1.369-1.957z"></path>
<path fill="#d9261c" d="M15.265 15.732c0.451-0.021 0.904-0.016 1.355 0.004-0.461 0.647-0.908 1.306-1.373 1.952-0.45 0.014-0.9 0.010-1.349-0.003 0.45-0.656 0.902-1.308 1.367-1.953z"></path>
<path fill="#d9261c" d="M18.045 15.734c0.462-0.008 0.924-0.012 1.387-0.025-0.483 0.647-0.928 1.321-1.397 1.978-0.451 0.012-0.904 0.010-1.355-0.001 0.451-0.653 0.902-1.307 1.366-1.952z"></path>
<path fill="#34312f" opacity="0.83" d="M2.872 18.089c0.137-0.605 0.453-1.17 0.909-1.594-0.24 0.565-0.55 1.097-0.909 1.594z"></path>
<path fill="#35312f" opacity="0.85" d="M2.349 19.013c-0.026-0.348 0.13-0.697 0.469-0.828-0.093 0.309-0.256 0.587-0.469 0.828z"></path>
<path fill="#393533" opacity="0.87" d="M1.806 19.971c-0.053-0.35 0.137-0.69 0.459-0.832-0.093 0.307-0.252 0.588-0.459 0.832z"></path>
<path fill="#3f3b39" opacity="0.89" d="M25.306 19.413c0.324 0.139 0.505 0.477 0.459 0.824-0.214-0.237-0.369-0.52-0.459-0.824z"></path>
<path fill="#332f2d" opacity="0.8" d="M0.081 22.933c0.174-0.71 0.579-1.387 1.092-1.91-0.303 0.669-0.667 1.312-1.092 1.91z"></path>
<path fill="#221d1a" opacity="0.98" d="M26.792 21.989c0.298 0.243 0.492 0.575 0.636 0.924v0.54c-0.191 0.132-0.32 0.329-0.395 0.546h-26.39l-0.154-0.173c8.704 0.074 17.414 0.030 26.12 0.022 1-0.166 0.583-1.308 0.182-1.86z"></path>
</svg>
