<!-- Generated by IcoMoon.io -->
<svg version="1.1" xmlns="http://www.w3.org/2000/svg" width="27" height="24" viewBox="0 0 27 24">
<title>warning--divided-highway--g5</title>
<path fill="#d02c2e" d="M13.238 0h0.631c0.61 0.156 1.128 0.567 1.402 1.136 3.931 6.896 7.982 13.729 11.848 20.659v0.823c-0.22 0.668-0.753 1.204-1.439 1.382h-24.22c-0.717-0.179-1.254-0.755-1.46-1.454v-0.686c0.107-0.258 0.225-0.51 0.362-0.753 3.867-6.711 7.733-13.421 11.601-20.132 0.258-0.499 0.754-0.807 1.275-0.976M2.86 21.601c7.142 0.005 14.285 0.005 21.426 0-3.565-6.199-7.132-12.397-10.717-18.586-3.578 6.19-7.159 12.38-10.709 18.586z"></path>
<path fill="#fff" d="M2.86 21.601c3.55-6.206 7.131-12.396 10.709-18.586 3.585 6.188 7.153 12.386 10.717 18.586-7.142 0.005-14.285 0.005-21.426 0M10.563 9.496c0.007 1.49-0.018 2.98 0.018 4.471-0.080 1.201 0.837 2.114 1.327 3.131 0.833 1.093 0.395 2.527 0.527 3.793 0.729 0.005 1.459 0.005 2.188 0 0.031-1.014 0-2.035 0.1-3.044 0.519-1.079 1.275-2.045 1.717-3.161 0.104-1.725 0.038-3.459 0.064-5.188-0.655-0.009-1.31-0.007-1.965-0.003-0.012 1.493 0.008 2.987-0.022 4.479-0.004 0.659-0.494 1.143-0.804 1.679-0.207 0.033-0.465 0.019-0.534-0.225-0.225-0.477-0.701-0.885-0.639-1.455 0.003-1.492 0.003-2.983 0-4.475-0.659-0.009-1.319-0.008-1.978-0.001z"></path>
<path fill="#030303" d="M10.563 9.496c0.659-0.007 1.319-0.008 1.978 0.001 0.003 1.492 0.003 2.983 0 4.475-0.062 0.569 0.414 0.978 0.639 1.455 0.069 0.244 0.327 0.258 0.534 0.225 0.311-0.536 0.8-1.020 0.804-1.679 0.030-1.492 0.009-2.986 0.022-4.479 0.655-0.004 1.31-0.007 1.965 0.003-0.026 1.729 0.041 3.463-0.064 5.188-0.442 1.116-1.197 2.081-1.717 3.161-0.1 1.009-0.069 2.030-0.1 3.044-0.729 0.005-1.459 0.005-2.188 0-0.133-1.265 0.305-2.7-0.527-3.793-0.491-1.017-1.407-1.929-1.327-3.131-0.035-1.49-0.011-2.98-0.018-4.471z"></path>
</svg>
