<!-- Generated by IcoMoon.io -->
<svg version="1.1" xmlns="http://www.w3.org/2000/svg" width="24" height="24" viewBox="0 0 24 24">
<title>warning--triple-reverse-curve-right--g1</title>
<path fill="#ef7c23" d="M11.717 0h0.522c0.258 0.128 0.505 0.283 0.712 0.486 3.278 3.283 6.56 6.563 9.841 9.842 0.431 0.437 0.916 0.84 1.208 1.39v0.527c-0.253 0.553-0.738 0.937-1.154 1.361-3.061 3.059-6.121 6.12-9.18 9.18-0.438 0.43-0.838 0.918-1.386 1.214h-0.533c-0.252-0.132-0.49-0.292-0.691-0.492-3.256-3.265-6.522-6.521-9.781-9.784-0.446-0.46-0.962-0.871-1.274-1.444v-0.534c0.27-0.574 0.776-0.973 1.208-1.418 3.262-3.259 6.523-6.518 9.781-9.781 0.217-0.212 0.464-0.394 0.727-0.547M11.672 0.389c-0.347 0.202-0.6 0.523-0.886 0.798-3.4 3.403-6.809 6.796-10.201 10.204-0.358 0.317-0.359 0.904 0.008 1.213 3.6 3.601 7.201 7.202 10.801 10.804 0.311 0.367 0.898 0.366 1.211 0.002 3.599-3.602 7.199-7.205 10.8-10.805 0.368-0.311 0.367-0.898 0.008-1.214-3.553-3.569-7.124-7.121-10.68-10.688-0.262-0.284-0.682-0.526-1.062-0.313z"></path>
<path fill="#ef7c23" d="M10.958 1.717c0.336-0.323 0.628-0.707 1.042-0.937 0.264 0.145 0.476 0.362 0.685 0.575 3.508 3.564 7.118 7.033 10.574 10.644-3.578 3.692-7.268 7.279-10.882 10.938-0.172 0.24-0.505 0.337-0.695 0.059-3.572-3.586-7.163-7.157-10.733-10.745-0.256-0.19-0.082-0.475 0.104-0.635 3.304-3.296 6.601-6.6 9.904-9.899M10.247 8.791c0.383-0.019 0.762-0.074 1.138-0.152 0.040 0.557-0.044 1.141 0.136 1.679 0.413 0.695 1.327 0.808 1.836 1.409 0.443 0.458 0.535 1.186 0.23 1.744-0.443 0.984-1.78 1.122-2.182 2.131-0.164 0.67-0.048 1.37-0.078 2.052 0.373 0.002 0.748 0.002 1.122 0.002 0.012-0.652-0.151-1.445 0.378-1.946 0.648-0.59 1.418-1.088 1.866-1.865 0.401-0.868 0.376-1.976-0.244-2.738-0.476-0.641-1.219-0.978-1.921-1.309-0.005-0.395-0.004-0.79-0.002-1.184 0.352 0.030 0.852 0.324 1.114 0-0.452-1.057-1.076-2.044-1.685-3.020-0.656 1.008-1.366 2.039-1.708 3.199M15.923 5.593c-0.613 1.028-1.337 2.035-1.687 3.188 0.385-0.010 0.768-0.058 1.145-0.142 0.050 0.574-0.060 1.187 0.166 1.73 0.466 0.684 1.416 0.791 1.897 1.465 0.402 0.484 0.412 1.204 0.090 1.732-0.476 0.889-1.69 1.046-2.11 1.979-0.199 0.683-0.067 1.409-0.097 2.11 0.373 0 0.746 0 1.12 0 0.008-0.67-0.151-1.492 0.42-1.988 0.655-0.578 1.42-1.085 1.85-1.867 0.348-0.818 0.353-1.83-0.179-2.573-0.47-0.701-1.247-1.092-2.002-1.411-0.014-0.402-0.016-0.805-0.012-1.208 0.355 0.031 0.836 0.329 1.12 0.012-0.473-1.056-1.058-2.075-1.721-3.026M7.939 5.719c-0.617 0.97-1.238 1.961-1.673 3.024 0.194 0.383 0.768 0.038 1.12 0.020 0.041 0.568-0.053 1.168 0.148 1.71 0.44 0.706 1.397 0.806 1.888 1.466 0.433 0.49 0.443 1.241 0.103 1.783-0.496 0.905-1.784 1.051-2.135 2.063-0.133 0.655-0.040 1.333-0.061 1.998 0.373 0 0.746 0 1.12-0.001 0.011-0.66-0.149-1.469 0.407-1.966 0.65-0.581 1.416-1.082 1.852-1.861 0.367-0.833 0.365-1.876-0.192-2.628-0.472-0.685-1.243-1.054-1.979-1.385-0.011-0.398-0.011-0.797-0.010-1.195 0.372 0.092 0.752 0.143 1.135 0.15-0.386-1.144-1.087-2.159-1.722-3.179z"></path>
<path fill="#000" d="M11.672 0.389c0.38-0.212 0.8 0.029 1.062 0.313 3.556 3.568 7.127 7.12 10.68 10.688 0.359 0.317 0.36 0.904-0.008 1.214-3.601 3.6-7.201 7.202-10.8 10.805-0.313 0.364-0.9 0.365-1.211-0.002-3.6-3.601-7.201-7.202-10.801-10.804-0.367-0.31-0.366-0.896-0.008-1.213 3.392-3.408 6.802-6.8 10.201-10.204 0.286-0.275 0.539-0.596 0.886-0.798M10.958 1.717c-3.302 3.299-6.6 6.602-9.904 9.899-0.186 0.16-0.36 0.445-0.104 0.635 3.57 3.588 7.16 7.159 10.733 10.745 0.19 0.278 0.523 0.181 0.695-0.059 3.613-3.659 7.303-7.246 10.882-10.938-3.456-3.611-7.067-7.080-10.574-10.644-0.209-0.212-0.421-0.43-0.685-0.575-0.414 0.23-0.706 0.614-1.042 0.937z"></path>
<path fill="#000" d="M10.247 8.791c0.342-1.16 1.051-2.191 1.708-3.199 0.608 0.977 1.232 1.963 1.685 3.020-0.262 0.324-0.762 0.030-1.114 0-0.001 0.395-0.002 0.79 0.002 1.184 0.702 0.331 1.445 0.668 1.921 1.309 0.619 0.762 0.644 1.871 0.244 2.738-0.448 0.776-1.218 1.274-1.866 1.865-0.529 0.502-0.366 1.295-0.378 1.946-0.374 0-0.749 0-1.122-0.002 0.030-0.682-0.086-1.382 0.078-2.052 0.402-1.009 1.739-1.147 2.182-2.131 0.305-0.558 0.212-1.285-0.23-1.744-0.509-0.601-1.423-0.714-1.836-1.409-0.18-0.538-0.096-1.122-0.136-1.679-0.376 0.078-0.755 0.133-1.138 0.152z"></path>
<path fill="#000" d="M15.923 5.593c0.662 0.952 1.248 1.97 1.721 3.026-0.283 0.317-0.764 0.019-1.12-0.012-0.004 0.403-0.002 0.806 0.012 1.208 0.755 0.319 1.531 0.71 2.002 1.411 0.532 0.743 0.527 1.754 0.179 2.573-0.431 0.782-1.195 1.289-1.85 1.867-0.571 0.497-0.412 1.319-0.42 1.988-0.373 0-0.746 0-1.12 0 0.030-0.701-0.102-1.427 0.097-2.11 0.42-0.932 1.633-1.090 2.11-1.979 0.322-0.528 0.312-1.248-0.090-1.732-0.481-0.674-1.432-0.781-1.897-1.465-0.226-0.544-0.115-1.157-0.166-1.73-0.377 0.084-0.76 0.132-1.145 0.142 0.35-1.153 1.074-2.16 1.687-3.188z"></path>
<path fill="#000" d="M7.939 5.719c0.635 1.020 1.336 2.035 1.722 3.179-0.383-0.007-0.763-0.058-1.135-0.15-0.001 0.398-0.001 0.797 0.010 1.195 0.736 0.331 1.507 0.7 1.979 1.385 0.557 0.752 0.559 1.795 0.192 2.628-0.436 0.779-1.201 1.28-1.852 1.861-0.556 0.497-0.396 1.306-0.407 1.966-0.373 0.001-0.746 0.001-1.12 0.001 0.022-0.665-0.072-1.343 0.061-1.998 0.35-1.012 1.639-1.158 2.135-2.063 0.34-0.542 0.33-1.294-0.103-1.783-0.491-0.66-1.447-0.761-1.888-1.466-0.2-0.542-0.107-1.142-0.148-1.71-0.352 0.018-0.925 0.362-1.12-0.020 0.434-1.063 1.056-2.054 1.673-3.024z"></path>
</svg>
