<svg xmlns="http://www.w3.org/2000/svg" width="24" height="24">
    <path fill="#ea1c05" d="M11.554 1.714h.602c.405.322.743.722 1.018 1.159 3.147 5.743 6.564 11.333 9.764 17.046.262.528.634 1.047.657 1.654-.068.627-.845.529-1.295.66a13.164 13.164 0 0 0-1.444-.098c-5.344.015-10.689.013-16.031.006-1.148.009-2.301-.065-3.441.101-.519-.089-1.179-.108-1.383-.699v-.106c.37-.795.806-1.555 1.237-2.317 3.08-5.366 6.184-10.717 9.344-16.035.269-.492.557-.985.973-1.369zM9.642 8.405c-2.289 3.999-4.619 7.975-6.936 11.957 3.187 0 6.375.027 9.562-.015l-.141-.171.165.197c2.904-.028 5.808.009 8.712-.02-3.051-5.262-6.122-10.511-9.114-15.803a49.82 49.82 0 0 0-2.248 3.855z"/>
    <path fill="#fff" d="M9.642 8.405A50.144 50.144 0 0 1 11.89 4.55c2.992 5.292 6.063 10.541 9.114 15.803-2.904.028-5.808-.009-8.712.02-.041-.05-.123-.149-.165-.197-.624-.559-.834-1.323-.83-2.137.669-.895-.279-1.857.097-2.796.212-.771.448-1.581 1.035-2.157-.179-.243-.357-.483-.532-.729l-.091.537c-.99.006-1.981.028-2.969-.017-.16-1.555.262-3.036.804-4.473zm3.288 4.132l.18.021c.024.431.355.827.777.489.321.241.697.405 1.009.661.078.208.173.41.271.611.206-.028.413-.051.62-.06.093-.208.165-.426.216-.65a36.817 36.817 0 0 1-.312-.266c-.129-1.191-1.938-1.622-2.761-.808z"/>
    <path fill="#fff" d="M13.88 12.332c.682-.214 1.312.356 1.763.797-.667.022-1.178-.543-1.763-.797z"/>
    <path fill="#050505" d="M2.705 20.362c2.317-3.982 4.647-7.958 6.936-11.957-.542 1.437-.965 2.919-.804 4.473.989.045 1.979.022 2.969.017l.091-.537c.175.245.353.487.532.729-.587.576-.825 1.386-1.035 2.157-.376.939.573 1.901-.097 2.796-.004.814.206 1.578.83 2.137l.141.171c-3.188.041-6.375.015-9.562.015z"/>
    <path fill="#060606" d="M12.93 12.537c.823-.813 2.631-.381 2.761.808l.312.266a3.491 3.491 0 0 1-.216.65 13.379 13.379 0 0 1-.292-.556l-.598.004c-.312-.257-.688-.42-1.009-.661a11.082 11.082 0 0 1-.251-.434 46.9 46.9 0 0 0-.526-.056l-.18-.021zm.95-.205c.586.254 1.096.82 1.763.797-.451-.441-1.081-1.011-1.763-.797z"/>
    <path fill="#b0b0b1" d="M13.11 12.557c.132.013.394.041.526.056.081.146.165.291.251.434-.423.338-.753-.058-.777-.489z"/>
    <path fill="#bababa" d="M14.896 13.708l.598-.004c.093.187.19.373.292.556a6.47 6.47 0 0 0-.62.06 7.055 7.055 0 0 1-.271-.611z"/>
    <path fill="#dd3d38" opacity=".94" d="M1.383 22.242c1.139-.166 2.293-.093 3.441-.101 5.343.007 10.687.01 16.031-.006.483-.002.965.045 1.444.098l-.237.052H1.612l-.23-.044z"/>
</svg>
