<?xml version="1.0" encoding="utf-8"?>
<!-- Generated by IcoMoon.io -->
<!DOCTYPE svg PUBLIC "-//W3C//DTD SVG 1.1//EN" "http://www.w3.org/Graphics/SVG/1.1/DTD/svg11.dtd">
<svg version="1.1" xmlns="http://www.w3.org/2000/svg" xmlns:xlink="http://www.w3.org/1999/xlink" width="24" height="24" viewBox="0 0 24 24">
<path fill="#f9e93f" d="M11.617 1.341h0.898c0.282 0.198 0.602 0.381 0.727 0.723 0.127 0.225 0.27 0.44 0.397 0.665 0.133 0.294 0.307 0.563 0.479 0.834 0.169 0.365 0.385 0.704 0.602 1.040 0.030 0.071 0.088 0.212 0.117 0.282 0.146 0.284 0.319 0.552 0.488 0.823 0.153 0.327 0.341 0.636 0.54 0.937 0.204 0.459 0.459 0.889 0.724 1.314 0.133 0.224 0.275 0.441 0.405 0.666 0.18 0.426 0.422 0.821 0.676 1.205 0.030 0.070 0.087 0.21 0.115 0.282 0.141 0.219 0.287 0.434 0.422 0.657 0.028 0.070 0.086 0.212 0.114 0.283 0.119 0.185 0.245 0.366 0.362 0.554 0.062 0.126 0.123 0.252 0.186 0.378 0.031 0.067 0.094 0.204 0.125 0.271 0.178 0.268 0.355 0.539 0.487 0.833 0.146 0.261 0.312 0.511 0.468 0.767 0.030 0.070 0.087 0.21 0.117 0.28 0.141 0.217 0.286 0.433 0.416 0.658 0.176 0.428 0.429 0.817 0.666 1.212 0.111 0.192 0.236 0.374 0.351 0.563 0.059 0.126 0.118 0.252 0.177 0.379 0.117 0.188 0.243 0.37 0.361 0.558 0.059 0.127 0.118 0.255 0.177 0.382 0.138 0.22 0.284 0.437 0.418 0.661 0.028 0.070 0.086 0.209 0.114 0.279 0.119 0.186 0.245 0.367 0.363 0.555 0.059 0.126 0.118 0.253 0.176 0.381 0.117 0.188 0.243 0.37 0.358 0.558 0.062 0.126 0.125 0.251 0.188 0.377 0.043 0.080 0.127 0.241 0.17 0.322v0.767c-0.147 0.272-0.355 0.501-0.573 0.719-0.086 0.039-0.255 0.115-0.339 0.154h-22.329c-0.146-0.109-0.291-0.217-0.44-0.32-0.103-0.153-0.213-0.303-0.319-0.453v-0.963l0.097-0.016c0.032-0.079 0.097-0.239 0.129-0.319 0.034-0.067 0.099-0.2 0.133-0.267 0.174-0.268 0.35-0.536 0.485-0.827 0.21-0.456 0.516-0.859 0.725-1.317 0.134-0.223 0.279-0.44 0.413-0.664 0.030-0.068 0.087-0.208 0.115-0.278 0.118-0.186 0.244-0.367 0.361-0.554 0.105-0.217 0.209-0.434 0.312-0.652 0.117-0.188 0.243-0.37 0.359-0.558 0.059-0.127 0.118-0.253 0.178-0.379 0.176-0.268 0.351-0.539 0.484-0.833 0.204-0.345 0.425-0.68 0.594-1.044 0.133-0.223 0.275-0.44 0.404-0.665 0.168-0.275 0.343-0.546 0.477-0.839 0.126-0.227 0.271-0.444 0.409-0.664 0.059-0.127 0.119-0.253 0.178-0.381 0.115-0.186 0.24-0.369 0.354-0.556 0.15-0.33 0.339-0.64 0.542-0.939 0.086-0.182 0.172-0.363 0.253-0.546 0.133-0.224 0.278-0.44 0.418-0.658 0.030-0.071 0.087-0.212 0.115-0.282 0.134-0.224 0.28-0.44 0.418-0.661 0.059-0.126 0.119-0.253 0.178-0.379 0.115-0.188 0.239-0.371 0.351-0.562 0.126-0.228 0.271-0.446 0.408-0.668 0.060-0.127 0.121-0.253 0.181-0.379 0.137-0.221 0.282-0.438 0.408-0.666 0.111-0.192 0.235-0.375 0.35-0.563 0.060-0.127 0.121-0.253 0.181-0.379 0.114-0.189 0.239-0.371 0.35-0.562 0.127-0.228 0.268-0.446 0.397-0.673 0.166-0.383 0.481-0.677 0.858-0.853M11.988 1.681c-0.692 0.154-0.861 0.943-1.224 1.449-3.387 5.898-6.803 11.779-10.174 17.684-0.314 0.618 0.154 1.494 0.881 1.437 6.969 0.008 13.94-0.009 20.91-0.003 0.335-0.001 0.717 0.027 0.981-0.221 0.44-0.343 0.465-1.004 0.138-1.435-3.537-6.090-6.917-12.27-10.408-18.385-0.197-0.406-0.664-0.629-1.103-0.527z"></path>
<path fill="#f9e93f" d="M2.889 20.43c3.099-5.374 6.193-10.752 9.301-16.12 3.062 5.364 6.058 10.766 9.123 16.13-4.47 0.055-8.942-0.039-13.412 0.013-1.671-0.008-3.341 0.039-5.012-0.023M10.473 10.657c0.56 0.339 1.224 0.449 1.781 0.798-1.329 0.507-2.668 0.988-3.985 1.524-0.766 0.306-0.929 1.457-0.3 1.98 1.778 1.621 3.558 3.239 5.343 4.854 0.369-0.441 0.739-0.881 1.113-1.317-1.55-1.447-3.148-2.841-4.712-4.274 1.015-0.41 2.046-0.778 3.072-1.153-0.255 0.627-0.563 1.234-0.804 1.868 0.692-0.255 1.382-0.514 2.077-0.763 0.503-0.94 0.941-1.911 1.443-2.85-0.953-0.514-1.931-0.984-2.892-1.483-0.712 0.272-1.415 0.569-2.135 0.817z"></path>
<path fill="#2c3027" d="M11.988 1.681c0.44-0.102 0.906 0.121 1.103 0.527 3.491 6.115 6.871 12.295 10.408 18.385 0.327 0.43 0.302 1.091-0.138 1.435-0.264 0.248-0.646 0.22-0.981 0.221-6.969-0.007-13.94 0.011-20.91 0.003-0.727 0.056-1.195-0.819-0.881-1.437 3.371-5.905 6.787-11.785 10.174-17.684 0.363-0.507 0.532-1.295 1.224-1.449M2.889 20.43c1.671 0.062 3.341 0.015 5.012 0.023 4.47-0.052 8.942 0.042 13.412-0.013-3.065-5.363-6.060-10.765-9.123-16.13-3.108 5.369-6.202 10.746-9.301 16.12z"></path>
<path fill="#2c3027" d="M10.473 10.657c0.72-0.248 1.423-0.544 2.135-0.817 0.961 0.499 1.939 0.969 2.892 1.483-0.501 0.94-0.94 1.911-1.443 2.85-0.695 0.249-1.385 0.508-2.077 0.763 0.241-0.634 0.55-1.24 0.804-1.868-1.026 0.375-2.057 0.743-3.072 1.153 1.563 1.433 3.162 2.828 4.712 4.274-0.374 0.436-0.744 0.876-1.113 1.317-1.785-1.614-3.565-3.233-5.343-4.854-0.629-0.523-0.465-1.675 0.3-1.98 1.317-0.536 2.656-1.018 3.985-1.524-0.556-0.349-1.22-0.459-1.781-0.798z"></path>
</svg>
