<?xml version="1.0" encoding="utf-8"?>
<!-- Generated by IcoMoon.io -->
<!DOCTYPE svg PUBLIC "-//W3C//DTD SVG 1.1//EN" "http://www.w3.org/Graphics/SVG/1.1/DTD/svg11.dtd">
<svg version="1.1" xmlns="http://www.w3.org/2000/svg" xmlns:xlink="http://www.w3.org/1999/xlink" width="24" height="24" viewBox="0 0 24 24">
<path fill="#fee011" d="M11.696 0.307c0.463-0.158 0.96 0.054 1.273 0.403 3.5 3.499 7.008 6.992 10.506 10.494 0.485 0.444 0.506 1.277 0.017 1.726-3.565 3.558-7.124 7.122-10.696 10.673-0.419 0.407-1.16 0.395-1.56-0.032-3.563-3.562-7.129-7.121-10.687-10.687-0.474-0.456-0.41-1.276 0.078-1.698 3.396-3.402 6.8-6.797 10.196-10.199 0.265-0.254 0.51-0.565 0.872-0.679M11.695 0.566c-0.176 0.082-0.332 0.204-0.475 0.337-3.462 3.458-6.918 6.923-10.379 10.382-0.25 0.246-0.454 0.592-0.371 0.955 0.076 0.386 0.409 0.634 0.667 0.902 3.244 3.235 6.476 6.481 9.715 9.72 0.334 0.318 0.641 0.755 1.141 0.792 0.298 0.043 0.568-0.122 0.77-0.323 3.497-3.508 6.997-7.010 10.496-10.516 0.182-0.19 0.359-0.416 0.367-0.692 0.030-0.35-0.202-0.644-0.434-0.878-3.464-3.454-6.914-6.922-10.378-10.378-0.281-0.296-0.724-0.491-1.121-0.302z"></path>
<path fill="#fee011" d="M11.813 1.046c0.229-0.134 0.494-0.016 0.658 0.163 3.467 3.454 6.924 6.918 10.387 10.376 0.136 0.152 0.302 0.316 0.307 0.535-0.026 0.181-0.167 0.313-0.283 0.442-3.504 3.497-7.001 7.003-10.504 10.502-0.214 0.264-0.601 0.132-0.785-0.097-3.494-3.51-7.007-7.006-10.495-10.523-0.293-0.234-0.145-0.605 0.098-0.808 3.433-3.449 6.875-6.889 10.308-10.338 0.097-0.091 0.192-0.187 0.308-0.253M13.709 5.55c-0.686 0.461-0.629 1.752 0.238 1.966-0.341 0.41-0.905 0.583-1.148 1.076-0.606 1.003-1.063 2.095-1.34 3.233-0.371 0.281-0.784 0.502-1.153 0.786-0.496-0.402-0.892-0.911-1.406-1.291 0.143-0.080 0.406-0.062 0.416-0.276 0.089-0.392 0.083-0.803 0.047-1.201-0.371-0.418-1.136-0.364-1.415 0.133-0.293 0.436-0.115 1.055 0.361 1.274-1.013 0.665-1.244 1.956-1.877 2.914-0.023 0.28 0.362 0.26 0.486 0.086 0.439-0.503 0.61-1.171 1.006-1.704-0.103 0.613-0.221 1.236-0.512 1.792 0.035 0.074 0.107 0.224 0.142 0.299-0.124 0.252-0.448 0.352-0.593 0.604-0.169 0.305-0.535 0.347-0.833 0.455 0.005 0.134 0.008 0.268 0.012 0.403 0.298 0.266 0.476 0.761 0.942 0.75 0.224-0.101 0.026-0.335-0.054-0.461-0.029-0.102-0.086-0.306-0.115-0.408 0.517-0.278 0.967-0.653 1.396-1.050 0.085-0.161 0.168-0.324 0.25-0.486 0.194 0.176 0.4 0.349 0.662 0.41 0.046 0.084 0.092 0.169 0.139 0.256-0.13 0.355-0.13 0.736-0.079 1.108-0.082 0.218-0.097 0.446-0.036 0.672 0.461-0.022 0.976 0.2 1.39-0.082-0.157-0.322-0.653-0.282-0.842-0.599 0.036-0.415 0.167-0.815 0.203-1.23-0.074-0.274-0.265-0.508-0.283-0.799-0.157-0.251-0.332-0.49-0.503-0.731 0.037-0.314 0.065-0.63 0.082-0.946 0.298 0.216 0.581 0.458 0.911 0.628 0.521-0.036 0.811-0.634 1.331-0.694 0.187-0.041 0.448-0.054 0.48-0.295 0.308-0.942 0.692-1.897 1.408-2.61 0.002 1.12-0.242 2.276-0.901 3.202 0.3 0.13 0.598 0.266 0.895 0.401 0.050 0.172 0.098 0.344 0.145 0.517-0.366 0.325-0.592 0.757-0.736 1.219-0.144 0.516-0.737 0.641-1.007 1.069 0.191 0.136 0.383 0.272 0.602 0.36 0.199 0.3 0.5 0.638 0.905 0.518 0.166-0.196-0.149-0.346-0.222-0.51-0.067-0.174-0.132-0.349-0.192-0.526 0.288-0.421 0.726-0.712 1-1.144 0.284-0.458 0.85-0.85 0.605-1.459 0.054-0.024 0.161-0.072 0.215-0.095 0.186 0.245 0.403 0.463 0.647 0.653-0.214 0.64-0.283 1.303-0.222 1.973-0.211 0.4-0.328 0.82-0.254 1.274 0.316 0.014 0.582-0.287 0.893-0.127 0.3 0.097 0.809 0.25 0.905-0.18-0.152-0.073-0.316-0.12-0.476-0.168-0.199-0.104-0.396-0.215-0.587-0.332 0.166-0.838 0.469-1.646 0.569-2.498 0.023-0.371-0.248-0.664-0.418-0.967 0.161-0.076 0.323-0.151 0.486-0.227-0.382-1.001-0.655-2.040-0.836-3.096 0.388 0.361 0.724 0.781 1.148 1.1 0.608 0.041 1.177-0.264 1.783-0.253 0.173-0.011 0.4 0.055 0.474-0.157 0.181-0.154-0.078-0.39-0.242-0.397-0.559 0.002-1.12 0.086-1.678 0.014-0.144-0.030-0.331 0.006-0.415-0.144-0.5-0.654-0.958-1.374-1.658-1.836 0.143-0.102 0.311-0.15 0.48-0.187 0.086-0.205 0.16-0.414 0.234-0.623-0.146-0.282-0.055-0.594-0.053-0.896-0.319-0.636-1.217-0.928-1.796-0.46z"></path>
<path fill="#000" d="M11.695 0.566c0.397-0.188 0.84 0.006 1.121 0.302 3.463 3.456 6.913 6.924 10.378 10.378 0.233 0.234 0.464 0.528 0.434 0.878-0.008 0.276-0.185 0.503-0.367 0.692-3.499 3.505-7 7.008-10.496 10.516-0.203 0.2-0.473 0.366-0.77 0.323-0.5-0.037-0.808-0.474-1.141-0.792-3.239-3.239-6.472-6.485-9.715-9.72-0.258-0.269-0.592-0.516-0.667-0.902-0.083-0.364 0.121-0.709 0.371-0.955 3.461-3.46 6.917-6.924 10.379-10.382 0.143-0.133 0.299-0.256 0.475-0.337M11.813 1.046c-0.116 0.066-0.211 0.162-0.308 0.253-3.433 3.449-6.875 6.889-10.308 10.338-0.244 0.203-0.391 0.574-0.098 0.808 3.488 3.517 7.001 7.013 10.495 10.523 0.184 0.229 0.571 0.361 0.785 0.097 3.503-3.499 7-7.006 10.504-10.502 0.116-0.128 0.257-0.26 0.283-0.442-0.005-0.22-0.172-0.383-0.307-0.535-3.463-3.458-6.92-6.923-10.387-10.376-0.163-0.179-0.428-0.298-0.658-0.163z"></path>
<path fill="#000" d="M13.709 5.55c0.58-0.468 1.477-0.176 1.796 0.46-0.002 0.302-0.094 0.614 0.053 0.896-0.074 0.209-0.148 0.418-0.234 0.623-0.169 0.037-0.337 0.085-0.48 0.187 0.701 0.462 1.158 1.182 1.658 1.836 0.084 0.15 0.271 0.114 0.415 0.144 0.558 0.072 1.118-0.012 1.678-0.014 0.164 0.007 0.424 0.244 0.242 0.397-0.074 0.212-0.301 0.146-0.474 0.157-0.606-0.011-1.175 0.294-1.783 0.253-0.425-0.319-0.761-0.739-1.148-1.1 0.181 1.056 0.455 2.095 0.836 3.096-0.163 0.076-0.325 0.151-0.486 0.227 0.169 0.304 0.44 0.596 0.418 0.967-0.1 0.852-0.403 1.661-0.569 2.498 0.191 0.118 0.388 0.228 0.587 0.332 0.161 0.048 0.324 0.095 0.476 0.168-0.096 0.43-0.605 0.277-0.905 0.18-0.311-0.16-0.577 0.142-0.893 0.127-0.073-0.455 0.043-0.875 0.254-1.274-0.061-0.67 0.008-1.333 0.222-1.973-0.244-0.19-0.461-0.408-0.647-0.653-0.054 0.023-0.161 0.071-0.215 0.095 0.245 0.61-0.32 1.001-0.605 1.459-0.274 0.432-0.712 0.722-1 1.144 0.060 0.176 0.125 0.352 0.192 0.526 0.073 0.164 0.388 0.314 0.222 0.51-0.404 0.12-0.706-0.218-0.905-0.518-0.22-0.088-0.412-0.224-0.602-0.36 0.27-0.428 0.863-0.553 1.007-1.069 0.144-0.462 0.37-0.894 0.736-1.219-0.047-0.173-0.095-0.346-0.145-0.517-0.298-0.134-0.595-0.271-0.895-0.401 0.659-0.925 0.904-2.082 0.901-3.202-0.715 0.713-1.099 1.668-1.408 2.61-0.032 0.241-0.293 0.254-0.48 0.295-0.52 0.060-0.81 0.658-1.331 0.694-0.33-0.169-0.613-0.412-0.911-0.628-0.017 0.316-0.044 0.631-0.082 0.946 0.17 0.241 0.346 0.48 0.503 0.731 0.018 0.292 0.209 0.526 0.283 0.799-0.036 0.415-0.167 0.815-0.203 1.23 0.19 0.317 0.685 0.277 0.842 0.599-0.414 0.282-0.929 0.060-1.39 0.082-0.061-0.226-0.046-0.454 0.036-0.672-0.050-0.372-0.050-0.752 0.079-1.108-0.047-0.086-0.094-0.172-0.139-0.256-0.263-0.061-0.468-0.234-0.662-0.41-0.082 0.162-0.164 0.325-0.25 0.486-0.428 0.397-0.878 0.772-1.396 1.050 0.029 0.102 0.086 0.306 0.115 0.408 0.080 0.126 0.278 0.36 0.054 0.461-0.466 0.011-0.644-0.484-0.942-0.75-0.004-0.136-0.007-0.269-0.012-0.403 0.298-0.108 0.664-0.15 0.833-0.455 0.145-0.252 0.469-0.352 0.593-0.604-0.035-0.074-0.107-0.224-0.142-0.299 0.292-0.556 0.409-1.178 0.512-1.792-0.396 0.533-0.566 1.201-1.006 1.704-0.124 0.174-0.509 0.193-0.486-0.086 0.632-0.958 0.864-2.249 1.877-2.914-0.476-0.22-0.654-0.839-0.361-1.274 0.278-0.497 1.044-0.551 1.415-0.133 0.036 0.398 0.042 0.809-0.047 1.201-0.011 0.214-0.274 0.196-0.416 0.276 0.515 0.38 0.911 0.889 1.406 1.291 0.37-0.284 0.782-0.505 1.153-0.786 0.277-1.138 0.734-2.23 1.34-3.233 0.244-0.493 0.808-0.666 1.148-1.076-0.866-0.214-0.924-1.505-0.238-1.966z"></path>
</svg>
