<?xml version="1.0" encoding="utf-8"?>
<!-- Generated by IcoMoon.io -->
<!DOCTYPE svg PUBLIC "-//W3C//DTD SVG 1.1//EN" "http://www.w3.org/Graphics/SVG/1.1/DTD/svg11.dtd">
<svg version="1.1" xmlns="http://www.w3.org/2000/svg" xmlns:xlink="http://www.w3.org/1999/xlink" width="24" height="24" viewBox="0 0 24 24">
<path fill="#c0111e" d="M9.775 2.977c0.4-0.764 1.26-1.192 2.095-1.252 0.872-0.072 1.663 0.519 2.067 1.256 2.671 4.299 5.205 8.68 7.724 13.069 0.004 0.007 0.013 0.023 0.017 0.031 0.797 1.381 1.584 2.771 2.323 4.184v1.019c-0.16 0.639-0.615 1.141-1.139 1.516h-21.957c-0.343-0.252-0.643-0.56-0.904-0.896v-2.148c0.68-1.228 1.361-2.456 2.059-3.675 0.004-0.008 0.012-0.021 0.016-0.029 2.52-4.385 5.036-8.775 7.7-13.075M11.799 4.164c-3.249 5.521-6.515 11.033-9.751 16.563 6.545 0.003 13.092 0.004 19.637 0-3.237-5.528-6.501-11.041-9.752-16.563-0.033 0-0.1 0-0.135 0z"></path>
<path fill="#fff" d="M11.799 4.164c0.035 0 0.101 0 0.135 0 3.251 5.521 6.515 11.035 9.752 16.563-6.545 0.004-13.092 0.003-19.637 0 3.236-5.529 6.501-11.041 9.751-16.563M5.375 15.932c-0.039 1.392-0.016 2.785-0.012 4.179 0.533 0.019 1.257 0.168 1.589-0.376 0.337-0.605 0.389-1.331 0.368-2.011-0.071-0.605-0.131-1.323-0.668-1.713-0.413-0.123-0.852-0.075-1.277-0.079M12.195 16.668c-0.284 0.873-0.291 1.851-0.001 2.724 0.169 0.508 0.711 0.96 1.264 0.737 0.34-0.176 0.763-0.488 0.677-0.925-0.005-0.441 0.003-0.884-0.005-1.325-0.349-0.008-0.699-0.009-1.048 0.007-0.009 0.219-0.012 0.437-0.009 0.656 0.22 0.001 0.44 0.001 0.661 0.003 0 0.211 0 0.421 0 0.633-0.204 0.195-0.483 0.447-0.784 0.295-0.441-0.209-0.509-0.761-0.549-1.195-0.011-0.601-0.013-1.352 0.524-1.745 0.556-0.156 0.767 0.427 0.832 0.859 0.125-0.061 0.251-0.125 0.373-0.193-0.104-0.477-0.197-1.072-0.713-1.277-0.54-0.237-1.068 0.259-1.221 0.748M16.549 15.919c-0.071 1.401-0.015 2.812-0.028 4.217 0.099-0.003 0.297-0.009 0.397-0.012 0.024-0.593 0-1.187 0.013-1.78 0.184 0.017 0.451-0.035 0.556 0.161 0.276 0.516 0.412 1.092 0.637 1.631 0.119-0.001 0.357-0.003 0.476-0.004-0.2-0.637-0.384-1.295-0.723-1.875 0.651-0.431 0.637-1.407 0.299-2.033-0.377-0.496-1.097-0.216-1.628-0.305M7.333 20.121c0.105 0.004 0.315 0.012 0.42 0.016 0.116-0.401 0.16-0.819 0.268-1.223 0.276-0.004 0.553-0.001 0.829 0.011 0.083 0.397 0.167 0.795 0.248 1.192 0.113 0.005 0.339 0.016 0.451 0.021-0.257-1.404-0.641-2.783-0.908-4.184-0.103-0.009-0.308-0.027-0.411-0.036-0.321 1.395-0.604 2.8-0.897 4.203M9.827 15.928c0.001 1.403-0.008 2.805 0.004 4.208 0.092-0.001 0.275-0.005 0.367-0.007 0.073-0.931 0.027-1.872 0.021-2.805 0.391 0.865 0.672 1.777 1.012 2.665 0.039 0.228 0.301 0.131 0.455 0.117-0.017-1.392 0.041-2.789-0.028-4.177-0.093 0-0.279 0-0.372 0 0.004 0.92-0.020 1.839 0.015 2.757-0.181-0.197-0.229-0.471-0.328-0.711-0.237-0.675-0.519-1.335-0.728-2.020-0.104-0.007-0.313-0.021-0.417-0.028M14.447 20.107c0.584 0.060 1.175 0.011 1.761 0.027 0.031-0.224 0.028-0.451 0.013-0.676-0.453-0.005-0.907 0.011-1.36-0.012 0.012-0.391-0.004-0.781 0.015-1.172 0.408-0.001 0.819 0.023 1.225-0.017-0.003-0.208-0.007-0.416-0.013-0.624-0.407-0.023-0.813-0.005-1.22-0.020-0.001-0.336-0.001-0.673-0.001-1.011 0.432-0.015 0.863-0.004 1.295-0.008 0.001-0.221 0.001-0.443 0-0.663-0.564-0.005-1.128 0.001-1.692-0.005-0.053 1.392-0.009 2.788-0.023 4.181z"></path>
<path fill="#fff" d="M5.775 19.452c0.016-0.956-0.020-1.913 0.019-2.868 0.269 0.024 0.572-0.027 0.809 0.136 0.411 0.717 0.348 1.631 0.125 2.4-0.137 0.409-0.613 0.351-0.953 0.332z"></path>
<path fill="#fff" d="M16.931 16.565c0.299 0.028 0.649-0.088 0.907 0.113 0.184 0.265 0.187 0.633-0.003 0.897-0.253 0.207-0.605 0.087-0.903 0.116-0.005-0.376-0.005-0.752-0.001-1.127z"></path>
<path fill="#fff" d="M8.451 16.904c0.051 0.461 0.185 0.907 0.244 1.367-0.189 0.001-0.379 0.003-0.568 0.003 0.128-0.452 0.172-0.923 0.324-1.369z"></path>
<path fill="#221f20" d="M5.375 15.932c0.425 0.004 0.864-0.044 1.277 0.079 0.537 0.391 0.597 1.108 0.668 1.713 0.021 0.68-0.031 1.405-0.368 2.011-0.332 0.544-1.056 0.395-1.589 0.376-0.004-1.393-0.027-2.787 0.012-4.179M5.775 19.452c0.34 0.019 0.816 0.077 0.953-0.332 0.223-0.769 0.285-1.683-0.125-2.4-0.237-0.163-0.54-0.112-0.809-0.136-0.039 0.955-0.003 1.912-0.019 2.868z"></path>
<path fill="#221f20" d="M12.195 16.668c0.153-0.489 0.681-0.985 1.221-0.748 0.516 0.205 0.609 0.8 0.713 1.277-0.123 0.068-0.248 0.132-0.373 0.193-0.065-0.432-0.276-1.015-0.832-0.859-0.537 0.393-0.535 1.144-0.524 1.745 0.040 0.433 0.108 0.985 0.549 1.195 0.301 0.152 0.58-0.1 0.784-0.295 0-0.212 0-0.423 0-0.633-0.221-0.001-0.441-0.001-0.661-0.003-0.003-0.219 0-0.437 0.009-0.656 0.349-0.016 0.699-0.015 1.048-0.007 0.008 0.441 0 0.884 0.005 1.325 0.085 0.437-0.337 0.749-0.677 0.925-0.553 0.223-1.095-0.229-1.264-0.737-0.289-0.873-0.283-1.851 0.001-2.724z"></path>
<path fill="#221f20" d="M16.549 15.919c0.531 0.089 1.251-0.191 1.628 0.305 0.339 0.627 0.352 1.603-0.299 2.033 0.339 0.58 0.523 1.237 0.723 1.875-0.119 0.001-0.357 0.003-0.476 0.004-0.225-0.539-0.361-1.115-0.637-1.631-0.105-0.196-0.372-0.144-0.556-0.161-0.013 0.593 0.011 1.187-0.013 1.78-0.1 0.003-0.299 0.009-0.397 0.012 0.013-1.405-0.043-2.816 0.028-4.217M16.931 16.565c-0.004 0.375-0.004 0.751 0.001 1.127 0.297-0.029 0.649 0.091 0.903-0.116 0.189-0.264 0.187-0.632 0.003-0.897-0.257-0.201-0.608-0.085-0.907-0.113z"></path>
<path fill="#221f20" d="M2.059 16.081c0.004-0.008 0.012-0.021 0.016-0.029-0.004 0.008-0.012 0.021-0.016 0.029z"></path>
<path fill="#221f20" d="M7.333 20.121c0.293-1.403 0.576-2.808 0.897-4.203 0.103 0.009 0.308 0.027 0.411 0.036 0.267 1.401 0.651 2.78 0.908 4.184-0.112-0.005-0.337-0.016-0.451-0.021-0.081-0.397-0.165-0.795-0.248-1.192-0.276-0.012-0.553-0.015-0.829-0.011-0.108 0.404-0.152 0.821-0.268 1.223-0.105-0.004-0.315-0.012-0.42-0.016M8.451 16.904c-0.152 0.447-0.196 0.917-0.324 1.369 0.189 0 0.379-0.001 0.568-0.003-0.059-0.46-0.193-0.905-0.244-1.367z"></path>
<path fill="#221f20" d="M9.827 15.928c0.104 0.007 0.313 0.021 0.417 0.028 0.209 0.685 0.491 1.345 0.728 2.020 0.099 0.24 0.147 0.513 0.328 0.711-0.035-0.919-0.011-1.837-0.015-2.757 0.093 0 0.279 0 0.372 0 0.069 1.388 0.011 2.785 0.028 4.177-0.153 0.013-0.416 0.111-0.455-0.117-0.34-0.888-0.621-1.8-1.012-2.665 0.005 0.933 0.052 1.875-0.021 2.805-0.092 0.001-0.275 0.005-0.367 0.007-0.012-1.403-0.003-2.805-0.004-4.208z"></path>
<path fill="#221f20" d="M14.447 20.107c0.013-1.393-0.031-2.789 0.023-4.181 0.564 0.007 1.128 0 1.692 0.005 0.001 0.22 0.001 0.441 0 0.663-0.432 0.004-0.863-0.007-1.295 0.008 0 0.337 0 0.675 0.001 1.011 0.407 0.015 0.813-0.003 1.22 0.020 0.007 0.208 0.011 0.416 0.013 0.624-0.407 0.040-0.817 0.016-1.225 0.017-0.019 0.391-0.003 0.781-0.015 1.172 0.453 0.023 0.907 0.007 1.36 0.012 0.015 0.225 0.017 0.452-0.013 0.676-0.587-0.016-1.177 0.033-1.761-0.027z"></path>
<path fill="#221f20" d="M21.66 16.051c0.004 0.007 0.013 0.023 0.017 0.031-0.004-0.008-0.013-0.024-0.017-0.031z"></path>
</svg>
