<svg xmlns="http://www.w3.org/2000/svg" width="24" height="24">
    <path fill="gold" d="M10.867.546c.706-.731 1.962-.596 2.629.119 3.316 3.324 6.619 6.661 9.934 9.985.215.22.409.46.57.721v1.68c-.682.805-1.478 1.501-2.212 2.258-2.939 2.888-5.813 5.846-8.794 8.69h-1.663c-.47-.247-.809-.665-1.18-1.031L.631 13.4c-.706-.678-.804-1.937-.06-2.624C3.999 7.363 7.429 3.949 10.866.545zm.928-.022c-.384.065-.69.328-.954.596-3.29 3.27-6.58 6.54-9.865 9.814-.646.578-.616 1.663-.001 2.251 3.33 3.352 6.661 6.702 9.99 10.054.575.611 1.654.683 2.243.054 3.366-3.358 6.745-6.702 10.111-10.058.622-.606.51-1.68-.108-2.248-3.286-3.313-6.58-6.62-9.874-9.926-.384-.421-.976-.648-1.542-.536z"/>
    <path fill="gold" d="M11.79 1.349c.414-.208.845.078 1.121.378 3.246 3.277 6.509 6.538 9.748 9.821.34.301.415.883.049 1.194-3.354 3.328-6.7 6.665-10.052 9.994-.304.328-.846.264-1.134-.05-3.316-3.328-6.622-6.666-9.938-9.992-.378-.324-.408-.952.002-1.264C4.994 8.078 8.329 4.639 11.791 1.35zm1.381 4.032c.011.275-.002.551.01.827l-.31.089.002.607.336.047c.02.457-.058.931.06 1.379.15.431.666.499 1.039.338.049-.257.112-.511.168-.767a1.641 1.641 0 0 1-.623.106c-.014-.364-.011-.728.012-1.092l.377-.014c.001-.209.002-.416.005-.625a27.437 27.437 0 0 1-.383-.059c.002-.385.002-.77-.001-1.157-.234.102-.462.214-.692.322zm-3.883.397c.18.175.359.35.542.521.413-.389 1.199-.582 1.572-.048.058.356-.364.306-.588.379-.984.196-1.589 1.252-1.435 2.214.937.008 1.874.005 2.81.002.002-.288-.001-.575-.002-.862-.634-.006-1.268.013-1.901-.017a1.19 1.19 0 0 1 .95-.596c.68-.092 1.23-.918.823-1.543-.628-.925-2.059-.826-2.772-.05zm.941 4.879c.578.628 1.195 1.218 1.788 1.83.582-.608 1.177-1.206 1.741-1.831a75.488 75.488 0 0 0-3.529.001zM6.757 13.11c-.144 1.141-.023 2.318-.059 3.474.544.146 1.118.078 1.674.062.332-.295.089-.881.162-1.292.76-.002 1.52-.005 2.281 0 .461.893 1.795.894 2.256.001a237.26 237.26 0 0 1 2.531-.001c.067.414-.154.967.146 1.291.559.022 1.136.078 1.686-.055-.028-1.16.09-2.342-.056-3.487-.532-.126-1.102-.064-1.645-.038-.263.334-.074.85-.13 1.254-.841.001-1.682.006-2.524-.002-.462-.896-1.812-.898-2.274 0-.757.007-1.514.005-2.272.002-.01-.403.042-.816-.054-1.212a4.29 4.29 0 0 0-1.723.004z"/>
    <path d="M11.795.524c.566-.112 1.158.115 1.542.536 3.294 3.306 6.588 6.613 9.874 9.926.618.568.73 1.642.108 2.248-3.366 3.356-6.745 6.701-10.111 10.058-.589.629-1.668.557-2.243-.054-3.329-3.352-6.66-6.702-9.99-10.054-.614-.588-.644-1.673.001-2.251 3.286-3.274 6.575-6.544 9.865-9.814.264-.269.57-.532.954-.596zm-.005.825C8.328 4.638 4.993 8.077 1.585 11.429c-.41.312-.38.94-.002 1.264 3.317 3.326 6.623 6.665 9.938 9.992.288.314.83.378 1.134.05 3.353-3.329 6.698-6.666 10.052-9.994.366-.311.29-.893-.049-1.194-3.239-3.283-6.502-6.544-9.748-9.821-.276-.3-.707-.586-1.121-.378z"/>
    <path d="M13.171 5.381c.23-.108.458-.22.692-.322.004.386.004.772.001 1.157.096.016.288.044.383.059l-.005.625-.377.014c-.023.364-.026.728-.012 1.092.214.01.421-.034.623-.106-.056.256-.119.51-.168.767-.373.161-.889.092-1.039-.338-.118-.448-.04-.922-.06-1.379l-.336-.047-.002-.607.31-.089c-.012-.276.001-.552-.01-.827zM9.288 5.778c.713-.775 2.144-.875 2.772.05.407.625-.143 1.451-.823 1.543a1.19 1.19 0 0 0-.95.596c.632.03 1.267.011 1.901.017.001.287.005.574.002.862-.936.002-1.873.006-2.81-.002-.154-.962.451-2.018 1.435-2.214.224-.073.646-.023.588-.379-.373-.534-1.159-.341-1.572.048-.184-.17-.362-.346-.542-.521zM10.229 10.657a75.488 75.488 0 0 1 3.529-.001c-.564.625-1.159 1.223-1.741 1.831-.593-.612-1.21-1.202-1.788-1.83zM6.757 13.11a4.29 4.29 0 0 1 1.723-.004c.096.396.044.809.054 1.212.757.002 1.514.005 2.272-.002.462-.898 1.812-.896 2.274 0 .841.008 1.682.004 2.524.002.055-.404-.133-.92.13-1.254.544-.025 1.114-.088 1.645.038.146 1.145.029 2.327.056 3.487-.55.133-1.127.077-1.686.055-.3-.324-.079-.877-.146-1.291-.844-.002-1.687-.005-2.531.001-.461.893-1.795.892-2.256-.001-.761-.005-1.522-.002-2.281 0-.073.412.17.997-.162 1.292-.556.016-1.13.084-1.674-.062.036-1.156-.085-2.333.059-3.474z"/>
</svg>
