<?xml version="1.0" encoding="utf-8"?>
<!-- Generated by IcoMoon.io -->
<!DOCTYPE svg PUBLIC "-//W3C//DTD SVG 1.1//EN" "http://www.w3.org/Graphics/SVG/1.1/DTD/svg11.dtd">
<svg version="1.1" xmlns="http://www.w3.org/2000/svg" xmlns:xlink="http://www.w3.org/1999/xlink" width="24" height="24" viewBox="0 0 24 24">
<path fill="#ff3319" d="M11.88 1.38h0.205c0.557 0.037 1.079 0.366 1.342 0.86 3.438 5.962 6.871 11.926 10.31 17.886 0.12 0.209 0.209 0.433 0.263 0.668v0.439c-0.086 0.706-0.676 1.291-1.379 1.386h-21.224c-1.061-0.11-1.747-1.399-1.204-2.329 3.456-6.022 6.931-12.032 10.397-18.049 0.253-0.481 0.752-0.8 1.29-0.862M2.519 20.5c6.326 0.001 12.653 0.001 18.979 0-3.161-5.488-6.322-10.974-9.488-16.458-3.169 5.483-6.33 10.97-9.491 16.458z"></path>
<path fill="#fff" d="M2.519 20.5c3.161-5.488 6.322-10.975 9.491-16.458 3.167 5.484 6.328 10.97 9.488 16.458-6.326 0.001-12.653 0.001-18.979 0M13.586 12.626c0.371 0.368 0.737 0.74 1.109 1.105-1.992-0.001-3.984-0.001-5.976 0 0 0.377 0 0.755 0 1.133 1.996-0.002 3.991 0.007 5.986-0.005-0.392 0.346-0.746 0.732-1.115 1.103 0.542 0.004 1.086 0 1.628 0.002 0.554-0.558 1.108-1.117 1.663-1.674-0.552-0.557-1.106-1.109-1.661-1.662-0.545-0.001-1.090 0-1.634-0.002M7.062 16.267c-0.562 0.554-1.12 1.112-1.672 1.676 0.559 0.544 1.108 1.097 1.651 1.656 0.547 0.008 1.096 0.005 1.644 0.001-0.365-0.371-0.73-0.739-1.103-1.1 1.991 0.018 3.983 0.004 5.974 0.008 0.001-0.379 0.001-0.757 0-1.135-1.994 0.004-3.988-0.008-5.981 0.007 0.376-0.368 0.743-0.745 1.118-1.115-0.545 0.002-1.088 0.002-1.632 0.001z"></path>
<path fill="#000" d="M13.586 12.626c0.545 0.002 1.090 0.001 1.634 0.002 0.554 0.553 1.109 1.105 1.661 1.662-0.556 0.557-1.109 1.116-1.663 1.674-0.542-0.002-1.086 0.001-1.628-0.002 0.368-0.371 0.722-0.757 1.115-1.103-1.994 0.012-3.99 0.002-5.986 0.005 0-0.378 0-0.756 0-1.133 1.992-0.001 3.984-0.001 5.976 0-0.372-0.365-0.738-0.737-1.109-1.105z"></path>
<path fill="#000" d="M7.062 16.267c0.544 0.001 1.087 0.001 1.632-0.001-0.376 0.37-0.743 0.746-1.118 1.115 1.993-0.016 3.986-0.004 5.981-0.007 0.001 0.378 0.001 0.756 0 1.135-1.991-0.005-3.983 0.010-5.974-0.008 0.373 0.361 0.738 0.73 1.103 1.1-0.548 0.004-1.097 0.007-1.644-0.001-0.544-0.559-1.092-1.112-1.651-1.656 0.552-0.564 1.11-1.122 1.672-1.676z"></path>
</svg>
