<?xml version="1.0" encoding="utf-8"?>
<!-- Generated by IcoMoon.io -->
<!DOCTYPE svg PUBLIC "-//W3C//DTD SVG 1.1//EN" "http://www.w3.org/Graphics/SVG/1.1/DTD/svg11.dtd">
<svg version="1.1" xmlns="http://www.w3.org/2000/svg" xmlns:xlink="http://www.w3.org/1999/xlink" width="24" height="24" viewBox="0 0 24 24">
<path fill="#ffd700" d="M10.55 0.949c0.48-0.515 1.226-0.785 1.918-0.6 0.446 0.094 0.768 0.438 1.082 0.742 3.27 3.211 6.55 6.413 9.818 9.625 0.74 0.653 0.678 1.89-0.018 2.551-3.329 3.312-6.673 6.61-10.002 9.922-0.27 0.281-0.622 0.466-0.995 0.571h-0.794c-0.578-0.106-0.954-0.583-1.351-0.97-3.234-3.17-6.47-6.338-9.703-9.509-0.704-0.691-0.533-1.904 0.166-2.536 3.289-3.27 6.587-6.532 9.88-9.797M11.566 0.784c-0.316 0.078-0.584 0.274-0.809 0.503-3.197 3.157-6.384 6.325-9.578 9.486-0.226 0.224-0.455 0.462-0.571 0.766-0.222 0.53-0.118 1.188 0.295 1.597 3.149 3.095 6.311 6.178 9.457 9.275 0.384 0.364 0.739 0.836 1.295 0.929 0.568 0.127 1.154-0.119 1.546-0.529 3.266-3.256 6.553-6.491 9.821-9.745 0.564-0.565 0.604-1.579 0.008-2.136-3.31-3.254-6.626-6.502-9.944-9.745-0.382-0.408-0.986-0.559-1.519-0.4z"></path>
<path fill="#ffd700" d="M11.57 1.615c0.331-0.229 0.787-0.12 1.037 0.178 3.274 3.21 6.554 6.414 9.822 9.63 0.302 0.241 0.344 0.71 0.106 1.010-0.247 0.316-0.558 0.575-0.839 0.859-3.035 3.006-6.068 6.013-9.102 9.020-0.251 0.265-0.683 0.388-1.006 0.184-0.276-0.2-0.496-0.466-0.743-0.698-2.994-2.928-5.978-5.868-8.978-8.79-0.241-0.258-0.611-0.49-0.602-0.886-0.012-0.304 0.198-0.541 0.401-0.738 3.049-3.031 6.106-6.055 9.157-9.085 0.241-0.235 0.464-0.497 0.748-0.684M15.185 6.686c-0.13 0.328 0.162 0.565 0.44 0.654 0.1-0.169 0.199-0.337 0.3-0.505-0.12-0.16-0.241-0.317-0.362-0.475-0.172 0.049-0.389 0.092-0.378 0.326M16.808 7.319c-0.202 0.202-0.498 0.401-0.481 0.721-0.070 0.334 0.353 0.509 0.287 0.839-0.042 0.311-0.284 0.54-0.391 0.826-0.050 0.299 0.217 0.57 0.121 0.865-0.113 0.162-0.258 0.3-0.353 0.474-0.107 0.389 0.212 0.818-0.053 1.171-0.27 0.361-0.272 0.864-0.614 1.175-0.307 0.288-0.444 0.689-0.547 1.086-0.172 0.091-0.383 0.162-0.428 0.38 1.778 0.019 3.558-0.006 5.335-0.044 0.91-0.904 1.842-1.782 2.762-2.675-1.814-1.852-3.643-3.69-5.465-5.536-0.054 0.24-0.11 0.48-0.173 0.718M5.988 8.212c-0.122 0.025-0.328 0.016-0.347 0.186-0.187 0.608-0.367 1.22-0.509 1.842 1.168-0.052 2.334-0.168 3.504-0.132 1.054-0.034 2.099 0.132 3.15 0.134-0.131-0.566-0.304-1.123-0.46-1.682-0.048-0.115-0.060-0.311-0.223-0.314-1.697-0.192-3.416-0.215-5.116-0.034M13.698 8.684c0.246 0.533 0.875 0.814 1.44 0.796 0.152-0.241 0.299-0.487 0.437-0.738 0.002-0.092 0.006-0.276 0.008-0.367-0.077-0.056-0.152-0.113-0.229-0.168-0.398 0.064-0.793-0.029-1.19-0.024-0.194 0.126-0.312 0.335-0.466 0.502M14.581 10.282c0.031 0.222 0.066 0.446 0.19 0.637 0.223-0.020 0.448-0.042 0.671-0.064 0.154-0.276 0.356-0.641 0.040-0.886-0.098 0.005-0.296 0.014-0.395 0.019-0.168 0.1-0.337 0.196-0.505 0.293M5.39 10.313c-0.308-0.004-0.601 0.194-0.682 0.497-0.127 0.508-0.122 1.049-0.016 1.559 0.167 1.328 4.168-0.019 0.362 0.55-0.439-0.106-0.307 0.538-0.002 0.478 2.274 0.007 4.549 0.008 6.824-0.001 0.355 0.098 0.419-0.665-0.032-0.476l-1.274-0.046c0.205 0.067 1.54 0.232 1.637-0.415 0.167-0.584 0.181-1.237-0.058-1.804-0.146-0.337-0.556-0.328-0.865-0.354-1.958-0.191-3.936-0.18-5.894 0.013M13.37 10.826c-0.12 0.298-0.169 0.616-0.161 0.936 0.089 0.073 0.179 0.146 0.268 0.221 0.145 0 0.289 0.001 0.433 0.001 0.074-0.080 0.148-0.162 0.222-0.242-0.004-0.223-0.010-0.446-0.011-0.67-0.071-0.085-0.142-0.169-0.211-0.253-0.18 0.001-0.36 0.004-0.54 0.007M14.876 12.233c0.121 0.058 0.242 0.116 0.364 0.174 0.114-0.080 0.227-0.16 0.341-0.239-0.002-0.17-0.007-0.341-0.014-0.51-0.169-0.038-0.338-0.073-0.509-0.107-0.122 0.208-0.181 0.44-0.181 0.682M5.346 13.577c0.035 0.365-0.109 0.811 0.089 1.124 0.293 0.040 0.654 0.118 0.911-0.064 0.044-0.352 0.023-0.707 0.020-1.060-0.34-0.002-0.68-0.002-1.020-0.001M10.57 13.578c0 0.349-0.023 0.7 0.017 1.048 0.14 0.168 0.385 0.098 0.575 0.116 0.143-0.019 0.354 0.032 0.418-0.143 0.037-0.338 0.012-0.68 0.013-1.021-0.341-0.002-0.682-0.002-1.022 0z"></path>
<path fill="#ffd700" d="M6.032 8.741c1.589-0.144 3.198-0.208 4.783-0.002 0.188 0.364 0.292 0.764 0.437 1.146-1.872-0.15-3.755-0.134-5.628 0 0.133-0.383 0.269-0.763 0.408-1.144z"></path>
<path fill="#000" d="M11.566 0.784c0.533-0.16 1.138-0.008 1.519 0.4 3.318 3.244 6.635 6.491 9.944 9.745 0.595 0.557 0.556 1.571-0.008 2.136-3.268 3.254-6.554 6.49-9.821 9.745-0.391 0.41-0.978 0.656-1.546 0.529-0.556-0.092-0.911-0.565-1.295-0.929-3.146-3.097-6.308-6.18-9.457-9.275-0.413-0.409-0.517-1.067-0.295-1.597 0.116-0.304 0.346-0.541 0.571-0.766 3.194-3.161 6.382-6.329 9.578-9.486 0.224-0.229 0.493-0.425 0.809-0.503M11.57 1.615c-0.283 0.187-0.506 0.449-0.748 0.684-3.052 3.030-6.108 6.054-9.157 9.085-0.203 0.197-0.413 0.434-0.401 0.738-0.008 0.396 0.361 0.628 0.602 0.886 3 2.922 5.984 5.862 8.978 8.79 0.247 0.233 0.467 0.498 0.743 0.698 0.323 0.204 0.755 0.082 1.006-0.184 3.034-3.007 6.067-6.014 9.102-9.020 0.281-0.284 0.592-0.544 0.839-0.859 0.239-0.3 0.197-0.769-0.106-1.010-3.268-3.216-6.548-6.42-9.822-9.63-0.25-0.298-0.706-0.407-1.037-0.178z"></path>
<path fill="#000" d="M15.185 6.686c-0.011-0.234 0.206-0.277 0.378-0.326 0.121 0.158 0.242 0.316 0.362 0.475-0.101 0.168-0.2 0.336-0.3 0.505-0.278-0.089-0.57-0.326-0.44-0.654z"></path>
<path fill="#000" d="M16.808 7.319c0.062-0.238 0.119-0.478 0.173-0.718 1.822 1.846 3.65 3.684 5.465 5.536-0.92 0.893-1.853 1.771-2.762 2.675-1.777 0.038-3.557 0.064-5.335 0.044 0.046-0.218 0.257-0.289 0.428-0.38 0.103-0.397 0.24-0.798 0.547-1.086 0.342-0.311 0.344-0.814 0.614-1.175 0.265-0.353-0.054-0.782 0.053-1.171 0.095-0.174 0.24-0.312 0.353-0.474 0.096-0.295-0.172-0.566-0.121-0.865 0.107-0.286 0.349-0.515 0.391-0.826 0.066-0.33-0.356-0.505-0.287-0.839-0.017-0.32 0.28-0.52 0.481-0.721z"></path>
<path fill="#000" d="M5.988 8.212c1.699-0.181 3.419-0.158 5.116 0.034 0.163 0.004 0.175 0.199 0.223 0.314 0.156 0.559 0.329 1.116 0.46 1.682-1.051-0.002-2.096-0.168-3.15-0.134-1.17-0.036-2.336 0.080-3.504 0.132 0.142-0.622 0.322-1.234 0.509-1.842 0.019-0.17 0.224-0.161 0.347-0.186M6.032 8.741c-0.139 0.38-0.275 0.761-0.408 1.144 1.873-0.134 3.756-0.15 5.628 0-0.145-0.382-0.248-0.782-0.437-1.146-1.585-0.205-3.194-0.142-4.783 0.002z"></path>
<path fill="#000" d="M13.698 8.684c0.154-0.167 0.271-0.376 0.466-0.502 0.397-0.005 0.792 0.088 1.19 0.024 0.077 0.055 0.152 0.112 0.229 0.168-0.002 0.091-0.006 0.275-0.008 0.367-0.138 0.251-0.284 0.497-0.437 0.738-0.565 0.018-1.194-0.263-1.44-0.796z"></path>
<path fill="#000" d="M14.581 10.282c0.168-0.097 0.337-0.193 0.505-0.293 0.098-0.005 0.296-0.014 0.395-0.019 0.317 0.245 0.114 0.61-0.040 0.886-0.223 0.022-0.448 0.043-0.671 0.064-0.124-0.191-0.158-0.415-0.19-0.637z"></path>
<path fill="#000" d="M5.39 10.313c1.958-0.193 3.936-0.204 5.894-0.013 0.31 0.026 0.719 0.017 0.865 0.354 0.239 0.566 0.224 1.219 0.058 1.804-0.097 0.647-1.432 0.482-1.637 0.415l1.274 0.046c0.451-0.188 0.388 0.575 0.032 0.476-2.275 0.010-4.55 0.008-6.824 0.001-0.305 0.060-0.437-0.583 0.002-0.478 3.805-0.569-0.196 0.779-0.362-0.55-0.107-0.51-0.112-1.051 0.016-1.559 0.080-0.302 0.373-0.5 0.682-0.497z"></path>
<path fill="#000" d="M13.37 10.826c0.18-0.004 0.36-0.006 0.54-0.007 0.070 0.084 0.14 0.168 0.211 0.253 0.001 0.223 0.007 0.446 0.011 0.67-0.074 0.080-0.148 0.162-0.222 0.242-0.144 0-0.288-0.001-0.433-0.001-0.089-0.074-0.179-0.148-0.268-0.221-0.008-0.32 0.041-0.638 0.161-0.936z"></path>
<path fill="#000" d="M14.876 12.233c0-0.241 0.059-0.474 0.181-0.682 0.17 0.034 0.34 0.068 0.509 0.107 0.007 0.169 0.012 0.34 0.014 0.51-0.114 0.079-0.227 0.158-0.341 0.239-0.121-0.058-0.242-0.116-0.364-0.174z"></path>
<path fill="#000" d="M5.346 13.577c0.34-0.001 0.68-0.001 1.020 0.001 0.002 0.353 0.024 0.708-0.020 1.060-0.257 0.181-0.618 0.103-0.911 0.064-0.198-0.313-0.054-0.76-0.089-1.124z"></path>
<path fill="#000" d="M10.57 13.578c0.341-0.002 0.682-0.002 1.022 0-0.001 0.341 0.024 0.683-0.013 1.021-0.064 0.175-0.275 0.124-0.418 0.143-0.19-0.018-0.434 0.052-0.575-0.116-0.040-0.348-0.017-0.698-0.017-1.048z"></path>
</svg>
