<!-- Generated by IcoMoon.io -->
<svg version="1.1" xmlns="http://www.w3.org/2000/svg" width="24" height="24" viewBox="0 0 24 24">
<title>warning--dip--g2</title>
<path fill="#d9a718" opacity="0.9" d="M11.604 0h0.587c0.245 0.116 0.479 0.26 0.676 0.449 3.497 3.505 6.997 7.009 10.498 10.511 0.544 0.445 0.625 1.325 0.080 1.805-3.556 3.564-7.116 7.126-10.674 10.687-0.431 0.482-1.234 0.496-1.673 0.018-3.346-3.336-6.689-6.676-10.033-10.015-0.389-0.388-0.827-0.752-1.064-1.261v-0.574c0.275-0.569 0.781-0.964 1.213-1.406 3.217-3.223 6.448-6.433 9.662-9.659 0.217-0.216 0.463-0.4 0.728-0.554M11.813 0.295c-0.301 0.038-0.536 0.248-0.745 0.452-3.476 3.486-6.964 6.96-10.44 10.446-0.418 0.362-0.448 1.037-0.023 1.408 3.538 3.538 7.074 7.078 10.614 10.613 0.366 0.421 1.055 0.407 1.409-0.024 3.538-3.546 7.088-7.080 10.621-10.631 0.425-0.379 0.33-1.056-0.083-1.404-3.456-3.464-6.919-6.923-10.376-10.385-0.259-0.256-0.587-0.532-0.977-0.475z"></path>
<path fill="#000" d="M11.813 0.295c0.39-0.056 0.718 0.22 0.977 0.475 3.457 3.462 6.92 6.92 10.376 10.385 0.413 0.348 0.508 1.025 0.083 1.404-3.533 3.551-7.084 7.085-10.621 10.631-0.354 0.431-1.043 0.445-1.409 0.024-3.54-3.535-7.076-7.075-10.614-10.613-0.425-0.371-0.395-1.045 0.023-1.408 3.476-3.486 6.964-6.96 10.44-10.446 0.209-0.204 0.444-0.414 0.745-0.452M11.807 0.884c-3.574 3.46-7.048 7.034-10.585 10.536-0.206 0.192-0.548 0.518-0.208 0.761 3.538 3.541 7.079 7.081 10.62 10.62 0.164 0.227 0.425 0.185 0.583-0.025 3.539-3.541 7.085-7.076 10.618-10.622 0.242-0.181 0.090-0.427-0.085-0.584-3.476-3.484-6.964-6.958-10.436-10.444-0.149-0.11-0.294-0.353-0.506-0.241z"></path>
<path fill="#f1ba1b" d="M11.807 0.884c0.212-0.112 0.358 0.131 0.506 0.241 3.473 3.486 6.96 6.96 10.436 10.444 0.175 0.157 0.328 0.403 0.085 0.584-3.533 3.546-7.079 7.081-10.618 10.622-0.158 0.21-0.419 0.252-0.583 0.025-3.541-3.539-7.082-7.079-10.62-10.62-0.341-0.242 0.001-0.569 0.208-0.761 3.538-3.502 7.012-7.076 10.585-10.536M3.982 10.291c0.001 1.331 0.001 2.662 0.001 3.992 5.23 0.008 10.459 0.004 15.69 0.002 0.001-1.332 0.001-2.664 0-3.996-1.386 0.002-2.772-0.017-4.157 0.011-0.592 1.116-1.793 1.783-3.025 1.909-1.908 0.348-4.109-0.161-5.204-1.883-1.096-0.095-2.203-0.014-3.305-0.036z"></path>
<path fill="#1f1a17" d="M3.982 10.291c1.102 0.022 2.209-0.059 3.305 0.036 1.096 1.722 3.296 2.231 5.204 1.883 1.232-0.126 2.434-0.793 3.025-1.909 1.385-0.028 2.771-0.008 4.157-0.011 0.001 1.332 0.001 2.664 0 3.996-5.231 0.001-10.46 0.006-15.69-0.002 0-1.331 0-2.662-0.001-3.992z"></path>
</svg>
