<?xml version="1.0" encoding="utf-8"?>
<!-- Generated by IcoMoon.io -->
<!DOCTYPE svg PUBLIC "-//W3C//DTD SVG 1.1//EN" "http://www.w3.org/Graphics/SVG/1.1/DTD/svg11.dtd">
<svg version="1.1" xmlns="http://www.w3.org/2000/svg" xmlns:xlink="http://www.w3.org/1999/xlink" width="24" height="24" viewBox="0 0 24 24">
<path fill="#a2ff31" d="M0.343 11.168l10.823-10.824c0.458-0.458 1.207-0.458 1.665 0l10.823 10.824c0.458 0.458 0.458 1.207 0 1.665l-10.823 10.823c-0.458 0.458-1.207 0.458-1.665 0l-10.823-10.823c-0.458-0.458-0.458-1.208 0-1.665z"></path>
<path fill="#000" d="M0.604 11.34l10.734-10.735c0.363-0.363 0.958-0.363 1.321 0l10.734 10.735c0.363 0.363 0.363 0.958 0 1.321l-10.734 10.734c-0.364 0.363-0.958 0.363-1.321 0l-10.734-10.734c-0.363-0.363-0.363-0.958 0-1.321z"></path>
<path fill="#a2ff31" d="M0.94 11.671l10.729-10.73c0.181-0.182 0.479-0.182 0.66 0l10.729 10.73c0.182 0.182 0.182 0.479 0 0.66l-10.729 10.729c-0.181 0.182-0.479 0.182-0.66 0l-10.729-10.729c-0.182-0.181-0.182-0.478 0-0.66z"></path>
<path fill="#000" d="M8.097 8.706c0.339 0 0.615-0.276 0.615-0.615s-0.276-0.615-0.615-0.615c-0.338 0-0.615 0.276-0.615 0.615s0.277 0.615 0.615 0.615z"></path>
<path fill="#000" d="M17.212 10.652c0.339 0 0.615-0.277 0.615-0.615 0-0.339-0.277-0.615-0.615-0.615s-0.615 0.276-0.615 0.615c0 0.338 0.277 0.615 0.615 0.615z"></path>
<path fill="#000" d="M7.3 8.341l-1.533 1.025c-0.197 0.115-0.27 0.295-0.208 0.55 0.018 0.080 0.041 0.146 0.058 0.225-0.249-0.064-0.5-0.11-0.75-0.175l-0.167 0.717 2.117 0.467 0.617 1.183 0.717-0.167-0.158-0.767 7.875 1.708-0.467 0.625 0.575 0.45 1.067-0.808 2.117 0.467 0.15-0.717c-0.253-0.047-0.504-0.112-0.758-0.158 0.050-0.064 0.101-0.119 0.15-0.183 0.163-0.206 0.18-0.397 0.050-0.583l-0.967-1.575c-0.251 0.045-0.499 0.088-0.75 0.133-0.358 0.241-0.717 0.483-1.075 0.725-0.111 0.078-0.158 0.188-0.142 0.325l0.042 0.183-0.158 0.342-7.233-1.567v-0.375l0.117-0.15c0.074-0.118 0.076-0.232 0.008-0.35-0.223-0.37-0.444-0.738-0.667-1.108-0.208-0.147-0.417-0.295-0.625-0.442zM7.683 9.366l0.592 0.725-0.067 0.625-0.417-0.092-0.6-0.733 0.492-0.525zM16.999 11.391l0.225 0.683-0.85 0.408-0.417-0.092 0.2-0.592 0.842-0.408z"></path>
<path fill="#000" d="M11.277 15.381v-2.408l0.727-0.655 0.743 0.655v2.408h-1.471z"></path>
</svg>
