<!-- Generated by IcoMoon.io -->
<svg version="1.1" xmlns="http://www.w3.org/2000/svg" width="27" height="24" viewBox="0 0 27 24">
<title>warning--turn-right--g2</title>
<path fill="#faf053" d="M13.099 0h0.999c0.509 0.287 0.827 0.767 1.087 1.275 3.914 6.987 7.923 13.923 11.834 20.912v0.812c-0.214 0.444-0.569 0.811-1.029 1.001h-25.159c-0.315-0.245-0.595-0.53-0.83-0.851v-0.986c3.958-7.115 8.017-14.177 12.115-21.214 0.205-0.424 0.548-0.767 0.984-0.949M13.635 0.362c-0.522 0.018-0.859 0.463-1.078 0.888-3.949 6.862-7.914 13.715-11.849 20.583-0.432 0.697 0.082 1.769 0.942 1.713 7.958 0.005 15.914-0.009 23.87-0.009 0.9 0.109 1.537-1.029 0.999-1.749-3.979-6.871-7.801-13.831-11.73-20.731-0.211-0.435-0.654-0.764-1.155-0.694z"></path>
<path fill="#2d3127" d="M13.635 0.362c0.501-0.069 0.943 0.26 1.155 0.694 3.929 6.9 7.751 13.86 11.73 20.731 0.537 0.72-0.1 1.858-0.999 1.749-7.956 0-15.912 0.014-23.87 0.009-0.86 0.056-1.374-1.016-0.942-1.713 3.935-6.868 7.9-13.721 11.849-20.583 0.219-0.424 0.555-0.869 1.078-0.888M6.906 15.165c-1.197 2.124-2.495 4.19-3.641 6.341 6.907 0.003 13.816 0 20.723 0.005-1.926-3.393-3.84-6.795-5.751-10.198-1.505-2.657-2.993-5.322-4.513-7.968-2.297 3.926-4.548 7.879-6.818 11.82z"></path>
<path fill="#f6e13e" d="M6.906 15.165c2.27-3.941 4.521-7.894 6.818-11.82 1.52 2.646 3.008 5.312 4.513 7.968-0.408 0.43-0.883 0.785-1.375 1.111 0.193-0.398 0.376-0.805 0.566-1.206-1.076-0.552-2.155-1.1-3.236-1.642-0.808 0.308-1.614 0.62-2.414 0.945 0.684 0.282 1.378 0.542 2.056 0.842-1.5 0.602-3.035 1.117-4.524 1.746-0.788 0.314-0.952 1.334-0.56 2.021-0.611 0.094-1.23 0.088-1.845 0.035z"></path>
<path fill="#2b2f23" d="M11.778 10.521c0.8-0.325 1.606-0.637 2.414-0.945 1.081 0.542 2.16 1.090 3.236 1.642-0.19 0.402-0.373 0.808-0.566 1.206-0.386 0.649-0.617 1.387-1.072 1.992-0.732 0.379-1.543 0.58-2.308 0.883 0.291-0.703 0.614-1.395 0.907-2.098-1.158 0.424-2.315 0.851-3.467 1.294 1.766 1.611 3.564 3.183 5.31 4.814-0.409 0.5-0.827 0.993-1.25 1.481-2.086-1.878-4.158-3.769-6.232-5.659-0.392-0.687-0.228-1.707 0.56-2.021 1.488-0.629 3.023-1.144 4.524-1.746-0.678-0.3-1.372-0.56-2.056-0.842z"></path>
<path fill="#fbeb3f" d="M16.862 12.424c0.492-0.326 0.968-0.681 1.375-1.111 1.911 3.402 3.825 6.805 5.751 10.198-6.907-0.005-13.816-0.001-20.723-0.005 1.146-2.151 2.444-4.217 3.641-6.341 0.614 0.053 1.233 0.059 1.845-0.035 2.074 1.89 4.146 3.781 6.232 5.659 0.423-0.488 0.841-0.981 1.25-1.481-1.746-1.63-3.544-3.203-5.31-4.814 1.152-0.442 2.309-0.869 3.467-1.294-0.293 0.703-0.616 1.395-0.907 2.098 0.765-0.303 1.576-0.504 2.308-0.883 0.454-0.605 0.685-1.343 1.072-1.992z"></path>
</svg>
