<!-- Generated by IcoMoon.io -->
<svg version="1.1" xmlns="http://www.w3.org/2000/svg" width="24" height="24" viewBox="0 0 24 24">
<title>warning--reserved-lane--g1</title>
<path fill="#caa819" opacity="0.79" d="M11.809 0h0.365c0.355 0.216 0.643 0.52 0.931 0.815 3.242 3.238 6.482 6.479 9.722 9.719 0.404 0.413 0.851 0.792 1.172 1.278v0.359c-0.245 0.406-0.607 0.718-0.938 1.050-3.182 3.178-6.36 6.361-9.544 9.538-0.442 0.416-0.828 0.895-1.33 1.242h-0.359c-0.367-0.25-0.665-0.581-0.977-0.892-3.223-3.217-6.449-6.432-9.673-9.648-0.403-0.412-0.845-0.792-1.18-1.265v-0.366c0.253-0.436 0.642-0.763 0.992-1.117 3.26-3.26 6.521-6.518 9.781-9.779 0.323-0.335 0.649-0.671 1.036-0.934M11.698 0.308c-3.766 3.71-7.475 7.48-11.226 11.206-0.262 0.199-0.392 0.611-0.109 0.853 3.733 3.742 7.477 7.476 11.213 11.216 0.193 0.245 0.575 0.305 0.791 0.053 3.744-3.731 7.476-7.476 11.218-11.212 0.28-0.211 0.276-0.637 0.001-0.851-3.719-3.72-7.44-7.439-11.158-11.16-0.178-0.205-0.509-0.294-0.73-0.106z"></path>
<path fill="#000" d="M11.698 0.308c0.221-0.188 0.552-0.1 0.73 0.106 3.718 3.721 7.439 7.44 11.158 11.16 0.275 0.214 0.278 0.64-0.001 0.851-3.742 3.736-7.474 7.481-11.218 11.212-0.216 0.252-0.598 0.192-0.791-0.053-3.736-3.74-7.48-7.475-11.213-11.216-0.283-0.242-0.152-0.654 0.109-0.853 3.751-3.726 7.46-7.495 11.226-11.206M11.818 0.636c-3.774 3.787-7.586 7.541-11.328 11.36 2.848 2.88 5.724 5.732 8.587 8.598 0.012-1.426-0.013-2.851 0.012-4.276 0.011-0.758 0.709-1.404 1.463-1.379 3.286-0.011 6.572 0.001 9.858-0.005 0.216 0.031 0.341-0.162 0.479-0.289 0.869-0.889 1.762-1.756 2.626-2.65-3.696-3.78-7.478-7.478-11.196-11.239-0.125-0.137-0.348-0.362-0.5-0.121z"></path>
<path fill="#000" d="M10.484 5.936c0.722-0.008 1.446-0.013 2.17 0.004-0.004 0.083-0.012 0.248-0.016 0.331-0.709 0.008-1.418 0.002-2.128 0.004-0.010-0.113-0.018-0.226-0.026-0.338z"></path>
<path fill="#000" d="M14.538 5.932c0.714-0.002 1.427-0.001 2.14-0.001 0.002 0.085 0.007 0.256 0.011 0.341-0.719 0.006-1.438 0.007-2.156-0.001 0.001-0.084 0.005-0.253 0.006-0.338z"></path>
<path fill="#000" d="M8.605 7.872c-0.136-0.402-0.698-1.219 0.034-1.336 1.033 0.604 2.051 1.367 2.966 2.096-0.816 0.701-1.805 1.301-2.692 1.957-0.233 0.25-0.696 0.086-0.67-0.269 0.102-0.342 0.278-0.655 0.418-0.982-1.484-0.010-2.863 1.178-3.035 2.658-0.059 0.755-0.008 1.514-0.025 2.272-0.502 0.005-1.004 0.005-1.506 0.001 0.038-1.080-0.132-2.197 0.222-3.242 0.566-1.832 2.38-3.134 4.288-3.156z"></path>
<path fill="#000" d="M10.481 11.348c0.012-0.115 0.025-0.23 0.038-0.344 3.748 0.014 7.495-0.004 11.244 0.008-0.012 0.088-0.035 0.264-0.046 0.352-3.745-0.028-7.492 0.004-11.237-0.016z"></path>
<path fill="#000" d="M10.507 13.168c0.887-0.461 1.784-0.901 2.684-1.339 0.896 0.439 1.793 0.88 2.68 1.34-0.889 0.457-1.793 0.886-2.68 1.344-0.893-0.452-1.794-0.889-2.684-1.345M11.384 13.153c0.582 0.343 1.204 0.612 1.804 0.922 0.606-0.304 1.219-0.594 1.818-0.912-0.6-0.308-1.205-0.608-1.813-0.9-0.611 0.281-1.207 0.592-1.808 0.89z"></path>
<path fill="#ffd520" d="M11.818 0.636c0.152-0.241 0.376-0.016 0.5 0.121 3.718 3.761 7.5 7.459 11.196 11.239-0.864 0.894-1.757 1.76-2.626 2.65-0.138 0.127-0.263 0.32-0.479 0.289-3.286 0.006-6.572-0.006-9.858 0.005-0.754-0.025-1.452 0.62-1.463 1.379-0.025 1.424 0 2.85-0.012 4.276-2.863-2.866-5.74-5.718-8.587-8.598 3.742-3.82 7.554-7.573 11.328-11.36M10.484 5.936c0.008 0.113 0.017 0.226 0.026 0.338 0.709-0.001 1.418 0.005 2.128-0.004 0.004-0.083 0.012-0.248 0.016-0.331-0.724-0.017-1.447-0.012-2.17-0.004M14.538 5.932c-0.001 0.085-0.005 0.254-0.006 0.338 0.719 0.008 1.438 0.007 2.156 0.001-0.004-0.085-0.008-0.256-0.011-0.341-0.713 0-1.426-0.001-2.14 0.001M8.605 7.872c-1.908 0.022-3.721 1.324-4.288 3.156-0.354 1.045-0.184 2.162-0.222 3.242 0.502 0.004 1.004 0.004 1.506-0.001 0.017-0.757-0.034-1.517 0.025-2.272 0.172-1.48 1.55-2.668 3.035-2.658-0.139 0.326-0.316 0.64-0.418 0.982-0.026 0.355 0.437 0.518 0.67 0.269 0.887-0.656 1.876-1.256 2.692-1.957-0.916-0.73-1.933-1.493-2.966-2.096-0.732 0.116-0.169 0.934-0.034 1.336M10.481 11.348c3.745 0.019 7.492-0.012 11.237 0.016 0.011-0.088 0.034-0.264 0.046-0.352-3.749-0.012-7.496 0.006-11.244-0.008-0.013 0.114-0.026 0.229-0.038 0.344M10.507 13.168c0.89 0.456 1.792 0.893 2.684 1.345 0.887-0.458 1.79-0.887 2.68-1.344-0.887-0.461-1.783-0.901-2.68-1.34-0.9 0.438-1.798 0.878-2.684 1.339z"></path>
<path fill="#ffd520" d="M11.384 13.153c0.601-0.299 1.198-0.61 1.808-0.89 0.608 0.292 1.213 0.592 1.813 0.9-0.599 0.318-1.212 0.608-1.818 0.912-0.6-0.31-1.222-0.578-1.804-0.922z"></path>
</svg>
