<svg xmlns="http://www.w3.org/2000/svg" width="24" height="24">
    <path fill="#f1ce00" opacity=".95" d="M11.698 0h.562c.284.131.55.302.77.526 3.235 3.246 6.48 6.484 9.72 9.725.457.47 1.006.89 1.25 1.522v.367c-.107.3-.254.589-.482.815-3.5 3.502-7.004 7-10.501 10.505a2.378 2.378 0 0 1-.848.541h-.361c-.308-.122-.602-.286-.835-.526-3.235-3.246-6.48-6.484-9.72-9.725-.446-.461-.972-.871-1.252-1.465v-.564c.248-.613.791-1.02 1.236-1.483C4.478 6.997 7.722 3.759 10.959.514c.215-.212.468-.382.739-.514zm.224.295c-.305.019-.535.242-.744.443C7.649 4.289 4.092 7.814.563 11.366c-.395.356-.326.99.067 1.318 3.564 3.56 7.123 7.126 10.688 10.685.348.41 1.009.4 1.352-.011 3.563-3.562 7.126-7.124 10.687-10.687.41-.343.424-1.006.011-1.354C19.83 7.772 16.282 4.237 12.747.69c-.218-.218-.498-.431-.826-.395z"/>
    <path d="M11.922.295c.328-.036.607.176.826.395 3.535 3.547 7.084 7.082 10.621 10.627.413.348.4 1.01-.011 1.354-3.562 3.563-7.124 7.126-10.687 10.687-.343.41-1.004.421-1.352.011C7.754 19.81 4.195 16.245.631 12.684c-.394-.328-.462-.961-.067-1.318C4.093 7.814 7.65 4.288 11.179.738c.209-.2.439-.424.744-.443zm-.008.45c-.319.139-.534.433-.782.666C7.738 4.821 4.323 8.213.931 11.623c-.252.197-.232.552.014.744 3.562 3.564 7.121 7.13 10.691 10.686.218.283.59.179.785-.071 3.538-3.544 7.086-7.079 10.62-10.626.233-.187.257-.532.016-.722-3.512-3.532-7.048-7.04-10.56-10.571-.164-.143-.337-.361-.582-.318z"/>
    <path d="M14.2 7.961c.739-.364 1.62-.344 2.365-.005-.048.511-.132 1.022-.104 1.537-.048.401.592.6.29 1.008-.54-.335-1.009-.785-1.048-1.459-.622.475-.312 1.248-.265 1.9l-.45.036c-.088-.662-.414-1.346-.151-2.008l-.668-.002c-.461 1.274-1.532 2.105-2.48 3.004l-.437-.396c.69-.784 1.601-1.445 1.836-2.524-.962.16-1.922.331-2.885.491l-.023-.612c1.34-.314 2.821-.217 4.02-.97zM16.928 8.749c-.318-.343.08-.739.216-1.064.268.101.643.156.707.494.178.503-.557.986-.923.57z"/>
    <path d="M7.604 9.413c.548.216 1.06.517 1.54.857-.347-.036-.692-.085-1.04-.106.754.557 1.664.832 2.492 1.255l.037-.442c.127-.11.254-.222.38-.334-.324-.19-.719-.314-.919-.656.326.076.642.188.956.305.052.16.104.319.158.479l-.383.28c-.07.91-.151 1.822-.12 2.735-.139.47-.162.965-.199 1.451l-.282-.004c.044-.498.098-.998.055-1.499.166-.619.174-1.266.282-1.895-.982.491-1.982.949-2.885 1.578-.074.149-.145.299-.217.45l-.287-.208c.188-.144.368-.298.546-.455-.186-.161-.37-.325-.545-.498-.52.642-1.411 1.043-2.212.691-1.105-.386-1.511-1.926-.728-2.801.74-.964 2.309-.796 2.945.203.278-.133.557-.263.835-.394l.007-.272a2.218 2.218 0 0 1-.418-.721zm-2.778 1.045c-.883.498-.95 1.896-.115 2.472.668.535 1.662.313 2.17-.335-.532-.313-1.069-.614-1.604-.922.546-.254 1.096-.503 1.639-.763-.484-.622-1.398-.911-2.089-.452zm3.384.055c-.071.71-.154 1.421-.184 2.136l.202-.433.289.214c-.156.121-.311.242-.462.368.858-.349 1.662-.814 2.491-1.22L8.21 10.514zm-.928.421a2.503 2.503 0 0 1-.048 1.597l.5.27c.074-.722.15-1.445.22-2.168-.223.101-.448.2-.672.301zm-1.552.725c.418.244.836.484 1.259.719.127-.428.138-.877.035-1.312a38.68 38.68 0 0 0-1.294.593z"/>
    <path d="M6.557 15.232c1.145-.002 2.29.005 3.434-.004l.137.235c.167-.002.335-.002.502 0l.134-.236c1.094.017 2.189-.007 3.282.007.194-.022.353.095.504.2l.53.037.144-.242c1.114.006 2.227.001 3.341.004v.696c-4.002 0-8.004-.002-12.006 0l-.002-.697z"/>
    <path fill="#ffdb00" d="M11.914.745c.245-.043.418.175.582.318 3.512 3.53 7.048 7.039 10.56 10.571.241.191.217.535-.016.722-3.534 3.547-7.082 7.082-10.62 10.626-.194.25-.566.354-.785.071-3.57-3.556-7.129-7.122-10.691-10.686-.246-.192-.266-.547-.014-.744 3.392-3.41 6.808-6.802 10.201-10.212.248-.233.463-.527.782-.666zM14.2 7.961c-1.199.752-2.68.655-4.02.97.007.204.014.408.023.612.962-.16 1.922-.331 2.885-.491-.235 1.079-1.146 1.74-1.836 2.524l.437.396c.948-.899 2.02-1.729 2.48-3.004l.668.002c-.263.661.064 1.345.151 2.008l.45-.036c-.047-.652-.356-1.424.265-1.9.038.674.508 1.124 1.048 1.459.301-.408-.338-.607-.29-1.008-.028-.515.056-1.026.104-1.537-.745-.34-1.626-.359-2.365.005zm2.728.788c.366.416 1.1-.067.923-.57-.064-.338-.439-.394-.707-.494-.136.325-.534.721-.216 1.064zm-9.324.664a2.2 2.2 0 0 0 .418.721l-.007.272c-.278.131-.557.26-.835.394-.636-.998-2.204-1.166-2.945-.203-.782.875-.377 2.414.728 2.801.8.352 1.692-.049 2.212-.691.175.173.359.337.545.498-.178.157-.358.311-.546.455.096.068.192.138.287.208.072-.151.143-.301.217-.45.902-.629 1.903-1.087 2.885-1.578-.108.629-.116 1.276-.282 1.895.043.5-.011 1.001-.055 1.499l.282.004c.037-.486.06-.98.199-1.451-.031-.913.05-1.825.12-2.735l.383-.28c-.054-.16-.107-.319-.158-.479a8.046 8.046 0 0 0-.956-.305c.2.342.595.467.919.656l-.38.334-.037.442c-.828-.424-1.739-.698-2.492-1.255.348.02.694.07 1.04.106a7.323 7.323 0 0 0-1.54-.857zm-1.047 5.819l.002.697c4.002-.002 8.004 0 12.006 0v-.696c-1.114-.002-2.227.002-3.341-.004l-.144.242a82.763 82.763 0 0 1-.53-.037c-.151-.106-.31-.222-.504-.2-1.093-.014-2.188.01-3.282-.007l-.134.236a21.001 21.001 0 0 0-.502 0 28.55 28.55 0 0 1-.137-.235c-1.145.008-2.29.001-3.434.004z"/>
    <path fill="#ffdb00" d="M4.826 10.458c.691-.458 1.606-.169 2.089.452-.544.26-1.093.509-1.639.763.535.307 1.073.608 1.604.922-.508.648-1.501.87-2.17.335-.835-.576-.768-1.974.115-2.472zM8.21 10.513l2.336 1.064c-.829.407-1.633.871-2.491 1.22.151-.126.306-.247.462-.368l-.289-.214-.202.433c.03-.715.113-1.426.184-2.136zM7.282 10.934c.224-.101.449-.2.672-.301-.07.724-.145 1.446-.22 2.168l-.5-.27c.187-.516.21-1.072.048-1.597z"/>
    <path fill="#ffdb00" d="M5.73 11.659c.428-.204.858-.404 1.294-.593a2.54 2.54 0 0 1-.035 1.312 71.507 71.507 0 0 1-1.259-.719z"/>
</svg>
