<!-- Generated by IcoMoon.io -->
<svg version="1.1" xmlns="http://www.w3.org/2000/svg" width="28" height="24" viewBox="0 0 28 24">
<title>warning--winding-road-first-right--g2</title>
<path fill="#fe0303" d="M13.369 0.298c0.68-0.233 1.57-0.031 1.884 0.674 3.988 6.76 7.949 13.539 11.821 20.367 0.552 0.817 0.619 1.935-0.123 2.661h-25.769c-0.424-0.354-0.936-0.864-0.703-1.472 0.443-1.416 1.34-2.632 2.031-3.932 3.188-5.39 6.155-10.907 9.392-16.267 0.462-0.692 0.838-1.472 1.468-2.031M7.358 16.234c-0.82 1.55-1.849 2.99-2.533 4.609 6.1 0.043 12.2 0.029 18.3 0.010-0.671-1.422-1.447-2.791-2.234-4.154-2.105-3.751-4.206-7.504-6.427-11.187-0.158-0.259-0.4-0.445-0.628-0.637-2.188 3.768-4.337 7.563-6.477 11.359z"></path>
<path fill="#fefefe" d="M7.358 16.234c2.141-3.796 4.289-7.591 6.477-11.359 0.229 0.191 0.47 0.377 0.628 0.637 2.221 3.683 4.323 7.436 6.427 11.187 0.787 1.362 1.562 2.732 2.234 4.154-6.1 0.019-12.2 0.033-18.3-0.010 0.684-1.619 1.713-3.059 2.533-4.609M12.247 11.266c-0.916 0.509-1.999 0.978-2.45 1.996-0.49 0.904 0.305 2.109 1.282 2.196 1.404 0.204 2.84 0.239 4.206 0.652-1.151 0.916-2.532 1.471-3.772 2.246 0.344 0.619 0.721 1.218 1.089 1.821 0.966-0.254 1.763-0.875 2.628-1.343 1.1-0.676 2.32-1.151 3.363-1.921 0.731-0.54 0.756-1.96-0.158-2.325-1.679-0.61-3.501-0.527-5.216-0.988 1.2-0.889 2.518-1.602 3.844-2.281-0.257-0.753-0.717-1.412-1.1-2.103-1.299 0.573-2.444 1.425-3.715 2.049z"></path>
<path fill="#030303" d="M12.247 11.266c1.271-0.624 2.417-1.476 3.715-2.049 0.383 0.691 0.843 1.35 1.1 2.103-1.326 0.678-2.644 1.391-3.844 2.281 1.715 0.461 3.538 0.377 5.216 0.988 0.914 0.365 0.889 1.785 0.158 2.325-1.043 0.77-2.263 1.246-3.363 1.921-0.864 0.468-1.662 1.089-2.628 1.343-0.368-0.603-0.745-1.203-1.089-1.821 1.24-0.775 2.621-1.33 3.772-2.246-1.366-0.413-2.802-0.448-4.206-0.652-0.977-0.087-1.772-1.292-1.282-2.196 0.451-1.018 1.534-1.487 2.45-1.996z"></path>
</svg>
