<!-- Generated by IcoMoon.io -->
<svg version="1.1" xmlns="http://www.w3.org/2000/svg" width="24" height="24" viewBox="0 0 24 24">
<title>warning--rabbit-crossing--g1</title>
<path fill="#fcdc0f" d="M11.848 0h0.306c0.666 0.516 1.207 1.17 1.818 1.748 3.335 3.367 6.736 6.673 10.028 10.079v0.359c-3.894 3.976-7.841 7.912-11.809 11.814h-0.353c-0.629-0.514-1.162-1.132-1.746-1.692-3.356-3.388-6.778-6.713-10.092-10.138v-0.308c0.508-0.642 1.133-1.176 1.698-1.765 3.392-3.355 6.713-6.79 10.15-10.097M0.586 12.010c3.814 3.798 7.612 7.613 11.424 11.412 3.809-3.803 7.609-7.613 11.42-11.412-3.804-3.811-7.616-7.615-11.42-11.426-3.808 3.809-7.618 7.615-11.424 11.426z"></path>
<path fill="#fcdc0f" d="M11.557 1.835c0.478-0.239 1.037-0.022 1.376 0.349 2.98 2.982 5.964 5.96 8.942 8.945 0.488 0.424 0.545 1.23 0.061 1.682-3.014 3.028-6.042 6.043-9.061 9.067-0.424 0.493-1.232 0.539-1.679 0.052-3.028-3.016-6.043-6.044-9.070-9.062-0.515-0.443-0.506-1.289 0.005-1.73 2.956-2.965 5.924-5.92 8.879-8.887 0.166-0.157 0.336-0.317 0.546-0.415M13.919 6.611c-0.45 1.432-0.074 2.952 0.259 4.367-0.067 0.066-0.203 0.198-0.27 0.265-0.841-1.859-3.023-2.713-4.962-2.368-0.025-0.514-0.568-0.878-1.033-0.608-0.46 0.223-0.373 0.808-0.144 1.169-0.245 0.418-0.395 0.88-0.499 1.35-0.45-0.038-0.794-0.378-1.229-0.445-0.168 0.19-0.268 0.425-0.377 0.65 0.56 0.16 1.232 0.011 1.639 0.52-0.355 0.58-1.016 0.463-1.386-0.029-0.416-0.545-1.322 0.26-0.821 0.715 0.217 0.014 0.431-0.037 0.643-0.076 0.876 0.937 2.218 1.374 3.48 1.261 0.674-0.058 1.045-0.698 1.475-1.13-0.156 0.308-0.347 0.598-0.55 0.877 1.001 0.836 2.31 1.11 3.554 1.362 0.18 0.718 0.388 2.184 1.447 1.811-0.199-0.392-0.421-0.773-0.589-1.18 1.040 0.416 0.684 1.894 1.693 2.298 0.365-0.538-0.265-1.026-0.203-1.586 0-0.672-0.239-1.306-0.611-1.855 0.475-0.065 1.099-0.060 1.342-0.564 0.403-0.907-0.072-2.004-0.959-2.413 0.59-1.373 0.398-3.020-0.326-4.306-0.218 0.445-0.431 0.894-0.631 1.349-0.266-0.509-0.568-1-0.943-1.434z"></path>
<path fill="#fcdc0f" d="M15.259 9.004c0.196 0.608 0.337 1.253 0.24 1.894-0.162-0.617-0.208-1.259-0.24-1.894z"></path>
<path fill="#fcdc0f" d="M14.771 9.151c0.286 0.518 0.362 1.109 0.406 1.69-0.064 0.022-0.188 0.064-0.251 0.084-0.049-0.592-0.14-1.18-0.155-1.774z"></path>
<path fill="#fcdc0f" d="M15.982 11.902c0.191-0.061 0.272 0.257 0.078 0.299-0.19 0.060-0.274-0.258-0.078-0.299z"></path>
<path fill="#000" d="M0.586 12.010c3.806-3.811 7.616-7.618 11.424-11.426 3.804 3.811 7.616 7.615 11.42 11.426-3.811 3.799-7.612 7.609-11.42 11.412-3.812-3.799-7.61-7.614-11.424-11.412M11.557 1.835c-0.21 0.098-0.38 0.258-0.546 0.415-2.954 2.968-5.923 5.922-8.879 8.887-0.511 0.442-0.52 1.288-0.005 1.73 3.026 3.018 6.042 6.047 9.070 9.062 0.446 0.487 1.255 0.442 1.679-0.052 3.019-3.024 6.047-6.040 9.061-9.067 0.484-0.452 0.427-1.259-0.061-1.682-2.978-2.984-5.963-5.963-8.942-8.945-0.34-0.371-0.899-0.588-1.376-0.349z"></path>
<path fill="#000" d="M13.919 6.611c0.376 0.434 0.677 0.925 0.943 1.434 0.2-0.455 0.413-0.904 0.631-1.349 0.725 1.285 0.917 2.933 0.326 4.306 0.887 0.409 1.362 1.506 0.959 2.413-0.242 0.504-0.866 0.499-1.342 0.564 0.372 0.55 0.611 1.183 0.611 1.855-0.062 0.56 0.568 1.049 0.203 1.586-1.009-0.404-0.653-1.882-1.693-2.298 0.168 0.407 0.39 0.787 0.589 1.18-1.060 0.373-1.267-1.093-1.447-1.811-1.244-0.252-2.554-0.526-3.554-1.362 0.203-0.28 0.394-0.569 0.55-0.877-0.43 0.432-0.8 1.073-1.475 1.13-1.262 0.113-2.604-0.324-3.48-1.261-0.212 0.038-0.426 0.090-0.643 0.076-0.502-0.455 0.404-1.26 0.821-0.715 0.37 0.492 1.031 0.608 1.386 0.029-0.407-0.509-1.079-0.36-1.639-0.52 0.109-0.226 0.209-0.461 0.377-0.65 0.434 0.067 0.779 0.407 1.229 0.445 0.104-0.47 0.254-0.932 0.499-1.35-0.229-0.361-0.316-0.946 0.144-1.169 0.466-0.27 1.008 0.095 1.033 0.608 1.939-0.346 4.121 0.509 4.962 2.368 0.067-0.067 0.203-0.199 0.27-0.265-0.334-1.415-0.709-2.935-0.259-4.367M15.259 9.004c0.032 0.635 0.078 1.277 0.24 1.894 0.097-0.641-0.044-1.285-0.24-1.894M14.771 9.151c0.014 0.594 0.106 1.182 0.155 1.774 0.062-0.020 0.187-0.062 0.251-0.084-0.043-0.581-0.12-1.171-0.406-1.69M15.982 11.902c-0.196 0.041-0.112 0.359 0.078 0.299 0.194-0.042 0.113-0.36-0.078-0.299z"></path>
</svg>
