<svg xmlns="http://www.w3.org/2000/svg" width="24" height="24">
    <path fill="#231f20" d="M11.448.907c.625-.13 1.271.119 1.709.57 3.313 3.168 6.64 6.323 9.937 9.506.769.727.599 2.033-.203 2.668-3.127 3.114-6.241 6.242-9.367 9.359-.679.696-1.907.72-2.59.016-3.332-3.19-6.671-6.373-10.003-9.562-.726-.66-.677-1.89.032-2.544 3.049-3.07 6.119-6.12 9.174-9.184.364-.371.776-.748 1.31-.829zm-.244.355c-.295.113-.532.331-.755.547-3.092 3.109-6.204 6.198-9.293 9.308-.607.55-.649 1.596-.032 2.153l10.008 9.562c.582.602 1.619.574 2.198-.016 3.168-3.156 6.324-6.324 9.49-9.481.636-.565.679-1.652.023-2.218-3.284-3.157-6.586-6.296-9.877-9.445-.443-.469-1.156-.668-1.762-.41z"/>
    <path fill="#231f20" d="M11.323 1.619c.637-.184 1.334.034 1.789.505 3.092 2.948 6.182 5.899 9.264 8.857.684.62.691 1.782.032 2.422-2.975 2.989-5.963 5.964-8.942 8.947-.65.668-1.826.697-2.489.03-3.126-2.994-6.26-5.981-9.386-8.976-.678-.632-.632-1.796.031-2.423 2.828-2.85 5.678-5.68 8.515-8.524.343-.341.696-.722 1.186-.839zm.238.339c-.391.058-.704.318-.973.589-2.893 2.909-5.809 5.795-8.696 8.71-.545.509-.544 1.452.028 1.942 3.115 2.968 6.223 5.942 9.336 8.912.518.521 1.434.485 1.942-.035 2.981-2.978 5.963-5.957 8.939-8.94.54-.526.493-1.465-.086-1.944-3.04-2.922-6.098-5.826-9.145-8.742-.344-.356-.839-.6-1.343-.492z"/>
    <path fill="#fff100" d="M11.204 1.262c.606-.258 1.319-.059 1.762.41 3.292 3.149 6.593 6.288 9.877 9.445.656.565.613 1.652-.023 2.218-3.166 3.157-6.322 6.325-9.49 9.481-.58.589-1.616.618-2.198.016L1.124 13.27c-.617-.557-.575-1.603.032-2.153 3.089-3.11 6.2-6.199 9.293-9.308.223-.216.46-.434.755-.547zm.119.357c-.49.116-.842.498-1.186.839C7.3 5.302 4.45 8.132 1.622 10.982c-.664.626-.709 1.79-.031 2.423 3.126 2.995 6.26 5.982 9.386 8.976.662.667 1.838.638 2.489-.03 2.98-2.983 5.968-5.958 8.942-8.947.659-.64.652-1.801-.032-2.422a3872.816 3872.816 0 0 0-9.264-8.857c-.455-.472-1.152-.689-1.789-.505z"/>
    <path fill="#fff100" d="M11.561 1.958c.504-.108.998.136 1.343.492 3.047 2.916 6.106 5.82 9.145 8.742.58.479.626 1.418.086 1.944a7534.428 7534.428 0 0 1-8.939 8.94c-.508.52-1.423.556-1.942.035-3.113-2.97-6.221-5.945-9.336-8.912-.571-.49-.572-1.433-.028-1.942 2.887-2.915 5.803-5.801 8.696-8.71.269-.271.582-.532.973-.589zm.659 4.922c-.076.172.222.301.358.238.062-.166-.223-.307-.358-.238zm-.794.081c-.116.556.557-.122 0 0zm1.288.167c-.122.568.545-.144 0 0zm-1.733.096c-.119.474.481-.053 0 0zm.909.02c-.184.36.402.016 0 0zm-.436.357c-.166.592.619.014 0 0zm.79-.013c-.115.558.553-.124 0 0zm-1.398.106c.24.458.516-.282 0 0zm2.012-.021c-.112.157.149.386.3.283.101-.162-.142-.402-.3-.283zm-2.284.297c-.157.018-.239.253-.115.358.212.12.37-.343.115-.358zm1.829.105c-.116.554.556-.128 0 0zm-.998.141c-.104.48.479-.095 0 0zm.739.228c-.125.553.557-.118 0 0zm.604-.024c-.124.554.558-.121 0 0zm-1.803.126c-.145.138.046.463.234.398.126-.143-.031-.484-.234-.398zm2.391.014c-.199.619.59.002 0 0zm-2.742.324c-.154.115-.005.455.181.31.152-.115.006-.455-.181-.31zm1.921-.008c-.251.614.592-.018 0 0zm-.99.246c-.115.556.556-.109 0 0zm1.472-.004c-.122.559.552-.119 0 0zm-.957.289c-.137.562.553-.138 0 0zm.574-.018c-.418.46.593.186 0 0zm.717.002c-.126.558.553-.115 0 0zm-3.052.1c-.042.599.613-.24 0 0zm.669.024c-.419.276.386.277 0 0zm-.598.379l-.266.263.468.007c-.067-.091-.133-.18-.202-.27zm.454.011c-.208.587.63-.059 0 0zm.47.023c-.125.157.115.401.276.286.118-.148-.125-.408-.276-.286zm.463-.008c-.191.172.132.39.281.233.193-.17-.133-.396-.281-.233zm.562-.055c-.192.167.119.406.271.241.188-.162-.124-.408-.271-.241zm.469.009c-.114.577.536-.139 0 0zm.858.006c-.119.482.475-.072 0 0zm-4.348.427c-.572 2.449-1.147 4.898-1.716 7.348.395.001.79.002 1.184 0 .431-2.452.858-4.904 1.282-7.358-.251.001-.5.005-.75.011zm.89-.003c-.38 2.449-.761 4.9-1.135 7.35.899.002 1.799.002 2.698 0 .018-.568.034-1.135.053-1.703l.404.001c.017.568.034 1.135.053 1.702.899.002 1.798.004 2.696 0-.376-2.452-.755-4.902-1.136-7.352-.557-.011-1.114.001-1.67.005l-.005.516-.281.002-.005-.512c-.557-.011-1.115-.034-1.672-.008zm3.806-.002c.425 2.452.85 4.902 1.282 7.352.395.002.79.001 1.184.001-.57-2.45-1.144-4.9-1.717-7.35-.25-.002-.499-.004-.749-.004z"/>
    <path fill="#fff100" d="M11.834 11.28h.3l.017.791-.334.002c.005-.265.01-.529.017-.793zM11.831 13.019l.302-.007c.018.409.028.818.042 1.228l-.376.018c.006-.413.018-.826.031-1.238z"/>
    <path d="M12.22 6.88c.134-.07.42.072.358.238-.136.064-.433-.066-.358-.238zM12.714 7.128c.545-.144-.122.568 0 0zM11.454 7.601c.619.014-.166.592 0 0zM10.846 7.694c.516-.282.24.458 0 0zM12.858 7.673c.158-.119.401.121.3.283-.151.103-.412-.126-.3-.283zM10.574 7.97c.254.014.097.478-.115.358-.124-.104-.042-.34.115-.358zM10.945 8.546c.203-.085.36.256.234.398-.188.065-.379-.26-.234-.398zM12.614 9.389c.593.186-.418.46 0 0zM10.279 9.491c.613-.24-.042.599 0 0zM10.35 9.894l.202.27-.468-.007.266-.263zM10.804 9.905c.63-.059-.208.587 0 0zM11.274 9.928c.151-.122.394.138.276.286-.161.115-.401-.128-.276-.286zM11.737 9.92c.148-.163.474.062.281.233-.149.157-.472-.061-.281-.233zM12.299 9.865c.148-.167.46.079.271.241-.152.164-.463-.074-.271-.241zM12.768 9.874c.536-.139-.114.577 0 0zM9.278 10.307c.25-.006.499-.01.75-.011-.424 2.454-.851 4.907-1.282 7.358-.395.002-.79.001-1.184 0 .569-2.449 1.144-4.898 1.716-7.348zM10.168 10.304c.557-.025 1.115-.002 1.672.008l.005.512.281-.002c.001-.172.002-.344.005-.516.557-.004 1.114-.016 1.67-.005.382 2.45.761 4.901 1.136 7.352-.899.004-1.798.002-2.696 0-.019-.566-.036-1.134-.053-1.702l-.404-.001c-.019.568-.035 1.135-.053 1.703-.899.002-1.799.002-2.698 0 .374-2.45.755-4.901 1.135-7.35zm1.666.976c-.007.264-.012.528-.017.793l.334-.002-.017-.791h-.3zm-.003 1.739c-.013.413-.025.826-.031 1.238l.376-.018c-.014-.409-.024-.818-.042-1.228l-.302.007zM13.974 10.302c.25 0 .499.001.749.004.574 2.45 1.147 4.9 1.717 7.35-.395 0-.79.001-1.184-.001-.432-2.45-.857-4.901-1.282-7.352z"/>
    <path fill="#363300" d="M11.426 6.961c.557-.122-.116.556 0 0z"/>
    <path fill="#474300" d="M10.981 7.224c.481-.053-.119.474 0 0z"/>
    <path fill="#333000" d="M11.89 7.244c.402.016-.184.36 0 0z"/>
    <path fill="#676200" d="M12.244 7.588c.553-.124-.115.558 0 0z"/>
    <path fill="#212000" d="M12.403 8.075c.556-.128-.116.554 0 0zM12.515 8.876c.592-.018-.251.614 0 0z"/>
    <path fill="#312f00" d="M11.405 8.216c.479-.095-.104.48 0 0z"/>
    <path fill="#232100" d="M12.144 8.444c.557-.118-.125.553 0 0z"/>
    <path fill="#110" d="M12.748 8.42c.558-.121-.124.554 0 0zM11.525 9.122c.556-.109-.115.556 0 0z"/>
    <path fill="#635d00" d="M13.336 8.56c.59.002-.199.619 0 0z"/>
    <path fill="#2b2900" d="M10.594 8.884c.187-.145.334.194.181.31-.186.145-.335-.194-.181-.31z"/>
    <path fill="#353200" d="M12.997 9.118c.552-.119-.122.559 0 0z"/>
    <path fill="#373400" d="M12.04 9.407c.553-.138-.137.562 0 0z"/>
    <path fill="#272500" d="M13.331 9.391c.553-.115-.126.558 0 0z"/>
    <path fill="#171600" d="M10.948 9.515c.386.277-.419.276 0 0z"/>
    <path fill="#393600" d="M13.626 9.88c.475-.072-.119.482 0 0z"/>
</svg>
