<?xml version="1.0" encoding="utf-8"?>
<!-- Generated by IcoMoon.io -->
<!DOCTYPE svg PUBLIC "-//W3C//DTD SVG 1.1//EN" "http://www.w3.org/Graphics/SVG/1.1/DTD/svg11.dtd">
<svg version="1.1" xmlns="http://www.w3.org/2000/svg" xmlns:xlink="http://www.w3.org/1999/xlink" width="27" height="24" viewBox="0 0 27 24">
<path fill="#fff" d="M1.334 23.96c-0.462 0-0.889-0.247-1.121-0.647s-0.231-0.894 0-1.294l12.316-21.331c0.231-0.4 0.658-0.647 1.12-0.647s0.889 0.247 1.121 0.647l12.316 21.331c0.231 0.4 0.231 0.894 0 1.294s-0.658 0.647-1.12 0.647h-24.631z"></path>
<path fill="#c1121c" d="M1.334 23.474h24.631c0.289 0 0.556-0.154 0.7-0.404s0.144-0.558 0-0.809l-12.316-21.331c-0.145-0.25-0.411-0.404-0.7-0.404s-0.556 0.154-0.7 0.404l-12.316 21.331c-0.145 0.25-0.145 0.558 0 0.809s0.411 0.404 0.7 0.404zM4.136 21.048l9.514-16.479 9.514 16.479h-19.028z"></path>
<path fill="#000" d="M14.135 11.249l2.762 0.753 0.004 0.014v-0.105h0.443v8.66l-0.443 0.003v-8.064l-0.666 2.409-6.911 2.872c-0.055 0.023-0.088 0.068-0.174 0.060-0.715-0.413-1.106-1.071-1.124-1.874 0.58-0.496 4.072-3.152 6.108-4.729zM14.637 11.676c0.717 0.524 1.341 1.305 1.557 2.629l0.507-2.129-2.065-0.5zM12.872 12.611l-1.189 0.892c0.929 0.512 1.358 1.431 1.417 2.46l1.328-0.56c-0.020-0.88-0.26-1.884-1.557-2.792zM10.37 14.487l-1.070 0.803c0.588 0.497 0.861 1.145 1.078 1.82l1.209-0.509c-0.126-0.783-0.423-1.518-1.217-2.114zM8.278 16.057l-0.046 0.034-0.010-0.006c0.078 0.65 0.452 1.119 0.894 1.555l0.037-0.016c-0.124-0.584-0.426-1.102-0.875-1.568z"></path>
</svg>
