<?xml version="1.0" encoding="utf-8"?>
<!-- Generated by IcoMoon.io -->
<!DOCTYPE svg PUBLIC "-//W3C//DTD SVG 1.1//EN" "http://www.w3.org/Graphics/SVG/1.1/DTD/svg11.dtd">
<svg version="1.1" xmlns="http://www.w3.org/2000/svg" xmlns:xlink="http://www.w3.org/1999/xlink" width="24" height="24" viewBox="0 0 24 24">
<path fill="#ffd520" d="M11.543 0.131c0.388-0.22 0.889-0.096 1.178 0.228 3.623 3.617 7.236 7.243 10.858 10.861 0.244 0.228 0.425 0.553 0.361 0.899-0.054 0.41-0.414 0.665-0.679 0.944-3.523 3.518-7.043 7.040-10.562 10.561-0.206 0.221-0.506 0.359-0.812 0.317-0.394-0.020-0.642-0.355-0.901-0.606-3.556-3.564-7.124-7.115-10.679-10.679-0.396-0.367-0.366-1.038 0.038-1.386 3.514-3.524 7.039-7.038 10.554-10.562 0.206-0.2 0.397-0.426 0.644-0.577M11.671 0.277c-0.293 0.176-0.511 0.446-0.756 0.682-3.358 3.359-6.716 6.719-10.078 10.075-0.214 0.226-0.478 0.426-0.594 0.724-0.104 0.298 0.031 0.616 0.254 0.817 3.623 3.618 7.246 7.238 10.864 10.862 0.17 0.172 0.383 0.338 0.641 0.316 0.378-0.002 0.606-0.343 0.857-0.574 3.416-3.424 6.836-6.841 10.259-10.259 0.25-0.271 0.629-0.515 0.632-0.924 0.022-0.284-0.18-0.511-0.365-0.701-3.605-3.596-7.2-7.201-10.804-10.798-0.223-0.251-0.598-0.379-0.911-0.221z"></path>
<path fill="#ffd520" d="M11.783 0.618c0.215-0.163 0.464 0.018 0.614 0.179 3.582 3.583 7.163 7.168 10.747 10.748 0.137 0.146 0.33 0.334 0.239 0.556-0.152 0.275-0.416 0.464-0.629 0.691-3.462 3.462-6.925 6.923-10.384 10.388-0.131 0.132-0.287 0.266-0.488 0.215-0.233-0.114-0.395-0.328-0.58-0.503-3.534-3.548-7.087-7.078-10.615-10.631-0.298-0.264-0.007-0.606 0.215-0.8 3.4-3.4 6.798-6.799 10.198-10.2 0.224-0.217 0.427-0.461 0.683-0.643M9.113 7.318c-0.136 0.113-0.265 0.268-0.458 0.262-0.85 0.084-1.702 0.134-2.544 0.281-0.044 0.553-0.198 1.103-0.12 1.66 0.462 0 0.923 0.008 1.385 0.010 0.056-0.535 0.456-1.052 1.027-1.064 0.611-0.060 1.108 0.466 1.163 1.048 1.41-0.001 2.82 0.001 4.23-0.002 0.052-0.557 0.492-1.092 1.085-1.073 0.602-0.035 1.048 0.506 1.114 1.067 0.719 0.004 1.438-0.011 2.155-0.010-0.198-0.575-0.371-1.156-0.48-1.754-0.676-0.059-1.352-0.116-2.029-0.176-0.455-0.444-0.846-0.96-1.34-1.36-1.318-0.031-2.638-0.002-3.956-0.012-0.413 0.372-0.822 0.748-1.23 1.126M14.69 8.705c-0.544 0.127-0.796 0.852-0.444 1.288 0.342 0.512 1.223 0.397 1.422-0.187 0.276-0.593-0.359-1.298-0.978-1.1M8.076 8.789c-0.526 0.274-0.542 1.104-0.035 1.405 0.487 0.34 1.231-0.023 1.264-0.614 0.090-0.631-0.688-1.146-1.229-0.791M9.418 12.053c-0.215 0.383 0.354 0.552 0.372 0.889-0.083 0.358-0.234 0.695-0.355 1.039-1.097-0.302-2.322 0.485-2.466 1.618-0.203 1.087 0.686 2.196 1.784 2.258 1.080 0.118 2.125-0.812 2.129-1.901 0.042-0.791-0.46-1.511-1.142-1.872 0.037-0.085 0.074-0.17 0.11-0.256 0.796 0.67 1.586 1.344 2.386 2.009 0.25 0.252 0.619 0.164 0.937 0.18 0.089 0.554 0.335 1.104 0.8 1.442 0.77 0.616 1.988 0.506 2.636-0.236 0.688-0.708 0.688-1.936 0.011-2.65-0.541-0.63-1.465-0.792-2.228-0.515-0.182-0.325-0.382-0.642-0.542-0.979 0.18-0.274 0.583-0.356 0.698-0.706-0.568-0.020-1.138-0.030-1.704 0.010 0.222 0.185 0.482 0.311 0.743 0.432-0.029 0.066-0.088 0.198-0.116 0.264-1.108 0-2.214 0-3.32 0 0.001-0.376-0.205-0.679-0.472-0.924 0.275 0.019 0.551 0.043 0.826 0.067 0.028-0.077 0.084-0.23 0.112-0.308-0.383 0.018-0.958-0.295-1.198 0.138z"></path>
<path fill="#ffd520" d="M9.247 7.55c0.395-0.362 0.792-0.722 1.193-1.079 0.553 0.001 1.108 0 1.662 0.001 0 0.359 0 0.719 0 1.079-0.952 0-1.903 0.002-2.855-0.001z"></path>
<path fill="#ffd520" d="M12.437 6.456c0.432 0 0.863 0 1.295 0 0.139 0.359 0.276 0.719 0.414 1.079-0.57 0.002-1.14 0.001-1.71 0.001 0-0.36 0-0.72 0.001-1.080z"></path>
<path fill="#ffd520" d="M9.934 13.433c1.139-0.019 2.278-0.004 3.416-0.008-0.299 0.726-0.596 1.452-0.893 2.179-0.833-0.733-1.704-1.422-2.524-2.171z"></path>
<path fill="#ffd520" d="M13.674 13.498c0.144 0.239 0.288 0.479 0.431 0.719-0.485 0.347-0.814 0.866-0.917 1.454-0.106 0-0.317 0.001-0.424 0.001 0.304-0.725 0.605-1.451 0.91-2.174z"></path>
<path fill="#ffd520" d="M7.427 15.482c0.198-0.808 1.085-1.285 1.88-1.112-0.175 0.53-0.43 1.036-0.563 1.579l0.037 0.088c0.054 0.014 0.161 0.041 0.215 0.055 0.262-0.512 0.402-1.076 0.619-1.608 0.557 0.317 0.959 0.935 0.857 1.592-0.078 0.868-0.984 1.548-1.84 1.354-0.869-0.139-1.481-1.104-1.206-1.948z"></path>
<path fill="#ffd520" d="M14.615 14.434c0.798-0.286 1.775 0.134 2.029 0.961 0.354 0.934-0.403 2.054-1.405 2.059-0.832 0.064-1.54-0.628-1.646-1.426 0.57-0.020 1.142 0.025 1.711-0.022 0.026-0.036 0.079-0.108 0.106-0.144-0.226-0.497-0.54-0.947-0.794-1.429z"></path>
<path fill="#ffd520" d="M13.59 15.665c0.119-0.43 0.364-0.805 0.703-1.092 0.221 0.365 0.437 0.731 0.653 1.098-0.451 0.001-0.904 0.005-1.356-0.006z"></path>
<path fill="#000" d="M11.671 0.277c0.313-0.158 0.688-0.030 0.911 0.221 3.604 3.596 7.199 7.201 10.804 10.798 0.185 0.19 0.386 0.416 0.365 0.701-0.004 0.409-0.383 0.653-0.632 0.924-3.422 3.418-6.842 6.835-10.259 10.259-0.251 0.23-0.479 0.571-0.857 0.574-0.258 0.023-0.47-0.144-0.641-0.316-3.618-3.624-7.241-7.244-10.864-10.862-0.223-0.202-0.359-0.52-0.254-0.817 0.116-0.298 0.38-0.498 0.594-0.724 3.361-3.356 6.72-6.716 10.078-10.075 0.245-0.235 0.463-0.505 0.756-0.682M11.783 0.618c-0.256 0.182-0.458 0.426-0.683 0.643-3.4 3.401-6.798 6.8-10.198 10.2-0.222 0.194-0.512 0.536-0.215 0.8 3.528 3.553 7.081 7.082 10.615 10.631 0.185 0.175 0.347 0.389 0.58 0.503 0.202 0.052 0.358-0.083 0.488-0.215 3.458-3.466 6.922-6.926 10.384-10.388 0.212-0.227 0.476-0.416 0.629-0.691 0.091-0.222-0.102-0.409-0.239-0.556-3.584-3.581-7.165-7.165-10.747-10.748-0.15-0.161-0.4-0.342-0.614-0.179z"></path>
<path fill="#000" d="M9.113 7.318c0.408-0.378 0.817-0.754 1.23-1.126 1.319 0.010 2.639-0.019 3.956 0.012 0.494 0.4 0.886 0.916 1.34 1.36 0.677 0.060 1.354 0.118 2.029 0.176 0.109 0.599 0.282 1.18 0.48 1.754-0.718-0.001-1.436 0.013-2.155 0.010-0.066-0.56-0.511-1.102-1.114-1.067-0.593-0.019-1.033 0.516-1.085 1.073-1.41 0.004-2.82 0.001-4.23 0.002-0.055-0.582-0.552-1.108-1.163-1.048-0.571 0.012-0.971 0.529-1.027 1.064-0.462-0.001-0.923-0.010-1.385-0.010-0.078-0.557 0.076-1.106 0.12-1.66 0.842-0.146 1.694-0.197 2.544-0.281 0.193 0.006 0.323-0.149 0.458-0.262M9.247 7.55c0.952 0.004 1.903 0.001 2.855 0.001 0-0.36 0-0.72 0-1.079-0.554-0.001-1.109 0-1.662-0.001-0.401 0.356-0.798 0.716-1.193 1.079M12.437 6.456c-0.001 0.36-0.001 0.72-0.001 1.080 0.57 0 1.14 0.001 1.71-0.001-0.138-0.36-0.275-0.72-0.414-1.079-0.432 0-0.863 0-1.295 0z"></path>
<path fill="#000" d="M14.69 8.705c0.619-0.198 1.254 0.508 0.978 1.1-0.199 0.584-1.080 0.7-1.422 0.187-0.352-0.436-0.1-1.16 0.444-1.288z"></path>
<path fill="#000" d="M8.076 8.789c0.541-0.355 1.319 0.16 1.229 0.791-0.032 0.592-0.776 0.954-1.264 0.614-0.508-0.301-0.491-1.132 0.035-1.405z"></path>
<path fill="#000" d="M9.418 12.053c0.24-0.433 0.815-0.12 1.198-0.138-0.028 0.078-0.084 0.232-0.112 0.308-0.275-0.024-0.551-0.048-0.826-0.067 0.266 0.245 0.473 0.548 0.472 0.924 1.106 0 2.213 0 3.32 0 0.029-0.066 0.088-0.198 0.116-0.264-0.26-0.121-0.521-0.247-0.743-0.432 0.566-0.040 1.136-0.030 1.704-0.010-0.115 0.349-0.518 0.432-0.698 0.706 0.161 0.337 0.36 0.654 0.542 0.979 0.763-0.277 1.687-0.115 2.228 0.515 0.677 0.714 0.677 1.942-0.011 2.65-0.648 0.743-1.866 0.852-2.636 0.236-0.466-0.338-0.712-0.888-0.8-1.442-0.318-0.016-0.688 0.072-0.937-0.18-0.799-0.665-1.59-1.339-2.386-2.009-0.036 0.085-0.073 0.17-0.11 0.256 0.683 0.361 1.184 1.081 1.142 1.872-0.004 1.088-1.049 2.018-2.129 1.901-1.098-0.062-1.987-1.171-1.784-2.258 0.144-1.133 1.369-1.92 2.466-1.618 0.121-0.344 0.272-0.682 0.355-1.039-0.018-0.337-0.587-0.506-0.372-0.889M9.934 13.433c0.82 0.749 1.691 1.438 2.524 2.171 0.296-0.727 0.594-1.453 0.893-2.179-1.139 0.005-2.278-0.011-3.416 0.008M13.674 13.498c-0.305 0.724-0.606 1.45-0.91 2.174 0.107 0 0.318-0.001 0.424-0.001 0.103-0.588 0.432-1.108 0.917-1.454-0.143-0.24-0.287-0.48-0.431-0.719M7.427 15.482c-0.275 0.844 0.337 1.808 1.206 1.948 0.856 0.194 1.762-0.486 1.84-1.354 0.102-0.658-0.3-1.276-0.857-1.592-0.217 0.532-0.358 1.096-0.619 1.608-0.054-0.014-0.161-0.041-0.215-0.055l-0.037-0.088c0.133-0.544 0.388-1.049 0.563-1.579-0.796-0.173-1.682 0.305-1.88 1.112M14.615 14.434c0.254 0.482 0.569 0.932 0.794 1.429-0.026 0.036-0.079 0.108-0.106 0.144-0.569 0.047-1.141 0.001-1.711 0.022 0.107 0.798 0.815 1.489 1.646 1.426 1.002-0.005 1.759-1.126 1.405-2.059-0.254-0.827-1.231-1.247-2.029-0.961M13.59 15.665c0.452 0.011 0.905 0.007 1.356 0.006-0.216-0.367-0.432-0.733-0.653-1.098-0.34 0.287-0.584 0.662-0.703 1.092z"></path>
</svg>
