<?xml version="1.0" encoding="utf-8"?>
<!-- Generated by IcoMoon.io -->
<!DOCTYPE svg PUBLIC "-//W3C//DTD SVG 1.1//EN" "http://www.w3.org/Graphics/SVG/1.1/DTD/svg11.dtd">
<svg version="1.1" xmlns="http://www.w3.org/2000/svg" xmlns:xlink="http://www.w3.org/1999/xlink" width="24" height="24" viewBox="0 0 24 24">
<path fill="#ee1c23" d="M11.897 1.5h0.143c0.329 0.054 0.522 0.331 0.672 0.601 3.553 6.172 7.112 12.338 10.668 18.509 0.222 0.392 0.482 0.769 0.62 1.204v0.176c-0.061 0.287-0.308 0.449-0.58 0.51h-22.819c-0.268-0.055-0.521-0.199-0.601-0.475v-0.198c0.055-0.185 0.131-0.364 0.224-0.533 3.614-6.268 7.226-12.535 10.838-18.804 0.227-0.365 0.392-0.835 0.834-0.99M11.912 6.028c-2.684 4.655-5.369 9.31-8.051 13.967 5.426 0.004 10.853 0 16.279 0.002-2.665-4.621-5.332-9.242-7.991-13.866-0.043-0.068-0.185-0.334-0.238-0.103z"></path>
<path fill="#fff" d="M11.912 6.028c0.053-0.23 0.194 0.035 0.238 0.103 2.659 4.624 5.326 9.245 7.991 13.866-5.426-0.002-10.853 0.001-16.279-0.002 2.682-4.657 5.366-9.312 8.051-13.967M11.686 9.242c-0.486 0.127-0.821 0.629-0.78 1.126 0.098 1.727 0.202 3.454 0.317 5.179 0.014 0.509 0.613 0.872 1.073 0.658 0.312-0.116 0.496-0.44 0.492-0.766 0.101-1.692 0.214-3.383 0.306-5.075 0.074-0.733-0.708-1.363-1.408-1.122M11.664 16.985c-0.502 0.157-0.85 0.701-0.745 1.223 0.079 0.6 0.719 1.034 1.306 0.893 0.571-0.101 0.971-0.713 0.851-1.276-0.101-0.624-0.812-1.056-1.411-0.84z"></path>
<path fill="#000" d="M11.686 9.242c0.7-0.241 1.482 0.389 1.408 1.122-0.092 1.692-0.205 3.383-0.306 5.075 0.004 0.325-0.18 0.649-0.492 0.766-0.46 0.215-1.058-0.149-1.073-0.658-0.115-1.726-0.218-3.452-0.317-5.179-0.041-0.497 0.294-0.998 0.78-1.126z"></path>
<path fill="#000" d="M11.664 16.985c0.599-0.216 1.31 0.216 1.411 0.84 0.12 0.563-0.28 1.175-0.851 1.276-0.587 0.142-1.226-0.293-1.306-0.893-0.104-0.522 0.244-1.066 0.745-1.223z"></path>
</svg>
