<?xml version="1.0" encoding="utf-8"?>
<!-- Generated by IcoMoon.io -->
<!DOCTYPE svg PUBLIC "-//W3C//DTD SVG 1.1//EN" "http://www.w3.org/Graphics/SVG/1.1/DTD/svg11.dtd">
<svg version="1.1" xmlns="http://www.w3.org/2000/svg" xmlns:xlink="http://www.w3.org/1999/xlink" width="24" height="24" viewBox="0 0 24 24">
<path fill="#c31926" d="M11.832 1.62h0.312c0.474 0.062 0.89 0.353 1.112 0.774 3.498 5.944 6.996 11.888 10.494 17.832 0.114 0.202 0.197 0.42 0.25 0.647v0.248c-0.066 0.649-0.598 1.183-1.243 1.259h-21.504c-0.624-0.066-1.132-0.559-1.253-1.169v-0.34c0.052-0.228 0.136-0.446 0.251-0.649 3.499-5.944 6.997-11.89 10.495-17.834 0.218-0.414 0.625-0.695 1.086-0.768M11.915 2.79c-3.524 5.982-7.042 11.97-10.564 17.953-0.056 0.1-0.106 0.202-0.146 0.308 0.095 0.179 0.31 0.114 0.474 0.131 6.967-0.010 13.934 0.006 20.902-0.007 0.236 0.032 0.234-0.227 0.113-0.354-3.415-5.827-6.85-11.644-10.267-17.47-0.14-0.209-0.228-0.512-0.511-0.562z"></path>
<path fill="#c31926" d="M7.993 13.368c0.066-0.034 0.197-0.103 0.263-0.138 2.496 0 4.992 0 7.488 0 0.066 0.035 0.197 0.104 0.263 0.139 0.002 0.096 0.006 0.29 0.007 0.386-0.204 0.258-0.358 0.551-0.509 0.841-0.442 0.716-0.848 1.453-1.267 2.182-0.445 0.76-0.888 1.519-1.321 2.285-0.223 0.404-0.493 0.782-0.673 1.21-0.163 0.001-0.325 0.001-0.487 0-0.18-0.428-0.452-0.806-0.676-1.212-0.431-0.764-0.874-1.524-1.319-2.281-0.431-0.766-0.871-1.525-1.322-2.279-0.133-0.259-0.271-0.517-0.454-0.745 0.001-0.097 0.005-0.29 0.007-0.388M9.545 14.527c0.664 1.165 1.346 2.321 2.011 3.486 0.124 0.229 0.264 0.451 0.443 0.643 0.286-0.296 0.454-0.676 0.662-1.025 0.572-0.984 1.136-1.97 1.712-2.952 0.070-0.15 0.252-0.353 0.020-0.456-1.558-0.041-3.12-0.017-4.679-0.013-0.179-0.042-0.3 0.193-0.17 0.317z"></path>
<path fill="#fff" d="M11.915 2.79c0.283 0.049 0.371 0.353 0.511 0.562 3.418 5.826 6.852 11.642 10.267 17.47 0.121 0.127 0.124 0.386-0.113 0.354-6.967 0.013-13.934-0.002-20.902 0.007-0.164-0.017-0.379 0.048-0.474-0.131 0.041-0.107 0.090-0.209 0.146-0.308 3.522-5.983 7.039-11.971 10.564-17.953M8.989 10.392c0.205 0.199 0.407 0.402 0.606 0.607 0.66-0.674 1.344-1.325 1.991-2.012-0.020 1.021 0.001 2.044-0.012 3.065 0.288-0.001 0.576-0.001 0.865 0.001-0.013-1.019 0.010-2.036-0.013-3.055 0.641 0.685 1.324 1.33 1.978 2.002 0.199-0.206 0.402-0.408 0.608-0.607-1.013-1.001-2.012-2.017-3.012-3.030-1 1.014-1.999 2.028-3.011 3.030M7.993 13.368c-0.002 0.097-0.006 0.29-0.007 0.388 0.182 0.228 0.32 0.486 0.454 0.745 0.451 0.754 0.892 1.513 1.322 2.279 0.445 0.757 0.888 1.517 1.319 2.281 0.223 0.406 0.496 0.784 0.676 1.212 0.162 0.001 0.324 0.001 0.487 0 0.18-0.427 0.45-0.805 0.673-1.21 0.433-0.766 0.876-1.525 1.321-2.285 0.419-0.728 0.826-1.465 1.267-2.182 0.151-0.29 0.305-0.583 0.509-0.841-0.001-0.096-0.005-0.29-0.007-0.386-0.066-0.035-0.197-0.104-0.263-0.139-2.496 0-4.992 0-7.488 0-0.066 0.035-0.197 0.104-0.263 0.138z"></path>
<path fill="#fff" d="M9.545 14.527c-0.13-0.124-0.008-0.359 0.17-0.317 1.559-0.004 3.121-0.028 4.679 0.013 0.232 0.103 0.049 0.306-0.020 0.456-0.576 0.982-1.14 1.968-1.712 2.952-0.209 0.349-0.377 0.728-0.662 1.025-0.179-0.192-0.319-0.414-0.443-0.643-0.665-1.165-1.348-2.321-2.011-3.486z"></path>
<path fill="#000" d="M8.989 10.392c1.012-1.002 2.011-2.016 3.011-3.030 1 1.013 1.999 2.029 3.012 3.030-0.206 0.199-0.409 0.401-0.608 0.607-0.654-0.672-1.337-1.316-1.978-2.002 0.023 1.019 0 2.036 0.013 3.055-0.289-0.002-0.577-0.002-0.865-0.001 0.013-1.021-0.008-2.044 0.012-3.065-0.647 0.688-1.331 1.338-1.991 2.012-0.199-0.205-0.401-0.408-0.606-0.607z"></path>
</svg>
