<!-- Generated by IcoMoon.io -->
<svg version="1.1" xmlns="http://www.w3.org/2000/svg" width="24" height="24" viewBox="0 0 24 24">
<title>warning--raccoon-crossing--g1</title>
<path fill="#fcdc0f" d="M11.842 0h0.293c0.395 0.251 0.697 0.613 1.028 0.937 3.3 3.301 6.6 6.601 9.9 9.901 0.319 0.324 0.664 0.627 0.937 0.994v0.35c-3.314 3.422-6.732 6.747-10.086 10.132-0.581 0.556-1.112 1.168-1.729 1.686h-0.352c-0.521-0.42-0.957-0.932-1.44-1.393-3.459-3.481-6.963-6.919-10.393-10.427v-0.302c0.164-0.255 0.376-0.475 0.593-0.686 3.762-3.717 7.448-7.516 11.249-11.192M0.587 12.007c3.811 3.802 7.613 7.614 11.422 11.417 3.809-3.804 7.612-7.613 11.42-11.418-3.805-3.808-7.612-7.614-11.42-11.42-3.808 3.807-7.615 7.614-11.422 11.421z"></path>
<path fill="#fcdc0f" d="M11.934 1.741c0.381-0.036 0.734 0.166 0.989 0.435 2.982 2.985 5.968 5.968 8.953 8.951 0.494 0.427 0.542 1.248 0.051 1.697-3.032 3.037-6.066 6.072-9.102 9.105-0.43 0.462-1.216 0.456-1.642-0.007-3.037-3.033-6.068-6.072-9.102-9.108-0.457-0.424-0.449-1.199 0.002-1.623 2.976-2.993 5.971-5.968 8.95-8.958 0.242-0.248 0.539-0.482 0.901-0.492M7.791 9.986c-0.247 0.355-0.336 0.842-0.743 1.064-0.886 0.572-1.732 1.429-1.76 2.549-0.172 0.824 0.321 1.722 1.131 1.967 0.744 0.077 1.136-0.714 1.338-1.307 0.36-0.764 0.082-1.615 0.254-2.413 0.492 0.806 0.572 1.857-0.051 2.621-0.421 0.389 0.7 0.925 0.647 0.345-0.119-0.672 0.558-1.072 0.949-1.508 0.262 0.385 0.404 0.827 0.47 1.286 0.054 0.35 0.477 0.357 0.751 0.399 0.25-0.519-0.399-0.91-0.335-1.443-0.198-0.202-0.406-0.394-0.643-0.55 0.061-0.024 0.122-0.048 0.184-0.070 0.651 0.934 1.831 1.306 2.929 1.126-0.167-0.298-0.287-0.627-0.238-0.974 0.225 0.801 0.676 1.507 1.254 2.099 0.297 0.089 0.64-0.157 0.605-0.474-0.077-0.33-0.369-0.534-0.61-0.744-0.002-0.103-0.003-0.205-0.004-0.308 0.319-0.111 0.627-0.258 0.892-0.471 0.044 0.037 0.089 0.073 0.133 0.109-0.149 0.090-0.294 0.186-0.442 0.279 0.516 0.183 0.993 0.461 1.39 0.841 0.292 0.284 0.773 0.026 0.826-0.346-0.675-0.233-0.925-1.125-1.727-1.12 0.231-0.219 0.54-0.127 0.818-0.103 0.527 0.060 1.046-0.096 1.573-0.106 0.039-0.123 0.080-0.245 0.122-0.367-0.219-0.033-0.437-0.068-0.654-0.107 0.268-0.015 0.537-0.024 0.805-0.049 0.022 0.224 0.048 0.449 0.104 0.668 0.017-0.209 0.018-0.418 0.022-0.627 0.201-0.148 0.338-0.353 0.412-0.589 0.231-0.005 0.463-0.008 0.694-0.026-0.286-0.069-0.581-0.081-0.871-0.118 0.235-0.099 0.477-0.186 0.708-0.296-0.268 0.037-0.532 0.096-0.797 0.149 0.162-0.212 0.338-0.414 0.491-0.633-0.199 0.144-0.381 0.31-0.556 0.483-0.39-0.462-0.283-1.103-0.442-1.652 0.153-0.28 0.359-0.692 0.055-0.948-0.358-0.118-0.636 0.128-0.82 0.405-0.241 0.001-0.482 0.001-0.723 0.001-0.217-0.189-0.462-0.345-0.726-0.458-0.111 0.364-0.086 0.787-0.346 1.091-0.841-0.978-2.034-1.732-3.356-1.739-1.497-0.057-2.939 0.801-3.713 2.064z"></path>
<path fill="#fcdc0f" d="M16.442 10.446c0.262-0.029 0.592 0.037 0.729 0.286 0.056 0.688-0.827 1.287-1.389 0.787-0.407-0.454 0.171-1.048 0.66-1.073M16.246 10.967c0.106 0.093 0.223 0.175 0.332 0.266 0.069-0.080 0.138-0.16 0.207-0.239-0.026-0.067-0.078-0.199-0.104-0.265-0.16 0.050-0.299 0.143-0.435 0.238z"></path>
<path fill="#000" d="M0.587 12.007c3.807-3.807 7.614-7.614 11.422-11.421 3.808 3.806 7.615 7.612 11.42 11.42-3.808 3.805-7.611 7.614-11.42 11.418-3.809-3.803-7.611-7.615-11.422-11.417M11.934 1.741c-0.362 0.010-0.659 0.244-0.901 0.492-2.979 2.99-5.974 5.965-8.95 8.958-0.451 0.424-0.459 1.199-0.002 1.623 3.034 3.036 6.065 6.075 9.102 9.108 0.426 0.463 1.212 0.469 1.642 0.007 3.036-3.033 6.070-6.068 9.102-9.105 0.491-0.449 0.443-1.27-0.051-1.697-2.985-2.983-5.971-5.966-8.953-8.951-0.255-0.269-0.608-0.471-0.989-0.435z"></path>
<path fill="#000" d="M7.791 9.986c0.774-1.263 2.216-2.121 3.713-2.064 1.322 0.007 2.515 0.761 3.356 1.739 0.26-0.304 0.235-0.727 0.346-1.091 0.264 0.113 0.509 0.269 0.726 0.458 0.241 0 0.482 0 0.723-0.001 0.184-0.277 0.462-0.523 0.82-0.405 0.304 0.256 0.098 0.668-0.055 0.948 0.159 0.549 0.052 1.19 0.442 1.652 0.175-0.173 0.357-0.339 0.556-0.483-0.153 0.219-0.329 0.421-0.491 0.633 0.265-0.053 0.529-0.112 0.797-0.149-0.231 0.11-0.473 0.197-0.708 0.296 0.29 0.037 0.585 0.049 0.871 0.118-0.231 0.018-0.463 0.021-0.694 0.026-0.074 0.236-0.211 0.441-0.412 0.589-0.004 0.209-0.005 0.418-0.022 0.627-0.056-0.219-0.082-0.444-0.104-0.668-0.268 0.025-0.537 0.034-0.805 0.049 0.217 0.039 0.435 0.074 0.654 0.107-0.042 0.122-0.083 0.244-0.122 0.367-0.527 0.010-1.046 0.166-1.573 0.106-0.278-0.024-0.587-0.116-0.818 0.103 0.802-0.005 1.052 0.887 1.727 1.12-0.053 0.372-0.534 0.63-0.826 0.346-0.397-0.38-0.874-0.658-1.39-0.841 0.148-0.093 0.293-0.189 0.442-0.279-0.044-0.036-0.089-0.072-0.133-0.109-0.265 0.213-0.573 0.36-0.892 0.471 0.001 0.103 0.002 0.205 0.004 0.308 0.241 0.21 0.533 0.414 0.61 0.744 0.035 0.317-0.308 0.563-0.605 0.474-0.578-0.592-1.029-1.298-1.254-2.099-0.049 0.347 0.071 0.676 0.238 0.974-1.098 0.18-2.278-0.192-2.929-1.126-0.062 0.022-0.123 0.046-0.184 0.070 0.237 0.156 0.445 0.348 0.643 0.55-0.064 0.533 0.585 0.924 0.335 1.443-0.274-0.042-0.697-0.049-0.751-0.399-0.066-0.459-0.208-0.901-0.47-1.286-0.391 0.436-1.068 0.836-0.949 1.508 0.053 0.58-1.068 0.044-0.647-0.345 0.623-0.764 0.543-1.815 0.051-2.621-0.172 0.798 0.106 1.649-0.254 2.413-0.202 0.593-0.594 1.384-1.338 1.307-0.81-0.245-1.303-1.143-1.131-1.967 0.028-1.12 0.874-1.977 1.76-2.549 0.407-0.222 0.496-0.709 0.743-1.064M15.42 8.851c-0.012 0.189-0.021 0.378-0.029 0.567 0.152-0.008 0.304-0.017 0.456-0.026-0.139-0.183-0.28-0.365-0.427-0.541M16.442 10.446c-0.489 0.025-1.067 0.619-0.66 1.073 0.562 0.5 1.445-0.099 1.389-0.787-0.137-0.249-0.467-0.315-0.729-0.286z"></path>
<path fill="#e2c50e" d="M15.42 8.851c0.147 0.176 0.288 0.358 0.427 0.541-0.152 0.009-0.304 0.018-0.456 0.026 0.008-0.189 0.017-0.378 0.029-0.567z"></path>
<path fill="#665906" d="M16.246 10.967c0.136-0.095 0.275-0.188 0.435-0.238 0.026 0.066 0.078 0.198 0.104 0.265-0.069 0.079-0.138 0.159-0.207 0.239-0.109-0.091-0.226-0.173-0.332-0.266z"></path>
</svg>
