<!-- Generated by IcoMoon.io -->
<svg version="1.1" xmlns="http://www.w3.org/2000/svg" width="24" height="24" viewBox="0 0 24 24">
<title>warning--railroad-intersection--g4</title>
<path fill="#fee011" d="M11.854 0h0.27c0.326 0.050 0.616 0.226 0.842 0.462 3.522 3.523 7.045 7.045 10.567 10.568 0.256 0.238 0.434 0.553 0.467 0.905v0.124c-0.037 0.322-0.179 0.623-0.418 0.844-3.583 3.578-7.163 7.163-10.745 10.742-0.199 0.211-0.481 0.306-0.761 0.355h-0.125c-0.292-0.040-0.584-0.138-0.791-0.358-3.584-3.581-7.164-7.166-10.748-10.746-0.216-0.203-0.355-0.473-0.413-0.762v-0.25c0.055-0.524 0.481-0.865 0.826-1.214 3.403-3.4 6.805-6.803 10.206-10.205 0.222-0.233 0.504-0.404 0.822-0.466M11.669 0.278c-0.188 0.071-0.331 0.218-0.474 0.354-3.558 3.56-7.118 7.118-10.673 10.684-0.361 0.325-0.395 0.937-0.049 1.286 3.619 3.622 7.238 7.244 10.856 10.866 0.341 0.384 0.989 0.385 1.332 0.004 3.602-3.606 7.206-7.21 10.813-10.81 0.414-0.365 0.378-1.054-0.042-1.4-3.564-3.562-7.127-7.124-10.691-10.686-0.262-0.294-0.695-0.467-1.073-0.298z"></path>
<path fill="#fee011" d="M11.774 0.739c0.252-0.182 0.535 0.024 0.708 0.216 3.534 3.547 7.080 7.082 10.614 10.63 0.24 0.181 0.305 0.556 0.049 0.754-3.6 3.605-7.201 7.21-10.807 10.81-0.174 0.212-0.51 0.206-0.683-0.006-3.562-3.556-7.11-7.123-10.675-10.675-0.16-0.155-0.355-0.335-0.293-0.584 0.151-0.288 0.421-0.487 0.64-0.721 3.254-3.262 6.512-6.52 9.769-9.779 0.223-0.216 0.422-0.462 0.678-0.643M7.6 6.12c0.001 3.924 0 7.847 0.001 11.771 0.979 0.002 1.957 0.001 2.936 0 0.001-1.469 0-2.939 0.001-4.409 0.982-0.002 1.963 0.001 2.945-0.001 0.001-0.982 0.001-1.963 0-2.944-0.982-0.002-1.963 0-2.945-0.001-0.001-1.472 0-2.945-0.001-4.416-0.979-0.002-1.958-0.002-2.938 0M14.755 6.462c-0.001 0.289-0.001 0.578-0.002 0.868-0.276 0-0.552 0-0.828 0-0.001 0.209-0.001 0.418-0.001 0.628 0.277 0 0.553 0 0.829-0.001 0.001 0.284 0.001 0.569 0.001 0.853-0.277 0-0.553 0-0.829 0 0 0.209 0 0.419 0 0.629 0.276 0 0.552 0 0.829 0 0 0.283 0 0.568-0.001 0.852-0.276 0-0.552 0-0.829 0 0 0.214 0 0.428 0 0.642 0.277 0 0.553 0 0.83 0 0 0.275 0 0.548 0 0.822-0.277 0-0.553 0.001-0.83 0.001 0 0.209 0 0.418 0 0.626 0.277 0.001 0.553 0.001 0.83 0.001 0 0.283 0 0.568 0 0.852-0.277 0-0.553 0-0.829 0-0.001 0.209 0 0.419 0 0.628 0.276 0 0.552 0 0.829 0 0 0.274 0 0.548 0 0.822-0.277 0-0.553 0-0.829 0 0 0.204-0.001 0.409-0.001 0.613 0.276 0.001 0.553 0.001 0.829 0 0.001 0.289 0.001 0.578 0 0.868-0.276-0.001-0.552-0.001-0.829 0 0 0.214 0 0.427 0 0.642 0.277 0 0.553 0 0.83 0.001 0 0.248 0 0.497 0.001 0.746 0.108 0 0.324 0.001 0.432 0.001 0-0.25 0.001-0.499 0.001-0.748 0.346-0.001 0.691-0.001 1.037 0 0 0.246 0 0.492 0.001 0.739 0.144 0 0.288 0 0.433 0 0-0.247 0.001-0.493 0.001-0.739 0.266-0.001 0.532-0.001 0.799-0.001 0-0.215-0.001-0.428-0.001-0.642-0.266 0-0.532-0.001-0.798-0.001-0.001-0.288-0.001-0.576 0-0.864 0.265-0.001 0.532-0.002 0.799-0.002 0-0.204 0-0.408 0-0.612-0.266-0.001-0.533-0.001-0.799-0.002-0.001-0.274-0.001-0.546 0-0.82 0.265-0.001 0.532-0.001 0.798-0.002 0.001-0.208 0.001-0.416 0.001-0.625-0.266-0.001-0.533-0.001-0.799-0.002-0.001-0.283-0.001-0.566 0-0.851 0.266 0 0.532-0.001 0.798-0.001 0-0.209 0.001-0.418 0.001-0.626-0.268 0-0.534-0.001-0.799-0.001-0.001-0.274-0.001-0.547 0-0.821 0.266-0.001 0.533-0.001 0.799-0.001 0-0.214-0.001-0.428-0.001-0.642-0.266 0-0.533 0-0.798-0.001-0.001-0.283-0.001-0.566 0-0.851 0.266 0 0.533-0.001 0.799-0.001 0-0.209 0-0.418 0-0.626-0.266-0.001-0.533-0.002-0.799-0.002-0.001-0.283-0.001-0.566 0-0.851 0.266 0 0.532 0 0.798 0 0.001-0.209 0.001-0.418 0.001-0.626-0.266-0.001-0.533-0.001-0.799-0.002-0.001-0.292-0.001-0.582-0.001-0.874-0.145 0-0.289 0-0.433 0-0.001 0.292-0.001 0.583-0.001 0.874-0.346 0.001-0.691 0.001-1.037 0 0-0.289 0-0.578-0.001-0.868-0.108 0.001-0.324 0.001-0.432 0.001M17.9 10.536c0 0.982 0 1.963 0 2.945 0.979 0.001 1.958 0 2.938 0 0.002-0.982 0.002-1.963 0-2.945-0.979 0-1.958-0.001-2.938 0z"></path>
<path fill="#fee011" d="M15.187 7.958c0.347-0.002 0.692-0.002 1.038 0 0 0.283 0 0.566 0 0.85-0.346 0.001-0.691 0.001-1.037 0 0-0.283-0.001-0.566-0.001-0.85z"></path>
<path fill="#fee011" d="M15.188 9.438c0.346-0.001 0.691-0.001 1.037 0 0 0.284 0 0.568 0 0.852-0.346 0-0.692 0-1.038-0.001 0-0.284 0.001-0.568 0.001-0.851z"></path>
<path fill="#fee011" d="M15.188 10.932c0.346 0 0.691 0 1.037 0.001 0 0.274 0 0.547 0 0.821-0.346 0.001-0.691 0.001-1.037 0-0.001-0.274-0.001-0.547 0-0.822z"></path>
<path fill="#fee011" d="M15.188 12.382c0.346 0.001 0.691 0.001 1.037 0.001 0 0.284 0 0.568 0 0.852-0.346 0-0.691 0-1.037 0 0-0.284-0.001-0.569 0-0.853z"></path>
<path fill="#fee011" d="M15.188 13.862c0.346 0 0.691 0 1.037 0.001 0 0.272 0 0.546 0 0.82-0.346 0.001-0.691 0.001-1.037 0.001-0.001-0.275-0.001-0.548 0-0.822z"></path>
<path fill="#fee011" d="M15.188 15.3c0.346-0.002 0.691-0.002 1.037 0 0.001 0.288 0 0.576-0.002 0.865-0.346-0.001-0.69-0.001-1.034-0.001 0-0.288-0.001-0.576 0-0.864z"></path>
<path fill="#000" d="M11.669 0.278c0.378-0.169 0.811 0.004 1.073 0.298 3.564 3.562 7.127 7.124 10.691 10.686 0.42 0.347 0.456 1.036 0.042 1.4-3.607 3.6-7.211 7.204-10.813 10.81-0.343 0.382-0.991 0.38-1.332-0.004-3.618-3.622-7.237-7.244-10.856-10.866-0.346-0.349-0.312-0.961 0.049-1.286 3.554-3.565 7.115-7.123 10.673-10.684 0.143-0.136 0.286-0.283 0.474-0.354M11.774 0.739c-0.256 0.181-0.455 0.427-0.678 0.643-3.257 3.259-6.515 6.517-9.769 9.779-0.218 0.234-0.488 0.433-0.64 0.721-0.062 0.25 0.133 0.43 0.293 0.584 3.565 3.552 7.114 7.12 10.675 10.675 0.173 0.212 0.509 0.218 0.683 0.006 3.606-3.6 7.207-7.205 10.807-10.81 0.256-0.198 0.191-0.572-0.049-0.754-3.534-3.547-7.080-7.082-10.614-10.63-0.173-0.192-0.456-0.398-0.708-0.216z"></path>
<path fill="#000" d="M7.6 6.12c0.979-0.002 1.958-0.002 2.938 0 0.001 1.471 0 2.944 0.001 4.416 0.982 0.001 1.963-0.001 2.945 0.001 0.001 0.98 0.001 1.962 0 2.944-0.982 0.002-1.963-0.001-2.945 0.001-0.001 1.47 0 2.94-0.001 4.409-0.979 0.001-1.957 0.002-2.936 0-0.001-3.924 0-7.847-0.001-11.771z"></path>
<path fill="#000" d="M14.755 6.462c0.108 0 0.324 0 0.432-0.001 0.001 0.289 0.001 0.578 0.001 0.868 0.346 0.001 0.691 0.001 1.037 0 0-0.29 0-0.582 0.001-0.874 0.144 0 0.288 0 0.433 0 0 0.292 0 0.582 0.001 0.874 0.266 0.001 0.533 0.001 0.799 0.002 0 0.209 0 0.418-0.001 0.626-0.266 0-0.532 0-0.798 0-0.001 0.284-0.001 0.568 0 0.851 0.266 0 0.533 0.001 0.799 0.002 0 0.209 0 0.418 0 0.626-0.266 0-0.533 0.001-0.799 0.001-0.001 0.284-0.001 0.568 0 0.851 0.265 0.001 0.532 0.001 0.798 0.001 0 0.214 0.001 0.428 0.001 0.642-0.266 0-0.533 0-0.799 0.001-0.001 0.274-0.001 0.547 0 0.821 0.265 0 0.532 0.001 0.799 0.001 0 0.209-0.001 0.418-0.001 0.626-0.266 0-0.532 0.001-0.798 0.001-0.001 0.284-0.001 0.568 0 0.851 0.266 0.001 0.533 0.001 0.799 0.002 0 0.209 0 0.418-0.001 0.625-0.266 0.001-0.533 0.001-0.798 0.002-0.001 0.274-0.001 0.546 0 0.82 0.266 0.001 0.533 0.001 0.799 0.002 0 0.204 0 0.408 0 0.612-0.268 0-0.534 0.001-0.799 0.002-0.001 0.288-0.001 0.576 0 0.864 0.266 0 0.532 0.001 0.798 0.001 0 0.214 0.001 0.427 0.001 0.642-0.268 0-0.533 0-0.799 0.001 0 0.246-0.001 0.492-0.001 0.739-0.145 0-0.289 0-0.433 0-0.001-0.247-0.001-0.493-0.001-0.739-0.346-0.001-0.691-0.001-1.037 0 0 0.248-0.001 0.498-0.001 0.748-0.108 0-0.324-0.001-0.432-0.001-0.001-0.25-0.001-0.498-0.001-0.746-0.277-0.001-0.553-0.001-0.83-0.001 0-0.215 0-0.428 0-0.642 0.277-0.001 0.553-0.001 0.829 0 0.001-0.289 0.001-0.578 0-0.868-0.276 0.001-0.553 0.001-0.829 0 0-0.204 0.001-0.409 0.001-0.613 0.276 0 0.552 0 0.829 0 0-0.274 0-0.548 0-0.822-0.277 0-0.553 0-0.829 0 0-0.209-0.001-0.419 0-0.628 0.276 0 0.552 0 0.829 0 0-0.284 0-0.569 0-0.852-0.277 0-0.553 0-0.83-0.001 0-0.209 0-0.418 0-0.626 0.277 0 0.553-0.001 0.83-0.001 0-0.274 0-0.547 0-0.822-0.277 0-0.553 0-0.83 0 0-0.214 0-0.428 0-0.642 0.277 0 0.553 0 0.829 0 0.001-0.284 0.001-0.569 0.001-0.852-0.277 0-0.553 0-0.829 0 0-0.21 0-0.42 0-0.629 0.276 0 0.552 0 0.829 0 0-0.284 0-0.569-0.001-0.853-0.276 0.001-0.552 0.001-0.829 0.001 0-0.21 0-0.419 0.001-0.628 0.276 0 0.552 0 0.828 0 0.001-0.289 0.001-0.578 0.002-0.868M15.187 7.958c0 0.283 0.001 0.566 0.001 0.85 0.346 0.001 0.691 0.001 1.037 0 0-0.283 0-0.566 0-0.85-0.346-0.002-0.691-0.002-1.038 0M15.188 9.438c0 0.283-0.001 0.566-0.001 0.851 0.346 0.001 0.692 0.001 1.038 0.001 0-0.284 0-0.568 0-0.852-0.346-0.001-0.691-0.001-1.037 0M15.188 10.932c-0.001 0.275-0.001 0.548 0 0.822 0.346 0.001 0.691 0.001 1.037 0 0-0.274 0-0.547 0-0.821-0.346-0.001-0.691-0.001-1.037-0.001M15.188 12.382c-0.001 0.284 0 0.569 0 0.853 0.346 0 0.691 0 1.037 0 0-0.284 0-0.568 0-0.852-0.346 0-0.691 0-1.037-0.001M15.188 13.862c-0.001 0.274-0.001 0.547 0 0.822 0.346 0 0.691 0 1.037-0.001 0-0.274 0-0.547 0-0.82-0.346-0.001-0.691-0.001-1.037-0.001M15.188 15.3c-0.001 0.288 0 0.576 0 0.864 0.344 0 0.689 0 1.034 0.001 0.002-0.289 0.004-0.577 0.002-0.865-0.346-0.002-0.691-0.002-1.037 0z"></path>
<path fill="#000" d="M17.9 10.536c0.979-0.001 1.958 0 2.938 0 0.002 0.982 0.002 1.963 0 2.945-0.979 0-1.958 0.001-2.938 0 0-0.982 0-1.963 0-2.945z"></path>
</svg>
