<?xml version="1.0" encoding="utf-8"?>
<!-- Generated by IcoMoon.io -->
<!DOCTYPE svg PUBLIC "-//W3C//DTD SVG 1.1//EN" "http://www.w3.org/Graphics/SVG/1.1/DTD/svg11.dtd">
<svg version="1.1" xmlns="http://www.w3.org/2000/svg" xmlns:xlink="http://www.w3.org/1999/xlink" width="24" height="24" viewBox="0 0 24 24">
<path fill="#040404" d="M11.718 0.402c0.365 0.073 0.769 0.143 1.043 0.418 0.886 0.892 1.777 1.778 2.666 2.667 0.168 0.169 0.311 0.363 0.461 0.548 0.236 0.293 0.57 0.483 0.834 0.747 0.527 0.527 1.053 1.055 1.582 1.58 0.185 0.18 0.319 0.402 0.476 0.605 0.17 0.228 0.456 0.318 0.651 0.521 0.831 0.835 1.664 1.668 2.498 2.5 0.183 0.182 0.333 0.392 0.503 0.583 0.327 0.378 0.758 0.642 1.093 1.012-0.004 0.247 0 0.497-0.037 0.742-0.042 0.203-0.214 0.333-0.348 0.475-0.442 0.42-0.846 0.88-1.318 1.268-0.769 0.676-1.386 1.504-2.163 2.172-0.921 0.884-1.825 1.786-2.771 2.644-0.293 0.245-0.433 0.614-0.707 0.875-0.783 0.774-1.557 1.556-2.337 2.332-0.477 0.471-0.934 0.97-1.484 1.356-0.111 0.106-0.263 0.038-0.385-0.003-0.489-0.191-0.954-0.464-1.317-0.848-2.031-2.053-4.102-4.068-6.111-6.142-1.383-1.314-2.702-2.693-4.062-4.030 0.038-0.314 0.082-0.628 0.104-0.944 3.396-3.402 6.793-6.803 10.193-10.2 0.302-0.303 0.596-0.616 0.935-0.879M11.862 0.877c-0.202 0.083-0.336 0.27-0.492 0.415-3.318 3.321-6.638 6.639-9.957 9.958-0.163 0.169-0.346 0.321-0.486 0.511-0.137 0.194-0.061 0.464 0.11 0.612 3.528 3.529 7.058 7.058 10.587 10.587 0.188 0.236 0.561 0.237 0.749 0.003 3.518-3.514 7.030-7.032 10.548-10.545 0.111-0.113 0.228-0.247 0.221-0.417 0.008-0.238-0.203-0.391-0.349-0.548-3.476-3.469-6.945-6.944-10.418-10.416-0.128-0.138-0.325-0.226-0.513-0.161z"></path>
<path fill="#040404" d="M6.873 9.206c0.168-0.102 0.342-0.214 0.547-0.221 0.724-0.001 1.433 0.303 2.161 0.191 0.72-0.078 1.452-0.119 2.169 0.002 0.866 0.117 1.555 0.822 1.865 1.609 0.381 0.912 0.207 1.918 0.182 2.874 0.032 0.219 0.15 0.452 0.037 0.668-0.153 0.158-0.354 0.258-0.532 0.383-0.358 0.293-0.853 0.119-1.277 0.153 0.072-0.202 0.243-0.328 0.421-0.432-0.23-0.257-0.457-0.517-0.668-0.791-0.175 0.182-0.372 0.341-0.59 0.471 0.036 0.241 0.129 0.577-0.098 0.749-0.617 0.023-1.236 0.012-1.853 0.001 0.070-0.366 0.43-0.49 0.735-0.602-0.26-0.235-0.529-0.468-0.726-0.76-0.109-0.194-0.009-0.421-0.012-0.629-0.127-0.109-0.272-0.192-0.411-0.284-0.092 0.594-0.269 1.175-0.513 1.724-0.086 0.198-0.228 0.415-0.467 0.429-0.487 0.021-0.975 0.005-1.462 0.005 0.071-0.107 0.119-0.237 0.226-0.315 0.166-0.070 0.353-0.058 0.52-0.125 0.039-0.544 0.1-1.086 0.187-1.625-0.087-0.036-0.176-0.072-0.263-0.108-0.019 0.172 0.031 0.387-0.124 0.511-0.289 0.208-0.63 0.331-0.962 0.454 0 0.188 0 0.374-0.002 0.562-0.254-0.036-0.513-0.101-0.705-0.282-0.291-0.207-0.398-0.634-0.213-0.944 0.123-0.183 0.303-0.317 0.432-0.495 0.041-0.206-0.017-0.418-0.016-0.627-0.402-0.033-0.792-0.141-1.19-0.198-0.052-0.069-0.1-0.139-0.147-0.212-0.037-0.023-0.111-0.071-0.147-0.094-0.011-0.037-0.033-0.111-0.043-0.147-0.065-0.058-0.13-0.116-0.196-0.174 0.022-0.046 0.067-0.138 0.089-0.184 0.144-0.034 0.327-0.034 0.398-0.192 0.143-0.174 0.083-0.413 0.145-0.615 0.075-0.128 0.191-0.227 0.288-0.337-0.078-0.219-0.014-0.524 0.256-0.551 0.198-0.042 0.306 0.141 0.392 0.282 0.175 0.002 0.353-0.001 0.515-0.075 0.334-0.138 0.702-0.107 1.050-0.051z"></path>
<path fill="#040404" d="M16.375 11.553c0.405-0.252 0.856 0.027 1.287 0.011 0.528-0.027 1.073-0.128 1.593 0.012 0.483 0.13 0.823 0.567 0.952 1.035 0.132 0.538-0.011 1.092 0.068 1.637-0.051 0.202-0.299 0.263-0.443 0.388-0.192-0.002-0.383-0.005-0.573-0.012 0.078-0.082 0.158-0.163 0.237-0.244-0.116-0.134-0.229-0.27-0.342-0.407-0.103 0.079-0.207 0.158-0.31 0.237-0.004 0.139-0.010 0.279-0.018 0.419-0.359 0.006-0.719 0.009-1.078-0.007 0.091-0.161 0.233-0.273 0.41-0.329-0.191-0.204-0.504-0.401-0.393-0.726-0.083-0.047-0.166-0.094-0.248-0.143 0.095 0.31-0.261 0.456-0.44 0.638 0.049 0.097 0.097 0.196 0.146 0.293-0.224 0.029-0.518 0.051-0.66-0.168-0.15-0.228 0.044-0.477 0.045-0.721-0.216 0.342-0.352 0.726-0.543 1.081-0.305 0.082-0.625 0.039-0.936 0.036 0.091-0.153 0.247-0.226 0.42-0.244 0.067-0.489 0.113-0.985 0.254-1.459-0.271 0.026-0.542-0.001-0.811-0.031-0.106-0.123-0.212-0.245-0.307-0.375 0.395-0.169 0.354-0.66 0.573-0.967 0.101-0.138 0.223 0.082 0.315 0.129 0.263-0.070 0.532-0.131 0.805-0.085z"></path>
<path fill="#ffd520" d="M11.862 0.877c0.188-0.065 0.384 0.022 0.513 0.161 3.473 3.472 6.942 6.947 10.418 10.416 0.147 0.157 0.357 0.309 0.349 0.547 0.007 0.169-0.11 0.303-0.221 0.417-3.518 3.513-7.031 7.031-10.548 10.545-0.188 0.235-0.562 0.233-0.749-0.003-3.529-3.529-7.058-7.058-10.587-10.587-0.171-0.147-0.247-0.417-0.11-0.612 0.14-0.19 0.322-0.342 0.486-0.511 3.319-3.319 6.639-6.637 9.957-9.958 0.156-0.145 0.289-0.332 0.492-0.415M6.873 9.206c-0.348-0.056-0.716-0.087-1.050 0.051-0.162 0.074-0.34 0.077-0.515 0.075-0.086-0.142-0.194-0.325-0.392-0.282-0.27 0.027-0.333 0.332-0.256 0.551-0.097 0.11-0.213 0.208-0.288 0.337-0.062 0.202-0.003 0.441-0.145 0.615-0.071 0.158-0.254 0.158-0.398 0.192-0.022 0.046-0.067 0.138-0.089 0.184 0.066 0.058 0.131 0.116 0.196 0.174 0.011 0.037 0.033 0.11 0.043 0.147 0.037 0.023 0.111 0.071 0.147 0.094 0.047 0.072 0.095 0.142 0.147 0.212 0.398 0.057 0.788 0.164 1.19 0.198-0.001 0.208 0.057 0.421 0.016 0.627-0.128 0.178-0.309 0.312-0.432 0.495-0.185 0.31-0.078 0.738 0.213 0.944 0.192 0.181 0.451 0.246 0.705 0.282 0.002-0.188 0.002-0.374 0.002-0.562 0.332-0.123 0.672-0.246 0.962-0.454 0.155-0.123 0.105-0.339 0.124-0.511 0.087 0.036 0.176 0.072 0.263 0.108-0.087 0.539-0.147 1.081-0.187 1.625-0.167 0.067-0.354 0.055-0.52 0.125-0.107 0.078-0.155 0.208-0.226 0.315 0.487 0 0.976 0.016 1.462-0.005 0.238-0.014 0.381-0.231 0.467-0.429 0.243-0.549 0.421-1.13 0.513-1.724 0.139 0.092 0.284 0.175 0.411 0.284 0.003 0.208-0.098 0.435 0.012 0.629 0.197 0.293 0.466 0.525 0.726 0.76-0.305 0.112-0.665 0.236-0.735 0.602 0.617 0.011 1.236 0.022 1.853-0.001 0.227-0.172 0.133-0.508 0.098-0.749 0.217-0.13 0.415-0.289 0.59-0.471 0.21 0.274 0.438 0.534 0.668 0.791-0.178 0.103-0.348 0.229-0.421 0.432 0.423-0.034 0.918 0.139 1.277-0.153 0.177-0.126 0.379-0.225 0.532-0.383 0.112-0.216-0.006-0.448-0.038-0.668 0.025-0.956 0.199-1.962-0.182-2.874-0.31-0.787-0.999-1.492-1.865-1.609-0.717-0.121-1.449-0.080-2.169-0.002-0.728 0.113-1.437-0.192-2.161-0.191-0.204 0.007-0.378 0.118-0.547 0.221M16.375 11.553c-0.273-0.046-0.542 0.015-0.805 0.085-0.092-0.047-0.214-0.267-0.315-0.129-0.218 0.307-0.177 0.798-0.573 0.968 0.096 0.13 0.202 0.252 0.308 0.375 0.269 0.030 0.54 0.057 0.811 0.031-0.142 0.474-0.188 0.97-0.254 1.459-0.173 0.018-0.329 0.092-0.42 0.244 0.311 0.003 0.631 0.047 0.936-0.036 0.191-0.355 0.327-0.738 0.543-1.081-0.001 0.243-0.195 0.493-0.045 0.721 0.142 0.218 0.436 0.197 0.66 0.168-0.048-0.097-0.097-0.196-0.146-0.293 0.179-0.182 0.535-0.327 0.44-0.637 0.082 0.048 0.165 0.096 0.248 0.143-0.111 0.325 0.203 0.522 0.393 0.726-0.177 0.056-0.319 0.168-0.41 0.329 0.359 0.016 0.719 0.012 1.078 0.007 0.008-0.14 0.014-0.28 0.018-0.419 0.103-0.079 0.207-0.158 0.31-0.237 0.112 0.137 0.226 0.273 0.342 0.407-0.079 0.081-0.158 0.162-0.237 0.244 0.191 0.007 0.382 0.010 0.573 0.012 0.144-0.126 0.393-0.187 0.443-0.388-0.079-0.544 0.064-1.098-0.068-1.637-0.128-0.468-0.468-0.905-0.952-1.035-0.52-0.14-1.065-0.040-1.593-0.012-0.431 0.016-0.882-0.263-1.287-0.011z"></path>
</svg>
