<!-- Generated by IcoMoon.io -->
<svg version="1.1" xmlns="http://www.w3.org/2000/svg" width="24" height="24" viewBox="0 0 24 24">
<title>warning--loop-270-degree--g1</title>
<path fill="#ffd033" d="M11.732 0h0.502c0.271 0.108 0.529 0.256 0.734 0.467 3.521 3.523 7.043 7.045 10.565 10.565 0.203 0.2 0.352 0.448 0.467 0.707v0.486c-0.098 0.247-0.222 0.49-0.415 0.677-3.378 3.383-6.761 6.761-10.14 10.142-0.359 0.358-0.694 0.764-1.178 0.956h-0.502c-0.245-0.098-0.481-0.224-0.668-0.413-3.559-3.563-7.121-7.123-10.682-10.685-0.18-0.182-0.307-0.409-0.414-0.64v-0.494c0.172-0.539 0.631-0.889 1.010-1.278 3.341-3.342 6.682-6.682 10.021-10.024 0.2-0.2 0.445-0.348 0.701-0.467M11.669 0.391c-0.216 0.086-0.377 0.26-0.541 0.416-3.496 3.506-7.006 6.998-10.499 10.507-0.391 0.352-0.39 1.016 0.002 1.367 3.563 3.563 7.126 7.124 10.686 10.687 0.347 0.395 1.018 0.395 1.366 0 3.56-3.563 7.123-7.124 10.685-10.687 0.422-0.376 0.374-1.080-0.055-1.43-3.521-3.522-7.042-7.044-10.564-10.562-0.265-0.3-0.697-0.45-1.080-0.298z"></path>
<path fill="#ffd033" d="M11.788 0.856c0.223-0.116 0.479-0.011 0.632 0.168 3.52 3.518 7.039 7.037 10.558 10.556 0.238 0.185 0.299 0.569 0.052 0.774-3.535 3.541-7.079 7.076-10.614 10.618-0.18 0.242-0.565 0.31-0.768 0.058-3.562-3.556-7.12-7.116-10.678-10.675-0.284-0.234-0.149-0.643 0.11-0.835 3.578-3.545 7.1-7.152 10.708-10.663M9.565 7.292c-1.49 0.809-2.614 2.382-2.626 4.111-0.011 1.673-0.004 3.346-0.001 5.018 0.626 0.004 1.253 0.005 1.879-0.001 0.056-1.861-0.107-3.739 0.095-5.587 0.908-3.094 5.982-3.21 7.114-0.224 0.733 1.92-1.108 3.773-2.954 3.926 0.097-0.409 0.259-0.803 0.319-1.22 0.024-0.271-0.354-0.427-0.547-0.244-1.199 0.797-2.393 1.604-3.58 2.422 1.186 0.802 2.371 1.603 3.557 2.405 0.188 0.169 0.52 0.080 0.572-0.174-0.032-0.446-0.215-0.865-0.312-1.298 1.876-0.175 3.71-1.265 4.54-2.992 0.784-1.561 0.499-3.544-0.632-4.86-1.742-2.137-5.056-2.611-7.423-1.282z"></path>
<path fill="#000" d="M11.669 0.391c0.383-0.152 0.815-0.002 1.080 0.298 3.522 3.518 7.043 7.040 10.564 10.562 0.43 0.35 0.478 1.055 0.055 1.43-3.562 3.563-7.124 7.124-10.685 10.687-0.348 0.395-1.019 0.395-1.366 0-3.56-3.563-7.123-7.124-10.686-10.687-0.392-0.35-0.394-1.015-0.002-1.367 3.493-3.509 7.003-7.001 10.499-10.507 0.164-0.156 0.325-0.33 0.541-0.416M11.788 0.856c-3.607 3.511-7.129 7.118-10.708 10.663-0.259 0.192-0.395 0.601-0.11 0.835 3.558 3.559 7.116 7.12 10.678 10.675 0.203 0.252 0.588 0.185 0.768-0.058 3.535-3.541 7.079-7.076 10.614-10.618 0.247-0.205 0.186-0.589-0.052-0.774-3.518-3.52-7.038-7.038-10.558-10.556-0.154-0.179-0.409-0.284-0.632-0.168z"></path>
<path fill="#000" d="M9.565 7.292c2.368-1.33 5.681-0.856 7.423 1.282 1.132 1.316 1.416 3.299 0.632 4.86-0.829 1.727-2.664 2.816-4.54 2.992 0.097 0.433 0.28 0.852 0.312 1.298-0.053 0.254-0.384 0.343-0.572 0.174-1.186-0.802-2.371-1.603-3.557-2.405 1.187-0.817 2.381-1.625 3.58-2.422 0.193-0.184 0.571-0.028 0.547 0.244-0.060 0.418-0.222 0.811-0.319 1.22 1.847-0.154 3.688-2.006 2.954-3.926-1.132-2.986-6.205-2.869-7.114 0.224-0.202 1.848-0.038 3.726-0.095 5.587-0.626 0.006-1.253 0.005-1.879 0.001-0.002-1.673-0.010-3.346 0.001-5.018 0.012-1.729 1.135-3.302 2.626-4.111z"></path>
</svg>
