<?xml version="1.0" encoding="utf-8"?>
<!-- Generated by IcoMoon.io -->
<!DOCTYPE svg PUBLIC "-//W3C//DTD SVG 1.1//EN" "http://www.w3.org/Graphics/SVG/1.1/DTD/svg11.dtd">
<svg version="1.1" xmlns="http://www.w3.org/2000/svg" xmlns:xlink="http://www.w3.org/1999/xlink" width="24" height="24" viewBox="0 0 24 24">
<path fill="#ffd033" d="M11.206 23.644c0.43 0.43 1.126 0.43 1.555 0l10.884-10.883c0.43-0.43 0.43-1.126 0-1.555l-10.884-10.884c-0.429-0.43-1.126-0.43-1.555 0l-10.884 10.884c-0.43 0.429-0.43 1.125 0 1.555l10.884 10.883z"></path>
<path fill="#000" d="M23.128 12.243l-10.884 10.884c-0.143 0.143-0.376 0.143-0.518 0l-10.884-10.884c-0.143-0.143-0.143-0.376 0-0.519l10.884-10.883c0.143-0.143 0.376-0.143 0.518 0l10.884 10.883c0.142 0.143 0.142 0.376 0 0.519zM23.43 11.422l-10.884-10.884c-0.309-0.31-0.813-0.31-1.123 0l-10.884 10.884c-0.309 0.31-0.309 0.813 0 1.123l10.884 10.884c0.309 0.31 0.813 0.31 1.123 0l10.884-10.884c0.309-0.31 0.309-0.813 0-1.123z"></path>
<path fill="#000" d="M10.447 13.929v-3.953h-4.047v-3.012h4.047v-3.482h3.106v16.941h-3.106v-3.482h-4.047v-3.012z"></path>
</svg>
