<?xml version="1.0" encoding="utf-8"?>
<!-- Generated by IcoMoon.io -->
<!DOCTYPE svg PUBLIC "-//W3C//DTD SVG 1.1//EN" "http://www.w3.org/Graphics/SVG/1.1/DTD/svg11.dtd">
<svg version="1.1" xmlns="http://www.w3.org/2000/svg" xmlns:xlink="http://www.w3.org/1999/xlink" width="24" height="24" viewBox="0 0 24 24">
<path fill="#fee011" d="M12.832 0.352l10.816 10.816c0.46 0.46 0.46 1.205 0 1.664l-10.816 10.816c-0.46 0.46-1.205 0.46-1.664 0l-10.816-10.816c-0.46-0.46-0.46-1.205 0-1.664l10.816-10.816c0.46-0.46 1.205-0.46 1.664 0z"></path>
<path fill="#000" d="M12.666 0.518l10.816 10.816c0.368 0.368 0.368 0.964 0 1.331l-10.816 10.816c-0.368 0.368-0.964 0.368-1.331 0l-10.816-10.816c-0.368-0.368-0.368-0.964 0-1.331l10.816-10.816c0.368-0.368 0.964-0.368 1.331 0z"></path>
<path fill="#fee011" d="M12.333 0.851l10.816 10.816c0.184 0.184 0.184 0.482 0 0.666l-10.816 10.816c-0.184 0.184-0.482 0.184-0.666 0l-10.816-10.816c-0.184-0.184-0.184-0.482 0-0.666l10.816-10.816c0.184-0.184 0.482-0.184 0.666 0z"></path>
<path fill="#000" d="M17.034 7.873l-0.659 0.085 0.404-0.050-0.055 0.155-0.035 0.22-0.085-0.14-0.105-0.105-0.125-0.080-0.21 0.010-0.12 0.060-0.045 0.15 0.010 0.22 0.020 0.215-0.31-0.030-0.404 0.035-0.41 0.015-0.37 0.010-0.969 0.010-0.375 0.035-0.489 0.015-0.48 0.035-0.669 0.020-0.599-0.045-0.435-0.005-0.639-0.040-0.644-0.035-0.644-0.090-0.524-0.080-0.56-0.079-0.584 0.024-0.42 0.16-0.315 0.315-0.31 0.579-0.1 0.679-0.025 0.439-0.015 0.35v0.479l-0.040 0.295-0.055 0.295-0.145 0.17-0.145 0.085-0.145 0.135-0.1 0.205-0.055 0.225 0.010 0.25 0.055 0.17 0.095 0.215 0.040 0.195 0.025 0.2-0.050 0.175 0.185-0.025 0.195-0.17 0.145-0.205 0.035-0.27v-0.41l0.11-0.28 0.105-0.265 0.025-0.18-0.070-0.16 0.070-0.24 0.090-0.38 0.145-0.784-0.040 0.829 0.015 0.435-0.025 0.38-0.065 0.295-0.090 0.205-0.27 0.145 0.070-0.035 0.11 0.33 0.035 0.32 0.010 0.2-0.010 0.295 0.045 0.235 0.010 0.33-0.020 0.305-0.015 0.27-0.085 0.639 0.11 0.010h0.1l-0.050 0.225-0.020 0.21-0.005 0.175 0.305 0.040 0.24 0.035 0.355 0.005 0.245 0.015 0.135-0.015 0.085-0.115-0.085-0.18-0.165-0.22-0.16-0.255-0.075-0.27-0.030-0.33 0.020-0.335 0.025-0.514 0.095-0.464 0.060-0.22 0.095 0.305 0.075 0.365 0.125 0.4 0.095 0.255 0.055 0.3 0.070 0.235 0.045 0.16 0.185 0.035 0.055 0.095 0.030 0.175 0.045 0.155 0.065 0.13 0.145 0.060 0.25 0.045 0.39 0.035 0.125-0.065 0.055-0.065v-0.165l-0.055-0.13-0.105-0.095-0.195-0.19-0.205-0.325-0.070-0.285-0.045-0.335 0.025-0.36-0.035-0.275 0.035-0.080 0.090-0.005 0.045 0.12 0.010 0.12 0.080 0.085 0.1-0.010 0.060-0.085 0.055-0.11 0.125-0.030 0.135 0.040 0.105 0.15 0.12 0.060 0.195-0.030 0.035-0.135-0.070-0.19 0.235-0.035 0.205-0.135 0.12-0.25 0.489 0.060h0.454l0.499 0.005 0.534-0.065 0.395-0.050 0.33-0.070 0.010 0.24v0.449l0.040 0.285 0.045 0.17 0.025 0.21 0.005 0.225v0.205l0.005 0.27v0.22l-0.020 0.165-0.015 0.15 0.2 0.030 0.035 0.185 0.010 0.165 0.020 0.165 0.16 0.060 0.205 0.030 0.24 0.040 0.27-0.035 0.095-0.22-0.185-0.255-0.090-0.175-0.105-0.325-0.070-0.28-0.035-0.3 0.005-0.34 0.035-0.23 0.050 0.125 0.070 0.12 0.045 0.145 0.040 0.12 0.050 0.17 0.045 0.2 0.040 0.215 0.040 0.27 0.020 0.13 0.055 0.21 0.060 0.025 0.045 0.030 0.055 0.285 0.080 0.125 0.105 0.12 0.090 0.040 0.145 0.035 0.13 0.030h0.235l0.17-0.2-0.28-0.27-0.155-0.36-0.115-0.41-0.035-0.35 0.015-0.369v-0.414l0.030-0.38 0.035-0.423 0.35-0.026 0.27-0.045 0.225-0.17 0.19-0.325 0.090-0.355 0.045-0.38 0.12-0.36 0.135-0.404 0.145-0.355 0.25-0.19 0.375-0.135 0.22-0.045 0.29-0.060h0.205l0.34 0.005 0.325-0.010 0.235-0.065 0.29-0.13 0.355 0.010 0.265-0.315 0.145-0.295-0.17-0.285-0.245-0.215-0.424-0.345-0.375-0.355-0.3-0.31-0.265-0.1-0.075-0.035 0.205-0.010 0.29-0.025 0.265-0.095 0.145-0.030 0.145-0.165-0.025-0.155-0.080-0.045-0.365 0.095-0.195-0.010-0.265-0.055-0.265-0.085-0.3-0.025h-0.2z"></path>
</svg>
