<svg xmlns="http://www.w3.org/2000/svg" width="24" height="24">
    <path fill="#ef7c23" d="M0 0h3.427c.004 1.127-.01 2.254.012 3.379l-.113.016c-1.106.077-2.218.01-3.326.032V0zM6.854 0h3.427c.001 1.126-.001 2.251.002 3.377a115.349 115.349 0 0 0-3.43 0V0zM13.71 0h3.427c0 1.126-.001 2.251.001 3.377a112.053 112.053 0 0 0-3.43 0c.002-1.126 0-2.251.001-3.377zM20.564 0H24v3.425c-1.11-.013-2.221.036-3.33-.025l-.116-.005c.024-1.132.006-2.263.011-3.395zM3.482 3.482c5.678-.007 11.357-.007 17.034.001.008 5.676.011 11.352 0 17.028-5.678.005-11.356.005-17.033 0a5686 5686 0 0 1-.001-17.029zM9.82 7.891c-.515.03-.756.791-.326 1.091.616.406 1.274.74 1.901 1.129-1.846 1.868-3.718 3.712-5.558 5.586a345.38 345.38 0 0 0 2.418 2.424c1.864-1.849 3.706-3.719 5.568-5.569.413.647.737 1.349 1.172 1.98.288.394.976.212 1.042-.268.445-2.504.838-5.02 1.23-7.534-2.488.349-4.97.736-7.446 1.16zM0 6.853h3.377a108.814 108.814 0 0 0 0 3.428C2.251 10.277 1.126 10.28 0 10.28V6.853zM20.62 6.853H24v3.424c-1.127.007-2.254 0-3.38.005.018-1.142.017-2.286 0-3.428zM0 13.706c1.126 0 2.251.001 3.377-.001a112.053 112.053 0 0 0 0 3.43c-1.126-.002-2.251 0-3.377-.001v-3.427zM20.62 13.705c1.127.002 2.254.002 3.38 0v3.425c-1.127.01-2.254 0-3.38.005.017-1.142.018-2.286 0-3.43zM0 20.561c1.132-.005 2.264.012 3.396-.011l.005.12c.061 1.109.008 2.22.029 3.33H0v-3.439zM20.602 20.548c1.133.028 2.266.008 3.398.012V24h-3.432c.012-1.112-.043-2.227.029-3.338l.005-.114zM6.854 20.616c1.142.011 2.286.012 3.43 0a636.193 636.193 0 0 0 0 3.384H6.863c-.017-1.128-.004-2.256-.008-3.384zM13.709 20.616c1.142.012 2.286.011 3.43 0-.001 1.128-.004 2.256 0 3.384h-3.422c-.013-1.128-.002-2.256-.007-3.384z"/>
    <path d="M3.427 0h3.427v3.377c-1.139.054-2.278.019-3.415.002C3.417 2.253 3.431 1.127 3.427 0zM10.282 0h3.428c-.001 1.126.001 2.251-.001 3.377-1.141.04-2.284.04-3.425 0-.004-1.126-.001-2.251-.002-3.377zM17.137 0h3.427c-.005 1.132.013 2.263-.011 3.395-1.139-.01-2.278.04-3.415-.018-.002-1.126-.001-2.251-.001-3.377zM0 3.427c1.109-.023 2.22.044 3.326-.032.133 1.148.077 2.306.05 3.458H-.001V3.427zM20.67 3.4c1.109.061 2.22.012 3.33.025v3.428h-3.38c-.024-1.151-.078-2.306.05-3.454zM9.82 7.891a246.04 246.04 0 0 1 7.446-1.16 361.348 361.348 0 0 1-1.23 7.534c-.066.48-.754.661-1.042.268-.436-.631-.76-1.333-1.172-1.98-1.862 1.85-3.704 3.72-5.568 5.569a345.38 345.38 0 0 1-2.418-2.424c1.841-1.874 3.713-3.718 5.558-5.586-.626-.389-1.285-.724-1.901-1.129-.43-.3-.188-1.061.326-1.091zM0 10.28c1.126 0 2.251-.002 3.377.001a47.673 47.673 0 0 1 0 3.424c-1.126.002-2.251.001-3.377.001V10.28zM20.62 10.282c1.127-.005 2.254.002 3.38-.005v3.428c-1.127.002-2.254.002-3.38 0a53.547 53.547 0 0 1 0-3.424zM0 17.134c1.126.001 2.251-.001 3.377.001.059 1.139.007 2.278.019 3.415-1.132.023-2.264.006-3.396.011v-3.427zM20.62 17.135c1.127-.005 2.254.005 3.38-.005v3.43c-1.133-.004-2.266.016-3.398-.012.016-1.138-.038-2.275.018-3.413zM3.401 20.67c1.147-.131 2.303-.071 3.454-.054.005 1.128-.008 2.256.008 3.384H3.43c-.02-1.11.032-2.221-.029-3.33zM10.284 20.616a63.08 63.08 0 0 1 3.425 0c.005 1.128-.006 2.256.007 3.384h-3.432c-.004-1.128-.002-2.256 0-3.384zM17.138 20.616c1.152-.019 2.309-.071 3.458.046-.072 1.111-.017 2.226-.029 3.338h-3.43c-.004-1.128-.001-2.256 0-3.384z"/>
    <path fill="#2a1606" d="M3.326 3.395l.113-.016c1.138.017 2.276.052 3.415-.002 1.142-.017 2.286-.017 3.43 0 1.141.04 2.284.04 3.425 0 1.142-.018 2.286-.017 3.43 0 1.138.058 2.276.008 3.415.018l.116.005c-.128 1.147-.074 2.303-.05 3.454.017 1.142.018 2.286 0 3.428a53.547 53.547 0 0 0 0 3.424c.018 1.144.017 2.287 0 3.43-.056 1.138-.002 2.275-.018 3.413l-.005.114c-1.15-.116-2.306-.065-3.458-.046a170.51 170.51 0 0 1-3.43 0 63.08 63.08 0 0 0-3.425 0 170.51 170.51 0 0 1-3.43 0c-1.151-.017-2.306-.077-3.454.054l-.005-.12c-.012-1.138.04-2.276-.019-3.415a112.053 112.053 0 0 1 0-3.43c.041-1.14.041-2.282 0-3.424a108.814 108.814 0 0 1 0-3.428c.026-1.152.083-2.31-.05-3.458zm.156.087c-.007 5.677-.008 11.353.001 17.029 5.677.005 11.354.005 17.033 0 .011-5.676.008-11.352 0-17.028-5.677-.008-11.356-.008-17.034-.001z"/>
</svg>
