<!-- Generated by IcoMoon.io -->
<svg version="1.1" xmlns="http://www.w3.org/2000/svg" width="24" height="24" viewBox="0 0 24 24">
<title>warning--dual-lanes-right-turn--g1</title>
<path fill="#ffd520" d="M0 0h23.9c-0.010 7.982 0.020 15.965-0.015 23.947-0.424-0.082-0.857-0.044-1.285-0.047-7.533 0-15.067 0-22.6 0v-23.9M0.5 0.501c-0.001 7.66-0.003 15.32 0.002 22.98 7.656-0.002 15.312 0.001 22.969-0.002 0-7.659-0.002-15.318 0.001-22.977-7.658-0.005-15.315-0.002-22.972-0.001z"></path>
<path fill="#ffd520" d="M1 1.001c7.324-0.001 14.648-0.004 21.972 0.001-0.002 7.326 0 14.652-0.001 21.977-7.323 0.003-14.646 0-21.97 0.002-0.005-7.327-0.002-14.654-0.001-21.98M5.672 5.419c0.464 0.427 0.98 0.795 1.457 1.205-2.262 1.264-4.002 3.626-4.091 6.27-0.029 2.303-0.004 4.607-0.013 6.91 0.804 0.005 1.608 0.003 2.411 0.001 0.004-1.602 0.001-3.204 0.002-4.806 0.006-0.957-0.054-1.932 0.198-2.867 0.365-1.517 1.469-2.848 2.931-3.419 0.229 0.552 0.391 1.133 0.651 1.672 0.173 0.37 0.757 0.286 0.853-0.099 0.656-1.861 1.275-3.736 1.851-5.623-1.976-0.033-3.953-0.080-5.929-0.049-0.406-0.017-0.635 0.539-0.321 0.805M15.212 5.386c0.467 0.45 1.010 0.813 1.49 1.25-2.304 1.258-4.043 3.688-4.097 6.362-0.017 2.269-0.005 4.538-0.005 6.808 0.803 0.001 1.606 0.001 2.409-0.001 0.003-1.968 0.001-3.937 0.001-5.906-0.109-2.146 1.062-4.395 3.124-5.189 0.239 0.557 0.396 1.149 0.666 1.692 0.171 0.331 0.703 0.278 0.822-0.068 0.679-1.872 1.275-3.775 1.884-5.672-1.971-0.032-3.942-0.077-5.912-0.051-0.394-0.034-0.663 0.484-0.382 0.775z"></path>
<path fill="#b39615" opacity="0.7" d="M23.9 0h0.1v24l-0.115-0.053c0.035-7.982 0.005-15.965 0.015-23.947z"></path>
<path fill="#000" d="M0.5 0.501c7.657-0.001 15.314-0.004 22.972 0.001-0.003 7.659-0.001 15.318-0.001 22.977-7.657 0.003-15.313 0-22.969 0.002-0.005-7.66-0.003-15.32-0.002-22.98M1 1.001c-0.001 7.326-0.004 14.653 0.001 21.98 7.324-0.002 14.647 0.001 21.97-0.002 0.001-7.325-0.001-14.651 0.001-21.977-7.324-0.005-14.648-0.002-21.972-0.001z"></path>
<path fill="#000" d="M5.672 5.419c-0.314-0.266-0.085-0.822 0.321-0.805 1.976-0.031 3.953 0.016 5.929 0.049-0.576 1.887-1.195 3.762-1.851 5.623-0.096 0.385-0.68 0.469-0.853 0.099-0.26-0.539-0.422-1.12-0.651-1.672-1.462 0.571-2.566 1.902-2.931 3.419-0.252 0.935-0.192 1.91-0.198 2.867-0.001 1.602 0.002 3.204-0.002 4.806-0.803 0.002-1.607 0.004-2.411-0.001 0.009-2.303-0.016-4.607 0.013-6.91 0.089-2.644 1.829-5.006 4.091-6.27-0.477-0.41-0.993-0.778-1.457-1.205z"></path>
<path fill="#000" d="M15.212 5.386c-0.281-0.291-0.012-0.809 0.382-0.775 1.97-0.026 3.941 0.019 5.912 0.051-0.609 1.897-1.205 3.8-1.884 5.672-0.119 0.346-0.651 0.399-0.822 0.068-0.27-0.543-0.427-1.135-0.666-1.692-2.062 0.794-3.233 3.043-3.124 5.189 0 1.969 0.002 3.938-0.001 5.906-0.803 0.002-1.606 0.002-2.409 0.001 0-2.27-0.012-4.539 0.005-6.808 0.054-2.674 1.793-5.104 4.097-6.362-0.48-0.437-1.023-0.8-1.49-1.25z"></path>
<path fill="#ccaa1a" opacity="0.8" d="M0 23.9c7.533 0 15.067 0 22.6 0 0.428 0.003 0.861-0.035 1.285 0.047l0.115 0.053h-24v-0.1z"></path>
</svg>
