<svg xmlns="http://www.w3.org/2000/svg" width="24" height="24">
    <path fill="#ffde00" d="M11.81 0h.374c.385.108.75.292 1.027.583 3.418 3.426 6.84 6.846 10.262 10.267.232.228.4.51.526.809v.697a2.24 2.24 0 0 1-.508.81c-3.223 3.22-6.442 6.442-9.665 9.661-.442.432-.84.947-1.438 1.172h-.72c-.276-.113-.542-.258-.754-.472A33889.62 33889.62 0 0 0 .529 13.143c-.264-.253-.421-.59-.532-.934v-.352c.098-.371.269-.724.55-.99C3.966 7.446 7.388 4.028 10.805.605a2.4 2.4 0 0 1 1.003-.607zm-.25.406c-.211.092-.38.252-.545.408C7.579 4.262 4.132 7.695.697 11.142c-.496.445-.508 1.283-.017 1.735 3.498 3.504 6.998 7.007 10.506 10.5.452.484 1.28.452 1.715-.04 3.462-3.456 6.917-6.919 10.38-10.374.528-.436.607-1.298.098-1.781-3.45-3.47-6.917-6.925-10.373-10.39-.352-.404-.938-.613-1.447-.388z"/>
    <path fill="#ffde00" d="M11.921.757c.307-.058.571.142.774.347 3.44 3.443 6.881 6.886 10.319 10.331.347.289.368.856.018 1.152-3.481 3.481-6.962 6.965-10.446 10.444-.295.35-.863.332-1.15-.018C7.955 19.529 4.469 16.051.99 12.566c-.326-.288-.306-.827.018-1.109C4.44 8.006 7.894 4.574 11.327 1.124c.17-.157.35-.341.594-.366zM6.66 8.089c-.581 1.391-1.132 2.794-1.711 4.184-.31.644-.136 1.376-.176 2.063.155.006.31 0 .464-.018.146-.636.67-1.21 1.351-1.231 3.847-.08 7.702.1 11.544-.125.571-.023 1.015.446 1.135.976.372.005.743.007 1.115.006-.001-.191-.001-.382.001-.572-.227-.005-.454-.004-.679-.008-.319-.504-.834-.944-1.464-.93-1.77-.007-3.539.005-5.309-.005-.276-.817-.884-1.565-.788-2.468.007-.785.006-1.568 0-2.352-1.571.005-3.143-.007-4.712.004-.33-.024-.662.156-.77.478zm10.178 5.277c-3.451.12-6.911-.031-10.36.078-1.181.17-1.164 2.07.018 2.22 3.233.049 6.472.023 9.704.014.763-.202 1.47-.587 2.203-.877.594-.191.686-1.116.113-1.39-.53-.221-1.123-.04-1.679-.046z"/>
    <path fill="#ffde00" d="M7.356 8.303c.912-.164 1.867-.024 2.796-.072.007.763.004 1.526.004 2.288-1.24 0-2.479.004-3.719-.001.318-.731.494-1.542.919-2.215zM6.348 10.816l3.798.001.002 1.118c-1.408.001-2.815.004-4.223-.002.137-.374.278-.745.422-1.117zM7.308 13.747c.386.007.773.007 1.158-.005a1.084 1.084 0 0 0-.008 1.619 17.546 17.546 0 0 0-1.147.001 1.113 1.113 0 0 0-.002-1.615zM11.976 13.739c.392.007.785.007 1.177-.005a1.095 1.095 0 0 0-.028 1.627 17.897 17.897 0 0 0-1.135.001 1.117 1.117 0 0 0-.014-1.624zM16.584 13.709c.342-.007.683-.023 1.025-.047-.168.372-.074.756.234 1.021-.304.12-.604.248-.901.384a1.19 1.19 0 0 0-.358-1.358zM9.644 13.742c.38.012.761.011 1.141.002a1.111 1.111 0 0 0 .007 1.618 17.316 17.316 0 0 0-1.162 0 1.094 1.094 0 0 0 .013-1.62zM14.312 13.742c.386.012.773.012 1.159.004a1.102 1.102 0 0 0-.004 1.618 34.505 34.505 0 0 0-1.16.001 1.087 1.087 0 0 0 .005-1.622z"/>
    <path d="M11.56.406c.509-.226 1.096-.017 1.447.388 3.456 3.464 6.923 6.919 10.373 10.39.509.482.43 1.345-.098 1.781-3.463 3.455-6.918 6.918-10.38 10.374-.434.492-1.262.523-1.715.04a4952.512 4952.512 0 0 1-10.506-10.5c-.491-.452-.479-1.29.017-1.735C4.132 7.696 7.58 4.263 11.016.816c.164-.156.334-.316.545-.408zm.361.351c-.244.025-.424.209-.594.366C7.894 4.573 4.44 8.005 1.008 11.456c-.324.282-.344.821-.018 1.109 3.479 3.485 6.965 6.964 10.446 10.447.287.35.854.368 1.15.018 3.484-3.479 6.965-6.962 10.446-10.444.35-.296.329-.863-.018-1.152-3.438-3.445-6.878-6.888-10.319-10.331-.203-.205-.467-.404-.774-.347z"/>
    <path d="M6.66 8.089c.108-.322.44-.502.77-.478 1.57-.011 3.142.001 4.712-.004.006.784.007 1.567 0 2.352-.096.904.512 1.651.788 2.468 1.77.01 3.539-.002 5.309.005.63-.014 1.145.426 1.464.93.226.005.452.004.679.008-.002.191-.002.382-.001.572-.372.001-.743-.001-1.115-.006-.12-.529-.564-.998-1.135-.976-3.842.224-7.697.044-11.544.125-.682.022-1.205.595-1.351 1.231-.155.018-.31.024-.464.018.041-.686-.133-1.418.176-2.063.58-1.391 1.13-2.794 1.711-4.184zm.696.214c-.425.673-.601 1.484-.919 2.215 1.24.005 2.479.001 3.719.001 0-.762.004-1.525-.004-2.288-.929.048-1.884-.092-2.796.072zm-1.008 2.513c-.144.372-.286.743-.422 1.117 1.408.006 2.815.004 4.223.002l-.002-1.118-3.798-.001z"/>
    <path d="M16.838 13.366c.556.006 1.148-.175 1.679.046.574.274.481 1.199-.113 1.39-.733.29-1.44.676-2.203.877-3.233.008-6.472.035-9.704-.014-1.182-.15-1.199-2.05-.018-2.22 3.449-.109 6.908.042 10.36-.078zm-9.53.381c.464.444.463 1.168.002 1.615.383-.013.764-.013 1.147-.001a1.085 1.085 0 0 1 .008-1.619c-.385.012-.772.012-1.158.005zm4.668-.008c.47.443.478 1.171.014 1.624.378-.012.757-.013 1.135-.001a1.095 1.095 0 0 1 .028-1.627c-.392.012-.785.012-1.177.005zm4.608-.03c.404.335.542.864.358 1.358.298-.136.598-.264.901-.384-.308-.265-.402-.649-.234-1.021-.342.024-.683.04-1.025.047zm-6.94.033a1.094 1.094 0 0 1-.013 1.62c.386-.013.774-.013 1.162 0a1.11 1.11 0 0 1-.007-1.618c-.38.008-.761.01-1.141-.002zm4.668 0c.476.44.487 1.192-.005 1.622.386-.007.774-.007 1.16-.001a1.102 1.102 0 0 1 .004-1.618c-.386.008-.773.008-1.159-.004z"/>
</svg>
