<!-- Generated by IcoMoon.io -->
<svg version="1.1" xmlns="http://www.w3.org/2000/svg" width="27" height="24" viewBox="0 0 27 24">
<title>warning--junction-with-a-side-road-perpendicular-right--g1</title>
<path fill="#ec1d24" d="M13.193 0h0.649c0.541 0.148 1.047 0.468 1.311 0.975 3.852 6.681 7.7 13.364 11.554 20.045 0.151 0.267 0.289 0.541 0.411 0.823v0.656c-0.174 0.725-0.731 1.315-1.456 1.501h-24.194c-0.7-0.155-1.234-0.701-1.468-1.365v-0.801c0.1-0.251 0.213-0.496 0.344-0.732 3.87-6.709 7.736-13.422 11.605-20.133 0.255-0.488 0.739-0.788 1.243-0.968M2.833 21.6c7.144 0.008 14.289 0.007 21.432 0.001-3.561-6.202-7.134-12.397-10.715-18.587-3.584 6.188-7.151 12.386-10.717 18.586z"></path>
<path fill="#fff" d="M2.833 21.6c3.566-6.199 7.134-12.397 10.717-18.586 3.581 6.19 7.154 12.385 10.715 18.587-7.143 0.005-14.287 0.007-21.432-0.001M13.087 8.423c-0.674 0.673-1.353 1.341-2.020 2.022-0.009 3.454-0.009 6.907 0.003 10.362 1.351 0.005 2.702 0.004 4.054 0 0.008-1.448-0.001-2.896 0.004-4.344 0.979-0.008 1.957 0.003 2.934-0.005-0.008-0.679 0.033-1.36-0.022-2.038-0.971 0.011-1.94 0.007-2.911 0.003-0.034-1.333 0.054-2.683-0.041-4.007-0.651-0.679-1.318-1.345-2.001-1.992z"></path>
<path fill="#040404" d="M13.087 8.423c0.683 0.647 1.351 1.313 2.001 1.992 0.095 1.323 0.007 2.674 0.041 4.007 0.971 0.004 1.94 0.008 2.911-0.003 0.054 0.678 0.014 1.359 0.022 2.038-0.978 0.008-1.955-0.003-2.934 0.005-0.005 1.448 0.004 2.896-0.004 4.344-1.352 0.004-2.704 0.005-4.054 0-0.012-3.455-0.012-6.908-0.003-10.362 0.667-0.681 1.346-1.349 2.020-2.022z"></path>
</svg>
