<?xml version="1.0" encoding="utf-8"?>
<!-- Generated by IcoMoon.io -->
<!DOCTYPE svg PUBLIC "-//W3C//DTD SVG 1.1//EN" "http://www.w3.org/Graphics/SVG/1.1/DTD/svg11.dtd">
<svg version="1.1" xmlns="http://www.w3.org/2000/svg" xmlns:xlink="http://www.w3.org/1999/xlink" width="24" height="24" viewBox="0 0 24 24">
<path fill="#ef7c23" d="M10.55 0.95c0.457-0.479 1.136-0.762 1.8-0.626 0.586 0.088 0.978 0.564 1.38 0.952 3.19 3.126 6.379 6.253 9.571 9.378 0.826 0.661 0.762 1.994-0.007 2.672-3.317 3.29-6.637 6.575-9.95 9.868-0.269 0.277-0.618 0.458-0.986 0.566h-0.8c-0.604-0.12-0.99-0.624-1.408-1.027-3.050-2.988-6.097-5.978-9.15-8.964-0.347-0.347-0.775-0.674-0.889-1.178-0.199-0.694 0.103-1.43 0.619-1.904 3.271-3.247 6.545-6.492 9.821-9.736M11.567 0.782c-0.343 0.084-0.623 0.311-0.865 0.557-3.216 3.182-6.431 6.368-9.643 9.554-0.428 0.394-0.672 1.004-0.524 1.58 0.107 0.488 0.52 0.808 0.856 1.141 3.172 3.107 6.343 6.214 9.511 9.323 0.6 0.619 1.668 0.541 2.242-0.074 3.27-3.25 6.548-6.49 9.821-9.738 0.61-0.559 0.688-1.616 0.066-2.196-3.31-3.256-6.626-6.503-9.946-9.748-0.382-0.407-0.985-0.558-1.517-0.4z"></path>
<path fill="#ef7c23" d="M11.569 1.616c0.331-0.232 0.785-0.12 1.036 0.174 3.234 3.167 6.467 6.336 9.698 9.504 0.191 0.191 0.419 0.407 0.388 0.704-0.020 0.442-0.42 0.713-0.697 1.006-2.999 2.957-5.986 5.926-8.977 8.891-0.3 0.278-0.57 0.679-1.019 0.703-0.432 0.030-0.692-0.366-0.976-0.624-3.049-2.99-6.096-5.983-9.152-8.965-0.244-0.259-0.614-0.493-0.605-0.892-0.010-0.332 0.24-0.58 0.457-0.798 3.012-2.989 6.029-5.975 9.042-8.963 0.262-0.253 0.5-0.536 0.805-0.74M10.618 5.48c-0.85 0.22-1.136 1.439-0.458 2.003 0.638 0.655 1.886 0.251 2.016-0.655 0.193-0.854-0.743-1.646-1.558-1.348M12.688 7.54c-0.565 0.306-1.112 0.648-1.673 0.964-0.248 0.16-0.57 0.305-0.644 0.622-0.176 0.656-0.318 1.321-0.479 1.98-0.151 0.703-0.47 1.351-0.72 2.022-0.463 0.154-0.908 0.36-1.381 0.482-0.418-0.030-0.839-0.23-1.255-0.082-0.469 0.145-0.674 0.643-0.817 1.068 1.148-0.379 2.269-0.842 3.42-1.211 0.298 0.032 0.607 0.031 0.756-0.278 0.58-0.23 1.171-0.428 1.758-0.641-0.278 0.844-0.562 1.685-0.846 2.526-0.139 0.389-0.085 0.808-0.094 1.212 0.014 0.796-0.022 1.594 0.014 2.389 0.012 0.281 0.24 0.611 0.556 0.546 0.298-0.127 0.397-0.474 0.415-0.77 0.048-1.003 0.007-2.012 0.079-3.014 0.252-0.566 0.616-1.078 0.912-1.622 0.422 1.284 0.622 2.656 1.309 3.836 0.269 0.446 0.383 1.058 0.878 1.316 0.323 0.139 0.601-0.217 0.53-0.52-0.234-1.109-0.89-2.116-0.92-3.269-0.11-1.169-0.13-2.356-0.443-3.496 1.037-0.37 2.070-0.75 3.108-1.115l-0.091-0.203c-0.49 0.18-0.984 0.347-1.471 0.533 0.041-0.593 0.036-1.187 0.041-1.78-0.72-0.461-1.438-0.924-2.159-1.384-0.226-0.144-0.53-0.283-0.784-0.113z"></path>
<path fill="#ef7c23" d="M13.393 8.622c0.48 0.211 0.958 0.426 1.441 0.63 0.041 0.594-0.115 1.224 0.136 1.786-0.325 0.113-0.65 0.23-0.976 0.348-0.197-0.922-0.402-1.842-0.601-2.764z"></path>
<path fill="#ef7c23" d="M9.936 12.854c0.431-0.9 0.69-1.862 0.93-2.826 0.235 0.743 0.467 1.488 0.702 2.232-0.544 0.199-1.090 0.392-1.632 0.594z"></path>
<path fill="#000" d="M11.567 0.782c0.532-0.158 1.135-0.007 1.517 0.4 3.319 3.245 6.636 6.492 9.946 9.748 0.622 0.58 0.544 1.637-0.066 2.196-3.272 3.248-6.551 6.488-9.821 9.738-0.574 0.616-1.642 0.694-2.242 0.074-3.168-3.109-6.34-6.216-9.511-9.323-0.336-0.334-0.749-0.653-0.856-1.141-0.148-0.576 0.096-1.187 0.524-1.58 3.212-3.186 6.427-6.372 9.643-9.554 0.242-0.246 0.522-0.473 0.865-0.557M11.569 1.616c-0.305 0.204-0.544 0.487-0.805 0.74-3.013 2.988-6.030 5.974-9.042 8.963-0.217 0.218-0.467 0.466-0.457 0.798-0.010 0.398 0.361 0.632 0.605 0.892 3.056 2.982 6.103 5.975 9.152 8.965 0.283 0.258 0.544 0.654 0.976 0.624 0.449-0.024 0.719-0.425 1.019-0.703 2.992-2.965 5.978-5.934 8.977-8.891 0.277-0.293 0.677-0.564 0.697-1.006 0.031-0.298-0.197-0.514-0.388-0.704-3.232-3.168-6.464-6.337-9.698-9.504-0.251-0.294-0.704-0.406-1.036-0.174z"></path>
<path fill="#000" d="M10.618 5.48c0.815-0.299 1.751 0.493 1.558 1.348-0.13 0.906-1.378 1.31-2.016 0.655-0.678-0.564-0.391-1.783 0.458-2.003z"></path>
<path fill="#000" d="M12.688 7.54c0.253-0.17 0.558-0.031 0.784 0.113 0.721 0.46 1.439 0.923 2.159 1.384-0.005 0.593 0 1.187-0.041 1.78 0.487-0.186 0.982-0.353 1.471-0.533l0.091 0.203c-1.038 0.365-2.071 0.745-3.108 1.115 0.313 1.14 0.332 2.327 0.443 3.496 0.030 1.153 0.686 2.16 0.92 3.269 0.071 0.302-0.208 0.659-0.53 0.52-0.496-0.258-0.61-0.87-0.878-1.316-0.688-1.181-0.887-2.552-1.309-3.836-0.296 0.545-0.66 1.056-0.912 1.622-0.072 1.002-0.031 2.011-0.079 3.014-0.018 0.296-0.118 0.643-0.415 0.77-0.316 0.065-0.544-0.265-0.556-0.546-0.036-0.796 0-1.594-0.014-2.389 0.008-0.404-0.046-0.823 0.094-1.212 0.284-0.841 0.568-1.682 0.846-2.526-0.587 0.212-1.178 0.41-1.758 0.641-0.149 0.31-0.458 0.311-0.756 0.278-1.151 0.368-2.272 0.832-3.42 1.211 0.143-0.425 0.348-0.923 0.817-1.068 0.416-0.149 0.838 0.052 1.255 0.082 0.473-0.122 0.918-0.329 1.381-0.482 0.25-0.671 0.569-1.319 0.72-2.022 0.161-0.659 0.302-1.324 0.479-1.98 0.074-0.317 0.396-0.462 0.644-0.622 0.56-0.316 1.108-0.658 1.673-0.964M13.393 8.622c0.199 0.922 0.404 1.842 0.601 2.764 0.325-0.118 0.65-0.235 0.976-0.348-0.251-0.562-0.095-1.192-0.136-1.786-0.484-0.204-0.961-0.419-1.441-0.63M9.936 12.854c0.542-0.202 1.088-0.395 1.632-0.594-0.235-0.744-0.467-1.489-0.702-2.232-0.24 0.964-0.499 1.926-0.93 2.826z"></path>
</svg>
