<?xml version="1.0" encoding="utf-8"?>
<!-- Generated by IcoMoon.io -->
<!DOCTYPE svg PUBLIC "-//W3C//DTD SVG 1.1//EN" "http://www.w3.org/Graphics/SVG/1.1/DTD/svg11.dtd">
<svg version="1.1" xmlns="http://www.w3.org/2000/svg" xmlns:xlink="http://www.w3.org/1999/xlink" width="24" height="24" viewBox="0 0 24 24">
<path fill="#edae15" d="M23.575 12.779c0.269-0.269 0.391-0.514 0.391-0.783s-0.122-0.538-0.391-0.807l-10.736-10.736c-0.269-0.269-0.538-0.391-0.807-0.391s-0.538 0.122-0.807 0.391l-10.736 10.736c-0.269 0.269-0.391 0.538-0.391 0.807s0.122 0.514 0.391 0.783l10.736 10.736c0.269 0.269 0.538 0.391 0.807 0.391s0.514-0.122 0.783-0.391l10.761-10.736z"></path>
<path fill="#231f20" d="M23.331 12.559c0.171-0.196 0.269-0.367 0.269-0.562s-0.098-0.367-0.269-0.563l-10.736-10.736c-0.196-0.171-0.367-0.269-0.563-0.269s-0.367 0.098-0.563 0.269l-10.736 10.736c-0.171 0.196-0.269 0.367-0.269 0.563s0.098 0.367 0.269 0.562l10.736 10.736c0.196 0.171 0.367 0.269 0.563 0.269s0.367-0.098 0.563-0.269zM23.037 11.727c0.098 0.098 0.147 0.171 0.147 0.269s-0.049 0.171-0.147 0.269l-10.736 10.736c-0.098 0.098-0.171 0.147-0.269 0.147s-0.171-0.049-0.269-0.147l-10.736-10.736c-0.098-0.098-0.147-0.171-0.147-0.269s0.049-0.171 0.147-0.269l10.736-10.736c0.098-0.098 0.171-0.147 0.269-0.147s0.171 0.049 0.269 0.147l10.736 10.736z"></path>
<path fill="#231f20" d="M16.239 14.344h2.568v-4.818h-8.511v1.639h-1.663l-0.807 1.125h-2.299v1.785h-0.196v0.66h0.66c-0.024 0.073-0.024 0.122-0.024 0.196 0 0.562 0.44 1.003 1.003 1.003s1.003-0.44 1.003-1.003c0-0.073 0-0.122-0.024-0.196h2.495l0.391-0.391h3.864c-0.122 0.171-0.196 0.391-0.196 0.611 0 0.538 0.44 0.978 0.978 0.978s0.978-0.44 0.978-0.978c0-0.22-0.073-0.44-0.22-0.611z"></path>
</svg>
