<!-- Generated by IcoMoon.io -->
<svg version="1.1" xmlns="http://www.w3.org/2000/svg" width="24" height="24" viewBox="0 0 24 24">
<title>warning--hairpin-curve-right--g1</title>
<path fill="#231f20" d="M11.678 0.521c0.704-0.217 1.478 0.060 1.969 0.589 3.184 3.178 6.366 6.358 9.542 9.544 0.701 0.649 0.786 1.862 0.089 2.545-3.41 3.27-6.833 6.529-10.247 9.797-0.7 0.7-1.933 0.656-2.614-0.050-3.224-3.218-6.443-6.443-9.666-9.662-0.725-0.667-0.762-1.924-0.024-2.594 3.287-3.154 6.588-6.294 9.878-9.444 0.312-0.296 0.64-0.616 1.072-0.724M11.802 0.775c-0.408 0.086-0.712 0.391-1.003 0.667-3.289 3.151-6.592 6.288-9.876 9.445-0.604 0.547-0.601 1.566-0.031 2.136 3.24 3.241 6.482 6.481 9.722 9.722 0.572 0.606 1.631 0.643 2.224 0.049 3.396-3.244 6.793-6.486 10.187-9.731 0.64-0.574 0.592-1.648-0.034-2.212-3.174-3.188-6.361-6.364-9.54-9.545-0.409-0.451-1.050-0.691-1.649-0.533z"></path>
<path fill="#231f20" d="M11.561 1.246c0.706-0.265 1.522-0.017 2.022 0.529 2.984 2.978 5.97 5.957 8.942 8.947 0.676 0.641 0.722 1.826 0.029 2.472-3.191 3.052-6.385 6.101-9.577 9.151-0.674 0.653-1.844 0.6-2.494-0.062-3.023-3.019-6.046-6.042-9.065-9.066-0.703-0.659-0.7-1.886 0.037-2.521 3.062-2.936 6.136-5.866 9.204-8.797 0.269-0.254 0.541-0.53 0.901-0.653M11.683 1.618c-0.272 0.097-0.482 0.304-0.691 0.497-3.085 2.954-6.182 5.897-9.263 8.857-0.586 0.493-0.583 1.453-0.036 1.973 3.022 3.020 6.042 6.042 9.065 9.060 0.503 0.518 1.415 0.565 1.945 0.062 3.196-3.047 6.388-6.098 9.58-9.15 0.568-0.532 0.475-1.492-0.095-1.985-2.953-2.966-5.918-5.922-8.879-8.88-0.4-0.444-1.056-0.659-1.626-0.434z"></path>
<path fill="#231f20" d="M8.878 7.081c0.811-0.726 1.962-0.876 3.010-0.826 0.954 0.048 1.988 0.188 2.734 0.842 0.703 0.625 0.874 1.61 0.941 2.502 0.080 1.444-0.018 2.888-0.012 4.332 0.58-0.304 1.776-1.062 2.024-0.024-1.028 1.262-2.048 2.531-3.078 3.793-1.135-1.38-2.28-2.752-3.409-4.136 0.776-0.713 1.752 0.368 2.615 0.455 0.023-1.542 0.086-3.086 0.067-4.627-0.522-1.273-2.42-1.646-3.428-0.733-0.383 0.362-0.56 0.896-0.571 1.415-0.038 2.432-0.082 4.866-0.125 7.3-0.63 0.005-1.261 0.004-1.891 0.001 0.007-2.472 0.025-4.943 0.037-7.415 0.019-1.036 0.282-2.165 1.087-2.879z"></path>
<path fill="#fff100" d="M11.802 0.775c0.599-0.158 1.24 0.082 1.649 0.533 3.179 3.181 6.366 6.356 9.54 9.545 0.625 0.564 0.673 1.638 0.034 2.212-3.394 3.245-6.791 6.487-10.187 9.731-0.593 0.594-1.651 0.557-2.224-0.049-3.24-3.241-6.482-6.481-9.722-9.722-0.57-0.57-0.572-1.589 0.031-2.136 3.284-3.157 6.587-6.294 9.876-9.445 0.292-0.276 0.595-0.581 1.003-0.667M11.561 1.246c-0.36 0.122-0.632 0.398-0.901 0.653-3.068 2.932-6.142 5.861-9.204 8.797-0.737 0.635-0.74 1.862-0.037 2.521 3.019 3.024 6.042 6.047 9.065 9.066 0.649 0.662 1.819 0.715 2.494 0.062 3.192-3.050 6.386-6.1 9.577-9.151 0.694-0.646 0.647-1.831-0.029-2.472-2.972-2.99-5.958-5.969-8.942-8.947-0.5-0.546-1.316-0.794-2.022-0.529z"></path>
<path fill="#fff100" d="M11.683 1.618c0.57-0.224 1.226-0.010 1.626 0.434 2.96 2.958 5.926 5.914 8.879 8.88 0.57 0.493 0.662 1.453 0.095 1.985-3.192 3.052-6.384 6.103-9.58 9.15-0.53 0.503-1.442 0.456-1.945-0.062-3.023-3.018-6.043-6.040-9.065-9.060-0.547-0.52-0.55-1.48 0.036-1.973 3.080-2.96 6.178-5.903 9.263-8.857 0.209-0.193 0.419-0.4 0.691-0.497M8.878 7.081c-0.805 0.714-1.068 1.843-1.087 2.879-0.012 2.472-0.030 4.943-0.037 7.415 0.63 0.002 1.261 0.004 1.891-0.001 0.043-2.434 0.086-4.867 0.125-7.3 0.011-0.518 0.188-1.052 0.571-1.415 1.008-0.913 2.906-0.54 3.428 0.733 0.019 1.541-0.044 3.085-0.067 4.627-0.863-0.086-1.838-1.168-2.615-0.455 1.129 1.385 2.274 2.756 3.409 4.136 1.030-1.262 2.050-2.531 3.078-3.793-0.248-1.038-1.445-0.28-2.024 0.024-0.006-1.444 0.092-2.888 0.012-4.332-0.067-0.892-0.238-1.877-0.941-2.502-0.745-0.654-1.78-0.794-2.734-0.842-1.048-0.050-2.198 0.1-3.010 0.826z"></path>
</svg>
