<!-- Generated by IcoMoon.io -->
<svg version="1.1" xmlns="http://www.w3.org/2000/svg" width="26" height="24" viewBox="0 0 26 24">
<title>warning--divided-highway-on-right--g2</title>
<path fill="#feef3e" d="M12.466 0.892c0.406-0.16 0.826-0.172 1.229 0.001 0.652 0.516 0.893 1.332 1.353 1.994 3.513 6.040 6.946 12.13 10.507 18.142 0.22 0.438 0.187 0.901 0.012 1.346-0.278 0.263-0.567 0.606-0.98 0.612-2.124 0.007-4.249-0.006-6.374 0.004-0.807 0.127-1.697 0.308-2.478-0.010-0.065 0.045-0.194 0.136-0.259 0.181-0.051-0.030-0.155-0.091-0.207-0.12-0.399 0.139-0.828 0.087-1.243 0.093-4.222-0.004-8.443 0-12.667-0.001-0.198-0.211-0.4-0.418-0.606-0.622-0.173-0.438-0.253-0.914 0.061-1.31 3.531-6.252 7.063-12.503 10.608-18.743 0.266-0.571 0.588-1.123 1.045-1.566M12.92 1.080c-0.33 0.022-0.63 0.217-0.792 0.503-3.664 6.496-7.301 13.008-11.007 19.479-0.507 0.668 0.030 1.781 0.901 1.673 7.426-0.026 14.851-0.139 22.277-0.172 0.828 0.032 1.275-1.054 0.797-1.681-3.736-6.359-7.359-12.781-11.092-19.139-0.198-0.405-0.614-0.72-1.083-0.662z"></path>
<path fill="#232925" d="M12.92 1.080c0.468-0.058 0.885 0.257 1.083 0.662 3.733 6.359 7.356 12.781 11.092 19.139 0.479 0.627 0.032 1.713-0.797 1.681-7.426 0.033-14.851 0.146-22.277 0.172-0.87 0.108-1.408-1.005-0.901-1.673 3.706-6.471 7.343-12.983 11.007-19.479 0.162-0.286 0.463-0.481 0.792-0.503M3.467 20.831c6.429 0.004 12.857-0.119 19.287-0.149-3.231-5.597-6.453-11.199-9.7-16.787-3.249 5.611-6.364 11.306-9.587 16.936z"></path>
<path fill="#fbeb39" d="M3.467 20.831c3.223-5.63 6.338-11.325 9.587-16.936 3.247 5.588 6.468 11.19 9.7 16.787-6.429 0.030-12.857 0.153-19.287 0.149M11.981 7.984c-0.010 1.489 0.147 3 0.639 4.413 0.121 0.412 0.807 0.387 0.883-0.046 0.444-1.411 0.606-2.902 0.575-4.378-0.7 0.013-1.4 0.017-2.098 0.012M14.481 13.453c-0.052 0.44-0.019 0.883-0.016 1.324 0.291-0.311 0.577-0.625 0.866-0.937-0.027 0.664 0.13 1.368-0.072 2.004-0.655 0.344-1.671-0.162-2.082 0.658-0.291 0.844-0.058 1.784-0.124 2.667 0.312-0.004 0.625-0.007 0.938-0.007 0.030-0.687-0.081-1.389 0.056-2.065 0.601-0.441 1.668 0.14 2.117-0.658 0.344-0.815 0.068-1.754 0.166-2.617 0.293 0.298 0.583 0.6 0.878 0.896 0.392-1.236-0.607-1.997-1.349-2.789-0.479 0.487-0.98 0.966-1.378 1.522z"></path>
<path fill="#222720" d="M11.981 7.984c0.698 0.006 1.398 0.001 2.098-0.012 0.030 1.476-0.132 2.967-0.575 4.378-0.077 0.434-0.762 0.458-0.883 0.046-0.492-1.413-0.649-2.923-0.639-4.413z"></path>
<path fill="#252920" d="M14.481 13.453c0.398-0.557 0.899-1.035 1.378-1.522 0.742 0.792 1.741 1.553 1.349 2.789-0.295-0.296-0.584-0.599-0.878-0.896-0.098 0.863 0.178 1.801-0.166 2.617-0.448 0.798-1.515 0.217-2.117 0.658-0.137 0.675-0.026 1.378-0.056 2.065-0.314 0-0.626 0.003-0.938 0.007 0.067-0.883-0.166-1.823 0.124-2.667 0.411-0.82 1.427-0.314 2.082-0.658 0.202-0.636 0.045-1.34 0.072-2.004-0.289 0.312-0.575 0.626-0.866 0.937-0.003-0.441-0.036-0.885 0.016-1.324z"></path>
</svg>
