<?xml version="1.0" encoding="utf-8"?>
<!-- Generated by IcoMoon.io -->
<!DOCTYPE svg PUBLIC "-//W3C//DTD SVG 1.1//EN" "http://www.w3.org/Graphics/SVG/1.1/DTD/svg11.dtd">
<svg version="1.1" xmlns="http://www.w3.org/2000/svg" xmlns:xlink="http://www.w3.org/1999/xlink" width="24" height="24" viewBox="0 0 24 24">
<path fill="#c0111e" d="M10.014 2.737c0.598-1.176 2.387-1.412 3.347-0.557 0.521 0.593 0.901 1.293 1.331 1.95 2.9 4.733 5.69 9.532 8.477 14.332 0.455 0.776 0.906 1.714 0.598 2.624-0.193 0.691-0.821 1.133-1.447 1.406h-20.788c-0.759-0.312-1.403-0.944-1.533-1.782v-0.607c0.151-0.791 0.603-1.466 0.991-2.155 2.961-5.098 5.963-10.172 9.023-15.21M11.874 4.037c-3.216 5.419-6.409 10.852-9.601 16.286 6.441 0.001 12.883 0 19.323 0.001-3.195-5.437-6.392-10.872-9.607-16.296-0.029 0.003-0.087 0.007-0.115 0.009z"></path>
<path fill="#fff" d="M11.874 4.037c0.029-0.003 0.087-0.007 0.115-0.009 3.214 5.424 6.412 10.859 9.607 16.296-6.441-0.001-12.883 0-19.323-0.001 3.192-5.433 6.386-10.867 9.601-16.286M11.614 7.903c0.007 0.529-0.001 1.057 0.007 1.586-0.797 0.488-1.802 0.982-1.993 1.996-0.025 1.175-0.001 2.351-0.012 3.528-0.001 0.63 0.097 1.311 0.511 1.811 0.521 0.424 1.053 0.837 1.591 1.243 0.039 0.582 0.008 1.166 0.018 1.75 0.412 0.001 0.824 0.001 1.235 0-0.005-0.681 0.009-1.361-0.005-2.042 0.005-0.169-0.089-0.323-0.209-0.434-0.56-0.5-1.195-0.913-1.757-1.407-0.207-0.496-0.136-1.044-0.147-1.566 0.008-0.915-0.016-1.832 0.010-2.748 0.247-0.428 0.711-0.654 1.116-0.905 0.337-0.188 0.814-0.349 0.866-0.793 0.012-0.666 0.010-1.334 0.001-2-0.155-0.241-0.4-0.409-0.585-0.627-0.235 0.182-0.442 0.395-0.648 0.609M11.727 12.341c-0.014 0.86-0.007 1.719-0.005 2.58 0.353 0.287 0.948 0.311 1.228-0.059 0.010-0.817 0.012-1.634 0-2.451-0.274-0.372-0.868-0.346-1.222-0.070z"></path>
<path fill="#030303" d="M11.614 7.903c0.206-0.214 0.413-0.426 0.648-0.609 0.185 0.218 0.43 0.386 0.585 0.627 0.009 0.666 0.011 1.334-0.001 2-0.051 0.445-0.529 0.606-0.866 0.793-0.405 0.251-0.87 0.477-1.116 0.905-0.026 0.915-0.003 1.832-0.011 2.748 0.011 0.522-0.060 1.070 0.147 1.566 0.563 0.494 1.197 0.908 1.757 1.407 0.119 0.111 0.214 0.265 0.209 0.434 0.014 0.681 0 1.361 0.005 2.042-0.412 0.001-0.824 0.001-1.235 0-0.010-0.584 0.021-1.167-0.018-1.75-0.538-0.407-1.070-0.82-1.591-1.243-0.414-0.5-0.513-1.182-0.511-1.811 0.011-1.176-0.013-2.353 0.012-3.528 0.191-1.014 1.196-1.508 1.993-1.996-0.008-0.529 0-1.057-0.007-1.586z"></path>
<path fill="#030303" d="M11.727 12.341c0.354-0.277 0.948-0.303 1.222 0.070 0.012 0.817 0.010 1.634 0 2.451-0.279 0.37-0.875 0.346-1.228 0.059-0.001-0.86-0.009-1.719 0.005-2.58z"></path>
</svg>
