<!-- Generated by IcoMoon.io -->
<svg version="1.1" xmlns="http://www.w3.org/2000/svg" width="27" height="24" viewBox="0 0 27 24">
<title>warning--loose-road-surface--g1</title>
<path fill="#ec1d24" d="M13.326 0h0.517c0.542 0.123 1.054 0.431 1.325 0.929 3.901 6.735 7.79 13.477 11.691 20.213 0.143 0.249 0.252 0.516 0.341 0.789v0.522c-0.144 0.762-0.739 1.39-1.502 1.547h-24.187c-0.738-0.133-1.326-0.717-1.511-1.437v-0.704c0.082-0.228 0.175-0.451 0.292-0.662 3.897-6.74 7.793-13.479 11.689-20.219 0.272-0.516 0.787-0.848 1.345-0.978M2.835 21.598c7.17 0.004 14.34 0.003 21.509 0-3.582-6.198-7.162-12.397-10.754-18.59-3.592 6.192-7.171 12.392-10.755 18.59z"></path>
<path fill="#fff" d="M2.835 21.598c3.584-6.198 7.163-12.398 10.755-18.59 3.592 6.193 7.172 12.392 10.754 18.59-7.169 0.003-14.339 0.004-21.509 0M11.028 8.947c-0.212 0.357-0.418 0.718-0.627 1.077 0.715 0.485 0.937 1.46 0.883 2.263-0.481 0.766-1.595 0.189-2.343 0.339-0.445 0.769-0.886 1.541-1.331 2.31 0.784 0.011 1.569 0.039 2.348 0.131 0.002 0.138 0.005 0.276 0.008 0.414-0.898 0.027-1.797 0.043-2.695 0.070-0.103 0.178-0.207 0.357-0.308 0.536 1.020-0.010 2.040-0.028 3.060-0.018 0.001 0.165 0.001 0.331 0.001 0.497-1.111 0.001-2.222 0-3.334 0-0.091 0.16-0.181 0.32-0.271 0.48 1.202-0.003 2.404 0.003 3.605 0.045-0.001 0.143-0.001 0.287 0 0.43-1.312 0.118-2.63 0.16-3.946 0.162-0.212 0.329-0.404 0.669-0.597 1.009 1.767 0.041 3.535-0.070 5.293-0.247-0.002 0.698 0.008 1.395-0.007 2.093 0.563 0.352 1.286 0.303 1.864 0.016 0.158-0.982-0.134-2.099 0.477-2.944 0.142-1.062 0.034-2.148 0.061-3.218 0.028-0.486-0.344-0.856-0.766-1.023-0.237-1.046-0.434-2.1-0.623-3.154-0.087-0.501-0.396-0.921-0.752-1.268M16.083 12.728c0.132 0.086 0.268 0.167 0.408 0.241 0.091-0.070 0.182-0.139 0.274-0.207-0.013-0.122-0.025-0.245-0.037-0.368-0.15-0.034-0.3-0.070-0.449-0.106-0.064 0.147-0.13 0.293-0.196 0.44M17.634 12.557c0.024 0.21 0.058 0.419 0.097 0.627 0.064 0.007 0.193 0.022 0.257 0.029 0.141-0.133 0.281-0.267 0.421-0.401-0.218-0.201-0.464-0.442-0.775-0.255M17.469 13.929c-0.069 0.158-0.14 0.315-0.213 0.471 0.191 0.518 0.985 0.396 0.971-0.155-0.161-0.114-0.289-0.263-0.395-0.427-0.121 0.037-0.242 0.074-0.363 0.111M16.094 14.084c-0.878 1.767-1.796 3.514-2.639 5.297 1.103-1.648 2.129-3.349 3.197-5.021-0.185-0.093-0.371-0.185-0.558-0.276M17.206 15.821c-0.029 0.205-0.070 0.409-0.137 0.605 0.293 0.403 0.811 0.428 1.155 0.074-0.052-0.101-0.104-0.201-0.157-0.301 0.028-0.133 0.055-0.265 0.082-0.398-0.314-0.093-0.642-0.146-0.943 0.020M19.567 15.753c-0.137 0.19-0.265 0.391-0.311 0.625 0.182 0.126 0.356 0.263 0.525 0.407 0.208-0.164 0.569-0.252 0.551-0.579-0.070-0.196-0.223-0.345-0.349-0.505-0.139 0.017-0.278 0.034-0.416 0.052M13.726 19.549c1.271-0.672 2.52-1.383 3.783-2.070-0.125-0.174-0.249-0.346-0.376-0.517-1.136 0.861-2.285 1.707-3.407 2.587M19.929 17.826c-0.49 0.080-0.399 0.675-0.154 0.963 0.251-0.072 0.507-0.12 0.764-0.167-0.101-0.308-0.114-1.030-0.61-0.796M13.641 19.787c1.913-0.096 3.814-0.364 5.724-0.509-0.027-0.208-0.054-0.417-0.081-0.626-1.885 0.358-3.759 0.771-5.643 1.135M21.55 19.156c-0.035 0.182-0.068 0.371 0.028 0.541 0.245-0.102 0.595 0.156 0.758-0.099-0.053-0.244-0.265-0.414-0.398-0.617-0.129 0.060-0.258 0.119-0.388 0.175z"></path>
<path fill="#fff" d="M11.225 14.029c0.673-0.247 1.435 0.476 1.168 1.158-0.2 0.693-1.23 0.843-1.638 0.26-0.393-0.476-0.118-1.262 0.47-1.418z"></path>
<path fill="#030303" d="M11.028 8.947c0.356 0.347 0.665 0.767 0.752 1.268 0.189 1.054 0.386 2.108 0.623 3.154 0.422 0.167 0.794 0.537 0.766 1.023-0.027 1.070 0.081 2.156-0.061 3.218-0.611 0.845-0.319 1.962-0.477 2.944-0.578 0.287-1.301 0.336-1.864-0.016 0.015-0.698 0.005-1.395 0.007-2.093-1.758 0.177-3.526 0.288-5.293 0.247 0.193-0.34 0.385-0.68 0.597-1.009 1.316-0.002 2.634-0.044 3.946-0.162-0.001-0.143-0.001-0.287 0-0.43-1.201-0.042-2.403-0.048-3.605-0.045 0.090-0.16 0.18-0.32 0.271-0.48 1.112 0 2.223 0.001 3.334 0 0-0.166 0-0.332-0.001-0.497-1.020-0.010-2.040 0.008-3.060 0.018 0.101-0.179 0.205-0.358 0.308-0.536 0.898-0.027 1.797-0.043 2.695-0.070-0.003-0.138-0.006-0.276-0.008-0.414-0.779-0.092-1.564-0.12-2.348-0.131 0.445-0.769 0.886-1.541 1.331-2.31 0.748-0.15 1.862 0.427 2.343-0.339 0.054-0.803-0.168-1.778-0.883-2.263 0.209-0.359 0.415-0.72 0.627-1.077M11.225 14.029c-0.588 0.156-0.863 0.942-0.47 1.418 0.408 0.583 1.438 0.433 1.638-0.26 0.267-0.682-0.495-1.405-1.168-1.158z"></path>
<path fill="#030303" d="M16.083 12.728c0.066-0.147 0.132-0.293 0.196-0.44 0.149 0.036 0.299 0.072 0.449 0.106 0.012 0.123 0.024 0.246 0.037 0.368-0.092 0.068-0.183 0.137-0.274 0.207-0.14-0.074-0.276-0.155-0.408-0.241z"></path>
<path fill="#030303" d="M17.634 12.557c0.311-0.187 0.557 0.054 0.775 0.255-0.14 0.134-0.28 0.268-0.421 0.401-0.064-0.007-0.193-0.022-0.257-0.029-0.039-0.208-0.073-0.417-0.097-0.627z"></path>
<path fill="#030303" d="M17.469 13.929c0.121-0.037 0.242-0.074 0.363-0.111 0.106 0.164 0.234 0.313 0.395 0.427 0.014 0.551-0.78 0.673-0.971 0.155 0.073-0.156 0.144-0.313 0.213-0.471z"></path>
<path fill="#030303" d="M16.094 14.084c0.187 0.091 0.373 0.183 0.558 0.276-1.068 1.672-2.094 3.373-3.197 5.021 0.843-1.783 1.761-3.53 2.639-5.297z"></path>
<path fill="#030303" d="M17.206 15.821c0.301-0.166 0.629-0.113 0.943-0.020-0.027 0.133-0.054 0.265-0.082 0.398 0.053 0.1 0.105 0.2 0.157 0.301-0.344 0.354-0.862 0.329-1.155-0.074 0.067-0.196 0.108-0.4 0.137-0.605z"></path>
<path fill="#030303" d="M19.567 15.753c0.138-0.018 0.277-0.035 0.416-0.052 0.126 0.16 0.279 0.309 0.349 0.505 0.018 0.327-0.343 0.415-0.551 0.579-0.169-0.144-0.343-0.281-0.525-0.407 0.046-0.234 0.174-0.435 0.311-0.625z"></path>
<path fill="#030303" d="M13.726 19.549c1.122-0.88 2.271-1.726 3.407-2.587 0.127 0.171 0.251 0.343 0.376 0.517-1.263 0.687-2.512 1.398-3.783 2.070z"></path>
<path fill="#030303" d="M19.929 17.826c0.496-0.234 0.509 0.488 0.61 0.796-0.257 0.047-0.513 0.095-0.764 0.167-0.245-0.288-0.336-0.883 0.154-0.963z"></path>
<path fill="#030303" d="M13.641 19.787c1.884-0.364 3.758-0.777 5.643-1.135 0.027 0.209 0.054 0.418 0.081 0.626-1.91 0.145-3.811 0.413-5.724 0.509z"></path>
<path fill="#030303" d="M21.55 19.156c0.13-0.056 0.259-0.115 0.388-0.175 0.133 0.203 0.345 0.373 0.398 0.617-0.163 0.255-0.513-0.003-0.758 0.099-0.096-0.17-0.063-0.359-0.028-0.541z"></path>
</svg>
