<?xml version="1.0" encoding="utf-8"?>
<!-- Generated by IcoMoon.io -->
<!DOCTYPE svg PUBLIC "-//W3C//DTD SVG 1.1//EN" "http://www.w3.org/Graphics/SVG/1.1/DTD/svg11.dtd">
<svg version="1.1" xmlns="http://www.w3.org/2000/svg" xmlns:xlink="http://www.w3.org/1999/xlink" width="24" height="24" viewBox="0 0 24 24">
<path fill="#c0111e" d="M11.026 1.696h1.95c0.494 0.296 0.917 0.71 1.195 1.217 3.162 5.292 6.277 10.612 9.351 15.955 0.372 0.578 0.353 1.31 0.196 1.954-0.166 0.672-0.794 1.128-1.427 1.323-0.72 0.111-1.458 0.048-2.181 0.16h-15.206c-1.033-0.065-2.073-0.044-3.103-0.143-0.703-0.167-1.4-0.691-1.54-1.433-0.133-0.617-0.133-1.307 0.215-1.856 3.043-5.292 6.129-10.559 9.26-15.8 0.309-0.554 0.707-1.089 1.291-1.376M2.393 20.015c6.404 0.003 12.809 0.003 19.213 0-3.1-5.288-6.218-10.565-9.333-15.845-0.107-0.112-0.136-0.403-0.326-0.372-3.192 5.401-6.381 10.804-9.554 16.217z"></path>
<path fill="#fff" d="M2.393 20.015c3.173-5.413 6.363-10.816 9.554-16.217 0.19-0.031 0.219 0.26 0.326 0.372 3.115 5.28 6.232 10.557 9.333 15.845-6.404 0.003-12.809 0.003-19.213 0M11.078 7.66c-0.001 1.067-0.003 2.133 0 3.198 0.213 0.157 0.42 0.32 0.625 0.485 0.198-0.166 0.398-0.327 0.6-0.487 0.001-1.066 0.001-2.131 0-3.197-0.408 0-0.817 0-1.225 0M12.857 8.195c-0.003 1.002 0.009 2.003-0.007 3.005-0.021 0.24-0.001 0.51-0.158 0.711-0.712 0.813-1.627 1.411-2.39 2.169-0.575 0.59-0.923 1.398-0.916 2.225-0.008 1.070-0.003 2.139-0.003 3.209 0.397 0 0.793 0 1.19 0 0.009-1.12-0.013-2.242 0.010-3.361 0.017-0.597 0.39-1.107 0.823-1.487 0.745-0.643 1.539-1.239 2.197-1.977 0.325-0.364 0.419-0.862 0.428-1.336 0.030-1.036 0.025-2.073 0.013-3.108-0.127-0.248-0.411-0.387-0.607-0.583-0.198 0.173-0.393 0.351-0.582 0.533M11.169 16.066c-0.005 1.147-0.001 2.292-0.001 3.438 0.408 0.003 0.817 0.001 1.226 0.001 0.003-1.145 0.001-2.29 0.001-3.436-0.207-0.166-0.415-0.327-0.627-0.485-0.202 0.158-0.4 0.32-0.599 0.481z"></path>
<path fill="#040404" d="M11.078 7.66c0.408 0 0.817 0 1.225 0 0.001 1.066 0.001 2.131 0 3.197-0.202 0.159-0.402 0.321-0.6 0.487-0.205-0.166-0.412-0.329-0.625-0.485-0.003-1.066-0.001-2.131 0-3.198z"></path>
<path fill="#040404" d="M12.857 8.195c0.189-0.183 0.383-0.36 0.582-0.533 0.196 0.196 0.48 0.335 0.607 0.583 0.012 1.036 0.017 2.073-0.013 3.108-0.009 0.473-0.103 0.972-0.428 1.336-0.657 0.738-1.452 1.334-2.197 1.977-0.433 0.38-0.806 0.89-0.823 1.487-0.023 1.119-0.001 2.241-0.010 3.361-0.397 0-0.793 0-1.19 0 0-1.070-0.005-2.139 0.003-3.209-0.008-0.827 0.34-1.636 0.916-2.225 0.763-0.758 1.677-1.357 2.39-2.169 0.157-0.201 0.137-0.471 0.158-0.711 0.016-1.002 0.004-2.003 0.007-3.005z"></path>
<path fill="#040404" d="M11.169 16.066c0.198-0.162 0.397-0.323 0.599-0.481 0.213 0.158 0.42 0.32 0.627 0.485 0 1.145 0.001 2.29-0.001 3.436-0.41 0-0.818 0.001-1.226-0.001 0-1.147-0.004-2.292 0.001-3.438z"></path>
</svg>
