<!-- Generated by IcoMoon.io -->
<svg version="1.1" xmlns="http://www.w3.org/2000/svg" width="24" height="24" viewBox="0 0 24 24">
<title>warning--roundabout--g5</title>
<path fill="#231f20" d="M11.441 0.164c0.631-0.126 1.282 0.136 1.717 0.593 3.335 3.186 6.674 6.367 10 9.564 0.712 0.65 0.695 1.861 0.010 2.524-3.222 3.22-6.442 6.443-9.662 9.662-0.698 0.707-1.949 0.709-2.633-0.018-3.368-3.234-6.752-6.451-10.122-9.684-0.691-0.665-0.624-1.865 0.064-2.508 3.133-3.149 6.281-6.282 9.419-9.425 0.328-0.342 0.73-0.638 1.208-0.708M11.572 0.418c-0.488 0.043-0.884 0.362-1.211 0.703-3.11 3.13-6.245 6.236-9.353 9.37-0.614 0.563-0.643 1.627-0.010 2.188 3.378 3.224 6.75 6.455 10.13 9.678 0.59 0.577 1.61 0.536 2.185-0.042 3.227-3.212 6.438-6.443 9.661-9.659 0.608-0.586 0.586-1.657-0.066-2.203-3.306-3.175-6.629-6.334-9.943-9.502-0.356-0.374-0.871-0.611-1.394-0.533z"></path>
<path fill="#231f20" d="M11.315 0.881c0.642-0.181 1.343 0.049 1.795 0.528 3.113 2.966 6.221 5.94 9.326 8.915 0.706 0.618 0.728 1.802 0.065 2.458-3.019 3.022-6.042 6.041-9.060 9.062-0.647 0.646-1.79 0.69-2.458 0.053-3.17-3.030-6.346-6.058-9.512-9.092-0.685-0.632-0.656-1.804 0.007-2.441 2.91-2.932 5.84-5.843 8.758-8.767 0.301-0.312 0.646-0.613 1.079-0.715M11.435 1.24c-0.377 0.085-0.67 0.355-0.935 0.62-2.894 2.905-5.804 5.795-8.694 8.706-0.56 0.496-0.636 1.453-0.066 1.973 3.154 3.008 6.301 6.024 9.452 9.035 0.544 0.563 1.524 0.517 2.042-0.055 2.982-2.981 5.962-5.964 8.945-8.942 0.559-0.511 0.576-1.483-0.011-1.981-3.101-2.983-6.217-5.95-9.326-8.924-0.36-0.368-0.9-0.562-1.408-0.431z"></path>
<path fill="#231f20" d="M11.177 5.501c0.505-0.007 1.009-0.007 1.514 0 0.010 3.5-0.002 7.001 0.006 10.501 2.206-0.254 3.882-2.545 3.607-4.722-0.131-1.129-0.746-2.146-1.531-2.946-0.142 0.098-0.283 0.196-0.425 0.294-0.007-0.415-0.011-0.829-0.008-1.243 0.406 0.004 0.811 0.013 1.218 0.026-0.095 0.112-0.19 0.224-0.284 0.336 0.858 0.875 1.528 1.972 1.729 3.193 0.541 2.728-1.612 5.448-4.307 5.83-0.001 0.302-0.002 0.605-0.005 0.907-0.504 0.007-1.009 0.006-1.514 0-0.008-3.437 0.001-6.875-0.005-10.312-2.104 0.209-3.702 2.334-3.58 4.399 0.053 1.254 0.725 2.39 1.576 3.277 0.144-0.101 0.287-0.203 0.431-0.305 0.008 0.418 0.012 0.836 0.010 1.254-0.412-0.002-0.823-0.013-1.235-0.030 0.1-0.113 0.199-0.226 0.3-0.338-1.24-1.22-2.023-2.988-1.745-4.745 0.293-2.162 2.104-3.965 4.241-4.337 0.004-0.347 0.006-0.694 0.007-1.040z"></path>
<path fill="#231f20" d="M13.723 8.675c0.827 0.664 1.456 1.633 1.507 2.713 0.088 1.228-0.534 2.414-1.452 3.198-0.026-1.969-0.044-3.941-0.055-5.911z"></path>
<path fill="#231f20" d="M8.722 11.402c0.048-1.084 0.674-2.063 1.508-2.724-0.010 1.969-0.029 3.938-0.055 5.908-0.917-0.78-1.535-1.961-1.453-3.184z"></path>
<path fill="#fff100" d="M11.572 0.418c0.523-0.078 1.038 0.158 1.394 0.533 3.314 3.168 6.637 6.326 9.943 9.502 0.652 0.546 0.674 1.618 0.066 2.203-3.223 3.216-6.434 6.446-9.661 9.659-0.575 0.578-1.595 0.619-2.185 0.042-3.38-3.223-6.752-6.454-10.13-9.678-0.634-0.56-0.605-1.625 0.010-2.188 3.108-3.133 6.242-6.24 9.353-9.37 0.326-0.341 0.722-0.66 1.211-0.703M11.315 0.881c-0.433 0.102-0.778 0.403-1.079 0.715-2.917 2.924-5.848 5.836-8.758 8.767-0.664 0.637-0.692 1.808-0.007 2.441 3.167 3.035 6.342 6.062 9.512 9.092 0.667 0.637 1.811 0.593 2.458-0.053 3.018-3.022 6.041-6.041 9.060-9.062 0.664-0.655 0.641-1.84-0.065-2.458-3.106-2.975-6.214-5.948-9.326-8.915-0.452-0.479-1.153-0.709-1.795-0.528z"></path>
<path fill="#fff100" d="M11.435 1.24c0.508-0.131 1.048 0.062 1.408 0.431 3.109 2.975 6.226 5.941 9.326 8.924 0.587 0.498 0.57 1.47 0.011 1.981-2.983 2.978-5.963 5.962-8.945 8.942-0.518 0.572-1.499 0.618-2.042 0.055-3.151-3.011-6.299-6.026-9.452-9.035-0.57-0.52-0.494-1.477 0.066-1.973 2.89-2.911 5.8-5.801 8.694-8.706 0.265-0.265 0.558-0.535 0.935-0.62M11.177 5.501c-0.001 0.347-0.004 0.694-0.007 1.040-2.137 0.372-3.948 2.174-4.241 4.337-0.278 1.757 0.505 3.524 1.745 4.745-0.101 0.113-0.2 0.226-0.3 0.338 0.412 0.017 0.823 0.028 1.235 0.030 0.002-0.418-0.001-0.836-0.010-1.254-0.144 0.102-0.287 0.204-0.431 0.305-0.851-0.887-1.523-2.023-1.576-3.277-0.122-2.065 1.476-4.19 3.58-4.399 0.006 3.437-0.004 6.875 0.005 10.312 0.505 0.006 1.010 0.007 1.514 0 0.002-0.302 0.004-0.605 0.005-0.907 2.695-0.382 4.848-3.102 4.307-5.83-0.202-1.222-0.871-2.318-1.729-3.193 0.095-0.112 0.19-0.224 0.284-0.336-0.407-0.013-0.812-0.023-1.218-0.026-0.002 0.414 0.001 0.828 0.008 1.243 0.142-0.098 0.283-0.196 0.425-0.294 0.785 0.8 1.4 1.817 1.531 2.946 0.275 2.177-1.402 4.468-3.607 4.722-0.008-3.5 0.004-7.001-0.006-10.501-0.505-0.007-1.009-0.007-1.514 0M13.723 8.675c0.011 1.97 0.029 3.942 0.055 5.911 0.918-0.784 1.54-1.97 1.452-3.198-0.052-1.080-0.68-2.050-1.507-2.713M8.722 11.402c-0.082 1.223 0.536 2.404 1.453 3.184 0.026-1.969 0.046-3.938 0.055-5.908-0.834 0.661-1.46 1.64-1.508 2.724z"></path>
</svg>
