<?xml version="1.0" encoding="utf-8"?>
<!-- Generated by IcoMoon.io -->
<!DOCTYPE svg PUBLIC "-//W3C//DTD SVG 1.1//EN" "http://www.w3.org/Graphics/SVG/1.1/DTD/svg11.dtd">
<svg version="1.1" xmlns="http://www.w3.org/2000/svg" xmlns:xlink="http://www.w3.org/1999/xlink" width="24" height="24" viewBox="0 0 24 24">
<path fill="#231f20" d="M11.554 0.14c0.415-0.197 0.901-0.018 1.193 0.31 3.566 3.558 7.129 7.122 10.692 10.682 0.419 0.364 0.491 1.062 0.084 1.462-3.396 3.407-6.803 6.803-10.201 10.207-0.306 0.294-0.571 0.643-0.941 0.862-0.408 0.215-0.919 0.076-1.219-0.258-3.438-3.444-6.881-6.884-10.324-10.324-0.3-0.317-0.721-0.606-0.751-1.082-0.047-0.367 0.168-0.692 0.42-0.934 3.528-3.514 7.040-7.040 10.566-10.556 0.146-0.138 0.295-0.283 0.481-0.368M11.699 0.768c-0.288 0.233-0.532 0.515-0.796 0.773-3.18 3.179-6.36 6.359-9.541 9.536-0.22 0.227-0.467 0.432-0.641 0.697-0.096 0.2 0.054 0.379 0.186 0.514 3.365 3.354 6.72 6.718 10.080 10.075 0.269 0.257 0.503 0.556 0.814 0.763 0.178 0.079 0.358-0.024 0.48-0.151 3.568-3.562 7.126-7.133 10.697-10.691 0.131-0.132 0.27-0.307 0.185-0.504-0.174-0.271-0.426-0.478-0.647-0.709-3.38-3.374-6.76-6.751-10.136-10.13-0.168-0.182-0.451-0.389-0.68-0.173z"></path>
<path fill="#231f20" d="M10.954 6.898c0.522-0.288 1.255 0.176 1.153 0.784 0.020 0.671-0.911 0.991-1.356 0.526-0.413-0.364-0.284-1.080 0.203-1.309z"></path>
<path fill="#231f20" d="M11.527 8.681c0.204-0.096 0.408-0.191 0.612-0.288 0.82 0.848 1.376 1.903 1.748 3.016 0.202 0.034 0.403 0.071 0.604 0.109-0.148 0.418-0.598 0.492-0.968 0.605 0.244 0.338 0.527 0.647 0.811 0.952 0.478-0.191 0.988-0.344 1.507-0.269 0.929 0.086 1.808 0.797 1.974 1.735 0.142 0.737 0.006 1.591-0.558 2.126-0.982 0.884-2.669 0.713-3.502-0.293-0.178-0.221-0.292-0.48-0.413-0.732-0.256 0.036-0.51 0.073-0.766 0.11-0.019 0.194-0.022 0.391-0.004 0.587 0.101 0.053 0.304 0.157 0.404 0.209-0.245 0.143-0.51 0.298-0.804 0.218 0.053-0.239 0.107-0.476 0.154-0.716-0.095-0.047-0.284-0.142-0.379-0.188-0.042-0.178-0.007-0.361-0.002-0.54-0.739-0.839-1.487-1.67-2.248-2.489-0.179 0.521 0.433 0.803 0.577 1.255 0.646 1.337-0.47 2.976-1.877 3.134-1.052 0.157-2.16-0.539-2.472-1.556-0.326-1.019 0.187-2.222 1.117-2.732 0.703-0.376 1.559-0.268 2.263 0.047 0.132-0.503 0.36-0.972 0.523-1.464 0.077-0.184-0.108-0.335-0.169-0.493 0.131-0.139 0.263-0.277 0.395-0.414 0.294-0.001 0.588-0.002 0.882-0.004 0.451-0.534 0.737-1.218 0.589-1.925M11.057 11.029c-0.298 0-0.595-0.001-0.892 0 0.078 0.383 0.029 0.77-0.185 1.102 0.379-0.008 0.763 0.025 1.14-0.029 0.452-0.151 0.866-0.395 1.3-0.59-0.11-0.6-0.359-1.164-0.468-1.764-0.146 0.526-0.636 0.824-0.895 1.282M9.947 12.535c0.709 0.82 1.42 1.639 2.128 2.46-0.001-0.061-0.004-0.182-0.005-0.244-0.307-0.209-0.45-0.558-0.624-0.87-0.245-0.451-0.5-0.896-0.751-1.344-0.25-0.001-0.499-0.001-0.748-0.002M11.923 12.731c0.15 0.628 0.332 1.247 0.538 1.86 0.245-0.684 0.469-1.374 0.694-2.064-0.421-0.017-0.842 0.031-1.231 0.204M13.477 12.748c-0.283 0.854-0.569 1.709-0.854 2.562 0.206-0.034 0.414-0.067 0.623-0.101 0.016-0.679 0.248-1.351 0.761-1.814-0.175-0.216-0.353-0.432-0.529-0.647M6.498 15.714c0.26 0.504 0.743 0.913 1.312 1.007 1.102 0.221 2.25-0.848 2.080-1.966-0.040-0.374-0.256-0.69-0.439-1.006-0.138 0.694-0.7 1.162-1.214 1.589-0.21 0.152-0.565 0.055-0.569-0.238-0.073-0.35 0.383-0.304 0.6-0.319 0.43-0.329 0.812-0.739 0.961-1.272-0.461-0.265-1.001-0.48-1.538-0.336-1.027 0.277-1.646 1.572-1.192 2.54M14.634 13.41c0.296 0.4 0.619 0.779 0.911 1.182 0.11 0.163 0.247 0.377 0.121 0.571-0.592 0.17-1.208 0.229-1.806 0.376 0.203 0.382 0.445 0.762 0.826 0.988 0.794 0.518 1.982 0.241 2.46-0.58 0.557-0.949-0.014-2.33-1.068-2.628-0.475-0.152-0.982-0.065-1.444 0.091M14.207 13.704c-0.306 0.418-0.468 0.919-0.455 1.436 0.48-0.083 0.958-0.169 1.438-0.25-0.326-0.397-0.647-0.798-0.983-1.187z"></path>
<path fill="#fd0" d="M11.699 0.768c0.229-0.216 0.512-0.010 0.68 0.173 3.377 3.379 6.756 6.756 10.136 10.13 0.221 0.232 0.473 0.438 0.647 0.709 0.085 0.197-0.054 0.372-0.185 0.504-3.571 3.558-7.129 7.129-10.697 10.691-0.122 0.127-0.302 0.23-0.48 0.151-0.311-0.208-0.545-0.506-0.814-0.763-3.36-3.358-6.715-6.721-10.080-10.075-0.132-0.134-0.282-0.313-0.186-0.514 0.174-0.265 0.421-0.47 0.641-0.697 3.181-3.178 6.361-6.358 9.541-9.536 0.264-0.258 0.508-0.54 0.796-0.773M10.954 6.898c-0.487 0.229-0.616 0.946-0.203 1.309 0.445 0.466 1.376 0.145 1.356-0.526 0.102-0.607-0.631-1.072-1.153-0.784M11.527 8.681c0.148 0.707-0.138 1.391-0.589 1.925-0.294 0.001-0.588 0.002-0.882 0.004-0.132 0.137-0.264 0.275-0.395 0.414 0.061 0.158 0.246 0.31 0.169 0.493-0.163 0.492-0.391 0.961-0.523 1.464-0.704-0.314-1.56-0.422-2.263-0.047-0.93 0.51-1.444 1.714-1.117 2.732 0.312 1.018 1.42 1.714 2.472 1.556 1.406-0.158 2.522-1.798 1.877-3.134-0.144-0.452-0.756-0.734-0.577-1.255 0.761 0.818 1.508 1.65 2.248 2.489-0.005 0.179-0.040 0.362 0.002 0.54 0.095 0.047 0.284 0.142 0.379 0.188-0.047 0.24-0.101 0.478-0.154 0.716 0.294 0.079 0.559-0.076 0.804-0.218-0.101-0.052-0.304-0.156-0.404-0.209-0.018-0.196-0.016-0.392 0.004-0.587 0.256-0.037 0.51-0.074 0.766-0.11 0.121 0.252 0.235 0.511 0.413 0.732 0.833 1.006 2.52 1.177 3.502 0.293 0.564-0.535 0.7-1.39 0.558-2.126-0.166-0.938-1.045-1.649-1.974-1.735-0.52-0.076-1.030 0.078-1.507 0.269-0.284-0.305-0.568-0.613-0.811-0.952 0.371-0.113 0.821-0.187 0.968-0.605-0.2-0.038-0.402-0.076-0.604-0.109-0.372-1.112-0.929-2.167-1.748-3.016-0.204 0.097-0.408 0.192-0.612 0.288z"></path>
<path fill="#fd0" d="M11.057 11.029c0.259-0.457 0.749-0.756 0.895-1.282 0.109 0.6 0.358 1.164 0.468 1.764-0.433 0.196-0.847 0.439-1.3 0.59-0.377 0.054-0.761 0.020-1.14 0.029 0.214-0.331 0.263-0.719 0.185-1.102 0.296-0.001 0.594 0 0.892 0z"></path>
<path fill="#fd0" d="M9.947 12.535c0.248 0.001 0.498 0.001 0.748 0.002 0.251 0.448 0.506 0.893 0.751 1.344 0.174 0.312 0.317 0.661 0.624 0.87 0.001 0.061 0.004 0.182 0.005 0.244-0.708-0.821-1.418-1.64-2.128-2.46z"></path>
<path fill="#fd0" d="M11.923 12.731c0.389-0.173 0.81-0.221 1.231-0.204-0.224 0.69-0.449 1.38-0.694 2.064-0.205-0.613-0.388-1.232-0.538-1.86z"></path>
<path fill="#fd0" d="M13.477 12.748c0.176 0.215 0.354 0.431 0.529 0.647-0.512 0.463-0.745 1.135-0.761 1.814-0.209 0.034-0.416 0.067-0.623 0.101 0.286-0.853 0.571-1.708 0.854-2.562z"></path>
<path fill="#fd0" d="M6.498 15.714c-0.455-0.968 0.164-2.263 1.192-2.54 0.538-0.144 1.078 0.071 1.538 0.336-0.149 0.533-0.532 0.943-0.961 1.272-0.217 0.016-0.673-0.031-0.6 0.319 0.004 0.293 0.359 0.39 0.569 0.238 0.515-0.427 1.076-0.895 1.214-1.589 0.184 0.316 0.4 0.631 0.439 1.006 0.17 1.117-0.978 2.186-2.080 1.966-0.569-0.094-1.051-0.503-1.312-1.007z"></path>
<path fill="#fd0" d="M14.634 13.41c0.462-0.156 0.968-0.244 1.444-0.091 1.054 0.298 1.625 1.679 1.068 2.628-0.478 0.821-1.666 1.098-2.46 0.58-0.38-0.226-0.623-0.606-0.826-0.988 0.598-0.146 1.214-0.205 1.806-0.376 0.126-0.194-0.011-0.408-0.121-0.571-0.292-0.403-0.614-0.782-0.911-1.182z"></path>
<path fill="#fd0" d="M14.207 13.704c0.336 0.389 0.656 0.79 0.983 1.187-0.48 0.080-0.958 0.167-1.438 0.25-0.013-0.517 0.149-1.019 0.455-1.436z"></path>
</svg>
