<!-- Generated by IcoMoon.io -->
<svg version="1.1" xmlns="http://www.w3.org/2000/svg" width="24" height="24" viewBox="0 0 24 24">
<title>warning--steep-descent--g5</title>
<path fill="#231f20" d="M11.951 0h0.502c0.326 0.085 0.657 0.208 0.893 0.458 3.437 3.457 6.903 6.887 10.333 10.351v0.321c-3.336-3.37-6.707-6.707-10.052-10.069-0.391-0.385-0.852-0.778-1.426-0.807-0.469 0.032-0.893 0.287-1.224 0.607-3.209 3.212-6.421 6.423-9.632 9.633-0.387 0.391-0.847 0.767-1.006 1.316-0.071 0.458-0.033 0.993 0.321 1.334 3.308 3.301 6.61 6.608 9.915 9.912 0.349 0.34 0.66 0.742 1.117 0.943h-0.565c-3.54-3.513-7.053-7.055-10.588-10.574-0.311-0.302-0.451-0.726-0.539-1.141v-0.254c0.105-0.575 0.437-1.069 0.861-1.458 3.295-3.287 6.582-6.582 9.875-9.871 0.339-0.332 0.746-0.6 1.214-0.702z"></path>
<path fill="#231f20" d="M11.177 0.981c0.544-0.54 1.503-0.54 2.047 0 3.102 3.107 6.208 6.209 9.311 9.313 0.393 0.398 0.815 0.772 1.144 1.227v1.283c-0.254 0.392-0.623 0.687-0.943 1.021-3.197 3.199-6.397 6.394-9.592 9.594-0.352 0.385-0.918 0.404-1.394 0.304-0.518-0.181-0.878-0.614-1.255-0.989-3.103-3.104-6.207-6.208-9.311-9.311-0.408-0.394-0.715-0.978-0.559-1.555 0.071-0.511 0.502-0.832 0.84-1.175 3.239-3.237 6.478-6.474 9.713-9.714M12.072 1.227c-0.425 0.076-0.686 0.437-0.975 0.719-3.091 3.090-6.179 6.182-9.273 9.27-0.276 0.263-0.625 0.554-0.549 0.984-0.081 0.476 0.34 0.768 0.631 1.064 3.090 3.090 6.183 6.178 9.269 9.272 0.381 0.541 1.197 0.833 1.724 0.318 3.338-3.325 6.663-6.664 9.998-9.992 0.327-0.34 0.327-0.985 0-1.324-3.346-3.343-6.691-6.689-10.035-10.034-0.21-0.186-0.507-0.335-0.791-0.277z"></path>
<path fill="#231f20" d="M9.712 7.479c0.659-0.345 1.263-0.796 1.955-1.073 0.138 0.382-0.155 0.707-0.427 0.934-0.002 0.109-0.002 0.218-0.003 0.328 0.366 0.126 0.706 0.315 1.066 0.455 0.412-0.427 0.848-0.889 1.452-1.024 1-0.284 2.226 0.105 2.748 1.039 0.58 0.882 0.473 2.149-0.214 2.944 0.507-0.254 1.011-0.516 1.525-0.758 0.011 1.963 0.002 3.927 0.005 5.89-3.762-0.006-7.525 0.011-11.287-0.009 0.415-0.34 0.922-0.527 1.383-0.791-1.235 0.213-2.54-0.601-2.777-1.851-0.408-1.434 0.82-3.080 2.339-2.98-0.034-0.585-0.145-1.162-0.191-1.746-0.015-0.227-0.23-0.336-0.394-0.449 0.034-0.201 0.075-0.4 0.106-0.6 0.308-0.21 0.616-0.444 0.99-0.518 0.044 0.105 0.088 0.21 0.133 0.315-0.299 0.132-0.596 0.275-0.85 0.484 0.113 0.081 0.227 0.161 0.344 0.238 0.070 0.288 0.128 0.58 0.197 0.868 1-0.515 1.998-1.035 2.996-1.556-0.36 0.071-0.727 0.102-1.094 0.088 0-0.057 0-0.172 0-0.23M13.59 7.648c-0.385 0.149-0.645 0.48-0.928 0.763 0.607 0.296 1.19 0.653 1.835 0.864 0.098 0.031 0.101 0.159 0.153 0.235-0.61 0.308-1.070 0.831-1.647 1.191 0 0.049-0.001 0.147-0.002 0.196 0.524 0.384 1.187 0.689 1.846 0.5 1.14-0.191 1.903-1.519 1.478-2.6-0.319-1.108-1.721-1.661-2.736-1.15M7.771 9.676c0.038 0.083 0.076 0.167 0.114 0.251 1.076 0.377 2.134 0.811 3.197 1.226-0.002-0.052-0.007-0.157-0.010-0.21-0.084-0.078-0.168-0.157-0.252-0.235 0.085-0.038 0.171-0.076 0.256-0.115 0.001 0.055 0.002 0.166 0.003 0.222 0.084 0.071 0.168 0.141 0.252 0.211-0.132-0.989-0.333-1.968-0.442-2.961-1.027 0.559-2.107 1.021-3.118 1.61M11.221 8.077c0.179 1.056 0.34 2.115 0.513 3.172 0.244-0.158 0.486-0.321 0.733-0.474-0.417-0.682-0.558-1.508-0.262-2.266-0.326-0.149-0.657-0.286-0.984-0.433M12.532 8.639c-0.201 0.635-0.090 1.317 0.187 1.91 0.459-0.384 1.030-0.658 1.422-1.108-0.531-0.277-1.071-0.539-1.609-0.803M7.958 10.449c0.25 0.258 0.633 0.297 0.92 0.502 1.25 0.743 1.444 2.638 0.489 3.694 1.815-0.871 3.586-1.831 5.371-2.76-0.771 0.081-1.547-0.18-2.103-0.722-0.173 0.119-0.34 0.245-0.516 0.358-0.16 0.417 0.266 0.68 0.6 0.795-0.189 0.149-0.395 0.27-0.605 0.385-0.036-0.128-0.069-0.258-0.1-0.388-0.091-0.114-0.18-0.231-0.263-0.351-0.112-0.002-0.224-0.004-0.336-0.006-0.061-0.096-0.121-0.193-0.182-0.29-1.101-0.377-2.155-0.897-3.274-1.218M6.117 11.575c-0.866 0.817-0.751 2.429 0.269 3.071 0.909 0.661 2.361 0.367 2.873-0.65 0.665-1.099 0-2.623-1.226-2.949 0.085 0.717-0.183 1.385-0.388 2.053-0.070 0.040-0.142 0.075-0.218 0.104-0.034-0.048-0.1-0.144-0.134-0.193 0.418-0.595 0.459-1.328 0.41-2.029-0.572 0.023-1.17 0.178-1.586 0.593z"></path>
<path fill="#231f20" d="M13.306 23.582c3.451-3.469 6.926-6.915 10.373-10.387v0.401c-3.461 3.476-6.927 6.949-10.407 10.405h-0.567c0.222-0.106 0.43-0.242 0.602-0.418z"></path>
<path fill="#ffd24e" d="M10.977 0.861c0.332-0.319 0.755-0.575 1.224-0.607 0.575 0.030 1.035 0.422 1.426 0.807 3.345 3.362 6.716 6.698 10.052 10.069v0.391c-0.329-0.455-0.751-0.829-1.144-1.227-3.103-3.105-6.21-6.206-9.311-9.313-0.544-0.54-1.503-0.54-2.047 0-3.236 3.24-6.474 6.477-9.713 9.714-0.337 0.343-0.769 0.664-0.84 1.175-0.157 0.577 0.151 1.161 0.559 1.555 3.104 3.103 6.208 6.207 9.311 9.311 0.377 0.375 0.738 0.808 1.255 0.989 0.476 0.1 1.043 0.081 1.394-0.304 3.195-3.2 6.395-6.396 9.592-9.594 0.32-0.334 0.689-0.629 0.943-1.021v0.389c-3.447 3.472-6.922 6.918-10.373 10.387-0.172 0.177-0.38 0.312-0.602 0.418h-1.011c-0.458-0.201-0.768-0.604-1.117-0.943-3.305-3.304-6.608-6.612-9.915-9.912-0.354-0.341-0.392-0.876-0.321-1.334 0.159-0.549 0.619-0.925 1.006-1.316 3.211-3.21 6.423-6.421 9.632-9.633z"></path>
<path fill="#ffd24e" d="M12.072 1.227c0.283-0.058 0.581 0.091 0.791 0.277 3.344 3.346 6.689 6.691 10.035 10.034 0.327 0.34 0.327 0.985 0 1.324-3.335 3.328-6.661 6.667-9.998 9.992-0.527 0.515-1.343 0.223-1.724-0.318-3.086-3.094-6.179-6.181-9.269-9.272-0.291-0.296-0.712-0.588-0.631-1.064-0.076-0.43 0.273-0.721 0.549-0.984 3.094-3.088 6.181-6.18 9.273-9.27 0.289-0.283 0.551-0.643 0.975-0.719M9.712 7.479c0 0.058 0 0.173 0 0.23 0.367 0.014 0.734-0.018 1.094-0.088-0.998 0.52-1.995 1.040-2.996 1.556-0.069-0.288-0.127-0.58-0.197-0.868-0.116-0.076-0.23-0.157-0.344-0.238 0.254-0.21 0.551-0.352 0.85-0.484-0.045-0.105-0.089-0.21-0.133-0.315-0.373 0.074-0.681 0.308-0.99 0.518-0.030 0.201-0.072 0.4-0.106 0.6 0.165 0.113 0.379 0.222 0.394 0.449 0.046 0.584 0.157 1.161 0.191 1.746-1.519-0.1-2.747 1.546-2.339 2.98 0.238 1.25 1.543 2.064 2.777 1.851-0.461 0.263-0.968 0.45-1.383 0.791 3.762 0.020 7.525 0.003 11.287 0.009-0.003-1.963 0.006-3.927-0.005-5.89-0.514 0.242-1.018 0.503-1.525 0.758 0.686-0.795 0.794-2.062 0.214-2.944-0.522-0.934-1.747-1.324-2.748-1.039-0.604 0.135-1.040 0.597-1.452 1.024-0.36-0.14-0.7-0.329-1.066-0.455 0.001-0.11 0.002-0.219 0.003-0.328 0.272-0.226 0.565-0.551 0.427-0.934-0.693 0.277-1.296 0.728-1.955 1.073z"></path>
<path fill="#ffd24e" d="M13.59 7.648c1.015-0.51 2.417 0.043 2.736 1.15 0.425 1.080-0.338 2.409-1.478 2.6-0.659 0.189-1.322-0.116-1.846-0.5 0.001-0.049 0.002-0.147 0.002-0.196 0.577-0.36 1.037-0.883 1.647-1.191-0.052-0.076-0.055-0.204-0.153-0.235-0.645-0.211-1.228-0.568-1.835-0.864 0.283-0.283 0.543-0.614 0.928-0.763z"></path>
<path fill="#ffd24e" d="M7.771 9.676c1.011-0.589 2.091-1.051 3.118-1.61 0.109 0.993 0.31 1.972 0.442 2.961-0.084-0.070-0.168-0.14-0.252-0.211-0.001-0.056-0.002-0.167-0.003-0.222-0.085 0.039-0.171 0.077-0.256 0.115 0.084 0.079 0.168 0.157 0.252 0.235 0.002 0.053 0.007 0.157 0.010 0.21-1.064-0.414-2.121-0.848-3.197-1.226-0.038-0.084-0.076-0.168-0.114-0.251z"></path>
<path fill="#ffd24e" d="M11.221 8.077c0.327 0.147 0.658 0.283 0.984 0.433-0.296 0.758-0.155 1.584 0.262 2.266-0.247 0.153-0.489 0.315-0.733 0.474-0.173-1.057-0.334-2.117-0.513-3.172z"></path>
<path fill="#ffd24e" d="M12.532 8.639c0.539 0.264 1.078 0.526 1.609 0.803-0.393 0.45-0.963 0.723-1.422 1.108-0.277-0.593-0.388-1.275-0.187-1.91z"></path>
<path fill="#ffd24e" d="M7.958 10.449c1.119 0.322 2.173 0.841 3.274 1.218 0.061 0.096 0.121 0.193 0.182 0.29 0.112 0.002 0.224 0.003 0.336 0.006 0.083 0.12 0.172 0.237 0.263 0.351 0.031 0.13 0.064 0.259 0.1 0.388 0.21-0.115 0.417-0.237 0.605-0.385-0.334-0.115-0.76-0.377-0.6-0.795 0.177-0.113 0.344-0.239 0.516-0.358 0.556 0.542 1.332 0.803 2.103 0.722-1.785 0.929-3.556 1.889-5.371 2.76 0.955-1.056 0.761-2.951-0.489-3.694-0.287-0.205-0.67-0.243-0.92-0.502z"></path>
<path fill="#ffd24e" d="M6.117 11.575c0.417-0.415 1.014-0.57 1.586-0.593 0.049 0.701 0.008 1.434-0.41 2.029 0.034 0.048 0.1 0.144 0.134 0.193 0.075-0.029 0.148-0.063 0.218-0.104 0.205-0.669 0.473-1.336 0.388-2.053 1.226 0.326 1.891 1.85 1.226 2.949-0.512 1.017-1.963 1.312-2.873 0.65-1.020-0.642-1.135-2.254-0.269-3.071z"></path>
</svg>
