<!-- Generated by IcoMoon.io -->
<svg version="1.1" xmlns="http://www.w3.org/2000/svg" width="24" height="24" viewBox="0 0 24 24">
<title>warning--curve-left--g2</title>
<path fill="#231f20" d="M12.158 1.126c0.666-0.162 1.374 0.108 1.83 0.604 3.102 3.1 6.206 6.197 9.299 9.305 0.676 0.635 0.739 1.814 0.055 2.467-3.307 3.175-6.63 6.334-9.938 9.508-0.678 0.685-1.879 0.664-2.551-0.018-3.161-3.162-6.326-6.319-9.481-9.487-0.668-0.659-0.65-1.847 0.055-2.473 3.206-3.074 6.421-6.142 9.632-9.211 0.311-0.305 0.659-0.605 1.099-0.694M12.288 1.376c-0.419 0.060-0.744 0.353-1.037 0.635-3.206 3.072-6.43 6.13-9.63 9.208-0.605 0.528-0.623 1.538-0.054 2.1 3.155 3.161 6.314 6.319 9.474 9.476 0.568 0.582 1.595 0.608 2.168 0.020 3.293-3.149 6.589-6.295 9.884-9.442 0.624-0.548 0.602-1.594-0.001-2.148-3.088-3.112-6.196-6.202-9.293-9.304-0.379-0.413-0.952-0.653-1.512-0.546z"></path>
<path fill="#231f20" d="M11.924 1.864c0.697-0.275 1.517-0.026 2.009 0.521 2.9 2.903 5.809 5.798 8.701 8.708 0.659 0.631 0.68 1.794-0.004 2.416-3.088 2.953-6.182 5.9-9.269 8.855-0.653 0.656-1.808 0.628-2.452-0.026-2.944-2.941-5.884-5.885-8.826-8.826-0.674-0.628-0.689-1.799-0.004-2.425 2.998-2.884 6.014-5.748 9.022-8.621 0.247-0.233 0.497-0.482 0.822-0.601M12.151 2.189c-0.342 0.095-0.593 0.364-0.845 0.596-2.98 2.862-5.984 5.698-8.954 8.568-0.574 0.511-0.51 1.468 0.059 1.957 2.928 2.912 5.843 5.839 8.767 8.755 0.5 0.511 1.4 0.541 1.913 0.032 3.090-2.953 6.179-5.909 9.27-8.86 0.571-0.506 0.503-1.454-0.055-1.943-2.875-2.885-5.754-5.767-8.636-8.645-0.379-0.407-0.971-0.641-1.518-0.462z"></path>
<path fill="#231f20" d="M13.037 6.679c0.361-0.124 0.844 0.226 0.63 0.617-0.296 0.526-0.712 0.972-1.038 1.478 1.232 0.58 2.488 1.337 3.143 2.58 1.012 2.026 0.708 4.366 0.809 6.552-0.872 0.006-1.742 0.041-2.614 0.035-0.043-1.798 0.187-3.709-0.592-5.39-0.352-0.752-1.054-1.268-1.811-1.565-0.028 0.575 0.037 1.153-0.038 1.724-0.076 0.389-0.674 0.508-0.82 0.1-0.869-1.642-1.748-3.281-2.593-4.936 1.639-0.408 3.282-0.803 4.924-1.195z"></path>
<path fill="#fff100" d="M12.288 1.376c0.56-0.107 1.133 0.133 1.512 0.546 3.097 3.102 6.205 6.192 9.293 9.304 0.604 0.554 0.625 1.6 0.001 2.148-3.295 3.146-6.592 6.293-9.884 9.442-0.574 0.588-1.601 0.562-2.168-0.020-3.16-3.157-6.319-6.316-9.474-9.476-0.569-0.562-0.551-1.572 0.054-2.1 3.2-3.078 6.424-6.136 9.63-9.208 0.293-0.282 0.618-0.575 1.037-0.635M11.924 1.864c-0.325 0.119-0.575 0.368-0.822 0.601-3.007 2.873-6.024 5.737-9.022 8.621-0.685 0.626-0.671 1.798 0.004 2.425 2.942 2.941 5.882 5.885 8.826 8.826 0.643 0.654 1.799 0.683 2.452 0.026 3.086-2.954 6.181-5.902 9.269-8.855 0.684-0.622 0.662-1.784 0.004-2.416-2.892-2.91-5.801-5.806-8.701-8.708-0.492-0.547-1.312-0.796-2.009-0.521z"></path>
<path fill="#fff100" d="M12.151 2.189c0.547-0.179 1.139 0.055 1.518 0.462 2.882 2.878 5.761 5.76 8.636 8.645 0.558 0.488 0.626 1.436 0.055 1.943-3.091 2.951-6.18 5.906-9.27 8.86-0.512 0.509-1.412 0.479-1.913-0.032-2.924-2.916-5.839-5.843-8.767-8.755-0.569-0.49-0.632-1.446-0.059-1.957 2.97-2.87 5.975-5.706 8.954-8.568 0.252-0.233 0.503-0.502 0.845-0.596M13.037 6.679c-1.642 0.392-3.284 0.787-4.924 1.195 0.845 1.655 1.724 3.294 2.593 4.936 0.145 0.408 0.744 0.289 0.82-0.1 0.076-0.571 0.011-1.15 0.038-1.724 0.757 0.296 1.459 0.812 1.811 1.565 0.779 1.681 0.548 3.593 0.592 5.39 0.871 0.006 1.741-0.029 2.614-0.035-0.101-2.186 0.203-4.526-0.809-6.552-0.655-1.243-1.91-2-3.143-2.58 0.326-0.506 0.742-0.953 1.038-1.478 0.214-0.391-0.269-0.74-0.63-0.617z"></path>
</svg>
