<?xml version="1.0" encoding="utf-8"?>
<!-- Generated by IcoMoon.io -->
<!DOCTYPE svg PUBLIC "-//W3C//DTD SVG 1.1//EN" "http://www.w3.org/Graphics/SVG/1.1/DTD/svg11.dtd">
<svg version="1.1" xmlns="http://www.w3.org/2000/svg" xmlns:xlink="http://www.w3.org/1999/xlink" width="24" height="24" viewBox="0 0 24 24">
<path fill="#ffd520" d="M11.568 0h0.804c3.96 3.752 7.716 7.716 11.624 11.52l0.004-0.080v0.976c-0.036 0.056-0.104 0.168-0.14 0.224-0.164-0.712-0.496-1.376-1.028-1.876-3.216-3.192-6.42-6.396-9.608-9.608-0.492-0.476-1.252-1.288-1.876-0.508-3.26 3.12-6.372 6.392-9.604 9.536-0.56 0.52-1.064 1.108-1.376 1.82-0.092 0.096-0.276 0.284-0.368 0.38v-0.912l0.004 0.080c3.848-3.856 7.688-7.72 11.564-11.552z"></path>
<path fill="#ffd520" d="M0.692 12.020c3.708-3.84 7.524-7.58 11.308-11.348 3.792 3.748 7.56 7.528 11.316 11.312-3.72 3.828-7.524 7.576-11.312 11.336-3.8-3.732-7.56-7.512-11.312-11.3M12.56 6.788c-0.604 1.256-1.568 2.42-1.476 3.892l0.64-0.292c-0.176 0.24-0.532 0.724-0.712 0.964-1.008-0.56-2.032-1.088-3.048-1.636 0.888-0.68 1.764 0.528 2.676 0.6 0.292-0.848 0.66-1.668 1.092-2.456-0.476-0.236-0.952-0.472-1.424-0.712l-0.252 0.012c-0.332 0.24-0.664 0.48-0.996 0.716-0.504-0.272-1.004-0.556-1.536-0.776-0.528 0.028-0.64 0.708-0.964 1.032 0.368 0.372 0.648 0.796 0.844 1.28-0.716-0.324-1.412-0.688-2.108-1.052 0.004 2.144 0.008 4.288 0 6.436 4.148-0.024 8.3 0.076 12.448-0.056-0.432-0.2-0.864-0.396-1.296-0.596 0.42-0.34 0.908-0.56 1.432-0.684 0.708-0.916 1.104-2.020 1.648-3.032-2.32-1.216-4.644-2.428-6.968-3.64M10.232 16.192c-0.148 0.056-0.444 0.168-0.592 0.224-0.096 0.784-0.66 1.944 0.152 2.516 0.6 0.56 1.628-0.228 1.38-0.968-0.056-0.628 0.036-1.924-0.94-1.772M11.904 16.968c0.664 0.176 0.956-0.044 0.876-0.664-0.656-0.184-0.948 0.040-0.876 0.664M13.68 17.136c0.52 0.116 0.704-0.124 0.56-0.728-0.536-0.076-0.724 0.164-0.56 0.728M12.1 17.488c0.072 1.344 1.2-0.624 0 0M13.34 17.728c0.108 0.104 0.108 0.104 0 0M14.112 17.56c0.092 1.376 1.148-0.672 0 0M12.524 19.064c0.512 0.004 0.752-0.288 0.72-0.884-0.52-0.016-0.76 0.276-0.72 0.884M13.872 18.26c-0.044 0.632 0.264 0.876 0.928 0.728 0.036-0.612-0.272-0.856-0.928-0.728z"></path>
<path fill="#ffd520" d="M12.1 11.9c0.196-0.284 0.396-0.572 0.592-0.856 1.068 0.624 2.16 1.2 3.268 1.748-0.108 0.208-0.324 0.628-0.428 0.84-1.14-0.588-2.288-1.16-3.432-1.732z"></path>
<path fill="#ffd520" d="M10.016 16.76c1.244-0.532 0.008 1.328 0 0z"></path>
<path fill="#ffd520" d="M9.984 17.88c0.572-0.168 0.784 0.016 0.632 0.564-0.58 0.176-0.792-0.012-0.632-0.564z"></path>
<path fill="#000" d="M11.348 0.648c0.624-0.78 1.384 0.032 1.876 0.508 3.188 3.212 6.392 6.416 9.608 9.608 0.532 0.5 0.864 1.164 1.028 1.876 0.036-0.056 0.104-0.168 0.14-0.224v0.16c-3.9 3.572-7.46 7.508-11.316 11.132-0.596 0.692-1.452 0.028-1.908-0.468-2.732-2.74-5.468-5.48-8.208-8.216-0.844-0.816-1.548-1.808-2.568-2.416v-0.224c0.092-0.096 0.276-0.284 0.368-0.38 0.312-0.712 0.816-1.3 1.376-1.82 3.232-3.144 6.344-6.416 9.604-9.536M0.692 12.020c3.752 3.788 7.512 7.568 11.312 11.3 3.788-3.76 7.592-7.508 11.312-11.336-3.756-3.784-7.524-7.564-11.316-11.312-3.784 3.768-7.6 7.508-11.308 11.348z"></path>
<path fill="#000" d="M12.56 6.788c2.324 1.212 4.648 2.424 6.968 3.64-0.544 1.012-0.94 2.116-1.648 3.032-0.524 0.124-1.012 0.344-1.432 0.684 0.432 0.2 0.864 0.396 1.296 0.596-4.148 0.132-8.3 0.032-12.448 0.056 0.008-2.148 0.004-4.292 0-6.436 0.696 0.364 1.392 0.728 2.108 1.052-0.196-0.484-0.476-0.908-0.844-1.28 0.324-0.324 0.436-1.004 0.964-1.032 0.532 0.22 1.032 0.504 1.536 0.776 0.332-0.236 0.664-0.476 0.996-0.716l0.252-0.012c0.472 0.24 0.948 0.476 1.424 0.712-0.432 0.788-0.8 1.608-1.092 2.456-0.912-0.072-1.788-1.28-2.676-0.6 1.016 0.548 2.040 1.076 3.048 1.636 0.18-0.24 0.536-0.724 0.712-0.964l-0.64 0.292c-0.092-1.472 0.872-2.636 1.476-3.892M12.1 11.9c1.144 0.572 2.292 1.144 3.432 1.732 0.104-0.212 0.32-0.632 0.428-0.84-1.108-0.548-2.2-1.124-3.268-1.748-0.196 0.284-0.396 0.572-0.592 0.856z"></path>
<path fill="#000" d="M10.232 16.192c0.976-0.152 0.884 1.144 0.94 1.772 0.248 0.74-0.78 1.528-1.38 0.968-0.812-0.572-0.248-1.732-0.152-2.516 0.148-0.056 0.444-0.168 0.592-0.224M10.016 16.76c0.008 1.328 1.244-0.532 0 0M9.984 17.88c-0.16 0.552 0.052 0.74 0.632 0.564 0.152-0.548-0.060-0.732-0.632-0.564z"></path>
<path fill="#000" d="M11.904 16.968c-0.072-0.624 0.22-0.848 0.876-0.664 0.080 0.62-0.212 0.84-0.876 0.664z"></path>
<path fill="#000" d="M13.68 17.136c-0.164-0.564 0.024-0.804 0.56-0.728 0.144 0.604-0.040 0.844-0.56 0.728z"></path>
<path fill="#000" d="M12.1 17.488c1.2-0.624 0.072 1.344 0 0z"></path>
<path fill="#000" d="M13.34 17.728c0.108 0.104 0.108 0.104 0 0z"></path>
<path fill="#000" d="M14.112 17.56c1.148-0.672 0.092 1.376 0 0z"></path>
<path fill="#000" d="M12.524 19.064c-0.040-0.608 0.2-0.9 0.72-0.884 0.032 0.596-0.208 0.888-0.72 0.884z"></path>
<path fill="#000" d="M13.872 18.26c0.656-0.128 0.964 0.116 0.928 0.728-0.664 0.148-0.972-0.096-0.928-0.728z"></path>
</svg>
