<!-- Generated by IcoMoon.io -->
<svg version="1.1" xmlns="http://www.w3.org/2000/svg" width="24" height="24" viewBox="0 0 24 24">
<title>warning--dead-end--g2</title>
<path fill="#ffd520" d="M11.798 0h0.374c0.484 0.238 0.8 0.689 1.196 1.037-0.462 0.451-0.91 0.914-1.374 1.363-0.463-0.448-0.912-0.912-1.373-1.364 0.391-0.347 0.71-0.781 1.176-1.036z"></path>
<path fill="#ffd520" d="M7.879 3.78c0.469-0.449 0.929-0.907 1.378-1.376 0.456 0.461 0.916 0.92 1.37 1.384 0.455-0.458 0.901-0.925 1.368-1.372 0.469 0.444 0.911 0.916 1.369 1.369 0.458-0.46 0.912-0.923 1.37-1.381 0.449 0.469 0.908 0.928 1.378 1.376-0.464 0.451-0.925 0.905-1.373 1.373 0.449 0.458 0.905 0.912 1.362 1.363 0.46-0.455 0.918-0.912 1.369-1.376 0.449 0.469 0.908 0.928 1.376 1.378-0.464 0.45-0.922 0.908-1.376 1.369 0.454 0.456 0.905 0.913 1.367 1.362 0.463-0.451 0.917-0.911 1.372-1.37 0.446 0.468 0.905 0.924 1.372 1.373-0.46 0.46-0.928 0.91-1.374 1.381 0.457 0.449 0.914 0.898 1.361 1.357-0.445 0.466-0.913 0.908-1.361 1.37 0.455 0.46 0.918 0.911 1.369 1.374-0.464 0.448-0.92 0.902-1.367 1.367-0.456-0.458-0.911-0.919-1.372-1.373-0.46 0.454-0.916 0.91-1.368 1.369 0.457 0.457 0.916 0.912 1.373 1.369-0.466 0.449-0.923 0.907-1.372 1.372-0.454-0.461-0.908-0.919-1.369-1.373-0.458 0.451-0.917 0.902-1.362 1.368 0.45 0.462 0.911 0.914 1.368 1.369-0.468 0.451-0.928 0.91-1.378 1.379-0.451-0.464-0.904-0.926-1.366-1.379-0.464 0.449-0.906 0.92-1.369 1.37-0.461-0.452-0.907-0.918-1.366-1.372-0.464 0.451-0.914 0.918-1.373 1.376-0.448-0.468-0.906-0.926-1.373-1.374 0.456-0.456 0.917-0.907 1.367-1.37-0.444-0.467-0.905-0.917-1.361-1.369-0.46 0.455-0.917 0.912-1.369 1.374-0.45-0.466-0.907-0.924-1.374-1.372 0.46-0.456 0.918-0.912 1.376-1.369-0.454-0.46-0.911-0.916-1.369-1.369-0.461 0.455-0.917 0.913-1.37 1.375-0.449-0.468-0.906-0.925-1.373-1.374 0.457-0.457 0.913-0.914 1.374-1.367-0.451-0.461-0.917-0.906-1.363-1.37 0.445-0.467 0.907-0.916 1.367-1.368-0.463-0.455-0.917-0.918-1.382-1.369 0.469-0.45 0.929-0.908 1.376-1.379 0.452 0.462 0.907 0.922 1.373 1.373 0.46-0.449 0.911-0.906 1.366-1.361-0.455-0.462-0.911-0.923-1.38-1.369 0.47-0.449 0.931-0.91 1.381-1.381 0.449 0.468 0.907 0.924 1.37 1.379 0.454-0.452 0.911-0.904 1.358-1.363-0.446-0.469-0.907-0.923-1.372-1.373M9.27 5.162c0.45 0.45 0.902 0.898 1.352 1.349-0.444 0.467-0.905 0.918-1.364 1.37-0.458-0.443-0.894-0.911-1.362-1.345-0.472 0.433-0.929 0.886-1.357 1.361 0.442 0.46 0.905 0.896 1.346 1.356-0.454 0.458-0.9 0.925-1.375 1.362-0.449-0.455-0.895-0.912-1.358-1.352-0.437 0.437-0.892 0.859-1.308 1.316 0.3 0.538 0.898 0.925 1.308 1.41-0.444 0.458-0.905 0.899-1.349 1.356 0.422 0.48 0.886 0.923 1.352 1.361 0.474-0.43 0.906-0.9 1.366-1.343 0.461 0.449 0.914 0.906 1.368 1.363-0.444 0.461-0.916 0.894-1.348 1.367 0.436 0.467 0.886 0.922 1.357 1.354 0.463-0.439 0.899-0.907 1.364-1.345 0.457 0.442 0.894 0.905 1.358 1.339-0.419 0.496-0.924 0.908-1.348 1.399 0.457 0.448 0.883 0.93 1.374 1.343 0.448-0.451 0.893-0.904 1.348-1.348 0.456 0.444 0.901 0.899 1.352 1.348 0.482-0.42 0.923-0.887 1.362-1.351-0.425-0.475-0.893-0.91-1.344-1.36 0.444-0.467 0.906-0.917 1.363-1.372 0.466 0.439 0.901 0.91 1.368 1.348 0.467-0.436 0.918-0.889 1.356-1.355-0.434-0.472-0.906-0.906-1.35-1.368 0.456-0.455 0.905-0.917 1.372-1.362 0.456 0.445 0.89 0.914 1.363 1.343 0.466-0.438 0.925-0.884 1.354-1.36-0.445-0.456-0.906-0.899-1.351-1.356 0.414-0.484 0.995-0.875 1.313-1.405-0.419-0.458-0.874-0.884-1.314-1.322-0.472 0.44-0.906 0.918-1.38 1.355-0.445-0.461-0.907-0.904-1.354-1.364 0.443-0.458 0.905-0.898 1.349-1.355-0.43-0.476-0.886-0.929-1.358-1.361-0.469 0.433-0.904 0.901-1.362 1.344-0.46-0.451-0.917-0.905-1.366-1.367 0.443-0.458 0.912-0.89 1.343-1.361-0.437-0.468-0.876-0.938-1.367-1.35-0.454 0.444-0.896 0.899-1.349 1.345-0.446-0.445-0.892-0.892-1.337-1.338-0.515 0.39-0.938 0.889-1.388 1.351z"></path>
<path fill="#ffd520" d="M5.304 11.989c2.222-2.237 4.451-4.469 6.691-6.688 2.24 2.219 4.47 4.45 6.691 6.689-2.221 2.24-4.456 4.468-6.691 6.694-2.234-2.228-4.47-4.454-6.691-6.695M13.13 11.254c-1.475 0.008-2.948-0.004-4.423 0.006-0.007 0.486-0.006 0.972-0.001 1.458 1.475 0.007 2.951-0.002 4.426 0.005-0.072 0.338-0.475 0.773-0.146 1.072 0.229 0.092 0.421-0.096 0.606-0.199 0.814-0.545 1.643-1.064 2.461-1.602-0.95-0.607-1.876-1.265-2.86-1.813-0.631 0.002-0.176 0.748-0.062 1.074z"></path>
<path fill="#ffd520" d="M0 11.816c0.242-0.482 0.692-0.8 1.043-1.199 0.452 0.46 0.918 0.906 1.363 1.374-0.448 0.463-0.911 0.911-1.362 1.37-0.35-0.384-0.767-0.71-1.044-1.156v-0.39z"></path>
<path fill="#ffd520" d="M21.586 11.992c0.444-0.468 0.911-0.913 1.363-1.373 0.355 0.394 0.793 0.722 1.051 1.196v0.334c-0.232 0.497-0.701 0.809-1.052 1.212-0.452-0.458-0.914-0.906-1.362-1.369z"></path>
<path fill="#ffd520" d="M10.625 22.944c0.458-0.454 0.906-0.917 1.372-1.363 0.463 0.446 0.911 0.91 1.37 1.363-0.39 0.354-0.718 0.784-1.177 1.056h-0.346c-0.503-0.227-0.811-0.706-1.219-1.056z"></path>
<path fill="#000" d="M9.257 2.404c0.439-0.472 0.896-0.926 1.366-1.368 0.461 0.452 0.91 0.917 1.373 1.364 0.464-0.449 0.912-0.912 1.374-1.363 0.469 0.44 0.926 0.896 1.366 1.367-0.458 0.458-0.912 0.922-1.37 1.381-0.458-0.454-0.9-0.925-1.369-1.369-0.467 0.446-0.913 0.913-1.368 1.372-0.455-0.463-0.914-0.923-1.37-1.384z"></path>
<path fill="#000" d="M6.522 5.137c0.439-0.464 0.893-0.917 1.357-1.357 0.464 0.45 0.925 0.904 1.372 1.373-0.448 0.46-0.905 0.911-1.358 1.363-0.463-0.455-0.922-0.911-1.37-1.379z"></path>
<path fill="#000" d="M9.27 5.162c0.45-0.462 0.874-0.961 1.388-1.351 0.445 0.446 0.89 0.893 1.337 1.338 0.452-0.446 0.895-0.901 1.349-1.345 0.491 0.412 0.93 0.882 1.367 1.35-0.431 0.47-0.9 0.902-1.343 1.361 0.449 0.462 0.906 0.916 1.366 1.367 0.458-0.443 0.893-0.911 1.362-1.344 0.473 0.432 0.929 0.884 1.358 1.361-0.444 0.457-0.906 0.896-1.349 1.355 0.446 0.461 0.908 0.904 1.354 1.364 0.474-0.437 0.908-0.914 1.38-1.355 0.44 0.438 0.895 0.864 1.314 1.322-0.318 0.53-0.899 0.922-1.313 1.405 0.445 0.457 0.906 0.9 1.351 1.356-0.428 0.475-0.888 0.922-1.354 1.36-0.473-0.428-0.907-0.898-1.363-1.343-0.467 0.445-0.916 0.907-1.372 1.362 0.444 0.462 0.916 0.896 1.35 1.368-0.438 0.466-0.889 0.919-1.356 1.355-0.467-0.438-0.902-0.908-1.368-1.348-0.457 0.455-0.919 0.905-1.363 1.372 0.451 0.45 0.919 0.884 1.344 1.36-0.439 0.464-0.88 0.931-1.362 1.351-0.451-0.449-0.896-0.904-1.352-1.348-0.455 0.444-0.9 0.896-1.348 1.348-0.491-0.413-0.917-0.895-1.374-1.343 0.424-0.491 0.929-0.904 1.348-1.399-0.464-0.434-0.901-0.898-1.358-1.339-0.466 0.438-0.901 0.906-1.364 1.345-0.472-0.432-0.922-0.887-1.357-1.354 0.432-0.473 0.904-0.906 1.348-1.367-0.454-0.457-0.907-0.914-1.368-1.363-0.46 0.443-0.892 0.913-1.366 1.343-0.467-0.438-0.93-0.881-1.352-1.361 0.444-0.457 0.905-0.898 1.349-1.356-0.41-0.485-1.008-0.872-1.308-1.41 0.416-0.457 0.871-0.88 1.308-1.316 0.463 0.44 0.91 0.898 1.358 1.352 0.475-0.437 0.922-0.904 1.375-1.362-0.442-0.46-0.905-0.896-1.346-1.356 0.428-0.475 0.886-0.928 1.357-1.361 0.468 0.434 0.904 0.902 1.362 1.345 0.46-0.452 0.92-0.904 1.364-1.37-0.45-0.451-0.902-0.899-1.352-1.349M5.304 11.989c2.221 2.24 4.457 4.466 6.691 6.695 2.236-2.226 4.47-4.453 6.691-6.694-2.221-2.239-4.451-4.47-6.691-6.689-2.24 2.219-4.469 4.451-6.691 6.688z"></path>
<path fill="#000" d="M14.74 5.153c0.448-0.468 0.908-0.922 1.373-1.373 0.463 0.442 0.917 0.895 1.358 1.36-0.451 0.464-0.91 0.922-1.369 1.376-0.457-0.451-0.913-0.905-1.362-1.363z"></path>
<path fill="#000" d="M3.782 7.876c0.44-0.464 0.894-0.917 1.358-1.357 0.469 0.446 0.925 0.907 1.38 1.369-0.455 0.455-0.906 0.912-1.366 1.361-0.466-0.451-0.92-0.911-1.373-1.373z"></path>
<path fill="#000" d="M17.471 7.886c0.455-0.461 0.912-0.919 1.376-1.369 0.467 0.44 0.92 0.895 1.362 1.361-0.455 0.46-0.908 0.919-1.372 1.37-0.462-0.449-0.913-0.906-1.367-1.362z"></path>
<path fill="#000" d="M21.581 9.251c0.469 0.443 0.928 0.896 1.368 1.368-0.452 0.46-0.919 0.905-1.363 1.373 0.448 0.463 0.91 0.911 1.362 1.369-0.444 0.472-0.904 0.926-1.372 1.373-0.451-0.463-0.914-0.914-1.369-1.374 0.448-0.462 0.916-0.905 1.361-1.37-0.446-0.46-0.904-0.908-1.361-1.357 0.446-0.472 0.914-0.922 1.374-1.381z"></path>
<path fill="#000" d="M1.043 10.618c0.439-0.469 0.894-0.924 1.363-1.363 0.466 0.451 0.919 0.914 1.382 1.369-0.46 0.452-0.922 0.901-1.367 1.368 0.446 0.464 0.912 0.91 1.363 1.37-0.461 0.452-0.917 0.91-1.374 1.367-0.469-0.442-0.925-0.898-1.367-1.367 0.451-0.46 0.914-0.907 1.362-1.37-0.445-0.468-0.911-0.914-1.363-1.374z"></path>
<path fill="#000" d="M13.13 11.254c-0.114-0.326-0.569-1.072 0.062-1.074 0.984 0.548 1.909 1.206 2.86 1.813-0.818 0.538-1.648 1.057-2.461 1.602-0.185 0.103-0.377 0.292-0.606 0.199-0.329-0.299 0.074-0.733 0.146-1.072-1.475-0.007-2.951 0.002-4.426-0.005-0.005-0.486-0.006-0.972 0.001-1.458 1.475-0.010 2.948 0.002 4.423-0.006z"></path>
<path fill="#000" d="M3.784 16.103c0.454-0.462 0.91-0.92 1.37-1.375 0.458 0.454 0.916 0.91 1.369 1.369-0.458 0.457-0.917 0.913-1.376 1.369-0.466-0.443-0.92-0.898-1.363-1.363z"></path>
<path fill="#000" d="M17.47 16.097c0.452-0.46 0.908-0.916 1.368-1.369 0.461 0.454 0.916 0.914 1.372 1.373-0.444 0.467-0.9 0.922-1.367 1.366-0.457-0.457-0.916-0.912-1.373-1.369z"></path>
<path fill="#000" d="M6.521 18.838c0.452-0.462 0.91-0.919 1.369-1.374 0.456 0.452 0.917 0.902 1.361 1.369-0.45 0.463-0.911 0.914-1.367 1.37-0.466-0.444-0.92-0.899-1.363-1.366z"></path>
<path fill="#000" d="M14.74 18.833c0.445-0.466 0.904-0.917 1.362-1.368 0.461 0.454 0.916 0.912 1.369 1.373-0.443 0.467-0.899 0.922-1.363 1.364-0.457-0.455-0.918-0.907-1.368-1.369z"></path>
<path fill="#000" d="M9.257 21.577c0.458-0.458 0.908-0.925 1.373-1.376 0.458 0.454 0.905 0.919 1.366 1.372 0.463-0.45 0.905-0.922 1.369-1.37 0.462 0.452 0.914 0.914 1.366 1.379-0.44 0.467-0.895 0.922-1.363 1.363-0.46-0.454-0.907-0.917-1.37-1.363-0.466 0.446-0.913 0.91-1.372 1.363-0.47-0.442-0.925-0.899-1.368-1.367z"></path>
</svg>
