<!-- Generated by IcoMoon.io -->
<svg version="1.1" xmlns="http://www.w3.org/2000/svg" width="24" height="24" viewBox="0 0 24 24">
<title>warning--roadworks--g11</title>
<path fill="#bd6000" opacity="0.79" d="M11.726 0h0.526c0.535 0.224 0.902 0.686 1.306 1.082 3.1 3.1 6.2 6.199 9.3 9.3 0.409 0.419 0.882 0.798 1.142 1.337v0.532c-0.222 0.536-0.689 0.901-1.084 1.304-3.12 3.121-6.24 6.241-9.36 9.361-0.398 0.392-0.762 0.842-1.28 1.084h-0.522c-0.539-0.222-0.901-0.691-1.307-1.087-3.14-3.139-6.28-6.28-9.42-9.419-0.385-0.394-0.85-0.749-1.027-1.292v-0.398c0.175-0.546 0.64-0.905 1.025-1.298 3.121-3.119 6.24-6.24 9.36-9.359 0.42-0.412 0.8-0.887 1.342-1.146M11.675 0.283c-0.185 0.078-0.332 0.217-0.476 0.352-3.538 3.545-7.079 7.087-10.62 10.63-0.422 0.344-0.474 1.037-0.061 1.41 3.6 3.605 7.207 7.204 10.81 10.805 0.346 0.385 1.001 0.388 1.348 0.004 3.605-3.6 7.208-7.202 10.81-10.806 0.413-0.373 0.366-1.072-0.058-1.417-3.564-3.559-7.12-7.129-10.686-10.686-0.264-0.293-0.688-0.434-1.066-0.29z"></path>
<path fill="#000" d="M11.675 0.283c0.378-0.144 0.802-0.002 1.066 0.29 3.566 3.557 7.122 7.127 10.686 10.686 0.424 0.346 0.47 1.044 0.058 1.417-3.601 3.604-7.205 7.206-10.81 10.806-0.347 0.384-1.002 0.382-1.348-0.004-3.602-3.601-7.21-7.2-10.81-10.805-0.413-0.373-0.361-1.066 0.061-1.41 3.541-3.542 7.082-7.085 10.62-10.63 0.144-0.134 0.292-0.274 0.476-0.352M11.696 0.659c-3.647 3.55-7.207 7.196-10.823 10.78-0.304 0.239-0.443 0.718-0.113 1 3.596 3.604 7.198 7.205 10.801 10.802 0.253 0.295 0.709 0.235 0.942-0.053 3.577-3.584 7.164-7.159 10.739-10.746 0.296-0.256 0.227-0.71-0.056-0.944-3.536-3.546-7.082-7.082-10.621-10.626-0.211-0.238-0.576-0.434-0.869-0.212z"></path>
<path fill="#000" d="M6.461 7.531c1.399-0.319 2.842-0.451 4.226-0.829 0.778 0.124 1.546 0.305 2.311 0.485-0.018 0.169-0.034 0.34-0.047 0.51-0.382 0.079-0.763 0.156-1.144 0.235 0.57 1.252 1.136 2.504 1.739 3.74 0.359-0.709 0.504-1.502 0.82-2.228 0.1-0.27 0.44-0.224 0.67-0.29 0.061-0.151 0.121-0.304 0.182-0.455 0.157 0.004 0.314 0.006 0.472 0.006 0.062 0.16 0.126 0.319 0.188 0.48 0.176 0.006 0.353 0.012 0.529 0.019-0.005 0.517-0.011 1.036 0.019 1.553 1.332-0.007 2.665-0.007 3.997-0.001 0.019 0.372 0.037 0.744 0.055 1.116 0.071 0.048 0.212 0.143 0.284 0.191 0.005 0.49-0.037 0.978-0.1 1.463-0.158 0.012-0.316 0.026-0.473 0.041-0.205-0.365-0.512-0.748-0.979-0.712-1.367-0.011-2.734-0.013-4.099 0.001-0.391-0.022-0.662 0.283-0.892 0.554-0.466 0.008-1.118 0.192-1.386-0.323-0.701-1.672-1.368-3.359-2.065-5.033-1.343 0.046-2.683 0.122-4.026 0.157-0.113 0.176-0.174 0.371-0.028 0.548 0.378 0.583 0.523 1.459 1.318 1.606-0.689 0.397-1.393-0.122-2.113-0.118-0.738-0.301-0.478-1.204-0.396-1.813 0.388-0.221 0.578-0.665 0.936-0.904M14.67 9.529c-0.144 0.458-0.271 0.924-0.323 1.403 0.563 0.019 1.128 0.016 1.692 0.007 0.004-0.473 0.004-0.944 0-1.417-0.457-0.005-0.913-0.005-1.369 0.007z"></path>
<path fill="#000" d="M7.37 11.687c0.916-0.139 0.947-1.774 2.064-1.309 0.649 0.631 1.411 1.327 1.556 2.275 0.245 0.638 0.763 1.148 0.877 1.846-2.411 0.011-4.823 0.006-7.234 0.002 0.439-1.266 1.387-2.476 2.736-2.814z"></path>
<path fill="#000" d="M14.809 13.258c1.392-0.239 2.855-0.044 4.274-0.103 0.528-0.084 0.98 0.518 0.708 0.989-0.191 0.41-0.695 0.367-1.072 0.365-1.235-0.026-2.473 0.034-3.707-0.028-0.583-0.074-0.718-0.955-0.204-1.223z"></path>
<path fill="#ef7b00" d="M11.696 0.659c0.293-0.222 0.658-0.025 0.869 0.212 3.539 3.544 7.085 7.080 10.621 10.626 0.283 0.234 0.353 0.689 0.056 0.944-3.575 3.587-7.162 7.162-10.739 10.746-0.233 0.288-0.689 0.348-0.942 0.053-3.604-3.598-7.205-7.199-10.801-10.802-0.33-0.282-0.191-0.761 0.113-1 3.616-3.583 7.176-7.23 10.823-10.78M6.461 7.531c-0.358 0.239-0.548 0.683-0.936 0.904-0.082 0.61-0.342 1.512 0.396 1.813 0.72-0.005 1.424 0.515 2.113 0.118-0.794-0.146-0.94-1.022-1.318-1.606-0.146-0.178-0.085-0.372 0.028-0.548 1.343-0.035 2.683-0.112 4.026-0.157 0.697 1.674 1.364 3.361 2.065 5.033 0.268 0.515 0.92 0.331 1.386 0.323 0.229-0.271 0.5-0.576 0.892-0.554 1.366-0.014 2.732-0.012 4.099-0.001 0.467-0.036 0.774 0.347 0.979 0.712 0.157-0.014 0.314-0.029 0.473-0.041 0.062-0.485 0.104-0.973 0.1-1.463-0.072-0.048-0.214-0.143-0.284-0.191-0.018-0.372-0.036-0.744-0.055-1.116-1.332-0.006-2.665-0.006-3.997 0.001-0.030-0.517-0.024-1.036-0.019-1.553-0.176-0.007-0.353-0.013-0.529-0.019-0.062-0.161-0.126-0.32-0.188-0.48-0.157 0-0.314-0.002-0.472-0.006-0.061 0.151-0.121 0.304-0.182 0.455-0.229 0.066-0.57 0.020-0.67 0.29-0.316 0.726-0.461 1.519-0.82 2.228-0.602-1.236-1.169-2.489-1.739-3.74 0.38-0.079 0.762-0.156 1.144-0.235 0.013-0.17 0.029-0.341 0.047-0.51-0.766-0.18-1.534-0.361-2.311-0.485-1.385 0.378-2.827 0.51-4.226 0.829M7.37 11.687c-1.349 0.338-2.297 1.548-2.736 2.814 2.411 0.004 4.823 0.008 7.234-0.002-0.114-0.697-0.632-1.207-0.877-1.846-0.145-0.948-0.907-1.644-1.556-2.275-1.117-0.464-1.148 1.17-2.064 1.309M14.809 13.258c-0.514 0.268-0.379 1.148 0.204 1.223 1.234 0.061 2.472 0.001 3.707 0.028 0.377 0.002 0.881 0.046 1.072-0.365 0.272-0.47-0.18-1.073-0.708-0.989-1.42 0.059-2.882-0.136-4.274 0.103z"></path>
<path fill="#ef7b00" d="M14.67 9.529c0.456-0.012 0.912-0.012 1.369-0.007 0.004 0.473 0.004 0.944 0 1.417-0.564 0.008-1.129 0.012-1.692-0.007 0.052-0.479 0.179-0.944 0.323-1.403z"></path>
</svg>
