<!-- Generated by IcoMoon.io -->
<svg version="1.1" xmlns="http://www.w3.org/2000/svg" width="24" height="24" viewBox="0 0 24 24">
<title>warning--low-flying-aircraft--g7</title>
<path fill="#ffdb00" d="M11.736 0h0.479c0.278 0.106 0.544 0.251 0.752 0.466 3.502 3.503 7.003 7.006 10.507 10.506 0.252 0.233 0.419 0.538 0.526 0.862v0.239c-0.085 0.298-0.197 0.599-0.425 0.817-3.541 3.542-7.085 7.082-10.624 10.626-0.222 0.233-0.512 0.38-0.814 0.485h-0.271c-0.59-0.126-0.966-0.614-1.372-1.015-3.161-3.16-6.32-6.32-9.48-9.48-0.377-0.385-0.824-0.732-1.015-1.255v-0.485c0.095-0.277 0.239-0.54 0.454-0.744 3.523-3.522 7.045-7.045 10.568-10.568 0.2-0.202 0.452-0.342 0.714-0.452M11.573 0.412c-3.689 3.544-7.247 7.237-10.89 10.834-0.427 0.326-0.544 1.008-0.118 1.386 3.602 3.6 7.201 7.204 10.806 10.802 0.322 0.353 0.928 0.349 1.246-0.007 3.602-3.604 7.212-7.201 10.811-10.808 0.376-0.348 0.322-0.978-0.060-1.3-3.558-3.566-7.122-7.127-10.684-10.688-0.27-0.31-0.748-0.433-1.111-0.218z"></path>
<path fill="#ffdb00" d="M11.916 0.761c0.244-0.055 0.422 0.15 0.583 0.299 3.517 3.526 7.046 7.040 10.562 10.568 0.198 0.163 0.258 0.492 0.046 0.671-3.577 3.587-7.164 7.166-10.742 10.753-0.18 0.24-0.55 0.245-0.731 0.002-3.58-3.586-7.169-7.164-10.745-10.753-0.216-0.18-0.156-0.51 0.046-0.676 3.535-3.55 7.087-7.084 10.627-10.628 0.107-0.091 0.209-0.21 0.354-0.236M7.844 8.771c-0.116 0.128-0.234 0.257-0.35 0.385 3.574 0.007 7.146 0.006 10.72 0 0.098-0.131 0.198-0.262 0.298-0.392-3.556-0.002-7.111-0.014-10.667 0.007M4.834 9.521c-0.82 0.226-1.216 1.291-0.739 1.997 0.506 0.871 1.84 0.782 2.342-0.049 0.816 0.256 1.637 0.496 2.452 0.756 0.57 1.001 0.936 2.246 2.032 2.813 0.007 0.41 0.006 0.822-0.004 1.234-0.527-0.014-1.193 0.152-1.517-0.395-0.085 0.064-0.17 0.127-0.256 0.191 0.22 0.254 0.461 0.566 0.832 0.572 1.994 0.001 3.99 0.002 5.984-0.001 0.505 0.025 0.874-0.374 1.133-0.758-0.064-0.042-0.19-0.126-0.253-0.168-0.491 0.78-1.444 0.559-2.218 0.564-0.008-0.41-0.007-0.822 0.001-1.234 0.967-0.012 1.934 0.011 2.902-0.008 0.298 0.008 0.697-0.154 0.664-0.512 0.004-1.234 0.053-2.684-0.883-3.629-0.98-0.817-2.365-0.313-3.527-0.451-0.18-0.218-0.355-0.44-0.529-0.664-0.16-0.002-0.317-0.004-0.475-0.006-0.18 0.216-0.305 0.485-0.527 0.659-1.901 0.020-3.803 0.007-5.705 0.006-0.23-0.686-0.997-1.159-1.709-0.916z"></path>
<path fill="#ffdb00" d="M9.834 10.973c1.631-0.011 3.262-0.004 4.894-0.004 0.005 0.738 0.002 1.475 0.001 2.213-1.106-0.037-2.228 0.101-3.322-0.101-0.972-0.194-1.609-1.144-1.573-2.108z"></path>
<path fill="#ffdb00" d="M15.17 10.97c0.541 0.024 1.102-0.076 1.63 0.065 0.704 0.444 0.811 1.385 0.767 2.147-0.799 0.004-1.598 0.005-2.398-0.001-0.001-0.737-0.004-1.474 0.001-2.21z"></path>
<path fill="#ffdb00" d="M11.29 15.017c0.988-0.001 1.975-0.004 2.963 0.001 0.005 0.418 0.005 0.835-0.001 1.253-0.986 0.002-1.974 0.001-2.96 0.001-0.007-0.419-0.007-0.836-0.001-1.255z"></path>
<path fill="#000" d="M11.573 0.412c0.364-0.215 0.841-0.091 1.111 0.218 3.562 3.562 7.126 7.122 10.684 10.688 0.382 0.322 0.436 0.952 0.060 1.3-3.599 3.607-7.208 7.205-10.811 10.808-0.318 0.356-0.924 0.36-1.246 0.007-3.605-3.599-7.204-7.202-10.806-10.802-0.426-0.378-0.31-1.060 0.118-1.386 3.643-3.596 7.201-7.29 10.89-10.834M11.916 0.761c-0.145 0.026-0.247 0.145-0.354 0.236-3.54 3.545-7.092 7.079-10.627 10.628-0.202 0.166-0.262 0.496-0.046 0.676 3.576 3.589 7.165 7.168 10.745 10.753 0.181 0.242 0.551 0.238 0.731-0.002 3.578-3.587 7.165-7.166 10.742-10.753 0.212-0.179 0.152-0.508-0.046-0.671-3.516-3.528-7.045-7.043-10.562-10.568-0.161-0.149-0.34-0.354-0.583-0.299z"></path>
<path fill="#000" d="M7.844 8.771c3.556-0.022 7.111-0.010 10.667-0.007-0.1 0.131-0.199 0.262-0.298 0.392-3.574 0.006-7.146 0.007-10.72 0 0.116-0.128 0.234-0.257 0.35-0.385z"></path>
<path fill="#000" d="M4.834 9.521c0.712-0.244 1.478 0.229 1.709 0.916 1.902 0.001 3.804 0.014 5.705-0.006 0.222-0.174 0.347-0.443 0.527-0.659 0.158 0.002 0.316 0.004 0.475 0.006 0.174 0.223 0.349 0.445 0.529 0.664 1.162 0.138 2.546-0.366 3.527 0.451 0.936 0.944 0.887 2.395 0.883 3.629 0.034 0.359-0.366 0.521-0.664 0.512-0.967 0.019-1.934-0.004-2.902 0.008-0.008 0.412-0.010 0.823-0.001 1.234 0.774-0.005 1.727 0.216 2.218-0.564 0.064 0.042 0.19 0.126 0.253 0.168-0.259 0.384-0.628 0.784-1.133 0.758-1.994 0.004-3.99 0.002-5.984 0.001-0.371-0.006-0.612-0.318-0.832-0.572 0.085-0.064 0.17-0.127 0.256-0.191 0.324 0.547 0.99 0.38 1.517 0.395 0.010-0.412 0.011-0.823 0.004-1.234-1.096-0.566-1.462-1.812-2.032-2.813-0.815-0.26-1.636-0.5-2.452-0.756-0.503 0.832-1.836 0.92-2.342 0.049-0.476-0.706-0.080-1.771 0.739-1.997M9.834 10.973c-0.036 0.965 0.601 1.914 1.573 2.108 1.093 0.202 2.215 0.064 3.322 0.101 0.001-0.738 0.004-1.475-0.001-2.213-1.632 0-3.263-0.007-4.894 0.004M15.17 10.97c-0.005 0.737-0.002 1.474-0.001 2.21 0.799 0.006 1.598 0.005 2.398 0.001 0.044-0.762-0.062-1.703-0.767-2.147-0.528-0.14-1.088-0.041-1.63-0.065M11.29 15.017c-0.006 0.419-0.006 0.836 0.001 1.255 0.986 0 1.974 0.001 2.96-0.001 0.006-0.418 0.006-0.835 0.001-1.253-0.988-0.005-1.975-0.002-2.963-0.001z"></path>
</svg>
