<?xml version="1.0" encoding="utf-8"?>
<!-- Generated by IcoMoon.io -->
<!DOCTYPE svg PUBLIC "-//W3C//DTD SVG 1.1//EN" "http://www.w3.org/Graphics/SVG/1.1/DTD/svg11.dtd">
<svg version="1.1" xmlns="http://www.w3.org/2000/svg" xmlns:xlink="http://www.w3.org/1999/xlink" width="24" height="24" viewBox="0 0 24 24">
<path fill="#fae935" d="M11.374 1.514c0.408-0.103 0.846-0.105 1.254 0 0.164 0.108 0.302 0.244 0.388 0.422 0.194 0.246 0.328 0.53 0.459 0.812 0.113 0.193 0.248 0.374 0.364 0.566 0.194 0.432 0.411 0.854 0.69 1.239 0.032 0.070 0.095 0.212 0.127 0.284 0.175 0.377 0.407 0.721 0.626 1.072 0.030 0.073 0.091 0.219 0.12 0.292 0.142 0.226 0.299 0.441 0.432 0.673 0.030 0.073 0.091 0.221 0.121 0.294 0.142 0.223 0.298 0.437 0.423 0.672 0.137 0.353 0.378 0.646 0.553 0.978 0.13 0.23 0.287 0.446 0.412 0.679 0.121 0.308 0.314 0.577 0.492 0.852 0.161 0.382 0.396 0.724 0.615 1.073 0.065 0.154 0.137 0.306 0.201 0.462 0.218 0.349 0.452 0.69 0.619 1.069 0.146 0.343 0.379 0.639 0.554 0.967 0.13 0.232 0.286 0.446 0.418 0.674 0.065 0.154 0.137 0.306 0.201 0.462 0.132 0.229 0.287 0.444 0.426 0.669 0.062 0.135 0.126 0.272 0.189 0.407 0.139 0.226 0.297 0.44 0.421 0.674 0.156 0.408 0.466 0.731 0.625 1.139 0.124 0.236 0.283 0.451 0.414 0.683 0.143 0.277 0.327 0.53 0.484 0.797 0.030 0.073 0.091 0.221 0.121 0.294 0.119 0.189 0.252 0.368 0.367 0.56 0.352 0.543 0.534 1.219 0.219 1.828-0.313 0.159-0.56 0.516-0.949 0.447-7.309-0.008-14.617 0.003-21.926-0.006-0.284-0.099-0.472-0.411-0.69-0.618-0.019-0.423-0.083-0.88 0.16-1.254 0.099-0.185 0.194-0.372 0.28-0.563 0.127-0.233 0.281-0.447 0.418-0.672 0.066-0.135 0.132-0.269 0.2-0.403 0.033-0.070 0.097-0.21 0.13-0.28 0.114-0.189 0.247-0.367 0.361-0.557 0.065-0.135 0.131-0.27 0.199-0.404 0.033-0.070 0.097-0.211 0.13-0.281 0.211-0.303 0.407-0.618 0.553-0.96 0.138-0.228 0.294-0.444 0.421-0.68 0.121-0.306 0.316-0.574 0.487-0.852 0.143-0.277 0.328-0.531 0.479-0.804 0.139-0.346 0.368-0.64 0.552-0.961 0.119-0.309 0.31-0.578 0.497-0.85 0.030-0.073 0.090-0.219 0.12-0.292 0.132-0.232 0.29-0.447 0.419-0.679 0.201-0.364 0.454-0.701 0.612-1.088 0.177-0.277 0.372-0.543 0.491-0.852 0.126-0.234 0.281-0.448 0.419-0.674 0.066-0.135 0.132-0.27 0.2-0.404 0.033-0.070 0.097-0.211 0.128-0.281 0.183-0.272 0.374-0.541 0.495-0.848 0.149-0.27 0.331-0.52 0.479-0.79 0.121-0.308 0.313-0.575 0.494-0.848 0.063-0.137 0.126-0.273 0.189-0.41 0.181-0.273 0.372-0.541 0.492-0.848 0.211-0.356 0.451-0.694 0.614-1.076 0.137-0.23 0.295-0.448 0.419-0.688 0.13-0.233 0.292-0.448 0.408-0.69 0.074-0.185 0.214-0.321 0.381-0.425M11.204 2.303c-2.179 3.72-4.357 7.444-6.44 11.219-1.32 2.279-2.608 4.575-3.909 6.866-0.268 0.401-0.263 1.006 0.12 1.335 0.411 0.375 1.004 0.246 1.509 0.262 6.619-0.010 13.237-0.051 19.857-0.102 0.753 0.074 1.306-0.841 0.898-1.477-1.626-2.873-3.294-5.723-4.89-8.612-1.41-2.574-2.975-5.058-4.388-7.629-0.517-0.775-0.865-1.661-1.498-2.356-0.454 0.032-1.018 0.028-1.259 0.494z"></path>
<path fill="#fae935" d="M12.039 4.451c1.794 3.159 3.634 6.291 5.455 9.434 1.177 2.066 2.317 4.154 3.501 6.218-5.996 0.018-11.992 0.084-17.988 0.080 2-3.441 3.901-6.938 5.926-10.364 1.029-1.792 2.106-3.557 3.106-5.368M7.966 14.935c-0.477 0.244-0.901 0.581-1.36 0.857 0.474 0.287 0.903 0.659 1.411 0.887 0.419 0.048 0.844 0.014 1.266 0.012-0.223-0.175-0.45-0.346-0.674-0.517 1.156-0.039 2.313-0.011 3.469-0.025 0.006 0.458 0.003 0.916 0.001 1.372-0.888 0.021-1.778-0.007-2.666 0.021 0.008 0.228 0.017 0.454 0.023 0.681 0.874-0.003 1.75 0.007 2.626 0.001-0.003 0.106-0.008 0.317-0.011 0.422 0.339-0.007 0.68-0.014 1.021-0.021-0.006-0.103-0.017-0.309-0.022-0.412 1.161-0.008 2.323-0.008 3.484-0.036-0.237 0.192-0.476 0.381-0.713 0.572 0.423-0.012 0.85 0.018 1.27-0.037 0.498-0.228 0.92-0.59 1.383-0.88-0.477-0.28-0.906-0.647-1.408-0.879-0.417-0.047-0.836-0.021-1.254-0.029 0.219 0.182 0.443 0.36 0.665 0.539-1.030-0.008-2.063 0.069-3.091-0.006-0.545-0.185-0.25-0.887-0.328-1.316 0.881-0.014 1.763 0.004 2.644-0.026-0.004-0.237-0.008-0.474-0.010-0.712-0.877 0.015-1.754 0.021-2.632 0.011 0.004-0.12 0.011-0.359 0.015-0.477-0.312 0-0.623 0.004-0.937 0.011-0.145 0.207-0.266 0.499-0.568 0.474-0.99 0.032-1.983-0.003-2.975 0.014 0.232-0.188 0.465-0.372 0.695-0.563-0.441 0.022-0.891-0.028-1.326 0.059z"></path>
<path fill="#202621" d="M11.204 2.303c0.241-0.466 0.806-0.462 1.259-0.494 0.633 0.695 0.981 1.581 1.498 2.356 1.412 2.571 2.978 5.055 4.388 7.629 1.596 2.89 3.263 5.739 4.89 8.612 0.408 0.636-0.145 1.552-0.898 1.477-6.619 0.051-13.237 0.092-19.857 0.102-0.505-0.017-1.098 0.113-1.509-0.262-0.383-0.33-0.388-0.934-0.12-1.335 1.301-2.291 2.589-4.588 3.909-6.866 2.083-3.775 4.261-7.499 6.44-11.219M12.039 4.451c-1 1.811-2.077 3.577-3.106 5.368-2.025 3.426-3.926 6.923-5.926 10.364 5.996 0.004 11.992-0.062 17.988-0.080-1.183-2.063-2.324-4.152-3.501-6.218-1.821-3.143-3.661-6.276-5.455-9.434z"></path>
<path fill="#202621" d="M7.966 14.935c0.434-0.087 0.884-0.037 1.326-0.059-0.23 0.19-0.463 0.375-0.695 0.563 0.992-0.017 1.985 0.018 2.975-0.014 0.302 0.025 0.423-0.268 0.568-0.474 0.313-0.007 0.625-0.011 0.937-0.011-0.004 0.119-0.011 0.357-0.015 0.477 0.877 0.010 1.754 0.004 2.632-0.011 0.001 0.237 0.006 0.474 0.010 0.712-0.881 0.030-1.763 0.012-2.644 0.026 0.079 0.429-0.217 1.131 0.328 1.316 1.028 0.074 2.061-0.003 3.091 0.006-0.222-0.179-0.446-0.357-0.665-0.539 0.418 0.008 0.837-0.018 1.254 0.029 0.502 0.232 0.931 0.599 1.408 0.879-0.463 0.29-0.886 0.652-1.383 0.88-0.421 0.055-0.847 0.025-1.27 0.037 0.237-0.192 0.476-0.381 0.713-0.572-1.161 0.028-2.323 0.028-3.484 0.036 0.006 0.103 0.017 0.309 0.022 0.412-0.341 0.007-0.681 0.014-1.021 0.021 0.003-0.105 0.008-0.316 0.011-0.422-0.876 0.006-1.752-0.004-2.626-0.001-0.007-0.228-0.015-0.454-0.023-0.681 0.888-0.028 1.778 0 2.666-0.021 0.001-0.457 0.004-0.914-0.001-1.372-1.156 0.014-2.313-0.014-3.469 0.025 0.225 0.171 0.451 0.342 0.674 0.517-0.422 0.001-0.847 0.036-1.266-0.012-0.508-0.228-0.937-0.6-1.411-0.887 0.459-0.276 0.883-0.612 1.36-0.857z"></path>
</svg>
