<?xml version="1.0" encoding="utf-8"?>
<!-- Generated by IcoMoon.io -->
<!DOCTYPE svg PUBLIC "-//W3C//DTD SVG 1.1//EN" "http://www.w3.org/Graphics/SVG/1.1/DTD/svg11.dtd">
<svg version="1.1" xmlns="http://www.w3.org/2000/svg" xmlns:xlink="http://www.w3.org/1999/xlink" width="24" height="24" viewBox="0 0 24 24">
<path fill="#ffdb00" d="M11.818 0h0.331c0.289 0.052 0.553 0.199 0.755 0.413 3.576 3.586 7.165 7.159 10.739 10.747 0.482 0.467 0.425 1.303-0.072 1.739-3.458 3.461-6.92 6.917-10.376 10.38-0.304 0.304-0.626 0.672-1.090 0.692-0.374 0.047-0.745-0.113-1.001-0.382-3.524-3.52-7.043-7.046-10.57-10.565-0.253-0.228-0.464-0.511-0.534-0.852v-0.336c0.054-0.48 0.446-0.792 0.763-1.111 3.322-3.319 6.642-6.64 9.962-9.961 0.316-0.313 0.623-0.696 1.092-0.764M11.563 0.42c-0.214 0.137-0.382 0.331-0.562 0.508-3.458 3.46-6.918 6.917-10.375 10.376-0.439 0.346-0.442 1.045-0.008 1.396 3.562 3.562 7.122 7.123 10.685 10.684 0.289 0.332 0.833 0.442 1.187 0.151 0.307-0.256 0.57-0.557 0.858-0.834 3.34-3.34 6.68-6.679 10.019-10.021 0.246-0.226 0.402-0.592 0.281-0.92-0.107-0.338-0.419-0.545-0.648-0.796-3.462-3.458-6.918-6.924-10.384-10.38-0.259-0.287-0.722-0.374-1.052-0.163z"></path>
<path fill="#ffdb00" d="M11.807 0.782c0.168-0.067 0.382-0.037 0.499 0.109 3.582 3.575 7.156 7.158 10.738 10.733 0.216 0.157 0.277 0.505 0.052 0.68-3.512 3.523-7.038 7.036-10.552 10.558-0.192 0.252-0.57 0.558-0.853 0.246-3.605-3.595-7.204-7.198-10.802-10.799-0.19-0.152-0.19-0.474-0.008-0.631 3.578-3.584 7.163-7.16 10.741-10.745 0.047-0.037 0.139-0.113 0.186-0.151M9.071 8.106c-0.497 0.671-1.002 1.334-1.494 2.008-0.056 0.090-0.132 0.158-0.227 0.205-0.23-0.377-0.42-0.788-0.727-1.111-0.194-0.176-0.454-0.119-0.668-0.018-0.056 0.128-0.132 0.257-0.131 0.402-0.124 1.801-0.302 3.598-0.394 5.401 1.615-0.481 3.214-1.020 4.82-1.528 0.392-0.136 0.248-0.582 0.24-0.894-0.401-0.23-0.835-0.397-1.264-0.572 0.060-0.265 0.258-0.458 0.41-0.672 0.51-0.697 1.032-1.387 1.538-2.088 0.124-0.125 0.074-0.334-0.062-0.426-0.496-0.454-1.018-0.878-1.526-1.319-0.223 0.156-0.354 0.4-0.516 0.612M13.918 7.919c-0.361 0.388-0.829 0.664-1.165 1.075 0 0.336 0.32 0.551 0.476 0.822 0.504 0.737 1.111 1.41 1.548 2.186-0.404 0.205-0.853 0.332-1.228 0.592-0.082 0.283-0.185 0.755 0.178 0.886 1.421 0.48 2.855 0.923 4.276 1.404 0.179 0.064 0.368 0.086 0.557 0.108-0.11-1.802-0.259-3.601-0.383-5.401 0.004-0.145-0.080-0.266-0.143-0.39-0.137-0.041-0.272-0.083-0.408-0.127-0.497 0.241-0.698 0.8-0.974 1.242-0.031-0.017-0.095-0.050-0.126-0.067-0.682-0.883-1.318-1.802-2.017-2.671-0.266-0.064-0.414 0.197-0.59 0.342z"></path>
<path fill="#000" d="M11.563 0.42c0.33-0.211 0.793-0.124 1.052 0.163 3.466 3.456 6.922 6.922 10.384 10.38 0.229 0.251 0.541 0.457 0.648 0.796 0.121 0.329-0.035 0.695-0.281 0.92-3.338 3.342-6.679 6.682-10.019 10.021-0.288 0.277-0.551 0.578-0.858 0.834-0.354 0.29-0.898 0.181-1.187-0.151-3.563-3.56-7.123-7.122-10.685-10.684-0.433-0.35-0.431-1.050 0.008-1.396 3.457-3.46 6.917-6.917 10.375-10.376 0.18-0.176 0.348-0.371 0.562-0.508M11.807 0.782c-0.047 0.038-0.139 0.114-0.186 0.151-3.578 3.584-7.163 7.16-10.741 10.745-0.181 0.157-0.181 0.479 0.008 0.631 3.599 3.601 7.198 7.204 10.802 10.799 0.283 0.312 0.661 0.006 0.853-0.246 3.514-3.522 7.039-7.034 10.552-10.558 0.226-0.175 0.164-0.523-0.052-0.68-3.582-3.575-7.156-7.158-10.738-10.733-0.118-0.146-0.331-0.176-0.499-0.109z"></path>
<path fill="#000" d="M9.071 8.106c0.162-0.212 0.293-0.456 0.516-0.612 0.509 0.44 1.031 0.865 1.526 1.319 0.137 0.092 0.186 0.301 0.062 0.426-0.506 0.701-1.028 1.391-1.538 2.088-0.152 0.214-0.35 0.407-0.41 0.672 0.428 0.175 0.863 0.342 1.264 0.572 0.008 0.312 0.152 0.758-0.24 0.894-1.607 0.508-3.205 1.046-4.82 1.528 0.091-1.804 0.27-3.6 0.394-5.401-0.001-0.145 0.074-0.274 0.131-0.402 0.215-0.101 0.474-0.158 0.668 0.018 0.307 0.323 0.497 0.734 0.727 1.111 0.095-0.047 0.17-0.115 0.227-0.205 0.492-0.673 0.997-1.337 1.494-2.008z"></path>
<path fill="#000" d="M13.918 7.919c0.176-0.145 0.324-0.406 0.59-0.342 0.7 0.869 1.336 1.788 2.017 2.671 0.031 0.017 0.095 0.050 0.126 0.067 0.276-0.442 0.478-1.001 0.974-1.242 0.136 0.044 0.271 0.086 0.408 0.127 0.062 0.124 0.146 0.245 0.143 0.39 0.124 1.8 0.272 3.599 0.383 5.401-0.188-0.022-0.378-0.044-0.557-0.108-1.421-0.481-2.855-0.924-4.276-1.404-0.362-0.131-0.259-0.602-0.178-0.886 0.374-0.259 0.823-0.386 1.228-0.592-0.437-0.776-1.044-1.45-1.548-2.186-0.156-0.271-0.476-0.486-0.476-0.822 0.336-0.412 0.804-0.688 1.165-1.075z"></path>
</svg>
