<?xml version="1.0" encoding="utf-8"?>
<!-- Generated by IcoMoon.io -->
<!DOCTYPE svg PUBLIC "-//W3C//DTD SVG 1.1//EN" "http://www.w3.org/Graphics/SVG/1.1/DTD/svg11.dtd">
<svg version="1.1" xmlns="http://www.w3.org/2000/svg" xmlns:xlink="http://www.w3.org/1999/xlink" width="24" height="24" viewBox="0 0 24 24">
<path fill="#000" d="M11.573 0.539c0.356-0.258 0.853-0.113 1.126 0.2 3.542 3.538 7.081 7.080 10.622 10.619 0.295 0.254 0.376 0.683 0.235 1.038-0.186 0.288-0.457 0.506-0.692 0.752-3.404 3.396-6.803 6.8-10.204 10.2-0.248 0.306-0.695 0.341-1.042 0.206-0.31-0.208-0.546-0.499-0.811-0.756-3.283-3.278-6.557-6.564-9.845-9.838-0.258-0.263-0.604-0.544-0.566-0.954-0.025-0.318 0.22-0.548 0.42-0.757 3.326-3.312 6.641-6.636 9.961-9.954 0.262-0.256 0.503-0.536 0.796-0.757M11.617 1.049c-2.773 2.789-5.576 5.546-8.341 8.342-0.839 0.863-1.744 1.666-2.521 2.585 0.082 0.148 0.143 0.312 0.26 0.436 3.527 3.52 7.050 7.044 10.572 10.57 0.149 0.155 0.328 0.299 0.558 0.233 0.289-0.197 0.512-0.47 0.762-0.712 3.36-3.358 6.716-6.72 10.080-10.074 0.15-0.146 0.299-0.324 0.208-0.548-0.233-0.335-0.553-0.594-0.835-0.886-3.115-3.125-6.239-6.241-9.361-9.359-0.25-0.241-0.475-0.51-0.75-0.726-0.211-0.118-0.484-0.048-0.631 0.139z"></path>
<path fill="#000" d="M11.964 8.471c1.4 0.174 2.809 0.271 4.21 0.444-0.082 0.934-0.182 1.866-0.281 2.8 0.157 0.006 0.316 0.013 0.474 0.019 0.305-0.448 0.907-0.742 1.429-0.493 0.526 0.181 0.755 0.763 0.726 1.283-0.074-0.001-0.223-0.004-0.299-0.005 0.078-0.512-0.275-1.102-0.836-1.078-0.509-0.040-0.828 0.44-0.901 0.889-1.535-0.136-3.066-0.316-4.602-0.448-0.198-0.035-0.413-0.030-0.596-0.12-0.151-0.168-0.239-0.401-0.433-0.526-0.245-0.068-0.505-0.036-0.757-0.047 0.052 0.227 0.112 0.451 0.169 0.677-0.377 0.031-0.44-0.41-0.746-0.516-0.326-0.103-0.736-0.067-0.956 0.223-0.222 0.212-0.226 0.53-0.218 0.816-0.142 0.043-0.283 0.088-0.425 0.132-0.194-0.292-0.458-0.62-0.85-0.59-0.568-0.020-0.935 0.584-0.853 1.105-0.198 0.030-0.514 0.278-0.614-0.019-0.173-0.329-0.353-0.656-0.488-1.003-0.032-0.68-0.010-1.363-0.002-2.045 0.794-0.202 1.568-0.478 2.357-0.702 0.2 0.67 0.425 1.332 0.611 2.005 0.505-0.14 1.032-0.241 1.493-0.504 0.654-0.005 1.474-0.164 1.902 0.472 0.052 0.011 0.155 0.032 0.206 0.043 0.109-0.936 0.188-1.876 0.283-2.813M5.546 10.43c-0.011 0.499-0.010 0.998-0.004 1.498 0.655-0.211 1.315-0.407 1.973-0.613-0.144-0.445-0.28-0.892-0.418-1.338-0.52 0.143-1.031 0.317-1.552 0.454z"></path>
<path fill="#000" d="M8.79 11.551c0.318-0.218 0.832-0.127 1.009 0.234 0.308 0.451-0.136 1.142-0.679 1.031-0.641 0.004-0.872-0.942-0.33-1.265M9.052 12.252c0.143 0.204 0.414-0.070 0.272-0.241-0.137-0.214-0.415 0.072-0.272 0.241z"></path>
<path fill="#000" d="M17.046 11.659c0.416-0.248 1.038 0.085 1.027 0.581 0.066 0.511-0.574 0.947-1.019 0.668-0.275-0.113-0.337-0.43-0.436-0.676 0.113-0.21 0.206-0.454 0.427-0.574M17.248 12.162c-0.001 0.061-0.002 0.184-0.004 0.244 0.060 0.001 0.181 0.002 0.242 0.004 0.004-0.059 0.012-0.178 0.016-0.236-0.064-0.002-0.191-0.008-0.254-0.011z"></path>
<path fill="#000" d="M6.745 12.162c0.45-0.293 1.111 0.151 1.022 0.679-0.005 0.49-0.622 0.822-1.033 0.554-0.479-0.22-0.474-1.021 0.011-1.234M7.019 12.628c-0.23 0.050-0.092 0.392 0.112 0.306 0.23-0.050 0.092-0.392-0.112-0.306z"></path>
<path fill="#000" d="M9.122 13.726c1.29-1.139 3.113-1.658 4.804-1.309 1.002 0.176 1.918 0.673 2.698 1.315 0.81-0.006 1.62-0.001 2.43-0.004 0 0.068 0.001 0.204 0.001 0.271-4.699 0-9.397 0.001-14.095 0-0.001-0.068-0.001-0.203-0.002-0.27 1.388-0.002 2.777 0.004 4.165-0.004z"></path>
<path fill="#ffef00" d="M11.617 1.049c0.148-0.187 0.42-0.257 0.631-0.139 0.275 0.216 0.5 0.485 0.75 0.726 3.122 3.118 6.246 6.234 9.361 9.359 0.282 0.292 0.602 0.551 0.835 0.886 0.091 0.224-0.058 0.402-0.208 0.548-3.364 3.354-6.72 6.716-10.080 10.074-0.25 0.241-0.473 0.515-0.762 0.712-0.23 0.066-0.409-0.078-0.558-0.233-3.522-3.526-7.045-7.050-10.572-10.57-0.118-0.124-0.179-0.288-0.26-0.436 0.778-0.919 1.682-1.722 2.521-2.585 2.765-2.796 5.568-5.554 8.341-8.342M11.964 8.471c-0.095 0.937-0.174 1.877-0.283 2.813-0.052-0.011-0.155-0.032-0.206-0.043-0.428-0.636-1.248-0.476-1.902-0.472-0.461 0.263-0.988 0.364-1.493 0.504-0.186-0.673-0.41-1.336-0.611-2.005-0.788 0.224-1.562 0.5-2.357 0.702-0.007 0.682-0.030 1.364 0.002 2.045 0.136 0.347 0.316 0.674 0.488 1.003 0.101 0.298 0.416 0.049 0.614 0.019-0.082-0.521 0.286-1.126 0.853-1.105 0.391-0.030 0.655 0.299 0.85 0.59 0.142-0.044 0.283-0.089 0.425-0.132-0.007-0.286-0.004-0.604 0.218-0.816 0.221-0.29 0.63-0.326 0.956-0.223 0.306 0.106 0.37 0.547 0.746 0.516-0.058-0.226-0.118-0.45-0.169-0.677 0.252 0.011 0.512-0.022 0.757 0.047 0.194 0.125 0.282 0.358 0.433 0.526 0.184 0.090 0.398 0.085 0.596 0.12 1.536 0.132 3.067 0.312 4.602 0.448 0.073-0.449 0.392-0.929 0.901-0.889 0.562-0.024 0.914 0.565 0.836 1.078 0.076 0.001 0.224 0.004 0.299 0.005 0.029-0.52-0.2-1.102-0.726-1.283-0.522-0.248-1.124 0.046-1.429 0.493-0.158-0.006-0.317-0.013-0.474-0.019 0.098-0.934 0.199-1.866 0.281-2.8-1.4-0.173-2.809-0.27-4.21-0.444M8.79 11.551c-0.542 0.323-0.311 1.268 0.33 1.265 0.544 0.112 0.988-0.58 0.679-1.031-0.178-0.361-0.691-0.452-1.009-0.234M17.046 11.659c-0.221 0.12-0.314 0.364-0.427 0.574 0.098 0.246 0.161 0.563 0.436 0.676 0.445 0.278 1.085-0.157 1.019-0.668 0.011-0.496-0.611-0.829-1.027-0.581M6.745 12.162c-0.485 0.212-0.49 1.014-0.011 1.234 0.412 0.268 1.028-0.065 1.033-0.554 0.089-0.528-0.572-0.972-1.022-0.679M9.122 13.726c-1.388 0.007-2.777 0.001-4.165 0.004 0.001 0.067 0.001 0.202 0.002 0.27 4.698 0.001 9.396 0 14.095 0 0-0.067-0.001-0.203-0.001-0.271-0.81 0.002-1.62-0.002-2.43 0.004-0.78-0.642-1.696-1.139-2.698-1.315-1.691-0.349-3.514 0.17-4.804 1.309z"></path>
<path fill="#ffef00" d="M5.546 10.43c0.521-0.137 1.032-0.311 1.552-0.454 0.138 0.446 0.274 0.893 0.418 1.338-0.658 0.206-1.318 0.402-1.973 0.613-0.006-0.499-0.007-0.998 0.004-1.498z"></path>
<path fill="#ffef00" d="M9.052 12.252c-0.143-0.169 0.136-0.455 0.272-0.241 0.142 0.172-0.13 0.445-0.272 0.241z"></path>
<path fill="#ffef00" d="M17.248 12.162c0.064 0.002 0.191 0.008 0.254 0.011-0.004 0.059-0.012 0.178-0.016 0.236-0.061-0.001-0.182-0.002-0.242-0.004 0.001-0.060 0.002-0.182 0.004-0.244z"></path>
<path fill="#ffef00" d="M7.019 12.628c0.204-0.086 0.342 0.256 0.112 0.306-0.204 0.086-0.342-0.256-0.112-0.306z"></path>
</svg>
