<svg xmlns="http://www.w3.org/2000/svg" width="24" height="24">
    <path fill="#fecf33" d="M11.734 0h.498c.275.104.532.257.736.469 3.518 3.524 7.04 7.045 10.562 10.566.2.199.352.443.47.698v.488c-.162.514-.598.848-.96 1.218l-9.599 9.601c-.358.358-.692.763-1.174.959h-.503c-.245-.1-.481-.227-.666-.416C7.54 20.019 3.978 16.459.417 12.899a2.194 2.194 0 0 1-.418-.635v-.502c.17-.505.592-.846.953-1.211 3.181-3.179 6.36-6.36 9.54-9.54.38-.374.728-.812 1.241-1.013zm-.059.407c-.221.072-.389.24-.553.394C7.643 4.283 4.16 7.762.686 11.248c-.431.386-.433 1.12.002 1.501 3.523 3.52 7.04 7.045 10.562 10.565.384.433 1.116.432 1.5 0 3.518-3.524 7.04-7.045 10.562-10.565.434-.383.431-1.115.002-1.5C19.82 7.743 16.313 4.247 12.816.743c-.282-.314-.732-.481-1.142-.336z"/>
    <path fill="#fecf33" d="M11.922.892c.269-.044.497.134.673.313 3.416 3.424 6.842 6.839 10.258 10.262.298.246.36.73.054.997-3.454 3.467-6.922 6.92-10.378 10.385-.239.306-.731.362-.995.059-3.482-3.479-6.966-6.959-10.441-10.444-.308-.266-.245-.752.055-.998 3.415-3.424 6.84-6.838 10.256-10.261.146-.138.306-.294.517-.313zm-1.387 2.622c-.002 5.652-.008 11.305.006 16.958.98-.007 1.961.016 2.941-.013a402.291 402.291 0 0 1-.001-3.474c1.36-.005 2.719.004 4.079-.004.005-.98.004-1.96 0-2.939-1.361-.007-2.722.004-4.082-.006.001-1.36-.004-2.72.001-4.08 1.361-.012 2.72.001 4.081-.006.006-.978 0-1.956.004-2.934a152.483 152.483 0 0 0-4.058.005c-.07-1.168-.005-2.339-.032-3.509-.979-.001-1.958-.002-2.938.001z"/>
    <path d="M11.675.407c.41-.145.86.022 1.142.336 3.497 3.504 7.003 7 10.498 10.506.428.385.432 1.117-.002 1.5-3.522 3.52-7.044 7.04-10.562 10.565-.384.432-1.116.433-1.5 0-3.522-3.52-7.039-7.045-10.562-10.565-.436-.382-.433-1.115-.002-1.501C4.161 7.762 7.645 4.283 11.123.801c.164-.154.332-.322.553-.394zm.247.485c-.211.019-.371.175-.517.313C7.989 4.629 4.564 8.043 1.149 11.466c-.3.246-.364.732-.055.998 3.475 3.485 6.959 6.965 10.441 10.444.264.304.756.247.995-.059 3.456-3.464 6.924-6.918 10.378-10.385.306-.268.244-.751-.054-.997-3.415-3.424-6.841-6.839-10.258-10.262-.176-.179-.404-.358-.673-.313z"/>
    <path d="M10.535 3.514c.979-.004 1.958-.002 2.938-.001.028 1.17-.037 2.341.032 3.509 1.352-.024 2.706-.017 4.058-.005-.004.978.002 1.956-.004 2.934-1.361.007-2.72-.006-4.081.006-.005 1.36 0 2.72-.001 4.08 1.361.01 2.722-.001 4.082.006.004.979.005 1.958 0 2.939-1.36.007-2.719-.001-4.079.004-.005 1.158-.004 2.316.001 3.474-.98.029-1.961.006-2.941.013-.014-5.653-.008-11.306-.006-16.958z"/>
</svg>
