<?xml version="1.0" encoding="utf-8"?>
<!-- Generated by IcoMoon.io -->
<!DOCTYPE svg PUBLIC "-//W3C//DTD SVG 1.1//EN" "http://www.w3.org/Graphics/SVG/1.1/DTD/svg11.dtd">
<svg version="1.1" xmlns="http://www.w3.org/2000/svg" xmlns:xlink="http://www.w3.org/1999/xlink" width="24" height="24" viewBox="0 0 24 24">
<path fill="#c0111e" d="M9.953 2.823c0.454-0.851 1.476-1.333 2.421-1.168 0.733 0.102 1.369 0.611 1.721 1.25 2.979 4.957 5.91 9.942 8.819 14.939 0.411 0.754 0.949 1.468 1.085 2.338v0.467c-0.096 0.57-0.36 1.109-0.764 1.526-0.323 0.268-0.764 0.28-1.155 0.375h-20.178c-0.385-0.096-0.82-0.109-1.138-0.375-0.405-0.414-0.667-0.955-0.765-1.524v-0.462c0.125-0.841 0.637-1.535 1.036-2.262 2.941-5.053 5.902-10.095 8.917-15.104M2.289 20.367c6.473 0.004 12.948 0.004 19.422 0-3.227-5.498-6.459-10.993-9.711-16.474-3.253 5.482-6.485 10.975-9.711 16.474z"></path>
<path fill="#fff" d="M2.289 20.367c3.225-5.499 6.458-10.993 9.711-16.474 3.252 5.482 6.484 10.977 9.711 16.474-6.473 0.004-12.948 0.004-19.422 0M10.514 8.122c-0.001 3.721-0.001 7.441 0 11.163 0.965 0.001 1.929 0 2.895 0 0.001-1.332 0.005-2.665-0.003-3.998 0.845 0.86 1.706 1.704 2.554 2.561 0.679-0.684 1.365-1.364 2.044-2.049-1.514-1.54-3.062-3.045-4.569-4.592-0.063-1.026 0-2.058-0.032-3.088-0.963 0.007-1.925 0-2.889 0.004z"></path>
<path fill="#030303" d="M10.514 8.122c0.964-0.004 1.927 0.003 2.889-0.004 0.032 1.030-0.032 2.062 0.032 3.088 1.507 1.547 3.055 3.051 4.569 4.592-0.679 0.686-1.365 1.365-2.044 2.049-0.848-0.857-1.709-1.701-2.554-2.561 0.008 1.333 0.004 2.666 0.003 3.998-0.965 0-1.929 0.001-2.895 0-0.001-3.721-0.001-7.441 0-11.163z"></path>
</svg>
