<!-- Generated by IcoMoon.io -->
<svg version="1.1" xmlns="http://www.w3.org/2000/svg" width="27" height="24" viewBox="0 0 27 24">
<title>warning--wild-animals--g7</title>
<path fill="#ffd90f" d="M13.227 0.235c0.518-0.136 1.053 0.178 1.295 0.633 4.086 7.080 8.18 14.156 12.262 21.239 0.469 0.705-0.13 1.749-0.976 1.686-8.205 0-16.411 0.002-24.616-0.001-0.527 0.026-1.038-0.363-1.119-0.89-0.112-0.539 0.257-0.992 0.501-1.434 3.894-6.74 7.789-13.48 11.678-20.223 0.23-0.408 0.474-0.899 0.975-1.010M13.338 0.538c-0.482 0.109-0.658 0.63-0.894 1.003-3.828 6.64-7.666 13.275-11.501 19.912-0.214 0.403-0.533 0.779-0.58 1.247-0.008 0.485 0.471 0.832 0.931 0.781 8.171-0.005 16.343 0.005 24.514-0.005 0.502 0.036 0.939-0.485 0.796-0.971-0.13-0.402-0.387-0.745-0.59-1.112-3.92-6.784-7.841-13.568-11.759-20.353-0.172-0.33-0.528-0.604-0.917-0.502z"></path>
<path fill="#ffd90f" d="M3.361 21.414c3.367-5.858 6.747-11.708 10.134-17.555 3.389 5.846 6.77 11.698 10.138 17.556-6.757 0.008-13.515 0.010-20.272-0.001M9.956 11.064c0.194 0.282 0.424 0.538 0.597 0.834-0.188-0.051-0.375-0.106-0.561-0.161-0.019 0.030-0.057 0.091-0.076 0.122 0.575 0.283 1.065 0.741 1.246 1.373-0.255-0.116-0.507-0.24-0.772-0.332 0.254 0.387 1.080 0.525 0.721 1.102-0.195-0.042-0.389-0.089-0.583-0.136 0.017 0.057 0.051 0.171 0.068 0.228-0.068-0.004-0.206-0.012-0.275-0.016-0.039 0.149-0.079 0.298-0.119 0.447 0.249-0.063 0.495-0.135 0.743-0.201-0.435 0.516-1.374 0.533-1.508 1.272 0.531 0.162 1.092 0.023 1.627 0.143 0.285 0.653 0.182 1.659 1.084 1.835-0.364 0.582-0.923 1.009-1.268 1.606-0.254 0.424-0.704 0.639-1.137 0.833 0.335 0.096 0.693 0.082 1.008-0.074 0.431-1.025 1.502-1.531 2.237-2.307-0.118 0.409-0.633 0.689-0.564 1.134 0.497 0.269 1.077 0.339 1.618 0.492 0.276 0.102 0.509-0.111 0.725-0.249-0.637-0.239-1.355 0.036-1.938-0.385 0.356-0.297 0.678-0.632 0.991-0.973 0.809-0.050 1.587-0.306 2.394-0.37 0.186 0.42 0.519 0.835 0.489 1.31-0.346 0.659-0.927 1.167-1.574 1.523 0.344 0.058 0.82 0.133 0.995-0.262 0.259-0.56 0.761-0.935 1.215-1.328-0.156-0.366-0.247-0.756-0.213-1.155 0.455 0.137 0.901 0.309 1.377 0.36 1.075 0.109 0.667 1.837 1.772 1.963-0.083-0.19-0.173-0.376-0.278-0.555-0.008-0.023-0.024-0.068-0.032-0.091-0.52-0.336-0.552-1.008-0.638-1.559-0.356-0.137-0.881-0.171-0.993-0.613-0.069-0.431-0.030-0.873-0.089-1.306 0.13 0.069 0.261 0.138 0.393 0.206-0.090-0.307-0.319-0.523-0.633-0.581-0.82-0.359-1.718-0.128-2.568-0.044-0.709 0.12-1.427-0.007-2.139 0.071-0.57 0.066-1.004-0.365-1.489-0.583 0.041-0.074 0.083-0.148 0.125-0.222-0.202-0.004-0.405-0.009-0.607-0.021 0.625-0.378 1.554-0.229 1.932-0.973-0.286 0.142-0.554 0.315-0.83 0.473 0.211-0.329 0.466-0.679 0.366-1.095-0.108-0.508 0.294-0.95 0.177-1.461-0.112 0.26-0.19 0.532-0.279 0.8-0.324-0.296-0.511-0.687-0.616-1.108-0.024 0.086-0.071 0.257-0.095 0.343-0.157-0.054-0.315-0.104-0.473-0.149 0.395 0.413 0.903 0.729 1.16 1.261-0.202-0.040-0.403-0.083-0.606-0.121 0.27 0.222 0.732 0.419 0.59 0.853-0.061 0.46-0.551 0.157-0.823 0.109 0.118 0.138 0.237 0.275 0.351 0.417-0.296 0.24-0.658 0.364-1.028 0.434 0.238-0.544 0.783-0.918 0.887-1.521-0.236 0.245-0.434 0.522-0.64 0.792-0.11-0.311-0.231-0.619-0.357-0.924 0.108-0.244 0.208-0.496 0.218-0.766-0.128 0.192-0.241 0.394-0.356 0.594-0.279-0.453-0.399-1.074-0.949-1.288z"></path>
<path fill="#ff163c" d="M13.338 0.538c0.389-0.102 0.745 0.172 0.917 0.502 3.918 6.785 7.839 13.569 11.759 20.353 0.203 0.367 0.46 0.71 0.59 1.112 0.143 0.486-0.294 1.007-0.796 0.971-8.171 0.010-16.343 0-24.514 0.005-0.46 0.051-0.939-0.296-0.931-0.781 0.047-0.468 0.366-0.844 0.58-1.247 3.835-6.637 7.673-13.272 11.501-19.912 0.236-0.373 0.412-0.894 0.894-1.003M3.361 21.414c6.757 0.011 13.515 0.009 20.272 0.001-3.368-5.858-6.749-11.71-10.138-17.556-3.387 5.847-6.767 11.697-10.134 17.555z"></path>
<path fill="#000" d="M9.956 11.064c0.55 0.214 0.67 0.835 0.949 1.288 0.115-0.2 0.228-0.402 0.356-0.594-0.010 0.27-0.11 0.522-0.218 0.766 0.126 0.305 0.247 0.613 0.357 0.924 0.206-0.27 0.404-0.547 0.64-0.792-0.104 0.603-0.649 0.977-0.887 1.521 0.37-0.070 0.732-0.194 1.028-0.434-0.114-0.142-0.233-0.279-0.351-0.417 0.272 0.048 0.762 0.351 0.823-0.109 0.142-0.434-0.32-0.631-0.59-0.853 0.203 0.038 0.404 0.081 0.606 0.121-0.257-0.532-0.765-0.848-1.16-1.261 0.158 0.045 0.316 0.095 0.473 0.149 0.024-0.086 0.071-0.257 0.095-0.343 0.105 0.421 0.292 0.812 0.616 1.108 0.089-0.268 0.167-0.54 0.279-0.8 0.117 0.511-0.285 0.953-0.177 1.461 0.1 0.416-0.155 0.766-0.366 1.095 0.276-0.158 0.544-0.331 0.83-0.473-0.378 0.744-1.307 0.595-1.932 0.973 0.202 0.012 0.405 0.017 0.607 0.021-0.042 0.074-0.084 0.148-0.125 0.222 0.485 0.218 0.919 0.649 1.489 0.583 0.712-0.078 1.43 0.049 2.139-0.071 0.85-0.084 1.748-0.315 2.568 0.044 0.314 0.058 0.543 0.274 0.633 0.581-0.132-0.068-0.263-0.137-0.393-0.206 0.059 0.433 0.020 0.875 0.089 1.306 0.112 0.442 0.637 0.476 0.993 0.613 0.086 0.551 0.118 1.223 0.638 1.559 0.008 0.023 0.024 0.068 0.032 0.091 0.105 0.179 0.195 0.365 0.278 0.555-1.105-0.126-0.697-1.854-1.772-1.963-0.476-0.051-0.922-0.223-1.377-0.36-0.034 0.399 0.057 0.789 0.213 1.155-0.454 0.393-0.956 0.768-1.215 1.328-0.175 0.395-0.651 0.32-0.995 0.262 0.647-0.356 1.228-0.864 1.574-1.523 0.030-0.475-0.303-0.89-0.489-1.31-0.807 0.064-1.585 0.32-2.394 0.37-0.313 0.341-0.635 0.676-0.991 0.973 0.583 0.421 1.301 0.146 1.938 0.385-0.216 0.138-0.449 0.351-0.725 0.249-0.541-0.153-1.121-0.223-1.618-0.492-0.069-0.445 0.446-0.725 0.564-1.134-0.735 0.776-1.806 1.282-2.237 2.307-0.315 0.156-0.673 0.17-1.008 0.074 0.433-0.194 0.883-0.409 1.137-0.833 0.345-0.597 0.904-1.024 1.268-1.606-0.902-0.176-0.799-1.182-1.084-1.835-0.535-0.12-1.096 0.019-1.627-0.143 0.134-0.739 1.073-0.756 1.508-1.272-0.248 0.066-0.494 0.138-0.743 0.201 0.040-0.149 0.080-0.298 0.119-0.447 0.069 0.004 0.207 0.012 0.275 0.016-0.017-0.057-0.051-0.171-0.068-0.228 0.194 0.047 0.388 0.094 0.583 0.136 0.359-0.577-0.467-0.715-0.721-1.102 0.265 0.092 0.517 0.216 0.772 0.332-0.181-0.632-0.671-1.090-1.246-1.373 0.019-0.031 0.057-0.092 0.076-0.122 0.186 0.055 0.373 0.11 0.561 0.161-0.173-0.296-0.403-0.552-0.597-0.834z"></path>
</svg>
