<!-- Generated by IcoMoon.io -->
<svg version="1.1" xmlns="http://www.w3.org/2000/svg" width="24" height="24" viewBox="0 0 24 24">
<title>warning--shared-lane-motorcycles-bicycles--g1</title>
<path fill="#ffd520" d="M11.862 0h0.297c0.202 0.054 0.395 0.148 0.54 0.302 3.675 3.675 7.347 7.353 11.022 11.027 0.123 0.12 0.216 0.267 0.279 0.426v0.52c-0.099 0.299-0.352 0.495-0.563 0.711-3.591 3.592-7.185 7.183-10.775 10.777-0.107 0.109-0.243 0.18-0.384 0.236h-0.525c-0.261-0.080-0.442-0.29-0.625-0.477-3.617-3.617-7.233-7.234-10.85-10.851-0.141-0.136-0.225-0.318-0.278-0.504v-0.291c0.051-0.199 0.142-0.39 0.293-0.532 3.684-3.684 7.365-7.37 11.050-11.053 0.141-0.146 0.325-0.236 0.519-0.291M11.868 0.273c-0.146 0.030-0.269 0.118-0.372 0.222-3.607 3.609-7.216 7.218-10.824 10.827-0.357 0.25-0.594 0.786-0.24 1.143 3.695 3.705 7.398 7.402 11.097 11.103 0.252 0.281 0.731 0.273 0.978-0.009 3.692-3.693 7.384-7.385 11.074-11.079 0.259-0.251 0.247-0.704-0.017-0.947-3.681-3.686-7.365-7.37-11.047-11.052-0.163-0.174-0.415-0.267-0.651-0.209z"></path>
<path fill="#ffd520" d="M11.772 0.72c0.129-0.155 0.373-0.145 0.497 0.011 3.676 3.674 7.35 7.351 11.024 11.026 0.139 0.114 0.177 0.341 0.039 0.47-3.69 3.695-7.384 7.386-11.075 11.080-0.117 0.144-0.351 0.154-0.473 0.009-3.692-3.692-7.383-7.386-11.075-11.078-0.141-0.121-0.125-0.348 0.013-0.465 1.698-1.703 3.401-3.4 5.099-5.103 0.139-0.144 0.3-0.271 0.403-0.447 0.165-0.096 0.287-0.246 0.422-0.378 1.709-1.708 3.416-3.418 5.126-5.126M16.42 7.71c0.012 0.231 0.216 0.39 0.274 0.609-0.218 0.064-0.447 0.033-0.67 0.040-0.325 0.492-0.686 0.962-0.999 1.462-0.058 0.084-0.065 0.186-0.048 0.285 0.462-0.346 0.657-0.937 1.042-1.359 0.075 0.47 0.037 0.945 0.045 1.418-0.426 0.005-0.852-0.006-1.278 0.007-0.019 0.036-0.057 0.107-0.077 0.143 0.442 0.102 0.903 0.022 1.354 0.048 0.002 0.68 0.002 1.359 0 2.040-0.015 0.203 0.008 0.457-0.206 0.567 0.294 0.009 0.587 0.004 0.881 0.006 0.001 0.426 0.002 0.852-0 1.278-2.010 0.006-4.020 0.002-6.030 0.002-0.004-0.316-0.002-0.631-0.002-0.947 0.36-0.001 0.72 0 1.079-0.001 0.001-0.142 0-0.284-0.001-0.426-0.059-0.018-0.118-0.036-0.177-0.054-0.042-0.564 0.086-1.133 0.029-1.701-0.195-0.132-0.257-0.363-0.327-0.574-0.129-0.485-0.255-0.97-0.422-1.443-1.893-0.224-3.819-0.193-5.712 0.012-0.148 0.58-0.306 1.156-0.476 1.731-0.070 0.179-0.288 0.293-0.28 0.501 0.101 0.48 0.078 0.978 0.101 1.467-0.054 0.019-0.109 0.039-0.163 0.059-0.003 0.143-0.005 0.286-0.003 0.429 0.333 0.004 0.666-0.006 0.998 0.007 0.009 0.3 0.037 0.6 0.019 0.9-0.4 0.046-0.803 0.032-1.204 0.054-0.005 0.028-0.014 0.084-0.019 0.112 0.361 0.085 0.735 0.054 1.102 0.066 4.483 0.009 8.967 0.007 13.45 0.001 0.419-0.015 0.846 0.027 1.258-0.069-0.009-0.025-0.029-0.075-0.038-0.1-0.928-0.061-1.86-0.041-2.79-0.057-0.005-0.593-0.078-1.182-0.057-1.776 0.287-0.002 0.574-0 0.861-0.007-0.049-0.072-0.132-0.136-0.123-0.232-0.011-0.614-0.003-1.228-0.005-1.843 0.449-0.027 0.911 0.057 1.35-0.048-0.010-0.035-0.030-0.105-0.039-0.141-0.437-0.018-0.874-0.005-1.311-0.009 0.005-0.476-0.015-0.953 0.016-1.428 0.327 0.411 0.591 0.867 0.902 1.288 0.032 0.067 0.105 0.066 0.168 0.072-0.024-0.28-0.228-0.492-0.37-0.72-0.243-0.339-0.471-0.689-0.725-1.020-0.216 0.004-0.432 0.008-0.646-0.028-0.003-0.229 0.257-0.347 0.255-0.576 0.039-0.289-0.24-0.519-0.506-0.532-0.222 0.072-0.444 0.247-0.48 0.489z"></path>
<path fill="#ffd520" d="M5.541 9.359c0.43-0.087 0.87-0.061 1.306-0.081 1.236-0.099 2.484-0.063 3.714 0.090 0.115 0.595 0.246 1.19 0.318 1.792-1.12-0.027-2.232 0.11-3.354 0.077-0.114-0.163-0.229-0.367-0.458-0.36-0.528-0.055-1.225-0.153-1.556 0.367-0.102-0.015-0.229 0.012-0.289-0.094 0.099-0.598 0.197-1.197 0.318-1.791z"></path>
<path fill="#ffd520" d="M16.403 10.498c0.111-0.001 0.223-0.001 0.335-0.002 0.003 0.804 0.001 1.607 0.001 2.41-0.114 0-0.227 0-0.339 0-0.002-0.803-0.010-1.607 0.004-2.409z"></path>
<path fill="#ffd520" d="M17.074 10.497c0.134-0.001 0.268-0 0.402 0 0.024 0.61-0.064 1.215-0.056 1.824-0.098 0-0.195 0-0.293 0 0-0.609-0.078-1.214-0.054-1.824z"></path>
<path fill="#ffd520" d="M6.156 13.306c1.251-0 2.502-0.001 3.753 0 0.003 0.315 0.003 0.63-0 0.945-1.25 0.006-2.501 0.002-3.75 0.002-0.004-0.316-0.002-0.631-0.002-0.947z"></path>
<path fill="#050505" d="M11.868 0.273c0.235-0.058 0.487 0.034 0.651 0.209 3.683 3.683 7.366 7.366 11.047 11.052 0.264 0.243 0.276 0.696 0.017 0.946-3.69 3.694-7.382 7.386-11.074 11.079-0.247 0.282-0.726 0.291-0.978 0.009-3.699-3.702-7.402-7.398-11.097-11.103-0.354-0.357-0.118-0.893 0.24-1.143 3.607-3.61 7.216-7.218 10.824-10.827 0.102-0.104 0.226-0.192 0.372-0.222M11.772 0.72c-1.71 1.707-3.417 3.417-5.126 5.125-0.135 0.132-0.256 0.282-0.422 0.378-0.102 0.176-0.264 0.303-0.403 0.447-1.698 1.702-3.401 3.4-5.099 5.103-0.138 0.117-0.153 0.343-0.013 0.465 3.692 3.692 7.383 7.386 11.075 11.078 0.121 0.145 0.355 0.135 0.473-0.009 3.691-3.694 7.385-7.386 11.075-11.080 0.139-0.129 0.1-0.356-0.039-0.47-3.675-3.675-7.348-7.353-11.024-11.026-0.123-0.156-0.369-0.166-0.497-0.011z"></path>
<path fill="#040404" d="M16.42 7.71c0.036-0.242 0.258-0.417 0.48-0.489 0.265 0.013 0.545 0.243 0.506 0.532 0.002 0.229-0.258 0.348-0.255 0.576 0.213 0.036 0.43 0.032 0.646 0.028 0.254 0.33 0.482 0.681 0.725 1.020 0.141 0.228 0.345 0.44 0.37 0.72-0.063-0.007-0.136-0.005-0.168-0.072-0.311-0.421-0.575-0.878-0.901-1.289-0.030 0.476-0.012 0.953-0.016 1.428 0.437 0.005 0.875-0.009 1.311 0.009 0.010 0.035 0.030 0.105 0.039 0.141-0.439 0.104-0.902 0.021-1.35 0.048 0.002 0.615-0.006 1.229 0.005 1.843-0.009 0.096 0.075 0.16 0.123 0.232-0.287 0.006-0.575 0.005-0.861 0.007-0.021 0.594 0.052 1.183 0.057 1.776 0.93 0.016 1.862-0.004 2.79 0.057 0.009 0.025 0.029 0.075 0.038 0.1-0.412 0.096-0.839 0.054-1.258 0.069-4.484 0.006-8.967 0.008-13.45-0.001-0.367-0.012-0.741 0.019-1.102-0.066 0.005-0.028 0.014-0.084 0.019-0.112 0.402-0.023 0.804-0.008 1.205-0.054 0.018-0.3-0.011-0.6-0.019-0.9-0.333-0.013-0.666-0.003-0.998-0.007-0.001-0.143 0-0.286 0.003-0.429 0.054-0.020 0.109-0.040 0.164-0.059-0.023-0.489-0-0.987-0.101-1.467-0.008-0.208 0.21-0.321 0.28-0.501 0.17-0.575 0.328-1.151 0.476-1.731 1.893-0.205 3.819-0.236 5.712-0.012 0.167 0.474 0.294 0.959 0.422 1.443 0.069 0.21 0.131 0.442 0.327 0.574 0.057 0.568-0.072 1.137-0.029 1.701 0.058 0.018 0.117 0.036 0.177 0.054 0.001 0.141 0.002 0.284 0.001 0.426-0.36 0.002-0.72-0-1.079 0.001 0 0.315-0.003 0.631 0.002 0.947 2.010 0 4.020 0.003 6.030-0.002 0.003-0.426 0.002-0.852 0-1.278-0.294-0.001-0.587 0.003-0.881-0.006 0.213-0.109 0.192-0.363 0.206-0.567 0.002-0.68 0.002-1.359 0-2.040-0.45-0.026-0.912 0.054-1.354-0.048 0.020-0.036 0.057-0.107 0.076-0.143 0.426-0.013 0.852-0.002 1.278-0.007-0.008-0.473 0.030-0.948-0.045-1.418-0.386 0.423-0.58 1.014-1.042 1.359-0.017-0.098-0.011-0.201 0.048-0.285 0.313-0.501 0.674-0.969 0.999-1.462 0.223-0.007 0.453 0.024 0.671-0.040-0.057-0.219-0.261-0.378-0.274-0.609M5.541 9.359c-0.12 0.595-0.218 1.194-0.318 1.791 0.060 0.106 0.188 0.078 0.289 0.094 0.33-0.521 1.028-0.423 1.556-0.367 0.229-0.006 0.343 0.198 0.458 0.36 1.122 0.033 2.234-0.104 3.354-0.077-0.072-0.603-0.204-1.197-0.318-1.792-1.23-0.153-2.478-0.189-3.714-0.090-0.435 0.020-0.876-0.007-1.306 0.081M16.403 10.498c-0.014 0.803-0.006 1.607-0.004 2.409 0.113 0 0.226-0 0.339-0 0-0.804 0.003-1.607-0.001-2.411-0.111 0-0.223 0-0.334 0.002M17.074 10.497c-0.025 0.61 0.054 1.215 0.054 1.824 0.097 0 0.195 0 0.293 0-0.008-0.609 0.081-1.214 0.056-1.824-0.134-0-0.268-0.001-0.402 0M6.156 13.306c0 0.315-0.003 0.631 0.002 0.947 1.25 0 2.501 0.003 3.75-0.002 0.003-0.315 0.003-0.63 0-0.945-1.251-0.001-2.502-0.001-3.753-0z"></path>
</svg>
