<?xml version="1.0" encoding="utf-8"?>
<!-- Generated by IcoMoon.io -->
<!DOCTYPE svg PUBLIC "-//W3C//DTD SVG 1.1//EN" "http://www.w3.org/Graphics/SVG/1.1/DTD/svg11.dtd">
<svg version="1.1" xmlns="http://www.w3.org/2000/svg" xmlns:xlink="http://www.w3.org/1999/xlink" width="24" height="24" viewBox="0 0 24 24">
<path fill="#fee011" d="M11.356 0.202c0.35-0.238 0.834-0.259 1.202-0.048 0.271 0.157 0.478 0.398 0.7 0.617 3.44 3.444 6.886 6.883 10.325 10.328 0.5 0.433 0.545 1.278 0.052 1.733-3.599 3.599-7.196 7.199-10.796 10.796-0.428 0.469-1.246 0.472-1.676 0.005-3.599-3.596-7.195-7.194-10.792-10.793-0.5-0.454-0.461-1.303 0.041-1.741 3.541-3.546 7.087-7.086 10.628-10.631 0.1-0.096 0.203-0.188 0.317-0.266M11.689 0.294c-0.221 0.073-0.383 0.247-0.546 0.404-3.517 3.522-7.042 7.038-10.558 10.561-0.416 0.346-0.462 1.037-0.056 1.408 3.601 3.599 7.2 7.2 10.8 10.8 0.346 0.378 0.991 0.378 1.337 0 3.617-3.624 7.242-7.24 10.859-10.864 0.347-0.378 0.276-1.009-0.107-1.334-3.559-3.563-7.121-7.124-10.684-10.684-0.256-0.29-0.676-0.422-1.045-0.292z"></path>
<path fill="#fee011" d="M11.789 0.763c0.214-0.102 0.468-0.022 0.613 0.156 3.56 3.556 7.118 7.116 10.675 10.675 0.223 0.173 0.28 0.536 0.062 0.737-3.52 3.526-7.048 7.044-10.566 10.572-0.168 0.152-0.314 0.386-0.57 0.377-0.293 0.012-0.45-0.272-0.643-0.443-3.498-3.502-7-7-10.498-10.5-0.224-0.197-0.17-0.571 0.058-0.744 3.479-3.48 6.959-6.958 10.436-10.439 0.139-0.134 0.268-0.286 0.432-0.391M9.768 5.207c-0.192 0.431-0.466 0.829-0.593 1.285 0.076 0.308 0.378 0.164 0.575 0.092-0.008 0.427 0.034 0.865-0.085 1.283-0.108 0.401-0.446 0.668-0.659 1.009-0.916 1.302-1.214 2.993-0.852 4.537-0.474-0.211-0.982-0.332-1.495-0.396 0.073-0.175 0.174-0.348 0.17-0.544-0.064-0.16-0.262-0.253-0.416-0.161-0.72 0.356-1.444 0.707-2.155 1.079-0.172 0.049-0.212 0.304-0.028 0.367 0.745 0.386 1.495 0.767 2.255 1.124 0.46 0.061 0.34-0.467 0.17-0.701 0.576 0.022 1.12 0.265 1.613 0.547 0.661 0.335 1.159 0.971 1.231 1.721 0.034 0.824 0.005 1.651 0.014 2.477 0.377 0 0.755 0.001 1.132 0 0-0.709 0-1.417 0-2.125 0.016-0.737-0.199-1.49-0.656-2.075-1.049-1.414-1.135-3.452-0.221-4.956 0.258-0.486 0.728-0.835 0.906-1.368 0.236-0.582 0.211-1.223 0.203-1.84 0.197 0.090 0.584 0.257 0.638-0.083-0.119-0.468-0.414-0.874-0.605-1.315-0.19-0.311-0.264-0.714-0.572-0.936-0.283 0.262-0.383 0.65-0.57 0.977M12.886 4.368c-0.348 0.652-0.674 1.316-0.989 1.984-0.136 0.382 0.338 0.368 0.556 0.25-0.013 0.715-0.004 1.43-0.005 2.146-1.010 0.402-1.848 1.238-2.16 2.29-0.373 1.182-0.070 2.554 0.79 3.451 0.263 0.262 0.478 0.612 0.456 0.995-0.012 1.158-0.001 2.317-0.006 3.476 0.378 0.001 0.755 0.001 1.133 0.001 0.004-1.118-0.005-2.238 0.004-3.356 0.049-0.689-0.25-1.379-0.734-1.862-0.506-0.514-0.746-1.271-0.646-1.984 0.103-0.82 0.667-1.56 1.426-1.884 0.762-0.335 1.698-0.244 2.368 0.256 0.391 0.256 0.595 0.715 1.012 0.94 0.636 0.397 1.417 0.194 2.123 0.222-0.019 0.166 0.041 0.404 0.263 0.326 0.413-0.186 0.808-0.413 1.218-0.606 0.16-0.089 0.364-0.14 0.443-0.325-0.467-0.307-0.99-0.514-1.481-0.776-0.126-0.073-0.262-0.095-0.406-0.065-0.010 0.084-0.026 0.251-0.036 0.335-0.433-0.023-0.866-0.012-1.3 0.006-0.277-0.011-0.432-0.27-0.6-0.452-0.676-0.782-1.705-1.213-2.735-1.196-0.002-0.654 0.005-1.308-0.004-1.962 0.204 0.043 0.554 0.241 0.631-0.085-0.096-0.397-0.342-0.739-0.505-1.111-0.211-0.38-0.343-0.811-0.632-1.144-0.046 0.034-0.137 0.1-0.182 0.133M13.238 10.738c-0.545 0.167-0.954 0.69-0.978 1.26-0.071 0.78 0.623 1.525 1.409 1.499 0.83 0.032 1.543-0.797 1.403-1.613-0.091-0.84-1.037-1.432-1.834-1.146z"></path>
<path fill="#000" d="M11.689 0.294c0.37-0.131 0.79 0.001 1.045 0.292 3.563 3.559 7.124 7.121 10.684 10.684 0.383 0.325 0.454 0.956 0.107 1.334-3.617 3.624-7.242 7.24-10.859 10.864-0.346 0.378-0.991 0.378-1.337 0-3.6-3.6-7.199-7.201-10.8-10.8-0.406-0.371-0.36-1.062 0.056-1.408 3.516-3.523 7.040-7.039 10.558-10.561 0.163-0.157 0.325-0.331 0.546-0.404M11.789 0.763c-0.164 0.106-0.293 0.257-0.432 0.391-3.478 3.481-6.958 6.959-10.436 10.439-0.228 0.173-0.282 0.547-0.058 0.744 3.498 3.5 7 6.998 10.498 10.5 0.193 0.17 0.35 0.455 0.643 0.443 0.256 0.010 0.402-0.224 0.57-0.377 3.518-3.528 7.046-7.046 10.566-10.572 0.217-0.2 0.161-0.564-0.062-0.737-3.557-3.559-7.115-7.12-10.675-10.675-0.145-0.178-0.4-0.258-0.613-0.156z"></path>
<path fill="#000" d="M9.768 5.207c0.187-0.326 0.287-0.715 0.57-0.977 0.308 0.222 0.383 0.625 0.572 0.936 0.191 0.442 0.486 0.847 0.605 1.315-0.054 0.34-0.442 0.173-0.638 0.083 0.008 0.617 0.034 1.258-0.203 1.84-0.178 0.533-0.648 0.882-0.906 1.368-0.914 1.504-0.828 3.542 0.221 4.956 0.457 0.584 0.672 1.338 0.656 2.075 0 0.708 0 1.416 0 2.125-0.377 0.001-0.755 0-1.132 0-0.010-0.826 0.019-1.652-0.014-2.477-0.072-0.75-0.57-1.386-1.231-1.721-0.493-0.282-1.037-0.526-1.613-0.547 0.169 0.234 0.289 0.762-0.17 0.701-0.76-0.358-1.51-0.738-2.255-1.124-0.185-0.064-0.144-0.318 0.028-0.367 0.712-0.372 1.435-0.722 2.155-1.079 0.155-0.092 0.353 0.001 0.416 0.161 0.004 0.196-0.097 0.368-0.17 0.544 0.514 0.064 1.021 0.185 1.495 0.396-0.362-1.544-0.064-3.235 0.852-4.537 0.212-0.341 0.551-0.608 0.659-1.009 0.119-0.418 0.077-0.856 0.085-1.283-0.197 0.072-0.499 0.216-0.575-0.092 0.127-0.456 0.401-0.854 0.593-1.285z"></path>
<path fill="#000" d="M12.886 4.368c0.046-0.034 0.137-0.1 0.182-0.133 0.289 0.332 0.421 0.763 0.632 1.144 0.163 0.372 0.409 0.714 0.505 1.111-0.077 0.326-0.427 0.128-0.631 0.085 0.008 0.654 0.001 1.308 0.004 1.962 1.030-0.017 2.059 0.414 2.735 1.196 0.168 0.182 0.323 0.442 0.6 0.452 0.433-0.018 0.866-0.029 1.3-0.006 0.010-0.084 0.026-0.251 0.036-0.335 0.144-0.030 0.28-0.008 0.406 0.065 0.491 0.263 1.014 0.469 1.481 0.776-0.079 0.185-0.283 0.236-0.443 0.325-0.41 0.193-0.805 0.42-1.218 0.606-0.222 0.078-0.282-0.161-0.263-0.326-0.706-0.028-1.487 0.175-2.123-0.222-0.416-0.224-0.62-0.684-1.012-0.94-0.67-0.499-1.606-0.59-2.368-0.256-0.758 0.324-1.322 1.064-1.426 1.884-0.101 0.713 0.139 1.47 0.646 1.984 0.485 0.484 0.784 1.174 0.734 1.862-0.008 1.118 0 2.238-0.004 3.356-0.378 0-0.755 0-1.133-0.001 0.005-1.159-0.006-2.318 0.006-3.476 0.022-0.383-0.193-0.733-0.456-0.995-0.859-0.898-1.163-2.269-0.79-3.451 0.312-1.051 1.15-1.888 2.16-2.29 0.001-0.715-0.008-1.43 0.005-2.146-0.217 0.119-0.691 0.132-0.556-0.25 0.314-0.667 0.641-1.332 0.989-1.984z"></path>
<path fill="#000" d="M13.238 10.738c0.797-0.286 1.742 0.306 1.834 1.146 0.14 0.816-0.572 1.645-1.403 1.613-0.786 0.026-1.48-0.719-1.409-1.499 0.024-0.57 0.433-1.093 0.978-1.26z"></path>
</svg>
