<?xml version="1.0" encoding="utf-8"?>
<!-- Generated by IcoMoon.io -->
<!DOCTYPE svg PUBLIC "-//W3C//DTD SVG 1.1//EN" "http://www.w3.org/Graphics/SVG/1.1/DTD/svg11.dtd">
<svg version="1.1" xmlns="http://www.w3.org/2000/svg" xmlns:xlink="http://www.w3.org/1999/xlink" width="24" height="24" viewBox="0 0 24 24">
<path fill="#ffdb00" d="M11.836 0h0.288c0.325 0.061 0.618 0.229 0.842 0.47 3.518 3.523 7.040 7.043 10.562 10.564 0.293 0.277 0.493 0.673 0.437 1.085-0.038 0.485-0.43 0.814-0.748 1.135-3.448 3.437-6.883 6.887-10.331 10.324-0.461 0.509-1.321 0.522-1.786 0.013-3.406-3.397-6.8-6.803-10.205-10.2-0.36-0.362-0.794-0.708-0.896-1.24v-0.244c0.046-0.6 0.556-0.972 0.942-1.369 3.198-3.197 6.396-6.394 9.593-9.592 0.384-0.374 0.738-0.848 1.301-0.947M11.812 0.307c-0.204 0.037-0.368 0.175-0.515 0.312-3.461 3.458-6.916 6.92-10.38 10.375-0.271 0.282-0.648 0.569-0.626 1.003 0.002 0.493 0.458 0.785 0.758 1.114 3.426 3.419 6.845 6.846 10.271 10.266 0.27 0.299 0.742 0.412 1.094 0.191 0.304-0.206 0.538-0.494 0.8-0.748 3.282-3.281 6.56-6.565 9.846-9.842 0.266-0.277 0.629-0.551 0.624-0.976 0.020-0.299-0.167-0.55-0.367-0.749-3.546-3.539-7.086-7.084-10.63-10.626-0.221-0.238-0.547-0.398-0.876-0.32z"></path>
<path fill="#ffdb00" d="M11.813 0.784c0.198-0.122 0.421 0.019 0.56 0.164 3.402 3.398 6.8 6.8 10.202 10.199 0.226 0.235 0.496 0.442 0.653 0.733 0.056 0.222-0.104 0.395-0.245 0.54-3.522 3.52-7.043 7.039-10.562 10.561-0.148 0.142-0.325 0.308-0.55 0.242-0.287-0.163-0.493-0.43-0.728-0.654-3.4-3.403-6.804-6.802-10.204-10.205-0.245-0.187-0.26-0.551-0.012-0.742 3.397-3.407 6.806-6.804 10.205-10.21 0.222-0.215 0.421-0.458 0.68-0.63M14.284 7.921c-0.395 0.143-0.71 0.468-1.139 0.52-0.991 0.162-1.982 0.328-2.974 0.494 0.012 0.203 0.025 0.406 0.037 0.608 0.961-0.166 1.921-0.33 2.881-0.494-0.186 0.426-0.282 0.918-0.63 1.252-0.404 0.422-0.81 0.844-1.211 1.268 0.148 0.134 0.294 0.268 0.44 0.402 0.479-0.455 0.956-0.912 1.44-1.362 0.511-0.427 0.71-1.086 1.042-1.643 0.227 0.002 0.454 0.004 0.68 0.005-0.312 0.65 0.073 1.339 0.132 2.005 0.114-0.008 0.34-0.025 0.452-0.034-0.049-0.466-0.098-0.931-0.15-1.398 0.145-0.164 0.292-0.33 0.438-0.494 0.060 0.256 0.119 0.514 0.178 0.77 0.262 0.216 0.526 0.431 0.788 0.644 0.056-0.066 0.168-0.198 0.224-0.264-0.151-0.151-0.301-0.302-0.452-0.454-0.055-0.602 0.079-1.194 0.088-1.794-0.709-0.336-1.547-0.348-2.266-0.032M17.108 7.733c-0.13 0.312-0.492 0.697-0.178 1.018 0.368 0.419 1.106-0.078 0.917-0.582-0.079-0.335-0.437-0.438-0.739-0.436M7.632 9.41c0.030 0.283 0.178 0.515 0.398 0.688-0.006 0.078-0.017 0.236-0.022 0.314-0.281 0.13-0.56 0.258-0.841 0.389-0.395-0.564-1.072-0.952-1.775-0.844-0.925 0.1-1.663 1.004-1.562 1.931 0.065 0.953 0.99 1.735 1.94 1.628 0.559-0.026 1.022-0.384 1.37-0.794 0.198 0.143 0.496 0.23 0.494 0.524-0.097 0.202-0.299 0.3-0.497 0.379 0.13 0.090 0.258 0.18 0.386 0.27-0.002-0.072-0.007-0.216-0.010-0.288 0.054-0.059 0.163-0.175 0.217-0.234 0.217-0.047 0.388-0.174 0.508-0.359 0.77-0.404 1.552-0.79 2.33-1.181-0.062 0.377-0.126 0.754-0.149 1.135-0.028 0.271-0.012 0.57-0.208 0.788 0.030 0.044 0.090 0.134 0.12 0.18-0.040 0.43-0.077 0.859-0.112 1.289 0.071 0.004 0.214 0.011 0.284 0.014 0.086-0.476-0.035-1.030 0.251-1.446-0.080-0.193-0.109-0.4-0.076-0.605 0.070-0.715 0.062-1.436 0.149-2.15 0.127-0.089 0.253-0.179 0.38-0.268-0.054-0.16-0.109-0.318-0.163-0.478-0.274-0.101-0.547-0.203-0.821-0.304-0.024 0.055-0.073 0.164-0.097 0.22 0.247 0.098 0.494 0.197 0.742 0.296 0.022 0.058 0.066 0.173 0.088 0.23-0.080 0.052-0.24 0.152-0.32 0.203-0.013 0.16-0.028 0.32-0.042 0.481-0.613-0.283-1.225-0.571-1.841-0.85-0.224-0.109-0.492-0.188-0.6-0.442 0.328 0.042 0.65 0.12 0.98 0.155-0.445-0.377-0.982-0.625-1.505-0.875M6.558 15.232c0 0.233 0 0.464 0 0.697 4.002-0.001 8.004 0 12.007-0.001-0.001-0.232-0.001-0.463 0-0.696-1.132 0-2.262 0-3.392 0-0.002 0.056-0.005 0.168-0.006 0.224-0.242 0-0.484 0-0.726 0.002-0.002-0.056-0.007-0.17-0.010-0.227-1.24 0-2.48 0-3.72 0-0.001 0.056-0.005 0.168-0.006 0.224-0.22 0-0.439 0-0.658 0-0.001-0.055-0.005-0.168-0.006-0.224-1.162 0-2.322 0-3.484 0z"></path>
<path fill="#ffdb00" d="M4.188 11.27c0.24-0.818 1.248-1.274 2.022-0.916 0.283 0.115 0.49 0.349 0.697 0.563-0.542 0.254-1.087 0.503-1.631 0.756 0.532 0.306 1.067 0.606 1.597 0.916-0.378 0.47-0.998 0.772-1.606 0.601-0.829-0.169-1.366-1.122-1.080-1.92z"></path>
<path fill="#ffdb00" d="M7.271 10.94c0.229-0.102 0.457-0.206 0.685-0.312-0.073 0.726-0.148 1.452-0.222 2.178-0.17-0.096-0.34-0.192-0.51-0.288 0.209-0.503 0.229-1.063 0.047-1.578z"></path>
<path fill="#ffdb00" d="M8.208 10.511c0.781 0.356 1.562 0.713 2.344 1.068-0.842 0.414-1.666 0.865-2.52 1.253 0.149-0.164 0.317-0.313 0.538-0.371-0.13-0.085-0.257-0.172-0.385-0.259-0.038 0.12-0.115 0.36-0.155 0.48 0.014-0.726 0.118-1.447 0.179-2.171z"></path>
<path fill="#ffdb00" d="M5.725 11.659c0.427-0.2 0.854-0.4 1.285-0.59 0.13 0.431 0.122 0.882-0.032 1.304-0.42-0.235-0.836-0.474-1.253-0.714z"></path>
<path fill="#000" d="M11.812 0.307c0.329-0.078 0.655 0.083 0.876 0.32 3.544 3.542 7.084 7.087 10.63 10.626 0.2 0.199 0.388 0.45 0.367 0.749 0.005 0.425-0.358 0.698-0.624 0.976-3.286 3.277-6.564 6.562-9.846 9.842-0.263 0.253-0.497 0.541-0.8 0.748-0.353 0.221-0.824 0.108-1.094-0.191-3.426-3.42-6.845-6.847-10.271-10.266-0.3-0.329-0.756-0.62-0.758-1.114-0.022-0.434 0.355-0.721 0.626-1.003 3.464-3.455 6.919-6.917 10.38-10.375 0.146-0.137 0.311-0.275 0.515-0.312M11.813 0.784c-0.259 0.172-0.458 0.415-0.68 0.63-3.398 3.406-6.808 6.803-10.205 10.21-0.248 0.191-0.233 0.554 0.012 0.742 3.4 3.403 6.804 6.802 10.204 10.205 0.235 0.224 0.442 0.491 0.728 0.654 0.224 0.066 0.402-0.101 0.55-0.242 3.52-3.522 7.040-7.042 10.562-10.561 0.14-0.145 0.301-0.318 0.245-0.54-0.157-0.292-0.427-0.498-0.653-0.733-3.402-3.398-6.8-6.8-10.202-10.199-0.139-0.145-0.362-0.287-0.56-0.164z"></path>
<path fill="#000" d="M14.284 7.921c0.719-0.316 1.556-0.304 2.266 0.032-0.008 0.6-0.143 1.192-0.088 1.794 0.151 0.151 0.301 0.302 0.452 0.454-0.056 0.066-0.168 0.198-0.224 0.264-0.263-0.214-0.527-0.428-0.788-0.644-0.059-0.257-0.118-0.515-0.178-0.77-0.146 0.164-0.293 0.33-0.438 0.494 0.052 0.467 0.101 0.932 0.15 1.398-0.113 0.008-0.338 0.025-0.452 0.034-0.059-0.666-0.444-1.355-0.132-2.005-0.227-0.001-0.454-0.002-0.68-0.005-0.331 0.557-0.53 1.216-1.042 1.643-0.484 0.45-0.961 0.907-1.44 1.362-0.146-0.134-0.293-0.268-0.44-0.402 0.401-0.425 0.806-0.846 1.211-1.268 0.348-0.334 0.444-0.826 0.63-1.252-0.96 0.164-1.92 0.329-2.881 0.494-0.012-0.203-0.025-0.406-0.037-0.608 0.991-0.167 1.982-0.332 2.974-0.494 0.428-0.052 0.744-0.377 1.139-0.52z"></path>
<path fill="#000" d="M17.108 7.733c0.302-0.002 0.66 0.101 0.739 0.436 0.19 0.504-0.548 1.001-0.917 0.582-0.314-0.32 0.048-0.706 0.178-1.018z"></path>
<path fill="#000" d="M7.632 9.41c0.523 0.25 1.060 0.498 1.505 0.875-0.33-0.035-0.653-0.113-0.98-0.155 0.108 0.253 0.376 0.332 0.6 0.442 0.616 0.278 1.228 0.566 1.841 0.85 0.014-0.161 0.029-0.322 0.042-0.481 0.080-0.050 0.24-0.151 0.32-0.203-0.022-0.058-0.066-0.173-0.088-0.23-0.247-0.1-0.494-0.198-0.742-0.296 0.024-0.055 0.073-0.164 0.097-0.22 0.274 0.101 0.547 0.203 0.821 0.304 0.054 0.16 0.109 0.318 0.163 0.478-0.127 0.089-0.253 0.179-0.38 0.268-0.086 0.714-0.079 1.435-0.149 2.15-0.034 0.205-0.005 0.412 0.076 0.605-0.286 0.416-0.164 0.97-0.251 1.446-0.071-0.004-0.214-0.011-0.284-0.014 0.035-0.43 0.072-0.859 0.112-1.289-0.030-0.046-0.090-0.136-0.12-0.18 0.196-0.218 0.18-0.517 0.208-0.788 0.023-0.382 0.086-0.758 0.149-1.135-0.779 0.391-1.56 0.776-2.33 1.181-0.12 0.185-0.29 0.312-0.508 0.359-0.054 0.059-0.163 0.175-0.217 0.234 0.002 0.072 0.007 0.216 0.010 0.288-0.128-0.090-0.257-0.18-0.386-0.27 0.198-0.079 0.4-0.178 0.497-0.379 0.001-0.294-0.296-0.382-0.494-0.524-0.348 0.41-0.811 0.768-1.37 0.794-0.95 0.107-1.876-0.676-1.94-1.628-0.101-0.926 0.637-1.831 1.562-1.931 0.703-0.108 1.38 0.28 1.775 0.844 0.281-0.131 0.56-0.259 0.841-0.389 0.005-0.078 0.016-0.236 0.022-0.314-0.221-0.173-0.368-0.404-0.398-0.688M4.188 11.27c-0.286 0.798 0.251 1.751 1.080 1.92 0.607 0.17 1.228-0.131 1.606-0.601-0.53-0.31-1.066-0.61-1.597-0.916 0.544-0.253 1.088-0.502 1.631-0.756-0.208-0.214-0.414-0.448-0.697-0.563-0.774-0.359-1.782 0.097-2.022 0.916M7.271 10.94c0.182 0.515 0.162 1.075-0.047 1.578 0.17 0.096 0.34 0.192 0.51 0.288 0.074-0.726 0.149-1.452 0.222-2.178-0.228 0.106-0.456 0.21-0.685 0.312M8.208 10.511c-0.061 0.724-0.164 1.445-0.179 2.171 0.040-0.12 0.116-0.36 0.155-0.48 0.128 0.088 0.256 0.174 0.385 0.259-0.221 0.058-0.389 0.206-0.538 0.371 0.854-0.388 1.678-0.839 2.52-1.253-0.781-0.355-1.562-0.712-2.344-1.068M5.725 11.659c0.416 0.24 0.833 0.479 1.253 0.714 0.155-0.422 0.162-0.874 0.032-1.304-0.431 0.191-0.858 0.39-1.285 0.59z"></path>
<path fill="#000" d="M6.558 15.232c1.162 0 2.322 0 3.484 0 0.001 0.056 0.005 0.169 0.006 0.224 0.218 0 0.438 0 0.658 0 0.001-0.056 0.005-0.168 0.006-0.224 1.24 0 2.48 0 3.72 0 0.002 0.056 0.007 0.17 0.010 0.227 0.242-0.002 0.484-0.002 0.726-0.002 0.001-0.056 0.004-0.168 0.006-0.224 1.13 0 2.261 0 3.392 0-0.001 0.233-0.001 0.464 0 0.696-4.003 0.001-8.005 0-12.007 0.001 0-0.233 0-0.464 0-0.697z"></path>
</svg>
