<?xml version="1.0" encoding="utf-8"?>
<!-- Generated by IcoMoon.io -->
<!DOCTYPE svg PUBLIC "-//W3C//DTD SVG 1.1//EN" "http://www.w3.org/Graphics/SVG/1.1/DTD/svg11.dtd">
<svg version="1.1" xmlns="http://www.w3.org/2000/svg" xmlns:xlink="http://www.w3.org/1999/xlink" width="24" height="24" viewBox="0 0 24 24">
<path fill="#f8e53d" d="M11.609 2.35c0.3-0.079 0.619-0.077 0.919 0.001 0.287 0.195 0.443 0.515 0.622 0.804 0.115 0.227 0.264 0.435 0.392 0.656 0.117 0.227 0.266 0.435 0.395 0.656 0.132 0.265 0.316 0.5 0.454 0.762 0.117 0.291 0.3 0.544 0.47 0.807 0.059 0.13 0.119 0.26 0.18 0.39 0.11 0.181 0.239 0.35 0.351 0.531 0.028 0.067 0.083 0.202 0.111 0.27 0.176 0.308 0.4 0.589 0.532 0.922 0.121 0.222 0.266 0.428 0.397 0.643 0.227 0.551 0.586 1.027 0.846 1.559 0.033 0.066 0.096 0.197 0.129 0.262 0.030 0.068 0.092 0.203 0.123 0.27 0.111 0.18 0.239 0.35 0.349 0.53 0.030 0.067 0.090 0.201 0.122 0.268 0.063 0.127 0.127 0.254 0.189 0.383 0.131 0.215 0.277 0.42 0.397 0.641 0.132 0.333 0.363 0.611 0.525 0.93 0.104 0.184 0.231 0.353 0.338 0.534 0.147 0.304 0.296 0.606 0.443 0.909 0.134 0.216 0.283 0.424 0.4 0.65 0.127 0.22 0.274 0.429 0.399 0.65 0.030 0.067 0.092 0.201 0.122 0.268 0.031 0.066 0.096 0.199 0.127 0.265 0.135 0.216 0.283 0.426 0.401 0.653 0.126 0.22 0.273 0.429 0.399 0.65 0.030 0.067 0.090 0.201 0.121 0.268 0.033 0.066 0.098 0.198 0.131 0.264 0.273 0.434 0.48 0.902 0.757 1.335 0.102 0.245 0.084 0.519 0.012 0.77-0.156 0.21-0.325 0.414-0.526 0.584-1.774 0.022-3.55 0.004-5.325 0.008-0.327 0.012-0.671-0.046-0.984 0.081-0.199-0.125-0.442-0.093-0.648-0.004-0.409-0.146-0.852-0.058-1.276-0.067-0.18 0.151-0.41 0.119-0.624 0.125-3.452-0.005-6.905-0.003-10.357-0.001-0.333-0.009-0.679 0.041-0.999-0.075-0.303-0.055-0.511-0.291-0.702-0.513-0.013-0.446-0.088-0.926 0.142-1.332 0.214-0.334 0.439-0.662 0.597-1.028 0.194-0.295 0.382-0.594 0.525-0.917 0.106-0.184 0.232-0.354 0.333-0.54 0.119-0.228 0.269-0.438 0.407-0.654 0.028-0.067 0.084-0.203 0.111-0.27 0.127-0.222 0.275-0.43 0.413-0.645 0.028-0.068 0.084-0.203 0.113-0.271 0.239-0.383 0.492-0.761 0.66-1.183 0.123-0.222 0.271-0.429 0.403-0.645 0.105-0.215 0.209-0.429 0.312-0.644 0.134-0.218 0.283-0.425 0.4-0.653 0.102-0.185 0.228-0.355 0.337-0.536 0.060-0.129 0.121-0.257 0.181-0.384 0.197-0.294 0.386-0.593 0.526-0.918 0.108-0.184 0.235-0.353 0.348-0.534 0.028-0.068 0.084-0.203 0.113-0.271 0.146-0.261 0.328-0.498 0.464-0.765 0.126-0.22 0.274-0.429 0.392-0.654 0.102-0.186 0.227-0.357 0.334-0.539 0.153-0.369 0.393-0.689 0.584-1.036 0.189-0.299 0.38-0.597 0.521-0.923 0.108-0.181 0.233-0.349 0.341-0.53 0.060-0.129 0.119-0.258 0.18-0.387 0.134-0.216 0.283-0.424 0.409-0.645 0.028-0.068 0.084-0.203 0.111-0.271 0.136-0.216 0.286-0.425 0.416-0.647 0.025-0.070 0.075-0.207 0.1-0.277 0.126-0.219 0.312-0.391 0.517-0.535M7.565 12.188c0.068 0.168 0.126 0.34 0.14 0.523-0.083-0.104-0.167-0.205-0.251-0.307-1.506 2.483-2.881 5.041-4.328 7.558 5.906 0.005 11.811-0.020 17.717-0.045-1.883-3.224-3.67-6.501-5.499-9.753-1.104-1.916-2.232-3.818-3.317-5.746-1.469 2.601-2.953 5.192-4.463 7.769z"></path>
<path fill="#f8e53d" d="M11.452 12.526c0.188-0.265 0.274-0.786 0.704-0.64 0.126 0.197 0.21 0.416 0.329 0.616 0.258-0.102 0.791-0.502 0.809 0.021-0.254 0.401-0.681 0.661-0.93 1.065-0.042 0.518-0.007 1.039-0.025 1.559 0.525-0.311 1.053-0.616 1.572-0.936 0.15-0.437 0.172-0.947 0.497-1.298 0.333 0.111 0.224 0.477 0.254 0.745 0.281-0.029 0.678-0.167 0.799 0.194-0.085 0.206-0.219 0.386-0.341 0.572 0.177 0.173 0.551 0.269 0.473 0.574-0.421 0.231-0.896-0.138-1.329-0.191-0.336 0.205-0.671 0.408-1.006 0.614 0.34 0.177 0.652 0.437 1.031 0.522 0.392-0.047 0.761-0.21 1.154-0.245 0.434 0.253-0.147 0.531-0.379 0.654 0.142 0.177 0.283 0.355 0.424 0.534-0.195 0.295-0.536 0.249-0.841 0.282-0.094 0.232 0.020 0.686-0.359 0.622-0.278-0.324-0.275-0.8-0.403-1.196-0.515-0.295-1.031-0.591-1.548-0.887 0.007 0.519 0.005 1.040-0.005 1.559 0.313 0.348 0.7 0.64 0.943 1.044-0.035 0.517-0.577 0.114-0.814-0.028-0.15 0.25-0.21 0.804-0.622 0.64-0.167-0.189-0.274-0.417-0.399-0.632-0.235 0.148-0.725 0.484-0.784-0.003 0.248-0.395 0.619-0.689 0.938-1.023-0.008-0.521-0.001-1.041 0.001-1.562-0.504 0.299-1.002 0.605-1.504 0.905-0.104 0.386-0.201 0.774-0.299 1.161-0.097 0.008-0.29 0.022-0.387 0.030-0.018-0.215-0.034-0.43-0.058-0.645-0.319 0.033-0.648 0.041-0.856-0.241 0.14-0.189 0.283-0.378 0.426-0.564-0.201-0.106-0.401-0.212-0.599-0.323 0.072-0.113 0.151-0.222 0.236-0.324 0.404 0.059 0.792 0.193 1.184 0.299 0.324-0.189 0.647-0.38 0.968-0.574-0.33-0.202-0.662-0.401-0.994-0.599-0.349 0.1-0.695 0.218-1.053 0.277-0.201 0.072-0.236-0.21-0.332-0.315 0.18-0.101 0.362-0.199 0.543-0.298-0.104-0.236-0.355-0.45-0.294-0.729 0.181-0.262 0.519-0.080 0.769-0.070 0-0.232-0.001-0.464 0.001-0.696 0.087 0.012 0.26 0.034 0.346 0.046 0.229 0.338 0.211 0.799 0.401 1.165 0.468 0.357 1.010 0.605 1.5 0.929-0.004-0.521 0.030-1.043-0.008-1.562-0.256-0.387-0.686-0.628-0.918-1.036 0.070-0.485 0.55-0.178 0.782-0.010z"></path>
<path fill="#1e241d" d="M7.565 12.188c1.51-2.577 2.994-5.169 4.463-7.769 1.085 1.928 2.212 3.83 3.317 5.746 1.83 3.252 3.616 6.53 5.499 9.753-5.906 0.025-11.811 0.050-17.717 0.045 1.447-2.517 2.822-5.075 4.328-7.558 0.084 0.102 0.168 0.203 0.251 0.307-0.014-0.184-0.072-0.355-0.14-0.523M11.452 12.526c-0.232-0.168-0.712-0.475-0.782 0.011 0.232 0.408 0.662 0.649 0.918 1.036 0.038 0.519 0.004 1.041 0.008 1.562-0.491-0.324-1.032-0.572-1.5-0.929-0.19-0.366-0.172-0.826-0.401-1.165-0.087-0.012-0.26-0.034-0.346-0.046-0.003 0.232-0.001 0.464-0.001 0.696-0.249-0.010-0.588-0.193-0.769 0.070-0.062 0.279 0.19 0.493 0.294 0.729-0.181 0.098-0.363 0.197-0.543 0.298 0.096 0.105 0.131 0.387 0.332 0.315 0.358-0.059 0.704-0.177 1.053-0.277 0.332 0.198 0.664 0.397 0.994 0.599-0.321 0.194-0.644 0.386-0.968 0.574-0.392-0.106-0.78-0.24-1.184-0.299-0.085 0.102-0.164 0.211-0.236 0.324 0.198 0.11 0.399 0.216 0.599 0.323-0.143 0.186-0.286 0.375-0.426 0.564 0.209 0.282 0.538 0.274 0.856 0.241 0.024 0.215 0.039 0.43 0.058 0.645 0.097-0.008 0.29-0.022 0.387-0.030 0.098-0.387 0.195-0.775 0.299-1.161 0.502-0.3 1.001-0.606 1.504-0.905-0.003 0.521-0.009 1.041-0.001 1.562-0.319 0.334-0.69 0.628-0.938 1.023 0.059 0.487 0.55 0.151 0.784 0.003 0.125 0.215 0.232 0.443 0.399 0.632 0.412 0.164 0.472-0.39 0.622-0.64 0.237 0.142 0.779 0.544 0.814 0.028-0.243-0.404-0.63-0.696-0.943-1.044 0.010-0.519 0.012-1.040 0.005-1.559 0.517 0.295 1.032 0.591 1.548 0.887 0.127 0.396 0.125 0.872 0.403 1.196 0.379 0.064 0.265-0.39 0.359-0.622 0.304-0.033 0.645 0.013 0.841-0.282-0.14-0.178-0.282-0.357-0.424-0.534 0.232-0.123 0.813-0.401 0.379-0.654-0.393 0.035-0.762 0.198-1.154 0.245-0.379-0.085-0.691-0.345-1.031-0.522 0.334-0.206 0.67-0.409 1.006-0.614 0.433 0.054 0.908 0.422 1.329 0.191 0.077-0.306-0.296-0.401-0.473-0.574 0.122-0.186 0.256-0.366 0.341-0.572-0.121-0.361-0.518-0.223-0.799-0.194-0.030-0.268 0.079-0.633-0.254-0.745-0.325 0.351-0.348 0.862-0.497 1.298-0.519 0.32-1.048 0.626-1.572 0.936 0.018-0.521-0.017-1.041 0.025-1.559 0.249-0.404 0.675-0.664 0.93-1.065-0.018-0.523-0.551-0.123-0.809-0.021-0.119-0.201-0.203-0.42-0.329-0.616-0.43-0.146-0.517 0.375-0.704 0.64z"></path>
</svg>
