<!-- Generated by IcoMoon.io -->
<svg version="1.1" xmlns="http://www.w3.org/2000/svg" width="24" height="24" viewBox="0 0 24 24">
<title>warning--animal-drawn-vehicles--g1</title>
<path fill="#9b8139" d="M11.384 0h1.267c3.239 3.278 6.516 6.522 9.769 9.787 0.542 0.565 1.175 1.062 1.581 1.743v0.96c-0.373 0.609-0.929 1.067-1.421 1.572-2.866 2.865-5.731 5.727-8.592 8.594-0.482 0.472-0.92 1.005-1.513 1.344h-0.966c-0.607-0.375-1.065-0.929-1.57-1.423-2.838-2.84-5.676-5.678-8.515-8.516-0.497-0.509-1.065-0.968-1.423-1.593v-1.116c3.818-3.759 7.572-7.587 11.384-11.351M11.901 0.471c-0.571 0.104-0.918 0.612-1.311 0.985-3.247 3.261-6.506 6.509-9.761 9.761-0.434 0.389-0.478 1.078-0.039 1.477 3.436 3.47 6.907 6.909 10.362 10.363 0.41 0.489 1.167 0.578 1.603 0.068 3.49-3.471 6.977-6.949 10.449-10.438 0.468-0.415 0.376-1.112-0.074-1.505-3.414-3.419-6.841-6.828-10.25-10.252-0.268-0.237-0.596-0.508-0.977-0.46z"></path>
<path fill="#231f20" d="M11.901 0.471c0.381-0.048 0.709 0.223 0.977 0.46 3.41 3.423 6.836 6.833 10.25 10.252 0.451 0.393 0.542 1.090 0.074 1.505-3.471 3.489-6.958 6.966-10.449 10.438-0.435 0.509-1.192 0.421-1.603-0.068-3.454-3.454-6.926-6.893-10.362-10.363-0.44-0.399-0.395-1.089 0.039-1.477 3.255-3.252 6.514-6.5 9.761-9.761 0.393-0.373 0.74-0.881 1.311-0.985M11.689 1.006c-3.485 3.317-6.821 6.807-10.263 10.176-0.373 0.305-0.739 0.881-0.28 1.288 3.389 3.425 6.819 6.816 10.221 10.23 0.291 0.376 0.861 0.463 1.178 0.068 3.416-3.4 6.824-6.81 10.23-10.219 0.353-0.283 0.379-0.818 0.025-1.112-3.346-3.369-6.726-6.709-10.072-10.080-0.26-0.268-0.655-0.604-1.039-0.351z"></path>
<path fill="#231f20" d="M12.7 8.851c1.901-0.003 3.801 0 5.701 0 0.005 1.373-0.008 2.747 0.008 4.122 0.801 0.576 0.753 1.96-0.296 2.213-1.084 0.307-1.804-1.016-1.257-1.891-0.777 0.003-1.555 0.003-2.33-0.002 0.528 0.855-0.146 2.126-1.202 1.894-0.94-0.17-1.157-1.313-0.641-2.013-0.18-0.033-0.358-0.063-0.536-0.096 0.446-0.029 0.892-0.082 1.332-0.173 0-1.197-0.019-2.395-0.014-3.594-0.257-0.008-0.513-0.019-0.768-0.028 0-0.107 0.003-0.324 0.003-0.432M13.61 9.301c-0.003 1.095-0.006 2.191 0.015 3.286 0.418-0.139 0.836-0.279 1.256-0.415 0.026-0.957 0.011-1.914 0.014-2.871-0.429 0-0.858 0-1.285 0M13.041 13.192c-0.214 0.265-0.413 0.539-0.591 0.827 0.358-0.051 0.714-0.116 1.068-0.19-0.009-0.136-0.025-0.41-0.033-0.547-0.149-0.029-0.297-0.060-0.444-0.090M13.606 13.237c-0.002 0.147-0.005 0.441-0.006 0.588 0.342 0.077 0.686 0.147 1.033 0.207-0.108-0.516-0.551-0.723-1.027-0.796M16.737 13.973c0.367-0.026 0.731-0.063 1.098-0.090-0.005-0.203-0.009-0.406-0.012-0.609-0.497-0.017-0.915 0.217-1.085 0.698M17.898 13.273c0.046 0.255 0.093 0.511 0.144 0.766 0.269-0.014 0.537-0.026 0.807-0.039-0.040-0.132-0.119-0.398-0.159-0.53-0.262-0.073-0.526-0.139-0.791-0.198M12.471 14.146c0.194 0.447 0.548 0.78 0.991 0.977 0.026-0.246 0.053-0.492 0.077-0.739-0.113-0.132-0.226-0.263-0.338-0.396-0.243 0.053-0.488 0.105-0.731 0.158M13.733 13.999c-0.063 0.376-0.116 0.754-0.156 1.135 0.477-0.181 0.87-0.516 1.050-1.002-0.297-0.048-0.595-0.093-0.893-0.133M16.747 14.078c0.164 0.708 1.129 1.49 1.226 0.325-0.156-0.139-0.311-0.28-0.466-0.423-0.254 0.031-0.508 0.063-0.76 0.098M17.853 15.148c0.483-0.18 0.839-0.553 1.078-1-0.78-0.288-1.093 0.297-1.078 1z"></path>
<path fill="#231f20" d="M4.269 10.62c0.44-0.413 0.87-0.839 1.222-1.332 0.52 0.537 0.994 1.172 1.678 1.507 0.836 0.223 1.731-0.077 2.561 0.217 0.517 0.187 1.4 0.081 1.474 0.811 0.017 0.745 0.578 1.511 0.203 2.225-0.321-0.435-0.421-1.027-0.855-1.372-0.311 0.308 0.226 0.591 0.321 0.887 0.245 0.615 0.653 1.132 1 1.688-1.030-0.423-1.126-1.757-2.149-2.228 0.031 0.251 0.062 0.502 0.094 0.753-0.423 0.355-0.828 0.753-1.022 1.282-0.090 0.040-0.268 0.119-0.358 0.159 0.149-0.582 0.528-1.045 0.946-1.459-0.116-0.39-0.231-0.782-0.331-1.177-0.564 0.203-1.14 0.367-1.725 0.495-0.211 0.765 0.194 1.377 0.915 1.629 0.023 0.088 0.070 0.266 0.093 0.355-0.965-0.296-1.522-1.189-1.486-2.18-0.359 0.26-0.768 0.471-1.061 0.811-0.293 0.482-0.081 1.18-0.596 1.536 0.053-0.909 0.314-1.805 0.893-2.519-0.15-0.534-0.228-1.084-0.345-1.626-0.299 0.028-0.596 0.051-0.893 0.073 0.31-0.124 0.646-0.225 0.864-0.497-0.48-0.011-1.016 0.296-1.443-0.039M10.461 11.322c0.050 0.384-0.142 0.892 0.159 1.197 0.136-0.412 0.056-0.83-0.159-1.197z"></path>
<path fill="#fed24c" d="M11.689 1.006c0.384-0.252 0.779 0.084 1.039 0.351 3.346 3.371 6.726 6.711 10.072 10.080 0.355 0.294 0.328 0.828-0.025 1.112-3.406 3.41-6.814 6.819-10.23 10.219-0.317 0.395-0.887 0.308-1.178-0.068-3.402-3.414-6.831-6.805-10.221-10.23-0.458-0.407-0.093-0.983 0.28-1.288 3.442-3.369 6.777-6.859 10.263-10.176M12.7 8.851c0 0.108-0.003 0.325-0.003 0.432 0.255 0.009 0.511 0.020 0.768 0.028-0.005 1.198 0.014 2.397 0.014 3.594-0.44 0.091-0.886 0.144-1.332 0.173 0.178 0.033 0.356 0.063 0.536 0.096-0.516 0.7-0.299 1.843 0.641 2.013 1.056 0.232 1.73-1.039 1.202-1.894 0.776 0.005 1.553 0.005 2.33 0.002-0.547 0.875 0.173 2.197 1.257 1.891 1.048-0.252 1.096-1.637 0.296-2.213-0.015-1.375-0.003-2.748-0.008-4.122-1.9 0-3.8-0.003-5.701 0M4.269 10.62c0.427 0.334 0.963 0.028 1.443 0.039-0.218 0.273-0.554 0.373-0.864 0.497 0.297-0.022 0.595-0.045 0.893-0.073 0.118 0.542 0.195 1.092 0.345 1.626-0.579 0.714-0.841 1.61-0.893 2.519 0.516-0.356 0.303-1.054 0.596-1.536 0.293-0.341 0.701-0.551 1.061-0.811-0.036 0.991 0.522 1.884 1.486 2.18-0.023-0.088-0.070-0.266-0.093-0.355-0.722-0.252-1.126-0.864-0.915-1.629 0.585-0.129 1.161-0.293 1.725-0.495 0.101 0.395 0.215 0.787 0.331 1.177-0.418 0.413-0.797 0.876-0.946 1.459 0.090-0.040 0.268-0.119 0.358-0.159 0.194-0.53 0.599-0.927 1.022-1.282-0.033-0.251-0.063-0.502-0.094-0.753 1.023 0.471 1.119 1.805 2.149 2.228-0.347-0.556-0.756-1.073-1-1.688-0.094-0.296-0.632-0.579-0.321-0.887 0.434 0.345 0.534 0.937 0.855 1.372 0.375-0.714-0.186-1.48-0.203-2.225-0.074-0.731-0.957-0.624-1.474-0.811-0.83-0.294-1.725 0.006-2.561-0.217-0.684-0.334-1.158-0.969-1.678-1.507-0.351 0.492-0.782 0.918-1.222 1.332z"></path>
<path fill="#fed24c" d="M13.61 9.301c0.427 0 0.856 0 1.285 0-0.003 0.957 0.012 1.914-0.014 2.871-0.42 0.136-0.838 0.276-1.256 0.415-0.022-1.095-0.019-2.191-0.015-3.286z"></path>
<path fill="#fed24c" d="M10.461 11.322c0.215 0.367 0.296 0.785 0.159 1.197-0.302-0.305-0.11-0.813-0.159-1.197z"></path>
<path fill="#fed24c" d="M12.471 14.146c0.243-0.053 0.488-0.105 0.731-0.158 0.111 0.133 0.225 0.265 0.338 0.396-0.025 0.246-0.051 0.492-0.077 0.739-0.443-0.197-0.797-0.53-0.991-0.977z"></path>
<path fill="#fed24c" d="M13.733 13.999c0.299 0.040 0.596 0.085 0.893 0.133-0.18 0.486-0.573 0.821-1.050 1.002 0.040-0.381 0.093-0.759 0.156-1.135z"></path>
<path fill="#fed24c" d="M17.853 15.148c-0.015-0.703 0.297-1.288 1.078-1-0.238 0.447-0.595 0.821-1.078 1z"></path>
<path fill="#f8cd4a" d="M13.041 13.192c0.147 0.029 0.296 0.060 0.444 0.090 0.008 0.136 0.023 0.41 0.033 0.547-0.355 0.074-0.711 0.139-1.068 0.19 0.178-0.288 0.378-0.562 0.591-0.827z"></path>
<path fill="#f8cd4a" d="M17.898 13.273c0.265 0.059 0.53 0.125 0.791 0.198 0.040 0.132 0.119 0.398 0.159 0.53-0.269 0.012-0.537 0.025-0.807 0.039-0.051-0.255-0.098-0.511-0.144-0.766z"></path>
<path fill="#f7cc4a" d="M13.606 13.237c0.475 0.073 0.918 0.28 1.027 0.796-0.347-0.060-0.691-0.13-1.033-0.207 0.002-0.147 0.005-0.441 0.006-0.588z"></path>
<path fill="#f7cd4a" d="M16.737 13.973c0.17-0.482 0.588-0.715 1.085-0.698 0.003 0.203 0.008 0.406 0.012 0.609-0.367 0.026-0.731 0.063-1.098 0.090z"></path>
<path fill="#ebc248" d="M16.747 14.078c0.252-0.034 0.506-0.067 0.76-0.098 0.155 0.142 0.31 0.283 0.466 0.423-0.098 1.164-1.062 0.382-1.226-0.325z"></path>
</svg>
