<?xml version="1.0" encoding="utf-8"?>
<!-- Generated by IcoMoon.io -->
<!DOCTYPE svg PUBLIC "-//W3C//DTD SVG 1.1//EN" "http://www.w3.org/Graphics/SVG/1.1/DTD/svg11.dtd">
<svg version="1.1" xmlns="http://www.w3.org/2000/svg" xmlns:xlink="http://www.w3.org/1999/xlink" width="24" height="24" viewBox="0 0 24 24">
<path fill="#fee011" d="M11.347 0.209c0.48-0.346 1.169-0.217 1.554 0.209 3.56 3.558 7.121 7.116 10.678 10.678 0.5 0.432 0.552 1.276 0.058 1.732-3.499 3.505-7.004 7.004-10.504 10.51-0.233 0.226-0.449 0.5-0.775 0.589-0.443 0.154-0.954-0.004-1.259-0.353-3.576-3.582-7.159-7.156-10.734-10.739-0.497-0.454-0.452-1.3 0.047-1.735 3.419-3.425 6.844-6.845 10.265-10.268 0.216-0.215 0.421-0.445 0.671-0.622M11.683 0.296c-0.299 0.114-0.502 0.374-0.727 0.588-3.296 3.301-6.598 6.598-9.895 9.898-0.216 0.222-0.451 0.427-0.642 0.672-0.27 0.356-0.218 0.9 0.106 1.206 3.479 3.482 6.961 6.961 10.44 10.444 0.287 0.288 0.586 0.67 1.037 0.65 0.446 0.014 0.74-0.36 1.024-0.646 3.36-3.362 6.721-6.724 10.082-10.085 0.288-0.282 0.661-0.577 0.644-1.024 0.020-0.416-0.304-0.712-0.575-0.977-3.484-3.476-6.959-6.96-10.441-10.438-0.258-0.29-0.68-0.424-1.052-0.289z"></path>
<path fill="#fee011" d="M11.797 0.758c0.214-0.092 0.457-0.014 0.602 0.16 3.546 3.538 7.084 7.084 10.627 10.624 0.186 0.16 0.328 0.412 0.21 0.658-0.142 0.212-0.343 0.376-0.521 0.557-3.442 3.443-6.886 6.883-10.324 10.328-0.145 0.173-0.394 0.256-0.604 0.15-0.229-0.162-0.406-0.383-0.606-0.577-3.341-3.338-6.679-6.682-10.021-10.019-0.174-0.193-0.451-0.356-0.444-0.648-0.010-0.194 0.139-0.328 0.259-0.456 3.403-3.398 6.802-6.8 10.201-10.201 0.203-0.196 0.385-0.416 0.619-0.575M5.664 8.804c-0.383 0.143-0.557 0.644-0.324 0.988 1.942 3.378 3.901 6.748 5.842 10.127 0.172 0.282 0.318 0.666 0.686 0.726 0.298 0.070 0.596-0.104 0.733-0.365 2.006-3.473 4.012-6.948 6.019-10.421 0.172-0.257 0.198-0.62-0.019-0.86-0.166-0.223-0.462-0.241-0.715-0.24-3.762 0.002-7.525 0.001-11.287 0-0.311 0.008-0.631-0.031-0.935 0.046z"></path>
<path fill="#000" d="M11.683 0.296c0.372-0.134 0.794-0.001 1.052 0.289 3.482 3.478 6.958 6.961 10.441 10.438 0.271 0.265 0.595 0.56 0.575 0.977 0.017 0.446-0.356 0.742-0.644 1.024-3.361 3.361-6.722 6.722-10.082 10.085-0.283 0.286-0.577 0.66-1.024 0.646-0.451 0.019-0.75-0.362-1.037-0.65-3.479-3.482-6.961-6.961-10.44-10.444-0.324-0.306-0.376-0.85-0.106-1.206 0.191-0.245 0.426-0.45 0.642-0.672 3.298-3.3 6.599-6.596 9.895-9.898 0.226-0.214 0.428-0.474 0.727-0.588M11.797 0.758c-0.234 0.158-0.416 0.379-0.619 0.575-3.4 3.401-6.798 6.803-10.201 10.201-0.12 0.128-0.269 0.262-0.259 0.456-0.007 0.292 0.27 0.455 0.444 0.648 3.342 3.337 6.68 6.68 10.021 10.019 0.2 0.194 0.377 0.415 0.606 0.577 0.21 0.106 0.458 0.023 0.604-0.15 3.438-3.445 6.882-6.886 10.324-10.328 0.178-0.181 0.379-0.344 0.521-0.557 0.118-0.246-0.024-0.498-0.21-0.658-3.544-3.54-7.081-7.086-10.627-10.624-0.145-0.174-0.389-0.252-0.602-0.16z"></path>
<path fill="#fff" d="M5.664 8.804c0.304-0.077 0.624-0.037 0.935-0.046 3.762 0.001 7.525 0.002 11.287 0 0.253-0.001 0.55 0.017 0.715 0.24 0.217 0.24 0.191 0.604 0.019 0.86-2.008 3.473-4.013 6.948-6.019 10.421-0.137 0.26-0.436 0.434-0.733 0.365-0.368-0.060-0.515-0.444-0.686-0.726-1.94-3.379-3.9-6.749-5.842-10.127-0.233-0.343-0.059-0.845 0.324-0.988M5.683 9.182c-0.163 0.118-0.133 0.356-0.022 0.499 1.906 3.301 3.812 6.602 5.719 9.904 0.133 0.227 0.244 0.47 0.415 0.672 0.174 0.131 0.43 0.052 0.512-0.144 2.023-3.506 4.057-7.007 6.070-10.519 0.175-0.247-0.108-0.556-0.376-0.496-3.92-0.008-7.84 0.004-11.759-0.006-0.184 0.022-0.409-0.041-0.56 0.090z"></path>
<path fill="#fff" d="M8.579 10.976c2.279 0 4.558 0 6.838 0-1.14 1.973-2.281 3.946-3.419 5.921-1.136-1.975-2.279-3.948-3.419-5.921z"></path>
<path fill="#c0111e" d="M5.683 9.182c0.151-0.131 0.377-0.068 0.56-0.090 3.919 0.010 7.838-0.002 11.759 0.006 0.268-0.060 0.551 0.248 0.376 0.496-2.012 3.512-4.046 7.013-6.070 10.519-0.083 0.196-0.338 0.275-0.512 0.144-0.172-0.202-0.282-0.445-0.415-0.672-1.907-3.301-3.814-6.602-5.719-9.904-0.112-0.143-0.142-0.382 0.022-0.499M8.579 10.976c1.14 1.973 2.282 3.946 3.419 5.921 1.138-1.975 2.279-3.948 3.419-5.921-2.28 0-4.559 0-6.838 0z"></path>
</svg>
