<?xml version="1.0" encoding="utf-8"?>
<!-- Generated by IcoMoon.io -->
<!DOCTYPE svg PUBLIC "-//W3C//DTD SVG 1.1//EN" "http://www.w3.org/Graphics/SVG/1.1/DTD/svg11.dtd">
<svg version="1.1" xmlns="http://www.w3.org/2000/svg" xmlns:xlink="http://www.w3.org/1999/xlink" width="24" height="24" viewBox="0 0 24 24">
<path fill="#ce252c" d="M10.906 1.666c0.876-0.626 2.236-0.331 2.756 0.617 3.355 5.813 6.703 11.629 10.051 17.447 0.431 0.715 0.326 1.693-0.247 2.3-0.372 0.428-0.942 0.62-1.496 0.65h-19.775c-0.497-0.011-1.018-0.101-1.417-0.416-0.768-0.565-1.002-1.717-0.5-2.533 3.272-5.692 6.556-11.377 9.828-17.068 0.21-0.372 0.43-0.763 0.8-0.997M2.464 20.414c6.354 0.002 12.708 0.004 19.062-0.001-3.172-5.516-6.347-11.032-9.529-16.542-3.185 5.51-6.358 11.028-9.533 16.543z"></path>
<path fill="#ffd100" d="M2.464 20.414c3.175-5.515 6.348-11.033 9.533-16.543 3.182 5.51 6.358 11.026 9.529 16.542-6.354 0.005-12.708 0.004-19.062 0.001M12.599 10.865c-0.002 0.798-0.001 1.595 0 2.393-1.114-0.538-2.374-0.458-3.575-0.458-0.602 0.593-1.198 1.193-1.793 1.792 0.594 0.601 1.194 1.195 1.79 1.794 0.553 0.008 1.109-0.025 1.662 0.020 0.676 0.070 1.254 0.656 1.298 1.337 0.032 0.541 0.005 1.084 0.014 1.626 1.192 0 2.383 0.001 3.575-0.001-0.018-0.996 0.082-2.016-0.222-2.982 0.793-0.001 1.586 0 2.38-0.001 0-0.498 0-0.997 0-1.495-1.042-0.001-2.083 0.001-3.125-0.002-0.161-0.206-0.334-0.402-0.512-0.593-0.010-1.142-0.001-2.286-0.005-3.428-0.496-0.001-0.992-0.001-1.488 0z"></path>
<path fill="#000" d="M12.599 10.865c0.496-0.001 0.992-0.001 1.488 0 0.004 1.142-0.005 2.286 0.005 3.428 0.179 0.191 0.352 0.386 0.512 0.593 1.042 0.004 2.083 0.001 3.125 0.002 0 0.498 0 0.997 0 1.495-0.793 0.001-1.586 0-2.38 0.001 0.304 0.966 0.204 1.986 0.222 2.982-1.192 0.002-2.383 0.001-3.575 0.001-0.010-0.542 0.018-1.085-0.014-1.626-0.044-0.68-0.623-1.267-1.298-1.337-0.553-0.046-1.109-0.012-1.662-0.020-0.596-0.599-1.196-1.193-1.79-1.794 0.595-0.599 1.19-1.199 1.793-1.792 1.201 0 2.461-0.079 3.575 0.458-0.001-0.798-0.002-1.595 0-2.393z"></path>
</svg>
