<!-- Generated by IcoMoon.io -->
<svg version="1.1" xmlns="http://www.w3.org/2000/svg" width="24" height="24" viewBox="0 0 24 24">
<title>warning--curve-out-intersection-left--g1</title>
<path fill="#ffd033" d="M11.754 0h0.492c0.244 0.096 0.476 0.222 0.66 0.412 3.34 3.341 6.68 6.682 10.021 10.022 0.368 0.376 0.769 0.725 1.073 1.159v0.841c-0.206 0.356-0.518 0.63-0.808 0.918-3.22 3.22-6.439 6.44-9.66 9.66-0.349 0.343-0.67 0.725-1.088 0.988h-0.818c-0.346-0.198-0.611-0.499-0.887-0.779-3.3-3.3-6.6-6.6-9.9-9.9-0.317-0.314-0.671-0.613-0.839-1.040v-0.49c0.174-0.478 0.582-0.794 0.924-1.146 3.221-3.22 6.442-6.44 9.66-9.661 0.364-0.358 0.698-0.763 1.17-0.984M11.672 0.391c-3.728 3.582-7.331 7.312-11.011 10.949-0.4 0.302-0.49 0.942-0.089 1.282 3.62 3.623 7.244 7.243 10.864 10.866 0.319 0.366 0.919 0.337 1.224-0.032 3.614-3.623 7.241-7.236 10.854-10.861 0.361-0.329 0.284-0.929-0.083-1.223-3.581-3.581-7.159-7.164-10.744-10.741-0.244-0.288-0.668-0.419-1.015-0.239z"></path>
<path fill="#ffd033" d="M11.921 0.754c0.248-0.085 0.424 0.156 0.588 0.299 3.534 3.545 7.084 7.075 10.614 10.624 0.185 0.146 0.294 0.437 0.086 0.616-3.613 3.624-7.237 7.238-10.854 10.859-0.148 0.199-0.46 0.239-0.617 0.029-3.623-3.618-7.242-7.241-10.862-10.861-0.31-0.257-0.017-0.605 0.209-0.793 3.622-3.578 7.165-7.25 10.836-10.771M7.652 6.296c0.768 1.745 1.678 3.432 2.506 5.152 0.124 0.364 0.712 0.428 0.868 0.060 0.202-0.463 0.282-0.967 0.47-1.436 1.118 0.583 2.396 1.388 2.554 2.764 0.088 1.638 0.016 3.282 0.041 4.922 0.786 0.022 1.572 0.010 2.358 0.007 0.011-1.441 0.005-2.884 0.011-4.325 0.002-0.816-0.134-1.637-0.478-2.381 1.354 0.68 2.722 1.336 4.074 2.021 0.188-0.347 0.361-0.702 0.526-1.061-2.581-1.291-5.185-2.537-7.751-3.858 0.341-0.422 0.745-0.79 1.074-1.22 0.182-0.378-0.229-0.697-0.582-0.649-1.89-0.002-3.78 0.010-5.67 0.005z"></path>
<path fill="#000" d="M11.672 0.391c0.347-0.18 0.772-0.049 1.015 0.239 3.584 3.577 7.163 7.16 10.744 10.741 0.367 0.294 0.444 0.894 0.083 1.223-3.613 3.625-7.24 7.238-10.854 10.861-0.305 0.37-0.905 0.398-1.224 0.032-3.619-3.623-7.243-7.243-10.864-10.866-0.401-0.34-0.311-0.979 0.089-1.282 3.68-3.637 7.283-7.367 11.011-10.949M11.921 0.754c-3.671 3.521-7.214 7.193-10.836 10.771-0.226 0.188-0.518 0.536-0.209 0.793 3.62 3.62 7.24 7.243 10.862 10.861 0.157 0.21 0.469 0.17 0.617-0.029 3.617-3.62 7.241-7.235 10.854-10.859 0.208-0.179 0.098-0.469-0.086-0.616-3.53-3.548-7.080-7.079-10.614-10.624-0.164-0.143-0.34-0.384-0.588-0.299z"></path>
<path fill="#000" d="M7.652 6.296c1.89 0.005 3.78-0.007 5.67-0.005 0.353-0.048 0.764 0.271 0.582 0.649-0.329 0.431-0.733 0.798-1.074 1.22 2.566 1.321 5.17 2.567 7.751 3.858-0.164 0.359-0.337 0.714-0.526 1.061-1.352-0.685-2.72-1.34-4.074-2.021 0.343 0.744 0.48 1.565 0.478 2.381-0.006 1.441 0 2.884-0.011 4.325-0.786 0.002-1.572 0.014-2.358-0.007-0.025-1.64 0.047-3.284-0.041-4.922-0.157-1.375-1.435-2.18-2.554-2.764-0.188 0.469-0.269 0.973-0.47 1.436-0.156 0.368-0.744 0.304-0.868-0.060-0.828-1.72-1.738-3.407-2.506-5.152z"></path>
</svg>
