<?xml version="1.0" encoding="utf-8"?>
<!-- Generated by IcoMoon.io -->
<!DOCTYPE svg PUBLIC "-//W3C//DTD SVG 1.1//EN" "http://www.w3.org/Graphics/SVG/1.1/DTD/svg11.dtd">
<svg version="1.1" xmlns="http://www.w3.org/2000/svg" xmlns:xlink="http://www.w3.org/1999/xlink" width="24" height="24" viewBox="0 0 24 24">
<path fill="#fee011" d="M11.84 0h0.328c0.277 0.068 0.54 0.202 0.74 0.408 3.397 3.406 6.792 6.811 10.192 10.214 0.34 0.353 0.769 0.667 0.9 1.166v0.452c-0.072 0.191-0.142 0.39-0.287 0.54-3.449 3.433-6.883 6.882-10.326 10.321-0.336 0.317-0.613 0.724-1.058 0.898h-0.638c-0.43-0.151-0.696-0.536-1.012-0.839-3.247-3.236-6.487-6.479-9.736-9.713-0.367-0.378-0.838-0.719-0.943-1.27v-0.314c0.089-0.541 0.552-0.874 0.907-1.242 3.24-3.239 6.479-6.478 9.716-9.718 0.365-0.349 0.685-0.808 1.217-0.905M11.681 0.293c-0.262 0.112-0.458 0.328-0.662 0.52-3.48 3.486-6.967 6.965-10.441 10.456-0.403 0.353-0.469 1.028-0.068 1.408 3.548 3.575 7.115 7.132 10.663 10.706 0.248 0.248 0.58 0.463 0.948 0.406 0.463-0.054 0.739-0.478 1.055-0.772 3.296-3.302 6.592-6.606 9.893-9.904 0.271-0.292 0.656-0.552 0.701-0.98 0.067-0.4-0.196-0.739-0.464-0.997-3.548-3.53-7.080-7.078-10.628-10.607-0.247-0.268-0.653-0.371-0.995-0.235z"></path>
<path fill="#fee011" d="M11.794 0.763c0.248-0.164 0.506 0.032 0.676 0.211 3.504 3.499 7.008 6.998 10.51 10.499 0.191 0.19 0.442 0.464 0.272 0.749-0.186 0.286-0.461 0.498-0.694 0.742-3.379 3.378-6.757 6.756-10.134 10.136-0.139 0.148-0.332 0.274-0.545 0.212-0.263-0.13-0.443-0.371-0.652-0.568-3.257-3.268-6.515-6.532-9.772-9.798-0.234-0.242-0.502-0.455-0.7-0.728-0.155-0.251 0.047-0.505 0.223-0.673 3.336-3.342 6.673-6.684 10.012-10.024 0.265-0.254 0.502-0.545 0.803-0.758M12.522 3.51c-0.008 0.186-0.017 0.372-0.025 0.559 0.252 0.002 0.505 0.005 0.758 0.013-0.169 0.188-0.349 0.367-0.515 0.559-0.637-0.022-1.277-0.014-1.913-0.066 0.19-0.264 0.671-0.39 0.676-0.732-0.554-0.115-1.129-0.026-1.692-0.049 0.030 0.197 0.061 0.395 0.092 0.593 0.076 0.017 0.226 0.050 0.3 0.067 0.21 0.493-0.114 0.928-0.326 1.352-0.402-0.061-0.836-0.097-1.206 0.108-0.841 0.392-1.17 1.531-0.719 2.33 0.361 0.743 1.348 1.1 2.088 0.712 0.53-0.233 0.791-0.779 0.956-1.3 0.258 0.169 0.509 0.486 0.857 0.352 0.366-0.097 0.458-0.494 0.467-0.824 0.402-0.385 0.817-0.758 1.225-1.139 0.017 0.032 0.049 0.097 0.065 0.13-0.666 0.605-0.82 1.703-0.234 2.413 0.517 0.707 1.634 0.82 2.276 0.22 0.768-0.644 0.758-1.964-0.023-2.596-0.427-0.389-1.044-0.433-1.583-0.295-0.197-0.406-0.386-0.816-0.553-1.235 0.287-0.262 0.7-0.725 0.288-1.074-0.385-0.174-0.846-0.053-1.26-0.098M7.702 10.208c-0.419 0.204-0.367 0.93 0.097 1.044 0.377 0.090 0.659-0.35 0.558-0.684-0.048-0.284-0.385-0.514-0.655-0.36M13.596 10.84c0.114 0.158 0.224 0.319 0.33 0.484-0.293 0.329-0.258 0.779-0.342 1.182-0.139 0.13-0.316 0.241-0.512 0.244-0.325-0.144-0.566-0.421-0.886-0.577-0.412-0.234-0.901-0.17-1.355-0.21 0.102 0.526 0.041 1.060-0.010 1.586 0.071 0.181 0.265 0.151 0.424 0.167 0.060-0.228 0.154-0.449 0.365-0.575 0.196 0.491 0.457 0.976 0.432 1.52-0.472 0.452-0.7 1.074-0.97 1.652 0.078 0.194 0.157 0.389 0.246 0.578 0.318-0.259-0.004-0.652 0.182-0.962 0.21-0.4 0.521-0.769 0.942-0.954 0.179 0.503 0.468 0.953 0.69 1.436-0.077 0.15-0.152 0.301-0.226 0.452 0.163 0.028 0.328 0.053 0.493 0.077 0.005-0.146 0.012-0.293 0.019-0.439-0.17-0.448-0.258-0.92-0.416-1.372-0.078-0.27 0.264-0.248 0.436-0.228 0.625 0.103 1.244-0.060 1.834-0.256 0.188 0.48 0.298 1.014 0.144 1.52-0.192 0.246-0.433 0.448-0.629 0.691 0.19 0.029 0.38 0.038 0.57 0.012 0.27-0.574 0.649-1.183 0.528-1.838 0.148 0.071 0.295 0.14 0.443 0.211 0.169 0.295 0.306 0.607 0.277 0.958-0.028 0.251 0.198 0.408 0.332 0.586 0.076-0.173 0.149-0.346 0.22-0.52-0.109-0.061-0.218-0.121-0.326-0.182-0.032-0.454-0.084-0.907-0.312-1.309 0.055-0.482 0.14-0.964 0.056-1.448 0.433 0.337 0.13 1.002 0.528 1.373 0.163 0.235 0.457 0.17 0.691 0.108-0.686-0.329-0.43-1.295-1.027-1.693-0.716-0.059-1.432-0.298-2.144-0.058 0.065-0.625 0.056-1.302-0.383-1.802 0.053-0.233 0.191-0.586-0.089-0.726-0.253-0.118-0.385 0.184-0.556 0.312M7.026 11.472c-0.203 0.467-0.404 0.934-0.607 1.4 0.13 0.352 0.316 0.686 0.394 1.054-0.053 0.554-0.006 1.111-0.034 1.666-0.154 0.488-0.401 0.942-0.594 1.416 0.082 0.058 0.245 0.173 0.326 0.229 0.377-0.704 0.797-1.394 0.986-2.18 0.258 0.69 0.217 1.435 0.288 2.156 0.107 0.006 0.318 0.017 0.425 0.023-0.001-0.466 0.005-0.931 0.002-1.397 0.014-0.616-0.26-1.187-0.337-1.789 0.030-0.343 0.122-0.678 0.169-1.019 0.198 0.302 0.528 0.458 0.824 0.644 0.047-0.113 0.094-0.224 0.142-0.337-0.203-0.142-0.407-0.282-0.611-0.421-0.086-0.404-0.169-0.809-0.262-1.212-0.101-0.115-0.2-0.23-0.299-0.347-0.079-0.036-0.238-0.106-0.317-0.14-0.166 0.086-0.331 0.172-0.497 0.254z"></path>
<path fill="#fee011" d="M11.158 5.19c0.667 0.004 1.336 0.017 2.003 0.020 0.048 0.116 0.096 0.234 0.144 0.35-0.472 0.419-0.906 0.883-1.415 1.26-0.252-0.54-0.49-1.086-0.732-1.631z"></path>
<path fill="#fee011" d="M10.658 5.612c0.194 0.433 0.388 0.866 0.583 1.298-0.086 0.074-0.173 0.148-0.259 0.22-0.131-0.367-0.316-0.714-0.575-1.007 0.084-0.17 0.167-0.341 0.251-0.511z"></path>
<path fill="#fee011" d="M8.266 6.952c0.206-0.576 0.852-0.846 1.43-0.745-0.166 0.49-0.695 0.936-0.511 1.483 0.455-0.013 0.911-0.016 1.366 0.001-0.167 0.515-0.601 1.002-1.184 0.978-0.85 0.037-1.444-0.967-1.1-1.717z"></path>
<path fill="#fee011" d="M14.293 6.383c0.414-0.047 0.878 0.020 1.148 0.372 0.496 0.548 0.298 1.531-0.389 1.823-0.605 0.294-1.376-0.131-1.502-0.776-0.12-0.408 0.068-0.809 0.286-1.144 0.218 0.355 0.384 0.745 0.636 1.078 0.158 0.137 0.378-0.006 0.412-0.187-0.142-0.414-0.408-0.769-0.59-1.165z"></path>
<path fill="#fee011" d="M10.196 6.527c0.115 0.184 0.223 0.372 0.329 0.562-0.208-0.006-0.414-0.012-0.622-0.019 0.097-0.181 0.194-0.362 0.293-0.542z"></path>
<path fill="#fee011" d="M6.894 13.182c-0.199-0.036-0.124-0.481 0.076-0.402 0.062 0.12 0.060 0.334-0.076 0.402z"></path>
<path fill="#fee011" d="M13.462 12.823c0.196-0.065 0.268 0 0.215 0.193-0.196 0.062-0.268-0.001-0.215-0.193z"></path>
<path fill="#000" d="M11.681 0.293c0.342-0.136 0.748-0.032 0.995 0.235 3.548 3.529 7.080 7.076 10.628 10.607 0.269 0.258 0.532 0.598 0.464 0.997-0.044 0.428-0.43 0.689-0.701 0.98-3.301 3.298-6.596 6.601-9.893 9.904-0.316 0.294-0.592 0.718-1.055 0.772-0.368 0.058-0.7-0.157-0.948-0.406-3.548-3.575-7.115-7.132-10.663-10.706-0.401-0.379-0.335-1.055 0.068-1.408 3.474-3.491 6.961-6.97 10.441-10.456 0.204-0.192 0.401-0.408 0.662-0.52M11.794 0.763c-0.301 0.214-0.538 0.504-0.803 0.758-3.338 3.34-6.676 6.682-10.012 10.024-0.176 0.168-0.378 0.422-0.223 0.673 0.198 0.274 0.466 0.486 0.7 0.728 3.257 3.266 6.515 6.53 9.772 9.798 0.209 0.197 0.389 0.438 0.652 0.568 0.212 0.061 0.406-0.065 0.545-0.212 3.377-3.38 6.755-6.758 10.134-10.136 0.233-0.244 0.508-0.456 0.694-0.742 0.169-0.284-0.082-0.559-0.272-0.749-3.502-3.5-7.006-7-10.51-10.499-0.169-0.179-0.427-0.376-0.676-0.211z"></path>
<path fill="#000" d="M12.522 3.51c0.414 0.046 0.875-0.076 1.26 0.098 0.412 0.349-0.001 0.812-0.288 1.074 0.167 0.419 0.356 0.829 0.553 1.235 0.539-0.138 1.156-0.094 1.583 0.295 0.781 0.631 0.791 1.951 0.023 2.596-0.642 0.6-1.759 0.487-2.276-0.22-0.586-0.71-0.432-1.808 0.234-2.413-0.016-0.032-0.048-0.097-0.065-0.13-0.408 0.38-0.823 0.754-1.225 1.139-0.008 0.33-0.101 0.727-0.467 0.824-0.348 0.134-0.599-0.182-0.857-0.352-0.166 0.521-0.426 1.067-0.956 1.3-0.74 0.389-1.727 0.031-2.088-0.712-0.451-0.799-0.122-1.938 0.719-2.33 0.37-0.205 0.804-0.169 1.206-0.108 0.212-0.425 0.536-0.859 0.326-1.352-0.074-0.017-0.224-0.050-0.3-0.067-0.031-0.198-0.062-0.396-0.092-0.593 0.563 0.023 1.138-0.066 1.692 0.049-0.005 0.342-0.486 0.468-0.676 0.732 0.636 0.052 1.276 0.044 1.913 0.066 0.166-0.192 0.346-0.371 0.515-0.559-0.253-0.008-0.506-0.011-0.758-0.013 0.008-0.187 0.017-0.373 0.025-0.559M11.158 5.19c0.242 0.545 0.48 1.091 0.732 1.631 0.509-0.377 0.943-0.841 1.415-1.26-0.048-0.116-0.096-0.234-0.144-0.35-0.667-0.004-1.336-0.017-2.003-0.020M10.658 5.612c-0.084 0.17-0.167 0.341-0.251 0.511 0.259 0.293 0.444 0.64 0.575 1.007 0.086-0.072 0.173-0.145 0.259-0.22-0.196-0.432-0.389-0.865-0.583-1.298M8.266 6.952c-0.343 0.75 0.251 1.754 1.1 1.717 0.583 0.024 1.018-0.463 1.184-0.978-0.455-0.017-0.911-0.014-1.366-0.001-0.184-0.547 0.346-0.994 0.511-1.483-0.578-0.101-1.224 0.169-1.43 0.745M14.293 6.383c0.182 0.396 0.449 0.751 0.59 1.165-0.034 0.181-0.253 0.324-0.412 0.187-0.252-0.332-0.418-0.722-0.636-1.078-0.217 0.335-0.406 0.736-0.286 1.144 0.126 0.646 0.898 1.070 1.502 0.776 0.686-0.292 0.884-1.274 0.389-1.823-0.27-0.352-0.734-0.419-1.148-0.372M10.196 6.527c-0.098 0.18-0.196 0.361-0.293 0.542 0.208 0.007 0.414 0.013 0.622 0.019-0.106-0.19-0.214-0.378-0.329-0.562z"></path>
<path fill="#000" d="M7.702 10.208c0.27-0.154 0.607 0.076 0.655 0.36 0.101 0.334-0.181 0.774-0.558 0.684-0.464-0.114-0.516-0.84-0.097-1.044z"></path>
<path fill="#000" d="M13.596 10.84c0.17-0.128 0.302-0.43 0.556-0.312 0.28 0.14 0.142 0.493 0.089 0.726 0.439 0.5 0.448 1.177 0.383 1.802 0.713-0.24 1.428-0.001 2.144 0.058 0.598 0.398 0.341 1.364 1.027 1.693-0.234 0.062-0.528 0.127-0.691-0.108-0.398-0.371-0.095-1.036-0.528-1.373 0.084 0.485-0.001 0.966-0.056 1.448 0.228 0.402 0.28 0.856 0.312 1.309 0.108 0.061 0.217 0.121 0.326 0.182-0.071 0.174-0.144 0.347-0.22 0.52-0.134-0.178-0.36-0.335-0.332-0.586 0.029-0.35-0.108-0.662-0.277-0.958-0.148-0.071-0.295-0.14-0.443-0.211 0.121 0.655-0.258 1.265-0.528 1.838-0.19 0.026-0.38 0.017-0.57-0.012 0.196-0.244 0.437-0.445 0.629-0.691 0.154-0.506 0.044-1.040-0.144-1.52-0.589 0.196-1.208 0.359-1.834 0.256-0.172-0.020-0.514-0.042-0.436 0.228 0.158 0.451 0.246 0.924 0.416 1.372-0.007 0.146-0.014 0.293-0.019 0.439-0.166-0.024-0.33-0.049-0.493-0.077 0.073-0.151 0.149-0.302 0.226-0.452-0.222-0.484-0.511-0.934-0.69-1.436-0.421 0.185-0.732 0.554-0.942 0.954-0.186 0.311 0.136 0.703-0.182 0.962-0.089-0.19-0.168-0.384-0.246-0.578 0.27-0.578 0.498-1.2 0.97-1.652 0.025-0.545-0.236-1.030-0.432-1.52-0.211 0.126-0.305 0.347-0.365 0.575-0.158-0.016-0.353 0.014-0.424-0.167 0.050-0.527 0.112-1.061 0.010-1.586 0.454 0.040 0.943-0.024 1.355 0.21 0.319 0.156 0.56 0.433 0.886 0.577 0.197-0.002 0.373-0.114 0.512-0.244 0.084-0.403 0.049-0.853 0.342-1.182-0.106-0.164-0.216-0.325-0.33-0.484M13.462 12.823c-0.053 0.192 0.019 0.256 0.215 0.193 0.053-0.193-0.019-0.258-0.215-0.193z"></path>
<path fill="#000" d="M7.026 11.472c0.166-0.083 0.331-0.168 0.497-0.254 0.079 0.035 0.238 0.104 0.317 0.14 0.098 0.116 0.198 0.232 0.299 0.347 0.092 0.403 0.175 0.808 0.262 1.212 0.204 0.139 0.408 0.28 0.611 0.421-0.048 0.113-0.095 0.224-0.142 0.337-0.296-0.186-0.626-0.342-0.824-0.644-0.047 0.341-0.139 0.676-0.169 1.019 0.077 0.602 0.352 1.174 0.337 1.789 0.002 0.466-0.004 0.931-0.002 1.397-0.107-0.006-0.318-0.017-0.425-0.023-0.071-0.721-0.030-1.466-0.288-2.156-0.19 0.786-0.61 1.476-0.986 2.18-0.082-0.056-0.245-0.172-0.326-0.229 0.193-0.474 0.44-0.928 0.594-1.416 0.028-0.554-0.019-1.111 0.034-1.666-0.078-0.367-0.264-0.702-0.394-1.054 0.203-0.467 0.404-0.934 0.607-1.4M6.894 13.182c0.136-0.068 0.138-0.282 0.076-0.402-0.199-0.079-0.275 0.366-0.076 0.402z"></path>
</svg>
