<!-- Generated by IcoMoon.io -->
<svg version="1.1" xmlns="http://www.w3.org/2000/svg" width="27" height="24" viewBox="0 0 27 24">
<title>warning--skewed-t-roads-left--g1</title>
<path fill="#e20a16" d="M13.462 0h0.469c0.263 0.156 0.492 0.369 0.64 0.64 4.277 7.439 8.592 14.858 12.857 22.304v0.501c-0.155 0.162-0.309 0.325-0.476 0.476-7.061-0.125-14.128-0.019-21.193-0.053-1.758 0.025-3.519-0.060-5.275 0.053-0.167-0.159-0.326-0.325-0.485-0.492v-0.418c4.202-7.424 8.53-14.777 12.763-22.184 0.169-0.325 0.418-0.595 0.699-0.826M3.548 21.592c6.784 0.005 13.569 0.005 20.355 0-3.39-5.877-6.78-11.755-10.18-17.626-3.397 5.872-6.791 11.745-10.175 17.626z"></path>
<path fill="#fff" d="M3.548 21.592c3.383-5.881 6.778-11.753 10.175-17.626 3.4 5.871 6.79 11.749 10.18 17.626-6.786 0.005-13.57 0.005-20.355 0M8.019 14.895c0.317 0.553 0.632 1.107 0.955 1.655 1.094-0.649 2.205-1.269 3.308-1.904 0.003 2.012-0.001 4.024 0.001 6.034 0.636 0 1.274 0 1.91 0 0.003-2.377-0.001-4.755 0.003-7.133 1.099-0.64 2.208-1.264 3.308-1.904-0.314-0.555-0.629-1.109-0.95-1.661-2.846 1.635-5.694 3.267-8.534 4.911z"></path>
<path fill="#000" d="M8.019 14.895c2.84-1.644 5.689-3.276 8.534-4.911 0.321 0.551 0.636 1.105 0.95 1.661-1.1 0.639-2.209 1.263-3.308 1.904-0.004 2.378 0 4.756-0.003 7.133-0.636 0-1.274 0-1.91 0-0.003-2.011 0.001-4.022-0.001-6.034-1.103 0.635-2.213 1.255-3.308 1.904-0.322-0.549-0.638-1.103-0.955-1.655z"></path>
<path fill="#120102" opacity="0.08" d="M0 23.428c0.159 0.167 0.318 0.333 0.485 0.492l0.162 0.080h-0.647v-0.572z"></path>
<path fill="#190102" opacity="0.11" d="M26.953 23.92c0.167-0.151 0.321-0.314 0.476-0.476v0.555h-0.62l0.144-0.080z"></path>
<path fill="#c20813" opacity="0.86" d="M0.485 23.92c1.755-0.114 3.516-0.029 5.275-0.053 7.064 0.034 14.131-0.071 21.193 0.053l-0.144 0.080h-26.161l-0.162-0.080z"></path>
</svg>
