<!-- Generated by IcoMoon.io -->
<svg version="1.1" xmlns="http://www.w3.org/2000/svg" width="27" height="24" viewBox="0 0 27 24">
<title>warning--panda-crossing--g1</title>
<path fill="#232922" d="M12.634 0.54c0.626-0.337 1.611-0.195 1.915 0.51 3.273 5.743 6.517 11.503 9.815 17.231 0.817 1.435 1.68 2.851 2.321 4.377v0.253c-0.2 0.332-0.423 0.651-0.693 0.931-2.531-0.049-5.065 0-7.596 0.039-2.704-0.079-5.429-0.112-8.126 0.117h-9.526c-1.067-0.685-0.181-1.947 0.178-2.788 3.286-6.186 6.913-12.188 10.239-18.351 0.312-0.171 0.522-0.492 0.505-0.854 0.289-0.507 0.515-1.081 0.968-1.467M2.934 21.921c6.97-0.096 13.94-0.052 20.909-0.158-3.488-6.096-6.931-12.218-10.471-18.284-3.464 6.154-7 12.27-10.437 18.441z"></path>
<path fill="#f9e733" d="M11.161 2.862c0.042-0.342 0.191-0.68 0.505-0.854 0.017 0.363-0.193 0.683-0.505 0.854z"></path>
<path fill="#f9e733" d="M2.934 21.921c3.437-6.171 6.973-12.287 10.437-18.441 3.54 6.065 6.984 12.188 10.471 18.284-6.968 0.106-13.938 0.062-20.909 0.158M12.512 12.955l0.211 0.203c-0.081-0.039-0.242-0.114-0.322-0.153-0.854 0.374-1.633 0.908-2.237 1.625-0.003 0.071-0.012 0.215-0.015 0.287-0.146-0.010-0.436-0.027-0.582-0.037 0.008 0.29 0.024 0.581 0.045 0.869-0.843 1.187 0.064 2.529 0.509 3.672 0.334 0.277 0.809 0.262 1.215 0.347-0.119 0.183-0.233 0.368-0.346 0.554 0.334 0.861 1.492 0.549 2.079 0.136 1.126-0.698 1.539-2.014 1.786-3.227 0.3 0.099 0.601 0.2 0.9 0.304 0.024 0.133 0.069 0.396 0.092 0.529 0.483 0.025 0.997 0.123 1.46-0.065 0.482-0.666 0.529-1.512 0.373-2.294-0.507-0.871-0.777-1.93-1.586-2.59-1.047-0.722-2.44-0.547-3.582-0.159z"></path>
<path fill="#fefefe" d="M12.512 12.955c1.141-0.388 2.534-0.562 3.582 0.159 0.809 0.66 1.079 1.719 1.586 2.59-0.133 0.129-0.267 0.258-0.398 0.391-0.181-0.018-0.363-0.039-0.544-0.057-0.366 0.472-0.754 0.94-0.984 1.497-0.299-0.104-0.599-0.205-0.9-0.304 0.126-0.175 0.26-0.344 0.394-0.514-0.143-0.732 0.211-1.623-0.391-2.207-0.599-0.755-1.346-1.427-2.346-1.556z"></path>
<path fill="#fefefe" d="M10.164 14.63c0.604-0.717 1.383-1.25 2.237-1.625 0.081 0.039 0.242 0.114 0.322 0.153 0.264 0.151 0.525 0.304 0.784 0.463 0.050 0.681 0.641 1.165 0.71 1.828-0.129 1.089-0.561 2.182-1.326 2.982-0.525 0.438-1.217 0.702-1.556 1.338-0.406-0.086-0.881-0.071-1.215-0.347-0.445-1.143-1.351-2.486-0.509-3.672 0.255-0.222 0.581-0.445 0.537-0.832 0.003-0.072 0.012-0.216 0.015-0.287M12.334 15.551c0.012 0.242 0.027 0.482 0.042 0.723 0.243 0.091 0.488 0.18 0.732 0.272 0.844-0.569-0.032-1.418-0.774-0.995M9.941 17.661c0.008 0.186 0.017 0.373 0.025 0.559 0.089-0.003 0.267-0.010 0.354-0.013 0-0.171 0-0.342 0-0.514-0.096-0.008-0.284-0.024-0.379-0.032M11.132 18.121c0.274 0.255 0.794 0.676 1.042 0.163-0.183-0.235-0.391-0.448-0.594-0.666-0.149 0.168-0.299 0.336-0.448 0.504M10.505 19.351c0.408 0.564 0.807-0.393 0 0z"></path>
<path fill="#242526" d="M12.512 12.955c1 0.129 1.747 0.801 2.346 1.556 0.603 0.584 0.248 1.475 0.391 2.207-0.134 0.169-0.269 0.339-0.394 0.514-0.247 1.213-0.66 2.529-1.786 3.227-0.587 0.413-1.745 0.725-2.079-0.136 0.112-0.186 0.227-0.371 0.346-0.554 0.339-0.636 1.030-0.9 1.556-1.338 0.765-0.801 1.197-1.893 1.326-2.982-0.069-0.663-0.66-1.146-0.71-1.828-0.258-0.159-0.52-0.312-0.784-0.463l-0.211-0.203z"></path>
<path fill="#242526" d="M9.941 17.661c0.096 0.008 0.284 0.024 0.379 0.032 0 0.171 0 0.342 0 0.514-0.087 0.003-0.265 0.010-0.354 0.013-0.008-0.186-0.017-0.373-0.025-0.559z"></path>
<path fill="#242526" d="M11.132 18.121c0.149-0.168 0.299-0.336 0.448-0.504 0.203 0.218 0.411 0.431 0.594 0.666-0.248 0.514-0.769 0.092-1.042-0.163z"></path>
<path fill="#35342f" d="M9.566 14.88c0.146 0.010 0.436 0.027 0.582 0.037 0.044 0.388-0.282 0.611-0.537 0.832-0.022-0.289-0.037-0.579-0.045-0.869z"></path>
<path fill="#303030" d="M12.334 15.551c0.742-0.423 1.618 0.426 0.774 0.995-0.243-0.092-0.488-0.181-0.732-0.272-0.015-0.242-0.030-0.482-0.042-0.723z"></path>
<path fill="#252423" d="M17.282 16.095c0.131-0.133 0.265-0.262 0.398-0.391 0.156 0.782 0.109 1.628-0.373 2.294-0.463 0.188-0.977 0.091-1.46 0.065-0.024-0.133-0.069-0.396-0.092-0.529 0.23-0.557 0.618-1.025 0.984-1.497 0.181 0.018 0.363 0.039 0.544 0.057z"></path>
<path fill="#5b5251" d="M10.505 19.351c0.807-0.393 0.408 0.564 0 0z"></path>
<path fill="#6f6816" d="M10.27 24c2.697-0.23 5.423-0.196 8.126-0.117l0.262 0.117h-8.388z"></path>
<path fill="#ada83d" d="M18.396 23.883c2.531-0.039 5.065-0.087 7.596-0.039l-0.159 0.156h-7.175l-0.262-0.117z"></path>
</svg>
