<!-- Generated by IcoMoon.io -->
<svg version="1.1" xmlns="http://www.w3.org/2000/svg" width="24" height="24" viewBox="0 0 24 24">
<title>warning--railroad-intersection--g5</title>
<path fill="#ffd033" d="M11.711 0h0.499c0.275 0.116 0.533 0.272 0.74 0.487 3.535 3.546 7.088 7.076 10.618 10.627 0.488 0.457 0.464 1.294-0.035 1.733-3.586 3.578-7.163 7.165-10.748 10.742-0.44 0.458-1.238 0.442-1.667-0.024-3.563-3.559-7.122-7.124-10.686-10.684-0.182-0.184-0.316-0.408-0.432-0.638v-0.499c0.163-0.538 0.618-0.887 0.994-1.271 3.319-3.322 6.643-6.638 9.96-9.962 0.215-0.221 0.474-0.391 0.757-0.511M11.568 0.42c-0.151 0.079-0.274 0.198-0.396 0.313-3.499 3.5-7.001 6.998-10.5 10.501-0.401 0.336-0.467 1-0.076 1.369 3.556 3.564 7.121 7.121 10.678 10.684 0.338 0.394 1.003 0.413 1.354 0.024 3.562-3.56 7.123-7.122 10.684-10.684 0.39-0.353 0.368-1.010-0.020-1.356-3.516-3.526-7.042-7.043-10.561-10.566-0.28-0.326-0.761-0.487-1.162-0.286z"></path>
<path fill="#ffd033" d="M11.694 0.898c0.224-0.187 0.541-0.059 0.707 0.143 3.498 3.503 7.003 7 10.501 10.502 0.228 0.178 0.314 0.544 0.078 0.751-3.533 3.548-7.080 7.082-10.616 10.627-0.18 0.236-0.554 0.281-0.752 0.041-3.545-3.538-7.084-7.085-10.626-10.627-0.288-0.224-0.188-0.636 0.077-0.83 3.548-3.53 7.068-7.094 10.632-10.607M14.234 6.096c-0.002 0.248-0.005 0.497-0.007 0.745-0.264 0.005-0.527 0.007-0.79 0.011-0.001 0.26 0.001 0.52 0.005 0.78 0.26 0 0.522 0 0.782 0 0.013 0.269 0.007 0.538-0.016 0.805-0.257-0.004-0.512-0.006-0.769-0.006-0.002 0.26-0.002 0.521-0.001 0.781 0.263 0.002 0.527 0.005 0.791 0.008 0.001 0.252 0.001 0.505 0.001 0.757-0.264 0.004-0.528 0.007-0.792 0.010-0.001 0.262-0.001 0.523 0 0.785 0.264 0.002 0.528 0.005 0.793 0.010-0.001 0.259-0.002 0.518-0.007 0.778-0.262 0-0.522 0-0.784 0-0.004 0.263-0.005 0.526-0.004 0.788 0.264 0.002 0.529 0.006 0.794 0.011-0.001 0.259-0.002 0.518-0.006 0.776-0.262 0-0.522 0-0.784 0-0.004 0.258-0.006 0.515-0.006 0.773 0.265 0.002 0.529 0.006 0.794 0.011 0 0.26-0.001 0.521-0.002 0.782-0.264 0.002-0.527 0.004-0.791 0.006 0 0.257 0 0.512 0.001 0.769 0.264 0.002 0.529 0.005 0.794 0.008-0.001 0.257-0.004 0.514-0.008 0.77-0.26 0-0.521 0-0.782 0-0.004 0.26-0.006 0.521-0.006 0.781 0.264 0.002 0.529 0.005 0.793 0.008 0.001 0.257 0.001 0.512 0.004 0.769 0.090 0.007 0.271 0.019 0.361 0.026 0.011-0.266 0.017-0.533 0.022-0.798 0.384-0.005 0.769-0.005 1.154 0 0.005 0.259 0.010 0.52 0.014 0.78 0.124 0.001 0.247 0.004 0.371 0.005 0.006-0.262 0.012-0.523 0.018-0.784 0.259-0.002 0.52-0.005 0.779-0.007 0.001-0.257 0.002-0.515 0.004-0.772-0.265-0.006-0.529-0.011-0.793-0.014-0.002-0.256-0.002-0.511-0.001-0.767 0.263-0.002 0.527-0.005 0.791-0.007 0.001-0.257 0.002-0.514 0.004-0.77-0.264-0.007-0.529-0.012-0.794-0.016-0.001-0.259 0-0.516 0.001-0.774 0.263-0.004 0.526-0.006 0.79-0.007 0.001-0.256 0.002-0.51 0.005-0.764-0.265-0.006-0.53-0.011-0.796-0.014-0.001-0.258 0-0.516 0.001-0.774 0.264-0.004 0.528-0.006 0.792-0.007 0-0.264-0.002-0.527-0.010-0.79-0.262 0-0.522-0.001-0.782-0.002 0.001-0.259 0.005-0.518 0.008-0.778 0.26-0.002 0.521-0.005 0.781-0.007 0.001-0.262 0.001-0.523 0-0.785-0.26-0.002-0.521-0.005-0.781-0.007-0.001-0.253-0.001-0.508 0-0.761 0.26-0.002 0.521-0.005 0.781-0.007 0.001-0.259 0.001-0.518 0-0.778-0.264-0.002-0.527-0.004-0.79-0.006 0.001-0.264 0.004-0.527 0.008-0.79 0.263-0.005 0.526-0.010 0.788-0.024-0.004-0.254-0.006-0.509-0.008-0.764-0.262-0.002-0.524-0.004-0.786-0.007 0-0.25 0-0.499 0-0.75-0.13 0.002-0.259 0.005-0.389 0.007-0.002 0.247-0.004 0.496-0.007 0.744-0.385 0.006-0.77 0.006-1.156 0-0.004-0.25-0.005-0.498-0.007-0.748-0.094 0-0.278-0.001-0.372-0.001M4.534 9.030c-0.005 0.977-0.007 1.955 0.001 2.932 1.162 0.006 2.323-0.004 3.486 0.005 0.007 1.955-0.006 3.911 0.006 5.866 0.978-0.004 1.956 0.018 2.933-0.011-0.006-1.951-0.001-3.901-0.002-5.851 0.672-0.016 1.344-0.001 2.016-0.008 0.006-0.978 0.006-1.955 0-2.932-2.813-0.004-5.627-0.004-8.44 0M17.354 9.031c-0.002 0.976-0.002 1.952 0 2.928 0.678 0.007 1.355 0.005 2.033 0.001 0.002-0.977 0.002-1.954 0-2.929-0.678-0.006-1.355-0.006-2.033 0z"></path>
<path fill="#ffd033" d="M14.611 7.636c0.389-0.006 0.778-0.006 1.168-0.002 0.004 0.269 0.002 0.538-0.001 0.806-0.389 0.002-0.778 0.002-1.166-0.002-0.001-0.268-0.001-0.535 0-0.802z"></path>
<path fill="#ffd033" d="M14.611 9.22c0.39-0.007 0.78-0.007 1.171 0.002 0 0.252-0.001 0.504-0.001 0.756-0.39 0.008-0.78 0.010-1.17 0.002-0.001-0.253-0.001-0.508 0-0.761z"></path>
<path fill="#ffd033" d="M14.611 10.78c0.39-0.007 0.781-0.007 1.172 0.004-0.001 0.258-0.002 0.517-0.007 0.776-0.389 0.002-0.776 0.002-1.165-0.002-0.001-0.26-0.001-0.518 0-0.778z"></path>
<path fill="#ffd033" d="M14.611 12.355c0.39-0.007 0.781-0.006 1.172 0.005-0.001 0.256-0.002 0.511-0.006 0.767-0.389 0.004-0.778 0.002-1.166-0.002-0.001-0.257-0.001-0.512 0-0.769z"></path>
<path fill="#ffd033" d="M14.611 13.915c0.389-0.006 0.779-0.006 1.169 0 0.001 0.259 0.001 0.518 0 0.778-0.39 0.006-0.78 0.006-1.169 0-0.001-0.259-0.001-0.518 0-0.778z"></path>
<path fill="#ffd033" d="M14.61 15.482c0.39-0.005 0.781-0.005 1.171 0 0 0.257 0 0.514-0.001 0.77-0.39 0.006-0.78 0.006-1.169 0-0.001-0.257-0.002-0.514-0.001-0.77z"></path>
<path fill="#000" d="M11.568 0.42c0.401-0.202 0.882-0.041 1.162 0.286 3.52 3.523 7.045 7.040 10.561 10.566 0.389 0.346 0.41 1.003 0.020 1.356-3.56 3.562-7.122 7.123-10.684 10.684-0.35 0.389-1.015 0.37-1.354-0.024-3.557-3.563-7.122-7.12-10.678-10.684-0.391-0.37-0.325-1.033 0.076-1.369 3.499-3.503 7.001-7.001 10.5-10.501 0.122-0.115 0.245-0.234 0.396-0.313M11.694 0.898c-3.564 3.512-7.084 7.076-10.632 10.607-0.265 0.194-0.365 0.606-0.077 0.83 3.542 3.542 7.081 7.090 10.626 10.627 0.198 0.24 0.572 0.196 0.752-0.041 3.536-3.545 7.084-7.079 10.616-10.627 0.236-0.208 0.15-0.574-0.078-0.751-3.498-3.503-7.003-7-10.501-10.502-0.166-0.202-0.482-0.33-0.707-0.143z"></path>
<path fill="#000" d="M14.234 6.096c0.094 0 0.278 0.001 0.372 0.001 0.002 0.25 0.004 0.498 0.007 0.748 0.385 0.006 0.77 0.006 1.156 0 0.004-0.248 0.005-0.497 0.007-0.744 0.13-0.002 0.259-0.005 0.389-0.007 0 0.251 0 0.5 0 0.75 0.262 0.004 0.524 0.005 0.786 0.007 0.002 0.256 0.005 0.51 0.008 0.764-0.263 0.014-0.526 0.019-0.788 0.024-0.005 0.263-0.007 0.526-0.008 0.79 0.263 0.002 0.526 0.004 0.79 0.006 0.001 0.259 0.001 0.518 0 0.778-0.26 0.002-0.521 0.005-0.781 0.007-0.001 0.253-0.001 0.508 0 0.761 0.26 0.002 0.521 0.005 0.781 0.007 0.001 0.262 0.001 0.523 0 0.785-0.26 0.002-0.521 0.005-0.781 0.007-0.004 0.259-0.007 0.518-0.008 0.778 0.26 0.001 0.521 0.002 0.782 0.002 0.007 0.263 0.010 0.526 0.010 0.79-0.264 0.001-0.528 0.004-0.792 0.007-0.001 0.258-0.002 0.516-0.001 0.774 0.265 0.004 0.53 0.008 0.796 0.014-0.002 0.254-0.004 0.509-0.005 0.764-0.264 0.001-0.527 0.004-0.79 0.007-0.001 0.258-0.002 0.515-0.001 0.774 0.265 0.004 0.53 0.008 0.794 0.016-0.001 0.257-0.002 0.514-0.004 0.77-0.264 0.002-0.528 0.005-0.791 0.007-0.001 0.256-0.001 0.511 0.001 0.767 0.264 0.004 0.528 0.008 0.793 0.014-0.001 0.257-0.002 0.515-0.004 0.772-0.259 0.002-0.52 0.005-0.779 0.007-0.006 0.26-0.012 0.522-0.018 0.784-0.124-0.001-0.247-0.004-0.371-0.005-0.005-0.26-0.010-0.521-0.014-0.78-0.385-0.005-0.77-0.005-1.154 0-0.005 0.265-0.011 0.532-0.022 0.798-0.090-0.007-0.271-0.019-0.361-0.026-0.002-0.257-0.002-0.512-0.004-0.769-0.264-0.004-0.529-0.006-0.793-0.008 0-0.26 0.002-0.521 0.006-0.781 0.262 0 0.522 0 0.782 0 0.005-0.257 0.007-0.514 0.008-0.77-0.265-0.004-0.53-0.006-0.794-0.008-0.001-0.257-0.001-0.512-0.001-0.769 0.264-0.002 0.527-0.004 0.791-0.006 0.001-0.262 0.002-0.522 0.002-0.782-0.265-0.005-0.529-0.008-0.794-0.011 0-0.258 0.002-0.515 0.006-0.773 0.262 0 0.522 0 0.784 0 0.004-0.258 0.005-0.517 0.006-0.776-0.265-0.005-0.53-0.008-0.794-0.011-0.001-0.263 0-0.526 0.004-0.788 0.262 0 0.522 0 0.784 0 0.005-0.259 0.006-0.518 0.007-0.778-0.265-0.005-0.529-0.007-0.793-0.010-0.001-0.262-0.001-0.523 0-0.785 0.264-0.002 0.528-0.006 0.792-0.010 0-0.252 0-0.505-0.001-0.757-0.264-0.004-0.528-0.006-0.791-0.008-0.001-0.26-0.001-0.521 0.001-0.781 0.257 0 0.512 0.002 0.769 0.006 0.023-0.268 0.029-0.536 0.016-0.805-0.26 0-0.522 0-0.782 0-0.004-0.26-0.006-0.52-0.005-0.78 0.263-0.004 0.526-0.006 0.79-0.011 0.002-0.248 0.005-0.497 0.007-0.745M14.611 7.636c-0.001 0.266-0.001 0.534 0 0.802 0.389 0.005 0.778 0.005 1.166 0.002 0.004-0.269 0.005-0.538 0.001-0.806-0.39-0.004-0.779-0.004-1.168 0.002M14.611 9.22c-0.001 0.253-0.001 0.508 0 0.761 0.39 0.007 0.78 0.006 1.17-0.002 0-0.252 0.001-0.504 0.001-0.756-0.391-0.010-0.781-0.010-1.171-0.002M14.611 10.78c-0.001 0.259-0.001 0.517 0 0.778 0.389 0.005 0.776 0.005 1.165 0.002 0.005-0.259 0.006-0.518 0.007-0.776-0.391-0.011-0.782-0.011-1.172-0.004M14.611 12.355c-0.001 0.257-0.001 0.512 0 0.769 0.389 0.005 0.778 0.006 1.166 0.002 0.004-0.256 0.005-0.511 0.006-0.767-0.391-0.011-0.782-0.012-1.172-0.005M14.611 13.915c-0.001 0.259-0.001 0.518 0 0.778 0.389 0.006 0.779 0.006 1.169 0 0.001-0.259 0.001-0.518 0-0.778-0.39-0.006-0.78-0.006-1.169 0M14.61 15.482c-0.001 0.257 0 0.514 0.001 0.77 0.389 0.006 0.779 0.006 1.169 0 0.001-0.257 0.001-0.514 0.001-0.77-0.39-0.005-0.781-0.005-1.171 0z"></path>
<path fill="#000" d="M4.534 9.030c2.813-0.004 5.627-0.004 8.44 0 0.006 0.977 0.006 1.954 0 2.932-0.672 0.007-1.344-0.007-2.016 0.008 0.001 1.95-0.004 3.9 0.002 5.851-0.977 0.029-1.955 0.007-2.933 0.011-0.012-1.955 0.001-3.911-0.006-5.866-1.163-0.008-2.324 0.001-3.486-0.005-0.008-0.977-0.006-1.955-0.001-2.932z"></path>
<path fill="#000" d="M17.354 9.031c0.678-0.006 1.355-0.006 2.033 0 0.002 0.976 0.002 1.952 0 2.929-0.678 0.004-1.355 0.006-2.033-0.001-0.002-0.976-0.002-1.952 0-2.928z"></path>
</svg>
