<svg xmlns="http://www.w3.org/2000/svg" width="24" height="24">
    <path d="M11.917.414c.335-.055.618.163.844.383 3.48 3.48 6.954 6.967 10.445 10.438.44.334.593 1.037.14 1.427-3.554 3.568-7.126 7.12-10.684 10.685-.332.386-.985.374-1.316-.008C7.807 19.797 4.259 16.261.724 12.717c-.41-.335-.446-.994-.03-1.338C4.215 7.858 7.742 4.342 11.255.814c.19-.172.391-.379.662-.398zm-.098.482C8.25 4.362 4.765 7.926 1.227 11.426c-.529.331-.472.911.034 1.234 3.443 3.436 6.886 6.874 10.324 10.316.192.252.569.353.781.064 3.559-3.557 7.127-7.108 10.676-10.675.29-.211.161-.578-.077-.77-3.497-3.504-7.008-6.994-10.504-10.499-.158-.175-.407-.325-.642-.199z"/>
    <path d="M11.098 3.698a158.28 158.28 0 0 1 1.823-.002c.02 1.97-.017 3.941.017 5.91.014.667.479 1.177.971 1.568.78.679.92 1.77.876 2.746-.04 1.493.071 2.992-.06 4.48a76.84 76.84 0 0 0-1.796-.011c-.007-1.733.005-3.466-.005-5.198.041-.594-.557-.893-.912-1.262-.362.362-.944.672-.913 1.262-.011 1.732.004 3.464-.006 5.197-.606.002-1.211.001-1.817.001a856.684 856.684 0 0 1-.001-5.317c-.004-.829.44-1.612 1.087-2.113.454-.349.734-.902.732-1.477.01-1.927-.005-3.856.005-5.783z"/>
    <path fill="#ffef00" d="M11.819.896c.235-.126.484.024.642.199C15.957 4.6 19.468 8.09 22.965 11.594c.238.192.367.559.077.77-3.55 3.568-7.117 7.118-10.676 10.675-.212.289-.589.188-.781-.064A7723.268 7723.268 0 0 0 1.261 12.659c-.505-.323-.563-.902-.034-1.234 3.539-3.5 7.024-7.064 10.592-10.53zm-.721 2.802c-.01 1.927.005 3.856-.005 5.783a1.875 1.875 0 0 1-.732 1.477c-.647.502-1.091 1.284-1.087 2.113-.006 1.772-.004 3.545.001 5.317.606 0 1.211.001 1.817-.001.01-1.733-.005-3.466.006-5.197-.031-.59.551-.9.913-1.262.355.37.953.668.912 1.262.01 1.733-.002 3.466.005 5.198a76.774 76.774 0 0 1 1.796.011c.131-1.488.02-2.987.06-4.48.044-.976-.096-2.066-.876-2.746-.492-.391-.956-.901-.971-1.568-.034-1.969.004-3.94-.017-5.91-.607-.002-1.214-.001-1.823.002z"/>
</svg>
