<svg xmlns="http://www.w3.org/2000/svg" width="24" height="24">
    <path fill="#030304" d="M11.744 0h.108c1.096.864 2.06 1.879 3.068 2.841 2.959 2.986 6.042 5.862 8.808 9.029v.119c-.847 1.068-1.835 2.014-2.774 2.998-2.727 2.743-5.424 5.519-8.243 8.167-.38.389-.991.86-1.46.313-2.826-2.548-5.443-5.321-8.142-8C2.061 14.375.963 13.325 0 12.156v-.424A166.005 166.005 0 0 1 11.744 0zm-.193.56C7.876 4.163 4.264 7.832.611 11.459c-.249.187-.396.556-.104.784 3.604 3.626 7.241 7.223 10.852 10.843.18.254.59.309.795.053 3.616-3.618 7.239-7.227 10.857-10.843.264-.201.297-.545.024-.757C19.449 7.94 15.847 4.355 12.254.762 12.082.58 11.79.34 11.552.56z"/>
    <path fill="#ffdb03" d="M11.551.56c.239-.22.53.02.702.202 3.593 3.593 7.195 7.178 10.781 10.777.273.212.24.556-.024.757-3.618 3.616-7.241 7.226-10.857 10.843-.205.256-.614.201-.795-.053-3.611-3.62-7.247-7.218-10.852-10.843-.292-.228-.145-.597.104-.784C4.263 7.832 7.875 4.163 11.55.56zm1.048 8.541c-.235.48.469.336.729.358.015 2.26.003 4.521.005 6.781.395.012.789.011 1.184.007.047-2.254.014-4.51.018-6.765.277-.107.797.149.842-.263-.427-.632-.852-1.371-1.412-1.851-.559.411-.926 1.162-1.367 1.733zM7.832 7.959c-.014.548-.054 1.098.022 1.643.335.001.67.007 1.005.003.004 2.212.001 4.423.001 6.635.395.012.789.012 1.185.005.043-2.212.015-4.426.014-6.64.339.007.677-.003 1.014-.015-.054-.534.115-1.15-.084-1.634a65.151 65.151 0 0 0-3.157.003z"/>
    <path fill="#030303" d="M12.599 9.101c.441-.571.808-1.322 1.367-1.733.56.48.984 1.219 1.412 1.851-.045.412-.565.156-.842.263-.004 2.255.03 4.511-.018 6.765a29.21 29.21 0 0 1-1.184-.007c-.003-2.26.009-4.521-.005-6.781-.26-.022-.964.122-.729-.358zM8.858 9.605c.4-.004.8-.004 1.2 0 .001 2.214.03 4.428-.014 6.64-.396.007-.79.007-1.185-.005 0-2.212.003-4.423-.001-6.635z"/>
    <path fill="#c0111e" d="M7.832 7.959a65.151 65.151 0 0 1 3.157-.003c.199.484.03 1.1.084 1.634-.338.012-.675.022-1.014.015-.4-.004-.8-.004-1.2 0-.335.004-.67-.001-1.005-.003-.076-.545-.035-1.096-.022-1.643z"/>
</svg>
