<!-- Generated by IcoMoon.io -->
<svg version="1.1" xmlns="http://www.w3.org/2000/svg" width="28" height="24" viewBox="0 0 28 24">
<title>warning--cliff--g1</title>
<path fill="#ea1c03" d="M12.31 1.776c0.366-0.621 0.72-1.424 1.492-1.604 0.605 0.002 0.957 0.553 1.237 1.009 2.754 4.472 5.327 9.050 7.983 13.579 1.56 2.7 3.175 5.371 4.596 8.149-0.258 0.404-0.585 0.754-0.963 1.048-0.658-0.154-1.336-0.133-2.006-0.12-7.884 0.011-15.77-0.013-23.655 0.011-0.268-0.287-0.486-0.616-0.702-0.942 3.759-7.179 8.147-14.011 12.018-21.13M3.472 21.647c3.31 0.006 6.618-0.010 9.928 0.006 3.665 0.044 7.331 0.013 10.996 0.016-2.648-4.485-5.145-9.071-7.915-13.477-0.725-1.594-1.745-3.045-2.582-4.586-3.438 6.032-6.911 12.049-10.427 18.041z"></path>
<path fill="#fff" d="M3.472 21.647c3.516-5.992 6.989-12.008 10.427-18.041 0.837 1.541 1.857 2.992 2.582 4.586 0.585 1.576 1.015 3.204 0.846 4.904-1.099 0.107-2.204 0.047-3.306 0.063-0.023-0.164-0.066-0.49-0.089-0.654-0.169 0.169-0.334 0.342-0.48 0.532-0.062 0.070-0.185 0.212-0.246 0.284 0.655 0.67 0.957 1.578 1.19 2.463 0.438 1.082-0.636 2.186 0.11 3.221 0.135 1.052-0.409 1.92-1.106 2.648-3.31-0.016-6.618 0-9.928-0.006M9.587 12.988c-0.024 0.208-0.049 0.417-0.073 0.626-0.125 0.12-0.253 0.242-0.378 0.363 0.057 0.243 0.117 0.486 0.178 0.73 0.058-0.039 0.175-0.118 0.234-0.159 0.175 0.094 0.35 0.188 0.527 0.279 0.11-0.261 0.227-0.517 0.344-0.777 0.566-0.306 1.086-0.843 1.787-0.712 0.011-0.099 0.034-0.298 0.045-0.397 0.097-0.073 0.292-0.217 0.389-0.289-0.175-0.118-0.347-0.238-0.521-0.358-0.363 0.005-0.723-0.066-1.075-0.154-0.493 0.271-0.979 0.553-1.458 0.848z"></path>
<path fill="#fff" d="M9.678 13.502c0.292-0.67 1.164-1.168 1.889-1.044-0.608 0.388-1.244 0.728-1.889 1.044z"></path>
<path fill="#030303" d="M16.481 8.192c2.77 4.406 5.267 8.992 7.915 13.477-3.665-0.003-7.331 0.028-10.996-0.016 0.697-0.728 1.241-1.596 1.106-2.648-0.746-1.035 0.328-2.139-0.11-3.221-0.234-0.885-0.535-1.794-1.19-2.463 0.062-0.071 0.185-0.214 0.246-0.284 0.146-0.19 0.311-0.363 0.48-0.532 0.023 0.164 0.066 0.49 0.089 0.654 1.103-0.016 2.207 0.044 3.306-0.063 0.169-1.699-0.261-3.328-0.846-4.904z"></path>
<path fill="#040404" d="M9.587 12.988c0.478-0.295 0.965-0.577 1.458-0.848 0.352 0.088 0.712 0.159 1.075 0.154 0.174 0.12 0.345 0.24 0.521 0.358-0.097 0.071-0.292 0.216-0.389 0.289-0.011 0.099-0.034 0.298-0.045 0.397-0.701-0.131-1.221 0.405-1.787 0.712-0.214 0.024-0.428 0.044-0.644 0.060-0.075 0.146-0.151 0.292-0.227 0.438-0.058 0.041-0.175 0.12-0.234 0.159-0.062-0.243-0.122-0.486-0.178-0.73 0.125-0.122 0.253-0.243 0.378-0.363 0.024-0.209 0.049-0.418 0.073-0.626M9.678 13.502c0.645-0.316 1.281-0.657 1.889-1.044-0.725-0.123-1.597 0.375-1.889 1.044z"></path>
<path fill="#bbb" d="M9.775 14.11c0.216-0.016 0.43-0.036 0.644-0.060-0.117 0.259-0.234 0.516-0.344 0.777-0.177-0.091-0.352-0.185-0.527-0.279 0.076-0.146 0.152-0.292 0.227-0.438z"></path>
<path fill="#f29c97" d="M0.994 23.848c7.884-0.024 15.77 0 23.655-0.011 0.67-0.013 1.348-0.034 2.006 0.12l0.191 0.044h-25.698l-0.154-0.152z"></path>
</svg>
