<!-- Generated by IcoMoon.io -->
<svg version="1.1" xmlns="http://www.w3.org/2000/svg" width="24" height="24" viewBox="0 0 24 24">
<title>warning--trucks-rollover--g3</title>
<path fill="#fee011" d="M11.35 0.209c0.368-0.259 0.892-0.269 1.267-0.019 0.268 0.179 0.48 0.424 0.708 0.648 3.42 3.425 6.846 6.842 10.265 10.268 0.494 0.436 0.535 1.273 0.042 1.727-3.601 3.604-7.202 7.207-10.807 10.807-0.43 0.454-1.223 0.455-1.652 0.001-3.604-3.598-7.202-7.199-10.801-10.8-0.502-0.455-0.461-1.302 0.041-1.742 3.418-3.424 6.842-6.842 10.261-10.266 0.218-0.215 0.424-0.448 0.677-0.624M11.675 0.299c-0.341 0.146-0.572 0.454-0.835 0.702-3.398 3.403-6.8 6.803-10.202 10.204-0.25 0.235-0.448 0.564-0.385 0.922 0.054 0.42 0.428 0.677 0.698 0.964 3.444 3.442 6.887 6.883 10.327 10.328 0.217 0.228 0.53 0.384 0.852 0.328 0.386-0.052 0.635-0.384 0.896-0.637 3.478-3.485 6.961-6.962 10.441-10.445 0.404-0.371 0.356-1.052-0.054-1.399-3.559-3.563-7.12-7.124-10.682-10.684-0.263-0.287-0.684-0.422-1.056-0.282z"></path>
<path fill="#fee011" d="M11.794 0.766c0.246-0.133 0.505 0.029 0.67 0.212 3.538 3.541 7.082 7.076 10.618 10.621 0.259 0.204 0.253 0.605-0.011 0.803-3.558 3.559-7.118 7.117-10.675 10.678-0.145 0.163-0.383 0.265-0.592 0.158-0.283-0.194-0.498-0.468-0.745-0.704-3.198-3.199-6.397-6.397-9.596-9.596-0.235-0.245-0.504-0.462-0.7-0.74-0.13-0.245 0.031-0.496 0.21-0.658 3.364-3.36 6.724-6.722 10.084-10.084 0.242-0.233 0.458-0.499 0.738-0.69M12.028 4.429c-1.302 2.252-2.602 4.505-3.901 6.757 1.807 1.028 3.601 2.080 5.404 3.115 1.296-2.25 2.596-4.498 3.893-6.746-1.792-1.054-3.599-2.081-5.395-3.126M6.778 13.57c0.258 0.166 0.529 0.313 0.815 0.428 0.232 0.158 0.476 0.444 0.78 0.39 0.154-0.192 0.265-0.412 0.39-0.622 0.738 0.424 1.474 0.853 2.215 1.271-0.132 0.235-0.266 0.469-0.389 0.709 0.245 0.184 0.512 0.334 0.796 0.45 0.239 0.191 0.504 0.356 0.808 0.418 0.29-0.498 0.577-0.997 0.868-1.494 0.046-0.146 0.256-0.304 0.133-0.458-0.203-0.186-0.468-0.282-0.713-0.398-0.236-0.174-0.487-0.324-0.743-0.466-0.161 0.226-0.302 0.463-0.448 0.698-0.737-0.425-1.475-0.85-2.213-1.276 0.122-0.241 0.316-0.463 0.346-0.74-0.216-0.186-0.482-0.298-0.744-0.404-0.235-0.191-0.496-0.343-0.766-0.479-0.401 0.643-0.794 1.295-1.135 1.973M6.822 16.618c-0.001 0.209-0.001 0.418 0 0.628 3.45 0 6.901 0 10.352 0 0-0.21 0-0.419 0-0.628-3.451-0.001-6.901-0.001-10.352 0z"></path>
<path fill="#000" d="M11.675 0.299c0.372-0.14 0.793-0.005 1.056 0.282 3.563 3.559 7.123 7.121 10.682 10.684 0.41 0.347 0.458 1.028 0.054 1.399-3.48 3.482-6.964 6.96-10.441 10.445-0.262 0.253-0.51 0.586-0.896 0.637-0.322 0.056-0.635-0.1-0.852-0.328-3.44-3.445-6.883-6.887-10.327-10.328-0.27-0.287-0.644-0.544-0.698-0.964-0.062-0.358 0.136-0.686 0.385-0.922 3.402-3.401 6.804-6.8 10.202-10.204 0.263-0.248 0.494-0.556 0.835-0.702M11.794 0.766c-0.28 0.191-0.496 0.457-0.738 0.69-3.36 3.361-6.72 6.724-10.084 10.084-0.179 0.162-0.34 0.413-0.21 0.658 0.196 0.278 0.464 0.496 0.7 0.74 3.199 3.199 6.398 6.397 9.596 9.596 0.247 0.236 0.462 0.51 0.745 0.704 0.209 0.107 0.446 0.005 0.592-0.158 3.557-3.56 7.117-7.118 10.675-10.678 0.264-0.198 0.27-0.599 0.011-0.803-3.535-3.545-7.080-7.080-10.618-10.621-0.164-0.184-0.424-0.346-0.67-0.212z"></path>
<path fill="#000" d="M12.028 4.429c1.796 1.045 3.604 2.072 5.395 3.126-1.297 2.249-2.597 4.496-3.893 6.746-1.802-1.036-3.596-2.087-5.404-3.115 1.3-2.252 2.599-4.505 3.901-6.757z"></path>
<path fill="#000" d="M6.778 13.57c0.341-0.678 0.734-1.33 1.135-1.973 0.27 0.136 0.53 0.288 0.766 0.479 0.262 0.107 0.528 0.218 0.744 0.404-0.030 0.277-0.223 0.499-0.346 0.74 0.738 0.426 1.476 0.851 2.213 1.276 0.145-0.235 0.287-0.473 0.448-0.698 0.256 0.142 0.506 0.292 0.743 0.466 0.245 0.116 0.51 0.212 0.713 0.398 0.122 0.155-0.088 0.312-0.133 0.458-0.29 0.497-0.577 0.996-0.868 1.494-0.304-0.061-0.569-0.227-0.808-0.418-0.283-0.116-0.551-0.266-0.796-0.45 0.122-0.24 0.257-0.474 0.389-0.709-0.742-0.418-1.477-0.847-2.215-1.271-0.125 0.21-0.236 0.43-0.39 0.622-0.304 0.054-0.548-0.232-0.78-0.39-0.286-0.115-0.557-0.263-0.815-0.428z"></path>
<path fill="#000" d="M6.822 16.618c3.451-0.001 6.901-0.001 10.352 0 0 0.209 0 0.418 0 0.628-3.451 0-6.902 0-10.352 0-0.001-0.21-0.001-0.419 0-0.628z"></path>
</svg>
