<!-- Generated by IcoMoon.io -->
<svg version="1.1" xmlns="http://www.w3.org/2000/svg" width="27" height="24" viewBox="0 0 27 24">
<title>warning--winding-road--g1</title>
<path fill="#fef03e" d="M12.435 1.090c0.297-0.528 0.953-0.531 1.482-0.493 0.159 0.125 0.322 0.246 0.49 0.361 2.439 4.125 4.827 8.29 7.115 12.495-0.456-0.399-0.701-0.963-0.996-1.477-1.987-3.481-3.934-6.985-5.97-10.436-0.362-0.722-1.51-0.792-1.893-0.052-3.731 6.595-7.57 13.133-11.249 19.758-0.464 0.704 0.097 1.753 0.966 1.659 7.504-0.042 15.013-0.039 22.518-0.125 0.733 0.007 1.252-0.853 0.929-1.503-1.112-2.245-2.607-4.305-3.61-6.595 1.085 1.601 1.968 3.341 2.963 5.003 0.346 0.707 0.911 1.328 0.987 2.142-0.043 0.207-0.076 0.417-0.103 0.628-0.215 0.216-0.428 0.434-0.639 0.653-1.641 0.034-3.293-0.082-4.928 0.061-0.060-0.009-0.179-0.025-0.239-0.034-4.134 0.010-8.285-0.118-12.414 0.107-2.069 0.028-4.143 0.019-6.213 0.003-0.982-0.234-1.131-1.507-0.593-2.229 3.785-6.65 7.549-13.312 11.398-19.924z"></path>
<path fill="#292b23" d="M12.663 1.486c0.383-0.739 1.531-0.669 1.893 0.052 2.036 3.451 3.983 6.956 5.97 10.436 0.295 0.514 0.54 1.078 0.996 1.477l0.072 0.070c0.006 0.052 0.016 0.157 0.022 0.209 0.010 0.289 0.155 0.581 0.428 0.708l0.121 0.072c0.013 0.043 0.039 0.128 0.052 0.17 1.003 2.29 2.498 4.35 3.61 6.595 0.323 0.65-0.195 1.51-0.929 1.503-7.506 0.086-15.014 0.083-22.518 0.125-0.869 0.094-1.43-0.956-0.966-1.659 3.679-6.625 7.518-13.163 11.249-19.758M13.598 3.816c-3.217 5.727-6.58 11.369-9.764 17.116 6.507-0.122 13.014 0.013 19.521-0.13-3.282-5.645-6.429-11.368-9.757-16.986z"></path>
<path fill="#fae935" d="M13.598 3.816c3.327 5.618 6.474 11.341 9.757 16.986-6.507 0.143-13.014 0.007-19.521 0.13 3.184-5.747 6.547-11.389 9.764-17.116M11.214 13.468c-0.112 0.745 0.909 0.902 1.358 1.313-0.456 0.399-1.394 0.561-1.379 1.283 0.377 0.417 0.92 0.631 1.368 0.962-0.426 0.297-0.851 0.595-1.272 0.9 0.309 0.571 0.613 1.143 0.929 1.711 1.233-0.803 2.558-1.474 3.736-2.355 0.332-0.763-0.893-0.99-1.337-1.391 0.468-0.367 1.234-0.522 1.424-1.134-0.233-0.578-0.959-0.736-1.421-1.109 0.458-0.265 0.911-0.537 1.364-0.806-0.346-0.602-0.683-1.209-1.021-1.816-1.248 0.814-2.585 1.512-3.749 2.442z"></path>
<path fill="#25291e" d="M11.214 13.468c1.164-0.93 2.501-1.628 3.749-2.442 0.338 0.607 0.675 1.213 1.021 1.816-0.453 0.27-0.906 0.541-1.364 0.806 0.462 0.373 1.188 0.531 1.421 1.109-0.189 0.613-0.956 0.768-1.424 1.134 0.444 0.401 1.67 0.628 1.337 1.391-1.178 0.881-2.503 1.552-3.736 2.355-0.316-0.568-0.62-1.14-0.929-1.711 0.42-0.306 0.845-0.604 1.272-0.9-0.449-0.331-0.991-0.544-1.368-0.961-0.015-0.723 0.923-0.884 1.379-1.283-0.449-0.411-1.47-0.568-1.358-1.313z"></path>
<path fill="#e6dd52" d="M21.616 13.731c0.274 0.002 0.489 0.461 0.428 0.708-0.273-0.127-0.417-0.419-0.428-0.708z"></path>
<path fill="#f9f27d" d="M7.844 23.24c4.129-0.225 8.281-0.097 12.414-0.107l0.016 0.122c-4.144-0.010-8.287 0.018-12.431-0.015z"></path>
</svg>
