<!-- Generated by IcoMoon.io -->
<svg version="1.1" xmlns="http://www.w3.org/2000/svg" width="24" height="24" viewBox="0 0 24 24">
<title>warning--dual-lanes-turn-left-or-right--g4</title>
<path fill="#c6a518" opacity="0.78" d="M11.801 0h0.439c0.431 0.233 0.75 0.608 1.093 0.947 3.258 3.263 6.522 6.518 9.776 9.785 0.308 0.312 0.642 0.607 0.89 0.973v0.598c-0.163 0.287-0.396 0.521-0.632 0.746-3.358 3.362-6.719 6.72-10.078 10.081-0.311 0.305-0.595 0.648-0.977 0.87h-0.61c-0.406-0.245-0.703-0.619-1.040-0.943-3.26-3.259-6.512-6.527-9.773-9.786-0.313-0.317-0.655-0.612-0.89-0.996v-0.458c0.143-0.337 0.407-0.599 0.686-0.827-0.114 0.467-0.828 0.962-0.33 1.493 3.688 3.712 7.402 7.399 11.095 11.105 0.282 0.335 0.817 0.342 1.1 0.005 3.679-3.68 7.364-7.357 11.045-11.036 0.36-0.312 0.275-0.875-0.073-1.159-3.659-3.658-7.312-7.322-10.976-10.974-0.373-0.442-0.894-0.098-1.319 0.016 0.151-0.193 0.353-0.332 0.572-0.438z"></path>
<path fill="#000" d="M11.228 0.438c0.425-0.114 0.946-0.457 1.319-0.016 3.665 3.652 7.318 7.316 10.976 10.974 0.348 0.284 0.433 0.847 0.073 1.159-3.68 3.679-7.366 7.356-11.045 11.036-0.283 0.337-0.818 0.33-1.1-0.005-3.694-3.706-7.408-7.393-11.095-11.105-0.498-0.53 0.216-1.026 0.33-1.493 3.506-3.524 7.019-7.044 10.542-10.552M11.924 0.53c-0.143 0.036-0.239 0.158-0.346 0.251-3.616 3.622-7.234 7.242-10.849 10.864-0.204 0.155-0.296 0.473-0.078 0.659 3.677 3.686 7.362 7.366 11.041 11.048 0.155 0.188 0.46 0.202 0.617 0.010 3.685-3.683 7.37-7.366 11.053-11.052 0.191-0.16 0.166-0.461-0.024-0.611-3.628-3.65-7.277-7.283-10.909-10.93-0.136-0.128-0.299-0.295-0.505-0.239z"></path>
<path fill="#000" d="M12.151 9.396c0.625-0.941 1.262-1.968 1.99-2.791 0.635 0.923 1.328 1.812 1.921 2.761-0.091 0.616-0.805 0.108-1.175 0.076-0.012 1.228 0.001 2.454-0.006 3.682 0.523-0.438 1.121-0.79 1.788-0.954-0.053-0.36-0.32-0.648-0.391-1.006 0.059-0.132 0.204-0.284 0.361-0.2 1.022 0.433 2.044 0.872 3.058 1.328-0.788 0.846-1.555 1.736-2.414 2.504-0.569-0.059-0.202-0.794-0.272-1.164-1.087 0.323-1.926 1.328-2.106 2.44-0.054 0.875 0.004 1.753-0.029 2.63-0.51 0.005-1.020 0.007-1.529-0.002-0.012-3.077 0.006-6.154-0.010-9.23-0.367 0.032-1.092 0.534-1.186-0.073z"></path>
<path fill="#000" d="M4.337 9.419c1.034-0.446 2.054-0.935 3.103-1.345 0.607 0.182-0.076 0.838-0.125 1.226 1.799 0.449 3.182 2.158 3.223 4.014 0.013 1.795 0.008 3.59 0.002 5.386-0.502 0.007-1.004 0.011-1.507-0.001-0.007-1.752 0.004-3.503-0.005-5.255 0.004-1.212-0.877-2.321-2.023-2.672-0.079 0.378 0.298 1.114-0.286 1.18-0.816-0.815-1.663-1.643-2.383-2.532z"></path>
<path fill="#ffd520" d="M11.924 0.53c0.206-0.056 0.37 0.11 0.505 0.239 3.632 3.647 7.282 7.279 10.909 10.93 0.19 0.15 0.215 0.451 0.024 0.611-3.683 3.686-7.368 7.369-11.053 11.052-0.157 0.192-0.462 0.179-0.617-0.010-3.679-3.683-7.364-7.362-11.041-11.048-0.218-0.186-0.126-0.504 0.078-0.659 3.616-3.622 7.234-7.242 10.849-10.864 0.107-0.092 0.203-0.215 0.346-0.251M12.151 9.396c0.094 0.607 0.818 0.106 1.186 0.073 0.016 3.077-0.002 6.154 0.010 9.23 0.509 0.010 1.019 0.007 1.529 0.002 0.032-0.877-0.025-1.756 0.029-2.63 0.18-1.111 1.019-2.117 2.106-2.44 0.071 0.37-0.296 1.105 0.272 1.164 0.859-0.768 1.626-1.658 2.414-2.504-1.014-0.456-2.035-0.895-3.058-1.328-0.157-0.084-0.302 0.068-0.361 0.2 0.071 0.358 0.338 0.646 0.391 1.006-0.667 0.164-1.265 0.516-1.788 0.954 0.007-1.228-0.006-2.454 0.006-3.682 0.37 0.032 1.084 0.54 1.175-0.076-0.593-0.949-1.286-1.838-1.921-2.761-0.727 0.823-1.364 1.85-1.99 2.791M4.337 9.419c0.72 0.889 1.567 1.717 2.383 2.532 0.583-0.066 0.206-0.802 0.286-1.18 1.146 0.352 2.027 1.46 2.023 2.672 0.008 1.752-0.002 3.503 0.005 5.255 0.503 0.012 1.006 0.008 1.507 0.001 0.006-1.795 0.011-3.59-0.002-5.386-0.041-1.856-1.424-3.565-3.223-4.014 0.049-0.389 0.732-1.044 0.125-1.226-1.049 0.41-2.069 0.899-3.103 1.345M11.845 13.926c-0.013 1.594-0.012 3.188-0.001 4.783 0.082 0.001 0.242 0.002 0.323 0.004 0.012-1.596 0.014-3.194-0.001-4.79-0.080 0-0.24 0.002-0.32 0.004z"></path>
<path fill="#010100" d="M11.845 13.926c0.080-0.001 0.24-0.004 0.32-0.004 0.016 1.596 0.013 3.194 0.001 4.79-0.080-0.001-0.241-0.002-0.323-0.004-0.011-1.595-0.012-3.19 0.001-4.783z"></path>
</svg>
