<?xml version="1.0" encoding="utf-8"?>
<!-- Generated by IcoMoon.io -->
<!DOCTYPE svg PUBLIC "-//W3C//DTD SVG 1.1//EN" "http://www.w3.org/Graphics/SVG/1.1/DTD/svg11.dtd">
<svg version="1.1" xmlns="http://www.w3.org/2000/svg" xmlns:xlink="http://www.w3.org/1999/xlink" width="24" height="24" viewBox="0 0 24 24">
<path fill="#fff" d="M11.005 2.112c0.203-0.343 0.566-0.637 0.986-0.605 0.425-0.038 0.802 0.252 1.006 0.604 0.425 0.714 0.824 1.441 1.254 2.152 0.054 0.185 0.11 0.42 0.313 0.493 0.282 0.625 0.674 1.196 1.010 1.794 0.060 0.179 0.107 0.415 0.306 0.49 0.292 0.618 0.672 1.19 1.010 1.783 0.053 0.185 0.11 0.42 0.313 0.493 0.282 0.626 0.674 1.196 1.010 1.794 0.060 0.179 0.108 0.415 0.307 0.491 0.284 0.625 0.692 1.186 1.002 1.798 0.064 0.176 0.131 0.386 0.317 0.473 0.284 0.625 0.674 1.196 1.012 1.794 0.053 0.182 0.108 0.419 0.312 0.488 0.28 0.625 0.672 1.195 1.008 1.792 0.053 0.184 0.109 0.419 0.313 0.491 0.272 0.63 0.69 1.186 0.996 1.799 0.066 0.176 0.133 0.397 0.33 0.468 0.026 0.080 0.078 0.244 0.104 0.324 0.082 0.359-0.029 0.704-0.164 1.033-0.029 0.036-0.086 0.108-0.114 0.144-0.264 0.124-0.529 0.278-0.83 0.264-7.204 0.004-14.406 0.004-21.608 0-0.756 0.056-1.318-0.73-1.114-1.439 0.024-0.079 0.074-0.239 0.1-0.318 0.214-0.054 0.271-0.302 0.326-0.485 0.336-0.596 0.721-1.166 1.009-1.788 0.2-0.072 0.247-0.311 0.31-0.488 0.334-0.599 0.727-1.168 1.007-1.794 0.205-0.071 0.262-0.308 0.316-0.492 0.337-0.596 0.72-1.169 1.013-1.789 0.184-0.086 0.241-0.301 0.313-0.474 0.306-0.616 0.725-1.172 0.998-1.804 0.204-0.072 0.262-0.308 0.316-0.493 0.334-0.595 0.725-1.163 1.004-1.787 0.204-0.072 0.26-0.308 0.314-0.492 0.338-0.595 0.72-1.169 1.013-1.787 0.184-0.088 0.241-0.302 0.312-0.475 0.308-0.617 0.727-1.175 1.002-1.808 0.204-0.072 0.262-0.308 0.316-0.493 0.428-0.709 0.827-1.436 1.252-2.149M11.688 1.981c-0.314 0.172-0.434 0.538-0.619 0.824-3.426 5.92-6.852 11.84-10.283 17.759-0.167 0.311-0.449 0.649-0.313 1.025 0.108 0.362 0.5 0.524 0.851 0.491 7.163-0.004 14.326 0.007 21.488-0.005 0.44 0.032 0.839-0.4 0.742-0.838-0.1-0.323-0.304-0.599-0.466-0.892-3.479-6.005-6.953-12.013-10.432-18.017-0.169-0.35-0.614-0.534-0.968-0.348z"></path>
<path fill="#fff" d="M11.957 5.546c0.022 0 0.066 0 0.089-0.001 2.786 4.794 5.56 9.596 8.336 14.396-5.588 0.006-11.177 0.001-16.765 0.002 2.78-4.799 5.552-9.602 8.34-14.398M9.361 11.425c-0.034 0.364 0.404 0.178 0.622 0.247 0.409 0.061 0.593 0.503 0.924 0.667 0.025-0.14 0.029-0.283 0.011-0.426l-0.082 0.056c-0.092-0.109-0.188-0.216-0.286-0.32 0.31 0.008 0.622 0.007 0.932-0.001-0.194 0.182-0.416 0.416-0.401 0.697 0.218 0.066 0.287-0.247 0.433-0.35 0.284-0.344 0.742-0.37 1.153-0.352-0.018-0.054-0.053-0.162-0.070-0.216-1.079-0.024-2.159-0.014-3.238-0.002M8.836 12.554c-0.282 0.48-0.446 1.019-0.629 1.542-0.329 0.944-0.236 1.957-0.266 2.939-0.029 0.626 0.508 1.325 1.181 1.238 2.935-0.011 5.87 0.013 8.806-0.012 0.028-0.517 0.020-1.037-0.011-1.553-0.071 0.064-0.14 0.128-0.209 0.194 0.020 0.223 0.035 0.448 0.043 0.672-0.078-0.012-0.235-0.036-0.314-0.048-0.001-0.215-0.002-0.428-0.005-0.643 0.11-0.064 0.22-0.13 0.329-0.194-2.020-0.268-3.868-1.65-4.636-3.55-0.152-0.462-0.652-0.75-1.124-0.71-1.001 0.023-2.003-0.024-3.004 0.017-0.040 0.028-0.121 0.082-0.161 0.108M8.71 18.464c0.001 0.095 0.002 0.286 0.002 0.38-0.257 0.002-0.512 0.002-0.769 0.004-0.004 0.181-0.007 0.362-0.011 0.544 1.674 0.002 3.349-0.004 5.024 0.002 0.167-0.005 0.34 0.008 0.502-0.042 1.445-0.482 2.993-0.408 4.493-0.51-0.006-0.127-0.012-0.254-0.018-0.38-2.113 0.004-4.228 0.002-6.342 0-0.004 0.126-0.008 0.252-0.012 0.378-0.568 0-1.136 0.001-1.705-0.001 0.001-0.094 0.001-0.281 0.002-0.374-0.389 0-0.778 0-1.166 0z"></path>
<path fill="#fff" d="M8.466 14.396c-0.038-0.538 0.311-1.008 0.518-1.483 1.092-0.001 2.185-0.002 3.277 0 0.224 0.462 0.454 0.947 0.461 1.471-1.418 0.034-2.838 0.010-4.256 0.012z"></path>
<path fill="#fff" d="M13.415 14.604c0.227 0.228 0.454 0.457 0.691 0.676-0.004 0.443-0.001 0.886-0.005 1.33-0.206-0.096-0.414-0.192-0.622-0.288-0.042-0.571-0.068-1.145-0.065-1.717z"></path>
<path fill="#fff" d="M14.456 15.578c0.192 0.14 0.386 0.281 0.582 0.418 0.004 0.347 0.004 0.692 0.010 1.038-0.198-0.083-0.395-0.166-0.592-0.25-0.007-0.402-0.008-0.804 0-1.206z"></path>
<path fill="#fff" d="M8.695 16.044c0.212-0.184 0.599-0.011 0.587 0.274 0.042 0.265-0.288 0.481-0.522 0.355-0.245-0.107-0.284-0.476-0.065-0.629z"></path>
<path fill="#fff" d="M11.803 16.020c0.384-0.252 0.782 0.37 0.404 0.618-0.4 0.312-0.841-0.384-0.404-0.618z"></path>
<path fill="#fff" d="M15.347 16.182c0.191 0.076 0.383 0.151 0.574 0.227 0.005 0.29 0.005 0.582 0.001 0.872-0.184-0.047-0.368-0.090-0.546-0.157-0.058-0.311-0.024-0.629-0.029-0.942z"></path>
<path fill="#fff" d="M16.165 16.53c0.154 0.040 0.306 0.078 0.46 0.118-0.002 0.263-0.002 0.526-0.007 0.788-0.151-0.030-0.302-0.061-0.454-0.092 0-0.271 0-0.542 0.001-0.814z"></path>
<path fill="#fff" d="M16.856 16.726c0.127 0.025 0.254 0.049 0.382 0.074 0 0.235-0.001 0.472-0.004 0.707-0.126-0.014-0.251-0.030-0.377-0.046-0.001-0.245-0.001-0.491-0.001-0.736z"></path>
<path fill="#c00" d="M11.688 1.981c0.354-0.186 0.799-0.002 0.968 0.348 3.479 6.004 6.953 12.012 10.432 18.017 0.162 0.293 0.366 0.569 0.466 0.892 0.097 0.438-0.301 0.87-0.742 0.838-7.163 0.012-14.326 0.001-21.488 0.005-0.35 0.034-0.743-0.128-0.851-0.491-0.136-0.376 0.146-0.714 0.313-1.025 3.431-5.918 6.857-11.839 10.283-17.759 0.185-0.287 0.305-0.653 0.619-0.824M11.957 5.546c-2.788 4.795-5.56 9.599-8.34 14.398 5.588-0.001 11.177 0.004 16.765-0.002-2.777-4.8-5.55-9.602-8.336-14.396-0.023 0.001-0.067 0.001-0.089 0.001z"></path>
<path fill="#000" d="M9.438 4.754c0.008-0.21 0.127-0.398 0.316-0.493-0.054 0.185-0.112 0.421-0.316 0.493z"></path>
<path fill="#000" d="M14.251 4.262c0.187 0.095 0.306 0.283 0.313 0.493-0.203-0.073-0.259-0.308-0.313-0.493z"></path>
<path fill="#000" d="M8.117 6.947c0.040-0.188 0.146-0.317 0.319-0.384-0.071 0.173-0.128 0.388-0.312 0.475l-0.007-0.091z"></path>
<path fill="#000" d="M15.575 6.55c0.156 0.092 0.263 0.224 0.317 0.397l-0.011 0.092c-0.199-0.074-0.246-0.311-0.306-0.49z"></path>
<path fill="#000" d="M6.797 9.317c0.008-0.21 0.127-0.398 0.314-0.492-0.054 0.184-0.11 0.42-0.314 0.492z"></path>
<path fill="#000" d="M16.891 8.822c0.187 0.095 0.306 0.283 0.313 0.493-0.203-0.073-0.26-0.308-0.313-0.493z"></path>
<path fill="#000" d="M5.477 11.597c0.008-0.21 0.127-0.398 0.316-0.493-0.054 0.185-0.112 0.421-0.316 0.493z"></path>
<path fill="#000" d="M18.215 11.11c0.157 0.092 0.263 0.226 0.317 0.397l-0.010 0.094c-0.199-0.076-0.247-0.312-0.307-0.491z"></path>
<path fill="#000" d="M9.361 11.425c1.079-0.012 2.159-0.022 3.238 0.002 0.017 0.054 0.052 0.162 0.070 0.216-0.412-0.018-0.869 0.007-1.153 0.352-0.146 0.103-0.215 0.416-0.433 0.35-0.016-0.281 0.206-0.515 0.401-0.697-0.311 0.008-0.623 0.010-0.932 0.001 0.097 0.104 0.193 0.211 0.286 0.32l0.082-0.056c0.018 0.143 0.014 0.286-0.011 0.426-0.331-0.164-0.515-0.606-0.924-0.667-0.217-0.070-0.655 0.116-0.622-0.247z"></path>
<path fill="#000" d="M8.836 12.554c0.040-0.026 0.121-0.080 0.161-0.108 1.001-0.041 2.003 0.006 3.004-0.017 0.473-0.040 0.972 0.248 1.124 0.71 0.768 1.9 2.616 3.282 4.636 3.55-0.109 0.065-0.218 0.131-0.329 0.194 0.002 0.215 0.004 0.428 0.005 0.643 0.079 0.012 0.236 0.036 0.314 0.048-0.008-0.224-0.023-0.449-0.043-0.672 0.068-0.066 0.138-0.131 0.209-0.194 0.031 0.516 0.038 1.036 0.011 1.553-2.935 0.025-5.87 0.001-8.806 0.012-0.673 0.086-1.21-0.612-1.181-1.238 0.030-0.982-0.062-1.994 0.266-2.939 0.182-0.523 0.347-1.062 0.629-1.542M8.466 14.396c1.418-0.002 2.838 0.022 4.256-0.012-0.007-0.524-0.236-1.009-0.461-1.471-1.092-0.002-2.185-0.001-3.277 0-0.208 0.475-0.557 0.946-0.518 1.483M13.415 14.604c-0.004 0.572 0.023 1.146 0.065 1.717 0.208 0.096 0.415 0.192 0.622 0.288 0.004-0.444 0.001-0.887 0.005-1.33-0.238-0.218-0.464-0.448-0.691-0.676M14.456 15.578c-0.008 0.402-0.007 0.804 0 1.206 0.197 0.084 0.394 0.167 0.592 0.25-0.006-0.346-0.006-0.691-0.010-1.038-0.196-0.137-0.39-0.277-0.582-0.418M8.695 16.044c-0.22 0.152-0.18 0.522 0.065 0.629 0.234 0.126 0.564-0.090 0.522-0.355 0.012-0.284-0.374-0.457-0.587-0.274M11.803 16.020c-0.437 0.234 0.005 0.93 0.404 0.618 0.378-0.248-0.020-0.87-0.404-0.618M15.347 16.182c0.005 0.313-0.029 0.631 0.029 0.942 0.178 0.067 0.362 0.11 0.546 0.157 0.004-0.29 0.004-0.582-0.001-0.872-0.191-0.076-0.383-0.151-0.574-0.227M16.165 16.53c-0.001 0.271-0.001 0.542-0.001 0.814 0.151 0.031 0.302 0.062 0.454 0.092 0.005-0.263 0.005-0.526 0.007-0.788-0.154-0.040-0.306-0.078-0.46-0.118M16.856 16.726c0 0.245 0 0.491 0.001 0.736 0.126 0.016 0.251 0.031 0.377 0.046 0.002-0.235 0.004-0.472 0.004-0.707-0.127-0.025-0.254-0.049-0.382-0.074z"></path>
<path fill="#000" d="M4.158 13.784c0.041-0.19 0.146-0.317 0.32-0.384-0.072 0.173-0.13 0.388-0.313 0.474l-0.007-0.090z"></path>
<path fill="#000" d="M19.524 13.398c0.222 0.032 0.296 0.281 0.317 0.473-0.186-0.086-0.253-0.296-0.317-0.473z"></path>
<path fill="#000" d="M2.837 16.156c0.010-0.21 0.127-0.398 0.316-0.492-0.054 0.184-0.11 0.421-0.316 0.492z"></path>
<path fill="#000" d="M20.852 15.665c0.187 0.092 0.305 0.28 0.312 0.488-0.204-0.070-0.259-0.306-0.312-0.488z"></path>
<path fill="#000" d="M1.512 18.344c0.055-0.173 0.161-0.304 0.318-0.395-0.062 0.178-0.109 0.416-0.31 0.488l-0.008-0.094z"></path>
<path fill="#000" d="M22.172 17.945c0.188 0.094 0.306 0.281 0.313 0.491-0.204-0.072-0.26-0.307-0.313-0.491z"></path>
<path fill="#000" d="M8.71 18.464c0.389 0 0.778 0 1.166 0-0.001 0.094-0.001 0.281-0.002 0.374 0.569 0.002 1.138 0.001 1.705 0.001 0.004-0.126 0.008-0.252 0.012-0.378 2.114 0.002 4.229 0.004 6.342 0 0.006 0.126 0.012 0.253 0.018 0.38-1.5 0.102-3.048 0.028-4.493 0.51-0.162 0.050-0.335 0.037-0.502 0.042-1.675-0.006-3.35 0-5.024-0.002 0.004-0.181 0.007-0.362 0.011-0.544 0.257-0.001 0.512-0.001 0.769-0.004 0-0.095-0.001-0.286-0.002-0.38z"></path>
<path fill="#000" d="M0.185 20.711c0.022-0.208 0.143-0.388 0.326-0.485-0.055 0.182-0.113 0.431-0.326 0.485z"></path>
<path fill="#000" d="M23.482 20.234c0.217 0.038 0.298 0.277 0.33 0.468-0.197-0.071-0.264-0.292-0.33-0.468z"></path>
<path fill="#000" d="M0 20.804l0.085 0.224c-0.204 0.709 0.358 1.495 1.114 1.439 7.202 0.004 14.405 0.004 21.608 0 0.301 0.014 0.566-0.14 0.83-0.264-0.016 0.020-0.047 0.062-0.062 0.083-0.224 0.166-0.493 0.26-0.773 0.248-7.201-0.002-14.402-0.002-21.604 0-0.516 0.048-0.914-0.324-1.199-0.708v-1.022z"></path>
<path fill="#000" d="M23.916 21.026l0.084-0.206v1.028c-0.062 0.053-0.186 0.158-0.248 0.211 0.136-0.329 0.246-0.674 0.164-1.033z"></path>
</svg>
