<?xml version="1.0" encoding="utf-8"?>
<!-- Generated by IcoMoon.io -->
<!DOCTYPE svg PUBLIC "-//W3C//DTD SVG 1.1//EN" "http://www.w3.org/Graphics/SVG/1.1/DTD/svg11.dtd">
<svg version="1.1" xmlns="http://www.w3.org/2000/svg" xmlns:xlink="http://www.w3.org/1999/xlink" width="24" height="24" viewBox="0 0 24 24">
<path fill="#fcdc0f" d="M10.878 0.914c0.295-0.286 0.557-0.61 0.894-0.847 0.242-0.142 0.529-0.010 0.701 0.181 3.6 3.601 7.199 7.202 10.8 10.802 0.256 0.256 0.528 0.5 0.727 0.804v0.278c-0.151 0.307-0.427 0.521-0.661 0.762-3.462 3.46-6.922 6.922-10.384 10.381-0.262 0.253-0.492 0.552-0.82 0.724h-0.257c-0.124-0.070-0.241-0.15-0.344-0.247-3.62-3.624-7.244-7.246-10.867-10.867-0.241-0.252-0.542-0.469-0.667-0.808v-0.094c0.041-0.205 0.175-0.367 0.319-0.51 3.522-3.518 7.039-7.040 10.559-10.56M0.586 12.010c3.814 3.798 7.612 7.613 11.424 11.412 3.809-3.803 7.609-7.614 11.422-11.412-3.805-3.811-7.618-7.614-11.422-11.426-3.809 3.809-7.618 7.616-11.424 11.426z"></path>
<path fill="#fcdc0f" d="M11.551 1.835c0.446-0.215 0.991-0.061 1.319 0.29 3.006 2.996 6.005 6 9.005 9.002 0.3 0.278 0.476 0.704 0.378 1.112-0.071 0.403-0.407 0.664-0.677 0.938-2.899 2.898-5.798 5.796-8.696 8.696-0.27 0.292-0.677 0.47-1.076 0.385-0.414-0.067-0.689-0.41-0.971-0.689-2.917-2.922-5.842-5.84-8.76-8.762-0.473-0.442-0.426-1.255 0.058-1.67 2.959-2.966 5.927-5.924 8.886-8.89 0.162-0.157 0.326-0.322 0.535-0.414M7.111 9.030c-0.954 0.112-1.841 0.712-2.285 1.566-0.484 0.887-0.468 2.021 0.042 2.893 0.508 0.911 1.524 1.517 2.569 1.518 3.040 0.001 6.079 0.002 9.119 0 1.224-0.004 2.393-0.833 2.804-1.985 0.338-0.899 0.193-1.956-0.364-2.737-0.563-0.82-1.56-1.312-2.551-1.277-3.112 0.013-6.224-0.029-9.335 0.022z"></path>
<path fill="#fcdc0f" d="M11.449 9.924c1.171-0.352 2.502 0.497 2.683 1.703 0.228 1.104-0.565 2.278-1.669 2.491-1.156 0.286-2.416-0.575-2.584-1.75-0.209-1.062 0.522-2.188 1.57-2.444z"></path>
<path fill="#000" d="M0.586 12.010c3.806-3.81 7.615-7.618 11.424-11.426 3.804 3.812 7.616 7.615 11.422 11.426-3.812 3.798-7.613 7.609-11.422 11.412-3.812-3.799-7.61-7.614-11.424-11.412M11.551 1.835c-0.209 0.092-0.373 0.257-0.535 0.414-2.959 2.965-5.927 5.923-8.886 8.89-0.484 0.415-0.53 1.229-0.058 1.67 2.918 2.922 5.843 5.84 8.76 8.762 0.282 0.278 0.557 0.622 0.971 0.689 0.4 0.085 0.806-0.094 1.076-0.385 2.898-2.9 5.797-5.798 8.696-8.696 0.27-0.275 0.606-0.535 0.677-0.938 0.098-0.408-0.078-0.834-0.378-1.112-3-3.002-5.999-6.006-9.005-9.002-0.328-0.352-0.872-0.505-1.319-0.29z"></path>
<path fill="#000" d="M7.111 9.030c3.11-0.050 6.223-0.008 9.335-0.022 0.991-0.035 1.988 0.457 2.551 1.277 0.557 0.781 0.702 1.838 0.364 2.737-0.412 1.152-1.58 1.981-2.804 1.985-3.040 0.002-6.079 0.001-9.119 0-1.045-0.001-2.062-0.607-2.569-1.518-0.51-0.872-0.526-2.006-0.042-2.893 0.444-0.854 1.331-1.454 2.285-1.566M7.003 9.901c-0.692 0.15-1.291 0.662-1.546 1.324-0.27 0.689-0.157 1.514 0.302 2.096 0.52 0.697 1.487 1.016 2.318 0.757 0.776-0.218 1.393-0.911 1.52-1.706 0.126-0.689-0.116-1.427-0.622-1.909-0.508-0.505-1.277-0.719-1.974-0.562M11.449 9.924c-1.048 0.257-1.778 1.382-1.57 2.444 0.168 1.175 1.428 2.035 2.584 1.75 1.104-0.214 1.897-1.387 1.669-2.491-0.181-1.206-1.512-2.054-2.683-1.703M16.014 9.916c-1.060 0.245-1.807 1.374-1.6 2.446 0.164 1.19 1.451 2.058 2.616 1.75 1.112-0.232 1.888-1.44 1.626-2.548-0.215-1.165-1.5-1.97-2.642-1.648z"></path>
<path fill="#0ca64d" d="M7.003 9.901c0.697-0.157 1.466 0.056 1.974 0.562 0.505 0.482 0.748 1.22 0.622 1.909-0.127 0.796-0.744 1.488-1.52 1.706-0.832 0.259-1.799-0.060-2.318-0.757-0.46-0.582-0.572-1.408-0.302-2.096 0.254-0.661 0.853-1.174 1.546-1.324z"></path>
<path fill="#ed1c23" d="M16.014 9.916c1.142-0.323 2.428 0.482 2.642 1.648 0.262 1.108-0.514 2.316-1.626 2.548-1.165 0.308-2.452-0.559-2.616-1.75-0.208-1.072 0.54-2.201 1.6-2.446z"></path>
</svg>
