<!-- Generated by IcoMoon.io -->
<svg version="1.1" xmlns="http://www.w3.org/2000/svg" width="24" height="24" viewBox="0 0 24 24">
<title>warning--junction-with-a-side-road-perpendicular-right--g4</title>
<path fill="#ffd520" d="M11.731 0h0.485c0.244 0.107 0.482 0.236 0.673 0.426 3.541 3.542 7.080 7.085 10.625 10.622 0.199 0.2 0.358 0.436 0.486 0.686v0.486c-0.197 0.528-0.655 0.874-1.034 1.265-3.14 3.139-6.28 6.28-9.421 9.419-0.402 0.392-0.762 0.852-1.282 1.096h-0.496c-0.518-0.206-0.864-0.658-1.252-1.036-3.14-3.14-6.281-6.28-9.421-9.42-0.391-0.402-0.85-0.762-1.094-1.282v-0.496c0.204-0.52 0.649-0.871 1.028-1.259 3.341-3.34 6.683-6.679 10.022-10.021 0.2-0.196 0.434-0.354 0.68-0.487M11.671 0.385c-0.128 0.066-0.236 0.163-0.342 0.26-3.581 3.582-7.169 7.157-10.744 10.744-0.36 0.313-0.361 0.91 0.008 1.216 3.601 3.6 7.202 7.2 10.8 10.804 0.307 0.367 0.904 0.367 1.212 0.001 3.599-3.602 7.198-7.205 10.8-10.805 0.371-0.305 0.37-0.901 0.010-1.214-3.577-3.587-7.163-7.164-10.744-10.747-0.247-0.27-0.653-0.443-1.001-0.258z"></path>
<path fill="#ffd520" d="M11.815 0.886c0.198-0.205 0.421 0.035 0.566 0.173 3.54 3.54 7.081 7.078 10.62 10.619 0.186 0.15 0.281 0.413 0.050 0.575-3.598 3.602-7.198 7.204-10.799 10.8-0.154 0.215-0.436 0.128-0.571-0.056-3.572-3.587-7.159-7.158-10.733-10.744-0.258-0.185-0.088-0.484 0.106-0.636 3.594-3.57 7.15-7.181 10.76-10.73M11.059 5.928c-0.012 1.046-0.006 2.094-0.004 3.14 0.598 0.22 1.189 0.454 1.784 0.68-0.001-0.214-0.001-0.426-0.001-0.64-0.419-0.17-0.839-0.337-1.261-0.499-0.011-0.892-0.019-1.782-0.044-2.674-0.158 0.001-0.316-0.002-0.474-0.008M7.402 5.946c-0.001 4.112-0.005 8.224 0.001 12.336 0.162-0.007 0.323-0.008 0.485-0.005-0.007-4.116 0.012-8.232-0.010-12.347-0.119 0.004-0.358 0.012-0.476 0.016M9.228 7.162c-0.002 0.852-0.004 1.704 0.001 2.556 0.148-0.006 0.295-0.006 0.444-0.001-0.002-0.854 0.005-1.709-0.005-2.563-0.11 0.002-0.33 0.006-0.44 0.008M13.733 10.243c0 0.553-0.002 1.106-0.002 1.661-0.112 0-0.334 0-0.444 0-0.001-0.541-0.004-1.081-0.001-1.622-0.402-0.001-0.804-0.002-1.205-0.006-0.211 0.408-0.419 0.818-0.6 1.241-0.24 0.010-0.475 0.068-0.714 0.082 0.001 0.559 0.001 1.118 0.005 1.678 0.104 0.001 0.313 0.005 0.418 0.006-0.16 0.338-0.11 0.841 0.334 0.912 0.498 0.104 0.769-0.497 0.499-0.876 1.228 0.005 2.456 0.002 3.684 0.001-0.156 0.38-0.008 0.949 0.496 0.9 0.47-0.014 0.569-0.551 0.394-0.901 0.181 0.001 0.361 0.001 0.541 0-0.187 0.385-0.006 0.964 0.503 0.894 0.476-0.034 0.544-0.58 0.382-0.935 0.26 0.005 0.522 0 0.784 0.002 0-0.998 0.004-1.997-0.002-2.995-0.865-0.186-1.722-0.437-2.599-0.55-0.829 0.132-1.648 0.336-2.47 0.509M19.225 10.218c0.514 0.416 1.226 0.194 1.834 0.253-0.448-0.524-1.235-0.182-1.834-0.253M9.229 10.848c-0.006 0.835-0.004 1.672-0.001 2.507 0.109 0.004 0.328 0.010 0.437 0.012 0.048-0.84 0.058-1.682 0.044-2.524-0.16 0.005-0.319 0.007-0.48 0.005M20.14 11.026c0.48 0.493 1.229 0.226 1.836 0.306-0.066-0.071-0.2-0.215-0.266-0.286-0.523-0.005-1.046-0.029-1.57-0.020M21.079 11.843c0.458 0.508 1.22 0.197 1.819 0.301-0.058-0.068-0.174-0.206-0.233-0.276-0.529-0.012-1.057-0.037-1.586-0.025M9.229 14.543c-0.005 0.84-0.005 1.68 0 2.52 0.148-0.006 0.295-0.006 0.443-0.002 0.001-0.839 0.001-1.679 0-2.518-0.148 0.004-0.295 0.004-0.443 0M11.054 15.157c-0.002 1.038-0.002 2.077-0.001 3.116 0.175-0.005 0.349-0.005 0.524-0.001-0.007-0.89-0.026-1.782-0.038-2.672 0.431-0.17 0.864-0.334 1.301-0.486-0.001-0.187-0.001-0.376 0.001-0.564-0.601 0.187-1.195 0.394-1.787 0.607z"></path>
<path fill="#000" d="M11.671 0.385c0.348-0.185 0.754-0.012 1.001 0.258 3.581 3.583 7.166 7.16 10.744 10.747 0.36 0.313 0.361 0.91-0.010 1.214-3.602 3.6-7.201 7.202-10.8 10.805-0.308 0.366-0.905 0.366-1.212-0.001-3.598-3.604-7.199-7.204-10.8-10.804-0.37-0.306-0.368-0.902-0.008-1.216 3.575-3.587 7.163-7.162 10.744-10.744 0.106-0.097 0.214-0.194 0.342-0.26M11.815 0.886c-3.611 3.55-7.166 7.16-10.76 10.73-0.193 0.152-0.364 0.451-0.106 0.636 3.574 3.586 7.16 7.157 10.733 10.744 0.136 0.185 0.418 0.271 0.571 0.056 3.601-3.596 7.201-7.198 10.799-10.8 0.23-0.162 0.136-0.425-0.050-0.575-3.539-3.541-7.080-7.079-10.62-10.619-0.145-0.138-0.368-0.378-0.566-0.173z"></path>
<path fill="#000" d="M11.059 5.928c0.158 0.006 0.316 0.010 0.474 0.008 0.025 0.892 0.034 1.782 0.044 2.674 0.422 0.162 0.842 0.329 1.261 0.499 0 0.214 0 0.426 0.001 0.64-0.595-0.227-1.187-0.461-1.784-0.68-0.002-1.046-0.008-2.094 0.004-3.14z"></path>
<path fill="#000" d="M7.402 5.946c0.119-0.004 0.358-0.012 0.476-0.016 0.022 4.115 0.002 8.231 0.010 12.347-0.162-0.004-0.323-0.002-0.485 0.005-0.006-4.112-0.002-8.224-0.001-12.336z"></path>
<path fill="#000" d="M9.228 7.162c0.11-0.002 0.33-0.006 0.44-0.008 0.010 0.854 0.002 1.709 0.005 2.563-0.149-0.005-0.296-0.005-0.444 0.001-0.005-0.852-0.004-1.704-0.001-2.556z"></path>
<path fill="#000" d="M13.733 10.243c0.822-0.173 1.64-0.377 2.47-0.509 0.877 0.113 1.734 0.364 2.599 0.55 0.006 0.998 0.002 1.997 0.002 2.995-0.262-0.002-0.523 0.002-0.784-0.002 0.162 0.355 0.095 0.901-0.382 0.935-0.509 0.070-0.69-0.509-0.503-0.894-0.18 0.001-0.36 0.001-0.541 0 0.175 0.35 0.077 0.887-0.394 0.901-0.504 0.049-0.652-0.52-0.496-0.9-1.228 0.001-2.456 0.004-3.684-0.001 0.27 0.379-0.001 0.98-0.499 0.876-0.444-0.071-0.493-0.574-0.334-0.912-0.104-0.001-0.313-0.005-0.418-0.006-0.004-0.559-0.004-1.118-0.005-1.678 0.239-0.013 0.474-0.072 0.714-0.082 0.181-0.422 0.389-0.833 0.6-1.241 0.401 0.004 0.803 0.005 1.205 0.006-0.002 0.541 0 1.081 0.001 1.622 0.11 0 0.332 0 0.444 0 0-0.554 0.002-1.108 0.002-1.661z"></path>
<path fill="#000" d="M9.229 10.848c0.161 0.002 0.32 0 0.48-0.005 0.013 0.841 0.004 1.684-0.044 2.524-0.109-0.002-0.328-0.008-0.437-0.012-0.002-0.835-0.005-1.672 0.001-2.507z"></path>
<path fill="#000" d="M9.229 14.543c0.148 0.004 0.295 0.004 0.443 0 0.001 0.839 0.001 1.679 0 2.518-0.148-0.004-0.295-0.004-0.443 0.002-0.005-0.84-0.005-1.68 0-2.52z"></path>
<path fill="#000" d="M11.054 15.157c0.592-0.214 1.186-0.42 1.787-0.607-0.002 0.188-0.002 0.377-0.001 0.564-0.437 0.152-0.87 0.316-1.301 0.486 0.012 0.89 0.031 1.782 0.038 2.672-0.175-0.004-0.349-0.004-0.524 0.001-0.001-1.039-0.001-2.078 0.001-3.116z"></path>
<path fill="#0b0901" d="M19.225 10.218c0.599 0.071 1.386-0.271 1.834 0.253-0.607-0.059-1.32 0.163-1.834-0.253z"></path>
<path fill="#030300" d="M20.14 11.026c0.523-0.008 1.046 0.016 1.57 0.020 0.066 0.071 0.2 0.215 0.266 0.286-0.607-0.080-1.356 0.187-1.836-0.306z"></path>
<path fill="#020200" d="M21.079 11.843c0.529-0.012 1.057 0.013 1.586 0.025 0.059 0.070 0.175 0.208 0.233 0.276-0.599-0.104-1.361 0.206-1.819-0.301z"></path>
</svg>
