<?xml version="1.0" encoding="utf-8"?>
<!-- Generated by IcoMoon.io -->
<!DOCTYPE svg PUBLIC "-//W3C//DTD SVG 1.1//EN" "http://www.w3.org/Graphics/SVG/1.1/DTD/svg11.dtd">
<svg version="1.1" xmlns="http://www.w3.org/2000/svg" xmlns:xlink="http://www.w3.org/1999/xlink" width="24" height="24" viewBox="0 0 24 24">
<path fill="#231f20" d="M11.444 0.176c0.403-0.21 0.91-0.073 1.204 0.258 3.587 3.571 7.163 7.154 10.74 10.734 0.42 0.366 0.468 1.075 0.050 1.46-3.461 3.461-6.923 6.92-10.379 10.387-0.336 0.324-0.659 0.785-1.181 0.766-0.523 0.024-0.848-0.437-1.184-0.762-3.454-3.462-6.917-6.918-10.375-10.375-0.425-0.395-0.38-1.114 0.050-1.486 3.517-3.517 7.036-7.036 10.555-10.55 0.162-0.156 0.318-0.326 0.52-0.432M11.676 0.754c-0.253 0.185-0.456 0.427-0.678 0.644-3.36 3.358-6.719 6.716-10.079 10.074-0.151 0.157-0.368 0.354-0.264 0.598 0.2 0.31 0.5 0.536 0.754 0.8 3.384 3.379 6.764 6.762 10.147 10.142 0.167 0.21 0.481 0.203 0.646-0.006 3.401-3.402 6.799-6.808 10.204-10.206 0.234-0.245 0.512-0.454 0.694-0.742 0.094-0.241-0.119-0.431-0.268-0.586-3.517-3.518-7.036-7.036-10.554-10.552-0.15-0.158-0.392-0.331-0.601-0.168z"></path>
<path fill="#231f20" d="M8.4 6.006c1.262 0.647 2.513 1.316 3.769 1.976-0.341 0.112-0.679 0.23-1.019 0.346 0.799 1.266 1.601 2.532 2.407 3.794 0.329 0.452 0.588 0.976 0.522 1.553-0.006 1.734 0 3.469-0.004 5.204-0.701 0.001-1.403 0.001-2.105 0-0.010-1.496 0.018-2.994-0.014-4.492-0.005-0.529-0.258-1.009-0.532-1.447-0.714-1.138-1.436-2.269-2.154-3.403-0.233 0.235-0.464 0.472-0.689 0.714-0.061-1.415-0.122-2.831-0.182-4.246z"></path>
<path fill="#fd0" d="M11.676 0.754c0.209-0.163 0.451 0.010 0.601 0.168 3.518 3.516 7.037 7.033 10.554 10.552 0.149 0.155 0.361 0.344 0.268 0.586-0.181 0.288-0.46 0.497-0.694 0.742-3.404 3.398-6.803 6.804-10.204 10.206-0.164 0.209-0.479 0.216-0.646 0.006-3.383-3.38-6.763-6.763-10.147-10.142-0.253-0.264-0.553-0.491-0.754-0.8-0.104-0.244 0.113-0.44 0.264-0.598 3.36-3.358 6.719-6.716 10.079-10.074 0.222-0.217 0.425-0.46 0.678-0.644M8.4 6.006c0.060 1.415 0.121 2.831 0.182 4.246 0.224-0.242 0.456-0.479 0.689-0.714 0.718 1.134 1.44 2.266 2.154 3.403 0.274 0.438 0.527 0.918 0.532 1.447 0.032 1.498 0.005 2.995 0.014 4.492 0.702 0.001 1.404 0.001 2.105 0 0.004-1.735-0.002-3.47 0.004-5.204 0.066-0.577-0.193-1.1-0.522-1.553-0.806-1.262-1.608-2.528-2.407-3.794 0.34-0.115 0.678-0.234 1.019-0.346-1.256-0.66-2.507-1.33-3.769-1.976z"></path>
</svg>
