<!-- Generated by IcoMoon.io -->
<svg version="1.1" xmlns="http://www.w3.org/2000/svg" width="27" height="24" viewBox="0 0 27 24">
<title>warning--junction-with-a-side-road-acute-right--g2</title>
<path fill="#c31926" d="M13.39 0h0.434c0.51 0.134 0.985 0.423 1.231 0.901 3.937 6.795 7.856 13.6 11.793 20.395 0.168 0.295 0.308 0.605 0.425 0.925v0.376c-0.135 0.68-0.64 1.244-1.321 1.403h-24.605c-0.68-0.134-1.18-0.687-1.346-1.345v-0.401c0.1-0.301 0.22-0.597 0.375-0.874 3.953-6.825 7.89-13.661 11.843-20.485 0.237-0.461 0.693-0.738 1.171-0.896M13.552 1.372c-4.085 7.038-8.187 14.070-12.2 21.147 0.177 0.063 0.36 0.112 0.55 0.102 7.871-0.008 15.74 0.001 23.611-0.004 0.139-0.012 0.274-0.048 0.405-0.105-3.9-6.9-7.928-13.729-11.866-20.606-0.128-0.21-0.236-0.47-0.499-0.535z"></path>
<path fill="#fff" d="M13.552 1.372c0.263 0.064 0.371 0.325 0.499 0.535 3.938 6.877 7.966 13.706 11.866 20.606-0.131 0.057-0.266 0.093-0.405 0.105-7.871 0.005-15.74-0.004-23.611 0.004-0.19 0.010-0.372-0.040-0.55-0.102 4.013-7.077 8.115-14.11 12.2-21.147M12.402 9.256c0.005 4.094-0.001 8.187 0.004 12.281 0.405-0.412 0.814-0.821 1.227-1.227 0.412 0.408 0.828 0.813 1.231 1.23 0.003-1.871-0.003-3.742 0.003-5.613 1.643-0.941 3.275-1.9 4.923-2.834-0.41-0.708-0.818-1.418-1.231-2.126-1.237 0.697-2.461 1.417-3.693 2.122 0-1.278-0.003-2.555 0.001-3.833-0.401-0.425-0.82-0.835-1.234-1.245-0.412 0.415-0.83 0.821-1.231 1.245z"></path>
<path fill="#000" d="M12.402 9.256c0.401-0.424 0.82-0.83 1.231-1.245 0.415 0.41 0.833 0.82 1.234 1.245-0.004 1.278-0.001 2.555-0.001 3.833 1.231-0.705 2.456-1.425 3.693-2.122 0.413 0.708 0.821 1.418 1.231 2.126-1.647 0.934-3.28 1.893-4.923 2.834-0.005 1.871 0 3.742-0.003 5.613-0.404-0.417-0.82-0.822-1.231-1.23-0.413 0.406-0.822 0.815-1.227 1.227-0.005-4.094 0.001-8.187-0.004-12.281z"></path>
</svg>
