<?xml version="1.0" encoding="utf-8"?>
<!-- Generated by IcoMoon.io -->
<!DOCTYPE svg PUBLIC "-//W3C//DTD SVG 1.1//EN" "http://www.w3.org/Graphics/SVG/1.1/DTD/svg11.dtd">
<svg version="1.1" xmlns="http://www.w3.org/2000/svg" xmlns:xlink="http://www.w3.org/1999/xlink" width="24" height="24" viewBox="0 0 24 24">
<path fill="#030303" d="M9.865 1.546c0.559-0.499 1.102-1.021 1.72-1.45 0.705 0.476 1.319 1.075 1.943 1.649 3.011 2.945 5.988 5.928 8.911 8.959 0.37 0.415 0.807 0.784 1.046 1.295-0.39 0.76-1.083 1.298-1.64 1.928-3.236 3.27-6.472 6.544-9.821 9.698-0.14 0.108-0.319 0.355-0.513 0.192-0.574-0.364-1.084-0.821-1.578-1.286-2.58-2.515-5.111-5.078-7.64-7.643-0.775-0.8-1.56-1.594-2.292-2.434v-0.945c0.91-1.016 1.874-1.983 2.83-2.956 2.324-2.356 4.653-4.709 7.035-7.008M11.341 0.577c-3.659 3.604-7.27 7.26-10.915 10.879-0.143 0.162-0.357 0.315-0.348 0.558 0.087 0.265 0.326 0.434 0.51 0.629 3.574 3.563 7.144 7.13 10.714 10.698 0.15 0.135 0.408 0.127 0.575 0.025 3.67-3.66 7.34-7.32 11.006-10.983 0.225-0.165 0.334-0.524 0.085-0.719-3.649-3.663-7.315-7.312-10.972-10.968-0.15-0.198-0.457-0.315-0.656-0.119z"></path>
<path fill="#030303" d="M9.32 7.421c0.203-0.090 0.319 0.139 0.417 0.271 0.349 0.51 0.753 0.986 1.080 1.51 0 0.071 0.001 0.213 0.001 0.284-0.258 0.019-0.515 0.026-0.775 0.019-0.004 2.277 0.003 4.556-0.003 6.833-0.4 0.007-0.798 0-1.197 0.003-0.050-2.281 0.037-4.57-0.044-6.85-0.258 0.020-0.518 0.014-0.776 0.001-0.007-0.095-0.015-0.191-0.022-0.286 0.431-0.6 0.854-1.211 1.317-1.785z"></path>
<path fill="#030303" d="M13.331 9.657c0.404 0 0.807 0 1.211 0 0.004 2.227 0.003 4.454 0 6.68-0.404 0.005-0.807 0.005-1.211-0.004 0.001-2.225 0.003-4.451 0-6.676z"></path>
<path fill="#ffdb03" d="M11.341 0.577c0.199-0.196 0.506-0.079 0.656 0.119 3.657 3.656 7.323 7.305 10.972 10.968 0.25 0.195 0.14 0.554-0.085 0.719-3.665 3.663-7.336 7.323-11.006 10.983-0.168 0.102-0.425 0.11-0.575-0.025-3.57-3.567-7.14-7.135-10.714-10.698-0.184-0.195-0.423-0.364-0.51-0.629-0.010-0.243 0.205-0.395 0.348-0.558 3.645-3.619 7.256-7.275 10.915-10.879M9.32 7.421c-0.464 0.574-0.886 1.185-1.317 1.785 0.007 0.095 0.015 0.191 0.022 0.286 0.258 0.012 0.518 0.019 0.776-0.001 0.080 2.28-0.007 4.568 0.044 6.85 0.4-0.003 0.798 0.004 1.197-0.003 0.005-2.277-0.001-4.556 0.003-6.833 0.259 0.007 0.517 0 0.775-0.019 0-0.071-0.001-0.213-0.001-0.284-0.327-0.524-0.731-1-1.080-1.51-0.098-0.132-0.214-0.361-0.417-0.271M12.322 9.652c0.335 0.005 0.672 0.008 1.009 0.005 0.003 2.225 0.001 4.451 0 6.676 0.404 0.010 0.807 0.010 1.211 0.004 0.003-2.227 0.004-4.454 0-6.68 0.348 0.001 0.695 0 1.043 0 0.018-0.555 0.008-1.11 0.004-1.666-1.080-0.015-2.16 0.008-3.241-0.012-0.061 0.555-0.012 1.115-0.026 1.673z"></path>
<path fill="#c0111e" d="M12.322 9.652c0.014-0.558-0.035-1.118 0.026-1.673 1.081 0.020 2.161-0.003 3.241 0.012 0.004 0.556 0.014 1.111-0.004 1.666-0.348 0-0.695 0.001-1.043 0-0.404 0-0.807 0-1.211 0-0.337 0.003-0.674 0-1.009-0.005z"></path>
</svg>
