<?xml version="1.0" encoding="utf-8"?>
<!-- Generated by IcoMoon.io -->
<!DOCTYPE svg PUBLIC "-//W3C//DTD SVG 1.1//EN" "http://www.w3.org/Graphics/SVG/1.1/DTD/svg11.dtd">
<svg version="1.1" xmlns="http://www.w3.org/2000/svg" xmlns:xlink="http://www.w3.org/1999/xlink" width="24" height="24" viewBox="0 0 24 24">
<path fill="#231f20" d="M11.090 0.396c0.372-0.446 1.117-0.475 1.508-0.037 3.59 3.57 7.166 7.156 10.748 10.735 0.27 0.252 0.439 0.631 0.352 1.003-0.076 0.407-0.438 0.654-0.704 0.936-3.508 3.498-7.001 7.012-10.517 10.498-0.384 0.318-1.003 0.268-1.34-0.097-3.434-3.449-6.887-6.881-10.326-10.325-0.325-0.336-0.758-0.641-0.811-1.145v-0.127c0.040-0.487 0.442-0.799 0.758-1.121 3.444-3.44 6.884-6.883 10.332-10.32M11.578 0.779c-3.59 3.571-7.172 7.151-10.747 10.736-0.216 0.157-0.3 0.492-0.071 0.678 3.518 3.522 7.046 7.033 10.561 10.558 0.167 0.148 0.307 0.383 0.557 0.383 0.27-0.030 0.414-0.294 0.602-0.457 3.5-3.498 7.001-6.995 10.5-10.494 0.211-0.181 0.138-0.5-0.070-0.649-3.556-3.565-7.117-7.123-10.679-10.682-0.156-0.2-0.47-0.286-0.654-0.072z"></path>
<path fill="#231f20" d="M13.186 8.906c0.678-1.192 1.362-2.38 2.051-3.564 0.691 1.187 1.376 2.378 2.057 3.572-0.337-0.082-0.673-0.164-1.010-0.246-0.030 0.77 0.088 1.56-0.132 2.311-0.206 0.858-0.755 1.657-1.562 2.046-1.235 0.64-2.674 0.498-3.988 0.845-0.49 0.116-0.947 0.518-0.946 1.054-0.016 0.961 0 1.922-0.007 2.882-0.72 0.002-1.441 0-2.162 0.001 0.006-1.054-0.020-2.107 0.016-3.16 0.040-0.839 0.5-1.661 1.258-2.052 1.297-0.689 2.82-0.578 4.205-0.968 0.527-0.128 1.068-0.499 1.132-1.079 0.046-0.62 0.011-1.243 0.019-1.865-0.31 0.074-0.619 0.149-0.929 0.222z"></path>
<path fill="#fd0" d="M11.578 0.779c0.184-0.214 0.498-0.128 0.654 0.072 3.562 3.559 7.123 7.117 10.679 10.682 0.208 0.149 0.281 0.468 0.070 0.649-3.499 3.499-7 6.996-10.5 10.494-0.188 0.163-0.332 0.427-0.602 0.457-0.25 0-0.39-0.235-0.557-0.383-3.515-3.524-7.043-7.036-10.561-10.558-0.229-0.186-0.145-0.521 0.071-0.678 3.575-3.586 7.157-7.165 10.747-10.736M13.186 8.906c0.31-0.073 0.619-0.148 0.929-0.222-0.008 0.622 0.026 1.244-0.019 1.865-0.064 0.58-0.605 0.95-1.132 1.079-1.385 0.39-2.908 0.28-4.205 0.968-0.757 0.391-1.218 1.213-1.258 2.052-0.036 1.052-0.010 2.106-0.016 3.16 0.721-0.001 1.442 0.001 2.162-0.001 0.007-0.96-0.008-1.921 0.007-2.882-0.001-0.535 0.456-0.937 0.946-1.054 1.314-0.347 2.753-0.205 3.988-0.845 0.808-0.389 1.356-1.188 1.562-2.046 0.22-0.751 0.102-1.541 0.132-2.311 0.337 0.082 0.673 0.164 1.010 0.246-0.68-1.194-1.366-2.386-2.057-3.572-0.689 1.184-1.373 2.372-2.051 3.564z"></path>
</svg>
