<!-- Generated by IcoMoon.io -->
<svg version="1.1" xmlns="http://www.w3.org/2000/svg" width="28" height="24" viewBox="0 0 28 24">
<title>warning--stop-ahead--g4</title>
<path fill="#c31926" d="M13.519 0h0.689c0.579 0.18 1.007 0.628 1.279 1.156 4.065 6.982 8.232 13.908 12.258 20.912v0.696c-0.208 0.57-0.652 1.013-1.214 1.236h-25.29c-0.572-0.201-1.016-0.644-1.242-1.203v-0.71c4.006-7.021 8.196-13.941 12.258-20.931 0.269-0.523 0.692-0.967 1.261-1.156M13.779 1.405c-4.092 6.802-8.057 13.687-12.111 20.517-0.103 0.228-0.499 0.663-0.015 0.676 8.050 0.037 16.105 0.001 24.157 0.018 0.205 0.006 0.737-0.022 0.468-0.333-4-6.857-8.050-13.687-12.062-20.537-0.117-0.15-0.194-0.431-0.436-0.34z"></path>
<path fill="#c31926" d="M12.265 13.636c1.072-0.008 2.143-0.008 3.216 0 0.732 0.791 1.597 1.476 2.25 2.329 0.071 1.063 0.003 2.131 0.026 3.195-0.773 0.778-1.559 1.544-2.326 2.329-1.034-0.087-2.082-0.087-3.116 0-0.766-0.785-1.554-1.55-2.326-2.328 0.024-1.065-0.044-2.134 0.026-3.196 0.653-0.853 1.516-1.539 2.25-2.329M10.616 16.596c-0.383 0.891 1.319 0.996 0.891 1.821-0.305 0.39-0.623-0.050-0.785-0.326-0.080 0.006-0.241 0.014-0.322 0.018 0.111 0.394 0.326 0.886 0.82 0.842 0.739 0.018 1.025-1.059 0.429-1.458-0.35-0.247-1.077-0.721-0.354-1.014 0.221 0.172 0.465 0.311 0.728 0.405-0.001-0.785-1.157-1.071-1.407-0.289M14.333 16.141c-0.812 0.402-0.68 1.581-0.472 2.317 0.193 0.745 1.321 0.58 1.376-0.161 0.187-0.746 0.214-2.303-0.905-2.156M12.039 16.183c0.042 0.315 0.316 0.355 0.577 0.394-0.010 0.777-0.006 1.555-0.004 2.332 0.1-0.004 0.298-0.012 0.397-0.017-0.006-0.785-0.001-1.57-0.004-2.356 0.125-0.004 0.376-0.014 0.502-0.018 0-0.087 0-0.264 0.001-0.352-0.49-0.001-0.979-0.003-1.469 0.017M15.764 16.159c-0.004 0.914-0.003 1.83-0.001 2.744 0.097 0.001 0.294 0.001 0.391 0.001 0.003-0.393 0.003-0.787 0.012-1.179 0.522 0.058 1.224-0.141 1.135-0.8 0.035-0.839-0.953-0.795-1.537-0.766z"></path>
<path fill="#c31926" d="M14.331 16.55c0.609-0.222 0.619 0.674 0.619 1.071 0.042 0.369-0.175 1.251-0.659 0.834-0.277-0.576-0.29-1.346 0.040-1.905z"></path>
<path fill="#c31926" d="M16.16 16.509c0.279 0.057 0.757 0.006 0.756 0.413 0.053 0.459-0.456 0.372-0.757 0.436-0.001-0.283-0.001-0.566 0.001-0.849z"></path>
<path fill="#fff" d="M13.779 1.405c0.241-0.092 0.319 0.19 0.436 0.34 4.012 6.85 8.063 13.68 12.062 20.537 0.269 0.311-0.262 0.339-0.468 0.333-8.052-0.017-16.106 0.019-24.157-0.018-0.484-0.012-0.087-0.448 0.015-0.676 4.054-6.83 8.019-13.715 12.111-20.517M10.392 10.142c0.234 0.234 0.47 0.465 0.701 0.702 0.763-0.766 1.53-1.529 2.292-2.295-0.001 1.169 0.004 2.34-0.003 3.51 0.333 0 0.666 0 0.999 0.001-0.008-1.164-0.004-2.328-0.003-3.492 0.759 0.757 1.518 1.515 2.274 2.275 0.232-0.237 0.468-0.468 0.702-0.702-1.168-1.163-2.335-2.325-3.482-3.507-1.143 1.183-2.313 2.344-3.479 3.507M12.029 13.428c-0.787 0.738-1.576 1.491-2.285 2.301-0.119 0.855-0.001 1.723-0.050 2.583 0.019 0.466-0.108 1.039 0.314 1.369 0.727 0.66 1.351 1.436 2.121 2.045 1.115 0.129 2.265 0.074 3.391 0.031 0.664-0.354 1.085-1.043 1.659-1.526 0.323-0.37 0.884-0.663 0.866-1.219 0.012-1.1-0.006-2.2-0.006-3.3-0.789-0.745-1.509-1.565-2.322-2.283-1.206-0.184-2.482-0.184-3.687 0z"></path>
<path fill="#fff" d="M10.616 16.596c0.25-0.782 1.405-0.497 1.407 0.289-0.264-0.094-0.508-0.233-0.728-0.405-0.723 0.293 0.004 0.767 0.354 1.014 0.597 0.4 0.311 1.476-0.429 1.458-0.494 0.044-0.709-0.448-0.82-0.842 0.080-0.004 0.241-0.012 0.322-0.018 0.162 0.276 0.48 0.716 0.785 0.326 0.429-0.825-1.274-0.931-0.891-1.821z"></path>
<path fill="#fff" d="M14.333 16.141c1.118-0.147 1.092 1.409 0.905 2.156-0.056 0.741-1.183 0.906-1.376 0.161-0.208-0.735-0.34-1.914 0.472-2.317M14.331 16.55c-0.33 0.559-0.318 1.329-0.040 1.905 0.484 0.418 0.701-0.465 0.659-0.834 0-0.397-0.010-1.293-0.619-1.071z"></path>
<path fill="#fff" d="M12.039 16.183c0.49-0.019 0.979-0.018 1.469-0.017-0.001 0.089-0.001 0.265-0.001 0.352-0.126 0.004-0.377 0.014-0.502 0.018 0.003 0.785-0.001 1.57 0.004 2.356-0.099 0.004-0.297 0.012-0.397 0.017-0.001-0.777-0.006-1.555 0.004-2.332-0.261-0.039-0.535-0.079-0.577-0.394z"></path>
<path fill="#fff" d="M15.764 16.159c0.584-0.029 1.572-0.074 1.537 0.766 0.089 0.659-0.613 0.859-1.135 0.8-0.010 0.393-0.010 0.787-0.012 1.179-0.097 0-0.294 0-0.391-0.001-0.001-0.914-0.003-1.83 0.001-2.744M16.16 16.509c-0.003 0.283-0.003 0.566-0.001 0.849 0.301-0.064 0.81 0.024 0.757-0.436 0.001-0.408-0.477-0.357-0.756-0.413z"></path>
<path fill="#fff" d="M12.315 21.489c1.034-0.087 2.082-0.087 3.116 0l0.203 0.033c-1.156 0.184-2.364 0.183-3.521 0l0.203-0.033z"></path>
<path fill="#000" d="M10.392 10.142c1.167-1.163 2.336-2.324 3.479-3.507 1.147 1.182 2.314 2.344 3.482 3.507-0.234 0.234-0.47 0.465-0.702 0.702-0.756-0.76-1.515-1.518-2.274-2.275-0.001 1.164-0.006 2.328 0.003 3.492-0.333-0.001-0.666-0.001-0.999-0.001 0.007-1.169 0.001-2.34 0.003-3.51-0.762 0.766-1.529 1.529-2.292 2.295-0.23-0.237-0.466-0.468-0.701-0.702z"></path>
<path fill="#9d9d9d" d="M12.029 13.428c1.206-0.184 2.482-0.184 3.687 0-1.229 0.039-2.458 0.037-3.687 0z"></path>
<path fill="#d4cccd" d="M9.744 15.729c0.709-0.81 1.498-1.563 2.285-2.301 1.229 0.037 2.458 0.039 3.687 0 0.813 0.719 1.533 1.539 2.322 2.283 0 1.1 0.018 2.2 0.006 3.3 0.018 0.556-0.542 0.849-0.866 1.219-0.574 0.483-0.995 1.172-1.659 1.526-1.125 0.043-2.275 0.099-3.391-0.031-0.77-0.609-1.394-1.384-2.121-2.045-0.422-0.33-0.294-0.903-0.314-1.369 0.049-0.86-0.069-1.729 0.050-2.583M12.265 13.636c-0.734 0.791-1.597 1.476-2.25 2.329-0.071 1.063-0.003 2.131-0.026 3.196 0.773 0.778 1.561 1.543 2.326 2.328l-0.203 0.033c1.157 0.183 2.365 0.184 3.521 0l-0.203-0.033c0.767-0.785 1.554-1.551 2.326-2.329-0.024-1.064 0.044-2.132-0.026-3.195-0.653-0.853-1.518-1.539-2.25-2.329-1.072-0.008-2.143-0.008-3.216 0z"></path>
</svg>
