<?xml version="1.0" encoding="utf-8"?>
<!-- Generated by IcoMoon.io -->
<!DOCTYPE svg PUBLIC "-//W3C//DTD SVG 1.1//EN" "http://www.w3.org/Graphics/SVG/1.1/DTD/svg11.dtd">
<svg version="1.1" xmlns="http://www.w3.org/2000/svg" xmlns:xlink="http://www.w3.org/1999/xlink" width="24" height="24" viewBox="0 0 24 24">
<path fill="#fee011" d="M11.806 0h0.244c0.354 0.034 0.654 0.238 0.894 0.487 3.517 3.523 7.040 7.039 10.556 10.564 0.493 0.428 0.552 1.256 0.077 1.721-3.474 3.485-6.96 6.96-10.435 10.444-0.284 0.287-0.578 0.632-1.007 0.68-0.396 0.067-0.798-0.095-1.067-0.384-3.563-3.568-7.129-7.13-10.692-10.696-0.203-0.192-0.316-0.452-0.376-0.72v-0.221c0.032-0.336 0.205-0.636 0.449-0.864 3.521-3.522 7.042-7.044 10.562-10.565 0.215-0.223 0.487-0.386 0.794-0.446M11.663 0.269c-0.222 0.073-0.385 0.251-0.551 0.406-3.398 3.4-6.797 6.797-10.195 10.195-0.202 0.208-0.43 0.396-0.58 0.647-0.208 0.367-0.106 0.857 0.21 1.129 3.484 3.481 6.966 6.962 10.446 10.446 0.228 0.217 0.437 0.498 0.764 0.563 0.33 0.080 0.676-0.055 0.899-0.301 3.583-3.584 7.168-7.166 10.75-10.751 0.402-0.366 0.344-1.043-0.062-1.384-3.541-3.541-7.082-7.084-10.625-10.625-0.259-0.29-0.672-0.468-1.056-0.325z"></path>
<path fill="#fee011" d="M11.689 0.767c0.196-0.178 0.49-0.085 0.647 0.095 3.546 3.538 7.084 7.085 10.628 10.624 0.131 0.14 0.299 0.295 0.265 0.509-0.025 0.234-0.244 0.367-0.388 0.528-3.524 3.517-7.042 7.040-10.564 10.561-0.167 0.193-0.494 0.186-0.656-0.011-3.5-3.502-7.001-7.004-10.505-10.504-0.16-0.176-0.391-0.322-0.437-0.57-0.032-0.275 0.218-0.445 0.379-0.626 3.55-3.529 7.064-7.093 10.63-10.606M7.097 7.392c0.043 1.056-0.365 2.062-0.572 3.084-0.306 0.352-0.656 0.662-0.978 0.998 0.114 0.114 0.228 0.227 0.341 0.341 0.34-0.289 0.677-0.582 1.014-0.874 0.806-0.012 1.613-0.004 2.419-0.005 0.364 0.28 0.752 0.533 1.082 0.854 0.578 0.618 0.869 1.492 0.796 2.334 1.313-0.013 2.624 0 3.936-0.007 0.504-1.285 2.432-1.508 3.229-0.385-0.007-0.361-0.005-0.724-0.005-1.085-0.341 0.001-0.68 0-1.020 0 0.126-0.77 0.251-1.541 0.378-2.311-0.516-0.002-1.032 0-1.549-0.001 0-0.248-0.001-0.496-0.001-0.743-0.056-0.005-0.169-0.013-0.227-0.018 0-0.21 0-0.421-0.001-0.631-0.074 0-0.224 0-0.3 0 0.001 0.204 0.002 0.408 0.005 0.612-0.059 0.016-0.176 0.049-0.235 0.065 0.002 0.239 0.004 0.476 0.004 0.715-1.021 0.001-2.041 0.001-3.062 0 0.198-1.068-0.857-1.873-0.642-2.944-1.537 0-3.073 0-4.61 0M7.613 11.245c-1.108 0.206-2.004 1.199-2.108 2.32-0.119 0.983 0.371 2.004 1.207 2.531 0.829 0.552 1.979 0.568 2.822 0.038 0.734-0.438 1.229-1.249 1.28-2.102 0.061-0.823-0.292-1.664-0.922-2.197-0.61-0.542-1.484-0.752-2.28-0.589M16.366 13.394c-0.706 0.226-1.165 1.010-1.016 1.736 0.125 0.77 0.901 1.363 1.679 1.26 0.887-0.065 1.57-1.007 1.348-1.871-0.167-0.876-1.175-1.439-2.010-1.126z"></path>
<path fill="#fee011" d="M7.702 8.113c0.452-0.002 0.906-0.001 1.36-0.001 0.002 0.616 0 1.231 0.001 1.847-0.605 0.002-1.21 0.001-1.814 0.001 0.151-0.616 0.301-1.231 0.454-1.847z"></path>
<path fill="#fee011" d="M9.667 8.112c0.439-0.001 0.88 0 1.32 0 0.232 0.614 0.454 1.231 0.682 1.848-0.667 0-1.336 0-2.003 0 0-0.617 0-1.232 0.001-1.848z"></path>
<path fill="#fee011" d="M9.662 10.51c0.682 0.004 1.363 0.001 2.044 0.002 0 0.199 0.001 0.4 0.001 0.6-0.403 0-0.806 0.001-1.21-0.002-0.275-0.205-0.553-0.404-0.835-0.6z"></path>
<path fill="#fee011" d="M7.73 12.422c0.802-0.264 1.745 0.299 1.888 1.132 0.186 0.793-0.401 1.654-1.205 1.774-0.772 0.158-1.588-0.406-1.723-1.178-0.168-0.734 0.316-1.53 1.040-1.727z"></path>
<path fill="#fee011" d="M16.586 14.303c0.4-0.221 0.943 0.125 0.9 0.582 0.001 0.456-0.581 0.766-0.953 0.492-0.401-0.23-0.365-0.882 0.053-1.074z"></path>
<path fill="#000" d="M11.663 0.269c0.384-0.143 0.797 0.035 1.056 0.325 3.542 3.541 7.084 7.084 10.625 10.625 0.407 0.341 0.464 1.018 0.062 1.384-3.582 3.584-7.166 7.166-10.75 10.751-0.223 0.246-0.569 0.382-0.899 0.301-0.328-0.065-0.536-0.346-0.764-0.563-3.48-3.484-6.962-6.965-10.446-10.446-0.316-0.272-0.418-0.762-0.21-1.129 0.15-0.251 0.378-0.439 0.58-0.647 3.398-3.398 6.797-6.796 10.195-10.195 0.166-0.155 0.329-0.332 0.551-0.406M11.689 0.767c-3.565 3.512-7.080 7.076-10.63 10.606-0.161 0.181-0.412 0.352-0.379 0.626 0.046 0.248 0.277 0.394 0.437 0.57 3.504 3.499 7.004 7.002 10.505 10.504 0.162 0.197 0.49 0.204 0.656 0.011 3.522-3.521 7.039-7.044 10.564-10.561 0.144-0.161 0.362-0.294 0.388-0.528 0.034-0.214-0.134-0.368-0.265-0.509-3.545-3.539-7.082-7.086-10.628-10.624-0.157-0.18-0.451-0.272-0.647-0.095z"></path>
<path fill="#000" d="M7.097 7.392c1.537 0 3.073 0 4.61 0-0.215 1.070 0.84 1.876 0.642 2.944 1.021 0.001 2.041 0.001 3.062 0 0-0.239-0.001-0.476-0.004-0.715 0.059-0.016 0.176-0.049 0.235-0.065-0.002-0.204-0.004-0.408-0.005-0.612 0.076 0 0.226 0 0.3 0 0.001 0.21 0.001 0.421 0.001 0.631 0.058 0.005 0.17 0.013 0.227 0.018 0 0.247 0.001 0.494 0.001 0.743 0.517 0.001 1.033-0.001 1.549 0.001-0.127 0.77-0.252 1.541-0.378 2.311 0.34 0 0.679 0.001 1.020 0 0 0.361-0.002 0.724 0.005 1.085-0.797-1.123-2.725-0.9-3.229 0.385-1.312 0.007-2.623-0.006-3.936 0.007 0.073-0.842-0.217-1.716-0.796-2.334-0.33-0.322-0.719-0.575-1.082-0.854-0.806 0.001-1.613-0.007-2.419 0.005-0.337 0.292-0.674 0.584-1.014 0.874-0.113-0.114-0.227-0.227-0.341-0.341 0.322-0.336 0.672-0.647 0.978-0.998 0.208-1.022 0.616-2.028 0.572-3.084M7.702 8.113c-0.152 0.616-0.302 1.231-0.454 1.847 0.605 0 1.21 0.001 1.814-0.001-0.001-0.616 0.001-1.231-0.001-1.847-0.454 0-0.907-0.001-1.36 0.001M9.667 8.112c-0.001 0.616-0.001 1.231-0.001 1.848 0.667 0 1.336 0 2.003 0-0.228-0.617-0.45-1.234-0.682-1.848-0.44 0-0.881-0.001-1.32 0M9.662 10.51c0.282 0.196 0.56 0.395 0.835 0.6 0.403 0.004 0.806 0.002 1.21 0.002 0-0.2-0.001-0.401-0.001-0.6-0.68-0.001-1.362 0.001-2.044-0.002z"></path>
<path fill="#000" d="M7.613 11.245c0.796-0.163 1.67 0.047 2.28 0.589 0.63 0.533 0.983 1.374 0.922 2.197-0.052 0.853-0.546 1.664-1.28 2.102-0.844 0.529-1.993 0.514-2.822-0.038-0.836-0.527-1.326-1.548-1.207-2.531 0.104-1.121 1.001-2.113 2.108-2.32M7.73 12.422c-0.725 0.197-1.208 0.992-1.040 1.727 0.136 0.773 0.952 1.337 1.723 1.178 0.804-0.12 1.391-0.98 1.205-1.774-0.143-0.833-1.086-1.396-1.888-1.132z"></path>
<path fill="#000" d="M16.366 13.394c0.835-0.313 1.843 0.25 2.010 1.126 0.222 0.864-0.461 1.806-1.348 1.871-0.778 0.103-1.554-0.49-1.679-1.26-0.149-0.726 0.311-1.511 1.016-1.736M16.586 14.303c-0.418 0.192-0.454 0.844-0.053 1.074 0.372 0.274 0.954-0.036 0.953-0.492 0.043-0.457-0.5-0.803-0.9-0.582z"></path>
</svg>
