<svg xmlns="http://www.w3.org/2000/svg" width="24" height="24">
    <path fill="#ec1d24" d="M11.78 1.333h.562c.468.141.907.42 1.141.86 3.427 5.939 6.844 11.88 10.271 17.818.129.231.248.47.351.715v.678a1.792 1.792 0 0 1-1.294 1.262H1.327C.667 22.524.172 21.993 0 21.353V20.8c.196-.552.518-1.043.806-1.548 3.277-5.684 6.552-11.371 9.83-17.054.234-.444.674-.724 1.144-.866zM2.533 20.534c6.352.004 12.705.004 19.057 0a9682.92 9682.92 0 0 0-9.529-16.525 9056.095 9056.095 0 0 0-9.528 16.525z"/>
    <path fill="#fff" d="M2.533 20.534a8427.47 8427.47 0 0 1 9.528-16.525c3.183 5.505 6.356 11.015 9.529 16.525-6.352.004-12.705.004-19.057 0zm10.391-10.125c-1.27.639-2.234 1.843-2.52 3.244-.935-.258-.732-1.378-.342-2.019.826-.067 1.238-1.218.475-1.669-.749-.525-1.618.383-1.308 1.163-1.903 1.676-2.935 4.182-2.871 6.708.214.003.429.004.644.004-.036.664-.078 1.327-.115 1.99.465-.001.931.017 1.395-.025-.203-.248-.527-.322-.804-.456.111-.51.265-1.009.405-1.511.135.007.271.006.407-.004.237.673.468 1.347.702 2.02.938-.088 1.985.187 2.857-.134a22.558 22.558 0 0 0-.61-.338c.119-.695.201-1.397.25-2.1.317.829.605 1.672.753 2.549.477 0 .956.01 1.435-.012-.089-.298-.464-.282-.7-.392a78.026 78.026 0 0 1-.724-3.806 3.51 3.51 0 0 1 .864-2.913c.519.799 1.213 1.46 1.944 2.063-.024.111-.051.221-.076.332.205-.108.7-.192.604.189-.229 1.509-.478 3.016-.71 4.524l.211.046c.257-1.54.517-3.077.764-4.618.1-.098.197-.196.299-.294-1.168-1.033-2.462-2.272-2.557-3.936.749.176 1.393-.636.915-1.287-.501-.762-1.731-.187-1.585.682z"/>
    <path fill="#fff" d="M9.316 17.756c-.23-1.253-.687-2.652-.051-3.856.302.229.62.44.972.59.164 1.708.497 3.468-.081 5.145-.945-.064-.891-1.002-1.036-1.71l.196-.17z"/>
    <path d="M12.924 10.409c-.146-.869 1.084-1.444 1.585-.682.478.652-.165 1.463-.915 1.287.095 1.665 1.389 2.903 2.557 3.936l-.299.294c-.247 1.54-.508 3.078-.764 4.618a15.911 15.911 0 0 0-.211-.046c.231-1.509.481-3.016.71-4.524.096-.38-.399-.297-.604-.189.025-.111.052-.221.076-.332-.731-.603-1.425-1.264-1.944-2.063a3.51 3.51 0 0 0-.864 2.913 77.8 77.8 0 0 0 .724 3.806c.236.109.611.094.7.392-.478.021-.957.012-1.435.012-.148-.877-.436-1.72-.753-2.549a20.56 20.56 0 0 1-.25 2.1c.205.109.409.221.61.338-.871.321-1.919.046-2.857.134-.234-.674-.465-1.348-.702-2.02a2.912 2.912 0 0 1-.407.004c-.14.502-.294 1.002-.405 1.511.277.134.602.207.804.456-.464.042-.929.024-1.395.025.036-.663.078-1.326.115-1.99l-.644-.004c-.064-2.525.968-5.032 2.871-6.708-.309-.78.558-1.689 1.308-1.163.763.452.351 1.603-.475 1.669-.389.641-.593 1.761.342 2.019.287-1.401 1.25-2.604 2.52-3.244zm-3.608 7.347l-.196.17c.145.708.091 1.646 1.036 1.71.577-1.677.244-3.437.081-5.145a4.723 4.723 0 0 1-.972-.59c-.636 1.204-.18 2.602.051 3.856z"/>
</svg>
