<!-- Generated by IcoMoon.io -->
<svg version="1.1" xmlns="http://www.w3.org/2000/svg" width="28" height="24" viewBox="0 0 28 24">
<title>warning--low-flying-aircraft--g4</title>
<path fill="#c31926" d="M13.53 0h0.659c0.591 0.166 1.025 0.621 1.297 1.156 4.063 6.991 8.253 13.912 12.259 20.933v0.658c-0.197 0.587-0.652 1.040-1.232 1.254h-25.249c-0.591-0.187-1.046-0.642-1.265-1.217v-0.684c3.995-7.031 8.197-13.948 12.258-20.942 0.269-0.529 0.695-0.975 1.272-1.157M13.643 1.573c-4.105 6.985-8.249 13.951-12.305 20.963 0.246 0.037 0.492 0.069 0.741 0.076 7.493 0 14.984 0 22.477 0 0.616 0.001 1.239 0.036 1.849-0.078-4.019-6.956-8.143-13.852-12.196-20.788-0.089-0.246-0.415-0.549-0.566-0.173z"></path>
<path fill="#fff" d="M13.643 1.573c0.151-0.376 0.477-0.072 0.566 0.173 4.052 6.936 8.177 13.833 12.196 20.788-0.61 0.114-1.233 0.079-1.849 0.078-7.493 0-14.984 0-22.477 0-0.248-0.007-0.495-0.039-0.741-0.076 4.056-7.013 8.2-13.978 12.305-20.963M18.372 11.58c-1.009 0.449-1.715 1.353-2.55 2.046-0.531-0.096-1.065-0.172-1.601-0.24 0.247-0.241 0.488-0.486 0.734-0.727-0.171-0.168-0.343-0.337-0.513-0.505-0.366 0.363-0.731 0.728-1.097 1.093-0.397-0.064-0.794-0.126-1.188-0.203 0.247-0.257 0.495-0.512 0.744-0.769-0.172-0.164-0.343-0.329-0.513-0.494-0.376 0.38-0.759 0.756-1.131 1.14-0.857-0.097-2.025-0.57-2.533 0.426 1.672 0.803 3.49 1.286 5.104 2.213-0.659 0.794-1.391 1.52-2.080 2.288-0.902 0.018-1.982-0.494-2.727 0.229 0.658 0.487 1.473 0.762 2.012 1.4 0.626 0.527 0.888 1.33 1.371 1.971 0.726-0.724 0.223-1.808 0.228-2.698 0.762-0.701 1.487-1.444 2.296-2.089 0.935 1.609 1.391 3.438 2.231 5.093 0.993-0.534 0.501-1.72 0.411-2.593 0.373-0.368 0.741-0.739 1.111-1.11-0.171-0.169-0.341-0.337-0.512-0.505-0.247 0.246-0.492 0.494-0.738 0.742-0.060-0.404-0.122-0.807-0.182-1.212 0.351-0.361 0.708-0.716 1.063-1.072-0.172-0.168-0.343-0.336-0.515-0.504-0.23 0.232-0.461 0.465-0.688 0.699-0.078-0.512-0.157-1.024-0.237-1.534 0.685-0.805 1.53-1.505 2.017-2.457 0.23-0.348-0.115-0.828-0.515-0.628z"></path>
<path fill="#000" d="M18.372 11.58c0.4-0.2 0.745 0.28 0.515 0.628-0.487 0.952-1.332 1.652-2.017 2.457 0.080 0.511 0.16 1.022 0.237 1.534 0.228-0.234 0.458-0.468 0.688-0.699 0.172 0.168 0.343 0.336 0.515 0.504-0.355 0.357-0.712 0.712-1.063 1.072 0.060 0.405 0.122 0.809 0.182 1.212 0.246-0.248 0.491-0.497 0.738-0.742 0.171 0.168 0.341 0.336 0.512 0.505-0.37 0.37-0.738 0.742-1.111 1.11 0.090 0.873 0.583 2.059-0.411 2.593-0.839-1.655-1.296-3.483-2.231-5.093-0.809 0.645-1.534 1.389-2.296 2.089-0.004 0.891 0.498 1.974-0.228 2.698-0.483-0.641-0.745-1.444-1.371-1.971-0.538-0.638-1.354-0.913-2.012-1.4 0.745-0.723 1.826-0.211 2.727-0.229 0.688-0.767 1.421-1.494 2.080-2.288-1.613-0.927-3.432-1.409-5.104-2.213 0.508-0.996 1.676-0.523 2.533-0.426 0.372-0.384 0.755-0.76 1.131-1.14 0.171 0.165 0.341 0.33 0.513 0.494-0.248 0.257-0.497 0.512-0.744 0.769 0.394 0.076 0.791 0.139 1.188 0.203 0.366-0.365 0.731-0.73 1.097-1.093 0.171 0.168 0.343 0.337 0.513 0.505-0.246 0.241-0.487 0.486-0.734 0.727 0.535 0.068 1.070 0.144 1.601 0.24 0.835-0.694 1.541-1.597 2.55-2.046z"></path>
</svg>
