<!-- Generated by IcoMoon.io -->
<svg version="1.1" xmlns="http://www.w3.org/2000/svg" width="27" height="24" viewBox="0 0 27 24">
<title>warning--soft-shoulder--g2</title>
<path fill="#000" d="M13.264 0h0.653c0.436 0.144 0.835 0.419 1.048 0.836 3.959 6.872 7.922 13.743 11.883 20.614 0.132 0.234 0.25 0.476 0.352 0.725v0.631c-0.18 0.559-0.613 1.005-1.17 1.194h-24.878c-0.102-0.077-0.204-0.154-0.306-0.231 0.507 0.141 1.034 0.115 1.554 0.112 7.769-0.004 15.538 0.003 23.307-0.003 1.055 0.037 1.742-1.28 1.158-2.145-4.016-6.98-8.040-13.958-12.067-20.932-0.476-0.899-1.918-0.894-2.396-0.001-4.028 6.975-8.051 13.952-12.069 20.932-0.428 0.663-0.158 1.524 0.43 1.99-0.406-0.137-0.612-0.525-0.763-0.896v-0.642c0.202-0.529 0.51-1.006 0.789-1.495 3.815-6.618 7.633-13.235 11.446-19.854 0.213-0.408 0.604-0.68 1.029-0.835z"></path>
<path fill="#000" d="M11.764 14.489c0.458-0.577 0.595-1.726 1.532-1.642 1.306 0.111 2.638 0.24 3.882 0.668 0.591 0.431 0.443 1.32 0.674 1.955 0.11 0.055 0.221 0.11 0.333 0.165 0.002 0.126 0.005 0.252 0.009 0.378-0.38 0.080-1.020-0.345-1.214 0.086 0.379 0.075 0.764 0.115 1.147 0.165-0.059 0.378-0.152 0.758-0.039 1.135 0.077 0.265-0.212 0.238-0.383 0.236-0.039 0.241-0.045 0.494-0.15 0.718-0.304 0.115-0.642-0.025-0.953-0.061-0.457-0.045-0.19-0.591-0.178-0.878-1.339-0.206-2.68-0.408-4.017-0.629-0.044 0.263-0.091 0.527-0.16 0.785 0.971-0.024 1.943-0.005 2.915-0.010 0.001 0.381 0.001 0.761 0 1.142-2.58 0.001-5.16 0.001-7.74 0 0-0.381-0.001-0.762-0.001-1.142 1.446 0.002 2.891-0.008 4.336 0.007-0.233-0.076-0.531-0.030-0.715-0.216-0.038-0.24 0.036-0.479 0.064-0.716-0.097-0.047-0.193-0.094-0.288-0.144 0.053-0.173 0.076-0.375 0.262-0.46 0.033-0.28 0.078-0.559 0.137-0.834 0.383-0.019 1.030 0.37 1.22-0.068-0.403-0.070-0.808-0.126-1.214-0.175 0.027-0.089 0.081-0.268 0.108-0.357 0.144-0.037 0.288-0.072 0.433-0.108M12.349 14.487c1.679-0.089 3.361 0.2 4.939 0.77-0.162-0.466-0.008-1.255-0.62-1.41-1.074-0.256-2.169-0.432-3.271-0.504-0.656-0.066-0.746 0.735-1.048 1.144M13.662 15.275c-0.049 0.236-0.079 0.475-0.099 0.715 0.665 0.127 1.339 0.204 2.007 0.321 0.045-0.234 0.090-0.468 0.13-0.703-0.674-0.143-1.36-0.213-2.038-0.333z"></path>
<path fill="#000" d="M15.286 17.805c0.188-0.163 0.425-0.202 0.665-0.169 0.311 0.284 0.24 0.738-0.128 0.931-0.247-0.032-0.464-0.135-0.589-0.358 0.018-0.135 0.035-0.269 0.052-0.404z"></path>
<path fill="#000" d="M17.012 18.61c0.172-0.117 0.365-0.182 0.575-0.155 0.061 0.092 0.123 0.183 0.186 0.275-0.014 0.094-0.028 0.188-0.042 0.283-0.085 0.069-0.169 0.139-0.253 0.209-0.34-0.003-0.526-0.293-0.466-0.612z"></path>
<path fill="#000" d="M18.013 18.485c0.316-0.17 0.564 0.332 0.237 0.465-0.282 0.119-0.483-0.295-0.237-0.465z"></path>
<path fill="#000" d="M15.329 18.803c0.149-0.076 0.311-0.117 0.476-0.145 0.208 0.291 0.055 0.674-0.329 0.61-0.037-0.052-0.111-0.155-0.147-0.206 0-0.065 0-0.194 0-0.259z"></path>
<path fill="#000" d="M16.005 19.271c-0.027-0.505 0.643-0.671 0.849-0.208-0.015 0.079-0.045 0.237-0.060 0.316-0.079 0.066-0.157 0.132-0.235 0.198-0.106-0.008-0.211-0.015-0.316-0.022-0.079-0.095-0.159-0.19-0.238-0.284z"></path>
<path fill="#000" d="M18.959 19.074c0.063-0.625 0.842-0.083 0.272 0.192-0.068-0.048-0.204-0.144-0.272-0.192z"></path>
<path fill="#000" d="M17.898 19.676c-0.147-0.213-0.125-0.577 0.195-0.587 0.375-0.018 0.409 0.475 0.125 0.64-0.080-0.013-0.24-0.040-0.32-0.053z"></path>
<path fill="#000" d="M18.886 19.911c-0.564-0.011-0.484-0.792 0.068-0.689 0.201 0.22 0.179 0.517-0.068 0.689z"></path>
<path fill="#fff" d="M12.402 0.8c0.478-0.893 1.92-0.898 2.396 0.001 4.027 6.974 8.051 13.952 12.067 20.932 0.584 0.865-0.103 2.182-1.158 2.145-7.769 0.006-15.538-0.001-23.307 0.003-0.52 0.003-1.047 0.029-1.554-0.112-0.020-0.012-0.062-0.035-0.083-0.047-0.588-0.466-0.858-1.327-0.43-1.99 4.018-6.98 8.041-13.957 12.069-20.932M13.335 0.546c-0.454 0.108-0.644 0.57-0.857 0.933-3.92 6.81-7.852 13.614-11.771 20.424-0.424 0.597 0.044 1.537 0.788 1.507 8.035 0.008 16.071 0 24.107 0.004 0.491 0.048 0.969-0.325 1.037-0.814 0.073-0.451-0.232-0.831-0.436-1.203-3.901-6.766-7.804-13.531-11.701-20.299-0.197-0.436-0.703-0.688-1.167-0.552z"></path>
<path fill="#fff" d="M13.521 4.891c0.043-0.154 0.174 0.003 0.199 0.074 3.039 5.28 6.088 10.555 9.129 15.834-6.166 0.002-12.333 0.002-18.499 0 3.056-5.303 6.115-10.605 9.171-15.908M11.764 14.489c-0.145 0.036-0.289 0.071-0.433 0.108-0.027 0.089-0.081 0.268-0.108 0.357 0.406 0.049 0.811 0.105 1.214 0.175-0.19 0.438-0.837 0.049-1.22 0.068-0.059 0.275-0.104 0.554-0.137 0.834-0.186 0.085-0.209 0.287-0.262 0.46 0.095 0.050 0.191 0.097 0.288 0.144-0.028 0.237-0.102 0.476-0.064 0.716 0.184 0.186 0.482 0.14 0.715 0.216-1.445-0.015-2.89-0.005-4.336-0.007 0 0.38 0.001 0.761 0.001 1.142 2.58 0.001 5.16 0.001 7.74 0 0.001-0.381 0.001-0.761 0-1.142-0.972 0.005-1.944-0.014-2.915 0.010 0.069-0.258 0.116-0.522 0.16-0.785 1.337 0.221 2.678 0.423 4.017 0.629-0.012 0.287-0.279 0.833 0.178 0.878 0.311 0.036 0.649 0.176 0.953 0.061 0.105-0.224 0.111-0.477 0.15-0.718 0.171 0.002 0.46 0.029 0.383-0.236-0.113-0.377-0.020-0.757 0.039-1.135-0.383-0.050-0.768-0.090-1.147-0.165 0.194-0.431 0.834-0.006 1.214-0.086-0.004-0.126-0.007-0.252-0.009-0.378-0.112-0.055-0.223-0.11-0.333-0.165-0.231-0.635-0.083-1.524-0.674-1.955-1.244-0.428-2.576-0.557-3.882-0.668-0.937-0.084-1.074 1.065-1.532 1.642M15.286 17.805c-0.017 0.135-0.034 0.269-0.052 0.404 0.125 0.223 0.342 0.326 0.589 0.358 0.368-0.193 0.439-0.647 0.128-0.931-0.24-0.033-0.477 0.006-0.665 0.169M16.182 18.379c-0.172 0.17 0.121 0.497 0.283 0.288 0.216-0.17-0.087-0.482-0.283-0.288M17.012 18.61c-0.060 0.319 0.126 0.609 0.466 0.612 0.084-0.070 0.168-0.14 0.253-0.209 0.014-0.095 0.028-0.189 0.042-0.283-0.063-0.092-0.125-0.183-0.186-0.275-0.21-0.027-0.403 0.038-0.575 0.155M18.013 18.485c-0.246 0.17-0.045 0.584 0.237 0.465 0.327-0.133 0.079-0.635-0.237-0.465M15.329 18.803c0 0.065 0 0.194 0 0.259 0.036 0.051 0.11 0.154 0.147 0.206 0.384 0.064 0.537-0.319 0.329-0.61-0.165 0.028-0.327 0.069-0.476 0.145M16.005 19.271c0.079 0.094 0.159 0.189 0.238 0.284 0.105 0.007 0.21 0.014 0.316 0.022 0.078-0.066 0.156-0.132 0.235-0.198 0.015-0.079 0.045-0.237 0.060-0.316-0.206-0.463-0.876-0.297-0.849 0.208M18.959 19.074c0.068 0.048 0.204 0.144 0.272 0.192 0.57-0.275-0.209-0.817-0.272-0.192M17.898 19.676c0.080 0.013 0.24 0.040 0.32 0.053 0.284-0.165 0.25-0.658-0.125-0.64-0.32 0.010-0.342 0.374-0.195 0.587M18.886 19.911c0.247-0.172 0.269-0.469 0.068-0.689-0.552-0.103-0.632 0.678-0.068 0.689z"></path>
<path fill="#fff" d="M12.349 14.487c0.302-0.409 0.392-1.21 1.048-1.144 1.102 0.072 2.197 0.248 3.271 0.504 0.612 0.155 0.458 0.944 0.62 1.41-1.578-0.57-3.26-0.859-4.939-0.77z"></path>
<path fill="#fff" d="M13.662 15.275c0.678 0.12 1.364 0.19 2.038 0.333-0.040 0.235-0.085 0.469-0.13 0.703-0.668-0.117-1.342-0.194-2.007-0.321 0.020-0.24 0.050-0.479 0.099-0.715z"></path>
<path fill="#d40000" d="M13.335 0.546c0.464-0.136 0.97 0.116 1.167 0.552 3.897 6.768 7.8 13.533 11.701 20.299 0.204 0.372 0.509 0.752 0.436 1.203-0.068 0.489-0.546 0.862-1.037 0.814-8.036-0.004-16.072 0.004-24.107-0.004-0.744 0.030-1.212-0.91-0.788-1.507 3.919-6.81 7.851-13.614 11.771-20.424 0.213-0.363 0.403-0.825 0.857-0.933M13.521 4.891c-3.056 5.303-6.115 10.605-9.171 15.908 6.166 0.002 12.333 0.002 18.499 0-3.041-5.279-6.090-10.554-9.129-15.834-0.025-0.071-0.156-0.228-0.199-0.074z"></path>
<path fill="#0a0a0a" d="M16.182 18.379c0.196-0.194 0.499 0.118 0.283 0.288-0.162 0.209-0.455-0.118-0.283-0.288z"></path>
</svg>
