<?xml version="1.0" encoding="utf-8"?>
<!-- Generated by IcoMoon.io -->
<!DOCTYPE svg PUBLIC "-//W3C//DTD SVG 1.1//EN" "http://www.w3.org/Graphics/SVG/1.1/DTD/svg11.dtd">
<svg version="1.1" xmlns="http://www.w3.org/2000/svg" xmlns:xlink="http://www.w3.org/1999/xlink" width="24" height="24" viewBox="0 0 24 24">
<path fill="#ffd033" d="M11.206 23.644c0.43 0.43 1.126 0.43 1.555 0l10.884-10.883c0.43-0.43 0.43-1.126 0-1.555l-10.884-10.884c-0.429-0.43-1.126-0.43-1.555 0l-10.884 10.884c-0.43 0.429-0.43 1.125 0 1.555l10.884 10.883z"></path>
<path fill="#000" d="M23.128 12.243l-10.884 10.884c-0.143 0.143-0.376 0.143-0.518 0l-10.884-10.884c-0.143-0.143-0.143-0.376 0-0.519l10.884-10.883c0.143-0.143 0.376-0.143 0.518 0l10.884 10.883c0.142 0.143 0.142 0.376 0 0.519zM23.43 11.422l-10.884-10.884c-0.309-0.31-0.813-0.31-1.123 0l-10.884 10.884c-0.309 0.31-0.309 0.813 0 1.123l10.884 10.884c0.309 0.31 0.813 0.31 1.123 0l10.884-10.884c0.309-0.31 0.309-0.813 0-1.123z"></path>
<path fill="#000" d="M14.662 14.303l-0.165 0.938c-0.040 0.229-0.258 0.382-0.487 0.341l-0.237-0.042c-0.229-0.040-0.381-0.259-0.341-0.487l0.165-0.935-4.852-0.841-0.162 0.921c-0.040 0.229-0.258 0.382-0.487 0.341l-0.237-0.042c-0.229-0.040-0.381-0.259-0.341-0.487l0.162-0.917-0.482-0.083 0.351-1.99c0.119-0.674 0.533-0.779 0.533-0.779s0.322-1.024 0.525-1.589c0.204-0.565 0.512-0.442 0.512-0.442l5.899 1.016c0 0 0.332-0.010 0.33 0.59s-0.050 1.673-0.050 1.673c0 0 0.353 0.241 0.235 0.915l-0.351 1.99-0.523-0.091zM9.078 8.542l-0.445 1.452 6.146 1.084 0.049-1.521-5.75-1.014z"></path>
<path fill="#000" d="M4.612 15.624l1.83 1.879h11.083l0.336-0.402h-4.227v-1.477z"></path>
</svg>
