<!-- Generated by IcoMoon.io -->
<svg version="1.1" xmlns="http://www.w3.org/2000/svg" width="24" height="24" viewBox="0 0 24 24">
<title>warning--divided-highway-on-left--g2</title>
<path fill="#fbee39" d="M10.954 1.316c0.264-0.468 0.874-0.552 1.348-0.408 0.554 0.256 0.694 0.922 1.020 1.388 3.254 6.332 6.57 12.634 9.864 18.946 0.166 0.65-0.028 1.578-0.79 1.726-1.864 0.048-3.732-0.014-5.598 0.022-0.826 0.1-1.664 0.246-2.494 0.076-0.696 0.060-1.394 0.090-2.092 0.072-3.656 0.002-7.312-0.012-10.97 0.006-0.322-0.332-0.602-0.704-0.746-1.148 0.304-0.884 0.748-1.706 1.168-2.536 2.018-3.924 3.992-7.868 6.060-11.764 1.076-2.126 2.216-4.222 3.23-6.38M11.060 1.67c-3.31 6.484-6.678 12.938-9.97 19.43-0.36 0.574-0.204 1.284 0.3 1.71 6.874-0.016 13.748-0.15 20.622-0.178 0.776 0.004 1.096-0.978 0.738-1.574-2.93-5.658-5.916-11.286-8.828-16.954-0.566-0.992-0.962-2.094-1.73-2.956-0.418 0.046-0.958 0.048-1.132 0.522z"></path>
<path fill="#fbee39" d="M3.084 20.98c2.87-5.706 5.85-11.354 8.738-17.052 2.8 5.116 5.388 10.344 8.134 15.488 0.248 0.454 0.46 0.926 0.658 1.404-5.842 0.098-11.688 0.018-17.53 0.16M10.918 8.102c-0.040 1.554 0.164 3.112 0.63 4.596 0.22-0.012 0.44-0.024 0.66-0.040 0.41-1.48 0.61-3.012 0.634-4.548-0.64 0.004-1.282 0-1.924-0.008M8.184 13.58c-0.042 0.41-0.018 0.824-0.016 1.238 0.268-0.29 0.52-0.594 0.78-0.89 0.084 0.852-0.124 1.75 0.162 2.57 0.332 0.724 1.216 0.466 1.846 0.574 0.246 0.664 0.050 1.4 0.138 2.092 0.088 0.024 0.266 0.076 0.356 0.1 0.028-0.814-0.060-1.634 0.052-2.444 0.1 0.79 0.028 1.588 0.044 2.382l0.332 0.056c-0.056-0.888 0.142-1.824-0.114-2.68-0.356-0.696-1.224-0.436-1.852-0.476-0.134-0.71-0.108-1.434-0.088-2.152 0.26 0.292 0.518 0.586 0.786 0.872-0.034-0.446 0.014-0.908-0.102-1.342-0.33-0.506-0.766-0.93-1.14-1.4-0.38 0.512-0.85 0.956-1.184 1.5z"></path>
<path fill="#222723" d="M11.060 1.67c0.174-0.474 0.714-0.476 1.132-0.522 0.768 0.862 1.164 1.964 1.73 2.956 2.912 5.668 5.898 11.296 8.828 16.954 0.358 0.596 0.038 1.578-0.738 1.574-6.874 0.028-13.748 0.162-20.622 0.178-0.504-0.426-0.66-1.136-0.3-1.71 3.292-6.492 6.66-12.946 9.97-19.43M3.084 20.98c5.842-0.142 11.688-0.062 17.53-0.16-0.198-0.478-0.41-0.95-0.658-1.404-2.746-5.144-5.334-10.372-8.134-15.488-2.888 5.698-5.868 11.346-8.738 17.052z"></path>
<path fill="#222723" d="M10.918 8.102c0.642 0.008 1.284 0.012 1.924 0.008-0.024 1.536-0.224 3.068-0.634 4.548-0.22 0.016-0.44 0.028-0.66 0.040-0.466-1.484-0.67-3.042-0.63-4.596z"></path>
<path fill="#222723" d="M8.184 13.58c0.334-0.544 0.804-0.988 1.184-1.5 0.374 0.47 0.81 0.894 1.14 1.4 0.116 0.434 0.068 0.896 0.102 1.342-0.268-0.286-0.526-0.58-0.786-0.872-0.020 0.718-0.046 1.442 0.088 2.152 0.628 0.040 1.496-0.22 1.852 0.476 0.256 0.856 0.058 1.792 0.114 2.68l-0.332-0.056c-0.016-0.794 0.056-1.592-0.044-2.382-0.112 0.81-0.024 1.63-0.052 2.444-0.090-0.024-0.268-0.076-0.356-0.1-0.088-0.692 0.108-1.428-0.138-2.092-0.63-0.108-1.514 0.15-1.846-0.574-0.286-0.82-0.078-1.718-0.162-2.57-0.26 0.296-0.512 0.6-0.78 0.89-0.002-0.414-0.026-0.828 0.016-1.238z"></path>
</svg>
