<svg xmlns="http://www.w3.org/2000/svg" width="24" height="24">
    <path fill="#d5bb0e" opacity=".84" d="M11.718 0h.538c.259.116.508.265.712.466 3.3 3.304 6.602 6.602 9.902 9.905.413.42.895.802 1.13 1.36v.508c-.104.24-.233.473-.419.66-3.563 3.559-7.123 7.122-10.684 10.684-.185.178-.407.31-.637.419h-.494c-.242-.103-.479-.228-.667-.415C7.54 20.023 3.978 16.463.417 12.902a2.45 2.45 0 0 1-.416-.62v-.539c.208-.544.67-.914 1.067-1.315 3.3-3.301 6.602-6.6 9.9-9.905a2.71 2.71 0 0 1 .751-.521zm-.035.307c-.185.07-.334.204-.474.337C7.67 4.189 4.124 7.726.585 11.271c-.407.352-.455 1.016-.049 1.39 3.599 3.602 7.199 7.205 10.802 10.802a.913.913 0 0 0 1.321-.005c3.602-3.596 7.202-7.198 10.8-10.799.404-.371.356-1.036-.048-1.386C19.872 7.728 16.326 4.191 12.787.646c-.272-.299-.706-.511-1.105-.34z"/>
    <path d="M11.683.307c.4-.172.833.041 1.105.34 3.539 3.545 7.085 7.082 10.624 10.627.404.35.452 1.015.048 1.386-3.598 3.601-7.198 7.202-10.8 10.799a.914.914 0 0 1-1.321.005A11001 11001 0 0 1 .537 12.662c-.406-.373-.358-1.038.049-1.39C4.125 7.727 7.671 4.19 11.21.645c.14-.133.289-.268.474-.337zm.12.453C8.166 4.277 4.635 7.917 1.033 11.476c-.254.197-.462.595-.169.857 3.572 3.589 7.163 7.163 10.739 10.748a.5.5 0 0 0 .792-.001c3.56-3.563 7.123-7.124 10.684-10.686a.505.505 0 0 0 .004-.792C19.548 8.055 16.001 4.52 12.462.976c-.163-.18-.412-.335-.658-.216z"/>
    <path d="M11.905 2.894c.529.154.583.928.89 1.35.158.516.806 1.058.431 1.589-.198-.055-.395-.116-.592-.173-.058 1.03.205 2.142-.275 3.1-.28.617-.947.901-1.31 1.451a2.973 2.973 0 0 0-.271 2.888c.338.822 1.282 1.309 1.355 2.256.044 1.218.007 2.44.017 3.66-.421.002-.841.002-1.261 0-.006-1.102.001-2.203-.001-3.304.024-.63-.62-.96-.902-1.454-1.229-1.715-.84-4.307.817-5.605.961-.696.439-2.01.582-3.001-.269.085-.755.317-.796-.134.38-.895.805-1.793 1.316-2.622z"/>
    <path d="M13.114 10.241c1.333-.355 2.555 1.252 1.85 2.442-.546 1.175-2.398 1.201-2.982.046-.575-.94.041-2.309 1.132-2.488zM2.912 12.966c.866-.52 1.784-.973 2.719-1.354.41.097.178.526.108.792 2.297.12 4.238 2.028 4.574 4.265.011.796-.001 1.591.001 2.388l-1.264-.002c-.01-.752.016-1.506-.007-2.258-.298-1.594-1.64-2.984-3.293-3.136.049.205.101.409.151.614-.422.329-.866-.154-1.271-.298-.558-.359-1.3-.474-1.72-1.012z"/>
    <path fill="#fee011" d="M11.803.76c.246-.119.494.036.658.216C16 4.52 19.547 8.055 23.082 11.602c.254.2.253.594-.004.792L12.394 23.08a.5.5 0 0 1-.792.001C8.026 19.495 4.436 15.922.863 12.333c-.293-.262-.085-.66.169-.857C4.634 7.917 8.165 4.277 11.802.76zm.102 2.134c-.511.829-.936 1.727-1.316 2.622.041.451.527.22.796.134-.143.991.379 2.305-.582 3.001-1.657 1.298-2.046 3.89-.817 5.605.282.494.926.824.902 1.454.002 1.1-.005 2.202.001 3.304.42.002.84.002 1.261 0-.01-1.22.028-2.442-.017-3.66-.073-.947-1.016-1.434-1.355-2.256a2.973 2.973 0 0 1 .271-2.888c.364-.55 1.031-.834 1.31-1.451.48-.958.217-2.07.275-3.1.197.056.394.118.592.173.376-.53-.272-1.073-.431-1.589-.307-.422-.361-1.196-.89-1.35zm1.209 7.347c-1.091.179-1.706 1.548-1.132 2.488.584 1.156 2.436 1.129 2.982-.046.704-1.19-.517-2.797-1.85-2.442zM2.912 12.966c.42.538 1.162.653 1.72 1.012.404.144.848.626 1.271.298-.05-.205-.102-.409-.151-.614 1.652.151 2.995 1.542 3.293 3.136.023.752-.002 1.506.007 2.258l1.264.002c-.002-.797.01-1.592-.001-2.388-.336-2.237-2.278-4.145-4.574-4.265.07-.266.302-.695-.108-.792-.935.38-1.853.834-2.719 1.354z"/>
</svg>
