<!-- Generated by IcoMoon.io -->
<svg version="1.1" xmlns="http://www.w3.org/2000/svg" width="24" height="24" viewBox="0 0 24 24">
<title>warning--two-way-traffic--g6</title>
<path fill="#ffd033" d="M11.742 0h0.458c0.253 0.098 0.492 0.238 0.682 0.436 3.541 3.54 7.080 7.082 10.626 10.619 0.232 0.215 0.391 0.492 0.492 0.79v0.27c-0.089 0.282-0.223 0.554-0.444 0.757-3.586 3.578-7.164 7.164-10.747 10.745-0.182 0.185-0.424 0.292-0.662 0.384h-0.263c-0.254-0.082-0.512-0.181-0.701-0.378-3.504-3.498-6.996-7.008-10.502-10.502-0.274-0.253-0.528-0.533-0.68-0.878v-0.454c0.156-0.487 0.564-0.809 0.908-1.16 3.221-3.218 6.44-6.438 9.661-9.658 0.361-0.355 0.695-0.763 1.172-0.97M11.575 0.422c-3.688 3.587-7.288 7.272-10.942 10.896-0.366 0.294-0.462 0.889-0.104 1.229 3.618 3.624 7.24 7.246 10.861 10.868 0.284 0.33 0.847 0.361 1.154 0.047 3.623-3.616 7.238-7.241 10.861-10.858 0.395-0.331 0.343-0.966-0.044-1.28-3.584-3.578-7.165-7.162-10.751-10.74-0.253-0.286-0.71-0.383-1.036-0.162z"></path>
<path fill="#ffd033" d="M11.91 0.75c0.218-0.056 0.376 0.13 0.517 0.262 3.538 3.544 7.082 7.080 10.619 10.624 0.209 0.155 0.278 0.481 0.050 0.654-3.602 3.602-7.205 7.205-10.806 10.807-0.143 0.186-0.442 0.193-0.587 0.006-3.604-3.599-7.204-7.202-10.805-10.804-0.238-0.175-0.17-0.509 0.046-0.668 3.538-3.545 7.084-7.084 10.622-10.627 0.107-0.092 0.202-0.214 0.343-0.253M9.876 6.509c-1.436 0.946-2.846 1.931-4.271 2.894 1.378 0.985 2.796 1.914 4.188 2.879 0.245 0.236 0.684 0.059 0.692-0.281-0.102-0.504-0.283-0.988-0.409-1.486 2.774-0.023 5.552 0.029 8.324-0.025-0.030-0.725 0.040-1.456-0.036-2.176-2.762 0.010-5.525 0.006-8.287 0.002 0.116-0.457 0.271-0.905 0.385-1.362 0.128-0.323-0.312-0.656-0.587-0.446M13.525 12.118c0.115 0.451 0.268 0.893 0.384 1.344-2.772 0.007-5.543-0.001-8.314 0.004-0.012 0.731-0.004 1.46-0.005 2.191 2.772 0.019 5.545 0 8.318 0.010-0.124 0.502-0.314 0.988-0.412 1.496 0.026 0.329 0.457 0.504 0.698 0.27 1.396-0.962 2.801-1.912 4.194-2.876-1.421-0.965-2.833-1.944-4.268-2.888-0.274-0.236-0.737 0.121-0.596 0.45z"></path>
<path fill="#000" d="M11.575 0.422c0.325-0.221 0.782-0.124 1.036 0.162 3.586 3.578 7.166 7.162 10.751 10.74 0.388 0.314 0.439 0.949 0.044 1.28-3.623 3.617-7.238 7.242-10.861 10.858-0.307 0.314-0.87 0.283-1.154-0.047-3.622-3.623-7.243-7.244-10.861-10.868-0.358-0.34-0.262-0.935 0.104-1.229 3.654-3.624 7.254-7.309 10.942-10.896M11.91 0.75c-0.142 0.040-0.236 0.161-0.343 0.253-3.539 3.544-7.085 7.082-10.622 10.627-0.216 0.16-0.283 0.493-0.046 0.668 3.601 3.601 7.201 7.205 10.805 10.804 0.145 0.187 0.444 0.18 0.587-0.006 3.601-3.602 7.204-7.205 10.806-10.807 0.228-0.173 0.158-0.499-0.050-0.654-3.536-3.544-7.081-7.080-10.619-10.624-0.142-0.132-0.299-0.318-0.517-0.262z"></path>
<path fill="#000" d="M9.876 6.509c0.275-0.21 0.715 0.124 0.587 0.446-0.114 0.457-0.269 0.905-0.385 1.362 2.762 0.004 5.525 0.007 8.287-0.002 0.076 0.72 0.006 1.451 0.036 2.176-2.772 0.054-5.55 0.002-8.324 0.025 0.126 0.498 0.307 0.982 0.409 1.486-0.008 0.34-0.448 0.517-0.692 0.281-1.392-0.965-2.81-1.894-4.188-2.879 1.424-0.964 2.834-1.949 4.271-2.894z"></path>
<path fill="#000" d="M13.525 12.118c-0.14-0.329 0.323-0.686 0.596-0.45 1.435 0.944 2.848 1.924 4.268 2.888-1.393 0.965-2.798 1.914-4.194 2.876-0.241 0.234-0.672 0.059-0.698-0.27 0.097-0.509 0.288-0.995 0.412-1.496-2.773-0.010-5.546 0.010-8.318-0.010 0.001-0.731-0.007-1.46 0.005-2.191 2.771-0.005 5.542 0.004 8.314-0.004-0.116-0.451-0.269-0.893-0.384-1.344z"></path>
</svg>
