<?xml version="1.0" encoding="utf-8"?>
<!-- Generated by IcoMoon.io -->
<!DOCTYPE svg PUBLIC "-//W3C//DTD SVG 1.1//EN" "http://www.w3.org/Graphics/SVG/1.1/DTD/svg11.dtd">
<svg version="1.1" xmlns="http://www.w3.org/2000/svg" xmlns:xlink="http://www.w3.org/1999/xlink" width="24" height="24" viewBox="0 0 24 24">
<path fill="#232921" d="M11.368 1.689c0.558-0.291 1.44-0.174 1.713 0.454 0.246 0.498 0.568 0.954 0.839 1.438 2.528 4.549 5.131 9.057 7.712 13.577 0.82 1.458 1.716 2.881 2.368 4.427v0.178c-0.154 0.314-0.343 0.617-0.601 0.856-2.359 0.175-4.738-0.045-7.094 0.172h-15.541c-0.362-0.139-0.672-0.501-0.555-0.91 0.237-1.031 0.814-1.941 1.288-2.875 2.468-4.5 5.091-8.912 7.534-13.425 0.471-0.731 0.88-1.5 1.186-2.315 0.469-0.463 0.663-1.138 1.152-1.577M11.997 4.35c-1.485 2.549-2.856 5.164-4.341 7.713-1.674 2.948-3.39 5.87-5.022 8.842 6.267-0.045 12.537-0.047 18.806-0.119-2.059-3.706-4.231-7.348-6.29-11.054-1.042-1.799-2.045-3.624-3.153-5.383z"></path>
<path fill="#232921" d="M11.164 12.891c0.089 0.008 0.178 0.018 0.267 0.030 1.055 0.175 1.846 1.064 2.293 1.98-0.080 0.445-0.050 0.9-0.003 1.348-0.142 0.18-0.318 0.346-0.391 0.569-0.19 0.962-0.509 1.959-1.312 2.59-0.558 0.498-1.594 0.883-2.142 0.187 0.272-0.954 1.174-1.42 1.921-1.952 0.027-0.068 0.082-0.202 0.109-0.27 0.522-0.642 0.782-1.472 0.878-2.281 0.044-0.598-0.747-0.951-0.528-1.552-0.349-0.242-0.721-0.444-1.093-0.651z"></path>
<path fill="#232921" d="M8.596 14.578c0.085 0.005 0.252 0.015 0.337 0.020 0.065 0.030 0.196 0.088 0.261 0.116-0.13 0.275-0.325 0.509-0.592 0.658-0.002-0.264-0.002-0.53-0.006-0.794z"></path>
<path fill="#232921" d="M11.093 15.188c0.403-0.107 0.888-0.104 1.093 0.331-0.125 0.198-0.257 0.391-0.395 0.578-0.22-0.118-0.524-0.137-0.666-0.367-0.008-0.136-0.024-0.406-0.032-0.542z"></path>
<path fill="#232921" d="M15.449 15.784c0.157-0.165 0.311-0.331 0.468-0.497 0.127 0.738 0.054 1.496-0.341 2.145-0.438 0.056-0.88 0.065-1.322 0.054-0.041-0.154-0.082-0.306-0.125-0.46 0.254-0.534 0.614-1.005 0.986-1.463 0.083 0.056 0.251 0.166 0.335 0.22z"></path>
<path fill="#232921" d="M8.942 17.091c0.086 0.008 0.257 0.023 0.343 0.029-0.005 0.155-0.008 0.309-0.012 0.465-0.077 0.001-0.231 0.003-0.308 0.005-0.008-0.166-0.015-0.332-0.023-0.498z"></path>
<path fill="#232921" d="M10.006 17.506c0.121-0.171 0.27-0.314 0.441-0.43 0.158 0.177 0.32 0.352 0.483 0.527-0.050 0.098-0.1 0.198-0.149 0.296-0.303-0.026-0.551-0.199-0.774-0.392z"></path>
<path fill="#232921" d="M9.422 18.619c0.181-0.1 0.362-0.098 0.543 0.005 0.005 0.208-0.536 0.201-0.543-0.005z"></path>
<path fill="#f9e633" d="M11.997 4.35c1.108 1.758 2.112 3.583 3.153 5.383 2.059 3.706 4.231 7.348 6.29 11.054-6.269 0.072-12.539 0.074-18.806 0.119 1.632-2.972 3.348-5.894 5.022-8.842 1.485-2.549 2.856-5.164 4.341-7.713M11.431 12.921c-0.089-0.012-0.178-0.023-0.267-0.030-0.88 0.374-1.62 0.977-2.231 1.707-0.085-0.005-0.252-0.015-0.337-0.020l-0.002-0.112c-0.008 0.865-0.334 1.71-0.214 2.575 0.165 0.433 0.494 0.798 0.552 1.277 0.057 0.495 0.631 0.622 1.043 0.632-0.057 0.276-0.133 0.548-0.237 0.811 0.026-0.023 0.078-0.066 0.106-0.089l0.032-0.077c0.548 0.696 1.583 0.311 2.142-0.187 0.803-0.631 1.122-1.629 1.312-2.59-0.015 0.048-0.045 0.145-0.060 0.193l0.094-0.208c0.154 0 0.463-0.003 0.617-0.005 0.083 0.232 0.168 0.465 0.273 0.688 0.442 0.011 0.885 0.002 1.322-0.054 0.395-0.649 0.468-1.407 0.341-2.145-0.029-0.026-0.085-0.078-0.113-0.106-0.382-0.783-0.7-1.614-1.351-2.222-0.468-0.201-0.945-0.432-1.469-0.389-0.528 0.030-1.138-0.054-1.553 0.35z"></path>
<path fill="#f9e633" d="M16.305 22.792c2.356-0.217 4.735 0.003 7.094-0.172l-0.192 0.172h-6.903z"></path>
<path fill="#fefefe" d="M11.431 12.921c0.415-0.405 1.025-0.32 1.553-0.35 0.524-0.042 1.001 0.189 1.469 0.389 0.651 0.608 0.969 1.438 1.351 2.222 0.029 0.027 0.085 0.080 0.113 0.106-0.157 0.166-0.311 0.332-0.468 0.497-0.085-0.054-0.252-0.165-0.335-0.22-0.371 0.457-0.732 0.928-0.986 1.463 0.044 0.154 0.085 0.306 0.125 0.46-0.106-0.223-0.19-0.456-0.273-0.688-0.154 0.002-0.463 0.005-0.617 0.005l-0.094 0.208c0.015-0.048 0.045-0.145 0.060-0.193 0.072-0.223 0.249-0.389 0.391-0.569-0.047-0.448-0.077-0.903 0.003-1.348-0.447-0.916-1.238-1.805-2.293-1.98z"></path>
<path fill="#fefefe" d="M8.933 14.598c0.611-0.731 1.351-1.333 2.231-1.707 0.371 0.207 0.744 0.409 1.093 0.651-0.219 0.601 0.572 0.954 0.528 1.552-0.097 0.809-0.356 1.639-0.878 2.281-0.027 0.068-0.082 0.202-0.109 0.27-0.747 0.531-1.65 0.998-1.921 1.952l-0.032 0.077c-0.027 0.023-0.080 0.066-0.106 0.089 0.104-0.263 0.18-0.534 0.237-0.811-0.412-0.011-0.986-0.137-1.043-0.632-0.059-0.479-0.388-0.844-0.552-1.277-0.119-0.865 0.207-1.71 0.214-2.575l0.002 0.112c0.005 0.264 0.005 0.53 0.006 0.794 0.267-0.149 0.462-0.383 0.592-0.658-0.065-0.029-0.196-0.086-0.261-0.116M11.093 15.188c0.008 0.136 0.024 0.406 0.032 0.542 0.142 0.229 0.445 0.249 0.666 0.367 0.139-0.187 0.27-0.38 0.395-0.578-0.205-0.435-0.69-0.438-1.093-0.331M8.942 17.091c0.008 0.166 0.015 0.332 0.023 0.498 0.077-0.001 0.231-0.003 0.308-0.005 0.005-0.155 0.008-0.309 0.012-0.465-0.086-0.006-0.257-0.021-0.343-0.029M10.006 17.506c0.223 0.193 0.471 0.367 0.774 0.392 0.050-0.098 0.1-0.198 0.149-0.296-0.163-0.175-0.325-0.35-0.483-0.527-0.171 0.116-0.32 0.26-0.441 0.43M9.422 18.619c0.008 0.205 0.548 0.213 0.543 0.005-0.181-0.103-0.362-0.104-0.543-0.005z"></path>
</svg>
