<!-- Generated by IcoMoon.io -->
<svg version="1.1" xmlns="http://www.w3.org/2000/svg" width="24" height="24" viewBox="0 0 24 24">
<title>warning--low-ground-clearance--g3</title>
<path fill="#000" d="M11.918 0.414c0.335-0.056 0.619 0.162 0.842 0.383 3.517 3.524 7.043 7.040 10.561 10.564 0.38 0.326 0.412 0.972 0.023 1.303-3.56 3.56-7.121 7.121-10.681 10.681-0.33 0.389-0.99 0.377-1.319-0.007-3.541-3.54-7.080-7.082-10.622-10.62-0.41-0.334-0.444-0.998-0.028-1.339 3.518-3.523 7.046-7.038 10.56-10.565 0.19-0.173 0.389-0.385 0.664-0.4M11.554 1.111c-3.587 3.644-7.295 7.176-10.807 10.886 0.223 0.431 0.6 0.742 0.936 1.079 3.281 3.28 6.564 6.557 9.84 9.841 0.202 0.266 0.6 0.454 0.842 0.124 3.563-3.554 7.121-7.116 10.678-10.675 0.293-0.211 0.16-0.578-0.079-0.77-3.518-3.522-7.039-7.042-10.565-10.558-0.226-0.292-0.648-0.202-0.845 0.073z"></path>
<path fill="#000" d="M11.966 8.474c1.397 0.143 2.791 0.312 4.193 0.403-0.048 0.952-0.173 1.896-0.268 2.844 0.595 0.198 0.814-0.61 1.392-0.545 0.758-0.113 1.313 0.64 1.244 1.345-0.073-0.001-0.22-0.004-0.294-0.005 0.052-0.509-0.278-1.098-0.844-1.078-0.517-0.042-0.818 0.446-0.913 0.889-1.649-0.157-3.299-0.319-4.945-0.494-0.353-0.013-0.421-0.437-0.682-0.6-0.247-0.058-0.504-0.038-0.756-0.047 0.058 0.222 0.116 0.444 0.17 0.667-0.426-0.002-0.558-0.617-1.019-0.553-0.604-0.083-0.986 0.552-0.916 1.091-0.133 0.038-0.265 0.079-0.396 0.125-0.239-0.334-0.587-0.695-1.040-0.57-0.532 0.097-0.678 0.664-0.709 1.126-0.166 0.037-0.331 0.072-0.497 0.106-0.714-0.924-0.602-2.068-0.595-3.164 0.785-0.248 1.571-0.564 2.377-0.704 0.235 0.646 0.404 1.314 0.622 1.966 1.142-0.338 2.63-1.043 3.569 0.088 0.137-0.959 0.199-1.926 0.306-2.888M5.545 10.436c-0.010 0.496-0.008 0.991-0.002 1.487 0.656-0.204 1.316-0.4 1.97-0.611-0.139-0.445-0.277-0.892-0.419-1.336-0.518 0.146-1.032 0.31-1.549 0.46z"></path>
<path fill="#000" d="M8.797 11.548c0.325-0.217 0.836-0.114 1.010 0.251 0.292 0.452-0.146 1.124-0.684 1.019-0.644 0.007-0.881-0.953-0.326-1.27M9.056 12.028c-0.048 0.708 0.62-0.25 0 0z"></path>
<path fill="#000" d="M16.61 12.234c0.154-0.448 0.638-0.858 1.112-0.564 0.565 0.281 0.406 1.195-0.203 1.307-0.485 0.122-0.812-0.329-0.91-0.743M17.279 12.158c-0.24 0.577 0.628-0.023 0 0z"></path>
<path fill="#000" d="M6.756 12.154c0.448-0.271 1.088 0.155 1.013 0.673 0.004 0.486-0.598 0.832-1.014 0.578-0.503-0.21-0.499-1.039 0.001-1.252M6.967 12.649c-0.196 0.124 0.044 0.397 0.21 0.264 0.198-0.124-0.044-0.398-0.21-0.264z"></path>
<path fill="#000" d="M9.623 13.343c1.838-1.346 4.516-1.372 6.383-0.064 0.81 0.805 2.034 0.318 3.049 0.45 0 0.067 0.002 0.202 0.002 0.268-4.7 0.004-9.401 0.005-14.101 0 0-0.067 0-0.2 0-0.266 1.31-0.007 2.62 0.005 3.929-0.004 0.301 0.022 0.503-0.239 0.738-0.384z"></path>
<path fill="#ffef00" d="M11.554 1.111c0.197-0.275 0.619-0.365 0.845-0.073 3.526 3.516 7.046 7.036 10.565 10.558 0.239 0.192 0.372 0.559 0.079 0.77-3.557 3.559-7.115 7.121-10.678 10.675-0.242 0.33-0.641 0.143-0.842-0.124-3.276-3.284-6.559-6.562-9.84-9.841-0.336-0.337-0.713-0.648-0.936-1.079 3.512-3.71 7.22-7.242 10.807-10.886M11.966 8.474c-0.107 0.962-0.169 1.93-0.306 2.888-0.938-1.13-2.426-0.426-3.569-0.088-0.217-0.652-0.386-1.32-0.622-1.966-0.806 0.14-1.592 0.456-2.377 0.704-0.007 1.097-0.119 2.24 0.595 3.164 0.166-0.034 0.331-0.068 0.497-0.106 0.031-0.462 0.178-1.028 0.709-1.126 0.454-0.125 0.802 0.236 1.040 0.57 0.131-0.046 0.263-0.086 0.396-0.125-0.071-0.539 0.312-1.174 0.916-1.091 0.461-0.064 0.593 0.551 1.019 0.553-0.054-0.223-0.113-0.445-0.17-0.667 0.252 0.008 0.509-0.011 0.756 0.047 0.26 0.163 0.329 0.587 0.682 0.6 1.646 0.175 3.296 0.337 4.945 0.494 0.095-0.443 0.396-0.931 0.913-0.889 0.565-0.020 0.895 0.569 0.844 1.078 0.074 0.001 0.221 0.004 0.294 0.005 0.068-0.706-0.486-1.458-1.244-1.345-0.578-0.065-0.797 0.743-1.392 0.545 0.095-0.948 0.22-1.892 0.268-2.844-1.402-0.091-2.796-0.26-4.193-0.403M8.797 11.548c-0.554 0.317-0.318 1.277 0.326 1.27 0.538 0.106 0.976-0.566 0.684-1.019-0.174-0.365-0.685-0.468-1.010-0.251M16.61 12.234c0.097 0.414 0.425 0.865 0.91 0.743 0.608-0.112 0.768-1.026 0.203-1.307-0.474-0.294-0.959 0.116-1.112 0.564M6.756 12.154c-0.5 0.212-0.504 1.042-0.001 1.252 0.416 0.253 1.018-0.092 1.014-0.578 0.076-0.518-0.565-0.944-1.013-0.673M9.623 13.343c-0.235 0.145-0.437 0.406-0.738 0.384-1.309 0.008-2.618-0.004-3.929 0.004 0 0.066 0 0.199 0 0.266 4.7 0.005 9.401 0.004 14.101 0 0-0.066-0.002-0.2-0.002-0.268-1.015-0.132-2.239 0.355-3.049-0.45-1.867-1.308-4.544-1.283-6.383 0.064z"></path>
<path fill="#ffef00" d="M5.545 10.436c0.517-0.15 1.031-0.313 1.549-0.46 0.142 0.444 0.28 0.89 0.419 1.336-0.654 0.211-1.314 0.407-1.97 0.611-0.006-0.496-0.007-0.991 0.002-1.487z"></path>
<path fill="#ffef00" d="M9.056 12.028c0.62-0.25-0.048 0.708 0 0z"></path>
<path fill="#ffef00" d="M17.279 12.158c0.628-0.023-0.24 0.577 0 0z"></path>
<path fill="#ffef00" d="M6.967 12.649c0.166-0.134 0.408 0.14 0.21 0.264-0.166 0.133-0.406-0.14-0.21-0.264z"></path>
</svg>
