<!-- Generated by IcoMoon.io -->
<svg version="1.1" xmlns="http://www.w3.org/2000/svg" width="27" height="24" viewBox="0 0 27 24">
<title>warning--pedestrians-crossing--g1</title>
<path fill="#282828" opacity="0.84" d="M13.137 0h0.952c0.185 0.138 0.359 0.29 0.533 0.44-0.608-0.382-1.38-0.398-1.976 0.019 0.154-0.162 0.322-0.312 0.491-0.46z"></path>
<path fill="#fff" d="M12.646 0.46c0.596-0.417 1.368-0.401 1.976-0.019 0.019 0.016 0.057 0.046 0.076 0.063 0.008 0.232 0.14 0.436 0.35 0.537 0.008 0.035 0.023 0.109 0.031 0.145 0.018 0.217 0.158 0.391 0.316 0.529 0.079 0.136 0.16 0.271 0.239 0.408 0.019 0.229 0.145 0.432 0.352 0.537 0.010 0.041 0.030 0.124 0.040 0.166 0.026 0.215 0.161 0.39 0.318 0.53 0.080 0.136 0.162 0.274 0.245 0.41 0.020 0.22 0.131 0.417 0.308 0.547 0.079 0.134 0.158 0.266 0.239 0.397 0.018 0.222 0.13 0.423 0.314 0.55 0.022 0.035 0.067 0.106 0.090 0.142 0.019 0.221 0.13 0.419 0.307 0.552 0.079 0.135 0.16 0.27 0.24 0.404 0.022 0.218 0.132 0.416 0.31 0.548 0.079 0.135 0.16 0.269 0.24 0.402 0.020 0.221 0.131 0.42 0.312 0.547 0.078 0.136 0.155 0.271 0.235 0.408 0.019 0.229 0.147 0.432 0.355 0.537 0.010 0.040 0.027 0.119 0.037 0.16 0.022 0.215 0.161 0.391 0.318 0.53 0.080 0.138 0.161 0.275 0.244 0.412 0.019 0.22 0.13 0.417 0.311 0.547 0.078 0.135 0.155 0.27 0.235 0.405 0.020 0.229 0.147 0.432 0.355 0.537 0.010 0.040 0.029 0.12 0.038 0.161 0.022 0.215 0.16 0.39 0.316 0.53 0.080 0.138 0.162 0.274 0.244 0.41 0.020 0.22 0.131 0.417 0.308 0.548 0.079 0.134 0.158 0.266 0.239 0.398 0.015 0.228 0.136 0.434 0.341 0.539 0.012 0.042 0.034 0.128 0.046 0.17 0.030 0.213 0.168 0.386 0.32 0.528 0.080 0.138 0.162 0.274 0.244 0.409 0.022 0.22 0.132 0.417 0.31 0.548 0.079 0.135 0.16 0.27 0.241 0.404 0.018 0.22 0.128 0.42 0.311 0.547 0.078 0.135 0.157 0.271 0.235 0.406 0.019 0.229 0.146 0.434 0.355 0.539 0.008 0.040 0.027 0.119 0.035 0.158 0.022 0.215 0.161 0.39 0.318 0.53 0.080 0.136 0.161 0.274 0.244 0.41 0.019 0.22 0.131 0.419 0.312 0.547 0.078 0.135 0.157 0.271 0.236 0.406 0.018 0.229 0.146 0.432 0.353 0.537 0.010 0.040 0.027 0.12 0.037 0.16 0.022 0.215 0.16 0.391 0.315 0.532 0.078 0.131 0.158 0.26 0.239 0.389 0.284 0.507 0.494 1.054 0.498 1.643-0.184 0.438-0.514 0.781-0.922 1.019-8.411 0.007-16.82 0.007-25.231 0-0.367-0.217-0.661-0.526-0.888-0.884-0.080-0.64 0.166-1.233 0.466-1.78 0.080-0.128 0.161-0.258 0.237-0.387 0.157-0.14 0.295-0.316 0.318-0.532 0.008-0.040 0.027-0.119 0.037-0.158 0.206-0.105 0.334-0.31 0.352-0.539 0.080-0.136 0.16-0.274 0.239-0.412 0.183-0.128 0.293-0.327 0.311-0.548 0.080-0.132 0.16-0.265 0.239-0.398 0.177-0.131 0.288-0.329 0.31-0.547 0.082-0.136 0.162-0.274 0.243-0.41 0.155-0.142 0.292-0.315 0.322-0.529 0.011-0.042 0.033-0.125 0.044-0.168 0.206-0.106 0.327-0.312 0.344-0.539 0.079-0.132 0.16-0.266 0.237-0.4 0.179-0.13 0.289-0.327 0.31-0.547 0.082-0.136 0.164-0.273 0.244-0.41 0.155-0.139 0.293-0.315 0.316-0.53 0.010-0.041 0.029-0.121 0.037-0.162 0.207-0.105 0.335-0.308 0.355-0.537 0.079-0.135 0.157-0.27 0.235-0.405 0.181-0.128 0.292-0.326 0.312-0.545 0.082-0.135 0.162-0.27 0.241-0.405 0.179-0.134 0.288-0.333 0.308-0.554 0.023-0.035 0.070-0.105 0.093-0.139 0.207-0.236 0.398-0.498 0.469-0.809 0.011-0.037 0.033-0.109 0.044-0.146 0.2-0.112 0.326-0.315 0.346-0.543 0.079-0.134 0.158-0.267 0.237-0.402 0.177-0.13 0.288-0.327 0.308-0.547 0.083-0.136 0.164-0.273 0.244-0.41 0.154-0.142 0.292-0.315 0.323-0.528 0.011-0.042 0.034-0.127 0.045-0.17 0.205-0.105 0.325-0.311 0.341-0.537 0.080-0.132 0.16-0.266 0.239-0.398 0.177-0.131 0.286-0.329 0.308-0.548 0.080-0.134 0.161-0.269 0.241-0.404 0.177-0.132 0.286-0.333 0.305-0.552 0.025-0.035 0.072-0.104 0.095-0.138 0.221-0.232 0.382-0.511 0.47-0.82 0.016-0.033 0.050-0.098 0.067-0.131 0.185-0.125 0.299-0.326 0.319-0.548 0.082-0.134 0.162-0.269 0.241-0.404 0.179-0.132 0.288-0.331 0.307-0.552 0.023-0.035 0.071-0.106 0.094-0.14 0.207-0.236 0.398-0.498 0.469-0.809 0.010-0.035 0.031-0.106 0.042-0.14 0.2-0.113 0.325-0.316 0.342-0.544 0.151-0.241 0.286-0.494 0.469-0.715M13.264 0.59c-0.292 0.098-0.451 0.379-0.603 0.625-3.971 6.886-7.961 13.765-11.932 20.651-0.443 0.597 0.003 1.575 0.77 1.54 8.090 0.005 16.182 0.007 24.273 0 0.766 0.034 1.208-0.941 0.769-1.538-3.989-6.916-7.992-13.826-11.985-20.74-0.215-0.485-0.794-0.758-1.293-0.537z"></path>
<path fill="#fff" d="M4.364 20.798c3.086-5.348 6.176-10.695 9.271-16.038 3.095 5.343 6.185 10.69 9.273 16.038-6.181 0.003-12.363 0.003-18.544 0M12.866 8.239c-0.535 0.173-0.745 0.92-0.34 1.325 0.453 0.535 1.469 0.285 1.559-0.431 0.115-0.646-0.645-1.145-1.219-0.895M12.953 10.357c-0.732 0.866-1.402 1.789-2.085 2.693-0.353 0.389 0.252 0.946 0.638 0.64 0.492-0.488 0.847-1.098 1.3-1.621 0.147 0.334 0.29 0.671 0.431 1.009-0.712 1.395-1.5 2.752-2.159 4.174 0.005-0.095 0.015-0.286 0.019-0.382-0.305 0.003-0.611 0.003-0.918 0.003-0.43 1.115-0.851 2.235-1.271 3.353 0.675 0.003 1.35 0.001 2.025 0.001 0.068-0.458 0.135-0.918 0.21-1.375-0.131-0.035-0.394-0.104-0.525-0.139 0.305 0.003 0.72 0.082 0.863-0.275 0.794-1.477 1.56-2.97 2.351-4.448 0.765 1.52 1.407 3.109 2.249 4.589 0.23-0.004 0.461-0.001 0.691 0.008-0.191 0.041-0.383 0.078-0.577 0.109 0.11 0.51 0.221 1.020 0.33 1.531 0.656 0 1.31 0.003 1.966-0.001-0.428-1.12-0.859-2.236-1.29-3.355-0.316 0.003-0.631 0.004-0.946 0.010-0.565-1.242-1.196-2.455-1.748-3.701 0.038-0.539 0.205-1.058 0.285-1.591 0.541 0.401 0.944 0.925 0.856 1.638-0.117 0.6 0.809 0.83 0.96 0.239-0.007-0.517-0.034-1.046-0.162-1.548-0.567-0.655-1.246-1.207-1.859-1.822-0.466-0.558-1.166-0.007-1.635 0.262M5.264 20.224c0.715 0.007 1.429 0.001 2.144 0.004 0.578-1.115 1.152-2.232 1.721-3.353-0.51-0.004-1.019 0.004-1.527-0.015-0.802 1.105-1.559 2.243-2.337 3.364M12.799 20.225c0.614 0.003 1.229 0.003 1.842 0-0.108-1.117-0.215-2.235-0.327-3.352-0.38 0-0.761-0.001-1.14-0.004-0.138 1.117-0.251 2.238-0.375 3.356M18.25 16.875c0.584 1.12 1.171 2.236 1.76 3.353 0.682-0.003 1.362 0.001 2.044-0.003-0.749-1.121-1.497-2.24-2.254-3.353-0.517 0.001-1.034-0.001-1.55 0.003z"></path>
<path fill="#fff" d="M10.51 18.705c-0.065-0.581 0.194-1.128 0.547-1.572-0.24 0.505-0.479 1.012-0.547 1.572z"></path>
<path fill="#d40000" d="M13.264 0.59c0.499-0.221 1.077 0.052 1.293 0.537 3.993 6.914 7.996 13.823 11.985 20.74 0.439 0.597-0.003 1.572-0.769 1.538-8.090 0.007-16.182 0.005-24.273 0-0.768 0.035-1.214-0.942-0.77-1.54 3.971-6.886 7.961-13.765 11.932-20.651 0.151-0.245 0.311-0.526 0.603-0.625M4.364 20.798c6.181 0.003 12.363 0.003 18.544 0-3.087-5.348-6.177-10.695-9.273-16.038-3.095 5.343-6.185 10.69-9.271 16.038z"></path>
<path fill="#353535" opacity="0.88" d="M14.699 0.503c0.206 0.104 0.342 0.304 0.35 0.537-0.21-0.101-0.342-0.305-0.35-0.537z"></path>
<path fill="#2c2c2c" opacity="0.86" d="M11.835 1.718c-0.003-0.236 0.125-0.447 0.342-0.544-0.018 0.228-0.142 0.431-0.342 0.544z"></path>
<path fill="#2a2a2a" opacity="0.85" d="M15.080 1.185c0.258 0.025 0.327 0.315 0.316 0.529-0.158-0.138-0.299-0.312-0.316-0.529z"></path>
<path fill="#2a2a2a" opacity="0.85" d="M10.362 4.312c-0.027-0.239 0.097-0.457 0.319-0.548-0.020 0.222-0.134 0.423-0.319 0.548z"></path>
<path fill="#2d2d2d" opacity="0.84" d="M11.324 2.667c0.007-0.331 0.119-0.7 0.469-0.809-0.071 0.311-0.262 0.573-0.469 0.809z"></path>
<path fill="#2f2f2f" opacity="0.87" d="M15.635 2.122c0.214 0.097 0.348 0.303 0.352 0.537-0.207-0.105-0.333-0.308-0.352-0.537z"></path>
<path fill="#252525" opacity="0.84" d="M10.923 3.36c-0.040-0.237 0.085-0.461 0.307-0.552-0.019 0.221-0.128 0.42-0.307 0.552z"></path>
<path fill="#232323" opacity="0.83" d="M16.027 2.825c0.26 0.023 0.333 0.315 0.318 0.53-0.157-0.14-0.292-0.315-0.318-0.53z"></path>
<path fill="#292929" opacity="0.85" d="M16.59 3.766c0.224 0.087 0.348 0.311 0.308 0.547-0.177-0.13-0.288-0.327-0.308-0.547z"></path>
<path fill="#2b2b2b" opacity="0.82" d="M9.825 5.262c-0.022-0.35 0.139-0.679 0.47-0.82-0.089 0.308-0.25 0.588-0.47 0.82z"></path>
<path fill="#2e2e2e" opacity="0.87" d="M17.137 4.71c0.221 0.093 0.345 0.312 0.314 0.55-0.184-0.127-0.296-0.327-0.314-0.55z"></path>
<path fill="#242424" opacity="0.83" d="M9.424 5.952c-0.041-0.237 0.083-0.461 0.305-0.552-0.019 0.22-0.128 0.42-0.305 0.552z"></path>
<path fill="#222" opacity="0.82" d="M17.54 5.401c0.222 0.091 0.348 0.314 0.307 0.552-0.177-0.134-0.288-0.331-0.307-0.552z"></path>
<path fill="#282828" opacity="0.85" d="M8.875 6.904c-0.041-0.237 0.083-0.461 0.308-0.548-0.022 0.22-0.131 0.417-0.308 0.548z"></path>
<path fill="#272727" opacity="0.84" d="M18.087 6.357c0.225 0.087 0.35 0.311 0.31 0.548-0.177-0.132-0.288-0.33-0.31-0.548z"></path>
<path fill="#2e2e2e" opacity="0.86" d="M8.295 7.84c-0.003-0.233 0.127-0.44 0.341-0.537-0.016 0.226-0.136 0.432-0.341 0.537z"></path>
<path fill="#2c2c2c" opacity="0.86" d="M18.637 7.308c0.224 0.090 0.348 0.311 0.312 0.547-0.181-0.127-0.292-0.326-0.312-0.547z"></path>
<path fill="#222" opacity="0.82" d="M7.927 8.538c-0.019-0.218 0.061-0.511 0.323-0.528-0.031 0.213-0.169 0.386-0.323 0.528z"></path>
<path fill="#000" d="M12.866 8.239c0.574-0.251 1.334 0.248 1.219 0.895-0.090 0.716-1.106 0.965-1.559 0.431-0.405-0.405-0.195-1.152 0.34-1.325z"></path>
<path fill="#000" d="M12.953 10.357c0.469-0.269 1.169-0.82 1.635-0.262 0.612 0.615 1.291 1.167 1.859 1.822 0.128 0.502 0.155 1.031 0.162 1.548-0.151 0.592-1.077 0.361-0.96-0.239 0.087-0.713-0.315-1.237-0.856-1.638-0.080 0.533-0.247 1.053-0.285 1.591 0.552 1.246 1.184 2.459 1.748 3.701 0.315-0.005 0.63-0.007 0.946-0.010 0.431 1.118 0.862 2.235 1.29 3.355-0.656 0.004-1.31 0.001-1.966 0.001-0.109-0.511-0.22-1.021-0.33-1.531 0.194-0.031 0.386-0.068 0.577-0.109-0.23-0.010-0.461-0.012-0.691-0.008-0.841-1.48-1.484-3.068-2.249-4.589-0.791 1.478-1.557 2.971-2.351 4.448-0.143 0.357-0.558 0.278-0.863 0.275 0.131 0.035 0.394 0.104 0.525 0.139-0.075 0.457-0.142 0.916-0.21 1.375-0.675 0-1.35 0.001-2.025-0.001 0.42-1.118 0.841-2.238 1.271-3.353 0.307 0 0.612 0 0.918-0.003-0.004 0.095-0.014 0.286-0.019 0.382 0.659-1.422 1.447-2.779 2.159-4.174-0.14-0.338-0.284-0.675-0.431-1.009-0.453 0.524-0.807 1.133-1.3 1.621-0.386 0.307-0.991-0.251-0.638-0.64 0.683-0.904 1.353-1.827 2.085-2.693M10.51 18.705c0.068-0.56 0.307-1.068 0.547-1.572-0.353 0.445-0.612 0.991-0.547 1.572M16.807 17.915c-0.315 0.664 0.449 0.346 0 0z"></path>
<path fill="#000" d="M5.264 20.224c0.779-1.121 1.535-2.26 2.337-3.364 0.509 0.019 1.017 0.011 1.527 0.015-0.569 1.121-1.143 2.238-1.721 3.353-0.715-0.003-1.429 0.003-2.144-0.004z"></path>
<path fill="#000" d="M12.799 20.225c0.124-1.118 0.237-2.239 0.375-3.356 0.379 0.003 0.76 0.004 1.14 0.004 0.112 1.117 0.22 2.235 0.327 3.352-0.614 0.003-1.229 0.003-1.842 0z"></path>
<path fill="#000" d="M18.25 16.875c0.517-0.004 1.034-0.001 1.55-0.003 0.757 1.113 1.505 2.232 2.254 3.353-0.682 0.004-1.362 0-2.044 0.003-0.589-1.117-1.177-2.234-1.76-3.353z"></path>
<path fill="#323232" opacity="0.87" d="M19.184 8.262c0.215 0.095 0.349 0.303 0.355 0.537-0.207-0.105-0.335-0.308-0.355-0.537z"></path>
<path fill="#282828" opacity="0.84" d="M7.375 9.495c-0.040-0.237 0.083-0.46 0.308-0.547-0.020 0.22-0.131 0.417-0.308 0.547z"></path>
<path fill="#252525" opacity="0.83" d="M19.575 8.959c0.258 0.025 0.33 0.315 0.318 0.53-0.157-0.139-0.296-0.315-0.318-0.53z"></path>
<path fill="#2d2d2d" opacity="0.85" d="M6.791 10.44c-0.001-0.236 0.13-0.447 0.346-0.543-0.020 0.228-0.146 0.431-0.346 0.543z"></path>
<path fill="#2a2a2a" opacity="0.85" d="M20.137 9.901c0.224 0.087 0.346 0.31 0.311 0.547-0.181-0.13-0.292-0.327-0.311-0.547z"></path>
<path fill="#2e2e2e" opacity="0.83" d="M6.278 11.395c0.007-0.331 0.119-0.7 0.469-0.809-0.071 0.311-0.262 0.573-0.469 0.809z"></path>
<path fill="#313131" opacity="0.87" d="M20.682 10.853c0.215 0.095 0.349 0.301 0.355 0.537-0.207-0.105-0.334-0.308-0.355-0.537z"></path>
<path fill="#262626" opacity="0.84" d="M5.877 12.087c-0.040-0.239 0.085-0.461 0.308-0.554-0.020 0.221-0.13 0.42-0.308 0.554z"></path>
<path fill="#252525" opacity="0.82" d="M21.075 11.551c0.258 0.023 0.33 0.315 0.316 0.53-0.157-0.14-0.295-0.315-0.316-0.53z"></path>
<path fill="#2b2b2b" opacity="0.85" d="M5.324 13.038c-0.035-0.237 0.089-0.458 0.312-0.545-0.020 0.22-0.131 0.417-0.312 0.545z"></path>
<path fill="#2a2a2a" opacity="0.84" d="M21.635 12.492c0.224 0.087 0.348 0.311 0.308 0.548-0.177-0.131-0.288-0.329-0.308-0.548z"></path>
<path fill="#313131" opacity="0.87" d="M4.735 13.98c0.007-0.235 0.139-0.44 0.355-0.537-0.019 0.229-0.147 0.432-0.355 0.537z"></path>
<path fill="#303030" opacity="0.86" d="M22.182 13.439c0.213 0.097 0.342 0.304 0.341 0.539-0.205-0.105-0.326-0.311-0.341-0.539z"></path>
<path fill="#252525" opacity="0.82" d="M4.381 14.673c-0.014-0.215 0.057-0.507 0.316-0.53-0.023 0.215-0.161 0.391-0.316 0.53z"></path>
<path fill="#232323" opacity="0.82" d="M22.57 14.148c0.262 0.018 0.34 0.31 0.32 0.528-0.153-0.142-0.29-0.315-0.32-0.528z"></path>
<path fill="#2a2a2a" opacity="0.84" d="M3.828 15.63c-0.038-0.236 0.085-0.46 0.31-0.547-0.020 0.22-0.131 0.417-0.31 0.547z"></path>
<path fill="#292929" opacity="0.84" d="M23.134 15.085c0.225 0.087 0.349 0.311 0.31 0.548-0.177-0.131-0.288-0.329-0.31-0.548z"></path>
<path fill="#292929" opacity="0.84" d="M2.329 18.222c-0.040-0.237 0.085-0.461 0.31-0.547-0.022 0.218-0.132 0.416-0.31 0.547z"></path>
<path fill="#2f2f2f" opacity="0.86" d="M3.247 16.568c0-0.235 0.13-0.442 0.344-0.539-0.016 0.226-0.138 0.432-0.344 0.539z"></path>
<path fill="#2e2e2e" opacity="0.85" d="M23.685 16.036c0.221 0.089 0.345 0.31 0.311 0.547-0.183-0.127-0.293-0.327-0.311-0.547z"></path>
<path fill="#2e2e2e" opacity="0.85" d="M1.78 19.169c-0.034-0.237 0.089-0.458 0.311-0.548-0.018 0.221-0.128 0.42-0.311 0.548z"></path>
<path fill="#232323" opacity="0.82" d="M2.881 17.265c-0.016-0.218 0.061-0.51 0.322-0.529-0.030 0.214-0.166 0.387-0.322 0.529z"></path>
<path fill="#333" opacity="0.87" d="M24.23 16.99c0.215 0.097 0.348 0.304 0.355 0.539-0.209-0.105-0.335-0.31-0.355-0.539z"></path>
<path fill="#333" opacity="0.87" d="M1.189 20.119c0.005-0.235 0.138-0.442 0.352-0.539-0.018 0.229-0.146 0.434-0.352 0.539z"></path>
<path fill="#272727" opacity="0.83" d="M24.62 17.686c0.259 0.023 0.33 0.315 0.318 0.53-0.157-0.14-0.296-0.315-0.318-0.53z"></path>
<path fill="#272727" opacity="0.83" d="M0.835 20.809c-0.014-0.217 0.059-0.507 0.318-0.532-0.023 0.215-0.161 0.391-0.318 0.532z"></path>
<path fill="#a0a0a0" d="M16.807 17.915c0.449 0.346-0.315 0.664 0 0z"></path>
<path fill="#2c2c2c" opacity="0.85" d="M25.182 18.627c0.222 0.089 0.346 0.31 0.312 0.547-0.181-0.128-0.293-0.327-0.312-0.547z"></path>
<path fill="#323232" opacity="0.87" d="M25.73 19.58c0.213 0.097 0.346 0.303 0.353 0.537-0.207-0.105-0.335-0.308-0.353-0.537z"></path>
<path fill="#262626" opacity="0.82" d="M26.12 20.277c0.259 0.025 0.33 0.316 0.315 0.532-0.155-0.14-0.293-0.316-0.315-0.532z"></path>
<path fill="#1e1e1e" opacity="0.79" d="M0 22.077c0.135-0.334 0.363-0.614 0.597-0.881-0.3 0.547-0.547 1.14-0.466 1.78l-0.131-0.183v-0.716z"></path>
<path fill="#1d1d1d" opacity="0.78" d="M26.674 21.198c0.23 0.265 0.457 0.537 0.599 0.863v1.002l-0.101-0.222c-0.004-0.589-0.214-1.136-0.498-1.643z"></path>
<path fill="#111" opacity="0.94" d="M1.019 23.86c8.411 0.007 16.82 0.007 25.231 0l-0.198 0.14h-24.833l-0.2-0.14z"></path>
</svg>
