<!-- Generated by IcoMoon.io -->
<svg version="1.1" xmlns="http://www.w3.org/2000/svg" width="27" height="24" viewBox="0 0 27 24">
<title>warning--road-narrows--g1</title>
<path fill="#ec1d24" d="M13.252 0h0.641c0.523 0.163 1.016 0.472 1.276 0.968 3.854 6.681 7.7 13.364 11.554 20.045 0.148 0.259 0.279 0.525 0.396 0.8v0.773c-0.197 0.694-0.753 1.243-1.455 1.414h-24.176c-0.738-0.161-1.292-0.757-1.487-1.474v-0.633c0.197-0.555 0.515-1.052 0.807-1.558 3.719-6.454 7.439-12.908 11.159-19.36 0.26-0.502 0.758-0.814 1.285-0.975M2.853 21.601c7.144 0.005 14.289 0.007 21.433-0.001-3.566-6.199-7.134-12.397-10.717-18.586-3.581 6.19-7.154 12.385-10.716 18.587z"></path>
<path fill="#fff" d="M2.853 21.601c3.562-6.202 7.135-12.397 10.716-18.587 3.584 6.188 7.151 12.386 10.717 18.586-7.144 0.008-14.289 0.007-21.433 0.001M11.186 8.393c-0.004 1.269-0.001 2.54 0 3.809 0.077 1.317-1.401 1.995-1.529 3.269-0.168 1.763-0.037 3.546-0.073 5.317 0.598 0.005 1.197 0.005 1.797 0.001 0.004-1.46 0.003-2.922 0-4.382-0.157-1.334 1.353-1.997 1.497-3.258 0.19-1.573 0.041-3.173 0.085-4.757-0.591-0.005-1.184-0.007-1.776 0.001M14.176 8.392c0.050 1.616-0.125 3.254 0.107 4.857 0.175 1.169 1.542 1.791 1.474 3.021 0 1.506-0.003 3.013 0 4.518 0.599 0.005 1.199 0.004 1.798 0.001 0.005-1.505 0.003-3.010 0.003-4.515 0.012-0.786-0.236-1.573-0.727-2.19-0.343-0.5-0.864-0.953-0.869-1.607-0.022-1.361 0-2.723-0.009-4.085-0.593-0.007-1.185-0.004-1.776 0z"></path>
<path fill="#000" d="M11.186 8.393c0.593-0.008 1.185-0.007 1.776-0.001-0.045 1.584 0.104 3.184-0.085 4.757-0.144 1.261-1.654 1.924-1.497 3.258 0.003 1.46 0.004 2.922 0 4.382-0.599 0.004-1.199 0.004-1.797-0.001 0.037-1.771-0.095-3.554 0.073-5.317 0.129-1.275 1.607-1.953 1.529-3.269-0.001-1.269-0.004-2.54 0-3.809z"></path>
<path fill="#000" d="M14.176 8.392c0.591-0.004 1.184-0.007 1.776 0 0.009 1.363-0.012 2.724 0.009 4.085 0.005 0.654 0.526 1.106 0.869 1.607 0.491 0.617 0.739 1.403 0.727 2.19 0 1.505 0.003 3.010-0.003 4.515-0.599 0.003-1.199 0.004-1.798-0.001-0.003-1.505 0-3.012 0-4.518 0.068-1.23-1.299-1.852-1.474-3.021-0.232-1.603-0.057-3.241-0.107-4.857z"></path>
</svg>
