<!-- Generated by IcoMoon.io -->
<svg version="1.1" xmlns="http://www.w3.org/2000/svg" width="24" height="24" viewBox="0 0 24 24">
<title>warning--reduced-maximum-speed-limit--g1</title>
<path fill="#e6bb2e" opacity="0.9" d="M11.68 0h0.569c0.248 0.138 0.482 0.301 0.686 0.5 3.481 3.481 6.958 6.967 10.446 10.44 0.568 0.426 0.764 1.319 0.193 1.828-3.556 3.568-7.128 7.12-10.681 10.69-0.421 0.551-1.294 0.638-1.762 0.098-3.32-3.322-6.64-6.644-9.964-9.964-0.413-0.416-0.868-0.804-1.168-1.316v-0.59c0.272-0.554 0.764-0.944 1.187-1.379 3.262-3.26 6.524-6.518 9.781-9.784 0.21-0.208 0.451-0.383 0.712-0.523M11.81 0.293c-0.262 0.058-0.455 0.257-0.642 0.433-3.516 3.524-7.042 7.040-10.558 10.565-0.377 0.311-0.457 0.91-0.079 1.255 3.593 3.608 7.207 7.198 10.802 10.805 0.31 0.371 0.912 0.392 1.23 0.020 3.602-3.601 7.205-7.205 10.808-10.805 0.372-0.32 0.347-0.92-0.018-1.235-3.534-3.548-7.084-7.081-10.619-10.628-0.239-0.244-0.56-0.5-0.925-0.41z"></path>
<path fill="#000" d="M11.81 0.293c0.365-0.090 0.686 0.167 0.925 0.41 3.535 3.547 7.085 7.080 10.619 10.628 0.365 0.314 0.39 0.914 0.018 1.235-3.604 3.6-7.206 7.204-10.808 10.805-0.318 0.372-0.92 0.35-1.23-0.020-3.595-3.607-7.21-7.196-10.802-10.805-0.378-0.346-0.298-0.944 0.079-1.255 3.516-3.524 7.042-7.040 10.558-10.565 0.187-0.176 0.38-0.376 0.642-0.433M11.55 0.986c-3.538 3.545-7.088 7.079-10.62 10.63-0.282 0.197-0.217 0.545 0.036 0.734 2.263 2.219 4.453 4.512 6.749 6.696 0.002 0.014 0.005 0.041 0.007 0.054 1.313 1.306 2.612 2.626 3.931 3.925 0.174 0.242 0.488 0.181 0.659-0.031 3.443-3.438 6.875-6.887 10.324-10.318 0.209-0.24 0.551-0.436 0.562-0.786-0.137-0.232-0.336-0.415-0.522-0.607-3.466-3.454-6.914-6.926-10.386-10.375-0.217-0.284-0.552-0.168-0.739 0.078z"></path>
<path fill="#000" d="M7.712 5.556c1.402-1.422 2.838-2.812 4.256-4.218 1.481 1.489 3.010 2.933 4.452 4.459-0.134 0.124-0.233 0.37-0.457 0.308-0.863-0.14-1.708-0.384-2.566-0.556-0.004 0.523-0.004 1.048-0.010 1.571-0.946-0.002-1.891 0-2.836-0.001 0.001-0.512 0.002-1.026 0.004-1.538-0.842 0.163-1.678 0.372-2.524 0.518-0.329 0.145-0.648-0.34-0.32-0.544z"></path>
<path fill="#000" d="M7.752 8.513c-0.044-0.374 0.247-0.738 0.637-0.701 2.48-0.008 4.963-0.018 7.444 0.007 0.095 0.086 0.186 0.175 0.274 0.27 0.116 3.338 0.004 6.69 0.049 10.033 0.047 0.388-0.082 0.924-0.565 0.914-2.398 0.024-4.796 0.011-7.194 0.006-0.379 0.037-0.679-0.302-0.635-0.673-0.007-3.286 0-6.571-0.010-9.857M8.004 9.991c2.633 0.002 5.266-0.002 7.898 0.002-0.060-0.616 0.166-1.319-0.133-1.878-2.368-0.142-4.759-0.017-7.136-0.062-1.052-0.092-0.497 1.31-0.629 1.938M7.999 10.168c0.010 2.734-0.004 5.466 0.007 8.198-0.038 0.236 0.137 0.468 0.386 0.436 2.364 0.012 4.728 0.007 7.092 0.002 0.263 0.041 0.457-0.188 0.42-0.44 0.008-2.732-0.001-5.465 0.004-8.196-2.636 0.007-5.273 0.006-7.909 0z"></path>
<path fill="#000" d="M8.934 8.576c0.172-0.329 0.546-0.12 0.787-0.006-0.229 0.024-0.46 0.047-0.69 0.067 0.244 0.233 0.864 0.431 0.59 0.86-0.229 0.317-0.594 0.044-0.829-0.112 0.259 0.006 0.518 0.029 0.776 0-0.149-0.324-0.737-0.394-0.635-0.81z"></path>
<path fill="#000" d="M9.871 9c-0.086-0.565 0.564-0.797 0.91-0.371-0.222-0.010-0.443-0.019-0.664-0.031-0.022 0.283-0.016 0.568 0.024 0.848 0.212-0.026 0.426-0.054 0.64-0.074-0.331 0.499-1.014 0.203-0.91-0.372z"></path>
<path fill="#000" d="M11.068 9.744c-0.152-0.47-0.151-0.989-0.004-1.46 0.048 0.204 0.092 0.409 0.131 0.614 0.136-0.001 0.27-0.002 0.404-0.004 0.002-0.163 0.004-0.326 0.006-0.49l0.19 0.004c0 0.406 0 0.81 0 1.216l-0.192-0.001c0-0.174-0.001-0.348-0.001-0.522-0.136-0.004-0.271-0.007-0.407-0.011-0.037 0.22-0.079 0.437-0.127 0.654z"></path>
<path fill="#000" d="M12.276 8.431c0.875-0.356 0.856 1.56-0.010 1.168-0.282-0.311-0.29-0.865 0.010-1.168M12.391 8.628c-0.223 0.234-0.21 0.818 0.188 0.845 0.262-0.236 0.15-1.062-0.188-0.845z"></path>
<path fill="#000" d="M13.367 8.452c0.821-0.422 0.913 1.421 0.084 1.172-0.388-0.209-0.382-0.881-0.084-1.172M13.506 9.553c0.373-0.211 0.476-0.823 0.038-1.026-0.277 0.294-0.169 0.695-0.038 1.026z"></path>
<path fill="#000" d="M14.353 8.281c0.175 0.365 0.126 0.776 0.136 1.168 0.185 0 0.371 0 0.557-0.001l-0.001 0.176c-0.253 0-0.505 0-0.758 0-0.001-0.449-0.016-0.9 0.067-1.343z"></path>
<path fill="#000" d="M9.161 10.921c0.091-0.472 0.692-0.332 0.96-0.104-0.281 0.034-0.564 0.036-0.844 0.076 0.266 0.205 0.961 0.239 0.785 0.721-0.233 0.377-0.775 0.228-1.021-0.062 0.308 0.011 0.638 0.12 0.917-0.070-0.245-0.199-0.745-0.185-0.797-0.56z"></path>
<path fill="#000" d="M10.342 10.596c0.329 0.044 0.858-0.109 0.971 0.324 0.052 0.43-0.419 0.439-0.72 0.443-0.037 0.205-0.083 0.407-0.136 0.608-0.197-0.432-0.102-0.918-0.115-1.375M10.58 10.775c-0.001 0.098-0.004 0.295-0.004 0.394 0.209-0.046 0.472-0.019 0.574-0.253-0.187-0.059-0.379-0.098-0.57-0.14z"></path>
<path fill="#000" d="M11.514 10.601c0.347 0.002 0.695 0 1.034 0.078-0.257 0.119-0.538 0.149-0.815 0.174 0 0.040 0 0.118 0 0.157 0.124 0.036 0.37 0.107 0.492 0.142-0.163 0.062-0.329 0.122-0.493 0.181 0.001 0.070 0.004 0.206 0.006 0.275 0.222 0 0.444 0 0.667-0.001 0.011 0.054 0.032 0.16 0.043 0.212-0.311 0.005-0.623 0.006-0.934 0.007-0.001-0.409-0.001-0.817-0.001-1.225z"></path>
<path fill="#000" d="M12.668 10.609c0.295-0.001 0.589-0.001 0.884-0.004 0.004 0.050 0.010 0.151 0.012 0.2-0.272 0.016-0.545 0.032-0.812 0.092 0.208 0.095 0.416 0.187 0.626 0.278-0.169 0.053-0.34 0.104-0.51 0.155 0.007 0.066 0.023 0.2 0.030 0.266 0.266 0.008 0.532 0.018 0.798 0.038-0.28 0.27-0.678 0.175-1.027 0.192-0.001-0.407 0-0.812-0.001-1.219z"></path>
<path fill="#000" d="M13.834 10.583c0.437-0.028 1.049 0.137 0.964 0.702-0.013 0.509-0.575 0.571-0.965 0.562-0.010-0.421-0.010-0.844 0.001-1.264M14.064 10.753c-0.016 0.311-0.014 0.623 0.006 0.934 0.649-0.053 0.641-0.887-0.006-0.934z"></path>
<path fill="#000" d="M10.849 13.53c0.004-0.454-0.025-0.911 0.066-1.358 0.24 0.419 0.138 0.912 0.154 1.372-0.055-0.004-0.164-0.011-0.22-0.013z"></path>
<path fill="#000" d="M12.845 13.542c0.008-0.466-0.077-0.953 0.118-1.393 0.148 0.448 0.090 0.924 0.096 1.387-0.053 0.001-0.161 0.005-0.214 0.006z"></path>
<path fill="#000" d="M13.134 12.454c0.323-0.164 0.688-0.149 1.040-0.15l0.001 0.222c-0.088 0.001-0.264 0.004-0.352 0.005 0.001 0.337 0.001 0.674 0.001 1.012-0.054-0.002-0.162-0.008-0.216-0.012 0.001-0.323 0.002-0.647 0.005-0.97-0.161-0.034-0.322-0.070-0.48-0.107z"></path>
<path fill="#000" d="M8.654 15.088c0.235-0.947 1.357-1.43 2.22-1 0.785 0.293 1.086 1.441 0.422 2.009-0.624 0.504-1.484 0.775-1.805 1.584 0.726 0.014 1.453 0.004 2.18 0.008-0.001 0.236-0.002 0.474-0.002 0.71-1.002-0.001-2.004 0.004-3.006-0.002 0.042-0.98 0.594-1.916 1.471-2.372 0.328-0.227 0.926-0.401 0.827-0.907-0.294-0.712-1.428-0.583-1.652 0.133-0.218-0.053-0.437-0.107-0.655-0.163z"></path>
<path fill="#000" d="M13.356 13.967c0.623-0.154 1.319 0.144 1.571 0.748 0.412 0.955 0.408 2.108-0.036 3.053-0.412 0.914-1.912 0.964-2.386 0.084-0.499-0.928-0.51-2.090-0.118-3.060 0.157-0.416 0.516-0.762 0.968-0.824M13.469 14.668c-0.763 0.4-0.682 1.484-0.582 2.216 0.029 0.563 0.619 1.158 1.175 0.768 0.553-0.571 0.523-1.486 0.382-2.215-0.065-0.461-0.467-0.937-0.974-0.769z"></path>
<path fill="#ffd033" d="M11.55 0.986c0.187-0.246 0.522-0.362 0.739-0.078 3.472 3.449 6.92 6.922 10.386 10.375 0.186 0.192 0.385 0.376 0.522 0.607-0.011 0.35-0.353 0.546-0.562 0.786-3.449 3.431-6.881 6.88-10.324 10.318-0.17 0.212-0.485 0.274-0.659 0.031-1.319-1.3-2.618-2.62-3.931-3.925 2.542 0.199 5.1 0.042 7.648 0.094 0.566 0.085 1.008-0.388 0.929-0.944-0.029-3.332 0.058-6.67-0.046-9.998-0.036-0.041-0.11-0.121-0.146-0.162-0.088-0.095-0.179-0.184-0.274-0.27-0.565-0.24-1.195-0.148-1.793-0.16-1.924 0.037-3.852-0.048-5.773 0.035-0.725 0.035-0.674 0.905-0.664 1.426 0.085 3.307-0.126 6.629 0.112 9.926-2.296-2.184-4.486-4.477-6.749-6.696-0.253-0.19-0.318-0.538-0.036-0.734 3.532-3.551 7.082-7.085 10.62-10.63M7.712 5.556c-0.328 0.204-0.008 0.689 0.32 0.544 0.846-0.146 1.681-0.355 2.524-0.518-0.001 0.512-0.002 1.026-0.004 1.538 0.944 0.001 1.89-0.001 2.836 0.001 0.006-0.523 0.006-1.048 0.010-1.571 0.858 0.172 1.703 0.415 2.566 0.556 0.224 0.061 0.323-0.185 0.457-0.308-1.442-1.526-2.971-2.97-4.452-4.459-1.418 1.406-2.855 2.796-4.256 4.218z"></path>
<path fill="#ffd033" d="M8.004 9.991c0.132-0.628-0.424-2.030 0.629-1.938 2.377 0.046 4.769-0.079 7.136 0.062 0.299 0.559 0.073 1.262 0.133 1.878-2.633-0.005-5.266 0-7.898-0.002M8.934 8.576c-0.102 0.416 0.486 0.486 0.635 0.81-0.258 0.029-0.517 0.006-0.776 0 0.235 0.156 0.6 0.428 0.829 0.112 0.274-0.43-0.347-0.628-0.59-0.86 0.23-0.020 0.461-0.043 0.69-0.067-0.241-0.114-0.616-0.323-0.787 0.006M9.871 9c-0.104 0.575 0.578 0.871 0.91 0.372-0.214 0.020-0.427 0.048-0.64 0.074-0.040-0.281-0.046-0.565-0.024-0.848 0.221 0.012 0.442 0.022 0.664 0.031-0.346-0.426-0.996-0.194-0.91 0.371M11.068 9.744c0.048-0.217 0.090-0.434 0.127-0.654 0.136 0.004 0.271 0.007 0.407 0.011 0 0.174 0.001 0.348 0.001 0.522l0.192 0.001c0-0.406 0-0.81 0-1.216l-0.19-0.004c-0.002 0.163-0.004 0.326-0.006 0.49-0.134 0.001-0.269 0.002-0.404 0.004-0.038-0.205-0.083-0.41-0.131-0.614-0.148 0.472-0.149 0.99 0.004 1.46M12.276 8.431c-0.3 0.302-0.292 0.857-0.010 1.168 0.865 0.392 0.884-1.524 0.010-1.168M13.367 8.452c-0.298 0.292-0.304 0.964 0.084 1.172 0.829 0.248 0.737-1.595-0.084-1.172M14.353 8.281c-0.083 0.443-0.068 0.894-0.067 1.343 0.253 0 0.505 0 0.758 0l0.001-0.176c-0.186 0.001-0.372 0.001-0.557 0.001-0.010-0.391 0.040-0.803-0.136-1.168z"></path>
<path fill="#ffd033" d="M12.391 8.628c0.338-0.217 0.45 0.608 0.188 0.845-0.398-0.026-0.412-0.611-0.188-0.845z"></path>
<path fill="#ffd033" d="M13.506 9.553c-0.131-0.331-0.239-0.732 0.038-1.026 0.438 0.203 0.335 0.815-0.038 1.026z"></path>
<path fill="#fff" d="M7.603 9.12c-0.011-0.521-0.061-1.391 0.664-1.426 1.921-0.083 3.85 0.002 5.773-0.035 0.598 0.012 1.228-0.080 1.793 0.16-2.48-0.025-4.963-0.016-7.444-0.007-0.39-0.037-0.682 0.326-0.637 0.701 0.010 3.286 0.002 6.571 0.010 9.857-0.044 0.371 0.256 0.71 0.635 0.673 2.398 0.005 4.796 0.018 7.194-0.006 0.484 0.010 0.612-0.527 0.565-0.914-0.046-3.343 0.067-6.695-0.049-10.033 0.036 0.041 0.11 0.121 0.146 0.162 0.103 3.329 0.017 6.666 0.046 9.998 0.079 0.557-0.362 1.030-0.929 0.944-2.548-0.052-5.106 0.106-7.648-0.094-0.002-0.013-0.005-0.040-0.007-0.054-0.238-3.298-0.026-6.619-0.112-9.926z"></path>
<path fill="#fff" d="M7.999 10.168c2.636 0.006 5.273 0.007 7.909 0-0.005 2.731 0.005 5.464-0.004 8.196 0.037 0.252-0.157 0.481-0.42 0.44-2.364 0.005-4.728 0.010-7.092-0.002-0.25 0.032-0.425-0.199-0.386-0.436-0.011-2.732 0.002-5.465-0.007-8.198M9.161 10.921c0.052 0.376 0.552 0.361 0.797 0.56-0.278 0.19-0.608 0.080-0.917 0.070 0.246 0.29 0.788 0.439 1.021 0.062 0.176-0.482-0.518-0.516-0.785-0.721 0.28-0.040 0.563-0.042 0.844-0.076-0.268-0.228-0.869-0.367-0.96 0.104M10.342 10.596c0.013 0.457-0.082 0.943 0.115 1.375 0.053-0.202 0.098-0.403 0.136-0.608 0.301-0.004 0.772-0.013 0.72-0.443-0.113-0.433-0.642-0.28-0.971-0.324M11.514 10.601c0 0.408 0 0.816 0.001 1.225 0.311-0.001 0.623-0.002 0.934-0.007-0.011-0.053-0.032-0.158-0.043-0.212-0.223 0.001-0.445 0.001-0.667 0.001-0.002-0.068-0.005-0.205-0.006-0.275 0.164-0.059 0.33-0.119 0.493-0.181-0.122-0.035-0.368-0.106-0.492-0.142 0-0.040 0-0.118 0-0.157 0.277-0.025 0.558-0.055 0.815-0.174-0.34-0.078-0.688-0.076-1.034-0.078M12.668 10.609c0.001 0.407 0 0.812 0.001 1.219 0.349-0.017 0.748 0.078 1.027-0.192-0.266-0.020-0.532-0.030-0.798-0.038-0.007-0.066-0.023-0.2-0.030-0.266 0.17-0.050 0.341-0.102 0.51-0.155-0.21-0.091-0.419-0.184-0.626-0.278 0.268-0.060 0.54-0.077 0.812-0.092-0.002-0.049-0.008-0.15-0.012-0.2-0.295 0.002-0.589 0.002-0.884 0.004M13.834 10.583c-0.011 0.42-0.011 0.842-0.001 1.264 0.39 0.010 0.952-0.053 0.965-0.562 0.085-0.565-0.527-0.73-0.964-0.702M9.732 13.538c0.306 0 0.612 0 0.918-0.001 0-0.048 0.001-0.145 0.001-0.193-0.229-0.002-0.458-0.004-0.686-0.004-0.008-0.401 0.035-0.816-0.125-1.195-0.167 0.446-0.101 0.928-0.108 1.393M10.849 13.53c0.055 0.002 0.164 0.010 0.22 0.013-0.016-0.46 0.086-0.953-0.154-1.372-0.091 0.448-0.062 0.905-0.066 1.358M11.381 13.54c0.053 0.001 0.157 0.004 0.21 0.005 0.005-0.227 0.011-0.452 0.018-0.679 0.119 0.221 0.234 0.444 0.349 0.667 0.115-0.242 0.23-0.485 0.349-0.726 0.001 0.245 0.002 0.49 0.004 0.734l0.216-0.004c0.002-0.444 0.007-0.889-0.030-1.332-0.257 0.215-0.4 0.518-0.547 0.811-0.143-0.287-0.295-0.57-0.474-0.835-0.124 0.443-0.096 0.904-0.095 1.358M12.845 13.542c0.053-0.001 0.161-0.005 0.214-0.006-0.006-0.463 0.052-0.94-0.096-1.387-0.194 0.44-0.109 0.928-0.118 1.393M13.134 12.454c0.158 0.037 0.319 0.073 0.48 0.107-0.002 0.323-0.004 0.647-0.005 0.97 0.054 0.004 0.162 0.010 0.216 0.012 0-0.337 0-0.674-0.001-1.012 0.088-0.001 0.264-0.004 0.352-0.005l-0.001-0.222c-0.353 0.001-0.718-0.014-1.040 0.15M8.654 15.088c0.218 0.056 0.437 0.11 0.655 0.163 0.224-0.716 1.358-0.845 1.652-0.133 0.1 0.506-0.499 0.68-0.827 0.907-0.877 0.456-1.429 1.392-1.471 2.372 1.002 0.006 2.004 0.001 3.006 0.002 0-0.236 0.001-0.474 0.002-0.71-0.727-0.005-1.454 0.006-2.18-0.008 0.32-0.809 1.181-1.080 1.805-1.584 0.664-0.568 0.362-1.716-0.422-2.009-0.863-0.431-1.985 0.053-2.22 1M13.356 13.967c-0.452 0.062-0.811 0.408-0.968 0.824-0.392 0.97-0.382 2.132 0.118 3.060 0.474 0.88 1.974 0.83 2.386-0.084 0.444-0.944 0.448-2.098 0.036-3.053-0.252-0.604-0.948-0.901-1.571-0.748z"></path>
<path fill="#fff" d="M10.58 10.775c0.191 0.042 0.383 0.082 0.57 0.14-0.102 0.234-0.365 0.208-0.574 0.253 0-0.098 0.002-0.295 0.004-0.394z"></path>
<path fill="#fff" d="M14.064 10.753c0.647 0.047 0.655 0.881 0.006 0.934-0.020-0.311-0.022-0.623-0.006-0.934z"></path>
<path fill="#fff" d="M13.469 14.668c0.508-0.168 0.91 0.308 0.974 0.769 0.142 0.73 0.172 1.644-0.382 2.215-0.556 0.39-1.146-0.205-1.175-0.768-0.1-0.732-0.181-1.817 0.582-2.216z"></path>
<path fill="#080808" d="M9.732 13.538c0.007-0.466-0.059-0.947 0.108-1.393 0.16 0.379 0.116 0.794 0.125 1.195 0.228 0 0.457 0.001 0.686 0.004 0 0.048-0.001 0.145-0.001 0.193-0.306 0.001-0.612 0.001-0.918 0.001z"></path>
<path fill="#080808" d="M11.381 13.54c-0.001-0.455-0.029-0.916 0.095-1.358 0.179 0.265 0.331 0.548 0.474 0.835 0.148-0.293 0.29-0.596 0.547-0.811 0.037 0.443 0.032 0.888 0.030 1.332l-0.216 0.004c-0.001-0.245-0.002-0.49-0.004-0.734-0.119 0.241-0.234 0.484-0.349 0.726-0.115-0.223-0.23-0.446-0.349-0.667-0.007 0.227-0.013 0.452-0.018 0.679-0.053-0.001-0.157-0.004-0.21-0.005z"></path>
</svg>
