<?xml version="1.0" encoding="utf-8"?>
<!-- Generated by IcoMoon.io -->
<!DOCTYPE svg PUBLIC "-//W3C//DTD SVG 1.1//EN" "http://www.w3.org/Graphics/SVG/1.1/DTD/svg11.dtd">
<svg version="1.1" xmlns="http://www.w3.org/2000/svg" xmlns:xlink="http://www.w3.org/1999/xlink" width="24" height="24" viewBox="0 0 24 24">
<path fill="#c0111e" d="M11.184 1.516h1.391c0.585 0.222 1.096 0.641 1.393 1.196 3.233 5.4 6.446 10.813 9.575 16.273 0.716 1.163 0.17 2.954-1.197 3.322-1.064 0.149-2.151 0.061-3.22 0.177h-12.82c-1.484-0.028-2.966-0.059-4.448-0.14-0.418-0.059-0.877-0.094-1.222-0.364-0.278-0.273-0.462-0.626-0.634-0.971v-1.602c0.248-0.585 0.592-1.122 0.903-1.675 2.941-5.053 5.902-10.093 8.917-15.103 0.287-0.534 0.793-0.92 1.364-1.113M2.156 20.169c6.475 0.003 12.949 0.003 19.424 0-3.228-5.498-6.462-10.993-9.712-16.477-3.252 5.484-6.485 10.979-9.712 16.477z"></path>
<path fill="#fff" d="M2.156 20.169c3.227-5.498 6.46-10.993 9.712-16.477 3.251 5.484 6.484 10.979 9.712 16.477-6.475 0.003-12.949 0.003-19.424 0M10.942 7.679c0.018 0.713-0.026 1.431 0.024 2.142 0.436 0.761 1.559 0.803 1.979 1.607 0.025 1.089 0 2.18 0.012 3.27-0.005 0.371 0.005 0.775-0.189 1.105-0.527 0.419-1.071 0.82-1.596 1.245-0.167 0.141-0.352 0.318-0.343 0.556-0.013 0.686-0.001 1.371-0.004 2.057 0.414 0.001 0.827 0.001 1.241 0 0.003-0.579-0.003-1.158 0.004-1.735 0.513-0.409 1.033-0.808 1.547-1.213 0.426-0.421 0.538-1.054 0.578-1.629-0.001-1.262 0.015-2.525-0.008-3.787-0.185-1.025-1.195-1.528-2.002-2.015 0.003-0.535 0-1.071 0.001-1.607-0.206-0.208-0.417-0.41-0.634-0.605-0.208 0.198-0.413 0.401-0.611 0.609M10.858 12.133c-0.033 0.849-0.017 1.701-0.011 2.552 0.29 0.369 0.874 0.338 1.232 0.058 0.009-0.864 0.005-1.727 0.001-2.591-0.363-0.293-0.845-0.269-1.222-0.018z"></path>
<path fill="#030303" d="M10.942 7.679c0.198-0.208 0.402-0.411 0.611-0.609 0.218 0.195 0.429 0.397 0.634 0.605-0.001 0.537 0.001 1.072-0.001 1.607 0.807 0.487 1.817 0.99 2.002 2.015 0.022 1.262 0.007 2.525 0.008 3.787-0.040 0.575-0.152 1.208-0.578 1.629-0.514 0.405-1.034 0.804-1.547 1.213-0.007 0.578-0.001 1.156-0.004 1.735-0.414 0.001-0.827 0.001-1.241 0 0.003-0.686-0.009-1.371 0.004-2.057-0.009-0.239 0.175-0.415 0.343-0.556 0.525-0.425 1.068-0.825 1.596-1.245 0.194-0.33 0.183-0.735 0.189-1.105-0.012-1.091 0.013-2.181-0.012-3.27-0.421-0.804-1.543-0.847-1.979-1.607-0.050-0.711-0.005-1.428-0.024-2.142z"></path>
<path fill="#030303" d="M10.858 12.133c0.377-0.251 0.86-0.274 1.222 0.018 0.004 0.864 0.008 1.727-0.001 2.591-0.357 0.28-0.942 0.311-1.232-0.058-0.007-0.851-0.022-1.702 0.011-2.552z"></path>
</svg>
