<svg xmlns="http://www.w3.org/2000/svg" width="24" height="24">
    <path fill="#ec1d24" d="M11.777 1.333h.577c.463.147.898.422 1.129.861 3.426 5.937 6.844 11.878 10.27 17.816.13.229.248.467.352.71v.693a1.802 1.802 0 0 1-1.292 1.252H1.321C.667 22.52.175 21.994 0 21.357v-.57c.092-.237.196-.47.319-.692C3.76 14.13 7.195 8.163 10.635 2.198c.231-.446.674-.724 1.141-.867zM2.533 20.532c6.35.008 12.701.01 19.052-.001a7946.629 7946.629 0 0 0-9.524-16.524 13584.14 13584.14 0 0 0-9.528 16.525z"/>
    <path fill="#fff" d="M2.533 20.532c3.172-5.51 6.347-11.02 9.528-16.525 3.18 5.506 6.358 11.012 9.524 16.524-6.35.011-12.701.01-19.052.001zm6.662-10.075c.224.497.451.995.684 1.487 1.052.389 2.108.772 3.156 1.169.935.348 1.564 1.326 1.545 2.316.008 1.476-.006 2.95.006 4.427.768 0 1.537-.006 2.305.003.035-1.513.011-3.027.013-4.539-.012-1.916-1.286-3.758-3.092-4.412-1.037-.369-2.063-.775-3.104-1.137-.527.17-1.012.453-1.514.686z"/>
    <path d="M9.195 10.457c.501-.233.988-.516 1.514-.686 1.04.362 2.066.768 3.104 1.137 1.807.653 3.081 2.495 3.092 4.412-.003 1.513.021 3.027-.013 4.539-.768-.008-1.537-.003-2.305-.003-.012-1.476.003-2.952-.006-4.427.018-.989-.61-1.968-1.545-2.316-1.049-.397-2.104-.78-3.156-1.169-.234-.493-.46-.991-.684-1.487z"/>
</svg>
