<!-- Generated by IcoMoon.io -->
<svg version="1.1" xmlns="http://www.w3.org/2000/svg" width="28" height="24" viewBox="0 0 28 24">
<title>warning--accident-area--g4</title>
<path fill="#ed1c24" d="M13.545 0h0.495c0.176 0.148 0.322 0.328 0.432 0.529 4.365 7.589 8.778 15.152 13.128 22.749v0.434c-0.124 0.057-0.225 0.161-0.276 0.288h-27.039c-0.075-0.112-0.151-0.239-0.285-0.286v-0.432c4.353-7.597 8.763-15.162 13.131-22.752 0.109-0.197 0.249-0.376 0.414-0.53M13.77 4.192c-3.346 5.824-6.729 11.628-10.074 17.453 6.737 0.003 13.473 0.003 20.209-0.001-3.317-5.765-6.662-11.515-9.987-17.277-0.045-0.062-0.094-0.12-0.148-0.175z"></path>
<path fill="#fff" d="M13.77 4.192c0.054 0.055 0.103 0.113 0.148 0.175 3.325 5.762 6.67 11.512 9.987 17.277-6.736 0.004-13.472 0.004-20.209 0.001 3.345-5.825 6.728-11.629 10.074-17.453M14.145 11.518c-0.7 0.677-1.318 1.427-1.836 2.252 1.929 1.674 3.915 3.28 5.938 4.838 0.608-0.75 1.23-1.488 1.835-2.24-0.558-0.498-1.152-0.955-1.69-1.475-0.043 0.027-0.087 0.054-0.129 0.081 0.214 0.116 0.402 0.271 0.582 0.434-0.702 0.060-1.163-0.442-1.648-0.855 0.078-0.093 0.156-0.187 0.235-0.28 0.234 0.175 0.464 0.357 0.68 0.556 0.037-0.037 0.075-0.073 0.113-0.108-1.352-1.072-2.689-2.176-4.080-3.203M10.364 13.237c0.621 0.421 1.234 0.853 1.864 1.26-0.492-0.602-1.016-1.178-1.532-1.759-0.112 0.165-0.223 0.332-0.332 0.499M9.895 14.091c0.761 0.243 1.516 0.501 2.28 0.734-0.716-0.465-1.471-0.866-2.21-1.293-0.024 0.186-0.047 0.372-0.070 0.559M9.966 14.86c0.013 0.095 0.039 0.285 0.053 0.38 0.767-0.014 1.537-0.004 2.303-0.049-0.781-0.14-1.57-0.229-2.356-0.331M6.639 18.223c0.353 0.901 0.707 1.802 1.066 2.702 2.407-0.861 4.8-1.756 7.133-2.804-0.25-0.941-0.6-1.846-1.063-2.702-2.413 0.844-4.775 1.824-7.136 2.804M15.817 17.593c0.609 0.779 1.245 1.536 1.862 2.309 0.14-0.141 0.28-0.281 0.419-0.422-0.759-0.631-1.499-1.286-2.281-1.887M15.303 18.213c0.025 0.916 0.18 1.823 0.267 2.735 0.081-0.025 0.244-0.075 0.326-0.1-0.192-0.879-0.38-1.76-0.593-2.635M15.665 18.037c0.324 0.889 0.701 1.759 1.051 2.638 0.149-0.1 0.3-0.2 0.451-0.3-0.503-0.778-0.975-1.576-1.502-2.338z"></path>
<path fill="#fff" d="M14.052 14.907c0.43-0.712 0.916-1.416 1.595-1.915 0.149 0.254 0.294 0.511 0.436 0.769-0.455 0.412-0.859 0.886-1.136 1.437-0.299-0.094-0.598-0.191-0.895-0.291z"></path>
<path fill="#fff" d="M15.944 13.080c0.461 0.348 0.901 0.722 1.358 1.075-0.077 0.096-0.154 0.192-0.23 0.288-0.492-0.351-0.907-0.79-1.128-1.363z"></path>
<path fill="#fff" d="M14.22 15.242c0.633-0.049 1.101 0.336 1.521 0.749-0.080 0.095-0.161 0.19-0.241 0.285-0.427-0.345-0.854-0.688-1.28-1.034z"></path>
<path fill="#fff" d="M17.114 17.074c0.435-0.466 0.83-0.968 1.174-1.504 0.242 0.064 0.483 0.136 0.722 0.215-0.386 0.717-0.898 1.365-1.545 1.864-0.12-0.19-0.236-0.382-0.351-0.575z"></path>
<path fill="#fff" d="M15.85 16.102c0.548 0.374 1.051 0.827 1.278 1.472-0.505-0.388-0.999-0.789-1.491-1.191 0.070-0.094 0.142-0.188 0.213-0.281z"></path>
<path fill="#fff" d="M10.028 16.977c0.505-0.209 1.012-0.411 1.518-0.617-0.278 0.556-0.815 0.831-1.401 0.955-0.029-0.085-0.088-0.254-0.117-0.338z"></path>
<path fill="#fff" d="M11.23 17.015c0.229-0.212 0.461-0.421 0.689-0.633 0.428 0.718 0.791 1.494 0.906 2.329-0.296 0.004-0.592 0.004-0.888 0-0.146-0.598-0.356-1.186-0.707-1.696z"></path>
<path fill="#fff" d="M8.073 17.767c0.595-0.256 1.199-0.487 1.799-0.729 0.041 0.115 0.082 0.231 0.124 0.346-0.61 0.266-1.244 0.497-1.923 0.383z"></path>
<path fill="#fff" d="M7.865 18.017c0.226-0.011 0.453-0.018 0.681-0.017 0.18 0.608 0.435 1.192 0.729 1.754-0.181 0.175-0.361 0.35-0.541 0.526-0.423-0.696-0.759-1.45-0.869-2.263z"></path>
<path fill="#fff" d="M10.86 19.239c0.552-0.266 1.145-0.402 1.76-0.321-0.542 0.227-1.088 0.444-1.633 0.664-0.042-0.115-0.085-0.229-0.127-0.343z"></path>
<path fill="#fff" d="M9.146 20.319c0.288-0.644 0.958-0.816 1.564-1.023 0.034 0.119 0.069 0.238 0.104 0.358-0.558 0.218-1.114 0.438-1.668 0.665z"></path>
<path fill="#000" d="M14.145 11.518c1.391 1.027 2.728 2.131 4.080 3.203-0.038 0.035-0.076 0.071-0.113 0.108-0.216-0.199-0.446-0.381-0.68-0.556-0.079 0.093-0.157 0.187-0.235 0.28 0.485 0.413 0.946 0.915 1.648 0.855-0.18-0.163-0.368-0.318-0.582-0.434 0.042-0.027 0.086-0.054 0.129-0.081 0.538 0.52 1.132 0.977 1.69 1.475-0.605 0.752-1.227 1.49-1.835 2.24-2.023-1.558-4.009-3.164-5.938-4.838 0.518-0.825 1.136-1.575 1.836-2.252M14.052 14.907c0.297 0.1 0.596 0.197 0.895 0.291 0.277-0.551 0.681-1.025 1.136-1.437-0.142-0.258-0.287-0.515-0.436-0.769-0.679 0.499-1.165 1.203-1.595 1.915M15.944 13.080c0.221 0.573 0.636 1.012 1.128 1.363 0.076-0.096 0.153-0.192 0.23-0.288-0.457-0.353-0.897-0.727-1.358-1.075M14.22 15.242c0.426 0.346 0.853 0.689 1.28 1.034 0.080-0.095 0.161-0.19 0.241-0.285-0.42-0.413-0.888-0.798-1.521-0.749M17.114 17.074c0.115 0.193 0.231 0.385 0.351 0.575 0.647-0.499 1.159-1.147 1.545-1.864-0.239-0.079-0.48-0.151-0.722-0.215-0.344 0.536-0.739 1.038-1.174 1.504M15.85 16.102c-0.071 0.093-0.143 0.187-0.213 0.281 0.492 0.402 0.986 0.803 1.491 1.191-0.227-0.645-0.73-1.098-1.278-1.472z"></path>
<path fill="#000" d="M10.364 13.237c0.109-0.167 0.22-0.334 0.332-0.499 0.516 0.581 1.040 1.157 1.532 1.759-0.63-0.407-1.243-0.839-1.864-1.26z"></path>
<path fill="#000" d="M9.895 14.091c0.023-0.187 0.046-0.373 0.070-0.559 0.739 0.427 1.494 0.828 2.21 1.293-0.764-0.233-1.519-0.491-2.28-0.734z"></path>
<path fill="#000" d="M9.966 14.86c0.786 0.102 1.575 0.191 2.356 0.331-0.766 0.045-1.536 0.035-2.303 0.049-0.014-0.095-0.040-0.285-0.053-0.38z"></path>
<path fill="#000" d="M6.639 18.223c2.361-0.98 4.723-1.96 7.136-2.804 0.463 0.856 0.813 1.761 1.063 2.702-2.333 1.048-4.726 1.943-7.133 2.804-0.359-0.9-0.713-1.801-1.066-2.702M10.028 16.977c0.029 0.084 0.088 0.253 0.117 0.338 0.586-0.124 1.123-0.399 1.401-0.955-0.506 0.206-1.013 0.408-1.518 0.617M11.23 17.015c0.351 0.51 0.561 1.098 0.707 1.696 0.296 0.004 0.592 0.004 0.888 0-0.115-0.835-0.478-1.611-0.906-2.329-0.228 0.212-0.46 0.421-0.689 0.633M8.073 17.767c0.679 0.114 1.313-0.117 1.923-0.383-0.042-0.115-0.083-0.231-0.124-0.346-0.6 0.242-1.204 0.473-1.799 0.729M7.865 18.017c0.11 0.813 0.446 1.567 0.869 2.263 0.18-0.176 0.36-0.351 0.541-0.526-0.294-0.562-0.549-1.146-0.729-1.754-0.228-0.001-0.455 0.006-0.681 0.017M10.86 19.239c0.042 0.114 0.085 0.228 0.127 0.343 0.545-0.22 1.091-0.437 1.633-0.664-0.615-0.081-1.208 0.055-1.76 0.321M9.146 20.319c0.554-0.227 1.11-0.447 1.668-0.665-0.035-0.12-0.070-0.239-0.104-0.358-0.606 0.207-1.276 0.379-1.564 1.023z"></path>
<path fill="#000" d="M15.817 17.593c0.782 0.601 1.522 1.256 2.281 1.887-0.139 0.141-0.279 0.281-0.419 0.422-0.617-0.773-1.253-1.53-1.862-2.309z"></path>
<path fill="#000" d="M15.303 18.213c0.213 0.875 0.401 1.756 0.593 2.635-0.082 0.025-0.245 0.075-0.326 0.1-0.087-0.912-0.242-1.819-0.267-2.735z"></path>
<path fill="#000" d="M15.665 18.037c0.527 0.762 0.999 1.56 1.502 2.338-0.151 0.1-0.302 0.2-0.451 0.3-0.35-0.879-0.727-1.749-1.051-2.638z"></path>
<path fill="#1f1111" opacity="0.13" d="M0 23.714c0.134 0.047 0.21 0.174 0.285 0.286h-0.285v-0.286z"></path>
<path fill="#1a0e0e" opacity="0.11" d="M27.324 24c0.051-0.127 0.152-0.231 0.276-0.288v0.288h-0.276z"></path>
</svg>
