<?xml version="1.0" encoding="utf-8"?>
<!-- Generated by IcoMoon.io -->
<!DOCTYPE svg PUBLIC "-//W3C//DTD SVG 1.1//EN" "http://www.w3.org/Graphics/SVG/1.1/DTD/svg11.dtd">
<svg version="1.1" xmlns="http://www.w3.org/2000/svg" xmlns:xlink="http://www.w3.org/1999/xlink" width="24" height="24" viewBox="0 0 24 24">
<path fill="#231f20" d="M11.016 0.462c0.226-0.238 0.518-0.451 0.865-0.428 0.374-0.014 0.664 0.248 0.905 0.499 3.541 3.541 7.085 7.079 10.621 10.624 0.404 0.372 0.419 1.073 0.008 1.446-3.439 3.444-6.888 6.88-10.327 10.324-0.348 0.332-0.671 0.817-1.206 0.812-0.51 0.028-0.84-0.41-1.163-0.733-3.456-3.467-6.925-6.92-10.386-10.384-0.185-0.173-0.288-0.409-0.334-0.655v-0.145c0.048-0.48 0.443-0.787 0.757-1.104 3.421-3.418 6.835-6.84 10.259-10.255M11.572 0.78c-3.592 3.566-7.165 7.152-10.741 10.734-0.221 0.156-0.296 0.492-0.066 0.677 3.607 3.6 7.212 7.204 10.816 10.807 0.155 0.178 0.442 0.164 0.588-0.018 3.602-3.602 7.21-7.201 10.811-10.805 0.214-0.182 0.137-0.502-0.071-0.652-3.552-3.563-7.111-7.118-10.67-10.674-0.158-0.205-0.48-0.296-0.666-0.070z"></path>
<path fill="#231f20" d="M9.29 7.517c0.823-1.44 1.652-2.878 2.484-4.313 0.828 1.434 1.655 2.868 2.477 4.304-0.373-0.1-0.75-0.188-1.127-0.27-0.001 0.934 0.001 1.866-0.001 2.8 1.579 1.858 3.162 3.713 4.739 5.573-0.682 0.559-1.356 1.126-2.033 1.691-0.904-1.075-1.799-2.158-2.704-3.232-0.004 1.776 0 3.552-0.001 5.328-0.871 0.004-1.742 0.002-2.614 0 0-4.058-0.001-8.117 0-12.175-0.409 0.090-0.817 0.182-1.22 0.294z"></path>
<path fill="#fd0" d="M11.572 0.78c0.186-0.227 0.508-0.136 0.666 0.070 3.559 3.556 7.118 7.111 10.67 10.674 0.208 0.15 0.284 0.469 0.071 0.652-3.601 3.604-7.208 7.202-10.811 10.805-0.146 0.182-0.433 0.196-0.588 0.018-3.604-3.604-7.208-7.207-10.816-10.807-0.23-0.185-0.155-0.521 0.066-0.677 3.576-3.582 7.15-7.168 10.741-10.734M9.29 7.517c0.403-0.112 0.811-0.204 1.22-0.294-0.001 4.058 0 8.117 0 12.175 0.871 0.002 1.742 0.004 2.614 0 0.001-1.776-0.002-3.552 0.001-5.328 0.905 1.074 1.8 2.156 2.704 3.232 0.677-0.565 1.351-1.132 2.033-1.691-1.577-1.86-3.16-3.715-4.739-5.573 0.002-0.934 0-1.866 0.001-2.8 0.377 0.082 0.754 0.17 1.127 0.27-0.822-1.436-1.649-2.87-2.477-4.304-0.832 1.435-1.661 2.873-2.484 4.313z"></path>
</svg>
