<!-- Generated by IcoMoon.io -->
<svg version="1.1" xmlns="http://www.w3.org/2000/svg" width="24" height="24" viewBox="0 0 24 24">
<title>warning--steep-descent--g6</title>
<path fill="#c6a518" opacity="0.78" d="M11.695 0h0.518c0.257 0.14 0.491 0.319 0.701 0.523 3.314 3.326 6.632 6.649 9.955 9.967 0.42 0.433 0.936 0.821 1.13 1.417v0.158c-0.101 0.257-0.232 0.505-0.427 0.702-3.581 3.582-7.166 7.159-10.742 10.746-0.21 0.215-0.468 0.373-0.746 0.486h-0.15c-0.263-0.090-0.518-0.216-0.715-0.415-3.577-3.584-7.164-7.162-10.747-10.74-0.185-0.188-0.341-0.403-0.472-0.634v-0.434c0.269-0.548 0.752-0.938 1.171-1.366 2.982-2.978 5.959-5.96 8.94-8.94 0.511-0.508 0.994-1.051 1.584-1.471M11.688 0.298c-0.146 0.084-0.274 0.199-0.396 0.314-3.576 3.583-7.16 7.16-10.739 10.74-0.342 0.277-0.457 0.832-0.101 1.145 3.658 3.67 7.324 7.331 10.987 10.992 0.289 0.346 0.826 0.328 1.111-0.012 3.642-3.642 7.283-7.285 10.925-10.927 0.346-0.286 0.358-0.821 0.016-1.114-3.612-3.631-7.243-7.243-10.86-10.868-0.232-0.257-0.607-0.45-0.943-0.27z"></path>
<path fill="#000" d="M11.688 0.298c0.336-0.18 0.712 0.013 0.943 0.27 3.617 3.625 7.248 7.237 10.86 10.868 0.342 0.293 0.33 0.828-0.016 1.114-3.642 3.642-7.283 7.285-10.925 10.927-0.286 0.34-0.822 0.358-1.111 0.012-3.664-3.661-7.33-7.322-10.987-10.992-0.356-0.313-0.241-0.868 0.101-1.145 3.578-3.58 7.163-7.157 10.739-10.74 0.122-0.115 0.25-0.23 0.396-0.314M11.797 0.624c-3.697 3.58-7.292 7.277-10.954 10.901-0.302 0.22-0.372 0.637-0.040 0.868 3.502 3.5 7.008 6.995 10.5 10.504 0.257 0.262 0.655 0.757 1.009 0.34 3.646-3.636 7.286-7.278 10.924-10.921 0.246-0.196 0.19-0.529-0.038-0.709-3.574-3.588-7.164-7.16-10.739-10.747-0.172-0.156-0.42-0.418-0.662-0.234z"></path>
<path fill="#000" d="M12.492 6.116c1.219-0.304 2.438-0.606 3.659-0.908 0.245 0.9 0.462 1.806 0.682 2.712-0.162 0.019-0.324 0.040-0.486 0.058-0.073 0.235-0.162 0.463-0.268 0.685 0.834-0.244 1.684-0.427 2.526-0.64 0.004 2.504 0.001 5.008 0 7.512-4.561 0.001-9.122 0.001-13.684 0 0-0.18 0-0.36 0.001-0.54 1.723-1.556 3.468-3.088 5.19-4.646 0.522-0.521 1.316-0.514 1.986-0.709-0.194-0.168-0.504-0.325-0.449-0.635 0.023-0.41 0.604-0.614 0.868-0.29 0.281 0.252 0.059 0.606-0.096 0.856 1.146-0.305 2.293-0.632 3.464-0.829-0.409-0.104-0.632-0.426-0.64-0.845-0.043 0.148-0.086 0.296-0.13 0.444-0.764 0.179-1.524 0.377-2.287 0.564-0.21-0.208-0.436-0.516-0.774-0.442-0.456 0.052-0.505 0.576-0.694 0.899-0.019-0.479-0.116-0.948-0.229-1.412 0.181-0.050 0.362-0.102 0.545-0.152 0.007-0.3 0.011-0.6 0.019-0.9 0.305-0.096 0.612-0.181 0.919-0.266-0.041-0.172-0.083-0.342-0.124-0.514M11.854 6.998c0.002 0.246 0.006 0.492 0.012 0.737 0.268-0.055 0.534-0.115 0.802-0.174-0.059-0.239-0.116-0.478-0.175-0.716-0.212 0.052-0.426 0.102-0.638 0.154M15.547 7.601c0.013 0.176 0.46 0.164 0.47-0.011-0.128-0.101-0.347-0.094-0.47 0.011M16.811 9.162c-0.121 0.317 0.24 0.431 0.468 0.5-0.083 0.206-0.161 0.415-0.23 0.625 0.108-0.104 0.215-0.212 0.32-0.322 0.043 0.084 0.086 0.168 0.13 0.252 0.108 0 0.324-0.002 0.432-0.002 0.166-0.35-0.068-0.613-0.413-0.683 0.078-0.205 0.154-0.41 0.222-0.618-0.092 0.086-0.185 0.175-0.275 0.265-0.182-0.157-0.53-0.344-0.654-0.018M13.907 9.781c0 0.809-0.001 1.618 0.001 2.426 0.084 0 0.253 0.001 0.338 0.001 0-0.348 0-0.696 0-1.044 0.522 0.1 1.116-0.234 0.973-0.832-0.058-0.668-0.834-0.557-1.313-0.552M15.413 12.205c0.084 0.002 0.254 0.005 0.338 0.007 0.002-0.35 0.002-0.7 0.002-1.049 0.527 0.098 1.124-0.236 0.972-0.844-0.067-0.662-0.839-0.539-1.31-0.54-0.004 0.809 0 1.618-0.002 2.425M11.118 12.368c0.108 0.001 0.324 0.004 0.431 0.005-0.080 0.232-0.16 0.464-0.23 0.701 0.066-0.066 0.199-0.198 0.265-0.264 0.187 0.214 0.484 0.32 0.665 0.030 0.095-0.346-0.235-0.418-0.491-0.474 0.091-0.223 0.178-0.446 0.26-0.672-0.114 0.096-0.227 0.194-0.338 0.294-0.073-0.098-0.148-0.196-0.221-0.294-0.334 0.073-0.492 0.361-0.341 0.674M8.069 12.635c-0.235 0.581-0.214 1.264 0 1.849 0.16 0.403 0.658 0.323 1.004 0.403 0.227-0.708 0.38-1.501 0.084-2.214-0.174-0.446-0.887-0.476-1.088-0.038M9.752 12.642c-0.229 0.58-0.209 1.255 0.002 1.838 0.158 0.406 0.656 0.328 1.002 0.408 0.233-0.709 0.385-1.505 0.085-2.219-0.176-0.448-0.893-0.469-1.090-0.028z"></path>
<path fill="#000" d="M14.255 10.088c0.239 0.046 0.66-0.018 0.629 0.349 0.074 0.406-0.37 0.355-0.637 0.401 0.001-0.251 0.004-0.5 0.008-0.75z"></path>
<path fill="#000" d="M15.763 10.092c0.457-0.078 0.742 0.233 0.595 0.674-0.202 0.019-0.403 0.037-0.605 0.053 0.001-0.242 0.004-0.485 0.010-0.727z"></path>
<path fill="#000" d="M8.333 12.884c0.022-0.245 0.354-0.307 0.492-0.119 0.229 0.479 0.149 1.031 0.083 1.538-0.113-0.064-0.227-0.126-0.34-0.187-0.006 0.118-0.017 0.353-0.022 0.47-0.37-0.481-0.359-1.142-0.214-1.703z"></path>
<path fill="#000" d="M10.019 12.886c0.023-0.245 0.347-0.305 0.492-0.125 0.232 0.48 0.15 1.032 0.085 1.541-0.114-0.062-0.228-0.124-0.343-0.184-0.006 0.118-0.017 0.353-0.023 0.47-0.36-0.485-0.356-1.142-0.211-1.703z"></path>
<path fill="#ffd520" d="M11.797 0.624c0.242-0.184 0.491 0.078 0.662 0.234 3.575 3.587 7.165 7.159 10.739 10.747 0.228 0.18 0.284 0.514 0.038 0.709-3.637 3.643-7.278 7.285-10.924 10.921-0.354 0.418-0.752-0.078-1.009-0.34-3.492-3.509-6.998-7.003-10.5-10.504-0.332-0.23-0.263-0.648 0.040-0.868 3.661-3.624 7.256-7.321 10.954-10.901M12.492 6.116c0.041 0.172 0.083 0.342 0.124 0.514-0.307 0.085-0.614 0.17-0.919 0.266-0.008 0.3-0.012 0.6-0.019 0.9-0.182 0.050-0.364 0.102-0.545 0.152 0.113 0.464 0.21 0.934 0.229 1.412 0.188-0.323 0.238-0.847 0.694-0.899 0.338-0.074 0.564 0.234 0.774 0.442 0.763-0.187 1.523-0.385 2.287-0.564 0.043-0.148 0.086-0.296 0.13-0.444 0.007 0.419 0.23 0.74 0.64 0.845-1.171 0.197-2.318 0.524-3.464 0.829 0.155-0.25 0.377-0.604 0.096-0.856-0.264-0.324-0.845-0.12-0.868 0.29-0.055 0.31 0.254 0.467 0.449 0.635-0.67 0.196-1.464 0.188-1.986 0.709-1.722 1.559-3.467 3.090-5.19 4.646-0.001 0.18-0.001 0.36-0.001 0.54 4.561 0.001 9.122 0.001 13.684 0 0.001-2.504 0.004-5.008 0-7.512-0.842 0.212-1.692 0.396-2.526 0.64 0.106-0.222 0.194-0.45 0.268-0.685 0.162-0.018 0.324-0.038 0.486-0.058-0.22-0.906-0.437-1.812-0.682-2.712-1.22 0.302-2.44 0.605-3.659 0.908z"></path>
<path fill="#ffd520" d="M11.854 6.998c0.212-0.052 0.426-0.102 0.638-0.154 0.059 0.239 0.116 0.478 0.175 0.716-0.268 0.059-0.534 0.119-0.802 0.174-0.006-0.245-0.010-0.491-0.012-0.737z"></path>
<path fill="#ffd520" d="M15.547 7.601c0.124-0.104 0.342-0.112 0.47-0.011-0.011 0.175-0.457 0.187-0.47 0.011z"></path>
<path fill="#c2c2c2" d="M16.811 9.162c0.124-0.326 0.472-0.139 0.654 0.018 0.090-0.090 0.182-0.179 0.275-0.265-0.068 0.208-0.144 0.413-0.222 0.618 0.344 0.070 0.578 0.332 0.413 0.683-0.108 0-0.324 0.002-0.432 0.002-0.043-0.084-0.086-0.168-0.13-0.252-0.106 0.109-0.212 0.217-0.32 0.322 0.070-0.21 0.148-0.419 0.23-0.625-0.228-0.070-0.589-0.184-0.468-0.5z"></path>
<path fill="#fff" d="M13.907 9.781c0.479-0.005 1.255-0.116 1.313 0.552 0.143 0.598-0.451 0.931-0.973 0.832 0 0.348 0 0.696 0 1.044-0.085 0-0.254-0.001-0.338-0.001-0.002-0.809-0.001-1.618-0.001-2.426M14.255 10.088c-0.005 0.25-0.007 0.499-0.008 0.75 0.268-0.046 0.712 0.005 0.637-0.401 0.031-0.367-0.39-0.304-0.629-0.349z"></path>
<path fill="#fff" d="M15.413 12.205c0.002-0.808-0.001-1.616 0.002-2.425 0.472 0.001 1.243-0.122 1.31 0.54 0.152 0.607-0.445 0.942-0.972 0.844 0 0.349 0 0.698-0.002 1.049-0.084-0.002-0.254-0.005-0.338-0.007M15.763 10.092c-0.006 0.242-0.008 0.485-0.010 0.727 0.202-0.016 0.403-0.034 0.605-0.053 0.146-0.442-0.138-0.752-0.595-0.674z"></path>
<path fill="#fff" d="M8.069 12.635c0.202-0.438 0.914-0.408 1.088 0.038 0.296 0.713 0.143 1.506-0.084 2.214-0.347-0.080-0.845 0-1.004-0.403-0.214-0.586-0.235-1.268 0-1.849M8.333 12.884c-0.145 0.56-0.156 1.222 0.214 1.703 0.005-0.118 0.016-0.353 0.022-0.47 0.113 0.061 0.227 0.124 0.34 0.187 0.066-0.508 0.146-1.060-0.083-1.538-0.138-0.188-0.47-0.126-0.492 0.119z"></path>
<path fill="#fff" d="M9.752 12.642c0.197-0.442 0.913-0.42 1.090 0.028 0.3 0.714 0.148 1.51-0.085 2.219-0.346-0.080-0.844-0.002-1.002-0.408-0.211-0.583-0.232-1.259-0.002-1.838M10.019 12.886c-0.145 0.56-0.149 1.218 0.211 1.703 0.006-0.118 0.017-0.353 0.023-0.47 0.115 0.060 0.229 0.121 0.343 0.184 0.065-0.509 0.146-1.061-0.085-1.541-0.145-0.18-0.469-0.12-0.492 0.125z"></path>
<path fill="#b5b5b5" d="M11.118 12.368c-0.151-0.313 0.007-0.601 0.341-0.674 0.073 0.098 0.148 0.196 0.221 0.294 0.112-0.1 0.224-0.198 0.338-0.294-0.083 0.226-0.169 0.449-0.26 0.672 0.256 0.056 0.586 0.128 0.491 0.474-0.181 0.29-0.478 0.184-0.665-0.030-0.066 0.066-0.199 0.198-0.265 0.264 0.071-0.236 0.15-0.469 0.23-0.701-0.107-0.001-0.323-0.004-0.431-0.005M11.891 12.626c-0.185 0.361 0.394 0.020 0 0z"></path>
<path fill="#0e0e0e" d="M11.891 12.626c0.394 0.020-0.185 0.361 0 0z"></path>
</svg>
