<?xml version="1.0" encoding="utf-8"?>
<!-- Generated by IcoMoon.io -->
<!DOCTYPE svg PUBLIC "-//W3C//DTD SVG 1.1//EN" "http://www.w3.org/Graphics/SVG/1.1/DTD/svg11.dtd">
<svg version="1.1" xmlns="http://www.w3.org/2000/svg" xmlns:xlink="http://www.w3.org/1999/xlink" width="24" height="24" viewBox="0 0 24 24">
<path fill="#ff3319" d="M11.868 1.38h0.238c0.656 0.042 1.18 0.508 1.453 1.081 3.388 5.893 6.787 11.779 10.18 17.67 0.113 0.206 0.198 0.427 0.262 0.654v0.456c-0.095 0.702-0.673 1.277-1.373 1.379h-21.236c-0.716-0.104-1.326-0.712-1.376-1.444-0.074-0.592 0.296-1.094 0.572-1.58 3.336-5.783 6.666-11.57 10.002-17.353 0.256-0.479 0.745-0.793 1.279-0.863M2.519 20.5c6.326 0.001 12.654 0.001 18.98 0-3.162-5.488-6.324-10.975-9.49-16.46-3.168 5.484-6.33 10.972-9.491 16.46z"></path>
<path fill="#fff" d="M2.519 20.5c3.161-5.489 6.323-10.976 9.491-16.46 3.166 5.485 6.328 10.973 9.49 16.46-6.326 0.001-12.654 0.001-18.98 0M11.725 6.869c-0.359 0.407-0.211 0.988 0.059 1.398-0.385 0.102-0.793 0.12-1.165 0.269-0.454 0.194-0.742 0.618-1.032 0.994-0.614 0.822-0.935 1.824-1.060 2.833-0.085 0.12-0.254 0.224-0.206 0.397 0.154 0.349 0.553 0.563 0.929 0.53 0.34-0.104 0.178-0.503 0.168-0.755-0.137-0.766 0.289-1.516 0.856-2 0.116 2.486-1.226 4.826-3.038 6.444 0.215 0.377 0.389 0.78 0.634 1.141 0.254 0.292 0.685 0.242 1.033 0.281-0.318-0.34-0.48-0.764-0.535-1.223 0.254-0.018 0.509-0.024 0.763-0.028 0-0.089 0-0.265 0-0.354-0.073 0.007-0.22 0.019-0.293 0.026 1.027-0.865 1.806-1.993 2.398-3.192 0.752 0.958 1.319 2.048 1.771 3.175-0.257-0.001-0.514-0.001-0.772-0.001 0 0.088 0 0.263 0 0.352 0.301-0.001 0.602-0.001 0.902-0.004 0.191 0.604 0.37 1.212 0.505 1.831 0.661-0.334 1.373-0.56 2.011-0.937-0.425-0.194-0.905-0.152-1.357-0.222-0.098-1.264-0.346-2.569-1.044-3.649-0.568-0.958-0.66-2.118-0.389-3.185 0.367 0.643 0.88 1.222 1.55 1.555 0.448 0.244 0.967 0.282 1.444 0.448 0.157-0.272 0.313-0.605 0.211-0.922-0.188-0.050-0.397 0.050-0.571-0.058-0.534-0.258-1.025-0.641-1.338-1.152-0.265-0.412-0.335-0.912-0.58-1.334-0.204-0.398-0.542-0.698-0.822-1.040 0.48-0.241 0.871-0.791 0.641-1.34-0.218-0.692-1.242-0.858-1.673-0.278M5.602 16.805c0 0.088 0 0.263 0 0.35 0.292 0 0.583 0 0.876 0 0-0.088 0-0.263 0-0.35-0.293 0-0.584 0-0.876 0M9.581 16.805c0 0.088 0 0.263 0 0.35 0.292 0 0.583 0 0.876 0 0-0.088 0-0.263 0-0.35-0.293 0-0.584 0-0.876 0M10.908 16.805c0 0.088 0 0.263 0 0.35 0.292 0 0.583 0 0.876 0 0-0.088 0-0.263 0-0.35-0.293 0-0.584 0-0.876 0M14.887 16.805c0 0.088 0 0.263 0 0.35 0.292 0 0.584 0 0.876 0 0-0.088 0-0.263 0-0.35-0.292 0-0.584 0-0.876 0M16.214 16.805c0 0.088 0 0.263 0 0.35 0.292 0 0.583 0 0.876 0 0-0.088 0-0.263 0-0.35-0.293 0-0.584 0-0.876 0M17.54 16.805c0 0.088 0.001 0.263 0.001 0.352 0.292-0.001 0.583-0.001 0.876-0.001-0.001-0.088-0.001-0.263-0.001-0.35-0.293 0-0.584 0-0.876 0M4.271 19.63c0.004 0.119 0.006 0.236 0.007 0.355 0.292-0.004 0.582-0.005 0.874-0.006 0-0.088-0.001-0.262-0.001-0.349-0.294 0-0.587 0-0.88 0M5.602 19.63c0 0.088-0.001 0.263-0.001 0.35 0.293 0 0.584 0 0.877 0 0-0.088-0.001-0.263-0.001-0.35-0.292 0-0.583 0-0.875 0M6.929 19.63c0 0.088-0.001 0.263-0.001 0.35 0.292 0 0.584 0 0.876 0 0-0.088 0-0.263 0-0.35-0.293 0-0.583 0-0.875 0M8.255 19.63c0 0.088 0 0.263 0 0.35 0.292 0 0.583 0 0.875 0 0-0.088 0-0.263 0-0.35-0.292 0-0.583 0-0.875 0M9.582 19.63c0 0.088-0.001 0.263-0.001 0.35 0.292 0 0.583 0 0.876 0 0-0.088 0-0.263 0-0.35-0.292 0-0.583 0-0.875 0M10.908 19.63c0 0.088 0 0.263 0 0.35 0.292 0 0.583 0 0.876 0 0-0.088-0.001-0.263-0.001-0.35-0.292 0-0.583 0-0.875 0M12.234 19.63c0 0.088 0 0.263 0 0.35 0.293 0 0.584 0 0.876 0 0-0.088 0-0.263 0-0.35-0.293 0-0.584 0-0.876 0M13.561 19.63c0 0.088 0 0.263 0 0.35 0.292 0 0.583 0 0.876 0 0-0.088-0.001-0.263-0.001-0.35-0.292 0-0.583 0-0.875 0M14.888 19.63c-0.001 0.088-0.001 0.263-0.001 0.35 0.292 0 0.584 0 0.876 0.001 0-0.118 0-0.235 0-0.352-0.292 0-0.583 0-0.875 0M16.214 19.63c0 0.088 0 0.263-0.001 0.35 0.293 0 0.586 0 0.878-0.001-0.001-0.116-0.002-0.233-0.002-0.349-0.292 0-0.583 0-0.875 0M17.542 19.63c-0.001 0.088-0.001 0.263-0.001 0.35 0.293 0 0.584 0 0.877-0.001 0-0.116-0.001-0.233-0.001-0.349-0.293 0-0.583 0-0.875 0M18.869 19.63c-0.001 0.088-0.001 0.263-0.001 0.35 0.292 0 0.584 0 0.877 0-0.001-0.088-0.001-0.263-0.001-0.35-0.293 0-0.584 0-0.875 0z"></path>
<path fill="#000" d="M11.725 6.869c0.431-0.58 1.454-0.414 1.673 0.278 0.23 0.55-0.161 1.099-0.641 1.34 0.28 0.342 0.618 0.642 0.822 1.040 0.245 0.422 0.314 0.923 0.58 1.334 0.313 0.511 0.804 0.894 1.338 1.152 0.174 0.108 0.383 0.007 0.571 0.058 0.102 0.317-0.054 0.649-0.211 0.922-0.476-0.166-0.996-0.204-1.444-0.448-0.671-0.334-1.183-0.912-1.55-1.555-0.271 1.067-0.179 2.227 0.389 3.185 0.698 1.080 0.946 2.386 1.044 3.649 0.452 0.070 0.932 0.028 1.357 0.222-0.638 0.377-1.35 0.604-2.011 0.937-0.136-0.619-0.314-1.228-0.505-1.831-0.3 0.002-0.601 0.002-0.902 0.004 0-0.089 0-0.264 0-0.352 0.258 0 0.515 0 0.772 0.001-0.452-1.127-1.019-2.218-1.771-3.175-0.592 1.199-1.37 2.327-2.398 3.192 0.073-0.007 0.22-0.019 0.293-0.026 0 0.089 0 0.265 0 0.354-0.254 0.004-0.509 0.010-0.763 0.028 0.055 0.458 0.217 0.883 0.535 1.223-0.348-0.038-0.779 0.011-1.033-0.281-0.245-0.361-0.419-0.764-0.634-1.141 1.812-1.618 3.155-3.958 3.038-6.444-0.566 0.485-0.992 1.235-0.856 2 0.010 0.252 0.172 0.65-0.168 0.755-0.376 0.032-0.775-0.181-0.929-0.53-0.048-0.173 0.121-0.277 0.206-0.397 0.125-1.009 0.445-2.011 1.060-2.833 0.29-0.376 0.578-0.799 1.032-0.994 0.372-0.149 0.78-0.167 1.165-0.269-0.27-0.41-0.418-0.991-0.059-1.398z"></path>
<path fill="#000" d="M5.602 16.805c0.292 0 0.583 0 0.876 0 0 0.088 0 0.263 0 0.35-0.293 0-0.584 0-0.876 0 0-0.088 0-0.263 0-0.35z"></path>
<path fill="#000" d="M9.581 16.805c0.292 0 0.583 0 0.876 0 0 0.088 0 0.263 0 0.35-0.293 0-0.584 0-0.876 0 0-0.088 0-0.263 0-0.35z"></path>
<path fill="#000" d="M10.908 16.805c0.292 0 0.583 0 0.876 0 0 0.088 0 0.263 0 0.35-0.293 0-0.584 0-0.876 0 0-0.088 0-0.263 0-0.35z"></path>
<path fill="#000" d="M14.887 16.805c0.292 0 0.584 0 0.876 0 0 0.088 0 0.263 0 0.35-0.292 0-0.584 0-0.876 0 0-0.088 0-0.263 0-0.35z"></path>
<path fill="#000" d="M16.214 16.805c0.292 0 0.583 0 0.876 0 0 0.088 0 0.263 0 0.35-0.293 0-0.584 0-0.876 0 0-0.088 0-0.263 0-0.35z"></path>
<path fill="#000" d="M17.54 16.805c0.292 0 0.583 0 0.876 0 0 0.088 0 0.263 0.001 0.35-0.293 0-0.584 0-0.876 0.001 0-0.089-0.001-0.264-0.001-0.352z"></path>
<path fill="#000" d="M4.271 19.63c0.293 0 0.586 0 0.88 0 0 0.088 0.001 0.262 0.001 0.349-0.292 0.001-0.582 0.002-0.874 0.006-0.001-0.119-0.004-0.236-0.007-0.355z"></path>
<path fill="#000" d="M5.602 19.63c0.292 0 0.583 0 0.875 0 0 0.088 0.001 0.263 0.001 0.35-0.293 0-0.584 0-0.877 0 0-0.088 0.001-0.263 0.001-0.35z"></path>
<path fill="#000" d="M6.929 19.63c0.292 0 0.582 0 0.875 0 0 0.088 0 0.263 0 0.35-0.292 0-0.584 0-0.876 0 0-0.088 0.001-0.263 0.001-0.35z"></path>
<path fill="#000" d="M8.255 19.63c0.292 0 0.583 0 0.875 0 0 0.088 0 0.263 0 0.35-0.292 0-0.583 0-0.875 0 0-0.088 0-0.263 0-0.35z"></path>
<path fill="#000" d="M9.582 19.63c0.292 0 0.583 0 0.875 0 0 0.088 0 0.263 0 0.35-0.293 0-0.584 0-0.876 0 0-0.088 0.001-0.263 0.001-0.35z"></path>
<path fill="#000" d="M10.908 19.63c0.292 0 0.583 0 0.875 0 0 0.088 0.001 0.263 0.001 0.35-0.293 0-0.584 0-0.876 0 0-0.088 0-0.263 0-0.35z"></path>
<path fill="#000" d="M12.234 19.63c0.292 0 0.583 0 0.876 0 0 0.088 0 0.263 0 0.35-0.292 0-0.583 0-0.876 0 0-0.088 0-0.263 0-0.35z"></path>
<path fill="#000" d="M13.561 19.63c0.292 0 0.583 0 0.875 0 0 0.088 0.001 0.263 0.001 0.35-0.293 0-0.584 0-0.876 0 0-0.088 0-0.263 0-0.35z"></path>
<path fill="#000" d="M14.888 19.63c0.292 0 0.583 0 0.875 0 0 0.116 0 0.234 0 0.352-0.292-0.001-0.584-0.001-0.876-0.001 0-0.088 0-0.263 0.001-0.35z"></path>
<path fill="#000" d="M16.214 19.63c0.292 0 0.583 0 0.875 0 0 0.116 0.001 0.233 0.002 0.349-0.293 0.001-0.586 0.001-0.878 0.001 0.001-0.088 0.001-0.263 0.001-0.35z"></path>
<path fill="#000" d="M17.542 19.63c0.292 0 0.582 0 0.875 0 0 0.116 0.001 0.233 0.001 0.349-0.293 0.001-0.584 0.001-0.877 0.001 0-0.088 0-0.263 0.001-0.35z"></path>
<path fill="#000" d="M18.869 19.63c0.29 0 0.582 0 0.875 0 0 0.088 0 0.263 0.001 0.35-0.293 0-0.586 0-0.877 0 0-0.088 0-0.263 0.001-0.35z"></path>
</svg>
