<!-- Generated by IcoMoon.io -->
<svg version="1.1" xmlns="http://www.w3.org/2000/svg" width="27" height="24" viewBox="0 0 27 24">
<title>warning--curve-right-with-junction--g1</title>
<path fill="#ce252c" d="M13.12 0h0.636c0.682 0.144 1.319 0.539 1.648 1.169 3.519 6.105 7.036 12.213 10.553 18.32 0.365 0.647 0.787 1.271 1.009 1.987v0.588c-0.183 0.975-0.959 1.75-1.933 1.936h-23.082c-0.967-0.164-1.741-0.916-1.951-1.871v-0.661c0.197-0.693 0.609-1.289 0.959-1.911 3.533-6.129 7.062-12.26 10.595-18.39 0.313-0.612 0.925-0.982 1.567-1.168M2.79 21.446c7.126 0.018 14.252 0.015 21.378 0.001-3.538-6.201-7.104-12.386-10.689-18.558-3.585 6.171-7.15 12.357-10.688 18.557z"></path>
<path fill="#ffd100" d="M2.79 21.446c3.538-6.2 7.103-12.386 10.688-18.557 3.585 6.173 7.151 12.357 10.689 18.558-7.126 0.013-14.252 0.016-21.378-0.001M11.133 10.727c-0.009 1.188-0.004 2.377-0.001 3.565 0.038 0.417-0.386 0.649-0.599 0.951-1.165 0.008-2.33-0.004-3.495 0.005-0.004 0.558-0.005 1.118 0.003 1.676 0.889 0.005 1.776-0.001 2.664 0.003-0.328 1.087-0.232 2.229-0.241 3.348 1.338 0.008 2.675 0.007 4.013 0 0.015-0.604-0.020-1.208 0.016-1.811 0.040-0.775 0.705-1.445 1.474-1.514 0.612-0.053 1.228-0.011 1.842-0.023 0.685-0.658 1.348-1.339 2.020-2.012-0.654-0.68-1.329-1.338-1.996-2.006-1.352-0.030-2.765-0.085-4.026 0.493-0.011-0.893 0.001-1.784-0.007-2.675-0.556-0.008-1.111-0.007-1.667 0z"></path>
<path fill="#000" d="M11.133 10.727c0.556-0.007 1.111-0.008 1.667 0 0.008 0.891-0.004 1.782 0.007 2.675 1.261-0.578 2.674-0.523 4.026-0.493 0.666 0.669 1.342 1.327 1.996 2.006-0.671 0.673-1.335 1.354-2.020 2.012-0.613 0.012-1.23-0.030-1.842 0.023-0.769 0.069-1.433 0.739-1.474 1.514-0.036 0.603-0.001 1.207-0.016 1.811-1.338 0.007-2.675 0.008-4.013 0 0.009-1.119-0.086-2.261 0.241-3.348-0.889-0.004-1.776 0.003-2.664-0.003-0.008-0.558-0.007-1.118-0.003-1.676 1.165-0.009 2.33 0.003 3.495-0.005 0.213-0.302 0.636-0.534 0.599-0.951-0.003-1.188-0.008-2.377 0.001-3.565z"></path>
</svg>
