<!-- Generated by IcoMoon.io -->
<svg version="1.1" xmlns="http://www.w3.org/2000/svg" width="24" height="24" viewBox="0 0 24 24">
<title>warning--dual-lanes-turn-left-or-right--g3</title>
<path fill="#c7a619" opacity="0.78" d="M11.795 0h0.47c0.373 0.251 0.707 0.554 1.016 0.878 3.553 3.622 7.219 7.139 10.718 10.811v0.62c-0.302 0.463-0.722 0.83-1.11 1.22-3.14 3.139-6.278 6.281-9.416 9.425-0.365 0.365-0.712 0.758-1.146 1.045h-0.64c-3.167-3.004-6.188-6.164-9.298-9.23-0.791-0.832-1.674-1.578-2.39-2.477v-0.49c0.265-0.49 0.701-0.847 1.085-1.238 3.14-3.139 6.281-6.28 9.42-9.42 0.41-0.402 0.785-0.856 1.29-1.145M11.686 0.276c-3.752 3.601-7.372 7.356-11.077 11.011-0.379 0.294-0.593 0.892-0.186 1.259 3.673 3.683 7.36 7.354 11.038 11.030 0.28 0.332 0.809 0.366 1.096 0.024 3.683-3.679 7.366-7.361 11.045-11.044 0.337-0.287 0.306-0.812-0.013-1.099-3.629-3.654-7.28-7.285-10.913-10.934-0.241-0.27-0.65-0.451-0.989-0.247z"></path>
<path fill="#000" d="M11.686 0.276c0.338-0.204 0.748-0.023 0.989 0.247 3.632 3.649 7.284 7.28 10.913 10.934 0.319 0.287 0.35 0.812 0.013 1.099-3.679 3.683-7.362 7.364-11.045 11.044-0.287 0.342-0.816 0.308-1.096-0.024-3.678-3.677-7.364-7.348-11.038-11.030-0.407-0.367-0.193-0.965 0.186-1.259 3.706-3.655 7.325-7.41 11.077-11.011M11.927 0.534c-0.157 0.068-0.28 0.194-0.403 0.31-3.592 3.607-7.198 7.2-10.789 10.808-0.24 0.184-0.268 0.529-0.012 0.714 3.659 3.658 7.315 7.319 10.978 10.972 0.181 0.234 0.508 0.192 0.679-0.029 3.647-3.64 7.283-7.291 10.927-10.932 0.222-0.169 0.27-0.497 0.037-0.679-3.604-3.637-7.241-7.242-10.848-10.874-0.158-0.136-0.332-0.36-0.569-0.289z"></path>
<path fill="#000" d="M8.126 9.090c0.602-0.842 1.188-1.697 1.805-2.528 0.634 0.979 1.42 1.877 1.954 2.909-0.224 0.485-0.822 0.037-1.196-0.006-0.004 3.079 0.002 6.16-0.004 9.239-0.512 0.001-1.026 0.001-1.538 0-0.005-0.754 0.007-1.507-0.001-2.261-0.002-1.27-0.937-2.43-2.123-2.826-0.060 0.36 0.28 1.177-0.295 1.168-0.858-0.769-1.602-1.664-2.407-2.489 1.075-0.478 2.154-0.952 3.244-1.399 0.366 0.392-0.109 0.854-0.232 1.26 0.671 0.178 1.278 0.522 1.812 0.96 0.004-1.225 0.005-2.45-0.001-3.676-0.34 0.070-0.68 0.271-1.032 0.212-0.234-0.132-0.114-0.404 0.016-0.563z"></path>
<path fill="#000" d="M16.712 9.292c-0.077-0.372-0.686-1.009-0.154-1.217 1.075 0.389 2.106 0.904 3.155 1.361-0.787 0.857-1.571 1.728-2.422 2.52-0.541-0.101-0.208-0.815-0.265-1.198-1.092 0.367-1.975 1.375-2.018 2.551-0.026 1.798-0.001 3.596-0.011 5.395-0.505 0-1.010 0-1.514-0.002 0.008-1.796-0.010-3.594 0.008-5.39 0.036-1.862 1.429-3.553 3.221-4.020z"></path>
<path fill="#000" d="M11.858 13.921c0.084 0.004 0.252 0.010 0.336 0.013-0.005 1.589-0.004 3.178 0 4.766-0.084 0.004-0.252 0.010-0.336 0.012-0.006-1.597-0.006-3.194 0-4.792z"></path>
<path fill="#ffd520" d="M11.927 0.534c0.236-0.071 0.41 0.154 0.569 0.289 3.607 3.632 7.244 7.237 10.848 10.874 0.233 0.182 0.185 0.51-0.037 0.679-3.644 3.641-7.28 7.292-10.927 10.932-0.172 0.221-0.498 0.263-0.679 0.029-3.662-3.653-7.319-7.314-10.978-10.972-0.256-0.185-0.228-0.53 0.012-0.714 3.592-3.608 7.198-7.201 10.789-10.808 0.124-0.115 0.246-0.241 0.403-0.31M8.126 9.090c-0.13 0.158-0.25 0.431-0.016 0.563 0.352 0.059 0.692-0.143 1.032-0.212 0.006 1.225 0.005 2.45 0.001 3.676-0.534-0.438-1.141-0.782-1.812-0.96 0.122-0.406 0.598-0.868 0.232-1.26-1.090 0.448-2.168 0.922-3.244 1.399 0.805 0.824 1.549 1.72 2.407 2.489 0.575 0.010 0.235-0.808 0.295-1.168 1.186 0.396 2.12 1.556 2.123 2.826 0.008 0.754-0.004 1.507 0.001 2.261 0.512 0.001 1.026 0.001 1.538 0 0.006-3.079 0-6.16 0.004-9.239 0.374 0.043 0.972 0.491 1.196 0.006-0.534-1.032-1.32-1.93-1.954-2.909-0.617 0.832-1.202 1.686-1.805 2.528M16.712 9.292c-1.792 0.467-3.185 2.158-3.221 4.020-0.018 1.796 0 3.594-0.008 5.39 0.504 0.002 1.009 0.002 1.514 0.002 0.010-1.799-0.016-3.598 0.011-5.395 0.043-1.176 0.926-2.184 2.018-2.551 0.058 0.383-0.276 1.097 0.265 1.198 0.851-0.792 1.634-1.663 2.422-2.52-1.049-0.457-2.080-0.972-3.155-1.361-0.533 0.208 0.077 0.845 0.154 1.217M11.858 13.921c-0.006 1.597-0.006 3.194 0 4.792 0.084-0.002 0.252-0.008 0.336-0.012-0.004-1.589-0.005-3.178 0-4.766-0.084-0.004-0.252-0.010-0.336-0.013z"></path>
</svg>
