<?xml version="1.0" encoding="utf-8"?>
<!-- Generated by IcoMoon.io -->
<!DOCTYPE svg PUBLIC "-//W3C//DTD SVG 1.1//EN" "http://www.w3.org/Graphics/SVG/1.1/DTD/svg11.dtd">
<svg version="1.1" xmlns="http://www.w3.org/2000/svg" xmlns:xlink="http://www.w3.org/1999/xlink" width="24" height="24" viewBox="0 0 24 24">
<path fill="#fee011" d="M11.354 0.205c0.372-0.258 0.898-0.263 1.272-0.008 0.284 0.193 0.51 0.458 0.755 0.697 3.4 3.403 6.804 6.802 10.202 10.206 0.497 0.434 0.545 1.274 0.050 1.729-3.602 3.606-7.206 7.211-10.812 10.813-0.431 0.452-1.222 0.451-1.651-0.001-3.606-3.602-7.21-7.206-10.811-10.812-0.492-0.456-0.445-1.295 0.052-1.73 3.418-3.424 6.842-6.842 10.261-10.266 0.22-0.216 0.426-0.452 0.682-0.628M11.678 0.298c-0.343 0.144-0.574 0.454-0.838 0.702-3.322 3.324-6.642 6.648-9.968 9.967-0.252 0.264-0.581 0.52-0.62 0.912-0.052 0.318 0.102 0.63 0.331 0.844 3.443 3.439 6.883 6.88 10.322 10.324 0.311 0.298 0.611 0.721 1.090 0.708 0.45 0.018 0.745-0.362 1.033-0.648 3.476-3.485 6.961-6.962 10.44-10.444 0.401-0.368 0.356-1.044-0.048-1.392-3.563-3.565-7.127-7.13-10.693-10.692-0.259-0.286-0.679-0.418-1.049-0.281z"></path>
<path fill="#fee011" d="M11.802 0.761c0.246-0.122 0.497 0.035 0.66 0.215 3.521 3.522 7.042 7.044 10.564 10.565 0.179 0.163 0.338 0.416 0.205 0.66-0.193 0.277-0.461 0.493-0.694 0.736-3.384 3.382-6.766 6.766-10.147 10.148-0.144 0.162-0.378 0.257-0.586 0.155-0.236-0.157-0.419-0.382-0.622-0.578-3.438-3.45-6.893-6.884-10.328-10.338-0.216-0.199-0.154-0.548 0.061-0.722 3.396-3.404 6.8-6.799 10.198-10.202 0.224-0.218 0.427-0.463 0.689-0.637M7.258 8.336c-0.466 0.379-0.954 0.787-1.158 1.374-0.392 0.853-0.283 1.812-0.125 2.707 0.137 0.767-0.126 1.524-0.446 2.21 0.391 0.226 0.77 0.48 1.043 0.85-0.023-0.12-0.066-0.36-0.089-0.48 0.163 0.128 0.325 0.258 0.488 0.386-0.011-0.12-0.034-0.362-0.044-0.484 0.074 0.077 0.222 0.229 0.296 0.306-0.067-0.253-0.264-0.492-0.245-0.758 0.186-0.24 0.409-0.449 0.588-0.695 0.47 0.421 0.995 0.802 1.366 1.32 0.133 0.17 0.152 0.494 0.424 0.504 0.313 0.036 0.607 0.148 0.865 0.331l-0.092-0.27c0.12 0.019 0.36 0.056 0.48 0.076-0.052-0.076-0.156-0.228-0.208-0.305 0.109 0.041 0.329 0.12 0.438 0.161-0.083-0.101-0.166-0.2-0.248-0.3l0.184-0.053c-0.269-0.164-0.556-0.3-0.81-0.486-0.436-0.443-0.079-1.397 0.587-1.292 0.53 0.13 1.022 0.442 1.59 0.374 0.034 0.362 0.173 0.712 0.388 1.004 0.312 0.414 0.82 0.604 1.162 0.988 0.032-0.094 0.097-0.278 0.13-0.371 0.109 0.090 0.217 0.18 0.326 0.27 0.047-0.035 0.139-0.104 0.186-0.139 0.076 0.050 0.226 0.15 0.301 0.199-0.034-0.094-0.101-0.282-0.134-0.377l0.328 0.113c-0.226-0.288-0.532-0.486-0.868-0.62 0.025-0.317 0.24-0.545 0.445-0.766 0.103 0.258 0.088 0.623 0.372 0.763 0.394 0.214 0.824 0.342 1.234 0.522l-0.191-0.337c0.17 0.079 0.34 0.161 0.509 0.244-0.023-0.107-0.066-0.322-0.088-0.43 0.083 0.012 0.251 0.035 0.334 0.047-0.133-0.358-0.467-0.534-0.773-0.722-0.245-0.125-0.116-0.473 0.097-0.559 0.779-0.216 1.614 0.071 2.195 0.61 0.287-0.061 0.6-0.065 0.86-0.205 0.131-0.182 0.25-0.394 0.283-0.618-0.11-0.595-0.124-1.201-0.182-1.801-0.031-0.389-0.334-0.664-0.569-0.944-0.434-0.472-0.491-1.144-0.768-1.7-0.078 0.068-0.234 0.205-0.312 0.274-0.197-0.187-0.389-0.379-0.575-0.577-0.032 0.073-0.098 0.22-0.132 0.293-0.535-0.174-1.096-0.284-1.6-0.544-0.916-0.397-1.757-0.978-2.742-1.202-0.479-0.103-0.954-0.245-1.447-0.259-1.324 0.035-2.632 0.526-3.652 1.37z"></path>
<path fill="#000" d="M11.678 0.298c0.37-0.137 0.79-0.005 1.049 0.281 3.566 3.562 7.13 7.127 10.693 10.692 0.404 0.348 0.449 1.024 0.048 1.392-3.479 3.481-6.964 6.959-10.44 10.444-0.288 0.286-0.583 0.666-1.033 0.648-0.479 0.013-0.779-0.41-1.090-0.708-3.439-3.444-6.88-6.884-10.322-10.324-0.229-0.214-0.383-0.526-0.331-0.844 0.040-0.392 0.368-0.648 0.62-0.912 3.326-3.319 6.647-6.643 9.968-9.967 0.264-0.248 0.494-0.558 0.838-0.702M11.802 0.761c-0.262 0.174-0.464 0.419-0.689 0.637-3.397 3.403-6.802 6.798-10.198 10.202-0.215 0.174-0.277 0.523-0.061 0.722 3.436 3.454 6.89 6.888 10.328 10.338 0.203 0.197 0.385 0.421 0.622 0.578 0.208 0.102 0.442 0.007 0.586-0.155 3.382-3.383 6.763-6.767 10.147-10.148 0.233-0.242 0.5-0.458 0.694-0.736 0.133-0.244-0.026-0.497-0.205-0.66-3.522-3.521-7.043-7.043-10.564-10.565-0.163-0.18-0.414-0.337-0.66-0.215z"></path>
<path fill="#000" d="M7.258 8.336c1.020-0.845 2.328-1.336 3.652-1.37 0.493 0.014 0.968 0.156 1.447 0.259 0.985 0.224 1.826 0.805 2.742 1.202 0.504 0.259 1.064 0.37 1.6 0.544 0.034-0.073 0.1-0.22 0.132-0.293 0.186 0.198 0.378 0.39 0.575 0.577 0.078-0.068 0.234-0.205 0.312-0.274 0.277 0.557 0.334 1.229 0.768 1.7 0.235 0.281 0.538 0.556 0.569 0.944 0.059 0.6 0.072 1.206 0.182 1.801-0.034 0.224-0.152 0.436-0.283 0.618-0.26 0.14-0.574 0.144-0.86 0.205-0.581-0.539-1.416-0.826-2.195-0.61-0.214 0.086-0.342 0.434-0.097 0.559 0.306 0.188 0.64 0.365 0.773 0.722-0.083-0.012-0.251-0.035-0.334-0.047 0.022 0.108 0.065 0.323 0.088 0.43-0.169-0.083-0.338-0.164-0.509-0.244l0.191 0.337c-0.409-0.18-0.84-0.308-1.234-0.522-0.284-0.14-0.269-0.505-0.372-0.763-0.205 0.221-0.42 0.449-0.445 0.766 0.336 0.134 0.642 0.332 0.868 0.62l-0.328-0.113c0.034 0.095 0.101 0.283 0.134 0.377-0.076-0.049-0.226-0.149-0.301-0.199-0.047 0.035-0.139 0.104-0.186 0.139-0.109-0.090-0.217-0.18-0.326-0.27-0.032 0.092-0.097 0.277-0.13 0.371-0.342-0.384-0.85-0.574-1.162-0.988-0.215-0.293-0.354-0.642-0.388-1.004-0.568 0.067-1.060-0.245-1.59-0.374-0.666-0.104-1.022 0.85-0.587 1.292 0.254 0.186 0.541 0.322 0.81 0.486l-0.184 0.053c0.083 0.1 0.166 0.199 0.248 0.3-0.109-0.041-0.329-0.12-0.438-0.161 0.052 0.077 0.156 0.229 0.208 0.305-0.12-0.019-0.36-0.056-0.48-0.076l0.092 0.27c-0.258-0.184-0.552-0.295-0.865-0.331-0.271-0.010-0.29-0.334-0.424-0.504-0.371-0.518-0.895-0.899-1.366-1.32-0.179 0.246-0.402 0.455-0.588 0.695-0.019 0.266 0.178 0.505 0.245 0.758-0.074-0.077-0.222-0.229-0.296-0.306 0.011 0.121 0.034 0.364 0.044 0.484-0.163-0.128-0.325-0.258-0.488-0.386 0.023 0.12 0.066 0.36 0.089 0.48-0.272-0.37-0.652-0.624-1.043-0.85 0.32-0.686 0.583-1.444 0.446-2.21-0.158-0.895-0.268-1.854 0.125-2.707 0.204-0.587 0.692-0.995 1.158-1.374z"></path>
</svg>
