<?xml version="1.0" encoding="utf-8"?>
<!-- Generated by IcoMoon.io -->
<!DOCTYPE svg PUBLIC "-//W3C//DTD SVG 1.1//EN" "http://www.w3.org/Graphics/SVG/1.1/DTD/svg11.dtd">
<svg version="1.1" xmlns="http://www.w3.org/2000/svg" xmlns:xlink="http://www.w3.org/1999/xlink" width="24" height="24" viewBox="0 0 24 24">
<path fill="#231f20" d="M10.975 0.529c0.242-0.245 0.54-0.492 0.908-0.469 0.332-0.006 0.605 0.209 0.828 0.43 3.421 3.418 6.841 6.836 10.265 10.253 0.311 0.324 0.739 0.646 0.743 1.139 0.031 0.569-0.482 0.918-0.832 1.284-3.26 3.26-6.529 6.512-9.784 9.779-0.353 0.334-0.68 0.821-1.219 0.82-0.551 0.028-0.892-0.467-1.248-0.805-3.413-3.428-6.842-6.841-10.264-10.26-0.202-0.191-0.323-0.446-0.373-0.716v-0.158c0.091-0.526 0.538-0.854 0.886-1.213 3.364-3.36 6.73-6.718 10.090-10.081M11.66 0.743c-0.091 0.065-0.176 0.138-0.254 0.217-3.496 3.508-7.008 6.997-10.505 10.504-0.152 0.157-0.372 0.365-0.247 0.606 0.209 0.306 0.506 0.538 0.762 0.804 3.359 3.36 6.726 6.713 10.081 10.078 0.126 0.127 0.292 0.256 0.482 0.186 0.275-0.155 0.466-0.419 0.694-0.631 3.319-3.316 6.634-6.636 9.96-9.944 0.194-0.223 0.576-0.446 0.446-0.792-0.164-0.247-0.391-0.44-0.596-0.652-3.398-3.402-6.806-6.797-10.205-10.199-0.154-0.16-0.401-0.352-0.618-0.176z"></path>
<path fill="#231f20" d="M9.318 7.249c0.137 0.018 0.234 0.131 0.346 0.203 0.16-0.146 0.328-0.283 0.493-0.422-0.011 0.524-0.52 0.792-0.689 1.247-0.161 0.622 0.15 1.229 0.407 1.778 0.264 0.503 0.654 1.085 1.285 1.105 1.080 0.084 2.166 0.044 3.247 0.014 0.324 0.036 0.503-0.313 0.799-0.343 0.017 0.41-0.29 0.72-0.578 0.966-0.001 0.388 0.024 0.775 0.037 1.163 0.5 0.434 1.247 0.53 1.627 1.108 0.238 0.365 0.614 0.64 0.798 1.033-0.040 0.062-0.12 0.186-0.16 0.248-0.191-0.317-0.362-0.668-0.677-0.882-0.64-0.446-1.478-0.444-2.122-0.883-0.229-0.162-0.37-0.41-0.564-0.606-0.484-0.113-0.961 0.083-1.441 0.104-0.565 0.044-1.122-0.108-1.687-0.084-0.889 0.017-1.787-0.042-2.668 0.096-0.144 0.17 0.019 0.353 0.126 0.485 0.299 0.343 0.661 0.623 0.985 0.941-0.058 0.060-0.174 0.18-0.232 0.24-0.442-0.4-0.91-0.797-1.206-1.321-0.121-0.196-0.168-0.518 0.083-0.636 0.434-0.192 0.926-0.16 1.375-0.304 0.275-0.122 0.335-0.466 0.33-0.736-0.022-0.934-0.424-1.82-0.38-2.76-0.5-0.023-1.010-0.047-1.478-0.244 0.305-0.442 0.872-0.544 1.36-0.655-0.018-0.134-0.005-0.263 0.038-0.385 0.155-0.018 0.31-0.030 0.466-0.038 0.025-0.144 0.052-0.288 0.079-0.432z"></path>
<path fill="#fd0" d="M11.66 0.743c0.217-0.175 0.464 0.017 0.618 0.176 3.398 3.402 6.806 6.797 10.205 10.199 0.205 0.211 0.432 0.404 0.596 0.652 0.13 0.346-0.252 0.569-0.446 0.792-3.326 3.308-6.641 6.629-9.96 9.944-0.228 0.212-0.419 0.476-0.694 0.631-0.191 0.070-0.356-0.059-0.482-0.186-3.355-3.365-6.722-6.718-10.081-10.078-0.256-0.266-0.553-0.498-0.762-0.804-0.125-0.241 0.095-0.449 0.247-0.606 3.497-3.506 7.009-6.996 10.505-10.504 0.078-0.079 0.163-0.152 0.254-0.217M9.318 7.249c-0.028 0.144-0.054 0.288-0.079 0.432-0.156 0.008-0.311 0.020-0.466 0.038-0.043 0.122-0.056 0.251-0.038 0.385-0.487 0.112-1.055 0.214-1.36 0.655 0.468 0.197 0.978 0.221 1.478 0.244-0.043 0.94 0.359 1.826 0.38 2.76 0.005 0.27-0.055 0.613-0.33 0.736-0.449 0.144-0.941 0.112-1.375 0.304-0.251 0.118-0.204 0.44-0.083 0.636 0.296 0.524 0.764 0.922 1.206 1.321 0.058-0.060 0.174-0.18 0.232-0.24-0.324-0.318-0.686-0.598-0.985-0.941-0.107-0.132-0.27-0.314-0.126-0.485 0.881-0.138 1.778-0.079 2.668-0.096 0.565-0.024 1.122 0.128 1.687 0.084 0.48-0.022 0.958-0.217 1.441-0.104 0.194 0.196 0.335 0.444 0.564 0.606 0.643 0.439 1.482 0.437 2.122 0.883 0.314 0.214 0.486 0.565 0.677 0.882 0.040-0.062 0.12-0.186 0.16-0.248-0.184-0.394-0.56-0.668-0.798-1.033-0.38-0.577-1.127-0.673-1.627-1.108-0.013-0.388-0.038-0.775-0.037-1.163 0.288-0.246 0.595-0.556 0.578-0.966-0.296 0.030-0.475 0.379-0.799 0.343-1.081 0.030-2.167 0.070-3.247-0.014-0.631-0.020-1.021-0.602-1.285-1.105-0.257-0.55-0.568-1.157-0.407-1.778 0.169-0.455 0.678-0.722 0.689-1.247-0.166 0.139-0.334 0.276-0.493 0.422-0.112-0.072-0.209-0.185-0.346-0.203z"></path>
</svg>
