<?xml version="1.0" encoding="utf-8"?>
<!-- Generated by IcoMoon.io -->
<!DOCTYPE svg PUBLIC "-//W3C//DTD SVG 1.1//EN" "http://www.w3.org/Graphics/SVG/1.1/DTD/svg11.dtd">
<svg version="1.1" xmlns="http://www.w3.org/2000/svg" xmlns:xlink="http://www.w3.org/1999/xlink" width="24" height="24" viewBox="0 0 24 24">
<path fill="#ff0" d="M11.896 0h0.083c0.347 0.028 0.654 0.21 0.888 0.46 3.514 3.527 7.037 7.044 10.552 10.57 0.289 0.277 0.466 0.685 0.38 1.088-0.091 0.485-0.516 0.786-0.834 1.123-3.402 3.402-6.8 6.808-10.2 10.211-0.349 0.374-0.952 0.484-1.396 0.22-0.292-0.182-0.512-0.452-0.757-0.69-3.218-3.222-6.445-6.436-9.666-9.655-0.362-0.373-0.817-0.707-0.946-1.24v-0.306c0.086-0.55 0.557-0.892 0.918-1.267 3.361-3.358 6.725-6.712 10.084-10.072 0.235-0.25 0.547-0.424 0.894-0.442M11.694 0.308c-0.226 0.064-0.407 0.22-0.572 0.378-3.379 3.378-6.755 6.76-10.136 10.134-0.256 0.265-0.57 0.51-0.673 0.88-0.092 0.326 0.058 0.667 0.286 0.9 3.539 3.54 7.081 7.078 10.62 10.618 0.234 0.229 0.57 0.39 0.902 0.294 0.394-0.114 0.646-0.467 0.932-0.737 3.276-3.281 6.554-6.56 9.836-9.835 0.259-0.271 0.599-0.53 0.647-0.93 0.062-0.431-0.264-0.766-0.544-1.043-3.385-3.376-6.76-6.763-10.142-10.141-0.294-0.312-0.691-0.655-1.156-0.517z"></path>
<path fill="#ff0" d="M11.809 0.88c0.169-0.104 0.319 0.084 0.437 0.182 3.499 3.504 7.006 7.003 10.504 10.508 0.181 0.149 0.325 0.404 0.090 0.582-3.536 3.544-7.081 7.080-10.618 10.622-0.116 0.104-0.301 0.294-0.456 0.134-0.27-0.206-0.487-0.472-0.731-0.706-3.322-3.317-6.635-6.643-9.961-9.954-0.092-0.106-0.212-0.209-0.224-0.358 0.056-0.164 0.194-0.278 0.307-0.403 3.301-3.306 6.608-6.608 9.91-9.914 0.245-0.234 0.462-0.503 0.743-0.695M9.016 4.664c0 2.422 0 4.843 0 7.265 1.051-0.005 2.104 0.016 3.154-0.034-0.014 0.646-0.005 1.291-0.007 1.938-0.164-0.001-0.328-0.002-0.491-0.004 0.001-0.63 0.002-1.259-0.001-1.888-0.886 0.014-1.771 0.010-2.656 0.010 0.001 2.4-0.002 4.8 0.001 7.201 1.932-0.004 3.865 0.001 5.797-0.004 0-2.401-0.001-4.802 0-7.205-0.864 0.002-1.729 0.024-2.592-0.007 0.863-0.020 1.728-0.001 2.592-0.014-0.002-2.419 0-4.84-0.001-7.259-1.932 0-3.864 0-5.796 0z"></path>
<path fill="#ff0" d="M9.704 5.164c0.137 0.148 0.133 0.353 0.108 0.541 0.317 0.024 0.168-0.457 0.461-0.413 0.006 0.164-0.055 0.359 0.154 0.431 0.078-0.138 0.134-0.283 0.172-0.438l0.054-0.114c0.010 0.199 0.064 0.379 0.162 0.539 0.062-0.046 0.186-0.137 0.248-0.182-0.055-0.076-0.163-0.227-0.218-0.302l0.468 0.007c-0.364 0.186 0.056 0.701 0.19 0.292-0.020-0.071-0.060-0.215-0.080-0.287l0.316-0.014c-0.184 0.224-0.125 0.473 0.193 0.473-0.396-0.516 0.599-0.503 0.142-0.019 0.082-0.011 0.246-0.034 0.329-0.046-0.022-0.144-0.048-0.286-0.079-0.427l0.377 0.040c-0.3 0.144-0.188 0.541 0.116 0.383l0.016-0.125 0.022-0.124c-0.094-0.268 0.355-0.078 0.172 0.049l-0.032 0.077c0.061 0.114 0.168 0.178 0.322 0.188-0.259-0.142 0.084-0.56 0.214-0.342-0.025 0.061-0.078 0.184-0.104 0.244 0.169 0.088 0.325 0.061 0.468-0.077l-0.184-0.085c-0.010-0.032-0.028-0.098-0.037-0.131 0.089-0.023 0.266-0.066 0.356-0.088-0.142 0.19-0.132 0.356 0.026 0.499 0.138-0.109 0.197-0.263 0.179-0.46l0.053 0.025c-0.048 0.331-0.192 0.684-0.010 1-0.084-0.002-0.252-0.010-0.336-0.012-0.018 0.125-0.001 0.248 0.048 0.371 0.074-0.035 0.224-0.103 0.299-0.138-0.098 0.215-0.181 0.438-0.024 0.654-0.211 0.002-0.43 0.024-0.361 0.3 0.088 0.011 0.263 0.031 0.349 0.042-0.138 0.312 0.036 0.64-0.035 0.961-0.054 0.198-0.031 0.392 0.056 0.576-0.082 0-0.247-0.002-0.33-0.004-0.161 0.266 0.136 0.355 0.342 0.277-0.121 0.194-0.173 0.4-0.016 0.599-0.209 0.014-0.448 0.034-0.362 0.31 0.090 0.011 0.27 0.031 0.36 0.041-0.132 0.202-0.127 0.402 0.016 0.601-0.191-0.085-0.499 0.025-0.335 0.259 0.098 0.040 0.295 0.119 0.394 0.158-0.964 0.095-1.938-0.005-2.903 0.049l-0.094 0.052-0.017-0.127c-0.557 0.148-1.178 0.034-1.759 0.044l0.036-0.18c0.168-0.028 0.488 0.179 0.532-0.084-0.036-0.365-0.48 0.049-0.653-0.228 0.097-0.050 0.289-0.152 0.385-0.203 0.182-0.031 0.394 0.221 0.504-0.035-0.001-0.254-0.27-0.143-0.413-0.132-0.125-0.016-0.248-0.035-0.373-0.055 0.065-0.184 0.067-0.368 0.010-0.554 0.152-0.011 0.26-0.080 0.323-0.205-0.134-0.121-0.27-0.242-0.407-0.362 0.132-0.001 0.264-0.001 0.397 0l0.001 0.18c0.164-0.098 0.228-0.233 0.19-0.406-0.205-0.010-0.412-0.004-0.618-0.011 0.169-0.106 0.34-0.21 0.51-0.314 0.186 0.478 0.605-0.149 0.126-0.258l0.026 0.173c-0.128 0.010-0.257 0.020-0.384 0.030l0.103-0.090-0.37-0.138c0.2-0.091 0.53 0.064 0.643-0.15-0.006-0.26-0.271-0.136-0.418-0.11-0.060-0.042-0.18-0.126-0.241-0.167 0.239-0.050 0.481-0.065 0.724-0.071 0.311 0.035 0.031-0.325-0.031-0.431l-0.019 0.216c-0.187-0.026-0.374-0.059-0.56-0.091 0.062-0.199 0.060-0.397-0.007-0.594 0.232-0.046 0.472-0.068 0.697 0.017 0.071-0.139 0.084-0.299-0.084-0.378-0.138 0.066-0.266 0.146-0.395 0.226l0.055-0.196-0.228 0.017-0.076-0.289c0.16 0.059 0.319 0.121 0.474 0.194 0.026-0.064 0.078-0.192 0.104-0.256-0.107-0.206-0.36-0.058-0.529-0.056l-0.038-0.198c0.247-0.083 0.804 0.181 0.788-0.212-0.060-0.050-0.179-0.151-0.239-0.202l0.029 0.172c-0.126 0.007-0.251 0.016-0.376 0.023l0.1-0.132-0.295 0.047c0.044-0.211 0.089-0.422 0.134-0.632M10.506 5.825c-0.224 0.144 0.122 0.421 0.239 0.241 0.241-0.103-0.169-0.494-0.239-0.241M10.976 5.809c-0.121 0.115-0.002 0.392 0.166 0.298 0.326-0.028 0.047-0.529-0.166-0.298M11.388 6.006c0.119 0.212 0.337 0.089 0.391-0.104 0.155 0.318 0.536 0.14 0.806 0.206l-0.022-0.157c0.155 0.104 0.329 0.179 0.521 0.16 0.082-0.205 0.005-0.344-0.23-0.416l0.036 0.234c-0.139-0.046-0.283-0.077-0.416-0.137-0.134 0.052-0.271 0.097-0.408 0.139l0.067-0.176c-0.226 0.104-0.457 0.104-0.677-0.011-0.017 0.066-0.052 0.197-0.068 0.263M13.266 5.826c-0.21 0.179 0.239 0.473 0.294 0.169 0.158-0.151-0.218-0.34-0.294-0.169M13.721 5.813c-0.158 0.168 0.102 0.442 0.252 0.252 0.196-0.107-0.104-0.466-0.252-0.252M10.252 6.287c-0.106 0.193 0.095 0.401 0.288 0.268 0.080-0.223-0.059-0.431-0.288-0.268M10.723 6.296c-0.214 0.089 0.12 0.458 0.251 0.241 0.214-0.149-0.137-0.457-0.251-0.241M11.21 6.292c-0.199 0.116 0.132 0.455 0.24 0.244 0.217-0.12-0.128-0.473-0.24-0.244M11.824 6.676l0.008-0.233c0.137 0.035 0.272 0.070 0.407 0.113 0.134-0.041 0.27-0.074 0.408-0.106l0.018 0.23c0.042-0.053 0.126-0.158 0.168-0.212 0.244-0.192-0.4-0.386-0.336-0.043-0.074-0.055-0.15-0.112-0.226-0.167-0.168 0.005-0.336 0.006-0.504 0.006-0.304-0.037-0.088 0.366 0.056 0.412M13.032 6.311c-0.163 0.215 0.227 0.419 0.294 0.166 0.155-0.196-0.263-0.365-0.294-0.166M13.476 6.287c-0.11 0.181 0.1 0.425 0.274 0.252 0.198-0.178-0.101-0.433-0.274-0.252M10.492 6.743c-0.161 0.16 0.1 0.427 0.258 0.258 0.18-0.158-0.101-0.452-0.258-0.258M10.975 6.74c-0.164 0.158 0.097 0.428 0.257 0.26 0.181-0.157-0.098-0.45-0.257-0.26M11.431 6.74c-0.168 0.163 0.108 0.432 0.263 0.254 0.17-0.161-0.108-0.44-0.263-0.254M11.832 6.726c0.035 0.113 0.071 0.226 0.108 0.337 0.188-0.122 0.412-0.103 0.612-0.024 0.031-0.104 0.064-0.208 0.094-0.311-0.271 0.010-0.542 0.010-0.814-0.002M12.769 6.793c-0.071 0.275 0.34 0.344 0.383 0.061-0.116-0.217-0.244-0.238-0.383-0.061M13.26 6.744c-0.158 0.161 0.103 0.424 0.26 0.257 0.182-0.16-0.106-0.452-0.26-0.257M13.72 6.74c-0.167 0.161 0.103 0.431 0.26 0.258 0.175-0.16-0.104-0.444-0.26-0.258M10.848 7.148c-0.224-0.018-0.24 0.376-0.006 0.352 0.24 0.044 0.257-0.376 0.006-0.352M11.318 7.145c-0.379 0.050 0.007 0.604 0.163 0.256 0.155-0.097-0.064-0.244-0.163-0.256M13.598 7.158c-0.232 0.010-0.19 0.38 0.040 0.344 0.258 0.017 0.191-0.418-0.040-0.344M9.854 7.214c-0.174 0.104 0.020 0.374 0.178 0.256 0.176-0.104-0.017-0.382-0.178-0.256M10.26 7.213c-0.157 0.161 0.104 0.419 0.262 0.256 0.187-0.16-0.106-0.45-0.262-0.256M11.576 7.324c0.114 0.216 0.26 0.229 0.439 0.038 0.166 0.187 0.311 0.178 0.436-0.032-0.108-0.192-0.253-0.211-0.436-0.058-0.179-0.157-0.325-0.14-0.439 0.052M12.534 7.255c-0.182 0.086 0.208 0.382 0.28 0.191 0.22-0.167-0.175-0.47-0.28-0.191M13.032 7.212c-0.158 0.157 0.092 0.419 0.253 0.262 0.196-0.154-0.094-0.456-0.253-0.262M10.576 7.597c-0.226 0.056-0.126 0.431 0.098 0.358 0.227-0.055 0.124-0.43-0.098-0.358M11.057 7.596c-0.226 0.054-0.128 0.43 0.097 0.358 0.227-0.053 0.125-0.428-0.097-0.358M11.524 7.595c-0.238 0.044-0.14 0.436 0.091 0.358 0.22-0.055 0.128-0.418-0.091-0.358M11.915 7.631c-0.187 0.118 0.023 0.419 0.198 0.283 0.184-0.119-0.025-0.415-0.198-0.283M12.372 7.643c-0.175 0.11 0.026 0.377 0.185 0.252 0.167-0.11-0.030-0.379-0.185-0.252M13.34 7.6c-0.222 0.059-0.119 0.427 0.103 0.354 0.232-0.056 0.12-0.434-0.103-0.354M13.813 7.595c-0.234 0.044-0.145 0.432 0.086 0.359 0.223-0.050 0.136-0.419-0.086-0.359M12.799 7.686c-0.134 0.174 0.161 0.379 0.277 0.191 0.143-0.175-0.164-0.388-0.277-0.191M10.338 8.057c-0.184 0.115-0.132 0.364 0.085 0.394 0.235-0.071 0.16-0.445-0.085-0.394M10.756 8.108c-0.239 0.092-0.011 0.407 0.157 0.298 0.263-0.050 0.040-0.503-0.157-0.298M11.23 8.112c-0.204 0.020 0.014 0.472 0.169 0.289 0.263-0.054 0.019-0.494-0.169-0.289M11.879 8.414c0.052-0.023 0.155-0.070 0.206-0.092 0.251 0.092 0.527 0.047 0.788 0.073-0.032-0.115-0.065-0.232-0.098-0.347-0.156 0.066-0.316 0.122-0.475 0.176l0.060-0.164c-0.216 0.097-0.456 0.108-0.676 0.014-0.143 0.187-0.028 0.338 0.194 0.34M13.091 8.058c-0.234 0.13 0.022 0.558 0.193 0.306 0.23-0.102-0.047-0.34-0.193-0.306M13.579 8.066c-0.232 0.047-0.134 0.425 0.092 0.353 0.234-0.048 0.132-0.421-0.092-0.353M13.967 8.096c-0.178 0.116 0.013 0.436 0.192 0.29 0.167-0.119-0.016-0.43-0.192-0.29M10.494 8.591c-0.148 0.062 0.031 0.377 0.168 0.28 0.325-0.034 0.036-0.556-0.168-0.28M10.98 8.579c-0.139 0.118 0.002 0.37 0.167 0.289 0.306-0.016 0.030-0.56-0.167-0.289M11.346 8.651c0.064 0.115 0.15 0.212 0.257 0.29 0.046-0.073 0.134-0.222 0.179-0.295 0.119 0.367 0.545 0.134 0.808 0.222l-0.032-0.146c0.248 0.197 0.557 0.056 0.839 0.133 0.283 0.088 0.132-0.262 0.055-0.364-0.216 0.215-0.575-0.084-0.698 0.22-0.12-0.079-0.239-0.158-0.359-0.238l0.024 0.149c-0.12 0.005-0.24 0.010-0.36 0.013l0.066-0.154c-0.083 0.035-0.246 0.104-0.329 0.14-0.157-0.070-0.328-0.152-0.449 0.029M13.723 8.569c-0.2 0.179 0.094 0.424 0.27 0.26 0.114-0.181-0.083-0.438-0.27-0.26M10.244 9.068c-0.092 0.179 0.108 0.368 0.28 0.247 0.162-0.197-0.112-0.509-0.28-0.247M10.729 9.048c-0.24 0.16 0.214 0.478 0.278 0.184 0.168-0.106-0.24-0.416-0.278-0.184M11.212 9.047c-0.21 0.119 0.13 0.454 0.24 0.245 0.222-0.108-0.152-0.5-0.24-0.245M11.813 9.44l0.012-0.212c0.275 0.064 0.552 0.064 0.827 0.002l0.023 0.21c0.056-0.077 0.168-0.23 0.223-0.307-0.15-0.208-0.287-0.188-0.413 0.055-0.082-0.074-0.163-0.15-0.245-0.224-0.083 0.076-0.166 0.151-0.248 0.226-0.054-0.055-0.161-0.167-0.215-0.222-0.322 0.109-0.11 0.306 0.036 0.473M13.027 9.066c-0.089 0.104 0.018 0.364 0.173 0.268 0.343-0.028 0.014-0.595-0.173-0.268M13.478 9.050c-0.125 0.184 0.095 0.391 0.271 0.254 0.175-0.179-0.095-0.475-0.271-0.254M10.079 9.5c-0.166 0.106 0.022 0.382 0.179 0.258 0.164-0.112-0.016-0.391-0.179-0.258M10.435 9.587c-0.056 0.214 0.305 0.31 0.36 0.092 0.083-0.236-0.307-0.328-0.36-0.092M10.974 9.499c-0.162 0.158 0.101 0.43 0.258 0.258 0.181-0.158-0.1-0.448-0.258-0.258M11.434 9.497c-0.17 0.16 0.102 0.433 0.258 0.258 0.174-0.158-0.1-0.44-0.258-0.258M11.911 9.491c-0.182 0.122 0.030 0.414 0.2 0.274 0.188-0.12-0.028-0.421-0.2-0.274M12.36 9.488c-0.18 0.124 0.036 0.413 0.205 0.277 0.184-0.122-0.035-0.419-0.205-0.277M12.764 9.552c-0.041 0.278 0.328 0.338 0.392 0.059-0.119-0.215-0.25-0.235-0.392-0.059M13.261 9.499c-0.161 0.157 0.096 0.425 0.256 0.262 0.187-0.157-0.097-0.452-0.256-0.262M13.72 9.498c-0.166 0.157 0.1 0.431 0.258 0.259 0.179-0.157-0.098-0.445-0.258-0.259M10.138 10.045c0.061 0.067 0.184 0.2 0.245 0.266 0.107-0.088 0.22-0.182 0.176-0.34-0.137-0.15-0.286 0.025-0.421 0.073M10.837 9.902c-0.164 0.046-0.282 0.26-0.059 0.334 0.263 0.188 0.354-0.386 0.059-0.334M11.292 9.895c-0.229 0.048-0.137 0.434 0.092 0.36 0.222-0.055 0.128-0.422-0.092-0.36M13.634 9.848c-0.066 0.067-0.197 0.2-0.262 0.268 0.136 0.091 0.282 0.203 0.442 0.084-0.018-0.137-0.102-0.245-0.18-0.352M9.839 9.992c-0.061 0.199 0.005 0.264 0.2 0.196 0.061-0.199-0.006-0.264-0.2-0.196M11.576 10.085c0.114 0.216 0.26 0.228 0.439 0.036 0.167 0.188 0.313 0.178 0.443-0.032-0.125-0.211-0.272-0.227-0.443-0.047-0.18-0.182-0.326-0.169-0.439 0.043M12.54 10.009c-0.184 0.090 0.19 0.394 0.275 0.194 0.218-0.163-0.172-0.481-0.275-0.194M13.032 9.966c-0.158 0.154 0.085 0.427 0.248 0.266 0.186-0.155-0.083-0.464-0.248-0.266M10.58 10.354c-0.227 0.047-0.138 0.425 0.089 0.36 0.227-0.049 0.137-0.426-0.089-0.36M11.058 10.354c-0.228 0.053-0.127 0.431 0.097 0.359 0.224-0.056 0.125-0.43-0.097-0.359M11.468 10.38c-0.232 0.090 0.016 0.503 0.172 0.305 0.229-0.084 0.022-0.442-0.172-0.305M11.807 10.667c0.289-0.004 0.577-0.002 0.866 0.002-0.072-0.149-0.152-0.293-0.242-0.431l0.006 0.218c-0.13-0.001-0.26-0.001-0.39-0.004l-0.018-0.212c-0.077 0.14-0.151 0.282-0.222 0.426M13.34 10.357c-0.222 0.056-0.12 0.424 0.1 0.355 0.234-0.054 0.126-0.434-0.1-0.355M13.81 10.355c-0.233 0.047-0.136 0.433 0.092 0.358 0.221-0.056 0.13-0.422-0.092-0.358M12.799 10.441c-0.134 0.173 0.156 0.383 0.275 0.197 0.146-0.175-0.158-0.39-0.275-0.197M10.343 10.813c-0.28 0.102-0.001 0.564 0.17 0.313 0.194-0.098-0.018-0.343-0.17-0.313M10.734 10.862c-0.205 0.166 0.107 0.458 0.263 0.264 0.126-0.18-0.085-0.403-0.263-0.264M11.219 10.868c-0.179 0.106 0.017 0.428 0.178 0.294 0.265-0.060 0.022-0.511-0.178-0.294M11.878 11.158l0.086-0.164c0.262 0.205 0.601 0.137 0.91 0.16-0.032-0.118-0.066-0.234-0.101-0.352-0.151 0.070-0.307 0.127-0.463 0.184l0.032-0.182c-0.167 0.062-0.337 0.113-0.51 0.152l-0.040-0.229c-0.206 0.149-0.263 0.538 0.085 0.432M13.097 10.818c-0.246 0.12 0.017 0.56 0.186 0.306 0.222-0.097-0.032-0.353-0.186-0.306M13.595 10.801c-0.32 0.080-0.036 0.587 0.154 0.32 0.197-0.103-0.035-0.295-0.154-0.32z"></path>
<path fill="#ff0" d="M11.672 16.334c0.002-0.737-0.006-1.475 0.006-2.212 0.121 0.002 0.362 0.007 0.484 0.008 0 0.736 0 1.471 0 2.206-0.163-0.001-0.326-0.001-0.49-0.002z"></path>
<path fill="#ff0" d="M11.672 18.844c0.002-0.737-0.005-1.472 0.005-2.208 0.121 0.001 0.364 0.006 0.485 0.007 0 0.737 0 1.472 0 2.208-0.163-0.002-0.328-0.005-0.49-0.007z"></path>
<path fill="#000" d="M11.694 0.308c0.464-0.138 0.862 0.205 1.156 0.517 3.383 3.378 6.757 6.766 10.142 10.141 0.28 0.277 0.606 0.612 0.544 1.043-0.048 0.4-0.388 0.659-0.647 0.93-3.282 3.275-6.56 6.554-9.836 9.835-0.287 0.27-0.539 0.623-0.932 0.737-0.332 0.096-0.668-0.065-0.902-0.294-3.539-3.54-7.081-7.078-10.62-10.618-0.228-0.233-0.378-0.574-0.286-0.9 0.103-0.37 0.418-0.614 0.673-0.88 3.382-3.374 6.757-6.756 10.136-10.134 0.166-0.158 0.347-0.314 0.572-0.378M11.809 0.88c-0.281 0.192-0.498 0.461-0.743 0.695-3.301 3.306-6.608 6.608-9.91 9.914-0.113 0.125-0.251 0.239-0.307 0.403 0.012 0.149 0.132 0.252 0.224 0.358 3.326 3.311 6.64 6.637 9.961 9.954 0.244 0.234 0.461 0.499 0.731 0.706 0.155 0.16 0.34-0.030 0.456-0.134 3.536-3.542 7.081-7.079 10.618-10.622 0.235-0.178 0.091-0.433-0.090-0.582-3.498-3.505-7.004-7.004-10.504-10.508-0.118-0.098-0.268-0.287-0.437-0.182z"></path>
<path fill="#000" d="M9.016 4.664c1.932 0 3.864 0 5.796 0 0.001 2.419-0.001 4.84 0.001 7.259-0.864 0.013-1.729-0.006-2.592 0.014 0.863 0.031 1.728 0.010 2.592 0.007-0.001 2.402 0 4.804 0 7.205-1.932 0.005-3.865 0-5.797 0.004-0.004-2.401 0-4.801-0.001-7.201 0.884 0 1.77 0.005 2.656-0.010 0.004 0.629 0.002 1.258 0.001 1.888 0.163 0.001 0.326 0.002 0.491 0.004 0.002-0.647-0.007-1.292 0.007-1.938-1.050 0.049-2.102 0.029-3.154 0.034 0-2.422 0-4.843 0-7.265M9.704 5.164c-0.046 0.21-0.090 0.421-0.134 0.632l0.295-0.047-0.1 0.132c0.125-0.007 0.25-0.016 0.376-0.023l-0.029-0.172c0.060 0.050 0.179 0.151 0.239 0.202 0.016 0.394-0.541 0.13-0.788 0.212l0.038 0.198c0.169-0.001 0.422-0.15 0.529 0.056-0.026 0.064-0.078 0.192-0.104 0.256-0.155-0.073-0.314-0.136-0.474-0.194l0.076 0.289 0.228-0.017-0.055 0.196c0.128-0.079 0.257-0.16 0.395-0.226 0.168 0.079 0.155 0.239 0.084 0.378-0.226-0.085-0.466-0.062-0.697-0.017 0.067 0.197 0.070 0.395 0.007 0.594 0.186 0.032 0.373 0.065 0.56 0.091l0.019-0.216c0.062 0.106 0.342 0.466 0.031 0.431-0.242 0.006-0.485 0.020-0.724 0.071 0.061 0.041 0.181 0.125 0.241 0.167 0.146-0.025 0.412-0.15 0.418 0.11-0.113 0.214-0.443 0.059-0.643 0.15l0.37 0.138-0.103 0.090c0.127-0.010 0.256-0.020 0.384-0.030l-0.026-0.173c0.479 0.109 0.060 0.736-0.126 0.258-0.17 0.104-0.341 0.209-0.51 0.314 0.206 0.007 0.413 0.001 0.618 0.011 0.038 0.173-0.025 0.307-0.19 0.406l-0.001-0.18c-0.133-0.001-0.265-0.001-0.397 0 0.137 0.12 0.272 0.241 0.407 0.362-0.062 0.125-0.17 0.194-0.323 0.205 0.058 0.186 0.055 0.371-0.010 0.554 0.125 0.020 0.248 0.040 0.373 0.055 0.143-0.011 0.412-0.122 0.413 0.132-0.11 0.256-0.322 0.004-0.504 0.035-0.096 0.050-0.288 0.152-0.385 0.203 0.173 0.277 0.617-0.137 0.653 0.228-0.043 0.263-0.364 0.056-0.532 0.084l-0.036 0.18c0.581-0.011 1.202 0.103 1.759-0.044l0.017 0.127 0.094-0.052c0.965-0.054 1.939 0.046 2.903-0.049-0.098-0.040-0.295-0.119-0.394-0.158-0.164-0.234 0.144-0.344 0.335-0.259-0.143-0.199-0.148-0.4-0.016-0.601-0.090-0.010-0.27-0.030-0.36-0.041-0.085-0.276 0.154-0.295 0.362-0.31-0.157-0.199-0.106-0.404 0.016-0.599-0.206 0.078-0.503-0.011-0.342-0.277 0.083 0.001 0.248 0.004 0.33 0.004-0.088-0.184-0.11-0.378-0.056-0.576 0.071-0.322-0.103-0.649 0.035-0.961-0.086-0.011-0.262-0.031-0.349-0.042-0.068-0.276 0.15-0.298 0.361-0.3-0.157-0.216-0.074-0.439 0.024-0.654-0.074 0.035-0.224 0.103-0.299 0.138-0.049-0.122-0.066-0.246-0.048-0.371 0.084 0.002 0.252 0.010 0.336 0.012-0.182-0.316-0.038-0.668 0.010-1l-0.053-0.025c0.018 0.197-0.041 0.35-0.179 0.46-0.158-0.143-0.168-0.31-0.026-0.499-0.090 0.022-0.268 0.065-0.356 0.088 0.010 0.032 0.028 0.098 0.037 0.131l0.184 0.085c-0.143 0.138-0.299 0.164-0.468 0.077 0.026-0.060 0.079-0.182 0.104-0.244-0.13-0.218-0.473 0.2-0.214 0.342-0.154-0.011-0.26-0.074-0.322-0.188l0.032-0.077c0.184-0.127-0.265-0.317-0.172-0.049l-0.022 0.124-0.016 0.125c-0.305 0.158-0.416-0.239-0.116-0.383l-0.377-0.040c0.031 0.142 0.058 0.283 0.079 0.427-0.083 0.012-0.247 0.035-0.329 0.046 0.457-0.484-0.538-0.497-0.142 0.019-0.318 0-0.377-0.248-0.193-0.473l-0.316 0.014c0.020 0.072 0.060 0.216 0.080 0.287-0.133 0.409-0.553-0.106-0.19-0.292l-0.468-0.007c0.055 0.076 0.163 0.227 0.218 0.302-0.062 0.046-0.186 0.137-0.248 0.182-0.098-0.16-0.152-0.34-0.162-0.539l-0.054 0.114c-0.037 0.155-0.094 0.3-0.172 0.438-0.209-0.072-0.148-0.266-0.154-0.431-0.293-0.044-0.144 0.437-0.461 0.413 0.025-0.188 0.029-0.394-0.108-0.541M11.672 16.334c0.163 0.001 0.326 0.001 0.49 0.002 0-0.734 0-1.47 0-2.206-0.121-0.001-0.362-0.006-0.484-0.008-0.012 0.737-0.004 1.475-0.006 2.212M11.672 18.844c0.162 0.002 0.326 0.005 0.49 0.007 0-0.736 0-1.471 0-2.208-0.121-0.001-0.364-0.006-0.485-0.007-0.010 0.736-0.002 1.471-0.005 2.208z"></path>
<path fill="#000" d="M10.506 5.825c0.070-0.253 0.48 0.138 0.239 0.241-0.116 0.18-0.463-0.097-0.239-0.241z"></path>
<path fill="#000" d="M10.976 5.809c0.212-0.232 0.492 0.27 0.166 0.298-0.168 0.095-0.287-0.182-0.166-0.298z"></path>
<path fill="#000" d="M11.388 6.006c0.017-0.066 0.052-0.197 0.068-0.263 0.22 0.115 0.451 0.115 0.677 0.011l-0.067 0.176c0.137-0.042 0.274-0.088 0.408-0.139 0.133 0.060 0.277 0.091 0.416 0.137l-0.036-0.234c0.235 0.072 0.312 0.211 0.23 0.416-0.192 0.019-0.366-0.055-0.521-0.16l0.022 0.157c-0.27-0.066-0.652 0.112-0.806-0.206-0.054 0.193-0.272 0.317-0.391 0.104z"></path>
<path fill="#000" d="M13.266 5.826c0.076-0.17 0.452 0.018 0.294 0.169-0.055 0.304-0.504 0.010-0.294-0.169z"></path>
<path fill="#000" d="M13.721 5.813c0.148-0.214 0.448 0.145 0.252 0.252-0.15 0.19-0.41-0.084-0.252-0.252z"></path>
<path fill="#000" d="M10.252 6.287c0.229-0.163 0.368 0.044 0.288 0.268-0.193 0.133-0.394-0.074-0.288-0.268z"></path>
<path fill="#000" d="M10.723 6.296c0.114-0.216 0.464 0.092 0.251 0.241-0.131 0.217-0.464-0.152-0.251-0.241z"></path>
<path fill="#000" d="M11.21 6.292c0.112-0.229 0.457 0.124 0.24 0.244-0.108 0.211-0.439-0.127-0.24-0.244z"></path>
<path fill="#000" d="M11.824 6.676c-0.144-0.046-0.36-0.449-0.056-0.412 0.168 0 0.336-0.001 0.504-0.006 0.076 0.055 0.151 0.112 0.226 0.167-0.064-0.343 0.58-0.149 0.336 0.043-0.042 0.054-0.126 0.16-0.168 0.212l-0.018-0.23c-0.138 0.031-0.274 0.065-0.408 0.106-0.134-0.043-0.27-0.078-0.407-0.113l-0.008 0.233z"></path>
<path fill="#000" d="M13.032 6.311c0.031-0.199 0.449-0.030 0.294 0.166-0.067 0.253-0.457 0.049-0.294-0.166z"></path>
<path fill="#000" d="M13.476 6.287c0.173-0.181 0.472 0.074 0.274 0.252-0.174 0.173-0.384-0.071-0.274-0.252z"></path>
<path fill="#000" d="M10.492 6.743c0.157-0.194 0.438 0.1 0.258 0.258-0.158 0.169-0.419-0.098-0.258-0.258z"></path>
<path fill="#000" d="M10.975 6.74c0.158-0.19 0.438 0.103 0.257 0.26-0.16 0.168-0.421-0.102-0.257-0.26z"></path>
<path fill="#000" d="M11.431 6.74c0.155-0.186 0.433 0.094 0.263 0.254-0.155 0.178-0.431-0.091-0.263-0.254z"></path>
<path fill="#000" d="M11.832 6.726c0.271 0.012 0.542 0.012 0.814 0.002-0.030 0.103-0.062 0.206-0.094 0.311-0.2-0.079-0.424-0.098-0.612 0.024-0.037-0.112-0.073-0.224-0.108-0.337z"></path>
<path fill="#000" d="M12.769 6.793c0.139-0.176 0.266-0.156 0.383 0.061-0.043 0.283-0.454 0.214-0.383-0.061z"></path>
<path fill="#000" d="M13.26 6.744c0.155-0.196 0.443 0.097 0.26 0.257-0.157 0.167-0.419-0.096-0.26-0.257z"></path>
<path fill="#000" d="M13.72 6.74c0.156-0.186 0.436 0.098 0.26 0.258-0.157 0.173-0.427-0.097-0.26-0.258z"></path>
<path fill="#000" d="M10.848 7.148c0.251-0.024 0.234 0.396-0.006 0.352-0.234 0.024-0.218-0.37 0.006-0.352z"></path>
<path fill="#000" d="M11.318 7.145c0.1 0.012 0.318 0.158 0.163 0.256-0.156 0.348-0.542-0.205-0.163-0.256z"></path>
<path fill="#000" d="M13.598 7.158c0.23-0.073 0.298 0.361 0.040 0.344-0.229 0.036-0.271-0.335-0.040-0.344z"></path>
<path fill="#000" d="M9.854 7.214c0.161-0.126 0.354 0.151 0.178 0.256-0.157 0.119-0.352-0.151-0.178-0.256z"></path>
<path fill="#000" d="M10.26 7.213c0.156-0.194 0.449 0.096 0.262 0.256-0.157 0.163-0.419-0.095-0.262-0.256z"></path>
<path fill="#000" d="M11.576 7.324c0.114-0.192 0.26-0.209 0.439-0.052 0.182-0.154 0.328-0.134 0.436 0.058-0.125 0.21-0.27 0.22-0.436 0.032-0.179 0.191-0.325 0.178-0.439-0.038z"></path>
<path fill="#000" d="M12.534 7.255c0.104-0.28 0.499 0.024 0.28 0.191-0.072 0.191-0.462-0.104-0.28-0.191z"></path>
<path fill="#000" d="M13.032 7.212c0.16-0.194 0.449 0.108 0.253 0.262-0.161 0.157-0.412-0.104-0.253-0.262z"></path>
<path fill="#000" d="M10.576 7.597c0.222-0.072 0.325 0.302 0.098 0.358-0.224 0.073-0.324-0.301-0.098-0.358z"></path>
<path fill="#000" d="M11.057 7.596c0.222-0.071 0.324 0.305 0.097 0.358-0.226 0.072-0.323-0.304-0.097-0.358z"></path>
<path fill="#000" d="M11.524 7.595c0.22-0.060 0.311 0.302 0.091 0.358-0.232 0.078-0.329-0.313-0.091-0.358z"></path>
<path fill="#000" d="M11.915 7.631c0.173-0.132 0.382 0.164 0.198 0.283-0.175 0.136-0.385-0.166-0.198-0.283z"></path>
<path fill="#000" d="M12.372 7.643c0.155-0.127 0.352 0.142 0.185 0.252-0.158 0.125-0.36-0.142-0.185-0.252z"></path>
<path fill="#000" d="M13.34 7.6c0.223-0.080 0.335 0.298 0.103 0.354-0.222 0.073-0.325-0.295-0.103-0.354z"></path>
<path fill="#000" d="M13.813 7.595c0.222-0.060 0.31 0.308 0.086 0.359-0.232 0.073-0.32-0.314-0.086-0.359z"></path>
<path fill="#000" d="M12.799 7.686c0.113-0.197 0.42 0.016 0.277 0.191-0.116 0.188-0.412-0.017-0.277-0.191z"></path>
<path fill="#000" d="M10.338 8.057c0.245-0.052 0.32 0.323 0.085 0.394-0.217-0.030-0.269-0.278-0.085-0.394z"></path>
<path fill="#000" d="M10.756 8.108c0.197-0.205 0.42 0.247 0.157 0.298-0.168 0.109-0.396-0.205-0.157-0.298z"></path>
<path fill="#000" d="M11.23 8.112c0.188-0.205 0.432 0.235 0.169 0.289-0.155 0.182-0.373-0.269-0.169-0.289z"></path>
<path fill="#000" d="M11.879 8.414c-0.222-0.001-0.337-0.152-0.194-0.34 0.22 0.094 0.46 0.083 0.676-0.014l-0.060 0.164c0.16-0.054 0.319-0.11 0.475-0.176 0.034 0.115 0.066 0.232 0.098 0.347-0.262-0.026-0.538 0.019-0.788-0.073-0.052 0.023-0.155 0.070-0.206 0.092z"></path>
<path fill="#000" d="M13.091 8.058c0.146-0.034 0.424 0.204 0.193 0.306-0.172 0.252-0.427-0.176-0.193-0.306z"></path>
<path fill="#000" d="M13.579 8.066c0.224-0.068 0.326 0.305 0.092 0.353-0.227 0.072-0.324-0.306-0.092-0.353z"></path>
<path fill="#000" d="M13.967 8.096c0.176-0.139 0.359 0.172 0.192 0.29-0.179 0.145-0.37-0.174-0.192-0.29z"></path>
<path fill="#000" d="M10.494 8.591c0.204-0.276 0.493 0.246 0.168 0.28-0.137 0.097-0.316-0.217-0.168-0.28z"></path>
<path fill="#000" d="M10.98 8.579c0.197-0.271 0.473 0.274 0.167 0.289-0.164 0.080-0.306-0.172-0.167-0.289z"></path>
<path fill="#000" d="M11.346 8.651c0.121-0.181 0.292-0.098 0.449-0.029 0.083-0.036 0.246-0.106 0.329-0.14l-0.066 0.154c0.12-0.004 0.24-0.008 0.36-0.013l-0.024-0.149c0.12 0.079 0.239 0.158 0.359 0.238 0.124-0.304 0.482-0.005 0.698-0.22 0.077 0.102 0.228 0.451-0.055 0.364-0.282-0.077-0.59 0.064-0.839-0.133l0.032 0.146c-0.263-0.088-0.689 0.145-0.808-0.222-0.044 0.073-0.133 0.222-0.179 0.295-0.107-0.078-0.193-0.175-0.257-0.29z"></path>
<path fill="#000" d="M13.723 8.569c0.187-0.178 0.384 0.079 0.27 0.26-0.176 0.163-0.47-0.082-0.27-0.26z"></path>
<path fill="#000" d="M10.244 9.068c0.168-0.262 0.442 0.050 0.28 0.247-0.172 0.121-0.372-0.068-0.28-0.247z"></path>
<path fill="#000" d="M10.729 9.048c0.038-0.233 0.446 0.078 0.278 0.184-0.065 0.294-0.518-0.024-0.278-0.184z"></path>
<path fill="#000" d="M11.212 9.047c0.088-0.256 0.462 0.137 0.24 0.245-0.11 0.209-0.45-0.126-0.24-0.245z"></path>
<path fill="#000" d="M11.813 9.44c-0.146-0.167-0.358-0.364-0.036-0.473 0.054 0.055 0.161 0.167 0.215 0.222 0.083-0.074 0.166-0.15 0.248-0.226 0.082 0.074 0.163 0.15 0.245 0.224 0.126-0.244 0.263-0.263 0.413-0.055-0.055 0.077-0.167 0.23-0.223 0.307l-0.023-0.21c-0.275 0.061-0.552 0.061-0.827-0.002l-0.012 0.212z"></path>
<path fill="#000" d="M13.027 9.066c0.187-0.328 0.516 0.24 0.173 0.268-0.155 0.096-0.262-0.163-0.173-0.268z"></path>
<path fill="#000" d="M13.478 9.050c0.176-0.221 0.446 0.076 0.271 0.254-0.176 0.137-0.396-0.071-0.271-0.254z"></path>
<path fill="#000" d="M10.079 9.5c0.163-0.133 0.343 0.146 0.179 0.258-0.157 0.124-0.344-0.152-0.179-0.258z"></path>
<path fill="#000" d="M10.435 9.587c0.053-0.235 0.443-0.144 0.36 0.092-0.055 0.217-0.416 0.121-0.36-0.092z"></path>
<path fill="#000" d="M10.974 9.499c0.158-0.19 0.439 0.1 0.258 0.258-0.157 0.172-0.42-0.1-0.258-0.258z"></path>
<path fill="#000" d="M11.434 9.497c0.158-0.182 0.432 0.1 0.258 0.258-0.156 0.175-0.428-0.098-0.258-0.258z"></path>
<path fill="#000" d="M11.911 9.491c0.173-0.148 0.389 0.154 0.2 0.274-0.17 0.14-0.383-0.151-0.2-0.274z"></path>
<path fill="#000" d="M12.36 9.488c0.17-0.142 0.389 0.155 0.205 0.277-0.169 0.136-0.385-0.154-0.205-0.277z"></path>
<path fill="#000" d="M12.764 9.552c0.143-0.176 0.274-0.156 0.392 0.059-0.065 0.28-0.433 0.22-0.392-0.059z"></path>
<path fill="#000" d="M13.261 9.499c0.158-0.191 0.443 0.104 0.256 0.262-0.16 0.163-0.416-0.104-0.256-0.262z"></path>
<path fill="#000" d="M13.72 9.498c0.16-0.186 0.437 0.102 0.258 0.259-0.158 0.172-0.424-0.102-0.258-0.259z"></path>
<path fill="#000" d="M10.138 10.045c0.136-0.048 0.284-0.223 0.421-0.073 0.043 0.157-0.070 0.252-0.176 0.34-0.061-0.066-0.184-0.199-0.245-0.266z"></path>
<path fill="#000" d="M10.837 9.902c0.295-0.053 0.204 0.522-0.059 0.334-0.223-0.073-0.106-0.288 0.059-0.334z"></path>
<path fill="#000" d="M11.292 9.895c0.221-0.062 0.314 0.305 0.092 0.36-0.229 0.074-0.322-0.312-0.092-0.36z"></path>
<path fill="#000" d="M13.634 9.848c0.078 0.107 0.162 0.215 0.18 0.352-0.16 0.119-0.306 0.007-0.442-0.084 0.065-0.067 0.196-0.2 0.262-0.268z"></path>
<path fill="#000" d="M9.839 9.992c0.194-0.068 0.262-0.004 0.2 0.196-0.196 0.068-0.262 0.004-0.2-0.196z"></path>
<path fill="#000" d="M11.576 10.085c0.113-0.212 0.259-0.226 0.439-0.043 0.17-0.18 0.318-0.164 0.443 0.047-0.13 0.21-0.276 0.221-0.443 0.032-0.179 0.192-0.325 0.18-0.439-0.036z"></path>
<path fill="#000" d="M12.54 10.009c0.103-0.287 0.493 0.031 0.275 0.194-0.085 0.199-0.458-0.104-0.275-0.194z"></path>
<path fill="#000" d="M13.032 9.966c0.166-0.198 0.434 0.112 0.248 0.266-0.163 0.161-0.407-0.113-0.248-0.266z"></path>
<path fill="#000" d="M10.58 10.354c0.226-0.066 0.316 0.311 0.089 0.36-0.227 0.065-0.316-0.313-0.089-0.36z"></path>
<path fill="#000" d="M11.058 10.354c0.222-0.071 0.322 0.302 0.097 0.359-0.224 0.072-0.325-0.306-0.097-0.359z"></path>
<path fill="#000" d="M11.468 10.38c0.193-0.137 0.401 0.221 0.172 0.305-0.156 0.198-0.403-0.215-0.172-0.305z"></path>
<path fill="#000" d="M11.807 10.667c0.071-0.144 0.145-0.286 0.222-0.426l0.018 0.212c0.13 0.002 0.26 0.002 0.39 0.004l-0.006-0.218c0.090 0.138 0.17 0.282 0.242 0.431-0.289-0.005-0.577-0.006-0.866-0.002z"></path>
<path fill="#000" d="M13.34 10.357c0.226-0.079 0.334 0.301 0.1 0.355-0.22 0.068-0.322-0.299-0.1-0.355z"></path>
<path fill="#000" d="M13.81 10.355c0.222-0.065 0.313 0.301 0.092 0.358-0.228 0.076-0.325-0.311-0.092-0.358z"></path>
<path fill="#000" d="M12.799 10.441c0.116-0.193 0.421 0.022 0.275 0.197-0.119 0.186-0.409-0.024-0.275-0.197z"></path>
<path fill="#000" d="M10.343 10.813c0.152-0.030 0.365 0.215 0.17 0.313-0.172 0.251-0.45-0.211-0.17-0.313z"></path>
<path fill="#000" d="M10.734 10.862c0.178-0.139 0.389 0.084 0.263 0.264-0.156 0.194-0.468-0.098-0.263-0.264z"></path>
<path fill="#000" d="M11.219 10.868c0.199-0.217 0.443 0.234 0.178 0.294-0.161 0.134-0.356-0.188-0.178-0.294z"></path>
<path fill="#000" d="M11.878 11.158c-0.348 0.106-0.292-0.283-0.085-0.432l0.040 0.229c0.173-0.040 0.343-0.090 0.51-0.152l-0.032 0.182c0.156-0.056 0.312-0.114 0.463-0.184 0.035 0.118 0.068 0.234 0.101 0.352-0.308-0.023-0.648 0.046-0.91-0.16l-0.086 0.164z"></path>
<path fill="#000" d="M13.097 10.818c0.154-0.047 0.408 0.209 0.186 0.306-0.169 0.254-0.432-0.186-0.186-0.306z"></path>
<path fill="#000" d="M13.595 10.801c0.119 0.025 0.35 0.217 0.154 0.32-0.19 0.266-0.474-0.24-0.154-0.32z"></path>
</svg>
