<?xml version="1.0" encoding="utf-8"?>
<!-- Generated by IcoMoon.io -->
<!DOCTYPE svg PUBLIC "-//W3C//DTD SVG 1.1//EN" "http://www.w3.org/Graphics/SVG/1.1/DTD/svg11.dtd">
<svg version="1.1" xmlns="http://www.w3.org/2000/svg" xmlns:xlink="http://www.w3.org/1999/xlink" width="24" height="24" viewBox="0 0 24 24">
<path fill="#231f20" d="M11.438 0.274c0.408-0.215 0.926-0.080 1.223 0.258 3.586 3.575 7.164 7.158 10.742 10.741 0.421 0.372 0.448 1.086 0.026 1.468-3.625 3.623-7.247 7.249-10.876 10.867-0.384 0.38-1.058 0.341-1.415-0.059-3.455-3.468-6.926-6.92-10.386-10.385-0.294-0.306-0.7-0.588-0.726-1.052-0.042-0.343 0.139-0.664 0.38-0.894 3.521-3.518 7.039-7.042 10.561-10.559 0.146-0.139 0.287-0.293 0.469-0.385M11.67 0.853c-0.187 0.137-0.346 0.31-0.508 0.473-3.436 3.444-6.883 6.876-10.315 10.322-0.208 0.154-0.301 0.473-0.083 0.66 3.599 3.607 7.212 7.202 10.813 10.808 0.184 0.23 0.512 0.155 0.672-0.062 3.577-3.586 7.169-7.159 10.745-10.745 0.218-0.187 0.13-0.505-0.078-0.659-3.534-3.547-7.080-7.081-10.618-10.625-0.155-0.168-0.414-0.353-0.629-0.173z"></path>
<path fill="#231f20" d="M11.575 5.921c0.656-0.001 1.314 0.001 1.97-0.001 0.005 4.068 0.001 8.137 0.001 12.206-0.656 0.001-1.314 0-1.97 0-0.001-1.705-0.001-3.412 0-5.117-1.706-0.004-3.413 0-5.118-0.001-0.001-0.656-0.001-1.313-0.001-1.969 1.706-0.001 3.413 0 5.118-0.001 0-1.705 0.001-3.41 0-5.117z"></path>
<path fill="#fd0" d="M11.67 0.853c0.215-0.18 0.474 0.005 0.629 0.173 3.538 3.544 7.084 7.078 10.618 10.625 0.208 0.154 0.296 0.472 0.078 0.659-3.576 3.586-7.168 7.159-10.745 10.745-0.16 0.217-0.488 0.293-0.672 0.062-3.601-3.606-7.214-7.201-10.813-10.808-0.218-0.187-0.125-0.506 0.083-0.66 3.432-3.446 6.88-6.878 10.315-10.322 0.162-0.163 0.32-0.336 0.508-0.473M11.575 5.921c0.001 1.706 0 3.412 0 5.117-1.705 0.001-3.412 0-5.118 0.001 0 0.656 0 1.313 0.001 1.969 1.705 0.001 3.412-0.002 5.118 0.001-0.001 1.705-0.001 3.412 0 5.117 0.656 0 1.314 0.001 1.97 0 0-4.069 0.004-8.138-0.001-12.206-0.656 0.002-1.314 0-1.97 0.001z"></path>
</svg>
