<!-- Generated by IcoMoon.io -->
<svg version="1.1" xmlns="http://www.w3.org/2000/svg" width="24" height="24" viewBox="0 0 24 24">
<title>warning--length-restriction--g2</title>
<path fill="#fde012" d="M11.746 0h0.509c0.27 0.101 0.528 0.241 0.731 0.449 3.278 3.283 6.562 6.563 9.842 9.845 0.41 0.418 0.865 0.803 1.172 1.309v0.83c-0.458 0.665-1.104 1.169-1.651 1.756-3.31 3.257-6.517 6.624-9.89 9.811h-0.844c-0.43-0.272-0.763-0.66-1.121-1.014-3.16-3.16-6.319-6.322-9.48-9.48-0.368-0.374-0.794-0.718-1.014-1.208v-0.53c0.115-0.269 0.268-0.522 0.475-0.73 3.521-3.521 7.043-7.042 10.561-10.565 0.202-0.204 0.45-0.353 0.709-0.473M11.922 0.29c-0.271 0.028-0.481 0.22-0.67 0.401-3.558 3.563-7.122 7.12-10.679 10.685-0.414 0.341-0.359 1 0.041 1.328 3.582 3.578 7.158 7.164 10.744 10.74 0.367 0.396 1.016 0.362 1.369-0.035 3.581-3.582 7.165-7.16 10.742-10.746 0.389-0.341 0.388-0.989-0.020-1.314-3.558-3.562-7.12-7.121-10.679-10.681-0.221-0.226-0.516-0.431-0.848-0.378z"></path>
<path fill="#fde012" d="M11.926 0.882c0.212-0.089 0.354 0.138 0.499 0.251 3.52 3.523 7.046 7.037 10.561 10.564 0.253 0.187 0.184 0.512-0.053 0.674-3.55 3.535-7.082 7.086-10.63 10.622-0.155 0.218-0.443 0.18-0.59-0.024-3.56-3.564-7.129-7.121-10.684-10.69-0.304-0.234-0.025-0.569 0.186-0.746 3.581-3.538 7.091-7.158 10.71-10.651M6.9 12.004c0.26 0.002 0.521 0.004 0.781 0.004 0.090-0.479 0.398-0.96 0.923-1.015 0.617-0.104 1.129 0.426 1.204 1.009 1.735 0.014 3.47 0.006 5.206 0.004 0.086-0.556 0.535-1.081 1.14-1.021 0.556 0.024 0.9 0.522 0.992 1.025 0.271-0.001 0.542-0.004 0.814-0.010-0.001-0.142-0.004-0.283-0.005-0.425-0.182-0.004-0.365-0.008-0.547-0.012 0.001-0.478 0-0.956-0.005-1.434-0.517 0-1.036 0-1.554-0.001-0.175-0.52-0.344-1.040-0.523-1.558-0.527-0.001-1.054-0.001-1.58-0.001-0.005-0.352-0.004-0.703-0.007-1.054-2.276-0.010-4.552 0.020-6.828 0.012-0.023 1.493-0.004 2.986-0.010 4.477M8.551 11.185c-0.715 0.11-0.883 1.178-0.278 1.537 0.493 0.374 1.276 0.001 1.332-0.602 0.106-0.574-0.508-1.092-1.054-0.935M15.872 11.189c-0.674 0.113-0.892 1.079-0.346 1.48 0.48 0.449 1.351 0.097 1.41-0.548 0.108-0.577-0.516-1.098-1.064-0.931M8.908 14.767c0.076 0.044 0.229 0.134 0.305 0.18-0.006 0.702-0.006 1.405-0.001 2.108 0.107 0 0.322 0 0.428 0 0.002-0.894 0.006-1.788-0.002-2.681-0.296 0.007-0.584 0.116-0.73 0.392M10.727 14.458c-0.697 0.442-0.634 1.496-0.365 2.171 0.38 0.797 1.672 0.443 1.643-0.424 0.246-0.812-0.2-2.228-1.278-1.747M6.932 15.731c0.438 0.444 0.876 0.886 1.322 1.321 0.001-0.36 0.001-0.72 0.001-1.080 0.109-0.006 0.328-0.019 0.437-0.025-0.001-0.146-0.002-0.293-0.004-0.439-0.108-0.006-0.324-0.017-0.432-0.023-0.001-0.359-0.001-0.716-0.004-1.075-0.444 0.438-0.886 0.876-1.321 1.321M16.11 14.411c-0.002 0.358-0.001 0.715-0.005 1.074-0.154 0.007-0.308 0.016-0.462 0.025-0.001 0.144-0.001 0.289-0.002 0.434 0.155 0.010 0.311 0.018 0.467 0.028 0.001 0.36 0 0.719 0.002 1.079 0.446-0.433 0.882-0.878 1.321-1.319-0.434-0.446-0.877-0.884-1.321-1.321M12.79 15.307c-0.004 0.583-0.004 1.166 0.001 1.748 0.107 0 0.323 0 0.43 0 0.086-0.421-0.216-1.080 0.233-1.326 0.575 0.109 0.221 0.913 0.317 1.326 0.108 0 0.324 0 0.432 0 0.079-0.413-0.256-1.334 0.404-1.314 0.328 0.347 0.118 0.884 0.175 1.314 0.143 0 0.286 0 0.428 0-0.030-0.503 0.108-1.060-0.139-1.522-0.232-0.359-0.695-0.311-1.002-0.086-0.384-0.259-0.848-0.151-1.279-0.14z"></path>
<path fill="#fde012" d="M13.742 10.16c-0.004-0.443-0.004-0.886 0.002-1.327 0.46-0.002 0.919-0.002 1.379 0.001 0.15 0.43 0.295 0.863 0.433 1.298-0.605 0.010-1.21 0.024-1.814 0.028z"></path>
<path fill="#fde012" d="M11.076 14.79c0.87 0.084 0.77 2.14-0.193 1.814-0.386-0.454-0.466-1.568 0.193-1.814z"></path>
<path fill="#000" d="M11.922 0.29c0.332-0.053 0.628 0.152 0.848 0.378 3.559 3.56 7.121 7.12 10.679 10.681 0.408 0.325 0.409 0.973 0.020 1.314-3.577 3.586-7.162 7.164-10.742 10.746-0.353 0.397-1.002 0.431-1.369 0.035-3.586-3.576-7.162-7.162-10.744-10.74-0.4-0.329-0.455-0.988-0.041-1.328 3.557-3.565 7.121-7.122 10.679-10.685 0.188-0.181 0.398-0.373 0.67-0.401M11.926 0.882c-3.619 3.493-7.129 7.114-10.71 10.651-0.211 0.178-0.49 0.512-0.186 0.746 3.554 3.569 7.123 7.126 10.684 10.69 0.148 0.204 0.436 0.242 0.59 0.024 3.547-3.536 7.080-7.087 10.63-10.622 0.236-0.162 0.306-0.487 0.053-0.674-3.515-3.527-7.042-7.040-10.561-10.564-0.145-0.113-0.287-0.34-0.499-0.251z"></path>
<path fill="#000" d="M6.9 12.004c0.006-1.492-0.013-2.984 0.010-4.477 2.276 0.008 4.552-0.022 6.828-0.012 0.004 0.35 0.002 0.702 0.007 1.054 0.527 0 1.054 0 1.58 0.001 0.179 0.517 0.348 1.038 0.523 1.558 0.518 0.001 1.037 0.001 1.554 0.001 0.005 0.478 0.006 0.956 0.005 1.434 0.182 0.004 0.365 0.008 0.547 0.012 0.001 0.142 0.004 0.283 0.005 0.425-0.271 0.006-0.542 0.008-0.814 0.010-0.092-0.503-0.437-1.001-0.992-1.025-0.605-0.060-1.054 0.466-1.14 1.021-1.735 0.002-3.47 0.011-5.206-0.004-0.074-0.583-0.587-1.114-1.204-1.009-0.524 0.055-0.833 0.536-0.923 1.015-0.26 0-0.521-0.001-0.781-0.004M13.742 10.16c0.605-0.004 1.21-0.018 1.814-0.028-0.138-0.436-0.283-0.869-0.433-1.298-0.46-0.004-0.919-0.004-1.379-0.001-0.006 0.442-0.006 0.884-0.002 1.327z"></path>
<path fill="#000" d="M8.551 11.185c0.546-0.157 1.159 0.361 1.054 0.935-0.056 0.604-0.839 0.977-1.332 0.602-0.605-0.359-0.437-1.427 0.278-1.537z"></path>
<path fill="#000" d="M15.872 11.189c0.548-0.167 1.172 0.354 1.064 0.931-0.059 0.646-0.93 0.997-1.41 0.548-0.546-0.401-0.329-1.367 0.346-1.48z"></path>
<path fill="#000" d="M8.908 14.767c0.145-0.276 0.433-0.385 0.73-0.392 0.008 0.893 0.005 1.787 0.002 2.681-0.107 0-0.322 0-0.428 0-0.005-0.703-0.005-1.406 0.001-2.108-0.076-0.046-0.229-0.136-0.305-0.18z"></path>
<path fill="#000" d="M10.727 14.458c1.078-0.481 1.524 0.935 1.278 1.747 0.029 0.866-1.262 1.22-1.643 0.424-0.269-0.674-0.332-1.729 0.365-2.171M11.076 14.79c-0.659 0.246-0.58 1.361-0.193 1.814 0.964 0.325 1.063-1.73 0.193-1.814z"></path>
<path fill="#000" d="M6.932 15.731c0.436-0.445 0.877-0.883 1.321-1.321 0.002 0.359 0.002 0.716 0.004 1.075 0.108 0.006 0.324 0.017 0.432 0.023 0.001 0.146 0.002 0.293 0.004 0.439-0.109 0.006-0.328 0.019-0.437 0.025 0 0.36 0 0.72-0.001 1.080-0.446-0.436-0.884-0.877-1.322-1.321z"></path>
<path fill="#000" d="M16.11 14.411c0.444 0.437 0.887 0.875 1.321 1.321-0.439 0.44-0.875 0.886-1.321 1.319-0.002-0.36-0.001-0.719-0.002-1.079-0.156-0.010-0.312-0.018-0.467-0.028 0.001-0.145 0.001-0.29 0.002-0.434 0.154-0.010 0.308-0.018 0.462-0.025 0.004-0.359 0.002-0.716 0.005-1.074z"></path>
<path fill="#000" d="M12.79 15.307c0.431-0.011 0.895-0.119 1.279 0.14 0.307-0.224 0.77-0.272 1.002 0.086 0.247 0.462 0.109 1.019 0.139 1.522-0.143 0-0.286 0-0.428 0-0.058-0.43 0.152-0.967-0.175-1.314-0.66-0.020-0.325 0.901-0.404 1.314-0.108 0-0.324 0-0.432 0-0.096-0.413 0.258-1.217-0.317-1.326-0.449 0.246-0.146 0.905-0.233 1.326-0.107 0-0.323 0-0.43 0-0.005-0.582-0.005-1.165-0.001-1.748z"></path>
</svg>
