<svg xmlns="http://www.w3.org/2000/svg" width="24" height="24">
    <path fill="#c6a519" opacity=".78" d="M11.8 0h.448c.505.271.874.72 1.277 1.116l9.419 9.42c.366.368.757.719 1.057 1.146v.685c-3.25 3.42-6.665 6.691-9.979 10.054-.546.524-1.045 1.099-1.633 1.579h-.706c-3.39-3.216-6.628-6.601-9.958-9.884-.574-.611-1.241-1.14-1.724-1.83v-.472c.22-.455.619-.775.965-1.129l9.66-9.66c.37-.365.709-.776 1.175-1.025zm-.116.275C7.934 3.88 4.311 7.63.607 11.287c-.383.289-.594.889-.193 1.258 3.678 3.682 7.358 7.362 11.038 11.045.282.332.823.36 1.114.022 3.68-3.683 7.361-7.367 11.044-11.048.347-.287.316-.826-.016-1.112C19.96 7.804 16.311 4.17 12.674.525c-.239-.274-.648-.449-.989-.248z"/>
    <path d="M11.684.275c.341-.2.75-.025.989.248 3.637 3.646 7.286 7.279 10.92 10.927.331.287.362.826.016 1.112-3.683 3.682-7.363 7.366-11.044 11.048-.29.338-.832.311-1.114-.022-3.679-3.683-7.36-7.363-11.038-11.045-.401-.368-.19-.968.193-1.258C4.31 7.627 7.933 3.877 11.683.273zm.34.253c-.184-.001-.308.154-.437.262C7.969 4.412 4.345 8.027.729 11.651c-.239.176-.271.533-.022.716 3.662 3.661 7.322 7.325 10.987 10.982.184.245.524.196.696-.035L23.315 12.39c.227-.17.277-.511.04-.697C19.744 8.061 16.111 4.45 12.495.822c-.139-.119-.272-.295-.472-.295z"/>
    <path d="M8.328 5.53c1.195-1.168 2.464-2.258 3.692-3.391a344.911 344.911 0 0 1 3.524 3.205c.181.114.156.392-.06.452-.913-.178-1.799-.475-2.704-.688-.017.679-.008 1.357-.011 2.035-.496.013-.991.01-1.487.01-.016-.682-.004-1.363-.013-2.045-.919.208-1.814.53-2.746.684a60.036 60.036 0 0 1-.197-.263zM8.677 9.593c-.05-.569.473-1.068 1.032-1.045 1.202-.01 2.406-.002 3.608 0-.016.343-.041.686-.089 1.026.061.091.122.182.186.272-.006.544-.004 1.087.002 1.632.556.004 1.111.004 1.667 0-.002-.541-.01-1.084.034-1.624.019-.247.066-.497.209-.704.138 1.908.028 3.832.059 5.746-2.236-.008-4.471.016-6.707-.013-.002-1.763 0-3.527-.001-5.29zm.961-.807l-.001.026a.848.848 0 0 0-.7.734c.47.037.943.061 1.415.024a94.25 94.25 0 0 0 0-.752l-.714-.032zm-.619 1.071c-.002.544-.002 1.087.001 1.631.526.001 1.052 0 1.578.002a46.78 46.78 0 0 0 .006-1.633c-.528-.002-1.057-.002-1.585 0zm1.897.001c-.006.542-.007 1.086.001 1.63.74 0 1.481.004 2.221-.002l.001-1.626c-.742-.007-1.483-.004-2.224-.001zm-1.93 4.285v.394a.618.618 0 0 0 .515 0l-.001-.396a.682.682 0 0 0-.514.002zm5.55.031c-.06.302.155.51.456.452.228-.342-.116-.686-.456-.452zM6.642 10.722c.472-.232.866.521.398.769-.5.337-.944-.551-.398-.769zM16.72 10.717c.467-.224.864.523.4.772-.504.343-.959-.552-.4-.772zM6.16 12.28c.167-.511.664-.575 1.134-.516.378.402.538 1.048 1.084 1.259v.616c-.344.046-.695.151-1.038.044-.506.878-.97 1.78-1.483 2.653-.152-.038-.354-.054-.359-.258.241-.643.672-1.201.905-1.847.042-.538-.001-1.078.018-1.616-.304.396-.62.924-1.17.962.048-.551.745-.76.91-1.297zm1.376.688c.104-.14-.034-.337-.152-.421-.2.056-.071.527.152.421z"/>
    <path d="M16.447 11.731c1.086-.332 1.146 1.06 1.9 1.488-.198.539-.782-.317-1.015-.524-.006.766.506 1.39.718 2.099l-.16.158c.112.424.925 1.295.132 1.385-.257-.487-.476-.992-.726-1.483l-.456.032c-.21.49-.415.982-.655 1.458-.774-.106.023-.974.128-1.402-.474-.323.16-1.068.172-1.566-.271.024-.541-.011-.81-.05l.001-.599c.072-.028.214-.083.284-.112.156-.299.319-.593.487-.884zM6.792 14.868c.167-.323.342-.641.53-.95-.21.85.45 1.416.851 2.063.156.176-.108.344-.253.395-.403-.482-.752-1.006-1.128-1.507z"/>
    <path d="M8.668 14.977c2.237.019 4.475-.001 6.713.01v.754l-.727.006a120.7 120.7 0 0 0 0 .851c1.099.008 2.197-.005 3.296.007l.002.278c-3.865.013-7.73 0-11.596.006-.229.055-.346-.102-.296-.318 1.124-.011 2.249.007 3.373-.01v-.821l-.766-.01v-.754zm1.498.766c-.002.286-.002.571-.001.858 1.247.005 2.492.005 3.739 0l-.001-.859c-1.246-.001-2.491-.001-3.737.001z"/>
    <path fill="#ffd520" d="M12.024.528c.199 0 .332.176.472.295 3.616 3.628 7.249 7.238 10.86 10.871.238.186.187.527-.04.697L12.391 23.315c-.172.23-.512.28-.696.035C8.03 19.692 4.37 16.029.708 12.368c-.25-.184-.217-.54.022-.716C4.346 8.028 7.97 4.412 11.588.791c.128-.108.253-.263.437-.262zM8.328 5.53l.197.263c.931-.154 1.826-.476 2.746-.684.01.682-.002 1.363.013 2.045.496 0 .991.004 1.487-.01.002-.678-.006-1.356.011-2.035.905.212 1.79.51 2.704.688.216-.06.241-.338.06-.452-1.165-1.079-2.345-2.142-3.524-3.205-1.229 1.133-2.497 2.224-3.692 3.391zm4.99 3.018c-1.202-.002-2.406-.01-3.608 0-.559-.023-1.082.476-1.032 1.045.001 1.763-.001 3.527.001 5.29 2.236.029 4.471.005 6.707.013-.031-1.914.079-3.838-.059-5.746l.056-.1c-.068-.199-.139-.397-.208-.596a1.605 1.605 0 0 1-.692-.311c-.388.142-.82.157-1.165.404zm-6.676 2.174c-.546.218-.102 1.106.398.769.468-.248.073-1.001-.398-.769zm10.078-.005c-.559.22-.104 1.115.4.772.464-.248.067-.996-.4-.772zM6.16 12.28c-.164.538-.862.746-.91 1.297.55-.038.866-.566 1.17-.962-.019.539.024 1.079-.018 1.616-.233.646-.664 1.204-.905 1.847.005.204.206.22.359.258.514-.874.977-1.775 1.483-2.653.343.107.694.001 1.038-.044v-.616c-.546-.211-.706-.857-1.084-1.259-.47-.059-.967.005-1.134.516zm10.287-.549a25.33 25.33 0 0 0-.487.884 23.95 23.95 0 0 1-.284.112l-.001.599c.269.04.539.074.81.05-.012.498-.646 1.243-.172 1.566-.106.427-.902 1.296-.128 1.402.24-.476.445-.968.655-1.458l.456-.032c.25.491.469.996.726 1.483.793-.09-.02-.961-.132-1.385l.16-.158c-.211-.709-.724-1.333-.718-2.099.233.208.817 1.063 1.015.524-.754-.428-.814-1.82-1.9-1.488zm-9.655 3.137c.376.502.725 1.025 1.128 1.507.145-.05.409-.218.253-.395-.401-.647-1.061-1.213-.851-2.063-.188.31-.364.628-.53.95zm1.876.109v.754l.766.01v.821c-1.124.017-2.249-.001-3.373.01-.049.216.067.373.296.318 3.865-.006 7.73.007 11.596-.006l-.002-.278c-1.099-.012-2.197.001-3.296-.007a120.7 120.7 0 0 1 0-.851l.727-.006v-.754c-2.238-.011-4.476.01-6.713-.01z"/>
    <path fill="#ffd520" d="M8.938 9.547a.846.846 0 0 1 .7-.734c-.007.234-.014.468-.019.703-.227.011-.454.022-.68.031zM10.036 8.882c.079-.017.238-.048.317-.064.001.251.001.502 0 .752l-.311-.078c0-.204-.002-.408-.006-.611zM9.019 9.857c.528-.002 1.057-.002 1.585 0 .005.545.008 1.09-.006 1.633-.526-.002-1.052-.001-1.578-.002-.004-.544-.004-1.087-.001-1.631zM10.916 9.858c.74-.002 1.482-.006 2.224.001l-.001 1.626c-.74.006-1.481.002-2.221.002a63.265 63.265 0 0 1-.001-1.63zM13.415 9.846c.494.379 1.182.283 1.703.008-.043.54-.036 1.082-.034 1.624-.556.004-1.111.004-1.667 0a73.994 73.994 0 0 1-.002-1.632zM7.536 12.968c-.223.106-.353-.365-.152-.421.119.084.257.281.152.421zM10.166 15.743c1.246-.002 2.491-.002 3.737-.001l.001.859c-1.247.005-2.492.005-3.739 0-.001-.287-.001-.572.001-.858z"/>
    <path fill="#c0111e" d="M13.318 8.548c.346-.247.778-.263 1.165-.404.203.158.439.262.692.311.068.199.139.397.208.596l-.056.1c-.143.208-.19.457-.209.704-.521.275-1.208.371-1.703-.008-.064-.09-.125-.181-.186-.272.048-.34.073-.683.089-1.026zM14.536 14.174c.34-.234.684.11.456.452-.301.058-.516-.15-.456-.452z"/>
    <path fill="#a64d17" d="M9.638 8.786l.714.032c-.079.016-.238.047-.317.064.004.203.006.407.006.611l.311.078a9.035 9.035 0 0 1-1.415-.024l.68-.031c.005-.235.012-.469.019-.703l.001-.026z"/>
    <path fill="#ac0f1b" d="M8.986 14.143a.682.682 0 0 1 .514-.002l.001.396a.618.618 0 0 1-.515 0v-.394z"/>
</svg>
