<!-- Generated by IcoMoon.io -->
<svg version="1.1" xmlns="http://www.w3.org/2000/svg" width="27" height="24" viewBox="0 0 27 24">
<title>warning--tunnel--g6</title>
<path fill="#c0111e" d="M11.369 1.383c0.878-1.579 3.502-1.561 4.392 0 3.669 6.094 7.279 12.225 10.825 18.392 0.684 1.082 0.748 2.788-0.382 3.597-1.272 0.891-2.943 0.405-4.392 0.628h-15.302c-1.522-0.085-3.053-0.034-4.572-0.168-1.063-0.115-1.75-1.117-1.939-2.096v-0.544c0.143-0.683 0.462-1.306 0.817-1.899 3.464-6 6.976-11.975 10.553-17.909M13.371 3.068c-3.594 6.104-7.206 12.198-10.781 18.315 7.316 0.006 14.633 0.006 21.949 0-3.6-6.149-7.224-12.286-10.851-18.42-0.082-0.215-0.279-0.025-0.318 0.106z"></path>
<path fill="#fff" d="M13.371 3.068c0.039-0.131 0.236-0.321 0.318-0.106 3.627 6.134 7.251 12.271 10.851 18.42-7.316 0.006-14.633 0.006-21.949 0 3.575-6.116 7.187-12.21 10.781-18.315M7.67 14.946c-0.411 0.647-0.92 1.233-1.281 1.91-0.070 1.295-0.004 2.597-0.027 3.895 4.802 0 9.604 0 14.406 0-0.022-1.298 0.043-2.6-0.027-3.895-0.362-0.677-0.871-1.263-1.281-1.91-3.931-0.001-7.862-0.001-11.791 0z"></path>
<path fill="#fff" d="M7.43 17.155c0.244-0.507 0.625-0.93 0.926-1.404 3.473 0.003 6.947 0.003 10.42 0 0.328 0.602 1.002 1.094 0.959 1.837 0.002 0.769-0.009 1.538-0.003 2.308-4.11 0-8.22 0-12.329 0 0.024-0.912-0.048-1.831 0.028-2.74M10.955 17.678c-0.97 0.596-1.989 1.119-2.925 1.772 1.617-0.543 3.013-1.658 4.505-2.491-0.608 0.021-1.072 0.443-1.58 0.718M12.513 17.279c-1.167 0.723-2.358 1.406-3.524 2.133 3.051 0.012 6.103 0.012 9.153 0-1.166-0.726-2.357-1.41-3.525-2.133-0.605-0.431-1.498-0.431-2.103 0M14.597 16.959c1.491 0.833 2.884 1.948 4.5 2.491-0.935-0.653-1.951-1.176-2.922-1.771-0.508-0.276-0.972-0.701-1.579-0.72z"></path>
<path fill="#030303" d="M7.67 14.946c3.929-0.001 7.86-0.001 11.791 0 0.41 0.647 0.918 1.233 1.281 1.91 0.070 1.295 0.004 2.597 0.027 3.895-4.802 0-9.604 0-14.406 0 0.022-1.298-0.043-2.6 0.027-3.895 0.361-0.677 0.869-1.263 1.281-1.91M7.43 17.155c-0.076 0.909-0.004 1.828-0.028 2.74 4.11 0 8.22 0 12.329 0-0.006-0.769 0.004-1.538 0.003-2.308 0.043-0.742-0.631-1.234-0.958-1.837-3.473 0.003-6.947 0.003-10.42 0-0.301 0.474-0.681 0.897-0.926 1.404z"></path>
<path fill="#030303" d="M10.955 17.678c0.508-0.276 0.972-0.698 1.58-0.718-1.492 0.833-2.887 1.948-4.505 2.491 0.936-0.653 1.954-1.176 2.925-1.772z"></path>
<path fill="#030303" d="M12.513 17.279c0.605-0.431 1.498-0.431 2.103 0 1.169 0.723 2.36 1.407 3.525 2.133-3.050 0.012-6.101 0.012-9.153 0 1.166-0.727 2.357-1.41 3.524-2.133z"></path>
<path fill="#030303" d="M14.597 16.959c0.607 0.019 1.070 0.444 1.579 0.72 0.97 0.595 1.987 1.118 2.922 1.771-1.616-0.543-3.010-1.658-4.5-2.491z"></path>
</svg>
