<!-- Generated by IcoMoon.io -->
<svg version="1.1" xmlns="http://www.w3.org/2000/svg" width="24" height="24" viewBox="0 0 24 24">
<title>warning--dual-lanes-go-straight-or-turn-left--g1</title>
<path fill="#c6a519" opacity="0.78" d="M11.803 0h0.442c0.462 0.234 0.797 0.638 1.159 0.996 3.199 3.2 6.4 6.401 9.6 9.601 0.346 0.349 0.718 0.678 0.996 1.087v0.68c-0.402 0.55-0.935 0.983-1.4 1.476-3.412 3.377-6.756 6.828-10.211 10.159h-0.706c-0.382-0.268-0.691-0.618-1.020-0.943-3.2-3.2-6.4-6.401-9.599-9.601-0.371-0.378-0.782-0.722-1.064-1.176v-0.462c0.181-0.412 0.538-0.698 0.845-1.012 3.3-3.301 6.6-6.6 9.899-9.901 0.331-0.325 0.637-0.694 1.060-0.905M11.683 0.271c-3.766 3.631-7.415 7.394-11.135 11.077-0.365 0.278-0.503 0.86-0.136 1.196 3.679 3.682 7.361 7.362 11.038 11.046 0.282 0.334 0.828 0.359 1.116 0.020 3.679-3.684 7.36-7.367 11.042-11.047 0.347-0.286 0.316-0.829-0.016-1.114-3.656-3.666-7.319-7.324-10.98-10.984-0.228-0.256-0.619-0.366-0.93-0.196z"></path>
<path fill="#000" d="M11.683 0.271c0.311-0.17 0.702-0.060 0.93 0.196 3.661 3.66 7.324 7.318 10.98 10.984 0.331 0.284 0.362 0.828 0.016 1.114-3.683 3.68-7.363 7.363-11.042 11.047-0.288 0.338-0.834 0.313-1.116-0.020-3.677-3.684-7.358-7.364-11.038-11.046-0.367-0.336-0.229-0.918 0.136-1.196 3.72-3.683 7.369-7.446 11.135-11.077M12.024 0.529c-0.185-0.006-0.31 0.151-0.437 0.26-3.618 3.622-7.241 7.237-10.858 10.86-0.24 0.174-0.272 0.536-0.022 0.718 3.664 3.661 7.324 7.325 10.987 10.985 0.181 0.242 0.529 0.194 0.696-0.037 3.66-3.662 7.326-7.32 10.982-10.986 0.24-0.194 0.143-0.534-0.076-0.7-3.62-3.623-7.243-7.243-10.864-10.865-0.119-0.102-0.239-0.242-0.41-0.235z"></path>
<path fill="#000" d="M7.38 9.316c0.62-0.943 1.274-1.868 1.954-2.77 0.641 0.947 1.34 1.856 1.943 2.828-0.094 0.617-0.822 0.102-1.193 0.066-0.014 3.085 0.007 6.17-0.007 9.256-0.51 0.001-1.020 0.002-1.53-0.002-0.005-0.671-0.001-1.342 0-2.014 0.088-1.331-0.838-2.689-2.132-3.043-0.053 0.374 0.288 1.115-0.288 1.154-0.845-0.787-1.604-1.669-2.407-2.502 1.007-0.461 2.023-0.904 3.042-1.339 0.174-0.107 0.317 0.072 0.4 0.202-0.139 0.332-0.292 0.658-0.443 0.984 0.671 0.192 1.288 0.529 1.823 0.976 0.004-1.226 0.007-2.453-0.001-3.678-0.354 0.047-1.165 0.533-1.159-0.118z"></path>
<path fill="#000" d="M13.058 9.365c0.594-0.965 1.296-1.864 1.939-2.798 0.67 0.791 1.202 1.696 1.819 2.532 0.172 0.169 0.239 0.511-0.056 0.593-0.335-0.038-0.649-0.17-0.976-0.25-0.012 3.083 0.001 6.167-0.004 9.25-0.511 0.008-1.021 0.006-1.532 0.004-0.008-3.080-0.005-6.16-0.001-9.239-0.384-0.023-1.062 0.516-1.189-0.091z"></path>
<path fill="#000" d="M11.854 13.915c0.085 0.004 0.258 0.008 0.343 0.011-0.002 1.59 0.001 3.179-0.001 4.769-0.085 0.002-0.256 0.006-0.341 0.008-0.011-1.596-0.008-3.192-0.001-4.788z"></path>
<path fill="#ffd520" d="M12.024 0.529c0.172-0.007 0.292 0.133 0.41 0.235 3.62 3.622 7.243 7.242 10.864 10.865 0.218 0.166 0.316 0.505 0.076 0.7-3.656 3.666-7.322 7.324-10.982 10.986-0.167 0.232-0.515 0.28-0.696 0.037-3.664-3.66-7.324-7.324-10.987-10.985-0.251-0.181-0.218-0.544 0.022-0.718 3.617-3.623 7.24-7.238 10.858-10.86 0.127-0.109 0.252-0.266 0.437-0.26M7.38 9.316c-0.006 0.65 0.805 0.164 1.159 0.118 0.008 1.225 0.005 2.452 0.001 3.678-0.535-0.446-1.152-0.784-1.823-0.976 0.151-0.326 0.304-0.652 0.443-0.984-0.083-0.13-0.226-0.308-0.4-0.202-1.019 0.436-2.035 0.878-3.042 1.339 0.803 0.833 1.562 1.715 2.407 2.502 0.576-0.040 0.235-0.78 0.288-1.154 1.295 0.354 2.22 1.712 2.132 3.043-0.001 0.672-0.005 1.343 0 2.014 0.51 0.005 1.020 0.004 1.53 0.002 0.014-3.085-0.007-6.17 0.007-9.256 0.371 0.036 1.099 0.551 1.193-0.066-0.602-0.972-1.302-1.882-1.943-2.828-0.679 0.901-1.333 1.826-1.954 2.77M13.058 9.365c0.127 0.607 0.805 0.068 1.189 0.091-0.004 3.079-0.007 6.158 0.001 9.239 0.511 0.002 1.021 0.005 1.532-0.004 0.005-3.083-0.008-6.167 0.004-9.25 0.326 0.079 0.641 0.211 0.976 0.25 0.295-0.082 0.228-0.424 0.056-0.593-0.617-0.836-1.15-1.741-1.819-2.532-0.643 0.935-1.345 1.834-1.939 2.798M11.854 13.915c-0.007 1.596-0.010 3.192 0.001 4.788 0.085-0.002 0.256-0.006 0.341-0.008 0.002-1.59-0.001-3.179 0.001-4.769-0.085-0.002-0.258-0.007-0.343-0.011z"></path>
</svg>
