<svg xmlns="http://www.w3.org/2000/svg" width="24" height="24">
    <path fill="#ec1d24" d="M11.706 1.333h.611c.476.14.91.431 1.148.876 3.427 5.936 6.847 11.875 10.274 17.811.145.264.265.54.366.824v.369c-.13.62-.546 1.179-1.161 1.381-6.682-.108-13.368-.007-20.052-.051-.586-.011-1.172.029-1.756.055-.558-.189-.961-.667-1.137-1.218v-.639a6 6 0 0 1 .345-.735C3.755 14.091 7.168 8.18 10.573 2.263c.237-.45.658-.764 1.132-.932zm.328 2.716a9646.206 9646.206 0 0 0-9.512 16.493c6.345.006 12.689.006 19.034 0-3.175-5.497-6.315-11.016-9.522-16.493z"/>
    <path fill="#fff" d="M12.034 4.049c3.207 5.476 6.347 10.996 9.522 16.493-6.345.006-12.689.006-19.034 0 3.165-5.5 6.336-10.998 9.512-16.493zm1.47 8.181c.106.386.24.762.372 1.139-.115.041-.23.084-.345.124-.207-.572-.409-1.148-.644-1.709a189.25 189.25 0 0 0-5.756 2.1c.37 1.168.827 2.308 1.229 3.465.251-.098.508-.18.762-.268-.04-.436.096-.966.579-1.087.43-.153.805.166 1.047.485 1.284-.461 2.559-.948 3.841-1.41-.156-.795.594-1.263 1.303-1.051-.426.074-1.091.007-1.182.573-.192.499.339 1.053.845.901.536-.077.748-.749.444-1.172.798.485.252-.81.258-1.245-.544-.299-.609-1.017-1.094-1.361-.585-.03-1.116.326-1.657.512zm-3.179 5.238c.756-.505.119-1.762-.71-1.352-.791.377-.317 1.55.506 1.453-2.156.684-4.264 1.523-6.392 2.292 5.512.021 11.023.004 16.535.008a2475.85 2475.85 0 0 0-2.882-4.985c-2.355.854-4.718 1.69-7.058 2.584z"/>
    <path fill="#fff" d="M14.186 12.27c.294-.101.585-.212.88-.308.162.263.322.528.484.79-.348.128-.694.257-1.04.39-.112-.291-.212-.583-.323-.873zM15.219 14.476c.407-.285.793.431.36.634-.387.235-.779-.424-.36-.634zM9.807 16.439c.409-.186.705.501.285.668-.436.251-.755-.519-.285-.668z"/>
    <path d="M13.504 12.23c.541-.186 1.073-.542 1.657-.512.485.343.551 1.062 1.094 1.361-.006.435.54 1.731-.258 1.245.304.422.092 1.094-.444 1.172-.506.152-1.036-.403-.845-.901.092-.566.757-.5 1.182-.573-.708-.212-1.459.257-1.303 1.051-1.283.463-2.557.948-3.841 1.41-.243-.319-.617-.639-1.047-.485-.482.121-.619.651-.579 1.087-.254.088-.511.17-.762.268-.403-1.157-.86-2.297-1.229-3.465a187.558 187.558 0 0 1 5.756-2.1c.235.562.436 1.137.644 1.709.115-.041.23-.084.345-.124-.132-.377-.265-.753-.372-1.139zm.682.04c.111.289.211.582.323.873.346-.134.692-.263 1.04-.39-.162-.263-.322-.528-.484-.79-.295.096-.586.207-.88.308zm1.033 2.206c-.419.21-.027.869.36.634.433-.203.047-.92-.36-.634z"/>
    <path d="M10.325 17.468c2.34-.894 4.703-1.73 7.058-2.584.962 1.66 1.924 3.322 2.882 4.985-5.512-.004-11.023.013-16.535-.008 2.127-.769 4.236-1.606 6.392-2.292-.823.096-1.297-1.076-.506-1.453.829-.41 1.466.847.71 1.352zm-.518-1.029c-.468.148-.151.918.285.668.42-.166.123-.853-.285-.668z"/>
    <path fill="#cc191f" opacity=".86" d="M1.137 22.599c.585-.027 1.171-.067 1.756-.055 6.684.044 13.37-.058 20.052.051l-.179.072H1.305l-.169-.068z"/>
</svg>
