<!-- Generated by IcoMoon.io -->
<svg version="1.1" xmlns="http://www.w3.org/2000/svg" width="24" height="24" viewBox="0 0 24 24">
<title>warning--trail-crossing--g3</title>
<path fill="#1a161a" d="M11.714 0h0.644c3.7 3.701 7.429 7.375 11.075 11.131 0.217 0.229 0.445 0.451 0.631 0.708v0.32c-0.39 0.508-0.868 0.94-1.302 1.409-3.445 3.502-6.929 6.965-10.406 10.433h-0.485c-0.543-0.357-0.968-0.86-1.441-1.301-3.491-3.453-6.965-6.924-10.432-10.401v-0.605c3.897-3.905 7.802-7.804 11.714-11.693M11.838 0.429c-3.768 3.729-7.5 7.499-11.258 11.239-0.202 0.149-0.237 0.467-0.031 0.628 3.742 3.736 7.476 7.482 11.222 11.215 0.222 0.262 0.533 0.060 0.698-0.151 3.573-3.58 7.15-7.154 10.727-10.73 0.198-0.217 0.544-0.418 0.447-0.764-0.094-0.206-0.291-0.341-0.443-0.503-3.585-3.59-7.178-7.171-10.76-10.763-0.149-0.16-0.396-0.357-0.603-0.173z"></path>
<path fill="#f7d017" d="M11.838 0.429c0.207-0.184 0.455 0.013 0.603 0.173 3.582 3.592 7.175 7.173 10.76 10.763 0.152 0.162 0.349 0.297 0.443 0.503 0.097 0.346-0.248 0.547-0.447 0.764-3.577 3.576-7.154 7.15-10.727 10.73-0.165 0.211-0.476 0.412-0.698 0.151-3.746-3.733-7.48-7.479-11.222-11.215-0.206-0.161-0.171-0.479 0.031-0.628 3.758-3.74 7.49-7.51 11.258-11.239M11.915 2.785c-0.008 0.072-0.018 0.144-0.025 0.216 0.093 0.015 0.188 0.028 0.282 0.040-0.013-0.094-0.027-0.188-0.041-0.281-0.072 0.008-0.144 0.017-0.216 0.025M14.759 6.475c-0.39 0.157-0.449 0.749-0.128 1.002 0.269 0.247 0.776 0.145 0.913-0.202 0.273-0.451-0.328-1.056-0.785-0.8M6.296 7.606c-0.445 0.262-0.334 0.993 0.159 1.129 0.507 0.166 0.956-0.443 0.712-0.899-0.159-0.311-0.579-0.404-0.871-0.23M15.061 7.889c-0.391 0.434-0.449 1.057-0.725 1.555-0.307 0.367-0.67 0.688-0.931 1.094-0.106-0.001-0.212-0.003-0.318-0.004-0.119 0.113-0.237 0.228-0.354 0.342 0.088 0.15 0.217 0.312 0.139 0.496-0.15 0.466-0.281 0.938-0.449 1.398-1.177-0.682-2.869 0.27-2.819 1.645-0.127 1.121 0.955 2.159 2.069 2.005 1.486-0.002 2.378-2.028 1.354-3.115 0.048-0.048 0.096-0.095 0.145-0.143 0.423 0.514 0.91 0.97 1.345 1.473 0.2 0.204 0.218 0.502 0.269 0.767 0.066 0.044 0.133 0.087 0.2 0.131-0.008 0.123-0.017 0.246-0.025 0.369 0.147-0.020 0.293-0.040 0.44-0.066-0.059-0.074-0.118-0.149-0.177-0.222 0.011-0.192 0.016-0.385 0.016-0.578 0.183-0.042 0.368-0.073 0.554-0.093 0.205 0.646 0.709 1.205 1.373 1.385 1.023 0.329 2.225-0.398 2.42-1.453 0.053-0.451 0.055-0.94-0.185-1.342-0.396-0.759-1.347-1.204-2.178-0.962-0.193 0.053-0.369 0.161-0.568 0.194-0.233-0.281-0.554-0.548-0.601-0.931 0.218-0.146 0.442-0.284 0.67-0.414 0.063-1.139-0.016-2.362-0.674-3.334-0.206-0.327-0.683-0.487-0.989-0.195M6.496 9.364c-0.271 0.453-0.265 1.107-0.781 1.375-0.409 0.265-0.813 0.539-1.22 0.807 0.083 0.112 0.166 0.224 0.248 0.338 0.428-0.107 0.837-0.275 1.257-0.409 0.31-0.074 0.455-0.382 0.656-0.597 0.127 0.346 0.348 0.682 0.356 1.056-0.337 0.708-0.912 1.304-1.080 2.088-0.179 0.702-0.449 1.381-0.58 2.094 0.239 0.097 0.48 0.187 0.728 0.258 0.27-0.713 0.505-1.439 0.766-2.155 0.13-0.362 0.434-0.614 0.679-0.896 0.489 1.075 0.787 2.231 1.253 3.316 0.205-0.136 0.404-0.282 0.593-0.439-0.322-1.147-0.566-2.314-0.882-3.462-0.101-0.329 0.046-0.664 0.027-0.998 0.027-0.507-0.116-0.997-0.217-1.488 0.175 0.018 0.348 0.048 0.519 0.091 0.025 0.603 0.162 1.193 0.219 1.793 0.127 0.018 0.255 0.031 0.383 0.043 0.097-0.702 0.079-1.426 0.043-2.13-0.65-0.4-1.332-0.756-2.007-1.115-0.374-0.228-0.844 0.042-0.963 0.43M11.89 21.214c0.080 0.008 0.161 0.017 0.241 0.026 0.015-0.097 0.028-0.194 0.040-0.29-0.178-0.011-0.305 0.073-0.281 0.264z"></path>
<path fill="#f7d017" d="M9.941 14.281c0.108-1.084 1.439-1.742 2.374-1.183-0.196 0.522-0.493 1.036-0.998 1.311-0.001 0.053-0.002 0.158-0.003 0.21 0.080 0.037 0.16 0.074 0.241 0.11 0.355-0.445 0.788-0.837 1.015-1.372 0.53 0.312 0.584 1.029 0.486 1.578-0.194 0.67-0.867 1.199-1.577 1.147-0.915 0.019-1.692-0.901-1.537-1.801z"></path>
<path fill="#f7d017" d="M16.886 13.088c0.794-0.512 1.962-0.112 2.287 0.773 0.426 0.943-0.333 2.158-1.37 2.167-0.73 0.087-1.571-0.466-1.611-1.231 0.547-0.085 1.097-0.185 1.623-0.362-0.192-0.52-0.638-0.886-0.93-1.347z"></path>
<path fill="#aeaba5" d="M11.915 2.785c0.072-0.008 0.143-0.017 0.216-0.025 0.014 0.093 0.028 0.187 0.041 0.281-0.095-0.012-0.189-0.025-0.282-0.040 0.008-0.072 0.017-0.144 0.025-0.216z"></path>
<path fill="#aeaba5" d="M11.89 21.214c-0.024-0.191 0.103-0.275 0.281-0.264-0.012 0.097-0.025 0.194-0.040 0.29-0.080-0.009-0.161-0.018-0.241-0.026z"></path>
<path fill="#1f1a1a" d="M14.759 6.475c0.457-0.256 1.058 0.349 0.785 0.8-0.137 0.347-0.644 0.449-0.913 0.202-0.321-0.252-0.262-0.845 0.128-1.002z"></path>
<path fill="#1d181a" d="M6.296 7.606c0.292-0.174 0.712-0.081 0.871 0.23 0.244 0.456-0.205 1.064-0.712 0.899-0.493-0.136-0.604-0.867-0.159-1.129z"></path>
<path fill="#201a1a" d="M15.061 7.889c0.305-0.292 0.783-0.132 0.989 0.195 0.658 0.972 0.738 2.195 0.674 3.334-0.228 0.13-0.453 0.268-0.67 0.414 0.047 0.382 0.368 0.65 0.601 0.931 0.199-0.033 0.375-0.142 0.568-0.194 0.831-0.242 1.782 0.203 2.178 0.962 0.239 0.402 0.237 0.892 0.185 1.342-0.194 1.055-1.396 1.782-2.42 1.453-0.665-0.18-1.169-0.739-1.373-1.385-0.186 0.020-0.371 0.050-0.554 0.093 0 0.193-0.005 0.386-0.016 0.578 0.059 0.074 0.118 0.148 0.177 0.222-0.146 0.026-0.293 0.046-0.44 0.066 0.008-0.123 0.016-0.247 0.025-0.369-0.067-0.044-0.134-0.087-0.2-0.131-0.052-0.265-0.070-0.563-0.269-0.767-0.435-0.503-0.922-0.959-1.345-1.473-0.138-0.151-0.29-0.29-0.455-0.41 0.022 0.223 0.158 0.4 0.31 0.553 1.025 1.087 0.132 3.113-1.354 3.115-1.114 0.154-2.197-0.884-2.069-2.005-0.050-1.375 1.643-2.327 2.819-1.645 0.168-0.46 0.299-0.932 0.449-1.398 0.078-0.184-0.051-0.346-0.139-0.496 0.117-0.115 0.235-0.229 0.354-0.342 0.106 0.001 0.211 0.003 0.318 0.004 0.261-0.406 0.624-0.727 0.931-1.094 0.276-0.498 0.334-1.12 0.725-1.555M13.867 10.79c-0.256 0.009-0.511 0.013-0.764 0.048 0.058 0.109 0.119 0.216 0.181 0.323-0.074 0.198-0.153 0.396-0.208 0.6 0.104 0.14 0.298 0.065 0.445 0.071-0.033-0.208-0.059-0.417-0.073-0.627 0.498-0.379 1.133-0.481 1.696-0.723 0.091-0.277-0.111-0.562-0.195-0.824-0.28 0.457-0.812 0.678-1.082 1.133M14.367 11.625c0.009 0.070 0.018 0.139 0.027 0.209 0.145 0.004 0.291 0.007 0.436 0.008 0.009-0.076 0.018-0.153 0.027-0.23-0.164-0.003-0.327 0.001-0.49 0.013M12.961 12.158c-0.028 0.078-0.055 0.157-0.083 0.235 0.565 0.558 1.047 1.201 1.652 1.717-0.195-0.676-0.565-1.303-0.84-1.957-0.243 0-0.487 0-0.729 0.004M15.123 12.781c-0.048 0.278 0.016 0.559 0.063 0.833 0.178-0.415 0.333-0.848 0.39-1.299-0.165 0.14-0.352 0.27-0.453 0.466M15.957 12.386c-0.269 0.735-0.477 1.492-0.723 2.235 0.104 0.182 0.342-0.012 0.508-0.010-0.025-0.522 0.134-1.053 0.494-1.439 0.29-0.275-0.127-0.56-0.279-0.786M9.941 14.281c-0.155 0.901 0.622 1.82 1.537 1.801 0.71 0.052 1.383-0.477 1.577-1.147 0.098-0.548 0.044-1.265-0.486-1.578-0.227 0.534-0.659 0.927-1.015 1.372-0.080-0.037-0.16-0.074-0.241-0.11 0.001-0.052 0.002-0.157 0.003-0.21 0.505-0.275 0.803-0.789 0.998-1.311-0.935-0.559-2.266 0.099-2.374 1.183M16.886 13.088c0.292 0.461 0.738 0.828 0.93 1.347-0.526 0.177-1.076 0.277-1.623 0.362 0.040 0.764 0.881 1.317 1.611 1.231 1.036-0.009 1.795-1.224 1.37-2.167-0.325-0.884-1.493-1.285-2.287-0.773M16.117 14.471c0.385 0.072 0.82-0.166 1.232-0.177-0.144-0.388-0.473-0.664-0.695-1.006-0.377 0.242-0.589 0.775-0.537 1.183z"></path>
<path fill="#201a1a" d="M6.496 9.364c0.119-0.389 0.589-0.659 0.963-0.43 0.675 0.359 1.357 0.714 2.007 1.115 0.036 0.704 0.054 1.428-0.043 2.13-0.128-0.012-0.256-0.025-0.383-0.043-0.057-0.6-0.194-1.19-0.219-1.793-0.171-0.042-0.344-0.073-0.519-0.091 0.1 0.491 0.243 0.981 0.217 1.488 0.019 0.334-0.128 0.668-0.027 0.998 0.316 1.148 0.561 2.315 0.882 3.462-0.19 0.157-0.388 0.303-0.593 0.439-0.467-1.085-0.764-2.241-1.253-3.316-0.245 0.282-0.549 0.534-0.679 0.896-0.262 0.716-0.496 1.442-0.766 2.155-0.248-0.070-0.489-0.16-0.728-0.258 0.13-0.713 0.4-1.392 0.58-2.094 0.168-0.784 0.743-1.381 1.080-2.088-0.008-0.374-0.23-0.71-0.356-1.056-0.201 0.215-0.346 0.524-0.656 0.597-0.42 0.134-0.83 0.302-1.257 0.409-0.082-0.113-0.164-0.226-0.248-0.338 0.407-0.268 0.811-0.542 1.22-0.807 0.516-0.267 0.51-0.922 0.781-1.375z"></path>
<path fill="#f9d61a" d="M13.867 10.79c0.27-0.455 0.802-0.676 1.082-1.133 0.084 0.262 0.286 0.547 0.195 0.824-0.563 0.242-1.199 0.344-1.696 0.723 0.014 0.211 0.040 0.419 0.073 0.627-0.147-0.006-0.342 0.068-0.445-0.071 0.055-0.204 0.134-0.402 0.208-0.6-0.062-0.107-0.123-0.214-0.181-0.323 0.253-0.035 0.509-0.038 0.764-0.048z"></path>
<path fill="#d8ba20" d="M14.367 11.625c0.163-0.012 0.327-0.016 0.49-0.013-0.009 0.077-0.018 0.154-0.027 0.23-0.145-0.002-0.291-0.005-0.436-0.008-0.009-0.070-0.018-0.139-0.027-0.209z"></path>
<path fill="#fad518" d="M12.961 12.158c0.243-0.004 0.486-0.004 0.729-0.004 0.275 0.653 0.645 1.28 0.84 1.957-0.605-0.516-1.087-1.159-1.652-1.717 0.027-0.078 0.055-0.157 0.083-0.235z"></path>
<path fill="#f3d61a" d="M15.123 12.781c0.101-0.196 0.288-0.327 0.453-0.466-0.057 0.451-0.212 0.884-0.39 1.299-0.046-0.274-0.111-0.555-0.063-0.833z"></path>
<path fill="#fbd719" d="M15.957 12.386c0.152 0.226 0.569 0.511 0.279 0.786-0.36 0.387-0.519 0.918-0.494 1.439-0.166-0.002-0.404 0.192-0.508 0.010 0.246-0.743 0.455-1.5 0.723-2.235z"></path>
<path fill="#d9c21d" d="M12.717 12.75c0.165 0.121 0.317 0.259 0.455 0.41-0.049 0.048-0.097 0.095-0.145 0.143-0.153-0.153-0.289-0.33-0.31-0.553z"></path>
<path fill="#f8d317" d="M16.117 14.471c-0.052-0.408 0.16-0.941 0.537-1.183 0.221 0.342 0.55 0.618 0.695 1.006-0.412 0.011-0.847 0.248-1.232 0.177z"></path>
</svg>
