<!-- Generated by IcoMoon.io -->
<svg version="1.1" xmlns="http://www.w3.org/2000/svg" width="27" height="24" viewBox="0 0 27 24">
<title>warning--hairpin-curve-left--g3</title>
<path fill="#c31926" d="M13.355 0h0.518c0.484 0.157 0.941 0.439 1.181 0.903 3.818 6.59 7.621 13.189 11.437 19.782 0.288 0.488 0.582 0.978 0.781 1.511v0.445c-0.16 0.652-0.644 1.19-1.302 1.36h-24.653c-0.657-0.151-1.137-0.685-1.317-1.321v-0.461c0.105-0.289 0.228-0.57 0.376-0.839 3.95-6.825 7.889-13.657 11.84-20.482 0.235-0.45 0.676-0.724 1.139-0.897M13.383 1.638c-4.008 6.959-8.071 13.889-12.031 20.875 0.176 0.070 0.36 0.121 0.552 0.109 7.868-0.008 15.738 0.001 23.606-0.004 0.142-0.012 0.277-0.048 0.408-0.11-3.941-6.955-7.994-13.848-11.974-20.782-0.089-0.296-0.44-0.46-0.56-0.087z"></path>
<path fill="#fff" d="M13.383 1.638c0.12-0.372 0.472-0.209 0.56 0.087 3.98 6.934 8.033 13.827 11.974 20.782-0.131 0.063-0.266 0.098-0.408 0.11-7.868 0.005-15.738-0.004-23.606 0.004-0.192 0.012-0.376-0.040-0.552-0.109 3.96-6.986 8.024-13.916 12.031-20.875M9.393 11.167c-0.352 1.377-0.125 2.819-0.187 4.223 0.41 0.41 0.82 0.821 1.231 1.23 0.405-0.423 0.837-0.82 1.231-1.25 0.007-1.032-0.026-2.065 0.014-3.095 0.052-1.042 1.062-1.894 2.097-1.786 0.987 0.045 1.825 0.938 1.82 1.924 0.008 3.045 0.007 6.090 0 9.135 0.404-0.416 0.818-0.824 1.226-1.237 0.42 0.4 0.825 0.814 1.238 1.222-0.003-3.085 0.012-6.169-0.007-9.254-0.034-2.018-1.627-3.859-3.618-4.186-2.148-0.443-4.462 0.961-5.047 3.075z"></path>
<path fill="#000" d="M9.393 11.167c0.585-2.114 2.899-3.518 5.047-3.075 1.991 0.327 3.584 2.168 3.618 4.186 0.019 3.085 0.004 6.169 0.007 9.254-0.413-0.408-0.818-0.822-1.238-1.222-0.408 0.413-0.822 0.821-1.226 1.237 0.007-3.045 0.008-6.090 0-9.135 0.004-0.986-0.833-1.879-1.82-1.924-1.035-0.108-2.045 0.745-2.097 1.786-0.040 1.031-0.007 2.063-0.014 3.095-0.394 0.431-0.826 0.828-1.231 1.25-0.412-0.409-0.821-0.82-1.231-1.23 0.061-1.405-0.165-2.846 0.187-4.223z"></path>
</svg>
