<?xml version="1.0" encoding="utf-8"?>
<!-- Generated by IcoMoon.io -->
<!DOCTYPE svg PUBLIC "-//W3C//DTD SVG 1.1//EN" "http://www.w3.org/Graphics/SVG/1.1/DTD/svg11.dtd">
<svg version="1.1" xmlns="http://www.w3.org/2000/svg" xmlns:xlink="http://www.w3.org/1999/xlink" width="24" height="24" viewBox="0 0 24 24">
<path fill="#231f20" d="M11.088 0.4c0.376-0.454 1.118-0.486 1.512-0.038 3.592 3.57 7.166 7.154 10.748 10.734 0.449 0.373 0.504 1.114 0.066 1.517-3.622 3.622-7.246 7.242-10.868 10.861-0.38 0.377-1.054 0.349-1.411-0.046-3.599-3.606-7.207-7.204-10.81-10.805-0.185-0.175-0.28-0.416-0.325-0.662v-0.14c0.044-0.317 0.224-0.586 0.454-0.8 3.547-3.536 7.085-7.084 10.634-10.62M11.657 0.72c-0.119 0.084-0.22 0.187-0.323 0.288-3.494 3.509-7.008 6.997-10.502 10.506-0.211 0.156-0.302 0.486-0.076 0.672 3.606 3.607 7.216 7.212 10.823 10.817 0.152 0.179 0.442 0.162 0.588-0.014 3.604-3.602 7.211-7.202 10.813-10.807 0.216-0.184 0.132-0.5-0.071-0.655-3.551-3.565-7.115-7.117-10.675-10.673-0.138-0.158-0.388-0.288-0.577-0.133z"></path>
<path fill="#231f20" d="M9.691 7.404c0.716-1.256 1.438-2.509 2.162-3.761 0.724 1.255 1.446 2.51 2.164 3.768-0.352-0.094-0.706-0.184-1.061-0.262 0.050 0.982-0.23 1.999-0.911 2.729-0.649 0.767-1.603 1.195-2.245 1.966-0.433 0.505-0.298 1.355 0.275 1.696 1.165 0.737 2.664 0.784 3.745 1.681 0.972 0.809 1.051 2.326 0.469 3.385-0.482 0.893-1.598 1.435-1.637 2.546-0.712-0.001-1.423 0.001-2.134-0.001 0.002-0.75 0.236-1.517 0.764-2.065 0.475-0.557 1.206-1.015 1.264-1.814 0.089-0.446-0.313-0.772-0.679-0.924-1.121-0.481-2.386-0.674-3.364-1.45-0.928-0.691-1.262-1.985-0.972-3.077 0.205-0.698 0.736-1.236 1.306-1.658 0.572-0.468 1.256-0.852 1.624-1.519 0.271-0.444 0.221-0.983 0.21-1.48-0.329 0.072-0.655 0.152-0.98 0.24z"></path>
<path fill="#fd0" d="M11.657 0.72c0.19-0.155 0.439-0.025 0.577 0.133 3.56 3.556 7.124 7.108 10.675 10.673 0.203 0.155 0.287 0.472 0.071 0.655-3.602 3.605-7.21 7.205-10.813 10.807-0.146 0.176-0.436 0.193-0.588 0.014-3.607-3.605-7.217-7.21-10.823-10.817-0.227-0.186-0.136-0.516 0.076-0.672 3.494-3.509 7.008-6.997 10.502-10.506 0.103-0.101 0.204-0.204 0.323-0.288M9.691 7.404c0.325-0.088 0.652-0.168 0.98-0.24 0.011 0.497 0.061 1.036-0.21 1.48-0.367 0.667-1.051 1.051-1.624 1.519-0.57 0.422-1.1 0.96-1.306 1.658-0.29 1.092 0.044 2.386 0.972 3.077 0.978 0.775 2.243 0.968 3.364 1.45 0.366 0.152 0.768 0.478 0.679 0.924-0.058 0.799-0.788 1.258-1.264 1.814-0.528 0.548-0.762 1.315-0.764 2.065 0.71 0.002 1.422 0 2.134 0.001 0.038-1.111 1.154-1.654 1.637-2.546 0.582-1.060 0.503-2.576-0.469-3.385-1.081-0.898-2.58-0.944-3.745-1.681-0.572-0.341-0.708-1.19-0.275-1.696 0.642-0.77 1.596-1.199 2.245-1.966 0.68-0.73 0.961-1.747 0.911-2.729 0.355 0.078 0.709 0.168 1.061 0.262-0.718-1.258-1.44-2.513-2.164-3.768-0.725 1.252-1.446 2.504-2.162 3.761z"></path>
</svg>
