<svg xmlns="http://www.w3.org/2000/svg" width="24" height="24">
    <path fill="#ec1d24" d="M11.778 1.333h.582c.463.145.894.422 1.125.86 3.412 5.912 6.817 11.828 10.232 17.737.147.255.276.522.388.795v.62c-.15.581-.577 1.073-1.155 1.256-6.201-.118-12.408-.017-18.612-.051-1.06.012-2.12-.041-3.179.042-.61-.196-1.02-.746-1.161-1.357v-.345c.085-.272.183-.542.322-.793L10.637 2.211c.233-.447.667-.732 1.139-.877zm-.191 3.516c-3.011 5.232-6.031 10.457-9.034 15.692 6.343.006 12.685.006 19.028 0-3.153-5.497-6.332-10.98-9.492-16.474-.206.234-.355.51-.502.781z"/>
    <path fill="#fff" d="M11.587 4.849c.148-.271.297-.548.502-.781 3.162 5.493 6.34 10.976 9.492 16.474-6.343.006-12.685.006-19.028 0 3.003-5.236 6.023-10.46 9.034-15.692zM3.843 19.87c5.51-.003 11.023.013 16.534-.008-4.533-1.704-9.12-3.268-13.65-4.98a671.09 671.09 0 0 0-2.884 4.988z"/>
    <path fill="#040404" d="M3.843 19.87a702.19 702.19 0 0 1 2.884-4.988c4.53 1.711 9.116 3.276 13.65 4.98-5.51.021-11.023.006-16.534.008z"/>
    <path fill="#cc191f" opacity=".86" d="M1.161 22.592c1.059-.084 2.119-.03 3.179-.042 6.204.034 12.411-.068 18.612.051l-.163.067H1.337l-.176-.075z"/>
</svg>
