<!-- Generated by IcoMoon.io -->
<svg version="1.1" xmlns="http://www.w3.org/2000/svg" width="24" height="24" viewBox="0 0 24 24">
<title>warning--gravel-road-surface--g1</title>
<path fill="#f6d300" opacity="0.96" d="M11.708 0h0.539c0.263 0.118 0.514 0.264 0.72 0.468 3.278 3.282 6.56 6.563 9.841 9.842 0.442 0.454 0.973 0.86 1.192 1.48v0.336c-0.103 0.305-0.25 0.6-0.484 0.828-3.5 3.5-7.004 7-10.5 10.504-0.239 0.248-0.539 0.422-0.859 0.542h-0.329c-0.646-0.191-1.055-0.745-1.517-1.193-3.262-3.259-6.518-6.524-9.784-9.78-0.22-0.216-0.392-0.475-0.528-0.751v-0.542c0.224-0.599 0.749-0.99 1.178-1.435 3.26-3.26 6.524-6.518 9.78-9.784 0.216-0.217 0.473-0.386 0.75-0.515M11.575 0.421c-3.686 3.544-7.247 7.232-10.89 10.826-0.426 0.33-0.547 1.001-0.12 1.384 3.574 3.589 7.162 7.164 10.741 10.747 0.353 0.422 1.027 0.413 1.374-0.011 3.562-3.563 7.126-7.123 10.686-10.687 0.414-0.346 0.408-1.012-0.004-1.357-3.562-3.563-7.126-7.123-10.687-10.686-0.27-0.301-0.74-0.444-1.1-0.216z"></path>
<path fill="#000" d="M11.575 0.421c0.36-0.228 0.83-0.085 1.1 0.216 3.562 3.563 7.126 7.123 10.687 10.686 0.412 0.346 0.418 1.012 0.004 1.357-3.56 3.564-7.124 7.124-10.686 10.687-0.347 0.424-1.021 0.433-1.374 0.011-3.58-3.583-7.168-7.158-10.741-10.747-0.427-0.383-0.306-1.054 0.12-1.384 3.643-3.594 7.204-7.283 10.89-10.826M11.914 0.75c-0.17 0.050-0.292 0.19-0.42 0.304-3.514 3.529-7.046 7.042-10.561 10.571-0.252 0.193-0.238 0.553 0.010 0.745 3.562 3.564 7.122 7.13 10.69 10.687 0.191 0.244 0.541 0.221 0.728-0.014 3.564-3.559 7.127-7.121 10.685-10.686 0.234-0.187 0.247-0.534 0.007-0.721-3.534-3.55-7.085-7.082-10.621-10.63-0.143-0.127-0.305-0.302-0.517-0.256z"></path>
<path fill="#000" d="M3.82 9.206c1.258 0.034 2.566-0.16 3.79 0.108 0.311 0.709 0.414 1.492 0.642 2.231 0.13 0.619 0.443 1.247 0.283 1.89-0.19 0.778-0.050 1.584-0.124 2.374-0.296 0.010-0.593 0.014-0.889 0.014-0.034-0.53-0.025-1.062-0.030-1.592-1.222-0.032-2.443-0.006-3.665-0.016-0.001-0.928-0.001-1.854 0-2.782 1.357-0.098 2.718-0.052 4.076-0.044-0.124-0.646-0.295-1.282-0.467-1.916-1.2-0.061-2.402-0.041-3.604-0.023-0.004-0.061-0.010-0.182-0.013-0.244z"></path>
<path fill="#000" d="M14.923 9.282c1.295-0.205 2.634-0.055 3.943-0.017 0.001 0.061 0.004 0.184 0.004 0.244-1.277-0.043-2.557-0.108-3.834-0.028-0.199 0.824-0.409 1.649-0.545 2.486 1.459-0.034 2.92-0.055 4.378 0.028-0.001 0.188-0.002 0.377-0.002 0.565-1 0-1.999-0.001-2.998 0.001 0 0.311-0.001 0.622-0.001 0.932 0.997 0.002 1.996 0.004 2.993 0 0.007 0.397 0.008 0.796 0.008 1.193-1.264 0.004-2.528-0.001-3.793 0.002-0.004 0.379-0.007 0.758-0.035 1.135-0.324 0-0.648-0.004-0.972-0.018-0.068-0.755 0.066-1.528-0.114-2.272-0.233-0.764 0.253-1.486 0.362-2.23 0.223-0.661 0.233-1.445 0.606-2.023M14.426 12.617c-0.863 0.628 0.721 1.333 1.034 0.558 0.176-0.598-0.628-0.745-1.034-0.558z"></path>
<path fill="#000" d="M9.318 10.613c-0.527-0.692 0.359-1.154 0.928-1.31 0.422 0.356 0.409 0.902 0.349 1.404-0.424-0.059-0.848-0.128-1.277-0.094z"></path>
<path fill="#000" d="M15.788 9.466c0.223 0.208 0.444 0.418 0.666 0.628 0.132-0.199 0.263-0.4 0.394-0.599 0.007 0.217 0.014 0.434 0.023 0.65 0.226-0.199 0.446-0.402 0.671-0.604-0.076 0.224-0.151 0.449-0.227 0.673 0.539 0.002 1.078-0.004 1.618 0.008-0.509 0.16-1.025 0.298-1.536 0.446 0.359 0.361 0.727 0.713 1.073 1.087-0.5-0.259-0.979-0.557-1.465-0.84-0.072 0.278-0.144 0.557-0.221 0.833-0.071-0.25-0.139-0.499-0.208-0.75-0.151 0.216-0.3 0.433-0.452 0.648 0.018-0.196 0.037-0.39 0.058-0.586-0.468 0.11-0.936 0.221-1.41 0.3 0.371-0.209 0.756-0.389 1.138-0.575-0.344-0.112-0.691-0.22-1.033-0.338 0.367-0.010 0.733-0.010 1.1-0.011-0.064-0.324-0.127-0.648-0.187-0.972z"></path>
<path fill="#000" d="M11.192 10.382c0.234-0.264 0.496-0.503 0.773-0.722 0.26 0.176 0.548 0.305 0.846 0.407-0.029 0.289-0.060 0.577-0.088 0.866-0.323 0.304-0.641 0.616-0.995 0.886-0.145-0.491-0.301-0.98-0.536-1.436z"></path>
<path fill="#000" d="M9.666 11.809c0.078-0.257 0.127-0.554 0.379-0.704-0.194 1.074-0.606 2.094-0.852 3.156 0.761-0.866 1.316-1.907 2.153-2.705-0.516 1.266-1.652 2.186-2.309 3.389 0.571-0.258 1.038-0.694 1.612-0.947-0.355 0.619-1.115 0.827-1.592 1.337 0.91 0.077 1.871-0.41 2.731-0.089-0.839 0.174-1.698 0.222-2.548 0.324-0.238 0.066-0.416-0.116-0.601-0.23 0.331-1.18 0.695-2.351 1.027-3.53z"></path>
<path fill="#000" d="M11.299 12.703c0.355 0.082 0.716 0.134 1.075 0.193-0.030 0.562-0.46 0.983-0.598 1.516-0.433-0.246-0.818-0.588-1.024-1.051 0.188-0.214 0.37-0.433 0.546-0.658z"></path>
<path fill="#000" d="M11.908 14.56c0.503-0.040 1.003-0.104 1.506-0.154 0.010 0.431 0.052 0.862 0.214 1.265-0.528-0.066-1.062-0.035-1.579 0.092-0.137-0.388-0.132-0.799-0.14-1.204z"></path>
<path fill="#ffdb00" d="M11.914 0.75c0.212-0.047 0.374 0.128 0.517 0.256 3.536 3.547 7.087 7.080 10.621 10.63 0.24 0.187 0.227 0.534-0.007 0.721-3.558 3.565-7.121 7.127-10.685 10.686-0.187 0.235-0.538 0.258-0.728 0.014-3.568-3.557-7.128-7.123-10.69-10.687-0.247-0.192-0.262-0.552-0.010-0.745 3.515-3.529 7.048-7.042 10.561-10.571 0.128-0.114 0.25-0.253 0.42-0.304M3.82 9.206c0.004 0.061 0.010 0.182 0.013 0.244 1.201-0.018 2.404-0.038 3.604 0.023 0.172 0.635 0.343 1.271 0.467 1.916-1.358-0.007-2.719-0.054-4.076 0.044-0.001 0.928-0.001 1.854 0 2.782 1.222 0.010 2.443-0.017 3.665 0.016 0.005 0.53-0.004 1.062 0.030 1.592 0.296 0 0.593-0.005 0.889-0.014 0.073-0.79-0.066-1.596 0.124-2.374 0.16-0.643-0.154-1.271-0.283-1.89-0.228-0.739-0.331-1.522-0.642-2.231-1.224-0.268-2.532-0.074-3.79-0.108M14.923 9.282c-0.373 0.578-0.383 1.362-0.606 2.023-0.109 0.744-0.595 1.465-0.362 2.23 0.18 0.744 0.046 1.517 0.114 2.272 0.324 0.014 0.648 0.018 0.972 0.018 0.028-0.377 0.031-0.756 0.035-1.135 1.265-0.004 2.53 0.001 3.793-0.002 0-0.397-0.001-0.796-0.008-1.193-0.997 0.004-1.996 0.002-2.993 0 0-0.311 0.001-0.622 0.001-0.932 0.998-0.002 1.998-0.001 2.998-0.001 0-0.188 0.001-0.377 0.002-0.565-1.458-0.083-2.918-0.061-4.378-0.028 0.136-0.838 0.346-1.662 0.545-2.486 1.277-0.080 2.557-0.016 3.834 0.028 0-0.060-0.002-0.182-0.004-0.244-1.309-0.038-2.648-0.188-3.943 0.017M9.318 10.613c0.428-0.035 0.853 0.035 1.277 0.094 0.060-0.502 0.073-1.048-0.349-1.404-0.569 0.156-1.454 0.618-0.928 1.31M15.788 9.466c0.060 0.324 0.124 0.648 0.187 0.972-0.367 0.001-0.733 0.001-1.1 0.011 0.342 0.119 0.689 0.227 1.033 0.338-0.382 0.186-0.767 0.366-1.138 0.575 0.474-0.079 0.942-0.19 1.41-0.3-0.020 0.196-0.040 0.39-0.058 0.586 0.152-0.215 0.301-0.432 0.452-0.648 0.068 0.251 0.137 0.5 0.208 0.75 0.077-0.276 0.149-0.554 0.221-0.833 0.486 0.283 0.965 0.581 1.465 0.84-0.346-0.374-0.714-0.726-1.073-1.087 0.511-0.149 1.027-0.287 1.536-0.446-0.54-0.012-1.079-0.006-1.618-0.008 0.076-0.224 0.151-0.449 0.227-0.673-0.224 0.202-0.445 0.404-0.671 0.604-0.008-0.216-0.016-0.433-0.023-0.65-0.131 0.199-0.262 0.4-0.394 0.599-0.222-0.21-0.443-0.42-0.666-0.628M11.192 10.382c0.235 0.456 0.391 0.946 0.536 1.436 0.354-0.27 0.672-0.582 0.995-0.886 0.028-0.289 0.059-0.577 0.088-0.866-0.298-0.102-0.586-0.23-0.846-0.407-0.277 0.22-0.539 0.458-0.773 0.722M9.666 11.809c-0.332 1.18-0.696 2.351-1.027 3.53 0.185 0.114 0.364 0.296 0.601 0.23 0.85-0.102 1.709-0.15 2.548-0.324-0.86-0.322-1.822 0.166-2.731 0.089 0.478-0.51 1.237-0.718 1.592-1.337-0.574 0.253-1.040 0.689-1.612 0.947 0.656-1.202 1.793-2.123 2.309-3.389-0.836 0.798-1.392 1.838-2.153 2.705 0.246-1.062 0.658-2.082 0.852-3.156-0.252 0.15-0.301 0.448-0.379 0.704M11.299 12.703c-0.176 0.224-0.358 0.444-0.546 0.658 0.205 0.463 0.59 0.805 1.024 1.051 0.138-0.533 0.568-0.954 0.598-1.516-0.359-0.059-0.72-0.112-1.075-0.193M11.908 14.56c0.008 0.404 0.004 0.816 0.14 1.204 0.517-0.127 1.051-0.158 1.579-0.092-0.162-0.403-0.204-0.834-0.214-1.265-0.503 0.049-1.003 0.114-1.506 0.154z"></path>
<path fill="#ffdb00" d="M14.426 12.617c0.407-0.187 1.211-0.040 1.034 0.558-0.313 0.775-1.897 0.070-1.034-0.558z"></path>
</svg>
