<?xml version="1.0" encoding="utf-8"?>
<!-- Generated by IcoMoon.io -->
<!DOCTYPE svg PUBLIC "-//W3C//DTD SVG 1.1//EN" "http://www.w3.org/Graphics/SVG/1.1/DTD/svg11.dtd">
<svg version="1.1" xmlns="http://www.w3.org/2000/svg" xmlns:xlink="http://www.w3.org/1999/xlink" width="24" height="24" viewBox="0 0 24 24">
<path fill="#fee011" d="M11.837 0.060h0.294c0.323 0.062 0.606 0.239 0.828 0.478 3.542 3.54 7.097 7.070 10.639 10.613 0.491 0.439 0.503 1.268 0.012 1.711-3.425 3.414-6.851 6.829-10.274 10.243-0.317 0.312-0.608 0.679-1.040 0.835h-0.602c-0.229-0.089-0.443-0.218-0.614-0.395-3.383-3.379-6.769-6.754-10.157-10.128-0.365-0.377-0.84-0.718-0.922-1.274v-0.228c0.059-0.548 0.516-0.899 0.874-1.265 3.409-3.392 6.812-6.791 10.219-10.186 0.2-0.208 0.466-0.336 0.744-0.404M11.676 0.35c-0.242 0.090-0.419 0.287-0.601 0.461-3.506 3.498-7.014 6.994-10.518 10.495-0.41 0.35-0.427 1.040-0.014 1.398 3.589 3.576 7.18 7.152 10.764 10.732 0.328 0.367 0.954 0.395 1.308 0.050 3.611-3.593 7.219-7.193 10.829-10.788 0.398-0.358 0.388-1.024-0.007-1.38-3.546-3.544-7.098-7.082-10.649-10.621-0.27-0.307-0.708-0.516-1.111-0.347z"></path>
<path fill="#fee011" d="M11.784 0.816c0.25-0.166 0.508 0.047 0.678 0.22 3.504 3.496 7.013 6.989 10.516 10.486 0.167 0.163 0.376 0.384 0.27 0.64-0.178 0.324-0.491 0.544-0.739 0.809-3.366 3.352-6.73 6.706-10.091 10.061-0.157 0.176-0.427 0.329-0.649 0.17-0.25-0.185-0.449-0.426-0.671-0.64-3.391-3.373-6.773-6.756-10.169-10.124-0.385-0.28-0.181-0.76 0.142-0.989 3.367-3.353 6.732-6.707 10.097-10.061 0.2-0.196 0.385-0.412 0.617-0.571M10.939 4.312c-0.053 0.247-0.104 0.496-0.156 0.743 0.078 0.054 0.233 0.162 0.311 0.216-0.024 0.216-0.049 0.432-0.073 0.648-0.3 0.287-0.605 0.569-0.908 0.851-0.248-0.132-0.497-0.266-0.766-0.352-1.168-0.286-2.467 0.581-2.6 1.789-0.284 1.16 0.684 2.441 1.892 2.423 0.775 0.053 1.476-0.407 1.915-1.016 0.116-0.264 0.264 0.084 0.33 0.181 0.15 0.376 0.613 0.612 0.994 0.432 0.35-0.102 0.422-0.514 0.668-0.724 0.655-0.292 1.309-0.595 1.992-0.818-0.060 0.292-0.378 0.37-0.584 0.534-0.984 0.625-1.211 2.134-0.479 3.034 0.445 0.628 1.271 0.918 2.016 0.757 1.288-0.226 2.068-1.804 1.546-2.981-0.324-0.732-1.074-1.242-1.879-1.252-0.040-0.545-0.131-1.086-0.14-1.633 0.127-0.371 0.667-0.384 0.828-0.743 0.166-0.274 0.017-0.665-0.28-0.773-0.396-0.182-0.816-0.31-1.223-0.466-0.090 0.223-0.18 0.446-0.269 0.67 0.307 0.1 0.629 0.186 0.884 0.395-0.284 0.115-0.601 0.178-0.828 0.398-0.772-0.299-1.543-0.599-2.302-0.93 0.359-0.2 0.761-0.295 1.15-0.421-0.065-0.104-0.086-0.262-0.217-0.306-0.598-0.245-1.214-0.439-1.822-0.656M5.743 12.052c-0.367 0.166-0.835 0.246-1.046 0.631-0.27 0.421 0.040 1.013 0.512 1.103 0.694 0.157 1.397 0.275 2.089 0.438 0.262-0.157 0.523-0.314 0.778-0.48-0.814-0.084-1.621-0.236-2.383-0.539 0.002-0.173-0.088-0.406 0.090-0.523 0.286-0.205 0.644-0.252 0.973-0.352 1.385-0.397 2.828-0.593 4.27-0.553 0.498 0.028 0.995 0.092 1.495 0.066-0.172-0.096-0.34-0.205-0.532-0.258-2.070-0.427-4.266-0.286-6.246 0.467M12.091 12.64c-1.216 0.431-2.442 0.83-3.649 1.286-0.41 0.128-0.667 0.64-0.424 1.022 0.377 0.474 0.998 0.654 1.422 1.080-0.029 0.042-0.088 0.126-0.118 0.169-0.974 0.229-1.968 0.368-2.945 0.589 0.39 0.178 0.79 0.331 1.182 0.5 0.686-0.188 1.384-0.332 2.070-0.518 0.433-0.114 0.666-0.676 0.372-1.039-0.372-0.42-0.922-0.618-1.344-0.978-0.16-0.206 0.094-0.3 0.248-0.372 1.405-0.546 2.838-1.024 4.231-1.598-0.33-0.113-0.698-0.311-1.046-0.142M9.791 14.576c2.654 0.46 5.335 0.775 7.987 1.248-0.803 0.401-1.723 0.482-2.558 0.803 0.37 0.234 0.769 0.415 1.166 0.599 0.547-0.242 1.103-0.463 1.654-0.695 0.235-0.102 0.508-0.217 0.604-0.478 0.152-0.359-0.149-0.78-0.529-0.802-2.557-0.395-5.123-0.734-7.682-1.108-0.221 0.133-0.438 0.274-0.641 0.432z"></path>
<path fill="#fee011" d="M11.946 6.584c0.8 0.299 1.603 0.587 2.402 0.887 0.014 0.164 0.026 0.33 0.037 0.496-0.736 0.306-1.462 0.637-2.2 0.94-0.214-0.752-0.145-1.55-0.24-2.322z"></path>
<path fill="#fee011" d="M7.3 8.935c-0.29-0.961 0.575-2.092 1.591-1.994 0.295-0.001 0.558 0.145 0.823 0.257-0.394 0.397-0.836 0.744-1.21 1.16-0.016 0.085-0.046 0.257-0.061 0.342 0.539 0.234 1.098 0.415 1.646 0.626-0.32 0.413-0.787 0.76-1.336 0.734-0.684 0.053-1.28-0.496-1.454-1.126z"></path>
<path fill="#fee011" d="M10.609 7.41c0.188-0.178 0.377-0.356 0.564-0.534 0.041 0.605 0.073 1.21 0.12 1.814-0.133 0.054-0.257 0.174-0.412 0.136-0.028-0.484-0.067-0.97-0.272-1.416z"></path>
<path fill="#fee011" d="M9.584 8.32c0.198-0.178 0.4-0.35 0.601-0.524 0.062 0.271 0.121 0.542 0.163 0.817-0.256-0.095-0.51-0.193-0.764-0.293z"></path>
<path fill="#fee011" d="M13.723 10.734c0.053-0.516 0.432-0.911 0.853-1.172 0.095 0.564 0.166 1.133 0.316 1.686 0.172-0.028 0.377 0 0.502-0.151 0.062-0.558-0.116-1.109-0.154-1.664 0.445 0.13 0.937 0.328 1.141 0.78 0.484 0.856-0.173 2.072-1.147 2.152-0.871 0.13-1.693-0.772-1.511-1.63z"></path>
<path fill="#000" d="M11.676 0.35c0.403-0.169 0.841 0.040 1.111 0.347 3.551 3.539 7.103 7.078 10.649 10.621 0.395 0.356 0.406 1.022 0.007 1.38-3.61 3.595-7.218 7.195-10.829 10.788-0.354 0.344-0.98 0.317-1.308-0.050-3.584-3.58-7.175-7.156-10.764-10.732-0.413-0.358-0.396-1.048 0.014-1.398 3.504-3.502 7.012-6.997 10.518-10.495 0.182-0.174 0.359-0.371 0.601-0.461M11.784 0.816c-0.232 0.16-0.416 0.376-0.617 0.571-3.365 3.354-6.73 6.708-10.097 10.061-0.323 0.229-0.527 0.709-0.142 0.989 3.396 3.368 6.778 6.751 10.169 10.124 0.222 0.214 0.421 0.455 0.671 0.64 0.222 0.158 0.492 0.006 0.649-0.17 3.361-3.355 6.725-6.709 10.091-10.061 0.248-0.265 0.562-0.485 0.739-0.809 0.106-0.256-0.103-0.476-0.27-0.64-3.503-3.497-7.012-6.99-10.516-10.486-0.17-0.173-0.428-0.385-0.678-0.22z"></path>
<path fill="#000" d="M10.939 4.312c0.607 0.217 1.224 0.412 1.822 0.656 0.131 0.044 0.152 0.202 0.217 0.306-0.389 0.126-0.791 0.221-1.15 0.421 0.758 0.331 1.53 0.631 2.302 0.93 0.227-0.221 0.544-0.283 0.828-0.398-0.256-0.209-0.577-0.295-0.884-0.395 0.089-0.223 0.179-0.446 0.269-0.67 0.407 0.156 0.827 0.283 1.223 0.466 0.296 0.108 0.445 0.499 0.28 0.773-0.161 0.359-0.701 0.372-0.828 0.743 0.010 0.547 0.101 1.088 0.14 1.633 0.805 0.010 1.555 0.52 1.879 1.252 0.522 1.177-0.258 2.755-1.546 2.981-0.745 0.161-1.571-0.13-2.016-0.757-0.732-0.9-0.505-2.408 0.479-3.034 0.206-0.164 0.524-0.242 0.584-0.534-0.683 0.223-1.337 0.527-1.992 0.818-0.246 0.21-0.318 0.622-0.668 0.724-0.38 0.18-0.844-0.056-0.994-0.432-0.066-0.097-0.214-0.445-0.33-0.181-0.439 0.61-1.14 1.069-1.915 1.016-1.208 0.018-2.177-1.262-1.892-2.423 0.133-1.208 1.433-2.075 2.6-1.789 0.269 0.085 0.517 0.22 0.766 0.352 0.304-0.282 0.608-0.564 0.908-0.851 0.024-0.216 0.049-0.432 0.073-0.648-0.078-0.054-0.233-0.162-0.311-0.216 0.052-0.247 0.103-0.496 0.156-0.743M11.946 6.584c0.095 0.772 0.026 1.57 0.24 2.322 0.738-0.302 1.464-0.634 2.2-0.94-0.011-0.166-0.023-0.331-0.037-0.496-0.799-0.3-1.602-0.588-2.402-0.887M7.3 8.935c0.174 0.63 0.77 1.178 1.454 1.126 0.548 0.025 1.015-0.322 1.336-0.734-0.548-0.211-1.108-0.392-1.646-0.626 0.016-0.085 0.046-0.257 0.061-0.342 0.373-0.416 0.816-0.763 1.21-1.16-0.265-0.112-0.528-0.258-0.823-0.257-1.016-0.097-1.882 1.033-1.591 1.994M10.609 7.41c0.205 0.446 0.245 0.932 0.272 1.416 0.155 0.038 0.278-0.082 0.412-0.136-0.047-0.605-0.079-1.21-0.12-1.814-0.187 0.178-0.376 0.356-0.564 0.534M9.584 8.32c0.254 0.1 0.509 0.198 0.764 0.293-0.042-0.275-0.101-0.546-0.163-0.817-0.202 0.174-0.403 0.347-0.601 0.524M13.723 10.734c-0.182 0.858 0.64 1.759 1.511 1.63 0.974-0.079 1.631-1.296 1.147-2.152-0.204-0.452-0.696-0.65-1.141-0.78 0.037 0.556 0.216 1.106 0.154 1.664-0.125 0.151-0.33 0.124-0.502 0.151-0.15-0.553-0.221-1.122-0.316-1.686-0.421 0.262-0.8 0.656-0.853 1.172z"></path>
<path fill="#000" d="M5.743 12.052c1.98-0.752 4.176-0.894 6.246-0.467 0.192 0.053 0.36 0.162 0.532 0.258-0.5 0.026-0.997-0.038-1.495-0.066-1.441-0.040-2.885 0.156-4.27 0.553-0.329 0.1-0.688 0.146-0.973 0.352-0.178 0.118-0.088 0.35-0.090 0.523 0.762 0.302 1.57 0.455 2.383 0.539-0.254 0.166-0.516 0.323-0.778 0.48-0.692-0.163-1.396-0.281-2.089-0.438-0.473-0.090-0.782-0.682-0.512-1.103 0.211-0.385 0.679-0.466 1.046-0.631z"></path>
<path fill="#000" d="M12.091 12.64c0.348-0.169 0.716 0.029 1.046 0.142-1.393 0.575-2.826 1.052-4.231 1.598-0.155 0.072-0.408 0.166-0.248 0.372 0.422 0.36 0.972 0.558 1.344 0.978 0.294 0.364 0.061 0.925-0.372 1.039-0.686 0.186-1.384 0.33-2.070 0.518-0.392-0.169-0.792-0.323-1.182-0.5 0.977-0.221 1.97-0.36 2.945-0.589 0.030-0.043 0.089-0.127 0.118-0.169-0.424-0.426-1.045-0.606-1.422-1.080-0.244-0.383 0.013-0.894 0.424-1.022 1.207-0.456 2.434-0.856 3.649-1.286z"></path>
<path fill="#000" d="M9.791 14.576c0.203-0.158 0.42-0.299 0.641-0.432 2.56 0.373 5.125 0.713 7.682 1.108 0.38 0.022 0.682 0.443 0.529 0.802-0.096 0.26-0.368 0.376-0.604 0.478-0.551 0.232-1.106 0.452-1.654 0.695-0.397-0.184-0.797-0.365-1.166-0.599 0.835-0.32 1.756-0.402 2.558-0.803-2.652-0.473-5.333-0.788-7.987-1.248z"></path>
</svg>
