<svg xmlns="http://www.w3.org/2000/svg" width="24" height="24">
    <path fill="#ef7c23" d="M11.725 0h.498c.551.214.918.689 1.327 1.09l9.301 9.3c.41.419.882.8 1.148 1.337v.504c-.22.545-.698.906-1.094 1.315-3.121 3.119-6.24 6.239-9.36 9.359-.398.394-.764.841-1.274 1.096h-.512c-.509-.217-.86-.656-1.243-1.036l-9.421-9.42c-.392-.397-.84-.763-1.094-1.273v-.512c.227-.538.692-.905 1.09-1.31C4.39 7.15 7.693 3.854 10.99.549c.217-.217.468-.398.737-.547zm-.055.388a1.645 1.645 0 0 0-.341.258C7.748 4.228 4.159 7.803.585 11.391c-.359.314-.361.907.008 1.214l10.801 10.802a.804.804 0 0 0 1.211.002c3.599-3.602 7.199-7.205 10.8-10.805.371-.307.368-.9.01-1.214C19.839 7.803 16.252 4.225 12.671.643c-.248-.268-.654-.445-1.002-.256z"/>
    <path fill="#ef7c23" d="M11.743.944c.289-.348.601.091.821.292C16.11 4.84 19.768 8.342 23.254 12c-3.551 3.677-7.226 7.237-10.817 10.878-.168.196-.469.46-.691.174-3.6-3.598-7.201-7.196-10.795-10.8-.263-.188-.084-.475.104-.636C4.623 8.064 8.169 4.488 11.743.944zM7.28 7.921c.179.577.955.091 1.393.106.065.696-.062 1.429.174 2.096.487.823 1.547.978 2.188 1.642.634.569.811 1.556.385 2.299-.557 1.264-2.326 1.402-2.75 2.752-.15.814-.042 1.65-.061 2.473.462-.001.925 0 1.388.004.041-.797-.188-1.746.426-2.384.565-.559 1.249-.988 1.781-1.584 1.037-.98 1.232-2.705.506-3.919-.56-.988-1.631-1.458-2.587-1.958-.054-.485-.017-.974-.026-1.462.396.022 1.34.506 1.361-.137-.628-1.246-1.298-2.485-2.088-3.637a26.417 26.417 0 0 0-2.089 3.71zm5.421-.489c-.092.223-.35.54-.088.738.427.091.852-.1 1.271-.164.06.689-.052 1.406.154 2.075.505.928 1.73 1.038 2.36 1.85.557.601.608 1.55.178 2.237-.595 1.17-2.252 1.327-2.686 2.615-.173.821-.04 1.672-.077 2.506.468.001.937.001 1.406-.001.019-.762-.182-1.646.338-2.29.473-.532 1.1-.894 1.594-1.408 1.087-.868 1.496-2.437.995-3.73-.468-1.219-1.674-1.907-2.822-2.376a23.16 23.16 0 0 1-.007-1.514c.404.042 1.198.492 1.367-.055-.586-1.282-1.325-2.503-2.078-3.696-.776.977-1.279 2.138-1.904 3.214z"/>
    <path d="M11.67.388c.348-.19.754-.012 1.002.256 3.581 3.582 7.168 7.16 10.744 10.747.359.314.361.907-.01 1.214-3.601 3.6-7.201 7.202-10.8 10.805a.804.804 0 0 1-1.211-.002L.594 12.606c-.37-.307-.367-.9-.008-1.214C4.16 7.804 7.749 4.229 11.33.647a1.62 1.62 0 0 1 .341-.258zm.073.556C8.168 4.488 4.622 8.064 1.055 11.616c-.188.161-.367.448-.104.636 3.594 3.604 7.195 7.202 10.795 10.8.222.286.523.022.691-.174 3.59-3.641 7.266-7.201 10.817-10.878-3.486-3.658-7.144-7.16-10.69-10.764-.22-.2-.532-.64-.821-.292z"/>
    <path d="M7.28 7.921a26.46 26.46 0 0 1 2.089-3.71c.79 1.152 1.46 2.392 2.088 3.637-.02.643-.965.158-1.361.137.01.487-.028.977.026 1.462.956.5 2.027.971 2.587 1.958.726 1.214.53 2.939-.506 3.919-.532.596-1.216 1.025-1.781 1.584-.614.638-.385 1.588-.426 2.384-.463-.004-.926-.005-1.388-.004.019-.823-.089-1.66.061-2.473.425-1.35 2.194-1.488 2.75-2.752.426-.743.248-1.73-.385-2.299-.641-.664-1.7-.818-2.188-1.642-.236-.667-.109-1.4-.174-2.096-.438-.014-1.214.472-1.393-.106z"/>
    <path d="M12.701 7.432c.625-1.075 1.128-2.237 1.904-3.214.754 1.193 1.493 2.414 2.078 3.696-.169.547-.962.097-1.367.055a23.16 23.16 0 0 0 .007 1.514c1.148.469 2.354 1.157 2.822 2.376.502 1.292.092 2.862-.995 3.73-.493.514-1.121.876-1.594 1.408-.521.643-.319 1.528-.338 2.29-.469.002-.938.002-1.406.001.037-.834-.096-1.685.077-2.506.433-1.288 2.09-1.445 2.686-2.615.431-.686.379-1.636-.178-2.237-.63-.812-1.855-.923-2.36-1.85-.205-.668-.094-1.386-.154-2.075-.419.065-.844.256-1.271.164-.263-.198-.005-.515.088-.738z"/>
</svg>
