<svg xmlns="http://www.w3.org/2000/svg" width="24" height="24">
    <path fill="#dcb22c" opacity=".86" d="M11.843 0h.548c.511.198.858.637 1.238 1.01l9.299 9.301c.39.4.85.762 1.072 1.292v.498c-.109.241-.24.476-.428.665-3.607 3.596-7.206 7.201-10.807 10.804a2.439 2.439 0 0 1-.631.43h-.506c-.498-.174-.826-.602-1.188-.958L.96 13.56c-.35-.354-.757-.679-.959-1.15v-.54c.173-.466.563-.786.9-1.129l9.721-9.72C11 .648 11.348.221 11.844 0zm-.047.289c-.18.082-.324.222-.466.358C7.732 4.252 4.125 7.846.53 11.453c-.389.34-.402.998-.011 1.34 3.56 3.565 7.124 7.126 10.686 10.69.349.385.992.364 1.336-.018 3.638-3.644 7.288-7.278 10.922-10.924.414-.368.384-1.051-.038-1.4-3.524-3.52-7.044-7.044-10.568-10.564-.258-.299-.686-.438-1.061-.288z"/>
    <path d="M11.796.289c.374-.15.803-.011 1.061.288 3.524 3.52 7.044 7.044 10.568 10.564.422.349.452 1.032.038 1.4-3.635 3.646-7.284 7.279-10.922 10.924-.343.382-.986.403-1.336.018-3.562-3.564-7.126-7.124-10.686-10.69-.391-.342-.378-1.001.011-1.34C4.125 7.846 7.732 4.252 11.33.647c.142-.136.286-.276.466-.358zm.016.351C8.114 4.263 4.479 7.956.81 11.613c-.3.23-.374.704-.067.965 3.562 3.558 7.12 7.121 10.682 10.678.232.27.67.253.893-.017 3.638-3.642 7.278-7.283 10.921-10.92.301-.252.259-.722-.038-.958C19.687 7.834 16.162 4.319 12.642.799c-.202-.229-.564-.362-.83-.158z"/>
    <path d="M6.794 7.397c1.771-1.326 4.559-1.152 6.076.494.334.382.443 1.012.974 1.182.599.037 1.253-.252 1.805.109.709.479.934 1.358 1.104 2.147.57 1.259 1.732 2.207 2.09 3.571-.48-.113-.635-.671-.931-1.009-.766-1.045-1.538-2.336-2.896-2.641-.882-.247-1.55.61-2.408.614-.875-.034-1.547.689-2.419.64-.988-.029-1.48 1.438-.722 2.042.534.232 1.361-.191 1.681.476l-.412-.008c.179.205.511.365.448.686a2.586 2.586 0 0 0-1.31-.404c.182.235.427.454.434.774a10.673 10.673 0 0 1-1.516-.982c-.013-.419.062-.886-.181-1.254-.216-.335-.733-.011-.725.324.007.546.306 1.031.45 1.547.464.025.958.049 1.34.347-.253-.008-.508-.024-.761-.012.266.21.535.426.718.718a4.575 4.575 0 0 1-1.152-.286c.098.331.188.674.126 1.021-.418-.547-.823-1.108-1.379-1.531a2.563 2.563 0 0 0-.277-2.512c-.529-.593-1.499-.812-1.693-1.675-.301-1.584.232-3.376 1.536-4.379zm8.189 2.688c.133.224.382.218.517-.001-.13-.242-.39-.244-.517.001z"/>
    <path fill="#ffd033" d="M11.812.64c.266-.204.629-.071.83.158 3.52 3.521 7.045 7.036 10.559 10.562.298.235.34.706.038.958a11243.69 11243.69 0 0 0-10.921 10.92c-.223.27-.661.287-.893.017-3.563-3.557-7.121-7.12-10.682-10.678-.307-.26-.233-.734.067-.965C4.478 7.956 8.113 4.262 11.812.639zM6.794 7.397C5.49 8.4 4.957 10.192 5.258 11.776c.194.863 1.164 1.082 1.693 1.675a2.56 2.56 0 0 1 .277 2.512c.556.424.961.984 1.379 1.531.062-.347-.028-.69-.126-1.021.37.148.757.238 1.152.286-.182-.292-.451-.508-.718-.718.253-.012.508.004.761.012-.383-.298-.876-.322-1.34-.347-.144-.516-.443-1.001-.45-1.547-.008-.335.509-.659.725-.324.244.368.168.835.181 1.254.473.374.988.692 1.516.982-.007-.32-.252-.539-.434-.774.467.019.919.15 1.31.404.064-.322-.269-.481-.448-.686l.412.008c-.32-.667-1.147-.245-1.681-.476-.757-.605-.265-2.071.722-2.042.872.049 1.544-.673 2.419-.64.858-.005 1.526-.862 2.408-.614 1.357.305 2.13 1.596 2.896 2.641.296.338.451.896.931 1.009-.359-1.364-1.52-2.312-2.09-3.571-.17-.788-.395-1.668-1.104-2.147-.552-.361-1.206-.072-1.805-.109-.532-.17-.641-.8-.974-1.182-1.517-1.646-4.304-1.82-6.076-.494z"/>
    <path fill="#ffd033" d="M14.983 10.085c.127-.245.388-.244.517-.001-.136.22-.384.226-.517.001z"/>
</svg>
