<svg xmlns="http://www.w3.org/2000/svg" width="24" height="24">
    <path fill="#c6a519" opacity=".78" d="M11.803 0h.455c.476.26.824.683 1.206 1.056l9.6 9.601c.326.328.674.641.936 1.026v.686c-.425.565-.976 1.019-1.46 1.531-3.39 3.358-6.718 6.782-10.146 10.099h-.712c-.382-.266-.689-.619-1.019-.943l-9.659-9.66C.654 13.04.267 12.711 0 12.282v-.469c.181-.41.54-.695.845-1.008L10.744.904c.332-.324.635-.696 1.06-.905zm-.121.276C7.916 3.905 4.276 7.675.554 11.353c-.371.272-.506.853-.146 1.192 3.7 3.702 7.399 7.404 11.102 11.101a.717.717 0 0 0 1.057-.035l11.044-11.044c.343-.288.314-.833-.02-1.115C19.956 7.805 16.308 4.17 12.673.524c-.236-.282-.649-.434-.991-.248z"/>
    <path d="M11.682.276c.342-.186.755-.034.991.248 3.635 3.647 7.283 7.282 10.918 10.928.335.282.364.827.02 1.115L12.567 23.611a.717.717 0 0 1-1.057.035C7.807 19.949 4.107 16.247.408 12.545c-.36-.338-.224-.919.146-1.192C4.275 7.675 7.916 3.905 11.682.276zm.344.253c-.186-.006-.312.15-.439.26C7.969 4.411 4.347 8.026.731 11.648c-.196.156-.294.469-.08.655 3.676 3.688 7.363 7.366 11.045 11.048.155.202.469.227.634.02 3.685-3.677 7.367-7.36 11.045-11.044.241-.193.138-.533-.076-.7-3.62-3.623-7.243-7.243-10.864-10.865-.118-.102-.239-.242-.408-.235z"/>
    <path d="M4.914 11.538c2.369-2.357 4.722-4.73 7.098-7.08.529.503 1.037 1.027 1.555 1.542-.89.884-1.772 1.775-2.664 2.658.217.334.546.574.814.865 1.453 1.376 2.294 3.359 2.316 5.356.001 1.6.01 3.199.006 4.799-.756.004-1.511.006-2.266-.001-.025-1.802.046-3.607-.037-5.407-.137-1.649-1.268-2.962-2.49-3.967-.926.932-1.86 1.858-2.784 2.794a16.615 16.615 0 0 1-1.548-1.558z"/>
    <path fill="#ffd520" d="M12.026.529c.169-.007.29.133.408.235 3.62 3.622 7.243 7.242 10.864 10.865.214.167.317.506.076.7-3.678 3.684-7.36 7.367-11.045 11.044-.164.206-.479.181-.634-.02C8.013 19.67 4.326 15.992.65 12.305c-.214-.186-.115-.499.08-.655C4.347 8.028 7.968 4.413 11.586.791c.127-.11.253-.266.439-.26zM4.914 11.538a16.615 16.615 0 0 0 1.548 1.558c.924-.936 1.858-1.861 2.784-2.794 1.222 1.006 2.353 2.318 2.49 3.967.083 1.8.012 3.605.037 5.407.755.007 1.51.005 2.266.001.004-1.6-.005-3.199-.006-4.799-.022-1.997-.863-3.979-2.316-5.356-.268-.292-.596-.532-.814-.865.892-.883 1.774-1.774 2.664-2.658-.518-.515-1.026-1.039-1.555-1.542-2.376 2.35-4.729 4.723-7.098 7.08z"/>
</svg>
