<?xml version="1.0" encoding="utf-8"?>
<!-- Generated by IcoMoon.io -->
<!DOCTYPE svg PUBLIC "-//W3C//DTD SVG 1.1//EN" "http://www.w3.org/Graphics/SVG/1.1/DTD/svg11.dtd">
<svg version="1.1" xmlns="http://www.w3.org/2000/svg" xmlns:xlink="http://www.w3.org/1999/xlink" width="24" height="24" viewBox="0 0 24 24">
<path fill="#e20a16" d="M11.899 1.5h0.167c0.522 0.092 0.71 0.63 0.954 1.028 3.583 6.218 7.175 12.432 10.76 18.648 0.077 0.14 0.151 0.282 0.22 0.427v0.337c-0.11 0.293-0.352 0.496-0.659 0.559h-22.562c-0.433-0.006-0.841-0.373-0.763-0.827 0.116-0.4 0.368-0.739 0.566-1.1 3.456-5.986 6.913-11.971 10.366-17.96 0.257-0.413 0.436-0.959 0.952-1.112M3.098 20.395c5.94 0.001 11.88 0.001 17.82 0-2.971-5.143-5.939-10.288-8.911-15.431-2.97 5.143-5.941 10.286-8.909 15.431z"></path>
<path fill="#fff" d="M3.098 20.395c2.968-5.144 5.939-10.288 8.909-15.431 2.972 5.143 5.94 10.288 8.911 15.431-5.94 0.001-11.88 0.001-17.82 0M9.732 10.261c0.091 0.162 0.222 0.289 0.401 0.347 0.118-0.181 0.146-0.384 0.077-0.588-0.163 0.072-0.323 0.154-0.478 0.241M10.508 9.973c0.049 0.143 0.12 0.274 0.214 0.391 0.1-0.061 0.197-0.126 0.292-0.196-0.166-0.071-0.335-0.137-0.505-0.196M11.12 10.488c0.157 0.028 0.353 0.27 0.497 0.113 0.058-0.172 0.134-0.404-0.010-0.554-0.284-0.079-0.352 0.271-0.487 0.442M11.924 10.139c0.104 0.14 0.217 0.272 0.338 0.396 0.146-0.108 0.138-0.29 0.155-0.451-0.166 0.008-0.33 0.024-0.493 0.055M12.775 10.266c0.144 0.101 0.557 0.307 0.566 0.002-0.054-0.336-0.426-0.179-0.566-0.002M13.639 10.086c0.025 0.162 0.059 0.323 0.103 0.482 0.15 0.024 0.3 0.040 0.452 0.046 0.013-0.164 0.070-0.338-0.006-0.496-0.181-0.035-0.366-0.030-0.55-0.032M10.457 10.634c-0.026 0.112-0.053 0.223-0.079 0.335 0.149 0.054 0.299 0.138 0.462 0.097 0.032-0.134 0.050-0.27 0.056-0.407-0.088-0.212-0.288-0.054-0.439-0.025M12.674 10.576c-0.007 0.121-0.013 0.242-0.018 0.364 0.133 0.032 0.266 0.064 0.402 0.090-0.002-0.097-0.005-0.292-0.006-0.39-0.126-0.022-0.252-0.043-0.378-0.064M11.946 10.698c-0.347 0.136 0.222 0.545 0.284 0.277 0.136-0.184-0.16-0.25-0.284-0.277M13.369 10.94c0.056 0.194 0.292 0.11 0.406 0.023 0.023-0.208-0.224-0.248-0.341-0.362-0.020 0.112-0.148 0.228-0.065 0.34M9.768 11.442c0.143 0.040 0.286 0.074 0.431 0.108 0.167-0.274 0.091-0.626-0.223-0.749-0.229 0.133-0.168 0.42-0.208 0.641M11.204 10.937c0.017 0.094 0.050 0.281 0.068 0.376 0.106-0.038 0.211-0.073 0.313-0.119-0.046-0.186-0.216-0.228-0.382-0.257M13.926 11.048c-0.025 0.264 0.016 0.524 0.254 0.678 0.188-0.253 0.175-0.805-0.254-0.678M12.312 11.3c0.060 0.23 0.083 0.586 0.412 0.554 0.293-0.107 0.103-0.449-0.048-0.594-0.122 0.007-0.244 0.020-0.364 0.040M13.097 11.32c0.046 0.347 0.224 0.707 0.626 0.71 0.1-0.25 0.024-0.494-0.089-0.724-0.179 0.002-0.359 0.006-0.538 0.013M10.639 11.747c0.121 0.11 0.288 0.139 0.445 0.103 0.073-0.258-0.102-0.448-0.299-0.587-0.064 0.152-0.254 0.307-0.146 0.484M11.476 11.944c-0.040 0.284 0.436 0.379 0.583 0.188 0.208-0.187 0.048-0.467 0.024-0.694-0.324-0.076-0.653 0.154-0.607 0.505M9.883 12.245c0.22 0.242 0.523 0.010 0.695-0.172-0.095-0.112-0.181-0.23-0.289-0.33-0.248-0.034-0.65 0.263-0.406 0.502M10.769 12.104c0.038 0.204-0.010 0.514 0.257 0.575 0.203 0.121 0.33-0.149 0.462-0.252-0.203-0.18-0.442-0.316-0.719-0.323M13.010 12.13c-0.218 0.187 0.050 0.556 0.272 0.36 0.24-0.145-0.070-0.512-0.272-0.36M13.662 12.394c0.097 0.222 0.404 0.113 0.593 0.128-0.001-0.084-0.004-0.251-0.005-0.335-0.215-0.011-0.529-0.079-0.588 0.206M11.818 12.592c0.193 0.481 1.087 0.188 0.817-0.348-0.284 0.084-0.568 0.184-0.817 0.348M10.276 12.604c-0.233 0.132 0.024 0.569 0.275 0.397 0.312-0.128-0.065-0.541-0.275-0.397M9.763 12.702c-0.131 0.182 0.005 0.368 0.077 0.541 0.106-0.161 0.292-0.59-0.077-0.541M11.249 12.998c-0.095 0.382 0.445 0.479 0.593 0.152-0.112-0.208-0.414-0.412-0.593-0.152M12.694 13.085c0.062 0.060 0.187 0.179 0.25 0.239 0.23-0.025 0.398-0.143 0.392-0.395-0.241-0.059-0.479-0.050-0.642 0.156M13.55 13.26c0.18 0.103 0.407 0.27 0.613 0.127 0.264-0.077 0.139-0.535-0.124-0.488-0.258-0.064-0.379 0.181-0.49 0.361M11.964 13.41c-0.029 0.214 0.238 0.272 0.395 0.314 0.082-0.095 0.148-0.202 0.217-0.306-0.106-0.126-0.214-0.252-0.323-0.376-0.108 0.11-0.282 0.192-0.289 0.367M9.805 13.913c0.146-0.024 0.331 0.024 0.44-0.103 0.132-0.215-0.090-0.401-0.179-0.58-0.265 0.138-0.331 0.408-0.262 0.683M10.614 13.7c0.212 0.060 0.385-0.088 0.556-0.186-0.133-0.11-0.266-0.373-0.475-0.254-0.203 0.034-0.169 0.312-0.080 0.44M12.684 13.75c-0.002 0.054-0.010 0.164-0.012 0.22 0.275 0.13 0.942 0.098 0.835-0.318-0.25-0.258-0.565-0.001-0.823 0.098M11.281 13.741c-0.306 0.054-0.095 0.461 0.128 0.457 0.238 0.067 0.443-0.040 0.595-0.214-0.154-0.266-0.437-0.407-0.724-0.244M13.566 14.25c0.206 0.086 0.425 0.142 0.652 0.126 0.004-0.215 0.155-0.502-0.076-0.649-0.328-0.091-0.466 0.294-0.576 0.523M10.21 14.064c0.102 0.354 0.491 0.404 0.806 0.35-0.072-0.145-0.146-0.292-0.246-0.42-0.19-0.060-0.379 0.025-0.56 0.070M12.43 14.394c0.035-0.080 0.104-0.241 0.14-0.322-0.119-0.041-0.239-0.078-0.36-0.112-0.102 0.199 0.043 0.35 0.22 0.433M9.772 14.231c-0.109 0.175 0.184 0.373 0.308 0.212 0.109-0.173-0.185-0.373-0.308-0.212M12.87 14.303c0.013 0.166 0.342 0.226 0.352 0.032-0.030-0.158-0.343-0.242-0.352-0.032M9.736 14.638c0 1.654 0 3.307 0 4.96 1.514 0.001 3.030 0 4.544 0.001 0-1.654 0-3.307 0-4.961-1.514 0-3.030 0-4.544 0z"></path>
<path fill="#fff" d="M11.848 15.538c0.080 0 0.24 0 0.32 0 0 0.444 0 0.888 0 1.331-0.080 0.001-0.24 0.001-0.32 0.001 0-0.444 0-0.888 0-1.332z"></path>
<path fill="#fff" d="M11.848 17.777c0.080 0 0.24 0 0.32 0.001 0 0.444 0 0.888 0 1.332-0.080 0-0.24 0-0.32 0 0-0.445 0-0.889 0-1.333z"></path>
<path fill="#000" d="M9.732 10.261c0.155-0.088 0.314-0.169 0.478-0.241 0.070 0.204 0.041 0.407-0.077 0.588-0.179-0.058-0.31-0.185-0.401-0.347z"></path>
<path fill="#000" d="M10.508 9.973c0.17 0.059 0.34 0.125 0.505 0.196-0.095 0.070-0.192 0.134-0.292 0.196-0.094-0.118-0.164-0.248-0.214-0.391z"></path>
<path fill="#000" d="M11.12 10.488c0.136-0.17 0.203-0.521 0.487-0.442 0.144 0.15 0.067 0.383 0.010 0.554-0.144 0.157-0.34-0.085-0.497-0.113z"></path>
<path fill="#000" d="M11.924 10.139c0.163-0.031 0.328-0.047 0.493-0.055-0.017 0.161-0.008 0.343-0.155 0.451-0.121-0.124-0.234-0.256-0.338-0.396z"></path>
<path fill="#000" d="M12.775 10.266c0.14-0.176 0.512-0.334 0.566 0.002-0.010 0.305-0.422 0.098-0.566-0.002z"></path>
<path fill="#000" d="M13.639 10.086c0.184 0.002 0.368-0.002 0.55 0.032 0.076 0.157 0.019 0.331 0.006 0.496-0.152-0.006-0.302-0.022-0.452-0.046-0.044-0.16-0.078-0.32-0.103-0.482z"></path>
<path fill="#000" d="M10.457 10.634c0.151-0.029 0.352-0.187 0.439 0.025-0.006 0.137-0.024 0.272-0.056 0.407-0.163 0.041-0.313-0.043-0.462-0.097 0.026-0.112 0.053-0.223 0.079-0.335z"></path>
<path fill="#000" d="M12.674 10.576c0.126 0.020 0.252 0.042 0.378 0.064 0.001 0.098 0.004 0.293 0.006 0.39-0.136-0.026-0.269-0.058-0.402-0.090 0.005-0.121 0.011-0.242 0.018-0.364z"></path>
<path fill="#000" d="M11.946 10.698c0.125 0.028 0.42 0.094 0.284 0.277-0.062 0.268-0.631-0.142-0.284-0.277z"></path>
<path fill="#000" d="M13.369 10.94c-0.083-0.112 0.044-0.228 0.065-0.34 0.116 0.114 0.364 0.155 0.341 0.362-0.114 0.088-0.349 0.172-0.406-0.023z"></path>
<path fill="#000" d="M9.768 11.442c0.040-0.221-0.022-0.508 0.208-0.641 0.314 0.122 0.39 0.475 0.223 0.749-0.145-0.034-0.288-0.068-0.431-0.108z"></path>
<path fill="#000" d="M11.204 10.937c0.166 0.029 0.336 0.071 0.382 0.257-0.102 0.046-0.208 0.080-0.313 0.119-0.018-0.095-0.052-0.282-0.068-0.376z"></path>
<path fill="#000" d="M13.926 11.048c0.43-0.127 0.443 0.425 0.254 0.678-0.239-0.154-0.28-0.414-0.254-0.678z"></path>
<path fill="#000" d="M12.312 11.3c0.12-0.019 0.241-0.032 0.364-0.040 0.151 0.145 0.341 0.487 0.048 0.594-0.329 0.031-0.352-0.324-0.412-0.554z"></path>
<path fill="#000" d="M13.097 11.32c0.179-0.007 0.359-0.011 0.538-0.013 0.113 0.229 0.188 0.474 0.089 0.724-0.402-0.004-0.581-0.364-0.626-0.71z"></path>
<path fill="#000" d="M10.639 11.747c-0.108-0.176 0.083-0.331 0.146-0.484 0.197 0.139 0.372 0.329 0.299 0.587-0.157 0.036-0.324 0.007-0.445-0.103z"></path>
<path fill="#000" d="M11.476 11.944c-0.046-0.352 0.283-0.581 0.607-0.505 0.024 0.227 0.184 0.506-0.024 0.694-0.148 0.191-0.623 0.096-0.583-0.188z"></path>
<path fill="#000" d="M9.883 12.245c-0.245-0.239 0.157-0.535 0.406-0.502 0.108 0.1 0.194 0.218 0.289 0.33-0.172 0.181-0.475 0.414-0.695 0.172z"></path>
<path fill="#000" d="M10.769 12.104c0.277 0.007 0.516 0.143 0.719 0.323-0.132 0.103-0.259 0.373-0.462 0.252-0.266-0.061-0.218-0.371-0.257-0.575z"></path>
<path fill="#000" d="M13.010 12.13c0.203-0.152 0.512 0.215 0.272 0.36-0.222 0.196-0.491-0.173-0.272-0.36z"></path>
<path fill="#000" d="M13.662 12.394c0.059-0.286 0.373-0.217 0.588-0.206 0.001 0.084 0.004 0.251 0.005 0.335-0.188-0.016-0.496 0.094-0.593-0.128z"></path>
<path fill="#000" d="M11.818 12.592c0.25-0.164 0.533-0.264 0.817-0.348 0.27 0.536-0.624 0.829-0.817 0.348z"></path>
<path fill="#000" d="M10.276 12.604c0.21-0.144 0.587 0.269 0.275 0.397-0.251 0.172-0.508-0.265-0.275-0.397z"></path>
<path fill="#000" d="M9.763 12.702c0.368-0.049 0.182 0.38 0.077 0.541-0.072-0.173-0.208-0.359-0.077-0.541z"></path>
<path fill="#000" d="M11.249 12.998c0.179-0.259 0.481-0.055 0.593 0.152-0.148 0.326-0.688 0.229-0.593-0.152z"></path>
<path fill="#000" d="M12.694 13.085c0.163-0.206 0.401-0.215 0.642-0.156 0.006 0.252-0.162 0.37-0.392 0.395-0.062-0.060-0.187-0.179-0.25-0.239z"></path>
<path fill="#000" d="M13.55 13.26c0.11-0.18 0.232-0.425 0.49-0.361 0.263-0.047 0.388 0.412 0.124 0.488-0.206 0.143-0.433-0.024-0.613-0.127z"></path>
<path fill="#000" d="M11.964 13.41c0.007-0.175 0.181-0.257 0.289-0.367 0.109 0.124 0.217 0.25 0.323 0.376-0.070 0.104-0.136 0.211-0.217 0.306-0.157-0.042-0.424-0.101-0.395-0.314z"></path>
<path fill="#000" d="M9.805 13.913c-0.070-0.275-0.004-0.545 0.262-0.683 0.089 0.179 0.311 0.365 0.179 0.58-0.109 0.127-0.294 0.079-0.44 0.103z"></path>
<path fill="#000" d="M10.614 13.7c-0.089-0.128-0.122-0.407 0.080-0.44 0.209-0.119 0.342 0.144 0.475 0.254-0.17 0.098-0.343 0.246-0.556 0.186z"></path>
<path fill="#000" d="M12.684 13.75c0.258-0.1 0.574-0.356 0.823-0.098 0.107 0.416-0.56 0.448-0.835 0.318 0.002-0.055 0.010-0.166 0.012-0.22z"></path>
<path fill="#000" d="M11.281 13.741c0.287-0.163 0.57-0.023 0.724 0.244-0.152 0.174-0.358 0.281-0.595 0.214-0.223 0.004-0.434-0.403-0.128-0.457z"></path>
<path fill="#000" d="M13.566 14.25c0.11-0.229 0.248-0.614 0.576-0.523 0.23 0.148 0.079 0.434 0.076 0.649-0.227 0.016-0.445-0.040-0.652-0.126z"></path>
<path fill="#000" d="M10.21 14.064c0.181-0.044 0.371-0.13 0.56-0.070 0.1 0.128 0.174 0.275 0.246 0.42-0.316 0.054-0.704 0.004-0.806-0.35z"></path>
<path fill="#000" d="M12.43 14.394c-0.176-0.083-0.322-0.234-0.22-0.433 0.121 0.034 0.241 0.071 0.36 0.112-0.036 0.080-0.106 0.241-0.14 0.322z"></path>
<path fill="#000" d="M9.772 14.231c0.124-0.161 0.418 0.040 0.308 0.212-0.125 0.161-0.418-0.037-0.308-0.212z"></path>
<path fill="#000" d="M12.87 14.303c0.008-0.21 0.322-0.126 0.352 0.032-0.010 0.193-0.338 0.133-0.352-0.032z"></path>
<path fill="#000" d="M9.736 14.638c1.514 0 3.030 0 4.544 0 0 1.654 0 3.307 0 4.961-1.514-0.001-3.030 0-4.544-0.001 0-1.652 0-3.306 0-4.96M11.848 15.538c0 0.444 0 0.888 0 1.332 0.080 0 0.24 0 0.32-0.001 0-0.443 0-0.887 0-1.331-0.080 0-0.24 0-0.32 0M11.848 17.777c0 0.444 0 0.888 0 1.333 0.080 0 0.24 0 0.32 0 0-0.444 0-0.888 0-1.332-0.080-0.001-0.24-0.001-0.32-0.001z"></path>
</svg>
