<?xml version="1.0" encoding="utf-8"?>
<!-- Generated by IcoMoon.io -->
<!DOCTYPE svg PUBLIC "-//W3C//DTD SVG 1.1//EN" "http://www.w3.org/Graphics/SVG/1.1/DTD/svg11.dtd">
<svg version="1.1" xmlns="http://www.w3.org/2000/svg" xmlns:xlink="http://www.w3.org/1999/xlink" width="24" height="24" viewBox="0 0 24 24">
<path fill="#ce252c" d="M10.53 2.008c0.527-0.653 1.506-0.852 2.262-0.506 0.428 0.179 0.743 0.544 0.967 0.94 3.139 5.459 6.286 10.914 9.428 16.37 0.247 0.446 0.55 0.869 0.71 1.358 0.24 0.746-0.055 1.614-0.676 2.086-0.332 0.269-0.761 0.37-1.175 0.425h-20.011c-0.966 0.012-1.884-0.712-2.005-1.684-0.136-0.725 0.29-1.366 0.64-1.958 3.030-5.25 6.053-10.504 9.078-15.756 0.256-0.427 0.47-0.883 0.781-1.274M2.462 20.414c6.355 0.002 12.71 0.002 19.064 0-3.174-5.516-6.349-11.033-9.532-16.546-3.181 5.513-6.356 11.030-9.533 16.546z"></path>
<path fill="#ffd100" d="M2.462 20.414c3.176-5.515 6.352-11.033 9.533-16.546 3.182 5.513 6.358 11.029 9.532 16.546-6.354 0.002-12.709 0.002-19.064 0M8.040 13.553c-0.138 0.829-0.238 1.664-0.366 2.496-0.187-0.002-0.376-0.002-0.563 0 0-0.176 0-0.352 0-0.527-0.082-0.001-0.246-0.002-0.329-0.004 0-0.269 0-0.538 0-0.806-0.091 0-0.272 0-0.364 0-0.001 0.269 0 0.538 0 0.806-0.083 0.001-0.247 0.002-0.329 0.004 0 0.16 0.001 0.319 0.001 0.479-0.274 0.026-0.674 0.024-0.746 0.364-0.055 0.534-0.002 1.074-0.032 1.609 0.313-0.298 0.721-0.551 1.174-0.47 0.493 0.042 0.848 0.428 1.057 0.847 0.295 0.001 0.589 0.001 0.884 0.004 0.038-0.408 0.098-0.835 0.359-1.166 0.511-0.719 1.586-0.949 2.333-0.466 0.581 0.323 0.862 0.988 0.874 1.631 0.658-0.001 1.315-0.002 1.973 0.001 0.296-0.284 0.557-0.613 0.895-0.851 1.43-0.038 2.863-0.002 4.295-0.016-0.484-0.833-0.962-1.668-1.441-2.503-1.327-0.001-2.654 0-3.982 0-0.001-0.152-0.002-0.305-0.001-0.457-0.089 0-0.265 0.001-0.354 0.001 0.002 1.085 0 2.171 0.001 3.256-0.314 0-0.629 0-0.942-0.001-0.113-0.39-0.343-0.726-0.49-1.099-0.18-1.042-0.289-2.095-0.462-3.137-0.026-0.292-0.278-0.541-0.574-0.544-0.754-0.023-1.511-0.017-2.264-0.004-0.311-0.007-0.586 0.241-0.607 0.553M9.648 16.753c-0.5 0.18-0.88 0.635-0.985 1.153-0.193 0.82 0.382 1.7 1.201 1.873 0.989 0.257 2.034-0.646 1.922-1.661-0.031-1.021-1.198-1.768-2.138-1.366M6.047 17.712c-0.767 0.18-1.051 1.249-0.48 1.788 0.529 0.584 1.615 0.307 1.792-0.463 0.253-0.761-0.55-1.57-1.312-1.325M16.726 17.699c-0.775 0.14-1.116 1.201-0.563 1.766 0.503 0.613 1.612 0.373 1.812-0.396 0.277-0.745-0.485-1.572-1.249-1.37M18.302 18.402c-0.256 0.661 0.306 1.44 1.010 1.417 0.371 0.030 0.661-0.222 0.912-0.457-0.114-0.211-0.229-0.421-0.335-0.635-0.092 0.254-0.248 0.569-0.57 0.545-0.43 0.034-0.703-0.542-0.414-0.858 0.166-0.242 0.47-0.18 0.718-0.149-0.137-0.204-0.263-0.414-0.392-0.622-0.398 0.11-0.808 0.332-0.929 0.758M19.123 18.391c-0.265 0.133-0.283 0.558-0.018 0.701 0.257 0.185 0.655-0.062 0.608-0.374 0-0.284-0.352-0.466-0.59-0.326z"></path>
<path fill="#ffd100" d="M8.49 13.741c0.29-0.314 0.8-0.122 1.182-0.174 0.074 0.776 0.149 1.553 0.223 2.329-0.588 0-1.176 0-1.764 0 0.134-0.715 0.157-1.456 0.359-2.155z"></path>
<path fill="#ffd100" d="M10.027 13.562c0.337 0.055 0.902-0.146 1.051 0.281 0.142 0.677 0.204 1.369 0.318 2.053-0.382 0-0.764-0.001-1.146 0-0.073-0.778-0.149-1.556-0.223-2.334z"></path>
<path fill="#ffd100" d="M10.139 17.371c0.658-0.084 1.175 0.713 0.827 1.277-0.276 0.552-1.132 0.599-1.462 0.078-0.394-0.509-0.005-1.327 0.635-1.355M9.983 17.546c-0.534 0.156-0.671 0.948-0.203 1.261 0.395 0.332 1.066 0.062 1.138-0.443 0.121-0.514-0.442-1.008-0.935-0.818z"></path>
<path fill="#ffd100" d="M6.050 18.296c0.362-0.257 0.906 0.12 0.802 0.548-0.053 0.365-0.526 0.564-0.821 0.341-0.316-0.193-0.302-0.71 0.019-0.889M6.15 18.384c-0.28 0.128-0.301 0.575-0.018 0.713 0.253 0.179 0.644-0.074 0.598-0.379-0.005-0.276-0.338-0.463-0.58-0.334z"></path>
<path fill="#ffd100" d="M16.718 18.275c0.353-0.208 0.834 0.138 0.766 0.536-0.029 0.37-0.497 0.601-0.804 0.388-0.352-0.19-0.328-0.764 0.038-0.924M16.806 18.37c-0.242 0.095-0.337 0.433-0.162 0.632 0.161 0.22 0.538 0.194 0.659-0.053 0.208-0.305-0.161-0.736-0.497-0.58z"></path>
<path fill="#000" d="M8.040 13.553c0.022-0.312 0.296-0.56 0.607-0.553 0.754-0.013 1.511-0.019 2.264 0.004 0.295 0.002 0.547 0.252 0.574 0.544 0.173 1.042 0.282 2.095 0.462 3.137 0.146 0.373 0.377 0.709 0.49 1.099 0.313 0.001 0.628 0.001 0.942 0.001-0.001-1.085 0.001-2.171-0.001-3.256 0.089 0 0.265-0.001 0.354-0.001-0.001 0.152 0 0.305 0.001 0.457 1.327 0 2.654-0.001 3.982 0 0.479 0.835 0.958 1.67 1.441 2.503-1.432 0.013-2.864-0.023-4.295 0.016-0.338 0.238-0.599 0.566-0.895 0.851-0.658-0.004-1.315-0.002-1.973-0.001-0.012-0.643-0.293-1.308-0.874-1.631-0.746-0.484-1.822-0.253-2.333 0.466-0.26 0.331-0.32 0.758-0.359 1.166-0.295-0.002-0.589-0.002-0.884-0.004-0.209-0.419-0.564-0.805-1.057-0.847-0.452-0.080-0.86 0.173-1.174 0.47 0.030-0.535-0.023-1.075 0.032-1.609 0.072-0.34 0.473-0.337 0.746-0.364 0-0.16-0.001-0.319-0.001-0.479 0.082-0.001 0.246-0.002 0.329-0.004 0-0.269-0.001-0.538 0-0.806 0.091 0 0.272 0 0.364 0 0 0.269 0 0.538 0 0.806 0.083 0.001 0.247 0.002 0.329 0.004 0 0.175 0 0.35 0 0.527 0.187-0.002 0.376-0.002 0.563 0 0.128-0.832 0.228-1.667 0.366-2.496M8.49 13.741c-0.202 0.7-0.224 1.44-0.359 2.155 0.588 0 1.176 0 1.764 0-0.074-0.776-0.149-1.553-0.223-2.329-0.382 0.052-0.892-0.14-1.182 0.174M10.027 13.562c0.074 0.778 0.15 1.556 0.223 2.334 0.382-0.001 0.764 0 1.146 0-0.114-0.684-0.176-1.376-0.318-2.053-0.149-0.427-0.714-0.226-1.051-0.281z"></path>
<path fill="#000" d="M9.648 16.753c0.941-0.402 2.107 0.344 2.138 1.366 0.112 1.015-0.934 1.918-1.922 1.661-0.82-0.173-1.394-1.054-1.201-1.873 0.106-0.518 0.485-0.973 0.985-1.153M10.139 17.371c-0.64 0.028-1.028 0.846-0.635 1.355 0.33 0.521 1.186 0.474 1.462-0.078 0.348-0.564-0.169-1.361-0.827-1.277z"></path>
<path fill="#000" d="M9.983 17.546c0.493-0.19 1.056 0.305 0.935 0.818-0.072 0.505-0.743 0.775-1.138 0.443-0.468-0.313-0.331-1.105 0.203-1.261z"></path>
<path fill="#000" d="M6.047 17.712c0.762-0.245 1.565 0.564 1.312 1.325-0.176 0.77-1.262 1.048-1.792 0.463-0.571-0.539-0.287-1.608 0.48-1.788M6.050 18.296c-0.322 0.179-0.335 0.696-0.019 0.889 0.295 0.223 0.768 0.024 0.821-0.341 0.104-0.428-0.439-0.805-0.802-0.548z"></path>
<path fill="#000" d="M16.726 17.699c0.764-0.202 1.526 0.625 1.249 1.37-0.2 0.769-1.309 1.009-1.812 0.396-0.553-0.565-0.212-1.626 0.563-1.766M16.718 18.275c-0.366 0.16-0.39 0.734-0.038 0.924 0.307 0.214 0.775-0.018 0.804-0.388 0.068-0.398-0.413-0.744-0.766-0.536z"></path>
<path fill="#000" d="M18.302 18.402c0.121-0.426 0.53-0.648 0.929-0.758 0.13 0.208 0.256 0.418 0.392 0.622-0.247-0.031-0.552-0.094-0.718 0.149-0.289 0.316-0.016 0.892 0.414 0.858 0.322 0.024 0.478-0.29 0.57-0.545 0.106 0.214 0.221 0.424 0.335 0.635-0.251 0.235-0.541 0.487-0.912 0.457-0.704 0.023-1.266-0.756-1.010-1.417z"></path>
<path fill="#000" d="M6.15 18.384c0.241-0.13 0.575 0.058 0.58 0.334 0.047 0.305-0.344 0.558-0.598 0.379-0.283-0.138-0.262-0.584 0.018-0.713z"></path>
<path fill="#000" d="M16.806 18.37c0.336-0.156 0.704 0.275 0.497 0.58-0.121 0.247-0.498 0.272-0.659 0.053-0.175-0.199-0.080-0.538 0.162-0.632z"></path>
<path fill="#000" d="M19.123 18.391c0.239-0.139 0.59 0.042 0.59 0.326 0.047 0.312-0.352 0.559-0.608 0.374-0.265-0.143-0.247-0.568 0.018-0.701z"></path>
</svg>
