<!-- Generated by IcoMoon.io -->
<svg version="1.1" xmlns="http://www.w3.org/2000/svg" width="24" height="24" viewBox="0 0 24 24">
<title>warning--road-bump-with-speed-limit--g1</title>
<path fill="#e6ca0f" opacity="0.91" d="M11.701 0h0.569c0.283 0.127 0.546 0.3 0.766 0.521 3.235 3.246 6.48 6.482 9.719 9.725 0.446 0.46 0.973 0.871 1.246 1.468v0.539c-0.121 0.259-0.27 0.508-0.473 0.71-3.284 3.277-6.563 6.562-9.844 9.841-0.44 0.428-0.835 0.93-1.405 1.196h-0.535c-0.259-0.119-0.508-0.266-0.712-0.468-3.277-3.283-6.56-6.563-9.84-9.844-0.426-0.438-0.926-0.829-1.192-1.396v-0.571c0.238-0.587 0.752-0.98 1.18-1.422 3.26-3.262 6.524-6.518 9.78-9.784 0.215-0.214 0.469-0.384 0.742-0.516M11.672 0.283c-0.21 0.091-0.372 0.258-0.535 0.413-3.534 3.548-7.088 7.078-10.619 10.628-0.388 0.349-0.374 0.997 0.014 1.34 3.602 3.6 7.201 7.204 10.806 10.8 0.344 0.385 0.978 0.383 1.321-0.002 3.602-3.599 7.202-7.2 10.801-10.802 0.418-0.367 0.378-1.045-0.041-1.394-3.559-3.564-7.122-7.124-10.684-10.686-0.263-0.29-0.685-0.456-1.064-0.296z"></path>
<path fill="#000" d="M11.672 0.283c0.379-0.16 0.802 0.006 1.064 0.296 3.562 3.562 7.124 7.122 10.684 10.686 0.419 0.349 0.458 1.027 0.041 1.394-3.599 3.602-7.199 7.204-10.801 10.802-0.343 0.385-0.977 0.388-1.321 0.002-3.605-3.596-7.204-7.2-10.806-10.8-0.389-0.343-0.402-0.991-0.014-1.34 3.53-3.551 7.085-7.080 10.619-10.628 0.163-0.155 0.325-0.322 0.535-0.413M11.788 0.734c-3.638 3.518-7.165 7.164-10.77 10.724-0.264 0.215-0.499 0.617-0.16 0.883 3.572 3.587 7.159 7.162 10.736 10.745 0.186 0.236 0.538 0.307 0.743 0.050 3.57-3.55 7.118-7.123 10.686-10.675 0.25-0.197 0.424-0.571 0.124-0.812-3.523-3.554-7.076-7.081-10.606-10.632-0.194-0.186-0.469-0.478-0.754-0.283z"></path>
<path fill="#000" d="M7.030 8.616c0.971-1.849 2.976-3.128 5.089-3.040 2.033 0.006 3.913 1.271 4.853 3.046 0.834 0.104 1.686 0.012 2.527 0.041 0.001 0.41 0.001 0.822 0.001 1.232-5 0.002-10.002 0.001-15.002 0-0.001-0.41-0.001-0.822 0.001-1.232 0.841-0.032 1.699 0.071 2.531-0.047z"></path>
<path fill="#000" d="M8.239 11.648c0.836-0.684 2.21-0.958 3.049-0.142 0.641 0.607 0.241 1.764-0.598 1.936-0.653 0.131-1.277 0.48-1.554 1.114 0.83 0.024 1.662 0.008 2.494 0.011 0 0.252 0 0.503 0 0.754-1.126-0.002-2.251 0.001-3.377-0.002 0.022-1.136 0.803-2.233 1.931-2.496 0.341-0.062 0.877-0.292 0.644-0.724-0.55-0.625-1.536-0.336-2.123 0.092-0.156-0.181-0.311-0.361-0.467-0.542z"></path>
<path fill="#000" d="M13.363 11.105c0.737-0.276 1.686-0.018 2.057 0.71 0.437 0.876 0.434 1.987-0.035 2.85-0.623 1.091-2.506 0.956-2.93-0.244-0.425-1.103-0.338-2.797 0.908-3.317M13.705 11.786c-0.887 0.379-0.878 1.643-0.526 2.398 0.358 0.752 1.564 0.553 1.716-0.251 0.325-0.842 0.006-2.443-1.19-2.147z"></path>
<path fill="#000" d="M14.275 15.592c0.113 0.001 0.34 0.002 0.452 0.002-0.511 0.889-1.026 1.776-1.542 2.662-0.151 0-0.302 0.001-0.454 0.001 0.511-0.889 1.028-1.776 1.543-2.665z"></path>
<path fill="#000" d="M7.122 15.893c0.16-0.064 0.32-0.126 0.481-0.186 0.001 0.409 0.001 0.818 0.001 1.228 0.161-0.194 0.319-0.391 0.479-0.586 0.206-0.002 0.413-0.006 0.62-0.006-0.172 0.211-0.344 0.421-0.517 0.631 0.168 0.431 0.341 0.859 0.517 1.285-0.17-0.004-0.341-0.010-0.51-0.018-0.116-0.293-0.234-0.587-0.362-0.875-0.196 0.258-0.252 0.572-0.251 0.89-0.154-0.001-0.308-0.002-0.462-0.004 0.001-0.787-0.004-1.574 0.004-2.36z"></path>
<path fill="#000" d="M15.274 15.894c0.158-0.065 0.318-0.128 0.478-0.191-0.004 0.235-0.007 0.47-0.014 0.706 0.372-0.107 0.853-0.119 1.048 0.288 0.172 0.494 0.059 1.038 0.086 1.553-0.162 0.004-0.324 0.007-0.486 0.010-0.005-0.389 0.026-0.781-0.025-1.168-0.013-0.284-0.461-0.37-0.571-0.11-0.077 0.419-0.032 0.85-0.040 1.274-0.161 0-0.322 0-0.481 0 0.001-0.787-0.006-1.574 0.006-2.362z"></path>
<path fill="#000" d="M9.486 16.34c0.487 0.070 1.006-0.079 1.463 0.155 0.379-0.202 0.934-0.25 1.16 0.198 0.18 0.496 0.054 1.045 0.085 1.562-0.164-0.001-0.33-0.004-0.494-0.008-0.042-0.464 0.258-1.723-0.571-1.358-0.128 0.445-0.053 0.916-0.070 1.372-0.148-0.005-0.295-0.010-0.443-0.014-0.008-0.433 0.052-0.876-0.050-1.301-0.118-0.221-0.454-0.206-0.568 0.010-0.072 0.43-0.034 0.868-0.037 1.301-0.16 0-0.319 0-0.479 0-0.004-0.638-0.005-1.277 0.004-1.915z"></path>
<path fill="#fee011" d="M11.788 0.734c0.284-0.194 0.559 0.097 0.754 0.283 3.529 3.551 7.082 7.078 10.606 10.632 0.3 0.241 0.126 0.616-0.124 0.812-3.568 3.552-7.116 7.126-10.686 10.675-0.205 0.257-0.557 0.186-0.743-0.050-3.577-3.583-7.164-7.158-10.736-10.745-0.34-0.266-0.104-0.668 0.16-0.883 3.605-3.56 7.132-7.206 10.77-10.724M7.030 8.616c-0.832 0.118-1.69 0.014-2.531 0.047-0.002 0.41-0.002 0.822-0.001 1.232 5 0.001 10.002 0.002 15.002 0 0-0.41 0-0.822-0.001-1.232-0.841-0.029-1.693 0.064-2.527-0.041-0.94-1.775-2.82-3.040-4.853-3.046-2.113-0.089-4.118 1.19-5.089 3.040M8.239 11.648c0.156 0.181 0.311 0.361 0.467 0.542 0.587-0.428 1.573-0.718 2.123-0.092 0.233 0.432-0.304 0.661-0.644 0.724-1.128 0.263-1.909 1.36-1.931 2.496 1.126 0.004 2.251 0 3.377 0.002 0-0.251 0-0.502 0-0.754-0.832-0.002-1.663 0.013-2.494-0.011 0.277-0.634 0.901-0.983 1.554-1.114 0.839-0.172 1.238-1.328 0.598-1.936-0.839-0.816-2.213-0.542-3.049 0.142M13.363 11.105c-1.247 0.52-1.333 2.214-0.908 3.317 0.425 1.2 2.308 1.334 2.93 0.244 0.469-0.863 0.472-1.974 0.035-2.85-0.371-0.728-1.32-0.986-2.057-0.71M14.275 15.592c-0.515 0.889-1.032 1.776-1.543 2.665 0.151 0 0.302-0.001 0.454-0.001 0.516-0.886 1.031-1.772 1.542-2.662-0.113 0-0.34-0.001-0.452-0.002M7.122 15.893c-0.007 0.786-0.002 1.573-0.004 2.36 0.154 0.001 0.308 0.002 0.462 0.004-0.001-0.318 0.055-0.632 0.251-0.89 0.128 0.288 0.246 0.582 0.362 0.875 0.169 0.008 0.34 0.014 0.51 0.018-0.176-0.426-0.349-0.854-0.517-1.285 0.173-0.21 0.346-0.42 0.517-0.631-0.208 0-0.414 0.004-0.62 0.006-0.16 0.194-0.318 0.391-0.479 0.586 0-0.409 0-0.818-0.001-1.228-0.161 0.060-0.322 0.122-0.481 0.186M15.274 15.894c-0.012 0.787-0.005 1.574-0.006 2.362 0.16 0 0.32 0 0.481 0 0.007-0.425-0.037-0.856 0.040-1.274 0.11-0.259 0.558-0.174 0.571 0.11 0.052 0.386 0.020 0.779 0.025 1.168 0.162-0.002 0.324-0.006 0.486-0.010-0.028-0.515 0.085-1.058-0.086-1.553-0.194-0.407-0.676-0.395-1.048-0.288 0.007-0.235 0.011-0.47 0.014-0.706-0.16 0.062-0.319 0.126-0.478 0.191M9.486 16.34c-0.008 0.638-0.007 1.277-0.004 1.915 0.16 0 0.319 0 0.479 0 0.004-0.433-0.035-0.871 0.037-1.301 0.114-0.216 0.45-0.23 0.568-0.010 0.102 0.425 0.042 0.868 0.050 1.301 0.148 0.005 0.295 0.010 0.443 0.014 0.017-0.456-0.059-0.926 0.070-1.372 0.829-0.365 0.529 0.894 0.571 1.358 0.164 0.005 0.33 0.007 0.494 0.008-0.031-0.517 0.095-1.067-0.085-1.562-0.227-0.448-0.781-0.4-1.16-0.198-0.457-0.234-0.976-0.085-1.463-0.155z"></path>
<path fill="#fee011" d="M13.705 11.786c1.196-0.296 1.516 1.304 1.19 2.147-0.152 0.804-1.358 1.003-1.716 0.251-0.353-0.755-0.361-2.018 0.526-2.398z"></path>
</svg>
