<!-- Generated by IcoMoon.io -->
<svg version="1.1" xmlns="http://www.w3.org/2000/svg" width="27" height="24" viewBox="0 0 27 24">
<title>warning--two-way-traffic--g4</title>
<path fill="#ef2b2f" d="M13.193 0h1.056c4.113 6.624 7.961 13.414 11.568 20.326 0.454 0.949 1.1 1.92 0.897 3.020-8.743-0.196-17.542 0.373-26.252-0.325 3.515-8.023 8.26-15.493 12.731-23.022M2.817 21.759c7.263 0.055 14.529 0.015 21.796 0.022-3.552-6.329-7.285-12.558-10.837-18.886-3.785 6.207-7.333 12.561-10.959 18.864z"></path>
<path fill="#fff" d="M2.817 21.759c3.626-6.303 7.174-12.657 10.959-18.864 3.552 6.329 7.285 12.558 10.837 18.886-7.266-0.007-14.533 0.033-21.796-0.022M7.732 14.145c1.495 0.831 2.958 1.717 4.449 2.551 0.004-0.517 0.007-1.038 0.011-1.558 2.286-0.011 4.571 0.022 6.857-0.015-0.004-0.69-0.007-1.377-0.015-2.064-2.278-0.015-4.556 0.004-6.834-0.007-0.007-0.373-0.022-1.122-0.030-1.495-1.484 0.857-2.969 1.706-4.438 2.588M14.448 15.788c-0.011 0.521-0.018 1.038-0.026 1.558-2.223 0.018-4.446-0.007-6.668 0.011 0 0.727 0 1.455 0.004 2.182 2.226 0.011 4.457-0.011 6.683 0.007-0.011 0.513-0.022 1.026-0.037 1.54 1.562-0.805 3.039-1.758 4.575-2.61-1.447-0.993-3.002-1.824-4.53-2.688z"></path>
<path fill="#201e1c" d="M7.732 14.145c1.47-0.882 2.954-1.732 4.438-2.588 0.007 0.373 0.022 1.122 0.030 1.495 2.278 0.011 4.556-0.007 6.834 0.007 0.007 0.687 0.011 1.374 0.015 2.064-2.286 0.037-4.571 0.004-6.857 0.015-0.004 0.521-0.007 1.041-0.011 1.558-1.492-0.834-2.954-1.721-4.449-2.551z"></path>
<path fill="#201e1c" d="M14.448 15.788c1.529 0.864 3.083 1.695 4.53 2.688-1.536 0.853-3.013 1.806-4.575 2.61 0.015-0.513 0.026-1.026 0.037-1.54-2.226-0.018-4.457 0.004-6.683-0.007-0.004-0.727-0.004-1.455-0.004-2.182 2.223-0.018 4.446 0.007 6.668-0.011 0.007-0.521 0.015-1.038 0.026-1.558z"></path>
</svg>
