<svg xmlns="http://www.w3.org/2000/svg" width="24" height="24">
    <path fill="#e6ca0f" opacity=".91" d="M11.701 0h.569c.283.127.546.3.766.521 3.235 3.246 6.48 6.482 9.719 9.725.446.46.973.871 1.246 1.468v.539c-.121.259-.27.508-.473.71-3.284 3.277-6.563 6.562-9.844 9.841-.44.428-.835.93-1.405 1.196h-.535a2.45 2.45 0 0 1-.712-.468c-3.277-3.283-6.56-6.563-9.84-9.844C.766 13.25.266 12.859 0 12.292v-.571c.238-.587.752-.98 1.18-1.422C4.44 7.037 7.704 3.781 10.96.515a2.73 2.73 0 0 1 .742-.516zm-.029.283c-.21.091-.372.258-.535.413C7.603 4.244 4.049 7.774.518 11.324c-.388.349-.374.997.014 1.34 3.602 3.6 7.201 7.204 10.806 10.8a.9.9 0 0 0 1.321-.002c3.602-3.599 7.202-7.2 10.801-10.802.418-.367.378-1.045-.041-1.394C19.86 7.702 16.297 4.142 12.735.58c-.263-.29-.685-.456-1.064-.296z"/>
    <path d="M11.672.283c.379-.16.802.006 1.064.296 3.562 3.562 7.124 7.122 10.684 10.686.419.349.458 1.027.041 1.394-3.599 3.602-7.199 7.204-10.801 10.802a.899.899 0 0 1-1.321.002c-3.605-3.596-7.204-7.2-10.806-10.8-.389-.343-.402-.991-.014-1.34C4.049 7.772 7.604 4.243 11.138.695c.163-.155.325-.322.535-.413zm.116.451C8.15 4.252 4.623 7.898 1.018 11.458c-.264.215-.499.617-.16.883 3.572 3.587 7.159 7.162 10.736 10.745.186.236.538.307.743.05 3.57-3.55 7.118-7.123 10.686-10.675.25-.197.424-.571.124-.812-3.523-3.554-7.076-7.081-10.606-10.632-.194-.186-.469-.478-.754-.283z"/>
    <path d="M7.03 8.616c.971-1.849 2.976-3.128 5.089-3.04 2.033.006 3.913 1.271 4.853 3.046.834.104 1.686.012 2.527.041l.001 1.232c-5 .002-10.002.001-15.002 0-.001-.41-.001-.822.001-1.232.841-.032 1.699.071 2.531-.047zM8.239 11.648c.836-.684 2.21-.958 3.049-.142.641.607.241 1.764-.598 1.936-.653.131-1.277.48-1.554 1.114.83.024 1.662.008 2.494.011v.754c-1.126-.002-2.251.001-3.377-.002.022-1.136.803-2.233 1.931-2.496.341-.062.877-.292.644-.724-.55-.625-1.536-.336-2.123.092l-.467-.542zM13.363 11.105c.737-.276 1.686-.018 2.057.71.437.876.434 1.987-.035 2.85-.623 1.091-2.506.956-2.93-.244-.425-1.103-.338-2.797.908-3.317zm.342.681c-.887.379-.878 1.643-.526 2.398.358.752 1.564.553 1.716-.251.325-.842.006-2.443-1.19-2.147zM14.275 15.592l.452.002c-.511.889-1.026 1.776-1.542 2.662l-.454.001c.511-.889 1.028-1.776 1.543-2.665zM7.122 15.893c.16-.064.32-.126.481-.186l.001 1.228c.161-.194.319-.391.479-.586.206-.002.413-.006.62-.006l-.517.631c.168.431.341.859.517 1.285-.17-.004-.341-.01-.51-.018a22.994 22.994 0 0 0-.362-.875c-.196.258-.252.572-.251.89a71.156 71.156 0 0 1-.462-.004c.001-.787-.004-1.574.004-2.36zM15.274 15.894c.158-.065.318-.128.478-.191-.004.235-.007.47-.014.706.372-.107.853-.119 1.048.288.172.494.059 1.038.086 1.553l-.486.01c-.005-.389.026-.781-.025-1.168-.013-.284-.461-.37-.571-.11-.077.419-.032.85-.04 1.274h-.481c.001-.787-.006-1.574.006-2.362zM9.486 16.34c.487.07 1.006-.079 1.463.155.379-.202.934-.25 1.16.198.18.496.054 1.045.085 1.562-.164-.001-.33-.004-.494-.008-.042-.464.258-1.723-.571-1.358-.128.445-.053.916-.07 1.372l-.443-.014c-.008-.433.052-.876-.05-1.301-.118-.221-.454-.206-.568.01-.072.43-.034.868-.037 1.301h-.479a94.034 94.034 0 0 1 .004-1.915z"/>
    <path fill="#fee011" d="M11.788.734c.284-.194.559.097.754.283 3.529 3.551 7.082 7.078 10.606 10.632.3.241.126.616-.124.812-3.568 3.552-7.116 7.126-10.686 10.675-.205.257-.557.186-.743-.05C8.018 19.503 4.431 15.928.859 12.341c-.34-.266-.104-.668.16-.883C4.624 7.898 8.151 4.252 11.789.734zM7.03 8.616c-.832.118-1.69.014-2.531.047-.002.41-.002.822-.001 1.232 5 .001 10.002.002 15.002 0l-.001-1.232c-.841-.029-1.693.064-2.527-.041-.94-1.775-2.82-3.04-4.853-3.046-2.113-.089-4.118 1.19-5.089 3.04zm1.209 3.032l.467.542c.587-.428 1.573-.718 2.123-.092.233.432-.304.661-.644.724-1.128.263-1.909 1.36-1.931 2.496 1.126.004 2.251 0 3.377.002v-.754c-.832-.002-1.663.013-2.494-.011.277-.634.901-.983 1.554-1.114.839-.172 1.238-1.328.598-1.936-.839-.816-2.213-.542-3.049.142zm5.124-.543c-1.247.52-1.333 2.214-.908 3.317.425 1.2 2.308 1.334 2.93.244.469-.863.472-1.974.035-2.85-.371-.728-1.32-.986-2.057-.71zm.912 4.487c-.515.889-1.032 1.776-1.543 2.665l.454-.001a498.25 498.25 0 0 0 1.542-2.662l-.452-.002zm-7.153.301c-.007.786-.002 1.573-.004 2.36l.462.004c-.001-.318.055-.632.251-.89.128.288.246.582.362.875.169.008.34.014.51.018a68.854 68.854 0 0 1-.517-1.285c.173-.21.346-.42.517-.631-.208 0-.414.004-.62.006-.16.194-.318.391-.479.586l-.001-1.228c-.161.06-.322.122-.481.186zm8.152.001c-.012.787-.005 1.574-.006 2.362h.481c.007-.425-.037-.856.04-1.274.11-.259.558-.174.571.11.052.386.02.779.025 1.168.162-.002.324-.006.486-.01-.028-.515.085-1.058-.086-1.553-.194-.407-.676-.395-1.048-.288.007-.235.011-.47.014-.706-.16.062-.319.126-.478.191zm-5.788.446a111.13 111.13 0 0 0-.004 1.915h.479c.004-.433-.035-.871.037-1.301.114-.216.45-.23.568-.01.102.425.042.868.05 1.301l.443.014c.017-.456-.059-.926.07-1.372.829-.365.529.894.571 1.358.164.005.33.007.494.008-.031-.517.095-1.067-.085-1.562-.227-.448-.781-.4-1.16-.198-.457-.234-.976-.085-1.463-.155z"/>
    <path fill="#fee011" d="M13.705 11.786c1.196-.296 1.516 1.304 1.19 2.147-.152.804-1.358 1.003-1.716.251-.353-.755-.361-2.018.526-2.398z"/>
</svg>
