<?xml version="1.0" encoding="utf-8"?>
<!-- Generated by IcoMoon.io -->
<!DOCTYPE svg PUBLIC "-//W3C//DTD SVG 1.1//EN" "http://www.w3.org/Graphics/SVG/1.1/DTD/svg11.dtd">
<svg version="1.1" xmlns="http://www.w3.org/2000/svg" xmlns:xlink="http://www.w3.org/1999/xlink" width="24" height="24" viewBox="0 0 24 24">
<path fill="#c0111e" d="M9.989 2.571c0.676-1.334 2.891-1.481 3.693-0.196 1.101 1.618 2.082 3.311 3.093 4.986 2.209 3.719 4.408 7.445 6.569 11.192 0.312 0.514 0.541 1.077 0.656 1.668v0.557c-0.138 0.953-0.968 1.561-1.81 1.878-0.411 0.045-0.825 0.013-1.237 0.019-6.19 0.003-12.379-0.005-18.568 0.004-0.989 0.103-1.974-0.568-2.385-1.452v-1.631c0.233-0.575 0.561-1.105 0.866-1.643 2.994-5.155 6.032-10.284 9.123-15.381M2.169 20.347c6.509 0.004 13.020 0.003 19.529 0-3.243-5.528-6.495-11.052-9.764-16.564-3.272 5.511-6.521 11.036-9.764 16.564z"></path>
<path fill="#c0111e" d="M8.936 13.135c0-0.282 0-0.565 0.003-0.846 1.020 0.001 2.038-0.001 3.058 0.001 0.003 0.276 0.005 0.553 0.009 0.83-1.022 0.034-2.046 0.009-3.070 0.015z"></path>
<path fill="#fff" d="M2.169 20.347c3.243-5.528 6.492-11.053 9.764-16.564 3.27 5.512 6.521 11.036 9.764 16.564-6.509 0.003-13.020 0.004-19.529 0M12.524 10.964c-0.005 0.353-0.007 0.705-0.001 1.058 0.186-0.105 0.371-0.208 0.557-0.314-0.013 2.604-0.003 5.208-0.005 7.813 0.435 0.001 0.87 0.001 1.305 0-0.003-2.603 0.007-5.207-0.005-7.81 0.184 0.103 0.37 0.208 0.554 0.312 0.005-0.354 0.005-0.709-0.003-1.063-0.398-0.398-0.794-0.798-1.184-1.203-0.427 0.381-0.812 0.806-1.217 1.208M8.936 13.135c1.024-0.005 2.047 0.020 3.070-0.015-0.004-0.277-0.007-0.554-0.009-0.83-1.020-0.003-2.038 0-3.058-0.001-0.003 0.281-0.003 0.564-0.003 0.846M9.685 13.526c-0.001 1.998-0.001 3.996-0.001 5.995 0.522 0.001 1.045 0.001 1.567 0 0-1.998 0.001-3.995 0-5.993-0.522-0.003-1.044-0.003-1.566-0.001z"></path>
<path fill="#030303" d="M12.524 10.964c0.406-0.402 0.79-0.827 1.217-1.208 0.39 0.404 0.786 0.805 1.184 1.203 0.008 0.354 0.008 0.709 0.003 1.063-0.184-0.103-0.37-0.208-0.554-0.312 0.012 2.603 0.003 5.207 0.005 7.81-0.435 0.001-0.87 0.001-1.305 0 0.003-2.604-0.008-5.208 0.005-7.813-0.186 0.106-0.371 0.21-0.557 0.314-0.005-0.353-0.004-0.705 0.001-1.058z"></path>
<path fill="#030303" d="M9.685 13.526c0.522-0.001 1.044-0.001 1.566 0.001 0.001 1.998 0 3.995 0 5.993-0.522 0.001-1.045 0.001-1.567 0 0-1.998 0-3.996 0.001-5.995z"></path>
</svg>
