<!-- Generated by IcoMoon.io -->
<svg version="1.1" xmlns="http://www.w3.org/2000/svg" width="24" height="24" viewBox="0 0 24 24">
<title>warning--trucks-crossing--g1</title>
<path fill="#eace0f" opacity="0.92" d="M11.714 0h0.53c0.528 0.185 0.876 0.637 1.262 1.013 3.163 3.156 6.323 6.317 9.484 9.476 0.371 0.378 0.805 0.724 1.009 1.23v0.533c-0.101 0.238-0.235 0.463-0.421 0.644-3.4 3.401-6.796 6.806-10.194 10.207-0.335 0.341-0.658 0.718-1.115 0.896h-0.533c-0.238-0.096-0.47-0.215-0.654-0.395-3.554-3.568-7.106-7.139-10.663-10.704-0.178-0.179-0.312-0.394-0.42-0.619v-0.544c0.181-0.524 0.632-0.869 1.004-1.254 3.316-3.325 6.64-6.642 9.952-9.971 0.215-0.221 0.474-0.394 0.758-0.514M11.67 0.281c-0.188 0.071-0.332 0.218-0.476 0.353-3.553 3.569-7.123 7.121-10.675 10.691-0.37 0.317-0.396 0.938-0.031 1.27 3.61 3.631 7.241 7.241 10.852 10.871 0.311 0.371 0.92 0.404 1.258 0.052 3.624-3.614 7.24-7.238 10.862-10.855 0.39-0.337 0.41-0.991 0.025-1.34-3.577-3.586-7.162-7.164-10.744-10.745-0.263-0.298-0.691-0.433-1.070-0.295z"></path>
<path fill="#000" d="M11.67 0.281c0.379-0.138 0.808-0.002 1.070 0.295 3.582 3.581 7.166 7.159 10.744 10.745 0.385 0.349 0.365 1.003-0.025 1.34-3.623 3.617-7.238 7.241-10.862 10.855-0.337 0.353-0.947 0.319-1.258-0.052-3.611-3.63-7.242-7.24-10.852-10.871-0.365-0.331-0.338-0.953 0.031-1.27 3.552-3.57 7.122-7.122 10.675-10.691 0.144-0.134 0.288-0.282 0.476-0.353M11.788 0.737c-3.644 3.554-7.222 7.187-10.844 10.768-0.271 0.204-0.408 0.614-0.097 0.853 3.605 3.594 7.212 7.187 10.819 10.778 0.193 0.23 0.563 0.172 0.731-0.056 3.578-3.583 7.169-7.153 10.744-10.74 0.245-0.203 0.194-0.575-0.042-0.76-3.556-3.563-7.122-7.115-10.681-10.674-0.151-0.173-0.41-0.313-0.629-0.169z"></path>
<path fill="#000" d="M14.671 9.631c0.163-0.665 0.914-0.918 1.53-0.878 0.706 0.022 1.508-0.1 2.134 0.282 0.287 0.604 0.514 1.235 0.786 1.846 0.142 0.067 0.283 0.133 0.426 0.199 0.043 1.070 0.114 2.149 0.040 3.218-0.492 0.036-0.985 0.024-1.477 0.019 0.037-0.78-0.316-1.656-1.108-1.918-1.013-0.388-2.189 0.323-2.428 1.357-1.71 0.006-3.421 0.004-5.131 0.001-0.095-1.048-1.238-1.769-2.232-1.486-0.709 0.178-1.152 0.823-1.433 1.454-0.467 0.002-0.934 0.002-1.399 0.002-0.020-1.45-0.004-2.899-0.008-4.35 3.151-0.006 6.304-0.004 9.455-0.001 0.008 0.923 0 1.846 0.004 2.768 0.244 0.001 0.486 0.007 0.73 0.018 0.109-0.84-0.086-1.705 0.113-2.533M16.030 9.481c-0.005 0.455-0.005 0.91 0.001 1.364 0.792 0.004 1.585 0.006 2.378-0.001-0.163-0.457-0.332-0.912-0.51-1.364-0.623 0-1.247-0.002-1.87 0.001z"></path>
<path fill="#000" d="M7.231 12.637c0.752-0.269 1.648 0.257 1.783 1.042 0.184 0.772-0.431 1.59-1.212 1.663-0.756 0.097-1.504-0.545-1.526-1.306-0.049-0.613 0.368-1.22 0.955-1.399z"></path>
<path fill="#000" d="M15.877 12.648c0.744-0.287 1.648 0.214 1.806 0.991 0.181 0.692-0.272 1.451-0.954 1.651-0.774 0.262-1.67-0.329-1.772-1.13-0.108-0.642 0.305-1.312 0.92-1.512z"></path>
<path fill="#fee011" d="M11.788 0.737c0.218-0.144 0.478-0.004 0.629 0.169 3.559 3.559 7.126 7.111 10.681 10.674 0.236 0.185 0.287 0.557 0.042 0.76-3.575 3.587-7.165 7.157-10.744 10.74-0.168 0.228-0.538 0.287-0.731 0.056-3.607-3.592-7.214-7.184-10.819-10.778-0.311-0.239-0.174-0.649 0.097-0.853 3.623-3.581 7.2-7.213 10.844-10.768M14.671 9.631c-0.199 0.828-0.004 1.693-0.113 2.533-0.244-0.011-0.486-0.017-0.73-0.018-0.004-0.923 0.005-1.846-0.004-2.768-3.151-0.002-6.304-0.005-9.455 0.001 0.005 1.451-0.012 2.9 0.008 4.35 0.466 0 0.932 0 1.399-0.002 0.281-0.631 0.724-1.277 1.433-1.454 0.994-0.283 2.137 0.438 2.232 1.486 1.71 0.002 3.421 0.005 5.131-0.001 0.239-1.034 1.415-1.745 2.428-1.357 0.792 0.262 1.145 1.138 1.108 1.918 0.492 0.005 0.985 0.017 1.477-0.019 0.074-1.069 0.004-2.148-0.040-3.218-0.143-0.066-0.284-0.132-0.426-0.199-0.272-0.611-0.499-1.242-0.786-1.846-0.625-0.382-1.428-0.26-2.134-0.282-0.616-0.040-1.367 0.214-1.53 0.878M7.231 12.637c-0.587 0.179-1.004 0.786-0.955 1.399 0.023 0.761 0.77 1.403 1.526 1.306 0.781-0.073 1.396-0.892 1.212-1.663-0.136-0.785-1.031-1.31-1.783-1.042M15.877 12.648c-0.616 0.2-1.028 0.87-0.92 1.512 0.102 0.802 0.998 1.392 1.772 1.13 0.682-0.2 1.135-0.959 0.954-1.651-0.158-0.778-1.062-1.278-1.806-0.991z"></path>
<path fill="#fee011" d="M16.030 9.481c0.623-0.004 1.247-0.001 1.87-0.001 0.178 0.452 0.347 0.907 0.51 1.364-0.793 0.007-1.586 0.005-2.378 0.001-0.006-0.455-0.006-0.91-0.001-1.364z"></path>
</svg>
