<?xml version="1.0" encoding="utf-8"?>
<!-- Generated by IcoMoon.io -->
<!DOCTYPE svg PUBLIC "-//W3C//DTD SVG 1.1//EN" "http://www.w3.org/Graphics/SVG/1.1/DTD/svg11.dtd">
<svg version="1.1" xmlns="http://www.w3.org/2000/svg" xmlns:xlink="http://www.w3.org/1999/xlink" width="24" height="24" viewBox="0 0 24 24">
<path fill="#ffd700" d="M10.614 0.889c0.674-0.798 1.986-0.767 2.694-0.031 3.324 3.28 6.635 6.572 9.95 9.859 0.472 0.45 0.757 1.126 0.608 1.777-0.085 0.568-0.566 0.93-0.947 1.308-3.23 3.167-6.464 6.33-9.691 9.499-0.222 0.226-0.51 0.368-0.811 0.458h-0.822c-0.358-0.106-0.7-0.281-0.962-0.547-3.11-3.090-6.227-6.174-9.34-9.26-0.28-0.284-0.582-0.547-0.835-0.857-0.43-0.524-0.541-1.306-0.227-1.914 0.182-0.331 0.48-0.576 0.743-0.841 3.215-3.149 6.426-6.301 9.64-9.451M11.455 0.802c-0.274 0.090-0.49 0.288-0.691 0.485-3.256 3.184-6.505 6.373-9.76 9.559-0.391 0.349-0.599 0.896-0.484 1.416 0.083 0.524 0.493 0.896 0.856 1.247 3.133 3.104 6.271 6.206 9.398 9.318 0.403 0.424 1.021 0.653 1.598 0.496 0.505-0.114 0.834-0.544 1.193-0.881 3.144-3.097 6.305-6.178 9.454-9.271 0.406-0.38 0.544-0.996 0.37-1.52-0.128-0.427-0.467-0.736-0.774-1.039-3.154-3.116-6.295-6.246-9.452-9.36-0.425-0.456-1.112-0.65-1.708-0.449z"></path>
<path fill="#ffd700" d="M11.569 1.609c0.361-0.254 0.834-0.061 1.105 0.235 3.193 3.164 6.388 6.328 9.578 9.494 0.212 0.212 0.448 0.457 0.438 0.781 0.006 0.415-0.388 0.652-0.638 0.923-3.058 2.983-6.106 5.976-9.155 8.968-0.262 0.241-0.504 0.596-0.901 0.589-0.458 0.005-0.738-0.403-1.038-0.685-3.128-3.104-6.259-6.208-9.392-9.307-0.33-0.282-0.43-0.845-0.073-1.148 3.242-3.199 6.506-6.376 9.755-9.57 0.102-0.098 0.205-0.197 0.322-0.28M11.095 4.526c-0.642 0.194-0.949 1.042-0.548 1.59 0.431 0.731 1.687 0.589 1.924-0.235 0.334-0.802-0.584-1.685-1.375-1.355M11.047 7.027c-0.984 0.112-1.364 1.156-2.051 1.718-0.702 0.33-1.549 0.348-2.156 0.865 0.001 0.251 0.010 0.547 0.293 0.644 0.422 0.112 0.845-0.113 1.26-0.182 0.45-0.118 0.911-0.192 1.355-0.332 0.428-0.144 0.564-0.63 0.922-0.869 0.228 0.802 0.469 1.603 0.634 2.419-0.628 1.799-1.309 3.582-1.958 5.374-0.131 0.388-0.347 0.793-0.25 1.213 0.054 0.335 0.406 0.59 0.743 0.511 0.378-0.052 0.635-0.38 0.764-0.715 0.486-1.186 0.974-2.371 1.463-3.556 0.157-0.37 0.277-0.761 0.506-1.094 0.353 1.415 0.673 2.839 1.004 4.259 0.090 0.349 0.12 0.762 0.434 0.994 0.294 0.266 0.817 0.251 1.048-0.091 0.247-0.349 0.167-0.802 0.091-1.194-0.553-2.758-1.034-5.531-1.619-8.282 0.848 0.49 1.694 0.983 2.549 1.463 0.292 0.178 0.667 0.186 0.97 0.026 0.073-0.589-0.486-0.884-0.914-1.134-1.052-0.599-2.017-1.333-3.005-2.030-0.623-0.46-1.398-0.048-2.082-0.006z"></path>
<path fill="#000" d="M11.455 0.802c0.595-0.202 1.283-0.007 1.708 0.449 3.157 3.114 6.299 6.244 9.452 9.36 0.307 0.304 0.646 0.612 0.774 1.039 0.174 0.524 0.036 1.14-0.37 1.52-3.149 3.094-6.31 6.174-9.454 9.271-0.359 0.337-0.688 0.767-1.193 0.881-0.577 0.157-1.195-0.072-1.598-0.496-3.127-3.112-6.265-6.214-9.398-9.318-0.362-0.35-0.773-0.722-0.856-1.247-0.115-0.52 0.092-1.067 0.484-1.416 3.254-3.186 6.504-6.376 9.76-9.559 0.202-0.197 0.418-0.395 0.691-0.485M11.569 1.609c-0.116 0.083-0.22 0.181-0.322 0.28-3.248 3.194-6.512 6.371-9.755 9.57-0.356 0.304-0.257 0.866 0.073 1.148 3.133 3.1 6.264 6.203 9.392 9.307 0.3 0.282 0.58 0.69 1.038 0.685 0.397 0.007 0.64-0.348 0.901-0.589 3.049-2.992 6.097-5.984 9.155-8.968 0.251-0.271 0.644-0.508 0.638-0.923 0.010-0.324-0.226-0.569-0.438-0.781-3.191-3.167-6.385-6.33-9.578-9.494-0.271-0.296-0.744-0.49-1.105-0.235z"></path>
<path fill="#000" d="M11.095 4.526c0.791-0.33 1.709 0.553 1.375 1.355-0.236 0.824-1.493 0.966-1.924 0.235-0.401-0.548-0.094-1.396 0.548-1.59z"></path>
<path fill="#000" d="M11.047 7.027c0.684-0.042 1.459-0.454 2.082 0.006 0.988 0.697 1.952 1.432 3.005 2.030 0.428 0.25 0.988 0.545 0.914 1.134-0.302 0.16-0.678 0.151-0.97-0.026-0.854-0.48-1.7-0.973-2.549-1.463 0.584 2.752 1.066 5.525 1.619 8.282 0.076 0.392 0.156 0.845-0.091 1.194-0.23 0.342-0.754 0.358-1.048 0.091-0.314-0.232-0.344-0.644-0.434-0.994-0.331-1.42-0.652-2.844-1.004-4.259-0.229 0.334-0.349 0.725-0.506 1.094-0.488 1.184-0.977 2.37-1.463 3.556-0.13 0.335-0.386 0.664-0.764 0.715-0.337 0.079-0.689-0.176-0.743-0.511-0.097-0.42 0.119-0.826 0.25-1.213 0.649-1.792 1.331-3.575 1.958-5.374-0.164-0.816-0.406-1.618-0.634-2.419-0.358 0.239-0.493 0.725-0.922 0.869-0.444 0.14-0.905 0.215-1.355 0.332-0.415 0.070-0.838 0.294-1.26 0.182-0.283-0.097-0.292-0.394-0.293-0.644 0.607-0.517 1.454-0.535 2.156-0.865 0.686-0.563 1.067-1.607 2.051-1.718z"></path>
</svg>
