<!-- Generated by IcoMoon.io -->
<svg version="1.1" xmlns="http://www.w3.org/2000/svg" width="24" height="24" viewBox="0 0 24 24">
<title>warning--low-flying-aircraft--g6</title>
<path fill="#000" d="M11.917 0.415c0.336-0.059 0.62 0.158 0.844 0.383 3.517 3.523 7.044 7.039 10.56 10.565 0.38 0.32 0.415 0.972 0.025 1.298-3.56 3.563-7.122 7.122-10.682 10.684-0.325 0.39-0.995 0.377-1.319-0.007-3.559-3.562-7.124-7.118-10.68-10.685-0.373-0.33-0.356-0.961 0.031-1.273 3.539-3.544 7.082-7.081 10.621-10.625 0.17-0.154 0.354-0.336 0.6-0.34M11.678 0.996c-3.436 3.404-6.838 6.844-10.271 10.252-0.239 0.228-0.467 0.468-0.644 0.748 0.194 0.48 0.649 0.766 0.98 1.142 3.302 3.296 6.594 6.604 9.9 9.895 0.181 0.242 0.539 0.257 0.722 0.010 3.564-3.554 7.12-7.117 10.678-10.676 0.248-0.182 0.204-0.532-0.024-0.709-3.536-3.544-7.076-7.084-10.62-10.62-0.172-0.217-0.533-0.258-0.721-0.041z"></path>
<path fill="#000" d="M6.972 7.098c0.502-0.46 1.288-0.112 1.742 0.266 0.89 0.827 1.722 1.715 2.591 2.564 2.16-0.569 4.294-1.249 6.458-1.8 0.566 0.031 1.654 1.009 0.804 1.433-1.192 0.611-2.378 1.23-3.572 1.834-0.481 0.23-0.805 0.672-1.175 1.039 0.761 0.875 1.836 1.543 2.24 2.675 0.582-0.163 1.139-0.408 1.727-0.547 0.437-0.085 0.731 0.338 0.886 0.684-0.936 1.151-2.078 2.128-3.108 3.198-0.391 0.511-1.129-0.164-1.013-0.66 0.139-0.581 0.38-1.132 0.539-1.708-1.138-0.404-1.805-1.48-2.682-2.243-1.552 1.314-1.932 3.494-3.124 5.054-0.64 0.053-1.392-0.82-1.102-1.466 0.589-2.016 1.135-4.045 1.738-6.058-0.814-0.88-1.711-1.68-2.522-2.562-0.386-0.452-0.706-1.126-0.427-1.704z"></path>
<path fill="#ffef00" d="M11.678 0.996c0.188-0.217 0.55-0.176 0.721 0.041 3.544 3.536 7.084 7.076 10.62 10.62 0.228 0.178 0.272 0.527 0.024 0.709-3.558 3.559-7.114 7.122-10.678 10.676-0.184 0.247-0.541 0.233-0.722-0.010-3.306-3.292-6.598-6.599-9.9-9.895-0.331-0.377-0.786-0.662-0.98-1.142 0.178-0.28 0.406-0.52 0.644-0.748 3.433-3.408 6.835-6.847 10.271-10.252M6.972 7.098c-0.278 0.578 0.041 1.252 0.427 1.704 0.811 0.882 1.709 1.682 2.522 2.562-0.602 2.012-1.148 4.042-1.738 6.058-0.29 0.647 0.462 1.519 1.102 1.466 1.192-1.56 1.572-3.74 3.124-5.054 0.877 0.763 1.544 1.838 2.682 2.243-0.158 0.576-0.4 1.127-0.539 1.708-0.116 0.496 0.622 1.171 1.013 0.66 1.030-1.070 2.172-2.047 3.108-3.198-0.155-0.346-0.449-0.769-0.886-0.684-0.588 0.139-1.145 0.384-1.727 0.547-0.404-1.132-1.48-1.8-2.24-2.675 0.37-0.367 0.694-0.809 1.175-1.039 1.194-0.604 2.381-1.223 3.572-1.834 0.85-0.424-0.238-1.402-0.804-1.433-2.165 0.551-4.298 1.231-6.458 1.8-0.869-0.85-1.7-1.738-2.591-2.564-0.455-0.378-1.241-0.726-1.742-0.266z"></path>
</svg>
