<!-- Generated by IcoMoon.io -->
<svg version="1.1" xmlns="http://www.w3.org/2000/svg" width="24" height="24" viewBox="0 0 24 24">
<title>warning--dual-lanes-turn-left--g1</title>
<path fill="#ba9b17" opacity="0.73" d="M11.791 0h0.395c0.377 0.18 0.674 0.478 0.96 0.774 3.488 3.51 6.998 7.001 10.49 10.508 0.407 0.366 0.391 1.050-0.013 1.412-3.641 3.644-7.284 7.286-10.928 10.927-0.359 0.404-1.048 0.42-1.41 0.013-3.622-3.618-7.242-7.24-10.865-10.858-0.169-0.172-0.305-0.373-0.42-0.584v-0.402c0.216-0.517 0.666-0.872 1.049-1.262 3.361-3.361 6.722-6.72 10.080-10.084 0.191-0.19 0.419-0.336 0.662-0.445M11.687 0.296c-0.149 0.082-0.275 0.197-0.398 0.312-3.576 3.583-7.16 7.159-10.736 10.744-0.342 0.275-0.448 0.828-0.094 1.139 3.659 3.666 7.325 7.326 10.986 10.99 0.287 0.328 0.815 0.296 1.096-0.022 3.638-3.641 7.278-7.28 10.918-10.92 0.358-0.305 0.329-0.871-0.032-1.159-3.623-3.622-7.242-7.246-10.866-10.866-0.214-0.239-0.572-0.366-0.872-0.217z"></path>
<path fill="#000" d="M11.687 0.296c0.3-0.149 0.659-0.022 0.872 0.217 3.624 3.62 7.243 7.244 10.866 10.866 0.361 0.288 0.39 0.854 0.032 1.159-3.64 3.64-7.279 7.279-10.918 10.92-0.281 0.318-0.809 0.349-1.096 0.022-3.661-3.664-7.327-7.324-10.986-10.99-0.354-0.311-0.248-0.864 0.094-1.139 3.576-3.584 7.16-7.16 10.736-10.744 0.124-0.115 0.25-0.23 0.398-0.312M11.795 0.624c-3.695 3.582-7.291 7.278-10.951 10.9-0.256 0.194-0.394 0.577-0.090 0.8 3.622 3.622 7.244 7.242 10.865 10.862 0.169 0.224 0.502 0.266 0.683 0.031 3.642-3.636 7.28-7.276 10.919-10.915 0.233-0.182 0.191-0.516-0.028-0.689-3.575-3.588-7.165-7.16-10.741-10.747-0.169-0.16-0.409-0.415-0.656-0.242z"></path>
<path fill="#000" d="M10.716 4.465c0.246-0.197 0.632 0.031 0.614 0.335-0.086 0.362-0.252 0.701-0.388 1.046 3.205-0.058 6.158 2.59 6.428 5.786 0.088 1.861 0.020 3.728 0.025 5.593-0.517-0.002-1.034-0.002-1.552 0-0.026-1.787 0.036-3.575-0.026-5.359-0.164-2.452-2.424-4.494-4.874-4.451 0.134 0.366 0.308 0.72 0.391 1.103-0.002 0.352-0.448 0.511-0.692 0.274-1.007-0.712-2.026-1.41-3.014-2.148 1.036-0.718 2.039-1.483 3.088-2.179z"></path>
<path fill="#000" d="M5.471 8.951c0.238-0.208 0.649-0.034 0.654 0.284-0.067 0.376-0.25 0.716-0.384 1.070 2.209 0.006 4.278 1.642 4.75 3.806 0.232 1.020 0.097 2.075 0.131 3.11-0.54 0.002-1.080 0.001-1.62 0.004-0.048-0.877 0.055-1.762-0.064-2.634-0.269-1.532-1.712-2.698-3.257-2.713 0.146 0.361 0.35 0.702 0.446 1.081 0.029 0.346-0.425 0.552-0.673 0.312-1.022-0.701-2.022-1.435-3.036-2.148 1.015-0.727 2.021-1.47 3.053-2.173z"></path>
<path fill="#000" d="M12.994 12.482c0.089-0.001 0.265-0.002 0.354-0.004 0.008 1.573-0.005 3.148 0.005 4.721-0.118 0.008-0.234 0.023-0.35 0.044-0.014-1.588-0.005-3.175-0.008-4.762z"></path>
<path fill="#ffd520" d="M11.795 0.624c0.247-0.173 0.487 0.083 0.656 0.242 3.576 3.587 7.166 7.159 10.741 10.747 0.218 0.173 0.26 0.506 0.028 0.689-3.638 3.64-7.277 7.279-10.919 10.915-0.181 0.235-0.514 0.193-0.683-0.031-3.62-3.62-7.243-7.241-10.865-10.862-0.304-0.223-0.166-0.606 0.090-0.8 3.66-3.622 7.256-7.318 10.951-10.9M10.716 4.465c-1.049 0.696-2.052 1.462-3.088 2.179 0.989 0.738 2.008 1.436 3.014 2.148 0.245 0.238 0.69 0.078 0.692-0.274-0.083-0.383-0.257-0.737-0.391-1.103 2.45-0.043 4.71 1.999 4.874 4.451 0.062 1.784 0 3.572 0.026 5.359 0.517-0.002 1.034-0.002 1.552 0-0.005-1.865 0.062-3.732-0.025-5.593-0.27-3.197-3.223-5.844-6.428-5.786 0.136-0.346 0.301-0.684 0.388-1.046 0.018-0.304-0.368-0.532-0.614-0.335M5.471 8.951c-1.032 0.703-2.038 1.446-3.053 2.173 1.014 0.713 2.014 1.447 3.036 2.148 0.248 0.24 0.702 0.034 0.673-0.312-0.096-0.379-0.3-0.72-0.446-1.081 1.544 0.016 2.988 1.181 3.257 2.713 0.119 0.872 0.016 1.757 0.064 2.634 0.54-0.002 1.080-0.001 1.62-0.004-0.034-1.036 0.101-2.090-0.131-3.11-0.472-2.165-2.54-3.8-4.75-3.806 0.134-0.354 0.317-0.695 0.384-1.070-0.005-0.318-0.416-0.492-0.654-0.284M12.994 12.482c0.004 1.586-0.006 3.174 0.008 4.762 0.116-0.022 0.233-0.036 0.35-0.044-0.010-1.573 0.004-3.148-0.005-4.721-0.089 0.001-0.265 0.002-0.354 0.004z"></path>
</svg>
