<!-- Generated by IcoMoon.io -->
<svg version="1.1" xmlns="http://www.w3.org/2000/svg" width="27" height="24" viewBox="0 0 27 24">
<title>warning--two-way-traffic--g5</title>
<path fill="#fae73f" d="M12.452 0.509c0.57-0.602 1.875-0.536 2.234 0.29 3.859 6.861 7.801 13.675 11.693 20.515 0.621 0.81 0.593 2.107-0.463 2.53-8.358 0.005-16.715 0-25.073 0.002-0.226-0.234-0.457-0.463-0.691-0.689-0.229-1.363 0.845-2.383 1.35-3.541 3.65-6.369 7.281-12.748 10.949-19.106M13.067 0.675c-0.5 0.29-0.686 0.881-0.982 1.344-3.722 6.455-7.377 12.949-11.11 19.397-0.537 0.692-0.009 1.807 0.881 1.767 7.745 0.003 15.49-0.081 23.235-0.102 0.945 0.118 1.582-1.056 1.011-1.801-3.885-6.667-7.678-13.386-11.518-20.079-0.266-0.547-0.968-0.816-1.517-0.525z"></path>
<path fill="#212725" d="M13.067 0.675c0.55-0.291 1.251-0.022 1.517 0.525 3.84 6.694 7.634 13.412 11.518 20.079 0.571 0.745-0.067 1.918-1.011 1.801-7.745 0.022-15.49 0.105-23.235 0.102-0.89 0.040-1.418-1.075-0.881-1.767 3.733-6.447 7.387-12.941 11.11-19.397 0.296-0.463 0.482-1.054 0.982-1.344M3.448 21.171c6.72-0.043 13.442-0.071 20.163-0.115-3.365-5.837-6.639-11.727-10.032-17.551-3.42 5.864-6.748 11.782-10.131 17.666z"></path>
<path fill="#f9e735" d="M3.448 21.171c3.383-5.884 6.711-11.802 10.131-17.666 3.393 5.823 6.667 11.714 10.032 17.551-6.722 0.043-13.443 0.071-20.163 0.115M7.548 16.238c0.858 0.67 1.818 1.253 2.959 0.993-0.249-0.197-0.5-0.39-0.749-0.585 1.285-0.003 2.57-0.036 3.855-0.023 0.003 0.511 0.002 1.022-0.003 1.533-0.975 0.011-1.953 0.015-2.93 0.029-0.002 0.26-0.002 0.52-0.003 0.78 0.966-0.011 1.932-0.023 2.899-0.029 0.020 0.124 0.060 0.369 0.082 0.492 0.344-0.006 0.687-0.009 1.033-0.009 0.015-0.122 0.046-0.365 0.062-0.486 1.279-0.017 2.559-0.006 3.84-0.023-0.252 0.211-0.505 0.421-0.754 0.633 1.137 0.26 2.049-0.381 2.9-1.028-0.864-0.638-1.781-1.277-2.922-1.003 0.245 0.207 0.491 0.412 0.735 0.619-1.123-0.005-2.25 0.053-3.371-0.014-0.7-0.138-0.403-1.003-0.455-1.505 0.975-0.017 1.953-0.014 2.928-0.022 0-0.262-0.002-0.522-0.002-0.783-2.628-0.019-5.257 0.029-7.884 0.019 0.249-0.209 0.5-0.415 0.749-0.624-1.158-0.257-2.101 0.37-2.97 1.037z"></path>
<path fill="#232921" d="M7.548 16.238c0.869-0.667 1.812-1.294 2.97-1.037-0.249 0.209-0.5 0.415-0.749 0.624 2.628 0.011 5.257-0.037 7.884-0.019 0 0.262 0.002 0.522 0.002 0.783-0.975 0.008-1.953 0.005-2.928 0.022 0.053 0.502-0.245 1.367 0.455 1.505 1.121 0.067 2.248 0.009 3.371 0.014-0.245-0.207-0.491-0.412-0.735-0.619 1.141-0.274 2.058 0.365 2.922 1.003-0.852 0.647-1.764 1.288-2.9 1.028 0.249-0.212 0.502-0.423 0.754-0.633-1.281 0.017-2.561 0.006-3.84 0.023-0.015 0.121-0.046 0.364-0.062 0.486-0.345 0-0.689 0.003-1.033 0.009-0.022-0.124-0.062-0.369-0.082-0.492-0.966 0.006-1.932 0.019-2.899 0.029 0.002-0.26 0.002-0.52 0.003-0.78 0.977-0.014 1.954-0.019 2.93-0.029 0.005-0.511 0.006-1.022 0.003-1.533-1.285-0.012-2.57 0.020-3.855 0.023 0.249 0.195 0.5 0.389 0.749 0.585-1.141 0.26-2.101-0.322-2.959-0.993z"></path>
</svg>
