<!-- Generated by IcoMoon.io -->
<svg version="1.1" xmlns="http://www.w3.org/2000/svg" width="27" height="24" viewBox="0 0 27 24">
<title>warning--u-turn--g2</title>
<path fill="#c0111e" d="M11.381 1.395c0.805-1.571 3.432-1.641 4.265-0.054 3.578 5.589 6.839 11.372 10.204 17.089 0.504 0.872 1.063 1.735 1.281 2.732v0.745c-0.185 1.064-1.118 1.71-2.050 2.091h-23.043c-0.93-0.382-1.82-1.042-2.038-2.084v-0.848c0.236-0.962 0.798-1.786 1.276-2.639 3.318-5.706 6.683-11.387 10.105-17.034M13.307 3.175c-3.569 6.069-7.164 12.124-10.712 18.206 7.313 0.009 14.627 0.009 21.94 0-3.613-6.183-7.258-12.347-10.901-18.513-0.2-0.066-0.23 0.195-0.326 0.307z"></path>
<path fill="#fff" d="M13.307 3.175c0.097-0.112 0.127-0.373 0.326-0.307 3.643 6.165 7.288 12.329 10.901 18.513-7.313 0.009-14.627 0.009-21.94 0 3.548-6.082 7.143-12.137 10.712-18.206M11.068 10.12c-0.513 0.471-1.036 0.935-1.562 1.392-0.019 1.877-0.040 3.757 0.012 5.633 0.179 2.275 2.555 4.007 4.778 3.534 1.831-0.295 3.317-1.98 3.338-3.841 0.013-2.239 0.006-4.477 0.003-6.716-0.538 0.462-1.063 0.941-1.591 1.413-0.532-0.471-1.055-0.951-1.592-1.416-0.019 2.239 0.025 4.479-0.022 6.717-0.103 0.942-1.631 0.944-1.732 0-0.054-1.771 0.009-3.545-0.031-5.316-0.537-0.464-1.046-0.959-1.599-1.401z"></path>
<path fill="#030303" d="M11.068 10.12c0.553 0.443 1.063 0.938 1.599 1.401 0.040 1.771-0.022 3.545 0.031 5.316 0.101 0.944 1.629 0.942 1.732 0 0.048-2.238 0.003-4.478 0.022-6.717 0.537 0.465 1.060 0.945 1.592 1.416 0.528-0.473 1.052-0.951 1.591-1.413 0.003 2.239 0.010 4.477-0.003 6.716-0.021 1.862-1.507 3.546-3.338 3.842-2.223 0.473-4.599-1.26-4.778-3.534-0.052-1.877-0.031-3.757-0.012-5.633 0.526-0.458 1.049-0.921 1.562-1.392z"></path>
</svg>
