<!-- Generated by IcoMoon.io -->
<svg version="1.1" xmlns="http://www.w3.org/2000/svg" width="24" height="24" viewBox="0 0 24 24">
<title>warning--roundabout--g4</title>
<path fill="#000" d="M11.917 0.415c0.336-0.059 0.62 0.158 0.844 0.382 3.516 3.526 7.046 7.037 10.561 10.564 0.379 0.325 0.414 0.974 0.024 1.304-3.56 3.56-7.123 7.118-10.682 10.68-0.325 0.39-0.995 0.377-1.319-0.008-3.54-3.54-7.081-7.080-10.624-10.619-0.378-0.308-0.458-0.932-0.084-1.277 3.527-3.554 7.087-7.076 10.619-10.627 0.19-0.173 0.386-0.391 0.661-0.398M11.815 0.889c-3.587 3.492-7.091 7.074-10.649 10.598-0.25 0.218-0.541 0.583-0.2 0.868 3.529 3.548 7.079 7.079 10.616 10.62 0.169 0.212 0.503 0.374 0.716 0.125 3.594-3.565 7.168-7.152 10.745-10.733 0.288-0.212 0.163-0.584-0.079-0.773-3.52-3.521-7.040-7.042-10.565-10.558-0.142-0.17-0.379-0.232-0.584-0.148z"></path>
<path fill="#000" d="M13.301 5.942c0.445 0.511 0.871 1.037 1.314 1.549-0.659 0.152-1.33 0.242-1.992 0.373 0.073-0.146 0.148-0.292 0.221-0.439-0.949-0.136-1.92-0.011-2.801 0.367-0.168-0.332-0.33-0.668-0.455-1.020 1.139-0.534 2.428-0.613 3.658-0.421 0.018-0.137 0.036-0.272 0.055-0.409z"></path>
<path fill="#000" d="M11.447 10.738c0.906-0.457 2.080 0.373 1.963 1.375 0.008 1.079-1.392 1.706-2.225 1.057-0.872-0.576-0.712-2.051 0.262-2.432z"></path>
<path fill="#000" d="M6.794 12.044c0.446 0.511 0.877 1.036 1.312 1.558-0.124-0.002-0.371-0.005-0.496-0.006 0.35 0.892 0.938 1.69 1.721 2.248-0.205 0.319-0.424 0.629-0.656 0.929-0.992-0.748-1.782-1.766-2.172-2.953-0.134 0.029-0.269 0.056-0.404 0.085 0.242-0.617 0.454-1.244 0.696-1.86z"></path>
<path fill="#000" d="M16.66 12.428c0.367 0.034 0.734 0.076 1.1 0.116-0.078 1.255-0.641 2.441-1.462 3.382 0.112 0.094 0.222 0.187 0.334 0.282-0.667 0.090-1.326 0.236-1.993 0.325 0.218-0.634 0.443-1.266 0.689-1.89 0.082 0.136 0.163 0.271 0.246 0.407 0.601-0.75 0.99-1.662 1.086-2.622z"></path>
<path fill="#ffef00" d="M11.815 0.889c0.205-0.084 0.443-0.023 0.584 0.148 3.524 3.516 7.045 7.037 10.565 10.558 0.242 0.188 0.367 0.56 0.079 0.773-3.577 3.581-7.151 7.168-10.745 10.733-0.214 0.25-0.547 0.088-0.716-0.125-3.538-3.541-7.087-7.072-10.616-10.62-0.341-0.284-0.049-0.649 0.2-0.868 3.558-3.524 7.062-7.106 10.649-10.598M13.301 5.942c-0.019 0.137-0.037 0.272-0.055 0.409-1.23-0.192-2.519-0.113-3.658 0.421 0.125 0.352 0.287 0.688 0.455 1.020 0.881-0.378 1.852-0.503 2.801-0.367-0.073 0.148-0.148 0.293-0.221 0.439 0.662-0.131 1.333-0.221 1.992-0.373-0.443-0.512-0.869-1.038-1.314-1.549M11.447 10.738c-0.973 0.382-1.134 1.856-0.262 2.432 0.833 0.649 2.233 0.022 2.225-1.057 0.116-1.002-1.057-1.832-1.963-1.375M6.794 12.044c-0.242 0.616-0.454 1.243-0.696 1.86 0.136-0.029 0.27-0.056 0.404-0.085 0.39 1.187 1.18 2.206 2.172 2.953 0.233-0.3 0.451-0.61 0.656-0.929-0.782-0.558-1.37-1.356-1.721-2.248 0.125 0.001 0.372 0.004 0.496 0.006-0.434-0.522-0.865-1.046-1.312-1.558M16.66 12.428c-0.096 0.96-0.485 1.872-1.086 2.622-0.083-0.136-0.164-0.271-0.246-0.407-0.246 0.624-0.47 1.256-0.689 1.89 0.667-0.089 1.326-0.235 1.993-0.325-0.112-0.095-0.222-0.188-0.334-0.282 0.821-0.941 1.384-2.126 1.462-3.382-0.366-0.041-0.733-0.083-1.1-0.116z"></path>
</svg>
