<!-- Generated by IcoMoon.io -->
<svg version="1.1" xmlns="http://www.w3.org/2000/svg" width="30" height="24" viewBox="0 0 30 24">
<title>warning--triple-lanes-left-turn-or-go-straight--g1</title>
<path fill="#ffd520" d="M0 0h30v24h-30v-24M0.453 0.501c-0.001 7.675-0.003 15.35 0.001 23.025 9.698 0.002 19.395 0.003 29.093 0 0.004-7.675 0.002-15.35 0.001-23.025-9.699-0.001-19.397-0.001-29.095 0z"></path>
<path fill="#ffd520" d="M0.955 1.003c9.363-0.002 18.727-0.002 28.091 0 0.002 7.34 0.003 14.681 0 22.022-9.364 0.003-18.727 0.003-28.091 0-0.003-7.341-0.002-14.682 0-22.022M24.817 2.895c-0.945 1.271-1.896 2.539-2.795 3.843-0.188 0.222-0.019 0.61 0.28 0.603 0.492-0.067 0.959-0.248 1.443-0.354 0.004 2.105 0.002 4.21 0.001 6.315-0.908-1.529-2.345-2.657-3.845-3.567 0.36-0.321 0.765-0.591 1.108-0.931 0.209-0.231 0-0.628-0.304-0.604-1.584-0.021-3.169 0-4.752 0.044 0.492 1.502 0.962 3.013 1.5 4.499 0.074 0.31 0.529 0.367 0.675 0.083 0.211-0.432 0.339-0.899 0.522-1.343 1.439 0.916 2.593 2.195 3.65 3.518 0.927 1.339 1.491 2.96 1.448 4.599-0.001 0.536-0.002 1.073 0 1.61 0.714 0.006 1.427 0.004 2.141 0.002 0.005-4.741-0.003-9.483 0.003-14.224 0.473 0.105 0.931 0.275 1.411 0.351 0.292 0.033 0.494-0.336 0.327-0.569-0.901-1.318-1.863-2.592-2.813-3.875M9.353 9.278c0.515 1.599 1.017 3.204 1.594 4.782 0.106 0.277 0.516 0.312 0.674 0.061 0.236-0.458 0.364-0.964 0.567-1.437 1.114 0.649 1.61 1.984 1.638 3.22 0.020 1.758 0.002 3.517 0.009 5.275 0.676 0.002 1.353 0.002 2.030 0-0.005-1.896 0.011-3.791-0.008-5.687-0.030-1.798-0.893-3.578-2.354-4.645 0.381-0.339 0.807-0.628 1.167-0.989 0.194-0.23 0.009-0.612-0.284-0.617-1.677-0.028-3.356 0.009-5.033 0.037M2.418 10.323c0.515 1.593 1.012 3.194 1.588 4.766 0.097 0.318 0.584 0.332 0.712 0.031 0.208-0.452 0.345-0.935 0.541-1.393 1.084 0.653 1.596 1.946 1.632 3.167 0.026 1.428 0.001 2.857 0.012 4.286 0.676 0 1.352 0.001 2.028-0.001-0.002-1.558 0.013-3.116-0.008-4.674-0.038-1.787-0.903-3.55-2.354-4.609 0.377-0.334 0.799-0.618 1.157-0.972 0.223-0.242 0.004-0.668-0.32-0.64-1.663-0.021-3.326 0.013-4.988 0.039z"></path>
<path fill="#000" d="M0.453 0.501c9.698-0.001 19.396-0.001 29.095 0 0.001 7.675 0.003 15.35-0.001 23.025-9.698 0.003-19.395 0.002-29.093 0-0.004-7.675-0.002-15.35-0.001-23.025M0.955 1.003c-0.002 7.34-0.003 14.681 0 22.022 9.364 0.003 18.727 0.003 28.091 0 0.003-7.341 0.002-14.682 0-22.022-9.364-0.002-18.728-0.002-28.091 0z"></path>
<path fill="#000" d="M24.817 2.895c0.95 1.283 1.912 2.557 2.813 3.875 0.167 0.233-0.035 0.602-0.327 0.569-0.48-0.076-0.938-0.246-1.411-0.351-0.006 4.741 0.002 9.483-0.003 14.224-0.714 0.002-1.427 0.004-2.141-0.002-0.002-0.537-0.001-1.074 0-1.61 0.043-1.639-0.521-3.26-1.448-4.599-1.057-1.323-2.211-2.602-3.65-3.518-0.183 0.444-0.311 0.911-0.522 1.343-0.146 0.284-0.601 0.227-0.675-0.083-0.538-1.486-1.008-2.997-1.5-4.499 1.583-0.044 3.168-0.065 4.752-0.044 0.304-0.024 0.513 0.373 0.304 0.604-0.343 0.34-0.748 0.61-1.108 0.931 1.5 0.91 2.937 2.038 3.845 3.567 0.001-2.105 0.003-4.21-0.001-6.315-0.484 0.106-0.951 0.287-1.443 0.354-0.299 0.007-0.468-0.381-0.28-0.603 0.899-1.304 1.85-2.572 2.795-3.843z"></path>
<path fill="#000" d="M9.353 9.278c1.677-0.028 3.356-0.065 5.033-0.037 0.293 0.005 0.478 0.387 0.284 0.617-0.36 0.361-0.786 0.65-1.167 0.989 1.461 1.067 2.324 2.847 2.354 4.645 0.019 1.896 0.003 3.791 0.008 5.687-0.677 0.002-1.354 0.002-2.030 0-0.007-1.758 0.011-3.517-0.009-5.275-0.028-1.236-0.524-2.571-1.638-3.22-0.203 0.473-0.331 0.979-0.567 1.437-0.158 0.251-0.568 0.216-0.674-0.061-0.577-1.578-1.079-3.183-1.594-4.782z"></path>
<path fill="#000" d="M2.418 10.323c1.662-0.026 3.325-0.060 4.988-0.039 0.324-0.028 0.543 0.398 0.32 0.64-0.358 0.354-0.78 0.638-1.157 0.972 1.451 1.059 2.316 2.822 2.354 4.609 0.021 1.558 0.006 3.116 0.008 4.674-0.676 0.002-1.352 0.001-2.028 0.001-0.011-1.429 0.014-2.858-0.012-4.286-0.036-1.221-0.548-2.514-1.632-3.167-0.196 0.458-0.333 0.941-0.541 1.393-0.128 0.301-0.615 0.287-0.712-0.031-0.576-1.572-1.073-3.173-1.588-4.766z"></path>
</svg>
