<!-- Generated by IcoMoon.io -->
<svg version="1.1" xmlns="http://www.w3.org/2000/svg" width="24" height="24" viewBox="0 0 24 24">
<title>warning--skewed-t-roads-right--g3</title>
<path fill="#c5a518" opacity="0.77" d="M11.783 0h0.394c0.415 0.278 0.745 0.656 1.098 1.006 3.46 3.462 6.925 6.918 10.379 10.384 0.338 0.277 0.36 0.838 0.026 1.127-3.719 3.724-7.442 7.441-11.161 11.164-0.316 0.373-0.919 0.301-1.198-0.078-3.756-3.816-7.624-7.531-11.321-11.399v-0.474c3.366-3.535 6.898-6.923 10.328-10.4 0.486-0.44 0.88-0.997 1.454-1.328M11.8 0.282c-0.128 0.067-0.235 0.169-0.341 0.266-3.654 3.658-7.314 7.31-10.967 10.97-0.242 0.191-0.366 0.57-0.090 0.791 3.716 3.727 7.444 7.442 11.161 11.168 0.185 0.247 0.581 0.264 0.773 0.017 3.718-3.722 7.439-7.441 11.159-11.161 0.241-0.19 0.212-0.58-0.019-0.764-3.678-3.685-7.363-7.362-11.041-11.046-0.163-0.161-0.39-0.365-0.635-0.241z"></path>
<path fill="#000" d="M11.8 0.282c0.245-0.124 0.472 0.080 0.635 0.241 3.678 3.684 7.363 7.361 11.041 11.046 0.232 0.185 0.26 0.575 0.019 0.764-3.72 3.72-7.441 7.439-11.159 11.161-0.192 0.247-0.588 0.23-0.773-0.017-3.718-3.726-7.445-7.441-11.161-11.168-0.276-0.221-0.152-0.6 0.090-0.791 3.653-3.66 7.313-7.313 10.967-10.97 0.106-0.097 0.212-0.199 0.341-0.266M11.828 0.668c-3.69 3.668-7.36 7.36-11.045 11.034-0.086 0.088-0.158 0.186-0.218 0.293 3.811 3.785 7.561 7.643 11.423 11.37 3.792-3.793 7.59-7.58 11.374-11.38-3.643-3.773-7.417-7.43-11.105-11.164-0.115-0.094-0.278-0.344-0.428-0.154z"></path>
<path fill="#000" d="M14.284 5.648c0.718-0.001 1.436-0.001 2.154 0 0.001 3.306 0.017 6.612-0.008 9.917-0.713-0.007-1.426-0.007-2.138 0-0.026-1.28 0-2.561-0.012-3.841-1.159-0.005-2.318-0.012-3.478 0.004-0.451-0.002-0.86 0.407-0.839 0.863-0.020 1.991 0.029 3.984-0.012 5.975-0.739-0.012-1.477 0.002-2.215-0.010 0.002-2.027-0.012-4.054 0.002-6.080 0.032-1.504 1.316-2.837 2.815-2.939 1.241-0.042 2.484 0.001 3.726-0.020 0.008-1.29-0.005-2.579 0.005-3.868z"></path>
<path fill="#ffd520" d="M11.828 0.668c0.15-0.191 0.313 0.060 0.428 0.154 3.688 3.733 7.462 7.391 11.105 11.164-3.784 3.799-7.582 7.586-11.374 11.38-3.862-3.727-7.612-7.585-11.423-11.37 0.060-0.107 0.132-0.205 0.218-0.293 3.685-3.674 7.355-7.366 11.045-11.034M14.284 5.648c-0.010 1.289 0.004 2.578-0.005 3.868-1.242 0.022-2.485-0.022-3.726 0.020-1.499 0.102-2.783 1.435-2.815 2.939-0.014 2.027 0 4.054-0.002 6.080 0.738 0.012 1.476-0.002 2.215 0.010 0.041-1.991-0.008-3.984 0.012-5.975-0.022-0.456 0.388-0.865 0.839-0.863 1.159-0.016 2.318-0.008 3.478-0.004 0.012 1.28-0.014 2.561 0.012 3.841 0.713-0.007 1.426-0.007 2.138 0 0.025-3.305 0.010-6.611 0.008-9.917-0.718-0.001-1.436-0.001-2.154 0z"></path>
</svg>
