<svg xmlns="http://www.w3.org/2000/svg" width="24" height="24">
    <path fill="#fff" d="M11.71 1.538c.54-.262 1.197.068 1.446.583 3.59 6.229 7.196 12.45 10.783 18.68.474.664.001 1.536-.719 1.756-7.397-.056-14.8-.056-22.197 0-.584-.194-.927-.729-.948-1.332.159-.056.222-.173.187-.354 3.517-6.098 7.046-12.19 10.56-18.291.236-.386.424-.879.889-1.041zm.333.332c-.316.022-.514.297-.66.547C7.987 8.311 4.58 14.2 1.182 20.093c-.217.394-.491.763-.634 1.191-.113.46.329.894.786.84H22.91c.582.083 1.03-.62.684-1.104-3.566-6.207-7.161-12.399-10.731-18.604-.157-.304-.444-.606-.82-.547z"/>
    <path fill="#fff" d="M3.723 19.982c2.796-4.851 5.596-9.7 8.4-14.546a8065.74 8065.74 0 0 1 8.4 14.546c-5.6.004-11.2.004-16.8 0zm8.193-9.235c-.464-.117-.938.062-.997.582-.351.172-.553.494-.47.892-.34.18-.556.491-.486.889-.132.196-.236.41-.303.637.654.052 1.317-.044 1.966.058.489.407.146 1.172.246 1.729.222.022.444.037.666.046.106.097.212.191.32.284l-.034 2.56h.916c-.149-.85-.3-1.7-.45-2.548l.316-.224c.42.104.844-.026 1.02-.443.504-.056.783-.473.666-.964.556-.29.493-.976-.029-1.26.123-.493-.104-.964-.629-1.046a1.46 1.46 0 0 0-.531-.59c-.106-.406-.447-.656-.87-.604-.251-.596-1.116-.689-1.316.001zm-3.633 3.564c-.024 1.009-.001 2.018-.01 3.027 1.14.039 2.284.052 3.426 0-.01-1.006.016-2.012-.009-3.017.024-.231-.207-.367-.414-.34-.884-.003-1.771-.012-2.657.006a.302.302 0 0 0-.336.324zm-.042 4.237c-.223 0-.444.001-.668.004l-.08.236c1.61.04 3.233.087 4.837-.024.134.029.27.058.404.089.004-.076.011-.226.013-.3-.34.011-.683.004-1.023-.006-.01-.38-.02-.759-.028-1.14l-.486.033c.007.371.023.74.046 1.111l-.069.001c-.01-.364-.036-.726-.062-1.089a65.77 65.77 0 0 1-.464-.022l-.036.462c-.417-.194-.85-.204-1.264.001a59.138 59.138 0 0 0-.049-.46h-.476c-.006.37-.009.74-.004 1.109l-.092-.001c.007-.373.007-.746.007-1.119l-.468-.026c-.011.38-.024.759-.039 1.14zm4.625.061c-.143.189.196.342.309.18.144-.19-.196-.34-.309-.18zm.436-.025l.009.267.374-.131c.096.031.289.097.384.129l-.01-.264a7.645 7.645 0 0 1-.757 0zm.892.026c-.143.189.197.338.311.177.144-.191-.197-.338-.311-.177zm.443-.026c-.001.058-.004.172-.004.23.26-.062.524-.06.784.001a8.966 8.966 0 0 1-.007-.23 8.281 8.281 0 0 1-.772-.001z"/>
    <path fill="#fff" d="M9.366 18.102c.204.067.406.137.609.21.216-.071.433-.142.65-.207l.036.456c-.447.004-.894.004-1.342 0l.049-.458z"/>
    <path fill="#c1121c" d="M12.043 1.87c.374-.06.662.243.82.547 3.57 6.204 7.164 12.396 10.731 18.604.347.484-.102 1.187-.684 1.104H1.334c-.457.054-.898-.38-.786-.84.143-.429.417-.797.634-1.191C4.581 14.201 7.988 8.312 11.383 2.418c.146-.25.343-.524.66-.547zm-8.32 18.112c5.6.004 11.2.004 16.8 0-2.796-4.851-5.594-9.7-8.4-14.546a9472.775 9472.775 0 0 0-8.4 14.546z"/>
    <path d="M11.916 10.747c.199-.69 1.064-.596 1.316-.001.423-.051.764.199.87.604.228.147.412.346.531.59.524.081.751.553.629 1.046.523.284.584.97.029 1.26.117.491-.161.908-.666.964-.177.417-.601.547-1.02.443l-.316.224.45 2.548h-.916l.034-2.56a17.086 17.086 0 0 1-.32-.284 11.457 11.457 0 0 1-.666-.046c-.1-.556.243-1.321-.246-1.729-.649-.103-1.311-.006-1.966-.058.067-.228.171-.441.303-.637-.069-.397.147-.709.486-.889-.083-.397.119-.72.47-.892.06-.52.533-.7.997-.582z"/>
    <path d="M8.283 14.311a.302.302 0 0 1 .336-.324c.886-.018 1.772-.009 2.657-.006.207-.028.439.108.414.34.024 1.004-.001 2.011.009 3.017-1.14.052-2.284.039-3.426 0 .009-1.009-.014-2.018.01-3.027zM8.28 17.409l.468.026c0 .373 0 .746-.007 1.119a25.493 25.493 0 0 1-.391-.007c-.024-.38-.047-.757-.069-1.137zM8.837 17.444h.476l.049.46a1.41 1.41 0 0 1 1.264-.001l.036-.462.464.022c.026.363.052.724.062 1.089l-.53.007-.036-.456a30.61 30.61 0 0 0-.65.207 21.874 21.874 0 0 0-.609-.21l-.049.458-.484-.006c-.004-.37-.001-.74.004-1.109zM11.212 17.44l.486-.033c-.016.38-.033.757-.053 1.136l-.387.009c-.023-.371-.039-.74-.046-1.111zM12.866 18.609c.114-.161.453-.011.309.18-.114.163-.452.01-.309-.18zM13.302 18.584c.252.012.504.013.757 0l.01.264c-.096-.031-.289-.097-.384-.129l-.374.131-.009-.267zM14.194 18.61c.114-.161.456-.014.311.177-.114.161-.454.012-.311-.177zM14.637 18.584c.257.013.514.012.772.001.001.057.004.172.007.23a1.702 1.702 0 0 0-.784-.001c.001-.058.004-.172.004-.23z"/>
    <path d="M7.493 18.789c1.586-.262 3.246-.227 4.837-.024-1.604.111-3.228.064-4.837.024z"/>
    <path fill="#535353" d="M8.241 18.548c.014-.38.028-.76.039-1.14.022.38.044.757.069 1.137.098.003.293.006.391.007l.092.001.484.006c.447.004.894.004 1.342 0l.53-.007.069-.001.387-.009c.02-.378.037-.756.053-1.136l.028 1.14c.34.01.683.017 1.023.006l-.013.3-.404-.089c-1.591-.203-3.252-.237-4.837.024l.08-.236c.223-.004.444-.004.668-.004z"/>
    <path fill="#4a4a4a" opacity=".8" d="M.076 21.224c-.034-.161.029-.279.187-.354.036.18-.028.298-.187.354z"/>
    <path fill="#0a0a0a" opacity=".44" d="M1.023 22.556c7.397-.056 14.8-.056 22.197 0l-.209.11H1.231l-.209-.11z"/>
</svg>
