<?xml version="1.0" encoding="utf-8"?>
<!-- Generated by IcoMoon.io -->
<!DOCTYPE svg PUBLIC "-//W3C//DTD SVG 1.1//EN" "http://www.w3.org/Graphics/SVG/1.1/DTD/svg11.dtd">
<svg version="1.1" xmlns="http://www.w3.org/2000/svg" xmlns:xlink="http://www.w3.org/1999/xlink" width="24" height="24" viewBox="0 0 24 24">
<path fill="#ec1d24" d="M11.849 1.38h0.224c0.564 0.035 1.092 0.364 1.356 0.865 3.334 5.78 6.665 11.564 9.998 17.346 0.216 0.382 0.47 0.752 0.572 1.187v0.469c-0.095 0.697-0.673 1.27-1.367 1.373h-21.247c-0.588-0.095-1.12-0.512-1.297-1.087-0.163-0.464-0.071-0.985 0.187-1.397 3.439-5.964 6.875-11.932 10.314-17.896 0.25-0.473 0.736-0.784 1.259-0.86M2.52 20.5c6.326 0.001 12.652 0.001 18.978-0.001-3.161-5.486-6.32-10.974-9.488-16.457-3.169 5.483-6.33 10.97-9.49 16.458z"></path>
<path fill="#fff" d="M2.52 20.5c3.16-5.488 6.32-10.975 9.49-16.458 3.168 5.483 6.328 10.97 9.488 16.457-6.326 0.002-12.652 0.002-18.978 0.001M16.364 14.876c0 0.376-0.002 0.751 0.004 1.127-0.474-0.302-1.193-0.281-1.544 0.197-0.379 0.536-0.396 1.308-0.064 1.871 0.336 0.514 1.081 0.55 1.58 0.268 0.134 0.238 0.485 0.064 0.71 0.112 0.001-1.19 0-2.382 0-3.574-0.228 0-0.457-0.001-0.686 0M6.899 18.458c0.234 0 0.469 0 0.703 0 0.001-0.499 0-0.998 0-1.496 0.481-0.001 0.961-0.001 1.442-0.001 0.001-0.223 0.001-0.446 0.002-0.668-0.481-0.006-0.962-0.002-1.444-0.004-0.001-0.24-0.001-0.481-0.001-0.721 0.527-0.001 1.054 0 1.58-0.001 0.001-0.223 0-0.448 0-0.671-0.762 0-1.523-0.001-2.284 0-0.001 1.188-0.002 2.376 0 3.563M10.258 15.868c-0.737 0.258-0.886 1.205-0.682 1.867 0.204 0.755 1.234 1.051 1.84 0.588 0.593-0.434 0.666-1.327 0.331-1.943-0.278-0.514-0.955-0.712-1.489-0.512M12.551 15.876c-0.001 0.859-0.001 1.717 0 2.575 0.228 0 0.457 0 0.686 0 0.014-0.503-0.028-1.008 0.022-1.51 0.053-0.379 0.466-0.469 0.786-0.44 0-0.224 0-0.45-0.001-0.674-0.293 0.006-0.588 0.078-0.8 0.294-0.001-0.061-0.004-0.184-0.004-0.244-0.23-0.001-0.46-0.001-0.689-0.001z"></path>
<path fill="#fff" d="M15.643 16.435c0.302-0.103 0.686 0.092 0.71 0.428 0.031 0.366 0.084 0.96-0.403 1.032-0.824 0.184-0.99-1.218-0.307-1.46z"></path>
<path fill="#fff" d="M10.459 16.494c0.274-0.202 0.702-0.035 0.744 0.31 0.078 0.384 0.091 1.015-0.396 1.121-0.71 0.032-0.791-1.064-0.348-1.43z"></path>
<path fill="#000" d="M16.364 14.876c0.229-0.001 0.458 0 0.686 0 0 1.192 0.001 2.383 0 3.574-0.226-0.048-0.576 0.126-0.71-0.112-0.499 0.282-1.244 0.246-1.58-0.268-0.332-0.563-0.316-1.334 0.064-1.871 0.352-0.478 1.070-0.499 1.544-0.197-0.006-0.376-0.004-0.751-0.004-1.127M15.643 16.435c-0.683 0.242-0.517 1.644 0.307 1.46 0.487-0.072 0.434-0.666 0.403-1.032-0.024-0.336-0.408-0.532-0.71-0.428z"></path>
<path fill="#000" d="M6.899 18.458c-0.002-1.187-0.001-2.375 0-3.563 0.761-0.001 1.522 0 2.284 0 0 0.223 0.001 0.448 0 0.671-0.527 0.001-1.054 0-1.58 0.001 0 0.24 0 0.481 0.001 0.721 0.481 0.001 0.962-0.002 1.444 0.004-0.001 0.222-0.001 0.445-0.002 0.668-0.481 0-0.961 0-1.442 0.001 0 0.498 0.001 0.997 0 1.496-0.234 0-0.469 0-0.703 0z"></path>
<path fill="#000" d="M10.258 15.868c0.534-0.199 1.211-0.001 1.489 0.512 0.335 0.616 0.262 1.508-0.331 1.943-0.606 0.463-1.636 0.167-1.84-0.588-0.204-0.662-0.055-1.609 0.682-1.867M10.459 16.494c-0.443 0.366-0.362 1.463 0.348 1.43 0.487-0.106 0.474-0.737 0.396-1.121-0.042-0.344-0.47-0.511-0.744-0.31z"></path>
<path fill="#000" d="M12.551 15.876c0.229 0 0.458 0 0.689 0.001 0 0.060 0.002 0.182 0.004 0.244 0.212-0.216 0.508-0.288 0.8-0.294 0.001 0.224 0.001 0.45 0.001 0.674-0.32-0.029-0.733 0.061-0.786 0.44-0.049 0.502-0.007 1.007-0.022 1.51-0.229 0-0.458 0-0.686 0-0.001-0.858-0.001-1.716 0-2.575z"></path>
</svg>
