<!-- Generated by IcoMoon.io -->
<svg version="1.1" xmlns="http://www.w3.org/2000/svg" width="24" height="24" viewBox="0 0 24 24">
<title>warning--two-way-traffic--g3</title>
<path fill="#bfa017" opacity="0.75" d="M11.844 0h0.361c0.411 0.155 0.691 0.502 0.994 0.801 3.299 3.301 6.6 6.6 9.9 9.9 0.314 0.321 0.662 0.616 0.901 1.002v0.64c-0.256 0.419-0.64 0.731-0.978 1.079-3.222 3.212-6.44 6.428-9.662 9.639-0.326 0.32-0.63 0.666-1 0.939h-0.635c-0.356-0.208-0.622-0.528-0.912-0.813-3.484-3.483-6.967-6.968-10.452-10.45-0.149-0.152-0.262-0.334-0.361-0.522v-0.367c0.085-0.214 0.214-0.407 0.377-0.568 3.466-3.468 6.927-6.941 10.394-10.409 0.329-0.321 0.626-0.707 1.073-0.871M11.736 0.244c-0.254 0.131-0.438 0.357-0.639 0.553-3.548 3.553-7.104 7.097-10.649 10.652-0.324 0.281-0.349 0.83-0.016 1.115 3.685 3.684 7.37 7.37 11.055 11.055 0.289 0.328 0.829 0.303 1.105-0.028 3.68-3.686 7.367-7.364 11.045-11.052 0.324-0.298 0.267-0.838-0.062-1.109-3.651-3.652-7.303-7.302-10.954-10.953-0.213-0.255-0.575-0.36-0.885-0.233z"></path>
<path fill="#000" d="M11.736 0.244c0.31-0.127 0.672-0.022 0.885 0.233 3.651 3.651 7.303 7.301 10.954 10.953 0.329 0.271 0.386 0.811 0.062 1.109-3.678 3.688-7.365 7.366-11.045 11.052-0.276 0.331-0.816 0.356-1.105 0.028-3.685-3.685-7.37-7.371-11.055-11.055-0.333-0.285-0.308-0.834 0.016-1.115 3.545-3.555 7.101-7.099 10.649-10.652 0.201-0.196 0.385-0.422 0.639-0.553M11.935 0.536c-0.146 0.028-0.24 0.16-0.347 0.251-3.631 3.638-7.272 7.266-10.902 10.905-0.19 0.155-0.217 0.469-0.019 0.63 3.685 3.685 7.37 7.371 11.054 11.057 0.163 0.2 0.48 0.175 0.632-0.025 3.679-3.686 7.365-7.367 11.046-11.052 0.199-0.175 0.126-0.485-0.063-0.637-3.632-3.635-7.269-7.266-10.9-10.901-0.133-0.131-0.296-0.287-0.501-0.228z"></path>
<path fill="#000" d="M11.584 3.565c0.286-0.004 0.573-0.005 0.86-0.002 0.012 1.167 0.005 2.334 0.004 3.5-0.287 0.005-0.575 0.006-0.862 0.002-0.011-1.166-0.005-2.333-0.002-3.5z"></path>
<path fill="#000" d="M14.974 10.076c0.603-0.762 1.102-1.667 1.76-2.348 0.654 0.93 1.367 1.824 1.98 2.779 0.011 0.661-0.801 0.184-1.168 0.133-0.004 1.652 0.002 3.305-0.003 4.958-0.558 0.003-1.117 0.004-1.676 0-0.005-1.653 0.001-3.306-0.002-4.959-0.334 0.063-0.66 0.241-1.002 0.213-0.377-0.175-0.053-0.565 0.111-0.776z"></path>
<path fill="#000" d="M6.487 8.463c0.555-0.007 1.11 0.001 1.665-0.006 0.031 1.656-0.001 3.313 0.015 4.969 0.371-0.030 1.070-0.515 1.188 0.073-0.614 0.997-1.36 1.914-2.025 2.881-0.668-0.969-1.423-1.886-2.039-2.885 0.125-0.586 0.814-0.103 1.191-0.074 0.008-1.653-0.003-3.306 0.005-4.958z"></path>
<path fill="#000" d="M11.584 10.276c0.287-0.006 0.575-0.006 0.863-0.001 0.002 1.168 0.010 2.336-0.004 3.503-0.287 0-0.574-0.001-0.86-0.004-0.003-1.166-0.005-2.332 0.001-3.498z"></path>
<path fill="#000" d="M11.583 17.003c0.288-0.005 0.576-0.005 0.865-0.001 0.003 1.166 0.004 2.333-0.001 3.5-0.288 0.004-0.576 0.004-0.864-0.001-0.004-1.166-0.004-2.332 0-3.498z"></path>
<path fill="#ffd520" d="M11.935 0.536c0.205-0.059 0.368 0.097 0.501 0.228 3.631 3.635 7.268 7.266 10.9 10.901 0.189 0.152 0.262 0.462 0.063 0.637-3.681 3.685-7.367 7.366-11.046 11.052-0.152 0.2-0.469 0.225-0.632 0.025-3.684-3.686-7.369-7.372-11.054-11.057-0.198-0.161-0.171-0.475 0.019-0.63 3.63-3.639 7.271-7.267 10.902-10.905 0.107-0.091 0.201-0.223 0.347-0.251M11.584 3.565c-0.003 1.167-0.009 2.334 0.002 3.5 0.287 0.004 0.575 0.003 0.862-0.002 0.001-1.166 0.008-2.333-0.004-3.5-0.287-0.003-0.574-0.002-0.86 0.002M14.974 10.076c-0.164 0.211-0.488 0.601-0.111 0.776 0.342 0.028 0.668-0.15 1.002-0.213 0.003 1.653-0.003 3.306 0.002 4.959 0.559 0.004 1.118 0.003 1.676 0 0.005-1.653-0.001-3.306 0.003-4.958 0.367 0.051 1.179 0.528 1.168-0.133-0.613-0.955-1.326-1.849-1.98-2.779-0.658 0.681-1.157 1.586-1.76 2.348M6.487 8.463c-0.008 1.652 0.003 3.305-0.005 4.958-0.377-0.029-1.066-0.512-1.191 0.074 0.616 0.999 1.371 1.916 2.039 2.885 0.665-0.967 1.411-1.884 2.025-2.881-0.118-0.588-0.817-0.103-1.188-0.073-0.016-1.656 0.016-3.313-0.015-4.969-0.555 0.007-1.11-0.001-1.665 0.006M11.584 10.276c-0.006 1.166-0.004 2.332-0.001 3.498 0.286 0.003 0.573 0.004 0.86 0.004 0.014-1.167 0.006-2.335 0.004-3.503-0.288-0.005-0.576-0.005-0.863 0.001M11.583 17.003c-0.004 1.166-0.004 2.332 0 3.498 0.288 0.005 0.576 0.005 0.864 0.001 0.005-1.167 0.004-2.334 0.001-3.5-0.289-0.004-0.577-0.004-0.865 0.001z"></path>
</svg>
