<!-- Generated by IcoMoon.io -->
<svg version="1.1" xmlns="http://www.w3.org/2000/svg" width="24" height="24" viewBox="0 0 24 24">
<title>warning--weight-limit-per-tandem-axle--g1</title>
<path fill="#ffd700" d="M10.867 0.546c0.706-0.731 1.962-0.596 2.629 0.119 3.316 3.324 6.619 6.661 9.934 9.985 0.215 0.22 0.409 0.46 0.57 0.721v1.68c-0.682 0.805-1.478 1.501-2.212 2.258-2.939 2.888-5.813 5.846-8.794 8.69h-1.663c-0.47-0.247-0.809-0.665-1.18-1.031-3.173-3.19-6.346-6.379-9.52-9.568-0.706-0.678-0.804-1.937-0.060-2.624 3.428-3.413 6.858-6.827 10.295-10.231M11.795 0.524c-0.384 0.065-0.69 0.328-0.954 0.596-3.29 3.27-6.58 6.54-9.865 9.814-0.646 0.578-0.616 1.663-0.001 2.251 3.33 3.352 6.661 6.702 9.99 10.054 0.575 0.611 1.654 0.683 2.243 0.054 3.366-3.358 6.745-6.702 10.111-10.058 0.622-0.606 0.51-1.68-0.108-2.248-3.286-3.313-6.58-6.62-9.874-9.926-0.384-0.421-0.976-0.648-1.542-0.536z"></path>
<path fill="#ffd700" d="M11.79 1.349c0.414-0.208 0.845 0.078 1.121 0.378 3.246 3.277 6.509 6.538 9.748 9.821 0.34 0.301 0.415 0.883 0.049 1.194-3.354 3.328-6.7 6.665-10.052 9.994-0.304 0.328-0.846 0.264-1.134-0.050-3.316-3.328-6.622-6.666-9.938-9.992-0.378-0.324-0.408-0.952 0.002-1.264 3.408-3.352 6.743-6.791 10.205-10.080M13.171 5.381c0.011 0.275-0.002 0.551 0.010 0.827-0.078 0.022-0.233 0.066-0.31 0.089 0.001 0.202 0.002 0.404 0.002 0.607 0.084 0.012 0.252 0.035 0.336 0.047 0.020 0.457-0.058 0.931 0.060 1.379 0.15 0.431 0.666 0.499 1.039 0.338 0.049-0.257 0.112-0.511 0.168-0.767-0.202 0.072-0.409 0.115-0.623 0.106-0.014-0.364-0.011-0.728 0.012-1.092 0.095-0.004 0.282-0.011 0.377-0.014 0.001-0.209 0.002-0.416 0.005-0.625-0.095-0.014-0.287-0.043-0.383-0.059 0.002-0.385 0.002-0.77-0.001-1.157-0.234 0.102-0.462 0.214-0.692 0.322M9.288 5.778c0.18 0.175 0.359 0.35 0.542 0.521 0.413-0.389 1.199-0.582 1.572-0.048 0.058 0.356-0.364 0.306-0.588 0.379-0.984 0.196-1.589 1.252-1.435 2.214 0.937 0.008 1.874 0.005 2.81 0.002 0.002-0.288-0.001-0.575-0.002-0.862-0.634-0.006-1.268 0.013-1.901-0.017 0.202-0.352 0.547-0.56 0.95-0.596 0.68-0.092 1.23-0.918 0.823-1.543-0.628-0.925-2.059-0.826-2.772-0.050M10.229 10.657c0.578 0.628 1.195 1.218 1.788 1.83 0.582-0.608 1.177-1.206 1.741-1.831-1.176-0.025-2.353-0.029-3.529 0.001M6.757 13.11c-0.144 1.141-0.023 2.318-0.059 3.474 0.544 0.146 1.118 0.078 1.674 0.062 0.332-0.295 0.089-0.881 0.162-1.292 0.76-0.002 1.52-0.005 2.281 0 0.461 0.893 1.795 0.894 2.256 0.001 0.844-0.006 1.687-0.004 2.531-0.001 0.067 0.414-0.154 0.967 0.146 1.291 0.559 0.022 1.136 0.078 1.686-0.055-0.028-1.16 0.090-2.342-0.056-3.487-0.532-0.126-1.102-0.064-1.645-0.038-0.263 0.334-0.074 0.85-0.13 1.254-0.841 0.001-1.682 0.006-2.524-0.002-0.462-0.896-1.812-0.898-2.274 0-0.757 0.007-1.514 0.005-2.272 0.002-0.010-0.403 0.042-0.816-0.054-1.212-0.551-0.109-1.177-0.12-1.723 0.004z"></path>
<path fill="#000" d="M11.795 0.524c0.566-0.112 1.158 0.115 1.542 0.536 3.294 3.306 6.588 6.613 9.874 9.926 0.618 0.568 0.73 1.642 0.108 2.248-3.366 3.356-6.745 6.701-10.111 10.058-0.589 0.629-1.668 0.557-2.243-0.054-3.329-3.352-6.66-6.702-9.99-10.054-0.614-0.588-0.644-1.673 0.001-2.251 3.286-3.274 6.575-6.544 9.865-9.814 0.264-0.269 0.57-0.532 0.954-0.596M11.79 1.349c-3.462 3.289-6.797 6.728-10.205 10.080-0.41 0.312-0.38 0.94-0.002 1.264 3.317 3.326 6.623 6.665 9.938 9.992 0.288 0.314 0.83 0.378 1.134 0.050 3.353-3.329 6.698-6.666 10.052-9.994 0.366-0.311 0.29-0.893-0.049-1.194-3.239-3.283-6.502-6.544-9.748-9.821-0.276-0.3-0.707-0.586-1.121-0.378z"></path>
<path fill="#000" d="M13.171 5.381c0.23-0.108 0.458-0.22 0.692-0.322 0.004 0.386 0.004 0.772 0.001 1.157 0.096 0.016 0.288 0.044 0.383 0.059-0.002 0.209-0.004 0.416-0.005 0.625-0.095 0.004-0.282 0.011-0.377 0.014-0.023 0.364-0.026 0.728-0.012 1.092 0.214 0.010 0.421-0.034 0.623-0.106-0.056 0.256-0.119 0.51-0.168 0.767-0.373 0.161-0.889 0.092-1.039-0.338-0.118-0.448-0.040-0.922-0.060-1.379-0.084-0.012-0.252-0.035-0.336-0.047 0-0.203-0.001-0.406-0.002-0.607 0.077-0.023 0.232-0.067 0.31-0.089-0.012-0.276 0.001-0.552-0.010-0.827z"></path>
<path fill="#000" d="M9.288 5.778c0.713-0.775 2.144-0.875 2.772 0.050 0.407 0.625-0.143 1.451-0.823 1.543-0.403 0.036-0.749 0.245-0.95 0.596 0.632 0.030 1.267 0.011 1.901 0.017 0.001 0.287 0.005 0.574 0.002 0.862-0.936 0.002-1.873 0.006-2.81-0.002-0.154-0.962 0.451-2.018 1.435-2.214 0.224-0.073 0.646-0.023 0.588-0.379-0.373-0.534-1.159-0.341-1.572 0.048-0.184-0.17-0.362-0.346-0.542-0.521z"></path>
<path fill="#000" d="M10.229 10.657c1.176-0.030 2.353-0.026 3.529-0.001-0.564 0.625-1.159 1.223-1.741 1.831-0.593-0.612-1.21-1.202-1.788-1.83z"></path>
<path fill="#000" d="M6.757 13.11c0.546-0.124 1.172-0.113 1.723-0.004 0.096 0.396 0.044 0.809 0.054 1.212 0.757 0.002 1.514 0.005 2.272-0.002 0.462-0.898 1.812-0.896 2.274 0 0.841 0.008 1.682 0.004 2.524 0.002 0.055-0.404-0.133-0.92 0.13-1.254 0.544-0.025 1.114-0.088 1.645 0.038 0.146 1.145 0.029 2.327 0.056 3.487-0.55 0.133-1.127 0.077-1.686 0.055-0.3-0.324-0.079-0.877-0.146-1.291-0.844-0.002-1.687-0.005-2.531 0.001-0.461 0.893-1.795 0.892-2.256-0.001-0.761-0.005-1.522-0.002-2.281 0-0.073 0.412 0.17 0.997-0.162 1.292-0.556 0.016-1.13 0.084-1.674-0.062 0.036-1.156-0.085-2.333 0.059-3.474z"></path>
</svg>
