<?xml version="1.0" encoding="utf-8"?>
<!-- Generated by IcoMoon.io -->
<!DOCTYPE svg PUBLIC "-//W3C//DTD SVG 1.1//EN" "http://www.w3.org/Graphics/SVG/1.1/DTD/svg11.dtd">
<svg version="1.1" xmlns="http://www.w3.org/2000/svg" xmlns:xlink="http://www.w3.org/1999/xlink" width="24" height="24" viewBox="0 0 24 24">
<path fill="#0d1111" d="M11.213 0.639c0.195-0.179 0.409-0.382 0.687-0.399 0.258-0.009 0.454 0.187 0.633 0.347 3.402 3.34 6.801 6.682 10.117 10.108 0.364 0.391 0.767 0.753 1.066 1.199 0.178 0.31-0.028 0.669-0.249 0.898-1.203 1.282-2.445 2.527-3.686 3.772-2.352 2.345-4.711 4.685-7.124 6.966-0.253 0.232-0.572 0.559-0.948 0.401-0.431-0.249-0.752-0.642-1.115-0.975-1.939-1.873-3.853-3.772-5.756-5.682-1.325-1.331-2.663-2.648-3.947-4.020-0.322-0.343-0.626-0.71-0.839-1.132v-0.162c0.155-0.279 0.359-0.528 0.582-0.756 3.477-3.569 7.010-7.087 10.579-10.564M11.745 0.767c-0.104 0.061-0.194 0.143-0.282 0.226-3.57 3.578-7.149 7.148-10.722 10.723-0.26 0.197-0.284 0.587-0.015 0.789 3.607 3.606 7.209 7.217 10.817 10.822 0.148 0.169 0.418 0.277 0.617 0.128 0.27-0.208 0.49-0.471 0.733-0.708 3.269-3.268 6.534-6.538 9.805-9.804 0.214-0.229 0.484-0.422 0.624-0.71 0.068-0.218-0.090-0.405-0.23-0.549-3.58-3.57-7.152-7.148-10.727-10.722-0.154-0.158-0.396-0.334-0.62-0.195z"></path>
<path fill="#0d1111" d="M7.959 7.306c0.152-0.165 0.416-0.144 0.612-0.081 0.603 0.403 1.105 0.929 1.595 1.457 0.411 0.404 0.881 0.741 1.274 1.165 0.824 0.813 1.683 1.589 2.489 2.419 0.38 0.321 0.73 0.726 1.215 0.88 0.176-0.182 0.354-0.359 0.529-0.542 0.211-0.017 0.476-0.026 0.585 0.199 0.367 0.635 0.437 1.386 0.666 2.073 0.129 0.688 0.369 1.351 0.484 2.041-0.681 0.047-1.375 0.043-2.035-0.145-0.994-0.149-1.985-0.341-2.921-0.717 0.081-0.433 0.571-0.636 0.854-0.937-0.033-0.254-0.237-0.423-0.395-0.605-0.58-0.649-1.286-1.168-1.844-1.837-1.010-0.961-1.984-1.96-2.98-2.937-0.378-0.393-0.785-0.759-1.138-1.177 0.252-0.48 0.607-0.899 1.011-1.258z"></path>
<path fill="#fecf33" d="M11.745 0.767c0.224-0.139 0.466 0.037 0.62 0.195 3.575 3.574 7.148 7.152 10.727 10.722 0.14 0.144 0.298 0.332 0.23 0.549-0.14 0.288-0.41 0.481-0.624 0.71-3.271 3.266-6.536 6.536-9.805 9.804-0.243 0.237-0.464 0.499-0.733 0.708-0.199 0.149-0.469 0.041-0.617-0.128-3.608-3.605-7.21-7.216-10.817-10.822-0.269-0.202-0.245-0.592 0.015-0.789 3.573-3.575 7.152-7.146 10.722-10.723 0.088-0.083 0.178-0.164 0.282-0.226M7.959 7.306c-0.404 0.359-0.759 0.778-1.011 1.258 0.352 0.418 0.76 0.783 1.138 1.177 0.996 0.977 1.97 1.976 2.98 2.937 0.559 0.669 1.264 1.189 1.844 1.837 0.158 0.182 0.363 0.35 0.395 0.605-0.283 0.3-0.773 0.503-0.854 0.937 0.935 0.376 1.927 0.568 2.921 0.717 0.661 0.188 1.354 0.192 2.035 0.145-0.115-0.689-0.355-1.352-0.484-2.041-0.229-0.687-0.299-1.438-0.666-2.073-0.109-0.225-0.374-0.217-0.585-0.199-0.175 0.183-0.353 0.361-0.529 0.542-0.485-0.154-0.835-0.56-1.215-0.88-0.806-0.83-1.665-1.606-2.489-2.419-0.392-0.424-0.863-0.761-1.274-1.165-0.49-0.528-0.993-1.054-1.595-1.457-0.196-0.063-0.46-0.085-0.612 0.081z"></path>
</svg>
