<!-- Generated by IcoMoon.io -->
<svg version="1.1" xmlns="http://www.w3.org/2000/svg" width="24" height="24" viewBox="0 0 24 24">
<title>warning--road-narrows-right--g2</title>
<path fill="#231f20" d="M10.904 1.66c0.671-0.725 1.914-0.778 2.614-0.065 3.264 3.098 6.506 6.22 9.764 9.323 0.406 0.346 0.611 0.85 0.718 1.36v0.024c-0.112 0.484-0.284 0.976-0.66 1.32-3.122 3.116-6.236 6.241-9.36 9.356-0.668 0.688-1.871 0.724-2.555 0.040-3.311-3.172-6.631-6.334-9.94-9.506-0.695-0.655-0.634-1.85 0.055-2.488 3.12-3.122 6.233-6.252 9.364-9.364M12.043 1.368c-0.425 0.044-0.785 0.301-1.073 0.6-3.078 3.084-6.167 6.157-9.236 9.248-0.59 0.536-0.644 1.55-0.056 2.108 3.311 3.169 6.629 6.331 9.942 9.499 0.577 0.587 1.602 0.544 2.167-0.037 3.144-3.136 6.281-6.278 9.42-9.419 0.599-0.553 0.619-1.59 0.002-2.137-3.241-3.12-6.505-6.217-9.756-9.329-0.361-0.377-0.881-0.625-1.41-0.534z"></path>
<path fill="#231f20" d="M11.681 1.854c0.641-0.239 1.396-0.053 1.861 0.445 3.053 2.908 6.102 5.819 9.148 8.735 0.692 0.598 0.749 1.75 0.109 2.406-2.956 2.965-5.915 5.927-8.876 8.885-0.641 0.658-1.799 0.703-2.456 0.047-3.086-2.954-6.179-5.902-9.268-8.852-0.701-0.623-0.677-1.807-0.002-2.438 2.797-2.804 5.597-5.606 8.398-8.407 0.324-0.318 0.642-0.677 1.087-0.82M11.8 2.213c-0.329 0.113-0.578 0.368-0.821 0.606-2.832 2.846-5.686 5.674-8.51 8.527-0.533 0.493-0.558 1.42 0 1.904 3.092 2.95 6.18 5.906 9.271 8.857 0.516 0.506 1.418 0.462 1.913-0.053 2.944-2.936 5.884-5.879 8.825-8.819 0.541-0.515 0.517-1.454-0.058-1.934-3.041-2.922-6.096-5.827-9.146-8.738-0.372-0.39-0.966-0.542-1.474-0.35z"></path>
<path fill="#231f20" d="M9.26 6.394c0.613-0.002 1.228-0.005 1.841 0.001 0.002 3.931 0.004 7.862-0.001 11.795-0.613 0.005-1.226 0.004-1.84 0.001-0.005-3.932-0.004-7.865 0-11.797z"></path>
<path fill="#231f20" d="M12.635 6.386c0.614-0.005 1.228-0.005 1.842 0 0.012 1.073-0.017 2.146 0.011 3.217 0.318 1.147 0.871 2.227 1.177 3.377 0.016 1.739 0.005 3.479 0.005 5.218-0.611 0.005-1.222 0.004-1.832 0-0.006-1.306 0-2.612-0.002-3.918 0.161-1.585-0.893-2.936-1.198-4.439-0.010-1.152-0.002-2.304-0.002-3.455z"></path>
<path fill="#fff100" d="M12.043 1.368c0.529-0.091 1.049 0.157 1.41 0.534 3.251 3.112 6.515 6.209 9.756 9.329 0.617 0.547 0.596 1.584-0.002 2.137-3.139 3.14-6.276 6.283-9.42 9.419-0.565 0.581-1.59 0.624-2.167 0.037-3.313-3.168-6.631-6.33-9.942-9.499-0.588-0.558-0.534-1.572 0.056-2.108 3.070-3.091 6.158-6.164 9.236-9.248 0.288-0.299 0.648-0.556 1.073-0.6M11.681 1.854c-0.445 0.143-0.763 0.502-1.087 0.82-2.801 2.801-5.6 5.603-8.398 8.407-0.674 0.631-0.698 1.816 0.002 2.438 3.089 2.951 6.181 5.898 9.268 8.852 0.658 0.656 1.816 0.611 2.456-0.047 2.962-2.958 5.921-5.92 8.876-8.885 0.64-0.656 0.583-1.808-0.109-2.406-3.046-2.916-6.095-5.827-9.148-8.735-0.466-0.498-1.22-0.684-1.861-0.445z"></path>
<path fill="#fff100" d="M11.8 2.213c0.508-0.192 1.102-0.040 1.474 0.35 3.050 2.911 6.106 5.816 9.146 8.738 0.575 0.48 0.599 1.42 0.058 1.934-2.941 2.94-5.881 5.882-8.825 8.819-0.494 0.515-1.397 0.559-1.913 0.053-3.091-2.951-6.179-5.908-9.271-8.857-0.558-0.485-0.533-1.411 0-1.904 2.825-2.854 5.678-5.681 8.51-8.527 0.242-0.238 0.492-0.493 0.821-0.606M9.26 6.394c-0.004 3.932-0.005 7.865 0 11.797 0.613 0.002 1.226 0.004 1.84-0.001 0.005-3.932 0.004-7.864 0.001-11.795-0.613-0.006-1.228-0.004-1.841-0.001M12.635 6.386c0 1.151-0.007 2.303 0.002 3.455 0.305 1.502 1.358 2.854 1.198 4.439 0.002 1.306-0.004 2.612 0.002 3.918 0.611 0.004 1.222 0.005 1.832 0 0-1.739 0.011-3.479-0.005-5.218-0.306-1.15-0.859-2.23-1.177-3.377-0.028-1.072 0.001-2.144-0.011-3.217-0.614-0.005-1.228-0.005-1.842 0z"></path>
</svg>
