<?xml version="1.0" encoding="utf-8"?>
<!-- Generated by IcoMoon.io -->
<!DOCTYPE svg PUBLIC "-//W3C//DTD SVG 1.1//EN" "http://www.w3.org/Graphics/SVG/1.1/DTD/svg11.dtd">
<svg version="1.1" xmlns="http://www.w3.org/2000/svg" xmlns:xlink="http://www.w3.org/1999/xlink" width="24" height="24" viewBox="0 0 24 24">
<path fill="#000" d="M11.318 0.754c0.365-0.48 1.090-0.425 1.441 0.042 3.517 3.526 7.044 7.042 10.562 10.567 0.293 0.253 0.38 0.685 0.228 1.038-0.184 0.283-0.449 0.499-0.682 0.74-3.402 3.4-6.804 6.802-10.205 10.204-0.176 0.191-0.43 0.264-0.664 0.355-0.232-0.096-0.479-0.181-0.658-0.365-3.461-3.458-6.916-6.923-10.38-10.376-0.256-0.263-0.601-0.54-0.568-0.948-0.024-0.286 0.178-0.506 0.361-0.696 3.523-3.518 7.043-7.040 10.562-10.561M11.62 1.049c-3.52 3.526-7.058 7.031-10.565 10.567-0.106 0.116-0.202 0.241-0.299 0.364 0.084 0.146 0.145 0.312 0.264 0.436 3.54 3.544 7.084 7.085 10.628 10.622 0.127 0.142 0.299 0.221 0.492 0.179 0.313-0.214 0.554-0.512 0.827-0.773 3.18-3.179 6.364-6.355 9.54-9.536 0.238-0.25 0.516-0.467 0.702-0.76 0.042-0.197-0.054-0.365-0.192-0.494-3.53-3.545-7.076-7.076-10.615-10.614-0.192-0.252-0.595-0.244-0.782 0.010z"></path>
<path fill="#000" d="M8.854 10.615c0.001-0.398-0.026-0.804 0.079-1.193 3.076 0.010 6.151-0.023 9.227 0.017 0.042 1.475 0.007 2.951 0.019 4.427-0.733-0.004-1.466 0.006-2.198-0.008 0.307 0.229 0.575 0.538 0.584 0.941-0.19-0.292-0.304-0.678-0.65-0.824-0.335-0.191-0.722-0.094-1.062 0.023-0.072 0.068-0.215 0.205-0.287 0.274 0.059 0.064 0.119 0.128 0.18 0.193 0.342-0.655 1.411-0.412 1.513 0.292 0.156 0.62-0.548 1.224-1.132 0.955-0.376-0.133-0.587-0.535-0.545-0.923-0.061-0.080-0.121-0.16-0.182-0.239l-0.152 0.254c0.064-0.372 0.314-0.659 0.548-0.936-1.908-0.005-3.816 0.001-5.724-0.004 0.005-1.040-0.004-2.081 0.005-3.121-0.055-0.032-0.168-0.096-0.223-0.127M13.616 10.367c-0.077 0.401-0.121 0.805-0.164 1.211 0.124 0.025 0.245 0.059 0.365 0.098 0.228-0.125 0.538-0.347 0.763-0.096 0.241 0.192 0.068 0.518-0.026 0.742-0.284 0.059-0.533-0.047-0.724-0.258-0.106 0.031-0.317 0.094-0.422 0.125 0.178 0.442 0.655 0.689 1.123 0.587 0.682-0.108 0.912-1.099 0.414-1.54-0.259-0.25-0.643-0.167-0.966-0.142 0.008-0.067 0.023-0.203 0.030-0.27 0.352-0.006 0.703-0.006 1.054-0.004 0.005-0.151 0.010-0.301 0.014-0.452-0.486 0-0.973 0.001-1.46-0.001M15.78 10.474c0.002 0.174 0.006 0.348 0.008 0.522-0.065 0.001-0.194 0.004-0.259 0.004-0.002 0.121-0.004 0.242-0.005 0.364 0.065 0.001 0.194 0.005 0.259 0.006 0.005 0.378-0.017 0.756 0.018 1.133 0.181 0.352 0.641 0.242 0.947 0.15-0.046-0.109-0.090-0.22-0.134-0.33-0.090-0.007-0.27-0.020-0.36-0.028-0.012-0.31-0.014-0.618-0.012-0.928 0.102 0 0.307 0 0.409 0-0.002-0.124-0.005-0.247-0.007-0.371-0.101 0.001-0.302 0.004-0.403 0.005 0-0.221 0.001-0.443 0-0.664-0.154 0.044-0.308 0.089-0.461 0.137M10.47 10.368c0.002 0.114 0.008 0.343 0.011 0.457 0.382-0.001 0.762-0.002 1.142 0.004-0.275 0.637-0.548 1.274-0.81 1.916 0.126 0.002 0.379 0.005 0.506 0.007 0.29-0.638 0.545-1.291 0.839-1.928 0.002-0.113 0.005-0.341 0.006-0.455-0.565-0.002-1.129-0.001-1.694-0.001M12.546 12.334c-0.013 0.146-0.020 0.293-0.019 0.44 0.082 0.010 0.246 0.029 0.329 0.038 0.043-0.049 0.13-0.148 0.174-0.197-0.053-0.103-0.108-0.206-0.161-0.31-0.108 0.010-0.216 0.018-0.323 0.028z"></path>
<path fill="#000" d="M6.192 11.003c0.635-0.209 1.314-0.077 1.969-0.114 0.27-0.022 0.698 0.038 0.685 0.395 0.026 1.177 0 2.358 0.011 3.536-0.272-0.001-0.546-0.001-0.818-0.005-0.096-0.308-0.23-0.634-0.528-0.799-0.463-0.31-1.138-0.142-1.43 0.323-0.182 0.245-0.156 0.56-0.186 0.847-0.067-0.040-0.199-0.121-0.266-0.161-0.29-0.713-0.102-1.531 0.456-2.057 0.052-0.654-0.064-1.322 0.108-1.966M6.557 11.351c-0.020 0.436-0.020 0.872-0.005 1.308 0.478 0.049 0.961 0.047 1.441 0.008 0.025-0.442 0.026-0.884-0.008-1.325-0.476-0.023-0.953-0.025-1.428 0.008z"></path>
<path fill="#000" d="M6.138 14.874c-0.022-0.578 0.679-0.982 1.181-0.719 0.307 0.12 0.421 0.448 0.539 0.726-0.085 0.326-0.222 0.689-0.569 0.816-0.528 0.272-1.243-0.23-1.151-0.823z"></path>
<path fill="#ffef00" d="M11.62 1.049c0.187-0.253 0.59-0.262 0.782-0.010 3.539 3.538 7.085 7.069 10.615 10.614 0.138 0.13 0.234 0.298 0.192 0.494-0.186 0.293-0.464 0.51-0.702 0.76-3.176 3.181-6.36 6.358-9.54 9.536-0.272 0.26-0.514 0.559-0.827 0.773-0.193 0.042-0.365-0.037-0.492-0.179-3.545-3.538-7.088-7.079-10.628-10.622-0.119-0.124-0.18-0.289-0.264-0.436 0.097-0.122 0.193-0.247 0.299-0.364 3.506-3.536 7.045-7.042 10.565-10.567M8.854 10.615c0.055 0.031 0.168 0.095 0.223 0.127-0.008 1.040 0 2.081-0.005 3.121 1.908 0.005 3.816-0.001 5.724 0.004-0.234 0.277-0.485 0.564-0.548 0.936l0.152-0.254c0.061 0.079 0.121 0.158 0.182 0.239-0.042 0.388 0.169 0.79 0.545 0.923 0.583 0.269 1.288-0.335 1.132-0.955-0.102-0.703-1.171-0.947-1.513-0.292-0.061-0.065-0.121-0.13-0.18-0.193 0.072-0.068 0.215-0.205 0.287-0.274 0.34-0.116 0.727-0.214 1.062-0.023 0.347 0.146 0.461 0.533 0.65 0.824-0.010-0.403-0.277-0.712-0.584-0.941 0.732 0.014 1.465 0.005 2.198 0.008-0.012-1.476 0.023-2.952-0.019-4.427-3.076-0.040-6.151-0.007-9.227-0.017-0.106 0.389-0.078 0.794-0.079 1.193M6.192 11.003c-0.172 0.643-0.056 1.312-0.108 1.966-0.558 0.526-0.746 1.344-0.456 2.057 0.067 0.040 0.199 0.121 0.266 0.161 0.030-0.287 0.004-0.602 0.186-0.847 0.293-0.464 0.967-0.632 1.43-0.323 0.298 0.166 0.432 0.491 0.528 0.799 0.272 0.004 0.546 0.004 0.818 0.005-0.011-1.178 0.016-2.359-0.011-3.536 0.013-0.356-0.415-0.416-0.685-0.395-0.655 0.037-1.334-0.095-1.969 0.114M6.138 14.874c-0.092 0.593 0.623 1.096 1.151 0.823 0.347-0.127 0.484-0.49 0.569-0.816-0.118-0.278-0.232-0.606-0.539-0.726-0.502-0.263-1.202 0.14-1.181 0.719z"></path>
<path fill="#ffef00" d="M6.557 11.351c0.475-0.034 0.952-0.031 1.428-0.008 0.035 0.44 0.034 0.883 0.008 1.325-0.48 0.038-0.964 0.041-1.441-0.008-0.016-0.436-0.016-0.872 0.005-1.308z"></path>
<path fill="#fefefe" d="M13.616 10.367c0.487 0.002 0.974 0.001 1.46 0.001-0.005 0.151-0.010 0.301-0.014 0.452-0.35-0.002-0.702-0.002-1.054 0.004-0.007 0.067-0.022 0.203-0.030 0.27 0.323-0.025 0.707-0.108 0.966 0.142 0.498 0.44 0.268 1.432-0.414 1.54-0.468 0.102-0.946-0.145-1.123-0.587 0.106-0.031 0.317-0.094 0.422-0.125 0.191 0.211 0.439 0.317 0.724 0.258 0.095-0.223 0.268-0.55 0.026-0.742-0.226-0.251-0.535-0.029-0.763 0.096-0.12-0.040-0.241-0.073-0.365-0.098 0.043-0.406 0.088-0.81 0.164-1.211z"></path>
<path fill="#fefefe" d="M15.78 10.474c0.152-0.048 0.307-0.092 0.461-0.137 0.001 0.221 0 0.443 0 0.664 0.101-0.001 0.302-0.004 0.403-0.005 0.002 0.124 0.005 0.247 0.007 0.371-0.102 0-0.307 0-0.409 0-0.002 0.31 0 0.618 0.012 0.928 0.090 0.007 0.27 0.020 0.36 0.028 0.044 0.11 0.089 0.221 0.134 0.33-0.306 0.092-0.766 0.202-0.947-0.15-0.035-0.377-0.013-0.755-0.018-1.133-0.065-0.001-0.194-0.005-0.259-0.006 0.001-0.121 0.002-0.242 0.005-0.364 0.065 0 0.194-0.002 0.259-0.004-0.002-0.174-0.006-0.348-0.008-0.522z"></path>
<path fill="#fefefe" d="M10.47 10.368c0.565 0 1.129-0.001 1.694 0.001-0.001 0.114-0.004 0.342-0.006 0.455-0.294 0.637-0.548 1.29-0.839 1.928-0.127-0.002-0.38-0.005-0.506-0.007 0.262-0.642 0.535-1.279 0.81-1.916-0.38-0.006-0.761-0.005-1.142-0.004-0.002-0.114-0.008-0.343-0.011-0.457z"></path>
<path fill="#fefefe" d="M12.546 12.334c0.107-0.010 0.215-0.018 0.323-0.028 0.053 0.103 0.108 0.206 0.161 0.31-0.044 0.049-0.131 0.148-0.174 0.197-0.083-0.010-0.247-0.029-0.329-0.038-0.001-0.148 0.006-0.294 0.019-0.44z"></path>
</svg>
