<!-- Generated by IcoMoon.io -->
<svg version="1.1" xmlns="http://www.w3.org/2000/svg" width="24" height="24" viewBox="0 0 24 24">
<title>warning--yield-ahead--g1</title>
<path fill="#ffd033" d="M11.754 0h0.406c0.26 0.104 0.516 0.235 0.72 0.432 3.36 3.362 6.721 6.725 10.087 10.081 0.404 0.394 0.857 0.78 1.033 1.338v0.233c-0.151 0.623-0.682 1.015-1.108 1.448-3.14 3.14-6.281 6.28-9.42 9.42-0.396 0.406-0.776 0.868-1.337 1.048h-0.218c-0.602-0.127-0.986-0.628-1.397-1.039-3.161-3.16-6.317-6.324-9.478-9.482-0.395-0.384-0.832-0.754-1.043-1.279v-0.385c0.204-0.6 0.722-0.989 1.148-1.426 3.301-3.302 6.607-6.6 9.905-9.905 0.205-0.198 0.448-0.352 0.701-0.484M11.587 0.421c-3.683 3.554-7.252 7.238-10.897 10.837-0.383 0.305-0.554 0.916-0.16 1.284 3.613 3.631 7.24 7.252 10.862 10.873 0.312 0.356 0.902 0.348 1.21-0.010 3.601-3.601 7.204-7.201 10.804-10.804 0.394-0.336 0.341-0.956-0.043-1.276-3.563-3.563-7.129-7.121-10.691-10.685-0.263-0.3-0.731-0.472-1.085-0.221z"></path>
<path fill="#ffd033" d="M11.916 0.75c0.212-0.053 0.365 0.139 0.51 0.259 3.538 3.548 7.088 7.084 10.625 10.632 0.246 0.186 0.236 0.524-0.010 0.706-3.566 3.563-7.132 7.128-10.694 10.694-0.179 0.246-0.521 0.256-0.701 0.006-3.581-3.587-7.172-7.165-10.748-10.756-0.233-0.18-0.162-0.491 0.044-0.658 3.515-3.53 7.049-7.043 10.564-10.574 0.126-0.115 0.248-0.245 0.41-0.31M7.487 5.96c-0.245 0.119-0.058 0.39 0.158 0.329 0.96-0.086 1.915-0.241 2.874-0.349-0.005 0.796 0.001 1.592-0.001 2.388 0.984 0 1.967 0 2.951 0-0.001-0.796 0.002-1.59-0.004-2.386 1.018 0.092 2.027 0.311 3.047 0.342 0.031-0.041 0.091-0.12 0.121-0.161-1.484-1.534-3.101-2.945-4.64-4.428-1.499 1.424-3.028 2.82-4.506 4.265M6.282 10.152c-0.51 0.049-0.803 0.703-0.512 1.124 1.837 3.203 3.69 6.4 5.536 9.598 0.257 0.571 1.133 0.56 1.382-0.011 1.844-3.199 3.701-6.392 5.533-9.598 0.331-0.493-0.124-1.196-0.704-1.133-3.744 0.005-7.492-0.034-11.234 0.019z"></path>
<path fill="#000" d="M11.587 0.421c0.354-0.251 0.822-0.079 1.085 0.221 3.562 3.564 7.128 7.122 10.691 10.685 0.384 0.319 0.437 0.94 0.043 1.276-3.6 3.602-7.202 7.202-10.804 10.804-0.307 0.358-0.898 0.366-1.21 0.010-3.623-3.622-7.249-7.242-10.862-10.873-0.395-0.368-0.223-0.979 0.16-1.284 3.646-3.599 7.214-7.283 10.897-10.837M11.916 0.75c-0.162 0.065-0.284 0.194-0.41 0.31-3.515 3.532-7.049 7.044-10.564 10.574-0.206 0.167-0.277 0.478-0.044 0.658 3.576 3.59 7.168 7.169 10.748 10.756 0.18 0.25 0.522 0.24 0.701-0.006 3.563-3.566 7.128-7.132 10.694-10.694 0.246-0.181 0.256-0.52 0.010-0.706-3.536-3.548-7.087-7.084-10.625-10.632-0.145-0.12-0.298-0.312-0.51-0.259z"></path>
<path fill="#000" d="M7.487 5.96c1.478-1.445 3.007-2.84 4.506-4.265 1.54 1.483 3.156 2.894 4.64 4.428-0.030 0.041-0.090 0.12-0.121 0.161-1.020-0.031-2.029-0.25-3.047-0.342 0.006 0.796 0.002 1.59 0.004 2.386-0.984 0-1.967 0-2.951 0 0.002-0.796-0.004-1.592 0.001-2.388-0.959 0.108-1.914 0.263-2.874 0.349-0.216 0.061-0.403-0.21-0.158-0.329z"></path>
<path fill="#fff" d="M6.282 10.152c3.743-0.053 7.49-0.014 11.234-0.019 0.581-0.064 1.036 0.64 0.704 1.133-1.832 3.205-3.689 6.398-5.533 9.598-0.25 0.571-1.126 0.582-1.382 0.011-1.846-3.198-3.698-6.395-5.536-9.598-0.29-0.421 0.002-1.075 0.512-1.124M6.178 10.488c-0.312 0.167-0.246 0.557-0.072 0.799 1.822 3.144 3.631 6.294 5.455 9.436 0.152 0.386 0.72 0.377 0.869-0.007 1.835-3.17 3.671-6.342 5.497-9.517 0.258-0.313 0.013-0.814-0.397-0.779-3.563-0.031-7.128 0.004-10.692-0.017-0.22 0.013-0.456-0.013-0.66 0.085z"></path>
<path fill="#fff" d="M9.521 12.389c1.494-0.16 3.022-0.026 4.529-0.068 0.418-0.089 0.851 0.349 0.581 0.74-0.721 1.278-1.457 2.551-2.194 3.821-0.138 0.344-0.655 0.425-0.835 0.073-0.756-1.253-1.462-2.538-2.201-3.802-0.176-0.238-0.178-0.622 0.12-0.764z"></path>
<path fill="#c4122e" d="M6.178 10.488c0.204-0.098 0.44-0.072 0.66-0.085 3.564 0.020 7.129-0.014 10.692 0.017 0.41-0.035 0.655 0.466 0.397 0.779-1.826 3.175-3.662 6.347-5.497 9.517-0.149 0.384-0.716 0.394-0.869 0.007-1.824-3.142-3.634-6.292-5.455-9.436-0.174-0.242-0.24-0.632 0.072-0.799M9.521 12.389c-0.298 0.143-0.296 0.527-0.12 0.764 0.739 1.264 1.445 2.549 2.201 3.802 0.18 0.352 0.697 0.271 0.835-0.073 0.737-1.27 1.472-2.543 2.194-3.821 0.27-0.391-0.163-0.829-0.581-0.74-1.507 0.042-3.035-0.091-4.529 0.068z"></path>
</svg>
