<?xml version="1.0" encoding="utf-8"?>
<!-- Generated by IcoMoon.io -->
<!DOCTYPE svg PUBLIC "-//W3C//DTD SVG 1.1//EN" "http://www.w3.org/Graphics/SVG/1.1/DTD/svg11.dtd">
<svg version="1.1" xmlns="http://www.w3.org/2000/svg" xmlns:xlink="http://www.w3.org/1999/xlink" width="24" height="24" viewBox="0 0 24 24">
<path fill="#000" d="M11.832 0h0.301c0.326 0.054 0.613 0.226 0.838 0.464 3.359 3.364 6.721 6.724 10.082 10.085 0.377 0.386 0.856 0.742 0.947 1.312v0.223c-0.056 0.306-0.18 0.601-0.412 0.815-3.401 3.403-6.803 6.805-10.204 10.208-0.364 0.361-0.707 0.805-1.246 0.893h-0.246c-0.3-0.054-0.587-0.179-0.797-0.404-3.4-3.402-6.803-6.802-10.2-10.207-0.356-0.362-0.806-0.696-0.896-1.232v-0.295c0.070-0.547 0.526-0.892 0.884-1.258 3.38-3.379 6.761-6.758 10.139-10.14 0.218-0.23 0.494-0.401 0.809-0.463M11.666 0.51c-0.126 0.067-0.23 0.166-0.332 0.263-3.521 3.52-7.042 7.040-10.564 10.559-0.182 0.178-0.35 0.402-0.334 0.671-0.014 0.4 0.34 0.643 0.586 0.901 3.461 3.458 6.92 6.919 10.38 10.381 0.227 0.256 0.618 0.348 0.929 0.194 0.222-0.122 0.384-0.324 0.563-0.498 3.479-3.486 6.966-6.962 10.442-10.448 0.319-0.305 0.272-0.853-0.052-1.136-3.56-3.56-7.121-7.121-10.685-10.679-0.229-0.258-0.617-0.362-0.934-0.208z"></path>
<path fill="#000" d="M10.326 5.172c0.646-0.668 1.702-0.883 2.557-0.523 1.021 0.391 1.661 1.58 1.367 2.645-0.66 2.639-1.312 5.28-1.972 7.918-0.19-0.004-0.379-0.006-0.569-0.006-0.653-2.638-1.308-5.274-1.967-7.91-0.2-0.746 0.041-1.579 0.583-2.123z"></path>
<path fill="#000" d="M11.797 15.758c1.033-0.14 2.048 0.732 2.081 1.771 0.079 1.033-0.84 2.014-1.88 1.985-1.074 0.034-2.014-1.012-1.877-2.076 0.078-0.858 0.814-1.607 1.676-1.68z"></path>
<path fill="#ffeb00" d="M11.666 0.51c0.317-0.155 0.704-0.050 0.934 0.208 3.564 3.558 7.124 7.118 10.685 10.679 0.324 0.283 0.371 0.832 0.052 1.136-3.476 3.486-6.964 6.962-10.442 10.448-0.179 0.174-0.341 0.376-0.563 0.498-0.311 0.154-0.702 0.061-0.929-0.194-3.46-3.462-6.919-6.923-10.38-10.381-0.246-0.258-0.6-0.502-0.586-0.901-0.017-0.269 0.151-0.493 0.334-0.671 3.522-3.518 7.043-7.039 10.564-10.559 0.102-0.097 0.206-0.196 0.332-0.263M10.326 5.172c-0.542 0.544-0.784 1.376-0.583 2.123 0.659 2.636 1.314 5.273 1.967 7.91 0.19 0 0.379 0.002 0.569 0.006 0.66-2.638 1.312-5.279 1.972-7.918 0.294-1.064-0.346-2.254-1.367-2.645-0.856-0.36-1.912-0.145-2.557 0.523M11.797 15.758c-0.863 0.073-1.598 0.822-1.676 1.68-0.137 1.064 0.803 2.11 1.877 2.076 1.040 0.029 1.96-0.952 1.88-1.985-0.032-1.039-1.048-1.912-2.081-1.771z"></path>
</svg>
