<!-- Generated by IcoMoon.io -->
<svg version="1.1" xmlns="http://www.w3.org/2000/svg" width="24" height="24" viewBox="0 0 24 24">
<title>warning--added-lane-from-entering-roadway--g2</title>
<path fill="#fecf33" d="M11.73 0h0.506c0.271 0.108 0.527 0.257 0.732 0.467 3.521 3.523 7.042 7.044 10.565 10.565 0.202 0.199 0.35 0.445 0.467 0.703v0.494c-0.1 0.246-0.224 0.486-0.414 0.673-3.562 3.56-7.122 7.123-10.682 10.682-0.182 0.179-0.406 0.306-0.635 0.415h-0.506c-0.244-0.1-0.48-0.226-0.666-0.414-3.559-3.562-7.121-7.122-10.681-10.684-0.18-0.182-0.307-0.407-0.415-0.637v-0.5c0.175-0.536 0.631-0.887 1.010-1.274 3.341-3.341 6.682-6.682 10.021-10.024 0.2-0.199 0.444-0.348 0.698-0.467M11.668 0.391c-0.215 0.086-0.376 0.26-0.54 0.416-3.496 3.506-7.006 6.997-10.498 10.507-0.392 0.352-0.39 1.016 0.002 1.368 3.562 3.562 7.124 7.123 10.685 10.686 0.35 0.391 1.014 0.391 1.366 0 3.56-3.564 7.123-7.124 10.685-10.686 0.391-0.352 0.394-1.016 0.002-1.368-3.534-3.548-7.080-7.085-10.621-10.626-0.265-0.3-0.698-0.45-1.081-0.298z"></path>
<path fill="#fecf33" d="M11.786 0.856c0.223-0.118 0.48-0.011 0.634 0.168 3.52 3.518 7.039 7.037 10.558 10.556 0.238 0.184 0.299 0.569 0.053 0.774-3.536 3.541-7.080 7.078-10.616 10.619-0.18 0.242-0.564 0.307-0.767 0.056-3.562-3.556-7.12-7.116-10.678-10.675-0.283-0.235-0.149-0.643 0.11-0.834 3.577-3.546 7.1-7.152 10.706-10.664M10.812 5.905c0.269 1.286 0.461 2.594 0.784 3.868 0.544 0.397 0.702-0.613 0.979-0.934 1.704 1.691 3.395 3.397 5.098 5.090 0.397-0.385 0.788-0.776 1.174-1.174-1.692-1.703-3.4-3.39-5.087-5.098 0.318-0.275 1.33-0.428 0.922-0.977-1.266-0.344-2.58-0.523-3.869-0.776M6.734 6.468c0.281 0.294 0.57 0.581 0.862 0.866 0.15-0.136 0.299-0.271 0.45-0.406-0.275-0.318-0.577-0.607-0.876-0.9-0.146 0.145-0.292 0.292-0.436 0.439M8.269 8.005c0.287 0.295 0.578 0.587 0.872 0.876 0.148-0.149 0.294-0.296 0.442-0.444-0.288-0.294-0.58-0.583-0.871-0.872-0.15 0.144-0.298 0.29-0.443 0.44M10.235 9.101c-0.137 0.14-0.276 0.277-0.419 0.41 0.248 0.336 0.57 0.606 0.862 0.905 0.146-0.148 0.293-0.294 0.44-0.439-0.288-0.299-0.577-0.595-0.883-0.876M6.445 10.273c0.259 1.286 0.454 2.591 0.769 3.862 0.551 0.434 0.736-0.581 0.988-0.912 0.38 0.355 0.863 0.725 0.881 1.294 0.025 1.735-0.002 3.473 0.012 5.209 0.55 0.006 1.1-0.001 1.65 0.007 0.031-1.74 0.013-3.481 0.010-5.221-0.001-1.008-0.643-1.846-1.37-2.476 0.325-0.262 1.361-0.431 0.929-0.995-1.271-0.325-2.576-0.523-3.868-0.768M11.34 11.069c0.85 0.895 1.405 2.082 1.45 3.323 0.043 2.146-0.022 4.296 0.048 6.44 0.2-0.006 0.401-0.008 0.601-0.008 0.013-2.062-0.011-4.123-0.016-6.185 0.006-0.58-0.109-1.151-0.254-1.709 1.444 1.414 2.856 2.86 4.312 4.261 0.137-0.14 0.274-0.281 0.413-0.42-2.029-2.056-4.073-4.096-6.118-6.134-0.144 0.144-0.29 0.288-0.436 0.432z"></path>
<path fill="#000" d="M11.668 0.391c0.383-0.152 0.816-0.002 1.081 0.298 3.541 3.541 7.087 7.078 10.621 10.626 0.391 0.352 0.389 1.016-0.002 1.368-3.562 3.562-7.124 7.122-10.685 10.686-0.352 0.391-1.015 0.391-1.366 0-3.56-3.563-7.123-7.124-10.685-10.686-0.392-0.352-0.395-1.016-0.002-1.368 3.492-3.51 7.002-7.001 10.498-10.507 0.164-0.156 0.325-0.33 0.54-0.416M11.786 0.856c-3.606 3.512-7.129 7.118-10.706 10.664-0.259 0.191-0.394 0.599-0.11 0.834 3.558 3.559 7.116 7.12 10.678 10.675 0.203 0.251 0.587 0.186 0.767-0.056 3.536-3.541 7.080-7.078 10.616-10.619 0.246-0.205 0.185-0.59-0.053-0.774-3.518-3.52-7.038-7.038-10.558-10.556-0.154-0.179-0.41-0.286-0.634-0.168z"></path>
<path fill="#000" d="M10.812 5.905c1.289 0.253 2.603 0.432 3.869 0.776 0.408 0.548-0.604 0.702-0.922 0.977 1.687 1.708 3.395 3.395 5.087 5.098-0.385 0.397-0.776 0.788-1.174 1.174-1.703-1.693-3.394-3.4-5.098-5.090-0.277 0.32-0.436 1.331-0.979 0.934-0.323-1.273-0.515-2.581-0.784-3.868z"></path>
<path fill="#000" d="M6.734 6.468c0.144-0.148 0.289-0.294 0.436-0.439 0.299 0.293 0.601 0.582 0.876 0.9-0.151 0.134-0.3 0.27-0.45 0.406-0.292-0.286-0.581-0.572-0.862-0.866z"></path>
<path fill="#000" d="M8.269 8.005c0.145-0.15 0.293-0.296 0.443-0.44 0.292 0.289 0.583 0.578 0.871 0.872-0.148 0.148-0.294 0.295-0.442 0.444-0.294-0.289-0.586-0.581-0.872-0.876z"></path>
<path fill="#000" d="M10.235 9.101c0.306 0.281 0.595 0.577 0.883 0.876-0.148 0.145-0.294 0.292-0.44 0.439-0.292-0.299-0.613-0.569-0.862-0.905 0.143-0.133 0.282-0.27 0.419-0.41z"></path>
<path fill="#000" d="M6.445 10.273c1.291 0.245 2.597 0.443 3.868 0.768 0.432 0.564-0.604 0.733-0.929 0.995 0.727 0.63 1.369 1.468 1.37 2.476 0.004 1.74 0.022 3.481-0.010 5.221-0.55-0.008-1.1-0.001-1.65-0.007-0.014-1.736 0.013-3.474-0.012-5.209-0.018-0.569-0.5-0.938-0.881-1.294-0.252 0.331-0.437 1.346-0.988 0.912-0.316-1.271-0.51-2.575-0.769-3.862z"></path>
<path fill="#000" d="M11.34 11.069c0.145-0.144 0.292-0.288 0.436-0.432 2.045 2.039 4.088 4.079 6.118 6.134-0.139 0.139-0.276 0.28-0.413 0.42-1.456-1.402-2.868-2.848-4.312-4.261 0.145 0.558 0.26 1.129 0.254 1.709 0.005 2.062 0.029 4.123 0.016 6.185-0.2 0-0.401 0.002-0.601 0.008-0.070-2.144-0.005-4.295-0.048-6.44-0.044-1.241-0.6-2.428-1.45-3.323z"></path>
</svg>
