<!-- Generated by IcoMoon.io -->
<svg version="1.1" xmlns="http://www.w3.org/2000/svg" width="24" height="24" viewBox="0 0 24 24">
<title>warning--roadworks-go-right-or-straight--g1</title>
<path fill="#af5a00" opacity="0.73" d="M11.777 0h0.416c0.613 0.476 1.132 1.060 1.684 1.602 3.164 3.156 6.313 6.328 9.486 9.475 0.425 0.334 0.817 0.986 0.319 1.441-3.716 3.725-7.439 7.447-11.165 11.162-0.356 0.402-0.954 0.241-1.248-0.146-3.733-3.799-7.578-7.493-11.269-11.332v-0.418c0.326-0.51 0.793-0.904 1.213-1.332 3.32-3.32 6.642-6.638 9.959-9.962 0.187-0.18 0.388-0.347 0.605-0.491M11.819 0.302c-0.151 0.080-0.277 0.199-0.401 0.314-3.63 3.652-7.28 7.282-10.914 10.928-0.271 0.211-0.322 0.598-0.032 0.82 3.7 3.701 7.398 7.404 11.1 11.102 0.221 0.27 0.619 0.24 0.823-0.030 3.696-3.706 7.404-7.399 11.098-11.106 0.281-0.226 0.168-0.619-0.078-0.821-3.662-3.66-7.324-7.322-10.984-10.984-0.162-0.144-0.382-0.35-0.612-0.224z"></path>
<path fill="#000" d="M11.819 0.302c0.23-0.126 0.45 0.080 0.612 0.224 3.66 3.661 7.321 7.324 10.984 10.984 0.246 0.202 0.359 0.595 0.078 0.821-3.694 3.707-7.402 7.4-11.098 11.106-0.204 0.27-0.602 0.3-0.823 0.030-3.702-3.698-7.4-7.402-11.1-11.102-0.289-0.222-0.239-0.608 0.032-0.82 3.634-3.647 7.284-7.277 10.914-10.928 0.124-0.115 0.25-0.234 0.401-0.314M0.562 11.981c3.803 3.8 7.592 7.614 11.416 11.394 3.808-3.791 7.606-7.592 11.4-11.396-3.767-3.835-7.591-7.618-11.394-11.418-3.836 3.775-7.645 7.585-11.422 11.42z"></path>
<path fill="#000" d="M6.422 6.89c0.772-0.002 1.544-0.010 2.316 0.007-0.002 1.732-0.020 3.464 0.005 5.196 0.706-1.129 1.526-2.185 2.496-3.101-0.31-0.182-0.668-0.31-0.912-0.586 0.035-0.298 0.359-0.317 0.588-0.372 0.872-0.174 1.744-0.356 2.622-0.503-0.128 0.967-0.235 1.937-0.378 2.9 0.008 0.211-0.205 0.274-0.346 0.374-0.198-0.29-0.386-0.588-0.577-0.883-1.552 1.391-2.677 3.205-3.407 5.146-0.191 0.64-0.071 1.318-0.098 1.974-0.768 0.007-1.537 0.006-2.305 0.002-0.004-3.385-0.006-6.77-0.004-10.156z"></path>
<path fill="#000" d="M15.65 7.139c0.848-0.205 1.142 1.188 0.298 1.362-0.901 0.277-1.213-1.236-0.298-1.362z"></path>
<path fill="#000" d="M15.901 8.816c0.319-0.211 0.618-0.478 0.99-0.589 0.731 0.169 1.41 0.516 2.112 0.781-0.181 0.432-0.39 0.852-0.596 1.273 0.181 0.304 0.334 0.634 0.323 0.996 0.052 1.363 0.161 2.725 0.196 4.088 0.073 0.421-0.637 0.528-0.685 0.107-0.125-1.175-0.127-2.362-0.235-3.539-0.457 0.635-0.995 1.222-1.38 1.902-0.036 0.566 0.167 1.124 0.113 1.691-0.064 0.355-0.66 0.34-0.684-0.030-0.103-0.596-0.172-1.204-0.185-1.808 0.278-0.653 0.835-1.146 1.172-1.771-0.905 0.55-1.786 1.139-2.664 1.729 0.44 0.67 0.802 1.39 1.073 2.144-1.243-0.028-2.496 0.059-3.733-0.038-0.587-0.492-1.085-1.082-1.64-1.608 0.744-0.526 1.451-1.108 2.22-1.597 0.724-0.368 1.446 0.244 1.891 0.77 0.503-0.328 1.004-0.658 1.506-0.989 0.074-1.17 0.138-2.341 0.208-3.512M17.369 8.851c0.232 0.349 0.476 0.689 0.727 1.026 0.094-0.204 0.186-0.408 0.278-0.612-0.334-0.142-0.667-0.283-1.006-0.414M16.21 12.012c0.726-0.337 0.428-1.111 0.11-1.639-0.089 0.541-0.113 1.091-0.11 1.639z"></path>
<path fill="#ef7b00" d="M0.562 11.981c3.776-3.835 7.585-7.645 11.422-11.42 3.803 3.8 7.627 7.583 11.394 11.418-3.794 3.804-7.592 7.606-11.4 11.396-3.823-3.78-7.613-7.594-11.416-11.394M6.422 6.89c-0.002 3.385 0 6.77 0.004 10.156 0.768 0.004 1.537 0.005 2.305-0.002 0.028-0.656-0.092-1.334 0.098-1.974 0.73-1.94 1.855-3.755 3.407-5.146 0.191 0.295 0.379 0.593 0.577 0.883 0.14-0.101 0.354-0.163 0.346-0.374 0.143-0.964 0.25-1.933 0.378-2.9-0.878 0.146-1.75 0.329-2.622 0.503-0.229 0.055-0.553 0.074-0.588 0.372 0.244 0.276 0.602 0.403 0.912 0.586-0.97 0.916-1.79 1.972-2.496 3.101-0.025-1.732-0.007-3.464-0.005-5.196-0.772-0.017-1.544-0.010-2.316-0.007M15.65 7.139c-0.916 0.126-0.604 1.639 0.298 1.362 0.845-0.174 0.551-1.567-0.298-1.362M15.901 8.816c-0.070 1.171-0.133 2.342-0.208 3.512-0.502 0.331-1.003 0.661-1.506 0.989-0.445-0.527-1.168-1.139-1.891-0.77-0.769 0.49-1.476 1.072-2.22 1.597 0.556 0.526 1.054 1.116 1.64 1.608 1.237 0.097 2.49 0.011 3.733 0.038-0.271-0.755-0.632-1.475-1.073-2.144 0.878-0.59 1.759-1.18 2.664-1.729-0.337 0.625-0.894 1.118-1.172 1.771 0.013 0.605 0.082 1.212 0.185 1.808 0.024 0.37 0.62 0.385 0.684 0.030 0.054-0.566-0.149-1.124-0.113-1.691 0.385-0.68 0.923-1.267 1.38-1.902 0.108 1.177 0.11 2.364 0.235 3.539 0.048 0.421 0.758 0.314 0.685-0.107-0.035-1.363-0.144-2.725-0.196-4.088 0.011-0.362-0.142-0.692-0.323-0.996 0.206-0.421 0.415-0.841 0.596-1.273-0.702-0.265-1.381-0.612-2.112-0.781-0.372 0.112-0.671 0.378-0.99 0.589z"></path>
<path fill="#ef7b00" d="M17.369 8.851c0.338 0.131 0.672 0.272 1.006 0.414-0.092 0.204-0.185 0.408-0.278 0.612-0.251-0.337-0.496-0.677-0.727-1.026z"></path>
<path fill="#ef7b00" d="M16.21 12.012c-0.002-0.548 0.022-1.098 0.11-1.639 0.318 0.528 0.616 1.302-0.11 1.639z"></path>
</svg>
