<?xml version="1.0" encoding="utf-8"?>
<!-- Generated by IcoMoon.io -->
<!DOCTYPE svg PUBLIC "-//W3C//DTD SVG 1.1//EN" "http://www.w3.org/Graphics/SVG/1.1/DTD/svg11.dtd">
<svg version="1.1" xmlns="http://www.w3.org/2000/svg" xmlns:xlink="http://www.w3.org/1999/xlink" width="24" height="24" viewBox="0 0 24 24">
<path fill="#ee1c23" d="M11.904 1.5h0.192c0.302 0.079 0.479 0.344 0.623 0.601 3.569 6.19 7.145 12.374 10.715 18.563 0.197 0.349 0.422 0.686 0.566 1.064v0.346c-0.137 0.218-0.374 0.34-0.608 0.426h-22.554c-0.344 0.001-0.748-0.121-0.838-0.497v-0.174c0.037-0.163 0.096-0.322 0.179-0.468 3.655-6.341 7.32-12.678 10.976-19.019 0.194-0.322 0.356-0.722 0.749-0.842M3.863 19.987c5.429 0.001 10.858 0.001 16.286 0-2.71-4.699-5.42-9.4-8.136-14.095-2.74 4.684-5.432 9.397-8.15 14.095z"></path>
<path fill="#fff" d="M3.863 19.987c2.718-4.698 5.411-9.412 8.15-14.095 2.716 4.696 5.426 9.396 8.136 14.095-5.429 0.001-10.858 0.001-16.286 0M10.729 12.802c0.002 0.643 0.001 1.286 0 1.93-0.46 0.001-0.92 0-1.38 0.001-0.001 0.378-0.001 0.757 0 1.135 0.46 0.001 0.92-0.001 1.38 0.001 0.001 0.964 0.002 1.926 0 2.89 0.422-0.415 0.846-0.832 1.278-1.238 0.431 0.408 0.854 0.823 1.277 1.241-0.002-1.988 0-3.977-0.001-5.965-0.425-0.414-0.848-0.828-1.276-1.238-0.428 0.412-0.858 0.823-1.278 1.244z"></path>
<path fill="#000" d="M10.729 12.802c0.42-0.421 0.85-0.833 1.278-1.244 0.427 0.41 0.851 0.824 1.276 1.238 0.001 1.988-0.001 3.977 0.001 5.965-0.422-0.418-0.846-0.833-1.277-1.241-0.432 0.407-0.856 0.823-1.278 1.238 0.002-0.964 0.001-1.926 0-2.89-0.46-0.002-0.92 0-1.38-0.001-0.001-0.378-0.001-0.757 0-1.135 0.46-0.001 0.92 0 1.38-0.001 0.001-0.643 0.002-1.286 0-1.93z"></path>
</svg>
