<svg xmlns="http://www.w3.org/2000/svg" width="24" height="24">
    <path d="M11.615 1.333h.811c.284.096.558.236.757.468-.542-.373-1.221-.509-1.847-.267.093-.066.187-.133.279-.201zM12.781 7.623c.131-.203-.013-.574.285-.649.359.067.196.505.173.753-.409.585-.924 1.092-1.355 1.662.273.048.708-.113.839.22.053.378-.398.33-.641.328.18.684.366 1.366.546 2.051 1.199.82 2.411 1.62 3.611 2.439.133.088.287.24.213.415-.245.582-.614 1.107-.852 1.692.044.46.622.622.759 1.052.268.776.587 1.537.822 2.324.032.346-.496.472-.623.154-.272-.661-.475-1.349-.749-2.009-.276-.359-.675-.607-1.088-.78-.255-.406-.271-.929-.541-1.324-.879-.632-1.789-1.222-2.688-1.827-.22.129-.492.233-.736.098-.539-.267-1.068-.555-1.609-.816-.156.8-.263 1.611-.441 2.405-.118.35-.697.197-.625-.167.145-.918.317-1.832.479-2.748.011-.23.287-.407.489-.272.454.221.899.461 1.342.704.148-.886.332-1.767.453-2.657-.381-.34-.843-.58-1.242-.9-.216-.17-.085-.566.191-.57.51.027 1.015.125 1.524.173.007-.089.014-.177.023-.265-.326-.271-.702-.486-1.001-.789.076-.333.072-.852.416-1 .354.139.05.56.017.82.204.153.407.305.611.46.046-.26-.035-.747.349-.763.377.02.286.473.269.727.254-.318.533-.617.778-.943z"/>
    <path d="M9.968 15.896c.101-.475.324-.918.474-1.38.209.074.418.151.624.231-.118.387-.316.753-.388 1.15.2.666.506 1.299.684 1.971.028.358-.532.469-.636.124-.26-.695-.521-1.392-.756-2.095zM14.75 17.55c.253.083.46.252.66.42-.005.588.021 1.178-.01 1.765-.04.353-.607.348-.643-.004-.028-.726-.008-1.455-.007-2.182z"/>
    <path d="M0 20.572c.455-.918.941-1.841 1.552-2.664-.406.849-.958 1.62-1.364 2.467-.444 1 .404 2.258 1.496 2.22 6.938-.003 13.876.005 20.812-.004 1.136-.026 1.86-1.363 1.376-2.364.07.095.142.188.217.281v.836c-.175.624-.664 1.108-1.269 1.323H1.293a1.99 1.99 0 0 1-1.292-1.32v-.774z"/>
    <path fill="#fff" d="M11.336 1.534c.626-.243 1.305-.107 1.847.267l.03.028c.306.51.577 1.043.931 1.522l.036.064a18.24 18.24 0 0 0 1.297 2.247l.036.064c.378.776.812 1.531 1.295 2.246l.036.065c.38.776.813 1.532 1.297 2.246l.036.064c.38.776.813 1.532 1.297 2.247l.036.064c.38.776.813 1.532 1.296 2.248l.036.064c.38.775.813 1.531 1.298 2.247l.036.064c.38.777.814 1.534 1.3 2.251.128.234.257.467.394.695.484 1.001-.24 2.338-1.376 2.364-6.937.01-13.875.002-20.812.004-1.092.037-1.94-1.22-1.496-2.22.406-.847.958-1.618 1.364-2.467l.041-.068c.484-.716.916-1.473 1.298-2.248l.036-.062c.481-.719.916-1.474 1.297-2.25.009-.015.028-.046.036-.062.482-.717.915-1.473 1.297-2.248l.036-.062a19.38 19.38 0 0 0 1.295-2.249l.036-.064c.483-.717.916-1.471 1.297-2.247l.036-.064c.484-.716.916-1.471 1.296-2.247l.038-.065c.603-.77.871-1.792 1.668-2.406l.075-.032zm.434.209a1.35 1.35 0 0 0-.903.683C7.431 8.382 3.993 14.337.561 20.295c-.521.817.147 2.024 1.12 1.996 6.908.004 13.818.004 20.726.001.977.031 1.646-1.18 1.124-1.998-3.429-5.959-6.87-11.913-10.305-17.869-.269-.514-.887-.811-1.456-.681z"/>
    <path fill="#fff" d="M11.933 4.021c.209-.072.407.078.495.26 3.033 5.26 6.071 10.518 9.1 15.78.181.234.009.624-.297.604-6.099.01-12.198.001-18.298.004-.327.059-.572-.334-.373-.602C5.577 14.82 8.611 9.583 11.629 4.336c.078-.123.152-.273.303-.316zm.848 3.602c-.244.326-.524.625-.778.943.017-.254.108-.708-.269-.727-.384.016-.303.502-.349.763-.204-.155-.407-.307-.611-.46.033-.26.337-.681-.017-.82-.344.148-.34.667-.416 1 .299.303.675.518 1.001.789-.009.088-.016.176-.023.265-.508-.048-1.013-.147-1.524-.173-.276.004-.407.4-.191.57.399.319.86.559 1.242.9-.121.89-.306 1.771-.453 2.657a31.733 31.733 0 0 0-1.342-.704c-.202-.135-.478.042-.489.272-.162.916-.334 1.829-.479 2.748-.072.364.507.517.625.167.178-.795.285-1.605.441-2.405.541.261 1.07.549 1.609.816.244.135.516.031.736-.098.899.604 1.809 1.195 2.688 1.827.27.395.286.917.541 1.324.413.172.812.42 1.088.78.275.66.477 1.348.749 2.009.127.318.655.192.623-.154-.236-.787-.555-1.548-.822-2.324-.137-.43-.716-.593-.759-1.052.237-.585.606-1.109.852-1.692.074-.175-.08-.327-.213-.415-1.2-.819-2.412-1.62-3.611-2.439-.18-.684-.366-1.366-.546-2.051.243.002.694.05.641-.328-.131-.333-.566-.172-.839-.22.431-.571.946-1.077 1.355-1.662.023-.248.186-.686-.173-.753-.299.075-.155.446-.285.649zm-2.813 8.273c.236.703.497 1.4.756 2.095.104.346.664.235.636-.124-.178-.672-.484-1.305-.684-1.971.072-.397.27-.764.388-1.15-.206-.08-.415-.157-.624-.231-.149.462-.372.906-.474 1.38zm4.782 1.654c-.001.727-.02 1.456.007 2.182.036.352.603.356.643.004.031-.588.004-1.177.01-1.765-.2-.169-.406-.338-.66-.42z"/>
    <path fill="#434343" opacity=".83" d="M10.309 2.58c.235-.4.461-.887.952-1.014-.797.614-1.066 1.636-1.668 2.406.143-.509.473-.931.716-1.392z"/>
    <path fill="red" d="M11.77 1.743c.569-.13 1.187.167 1.456.681 3.435 5.956 6.876 11.91 10.305 17.869.523.819-.147 2.029-1.124 1.998-6.908.003-13.818.004-20.726-.001-.973.028-1.641-1.179-1.12-1.996A24328.69 24328.69 0 0 1 10.867 2.425c.188-.341.517-.606.903-.683zm.163 2.278c-.151.044-.225.194-.303.316-3.019 5.246-6.052 10.484-9.069 15.731-.198.268.046.66.373.602 6.1-.004 12.199.005 18.298-.004.306.02.478-.371.297-.604-3.029-5.262-6.068-10.52-9.1-15.78-.088-.181-.286-.332-.495-.26z"/>
    <path fill="#444" opacity=".85" d="M13.213 1.829c.453.397.722.967.931 1.522-.354-.479-.625-1.012-.931-1.522z"/>
    <path fill="#424242" opacity=".83" d="M14.18 3.415a9.6 9.6 0 0 1 1.297 2.247 18.24 18.24 0 0 1-1.297-2.247zM15.514 5.726c.53.677.969 1.45 1.295 2.246a18.418 18.418 0 0 1-1.295-2.246z"/>
    <path fill="#414141" opacity=".83" d="M8.259 6.284a9.433 9.433 0 0 1 1.296-2.247c-.38.776-.812 1.531-1.296 2.247zM20.844 14.971a9.44 9.44 0 0 1 1.298 2.247 18.932 18.932 0 0 1-1.298-2.247zM22.179 17.282c.533.677.97 1.453 1.3 2.251a18.704 18.704 0 0 1-1.3-2.251z"/>
    <path fill="#404040" opacity=".83" d="M6.925 8.596a9.336 9.336 0 0 1 1.297-2.247c-.38.776-.814 1.53-1.297 2.247zM5.594 10.908a9.29 9.29 0 0 1 1.295-2.249c-.38.776-.815 1.53-1.295 2.249z"/>
    <path fill="#414141" opacity=".83" d="M16.845 8.037a9.504 9.504 0 0 1 1.297 2.246 18.755 18.755 0 0 1-1.297-2.246zM18.179 10.348a9.51 9.51 0 0 1 1.297 2.247 18.71 18.71 0 0 1-1.297-2.247zM19.512 12.659a9.425 9.425 0 0 1 1.296 2.248 18.85 18.85 0 0 1-1.296-2.248z"/>
    <path fill="#3f3f3f" opacity=".82" d="M4.26 13.219a9.207 9.207 0 0 1 1.297-2.248 19.444 19.444 0 0 1-1.297 2.248zM2.927 15.531a9.219 9.219 0 0 1 1.297-2.25 19.554 19.554 0 0 1-1.297 2.25zM1.593 17.841a9.294 9.294 0 0 1 1.298-2.248 19.084 19.084 0 0 1-1.298 2.248z"/>
</svg>
