<!-- Generated by IcoMoon.io -->
<svg version="1.1" xmlns="http://www.w3.org/2000/svg" width="24" height="24" viewBox="0 0 24 24">
<title>warning--accident-area--g5</title>
<path fill="#000" d="M11.45 1.38h0.953c0.445 0.181 0.949 0.442 1.102 0.934-0.334-0.38-0.724-0.79-1.253-0.85-0.295-0.007-0.614-0.044-0.88 0.116-0.692 0.271-0.952 1.021-1.316 1.604-0.053-0.251 0.164-0.427 0.259-0.634 0.262-0.48 0.625-1.003 1.21-1.086l-0.074-0.085z"></path>
<path fill="#000" d="M13.549 2.328c0.557 0.948 1.123 1.894 1.642 2.863l-0.097-0.036c-0.54-0.904-1.046-1.829-1.592-2.73l0.048-0.097z"></path>
<path fill="#000" d="M9.956 3.191c0.012 0.019 0.035 0.055 0.047 0.074-0.318 0.522-0.57 1.092-0.949 1.573 0.215-0.586 0.601-1.1 0.902-1.648z"></path>
<path fill="#000" d="M8.947 4.916c0.028-0.001 0.082-0.004 0.108-0.005-0.326 0.578-0.665 1.151-0.997 1.726l0.004-0.163c0.281-0.527 0.596-1.036 0.886-1.558z"></path>
<path fill="#000" d="M15.178 5.292l0.128 0.071c0.689 1.18 1.372 2.364 2.048 3.55l-0.146-0.061c-0.655-1.199-1.373-2.363-2.030-3.559z"></path>
<path fill="#000" d="M7.678 7.118c0.090-0.139 0.142-0.325 0.317-0.388-0.566 1.025-1.159 2.035-1.752 3.044l0.017-0.169c0.45-0.841 0.954-1.654 1.418-2.488z"></path>
<path fill="#000" d="M17.309 8.952c0.15 0.072 0.205 0.236 0.289 0.368 0.389 0.707 0.827 1.387 1.193 2.106l-0.097-0.034c-0.464-0.81-0.966-1.608-1.385-2.441z"></path>
<path fill="#000" d="M5.832 10.318c0.085-0.142 0.15-0.3 0.278-0.409-0.053 0.272-0.234 0.491-0.359 0.733-0.436 0.732-0.836 1.484-1.29 2.204l-0.002-0.126c0.438-0.811 0.922-1.598 1.373-2.402z"></path>
<path fill="#000" d="M18.778 11.525c0.265 0.071 0.391 0.461 0.468 0.704-0.242-0.11-0.354-0.469-0.468-0.704z"></path>
<path fill="#000" d="M11.209 12.124c0.956-0.305 2.075-0.013 2.747 0.738 0.806 0.847 0.928 2.24 0.288 3.218-0.518 0.828-1.519 1.33-2.494 1.224-1.172-0.096-2.207-1.061-2.369-2.228-0.23-1.261 0.6-2.592 1.828-2.952z"></path>
<path fill="#000" d="M19.25 12.343l0.134 0.077c0.398 0.71 0.834 1.402 1.207 2.126l-0.098-0.036c-0.424-0.716-0.845-1.435-1.243-2.167z"></path>
<path fill="#000" d="M4.027 13.442c0.104-0.157 0.157-0.371 0.346-0.452-0.347 0.606-0.635 1.272-1.087 1.799 0.198-0.474 0.503-0.893 0.742-1.346z"></path>
<path fill="#000" d="M20.578 14.642c0.265 0.072 0.395 0.467 0.47 0.712-0.244-0.119-0.354-0.472-0.47-0.712z"></path>
<path fill="#000" d="M3.061 15.112c0.073-0.091 0.103-0.274 0.256-0.257-0.338 0.535-0.587 1.139-0.995 1.624 0.18-0.487 0.505-0.905 0.739-1.367z"></path>
<path fill="#000" d="M21.046 15.451l0.138 0.080c0.931 1.646 1.913 3.265 2.816 4.927v1.024l-0.085-0.042c-0.126 0.521-0.566 0.966-1.085 1.094l0.026 0.085h-21.568c-0.551-0.202-1.126-0.619-1.201-1.242l-0.088 0.11v-0.965c0.186-0.26 0.214-0.751 0.534-0.862-0.317 0.502-0.566 1.056-0.442 1.666 0.234 0.662 0.845 1.261 1.585 1.219 6.881 0.001 13.762 0.001 20.644 0.001 1.133 0.059 2.010-1.33 1.448-2.327-0.882-1.604-1.843-3.166-2.724-4.77z"></path>
<path fill="#000" d="M2.222 16.567c0.031-0.008 0.094-0.026 0.125-0.035-0.29 0.455-0.493 0.974-0.851 1.38 0.174-0.479 0.492-0.893 0.726-1.345z"></path>
<path fill="#000" d="M1.394 18.007c0.028-0.004 0.080-0.011 0.107-0.013-0.325 0.533-0.583 1.112-0.967 1.606 0.2-0.568 0.581-1.060 0.86-1.592z"></path>
<path fill="#fff" d="M11.372 1.58c0.265-0.161 0.584-0.124 0.88-0.116 0.529 0.060 0.919 0.469 1.253 0.85-0.001 0.028-0.002 0.083-0.004 0.112 0.546 0.901 1.052 1.826 1.592 2.73l0.097 0.036c-0.004 0.025-0.011 0.076-0.013 0.101 0.658 1.196 1.375 2.36 2.030 3.559l0.146 0.061c-0.011 0.010-0.035 0.030-0.046 0.040 0.419 0.833 0.92 1.631 1.385 2.441l0.097 0.034c-0.004 0.024-0.010 0.073-0.013 0.098 0.114 0.235 0.226 0.594 0.468 0.704 0.001 0.029 0.004 0.085 0.005 0.114 0.398 0.732 0.82 1.451 1.243 2.167l0.098 0.036c-0.004 0.024-0.011 0.072-0.014 0.096 0.116 0.24 0.227 0.593 0.47 0.712 0 0.024-0.001 0.073-0.002 0.097 0.881 1.604 1.842 3.166 2.724 4.77 0.562 0.997-0.316 2.386-1.448 2.327-6.882 0-13.763 0-20.644-0.001-0.74 0.042-1.351-0.557-1.585-1.219-0.125-0.61 0.125-1.164 0.442-1.666 0-0.016 0-0.047 0-0.062 0.384-0.493 0.642-1.073 0.967-1.606-0.001-0.020-0.004-0.061-0.005-0.082 0.358-0.406 0.56-0.925 0.851-1.38-0.006-0.013-0.019-0.041-0.025-0.054 0.408-0.485 0.656-1.088 0.995-1.624-0.008-0.017-0.023-0.049-0.031-0.066 0.452-0.527 0.74-1.193 1.087-1.799 0.004-0.031 0.012-0.095 0.016-0.126l0.073-0.018c0.454-0.72 0.854-1.472 1.29-2.204 0.125-0.242 0.306-0.461 0.359-0.733 0.034-0.032 0.098-0.1 0.132-0.133 0.593-1.009 1.186-2.020 1.752-3.044-0.008-0.035-0.024-0.106-0.031-0.14l0.095 0.047c0.332-0.575 0.671-1.147 0.997-1.726 0-0.018-0.001-0.055-0.001-0.073 0.379-0.481 0.631-1.051 0.949-1.573 0.013-0.020 0.040-0.060 0.053-0.080 0.365-0.583 0.624-1.333 1.316-1.604M11.586 1.828c-0.331 0.102-0.602 0.35-0.767 0.653-3.352 5.807-6.704 11.612-10.056 17.419-0.16 0.286-0.356 0.57-0.378 0.908-0.079 0.725 0.548 1.451 1.285 1.436 6.924-0.004 13.848 0.005 20.772-0.005 0.931-0.061 1.508-1.242 0.982-2.016-3.409-5.921-6.83-11.836-10.246-17.753-0.287-0.562-0.994-0.853-1.592-0.643z"></path>
<path fill="#fff" d="M11.813 4.091c0.185-0.121 0.443-0.025 0.533 0.168 3.034 5.249 6.066 10.5 9.094 15.752 0.206 0.244-0.001 0.665-0.324 0.624-6.078 0-12.157 0.004-18.235-0.002-0.317 0.037-0.521-0.377-0.319-0.616 2.995-5.2 6.002-10.393 8.998-15.593 0.076-0.116 0.13-0.259 0.254-0.334M11.209 12.124c-1.228 0.36-2.058 1.691-1.828 2.952 0.162 1.168 1.196 2.132 2.369 2.228 0.974 0.106 1.975-0.396 2.494-1.224 0.64-0.978 0.518-2.371-0.288-3.218-0.672-0.751-1.79-1.043-2.747-0.738z"></path>
<path fill="#f00" d="M11.586 1.828c0.599-0.21 1.306 0.082 1.592 0.643 3.415 5.917 6.836 11.832 10.246 17.753 0.527 0.774-0.050 1.955-0.982 2.016-6.924 0.010-13.848 0.001-20.772 0.005-0.737 0.014-1.364-0.712-1.285-1.436 0.022-0.338 0.218-0.623 0.378-0.908 3.352-5.807 6.704-11.612 10.056-17.419 0.164-0.302 0.436-0.551 0.767-0.653M11.813 4.091c-0.125 0.074-0.179 0.217-0.254 0.334-2.995 5.2-6.002 10.393-8.998 15.593-0.202 0.239 0.002 0.653 0.319 0.616 6.078 0.006 12.157 0.002 18.235 0.002 0.323 0.041 0.53-0.38 0.324-0.624-3.028-5.252-6.060-10.504-9.094-15.752-0.090-0.193-0.348-0.289-0.533-0.168z"></path>
</svg>
