<?xml version="1.0" encoding="utf-8"?>
<!-- Generated by IcoMoon.io -->
<!DOCTYPE svg PUBLIC "-//W3C//DTD SVG 1.1//EN" "http://www.w3.org/Graphics/SVG/1.1/DTD/svg11.dtd">
<svg version="1.1" xmlns="http://www.w3.org/2000/svg" xmlns:xlink="http://www.w3.org/1999/xlink" width="24" height="24" viewBox="0 0 24 24">
<path fill="#e22526" d="M23.234 22.58c0.914 0 1.288-0.647 0.831-1.439l-11.088-19.204c-0.457-0.791-1.204-0.791-1.661 0l-11.088 19.204c-0.457 0.791-0.084 1.439 0.831 1.439h22.175z"></path>
<path fill="#fff" d="M4.172 19.853h15.948l-7.974-13.812-7.974 13.812z"></path>
<path fill="#231f20" d="M12.185 8.913c-0.459 0-0.83 0.372-0.83 0.83s0.372 0.83 0.83 0.83c0.459 0 0.83-0.372 0.83-0.83s-0.372-0.83-0.83-0.83z"></path>
<path fill="#231f20" d="M13.644 16.469l-0.461-2.575 0.025-1.56 0.395 0.31 0.268 1.46h0.42l-0.076-1.694-1.241-1.388c-0.162-0.22-0.422-0.363-0.716-0.363-0.276 0-0.522 0.125-0.685 0.323l-2.44 2.368 0.31 0.31 1.862-1.35 0.244 1.644-1.619 5.242h0.528l1.853-3.875 0.629 1.753 1.435 2.164 0.444-0.361-1.174-2.407z"></path>
</svg>
