<svg xmlns="http://www.w3.org/2000/svg" width="24" height="24">
    <path fill="#ec1d24" d="M11.865 1.333h.443c.508.102.974.404 1.22.868l9.965 17.236c.244.43.524.844.685 1.316v.612a1.72 1.72 0 0 1-1.331 1.3H1.361C.67 22.545.133 21.976 0 21.296v-.442c.068-.233.152-.461.271-.673C3.747 14.174 7.218 8.163 10.695 2.157c.239-.441.692-.714 1.17-.826zM2.539 20.532c6.372.003 12.746.004 19.119 0-3.186-5.509-6.367-11.02-9.56-16.524-3.192 5.505-6.375 11.015-9.559 16.524z"/>
    <path fill="#fff" d="M2.539 20.532c3.184-5.509 6.367-11.02 9.559-16.524 3.193 5.504 6.374 11.015 9.56 16.524-6.373.004-12.747.003-19.119 0zm5.071-4.56c-.693.595-1.34 1.447-2.363 1.381.002.762 0 1.524.001 2.284h13.7v-2.284c-.949.054-1.609-.676-2.228-1.276-.604-.541-1.517-.663-2.267-.385-.675.266-1.006.961-1.558 1.385a1.315 1.315 0 0 1-1.556.028c-.399-.281-.657-.708-1.017-1.032-.716-.691-1.934-.684-2.712-.102z"/>
    <path d="M7.61 15.972c.778-.582 1.996-.588 2.712.102.36.324.618.751 1.017 1.032.449.332 1.118.32 1.556-.028.552-.424.884-1.119 1.558-1.385.749-.278 1.663-.156 2.267.385.62.6 1.279 1.331 2.228 1.276v2.284h-13.7c-.001-.761.001-1.523-.001-2.284 1.023.066 1.669-.787 2.363-1.381z"/>
</svg>
