<svg xmlns="http://www.w3.org/2000/svg" width="24" height="24">
    <path fill="#030303" d="M8.482 2.892c.998-.972 1.976-1.98 3.109-2.8 1.135.818 2.111 1.827 3.109 2.8 2.716 2.692 5.426 5.392 8.067 8.157.284.285.524.607.732.95-.44.772-1.132 1.351-1.726 1.999-3.164 3.2-6.334 6.397-9.601 9.492-.211.172-.464.536-.75.27-1.256-.855-2.255-2.02-3.352-3.059-2.708-2.73-5.476-5.407-8.07-8.247v-.94C2.738 8.555 5.626 5.735 8.482 2.89zM11.2.704C7.599 4.284 4.018 7.884.416 11.464c-.164.151-.267.35-.378.541 3.593 3.791 7.392 7.399 11.055 11.13.192.274.616.445.867.146 3.641-3.631 7.285-7.261 10.921-10.898.269-.199.312-.589.02-.79-3.633-3.637-7.27-7.271-10.91-10.901-.199-.286-.592-.26-.792.011z"/>
    <path fill="#030303" d="M7.992 9.266c.417-.678.9-1.323 1.417-1.928a12.86 12.86 0 0 1 1.433 1.931c-.016.409-.532.175-.794.244-.012 2.275.001 4.549-.007 6.824a32.43 32.43 0 0 1-1.208-.001c-.005-2.273.001-4.546-.003-6.82-.277-.071-.813.164-.839-.25zM13.336 9.66c.402-.004.805-.005 1.207-.001.001 2.225.003 4.452-.001 6.678a32.43 32.43 0 0 1-1.208-.001c-.001-2.225-.005-4.451.003-6.675z"/>
    <path fill="#ffdb03" d="M11.2.704c.2-.271.593-.297.792-.011 3.641 3.63 7.278 7.264 10.91 10.901.292.2.248.59-.02.79-3.637 3.637-7.28 7.267-10.921 10.898-.251.299-.675.128-.867-.146-3.663-3.731-7.462-7.339-11.055-11.13.11-.191.214-.39.378-.541C4.018 7.884 7.599 4.284 11.201.705zM7.992 9.266c.026.413.562.179.839.25.004 2.273-.003 4.546.003 6.82.402.008.806.008 1.208.001.008-2.275-.005-4.549.007-6.824.262-.07.777.165.794-.244-.42-.679-.892-1.34-1.433-1.931-.517.605-1 1.25-1.417 1.928zm4.333.383c.337.008.674.015 1.012.011-.008 2.224-.004 4.45-.003 6.675.402.008.806.008 1.208.001.004-2.225.003-4.452.001-6.678.344.003.689 0 1.034-.004a19.93 19.93 0 0 0 .007-1.658c-1.073-.026-2.146.001-3.22-.016-.089.552-.035 1.113-.04 1.669z"/>
    <path fill="#c0111e" d="M12.325 9.649c.004-.556-.049-1.117.04-1.669 1.073.018 2.146-.01 3.22.016.019.552.02 1.106-.007 1.658-.345.004-.69.007-1.034.004a60.704 60.704 0 0 0-1.207.001 28.43 28.43 0 0 1-1.012-.011z"/>
</svg>
