<!-- Generated by IcoMoon.io -->
<svg version="1.1" xmlns="http://www.w3.org/2000/svg" width="27" height="24" viewBox="0 0 27 24">
<title>warning--curve-left--g1</title>
<path fill="#ec1d24" d="M13.249 0h0.649c0.521 0.165 1.010 0.475 1.27 0.969 3.854 6.679 7.7 13.363 11.554 20.043 0.146 0.258 0.279 0.525 0.396 0.799v0.78c-0.199 0.69-0.753 1.238-1.454 1.409h-24.179c-0.736-0.163-1.289-0.755-1.486-1.471v-0.641c0.104-0.267 0.22-0.529 0.359-0.778 3.871-6.711 7.736-13.424 11.605-20.134 0.26-0.502 0.758-0.814 1.284-0.975M2.85 21.599c7.144 0.009 14.289 0.011 21.433-0.001-3.562-6.202-7.138-12.396-10.715-18.59-3.578 6.194-7.15 12.392-10.719 18.591z"></path>
<path fill="#fff" d="M2.85 21.599c3.569-6.199 7.14-12.397 10.719-18.591 3.577 6.194 7.153 12.388 10.715 18.59-7.144 0.012-14.289 0.011-21.433 0.001M10.344 10.264c0.252 0.559 0.507 1.119 0.77 1.673 1.184 0.438 2.372 0.868 3.551 1.315 1.052 0.391 1.759 1.492 1.738 2.605 0.009 1.66-0.007 3.319 0.007 4.98 0.864 0 1.729-0.007 2.593 0.003 0.039-1.702 0.012-3.405 0.015-5.106-0.014-2.156-1.447-4.228-3.479-4.963-1.167-0.415-2.321-0.872-3.492-1.279-0.593 0.191-1.139 0.51-1.703 0.772z"></path>
<path fill="#000" d="M10.344 10.264c0.564-0.262 1.111-0.58 1.703-0.772 1.17 0.407 2.324 0.864 3.492 1.279 2.033 0.735 3.466 2.807 3.479 4.963-0.003 1.702 0.024 3.405-0.015 5.106-0.864-0.009-1.729-0.003-2.593-0.003-0.014-1.661 0.003-3.321-0.007-4.98 0.020-1.113-0.686-2.214-1.738-2.605-1.18-0.447-2.367-0.877-3.551-1.315-0.263-0.555-0.518-1.115-0.77-1.673z"></path>
</svg>
