<!-- Generated by IcoMoon.io -->
<svg version="1.1" xmlns="http://www.w3.org/2000/svg" width="28" height="24" viewBox="0 0 28 24">
<title>warning--gate-right--g1</title>
<path fill="#c0111e" d="M13.623 0h0.317c0.334 0.317 0.589 0.705 0.811 1.108 4.246 7.452 8.644 14.825 12.834 22.306v0.259c-0.192-0.059-0.388 0.135-0.31 0.327h-26.902c-0.062-0.16-0.166-0.374-0.374-0.337v-0.297c4.21-7.457 8.578-14.826 12.825-22.263 0.221-0.397 0.474-0.782 0.799-1.103M4.779 21.019c6.006 0.003 12.010 0.003 18.014 0-3-5.2-5.999-10.401-9.007-15.597-3.007 5.196-6.006 10.397-9.007 15.597z"></path>
<path fill="#fff" d="M4.779 21.019c3.001-5.2 6-10.401 9.007-15.597 3.008 5.196 6.007 10.397 9.007 15.597-6.004 0.003-12.008 0.003-18.014 0M13.321 15.080c0.654 0.909 0.251 2.090 0.36 3.127-0.019 0.743 0.152 1.571-0.361 2.197 0.192-0.004 0.383-0.008 0.577-0.012 0.121-0.192 0.241-0.383 0.363-0.574 1.148-0.011 2.295-0.001 3.443-0.006 0.132 0.193 0.262 0.388 0.393 0.582 0.188 0.003 0.375 0.006 0.564 0.008-0.523-0.622-0.337-1.452-0.361-2.197 0.11-1.036-0.297-2.218 0.363-3.123-0.189 0.004-0.378 0.007-0.567 0.010-0.132 0.196-0.263 0.392-0.394 0.588-1.139 0-2.28 0-3.419 0-0.13-0.196-0.261-0.39-0.39-0.586-0.189-0.004-0.378-0.010-0.568-0.014M10.291 16.317c0.080 0.284 0.171 0.564 0.269 0.843-0.557-0.001-1.114-0.001-1.672-0.003 0 0.388 0 0.774 0 1.161 0.552-0.001 1.103 0 1.655-0.004-0.012 0.272-0.447 0.914 0.069 0.851 0.804-0.394 1.512-0.971 2.281-1.43-0.876-0.444-1.6-1.297-2.603-1.418z"></path>
<path fill="#fff" d="M14.276 16.27c1.143 0.001 2.286 0.001 3.429 0 0 0.197 0 0.393 0 0.59-1.143 0-2.286 0-3.429 0 0.001-0.197 0-0.393 0-0.59z"></path>
<path fill="#fff" d="M14.277 17.452c1.142-0.001 2.284 0 3.426 0 0.001 0.196 0.001 0.393 0.001 0.59-1.143-0.003-2.286-0.001-3.429 0 0-0.197 0-0.394 0.001-0.59z"></path>
<path fill="#fff" d="M14.276 18.632c1.143 0 2.286 0.001 3.429 0 0 0.196 0 0.393-0.001 0.59-1.142 0-2.284 0-3.426 0-0.001-0.197-0.001-0.394-0.001-0.59z"></path>
<path fill="#000" d="M13.321 15.080c0.19 0.004 0.379 0.010 0.568 0.014 0.13 0.196 0.261 0.39 0.39 0.586 1.139 0 2.28 0 3.419 0 0.131-0.196 0.262-0.392 0.394-0.588 0.189-0.003 0.378-0.006 0.567-0.010-0.659 0.905-0.252 2.087-0.363 3.123 0.025 0.745-0.161 1.575 0.361 2.197-0.189-0.003-0.377-0.006-0.564-0.008-0.131-0.194-0.261-0.389-0.393-0.582-1.148 0.004-2.295-0.006-3.443 0.006-0.121 0.19-0.241 0.382-0.363 0.574-0.193 0.004-0.385 0.008-0.577 0.012 0.513-0.626 0.342-1.454 0.361-2.197-0.109-1.037 0.294-2.218-0.36-3.127M14.276 16.27c0 0.197 0.001 0.393 0 0.59 1.143 0 2.286 0 3.429 0 0-0.197 0-0.393 0-0.59-1.143 0.001-2.286 0.001-3.429 0M14.277 17.452c-0.001 0.196-0.001 0.393-0.001 0.59 1.143-0.001 2.286-0.003 3.429 0 0-0.197 0-0.394-0.001-0.59-1.142 0-2.284-0.001-3.426 0M14.276 18.632c0 0.196 0 0.393 0.001 0.59 1.142 0 2.284 0 3.426 0 0.001-0.197 0.001-0.394 0.001-0.59-1.143 0.001-2.286 0-3.429 0z"></path>
<path fill="#000" d="M10.291 16.317c1.003 0.121 1.727 0.974 2.603 1.418-0.77 0.459-1.477 1.036-2.281 1.43-0.516 0.063-0.081-0.579-0.069-0.851-0.552 0.004-1.103 0.003-1.655 0.004 0-0.388 0-0.774 0-1.161 0.557 0.001 1.114 0.001 1.672 0.003-0.098-0.279-0.189-0.559-0.269-0.843z"></path>
</svg>
