<!-- Generated by IcoMoon.io -->
<svg version="1.1" xmlns="http://www.w3.org/2000/svg" width="24" height="24" viewBox="0 0 24 24">
<title>warning--tunnel--g2</title>
<path fill="#000" d="M11.923 0.407c0.367-0.055 0.658 0.215 0.902 0.446 3.484 3.478 6.953 6.971 10.436 10.447 0.41 0.33 0.493 0.997 0.079 1.358-3.56 3.56-7.114 7.13-10.681 10.684-0.359 0.419-1.044 0.356-1.376-0.062-3.541-3.54-7.084-7.081-10.618-10.628-0.44-0.392-0.296-1.073 0.142-1.403 3.492-3.469 6.95-6.972 10.44-10.444 0.196-0.172 0.4-0.382 0.676-0.398M10.584 2.064c-2.924 2.915-5.833 5.846-8.755 8.765-0.38 0.373-0.772 0.74-1.087 1.174 0.138 0.209 0.282 0.416 0.46 0.595 3.445 3.436 6.88 6.881 10.318 10.324 0.204 0.264 0.601 0.444 0.845 0.12 3.565-3.554 7.121-7.12 10.675-10.682 0.286-0.209 0.151-0.568-0.077-0.761-3.262-3.258-6.514-6.526-9.776-9.784-0.372-0.378-0.734-0.774-1.184-1.063-0.534 0.367-0.959 0.862-1.417 1.313z"></path>
<path fill="#000" d="M9.713 6.12c1.598-0.888 3.712-0.746 5.164 0.37 1.235 0.908 1.96 2.423 1.932 3.952 0 1.99 0.018 3.976-0.032 5.964-0.368-0.002-0.737-0.004-1.105-0.006-0.007-2.106 0.014-4.212-0.010-6.318-0.073-1.914-1.871-3.527-3.779-3.415-1.825 0.024-3.448 1.592-3.532 3.414-0.030 2.107-0.002 4.214-0.012 6.322-0.371 0.001-0.743 0.001-1.114 0.001 0.004-2.069-0.002-4.136 0.002-6.205 0.002-1.68 1.020-3.282 2.485-4.078M10.477 5.922c0.095 0.26 0.19 0.521 0.287 0.78 0.163-0.030 0.328-0.059 0.492-0.086-0.031-0.282-0.062-0.563-0.095-0.845-0.229 0.044-0.457 0.095-0.684 0.151M11.293 5.719c0.031 0.275 0.061 0.55 0.089 0.824 0.185-0.005 0.368-0.010 0.553-0.014 0.001-0.283 0.001-0.568 0.001-0.851-0.215 0.013-0.428 0.028-0.643 0.041M12.076 5.681c-0.001 0.281-0.001 0.563 0 0.845 0.182 0.007 0.365 0.014 0.548 0.023 0.031-0.277 0.062-0.553 0.094-0.829-0.214-0.013-0.428-0.026-0.642-0.038M12.874 5.783c-0.047 0.277-0.088 0.554-0.124 0.834 0.172 0.028 0.344 0.056 0.516 0.085 0.092-0.275 0.174-0.552 0.258-0.83-0.217-0.029-0.434-0.059-0.65-0.089M9.742 6.244c0.132 0.244 0.268 0.486 0.403 0.727 0.167-0.066 0.334-0.132 0.5-0.199-0.1-0.262-0.2-0.522-0.3-0.784-0.202 0.085-0.402 0.17-0.604 0.256M13.668 5.989c-0.098 0.259-0.197 0.52-0.296 0.779 0.166 0.071 0.332 0.139 0.499 0.206 0.137-0.242 0.271-0.486 0.402-0.732-0.202-0.085-0.403-0.169-0.605-0.253M9.15 6.659c-0.007 0.295 0.306 0.474 0.454 0.703 0.145-0.097 0.29-0.196 0.436-0.292-0.137-0.245-0.275-0.49-0.413-0.733-0.163 0.101-0.328 0.2-0.476 0.322M14.394 6.335c-0.14 0.245-0.28 0.49-0.419 0.736 0.144 0.094 0.287 0.19 0.43 0.284 0.184-0.214 0.368-0.427 0.553-0.641-0.187-0.127-0.376-0.254-0.564-0.379M8.474 7.292c0.265 0.133 0.559 0.684 0.857 0.358 0.322-0.277-0.221-0.598-0.356-0.845-0.169 0.16-0.336 0.322-0.5 0.487M15.044 6.812c-0.174 0.211-0.348 0.422-0.522 0.634 0.112 0.124 0.222 0.248 0.334 0.372 0.229-0.176 0.463-0.347 0.69-0.529-0.166-0.161-0.332-0.319-0.502-0.476M8.341 7.466c-0.124 0.15-0.224 0.317-0.329 0.481 0.245 0.138 0.49 0.275 0.736 0.41 0.098-0.145 0.198-0.289 0.299-0.432-0.23-0.151-0.412-0.45-0.706-0.46M14.975 7.914c0.095 0.149 0.19 0.299 0.283 0.449 0.251-0.139 0.5-0.282 0.748-0.427-0.119-0.178-0.238-0.356-0.355-0.535-0.227 0.169-0.454 0.34-0.676 0.514M7.924 8.062c-0.088 0.2-0.175 0.402-0.264 0.602 0.268 0.106 0.536 0.209 0.806 0.31 0.382-0.5-0.134-0.731-0.542-0.912M15.353 8.478c0.072 0.163 0.145 0.325 0.22 0.487 0.266-0.101 0.534-0.202 0.8-0.305-0.098-0.198-0.194-0.396-0.292-0.594-0.244 0.136-0.487 0.272-0.728 0.412M7.447 9.492c0.283 0.028 0.568 0.056 0.851 0.084 0.025-0.164 0.053-0.328 0.080-0.491-0.257-0.096-0.514-0.191-0.772-0.286-0.058 0.229-0.112 0.461-0.16 0.692M15.622 9.089c0.037 0.162 0.076 0.324 0.114 0.486 0.27-0.026 0.54-0.054 0.811-0.079-0.030-0.232-0.061-0.463-0.092-0.694-0.28 0.091-0.557 0.187-0.833 0.287M7.397 9.616c-0.013 0.242-0.025 0.486-0.036 0.728 0.28 0 0.559 0 0.839-0.001 0.008-0.212 0.017-0.426 0.026-0.638-0.277-0.028-0.553-0.058-0.829-0.089M15.785 9.706c0.010 0.212 0.019 0.425 0.029 0.637 0.28 0.001 0.558 0.001 0.838 0.001-0.011-0.242-0.022-0.486-0.036-0.73-0.276 0.031-0.553 0.062-0.83 0.091M15.81 10.488c0.001 0.235 0.002 0.469 0.004 0.704 0.276 0.001 0.553 0.001 0.83 0.002 0.002-0.238 0.005-0.475 0.006-0.712-0.28 0.001-0.56 0.002-0.84 0.005M7.361 10.484c0.002 0.236 0.004 0.473 0.006 0.71 0.277-0.001 0.554-0.001 0.832-0.002 0.001-0.235 0.002-0.47 0.004-0.706-0.281-0.002-0.56-0.002-0.841-0.002M7.361 11.329c0.001 0.235 0.004 0.47 0.005 0.704 0.277 0 0.556 0 0.833-0.001 0.001-0.234 0.002-0.467 0.004-0.701-0.281-0.001-0.56-0.002-0.841-0.002M15.81 11.33c0.001 0.234 0.002 0.468 0.002 0.702 0.277 0 0.554 0.001 0.832 0.002 0.004-0.234 0.006-0.468 0.011-0.701-0.281-0.002-0.563-0.004-0.845-0.004M7.362 12.175c0.001 0.235 0.002 0.469 0.004 0.704 0.277-0.001 0.556-0.001 0.834-0.001 0-0.234 0.001-0.468 0.002-0.701-0.281-0.001-0.56-0.002-0.84-0.002M15.811 12.178c0 0.233 0 0.466 0.001 0.7 0.277 0.001 0.554 0.002 0.833 0.004 0.002-0.235 0.005-0.469 0.008-0.703-0.282-0.001-0.563-0.001-0.842 0M7.362 13.018c0.001 0.236 0.001 0.473 0.002 0.71 0.278-0.001 0.557-0.001 0.835-0.002 0-0.235 0.001-0.47 0.001-0.706-0.28-0.002-0.559-0.002-0.839-0.002M15.811 13.020c0 0.235 0 0.472 0 0.707 0.28 0 0.559-0.001 0.839-0.002-0.001-0.235 0-0.47 0-0.706-0.28-0.001-0.559 0-0.839 0.001M7.362 13.86c0.001 0.236 0.001 0.474 0.001 0.71 0.28 0 0.558 0 0.838-0.001 0-0.236 0-0.472 0-0.707-0.28-0.001-0.559-0.002-0.839-0.002M15.811 13.862c0 0.235 0 0.47 0 0.706 0.278 0.001 0.558 0.002 0.836 0.004 0.001-0.236 0.001-0.474 0.002-0.71-0.28-0.001-0.559 0-0.839 0.001M7.363 14.71c0 0.235 0 0.469 0 0.704 0.278 0 0.558-0.001 0.838-0.001 0-0.234 0-0.468 0-0.701-0.28-0.001-0.558-0.002-0.838-0.002M15.811 14.712c0 0.234 0 0.467 0 0.701 0.28 0 0.56 0 0.84-0.001-0.001-0.235-0.002-0.469-0.004-0.702-0.278 0-0.558 0.001-0.836 0.002M7.364 15.552c-0.001 0.235-0.001 0.469-0.002 0.704 0.28-0.001 0.559-0.001 0.839-0.002 0-0.234-0.001-0.467-0.001-0.7-0.278-0.001-0.557-0.001-0.835-0.002M15.811 15.553c0 0.234 0 0.467 0 0.701 0.28 0.001 0.559 0.001 0.839 0.001-0.001-0.234-0.001-0.467 0-0.7-0.28-0.001-0.559-0.002-0.839-0.002z"></path>
<path fill="#000" d="M8.92 10.19c0.017-1.601 1.484-2.998 3.080-2.956 1.601-0.052 3.089 1.349 3.094 2.957 0.008 2.069-0.001 4.139 0.004 6.208-2.062 0-4.122 0-6.184 0 0.006-2.069-0.006-4.139 0.006-6.209z"></path>
<path fill="#ffef00" d="M10.584 2.064c0.458-0.451 0.883-0.946 1.417-1.313 0.45 0.289 0.812 0.685 1.184 1.063 3.263 3.258 6.515 6.526 9.776 9.784 0.228 0.193 0.362 0.552 0.077 0.761-3.554 3.563-7.11 7.128-10.675 10.682-0.244 0.324-0.641 0.144-0.845-0.12-3.438-3.443-6.872-6.888-10.318-10.324-0.178-0.179-0.322-0.386-0.46-0.595 0.316-0.433 0.707-0.8 1.087-1.174 2.922-2.918 5.831-5.85 8.755-8.765M9.713 6.12c-1.465 0.796-2.483 2.398-2.485 4.078-0.005 2.069 0.001 4.136-0.002 6.205 0.371 0 0.743 0 1.114-0.001 0.010-2.107-0.018-4.214 0.012-6.322 0.084-1.822 1.706-3.39 3.532-3.414 1.908-0.112 3.706 1.501 3.779 3.415 0.024 2.106 0.002 4.212 0.010 6.318 0.368 0.002 0.737 0.004 1.105 0.006 0.050-1.988 0.032-3.974 0.032-5.964 0.028-1.529-0.697-3.043-1.932-3.952-1.452-1.116-3.565-1.258-5.164-0.37M8.92 10.19c-0.012 2.070 0 4.14-0.006 6.209 2.062 0 4.122 0 6.184 0-0.005-2.069 0.005-4.139-0.004-6.208-0.005-1.608-1.493-3.008-3.094-2.957-1.596-0.042-3.064 1.355-3.080 2.956z"></path>
<path fill="#ffef00" d="M10.477 5.922c0.227-0.056 0.455-0.107 0.684-0.151 0.032 0.282 0.064 0.563 0.095 0.845-0.164 0.028-0.329 0.056-0.492 0.086-0.097-0.259-0.192-0.52-0.287-0.78z"></path>
<path fill="#ffef00" d="M11.293 5.719c0.215-0.013 0.428-0.028 0.643-0.041 0 0.283 0 0.568-0.001 0.851-0.185 0.005-0.368 0.010-0.553 0.014-0.028-0.275-0.058-0.55-0.089-0.824z"></path>
<path fill="#ffef00" d="M12.874 5.783c0.216 0.030 0.433 0.060 0.65 0.089-0.084 0.278-0.166 0.556-0.258 0.83-0.172-0.029-0.344-0.058-0.516-0.085 0.036-0.28 0.077-0.557 0.124-0.834z"></path>
<path fill="#ffef00" d="M9.15 6.659c0.149-0.121 0.313-0.221 0.476-0.322 0.138 0.244 0.276 0.488 0.413 0.733-0.145 0.096-0.29 0.194-0.436 0.292-0.148-0.229-0.461-0.408-0.454-0.703z"></path>
<path fill="#ffef00" d="M14.394 6.335c0.188 0.125 0.377 0.252 0.564 0.379-0.185 0.214-0.37 0.427-0.553 0.641-0.143-0.095-0.286-0.191-0.43-0.284 0.139-0.246 0.278-0.491 0.419-0.736z"></path>
<path fill="#ffef00" d="M8.474 7.292c0.164-0.166 0.331-0.328 0.5-0.487 0.136 0.247 0.678 0.568 0.356 0.845-0.298 0.326-0.592-0.224-0.857-0.358z"></path>
<path fill="#ffef00" d="M15.044 6.812c0.169 0.157 0.336 0.316 0.502 0.476-0.227 0.182-0.461 0.353-0.69 0.529-0.112-0.124-0.222-0.248-0.334-0.372 0.174-0.211 0.348-0.422 0.522-0.634z"></path>
<path fill="#ffef00" d="M8.341 7.466c0.294 0.010 0.475 0.308 0.706 0.46-0.101 0.143-0.2 0.287-0.299 0.432-0.246-0.136-0.491-0.272-0.736-0.41 0.104-0.164 0.205-0.331 0.329-0.481z"></path>
<path fill="#ffef00" d="M14.975 7.914c0.222-0.174 0.449-0.344 0.676-0.514 0.118 0.179 0.236 0.358 0.355 0.535-0.247 0.145-0.497 0.288-0.748 0.427-0.094-0.15-0.188-0.3-0.283-0.449z"></path>
<path fill="#ffef00" d="M15.353 8.478c0.241-0.139 0.485-0.276 0.728-0.412 0.097 0.198 0.193 0.396 0.292 0.594-0.266 0.103-0.534 0.204-0.8 0.305-0.074-0.162-0.148-0.324-0.22-0.487z"></path>
<path fill="#ffef00" d="M7.447 9.492c0.048-0.232 0.102-0.463 0.16-0.692 0.258 0.095 0.515 0.19 0.772 0.286-0.028 0.163-0.055 0.326-0.080 0.491-0.283-0.028-0.568-0.056-0.851-0.084z"></path>
<path fill="#ffef00" d="M15.622 9.089c0.276-0.1 0.553-0.196 0.833-0.287 0.031 0.23 0.062 0.462 0.092 0.694-0.271 0.025-0.541 0.053-0.811 0.079-0.038-0.162-0.077-0.324-0.114-0.486z"></path>
<path fill="#ffef00" d="M7.361 11.329c0.281 0 0.56 0.001 0.841 0.002-0.001 0.234-0.002 0.467-0.004 0.701-0.277 0.001-0.556 0.001-0.833 0.001-0.001-0.234-0.004-0.469-0.005-0.704z"></path>
<path fill="#ffef00" d="M7.362 13.018c0.28 0 0.559 0 0.839 0.002 0 0.235-0.001 0.47-0.001 0.706-0.278 0.001-0.557 0.001-0.835 0.002-0.001-0.238-0.001-0.474-0.002-0.71z"></path>
<path fill="#ffef00" d="M15.811 13.020c0.28-0.001 0.559-0.002 0.839-0.001 0 0.235-0.001 0.47 0 0.706-0.28 0.001-0.559 0.002-0.839 0.002 0-0.235 0-0.472 0-0.707z"></path>
<path fill="#ffef00" d="M7.364 15.552c0.278 0.001 0.557 0.001 0.835 0.002 0 0.233 0.001 0.466 0.001 0.7-0.28 0.001-0.559 0.001-0.839 0.002 0.001-0.235 0.001-0.469 0.002-0.704z"></path>
<path fill="#ffef00" d="M15.811 15.553c0.28 0 0.559 0.001 0.839 0.002-0.001 0.233-0.001 0.466 0 0.7-0.28 0-0.559 0-0.839-0.001 0-0.234 0-0.467 0-0.701z"></path>
<path fill="#fff000" d="M12.076 5.681c0.214 0.012 0.428 0.025 0.642 0.038-0.031 0.276-0.062 0.552-0.094 0.829-0.184-0.008-0.366-0.016-0.548-0.023-0.001-0.282-0.001-0.564 0-0.845z"></path>
<path fill="#fff000" d="M9.742 6.244c0.202-0.085 0.402-0.17 0.604-0.256 0.1 0.262 0.2 0.522 0.3 0.784-0.167 0.067-0.334 0.133-0.5 0.199-0.136-0.241-0.271-0.484-0.403-0.727z"></path>
<path fill="#fff000" d="M13.668 5.989c0.202 0.084 0.403 0.168 0.605 0.253-0.131 0.246-0.265 0.49-0.402 0.732-0.167-0.067-0.334-0.136-0.499-0.206 0.1-0.259 0.198-0.52 0.296-0.779z"></path>
<path fill="#fff000" d="M7.924 8.062c0.408 0.181 0.924 0.412 0.542 0.912-0.27-0.101-0.539-0.204-0.806-0.31 0.089-0.2 0.176-0.402 0.264-0.602z"></path>
<path fill="#fff000" d="M7.397 9.616c0.276 0.031 0.552 0.061 0.829 0.089-0.010 0.212-0.018 0.426-0.026 0.638-0.28 0.001-0.559 0.001-0.839 0.001 0.011-0.242 0.023-0.486 0.036-0.728z"></path>
<path fill="#fff000" d="M15.785 9.706c0.277-0.029 0.554-0.060 0.83-0.091 0.014 0.244 0.025 0.487 0.036 0.73-0.28 0-0.558 0-0.838-0.001-0.010-0.212-0.019-0.425-0.029-0.637z"></path>
<path fill="#fff000" d="M7.361 10.484c0.281 0 0.56 0 0.841 0.002-0.001 0.235-0.002 0.47-0.004 0.706-0.277 0.001-0.554 0.001-0.832 0.002-0.002-0.238-0.004-0.474-0.006-0.71z"></path>
<path fill="#fff000" d="M15.81 11.33c0.282 0 0.564 0.001 0.845 0.004-0.005 0.233-0.007 0.467-0.011 0.701-0.277-0.001-0.554-0.002-0.832-0.002 0-0.234-0.001-0.468-0.002-0.702z"></path>
<path fill="#fff000" d="M7.362 12.175c0.28 0 0.559 0.001 0.84 0.002-0.001 0.233-0.002 0.467-0.002 0.701-0.278 0-0.557 0-0.834 0.001-0.001-0.235-0.002-0.469-0.004-0.704z"></path>
<path fill="#fff000" d="M15.811 12.178c0.28-0.001 0.56-0.001 0.842 0-0.004 0.234-0.006 0.468-0.008 0.703-0.278-0.001-0.556-0.002-0.833-0.004-0.001-0.234-0.001-0.467-0.001-0.7z"></path>
<path fill="#fff000" d="M7.362 13.86c0.28 0 0.559 0.001 0.839 0.002 0 0.235 0 0.47 0 0.707-0.28 0.001-0.558 0.001-0.838 0.001 0-0.236 0-0.474-0.001-0.71z"></path>
<path fill="#fff000" d="M15.811 13.862c0.28-0.001 0.559-0.002 0.839-0.001-0.001 0.236-0.001 0.474-0.002 0.71-0.278-0.001-0.558-0.002-0.836-0.004 0-0.235 0-0.47 0-0.706z"></path>
<path fill="#fff000" d="M7.363 14.71c0.28 0 0.558 0.001 0.838 0.002 0 0.233 0 0.467 0 0.701-0.28 0-0.559 0.001-0.838 0.001 0-0.235 0-0.469 0-0.704z"></path>
<path fill="#fff000" d="M15.811 14.712c0.278-0.001 0.558-0.002 0.836-0.002 0.001 0.233 0.002 0.467 0.004 0.702-0.28 0.001-0.56 0.001-0.84 0.001 0-0.234 0-0.467 0-0.701z"></path>
<path fill="#fff200" d="M15.81 10.488c0.28-0.002 0.56-0.004 0.84-0.005-0.001 0.236-0.004 0.474-0.006 0.712-0.277-0.001-0.554-0.001-0.83-0.002-0.001-0.235-0.002-0.469-0.004-0.704z"></path>
</svg>
