<?xml version="1.0" encoding="utf-8"?>
<!-- Generated by IcoMoon.io -->
<!DOCTYPE svg PUBLIC "-//W3C//DTD SVG 1.1//EN" "http://www.w3.org/Graphics/SVG/1.1/DTD/svg11.dtd">
<svg version="1.1" xmlns="http://www.w3.org/2000/svg" xmlns:xlink="http://www.w3.org/1999/xlink" width="24" height="24" viewBox="0 0 24 24">
<path fill="#fee011" d="M11.346 0.21c0.479-0.349 1.168-0.218 1.554 0.206 3.562 3.558 7.123 7.118 10.681 10.681 0.3 0.283 0.473 0.71 0.383 1.121-0.065 0.42-0.414 0.692-0.691 0.977-3.361 3.358-6.719 6.718-10.076 10.078-0.259 0.245-0.487 0.557-0.847 0.656-0.439 0.146-0.943-0.008-1.247-0.353-3.576-3.581-7.158-7.157-10.734-10.738-0.5-0.456-0.457-1.304 0.044-1.742 3.419-3.422 6.842-6.841 10.26-10.264 0.217-0.214 0.422-0.445 0.673-0.623M11.683 0.295c-0.32 0.128-0.538 0.413-0.782 0.644-3.338 3.342-6.678 6.682-10.020 10.020-0.286 0.289-0.658 0.594-0.637 1.044-0.012 0.481 0.414 0.78 0.713 1.091 3.439 3.439 6.881 6.877 10.316 10.32 0.22 0.234 0.54 0.39 0.866 0.33 0.385-0.055 0.629-0.389 0.89-0.641 3.479-3.484 6.964-6.965 10.445-10.446 0.396-0.37 0.348-1.043-0.055-1.387-3.559-3.563-7.121-7.126-10.684-10.685-0.26-0.289-0.679-0.425-1.052-0.29z"></path>
<path fill="#fee011" d="M11.795 0.762c0.25-0.125 0.508 0.029 0.671 0.218 3.479 3.476 6.953 6.958 10.435 10.432 0.151 0.174 0.39 0.334 0.376 0.593 0.005 0.254-0.229 0.406-0.379 0.576-3.424 3.414-6.841 6.834-10.256 10.256-0.212 0.196-0.422 0.52-0.76 0.431-0.266-0.102-0.431-0.361-0.637-0.547-3.439-3.443-6.88-6.882-10.321-10.321-0.174-0.143-0.268-0.392-0.161-0.605 0.157-0.233 0.377-0.415 0.571-0.617 3.262-3.259 6.521-6.52 9.781-9.78 0.222-0.216 0.424-0.458 0.68-0.636M11.288 4.842c0.439 0.062 0.886-0.047 1.328-0.038 0.125-0.344 0.074-0.715-0.082-1.040-0.048 0.269 0.043 0.526 0.126 0.778-0.512-0.008-0.626-0.727-0.344-1.063-0.221-0.25-0.61-0.323-0.918-0.208-0.649 0.199-0.727 1.296-0.11 1.572M10.943 5.292c-0.354 0.307-0.539 0.754-0.737 1.166-0.217 0.005-0.497-0.114-0.671 0.072-0.173 0.296 0.227 0.416 0.422 0.526-0.008 0.193-0.072 0.407 0.054 0.58 0.145 0.252 0.233 0.65 0.607 0.574 0.080 0.115 0.157 0.233 0.232 0.352-0.293 0.473-0.401 1.088-0.125 1.594 0.148 0.401 0.6 0.587 0.714 1.002 0.121 0.428 0.518 0.673 0.766 1.021-0.092-0.737-0.212-1.472-0.277-2.213 0.12-0.516 0.932-0.628 1.169-0.148 0.143 0.736 0.18 1.49 0.324 2.227 0.040-0.14 0.079-0.281 0.119-0.421 0.148-0.134 0.326-0.248 0.418-0.433 0.096-0.229 0.082-0.504 0.258-0.696 0.39-0.492 0.664-1.112 0.635-1.747-0.13-0.544-0.655-0.84-1.055-1.171 0.21-0.172 0.492-0.241 0.667-0.455-0.13-0.199-0.175-0.431-0.205-0.664 0.086-0.143 0.27-0.266 0.238-0.454-0.068-0.198-0.3-0.17-0.462-0.137-0.383-0.47-0.923-0.88-1.555-0.874-0.521 0.018-1.055 0.086-1.535 0.299M12.121 9.948c0.166 1.144 0.29 2.294 0.455 3.438 0.067 0.446 0.914 0.283 0.774-0.166-0.152-1.112-0.283-2.23-0.464-3.336-0.196-0.288-0.571-0.158-0.764 0.064M6.874 13.942c-0.445 0.222-0.54 0.878-0.193 1.229 0.517 0.494 1.277 0.626 1.967 0.536 0.035-0.112 0.070-0.222 0.104-0.334-0.438-0.032-0.899-0.043-1.298-0.248-0.306-0.184-0.328-0.658-0.046-0.87 0.901-0.491 1.883-0.853 2.905-0.979-0.028-0.065-0.085-0.193-0.113-0.257-1.152 0.115-2.27 0.457-3.326 0.923M9.211 15.326c-0.294 0.13-0.49 0.526-0.253 0.797 0.401 0.323 0.937 0.404 1.375 0.668-0.007 0.061-0.019 0.181-0.026 0.241-0.544 0.42-1.127 0.787-1.676 1.201 0.332 0.017 0.665 0.034 0.997 0.053 0.361-0.329 0.737-0.641 1.094-0.972 0.278-0.216 0.17-0.654-0.047-0.874-0.348-0.281-0.802-0.378-1.172-0.623-0.004-0.056-0.010-0.17-0.013-0.228 0.659-0.503 1.38-0.923 2.064-1.391 0.203-0.161 0.528-0.242 0.568-0.535-1.008 0.48-1.937 1.114-2.91 1.662M10.157 15.85c1.938 0.18 3.877 0.334 5.815 0.504 0.163-0.020 0.264 0.096 0.37 0.198-0.383 0.302-0.768 0.601-1.151 0.904 0.245 0.065 0.491 0.128 0.736 0.198 0.245-0.289 0.536-0.544 0.73-0.872 0.169-0.374-0.162-0.827-0.564-0.81-1.854-0.162-3.709-0.306-5.563-0.451-0.126 0.108-0.25 0.218-0.372 0.33z"></path>
<path fill="#fee011" d="M13.042 6.050c0.287 0.252 0.737 0.803 0.274 1.103-0.096-0.366-0.194-0.732-0.274-1.103z"></path>
<path fill="#fee011" d="M10.712 7.499c0.013-0.24 0.146-0.45 0.246-0.664 0.043 0.29 0.082 0.581 0.124 0.871-0.204 0.059-0.326-0.010-0.37-0.208z"></path>
<path fill="#fee011" d="M13.726 8.938c0.146-0.026 0.193 0.144 0.283 0.222-0.064 0.167-0.127 0.332-0.192 0.499-0.046-0.238-0.148-0.478-0.091-0.721z"></path>
<path fill="#000" d="M11.683 0.295c0.373-0.134 0.792 0.001 1.052 0.29 3.563 3.559 7.124 7.122 10.684 10.685 0.403 0.344 0.451 1.018 0.055 1.387-3.481 3.481-6.966 6.962-10.445 10.446-0.262 0.252-0.505 0.586-0.89 0.641-0.326 0.060-0.647-0.096-0.866-0.33-3.436-3.443-6.877-6.881-10.316-10.32-0.299-0.311-0.725-0.61-0.713-1.091-0.020-0.45 0.352-0.755 0.637-1.044 3.342-3.338 6.682-6.678 10.020-10.020 0.245-0.232 0.462-0.516 0.782-0.644M11.795 0.762c-0.257 0.178-0.458 0.42-0.68 0.636-3.26 3.26-6.52 6.521-9.781 9.78-0.194 0.202-0.414 0.384-0.571 0.617-0.107 0.212-0.013 0.462 0.161 0.605 3.442 3.439 6.882 6.878 10.321 10.321 0.206 0.186 0.371 0.445 0.637 0.547 0.337 0.089 0.547-0.235 0.76-0.431 3.415-3.422 6.833-6.842 10.256-10.256 0.15-0.17 0.384-0.322 0.379-0.576 0.014-0.259-0.224-0.419-0.376-0.593-3.482-3.474-6.956-6.955-10.435-10.432-0.163-0.19-0.421-0.343-0.671-0.218z"></path>
<path fill="#000" d="M11.288 4.842c-0.617-0.276-0.539-1.373 0.11-1.572 0.308-0.115 0.697-0.042 0.918 0.208-0.282 0.336-0.168 1.055 0.344 1.063-0.083-0.252-0.174-0.509-0.126-0.778 0.156 0.325 0.206 0.696 0.082 1.040-0.443-0.008-0.889 0.101-1.328 0.038z"></path>
<path fill="#000" d="M10.943 5.292c0.48-0.212 1.014-0.281 1.535-0.299 0.632-0.006 1.172 0.403 1.555 0.874 0.162-0.034 0.394-0.061 0.462 0.137 0.032 0.187-0.151 0.311-0.238 0.454 0.030 0.233 0.076 0.464 0.205 0.664-0.175 0.214-0.457 0.283-0.667 0.455 0.4 0.331 0.925 0.628 1.055 1.171 0.029 0.635-0.245 1.255-0.635 1.747-0.176 0.192-0.162 0.467-0.258 0.696-0.091 0.185-0.27 0.299-0.418 0.433-0.040 0.14-0.079 0.281-0.119 0.421-0.144-0.737-0.181-1.492-0.324-2.227-0.236-0.48-1.049-0.368-1.169 0.148 0.065 0.74 0.185 1.476 0.277 2.213-0.247-0.348-0.644-0.593-0.766-1.021-0.114-0.415-0.566-0.601-0.714-1.002-0.276-0.505-0.168-1.121 0.125-1.594-0.074-0.119-0.151-0.236-0.232-0.352-0.374 0.077-0.462-0.322-0.607-0.574-0.126-0.173-0.062-0.386-0.054-0.58-0.196-0.109-0.595-0.229-0.422-0.526 0.174-0.186 0.454-0.067 0.671-0.072 0.198-0.413 0.383-0.859 0.737-1.166M13.042 6.050c0.079 0.371 0.178 0.737 0.274 1.103 0.463-0.3 0.013-0.851-0.274-1.103M10.712 7.499c0.043 0.198 0.166 0.266 0.37 0.208-0.042-0.29-0.080-0.581-0.124-0.871-0.1 0.214-0.233 0.424-0.246 0.664M13.726 8.938c-0.056 0.244 0.046 0.484 0.091 0.721 0.065-0.167 0.128-0.332 0.192-0.499-0.090-0.078-0.137-0.248-0.283-0.222z"></path>
<path fill="#000" d="M12.121 9.948c0.193-0.222 0.569-0.352 0.764-0.064 0.181 1.106 0.312 2.224 0.464 3.336 0.14 0.449-0.707 0.612-0.774 0.166-0.164-1.144-0.289-2.294-0.455-3.438z"></path>
<path fill="#000" d="M6.874 13.942c1.056-0.466 2.174-0.808 3.326-0.923 0.028 0.064 0.085 0.192 0.113 0.257-1.022 0.126-2.004 0.488-2.905 0.979-0.282 0.212-0.26 0.686 0.046 0.87 0.4 0.205 0.86 0.216 1.298 0.248-0.035 0.112-0.070 0.222-0.104 0.334-0.69 0.090-1.45-0.042-1.967-0.536-0.347-0.35-0.252-1.007 0.193-1.229z"></path>
<path fill="#000" d="M9.211 15.326c0.973-0.548 1.902-1.182 2.91-1.662-0.040 0.293-0.365 0.374-0.568 0.535-0.684 0.468-1.405 0.888-2.064 1.391 0.004 0.058 0.010 0.172 0.013 0.228 0.371 0.245 0.824 0.342 1.172 0.623 0.217 0.22 0.325 0.658 0.047 0.874-0.358 0.331-0.733 0.643-1.094 0.972-0.332-0.019-0.665-0.036-0.997-0.053 0.55-0.414 1.133-0.781 1.676-1.201 0.007-0.060 0.019-0.18 0.026-0.241-0.438-0.264-0.974-0.346-1.375-0.668-0.236-0.271-0.041-0.667 0.253-0.797z"></path>
<path fill="#000" d="M10.157 15.85c0.122-0.112 0.246-0.222 0.372-0.33 1.854 0.145 3.709 0.289 5.563 0.451 0.402-0.017 0.733 0.436 0.564 0.81-0.193 0.329-0.485 0.583-0.73 0.872-0.245-0.070-0.491-0.133-0.736-0.198 0.383-0.302 0.768-0.601 1.151-0.904-0.106-0.102-0.206-0.218-0.37-0.198-1.938-0.17-3.877-0.324-5.815-0.504z"></path>
</svg>
