<!-- Generated by IcoMoon.io -->
<svg version="1.1" xmlns="http://www.w3.org/2000/svg" width="24" height="24" viewBox="0 0 24 24">
<title>warning--lane-closed-in-dual-lanes-right--g2</title>
<path fill="#030303" d="M8.482 2.892c0.998-0.972 1.976-1.98 3.109-2.8 1.135 0.818 2.111 1.827 3.109 2.8 2.716 2.692 5.426 5.392 8.067 8.157 0.284 0.285 0.524 0.607 0.732 0.95-0.44 0.772-1.132 1.351-1.726 1.999-3.164 3.2-6.334 6.397-9.601 9.492-0.211 0.172-0.464 0.536-0.75 0.27-1.256-0.855-2.255-2.020-3.352-3.059-2.708-2.73-5.476-5.407-8.070-8.247v-0.94c2.738-2.959 5.626-5.779 8.482-8.624M11.2 0.704c-3.601 3.58-7.182 7.18-10.784 10.76-0.164 0.151-0.267 0.35-0.378 0.541 3.593 3.791 7.392 7.399 11.055 11.13 0.192 0.274 0.616 0.445 0.867 0.146 3.641-3.631 7.285-7.261 10.921-10.898 0.269-0.199 0.312-0.589 0.020-0.79-3.633-3.637-7.27-7.271-10.91-10.901-0.199-0.286-0.592-0.26-0.792 0.011z"></path>
<path fill="#030303" d="M7.992 9.266c0.417-0.678 0.9-1.323 1.417-1.928 0.541 0.59 1.013 1.252 1.433 1.931-0.016 0.409-0.532 0.175-0.794 0.244-0.012 2.275 0.001 4.549-0.007 6.824-0.402 0.007-0.806 0.007-1.208-0.001-0.005-2.273 0.001-4.546-0.003-6.82-0.277-0.071-0.813 0.164-0.839-0.25z"></path>
<path fill="#030303" d="M13.336 9.66c0.402-0.004 0.805-0.005 1.207-0.001 0.001 2.225 0.003 4.452-0.001 6.678-0.402 0.007-0.806 0.007-1.208-0.001-0.001-2.225-0.005-4.451 0.003-6.675z"></path>
<path fill="#ffdb03" d="M11.2 0.704c0.2-0.271 0.593-0.297 0.792-0.011 3.641 3.63 7.278 7.264 10.91 10.901 0.292 0.2 0.248 0.59-0.020 0.79-3.637 3.637-7.28 7.267-10.921 10.898-0.251 0.299-0.675 0.128-0.867-0.146-3.663-3.731-7.462-7.339-11.055-11.13 0.11-0.191 0.214-0.39 0.378-0.541 3.601-3.581 7.182-7.181 10.784-10.76M7.992 9.266c0.026 0.413 0.562 0.179 0.839 0.25 0.004 2.273-0.003 4.546 0.003 6.82 0.402 0.008 0.806 0.008 1.208 0.001 0.008-2.275-0.005-4.549 0.007-6.824 0.262-0.070 0.777 0.165 0.794-0.244-0.42-0.679-0.892-1.34-1.433-1.931-0.517 0.605-1 1.25-1.417 1.928M12.325 9.649c0.337 0.008 0.674 0.015 1.012 0.011-0.008 2.224-0.004 4.45-0.003 6.675 0.402 0.008 0.806 0.008 1.208 0.001 0.004-2.225 0.003-4.452 0.001-6.678 0.344 0.003 0.689 0 1.034-0.004 0.027-0.552 0.026-1.106 0.007-1.658-1.073-0.026-2.146 0.001-3.22-0.016-0.089 0.552-0.035 1.113-0.040 1.669z"></path>
<path fill="#c0111e" d="M12.325 9.649c0.004-0.556-0.049-1.117 0.040-1.669 1.073 0.018 2.146-0.010 3.22 0.016 0.019 0.552 0.020 1.106-0.007 1.658-0.345 0.004-0.69 0.007-1.034 0.004-0.402-0.004-0.805-0.003-1.207 0.001-0.338 0.004-0.675-0.003-1.012-0.011z"></path>
</svg>
