<?xml version="1.0" encoding="utf-8"?>
<!-- Generated by IcoMoon.io -->
<!DOCTYPE svg PUBLIC "-//W3C//DTD SVG 1.1//EN" "http://www.w3.org/Graphics/SVG/1.1/DTD/svg11.dtd">
<svg version="1.1" xmlns="http://www.w3.org/2000/svg" xmlns:xlink="http://www.w3.org/1999/xlink" width="24" height="24" viewBox="0 0 24 24">
<path fill="#ed1c24" d="M11.894 1.5h0.156c0.448 0.020 0.857 0.283 1.064 0.679 3.556 6.127 7.12 12.248 10.67 18.378 0.491 0.78-0.169 1.931-1.099 1.862-7.123 0.001-14.248-0.001-21.371 0.001-0.69 0.055-1.243-0.568-1.315-1.217v-0.217c0.053-0.474 0.356-0.857 0.586-1.258 3.482-5.839 6.966-11.68 10.446-17.521 0.191-0.328 0.455-0.666 0.863-0.708M3.678 19.723c5.534 0.002 11.069 0.001 16.604 0-2.764-4.787-5.532-9.572-8.303-14.356-2.77 4.783-5.538 9.569-8.302 14.356z"></path>
<path fill="#fff" d="M3.678 19.723c2.764-4.787 5.532-9.572 8.302-14.356 2.771 4.783 5.539 9.569 8.303 14.356-5.536 0.001-11.070 0.002-16.604 0M7.985 15.173c0.251 0.245 0.498 0.491 0.744 0.74-0.545-0.005-1.088-0.002-1.633-0.002-0.569 0.956-1.11 1.928-1.68 2.885 4.373 0 8.746 0.001 13.12-0.001-0.563-0.972-1.121-1.949-1.698-2.912-0.556 0.004-1.11 0.001-1.666 0.002-0.004 0.707 0.005 1.412-0.005 2.118-0.404-0.126-0.776-0.466-1.225-0.361-0.268 0.080-0.509 0.23-0.778 0.307-0.427 0.068-0.755-0.326-1.174-0.325-0.391-0.011-0.7 0.31-1.084 0.334-0.354 0.014-0.638-0.227-0.962-0.325-0.444-0.072-0.756 0.377-1.195 0.38 0.004-0.63-0.007-1.259 0.001-1.888-0.025-0.164 0.090-0.286 0.196-0.39 1.676-1.664 3.346-3.336 5.021-5.002-0.252-0.26-0.509-0.515-0.769-0.767-1.739 1.734-3.479 3.468-5.213 5.207z"></path>
<path fill="#120c0e" d="M7.985 15.173c1.734-1.739 3.474-3.473 5.213-5.207 0.26 0.252 0.517 0.506 0.769 0.767-1.675 1.666-3.344 3.337-5.021 5.002-0.106 0.104-0.221 0.226-0.196 0.39-0.008 0.629 0.002 1.258-0.001 1.888 0.439-0.004 0.751-0.452 1.195-0.38 0.324 0.098 0.608 0.34 0.962 0.325 0.384-0.024 0.692-0.344 1.084-0.334 0.419-0.001 0.746 0.394 1.174 0.325 0.269-0.077 0.51-0.227 0.778-0.307 0.449-0.104 0.821 0.235 1.225 0.361 0.010-0.706 0.001-1.411 0.005-2.118 0.556-0.001 1.11 0.001 1.666-0.002 0.577 0.964 1.135 1.94 1.698 2.912-4.374 0.002-8.747 0.001-13.12 0.001 0.57-0.956 1.111-1.928 1.68-2.885 0.545 0 1.088-0.002 1.633 0.002-0.246-0.25-0.493-0.496-0.744-0.74z"></path>
</svg>
