<svg xmlns="http://www.w3.org/2000/svg" width="24" height="24">
    <path fill="#1f1c1c" opacity=".91" d="M10.53.926c.704-.758 2.018-.792 2.73-.024 3.346 3.173 6.668 6.371 10.01 9.548.346.305.592.704.73 1.142v.65c-.136.388-.324.763-.625 1.049-3.229 3.214-6.437 6.449-9.665 9.662-.689.708-1.925.763-2.635.058-3.434-3.289-6.883-6.565-10.313-9.858-.697-.695-.608-1.915.102-2.568C4.082 7.362 7.301 4.137 10.53.925zm1.033-.27c-.467.096-.818.44-1.141.766-3.114 3.127-6.246 6.238-9.355 9.37-.607.542-.69 1.578-.102 2.164 3.434 3.286 6.871 6.569 10.307 9.853.6.594 1.662.547 2.238-.056 3.24-3.242 6.484-6.481 9.725-9.721.606-.57.641-1.628.014-2.197-3.365-3.235-6.75-6.451-10.124-9.678-.394-.416-.995-.638-1.561-.499z"/>
    <path fill="#fff100" d="M11.563.656c.566-.139 1.168.083 1.561.499 3.374 3.227 6.76 6.443 10.124 9.678.626.569.592 1.627-.014 2.197-3.241 3.24-6.485 6.479-9.725 9.721-.576.604-1.638.65-2.238.056L.964 12.954c-.588-.586-.505-1.621.102-2.164 3.109-3.132 6.241-6.242 9.355-9.37.323-.325.674-.67 1.141-.766zm-.24.484c-.472.154-.806.538-1.15.874-2.879 2.882-5.766 5.756-8.636 8.647-.684.638-.736 1.831-.043 2.483 3.208 3.074 6.426 6.137 9.636 9.21.683.648 1.856.596 2.509-.071 3.04-3.043 6.085-6.079 9.122-9.125.689-.664.68-1.882-.046-2.514A3703.33 3703.33 0 0 0 13.2 1.555a1.806 1.806 0 0 0-1.878-.415z"/>
    <path fill="#fff100" d="M11.55 1.478c.512-.152 1.076.028 1.441.409 3.151 3.01 6.306 6.016 9.449 9.034.576.491.582 1.444.044 1.964-3.041 3.038-6.077 6.082-9.12 9.118-.53.546-1.49.571-2.023.014l-9.512-9.089c-.588-.502-.576-1.477-.013-1.993 2.945-2.976 5.92-5.921 8.876-8.885.244-.244.514-.488.858-.572zm.149 7.428c.524-.083 1.036-.234 1.56-.318-.002.899-.002 1.85.439 2.662.355.698 1.05 1.141 1.41 1.836.394.722.419 1.564.408 2.366.602.037 1.206.072 1.81.091.058-.925.077-1.885-.221-2.774-.244-.731-.964-1.138-1.312-1.805-.386-.726-.527-1.556-.588-2.368.55.072 1.084.227 1.631.311a168.02 168.02 0 0 0-2.552-3.44 169.502 169.502 0 0 0-2.585 3.439zM9.004 6.151c-.028.816-.038 1.676-.443 2.411-.377.718-1.108 1.172-1.451 1.912-.4.796-.394 1.706-.374 2.575-.53-.103-1.057-.227-1.588-.335.851 1.166 1.733 2.31 2.6 3.463.848-1.151 1.705-2.294 2.556-3.444-.557.076-1.102.22-1.655.314.11-.86.216-1.762.683-2.515.34-.568.95-.937 1.195-1.567.38-.911.234-1.915.257-2.874-.593.036-1.187.049-1.781.06zm2.433 7.211c-.901 1.418-1.102 3.191-1.103 4.84 1.198.005 2.395.025 3.594.016.059-1.589-.204-3.259-.956-4.673-.269-.617-1.166-.818-1.535-.182z"/>
    <path fill="#231f20" d="M11.323 1.14a1.806 1.806 0 0 1 1.878.415 3703.33 3703.33 0 0 1 9.515 9.089c.726.632.734 1.85.046 2.514-3.037 3.046-6.083 6.082-9.122 9.125-.653.667-1.826.719-2.509.071-3.21-3.073-6.428-6.136-9.636-9.21-.692-.652-.641-1.844.043-2.483 2.87-2.891 5.758-5.765 8.636-8.647.343-.336.678-.72 1.15-.874zm.227.338c-.344.084-.614.329-.858.572-2.957 2.964-5.932 5.909-8.876 8.885-.563.516-.575 1.492.013 1.993 3.172 3.029 6.342 6.06 9.512 9.089.533.557 1.493.532 2.023-.014 3.043-3.036 6.079-6.079 9.12-9.118.538-.521.532-1.474-.044-1.964-3.143-3.018-6.298-6.024-9.449-9.034-.365-.382-.929-.562-1.441-.409z"/>
    <path fill="#231f20" d="M11.699 8.906c.842-1.16 1.712-2.302 2.585-3.439a168.02 168.02 0 0 1 2.552 3.44c-.547-.084-1.081-.239-1.631-.311.061.811.202 1.642.588 2.368.348.667 1.068 1.074 1.312 1.805.298.889.278 1.849.221 2.774a60.732 60.732 0 0 1-1.81-.091c.011-.803-.014-1.644-.408-2.366-.36-.695-1.055-1.138-1.41-1.836-.442-.811-.442-1.763-.439-2.662-.524.084-1.036.235-1.56.318zM9.004 6.151a42.313 42.313 0 0 0 1.781-.06c-.023.959.124 1.963-.257 2.874-.245.63-.856 1-1.195 1.567-.467.754-.572 1.655-.683 2.515.553-.095 1.098-.239 1.655-.314-.851 1.15-1.708 2.293-2.556 3.444-.868-1.153-1.75-2.297-2.6-3.463.53.108 1.057.232 1.588.335-.019-.869-.025-1.78.374-2.575.343-.739 1.074-1.194 1.451-1.912.404-.734.415-1.595.443-2.411zM11.437 13.362c.368-.636 1.266-.434 1.535.182.752 1.414 1.015 3.084.956 4.673-1.199.01-2.396-.011-3.594-.016.001-1.649.202-3.421 1.103-4.84z"/>
</svg>
