<!-- Generated by IcoMoon.io -->
<svg version="1.1" xmlns="http://www.w3.org/2000/svg" width="24" height="24" viewBox="0 0 24 24">
<title>warning--junction-with-a-side-road-perpendicular-left--g4</title>
<path fill="#ffd520" d="M11.725 0h0.497c0.266 0.122 0.521 0.277 0.728 0.486 3.277 3.284 6.56 6.562 9.841 9.842 0.431 0.44 0.924 0.84 1.208 1.399v0.5c-0.238 0.569-0.738 0.948-1.154 1.378-3.080 3.079-6.161 6.16-9.24 9.239-0.419 0.414-0.803 0.883-1.336 1.156h-0.51c-0.558-0.248-0.938-0.74-1.364-1.156-3.060-3.060-6.12-6.12-9.18-9.179-0.431-0.442-0.928-0.838-1.216-1.396v-0.511c0.245-0.559 0.732-0.944 1.148-1.369 3.281-3.281 6.563-6.559 9.841-9.842 0.218-0.216 0.468-0.396 0.736-0.547M11.672 0.388c-0.347 0.203-0.599 0.526-0.886 0.8-3.4 3.402-6.809 6.794-10.201 10.202-0.359 0.316-0.36 0.905 0.008 1.214 3.6 3.6 7.201 7.201 10.801 10.802 0.31 0.367 0.899 0.367 1.211 0.002 3.599-3.602 7.199-7.205 10.8-10.805 0.37-0.31 0.368-0.899 0.008-1.214-3.553-3.569-7.124-7.121-10.68-10.688-0.262-0.286-0.682-0.524-1.062-0.314z"></path>
<path fill="#ffd520" d="M11.82 0.889c0.193-0.222 0.403 0.042 0.562 0.168 3.32 3.32 6.641 6.641 9.962 9.96 0.305 0.316 0.664 0.593 0.881 0.983-0.199 0.332-0.502 0.582-0.772 0.854-3.403 3.396-6.796 6.804-10.202 10.198-0.155 0.209-0.43 0.125-0.568-0.055-3.572-3.588-7.163-7.159-10.735-10.747-0.314-0.253 0.028-0.566 0.226-0.757 3.562-3.521 7.064-7.105 10.646-10.603M12.462 5.938c-0.017 0.892-0.031 1.782-0.041 2.674-0.421 0.162-0.841 0.328-1.259 0.497-0.001 0.214-0.002 0.427-0.001 0.642 0.594-0.232 1.188-0.462 1.786-0.684 0-1.044 0.004-2.089-0.002-3.134-0.161 0.002-0.322 0.004-0.482 0.006M16.112 18.276c0.162 0.001 0.324 0.002 0.486 0.004 0.005-4.112 0-8.224 0.001-12.335-0.12-0.002-0.361-0.008-0.482-0.011-0.011 4.114 0 8.228-0.005 12.342M14.327 9.715c0.149 0 0.296 0 0.445 0 0.002-0.852 0.001-1.703 0.001-2.555-0.11-0.001-0.332-0.005-0.444-0.006-0.005 0.854-0.001 1.708-0.002 2.561M5.196 10.284c-0.001 1 0 1.998 0 2.998 0.256-0.002 0.511-0.004 0.768-0.007-0.124 0.361-0.090 0.905 0.397 0.938 0.515 0.067 0.666-0.505 0.515-0.894 0.172-0.001 0.342-0.001 0.514-0.001-0.133 0.355-0.072 0.884 0.406 0.901 0.512 0.052 0.635-0.516 0.509-0.9 1.219 0 2.438 0.005 3.658-0.002-0.179 0.361-0.071 0.866 0.401 0.894 0.504 0.007 0.601-0.539 0.498-0.928 0.091-0.001 0.274-0.002 0.365-0.002 0.005-0.563 0.008-1.126 0.007-1.688-0.235-0.023-0.47-0.046-0.706-0.072-0.193-0.419-0.395-0.832-0.601-1.243-0.403 0.004-0.808 0.004-1.211 0.005 0.001 0.541 0 1.081 0 1.622-0.112 0-0.335 0-0.446 0 0-0.554-0.001-1.109-0.001-1.662-0.823-0.164-1.638-0.386-2.471-0.502-0.88 0.091-1.734 0.366-2.6 0.544M2.92 10.463c0.622-0.023 1.32 0.138 1.871-0.234-0.616 0.031-1.376-0.251-1.871 0.234M14.288 10.846c-0.010 0.84 0.001 1.68 0.042 2.519 0.112-0.002 0.332-0.006 0.443-0.008 0-0.835 0.001-1.672-0.001-2.507-0.161-0.001-0.323-0.002-0.484-0.004M2.29 11.046c-0.066 0.071-0.199 0.215-0.266 0.287 0.619-0.061 1.344 0.156 1.854-0.302-0.529-0.014-1.058 0.008-1.588 0.016M1.333 11.867c-0.058 0.070-0.174 0.209-0.233 0.278 0.51-0.010 1.019-0.025 1.528-0.031 0.071-0.071 0.211-0.211 0.282-0.282-0.526 0.007-1.051 0.023-1.577 0.035M11.161 14.549c-0.001 0.188-0.001 0.377 0 0.566 0.436 0.154 0.869 0.314 1.298 0.482-0.013 0.892-0.029 1.782-0.040 2.674 0.176 0 0.352 0 0.527 0.001 0-1.039 0.001-2.077 0-3.115-0.593-0.211-1.187-0.419-1.786-0.608M14.328 14.543c-0.001 0.839-0.001 1.678-0.001 2.516 0.149 0 0.296 0.001 0.445 0.002 0.002-0.84 0.002-1.679 0-2.518-0.149 0-0.296 0-0.444-0.001z"></path>
<path fill="#000" d="M11.672 0.388c0.38-0.21 0.8 0.029 1.062 0.314 3.556 3.568 7.127 7.12 10.68 10.688 0.36 0.316 0.361 0.905-0.008 1.214-3.601 3.6-7.201 7.202-10.8 10.805-0.312 0.365-0.901 0.365-1.211-0.002-3.6-3.601-7.201-7.202-10.801-10.802-0.368-0.31-0.367-0.899-0.008-1.214 3.392-3.408 6.802-6.8 10.201-10.202 0.287-0.275 0.539-0.598 0.886-0.8M11.82 0.889c-3.582 3.498-7.085 7.082-10.646 10.603-0.198 0.191-0.54 0.504-0.226 0.757 3.572 3.588 7.163 7.159 10.735 10.747 0.138 0.18 0.413 0.264 0.568 0.055 3.407-3.394 6.799-6.802 10.202-10.198 0.27-0.272 0.572-0.522 0.772-0.854-0.217-0.39-0.576-0.667-0.881-0.983-3.322-3.319-6.642-6.64-9.962-9.96-0.158-0.126-0.368-0.39-0.562-0.168z"></path>
<path fill="#000" d="M12.462 5.938c0.161-0.002 0.322-0.004 0.482-0.006 0.006 1.045 0.002 2.090 0.002 3.134-0.598 0.222-1.192 0.452-1.786 0.684-0.001-0.215 0-0.428 0.001-0.642 0.418-0.169 0.838-0.335 1.259-0.497 0.010-0.892 0.024-1.782 0.041-2.674z"></path>
<path fill="#000" d="M16.112 18.276c0.005-4.114-0.006-8.228 0.005-12.342 0.121 0.002 0.362 0.008 0.482 0.011-0.001 4.111 0.004 8.222-0.001 12.335-0.162-0.001-0.324-0.002-0.486-0.004z"></path>
<path fill="#000" d="M14.327 9.715c0.001-0.853-0.002-1.706 0.002-2.561 0.112 0.001 0.334 0.005 0.444 0.006 0 0.852 0.001 1.703-0.001 2.555-0.149 0-0.296 0-0.445 0z"></path>
<path fill="#000" d="M5.196 10.284c0.866-0.178 1.721-0.452 2.6-0.544 0.833 0.115 1.648 0.337 2.471 0.502 0 0.553 0.001 1.108 0.001 1.662 0.112 0 0.335 0 0.446 0 0-0.541 0.001-1.081 0-1.622 0.403-0.001 0.808-0.001 1.211-0.005 0.206 0.412 0.408 0.824 0.601 1.243 0.235 0.026 0.47 0.049 0.706 0.072 0.001 0.563-0.002 1.126-0.007 1.688-0.091 0-0.274 0.001-0.365 0.002 0.103 0.389 0.006 0.935-0.498 0.928-0.472-0.028-0.58-0.533-0.401-0.894-1.219 0.007-2.438 0.002-3.658 0.002 0.126 0.384 0.004 0.952-0.509 0.9-0.478-0.017-0.539-0.546-0.406-0.901-0.172 0-0.342 0-0.514 0.001 0.151 0.389 0 0.961-0.515 0.894-0.487-0.034-0.521-0.577-0.397-0.938-0.257 0.004-0.512 0.005-0.768 0.007 0-1-0.001-1.998 0-2.998z"></path>
<path fill="#000" d="M14.288 10.846c0.161 0.001 0.323 0.002 0.484 0.004 0.002 0.835 0.001 1.672 0.001 2.507-0.11 0.002-0.331 0.006-0.443 0.008-0.041-0.839-0.052-1.679-0.042-2.519z"></path>
<path fill="#000" d="M11.161 14.549c0.599 0.19 1.193 0.397 1.786 0.608 0.001 1.038 0 2.076 0 3.115-0.175-0.001-0.35-0.001-0.527-0.001 0.011-0.892 0.026-1.782 0.040-2.674-0.43-0.168-0.863-0.329-1.298-0.482-0.001-0.19-0.001-0.378 0-0.566z"></path>
<path fill="#000" d="M14.328 14.543c0.148 0.001 0.295 0.001 0.444 0.001 0.002 0.839 0.002 1.678 0 2.518-0.149-0.001-0.296-0.002-0.445-0.002 0-0.839 0-1.678 0.001-2.516z"></path>
<path fill="#0b0901" d="M2.92 10.463c0.494-0.485 1.255-0.203 1.871-0.234-0.551 0.372-1.249 0.211-1.871 0.234z"></path>
<path fill="#030300" d="M2.29 11.046c0.529-0.007 1.058-0.030 1.588-0.016-0.51 0.458-1.235 0.241-1.854 0.302 0.067-0.072 0.2-0.216 0.266-0.287z"></path>
<path fill="#020200" d="M1.333 11.867c0.526-0.012 1.051-0.028 1.577-0.035-0.071 0.071-0.211 0.211-0.282 0.282-0.509 0.006-1.018 0.022-1.528 0.031 0.059-0.070 0.175-0.209 0.233-0.278z"></path>
</svg>
