<!-- Generated by IcoMoon.io -->
<svg version="1.1" xmlns="http://www.w3.org/2000/svg" width="24" height="24" viewBox="0 0 24 24">
<title>warning--curve-out-intersection-right--g1</title>
<path fill="#ffd033" d="M11.75 0h0.5c0.499 0.172 0.832 0.596 1.196 0.953 3.22 3.221 6.439 6.44 9.66 9.66 0.317 0.307 0.63 0.619 0.893 0.976v0.848c-0.242 0.4-0.601 0.707-0.928 1.036-3.218 3.221-6.44 6.439-9.66 9.661-0.3 0.311-0.602 0.624-0.964 0.866h-0.827c-0.389-0.235-0.686-0.582-1.004-0.899-3.239-3.24-6.479-6.48-9.719-9.72-0.335-0.334-0.713-0.649-0.899-1.097v-0.499c0.182-0.47 0.58-0.793 0.925-1.141 3.2-3.198 6.398-6.4 9.599-9.599 0.383-0.377 0.733-0.805 1.226-1.045M11.674 0.392c-3.73 3.58-7.331 7.31-11.012 10.948-0.398 0.305-0.488 0.941-0.089 1.282 3.62 3.623 7.244 7.243 10.865 10.866 0.319 0.366 0.917 0.336 1.222-0.031 3.616-3.624 7.242-7.236 10.855-10.862 0.362-0.33 0.283-0.929-0.083-1.223-3.581-3.581-7.159-7.165-10.744-10.742-0.245-0.286-0.668-0.419-1.014-0.236z"></path>
<path fill="#ffd033" d="M11.921 0.754c0.216-0.080 0.382 0.11 0.526 0.239 3.539 3.542 7.082 7.079 10.62 10.624 0.192 0.161 0.384 0.463 0.142 0.674-3.611 3.626-7.237 7.24-10.854 10.86-0.149 0.198-0.456 0.238-0.614 0.029-3.624-3.617-7.243-7.241-10.864-10.861-0.337-0.293 0.042-0.644 0.269-0.854 3.602-3.558 7.124-7.21 10.776-10.71M10.133 6.883c0.305 0.474 0.754 0.836 1.1 1.279-2.569 1.32-5.176 2.563-7.754 3.86 0.168 0.355 0.342 0.707 0.52 1.057 1.356-0.672 2.712-1.346 4.073-2.009-0.856 2.119-0.314 4.466-0.462 6.688 0.786 0.019 1.573 0.008 2.359 0.006 0.029-1.637-0.040-3.276 0.041-4.912 0.15-1.386 1.436-2.204 2.568-2.783 0.169 0.49 0.264 1.006 0.481 1.477 0.173 0.314 0.691 0.257 0.824-0.066 0.863-1.723 1.715-3.454 2.562-5.185-1.924 0.008-3.846-0.013-5.768-0.001-0.317-0.025-0.65 0.254-0.544 0.588z"></path>
<path fill="#000" d="M11.674 0.392c0.346-0.182 0.769-0.049 1.014 0.236 3.584 3.577 7.163 7.162 10.744 10.742 0.366 0.294 0.445 0.893 0.083 1.223-3.613 3.626-7.24 7.238-10.855 10.862-0.305 0.367-0.902 0.397-1.222 0.031-3.62-3.623-7.244-7.243-10.865-10.866-0.4-0.341-0.31-0.977 0.089-1.282 3.682-3.637 7.283-7.368 11.012-10.948M11.921 0.754c-3.652 3.5-7.174 7.152-10.776 10.71-0.227 0.21-0.606 0.562-0.269 0.854 3.62 3.62 7.24 7.244 10.864 10.861 0.158 0.209 0.466 0.169 0.614-0.029 3.617-3.62 7.243-7.234 10.854-10.86 0.242-0.211 0.050-0.514-0.142-0.674-3.538-3.545-7.081-7.081-10.62-10.624-0.144-0.128-0.31-0.319-0.526-0.239z"></path>
<path fill="#000" d="M10.133 6.883c-0.107-0.334 0.227-0.613 0.544-0.588 1.922-0.012 3.845 0.010 5.768 0.001-0.847 1.732-1.699 3.462-2.562 5.185-0.133 0.323-0.652 0.38-0.824 0.066-0.217-0.472-0.312-0.988-0.481-1.477-1.132 0.578-2.418 1.397-2.568 2.783-0.080 1.636-0.012 3.275-0.041 4.912-0.786 0.002-1.573 0.013-2.359-0.006 0.148-2.221-0.394-4.568 0.462-6.688-1.361 0.662-2.717 1.337-4.073 2.009-0.178-0.35-0.352-0.702-0.52-1.057 2.579-1.297 5.185-2.54 7.754-3.86-0.347-0.443-0.796-0.805-1.1-1.279z"></path>
</svg>
