<?xml version="1.0" encoding="utf-8"?>
<!-- Generated by IcoMoon.io -->
<!DOCTYPE svg PUBLIC "-//W3C//DTD SVG 1.1//EN" "http://www.w3.org/Graphics/SVG/1.1/DTD/svg11.dtd">
<svg version="1.1" xmlns="http://www.w3.org/2000/svg" xmlns:xlink="http://www.w3.org/1999/xlink" width="24" height="24" viewBox="0 0 24 24">
<path fill="#030303" d="M11.193 0h1.352c1.291 1.072 2.449 2.287 3.664 3.442 2.2 2.128 4.33 4.325 6.455 6.525 0.431 0.52 0.933 0.986 1.271 1.575v0.751c-0.562 0.929-1.352 1.694-2.107 2.466-2.597 2.636-5.21 5.259-7.86 7.841-0.564 0.48-1.079 1.030-1.729 1.4h-0.681c-0.61-0.284-1.075-0.781-1.587-1.205-2.953-2.845-5.831-5.765-8.702-8.693-0.407-0.453-0.813-0.911-1.204-1.379v-1.611c0.337-0.379 0.651-0.781 1.003-1.148 2.879-2.919 5.781-5.816 8.698-8.696 0.461-0.438 0.948-0.848 1.427-1.267M11.512 0.691c-0.198 0.084-0.352 0.241-0.503 0.388-3.369 3.379-6.754 6.745-10.119 10.129-0.235 0.218-0.38 0.541-0.322 0.864 0.045 0.398 0.392 0.646 0.647 0.916 3.341 3.32 6.666 6.655 9.997 9.984 0.339 0.374 0.976 0.353 1.317-0.005 3.442-3.434 6.876-6.877 10.323-10.306 0.428-0.363 0.431-1.088 0-1.45-3.387-3.408-6.793-6.795-10.186-10.197-0.279-0.324-0.745-0.506-1.153-0.323z"></path>
<path fill="#030303" d="M9.115 9.337c0.453-0.663 0.848-1.59 1.734-1.723 1.6-0.126 3.216-0.167 4.81 0.022 0.554 0.088 0.822 0.612 1.179 0.974 0.101-0.005 0.305-0.014 0.406-0.019-0.003 0.232-0.005 0.463-0.008 0.695 0.087 0.174 0.17 0.35 0.252 0.527 0.328-0.143 1.038-0.222 0.987 0.32-0.035 0.367-0.464 0.283-0.725 0.292 0.256 0.691 0.499 1.408 0.481 2.155-0.029 0.234 0.099 0.544-0.13 0.708-0.035 0.441 0.053 0.896-0.061 1.327-0.221 0.553-0.977 0.559-1.437 0.35-0.464-0.271-0.332-0.877-0.348-1.321-2.041 0.15-4.088 0.127-6.128 0-0.026 0.414 0.106 0.922-0.241 1.239-0.327 0.272-0.832 0.239-1.209 0.106-0.605-0.34-0.335-1.131-0.385-1.69-0.038-0.040-0.115-0.121-0.154-0.161-0.043-0.931 0.128-1.854 0.49-2.713-0.301 0.003-0.601-0.030-0.898-0.082 0.008-0.292 0.010-0.585 0.010-0.878 0.458-0.044 0.916-0.086 1.374-0.13M10.714 8.063c-0.438 0.265-0.558 0.83-0.867 1.218 0.254-0.027 0.509-0.052 0.763-0.075 0.001 0.274 0.001 0.547 0.001 0.822-0.426 0.056-0.854 0.097-1.279 0.145 0.013 0.038 0.039 0.114 0.053 0.152 0.825 0.051 1.655-0.092 2.484-0.073 1.727-0.045 3.453 0.018 5.178 0.095 0.014-0.401-0.327-0.695-0.493-1.035-0.715 0.054-1.422 0.169-2.133 0.249-0.001-0.236-0.001-0.472-0.003-0.708 0.586-0.071 1.174-0.126 1.762-0.171-0.169-0.259-0.313-0.641-0.677-0.653-1.593-0.102-3.203-0.14-4.79 0.034M8.933 11.707c-0.413 0.223-0.419 0.885-0.012 1.116 0.387 0.276 0.99-0.025 1.009-0.496 0.075-0.514-0.571-0.916-0.998-0.62M16.705 11.689c-0.449 0.201-0.468 0.915-0.032 1.142 0.385 0.259 0.966-0.034 0.994-0.496 0.077-0.498-0.529-0.909-0.961-0.646z"></path>
<path fill="#030303" d="M17.786 8.532c0.363-0.036 0.726-0.071 1.090-0.105 0 0.2-0.001 0.4-0.001 0.601-0.363 0.042-0.725 0.084-1.088 0.126 0-0.206 0-0.414 0-0.621z"></path>
<path fill="#030303" d="M11.154 9.155c0.908-0.088 1.815-0.176 2.723-0.259 0 0.245 0 0.489 0 0.734-0.907 0.112-1.815 0.221-2.722 0.33-0.001-0.269-0.001-0.537-0.001-0.804z"></path>
<path fill="#030303" d="M4.664 9.771c0.843-0.086 1.689-0.166 2.534-0.244 0.004 0.306 0.005 0.614-0.014 0.92-0.458 0.042-0.913 0.104-1.37 0.162 0.245 1.5 0.494 2.999 0.741 4.499-0.876 0.003-1.75 0.003-2.626 0.001 0.236-1.781 0.449-3.565 0.736-5.338z"></path>
<path fill="#facf03" d="M11.512 0.691c0.409-0.183 0.874-0.001 1.153 0.323 3.394 3.402 6.799 6.789 10.186 10.197 0.431 0.362 0.428 1.087 0 1.45-3.447 3.429-6.881 6.872-10.323 10.306-0.341 0.358-0.978 0.379-1.317 0.005-3.331-3.329-6.656-6.664-9.997-9.984-0.256-0.27-0.602-0.518-0.647-0.916-0.058-0.323 0.087-0.646 0.322-0.864 3.365-3.385 6.75-6.75 10.119-10.129 0.152-0.147 0.305-0.304 0.503-0.388M9.115 9.337c-0.458 0.044-0.916 0.086-1.374 0.13 0 0.293-0.003 0.586-0.010 0.878 0.297 0.052 0.597 0.084 0.898 0.082-0.362 0.859-0.533 1.781-0.49 2.713 0.039 0.040 0.117 0.121 0.154 0.161 0.051 0.559-0.219 1.35 0.385 1.69 0.378 0.132 0.882 0.166 1.209-0.106 0.348-0.317 0.215-0.825 0.241-1.239 2.041 0.127 4.088 0.15 6.128 0 0.016 0.444-0.117 1.050 0.348 1.321 0.461 0.209 1.217 0.202 1.437-0.35 0.114-0.431 0.026-0.886 0.061-1.327 0.228-0.165 0.101-0.475 0.13-0.708 0.018-0.747-0.226-1.463-0.481-2.155 0.261-0.009 0.69 0.075 0.725-0.292 0.051-0.542-0.659-0.463-0.987-0.32-0.082-0.176-0.165-0.353-0.252-0.527 0.003-0.232 0.005-0.463 0.008-0.695-0.101 0.005-0.305 0.014-0.406 0.019-0.357-0.362-0.625-0.886-1.179-0.974-1.594-0.189-3.211-0.148-4.81-0.022-0.886 0.132-1.282 1.060-1.734 1.723M17.786 8.532c0 0.208 0 0.415 0 0.621 0.363-0.042 0.725-0.084 1.088-0.126 0-0.201 0.001-0.401 0.001-0.601-0.363 0.034-0.726 0.069-1.090 0.105M4.664 9.771c-0.287 1.773-0.499 3.557-0.736 5.338 0.876 0.001 1.75 0.001 2.626-0.001-0.246-1.5-0.496-2.999-0.741-4.499 0.457-0.058 0.912-0.121 1.37-0.162 0.019-0.306 0.018-0.614 0.014-0.92-0.845 0.078-1.69 0.158-2.534 0.244z"></path>
<path fill="#facf03" d="M10.714 8.063c1.587-0.174 3.197-0.136 4.79-0.034 0.365 0.012 0.509 0.393 0.677 0.653-0.588 0.045-1.175 0.1-1.762 0.171 0.001 0.236 0.001 0.472 0.003 0.708 0.711-0.080 1.418-0.195 2.133-0.249 0.166 0.34 0.507 0.634 0.493 1.035-1.724-0.077-3.451-0.14-5.178-0.095-0.829-0.019-1.659 0.123-2.484 0.073-0.014-0.038-0.040-0.114-0.053-0.152 0.426-0.048 0.854-0.090 1.279-0.145 0-0.275 0-0.549-0.001-0.822-0.254 0.023-0.509 0.048-0.763 0.075 0.309-0.388 0.428-0.954 0.867-1.218M11.154 9.155c0 0.267 0 0.536 0.001 0.804 0.907-0.109 1.815-0.218 2.722-0.33 0-0.245 0-0.489 0-0.734-0.908 0.083-1.815 0.171-2.723 0.259z"></path>
<path fill="#facf03" d="M8.933 11.707c0.427-0.296 1.073 0.106 0.998 0.62-0.019 0.471-0.623 0.772-1.009 0.496-0.407-0.231-0.401-0.893 0.012-1.116z"></path>
<path fill="#facf03" d="M16.705 11.689c0.432-0.263 1.038 0.148 0.961 0.646-0.027 0.462-0.608 0.755-0.994 0.496-0.436-0.227-0.416-0.941 0.032-1.142z"></path>
</svg>
