<svg xmlns="http://www.w3.org/2000/svg" width="24" height="24">
    <path fill="#ffcd05" d="M11.826 0h.312A813.401 813.401 0 0 1 24 11.855v.221c-.2.289-.45.538-.7.785-3.749 3.697-7.412 7.484-11.2 11.14h-.221c-.661-.534-1.218-1.182-1.831-1.768-3.344-3.366-6.736-6.688-10.049-10.081v-.311C3.891 7.85 7.852 3.914 11.825.001zm.096.416c-.172.035-.299.167-.426.277C7.88 4.318 4.253 7.933.637 11.558c-.24.202-.299.593-.041.806 3.678 3.683 7.36 7.363 11.041 11.042.185.251.527.223.712-.012 3.683-3.678 7.364-7.36 11.042-11.044.286-.208.206-.582-.042-.782C19.735 7.943 16.106 4.331 12.493.703c-.158-.14-.334-.347-.571-.288z"/>
    <path fill="#ffcd05" d="M1.174 11.496C4.791 7.918 8.343 4.271 11.993.727a898.786 898.786 0 0 1 11.256 11.264 1439.57 1439.57 0 0 1-11.258 11.257c-3.668-3.599-7.274-7.262-10.918-10.886-.324-.242-.172-.658.101-.866zM10.042 6.4c.316.384.757.884 1.31.748.268-.256.287-.678.436-1.007.217.454.247 1.199.888 1.24.494.108.768-.395 1.044-.706.574.222.704.823.695 1.376.226-.002.45.025.676.02-.029.221-.056.44-.082.661l.234.173c.248-.022.497-.044.746-.064-.091 1.163-.049 2.328-.068 3.492a23.142 23.142 0 0 1-.244-.03c-.238-.365-.539-.814-1.037-.778-.54-.074-.869.415-1.136.799-.155-.01-.31-.019-.463-.03.004-.25.005-.5.008-.75l-.481-.002-.011.773-.408.001-.006-1.188c-1.612-.002-3.223-.002-4.836 0l-.004 1.186c-.406 0-.811 0-1.217.002a561.892 561.892 0 0 0 0 3.895c.23.001.461.005.692.005.084.406.283.896.781.877.575.064.82-.521.955-.968.222.404.374 1.031.965.97.499.036.722-.432.803-.844l.329-.094-.001-.884c.712-.002 1.424-.002 2.136 0-.001.296-.004.594-.007.89l.356.097c.14.398.474.787.944.683.534-.002.509-.733.998-.802.13.974 1.526 1.07 1.704.074l.673-.004.01-.632c.383 0 .764 0 1.147.002-.006-.666-.005-1.332-.001-1.998l-1.148.001a52.957 52.957 0 0 0-.008-.892c-.191-.082-.368-.187-.486-.364-.163-.011-.325-.019-.487-.028-.084-1.285.128-2.596-.162-3.86-.23.013-.46.034-.689.048l.091-.558-.422-.3c.013-.554.024-1.111-.014-1.666-.404.056-.8.179-1.21.198-.389-.202-.52-.712-.923-.907-.328-.108-.684-.082-1.013-.186-.421-.224-.534-.859-1.057-.916-.977.076-1.732 1.468-1.001 2.243z"/>
    <path fill="#ffcd05" d="M13.327 15.008c1.129-.006 2.258-.004 3.389-.002l-.001.382c-1.128.002-2.255.002-3.382-.001l-.006-.378z"/>
    <path fill="#231f20" d="M11.922.416c.238-.059.413.148.571.288 3.613 3.628 7.242 7.24 10.856 10.865.248.2.328.575.042.782-3.678 3.684-7.36 7.366-11.042 11.044-.185.235-.527.263-.712.012-3.682-3.679-7.363-7.36-11.041-11.042-.258-.214-.199-.605.041-.806C4.253 7.934 7.88 4.319 11.496.694c.127-.11.254-.242.426-.277zM1.174 11.496c-.272.209-.425.624-.101.866 3.643 3.624 7.249 7.288 10.918 10.886a1405.7 1405.7 0 0 0 11.258-11.257A898.786 898.786 0 0 0 11.993.727c-3.65 3.544-7.202 7.19-10.819 10.769z"/>
    <path fill="#231f20" d="M10.042 6.4c-.731-.775.024-2.167 1.001-2.243.523.056.636.691 1.057.916.329.104.685.078 1.013.186.403.196.534.706.923.907.409-.019.805-.142 1.21-.198a17.8 17.8 0 0 1 .014 1.666l.422.3-.091.558c.229-.014.458-.035.689-.048.29 1.265.078 2.575.162 3.86a27 27 0 0 1 .487.028c.118.176.295.282.486.364.006.296.007.594.008.892l1.148-.001c-.004.666-.005 1.332.001 1.998-.383-.002-.764-.002-1.147-.002l-.01.632-.673.004c-.178.996-1.574.9-1.704-.074-.49.068-.464.799-.998.802-.47.104-.804-.284-.944-.683-.119-.034-.238-.065-.356-.097.004-.296.006-.594.007-.89-.712-.002-1.424-.002-2.136 0l.001.884-.329.094c-.08.412-.304.88-.803.844-.59.061-.743-.565-.965-.97-.136.448-.38 1.032-.955.968-.498.019-.697-.472-.781-.877-.232 0-.462-.004-.692-.005a561.892 561.892 0 0 1 0-3.895c.406-.002.811-.002 1.217-.002.001-.395.001-.79.004-1.186 1.613-.002 3.224-.002 4.836 0l.006 1.188.408-.001.011-.773.481.002c-.004.25-.005.5-.008.75.154.011.308.02.463.03.268-.384.596-.874 1.136-.799.498-.036.799.413 1.037.778l.244.03c.019-1.164-.023-2.329.068-3.492-.25.019-.498.042-.746.064l-.234-.173c.025-.221.053-.44.082-.661-.226.005-.45-.023-.676-.02.01-.553-.121-1.154-.695-1.376-.276.311-.55.814-1.044.706-.641-.041-.671-.786-.888-1.24-.149.329-.168.751-.436 1.007-.553.137-.995-.364-1.31-.748zm3.285 8.608l.006.378c1.127.004 2.254.004 3.382.001l.001-.382c-1.13-.001-2.26-.004-3.389.002z"/>
</svg>
