<svg xmlns="http://www.w3.org/2000/svg" width="24" height="24">
    <path fill="#e8bd2e" opacity=".91" d="M11.717 0h.536c.258.124.499.281.701.484 3.296 3.305 6.601 6.601 9.9 9.902.41.419.883.798 1.146 1.336v.523c-.211.512-.654.86-1.032 1.243l-9.42 9.42c-.396.391-.761.832-1.264 1.092h-.532a2.353 2.353 0 0 1-.641-.427c-3.316-3.326-6.642-6.641-9.96-9.965-.408-.42-.89-.791-1.152-1.33v-.532c.212-.509.648-.86 1.025-1.242 3.142-3.139 6.281-6.28 9.421-9.419.396-.392.762-.834 1.271-1.086zm.203.287c-.276.018-.485.218-.674.398C7.69 4.25 4.122 7.802.567 11.37c-.37.323-.377.937.006 1.254 3.602 3.599 7.204 7.201 10.802 10.805a.83.83 0 0 0 1.249-.001c3.599-3.602 7.2-7.205 10.802-10.805.382-.317.374-.929.005-1.253-3.572-3.587-7.163-7.159-10.74-10.742-.202-.206-.472-.382-.772-.341z"/>
    <path d="M11.92.287c.3-.041.57.134.772.341 3.577 3.583 7.168 7.156 10.74 10.742.37.324.377.936-.005 1.253-3.602 3.6-7.204 7.202-10.802 10.805a.83.83 0 0 1-1.249.001c-3.599-3.604-7.2-7.206-10.802-10.805-.383-.317-.376-.931-.006-1.254C4.122 7.802 7.691 4.25 11.247.685c.19-.18.398-.38.674-.398zm-.011.459c-.13.062-.235.162-.34.259C8.031 4.551 4.484 8.087.947 11.631c-.214.166-.295.486-.055.67 3.601 3.604 7.204 7.206 10.807 10.806a.383.383 0 0 0 .602-.001c3.604-3.6 7.206-7.202 10.806-10.805.236-.184.158-.505-.054-.67-3.539-3.544-7.085-7.08-10.624-10.625-.146-.125-.302-.319-.521-.26z"/>
    <path d="M9.564 6.322a372.1 372.1 0 0 1 1.83-.001c-.01 1.133.025 2.267-.013 3.398-.56.848-1.34 1.549-1.885 2.405-.042 1.885-.002 3.774-.018 5.659-.611.001-1.22.002-1.831 0 .014-2.119-.035-4.243.024-6.36.58-.816 1.303-1.525 1.872-2.347.052-.916 0-1.837.022-2.754zM14.635 6.323c.611-.002 1.22-.002 1.83 0 .004 3.822.004 7.645 0 11.467-.61.002-1.219.002-1.83 0-.002-3.822-.002-7.645 0-11.467z"/>
    <path d="M10.716 12.52l.678-.002c.001.401.002.802.001 1.202-.227-.001-.454-.007-.68-.006l.001-1.194zM10.716 14.557c.226-.001.452-.001.678-.004.001.401.002.802.001 1.202-.227-.002-.454-.004-.68-.004l.001-1.195zM10.716 16.594l.678-.002c.001.4.002.8.001 1.201-.227-.002-.454-.004-.679-.004v-1.195z"/>
    <path fill="#fecf33" d="M11.909.746c.218-.059.374.136.521.26 3.539 3.545 7.085 7.081 10.624 10.625.212.164.29.486.054.67-3.6 3.602-7.202 7.205-10.806 10.805a.383.383 0 0 1-.602.001c-3.604-3.6-7.206-7.202-10.807-10.806-.24-.184-.158-.504.055-.67C4.486 8.087 8.033 4.551 11.57 1.005c.104-.097.21-.197.34-.259zM9.564 6.322c-.022.917.03 1.838-.022 2.754-.569.822-1.292 1.531-1.872 2.347-.059 2.117-.01 4.241-.024 6.36.611.002 1.22.001 1.831 0 .016-1.885-.024-3.774.018-5.659.545-.856 1.325-1.556 1.885-2.405.038-1.132.004-2.266.013-3.398a372.1 372.1 0 0 0-1.83.001zm5.071.001c-.002 3.822-.002 7.645 0 11.467.611.002 1.22.002 1.83 0 .004-3.822.004-7.645 0-11.467-.61-.002-1.219-.002-1.83 0zm-3.919 6.197l-.001 1.194c.227-.001.454.005.68.006.001-.401 0-.802-.001-1.202l-.678.002zm0 2.037l-.001 1.195c.227 0 .454.001.68.004.001-.401 0-.802-.001-1.202l-.678.004zm0 2.037v1.195c.226 0 .452.001.679.004.001-.401 0-.802-.001-1.201l-.678.002z"/>
</svg>
