<!-- Generated by IcoMoon.io -->
<svg version="1.1" xmlns="http://www.w3.org/2000/svg" width="24" height="24" viewBox="0 0 24 24">
<title>warning--soft-shoulder--g4</title>
<path fill="#ef7c23" d="M11.716 0h0.526c0.283 0.14 0.547 0.32 0.77 0.546 3.235 3.245 6.48 6.481 9.72 9.722 0.448 0.458 0.956 0.876 1.268 1.447v0.532c-0.131 0.253-0.289 0.493-0.49 0.697-3.265 3.256-6.523 6.52-9.785 9.78-0.46 0.449-0.875 0.96-1.444 1.276h-0.539c-0.248-0.133-0.484-0.294-0.686-0.491-3.258-3.264-6.522-6.523-9.782-9.785-0.448-0.458-0.959-0.874-1.274-1.441v-0.54c0.29-0.594 0.818-1.009 1.268-1.474 3.221-3.221 6.444-6.438 9.66-9.662 0.235-0.235 0.5-0.439 0.787-0.607M11.675 0.389c-0.395 0.234-0.679 0.606-1.007 0.919-3.343 3.338-6.685 6.679-10.026 10.020-0.389 0.319-0.449 0.94-0.048 1.276 3.6 3.601 7.201 7.202 10.801 10.804 0.313 0.366 0.895 0.366 1.21 0.002 3.6-3.601 7.2-7.205 10.801-10.806 0.403-0.336 0.342-0.956-0.048-1.276-3.541-3.542-7.086-7.081-10.624-10.626-0.263-0.281-0.68-0.527-1.060-0.313z"></path>
<path fill="#ef7c23" d="M10.957 1.717c0.334-0.325 0.634-0.702 1.043-0.938 0.287 0.162 0.515 0.404 0.745 0.636 3.488 3.545 7.078 6.994 10.517 10.584-3.54 3.653-7.193 7.196-10.763 10.82-0.19 0.194-0.493 0.535-0.749 0.233-3.588-3.571-7.16-7.16-10.744-10.738-0.228-0.167-0.24-0.464-0.008-0.635 3.314-3.325 6.641-6.64 9.959-9.962M8.59 5.578c-0.332 0.996-0.652 1.996-0.982 2.993-0.077 0.289-0.306 0.487-0.516 0.683 0.040 1.024 0.1 2.047 0.149 3.070-0.103 0.006-0.312 0.019-0.416 0.025 0 0.34 0.001 0.679 0.001 1.019 0.641 0.001 1.282 0.002 1.922 0 0.001 0.508 0.001 1.014 0.002 1.52 0.522 0.001 1.045 0.001 1.567 0 0.001-0.485 0.001-0.97 0.004-1.454 1.163-0.006 2.326 0.012 3.49 0.007 0.005 0.482 0.011 0.965 0.016 1.447 0.53 0.001 1.062 0.001 1.592 0 0.001-0.506 0.001-1.013 0.001-1.519 0.617 0.001 1.234 0 1.85 0 0.001-0.332 0.001-0.665 0.004-0.997-0.096-0.016-0.289-0.044-0.385-0.060-0.102-1.264 0.497-2.695-0.299-3.81-0.367-0.956-0.622-1.952-0.949-2.923-2.351-0.002-4.7-0.002-7.051 0M6.107 15.289c-0.017 0.426-0.011 0.852-0.006 1.278 3.976-0.007 7.951-0.043 11.927-0.032-0.002-0.418-0.007-0.835-0.020-1.254-0.384 0.128-0.624 0.442-0.746 0.815-0.066-0.001-0.196-0.006-0.262-0.008-0.14-0.302-0.274-0.743-0.684-0.74-0.44-0.038-0.598 0.427-0.745 0.749-0.121-0.002-0.242-0.005-0.362-0.007-0.138-0.307-0.277-0.751-0.694-0.742-0.442-0.032-0.556 0.455-0.762 0.738-0.379-0.040-0.34-0.738-0.794-0.73-0.476-0.067-0.666 0.427-0.817 0.778-0.077-0.006-0.232-0.017-0.308-0.023-0.146-0.295-0.275-0.725-0.673-0.738-0.498-0.029-0.65 0.556-0.94 0.851-0.173-0.324-0.287-0.838-0.74-0.851-0.442-0.044-0.604 0.425-0.757 0.743-0.079 0.001-0.239 0.005-0.319 0.006-0.143-0.349-0.354-0.844-0.824-0.74-0.458 0.002-0.406 0.76-0.811 0.72-0.187-0.296-0.364-0.607-0.66-0.811z"></path>
<path fill="#ef7c23" d="M9.164 6.265c1.912-0.002 3.824-0.001 5.737-0.001 0.214 1.015 0.425 2.030 0.636 3.046-1.182 0.001-2.363 0.011-3.544-0.006-0.281-0.407-0.697-0.684-1.186-0.775 0.194-0.305 0.539-0.664 0.308-1.043-0.212-0.443-0.912-0.445-1.13-0.005-0.228 0.372 0.089 0.744 0.262 1.063-0.653 0.028-1.099 0.509-1.601 0.856 0.089-1.057 0.353-2.088 0.517-3.134z"></path>
<path fill="#000" d="M11.675 0.389c0.379-0.214 0.797 0.032 1.060 0.313 3.538 3.545 7.082 7.084 10.624 10.626 0.39 0.319 0.451 0.94 0.048 1.276-3.601 3.601-7.201 7.205-10.801 10.806-0.314 0.364-0.896 0.364-1.21-0.002-3.6-3.601-7.201-7.202-10.801-10.804-0.401-0.336-0.341-0.956 0.048-1.276 3.341-3.341 6.683-6.682 10.026-10.020 0.328-0.313 0.612-0.685 1.007-0.919M10.957 1.717c-3.318 3.323-6.644 6.637-9.959 9.962-0.232 0.17-0.22 0.468 0.008 0.635 3.583 3.577 7.156 7.166 10.744 10.738 0.256 0.302 0.559-0.038 0.749-0.233 3.57-3.624 7.223-7.168 10.763-10.82-3.439-3.59-7.028-7.039-10.517-10.584-0.23-0.232-0.458-0.474-0.745-0.636-0.409 0.236-0.709 0.613-1.043 0.938z"></path>
<path fill="#000" d="M8.59 5.578c2.351-0.002 4.7-0.002 7.051 0 0.328 0.971 0.582 1.967 0.949 2.923 0.796 1.115 0.197 2.546 0.299 3.81 0.096 0.016 0.289 0.044 0.385 0.060-0.002 0.332-0.002 0.665-0.004 0.997-0.617 0-1.234 0.001-1.85 0 0 0.506 0 1.013-0.001 1.519-0.53 0.001-1.062 0.001-1.592 0-0.005-0.482-0.011-0.965-0.016-1.447-1.164 0.005-2.327-0.013-3.49-0.007-0.002 0.485-0.002 0.97-0.004 1.454-0.522 0.001-1.045 0.001-1.567 0-0.001-0.506-0.001-1.013-0.002-1.52-0.641 0.002-1.282 0.001-1.922 0 0-0.34-0.001-0.679-0.001-1.019 0.104-0.006 0.313-0.019 0.416-0.025-0.049-1.022-0.109-2.046-0.149-3.070 0.21-0.196 0.439-0.394 0.516-0.683 0.33-0.997 0.649-1.997 0.982-2.993M9.164 6.265c-0.164 1.046-0.428 2.077-0.517 3.134 0.502-0.347 0.948-0.828 1.601-0.856-0.173-0.319-0.49-0.691-0.262-1.063 0.218-0.44 0.918-0.438 1.13 0.005 0.23 0.379-0.114 0.738-0.308 1.043 0.488 0.091 0.905 0.368 1.186 0.775 1.181 0.017 2.362 0.007 3.544 0.006-0.211-1.015-0.422-2.030-0.636-3.046-1.913 0-3.826-0.001-5.737 0.001z"></path>
<path fill="#000" d="M6.107 15.289c0.296 0.204 0.473 0.515 0.66 0.811 0.406 0.040 0.353-0.718 0.811-0.72 0.47-0.103 0.682 0.391 0.824 0.74 0.080-0.001 0.24-0.005 0.319-0.006 0.154-0.318 0.316-0.787 0.757-0.743 0.454 0.013 0.568 0.527 0.74 0.851 0.289-0.295 0.442-0.88 0.94-0.851 0.398 0.013 0.527 0.443 0.673 0.738 0.077 0.006 0.232 0.017 0.308 0.023 0.151-0.35 0.341-0.845 0.817-0.778 0.455-0.008 0.415 0.69 0.794 0.73 0.206-0.283 0.32-0.77 0.762-0.738 0.416-0.010 0.556 0.434 0.694 0.742 0.12 0.002 0.241 0.005 0.362 0.007 0.148-0.322 0.305-0.787 0.745-0.749 0.41-0.002 0.544 0.438 0.684 0.74 0.066 0.002 0.196 0.007 0.262 0.008 0.122-0.373 0.362-0.686 0.746-0.815 0.013 0.419 0.018 0.836 0.020 1.254-3.976-0.011-7.951 0.025-11.927 0.032-0.005-0.426-0.011-0.852 0.006-1.278z"></path>
</svg>
