<!-- Generated by IcoMoon.io -->
<svg version="1.1" xmlns="http://www.w3.org/2000/svg" width="18" height="24" viewBox="0 0 18 24">
<title>warning--curve-left--g3</title>
<path fill="#ffd520" d="M0 0h17.975c0 8 0 16 0 24h-17.975v-24M0.503 0.503c-0.003 7.672-0.005 15.344 0.001 23.017 5.678-0.009 11.358 0.028 17.036-0.019-0.010-7.664-0.004-15.329-0.003-22.994-5.678-0.013-11.356-0.006-17.034-0.004z"></path>
<path fill="#ffd520" d="M1.005 1.004c5.343-0.002 10.687-0.011 16.030 0.004 0.001 7.331-0.006 14.661 0.004 21.991-5.343 0.050-10.69 0.011-16.034 0.020-0.006-7.339-0.006-14.676 0-22.015M4.32 4.596c0.601 1.874 1.196 3.752 1.863 5.603 0.129 0.354 0.672 0.368 0.832 0.031 0.241-0.532 0.407-1.096 0.631-1.635 1.815 0.682 2.983 2.552 3.070 4.454 0.058 2.161-0.006 4.325 0.033 6.487 0.79-0.004 1.58 0.001 2.37-0.003-0.001-2.261 0.016-4.525-0.008-6.786-0.079-2.618-1.799-4.97-4.048-6.208 0.481-0.42 1.003-0.792 1.474-1.222 0.252-0.264 0.058-0.748-0.304-0.764-1.97-0.028-3.942 0.012-5.913 0.043z"></path>
<path fill="#9c8214" opacity="0.61" d="M17.975 0h0.1v24h-0.1c0-8 0-16 0-24z"></path>
<path fill="#000" d="M0.503 0.503c5.678-0.002 11.356-0.009 17.034 0.004-0.001 7.665-0.007 15.33 0.003 22.994-5.678 0.047-11.358 0.010-17.036 0.019-0.006-7.673-0.004-15.345-0.001-23.017M1.005 1.004c-0.006 7.339-0.006 14.676 0 22.015 5.344-0.009 10.691 0.030 16.034-0.020-0.010-7.33-0.003-14.66-0.004-21.991-5.343-0.015-10.687-0.006-16.030-0.004z"></path>
<path fill="#000" d="M4.32 4.596c1.97-0.031 3.942-0.071 5.913-0.043 0.363 0.016 0.556 0.5 0.304 0.764-0.471 0.43-0.993 0.802-1.474 1.222 2.249 1.238 3.969 3.59 4.048 6.208 0.024 2.261 0.007 4.525 0.008 6.786-0.79 0.004-1.58-0.001-2.37 0.003-0.039-2.162 0.025-4.326-0.033-6.487-0.086-1.902-1.255-3.772-3.070-4.454-0.224 0.539-0.39 1.103-0.631 1.635-0.161 0.336-0.704 0.323-0.832-0.031-0.667-1.852-1.261-3.73-1.863-5.603z"></path>
</svg>
