<!-- Generated by IcoMoon.io -->
<svg version="1.1" xmlns="http://www.w3.org/2000/svg" width="24" height="24" viewBox="0 0 24 24">
<title>warning--bus-stop-ahead--g1</title>
<path fill="#ffd520" d="M11.717 0h0.527c0.258 0.127 0.503 0.283 0.708 0.487 3.277 3.283 6.56 6.562 9.84 9.841 0.428 0.439 0.918 0.838 1.208 1.388v0.53c-0.128 0.256-0.287 0.498-0.491 0.7-3.287 3.274-6.562 6.56-9.845 9.839-0.439 0.427-0.834 0.919-1.384 1.214h-0.538c-0.252-0.13-0.488-0.292-0.689-0.492-3.275-3.286-6.56-6.562-9.84-9.844-0.427-0.439-0.919-0.834-1.214-1.384v-0.536c0.254-0.548 0.736-0.932 1.148-1.356 3.281-3.28 6.563-6.558 9.841-9.841 0.216-0.214 0.463-0.395 0.727-0.547M11.67 0.389c-0.346 0.202-0.596 0.524-0.883 0.799-3.4 3.402-6.808 6.794-10.202 10.202-0.358 0.316-0.359 0.906 0.010 1.214 3.6 3.6 7.201 7.201 10.801 10.802 0.308 0.367 0.899 0.367 1.211 0.002 3.599-3.602 7.199-7.205 10.8-10.805 0.37-0.308 0.368-0.899 0.010-1.214-3.554-3.568-7.126-7.121-10.681-10.688-0.26-0.287-0.683-0.524-1.064-0.313z"></path>
<path fill="#ffd520" d="M11.815 0.89c0.194-0.221 0.409 0.036 0.565 0.167 3.342 3.34 6.68 6.68 10.024 10.019 0.283 0.296 0.626 0.552 0.815 0.924-0.187 0.338-0.5 0.58-0.766 0.854-3.402 3.396-6.794 6.803-10.2 10.195-0.155 0.211-0.432 0.128-0.57-0.053-3.571-3.587-7.162-7.158-10.733-10.745-0.322-0.253 0.025-0.565 0.222-0.758 3.56-3.522 7.066-7.103 10.643-10.603M9.347 8.617c-0.307 0.062-0.69 0.247-0.667 0.618-0.017 1.91 0 3.823-0.006 5.735 0.248-0.004 0.496-0.006 0.743-0.010-0.007 0.229 0.012 0.46 0.006 0.69-1.014-0.006-2.028 0.001-3.042-0.005-0.002 0.086-0.007 0.258-0.010 0.343 3.752 0.006 7.504 0.005 11.255 0.001 0-0.092-0.001-0.275-0.002-0.366-1.063-0.002-2.126 0.007-3.19-0.007 0.006-0.226 0.012-0.451 0.018-0.678 0.21 0.002 0.421 0.005 0.631 0.007-0.004-1.944 0.011-3.888-0.005-5.831 0.028-0.409-0.487-0.437-0.757-0.568l-0.011-0.052c-0.023 0.010-0.067 0.026-0.089 0.035-1.619-0.192-3.269-0.217-4.874 0.086M7.022 10.145c-0.444 0.246-0.12 0.756 0.283 0.797-0.474 0.503-0.696 1.28-1.49 1.372-0.004 0.074-0.012 0.223-0.016 0.298 0.341-0.108 0.682-0.215 1.030-0.296 0.078 1.040-0.36 2.035-0.246 3.078 0.088 0 0.262-0.002 0.349-0.004 0.008-0.566 0.035-1.139 0.18-1.691 0.232 0.578 0.128 1.482 0.802 1.754-0.128-0.6-0.245-1.204-0.308-1.814 0.1-0.072 0.199-0.144 0.299-0.215-0.15-0.809 0.718-2.186-0.436-2.515 0.496-0.318 0.076-1.072-0.446-0.763M16.415 11.033c-0.505 0.274-0.455 0.914-0.598 1.397-0.066 0.035-0.196 0.103-0.26 0.137-0.052 0.167-0.104 0.335-0.155 0.503 0.199 0.043 0.4 0.088 0.6 0.132-0.059 0.337-0.121 0.673-0.209 1.004 0.070 0.028 0.209 0.084 0.277 0.112-0.094 0.371-0.179 0.743-0.254 1.117 0.086 0 0.259 0.001 0.346 0.001 0.091-0.419 0.173-0.84 0.288-1.253 0.348 0.318 0.235 0.826 0.282 1.246 0.077 0.004 0.23 0.012 0.307 0.016 0.001-0.386-0.008-0.773-0.036-1.158 0.083-0.017 0.246-0.049 0.328-0.065-0.174-0.546-0.28-1.111-0.3-1.685 0.251 0.119 0.502 0.24 0.75 0.364 0.040-0.072 0.119-0.216 0.158-0.288-0.338-0.217-0.793-0.414-0.86-0.863-0.048-0.292-0.145-0.574-0.421-0.721 0.313-0.181 0.332-0.736-0.097-0.76-0.446-0.016-0.455 0.559-0.145 0.764z"></path>
<path fill="#ffd520" d="M9.077 9.697c0.518-0.002 1.036-0.004 1.554 0.006-0.002 0.467-0.002 0.935-0.002 1.402-0.518 0-1.037 0.001-1.555-0.007 0.002-0.467 0.002-0.934 0.004-1.4z"></path>
<path fill="#ffd520" d="M10.92 9.697c0.672-0.002 1.344-0.002 2.016 0 0 0.469 0 0.938-0.001 1.408-0.671-0.001-1.342-0.002-2.011 0.001-0.006-0.469-0.006-0.94-0.004-1.409z"></path>
<path fill="#ffd520" d="M13.202 9.696c0.137 0.013 0.274 0.024 0.412 0.035 0.234 0.013 0.469 0.012 0.703-0.004 0.145-0.011 0.292-0.023 0.438-0.034 0 0.47 0 0.941-0.001 1.411-0.517-0.001-1.033-0.001-1.55 0-0.001-0.469-0.001-0.94-0.001-1.409z"></path>
<path fill="#ffd520" d="M10.202 14.953c1.146-0.002 2.292-0.002 3.439 0 0 0.228 0 0.457-0.001 0.685-1.146 0.002-2.292 0.002-3.438 0 0-0.228 0-0.457 0-0.685z"></path>
<path fill="#000" d="M11.67 0.389c0.382-0.211 0.804 0.026 1.064 0.313 3.556 3.568 7.127 7.121 10.681 10.688 0.359 0.316 0.36 0.906-0.010 1.214-3.601 3.6-7.201 7.202-10.8 10.805-0.312 0.365-0.902 0.365-1.211-0.002-3.6-3.601-7.201-7.202-10.801-10.802-0.368-0.308-0.367-0.899-0.010-1.214 3.395-3.408 6.803-6.8 10.202-10.202 0.287-0.275 0.538-0.598 0.883-0.799M11.815 0.89c-3.577 3.5-7.082 7.081-10.643 10.603-0.197 0.193-0.544 0.505-0.222 0.758 3.571 3.587 7.162 7.158 10.733 10.745 0.138 0.181 0.415 0.264 0.57 0.053 3.406-3.392 6.798-6.799 10.2-10.195 0.265-0.275 0.578-0.516 0.766-0.854-0.188-0.372-0.532-0.628-0.815-0.924-3.343-3.338-6.682-6.679-10.024-10.019-0.156-0.131-0.371-0.388-0.565-0.167z"></path>
<path fill="#000" d="M9.347 8.617c1.606-0.304 3.256-0.278 4.874-0.086-0.306 0.116-0.601 0.257-0.901 0.388 0.074 0.278 0.162 0.554 0.294 0.812-0.138-0.011-0.275-0.022-0.412-0.035 0 0.469 0 0.94 0.001 1.409 0.517-0.001 1.033-0.001 1.55 0 0.001-0.47 0.001-0.941 0.001-1.411-0.146 0.011-0.293 0.023-0.438 0.034 0.131-0.384 0.127-0.793 0.004-1.18 0.27 0.131 0.785 0.158 0.757 0.568 0.016 1.943 0.001 3.887 0.005 5.831-0.21-0.002-0.421-0.005-0.631-0.007-0.006 0.227-0.012 0.452-0.018 0.678 1.063 0.014 2.126 0.005 3.19 0.007 0.001 0.091 0.002 0.274 0.002 0.366-3.751 0.004-7.502 0.005-11.255-0.001 0.002-0.085 0.007-0.257 0.010-0.343 1.014 0.006 2.028-0.001 3.042 0.005 0.006-0.23-0.013-0.461-0.006-0.69-0.247 0.004-0.494 0.006-0.743 0.010 0.006-1.912-0.011-3.824 0.006-5.735-0.023-0.371 0.36-0.556 0.667-0.618M9.032 9.361c0.342 0.016 0.685 0.020 1.027 0.019 0-0.108 0-0.325 0-0.433-0.389 0.006-0.822 0.023-1.027 0.414M9.077 9.697c-0.001 0.467-0.001 0.934-0.004 1.4 0.518 0.008 1.037 0.007 1.555 0.007 0-0.467 0-0.935 0.002-1.402-0.518-0.010-1.036-0.008-1.554-0.006M10.92 9.697c-0.002 0.469-0.002 0.94 0.004 1.409 0.67-0.004 1.34-0.002 2.011-0.001 0.001-0.469 0.001-0.938 0.001-1.408-0.672-0.002-1.344-0.002-2.016 0M10.202 14.953c0 0.228 0 0.457 0 0.685 1.146 0.002 2.292 0.002 3.438 0 0.001-0.228 0.001-0.457 0.001-0.685-1.147-0.002-2.293-0.002-3.439 0z"></path>
<path fill="#000" d="M7.022 10.145c0.522-0.308 0.942 0.445 0.446 0.763 1.153 0.329 0.286 1.706 0.436 2.515-0.1 0.071-0.199 0.143-0.299 0.215 0.064 0.611 0.18 1.214 0.308 1.814-0.673-0.272-0.57-1.176-0.802-1.754-0.145 0.552-0.172 1.124-0.18 1.691-0.088 0.001-0.262 0.004-0.349 0.004-0.114-1.043 0.324-2.038 0.246-3.078-0.348 0.082-0.689 0.188-1.030 0.296 0.004-0.074 0.012-0.223 0.016-0.298 0.794-0.091 1.016-0.869 1.49-1.372-0.403-0.041-0.727-0.551-0.283-0.797z"></path>
<path fill="#000" d="M16.415 11.033c-0.31-0.205-0.301-0.78 0.145-0.764 0.43 0.024 0.41 0.578 0.097 0.76 0.276 0.148 0.373 0.43 0.421 0.721 0.067 0.449 0.522 0.646 0.86 0.863-0.040 0.072-0.119 0.216-0.158 0.288-0.248-0.124-0.499-0.245-0.75-0.364 0.020 0.574 0.126 1.139 0.3 1.685-0.082 0.016-0.245 0.048-0.328 0.065 0.028 0.385 0.037 0.772 0.036 1.158-0.077-0.004-0.23-0.012-0.307-0.016-0.047-0.42 0.066-0.928-0.282-1.246-0.115 0.413-0.197 0.834-0.288 1.253-0.086 0-0.259-0.001-0.346-0.001 0.076-0.374 0.161-0.746 0.254-1.117-0.068-0.028-0.208-0.084-0.277-0.112 0.088-0.331 0.15-0.667 0.209-1.004-0.2-0.044-0.401-0.089-0.6-0.132 0.050-0.168 0.103-0.336 0.155-0.503 0.065-0.034 0.194-0.102 0.26-0.137 0.143-0.482 0.092-1.123 0.598-1.397z"></path>
<path fill="#c0111e" d="M14.221 8.531c0.022-0.008 0.066-0.025 0.089-0.035l0.011 0.052c0.124 0.386 0.127 0.796-0.004 1.18-0.234 0.016-0.469 0.017-0.703 0.004-0.132-0.258-0.22-0.534-0.294-0.812 0.3-0.131 0.595-0.271 0.901-0.388z"></path>
<path fill="#d7581f" d="M9.032 9.361c0.205-0.391 0.638-0.408 1.027-0.414 0 0.108 0 0.325 0 0.433-0.342 0.001-0.685-0.004-1.027-0.019z"></path>
</svg>
