<!-- Generated by IcoMoon.io -->
<svg version="1.1" xmlns="http://www.w3.org/2000/svg" width="27" height="24" viewBox="0 0 27 24">
<title>warning--low-flying-aircraft--g2</title>
<path fill="#ed171f" d="M13.385 0h0.624c0.327 0.141 0.628 0.36 0.802 0.679 3.971 6.864 7.944 13.726 11.915 20.59 0.238 0.41 0.493 0.813 0.674 1.252v0.52c-0.135 0.426-0.434 0.787-0.852 0.959h-25.705c-0.4-0.158-0.688-0.493-0.843-0.887v-0.618c0.189-0.427 0.438-0.822 0.67-1.226 3.955-6.845 7.912-13.689 11.865-20.535 0.18-0.345 0.494-0.59 0.85-0.734M4.159 21.084c6.356 0.004 12.712 0.004 19.068 0-3.173-5.492-6.349-10.983-9.534-16.469-3.185 5.486-6.36 10.977-9.534 16.469z"></path>
<path fill="#fff" d="M4.159 21.084c3.174-5.492 6.349-10.983 9.534-16.469 3.185 5.486 6.361 10.977 9.534 16.469-6.356 0.004-12.712 0.004-19.068 0M8.737 13.849c-0.22 0.148-0.099 0.541 0.174 0.517 2.758 0.011 5.518 0.014 8.276-0.002 0.346 0.012 0.353-0.562 0.011-0.565-2.665-0.031-5.333-0.001-8-0.015-0.152 0.014-0.325-0.022-0.461 0.065M18.334 14.442c-0.342 0.331-0.457 0.868-0.84 1.145-0.865 0.043-1.734 0.015-2.601 0.014-0.393 0.008-0.432-0.506-0.715-0.687-0.247-0.070-0.508-0.035-0.76-0.038-0.016-0.116-0.031-0.233-0.047-0.349-0.233-0.004-0.466-0.005-0.698-0.005-0.015 0.114-0.030 0.228-0.044 0.342-0.582-0.116-0.955 0.334-1.257 0.753-0.516 0.028-1.123-0.083-1.525 0.327-0.764 0.738-1.594 1.414-2.308 2.199-0.397 0.553 0.178 1.227 0.779 1.204 1.762 0.017 3.525-0.001 5.287 0.008 0.165-0.009 0.396 0.019 0.479-0.164 0.262-0.533 0.353-1.185 0.811-1.598 0.777-0.399 1.615-0.662 2.425-0.983 0.498-0.254 0.905 0.627 1.376 0.285 0.203-0.68 0.269-1.4 0.402-2.097 0.118-0.445-0.484-0.478-0.764-0.356M8.935 19.941c-0.214 0.183-0.002 0.538 0.261 0.471 1.57-0.001 3.141 0.011 4.711-0.006 0.4-0.006 0.28-0.649-0.104-0.543-1.616 0.045-3.284-0.108-4.868 0.078z"></path>
<path fill="#fff" d="M10.129 16.438c0.273-0.143 0.722-0.011 0.68 0.356-0.032 0.362 0.156 0.888-0.222 1.114-0.488 0.083-0.994 0.031-1.489 0.031-0.256 0.020-0.353-0.347-0.148-0.48 0.385-0.348 0.736-0.748 1.179-1.021z"></path>
<path fill="#fff" d="M11.717 16.431c0.218-0.003 0.435-0.002 0.653 0.004 0.028 0.374 0.026 0.75-0.003 1.124-0.219 0.001-0.439-0.001-0.658-0.008-0.026-0.373-0.023-0.748 0.008-1.12z"></path>
<path fill="#fff" d="M13.081 16.425c0.222 0.003 0.445 0.007 0.667 0.015 0.013 0.369 0.011 0.739-0.002 1.108-0.218-0.019-0.479 0.068-0.669-0.051-0.044-0.356-0.011-0.715 0.004-1.072z"></path>
<path fill="#000" d="M8.737 13.849c0.136-0.087 0.309-0.051 0.461-0.065 2.667 0.014 5.335-0.016 8 0.015 0.342 0.003 0.335 0.577-0.011 0.565-2.758 0.016-5.518 0.013-8.276 0.002-0.273 0.024-0.394-0.369-0.174-0.517z"></path>
<path fill="#000" d="M18.334 14.442c0.28-0.122 0.882-0.089 0.764 0.356-0.133 0.697-0.199 1.417-0.402 2.097-0.471 0.342-0.878-0.539-1.376-0.285-0.81 0.321-1.648 0.584-2.425 0.983-0.458 0.413-0.549 1.065-0.811 1.598-0.083 0.183-0.314 0.155-0.479 0.164-1.762-0.009-3.525 0.009-5.287-0.008-0.601 0.023-1.176-0.651-0.779-1.204 0.714-0.785 1.544-1.461 2.308-2.199 0.402-0.41 1.009-0.299 1.525-0.327 0.302-0.419 0.675-0.869 1.257-0.753 0.014-0.114 0.029-0.228 0.044-0.342 0.232 0 0.465 0.001 0.698 0.005 0.016 0.116 0.031 0.233 0.047 0.349 0.252 0.003 0.513-0.032 0.76 0.038 0.283 0.181 0.322 0.695 0.715 0.687 0.867 0.001 1.736 0.029 2.601-0.014 0.383-0.277 0.498-0.814 0.84-1.145M10.129 16.438c-0.443 0.273-0.794 0.673-1.179 1.021-0.205 0.133-0.108 0.5 0.148 0.48 0.495 0 1.001 0.052 1.489-0.031 0.378-0.226 0.19-0.752 0.222-1.114 0.042-0.367-0.407-0.499-0.68-0.356M11.717 16.431c-0.031 0.372-0.034 0.747-0.008 1.12 0.219 0.007 0.439 0.009 0.658 0.008 0.029-0.374 0.031-0.75 0.003-1.124-0.218-0.006-0.435-0.007-0.653-0.004M13.081 16.425c-0.015 0.357-0.048 0.716-0.004 1.072 0.19 0.119 0.451 0.032 0.669 0.051 0.013-0.369 0.015-0.739 0.002-1.108-0.222-0.008-0.445-0.012-0.667-0.015z"></path>
<path fill="#000" d="M8.935 19.941c1.584-0.186 3.252-0.033 4.868-0.078 0.384-0.106 0.504 0.537 0.104 0.543-1.57 0.017-3.141 0.005-4.711 0.006-0.263 0.067-0.475-0.288-0.261-0.471z"></path>
</svg>
