<!-- Generated by IcoMoon.io -->
<svg version="1.1" xmlns="http://www.w3.org/2000/svg" width="24" height="24" viewBox="0 0 24 24">
<title>warning--double-reverse-curve-right--g1</title>
<path fill="#231f20" d="M11.914 0h0.572c0.166 0.082 0.327 0.182 0.459 0.313 3.68 3.693 7.378 7.368 11.054 11.065v0.388c-0.174-0.272-0.421-0.484-0.646-0.711-3.537-3.536-7.071-7.074-10.61-10.608-0.306-0.331-0.851-0.331-1.156 0.001-3.66 3.656-7.317 7.315-10.974 10.973-0.347 0.303-0.525 0.898-0.167 1.258 3.778 3.772 7.546 7.553 11.328 11.321h-0.332c-3.705-3.689-7.394-7.396-11.096-11.088-0.191-0.189-0.276-0.451-0.346-0.703v-0.156c0.074-0.354 0.297-0.646 0.546-0.898 3.603-3.601 7.205-7.204 10.807-10.807 0.16-0.154 0.354-0.268 0.561-0.347z"></path>
<path fill="#231f20" d="M11.653 0.512c0.292-0.292 0.835-0.255 1.095 0.064 3.652 3.664 7.315 7.317 10.971 10.976 0.116 0.124 0.204 0.27 0.281 0.42v0.319c-0.059 0.143-0.136 0.279-0.246 0.389-3.221 3.21-6.43 6.433-9.651 9.643-0.099 0.103-0.172 0.226-0.249 0.346 0.199-0.153 0.376-0.331 0.551-0.51 3.196-3.204 6.403-6.396 9.595-9.603v0.332c-3.699 3.708-7.402 7.415-11.114 11.111h-0.332c0.064-0.050 0.164-0.102 0.161-0.195-0.132-0.032-0.226 0.113-0.308 0.195h-0.365c-0.129-0.054-0.256-0.117-0.357-0.214-3.579-3.581-7.16-7.161-10.74-10.742-0.174-0.179-0.372-0.337-0.516-0.543-0.198-0.306-0.058-0.709 0.181-0.948 3.684-3.678 7.362-7.36 11.043-11.041M11.95 0.745c-3.742 3.738-7.472 7.487-11.224 11.215-0.089 0.427 0.288 0.688 0.55 0.952 3.56 3.564 7.128 7.119 10.682 10.689 0.138 0 0.277 0 0.416 0 3.736-3.748 7.478-7.49 11.226-11.227 0-0.139 0-0.277 0-0.416-3.747-3.731-7.479-7.475-11.219-11.212-0.106-0.123-0.325-0.123-0.431-0.001z"></path>
<path fill="#231f20" d="M10.775 6.1c0.032 0 0.097 0 0.129 0 0.69 1.042 1.408 2.067 2.088 3.115 0.075 0.114 0.066 0.256 0.082 0.387-0.109 0.072-0.219 0.143-0.329 0.213-0.333-0.106-0.668-0.204-1.008-0.283 0.024 0.87-0.036 1.905-0.778 2.49-1.007 0.721-2.043 1.402-3.051 2.121-0.145 0.152-0.229 0.364-0.219 0.575 0.001 0.509 0.004 1.017 0.001 1.526-0.574 0.001-1.148 0.001-1.722 0 0.001-0.597-0.003-1.194-0.001-1.791 0.050-0.804 0.542-1.55 1.23-1.957 0.648-0.459 1.328-0.871 1.966-1.343 0.251-0.185 0.572-0.311 0.715-0.608 0.186-0.32 0.129-0.701 0.133-1.053-0.369 0.124-0.745 0.221-1.12 0.328-0.068-0.030-0.135-0.060-0.202-0.090-0.042-0.147-0.131-0.321-0.019-0.459 0.701-1.056 1.415-2.105 2.106-3.169z"></path>
<path fill="#231f20" d="M16.103 6.147c0.082-0.135 0.19 0.044 0.247 0.11 0.655 0.9 1.223 1.861 1.885 2.757 0.135 0.168 0.216 0.369 0.21 0.586-0.109 0.072-0.219 0.143-0.33 0.213-0.357-0.117-0.723-0.202-1.077-0.325 0.021 0.833 0.083 1.827-0.612 2.429-0.774 0.606-1.614 1.122-2.41 1.701-0.359 0.271-0.894 0.451-0.976 0.953-0.099 0.55-0.021 1.114-0.046 1.671-0.552 0.001-1.105 0.001-1.656 0 0.006-0.662-0.014-1.325 0.007-1.987 0.122-0.82 0.705-1.494 1.41-1.897 0.743-0.546 1.543-1.013 2.277-1.571 0.404-0.287 0.262-0.838 0.279-1.26-0.359 0.068-0.706 0.182-1.053 0.295-0.091-0.052-0.182-0.103-0.274-0.154 0.015-0.154-0.032-0.328 0.055-0.466 0.718-0.998 1.37-2.041 2.064-3.056z"></path>
<path fill="#f4901e" d="M11.588 0.448c0.305-0.332 0.851-0.332 1.156-0.001 3.538 3.534 7.073 7.073 10.61 10.608 0.225 0.227 0.473 0.439 0.646 0.711v0.208c-0.077-0.15-0.165-0.296-0.281-0.42-3.656-3.659-7.319-7.312-10.971-10.976-0.26-0.319-0.803-0.356-1.095-0.064-3.68 3.68-7.359 7.363-11.043 11.041-0.239 0.239-0.379 0.642-0.181 0.948 0.144 0.206 0.342 0.364 0.516 0.543 3.58 3.581 7.162 7.16 10.74 10.742 0.101 0.097 0.229 0.16 0.357 0.214h-0.269c-3.782-3.768-7.55-7.549-11.328-11.321-0.358-0.361-0.18-0.955 0.167-1.258 3.658-3.658 7.315-7.317 10.974-10.973z"></path>
<path fill="#f4901e" d="M11.95 0.745c0.106-0.122 0.325-0.122 0.431 0.001 3.74 3.737 7.472 7.482 11.219 11.212 0 0.139 0 0.277 0 0.416-3.748 3.737-7.49 7.478-11.226 11.227-0.139 0-0.278 0-0.416 0-3.554-3.57-7.122-7.124-10.682-10.689-0.262-0.264-0.638-0.525-0.55-0.952 3.751-3.728 7.482-7.477 11.224-11.215M10.775 6.1c-0.69 1.064-1.404 2.113-2.106 3.169-0.112 0.138-0.023 0.312 0.019 0.459 0.067 0.030 0.135 0.060 0.202 0.090 0.375-0.106 0.751-0.204 1.12-0.328-0.005 0.353 0.052 0.733-0.133 1.053-0.143 0.297-0.463 0.423-0.715 0.608-0.638 0.471-1.319 0.883-1.966 1.343-0.688 0.407-1.18 1.154-1.23 1.957-0.003 0.597 0.001 1.195 0.001 1.791 0.574 0.001 1.148 0.001 1.722 0 0.003-0.508-0.001-1.017-0.001-1.526-0.009-0.211 0.075-0.423 0.219-0.575 1.008-0.719 2.044-1.4 3.051-2.121 0.742-0.585 0.802-1.62 0.778-2.49 0.34 0.079 0.676 0.177 1.008 0.283 0.11-0.070 0.22-0.141 0.329-0.213-0.016-0.131-0.007-0.272-0.082-0.387-0.681-1.048-1.398-2.073-2.088-3.115-0.032 0-0.096 0-0.129 0M16.103 6.147c-0.694 1.014-1.346 2.058-2.064 3.056-0.087 0.139-0.040 0.312-0.055 0.466 0.091 0.051 0.183 0.101 0.274 0.154 0.347-0.113 0.694-0.227 1.053-0.295-0.017 0.422 0.125 0.973-0.279 1.26-0.734 0.558-1.533 1.025-2.277 1.571-0.705 0.402-1.288 1.077-1.41 1.897-0.021 0.662-0.001 1.325-0.007 1.987 0.552 0.001 1.104 0.001 1.656 0 0.025-0.556-0.053-1.12 0.046-1.671 0.082-0.502 0.617-0.682 0.976-0.953 0.796-0.578 1.636-1.095 2.41-1.701 0.695-0.603 0.632-1.596 0.612-2.429 0.355 0.123 0.721 0.208 1.077 0.325 0.11-0.070 0.22-0.141 0.33-0.213 0.007-0.217-0.075-0.418-0.21-0.586-0.662-0.896-1.23-1.857-1.885-2.757-0.057-0.066-0.165-0.245-0.247-0.11z"></path>
<path fill="#f4901e" d="M23.754 12.682c0.11-0.11 0.187-0.247 0.246-0.389v0.265c-3.192 3.208-6.4 6.4-9.595 9.603-0.175 0.179-0.352 0.357-0.551 0.51 0.077-0.12 0.15-0.243 0.249-0.346 3.221-3.21 6.43-6.434 9.651-9.643z"></path>
<path fill="#f4901e" d="M12.408 24c0.082-0.082 0.176-0.227 0.308-0.195 0.003 0.093-0.097 0.145-0.161 0.195h-0.147z"></path>
</svg>
