<?xml version="1.0" encoding="utf-8"?>
<!-- Generated by IcoMoon.io -->
<!DOCTYPE svg PUBLIC "-//W3C//DTD SVG 1.1//EN" "http://www.w3.org/Graphics/SVG/1.1/DTD/svg11.dtd">
<svg version="1.1" xmlns="http://www.w3.org/2000/svg" xmlns:xlink="http://www.w3.org/1999/xlink" width="24" height="24" viewBox="0 0 24 24">
<path fill="#e22526" d="M12.105 0.008c-6.623 0-11.992 5.369-11.992 11.992s5.369 11.992 11.992 11.992c6.623 0 11.992-5.369 11.992-11.992s-5.369-11.992-11.992-11.992z"></path>
<path fill="#fff" d="M20.726 12c0-4.761-3.86-8.621-8.621-8.621s-8.621 3.86-8.621 8.621c0 4.761 3.86 8.621 8.621 8.621s8.621-3.86 8.621-8.621z"></path>
<path fill="#231f20" d="M10.593 9.584v-1.575h-0.071c-0.817 0-1.184 0.047-1.777 0.213-2.097 0.628-3.518 2.594-3.518 4.88 0 0.936 0.261 1.741 0.699 2.191 0.486 0.509 1.516 0.829 2.582 0.829 1.824 0 3.151-1.007 3.151-2.405 0-1.469-1.327-2.464-3.257-2.464-0.391 0-0.604 0.024-1.173 0.166 0.201-0.379 0.308-0.521 0.616-0.829 0.237-0.225 0.497-0.426 0.794-0.58 0.592-0.332 0.888-0.403 1.836-0.426h0.118z"></path>
<path fill="#fff" d="M10.060 13.694c0-0.497-0.687-0.853-1.646-0.853-0.924 0-1.599 0.355-1.599 0.841 0 0.497 0.699 0.877 1.623 0.877 0.983 0 1.623-0.343 1.623-0.865z"></path>
<path fill="#231f20" d="M12.62 12.036c0 2.487 1.303 4.087 3.328 4.087 0.58 0 1.196-0.178 1.753-0.533 1.019-0.663 1.54-1.848 1.54-3.542 0-0.9-0.154-1.718-0.474-2.393-0.474-1.031-1.623-1.741-2.819-1.741-0.568 0-1.113 0.154-1.599 0.426-1.173 0.687-1.729 1.883-1.729 3.696z"></path>
<path fill="#fff" d="M17.665 12.012c0-1.587-0.64-2.523-1.741-2.523-1.066 0-1.729 0.936-1.729 2.476 0 0.486 0.095 1.078 0.225 1.481 0.213 0.64 0.841 1.102 1.504 1.102 1.090 0 1.741-0.948 1.741-2.535z"></path>
</svg>
