<?xml version="1.0" encoding="utf-8"?>
<!-- Generated by IcoMoon.io -->
<!DOCTYPE svg PUBLIC "-//W3C//DTD SVG 1.1//EN" "http://www.w3.org/Graphics/SVG/1.1/DTD/svg11.dtd">
<svg version="1.1" xmlns="http://www.w3.org/2000/svg" xmlns:xlink="http://www.w3.org/1999/xlink" width="24" height="24" viewBox="0 0 24 24">
<path fill="#000" d="M23.984 21.461c0 1.393-1.13 2.523-2.523 2.523h-18.922c-1.394 0-2.523-1.13-2.523-2.523v-18.922c0-1.393 1.129-2.523 2.523-2.523h18.922c1.393 0 2.523 1.13 2.523 2.523z"></path>
<path fill="#fff" d="M23.827 21.461c0 1.306-1.059 2.365-2.365 2.365h-18.922c-1.307 0-2.365-1.059-2.365-2.365v-18.922c0-1.306 1.059-2.365 2.365-2.365h18.922c1.306 0 2.365 1.059 2.365 2.365z"></path>
<path fill="#c0111e" d="M23.59 12c0 6.401-5.189 11.59-11.59 11.59s-11.59-5.189-11.59-11.59c0-6.401 5.189-11.59 11.59-11.59s11.59 5.189 11.59 11.59z"></path>
<path fill="#fff" d="M2.302 14.365h19.396v-4.731h-19.396v4.731z"></path>
<path fill="#fff" d="M9.353 3.95h0.466l1.344 2.297v-2.297h0.561v3.528h-0.476l-1.344-2.279v2.279h-0.55v-3.528zM13.594 7.545c-0.734 0-1.245-0.537-1.245-1.835 0-1.274 0.469-1.831 1.245-1.831 0.805 0 1.235 0.805 1.235 1.831 0 0.882-0.233 1.835-1.235 1.835zM13.594 6.987c0.444 0 0.66-0.367 0.66-1.277 0-0.833-0.212-1.26-0.66-1.26-0.455 0-0.691 0.349-0.691 1.26 0 0.872 0.25 1.277 0.691 1.277z"></path>
<path fill="#fff" d="M4.943 15.982h2.101v0.586h-1.532v0.902h1.071v0.572h-1.071v1.034h1.668v0.572h-2.236v-3.666zM7.857 15.982h0.484l1.397 2.387v-2.387h0.583v3.666h-0.495l-1.397-2.368v2.368h-0.572v-3.666zM10.918 15.982h2.236v0.539h-0.839v3.127h-0.553v-3.127h-0.844v-0.539zM14.31 16.553v0.899h0.792c0.253 0 0.444-0.25 0.444-0.48s-0.227-0.418-0.466-0.418h-0.77zM13.749 15.982h1.364c0.539 0 0.986 0.484 0.986 1.034 0 0.454-0.238 0.704-0.546 0.902l0.66 1.731h-0.601l-0.594-1.606h-0.707v1.606h-0.561v-3.666zM16.642 15.982h0.682l0.869 1.422 0.876-1.422h0.671l-1.257 2.090v1.577h-0.561v-1.577l-1.28-2.090z"></path>
</svg>
