<?xml version="1.0" encoding="utf-8"?>
<!-- Generated by IcoMoon.io -->
<!DOCTYPE svg PUBLIC "-//W3C//DTD SVG 1.1//EN" "http://www.w3.org/Graphics/SVG/1.1/DTD/svg11.dtd">
<svg version="1.1" xmlns="http://www.w3.org/2000/svg" xmlns:xlink="http://www.w3.org/1999/xlink" width="24" height="24" viewBox="0 0 24 24">
<path fill="#fee011" d="M0.343 12.834l10.828 10.828c0.45 0.45 1.201 0.45 1.659 0l10.829-10.828c0.458-0.458 0.458-1.209 0-1.668l-10.829-10.828c-0.458-0.451-1.209-0.451-1.659 0l-10.828 10.828c-0.458 0.459-0.458 1.21 0 1.668z"></path>
<path fill="#000" d="M11.329 23.474c0.391 0.316 0.856 0.391 1.262 0.068l0.082-0.061 10.814-10.821c0.375-0.443 0.375-0.901 0-1.345l-10.814-10.821c-0.36-0.293-0.773-0.383-1.186-0.12l-0.075 0.061-0.083 0.059-10.814 10.821c-0.376 0.443-0.376 0.894 0 1.337l10.814 10.821z"></path>
<path fill="#fee011" d="M12.126 23.287c0.082-0.022 0.12-0.052 0.195-0.105l10.814-10.814c0.21-0.263 0.21-0.458 0-0.721l-10.814-10.814c-0.211-0.157-0.429-0.15-0.631 0.007l-10.821 10.814c-0.203 0.256-0.203 0.451 0 0.706l10.821 10.814c0.143 0.12 0.256 0.136 0.436 0.113z"></path>
<path fill="#000" d="M4.781 15.522h14.411l-14.411-6.562v6.562zM10.436 11.354c-0.406 0-0.736-0.338-0.736-0.735 0-0.406 0.331-0.744 0.736-0.744s0.735 0.338 0.735 0.744c0 0.397-0.331 0.735-0.735 0.735zM14.874 13.412c-0.406 0-0.736-0.331-0.736-0.735s0.331-0.736 0.736-0.736c0.406 0 0.735 0.331 0.735 0.736s-0.33 0.735-0.735 0.735zM8.829 9.898c0.331-0.541 0.961-1.157 1.712-1.104 0.316-0.451 1.126-0.66 1.405-0.646s0.24-0.015 0.413 0.075l1.908 0.901c0.202 0.127 0.292 0.3 0.329 0.474l0.173 1.223 1.472 0.661c0.203 0.127 0.293 0.406 0.157 0.683l-0.435 0.946-0.181 0.016-0.12-0.068c0.473-1.067-1.089-1.893-1.645-0.766l-2.793-1.261c0.488-1.164-1.119-1.727-1.63-0.767l-0.766-0.367zM12.591 9.792l0.451-0.871-0.856-0.443c-0.338-0.105-0.488-0.061-0.631 0.090l-0.458 0.511 1.495 0.713zM12.847 9.898l1.577 0.751-0.195-1.172-0.947-0.458-0.435 0.879z"></path>
</svg>
