<?xml version="1.0" encoding="utf-8"?>
<!-- Generated by IcoMoon.io -->
<!DOCTYPE svg PUBLIC "-//W3C//DTD SVG 1.1//EN" "http://www.w3.org/Graphics/SVG/1.1/DTD/svg11.dtd">
<svg version="1.1" xmlns="http://www.w3.org/2000/svg" xmlns:xlink="http://www.w3.org/1999/xlink" width="24" height="24" viewBox="0 0 24 24">
<path fill="#fee011" d="M23.653 12.837l-10.815 10.814c-0.463 0.464-1.211 0.464-1.674 0l-10.815-10.814c-0.463-0.463-0.463-1.211 0-1.675l10.815-10.814c0.463-0.463 1.211-0.463 1.674 0l10.815 10.814c0.463 0.464 0.463 1.212 0 1.675z"></path>
<path fill="#000" d="M23.503 12.643l-10.853 10.852c-0.358 0.359-0.935 0.359-1.301 0l-10.853-10.852c-0.358-0.359-0.358-0.942 0-1.302l10.853-10.852c0.366-0.359 0.942-0.359 1.301 0l10.853 10.852c0.358 0.359 0.358 0.942 0 1.302z"></path>
<path fill="#fee011" d="M23.188 12.307l-10.875 10.875c-0.179 0.179-0.449 0.179-0.627 0l-10.875-10.875c-0.18-0.18-0.18-0.449 0-0.629l10.875-10.875c0.179-0.18 0.449-0.18 0.627 0l10.875 10.875c0.18 0.18 0.18 0.449 0 0.629z"></path>
<path fill="#000" d="M15.987 10.107v8.002h-2.588v-6.38c-0.015-0.179-0.157-0.337-0.284-0.321l-3.718-0.016 0.516 1.676c-0.014 0.262-0.224 0.471-0.486 0.471-0.119 0-0.246-0.060-0.299-0.112l-4.883-3.291 4.913-3.321c0.060-0.045 0.164-0.098 0.269-0.098 0.262 0 0.472 0.21 0.486 0.449l-0.516 1.638h5.281c0.68-0.014 1.301 0.531 1.309 1.302z"></path>
</svg>
