<?xml version="1.0" encoding="utf-8"?>
<!-- Generated by IcoMoon.io -->
<!DOCTYPE svg PUBLIC "-//W3C//DTD SVG 1.1//EN" "http://www.w3.org/Graphics/SVG/1.1/DTD/svg11.dtd">
<svg version="1.1" xmlns="http://www.w3.org/2000/svg" xmlns:xlink="http://www.w3.org/1999/xlink" width="24" height="24" viewBox="0 0 24 24">
<path fill="#fee011" d="M0.342 12.829l10.829 10.829c0.456 0.456 1.201 0.456 1.658 0l10.829-10.829c0.456-0.456 0.456-1.201 0-1.658l-10.829-10.829c-0.456-0.456-1.201-0.456-1.658 0l-10.829 10.829c-0.456 0.456-0.456 1.201 0 1.658z"></path>
<path fill="#000" d="M11.333 23.478c0.39 0.312 0.859 0.396 1.261 0.072l0.078-0.066 10.817-10.817c0.372-0.445 0.372-0.901 0-1.345l-10.817-10.817c-0.354-0.294-0.769-0.379-1.183-0.12l-0.156 0.12-10.811 10.817c-0.372 0.445-0.372 0.895 0 1.34l10.811 10.817z"></path>
<path fill="#fee011" d="M12.126 23.291c0.083-0.024 0.12-0.048 0.192-0.103l10.816-10.817c0.204-0.258 0.204-0.456 0-0.715l-10.816-10.811c-0.204-0.162-0.426-0.15-0.631 0l-10.811 10.817c-0.21 0.259-0.21 0.445 0 0.703l10.811 10.817c0.15 0.114 0.259 0.126 0.439 0.109z"></path>
<path fill="#000" d="M7.635 6.395l-0.687 1.246 3.645 2.099-3.688 2.148 0.779 1.154 3.768-2.099v3.081l-2.565 0.006c-1.105 0-2.062 0.964-2.062 2.123s0.958 2.117 2.117 2.117c1.159 0 2.123-0.959 2.123-2.117 0-0.576-0.241-1.113-0.626-1.497h1.013v5.462h1.092c0-1.823 0-3.746 0-5.462h1.019c-0.385 0.385-0.626 0.921-0.626 1.497 0 1.159 0.959 2.117 2.117 2.117s2.123-0.959 2.123-2.117c0-1.159-0.963-2.123-2.068-2.123l-2.565-0.006v-3.081l3.774 2.099 0.773-1.154-3.688-2.148 3.645-2.099-0.681-1.246-3.823 2.148v-0.387h-1.092v0.387zM8.966 15.091c0.571 0 1.031 0.467 1.031 1.037s-0.461 1.031-1.031 1.031-1.031-0.46-1.031-1.031c0-0.571 0.461-1.037 1.031-1.037zM15.036 15.091c0.571 0 1.031 0.467 1.031 1.037s-0.461 1.031-1.031 1.031-1.037-0.46-1.037-1.031c0-0.571 0.467-1.037 1.037-1.037z"></path>
</svg>
