<?xml version="1.0" encoding="utf-8"?>
<!-- Generated by IcoMoon.io -->
<!DOCTYPE svg PUBLIC "-//W3C//DTD SVG 1.1//EN" "http://www.w3.org/Graphics/SVG/1.1/DTD/svg11.dtd">
<svg version="1.1" xmlns="http://www.w3.org/2000/svg" xmlns:xlink="http://www.w3.org/1999/xlink" width="24" height="24" viewBox="0 0 24 24">
<path fill="#fee011" d="M23.645 12.826l-10.823 10.838c-0.477 0.448-1.187 0.448-1.673 0l-10.8-10.838c-0.464-0.441-0.464-1.203 0-1.674l10.8-10.815c0.486-0.448 1.196-0.448 1.673 0l10.823 10.815c0.471 0.471 0.471 1.233 0 1.674z"></path>
<path fill="#000" d="M23.51 12.616l-10.859 10.861c-0.381 0.395-0.942 0.395-1.308 0l-10.845-10.861c-0.374-0.336-0.374-0.934 0-1.278l10.845-10.852c0.366-0.359 0.927-0.359 1.308 0l10.859 10.852c0.345 0.344 0.345 0.941 0 1.278z"></path>
<path fill="#fee011" d="M23.174 12.317l-10.859 10.845c-0.172 0.165-0.464 0.165-0.628 0l-10.889-10.845c-0.187-0.209-0.187-0.47 0-0.657l10.889-10.846c0.164-0.187 0.456-0.187 0.628 0l10.859 10.846c0.179 0.187 0.179 0.448 0 0.657z"></path>
<path fill="#000" d="M10.595 5.366v4.291c0 0.411-0.179 0.822-0.397 1.114l-1.383 1.906c-0.224 0.292-0.374 0.68-0.374 1.084v4.851h2.354v-4.298c0.023-0.411 0.128-0.785 0.322-1.077l0.86-1.249 0.86 1.249c0.194 0.292 0.299 0.666 0.321 1.077v4.298h2.355v-4.851c0-0.404-0.149-0.792-0.374-1.084l-1.383-1.906c-0.216-0.292-0.396-0.703-0.396-1.114v-4.291h-2.765z"></path>
</svg>
