<?xml version="1.0" encoding="utf-8"?>
<!-- Generated by IcoMoon.io -->
<!DOCTYPE svg PUBLIC "-//W3C//DTD SVG 1.1//EN" "http://www.w3.org/Graphics/SVG/1.1/DTD/svg11.dtd">
<svg version="1.1" xmlns="http://www.w3.org/2000/svg" xmlns:xlink="http://www.w3.org/1999/xlink" width="24" height="24" viewBox="0 0 24 24">
<path fill="#fee011" d="M12.832 0.352l10.816 10.816c0.46 0.46 0.46 1.205 0 1.664l-10.816 10.816c-0.46 0.46-1.205 0.46-1.664 0l-10.816-10.816c-0.46-0.46-0.46-1.205 0-1.664l10.816-10.816c0.46-0.46 1.205-0.46 1.664 0z"></path>
<path fill="#000" d="M12.666 0.518l10.816 10.816c0.368 0.368 0.368 0.964 0 1.331l-10.816 10.816c-0.368 0.368-0.964 0.368-1.331 0l-10.816-10.816c-0.368-0.368-0.368-0.964 0-1.331l10.816-10.816c0.368-0.368 0.964-0.368 1.331 0z"></path>
<path fill="#fee011" d="M12.333 0.851l10.816 10.816c0.184 0.184 0.184 0.482 0 0.666l-10.816 10.816c-0.184 0.184-0.482 0.184-0.666 0l-10.816-10.816c-0.184-0.184-0.184-0.482 0-0.666l10.816-10.816c0.184-0.184 0.482-0.184 0.666 0z"></path>
<path fill="#000" d="M9.976 6.169l0.611-0.855c0.041-0.081 0.204-0.081 0.285-0.041l3.502 1.222c0.081 0 0.041 0.122 0.041 0.204v1.018zM8.225 9.223l-0.244 0.733c0 0.081 0 0.204 0.081 0.244l0.366 0.204c0.122 0.041 0.326 0.041 0.366-0.041l0.326-0.855 3.828 1.384-0.244 0.692c0 0.081-0.041 0.244 0.041 0.285l0.529 0.204c0.081 0 0.204-0.041 0.244-0.122l0.285-0.774 0.407 0.122c0.122 0.041 0.244-0.081 0.285-0.163l1.018-1.792c0.122-0.163 0.041-0.651-0.081-0.774-0.122-0.163-0.326-0.407-0.326-0.611l0.081-1.588c0.041-0.163-0.122-0.367-0.285-0.448l-4.072-1.384c-0.163-0.081-0.448-0.122-0.529 0.041l-1.018 1.303c-0.163 0.204-0.407 0.326-0.651 0.366s-0.529 0.285-0.57 0.448l-0.326 1.914c-0.041 0.163-0.041 0.489 0.122 0.529zM11.605 11.431c-0.733-0.407-1.629-0.407-2.443-0.366-1.507 0.122-2.972 0.326-4.398 0.855-0.407 0.122-0.896 0.692-0.733 1.099 0.163 0.57 0.896 0.855 1.466 1.059 0.448 0.122 0.814 0.122 1.262 0.081 0.163-0.081 0.285-0.244 0.407-0.366-0.448-0.081-1.099-0.122-1.507-0.366-0.774-0.366-0.733-0.814-0.407-0.977 2.077-0.896 4.113-0.977 6.352-1.018zM11.971 12.49c0.244 0.081-3.746 1.181-4.113 1.344-0.326 0.163-0.529 0.529-0.489 0.814 0.041 0.326 0.163 0.651 0.57 0.814 0.448 0.163 0.855 0.448 0.814 0.692-0.081 0.204-1.262 0.366-1.547 0.448-0.326 0.081-1.466 0.204-1.466 0.204l1.181 0.489c0 0 1.873-0.407 2.28-0.529s0.489-0.366 0.529-0.611c0.081-0.244-0.204-0.57-0.57-0.774-0.366-0.163-0.977-0.489-1.018-0.733-0.041-0.285 0.529-0.529 1.018-0.652s3.543-1.262 3.543-1.262-0.774-0.244-0.733-0.244zM9.161 14.608c0 0 0.326-0.285 0.692-0.326 0.407-0.082 0.977 0 1.222 0.041 0.285 0.081 6.637 1.059 6.841 1.099 0.204 0 0.733 0.081 0.774 0.407s0.041 0.529-0.366 0.733c-0.407 0.122-1.955 0.651-1.955 0.651l-1.181-0.448c0 0 1.629-0.326 1.873-0.407s0.407-0.122 0.407-0.326c-0.041-0.204-0.204-0.204-0.448-0.244s-7.859-1.181-7.859-1.181z"></path>
</svg>
