<?xml version="1.0" encoding="utf-8"?>
<!-- Generated by IcoMoon.io -->
<!DOCTYPE svg PUBLIC "-//W3C//DTD SVG 1.1//EN" "http://www.w3.org/Graphics/SVG/1.1/DTD/svg11.dtd">
<svg version="1.1" xmlns="http://www.w3.org/2000/svg" xmlns:xlink="http://www.w3.org/1999/xlink" width="24" height="24" viewBox="0 0 24 24">
<path fill="#fee011" d="M23.645 12.826l-10.823 10.838c-0.477 0.448-1.187 0.448-1.673 0l-10.8-10.838c-0.464-0.441-0.464-1.203 0-1.674l10.8-10.815c0.486-0.448 1.196-0.448 1.673 0l10.823 10.815c0.471 0.471 0.471 1.233 0 1.674z"></path>
<path fill="#000" d="M23.51 12.616l-10.859 10.861c-0.381 0.395-0.942 0.395-1.308 0l-10.845-10.861c-0.374-0.336-0.374-0.934 0-1.278l10.845-10.852c0.366-0.359 0.927-0.359 1.308 0l10.859 10.852c0.345 0.344 0.345 0.941 0 1.278z"></path>
<path fill="#fee011" d="M23.174 12.317l-10.859 10.845c-0.172 0.165-0.464 0.165-0.628 0l-10.889-10.845c-0.187-0.209-0.187-0.47 0-0.657l10.889-10.846c0.164-0.187 0.456-0.187 0.628 0l10.859 10.846c0.179 0.187 0.179 0.448 0 0.657z"></path>
<path fill="#000" d="M15.363 11.988v-3.52l0.882-2.347-1.846-0.68-1.099 3.020v7.056l1.099 3.020 1.846-0.681-0.882-2.346v-3.521z"></path>
<path fill="#000" d="M8.561 11.988v-3.52l-0.881-2.347 1.846-0.68 1.099 3.020v7.056l-1.099 3.020-1.846-0.681 0.881-2.346v-3.521z"></path>
</svg>
