<?xml version="1.0" encoding="utf-8"?>
<!-- Generated by IcoMoon.io -->
<!DOCTYPE svg PUBLIC "-//W3C//DTD SVG 1.1//EN" "http://www.w3.org/Graphics/SVG/1.1/DTD/svg11.dtd">
<svg version="1.1" xmlns="http://www.w3.org/2000/svg" xmlns:xlink="http://www.w3.org/1999/xlink" width="24" height="24" viewBox="0 0 24 24">
<path fill="#fee011" d="M12.832 23.648l10.816-10.816c0.46-0.46 0.46-1.205 0-1.664l-10.816-10.816c-0.46-0.46-1.205-0.46-1.664 0l-10.816 10.816c-0.46 0.46-0.46 1.205 0 1.664l10.816 10.816c0.46 0.46 1.205 0.46 1.664 0z"></path>
<path fill="#000" d="M12.666 23.482l10.816-10.816c0.368-0.368 0.368-0.964 0-1.331l-10.816-10.816c-0.368-0.368-0.964-0.368-1.331 0l-10.816 10.816c-0.368 0.368-0.368 0.964 0 1.331l10.816 10.816c0.368 0.368 0.964 0.368 1.331 0z"></path>
<path fill="#fee011" d="M12.333 23.149l10.816-10.816c0.184-0.184 0.184-0.482 0-0.666l-10.816-10.816c-0.184-0.184-0.482-0.184-0.666 0l-10.816 10.816c-0.184 0.184-0.184 0.482 0 0.666l10.816 10.816c0.184 0.184 0.482 0.184 0.666 0z"></path>
<path fill="#000" d="M12.956 8.47h-1.912v-2.589l-1.772 0.379c-0.012 0.003-0.025 0.004-0.037 0.004-0.097 0-0.177-0.079-0.177-0.177 0-0.050 0.021-0.097 0.057-0.13l2.884-2.635 2.884 2.635c0.037 0.033 0.057 0.081 0.057 0.13 0 0.097-0.079 0.177-0.177 0.177-0.012 0-0.025-0.001-0.037-0.004l-1.772-0.379z"></path>
<path fill="#fff" d="M16.413 13.114l-2.585-2.585h-3.655l-2.585 2.585v3.655l2.585 2.585h3.655l2.585-2.585z"></path>
<path fill="#c0111e" d="M13.706 19.060l2.412-2.412v-3.412l-2.412-2.412h-3.412l-2.412 2.412v3.412l2.412 2.412z"></path>
</svg>
