<?xml version="1.0" encoding="utf-8"?>
<!-- Generated by IcoMoon.io -->
<!DOCTYPE svg PUBLIC "-//W3C//DTD SVG 1.1//EN" "http://www.w3.org/Graphics/SVG/1.1/DTD/svg11.dtd">
<svg version="1.1" xmlns="http://www.w3.org/2000/svg" xmlns:xlink="http://www.w3.org/1999/xlink" width="24" height="24" viewBox="0 0 24 24">
<path fill="#fee011" d="M0.343 12.834l10.829 10.828c0.451 0.45 1.201 0.45 1.659 0l10.828-10.828c0.458-0.458 0.458-1.209 0-1.668l-10.828-10.828c-0.458-0.451-1.209-0.451-1.659 0l-10.829 10.828c-0.458 0.459-0.458 1.21 0 1.668z"></path>
<path fill="#000" d="M11.33 23.475c0.39 0.316 0.856 0.391 1.261 0.068l0.083-0.061 10.814-10.821c0.375-0.443 0.375-0.901 0-1.345l-10.814-10.821c-0.361-0.293-0.774-0.383-1.187-0.12l-0.075 0.061-0.082 0.059-10.814 10.821c-0.376 0.443-0.376 0.894 0 1.337l10.814 10.821z"></path>
<path fill="#fee011" d="M12.126 23.287c0.082-0.022 0.12-0.052 0.195-0.105l10.814-10.814c0.211-0.263 0.211-0.458 0-0.72l-10.814-10.814c-0.21-0.157-0.428-0.15-0.631 0.007l-10.821 10.814c-0.202 0.256-0.202 0.451 0 0.706l10.821 10.814c0.143 0.12 0.255 0.136 0.436 0.113z"></path>
<path fill="#000" d="M14.511 15.348v-6.857l-1.242 0.367c-0.007 0-0.052 0.007-0.075 0.007-0.209 0-0.381-0.165-0.381-0.374 0-0.090 0.098-0.247 0.098-0.247l2.505-3.641 2.498 3.641c0.029 0.053 0.097 0.157 0.097 0.247 0 0.209-0.171 0.374-0.381 0.374-0.023 0-0.067-0.007-0.075-0.007l-1.241-0.367v6.857h-1.802zM12.222 22.108l-5.055-5.099 2.094-2.094c1.75-1.75 2.437-3.979 2.437-6.409l-0.007-5.825h0.531v19.427zM7.579 13.239c1.152-1.152 1.78-2.804 1.78-4.449 0-0.105 0-0.202 0.015-0.306l1.264 0.374c0.007 0 0.052 0.007 0.075 0.007 0.21 0 0.381-0.165 0.381-0.374 0-0.090-0.067-0.194-0.096-0.247l-2.498-3.641-2.505 3.641c0 0-0.097 0.157-0.097 0.247 0 0.209 0.172 0.374 0.381 0.374 0.023 0 0.067-0.007 0.075-0.007l1.234-0.374c-0.007 0.066 0.008 0.216 0.008 0.306 0 1.181-0.434 2.377-1.264 3.2l-2.094 2.086 1.248 1.249 2.094-2.086z"></path>
</svg>
