<?xml version="1.0" encoding="utf-8"?>
<!-- Generator: Adobe Illustrator 15.1.0, SVG Export Plug-In . SVG Version: 6.00 Build 0)  -->
<!DOCTYPE svg PUBLIC "-//W3C//DTD SVG 1.1//EN" "http://www.w3.org/Graphics/SVG/1.1/DTD/svg11.dtd">
<svg version="1.1" id="Capa_1" xmlns="http://www.w3.org/2000/svg" xmlns:xlink="http://www.w3.org/1999/xlink" x="0px" y="0px"
	 width="500px" height="500px" viewBox="-0.031 -0.031 500 500" enable-background="new -0.031 -0.031 500 500"
	 xml:space="preserve">
<g>
	
		<radialGradient id="SVGID_1_" cx="370.8699" cy="-1252.4304" r="249.9705" gradientTransform="matrix(1 0 0 1 -120.8999 1502.4004)" gradientUnits="userSpaceOnUse">
		<stop  offset="0" style="stop-color:#FF0A1A"/>
		<stop  offset="0.2371" style="stop-color:#FC0A19"/>
		<stop  offset="0.4364" style="stop-color:#F10916"/>
		<stop  offset="0.6214" style="stop-color:#E00711"/>
		<stop  offset="0.678" style="stop-color:#D9060F"/>
		<stop  offset="0.9512" style="stop-color:#A10000"/>
		<stop  offset="1" style="stop-color:#800000"/>
	</radialGradient>
	<circle fill="url(#SVGID_1_)" cx="249.97" cy="249.97" r="249.97"/>
	
		<radialGradient id="SVGID_2_" cx="248.9031" cy="140.8201" r="158.9894" fx="250.3411" fy="17.0147" gradientTransform="matrix(1 0 0 0.743 0 36.1911)" gradientUnits="userSpaceOnUse">
		<stop  offset="0" style="stop-color:#F2F2F2"/>
		<stop  offset="0.9756" style="stop-color:#F2F2F2;stop-opacity:0.1"/>
		<stop  offset="1" style="stop-color:#F2F2F2;stop-opacity:0"/>
	</radialGradient>
	<path display="none" fill="url(#SVGID_2_)" d="M249.969,307.305c-41.151,0-81.588-18.99-113.863-53.472
		c-29.329-31.334-46.838-70.566-46.838-104.945c0-33.673,17.452-66.991,47.88-91.411c30.539-24.508,70.606-38.006,112.821-38.006
		s82.282,13.498,112.82,38.006c30.429,24.42,47.881,57.738,47.881,91.411c0,34.379-17.51,73.611-46.839,104.945
		C331.557,288.315,291.12,307.305,249.969,307.305z"/>
	<linearGradient id="SVGID_3_" gradientUnits="userSpaceOnUse" x1="249.97" y1="35.4695" x2="249.97" y2="295.4714">
		<stop  offset="0" style="stop-color:#F2F2F2"/>
		<stop  offset="0.4732" style="stop-color:#F2F2F2;stop-opacity:0.2822"/>
		<stop  offset="0.6488" style="stop-color:#F2F2F2;stop-opacity:0"/>
		<stop  offset="0.7854" style="stop-color:#F2F2F2;stop-opacity:0.086"/>
	</linearGradient>
	<path opacity="0.2" fill="url(#SVGID_3_)" enable-background="new    " d="M249.969,29.471
		c77.084,0,147.575,55.674,147.575,119.417c0,63.742-70.491,148.417-147.575,148.417c-77.085,0-147.574-84.675-147.574-148.417
		C102.395,85.145,172.884,29.471,249.969,29.471z"/>
	<linearGradient id="SVGID_4_" gradientUnits="userSpaceOnUse" x1="249.969" y1="36.9021" x2="249.969" y2="293.9918">
		<stop  offset="0" style="stop-color:#F2F2F2"/>
		<stop  offset="0.4732" style="stop-color:#F2F2F2;stop-opacity:0.2822"/>
		<stop  offset="0.6488" style="stop-color:#F2F2F2;stop-opacity:0"/>
		<stop  offset="0.7854" style="stop-color:#F2F2F2;stop-opacity:0.086"/>
	</linearGradient>
	<path opacity="0.2" fill="url(#SVGID_4_)" enable-background="new    " d="M249.969,30.971c76.221,0,146.011,55.05,146.011,118.08
		c0,63.028-69.79,146.754-146.011,146.754c-76.222,0-146.011-83.727-146.011-146.754C103.958,86.022,173.747,30.971,249.969,30.971z
		"/>
	<linearGradient id="SVGID_5_" gradientUnits="userSpaceOnUse" x1="249.969" y1="38.5823" x2="249.969" y2="292.2572">
		<stop  offset="0" style="stop-color:#F2F2F2"/>
		<stop  offset="0.4732" style="stop-color:#F2F2F2;stop-opacity:0.2822"/>
		<stop  offset="0.6488" style="stop-color:#F2F2F2;stop-opacity:0"/>
		<stop  offset="0.7854" style="stop-color:#F2F2F2;stop-opacity:0.086"/>
	</linearGradient>
	<path opacity="0.2" fill="url(#SVGID_5_)" enable-background="new    " d="M249.969,32.73c75.209,0,144.178,54.319,144.178,116.511
		c0,62.191-68.969,144.805-144.178,144.805c-75.209,0-144.178-82.614-144.178-144.805C105.791,87.049,174.76,32.73,249.969,32.73z"
		/>
	<linearGradient id="SVGID_6_" gradientUnits="userSpaceOnUse" x1="249.969" y1="40.4929" x2="249.969" y2="290.2849">
		<stop  offset="0" style="stop-color:#F2F2F2"/>
		<stop  offset="0.4732" style="stop-color:#F2F2F2;stop-opacity:0.2822"/>
		<stop  offset="0.6488" style="stop-color:#F2F2F2;stop-opacity:0"/>
		<stop  offset="0.7854" style="stop-color:#F2F2F2;stop-opacity:0.086"/>
	</linearGradient>
	<path opacity="0.2" fill="url(#SVGID_6_)" enable-background="new    " d="M249.969,34.73c74.355,0,142.634,53.487,142.634,114.728
		c0,61.239-68.278,142.589-142.634,142.589c-74.357,0-142.634-81.35-142.634-142.589C107.336,88.218,175.613,34.73,249.969,34.73z"
		/>
	<linearGradient id="SVGID_7_" gradientUnits="userSpaceOnUse" x1="249.97" y1="42.156" x2="249.97" y2="288.5673">
		<stop  offset="0" style="stop-color:#F2F2F2"/>
		<stop  offset="0.4732" style="stop-color:#F2F2F2;stop-opacity:0.2822"/>
		<stop  offset="0.6488" style="stop-color:#F2F2F2;stop-opacity:0"/>
		<stop  offset="0.7854" style="stop-color:#F2F2F2;stop-opacity:0.086"/>
	</linearGradient>
	<path opacity="0.53" fill="url(#SVGID_7_)" enable-background="new    " d="M249.969,36.471
		c73.055,0,140.279,52.764,140.279,113.175c0,60.411-67.225,140.659-140.279,140.659c-73.056,0-140.278-80.249-140.278-140.659
		C109.691,89.235,176.914,36.471,249.969,36.471z"/>
	
		<radialGradient id="SVGID_8_" cx="248.0608" cy="411.5525" r="59.4186" gradientTransform="matrix(1 0 0 0.6409 0 147.777)" gradientUnits="userSpaceOnUse">
		<stop  offset="0" style="stop-color:#F2F2F2;stop-opacity:0.83"/>
		<stop  offset="0.322" style="stop-color:#F2F2F2;stop-opacity:0.38"/>
		<stop  offset="1" style="stop-color:#F2F2F2;stop-opacity:0"/>
	</radialGradient>
	<ellipse opacity="0.5" fill="url(#SVGID_8_)" enable-background="new    " cx="249.969" cy="309.853" rx="181.391" ry="169.383"/>
	
		<radialGradient id="SVGID_9_" cx="249.5603" cy="381.5544" r="139.5249" gradientTransform="matrix(1 0 0 0.7089 0 111.0807)" gradientUnits="userSpaceOnUse">
		<stop  offset="0" style="stop-color:#F2F2F2"/>
		<stop  offset="0.2439" style="stop-color:#F2F2F2;stop-opacity:0.9171"/>
		<stop  offset="0.4049" style="stop-color:#F2F2F2;stop-opacity:0.781"/>
		<stop  offset="0.639" style="stop-color:#F2F2F2;stop-opacity:0.4993"/>
		<stop  offset="0.8537" style="stop-color:#F2F2F2;stop-opacity:0.2497"/>
		<stop  offset="1" style="stop-color:#F2F2F2;stop-opacity:0"/>
	</radialGradient>
	<ellipse opacity="0.5" fill="url(#SVGID_9_)" enable-background="new    " cx="249.969" cy="309.853" rx="181.391" ry="169.383"/>
	<g>
		<radialGradient id="SVGID_10_" cx="249.4695" cy="307.4695" r="221.009" gradientUnits="userSpaceOnUse">
			<stop  offset="0" style="stop-color:#FFFFFF"/>
			<stop  offset="0.2611" style="stop-color:#F5F5F5"/>
			<stop  offset="0.761" style="stop-color:#E5E5E5"/>
		</radialGradient>
		<path fill="url(#SVGID_10_)" d="M348.378,147.135c5.923,0.062,11.847,0.011,17.771,0.017c0.021,18.156,0.011,36.304,0,54.452
			c-5.923,0.005-11.852,0.013-17.774,0.005C348.378,183.455,348.362,165.295,348.378,147.135 M387.7,208.59
			c16.275-16.799,32.369-33.802,48.63-50.623c4.17,4.404,8.471,8.689,12.557,13.182c-16.093,16.951-32.342,33.733-48.445,50.668
			C396.123,217.482,391.946,212.999,387.7,208.59 M75.994,198.613c4.484-1.074,9.076-1.676,13.679-1.49
			c15.268-0.367,30.099,7.676,39.559,19.999c4.5,5.833,7.788,12.689,9.609,19.927c-6.996,0.027-13.991,0.005-20.986,0.005
			c-3.083-6.4-7.804-12.096-13.964-15.416c-3.396-1.929-7.131-3.212-10.968-3.707c-3.583-0.073-7.248-0.394-10.757,0.551
			c-5.902,1.333-11.388,4.561-15.565,9.111c-5.45,5.343-9.103,12.862-9.426,20.714c-0.7,7.48,0.668,15.32,4.754,21.614
			c3.929,6.028,9.486,11.051,16.066,13.639c11.033,4.252,24.388,1.688,32.838-6.995c2.845-3.004,5.308-6.451,7.098-10.248
			c6.962-0.034,13.926-0.039,20.895,0c-1.725,7.678-5.482,14.792-10.229,20.888c-3.257,3.55-6.452,7.268-10.462,9.911
			c-17.996,12.93-44.128,12.199-61.047-2.419c-5.259-4.667-10.068-10.038-13.372-16.416c-6.09-11.271-7.609-24.819-5.454-37.446
			c1.817-10.702,7.206-20.561,14.632-28.103C59.158,205.934,67.173,200.804,75.994,198.613 M149.5,197.115c6.645,0,13.296,0,19.94,0
			c-0.005,36.553,0.017,73.103-0.01,109.655c-6.645,0.017-13.286-0.012-19.931-0.007C149.5,270.213,149.5,233.668,149.5,197.115
			 M209.755,218.942c3.779-0.798,7.647-0.347,11.468-0.45c4.431,0.4,8.872,1.063,13.086,2.621c4.226,1.53,8.575,3.447,11.534,7.098
			c3.478,4.314,4.709,10.05,4.98,15.551c-0.011,21,0.018,42.006-0.011,63.007c-6.743-0.032-13.489,0.147-20.226-0.09
			c-0.065-2.856,0.053-5.719-0.044-8.57c-5.87,5.28-13.631,7.711-21.24,8.323c-4.802,0.86-9.771,0.085-14.352-1.518
			c-5.896-2.047-10.752-7.165-12.492-13.408c-1.886-6.659-1.492-13.948,0.711-20.467c2.393-6.643,8.16-11.365,14.499-13.521
			c8.12-2.997,16.803-3.459,25.2-5.191c2.905,0,5.777-1.872,6.855-4.718c0.776-3.109,0.103-7.007-2.522-8.981
			c-2.889-1.984-6.419-2.396-9.792-2.497c-3.002,0.095-6.176,0.129-8.834,1.788c-3.454,2.042-5.006,6.103-5.686,9.984
			c-6.677-0.146-13.361,0.01-20.038-0.112c0.831-6.85,2.205-14.162,6.916-19.358C194.702,222.406,202.35,219.539,209.755,218.942
			 M224.452,266.348c-3.945,0.95-7.83,2.177-11.841,2.812c-3.191,0.658-6.549,1.732-8.818,4.304
			c-3.152,3.886-3.384,9.881-0.938,14.206c1.062,1.984,3.17,2.958,5.131,3.667c6.327,1.276,13.274-0.781,17.893-5.518
			c4.737-6.18,3.902-14.55,3.886-21.951C227.903,264.487,226.398,265.979,224.452,266.348 M298.359,221.441
			c4.111-1.052,8.153-2.818,12.471-2.396c0.048,7.097,0.416,14.205,0.274,21.309c-3.674-0.528-7.513-0.956-11.117,0.191
			c-7.778,2.245-14.282,9.399-15.193,17.892c-0.055,1.872-0.539,3.699-0.556,5.578c-0.011,14.257,0.017,28.509,0,42.767
			c-6.628-0.019-13.264,0.05-19.893-0.04c-0.075-28.071-0.017-56.151,0.037-84.227c6.425-0.063,12.844,0.19,19.263,0.439
			c0.01,3.465-0.082,6.934,0.044,10.405C287.445,228.132,292.376,223.611,298.359,221.441 M348.022,219.264
			c2.959-0.31,5.961-0.603,8.941-0.349c17.883,0.236,34.207,14.623,38.471,32.57c3.68,14.668,0.103,31.59-10.543,42.231
			c-6.159,6.935-14.61,11.642-23.574,13.054c-4.321,0.038-8.644,0.017-12.96,0.012c-12.902-1.896-24.113-11.086-30.479-22.723
			c-6.613-12.772-6.64-28.963-0.156-41.798C323.878,230.45,335.093,221.193,348.022,219.264 M349.628,240.055
			c-5.955,1.407-11.025,5.765-14.06,11.221c-4.533,7.946-3.812,18.778,1.843,25.933c5.757,8.645,17.581,11.568,26.619,7.132
			c5.254-2.464,9.265-7.306,11.496-12.784c2.473-6.292,2.025-13.678-0.942-19.7c-3.121-6.091-8.851-10.877-15.458-11.973
			C355.967,239.617,352.76,239.521,349.628,240.055 M409.333,243.223c17.754,0,35.512-0.013,53.271,0.011
			c-0.012,6.153,0.01,12.312-0.007,18.47c-17.752-0.022-35.499,0.039-53.252,0.012C409.316,255.551,409.365,249.386,409.333,243.223
			L409.333,243.223z"/>
	</g>
</g>
</svg>
