<?xml version="1.0" encoding="UTF-8" ?>
<!DOCTYPE svg PUBLIC "-//W3C//DTD SVG 1.1//EN" "http://www.w3.org/Graphics/SVG/1.1/DTD/svg11.dtd">
<svg width="300pt" height="220pt" viewBox="0 0 300 220" version="1.1" xmlns="http://www.w3.org/2000/svg">
<g id="#26823afa">
<path fill="#26823a" stroke="#26823a" stroke-width="0.09375" opacity="0.98" d=" M 234.94 2.79 C 240.84 0.90 247.10 0.33 253.20 1.61 C 248.63 2.09 245.41 6.25 240.33 5.37 C 235.43 9.79 229.73 13.47 225.70 18.75 C 223.43 17.98 222.67 18.52 223.51 20.83 C 216.47 28.36 210.69 36.94 205.67 45.91 C 203.45 51.70 201.38 57.66 197.93 62.85 C 194.71 70.43 190.93 78.15 185.19 84.16 C 183.24 87.80 179.20 89.52 177.08 93.05 C 177.12 91.55 177.32 90.04 177.10 88.54 C 179.19 81.85 181.90 75.36 184.16 68.71 C 184.60 70.12 184.93 71.55 185.29 72.98 C 190.54 69.01 193.85 62.98 197.50 57.58 C 199.25 52.35 203.55 48.34 204.64 42.90 C 209.39 37.72 211.76 30.67 216.01 25.00 C 220.45 16.58 225.58 7.00 235.76 4.74 C 235.56 4.25 235.15 3.27 234.94 2.79 Z" />
</g>
<g id="#31943dfd">
<path fill="#31943d" stroke="#31943d" stroke-width="0.09375" opacity="1.00" d=" M 240.33 5.37 C 245.41 6.25 248.63 2.09 253.20 1.61 C 256.11 2.38 259.96 2.49 261.82 5.11 C 259.77 4.37 257.74 4.57 255.87 5.66 C 250.81 5.33 246.19 8.44 242.17 11.13 C 238.50 14.26 233.83 16.03 230.87 19.95 C 224.60 23.72 218.11 28.04 214.80 34.81 C 213.01 36.89 211.09 39.08 210.76 41.92 C 208.39 45.87 207.14 50.35 205.93 54.76 C 201.97 56.49 202.20 61.89 200.25 65.29 C 194.49 74.86 192.39 86.23 185.70 95.30 C 183.16 95.04 183.29 98.14 181.78 99.37 C 178.65 99.83 176.59 102.53 173.87 103.90 C 172.01 104.01 170.67 102.22 169.03 101.54 C 168.75 101.36 168.18 101.00 167.90 100.82 C 171.54 97.19 174.30 92.83 177.10 88.54 C 177.32 90.04 177.12 91.55 177.08 93.05 C 179.20 89.52 183.24 87.80 185.19 84.16 C 190.93 78.15 194.71 70.43 197.93 62.85 C 201.38 57.66 203.45 51.70 205.67 45.91 C 210.69 36.94 216.47 28.36 223.51 20.83 C 222.67 18.52 223.43 17.98 225.70 18.75 C 229.73 13.47 235.43 9.79 240.33 5.37 Z" />
</g>
<g id="#1e7536f8">
<path fill="#1e7536" stroke="#1e7536" stroke-width="0.09375" opacity="0.97" d=" M 199.55 32.61 C 207.36 19.06 219.41 6.75 234.94 2.79 C 235.15 3.27 235.56 4.25 235.76 4.74 C 225.58 7.00 220.45 16.58 216.01 25.00 C 211.76 30.67 209.39 37.72 204.64 42.90 C 203.55 48.34 199.25 52.35 197.50 57.58 C 193.85 62.98 190.54 69.01 185.29 72.98 C 184.93 71.55 184.60 70.12 184.16 68.71 C 188.32 56.33 192.91 43.91 199.55 32.61 Z" />
</g>
<g id="#42a13dfa">
<path fill="#42a13d" stroke="#42a13d" stroke-width="0.09375" opacity="0.98" d=" M 255.87 5.66 C 257.74 4.57 259.77 4.37 261.82 5.11 C 263.29 8.45 268.25 6.86 270.29 9.71 C 274.66 14.63 280.33 19.60 281.86 26.22 C 275.79 20.23 271.19 12.16 262.91 9.02 C 254.34 7.12 247.13 11.97 240.83 16.87 C 237.38 17.45 234.21 19.00 230.87 19.95 C 233.83 16.03 238.50 14.26 242.17 11.13 C 246.19 8.44 250.81 5.33 255.87 5.66 Z" />
</g>
<g id="#5baa39f7">
<path fill="#5baa39" stroke="#5baa39" stroke-width="0.09375" opacity="0.97" d=" M 240.83 16.87 C 247.13 11.97 254.34 7.12 262.91 9.02 C 271.19 12.16 275.79 20.23 281.86 26.22 C 283.06 29.47 286.19 31.54 287.10 34.95 C 291.31 45.24 294.74 56.05 295.99 67.10 C 291.01 68.23 294.62 63.09 292.38 60.75 C 288.17 47.69 285.16 33.60 276.21 22.77 C 271.58 18.08 266.95 11.27 259.31 12.37 C 253.27 14.44 247.27 16.56 240.83 16.87 Z" />
</g>
<g id="#76b537fe">
<path fill="#76b537" stroke="#76b537" stroke-width="0.09375" opacity="1.00" d=" M 259.31 12.37 C 266.95 11.27 271.58 18.08 276.21 22.77 C 285.16 33.60 288.17 47.69 292.38 60.75 C 294.62 63.09 291.01 68.23 295.99 67.10 C 296.05 69.45 296.37 71.74 296.95 73.98 C 297.02 77.00 296.76 80.10 297.53 83.06 C 297.74 84.68 297.93 86.30 298.23 87.92 C 298.11 90.61 298.04 93.30 298.02 96.00 C 297.89 104.02 297.31 112.00 298.03 120.01 C 297.99 123.33 297.95 126.67 298.01 130.01 C 298.06 132.74 298.14 135.49 298.26 138.23 C 297.77 147.08 295.72 155.75 293.36 164.27 C 291.81 166.52 288.52 163.90 287.42 166.38 C 285.43 170.60 279.93 169.72 276.05 170.02 C 276.16 150.68 275.26 131.27 277.02 112.00 C 275.83 102.74 276.81 93.42 275.78 84.12 C 274.08 80.30 273.03 76.25 271.73 72.30 C 266.02 68.09 261.11 73.72 257.80 77.98 C 254.93 78.72 252.67 77.36 254.44 74.39 C 259.01 68.61 262.10 57.19 271.66 59.24 C 273.41 62.94 276.44 66.38 275.74 70.70 C 281.82 84.88 281.73 100.58 281.34 115.68 C 284.00 132.28 281.29 149.15 280.24 165.79 C 283.99 169.41 287.62 161.76 288.99 159.01 C 294.72 142.74 295.32 125.09 295.03 108.00 C 295.26 96.17 294.55 84.20 292.25 72.59 C 289.50 57.88 285.85 42.87 278.12 29.91 C 275.55 21.12 265.85 14.67 256.87 17.85 C 253.20 19.64 248.63 16.38 245.49 19.49 C 241.02 21.91 234.41 21.55 231.14 26.15 C 230.44 27.48 228.56 25.76 227.76 26.87 C 224.65 31.04 219.68 33.34 214.80 34.81 C 218.11 28.04 224.60 23.72 230.87 19.95 C 234.21 19.00 237.38 17.45 240.83 16.87 C 247.27 16.56 253.27 14.44 259.31 12.37 Z" />
</g>
<g id="#8cbc33ff">
<path fill="#8cbc33" stroke="#8cbc33" stroke-width="0.09375" opacity="1.00" d=" M 256.87 17.85 C 265.85 14.67 275.55 21.12 278.12 29.91 C 273.86 25.74 270.84 17.68 263.12 20.06 C 261.97 22.19 263.25 24.52 262.72 26.71 C 261.24 28.88 258.04 30.15 257.92 33.05 C 261.26 32.62 263.97 30.56 266.89 29.07 C 268.11 31.21 272.92 35.72 269.42 37.36 C 270.57 42.71 271.79 48.28 275.38 52.58 C 278.58 64.54 280.93 76.69 283.50 88.78 C 284.90 111.12 286.33 133.69 283.97 155.99 C 283.68 157.59 284.91 159.60 286.71 158.82 C 293.37 145.28 292.34 129.61 293.85 114.99 C 294.17 101.34 293.82 87.10 290.81 73.93 C 291.17 73.60 291.89 72.93 292.25 72.59 C 294.55 84.20 295.26 96.17 295.03 108.00 C 295.32 125.09 294.72 142.74 288.99 159.01 C 287.62 161.76 283.99 169.41 280.24 165.79 C 281.29 149.15 284.00 132.28 281.34 115.68 C 281.73 100.58 281.82 84.88 275.74 70.70 C 276.44 66.38 273.41 62.94 271.66 59.24 C 262.10 57.19 259.01 68.61 254.44 74.39 C 252.67 77.36 254.93 78.72 257.80 77.98 L 257.91 78.86 C 256.86 79.09 255.85 79.42 254.88 79.84 C 252.32 81.22 249.79 82.64 247.26 84.06 C 245.90 83.04 244.49 82.07 243.28 80.85 C 244.93 72.30 249.99 64.91 254.98 57.97 C 258.27 55.39 258.60 51.17 260.72 47.87 C 260.35 44.01 258.62 38.80 253.71 39.09 C 241.13 35.52 231.12 46.48 219.77 49.83 C 214.45 54.69 209.51 60.27 205.16 66.15 C 203.76 70.03 203.43 74.21 202.08 78.11 C 201.97 76.65 201.85 75.19 201.71 73.74 C 202.60 71.19 203.09 68.54 202.96 65.84 C 204.45 62.30 205.12 58.49 205.93 54.76 C 207.14 50.35 208.39 45.87 210.76 41.92 C 212.84 40.06 214.76 37.76 214.80 34.81 C 219.68 33.34 224.65 31.04 227.76 26.87 C 228.56 25.76 230.44 27.48 231.14 26.15 C 234.41 21.55 241.02 21.91 245.49 19.49 C 248.63 16.38 253.20 19.64 256.87 17.85 Z" />
</g>
<g id="#97bf31ff">
<path fill="#97bf31" stroke="#97bf31" stroke-width="0.09375" opacity="1.00" d=" M 263.12 20.06 C 270.84 17.68 273.86 25.74 278.12 29.91 C 285.85 42.87 289.50 57.88 292.25 72.59 C 291.89 72.93 291.17 73.60 290.81 73.93 C 288.45 62.37 285.86 50.76 281.14 39.90 C 279.13 34.72 276.09 29.85 271.75 26.31 C 270.52 26.57 266.79 25.42 268.40 27.67 C 276.31 40.72 279.61 55.80 282.35 70.63 C 284.04 81.37 285.83 92.09 286.17 102.98 C 287.98 115.15 285.82 127.61 288.35 139.70 C 289.37 141.76 291.24 146.48 290.53 137.43 C 293.51 116.40 292.62 95.04 290.81 73.93 C 293.82 87.10 294.17 101.34 293.85 114.99 C 292.34 129.61 293.37 145.28 286.71 158.82 C 284.91 159.60 283.68 157.59 283.97 155.99 C 286.33 133.69 284.90 111.12 283.50 88.78 C 280.93 76.69 278.58 64.54 275.38 52.58 C 271.79 48.28 270.57 42.71 269.42 37.36 C 272.92 35.72 268.11 31.21 266.89 29.07 C 263.97 30.56 261.26 32.62 257.92 33.05 C 258.04 30.15 261.24 28.88 262.72 26.71 C 263.25 24.52 261.97 22.19 263.12 20.06 Z" />
</g>
<g id="#0f201335">
<path fill="#0f2013" stroke="#0f2013" stroke-width="0.09375" opacity="0.21" d=" M 53.70 25.72 C 56.73 24.46 60.15 24.93 63.25 25.72 C 60.06 25.77 56.88 25.94 53.70 25.72 Z" />
</g>
<g id="#257837f3">
<path fill="#257837" stroke="#257837" stroke-width="0.09375" opacity="0.95" d=" M 33.99 33.00 C 40.09 29.46 46.87 27.33 53.70 25.72 C 56.88 25.94 60.06 25.77 63.25 25.72 C 64.25 26.01 65.19 26.42 66.08 26.96 L 65.21 26.99 C 61.89 27.32 57.73 25.71 55.30 28.62 C 53.84 24.95 52.41 29.59 50.74 30.75 C 41.18 36.98 29.95 41.51 22.98 50.99 C 14.14 60.50 11.36 73.64 7.71 85.69 C 6.12 96.08 4.09 106.46 3.96 117.00 C 4.21 118.49 3.10 119.38 2.10 120.24 C 2.04 117.47 2.00 114.71 1.96 111.96 C 1.91 110.19 1.80 106.66 1.74 104.90 C 3.85 89.02 7.06 73.13 13.37 58.34 C 17.89 48.31 24.54 38.91 33.99 33.00 Z" />
</g>
<g id="#a5c42eff">
<path fill="#a5c42e" stroke="#a5c42e" stroke-width="0.09375" opacity="1.00" d=" M 268.40 27.67 C 266.79 25.42 270.52 26.57 271.75 26.31 C 276.09 29.85 279.13 34.72 281.14 39.90 C 285.86 50.76 288.45 62.37 290.81 73.93 C 292.62 95.04 293.51 116.40 290.53 137.43 C 291.24 146.48 289.37 141.76 288.35 139.70 C 285.82 127.61 287.98 115.15 286.17 102.98 C 285.83 92.09 284.04 81.37 282.35 70.63 C 279.61 55.80 276.31 40.72 268.40 27.67 Z" />
</g>
<g id="#36903bfc">
<path fill="#36903b" stroke="#36903b" stroke-width="0.09375" opacity="1.00" d=" M 50.74 30.75 C 52.41 29.59 53.84 24.95 55.30 28.62 C 57.73 25.71 61.89 27.32 65.21 26.99 C 63.28 28.80 61.59 30.86 59.67 32.68 C 53.20 36.21 45.22 35.86 38.96 39.94 C 33.06 42.38 29.48 48.00 26.01 53.02 C 23.12 56.79 22.66 61.80 19.74 65.56 C 17.90 74.20 14.26 82.26 11.68 90.67 C 10.71 101.44 8.45 112.14 8.96 123.01 C 8.62 132.98 12.61 142.74 11.49 152.69 C 15.41 163.39 16.06 175.07 20.54 185.57 C 25.64 194.63 27.05 205.34 33.12 213.90 C 36.09 215.96 39.53 217.29 43.16 217.26 C 42.69 217.51 41.74 218.03 41.27 218.28 C 38.09 218.20 34.91 218.10 31.73 218.20 C 28.84 216.64 25.65 214.89 24.15 211.81 C 14.01 194.03 7.30 174.37 3.64 154.26 C 6.30 146.27 3.11 137.55 3.84 129.34 C 3.39 129.20 2.49 128.94 2.04 128.81 C 2.03 125.94 2.00 123.09 2.10 120.24 C 3.10 119.38 4.21 118.49 3.96 117.00 C 4.09 106.46 6.12 96.08 7.71 85.69 C 11.36 73.64 14.14 60.50 22.98 50.99 C 29.95 41.51 41.18 36.98 50.74 30.75 Z" />
</g>
<g id="#52aa3bfe">
<path fill="#52aa3b" stroke="#52aa3b" stroke-width="0.09375" opacity="1.00" d=" M 65.21 26.99 L 66.08 26.96 C 70.36 27.91 74.49 29.49 78.30 31.66 C 74.58 32.69 70.38 32.54 67.57 35.53 C 63.36 34.91 59.71 37.45 55.63 37.37 C 53.88 40.97 52.00 44.58 51.54 48.65 C 49.24 53.64 44.30 56.70 40.73 60.72 C 30.73 69.49 26.85 82.90 17.67 92.29 C 7.53 120.91 15.13 151.67 24.74 179.29 C 28.44 189.38 30.90 199.94 35.24 209.80 C 36.99 213.40 42.92 214.95 45.17 211.26 C 47.54 208.32 48.29 204.49 48.34 200.79 C 50.13 206.55 48.86 214.17 43.16 217.26 C 39.53 217.29 36.09 215.96 33.12 213.90 C 27.05 205.34 25.64 194.63 20.54 185.57 C 16.06 175.07 15.41 163.39 11.49 152.69 C 12.61 142.74 8.62 132.98 8.96 123.01 C 8.45 112.14 10.71 101.44 11.68 90.67 C 14.26 82.26 17.90 74.20 19.74 65.56 C 22.66 61.80 23.12 56.79 26.01 53.02 C 29.48 48.00 33.06 42.38 38.96 39.94 C 45.22 35.86 53.20 36.21 59.67 32.68 C 61.59 30.86 63.28 28.80 65.21 26.99 Z" />
</g>
<g id="#63b039ff">
<path fill="#63b039" stroke="#63b039" stroke-width="0.09375" opacity="1.00" d=" M 67.57 35.53 C 70.38 32.54 74.58 32.69 78.30 31.66 C 79.91 32.34 81.08 33.67 82.28 34.89 C 76.11 36.11 69.94 37.29 63.75 37.83 C 63.34 37.95 62.53 38.19 62.12 38.31 C 61.65 53.55 61.48 68.79 60.95 84.02 C 60.44 86.20 63.45 87.49 62.35 89.64 C 59.64 93.85 65.18 98.33 64.47 102.99 C 65.17 104.82 66.01 106.59 65.67 108.62 C 66.71 109.56 67.88 110.38 68.78 111.47 C 67.07 112.47 64.06 117.08 68.01 115.23 C 66.23 119.24 70.23 122.27 69.84 126.24 C 66.13 120.24 63.27 113.74 59.02 108.09 C 58.71 107.06 58.37 106.06 58.00 105.06 C 55.81 98.29 51.77 92.51 48.91 86.05 C 42.69 86.07 36.42 85.55 30.21 86.18 C 27.40 87.75 30.64 89.87 31.69 91.43 C 32.16 98.73 29.94 105.88 28.96 113.05 C 29.56 107.73 28.17 102.53 28.43 97.23 C 27.55 95.42 26.34 93.59 24.21 93.18 C 22.37 94.92 20.47 96.60 18.71 98.42 C 10.54 125.03 17.90 152.92 26.70 178.31 C 30.52 188.32 34.49 198.30 37.34 208.64 C 39.48 210.66 42.30 211.30 45.17 211.26 C 42.92 214.95 36.99 213.40 35.24 209.80 C 30.90 199.94 28.44 189.38 24.74 179.29 C 15.13 151.67 7.53 120.91 17.67 92.29 C 26.85 82.90 30.73 69.49 40.73 60.72 C 44.30 56.70 49.24 53.64 51.54 48.65 C 52.00 44.58 53.88 40.97 55.63 37.37 C 59.71 37.45 63.36 34.91 67.57 35.53 M 42.27 66.16 C 37.93 67.36 42.72 69.41 44.43 67.28 C 45.79 65.94 43.06 65.55 42.27 66.16 Z" />
</g>
<g id="#77b537ff">
<path fill="#77b537" stroke="#77b537" stroke-width="0.09375" opacity="1.00" d=" M 63.75 37.83 C 69.94 37.29 76.11 36.11 82.28 34.89 C 84.11 36.00 85.84 37.28 87.31 38.86 C 82.76 39.80 77.66 41.38 73.07 39.84 C 71.75 39.65 69.11 39.26 67.79 39.07 C 69.58 42.81 72.16 46.12 74.08 49.81 C 73.93 53.84 73.94 57.87 74.10 61.91 C 75.57 64.78 77.94 67.36 77.12 71.00 C 79.99 83.43 81.12 96.23 84.62 108.52 C 87.95 114.98 89.46 122.31 93.54 128.39 C 97.55 135.50 102.32 142.17 107.55 148.42 C 112.65 152.02 116.42 157.54 122.53 159.60 C 131.77 164.57 144.98 156.93 144.31 146.16 C 149.00 133.54 143.33 120.04 143.97 107.09 L 144.95 107.06 C 145.01 111.56 145.98 115.92 147.97 119.99 C 149.19 125.28 150.68 130.48 152.38 135.65 C 154.53 138.88 157.94 141.40 158.49 145.49 C 162.38 147.02 165.07 151.51 169.91 149.92 C 174.89 148.13 180.44 145.23 181.99 139.88 C 185.92 137.24 188.28 132.86 189.60 128.40 C 191.17 123.57 194.20 119.04 193.91 113.78 C 195.32 107.72 195.18 101.11 198.05 95.48 C 198.79 103.62 195.60 111.65 194.74 119.74 C 193.36 123.75 192.75 128.02 191.00 131.89 C 186.24 137.63 184.25 145.57 178.08 150.10 C 173.62 153.42 171.38 159.82 165.09 160.21 C 161.32 160.45 159.63 163.94 157.08 166.10 C 154.94 168.98 155.22 172.84 154.44 176.20 C 153.56 181.66 156.17 187.34 153.86 192.62 C 153.34 192.55 152.32 192.42 151.80 192.35 C 152.31 195.99 156.31 195.27 159.24 195.34 C 156.92 196.07 154.56 196.65 152.22 197.28 C 147.81 197.12 143.14 197.00 139.10 195.00 C 139.56 194.13 140.13 193.32 140.55 192.43 C 137.14 189.43 136.02 184.40 131.79 182.24 C 128.78 180.99 126.66 178.39 123.54 177.38 C 119.57 172.26 113.40 169.70 109.02 164.96 C 100.80 159.59 94.42 151.54 90.51 142.58 C 83.16 127.12 77.05 110.91 73.98 94.01 C 69.33 85.54 74.34 75.01 70.86 66.10 C 70.43 64.83 69.88 63.50 70.27 62.13 C 71.29 57.86 69.76 53.52 70.38 49.21 C 69.44 47.10 69.37 43.04 66.22 43.39 C 65.12 41.67 64.42 39.74 63.75 37.83 Z" />
</g>
<g id="#70b338ff">
<path fill="#70b338" stroke="#70b338" stroke-width="0.09375" opacity="1.00" d=" M 210.76 41.92 C 211.09 39.08 213.01 36.89 214.80 34.81 C 214.76 37.76 212.84 40.06 210.76 41.92 Z" />
</g>
<g id="#70b339ff">
<path fill="#70b339" stroke="#70b339" stroke-width="0.09375" opacity="1.00" d=" M 62.12 38.31 C 62.53 38.19 63.34 37.95 63.75 37.83 C 64.42 39.74 65.12 41.67 66.22 43.39 C 69.37 43.04 69.44 47.10 70.38 49.21 C 69.76 53.52 71.29 57.86 70.27 62.13 C 69.88 63.50 70.43 64.83 70.86 66.10 C 74.34 75.01 69.33 85.54 73.98 94.01 C 77.05 110.91 83.16 127.12 90.51 142.58 C 94.42 151.54 100.80 159.59 109.02 164.96 C 113.40 169.70 119.57 172.26 123.54 177.38 C 126.66 178.39 128.78 180.99 131.79 182.24 C 136.02 184.40 137.14 189.43 140.55 192.43 C 140.13 193.32 139.56 194.13 139.10 195.00 C 143.14 197.00 147.81 197.12 152.22 197.28 C 151.85 197.52 151.11 197.99 150.75 198.22 C 145.40 198.08 140.06 197.92 134.75 197.25 C 131.84 196.46 128.99 195.47 126.05 194.78 C 122.44 192.68 118.73 190.79 115.10 188.75 C 99.79 176.82 88.99 160.44 79.24 143.92 C 76.28 137.94 72.98 132.12 69.84 126.24 C 70.23 122.27 66.23 119.24 68.01 115.23 C 64.06 117.08 67.07 112.47 68.78 111.47 C 67.88 110.38 66.71 109.56 65.67 108.62 C 66.01 106.59 65.17 104.82 64.47 102.99 C 65.18 98.33 59.64 93.85 62.35 89.64 C 63.45 87.49 60.44 86.20 60.95 84.02 C 61.48 68.79 61.65 53.55 62.12 38.31 Z" />
</g>
<g id="#98be31fd">
<path fill="#98be31" stroke="#98be31" stroke-width="0.09375" opacity="1.00" d=" M 219.77 49.83 C 231.12 46.48 241.13 35.52 253.71 39.09 C 258.62 38.80 260.35 44.01 260.72 47.87 C 258.60 51.17 258.27 55.39 254.98 57.97 C 249.99 64.91 244.93 72.30 243.28 80.85 C 244.49 82.07 245.90 83.04 247.26 84.06 C 236.50 90.71 226.39 99.27 220.98 110.98 C 216.41 118.93 214.10 127.82 210.86 136.32 C 210.11 134.36 210.37 130.98 207.35 132.13 C 204.68 140.30 201.74 148.38 199.22 156.60 C 197.91 156.99 196.48 157.63 196.05 159.06 C 192.45 167.71 188.50 176.90 180.66 182.56 C 178.12 182.66 176.06 183.90 173.86 184.89 C 172.11 180.84 175.96 179.45 177.25 176.66 C 178.56 173.05 181.91 170.19 181.54 166.09 C 182.35 164.17 184.15 162.62 183.73 160.29 C 189.60 149.20 191.72 136.77 194.68 124.71 C 195.05 123.08 194.79 121.39 194.74 119.74 C 195.60 111.65 198.79 103.62 198.05 95.48 C 199.83 89.79 200.00 83.73 202.08 78.11 C 203.43 74.21 203.76 70.03 205.16 66.15 C 209.51 60.27 214.45 54.69 219.77 49.83 M 231.34 59.43 C 229.04 60.18 226.72 60.87 224.34 61.31 C 224.05 63.51 221.59 61.96 220.28 63.26 C 212.77 65.24 208.04 72.08 204.62 78.55 C 201.88 80.03 201.80 83.60 201.32 86.28 C 199.56 99.65 196.42 112.87 195.43 126.34 C 192.28 142.57 188.57 158.78 182.07 174.05 C 184.02 174.13 186.20 174.20 187.31 172.29 C 194.92 161.78 196.82 148.59 201.74 136.83 C 203.88 128.20 206.43 119.21 212.17 112.20 C 223.93 104.81 232.62 91.99 234.41 78.37 C 237.67 74.53 235.67 68.74 236.80 64.08 C 235.62 61.46 237.20 55.73 231.34 59.43 Z" />
</g>
<g id="#81b835ff">
<path fill="#81b835" stroke="#81b835" stroke-width="0.09375" opacity="1.00" d=" M 67.79 39.07 C 69.11 39.26 71.75 39.65 73.07 39.84 C 72.55 39.91 71.51 40.05 71.00 40.12 C 71.06 43.05 73.28 45.02 75.87 45.93 C 76.17 46.17 76.75 46.64 77.05 46.87 C 78.07 50.15 79.13 53.41 80.12 56.70 C 78.63 59.34 80.67 62.07 81.53 64.58 C 88.58 79.05 87.73 96.14 95.78 110.21 C 100.82 121.40 107.02 132.71 117.10 139.89 C 124.28 144.17 136.69 139.64 136.41 130.17 C 138.49 123.13 141.18 116.13 139.63 108.63 C 140.21 107.60 140.92 106.52 142.08 106.10 C 141.34 111.99 139.10 118.77 142.80 124.00 C 140.44 128.61 141.43 133.92 140.87 138.91 C 138.70 142.85 136.00 146.59 132.87 149.85 C 126.00 154.67 118.92 149.37 113.02 145.98 C 105.62 140.98 103.15 131.98 97.34 125.65 C 90.04 115.14 88.29 102.10 84.96 90.04 C 82.36 82.39 81.19 74.32 79.47 66.40 C 76.85 61.44 75.63 56.05 75.73 50.40 C 75.32 50.25 74.49 49.95 74.08 49.81 C 72.16 46.12 69.58 42.81 67.79 39.07 Z" />
</g>
<g id="#89b933fb">
<path fill="#89b933" stroke="#89b933" stroke-width="0.09375" opacity="1.00" d=" M 73.07 39.84 C 77.66 41.38 82.76 39.80 87.31 38.86 C 90.96 42.11 93.99 45.96 97.15 49.68 C 96.80 50.17 96.10 51.15 95.75 51.64 C 92.59 49.82 88.87 49.40 85.30 49.71 C 82.55 47.55 80.22 43.49 76.19 44.04 C 76.11 44.51 75.95 45.46 75.87 45.93 C 73.28 45.02 71.06 43.05 71.00 40.12 C 71.51 40.05 72.55 39.91 73.07 39.84 Z" />
</g>
<g id="#9cc030fc">
<path fill="#9cc030" stroke="#9cc030" stroke-width="0.09375" opacity="1.00" d=" M 76.19 44.04 C 80.22 43.49 82.55 47.55 85.30 49.71 C 88.87 49.40 92.59 49.82 95.75 51.64 C 96.10 51.15 96.80 50.17 97.15 49.68 C 107.97 63.23 115.85 78.87 126.43 92.62 C 129.39 96.35 133.49 98.88 137.14 101.87 C 135.38 104.52 133.56 107.06 130.59 108.56 C 127.41 108.79 124.26 109.19 121.10 109.54 C 117.98 107.00 115.32 103.95 113.60 100.30 C 106.89 93.75 100.33 86.53 97.49 77.40 C 92.86 70.57 88.25 63.61 84.97 56.00 C 84.37 54.68 83.10 53.85 82.12 52.82 C 80.85 50.51 79.23 48.39 77.05 46.87 C 76.75 46.64 76.17 46.17 75.87 45.93 C 75.95 45.46 76.11 44.51 76.19 44.04 Z" />
</g>
<g id="#8cbb33ff">
<path fill="#8cbb33" stroke="#8cbb33" stroke-width="0.09375" opacity="1.00" d=" M 77.05 46.87 C 79.23 48.39 80.85 50.51 82.12 52.82 C 83.51 57.33 84.08 62.06 87.05 65.97 C 93.41 75.58 94.64 87.61 99.55 97.73 C 102.20 106.20 110.54 111.63 112.83 120.23 C 115.75 124.52 120.09 129.43 125.72 128.81 C 127.35 127.39 128.94 125.78 129.57 123.66 C 131.37 117.63 135.64 112.78 137.84 106.90 C 138.10 105.15 139.89 104.83 141.19 104.08 C 142.21 104.39 143.22 104.71 144.24 105.04 C 143.70 105.31 142.62 105.83 142.08 106.10 C 140.92 106.52 140.21 107.60 139.63 108.63 C 135.30 116.66 136.14 127.35 128.54 133.69 C 120.78 136.16 115.16 129.47 109.38 125.60 C 109.25 124.02 110.77 121.54 108.04 121.91 C 105.96 121.75 108.73 118.87 107.24 117.76 C 101.07 109.38 95.02 100.70 92.77 90.31 C 91.23 78.35 85.71 67.23 80.12 56.70 C 79.13 53.41 78.07 50.15 77.05 46.87 Z" />
</g>
<g id="#7cb836ff">
<path fill="#7cb836" stroke="#7cb836" stroke-width="0.09375" opacity="1.00" d=" M 74.08 49.81 C 74.49 49.95 75.32 50.25 75.73 50.40 C 75.63 56.05 76.85 61.44 79.47 66.40 C 81.19 74.32 82.36 82.39 84.96 90.04 C 88.29 102.10 90.04 115.14 97.34 125.65 C 103.15 131.98 105.62 140.98 113.02 145.98 C 118.92 149.37 126.00 154.67 132.87 149.85 C 136.00 146.59 138.70 142.85 140.87 138.91 C 141.43 133.92 140.44 128.61 142.80 124.00 C 139.10 118.77 141.34 111.99 142.08 106.10 C 142.62 105.83 143.70 105.31 144.24 105.04 C 144.86 105.09 146.11 105.17 146.73 105.22 C 147.87 105.63 149.03 106.00 150.20 106.35 C 149.60 106.53 148.41 106.89 147.82 107.07 C 147.10 107.07 145.67 107.06 144.95 107.06 L 143.97 107.09 C 143.33 120.04 149.00 133.54 144.31 146.16 C 144.98 156.93 131.77 164.57 122.53 159.60 C 116.42 157.54 112.65 152.02 107.55 148.42 C 102.32 142.17 97.55 135.50 93.54 128.39 C 89.46 122.31 87.95 114.98 84.62 108.52 C 81.12 96.23 79.99 83.43 77.12 71.00 C 77.94 67.36 75.57 64.78 74.10 61.91 C 73.94 57.87 73.93 53.84 74.08 49.81 Z" />
</g>
<g id="#93bd33ff">
<path fill="#93bd33" stroke="#93bd33" stroke-width="0.09375" opacity="1.00" d=" M 82.12 52.82 C 83.10 53.85 84.37 54.68 84.97 56.00 C 88.25 63.61 92.86 70.57 97.49 77.40 C 100.33 86.53 106.89 93.75 113.60 100.30 C 115.32 103.95 117.98 107.00 121.10 109.54 C 124.26 109.19 127.41 108.79 130.59 108.56 C 133.56 107.06 135.38 104.52 137.14 101.87 C 138.46 102.65 139.81 103.39 141.19 104.08 C 139.89 104.83 138.10 105.15 137.84 106.90 C 135.64 112.78 131.37 117.63 129.57 123.66 C 128.94 125.78 127.35 127.39 125.72 128.81 C 120.09 129.43 115.75 124.52 112.83 120.23 C 110.54 111.63 102.20 106.20 99.55 97.73 C 94.64 87.61 93.41 75.58 87.05 65.97 C 84.08 62.06 83.51 57.33 82.12 52.82 Z" />
</g>
<g id="#3ca03dff">
<path fill="#3ca03d" stroke="#3ca03d" stroke-width="0.09375" opacity="1.00" d=" M 200.25 65.29 C 202.20 61.89 201.97 56.49 205.93 54.76 C 205.12 58.49 204.45 62.30 202.96 65.84 C 201.03 68.52 199.66 71.55 198.81 74.73 C 194.01 80.09 194.88 88.44 189.65 93.54 C 187.97 98.26 185.46 102.65 182.79 106.87 C 179.01 107.46 173.69 111.16 170.48 107.53 C 169.05 107.22 167.30 108.36 166.25 106.94 C 166.99 105.05 167.57 103.03 169.03 101.54 C 170.67 102.22 172.01 104.01 173.87 103.90 C 176.59 102.53 178.65 99.83 181.78 99.37 C 183.29 98.14 183.16 95.04 185.70 95.30 C 192.39 86.23 194.49 74.86 200.25 65.29 Z" />
</g>
<g id="#87bb34ff">
<path fill="#87bb34" stroke="#87bb34" stroke-width="0.09375" opacity="1.00" d=" M 80.12 56.70 C 85.71 67.23 91.23 78.35 92.77 90.31 C 95.02 100.70 101.07 109.38 107.24 117.76 C 108.73 118.87 105.96 121.75 108.04 121.91 C 110.77 121.54 109.25 124.02 109.38 125.60 C 115.16 129.47 120.78 136.16 128.54 133.69 C 136.14 127.35 135.30 116.66 139.63 108.63 C 141.18 116.13 138.49 123.13 136.41 130.17 C 136.69 139.64 124.28 144.17 117.10 139.89 C 107.02 132.71 100.82 121.40 95.78 110.21 C 87.73 96.14 88.58 79.05 81.53 64.58 C 80.67 62.07 78.63 59.34 80.12 56.70 Z" />
</g>
<g id="#a9c62eff">
<path fill="#a9c62e" stroke="#a9c62e" stroke-width="0.09375" opacity="1.00" d=" M 231.34 59.43 C 237.20 55.73 235.62 61.46 236.80 64.08 C 235.67 68.74 237.67 74.53 234.41 78.37 C 232.62 91.99 223.93 104.81 212.17 112.20 C 206.43 119.21 203.88 128.20 201.74 136.83 C 196.82 148.59 194.92 161.78 187.31 172.29 C 186.20 174.20 184.02 174.13 182.07 174.05 C 188.57 158.78 192.28 142.57 195.43 126.34 C 196.42 112.87 199.56 99.65 201.32 86.28 C 201.80 83.60 201.88 80.03 204.62 78.55 C 208.04 72.08 212.77 65.24 220.28 63.26 C 221.59 61.96 224.05 63.51 224.34 61.31 C 226.72 60.87 229.04 60.18 231.34 59.43 Z" />
</g>
<g id="#5dae39fe">
<path fill="#5dae39" stroke="#5dae39" stroke-width="0.09375" opacity="1.00" d=" M 42.27 66.16 C 43.06 65.55 45.79 65.94 44.43 67.28 C 42.72 69.41 37.93 67.36 42.27 66.16 Z" />
</g>
<g id="#51ab3bff">
<path fill="#51ab3b" stroke="#51ab3b" stroke-width="0.09375" opacity="1.00" d=" M 198.81 74.73 C 199.66 71.55 201.03 68.52 202.96 65.84 C 203.09 68.54 202.60 71.19 201.71 73.74 C 198.47 81.22 199.02 90.11 194.00 96.82 C 191.80 101.58 190.54 106.77 188.66 111.68 C 185.22 114.71 183.61 119.73 178.98 121.05 C 175.04 123.92 171.82 120.37 168.50 118.87 C 163.87 116.07 156.32 113.55 157.00 107.16 C 157.20 106.83 157.59 106.18 157.79 105.85 L 158.23 105.11 C 158.88 105.02 160.18 104.84 160.83 104.75 C 163.29 104.66 163.17 105.31 161.28 106.36 C 165.80 111.45 172.93 113.85 179.62 113.68 C 184.29 111.50 186.29 106.50 187.93 101.97 C 189.53 96.28 195.34 92.61 195.47 86.39 C 196.07 82.35 198.34 78.80 198.81 74.73 Z" />
</g>
<g id="#69b039fe">
<path fill="#69b039" stroke="#69b039" stroke-width="0.09375" opacity="1.00" d=" M 257.80 77.98 C 261.11 73.72 266.02 68.09 271.73 72.30 C 273.03 76.25 274.08 80.30 275.78 84.12 C 276.81 93.42 275.83 102.74 277.02 112.00 C 275.26 131.27 276.16 150.68 276.05 170.02 C 279.93 169.72 285.43 170.60 287.42 166.38 C 288.52 163.90 291.81 166.52 293.36 164.27 C 292.61 167.18 291.15 169.94 289.09 172.13 C 284.54 169.76 279.00 173.21 274.74 170.25 C 272.15 168.67 272.55 165.31 272.53 162.63 C 274.01 148.63 271.57 134.56 273.41 120.59 C 274.62 113.20 273.82 105.73 273.49 98.31 C 274.64 90.63 273.41 81.83 267.67 76.16 C 263.23 73.50 261.37 78.14 257.91 78.86 L 257.80 77.98 Z" />
</g>
<g id="#66b139ff">
<path fill="#66b139" stroke="#66b139" stroke-width="0.09375" opacity="1.00" d=" M 194.00 96.82 C 199.02 90.11 198.47 81.22 201.71 73.74 C 201.85 75.19 201.97 76.65 202.08 78.11 C 200.00 83.73 199.83 89.79 198.05 95.48 C 195.18 101.11 195.32 107.72 193.91 113.78 C 191.44 119.83 189.44 126.17 185.49 131.49 C 182.81 133.59 179.94 135.55 178.77 138.91 C 174.64 138.82 170.39 139.63 166.33 138.73 C 164.61 136.76 162.89 134.78 160.82 133.17 C 156.56 130.28 157.36 124.42 154.71 120.45 C 154.68 118.92 154.10 117.83 152.53 117.43 C 150.61 114.15 148.78 110.77 147.82 107.07 C 148.41 106.89 149.60 106.53 150.20 106.35 C 152.73 106.20 155.26 106.03 157.79 105.85 C 157.59 106.18 157.20 106.83 157.00 107.16 C 155.31 107.07 153.62 106.99 151.93 107.05 C 151.73 111.35 155.56 114.02 157.47 117.43 C 161.42 125.20 167.67 134.56 177.73 132.74 C 186.54 127.18 192.28 117.10 193.88 106.93 C 194.17 103.65 195.87 99.97 194.00 96.82 Z" />
</g>
<g id="#518a33c5">
<path fill="#518a33" stroke="#518a33" stroke-width="0.09375" opacity="0.77" d=" M 296.95 73.98 C 298.32 76.00 298.80 78.36 298.38 81.04 C 298.17 81.54 297.75 82.55 297.53 83.06 C 296.76 80.10 297.02 77.00 296.95 73.98 Z" />
</g>
<g id="#46a63dfc">
<path fill="#46a63d" stroke="#46a63d" stroke-width="0.09375" opacity="1.00" d=" M 189.65 93.54 C 194.88 88.44 194.01 80.09 198.81 74.73 C 198.34 78.80 196.07 82.35 195.47 86.39 C 195.34 92.61 189.53 96.28 187.93 101.97 C 186.29 106.50 184.29 111.50 179.62 113.68 C 172.93 113.85 165.80 111.45 161.28 106.36 C 163.17 105.31 163.29 104.66 160.83 104.75 C 163.18 103.43 165.59 102.21 167.90 100.82 C 168.18 101.00 168.75 101.36 169.03 101.54 C 167.57 103.03 166.99 105.05 166.25 106.94 C 167.30 108.36 169.05 107.22 170.48 107.53 C 173.69 111.16 179.01 107.46 182.79 106.87 C 185.46 102.65 187.97 98.26 189.65 93.54 Z" />
</g>
<g id="#5cac3afc">
<path fill="#5cac3a" stroke="#5cac3a" stroke-width="0.09375" opacity="1.00" d=" M 257.91 78.86 C 261.37 78.14 263.23 73.50 267.67 76.16 C 273.41 81.83 274.64 90.63 273.49 98.31 C 273.82 105.73 274.62 113.20 273.41 120.59 C 271.57 134.56 274.01 148.63 272.53 162.63 C 272.55 165.31 272.15 168.67 274.74 170.25 C 279.00 173.21 284.54 169.76 289.09 172.13 C 287.04 173.84 284.78 175.38 282.25 176.28 C 279.46 176.18 276.68 176.11 273.91 176.07 C 273.24 174.86 273.06 173.81 274.78 173.73 C 273.33 172.13 271.77 170.60 270.58 168.80 C 271.12 163.61 268.05 158.78 268.42 153.62 C 269.79 139.11 270.55 124.57 270.84 110.01 C 269.37 102.33 272.82 94.22 269.06 87.00 C 269.33 84.91 266.51 85.47 266.47 83.74 C 266.14 81.49 263.62 80.83 261.88 79.98 C 261.08 82.18 265.93 85.45 261.88 85.35 C 261.13 83.65 260.51 81.90 259.72 80.22 C 258.12 79.94 256.49 79.90 254.88 79.84 C 255.85 79.42 256.86 79.09 257.91 78.86 Z" />
</g>
<g id="#4da93bfe">
<path fill="#4da93b" stroke="#4da93b" stroke-width="0.09375" opacity="1.00" d=" M 261.88 79.98 C 263.62 80.83 266.14 81.49 266.47 83.74 C 266.51 85.47 269.33 84.91 269.06 87.00 C 272.82 94.22 269.37 102.33 270.84 110.01 C 270.55 124.57 269.79 139.11 268.42 153.62 C 268.05 158.78 271.12 163.61 270.58 168.80 C 271.77 170.60 273.33 172.13 274.78 173.73 C 273.06 173.81 273.24 174.86 273.91 176.07 C 273.39 176.09 272.37 176.13 271.86 176.15 C 269.95 174.78 267.82 173.52 266.64 171.42 C 269.15 168.58 266.12 165.39 265.66 162.33 C 262.07 139.30 268.19 116.41 265.73 93.27 C 265.27 92.40 264.76 91.57 264.20 90.78 C 264.14 91.59 264.03 93.20 263.97 94.01 L 263.03 93.97 C 262.83 92.42 262.43 89.33 262.23 87.78 C 262.14 87.17 261.97 85.95 261.88 85.35 C 265.93 85.45 261.08 82.18 261.88 79.98 Z" />
</g>
<g id="#3458227e">
<path fill="#345822" stroke="#345822" stroke-width="0.09375" opacity="0.49" d=" M 298.38 81.04 C 299.38 83.16 299.56 85.45 298.92 87.93 L 298.23 87.92 C 297.93 86.30 297.74 84.68 297.53 83.06 C 297.75 82.55 298.17 81.54 298.38 81.04 Z" />
</g>
<g id="#5aad3bfd">
<path fill="#5aad3b" stroke="#5aad3b" stroke-width="0.09375" opacity="1.00" d=" M 30.21 86.18 C 36.42 85.55 42.69 86.07 48.91 86.05 C 51.77 92.51 55.81 98.29 58.00 105.06 C 54.87 102.48 52.30 98.77 48.13 97.81 C 45.29 97.10 41.39 95.68 39.34 98.35 C 38.32 99.96 36.03 99.49 34.75 100.74 C 31.79 103.02 32.50 107.49 31.91 110.67 C 33.00 110.53 34.15 110.10 35.15 110.79 C 32.12 111.63 31.20 114.55 30.22 117.18 C 29.80 115.80 29.31 114.44 28.96 113.05 C 29.94 105.88 32.16 98.73 31.69 91.43 C 30.64 89.87 27.40 87.75 30.21 86.18 Z" />
</g>
<g id="#396b37aa">
<path fill="#396b37" stroke="#396b37" stroke-width="0.09375" opacity="0.67" d=" M 262.23 87.78 C 262.43 89.33 262.83 92.42 263.03 93.97 C 263.02 94.47 263.01 95.47 263.00 95.97 L 262.01 96.02 C 262.04 93.27 262.12 90.52 262.23 87.78 Z" />
</g>
<g id="#5a9432d5">
<path fill="#5a9432" stroke="#5a9432" stroke-width="0.09375" opacity="0.84" d=" M 298.23 87.92 L 298.92 87.93 C 298.94 88.43 298.97 89.42 298.99 89.92 C 299.00 91.95 299.00 93.98 298.99 96.00 L 298.02 96.00 C 298.04 93.30 298.11 90.61 298.23 87.92 Z" />
</g>
<g id="#15210d30">
<path fill="#15210d" stroke="#15210d" stroke-width="0.09375" opacity="0.19" d=" M 298.99 89.92 L 300.00 90.06 L 300.00 98.01 L 299.02 97.99 C 299.01 97.50 299.00 96.50 298.99 96.00 C 299.00 93.98 299.00 91.95 298.99 89.92 Z" />
</g>
<g id="#3a9c3bf9">
<path fill="#3a9c3b" stroke="#3a9c3b" stroke-width="0.09375" opacity="0.98" d=" M 264.20 90.78 C 264.76 91.57 265.27 92.40 265.73 93.27 C 268.19 116.41 262.07 139.30 265.66 162.33 C 266.12 165.39 269.15 168.58 266.64 171.42 C 263.05 167.20 262.67 161.46 261.73 156.23 C 262.03 148.08 262.17 139.92 261.80 131.78 C 261.93 130.26 262.06 128.74 262.21 127.22 C 262.59 124.89 262.94 122.56 263.26 120.23 C 264.64 111.56 263.81 102.75 263.97 94.01 C 264.03 93.20 264.14 91.59 264.20 90.78 Z" />
</g>
<g id="#6fb138fa">
<path fill="#6fb138" stroke="#6fb138" stroke-width="0.09375" opacity="0.98" d=" M 24.21 93.18 C 26.34 93.59 27.55 95.42 28.43 97.23 C 28.17 102.53 29.56 107.73 28.96 113.05 C 27.21 122.49 25.26 132.86 29.26 141.89 C 28.92 143.48 29.85 144.40 31.28 144.92 C 36.02 163.83 44.53 181.66 48.34 200.79 C 48.29 204.49 47.54 208.32 45.17 211.26 C 42.30 211.30 39.48 210.66 37.34 208.64 C 34.49 198.30 30.52 188.32 26.70 178.31 C 17.90 152.92 10.54 125.03 18.71 98.42 C 20.47 96.60 22.37 94.92 24.21 93.18 M 20.32 102.28 C 15.00 117.31 17.43 133.61 20.15 148.92 C 24.22 169.81 32.39 189.65 41.07 209.02 C 48.72 209.88 47.34 196.32 43.86 194.06 C 43.62 193.59 43.12 192.65 42.88 192.18 C 42.99 187.80 40.41 183.85 39.37 179.70 C 35.45 163.83 26.99 149.25 25.17 132.93 C 23.78 122.49 27.40 112.01 25.42 101.66 C 25.01 98.54 21.15 100.22 20.32 102.28 Z" />
</g>
<g id="#4b9c4cfe">
<path fill="#4b9c4c" stroke="#4b9c4c" stroke-width="0.09375" opacity="1.00" d=" M 263.03 93.97 L 263.97 94.01 C 263.81 102.75 264.64 111.56 263.26 120.23 C 263.17 118.81 263.07 117.40 262.99 115.98 C 262.97 109.31 263.02 102.64 263.00 95.97 C 263.01 95.47 263.02 94.47 263.03 93.97 Z" />
</g>
<g id="#394d396b">
<path fill="#394d39" stroke="#394d39" stroke-width="0.09375" opacity="0.42" d=" M 262.01 96.02 L 263.00 95.97 C 263.02 102.64 262.97 109.31 262.99 115.98 L 262.00 116.01 C 261.97 109.34 261.96 102.68 262.01 96.02 Z" />
</g>
<g id="#61ab38f7">
<path fill="#61ab38" stroke="#61ab38" stroke-width="0.09375" opacity="0.97" d=" M 298.02 96.00 L 298.99 96.00 C 299.00 96.50 299.01 97.50 299.02 97.99 C 298.99 105.00 298.98 112.00 299.02 119.01 L 298.99 120.00 L 298.03 120.01 C 297.31 112.00 297.89 104.02 298.02 96.00 Z" />
</g>
<g id="#47a63cff">
<path fill="#47a63c" stroke="#47a63c" stroke-width="0.09375" opacity="1.00" d=" M 39.34 98.35 C 41.39 95.68 45.29 97.10 48.13 97.81 C 52.30 98.77 54.87 102.48 58.00 105.06 C 58.37 106.06 58.71 107.06 59.02 108.09 C 57.91 107.15 56.84 106.18 55.70 105.28 C 51.37 106.09 47.40 108.11 43.72 110.48 C 41.17 108.41 38.58 110.13 35.93 111.12 L 35.15 110.79 C 34.15 110.10 33.00 110.53 31.91 110.67 C 32.50 107.49 31.79 103.02 34.75 100.74 C 36.03 99.49 38.32 99.96 39.34 98.35 Z" />
</g>
<g id="#5bae3aff">
<path fill="#5bae3a" stroke="#5bae3a" stroke-width="0.09375" opacity="1.00" d=" M 188.66 111.68 C 190.54 106.77 191.80 101.58 194.00 96.82 C 195.87 99.97 194.17 103.65 193.88 106.93 C 192.28 117.10 186.54 127.18 177.73 132.74 C 167.67 134.56 161.42 125.20 157.47 117.43 C 155.56 114.02 151.73 111.35 151.93 107.05 C 153.62 106.99 155.31 107.07 157.00 107.16 C 156.32 113.55 163.87 116.07 168.50 118.87 C 171.82 120.37 175.04 123.92 178.98 121.05 C 183.61 119.73 185.22 114.71 188.66 111.68 Z" />
</g>
<g id="#203c1558">
<path fill="#203c15" stroke="#203c15" stroke-width="0.09375" opacity="0.35" d=" M 299.02 97.99 L 300.00 98.01 L 300.00 118.98 L 299.02 119.01 C 298.98 112.00 298.99 105.00 299.02 97.99 Z" />
</g>
<g id="#85b934ff">
<path fill="#85b934" stroke="#85b934" stroke-width="0.09375" opacity="1.00" d=" M 20.32 102.28 C 21.15 100.22 25.01 98.54 25.42 101.66 C 27.40 112.01 23.78 122.49 25.17 132.93 C 26.99 149.25 35.45 163.83 39.37 179.70 C 40.41 183.85 42.99 187.80 42.88 192.18 C 40.53 189.09 39.68 185.25 38.27 181.71 C 33.71 168.00 27.22 154.88 24.54 140.60 C 23.95 135.03 23.39 129.46 22.82 123.89 C 21.57 124.86 20.39 125.92 19.40 127.17 C 19.90 154.46 30.24 180.17 41.29 204.70 C 42.52 205.30 44.19 206.81 44.81 204.71 C 45.54 201.06 44.34 197.60 43.86 194.06 C 47.34 196.32 48.72 209.88 41.07 209.02 C 32.39 189.65 24.22 169.81 20.15 148.92 C 17.43 133.61 15.00 117.31 20.32 102.28 Z" />
</g>
<g id="#2a4b3185">
<path fill="#2a4b31" stroke="#2a4b31" stroke-width="0.09375" opacity="0.52" d=" M 1.13 111.94 C 0.19 109.63 0.39 107.28 1.74 104.90 C 1.80 106.66 1.91 110.19 1.96 111.96 L 1.13 111.94 Z" />
</g>
<g id="#34913cfd">
<path fill="#34913c" stroke="#34913c" stroke-width="0.09375" opacity="1.00" d=" M 43.72 110.48 C 47.40 108.11 51.37 106.09 55.70 105.28 C 56.84 106.18 57.91 107.15 59.02 108.09 C 63.27 113.74 66.13 120.24 69.84 126.24 C 72.98 132.12 76.28 137.94 79.24 143.92 C 77.55 144.09 76.99 142.75 76.41 141.47 C 74.21 139.42 71.89 137.48 69.52 135.64 C 66.08 135.69 63.68 132.79 61.90 130.20 C 56.93 127.11 53.18 122.24 48.86 118.30 C 48.35 118.49 47.33 118.87 46.82 119.06 C 43.45 116.08 39.67 113.61 35.93 111.12 C 38.58 110.13 41.17 108.41 43.72 110.48 Z" />
</g>
<g id="#38552777">
<path fill="#385527" stroke="#385527" stroke-width="0.09375" opacity="0.47" d=" M 146.73 105.22 C 150.56 104.94 154.39 105.03 158.23 105.11 L 157.79 105.85 C 155.26 106.03 152.73 106.20 150.20 106.35 C 149.03 106.00 147.87 105.63 146.73 105.22 Z" />
</g>
<g id="#71b339ff">
<path fill="#71b339" stroke="#71b339" stroke-width="0.09375" opacity="1.00" d=" M 144.95 107.06 C 145.67 107.06 147.10 107.07 147.82 107.07 C 148.78 110.77 150.61 114.15 152.53 117.43 C 154.10 117.83 154.68 118.92 154.71 120.45 C 157.36 124.42 156.56 130.28 160.82 133.17 C 162.89 134.78 164.61 136.76 166.33 138.73 C 170.39 139.63 174.64 138.82 178.77 138.91 C 179.94 135.55 182.81 133.59 185.49 131.49 C 189.44 126.17 191.44 119.83 193.91 113.78 C 194.20 119.04 191.17 123.57 189.60 128.40 C 188.28 132.86 185.92 137.24 181.99 139.88 C 180.44 145.23 174.89 148.13 169.91 149.92 C 165.07 151.51 162.38 147.02 158.49 145.49 C 157.94 141.40 154.53 138.88 152.38 135.65 C 150.68 130.48 149.19 125.28 147.97 119.99 C 145.98 115.92 145.01 111.56 144.95 107.06 Z" />
</g>
<g id="#297139de">
<path fill="#297139" stroke="#297139" stroke-width="0.09375" opacity="0.87" d=" M 1.13 111.94 L 1.96 111.96 C 2.00 114.71 2.04 117.47 2.10 120.24 C 2.00 123.09 2.03 125.94 2.04 128.81 C 1.99 130.56 1.94 132.32 1.89 134.08 L 1.07 134.08 C 1.02 127.02 0.91 119.97 1.05 112.91 L 1.13 111.94 Z" />
</g>
<g id="#0810091d">
<path fill="#081009" stroke="#081009" stroke-width="0.09375" opacity="0.11" d=" M 0.00 113.08 L 1.05 112.91 C 0.91 119.97 1.02 127.02 1.07 134.08 L 0.00 133.99 L 0.00 113.08 Z" />
</g>
<g id="#64b23cfa">
<path fill="#64b23c" stroke="#64b23c" stroke-width="0.09375" opacity="0.98" d=" M 29.26 141.89 C 25.26 132.86 27.21 122.49 28.96 113.05 C 29.31 114.44 29.80 115.80 30.22 117.18 C 30.11 117.83 29.89 119.12 29.78 119.77 C 28.76 125.17 28.49 130.87 29.65 136.28 C 30.32 139.14 30.97 142.00 31.28 144.92 C 29.85 144.40 28.92 143.48 29.26 141.89 Z" />
</g>
<g id="#3e6e40ac">
<path fill="#3e6e40" stroke="#3e6e40" stroke-width="0.09375" opacity="0.67" d=" M 262.00 116.01 L 262.99 115.98 C 263.07 117.40 263.17 118.81 263.26 120.23 C 262.94 122.56 262.59 124.89 262.21 127.22 C 261.98 123.49 261.94 119.74 262.00 116.01 Z" />
</g>
<g id="#237d39fa">
<path fill="#237d39" stroke="#237d39" stroke-width="0.09375" opacity="0.98" d=" M 46.82 119.06 C 47.33 118.87 48.35 118.49 48.86 118.30 C 53.18 122.24 56.93 127.11 61.90 130.20 C 63.68 132.79 66.08 135.69 69.52 135.64 C 71.89 137.48 74.21 139.42 76.41 141.47 C 76.99 142.75 77.55 144.09 79.24 143.92 C 88.99 160.44 99.79 176.82 115.10 188.75 C 115.42 192.12 119.52 193.17 121.06 195.92 C 123.14 200.49 127.18 203.20 131.15 205.78 C 138.50 208.94 146.81 207.64 154.25 210.32 C 153.27 210.68 152.28 211.01 151.28 211.33 C 145.11 210.96 138.93 210.96 132.76 211.23 C 124.50 209.15 116.05 207.02 108.98 202.03 C 79.58 181.57 71.45 143.73 46.82 119.06 Z" />
</g>
<g id="#12210d30">
<path fill="#12210d" stroke="#12210d" stroke-width="0.09375" opacity="0.19" d=" M 299.02 119.01 L 300.00 118.98 L 300.00 128.99 L 299.05 129.00 C 299.01 125.99 299.01 123.00 298.99 120.00 L 299.02 119.01 Z" />
</g>
<g id="#426c3498">
<path fill="#426c34" stroke="#426c34" stroke-width="0.09375" opacity="0.60" d=" M 29.65 136.28 C 28.49 130.87 28.76 125.17 29.78 119.77 C 30.20 125.27 29.91 130.78 29.65 136.28 Z" />
</g>
<g id="#89bb34ff">
<path fill="#89bb34" stroke="#89bb34" stroke-width="0.09375" opacity="1.00" d=" M 191.00 131.89 C 192.75 128.02 193.36 123.75 194.74 119.74 C 194.79 121.39 195.05 123.08 194.68 124.71 C 191.72 136.77 189.60 149.20 183.73 160.29 C 184.15 162.62 182.35 164.17 181.54 166.09 C 181.91 170.19 178.56 173.05 177.25 176.66 C 175.96 179.45 172.11 180.84 173.86 184.89 C 176.06 183.90 178.12 182.66 180.66 182.56 C 188.50 176.90 192.45 167.71 196.05 159.06 C 196.48 157.63 197.91 156.99 199.22 156.60 C 200.62 158.92 198.34 161.27 197.57 163.44 C 193.91 173.91 186.71 183.56 176.56 188.45 C 172.81 188.84 168.88 189.63 165.96 192.18 C 165.04 191.17 163.30 190.54 163.13 189.07 C 165.07 185.73 165.04 181.75 166.23 178.14 C 173.06 161.97 188.29 149.85 191.00 131.89 Z" />
</g>
<g id="#559834dd">
<path fill="#559834" stroke="#559834" stroke-width="0.09375" opacity="0.87" d=" M 298.03 120.01 L 298.99 120.00 C 299.01 123.00 299.01 125.99 299.05 129.00 L 299.02 129.99 L 298.01 130.01 C 297.95 126.67 297.99 123.33 298.03 120.01 Z" />
</g>
<g id="#95bf32ff">
<path fill="#95bf32" stroke="#95bf32" stroke-width="0.09375" opacity="1.00" d=" M 19.40 127.17 C 20.39 125.92 21.57 124.86 22.82 123.89 C 23.39 129.46 23.95 135.03 24.54 140.60 C 27.22 154.88 33.71 168.00 38.27 181.71 C 39.68 185.25 40.53 189.09 42.88 192.18 C 43.12 192.65 43.62 193.59 43.86 194.06 C 44.34 197.60 45.54 201.06 44.81 204.71 C 44.19 206.81 42.52 205.30 41.29 204.70 C 30.24 180.17 19.90 154.46 19.40 127.17 Z" />
</g>
<g id="#287a38ee">
<path fill="#287a38" stroke="#287a38" stroke-width="0.09375" opacity="0.93" d=" M 2.04 128.81 C 2.49 128.94 3.39 129.20 3.84 129.34 C 3.11 137.55 6.30 146.27 3.64 154.26 C 2.58 149.93 1.90 145.52 1.79 141.05 C 1.82 139.31 1.86 135.83 1.89 134.08 C 1.94 132.32 1.99 130.56 2.04 128.81 Z" />
</g>
<g id="#3962298c">
<path fill="#396229" stroke="#396229" stroke-width="0.09375" opacity="0.55" d=" M 298.01 130.01 L 299.02 129.99 C 298.99 132.76 298.56 135.48 298.26 138.23 C 298.14 135.49 298.06 132.74 298.01 130.01 Z" />
</g>
<g id="#7eb836ff">
<path fill="#7eb836" stroke="#7eb836" stroke-width="0.09375" opacity="1.00" d=" M 178.08 150.10 C 184.25 145.57 186.24 137.63 191.00 131.89 C 188.29 149.85 173.06 161.97 166.23 178.14 C 165.04 181.75 165.07 185.73 163.13 189.07 C 163.30 190.54 165.04 191.17 165.96 192.18 C 164.98 192.84 163.92 193.35 162.90 193.94 C 161.71 194.49 160.49 194.97 159.24 195.34 C 156.31 195.27 152.31 195.99 151.80 192.35 C 152.32 192.42 153.34 192.55 153.86 192.62 C 156.17 187.34 153.56 181.66 154.44 176.20 C 155.22 172.84 154.94 168.98 157.08 166.10 C 159.63 163.94 161.32 160.45 165.09 160.21 C 171.38 159.82 173.62 153.42 178.08 150.10 Z" />
</g>
<g id="#72b137f9">
<path fill="#72b137" stroke="#72b137" stroke-width="0.09375" opacity="0.98" d=" M 207.35 132.13 C 210.37 130.98 210.11 134.36 210.86 136.32 C 206.77 151.25 202.81 166.47 195.32 180.13 C 187.75 183.46 183.58 192.36 175.00 194.00 C 171.12 194.46 166.13 197.41 162.90 193.94 C 163.92 193.35 164.98 192.84 165.96 192.18 C 168.88 189.63 172.81 188.84 176.56 188.45 C 186.71 183.56 193.91 173.91 197.57 163.44 C 198.34 161.27 200.62 158.92 199.22 156.60 C 201.74 148.38 204.68 140.30 207.35 132.13 Z" />
</g>
<g id="#326d35b3">
<path fill="#326d35" stroke="#326d35" stroke-width="0.09375" opacity="0.70" d=" M 260.76 138.76 C 261.07 136.43 261.42 134.10 261.80 131.78 C 262.17 139.92 262.03 148.08 261.73 156.23 C 261.46 154.74 260.93 151.77 260.67 150.29 C 260.89 146.44 261.11 142.60 260.76 138.76 Z" />
</g>
<g id="#244d2f8d">
<path fill="#244d2f" stroke="#244d2f" stroke-width="0.09375" opacity="0.55" d=" M 1.07 134.08 L 1.89 134.08 C 1.86 135.83 1.82 139.31 1.79 141.05 C 0.16 139.07 -0.08 136.75 1.07 134.08 Z" />
</g>
<g id="#0b140b1d">
<path fill="#0b140b" stroke="#0b140b" stroke-width="0.09375" opacity="0.11" d=" M 260.67 150.29 C 259.52 146.54 260.04 142.52 260.76 138.76 C 261.11 142.60 260.89 146.44 260.67 150.29 Z" />
</g>
<g id="#2f5a2985">
<path fill="#2f5a29" stroke="#2f5a29" stroke-width="0.09375" opacity="0.52" d=" M 271.86 176.15 C 272.37 176.13 273.39 176.09 273.91 176.07 C 276.68 176.11 279.46 176.18 282.25 176.28 C 278.70 177.37 275.23 177.32 271.86 176.15 Z" />
</g>
<g id="#5bac3afc">
<path fill="#5bac3a" stroke="#5bac3a" stroke-width="0.09375" opacity="1.00" d=" M 175.00 194.00 C 183.58 192.36 187.75 183.46 195.32 180.13 C 193.14 184.97 189.90 189.30 186.30 193.16 C 185.79 192.96 184.76 192.56 184.25 192.36 C 175.83 200.38 161.23 204.98 150.75 198.22 C 151.11 197.99 151.85 197.52 152.22 197.28 C 154.56 196.65 156.92 196.07 159.24 195.34 C 160.49 194.97 161.71 194.49 162.90 193.94 C 166.13 197.41 171.12 194.46 175.00 194.00 Z" />
</g>
<g id="#2f8d3bfc">
<path fill="#2f8d3b" stroke="#2f8d3b" stroke-width="0.09375" opacity="1.00" d=" M 115.10 188.75 C 118.73 190.79 122.44 192.68 126.05 194.78 C 127.39 197.76 131.45 197.16 133.11 199.90 C 138.44 206.12 147.26 207.66 155.01 206.26 C 158.76 206.72 162.60 206.02 166.25 207.33 C 162.43 208.93 158.29 209.56 154.25 210.32 C 146.81 207.64 138.50 208.94 131.15 205.78 C 127.18 203.20 123.14 200.49 121.06 195.92 C 119.52 193.17 115.42 192.12 115.10 188.75 Z" />
</g>
<g id="#4ba83bfc">
<path fill="#4ba83b" stroke="#4ba83b" stroke-width="0.09375" opacity="1.00" d=" M 184.25 192.36 C 184.76 192.56 185.79 192.96 186.30 193.16 C 182.82 197.13 178.63 200.37 174.17 203.18 C 169.43 201.29 164.42 204.06 159.70 204.59 C 150.54 205.56 142.86 200.37 134.75 197.25 C 140.06 197.92 145.40 198.08 150.75 198.22 C 161.23 204.98 175.83 200.38 184.25 192.36 Z" />
</g>
<g id="#3b9a3dfc">
<path fill="#3b9a3d" stroke="#3b9a3d" stroke-width="0.09375" opacity="1.00" d=" M 126.05 194.78 C 128.99 195.47 131.84 196.46 134.75 197.25 C 142.86 200.37 150.54 205.56 159.70 204.59 C 164.42 204.06 169.43 201.29 174.17 203.18 C 171.67 204.80 168.96 206.09 166.25 207.33 C 162.60 206.02 158.76 206.72 155.01 206.26 C 147.26 207.66 138.44 206.12 133.11 199.90 C 131.45 197.16 127.39 197.76 126.05 194.78 Z" />
</g>
<g id="#0b221240">
<path fill="#0b2212" stroke="#0b2212" stroke-width="0.09375" opacity="0.25" d=" M 132.76 211.23 C 138.93 210.96 145.11 210.96 151.28 211.33 C 145.33 213.10 138.80 211.94 132.76 211.23 Z" />
</g>
<g id="#22552a9a">
<path fill="#22552a" stroke="#22552a" stroke-width="0.09375" opacity="0.60" d=" M 31.73 218.20 C 34.91 218.10 38.09 218.20 41.27 218.28 C 38.38 219.68 34.62 219.08 31.73 218.20 Z" />
</g>
</svg>
