<?xml version="1.0" encoding="utf-8"?>
<!-- Generated by IcoMoon.io -->
<!DOCTYPE svg PUBLIC "-//W3C//DTD SVG 1.1//EN" "http://www.w3.org/Graphics/SVG/1.1/DTD/svg11.dtd">
<svg version="1.1" xmlns="http://www.w3.org/2000/svg" xmlns:xlink="http://www.w3.org/1999/xlink" width="24" height="24" viewBox="0 0 24 24">
<path fill="#edae15" d="M23.088 17.989c0.492 0 0.891-0.399 0.891-0.891v-10.197c0-0.492-0.399-0.891-0.891-0.891h-22.112c-0.492 0-0.891 0.399-0.891 0.891v10.197c0 0.492 0.399 0.891 0.891 0.891h22.112z"></path>
<path fill="#231f20" d="M22.972 17.738c0.206 0 0.399-0.080 0.544-0.225s0.225-0.339 0.225-0.544v-9.951c0-0.206-0.080-0.399-0.225-0.544s-0.339-0.225-0.544-0.225h-21.871c-0.424 0-0.77 0.345-0.77 0.769v9.951c0 0.206 0.080 0.399 0.225 0.544s0.339 0.225 0.544 0.225zM1.101 17.333c-0.097 0-0.189-0.038-0.258-0.107s-0.107-0.16-0.107-0.258v-9.951c0-0.097 0.038-0.189 0.107-0.258s0.16-0.107 0.258-0.107h21.871c0.097 0 0.189 0.038 0.258 0.107s0.107 0.16 0.107 0.258v9.951c0 0.201-0.163 0.365-0.365 0.365h-21.871z"></path>
<path fill="#231f20" d="M16.299 7.964c-0.311-0.266-0.843-0.355-1.154-0.089-0.222 0.222-0.311 0.488-0.222 0.844l0.635 1.644h-6.827l0.635-1.644c0.089-0.355 0-0.621-0.222-0.844-0.311-0.266-0.843-0.178-1.154 0.089l-5.846 4.044 5.765 4.108c0.311 0.266 0.843 0.355 1.154 0.089 0.222-0.222 0.311-0.488 0.222-0.843l-0.524-1.652-0.001-0.056h6.768l-0.001 0.056-0.525 1.652c-0.089 0.355 0 0.622 0.222 0.843 0.311 0.266 0.843 0.178 1.154-0.089l5.765-4.108-5.846-4.044z"></path>
</svg>
