<?xml version="1.0" encoding="utf-8"?>
<!-- Generated by IcoMoon.io -->
<!DOCTYPE svg PUBLIC "-//W3C//DTD SVG 1.1//EN" "http://www.w3.org/Graphics/SVG/1.1/DTD/svg11.dtd">
<svg version="1.1" xmlns="http://www.w3.org/2000/svg" xmlns:xlink="http://www.w3.org/1999/xlink" width="16" height="24" viewBox="0 0 16 24">
<path fill="#fff" d="M15.986 23.072c0 0.489-0.397 0.885-0.885 0.885h-14.172c-0.489 0-0.886-0.396-0.886-0.885v-22.144c0-0.489 0.396-0.886 0.886-0.886h14.172c0.489 0 0.885 0.397 0.885 0.886v22.144z"></path>
<path fill="#19408b" d="M15.596 0.928c0-0.274-0.222-0.496-0.496-0.496h-14.172c-0.274 0-0.496 0.222-0.496 0.496v22.144c0 0.274 0.222 0.496 0.496 0.496h14.172c0.274 0 0.496-0.222 0.496-0.496v-22.144z"></path>
<path fill="#fff" d="M3.674 14.658v-5.315h2.658v1.771h4.251v-9.566h1.771v20.815h-1.771v-9.478h-4.251v1.772h-2.658z"></path>
<path fill="#e41408" d="M3.94 9.609h2.126v4.783h-2.126v-4.783z"></path>
</svg>
