<?xml version="1.0" encoding="utf-8"?>
<!-- Generated by IcoMoon.io -->
<!DOCTYPE svg PUBLIC "-//W3C//DTD SVG 1.1//EN" "http://www.w3.org/Graphics/SVG/1.1/DTD/svg11.dtd">
<svg version="1.1" xmlns="http://www.w3.org/2000/svg" xmlns:xlink="http://www.w3.org/1999/xlink" width="24" height="24" viewBox="0 0 24 24">
<path fill="#2665ab" stroke="#2665ab" stroke-width="3.2325" stroke-miterlimit="4" stroke-linecap="square" stroke-linejoin="round" d="M1.616 1.616h20.768v20.768h-20.768v-20.768z"></path>
<path fill="#fff" stroke="#fff" stroke-width="2.0365" stroke-miterlimit="4" stroke-linecap="square" stroke-linejoin="round" d="M1.616 1.616h20.768v20.768h-20.768v-20.768z"></path>
<path fill="#2665ab" stroke="#2665ab" stroke-width="0.9698" stroke-miterlimit="4" stroke-linecap="square" stroke-linejoin="round" d="M1.616 1.616h20.768v20.768h-20.768v-20.768z"></path>
<path fill="#fff" d="M12.015 3.604l-10.11 16.405h20.219l-10.11-16.405z"></path>
<path fill="#000" d="M12.015 16.017c-0.355-0-0.709 0.045-1.064 0.136-0.71 0.182-1.419 0.539-2.128 0.921s-1.419 0.777-2.128 1.016c-0.232 0.078-0.464 0.139-0.697 0.181h-1.433v0.631h14.9v-0.631h-1.432c-0.232-0.042-0.464-0.103-0.697-0.181-0.709-0.239-1.419-0.634-2.128-1.016s-1.42-0.739-2.13-0.921c-0.355-0.091-0.709-0.136-1.064-0.136z"></path>
</svg>
