<?xml version="1.0" encoding="utf-8"?>
<!-- Generated by IcoMoon.io -->
<!DOCTYPE svg PUBLIC "-//W3C//DTD SVG 1.1//EN" "http://www.w3.org/Graphics/SVG/1.1/DTD/svg11.dtd">
<svg version="1.1" xmlns="http://www.w3.org/2000/svg" xmlns:xlink="http://www.w3.org/1999/xlink" width="24" height="24" viewBox="0 0 24 24">
<path fill="#fff" d="M2.465 22.715c0 0.678 0.549 1.195 1.228 1.195h16.607c0.678 0 1.227-0.517 1.227-1.195v-21.421c0-0.679-0.549-1.228-1.227-1.228h-16.607c-0.678 0-1.228 0.549-1.228 1.228v21.421z"></path>
<path fill="#000" d="M14.549 18.805h0.323l-1.357 3.167h-0.323l1.357-3.167zM15.422 18.805h0.614v1.002l0.129-0.097 0.258-0.13 0.162-0.032h0.323l0.13 0.032 0.097 0.065 0.129 0.065 0.097 0.129 0.065 0.097 0.065 0.129 0.065 0.161v1.745h-0.582v-1.422l-0.032-0.097-0.033-0.097-0.032-0.097-0.065-0.064-0.097-0.065-0.097-0.032h-0.194l-0.097 0.032-0.097 0.032-0.065 0.065-0.065 0.097-0.032 0.097-0.032 0.129v1.422h-0.614v-3.167zM8.475 19.613l-0.872 0.904 0.937 1.454h-0.743l-0.614-1.034-0.291 0.226v0.808h-0.614v-3.167h0.614v1.68l0.839-0.872h0.743zM10.801 19.613l0.129 0.064 0.097 0.097 0.097 0.097 0.097-0.097 0.097-0.097 0.129-0.064 0.129-0.065 0.162-0.033h0.129l0.259 0.065 0.129 0.065 0.097 0.065 0.097 0.097 0.097 0.13 0.065 0.097 0.032 0.162v1.777h-0.614v-1.615l-0.032-0.097-0.065-0.064-0.065-0.065-0.097-0.065h-0.194l-0.097 0.033-0.064 0.032-0.065 0.097-0.065 0.065-0.032 0.097v1.583h-0.646v-1.615l-0.032-0.097-0.065-0.064-0.097-0.065-0.065-0.065h-0.193l-0.097 0.033-0.065 0.032-0.097 0.097-0.033 0.065-0.032 0.097-0.032 0.097v1.487h-0.582v-2.358h0.549l0.032 0.161 0.162-0.097 0.129-0.064 0.161-0.065h0.42l0.129 0.065zM3.273 22.682c0 0.259 0.194 0.42 0.42 0.42h16.64c0.226 0 0.388-0.161 0.388-0.42v-21.421c0-0.226-0.162-0.388-0.388-0.388h-16.64c-0.226 0-0.42 0.161-0.42 0.388v21.421zM2.788 22.682v-21.421c0-0.485 0.42-0.872 0.904-0.872h16.64c0.485 0 0.872 0.388 0.872 0.872v21.421c0 0.517-0.388 0.905-0.872 0.905h-16.64c-0.484 0-0.904-0.387-0.904-0.905v0z"></path>
<path fill="#000" d="M11.432 2.46h0.354v2.355h-0.354v-2.355zM7.755 3.75c0 0 0 0.032 0.032 0.032h0.42v-0.032l-0.194-0.612c0-0.033-0.032-0.033-0.032-0.033s0 0.033-0.032 0.033l-0.194 0.58v0.032zM15.078 2.46h0.354v1.645c0.032 0.161 0.128 0.29 0.258 0.354 0.033 0.032 0.129 0.065 0.193 0.065 0.226 0 0.419-0.193 0.419-0.419v-1.645h0.355v1.677c0 0.29-0.193 0.58-0.516 0.71-0.097 0.032-0.193 0.032-0.291 0.032-0.484 0-0.773-0.451-0.773-0.71v-1.709zM9.336 4.815l0.613-1.194v-0.032l-0.549-1.129h0.387l0.355 0.678h0.032l0.323-0.678h0.419l-0.549 1.129v0.032l0.58 1.194h-0.419l-0.355-0.742h-0.032c0 0 0 0-0.033 0l-0.355 0.742h-0.419zM12.529 4.815v-2.355h0.356l0.547 1.322h0.033l0.516-1.322h0.387v2.355h-0.387v-1.258c-0.033 0-0.033 0.032-0.033 0.032l-0.516 1.226-0.483-1.258h-0.032c0 0-0.032 0-0.032 0.032v1.226h-0.356zM4.788 4.815v-2.355h0.387l0.516 1.322h0.032l0.516-1.322h0.387v2.355h-0.387v-1.258c-0.033 0-0.033 0.032-0.033 0.032l-0.516 1.226-0.484-1.258h-0.032c0 0-0.033 0-0.033 0.032v1.226h-0.355zM17.368 4.815v-2.355h0.387l0.516 1.322h0.065l0.516-1.322h0.354v2.355h-0.354v-1.226c0-0.032-0.032-0.032-0.032-0.032s0 0.032-0.032 0.032l-0.484 1.226-0.516-1.258c-0.032 0-0.032 0-0.032 0.032v1.226h-0.387zM6.981 4.815l0.806-2.355h0.387l0.806 2.355h-0.387l-0.226-0.646c0 0 0-0.032-0.033-0.032h-0.71c0 0 0 0.032-0.032 0.032l-0.226 0.646h-0.387z"></path>
<path fill="#000" d="M6.259 14.636c0.243-0.577 0.816-1.188 1.72-1.833 0.784-0.561 1.292-0.963 1.523-1.206 0.354-0.378 0.532-0.792 0.532-1.242 0-0.366-0.102-0.671-0.305-0.914s-0.494-0.364-0.872-0.364c-0.518 0-0.87 0.193-1.057 0.579-0.108 0.223-0.171 0.577-0.191 1.063h-1.654c0.028-0.737 0.161-1.332 0.4-1.786 0.454-0.864 1.26-1.296 2.419-1.296 0.916 0 1.644 0.254 2.186 0.761s0.812 1.179 0.812 2.016c0 0.641-0.191 1.21-0.573 1.708-0.251 0.33-0.663 0.699-1.236 1.105l-0.681 0.484c-0.426 0.303-0.718 0.522-0.875 0.657s-0.29 0.293-0.397 0.472h3.78v1.499h-5.93c0.016-0.621 0.149-1.188 0.4-1.702v0zM14.644 14.377c0.163 0.528 0.498 0.791 1.003 0.791s0.837-0.264 0.994-0.791c0.157-0.528 0.236-1.289 0.236-2.284 0-1.043-0.079-1.815-0.236-2.317s-0.489-0.752-0.994-0.752c-0.506 0-0.84 0.251-1.003 0.752s-0.245 1.274-0.245 2.317c0 0.995 0.082 1.757 0.245 2.284v0zM17.967 8.784c0.444 0.776 0.666 1.879 0.666 3.309s-0.222 2.53-0.666 3.303c-0.444 0.772-1.217 1.159-2.32 1.159s-1.876-0.386-2.32-1.159c-0.444-0.772-0.666-1.873-0.666-3.303s0.222-2.532 0.666-3.309c0.444-0.776 1.217-1.165 2.32-1.165s1.876 0.388 2.32 1.165v0z"></path>
</svg>
