<?xml version="1.0" encoding="utf-8"?>
<!-- Generated by IcoMoon.io -->
<!DOCTYPE svg PUBLIC "-//W3C//DTD SVG 1.1//EN" "http://www.w3.org/Graphics/SVG/1.1/DTD/svg11.dtd">
<svg version="1.1" xmlns="http://www.w3.org/2000/svg" xmlns:xlink="http://www.w3.org/1999/xlink" width="24" height="24" viewBox="0 0 24 24">
<path fill="#000" d="M23.984 21.461c0 1.393-1.13 2.523-2.523 2.523h-18.922c-1.394 0-2.523-1.13-2.523-2.523v-18.922c0-1.393 1.129-2.523 2.523-2.523h18.922c1.393 0 2.523 1.13 2.523 2.523z"></path>
<path fill="#fff" d="M23.827 21.461c0 1.306-1.059 2.365-2.365 2.365h-18.922c-1.307 0-2.365-1.059-2.365-2.365v-18.922c0-1.306 1.059-2.365 2.365-2.365h18.922c1.306 0 2.365 1.059 2.365 2.365z"></path>
<path fill="#c0111e" d="M23.59 12c0 6.401-5.189 11.59-11.59 11.59s-11.59-5.189-11.59-11.59c0-6.401 5.189-11.59 11.59-11.59s11.59 5.189 11.59 11.59z"></path>
<path fill="#fff" d="M21.619 12c0 5.312-4.307 9.619-9.619 9.619s-9.619-4.307-9.619-9.619c0-5.312 4.307-9.619 9.619-9.619s9.619 4.307 9.619 9.619z"></path>
<path fill="#000" d="M6.796 19.293v-9.382c0-2.874 2.33-5.204 5.204-5.204s5.204 2.33 5.204 5.204v5.007l-1.459 1.459-1.459-1.459h-2.286v4.376z"></path>
<path fill="#fff" d="M9.714 19.648v-9.737c0-1.263 1.024-2.286 2.286-2.286s2.286 1.024 2.286 2.286v9.737z"></path>
<path fill="#c0111e" d="M19.443 3.163l1.394 1.394-16.279 16.279-1.394-1.394 16.279-16.279z"></path>
</svg>
