<?xml version="1.0" encoding="utf-8"?>
<!-- Generated by IcoMoon.io -->
<!DOCTYPE svg PUBLIC "-//W3C//DTD SVG 1.1//EN" "http://www.w3.org/Graphics/SVG/1.1/DTD/svg11.dtd">
<svg version="1.1" xmlns="http://www.w3.org/2000/svg" xmlns:xlink="http://www.w3.org/1999/xlink" width="24" height="24" viewBox="0 0 24 24">
<path fill="#e22526" d="M11.965 0.083c-6.582 0-11.918 5.336-11.918 11.917s5.336 11.918 11.918 11.918c6.582 0 11.917-5.336 11.917-11.918s-5.336-11.917-11.917-11.917z"></path>
<path fill="#fff" d="M20.532 12c0-4.731-3.835-8.567-8.567-8.567s-8.567 3.836-8.567 8.567c0 4.731 3.836 8.567 8.567 8.567s8.567-3.836 8.567-8.567z"></path>
<path fill="#231f20" d="M18.246 11.347l-0.696-0.696-1.142-2.815c-0.022-0.004-2.418-0.378-4.434-0.378s-4.412 0.374-4.434 0.378l-1.142 2.815-0.696 0.696v2.759l0.747 0.747h0.182v1.783c0 0.178 0.145 0.323 0.323 0.323h0.933c0.178 0 0.323-0.145 0.323-0.323v-1.783h7.528v1.783c0 0.178 0.145 0.323 0.323 0.323h0.933c0.178 0 0.323-0.145 0.323-0.323v-1.783h0.182l0.747-0.747zM8.73 13.137h-2.207c-0.089 0-0.162-0.073-0.162-0.162v-1.22c0-0.089 0.073-0.162 0.162-0.162h1.866c0.089 0 0.177 0.071 0.196 0.158l0.271 1.228c0.019 0.087-0.038 0.158-0.127 0.158zM7.926 8.32c0.53-0.077 2.371-0.324 4.048-0.324s3.518 0.248 4.048 0.324l0.974 2.45c0 0-3.568-0.289-5.022-0.289s-5.022 0.289-5.022 0.289zM17.425 13.137h-2.207c-0.089 0-0.146-0.071-0.127-0.158l0.271-1.228c0.019-0.087 0.108-0.158 0.196-0.158h1.866c0.089 0 0.162 0.073 0.162 0.162v1.22c0 0.089-0.073 0.162-0.162 0.162z"></path>
</svg>
