<?xml version="1.0" encoding="utf-8"?>
<!-- Generated by IcoMoon.io -->
<!DOCTYPE svg PUBLIC "-//W3C//DTD SVG 1.1//EN" "http://www.w3.org/Graphics/SVG/1.1/DTD/svg11.dtd">
<svg version="1.1" xmlns="http://www.w3.org/2000/svg" xmlns:xlink="http://www.w3.org/1999/xlink" width="24" height="24" viewBox="0 0 24 24">
<path fill="#fff" d="M20.426 23.936c0.81 0 1.276-0.491 1.276-1.252v-21.402c0-0.761-0.466-1.252-1.276-1.252h-16.788c-0.81 0-1.276 0.491-1.276 1.252v21.402c0 0.761 0.466 1.252 1.276 1.252h16.788z"></path>
<path fill="#231f20" d="M20.426 23.397h-16.788c-0.442 0-0.736-0.27-0.736-0.712v-21.402c0-0.442 0.295-0.712 0.736-0.712h16.788c0.442 0 0.736 0.27 0.736 0.712v21.402c0 0.442-0.294 0.712-0.736 0.712zM20.672 1.283c0-0.147-0.098-0.221-0.246-0.221h-16.788c-0.147 0-0.245 0.074-0.245 0.221v21.402c0 0.147 0.098 0.221 0.245 0.221h16.788c0.147 0 0.246-0.074 0.246-0.221zM15.819 3.342h1.579c0.612 0 1.075 0.487 1.075 1.11 0 0.612-0.481 1.116-1.069 1.116h-0.962v1.728h-0.623zM17.363 4.934c0.333-0.006 0.499-0.166 0.499-0.505 0-0.279-0.19-0.475-0.463-0.475h-0.956v0.991zM6.199 3.342h0.606v1.591l1.282-1.591h0.772l-1.199 1.532 1.247 2.423h-0.695l-0.98-1.882-0.428 0.522v1.36h-0.606zM9.632 3.342h2.28v0.617h-1.662v0.986h1.14v0.624h-1.14v1.098h1.799v0.629h-2.417zM12.769 3.342h2.28v0.617h-1.662v0.986h1.14v0.624h-1.14v1.098h1.799v0.629h-2.417zM6.498 16.134h0.612v3.396h1.787v0.558h-2.399zM9.341 16.134h2.28v0.618h-1.663v0.986h1.14v0.623h-1.14v1.098h1.799v0.629h-2.417zM12.391 16.134h2.411v0.618h-1.787v0.992h1.146v0.612h-1.14v1.734h-0.629zM16.296 16.692h-0.891v-0.558h2.411v0.558h-0.891v3.396h-0.629zM9.848 13.137l0.393 1.203c0.098 0.245 0 0.466-0.196 0.614-0.147 0.098-0.368 0.098-0.589-0.074l-4.197-2.896 4.197-2.921c0.221-0.147 0.442-0.147 0.589-0.049 0.196 0.123 0.295 0.344 0.196 0.614l-0.393 1.203h8.296v2.307h-8.296z"></path>
</svg>
