<?xml version="1.0" encoding="utf-8"?>
<!-- Generated by IcoMoon.io -->
<!DOCTYPE svg PUBLIC "-//W3C//DTD SVG 1.1//EN" "http://www.w3.org/Graphics/SVG/1.1/DTD/svg11.dtd">
<svg version="1.1" xmlns="http://www.w3.org/2000/svg" xmlns:xlink="http://www.w3.org/1999/xlink" width="16" height="24" viewBox="0 0 16 24">
<path fill="#fff" d="M1.654 0.062h12.522c0.876 0 1.592 0.716 1.592 1.592v20.692c0 0.876-0.716 1.592-1.592 1.592h-12.522c-0.876 0-1.592-0.716-1.592-1.592v-20.692c0-0.876 0.716-1.592 1.592-1.592z"></path>
<path fill="#000" d="M1.739 0.476h12.352c0.695 0 1.263 0.568 1.263 1.263v20.522c0 0.694-0.568 1.263-1.263 1.263h-12.352c-0.695 0-1.263-0.569-1.263-1.263v-20.522c0-0.695 0.568-1.263 1.263-1.263z"></path>
<path fill="#fff" d="M14.087 0.846h-12.343c-0.495 0-0.898 0.403-0.898 0.897v20.513c0 0.495 0.403 0.898 0.898 0.898h12.343c0.495 0 0.897-0.403 0.897-0.898v-20.513c0-0.495-0.402-0.897-0.897-0.897z"></path>
<path fill="#000" d="M5.318 18.349c-0.077 0.035-0.177 0.057-0.306 0.057h-0.308v0.726h-0.264v-1.666h0.572c0.134 0 0.224 0.012 0.306 0.052 0.144 0.070 0.256 0.246 0.256 0.415 0 0.176-0.112 0.351-0.256 0.415zM5.206 17.76c-0.047-0.025-0.077-0.030-0.159-0.030h-0.343v0.408h0.343c0.082 0 0.112-0.005 0.159-0.027 0.057-0.030 0.099-0.107 0.099-0.176s-0.042-0.139-0.099-0.174z"></path>
<path fill="#000" d="M6.753 19.132v-0.726h-0.607v0.726h-0.264v-1.666h0.264v0.671h0.607v-0.671h0.264v1.666h-0.264z"></path>
<path fill="#000" d="M8.441 18.976c-0.095 0.127-0.229 0.186-0.403 0.186-0.234 0-0.38-0.095-0.48-0.298-0.070-0.142-0.117-0.363-0.117-0.562 0-0.273 0.070-0.52 0.182-0.679 0.099-0.127 0.234-0.186 0.425-0.186 0.211 0 0.358 0.095 0.463 0.298 0.070 0.147 0.112 0.358 0.112 0.567 0 0.263-0.065 0.527-0.181 0.674zM8.26 17.834c-0.052-0.087-0.117-0.122-0.216-0.129-0.005 0-0.010 0-0.015 0-0.119 0-0.199 0.065-0.254 0.206-0.042 0.099-0.065 0.251-0.065 0.39 0 0.177 0.035 0.358 0.099 0.463 0.052 0.087 0.122 0.129 0.229 0.129 0.122 0 0.199-0.065 0.256-0.211 0.035-0.087 0.065-0.251 0.065-0.38 0-0.187-0.035-0.356-0.099-0.467z"></path>
<path fill="#000" d="M9.55 17.7v1.432h-0.264v-1.432h-0.38v-0.234h1.029v0.234h-0.385z"></path>
<path fill="#000" d="M11.209 18.976c-0.095 0.127-0.229 0.186-0.403 0.186-0.234 0-0.38-0.095-0.48-0.298-0.070-0.142-0.117-0.363-0.117-0.562 0-0.273 0.070-0.52 0.181-0.679 0.099-0.127 0.234-0.186 0.425-0.186 0.211 0 0.358 0.095 0.463 0.298 0.070 0.147 0.112 0.358 0.112 0.567-0 0.263-0.065 0.527-0.182 0.674zM11.027 17.834c-0.052-0.087-0.117-0.122-0.216-0.129-0.005 0-0.010 0-0.015 0-0.119 0-0.199 0.065-0.254 0.206-0.042 0.099-0.065 0.251-0.065 0.39 0 0.177 0.035 0.358 0.099 0.463 0.052 0.087 0.122 0.129 0.229 0.129 0.122 0 0.199-0.065 0.256-0.211 0.035-0.087 0.065-0.251 0.065-0.38 0-0.187-0.035-0.356-0.1-0.467z"></path>
<path fill="#000" d="M5.44 2.515h4.951v13.556h-4.951z"></path>
<path fill="#af1e2d" d="M7.915 3.131c1.025 0 1.862 0.831 1.862 1.85s-0.836 1.85-1.862 1.85c-1.025 0-1.862-0.831-1.862-1.85s0.836-1.85 1.862-1.85z"></path>
<path fill="#ffd033" d="M7.915 7.438c1.025 0 1.862 0.832 1.862 1.85s-0.836 1.851-1.862 1.851-1.862-0.832-1.862-1.851c0-1.019 0.836-1.85 1.862-1.85z"></path>
<path fill="#006649" d="M7.915 11.757c1.025 0 1.862 0.83 1.862 1.85s-0.836 1.85-1.862 1.85-1.862-0.831-1.862-1.85c0-1.020 0.836-1.85 1.862-1.85z"></path>
<path fill="#000" d="M2.214 21.974v-1.666h0.982v0.264h-0.719v0.408h0.485v0.269h-0.485v0.458h0.771v0.269h-1.034z"></path>
<path fill="#000" d="M4.491 21.974l-0.637-1.129v1.129h-0.264v-1.666h0.264l0.607 1.064v-1.064h0.264v1.666h-0.234z"></path>
<path fill="#000" d="M5.449 20.572v0.408h0.485v0.269h-0.485v0.726h-0.264v-1.666h1.034v0.264h-0.771z"></path>
<path fill="#000" d="M7.492 21.817c-0.094 0.127-0.229 0.186-0.403 0.186-0.234 0-0.38-0.095-0.48-0.298-0.070-0.142-0.117-0.363-0.117-0.562 0-0.273 0.070-0.52 0.182-0.679 0.099-0.127 0.234-0.186 0.425-0.186 0.211 0 0.358 0.095 0.462 0.298 0.070 0.147 0.112 0.358 0.112 0.567-0 0.264-0.065 0.527-0.182 0.674zM7.311 20.676c-0.052-0.087-0.117-0.122-0.216-0.129-0.005 0-0.010 0-0.015 0-0.119 0-0.199 0.065-0.254 0.206-0.042 0.099-0.065 0.251-0.065 0.39 0 0.177 0.035 0.358 0.099 0.463 0.052 0.087 0.122 0.129 0.229 0.129 0.122 0 0.199-0.065 0.256-0.211 0.035-0.087 0.065-0.251 0.065-0.38 0-0.187-0.035-0.356-0.099-0.467z"></path>
<path fill="#000" d="M8.952 21.974l-0.269-0.726h-0.316v0.726h-0.264v-1.666h0.55c0.129 0 0.216 0.012 0.298 0.052 0.147 0.070 0.251 0.246 0.251 0.415 0 0.176-0.104 0.351-0.259 0.42l0.293 0.778h-0.286zM8.835 20.601c-0.045-0.025-0.065-0.030-0.152-0.030h-0.316v0.408h0.316c0.082 0 0.109-0.005 0.152-0.027 0.065-0.037 0.104-0.107 0.104-0.176s-0.040-0.139-0.104-0.174z"></path>
<path fill="#000" d="M10.178 22.004c-0.246 0-0.403-0.095-0.51-0.298-0.075-0.147-0.122-0.358-0.122-0.567 0-0.264 0.070-0.527 0.186-0.674 0.099-0.122 0.239-0.186 0.428-0.186 0.251 0 0.408 0.107 0.52 0.341l-0.246 0.104c-0.092-0.142-0.147-0.176-0.274-0.176-0.134 0-0.224 0.060-0.281 0.206-0.042 0.099-0.065 0.244-0.065 0.385 0 0.182 0.040 0.363 0.105 0.468 0.060 0.087 0.134 0.129 0.251 0.129 0.112 0 0.194-0.060 0.259-0.194l0.251 0.095c-0.1 0.244-0.264 0.368-0.502 0.368z"></path>
<path fill="#000" d="M11.105 21.974v-1.666h0.982v0.264h-0.719v0.408h0.485v0.269h-0.485v0.458h0.771v0.269h-1.034z"></path>
<path fill="#000" d="M13.324 21.879c-0.062 0.060-0.152 0.089-0.239 0.095-0.017 0-0.052 0-0.095 0h-0.507v-1.666h0.537c0.169 0 0.234 0.017 0.323 0.087 0.174 0.152 0.273 0.415 0.273 0.743-0 0.333-0.105 0.597-0.293 0.741zM13.214 20.641c-0.042-0.040-0.099-0.070-0.169-0.070h-0.298v1.134h0.264c0.087 0 0.139-0.017 0.186-0.065 0.099-0.099 0.152-0.281 0.152-0.502 0-0.224-0.052-0.41-0.134-0.497z"></path>
</svg>
