<?xml version="1.0" encoding="utf-8"?>
<!-- Generated by IcoMoon.io -->
<!DOCTYPE svg PUBLIC "-//W3C//DTD SVG 1.1//EN" "http://www.w3.org/Graphics/SVG/1.1/DTD/svg11.dtd">
<svg version="1.1" xmlns="http://www.w3.org/2000/svg" xmlns:xlink="http://www.w3.org/1999/xlink" width="24" height="24" viewBox="0 0 24 24">
<path fill="#c50000" d="M12.544 0.023c-6.635-0.301-12.219 4.798-12.521 11.433s4.798 12.219 11.433 12.521c6.635 0.301 12.219-4.798 12.521-11.433s-4.798-12.219-11.433-12.521z"></path>
<path fill="#fff" d="M12.44 2.305v0c-5.355-0.243-9.893 3.9-10.136 9.255v0c-0.243 5.355 3.9 9.893 9.255 10.136v0c5.355 0.243 9.893-3.9 10.136-9.255v0c0.243-5.355-3.9-9.893-9.255-10.136z"></path>
<path fill="#000" d="M6.417 5.769h11.166v10.041h-11.166v-10.041z"></path>
<path fill="#000" d="M6.417 15.883h11.166v0.886h-11.166v-0.886z"></path>
<path fill="#000" d="M15.035 16.84h1.099v2.092h-1.099v-2.092z"></path>
<path fill="#000" d="M16.17 16.84h1.099v2.092h-1.099v-2.092z"></path>
<path fill="#000" d="M6.731 16.84h1.099v2.092h-1.099v-2.092z"></path>
<path fill="#000" d="M7.928 16.84h1.099v2.092h-1.099v-2.092z"></path>
<path fill="#fff" d="M9.403 6.043h5.193v0.532h-5.193v-0.532z"></path>
<path fill="#fff" d="M7.134 6.916h4.591v5.973h-4.591v-5.973z"></path>
<path fill="#fff" d="M12.274 6.916h4.591v5.973h-4.591v-5.973z"></path>
<path fill="#fff" d="M8.668 14.529c0 0.343-0.278 0.62-0.62 0.62s-0.62-0.278-0.62-0.62c0-0.343 0.278-0.62 0.62-0.62s0.62 0.278 0.62 0.62z"></path>
<path fill="#fff" d="M16.573 14.529c0 0.343-0.278 0.62-0.62 0.62s-0.62-0.278-0.62-0.62c0-0.343 0.278-0.62 0.62-0.62s0.62 0.278 0.62 0.62z"></path>
</svg>
