<?xml version="1.0" encoding="utf-8"?>
<!-- Generated by IcoMoon.io -->
<!DOCTYPE svg PUBLIC "-//W3C//DTD SVG 1.1//EN" "http://www.w3.org/Graphics/SVG/1.1/DTD/svg11.dtd">
<svg version="1.1" xmlns="http://www.w3.org/2000/svg" xmlns:xlink="http://www.w3.org/1999/xlink" width="24" height="24" viewBox="0 0 24 24">
<path fill="#ce252c" d="M12 0.005c6.625 0 11.995 5.37 11.995 11.995s-5.37 11.995-11.995 11.995c-6.625 0-11.995-5.37-11.995-11.995s5.37-11.995 11.995-11.995z"></path>
<path fill="#ffd100" d="M12 2.804c5.079 0 9.196 4.117 9.196 9.196s-4.117 9.196-9.196 9.196c-5.079 0-9.196-4.117-9.196-9.196s4.117-9.196 9.196-9.196z"></path>
<path fill="#000" d="M9.281 14.593c0.095-0.005 0.189-0.009 0.284-0.014 0.059 0.143 0.077 0.3 0.053 0.453-0.014 0.068-0.043 0.131-0.086 0.186-0.046 0.049-0.105 0.085-0.17 0.105-0.11 0.035-0.228 0.043-0.342 0.023-0.529-0.068-1.059-0.13-1.59-0.186-0.071 0-0.137 0.036-0.176 0.095s-0.044 0.134-0.016 0.199l0.23 0.517c-0.684-0.173-1.406 0.067-1.851 0.614l0.325 0.264c-0.366 0.45-0.415 1.078-0.125 1.58s0.861 0.771 1.433 0.677c0.572-0.094 1.026-0.531 1.142-1.099l0.41 0.083c0.072-0.355 0.036-0.724-0.103-1.058l0.512 0.511v0.802h3.073c0.268 0.545 0.858 0.853 1.458 0.764s1.074-0.557 1.171-1.157c0.097-0.599-0.204-1.192-0.746-1.467h1.167l-0.213-0.698h-2.423c-0.66-0.919-1.546-1.652-2.572-2.13-0.021-0.148-0.066-0.292-0.135-0.426-0.075-0.159-0.207-0.284-0.369-0.351-0.313-0.11-0.659 0.022-0.821 0.311-0.054 0.098-0.075 0.21-0.060 0.321 0.017 0.25 0.082 0.494 0.191 0.719 0.034 0.112 0.097 0.214 0.181 0.295 0.048 0.039 0.106 0.062 0.167 0.065z"></path>
<path fill="#ce252c" opacity="0.99" d="M2.051 6.132l1.032-1.474 18.866 13.21-1.032 1.474z"></path>
<path fill="#000" d="M14.792 4.407c-0.624 0-1.248 0.075-1.858 0.225-0.193 0.047-0.357 0.175-0.45 0.35l-0.801 1.506c-0.47 0.392-0.686 1.012-0.561 1.612l0.25 0.935v0.851c0 0.242 0.13 0.465 0.34 0.586s0.468 0.119 0.676-0.004 0.335-0.347 0.333-0.589v-0.442h4.14v0.442c-0.003 0.242 0.124 0.467 0.333 0.589s0.466 0.124 0.676 0.004c0.21-0.12 0.34-0.344 0.34-0.586v-0.851l0.25-0.935c0.125-0.6-0.090-1.22-0.561-1.612l-0.801-1.506c-0.093-0.175-0.257-0.303-0.45-0.35-0.61-0.15-1.234-0.225-1.858-0.225z"></path>
<path fill="#ffd100" d="M17.092 6.454h-4.599l0.603-1.134c1.113-0.287 2.28-0.287 3.393 0l0.603 1.134z"></path>
</svg>
