<?xml version="1.0" encoding="utf-8"?>
<!-- Generated by IcoMoon.io -->
<!DOCTYPE svg PUBLIC "-//W3C//DTD SVG 1.1//EN" "http://www.w3.org/Graphics/SVG/1.1/DTD/svg11.dtd">
<svg version="1.1" xmlns="http://www.w3.org/2000/svg" xmlns:xlink="http://www.w3.org/1999/xlink" width="24" height="24" viewBox="0 0 24 24">
<path fill="#c50000" d="M12.544 0.023c-6.635-0.301-12.219 4.798-12.521 11.433s4.798 12.219 11.433 12.521c6.635 0.301 12.219-4.798 12.521-11.433s-4.798-12.219-11.433-12.521z"></path>
<path fill="#fff" d="M12.44 2.305v0c-5.355-0.243-9.893 3.9-10.136 9.255v0c-0.243 5.355 3.901 9.893 9.255 10.136v0c5.355 0.243 9.893-3.9 10.136-9.255v0c0.243-5.355-3.9-9.893-9.255-10.136z"></path>
<path fill="#000" d="M6.378 5.118c0.345 0.341 9.583 9.464 9.583 9.463 0.004-0.004 0.045-0.081 0.312-0.595 0.145-0.28 0.272-0.521 0.281-0.535 0.012-0.019 0.026-0.036 0.058-0.067 0.051-0.049 0.081-0.068 0.142-0.090 0.117-0.042 0.241-0.025 0.351 0.047 0.028 0.018 0.039 0.031 0.078 0.072 0.052 0.054 0.074 0.083 0.092 0.132 0.007 0.019 0.816 4.142 0.911 4.639 0.003 0.014 0.005 0.025 0.005 0.026-0 0.002-0.506-0.089-3.208-0.582-0.793-0.145-1.453-0.269-1.469-0.274-0.050-0.017-0.080-0.037-0.135-0.088-0.041-0.038-0.054-0.050-0.073-0.077-0.087-0.131-0.093-0.288-0.019-0.422 0.022-0.040 0.086-0.108 0.122-0.132 0.014-0.009 0.253-0.139 0.531-0.288 0.512-0.274 0.588-0.316 0.592-0.32 0-0-9.237-9.123-9.582-9.464l1.427-1.445z"></path>
</svg>
