<?xml version="1.0" encoding="utf-8"?>
<!-- Generated by IcoMoon.io -->
<!DOCTYPE svg PUBLIC "-//W3C//DTD SVG 1.1//EN" "http://www.w3.org/Graphics/SVG/1.1/DTD/svg11.dtd">
<svg version="1.1" xmlns="http://www.w3.org/2000/svg" xmlns:xlink="http://www.w3.org/1999/xlink" width="24" height="24" viewBox="0 0 24 24">
<path fill="#fee011" d="M0.342 12.83l10.828 10.828c0.456 0.457 1.203 0.457 1.659 0l10.828-10.828c0.456-0.456 0.456-1.203 0-1.659l-10.828-10.828c-0.457-0.456-1.203-0.456-1.659 0l-10.828 10.828c-0.456 0.457-0.456 1.203 0 1.659z"></path>
<path fill="#000" d="M11.33 23.48c0.389 0.314 0.858 0.394 1.261 0.070l0.080-0.065 10.813-10.818c0.374-0.444 0.374-0.902 0-1.346l-10.813-10.818c-0.359-0.289-0.773-0.379-1.186-0.12l-0.075 0.060-0.080 0.065-10.813 10.818c-0.374 0.444-0.374 0.892 0 1.336l10.813 10.818z"></path>
<path fill="#fee011" d="M12.126 23.292c0.085-0.025 0.12-0.050 0.195-0.105l10.813-10.813c0.21-0.259 0.21-0.459 0-0.718l-10.813-10.813c-0.209-0.159-0.429-0.149-0.633 0.005l-10.813 10.813c-0.209 0.259-0.209 0.449 0 0.708l10.813 10.813c0.15 0.115 0.259 0.129 0.439 0.11z"></path>
<path fill="#000" d="M13.158 14.336h-2.057l0.697 1.938 0.164 0.008 1.38-1.561-0.185-0.385zM13.956 16.15c-0.206 0.22-0.331 0.51-0.331 0.829 0 0.648 0.525 1.172 1.175 1.172 0.648 0 1.174-0.525 1.174-1.172 0-0.65-0.526-1.181-1.175-1.181-0.117 0-0.228 0.020-0.339 0.056l0.601 0.979c0.14 0.228-0.337 0.504-0.44 0.346l-0.664-1.028zM10.369 17.207h-1.090c-0.132 0-0.366-0.16-0.325-0.243l0.572-1.14c-0.097-0.027-0.199-0.047-0.302-0.047-0.65 0-1.181 0.531-1.181 1.172 0 0.65 0.531 1.181 1.181 1.181 0.551 0 1.029-0.399 1.146-0.924zM10.038 16.109l-0.284 0.518h0.595c-0.056-0.208-0.173-0.381-0.311-0.518zM9.768 15.35l0.49-1.304c-0.062-0.123-0.132-0.249-0.185-0.358-0.015-0.021-0.043-0.056-0.070-0.070-0.050-0.015-0.138 0-0.167-0.047l-0.083-0.483 0.070-0.105 1.526-0.006c0.062 0 0.165 0.144 0.123 0.187-0.138 0.158-0.393 0.358-0.615 0.44-0.047 0.020-0.021 0.152 0.020 0.152h1.899l0.021-0.158 0.448-0.29-0.049-0.117h-0.71l0.015-0.525h0.991c0.498 0 0.747 0.455 0.319 0.884-0.082 0.088-0.243 0.191-0.208 0.358l0.559 1.448 0.014 0.035c0.185-0.076 0.399-0.111 0.615-0.111 0.932 0 1.691 0.759 1.691 1.699 0 0.932-0.759 1.691-1.691 1.691-0.94 0-1.697-0.759-1.697-1.691 0-0.512 0.218-0.961 0.564-1.271l-0.111-0.518-1.205 1.471c0.097 0.926-0.897 1.216-1.216 0.547h-0.228c-0.123 0.821-0.835 1.448-1.676 1.448-0.94 0-1.699-0.765-1.699-1.705 0-0.932 0.759-1.697 1.699-1.697 0.193 0 0.372 0.033 0.545 0.097zM10.887 16.628h0.214l0.103-0.167-0.648-1.678-0.269 0.85c0.296 0.249 0.516 0.594 0.601 0.996z"></path>
<path fill="#000" d="M12.615 4.052c-0.375 0-0.684-0.308-0.684-0.683s0.308-0.684 0.684-0.684c0.375 0 0.683 0.308 0.683 0.684s-0.308 0.683-0.683 0.683zM9.872 10.829l0.544 0.382 1.302-1.874 0.169-0.591 0.109-0.016 0.28 0.544 0.060 1.904h0.7l0.060-2.122-0.558-1.803 0.248-0.621 0.032-0.373 1.147 0.436 0.171-0.436-0.776-0.31-0.357-1.32-0.341-0.389c-0.199-0.049-0.398-0.109-0.605-0.264l-0.713 0.343-1.008 1.599 0.697 1.214c-0.225 0.63-0.158 1.232-0.123 1.988l-1.040 1.71zM10.958 6.012l0.278-0.327-0.076 0.635-0.202-0.308z"></path>
</svg>
