<?xml version="1.0" encoding="utf-8"?>
<!-- Generated by IcoMoon.io -->
<!DOCTYPE svg PUBLIC "-//W3C//DTD SVG 1.1//EN" "http://www.w3.org/Graphics/SVG/1.1/DTD/svg11.dtd">
<svg version="1.1" xmlns="http://www.w3.org/2000/svg" xmlns:xlink="http://www.w3.org/1999/xlink" width="24" height="24" viewBox="0 0 24 24">
<path fill="#edae15" d="M12.046 23.949c0.154-0.001 0.304-0.043 0.435-0.122 0.124-0.075 0.225-0.157 0.327-0.261l10.815-10.79c0.207-0.206 0.384-0.456 0.383-0.762-0.001-0.158-0.045-0.314-0.123-0.451-0.073-0.127-0.156-0.233-0.26-0.336l-10.791-10.791c-0.113-0.114-0.233-0.207-0.376-0.281-0.134-0.069-0.261-0.101-0.411-0.102-0.308 0-0.572 0.165-0.787 0.383l-10.791 10.791c-0.114 0.112-0.207 0.233-0.281 0.376-0.069 0.133-0.101 0.261-0.102 0.411 0 0.152 0.044 0.305 0.122 0.435 0.075 0.124 0.158 0.226 0.261 0.327l10.791 10.791c0.113 0.114 0.233 0.207 0.376 0.281 0.134 0.069 0.261 0.101 0.411 0.102l0.001-0.001z"></path>
<path fill="#000" d="M6.965 9.841v0.382h-0.646v1.777h-0.454v-1.777h-0.649v-0.382h1.749zM7.523 9.841l0.286 1.236 0.062 0.344 0.063-0.337 0.243-1.244h0.476l0.256 1.236 0.066 0.344 0.066-0.331 0.289-1.249h0.459l-0.608 2.159h-0.431l-0.261-1.263-0.076-0.417-0.076 0.417-0.261 1.263h-0.419l-0.612-2.159h0.479zM11.441 11.48c0.105-0.132 0.157-0.319 0.157-0.563s-0.053-0.429-0.157-0.562-0.247-0.198-0.426-0.198c-0.179 0-0.321 0.066-0.428 0.198s-0.16 0.319-0.16 0.563c0 0.243 0.053 0.431 0.16 0.563s0.249 0.198 0.428 0.198c0.179 0 0.321-0.066 0.426-0.198v0zM11.723 11.808c-0.163 0.168-0.399 0.252-0.708 0.252s-0.544-0.084-0.708-0.252c-0.219-0.206-0.328-0.503-0.328-0.891 0-0.396 0.109-0.692 0.328-0.891 0.163-0.168 0.399-0.252 0.708-0.252s0.544 0.084 0.708 0.252c0.218 0.198 0.327 0.495 0.327 0.891 0 0.388-0.109 0.685-0.327 0.891v0zM13.227 9.841h0.451v1.771h1.069v0.388h-1.521v-2.159zM15.473 12h-0.448v-2.159h0.448v2.159zM15.886 9.841h0.473l0.86 1.507v-1.507h0.42v2.159h-0.451l-0.882-1.534v1.534h-0.42v-2.159zM19.656 10.223h-1.143v0.459h1.049v0.375h-1.049v0.555h1.195v0.388h-1.636v-2.159h1.584v0.382z"></path>
<path fill="#000" d="M10.464 13.841v0.382h-0.646v1.777h-0.454v-1.777h-0.649v-0.382h1.749zM12.324 14.223h-1.143v0.459h1.049v0.375h-1.049v0.555h1.195v0.388h-1.636v-2.159h1.584v0.382zM13.073 16h-0.524l0.694-1.1-0.661-1.059h0.539l0.385 0.702 0.396-0.702h0.521l-0.661 1.041 0.702 1.118h-0.548l-0.41-0.735-0.434 0.735zM16.298 13.841v0.382h-0.646v1.777h-0.454v-1.777h-0.649v-0.382h1.749z"></path>
<path fill="#231f20" d="M23.401 12.578c0.172-0.197 0.27-0.369 0.27-0.565s-0.098-0.369-0.27-0.565l-10.79-10.79c-0.197-0.172-0.369-0.27-0.565-0.27s-0.369 0.098-0.565 0.27l-10.79 10.79c-0.172 0.197-0.27 0.369-0.27 0.565s0.098 0.369 0.27 0.565l10.79 10.79c0.197 0.172 0.369 0.27 0.565 0.27s0.369-0.098 0.565-0.27l10.79-10.79zM23.106 11.742c0.098 0.098 0.147 0.172 0.147 0.27s-0.049 0.172-0.147 0.27l-10.79 10.79c-0.098 0.098-0.172 0.148-0.27 0.148s-0.172-0.049-0.27-0.148l-10.79-10.79c-0.098-0.098-0.147-0.172-0.147-0.27s0.049-0.172 0.147-0.27l10.79-10.79c0.098-0.098 0.172-0.147 0.27-0.147s0.172 0.049 0.27 0.147l10.79 10.79z"></path>
</svg>
