<?xml version="1.0" encoding="utf-8"?>
<!-- Generated by IcoMoon.io -->
<!DOCTYPE svg PUBLIC "-//W3C//DTD SVG 1.1//EN" "http://www.w3.org/Graphics/SVG/1.1/DTD/svg11.dtd">
<svg version="1.1" xmlns="http://www.w3.org/2000/svg" xmlns:xlink="http://www.w3.org/1999/xlink" width="28" height="24" viewBox="0 0 28 24">
<path fill="#c1121c" d="M0.88 24c0 0 1.346 0 0 0-1.193 0-0.578-1.292-0.578-1.292l12.89-22.062c0 0-0.28 0.489 0 0 0.5-0.874 1.152-0.836 1.617-0.038l12.887 22.1c0 0 0.616 1.292-0.577 1.292-1.346 0 0 0 0 0h-26.24z"></path>
<path fill="#f7fbf5" d="M14.039 5.896l8.618 14.87h-17.353l8.735-14.87z"></path>
<path fill="#2a2d2f" d="M14.523 14.54l-1.895 1.085-3.19 0.005-0.21 0.93 1.005 0.423c0 0 0.422-0.977 1.452-0.75 0.921 0.203 1.016 1.16 0.933 1.542-0.466 0.108-0.54 0.547-0.54 0.547v1.535h-4.113v0.18h13.002v-0.18h-7.297v-1.535c0 0-0.032-0.195-0.192-0.357l3.265 0.705c0.15-0.42 0.592-1.157 1.465-0.965s1.037 0.918 1.043 1.3l0.75-0.045 0.305-1.355-1.485-0.67-1.12-1.695-3.177-0.7zM14.602 14.748l1.643 0.36-0.288 1.27-3.085-0.68 1.73-0.95zM16.575 15.183l1.015 0.222 1.017 1.557-2.317-0.51 0.285-1.27zM11.412 16.545c-0.412-0.007-0.784 0.272-0.877 0.685-0.106 0.472 0.193 0.94 0.67 1.045s0.951-0.193 1.057-0.665c0.106-0.472-0.193-0.94-0.67-1.045-0.060-0.013-0.121-0.019-0.18-0.020zM18.035 17.985c-0.412-0.007-0.787 0.272-0.88 0.685-0.106 0.472 0.195 0.94 0.672 1.045s0.951-0.193 1.058-0.665c0.106-0.472-0.195-0.94-0.672-1.045-0.060-0.013-0.119-0.019-0.177-0.020z"></path>
</svg>
