<?xml version="1.0" encoding="utf-8"?>
<!-- Generated by IcoMoon.io -->
<!DOCTYPE svg PUBLIC "-//W3C//DTD SVG 1.1//EN" "http://www.w3.org/Graphics/SVG/1.1/DTD/svg11.dtd">
<svg version="1.1" xmlns="http://www.w3.org/2000/svg" xmlns:xlink="http://www.w3.org/1999/xlink" width="24" height="24" viewBox="0 0 24 24">
<path fill="#fee011" d="M0.354 12.832l10.83 10.831c0.471 0.449 1.189 0.449 1.675 0l10.794-10.831c0.471-0.449 0.471-1.211 0-1.682l-10.794-10.809c-0.486-0.456-1.203-0.456-1.675 0l-10.83 10.809c-0.471 0.471-0.471 1.233 0 1.682z"></path>
<path fill="#000" d="M0.495 12.622l10.854 10.854c0.388 0.396 0.942 0.396 1.308 0l10.853-10.854c0.366-0.344 0.366-0.942 0-1.285l-10.853-10.853c-0.367-0.352-0.92-0.352-1.308 0l-10.854 10.853c-0.351 0.344-0.351 0.942 0 1.285z"></path>
<path fill="#fee011" d="M0.824 12.316l10.869 10.854c0.164 0.164 0.456 0.164 0.621 0l10.891-10.854c0.187-0.201 0.187-0.47 0-0.65l-10.891-10.854c-0.165-0.187-0.457-0.187-0.621 0l-10.869 10.854c-0.187 0.18-0.187 0.449 0 0.65z"></path>
<path fill="#000" d="M13.18 7.249c0.007 0.291 0.217 0.664 0.441 0.762 1.316 0.411 2.302 1.682 2.302 3.17 0 1.584-1.143 2.908-2.646 3.222l-1.495 0.284c-0.351 0.007-0.664 0.328-0.664 0.725 0 0.292 0.187 0.546 0.388 0.635 0.995 0.538 1.689 1.652 1.689 2.901v1.988h-2.579v-2.004c0-0.239-0.127-0.463-0.276-0.568-1.062-0.5-1.817-1.63-1.817-2.945 0-1.607 1.121-2.953 2.579-3.259l1.525-0.285c0.381 0.008 0.695-0.306 0.695-0.702 0-0.345-0.232-0.651-0.509-0.688-1.256-0.419-2.182-1.757-2.198-3.229l-1.652 0.501c-0.217 0-0.456-0.224-0.456-0.479 0-0.089 0.059-0.209 0.097-0.253l3.335-4.919 3.289 4.882c0.037 0.059 0.097 0.179 0.097 0.291 0 0.255-0.201 0.479-0.463 0.479l-1.682-0.508z"></path>
</svg>
