<?xml version="1.0" encoding="utf-8"?>
<!-- Generated by IcoMoon.io -->
<!DOCTYPE svg PUBLIC "-//W3C//DTD SVG 1.1//EN" "http://www.w3.org/Graphics/SVG/1.1/DTD/svg11.dtd">
<svg version="1.1" xmlns="http://www.w3.org/2000/svg" xmlns:xlink="http://www.w3.org/1999/xlink" width="27" height="24" viewBox="0 0 27 24">
<path fill="#ce252c" d="M13.519 0.009c0.779 0 1.5 0.416 1.89 1.091l11.327 19.617c0.39 0.675 0.39 1.507 0 2.182s-1.111 1.091-1.89 1.091h-22.653c-0.78 0-1.501-0.416-1.89-1.091s-0.39-1.507 0-2.182l11.327-19.617c0.39-0.675 1.111-1.091 1.89-1.091z"></path>
<path fill="#ffd100" d="M2.774 21.473l10.745-18.611 10.745 18.611h-21.49z"></path>
<path fill="#000" d="M22.22 20.041v0.324h-17.404l0.040-0.154c0.055-0.212 0.118-0.422 0.188-0.63 0.059-0.176 0.138-0.345 0.234-0.504 0.060-0.099 0.122-0.198 0.185-0.295 0.011-0.017 0.026-0.030 0.043-0.040l0.038-0.067 0.142-0.308c0.036-0.079 0.079-0.154 0.128-0.225 0.043-0.062 0.088-0.122 0.137-0.18 0.096-0.114 0.183-0.236 0.26-0.365 0.078-0.13 0.169-0.25 0.273-0.36 0.044-0.046 0.094-0.087 0.148-0.12 0.062-0.039 0.113-0.094 0.148-0.159 0.078-0.149 0.174-0.288 0.284-0.416 0.15-0.173 0.385-0.246 0.606-0.188 0.112 0.029 0.221 0.071 0.325 0.123 0.188 0.095 0.362 0.213 0.52 0.352l0.11-0.053c0.466-0.226 0.919-0.479 1.355-0.759l0.204 0.073 0.236-0.199 0.129-0.141 0.246-0.18c0.3-0.219 0.623-0.406 0.963-0.558l0.198-0.177 0.314-0.299c0.034-0.032 0.059-0.073 0.072-0.118 0.035-0.12 0.056-0.243 0.065-0.368 0.011-0.167 0.020-0.334 0.027-0.501 0.005-0.133 0.016-0.265 0.032-0.397 0.025-0.203 0.035-0.407 0.030-0.612-0.002-0.068-0.004-0.136-0.005-0.203-0.001-0.043-0.014-0.085-0.038-0.121l-0.21-0.45-0.284-0.485c-0.064-0.109-0.1-0.231-0.107-0.357-0.007-0.124 0.003-0.249 0.030-0.37 0.011-0.049 0.026-0.096 0.045-0.142 0.018-0.043 0.013-0.093-0.014-0.131-0.020-0.029-0.057-0.042-0.091-0.032-0.084 0.023-0.174 0.003-0.239-0.054-0.145-0.127-0.25-0.294-0.3-0.48-0.020-0.073-0.041-0.145-0.065-0.217-0.016-0.049-0.046-0.093-0.086-0.127-0.081-0.067-0.138-0.158-0.164-0.26-0.027-0.107-0.028-0.22-0.003-0.327 0.030-0.125 0.098-0.238 0.196-0.322s0.213-0.15 0.336-0.19c0.132-0.043 0.268-0.075 0.405-0.096 0.074-0.011 0.15 0.001 0.217 0.035 0.083 0.042 0.16 0.093 0.231 0.153 0.073 0.061 0.127 0.141 0.158 0.23 0.029 0.085 0.054 0.172 0.075 0.26 0.013 0.056 0.025 0.113 0.035 0.169 0.022 0.124 0.067 0.243 0.132 0.351 0.031 0.052 0.063 0.104 0.094 0.155 0.039 0.063 0.1 0.11 0.171 0.131s0.149 0.024 0.223 0.009c0.123-0.025 0.248-0.043 0.374-0.051 0.102-0.007 0.203-0.027 0.3-0.058 0.188-0.061 0.378-0.119 0.568-0.172 0.116-0.032 0.238-0.040 0.357-0.022 0.604 0.092 1.185 0.297 1.712 0.604 0.054 0.032 0.108 0.065 0.161 0.099 0.076 0.049 0.136 0.12 0.172 0.204 0.040 0.093 0.065 0.192 0.075 0.292 0.026 0.257 0.056 0.514 0.091 0.77 0.026 0.192 0.112 0.371 0.244 0.512 0.036 0.038 0.076 0.070 0.12 0.097 0.092 0.055 0.17 0.132 0.228 0.223 0.066 0.104 0.044 0.241-0.051 0.319-0.053 0.044-0.11 0.085-0.169 0.12-0.045 0.027-0.095 0.045-0.148 0.051-0.026 0.003-0.046 0.023-0.048 0.049l0.048 1.104 0.008 0.909-0.016 0.437 0.008 0.375-0.024 0.343-0.043 0.41c-0.033 0.313-0.025 0.628 0.022 0.939 0.024 0.161 0.033 0.323 0.026 0.485l0.008 0.493-0.010 0.569-0.017 0.525 0.009 0.25c0.003 0.091 0.077 0.164 0.168 0.166l0.040-0.003 0.225-0.185c0.041-0.034 0.061-0.087 0.051-0.14-0.009-0.050-0.016-0.1-0.018-0.15-0.003-0.044 0.013-0.088 0.043-0.12 0.024-0.026 0.052-0.049 0.083-0.067l0.142-0.062 0.15-0.080c0.134-0.072 0.26-0.158 0.376-0.257 0.025-0.021 0.050-0.043 0.075-0.065 0.052-0.045 0.119-0.069 0.188-0.067 0.089 0.002 0.175 0.030 0.25 0.079 0.063 0.041 0.112 0.1 0.142 0.168 0.199 0.451 0.5 0.85 0.88 1.164 0.071 0.059 0.158 0.097 0.25 0.111l1.929 0.006z"></path>
<path fill="#ffd100" d="M8.659 17.022l0.097-0.017 0.265-0.058c0.176-0.038 0.348-0.093 0.514-0.163 0.116-0.049 0.233-0.098 0.35-0.146 0.148-0.060 0.283-0.148 0.399-0.257l0.189-0.158 0.16-0.162 0.101-0.086 0.121-0.088 0.107-0.079 0.14-0.084 0.1-0.052 0.107-0.055 0.109-0.054 0.118-0.059 0.086-0.046 0.083-0.048 0.074-0.044 0.165-0.067 0.321 0.883 0.012 0.036 0.004 0.033 0.127 0.418 0.106 0.431 0.080 0.277 0.056 0.202 0.113 0.522 0.035 0.163c0.018 0.083 0.058 0.16 0.115 0.223 0.022 0.024 0.048 0.043 0.077 0.057 0.077 0.037 0.162 0.052 0.246 0.044 0.049-0.004 0.097 0.016 0.128 0.053 0.066 0.079 0.109 0.175 0.124 0.278 0.003 0.024-0 0.048-0.011 0.069l-0.138 0.224-0.030 0.042-0.313 0.177c-0.028 0.016-0.043 0.047-0.039 0.079l0.029 0.104-0.107-0.025c-0.226-0.053-0.459-0.064-0.689-0.032-0.168 0.023-0.336 0.055-0.501 0.093-0.178 0.042-0.361 0.065-0.544 0.070-0.124 0.003-0.247-0.012-0.367-0.045-0.054-0.015-0.108-0.028-0.163-0.038-0.107-0.021-0.205-0.074-0.28-0.154-0.066-0.069-0.132-0.137-0.199-0.205l-0.157-0.23-0.098-0.152-0.1-0.147-0.093-0.134-0.144-0.221-0.065-0.11-0.1-0.201-0.073-0.163-0.050-0.098-0.043-0.079c-0.146-0.267-0.333-0.51-0.554-0.719z"></path>
<path fill="#ffd100" d="M13.483 19.674l0.495-0.333 0.086-0.026 0.176-0.044 0.34-0.202-0.017-0.066c-0.032-0.12-0.085-0.234-0.158-0.334-0.064-0.088-0.119-0.182-0.167-0.279-0.035-0.073-0.056-0.153-0.060-0.234-0.014-0.267-0.058-0.531-0.13-0.788-0.083-0.295-0.177-0.588-0.281-0.876-0.045-0.125-0.075-0.255-0.088-0.388-0.003-0.029-0.004-0.059-0.004-0.088 0-0.020 0.007-0.039 0.020-0.055l0.105-0.093 0.12-0.097 0.116-0.101 0.14-0.126 0.089-0.092 0.382-0.421 0.052-0.065 0.022-0.032c0.024-0.036 0.050-0.070 0.077-0.104 0.014-0.017 0.031-0.032 0.050-0.043l0.158-0.094 0.113-0.047c0.039-0.016 0.084-0.009 0.116 0.018 0.049 0.042 0.083 0.098 0.097 0.161l0.019 0.209 0.025 0.198 0.053 0.407c0.024 0.185 0.025 0.371 0.003 0.556-0.016 0.132-0 0.266 0.046 0.391 0.025 0.067 0.054 0.131 0.088 0.194 0.088 0.162 0.155 0.334 0.199 0.513 0.031 0.124 0.049 0.252 0.053 0.38 0.008 0.211 0.035 0.421 0.080 0.628 0.024 0.106 0.046 0.212 0.066 0.319 0.004 0.023 0.018 0.042 0.038 0.054s0.044 0.014 0.066 0.007l0.087 0.002c0.022 0 0.041 0.015 0.046 0.036 0.049 0.174 0.050 0.358 0.004 0.533-0.022 0.082-0.084 0.148-0.164 0.175-0.069 0.023-0.139 0.040-0.211 0.050-0.068 0.009-0.124 0.060-0.14 0.127-0.007 0.028-0.010 0.057-0.010 0.086 0.001 0.061-0.040 0.115-0.099 0.131-0.058 0.016-0.117 0.027-0.176 0.032-0.089 0.008-0.178 0.019-0.267 0.032l-0.279 0.008-0.319-0.013-0.262-0.041-0.162-0.039-0.252-0.051-0.174-0.034-0.207-0.039z"></path>
<path fill="#ffd100" d="M15.479 10.588l0.189 0.004 0.163 0.017 0.255 0.050c0.014 0.003 0.026 0.012 0.031 0.025l0.069 0.15 0.047 0.112 0.034 0.092 0.056 0.126 0.085 0.176 0.054 0.097 0.060 0.148 0.058 0.173 0.030 0.127 0.013 0.050c0.008 0.030 0.001 0.063-0.018 0.087s-0.049 0.039-0.081 0.038c-0.021-0-0.042-0.007-0.060-0.018l-0.124-0.121-0.129-0.136-0.074-0.087-0.061-0.093-0.046-0.087c-0.038-0.071-0.071-0.144-0.099-0.219l-0.169-0.196-0.213-0.233-0.173-0.17c-0.005-0.005-0.007-0.012-0.007-0.018s0.004-0.013 0.010-0.017l0.050-0.058c0.012-0.014 0.030-0.021 0.049-0.019z"></path>
<path fill="#ffd100" d="M13.111 14.015c0.021 0.007 0.044 0 0.059-0.017 0.072-0.084 0.142-0.17 0.21-0.258 0.047-0.062 0.092-0.125 0.134-0.19 0.036-0.055 0.073-0.11 0.11-0.164s0.072-0.109 0.103-0.167c0.046-0.084 0.091-0.169 0.134-0.255 0.036-0.071 0.062-0.147 0.077-0.225 0.008-0.045 0.018-0.089 0.030-0.133 0.006-0.024 0.009-0.049 0.010-0.073 0-0.040-0.014-0.079-0.041-0.108l-0.095-0.106-0.114-0.092c-0.025-0.024-0.060-0.036-0.095-0.031s-0.065 0.026-0.083 0.056l-0.072 0.126c-0.017 0.037-0.027 0.077-0.032 0.117-0.001 0.074-0.009 0.148-0.024 0.221-0.021 0.1-0.042 0.199-0.063 0.299-0.042 0.196-0.095 0.39-0.16 0.58l-0.041 0.121-0.056 0.155c-0.013 0.035-0.019 0.072-0.016 0.109 0.001 0.016 0.012 0.029 0.027 0.034z"></path>
</svg>
