<?xml version="1.0" encoding="utf-8"?>
<!-- Generated by IcoMoon.io -->
<!DOCTYPE svg PUBLIC "-//W3C//DTD SVG 1.1//EN" "http://www.w3.org/Graphics/SVG/1.1/DTD/svg11.dtd">
<svg version="1.1" xmlns="http://www.w3.org/2000/svg" xmlns:xlink="http://www.w3.org/1999/xlink" width="24" height="24" viewBox="0 0 24 24">
<path fill="#fee011" d="M12.832 0.352l10.816 10.816c0.46 0.46 0.46 1.205 0 1.664l-10.816 10.816c-0.46 0.46-1.205 0.46-1.664 0l-10.816-10.816c-0.46-0.46-0.46-1.205 0-1.664l10.816-10.816c0.46-0.46 1.205-0.46 1.664 0z"></path>
<path fill="#000" d="M12.666 0.518l10.816 10.816c0.368 0.368 0.368 0.964 0 1.331l-10.816 10.816c-0.368 0.368-0.964 0.368-1.331 0l-10.816-10.816c-0.368-0.368-0.368-0.964 0-1.331l10.816-10.816c0.368-0.368 0.964-0.368 1.331 0z"></path>
<path fill="#fee011" d="M12.333 0.851l10.816 10.816c0.184 0.184 0.184 0.482 0 0.666l-10.816 10.816c-0.184 0.184-0.482 0.184-0.666 0l-10.816-10.816c-0.184-0.184-0.184-0.482 0-0.666l10.816-10.816c0.184-0.184 0.482-0.184 0.666 0z"></path>
<path fill="#000" d="M5.489 9.058h1.914c1.712 0 2.773 1.435 2.773 2.968 0 1.473-1.054 2.916-2.624 2.916h-2.063v-5.883zM6.506 13.925h1.099c0.994 0 1.57-0.994 1.57-1.906 0-0.83-0.62-1.944-1.57-1.944h-1.099v3.85z"></path>
<path fill="#000" d="M11.328 14.942h1.009v-5.883h-1.009v5.883z"></path>
<path fill="#000" d="M13.832 9.058h2.848c0.897 0 1.839 0.77 1.839 1.697 0 0.942-0.71 1.891-1.697 1.891h-1.966v2.295h-1.024v-5.883zM14.811 10.075v1.555h1.869c0.478 0 0.815-0.262 0.815-0.77 0-0.449-0.434-0.785-0.86-0.785h-1.824z"></path>
</svg>
