<?xml version="1.0" encoding="utf-8"?>
<!-- Generated by IcoMoon.io -->
<!DOCTYPE svg PUBLIC "-//W3C//DTD SVG 1.1//EN" "http://www.w3.org/Graphics/SVG/1.1/DTD/svg11.dtd">
<svg version="1.1" xmlns="http://www.w3.org/2000/svg" xmlns:xlink="http://www.w3.org/1999/xlink" width="24" height="24" viewBox="0 0 24 24">
<path fill="#fee011" d="M11.158 0.345c0.099-0.099 0.221-0.186 0.365-0.248s0.303-0.097 0.467-0.097c0.164 0 0.323 0.034 0.467 0.097s0.266 0.149 0.365 0.248l10.813 10.823c0.099 0.099 0.185 0.221 0.248 0.365s0.097 0.303 0.097 0.468c0 0.164-0.034 0.323-0.097 0.468s-0.149 0.266-0.248 0.365l-10.813 10.823c-0.012 0.012-0.025 0.024-0.038 0.036s-0.026 0.024-0.040 0.035-0.057 0.045-0.087 0.066c-0.061 0.042-0.128 0.079-0.199 0.11-0.144 0.062-0.303 0.097-0.467 0.097s-0.323-0.034-0.467-0.097c-0.144-0.062-0.266-0.149-0.365-0.248l-10.813-10.823c-0.099-0.099-0.185-0.221-0.248-0.365s-0.097-0.303-0.097-0.468c0-0.164 0.034-0.323 0.097-0.468s0.149-0.266 0.248-0.365l10.813-10.823z"></path>
<path fill="#000" d="M0.544 11.367c-0.037 0.037-0.073 0.079-0.104 0.126s-0.060 0.097-0.084 0.152c-0.047 0.11-0.074 0.231-0.074 0.355s0.026 0.246 0.074 0.355c0.047 0.11 0.113 0.202 0.188 0.277l10.813 10.823c0.075 0.075 0.168 0.141 0.277 0.188s0.23 0.074 0.355 0.074c0.125 0 0.245-0.026 0.355-0.074s0.202-0.114 0.277-0.188l10.813-10.823c0.075-0.075 0.141-0.168 0.188-0.277s0.074-0.23 0.074-0.355-0.026-0.246-0.074-0.355c-0.047-0.11-0.113-0.202-0.188-0.277l-10.813-10.823c-0.075-0.075-0.168-0.141-0.277-0.189s-0.23-0.074-0.355-0.074c-0.125 0-0.245 0.026-0.355 0.074s-0.202 0.114-0.277 0.189l-10.813 10.823zM0.943 11.767l10.813-10.823c0.056-0.056 0.138-0.097 0.233-0.097 0.046 0 0.090 0.010 0.131 0.027s0.075 0.042 0.102 0.069l10.813 10.823c0.056 0.056 0.096 0.138 0.096 0.233s-0.040 0.177-0.096 0.233l-10.813 10.823c-0.056 0.056-0.138 0.097-0.233 0.097-0.046 0-0.090-0.010-0.131-0.027-0.020-0.009-0.039-0.019-0.056-0.031s-0.033-0.025-0.046-0.038l-10.813-10.823c-0.056-0.056-0.096-0.138-0.096-0.233s0.040-0.177 0.096-0.233z"></path>
<path fill="#000" d="M9.553 4.813v0.298c0 0.025 0.019 0.045 0.038 0.064 0.007 0.007 0.013 0.014 0.019 0.021s0.012 0.016 0.017 0.025c0.015 0.023 0.030 0.046 0.054 0.046h0.198c0.034 0 0.063-0.028 0.085-0.057 0.020-0.027 0.034-0.055 0.042-0.085l0.028-0.099c0.003-0.011 0.007-0.022 0.011-0.033 0.007-0.022 0.015-0.044 0.018-0.066s0.002-0.044 0.001-0.066c-0.001-0.011-0.001-0.022-0.001-0.033v-0.199c0-0.031-0.012-0.059-0.024-0.088-0.002-0.004-0.003-0.007-0.005-0.011-0.013-0.032-0.026-0.063-0.057-0.085s-0.065-0.028-0.099-0.028h-0.297c-0.032 0-0.060 0.014-0.085 0.042-0.026 0.030-0.024 0.069-0.014 0.099 0.004 0.013 0.012 0.025 0.020 0.037 0.010 0.015 0.020 0.030 0.023 0.048l0.028 0.17z"></path>
<path fill="#000" d="M9.851 7.163l0.043 0.085c0.015 0.030 0.033 0.061 0.057 0.085l0.142 0.142c0.006 0.006 0.013 0.011 0.020 0.014 0.023 0.012 0.053 0.014 0.079 0.014h0.198c0.011 0 0.022 0 0.033 0.001 0.022 0 0.044 0.001 0.066-0.001s0.044-0.005 0.066-0.009c0.011-0.002 0.022-0.004 0.033-0.005l0.099-0.014c0.017-0.002 0.034-0.001 0.052 0 0.016 0.001 0.032 0.002 0.047 0 0.032-0.003 0.059-0.017 0.085-0.043s0.042-0.053 0.042-0.085v-0.213c0-0.033-0.005-0.067-0.014-0.099-0.005-0.016-0.013-0.031-0.022-0.045-0.008-0.013-0.015-0.026-0.020-0.040-0.011-0.033-0.021-0.065-0.028-0.099-0.001-0.003-0.001-0.006-0.002-0.009-0.006-0.030-0.012-0.060-0.012-0.091v-0.199c0-0.020-0.015-0.035-0.030-0.050-0.011-0.011-0.022-0.022-0.027-0.035s-0.009-0.029-0.012-0.044c-0.004-0.019-0.008-0.038-0.017-0.055s-0.020-0.032-0.031-0.048c-0.009-0.012-0.018-0.025-0.025-0.037-0.007-0.012-0.012-0.024-0.018-0.037-0.007-0.017-0.014-0.033-0.025-0.048s-0.030-0.021-0.048-0.027c-0.013-0.004-0.026-0.008-0.037-0.016s-0.019-0.020-0.028-0.032c-0.012-0.017-0.024-0.034-0.043-0.039-0.018-0.005-0.037-0.003-0.055-0.001-0.015 0.001-0.029 0.003-0.044 0.001-0.016-0.002-0.031-0.004-0.047-0.007-0.017-0.003-0.035-0.005-0.053-0.007-0.033-0.004-0.066-0.005-0.099 0-0.018 0.003-0.034 0.013-0.050 0.023-0.012 0.007-0.023 0.015-0.035 0.019-0.013 0.005-0.028 0.004-0.043 0.004-0.020-0.001-0.040-0.001-0.056 0.010-0.015 0.011-0.020 0.028-0.025 0.046-0.004 0.014-0.008 0.029-0.017 0.039-0.010 0.012-0.022 0.022-0.033 0.033-0.013 0.012-0.026 0.024-0.038 0.038-0.002 0.002-0.004 0.005-0.006 0.007-0.020 0.024-0.040 0.048-0.051 0.078-0.011 0.033-0.014 0.066-0.014 0.099v0.199c0 0.017-0.003 0.033-0.007 0.050s-0.007 0.033-0.007 0.050v0.099c0 0.011-0.001 0.022-0.001 0.033-0.001 0.022-0.002 0.044 0.001 0.066s0.011 0.044 0.018 0.066c0.004 0.011 0.007 0.022 0.010 0.033l0.028 0.099z"></path>
<path fill="#000" d="M9.735 8.469c0.001 0.013 0.002 0.026 0.004 0.040 0.003 0.026 0.006 0.053 0.004 0.079-0.002 0.042-0.011 0.083-0.020 0.125-0.004 0.021-0.009 0.042-0.012 0.062l0.003 0.019 0.003 0.019c0.005 0.038 0.048 0.048 0.092 0.059 0.029 0.007 0.057 0.014 0.075 0.029 0.020 0.017 0.035 0.040 0.050 0.064 0.021 0.033 0.042 0.066 0.078 0.083 0.052 0.026 0.107 0.031 0.161 0.037 0.008 0.001 0.017 0.002 0.025 0.003 0.017 0.002 0.034 0.006 0.051 0.010 0.049 0.012 0.098 0.024 0.146-0.020 0.091-0.085 0.097-0.176 0.088-0.266s-0.026-0.18-0.079-0.266c-0.024-0.039-0.048-0.072-0.074-0.104-0.014-0.018-0.029-0.035-0.044-0.054-0.042-0.050-0.084-0.099-0.128-0.148-0.042-0.047-0.089-0.089-0.138-0.128-0.051-0.041-0.139-0.043-0.196 0-0.001 0.001-0.002 0.002-0.003 0.002-0.055 0.042-0.111 0.093-0.105 0.155l0.020 0.197z"></path>
<path fill="#000" d="M10.663 10.971l0.059 0.071c0.010 0.012 0.021 0.022 0.032 0.032s0.024 0.022 0.035 0.035c0.011 0.014 0.014 0.033 0.016 0.051 0.002 0.015 0.004 0.029 0.010 0.042 0.014 0.029 0.031 0.056 0.053 0.080 0.011 0.012 0.025 0.019 0.040 0.026s0.030 0.015 0.040 0.027c0.011 0.012 0.019 0.027 0.028 0.041 0.008 0.013 0.016 0.027 0.026 0.039l0.001 0.001c0.020 0.024 0.039 0.048 0.065 0.065 0.014 0.010 0.031 0.015 0.047 0.020s0.032 0.010 0.046 0.020l0.16 0.107c0.020 0.014 0.047 0.014 0.073 0.014 0.007 0 0.014 0 0.021 0h0.426c0.032 0 0.068-0.022 0.080-0.053 0.008-0.020 0.005-0.041 0.002-0.061-0.002-0.015-0.004-0.030-0.002-0.045l0.006-0.045 0.007-0.048 0.007-0.047 0.007-0.047c0.001-0.007 0.002-0.014 0.003-0.022 0.003-0.026 0.006-0.054 0.024-0.071l0.133-0.133c0.011-0.011 0.026-0.019 0.040-0.027s0.029-0.015 0.040-0.027c0.012-0.012 0.020-0.027 0.029-0.042 0.007-0.013 0.015-0.026 0.024-0.038s0.022-0.023 0.033-0.033c0.011-0.011 0.023-0.021 0.033-0.033 0.005-0.006 0.011-0.011 0.016-0.017 0.018-0.019 0.037-0.038 0.037-0.063v-0.64c0-0.018-0.010-0.034-0.020-0.050-0.009-0.014-0.018-0.028-0.020-0.043l-0.013-0.093c-0.001-0.010-0.003-0.021-0.004-0.031-0.002-0.021-0.005-0.042-0.009-0.062s-0.011-0.042-0.017-0.062c-0.003-0.010-0.006-0.021-0.009-0.031l-0.027-0.093c-0.006-0.020-0.014-0.038-0.023-0.057-0.006-0.012-0.012-0.024-0.017-0.037-0.006-0.016-0.010-0.033-0.014-0.050-0.004-0.015-0.007-0.029-0.012-0.044-0.006-0.018-0.021-0.031-0.035-0.044-0.012-0.011-0.024-0.022-0.031-0.036-0.008-0.015-0.004-0.035-0-0.054s0.007-0.038 0-0.052c-0.006-0.013-0.023-0.019-0.039-0.024-0.018-0.006-0.037-0.013-0.041-0.029s-0.005-0.032-0.007-0.049c-0.001-0.015-0.003-0.030-0.006-0.045-0.002-0.010-0.003-0.020-0.004-0.031-0.002-0.025-0.004-0.050-0.023-0.062l-0.080-0.053-0.040-0.027-0.040-0.027c-0.010-0.007-0.018-0.019-0.026-0.031-0.011-0.018-0.022-0.036-0.041-0.036h-0.213c-0.025 0-0.048 0.011-0.070 0.025-0.008 0.005-0.016 0.010-0.023 0.015l-0.16 0.107c-0.016 0.011-0.037 0.005-0.059-0.001-0.023-0.007-0.046-0.013-0.061 0.001l-0.133 0.133c-0.012 0.013-0.028 0.021-0.044 0.030-0.013 0.007-0.025 0.014-0.036 0.023-0.024 0.020-0.046 0.043-0.067 0.067-0.010 0.011-0.017 0.025-0.025 0.038-0.008 0.015-0.017 0.030-0.029 0.042s-0.027 0.020-0.042 0.029c-0.013 0.007-0.026 0.015-0.038 0.024s-0.021 0.020-0.030 0.031c-0.011 0.013-0.023 0.025-0.036 0.036-0.020 0.017-0.043 0.030-0.065 0.044-0.005 0.003-0.010 0.006-0.015 0.009-0.011 0.007-0.026 0.009-0.041 0.012-0.025 0.004-0.049 0.007-0.052 0.028l-0.013 0.093-0.013 0.093c-0.002 0.014-0.007 0.028-0.013 0.041-0.007 0.017-0.014 0.034-0.014 0.052v0.533c0 0.026 0.009 0.051 0.019 0.075 0.002 0.006 0.005 0.012 0.008 0.018l0.040 0.093 0.040 0.093c0.007 0.015 0.017 0.028 0.027 0.042 0.009 0.012 0.019 0.024 0.026 0.038 0.014 0.028 0.020 0.058 0.025 0.087l0.001 0.006c0.003 0.014-0.001 0.030-0.004 0.045-0.005 0.023-0.010 0.045 0.004 0.061l0.008 0.009z"></path>
<path fill="#000" d="M10.557 13.485l0.040 0.12c0.004 0.012 0.011 0.021 0.020 0.030s0.020 0.016 0.031 0.022c0.010 0.005 0.020 0.010 0.029 0.015 0.031 0.014 0.061 0.027 0.093 0.027h0.213c0.032 0 0.063-0.012 0.093-0.027s0.055-0.032 0.080-0.053c0.012-0.011 0.024-0.023 0.035-0.034s0.021-0.022 0.032-0.032c0.012-0.010 0.025-0.018 0.039-0.026s0.029-0.016 0.041-0.028c0.025-0.022 0.044-0.048 0.053-0.080s0.012-0.062 0.013-0.093c0-0.008 0.001-0.016 0.001-0.024 0.001-0.028 0.003-0.056-0.001-0.083l-0.027-0.187c-0.004-0.029-0.018-0.056-0.033-0.082-0.002-0.004-0.004-0.008-0.007-0.011-0.008-0.014-0.021-0.023-0.033-0.033s-0.026-0.020-0.033-0.034c-0.008-0.015-0.011-0.031-0.014-0.048-0.003-0.016-0.006-0.031-0.013-0.045-0.014-0.029-0.031-0.056-0.053-0.080-0.011-0.012-0.026-0.020-0.041-0.028s-0.028-0.015-0.039-0.025c-0.011-0.011-0.019-0.025-0.026-0.039s-0.015-0.029-0.027-0.041c-0.004-0.004-0.007-0.007-0.011-0.011-0.020-0.021-0.042-0.042-0.069-0.042h-0.213c-0.024 0-0.042 0.018-0.060 0.035-0.006 0.006-0.013 0.012-0.020 0.018s-0.014 0.010-0.022 0.015c-0.021 0.014-0.042 0.028-0.045 0.051l-0.007 0.047-0.013 0.093-0.007 0.047c-0.002 0.016-0.001 0.033 0.001 0.050 0.002 0.019 0.003 0.038-0.001 0.057s-0.013 0.035-0.021 0.052c-0.007 0.013-0.014 0.027-0.018 0.041-0.010 0.031-0.019 0.061-0.027 0.093s-0.012 0.062-0.013 0.093c-0.001 0.016 0 0.031 0.002 0.047s0.006 0.031 0.011 0.047c0.005 0.016 0.012 0.031 0.020 0.045 0.008 0.016 0.015 0.031 0.020 0.048l0.027 0.093z"></path>
<path fill="#000" d="M12.579 12.393l0.12 0.107c0.024 0.021 0.061 0.027 0.093 0.027h0.213c0.019 0 0.037 0.007 0.055 0.014 0.013 0.005 0.025 0.010 0.039 0.013 0.017 0.003 0.034 0.001 0.052 0s0.037-0.004 0.055 0c0.015 0.003 0.027 0.015 0.038 0.026s0.025 0.025 0.041 0.027c0.018 0.002 0.035 0.005 0.053 0.007s0.036 0.004 0.053 0.007c0.011 0.002 0.021 0.004 0.032 0.006 0.020 0.004 0.041 0.008 0.061 0.008h0.319c0.008 0 0.011-0.006 0.012-0.014s-0.002-0.020-0.004-0.031c-0.004-0.020-0.007-0.042 0.006-0.048 0.015-0.008 0.030-0.015 0.046-0.022s0.031-0.013 0.048-0.018l0.186-0.053c0.019-0.005 0.039-0.003 0.059-0.001 0.016 0.002 0.032 0.003 0.048 0.001l0.007-0.001c0.030-0.004 0.061-0.009 0.086-0.026l0.040-0.027 0.040-0.027 0.080-0.053c0.021-0.014 0.045-0.023 0.069-0.031 0.008-0.003 0.016-0.006 0.024-0.009 0.012-0.005 0.025-0.003 0.039-0.002 0.019 0.002 0.039 0.004 0.054-0.012 0.026-0.026 0.027-0.057 0.027-0.088v-0.219c0-0.031-0.005-0.063-0.013-0.093-0.004-0.016-0.016-0.028-0.027-0.040s-0.022-0.024-0.026-0.040l-0.027-0.093-0.013-0.047-0.013-0.047c-0.006-0.021-0.004-0.044-0.002-0.066 0.001-0.014 0.003-0.027 0.002-0.041-0-0.007-0-0.015-0-0.022 0-0.024 0.001-0.048-0.013-0.071-0.013-0.021-0.031-0.032-0.049-0.044-0.011-0.007-0.022-0.014-0.031-0.023-0.006-0.006-0.013-0.011-0.019-0.017-0.018-0.015-0.035-0.029-0.047-0.050-0.010-0.018-0.010-0.037-0.011-0.057-0-0.012-0-0.025-0.003-0.036-0.001-0.007-0.003-0.014-0.004-0.020-0.005-0.025-0.009-0.049-0.023-0.073-0.017-0.030-0.048-0.045-0.080-0.053s-0.062-0.011-0.093-0.013c-0.014-0.001-0.029 0-0.044 0.002-0.021 0.002-0.042 0.004-0.063-0.002-0.018-0.005-0.032-0.017-0.046-0.029-0.011-0.009-0.022-0.019-0.034-0.025l-0.005-0.002c-0.029-0.014-0.058-0.027-0.088-0.038s-0.061-0.020-0.093-0.027c-0.031-0.007-0.062-0.013-0.093-0.013h-0.319c-0.032 0-0.063 0.013-0.093 0.027-0.016 0.007-0.029 0.018-0.043 0.028-0.012 0.009-0.024 0.018-0.037 0.025s-0.028 0.009-0.043 0.011c-0.018 0.003-0.036 0.005-0.050 0.016-0.026 0.018-0.049 0.041-0.066 0.067l-0.106 0.16c-0.014 0.022-0.034 0.039-0.054 0.056-0.004 0.004-0.008 0.007-0.012 0.011-0.012 0.011-0.029 0.015-0.045 0.019-0.018 0.004-0.036 0.009-0.048 0.021s-0.016 0.029-0.020 0.047c-0.004 0.017-0.008 0.035-0.020 0.047l-0.2 0.2c-0.014 0.014-0.013 0.035-0.012 0.056 0.001 0.013 0.001 0.026-0.002 0.037-0.003 0.013-0.007 0.026-0.012 0.038-0.006 0.018-0.012 0.036-0.015 0.055s-0.001 0.038-0 0.057c0.001 0.017 0.002 0.033 0 0.050-0.001 0.013-0.004 0.026-0.006 0.039-0.004 0.018-0.007 0.036-0.007 0.054v0.107c0 0.012-0.001 0.024-0.002 0.036-0.002 0.024-0.003 0.048 0.002 0.071 0.004 0.022 0.015 0.042 0.025 0.062 0.005 0.010 0.010 0.020 0.015 0.031l0.040 0.093z"></path>
<path fill="#000" d="M12.098 13.691c-0.004 0.005-0.009 0.010-0.013 0.016-0.009 0.010-0.019 0.020-0.023 0.032-0.006 0.019-0.004 0.041-0.002 0.063 0.001 0.011 0.002 0.022 0.002 0.033v0.096c0 0.015 0.006 0.030 0.014 0.044 0.009 0.015 0.022 0.028 0.034 0.040l0.144 0.144c0.014 0.015 0.025 0.032 0.036 0.049 0.007 0.012 0.015 0.024 0.024 0.035l0.003 0.004c0.020 0.025 0.039 0.050 0.069 0.068s0.063 0.022 0.096 0.024c0.020 0.001 0.040 0.001 0.060 0 0.016 0 0.032-0.001 0.047 0 0.013 0 0.025 0.004 0.038 0.008 0.020 0.006 0.039 0.012 0.058 0.004 0.021-0.008 0.026-0.031 0.032-0.054 0.004-0.015 0.008-0.031 0.016-0.042 0.003-0.004 0.006-0.008 0.009-0.012 0.019-0.025 0.038-0.051 0.063-0.072s0.054-0.035 0.084-0.048c0.012-0.005 0.027-0.007 0.041-0.008 0.020-0.001 0.041-0.003 0.054-0.016l0.036-0.036 0.12-0.12c0.016-0.016 0.034-0.031 0.053-0.046 0.011-0.009 0.021-0.017 0.031-0.026 0.008-0.007 0.017-0.013 0.027-0.019 0.022-0.014 0.045-0.029 0.045-0.053v-0.192c0-0.017-0.012-0.031-0.024-0.045-0.010-0.012-0.021-0.024-0.024-0.039-0.006-0.032-0.009-0.064-0.012-0.096-0.001-0.012 0.002-0.024 0.005-0.037 0.005-0.022 0.010-0.044-0.005-0.059l-0.036-0.036-0.036-0.036-0.072-0.072c-0.019-0.019-0.045-0.031-0.071-0.042-0.004-0.002-0.009-0.004-0.013-0.006-0.016-0.007-0.033-0.010-0.051-0.013-0.015-0.003-0.031-0.005-0.045-0.011s-0.025-0.017-0.036-0.029c-0.014-0.016-0.029-0.031-0.048-0.031h-0.479c-0.020 0-0.039 0.003-0.059 0.007-0.012 0.002-0.025 0.004-0.037 0.005-0.016 0.002-0.032 0.001-0.048 0s-0.032-0.002-0.048 0c-0.016 0.002-0.033 0.006-0.048 0.013s-0.028 0.019-0.036 0.035c-0.013 0.027-0.013 0.054-0.012 0.081 0 0.005 0 0.010 0 0.015v0.288c0 0.017 0.009 0.033 0.018 0.048s0.018 0.031 0.018 0.048v0.096z"></path>
<path fill="#000" d="M15.627 16.865h-2.010l-0.007-0.031-0.007-0.031c-0.005-0.024-0.031-0.034-0.056-0.044-0.011-0.004-0.022-0.009-0.031-0.014-0.010-0.006-0.022-0.010-0.034-0.013-0.021-0.007-0.041-0.013-0.053-0.030l-0.116-0.174c-0.009-0.013-0.022-0.023-0.034-0.033-0.015-0.012-0.030-0.023-0.038-0.040l-0.044-0.087-0.021-0.042-0.022-0.045c-0.012-0.024-0.014-0.053-0.014-0.081-0-0.007 0-0.014 0-0.021v-0.305c0-0.017-0.004-0.034-0.007-0.051s-0.007-0.034-0.007-0.051v-0.814c0-0.016 0.011-0.030 0.022-0.044s0.022-0.027 0.022-0.044v-0.203c0-0.034 0.003-0.068 0.014-0.102 0.006-0.018 0.025-0.024 0.044-0.031 0.018-0.006 0.035-0.012 0.043-0.027l0.087-0.174c0.015-0.031 0.041-0.056 0.073-0.073 0.018-0.009 0.037-0.013 0.056-0.017 0.016-0.003 0.031-0.006 0.046-0.012 0.030-0.012 0.059-0.027 0.087-0.044 0.014-0.009 0.024-0.022 0.034-0.035 0.011-0.014 0.022-0.029 0.038-0.038 0.032-0.018 0.066-0.027 0.102-0.029 0.017-0.001 0.034 0 0.051 0 0.017 0.001 0.034 0.001 0.051 0 0.034-0.002 0.068-0.007 0.102-0.015 0.014-0.003 0.027-0.012 0.039-0.021 0.015-0.011 0.030-0.022 0.048-0.022h0.305c0.033 0 0.065-0.007 0.097-0.014l0.005-0.001c0.017-0.004 0.034-0.009 0.051-0.015s0.034-0.011 0.051-0.015h0.002c0.033-0.007 0.066-0.014 0.1-0.014h0.203c0.027 0 0.053 0.005 0.080 0.010 0.007 0.002 0.014 0.003 0.022 0.004 0.021 0.004 0.041 0.010 0.062 0.015 0.018 0.005 0.036 0.010 0.054 0.014 0.016 0.003 0.032 0.001 0.049-0.001 0.018-0.002 0.036-0.004 0.053 0.001s0.031 0.014 0.046 0.023c0.013 0.008 0.026 0.016 0.041 0.021s0.031 0.009 0.047 0.013c0.018 0.005 0.037 0.009 0.055 0.016 0.035 0.012 0.069 0.026 0.102 0.044 0.018 0.010 0.035 0.022 0.051 0.034 0.012 0.008 0.024 0.017 0.036 0.025s0.024 0.012 0.037 0.017c0.017 0.007 0.035 0.014 0.050 0.026 0.021 0.018 0.030 0.044 0.038 0.069 0.002 0.006 0.004 0.012 0.006 0.018 0.004 0.013 0.003 0.028 0.002 0.044-0.002 0.024-0.004 0.047 0.013 0.058l0.044 0.029 0.131 0.087c0.018 0.012 0.028 0.032 0.035 0.053 0.004 0.011 0.006 0.023 0.009 0.034 0.004 0.017 0.005 0.033 0.007 0.050s0.004 0.035 0.007 0.052c0.002 0.007 0.003 0.015 0.005 0.022 0.006 0.027 0.012 0.055 0.024 0.080l0.044 0.087c0.005 0.010 0.010 0.019 0.016 0.029 0.011 0.019 0.023 0.038 0.027 0.059 0.005 0.021 0.003 0.045 0.002 0.067-0.001 0.012-0.002 0.023-0.002 0.034s-0.001 0.023-0.001 0.034-0.002 0.045 0.001 0.068c0.003 0.023 0.011 0.045 0.018 0.068 0.004 0.011 0.008 0.022 0.011 0.034l0.029 0.102c0.004 0.015 0.016 0.027 0.029 0.039 0.015 0.015 0.030 0.029 0.030 0.048v0.203c0 0.020 0.004 0.039 0.007 0.058s0.007 0.039 0.007 0.058v0.305c0 0.004 0 0.009 0 0.013 0 0.030 0.001 0.060-0.015 0.089-0.011 0.020-0.030 0.029-0.050 0.037-0.013 0.006-0.027 0.012-0.037 0.021-0.007 0.006-0.014 0.012-0.021 0.018-0.020 0.016-0.040 0.033-0.051 0.055l-0.087 0.174c-0.008 0.017-0.008 0.035-0.009 0.054-0 0.016-0 0.032-0.006 0.048-0.006 0.017-0.014 0.032-0.023 0.047s-0.021 0.028-0.035 0.040c-0.013 0.012-0.030 0.019-0.047 0.025-0.014 0.005-0.028 0.010-0.040 0.019s-0.020 0.025-0.028 0.040c-0.011 0.022-0.023 0.043-0.044 0.047l-0.095 0.018z"></path>
<path fill="#000" d="M11.718 15.595l0.066 0.083c0.012 0.015 0.011 0.034 0.011 0.053-0 0.016-0.001 0.032 0.006 0.046 0.001 0.002 0.002 0.004 0.003 0.006 0.014 0.032 0.031 0.065 0.063 0.076 0.028 0.010 0.057 0.006 0.085 0.002 0.005-0.001 0.009-0.001 0.014-0.002 0.016-0.002 0.031-0.005 0.047-0.008 0.017-0.003 0.035-0.006 0.052-0.009 0.015-0.002 0.031-0.001 0.047 0 0.017 0.001 0.035 0.002 0.052 0 0.032-0.005 0.058-0.027 0.083-0.050 0.012-0.012 0.019-0.027 0.026-0.043s0.013-0.029 0.024-0.040c0.011-0.011 0.025-0.017 0.039-0.023s0.031-0.014 0.043-0.026c0.012-0.012 0.024-0.025 0.033-0.039s0.016-0.028 0.016-0.044c0.001-0.017-0.004-0.034-0.008-0.052-0.004-0.016-0.008-0.031-0.008-0.047v-0.397c0-0.032-0.014-0.061-0.029-0.091-0.001-0.003-0.003-0.005-0.004-0.008-0.016-0.033-0.031-0.063-0.066-0.083-0.033-0.019-0.066-0.020-0.099-0.017-0.014 0.001-0.029 0.005-0.043 0.008-0.019 0.004-0.037 0.009-0.056 0.009h-0.198c-0.020 0-0.036 0.014-0.051 0.027-0.010 0.009-0.020 0.017-0.031 0.022-0.013 0.006-0.027 0.009-0.041 0.012-0.021 0.004-0.041 0.008-0.058 0.022-0.022 0.018-0.038 0.040-0.053 0.063-0.004 0.006-0.009 0.013-0.013 0.019-0.005 0.008-0.012 0.015-0.018 0.022-0.016 0.019-0.032 0.037-0.032 0.060v0.099c0 0.011-0.001 0.022-0.001 0.033-0.001 0.022-0.002 0.044 0.001 0.066 0.004 0.023 0.012 0.045 0.021 0.066 0.004 0.011 0.009 0.022 0.012 0.033s0.007 0.022 0.010 0.034 0.013 0.045 0.023 0.066c0.006 0.012 0.014 0.023 0.021 0.033 0.004 0.005 0.008 0.011 0.012 0.016z"></path>
<path fill="#000" d="M9.124 7.693c-0.059-0.291-0.034-0.592 0.072-0.869 0.146-0.067 0.226-0.227 0.191-0.384-0.022-0.065-0.023-0.142 0.009-0.215s0.090-0.124 0.153-0.151l0.076-0.281c-0.155-0.17-0.292-0.358-0.408-0.559s-0.21-0.414-0.28-0.633l-7.393 7.4 5.703 5.708h9.488v-0.527h-4.209l-1.569-1.544c-0.043-0.053-0.076-0.115-0.096-0.183s-0.026-0.138-0.019-0.206c-0.093-0.553-0.287-1.083-0.574-1.565-0.21-0.334-0.289-0.734-0.222-1.122l-0.019-1.231c-0.037-0.417-0.112-0.832-0.225-1.239s-0.264-0.8-0.449-1.176c-0.127-0.189-0.186-0.416-0.167-0.643 0.029-0.195 0.008-0.394-0.061-0.579z"></path>
</svg>
