<?xml version="1.0" encoding="utf-8"?>
<!-- Generated by IcoMoon.io -->
<!DOCTYPE svg PUBLIC "-//W3C//DTD SVG 1.1//EN" "http://www.w3.org/Graphics/SVG/1.1/DTD/svg11.dtd">
<svg version="1.1" xmlns="http://www.w3.org/2000/svg" xmlns:xlink="http://www.w3.org/1999/xlink" width="24" height="24" viewBox="0 0 24 24">
<path fill="#ef7c23" d="M23.431 10.783l-10.238-10.036c-0.675-0.661-1.821-0.612-2.548 0.11l-10.023 9.939c-0.727 0.721-0.771 1.851-0.096 2.512l10.238 10.036c0.674 0.661 1.821 0.612 2.548-0.109l10.023-9.939c0.727-0.721 0.77-1.852 0.096-2.512z"></path>
<path fill="#ef7c23" d="M22.771 11.213l-10.008-9.811c-0.437-0.428-1.178-0.396-1.649 0.071l-9.865 9.782c-0.471 0.466-0.499 1.198-0.062 1.626l10.009 9.811c0.436 0.428 1.178 0.396 1.648-0.071l9.865-9.781c0.471-0.467 0.498-1.199 0.062-1.626z"></path>
<path fill="none" stroke="#000" stroke-width="0.7722" stroke-miterlimit="22.926" stroke-linecap="butt" stroke-linejoin="miter" d="M22.771 11.213l-10.009-9.812c-0.436-0.428-1.177-0.396-1.648 0.071l-9.865 9.782c-0.471 0.466-0.498 1.198-0.062 1.626l10.009 9.811c0.436 0.427 1.178 0.396 1.648-0.071l9.865-9.781c0.471-0.467 0.498-1.199 0.062-1.626z"></path>
<path fill="#000" d="M10.986 5.421c0.669 0 1.212 0.535 1.212 1.195s-0.543 1.195-1.212 1.195c-0.67 0-1.212-0.535-1.212-1.195s0.543-1.195 1.212-1.195z"></path>
<path fill="#000" d="M12.784 7.479l-2.106 1.225c-0.139 0.097-0.245 0.216-0.298 0.363l-0.615 2.549-0.565 1.443c-0.122 0.249 0.357 0.563 0.569 0.206l0.66-1.593 0.437-1.647 0.776 2.479-0.928 2.781v3.144c-0.031 0.796 0.83 1.114 0.988 0l0.057-3.088 0.93-1.61 0.835 2.902 0.911 1.816c0.469 0.845 1.24 0.433 0.892-0.413l-0.778-2.227-0.265-3.108-0.892-4.080 1.443 0.636v1.404c-0.006 0.519 0.712 0.564 0.778 0l0.018-1.629-2.392-1.516c-0.168-0.065-0.323-0.085-0.456-0.039z"></path>
<path fill="#000" d="M5.703 14.386l11.364-4.1 0.076 0.205-11.364 4.1-0.076-0.205z"></path>
<path fill="#000" d="M7.812 13.68c-0.951-0.384-1.703-0.312-2.020 0.761 0.673-0.254 1.346-0.507 2.020-0.761z"></path>
</svg>
