<?xml version="1.0" encoding="utf-8"?>
<!-- Generated by IcoMoon.io -->
<!DOCTYPE svg PUBLIC "-//W3C//DTD SVG 1.1//EN" "http://www.w3.org/Graphics/SVG/1.1/DTD/svg11.dtd">
<svg version="1.1" xmlns="http://www.w3.org/2000/svg" xmlns:xlink="http://www.w3.org/1999/xlink" width="24" height="24" viewBox="0 0 24 24">
<path fill="#ffd033" d="M0.344 11.167l10.824-10.823c0.458-0.458 1.207-0.458 1.665 0l10.823 10.823c0.458 0.458 0.458 1.207 0 1.665l-10.823 10.824c-0.458 0.458-1.207 0.458-1.665 0l-10.824-10.824c-0.458-0.458-0.458-1.208 0-1.665z"></path>
<path fill="#000" d="M0.605 11.339l10.735-10.735c0.363-0.363 0.958-0.363 1.321 0l10.734 10.735c0.363 0.363 0.363 0.958 0 1.322l-10.734 10.735c-0.364 0.363-0.958 0.363-1.321 0l-10.735-10.735c-0.363-0.363-0.363-0.958 0-1.322z"></path>
<path fill="#ffd033" d="M0.94 11.67l10.73-10.729c0.182-0.182 0.479-0.182 0.66 0l10.729 10.729c0.182 0.182 0.182 0.479 0 0.66l-10.729 10.73c-0.182 0.182-0.479 0.182-0.66 0l-10.73-10.73c-0.181-0.182-0.181-0.479 0-0.66z"></path>
<path fill="#000" d="M8.824 11.491c-0.002 1.646-0.004 3.291-0.006 4.936h-1.882c0-1.647-0.001-3.295-0.001-4.942 0-2.727 2.51-4.94 5.574-4.94s5.563 2.225 5.563 4.952c0 2.557-2.196 4.672-4.995 4.926l0.297 1.068c0.033 0.131 0.046 0.24-0.026 0.346-0.108 0.159-0.325 0.201-0.484 0.093l-3.604-2.442 3.604-2.437c0.159-0.108 0.376-0.067 0.484 0.092 0.075 0.111 0.059 0.218 0.018 0.361l-0.298 1.025c1.763-0.226 3.12-1.501 3.12-3.032 0-1.69-1.652-3.068-3.679-3.068s-3.679 1.378-3.684 3.061z"></path>
</svg>
