<?xml version="1.0" encoding="utf-8"?>
<!-- Generated by IcoMoon.io -->
<!DOCTYPE svg PUBLIC "-//W3C//DTD SVG 1.1//EN" "http://www.w3.org/Graphics/SVG/1.1/DTD/svg11.dtd">
<svg version="1.1" xmlns="http://www.w3.org/2000/svg" xmlns:xlink="http://www.w3.org/1999/xlink" width="24" height="24" viewBox="0 0 24 24">
<path fill="#ffd033" d="M0.343 11.167l10.824-10.824c0.458-0.458 1.207-0.458 1.666 0l10.824 10.824c0.458 0.458 0.458 1.208 0 1.665l-10.824 10.824c-0.458 0.458-1.208 0.458-1.666 0l-10.824-10.824c-0.458-0.458-0.458-1.207 0-1.665z"></path>
<path fill="#000" d="M0.605 11.339l10.735-10.735c0.363-0.363 0.958-0.363 1.322 0l10.734 10.735c0.364 0.364 0.364 0.958 0 1.321l-10.734 10.735c-0.364 0.363-0.958 0.363-1.322 0l-10.735-10.735c-0.363-0.363-0.363-0.957 0-1.321z"></path>
<path fill="#ffd033" d="M0.94 11.67l10.73-10.73c0.181-0.182 0.479-0.182 0.66 0l10.729 10.73c0.181 0.181 0.181 0.479 0 0.66l-10.73 10.73c-0.181 0.181-0.48 0.181-0.66 0l-10.73-10.73c-0.181-0.181-0.181-0.479 0-0.66z"></path>
<path fill="#000" d="M12.392 4.619c0.224 0.089 0.29 0.281 0.359 0.485 0 0 0.012 0.036 0.013 0.037 0.115 0.282 0.284 0.429 0.508 0.437 0.549-0.124 0.829-0.447 0.834-0.96v-0.002c-0.051-0.6-0.388-0.932-1.004-0.988-0.433 0.007-0.74 0.217-0.937 0.644-0.035 0.085-0.038 0.156-0.008 0.212 0.036 0.066 0.114 0.111 0.236 0.135z"></path>
<path fill="#000" d="M16.595 10.387c-0.386 0-0.782 0.099-1.149 0.282-0.018-0.025-0.134-0.189-0.159-0.225 0.030-0.017 0.093-0.051 0.093-0.051 1.022-0.504 2.004-0.531 2.942-0.081l0.338-0.18-0.033-0.024c-0.44-0.313-0.993-0.523-1.644-0.625-0.005-0.050-0.038-0.365-0.039-0.368-0.020-0.074-0.054-0.124-0.1-0.15-0.042-0.023-0.093-0.026-0.152-0.009 0 0-0.746 0.182-0.796 0.194-0.043-1.295-0.255-2.755-1.46-3.816-0.156-0.108-0.247-0.057-0.29 0 0 0-0.644 0.443-0.645 0.444-0.206 0.158-0.258 0.319-0.29 0.453 0 0-0.401 0.899-0.415 0.93-0.71-0.105-1.43-0.159-2.14-0.159 0 0 0 0-0.001 0-0.38 0.021-0.552 0.203-0.684 0.373 0 0-1.411 2.038-1.437 2.076-0.603-0.405-1.564-0.77-2.762-0.251-0.085 0.036-0.121 0.108-0.092 0.182 0.038 0.096 0.172 0.162 0.332 0.106 0.874-0.307 1.616-0.239 2.332 0.208-0.029 0.044-0.34 0.511-0.34 0.511s-0.062 0.093-0.079 0.119c-0.39-0.217-0.83-0.335-1.277-0.335-1.454 0-2.637 1.183-2.637 2.637s1.183 2.637 2.637 2.637c1.454 0 2.637-1.183 2.637-2.637 0-0.82-0.375-1.576-1.025-2.081 0.018-0.024 0.068-0.092 0.068-0.092s0.328-0.466 0.359-0.51c0.575 0.466 0.877 1.040 0.918 1.756 0.012 0.21 0.167 0.414 0.253 0.419 0.031 0.002 0.052-0.018 0.058-0.053 0.133-0.799-0.186-1.531-0.966-2.219 0.003-0.166 0.037-0.269 0.099-0.307 0.048-0.028 0.117-0.020 0.195 0.014l1.651 3.766c0.051 0.124 0.16 0.19 0.345 0.197 0 0 2.759 0.020 2.763 0.020 0 0 0.183-0.028 0.215-0.032 0.294 1.066 1.267 1.81 2.377 1.811 0.656 0.001 1.273-0.255 1.74-0.721s0.725-1.086 0.725-1.744c0-1.359-1.105-2.465-2.465-2.465zM16.595 14.563c-0.715-0.001-1.387-0.494-1.617-1.175 0.060-0.009 0.797-0.121 0.824-0.126 0.161 0.297 0.466 0.483 0.803 0.483 0.505 0 0.915-0.411 0.915-0.915s-0.41-0.915-0.915-0.915c0 0-0.242 0.041-0.277 0.046-0.016-0.024-0.419-0.608-0.453-0.657 0.23-0.104 0.483-0.164 0.719-0.164 0.944 0 1.711 0.767 1.711 1.711 0 0.456-0.178 0.887-0.503 1.211s-0.753 0.501-1.208 0.501zM15.911 12.24c-0.123 0.144-0.196 0.318-0.213 0.505-0.030 0.005-0.763 0.115-0.814 0.123 0-0.011-0.001-0.022-0.001-0.033 0-0.468 0.224-0.954 0.58-1.264 0.031 0.047 0.431 0.644 0.448 0.669zM14.134 12.983c-0.029 0.004-0.1 0.015-0.111 0.017 0-0.022-0.001-0.045-0.001-0.067 0-0.99 0.285-1.712 0.864-2.208 0.026 0.041 0.124 0.196 0.14 0.222-0.561 0.464-0.897 1.18-0.897 1.906 0 0.043 0.002 0.087 0.004 0.13zM12.178 9.197l-1.029-0.565c-0.489-0.288-0.976-0.332-1.486-0.145 0.069-0.098 0.417-0.6 0.417-0.6s0.184-0.264 0.184-0.265c0.034-0.028 0.077-0.060 0.108-0.053 0.020 0.005 0.039 0.026 0.059 0.070 0.099 0.112 0.186 0.163 0.268 0.155 0.073-0.007 0.138-0.059 0.198-0.162 0.054-0.13 0.186-0.158 0.415-0.087l0.818 0.232c0 0 0.818 0.232 0.823 0.233 0.059 0.004 0.121-0.002 0.177-0.065 0 0 0.429-0.286 0.464-0.309 0.026 0.040 0.73 1.122 0.783 1.204-0.035 0-0.083 0.004-0.16 0.014-0.239 0.031-1.692 0.299-1.692 0.383l0.019-0.024c-0.14 0.034-0.257 0.028-0.366-0.018zM10.644 10.862l0.066 0.682c0 0 0.032 0.335 0.033 0.335-0.004 0.027-0.011 0.038-0.016 0.040-0.002 0.001-0.021 0.005-0.069-0.039l-0.283-0.65c0 0-0.443-1.017-0.441-1.011l-0.009-0.038-0.003-0.070c0 0 0.094-0.035 0.094-0.036l1.426 0.024c0.046-0.012 0.093 0.005 0.138 0.047l0.188 0.293c0.006 0.015 0.012 0.035 0.005 0.048s-0.029 0.021-0.039 0.024c0 0-0.685-0.017-0.686-0.017-0.171 0.002-0.29 0.042-0.355 0.118-0.038 0.045-0.057 0.103-0.057 0.172 0 0.024 0.002 0.049 0.007 0.076zM12.768 12.036c-0.061-0.005-0.187-0.016-0.222-0.019 0.004-0.035 0.021-0.202 0.031-0.29 0.049 0.079 0.156 0.252 0.191 0.309zM6.659 14.558c-1.067 0-1.935-0.868-1.935-1.935s0.868-1.935 1.935-1.935c0.307 0 0.61 0.077 0.882 0.217-0.032 0.049-0.666 1.012-0.682 1.037-0.033-0.005-0.2-0.032-0.2-0.032-0.393 0-0.713 0.32-0.713 0.713s0.32 0.713 0.713 0.713c0.393 0 0.713-0.32 0.713-0.713 0-0.175-0.067-0.34-0.183-0.47 0.016-0.025 0.638-0.994 0.669-1.043 0.467 0.371 0.736 0.919 0.736 1.513 0 1.067-0.868 1.935-1.935 1.935z"></path>
<path fill="#000" d="M8.613 8.88c0.059 0.037 0.125 0.035 0.193-0.006 0.216-0.087 0.336-0.289 0.355-0.606-0.039-0.256-0.151-0.429-0.352-0.543-0.132-0.076-0.205-0.021-0.243 0.040-0.095 0.167-0.131 0.346-0.111 0.545 0 0.207 0.050 0.39 0.158 0.57z"></path>
</svg>
