<?xml version="1.0" encoding="utf-8"?>
<!-- Generated by IcoMoon.io -->
<!DOCTYPE svg PUBLIC "-//W3C//DTD SVG 1.1//EN" "http://www.w3.org/Graphics/SVG/1.1/DTD/svg11.dtd">
<svg version="1.1" xmlns="http://www.w3.org/2000/svg" xmlns:xlink="http://www.w3.org/1999/xlink" width="24" height="24" viewBox="0 0 24 24">
<path fill="#fecf33" d="M12.743 23.589c-0.428 0.428-1.122 0.428-1.55 0l-10.846-10.846c-0.428-0.428-0.428-1.121 0-1.549l10.846-10.846c0.428-0.428 1.122-0.428 1.55 0l10.846 10.846c0.428 0.428 0.428 1.122 0 1.549l-10.846 10.846z"></path>
<path fill="#000" d="M12.226 23.072c-0.142 0.143-0.374 0.143-0.516 0l-10.847-10.846c-0.142-0.143-0.142-0.374 0-0.517l10.847-10.846c0.142-0.142 0.374-0.142 0.516 0l10.847 10.846c0.142 0.142 0.142 0.374 0 0.517l-10.847 10.846zM23.382 11.4l-10.846-10.846c-0.314-0.313-0.823-0.313-1.137 0l-10.846 10.846c-0.313 0.313-0.313 0.823 0 1.136l10.846 10.846c0.314 0.313 0.823 0.313 1.137 0l10.846-10.846c0.314-0.313 0.314-0.823 0-1.136v0z"></path>
<path fill="#000" d="M13.324 16.263l0.032-0.153c0.147-0.745-0.105-1.155-0.304-1.841l0.467 0.053 0.241 1.674 0.456 0.114-0.068-2.114-2.031-0.987-0.047-0.015-0.073-0.011-0.063-0.005h-0.105c-0.145-0.005-0.39 0.121-0.462 0.251-0.34 0.435-0.499 1.001-0.593 1.538l-1.338 0.949 0.236 0.388 1.428-0.566 0.373-0.608c0.148 0.334 0.297 0.646 0.477 0.965l-0.808 1.632-0.625 2.586 0.771 0.221 0.672-2.388 0.010-0.053 0.016-0.026 0.010-0.026 0.010-0.020 0.016-0.011 0.010-0.017 0.483-0.529 1.374 3.174 0.608-0.477-1.175-3.699z"></path>
<path fill="#000" d="M10.725 12.294c0.001 0.016 0.001 0.030 0.003 0.045 0.001 0.010 0.003 0.020 0.005 0.031 0 0.004 0 0.007 0.001 0.010 0.083 0.544 0.772 0.692 1.080 0.289 0.075-0.091 0.118-0.196 0.13-0.304 0.001 0 0.001-0.001 0.001-0.001v-0.001c0.001-0.006 0.001-0.013 0.001-0.019l0.004-0.059c-0.001-0.012-0.002-0.023-0.003-0.034 0-0.004-0.001-0.006-0.001-0.009-0.001-0.014-0.003-0.029-0.005-0.043-0.001-0.008-0.003-0.015-0.005-0.024-0.003-0.014-0.005-0.027-0.008-0.040 0-0.001-0.001-0.002-0.001-0.004-0.031-0.122-0.091-0.22-0.169-0.293-0.099-0.098-0.233-0.16-0.392-0.164-0.212-0.011-0.429 0.085-0.551 0.292-0.042 0.067-0.068 0.138-0.080 0.211-0.002 0.009-0.005 0.018-0.007 0.029-0.001 0.018-0.002 0.036-0.002 0.054 0 0.005-0 0.010-0 0.014 0 0.006 0 0.013 0 0.018z"></path>
<path fill="#000" d="M13.639 8.981l1.415-0.231-0.892-1.159c-0.463 0.403-0.52 0.888-0.523 1.39v0zM13.25 9.066c-0.003-0.050-0.011-0.131-0.011-0.187 0-0.574 0.186-1.131 0.689-1.594l-0.524-0.628-0.811 2.475 0.658-0.067zM10.135 6.603v0c0.011 0.011 1.956 2.2 1.956 2.2l-0.022-0.265h-0.099l-0.011-0.144h0.386l0.011 0.155h-0.089l0.034 0.243 0.769-2.33-2.89 0.004-0.045 0.138zM8.855 8.841v0c0 0.127-0.091 0.227-0.212 0.227s-0.221-0.1-0.221-0.221c0-0.118 0.094-0.216 0.216-0.221 0.505-0.407 0.664-0.674 0.829-1.193-0.242-0.143-0.544-0.228-0.837-0.228-0.922 0-1.674 0.752-1.674 1.674s0.752 1.674 1.674 1.674c0.921 0 1.674-0.751 1.674-1.674 0-0.465-0.196-0.916-0.54-1.227-0.218 0.588-0.52 0.882-0.908 1.19zM13.698 9.337c0.189 0.705 0.863 1.215 1.608 1.215 0.922 0 1.674-0.751 1.674-1.674s-0.751-1.674-1.674-1.674c-0.294 0-0.635 0.070-0.883 0.215l0.909 1.206c0.111 0.001 0.207 0.1 0.207 0.221s-0.099 0.221-0.221 0.221c-0.034 0-0.069-0.009-0.099-0.023l-1.521 0.292zM9.586 7.046l0.593-1.636-0.188-0.321 0.376-0.409h0.807l0.011 0.232h-0.707l-0.144 0.154 0.166 0.298-0.209 0.739h2.895l0.044-0.135c-0.233-0.030-0.634-0.174-0.73-0.257s-0.012-0.16 0.097-0.163c0.571-0.024 1.421-0.072 1.582-0.073s0.178 0.080 0.070 0.198c-0.108 0.118-0.202 0.225-0.611 0.289l-0.111 0.298 0.685 0.849c0.323-0.196 0.714-0.297 1.093-0.297 1.138 0 2.067 0.928 2.067 2.067s-0.928 2.067-2.067 2.067c-0.937 0-1.761-0.646-2.002-1.538l-0.63 0.113c-0.027 0.074-0.090 0.131-0.165 0.176l0.112 0.532h0.144l0.011 0.144-0.452 0.022v-0.155h0.11l-0.137-0.532c-0.203-0.034-0.31-0.208-0.25-0.381l-2.056-2.326-0.093 0.249c0.499 0.394 0.798 0.999 0.798 1.629 0 1.138-0.929 2.067-2.067 2.067s-2.067-0.929-2.067-2.067c0-1.139 0.928-2.067 2.067-2.067 0.331 0 0.67 0.080 0.957 0.234v0z"></path>
</svg>
