<?xml version="1.0" encoding="utf-8"?>
<!-- Generated by IcoMoon.io -->
<!DOCTYPE svg PUBLIC "-//W3C//DTD SVG 1.1//EN" "http://www.w3.org/Graphics/SVG/1.1/DTD/svg11.dtd">
<svg version="1.1" xmlns="http://www.w3.org/2000/svg" xmlns:xlink="http://www.w3.org/1999/xlink" width="24" height="24" viewBox="0 0 24 24">
<path fill="#edae15" d="M23.513 12.778c0.268-0.268 0.39-0.512 0.39-0.781s-0.122-0.537-0.39-0.805l-10.708-10.708c-0.268-0.268-0.537-0.39-0.805-0.39s-0.537 0.122-0.805 0.39l-10.708 10.708c-0.268 0.268-0.39 0.537-0.39 0.805s0.122 0.512 0.39 0.781l10.708 10.708c0.268 0.268 0.537 0.39 0.805 0.39s0.512-0.122 0.781-0.39l10.733-10.708z"></path>
<path fill="#231f20" d="M23.269 12.558c0.171-0.195 0.268-0.366 0.268-0.561s-0.098-0.366-0.268-0.561l-10.708-10.708c-0.195-0.171-0.366-0.268-0.561-0.268s-0.366 0.098-0.561 0.268l-10.708 10.708c-0.171 0.195-0.268 0.366-0.268 0.561s0.098 0.366 0.268 0.561l10.708 10.708c0.195 0.171 0.366 0.268 0.561 0.268s0.366-0.098 0.561-0.268zM22.976 11.729c0.097 0.098 0.146 0.171 0.146 0.268s-0.049 0.171-0.146 0.268l-10.708 10.708c-0.098 0.098-0.171 0.146-0.268 0.146s-0.171-0.049-0.268-0.146l-10.708-10.708c-0.098-0.098-0.146-0.171-0.146-0.268s0.049-0.171 0.146-0.268l10.708-10.708c0.098-0.098 0.171-0.146 0.268-0.146s0.171 0.049 0.268 0.146l10.708 10.708z"></path>
<path fill="#231f20" d="M13.634 17.9h1.707v-4.488l-1.268-3.244v-4.073h-1.707v4.464l1.268 3.244zM8.61 17.9h1.707v-11.806h-1.707v11.806z"></path>
</svg>
