<?xml version="1.0" encoding="utf-8"?>
<!-- Generated by IcoMoon.io -->
<!DOCTYPE svg PUBLIC "-//W3C//DTD SVG 1.1//EN" "http://www.w3.org/Graphics/SVG/1.1/DTD/svg11.dtd">
<svg version="1.1" xmlns="http://www.w3.org/2000/svg" xmlns:xlink="http://www.w3.org/1999/xlink" width="24" height="24" viewBox="0 0 24 24">
<path fill="#000" d="M0.25 11.417l11.167-11.166c0.321-0.321 0.846-0.321 1.167 0l11.166 11.166c0.321 0.321 0.321 0.846 0 1.167l-11.166 11.166c-0.321 0.321-0.846 0.321-1.167 0l-11.167-11.166c-0.321-0.321-0.321-0.846 0-1.167z"></path>
<path fill="#f60" d="M1.060 11.747l10.687-10.687c0.139-0.139 0.367-0.139 0.507 0l10.686 10.687c0.139 0.139 0.139 0.367 0 0.506l-10.686 10.686c-0.14 0.14-0.368 0.14-0.507 0l-10.687-10.686c-0.14-0.139-0.14-0.367 0-0.506z"></path>
<path fill="#000" d="M16.707 9.462v0.291c0 0.777-0.366 1.545-0.99 2.016l-2.437 1.839c-0.196 0.148-0.313 0.374-0.313 0.618v1.779h-1.796v-1.779c0-0.466 0.127-0.932 0.373-1.329 0.152-0.246 0.342-0.477 0.574-0.652l2.479-1.874c0.118-0.089 0.215-0.207 0.268-0.345 0.034-0.089 0.052-0.185 0.052-0.28v-0.312l-1.189 0.341c-0.019 0.005-0.038 0.007-0.056 0.010-0.084 0.011-0.165-0.011-0.235-0.059-0.075-0.052-0.128-0.132-0.144-0.22-0.018-0.098-0.001-0.19 0.057-0.27l2.458-3.442 2.238 3.45c0.036 0.055 0.057 0.125 0.057 0.191 0 0.168-0.126 0.314-0.289 0.349-0.060 0.013-0.117 0.004-0.174-0.015l-0.933-0.306z"></path>
<path fill="#000" d="M10.826 9.462v0.291c0 0.777-0.366 1.545-0.99 2.016l-2.437 1.839c-0.196 0.148-0.313 0.374-0.313 0.618v1.779h-1.796v-1.779c0-0.466 0.127-0.932 0.373-1.329 0.152-0.246 0.342-0.477 0.574-0.652l2.479-1.874c0.118-0.089 0.215-0.207 0.268-0.345 0.034-0.089 0.052-0.185 0.052-0.28v-0.312l-1.189 0.341c-0.019 0.005-0.038 0.007-0.056 0.010-0.084 0.011-0.165-0.011-0.235-0.059-0.075-0.052-0.128-0.132-0.144-0.22-0.018-0.098-0.001-0.19 0.057-0.27l2.458-3.442 2.238 3.45c0.036 0.055 0.057 0.125 0.057 0.191 0 0.168-0.126 0.314-0.289 0.349-0.060 0.013-0.117 0.004-0.174-0.015l-0.933-0.306z"></path>
</svg>
