<?xml version="1.0" encoding="utf-8"?>
<!-- Generated by IcoMoon.io -->
<!DOCTYPE svg PUBLIC "-//W3C//DTD SVG 1.1//EN" "http://www.w3.org/Graphics/SVG/1.1/DTD/svg11.dtd">
<svg version="1.1" xmlns="http://www.w3.org/2000/svg" xmlns:xlink="http://www.w3.org/1999/xlink" width="24" height="24" viewBox="0 0 24 24">
<path fill="#fee011" d="M0.348 12.837l10.815 10.814c0.463 0.464 1.211 0.464 1.674 0l10.815-10.814c0.463-0.463 0.463-1.211 0-1.675l-10.815-10.814c-0.463-0.463-1.211-0.463-1.674 0l-10.815 10.814c-0.463 0.464-0.463 1.212 0 1.675z"></path>
<path fill="#000" d="M0.497 12.643l10.853 10.852c0.358 0.359 0.935 0.359 1.301 0l10.853-10.852c0.358-0.359 0.358-0.942 0-1.302l-10.853-10.852c-0.366-0.359-0.942-0.359-1.301 0l-10.853 10.852c-0.358 0.359-0.358 0.942 0 1.302z"></path>
<path fill="#fee011" d="M0.812 12.307l10.875 10.875c0.179 0.179 0.449 0.179 0.627 0l10.875-10.875c0.18-0.18 0.18-0.449 0-0.629l-10.875-10.875c-0.179-0.18-0.449-0.18-0.627 0l-10.875 10.875c-0.18 0.18-0.18 0.449 0 0.629z"></path>
<path fill="#000" d="M8.111 16.283c0-3.717 2.553-6.917 5.963-7.908l-0.887-1.457c-0.082-0.225 0.060-0.533 0.309-0.615 0.12-0.023 0.225 0 0.285 0.022l5.564 2.013-3.859 4.332c-0.060 0.038-0.166 0.143-0.263 0.166-0.248 0.059-0.474-0.060-0.556-0.293l0.143-1.682c-2.358 0.601-4.13 2.839-4.13 5.422v2.094h-2.569v-2.094z"></path>
</svg>
