<?xml version="1.0" encoding="utf-8"?>
<!-- Generated by IcoMoon.io -->
<!DOCTYPE svg PUBLIC "-//W3C//DTD SVG 1.1//EN" "http://www.w3.org/Graphics/SVG/1.1/DTD/svg11.dtd">
<svg version="1.1" xmlns="http://www.w3.org/2000/svg" xmlns:xlink="http://www.w3.org/1999/xlink" width="24" height="24" viewBox="0 0 24 24">
<path fill="#ffd520" d="M11.223 0.322l-10.898 10.899c-0.205 0.204-0.324 0.488-0.324 0.778s0.119 0.573 0.324 0.778l10.898 10.899c0.206 0.205 0.487 0.323 0.779 0.322 0.29-0.001 0.573-0.118 0.778-0.322l10.898-10.899c0.204-0.203 0.322-0.49 0.322-0.778s-0.118-0.575-0.322-0.778l-10.898-10.899c-0.264-0.264-0.662-0.377-1.026-0.296-0.21 0.048-0.366 0.163-0.531 0.296z"></path>
<path fill="#000" d="M12.561 0.54l10.898 10.898c0.148 0.149 0.232 0.352 0.232 0.561s-0.084 0.411-0.232 0.56l-10.898 10.9c-0.147 0.146-0.353 0.23-0.56 0.23s-0.413-0.083-0.56-0.23l-10.901-10.9c-0.146-0.147-0.23-0.352-0.23-0.56s0.084-0.413 0.23-0.561l10.901-10.898c0.148-0.148 0.351-0.232 0.56-0.232s0.412 0.084 0.56 0.232z"></path>
<path fill="#ffd520" d="M12 23.19c0.078-0.001 0.154-0.030 0.208-0.083l10.9-10.9c0.052-0.052 0.092-0.135 0.092-0.208 0-0.075-0.039-0.155-0.092-0.208l-10.9-10.9c-0.053-0.053-0.133-0.083-0.208-0.083-0.074 0-0.156 0.031-0.208 0.083l-10.9 10.9c-0.053 0.053-0.083 0.133-0.083 0.208 0 0.074 0.031 0.156 0.083 0.208l10.9 10.9c0.054 0.053 0.131 0.083 0.208 0.083v0z"></path>
<path fill="#000" d="M11.078 15.021h1.947v1.888h-1.947v-1.888zM9.993 7.678c0.514-0.331 1.146-0.497 1.895-0.497 0.984 0 1.802 0.235 2.453 0.706s0.977 1.167 0.977 2.091c0 0.566-0.142 1.043-0.425 1.431-0.166 0.235-0.483 0.536-0.954 0.902l-0.464 0.359c-0.253 0.196-0.42 0.425-0.503 0.686-0.052 0.166-0.081 0.423-0.085 0.771h-1.764c0.026-0.736 0.096-1.245 0.209-1.526s0.405-0.604 0.875-0.97l0.477-0.372c0.157-0.118 0.283-0.246 0.379-0.385 0.174-0.24 0.261-0.503 0.261-0.791 0-0.331-0.097-0.633-0.291-0.905s-0.548-0.408-1.062-0.408c-0.505 0-0.864 0.168-1.075 0.503s-0.317 0.684-0.317 1.045h-1.888c0.052-1.241 0.486-2.121 1.3-2.64v0z"></path>
</svg>
