<?xml version="1.0" encoding="utf-8"?>
<!-- Generated by IcoMoon.io -->
<!DOCTYPE svg PUBLIC "-//W3C//DTD SVG 1.1//EN" "http://www.w3.org/Graphics/SVG/1.1/DTD/svg11.dtd">
<svg version="1.1" xmlns="http://www.w3.org/2000/svg" xmlns:xlink="http://www.w3.org/1999/xlink" width="27" height="24" viewBox="0 0 27 24">
<path fill="#fff" d="M1.287 23.819c-0.457 0-0.879-0.244-1.107-0.639s-0.228-0.883 0-1.279l12.171-21.081c0.228-0.396 0.651-0.639 1.107-0.639s0.879 0.244 1.107 0.639l12.171 21.081c0.228 0.396 0.228 0.883 0 1.279s-0.651 0.639-1.107 0.639h-24.343z"></path>
<path fill="#c1121c" d="M1.287 23.34h24.343c0.286 0 0.549-0.152 0.692-0.4s0.143-0.552 0-0.799l-12.171-21.081c-0.143-0.247-0.407-0.4-0.692-0.4s-0.549 0.152-0.692 0.4l-12.171 21.081c-0.143 0.247-0.143 0.552 0 0.799s0.407 0.4 0.692 0.4zM4.055 20.942l9.403-16.286 9.403 16.286h-18.805z"></path>
<path fill="#000" d="M10.379 13.186l-0.424 0.789v0.403h-0.412v0.812h0.412v3.052h-0.403v0.812h0.403v0.369h0.81v-0.369h0.748v0.369h0.81v-0.369h0.71v0.369h0.81v-0.369h0.763v0.369h0.809v-0.369h0.717v0.369h0.809v-0.369h0.373v-0.812h-0.373v-3.052h0.364v-0.812h-0.364v-0.393l-0.384-0.799-0.424 0.789v0.403h-0.717v-0.393l-0.384-0.799-0.424 0.789v0.403h-0.763v-0.393l-0.385-0.799-0.424 0.789v0.403h-0.71v-0.393l-0.385-0.799-0.424 0.789v0.403h-0.748v-0.393l-0.385-0.799zM10.764 15.189h0.748v3.052h-0.748v-3.052zM12.322 15.189h0.71v3.052h-0.71v-3.052zM13.842 15.189h0.763v3.052h-0.763v-3.052zM15.414 15.189h0.717v3.052h-0.717v-3.052z"></path>
</svg>
