<?xml version="1.0" encoding="utf-8"?>
<!-- Generated by IcoMoon.io -->
<!DOCTYPE svg PUBLIC "-//W3C//DTD SVG 1.1//EN" "http://www.w3.org/Graphics/SVG/1.1/DTD/svg11.dtd">
<svg version="1.1" xmlns="http://www.w3.org/2000/svg" xmlns:xlink="http://www.w3.org/1999/xlink" width="24" height="24" viewBox="0 0 24 24">
<path fill="#fecf33" d="M0.342 11.171l10.829-10.829c0.456-0.456 1.202-0.456 1.659 0l10.829 10.829c0.456 0.456 0.456 1.202 0 1.659l-10.829 10.829c-0.456 0.456-1.202 0.456-1.659 0l-10.829-10.829c-0.456-0.457-0.456-1.203 0-1.659z"></path>
<path fill="#000" d="M0.657 11.272l10.615-10.615c0.4-0.4 1.055-0.4 1.456 0l10.615 10.615c0.401 0.4 0.401 1.055 0 1.456l-10.615 10.615c-0.4 0.4-1.055 0.4-1.456 0l-10.615-10.615c-0.4-0.4-0.4-1.055 0-1.456z"></path>
<path fill="#fecf33" d="M1.040 11.514l10.474-10.474c0.268-0.268 0.705-0.268 0.973 0l10.474 10.474c0.268 0.268 0.268 0.705 0 0.973l-10.474 10.474c-0.268 0.268-0.705 0.268-0.973 0l-10.474-10.474c-0.267-0.268-0.267-0.705 0-0.973z"></path>
<path fill="#000" d="M11.966 17.782c0.084-1.86 0.024-4.344 2.016-6.42l0.708 1.284c0.108 0.18 0.192 0.3 0.373 0.336 0.264 0.048 0.516-0.12 0.576-0.384l1.14-5.928-5.928 1.14c-0.264 0.048-0.444 0.312-0.384 0.576 0.024 0.168 0.156 0.264 0.312 0.36l1.344 0.732-6.288 6.276 1.86 1.872 2.88-2.88c-0.192 0.924-0.3 2.040-0.336 3.012v3.036h1.728v-3.012z"></path>
</svg>
