<?xml version="1.0" encoding="utf-8"?>
<!-- Generated by IcoMoon.io -->
<!DOCTYPE svg PUBLIC "-//W3C//DTD SVG 1.1//EN" "http://www.w3.org/Graphics/SVG/1.1/DTD/svg11.dtd">
<svg version="1.1" xmlns="http://www.w3.org/2000/svg" xmlns:xlink="http://www.w3.org/1999/xlink" width="24" height="24" viewBox="0 0 24 24">
<path fill="#ffd033" d="M0.343 11.167l10.824-10.824c0.458-0.458 1.207-0.458 1.666 0l10.824 10.824c0.458 0.458 0.458 1.208 0 1.665l-10.824 10.824c-0.458 0.458-1.208 0.458-1.666 0l-10.824-10.824c-0.458-0.457-0.458-1.207 0-1.665z"></path>
<path fill="#000" d="M0.605 11.339l10.735-10.735c0.363-0.363 0.958-0.363 1.322 0l10.734 10.735c0.364 0.364 0.364 0.958 0 1.321l-10.734 10.735c-0.364 0.363-0.958 0.363-1.322 0l-10.735-10.735c-0.363-0.363-0.363-0.957 0-1.321z"></path>
<path fill="#ffd033" d="M0.94 11.67l10.73-10.73c0.181-0.182 0.479-0.182 0.66 0l10.729 10.73c0.181 0.181 0.181 0.479 0 0.66l-10.729 10.73c-0.181 0.182-0.48 0.182-0.66 0l-10.73-10.73c-0.181-0.181-0.181-0.479 0-0.66z"></path>
<path fill="#000" d="M11.419 6.906c0.267-0.047 0.529-0.126 0.784-0.253 0.175-0.147 0.276-0.367 0.276-0.597 0-0.432-0.352-0.784-0.784-0.784s-0.784 0.352-0.784 0.784c0 0.392 0.119 0.801 0.507 0.85zM10.977 6.022c0.010-0.206 0.056-0.288 0.539-0.318s0.603 0.336 0.414 0.692c-0.167-0.084-0.459-0.152-0.58-0.145-0.151 0.045-0.184 0.107-0.33 0.205-0.043-0.127-0.053-0.246-0.044-0.434z"></path>
<path fill="#000" d="M13.041 13.903c-0.022-0.298 0.111-0.549 0.583-0.696 0.705-1.391 2.022-2.359 3.749-1.79-0.011-0.332-0.059-0.663-0.185-0.994-0.35-0.104-0.7-0.208-1.051-0.312-0.099 0.289-0.275 0.483-0.526 0.582-0.132 0.076-0.227 0.057-0.284-0.057-0.109-0.166-0.218-0.331-0.327-0.497-0.194-0.166-0.407-0.256-0.639-0.27-0.341 0.017-0.682 0.059-1.022 0.114-0.104-0.421-0.114-0.819 0.085-1.165-0.046-0.451-0.134-0.894-0.369-1.307-0.132-0.27-0.341-0.426-0.625-0.469-0.080 0-0.161 0-0.241 0-0.388 0.038-0.776 0.076-1.165 0.113-0.222 0.019-0.369 0.095-0.44 0.227-0.222 0.284-0.445 0.568-0.667 0.852-0.317-0.009-0.635 0.038-0.952 0.142-0.412 0-0.824 0-1.235 0-0.024 0.057-0.048 0.114-0.071 0.17 0.163 0.315 0.362 0.499 0.639 0.398-0.019 0.161-0.038 0.322-0.057 0.483-0.251 0.010-0.502 0.019-0.753 0.028-0.227 0.005-0.322 0.104-0.284 0.298 0.041 0.402 0.211 0.649 0.44 0.824-0.156 0.227-0.312 0.454-0.469 0.682-0.977-0.285-1.93-0.108-2.869 0.327 0.014 0.061 0.028 0.123 0.043 0.184 0.592 0.19 1.184 0.379 1.775 0.568 0.469-0.104 0.938-0.208 1.407-0.312 0 0.090 0 0.18 0 0.27-0.455 0.095-0.909 0.189-1.364 0.284-0.502-0.133-1.004-0.265-1.505-0.398-0.137-0.061-0.256-0.047-0.355 0.043-0.019 0.081-0.038 0.161-0.057 0.242 0.556 0.239 1.148 0.443 1.818 0.568 2.377-0.898 3.905-0.347 4.73 1.406 0.114-0.061 0.227-0.123 0.341-0.184 0.445 0 0.89 0 1.335 0 0.071 0.061 0.142 0.123 0.213 0.184 0.502-0.274 0.852-0.189 1.051 0.256 0.057-0.099 0.113-0.199 0.17-0.298-0.010-0.171-0.019-0.341-0.029-0.512-0.279 0.005-0.558 0.010-0.838 0.014zM17.077 10.573c0.003 0.154 0.006 0.309 0.008 0.463-0.361-0.022-0.722-0.048-1.082-0.314-0.021-0.56 0.517-0.367 1.074-0.149zM7.342 11.787c-0.398 0.090-0.797 0.18-1.195 0.27-0.388-0.103-0.776-0.206-1.164-0.308 0.005-0.033 0.010-0.067 0.016-0.1 0.357-0.080 0.714-0.159 1.071-0.239 0.427 0.069 0.853 0.138 1.279 0.208-0.002 0.057-0.005 0.113-0.008 0.169zM8.61 8.733c-0.028-0.043-0.056-0.085-0.085-0.128 0.126 0.049 0.259 0.077 0.398 0.085 0.080-0.005 0.161-0.009 0.242-0.014 0.241 0.005 0.473-0.011 0.714-0.006 0.242-0.142 0.493-0.184 0.735-0.164 0.005 0.104 0.010 0.208 0.014 0.312-0.246 0.019-0.492 0.083-0.739 0.156-0.076 0.027-0.152 0.027-0.227 0-0.038-0.005-0.076-0.010-0.114-0.014-0.137-0.033-0.187 0.036-0.242 0.099-0.186 0.176-0.279 0.365-0.369 0.554-0.142-0.005-0.284-0.009-0.426-0.014 0.047-0.242 0.095-0.483 0.142-0.724 0.026-0.061 0.012-0.108-0.043-0.142zM9.008 10.373c-0.034-0.048-0.039-0.081-0.073-0.129 0.112-0.321 0.232-0.633 0.462-0.876 0.424 0.016 0.847 0.001 1.271-0.061 0.027 0.109 0.055 0.219 0.082 0.328-0.048 0.068-0.096 0.137-0.144 0.205-0.465-0.124-0.929 0.129-1.394 0.554-0.068-0.007-0.136-0.014-0.205-0.021zM10.798 13.969c-0.304-0.486-0.664-0.863-1.091-1.166 0.048-0.058 0.109-0.194 0.127-0.281 0.146 0 0.291 0 0.436 0 0.299 0.24 0.454 0.492 0.569 0.747 0.075 0.038 0.144 0.081 0.172 0.149 0.124 0.187-0.069 0.432-0.213 0.551zM12.674 13.895c-0.070-0.028-0.14-0.056-0.211-0.084 0.107-0.778-0.045-0.947-0.857-0.956-0.14 0.155-0.314 0.146-0.491 0.113 0-0.145 0-0.29 0-0.435 0.813-0.084 2.286-0.294 1.559 1.363z"></path>
<path fill="#000" d="M18.932 14.367v-0.047l-0.236-0.041-0.006-0.063 0.236-0.085-0.003-0.063-0.236-0.003-0.009-0.088 0.223-0.086-0.009-0.066-0.245-0.006-0.016-0.063 0.214-0.126-0.022-0.060-0.242 0.022-0.028-0.079 0.189-0.155-0.028-0.050-0.226 0.066-0.035-0.066 0.185-0.158-0.035-0.060-0.239 0.063-0.054-0.072 0.167-0.177-0.050-0.060-0.229 0.092-0.050-0.054 0.107-0.224-0.047-0.054-0.207 0.142-0.056-0.054 0.107-0.214-0.060-0.044-0.198 0.145-0.066-0.041 0.1-0.214-0.053-0.028-0.171 0.171-0.043-0.019 0.081-0.23-0.074-0.028-0.113 0.205-0.075-0.027 0.056-0.231-0.089-0.027-0.101 0.214-0.098-0.028 0.009-0.24-0.088-0.015-0.082 0.218-0.109-0.010-0.006-0.237-0.112-0.004-0.038 0.232-0.11-0.003-0.040-0.234h-0.113l-0.008 0.242-0.113 0.024-0.072-0.226-0.113 0.024 0.016 0.234-0.072 0.024-0.105-0.21-0.089 0.024 0.056 0.226-0.056 0.032-0.129-0.202-0.089 0.032 0.056 0.242-0.072 0.033-0.113-0.194-0.073 0.032 0.048 0.258-0.064 0.040-0.137-0.178-0.079 0.053 0.091 0.226-0.041 0.041-0.195-0.142-0.044 0.050 0.126 0.205-0.034 0.035-0.186-0.142-0.035 0.041 0.129 0.214-0.028 0.041-0.208-0.126-0.034 0.054 0.157 0.189-0.031 0.060-0.217-0.092-0.031 0.053 0.179 0.164-0.019 0.054-0.242-0.031-0.010 0.038 0.188 0.151-0.016 0.047-0.229-0.050-0.016 0.035 0.207 0.154-0.013 0.047-0.242-0.019-0.010 0.057 0.22 0.123-0.003 0.066-0.239 0.032-0.003 0.047 0.227 0.069 0.006 0.063-0.236 0.094v0.057l0.242 0.028 0.009 0.060-0.229 0.079 0.013 0.075h0.242l0.019 0.082-0.22 0.101 0.016 0.057 0.239-0.031 0.022 0.072-0.214 0.101 0.025 0.060 0.245-0.025 0.028 0.069-0.176 0.173 0.031 0.060 0.239-0.076 0.041 0.076-0.157 0.176 0.028 0.047 0.226-0.088 0.041 0.044-0.126 0.211 0.041 0.047 0.204-0.126 0.044 0.041-0.123 0.208 0.032 0.034 0.217-0.129 0.054 0.044-0.113 0.198 0.044 0.038 0.186-0.161 0.066 0.034-0.069 0.23 0.050 0.028 0.154-0.189 0.063 0.035-0.060 0.233 0.054 0.019 0.148-0.199 0.076 0.025-0.016 0.24 0.050 0.019 0.11-0.215 0.088 0.019 0.016 0.236 0.054 0.009 0.079-0.223 0.082 0.013v0.233l0.047-0.003 0.085-0.23 0.066-0.003 0.047 0.23 0.044 0.006 0.047-0.239 0.079-0.019 0.054 0.233 0.063-0.007 0.028-0.249 0.050-0.009 0.126 0.211 0.054-0.016-0.044-0.236 0.053-0.019 0.148 0.199 0.044-0.019-0.047-0.233 0.037-0.019 0.176 0.183 0.028-0.012-0.069-0.23 0.037-0.022 0.179 0.173 0.025-0.022-0.085-0.23 0.044-0.035 0.185 0.164 0.035-0.029-0.11-0.214 0.031-0.031 0.21 0.126 0.032-0.032-0.139-0.186 0.038-0.038 0.226 0.101 0.026-0.031-0.141-0.186 0.031-0.044 0.217 0.094 0.031-0.032-0.157-0.192 0.038-0.060 0.248 0.037 0.022-0.031-0.186-0.161 0.028-0.060 0.236 0.054 0.019-0.044-0.189-0.164 0.019-0.063 0.245 0.006 0.012-0.035-0.22-0.113 0.022-0.088 0.242-0.006 0.006-0.044-0.223-0.098 0.006-0.069 0.242-0.066zM16.877 15.428c-0.579 0-1.052-0.473-1.052-1.052s0.473-1.052 1.052-1.052c0.58 0 1.052 0.472 1.052 1.052s-0.472 1.052-1.052 1.052z"></path>
<path fill="#000" d="M17.361 15.182c0.157-0.053 0.28-0.238 0.301-0.301 0.268-0.823-0.785 0.464-0.301 0.301z"></path>
<path fill="#000" d="M9.556 15.125l0.181-0.065-0.002-0.049-0.181-0.002-0.007-0.068 0.171-0.065-0.008-0.051-0.188-0.005-0.012-0.048 0.164-0.097-0.017-0.046-0.186 0.017-0.022-0.061 0.145-0.118-0.022-0.039-0.174 0.051-0.026-0.051 0.142-0.121-0.027-0.046-0.183 0.048-0.041-0.056 0.128-0.136-0.038-0.046-0.176 0.070-0.039-0.041 0.082-0.172-0.036-0.041-0.159 0.109-0.043-0.041 0.082-0.165-0.046-0.034-0.152 0.111-0.051-0.031 0.077-0.165-0.041-0.022-0.131 0.131-0.033-0.015 0.063-0.176-0.057-0.021-0.086 0.157-0.058-0.021 0.043-0.178-0.069-0.021-0.077 0.165-0.076-0.021 0.007-0.185-0.068-0.011-0.063 0.168-0.084-0.008-0.005-0.182-0.086-0.003-0.029 0.179-0.084-0.002-0.031-0.18h-0.087l-0.006 0.186-0.087 0.019-0.056-0.174-0.087 0.019 0.012 0.18-0.056 0.019-0.081-0.162-0.068 0.019 0.043 0.174-0.043 0.025-0.099-0.155-0.068 0.025 0.043 0.186-0.055 0.025-0.087-0.149-0.055 0.025 0.037 0.198-0.050 0.031-0.105-0.136-0.061 0.040 0.070 0.174-0.031 0.032-0.15-0.109-0.034 0.039 0.096 0.158-0.027 0.026-0.142-0.109-0.027 0.031 0.099 0.165-0.022 0.031-0.159-0.097-0.027 0.041 0.121 0.145-0.024 0.046-0.166-0.071-0.024 0.041 0.138 0.126-0.014 0.041-0.186-0.024-0.008 0.029 0.145 0.116-0.012 0.036-0.176-0.039-0.012 0.026 0.159 0.119-0.010 0.037-0.186-0.014-0.007 0.043 0.169 0.094-0.002 0.051-0.183 0.024-0.002 0.036 0.174 0.053 0.005 0.049-0.181 0.073v0.043l0.186 0.022 0.007 0.046-0.176 0.061 0.009 0.058h0.186l0.014 0.063-0.169 0.078 0.012 0.044 0.183-0.024 0.017 0.056-0.164 0.077 0.019 0.046 0.188-0.019 0.022 0.054-0.135 0.133 0.024 0.046 0.184-0.058 0.031 0.058-0.121 0.136 0.022 0.036 0.174-0.068 0.031 0.034-0.096 0.162 0.032 0.037 0.157-0.097 0.033 0.032-0.094 0.159 0.024 0.027 0.166-0.099 0.041 0.034-0.087 0.153 0.034 0.029 0.142-0.123 0.051 0.027-0.053 0.177 0.039 0.022 0.118-0.145 0.048 0.027-0.046 0.179 0.041 0.014 0.113-0.152 0.058 0.019-0.012 0.184 0.039 0.015 0.084-0.165 0.068 0.015 0.012 0.181 0.041 0.007 0.060-0.172 0.063 0.009v0.179l0.036-0.003 0.065-0.177 0.051-0.002 0.036 0.176 0.034 0.005 0.036-0.184 0.060-0.014 0.041 0.179 0.048-0.005 0.022-0.191 0.039-0.007 0.097 0.162 0.041-0.012-0.034-0.181 0.041-0.015 0.114 0.153 0.034-0.015-0.036-0.179 0.029-0.014 0.135 0.14 0.022-0.010-0.053-0.177 0.029-0.017 0.138 0.133 0.019-0.017-0.065-0.177 0.034-0.027 0.142 0.126 0.027-0.022-0.084-0.164 0.024-0.024 0.162 0.097 0.024-0.024-0.106-0.143 0.029-0.029 0.174 0.077 0.019-0.024-0.109-0.143 0.024-0.034 0.167 0.073 0.024-0.024-0.121-0.148 0.029-0.046 0.191 0.029 0.017-0.024-0.143-0.124 0.022-0.046 0.181 0.041 0.014-0.034-0.145-0.126 0.015-0.048 0.188 0.005 0.010-0.026-0.169-0.087 0.017-0.068 0.186-0.005 0.005-0.034-0.171-0.075 0.005-0.053 0.186-0.051v-0.036l-0.181-0.031-0.005-0.049zM8.163 16.056c-0.445 0-0.808-0.363-0.808-0.808s0.363-0.808 0.808-0.808c0.445 0 0.808 0.363 0.808 0.808s-0.363 0.808-0.808 0.808z"></path>
<path fill="#000" d="M8.535 15.868c0.12-0.041 0.215-0.183 0.231-0.231 0.206-0.632-0.602 0.357-0.231 0.231z"></path>
<path fill="#000" d="M5.361 13.523c0-0.079 0.015-0.166 0.037-0.241l-0.86 0-0.169 0.041-0.002 0.033 0.161 0.049 0.005 0.045-0.167 0.067v0.040l0.172 0.020 0.007 0.042-0.163 0.056 0.009 0.054h0.172l0.013 0.058-0.156 0.072 0.011 0.040 0.17-0.022 0.015 0.051-0.151 0.072 0.018 0.042 0.174-0.018 0.020 0.049-0.125 0.123 0.022 0.043 0.169-0.054 0.029 0.054-0.111 0.125 0.020 0.034 0.16-0.063 0.029 0.031-0.089 0.15 0.029 0.034 0.145-0.090 0.031 0.029-0.087 0.147 0.022 0.025 0.154-0.091 0.038 0.031-0.080 0.141 0.031 0.026 0.132-0.114 0.046 0.025-0.049 0.163 0.035 0.020 0.109-0.134 0.045 0.024-0.042 0.166 0.037 0.013 0.105-0.14 0.053 0.018-0.011 0.17 0.035 0.013 0.078-0.152 0.062 0.013 0.011 0.167 0.038 0.007 0.056-0.158 0.058 0.009v0.165l0.033-0.002 0.060-0.163 0.047-0.002 0.033 0.163 0.031 0.004 0.033-0.17 0.003-0.6c-0.407-0.005-0.742-0.339-0.742-0.75z"></path>
</svg>
