<?xml version="1.0" encoding="utf-8"?>
<!-- Generated by IcoMoon.io -->
<!DOCTYPE svg PUBLIC "-//W3C//DTD SVG 1.1//EN" "http://www.w3.org/Graphics/SVG/1.1/DTD/svg11.dtd">
<svg version="1.1" xmlns="http://www.w3.org/2000/svg" xmlns:xlink="http://www.w3.org/1999/xlink" width="24" height="24" viewBox="0 0 24 24">
<path fill="#ffd520" d="M10.983 23.543l-10.534-10.507c-0.572-0.572-0.572-1.484 0-2.057l10.534-10.534c0.554-0.563 1.484-0.572 2.039 0l10.534 10.534c0.572 0.572 0.572 1.484 0 2.039l-10.534 10.534c-0.554 0.581-1.484 0.563-2.039-0.009z"></path>
<path fill="#000" d="M11.144 23.373c0.483 0.483 1.234 0.483 1.699 0.018l10.534-10.534c0.465-0.492 0.483-1.225 0-1.699l-10.534-10.534c-0.465-0.465-1.216-0.465-1.681 0l-10.534 10.534c-0.465 0.465-0.483 1.234 0 1.699l10.516 10.516z"></path>
<path fill="#ffd520" d="M11.466 23.078l-10.534-10.543c-0.304-0.304-0.304-0.769 0-1.073l10.534-10.534c0.304-0.304 0.769-0.286 1.073 0.009l10.534 10.534c0.286 0.295 0.286 0.778 0 1.064l-10.534 10.534c-0.304 0.304-0.787 0.304-1.073 0.009z"></path>
<path fill="#000" d="M13.179 10.809l-0.001-6.504h-2.41v6.504h-4v2.41l4 0.001v6.504h2.41v-6.505h4v-2.41h-4z"></path>
</svg>
