<?xml version="1.0" encoding="utf-8"?>
<!-- Generated by IcoMoon.io -->
<!DOCTYPE svg PUBLIC "-//W3C//DTD SVG 1.1//EN" "http://www.w3.org/Graphics/SVG/1.1/DTD/svg11.dtd">
<svg version="1.1" xmlns="http://www.w3.org/2000/svg" xmlns:xlink="http://www.w3.org/1999/xlink" width="16" height="24" viewBox="0 0 16 24">
<path fill="#0e518d" d="M0 0h16v24h-16v-24z"></path>
<path fill="#f7fbf5" d="M5.814 7.463l1.621-5.414h0.337l-0.353 5.414h-1.605z"></path>
<path fill="#f7fbf5" d="M7.237 10.242l-0.743 11.415h-4.934l3.421-11.413 2.256-0.002z"></path>
<path fill="#f7fbf5" d="M10.186 7.463l-1.621-5.414h-0.34l0.353 5.414h1.608z"></path>
<path fill="#f7fbf5" d="M8.76 10.242l0.746 11.415h4.931l-3.418-11.413-2.259-0.002z"></path>
<path fill="#f7fbf5" d="M12.187 8.854v1.389h0.991v-1.389h1.223v-0.696h-12.801v0.696h1.223v1.389h0.988v-1.389h8.376z"></path>
<path fill="none" stroke="#f7fbf5" stroke-width="0.5381" stroke-miterlimit="4" stroke-linecap="butt" stroke-linejoin="miter" d="M14.050 23.367c0.717 0 1.299-0.566 1.299-1.263v-20.212c0-0.696-0.583-1.263-1.299-1.263h-12.103c-0.717 0-1.299 0.566-1.299 1.263v20.212c0 0.697 0.582 1.263 1.299 1.263h12.103z"></path>
</svg>
