<?xml version="1.0" encoding="utf-8"?>
<!-- Generated by IcoMoon.io -->
<!DOCTYPE svg PUBLIC "-//W3C//DTD SVG 1.1//EN" "http://www.w3.org/Graphics/SVG/1.1/DTD/svg11.dtd">
<svg version="1.1" xmlns="http://www.w3.org/2000/svg" xmlns:xlink="http://www.w3.org/1999/xlink" width="24" height="24" viewBox="0 0 24 24">
<path fill="#fff" d="M1.365 0.051h21.423c0.552 0.040 1.177 0.604 1.207 1.268v21.361c0.003 0.526-0.602 1.234-1.284 1.268h-21.392c-0.486-0.030-1.246-0.784-1.268-1.284l0.031-21.331c-0.055-0.321 0.729-1.29 1.284-1.284z"></path>
<path fill="#154889" d="M1.586 0.613c-0.6-0.026-0.942 0.384-0.92 1.039v20.729c0.002 0.442 0.19 0.973 0.8 0.983l21.139-0.002c0.61-0.011 0.799-0.541 0.802-0.983v-20.731c0.023-0.656-0.32-1.065-0.92-1.039l-20.901 0.003z"></path>
<path fill="#fff" d="M12.065 2.898l-9.942 17.259h19.852l-9.91-17.259z"></path>
<path fill="#000" d="M12.709 6.894c0 0.545-0.442 0.988-0.988 0.988s-0.988-0.442-0.988-0.988c0-0.545 0.442-0.988 0.988-0.988s0.988 0.442 0.988 0.988v0z"></path>
<path fill="#000" d="M3.859 19.68h2.181l1.55-3.508h-1.641l-2.090 3.508z"></path>
<path fill="#000" d="M7.383 19.696h2.159l0.334-1.787c-0.696 0.408-1.167 0.257-1.609 0.006l0.964-1.747h-0.668l-1.179 3.527z"></path>
<path fill="#000" d="M10.928 19.68h2.218l-0.334-3.516h-1.579l-0.305 3.516z"></path>
<path fill="#000" d="M14.469 19.686l2.199 0.016-1.23-3.556-0.244 0.032c0.318 0.672 0.647 1.411-0.539 2.073l-0.548-1.029-0.073-0.056 0.436 2.52z"></path>
<path fill="#000" d="M18.044 19.702h2.162l-2.148-3.554-1.603 0.016 1.588 3.538z"></path>
<path fill="#000" d="M11.233 12.761h1.963l0.009 0.177 2.083 3.902c0.041 0.638-0.25 0.882-0.541 1.126l-2.523-4.641-2.433 4.348c-0.688 0.435-0.94 0.253-1.239 0.135l2.662-4.836 0.019-0.212z"></path>
<path fill="#000" d="M8.775 12.35l2.461-3.696c0.3-0.398 0.752-0.593 1.497-0.398l1.943 1.593 0.207 0.382v1.529c-0.188 0.4-0.458 0.672-0.9 0.669v-1.967l-0.773-0.685v2.764h-1.999v-2.214l-1.378 2.015c-0.397 0.222-0.768 0.313-1.059 0.008z"></path>
</svg>
