<?xml version="1.0" encoding="utf-8"?>
<!-- Generated by IcoMoon.io -->
<!DOCTYPE svg PUBLIC "-//W3C//DTD SVG 1.1//EN" "http://www.w3.org/Graphics/SVG/1.1/DTD/svg11.dtd">
<svg version="1.1" xmlns="http://www.w3.org/2000/svg" xmlns:xlink="http://www.w3.org/1999/xlink" width="24" height="24" viewBox="0 0 24 24">
<path fill="#fff" d="M11.964 0.076c-6.585 0-11.924 5.338-11.924 11.924s5.338 11.924 11.924 11.924c6.585 0 11.924-5.338 11.924-11.924s-5.338-11.924-11.924-11.924z"></path>
<path fill="#287ac8" d="M11.964 0.706c-6.237 0-11.294 5.057-11.294 11.294s5.057 11.294 11.294 11.294c6.237 0 11.294-5.057 11.294-11.294s-5.057-11.294-11.294-11.294zM6.378 11.329c0 0 1.122-3.437 1.436-4.387 0.354-1.072 1.418-1.028 1.418-1.028l1.462 0.097c0.913 0 1.205 0.851 1.205 0.851l1.888 4.301-0.544 0.177-1.761-2.883-0.248 2.978 1.134 8.395h-0.886l-1.808-6.41-2.481 6.41h-0.78l1.95-9.033 0.071-2.375-1.56 3.084zM10.207 3.077c0.72 0 1.303 0.584 1.303 1.303s-0.584 1.304-1.303 1.304c-0.72 0-1.303-0.584-1.303-1.304s0.584-1.303 1.303-1.303zM13.905 11.447l0.945 1.016 1.82 0.095 2.198 2.505-0.449 0.331-1.323-1.205-0.284 1.3 1.394 3.97-0.52 0.236-1.583-2.789-1.394 2.924h-0.638l1.134-4.602 0.047-1.725-0.874-0.331-0.992-1.583zM16.446 10.482c0.526 0 0.952 0.426 0.952 0.952s-0.426 0.952-0.952 0.952-0.953-0.426-0.953-0.952c0-0.526 0.427-0.952 0.953-0.952z"></path>
</svg>
