<?xml version="1.0" encoding="utf-8"?>
<!-- Generated by IcoMoon.io -->
<!DOCTYPE svg PUBLIC "-//W3C//DTD SVG 1.1//EN" "http://www.w3.org/Graphics/SVG/1.1/DTD/svg11.dtd">
<svg version="1.1" xmlns="http://www.w3.org/2000/svg" xmlns:xlink="http://www.w3.org/1999/xlink" width="24" height="24" viewBox="0 0 24 24">
<path fill="#0e518d" d="M24 12c0 6.627-5.373 12-12 12s-12-5.373-12-12c0-6.627 5.373-12 12-12s12 5.373 12 12z"></path>
<path fill="#f7fbf5" d="M9.817 5.718c0.679 0 1.229-0.548 1.229-1.226s-0.55-1.229-1.229-1.229-1.226 0.55-1.226 1.229c0 0.678 0.547 1.226 1.226 1.226z"></path>
<path fill="#f7fbf5" d="M16.39 12.153c0.494 0 0.895-0.403 0.895-0.897 0-0.492-0.4-0.895-0.895-0.895s-0.895 0.402-0.895 0.895c0 0.494 0.4 0.897 0.895 0.897z"></path>
<path fill="#f7fbf5" d="M9.81 6.11h0.797c0.892 0.037 1.487 1.484 1.487 1.484l1.726 3.403-0.519 0.313-2.081-3.195-0.036 2.881 1.542 8.971h-0.782l-2.133-6.723-2.137 6.723h-0.782l1.543-8.971-0.092-2.918-1.3 3.679-0.613-0.205 1.095-3.958c0 0 0.205-1.484 1.487-1.484h0.8z"></path>
<path fill="#f7fbf5" d="M13.562 11.608l0.408-0.258 0.893 1.021h1.542c0.445 0 0.668 0.334 0.668 0.334l1.986 2.042-0.389 0.429-1.431-1.395-0.316 1.45 1.71 4.031-0.54 0.243-1.766-2.992-1.281 3.4h-0.519l0.908-4.795v-1.855l-0.908-0.187-0.965-1.469z"></path>
<path fill="#c1121c" d="M4.779 20.752l16.024-16.024-1.647-1.647-16.006 16.005 1.629 1.665z"></path>
<path fill="none" stroke="#f7fbf5" stroke-width="0.5389" stroke-miterlimit="4" stroke-linecap="butt" stroke-linejoin="miter" d="M23.355 12c0 6.271-5.084 11.355-11.355 11.355s-11.355-5.084-11.355-11.355c0-6.271 5.084-11.355 11.355-11.355s11.355 5.084 11.355 11.355z"></path>
</svg>
