<?xml version="1.0" encoding="utf-8"?>
<!-- Generated by IcoMoon.io -->
<!DOCTYPE svg PUBLIC "-//W3C//DTD SVG 1.1//EN" "http://www.w3.org/Graphics/SVG/1.1/DTD/svg11.dtd">
<svg version="1.1" xmlns="http://www.w3.org/2000/svg" xmlns:xlink="http://www.w3.org/1999/xlink" width="24" height="24" viewBox="0 0 24 24">
<path fill="#fff" d="M20.843 12c0 4.881-3.961 8.842-8.842 8.842s-8.842-3.961-8.842-8.842c0-4.88 3.961-8.842 8.842-8.842s8.842 3.962 8.842 8.842z"></path>
<path fill="#1c1d20" d="M10.533 10c-0.147 0-0.267 0.119-0.267 0.266v9.2l-1.199-1.2-1.2 1.2v-9.2c0-1.472 1.194-2.667 2.667-2.667h7.6l1.2 1.2-1.2 1.2h-7.6z"></path>
<path fill="#e41408" d="M12.005 0c-6.628 0-12.005 5.378-12.005 12.005s5.377 11.99 12.005 11.99 11.99-5.362 11.99-11.99c0-6.627-5.362-12.005-11.99-12.005zM12.005 3.196c2.15 0 4.117 0.776 5.644 2.058l-12.582 12.146c-1.165-1.49-1.871-3.356-1.871-5.395 0-4.86 3.948-8.809 8.809-8.809zM18.944 6.611c1.158 1.492 1.856 3.36 1.856 5.394 0 4.861-3.934 8.794-8.794 8.794-2.15 0-4.114-0.779-5.644-2.059l12.582-12.13z"></path>
</svg>
