<?xml version="1.0" encoding="utf-8"?>
<!-- Generated by IcoMoon.io -->
<!DOCTYPE svg PUBLIC "-//W3C//DTD SVG 1.1//EN" "http://www.w3.org/Graphics/SVG/1.1/DTD/svg11.dtd">
<svg version="1.1" xmlns="http://www.w3.org/2000/svg" xmlns:xlink="http://www.w3.org/1999/xlink" width="24" height="24" viewBox="0 0 24 24">
<path fill="#e23828" d="M23.986 12.001c0-6.619-5.366-11.985-11.985-11.985s-11.985 5.366-11.985 11.985c0 6.619 5.366 11.985 11.985 11.985s11.985-5.366 11.985-11.985z"></path>
<path fill="#fff" d="M20.99 12.001c0-4.964-4.024-8.989-8.989-8.989s-8.989 4.024-8.989 8.989c0 4.964 4.024 8.989 8.989 8.989s8.989-4.024 8.989-8.989z"></path>
<path fill="#000" d="M7.808 18.247c0.248 0 0.449-0.201 0.449-0.449v-1.648h7.491v1.648c0 0.248 0.201 0.449 0.449 0.449h0.749c0.119 0 0.233-0.047 0.318-0.132s0.132-0.199 0.132-0.318v-1.648h0.599v-5.393c0-0.331-0.268-0.599-0.599-0.599l-0.306-3.953c-0.030-0.39-0.356-0.691-0.747-0.691h-8.681c-0.391 0-0.717 0.301-0.747 0.691l-0.306 3.953c-0.159 0-0.311 0.063-0.424 0.176s-0.175 0.265-0.175 0.424v5.393h0.599v1.648c0 0.119 0.047 0.234 0.132 0.318s0.199 0.132 0.318 0.132h0.749z"></path>
<path fill="#fff" d="M13.728 12.931c0.038 0.206 0.038 0.418 0 0.625-0.072 0.257-0.305 0.435-0.571 0.438-0.293 0-0.571-0.126-0.764-0.346l-0.483 0.452c0.323 0.345 0.774 0.54 1.247 0.54 0.594-0 1.112-0.404 1.256-0.98 0.049-0.276 0.049-0.557 0-0.833-0.145-0.576-0.663-0.98-1.256-0.98-0.145 0-0.287 0.035-0.416 0.102v-0.712h1.616v-0.646h-2.309v1.904l0.6 0.161c0.148-0.106 0.326-0.162 0.508-0.162 0.267 0.003 0.499 0.181 0.571 0.438z"></path>
<path fill="#fff" d="M16.219 12.102h0.591v0.473h-0.591v1.332c0 0.054 0.021 0.105 0.059 0.143s0.090 0.059 0.143 0.059c0.083 0 0.166-0.013 0.246-0.039l0.145 0.45c-0.126 0.041-0.258 0.061-0.39 0.061-0.188 0-0.368-0.075-0.501-0.208s-0.208-0.313-0.208-0.502v-1.298h-0.338v-0.473h0.338v-0.524l0.507-0.441v0.965z"></path>
<path fill="#fff" d="M9.046 14.676c0.417 0.001 0.817-0.164 1.113-0.458s0.461-0.694 0.461-1.111c0-0.478-0.243-0.922-0.645-1.18 0.332-0.241 0.528-0.626 0.528-1.036 0-0.805-0.652-1.457-1.457-1.457h-0.159c-0.629 0-1.187 0.403-1.384 1l0.837 0.276c0.077-0.26 0.309-0.444 0.58-0.458h0.067c0.353 0 0.639 0.286 0.639 0.639s-0.286 0.639-0.639 0.639h-0.234v0.818h0.234c0.27 0 0.519 0.144 0.654 0.378s0.135 0.522 0 0.756-0.384 0.378-0.654 0.378c-0.344 0.019-0.657-0.197-0.761-0.525l-0.839 0.297c0.222 0.627 0.815 1.046 1.48 1.046h0.18z"></path>
<path fill="#fff" d="M10.78 14.341c0 0.097 0.057 0.185 0.145 0.226s0.192 0.026 0.266-0.037c0.047 0.079 0.046 0.178-0.001 0.257s-0.134 0.126-0.226 0.122v0.227c0.25 0 0.481-0.135 0.603-0.353s0.117-0.486-0.013-0.699c-0.111-0.149-0.304-0.21-0.48-0.151s-0.294 0.223-0.294 0.408z"></path>
</svg>
