<?xml version="1.0" encoding="utf-8"?>
<!-- Generated by IcoMoon.io -->
<!DOCTYPE svg PUBLIC "-//W3C//DTD SVG 1.1//EN" "http://www.w3.org/Graphics/SVG/1.1/DTD/svg11.dtd">
<svg version="1.1" xmlns="http://www.w3.org/2000/svg" xmlns:xlink="http://www.w3.org/1999/xlink" width="24" height="24" viewBox="0 0 24 24">
<path fill="#e22526" d="M11.992 0.008c-6.623 0-11.992 5.369-11.992 11.992s5.369 11.992 11.992 11.992c6.623 0 11.992-5.369 11.992-11.992s-5.369-11.992-11.992-11.992z"></path>
<path fill="#fff" d="M20.613 12c0-4.761-3.86-8.621-8.621-8.621s-8.621 3.86-8.621 8.621c0 4.761 3.86 8.621 8.621 8.621s8.621-3.86 8.621-8.621z"></path>
<path fill="#231f20" d="M9.386 14.499v1.54h1.587v-1.54h0.936v-1.587h-0.948v-4.762h-1.824l-4.608 4.785v1.564h4.856z"></path>
<path fill="#fff" d="M9.386 12.912v-2.712l-2.653 2.712h2.653z"></path>
<path fill="#231f20" d="M12.618 12.036c0 2.487 1.303 4.087 3.328 4.087 0.58 0 1.196-0.178 1.753-0.533 1.019-0.663 1.54-1.848 1.54-3.542 0-0.9-0.154-1.718-0.474-2.393-0.474-1.031-1.623-1.741-2.819-1.741-0.569 0-1.113 0.154-1.599 0.426-1.173 0.687-1.729 1.883-1.729 3.696z"></path>
<path fill="#fff" d="M17.664 12.012c0-1.587-0.64-2.523-1.741-2.523-1.066 0-1.729 0.936-1.729 2.476 0 0.486 0.095 1.078 0.225 1.481 0.213 0.64 0.841 1.102 1.504 1.102 1.090 0 1.741-0.948 1.741-2.535z"></path>
</svg>
