<?xml version="1.0" encoding="utf-8"?>
<!-- Generated by IcoMoon.io -->
<!DOCTYPE svg PUBLIC "-//W3C//DTD SVG 1.1//EN" "http://www.w3.org/Graphics/SVG/1.1/DTD/svg11.dtd">
<svg version="1.1" xmlns="http://www.w3.org/2000/svg" xmlns:xlink="http://www.w3.org/1999/xlink" width="24" height="24" viewBox="0 0 24 24">
<path fill="#e22526" d="M11.965 0.045c-6.602 0-11.955 5.353-11.955 11.955s5.352 11.955 11.955 11.955c6.602 0 11.955-5.352 11.955-11.955s-5.353-11.955-11.955-11.955z"></path>
<path fill="#fff" d="M20.559 12c0-4.746-3.848-8.594-8.594-8.594s-8.594 3.848-8.594 8.594c0 4.746 3.848 8.594 8.594 8.594s8.594-3.848 8.594-8.594z"></path>
<path fill="#231f20" d="M7.665 15.858c1.016 0 2.587-0.725 2.587-2.611 0-1.354-0.677-1.717-0.677-1.717s0.435-0.278 0.435-1.281c0-1.233-0.931-2.321-2.345-2.321-1.838 0-2.273 1.572-2.273 1.572l1.161 0.363c0-0.024 0.193-0.725 1.112-0.725 0.665 0 1.136 0.472 1.136 1.112 0 0.653-0.484 0.677-1.088 0.677v1.209c0.447-0.012 1.33 0.121 1.33 1.112 0 1.040-0.798 1.402-1.378 1.402-1.016 0-1.451-1.136-1.451-1.136l-1.161 0.314c0 0 0.508 2.031 2.611 2.031z"></path>
<path fill="#231f20" d="M13.418 11.030v4.801h0.918v-5.886h-0.724c-0.265 0.274-0.3 0.291-0.697 0.344v0.741h0.503z"></path>
<path fill="#231f20" d="M18.824 15.726h0.457v-1.588c0-0.512-0.38-0.888-0.842-0.888-0.406 0-0.624 0.274-0.624 0.274s-0.238-0.274-0.619-0.274c-0.375 0-0.492 0.193-0.492 0.193v-0.152h-0.456v2.435h0.456v-1.613c0-0.264 0.198-0.431 0.416-0.431 0.223 0 0.416 0.167 0.416 0.431v1.613h0.457v-1.664c0-0.198 0.198-0.38 0.416-0.38 0.223 0 0.416 0.167 0.416 0.431v1.613z"></path>
<path fill="#231f20" d="M12.178 15.234c0-0.326-0.264-0.59-0.59-0.59s-0.59 0.264-0.59 0.59c0 0.288 0.206 0.527 0.479 0.579-0.036 0.077-0.124 0.244-0.242 0.336l0.226 0.284c0 0 0.68-0.226 0.714-1.136 0.002-0.021 0.003-0.042 0.003-0.063z"></path>
<path fill="#231f20" d="M13.44 4.063c0.037-0.044 0.020-0.087-0.036-0.096 0 0-0.984-0.151-1.551-0.151-0.445 0-1.203 0.092-1.203 0.092-0.057 0.007-0.073 0.049-0.037 0.093l1.373 1.652c0.037 0.044 0.097 0.044 0.133 0l1.321-1.589z"></path>
<path fill="#231f20" d="M13.384 20.029c0.057-0.009 0.073-0.052 0.036-0.096l-1.301-1.565c-0.037-0.044-0.097-0.044-0.133 0l-1.353 1.627c-0.037 0.044-0.020 0.086 0.037 0.093 0 0 0.745 0.089 1.182 0.089 0.56 0 1.531-0.148 1.531-0.148z"></path>
</svg>
