<?xml version="1.0" encoding="utf-8"?>
<!-- Generated by IcoMoon.io -->
<!DOCTYPE svg PUBLIC "-//W3C//DTD SVG 1.1//EN" "http://www.w3.org/Graphics/SVG/1.1/DTD/svg11.dtd">
<svg version="1.1" xmlns="http://www.w3.org/2000/svg" xmlns:xlink="http://www.w3.org/1999/xlink" width="24" height="24" viewBox="0 0 24 24">
<path fill="#e22526" d="M12.105 0.008c-6.623 0-11.992 5.369-11.992 11.992s5.369 11.992 11.992 11.992c6.623 0 11.992-5.369 11.992-11.992s-5.369-11.992-11.992-11.992z"></path>
<path fill="#fff" d="M20.726 12c0-4.761-3.86-8.621-8.621-8.621s-8.621 3.86-8.621 8.621c0 4.761 3.86 8.621 8.621 8.621s8.621-3.86 8.621-8.621z"></path>
<path fill="#231f20" d="M6.53 12.545c-0.924 0.948-1.35 1.978-1.421 3.494h6.432v-1.587h-4.442c0.213-0.379 0.32-0.521 0.58-0.782 0.533-0.545 0.936-0.758 1.919-1.007 0.284-0.059 0.509-0.142 0.687-0.225 0.723-0.332 1.232-1.161 1.232-2.014 0-1.409-1.374-2.452-3.198-2.452-1.256 0-2.416 0.498-3.198 1.362l1.137 1.102c0.533-0.545 1.267-0.876 2.002-0.876 0.959 0 1.658 0.379 1.658 0.9 0 0.367-0.201 0.569-0.663 0.628-0.9 0.13-1.99 0.711-2.724 1.457z"></path>
<path fill="#231f20" d="M12.738 12.036c0 2.487 1.303 4.087 3.328 4.087 0.581 0 1.196-0.178 1.753-0.533 1.019-0.663 1.54-1.848 1.54-3.542 0-0.9-0.154-1.718-0.474-2.393-0.474-1.031-1.623-1.741-2.819-1.741-0.569 0-1.113 0.154-1.599 0.426-1.173 0.687-1.729 1.883-1.729 3.696z"></path>
<path fill="#fff" d="M17.784 12.012c0-1.587-0.64-2.523-1.741-2.523-1.066 0-1.729 0.936-1.729 2.476 0 0.486 0.095 1.078 0.225 1.481 0.213 0.64 0.841 1.102 1.504 1.102 1.090 0 1.741-0.948 1.741-2.535z"></path>
</svg>
