<?xml version="1.0" encoding="utf-8"?>
<!-- Generated by IcoMoon.io -->
<!DOCTYPE svg PUBLIC "-//W3C//DTD SVG 1.1//EN" "http://www.w3.org/Graphics/SVG/1.1/DTD/svg11.dtd">
<svg version="1.1" xmlns="http://www.w3.org/2000/svg" xmlns:xlink="http://www.w3.org/1999/xlink" width="24" height="24" viewBox="0 0 24 24">
<path fill="#f7fbf5" stroke="#c1121c" stroke-width="3.12" stroke-miterlimit="4" stroke-linecap="butt" stroke-linejoin="miter" d="M22.44 12c0 5.766-4.674 10.44-10.44 10.44s-10.44-4.674-10.44-10.44c0-5.766 4.674-10.44 10.44-10.44s10.44 4.674 10.44 10.44z"></path>
<path fill="#2a2d2f" d="M9.608 10.588c0.508 0 0.921-0.414 0.921-0.924s-0.414-0.921-0.921-0.921c-0.511 0-0.924 0.41-0.924 0.921s0.414 0.924 0.924 0.924z"></path>
<path fill="#f7fbf5" d="M9.606 10.057c0.217 0 0.393-0.176 0.393-0.393s-0.176-0.393-0.393-0.393c-0.217 0-0.393 0.176-0.393 0.393s0.176 0.393 0.393 0.393z"></path>
<path fill="#2a2d2f" d="M14.037 10.586c0.939 0 1.7-0.761 1.7-1.7s-0.761-1.7-1.7-1.7c-0.937 0-1.697 0.761-1.697 1.7s0.761 1.7 1.697 1.7z"></path>
<path fill="#f7fbf5" d="M14.032 9.863c0.541 0 0.98-0.438 0.98-0.98 0-0.538-0.439-0.978-0.98-0.978-0.539 0-0.978 0.439-0.978 0.978 0 0.542 0.439 0.98 0.978 0.98z"></path>
<path fill="#2a2d2f" d="M14.032 9.621c0.408 0 0.74-0.329 0.74-0.738s-0.332-0.737-0.74-0.737c-0.406 0-0.738 0.329-0.738 0.737s0.332 0.738 0.738 0.738z"></path>
<path fill="#2a2d2f" d="M15.364 7.558c-0.34-0.339-0.809-0.549-1.327-0.549-1.036 0-1.879 0.84-1.879 1.876 0 0.131 0.015 0.258 0.041 0.378l-1.598-0.002c-0.161-0.391-0.544-0.669-0.993-0.669-0.288 0-0.549 0.115-0.743 0.299h-0.393v-1.702c0-0.214 0.217-0.21 0.217-0.21h2.874l0.447-1.942-0.051-0.437h2.966v2.006l0.669 0.73-0.23 0.222z"></path>
<path fill="#f7fbf5" d="M11.88 6.979l0.444-1.942c0.005 0 2.165 0 2.165 0v1.57h-1.782l-0.304 0.372h-0.523z"></path>
<path fill="#2a2d2f" d="M14.328 15.096c0.712 0 1.292-0.579 1.292-1.294 0-0.712-0.579-1.295-1.292-1.295-0.715 0-1.294 0.582-1.294 1.295 0 0.715 0.579 1.294 1.294 1.294z"></path>
<path fill="#f7fbf5" d="M14.328 14.662c0.475 0 0.86-0.386 0.86-0.86s-0.385-0.861-0.86-0.861c-0.477 0-0.863 0.386-0.863 0.861s0.385 0.86 0.863 0.86z"></path>
<path fill="#2a2d2f" d="M9.823 15.096c0.715 0 1.294-0.579 1.294-1.294 0-0.712-0.579-1.295-1.294-1.295s-1.294 0.582-1.294 1.295c0 0.715 0.58 1.294 1.294 1.294z"></path>
<path fill="#f7fbf5" d="M9.823 14.662c0.475 0 0.86-0.386 0.86-0.86s-0.385-0.861-0.86-0.861-0.86 0.386-0.86 0.861c0 0.474 0.385 0.86 0.86 0.86z"></path>
<path fill="#2a2d2f" d="M11.737 10.775h-0.577c0 0-0.296-0.028-0.454 0.372l-1.087 2.609c0 0-0.084 0.197 0.092 0.261 0.176 0.066 0.306-0.169 0.306-0.169l1.126-2.626h0.595v-0.447z"></path>
<path fill="#2a2d2f" d="M10.742 11.732l0.975 0.018 0.391 0.623-0.299 0.855 0.253 0.363 2.313 0.007c0 0 0.204-0.007 0.204 0.186s-0.186 0.233-0.186 0.233l-2.295 0.010c0 0-0.288 0.056-0.49-0.317 0 0-0.95-1.552-0.957-1.552-0.010 0 0.092-0.426 0.092-0.426z"></path>
<path fill="#2a2d2f" d="M15.237 11.742l0.018 0.511-1.225 0.063c0 0-0.306 0.039-0.444 0.214-0.14 0.176-0.337 0.103-0.391-0.028-0.056-0.13-0.288-0.538-0.288-0.538s-0.084-0.222 0.204-0.222h2.126z"></path>
<path fill="#2a2d2f" d="M9.869 12.549l0.018-0.268c0 0-0.426-0.049-0.602 0.063l0.084 0.261 0.5-0.056z"></path>
<path fill="#2a2d2f" d="M9.945 19.888c0.776 0 1.404-0.628 1.404-1.404s-0.628-1.404-1.404-1.404c-0.773 0-1.401 0.628-1.401 1.404s0.628 1.404 1.401 1.404z"></path>
<path fill="#f7fbf5" d="M9.945 19.541c0.585 0 1.059-0.475 1.059-1.059s-0.475-1.059-1.059-1.059c-0.587 0-1.059 0.474-1.059 1.059s0.472 1.059 1.059 1.059z"></path>
<path fill="#2a2d2f" d="M11.773 15.727v-0.344h-0.608c-0.276 0-0.352 0.344-0.352 0.344-0.191 0.544-0.973 2.749-0.973 2.749-0.079 0.199 0.237 0.312 0.311 0.12 0.074-0.189 0.967-2.701 0.967-2.701 0.059-0.191 0.235-0.169 0.235-0.169h0.419z"></path>
<path fill="#2a2d2f" d="M14.466 18.31c-0.138-0.296-0.648-1.389-0.973-2.085h-2.657l-0.214 0.567 1.649 1.861h2.001c0.391 0 0.194-0.342 0.194-0.342z"></path>
<path fill="#f7fbf5" d="M14.093 18.31c-0.227-0.482-0.569-1.215-0.809-1.733l-2.407-0.005 1.542 1.736 1.675 0.003z"></path>
<path fill="#2a2d2f" d="M14.073 15.727v0.273l-1.184-0.005c-0.204 0-0.209-0.268 0-0.268 0.105 0 1.184 0 1.184 0z"></path>
<path fill="#2a2d2f" d="M12.927 18.484c0-0.776 0.628-1.404 1.404-1.404 0.773 0 1.404 0.628 1.404 1.404s-0.631 1.404-1.404 1.404c-0.776 0-1.404-0.628-1.404-1.404zM14.328 19.541c0.585 0 1.059-0.475 1.059-1.059s-0.475-1.059-1.059-1.059c-0.585 0-1.059 0.474-1.059 1.059s0.475 1.059 1.059 1.059z"></path>
<path fill="#2a2d2f" d="M12.511 18.578l1.235-2.626-0.311-0.146-1.238 2.642 0.314 0.13z"></path>
</svg>
