<?xml version="1.0" encoding="utf-8"?>
<!-- Generated by IcoMoon.io -->
<!DOCTYPE svg PUBLIC "-//W3C//DTD SVG 1.1//EN" "http://www.w3.org/Graphics/SVG/1.1/DTD/svg11.dtd">
<svg version="1.1" xmlns="http://www.w3.org/2000/svg" xmlns:xlink="http://www.w3.org/1999/xlink" width="24" height="24" viewBox="0 0 24 24">
<path fill="#fff" d="M22.626 12c0 5.869-4.757 10.626-10.626 10.626s-10.626-4.757-10.626-10.626c0-5.869 4.757-10.626 10.626-10.626s10.626 4.757 10.626 10.626z"></path>
<path fill="#000" d="M5.407 7.831h1.202v8.201h-1.417v-5.797h-1.374v-1.116h0.15l0.086-0.021h0.236l0.107-0.021h0.193c0.143-0.029 0.25-0.043 0.322-0.043 0.068-0.057 0.132-0.093 0.193-0.107 0.208-0.304 0.311-0.617 0.311-0.939 0-0.029-0.001-0.055-0.003-0.078s-0.004-0.049-0.008-0.078z"></path>
<path fill="#000" d="M13.219 9.978c0.014 0.093 0.025 0.186 0.032 0.279s0.011 0.184 0.011 0.274c0 0.383-0.064 0.75-0.193 1.1l-0.043 0.064-0.021 0.064-0.064 0.172-0.043 0.043-0.193 0.365-0.064 0.043-0.021 0.064-0.043 0.064-0.043 0.043-0.043 0.064-0.193 0.172c-0.014 0.025-0.029 0.039-0.043 0.043l-0.021 0.043c-0.15 0.182-0.286 0.318-0.408 0.408l-0.043 0.064-0.064 0.043c-0.014 0.025-0.029 0.039-0.043 0.043l-0.236 0.258-0.064 0.021c-0.072 0.089-0.143 0.154-0.215 0.193-0.050 0.061-0.1 0.104-0.15 0.129-0.064 0.075-0.129 0.125-0.193 0.15l-0.043 0.064-0.064 0.021c-0.018 0.025-0.039 0.039-0.064 0.043l-0.043 0.064-0.193 0.107c-0.072 0.061-0.138 0.115-0.199 0.164s-0.116 0.087-0.166 0.115h3.22v1.267h-5.453v-1.267l0.086-0.064 0.451-0.236 0.064-0.064 0.086-0.043c0.068-0.057 0.14-0.1 0.215-0.129l0.064-0.064 0.129-0.086 0.043-0.043 0.043-0.021c0.036-0.025 0.068-0.048 0.097-0.070s0.054-0.041 0.075-0.059l0.064-0.021c0.018-0.025 0.039-0.039 0.064-0.043l0.043-0.064 0.15-0.086 0.021-0.043 0.043-0.021 0.279-0.215 0.064-0.064 0.129-0.086c0.014-0.025 0.029-0.039 0.043-0.043 0.014-0.014 0.027-0.021 0.038-0.021h0.005l0.043-0.064c0.107-0.082 0.193-0.161 0.258-0.236 0.934-0.683 1.401-1.499 1.401-2.448 0-0.268-0.038-0.547-0.113-0.837l-0.15-0.215c-0.329-0.265-0.664-0.397-1.004-0.397-0.211 0-0.428 0.054-0.649 0.161-0.494 0.236-0.741 0.649-0.741 1.24 0 0.122 0.011 0.252 0.032 0.392h-1.374c-0.004-0.043-0.005-0.084-0.005-0.123v-0.129c0-1.667 0.832-2.6 2.496-2.796h0.14c1.635 0 2.562 0.751 2.78 2.254z"></path>
<path fill="#000" d="M20.103 9.785c0.265 0.787 0.397 1.548 0.397 2.281 0 0.927-0.211 1.812-0.633 2.657-0.633 1.020-1.462 1.53-2.485 1.53-0.243 0-0.503-0.030-0.778-0.091-1.227-0.351-1.972-1.159-2.233-2.426l-0.043-0.064v-0.086l-0.021-0.086c-0.036-0.086-0.057-0.165-0.064-0.236l-0.021-0.107c-0.029-0.114-0.043-0.208-0.043-0.279-0.029-0.093-0.043-0.172-0.043-0.236l-0.043-0.365v-0.601l0.021-0.064v-0.172c0.011-0.157 0.032-0.293 0.064-0.408v-0.129l0.021-0.086 0.021-0.064 0.021-0.15 0.043-0.172 0.043-0.15c0.014-0.068 0.030-0.129 0.046-0.182s0.037-0.1 0.062-0.14c0.415-1.328 1.252-2.093 2.512-2.297h0.14c1.578 0 2.583 0.708 3.016 2.125zM16.11 9.484l-0.021 0.043c-0.039 0.064-0.077 0.122-0.113 0.172s-0.070 0.093-0.102 0.129l-0.021 0.064c-0.025 0.072-0.049 0.138-0.072 0.199s-0.049 0.116-0.078 0.166c-0.007 0.068-0.019 0.131-0.035 0.188s-0.033 0.109-0.051 0.156c-0.004 0.097-0.018 0.183-0.043 0.258v0.086l-0.021 0.043c-0.004 0.075-0.008 0.143-0.013 0.204s-0.015 0.115-0.030 0.161v1.202c0.043 1.109 0.465 1.882 1.267 2.319h0.064l0.064 0.021 0.043 0.021 0.258 0.064c1.245-0.157 1.868-1.032 1.868-2.625v-0.059c0.007-0.1 0.013-0.197 0.016-0.29s0.005-0.186 0.005-0.279c0-1.8-0.658-2.734-1.975-2.802-0.404 0.111-0.741 0.297-1.009 0.558z"></path>
</svg>
