<?xml version="1.0" encoding="utf-8"?>
<!-- Generated by IcoMoon.io -->
<!DOCTYPE svg PUBLIC "-//W3C//DTD SVG 1.1//EN" "http://www.w3.org/Graphics/SVG/1.1/DTD/svg11.dtd">
<svg version="1.1" xmlns="http://www.w3.org/2000/svg" xmlns:xlink="http://www.w3.org/1999/xlink" width="27" height="24" viewBox="0 0 27 24">
<path fill="#fff" d="M1.287 23.819c-0.457 0-0.879-0.244-1.107-0.639s-0.228-0.883 0-1.279l12.171-21.081c0.228-0.396 0.651-0.639 1.107-0.639s0.879 0.244 1.107 0.639l12.171 21.081c0.228 0.396 0.228 0.883 0 1.279s-0.651 0.639-1.107 0.639h-24.343z"></path>
<path fill="#c1121c" d="M1.287 23.34h24.343c0.286 0 0.549-0.152 0.692-0.4s0.143-0.552 0-0.799l-12.171-21.081c-0.143-0.247-0.407-0.4-0.692-0.4s-0.549 0.152-0.692 0.4l-12.171 21.081c-0.143 0.247-0.143 0.552 0 0.799s0.407 0.4 0.692 0.4zM4.055 20.942l9.403-16.286 9.403 16.286h-18.805z"></path>
<path fill="#000" d="M16.376 12.074l-4.433 1.917c-0.371-0.247-1.222-0.76-1.39-0.838-1.41-0.651-1.32 0.526-0.727 0.879 0.162 0.097 0.991 0.614 1.554 0.943l0.64 4.787 0.794 0.47 0.412-4.322 2.557 1.311 0.137 1.402 0.519 0.308 0.396-1.516 0.004 0.002 1.101-1.127-0.532-0.286-1.273 0.604-2.44-1.517 3.491-2.58-0.811-0.438z"></path>
</svg>
