<?xml version="1.0" encoding="utf-8"?>
<!-- Generated by IcoMoon.io -->
<!DOCTYPE svg PUBLIC "-//W3C//DTD SVG 1.1//EN" "http://www.w3.org/Graphics/SVG/1.1/DTD/svg11.dtd">
<svg version="1.1" xmlns="http://www.w3.org/2000/svg" xmlns:xlink="http://www.w3.org/1999/xlink" width="27" height="24" viewBox="0 0 27 24">
<path fill="#e22526" d="M26.19 23.967c1.027 0 1.447-0.728 0.933-1.617l-12.46-21.581c-0.513-0.889-1.354-0.889-1.867 0l-12.46 21.581c-0.513 0.889-0.093 1.617 0.934 1.617h24.919z"></path>
<path fill="#fff" d="M4.77 20.903h17.922l-8.961-15.521-8.961 15.521z"></path>
<path fill="#231f20" d="M11.913 11.498v6.413c0 1.036 0.839 1.875 1.875 1.875s1.875-0.839 1.875-1.875v-6.413c0-1.036-0.839-1.875-1.875-1.875s-1.875 0.839-1.875 1.875z"></path>
<path fill="#edae15" d="M13.788 13.344c-0.762 0-1.379 0.617-1.379 1.379s0.617 1.379 1.379 1.379c0.762 0 1.379-0.617 1.379-1.379s-0.617-1.379-1.379-1.379z"></path>
<path fill="#388c53" d="M13.788 16.548c-0.762 0-1.379 0.617-1.379 1.379s0.617 1.379 1.379 1.379c0.762 0 1.379-0.617 1.379-1.379s-0.617-1.379-1.379-1.379z"></path>
<path fill="#e22526" d="M13.788 10.11c-0.762 0-1.379 0.617-1.379 1.379s0.617 1.379 1.379 1.379c0.762 0 1.379-0.617 1.379-1.379s-0.617-1.379-1.379-1.379z"></path>
</svg>
