<!-- Generated by IcoMoon.io -->
<svg version="1.1" xmlns="http://www.w3.org/2000/svg" width="18" height="24" viewBox="0 0 18 24">
<title>pepsi</title>
<path fill="#fff" d="M15.1 15.1c-3.457 3.457-9.060 3.457-12.509 0-3.457-3.457-3.457-9.060 0-12.509 3.457-3.457 9.060-3.457 12.509 0 3.457 3.457 3.457 9.060 0 12.509z"></path>
<path fill="#eb1d39" d="M13.768 2.278c-1.375-1.033-3.078-1.645-4.919-1.645-4.534 0.007-8.209 3.682-8.209 8.209 0 1.827 0.597 3.508 1.601 4.868 5.516-1.601 9.875-5.931 11.527-11.432z"></path>
<path fill="#005891" d="M15.733 4.381c0.167 0.538 0.255 1.106 0.255 1.696 0 1.907-0.939 3.58-2.358 4.628-2.482 1.827-6.091 1.827-11.076 3.398 1.506 1.797 3.77 2.947 6.295 2.947 4.534 0 8.209-3.675 8.209-8.209-0.007-1.645-0.488-3.173-1.324-4.461z"></path>
<path fill="#005891" d="M3.58 23.025c0.022 0 0.051 0 0.073 0 0.386 0 0.742-0.146 1.012-0.415 0.269-0.277 0.422-0.648 0.422-1.055 0-0.844-0.648-1.506-1.477-1.506-0.677 0-1.244 0.444-1.419 1.106-0.029 0.109-0.058 0.4-0.058 0.684v2.096c0 0.036 0.029 0.065 0.065 0.065h0.371c0.036 0 0.073-0.029 0.073-0.065v-1.317l0.022 0.022c0.175 0.167 0.517 0.364 0.917 0.386zM3.602 20.551c0.531 0 0.946 0.437 0.946 0.997s-0.393 0.99-0.917 0.99c-0.269 0-0.509-0.095-0.691-0.269-0.189-0.175-0.291-0.429-0.291-0.706 0-0.553 0.429-1.012 0.953-1.012z"></path>
<path fill="#005891" d="M8.412 21.482v0c0-0.036-0.007-0.080-0.015-0.131-0.015-0.087-0.029-0.175-0.058-0.262-0.204-0.64-0.742-1.048-1.383-1.048-0.065 0-0.131 0.007-0.196 0.015-0.815 0.102-1.368 0.844-1.259 1.681 0.095 0.757 0.713 1.281 1.455 1.281 0.058 0 0.124-0.007 0.196-0.015 0.4-0.051 0.742-0.218 1.004-0.538 0.015-0.022 0.022-0.044 0.022-0.065 0-0.015-0.015-0.036-0.036-0.051-0.044-0.029-0.196-0.109-0.284-0.146-0.029-0.015-0.044-0.022-0.058-0.029-0.029-0.015-0.044-0.022-0.058-0.022-0.022 0-0.044 0.007-0.058 0.036-0.167 0.196-0.378 0.298-0.597 0.327-0.044 0.007-0.087 0.007-0.124 0.007-0.4 0-0.8-0.262-0.91-0.626v-0.007l0.007-0.007c0.022-0.007 0.204-0.095 0.48-0.095 0.036 0 0.065 0 0.102 0.007 0.080 0.007 0.16 0.015 0.24 0.029 0.153 0.022 0.313 0.044 0.502 0.044 0.116 0 0.226-0.007 0.342-0.022 0.451-0.087 0.633-0.218 0.633-0.218 0.058-0.044 0.051-0.080 0.051-0.146zM7.896 21.3c-0.073 0.022-0.175 0.044-0.306 0.058-0.058 0.007-0.124 0.015-0.204 0.015-0.131 0-0.277-0.007-0.415-0.022h-0.007c-0.131-0.007-0.247-0.022-0.364-0.022-0.087 0-0.16 0.007-0.233 0.015-0.218 0.029-0.393 0.095-0.393 0.095v-0.015c0.044-0.437 0.408-0.808 0.859-0.873 0.044-0.007 0.080-0.007 0.124-0.007 0.415 0 0.822 0.32 0.946 0.742l0.007 0.015h-0.015z"></path>
<path fill="#005891" d="M10.275 23.025c0.022 0 0.051 0 0.073 0 0.386 0 0.742-0.146 1.012-0.415 0.269-0.277 0.415-0.648 0.415-1.055 0-0.844-0.648-1.506-1.477-1.506-0.677 0-1.244 0.444-1.419 1.106-0.029 0.109-0.058 0.4-0.058 0.684v2.096c0 0.036 0.029 0.065 0.065 0.065h0.371c0.036 0 0.073-0.029 0.073-0.065v-1.317l0.022 0.022c0.182 0.167 0.517 0.364 0.924 0.386zM10.29 20.551c0.531 0 0.953 0.437 0.953 0.997s-0.4 0.99-0.924 0.99c-0.262 0-0.509-0.095-0.691-0.269-0.189-0.175-0.291-0.429-0.291-0.706 0.007-0.553 0.429-1.012 0.953-1.012z"></path>
<path fill="#005891" d="M12.131 22.552c0.327 0.298 0.677 0.466 1.143 0.466h0.015c0.793-0.007 1.15-0.437 1.15-0.866 0-0.589-0.56-0.75-0.728-0.786-0.058-0.015-0.109-0.022-0.175-0.036-0.138-0.029-0.284-0.051-0.415-0.095-0.087-0.022-0.386-0.124-0.386-0.349 0-0.247 0.269-0.378 0.524-0.378 0.218 0 0.393 0.036 0.626 0.211 0.015 0.015 0.044 0.029 0.073 0.029 0.022 0 0.044-0.007 0.065-0.029 0.065-0.044 0.182-0.146 0.255-0.218 0.022-0.022 0.029-0.036 0.029-0.058 0-0.029-0.029-0.058-0.036-0.065-0.306-0.24-0.604-0.342-1.019-0.342v0c-0.597 0-1.048 0.386-1.048 0.888 0 0.4 0.335 0.684 0.931 0.808l0.371 0.073c0.247 0.044 0.386 0.175 0.378 0.357s-0.226 0.364-0.582 0.364c-0.291 0-0.553-0.116-0.771-0.313v0c-0.015-0.015-0.036-0.029-0.058-0.029-0.015 0-0.036 0.007-0.051 0.022-0.022 0.022-0.277 0.218-0.298 0.247-0.015 0.015-0.022 0.029-0.015 0.044-0.007 0.029 0.015 0.051 0.022 0.058z"></path>
<path fill="#005891" d="M15.515 20.216c0-0.036-0.029-0.065-0.065-0.065h-0.378c-0.036 0-0.065 0.029-0.065 0.065v2.671c0 0.036 0.029 0.065 0.065 0.065h0.378c0.036 0 0.065-0.029 0.065-0.065v-2.671z"></path>
<path fill="#005891" d="M15.26 19.19c-0.182 0-0.335 0.153-0.335 0.342s0.153 0.342 0.335 0.342c0.189 0 0.342-0.153 0.342-0.342s-0.153-0.342-0.342-0.342z"></path>
</svg>
