<!-- Generated by IcoMoon.io -->
<svg version="1.1" xmlns="http://www.w3.org/2000/svg" width="24" height="24" viewBox="0 0 24 24">
<title>claro</title>
<path fill="#890000" d="M11.365 0h1.269c2.095 0.147 4.163 0.785 5.92 1.947 2.502 1.628 4.362 4.217 5.079 7.117 0.198 0.753 0.287 1.528 0.367 2.301v1.268c-0.154 2.092-0.788 4.158-1.949 5.913-1.582 2.431-4.067 4.265-6.872 5.018-0.828 0.245-1.688 0.346-2.543 0.436h-1.27c-1.971-0.149-3.921-0.713-5.608-1.756-2.587-1.572-4.542-4.152-5.33-7.077-0.234-0.826-0.342-1.679-0.428-2.531v-1.27c0.078-0.775 0.169-1.551 0.366-2.305 0.718-2.899 2.578-5.487 5.079-7.114 1.756-1.163 3.826-1.799 5.92-1.947M10.54 0.451c-1.298 0.176-2.58 0.531-3.741 1.147-3.575 1.73-6.094 5.439-6.386 9.398-0.020 0.669-0.020 1.339 0 2.008 0.148 2.096 0.944 4.119 2.159 5.824 2.14 2.963 5.75 4.882 9.428 4.773 3.702 0.11 7.334-1.834 9.471-4.83 1.357-1.939 2.198-4.288 2.129-6.671 0.127-3.302-1.386-6.576-3.832-8.767-1.837-1.643-4.206-2.703-6.666-2.915-0.853-0.024-1.711-0.049-2.562 0.033z"></path>
<path fill="#a30000" d="M10.54 0.451c0.851-0.082 1.709-0.057 2.562-0.033 2.46 0.212 4.829 1.272 6.666 2.915 2.446 2.191 3.959 5.465 3.832 8.767 0.069 2.383-0.772 4.732-2.129 6.671-2.137 2.996-5.769 4.94-9.471 4.83-3.678 0.109-7.288-1.81-9.428-4.773-1.215-1.705-2.011-3.728-2.159-5.824-0.020-0.669-0.020-1.339 0-2.008 0.292-3.959 2.811-7.668 6.386-9.398 1.161-0.616 2.443-0.971 3.741-1.147M11.141 1.142c-1.052 0.109-2.105 0.299-3.085 0.711-1.207 0.512-2.386 1.149-3.333 2.070-0.516 0.519-1.060 1.016-1.486 1.615-0.703 0.963-1.235 2.049-1.623 3.174-0.34 1.094-0.503 2.244-0.52 3.389 0.062 1.384 0.283 2.783 0.85 4.057 0.371 0.825 0.782 1.64 1.336 2.361 0.388 0.538 0.877 0.989 1.342 1.458 1.020 1.024 2.316 1.721 3.647 2.252 1.106 0.372 2.252 0.708 3.431 0.688 2.32 0.080 4.619-0.696 6.529-1.988 0.713-0.473 1.3-1.099 1.897-1.704 0.912-0.957 1.544-2.14 2.050-3.352 0.426-1.041 0.606-2.161 0.706-3.276 0.080-0.899-0.050-1.799-0.196-2.685-0.177-1.035-0.564-2.020-1.049-2.947-0.488-0.989-1.155-1.888-1.96-2.642-0.754-0.805-1.653-1.471-2.642-1.96-0.901-0.47-1.857-0.852-2.861-1.033-0.999-0.174-2.019-0.313-3.033-0.188z"></path>
<path fill="#b10104" d="M11.141 1.142c1.014-0.125 2.034 0.014 3.033 0.188 1.004 0.181 1.96 0.563 2.861 1.033 0.989 0.489 1.888 1.155 2.642 1.96 0.805 0.754 1.472 1.653 1.96 2.642 0.485 0.927 0.872 1.912 1.049 2.947 0.146 0.886 0.276 1.786 0.196 2.685-0.1 1.115-0.28 2.235-0.706 3.276-0.506 1.212-1.138 2.395-2.050 3.352-0.597 0.605-1.184 1.231-1.897 1.704-1.91 1.292-4.209 2.068-6.529 1.988-1.179 0.020-2.325-0.316-3.431-0.688-1.331-0.531-2.627-1.228-3.647-2.252-0.465-0.469-0.954-0.92-1.342-1.458-0.554-0.721-0.965-1.536-1.336-2.361-0.567-1.274-0.788-2.673-0.85-4.057 0.017-1.145 0.18-2.295 0.52-3.389 0.388-1.125 0.92-2.211 1.623-3.174 0.426-0.599 0.97-1.096 1.486-1.615 0.947-0.921 2.126-1.558 3.333-2.070 0.98-0.412 2.033-0.602 3.085-0.711M9.846 1.757c-0.868 0.28-1.768 0.606-2.448 1.235-0.315 0.173-0.614 0.38-0.857 0.647-0.212 0.117-0.421 0.239-0.613 0.387-1.163 0.912-2.152 2.056-2.832 3.372-0.372 0.745-0.655 1.534-0.861 2.341-0.088 0.325-0.106 0.663-0.098 0.997-0.49 0.865-0.455 2.003 0.086 2.836 0.017 0.619 0.213 1.211 0.414 1.791 0.312 0.888 0.757 1.729 1.308 2.492 0.557 0.785 1.31 1.395 1.928 2.127 0.035-0.051 0.105-0.153 0.14-0.204 0.747 1.215 2.034 2.020 3.372 2.445 2.142 0.687 4.572 0.507 6.549-0.587 0.824-0.425 1.509-1.092 2.020-1.859 0.034 0.112 0.070 0.224 0.109 0.336 0.339-0.345 0.714-0.653 1.065-0.986 1.143-1.179 2.030-2.613 2.506-4.19 0.223-0.771 0.4-1.568 0.368-2.375 0.049 0 0.147 0.001 0.196 0.002 0.008-0.293 0.010-0.586 0.004-0.878-0.211-0.079-0.429-0.198-0.43-0.455-0.123-0.894-0.28-1.787-0.588-2.638 0.121-0.126 0.239-0.254 0.359-0.382-0.196-0.212-0.394-0.422-0.597-0.627l-0.053 0.054c-0.343-0.475-0.611-0.999-0.962-1.468-0.563-0.728-1.153-1.47-1.965-1.935-0.486-0.546-0.99-1.12-1.659-1.444-0.368-0.327-0.818-0.54-1.271-0.72-1.629-0.691-3.487-0.757-5.19-0.314z"></path>
<path fill="#ce6566" d="M9.846 1.757c1.703-0.443 3.561-0.377 5.19 0.314 0.453 0.18 0.903 0.393 1.271 0.72 0.502 0.476 1.076 0.903 1.414 1.523-0.036-0.032-0.108-0.096-0.144-0.128-0.178-0.154-0.352-0.313-0.519-0.477-0.268-0.273-0.567-0.515-0.89-0.718-2.431-1.706-5.905-1.707-8.335-0.001-0.323 0.207-0.625 0.446-0.901 0.711-0.17 0.162-0.33 0.335-0.481 0.516-0.175 0.213-0.327 0.444-0.493 0.663l-0.087 0.008c0.322-0.768 0.998-1.281 1.527-1.896 0.68-0.629 1.58-0.955 2.448-1.235z"></path>
<path fill="#e7bcbd" d="M7.833 2.99c2.43-1.706 5.904-1.705 8.335 0.001-0.386 0.068-0.776 0.113-1.168 0.111-1.533-0.021-3.067-0.001-4.6-0.011-0.856-0.012-1.721 0.074-2.567-0.101z"></path>
<path fill="#e4444b" d="M16.307 2.791c0.669 0.324 1.173 0.898 1.659 1.444 0.3 0.422 0.565 0.873 0.749 1.358 0.175 0.891 0.252 1.897-0.21 2.716-0.254 0.177-0.626 0.081-0.927 0.112 0-0.302 0.002-0.604-0.001-0.907 0.364-0.015 0.727-0.033 1.091-0.053 0.032-0.394 0.046-0.793-0.021-1.185-0.016-0.123-0.041-0.245-0.071-0.365-0.063-0.163-0.131-0.324-0.207-0.48-0.119-0.24-0.246-0.477-0.385-0.706-0.085-0.139-0.172-0.276-0.263-0.411-0.338-0.62-0.912-1.047-1.414-1.523z"></path>
<path fill="#d14246" d="M6.541 3.639c0.243-0.267 0.542-0.474 0.857-0.647-0.529 0.615-1.205 1.128-1.527 1.896-0.085 0.178-0.165 0.359-0.246 0.54-0.071 0.16-0.142 0.32-0.205 0.484-0.021 0.092-0.037 0.185-0.050 0.279-0.050 0.336-0.075 0.675-0.090 1.015-0.009 0.179-0.015 0.359-0.016 0.539-0.189-0.629-0.199-1.299-0.065-1.941 0.262-0.82 0.763-1.537 1.342-2.165z"></path>
<path fill="#e7aeb0" d="M6.932 3.701c0.276-0.265 0.578-0.504 0.901-0.711 0.846 0.175 1.711 0.089 2.567 0.101 1.533 0.010 3.067-0.010 4.6 0.011 0.392 0.002 0.782-0.043 1.168-0.111 0.323 0.203 0.622 0.445 0.89 0.718-0.384 0.056-0.77 0.098-1.158 0.097-2.133-0.020-4.266-0.002-6.4-0.010-0.856-0.012-1.721 0.071-2.568-0.095z"></path>
<path fill="#c00308" d="M5.928 4.026c0.192-0.148 0.401-0.27 0.613-0.387-0.579 0.628-1.080 1.345-1.342 2.165-0.069 0.191-0.144 0.38-0.219 0.568-0.789 0.946-1.385 2.062-1.666 3.265-0.484 0.25-0.893 0.635-1.177 1.099-0.008-0.334 0.010-0.672 0.098-0.997 0.206-0.807 0.489-1.596 0.861-2.341 0.68-1.316 1.669-2.46 2.832-3.372z"></path>
<path fill="#e9a4a6" d="M6.451 4.217c0.151-0.181 0.311-0.354 0.481-0.516 0.847 0.166 1.712 0.083 2.568 0.095 2.134 0.008 4.267-0.010 6.4 0.010 0.388 0.001 0.774-0.041 1.158-0.097 0.167 0.164 0.341 0.323 0.519 0.477-0.452 0.104-0.915 0.136-1.377 0.119-0.969-0.037-1.931 0.13-2.9 0.098-1.439-0.035-2.881 0.062-4.316-0.070-0.844-0.073-1.696 0.035-2.533-0.116z"></path>
<path fill="#e8989b" d="M5.958 4.88c0.166-0.219 0.318-0.45 0.493-0.663 0.837 0.151 1.689 0.043 2.533 0.116 1.435 0.132 2.877 0.035 4.316 0.070 0.969 0.032 1.931-0.135 2.9-0.098 0.462 0.017 0.925-0.015 1.377-0.119 0.036 0.032 0.108 0.096 0.144 0.128 0.091 0.135 0.178 0.272 0.263 0.411-0.495 0.238-1.051 0.193-1.584 0.179-3.48-0.015-6.962 0.025-10.442-0.024z"></path>
<path fill="#c50309" d="M17.966 4.235c0.812 0.465 1.402 1.207 1.965 1.935 0.351 0.469 0.619 0.993 0.962 1.468-0.361 0.368-0.716 0.741-1.074 1.113-0.361-0.576-0.692-1.189-0.786-1.872-0.057-0.439-0.157-0.873-0.318-1.286-0.184-0.485-0.449-0.936-0.749-1.358z"></path>
<path fill="#ea8f92" d="M17.984 4.725c0.139 0.229 0.266 0.466 0.385 0.706-0.592 0.257-1.245 0.157-1.869 0.163-3 0.004-6 0.004-9-0.001-0.627-0.007-1.283 0.099-1.875-0.165 0.081-0.181 0.161-0.362 0.246-0.54l0.087-0.008c3.48 0.049 6.962 0.009 10.442 0.024 0.533 0.014 1.089 0.059 1.584-0.179z"></path>
<path fill="#eb7f84" d="M5.42 5.912c0.063-0.164 0.134-0.324 0.205-0.484 0.592 0.264 1.248 0.158 1.875 0.165 3 0.005 6 0.005 9 0.001 0.624-0.006 1.277 0.094 1.869-0.163 0.076 0.156 0.144 0.317 0.207 0.48-0.219 0.177-0.478 0.312-0.768 0.293-3.536-0.013-7.072-0.003-10.608-0.006-0.596-0.026-1.292 0.16-1.78-0.286z"></path>
<path fill="#e72932" d="M18.715 5.593c0.161 0.413 0.261 0.847 0.318 1.286-0.057 0.721-0.146 1.485-0.556 2.101-0.191 0.306-0.585 0.302-0.9 0.361 0-0.307 0-0.613 0.001-0.92 0.301-0.031 0.673 0.065 0.927-0.112 0.462-0.819 0.385-1.825 0.21-2.716z"></path>
<path fill="#e6202b" d="M4.98 6.372c0.075-0.188 0.15-0.377 0.219-0.568-0.134 0.642-0.124 1.312 0.065 1.941l0.022 0.090c0.057 0.203 0.121 0.404 0.192 0.602 0.034 0.096 0.068 0.192 0.103 0.288 0.453 0.082 0.9 0.188 1.343 0.312-0.151 0.103-0.302 0.204-0.452 0.307-0.24-0.019-0.487-0.020-0.717-0.096-0.326-0.263-0.488-0.672-0.652-1.045-0.104-0.604-0.148-1.219-0.123-1.831z"></path>
<path fill="#ed7178" d="M5.37 6.191c0.013-0.094 0.029-0.187 0.050-0.279 0.488 0.446 1.184 0.26 1.78 0.286 3.536 0.003 7.072-0.007 10.608 0.006 0.29 0.019 0.549-0.116 0.768-0.293 0.030 0.12 0.055 0.242 0.071 0.365-0.023 0.132-0.047 0.264-0.072 0.396-1.091 0.052-2.184 0.011-3.275 0.030-3.293-0.004-6.586 0.022-9.878-0.025-0.019-0.162-0.039-0.324-0.052-0.486z"></path>
<path fill="#ec646c" d="M5.28 7.206c0.015-0.34 0.040-0.679 0.090-1.015 0.013 0.162 0.033 0.324 0.052 0.486 3.292 0.047 6.585 0.021 9.878 0.025 1.091-0.019 2.184 0.022 3.275-0.030 0.025-0.132 0.049-0.264 0.072-0.396 0.067 0.392 0.053 0.791 0.021 1.185-0.364 0.020-0.727 0.038-1.091 0.053-0.002-0.152-0.004-0.304-0.007-0.456-0.296 0.015-0.592 0.035-0.885 0.081-0.689 0.118-1.39 0.069-2.085 0.073-3.107 0.004-6.214 0.001-9.32-0.006z"></path>
<path fill="#d3050d" d="M3.314 9.637c0.281-1.203 0.877-2.319 1.666-3.265-0.025 0.612 0.019 1.227 0.123 1.831 0.068 0.454-0.055 0.901-0.224 1.319-0.521-0.101-1.065-0.065-1.565 0.115z"></path>
<path fill="#e00711" d="M19.033 6.879c0.094 0.683 0.425 1.296 0.786 1.872-0.404 0.42-0.804 0.844-1.205 1.267 0.201 0.207 0.401 0.415 0.601 0.623 0.288-0.286 0.572-0.577 0.851-0.871 0.164 0.58 0.273 1.175 0.308 1.777-0.239 0.042-0.478 0.085-0.717 0.126-0.005 0.295-0.008 0.589-0.013 0.884 0.156 0.001 0.313 0.003 0.47 0.003-0.058 1.425-0.564 2.818-1.366 3.991-0.31 0.451-0.446 0.988-0.567 1.514l-0.023 0.079c-0.026-0.818-0.402-1.553-0.85-2.217-0.256-0.419-0.513-0.84-0.822-1.222 0.553 0.062 1.16 0.051 1.628-0.293 0.861-0.558 1.164-1.759 0.748-2.682-0.205-0.516-0.664-0.852-1.114-1.142-0.259-0.39-0.71-0.57-1.024-0.903 0.284-0.010 0.568-0.011 0.852-0.014 0.001-0.11 0.001-0.22 0.001-0.33 0.315-0.059 0.709-0.055 0.9-0.361 0.41-0.616 0.499-1.38 0.556-2.101z"></path>
<path fill="#e5e5e5" d="M16.685 7.139c0.293-0.046 0.589-0.066 0.885-0.081 0.003 0.152 0.005 0.304 0.007 0.456 0.003 0.303 0.001 0.605 0.001 0.907-0.001 0.307-0.001 0.613-0.001 0.92 0 0.11 0 0.22-0.001 0.33-0.284 0.003-0.568 0.004-0.852 0.014-0.004-0.13-0.006-0.259-0.005-0.388 0.002-0.296 0.004-0.592 0.005-0.888 0-0.172 0.002-0.344-0.001-0.516-0.004-0.252-0.020-0.503-0.038-0.754z"></path>
<path fill="#e5e5e5" d="M20.893 7.638l0.053-0.054c0.203 0.205 0.401 0.415 0.597 0.627-0.12 0.128-0.238 0.256-0.359 0.382-0.375 0.39-0.747 0.783-1.118 1.177-0.279 0.294-0.563 0.585-0.851 0.871-0.2-0.208-0.4-0.416-0.601-0.623 0.401-0.423 0.801-0.847 1.205-1.267 0.358-0.372 0.713-0.745 1.074-1.113z"></path>
<path fill="#e5e5e5" d="M3.314 9.637c0.5-0.18 1.044-0.216 1.565-0.115 0.883 0.249 1.551 0.985 1.808 1.854-0.317 0.004-0.636 0.027-0.951-0.009-0.297-0.276-0.516-0.645-0.902-0.814-0.532-0.186-1.165-0.103-1.571 0.308-0.729 0.635-0.693 1.917 0.075 2.506 0.404 0.357 0.983 0.402 1.482 0.252 0.378-0.178 0.648-0.504 0.878-0.842 0.326 0.001 0.653 0.004 0.98 0.010-0.234 0.865-0.902 1.607-1.778 1.843-0.464 0.101-0.948 0.085-1.405-0.041-0.516-0.201-0.956-0.565-1.272-1.017-0.541-0.833-0.576-1.971-0.086-2.836 0.284-0.464 0.693-0.849 1.177-1.099z"></path>
<path fill="#e5e5e5" d="M19.644 12.557c0.005-0.295 0.008-0.589 0.013-0.884 0.848 0.003 1.697-0.011 2.545 0.013 0.006 0.292 0.004 0.585-0.004 0.878-0.049-0.001-0.147-0.002-0.196-0.002-0.267-0.003-0.533-0.002-0.8-0.002-0.363 0-0.725 0.001-1.088 0-0.157 0-0.314-0.002-0.47-0.003z"></path>
<path fill="#f0545c" d="M5.28 7.206c3.106 0.007 6.213 0.010 9.32 0.006 0.695-0.004 1.396 0.045 2.085-0.073 0.018 0.251 0.034 0.502 0.038 0.754-2.808-0.022-5.615 0.006-8.423-0.011-1.005-0.013-2.011 0.029-3.014-0.047l-0.022-0.090c0.001-0.18 0.007-0.36 0.016-0.539z"></path>
<path fill="#f2404a" d="M5.286 7.835c1.003 0.076 2.009 0.034 3.014 0.047 2.808 0.017 5.615-0.011 8.423 0.011 0.003 0.172 0.001 0.344 0.001 0.516-3.748 0.064-7.498-0.006-11.246 0.028-0.071-0.198-0.135-0.399-0.192-0.602z"></path>
<path fill="#e90814" d="M5.103 8.203c0.164 0.373 0.326 0.782 0.652 1.045 0.23 0.076 0.477 0.077 0.717 0.096l0.092 0.005c0.205 0.031 0.409 0.075 0.615 0.103-0.015 1.746 0.002 3.493-0.002 5.24 0.002 0.028 0.006 0.084 0.008 0.111 0.163 0.017 0.326 0.028 0.489 0.040-0.363 0.387-0.71 0.79-1.023 1.219-0.296 0.398-0.587 0.804-0.801 1.254 0.015-0.442 0.062-0.912-0.143-1.321-0.236-0.473-0.526-0.917-0.807-1.365 0.876-0.236 1.544-0.978 1.778-1.843-0.327-0.006-0.654-0.009-0.98-0.010-0.23 0.338-0.5 0.664-0.878 0.842-0.141-1.016-0.207-2.056 0.014-3.066 0.386 0.169 0.605 0.538 0.902 0.814 0.315 0.036 0.634 0.013 0.951 0.009-0.257-0.869-0.925-1.605-1.808-1.854 0.169-0.418 0.292-0.865 0.224-1.319z"></path>
<path fill="#f62a35" d="M5.478 8.437c3.748-0.034 7.498 0.036 11.246-0.028-0.001 0.296-0.003 0.592-0.005 0.888-2.873-0.031-5.746 0.008-8.619-0.017-0.513-0.012-1.025 0.022-1.536 0.069l-0.092-0.005c0.15-0.103 0.301-0.204 0.452-0.307-0.443-0.124-0.89-0.23-1.343-0.312-0.035-0.096-0.069-0.192-0.103-0.288z"></path>
<path fill="#c7040a" d="M20.066 9.77c0.371-0.394 0.743-0.787 1.118-1.177 0.308 0.851 0.465 1.744 0.588 2.638 0.001 0.257 0.219 0.376 0.43 0.455-0.848-0.024-1.697-0.010-2.545-0.013 0.239-0.041 0.478-0.084 0.717-0.126-0.035-0.602-0.144-1.197-0.308-1.777z"></path>
<path fill="#fb0f1d" d="M6.564 9.349c0.511-0.047 1.023-0.081 1.536-0.069 2.873 0.025 5.746-0.014 8.619 0.017-0.001 0.129 0.001 0.258 0.005 0.388 0.314 0.333 0.765 0.513 1.024 0.903-0.701-0.166-1.492-0.094-2.036 0.42-0.26-0.003-0.521-0.006-0.781-0.008-0.003-0.171-0.006-0.343-0.009-0.514-0.488 0.058-0.933 0.278-1.281 0.623-0.017-0.136-0.033-0.271-0.050-0.407-0.301-0.009-0.602-0.015-0.903-0.025-0.025 0.108-0.050 0.215-0.074 0.323-0.238 0-0.476 0.001-0.714 0.002-0.794-0.674-2.11-0.731-2.881 0.009-0.294-0.005-0.589-0.011-0.884-0.017 0.002-0.508-0.005-1.016 0.001-1.525-0.319-0.005-0.638 0-0.957-0.017-0.206-0.028-0.41-0.072-0.615-0.103z"></path>
<path fill="#eee" d="M7.179 9.452c0.319 0.017 0.638 0.012 0.957 0.017-0.006 0.509 0.001 1.017-0.001 1.525-0.002 0.496 0 0.993 0.001 1.489-0.003 0.744-0.008 1.488 0.001 2.232-0.32 0.004-0.641 0-0.96-0.023 0.004-1.747-0.013-3.494 0.002-5.24z"></path>
<path fill="#d8050e" d="M3.263 10.861c0.406-0.411 1.039-0.494 1.571-0.308-0.221 1.010-0.155 2.050-0.014 3.066-0.499 0.15-1.078 0.105-1.482-0.252-0.768-0.589-0.804-1.871-0.075-2.506z"></path>
<path fill="#f4f4f4" d="M9.019 11.011c0.771-0.74 2.087-0.683 2.881-0.009 0.202 0.682 0.133 1.398 0.142 2.098 0 0.534 0.011 1.068-0.009 1.602-0.378 0.028-0.85 0.12-1.078-0.268-0.423 0.2-0.886 0.305-1.354 0.292-0.124-0.041-0.247-0.083-0.368-0.13-0.593-0.353-0.588-1.108-0.437-1.698 0.182-0.184 0.36-0.388 0.603-0.493 0.487-0.219 1.046-0.182 1.537-0.383 0.295-0.31-0.067-0.744-0.44-0.683-0.406-0.093-0.656 0.255-0.83 0.56-0.301 0-0.602-0.003-0.903-0.006 0.069-0.298 0.156-0.592 0.256-0.882M9.929 13.024c-0.386 0.172-0.364 0.905 0.090 0.967 0.312 0.051 0.657-0.068 0.854-0.319 0.187-0.285 0.145-0.645 0.164-0.97-0.366 0.119-0.752 0.175-1.108 0.322z"></path>
<path fill="#f4f4f4" d="M13.641 11.109c0.348-0.345 0.793-0.565 1.281-0.623 0.003 0.171 0.006 0.343 0.009 0.514 0.001 0.153 0.003 0.307 0.006 0.461-0.417 0.053-0.908 0.131-1.126 0.542-0.265 0.526-0.139 1.14-0.164 1.707 0.001 0.162 0.001 0.325 0.001 0.488 0 0.18 0.001 0.36 0.002 0.54-0.317-0.023-0.635-0.015-0.953-0.016-0.012-1.349 0.018-2.697-0.009-4.045 0.301 0.010 0.602 0.016 0.903 0.025 0.017 0.136 0.033 0.271 0.050 0.407z"></path>
<path fill="#ececec" d="M15.712 11.008c0.544-0.514 1.335-0.586 2.036-0.42 0.45 0.29 0.909 0.626 1.114 1.142 0.416 0.923 0.113 2.124-0.748 2.682-0.468 0.344-1.075 0.355-1.628 0.293-0.703-0.29-1.275-0.888-1.438-1.642-0.123-0.745 0.116-1.53 0.664-2.055M16.738 11.545c-0.326 0.1-0.582 0.376-0.701 0.691-0.265 0.653 0.238 1.504 0.963 1.506 0.724 0.051 1.264-0.758 1.062-1.424-0.123-0.576-0.757-0.958-1.324-0.773z"></path>
<path fill="#f63742" d="M12.614 11c0.024-0.108 0.049-0.215 0.074-0.323 0.027 1.348-0.003 2.696 0.009 4.045 0.318 0.001 0.636-0.007 0.953 0.016 0.827 0.217 1.579 0.637 2.263 1.142 0.149 0.471 0.285 0.945 0.433 1.415-0.050-0.033-0.15-0.099-0.2-0.132-0.417-0.415-0.746-0.932-1.27-1.228-1.115-0.66-2.465-0.829-3.736-0.673-1.024 0.142-2.074 0.509-2.793 1.284-0.211 0.229-0.384 0.49-0.56 0.746-0.103-0.006-0.207-0.012-0.31-0.018 0.152-0.445 0.313-0.906 0.641-1.256 0.49-0.529 1.156-0.833 1.77-1.19-0.096-0.035-0.192-0.069-0.287-0.102 0.468 0.013 0.931-0.092 1.354-0.292 0.228 0.388 0.7 0.296 1.078 0.268 0.18-0.043 0.357-0.097 0.536-0.147 0.113-1.182 0.044-2.371 0.045-3.555z"></path>
<path fill="#fa222e" d="M8.135 10.994c0.295 0.006 0.59 0.012 0.884 0.017-0.1 0.29-0.187 0.584-0.256 0.882 0.301 0.003 0.602 0.006 0.903 0.006 0.174-0.305 0.424-0.653 0.83-0.56 0.373-0.061 0.735 0.373 0.44 0.683-0.491 0.201-1.050 0.164-1.537 0.383-0.243 0.105-0.421 0.309-0.603 0.493-0.22-0.139-0.44-0.278-0.66-0.415-0.001-0.496-0.003-0.993-0.001-1.489z"></path>
<path fill="#fd232f" d="M11.9 11.002c0.238-0.001 0.476-0.002 0.714-0.002-0.001 1.184 0.068 2.373-0.045 3.555-0.179 0.050-0.356 0.104-0.536 0.147 0.020-0.534 0.009-1.068 0.009-1.602-0.009-0.7 0.060-1.416-0.142-2.098z"></path>
<path fill="#fb232f" d="M14.931 11c0.26 0.002 0.521 0.005 0.781 0.008-0.548 0.525-0.787 1.31-0.664 2.055-0.454 0.243-0.921 0.462-1.401 0.647 0.025-0.567-0.101-1.181 0.164-1.707 0.218-0.411 0.709-0.489 1.126-0.542-0.003-0.154-0.005-0.308-0.006-0.461z"></path>
<path fill="#fb232f" d="M9.929 13.024c0.356-0.147 0.742-0.203 1.108-0.322-0.019 0.325 0.023 0.685-0.164 0.97-0.197 0.251-0.542 0.37-0.854 0.319-0.454-0.062-0.476-0.795-0.090-0.967z"></path>
<path fill="#f10916" d="M16.738 11.545c0.567-0.185 1.201 0.197 1.324 0.773 0.202 0.666-0.338 1.475-1.062 1.424-0.725-0.002-1.228-0.853-0.963-1.506 0.119-0.315 0.375-0.591 0.701-0.691z"></path>
<path fill="#f5111e" d="M8.136 12.483c0.22 0.137 0.44 0.276 0.66 0.415-0.151 0.59-0.156 1.345 0.437 1.698-0.717 0.369-1.426 0.762-2.049 1.28-0.175 0.069-0.354 0.127-0.533 0.186 0.313-0.429 0.66-0.832 1.023-1.219-0.163-0.012-0.326-0.023-0.489-0.040-0.002-0.027-0.006-0.083-0.008-0.111 0.319 0.023 0.64 0.027 0.96 0.023-0.009-0.744-0.004-1.488-0.001-2.232z"></path>
<path fill="#cf050c" d="M20.114 12.56c0.363 0.001 0.725 0 1.088 0-0.159 1.422-0.518 2.843-1.257 4.081-0.455 0.862-1.235 1.501-1.655 2.385-0.025-0.322-0.082-0.64-0.109-0.961 0.121-0.526 0.257-1.063 0.567-1.514 0.802-1.173 1.308-2.566 1.366-3.991z"></path>
<path fill="#bf0308" d="M21.202 12.56c0.267 0 0.533-0.001 0.8 0.002 0.032 0.807-0.145 1.604-0.368 2.375-0.476 1.577-1.363 3.011-2.506 4.19-0.351 0.333-0.726 0.641-1.065 0.986-0.039-0.112-0.075-0.224-0.109-0.336 0.126-0.244 0.233-0.497 0.336-0.751 0.42-0.884 1.2-1.523 1.655-2.385 0.739-1.238 1.098-2.659 1.257-4.081z"></path>
<path fill="#f8101d" d="M13.647 13.71c0.48-0.185 0.947-0.404 1.401-0.647 0.163 0.754 0.735 1.352 1.438 1.642 0.309 0.382 0.566 0.803 0.822 1.222-0.138-0.005-0.276-0.011-0.413-0.016-0.836-0.942-2.047-1.429-3.247-1.713 0-0.163 0-0.326-0.001-0.488z"></path>
<path fill="#c20308" d="M2.223 13.572c0.316 0.452 0.756 0.816 1.272 1.017 0.294 0.958 0.714 1.889 1.339 2.679 0.328 0.409 0.628 0.849 0.792 1.353 0.121 0.388 0.214 0.787 0.387 1.157-0.035 0.051-0.105 0.153-0.14 0.204-0.618-0.732-1.371-1.342-1.928-2.127-0.551-0.763-0.996-1.604-1.308-2.492-0.201-0.58-0.397-1.172-0.414-1.791z"></path>
<path fill="#f32732" d="M13.648 14.198c1.2 0.284 2.411 0.771 3.247 1.713 0.111 0.332 0.19 0.673 0.296 1.007-0.362-0.418-0.814-0.743-1.278-1.038-0.684-0.505-1.436-0.925-2.263-1.142-0.001-0.18-0.002-0.36-0.002-0.54z"></path>
<path fill="#d6050e" d="M3.495 14.589c0.457 0.126 0.941 0.142 1.405 0.041 0.281 0.448 0.571 0.892 0.807 1.365 0.205 0.409 0.158 0.879 0.143 1.321-0.023 0.316-0.036 0.633-0.086 0.946-0.043 0.121-0.091 0.24-0.138 0.359-0.164-0.504-0.464-0.944-0.792-1.353-0.625-0.79-1.045-1.721-1.339-2.679z"></path>
<path fill="#e92c36" d="M9.233 14.596c0.121 0.047 0.244 0.089 0.368 0.13 0.095 0.033 0.191 0.067 0.287 0.102-0.614 0.357-1.28 0.661-1.77 1.19-0.328 0.35-0.489 0.811-0.641 1.256-0.137 0.426-0.324 0.832-0.544 1.221-0.112-0.061-0.223-0.123-0.335-0.183 0.024-0.443-0.025-0.897 0.104-1.327 0.119-0.386 0.29-0.755 0.482-1.109 0.623-0.518 1.332-0.911 2.049-1.28z"></path>
<path fill="#f25059" d="M11.14 15.262c1.271-0.156 2.621 0.013 3.736 0.673 0.524 0.296 0.853 0.813 1.27 1.228 0.001 0.423-0.002 0.85-0.099 1.265-0.096-0.204-0.191-0.407-0.284-0.612-0.123 0.383-0.254 0.768-0.462 1.115-0.027-0.313-0.058-0.625-0.098-0.936-0.167 0.194-0.335 0.388-0.48 0.6-0.008-0.411-0.075-0.845-0.343-1.173-0.591-0.786-1.63-1.103-2.583-1.051-0.85 0.045-1.739 0.366-2.261 1.071-0.288 0.353-0.285 0.835-0.265 1.267-0.134-0.294-0.313-0.565-0.494-0.831-0.069 0.337-0.127 0.679-0.109 1.025-0.192-0.355-0.331-0.735-0.466-1.115-0.090 0.21-0.18 0.42-0.27 0.63-0.084-0.37-0.112-0.749-0.145-1.126 0.176-0.256 0.349-0.517 0.56-0.746 0.719-0.775 1.769-1.142 2.793-1.284z"></path>
<path fill="#dc1f28" d="M6.651 16.062c0.179-0.059 0.358-0.117 0.533-0.186-0.192 0.354-0.363 0.723-0.482 1.109-0.129 0.43-0.080 0.884-0.104 1.327-0.040 0.253-0.11 0.5-0.185 0.745-0.208-0.272-0.432-0.531-0.649-0.795 0.050-0.313 0.063-0.63 0.086-0.946 0.214-0.45 0.505-0.856 0.801-1.254z"></path>
<path fill="#e3323a" d="M15.913 15.88c0.464 0.295 0.916 0.62 1.278 1.038 0.2 0.507 0.174 1.056 0.173 1.591-0.214 0.239-0.493 0.402-0.805 0.474 0.034-0.571 0.003-1.152-0.213-1.688-0.148-0.47-0.284-0.944-0.433-1.415z"></path>
<path fill="#dd2028" d="M16.895 15.911c0.137 0.005 0.275 0.011 0.413 0.016 0.448 0.664 0.824 1.399 0.85 2.217-0.109 0.374-0.395 0.652-0.633 0.946-0.061-0.192-0.122-0.384-0.161-0.581 0.001-0.535 0.027-1.084-0.173-1.591-0.106-0.334-0.185-0.675-0.296-1.007z"></path>
<path fill="#ed6f76" d="M9.536 17.442c0.522-0.705 1.411-1.026 2.261-1.071 0.953-0.052 1.992 0.265 2.583 1.051 0.268 0.328 0.335 0.762 0.343 1.173-0.269 0.547-0.45 1.186-0.962 1.566-0.657 0.493-1.527 0.604-2.324 0.496-0.529-0.076-1.077-0.243-1.467-0.628-0.362-0.358-0.518-0.857-0.699-1.32-0.020-0.432-0.023-0.914 0.265-1.267M11.539 18.040c-0.494 0.173-1.162 0.527-1.053 1.153 0.021 0.791 0.916 1.197 1.613 1.123 0.564-0.085 1.219-0.42 1.287-1.053 0.111-0.373-0.174-0.689-0.43-0.919-0.373-0.348-0.935-0.441-1.417-0.304z"></path>
<path fill="#d0363b" d="M7.477 17.274c0.103 0.006 0.207 0.012 0.31 0.018 0.033 0.377 0.061 0.756 0.145 1.126 0.218 1.102 1.124 1.863 2.032 2.425 0.885 0.473 1.948 0.545 2.924 0.363 0.871-0.151 1.61-0.687 2.253-1.266 0.445-0.401 0.739-0.943 0.906-1.512 0.097-0.415 0.1-0.842 0.099-1.265 0.050 0.033 0.15 0.099 0.2 0.132 0.216 0.536 0.247 1.117 0.213 1.688 0.312-0.072 0.591-0.235 0.805-0.474 0.039 0.197 0.1 0.389 0.161 0.581-0.336 0.528-0.654 1.086-1.161 1.472-1.249 0.994-2.873 1.49-4.464 1.436-1.481 0.037-2.979-0.442-4.157-1.342-0.567-0.42-0.954-1.015-1.33-1.599 0.075-0.245 0.145-0.492 0.185-0.745 0.112 0.060 0.223 0.122 0.335 0.183 0.22-0.389 0.407-0.795 0.544-1.221z"></path>
<path fill="#e04d53" d="M8.202 17.788c0.135 0.38 0.274 0.76 0.466 1.115 0.272 0.457 0.563 0.912 0.937 1.292 0.723 0.651 1.742 0.902 2.697 0.807 0.834-0.079 1.696-0.394 2.243-1.056 0.27-0.324 0.523-0.663 0.756-1.015 0.208-0.347 0.339-0.732 0.462-1.115 0.093 0.205 0.188 0.408 0.284 0.612-0.167 0.569-0.461 1.111-0.906 1.512-0.643 0.579-1.382 1.115-2.253 1.266-0.976 0.182-2.039 0.11-2.924-0.363-0.908-0.562-1.814-1.323-2.032-2.425 0.090-0.21 0.18-0.42 0.27-0.63z"></path>
<path fill="#e35d62" d="M8.777 17.878c0.181 0.266 0.36 0.537 0.494 0.831 0.181 0.463 0.337 0.962 0.699 1.32 0.39 0.385 0.938 0.552 1.467 0.628 0.797 0.108 1.667-0.003 2.324-0.496 0.512-0.38 0.693-1.019 0.962-1.566 0.145-0.212 0.313-0.406 0.48-0.6 0.040 0.311 0.071 0.623 0.098 0.936-0.233 0.352-0.486 0.691-0.756 1.015-0.547 0.662-1.409 0.977-2.243 1.056-0.955 0.095-1.974-0.156-2.697-0.807-0.374-0.38-0.665-0.835-0.937-1.292-0.018-0.346 0.040-0.688 0.109-1.025z"></path>
<path fill="#ec8489" d="M11.539 18.040c0.482-0.137 1.044-0.044 1.417 0.304 0.256 0.23 0.541 0.546 0.43 0.919-0.068 0.633-0.723 0.968-1.287 1.053-0.697 0.074-1.592-0.332-1.613-1.123-0.109-0.626 0.559-0.98 1.053-1.153M11.784 19.081c-0.296 0.073-0.697 0.313-0.549 0.676 0.258 0.442 0.902 0.402 1.292 0.168 0.086-0.187 0.056-0.401 0.076-0.6-0.255-0.122-0.519-0.348-0.819-0.244z"></path>
<path fill="#bf1e21" d="M18.158 18.144l0.023-0.079c0.027 0.321 0.084 0.639 0.109 0.961-0.103 0.254-0.21 0.507-0.336 0.751-0.511 0.767-1.196 1.434-2.020 1.859-1.977 1.094-4.407 1.274-6.549 0.587-1.338-0.425-2.625-1.23-3.372-2.445-0.173-0.37-0.266-0.769-0.387-1.157 0.047-0.119 0.095-0.238 0.138-0.359 0.217 0.264 0.441 0.523 0.649 0.795 0.376 0.584 0.763 1.179 1.33 1.599 1.178 0.9 2.676 1.379 4.157 1.342 1.591 0.054 3.215-0.442 4.464-1.436 0.507-0.386 0.825-0.944 1.161-1.472 0.238-0.294 0.524-0.572 0.633-0.946z"></path>
<path fill="#ea979a" d="M11.784 19.081c0.3-0.104 0.564 0.122 0.819 0.244-0.020 0.199 0.010 0.413-0.076 0.6-0.39 0.234-1.034 0.274-1.292-0.168-0.148-0.363 0.253-0.603 0.549-0.676z"></path>
</svg>
