<?xml version="1.0" encoding="UTF-8" standalone="no"?>
<svg width="36px" height="36px" viewBox="0 0 36 36" version="1.1" xmlns="http://www.w3.org/2000/svg" xmlns:xlink="http://www.w3.org/1999/xlink">
    <!-- Generator: Sketch 39.1 (31720) - http://www.bohemiancoding.com/sketch -->
    <title>active-ca-selected-255</title>
    <desc>Created with Sketch.</desc>
    <defs></defs>
    <g id="Page-1" stroke="none" stroke-width="1" fill="none" fill-rule="evenodd">
        <g id="active-ca-selected" transform="translate(-629.000000, 0.000000)">
            <path d="M664.386665,13.3412572 C661.813712,3.73886733 651.943647,-1.95961748 642.341257,0.613335127 C632.738867,3.18628774 627.040383,13.056353 629.613335,22.6587428 C632.186288,32.2611327 642.056353,37.9596175 651.658743,35.3866649 C661.261133,32.8137123 666.959617,22.943647 664.386665,13.3412572 L664.386665,13.3412572 Z" id="ghost" fill-opacity="0" fill="#FCC24C"></path>
            <path d="M629.723249,12.9428737 C628.822842,16.007189 628.726688,19.3497314 629.613794,22.6604541 C630.50091,25.9712155 632.255483,28.8178932 634.567456,31.0214753 L647.40618,17.8931283 L629.723249,12.9428737 L629.723249,12.9428737 L629.723249,12.9428737 Z" id="ca" fill="#356685"></path>
            <path d="M654.727407,15.9294476 C653.583872,11.6617188 649.197176,9.1290589 644.929448,10.2725934 C640.661719,11.4161279 638.129059,15.8028235 639.272593,20.0705524 C640.416128,24.3382812 644.802824,26.8709411 649.070552,25.7274066 C653.338281,24.5838721 655.870941,20.1971765 654.727407,15.9294476 L654.727407,15.9294476 Z" id="white-base" fill="#FFFFFF"></path>
            <path d="M652.795555,16.4470857 C651.937904,13.2462891 648.647882,11.3467942 645.447086,12.204445 C642.246289,13.0620959 640.346794,16.3521177 641.204445,19.5529143 C642.062096,22.7537109 645.352118,24.6532058 648.552914,23.795555 C651.753711,22.9379041 653.653206,19.6478823 652.795555,16.4470857 L652.795555,16.4470857 Z" id="blue" fill="#00BCFF"></path>
        </g>
    </g>
</svg>