<?xml version="1.0" encoding="UTF-8" standalone="no"?>
<svg width="36px" height="36px" viewBox="0 0 36 36" version="1.1" xmlns="http://www.w3.org/2000/svg" xmlns:xlink="http://www.w3.org/1999/xlink">
    <!-- Generator: Sketch 39.1 (31720) - http://www.bohemiancoding.com/sketch -->
    <title>active-ca-selected-105</title>
    <desc>Created with Sketch.</desc>
    <defs></defs>
    <g id="Page-1" stroke="none" stroke-width="1" fill="none" fill-rule="evenodd">
        <g id="active-ca-selected" transform="translate(-259.000000, 0.000000)">
            <path d="M259.613335,13.3412572 C257.040383,22.943647 262.738867,32.8137123 272.341257,35.3866649 C281.943647,37.9596175 291.813712,32.2611327 294.386665,22.6587428 C296.959617,13.056353 291.261133,3.18628774 281.658743,0.613335127 C272.056353,-1.95961748 262.186288,3.73886733 259.613335,13.3412572 L259.613335,13.3412572 Z" id="ghost" fill-opacity="0" fill="#FCC24C"></path>
            <path d="M289.433542,31.0179755 C291.745475,28.8144041 293.500018,25.9677542 294.387123,22.6570315 C295.274239,19.3462701 295.178073,16.0036883 294.277637,12.9393438 L276.594802,17.8894637 L289.433542,31.0179755 L289.433542,31.0179755 L289.433542,31.0179755 Z" id="ca" fill="#356685"></path>
            <path d="M269.272593,15.9294476 C268.129059,20.1971765 270.661719,24.5838721 274.929448,25.7274066 C279.197176,26.8709411 283.583872,24.3382812 284.727407,20.0705524 C285.870941,15.8028235 283.338281,11.4161279 279.070552,10.2725934 C274.802824,9.1290589 270.416128,11.6617188 269.272593,15.9294476 L269.272593,15.9294476 Z" id="white-base" fill="#FFFFFF"></path>
            <path d="M271.204445,16.4470857 C270.346794,19.6478823 272.246289,22.9379041 275.447086,23.795555 C278.647882,24.6532058 281.937904,22.7537109 282.795555,19.5529143 C283.653206,16.3521177 281.753711,13.0620959 278.552914,12.204445 C275.352118,11.3467942 272.062096,13.2462891 271.204445,16.4470857 L271.204445,16.4470857 Z" id="blue" fill="#00BCFF"></path>
        </g>
    </g>
</svg>