<?xml version="1.0" encoding="UTF-8" standalone="no"?>
<svg width="48px" height="48px" viewBox="0 0 48 48" version="1.1" xmlns="http://www.w3.org/2000/svg" xmlns:xlink="http://www.w3.org/1999/xlink">
    <!-- Generator: Sketch 39.1 (31720) - http://www.bohemiancoding.com/sketch -->
    <title>cur-ca-15</title>
    <desc>Created with Sketch.</desc>
    <defs></defs>
    <g id="Page-1" stroke="none" stroke-width="1" fill="none" fill-rule="evenodd">
        <g id="cur-ca" transform="translate(-49.000000, 0.000000)">
            <path d="M66.7883429,47.1822198 C79.5915294,50.6128233 92.7516164,43.0148436 96.1822198,30.2116571 C99.6128233,17.4084706 92.0148436,4.24838365 79.2116571,0.817780169 C66.4084706,-2.61282331 53.2483836,4.98515644 49.8177802,17.7883429 C46.3871767,30.5915294 53.9851564,43.7516164 66.7883429,47.1822198 L66.7883429,47.1822198 Z" id="ghost" fill-opacity="0" fill="#FCC24C"></path>
            <path d="M90.3573006,7.42194355 C87.4192054,4.33936624 83.6236723,1.99997608 79.2093753,0.817168767 C74.7950268,-0.365652349 70.3382511,-0.237430828 66.2524584,0.96315087 L72.8526182,24.5402638 L90.3573006,7.42194355 L90.3573006,7.42194355 L90.3573006,7.42194355 Z" id="ca" fill="#FFC01B"></path>
            <path d="M70.6706286,32.6933324 C75.4718235,33.9798087 80.4068561,31.1305663 81.6933324,26.3293714 C82.9798087,21.5281765 80.1305663,16.5931439 75.3293714,15.3066676 C70.5281765,14.0201913 65.5931439,16.8694337 64.3066676,21.6706286 C63.0201913,26.4718235 65.8694337,31.4068561 70.6706286,32.6933324 L70.6706286,32.6933324 Z" id="white-base" fill="#FFFFFF"></path>
            <path d="M71.1882667,30.7614808 C74.9225294,31.7620735 78.7608881,29.545996 79.7614808,25.8117333 C80.7620735,22.0774706 78.545996,18.2391119 74.8117333,17.2385192 C71.0774706,16.2379265 67.2391119,18.454004 66.2385192,22.1882667 C65.2379265,25.9225294 67.454004,29.7608881 71.1882667,30.7614808 L71.1882667,30.7614808 Z" id="orange" fill="#FF861B"></path>
        </g>
    </g>
</svg>