<?xml version="1.0" encoding="UTF-8" standalone="no"?>
<svg width="48px" height="48px" viewBox="0 0 48 48" version="1.1" xmlns="http://www.w3.org/2000/svg" xmlns:xlink="http://www.w3.org/1999/xlink">
    <!-- Generator: Sketch 39.1 (31720) - http://www.bohemiancoding.com/sketch -->
    <title>cur-ca-165</title>
    <desc>Created with Sketch.</desc>
    <defs></defs>
    <g id="Page-1" stroke="none" stroke-width="1" fill="none" fill-rule="evenodd">
        <g id="cur-ca" transform="translate(-539.000000, 0.000000)">
            <path d="M556.788343,0.817780169 C543.985156,4.24838365 536.387177,17.4084706 539.81778,30.2116571 C543.248384,43.0148436 556.408471,50.6128233 569.211657,47.1822198 C582.014844,43.7516164 589.612823,30.5915294 586.18222,17.7883429 C582.751616,4.98515644 569.591529,-2.61282331 556.788343,0.817780169 L556.788343,0.817780169 Z" id="ghost" fill-opacity="0" fill="#FCC24C"></path>
            <path d="M556.257165,47.0356683 C560.342919,48.236211 564.799642,48.3644157 569.213939,47.1816084 C573.628287,45.9987873 577.423858,43.6593564 580.361967,40.5767258 L562.857504,23.4584269 L556.257165,47.0356683 L556.257165,47.0356683 L556.257165,47.0356683 Z" id="ca" fill="#FFC01B"></path>
            <path d="M560.670629,15.3066676 C555.869434,16.5931439 553.020191,21.5281765 554.306668,26.3293714 C555.593144,31.1305663 560.528176,33.9798087 565.329371,32.6933324 C570.130566,31.4068561 572.979809,26.4718235 571.693332,21.6706286 C570.406856,16.8694337 565.471824,14.0201913 560.670629,15.3066676 L560.670629,15.3066676 Z" id="white-base" fill="#FFFFFF"></path>
            <path d="M561.188267,17.2385192 C557.454004,18.2391119 555.237927,22.0774706 556.238519,25.8117333 C557.239112,29.545996 561.077471,31.7620735 564.811733,30.7614808 C568.545996,29.7608881 570.762073,25.9225294 569.761481,22.1882667 C568.760888,18.454004 564.922529,16.2379265 561.188267,17.2385192 L561.188267,17.2385192 Z" id="orange" fill="#FF861B"></path>
        </g>
    </g>
</svg>