<?xml version="1.0" encoding="UTF-8" standalone="no"?>
<svg width="48px" height="48px" viewBox="0 0 48 48" version="1.1" xmlns="http://www.w3.org/2000/svg" xmlns:xlink="http://www.w3.org/1999/xlink">
    <!-- Generator: Sketch 39.1 (31720) - http://www.bohemiancoding.com/sketch -->
    <title>cur-ca-90</title>
    <desc>Created with Sketch.</desc>
    <defs></defs>
    <g id="Page-1" stroke="none" stroke-width="1" fill="none" fill-rule="evenodd">
        <g id="cur-ca" transform="translate(-294.000000, 0.000000)">
            <path d="M294,24 C294,37.254834 304.745166,48 318,48 C331.254834,48 342,37.254834 342,24 C342,10.745166 331.254834,1.57885871e-15 318,-8.56014798e-16 C304.745166,-3.2908883e-15 294,10.745166 294,24 L294,24 Z" id="ghost" fill-opacity="0" fill="#FCC24C"></path>
            <path d="M338.505573,36.4751482 C340.722679,32.8393365 342,28.5676543 342,23.9976377 C342,19.4275679 340.722649,15.1558393 338.505495,11.52 L317.44,23.9974707 L338.505573,36.4751482 L338.505573,36.4751482 L338.505573,36.4751482 Z" id="ca" fill="#FFC01B"></path>
            <path d="M309,24 C309,28.9705627 313.029437,33 318,33 C322.970563,33 327,28.9705627 327,24 C327,19.0294373 322.970563,15 318,15 C313.029437,15 309,19.0294373 309,24 L309,24 Z" id="white-base" fill="#FFFFFF"></path>
            <path d="M311,24 C311,27.8659932 314.134007,31 318,31 C321.865993,31 325,27.8659932 325,24 C325,20.1340068 321.865993,17 318,17 C314.134007,17 311,20.1340068 311,24 L311,24 Z" id="orange" fill="#FF861B"></path>
        </g>
    </g>
</svg>