<?xml version="1.0" encoding="UTF-8" standalone="no"?>
<svg width="48px" height="48px" viewBox="0 0 48 48" version="1.1" xmlns="http://www.w3.org/2000/svg" xmlns:xlink="http://www.w3.org/1999/xlink">
    <!-- Generator: Sketch 39.1 (31720) - http://www.bohemiancoding.com/sketch -->
    <title>cur-ca-60</title>
    <desc>Created with Sketch.</desc>
    <defs></defs>
    <g id="Page-1" stroke="none" stroke-width="1" fill="none" fill-rule="evenodd">
        <g id="cur-ca" transform="translate(-196.000000, 0.000000)">
            <path d="M199.21539,36 C205.842807,47.479023 220.520977,51.4120267 232,44.7846097 C243.479023,38.1571927 247.412027,23.479023 240.78461,12 C234.157193,0.520977037 219.479023,-3.41202669 208,3.21539031 C196.520977,9.84280731 192.587973,24.520977 199.21539,36 L199.21539,36 Z" id="ghost" fill-opacity="0" fill="#FCC24C"></path>
            <path d="M243.995921,24.5510088 C244.098085,20.2937505 243.068437,15.9557046 240.783429,11.9979542 C238.498394,8.04015762 235.256311,4.97940761 231.51828,2.93925533 L219.513761,24.2778096 L243.995921,24.5510088 L243.995921,24.5510088 L243.995921,24.5510088 Z" id="ca" fill="#FFC01B"></path>
            <path d="M212.205771,28.5 C214.691053,32.8046336 220.195366,34.27951 224.5,31.7942286 C228.804634,29.3089473 230.27951,23.8046336 227.794229,19.5 C225.308947,15.1953664 219.804634,13.72049 215.5,16.2057714 C211.195366,18.6910527 209.72049,24.1953664 212.205771,28.5 L212.205771,28.5 Z" id="white-base" fill="#FFFFFF"></path>
            <path d="M213.937822,27.5 C215.870819,30.8480484 220.151952,31.9951745 223.5,30.0621778 C226.848048,28.1291812 227.995174,23.8480484 226.062178,20.5 C224.129181,17.1519516 219.848048,16.0048255 216.5,17.9378222 C213.151952,19.8708188 212.004826,24.1519516 213.937822,27.5 L213.937822,27.5 Z" id="orange" fill="#FF861B"></path>
        </g>
    </g>
</svg>