<?xml version="1.0" encoding="UTF-8" standalone="no"?>
<svg width="48px" height="48px" viewBox="0 0 48 48" version="1.1" xmlns="http://www.w3.org/2000/svg" xmlns:xlink="http://www.w3.org/1999/xlink">
    <!-- Generator: Sketch 39.1 (31720) - http://www.bohemiancoding.com/sketch -->
    <title>cur-ca-315</title>
    <desc>Created with Sketch.</desc>
    <defs></defs>
    <g id="Page-1" stroke="none" stroke-width="1" fill="none" fill-rule="evenodd">
        <g id="cur-ca" transform="translate(-1029.000000, 0.000000)">
            <path d="M1069.97056,40.9705627 C1079.34315,31.5979797 1079.34315,16.4020203 1069.97056,7.02943725 C1060.59798,-2.34314575 1045.40202,-2.34314575 1036.02944,7.02943725 C1026.65685,16.4020203 1026.65685,31.5979797 1036.02944,40.9705627 C1045.40202,50.3431457 1060.59798,50.3431457 1069.97056,40.9705627 L1069.97056,40.9705627 Z" id="ghost" fill-opacity="0" fill="#FCC24C"></path>
            <path d="M1047.32163,0.679108497 C1043.18299,1.6822849 1039.25926,3.79961795 1036.02777,7.03110763 C1032.79624,10.262635 1030.67889,14.1864267 1029.67573,18.3251179 L1053.39419,24.3977683 L1047.32163,0.679108497 L1047.32163,0.679108497 L1047.32163,0.679108497 Z" id="ca" fill="#FFC01B"></path>
            <path d="M1059.36396,30.363961 C1062.87868,26.8492424 1062.87868,21.1507576 1059.36396,17.636039 C1055.84924,14.1213203 1050.15076,14.1213203 1046.63604,17.636039 C1043.12132,21.1507576 1043.12132,26.8492424 1046.63604,30.363961 C1050.15076,33.8786797 1055.84924,33.8786797 1059.36396,30.363961 L1059.36396,30.363961 Z" id="white-base" fill="#FFFFFF"></path>
            <path d="M1057.94975,28.9497475 C1060.68342,26.2160774 1060.68342,21.7839226 1057.94975,19.0502525 C1055.21608,16.3165825 1050.78392,16.3165825 1048.05025,19.0502525 C1045.31658,21.7839226 1045.31658,26.2160774 1048.05025,28.9497475 C1050.78392,31.6834175 1055.21608,31.6834175 1057.94975,28.9497475 L1057.94975,28.9497475 Z" id="orange" fill="#FF861B"></path>
        </g>
    </g>
</svg>