<?xml version="1.0" encoding="UTF-8" standalone="no"?>
<svg width="48px" height="48px" viewBox="0 0 48 48" version="1.1" xmlns="http://www.w3.org/2000/svg" xmlns:xlink="http://www.w3.org/1999/xlink">
    <!-- Generator: Sketch 39.1 (31720) - http://www.bohemiancoding.com/sketch -->
    <title>cur-ca-105</title>
    <desc>Created with Sketch.</desc>
    <defs></defs>
    <g id="Page-1" stroke="none" stroke-width="1" fill="none" fill-rule="evenodd">
        <g id="cur-ca" transform="translate(-343.000000, 0.000000)">
            <path d="M343.81778,17.7883429 C340.387177,30.5915294 347.985156,43.7516164 360.788343,47.1822198 C373.591529,50.6128233 386.751616,43.0148436 390.18222,30.2116571 C393.612823,17.4084706 386.014844,4.24838365 373.211657,0.817780169 C360.408471,-2.61282331 347.248384,4.98515644 343.81778,17.7883429 L343.81778,17.7883429 Z" id="ghost" fill-opacity="0" fill="#FCC24C"></path>
            <path d="M383.578056,41.3573006 C386.660634,38.4192054 389.000024,34.6236723 390.182831,30.2093753 C391.365652,25.7950268 391.237431,21.3382511 390.036849,17.2524584 L366.459736,23.8526182 L383.578056,41.3573006 L383.578056,41.3573006 L383.578056,41.3573006 Z" id="ca" fill="#FFC01B"></path>
            <path d="M358.306668,21.6706286 C357.020191,26.4718235 359.869434,31.4068561 364.670629,32.6933324 C369.471824,33.9798087 374.406856,31.1305663 375.693332,26.3293714 C376.979809,21.5281765 374.130566,16.5931439 369.329371,15.3066676 C364.528176,14.0201913 359.593144,16.8694337 358.306668,21.6706286 L358.306668,21.6706286 Z" id="white-base" fill="#FFFFFF"></path>
            <path d="M360.238519,22.1882667 C359.237927,25.9225294 361.454004,29.7608881 365.188267,30.7614808 C368.922529,31.7620735 372.760888,29.545996 373.761481,25.8117333 C374.762073,22.0774706 372.545996,18.2391119 368.811733,17.2385192 C365.077471,16.2379265 361.239112,18.454004 360.238519,22.1882667 L360.238519,22.1882667 Z" id="orange" fill="#FF861B"></path>
        </g>
    </g>
</svg>