<?xml version="1.0" encoding="UTF-8" standalone="no"?>
<svg width="36px" height="36px" viewBox="0 0 36 36" version="1.1" xmlns="http://www.w3.org/2000/svg" xmlns:xlink="http://www.w3.org/1999/xlink">
    <!-- Generator: Sketch 39.1 (31720) - http://www.bohemiancoding.com/sketch -->
    <title>deleted-selected-330</title>
    <desc>Created with Sketch.</desc>
    <defs></defs>
    <g id="Page-1" stroke="none" stroke-width="1" fill="none" fill-rule="evenodd">
        <g id="deleted-selected" transform="translate(-814.000000, 0.000000)">
            <path d="M841,33.5884573 C849.609267,28.6178945 852.55902,17.6092672 847.588457,9 C842.617895,0.390732778 831.609267,-2.55902002 823,2.41154273 C814.390733,7.38210548 811.44098,18.3907328 816.411543,27 C821.382105,35.6092672 832.390733,38.55902 841,33.5884573 L841,33.5884573 Z" id="ghost" fill-opacity="0" fill="#FCC24C"></path>
            <path d="M832.413257,0.00305916946 C829.220313,-0.0735640537 825.966778,0.698672383 822.998466,2.41242859 C820.030118,4.12620478 817.734556,6.55776674 816.204442,9.36129014 L832.208357,18.3646791 L832.413257,0.00305916946 L832.413257,0.00305916946 L832.413257,0.00305916946 Z" id="ca" fill="#B12E1B"></path>
            <path d="M836,24.9282032 C839.826341,22.7190642 841.137342,17.826341 838.928203,14 C836.719064,10.173659 831.826341,8.86265777 828,11.0717968 C824.173659,13.2809358 822.862658,18.173659 825.071797,22 C827.280936,25.826341 832.173659,27.1373422 836,24.9282032 L836,24.9282032 Z" id="white-base" fill="#FFFFFF"></path>
            <path d="M835,23.1961524 C837.869756,21.5392982 838.853007,17.8697557 837.196152,15 C835.539298,12.1302443 831.869756,11.1469933 829,12.8038476 C826.130244,14.4607018 825.146993,18.1302443 826.803848,21 C828.460702,23.8697557 832.130244,24.8530067 835,23.1961524 L835,23.1961524 Z" id="red" fill="#E05643"></path>
        </g>
    </g>
</svg>