<?xml version="1.0" encoding="UTF-8" standalone="no"?>
<svg width="36px" height="36px" viewBox="0 0 36 36" version="1.1" xmlns="http://www.w3.org/2000/svg" xmlns:xlink="http://www.w3.org/1999/xlink">
    <!-- Generator: Sketch 39.1 (31720) - http://www.bohemiancoding.com/sketch -->
    <title>deleted-selected-150</title>
    <desc>Created with Sketch.</desc>
    <defs></defs>
    <g id="Page-1" stroke="none" stroke-width="1" fill="none" fill-rule="evenodd">
        <g id="deleted-selected" transform="translate(-370.000000, 0.000000)">
            <path d="M379,2.41154273 C370.390733,7.38210548 367.44098,18.3907328 372.411543,27 C377.382105,35.6092672 388.390733,38.55902 397,33.5884573 C405.609267,28.6178945 408.55902,17.6092672 403.588457,9 C398.617895,0.390732778 387.609267,-2.55902002 379,2.41154273 L379,2.41154273 Z" id="ghost" fill-opacity="0" fill="#FCC24C"></path>
            <path d="M387.586743,35.9969408 C390.779687,36.0735641 394.033222,35.3013276 397.001534,33.5875714 C399.969882,31.8737952 402.265444,29.4422333 403.795558,26.6387099 L387.791643,17.6353209 L387.586743,35.9969408 L387.586743,35.9969408 L387.586743,35.9969408 Z" id="ca" fill="#B12E1B"></path>
            <path d="M384,11.0717968 C380.173659,13.2809358 378.862658,18.173659 381.071797,22 C383.280936,25.826341 388.173659,27.1373422 392,24.9282032 C395.826341,22.7190642 397.137342,17.826341 394.928203,14 C392.719064,10.173659 387.826341,8.86265777 384,11.0717968 L384,11.0717968 Z" id="white-base" fill="#FFFFFF"></path>
            <path d="M385,12.8038476 C382.130244,14.4607018 381.146993,18.1302443 382.803848,21 C384.460702,23.8697557 388.130244,24.8530067 391,23.1961524 C393.869756,21.5392982 394.853007,17.8697557 393.196152,15 C391.539298,12.1302443 387.869756,11.1469933 385,12.8038476 L385,12.8038476 Z" id="red" fill="#E05643"></path>
        </g>
    </g>
</svg>