<?xml version="1.0" encoding="UTF-8" standalone="no"?>
<svg width="36px" height="36px" viewBox="0 0 36 36" version="1.1" xmlns="http://www.w3.org/2000/svg" xmlns:xlink="http://www.w3.org/1999/xlink">
    <!-- Generator: Sketch 39.1 (31720) - http://www.bohemiancoding.com/sketch -->
    <title>deleted-selected-345</title>
    <desc>Created with Sketch.</desc>
    <defs></defs>
    <g id="Page-1" stroke="none" stroke-width="1" fill="none" fill-rule="evenodd">
        <g id="deleted-selected" transform="translate(-851.000000, 0.000000)">
            <path d="M873.658743,35.3866649 C883.261133,32.8137123 888.959617,22.943647 886.386665,13.3412572 C883.813712,3.73886733 873.943647,-1.95961748 864.341257,0.613335127 C854.738867,3.18628774 849.040383,13.056353 851.613335,22.6587428 C854.186288,32.2611327 864.056353,37.9596175 873.658743,35.3866649 L873.658743,35.3866649 Z" id="ghost" fill-opacity="0" fill="#FCC24C"></path>
            <path d="M874.057126,0.723248743 C870.992811,-0.177158261 867.650269,-0.27331181 864.339546,0.613793678 C861.028784,1.50090952 858.182107,3.25548272 855.978525,5.56745568 L869.106872,18.4061798 L874.057126,0.723248743 L874.057126,0.723248743 L874.057126,0.723248743 Z" id="ca" fill="#B12E1B"></path>
            <path d="M871.070552,25.7274066 C875.338281,24.5838721 877.870941,20.1971765 876.727407,15.9294476 C875.583872,11.6617188 871.197176,9.1290589 866.929448,10.2725934 C862.661719,11.4161279 860.129059,15.8028235 861.272593,20.0705524 C862.416128,24.3382812 866.802824,26.8709411 871.070552,25.7274066 L871.070552,25.7274066 Z" id="white-base" fill="#FFFFFF"></path>
            <path d="M870.552914,23.795555 C873.753711,22.9379041 875.653206,19.6478823 874.795555,16.4470857 C873.937904,13.2462891 870.647882,11.3467942 867.447086,12.204445 C864.246289,13.0620959 862.346794,16.3521177 863.204445,19.5529143 C864.062096,22.7537109 867.352118,24.6532058 870.552914,23.795555 L870.552914,23.795555 Z" id="red" fill="#E05643"></path>
        </g>
    </g>
</svg>