<?xml version="1.0" encoding="UTF-8" standalone="no"?>
<svg width="36px" height="36px" viewBox="0 0 36 36" version="1.1" xmlns="http://www.w3.org/2000/svg" xmlns:xlink="http://www.w3.org/1999/xlink">
    <!-- Generator: Sketch 39.1 (31720) - http://www.bohemiancoding.com/sketch -->
    <title>deleted-15</title>
    <desc>Created with Sketch.</desc>
    <defs></defs>
    <g id="Page-1" stroke="none" stroke-width="1" fill="none" fill-rule="evenodd">
        <g id="deleted" transform="translate(-37.000000, 0.000000)">
            <path d="M50.3412572,35.3866649 C59.943647,37.9596175 69.8137123,32.2611327 72.3866649,22.6587428 C74.9596175,13.056353 69.2611327,3.18628774 59.6587428,0.613335127 C50.056353,-1.95961748 40.1862877,3.73886733 37.6133351,13.3412572 C35.0403825,22.943647 40.7388673,32.8137123 50.3412572,35.3866649 L50.3412572,35.3866649 Z" id="ghost" fill-opacity="0" fill="#FCC24C"></path>
            <path d="M68.0179755,5.56645766 C65.8144041,3.25452468 62.9677542,1.49998206 59.6570315,0.612876575 C56.3462701,-0.274239262 53.0036883,-0.178073121 49.9393438,0.722363153 L54.8894637,18.4051979 L68.0179755,5.56645766 L68.0179755,5.56645766 L68.0179755,5.56645766 Z" id="ca" fill="#B12E1B"></path>
            <path d="M53.4470857,23.795555 C56.6478823,24.6532058 59.9379041,22.7537109 60.795555,19.5529143 C61.6532058,16.3521177 59.7537109,13.0620959 56.5529143,12.204445 C53.3521177,11.3467942 50.0620959,13.2462891 49.204445,16.4470857 C48.3467942,19.6478823 50.2462891,22.9379041 53.4470857,23.795555 L53.4470857,23.795555 Z" id="red" fill="#E05643"></path>
        </g>
    </g>
</svg>