<?xml version="1.0" encoding="UTF-8" standalone="no"?>
<svg width="36px" height="36px" viewBox="0 0 36 36" version="1.1" xmlns="http://www.w3.org/2000/svg" xmlns:xlink="http://www.w3.org/1999/xlink">
    <!-- Generator: Sketch 39.1 (31720) - http://www.bohemiancoding.com/sketch -->
    <title>deleted-90</title>
    <desc>Created with Sketch.</desc>
    <defs></defs>
    <g id="Page-1" stroke="none" stroke-width="1" fill="none" fill-rule="evenodd">
        <g id="deleted" transform="translate(-222.000000, 0.000000)">
            <path d="M222,18 C222,27.9411255 230.058875,36 240,36 C249.941125,36 258,27.9411255 258,18 C258,8.0588745 249.941125,1.77635684e-15 240,0 C230.058875,-1.77635684e-15 222,8.0588745 222,18 L222,18 Z" id="ghost" fill-opacity="0" fill="#FCC24C"></path>
            <path d="M255.37918,27.3563612 C257.042009,24.6295024 258,21.4257407 258,17.9982283 C258,14.5706759 257.041987,11.3668795 255.379121,8.64 L239.58,17.998103 L255.37918,27.3563612 L255.37918,27.3563612 L255.37918,27.3563612 Z" id="ca" fill="#B12E1B"></path>
            <path d="M234,18 C234,21.3137085 236.686292,24 240,24 C243.313708,24 246,21.3137085 246,18 C246,14.6862915 243.313708,12 240,12 C236.686292,12 234,14.6862915 234,18 L234,18 Z" id="red" fill="#E05643"></path>
        </g>
    </g>
</svg>