<?xml version="1.0" encoding="UTF-8" standalone="no"?>
<svg width="36px" height="36px" viewBox="0 0 36 36" version="1.1" xmlns="http://www.w3.org/2000/svg" xmlns:xlink="http://www.w3.org/1999/xlink">
    <!-- Generator: Sketch 39.1 (31720) - http://www.bohemiancoding.com/sketch -->
    <title>not-uploaded-selected-135</title>
    <desc>Created with Sketch.</desc>
    <defs></defs>
    <g id="Page-1" stroke="none" stroke-width="1" fill="none" fill-rule="evenodd">
        <g id="not-uploaded-selected" transform="translate(-333.000000, 0.000000)">
            <path d="M338.272078,5.27207794 C331.242641,12.3015152 331.242641,23.6984848 338.272078,30.7279221 C345.301515,37.7573593 356.698485,37.7573593 363.727922,30.7279221 C370.757359,23.6984848 370.757359,12.3015152 363.727922,5.27207794 C356.698485,-1.75735931 345.301515,-1.75735931 338.272078,5.27207794 L338.272078,5.27207794 Z" id="ghost" fill-opacity="0" fill="#FCC24C"></path>
            <path d="M355.258776,35.4906686 C358.362754,34.7382863 361.305558,33.1502865 363.729175,30.7266693 C366.15282,28.3030237 367.740829,25.3601799 368.493201,22.2561616 L350.704356,17.7016738 L355.258776,35.4906686 L355.258776,35.4906686 L355.258776,35.4906686 Z" id="ca" fill="#187A45"></path>
            <path d="M345.343146,12.3431458 C342.218951,15.4673401 342.218951,20.5326599 345.343146,23.6568542 C348.46734,26.7810486 353.53266,26.7810486 356.656854,23.6568542 C359.781049,20.5326599 359.781049,15.4673401 356.656854,12.3431458 C353.53266,9.21895142 348.46734,9.21895142 345.343146,12.3431458 L345.343146,12.3431458 Z" id="white-base" fill="#FFFFFF"></path>
            <path d="M346.757359,13.7573593 C344.414214,16.1005051 344.414214,19.8994949 346.757359,22.2426407 C349.100505,24.5857864 352.899495,24.5857864 355.242641,22.2426407 C357.585786,19.8994949 357.585786,16.1005051 355.242641,13.7573593 C352.899495,11.4142136 349.100505,11.4142136 346.757359,13.7573593 L346.757359,13.7573593 Z" id="green" fill="#36AF6D"></path>
            <path d="M348.87868,15.8786797 C347.707107,17.0502525 347.707107,18.9497475 348.87868,20.1213203 C350.050253,21.2928932 351.949747,21.2928932 353.12132,20.1213203 C354.292893,18.9497475 354.292893,17.0502525 353.12132,15.8786797 C351.949747,14.7071068 350.050253,14.7071068 348.87868,15.8786797 L348.87868,15.8786797 Z" id="white-hollow" fill="#FFFFFF"></path>
        </g>
    </g>
</svg>