<?xml version="1.0" encoding="UTF-8" standalone="no"?>
<svg width="36px" height="36px" viewBox="0 0 36 36" version="1.1" xmlns="http://www.w3.org/2000/svg" xmlns:xlink="http://www.w3.org/1999/xlink">
    <!-- Generator: Sketch 39.1 (31720) - http://www.bohemiancoding.com/sketch -->
    <title>not-uploaded-300</title>
    <desc>Created with Sketch.</desc>
    <defs></defs>
    <g id="Page-1" stroke="none" stroke-width="1" fill="none" fill-rule="evenodd">
        <g id="not-uploaded" transform="translate(-740.000000, 0.000000)">
            <path d="M773.588457,27 C778.55902,18.3907328 775.609267,7.38210548 767,2.41154273 C758.390733,-2.55902002 747.382105,0.390732778 742.411543,9 C737.44098,17.6092672 740.390733,28.6178945 749,33.5884573 C757.609267,38.55902 768.617895,35.6092672 773.588457,27 L773.588457,27 Z" id="ghost" fill-opacity="0" fill="#FCC24C"></path>
            <path d="M749.35942,2.20756374 C746.555938,3.73767796 744.124413,6.03322153 742.410657,9.00153434 C740.696881,11.9698818 739.924646,15.2234575 740.00129,18.4164371 L758.362782,18.2116428 L749.35942,2.20756374 L749.35942,2.20756374 L749.35942,2.20756374 Z" id="ca" fill="#187A45"></path>
            <path d="M763.196152,21 C764.853007,18.1302443 763.869756,14.4607018 761,12.8038476 C758.130244,11.1469933 754.460702,12.1302443 752.803848,15 C751.146993,17.8697557 752.130244,21.5392982 755,23.1961524 C757.869756,24.8530067 761.539298,23.8697557 763.196152,21 L763.196152,21 Z" id="green" fill="#36AF6D"></path>
            <path d="M760.598076,19.5 C761.426503,18.0651221 760.934878,16.2303509 759.5,15.4019238 C758.065122,14.5734967 756.230351,15.0651221 755.401924,16.5 C754.573497,17.9348779 755.065122,19.7696491 756.5,20.5980762 C757.934878,21.4265033 759.769649,20.9348779 760.598076,19.5 L760.598076,19.5 Z" id="white-hollow" fill="#FFFFFF"></path>
        </g>
    </g>
</svg>