<?xml version="1.0" encoding="UTF-8" standalone="no"?>
<svg width="36px" height="36px" viewBox="0 0 36 36" version="1.1" xmlns="http://www.w3.org/2000/svg" xmlns:xlink="http://www.w3.org/1999/xlink">
    <!-- Generator: Sketch 39.1 (31720) - http://www.bohemiancoding.com/sketch -->
    <title>not-uploaded-selected-195</title>
    <desc>Created with Sketch.</desc>
    <defs></defs>
    <g id="Page-1" stroke="none" stroke-width="1" fill="none" fill-rule="evenodd">
        <g id="not-uploaded-selected" transform="translate(-481.000000, 0.000000)">
            <path d="M503.658743,0.613335127 C494.056353,-1.95961748 484.186288,3.73886733 481.613335,13.3412572 C479.040383,22.943647 484.738867,32.8137123 494.341257,35.3866649 C503.943647,37.9596175 513.813712,32.2611327 516.386665,22.6587428 C518.959617,13.056353 513.261133,3.18628774 503.658743,0.613335127 L503.658743,0.613335127 Z" id="ghost" fill-opacity="0" fill="#FCC24C"></path>
            <path d="M485.982025,30.4335423 C488.185596,32.7454753 491.032246,34.5000179 494.342969,35.3871234 C497.65373,36.2742393 500.996312,36.1780731 504.060656,35.2776368 L499.110536,17.5948021 L485.982025,30.4335423 L485.982025,30.4335423 L485.982025,30.4335423 Z" id="ca" fill="#187A45"></path>
            <path d="M501.070552,10.2725934 C496.802824,9.1290589 492.416128,11.6617188 491.272593,15.9294476 C490.129059,20.1971765 492.661719,24.5838721 496.929448,25.7274066 C501.197176,26.8709411 505.583872,24.3382812 506.727407,20.0705524 C507.870941,15.8028235 505.338281,11.4161279 501.070552,10.2725934 L501.070552,10.2725934 Z" id="white-base" fill="#FFFFFF"></path>
            <path d="M500.552914,12.204445 C497.352118,11.3467942 494.062096,13.2462891 493.204445,16.4470857 C492.346794,19.6478823 494.246289,22.9379041 497.447086,23.795555 C500.647882,24.6532058 503.937904,22.7537109 504.795555,19.5529143 C505.653206,16.3521177 503.753711,13.0620959 500.552914,12.204445 L500.552914,12.204445 Z" id="green" fill="#36AF6D"></path>
            <path d="M499.776457,15.1022225 C498.176059,14.6733971 496.531048,15.6231446 496.102223,17.2235429 C495.673397,18.8239412 496.623145,20.468952 498.223543,20.8977775 C499.823941,21.3266029 501.468952,20.3768554 501.897777,18.7764571 C502.326603,17.1760588 501.376855,15.531048 499.776457,15.1022225 L499.776457,15.1022225 Z" id="white-hollow" fill="#FFFFFF"></path>
        </g>
    </g>
</svg>