<?xml version="1.0" encoding="UTF-8" standalone="no"?>
<svg width="36px" height="36px" viewBox="0 0 36 36" version="1.1" xmlns="http://www.w3.org/2000/svg" xmlns:xlink="http://www.w3.org/1999/xlink">
    <!-- Generator: Sketch 39.1 (31720) - http://www.bohemiancoding.com/sketch -->
    <title>not-uploaded-240</title>
    <desc>Created with Sketch.</desc>
    <defs></defs>
    <g id="Page-1" stroke="none" stroke-width="1" fill="none" fill-rule="evenodd">
        <g id="not-uploaded" transform="translate(-592.000000, 0.000000)">
            <path d="M625.588457,9 C620.617895,0.390732778 609.609267,-2.55902002 601,2.41154273 C592.390733,7.38210548 589.44098,18.3907328 594.411543,27 C599.382105,35.6092672 610.390733,38.55902 619,33.5884573 C627.609267,28.6178945 630.55902,17.6092672 625.588457,9 L625.588457,9 Z" id="ghost" fill-opacity="0" fill="#FCC24C"></path>
            <path d="M592.003059,17.5867434 C591.926436,20.7796871 592.698672,24.0332215 594.412429,27.0015343 C596.126205,29.9698818 598.557767,32.2654443 601.36129,33.7955585 L610.364679,17.7916428 L592.003059,17.5867434 L592.003059,17.5867434 L592.003059,17.5867434 Z" id="ca" fill="#187A45"></path>
            <path d="M615.196152,15 C613.539298,12.1302443 609.869756,11.1469933 607,12.8038476 C604.130244,14.4607018 603.146993,18.1302443 604.803848,21 C606.460702,23.8697557 610.130244,24.8530067 613,23.1961524 C615.869756,21.5392982 616.853007,17.8697557 615.196152,15 L615.196152,15 Z" id="green" fill="#36AF6D"></path>
            <path d="M612.598076,16.5 C611.769649,15.0651221 609.934878,14.5734967 608.5,15.4019238 C607.065122,16.2303509 606.573497,18.0651221 607.401924,19.5 C608.230351,20.9348779 610.065122,21.4265033 611.5,20.5980762 C612.934878,19.7696491 613.426503,17.9348779 612.598076,16.5 L612.598076,16.5 Z" id="white-hollow" fill="#FFFFFF"></path>
        </g>
    </g>
</svg>