<?xml version="1.0" encoding="UTF-8" standalone="no"?>
<svg width="36px" height="36px" viewBox="0 0 36 36" version="1.1" xmlns="http://www.w3.org/2000/svg" xmlns:xlink="http://www.w3.org/1999/xlink">
    <!-- Generator: Sketch 39.1 (31720) - http://www.bohemiancoding.com/sketch -->
    <title>not-uploaded-75</title>
    <desc>Created with Sketch.</desc>
    <defs></defs>
    <g id="Page-1" stroke="none" stroke-width="1" fill="none" fill-rule="evenodd">
        <g id="not-uploaded" transform="translate(-185.000000, 0.000000)">
            <path d="M185.613335,22.6587428 C188.186288,32.2611327 198.056353,37.9596175 207.658743,35.3866649 C217.261133,32.8137123 222.959617,22.943647 220.386665,13.3412572 C217.813712,3.73886733 207.943647,-1.95961748 198.341257,0.613335127 C188.738867,3.18628774 183.040383,13.056353 185.613335,22.6587428 L185.613335,22.6587428 Z" id="ghost" fill-opacity="0" fill="#FCC24C"></path>
            <path d="M220.276751,23.0571263 C221.177158,19.992811 221.273312,16.6502686 220.386206,13.3395459 C219.49909,10.0287845 217.744517,7.18210682 215.432544,4.97852474 L202.59382,18.1068717 L220.276751,23.0571263 L220.276751,23.0571263 L220.276751,23.0571263 Z" id="ca" fill="#187A45"></path>
            <path d="M197.204445,19.5529143 C198.062096,22.7537109 201.352118,24.6532058 204.552914,23.795555 C207.753711,22.9379041 209.653206,19.6478823 208.795555,16.4470857 C207.937904,13.2462891 204.647882,11.3467942 201.447086,12.204445 C198.246289,13.0620959 196.346794,16.3521177 197.204445,19.5529143 L197.204445,19.5529143 Z" id="green" fill="#36AF6D"></path>
            <path d="M200.102223,18.7764571 C200.531048,20.3768554 202.176059,21.3266029 203.776457,20.8977775 C205.376855,20.468952 206.326603,18.8239412 205.897777,17.2235429 C205.468952,15.6231446 203.823941,14.6733971 202.223543,15.1022225 C200.623145,15.531048 199.673397,17.1760588 200.102223,18.7764571 L200.102223,18.7764571 Z" id="white-hollow" fill="#FFFFFF"></path>
        </g>
    </g>
</svg>