<?xml version="1.0" encoding="UTF-8" standalone="no"?>
<svg width="36px" height="36px" viewBox="0 0 36 36" version="1.1" xmlns="http://www.w3.org/2000/svg" xmlns:xlink="http://www.w3.org/1999/xlink">
    <!-- Generator: Sketch 39.1 (31720) - http://www.bohemiancoding.com/sketch -->
    <title>other-ca-225</title>
    <desc>Created with Sketch.</desc>
    <defs></defs>
    <g id="Page-1" stroke="none" stroke-width="1" fill="none" fill-rule="evenodd">
        <g id="other-ca" transform="translate(-555.000000, 0.000000)">
            <path d="M585.727922,5.27207794 C578.698485,-1.75735931 567.301515,-1.75735931 560.272078,5.27207794 C553.242641,12.3015152 553.242641,23.6984848 560.272078,30.7279221 C567.301515,37.7573593 578.698485,37.7573593 585.727922,30.7279221 C592.757359,23.6984848 592.757359,12.3015152 585.727922,5.27207794 L585.727922,5.27207794 Z" id="ghost" fill-opacity="0" fill="#FCC24C"></path>
            <path d="M555.509331,22.2587758 C556.261714,25.3627542 557.849713,28.3055576 560.273331,30.7291748 C562.696976,33.1528204 565.63982,34.7408289 568.743838,35.4932005 L573.298326,17.7043565 L555.509331,22.2587758 L555.509331,22.2587758 L555.509331,22.2587758 Z" id="ca" fill="#187A45"></path>
            <path d="M578.656854,12.3431458 C575.53266,9.21895142 570.46734,9.21895142 567.343146,12.3431458 C564.218951,15.4673401 564.218951,20.5326599 567.343146,23.6568542 C570.46734,26.7810486 575.53266,26.7810486 578.656854,23.6568542 C581.781049,20.5326599 581.781049,15.4673401 578.656854,12.3431458 L578.656854,12.3431458 Z" id="white-base" fill="#FFFFFF"></path>
            <path d="M577.242641,13.7573593 C574.899495,11.4142136 571.100505,11.4142136 568.757359,13.7573593 C566.414214,16.1005051 566.414214,19.8994949 568.757359,22.2426407 C571.100505,24.5857864 574.899495,24.5857864 577.242641,22.2426407 C579.585786,19.8994949 579.585786,16.1005051 577.242641,13.7573593 L577.242641,13.7573593 Z" id="green" fill="#36AF6D"></path>
        </g>
    </g>
</svg>