<?xml version="1.0" encoding="utf-8"?>
<!-- Generator: Adobe Illustrator 23.0.1, SVG Export Plug-In . SVG Version: 6.00 Build 0)  -->
<svg version="1.1" baseProfile="tiny" id="icons" xmlns="http://www.w3.org/2000/svg" xmlns:xlink="http://www.w3.org/1999/xlink"
	 x="0px" y="0px" viewBox="0 0 24 24" xml:space="preserve">
<path d="M11.064,6.285c-0.33,0-0.668,0.036-1.004,0.108C9.967,6.412,9.634,6.467,9.211,6.537C8.412,6.67,7.318,6.851,6.796,6.963
	C5.428,7.265,4.655,8.17,4.666,9.445l0,2.337c-0.025,0.857,0.586,1.489,1.519,1.545c0.046,0.003,0.091,0.004,0.135,0.004
	c0.345,0,0.652-0.087,0.902-0.245c-0.105,0.344-0.187,0.694-0.247,1.048l-0.327,1.944c-0.129,0.15-0.345,0.402-0.589,0.687
	c-0.558,0.652-1.266,1.479-1.355,1.578c-0.296,0.327-0.452,0.726-0.451,1.154c-0.008,0.614,0.248,1.01,0.464,1.231
	c0.334,0.342,0.8,0.518,1.386,0.524l0.066,0.001c0.497,0,0.952-0.169,1.316-0.489c0.089-0.081,0.412-0.403,0.794-0.783
	c0.497-0.495,1.177-1.172,1.366-1.346c0.426-0.394,0.776-0.843,1.04-1.335l0.464-0.862l1.348,0.922l0.41,2.738
	c0.178,0.959,0.888,1.534,1.86,1.534c0.069,0,0.142-0.003,0.216-0.009c1.104-0.085,1.801-0.807,1.777-1.84
	c0-0.017-0.001-0.034-0.002-0.051l-0.25-3.364c-0.044-0.794-0.415-1.516-1.071-2.07l-1.932-1.622l0.161-0.319
	c0.523,0.393,1.173,0.603,1.902,0.605h2.469c0.912-0.019,1.542-0.572,1.628-1.409c0.087-0.853-0.452-1.53-1.343-1.686l-2.249-0.36
	c-0.217-0.356-0.569-0.933-0.729-1.184c-0.337-0.529-0.818-0.935-1.429-1.205l-1.003-0.441C12.32,6.418,11.697,6.285,11.064,6.285
	L11.064,6.285z"/>
<path d="M8.136,10.456c0.104-0.005,0.217-0.011,0.334-0.017l-0.462,0.842L8.136,10.456L8.136,10.456z"/>
<path d="M13.643,2.376C13.642,2.376,13.642,2.376,13.643,2.376c-0.745,0-1.417,0.278-1.943,0.804
	c-0.527,0.526-0.806,1.198-0.806,1.942c-0.001,0.745,0.277,1.417,0.803,1.944c0.526,0.527,1.198,0.806,1.942,0.807
	c0.747,0,1.419-0.278,1.945-0.804c0.527-0.527,0.806-1.199,0.807-1.944c0-0.745-0.278-1.417-0.805-1.944
	C15.059,2.655,14.387,2.376,13.643,2.376L13.643,2.376z"/>
<path fill-rule="evenodd" fill="#FFC01B" d="M18.036,11.964h-2.466c-0.659-0.002-1.191-0.226-1.595-0.674
	c-0.175-0.185-0.335-0.379-0.479-0.583c-0.017-0.019-0.039-0.027-0.066-0.024c-0.027,0.003-0.046,0.016-0.057,0.038l-1.097,2.171
	c-0.014,0.027-0.008,0.052,0.016,0.072l2.5,2.099c0.449,0.379,0.689,0.839,0.719,1.38l0.25,3.364
	c0.012,0.502-0.273,0.775-0.854,0.82c-0.581,0.045-0.918-0.181-1.01-0.676l-0.459-3.065c-0.01-0.069-0.047-0.125-0.11-0.169
	l-2.459-1.682c-0.018-0.013-0.039-0.016-0.062-0.012s-0.039,0.016-0.049,0.035l-0.953,1.769c-0.213,0.396-0.493,0.754-0.838,1.074
	c-0.343,0.316-1.976,1.96-2.141,2.113c-0.195,0.172-0.433,0.251-0.712,0.239c-0.58-0.006-0.866-0.258-0.86-0.756
	c0-0.179,0.064-0.339,0.192-0.481c0.124-0.136,2.02-2.356,2.068-2.409c0.049-0.054,0.08-0.116,0.091-0.184l0.357-2.122
	c0.139-0.824,0.414-1.613,0.828-2.366l1.366-2.489c0.013-0.022,0.011-0.044-0.006-0.064c-0.016-0.02-0.039-0.03-0.068-0.027
	c-0.057,0.005-2.544,0.13-2.643,0.139C7.326,9.504,7.262,9.559,7.248,9.656c0,0-0.299,1.929-0.341,2.201
	c-0.045,0.339-0.266,0.496-0.661,0.473c-0.396-0.024-0.589-0.206-0.579-0.547V9.437C5.659,8.638,6.105,8.14,7.004,7.941
	c0.785-0.167,3.011-0.516,3.264-0.57c0.779-0.166,1.526-0.092,2.241,0.224l1.001,0.44c0.429,0.189,0.759,0.466,0.99,0.829
	c0.229,0.357,0.852,1.389,0.895,1.455c0.044,0.07,0.112,0.112,0.202,0.127l2.552,0.408c0.381,0.066,0.554,0.266,0.52,0.599
	C18.635,11.785,18.424,11.956,18.036,11.964L18.036,11.964z"/>
<path fill-rule="evenodd" fill="#FFC01B" d="M13.639,6.873c-0.483-0.001-0.895-0.172-1.236-0.513
	c-0.341-0.342-0.511-0.754-0.511-1.237s0.171-0.895,0.513-1.236c0.342-0.341,0.754-0.512,1.236-0.511
	c0.483,0,0.895,0.171,1.236,0.512c0.341,0.341,0.512,0.753,0.512,1.236c0,0.483-0.171,0.895-0.513,1.237
	C14.535,6.703,14.123,6.874,13.639,6.873L13.639,6.873z"/>
</svg>
