<svg width="24" height="24" viewBox="0 0 24 24" fill="none" xmlns="http://www.w3.org/2000/svg">
<mask id="path-1-inside-1" fill="white">
<path d="M8.09705 6.81571C8.18574 6.34274 8.59871 6 9.07993 6H14.9201C15.4013 6 15.8143 6.34274 15.9029 6.81571L17.7779 16.8157C17.8933 17.4311 17.4212 18 16.7951 18H7.20493C6.57879 18 6.10666 17.4311 6.22205 16.8157L8.09705 6.81571Z"/>
</mask>
<path d="M8.09705 6.81571C8.18574 6.34274 8.59871 6 9.07993 6H14.9201C15.4013 6 15.8143 6.34274 15.9029 6.81571L17.7779 16.8157C17.8933 17.4311 17.4212 18 16.7951 18H7.20493C6.57879 18 6.10666 17.4311 6.22205 16.8157L8.09705 6.81571Z" fill="#FFC01B" stroke="black" stroke-width="2" mask="url(#path-1-inside-1)"/>
<path d="M13 18L11 18L11.5 6L12.5 6L13 18Z" fill="#212B36"/>
<rect x="11" y="11" width="2" height="1" fill="#FFC01B"/>
<rect x="11" y="13" width="2" height="1" fill="#FFC01B"/>
<rect x="11" y="9" width="2" height="1" fill="#FFC01B"/>
<rect x="11" y="15" width="2" height="1" fill="#FFC01B"/>
<rect x="11" y="7" width="2" height="1" fill="#FFC01B"/>
</svg>
