<?xml version="1.0" encoding="utf-8"?>
<!-- Generator: Adobe Illustrator 23.0.1, SVG Export Plug-In . SVG Version: 6.00 Build 0)  -->
<svg version="1.1" baseProfile="tiny" id="icons" xmlns="http://www.w3.org/2000/svg" xmlns:xlink="http://www.w3.org/1999/xlink"
	 x="0px" y="0px" viewBox="0 0 24 24" xml:space="preserve">
<path d="M12.338,2.385c-0.254,0-0.505,0.096-0.698,0.283c-0.34,0.331-0.4,0.854-0.146,1.254l0.025,0.039l0.065,0.103
	c0.247,0.373,0.478,0.744,0.721,1.137l0.283,0.45c-3.209,0.98-5.64,2.754-7.426,5.418c-1.307,1.948-2.024,4.162-2.13,6.579
	c-0.038,0.841-0.033,1.687-0.029,2.434l0.002,0.521c0.001,0.544,0.437,0.988,0.981,0.998c0.628,0.012,1.259,0.012,1.902,0.012
	l0.638,0c0.001,0,0.001,0,0.002,0c0.549,0,0.999-0.443,1.003-0.992c0.004-0.46,0.005-0.902-0.006-1.341
	c-0.034-1.433,0.03-3.107,0.761-4.655c1.061-2.24,2.821-3.788,5.231-4.6c0.038-0.013,0.104-0.025,0.176-0.037l-0.003,0.537
	c-0.011,0.522-0.022,1.032,0.032,1.544c0.042,0.392,0.31,0.724,0.685,0.846c0.102,0.033,0.206,0.049,0.309,0.049
	c0.278,0,0.55-0.116,0.743-0.33c1.644-1.821,3.291-3.692,4.744-5.342l0.546-0.619c0.221-0.251,0.302-0.595,0.216-0.919
	c-0.086-0.323-0.328-0.582-0.644-0.69l-7.481-2.545C12.685,2.43,12.511,2.385,12.338,2.385L12.338,2.385z"/>
<path fill="#FFC01B" d="M5.993,11.627c1.68-2.504,3.979-4.16,7.03-5.062l1.114-0.329l-0.981-1.561
	c-0.249-0.401-0.485-0.78-0.732-1.154c-0.033-0.051-0.061-0.097-0.086-0.135c0.06,0.04,0.135,0.067,0.175,0.08L20,6.013
	l-0.546,0.619c-1.587,1.802-3.151,3.576-4.736,5.333c-0.049-0.464-0.037-0.944-0.026-1.434L14.7,8.799l-1.056,0.187
	c-0.193,0.027-0.324,0.05-0.445,0.092c-2.678,0.902-4.634,2.625-5.816,5.121c-0.82,1.736-0.893,3.556-0.856,5.107
	c0.011,0.429,0.009,0.86,0.005,1.309H6.528c-0.86-0.002-1.695,0.003-2.524-0.012c-0.002-0.882-0.019-1.898,0.026-2.91
	C4.129,15.461,4.789,13.42,5.993,11.627z"/>
</svg>
