<?xml version="1.0" encoding="utf-8"?>
<!-- Generator: Adobe Illustrator 23.0.1, SVG Export Plug-In . SVG Version: 6.00 Build 0)  -->
<svg version="1.1" baseProfile="tiny" id="icons" xmlns="http://www.w3.org/2000/svg" xmlns:xlink="http://www.w3.org/1999/xlink"
	 x="0px" y="0px" viewBox="0 0 24 24" xml:space="preserve">
<path d="M12.005,2.272c-0.361,0-0.694,0.195-0.871,0.509l-3.596,6.38c-0.205,0.364-0.162,0.817,0.107,1.136
	c0.194,0.23,0.475,0.355,0.765,0.355c0.113,0,0.227-0.019,0.337-0.059c0.246-0.088,0.496-0.185,0.75-0.284l0.232-0.09v10.509
	c0,0.552,0.448,1,1,1h2.553c0.552,0,1-0.448,1-1v-10.53l0.262,0.103c0.232,0.093,0.469,0.187,0.702,0.273
	c0.113,0.042,0.23,0.062,0.346,0.062c0.287,0,0.568-0.124,0.762-0.352c0.272-0.319,0.316-0.774,0.11-1.139l-3.587-6.363
	C12.699,2.466,12.366,2.272,12.005,2.272L12.005,2.272z"/>
<path fill="#FFC01B" d="M13.281,20.728V9.928c0-0.269,0.129-0.521,0.345-0.675c0.216-0.154,0.496-0.189,0.737-0.096l0.544,0.213
	c0.231,0.092,0.46,0.183,0.684,0.266l-3.587-6.363l-3.596,6.38c0.247-0.088,0.498-0.186,0.754-0.286l0.485-0.188
	c0.247-0.094,0.521-0.057,0.737,0.097c0.215,0.153,0.343,0.406,0.343,0.675v10.778H13.281z"/>
</svg>
