<?xml version="1.0" encoding="utf-8"?>
<!-- Generator: Adobe Illustrator 23.0.1, SVG Export Plug-In . SVG Version: 6.00 Build 0)  -->
<svg version="1.1" baseProfile="tiny" id="icons" xmlns="http://www.w3.org/2000/svg" xmlns:xlink="http://www.w3.org/1999/xlink"
	 x="0px" y="0px" viewBox="0 0 24 24" xml:space="preserve">
<path d="M20.921,6.103h-0.005H10.691c-0.345,0-0.665,0.177-0.848,0.47C9.661,6.865,9.641,7.231,9.792,7.541l5.112,10.515
	c0.167,0.344,0.517,0.563,0.899,0.563c0.383,0,0.732-0.219,0.899-0.563l5.086-10.461c0.082-0.145,0.129-0.313,0.129-0.491
	C21.918,6.551,21.473,6.103,20.921,6.103L20.921,6.103z"/>
<polygon fill="#FFC01B" points="20.917,7.103 10.693,7.103 15.805,17.619 "/>
<path d="M13.145,6.103H13.14H2.916c-0.345,0-0.665,0.177-0.848,0.47C1.885,6.865,1.866,7.231,2.017,7.541l5.112,10.515
	c0.167,0.344,0.517,0.563,0.899,0.563c0.383,0,0.732-0.219,0.899-0.563l5.086-10.461c0.082-0.145,0.129-0.313,0.129-0.491
	C14.143,6.551,13.698,6.103,13.145,6.103L13.145,6.103z"/>
<polygon fill="#FFC01B" points="13.142,7.103 2.917,7.103 8.029,17.619 "/>
</svg>
