<?xml version="1.0" encoding="utf-8"?>
<!-- Generator: Adobe Illustrator 23.0.1, SVG Export Plug-In . SVG Version: 6.00 Build 0)  -->
<svg version="1.1" baseProfile="tiny" id="icons" xmlns="http://www.w3.org/2000/svg" xmlns:xlink="http://www.w3.org/1999/xlink"
	 x="0px" y="0px" viewBox="0 0 24 24" xml:space="preserve">
<path d="M17.194,2c-0.358,0-0.689,0.192-0.867,0.502L12.74,8.755c-0.208,0.362-0.169,0.816,0.099,1.137
	c0.194,0.233,0.477,0.36,0.769,0.36c0.111,0,0.223-0.018,0.332-0.057c0.255-0.09,0.514-0.189,0.778-0.29l0.204-0.077v6.428
	c-1.309-1.034-2.809-1.767-4.433-2.158l0.253-1.183c0.075-0.349-0.043-0.712-0.308-0.952c-0.186-0.168-0.426-0.257-0.67-0.257
	c-0.103,0-0.207,0.016-0.308,0.049L2.92,13.875c-0.339,0.11-0.594,0.392-0.669,0.74c-0.075,0.348,0.041,0.71,0.304,0.95l5.089,4.637
	c0.187,0.17,0.428,0.261,0.674,0.261c0.102,0,0.205-0.016,0.305-0.048c0.341-0.109,0.597-0.393,0.672-0.743l0.21-0.98
	c1.616,0.42,3.039,1.433,4.029,2.874C13.721,21.838,14.029,22,14.359,22h4.109c0.552,0,1-0.448,1-1V9.808l0.263,0.101
	c0.231,0.091,0.468,0.183,0.7,0.267c0.111,0.04,0.227,0.06,0.341,0.06c0.29,0,0.572-0.126,0.766-0.357
	c0.27-0.321,0.311-0.777,0.102-1.141l-3.577-6.236C17.883,2.192,17.553,2,17.194,2L17.194,2z"/>
<path fill="#FFC01B" d="M17.194,3l-3.586,6.253c0.246-0.087,0.497-0.183,0.751-0.28l0.484-0.184
	c0.246-0.092,0.519-0.056,0.735,0.095c0.214,0.15,0.343,0.398,0.343,0.661v9.071c-1.494-1.776-3.537-3.087-5.908-3.6
	c-0.189-0.041-0.354-0.156-0.458-0.319c-0.105-0.163-0.141-0.362-0.1-0.552l0.307-1.438l-6.534,2.119l5.089,4.637l0.268-1.25
	c0.085-0.395,0.472-0.639,0.864-0.562c2.054,0.445,3.771,1.691,4.91,3.349h4.109V9.523c0-0.264,0.128-0.511,0.344-0.662
	c0.216-0.151,0.494-0.185,0.735-0.094l0.543,0.209c0.23,0.09,0.458,0.179,0.682,0.261L17.194,3z"/>
</svg>
