<?xml version="1.0" encoding="utf-8"?>
<!-- Generator: Adobe Illustrator 23.0.1, SVG Export Plug-In . SVG Version: 6.00 Build 0)  -->
<svg version="1.1" baseProfile="tiny" id="icons" xmlns="http://www.w3.org/2000/svg" xmlns:xlink="http://www.w3.org/1999/xlink"
	 x="0px" y="0px" viewBox="0 0 24 24" xml:space="preserve">
<path d="M20.073,10.732l-0.033-0.044l-0.038-0.04c-0.458-0.484-1.052-0.739-1.717-0.739c-0.048,0-0.097,0.001-0.146,0.004
	c-1.046,0.016-1.986,0.764-2.824,1.772V5.237c0.013-0.704-0.349-1.323-0.993-1.68c-0.312-0.173-0.639-0.261-0.972-0.261
	c-0.286,0-0.568,0.065-0.84,0.193c-0.149-0.427-0.456-0.788-0.891-1.029c-0.311-0.172-0.638-0.26-0.971-0.26
	c-0.333,0-0.659,0.087-0.971,0.26C9.244,2.7,8.939,3.059,8.789,3.488C8.517,3.359,8.234,3.294,7.947,3.294
	c-0.334,0-0.661,0.088-0.974,0.261C6.329,3.914,5.968,4.534,5.982,5.257v0.708c-0.178-0.058-0.36-0.088-0.544-0.088
	c-0.298,0-0.589,0.077-0.866,0.229C3.996,6.421,3.666,6.972,3.666,7.617v8.057c0,1.694,0.637,3.158,1.894,4.35
	c1.242,1.178,2.759,1.776,4.509,1.776c3.727,0,6.319-1.845,7.493-5.336c0.574-1.705,1.82-3.323,2.352-4.014l0.162-0.212
	C20.421,11.784,20.421,11.191,20.073,10.732z"/>
<path fill-rule="evenodd" fill="#FFC01B" d="M18.173,10.913c0.44-0.029,0.808,0.112,1.103,0.423c0.076,0.101,0.076,0.202,0,0.302
	c-0.391,0.522-1.963,2.432-2.662,4.507c-1.139,3.385-3.536,4.655-6.545,4.655c-1.492,0-2.765-0.501-3.82-1.501
	s-1.582-2.209-1.582-3.625l0-8.057c0-0.282,0.129-0.493,0.386-0.634c0.257-0.141,0.515-0.141,0.772,0
	C6.082,7.124,6.21,7.335,6.21,7.617v4.395c0,0.244,0.129,0.366,0.386,0.366s0.386-0.122,0.386-0.366V5.237
	C6.975,4.879,7.134,4.61,7.459,4.43c0.325-0.181,0.65-0.181,0.975,0s0.484,0.45,0.477,0.807v6.409c0,0.244,0.129,0.366,0.386,0.366
	c0.107,0,0.198-0.036,0.273-0.107c0.075-0.071,0.113-0.158,0.113-0.259V4.138c-0.005-0.356,0.154-0.624,0.478-0.804
	c0.324-0.18,0.649-0.18,0.973,0c0.324,0.18,0.484,0.447,0.478,0.804l0,7.507c0,0.101,0.038,0.187,0.113,0.259
	c0.075,0.071,0.166,0.107,0.273,0.107c0.257,0,0.386-0.122,0.386-0.366V5.237c-0.006-0.357,0.153-0.625,0.478-0.806
	c0.325-0.18,0.649-0.18,0.974,0c0.325,0.18,0.484,0.449,0.478,0.806v8.808c-0.001,0.123,0.061,0.201,0.186,0.234
	c0.125,0.033,0.22-0.003,0.287-0.109C15.706,12.702,16.978,10.913,18.173,10.913z"/>
</svg>
