<?xml version="1.0" encoding="utf-8"?>
<!-- Generator: Adobe Illustrator 23.0.1, SVG Export Plug-In . SVG Version: 6.00 Build 0)  -->
<svg version="1.1" baseProfile="tiny" id="icons" xmlns="http://www.w3.org/2000/svg" xmlns:xlink="http://www.w3.org/1999/xlink"
	 x="0px" y="0px" viewBox="0 0 24 24" xml:space="preserve">
<path d="M17.714,7.57H6.286C5.025,7.57,4,8.574,4,9.808v8.954C4,19.996,5.025,21,6.286,21h11.429C18.975,21,20,19.996,20,18.762
	V9.808C20,8.574,18.975,7.57,17.714,7.57L17.714,7.57z"/>
<path fill="#F35700" d="M5.143,9.808c0-0.618,0.512-1.119,1.143-1.119h11.429c0.631,0,1.143,0.501,1.143,1.119v8.954
	c0,0.618-0.512,1.119-1.143,1.119H6.286c-0.631,0-1.143-0.501-1.143-1.119V9.808z"/>
<path d="M12,3c-0.971,0-1.814,0.577-2.147,1.471l-3.387,9.09c-0.218,0.586-0.07,1.25,0.378,1.693
	C8.217,16.612,10.048,17.36,12,17.36s3.783-0.748,5.156-2.106c0.448-0.443,0.597-1.108,0.378-1.693l-3.387-9.09
	C13.814,3.577,12.971,3,12,3L12,3z"/>
<path fill="#F35700" d="M10.926,4.855c0.365-0.981,1.782-0.981,2.147,0l3.387,9.09c0.068,0.181,0.022,0.385-0.117,0.522
	c-2.392,2.365-6.296,2.365-8.688,0c-0.139-0.137-0.184-0.341-0.117-0.522L10.926,4.855z"/>
</svg>
