<?xml version="1.0" encoding="utf-8"?>
<!-- Generator: Adobe Illustrator 23.0.1, SVG Export Plug-In . SVG Version: 6.00 Build 0)  -->
<svg version="1.1" baseProfile="tiny" id="icons" xmlns="http://www.w3.org/2000/svg" xmlns:xlink="http://www.w3.org/1999/xlink"
	 x="0px" y="0px" viewBox="0 0 24 24" xml:space="preserve">
<path d="M21.194,10.171c-0.362-1.824-1.249-3.484-2.565-4.801c-1.315-1.314-2.976-2.202-4.8-2.565
	c-1.803-0.359-3.705-0.175-5.417,0.533C6.693,4.05,5.238,5.244,4.205,6.792C3.171,8.338,2.625,10.139,2.625,12
	c0,2.505,0.975,4.859,2.745,6.629C7.142,20.4,9.496,21.375,12,21.375c1.86,0,3.661-0.546,5.209-1.58
	c1.546-1.035,2.74-2.489,3.452-4.207C21.373,13.869,21.558,11.996,21.194,10.171z"/>
<path fill-rule="evenodd" fill="#D8E0E4" d="M11.999,20c1.582,0,3.129-0.469,4.445-1.348s2.341-2.128,2.946-3.59
	c0.606-1.462,0.764-3.07,0.455-4.622c-0.309-1.552-1.071-2.977-2.189-4.096c-1.119-1.119-2.544-1.881-4.096-2.189
	c-1.552-0.309-3.16-0.15-4.622,0.455S6.227,6.24,5.348,7.555C4.469,8.871,3.999,10.418,3.999,12c0,2.122,0.843,4.157,2.343,5.657
	S9.878,20,11.999,20z"/>
<path fill-rule="evenodd" d="M11.765,5.715c-0.038-0.023-0.067-0.058-0.084-0.099c-0.017-0.041-0.019-0.087-0.008-0.129
	c0.011-0.043,0.037-0.081,0.071-0.108c0.035-0.027,0.078-0.043,0.122-0.044c0.044-0.001,0.088-0.002,0.133-0.002
	c1.768,0,3.464,0.702,4.714,1.953c1.25,1.25,1.953,2.946,1.953,4.714s-0.702,3.464-1.953,4.714c-1.25,1.25-2.946,1.953-4.714,1.953
	c-0.044,0-0.089-0.001-0.133-0.002c-0.044-0.001-0.087-0.016-0.122-0.044c-0.035-0.027-0.06-0.066-0.072-0.108
	c-0.011-0.043-0.009-0.089,0.008-0.13s0.046-0.076,0.084-0.099c1.088-0.649,1.988-1.57,2.614-2.671s0.954-2.347,0.954-3.613
	c0-1.267-0.329-2.512-0.954-3.613S12.853,6.365,11.765,5.715z"/>
</svg>
