<?xml version="1.0" encoding="utf-8"?>
<!-- Generator: Adobe Illustrator 23.0.1, SVG Export Plug-In . SVG Version: 6.00 Build 0)  -->
<svg version="1.1" baseProfile="tiny" id="icons" xmlns="http://www.w3.org/2000/svg" xmlns:xlink="http://www.w3.org/1999/xlink"
	 x="0px" y="0px" viewBox="0 0 24 24" xml:space="preserve">
<path d="M20.509,9.702c-0.232-0.297-0.573-0.437-0.951-0.377l-3.426,0.536c-0.081,0.013-0.157,0.033-0.231,0.058l0.399-1.163
	c0.145-0.421,0.142-0.799-0.006-1.124c-0.106-0.232-0.341-0.545-0.863-0.724L7.175,4.077C6.807,3.95,6.424,3.981,6.071,4.165
	c-0.342,0.179-0.59,0.469-0.715,0.838l-1.902,5.543c-0.291,0.855,0.043,1.563,0.871,1.847l4.003,1.372l-0.613,1.787l-2.377-0.815
	c-0.132-0.045-0.27-0.068-0.407-0.068c-0.19,0-0.379,0.043-0.552,0.128c-0.299,0.146-0.528,0.406-0.636,0.721l-0.407,1.189
	c-0.225,0.656,0.125,1.371,0.781,1.596l4.754,1.63C9.005,19.978,9.142,20,9.278,20c0.522,0,1.01-0.328,1.188-0.849l0.407-1.188
	l1.02-2.975l0.688,0.236c0.832,0.288,1.528-0.07,1.821-0.925l0.13-0.377c0.042,0.065,0.091,0.128,0.147,0.188l2.374,2.525h0.001
	c0.196,0.209,0.45,0.319,0.72,0.319c0.086,0,0.173-0.011,0.26-0.034c0.355-0.088,0.616-0.331,0.735-0.681l1.903-5.547
	C20.792,10.342,20.734,9.991,20.509,9.702z"/>
<polygon fill-rule="evenodd" fill="#D8E0E4" points="10.126,12.393 8.496,17.147 4.931,15.925 4.524,17.113 9.277,18.743 
	9.685,17.555 11.315,12.801 "/>
<path fill-rule="evenodd" fill="#D8E0E4" d="M15.15,8.148c0.002,0-0.033-0.021-0.125-0.053L6.768,5.265
	C6.603,5.304,6.57,5.334,6.545,5.409l-1.902,5.543c-0.04,0.119-0.039,0.184-0.036,0.2c0-0.001,0-0.001,0.001-0.001
	c0.006,0,0.045,0.026,0.123,0.052l8.257,2.833c0.079,0.026,0.135,0.031,0.144,0.028c-0.001-0.004,0.039-0.048,0.082-0.174
	l1.899-5.542C15.154,8.227,15.154,8.163,15.15,8.148z"/>
<polygon fill-rule="evenodd" fill="#D8E0E4" points="16.329,11.103 15.602,13.244 17.7,15.485 19.366,10.627 "/>
</svg>
