<?xml version="1.0" encoding="utf-8"?>
<!-- Generated by IcoMoon.io -->
<!DOCTYPE svg PUBLIC "-//W3C//DTD SVG 1.1//EN" "http://www.w3.org/Graphics/SVG/1.1/DTD/svg11.dtd">
<svg version="1.1" xmlns="http://www.w3.org/2000/svg" xmlns:xlink="http://www.w3.org/1999/xlink" width="24" height="24" viewBox="0 0 24 24">
<path fill="#c50000" d="M12.544 0.023c-6.635-0.301-12.219 4.798-12.521 11.433s4.798 12.219 11.433 12.521c6.635 0.301 12.219-4.798 12.521-11.433s-4.798-12.219-11.433-12.521z"></path>
<path fill="#fff" d="M12.44 2.305v0c-5.355-0.243-9.893 3.9-10.136 9.255v0c-0.243 5.355 3.901 9.893 9.255 10.136v0c5.355 0.243 9.893-3.9 10.136-9.255v0c0.243-5.355-3.9-9.893-9.255-10.136z"></path>
<path fill="#000" d="M14.143 20.249c-0.003-0.455-0.079-12.616-0.079-12.616-0.005 0-0.083 0.024-0.601 0.187-0.281 0.089-0.525 0.165-0.54 0.168-0.021 0.005-0.040 0.007-0.083 0.006-0.066-0.002-0.099-0.009-0.153-0.034-0.105-0.050-0.176-0.143-0.201-0.264-0.006-0.030-0.006-0.047-0.004-0.099 0.002-0.070 0.006-0.104 0.027-0.148 0.008-0.017 2.203-3.284 2.47-3.677 0.007-0.011 0.014-0.020 0.014-0.020 0.001-0.001 0.276 0.394 1.739 2.511 0.429 0.621 0.785 1.141 0.791 1.155 0.022 0.044 0.029 0.078 0.031 0.148 0.002 0.053 0.003 0.069-0.003 0.099-0.029 0.145-0.129 0.253-0.267 0.292-0.041 0.012-0.128 0.014-0.168 0.006-0.015-0.003-0.26-0.076-0.543-0.161-0.521-0.158-0.599-0.18-0.604-0.18-0 0 0.075 12.161 0.078 12.616l-1.902 0.012z"></path>
<path fill="#000" d="M9.857 3.751c0.003 0.455 0.079 12.616 0.079 12.616 0.005 0 0.084-0.024 0.601-0.187 0.281-0.089 0.525-0.165 0.54-0.168 0.021-0.005 0.040-0.007 0.083-0.006 0.066 0.002 0.099 0.009 0.153 0.034 0.105 0.050 0.176 0.143 0.201 0.264 0.006 0.030 0.006 0.047 0.004 0.099-0.002 0.070-0.006 0.104-0.027 0.148-0.008 0.017-2.203 3.284-2.47 3.677-0.007 0.011-0.014 0.020-0.014 0.020-0.001 0.001-0.276-0.394-1.739-2.511-0.429-0.621-0.785-1.141-0.791-1.155-0.022-0.044-0.029-0.078-0.031-0.148-0.002-0.053-0.003-0.069 0.003-0.099 0.029-0.144 0.129-0.253 0.267-0.292 0.041-0.012 0.129-0.014 0.168-0.006 0.015 0.003 0.26 0.076 0.543 0.161 0.521 0.158 0.599 0.18 0.604 0.18 0 0-0.075-12.161-0.078-12.616l1.902-0.012z"></path>
</svg>
