<?xml version="1.0" encoding="utf-8"?>
<!-- Generated by IcoMoon.io -->
<!DOCTYPE svg PUBLIC "-//W3C//DTD SVG 1.1//EN" "http://www.w3.org/Graphics/SVG/1.1/DTD/svg11.dtd">
<svg version="1.1" xmlns="http://www.w3.org/2000/svg" xmlns:xlink="http://www.w3.org/1999/xlink" width="24" height="24" viewBox="0 0 24 24">
<path fill="#c50000" d="M12.544 0.023c-6.635-0.301-12.219 4.798-12.521 11.433s4.798 12.219 11.433 12.521c6.635 0.301 12.219-4.798 12.521-11.433s-4.798-12.219-11.433-12.521z"></path>
<path fill="#fff" d="M12.44 2.305v0c-5.355-0.243-9.893 3.9-10.136 9.255v0c-0.243 5.355 3.901 9.893 9.255 10.136v0c5.355 0.243 9.893-3.9 10.136-9.255v0c0.243-5.355-3.9-9.893-9.255-10.136z"></path>
<path fill="#000" d="M16.907 11.409l-0.39 1.003c-0.089 0.216 0.013 0.464 0.229 0.553 0.136 0.056 0.284 0.037 0.397-0.039l3.999-2.575-3.999-2.575c-0.114-0.076-0.261-0.095-0.397-0.039-0.216 0.090-0.318 0.337-0.229 0.553l0.388 1.003c-1.818 0-5.352-0.010-6.565-0.010-2.426 0-3.296 0-3.296 3.129v7.125h2.116v-6.6c-0.003-1.164 0.343-1.576 1.454-1.576 1.309 0 4.397 0.048 6.292 0.048z"></path>
<path fill="none" stroke="#c50000" stroke-width="2.512" stroke-miterlimit="10" stroke-linecap="butt" stroke-linejoin="miter" d="M4.213 4.464l15.072 15.072"></path>
</svg>
