<?xml version="1.0" encoding="utf-8"?>
<!-- Generated by IcoMoon.io -->
<!DOCTYPE svg PUBLIC "-//W3C//DTD SVG 1.1//EN" "http://www.w3.org/Graphics/SVG/1.1/DTD/svg11.dtd">
<svg version="1.1" xmlns="http://www.w3.org/2000/svg" xmlns:xlink="http://www.w3.org/1999/xlink" width="24" height="24" viewBox="0 0 24 24">
<path fill="#c50000" d="M12.544 0.023c-6.635-0.301-12.219 4.798-12.521 11.433s4.798 12.219 11.433 12.521c6.635 0.301 12.219-4.798 12.521-11.433s-4.798-12.219-11.433-12.521z"></path>
<path fill="#fff" d="M12.44 2.305v0c-5.355-0.243-9.893 3.9-10.136 9.255v0c-0.243 5.355 3.9 9.893 9.255 10.136v0c5.355 0.243 9.893-3.9 10.136-9.255v0c0.243-5.355-3.9-9.893-9.255-10.136z"></path>
<path fill="#000" d="M10.088 9.119c0.235 0.89 0.471 1.781 0.706 2.672-0.829 2.265-1.661 4.53-2.491 6.796-0.373 1.285 0.903 1.696 1.501 0.64 0.716-1.74 1.454-3.534 2.171-5.272 0.103-0.304 0.229-0.261 0.286-0.010 0.399 1.705 0.797 3.409 1.195 5.114 0.164 1.075 1.785 1.252 1.673-0.302-0.638-3.275-1.274-6.67-1.911-9.945 1.012 0.561 2.061 1.196 3.075 1.756 1.072 0.383 1.113-0.403 0.527-0.85-0.672-0.438-1.362-0.82-2.033-1.257-0.672-0.482-1.343-0.964-2.013-1.446-0.196-0.154-0.474-0.279-0.835-0.249-0.569 0.079-1.122 0.204-1.69 0.282-0.367 0.088-0.605 0.247-0.785 0.437-0.432 0.494-0.864 0.987-1.297 1.481-0.66 0.213-1.319 0.426-1.979 0.639-0.814 0.266-0.532 1.153 0.238 1.009 0.853-0.202 1.707-0.404 2.56-0.605 0.125-0.090 0.25-0.179 0.375-0.269 0.165-0.229 0.329-0.457 0.493-0.686 0.078 0.022 0.156 0.044 0.234 0.067z"></path>
<path fill="#000" d="M10.894 4.107c0.653 0 1.184 0.523 1.184 1.167s-0.53 1.167-1.184 1.167c-0.653 0-1.183-0.522-1.183-1.167s0.53-1.167 1.183-1.167z"></path>
<path fill="none" stroke="#c50000" stroke-width="2.512" stroke-miterlimit="10" stroke-linecap="butt" stroke-linejoin="miter" d="M4.213 4.464l15.072 15.072"></path>
</svg>
