<?xml version="1.0" encoding="utf-8"?>
<!-- Generated by IcoMoon.io -->
<!DOCTYPE svg PUBLIC "-//W3C//DTD SVG 1.1//EN" "http://www.w3.org/Graphics/SVG/1.1/DTD/svg11.dtd">
<svg version="1.1" xmlns="http://www.w3.org/2000/svg" xmlns:xlink="http://www.w3.org/1999/xlink" width="24" height="24" viewBox="0 0 24 24">
<path fill="#d92827" d="M11.97 24l-4.949-0.056-6.906-6.968v-9.888l3.511-3.484 3.453-3.54 4.95 0.057h4.891l6.965 7.023-0.057 4.945v4.944l-3.454 3.484-3.511 3.484z"></path>
<path fill="#fff" d="M1.036 7.48v9.103l6.389 6.461h9.035l6.446-6.406v-9.101l-6.389-6.462-9.036-0.056-6.446 6.461zM7.252 23.382l-6.561-6.687v-9.384l6.619-6.63h9.381l6.618 6.686-0.057 9.44-6.618 6.63-9.381-0.056z"></path>
<path fill="#fff" d="M4.605 12.483h-1.223v3.495h-1.128v-7.965h2.351c1.234 0 2.069 0.891 2.069 2.235 0 1.451-0.741 2.235-2.069 2.235zM4.546 9.131h-1.164v2.259h1.164c0.659 0 1.022-0.416 1.022-1.141 0-0.666-0.411-1.118-1.022-1.118z"></path>
<path fill="#fff" d="M10.753 15.978l-0.552-2.175h-1.693l-0.517 2.175h-1.14l1.963-7.965h1.105l1.963 7.965h-1.128zM9.343 10.391l-0.552 2.294h1.128l-0.576-2.294z"></path>
<path fill="#fff" d="M15.927 15.978l-1.046-3.744h-1.081v3.744h-1.129v-7.965h2.351c1.234 0 2.069 0.844 2.069 2.128 0 0.951-0.388 1.64-1.129 1.926l1.129 3.911h-1.164zM14.963 9.131h-1.164v2.009h1.164c0.659 0 1.023-0.357 1.023-0.998 0-0.618-0.412-1.010-1.023-1.010z"></path>
<path fill="#fff" d="M18.126 15.978v-7.965h3.703v1.117h-2.574v2.009h1.634v1.094h-1.634v2.627h2.88v1.117h-4.008z"></path>
</svg>
