<?xml version="1.0" encoding="utf-8"?>
<!-- Generated by IcoMoon.io -->
<!DOCTYPE svg PUBLIC "-//W3C//DTD SVG 1.1//EN" "http://www.w3.org/Graphics/SVG/1.1/DTD/svg11.dtd">
<svg version="1.1" xmlns="http://www.w3.org/2000/svg" xmlns:xlink="http://www.w3.org/1999/xlink" width="24" height="24" viewBox="0 0 24 24">
<path fill="#fff" d="M23.936 22.444c0 0.821-0.671 1.492-1.492 1.492h-20.888c-0.821 0-1.492-0.671-1.492-1.492v-20.888c0-0.821 0.671-1.492 1.492-1.492h20.888c0.821 0 1.492 0.671 1.492 1.492v20.888"></path>
<path fill="#000" d="M22.941 22.444c0 0.274-0.224 0.497-0.497 0.497h-20.888c-0.274 0-0.497-0.224-0.497-0.497v-20.888c0-0.273 0.224-0.497 0.497-0.497h20.888c0.273 0 0.497 0.224 0.497 0.497v20.888zM22.444 0.437h-20.888c-0.615 0-1.119 0.503-1.119 1.119v20.888c0 0.615 0.504 1.119 1.119 1.119h20.888c0.615 0 1.119-0.504 1.119-1.119v-20.888c0-0.615-0.503-1.119-1.119-1.119z"></path>
<path fill="#000" d="M9.147 14.725l-1.205-0.388c-0.061-0.034-0.134-0.049-0.205-0.054-0.228-0.021-0.414 0.186-0.414 0.414 0 0.106 0.044 0.212 0.117 0.287l2.736 3.791 2.636-3.791c0.074-0.075 0.117-0.181 0.117-0.287 0-0.228-0.201-0.445-0.414-0.414-0.071 0.009-0.143 0.020-0.205 0.054l-1.129 0.388-0.001-2.354c0-1.222 1.013-2.226 2.235-2.226s2.234 1.004 2.234 2.226l-0.001 6.395 2.067 0.009-0.004-6.412c0-2.367-1.93-4.28-4.297-4.28-0.034 0-0.068 0.001-0.101 0.001h-5.196l0.346-1.152c0.036-0.142 0.051-0.262-0.028-0.378-0.118-0.172-0.355-0.218-0.528-0.1l-3.926 2.66 3.926 2.656c0.174 0.118 0.411 0.072 0.528-0.101 0.082-0.12 0.064-0.237 0.020-0.393l-0.338-1.134h1.625c-0.396 0.648-0.625 1.408-0.625 2.222l0.029 2.362z"></path>
<path fill="#bf2033" d="M18.64 17.234l-11.874-11.874c1.44-1.136 3.257-1.814 5.234-1.814 4.669 0 8.455 3.785 8.455 8.455 0 1.976-0.678 3.794-1.814 5.234zM3.545 12c0-1.976 0.678-3.794 1.814-5.234l11.874 11.874c-1.44 1.136-3.257 1.814-5.234 1.814-4.669 0-8.455-3.785-8.455-8.455zM12 1.556c-5.768 0-10.444 4.676-10.444 10.444s4.676 10.444 10.444 10.444c5.768 0 10.444-4.676 10.444-10.444s-4.676-10.444-10.444-10.444z"></path>
</svg>
