<?xml version="1.0" encoding="utf-8"?>
<!-- Generated by IcoMoon.io -->
<!DOCTYPE svg PUBLIC "-//W3C//DTD SVG 1.1//EN" "http://www.w3.org/Graphics/SVG/1.1/DTD/svg11.dtd">
<svg version="1.1" xmlns="http://www.w3.org/2000/svg" xmlns:xlink="http://www.w3.org/1999/xlink" width="24" height="24" viewBox="0 0 24 24">
<path fill="#ffd700" d="M0.527 10.717l10.256-10.197c0.675-0.671 1.824-0.621 2.551 0.111l10.041 10.099c0.729 0.732 0.772 1.881 0.097 2.552l-10.256 10.197c-0.675 0.671-1.823 0.621-2.551-0.111l-10.041-10.099c-0.729-0.732-0.772-1.881-0.097-2.553z"></path>
<path fill="#ffd700" d="M1.188 11.153l10.027-9.969c0.437-0.435 1.18-0.402 1.651 0.072l9.881 9.938c0.471 0.474 0.5 1.217 0.063 1.652l-10.027 9.97c-0.436 0.434-1.18 0.402-1.651-0.073l-9.881-9.938c-0.471-0.474-0.5-1.217-0.063-1.652z"></path>
<path fill="none" stroke="#000" stroke-width="0.7794" stroke-miterlimit="2.613" stroke-linecap="butt" stroke-linejoin="miter" d="M1.188 11.153l10.027-9.969c0.437-0.435 1.18-0.402 1.651 0.072l9.881 9.938c0.471 0.474 0.5 1.217 0.063 1.652l-10.027 9.97c-0.436 0.434-1.18 0.402-1.651-0.073l-9.881-9.938c-0.471-0.474-0.5-1.217-0.063-1.652z"></path>
<path fill="#000" d="M14.342 5.563c0.414 0 0.749 0.336 0.749 0.75s-0.335 0.749-0.749 0.749-0.749-0.335-0.749-0.749c-0-0.414 0.335-0.75 0.749-0.75z"></path>
<path fill="#000" d="M12.688 9.1l1.655-1.854c0.261-0.286 0.869-0.109 0.905 0.278l0.266 2.433c-0.538-0.042-1.095 0.030-1.633 0.268l-0.072-1.192-0.637 0.683c-0.441 0.297-0.816-0.307-0.484-0.618z"></path>
<path fill="#000" d="M7.612 14.118c-0.327 0-0.591 0.267-0.591 0.596s0.265 0.596 0.591 0.596 0.592-0.267 0.592-0.596c0-0.329-0.265-0.596-0.592-0.596zM7.616 13.055c0.907 0 1.642 0.742 1.642 1.655s-0.735 1.656-1.642 1.656c-0.907 0-1.642-0.742-1.642-1.656s0.735-1.655 1.642-1.655z"></path>
<path fill="#000" d="M15.167 11.568c-1.016 0-1.84 0.825-1.841 1.841s0.825 1.841 1.841 1.841c1.017 0 1.842-0.824 1.842-1.841s-0.825-1.841-1.842-1.841zM15.167 10.36c1.684 0 3.049 1.365 3.049 3.049s-1.365 3.049-3.049 3.049c-1.683 0-3.048-1.366-3.048-3.049s1.366-3.049 3.048-3.049z"></path>
<path fill="#000" d="M15.167 11.859c0.856 0 1.551 0.694 1.551 1.55s-0.695 1.551-1.551 1.551c-0.855 0-1.55-0.694-1.55-1.551s0.695-1.55 1.55-1.55z"></path>
<path fill="#000" d="M6.571 12.81c-0.462-0.849-0.876-1.639-1.338-2.488-0.153-0.614 0.245-1.113 0.725-1.138 2.079-0 4.157-0.001 6.236-0.002 0.072 0.001 0.127 0.038 0.16 0.109 0.223 0.46 0.445 0.92 0.667 1.379 0.010 0.014 0.011 0.031-0.005 0.058-0.933 0.753-1.312 2.024-1.247 3.022 0.005 0.031-0.001 0.053-0.030 0.054-0.744 0-1.489 0-2.234-0-0.033 0.001-0.058-0.033-0.082-0.074-0.374-0.867-1.702-1.416-2.738-0.871-0.048 0.031-0.087 0.014-0.115-0.050z"></path>
</svg>
