<?xml version="1.0" encoding="utf-8"?>
<!-- Generated by IcoMoon.io -->
<!DOCTYPE svg PUBLIC "-//W3C//DTD SVG 1.1//EN" "http://www.w3.org/Graphics/SVG/1.1/DTD/svg11.dtd">
<svg version="1.1" xmlns="http://www.w3.org/2000/svg" xmlns:xlink="http://www.w3.org/1999/xlink" width="24" height="24" viewBox="0 0 24 24">
<path fill="#edae15" d="M23.557 12.78c0.269-0.269 0.392-0.514 0.392-0.784s-0.122-0.539-0.392-0.808l-10.749-10.749c-0.269-0.269-0.539-0.392-0.808-0.392s-0.539 0.122-0.808 0.392l-10.749 10.749c-0.269 0.269-0.392 0.539-0.392 0.808s0.122 0.514 0.392 0.784l10.749 10.749c0.269 0.269 0.539 0.392 0.808 0.392s0.514-0.122 0.784-0.392l10.773-10.749z"></path>
<path fill="#231f20" d="M23.312 12.56c0.171-0.196 0.269-0.367 0.269-0.563s-0.098-0.367-0.269-0.563l-10.749-10.749c-0.196-0.171-0.367-0.269-0.563-0.269s-0.367 0.098-0.563 0.269l-10.749 10.749c-0.171 0.196-0.269 0.367-0.269 0.563s0.098 0.367 0.269 0.563l10.749 10.749c0.196 0.171 0.367 0.269 0.563 0.269s0.367-0.098 0.563-0.269l10.749-10.749zM23.018 11.728c0.098 0.098 0.147 0.171 0.147 0.269s-0.049 0.171-0.147 0.269l-10.749 10.749c-0.098 0.098-0.171 0.147-0.269 0.147s-0.171-0.049-0.269-0.147l-10.749-10.749c-0.098-0.098-0.147-0.171-0.147-0.269s0.049-0.171 0.147-0.269l10.749-10.749c0.098-0.098 0.171-0.147 0.269-0.147s0.171 0.049 0.269 0.147l10.749 10.749z"></path>
<path fill="#000" d="M14.892 6.75h-1.852v3.345l1.424 2.899v4.257h1.852v-4.683l-1.424-2.899v-2.919z"></path>
<path fill="#000" d="M9.134 6.75h1.852v3.345l-1.424 2.899v4.257h-1.852v-4.683l1.424-2.899v-2.919z"></path>
</svg>
