<?xml version="1.0" encoding="utf-8"?>
<!-- Generated by IcoMoon.io -->
<!DOCTYPE svg PUBLIC "-//W3C//DTD SVG 1.1//EN" "http://www.w3.org/Graphics/SVG/1.1/DTD/svg11.dtd">
<svg version="1.1" xmlns="http://www.w3.org/2000/svg" xmlns:xlink="http://www.w3.org/1999/xlink" width="24" height="24" viewBox="0 0 24 24">
<path fill="#ffd033" d="M23.679 11.223l-10.902-10.902c-0.428-0.427-1.127-0.427-1.555 0l-10.902 10.902c-0.427 0.427-0.427 1.127 0 1.555l10.902 10.902c0.428 0.427 1.127 0.427 1.555 0l10.902-10.902c0.427-0.428 0.427-1.127 0-1.555z"></path>
<path fill="#000" d="M23.472 11.43l-10.902-10.902c-0.313-0.313-0.826-0.313-1.139 0l-10.902 10.902c-0.313 0.313-0.313 0.826 0 1.139l10.902 10.902c0.313 0.313 0.826 0.313 1.139 0l10.902-10.902c0.313-0.313 0.313-0.826 0-1.139z"></path>
<path fill="#ffd033" d="M23.16 11.742l-10.902-10.902c-0.142-0.142-0.374-0.142-0.516 0l-10.902 10.902c-0.142 0.142-0.142 0.375 0 0.516l10.902 10.902c0.142 0.142 0.374 0.142 0.516 0l10.902-10.902c0.142-0.142 0.142-0.374 0-0.516z"></path>
<path fill="#000" d="M16.751 10.43l0.004 7.231h-2.573l-0.001-6.174c0-0.393-0.337-0.641-0.642-0.641l-3.951 0.015 0.479 1.445c0.042 0.076 0.060 0.166 0.068 0.254 0.025 0.282-0.23 0.512-0.511 0.512-0.132 0-0.262-0.054-0.356-0.144l-4.411-3.382 4.411-3.258c0.094-0.090 0.224-0.144 0.356-0.144 0.282 0 0.549 0.248 0.511 0.511-0.012 0.087-0.026 0.178-0.068 0.254l-0.479 1.395 5.016-0.003c1.182 0 2.146 0.964 2.146 2.146v-0.016z"></path>
</svg>
