<?xml version="1.0" encoding="utf-8"?>
<!-- Generated by IcoMoon.io -->
<!DOCTYPE svg PUBLIC "-//W3C//DTD SVG 1.1//EN" "http://www.w3.org/Graphics/SVG/1.1/DTD/svg11.dtd">
<svg version="1.1" xmlns="http://www.w3.org/2000/svg" xmlns:xlink="http://www.w3.org/1999/xlink" width="24" height="24" viewBox="0 0 24 24">
<path fill="#ffd700" d="M23.473 10.717l-10.256-10.197c-0.675-0.672-1.823-0.621-2.552 0.111l-10.041 10.099c-0.729 0.732-0.772 1.881-0.096 2.553l10.255 10.197c0.676 0.671 1.824 0.621 2.552-0.111l10.041-10.099c0.728-0.733 0.771-1.882 0.096-2.553z"></path>
<path fill="#ffd700" d="M22.809 11.152l-10.027-9.969c-0.436-0.435-1.18-0.402-1.651 0.072l-9.881 9.939c-0.472 0.474-0.5 1.217-0.062 1.652l10.026 9.969c0.437 0.434 1.18 0.402 1.652-0.072l9.881-9.938c0.472-0.474 0.5-1.218 0.062-1.653z"></path>
<path fill="none" stroke="#000" stroke-width="0.7738" stroke-miterlimit="2.613" stroke-linecap="butt" stroke-linejoin="miter" d="M22.809 11.153l-10.027-9.969c-0.436-0.434-1.18-0.402-1.651 0.072l-9.881 9.939c-0.472 0.474-0.5 1.217-0.062 1.653l10.026 9.968c0.437 0.434 1.18 0.402 1.652-0.072l9.881-9.938c0.472-0.474 0.5-1.218 0.062-1.652z"></path>
<path fill="#000" d="M4.651 11.607h3.256c1.876-2.244 5.748-2.332 8.094 0h3.092v1.882h-14.442v-1.882z"></path>
</svg>
