<?xml version="1.0" encoding="utf-8"?>
<!-- Generated by IcoMoon.io -->
<!DOCTYPE svg PUBLIC "-//W3C//DTD SVG 1.1//EN" "http://www.w3.org/Graphics/SVG/1.1/DTD/svg11.dtd">
<svg version="1.1" xmlns="http://www.w3.org/2000/svg" xmlns:xlink="http://www.w3.org/1999/xlink" width="24" height="24" viewBox="0 0 24 24">
<path fill="#ffd700" d="M0.527 10.717l10.256-10.197c0.675-0.671 1.824-0.622 2.552 0.111l10.041 10.099c0.728 0.732 0.771 1.881 0.096 2.552l-10.256 10.197c-0.675 0.672-1.823 0.622-2.552-0.111l-10.041-10.099c-0.728-0.732-0.771-1.881-0.096-2.552z"></path>
<path fill="#ffd700" d="M1.189 11.153l10.026-9.969c0.437-0.434 1.18-0.403 1.652 0.072l9.881 9.938c0.472 0.474 0.5 1.218 0.062 1.652l-10.026 9.969c-0.437 0.434-1.18 0.403-1.651-0.071l-9.882-9.939c-0.472-0.474-0.5-1.218-0.062-1.652z"></path>
<path fill="none" stroke="#000" stroke-width="0.7748" stroke-miterlimit="2.613" stroke-linecap="butt" stroke-linejoin="miter" d="M1.189 11.153l10.026-9.969c0.437-0.434 1.18-0.403 1.652 0.072l9.881 9.938c0.472 0.474 0.5 1.218 0.062 1.652l-10.026 9.969c-0.437 0.434-1.18 0.403-1.651-0.071l-9.882-9.939c-0.472-0.474-0.5-1.218-0.062-1.652z"></path>
<path fill="#000" d="M6.54 11.254c0.019 0.397 0.039 0.794 0.058 1.192 0.277 1.422 0.758 2.53 1.589 3.179 0.575 0.325 0.776 1.669 0.793 2.772l1.575-0.056c-0.193-1.311-0.001-2.631-1.258-4.083-0.681-0.575-0.914-1.243-1.070-1.895-0.016-0.392-0.032-0.785-0.048-1.178 0.351 0.138 0.702 0.276 1.053 0.414 0.495 0.184 0.677-0.188 0.444-0.537-0.77-1.106-1.54-2.213-2.31-3.319-0.137-0.221-0.313-0.21-0.428 0.035-0.65 1.167-1.299 2.335-1.949 3.503-0.202 0.327 0.173 0.722 0.536 0.493 0.337-0.173 0.676-0.346 1.015-0.52z"></path>
<path fill="#000" d="M17.246 11.254c-0.019 0.397-0.039 0.794-0.058 1.192-0.277 1.422-0.758 2.53-1.589 3.179-0.576 0.325-0.776 1.669-0.793 2.772l-1.575-0.056c0.194-1.311 0.002-2.631 1.258-4.083 0.68-0.575 0.914-1.243 1.070-1.895 0.016-0.392 0.032-0.785 0.048-1.178-0.35 0.138-0.702 0.276-1.053 0.414-0.496 0.184-0.677-0.188-0.444-0.537 0.77-1.106 1.54-2.213 2.31-3.319 0.137-0.221 0.313-0.21 0.429 0.035 0.649 1.167 1.299 2.335 1.949 3.503 0.202 0.327-0.173 0.722-0.536 0.493-0.338-0.173-0.677-0.346-1.015-0.52z"></path>
<path fill="#000" d="M10.103 7.581c0.392 1.8 3.338 1.8 3.681 0v-3.927h-3.681v3.927z"></path>
</svg>
